<?xml version="1.0" ?>
<!-- Generator: Adobe Illustrator 22.1.0, SVG Export Plug-In . SVG Version: 6.00 Build 0)  -->
<svg xmlns:odm="http://product.corel.com/CGS/11/cddns/" xmlns="http://www.w3.org/2000/svg"  viewBox="0 0 248.03592 227.13419">
	<style type="text/css">
	.st0{fill:#576ECD;}
	.st1{fill:#4D66CC;}
	.st2{fill:#89A1D4;}
	.st3{fill:none;stroke:#000000;stroke-width:6.3;}
	.st4{fill:none;stroke:#09098F;stroke-width:6.3;}
</style>
	<path class="st0" d="M 209.3,193.53418 C 209.3,209.33418 199.40001,226.43419 181.5,226.43419 C 163.10001,226.43419 153.60001,209.13419 153.60001,193.53418 C 153.60001,177.73419 163.60001,160.53418 181.5,160.53418 C 199.8,160.53418 209.3,178.13419 209.3,193.53418 M 201.2,193.33418 C 201.2,181.73419 197.90001,162.93419 181.40001,162.93419 C 165.10001,162.93419 161.7,181.63419 161.7,193.33418 C 161.7,197.73419 162.10001,201.73419 162.90001,205.33418 C 164.8,214.03418 170.3,223.53418 181.40001,223.53418 C 197.7,223.53418 201.2,204.83418 201.2,193.33418"/>
	<path d="M 87.9,220.03418 C 84.5,224.53418 79.3,226.83418 76.0,226.73419 C 72.1,227.03418 66.6,224.33418 66.6,218.73419 C 66.4,209.03418 79.9,203.93419 88.1,198.53418 L 88.1,190.43419 C 88.20001,187.43419 88.20001,184.83418 87.1,183.33418 C 84.8,180.03418 78.0,181.43419 75.6,185.33418 C 74.5,186.63418 72.1,197.83418 67.5,194.03418 C 66.3,192.03418 66.8,189.63419 69.5,186.83418 C 74.3,181.83418 78.9,178.83418 85.5,179.13418 C 94.7,179.93418 95.1,188.43418 94.8,194.53417 C 94.8,198.83417 94.8,202.63418 94.7,205.93418 L 94.6,216.83418 C 95.8,224.13418 99.3,220.63418 100.9,220.13418 L 100.7,222.53417 C 96.9,226.83418 90.3,228.43419 87.9,220.03418 M 88.0,201.23419 C 80.7,204.13418 73.3,209.03418 73.3,216.53418 C 73.3,225.13419 82.7,222.93419 87.9,216.03418 L 88.0,201.23419"/>
	<path d="M 121.7,227.13419 C 108.8,226.93419 102.9,213.03418 102.9,202.7342 C 102.9,192.4342 109.5,179.13419 123.0,179.13419 C 129.8,179.13419 135.10001,182.03418 135.10001,187.7342 C 135.10001,192.7342 133.5,193.33419 132.0,191.63419 C 129.40001,187.33419 127.7,181.53418 121.6,181.53418 C 112.0,181.53418 109.3,196.43419 109.1,202.33418 C 108.8,209.53418 113.4,222.93419 123.20001,222.93419 C 129.00001,222.93419 131.30001,222.13419 134.7,218.23419 L 136.2,219.93419 C 133.5,223.83418 127.7,227.13419 121.7,227.13419"/>
	<path d="M 63.3,224.73419 L 42.9,224.73419 L 42.9,221.53418 C 43.7,221.53418 44.7,221.43419 46.0,221.23419 C 49.1,220.83418 49.2,219.13418 49.2,215.83418 L 49.0,171.93419 L 48.4,171.93419 L 30.7,223.73419 L 29.6,223.73419 L 12.4,170.93419 L 12.0,170.93419 L 10.1,215.53418 C 10.1,217.33418 10.9,218.73419 11.7,219.63419 C 12.2,220.2342 13.3,220.83419 14.9,221.33419 C 16.6,221.9342 17.7,222.4342 18.2,222.53419 L 18.2,224.7342 L 0.0,224.7342 L 0.0,221.53419 C 1.1,221.4342 2.2,221.2342 3.4,220.9342 C 4.6,220.6342 5.5,220.1342 6.1,219.4342 C 7.0,218.6342 7.1,216.9342 7.5,215.2342 L 8.8,166.83419 C 8.0,166.03419 7.1,165.4342 6.0,165.03419 C 5.0,164.6342 3.9,164.4342 2.8,164.4342 L 2.8,161.9342 L 16.2,161.9342 L 32.4,209.03419 L 48.7,162.03419 L 62.1,161.9342 L 62.1,165.03419 C 61.5,165.1342 60.6,165.23419 59.6,165.4342 C 58.5,165.73419 57.8,165.9342 57.3,166.1342 C 55.5,166.9342 55.7,168.8342 55.7,170.6342 L 56.3,215.8342 C 56.3,220.1342 59.7,222.0342 63.3,222.1342 L 63.3,224.73419 L 63.3,224.73419"/>
	<path class="st0" d="M 247.2,200.93419 C 249.10001,207.63419 247.80001,216.03418 242.90001,220.73419 C 233.90001,229.73419 219.90001,228.03418 213.2,219.73419 L 213.0,207.43419 L 215.90001,207.43419 C 215.40001,216.23419 222.60001,225.93419 231.2,223.73419 C 234.40001,222.93419 239.7,219.03418 240.7,215.83418 C 242.5,209.53418 240.30001,202.73419 234.80001,198.93419 C 233.30001,197.93419 231.10001,196.53418 229.10001,195.53418 C 227.10001,194.63419 225.30001,193.73419 223.90001,192.93419 C 221.0,191.33418 218.7,189.23419 217.10001,186.63419 C 214.2,181.83419 213.40001,176.53418 215.5,171.13419 C 216.3,169.03418 217.40001,167.23418 218.90001,165.53418 C 220.3,164.03418 221.90001,162.83418 223.8,161.93419 C 229.90001,159.23418 239.69999,159.83418 244.5,164.63419 L 244.7,175.03418 L 242.90001,175.03418 C 241.0,167.13419 237.5,162.53418 229.3,162.93419 C 227.0,163.03418 224.3,164.63419 222.6,166.43419 C 220.99999,168.23418 220.4,171.23418 220.4,173.83418 C 220.4,178.43419 223.49999,182.93419 227.1,184.93419 C 231.69999,187.73419 236.8,189.43419 241.3,192.63419 C 244.0,194.63419 246.2,197.43419 247.2,200.93419"/>
	<path class="st1" d="M 57.1,18.33418 L 133.8,18.33418 L 119.3,49.03418 L 113.1,78.13418 L 134.90001,80.23418 L 138.3,125.03418 L 57.1,125.03418 L 57.1,18.33418"/>
	<path class="st2" d="M 133.60001,18.33418 L 194.30001,18.33418 L 194.30001,125.03418 L 137.80001,125.03418 L 135.60001,79.13418 L 112.80001,79.53417 L 118.00001,48.93417 L 133.60001,18.33418"/>
	<path class="st3" d="M 136.60001,102.03418 C 151.7,101.73418 162.90001,98.23418 171.80001,92.93418"/>
	<path class="st4" d="M 79.6,92.63419 C 96.70001,101.43419 114.5,103.43419 133.3,102.23419"/>
	<path class="st4" d="M 94.6,36.03418 L 94.6,52.13418"/>
	<path class="st3" d="M 153.0,36.03418 L 153.0,52.13418"/>
	<path class="st3" d="M 146.40001,2.03418 C 129.40001,22.13418 114.70001,48.43418 113.1,79.13419 L 138.10001,79.13419 C 131.80001,100.03418 135.2,123.43419 144.80001,142.33419"/>
</svg>