<?xml version="1.0" ?>
<!-- Generator: Adobe Illustrator 24.1.0, SVG Export Plug-In . SVG Version: 6.00 Build 0)  -->
<svg xmlns="http://www.w3.org/2000/svg" viewBox="0 0 112.8897705 12.7768002">
	<g display="none">
		<path display="inline" fill="#FFEE00" d="M-30.1031494,6.2276001c0.3040771,0.026001,0.572998-0.1990013,0.5999756-0.5029984   c0.026001-0.3040009-0.1989746-0.5720024-0.5029297-0.5990028c-0.3050537-0.0270004-0.572998,0.1990013-0.5999756,0.5030022   C-30.6320801,5.9326019-30.4071045,6.2005997-30.1031494,6.2276001 M-27.9560547,11.9975986l-3.5100098-4.0479984   l0.4329834-4.9500008l4.1529541-3.3009987L-11.434082,1.050602l-1.0760498,12.2989979L-27.9560547,11.9975986z"/>
		<path display="inline" d="M-30.0539551,6.1130981c0.223999,0,0.414917-0.1709976,0.4349365-0.3979988   c0.0009766-0.0130005,0.0009766-0.026001,0.0009766-0.0389977c0-0.2240028-0.1710205-0.4150009-0.3989258-0.4350014   c-0.012085-0.0009995-0.0250244-0.0019989-0.0380859-0.0019989c-0.223999,0-0.4158936,0.1719971-0.4349365,0.3999977   c-0.0009766,0.0130005-0.0009766,0.0250015-0.0009766,0.038002c-0.0009766,0.2229996,0.1710205,0.4149971,0.3979492,0.4349976   C-30.0799561,6.1130981-30.0670166,6.1130981-30.0539551,6.1130981 M-30.1130371,6.3431015l0.0100098-0.1160011   L-30.1130371,6.3431015c-0.3480225-0.031002-0.6099854-0.3220024-0.6109619-0.6660004   c0-0.0200005,0.0009766-0.0390015,0.0030518-0.0590019c0.0299072-0.3479996,0.3218994-0.6110001,0.6658936-0.6110001   c0.019043,0,0.0390625,0.0009995,0.059082,0.0030022c0.3480225,0.0309982,0.6099854,0.3219986,0.6099854,0.6660004   c0,0.0189972,0,0.0379982-0.0020752,0.0589981c-0.0308838,0.3479996-0.3218994,0.6100006-0.6658936,0.6100006   C-30.072998,6.3451004-30.0930176,6.3451004-30.1130371,6.3431015 M-12.6149902,13.2230988l1.0549316-12.0669975   L-26.8439941-0.1819l-4.0780029,3.2410011l-0.4239502,4.8519974l3.4468994,3.9750004L-12.6149902,13.2230988z    M-27.9659424,12.1130981l0.0098877-0.1149998l0.0880127-0.0769997l-0.0880127,0.0769997L-27.9659424,12.1130981   l-0.0471191-0.0039997l-3.572998-4.1210003l0.4420166-5.0489998l4.2280273-3.3600006l15.6080322,1.3660011l-1.0970459,12.5289993   L-27.9659424,12.1130981z"/>
		<path display="inline" d="M-13.4161377,7.7889996l-0.0079346,0.0849991l0.0529785,0.0050011   c0.0469971,0.0039997,0.1099854,0.0179996,0.1140137-0.0289993c0.0039063-0.0430012-0.0330811-0.0500011-0.0740967-0.0530014   L-13.4161377,7.7889996z M-13.2341309,8.1009998l-0.0560303-0.0050011l-0.0739746-0.1659985l-0.0639648-0.0060005   l-0.0140381,0.1590004l-0.0499268-0.0050011l0.0299072-0.3430004l0.1450195,0.0130005   c0.0620117,0.0050011,0.1159668,0.0290012,0.1099854,0.1009998c-0.0059814,0.0680008-0.0539551,0.0880013-0.0999756,0.0860004   L-13.2341309,8.1009998z M-13.6151123,7.8920002c-0.0119629,0.1439991,0.0949707,0.2659988,0.2349854,0.2779999   c0.1390381,0.0119991,0.2650146-0.0890007,0.2779541-0.2329998c0.0130615-0.144001-0.0939941-0.2650013-0.2340088-0.2779999   C-13.4760742,7.6469994-13.6021729,7.7479992-13.6151123,7.8920002 M-13.6640625,7.8879986   c0.0148926-0.1699982,0.1608887-0.2929993,0.3328857-0.2779999c0.1700439,0.0139999,0.2930908,0.1610012,0.2790527,0.3320007   c-0.0150146,0.1690006-0.1619873,0.2929993-0.3330078,0.2779999C-13.5551758,8.2049999-13.6790771,8.0579987-13.6640625,7.8879986"/>
		<path display="inline" d="M-16.9044189,7.2315979l0.4909668,1.0130005l0.0539551,0.0050011   c0.06604-0.1130009,0.1240234-0.2250004,0.2020264-0.3320007l0.4229736-0.5839996l2.1080322,0.1849995l-1.9489746,1.9419994   l-0.1390381,1.5890007l-1.8339844-0.1599998l0.1390381-1.5890007l-1.6170654-2.2549973L-16.9044189,7.2315979z"/>
		<path display="inline" d="M-18.9647217,7.0514984l-0.19104,2.1810017   c-0.0939941,1.0749989-1.0469971,1.4839993-2.4400635,1.3619995c-1.3919678-0.1210003-2.2609863-0.6900005-2.1660156-1.7649994   l0.19104-2.1810017l1.8079834,0.1580009L-21.942749,8.859499c-0.0250244,0.2889996-0.0340576,0.5440006,0.447998,0.5860004   c0.4819336,0.0429993,0.5169678-0.210001,0.5419922-0.4990005l0.1799316-2.0529976L-18.9647217,7.0514984z"/>
		<path display="inline" d="M-26.6177979,9.2025986l0.2120361,0.019001c0.3079834,0.0270004,0.7529297,0.0609989,0.7800293-0.243   c0.0269775-0.3070011-0.4530029-0.3439999-0.7540283-0.3710003l-0.1850586-0.0160007L-26.6177979,9.2025986z    M-26.3248291,7.8295994c0.2730713,0.0240002,0.5830078,0.0310001,0.6051025-0.2229996   c0.0239258-0.2740002-0.3270264-0.2849979-0.6000977-0.309l-0.1300049-0.0109978L-26.4968262,7.8146L-26.3248291,7.8295994z    M-28.1107178,6.2445984l2.1829834,0.1910019c1,0.0870018,2.0039063,0.3470001,1.9299316,1.198   c-0.0279541,0.323-0.2819824,0.6209984-0.7429199,0.6839981l-0.0020752,0.0290012   c0.5490723,0.191,0.8790283,0.5159988,0.8399658,0.9559994c-0.065918,0.7579994-1.0739746,0.9300003-1.9779053,0.8509998   l-2.5531006-0.2229996L-28.1107178,6.2445984z"/>
		<polygon display="inline" points="-16.0966797,3.1428986 -12.1536865,3.4878998 -12.2587891,4.6849022 -13.2897949,4.5609016    -13.5097656,7.082901 -15.3857422,6.9188995 -15.1647949,4.3969002 -16.2017822,4.3409004  "/>
		<g display="inline">
			<path d="M-19.9024658,5.1942978l0.0909424,0.0620003c0.3189697,0.2150002,0.7099609,0.4020004,1.1409912,0.4400024    c0.1850586,0.0159988,0.4840088-0.012001,0.4980469-0.1780014c0.0150146-0.1669998-0.2299805-0.2029991-0.3990479-0.2420006    l-0.3730469-0.0820007c-0.723999-0.1569977-1.3118896-0.5189972-1.2619629-1.0949974    c0.0760498-0.8759995,1.2349854-1.2670021,2.3570557-1.1690025c0.5889893,0.0510025,1.1199951,0.2010002,1.6079102,0.4660034    l-0.5889893,0.8989983c-0.3079834-0.1850014-0.6599121-0.3390007-1.0639648-0.3740005    c-0.1639404-0.0139999-0.407959,0.0089989-0.4210205,0.1599998c-0.0119629,0.137001,0.2189941,0.177002,0.361084,0.2140007    l0.4179688,0.105999c0.782959,0.196003,1.3309326,0.5500031,1.276001,1.1760025    c-0.0770264,0.8789978-1.2370605,1.2169991-2.3530273,1.1189995c-0.6500244-0.0569992-1.3919678-0.25-1.9549561-0.5110016    L-19.9024658,5.1942978z"/>
		</g>
		<polygon display="inline" points="-23.8895264,2.4613991 -20.4195557,2.7644005 -20.5075684,3.7714005 -22.088623,3.6334    -22.1196289,3.9854012 -20.6755371,4.1114006 -20.7596436,5.0694008 -22.2036133,4.9434013 -22.2346191,5.3054008    -20.5996094,5.4484024 -20.6876221,6.4554024 -24.2126465,6.1473999  "/>
		<g display="inline">
			<path d="M-27.0058594,4.9953995l0.2120361,0.019001c0.3079834,0.0270004,0.7529297,0.0610008,0.7800293-0.2420006    c0.0269775-0.3079987-0.4530029-0.3449974-0.7540283-0.3709984l-0.18396-0.0170021L-27.0058594,4.9953995z M-26.7128906,3.6224022    c0.2730713,0.0239983,0.5830078,0.0309982,0.6051025-0.2229996c0.0239258-0.2740021-0.3270264-0.2849998-0.6000977-0.3090019    l-0.1300049-0.0109978l-0.0458984,0.5279999L-26.7128906,3.6224022z M-28.4987793,2.0373993l2.1829834,0.1910019    c1,0.0870018,2.0050049,0.3470001,1.9299316,1.1980019c-0.0279541,0.322998-0.2819824,0.6209984-0.7429199,0.6839981    l-0.0020752,0.0299988c0.5479736,0.1910019,0.8790283,0.5149994,0.8410645,0.9550018    c-0.0670166,0.7579994-1.0750732,0.9309998-1.9790039,0.8520012l-2.5531006-0.2240028L-28.4987793,2.0373993z"/>
		</g>
	</g>
	<g display="none">
		<rect x="-5.776001" y="0.8770981" display="inline" width="0.243042" height="11.6389999"/>
	</g>
	<g>
		<g>
			<path d="M44.6802979,9.1237984c0,0.5330009-0.0010986,0.1790009-0.0010986,0.467001    c-1.3209229,0.7450008-3.0549316,1.3040009-4.8009033,1.3040009c-3.7130127,0-6.9700928-2.0210018-6.9700928-4.1740017    s3.2570801-4.178997,6.9700928-4.178997c1.8509521,0,3.677002,0.6029968,5.0119629,1.4160004l0.2839355,0.1739998    l1.0800781-1.6940002l-0.2940674-0.182003c-1.6599121-1.0259972-3.8199463-1.5909996-6.0819092-1.5909996    c-4.9530029,0-8.9840088,2.7170029-8.9840088,6.0559998c0,3.3400002,4.0310059,6.0560017,8.9840088,6.0560017    c2.5579834,0,5-0.7340012,6.7019043-2.0150013l0.1350098-0.1029987l0.0030518-3.4450016h-5.6750488v1.9099998H44.6802979z"/>
			<path d="M65.9302979,6.7141991c0-2.192997,3.1669922-4.1799965,6.9150391-4.1799965    c3.68396,0,6.9160156,2.0249977,6.9160156,4.1799965s-3.2320557,4.1760006-6.9160156,4.1760006    C69.09729,10.8901997,65.9302979,8.9062004,65.9302979,6.7141991 M63.9173584,6.7141991    c0,3.3410015,4.0048828,6.0580006,8.9279785,6.0580006c4.9239502,0,8.9289551-2.7169991,8.9289551-6.0580006    S77.7692871,0.655201,72.8453369,0.655201C67.9222412,0.655201,63.9173584,3.3731995,63.9173584,6.7141991"/>
		</g>
		<polygon points="95.5614014,0.9204979 93.8682861,0.9204979 93.8682861,12.5254974 95.9013672,12.5254974 95.9013672,0.9204979     "/>
		<polygon points="85.0634766,0.9204979 83.37146,0.9204979 83.37146,12.5124989 83.7133789,12.5134983 91.9903564,12.5134983    91.9903564,10.4804993 85.4034424,10.4804993 85.4034424,0.9204979  "/>
		<g>
			<path d="M61.7537842,0.9204979h-1.6920166v8.5860004c-1.0159912-0.9699993-8.9899902-8.5839977-8.9899902-8.5839977    l-0.1361084-0.0020027h-1.6929932v11.6049995h2.0340576V3.9305c1.0150146,0.9710007,8.9890137,8.5919991,8.9890137,8.5919991    l0.1359863,0.0029984H62.09375V0.9204979H61.7537842z"/>
		</g>
		<polygon points="7.2930908,7.9298992 12.7270508,0.9239006 14.6090088,0.9239006 14.6090088,12.5359001 12.5750732,12.5359001    12.5750732,5.0228996 7.2750244,11.2749004 2.0330811,5.0269012 2.0330811,12.5249004 0,12.5249004 0,0.9209023    1.8830566,0.9289017  "/>
		<g>
			<path d="M24.8668213,0.928299h-2.5991211L16.2628174,12.5063l2.2969971,0.0319996c0,0,4.5679932-8.8779984,5.1069336-9.9239998    c0.5379639,1.0460014,5.1149902,9.9239998,5.1149902,9.9239998L31.0777588,12.5063L25.0737305,0.928299H24.8668213z"/>
			<path d="M112.8897705,12.5384979l-6.0170898-11.6099968h-0.2070313h-2.5979004l-6.0050049,11.5779972l2.3099365-0.0019989    c0,0,4.5540771-8.8449993,5.092041-9.8900013c0.5389404,1.045002,5.1159668,9.9239998,5.1159668,9.9239998H112.8897705z"/>
		</g>
		<polygon points="20.8317871,9.198698 23.8206787,11.2046986 26.4616699,9.198698  "/>
		<polygon points="102.7224121,9.198698 105.7113037,11.2046986 108.3522949,9.198698  "/>
		<path d="M110.1638184,0.868c0.151001,0,0.3599854,0.0250015,0.3599854-0.1779976   c0-0.1500015-0.1240234-0.170002-0.2550049-0.170002h-0.2950439V0.868H110.1638184z M109.9737549,1.4710007h-0.1369629V0.3950005   h0.4620361c0.2810059,0,0.3759766,0.1049995,0.3759766,0.2980003c0,0.2080002-0.1459961,0.2849998-0.3330078,0.2999992   l0.3199463,0.4780006h-0.1549072L110.2037354,0.993h-0.2299805V1.4710007z M110.9768066,0.9379997   c0-0.4579964-0.3300781-0.7889977-0.7879639-0.7889977c-0.460083,0-0.7930908,0.3310013-0.7930908,0.7889977   c0,0.4630013,0.3330078,0.7930031,0.7930908,0.7930031C110.6467285,1.7310028,110.9768066,1.401001,110.9768066,0.9379997    M109.2458496,0.9379997C109.2458496,0.4220009,109.6688232,0,110.1888428,0c0.5189209,0,0.9389648,0.4220009,0.9389648,0.9379997   c0,0.5200005-0.4200439,0.9430008-0.9389648,0.9430008C109.6688232,1.8810005,109.2458496,1.4580002,109.2458496,0.9379997"/>
	</g>
	<g>
</g>
	<g>
</g>
	<g>
</g>
	<g>
</g>
	<g>
</g>
	<g>
</g>
</svg>