<?xml version="1.0" ?>
<!-- Generator: Adobe Illustrator 16.0.0, SVG Export Plug-In . SVG Version: 6.00 Build 0)  -->
<svg xmlns="http://www.w3.org/2000/svg" version="1.2" baseProfile="tiny-ps" id="Layer_1" viewBox="0 0 500 500" xml:space="preserve">
	<g>
		<rect fill="#FFFFFF" stroke="#000000" stroke-miterlimit="10" width="500" height="500"/>
		<g>
			<path fill="#72BF44" d="M256.688,310.877c66.614,0,120.614-54.002,120.614-120.614c0-66.615-54-120.618-120.614-120.618    c-66.612,0-120.614,54.003-120.614,120.618C136.074,256.875,190.076,310.877,256.688,310.877"/>
			<path fill="#50B848" d="M256.684,70.495c66.131,0,119.75,53.621,119.75,119.768s-53.619,119.766-119.75,119.766    c-66.139,0-119.751-53.619-119.751-119.766S190.544,70.495,256.684,70.495"/>
			<path fill="#FFFFFF" d="M237.377,88.544c9.166,2.369,17.775,6.245,25.674,11.454c26.652,17.587,42.734,48.484,49.699,78.929    c3.961,17.323,5.295,35.666,3.443,53.361c-1.688,16.162-6.168,32.74-14.75,46.665c-7.066,11.459-16.014,22.024-26.996,29.763    c-5.797,0.863-11.729,1.314-17.768,1.314c-7.877,0-15.574-0.769-23.027-2.221c-3.553-2.273-6.925-4.851-10.087-7.727    c-15.63-14.219-24.248-33.904-26.561-54.698c-2.771-24.848,3.399-50.009,14.309-72.271c7.163-14.614,14.864-30.618,19.341-46.274    c2.346-8.19,5.214-21.379,0.14-29.108l-8.608-13.113L237.377,88.544z"/>
			<path fill="#0072BC" d="M235.86,94.405c70.378,18.186,93.118,128.341,60.421,181.37c-8.723,14.15-21.65,28.8-39.619,35.664    c-48.944-13.408-70.876-72.367-39.907-135.662C233.309,142.068,246.463,110.558,235.86,94.405"/>
			<path fill="#FFFFFF" d="M247.835,210.157c30.989,8.159,43.141,60.845,27.092,84.609c-4.328,6.412-10.096,13.464-18.355,16.673    c-22.496-6.27-32.943-33.83-18.711-63.415C245.473,232.266,252.714,217.706,247.835,210.157"/>
			<path fill="#FCAF17" d="M376.432,190.263c0,10.335-1.309,20.364-3.771,29.933c-0.982,3.828-2.152,7.576-3.496,11.249    c-0.672,1.832-1.385,3.646-2.143,5.437c-3.033,7.164-6.74,13.973-11.041,20.344c-2.154,3.187-4.457,6.264-6.896,9.222    c-21.965,26.616-55.205,43.583-92.404,43.583h-0.004c-41.333,0-77.775-20.946-99.296-52.805c-1.076-1.591-2.114-3.211-3.114-4.857    c-2.001-3.292-3.843-6.689-5.526-10.179c-7.569-15.71-11.808-33.323-11.808-51.927c0-36.395,16.252-68.974,41.871-90.941    c3.891-3.337,7.992-6.431,12.298-9.251c2.02-1.326,4.089-2.585,6.19-3.793c14.16-8.107,30.115-13.434,47.145-15.162    c0.733-0.079,1.478-0.109,2.213-0.17c3.312-0.275,6.647-0.451,10.027-0.451h0.004C322.814,70.495,376.432,124.116,376.432,190.263     M383.264,190.266c0-69.736-56.865-126.605-126.584-126.605S130.1,120.53,130.1,190.266c0,69.729,56.861,126.599,126.58,126.599    S383.264,259.995,383.264,190.266"/>
			<polygon fill="#0072BC" points="135.284,377.932 128.483,377.932 128.483,342.136 128.364,342.136 121.802,377.932     114.582,377.932 108.199,342.136 108.079,342.136 108.079,377.932 101.278,377.932 101.278,335.096 111.957,335.096     118.341,368.863 118.4,368.863 124.665,335.096 135.284,335.096   "/>
			<path fill="#0072BC" d="M146.536,377.932h-7.756l12.528-42.836h8.473l12.409,42.836h-7.995l-2.266-8.831h-12.947L146.536,377.932z     M150.951,361.704h8.949l-4.355-16.943h-0.119L150.951,361.704z"/>
			<polygon fill="#0072BC" points="183.048,358.721 183.048,377.932 175.709,377.932 175.709,335.096 183.048,335.096     183.048,351.323 196.77,351.323 196.77,335.096 204.108,335.096 204.108,377.932 196.77,377.932 196.77,358.721   "/>
			<path fill="#0072BC" d="M215.413,377.932h-7.756l12.528-42.836h8.473l12.409,42.836h-7.995l-2.266-8.831h-12.947L215.413,377.932z     M219.828,361.704h8.949l-4.355-16.943h-0.119L219.828,361.704z"/>
			<polygon fill="#0072BC" points="266.271,335.096 273.133,335.096 273.133,377.932 265.795,377.932 251.477,347.386     251.357,347.386 251.357,377.932 244.556,377.932 244.556,335.096 252.252,335.096 266.213,364.926 266.271,364.926   "/>
			<path fill="#0072BC" d="M284.348,377.932h-7.756l12.529-42.836h8.473l12.408,42.836h-7.994l-2.266-8.831h-12.947L284.348,377.932z     M288.764,361.704h8.949l-4.355-16.943h-0.119L288.764,361.704z"/>
			<path fill="#0072BC" d="M328.742,354.844h14.676v23.088h-4.893l-0.775-5.369c-0.238,0.357-0.477,0.716-0.715,1.073    c-0.24,0.357-0.518,0.716-0.836,1.074c-0.916,1.113-2.098,2.117-3.549,3.013c-1.453,0.895-3.393,1.343-5.818,1.343    c-4.215,0-7.965-1.85-11.246-5.549c-3.281-3.698-4.922-9.307-4.922-16.824c0-5.847,1.383-11.097,4.146-15.75    s7.109-6.96,13.035-6.921c4.098,0,7.309,1.045,9.637,3.133c2.326,2.087,3.928,4.365,4.803,6.831    c0.277,0.795,0.496,1.571,0.656,2.326c0.156,0.757,0.258,1.472,0.297,2.148l-7.338-0.06c0-0.318-0.109-0.776-0.328-1.373    c-0.219-0.596-0.527-1.212-0.924-1.849c-0.637-0.955-1.482-1.82-2.535-2.596c-1.057-0.775-2.357-1.163-3.908-1.163    c-2.586,0-4.902,1.193-6.951,3.579c-2.049,2.387-3.072,6.323-3.072,11.813c0,5.647,1.014,9.485,3.043,11.513    c2.029,2.029,4.256,3.104,6.682,3.223h0.238h0.24c0.396,0,0.992-0.079,1.789-0.239c0.795-0.16,1.611-0.561,2.445-1.202    c0.875-0.639,1.711-1.59,2.506-2.852c0.795-1.261,1.393-2.991,1.791-5.192h-8.174V354.844z"/>
			<path fill="#0072BC" d="M354.584,377.932h-7.756l12.529-42.836h8.473l12.408,42.836h-7.994l-2.268-8.831h-12.945L354.584,377.932z     M359,361.704h8.949l-4.355-16.943h-0.119L359,361.704z"/>
			<path fill="#0072BC" d="M383.867,335.095h17.777c2.984,0.041,5.262,0.776,6.832,2.208c1.57,1.433,2.654,3.023,3.252,4.773    c0.357,0.954,0.605,1.89,0.744,2.804c0.141,0.916,0.209,1.711,0.209,2.387c0,2.347-0.467,4.455-1.4,6.324    c-0.936,1.869-2.279,3.161-4.027,3.878c0.039,0.04,0.088,0.069,0.148,0.089c0.059,0.021,0.109,0.051,0.148,0.09    c1.354,0.716,2.387,1.71,3.104,2.982c0.715,1.273,1.074,3.839,1.074,7.696c0,3.143,0.068,5.261,0.207,6.354    c0.141,1.094,0.588,1.819,1.344,2.177v1.074h-8.115c-0.238-0.994-0.426-2.127-0.566-3.4c-0.139-1.272-0.209-3.003-0.209-5.19    c0-2.943-0.277-5.031-0.834-6.265c-0.559-1.232-2.188-1.85-4.893-1.85h-7.576v16.705h-7.219V335.095z M399.676,353.948    c1.91,0.04,3.332-0.388,4.268-1.282c0.934-0.896,1.4-2.396,1.4-4.505c0-0.277-0.01-0.567-0.029-0.865    c-0.021-0.298-0.07-0.605-0.15-0.925c-0.199-0.954-0.666-1.828-1.4-2.625c-0.736-0.795-1.92-1.193-3.551-1.193h-9.127v11.396    H399.676z"/>
			<path fill="#0072BC" d="M225.006,412.117h14.677v23.088h-4.893l-0.775-5.369c-0.238,0.357-0.478,0.716-0.716,1.073    c-0.238,0.358-0.518,0.716-0.835,1.074c-0.916,1.113-2.099,2.118-3.55,3.013c-1.452,0.895-3.391,1.343-5.817,1.343    c-4.216,0-7.964-1.85-11.245-5.549c-3.282-3.698-4.922-9.307-4.922-16.824c0-5.847,1.381-11.097,4.145-15.75    c2.765-4.653,7.11-6.96,13.036-6.921c4.096,0,7.309,1.045,9.635,3.133c2.327,2.087,3.928,4.365,4.803,6.831    c0.278,0.795,0.497,1.571,0.656,2.326c0.158,0.757,0.259,1.472,0.299,2.148l-7.339-0.06c0-0.318-0.109-0.776-0.328-1.373    c-0.219-0.596-0.527-1.212-0.925-1.849c-0.636-0.955-1.481-1.82-2.535-2.596c-1.055-0.775-2.356-1.163-3.907-1.163    c-2.586,0-4.903,1.193-6.951,3.579c-2.049,2.387-3.073,6.323-3.073,11.813c0,5.647,1.015,9.485,3.043,11.513    c2.029,2.029,4.255,3.104,6.682,3.223h0.238h0.24c0.396,0,0.993-0.079,1.79-0.239c0.795-0.16,1.61-0.561,2.445-1.202    c0.875-0.639,1.71-1.59,2.506-2.852c0.795-1.26,1.391-2.991,1.79-5.192h-8.174V412.117z"/>
			<path fill="#0072BC" d="M250.85,435.205h-7.756l12.528-42.836h8.473l12.408,42.836h-7.994l-2.266-8.831h-12.947L250.85,435.205z     M255.265,418.978h8.948l-4.354-16.943h-0.119L255.265,418.978z"/>
			<path fill="#0072BC" d="M277.857,422.021h7.039c0,0.437,0.039,0.895,0.119,1.372s0.199,0.954,0.359,1.432    c0.396,1.035,1.111,1.989,2.146,2.863c1.033,0.876,2.646,1.312,4.832,1.312h0.508c0.18,0,0.35-0.019,0.508-0.059    c1.59-0.079,3.043-0.507,4.354-1.282c1.314-0.775,1.971-2.178,1.971-4.206c0-1.551-0.527-2.664-1.582-3.341    c-1.055-0.676-2.416-1.253-4.086-1.73c-0.119-0.039-0.238-0.079-0.357-0.119c-0.121-0.039-0.24-0.079-0.359-0.119l-3.758-1.134    c-0.041,0.04-0.07,0.06-0.09,0.06c-0.021,0-0.029-0.02-0.029-0.06c-2.826-0.795-5.371-1.909-7.637-3.341    c-2.268-1.432-3.4-4.494-3.4-9.188c0-0.716,0.061-1.501,0.178-2.356c0.119-0.855,0.318-1.74,0.598-2.655    c0.676-2.028,1.969-3.897,3.877-5.608c1.91-1.709,4.852-2.565,8.83-2.565c3.896,0,6.84,0.925,8.83,2.774    c1.988,1.85,3.34,3.89,4.057,6.115c0.279,0.875,0.488,1.74,0.627,2.596s0.209,1.641,0.209,2.356l-7.041-0.06    c-0.039-0.318-0.098-0.726-0.18-1.224c-0.08-0.496-0.238-1.004-0.477-1.521c-0.357-0.914-1.033-1.748-2.027-2.505    c-0.996-0.756-2.506-1.134-4.535-1.134c-0.199,0-0.408,0.01-0.627,0.029c-0.217,0.021-0.426,0.051-0.625,0.09    c-1.234,0.159-2.348,0.627-3.34,1.402c-0.996,0.775-1.494,1.979-1.494,3.609c0,1.233,0.25,2.147,0.748,2.744    c0.496,0.597,1.063,1.014,1.699,1.253c0.197,0.119,0.406,0.219,0.627,0.298c0.217,0.08,0.426,0.141,0.627,0.18l8.59,2.505    c2.387,0.757,4.514,1.909,6.383,3.461c1.869,1.551,2.805,4.256,2.805,8.113c0,3.739-0.766,6.583-2.297,8.531    c-1.531,1.949-3.213,3.321-5.041,4.117c-1.313,0.558-2.564,0.914-3.76,1.073c-1.193,0.159-2.107,0.239-2.744,0.239    c-4.533,0-7.865-0.936-9.992-2.805c-2.129-1.868-3.551-3.938-4.266-6.204c-0.279-0.915-0.479-1.829-0.596-2.744    c-0.119-0.915-0.18-1.75-0.18-2.506V422.021z"/>
		</g>
	</g>
</svg>