<?xml version="1.0" ?>
<svg xmlns="http://www.w3.org/2000/svg" viewBox="0 0 146 32" fill="none">
	<g clip-path="url(#clip0_30_239)">
		<path fill-rule="evenodd" clip-rule="evenodd" d="M36.402 16.7266C36.6372 15.2457 36.814 13.9343 36.9324 12.7942C37.0493 11.6535 37.1087 10.7656 37.1087 10.1305V9.47856C37.1087 9.30195 37.098 9.10806 37.0766 8.8958C37.7764 8.75544 38.4861 8.68459 39.1973 8.68408C39.5188 8.68408 39.8402 8.7019 40.1617 8.73701C40.4827 8.77266 40.8251 8.82559 41.1894 8.8958C41.2323 9.08483 41.2752 9.30789 41.318 9.56606C41.3609 9.8253 41.3828 10.2131 41.3828 10.7305C41.3828 10.9422 41.377 11.1534 41.3663 11.3651C41.3555 11.5768 41.3288 11.8361 41.2859 12.1412C41.7783 11.1307 42.5123 10.272 43.487 9.56606C44.4616 8.86069 45.5381 8.50855 46.7163 8.50855C47.8512 8.50855 48.7352 8.78508 49.3675 9.33652C49.9987 9.89011 50.3791 10.8007 50.5082 12.0705C51.0221 11.0832 51.7717 10.2428 52.7575 9.54823C53.7424 8.85529 54.814 8.50855 55.9708 8.50855C57.2557 8.50855 58.2303 8.85529 58.8947 9.54823C59.5586 10.2428 59.8908 11.4008 59.8908 13.0232C59.8908 13.8225 59.8153 14.6694 59.6658 15.5627L57.8022 27.1321C57.0264 27.2701 56.2421 27.3409 55.4564 27.3438C54.7063 27.3438 53.9674 27.2736 53.2393 27.1321L55.039 15.9505C55.1242 15.4104 55.1671 14.9044 55.1671 14.4339C55.1671 13.7993 55.0492 13.3527 54.814 13.0934C54.5777 12.8347 54.2134 12.7051 53.7215 12.7051C53.4209 12.7051 53.0946 12.7883 52.741 12.9525C52.3878 13.1172 52.0289 13.4348 51.6645 13.9046C51.3007 14.3756 50.9583 15.0226 50.6368 15.8447C50.3153 16.6683 50.0474 17.7382 49.8331 19.055L48.5477 27.1321C47.7721 27.2701 46.988 27.3408 46.2024 27.3438C45.4523 27.3438 44.7135 27.2736 43.9853 27.1321L45.7845 15.9505C45.8698 15.4104 45.9131 14.9044 45.9131 14.4339C45.9131 13.7993 45.7953 13.3527 45.5595 13.0934C45.3238 12.8347 44.9599 12.7051 44.467 12.7051C44.167 12.7051 43.8353 12.7883 43.4709 12.9525C43.1066 13.1172 42.7427 13.4639 42.3784 13.9932C42.0141 14.5225 41.6605 15.2689 41.318 16.233C40.9751 17.1976 40.6756 18.4674 40.4184 20.0423L39.2299 27.1321C38.454 27.2682 37.6698 27.339 36.8842 27.3438C36.1341 27.3438 35.3947 27.2736 34.667 27.1321L36.402 16.7266ZM72.2937 12.6705C72.1086 12.6249 71.9205 12.5955 71.7312 12.5825C71.5545 12.5708 71.3776 12.5649 71.2007 12.5647C70.173 12.5647 69.2997 12.8471 68.5822 13.411C67.8645 13.9753 67.2578 14.6957 66.799 15.5282C66.328 16.3731 65.9808 17.2955 65.7703 18.2611C65.556 19.2375 65.4493 20.1249 65.4493 20.9243C65.4493 22.665 65.9739 23.5345 67.024 23.5345C68.0518 23.5345 69.005 22.8465 69.8832 21.4714C70.7619 20.0958 71.4043 18.1617 71.8115 15.6686L72.2937 12.6705ZM75.6029 19.2311C75.3672 20.7125 75.1962 22.0239 75.0886 23.1646C74.9814 24.3053 74.9283 25.1926 74.9283 25.8272V26.4802C74.9283 26.6563 74.939 26.8502 74.9605 27.0619C74.2537 27.2029 73.5572 27.2736 72.8719 27.2736C72.2718 27.2736 71.6074 27.2029 70.8797 27.0619C70.8302 26.8401 70.7873 26.6166 70.7512 26.3916C70.7078 26.1335 70.6869 25.7452 70.6869 25.2277V24.558C70.6869 24.3225 70.7078 24.0525 70.7512 23.7463C70.1347 24.8225 69.3255 25.747 68.3737 26.4624C67.4093 27.1915 66.2842 27.5556 64.9993 27.5556C63.5858 27.5556 62.5254 27.0619 61.8186 26.0741C61.1114 25.0868 60.7578 23.7814 60.7578 22.1589C60.7578 20.395 60.9989 18.6904 61.4811 17.0442C61.9633 15.3985 62.6803 13.9403 63.634 12.6705C64.5867 11.4008 65.7703 10.3838 67.1843 9.61899C68.5983 8.85529 70.248 8.4729 72.133 8.4729C73.0755 8.4729 73.9532 8.54312 74.7676 8.68462C75.581 8.82559 76.3847 9.02596 77.1777 9.28413L75.6029 19.2311ZM81.4829 5.82752C81.4588 5.04221 81.5072 4.25623 81.6276 3.48188C81.7445 2.74087 81.9325 1.95935 82.1897 1.13571C82.5919 1.03925 82.9998 0.974283 83.4103 0.941275C83.8389 0.906709 84.2247 0.888885 84.5676 0.888885C84.9095 0.888885 85.2904 0.906709 85.7083 0.941815C86.1257 0.977461 86.5169 1.04227 86.8812 1.13625C86.8812 1.95935 86.8164 2.74681 86.6883 3.49917C86.5502 4.29058 86.3567 5.06887 86.1097 5.82698C85.7244 5.89773 85.3226 5.94526 84.9046 5.96794C84.4872 5.99225 84.1068 6.00359 83.7644 6.00359C83.4429 6.00359 83.0679 5.99279 82.6393 5.96794C82.2106 5.94526 81.8253 5.89773 81.4829 5.82752ZM80.5511 12.7051H78.5269C78.5269 12.6349 78.521 12.5647 78.5108 12.4945C78.499 12.4127 78.4936 12.3299 78.4947 12.2471C78.4947 11.6357 78.5478 11.0654 78.6554 10.5361C78.7621 10.0073 78.9224 9.46074 79.1377 8.89634H85.628L82.7035 27.1321C81.9385 27.2691 81.1649 27.3399 80.3899 27.3438C79.726 27.3438 79.0086 27.2736 78.237 27.1321L80.5507 12.7051H80.5511ZM88.8412 8.19097C89.0765 6.94443 89.2426 5.85722 89.339 4.92772C89.4354 3.99875 89.4837 3.21724 89.4837 2.58208C89.4837 2.32338 89.4783 2.10572 89.4676 1.92965C89.4549 1.73523 89.4387 1.54111 89.4189 1.34743C89.7832 1.27721 90.2011 1.22374 90.6721 1.18918C91.0785 1.15642 91.4858 1.13859 91.8932 1.13571C92.5143 1.13571 93.2001 1.20646 93.9502 1.34743C94.0573 1.70011 94.1109 2.14677 94.1109 2.68794C94.1109 3.18213 94.0675 3.74653 93.9823 4.38114C93.8961 5.01575 93.7894 5.70978 93.6608 6.46213L91.1865 20.6423C91.1227 21.042 91.0905 21.3715 91.0905 21.6296C91.0905 22.0061 91.1383 22.2993 91.2347 22.5116C91.3311 22.7233 91.4539 22.8881 91.6044 23.0052C91.7539 23.1235 91.9259 23.1997 92.1183 23.2348C92.3111 23.2699 92.5035 23.2877 92.6969 23.2877C92.7822 23.2877 92.9429 23.2699 93.1791 23.2348C93.3972 23.2037 93.6122 23.1505 93.8216 23.076C93.9287 23.4757 94.0193 23.911 94.0943 24.3809C94.1972 25.0328 94.2296 25.6961 94.1908 26.3565C94.1796 26.5213 94.1635 26.6973 94.1426 26.8858C93.8211 27.0268 93.4037 27.1381 92.8893 27.2207C92.3754 27.3028 91.808 27.3438 91.1865 27.3438C89.7296 27.3438 88.584 26.9506 87.7482 26.1626C86.9129 25.3752 86.4954 24.1346 86.4954 22.4414C86.4954 22.1119 86.5164 21.7652 86.5597 21.4006C86.6051 21.0171 86.6587 20.6348 86.7205 20.254L88.8412 8.19097ZM98.5769 24.3809C98.8122 24.4516 99.1015 24.5105 99.4439 24.5575C99.7868 24.605 100.108 24.6277 100.408 24.6277C101.393 24.6277 102.309 24.4046 103.155 23.958C103.993 23.5183 104.738 22.8872 105.34 22.106C105.951 21.3185 106.433 20.3831 106.787 19.3018C107.14 18.2205 107.317 17.0442 107.317 15.7745C107.317 14.5052 107.075 13.4996 106.594 12.7586C106.112 12.0176 105.399 11.6476 104.457 11.6476C103.902 11.6468 103.354 11.7791 102.851 12.0354C102.336 12.2946 101.859 12.7051 101.42 13.27C100.981 13.8344 100.59 14.5695 100.248 15.4747C99.9047 16.3799 99.6373 17.4914 99.4439 18.8076L98.5769 24.3809ZM97.9661 8.50801C98.159 7.21502 98.3197 6.09162 98.4483 5.13944C98.5769 4.18725 98.6407 3.33552 98.6407 2.58208V1.87672C98.6407 1.71199 98.63 1.51216 98.6086 1.27721C98.8906 1.22457 99.175 1.18923 99.4605 1.17136C99.7439 1.1498 100.028 1.13791 100.312 1.13571C100.526 1.13571 100.767 1.14165 101.035 1.15353C101.303 1.16595 101.554 1.19458 101.79 1.24157C101.811 1.47705 101.827 1.69525 101.838 1.894C101.849 2.09438 101.854 2.31204 101.854 2.54698C101.854 3.08815 101.801 3.79352 101.694 4.66307C101.595 5.47771 101.477 6.28938 101.34 7.09728L100.601 11.7178C100.88 11.294 101.186 10.8933 101.517 10.5188C101.857 10.1357 102.24 9.80361 102.658 9.53095C103.086 9.24902 103.568 9.02596 104.103 8.86069C104.639 8.6965 105.249 8.61387 105.935 8.61387C107.413 8.61387 108.58 9.18475 109.437 10.3244C110.294 11.4656 110.723 13.0702 110.723 15.1393C110.723 16.8093 110.492 18.3907 110.032 19.8835C109.571 21.3774 108.875 22.6942 107.943 23.8343C107.011 24.975 105.844 25.8802 104.441 26.5504C103.038 27.2202 101.393 27.5556 99.5087 27.5556C98.6943 27.5556 97.8804 27.4729 97.0665 27.3087C96.2521 27.144 95.5775 26.9447 95.0422 26.7092L97.9661 8.50801ZM114.836 5.29822C114.836 4.61608 114.889 3.96959 114.996 3.3582C115.107 2.7276 115.247 2.10355 115.414 1.48839C116.032 1.39851 116.655 1.35143 117.278 1.34743C117.534 1.34743 117.829 1.35931 118.161 1.38307C118.493 1.4063 118.798 1.44194 119.077 1.48839C119.058 2.14552 118.994 2.80006 118.884 3.44624C118.776 4.0717 118.637 4.68999 118.467 5.29822C118.166 5.34575 117.845 5.37492 117.502 5.38626C117.159 5.39868 116.86 5.40408 116.603 5.40408C116.367 5.40408 116.078 5.39868 115.736 5.38626C115.434 5.37909 115.133 5.34968 114.836 5.29822ZM114.868 11.8237H112.876C112.876 11.3538 112.902 10.8952 112.956 10.448C113.01 10.0014 113.122 9.53095 113.293 9.0373H118.434L115.542 27.1327C115.271 27.1832 114.998 27.2126 114.723 27.2207C114.204 27.2451 113.684 27.2451 113.164 27.2207C112.917 27.2098 112.67 27.1804 112.425 27.1327L114.868 11.8237ZM119.237 27.1321C119.487 25.566 119.749 24.0023 120.024 22.4414C120.304 20.8506 120.572 19.2573 120.828 17.6615C121.074 16.1212 121.283 14.711 121.454 13.4283C121.626 12.1472 121.712 11.1307 121.712 10.3778C121.712 10.0721 121.706 9.83124 121.696 9.65409C121.679 9.43517 121.653 9.21737 121.615 9.00166C121.85 8.95521 122.108 8.92604 122.386 8.91362C122.664 8.90282 122.922 8.8958 123.157 8.8958C123.372 8.8958 123.613 8.90228 123.881 8.91362C124.148 8.92604 124.389 8.95521 124.603 9.00166C124.646 9.19069 124.678 9.39593 124.7 9.61953C124.721 9.84313 124.732 10.1542 124.732 10.5539C124.732 11.0951 124.7 11.6244 124.636 12.1412C124.914 11.7174 125.22 11.3166 125.551 10.9422C125.889 10.5607 126.261 10.2178 126.66 9.91874C127.077 9.60788 127.531 9.36454 128.01 9.19609C128.502 9.01948 129.048 8.93145 129.648 8.93145C129.819 8.93145 130.007 8.94333 130.211 8.96655C130.414 8.99032 130.58 9.02596 130.708 9.07241C130.708 9.54283 130.66 10.0775 130.564 10.6776C130.468 11.2771 130.301 11.7885 130.066 12.2114C129.933 12.18 129.799 12.1566 129.664 12.1412C129.488 12.1183 129.311 12.1066 129.134 12.1061C127.699 12.1061 126.536 12.6705 125.647 13.7988C124.758 14.9276 124.121 16.6683 123.736 19.0193L122.418 27.1321C121.982 27.2018 121.542 27.2374 121.101 27.2385H120.298L119.237 27.1321ZM141.408 11.7178C141.144 11.6463 140.876 11.5993 140.605 11.5774C140.295 11.5526 139.984 11.5408 139.673 11.5417C138.602 11.5417 137.643 11.8123 136.797 12.3529C135.951 12.8941 135.223 13.6173 134.612 14.5225C134.002 15.4277 133.536 16.4507 133.214 17.5908C132.894 18.7267 132.731 19.9101 132.732 21.1003C132.732 22.2291 132.914 23.1057 133.279 23.7284C133.643 24.3517 134.189 24.6628 134.918 24.6628C135.581 24.6628 136.224 24.4289 136.846 23.958C137.467 23.4881 138.034 22.8357 138.549 22.0001C139.063 21.1662 139.513 20.1897 139.898 19.0728C140.295 17.9117 140.596 16.7132 140.798 15.492L141.408 11.7178ZM143.272 19.4428C143.067 20.6495 142.885 21.8608 142.726 23.076C142.597 24.0871 142.533 24.9696 142.533 25.7214V26.4451C142.533 26.6212 142.554 26.8388 142.597 27.097C142.361 27.144 142.11 27.1791 141.842 27.2029C141.574 27.2261 141.322 27.2385 141.087 27.2385C140.851 27.2385 140.605 27.2261 140.348 27.2029C140.111 27.1824 139.875 27.1471 139.641 27.097C139.598 26.9096 139.561 26.7038 139.529 26.4802C139.496 26.2566 139.48 25.9455 139.48 25.5448C139.48 25.2628 139.507 24.8697 139.561 24.3636C139.614 23.8586 139.694 23.3936 139.802 22.9701C139.52 23.5279 139.198 24.059 138.838 24.558C138.443 25.1094 137.99 25.6066 137.489 26.039C136.965 26.4919 136.386 26.8602 135.769 27.1327C135.137 27.4146 134.456 27.5556 133.728 27.5556C132.315 27.5556 131.243 27.0441 130.516 26.0217C129.787 24.9987 129.423 23.6053 129.423 21.8413C129.423 20.1719 129.658 18.5435 130.13 16.9562C130.601 15.3688 131.297 13.9581 132.218 12.7229C133.139 11.4883 134.291 10.4956 135.673 9.74267C137.054 8.99031 138.645 8.61387 140.444 8.61387C140.68 8.61387 140.926 8.62575 141.183 8.64897C141.44 8.67328 141.654 8.6965 141.826 8.71973C142.061 7.35599 142.244 6.1802 142.372 5.19237C142.501 4.20507 142.565 3.33498 142.565 2.58208V1.87672C142.565 1.71253 142.554 1.5127 142.533 1.27721C142.815 1.22473 143.099 1.18939 143.385 1.17136C143.668 1.14979 143.952 1.1379 144.236 1.13571C144.449 1.13571 144.691 1.14219 144.959 1.15353C145.226 1.16595 145.467 1.19512 145.682 1.24157C145.746 1.71253 145.778 2.14731 145.778 2.54698C145.778 3.08815 145.73 3.7811 145.633 4.62797C145.542 5.44254 145.429 6.25409 145.296 7.06164L143.272 19.4428Z" fill="black"/>
		<path fill-rule="evenodd" clip-rule="evenodd" d="M12.5814 18.4917L12.6064 18.4337C16.2442 21.9975 20.3527 18.185 20.3527 18.185C18.4085 14.1027 15.6442 13.857 14.5716 13.933C14.5716 13.933 17.1281 12.7919 19.9914 15.377C20.7527 16.1217 21.5047 17.1462 22.1748 18.5536C22.1748 18.5536 17.005 23.3522 12.5814 18.4912V18.4917ZM12.2824 9.48263C12.2705 9.38086 12.2789 9.27775 12.3071 9.17921C12.3353 9.08067 12.3828 8.98864 12.4468 8.90837C12.5108 8.82811 12.5902 8.76119 12.6802 8.71145C12.7702 8.66171 12.8693 8.63012 12.9716 8.6185C13.1784 8.5931 13.387 8.65027 13.5515 8.77751C13.7161 8.90474 13.8232 9.09165 13.8496 9.29732C13.8614 9.39912 13.853 9.50226 13.8248 9.60083C13.7966 9.6994 13.7491 9.79147 13.6851 9.87177C13.6211 9.95207 13.5418 10.019 13.4518 10.0688C13.3617 10.1186 13.2627 10.1503 13.1603 10.1619C12.9534 10.1873 12.7448 10.1301 12.5802 10.0028C12.4157 9.87543 12.3086 9.68839 12.2824 9.48263ZM31.0245 12.2262C31.2682 16.426 27.746 18.1352 24.9533 17.7197C22.6317 17.3745 21.4101 15.3936 21.0385 14.1037C21.0002 13.9867 20.9698 13.8648 20.9517 13.737C20.9468 13.7077 20.9414 13.6785 20.937 13.6482C20.4659 10.6735 18.3982 8.94621 17.8526 8.58192C15.9099 7.40032 12.8466 6.65127 10.2666 8.49414C10.1259 8.5946 9.99357 8.69603 9.86465 8.79844V8.79649C9.42248 9.17102 8.68373 9.52555 6.66211 9.17541C6.66211 9.17541 8.01018 10.3975 7.63272 11.6371V11.6376C7.06408 12.9953 7.06016 14.3339 7.15967 15.437C8.13421 21.7147 14.0216 26.1373 20.4968 25.3707C27.1014 24.5894 31.8147 18.7043 31.0245 12.2262Z" fill="#0F37C3"/>
		<path fill-rule="evenodd" clip-rule="evenodd" d="M23.5976 28.8845C23.3034 27.8375 22.9431 27.6448 22.5451 27.6873C22.3181 27.7526 22.0897 27.8121 21.8598 27.8677L21.8475 27.8706H21.849C21.0492 28.0627 20.2367 28.1978 19.4175 28.2749C14.5017 28.7338 9.90405 27.1235 7.04859 24.1327C7.04823 24.1309 7.04774 24.1291 7.04712 24.1273C6.68742 23.7506 6.35396 23.35 6.04905 22.9282C6.00836 22.8716 5.96669 22.816 5.92748 22.7589C5.9113 22.736 5.8961 22.7121 5.88042 22.6897C5.61698 22.3018 5.37969 21.897 5.1701 21.4779C5.16667 21.4793 5.16275 21.4803 5.15883 21.4827C4.78933 20.768 4.49779 20.016 4.2892 19.2395L4.28871 19.2385C3.95733 18.3046 3.83821 17.0811 3.80438 16.0609C3.76278 15.464 3.76885 14.8647 3.82252 14.2688V14.2639C3.82379 14.2438 3.82591 14.2238 3.82889 14.2039C4.33234 8.97811 8.4697 4.61842 13.9777 3.96641C20.3288 3.21542 26.0966 7.67606 26.8604 13.9313C26.9927 15.0188 26.9643 16.0877 26.7952 17.1167C27.5143 16.9753 28.2438 16.6763 28.8614 16.1892C29.409 15.6771 31.7071 13.6538 29.5683 8.26613C26.6305 2.75653 20.4573 -0.675149 13.81 0.111936C5.21226 1.1292 -0.919763 8.81865 0.113598 17.2874C0.126833 17.3952 0.14301 17.502 0.158697 17.6092C0.169482 17.7175 0.179286 17.8253 0.192521 17.933C0.686162 21.9826 2.73131 25.4752 5.66963 27.9072C6.59269 28.6216 9.95994 31.194 15.1552 31.8324H15.1576C17.9413 32.167 20.7628 31.9997 23.4868 31.3384C23.9814 31.1872 24.1593 30.9809 24.0554 30.5167C23.9113 29.8793 24.0559 30.5167 23.5976 28.8845Z" fill="#0F37C3"/>
	</g>
	<defs>
		<clipPath id="clip0_30_239">
			<rect width="145.778" height="32" fill="white"/>
		</clipPath>
	</defs>
</svg>