<?xml version="1.0" ?>
<svg xmlns="http://www.w3.org/2000/svg" viewBox="0 0 185 40" fill="none">
	<g clip-path="url(#a)">
		<path fill="#0194D3" d="M30.575 32.552h.047c-.04-.02-.061-.027-.047 0ZM31.174 32.693c-.148-.06-.377-.148-.545-.148.121.074.424.31.545.148ZM30.434 32.828l.201.02c-.087-.088-.1 0-.201-.02ZM30.567 32.686l.013-.067-.121.027.108.04ZM20.912 30.116s.027-.067.014-.107l-.014.107ZM26.375 30.883l.222-.074c-.128-.087-.168.02-.222.074ZM18.598 31.791l-.027-.053s-.02.053.027.053ZM20.468 31.435l-.02-.074-.02.013.04.06ZM21.666 30.224l.067-.034c-.033-.007-.06 0-.067.034ZM18.006 31.987l-.047.134c.054-.04.067-.094.047-.134ZM20.375 30.506v.007l.014-.007h-.014ZM21.087 31.314l-.1.033c.04.014.073-.006.1-.033ZM26.375 30.883l-.074.027s.047 0 .074-.027ZM30.138 32.242c-.06-.027-.088.007-.115.04l.115-.04ZM10.113 32.249l.027-.047s-.027.013-.027.047Z"/>
		<path fill="#0194D3" d="M12.556 33.191c-.175-.047-.303.148-.437.188l.034-.08-.128.087-.02-.1c-.216.093-.519.046-.572.221v-.161l-.223.168.122-.135c-.276.014-.667.21-.727.223l.013-.061c-.047-.02-.08.02-.12.047l.02-.094c-.404.094-.545-.08-.99.08-.127 0 .068-.04.061-.087-.074-.06-.229.027-.256.074.014-.141.216-.128.047-.222-.094.08.054-.141-.127-.087l-.04.188c-.108-.013-.041-.134-.203-.094-.175.1.256.168-.04.235-.148.007-.37-.37-.646-.235-.262-.054.094-.296-.242-.202l.202-.148c-.06-.04-.04-.141-.182-.08-.04.073-.114.18-.195.201.303-.181-.303-.168-.034-.383l-.107.02v-.04l-.142.006c.088-.054.296-.1.182-.215h-.215c.04-.114-.04-.141-.034-.222L8.149 32c-.013.06-.1.115-.06.168.175.027.12-.127.282-.067l-.054.088s.027-.047 0-.047c-.06-.04-.074.02-.074.067.068.094.216 0 .25-.074.201-.014.067.175.114.202.08-.182.336-.04.45-.142l-.06.121c.175.108.296-.02.377-.067l-.02.094c.208-.047.363.23.47-.114l-.013.06c.094.014.236.054.303-.053.006.04.034.08.067.087.027-.134.135-.054.263-.054-.081.047-.027.202-.108.256.229.128.148-.209.316-.236.115.061-.074.102-.087.169.242-.128.598.269.7-.074l-.129-.081c.088-.087.149-.094.142-.06-.034 0-.04.026-.047.06.343.1.437-.33.76-.33-.013.068-.054.095-.04.142.154.033.074-.337.33-.256l-.034.074c.087.027.12-.08.107-.101.06.262.485-.108.72.202.081-.168.384-.357.498-.296.175.128-.087.202 0 .336.108-.02.135-.181.316-.168-.033-.148-.397-.229-.1-.383l.06.067c-.034 0-.087-.02-.128 0-.067.107.074.087.108.12l.323-.12c-.014-.162-.202-.08-.236-.115.27-.027.646.135.868-.027v.068c.276-.209.242.242.43-.067.142.013-.006.174.196.14.054-.013.007-.066 0-.08.229-.114.141.128.336-.074v.175c.236-.175.451-.532.7-.511.014.134-.134.154-.168.262.262-.303.753-.202 1.016-.39-.108-.088.087-.283-.121-.337-.014.175-.128.088-.222.122.087-.398.727.033.706-.29l.068.121c.04-.027.14-.148.053-.175l.343.014c-.094.12-.289.397-.396.269-.068.155.154.06.1.235.175-.262.155.061.364-.026-.141-.169.175-.296.148-.384.08.02.235-.094.29-.168.127-.04.457.06.665-.04-.074.073-.188.174-.161.289.094-.088.208-.101.249.033-.323.317-.169-.302-.478-.08-.054.168-.141.228-.303.302.094.081.068.121.115.23.148-.37.531-.122.78-.337.101-.115-.02-.316.242-.384l-.242-.08c.27.067.047-.108.25-.169l-.068.121c.134 0 .175-.02.235-.107l-.087.181c.074.014.202.02.188-.08l.034.1s.04-.053.121-.053c-.047.027-.08.02-.074.067.303-.074.094.175.276.135-.027.04.033.08.1.094-.033-.263.344-.343.431-.491l.25-.115c-.048.027.013.095.087.121h-.014c.081.034-.08.296.162.209l.128-.087s0 .053.013.067l.135-.081c.208.236.383-.162.625-.027-.067-.02-.175 0-.128.08.048.028.115 0 .155-.033l-.013.027.464-.155c-.04.088-.296.088-.182.196.061.12.196 0 .276-.007-.006-.067-.154-.141 0-.175.02.034.162.114.088.161.161-.067.39-.107.538-.215.04.034-.027.06-.054.067l-.013-.02c-.095.034-.027.168-.209.094-.027.23.263.081.417.135l-.269.128c.397.37 1.01.067 1.44.134-.114-.1-.229-.04-.188-.215.282-.047.235-.007.511 0h-.027c.121.121.336-.02.397.155-.074.087-.175-.128-.215.067l.336.047c-.128.101-.33-.047-.464-.04-.087-.027.188 0 .168-.135-.31-.054-.404.06-.585.222-.108.121.114.168.168.175a.752.752 0 0 1 .82-.06l.135.181c.175-.1.175-.397.438-.29l-.101.088c.047.06.087.081.114.088l-.404.181c.101.25.458-.006.694 0-.02.027-.101.014-.135.068.316.141.733-.034 1.002 0 .081.128-.235.006-.222.168.149-.02.263.148.344.02-.115.175.296.108 0 .209.444.235 1.022.235 1.54.29-.04.046-.06.093-.053.14-.162-.053-.418-.08-.552.02.074.135.296-.047.303.02-.074.028-.175-.006-.209.088.101.155.229.027.336.04l-.033-.067c.35-.027.29-.282.585-.107.074.161-.034.094-.087.235.094-.027.276.222.41.101l-.188-.087c.148.013.276.067.39.053-.02.027-.04.054-.074.054.128 0 .256.06.35-.013l-.027.161c-.034-.094-.222-.181-.29-.107-.033.14.189.134.27.181-.39-.107-.485.128-.754-.094l.067-.027c-.154-.195-.423-.08-.592-.141.04.047.027.108 0 .128-.343-.242-.746-.283-1.157-.498l-.175.108.027-.122c-.195-.12-.094.148-.229.095.054.013.047 0 .068-.034-.29.06-.108-.148-.256-.148.1-.108.282.027.269-.155-.29.067-.66-.107-.774.162-.43-.25-1.056-.202-1.446-.236-.04-.06.04-.034.027-.074-.189.135-.498-.215-.525-.067-.067-.054-.081-.168-.101-.215a1.098 1.098 0 0 1-.364.08l.102-.033v-.02l-.149.047c-.322.02-.686-.061-.982.074.175-.081-.027-.189.054-.236-.168.222-.511.229-.794.195 0-.054-.02-.094.013-.128l-.168.095.02-.061c-.296-.06-.612.215-.807.121.121-.034.114-.087.128-.168-.216.02-.417.027-.66.114l.02-.053c-.067-.02-.14.047-.201.08l-.02-.12c-.122.06-.296.026-.431.134-.074-.128-.35.168-.532.127-.06.034.128-.154-.06-.127.007.262-.242.033-.215.316l-.175-.074-.014.148c-.181-.236-.188.148-.41.108 0-.034.027-.047.013-.068-.06.04-.208.081-.08.135-.108.02-.465.141-.33-.034 0 .08.141-.013.202-.054-.027-.12-.189-.047-.25-.168l-.033.06-.04-.067c-.182.169-.41.121-.525.317-.014-.034-.06-.054-.128-.034l.027.148-.222.04.054-.235c-.25.007-.364.282-.559.363-.107-.235-.363.182-.585 0l.141-.1c-.323.12-.41-.014-.7.14.283.02.27-.026.7.088-.41-.013-.632.29-1.016.229.014-.06.094-.121-.013-.162-.04.142-.337.074-.25.209-.12-.027-.174-.161-.241-.161l-.33.269V32.7c-.7-.195-1.124.498-1.796.491v-.08l-.142.147c.108-.1-.074-.087-.1-.154l-.377.255c-.028-.067-.034-.228.073-.222m5.316-1.197.094-.034c-.054-.007-.1-.06-.094.034Zm8.66-.23c.06-.053-.061-.04-.088-.053l.154.02c.014.047-.04.027-.067.034Zm-8.855-.733-.074-.087-.054.094h.128v-.007Zm-1.366.29.121-.088-.014-.02-.12.088.013.02Zm-1.319 1.144c-.087.094-.168-.074-.215.12.134.122.168-.046.215-.12Zm2.617-.633c.02.101-.127.148-.161.229-.067-.007 0-.114.013-.175-.033 0-.053.014-.094.04-.02-.215.135.047.25-.087m2.9-.511h-.035l.115-.101-.08.1Zm.706-.061c.14 0 .262-.128.222-.242-.121.033-.303.02-.364.154.06-.08-.02.196.135.088m-5.188.74c.081-.06.155-.31.357-.229l-.121.088h.033l-.013.1c-.014-.241-.182.02-.256.048m6.291-.935c.121-.074.35-.169.337-.256 0 .168-.175.242-.236.242-.033-.013-.054 0-.1.014Zm-.006-.323c-.182.074-.196.148-.33.31.175.073.222-.142.202-.236.128-.074.1.033.168.053l-.04-.134v.007Zm-.263.45c-.087-.074-.107-.262-.222-.06l.222.06Zm1.635.04-.067.041s0 .054-.074.054l.074-.054c-.007-.054-.088-.12.067-.04Zm-1.413-.046.209-.014c-.067-.027-.195-.067-.209.014Zm1.023-.121s.202.033.29.053c-.061.047-.27.04-.29-.053Zm4.952.82-.135-.033.027.134.108-.1Zm-1.413-.464-.08-.013-.02-.067.093.08h.007Zm-1.534-.404-.02.088-.06.04s.04-.013.06-.04c.06-.014.148.013.181.06-.033.054-.12.027-.161.061.1.162.484-.202.316.189.067-.04.276-.108.229-.189-.155 0-.43-.1-.538-.202l-.007-.007Zm-2.059-.322c-.034.033.04.087-.08.134-.014-.06.026-.1.08-.134.013-.014.04-.027.094-.027l-.094.027Zm-.262-.068.188-.074-.094.088.29-.155c-.156-.094-.35.034-.378.141m-.37-.054.317-.047v.02h.006l-.06.102.04-.102-.303.027Zm-2.51.317h-.147s.161-.115.289-.108c-.188-.262-.054.06-.323-.027.303-.034.161-.195.135-.303-.04.169-.444.115-.283.444.094-.08.276.216.33 0m-1.911.189-.175.067.188-.047-.013-.02Zm-4.67.962c0-.08-.276-.168-.302-.007.127 0 .255-.047.302.007Zm-2.005.444.202-.114c-.074-.169-.188.047-.296.033-.02.095.047.02.094.074m-1.413.108-.04.188.06-.04-.02-.148Zm.196-.236c-.034 0-.175.061-.122.128l.122-.128Zm-1.36.337.054-.168h-.087l.033.168Zm.135 0c0-.114-.027-.27.188-.222.027.12-.027.12.074.256-.067.04-.128 0-.161-.014.04-.027.107.02.107-.067a.177.177 0 0 0-.201.04l-.034.101c0-.034.007-.074.034-.1m.76.02.067.04v-.034c-.027-.047-.047-.034-.067-.007l-.108-.027c-.04-.094.088-.188.115-.255-.06.04-.101.148-.202.1.007-.033-.007-.053.047-.06h-.128c-.114.162.027.182.162.209l.047.067s.04-.02.06-.04m-.874.228s.02.068-.007.115l-.067.04c-.101-.047 0-.135.074-.155Zm3.962-.538c-.047-.02.027-.161.135-.148l-.087-.134c.02.1-.182.127-.202.14-.007.142.06.068.154.142Zm4.966-1.238c-.047.06-.323 0-.323.195-.128-.188.182-.208.323-.195Zm.135.182c.067-.014.094 0 .067-.095.027-.047.094-.006.121-.053-.155-.054-.114.094-.182.148h-.006Zm-2.705.612-.06.162-.149.02.209-.182Zm-1.561.64.114-.055-.054-.02c-.006-.033-.04-.087-.013-.114-.088.034-.202.04-.188.148.027-.047.195-.08.195 0l-.06.047.006-.007Zm-2.671.638c-.115-.067-.121-.033-.182.007.027.034.121.034.182-.007Zm3.58-.78c-.183-.014.046-.175-.075-.195l.088-.014c-.169-.074-.074.142-.182.135h.067c.081.094-.087.094-.08.175.087.027.248-.094.174-.101m-3.942 1.043c.1-.034.033-.242.222-.168-.121.047-.068.235-.222.168Zm2.839-.417.014.02.12-.088-.013-.013-.121.087v-.006Z"/>
		<path fill="#0194D3" d="M18.611 30.378h.014l.006-.013-.02.013ZM30.09 32.081c.114-.094-.054-.047-.108-.067.054.02.04.114.108.067ZM29.592 32.114a.202.202 0 0 1 .155-.02c-.034-.013-.075-.02-.155.02ZM29.956 32.195a.472.472 0 0 0-.202-.1c.054.026.08.093.202.1ZM28.46 31.684c.095-.054.21.027.21.027-.256-.162.1-.121.147-.175-.188-.034-.215.06-.356.141M28.078 31.596l.074.04s-.047-.04-.074-.04ZM27.996 31.489c-.107-.014-.161.06-.228.114.094.101.215-.013.31 0-.068-.027-.142-.04-.082-.108M24.991 30.318s.08 0 .094-.047l-.175-.034c-.074.014.047.06.081.081ZM24.317 30.466c-.141 0-.054-.128-.128-.108l-.013.175.134-.067M24.284 31.34l.04-.013h-.047l.007.014ZM23.664 30.224l.114-.175c-.128.034-.141.188-.114.175ZM23.139 30.056l.087-.054-.269.047.182.007ZM22.487 30.13l-.02-.04-.182.046.202-.006ZM15.645 31.26c.013.162.262.034.35.06-.101-.188-.202.115-.35-.06ZM10.787 32.296l.25-.08c-.21-.028-.055.006-.25.08ZM20.502 36.077c.141-.013.209-.02.33-.027.127-.02.094-.02-.33.027Z"/>
		<path fill="#0194D3" d="M22.11 35.983c.04-.013.034-.053-1.285.06-.377.068-2.47.297 1.285-.06ZM14.447 37l1.11-.196c.996-.202-.746.135-1.11.195ZM17.926 36.4l1.38-.188-1.347.175-.033.013ZM31.738 34.846c.606.04 1.265.088 2.12.168l-2.12-.168ZM25.783 35.277a80.248 80.248 0 0 1 2.557 0c1.076 0-1.211-.04-2.557 0ZM5.215 38.304l1.063-.383c-.485.168-.949.336-1.063.383ZM6.863 37.94c.633-.2 1.084-.356 1.42-.457-.094.027-.155.048-.262.081l-1.158.377ZM28.86 34.8h-.122l.707.026c.208 0 .013 0-.579-.027M3.727 38.796c-.585.242-1.332.505-2.301.942a70.39 70.39 0 0 1 2.3-.942ZM8.062 37.625c-.189.054-.317.094-.552.168-.25.088.06-.013.552-.168ZM25.783 35.277a40.35 40.35 0 0 0-.848.027c.027 0 .37-.007.848-.027ZM22.99 35.801s-.773.048-1.574.115c.363-.027.854-.074 1.574-.114ZM30.932 33.716c.255.013.545.027.915.054.296.02-.23-.027-.915-.054Z"/>
		<path fill="#0194D3" d="M3.728 38.197c1.548-.626-1.635.612-1.796.666l1.312-.525-1.104.424 1.89-.754c-.894.33 1.057-.477-1.957.714 1.01-.404 2.018-.815 3.041-1.164-.82.276-1.628.578-2.429.895.687-.27 1.366-.539 2.066-.774.632-.27-1.763.578-1.743.585l1.13-.444c.586-.209-.174.04-.538.195.565-.229 1.144-.417 1.71-.626-.492.095 3.417-1.184 1.58-.639.418-.134.559-.195 1.541-.47 1.393-.411.054-.048-.72.18 2.739-.8 1.904-.53 4.118-1.116-1.373.303 2.57-.579 2.025-.458-1.19.25-2.381.518-3.559.828.612-.182 2.779-.68 2.429-.605-1.568.302-4.017 1.042-4.535 1.17.188-.229 8.215-2.045 6.298-1.608 1.864-.417 5.625-.854 4.696-.767.794-.08 1.595-.175 2.389-.222 1.022-.108 2.86-.188 2.079-.161-1.413.06-3.23.235-3.405.255 2.759-.229 4.152-.403 7.751-.383l-.134-.014c.148 0 .49 0 .774.007l.248-.013c.801.04 1.137.033 3.829.201l.673.034c2.018.188 2.86.29 4.474.532 1.305.228 2.557.477 3.889.84a38.54 38.54 0 0 0-3.236-.679c-1.063-.175 2.173.404.511.114l-1.595-.269c.606.094.794.128 1.01.162 1.036.175-.175-.047-1.191-.195-2.039-.27-.673-.081.74.141-.262-.054-3.674-.498-4.293-.525 3.425.357-.087.02 1.5.195l-2.22-.222c-2.691-.168-.484-.013.303.068l-1.83-.135c.35.027-5.793-.209.686.094l-1.218-.074c-.565-.02-1.924-.054 0 .034-.76-.047-1.709-.054-1.937-.06 2.503.073.612.033.161.033-.646-.047-3.882-.014-4.67.034-3.31.168 3.607-.135 3.567-.027-1.655.006-1.81-.007-3.021.033 1.756-.12-7.455.525-1.003.115l2.059-.088c1.4-.007 1.386 0 .774 0 .208 0-.397 0-.996.007-3.337.087 4.743-.02 3.438.08-1.211-.026-1.608-.04-2.624-.02-1.258-.053 6.257.122 3.755.088l-1.4-.047c-.848-.014 1.178.04 1.588.067-5.484-.08.262-.094-6.883.108 3.014-.169 5.356-.04 3.7-.054-3.276.074-3.606.054-6.654.33-.027 0 2.987-.23 1.931-.128 3.035-.215 6.17-.229 7.906-.108l-1.635-.047c.215 0 .834.014.444 0-1.797-.047-2.039-.02-2.86-.007l.922.027c3.236.04 2.476.034 3.297.054-.686-.054-5.43-.013-3.27.007l-1.218.013c2.752-.06-5.907.222-.72.06-.847.028-3.424.162-3.68.223-.014 0 1.204-.094 1.615-.115 1.137-.053-3.062.209-.094.04a64.82 64.82 0 0 0-3.412.29c2.342-.323 8.323-.404 6.843-.336-2.624.053-2.382.047-4.373.161 4.75-.235.592.027 3.135-.054 2.24-.094 5.208.027 7.065.155-3.405-.215-1.171-.08-1.548-.121 7.401.552-3.6-.229 2.813.276-.875-.08-1.75-.141-2.624-.188.39.013 2.368.168 3.189.262l-1.689-.121c-1.978-.202-6.553-.256-3.714-.229-2.799-.027-1.85-.034-5.053.074 4.373-.161-1.85.094-.895.094 3.795-.229 5.154-.12 6.99-.074-.706-.013 1.057.054 2.336.162.35.027-2.705-.115-1.393-.02a63.111 63.111 0 0 0-5.168-.095c1.373 0 1.34-.027-1.473.074-5.134.155 6.46-.208 3.135-.114-3.202.007-3.983.108-4.931.141-1.83.162-2.625.215-4.825.532 6.735-.78.653-.054 3.983-.37 1.972-.202 6.217-.283 6.95-.202.687.013 1.38.013 2.067.047-1.871-.067 1.991.094 2.731.215l-2.18-.168c-.43 0-.047 0 1.541.128a62.675 62.675 0 0 0-3.378-.188c-.417 0-.854-.014 1.15.06-.833-.034-1.48-.047-2.058-.06.558.006.922.026.807.033-.39-.013-.174-.027-1.177-.033.794.006-3.667.033-3.337.074-.78.013-1.756.094-2.174.12 5.33-.289 6.029-.114 8.983 0h-.074l2.133.182a54.36 54.36 0 0 0-2.45-.175h.034c-.827-.094-5.786-.12-4.245-.087l1.567.02c-.188 0-1.002-.013-1.406 0l1.447.02c-4.973-.013 2.799.067.356.067.424.007.047-.026-1.567-.026-.606 0-.027.006.76.02h-.592c1.097.013 2.187.054 3.277.12-1.79-.08-1.925-.107-3.95-.1-2.422.04.141.013.323.02 1.4 0 2.644.02 3.398.074-.687-.04-2.14-.06-3.142-.067 1.426.027 2.294.047 4.777.222-.606-.04-1.185-.08-1.38-.087l.404.02c-.774-.068-3.6-.128-2.14-.101-4.602-.034-1.278.013-1.917.02-1.043 0-2.086.02-3.129.06-6.29.492.525.034.613.115 1.433-.047.067-.074 3.653-.074 1.723.06.935.047 1.662.087h-.182c-1.837-.04 1.696.068-1.514 0-1.971-.013 1.857-.027-2.14-.013l.31.027c-2.361.047-.31-.027-.868-.027.222 0 .552-.027 3.156 0-.121-.02-2.691-.128-6.44.128-2.764.222-2.805.303-2.825.296 4.111-.43 6.035-.377 4.165-.283-1.01.06-2.012.148-3.021.25 2.732-.337 8.128-.364 7.455-.304-.72-.013-1.447 0-2.167 0-.854.027-1.144.047-1.117.047a65.785 65.785 0 0 0-5.18.364c-4.576.599 2.267-.276 3.196-.229-.593.034-.767.054-1.952.148-1.083.094 4.374-.283 5.107-.202-2.012.08-1.339-.013-4.32.216 1.151-.081-1.46.14 1.306-.068-3.943.323-.29.014-3.97.39-1.702.276 1.898-.175 4.145-.235a54.282 54.282 0 0 0-2.96.256c.046-.014-1.084.033-3.796.47-1.984.33 2.672-.396 1.494-.208-.969.141-.942.108-2.893.471-2.18.444.908-.168 1.285-.202l.99-.168c2.65-.424 6.849-.686 5.772-.579-2.395.202-1.971.128-4.925.505 1.157-.148-2.046.31 1.076-.108l.25-.047c.834-.074.82-.067 1.85-.155-.633.054-1.285.135-1.541.155.955-.087.713-.074 2.678-.229-1.057.081-2.106.189-3.163.31 1.4-.155 1.649-.209-.114-.014-2.758.377-1.043.162-1.258.202-.888.04-5.74 1.003-3.72.572l.968-.181c2.355-.465-1.547.242-1.453.222-.633.148-1.763.39-2.281.531 2.402-.619.572-.222 2.032-.605a60.78 60.78 0 0 0-3.055.72c.774-.189 1.54-.41 2.315-.572 1.016-.276-3.27.78-3.035.753-.013.014.37-.114.949-.255-2.624.666 2.146-.58 1.413-.39 2.503-.539.895-.216 4.225-.835-2.658.505-1.238.013-6.809 1.467 2.22-.68-1.278.235-1.756.37.962-.316.76-.222 1.527-.458-3.216.915 2.234-.7-.646.128.788-.256 2.9-.82 3.694-.996-1.4.33-2.079.492-2.476.6l.794-.203.397-.1-1.13.282-.182.054c-.82.228-.161-.081-3.223.888 1.864-.599 3.445-1.077 4.596-1.346-4.602 1.225-4.67 1.373-4.232 1.15a44.904 44.904 0 0 1 2.482-.76c-.632.175-1.258.344-1.877.545l1.144-.35c.82-.322-4.239 1.3-2.1.58.546-.156 1.494-.492 3.035-.916-.12.014-.181 0-1.574.39.282-.087.605-.174.955-.275.404-.115-.74.181-1.298.37.76-.256 1.54-.458 2.307-.687-1.07.296.108-.06-1.742.458 2.53-.767-2.355.68-1.285.357-.566.154 2.644-.815 2.51-.768-4.986 1.555-.169-.087-5.47 1.783l1.924-.72c-.882.317-1.763.62-2.631.976 4.911-1.904-2.214.814-.66.215.566-.222.747-.296 1.117-.444-.545.222-.895.303-2.207.895.027-.007-1.197.438 1.555-.68-1.5.593-.222.102.323-.107 2.26-.861 1.352-.565 3.841-1.4-.242.081-.645.21-1.022.33l1.42-.464c-2.537.807-.727.155-3.97 1.325.693-.289 1.244-.464 1.083-.417-.949.337-1.884.727-2.82 1.11l.048-.047a70.843 70.843 0 0 1 4.118-1.56c.814-.337-3.89 1.358-4.562 1.702 4.683-1.925-1.797.659 2.368-1.03l1.285-.457c-.874.276 1.999-.76.357-.202-1.575.619-.66.188-4.461 1.837 1.931-.895-2.644 1.083.034-.128 1.096-.491 1.837-.754 2.987-1.225-2.429.97.06-.087-2.752 1.097.935-.45 3.6-1.46 3.997-1.595-1.184.397-2.348.855-3.506 1.32l.559-.23c6.54-2.678-4.44 1.676-1.662.518l1.487-.639-2.2.942c1.46-.632 1.863-.84 3.189-1.359-1.11.41-2.194.882-3.284 1.346 1.299-.613 4.313-1.81 3.728-1.555m1.487.027.215-.067c-.148.054-.181.067.128-.04l-.128.04c.37-.141 1.568-.572-.215.067Zm5.786-.847c1.34-.337.404-.108.6-.162l.349-.074c-.78.202-.76.189-.949.236Zm13.322-2.914c.673-.02 1.353-.06 2.026-.067l-1.588.04-.438.027Zm.169-.148 1.177-.027.404-.013-1.178.027-.403.013ZM8.337 36.885c.114-.034.202-.054.39-.108l-.39.108c-1.406.41 2.086-.653-1.292.383-2.873.962.101-.033 1.292-.383Zm.74.067c-1.93.572-2.28.68-3.6 1.13.39-.161 2.093-.72 3.25-1.05.202-.06.014-.013-.363.095 4.064-1.17-1.386.41.713-.175Zm.653.121.202-.06 1.52-.384c-.572.148-1.15.276-1.722.444Zm.222.014c-.229.074 2.247-.593 4.427-1.023-.558.1-.134-.027-2.65.552 1.533-.404-3.675.962-1.777.47Zm2.429-1.158c.76-.215 5.308-1.016 2.873-.558l-1.15.209-.21.04-1.762.383c4.73-1.016.437-.127.255-.08m.6.524c1.533-.343 3.437-.659 5.234-.915-3.364.485-4.878.868-4.871.841.202-.047.013-.006-.364.068m6.318-1.09c-1.547.195-3.128.383-6.237 1.043-1.406.323 2.873-.626 4.67-.841 1.56-.202-.626.087-1.037.181.862-.154 1.73-.256 2.598-.383m-9.373 1.837.444-.128c1.366-.39 5.14-1.211 1.373-.377l-1.373.377c-.323.08-.511.148-.444.127Zm1.17-.142-.962.242c-.518.155-1.009.29-1.123.317l1.123-.316c1.01-.263 2.147-.559.963-.243Zm-.437-.04.337-.06c.41-.115 1.218-.33-.337.06Zm2.867-.572c.208-.054-.243.074-.458.135-.969.208-1.305.262.458-.135Zm4.245-.262h-.168c-.787.148-1.581.255-2.362.417.841-.169 1.69-.283 2.53-.417Zm.76-.25-.181.02 1.19-.16-1.015.14h.006Zm1.165-.309c-.519.054-1.165.155-1.71.222-.215.027-.51.067-1.009.148 0 0 .43-.08 1.01-.148.538-.067.248-.02-.478.088-1.178.195-.949.14-1.736.269-2.765.538 5.578-.983-2.422.525.955-.222 3.061-.586 4.46-.794-.47.053.398-.108 1.891-.303.43-.047.767-.088.835-.094-.297.033-.572.067-.835.094m1.016-.33a95.42 95.42 0 0 0-2.624.31 47.057 47.057 0 0 1 2.624-.31c.263-.033.505-.047.707-.06-.068 0-.35.02-.707.06Zm1.198-.134 1.54-.095-1.769.121a68.766 68.766 0 0 1 3.324-.181c1.642-.067-.908-.034-3.095.155Zm.888-.108 1.124-.034-.444.027h.04a38.72 38.72 0 0 0-1.985.142 62.893 62.893 0 0 1 1.945-.142l-.68.014v-.007Zm-3.93.141.23-.047c.194-.027 1.95-.202 1.52-.141 5.645-.498-.989.067 1.278-.148-.08.02 3.439-.25 5.706-.222-3.263.094-1.319-.189-8.06.437 1.365-.182-4.838.68-.68.121m2.092-.43-.565.047h.162l.403-.047Zm1.454-.6c1.608-.127 4.521-.241 1.494-.127-.445.04-.276.04-1.494.128Zm-.478-.16 1.366-.075c3.667-.188-.155-.02.484-.06-1.816.107-.619.033-1.85.134Zm3.021-.324c-1.218.04-2.436.121-3.647.23l.592-.048a57.704 57.704 0 0 1 3.055-.182Zm4.01-.013c.215 0-.565-.04-2.207-.02.734-.014 1.474.006 2.207.02Zm-2.47-.141c1.084-.014 2.16 0 3.244.033h.229a66.432 66.432 0 0 0-3.472-.033Zm-.335.02c2.327-.06 5.476.094 3.909.054-2.456-.061-2.436-.074-5.316.02-.592.013.444-.027.653-.04.397 0-.633.02.996-.014.922-.02.619-.027-.242-.014-.842.014-1.562.048-1.938.061.747-.027 1.433-.054 1.938-.06m-2.564.168-1.03.067.613-.034c1.056-.067.814-.053.417-.033.316-.02.599-.047.861-.054 2.06-.094 3.472-.054 4.63-.04-.593-.02-2.611-.034-1.36-.034.606 0 1.023.007.996.013h.444c-2.873-.074-3.768.027-4.71.06-.457.021-.928.055-1.453.088-.296.02.208-.006.592-.027m-1.79.027a59.15 59.15 0 0 0-2.227.216l-.599.06c1.238-.161 2.638-.282 2.826-.282m-3.465.787c.612-.108 3.014-.343 2.382-.27 1.016-.1 2.032-.181 3.048-.235-2.025.115-1.763.115-1.965.115-2.812.269-1.628.148-3.458.39m2.496.208c-.996.115 1.285-.195-2.516.263 4.225-.525 3.344-.323 2.516-.263Zm-4.044.539c.054.006-.31.033 1.588-.23.794-.107-.222.041.572-.066 1.676-.222-1.366.148-2.16.296-.013 0-.047 0-.168.02-.114.02 0 0 .168-.02Zm-.275-.236c-.929.142-1.844.33-2.766.498l.242-.06c.841-.148 1.682-.317 2.524-.438Zm-5.545.99.559-.129.605-.148c.734-.161 1.79-.41 2.288-.484.054-.007.128-.02.276-.047 0 0-.101.013-.276.047-.222.047.034-.054-2.046.417.788-.168.747-.155-.84.215l-.572.142.006-.014Zm-1.722.18c1.601-.457 1.023-.288.444-.147-.794.229-1.01.303-.444.148Zm.525.223c1.009-.303 3.122-.78 4.144-.996l-.215.054c2.214-.478-2.362.498-1.73.363l-.41.108c-1.978.505-1.352.323-2.913.774-.8.235.72-.182 1.13-.303m-4.312.928c.343-.161 4.454-1.399 2.462-.787-.558.135-4.225 1.413-2.462.787Zm-2.719 1.326-.383.155 1.103-.424.377-.155-1.097.424Z"/>
		<path fill="#0194D3" d="M29.1 33.689c.255 0 .215 0 .054-.007-.101 0-.148 0-.054.007ZM31.166 34.557c-.539-.027-.828-.04-1.01-.04l1.01.04ZM32.478 34.671h.014l.188.014-.202-.014ZM25.588 35.667c2.55-.04.417-.013.43-.027-.013 0-1.803.074-.43.027ZM21.355 35.882c.754-.06 1.265-.1 1.48-.107.075-.007-.194 0-1.48.107Z"/>
		<path fill="#0194D3" d="M22.447 35.828c.532-.054.626-.054.39-.054-.114.014-1.083.101-.39.054ZM22.057 35.7c1.567-.12.74-.033.74-.04a51.733 51.733 0 0 1 4.138-.155c-.545-.013-2.53.007-4.878.195ZM21.256 35.727l-.303.034c.397-.04.417-.04.303-.034Z"/>
		<path fill="#0194D3" d="M22.775 35.593c-.363.013-2.14.161-3.499.323-1.272.168 1.548-.168 1.978-.182.034-.007-.155 0 1.52-.141ZM31.375 35.216c.195.014.168.02 1.17.088l.048-.014a26.299 26.299 0 0 0-1.218-.074ZM26.556 35.061c-.162-.027 2.415-.013 1.823-.02-1.13-.013-2.26 0-3.39.047l1.56-.027M9.596 37.517l.33-.087-.122.027-.208.06ZM29.928 35.028c1.259.054 2.517.12 3.768.249-.962-.121-3.956-.27-3.768-.25ZM32.47 35.108l1.165.108-1.124-.121-.04.013ZM30.647 34.94l.8.04-.955-.066.155.026ZM27.472 34.187c-3.23.04-1.884.074-2.718.094 4.057-.108-1.353-.02 2.718-.094ZM27.613 33.696l.74.033c1.279-.006.014 0-.74-.033ZM29.95 12.09c.013.095.04.088.053-3.007-.013-.908-.054-5.826-.054 3.008ZM28.227 6.876l1.527-2.16c1.352-1.964-1.023 1.454-1.527 2.16Z"/>
		<path fill="#0194D3" d="M30.008 2.247v3.25l.007-3.17-.007-.08ZM30.992 34.503c.047.087-.1.545.101.343l-.545.02c-.37.014-.753.027-1.157.04-.8.028-1.675.061-2.664.095l2.449-.088 1.224-.047.613-.02c-.048.33-.014-.262-.02-.343ZM31.04 19.795c0-.525.006-.754.012-.888 0-.25 0 .087-.013.888ZM30.454 20.737c0 2.348-.014 4.501-.02 5.948.013 2.503.013-2.82.02-5.948ZM14.951 23.792l1.48-2.133a218.53 218.53 0 0 0-1.48 2.133ZM17.32 20.723c.868-1.251 1.5-2.153 1.965-2.819-.128.182-.215.31-.363.518L17.32 20.73M12.859 26.691c-.834 1.191-1.87 2.678-3.263 4.677.686-.983 2.133-3.048 3.263-4.677ZM19 18.429c-.255.363-.437.619-.773 1.09-.35.505.087-.114.774-1.09ZM30.453 20.737c0-.64 0-1.272.007-1.972 0 .054 0 .855-.007 1.972ZM30.063 14.177c.006.033.006-1.817.013-3.7 0 .854-.007 2.004-.014 3.7Z"/>
		<path fill="#0194D3" d="M12.677 25.971c2.153-3.122-2.295 3.237-2.524 3.546l1.837-2.63-1.54 2.193 2.644-3.795c-1.259 1.763 1.46-2.187-2.752 3.842l4.232-6.069-3.378 4.81 2.873-4.103c.868-1.292-2.462 3.41-2.435 3.37l1.574-2.254c.8-1.163-.242.33-.754 1.064l2.362-3.385c-.68.902 4.643-6.755 2.126-3.223.559-.82.76-1.083 2.086-2.98 1.87-2.705.06-.128-.982 1.359 3.687-5.295 2.577-3.66 5.524-7.926-1.824 2.604 3.418-4.898 2.678-3.862l-4.737 6.789c.814-1.185 3.7-5.316 3.223-4.663-2.08 2.954-5.356 7.73-6.063 8.7.297-.451 10.92-15.745 8.357-12.105.612-.888 1.373-1.991 2.16-3.122L29.78.68l.296-.424.074-.108.04-.054.02-.027c.922.283-2.065-.66 2.073.64v2.206c0 2.416 0 4.03.013 2.968l-.02 5.43c0 2.327 0 6.479.014 4.723 0-3.196.013-7.32.02-7.731-.034 6.27.027 9.42 0 17.56l.013-.309v1.75l.014.565c0 .901-.014 1.547-.02 2.725V34.967c1.002-1.036-1.366 1.427-1.124 1.178h-.215l-.25.013c-.343.014-.7.027-1.083.04l-1.52.081c-4.582.162-6.486.236-10.18.37l-8.855.263c2.759-.101 4.549-.155 7.34-.256 2.416-.108-4.978.168-1.183.014l3.64-.122c-1.38.047-1.817.061-2.301.081-2.355.094.41 0 2.718-.094 4.643-.175 1.52-.074-1.696.034.593-.04 8.364-.31 9.777-.364-7.785.27.195-.04-3.418.081l5.046-.175c.76-.027 1.352-.054 1.796-.074l.303-.013H31.186c-.895.928 1.225-1.265 1.003-1.043V34.442c0-.363 0-.248-.014.101V34.96c-1.971 2.053-.545.572-.989 1.03h-.06l-.196.007c-.275.006-.578.02-.894.027l-1.723.053 2.073-.074.518-.02h.255l.02-.006c.438-.451-.975 1.009.976-1.01v-1.271c-.013.397-.02-2.887-.027-4.434 0-.774 0-1.11-.007-.343v6.048c.202-.202-1.762 1.83-.935.97h-.269H31.199c-.834.86 1.131-1.172.93-.963V32.491c-.008-1.278-.021-4.373-.028.007V28.09c0 5.685-.013 1.393-.027.37.007-1.474 0-8.82.014-10.604-.02-7.529-.02 8.202-.034 8.094-.013-3.76.007-4.104.014-6.863-.027 3.997-.054-16.982-.068-2.287l.014 4.69c-.007 3.182-.014 3.155-.014 1.762v-2.26c-.033-7.604-.047 10.785-.08 7.811 0-2.752.006-3.653.006-5.968-.013-2.86-.013 14.25-.04 8.552v-3.196c0-1.925-.007 2.691-.007 3.62 0-12.495-.047.612-.067-15.69-.014 6.875-.047 12.211-.054 8.43-.013-7.475.014-8.222.007-15.2-.014-.06-.014 6.836-.034 4.414 0 6.937.034 14.076 0 18.052v-3.734c0 .491 0 1.898.007 1.01.007-4.105 0-4.657-.007-6.534l-.034 2.106c0 7.395.02 5.659.02 7.536-.026-1.561-.06-12.4-.087-7.469v-2.778c-.027 6.29-.013-13.51-.04-1.642-.014-1.931 0-7.839-.014-8.424v3.7c-.027 2.604-.013-7.017-.033-.221V7.543c-.02 5.382-.054 19.074-.074 15.697 0-6.022.013-5.464.02-10.039-.034 10.893-.074 1.36-.108 7.186v14.506c-.82.633-1.238.215-1.823.37.491-.013.928-.033 1.319-.047l.289-.013c.444-.505.121-.296.222-.478v-2.51c0 .195.007 1.265.013.828V34.846c-.114.148.263-.1-.262.37h-.155l-.592.027c-.753.027-1.359.047-1.843.067-.962.034-1.427.047-1.555.047-.248 0 .855-.047 2.026-.094.585-.027 1.19-.053 1.655-.067.276-.121.316.229.673-.276v-.229.23c-.35.497-.478.147-.895.268-.754.027-1.972.068-3.815.135l3.014-.114 1.507-.054c.357-.794.101-1.084.182-1.655v1.258c-.43.78-1.252.255-1.965.45-1.487.054-3.102.108-4.044.148l3.89-.174c.565-.02 1.23-.04 1.937-.068.296-.915.088-1.527.155-2.334 0-1.521.007-3.062.014-4.246.006-2.382.013-3.371.02-.114.006-6.426-.014-4.24 0-11.6-.02 10.045-.014-4.246-.034-2.066.014 8.727-.02 11.842-.02 16.06 0-.806-.014-.201-.014.976 0 .593 0 1.32-.006 2.093-.06.39.134.767-.142 1.184l-1.144.04c-.672-.154 1.898.525 1.252-1.338-.013-1.279-.02-2.281-.034-.774.007-2.732.02-6.345.02-11.896-.013 3.162-.02 3.082-.02-3.384.034-11.815.014 14.863.04 7.206.007-7.354.02-9.15.034-11.344-.006-4.212 0-6.049-.006-11.156-.02 15.583-.054 1.507-.081 9.205-.014 4.548 0 14.324-.027 16.013l.02 4.757c-.013-2.153-.013-1.01-.013.888v1.528c-.148.282-.962.107-1.38.188-1.009.034-1.89.067-2.32.074l2.515-.088c.384-.026.922-.006 1.178-.067v-1.258c0-.498-.007-.525-.014.034.02.255-.047.753.04 1.238-.578.02-1.325.04-2.233.074l1.945-.068c.484.014.134-1.117.242-1.614V29.43c0-.97-.014-1.958-.014 2.65v-4.743c0 1.292 0 2.127-.013 1.87 0-.894.007-.396.007-2.718-.034 1.837-.007-8.444-.027-7.697 0-1.803 0-4.057-.014-5.012 0 12.292-.033 13.894-.047 20.71v-.175.619c.182-.202-.303-.047-.424-.088l-1.231.04-2.47.075c.505-.014 1.589-.054 2.712-.095.444.014 1.4-.127 1.38.02v-1.291.067c-.007-1.918.006-13.35-.014-9.803l-.013 3.62v-3.25l-.014 3.337c-.02-11.479-.04 6.466-.06.828 0 .975.013.107.013-3.627 0-1.4-.013-.067-.013 1.756v-1.372l-.04 7.582c0-4.144.026-4.454.02-9.13-.007-5.605-.02.323-.027.747 0 3.243.013 6.116 0 7.852 0-1.595-.014-4.952-.007-7.267-.007 1.655-.02 2.98-.027 4.61 0 .813-.007 1.708-.014 2.758v2.671c-.336.35.465-.478.377-.39h-.491l-.525.027.525-.02.256-.014h.127l.061-.007h.047l-.383.397v-2.18.929c.006-1.797 0-8.337.02-4.952 0-10.651-.027-2.954-.04-4.441l.026-7.24c-.04-14.6-.1 1.211-.14 1.413.012 3.324.02.162.02 8.471-.028 3.997-.02 2.174-.048 3.856v-.431c-.013-4.266-.033 3.943-.04-3.512 0-4.575.02 4.313.02-4.966l-.034.72c.007-5.477.034-.72.047-2.012.007.512-.02 1.272-.013 7.314.034-.29.04-6.244.054-14.944.006-6.425-.014-6.546-.02-6.593-.02 9.58-.047 14.035-.081 9.682L30.56 9.05c-.013 6.371-.006 18.9-.04 17.339v-7.644c.014-3.808.02-8.1.034-12.057-.014-10.725-.04 5.295-.068 7.442 0-1.373.007-1.79.014-4.542-.034-2.537-.067 10.187-.094 11.889-.014-4.69.02-3.109.013-10.066-.013 2.685-.027-3.424-.034 3.035 0-9.211-.033-.68 0-9.292-.053-4.017-.107 4.44-.154 9.675V7.9c.006.054.02-.579.027-2.025 0-.72.006-1.649.013-2.792V.7c-.363-.128 3.183.989 1.675.518l-.006.02-.317.45-.666.95c-1.338 1.93-.437.645.606-.841l.397-.559c1.527.478-2.08-.66-1.71-.538V2.489.7c-1.533-.485 2.087.652 1.717.531v.014l-.081.114-.343.485c-.485.693-1.137 1.621-2.463 3.519-2.954 4.265 1.252-1.757 1.763-2.47l.666-.962.33-.478.08-.12.04-.061.014-.014v-.013c-.78-.25 1.75.545-1.749-.552v.33c-.034 6.264-.02 16.074-.047 13.55-.014-5.618 0-4.615 0-11.559-.007 2.732-.034-4.83-.04 2.523l.02.593c-.014 1.958-.027 1.93-.034 4.333v-3.62c-.013 2.247-.027 1.675-.034 6.277V5.7c0 3.29.027 3.882.027-.256 0-6.506-.02-2.469-.033-2.987 0-.256.006-.666.013-1.164V.7c-.43-.135 3.734 1.17 1.972.619v.007l-.121.181-.539.76c-.747 1.064-1.601 2.281-2.328 3.324-1.46 2.086-2.429 3.465-1.07 1.474l1.32-1.884c3.188-4.623-2.127 2.974-2.006 2.779a1088.67 1088.67 0 0 1-3.122 4.487c3.27-4.77.74-1.204 2.712-4.117l-4.192 5.995 3.176-4.569c1.386-2.025-4.481 6.432-4.179 5.968-.013.027.518-.733 1.312-1.87-3.633 5.167 2.947-4.26 1.931-2.826 3.412-4.892 1.245-1.736 5.753-8.222-3.626 5.16-1.668 2.274-9.325 13.268 3.04-4.454-1.81 2.402-2.497 3.324 1.34-1.931 1.05-1.5 2.12-3.041-4.448 6.358 3.061-4.488-.908 1.218 1.09-1.582 3.983-5.746 5.06-7.287a725.64 725.64 0 0 1-3.405 4.83l1.096-1.56.539-.774-1.555 2.207-.248.356c-1.158 1.609-.23.209-4.502 6.291 2.604-3.707 4.77-6.863 6.338-9.096-6.304 9.036-6.479 9.217-5.86 8.275 1.325-1.904 2.382-3.424 3.431-4.925L18.402 19.6l1.588-2.274c1.137-1.69-5.9 8.363-2.94 4.077.753-1.07 2.079-2.967 4.192-6.002-.175.216-.27.31-2.187 3.028.39-.558.834-1.19 1.312-1.877.545-.794-1.016 1.433-1.797 2.536l3.17-4.555c-1.474 2.093.134-.249-2.402 3.371 3.478-5.006-3.257 4.61-1.804 2.49-.773 1.103 3.654-5.221 3.445-4.96-6.87 9.865-.195.236-7.596 10.86l2.685-3.889-3.688 5.296c6.91-9.952-3.115 4.434-.942 1.278.801-1.144 1.057-1.514 1.588-2.274-.78 1.11-1.258 1.77-3.142 4.494.034-.067-1.716 2.375 2.207-3.223-2.12 3.042-.303.465.464-.632 3.176-4.562 1.911-2.772 5.343-7.717l-1.413 2.025 1.958-2.82c-3.506 5-1.01 1.373-5.538 7.853.983-1.413 1.736-2.497 1.507-2.187l-3.97 5.699.068-.135 5.78-8.282c1.13-1.662-5.437 7.73-6.433 9.13 6.628-9.52-2.53 3.566 3.33-4.885l1.804-2.556c-1.224 1.702 2.759-4.03.464-.794-2.193 3.189-.86 1.285-6.257 9.096 2.745-4.01-3.788 5.322.027-.215 1.574-2.254 2.597-3.714 4.219-6.049-3.419 4.898.087-.188-3.89 5.53 1.346-1.95 5.06-7.286 5.598-8.073l-4.918 6.99.787-1.13c9.164-13.275-6.284 8.814-2.402 3.129l2.106-3.028-3.122 4.461c2.08-2.967 2.651-3.815 4.508-6.48L7.47 33.508c1.857-2.678 6.075-8.726 5.261-7.536m2.167-2.24.303-.41c-.202.295-.256.37.181-.25l-.181.25c.518-.754 2.18-3.15-.303.41Zm8.363-10.45c1.844-2.637.552-.8.821-1.19l.491-.68c-1.07 1.541-1.05 1.5-1.312 1.87Zm8.054 4.105v4.656l.014-3.647-.014-1.002v-.007Zm.141.397-.013 2.691v.936l.013-2.698v-.929Zm-12.333-.626c.162-.228.276-.397.532-.76-.101.141-.29.41-.532.76-1.917 2.739 2.833-4.097-1.783 2.517-3.943 5.685.148-.189 1.783-2.517Zm1.117-1.137c-2.644 3.795-3.129 4.468-4.959 7.092.552-.8 2.9-4.158 4.481-6.426.27-.397.014-.027-.504.7 5.537-7.953-1.884 2.725.982-1.366Zm1.03-.955.275-.404 2.073-2.954-2.348 3.358Zm.33-.35c-.303.457 3.08-4.38 6.008-8.585-.76 1.07-.189.215-3.6 5.1 2.092-2.994-5.013 7.192-2.409 3.485Zm3.034-5.282c1.036-1.467 7.085-10.14 3.855-5.47l-1.54 2.193-.283.41-2.362 3.385c6.331-9.09.579-.861.33-.518Zm1.15-.531c1.043-1.48 2.207-3.142 3.405-4.851l1.823-2.604.229-.33.114-.162.027-.04.014-.02c.518.161-.7-.222-.572-.182V3.21.713c-.121-.047 1.09.337.578.175l-.047.074-.087.128a1762.193 1762.193 0 0 1-4.972 7.098c.269-.397.02-.033-.498.693m5.06-3.135c0-.902.006-1.81.013-2.772v-1.5c.208-.162-.464-.747.464-.572l-.477.686c-1.313 1.87-2.887 4.131-4.986 7.132-.949 1.373.027-.013 1.54-2.18l2.49-3.573c.424-.612.841-1.204 1.225-1.756-.148-.141.726-.256-.263-.417v1.319c0 1.823-.006 1.453-.013.511V.727c1.036.31.269.107.498.188l-.054.08-.209.297c-.128.182-.235.336-.303.437l.431-.626.108-.154.027-.04.013-.02h.007V.874c.47.148-.64-.202-.525-.162V5.746h.014Zm-9.245 9.117.605-.881c1.864-2.692 6.964-10.019 1.857-2.705l-1.857 2.705c-.437.632-.7 1.009-.605.881Zm1.675-2.126-1.319 1.884a138.357 138.357 0 0 1-1.554 2.213l1.554-2.213c1.38-1.985 2.927-4.219 1.32-1.884Zm-.666.7.471-.633c.552-.807 1.655-2.409-.471.633Zm3.943-5.484c.282-.417-.316.491-.606.922-1.312 1.877-1.776 2.503.606-.922ZM30.25 1.95l.013-.39V.707c-1.426-.451 1.945.605 1.595.497l-.014.02-.1.142-.202.29-.794 1.15L29.154 5.1l1.71-2.449.854-1.225.107-.154.027-.04v-.014h.007c.35.108-3.061-.962-1.615-.511v1.238l.007.006Zm.148 1.844v-.417l.013 2.792-.013-2.382v.007Zm.161 2.779V.72c-.228-.08 1.992.619 1.05.323v.013l-.02.02-.027.041-.235.343.1-.141.121-.175.034-.054.02-.027V1.05h.014C29.51.39 31.03.868 30.56.72v1.857c0 1.265-.013.572-.02-1.137V.72c.485.155-1.09-.343 1.09.336v.007l-.027.054-.054.08c-.148.21-.269.384-.37.532-.208.303-.356.505-.484.687-.256.363-.444.625-.976 1.386-3.727 5.382 7.55-10.773-3.263 4.743.653-.935 1.696-2.415 2.806-4.003l1.682-2.402.41-.586.202-.289.101-.141.027-.034v-.007c-.518-.161 1.164.364-1.164-.37v1.42c.014-1.097.04.949.054 4.447v1.952V6.58m.195 2.423V2.886v6.117c0 .612 0 1.164-.013 1.641 0-.161 0-.807.013-1.641Zm.02 2.799-.02 3.572V11.27l-.02 7.697c.013 3.795.034-2.106.034-7.172m.047 2.065-.034 2.598v-1.023.094-4.609 4.508l.027-1.574.007.006Zm.248-9.063.014.545c0 .444-.014 4.515-.027 3.52.013 13.052 0-2.282.034 2.96-.027-.182-.02 7.926-.014 13.14 0-7.522.047-3 .034-18.583-.014 3.169-.027-11.25-.034-1.582m.182 4.892.02-1.292-.02.363v.929Zm.478 3.418c0 3.68.02 10.321.026 3.418-.013-1.016-.026-.633-.026-3.418Zm.201-1.056-.02 3.115c0 8.35.02-.343.027 1.11 0-4.138 0-1.406-.006-4.226Zm.135 6.903v-8.29 8.297-.007Zm-.02 9.096c0 .485.02-1.278.013-5.005l-.013 5.005Zm.141-5.604v7.872-7.872Zm-.013-.747c0 5.268 0 12.4-.02 8.861V18.503c.006-1.339.013 1.003.013 1.487 0 .888-.014-1.44-.014 2.247.007 2.093.014 1.406.02-.538v-4.394V21.7Zm-.074-5.834c0-.666 0-1.406-.007-2.341v1.4c0 2.395 0 1.85.007.942 0 .726 0 1.359.006 1.964 0 4.676-.013 7.879-.013 10.496.007-1.339.013-5.92.02-3.088v2.26l.014 1.017c.013-6.527 0-8.545-.014-10.685v-3.303 1.339m.074-4.044V5.396c.014 2.826 0 6.002 0 6.426Zm-.397-8.034c0 1.413 0 6.903-.013 5.45v6.97c0-4.622.027-4.03.027-4.487 0-6.44 0-3.721-.014-7.933ZM31.3 9.42c0-2.295.034 2.98.034-5.793.007 9.77-.02 7.71-.034 5.793Zm-.652-8.263c.034-.047-.06.101.141-.188.054-.074.121-.175.222-.31.545.209.148.397.276.673v2.416c0 1.837-.007-.512-.013 1.318.006 1.938.013 1.151.013-.356V.962c-.121-.12.27-.1-.269-.336l-.141.195c-.088.128-.169.235-.236.33-.02.026-.06.08-.222.31-.148.221 0 .013.222-.31m-.531.296-3.68 5.268.309-.471 3.364-4.797h.007Zm-7.476 10.455.76-1.07.808-1.163c.976-1.4 2.395-3.439 3.048-4.374.074-.1.168-.235.363-.511 0-.014-.134.182-.363.511-.303.417.04-.094-2.732 3.89 1.05-1.501 1.003-1.414-1.11 1.627l-.774 1.097v-.007Zm-2.442 3.028c2.153-3.108 1.366-1.985.585-.874-1.063 1.534-1.359 1.964-.585.874Zm.875-.619c1.366-1.991 4.205-6.022 5.557-7.986l-.282.424c2.94-4.253-3.156 4.508-2.322 3.297l-.544.8c-2.665 3.829-1.824 2.604-3.943 5.639-1.077 1.567.989-1.373 1.54-2.18m-6.042 7.973c.498-.7 6.063-8.693 3.371-4.798-.753 1.057-5.786 8.296-3.37 4.798Zm-3.68 5.773-.532.767 1.548-2.2.531-.76-1.547 2.192Z"/>
		<path fill="#0194D3" d="M32.035 28.36c0 .585 0 .498.007.128 0-.236 0-.35-.007-.128ZM29.961 35.108h-.026l-.431.014.457-.014ZM30.077 20.252c-.007 5.962 0 .976.013.996 0-.027-.006-4.212-.013-.996ZM30.117 10.348ZM30.084 12.905c.007 1.245.013 1.46.02.915 0-.27-.013-2.55-.02-.915ZM30.238 12.017c-.007 3.654-.02 1.722-.02 1.722.027 3.432 0 6.904-.007 9.662.02-1.278.02-5.894.027-11.39M30.278 10.153s0-.161-.006-.713c0 .935 0 .982.006.713Z"/>
		<path fill="#0194D3" d="M30.284 13.713c.007-.855.014-5 .02-8.189-.013-2.987-.02 3.627-.027 4.63.007.087.014-.357.014 3.559M30.602 33.716v1.272c.235-.243-.525.551.532-.545H31.032c-.33.013-.76.026-1.338.047l-.108.02c.336-.014.653-.02.942-.034l.417-.02H31.127c.114-.114-.976 1.01-.512.531v-.181c0-.478 0-.848-.006-1.09M30.662 22.54c.014-.377 0 5.598.014 4.232v-7.858l-.014 3.62M21.256 15.758l.45-.64-.16.23-.29.41Z"/>
		<path fill="#0194D3" d="M30.728 30.345v4.642l.404-.417h-.262l-.545.027-1.09.04-2.18.075 2.368-.081c.478-.02.982-.034 1.494-.054h.215c-.175.188.404-.417-.397.417v-4.642"/>
		<path fill="#0194D3" d="m29.888 34.671-2.704.095 2.61-.074.094-.02ZM30.844 31.993v1.864l.02-2.213-.02.35ZM31.516 24.666c0-7.388-.027-4.32-.034-6.224 0 9.292.02-3.095.034 6.224ZM32.013 24.982l-.027 1.676c.02 2.906 0 .033.027-1.676Z"/>
		<path fill="#231F20" d="M64.638 14.748c0 .202-.175.33-.33.431-.174.101-.403.175-.585.303-.558.41-2.038 3.97-2.187 4.757l-.053.31c-.182.988-.861 1.782-1.09 2.745-.458.659-1.373 4.474-2.214 4.474-.383 0-.74-.128-.74-.585 0-.512.41-.916.484-1.4.027-.1 0-.202.054-.303.101-.229.458-.43.66-.558l-.182-.155c1.224-2.644 2.341-5.37 3.075-8.188-.586.282-1.043.713-1.427 1.197-.383.485-.713.97-1.07 1.427-.302.377-.666.713-1.015 1.043-1.198 1.143-2.369 2.341-3.31 3.74-.687.384-.56 1.528-1.474 1.905-.229.538-.505 1.601-1.225 1.601-.383 0-.861-.054-.861-.532 0-.228.128-.403.128-.612 0-.08-.054-.155-.074-.229.202-.43.33-.888.33-1.372 0-.633-.175-1.245-.175-1.904 0-.33.074-.687.127-1.016.202-1.117 0-2.288.431-3.385-.074-.1-.175-.228-.33-.228-.612 0-.484 1.117-1.07 1.19-.531.788-1.123 1.528-1.702 2.268-1.043 1.346-2.57 3.304-3.586 4.63-.558.712-.76 1.627-1.426 2.24-.027.74-.841 1.318-1.4 1.675-.357-.047-.505-.256-.505-.585 0-.384.23-.633.404-.915.384-.586.767-1.144 1.198-1.676.074-.027.404-.639.74-1.117.356-.558 2.82-4.427 4.044-5.315.383-.915 1.628-2.342 2.287-3.129.303-.383.787-.969.787-1.5 0-.155-.026-.33-.074-.511.202-.539.963-1.656 1.629-1.656.787 0 1.117.687 1.117 1.4 0 .713-.713 1.271-.713 1.985 0 1.554 0 4.043-.431 5.463a.784.784 0 0 1 .229.558c0 .33-.128.66-.128.99 0 .1.027.181.1.255 1.346-1.756 2.948-3.33 4.347-5.033.101-.43.485-.74.686-1.09.842-.457 1.272-1.352 1.757-2.14.713-.356 1.016-1.17 1.756-1.527 0-.632.33-1.042.686-1.527a2.163 2.163 0 0 0-.128-.404c.027-.356.303-.484.64-.484.53 0 .403.155.733.404.403.33 1.117.356 1.117 1.144 0 .154-.074.282-.074.457 0 .155.027.303.027.485M61.814 24.114l.1-.31c.256-.76 1.575-2.24 2.133-2.9.33-.403.868-.53 1.171-.914.303-.357.532-.814 1.016-.942.35-.686 1.346-1.427 2.133-1.427.283 0 .895.081.787.458.128.33.202.64.31.942.047-.404.1-1.17.66-1.17.174 0 .383.026.504.154.1.155.128.357.202.511.154.33.484.202.484.687 0 .201-.128.356-.282.484-.175.155-.357.256-.532.41-.74.613-1.83 2.772-2.14 3.688-.383.376-.66 1.547-.787 2.085.43-.229.841-.531 1.225-.814 1.426-.989 3.175-2.012 4.326-3.303.074-.101.175-.202.276-.276a.924.924 0 0 1 .66-.256c.18 0 .255.128.255.303 0 .558-2.24 2.133-2.772 2.442-.175.41-.74.713-1.097.915-.84.458-1.447 1.218-2.24 1.73-.128.255-.23.457-.532.53-.074.129-.585.055-.868.304a.801.801 0 0 1-.484-.155 1.458 1.458 0 0 0-.101-.33l.1-.787c.129-.969.76-2.26 1.198-3.129-.511.586-.989 1.272-1.655 1.683-.175.383-.64.558-.868.915-.531.86-1.52 2.186-2.644 2.186-.43 0-.484-.511-.558-.814-.411-.256-.458-.868-.458-1.299 0-.834.202-.86.458-1.6m5.18-4.071c-1.446.888-4.3 3.942-4.3 5.698 0 .175.048.384.277.384.457 0 2.745-2.315 3.101-2.799.182-.229.33-.458.532-.686.41-.485 2.039-1.958 2.039-2.517 0-.383-.66-.43-.915-.43-.23 0-.559.255-.74.356"/>
		<path fill="#231F20" d="M75.116 21.235c-.99.915-2.288 4.373-2.846 5.752a.6.6 0 0 0-.23.43c0 .082 0 .129.028.183-.155.127-.303.248-.485.33-.275-.081-.403-.277-.403-.56 0-1.298 1.298-2.24 1.527-3.532.1-.1.202-.228.283-.356 0-.175.053-.33.053-.485 0-.228-.074-.457-.074-.686 0-.357.155-.66.431-.888.027-.182.074-.384.128-.558l-.027-.074c.377-.532.585-1.171.686-1.804.128-.255.384-.531.687-.531.356 0 .43.33.585.585.256.384.76.283.76.915 0 .713-.639.888-1.096 1.299m-.007-4.165c0-.585.814-.868 1.298-.868.586 0 .915.585.915 1.117 0 .457-.585.76-.968.76-.512 0-1.245-.484-1.245-1.016M83.43 22.937c0 .43-.356.76-.585 1.124-.255.356-.356.84-.457 1.244a52.549 52.549 0 0 0 2.9-2.469c.457-.43 2.368-2.341 2.873-2.341.154 0 .228.1.228.255 0 .357-.33.64-.612.841-.302.229-.639.43-.942.687-.175.127-.356.302-.531.457-.384.357-.788.686-1.198 1.016-.074.484-.942 1.063-1.298 1.4-.431.356-.687.814-1.117 1.197-.23.175-.431.404-.613.613l-.202.074a.726.726 0 0 1-.457.174c-.229 0-.66 0-.767-.255.558-1.884 1.245-3.741 2.214-5.444.302-.558.814-1.042.814-1.729 0-.127 0-.255-.027-.383-.43.128-1.703 1.117-1.958 1.5-.101.175-.202.357-.303.512v-.027c-.155.128-.33.229-.484.356-.666.458-.889 1.427-1.555 1.783-.814.99-1.554 1.804-2.058 3.001-.458.155-.613.942-1.07.942-.175 0-.33-.1-.485-.202v-.356c0-.734 1.016-3.23 1.676-3.587.175-1.318.868-2.469 1.318-3.687-.074-.127-.175-.275-.175-.43 0-.33.687-1.346 1.043-1.346.128 0 .33.155.404.229l.155-.202a.914.914 0 0 1 .511-.155c.229 0 .43.101.532.303l-.074.457c.074.128.255.283.255.404 0 .357-.585.686-.814.915-.686.613-1.325 2.086-1.702 2.954.538-.41.942-.915 1.346-1.453.33-.485.686-.942 1.117-1.373.51-.511.968-1.09 1.5-1.554.229-.202.531-.303.841-.357.182-.128.43-.33.66-.33.127 0 .282.075.329.202.357.23.484.66.484 1.07 0 1.4-1.042 2.8-1.729 3.97"/>
		<path fill="#231F20" d="M92.25 19.963c0-.128.028-.256.055-.357l-.256-.074s-.074.027-.128.027c-.101 0-.229 0-.229-.128 0-.053 0-.1.027-.127-.915 0-3.182 1.271-3.33 2.24l-.054.202c.787.074 4.07.155 4.118 1.198.1.1.154.255.154.377 0 .51-.814 1.325-1.245 1.554-.201.1-.403.202-.585.33-.08.073-.155.174-.229.255-.181.202-.376.33-.558.511-.64.633-1.198 1.245-1.958 1.73-.377.255-1.016.659-1.272 1.043-.154.275-.282.585-.538.76-.202-.027-.303-.202-.404-.357l.128-.511-.074-.128c-.027-.357.303-.511.612-.585a72.05 72.05 0 0 0 2.268-1.73c.175-.148.282-.33.43-.504.303-.43.768-.713 1.043-1.17.23-.357.74-.431.963-.869v-.255c-.23-.027-.532-.027-.586-.303-.404 0-.861-.101-1.245-.101-.302 0-.585.175-.888.175a.54.54 0 0 1-.457-.229h-.027c-.33 0-1.602-.229-1.602-.64 0-.41.485-.585.633-.934l.1-.303c.203-.559 2.215-2.16 2.8-2.24.256-.155.484-.357.74-.479.283-.127.585-.154.888-.181.256-.027.511-.128.74-.229.202-.1.485-.229.713-.229.101 0 .202.027.23.128a.521.521 0 0 0 .201.027c.33 0 .43-.282.612-.282.155 0 .283.053.357.181h.074c.229 0 .256.175.256.357 0 .686-.43 1.473-1.043 1.83-.256.128-.559.255-.814.403-.074.054-.155.128-.256.128-.283 0-.357-.282-.357-.511M93.524 24.114l.1-.31c.25-.76 1.575-2.24 2.134-2.899.33-.404.868-.532 1.17-.915.303-.357.532-.814 1.017-.942.356-.686 1.345-1.426 2.139-1.426.276 0 .888.08.787.457.128.33.202.64.303.942.054-.404.101-1.17.659-1.17.175 0 .384.026.512.154.101.155.128.357.202.512.154.33.484.201.484.686 0 .202-.128.356-.283.484-.181.155-.356.256-.531.41-.74.613-1.83 2.773-2.133 3.688-.383.377-.66 1.547-.787 2.085.43-.228.841-.531 1.218-.814 1.426-.989 3.182-2.011 4.326-3.303.074-.101.175-.202.283-.276a.902.902 0 0 1 .659-.256c.182 0 .256.128.256.303 0 .558-2.241 2.133-2.772 2.442-.175.41-.741.714-1.09.915-.841.458-1.447 1.218-2.241 1.73-.128.255-.229.457-.538.531-.074.128-.586.054-.861.303a.8.8 0 0 1-.485-.155 1.46 1.46 0 0 0-.1-.33l.1-.787c.128-.969.767-2.26 1.198-3.128-.512.585-.99 1.271-1.655 1.682-.175.383-.633.558-.868.915-.532.861-1.528 2.186-2.645 2.186-.437 0-.484-.51-.558-.814-.404-.255-.458-.868-.458-1.298 0-.835.202-.861.458-1.602Zm5.167-4.07c-1.446.888-4.3 3.943-4.3 5.699 0 .175.048.383.283.383.458 0 2.746-2.314 3.102-2.799.175-.229.33-.457.538-.686.404-.484 2.032-1.958 2.032-2.516 0-.384-.659-.431-.915-.431-.228 0-.558.256-.74.357"/>
		<path fill="#231F20" d="M106.826 21.235c-.996.915-2.288 4.373-2.846 5.752a.599.599 0 0 0-.229.43c0 .082 0 .129.027.183-.155.127-.31.248-.485.33-.276-.081-.41-.277-.41-.56 0-1.298 1.298-2.24 1.527-3.532.101-.1.202-.228.283-.356 0-.175.054-.33.054-.485 0-.228-.081-.457-.081-.686 0-.357.155-.66.43-.888.027-.182.074-.384.128-.558l-.027-.074c.384-.532.586-1.171.687-1.804.127-.255.383-.531.686-.531.357 0 .431.33.585.585.256.384.767.283.767.915 0 .713-.632.888-1.09 1.299m-.006-4.165c0-.585.814-.868 1.298-.868.586 0 .915.585.915 1.117 0 .457-.585.76-.969.76-.504 0-1.244-.484-1.244-1.016M108.15 27.236c-.101 0-.41-.201-.511-.282.128-.357.101-.969.484-1.17a1.019 1.019 0 0 1-.101-.404c0-1.346 1.904-3.001 1.729-4.327 1.117-.989 1.447-2.341 1.911-3.687.33-1.043.888-1.985 1.171-3.048.101-.383.155-.767.276-1.117.155-.404.41-.686.868-.686.229 0 .457.08.686.128.249.074.532.181.633.41.228.43.302.915.511 1.373 0 .303-.229.504-.458.686-.255.202-.531.383-.76.585-.585.505-1.675 1.676-1.702 2.443a592.77 592.77 0 0 1-3.001 5.8c-.128.228-.256.484-.256.74 0 .1.054.202.074.303-.255.228-.713 1.07-.713 1.426 0 .08.074.155.074.256 0 .356-.612.585-.915.585M120.813 21.006c.074-.155.175-.33.229-.485.074-.175.074-.403.155-.585.181-.511.457-.969.733-1.426-.027-.081-.054-.155-.054-.256 0-.458.337-.915.639-1.245.175-1.117 1.016-2.086 1.016-3.23a2.28 2.28 0 0 0-.074-.558c.182-.383.559-.511.969-.511.377 0 .713.181 1.09.181.586 0 1.144-.228 1.729-.228.155 0 .283.027.438.074.383-.23.861-.283 1.298-.283.33 0 .633.027.942.101a.363.363 0 0 0 .229.148.44.44 0 0 1 .229-.074c.531 0 1.063 1.043 1.063 1.5 0 .41-.303.815-.559 1.117-.228.283-.484.539-.787.714-.256.154-.356.201-.612.41-1.373 1.117-3.028 2.415-4.656 3.156-.175.1-.404.181-.586.282-.585.357-.989 1.07-1.803.99-.659 1.27-1.473 2.516-1.783 3.942-.43.612-.76 2.9-1.675 2.9h-.155c-.155-.202-.303-.404-.303-.66 0-.457.458-.867.384-1.379.612-1.09 1.016-2.287 1.447-3.458l.457-1.144m5.161-6.755c-.047.1-.101.282-.229.33a.444.444 0 0 0-.175.1c-.404.41-.303 1.043-1.016 1.373-.33 1.09-1.198 1.73-1.245 2.974.128-.128.276-.229.431-.256.128-.282.713-.484.996-.558.228-.256.558-.384.787-.64.841-.329 4.555-2.442 4.555-3.303 0-.484-.942-.511-1.299-.511-.915 0-1.931.074-2.799.484M126.41 24.114l.101-.31c.256-.76 1.575-2.24 2.133-2.899.33-.404.868-.532 1.171-.915.309-.357.538-.814 1.016-.942.356-.686 1.352-1.426 2.139-1.426.283 0 .888.08.788.457.127.33.201.64.302.942.054-.404.101-1.17.66-1.17.181 0 .383.026.504.154.101.155.128.357.202.512.155.33.485.201.485.686 0 .202-.128.356-.283.484-.175.155-.357.256-.531.41-.741.613-1.831 2.773-2.133 3.688-.384.377-.66 1.547-.788 2.085.431-.228.835-.531 1.218-.814 1.427-.989 3.176-2.011 4.32-3.303.074-.101.175-.202.282-.276a.904.904 0 0 1 .66-.256c.175 0 .255.128.255.303 0 .558-2.24 2.133-2.772 2.442-.175.41-.74.714-1.096.915-.841.458-1.447 1.218-2.241 1.73-.128.255-.229.457-.531.531-.074.128-.586.054-.868.303a.803.803 0 0 1-.485-.155 1.47 1.47 0 0 0-.101-.33l.101-.787c.128-.969.761-2.26 1.191-3.128-.511.585-.989 1.271-1.655 1.682-.182.383-.639.558-.868.915-.532.861-1.527 2.186-2.644 2.186-.431 0-.485-.51-.559-.814-.403-.255-.457-.868-.457-1.298 0-.835.202-.861.457-1.602m5.188-4.07c-1.447.888-4.3 3.943-4.3 5.699 0 .175.054.383.283.383.458 0 2.745-2.314 3.102-2.799.175-.229.329-.457.531-.686.404-.484 2.032-1.958 2.032-2.516 0-.384-.659-.431-.915-.431-.229 0-.558.256-.74.357"/>
		<path fill="#231F20" d="M143.704 21.06c-.255 0-.484-.075-.457-.411l-.202-.457c0-.101.027-.202.027-.33 0-.229-.074-.458-.175-.66-.182 0-.33-.074-.484-.074-.66 0-2.598 2.8-3.028 3.385-.989 1.345-2.032 3.943-2.618 5.544a1.55 1.55 0 0 1-.457.31c-.303-.081-.404-.283-.404-.559 0-1.299 1.272-3.357 1.676-4.757.127-.41.275-.787.383-1.198.074-.302.128-.659.229-.969.128-.33.202-.585.202-.962 0-.356-.047-.639-.128-1.022-.229-.027-.532-.128-.532-.404 0-.43 1.043-.76 1.4-.76.484-.33.081-.256.787-.458.081 0 .128-.027.182-.027.154 0 .154.33.154.43 0 .384.229.586.229.916 0 .585-.659 1.83-.969 2.361l1.756-2.011c.613-.734.256-.915 1.353-1.326.175.027.33.027.504.054.101-.054.202-.128.303-.128.054 0 .128.027.155.054.256 0 .484-.1.713-.1.276 0 .384.201.458.43.181.457.787 1.345.787 1.783 0 .942-1.016 1.346-1.83 1.346M150.162 18.079c-.76.484-.787 2.187-1.446 2.873-.081.229-.229.41-.33.612-.027.97-.74 2.59-1.446 3.284-.229.86-.512 1.729-1.043 2.469a.282.282 0 0 1 .074.202c0 .404-.303.74-.559 1.016-.155.027-.309.074-.457.074-.229 0-.128-.074-.128-.357 0-.1.054-.181.054-.255 0-.155-.027-.303-.027-.458 0-.76.612-1.144.787-1.83.182-.101.256-.276.303-.478.229-.915.383-1.81.814-2.644.356-.66.558-1.346.787-2.059.047-.229.047-.43.101-.66.101-.585.484-1.143.713-1.702-.477.027-.942.128-1.426.128-.404 0-.76-.054-.76-.531 0-.532.585-.996 1.096-1.07.128.027.256.074.404.074.431 0 .841-.128 1.272-.155l.175-.155c.074-.484.154-.84.282-1.298.054-.175.027-.357.074-.532.155-.511.969-.787 1.427-.787.302 0 .894.182.894.559 0 .457-.868 1.527-1.069 2.085a13.598 13.598 0 0 1 1.756-.175c.356 0 .686.101.686.532 0 1.117-.713 1.043-1.527 1.043-.175 0-1.373.155-1.474.202M157.872 22.937c0 .43-.356.76-.585 1.124-.256.356-.357.84-.458 1.244a50.115 50.115 0 0 0 2.9-2.469c.458-.43 2.369-2.341 2.873-2.341.155 0 .229.1.229.255 0 .357-.33.64-.612.841-.31.229-.639.43-.942.687-.175.127-.357.302-.532.457-.383.357-.787.686-1.191 1.016-.08.484-.942 1.063-1.298 1.4-.431.356-.686.814-1.117 1.197-.229.175-.431.404-.612.613l-.202.074a.727.727 0 0 1-.458.174c-.228 0-.666 0-.767-.255.559-1.884 1.252-3.741 2.214-5.444.303-.558.814-1.042.814-1.729 0-.127 0-.255-.027-.383-.43.128-1.702 1.117-1.958 1.5-.101.175-.202.357-.309.512v-.027c-.155.128-.33.229-.485.356-.659.458-.888 1.427-1.547 1.783-.814.99-1.548 1.804-2.059 3.001-.458.155-.612.942-1.063.942-.182 0-.33-.1-.485-.202v-.356c0-.734 1.016-3.23 1.676-3.587.175-1.318.868-2.469 1.325-3.687-.074-.127-.182-.275-.182-.43 0-.33.687-1.346 1.043-1.346.128 0 .33.155.411.229l.155-.202a.927.927 0 0 1 .511-.155c.229 0 .431.101.531.303l-.074.457c.074.128.256.283.256.404 0 .357-.585.686-.814.915-.686.613-1.325 2.086-1.702 2.954.531-.41.942-.915 1.345-1.453.33-.485.687-.942 1.117-1.373.512-.511.962-1.09 1.501-1.554.228-.202.531-.303.834-.357.182-.128.431-.33.666-.33.128 0 .276.075.33.202.356.23.484.66.484 1.07 0 1.4-1.043 2.8-1.729 3.97"/>
		<path fill="#231F20" d="M159.677 25.46c.101-.66-.027-.787.282-1.453a5.75 5.75 0 0 0 .33-.714c.175-.43.404-.76.713-1.116.66-.74 2.342-2.692 3.129-3.102.208-.101.41-.182.612-.283.962-.43 1.501-1.043 2.644-1.043.357 0 .666.101.666.512 0 .201-.026.383-.053.585.027.074.027.155.027.256 0 .356-.081.733-.384.968-.054.075-.155.102-.229.155-.128.101-.437.512-.558.687-.256.302-1.756 1.6-2.113 1.783-.383.174-.74.33-1.097.531-.181.128-.376.276-.612.357a7.856 7.856 0 0 0-1.272.484c-.41.229-.659 1.016-.659 1.474 0 .255.054.713.384.713 1.399 0 5.598-3.082 6.714-4.118.532-.484 1.831-2.032 2.544-2.032.128 0 .202.101.202.229 0 .31-.915 1.117-1.144 1.373-2.14 2.085-5.215 4.447-8.014 5.517-.074.155-.484.256-.659.303-.175-.054-.33-.101-.505-.182-.659-.074-1.016-.861-1.016-1.447 0-.154.054-.302.074-.43m6.096-5.86c-.383 0-1.446.894-1.702 1.197-.155.202-.384.33-.612.458-.404.255-1.144 1.325-1.319 1.782.202-.026.41-.053.612-.1.613-.202 2.618-1.5 2.846-2.086.33-.202.539-.505.539-.888a.56.56 0 0 0-.074-.303c-.101-.027-.202-.054-.283-.054"/>
		<path fill="#231F20" d="M175.064 21.06c-.256 0-.485-.074-.458-.41l-.202-.458c0-.101.027-.202.027-.33 0-.229-.074-.457-.175-.66-.181 0-.329-.073-.484-.073-.659 0-2.59 2.799-3.028 3.384-.996 1.346-2.039 3.943-2.617 5.544a1.573 1.573 0 0 1-.458.31c-.302-.081-.403-.283-.403-.559 0-1.298 1.271-3.357 1.675-4.757.128-.41.283-.787.383-1.197.075-.303.128-.66.229-.97.128-.329.202-.585.202-.961 0-.357-.047-.64-.128-1.023-.228-.027-.531-.128-.531-.404 0-.43 1.043-.76 1.399-.76.485-.33.074-.256.787-.458.074 0 .128-.026.182-.026.155 0 .155.33.155.43 0 .384.229.585.229.915 0 .585-.66 1.83-.969 2.362l1.756-2.012c.605-.733.256-.915 1.345-1.325.175.026.33.026.505.053.101-.053.202-.128.31-.128.053 0 .127.027.154.054.256 0 .485-.1.714-.1.282 0 .383.201.457.43.182.458.787 1.346.787 1.783 0 .942-1.022 1.346-1.83 1.346M182.31 19.963c0-.128.02-.256.047-.357l-.255-.074s-.074.027-.128.027c-.101 0-.229 0-.229-.128 0-.053 0-.1.027-.127-.915 0-3.183 1.271-3.331 2.24l-.054.202c.788.074 4.071.155 4.118 1.198.101.1.155.255.155.377 0 .51-.814 1.325-1.245 1.554-.202.1-.41.202-.585.33-.074.073-.155.174-.229.255-.182.202-.383.33-.558.511-.633.633-1.191 1.245-1.958 1.73-.384.255-1.016.659-1.272 1.043-.155.275-.283.585-.531.76-.202-.027-.31-.202-.411-.357l.128-.511-.074-.128c-.027-.357.303-.511.612-.585a81.09 81.09 0 0 0 2.268-1.73c.175-.148.276-.33.43-.504.303-.43.761-.713 1.043-1.17.229-.357.74-.431.969-.869v-.255c-.229-.027-.532-.027-.585-.303-.404 0-.862-.101-1.245-.101-.303 0-.585.175-.888.175a.533.533 0 0 1-.458-.229h-.027c-.329 0-1.601-.229-1.601-.64 0-.41.484-.585.639-.934l.101-.303c.202-.559 2.214-2.16 2.799-2.24.256-.155.485-.357.733-.479.283-.127.586-.154.895-.181.256-.027.505-.128.734-.229.202-.1.484-.229.713-.229.108 0 .209.027.229.128.08.027.128.027.208.027.33 0 .431-.282.606-.282.155 0 .282.053.356.181h.081c.229 0 .256.175.256.357 0 .686-.431 1.473-1.043 1.83-.249.128-.558.255-.814.403-.074.054-.155.128-.256.128-.282 0-.356-.282-.356-.511"/>
		<path fill="#162731" d="M64.638 14.748c0 .202-.175.33-.33.431-.174.101-.403.175-.585.303-.558.41-2.038 3.97-2.187 4.757l-.053.31c-.182.988-.861 1.782-1.09 2.745-.458.659-1.373 4.474-2.214 4.474-.383 0-.74-.128-.74-.585 0-.512.41-.916.484-1.4.027-.1 0-.202.054-.303.101-.229.458-.43.66-.558l-.182-.155c1.224-2.644 2.341-5.37 3.075-8.188-.586.282-1.043.713-1.427 1.197-.383.485-.713.97-1.07 1.427-.302.377-.666.713-1.015 1.043-1.198 1.143-2.369 2.341-3.31 3.74-.687.384-.56 1.528-1.474 1.905-.229.538-.505 1.601-1.225 1.601-.383 0-.861-.054-.861-.532 0-.228.128-.403.128-.612 0-.08-.054-.155-.074-.229.202-.43.33-.888.33-1.372 0-.633-.175-1.245-.175-1.904 0-.33.074-.687.127-1.016.202-1.117 0-2.288.431-3.385-.074-.1-.175-.228-.33-.228-.612 0-.484 1.117-1.07 1.19-.531.788-1.123 1.528-1.702 2.268-1.043 1.346-2.57 3.304-3.586 4.63-.558.712-.76 1.627-1.426 2.24-.027.74-.841 1.318-1.4 1.675-.357-.047-.505-.256-.505-.585 0-.384.23-.633.404-.915.384-.586.767-1.144 1.198-1.676.074-.027.404-.639.74-1.117.356-.558 2.82-4.427 4.044-5.315.383-.915 1.628-2.342 2.287-3.129.303-.383.787-.969.787-1.5 0-.155-.026-.33-.074-.511.202-.539.963-1.656 1.629-1.656.787 0 1.117.687 1.117 1.4 0 .713-.713 1.271-.713 1.985 0 1.554 0 4.043-.431 5.463a.784.784 0 0 1 .229.558c0 .33-.128.66-.128.99 0 .1.027.181.1.255 1.346-1.756 2.948-3.33 4.347-5.033.101-.43.485-.74.686-1.09.842-.457 1.272-1.352 1.757-2.14.713-.356 1.016-1.17 1.756-1.527 0-.632.33-1.042.686-1.527a2.163 2.163 0 0 0-.128-.404c.027-.356.303-.484.64-.484.53 0 .403.155.733.404.403.33 1.117.356 1.117 1.144 0 .154-.074.282-.074.457 0 .155.027.303.027.485M61.814 24.114l.1-.31c.256-.76 1.575-2.24 2.133-2.9.33-.403.868-.53 1.171-.914.303-.357.532-.814 1.016-.942.35-.686 1.346-1.427 2.133-1.427.283 0 .895.081.787.458.128.33.202.64.31.942.047-.404.1-1.17.66-1.17.174 0 .383.026.504.154.1.155.128.357.202.511.154.33.484.202.484.687 0 .201-.128.356-.282.484-.175.155-.357.256-.532.41-.74.613-1.83 2.772-2.14 3.688-.383.376-.66 1.547-.787 2.085.43-.229.841-.531 1.225-.814 1.426-.989 3.175-2.012 4.326-3.303.074-.101.175-.202.276-.276a.924.924 0 0 1 .66-.256c.18 0 .255.128.255.303 0 .558-2.24 2.133-2.772 2.442-.175.41-.74.713-1.097.915-.84.458-1.447 1.218-2.24 1.73-.128.255-.23.457-.532.53-.074.129-.585.055-.868.304a.801.801 0 0 1-.484-.155 1.458 1.458 0 0 0-.101-.33l.1-.787c.129-.969.76-2.26 1.198-3.129-.511.586-.989 1.272-1.655 1.683-.175.383-.64.558-.868.915-.531.86-1.52 2.186-2.644 2.186-.43 0-.484-.511-.558-.814-.411-.256-.458-.868-.458-1.299 0-.834.202-.86.458-1.6m5.18-4.071c-1.446.888-4.3 3.942-4.3 5.698 0 .175.048.384.277.384.457 0 2.745-2.315 3.101-2.799.182-.229.33-.458.532-.686.41-.485 2.039-1.958 2.039-2.517 0-.383-.66-.43-.915-.43-.23 0-.559.255-.74.356"/>
		<path fill="#162731" d="M75.116 21.235c-.99.915-2.288 4.373-2.846 5.752a.6.6 0 0 0-.23.43c0 .082 0 .129.028.183-.155.127-.303.248-.485.33-.275-.081-.403-.277-.403-.56 0-1.298 1.298-2.24 1.527-3.532.1-.1.202-.228.283-.356 0-.175.053-.33.053-.485 0-.228-.074-.457-.074-.686 0-.357.155-.66.431-.888.027-.182.074-.384.128-.558l-.027-.074c.377-.532.585-1.171.686-1.804.128-.255.384-.531.687-.531.356 0 .43.33.585.585.256.384.76.283.76.915 0 .713-.639.888-1.096 1.299m-.007-4.165c0-.585.814-.868 1.298-.868.586 0 .915.585.915 1.117 0 .457-.585.76-.968.76-.512 0-1.245-.484-1.245-1.016M83.43 22.937c0 .43-.356.76-.585 1.124-.255.356-.356.84-.457 1.244a52.549 52.549 0 0 0 2.9-2.469c.457-.43 2.368-2.341 2.873-2.341.154 0 .228.1.228.255 0 .357-.33.64-.612.841-.302.229-.639.43-.942.687-.175.127-.356.302-.531.457-.384.357-.788.686-1.198 1.016-.074.484-.942 1.063-1.298 1.4-.431.356-.687.814-1.117 1.197-.23.175-.431.404-.613.613l-.202.074a.726.726 0 0 1-.457.174c-.229 0-.66 0-.767-.255.558-1.884 1.245-3.741 2.214-5.444.302-.558.814-1.042.814-1.729 0-.127 0-.255-.027-.383-.43.128-1.703 1.117-1.958 1.5-.101.175-.202.357-.303.512v-.027c-.155.128-.33.229-.484.356-.666.458-.889 1.427-1.555 1.783-.814.99-1.554 1.804-2.058 3.001-.458.155-.613.942-1.07.942-.175 0-.33-.1-.485-.202v-.356c0-.734 1.016-3.23 1.676-3.587.175-1.318.868-2.469 1.318-3.687-.074-.127-.175-.275-.175-.43 0-.33.687-1.346 1.043-1.346.128 0 .33.155.404.229l.155-.202a.914.914 0 0 1 .511-.155c.229 0 .43.101.532.303l-.074.457c.074.128.255.283.255.404 0 .357-.585.686-.814.915-.686.613-1.325 2.086-1.702 2.954.538-.41.942-.915 1.346-1.453.33-.485.686-.942 1.117-1.373.51-.511.968-1.09 1.5-1.554.229-.202.531-.303.841-.357.182-.128.43-.33.66-.33.127 0 .282.075.329.202.357.23.484.66.484 1.07 0 1.4-1.042 2.8-1.729 3.97"/>
		<path fill="#162731" d="M92.25 19.963c0-.128.028-.256.055-.357l-.256-.074s-.074.027-.128.027c-.101 0-.229 0-.229-.128 0-.053 0-.1.027-.127-.915 0-3.182 1.271-3.33 2.24l-.054.202c.787.074 4.07.155 4.118 1.198.1.1.154.255.154.377 0 .51-.814 1.325-1.245 1.554-.201.1-.403.202-.585.33-.08.073-.155.174-.229.255-.181.202-.376.33-.558.511-.64.633-1.198 1.245-1.958 1.73-.377.255-1.016.659-1.272 1.043-.154.275-.282.585-.538.76-.202-.027-.303-.202-.404-.357l.128-.511-.074-.128c-.027-.357.303-.511.612-.585a72.05 72.05 0 0 0 2.268-1.73c.175-.148.282-.33.43-.504.303-.43.768-.713 1.043-1.17.23-.357.74-.431.963-.869v-.255c-.23-.027-.532-.027-.586-.303-.404 0-.861-.101-1.245-.101-.302 0-.585.175-.888.175a.54.54 0 0 1-.457-.229h-.027c-.33 0-1.602-.229-1.602-.64 0-.41.485-.585.633-.934l.1-.303c.203-.559 2.215-2.16 2.8-2.24.256-.155.484-.357.74-.479.283-.127.585-.154.888-.181.256-.027.511-.128.74-.229.202-.1.485-.229.713-.229.101 0 .202.027.23.128a.521.521 0 0 0 .201.027c.33 0 .43-.282.612-.282.155 0 .283.053.357.181h.074c.229 0 .256.175.256.357 0 .686-.43 1.473-1.043 1.83-.256.128-.559.255-.814.403-.074.054-.155.128-.256.128-.283 0-.357-.282-.357-.511M93.524 24.114l.1-.31c.25-.76 1.575-2.24 2.134-2.899.33-.404.868-.532 1.17-.915.303-.357.532-.814 1.017-.942.356-.686 1.345-1.426 2.139-1.426.276 0 .888.08.787.457.128.33.202.64.303.942.054-.404.101-1.17.659-1.17.175 0 .384.026.512.154.101.155.128.357.202.512.154.33.484.201.484.686 0 .202-.128.356-.283.484-.181.155-.356.256-.531.41-.74.613-1.83 2.773-2.133 3.688-.383.377-.66 1.547-.787 2.085.43-.228.841-.531 1.218-.814 1.426-.989 3.182-2.011 4.326-3.303.074-.101.175-.202.283-.276a.902.902 0 0 1 .659-.256c.182 0 .256.128.256.303 0 .558-2.241 2.133-2.772 2.442-.175.41-.741.714-1.09.915-.841.458-1.447 1.218-2.241 1.73-.128.255-.229.457-.538.531-.074.128-.586.054-.861.303a.8.8 0 0 1-.485-.155 1.46 1.46 0 0 0-.1-.33l.1-.787c.128-.969.767-2.26 1.198-3.128-.512.585-.99 1.271-1.655 1.682-.175.383-.633.558-.868.915-.532.861-1.528 2.186-2.645 2.186-.437 0-.484-.51-.558-.814-.404-.255-.458-.868-.458-1.298 0-.835.202-.861.458-1.602Zm5.167-4.07c-1.446.888-4.3 3.943-4.3 5.699 0 .175.048.383.283.383.458 0 2.746-2.314 3.102-2.799.175-.229.33-.457.538-.686.404-.484 2.032-1.958 2.032-2.516 0-.384-.659-.431-.915-.431-.228 0-.558.256-.74.357"/>
		<path fill="#162731" d="M106.826 21.235c-.996.915-2.288 4.373-2.846 5.752a.599.599 0 0 0-.229.43c0 .082 0 .129.027.183-.155.127-.31.248-.485.33-.276-.081-.41-.277-.41-.56 0-1.298 1.298-2.24 1.527-3.532.101-.1.202-.228.283-.356 0-.175.054-.33.054-.485 0-.228-.081-.457-.081-.686 0-.357.155-.66.43-.888.027-.182.074-.384.128-.558l-.027-.074c.384-.532.586-1.171.687-1.804.127-.255.383-.531.686-.531.357 0 .431.33.585.585.256.384.767.283.767.915 0 .713-.632.888-1.09 1.299m-.006-4.165c0-.585.814-.868 1.298-.868.586 0 .915.585.915 1.117 0 .457-.585.76-.969.76-.504 0-1.244-.484-1.244-1.016M108.15 27.236c-.101 0-.41-.201-.511-.282.128-.357.101-.969.484-1.17a1.019 1.019 0 0 1-.101-.404c0-1.346 1.904-3.001 1.729-4.327 1.117-.989 1.447-2.341 1.911-3.687.33-1.043.888-1.985 1.171-3.048.101-.383.155-.767.276-1.117.155-.404.41-.686.868-.686.229 0 .457.08.686.128.249.074.532.181.633.41.228.43.302.915.511 1.373 0 .303-.229.504-.458.686-.255.202-.531.383-.76.585-.585.505-1.675 1.676-1.702 2.443a592.77 592.77 0 0 1-3.001 5.8c-.128.228-.256.484-.256.74 0 .1.054.202.074.303-.255.228-.713 1.07-.713 1.426 0 .08.074.155.074.256 0 .356-.612.585-.915.585M120.813 21.006c.074-.155.175-.33.229-.485.074-.175.074-.403.155-.585.181-.511.457-.969.733-1.426-.027-.081-.054-.155-.054-.256 0-.458.337-.915.639-1.245.175-1.117 1.016-2.086 1.016-3.23a2.28 2.28 0 0 0-.074-.558c.182-.383.559-.511.969-.511.377 0 .713.181 1.09.181.586 0 1.144-.228 1.729-.228.155 0 .283.027.438.074.383-.23.861-.283 1.298-.283.33 0 .633.027.942.101a.363.363 0 0 0 .229.148.44.44 0 0 1 .229-.074c.531 0 1.063 1.043 1.063 1.5 0 .41-.303.815-.559 1.117-.228.283-.484.539-.787.714-.256.154-.356.201-.612.41-1.373 1.117-3.028 2.415-4.656 3.156-.175.1-.404.181-.586.282-.585.357-.989 1.07-1.803.99-.659 1.27-1.473 2.516-1.783 3.942-.43.612-.76 2.9-1.675 2.9h-.155c-.155-.202-.303-.404-.303-.66 0-.457.458-.867.384-1.379.612-1.09 1.016-2.287 1.447-3.458l.457-1.144m5.161-6.755c-.047.1-.101.282-.229.33a.444.444 0 0 0-.175.1c-.404.41-.303 1.043-1.016 1.373-.33 1.09-1.198 1.73-1.245 2.974.128-.128.276-.229.431-.256.128-.282.713-.484.996-.558.228-.256.558-.384.787-.64.841-.329 4.555-2.442 4.555-3.303 0-.484-.942-.511-1.299-.511-.915 0-1.931.074-2.799.484M126.41 24.114l.101-.31c.256-.76 1.575-2.24 2.133-2.899.33-.404.868-.532 1.171-.915.309-.357.538-.814 1.016-.942.356-.686 1.352-1.426 2.139-1.426.283 0 .888.08.788.457.127.33.201.64.302.942.054-.404.101-1.17.66-1.17.181 0 .383.026.504.154.101.155.128.357.202.512.155.33.485.201.485.686 0 .202-.128.356-.283.484-.175.155-.357.256-.531.41-.741.613-1.831 2.773-2.133 3.688-.384.377-.66 1.547-.788 2.085.431-.228.835-.531 1.218-.814 1.427-.989 3.176-2.011 4.32-3.303.074-.101.175-.202.282-.276a.904.904 0 0 1 .66-.256c.175 0 .255.128.255.303 0 .558-2.24 2.133-2.772 2.442-.175.41-.74.714-1.096.915-.841.458-1.447 1.218-2.241 1.73-.128.255-.229.457-.531.531-.074.128-.586.054-.868.303a.803.803 0 0 1-.485-.155 1.47 1.47 0 0 0-.101-.33l.101-.787c.128-.969.761-2.26 1.191-3.128-.511.585-.989 1.271-1.655 1.682-.182.383-.639.558-.868.915-.532.861-1.527 2.186-2.644 2.186-.431 0-.485-.51-.559-.814-.403-.255-.457-.868-.457-1.298 0-.835.202-.861.457-1.602m5.188-4.07c-1.447.888-4.3 3.943-4.3 5.699 0 .175.054.383.283.383.458 0 2.745-2.314 3.102-2.799.175-.229.329-.457.531-.686.404-.484 2.032-1.958 2.032-2.516 0-.384-.659-.431-.915-.431-.229 0-.558.256-.74.357"/>
		<path fill="#162731" d="M143.704 21.06c-.255 0-.484-.075-.457-.411l-.202-.457c0-.101.027-.202.027-.33 0-.229-.074-.458-.175-.66-.182 0-.33-.074-.484-.074-.66 0-2.598 2.8-3.028 3.385-.989 1.345-2.032 3.943-2.618 5.544a1.55 1.55 0 0 1-.457.31c-.303-.081-.404-.283-.404-.559 0-1.299 1.272-3.357 1.676-4.757.127-.41.275-.787.383-1.198.074-.302.128-.659.229-.969.128-.33.202-.585.202-.962 0-.356-.047-.639-.128-1.022-.229-.027-.532-.128-.532-.404 0-.43 1.043-.76 1.4-.76.484-.33.081-.256.787-.458.081 0 .128-.027.182-.027.154 0 .154.33.154.43 0 .384.229.586.229.916 0 .585-.659 1.83-.969 2.361l1.756-2.011c.613-.734.256-.915 1.353-1.326.175.027.33.027.504.054.101-.054.202-.128.303-.128.054 0 .128.027.155.054.256 0 .484-.1.713-.1.276 0 .384.201.458.43.181.457.787 1.345.787 1.783 0 .942-1.016 1.346-1.83 1.346M150.162 18.079c-.76.484-.787 2.187-1.446 2.873-.081.229-.229.41-.33.612-.027.97-.74 2.59-1.446 3.284-.229.86-.512 1.729-1.043 2.469a.282.282 0 0 1 .074.202c0 .404-.303.74-.559 1.016-.155.027-.309.074-.457.074-.229 0-.128-.074-.128-.357 0-.1.054-.181.054-.255 0-.155-.027-.303-.027-.458 0-.76.612-1.144.787-1.83.182-.101.256-.276.303-.478.229-.915.383-1.81.814-2.644.356-.66.558-1.346.787-2.059.047-.229.047-.43.101-.66.101-.585.484-1.143.713-1.702-.477.027-.942.128-1.426.128-.404 0-.76-.054-.76-.531 0-.532.585-.996 1.096-1.07.128.027.256.074.404.074.431 0 .841-.128 1.272-.155l.175-.155c.074-.484.154-.84.282-1.298.054-.175.027-.357.074-.532.155-.511.969-.787 1.427-.787.302 0 .894.182.894.559 0 .457-.868 1.527-1.069 2.085a13.598 13.598 0 0 1 1.756-.175c.356 0 .686.101.686.532 0 1.117-.713 1.043-1.527 1.043-.175 0-1.373.155-1.474.202M157.872 22.937c0 .43-.356.76-.585 1.124-.256.356-.357.84-.458 1.244a50.115 50.115 0 0 0 2.9-2.469c.458-.43 2.369-2.341 2.873-2.341.155 0 .229.1.229.255 0 .357-.33.64-.612.841-.31.229-.639.43-.942.687-.175.127-.357.302-.532.457-.383.357-.787.686-1.191 1.016-.08.484-.942 1.063-1.298 1.4-.431.356-.686.814-1.117 1.197-.229.175-.431.404-.612.613l-.202.074a.727.727 0 0 1-.458.174c-.228 0-.666 0-.767-.255.559-1.884 1.252-3.741 2.214-5.444.303-.558.814-1.042.814-1.729 0-.127 0-.255-.027-.383-.43.128-1.702 1.117-1.958 1.5-.101.175-.202.357-.309.512v-.027c-.155.128-.33.229-.485.356-.659.458-.888 1.427-1.547 1.783-.814.99-1.548 1.804-2.059 3.001-.458.155-.612.942-1.063.942-.182 0-.33-.1-.485-.202v-.356c0-.734 1.016-3.23 1.676-3.587.175-1.318.868-2.469 1.325-3.687-.074-.127-.182-.275-.182-.43 0-.33.687-1.346 1.043-1.346.128 0 .33.155.411.229l.155-.202a.927.927 0 0 1 .511-.155c.229 0 .431.101.531.303l-.074.457c.074.128.256.283.256.404 0 .357-.585.686-.814.915-.686.613-1.325 2.086-1.702 2.954.531-.41.942-.915 1.345-1.453.33-.485.687-.942 1.117-1.373.512-.511.962-1.09 1.501-1.554.228-.202.531-.303.834-.357.182-.128.431-.33.666-.33.128 0 .276.075.33.202.356.23.484.66.484 1.07 0 1.4-1.043 2.8-1.729 3.97"/>
		<path fill="#162731" d="M159.677 25.46c.101-.66-.027-.787.282-1.453a5.75 5.75 0 0 0 .33-.714c.175-.43.404-.76.713-1.116.66-.74 2.342-2.692 3.129-3.102.208-.101.41-.182.612-.283.962-.43 1.501-1.043 2.644-1.043.357 0 .666.101.666.512 0 .201-.026.383-.053.585.027.074.027.155.027.256 0 .356-.081.733-.384.968-.054.075-.155.102-.229.155-.128.101-.437.512-.558.687-.256.302-1.756 1.6-2.113 1.783-.383.174-.74.33-1.097.531-.181.128-.376.276-.612.357a7.856 7.856 0 0 0-1.272.484c-.41.229-.659 1.016-.659 1.474 0 .255.054.713.384.713 1.399 0 5.598-3.082 6.714-4.118.532-.484 1.831-2.032 2.544-2.032.128 0 .202.101.202.229 0 .31-.915 1.117-1.144 1.373-2.14 2.085-5.215 4.447-8.014 5.517-.074.155-.484.256-.659.303-.175-.054-.33-.101-.505-.182-.659-.074-1.016-.861-1.016-1.447 0-.154.054-.302.074-.43m6.096-5.86c-.383 0-1.446.894-1.702 1.197-.155.202-.384.33-.612.458-.404.255-1.144 1.325-1.319 1.782.202-.026.41-.053.612-.1.613-.202 2.618-1.5 2.846-2.086.33-.202.539-.505.539-.888a.56.56 0 0 0-.074-.303c-.101-.027-.202-.054-.283-.054"/>
		<path fill="#162731" d="M175.064 21.06c-.256 0-.485-.074-.458-.41l-.202-.458c0-.101.027-.202.027-.33 0-.229-.074-.457-.175-.66-.181 0-.329-.073-.484-.073-.659 0-2.59 2.799-3.028 3.384-.996 1.346-2.039 3.943-2.617 5.544a1.573 1.573 0 0 1-.458.31c-.302-.081-.403-.283-.403-.559 0-1.298 1.271-3.357 1.675-4.757.128-.41.283-.787.383-1.197.075-.303.128-.66.229-.97.128-.329.202-.585.202-.961 0-.357-.047-.64-.128-1.023-.228-.027-.531-.128-.531-.404 0-.43 1.043-.76 1.399-.76.485-.33.074-.256.787-.458.074 0 .128-.026.182-.026.155 0 .155.33.155.43 0 .384.229.585.229.915 0 .585-.66 1.83-.969 2.362l1.756-2.012c.605-.733.256-.915 1.345-1.325.175.026.33.026.505.053.101-.053.202-.128.31-.128.053 0 .127.027.154.054.256 0 .485-.1.714-.1.282 0 .383.201.457.43.182.458.787 1.346.787 1.783 0 .942-1.022 1.346-1.83 1.346M182.31 19.963c0-.128.02-.256.047-.357l-.255-.074s-.074.027-.128.027c-.101 0-.229 0-.229-.128 0-.053 0-.1.027-.127-.915 0-3.183 1.271-3.331 2.24l-.054.202c.788.074 4.071.155 4.118 1.198.101.1.155.255.155.377 0 .51-.814 1.325-1.245 1.554-.202.1-.41.202-.585.33-.074.073-.155.174-.229.255-.182.202-.383.33-.558.511-.633.633-1.191 1.245-1.958 1.73-.384.255-1.016.659-1.272 1.043-.155.275-.283.585-.531.76-.202-.027-.31-.202-.411-.357l.128-.511-.074-.128c-.027-.357.303-.511.612-.585a81.09 81.09 0 0 0 2.268-1.73c.175-.148.276-.33.43-.504.303-.43.761-.713 1.043-1.17.229-.357.74-.431.969-.869v-.255c-.229-.027-.532-.027-.585-.303-.404 0-.862-.101-1.245-.101-.303 0-.585.175-.888.175a.533.533 0 0 1-.458-.229h-.027c-.329 0-1.601-.229-1.601-.64 0-.41.484-.585.639-.934l.101-.303c.202-.559 2.214-2.16 2.799-2.24.256-.155.485-.357.733-.479.283-.127.586-.154.895-.181.256-.027.505-.128.734-.229.202-.1.484-.229.713-.229.108 0 .209.027.229.128.08.027.128.027.208.027.33 0 .431-.282.606-.282.155 0 .282.053.356.181h.081c.229 0 .256.175.256.357 0 .686-.431 1.473-1.043 1.83-.249.128-.558.255-.814.403-.074.054-.155.128-.256.128-.282 0-.356-.282-.356-.511"/>
	</g>
	<defs>
		<clipPath id="a">
			<path fill="#fff" d="M0 0h184.78v40H0z"/>
		</clipPath>
	</defs>
</svg>