<svg class="iconLeft" viewBox="0 0 576 90" xmlns="http://www.w3.org/2000/svg" data-v-423bf9ae=""><g transform="matrix(6.079028013485555,0,0,6.079028013485555,125.05093911663863,-2.386019499695017)" fill="black" id="47281997-240b-463d-9354-1d140963b9a8" data-v-423bf9ae=""><path d="M10.84 2.86L10.84 9.72L10.84 9.72Q10.84 10.99 11.05 11.63L11.05 11.63L11.05 11.63Q11.27 12.26 11.86 12.38L11.86 12.38L11.86 12.73L11.86 12.73Q10.33 12.73 9.67 12.01L9.67 12.01L9.67 12.01Q9.02 11.30 9.02 9.72L9.02 9.72L9.02 4.76L5.95 12.10L5.49 12.10L1.74 4.48L1.74 12.10L1.04 12.10L1.04 2.86L2.74 2.86L6.13 9.73L9.00 2.86L10.84 2.86ZM16.42 10.63L16.42 8.88L16.21 8.88L16.21 8.88Q15.20 8.88 14.76 9.24L14.76 9.24L14.76 9.24Q14.32 9.60 14.32 10.35L14.32 10.35L14.32 10.35Q14.32 10.93 14.57 11.23L14.57 11.23L14.57 11.23Q14.81 11.54 15.23 11.54L15.23 11.54L15.23 11.54Q15.55 11.54 15.77 11.40L15.77 11.40L15.77 11.40Q15.99 11.26 16.14 11.09L16.14 11.09L16.14 11.09Q16.31 10.89 16.42 10.63L16.42 10.63ZM15.37 5.38L15.37 5.38L15.37 5.38Q16.74 5.38 17.49 6.10L17.49 6.10L17.49 6.10Q18.24 6.83 18.24 8.32L18.24 8.32L18.24 12.10L17.05 12.10L16.56 11.47L16.49 11.47L16.49 11.47Q16.34 11.69 16.10 11.86L16.10 11.86L16.10 11.86Q15.90 12.01 15.58 12.12L15.58 12.12L15.58 12.12Q15.26 12.24 14.81 12.24L14.81 12.24L14.81 12.24Q13.65 12.24 13.04 11.71L13.04 11.71L13.04 11.71Q12.43 11.19 12.43 10.35L12.43 10.35L12.43 10.35Q12.43 9.84 12.60 9.46L12.60 9.46L12.60 9.46Q12.77 9.07 13.20 8.80L13.20 8.80L13.20 8.80Q13.62 8.53 14.35 8.39L14.35 8.39L14.35 8.39Q15.08 8.25 16.21 8.25L16.21 8.25L16.42 8.25L16.42 8.25Q16.42 6.99 16.07 6.50L16.07 6.50L16.07 6.50Q15.72 6.01 15.09 6.01L15.09 6.01L15.09 6.01Q14.85 6.01 14.64 6.05L14.64 6.05L14.64 6.05Q14.42 6.10 14.24 6.24L14.24 6.24L14.24 6.24Q14.06 6.38 13.92 6.63L13.92 6.63L13.92 6.63Q13.78 6.87 13.69 7.27L13.69 7.27L12.92 7.27L12.92 7.27Q12.92 6.90 12.97 6.52L12.97 6.52L12.97 6.52Q13.02 6.15 13.27 5.87L13.27 5.87L13.27 5.87Q13.52 5.59 14.11 5.48L14.11 5.48L14.11 5.48Q14.69 5.38 15.37 5.38ZM22.97 11.12L21.63 9.35L21.63 12.10L19.81 12.10L19.81 4.68L19.81 4.68Q19.81 4.05 19.63 3.66L19.63 3.66L19.63 3.66Q19.46 3.28 18.83 3.28L18.83 3.28L18.69 3.28L18.69 2.86L20.37 2.86L20.37 2.86Q20.73 2.86 20.98 2.95L20.98 2.95L20.98 2.95Q21.22 3.04 21.37 3.25L21.37 3.25L21.37 3.25Q21.52 3.46 21.57 3.81L21.57 3.81L21.57 3.81Q21.63 4.16 21.63 4.68L21.63 4.68L21.63 8.67L23.32 6.59L23.32 6.59Q23.53 6.34 23.74 6.14L23.74 6.14L23.74 6.14Q23.94 5.94 24.17 5.80L24.17 5.80L24.17 5.80Q24.40 5.66 24.69 5.59L24.69 5.59L24.69 5.59Q24.98 5.52 25.34 5.52L25.34 5.52L25.62 5.52L25.62 5.88L25.62 5.88Q25.20 5.88 24.86 6.05L24.86 6.05L24.86 6.05Q24.53 6.22 24.22 6.58L24.22 6.58L22.86 8.23L24.72 10.70L24.72 10.70Q25.09 11.19 25.41 11.44L25.41 11.44L25.41 11.44Q25.73 11.69 26.03 11.76L26.03 11.76L26.03 12.10L26.03 12.10Q25.91 12.15 25.62 12.19L25.62 12.19L25.62 12.19Q25.33 12.24 25.06 12.24L25.06 12.24L25.06 12.24Q24.47 12.24 23.95 11.99L23.95 11.99L23.95 11.99Q23.44 11.75 22.97 11.12L22.97 11.12ZM29.53 11.61L29.53 11.61L29.53 11.61Q30.25 11.61 30.71 11.27L30.71 11.27L30.71 11.27Q31.16 10.93 31.53 10.44L31.53 10.44L31.96 10.77L31.96 10.77Q31.81 11.00 31.59 11.26L31.59 11.26L31.59 11.26Q31.37 11.52 31.06 11.74L31.06 11.74L31.06 11.74Q30.74 11.96 30.32 12.10L30.32 12.10L30.32 12.10Q29.89 12.24 29.32 12.24L29.32 12.24L29.32 12.24Q28.57 12.24 27.98 11.98L27.98 11.98L27.98 11.98Q27.38 11.72 26.96 11.26L26.96 11.26L26.96 11.26Q26.54 10.79 26.32 10.17L26.32 10.17L26.32 10.17Q26.10 9.55 26.10 8.81L26.10 8.81L26.10 8.81Q26.10 7.97 26.33 7.32L26.33 7.32L26.33 7.32Q26.57 6.68 26.98 6.25L26.98 6.25L26.98 6.25Q27.40 5.82 27.96 5.60L27.96 5.60L27.96 5.60Q28.52 5.38 29.18 5.38L29.18 5.38L29.18 5.38Q29.83 5.38 30.39 5.58L30.39 5.58L30.39 5.58Q30.95 5.78 31.37 6.15L31.37 6.15L31.37 6.15Q31.78 6.51 32.02 7.03L32.02 7.03L32.02 7.03Q32.26 7.55 32.26 8.18L32.26 8.18L32.26 8.18Q32.26 8.33 32.25 8.49L32.25 8.49L32.25 8.49Q32.24 8.65 32.23 8.78L32.23 8.78L32.23 8.78Q32.21 8.93 32.20 9.06L32.20 9.06L27.99 9.06L27.99 9.06Q27.99 10.44 28.41 11.03L28.41 11.03L28.41 11.03Q28.84 11.61 29.53 11.61ZM27.99 8.43L30.37 8.43L30.37 8.43Q30.37 7.73 30.27 7.27L30.27 7.27L30.27 7.27Q30.18 6.80 30.03 6.52L30.03 6.52L30.03 6.52Q29.88 6.24 29.66 6.13L29.66 6.13L29.66 6.13Q29.44 6.01 29.18 6.01L29.18 6.01L29.18 6.01Q28.94 6.01 28.72 6.13L28.72 6.13L28.72 6.13Q28.50 6.24 28.34 6.52L28.34 6.52L28.34 6.52Q28.18 6.80 28.08 7.27L28.08 7.27L28.08 7.27Q27.99 7.73 27.99 8.43L27.99 8.43ZM37.04 5.38L37.04 5.38L37.04 5.38Q37.66 5.38 38.04 5.66L38.04 5.66L38.04 5.66Q38.16 5.74 38.25 5.85L38.25 5.85L38.25 5.85Q38.33 5.96 38.40 6.06L38.40 6.06L38.40 6.06Q38.46 6.16 38.49 6.22L38.49 6.22L38.49 6.22Q38.51 6.29 38.51 6.29L38.51 6.29L37.80 6.83L37.80 6.83Q37.70 6.69 37.55 6.57L37.55 6.57L37.55 6.57Q37.42 6.45 37.25 6.37L37.25 6.37L37.25 6.37Q37.07 6.29 36.83 6.29L36.83 6.29L36.83 6.29Q36.39 6.29 36.08 6.41L36.08 6.41L36.08 6.41Q35.77 6.54 35.59 6.72L35.59 6.72L35.59 6.72Q35.60 6.82 35.62 6.93L35.62 6.93L35.62 6.93Q35.63 7.03 35.64 7.15L35.64 7.15L35.64 7.15Q35.64 7.27 35.64 7.39L35.64 7.39L35.64 12.10L33.82 12.10L33.82 7.34L33.82 7.34Q33.82 7.03 33.79 6.77L33.79 6.77L33.79 6.77Q33.75 6.51 33.66 6.32L33.66 6.32L33.66 6.32Q33.56 6.13 33.36 6.03L33.36 6.03L33.36 6.03Q33.17 5.94 32.86 5.94L32.86 5.94L32.72 5.94L32.72 5.52L34.10 5.52L34.10 5.52Q34.58 5.52 34.85 5.63L34.85 5.63L34.85 5.63Q35.13 5.75 35.28 6.03L35.28 6.03L35.28 6.03Q35.53 5.81 35.97 5.59L35.97 5.59L35.97 5.59Q36.41 5.38 37.04 5.38ZM41.48 11.61L41.48 11.61L41.48 11.61Q42.27 11.61 42.57 11.33L42.57 11.33L42.57 11.33Q42.88 11.06 42.88 10.65L42.88 10.65L42.88 10.65Q42.88 10.25 42.52 10.00L42.52 10.00L42.52 10.00Q42.15 9.76 41.62 9.52L41.62 9.52L40.89 9.21L40.89 9.21Q40.05 8.85 39.58 8.39L39.58 8.39L39.58 8.39Q39.10 7.92 39.10 7.24L39.10 7.24L39.10 7.24Q39.10 6.78 39.30 6.43L39.30 6.43L39.30 6.43Q39.49 6.09 39.85 5.85L39.85 5.85L39.85 5.85Q40.21 5.61 40.70 5.50L40.70 5.50L40.70 5.50Q41.19 5.38 41.76 5.38L41.76 5.38L41.76 5.38Q42.63 5.38 43.18 5.53L43.18 5.53L43.18 5.53Q43.74 5.68 44.02 5.95L44.02 5.95L44.02 5.95Q44.27 6.19 44.31 6.64L44.31 6.64L44.31 6.64Q44.35 7.08 44.35 7.62L44.35 7.62L43.86 7.62L43.86 7.62Q43.75 6.94 43.32 6.47L43.32 6.47L43.32 6.47Q42.88 6.01 42.04 6.01L42.04 6.01L42.04 6.01Q41.41 6.01 41.13 6.28L41.13 6.28L41.13 6.28Q40.85 6.55 40.85 6.96L40.85 6.96L40.85 6.96Q40.85 7.34 41.12 7.57L41.12 7.57L41.12 7.57Q41.38 7.80 41.85 7.99L41.85 7.99L42.69 8.34L42.69 8.34Q43.65 8.75 44.14 9.19L44.14 9.19L44.14 9.19Q44.63 9.63 44.63 10.37L44.63 10.37L44.63 10.37Q44.63 10.84 44.41 11.18L44.41 11.18L44.41 11.18Q44.20 11.52 43.82 11.76L43.82 11.76L43.82 11.76Q43.44 12.00 42.92 12.12L42.92 12.12L42.92 12.12Q42.39 12.24 41.76 12.24L41.76 12.24L41.76 12.24Q40.89 12.24 40.34 12.08L40.34 12.08L40.34 12.08Q39.79 11.93 39.51 11.66L39.51 11.66L39.51 11.66Q39.26 11.42 39.21 10.98L39.21 10.98L39.21 10.98Q39.17 10.53 39.17 10.00L39.17 10.00L39.66 10.00L39.66 10.00Q39.77 10.67 40.21 11.14L40.21 11.14L40.21 11.14Q40.64 11.61 41.48 11.61ZM51.84 6.99L51.84 2.86L53.66 2.86L53.66 10.28L53.66 10.28Q53.66 10.91 53.84 11.29L53.84 11.29L53.84 11.29Q54.01 11.68 54.64 11.68L54.64 11.68L54.78 11.68L54.78 12.10L53.10 12.10L53.10 12.10Q52.74 12.10 52.49 12.01L52.49 12.01L52.49 12.01Q52.25 11.93 52.10 11.72L52.10 11.72L52.10 11.72Q51.95 11.51 51.90 11.16L51.90 11.16L51.90 11.16Q51.84 10.81 51.84 10.28L51.84 10.28L51.84 7.62L48.06 7.62L48.06 12.10L46.24 12.10L46.24 4.68L46.24 4.68Q46.24 4.05 46.07 3.66L46.07 3.66L46.07 3.66Q45.89 3.28 45.26 3.28L45.26 3.28L45.12 3.28L45.12 2.86L46.80 2.86L46.80 2.86Q47.17 2.86 47.41 2.95L47.41 2.95L47.41 2.95Q47.66 3.04 47.80 3.25L47.80 3.25L47.80 3.25Q47.95 3.46 48.01 3.81L48.01 3.81L48.01 3.81Q48.06 4.16 48.06 4.68L48.06 4.68L48.06 6.99L51.84 6.99ZM60.20 8.81L60.20 8.81L60.20 8.81Q60.20 8.20 60.11 7.69L60.11 7.69L60.11 7.69Q60.02 7.18 59.84 6.80L59.84 6.80L59.84 6.80Q59.65 6.43 59.37 6.22L59.37 6.22L59.37 6.22Q59.09 6.01 58.73 6.01L58.73 6.01L58.73 6.01Q58.37 6.01 58.09 6.22L58.09 6.22L58.09 6.22Q57.81 6.43 57.62 6.80L57.62 6.80L57.62 6.80Q57.44 7.18 57.35 7.69L57.35 7.69L57.35 7.69Q57.26 8.20 57.26 8.81L57.26 8.81L57.26 8.81Q57.26 9.41 57.35 9.92L57.35 9.92L57.35 9.92Q57.44 10.43 57.62 10.81L57.62 10.81L57.62 10.81Q57.81 11.19 58.09 11.40L58.09 11.40L58.09 11.40Q58.37 11.61 58.73 11.61L58.73 11.61L58.73 11.61Q59.09 11.61 59.37 11.40L59.37 11.40L59.37 11.40Q59.65 11.19 59.84 10.81L59.84 10.81L59.84 10.81Q60.02 10.43 60.11 9.92L60.11 9.92L60.11 9.92Q60.20 9.41 60.20 8.81ZM55.37 8.81L55.37 8.81L55.37 8.81Q55.37 8.09 55.60 7.46L55.60 7.46L55.60 7.46Q55.83 6.83 56.27 6.37L56.27 6.37L56.27 6.37Q56.70 5.91 57.32 5.64L57.32 5.64L57.32 5.64Q57.95 5.38 58.73 5.38L58.73 5.38L58.73 5.38Q59.51 5.38 60.14 5.64L60.14 5.64L60.14 5.64Q60.76 5.91 61.19 6.37L61.19 6.37L61.19 6.37Q61.63 6.83 61.86 7.46L61.86 7.46L61.86 7.46Q62.09 8.09 62.09 8.81L62.09 8.81L62.09 8.81Q62.09 9.52 61.86 10.15L61.86 10.15L61.86 10.15Q61.63 10.78 61.19 11.24L61.19 11.24L61.19 11.24Q60.76 11.70 60.14 11.97L60.14 11.97L60.14 11.97Q59.51 12.24 58.73 12.24L58.73 12.24L58.73 12.24Q57.95 12.24 57.32 11.97L57.32 11.97L57.32 11.97Q56.70 11.70 56.27 11.24L56.27 11.24L56.27 11.24Q55.83 10.78 55.60 10.15L55.60 10.15L55.60 10.15Q55.37 9.52 55.37 8.81ZM65.52 11.61L65.52 11.61L65.52 11.61Q66.30 11.61 66.61 11.33L66.61 11.33L66.61 11.33Q66.92 11.06 66.92 10.65L66.92 10.65L66.92 10.65Q66.92 10.25 66.56 10.00L66.56 10.00L66.56 10.00Q66.19 9.76 65.66 9.52L65.66 9.52L64.93 9.21L64.93 9.21Q64.09 8.85 63.62 8.39L63.62 8.39L63.62 8.39Q63.14 7.92 63.14 7.24L63.14 7.24L63.14 7.24Q63.14 6.78 63.34 6.43L63.34 6.43L63.34 6.43Q63.53 6.09 63.89 5.85L63.89 5.85L63.89 5.85Q64.25 5.61 64.74 5.50L64.74 5.50L64.74 5.50Q65.23 5.38 65.80 5.38L65.80 5.38L65.80 5.38Q66.67 5.38 67.22 5.53L67.22 5.53L67.22 5.53Q67.77 5.68 68.05 5.95L68.05 5.95L68.05 5.95Q68.31 6.19 68.35 6.64L68.35 6.64L68.35 6.64Q68.39 7.08 68.39 7.62L68.39 7.62L67.90 7.62L67.90 7.62Q67.79 6.94 67.35 6.47L67.35 6.47L67.35 6.47Q66.92 6.01 66.08 6.01L66.08 6.01L66.08 6.01Q65.45 6.01 65.17 6.28L65.17 6.28L65.17 6.28Q64.89 6.55 64.89 6.96L64.89 6.96L64.89 6.96Q64.89 7.34 65.16 7.57L65.16 7.57L65.16 7.57Q65.42 7.80 65.88 7.99L65.88 7.99L66.72 8.34L66.72 8.34Q67.69 8.75 68.18 9.19L68.18 9.19L68.18 9.19Q68.67 9.63 68.67 10.37L68.67 10.37L68.67 10.37Q68.67 10.84 68.45 11.18L68.45 11.18L68.45 11.18Q68.24 11.52 67.86 11.76L67.86 11.76L67.86 11.76Q67.48 12.00 66.95 12.12L66.95 12.12L66.95 12.12Q66.43 12.24 65.80 12.24L65.80 12.24L65.80 12.24Q64.93 12.24 64.38 12.08L64.38 12.08L64.38 12.08Q63.83 11.93 63.55 11.66L63.55 11.66L63.55 11.66Q63.29 11.42 63.25 10.98L63.25 10.98L63.25 10.98Q63.21 10.53 63.21 10.00L63.21 10.00L63.70 10.00L63.70 10.00Q63.81 10.67 64.25 11.14L64.25 11.14L64.25 11.14Q64.68 11.61 65.52 11.61ZM72.10 3.42L72.10 5.52L73.64 5.52L73.64 6.15L72.10 6.15L72.10 10.28L72.10 10.28Q72.10 11.06 72.29 11.33L72.29 11.33L72.29 11.33Q72.48 11.61 72.83 11.61L72.83 11.61L72.83 11.61Q73.05 11.61 73.25 11.55L73.25 11.55L73.25 11.55Q73.46 11.49 73.61 11.42L73.61 11.42L73.61 11.42Q73.78 11.34 73.93 11.23L73.93 11.23L74.13 11.62L74.13 11.62Q73.95 11.79 73.70 11.93L73.70 11.93L73.70 11.93Q73.47 12.04 73.13 12.14L73.13 12.14L73.13 12.14Q72.79 12.24 72.31 12.24L72.31 12.24L72.31 12.24Q71.36 12.24 70.82 11.72L70.82 11.72L70.82 11.72Q70.28 11.20 70.28 10.19L70.28 10.19L70.28 6.15L69.44 6.15L69.44 5.52L70.28 5.52L70.28 4.26L70.98 3.42L72.10 3.42Z"></path></g><g fill="black" stroke="none" transform="matrix(2.1013799765127437,0,0,2.1013799765127437,-31.207269025278862,-42.027599530254875)" id="cd508cfe-fd4d-4149-b3a0-d76d8d99ae48" data-v-423bf9ae=""><path d="M37 58H27c-6.617 0-12-5.383-12-12 0-5.691 3.897-10.465 9.295-11.692C25.799 26.049 32.94 20 41.5 20c8.561 0 15.701 6.049 17.205 14.308C64.103 35.535 68 40.309 68 46h-4a7.955 7.955 0 0 0-7.257-7.961l-1.654-.152-.153-1.654C54.286 29.259 48.511 24 41.5 24c-7.01 0-12.786 5.259-13.436 12.232l-.154 1.654-1.654.152A7.956 7.956 0 0 0 19 46c0 4.411 3.589 8 8 8h10v4z"></path><path d="M49.5 62.829l-7.414-7.415 2.828-2.828 4.586 4.585 10.586-10.585 2.828 2.828z"></path></g></svg>