<svg xmlns="http://www.w3.org/2000/svg"  id="Logo" x="0px" y="0px" viewBox="0 0 587 183" style="enable-background:new 0 0 587 183;" xml:space="preserve"><style type="text/css">	.st0{fill-rule:evenodd;clip-rule:evenodd;fill:#334373;}	.st1{fill:#4D4D4D;}	.st2{fill:#334373;}</style><path class="st0" d="M165.8,91.9c3,4.4,2.1,8.5-0.1,12.2c-3.6,6-11.9,7.5-20.6,2.4c-2-1.2-3.8-2.6-5.3-4.2V73.9  c-0.5-42.2-43.1-24-43.1-24s-51,1.9-51,42.2v35.7h23.5l0-15.2c0-7.5,12.8-7.6,12.8,0l0,15.2h22.8l0-20.5c0-7.7,12.9-7.4,12.9,0  l0,20.5h22.1v-16.5c0.2,0.1,0.4,0.3,0.6,0.4c10.8,6.4,23.2,5.4,27.8-2.3C171.1,104.4,171.8,96.4,165.8,91.9z"></path><polygon class="st1" points="512.4,46.9 500.5,46.9 500.5,92.5 512.4,92.5 512.4,73.7 529.5,73.7 529.5,92.5 541.4,92.5 541.4,46.9   529.5,46.9 529.5,64.5 512.4,64.5 "></polygon><polygon class="st1" points="496.5,56.9 496.5,46.9 465.2,46.9 465.2,56.9 474.9,56.9 474.9,92.5 486.8,92.5 486.8,56.9 "></polygon><path class="st1" d="M415.9,79.2c1.3,2.9,3,5.5,5.2,7.7c2.2,2.2,4.9,3.9,8,5.1s6.5,1.8,10.2,1.8c3.7,0,7.1-0.6,10.2-1.8  s5.8-2.9,8-5.1c2.2-2.2,4-4.7,5.2-7.7c1.3-2.9,1.9-6.1,1.9-9.5c0-3.4-0.6-6.5-1.9-9.5c-1.3-2.9-3-5.5-5.2-7.7  c-2.2-2.2-4.9-3.9-8-5.1c-3.1-1.2-6.5-1.8-10.2-1.8c-3.7,0-7.1,0.6-10.2,1.8c-3.1,1.2-5.7,2.9-8,5.1c-2.2,2.2-4,4.7-5.2,7.7  c-1.3,2.9-1.9,6.1-1.9,9.5C414.1,73.1,414.7,76.2,415.9,79.2 M427.5,64.7c0.7-1.5,1.6-2.9,2.8-4c1.2-1.1,2.5-2,4.1-2.6  c1.6-0.6,3.2-0.9,4.9-0.9c1.7,0,3.4,0.3,4.9,0.9c1.6,0.6,2.9,1.5,4.1,2.6c1.2,1.1,2.1,2.5,2.8,4c0.7,1.5,1,3.2,1,5  c0,1.8-0.3,3.5-1,5c-0.7,1.5-1.6,2.9-2.8,4c-1.2,1.1-2.6,2-4.1,2.6c-1.6,0.6-3.2,0.9-4.9,0.9c-1.7,0-3.4-0.3-4.9-0.9  c-1.6-0.6-2.9-1.5-4.1-2.6c-1.2-1.1-2.1-2.5-2.8-4c-0.7-1.5-1-3.2-1-5C426.5,67.9,426.8,66.2,427.5,64.7"></path><polygon class="st1" points="365.7,92.5 369.6,66.2 379.8,92.5 384.5,92.5 395.3,66.2 399.2,92.5 411,92.5 403.3,46.9 391.6,46.9   382.5,71.2 373.3,46.9 361.6,46.9 353.9,92.5 "></polygon><polygon class="st1" points="304.3,92.5 308.2,66.2 318.4,92.5 323.1,92.5 333.9,66.2 337.8,92.5 349.6,92.5 341.9,46.9 330.2,46.9   321.1,71.2 311.9,46.9 300.2,46.9 292.5,92.5 "></polygon><path class="st1" d="M276.7,92.5h12.6L272,46.9H259l-17.4,45.6h12.6l2.7-7.9H274L276.7,92.5z M260.2,75.6l5.3-15.2l5.3,15.2H260.2z"></path><polygon class="st1" points="193.1,92.5 197.1,66.2 207.3,92.5 212,92.5 222.8,66.2 226.7,92.5 238.5,92.5 230.8,46.9 219,46.9   210,71.2 200.8,46.9 189.1,46.9 181.4,92.5 "></polygon><g>	<rect x="181.4" y="125.1" class="st2" width="116.4" height="2.7"></rect>	<rect x="425" y="125.1" class="st2" width="116.4" height="2.7"></rect></g><path class="st1" d="M414,128.8c2.7-1.1,4.1-3.1,4.1-6.2c0-4.5-3.3-6.7-7.3-6.7h-9.9v21.2h4.2v-7.6h4.3l3.8,7.6h4.9L414,128.8z   M410.7,125.4h-5.5V120h5.5c1.9,0,3,0.8,3,2.7C413.7,124.5,412.7,125.4,410.7,125.4 M392.5,132.9h-10.9v-5.1h6.1v-4.1h-6.1V120H392  v-4.1h-14.7v21.2h15.2V132.9z M361.7,133h-5.6v-5.5h5.6c2.1,0,3,0.9,3,2.7C364.7,132,363.8,133,361.7,133 M361.7,123.8h-5.6v-4h5.4  c1.8,0,2.6,0.7,2.6,2C364.1,123,363.4,123.8,361.7,123.8 M366.1,125.6c1.4-0.8,2.2-2.3,2.2-4.1c0-3.6-2.6-5.6-6.7-5.6h-9.7v21.2h9.6  c4.5,0,7.5-2.4,7.5-6.8C369.1,127.9,367.8,126.4,366.1,125.6 M341.6,115.9l-3,5c-0.8,1.3-1.9,3.4-2.3,4.1c-0.4-0.8-1.5-2.9-2.3-4.1  l-3-5h-4.9l8,12.9v8.3h4.2v-8.4l8-12.8H341.6z M314,115.6c-5.5,0-9.4,4.5-9.4,10.9c0,6.7,3.7,10.9,9.3,10.9c3.8,0,6.4-1.8,7.8-4.8  l-3.6-2.1c-1.1,1.9-2.2,2.7-4.1,2.7c-3.2,0-5-2.9-5-6.7c0-3.9,1.8-6.7,5-6.7c1.9,0,3.1,0.8,3.9,2.3l3.9-1.8  C320.5,117.5,318,115.6,314,115.6"></path></svg>