<?xml version="1.0" ?>
<svg xmlns="http://www.w3.org/2000/svg" viewBox="0 0 18 18" fill="currentColor" aria-hidden="true" focusable="false" class="">
	<path d="M9.2717 0.334534H9.61365C9.61365 1.27828 9.6211 2.22295 9.61365 3.1667C9.61365 3.31296 9.63322 3.40333 9.80746 3.39867C9.90856 3.40114 10.0091 3.41426 10.1075 3.4378C10.4867 3.5086 10.8659 3.58314 11.2461 3.65673C11.4073 3.71543 11.5703 3.77132 11.7315 3.83188L12.6568 4.18963L12.668 4.19615H12.681L12.7239 4.2241L12.736 4.23062H12.749L12.7909 4.25764L12.804 4.26416H12.818L12.859 4.29211L12.8711 4.29863H12.8851L12.927 4.32658C13.3425 4.61818 13.7907 4.87158 14.1662 5.20697C15.1651 6.09947 15.6291 7.25656 15.7269 8.57761C15.7381 8.72761 15.7828 8.76394 15.9254 8.76394C16.5059 8.75742 17.0854 8.76394 17.6659 8.76394V9.10212C17.091 9.10212 16.5161 9.10212 15.9422 9.10212C15.7828 9.10212 15.726 9.14312 15.7306 9.31081C15.7537 10.0854 15.5636 10.8514 15.1809 11.5253C14.5902 12.5939 13.6687 13.3001 12.5766 13.7808C12.0199 14.0079 11.4476 14.1947 10.8641 14.3398C10.4606 14.4516 10.0395 14.5019 9.61458 14.5811V17.5995V17.6666H9.27635V14.5158H9.05459C7.61037 14.5158 6.16615 14.5158 4.72285 14.5158C4.56632 14.5158 4.52625 14.4748 4.52625 14.3193C4.53184 12.6162 4.52625 10.9132 4.52625 9.21019V8.99871H0.333344V8.66053H4.53278V3.3819H4.72751C6.1764 3.3819 7.62528 3.3819 9.07416 3.3819C9.22511 3.3819 9.27542 3.35023 9.27356 3.18905C9.26704 2.23972 9.2717 1.28759 9.2717 0.334534ZM11.3411 9.87724C11.3244 9.94152 11.3113 9.98997 11.2983 10.0375C11.0756 10.8126 10.5995 11.311 9.77391 11.4191C9.06298 11.5123 8.05016 11.2328 7.70634 10.1782C7.46634 9.46866 7.44138 8.70408 7.6346 7.98044C7.87219 7.08514 8.39957 6.62864 9.31176 6.50846C10.2044 6.39201 10.8538 6.77398 11.1837 7.60872C11.2032 7.65996 11.2237 7.7112 11.248 7.77175L12.0549 7.58543C11.9546 7.20754 11.7701 6.85721 11.5154 6.56063C10.9563 5.93178 10.2407 5.73055 9.43009 5.75757C8.17502 5.79949 7.17338 6.54479 6.82117 7.7466C6.51897 8.74948 6.60889 9.82968 7.07275 10.7688C7.38861 11.4265 7.89735 11.8868 8.61574 12.0573C8.96053 12.1394 9.31422 12.1782 9.66862 12.1728C10.7532 12.1542 11.5321 11.6408 11.9738 10.6449C12.0521 10.4679 12.1042 10.2797 12.1732 10.0859L11.3411 9.87724Z" fill="#FEFEFE"/>
	<path d="M0.335114 8.99841H4.53268V9.21269C4.53268 10.9157 4.53268 12.6187 4.53268 14.3218C4.53268 14.4773 4.57275 14.5193 4.72928 14.5183C6.17351 14.5127 7.61773 14.5183 9.06102 14.5183H9.27533V17.6626H0.335114V8.99841Z" fill="#007EAE"/>
	<path d="M9.27194 0.334351C9.27194 1.28741 9.26728 2.23954 9.27194 3.1926C9.27194 3.35377 9.22349 3.38638 9.07254 3.38545C7.62366 3.37986 6.17477 3.38545 4.72589 3.38545H4.53115V8.66408H0.335449V0.334351H9.27194Z" fill="#CE0700"/>
	<path d="M12.681 4.19493H12.6679L12.6567 4.18841C12.612 4.14375 12.5623 4.10437 12.5086 4.07102C12.3881 4.01132 12.2636 3.96026 12.1359 3.91823C11.8396 3.82507 11.5405 3.74309 11.2432 3.65551C10.8631 3.58191 10.4839 3.50738 10.1046 3.43658C10.0063 3.41304 9.90572 3.39992 9.80461 3.39745C9.63038 3.40211 9.60988 3.31174 9.61081 3.16548C9.61081 2.22173 9.61081 1.27706 9.61081 0.333313H17.6668V8.76086C17.0863 8.76086 16.5067 8.75527 15.9263 8.76086C15.7837 8.76086 15.7399 8.72359 15.7278 8.57453C15.63 7.2572 15.1687 6.09639 14.1671 5.20389C13.7944 4.8685 13.3434 4.6151 12.9279 4.32349L12.8859 4.29555H12.8748L12.8626 4.28902L12.8216 4.26107H12.8077L12.7946 4.25455L12.7527 4.22754H12.7396L12.7275 4.22101L12.681 4.19493Z" fill="#009F4B"/>
	<path d="M9.74481 17.6626H9.64325V17.5946C9.67772 17.5527 9.73643 17.5136 9.73643 17.467C9.74388 17.3659 9.74388 17.2644 9.73643 17.1633C9.73643 16.418 9.73643 15.6727 9.73643 14.9274C9.73643 14.8156 9.75413 14.7317 9.89203 14.714C10.7221 14.611 11.5359 14.4045 12.3146 14.0991C13.2575 13.7265 14.0943 13.201 14.7633 12.4222C15.4799 11.61 15.8816 10.5678 15.8953 9.48476C15.8953 9.34594 15.9391 9.29843 16.0817 9.29843C16.4923 9.30588 16.9038 9.30588 17.3163 9.29843C17.4322 9.28662 17.547 9.2648 17.6592 9.23322C17.6592 11.9921 17.6592 14.7507 17.6592 17.5089C17.6537 17.5605 17.6427 17.6114 17.6266 17.6608C17.5694 17.6438 17.5107 17.6325 17.4514 17.6272C14.9394 17.6272 12.427 17.6272 9.91439 17.6272C9.85685 17.6335 9.80006 17.6454 9.74481 17.6626Z" fill="#D59F18"/>
	<path d="M17.6659 9.23507C17.5537 9.26666 17.4389 9.28848 17.323 9.30029C16.9111 9.30774 16.4996 9.30774 16.0884 9.30029C15.9468 9.30029 15.902 9.3478 15.902 9.48662C15.8883 10.5696 15.4866 11.6119 14.77 12.4241C14.101 13.2038 13.2642 13.7283 12.3213 14.101C11.5426 14.4063 10.7288 14.6129 9.89873 14.7159C9.76083 14.7336 9.74313 14.8174 9.74313 14.9292C9.74313 15.6745 9.74313 16.4198 9.74313 17.1651C9.75059 17.2662 9.75059 17.3677 9.74313 17.4688C9.73661 17.5154 9.6807 17.5546 9.64996 17.5965H9.61362V14.578C10.0385 14.4988 10.4597 14.4485 10.8631 14.3367C11.4466 14.1916 12.0189 14.0048 12.5757 13.7777C13.6677 13.297 14.5892 12.5908 15.1799 11.5222C15.5626 10.8484 15.7528 10.0823 15.7297 9.30774C15.7297 9.14005 15.7819 9.09719 15.9412 9.09906C16.5151 9.10744 17.09 9.09906 17.6649 9.09906L17.6659 9.23507Z" fill="#D49D0D"/>
	<path d="M11.3409 9.87699L12.173 10.0847C12.104 10.2795 12.0518 10.4676 11.9736 10.6437C11.53 11.6396 10.753 12.153 9.6684 12.1716C9.314 12.177 8.9603 12.1382 8.61551 12.0561C7.89712 11.8847 7.38838 11.4254 7.07252 10.7676C6.60789 9.82628 6.51894 8.74342 6.82374 7.73889C7.17501 6.53708 8.17665 5.79178 9.43266 5.74986C10.2433 5.72284 10.9626 5.92407 11.5179 6.55292C11.7727 6.8495 11.9571 7.19983 12.0574 7.57772L11.2505 7.76405C11.2263 7.70349 11.2058 7.65225 11.1862 7.60101C10.8564 6.76254 10.207 6.3843 9.31433 6.50075C8.40027 6.62093 7.8729 7.07743 7.63716 7.97273C7.44395 8.69637 7.46891 9.46095 7.70891 10.1705C8.04993 11.2344 9.06275 11.5139 9.77369 11.4207C10.5992 11.3126 11.0781 10.8142 11.298 10.0391C11.3111 9.98972 11.3241 9.94127 11.3409 9.87699Z" fill="#464646"/>
	<path d="M11.2457 3.65643C11.543 3.74406 11.8422 3.82702 12.1387 3.9193C12.2664 3.96135 12.391 4.01244 12.5115 4.07217C12.5652 4.10554 12.615 4.14495 12.6597 4.18962L11.7341 3.83168C11.5701 3.77109 11.4069 3.71516 11.2457 3.65643Z" fill="#00993F"/>
	<path d="M12.6809 4.19495L12.7238 4.22291L12.6809 4.19495Z" fill="#00993F"/>
	<path d="M12.7487 4.22943L12.7906 4.25646L12.7487 4.22943Z" fill="#00993F"/>
	<path d="M12.8178 4.26294L12.8588 4.2909L12.8178 4.26294Z" fill="#00993F"/>
	<path d="M12.8851 4.29651L12.9271 4.32447L12.8851 4.29651Z" fill="#00993F"/>
</svg>
