<svg viewBox="0 0 140 32" fill="none" xmlns="http://www.w3.org/2000/svg">
<g clip-path="url(#clip0_111_15374)">
<path d="M4.16258 6.79688H0.208818C0.0934909 6.79688 0 6.89037 0 7.00569V24.4785C0 24.5939 0.0934909 24.6874 0.208818 24.6874H4.16258C4.2779 24.6874 4.37139 24.5939 4.37139 24.4785V7.00569C4.37139 6.89037 4.2779 6.79688 4.16258 6.79688Z" fill="#1A1A1A"/>
<path d="M25.0964 24.6847H16.3823C16.2837 24.6847 16.2031 24.6041 16.2031 24.5055V4.32016C16.2031 4.20038 16.3187 4.11346 16.4342 4.14844L25.1484 6.75601C25.2247 6.77827 25.2766 6.84823 25.2766 6.92773V24.5045C25.2766 24.603 25.1961 24.6836 25.0975 24.6836L25.0964 24.6847Z" fill="#1A1A1A"/>
<path d="M6.56195 24.6792H14.0105C14.1091 24.6792 14.1896 24.5986 14.1896 24.5001V4.32C14.1896 4.1981 14.0709 4.11225 13.9554 4.14935L6.50683 6.73678C6.43263 6.7601 6.38281 6.83006 6.38281 6.90744V24.5001C6.38281 24.5986 6.46337 24.6792 6.56195 24.6792Z" fill="#1A1A1A"/>
<path d="M113.406 2.65315C113.406 1.16069 114.6 0 116.059 0C117.519 0 118.711 1.16069 118.711 2.65315C118.711 4.14562 117.518 5.30524 116.059 5.30524C114.601 5.30524 113.406 4.1117 113.406 2.65315ZM118.414 7.12948V24.2737C118.414 24.3289 118.369 24.3734 118.314 24.3734H113.804C113.749 24.3734 113.704 24.3289 113.704 24.2737V7.12948C113.704 7.07437 113.749 7.02985 113.804 7.02985H118.314C118.369 7.02985 118.414 7.07437 118.414 7.12948Z" fill="#1A1A1A"/>
<path d="M85.7601 7.03545H89.5654C89.6206 7.03545 89.6651 7.07997 89.6651 7.13509V24.2793C89.6651 24.3345 89.6206 24.379 89.5654 24.379H85.0223C84.9672 24.379 84.9227 24.3345 84.9227 24.2793V21.3941C84.0609 23.4504 81.7724 24.7108 78.8871 24.7108C73.6147 24.7108 70.5312 20.5991 70.5312 15.6585C70.5312 10.7179 73.7811 6.67188 79.1532 6.67188C81.341 6.67188 83.6295 7.66614 84.9227 9.59002V9.68966L85.6647 7.10859C85.6774 7.06619 85.7156 7.03651 85.7601 7.03651V7.03545ZM84.8898 15.6903C84.8898 12.9375 82.9002 10.9479 80.1146 10.9479C77.3289 10.9479 75.2736 12.9046 75.2736 15.6903C75.2736 18.4759 77.2961 20.4984 80.1146 20.4984C82.9331 20.4984 84.8898 18.4759 84.8898 15.6903Z" fill="#1A1A1A"/>
<path d="M68.3141 13.4628V24.2737C68.3141 24.3288 68.2696 24.3733 68.2145 24.3733H63.7043C63.6491 24.3733 63.6046 24.3288 63.6046 24.2737V14.6903C63.6046 11.805 62.2118 10.7111 60.4543 10.7111C58.6969 10.7111 57.1376 11.9046 57.1376 14.6903V24.2737C57.1376 24.3288 57.0931 24.3733 57.038 24.3733H52.5277C52.4726 24.3733 52.4281 24.3288 52.4281 24.2737V14.6903C52.4281 11.805 51.0024 10.7111 49.2778 10.7111C47.4536 10.7111 45.9283 11.9046 45.9283 14.6903V24.2737C45.9283 24.3288 45.8837 24.3733 45.8286 24.3733H41.3184C41.2632 24.3733 41.2187 24.3288 41.2187 24.2737V7.1294C41.2187 7.07428 41.2632 7.02976 41.3184 7.02976H44.9944C45.0368 7.02976 45.075 7.05626 45.0887 7.09654L45.8615 9.35007C46.8557 7.75797 48.4807 6.66406 50.9017 6.66406C53.0895 6.66406 54.9466 7.62547 56.0416 9.35007C57.2023 7.75797 59.0255 6.66406 61.7115 6.66406C65.6578 6.66406 68.3099 9.21758 68.3099 13.4618L68.3141 13.4628Z" fill="#1A1A1A"/>
<path d="M111.523 15.7565C111.523 20.8964 108.273 24.7431 102.901 24.7431C100.713 24.7431 98.4246 23.7488 97.1314 21.8249V31.9054C97.1314 31.9605 97.0869 32.0051 97.0317 32.0051H92.5215C92.4664 32.0051 92.4218 31.9605 92.4218 31.9054V7.13454C92.4218 7.07942 92.4664 7.0349 92.5215 7.0349H96.2272C96.2717 7.0349 96.3109 7.06458 96.3226 7.10698L97.1314 9.95305V10.0527C97.9931 7.99737 100.282 6.70312 103.167 6.70312C108.439 6.70312 111.523 10.8487 111.523 15.7554V15.7565ZM106.78 15.7236C106.78 12.9051 104.758 10.9484 101.939 10.9484C99.121 10.9484 97.1642 12.938 97.1642 15.7236C97.1642 18.5093 99.1538 20.4989 101.939 20.4989C104.725 20.4989 106.78 18.5093 106.78 15.7236Z" fill="#1A1A1A"/>
<path d="M135.894 7.03545H139.603C139.658 7.03545 139.703 7.07997 139.703 7.13509V31.906C139.703 31.9611 139.658 32.0056 139.603 32.0056H135.093C135.038 32.0056 134.993 31.9611 134.993 31.906V21.3941C134.131 23.4504 131.843 24.7108 128.957 24.7108C123.685 24.7108 120.602 20.5991 120.602 15.6585C120.602 10.7179 123.851 6.67188 129.223 6.67188C131.411 6.67188 133.7 7.66614 134.993 9.59002L135.8 7.10541C135.813 7.06407 135.851 7.03651 135.894 7.03651V7.03545ZM134.96 15.6903C134.96 12.9375 132.971 10.9479 130.185 10.9479C127.399 10.9479 125.344 12.9046 125.344 15.6903C125.344 18.4759 127.366 20.4984 130.185 20.4984C133.003 20.4984 134.96 18.4759 134.96 15.6903Z" fill="#1A1A1A"/>
</g>
<defs>
<clipPath id="clip0_111_15374">
<rect width="139.703" height="32" fill="white"/>
</clipPath>
</defs>
</svg>