<svg viewBox="0 0 548 62" fill="none" xmlns="http://www.w3.org/2000/svg">
<g clip-path="url(#clip0_3948_11573)">
<path d="M154.014 20.5179C154.014 18.7994 153.323 17.1437 152.087 15.9701C150.873 14.7964 149.281 14.1886 147.606 14.2305C145.072 14.3144 143.272 14.5449 141.91 14.9641C140.822 15.2994 139.795 15.7605 138.916 16.3054C138.56 16.515 138.225 16.7245 137.89 16.976C136.696 15.3204 134.77 14.2515 132.592 14.2515C128.99 14.2515 126.059 17.1856 126.059 20.7904V54.4487C126.059 56.2302 126.75 57.9278 128.027 59.1852C129.305 60.4427 130.98 61.1553 132.76 61.1553C136.445 61.1553 139.46 58.1373 139.46 54.4487V34.2034C139.46 31.7513 140.068 29.9071 141.24 28.7125C142.036 27.8951 142.999 27.3711 144.151 27.0777C144.821 26.9101 145.994 26.8262 147.648 26.8262C151.124 26.8053 153.951 23.976 153.951 20.5389L154.014 20.5179Z" fill="#522CAC"/>
<path d="M169.698 28.3141C171.143 27.4129 172.692 26.9937 174.535 26.9937C175.603 26.9937 176.629 27.1614 177.55 27.4967C178.744 27.9368 179.875 28.6494 180.775 29.5715C183.455 32.2751 187.036 33.1553 189.884 31.835C191.601 31.0386 192.899 29.5296 193.36 27.7692C193.8 26.1554 193.507 24.5207 192.543 23.1584C190.701 20.5177 188.125 18.2962 185.11 16.7453C184.46 16.41 183.811 16.1166 183.141 15.8441C180.461 14.7333 177.571 14.1675 174.535 14.1675C170.117 14.1675 166.096 15.2154 162.599 17.2483C159.102 19.2393 156.296 22.0686 154.307 25.6105C152.297 29.2153 151.312 33.0925 151.312 37.5146C151.312 41.9367 152.318 45.9606 154.328 49.5235C156.359 53.0234 159.123 55.8527 162.578 57.9904C166.096 60.0443 170.117 61.0713 174.535 61.0713H177.048V60.9246C179.205 60.694 181.278 60.1701 183.225 59.3737C183.811 59.1222 184.377 58.8707 184.921 58.5773C188.02 56.9845 190.659 54.742 192.543 52.0594C193.507 50.6971 193.8 49.0414 193.381 47.4277C192.92 45.6672 191.622 44.1373 189.905 43.3409C187.015 41.9786 183.351 42.9008 180.775 45.6462C180.105 46.3798 179.33 46.9456 178.514 47.3648C177.362 47.9307 176.084 48.2031 174.577 48.2031C172.755 48.2031 171.185 47.763 169.761 46.9037C168.358 46.0235 167.269 44.787 166.431 43.2151C165.594 41.5595 165.154 39.6523 165.154 37.5565C165.154 35.4607 165.573 33.5535 166.431 31.9607C167.269 30.326 168.358 29.1314 169.761 28.2721L169.698 28.3141Z" fill="#522CAC"/>
<path d="M231.722 17.2693C228.204 15.2154 224.226 14.1885 219.828 14.1885C215.431 14.1885 211.494 15.2364 207.976 17.2483C204.458 19.2393 201.589 22.0267 199.495 25.5477C197.38 29.0476 196.313 33.1135 196.313 37.5984C196.313 42.0834 197.38 46.0864 199.495 49.6283C201.568 53.1492 204.416 55.9576 207.976 58.0324C211.578 60.0653 215.577 61.0923 219.828 61.0923H220.896V61.0503C224.791 60.9036 228.372 59.8977 231.617 58.0743C235.135 56.0414 237.983 53.233 240.077 49.6912C242.192 46.1493 243.26 42.0625 243.26 37.5984C243.26 33.1344 242.192 29.0267 240.098 25.5896C238.025 22.0477 235.198 19.2393 231.701 17.2693H231.722ZM229.544 37.6404C229.544 39.7571 229.105 41.5805 228.183 43.299C227.367 44.8708 226.257 46.0864 224.791 46.9876C223.388 47.8678 221.713 48.3079 219.807 48.3079C217.902 48.3079 216.289 47.8678 214.824 46.9876C213.379 46.0864 212.206 44.8289 211.368 43.299C210.531 41.6433 210.091 39.7362 210.091 37.6404C210.091 35.5446 210.51 33.6374 211.327 32.1075C212.206 30.5147 213.337 29.2782 214.803 28.377C216.31 27.4758 217.923 27.0357 219.807 27.0357C221.692 27.0357 223.367 27.4758 224.791 28.356C226.215 29.2362 227.325 30.4518 228.204 32.1075C229.105 33.7422 229.523 35.5446 229.523 37.6404H229.544Z" fill="#522CAC"/>
<path d="M303.148 16.4729C300.552 14.964 297.599 14.2095 294.396 14.2095C290.773 14.2095 287.464 15.1316 284.575 16.9759C283.57 17.6256 282.648 18.422 281.79 19.3442C281.036 18.5478 280.198 17.8561 279.277 17.2484C276.366 15.2364 273.016 14.2095 269.33 14.2095C265.98 14.2095 262.965 15.0268 260.347 16.6615C260.096 16.8292 259.824 16.9969 259.572 17.1855C258.4 15.4041 256.389 14.2095 254.107 14.2095C250.505 14.2095 247.595 17.1436 247.595 20.7274V54.4067C247.595 58.0953 250.61 61.1133 254.295 61.1133C257.981 61.1133 260.996 58.0953 260.996 54.4067V34.0776C260.996 32.5057 261.268 31.1435 261.771 30.1165C262.274 29.1315 262.965 28.398 263.907 27.8321C264.786 27.2872 265.812 27.0147 267.048 27.0147C268.283 27.0147 269.351 27.2872 270.252 27.874C271.11 28.3561 271.738 29.0686 272.262 30.1375C272.806 31.1644 273.079 32.4848 273.079 34.0776V54.4277C273.079 58.1163 276.073 61.1133 279.758 61.1133C283.444 61.1133 286.438 58.1163 286.438 54.4277V34.0776C286.438 32.5267 286.711 31.1854 287.276 30.1165C287.779 29.1315 288.47 28.377 289.412 27.8321C290.291 27.2872 291.317 27.0147 292.553 27.0147C293.788 27.0147 294.731 27.2662 295.673 27.874C296.531 28.3561 297.16 29.0686 297.683 30.1375C298.228 31.1644 298.5 32.4848 298.5 34.0776V54.4067C298.5 58.0953 301.515 61.1133 305.201 61.1133C308.886 61.1133 311.901 58.0953 311.901 54.4067V31.7722C311.901 28.398 311.106 25.3591 309.535 22.7184C307.965 20.0777 305.829 17.9819 303.211 16.4729H303.148Z" fill="#522CAC"/>
<path d="M113.6 14.2095C111.129 14.2095 108.972 15.5508 107.82 17.5208C107.234 17.1226 106.606 16.7663 105.956 16.431C103.13 14.964 99.8838 14.2304 96.345 14.2304C92.0942 14.2304 88.2203 15.2783 84.828 17.3322C81.3938 19.3651 78.6507 22.1944 76.7242 25.7363C74.7349 29.2782 73.7298 33.2812 73.7298 37.6404C73.7298 41.9996 74.7349 46.0026 76.7242 49.5235C78.6088 52.9606 81.2263 55.769 84.472 57.8438L84.7652 58.0324C88.1784 60.0863 92.0732 61.1342 96.3659 61.1342C99.842 61.1342 103.088 60.4007 106.019 58.9336C106.731 58.5773 107.401 58.1791 108.05 57.739C109.16 59.7929 111.317 61.1761 113.809 61.1761C117.411 61.1761 120.342 58.242 120.342 54.6373V20.916C120.342 17.2274 117.327 14.2095 113.641 14.2095H113.6ZM106.878 37.6404C106.878 39.7991 106.459 41.6434 105.642 43.2362C104.763 44.829 103.632 46.0445 102.166 46.9667C100.659 47.8679 99.0672 48.287 97.1826 48.287C95.298 48.287 93.6228 47.8469 92.1989 46.9667C90.754 46.0864 89.6442 44.8709 88.7856 43.2362C87.9062 41.6014 87.4664 39.7152 87.4664 37.6194C87.4664 35.5237 87.9062 33.6794 88.8066 32.0446C89.6442 30.4518 90.754 29.2572 92.2198 28.3351C93.6228 27.4549 95.298 27.0147 97.2035 27.0147C99.1091 27.0147 100.721 27.4549 102.187 28.3351C103.632 29.2363 104.805 30.4938 105.663 32.0237C106.522 33.6794 106.941 35.5237 106.941 37.6194L106.878 37.6404Z" fill="#522CAC"/>
<path d="M43.932 11.4009L12.7314 57.8856C12.2288 58.682 11.5797 59.3736 10.8049 59.9185C10.0301 60.4634 9.1716 60.8197 8.27118 61.0083C7.37076 61.1969 6.42846 61.1969 5.5071 61.0083C4.60668 60.8197 3.74814 60.4215 2.97336 59.8766C2.21952 59.3317 1.57038 58.64 1.06782 57.8227C0.565258 57.0053 0.230218 56.1041 0.083638 55.161C-0.0629421 54.2179 -0.042002 53.2539 0.188338 52.3108C0.397738 51.3886 0.795598 50.5084 1.36098 49.7329L32.5406 3.24832C33.0432 2.45192 33.6923 1.76031 34.4671 1.21541C35.2419 0.670502 36.1004 0.314218 37.0009 0.125597C37.9013 -0.0630244 38.8436 -0.0630244 39.7649 0.125597C40.6654 0.314218 41.5239 0.712418 42.2987 1.25732C43.0525 1.80223 43.7017 2.49384 44.2042 3.3112C44.7068 4.12856 45.0418 5.02974 45.1884 5.97285C45.335 6.91596 45.3141 7.88002 45.0837 8.82312C44.8743 9.74527 44.4764 10.6255 43.9111 11.4009H43.932ZM61.9614 0.146555C60.8515 0.146555 59.7417 0.419007 58.7575 0.963913C57.7734 1.50882 56.9148 2.2633 56.2866 3.22737L25.1069 49.712C24.5625 50.4874 24.1646 51.3677 23.9343 52.2898C23.7249 53.2119 23.683 54.197 23.8296 55.1401C23.9762 56.0832 24.3112 56.9844 24.8138 57.8017C25.3163 58.6191 25.9655 59.3107 26.7193 59.8556C27.4732 60.4005 28.3526 60.7777 29.2531 60.9873C30.1535 61.1759 31.0958 61.1969 32.0171 60.9873C32.9176 60.7987 33.797 60.4215 34.5509 59.8975C35.3047 59.3736 35.9748 58.661 36.4774 57.8646L55.0302 30.2421V54.0084C55.0302 55.8946 55.7631 57.7179 57.0614 59.0592C58.3597 60.4005 60.1186 61.155 61.9614 61.155C63.8041 61.155 65.563 60.4005 66.8613 59.0592C68.1596 57.7179 68.8925 55.8946 68.8925 54.0084V7.2932C68.8925 5.40699 68.1596 3.58365 66.8613 2.24234C65.563 0.901039 63.8041 0.146555 61.9614 0.146555Z" fill="#522CAC"/>
<path d="M362.932 36.6344C365.424 35.2512 367.518 33.365 369.13 31.0177C371.35 27.874 372.481 24.0806 372.481 19.7843C372.481 15.7184 371.518 12.1556 369.675 9.22148C367.853 6.18258 365.277 3.87721 362.032 2.32633C358.87 0.775442 355.205 0 351.122 0H335.208C331.522 0 328.507 3.01794 328.507 6.70653V54.239C328.507 58.0324 331.585 61.1132 335.375 61.1342C337.197 61.0504 338.956 60.4216 340.254 59.1222C341.552 57.8228 342.264 56.0833 342.264 54.239V39.5056H349.049L358.807 57.5294C360.001 59.751 362.304 61.1132 364.838 61.1132C367.371 61.1132 369.507 59.8558 370.743 57.739C371.978 55.6223 372.02 53.0864 370.827 50.9277L362.932 36.6134V36.6344ZM358.702 19.6795C358.702 21.1675 358.409 22.383 357.781 23.4519C357.216 24.4369 356.42 25.1914 355.352 25.7573C354.242 26.3441 352.86 26.6584 351.269 26.6584H342.285V12.7634H351.269C352.881 12.7634 354.242 13.0568 355.415 13.6855C356.441 14.2095 357.216 14.943 357.823 16.0118C358.43 16.9969 358.723 18.2124 358.723 19.6795H358.702Z" fill="#9C79FF"/>
<path d="M408.916 17.2693C405.398 15.2154 401.42 14.1885 397.022 14.1885C392.625 14.1885 388.709 15.2364 385.17 17.2483C381.653 19.2393 378.784 22.0267 376.69 25.5477C374.575 29.0476 373.507 33.1135 373.507 37.5984C373.507 42.0834 374.575 46.0864 376.69 49.6283C378.763 53.1492 381.611 55.9576 385.17 58.0324C388.772 60.0653 392.772 61.0923 397.022 61.0923H398.09V61.0503C401.985 60.9036 405.566 59.8977 408.812 58.0743C412.33 56.0414 415.177 53.233 417.271 49.6912C419.386 46.1493 420.454 42.0625 420.454 37.5984C420.454 33.1344 419.386 29.0267 417.292 25.5896C415.219 22.0477 412.392 19.2393 408.895 17.2693H408.916ZM406.739 37.6404C406.739 39.7571 406.299 41.5805 405.378 43.299C404.561 44.8708 403.451 46.0864 401.985 46.9876C400.582 47.8678 398.907 48.3079 397.002 48.3079C395.096 48.3079 393.484 47.8678 392.018 46.9876C390.573 46.0864 389.4 44.8289 388.563 43.299C387.725 41.6433 387.285 39.7362 387.285 37.6404C387.285 35.5446 387.704 33.6374 388.521 32.1075C389.4 30.5147 390.531 29.2782 391.976 28.377C393.505 27.4548 395.096 27.0357 396.981 27.0357C398.865 27.0357 400.561 27.4758 401.964 28.356C403.388 29.2362 404.498 30.4518 405.378 32.1075C406.257 33.7422 406.697 35.5446 406.697 37.6404H406.739Z" fill="#9C79FF"/>
<path d="M459.11 17.3112C455.696 15.2574 451.823 14.2095 447.572 14.2095C444.033 14.2095 440.787 14.943 437.939 16.431C437.625 16.5987 437.311 16.7663 437.018 16.9549V6.70653C437.018 3.01794 434.003 0 430.317 0C426.632 0 423.616 3.01794 423.616 6.70653V54.3438C423.616 57.9486 426.548 60.8827 430.15 60.8827C432.558 60.8827 434.652 59.5833 435.782 57.6342C436.453 58.1163 437.165 58.5354 437.939 58.9127C440.85 60.3587 444.096 61.1132 447.593 61.1132C451.885 61.1132 455.78 60.0653 459.235 57.9905C462.607 55.8738 465.287 53.0235 467.213 49.5235C469.203 45.9816 470.208 41.9787 470.208 37.6194C470.208 33.2602 469.203 29.2572 467.213 25.7363C465.266 22.1944 462.544 19.3651 459.11 17.3112ZM456.492 37.6404C456.492 39.7362 456.052 41.5805 455.152 43.2781C454.314 44.8709 453.205 46.0655 451.739 46.9876C450.336 47.8678 448.661 48.308 446.755 48.308C444.85 48.308 443.237 47.8678 441.771 46.9876C440.326 46.0864 439.154 44.8289 438.316 43.299C437.479 41.6433 437.039 39.7362 437.039 37.6404C437.039 35.5446 437.458 33.6374 438.274 32.1075C439.154 30.5147 440.285 29.2782 441.729 28.377C443.258 27.4548 444.849 27.0357 446.734 27.0357C448.619 27.0357 450.315 27.4758 451.718 28.356C453.163 29.2363 454.273 30.4518 455.131 32.0865C456.031 33.7213 456.45 35.5236 456.45 37.6194L456.492 37.6404Z" fill="#9C79FF"/>
<path d="M508.779 17.2693C505.261 15.2154 501.283 14.1885 496.906 14.1885C492.53 14.1885 488.572 15.2364 485.054 17.2483C481.536 19.2393 478.668 22.0267 476.574 25.5686C474.459 29.0686 473.391 33.1344 473.391 37.6194C473.391 42.1044 474.459 46.1074 476.574 49.6492C478.647 53.1702 481.495 55.9785 485.054 58.0534C488.656 60.0863 492.656 61.1132 496.906 61.1132H497.974V61.0713C501.869 60.9246 505.45 59.9186 508.696 58.0953C512.213 56.0624 515.061 53.254 517.155 49.7121C519.27 46.1702 520.338 42.1044 520.338 37.6194C520.338 33.1344 519.27 29.0476 517.176 25.6105C515.103 22.0686 512.276 19.2603 508.779 17.2902V17.2693ZM506.602 37.6404C506.602 39.7362 506.162 41.5805 505.24 43.299C504.424 44.8708 503.314 46.0864 501.848 46.9876C500.445 47.8678 498.77 48.3079 496.864 48.3079C494.959 48.3079 493.347 47.8678 491.881 46.9876C490.436 46.0864 489.263 44.8289 488.426 43.299C487.588 41.6433 487.148 39.7362 487.148 37.6404C487.148 35.5446 487.567 33.6374 488.384 32.1075C489.263 30.5147 490.415 29.2782 491.839 28.377C493.368 27.4548 494.959 27.0357 496.844 27.0357C498.728 27.0357 500.403 27.4758 501.827 28.356C503.251 29.2362 504.361 30.4518 505.24 32.1075C506.141 33.7422 506.56 35.5446 506.56 37.6404H506.602Z" fill="#9C79FF"/>
<path d="M546.011 49.2512C544.712 48.1194 542.953 47.5955 541.174 47.847C539.75 48.0356 539.205 47.8889 539.08 47.847C538.556 47.5536 538.179 47.1973 538.012 46.7991C537.718 46.1284 537.551 45.2692 537.551 44.2632V27.7274H540.147C543.184 27.7274 545.99 25.6735 546.576 22.6766C547.351 18.6526 544.294 15.1317 540.399 15.1317H537.572V12.9311C537.572 9.76649 535.52 6.85334 532.442 6.14077C531.918 6.01502 531.395 5.95215 530.871 5.95215C530.368 5.95215 529.845 6.01502 529.301 6.14077C526.222 6.8743 524.17 9.78744 524.17 12.9311V42.7961V44.6195C524.17 49.5655 525.594 53.5266 528.379 56.3769C531.185 59.2271 535.059 60.6942 539.938 60.6942H539.98C541.006 60.6942 542.095 60.4008 543.142 60.1074C545.969 59.311 548 56.6074 548 53.7152C548 51.9757 547.288 50.3829 546.011 49.2721V49.2512Z" fill="#9C79FF"/>
</g>
<defs>
<clipPath id="clip0_3948_11573">
<rect width="548" height="61.218" fill="white"/>
</clipPath>
</defs>
</svg>
