<svg xmlns="http://www.w3.org/2000/svg" id="Layer_1" x="0" y="0" style="enable-background:new 0 0 318.5 42.3" version="1.1" viewBox="0 0 318.5 42.3" xml:space="preserve"><style>.st0{fill:#0087ee}.st1{fill:#ff681d}</style><path d="M48.1 1.8v40H35.6v-20l-6.2 20H18.7l-6.2-20v20H0v-40h15.4l8.8 24 8.6-24h15.3zM70.7 10.8c1.5.8 2.7 2 3.5 3.5V10h12.5v31.9H74.2v-4.4c-.8 1.5-1.9 2.6-3.5 3.5-1.5.8-3.3 1.3-5.4 1.3-2.5 0-4.7-.7-6.7-2s-3.6-3.2-4.7-5.7c-1.2-2.5-1.7-5.4-1.7-8.7 0-3.4.6-6.3 1.7-8.7 1.1-2.5 2.7-4.4 4.7-5.7 2-1.3 4.2-2 6.7-2 2.1.1 3.9.5 5.4 1.3zm-4.5 11.1c-.9.9-1.3 2.3-1.3 4s.4 3 1.3 4c.9.9 2 1.4 3.3 1.4 1.4 0 2.5-.5 3.3-1.4.9-.9 1.3-2.3 1.3-4s-.4-3-1.3-4c-.9-.9-2-1.4-3.3-1.4-1.3 0-2.4.5-3.3 1.4zM108.9 11.4c1.8-1.1 3.8-1.7 5.8-1.7v13.4h-3.6c-2.4 0-4.1.4-5.2 1.2-1.1.8-1.7 2.3-1.7 4.4v13.1H91.7V10h12.6v5.9c1.2-1.9 2.8-3.4 4.6-4.5zM137.8 41.9l-7.9-12.7v12.7h-12.6V0h12.6v21.9l8-11.9h14.6l-11.9 16 12.2 15.8h-15z" class="st0"/><path d="M183.5 28.1h-20.1c.1 1.6.5 2.7 1.1 3.3.6.6 1.4.9 2.4.9 1.4 0 2.3-.6 2.9-1.9h13.3c-.5 2.3-1.4 4.3-2.9 6.1-1.5 1.8-3.3 3.2-5.5 4.2s-4.6 1.6-7.3 1.6c-3.2 0-6-.7-8.5-2s-4.4-3.2-5.8-5.7c-1.4-2.5-2.1-5.4-2.1-8.7 0-3.3.7-6.2 2.1-8.7 1.4-2.5 3.3-4.4 5.8-5.7 2.5-1.3 5.3-2 8.5-2s6 .7 8.5 2 4.4 3.2 5.8 5.6c1.4 2.4 2.1 5.3 2.1 8.5 0 .8-.1 1.6-.3 2.5zM171.1 23c0-1.2-.3-2.1-1-2.7-.7-.6-1.5-.9-2.5-.9-2.3 0-3.6 1.2-4 3.6h7.5zM206.7 31.2v10.7H202c-8.7 0-13.1-4.4-13.1-13.1v-8.4h-4V10h4V2.3h12.6V10h5.2v10.5h-5.2V29c0 .8.2 1.3.5 1.6.4.3 1 .5 1.8.5h2.9z" class="st0"/><path d="M244.1 24.8c1.3 1.8 2 3.8 2 6.1 0 3.5-1.2 6.2-3.5 8.1-2.3 1.9-5.6 2.9-10 2.9h-21v-40H232c4.1 0 7.3.9 9.6 2.7 2.3 1.8 3.5 4.4 3.5 7.7 0 2.3-.6 4.3-1.8 5.9-1.2 1.6-2.9 2.7-4.9 3.2 2.5.5 4.4 1.7 5.7 3.4zm-19.8-7.4h4.9c1.1 0 2-.2 2.5-.7.5-.5.8-1.2.8-2.1 0-1-.3-1.7-.8-2.2-.5-.5-1.4-.7-2.5-.7h-4.9v5.7zm8.2 13.7c.5-.4.8-1.1.8-2.1 0-1.9-1.1-2.9-3.3-2.9h-5.7v5.7h5.7c1.1 0 1.9-.2 2.5-.7zM304.5 41.9l-5.4-7.2-4 7.2h-13.8L292 25.1 280.7 10h14l5.4 7.2 4.1-7.2H318l-11 16.4 11.5 15.5h-14z" class="st1"/><path d="M273.9 11.5c-2.6-1.3-5.5-2-8.7-2-3.2 0-6.1.7-8.7 2-2.6 1.3-4.6 3.2-6 5.7-1.5 2.5-2.2 5.4-2.2 8.7 0 3.3.7 6.2 2.2 8.7 1.5 2.5 3.5 4.4 6 5.7 2.6 1.3 5.4 2 8.7 2 3.2 0 6.1-.7 8.7-2 2.6-1.3 4.6-3.2 6-5.7 1.5-2.5 2.2-5.4 2.2-8.7 0-3.3-.7-6.2-2.2-8.7-1.5-2.4-3.5-4.3-6-5.7zm-2.5 20.6h-12.3V19.8h12.3v12.3z" class="st1"/></svg>