<?xml version="1.0" ?>
<svg xmlns="http://www.w3.org/2000/svg" fill="none" viewBox="0 0 200 50">
	<g clip-path="url(#clip0_401_4)">
		<path fill="#E1DCB1" d="M151.982 21.064a127.01 127.01 0 0 1 5.397-1.654v.274s.015.948.015 1.428c-.015-.048-.015 15.949-.015 15.949v1.791h-5.397V21.064Z"/>
		<path fill="#1E234E" d="M105.386 15.218c1.824-.565 3.534-1.108 5.399-1.692v5.883s4.751-.015 5.81 0v2.733c0 2.27.025.906.025 2.585h-5.809v.423s-.266 3.777.962 5.676c.755 1.17 1.338 2.08 2.715 2.441.708.131 1.421.225 2.139.28 0 .611.023 4.709-.015 5.318h-1.572a9.197 9.197 0 0 1-4.882-1.714c-2.241-1.59-3.795-3.623-4.345-6.41a20.662 20.662 0 0 1-.427-4.074V15.218Z"/>
		<path fill="#E1DCB1" d="M160.647 12.692a125.627 125.627 0 0 1 5.4-1.678v.271s.015.96.015 1.45c-.015-.051-.015 16.183-.015 16.183v9.943h-5.4V12.692Z"/>
		<path fill="#1E234E" d="M97.026 32.343a4.524 4.524 0 0 1-5.297.617 4.463 4.463 0 0 1-1.404-1.252h13.168a9.68 9.68 0 0 0-.636-6.882 9.836 9.836 0 0 0-5.079-4.744 9.976 9.976 0 0 0-6.981-.234 9.854 9.854 0 0 0-5.392 4.393 9.682 9.682 0 0 0-1.106 6.823 9.76 9.76 0 0 0 3.734 5.841 9.953 9.953 0 0 0 6.705 1.937 9.92 9.92 0 0 0 6.323-2.937l-4.035-3.562Zm-3.062-7.616c.67 0 1.332.148 1.936.434a4.47 4.47 0 0 1 1.556 1.218H90.47c.42-.516.953-.933 1.558-1.219a4.517 4.517 0 0 1 1.936-.433ZM47.568 19.409v1.11a9.922 9.922 0 0 0-9.682.253 9.78 9.78 0 0 0-3.495 3.55 9.65 9.65 0 0 0 0 9.582 9.78 9.78 0 0 0 3.495 3.55 9.922 9.922 0 0 0 9.683.252v1.15h5.396V19.41h-5.397Zm-4.623 14.114a4.49 4.49 0 0 1-2.47-.751 4.42 4.42 0 0 1-1.635-1.982 4.365 4.365 0 0 1-.246-2.547c.174-.854.6-1.638 1.224-2.252a4.47 4.47 0 0 1 2.283-1.202 4.5 4.5 0 0 1 2.572.255c.813.334 1.508.9 1.997 1.625.488.724.749 1.576.749 2.448a4.393 4.393 0 0 1-1.315 3.12 4.489 4.489 0 0 1-3.159 1.286Z"/>
		<path fill="#E1DCB1" d="M144.174 19.409v1.11a9.922 9.922 0 0 0-9.683.253 9.772 9.772 0 0 0-3.494 3.55 9.648 9.648 0 0 0 0 9.582 9.772 9.772 0 0 0 3.494 3.55 9.922 9.922 0 0 0 9.683.252v1.15h5.399V19.41h-5.399Zm-4.623 14.114a4.489 4.489 0 0 1-2.471-.752 4.426 4.426 0 0 1-1.633-1.983 4.37 4.37 0 0 1 .98-4.798 4.47 4.47 0 0 1 2.282-1.2 4.5 4.5 0 0 1 2.572.254c.813.335 1.508.9 1.997 1.625.488.725.749 1.576.748 2.448a4.382 4.382 0 0 1-1.314 3.12 4.473 4.473 0 0 1-3.161 1.286ZM195.61 28.457a4.449 4.449 0 0 1 1.482-2.649A4.59 4.59 0 0 1 200 24.723V19.4c-5.437.02-9.804 3.937-9.804 9.732v9.73c1.189 0 4.213.015 5.399 0V28.646c0-.064.007-.127.015-.188Z"/>
		<path fill="#1E234E" d="M61.369 28.457a4.411 4.411 0 0 1 1.498-2.666 4.5 4.5 0 0 1 2.885-1.072V19.4c-5.437.02-9.804 3.937-9.804 9.732V38.853c1.187 0 4.21.015 5.397 0V28.645"/>
		<path fill="#E1DCB1" d="M118.461 15.218c1.824-.565 3.535-1.108 5.399-1.692v5.883s4.751-.015 5.81 0c0 .56 0 .298-.013 2.733 0 2.27.026.906.026 2.585h-5.81v.423s-.263 3.777.962 5.676c.755 1.17 1.341 2.08 2.718 2.441.707.131 1.421.225 2.138.28 0 .611.026 4.709-.013 5.318h-1.563a9.204 9.204 0 0 1-4.884-1.714c-2.238-1.59-3.795-3.623-4.345-6.41a20.712 20.712 0 0 1-.425-4.087V15.218Z"/>
		<path fill="#1E234E" d="M5.401 28.981c.015-.423.105-2.722 1.841-3.78a3.665 3.665 0 0 1 1.936-.503c2.313 0 3.581 1.745 3.73 3.964v10.177c1.19 0 4.213.011 5.4 0V28.798c.118-2.294 1.403-4.1 3.77-4.092 2.42 0 3.695 1.904 3.746 4.273h-.013v9.875h5.397v-.95s0-8.462.017-8.438v-.36c0-5.352-3.688-9.701-9.128-9.72a8.848 8.848 0 0 0-3.526.665 8.77 8.77 0 0 0-2.962 2.009 8.758 8.758 0 0 0-2.927-1.994 8.835 8.835 0 0 0-3.487-.678 9.158 9.158 0 0 0-3.792.778v-.785l-3.767 1.126-1.636.53v17.8h5.4v-9.634a2.708 2.708 0 0 1 .001-.222ZM87.486 19.396h-2.414c-1.138-.027-4.972 0-4.972 0l-6.677 6.996V11h-.011l-1.636.537-3.753 1.143v26.168c1.341 0 4.012.013 5.4 0v-4.76l2.138-2.238s-.039.04.748 1.233c1.037 1.568 2.053 3.146 3.112 4.699-.026-.055.686 1.058.686 1.058s3.849.027 5.397 0h1.137c-2.352-3.514-4.96-7.405-7.27-10.878.017-.038 8.115-8.566 8.115-8.566Z"/>
		<path fill="#E1DCB1" d="m187.025 24.79-4.61 2.884c.318.886.343 1.85.071 2.75a4.43 4.43 0 0 1-1.584 2.262 4.51 4.51 0 0 1-5.287.091 4.437 4.437 0 0 1-1.663-2.206 4.388 4.388 0 0 1-.025-2.751 4.43 4.43 0 0 1 1.622-2.236 4.507 4.507 0 0 1 3.169-.827l2.499-4.872a9.934 9.934 0 0 0-6.074.028 9.83 9.83 0 0 0-4.9 3.553 9.658 9.658 0 0 0-1.855 5.723 9.66 9.66 0 0 0 1.896 5.71 9.83 9.83 0 0 0 4.925 3.518 9.937 9.937 0 0 0 6.075-.014 9.831 9.831 0 0 0 4.907-3.542 9.66 9.66 0 0 0 1.869-5.719 9.547 9.547 0 0 0-1.035-4.351Z"/>
		<path fill="#E1DCB1" d="M189.587 21.618s-.701-1.284-2.425-2.79c-.91-.816-1.932-1.501-3.036-2.034h-.011l-3.37 6.668a6.272 6.272 0 0 1 2.483 2.194l6.365-4.03-.006-.008Z"/>
	</g>
	<defs>
		<clipPath id="clip0_401_4">
			<path fill="#fff" d="M0 11h200v27.861H0z"/>
		</clipPath>
	</defs>
</svg>