<?xml version="1.0" ?>
<svg xmlns="http://www.w3.org/2000/svg" viewBox="0 0 138 66">
	<g fill="none" fill-rule="evenodd" stroke="none" stroke-width="1">
		<path fill="#E8002C" fill-rule="nonzero" d="M6 36.47V5.53h9.036l7.361 11.978L29.758 5.53h9.036v30.94h-8.507V18.702l-7.89 12.11h-.176L14.375 18.79v17.68H6zm35.873 0L55.008 5.31h8.243l13.135 31.16h-9.168l-2.248-5.525H53.069l-2.204 5.525h-8.992zm13.708-12.2h6.92l-3.437-8.795-3.483 8.796zM91.146 37c-5.466 0-10.667-1.724-14.458-5.127l4.76-5.702c3.042 2.431 6.436 3.713 10.007 3.713 2.292 0 3.526-.796 3.526-2.122v-.088c0-1.282-1.014-1.989-5.201-2.961-6.568-1.503-11.637-3.36-11.637-9.724v-.088C78.143 9.155 82.683 5 90.088 5c5.245 0 9.345 1.414 12.695 4.11l-4.276 6.056c-2.82-1.99-5.906-3.05-8.64-3.05-2.07 0-3.085.884-3.085 1.989v.088c0 1.415 1.058 2.034 5.334 3.006 7.096 1.547 11.504 3.845 11.504 9.635v.089c0 6.32-4.98 10.077-12.474 10.077zm28.38 0c-5.466 0-10.667-1.724-14.458-5.127l4.76-5.702c3.042 2.431 6.436 3.713 10.006 3.713 2.293 0 3.527-.796 3.527-2.122v-.088c0-1.282-1.014-1.989-5.201-2.961-6.568-1.503-11.637-3.36-11.637-9.724v-.088c0-5.746 4.54-9.901 11.945-9.901 5.245 0 9.345 1.414 12.695 4.11l-4.276 6.056c-2.821-1.99-5.906-3.05-8.64-3.05-2.071 0-3.085.884-3.085 1.989v.088c0 1.415 1.058 2.034 5.334 3.006C127.592 18.746 132 21.044 132 26.834v.089C132 33.243 127.02 37 119.526 37z"/>
		<path fill="#4F4F4F" fill-rule="nonzero" d="M50.858 58H47.2l-1.454-3.563h-6.725L37.567 58H34l6.816-16h3.226l6.816 16zm-6.362-6.65L42.383 46.2l-2.112 5.151h4.225zM63.976 58h-3.5V42.113h3.5V58zm22.41 0H74.956V42.113h3.5v12.71h7.928V58zm21.75 0h-12.11V42.113h11.997v3.11h-8.52v3.222H107v3.11h-7.497v3.336h8.633V58zM132 58h-4.09l-3.407-5.084h-2.75V58h-3.498V42.113h7.27c1.893 0 3.366.462 4.419 1.385 1.053.923 1.579 2.209 1.579 3.858v.045c0 1.286-.314 2.334-.943 3.144s-1.45 1.403-2.465 1.781L132 58zm-4.021-10.417v-.045c0-.757-.243-1.324-.727-1.703-.485-.378-1.16-.567-2.022-.567h-3.476v4.562h3.544c.863 0 1.526-.204 1.988-.613.462-.408.693-.953.693-1.634z"/>
		<g transform="translate(6 42)">
			<rect width="22" height="16" x="0" y="0" fill="#DCDDE2" rx="2"/>
			<path fill="#E8002C" fill-rule="nonzero" d="M2.098 3.744a1.1 1.1 0 1 1 1.69-1.41C7.431 6.702 9.995 8.94 10.966 8.94c.969 0 3.515-2.235 7.128-6.601A1.1 1.1 0 1 1 19.79 3.74c-4.11 4.967-6.88 7.399-8.823 7.399-1.94 0-4.726-2.43-8.869-7.395z"/>
			<path fill="#E8002C" fill-rule="nonzero" d="M2.165 8.778A1.1 1.1 0 0 1 3.72 7.222l4.04 4.039a1.1 1.1 0 1 1-1.556 1.556l-4.04-4.04z" transform="matrix(1 0 0 -1 0 20.039)"/>
			<path fill="#E8002C" fill-rule="nonzero" d="M14.165 8.778a1.1 1.1 0 0 1 1.555-1.556l4.04 4.039a1.1 1.1 0 1 1-1.556 1.556l-4.04-4.04z" transform="rotate(180 16.962 10.02)"/>
		</g>
	</g>
</svg>