<?xml version="1.0" ?>
<svg xmlns="http://www.w3.org/2000/svg" viewBox="0 0 640 384">
	<g fill="none">
		<path fill="#FF0080" d="M228.332 125.76h33.015l57.777 129.72H286.11z"/>
		<path fill="#FF0080" d="M228.332 125.76h33.015L203.57 255.48h-33.016z"/>
		<path fill="#FF9500" d="M112.777 125.76h33.016l57.777 129.72h-33.016z"/>
		<path fill="#FF9500" d="M112.777 125.76h33.016L88.016 255.48H55z"/>
		<path fill="#82CF17" d="M354.891 255.48h33.016l57.777-129.72h-33.016z"/>
		<path fill="#82CF17" d="M354.891 255.48h33.016L330.13 125.76h-33.016z"/>
		<path d="M517.218 261c-37.988 0-68.783-30.892-68.783-69 0-38.108 30.795-69 68.783-69C555.205 123 586 153.892 586 192c0 38.108-30.795 69-68.782 69zm0-33.12c19.753 0 35.766-16.064 35.766-35.88 0-19.816-16.013-35.88-35.766-35.88-19.754 0-35.767 16.064-35.767 35.88 0 19.816 16.013 35.88 35.767 35.88z" fill="#25AFF4"/>
		<ellipse fill="#FF0080" cx="244.839" cy="222.36" rx="13.756" ry="13.8"/>
	</g>
</svg>