<?xml version="1.0" ?>
<svg xmlns="http://www.w3.org/2000/svg" viewBox="0 0 47.418 45.324">
	<g id="Group_2138" data-name="Group 2138" transform="translate(-756.244 -468.531)">
		<path id="Path_1478" data-name="Path 1478" d="M811.557,497.924v12.265a5,5,0,1,1-9.993,0v-17.26h5a4.987,4.987,0,0,1,3.577,1.515c.029.03.059.061.087.093a4.953,4.953,0,0,1,1.332,3.388" transform="translate(-26.637 -14.34)" fill="#de7e3a"/>
		<path id="Path_1479" data-name="Path 1479" d="M801.565,490.53v.006l.006-.006Z" transform="translate(-26.638 -12.93)" fill="#de7e3a"/>
		<path id="Path_1480" data-name="Path 1480" d="M766.237,522.334v15.211a5,5,0,1,1-9.993,0V517.337h5a4.969,4.969,0,0,1,3.6,1.532l.036.039a4.969,4.969,0,0,1,1.366,3.426" transform="translate(0 -28.686)" fill="#de7e3a"/>
		<path id="Path_1481" data-name="Path 1481" d="M857.023,473.528v35.318a5,5,0,1,1-9.993,0V468.531h5a5,5,0,0,1,5,5" transform="translate(-53.361)" fill="#de7e3a"/>
		<g id="Group_2131" data-name="Group 2131" transform="translate(764.87 478.588)" opacity="0.3">
			<g id="Group_2130" data-name="Group 2130" transform="translate(0)">
				<path id="Path_1482" data-name="Path 1482" d="M787.226,492.926v15.32L778.535,518.3V507.986a4.955,4.955,0,0,0-1.366-3.424Z" transform="translate(-777.169 -492.926)" fill="#de7e3a"/>
			</g>
		</g>
		<g id="Group_2133" data-name="Group 2133" transform="translate(783.589 468.532)" opacity="0.3">
			<g id="Group_2132" data-name="Group 2132">
				<path id="Path_1483" data-name="Path 1483" d="M832.657,468.534v15.319l-8.694,10.055-.057-.562v-9.762a4.964,4.964,0,0,0-1.33-3.389Z" transform="translate(-822.577 -468.534)" fill="#de7e3a"/>
			</g>
		</g>
	</g>
</svg>
