<?xml version="1.0" ?>
<svg xmlns="http://www.w3.org/2000/svg" data-name="Layer 1" viewBox="0 0 1308.74 351.7">
	<path d="M2246.13,562.22v-198h56l29.85,81q2.74,8.22,5.18,17.06t5.17,17.66h1.22q2.74-8.82,5.18-17.66t5.18-17.06l28.63-81h56v198h-47.52V503.73q0-7.61.76-16.75t1.68-18.73q.92-9.6,2.13-18.74t2.13-16.45h-1.22l-16.45,47.52-24.36,65.49h-28l-24.37-65.49-15.84-47.52h-1.21q.91,7.32,2.13,16.45t2.13,18.74q.92,9.58,1.68,18.73t.76,16.75v58.49Z" transform="translate(-2246.13 -364.22)" style="fill:#222"/>
	<path d="M2477.68,562.22v-198h127.93v43.87h-75.54v31.07h64.58V483h-64.58v35.33h78.59v43.87Z" transform="translate(-2246.13 -364.22)" style="fill:#222"/>
	<path d="M2628,562.22l60.31-198h63.36l60.32,198h-55.44l-9.75-42H2691.4l-9.75,42ZM2704.19,466l-3.35,13.71h36.56L2734.05,466q-3.66-14.31-7.32-31.07t-7.31-31.68h-1.21q-3.36,15.24-6.86,31.83T2704.19,466Z" transform="translate(-2246.13 -364.22)" style="fill:#222"/>
	<path d="M3118.28,565.87q-41.73,0-62-24.21T3036,466.57V364.22h52.39V472.66q0,26.5,7.16,37.32t22.69,10.81q15.54,0,23-10.81t7.46-37.32V364.22h50.57V466.57q0,50.88-19.8,75.09T3118.28,565.87Z" transform="translate(-2246.13 -364.22)" style="fill:#222"/>
	<path d="M3238.35,562.22v-198h74.93a146.89,146.89,0,0,1,30.31,3,70.68,70.68,0,0,1,25.28,10.35,52.27,52.27,0,0,1,17.21,19.65q6.4,12.35,6.4,30.92,0,21.33-8.68,35.33a61.27,61.27,0,0,1-23.3,21.94l42.95,76.76H3345l-34.12-66.41h-20.1v66.41Zm52.39-107.83h18.89q31.66,0,31.67-26.2,0-12.79-8.07-17.67t-23.6-4.87h-18.89Z" transform="translate(-2246.13 -364.22)" style="fill:#222"/>
	<path d="M3423,562.22v-198H3550.9v43.87h-75.54v31.07h64.57V483h-64.57v35.33H3554v43.87Z" transform="translate(-2246.13 -364.22)" style="fill:#222"/>
	<polygon points="595.11 167.75 676.14 45.3 595.11 45.3 595.11 167.75" style="fill:#408b87"/>
	<polygon points="746.21 155.57 664.58 155.57 746.21 33.12 746.21 155.57" style="fill:#408b87"/>
	<path d="M2688.35,364.22" transform="translate(-2246.13 -364.22)" style="fill:#222"/>
	<rect x="595.11" y="192.53" width="151.1" height="5.47" style="fill:#222"/>
	<rect x="595.11" width="151.1" height="5.47" style="fill:#222"/>
	<path d="M2846.9,713.79V601.23h7.85V707h51.92v6.83Z" transform="translate(-2246.13 -364.22)" style="fill:#222"/>
	<path d="M2924.43,713.87V601.23h69.65v6.84h-61.79v42.56h53.08v6.83h-53.08V707h63.5v6.84Z" transform="translate(-2246.13 -364.22)" style="fill:#222"/>
	<path d="M3013.55,713.87l39.65-112.64h7.86l39.66,112.64h-8.21l-13.16-38.63h-44.61l-13.33,38.63Zm30.76-66.32-7.18,21h40l-7.18-21q-3.42-10.08-6.49-19.31t-6-19.66h-.69q-2.91,10.42-6,19.66T3044.31,647.55Z" transform="translate(-2246.13 -364.22)" style="fill:#222"/>
	<path d="M3118.47,713.87V601.23h32.31a66.08,66.08,0,0,1,15.21,1.62,31.07,31.07,0,0,1,11.62,5.22,24.2,24.2,0,0,1,7.44,9.23A32.08,32.08,0,0,1,3187.7,631q0,13.5-7.78,21.2t-21.11,9.4l31.11,52.3h-9.06l-30.59-51.79h-23.93v51.79Zm7.87-58.29h22.39q15,0,23-6.06t8-18.55q0-12.65-8-17.86t-22.9-5.21h-22.39Z" transform="translate(-2246.13 -364.22)" style="fill:#222"/>
	<path d="M3225.43,713.87V601.23h8.21l47.51,79.48,12.65,22.39h.68q-.33-8.21-.68-16.41t-.34-16.41v-69H3301V713.87h-8.2l-47.52-79.48L3232.61,612h-.68q.33,8.21.68,16t.34,16v69.91Z" transform="translate(-2246.13 -364.22)" style="fill:#222"/>
	<path d="M3336.49,713.87V601.23h7.86V713.87Z" transform="translate(-2246.13 -364.22)" style="fill:#222"/>
	<path d="M3379.86,713.87V601.23h8.21l47.52,79.48,12.64,22.39h.69l-.69-16.41q-.34-8.21-.34-16.41v-69h7.52V713.87h-8.2l-47.52-79.48L3387,612h-.68q.34,8.21.68,16t.34,16v69.91Z" transform="translate(-2246.13 -364.22)" style="fill:#222"/>
	<path d="M3521.54,715.92a46.87,46.87,0,0,1-19.83-4.1,43.14,43.14,0,0,1-15.21-11.71,54.85,54.85,0,0,1-9.83-18.46,78.91,78.91,0,0,1-3.5-24.36,75.78,75.78,0,0,1,3.59-24.1,54.34,54.34,0,0,1,10.08-18.37,42.81,42.81,0,0,1,15.73-11.62,50.37,50.37,0,0,1,20.34-4,41.8,41.8,0,0,1,10.34,1.2,38.7,38.7,0,0,1,8.46,3.16,41.44,41.44,0,0,1,6.75,4.36,48.32,48.32,0,0,1,5.21,4.78l-4.61,5.3a42.49,42.49,0,0,0-10.6-8.2q-6.15-3.42-15.38-3.42a40.67,40.67,0,0,0-17.44,3.59,36.78,36.78,0,0,0-13.07,10.17,46.55,46.55,0,0,0-8.29,16,71.57,71.57,0,0,0-2.91,21.19,76.45,76.45,0,0,0,2.74,21.28,47,47,0,0,0,7.95,16.16,35.86,35.86,0,0,0,12.81,10.34,39,39,0,0,0,17.18,3.67,46,46,0,0,0,14.45-2.22,27,27,0,0,0,10.85-6.32v-35h-27v-6.67h34.53V703.1a39.92,39.92,0,0,1-13.76,9.23A49.8,49.8,0,0,1,3521.54,715.92Z" transform="translate(-2246.13 -364.22)" style="fill:#222"/>
</svg>