<?xml version="1.0" encoding="UTF-8"?>
<!-- Generator: Adobe Illustrator 18.1.1, SVG Export Plug-In . SVG Version: 6.00 Build 0)  -->
<svg version="1.1" id="Слой_1" xmlns="http://www.w3.org/2000/svg" xmlns:xlink="http://www.w3.org/1999/xlink" x="0px" y="0px" viewBox="0 0 1612.4 290" enable-background="new 0 0 1612.4 290" xml:space="preserve">
<g>
	<g>
		<defs>
			<rect id="SVGID_1_" x="38" y="47.8" width="169.2" height="194.4"/>
		</defs>
		<clipPath id="SVGID_2_">
			<use xlink:href="#SVGID_1_" overflow="visible"/>
		</clipPath>
		<path clip-path="url(#SVGID_2_)" fill-rule="evenodd" clip-rule="evenodd" fill="#C30B55" d="M120.4,48c-1.8,0.3-3.6,1.1-5.1,2.1    c-0.4,0.3-1.4,1.2-2.3,2c-2.1,2-3.3,3-5.2,4.4C96.7,65.2,83.9,70.4,70,72c-5.1,0.6-11.5,0.6-16.6,0c-4.2-0.5-7,0.1-9.9,2    c-2.5,1.6-4.3,4.3-5.2,7.3L38,82.4v40.8c0,32.7,0,41.1,0.1,42.6c1.2,14.1,6.3,26.7,15.3,37.5c1.5,1.9,6.1,6.4,7.9,7.9    c4.1,3.4,8.6,6.4,13.1,8.6c6.1,3,46.7,22.2,47.1,22.3c0.6,0.2,1.9,0.1,2.4-0.2c1.1-0.5,46.5-22.1,47.9-22.9    c15.5-8.1,27.2-22.4,32.3-39.3c1.6-5.4,2.5-10.5,2.8-16.8c0.1-2.8,0.1-80.5,0-79.4l-0.1,0.7l0-0.7c0-1.5-0.5-3.3-1.3-4.8    c-1.8-3.6-5.3-6.2-9.2-6.8c-1-0.2-3.1-0.2-4.4,0c-5.5,0.7-12.3,0.7-18.1,0c-5-0.6-9.5-1.7-14.3-3.3c-10.4-3.5-19.6-9-28.1-16.9    c-1.9-1.8-3.2-2.6-5-3.2C124.7,47.9,122.3,47.6,120.4,48 M121,56.6c-0.5,0.2-1,0.6-2.4,1.9c-4.1,3.7-7.9,6.7-12.1,9.4    C95.7,74.8,83.6,79,70.9,80.4c-5.7,0.6-12.7,0.6-18.2,0c-2-0.2-2.9-0.2-3.7,0.1c-0.9,0.3-1.8,1.2-2.3,2.2l-0.3,0.7l0,40    c0,27,0.1,40.6,0.1,41.7c0.8,10.8,4.7,21.3,11.1,30c1.8,2.4,3.3,4.1,5.6,6.4c4,4,7.8,6.8,12.6,9.5c0.9,0.5,11.8,5.7,24.2,11.6    l22.5,10.7L140,225c7.3-3.5,14.7-7,22-10.5c6.3-3,8.3-4.1,11.1-5.9c13.1-8.7,22.1-22.7,24.7-38.1c0.8-4.7,0.7-2.5,0.8-31.9    c0-14.6,0-33.1-0.1-40.9l-0.1-14.3l-0.3-0.6c-0.6-1.3-1.9-2.2-3.4-2.3c-0.4,0-1.8,0.1-3,0.2c-14.3,1.5-28.9-0.8-42-6.6    c-8-3.5-15.7-8.5-22.2-14.3c-2.7-2.4-3-2.7-3.7-2.9C123.1,56.3,121.8,56.3,121,56.6 M38,122.3c0,21.6,0,30.5,0,19.6    c0-10.8,0-28.5,0-39.3C38.1,91.9,38,100.7,38,122.3 M100.7,107.1c-7,0.6-13.2,3.6-17.8,8.5c-4,4.3-6.5,9.4-7.4,15.4    c-0.3,1.8-0.3,5.3,0,7.1c0.7,5.2,2.7,9.8,5.9,13.8c0.5,0.7,8.6,8.8,19.9,20.1c18.5,18.4,19.1,19,19.7,19.3    c1.3,0.5,2.8,0.3,3.9-0.5c0.2-0.2,9-8.9,19.5-19.3c20.4-20.5,19.9-19.9,21.6-22.8c2-3.4,3.3-7.1,3.7-11.3c0.2-1.7,0.1-5.6-0.2-7.3    c-0.5-2.9-1.2-5.1-2.5-7.7c-2.6-5.2-6.5-9.3-11.5-12.1c-8.8-4.8-19.8-4.4-28.3,1.1c-1.4,0.9-3.2,2.3-4,3.2l-0.6,0.6l-1-0.9    c-1.6-1.4-2.1-1.8-3.6-2.8c-3.4-2.3-7.5-3.8-11.7-4.4C105.3,107.1,101.5,107,100.7,107.1 M100.6,115.6    c-7.6,0.9-13.8,6.1-16.1,13.4c-0.6,2.1-0.7,2.9-0.7,5.6c0,2.2,0,2.6,0.3,3.7c0.4,1.7,0.9,3.3,1.7,4.9c1.4,2.7,0.6,1.9,19.5,20.8    l17.3,17.3l16.7-16.7c9.2-9.2,17.1-17.1,17.5-17.6c5.2-6.1,6.1-14.9,2.1-21.8c-1-1.7-1.7-2.6-3.3-4.2c-2.6-2.6-5.3-4.1-8.8-5    c-4.6-1.1-9.1-0.6-13.3,1.6c-2.1,1.1-3.2,1.9-6,4.7c-3.1,3-3.2,3.1-5.1,3.1c-1.8,0-1.9-0.1-5.2-3.3c-2.7-2.7-3.7-3.4-5.5-4.4    c-1.7-0.9-3.7-1.6-5.9-2C104.8,115.5,101.8,115.4,100.6,115.6"/>
	</g>
	<path fill="#003049" d="M349.1,186.5L349.1,186.5v-29.7l0,0c0-4.8-1.7-8.9-5.1-12.3l0,0l0,0c-3.4-3.4-7.5-5.1-12.3-5.1l0,0l0,0   c-4.8,0-8.9,1.7-12.3,5.1l0,0l0,0c-3.4,3.4-5.1,7.5-5.1,12.3l0,0v29.7l0,0c0,1.3-0.5,2.5-1.4,3.5l0,0l0,0c-1,1-2.1,1.5-3.5,1.5l0,0   l0,0c-1.4,0-2.6-0.5-3.5-1.5l0,0l0,0c-1-1-1.4-2.2-1.4-3.5l0,0v-29.7l0,0c0-4.8-1.7-8.9-5.1-12.3l0,0l0,0   c-3.4-3.4-7.5-5.1-12.3-5.1l0,0l0,0c-4.8,0-8.9,1.7-12.3,5.1l0,0l0,0c-3.4,3.4-5.1,7.5-5.1,12.3l0,0v29.7l0,0   c0,1.3-0.5,2.5-1.4,3.5l0,0l0,0c-1,1-2.1,1.5-3.5,1.5l0,0l0,0c-1.4,0-2.6-0.5-3.5-1.5l0,0l0,0c-1-1-1.4-2.2-1.4-3.5l0,0v-52l0,0   c0-1.3,0.5-2.5,1.4-3.5l0,0l0,0c1-1,2.1-1.5,3.5-1.5l0,0l0,0c1.4,0,2.6,0.5,3.5,1.5l0,0l0,0c1,1,1.4,2.2,1.4,3.5l0,0v1.2l0,0   c5-4.1,10.8-6.2,17.3-6.2l0,0l0,0c4.5,0,8.7,1.1,12.6,3.2l0,0l0,0c3.9,2.1,7.1,4.9,9.7,8.5l0,0l0,0c2.6-3.6,5.8-6.4,9.7-8.5l0,0   l0,0c3.9-2.1,8.1-3.2,12.6-3.2l0,0l0,0c7.5,0,13.9,2.7,19.2,8l0,0l0,0c5.3,5.3,8,11.7,8,19.2l0,0v29.7l0,0c0,1.3-0.5,2.5-1.4,3.5   l0,0l0,0c-1,1-2.1,1.5-3.5,1.5l0,0l0,0c-1.4,0-2.6-0.5-3.5-1.5l0,0l0,0C349.6,188.9,349.1,187.8,349.1,186.5L349.1,186.5z    M432.3,165.4L432.3,165.4h-46.4l0,0c1.2,4.7,3.6,8.6,7.4,11.6l0,0l0,0c3.8,3,8.1,4.5,13.1,4.5l0,0l0,0c5.8,0,10.7-2.1,14.8-6.2   l0,0l0,0c1-0.9,2.2-1.4,3.5-1.4l0,0l0,0c1.4,0,2.5,0.5,3.5,1.4l0,0l0,0c0.9,1,1.4,2.2,1.4,3.5l0,0l0,0c0,1.4-0.5,2.5-1.4,3.5l0,0   l0,0c-6.2,6-13.5,9-21.9,9l0,0l0,0c-8.5,0-15.8-3-21.8-9l0,0l0,0c-6.1-6-9.1-13.3-9.1-21.9l0,0l0,0c0-8.6,3-15.9,9.1-21.9l0,0l0,0   c6.1-6,13.3-9,21.8-9l0,0l0,0c8.5,0,15.8,3,21.8,9l0,0l0,0c6.1,6,9.1,13.3,9.1,21.9l0,0l0,0c0,1.3-0.5,2.5-1.4,3.5l0,0l0,0   C434.9,164.9,433.7,165.4,432.3,165.4L432.3,165.4z M385.1,155.5L385.1,155.5H426l0,0c-1.2-4.7-3.6-8.6-7.4-11.6l0,0l0,0   c-3.8-3-8.1-4.5-13.1-4.5l0,0l0,0c-4.9,0-9.3,1.5-13.1,4.5l0,0l0,0C388.7,147,386.3,150.8,385.1,155.5L385.1,155.5z M513.1,103.5   v56.9v26l0,0c0,1.3-0.5,2.5-1.4,3.5l0,0l0,0c-1,1-2.1,1.5-3.5,1.5l0,0l0,0c-1.4,0-2.6-0.5-3.5-1.5l0,0l0,0c-1-1-1.4-2.2-1.4-3.5   l0,0v-3.3l0,0c-5.9,5.5-12.9,8.3-21,8.3l0,0l0,0c-8.5,0-15.8-3-21.8-9l0,0l0,0c-6.1-6-9.1-13.3-9.1-21.9l0,0l0,0   c0-8.6,3-15.9,9.1-21.9l0,0l0,0c6.1-6,13.3-9,21.8-9l0,0l0,0c8.1,0,15.1,2.8,21,8.3l0,0v-34.3l0,0c0-1.3,0.5-2.5,1.4-3.5l0,0l0,0   c1-1,2.1-1.5,3.5-1.5l0,0l0,0c1.4,0,2.6,0.5,3.5,1.5l0,0l0,0C512.6,101.1,513.1,102.2,513.1,103.5L513.1,103.5L513.1,103.5z    M466.5,175.3L466.5,175.3L466.5,175.3c4.1,4.1,9.1,6.2,14.9,6.2l0,0l0,0c5.9,0,10.8-2.1,14.9-6.2l0,0l0,0   c4.1-4.1,6.1-9.1,6.1-14.8l0,0l0,0c0-5.8-2-10.7-6.1-14.8l0,0l0,0c-4.1-4.1-9.1-6.2-14.9-6.2l0,0l0,0c-5.9,0-10.8,2.1-14.9,6.2l0,0   l0,0c-4.1,4.1-6.1,9.1-6.1,14.8l0,0l0,0C460.3,166.2,462.4,171.2,466.5,175.3L466.5,175.3z M545,106.4L545,106.4L545,106.4   c1.1,1.1,1.6,2.4,1.6,4l0,0l0,0c0,1.6-0.5,2.9-1.6,4l0,0l0,0c-1.1,1.1-2.4,1.6-4,1.6l0,0l0,0c-1.6,0-2.9-0.5-4-1.6l0,0l0,0   c-1.1-1.1-1.6-2.4-1.6-4l0,0l0,0c0-1.6,0.5-2.9,1.6-4l0,0l0,0c1.1-1.1,2.4-1.6,4-1.6l0,0l0,0C542.6,104.8,543.9,105.3,545,106.4   L545,106.4z M536.1,186.5L536.1,186.5v-52l0,0c0-1.3,0.5-2.5,1.5-3.5l0,0l0,0c1-1,2.2-1.5,3.5-1.5l0,0l0,0c1.3,0,2.5,0.5,3.5,1.5   l0,0l0,0c1,1,1.5,2.2,1.5,3.5l0,0v52l0,0c0,1.3-0.5,2.5-1.5,3.5l0,0l0,0c-1,1-2.2,1.5-3.5,1.5l0,0l0,0c-1.3,0-2.5-0.5-3.5-1.5l0,0   l0,0C536.6,188.9,536.1,187.8,536.1,186.5L536.1,186.5z M615.7,182.4L615.7,182.4L615.7,182.4c-6.2,6-13.5,9-21.9,9l0,0l0,0   c-8.5,0-15.8-3-21.8-9l0,0l0,0c-6.1-6-9.1-13.3-9.1-21.9l0,0l0,0c0-8.6,3-15.9,9.1-21.9l0,0l0,0c6.1-6,13.3-9,21.8-9l0,0l0,0   c8.4,0,15.7,3,21.9,9l0,0l0,0c0.9,1,1.4,2.2,1.4,3.5l0,0l0,0c0,1.4-0.5,2.5-1.4,3.5l0,0l0,0c-1,0.9-2.2,1.4-3.5,1.4l0,0l0,0   c-1.4,0-2.5-0.5-3.5-1.4l0,0l0,0c-4.1-4.1-9.1-6.2-14.8-6.2l0,0l0,0c-5.9,0-10.8,2.1-14.9,6.2l0,0l0,0c-4.1,4.1-6.1,9.1-6.1,14.8   l0,0l0,0c0,5.8,2,10.7,6.1,14.8l0,0l0,0c4.1,4.1,9.1,6.2,14.9,6.2l0,0l0,0c5.8,0,10.7-2.1,14.8-6.2l0,0l0,0c1-0.9,2.2-1.4,3.5-1.4   l0,0l0,0c1.4,0,2.5,0.5,3.5,1.4l0,0l0,0c0.9,1,1.4,2.2,1.4,3.5l0,0l0,0C617.1,180.2,616.6,181.4,615.7,182.4L615.7,182.4z    M683.1,186.5L683.1,186.5v-3.3l0,0c-5.9,5.5-13,8.3-21,8.3l0,0l0,0c-8.5,0-15.8-3-21.8-9l0,0l0,0c-6.1-6-9.1-13.3-9.1-21.9l0,0   l0,0c0-8.6,3-15.9,9.1-21.9l0,0l0,0c6.1-6,13.3-9,21.8-9l0,0l0,0c8.5,0,15.8,3,21.8,9l0,0l0,0c6.1,6,9.1,13.3,9.1,21.9l0,0v26l0,0   c0,1.3-0.5,2.5-1.4,3.5l0,0l0,0c-1,1-2.1,1.5-3.5,1.5l0,0l0,0c-1.4,0-2.6-0.5-3.5-1.5l0,0l0,0C683.6,188.9,683.1,187.8,683.1,186.5   L683.1,186.5z M647.2,175.3L647.2,175.3L647.2,175.3c4.1,4.1,9.1,6.2,14.9,6.2l0,0l0,0c5.9,0,10.8-2.1,14.9-6.2l0,0l0,0   c4.1-4.1,6.1-9.1,6.1-14.8l0,0l0,0c0-5.8-2-10.7-6.1-14.8l0,0l0,0c-4.1-4.1-9-6.2-14.9-6.2l0,0l0,0c-5.9,0-10.8,2.1-14.9,6.2l0,0   l0,0c-4.1,4.1-6.1,9.1-6.1,14.8l0,0l0,0C641.1,166.2,643.1,171.2,647.2,175.3L647.2,175.3z M723.8,103.5L723.8,103.5v82.9l0,0   c0,1.3-0.5,2.5-1.4,3.5l0,0l0,0c-1,1-2.1,1.5-3.5,1.5l0,0l0,0c-1.4,0-2.6-0.5-3.5-1.5l0,0l0,0c-1-1-1.4-2.2-1.4-3.5l0,0v-82.9l0,0   c0-1.3,0.5-2.5,1.4-3.5l0,0l0,0c0.9-1,2.1-1.5,3.5-1.5l0,0l0,0c1.4,0,2.6,0.5,3.5,1.5l0,0l0,0C723.3,101.1,723.8,102.2,723.8,103.5   L723.8,103.5z M746.9,186.5L746.9,186.5v-52l0,0c0-1.3,0.5-2.5,1.4-3.5l0,0l0,0c0.9-1,2.1-1.5,3.5-1.5l0,0l0,0   c1.4,0,2.6,0.5,3.5,1.5l0,0l0,0c1,1,1.4,2.2,1.4,3.5l0,0v3.3l0,0c5.9-5.5,12.9-8.3,21-8.3l0,0l0,0c1.4,0,2.6,0.5,3.5,1.5l0,0l0,0   c1,1,1.4,2.2,1.4,3.5l0,0l0,0c0,1.3-0.5,2.5-1.4,3.5l0,0l0,0c-1,1-2.1,1.5-3.5,1.5l0,0l0,0c-5.9,0-10.8,2.1-14.9,6.2l0,0l0,0   c-4.1,4.1-6.1,9.1-6.1,14.8l0,0v26l0,0c0,1.3-0.5,2.5-1.4,3.5l0,0l0,0c-1,1-2.1,1.5-3.5,1.5l0,0l0,0c-1.4,0-2.6-0.5-3.5-1.5l0,0   l0,0C747.4,188.9,746.9,187.8,746.9,186.5L746.9,186.5z M846.8,165.4L846.8,165.4h-46.4l0,0c1.2,4.7,3.6,8.6,7.4,11.6l0,0l0,0   c3.8,3,8.1,4.5,13.1,4.5l0,0l0,0c5.8,0,10.7-2.1,14.8-6.2l0,0l0,0c1-0.9,2.2-1.4,3.5-1.4l0,0l0,0c1.4,0,2.5,0.5,3.5,1.4l0,0l0,0   c0.9,1,1.4,2.2,1.4,3.5l0,0l0,0c0,1.4-0.5,2.5-1.4,3.5l0,0l0,0c-6.2,6-13.5,9-21.9,9l0,0l0,0c-8.5,0-15.8-3-21.8-9l0,0l0,0   c-6.1-6-9.1-13.3-9.1-21.9l0,0l0,0c0-8.6,3-15.9,9.1-21.9l0,0l0,0c6.1-6,13.3-9,21.8-9l0,0l0,0c8.5,0,15.8,3,21.8,9l0,0l0,0   c6.1,6,9.1,13.3,9.1,21.9l0,0l0,0c0,1.3-0.5,2.5-1.4,3.5l0,0l0,0C849.4,164.9,848.2,165.4,846.8,165.4L846.8,165.4z M800.4,155.5   L800.4,155.5h40.8l0,0c-1.2-4.7-3.6-8.6-7.4-11.6l0,0l0,0c-3.7-3-8.1-4.5-13-4.5l0,0l0,0c-4.9,0-9.3,1.5-13.1,4.5l0,0l0,0   C804,147,801.6,150.8,800.4,155.5L800.4,155.5z M918.6,182.4L918.6,182.4L918.6,182.4c-6.2,6-13.5,9-21.9,9l0,0l0,0   c-8.5,0-15.8-3-21.8-9l0,0l0,0c-6.1-6-9.1-13.3-9.1-21.9l0,0l0,0c0-8.6,3-15.9,9.1-21.9l0,0l0,0c6.1-6,13.3-9,21.8-9l0,0l0,0   c8.4,0,15.7,3,21.9,9l0,0l0,0c0.9,1,1.4,2.2,1.4,3.5l0,0l0,0c0,1.4-0.5,2.5-1.4,3.5l0,0l0,0c-1,0.9-2.2,1.4-3.5,1.4l0,0l0,0   c-1.4,0-2.5-0.5-3.5-1.4l0,0l0,0c-4.1-4.1-9.1-6.2-14.8-6.2l0,0l0,0c-5.9,0-10.8,2.1-14.9,6.2l0,0l0,0c-4.1,4.1-6.1,9.1-6.1,14.8   l0,0l0,0c0,5.8,2,10.7,6.1,14.8l0,0l0,0c4.1,4.1,9.1,6.2,14.9,6.2l0,0l0,0c5.8,0,10.7-2.1,14.8-6.2l0,0l0,0c1-0.9,2.2-1.4,3.5-1.4   l0,0l0,0c1.4,0,2.5,0.5,3.5,1.4l0,0l0,0c0.9,1,1.4,2.2,1.4,3.5l0,0l0,0C919.9,180.2,919.5,181.4,918.6,182.4L918.6,182.4z    M986.8,182.4L986.8,182.4L986.8,182.4c-6.1,6-13.3,9-21.8,9l0,0l0,0c-8.5,0-15.8-3-21.8-9l0,0l0,0c-6.1-6-9.1-13.3-9.1-21.9l0,0   l0,0c0-8.6,3-15.9,9.1-21.9l0,0l0,0c6.1-6,13.3-9,21.8-9l0,0l0,0c8.5,0,15.8,3,21.8,9l0,0l0,0c6.1,6,9.1,13.3,9.1,21.9l0,0l0,0   C995.9,169,992.9,176.3,986.8,182.4L986.8,182.4z M950,175.3L950,175.3L950,175.3c4.1,4.1,9.1,6.2,14.9,6.2l0,0l0,0   c5.9,0,10.8-2.1,14.9-6.2l0,0l0,0c4.1-4.1,6.1-9.1,6.1-14.8l0,0l0,0c0-5.8-2-10.7-6.1-14.8l0,0l0,0c-4.1-4.1-9-6.2-14.9-6.2l0,0   l0,0c-5.9,0-10.8,2.1-14.9,6.2l0,0l0,0c-4.1,4.1-6.1,9.1-6.1,14.8l0,0l0,0C943.9,166.2,946,171.2,950,175.3L950,175.3z    M1012.2,186.5L1012.2,186.5v-52l0,0c0-1.3,0.5-2.5,1.4-3.5l0,0l0,0c1-1,2.1-1.5,3.5-1.5l0,0l0,0c1.4,0,2.6,0.5,3.5,1.5l0,0l0,0   c1,1,1.4,2.2,1.4,3.5l0,0v3.3l0,0c5.9-5.5,12.9-8.3,21-8.3l0,0l0,0c1.4,0,2.6,0.5,3.5,1.5l0,0l0,0c1,1,1.4,2.2,1.4,3.5l0,0l0,0   c0,1.3-0.5,2.5-1.4,3.5l0,0l0,0c-1,1-2.1,1.5-3.5,1.5l0,0l0,0c-5.9,0-10.8,2.1-14.9,6.2l0,0l0,0c-4.1,4.1-6.1,9.1-6.1,14.8l0,0v26   l0,0c0,1.3-0.5,2.5-1.4,3.5l0,0l0,0c-1,1-2.1,1.5-3.5,1.5l0,0l0,0c-1.4,0-2.6-0.5-3.5-1.5l0,0l0,0   C1012.6,188.9,1012.2,187.8,1012.2,186.5L1012.2,186.5z M1114.7,103.5v56.9v26l0,0c0,1.3-0.5,2.5-1.4,3.5l0,0l0,0   c-1,1-2.1,1.5-3.5,1.5l0,0l0,0c-1.4,0-2.6-0.5-3.5-1.5l0,0l0,0c-0.9-1-1.4-2.2-1.4-3.5l0,0v-3.3l0,0c-5.9,5.5-13,8.3-21,8.3l0,0   l0,0c-8.5,0-15.8-3-21.8-9l0,0l0,0c-6.1-6-9.1-13.3-9.1-21.9l0,0l0,0c0-8.6,3-15.9,9.1-21.9l0,0l0,0c6.1-6,13.3-9,21.8-9l0,0l0,0   c8.1,0,15.1,2.8,21,8.3l0,0v-34.3l0,0c0-1.3,0.5-2.5,1.4-3.5l0,0l0,0c1-1,2.1-1.5,3.5-1.5l0,0l0,0c1.4,0,2.6,0.5,3.5,1.5l0,0l0,0   C1114.2,101.1,1114.7,102.2,1114.7,103.5L1114.7,103.5L1114.7,103.5z M1068.9,175.3L1068.9,175.3L1068.9,175.3   c4.1,4.1,9.1,6.2,14.9,6.2l0,0l0,0c5.9,0,10.8-2.1,14.9-6.2l0,0l0,0c4.1-4.1,6.1-9.1,6.1-14.8l0,0l0,0c0-5.8-2-10.7-6.1-14.8l0,0   l0,0c-4.1-4.1-9-6.2-14.9-6.2l0,0l0,0c-5.9,0-10.8,2.1-14.9,6.2l0,0l0,0c-4.1,4.1-6.1,9.1-6.1,14.8l0,0l0,0   C1062.7,166.2,1064.8,171.2,1068.9,175.3L1068.9,175.3z M1167.1,191.4L1167.1,191.4h-26.6l0,0c-1.4,0-2.6-0.5-3.5-1.5l0,0l0,0   c-0.9-1-1.4-2.2-1.4-3.5l0,0l0,0c0-1.3,0.5-2.5,1.4-3.5l0,0l0,0c1-1,2.1-1.5,3.5-1.5l0,0h26.6l0,0c2.2,0,4.1-0.8,5.7-2.4l0,0l0,0   c1.6-1.6,2.4-3.5,2.4-5.7l0,0l0,0c0-2.2-0.8-4.1-2.4-5.7l0,0l0,0c-1.6-1.6-3.5-2.4-5.7-2.4l0,0h-13.6l0,0c-4.9,0-9.2-1.8-12.7-5.3   l0,0l0,0c-3.5-3.5-5.3-7.7-5.3-12.7l0,0l0,0c0-4.9,1.8-9.2,5.3-12.7l0,0l0,0c3.5-3.5,7.7-5.3,12.7-5.3l0,0h19.3l0,0   c1.3,0,2.5,0.5,3.5,1.5l0,0l0,0c1,1,1.5,2.2,1.5,3.5l0,0l0,0c0,1.3-0.5,2.5-1.5,3.5l0,0l0,0c-1,1-2.1,1.5-3.5,1.5l0,0h-19.3l0,0   c-2.2,0-4.1,0.8-5.7,2.4l0,0l0,0c-1.6,1.6-2.3,3.5-2.3,5.7l0,0l0,0c0,2.2,0.8,4.1,2.3,5.7l0,0l0,0c1.6,1.6,3.5,2.4,5.7,2.4l0,0   h13.6l0,0c4.9,0,9.2,1.8,12.7,5.3l0,0l0,0c3.5,3.5,5.3,7.7,5.3,12.7l0,0l0,0c0,4.9-1.8,9.2-5.3,12.7l0,0l0,0   C1176.3,189.6,1172.1,191.4,1167.1,191.4L1167.1,191.4z M1213.1,181.9L1213.1,181.9L1213.1,181.9c1.1,1.1,1.6,2.4,1.6,4l0,0l0,0   c0,1.6-0.5,2.9-1.6,4l0,0l0,0c-1.1,1.1-2.4,1.6-4,1.6l0,0l0,0c-1.6,0-2.9-0.5-4-1.6l0,0l0,0c-1.1-1.1-1.6-2.4-1.6-4l0,0l0,0   c0-1.6,0.5-2.9,1.6-4l0,0l0,0c1.1-1.1,2.4-1.6,4-1.6l0,0l0,0C1210.7,180.3,1212.1,180.8,1213.1,181.9L1213.1,181.9z M1283.8,182.4   L1283.8,182.4L1283.8,182.4c-6.2,6-13.5,9-21.9,9l0,0l0,0c-8.5,0-15.8-3-21.8-9l0,0l0,0c-6.1-6-9.1-13.3-9.1-21.9l0,0l0,0   c0-8.6,3-15.9,9.1-21.9l0,0l0,0c6.1-6,13.3-9,21.8-9l0,0l0,0c8.4,0,15.7,3,21.9,9l0,0l0,0c0.9,1,1.4,2.2,1.4,3.5l0,0l0,0   c0,1.4-0.5,2.5-1.4,3.5l0,0l0,0c-1,0.9-2.2,1.4-3.5,1.4l0,0l0,0c-1.4,0-2.5-0.5-3.5-1.4l0,0l0,0c-4.1-4.1-9.1-6.2-14.8-6.2l0,0l0,0   c-5.9,0-10.8,2.1-14.9,6.2l0,0l0,0c-4.1,4.1-6.1,9.1-6.1,14.8l0,0l0,0c0,5.8,2,10.7,6.1,14.8l0,0l0,0c4.1,4.1,9.1,6.2,14.9,6.2l0,0   l0,0c5.8,0,10.7-2.1,14.8-6.2l0,0l0,0c1-0.9,2.2-1.4,3.5-1.4l0,0l0,0c1.4,0,2.5,0.5,3.5,1.4l0,0l0,0c0.9,1,1.4,2.2,1.4,3.5l0,0l0,0   C1285.2,180.2,1284.7,181.4,1283.8,182.4L1283.8,182.4z M1352.1,182.4L1352.1,182.4L1352.1,182.4c-6.1,6-13.3,9-21.8,9l0,0l0,0   c-8.5,0-15.8-3-21.8-9l0,0l0,0c-6.1-6-9.1-13.3-9.1-21.9l0,0l0,0c0-8.6,3-15.9,9.1-21.9l0,0l0,0c6.1-6,13.3-9,21.8-9l0,0l0,0   c8.5,0,15.8,3,21.8,9l0,0l0,0c6.1,6,9.1,13.3,9.1,21.9l0,0l0,0C1361.2,169,1358.1,176.3,1352.1,182.4L1352.1,182.4z M1315.3,175.3   L1315.3,175.3L1315.3,175.3c4.1,4.1,9,6.2,14.9,6.2l0,0l0,0c5.9,0,10.8-2.1,14.9-6.2l0,0l0,0c4.1-4.1,6.1-9.1,6.1-14.8l0,0l0,0   c0-5.8-2-10.7-6.1-14.8l0,0l0,0c-4.1-4.1-9.1-6.2-14.9-6.2l0,0l0,0c-5.9,0-10.8,2.1-14.9,6.2l0,0l0,0c-4.1,4.1-6.1,9.1-6.1,14.8   l0,0l0,0C1309.2,166.2,1311.2,171.2,1315.3,175.3L1315.3,175.3z M1466.5,186.5L1466.5,186.5v-29.7l0,0c0-4.8-1.7-8.9-5.1-12.3l0,0   l0,0c-3.4-3.4-7.5-5.1-12.3-5.1l0,0l0,0c-4.8,0-8.9,1.7-12.2,5.1l0,0l0,0c-3.4,3.4-5.1,7.5-5.1,12.3l0,0v29.7l0,0   c0,1.3-0.5,2.5-1.4,3.5l0,0l0,0c-1,1-2.1,1.5-3.5,1.5l0,0l0,0c-1.4,0-2.6-0.5-3.5-1.5l0,0l0,0c-1-1-1.4-2.2-1.4-3.5l0,0v-29.7l0,0   c0-4.8-1.7-8.9-5.1-12.3l0,0l0,0c-3.4-3.4-7.5-5.1-12.3-5.1l0,0l0,0c-4.8,0-8.9,1.7-12.2,5.1l0,0l0,0c-3.4,3.4-5.1,7.5-5.1,12.3   l0,0v29.7l0,0c0,1.3-0.5,2.5-1.4,3.5l0,0l0,0c-1,1-2.1,1.5-3.5,1.5l0,0l0,0c-1.4,0-2.6-0.5-3.5-1.5l0,0l0,0c-1-1-1.4-2.2-1.4-3.5   l0,0v-52l0,0c0-1.3,0.5-2.5,1.4-3.5l0,0l0,0c1-1,2.1-1.5,3.5-1.5l0,0l0,0c1.4,0,2.6,0.5,3.5,1.5l0,0l0,0c0.9,1,1.4,2.2,1.4,3.5l0,0   v1.2l0,0c5-4.1,10.8-6.2,17.3-6.2l0,0l0,0c4.5,0,8.7,1.1,12.6,3.2l0,0l0,0c3.9,2.1,7.1,4.9,9.6,8.5l0,0l0,0   c2.6-3.6,5.8-6.4,9.7-8.5l0,0l0,0c3.9-2.1,8.1-3.2,12.6-3.2l0,0l0,0c7.5,0,13.9,2.7,19.2,8l0,0l0,0c5.3,5.3,8,11.7,8,19.2l0,0v29.7   l0,0c0,1.3-0.5,2.5-1.4,3.5l0,0l0,0c-1,1-2.1,1.5-3.5,1.5l0,0l0,0c-1.4,0-2.6-0.5-3.5-1.5l0,0l0,0   C1467,188.9,1466.5,187.8,1466.5,186.5L1466.5,186.5z"/>
	<g>
		<path fill="#003049" d="M1486,114.2h-3c-0.6,0-1-0.5-1-1c0-0.6,0.4-1,1-1h8.3c0.6,0,1,0.5,1,1c0,0.6-0.4,1-1,1h-3v9.5    c0,0.6-0.5,1.1-1.1,1.1c-0.6,0-1.1-0.5-1.1-1.1V114.2z"/>
		<path fill="#003049" d="M1495.5,113.2c0-0.6,0.5-1.1,1.1-1.1h0.2c0.5,0,0.8,0.2,1,0.6l3.8,5.9l3.8-5.9c0.2-0.4,0.6-0.6,1-0.6h0.2    c0.6,0,1.1,0.5,1.1,1.1v10.4c0,0.6-0.5,1.1-1.1,1.1c-0.6,0-1.1-0.5-1.1-1.1v-7.5l-3,4.6c-0.2,0.4-0.5,0.6-0.9,0.6    c-0.4,0-0.7-0.2-0.9-0.6l-3-4.5v7.5c0,0.6-0.5,1.1-1.1,1.1s-1.1-0.5-1.1-1.1V113.2z"/>
	</g>
</g>
</svg>