<?xml version="1.0" encoding="UTF-8"?>
<!-- Generator: Adobe Illustrator 27.9.0, SVG Export Plug-In . SVG Version: 6.00 Build 0)  -->
<svg version="1.1" xmlns="http://www.w3.org/2000/svg"  x="0px" y="0px" viewBox="0 0 754.66 148.86" style="enable-background:new 0 0 754.66 148.86;" xml:space="preserve">
<style type="text/css">
	.st0{fill:#0066FF;}
	.st1{fill:#FFFFFF;}
</style>
<g id="Logos_sb">
	<g>
		<path d="M568.01,51.93c7,0,13.85,2.08,19.68,5.98s10.38,9.43,13.05,15.9c2.68,6.48,3.38,13.6,2.03,20.48    c-1.38,6.88-4.75,13.2-9.7,18.15c-4.95,4.95-11.28,8.33-18.15,9.7c-6.88,1.38-14,0.68-20.48-2.03c-6.48-2.68-12-7.23-15.9-13.05    s-5.98-12.68-5.98-19.7c0-9.4,3.75-18.4,10.38-25.05C549.61,55.68,558.61,51.93,568.01,51.93L568.01,51.93z M568.01,25.88    c-12.15,0-24.05,3.6-34.15,10.38c-10.1,6.75-17.98,16.38-22.65,27.6c-4.65,11.23-5.88,23.6-3.5,35.53s8.23,22.88,16.83,31.48    s19.55,14.45,31.48,16.83c11.93,2.38,24.3,1.15,35.53-3.5c11.23-4.65,20.83-12.53,27.6-22.65c6.75-10.13,10.35-22,10.35-34.18    c0-16.3-6.48-31.95-18-43.48C599.94,32.35,584.32,25.88,568.01,25.88L568.01,25.88z"/>
		<path class="st0" d="M487.16,0h-25.85v25.85h25.85V0z"/>
		<path d="M487.16,38.78h-25.85v103.38h25.85V38.78z"/>
		<path d="M441.93,0h-25.85v37.3c-10.35-7.38-22.83-11.43-35.7-11.43c-12.15,0-24.05,3.6-34.15,10.38    c-10.1,6.75-17.98,16.38-22.65,27.6c-4.65,11.23-5.88,23.6-3.5,35.53c2.38,11.93,8.23,22.88,16.83,31.48s19.55,14.45,31.48,16.83    c11.93,2.38,24.28,1.15,35.53-3.5c11.23-4.65,20.83-12.53,27.6-22.65c6.18-9.25,9.73-20,10.28-31.08h0.15V0L441.93,0z     M415.36,94.33c-1.38,6.93-4.78,13.28-9.75,18.28c-4.98,4.98-11.35,8.38-18.25,9.78c-6.93,1.38-14.1,0.68-20.6-2.03    c-6.53-2.7-12.08-7.28-16-13.15c-3.93-5.88-6-12.75-6-19.83c0-9.45,3.78-18.53,10.45-25.2c6.68-6.7,15.75-10.45,25.2-10.45    c7.05,0,13.95,2.1,19.8,6c5.88,3.93,10.43,9.5,13.13,16C416.03,80.23,416.76,87.4,415.36,94.33L415.36,94.33z"/>
		<path d="M122.76,25.85c-16.45,0-30.85,8.78-38.78,21.93C76.05,34.65,61.65,25.85,45.2,25.85C20.25,25.85,0,46.1,0,71.08v71.08    h25.85V74.3c0-12.48,10.13-22.6,22.6-22.6s22.6,10.13,22.6,22.6v67.83h25.85V74.3c0-12.48,10.13-22.6,22.63-22.6    s22.6,10.13,22.6,22.6v67.83h25.85V71.08C167.98,46.1,147.73,25.85,122.76,25.85z"/>
		<path d="M750.43,59.75c-4.15-10.03-11.2-18.6-20.23-24.65c-9.03-6.03-19.63-9.25-30.45-9.25h-0.03h-0.03    c-10.85,0-21.45,3.23-30.45,9.25c-9.03,6.03-16.05,14.6-20.23,24.65c-0.17,0.4-0.33,0.83-0.5,1.23    c-2.53,6.5-3.73,13.48-3.73,20.45v60.7h25.85V78.8c0-6.88,2.48-13.58,7.18-18.58c0.23-0.25,0.45-0.48,0.68-0.7    c5.63-5.63,13.25-7.58,21.23-7.6c7.98,0.03,15.6,1.95,21.23,7.6c0.22,0.23,0.45,0.48,0.67,0.7c4.7,5.03,7.18,11.7,7.18,18.58    v63.35h25.85V81.43c0-7-1.2-13.95-3.73-20.45C750.76,60.58,750.61,60.15,750.43,59.75L750.43,59.75z"/>
		<g>
			<path d="M276.56,103.35c-2.18,4.31-5.2,8.15-8.96,11.25c-5.4,4.48-11.99,7.27-18.96,7.98c-6.97,0.74-14-0.62-20.2-3.89     c-5.04-2.65-9.31-6.47-12.54-11.13l64.49-20.64l0,0l25.43-8.14c-1.56-11.22-6.22-21.92-13.57-30.78     c-10.42-12.54-25.39-20.43-41.63-21.94c-12.11-1.13-24.27,1.36-34.96,7.17c-10.69,5.79-19.42,14.63-25.11,25.39     c-5.67,10.76-8.02,22.95-6.75,35.07s6.08,23.54,13.84,32.9c7.75,9.36,18.14,16.2,29.79,19.66c11.67,3.46,24.07,3.39,35.7-0.2     c11.61-3.59,21.89-10.55,29.56-20.02c5.46-6.73,9.37-14.5,11.6-22.79L276.56,103.35z M209.7,84.05c0.87-9.36,5.42-17.98,12.67-24     c7.22-6.02,16.55-8.89,25.91-8.05l0,0c6.98,0.64,13.59,3.35,19.04,7.77c2.06,1.66,3.9,3.55,5.53,5.62l-5.36,1.72h0l-57.85,18.52     C209.63,85.1,209.65,84.58,209.7,84.05z"/>
		</g>
	</g>
</g>

</svg>