<svg id="Layer_1" data-name="Layer 1" xmlns="http://www.w3.org/2000/svg" viewBox="0 0 400 400"><defs><style>.cls-1{fill:#231f20;}.cls-2{fill:#fff;}</style></defs><rect class="cls-1" x="-3.89" y="-4.11" width="408.32" height="406.95"/><path class="cls-2" d="M153,140.36V259.64H247V140.36Zm79.83,31.8-5.86,1c-1,.19-1.95.39-2,2.24-.09,2.54-.29,6.64-.29,10.16v45.58h-2.15l-42-51.73v34.45c0,2.83.19,7.22.48,10,.2,1.37.69,2,1.76,2.15l8,1.17v2.73h-23v-2.73l6-1c1.17-.2,1.56-.59,1.75-2.35.2-2.24.49-7.22.49-9.95V175.48c0-1.56-.29-1.56-3-2.15l-4.59-1.07v-2.83h16.1l35.71,44.12V185.63c0-3.71-.19-7.81-.39-9.95-.19-1.76-.58-2.15-1.75-2.35l-8.2-1.17v-2.73h23Z"/><path class="cls-2" d="M259.4,140.36V259.64h93.14V140.36Zm72.12,47.32a46,46,0,0,0-4.64-12.39c-3.57-2.15-6.57-2.44-11-2.44h-4.93v51.24c0,1.36.58,1.56,2.51,1.85l6.67,1.17v2.83h-28.3v-2.83l6.47-1.17c2.41-.39,2.6-.49,2.6-1.85V172.85h-3.95c-5.9,0-10.34,1.27-12,2.34-1.84,2.73-3.67,8.2-4.64,12.4h-2.61l.68-19.43a26.47,26.47,0,0,0,8.88,1.27h38.35c2,0,6.48-.49,7.93-1.17l.67,19.42Z"/><path class="cls-2" d="M47,140.36V259.64h94V140.36Zm81.11,31.71-4.83,1.26c-1.83.49-2.08.79-2.08,2V224c0,1.37.25,1.66,2.17,2l4.74,1.07v2.83h-22v-2.83l4-1c1.92-.49,2.25-.78,2.25-2.15V180.17L91.6,229.85h-.34L71.12,181.73V214c0,2.53.08,7.12.25,9.17.16,1.56.41,2.83,1.74,3l5.75,1v2.73H59.3v-2.73l5.57-1c1.58-.3,1.83-1.37,1.92-2.84.16-2.24.33-6.73.33-9.27V175.48c0-1.17-.25-1.56-2.58-2.15l-4.41-1.17v-2.83H75.2l18.73,45.1,18.89-45h15.32Z"/></svg>
