<?xml version="1.0" ?>
<svg xmlns="http://www.w3.org/2000/svg" viewBox="0 0 484 101">
	<g fill="none">
		<path d="M197.202 7.521c-2.92-2.553-6.193-4.31-9.792-5.242-3.572-.924-7.817-1.381-12.745-1.381h-18.778c-1.605 0-3.011.18-4.225.555-1.21.374-2.23.948-3.019 1.74-.791.788-1.367 1.809-1.741 3.02-.375 1.213-.553 2.619-.554 4.224V62.6c.001 2.338.203 4.262.634 5.793a6.24 6.24 0 0 0 1.073 2.159 6.5 6.5 0 0 0 1.84 1.605c1.506.894 3.593 1.285 6.283 1.29h18.778c3.296 0 6.268-.213 8.918-.641 2.661-.432 5.16-1.175 7.484-2.239a25.337 25.337 0 0 0 6.438-4.241l.006-.006a30.301 30.301 0 0 0 6.109-7.774c1.59-2.897 2.761-6.141 3.518-9.728.755-3.581 1.131-7.528 1.131-11.84 0-6.536-.936-12.266-2.826-17.187-1.887-4.92-4.737-9.024-8.532-12.27zm-35.029 6.192h8.804c4.348 0 8.035.473 11.05 1.4 1.458.448 2.797 1.191 4.038 2.246 1.237 1.054 2.375 2.423 3.402 4.117 2.014 3.309 3.081 8.454 3.076 15.404 0 4.925-.598 9.095-1.769 12.508-1.173 3.412-2.911 6.066-5.211 8.011l-.006.005-.004.003c-.995.877-2.174 1.56-3.555 2.05-1.407.5-2.758.809-4.051.932-1.321.128-3.182.191-5.562.191h-10.211V13.713h-.001zm148.489 45.002l-18.01-44.483a238.278 238.278 0 0 0-2.099-5.354 20.885 20.885 0 0 0-2.095-3.872c-.862-1.25-2.001-2.275-3.388-3.061-1.435-.812-3.187-1.197-5.218-1.197-2.002 0-3.738.387-5.171 1.197-1.392.787-2.531 1.831-3.392 3.116-.839 1.249-1.61 2.79-2.329 4.627l-1.812 4.634.001-.002-17.638 44.775.002-.006c-.727 1.8-1.248 3.206-1.571 4.241a10.449 10.449 0 0 0-.503 3.129c0 .912.191 1.794.571 2.614.38.822.943 1.581 1.671 2.273.73.696 1.53 1.231 2.395 1.59.873.359 1.809.54 2.753.535 1.104 0 2.085-.16 2.937-.506a4.857 4.857 0 0 0 2.1-1.589c.503-.669 1.02-1.585 1.581-2.776.56-1.188 1.161-2.649 1.811-4.388l3.119-8.379h27.049l3.122 8.208.003.005c.44 1.073.969 2.31 1.58 3.708.628 1.427 1.215 2.503 1.812 3.259h-.001a6.496 6.496 0 0 0 2.217 1.794c.903.452 1.959.664 3.14.664.99.008 1.972-.18 2.889-.555a7.502 7.502 0 0 0 2.435-1.652c.717-.718 1.271-1.484 1.645-2.307.372-.815.564-1.7.563-2.595-.002-.875-.194-1.924-.558-3.193-.364-1.264-.901-2.746-1.611-4.454zm-21.525-14.789h-18.573l9.201-25.656 9.372 25.656zM237.013 5.65a7.702 7.702 0 0 0-4.037-3.927 7.712 7.712 0 0 0-1.979-.542 7.79 7.79 0 0 0-6.122 1.849 7.84 7.84 0 0 0-1.567 1.893 7.848 7.848 0 0 0-.971 2.695 9.68 9.68 0 0 0-.1 1.225v56.68c.011.363.008.453.042.817.077.684.241 1.354.49 1.993a7.805 7.805 0 0 0 4.578 4.463c.518.18 1.055.316 1.597.384.363.054.456.047.823.069.412 0 .412 0 .822-.022.36-.039.453-.047.815-.114.54-.1 1.066-.257 1.572-.47a7.806 7.806 0 0 0 4.338-4.696 7.82 7.82 0 0 0 .344-1.606c.043-.364.035-.454.047-.817V8.844c-.012-.361-.004-.453-.047-.817a7.74 7.74 0 0 0-.645-2.377zm120.622-3.495a7.662 7.662 0 0 0-2.824-.942 7.838 7.838 0 0 0-.99-.066c-12.354 0-24.703-.262-37.054.004-.331.024-.66.054-.988.113a7.73 7.73 0 0 0-6.391 7.116 7.764 7.764 0 0 0 2.309 6.027 7.746 7.746 0 0 0 5.41 2.206c3.537 0 7.078.019 10.623.049V65.62c.007.372.005.469.046.84.058.552.178 1.105.357 1.638a7.83 7.83 0 0 0 4.465 4.713 8.17 8.17 0 0 0 2.027.498c.37.048.463.038.836.048.421-.01.42-.01.835-.048.37-.045.462-.052.829-.132a8.692 8.692 0 0 0 1.583-.532 7.795 7.795 0 0 0 4.08-4.547c.179-.532.3-1.08.363-1.638.035-.371.029-.468.039-.84V16.724a556.52 556.52 0 0 0 10.962-.12c.332-.021.659-.052.989-.106a7.713 7.713 0 0 0 5.895-4.856c.239-.623.399-1.27.468-1.937a7.772 7.772 0 0 0-2.047-6.118 7.868 7.868 0 0 0-1.822-1.432zm125.803 60.746a7.876 7.876 0 0 0-1.456-2.479 7.857 7.857 0 0 0-2.257-1.762 7.577 7.577 0 0 0-2.332-.772c-.361-.057-.456-.057-.82-.095l-.407-.006h-29.077V8.842a8.404 8.404 0 0 0-.097-1.225 7.734 7.734 0 0 0-.974-2.694 7.833 7.833 0 0 0-1.564-1.894 7.801 7.801 0 0 0-6.126-1.848 7.802 7.802 0 0 0-4.371 2.122 7.966 7.966 0 0 0-1.645 2.347 7.9 7.9 0 0 0-.641 2.375c-.041.364-.041.456-.049.817v56.681c.008.354.008.443.045.802a7.741 7.741 0 0 0 5.3 6.543c.513.17 1.044.282 1.582.335.354.045.446.037.802.045h36.813c.407-.008.818-.03 1.228-.097a7.794 7.794 0 0 0 2.696-.97 7.74 7.74 0 0 0 1.893-1.576 7.805 7.805 0 0 0 1.137-1.704 7.803 7.803 0 0 0 .32-6zM131.369 16.578a7.68 7.68 0 0 0 1.232-.101 7.76 7.76 0 0 0 2.696-.968 7.764 7.764 0 0 0 3.778-7.283 7.727 7.727 0 0 0-4.506-6.422 7.741 7.741 0 0 0-2.376-.645c-.364-.038-.452-.038-.824-.045H94.568c-.365.007-.453.007-.809.045a7.745 7.745 0 0 0-1.969.467 7.785 7.785 0 0 0-4.58 4.833 8.057 8.057 0 0 0-.334 1.578c-.037.361-.035.45-.045.807v56.679c.01.354.008.445.045.802.058.538.17 1.07.334 1.585a7.772 7.772 0 0 0 4.58 4.826 7.62 7.62 0 0 0 1.969.467c.356.045.444.036.809.045h36.801c.372-.009.46 0 .824-.045a7.57 7.57 0 0 0 2.376-.641 7.841 7.841 0 0 0 2.346-1.646 7.976 7.976 0 0 0 1.582-2.386 7.8 7.8 0 0 0 .578-2.394c.178-2.205-.619-4.435-2.16-6.007a7.702 7.702 0 0 0-4.314-2.242 8.04 8.04 0 0 0-1.232-.101h-29.07v-12.87c6.546.007 13.101.099 19.649-.003.334-.024.668-.045.994-.105a7.675 7.675 0 0 0 2.591-.909 7.834 7.834 0 0 0 3.78-5.348 7.717 7.717 0 0 0 .066-2.246 7.74 7.74 0 0 0-4.522-6.182c-1.002-.45-2.063-.657-3.162-.673-6.467 0-12.933-.095-19.396-.013v-12.86h29.07v.001zm283.151 0a7.83 7.83 0 0 0 3.927-1.069 7.775 7.775 0 0 0 3.779-7.283 7.687 7.687 0 0 0-2.162-4.773 7.73 7.73 0 0 0-2.345-1.65 7.767 7.767 0 0 0-2.376-.644c-.364-.038-.453-.038-.824-.047h-36.801c-.365.009-.453.009-.81.047a7.738 7.738 0 0 0-1.968.467 7.785 7.785 0 0 0-4.581 4.832 8.288 8.288 0 0 0-.334 1.577c-.037.363-.034.452-.044.807v56.681c.01.354.007.444.044.802.06.545.172 1.069.334 1.583a7.763 7.763 0 0 0 4.581 4.826c.632.243 1.294.4 1.968.469.356.045.444.036.81.045h36.801c.371-.009.46 0 .824-.045a7.598 7.598 0 0 0 2.376-.642 7.806 7.806 0 0 0 2.345-1.646 7.952 7.952 0 0 0 1.583-2.387 7.83 7.83 0 0 0 .579-2.395c.177-2.203-.619-4.433-2.162-6.006a7.701 7.701 0 0 0-4.31-2.241 7.84 7.84 0 0 0-1.234-.101h-29.07v-12.87c6.545.007 13.102.099 19.648-.005.335-.022.668-.043.995-.103a7.743 7.743 0 0 0 2.591-.91 7.829 7.829 0 0 0 3.78-5.35 7.671 7.671 0 0 0 .064-2.245 7.544 7.544 0 0 0-.575-2.167 7.716 7.716 0 0 0-3.945-4.015c-1.002-.448-2.064-.656-3.162-.671-6.467 0-12.935-.095-19.396-.015V16.576h29.07v.002zM1.966 100.466V85.954h4.236c1.508 0 2.682.318 3.523.952.841.636 1.261 1.591 1.261 2.867 0 .746-.211 1.394-.633 1.943-.422.553-.995.937-1.719 1.148.883.159 1.601.574 2.153 1.246.551.67.827 1.444.827 2.319 0 1.297-.42 2.293-1.261 2.989-.841.698-1.965 1.046-3.374 1.046H1.966v.002zm1.186-8.003H6.49c1.051 0 1.863-.23 2.438-.692.575-.462.862-1.143.862-2.038 0-.917-.306-1.606-.917-2.068-.611-.463-1.502-.693-2.671-.693h-3.05v5.491zm0 1.017v5.969h3.827c1.07 0 1.91-.262 2.522-.79.611-.525.917-1.262.917-2.209 0-.868-.277-1.581-.832-2.137-.555-.557-1.361-.833-2.418-.833H3.152zm26.365 5.222a3.714 3.714 0 0 1-1.395 1.461c-.585.342-1.276.513-2.073.513-1.136 0-2.027-.386-2.671-1.157-.645-.77-.967-1.966-.967-3.587v-6.25h1.196v6.282c0 1.318.224 2.265.673 2.836.449.573 1.084.859 1.909.859.903 0 1.624-.202 2.162-.609.538-.406.914-.965 1.127-1.678v-7.69h1.196v10.784h-1.057l-.1-1.764zm11.993-3.538c0-1.722.363-3.099 1.091-4.133.727-1.032 1.742-1.55 3.044-1.55.751 0 1.402.161 1.954.479.552.319 1.01.771 1.375 1.356v-6.4h1.187v15.549h-1.057l-.1-1.564a3.687 3.687 0 0 1-1.385 1.315c-.565.306-1.229.459-1.993.459-1.29 0-2.298-.479-3.025-1.44-.728-.96-1.091-2.248-1.091-3.862v-.209zm1.196.209c0 1.311.261 2.351.783 3.125.521.773 1.307 1.16 2.357 1.16.771 0 1.414-.173 1.929-.52.514-.347.915-.828 1.2-1.442v-5.084a3.826 3.826 0 0 0-1.156-1.527c-.498-.39-1.149-.587-1.953-.587-1.05 0-1.839.434-2.367 1.297-.529.865-.793 1.988-.793 3.369v.209zm10.255-9.229l-.827 2.083h-.707l.518-2.103v-1.196h1.016v1.216zm11.914.777v2.761h2.372v.978h-2.372v7.026c0 .705.128 1.204.384 1.5.255.296.596.442 1.021.442.193 0 .381-.007.564-.022.182-.019.393-.046.633-.086l.179.887c-.2.087-.442.153-.728.199-.283.046-.57.07-.857.069-.757 0-1.347-.238-1.769-.718-.423-.478-.633-1.234-.633-2.271V90.66h-1.864v-.978h1.864v-2.761h1.206zm17.115 13.755c-1.348 0-2.47-.498-3.364-1.494-.893-.998-1.34-2.259-1.34-3.789v-.548c0-1.541.443-2.819 1.33-3.836.887-1.019 1.962-1.527 3.225-1.527 1.322 0 2.362.42 3.12 1.257.757.838 1.136 1.954 1.136 3.35v1.017h-7.615v.288c0 1.213.322 2.227.967 3.043.644.815 1.491 1.223 2.541 1.223.745 0 1.38-.103 1.904-.308a3.759 3.759 0 0 0 1.346-.887l.508.816c-.405.426-.919.767-1.54 1.019-.621.251-1.361.376-2.218.376zm-.149-10.178c-.884 0-1.625.336-2.223 1.01-.598.673-.946 1.517-1.046 2.53l.019.05h6.32v-.3c0-.933-.276-1.715-.828-2.345-.552-.63-1.299-.945-2.242-.945zm30.981 7.268l.349 1.265h.06l.378-1.265 2.932-8.084h1.235l-4.097 10.784h-.957l-4.107-10.784h1.237l2.97 8.084zm17.096-12.051h1.465l.03.061-2.482 2.591h-1.076l2.063-2.652zm-.718 14.751h-1.196V89.682h1.196v10.784zm15.411-.807c.791 0 1.489-.227 2.093-.675.605-.449.907-1.076.907-1.878h1.056l.02.061c.034.998-.365 1.831-1.195 2.502-.831.672-1.791 1.007-2.881 1.007-1.469 0-2.603-.503-3.403-1.509-.801-1.008-1.202-2.303-1.202-3.884v-.418c0-1.568.402-2.857 1.206-3.868.805-1.01 1.934-1.516 3.389-1.516 1.183 0 2.168.351 2.955 1.047.787.698 1.168 1.614 1.141 2.752l-.019.061h-1.067c0-.864-.291-1.555-.872-2.069-.581-.515-1.294-.772-2.138-.772-1.156 0-2.012.413-2.567 1.238-.554.828-.832 1.868-.832 3.123v.418c0 1.273.276 2.323.828 3.146.551.822 1.411 1.234 2.581 1.234zm18.79 1.017c-1.348 0-2.47-.498-3.364-1.494-.893-.998-1.34-2.259-1.34-3.789v-.548c0-1.541.443-2.819 1.33-3.836.887-1.019 1.962-1.527 3.225-1.527 1.322 0 2.362.42 3.12 1.257.757.838 1.136 1.954 1.136 3.35v1.017h-7.615v.288c0 1.213.322 2.227.967 3.043.644.815 1.491 1.223 2.541 1.223.745 0 1.379-.103 1.904-.308a3.738 3.738 0 0 0 1.345-.887l.509.816c-.405.426-.919.767-1.54 1.019-.621.251-1.361.376-2.218.376zm-.149-10.178c-.884 0-1.625.336-2.223 1.01-.598.673-.946 1.517-1.046 2.53l.019.05h6.32v-.3c0-.933-.276-1.715-.828-2.345-.552-.63-1.299-.945-2.242-.945zm30.981 7.268l.35 1.265h.06l.378-1.265 2.931-8.084h1.235l-4.096 10.784h-.957l-4.108-10.784h1.237l2.97 8.084zm16.418-11.174h-1.186v-1.675h1.186v1.675zm0 13.874h-1.186V89.682h1.186v10.784zm10.995-5.302c0-1.722.364-3.099 1.091-4.133.728-1.032 1.743-1.55 3.046-1.55.75 0 1.402.16 1.953.479.551.318 1.01.771 1.376 1.356v-6.4h1.185v15.549h-1.056l-.099-1.564a3.69 3.69 0 0 1-1.386 1.315c-.565.306-1.23.459-1.994.459-1.289 0-2.297-.479-3.025-1.441-.727-.96-1.091-2.247-1.091-3.86v-.21zm1.197.21c0 1.309.261 2.349.782 3.124.522.773 1.308 1.16 2.357 1.16.772 0 1.414-.173 1.93-.52.515-.346.915-.829 1.201-1.442v-5.085a3.83 3.83 0 0 0-1.157-1.525c-.499-.391-1.149-.587-1.953-.587-1.05 0-1.839.433-2.367 1.296-.529.864-.793 1.987-.793 3.369v.21zm22.846 5.302c-1.35 0-2.47-.498-3.364-1.495-.894-.997-1.34-2.259-1.34-3.788v-.548c0-1.541.444-2.82 1.33-3.836.887-1.019 1.962-1.527 3.224-1.527 1.322 0 2.362.42 3.12 1.257.759.838 1.137 1.953 1.137 3.35v1.017h-7.615v.288c0 1.213.323 2.227.967 3.043.646.815 1.492 1.223 2.542 1.223.743 0 1.379-.103 1.904-.309a3.742 3.742 0 0 0 1.345-.887l.509.816c-.406.428-.919.768-1.54 1.02-.623.251-1.361.376-2.219.376zm-.15-10.177c-.883 0-1.624.336-2.223 1.009-.597.673-.947 1.517-1.046 2.53l.02.05h6.319v-.299c0-.934-.276-1.717-.827-2.346-.551-.63-1.299-.944-2.243-.944zm.12-3.538l1.655-1.685h1.146v.169l-2.323 2.243h-.967l-2.313-2.243v-.169h1.136l1.666 1.685zm16.538-.04v2.761h2.371v.978h-2.371v7.026c0 .705.127 1.204.383 1.5.256.296.597.442 1.023.442.191 0 .38-.007.562-.022.184-.019.396-.046.633-.086l.181.887c-.2.087-.442.153-.729.199-.283.046-.569.07-.855.069-.758 0-1.349-.238-1.771-.718-.422-.478-.632-1.234-.632-2.271V90.66h-1.864v-.978h1.864v-2.761h1.205zm27.254 2.761l.108 1.885c.348-.664.813-1.179 1.401-1.541.589-.361 1.284-.544 2.088-.544 1.169 0 2.059.359 2.671 1.072.612.716.918 1.83.918 3.345v6.567h-1.198v-6.57c0-1.238-.229-2.114-.691-2.628-.461-.513-1.118-.77-1.967-.77-.838 0-1.521.223-2.051.664-.526.445-.906 1.032-1.14 1.765v7.539h-1.196V89.682h1.057zm25.299 10.784c-.08-.364-.136-.681-.171-.947a6.52 6.52 0 0 1-.048-.806c-.399.564-.932 1.031-1.595 1.404-.665.372-1.413.559-2.243.559-1.05 0-1.866-.28-2.447-.837-.581-.559-.872-1.307-.872-2.242 0-.998.429-1.795 1.29-2.394.861-.598 2.022-.897 3.484-.897h2.383v-1.334c0-.772-.249-1.376-.743-1.815-.495-.438-1.188-.658-2.078-.658-.832 0-1.521.211-2.067.629-.549.419-.823.931-.823 1.535l-1.097-.011-.02-.059c-.039-.804.328-1.523 1.101-2.158.775-.635 1.761-.953 2.955-.953 1.19 0 2.146.303 2.871.908.725.604 1.085 1.472 1.085 2.601v5.304c0 .379.022.748.066 1.105.044.358.115.715.214 1.066h-1.245zm-3.917-.847c.856 0 1.614-.2 2.272-.603.656-.402 1.133-.915 1.426-1.54v-2.253h-2.403c-1.082 0-1.949.229-2.596.691-.648.464-.974 1.036-.974 1.721 0 .584.201 1.062.604 1.431.404.369.96.553 1.671.553zm30.693-13.027h-1.188v-1.675h1.188v1.675zm0 13.874h-1.188V89.682h1.188v10.784zm12.52-10.784l.109 1.885c.345-.664.811-1.179 1.399-1.541.589-.361 1.285-.544 2.09-.544 1.169 0 2.059.359 2.671 1.072.609.716.916 1.83.916 3.345v6.567h-1.196v-6.57c0-1.238-.23-2.114-.692-2.628-.461-.513-1.117-.77-1.969-.77-.837 0-1.52.223-2.048.664-.528.445-.909 1.032-1.14 1.765v7.539h-1.197V89.682h1.057zm20.346-2.761v2.761h2.371v.978h-2.371v7.026c0 .705.127 1.204.383 1.5.255.296.596.442 1.021.442.194 0 .381-.007.564-.022.182-.019.393-.046.633-.086l.18.887a3.03 3.03 0 0 1-.729.199c-.283.046-.569.07-.855.069-.759 0-1.349-.238-1.771-.718-.422-.478-.632-1.234-.632-2.271V90.66h-1.864v-.978h1.864v-2.761h1.206zm17.114 13.755c-1.35 0-2.47-.498-3.363-1.494-.894-.998-1.342-2.259-1.342-3.789v-.548c0-1.541.445-2.819 1.332-3.836.887-1.019 1.96-1.527 3.223-1.527 1.323 0 2.363.42 3.121 1.257.756.838 1.137 1.954 1.137 3.35v1.017H388v.288c0 1.213.321 2.227.965 3.043.646.815 1.492 1.223 2.542 1.223.744 0 1.379-.103 1.904-.308a3.75 3.75 0 0 0 1.346-.887l.508.816c-.405.426-.919.767-1.54 1.019-.623.251-1.364.376-2.219.376zm-.151-10.178c-.883 0-1.624.336-2.223 1.01-.597.673-.946 1.517-1.045 2.53l.02.05h6.318v-.3c0-.933-.275-1.715-.827-2.345-.552-.63-1.298-.945-2.243-.945zm19.749.21l-.888-.06c-.751 0-1.367.211-1.849.634-.482.421-.826 1-1.031 1.739v7.443h-1.196V89.681h1.046l.15 1.795v.119c.312-.664.73-1.184 1.256-1.555.524-.373 1.149-.559 1.874-.559.153 0 .3.011.443.034.143.023.261.05.354.076l-.159 1.117zm11.204-1.026l.111 1.885c.345-.664.812-1.179 1.398-1.541.589-.361 1.285-.544 2.089-.544 1.168 0 2.061.359 2.672 1.072.61.716.916 1.83.916 3.345v6.567h-1.195v-6.57c0-1.238-.23-2.114-.692-2.628-.463-.513-1.119-.77-1.969-.77-.838 0-1.521.223-2.048.664-.529.445-.909 1.032-1.143 1.765v7.539h-1.195V89.682h1.056zm22.518 10.994c-1.35 0-2.471-.498-3.364-1.494-.894-.998-1.341-2.259-1.341-3.789v-.548c0-1.541.444-2.819 1.332-3.836.885-1.019 1.96-1.527 3.223-1.527 1.323 0 2.363.42 3.12 1.257.757.838 1.136 1.954 1.136 3.35v1.017h-7.615v.288c0 1.213.324 2.227.968 3.043.644.815 1.491 1.223 2.542 1.223.744 0 1.378-.103 1.903-.308a3.772 3.772 0 0 0 1.347-.887l.508.816c-.405.426-.919.767-1.54 1.019-.623.251-1.363.376-2.219.376zm-.15-10.178c-.883 0-1.624.336-2.223 1.01-.598.673-.946 1.517-1.045 2.53l.02.05h6.318v-.3c0-.933-.275-1.715-.827-2.345-.552-.63-1.299-.945-2.243-.945zm16.657-3.577v2.761h2.373v.978h-2.373v7.026c0 .705.128 1.204.385 1.5.254.296.596.442 1.021.442.191 0 .38-.007.563-.022.183-.019.395-.046.632-.086l.182.887c-.2.087-.443.153-.729.199-.287.047-.57.069-.857.069-.758 0-1.349-.238-1.769-.718-.423-.478-.634-1.234-.634-2.271V90.66h-1.863v-.978h1.863v-2.761h1.206zm20.136 11.781a3.716 3.716 0 0 1-1.396 1.461c-.584.342-1.275.513-2.072.513-1.137 0-2.026-.386-2.671-1.157-.646-.77-.969-1.966-.969-3.587v-6.25h1.196v6.282c0 1.318.225 2.265.673 2.836.449.573 1.085.859 1.91.859.903 0 1.624-.202 2.163-.609.537-.406.913-.965 1.126-1.678v-7.69h1.195v10.784h-1.056l-.099-1.764z" fill="#000"/>
		<path d="M7.618 35.326c-.908-.908-1.796-1.729-3.191-1.729-2.199 0-3.644 2.227-3.644 4.421l.001 21.059a4.51 4.51 0 0 0 4.509 4.508h5.123c.027.093.052.183.084.273l2.254 6.165a4.44 4.44 0 0 0 8.34-3.047l-1.239-3.392h6.496a4.5 4.5 0 0 0 4.365-3.432 6.412 6.412 0 0 0-1.79-3.519L7.618 35.326z" fill="#4285F4"/>
		<path d="M72.444 7.795a7.71 7.71 0 0 0-.656-2.378 7.593 7.593 0 0 0-1.097-1.748 7.753 7.753 0 0 0-7.83-2.532 7.87 7.87 0 0 0-2.604 1.221 8.95 8.95 0 0 0-.947.803L36.605 25.866 13.904 3.161a8.974 8.974 0 0 0-.946-.803 7.903 7.903 0 0 0-2.605-1.221A7.85 7.85 0 0 0 7.894.924a7.427 7.427 0 0 0-2.015.419A7.75 7.75 0 0 0 .998 6.599c-.024.091-.042.184-.064.276-.224 1.052-.427 3.223 1.14 4.939l14.25 15.604 14.679 14.679a7.654 7.654 0 0 0 2.691 1.839 7.421 7.421 0 0 0 1.983.515c.284.034.569.05.852.057h.186a7.654 7.654 0 0 0 2.805-.572 7.659 7.659 0 0 0 2.761-1.905l14.768-14.773v37.968c.011.362.006.461.044.823.072.673.236 1.356.486 1.99a7.763 7.763 0 0 0 4.572 4.447 7.248 7.248 0 0 0 1.591.386c.363.051.453.051.826.069.408 0 .408 0 .818-.026.359-.029.456-.035.814-.104a7.788 7.788 0 0 0 5.902-5.159 8.3 8.3 0 0 0 .341-1.604c.039-.362.035-.461.045-.823V8.618c-.009-.364-.005-.458-.044-.823z" fill="#000"/>
	</g>
</svg>