<?xml version="1.0" ?>
<svg xmlns="http://www.w3.org/2000/svg" id="Layer_1" data-name="Layer 1" viewBox="0 0 300.0001 50.189">
	<defs>
		<style> .cls-1 { fill: #c65030; } .cls-2 { fill: #253931; } </style>
	</defs>
	<path class="cls-1" d="M26.4101,11.184c-.846,0-1.598-.282-2.162-.846l-3.008-3.007-3.008,3.007c-.564,.564-1.316,.846-2.162,.846s-1.598-.282-2.162-.846c-1.128-1.128-1.128-2.82-.282-4.041l.564-.564L19.0791,.846c.564-.564,1.316-.846,2.162-.846s1.598,.282,2.162,.846l5.169,5.169c1.222,1.222,1.222,3.102,0,4.323-.658,.564-1.41,.846-2.162,.846Zm-5.169,39.004c-5.6385,.0165-11.0508-2.2161-15.038-6.203C2.1621,39.944,0,34.587,0,28.947c-.0162-5.6382,2.2163-11.0501,6.203-15.037l.47-.47c.564-.564,1.316-.846,2.162-.846s1.598,.282,2.162,.846,.846,1.316,.846,2.162-.282,1.598-.846,2.162l-.47,.47c-2.914,2.913-4.417,6.673-4.417,10.808s1.598,7.895,4.417,10.808c2.913,2.914,6.673,4.511,10.808,4.511s7.895-1.598,10.808-4.511,4.417-6.673,4.417-10.808-1.598-7.895-4.417-10.808l-.47-.47c-1.222-1.222-1.222-3.102,0-4.323,.564-.564,1.316-.846,2.162-.846s1.598,.282,2.162,.846l.47,.47c8.271,8.271,8.271,21.805,0,30.169-4.229,3.947-9.586,6.109-15.226,6.109v-.001Zm0-13.91c-1.9726,.0106-3.8675-.7678-5.263-2.162-2.913-2.914-2.913-7.519,0-10.432,1.41-1.41,3.29-2.162,5.263-2.162s3.853,.752,5.169,2.162c2.914,2.914,2.914,7.519,0,10.432-1.41,1.41-3.195,2.162-5.169,2.162Z"/>
	<path class="cls-2" d="M57.7071,42.011h-3.571V18.045h3.477v1.692c2.35-1.41,4.605-2.162,6.861-2.162,2.914,0,4.981,.846,6.109,2.444,1.034-.658,2.35-1.222,4.041-1.692s3.102-.752,4.323-.752c3.102,0,5.263,.846,6.297,2.538,1.128,1.692,1.598,4.793,1.598,9.211v12.688h-3.571v-12.595c0-3.29-.282-5.639-.94-6.861s-1.974-1.88-4.041-1.88c-1.034,0-2.068,.188-3.196,.47s-1.974,.564-2.538,.846l-.752,.564c.376,1.034,.658,3.384,.658,6.955v12.5h-3.571v-12.406c0-3.477-.282-5.827-.94-7.049s-1.974-1.88-4.041-1.88c-1.034,0-2.068,.188-3.101,.47s-1.88,.564-2.444,.846l-.658,.564v19.455h0Zm51.691-3.007l1.316-.188,.094,2.819-9.21,.752c-3.384,0-5.827-1.034-7.237-3.008s-2.162-5.075-2.162-9.304c0-8.365,3.289-12.594,9.869-12.594,3.195,0,5.545,.94,7.143,2.726s2.349,4.605,2.349,8.553l-.188,2.726h-15.507c0,2.632,.47,4.605,1.41,5.921s2.538,1.88,4.888,1.88c2.443,0,4.887-.094,7.236-.282l-.001-.001Zm-1.221-10.432c0-2.913-.47-4.981-1.41-6.203s-2.444-1.786-4.511-1.786-3.666,.658-4.7,1.88c-1.034,1.316-1.598,3.29-1.598,6.109h12.219Zm27.067-21.053V41.918h-3.477v-1.598c-2.444,1.41-4.793,2.068-7.143,2.068-1.222,0-2.35-.188-3.289-.47s-1.786-.94-2.632-1.692c-1.692-1.692-2.538-4.887-2.538-9.586,0-4.605,.752-7.989,2.256-10.056s4.041-3.101,7.519-3.101c1.9608,.0019,3.9152,.2226,5.827,.658V7.519h3.477Zm-12.218,31.391c.564,.188,1.316,.376,2.162,.376s1.88-.188,3.007-.47c1.127-.282,1.974-.564,2.632-.846l.94-.47V21.241c-1.974-.376-3.853-.564-5.639-.564-2.35,0-4.042,.752-4.981,2.35-.94,1.504-1.41,3.947-1.41,7.237,0,3.665,.564,6.203,1.692,7.519,.469,.47,1.033,.94,1.597,1.128v-.001Zm18.985-26.316v-4.135h3.572v4.135h-3.572Zm0,29.417V18.045h3.572v23.966h-3.572Zm26.316-3.007l1.41-.188,.094,2.819-9.211,.752c-3.383,0-5.827-1.034-7.237-3.008s-2.161-5.075-2.161-9.304c0-8.365,3.289-12.594,9.868-12.594,3.196,0,5.545,.94,7.143,2.726s2.35,4.605,2.35,8.553l-.188,2.726h-15.508c0,2.632,.47,4.605,1.41,5.921s2.538,1.88,4.887,1.88,4.699-.094,7.143-.282v-.001Zm-1.316-10.432c0-2.913-.47-4.981-1.409-6.203s-2.444-1.786-4.512-1.786-3.665,.658-4.699,1.88c-1.034,1.316-1.598,3.29-1.598,6.109h12.218Zm19.455-10.997c3.196,0,5.357,.94,6.673,2.726s1.88,5.075,1.88,9.68-.752,7.801-2.35,9.681-4.511,2.819-8.74,2.819c-1.316,0-3.478-.094-6.579-.376l-1.316-.188V7.519h3.477v11.654c2.444-1.128,4.7-1.598,6.955-1.598h0Zm-2.631,21.711c3.101,0,5.075-.752,6.109-2.162,.939-1.41,1.503-3.853,1.503-7.237s-.376-5.733-1.221-7.143c-.752-1.316-2.162-2.068-4.23-2.068-1.785,0-3.665,.376-5.639,1.034l-.94,.376v16.917l4.418,.282v.001Zm16.917,2.725V18.045h3.477v3.289c2.726-1.88,5.64-3.195,8.647-3.759v3.665c-1.316,.282-2.726,.658-4.135,1.222l-3.29,1.41-1.222,.658v17.575h-3.477v-.094h0Zm31.015-23.966h3.571v23.966h-3.571v-1.691c-2.35,1.41-4.699,2.162-6.955,2.162-3.195,0-5.357-.846-6.391-2.538s-1.598-4.793-1.598-9.398v-12.5h3.572v12.5c0,3.477,.282,5.827,.846,6.955,.564,1.222,1.973,1.786,4.041,1.786,1.034,0,2.068-.188,3.195-.47,1.034-.282,1.88-.564,2.444-.846l.846-.47V18.045h0Zm13.816,23.966h-3.572V7.519h3.572V27.82l3.665-.188,6.767-9.68h4.041l-7.706,10.996,7.988,12.97h-4.041l-7.049-11.09-3.759,.188v10.996h.094v-.001Zm34.304-3.007l1.41-.188,.094,2.819-9.211,.752c-3.383,0-5.827-1.034-7.236-3.008s-2.162-5.075-2.162-9.304c0-8.365,3.289-12.594,9.868-12.594,3.196,0,5.545,.94,7.143,2.726s2.35,4.605,2.35,8.553l-.188,2.726h-15.508c0,2.632,.47,4.605,1.41,5.921s2.538,1.88,4.887,1.88,4.7-.094,7.143-.282v-.001Zm-1.222-10.432c0-2.913-.469-4.981-1.409-6.203s-2.444-1.786-4.512-1.786-3.665,.658-4.699,1.88c-1.034,1.316-1.598,3.29-1.598,6.109h12.218Zm21.053-7.425h-7.519v11.466c0,2.726,.188,4.511,.564,5.451,.376,.846,1.316,1.316,2.82,1.316l4.229-.282,.188,3.008c-2.068,.376-3.665,.564-4.793,.564-2.444,0-4.136-.564-5.075-1.786s-1.41-3.571-1.41-6.955v-12.782h-3.384v-3.101h3.384v-7.331h3.477v7.331h7.519v3.101h0Z"/>
</svg>