<?xml version="1.0" encoding="UTF-8"?>
<!-- Generator: Adobe Illustrator 22.1.0, SVG Export Plug-In . SVG Version: 6.00 Build 0)  -->
<svg version="1.1" id="Layer_1" xmlns="http://www.w3.org/2000/svg"  x="0px" y="0px" viewBox="0 0 608 262" style="enable-background:new 0 0 608 262;" xml:space="preserve">
<style type="text/css">
	.st0{fill:#FFFFFF;}
	.st1{fill:#EA9829;}
</style>
<g>
	<g>
		<path class="st0" d="M97.2,182.6c-2.7,0-4.8-2.2-4.8-4.8c0-2.7,2.2-4.8,4.8-4.8h7.7c2.2,0,4-1.8,4-4.1v-8.3    c0-6.4,2.6-12.3,5.9-18.2c3.4-5.9,7.6-11.8,11.8-18.3c8.4-12.9,16.2-27.5,16.2-46.1c0-17.9-7.2-34-18.9-45.7S96.1,13.4,78.2,13.4    c-17.8,0-34,7.2-45.7,18.9C20.9,44,13.7,60.1,13.7,78c0,13.7,4.4,25.3,10.1,35.8s12.8,19.6,17.8,28.5c3.3,5.9,5.9,11.8,5.9,18.3    v8.4c0,2.2,1.8,4,4,4.1h7.6c2.7,0,4.9,2.2,4.9,4.8c0,2.7-2.2,4.8-4.9,4.8h-7.6c-7.6,0-13.7-6.1-13.7-13.7v-8.4    c0-3.7-1.6-8.2-4.7-13.5c-3-5.3-7.2-11.3-11.5-17.9C13.1,115.7,4,99.1,4,78C4,37,37.2,3.7,78.2,3.7s74.2,33.2,74.2,74.3    c0,16.1-5.1,29.4-11.3,40.7c-6.2,11.2-13.4,20.6-17.9,28.4c-3,5.3-4.7,9.7-4.7,13.4v8.3c0,7.6-6.2,13.7-13.7,13.7h-7.6"/>
	</g>
	<path class="st0" d="M112.8,194.3c0,2.7-2.2,4.8-4.9,4.8H48.5c-2.7,0-4.8-2.2-4.8-4.8c0-2.7,2.2-4.8,4.8-4.8h59.4   C110.6,189.5,112.8,191.6,112.8,194.3"/>
	<path class="st0" d="M112.8,214.1c0,2.7-2.2,4.8-4.9,4.8H48.5c-2.7,0-4.8-2.2-4.8-4.8s2.2-4.8,4.8-4.8h59.4   C110.6,209.3,112.8,211.4,112.8,214.1"/>
	<path class="st0" d="M52.3,229c0,0,4.1,9.7,25.5,9.7c21.5,0,25.6-9.7,25.6-9.7H52.3"/>
	<path class="st1" d="M78.2,147.5c-1.3,0-2.5-0.4-3.4-1.1c-0.9-0.8-1.6-1.6-2.1-2.4l-9.4-19.8v35.5c0,1-0.5,1.9-1.3,2.8   c-0.9,0.8-2.1,1.2-3.5,1.2c-1.5,0-2.7-0.4-3.7-1.2s-1.4-1.7-1.4-2.8v-48c0-1,0.5-1.9,1.4-2.8c1-0.8,2.2-1.2,3.7-1.2H60   c1.5,0,2.7,0.3,3.6,0.8s1.7,1.3,2.2,2.2l12.5,25.1l12.5-25.1c0.5-0.9,1.3-1.7,2.3-2.3c0.9-0.6,2.2-0.9,3.6-0.8l1.4,0.1   c1.6,0,2.8,0.4,3.7,1.2c0.9,0.8,1.4,1.7,1.4,2.8v48c0,1-0.5,1.9-1.4,2.8c-0.9,0.8-2.1,1.2-3.7,1.2c-1.4,0-2.6-0.4-3.4-1.2   c-0.9-0.8-1.3-1.7-1.3-2.8v-35.5L83.9,144c-0.4,0.8-1.1,1.7-2,2.4C80.8,147.1,79.6,147.5,78.2,147.5"/>
	<polyline class="st0" points="283.8,28.5 283.8,133 265,133 265,55.8 232.7,102 200.4,55.8 200.4,133 181.6,133 181.6,28.5    202.5,28.5 232.7,72.2 262.9,28.5 283.8,28.5  "/>
	<path class="st0" d="M371.3,112v15.2c-7.2,3.9-16.9,7-29.4,7c-15.5,0-36.3-6.3-36.3-39.5c0-23.3,9.4-41.3,34.9-41.3   c24.4,0,34.9,18.3,34.9,37.9c0,3.4,0,6.6-0.3,9.7h-50.3c1.1,15,10.8,17.1,19.9,17.1C355.8,118.1,364.8,115.2,371.3,112 M324.8,88.1   h31.5c-1-9.9-5.8-19.3-15.8-19.3C331.3,68.8,325.9,74.1,324.8,88.1"/>
	<path class="st0" d="M464.7,86v47h-18.6V84.5c0-6.9-1.4-14.3-18.5-14.3c-5.3,0-10.3,0.6-14.6,1.4V133h-18.8V62.2   c0.6-0.3,16-8.6,35.9-8.6C451.9,53.6,464.7,65.7,464.7,86"/>
	<rect x="490.4" y="25.1" class="st0" width="18.8" height="107.9"/>
	<path class="st0" d="M604,94c0,26-13.2,40.2-36.9,40.2c-23.8,0-37-14.2-37-40.2s13.2-40.3,37-40.3C590.8,53.8,604,68,604,94    M585.2,94c0-20.7-7.1-24.7-18.2-24.7c-11.1,0-18.2,4.1-18.2,24.7c0,20.7,7.1,24.7,18.2,24.7C578.2,118.8,585.2,114.7,585.2,94"/>
	<path class="st0" d="M235.4,214.2c0,13.5-10.7,21.6-28.8,21.6c-10.3,0-18.2-2.7-23.9-5.7v-9.5c4.7,3.2,12.3,6.4,23.3,6.4   c9.3,0,20.6-2.2,20.6-12.9c0-23.7-44.7-11.8-44.7-38.9c0-10.9,7.3-22.6,27.9-22.6c8.3,0,15.1,2.3,20.3,4.9v9   c-4.5-2.6-11.2-5.1-19.4-5.1c-12.9,0-20,4.9-20,13.8C190.7,193.1,235.4,183.2,235.4,214.2"/>
	<path class="st0" d="M301.5,205.5c0,2.3-0.2,4.2-0.2,4.2h-44.2c1.1,12.2,7.2,17.4,19.7,17.4c8.9,0,15.7-1.5,20.8-4.5v9   c-5.8,2.8-13,4.2-21.6,4.2c-12.6,0-27.7-5.2-27.7-30.5c0-6.4-1-32.2,26.6-32.2C302.4,173.1,301.5,203.1,301.5,205.5z M292.6,201.9   c0-2.9-1-20.5-17.7-20.5c-11.9,0-16.9,5.6-17.7,20.5H292.6z"/>
	<path class="st0" d="M342.6,227.4c5.9,0,11.7-1.1,17-3.4v8.5c-5.7,2.2-11.8,3.3-18,3.3c-13,0-28.4-5.3-28.4-31.3   c0-25.9,15.4-31.3,28.4-31.3c6.2,0,12.3,1.2,18,3.4v8.4c-5.3-2.2-11.1-3.4-17-3.4c-14.5,0-20.7,6.9-20.7,23   C321.9,220.6,328.1,227.4,342.6,227.4"/>
	<path class="st0" d="M423,174.2v35.1c0,16.9-9.2,26.5-25.4,26.5s-25.4-9.6-25.4-26.5v-35.1h8.8v35.6c0,12.3,5.2,17.9,16.6,17.9   c11.3,0,16.6-5.6,16.6-17.9v-35.6L423,174.2"/>
	<path class="st0" d="M448.2,184.8v50h-8.8v-55.7c3.2-1.3,14.8-5.8,29.4-5.8v8.4C460.5,181.9,453.2,183.5,448.2,184.8"/>
	<path class="st0" d="M480.7,163.4h9.7v-9.6h-9.7V163.4z M481.1,234.8h8.8v-60.6h-8.8V234.8z"/>
	<path class="st0" d="M521.7,219.2c0,6.1,2.3,8.4,8.8,8.4c2.9,0,5.1-0.6,6.9-1.5v8.3c-2.3,0.8-5,1.5-8,1.5c-5,0-16.4-1.6-16.4-17.1   v-36.4h-10.6v-8H513v-17.1h8.7v17.1h15.7v8h-15.7V219.2"/>
	<g>
		<path class="st0" d="M599.4,174.2l-24.8,66.6c-5.3,14.5-13.4,17.5-19.1,17.5c-2.4,0-4.5-0.6-5.7-1.1v-8c1.1,0.5,2.9,1.1,5.2,1.1    c8.3,0,13.2-16.4,13.2-16.4L546,174.2h9.3l17.3,48l17.5-48H599.4"/>
	</g>
</g>
</svg>