<?xml version="1.0" ?>
<svg xmlns="http://www.w3.org/2000/svg" viewBox="0 0 160 40" fill="none">
	<path fill-rule="evenodd" clip-rule="evenodd" d="M 105.95,22.1826 C 105.609,23.4192 104.541,23.2567 104.274,22.7242 L 104.274,22.7151 C 104.122,22.4111 104.04,22.3435 103.913,22.2384 C 103.825,22.1657 103.716,22.075 103.546,21.8757 C 100.949,19.2489 98.2968,21.4695 96.5838,23.5366 C 93.7196,26.6597 90.3397,37.5909 94.0235,35.6321 C 97.049,34.1815 99.6915,29.8233 101.456,26.9136 L 101.456,26.9136 C 101.931,26.1298 102.343,25.4512 102.681,24.9628 C 104.274,22.661 106.972,23.7171 106.558,26.3619 C 106.539,26.4866 106.512,26.6495 106.479,26.8438 C 106.242,28.2525 105.728,31.3116 106.125,33.4297 C 106.535,35.6195 108.808,32.8835 109.835,31.6474 C 109.938,31.5231 110.029,31.4139 110.104,31.3265 C 109.56,27.9222 110.161,24.4369 111.817,21.3973 C 115.86,14.0587 123.854,16.3695 121.809,22.7964 C 120.904,25.845 118.582,28.295 115.547,29.4038 C 114.34,29.8461 113.52,28.5914 114.801,27.5985 C 116.354,26.6358 117.594,25.2577 118.374,23.6268 C 119.516,21.5236 118.236,19.8176 116.145,21.2799 C 113.051,23.4734 111.568,33.2401 116.246,36.1105 C 120.704,38.3672 124.167,33.8449 127.298,28.2304 C 125.668,21.7674 126.027,10.3939 130.632,4.55373 C 135.449,-1.53017 142.199,0.8709 142.319,5.38417 C 142.454,11.5437 137.509,20.1031 135.238,24.0335 C 134.723,24.9241 134.346,25.577 134.196,25.9105 C 133.653,27.102 131.894,26.6417 132.732,24.8364 C 138.506,14.6905 138.838,6.98187 138.626,5.23974 C 138.248,2.07143 135.614,2.8116 133.1,5.51957 C 127.215,13.5893 129.877,25.5946 131.719,32.4548 C 131.997,33.4818 132.309,34.3924 132.572,35.1573 L 132.572,35.1575 L 132.572,35.1576 C 132.925,36.1876 133.187,36.9534 133.155,37.3833 C 133.008,39.7302 131.046,39.4052 130.125,37.5999 C 129.345,35.875 128.728,34.0831 128.284,32.2472 C 123.623,39.4774 117.296,39.9649 113.76,37.5909 C 112.519,36.6812 111.508,35.5047 110.804,34.1518 C 105.941,38.6921 101.861,35.6231 101.714,30.9112 C 101.664,30.9757 101.594,31.0711 101.504,31.1928 L 101.503,31.195 L 101.503,31.195 C 100.664,32.3367 98.1355,35.7784 94.7511,37.7263 C 91.6567,39.4955 88.9951,38.4484 88.7556,35.578 C 88.4241,30.1891 93.8117,22.7964 95.6537,20.7925 C 97.6522,18.6351 99.6414,17.1819 102.377,17.2631 C 105.112,17.3443 106.337,20.7925 105.95,22.1826 M 45.9491,33.8991 C 44.5216,27.0118 47.8094,20.269 48.8133,19.4566 L 48.8409,19.4566 C 49.5669,18.7797 50.6645,18.6609 51.5238,19.1661 C 52.383,19.6714 52.7925,20.6766 52.5248,21.623 C 52.275,22.6081 51.9423,23.5712 51.5301,24.5025 C 50.3788,27.4934 49.7982,30.6663 49.8172,33.863 C 50.1501,38.7327 52.1132,37.1727 52.6769,36.7247 C 52.7214,36.6894 52.7571,36.661 52.7827,36.6432 C 53.1326,36.3995 54.6062,34.8379 55.214,31.146 C 55.6745,28.3478 57.3783,21.6862 63.208,18.888 C 67.1958,16.9924 70.0508,19.1497 70.1337,21.5959 C 70.2166,24.0421 67.4445,23.5366 66.7261,22.6972 C 66.6876,22.6474 66.6476,22.5938 66.6056,22.5376 C 66.1758,21.962 65.5506,21.1247 64.4513,21.5688 C 62.2502,22.4534 59.3031,27.0841 59.386,32.2833 C 59.4689,37.4826 64.3408,36.4626 67.2234,34.3324 C 70.1061,32.2021 72.0032,27.2736 72.169,26.0911 C 72.5558,19.2219 77.2804,4.54477 79.5368,2.17079 C 81.9865,-0.41983 84.2061,2.08052 83.6535,3.07344 C 83.0052,4.622 82.2937,6.21899 81.5644,7.8561 L 81.5644,7.85616 C 78.3358,15.1033 74.7569,23.1368 74.7569,31.2363 C 76.9212,24.9899 81.1484,20.0704 85.4954,19.4566 C 89.5108,18.8789 90.1647,21.6862 89.2438,24.0241 C 89.0903,24.4136 88.9123,24.8147 88.7241,25.2388 C 87.7826,27.3601 86.5852,30.0581 86.9229,34.7747 C 86.9371,34.9612 86.9561,35.1655 86.9761,35.3803 C 87.098,36.6937 87.2562,38.3984 86.5914,38.8095 C 84.7494,39.9379 83.8837,37.591 83.8285,35.0094 C 83.7814,32.8093 85.0319,28.249 85.5508,26.3571 L 85.5508,26.357 L 85.5509,26.3566 L 85.5512,26.3555 C 85.6409,26.0282 85.7087,25.781 85.7441,25.6398 C 86.7387,21.7133 83.0456,23.1936 81.9589,24.2949 C 78.2913,28.0165 76.5312,33.9982 75.8401,36.3469 C 75.745,36.6699 75.6702,36.9242 75.6134,37.0945 C 75.0609,38.7644 72.9242,37.9791 72.4914,36.0564 C 72.1426,34.7761 71.9357,33.4627 71.8743,32.1389 C 67.2326,38.7283 58.4098,41.1835 55.9047,35.8218 C 51.392,41.0662 47.3305,39.631 45.9491,33.8991 M 42.8269,34.4669 C 42.0257,31.4159 42.523,25.1244 43.0111,21.4416 C 43.444,18.3234 44.0945,15.8593 44.6634,13.7042 L 44.6634,13.7042 L 44.6634,13.7041 L 44.6634,13.7041 L 44.6635,13.704 L 44.6635,13.704 L 44.6635,13.7039 L 44.6635,13.7039 C 45.305,11.2738 45.8428,9.23682 45.8477,7.0984 C 45.8477,5.22088 45.2491,1.33044 41.0587,1.16796 C 30.7162,0.82495 26.9034,25.4765 26.3877,28.9607 C 26.3138,28.4039 26.2803,26.9362 26.2356,24.9794 C 26.1519,21.3208 26.0292,15.9522 25.5312,11.6297 C 24.4352,1.8269 22.2709,1.26725 20.1343,1.10478 C 13.0632,0.59324 11.9937,12.7736 11.9394,25.5282 C 11.8447,22.7354 11.3988,19.4787 9.5708,17.488 C 8.21698,16.0166 6.12638,16.1611 7.51704,18.1198 C 7.59304,18.2206 7.67121,18.3809 7.75576,18.5544 C 7.8454,18.7382 7.9422,18.9368 8.0512,19.0947 C 9.31808,20.9679 9.86261,25.4935 10.3726,29.732 C 10.9414,34.4597 11.4673,38.8302 12.9047,38.7635 C 13.7612,38.7635 15.0506,38.3844 14.94,34.828 C 14.6177,24.1044 15.4466,4.90495 19.1765,4.8869 C 21.9015,4.8869 22.3308,13.9599 22.7126,22.0279 C 22.8844,25.6575 23.0465,29.0837 23.4037,31.3888 C 24.0484,35.1529 28.0086,35.4688 29.2887,30.1161 C 29.7267,28.2166 30.0542,26.4981 30.3667,24.8584 C 31.2303,20.3265 31.9793,16.3958 34.6303,10.9076 C 39.4286,0.9784 43.3887,4.25504 41.6849,11.1513 C 41.5847,11.5364 41.4613,11.9806 41.3227,12.4791 L 41.3225,12.4796 C 40.1879,16.562 38.0407,24.287 39.3457,33.0227 C 39.7693,35.875 41.6481,39.4857 43.0295,38.7094 C 43.7917,38.2886 43.4622,37.0347 42.8892,34.8544 L 42.7993,34.512 L 42.8269,34.4669 M 148.13,20.0324 C 147.384,17.5953 141.803,18.7416 143.037,21.6933 C 143.468,22.7376 144.886,23.578 146.535,24.5557 C 148.407,25.6653 150.577,26.952 151.943,28.9145 C 155.94,34.7186 147.08,41.1816 140.385,38.0855 C 135.66,35.9101 135.642,32.5252 135.955,31.1351 C 136.406,29.077 138.718,29.0409 139.04,30.1331 C 139.313,31.3914 139.037,31.8165 138.811,32.1628 C 138.679,32.3655 138.565,32.5411 138.589,32.8411 C 138.957,36.1358 144.446,37.5439 147.329,34.6464 C 151.289,30.7108 147.817,28.1653 147.126,27.6779 C 146.453,27.1997 145.679,26.8528 144.889,26.4986 C 143.517,25.8834 142.095,25.246 141.066,23.8597 C 137.567,19.1749 143.0,15.113 146.979,16.2864 C 148.821,16.828 150.257,18.0917 149.908,19.8068 C 149.613,21.2239 148.462,21.0976 148.13,20.0234 L 148.13,20.0324 M 52.9946,11.9918 C 52.0364,12.1388 51.2085,12.7277 50.769,13.575 C 50.3294,14.4223 50.3317,15.425 50.775,16.2704 C 51.2894,17.096 52.3397,17.4327 53.2524,17.0647 C 54.483,16.4612 55.3502,15.3234 55.5917,13.9957 C 55.5917,12.6868 54.8273,11.8293 52.9946,11.9737 L 52.9946,11.9918 M 151.519,16.1077 L 151.639,16.1077 C 151.796,16.1077 151.869,16.1709 151.869,16.2702 C 151.869,16.3694 151.759,16.4326 151.612,16.4326 L 151.492,16.4326 L 151.519,16.1077 M 151.638,16.5955 L 151.519,16.5955 L 151.509,17.0017 L 151.261,17.0017 L 151.261,15.9185 C 151.402,15.9058 151.543,15.9058 151.684,15.9185 C 151.82,15.9072 151.955,15.9389 152.071,16.0088 C 152.137,16.0661 152.174,16.1484 152.172,16.2344 C 152.163,16.362 152.07,16.4685 151.942,16.4962 C 152.06,16.537 152.141,16.6445 152.145,16.767 C 152.159,16.8579 152.187,16.9461 152.228,17.0288 L 151.951,17.0288 C 151.907,16.9473 151.879,16.8585 151.869,16.767 C 151.85,16.6496 151.776,16.5955 151.638,16.5955 M 151.703,15.6028 C 152.085,15.577 152.443,15.7848 152.603,16.125 C 152.763,16.4652 152.692,16.867 152.425,17.1347 C 152.158,17.4025 151.749,17.4805 151.399,17.3307 C 151.048,17.1809 150.829,16.8346 150.847,16.4603 C 150.839,16.2338 150.927,16.0142 151.088,15.8522 C 151.25,15.6903 151.472,15.6002 151.703,15.6028 M 150.746,15.9276 C 150.944,15.5925 151.309,15.386 151.704,15.386 C 152.098,15.386 152.463,15.5925 152.661,15.9276 C 152.858,16.2628 152.858,16.6757 152.661,17.0108 C 152.463,17.3459 152.098,17.5524 151.704,17.5524 C 151.309,17.5524 150.944,17.3459 150.746,17.0108 C 150.549,16.6757 150.549,16.2628 150.746,15.9276" fill="#CF1F2E"/>
</svg>