<?xml version="1.0" ?>
<svg xmlns:inkscape="http://www.inkscape.org/namespaces/inkscape" xmlns:sodipodi="http://sodipodi.sourceforge.net/DTD/sodipodi-0.dtd" xmlns="http://www.w3.org/2000/svg" xmlns:svg="http://www.w3.org/2000/svg" viewBox="0 0 585.7392 270.75421" version="1.1" id="svg12" sodipodi:docname="Microsoft Lumia.svg" xml:space="preserve" inkscape:version="1.3.2 (091e20e, 2023-11-25, custom)">
	<sodipodi:namedview id="namedview12" pagecolor="#ffffff" bordercolor="#000000" borderopacity="0.25" inkscape:showpageshadow="2" inkscape:pageopacity="0.0" inkscape:pagecheckerboard="0" inkscape:deskcolor="#d1d1d1" inkscape:zoom="0.716" inkscape:cx="500" inkscape:cy="231.14525" inkscape:window-width="1366" inkscape:window-height="705" inkscape:window-x="-8" inkscape:window-y="-8" inkscape:window-maximized="1" inkscape:current-layer="svg12"/>
	<path fill="#0078d7" d="M 0,-0.02289794 H 585.7392 V 270.7771 H 0 Z" id="path1" style="stroke-width:0.4"/>
	<g id="g1">
		<g id="g20" transform="matrix(0.4,0,0,0.4,0,-0.02289794)">
			<path d="m 930.53138,405.60375 c -0.061,33.79096 -0.061,67.61041 0,101.40038 h 23.79794 c 0.063,-33.79097 0.063,-67.60942 0,-101.40038 z" style="display:inline;fill:#ffffff" id="path20"/>
			<path d="m 554.78082,366.71272 c -0.12,46.76596 -0.0576,93.5 -0.0286,140.26395 26.83998,0.058 53.68215,0.0874 80.52313,-0.0286 -0.058,-6.91999 -0.058,-13.83957 0,-20.76057 -18.19098,-0.145 -36.35598,0.0293 -54.54697,-0.11669 -0.297,-39.69896 -0.14974,-79.3941 -0.0297,-119.05606 -8.64799,-0.27 -17.29682,-0.33003 -25.91782,-0.30203 z" style="display:inline;fill:#ffffff" id="path19"/>
			<path d="m 1016.6312,402.39339 c -14.0204,0 -26.38664,3.14368 -37.10034,9.43194 v 19.9465 c 9.72169,-8.25333 20.63394,-12.38095 32.73634,-12.38095 13.7558,0 20.6331,7.17243 20.6331,21.51751 l -30.1572,4.22583 c -22.08855,3.14414 -33.13309,14.21429 -33.13309,33.21006 0,8.84285 2.81074,15.94976 8.43213,21.32099 5.68752,5.3712 13.52443,8.05626 23.51046,8.05626 13.5575,0 23.842,-6.02645 30.8522,-18.07895 h 0.3967 v 15.72067 h 22.3202 v -65.4363 c 0,-25.02201 -12.8306,-37.53356 -38.4905,-37.53356 z m 16.2691,53.54843 v 8.74469 c 0,7.4018 -2.3141,13.55929 -6.9435,18.47199 -4.5632,4.8472 -10.3507,7.27017 -17.3609,7.27017 -5.1585,0 -9.29095,-1.34252 -12.39918,-4.02813 -3.04216,-2.7511 -4.5636,-6.25571 -4.5636,-10.5134 0,-5.82973 1.65373,-9.89066 4.96042,-12.18326 3.37274,-2.35809 8.36526,-3.96268 14.97866,-4.81422 z" style="font-weight:600;font-size:195.621px;line-height:0;font-family:'Segoe UI';-inkscape-font-specification:'Segoe UI Semi-Bold';letter-spacing:-0.585739px;word-spacing:0px;fill:#ffffff;stroke-width:8.23717;paint-order:stroke fill markers" id="path18"/>
			<path d="m 942.09982,362.44945 c -3.88296,0 -7.2217,1.29462 -10.0147,3.88325 -2.72488,2.58864 -4.08764,5.82457 -4.08764,9.70752 0,3.88295 1.36276,7.0842 4.08764,9.60471 2.793,2.52051 6.13174,3.78167 10.0147,3.78167 4.01919,0 7.42485,-1.29461 10.21785,-3.88325 2.79301,-2.65675 4.18921,-5.82455 4.18921,-9.50313 0,-3.88295 -1.3962,-7.11888 -4.18921,-9.70752 -2.793,-2.58863 -6.19866,-3.88325 -10.21785,-3.88325 z" style="font-weight:600;font-size:195.621px;line-height:0;font-family:'Segoe UI';-inkscape-font-specification:'Segoe UI Semi-Bold';letter-spacing:-0.585739px;word-spacing:0px;fill:#ffffff;stroke-width:8.52557;paint-order:stroke fill markers" id="path16"/>
			<path d="m 812.07623,405.90783 c -13.87894,0 -24.45131,5.96988 -31.71811,17.90917 h -0.39283 v -15.59816 h -22.78298 v 98.59498 h 22.78298 v -53.34118 c 0,-8.79399 1.96328,-15.95107 5.89129,-21.47139 3.99345,-5.52032 9.0677,-8.28111 15.22158,-8.28111 13.22426,0 19.83675,9.17894 19.83675,27.5372 v 55.55648 h 22.88059 v -53.34118 c 0,-8.1521 2.06209,-15.14924 6.1865,-20.99051 4.18986,-5.84126 9.26294,-8.76199 15.2204,-8.76199 7.0704,0 12.07918,2.31136 15.02518,6.93302 3.01147,4.62166 4.51754,12.09976 4.51754,22.43432 v 53.72634 h 22.78181 v -60.75509 c 0,-26.76712 -11.06407,-40.1509 -33.19181,-40.1509 -14.79546,0 -25.92502,6.80453 -33.38822,20.41277 -1.89853,-6.09804 -5.46552,-11.0091 -10.70286,-14.73211 -5.17187,-3.78719 -11.22834,-5.68066 -18.16781,-5.68066 z" style="font-weight:600;font-size:195.621px;line-height:0;font-family:'Segoe UI';-inkscape-font-specification:'Segoe UI Semi-Bold';letter-spacing:-0.585739px;word-spacing:0px;fill:#ffffff;stroke-width:8.11296;paint-order:stroke fill markers" id="path15"/>
			<path d="m 644.05686,405.85749 v 59.63665 c 0,28.3242 12.02391,42.48606 36.07211,42.48606 14.11094,0 24.51199,-6.04186 31.20308,-18.12511 h 0.39753 v 15.78624 h 23.05388 v -99.78384 h -23.05388 v 57.39581 c 0,7.99055 -2.21925,14.45418 -6.6579,19.39143 -4.37239,4.93724 -9.9711,7.40526 -16.79469,7.40526 -14.11094,0 -21.16625,-8.96473 -21.16625,-26.89473 v -57.29777 z" style="font-weight:600;font-size:195.621px;line-height:0;font-family:'Segoe UI';-inkscape-font-specification:'Segoe UI Semi-Bold';letter-spacing:-0.585739px;word-spacing:0px;fill:#ffffff;stroke-width:8.21032;paint-order:stroke fill markers" id="path14"/>
		</g>
		<path d="m 520.30488,92.792498 h -14.1208 v 32.516322 h -9.59764 V 92.792498 h -6.73916 v -7.757464 h 6.73916 v -5.60254 c 0,-4.23182 1.37852,-7.698944 4.13296,-10.401372 2.75708,-2.703736 6.28792,-4.054952 10.59908,-4.054952 1.14704,0 2.16664,0.05852 3.05616,0.175568 a 12.185656,12.185656 0 0 1 2.34868,0.5293 v 8.187932 c -0.31212,-0.182072 -0.8622,-0.403156 -1.64512,-0.665856 -0.7842,-0.2601 -1.68544,-0.390148 -2.70244,-0.390148 -1.98712,0 -3.51392,0.619036 -4.58556,1.859712 -1.0716,1.240672 -1.60612,3.075672 -1.60612,5.5037 v 4.858656 h 14.1208 v -9.050156 l 9.52096,-2.898808 v 11.948964 h 9.59896 v 7.757464 h -9.59768 V 111.6367 c 0,2.48395 0.44868,4.23181 1.34992,5.2501 0.90124,1.01829 2.31748,1.52809 4.25264,1.52809 0.5462,0 1.20556,-0.13005 1.97676,-0.39015 a 9.3349672,9.3349672 0 0 0 2.01836,-0.94156 v 7.8355 c -0.60212,0.33942 -1.5996,0.65284 -2.99764,0.94025 a 20.472423,20.472423 0 0 1 -4.133,0.43047 c -3.9964,0 -6.99404,-1.06251 -8.9916,-3.19272 -1.99888,-2.12892 -2.99768,-5.33464 -2.99768,-9.61848 z m -62.95316,12.653832 c 0,4.20451 0.95328,7.41673 2.86112,9.63799 1.90524,2.21994 4.63496,3.32927 8.18664,3.32927 3.44892,0 6.07332,-1.10933 7.87448,-3.32927 1.80248,-2.22126 2.70504,-5.51151 2.70504,-9.87338 0,-4.33586 -0.93504,-7.606602 -2.80256,-9.814846 -1.86752,-2.206944 -4.48672,-3.309764 -7.855,-3.309764 -3.47232,0 -6.17088,1.15484 -8.08912,3.467124 -1.9208,2.310984 -2.8806,5.609046 -2.8806,9.892876 m -9.87336,0.31212 c 0,-6.65854 1.88056,-11.934656 5.64156,-15.827044 3.76104,-3.892388 8.98644,-5.837932 15.671,-5.837932 6.29568,0 11.2116,1.874016 14.75156,5.622048 3.53864,3.749336 5.3086,8.809568 5.3086,15.181998 0,6.5298 -1.8818,11.72788 -5.64156,15.59296 -3.76104,3.86638 -8.88108,5.79762 -15.35888,5.79762 -6.24236,0 -11.19728,-1.8337 -14.86728,-5.50371 -3.67,-3.6674 -5.505,-8.67821 -5.505,-15.02594 M 426.12812,95.611974 c 0,1.359024 0.43048,2.422828 1.29268,3.194024 0.86096,0.769896 2.76744,1.742662 5.7196,2.917012 3.78704,1.51638 6.44528,3.22003 7.97336,5.11355 1.52808,1.89353 2.29144,4.1876 2.29144,6.87573 0,3.78705 -1.45652,6.83021 -4.36836,9.12949 -2.91312,2.29798 -6.84972,3.44632 -11.8124,3.44632 -1.67116,0 -3.51916,-0.20158 -5.54404,-0.60734 -2.02356,-0.40315 -3.74152,-0.91945 -5.14996,-1.54759 v -9.32326 a 23.337418,23.337418 0 0 0 5.56224,2.85849 c 1.98452,0.70617 3.78576,1.05861 5.40616,1.05861 2.14192,0 3.722,-0.29912 4.74032,-0.90125 1.0196,-0.59822 1.52808,-1.60611 1.52808,-3.01585 0,-1.307 -0.528,-2.40982 -1.58664,-3.31107 -1.05728,-0.90124 -3.06264,-1.94034 -6.01348,-3.11468 -3.49832,-1.46306 -5.981,-3.10819 -7.44404,-4.93669 -1.46304,-1.8285 -2.19392,-4.152484 -2.19392,-6.973264 0,-3.630988 1.44356,-6.614328 4.33064,-8.95262 2.8832,-2.336996 6.62604,-3.50614 11.22328,-3.50614 1.40976,0 2.99116,0.15606 4.74032,0.46948 1.75048,0.31472 3.21224,0.719172 4.38788,1.214664 v 9.01244 c -1.25368,-0.837516 -2.71676,-1.554092 -4.38788,-2.156224 -1.67244,-0.600828 -3.32928,-0.90124 -4.97572,-0.90124 -1.80248,0 -3.20572,0.352432 -4.211,1.0573 -1.00656,0.706172 -1.50856,1.672444 -1.50856,2.900108 m -45.60322,9.834356 c 0,4.20451 0.95326,7.41673 2.86109,9.63799 1.90522,2.21994 4.63496,3.32927 8.18661,3.32927 3.44892,0 6.07333,-1.10933 7.87452,-3.32927 1.80248,-2.22126 2.70504,-5.51151 2.70504,-9.87338 0,-4.33586 -0.93508,-7.606602 -2.80258,-9.814846 -1.86752,-2.206944 -4.48542,-3.309764 -7.85371,-3.309764 -3.47492,0 -6.17085,1.15484 -8.09169,3.467124 -1.91952,2.310984 -2.87928,5.609046 -2.87928,9.892876 m -9.87338,0.31212 c 0,-6.65854 1.88052,-11.934656 5.64154,-15.827044 3.76234,-3.892388 8.98644,-5.837932 15.6723,-5.837932 6.2944,0 11.21156,1.874016 14.75024,5.622048 3.53864,3.749336 5.30864,8.809568 5.30864,15.181998 0,6.5298 -1.88056,11.72788 -5.64156,15.59296 -3.76104,3.86638 -8.87981,5.79762 -15.35757,5.79762 -6.24239,0 -11.1973,-1.8337 -14.86858,-5.50371 -3.67002,-3.6674 -5.50501,-8.67821 -5.50501,-15.02594 m -4.07837,-21.390572 c 0.75689,0 1.43705,0.05332 2.03789,0.157364 0.60082,0.104036 1.10931,0.234088 1.52809,0.391448 v 9.597668 c -0.4968,-0.36414 -1.22117,-0.710072 -2.17443,-1.0378 -0.95328,-0.325124 -2.10941,-0.488984 -3.46714,-0.488984 -2.3253,0 -4.29033,0.979272 -5.89646,2.939124 -1.60611,1.957248 -2.40982,4.974402 -2.40982,9.048852 v 20.33327 h -9.48062 V 85.033734 h 9.48062 v 6.346424 h 0.15608 c 0.86222,-2.193936 2.16792,-3.910592 3.91839,-5.149968 1.75046,-1.240672 3.85205,-1.862312 6.3074,-1.862312 m -36.35669,34.047012 c 1.40974,0 2.96513,-0.32513 4.6623,-0.98058 a 19.585484,19.585484 0 0 0 4.70127,-2.58539 v 8.81478 c -1.51507,0.86222 -3.23173,1.51507 -5.15257,1.95854 -1.91823,0.44477 -4.02894,0.66586 -6.3269,0.66586 -5.92897,0 -10.74862,-1.87272 -14.45633,-5.62205 -3.70902,-3.74543 -5.56353,-8.53386 -5.56353,-14.35749 0,-6.47647 1.89353,-11.81241 5.68318,-16.00521 3.78444,-4.192804 9.15159,-6.287904 16.10016,-6.287904 1.77646,0 3.57116,0.228888 5.38794,0.685364 1.81421,0.457772 3.25645,0.985776 4.32805,1.586604 v 9.090472 c -1.46304,-1.071608 -2.95731,-1.901328 -4.48671,-2.489148 a 12.960752,12.960752 0 0 0 -4.68047,-0.88174 c -3.73503,0 -6.75219,1.214664 -9.05017,3.643992 -2.29928,2.429332 -3.44892,5.70658 -3.44892,9.83436 0,4.07315 1.10542,7.24767 3.31107,9.51963 2.20694,2.27327 5.20459,3.40861 8.99163,3.40861 m -28.75658,6.89523 h -9.48063 V 85.033734 h 9.48063 z m -10.4612,-51.91063 c 0,-1.5671 0.56832,-2.879304 1.70495,-3.937908 1.13663,-1.057304 2.48785,-1.586604 4.05495,-1.586604 1.67114,0 3.05616,0.542308 4.15248,1.62562 1.09762,1.084612 1.64643,2.383812 1.64643,3.898892 0,1.541088 -0.56181,2.835084 -1.68544,3.87808 -1.12363,1.0456 -2.49435,1.5671 -4.11347,1.5671 -1.62042,0 -2.98464,-0.528004 -4.09397,-1.585308 -1.11062,-1.059904 -1.66463,-2.344796 -1.66463,-3.859872 m -8.15932,-4.270832 v 56.181462 h -9.75373 V 81.273998 h -0.15606 l -17.43706,44.034822 h -6.46347 L 231.16411,81.273998 h -0.11704 v 44.034822 h -9.01115 V 69.127358 h 13.98685 l 16.14177,41.647112 h 0.23409 l 17.04301,-41.647112 z" class="fill-current-color fill-link-text-forced-colors color-text-subtle" id="path2" style="fill:#ffffff;fill-opacity:1;stroke-width:1.3005"/>
	</g>
	<g id="g12" transform="matrix(0.13326477,0,0,0.13326477,49.098536,69.202695)">
		<rect fill="#f25022" width="475.17627" height="475.17627" id="rect1" x="0" y="0"/>
		<rect x="524.65088" fill="#7fba00" width="475.16895" height="475.16895" id="rect2" y="0"/>
		<rect y="524.83105" fill="#00a4ef" width="475.16943" height="475.16895" id="rect3" x="0"/>
		<rect x="524.65088" y="524.83105" fill="#ffb900" width="475.16895" height="475.16895" id="rect4"/>
	</g>
</svg>