<?xml version="1.0" ?>
<svg xmlns="http://www.w3.org/2000/svg" viewBox="0 0 109.987 107.5">
	<path d="M 57.5,0.0 L 64.976,0.0 L 64.976,10.9 C 77.051,9.362 89.676,9.475 101.263,13.575 C 105.625,15.062 110.375,18.462 109.951,23.662 C 110.001,42.874 110.001,62.099 109.951,81.325 C 110.389,86.588 105.513,89.963 101.101,91.437 C 89.5,95.287 77.013,95.749 64.976,94.037 L 64.976,107.5 L 57.188,107.5 C 38.15,104.025 19.062,100.85 0.0,97.5 L 0.0,10.025 C 19.163,6.675 38.35,3.413 57.5,0.0" fill="#a33639"/>
	<path d="M 64.975,14.7 C 76.137,13.162 87.762,13.212 98.613,16.525 C 101.6,17.638 105.6,18.975 106.275,22.538 C 105.775,25.451 102.738,26.763 100.337,27.813 C 89.0,31.638 76.738,32.0 64.975,30.225 L 64.975,14.7" fill="#fff"/>
	<path d="M 90.575,34.15 C 96.075,33.338 101.812,32.15 106.263,28.575 C 105.989,33.95 106.688,39.387 105.888,44.712 C 103.651,47.375 100.101,48.325 96.901,49.237 C 86.463,51.7 75.575,51.763 64.975,50.4 L 64.975,34.2 A 100.252,100.252 0.0 0,0 90.575,34.15 L 90.575,34.15 M 25.512,32.862 C 28.425,32.65 31.324,32.45 34.249,32.225 C 38.437,46.225 42.412,60.3 46.55,74.312 C 43.662,74.124 40.775,73.912 37.912,73.65 A 494.03,494.03 0.0 0,0 35.512,64.287 A 251.751,251.751 0.0 0,1 24.012,63.963 A 989.789,989.789 0.0 0,1 21.762,72.825 A 748.84,748.84 0.0 0,0 14.437,72.3 C 18.088,59.138 21.887,46.025 25.512,32.862 L 25.512,32.862" fill="#fff"/>
	<path d="M 25.575,57.213 C 26.838,51.362 28.713,45.65 29.551,39.713 C 30.676,45.638 32.413,51.413 33.838,57.263 C 31.075,57.25 28.325,57.237 25.575,57.213 L 25.575,57.213" fill="#a33639"/>
	<path d="M 90.65,54.138 C 96.137,53.326 101.838,52.138 106.262,48.576 C 106.012,53.938 106.65,59.35 105.912,64.676 C 103.724,67.351 100.175,68.301 96.987,69.214 C 86.525,71.7 75.6,71.763 64.975,70.412 L 64.975,54.2 A 99.753,99.753 0.0 0,0 90.65,54.138 L 90.65,54.138 M 90.6,74.138 C 96.1,73.338 101.812,72.138 106.262,68.576 C 105.999,73.938 106.675,79.376 105.887,84.701 C 102.35,88.551 96.738,89.263 91.874,90.251 A 91.85,91.85 0.0 0,1 64.925,90.351 C 65.012,84.964 64.975,79.589 64.975,74.202 A 99.456,99.456 0.0 0,0 90.6,74.138" fill="#fff"/>
</svg>