<?xml version="1.0" ?>
<svg xmlns="http://www.w3.org/2000/svg" viewBox="0 0 300 300" shape-rendering="geometricPrecision" text-rendering="geometricPrecision" image-rendering="optimizeQuality" fill-rule="evenodd" clip-rule="evenodd">
	<path name="slice_l" fill="#c4373c" d="M 168.5,29.6 C 186.677,36.3673 193.343,40.0339 197.3,43 L 90.5,240.5 C 59.5233,214.884 42.5233,181.884 39.5,141.5 C 38.5021,114.338 38.1688,87.0051 38.5,59.5 C 68.7268,58.7038 91.3935,50.8704 111.5,36 C 129.723,27.4329 148.723,25.2663 168.45,29.6 Z"/>
	<path name="slice_r" fill="#ba141a" d="M 199.5,44.5 C 208.97,50.2323 214.97,52.899 221.5,55.5 C 224.505,56.2766 227.838,57.2766 231.5,58 C 233.435,58.1495 235.435,58.4828 237.5,58.5 C 245.15,59.1433 252.817,59.4766 260.5,59.5 C 260.831,88.0049 260.498,116.338 259.5,144.5 C 258.646,152.914 257.313,161.247 255.0,169.5 C 254.129,171.936 253.129,174.603 252.5,177.5 C 249.091,185.981 245.424,194.314 241.5,202.5 C 232.057,217.139 223.057,227.639 212.5,237 C 191.404,252.295 170.238,267.462 149,282.5 C 129.051,269.039 109.551,255.039 90.5,240.5 L 197.3,43 Z"/>
	<polygon points="150,58.3 122.5,86.3 141.3,86.3 141.3,130.3 158.2,130.3 158.2,86 177.5,86" fill="white"/>
	<polygon points="150,241 122.5,213 141.3,213 141.3,169 158.2,169 158.2,213.3 177.5,213.3" fill="white"/>
	<polygon points="129.6,148.2 101.6,120.7 101.6,139.5 57.6,139.5 57.6,156.4 101.9,156.4 101.9,175.7" fill="white"/>
	<polygon points="170.4,148.2 198.4,120.7 198.4,139.5 242.4,139.5 242.4,156.4 198.1,156.4 198.1,175.7" fill="white"/>
</svg>