<svg viewBox="0 0 128 128" fill="none" xmlns="http://www.w3.org/2000/svg">
<g clip-path="url(#clip0_211_964)">
<path d="M88.3811 61.8181L64.0066 74.7136L39.6191 61.8181V44.9427L64.0066 32.0469L88.3811 44.9427V61.8181Z" fill="#3D87CF"/>
<path fill-rule="evenodd" clip-rule="evenodd" d="M64.0079 29L91.4295 43.3938V63.3684L64.0079 77.762L36.5723 63.3687V43.3935L64.0079 29ZM40.6643 45.9382V60.824L64.0074 73.0702L87.3374 60.8243V45.9379L64.0074 33.6918L40.6643 45.9382Z" fill="black"/>
<path fill-rule="evenodd" clip-rule="evenodd" d="M63.8403 54.575L88.0126 41.8438L89.9057 45.7563L63.8363 59.4757L36.5723 45.2141L39.6199 42.7138L63.8403 54.575Z" fill="black"/>
<path d="M54.8572 83.1539L27.4287 96.0496L0 83.1539V66.2915L27.4287 53.3828L54.8572 66.2784V83.1539Z" fill="#F3632E"/>
<path fill-rule="evenodd" clip-rule="evenodd" d="M27.4283 50.332L54.8572 64.7255V84.7008L27.4287 99.094L0 84.7008V64.7396L27.4283 50.332ZM27.4292 55.0241L4.09108 67.2831V82.1561L27.4287 94.4025L50.7661 82.1561V67.2702L27.4292 55.0241Z" fill="black"/>
<path fill-rule="evenodd" clip-rule="evenodd" d="M27.2625 76.2916L52.9643 62.5234L54.8578 66.5433L29.3143 80.2267V96.0473H25.096V80.1646L1.14844 68.0633L3.04897 64.0472L27.2625 76.2916Z" fill="black"/>
<path d="M124.952 83.1631L99.0337 96.0496L73.1426 83.1631V66.2692L99.0337 53.3828L124.938 66.2692L124.952 83.1631Z" fill="#912697"/>
<path fill-rule="evenodd" clip-rule="evenodd" d="M100.557 50.332L127.984 64.7145L128 84.711L100.557 99.094L73.1426 84.7109V64.7153L100.557 50.332ZM100.558 55.0242L77.2336 67.2614V82.1648L100.558 94.4021L123.907 82.1647L123.895 67.2622L100.558 55.0242Z" fill="black"/>
<path fill-rule="evenodd" clip-rule="evenodd" d="M100.398 77.4708L126.106 65.5703L128 69.045L102.464 80.8662V96.0466H98.2442V80.8244L73.1426 69.1438L75.0443 65.6728L100.398 77.4708Z" fill="black"/>
<path d="M88.3811 83.1539L64.0066 96.0496L39.6191 83.1539V66.2784L64.0066 53.3828L88.3811 66.2784V83.1539Z" fill="#FAC705"/>
<path fill-rule="evenodd" clip-rule="evenodd" d="M64.0079 50.332L91.4295 64.7257V84.7004L64.0079 99.094L36.5723 84.7007V64.7253L64.0079 50.332ZM40.6643 67.2701V82.1559L64.0074 94.4022L87.3374 82.1562V67.2698L64.0074 55.0238L40.6643 67.2701Z" fill="black"/>
<path fill-rule="evenodd" clip-rule="evenodd" d="M63.8403 78.4217L89.5349 65.5703L91.4295 69.3223L65.8928 82.0947V96.0466H61.6736V82.037L36.5723 69.4296L38.4732 65.6809L63.8403 78.4217Z" fill="black"/>
</g>
<defs>
<clipPath id="clip0_211_964">
<rect width="128" height="128" fill="white"/>
</clipPath>
</defs>
</svg>