<?xml version="1.0" ?>
<!-- Generator: Adobe Illustrator 23.0.1, SVG Export Plug-In . SVG Version: 6.00 Build 0)  -->

<svg xmlns:x="http://ns.adobe.com/Extensibility/1.0/" xmlns:i="http://ns.adobe.com/AdobeIllustrator/10.0/" xmlns:graph="http://ns.adobe.com/Graphs/1.0/" xmlns="http://www.w3.org/2000/svg"  version="1.1" id="Livello_1" x="0px" y="0px" viewBox="0 0 457 400" style="enable-background:new 0 0 457 400;" xml:space="preserve">
	<style type="text/css">
	.st0{fill:#8C193F;}
	.st1{fill:#D23062;}
	.st2{fill:#E8467C;}
	.st3{fill:#BC1948;}
	.st4{opacity:0.1;enable-background:new    ;}
	.st5{opacity:0.2;enable-background:new    ;}
	.st6{fill:url(#SVGID_1_);}
	.st7{fill:#FFFFFF;}
</style>
	<g id="Color">
		<path class="st0" d="M85.7,200h342.9l0,0v181c0,10.5-8.5,19-19,19H104.8c-10.5,0-19-8.5-19-19V200L85.7,200z"/>
		<path class="st1" d="M104.8,0h304.8c10.5,0,19,8.5,19,19v181l0,0H85.7l0,0V19C85.7,8.5,94.2,0,104.8,0z"/>
		<path class="st2" d="M437.9,342.9H85.7V200h342.9l27.9,119.5c2.4,10.2-4,20.5-14.2,22.9C440.8,342.7,439.4,342.9,437.9,342.9z"/>
		<path class="st3" d="M437.9,57.1H85.7V200h342.9l27.9-119.5c2.4-10.2-4-20.5-14.2-22.9C440.8,57.3,439.4,57.1,437.9,57.1z"/>
		<g>
			<path class="st4" d="M232.2,73.5H85.7v261.9h146.5c10.6,0,19.2-8.6,19.2-19.2V92.7C251.4,82.1,242.8,73.6,232.2,73.5z"/>
			<path class="st5" d="M221.7,84h-136v261.9h136c10.6,0,19.2-8.6,19.2-19.2V103.2C240.9,92.6,232.3,84,221.7,84z"/>
			<path class="st5" d="M221.7,84h-136v240.9h136c10.6,0,19.2-8.6,19.2-19.2V103.2C240.9,92.6,232.3,84,221.7,84z"/>
			<path class="st5" d="M211.2,84H85.7v240.9h125.5c10.6,0,19.2-8.6,19.2-19.2V103.2C230.4,92.6,221.8,84,211.2,84z"/>
		</g>
		<linearGradient id="SVGID_1_" gradientUnits="userSpaceOnUse" x1="39.7115" y1="335.5291" x2="188.8599" y2="77.1964" gradientTransform="matrix(1 0 0 -1 0 406.3628)">
			<stop offset="0" style="stop-color:#C32050"/>
			<stop offset="0.5" style="stop-color:#BC1948"/>
			<stop offset="1" style="stop-color:#9C1942"/>
		</linearGradient>
		<path class="st6" d="M19,85.7h190.5c10.5,0,19,8.5,19,19v190.5c0,10.5-8.5,19-19,19H19c-10.5,0-19-8.5-19-19V104.8   C0,94.2,8.5,85.7,19,85.7z"/>
		<path class="st7" d="M66.7,138.1h39.8c18.1-1.3,36,4.2,50.2,15.4c12,11.8,18.2,28.2,17,44.9c0.2,11.7-2.7,23.2-8.4,33.3   c-5.6,9.6-13.9,17.3-23.8,22.3c-11.1,5.4-23.4,8.1-35.7,7.9H66.7V138.1z M106,242c7.9,0.2,15.7-1.6,22.7-5.1   c6.3-3.3,11.4-8.5,14.6-14.9c3.5-7.2,5.3-15.1,5.1-23.1c0.7-11.1-3.2-22-10.8-30.1c-8.6-7.5-19.8-11.3-31.2-10.5H90.8V242H106z"/>
	</g>
</svg>