<?xml version="1.0" ?>
<svg xmlns="http://www.w3.org/2000/svg" version="1.2" viewBox="0 0 1548 276">
	<defs>
		<clipPath clipPathUnits="userSpaceOnUse" id="cp1">
			<path d="m-581.14-1186.56h2710.28v3510.14h-2710.28z"/>
		</clipPath>
	</defs>
	<style>
		.s0 { fill: #ff8826 } 
		.s1 { fill: #1c3767 } 
	</style>
	<g id="Clip-Path: Page 1" clip-path="url(#cp1)">
		<g id="Page 1">
			<path id="Path 27" class="s0" d="m706 9c10 7.5 10.9 19.3 10.7 31-0.9 9.5-4.7 18.2-8.9 26.6 26.1-19.1 51.6-39.5 81-50.8 14.7-5.7 29.9-10.8 45.7-13.7 12.1-2 26.7-3.1 37.6 2.4 7.3 3.1 14.4 10.2 16.2 18 2.6 10 2.2 22.1-1.6 31.5l-5.7 12.6c21.7-16.2 43.4-32.6 66.8-44.6 22.8-10.4 46.3-18.6 72.2-21.7 16.2-1.1 33 3.4 40.3 19.1 2.7 7.7 3.8 16.8 2.2 25.2-3.5 16.2-11.7 30.4-24.3 42.6-8 8-16.9 14-26.2 17.7-14.8 6.5-30.7 10-48.2 9.3-14.9-2-32.4-10.4-36.1-26.8-0.9-3.3-1.1-7.1-1.1-10.8 1.1 7.5 8.6 13 14.8 16.4 12.6 6.2 29.5 3.7 39.4-6 4.9-5.1 8-11.1 6.9-18.2-0.5-5.8-3.1-12-8.9-14.2-8.6-4.6-20.8-3.3-30.5-1.5-18.4 3.3-35 10.6-51.2 19.7-13.3 8.9-27 16.6-39.2 28.1-11 9.8-21.7 21.1-32.1 31.9h-10.2c8-9.9 16.9-19.7 19.3-32.1 3.1-11.1 0.4-22.8-6-31.5-6.2-7-13.7-12.8-21.9-15.2-13.3-5.1-28.6-1.2-41.4 1.7-26.1 6-48.7 20.6-70.6 36.4-14.9 11.9-28.8 26.3-42.1 40.7-3.3 0.3-6.9 0-10.4 0 8.2-10.1 17-19.9 19.2-32.5 1.4-6.2 2-14.2-0.6-20.2-2.2-8-8-15.7-15.5-20.2-10.9-7.5-25-10.2-38.8-7.3-14.6 2.7-29 6.2-42 12.9-14.4 6.6-27.9 16.2-41.5 25.5-15.5 11.9-29.8 27-43.8 41.8h-9.3c17.1-20.6 34.5-42.5 56-59.3 28.6-21.8 56.5-44.6 88.6-57.4 19.5-7.8 39.6-14.2 61.8-16 11-0.2 21 2.4 29.4 8.9z"/>
			<path id="Path 28" fill-rule="evenodd" class="s1" d="m17.8 161.9h39.9l14.6 58.7h0.9c0.9-4.9 1.5-10.2 2.6-14.8l12.2-43.9h39.2l17.7 111.7h-37.4l-5.3-61.2h-0.7c-0.6 3.8-1.5 7.5-2.6 11.1l-15.3 50.1h-22.6l-13.9-47.2c-1.2-4.9-2-9.3-2.3-14h-1.3c-0.2 4.4-0.7 9.1-1.1 13.5l-4.4 47.7h-37.4zm132.4 0h38.7v111.6h-38.7zm54.2 0h39.4c35.9 0 63.1 16.4 63.1 57.7 0 33-22.1 54-53.3 54h-49.2zm38.8 78.3h2.4c12.8 0 22.8-6.2 22.8-20.9 0-15.7-8.6-22.4-22.8-22.4h-2.4zm102.7-78.2h48.9c24.8 0 43.2 13.3 43.2 41 0 22.8-13.5 37-35.2 37h-19.7v33.7h-37.2zm37.2 49.9h3.8c6.8 0 14.1-1.1 14.1-10.2 0-8.7-7.9-9.1-14.4-9.1h-3.5zm62.2-50.1h71.5v30.6h-32.5v10.6h29.9v29.1h-29.9v11h33.7v30.4h-72.7zm88.2 0h37.2l34.5 62h1.1c-1.5-9.3-3.1-19-3.1-28.3v-33.7h37v111.9h-37l-34.1-58.7h-1.1c1.3 7.7 2.4 14.8 2.4 22.4v36.3h-36.9zm123.1 0h37l34.7 61.8h1.1c-1.5-9.3-3.1-19-3.1-28.3v-33.5h37v111.7h-37l-34.1-58.7h-1.1c1.3 7.7 2.5 14.8 2.5 22.3v36.4h-37zm149 0h45.2c20.6 0 41.6 5.1 41.6 30.8 0 9.7-4.7 19.5-14.2 22.6v0.9c11.8 4.2 19.1 13.1 19.1 26.6 0 22.8-20.4 30.8-39 30.8h-52.7zm39.4 42.7c5.8 0 12-0.4 12-8.2 0-8.2-7.1-7.7-12.9-7.7h-2.6v15.9zm-3.6 42.1h4.5c6.4 0 15.5 0 15.5-9.3 0-9.3-10-9-16.2-9h-3.8zm94.4 27h-41l37-111.7h42.9l37.9 111.7h-41l-3.5-14h-29.2zm25.6-40.3l-4.6-19.7c-1.1-4.9-1.8-9.8-2.4-14.4h-1.6l-6.9 34.1zm53.4-71.4h37.2l34.8 62.1h1.1c-1.6-9.3-3.3-19.1-3.3-28.6v-33.5h36.9v111.7h-36.9l-34.1-58.5h-1.2c1.4 7.6 2.5 14.9 2.5 22.2v36.3h-37zm192.9 45.9q-4.7-4.4-10.4-7.8-5.8-3.3-12.7-3.3-4.4 0-8.2 1.6-3.7 1.7-6.8 4.6-2.9 3.1-4.4 6.9-1.8 4-1.8 8.4 0 4.7 1.8 8.7 1.7 3.9 4.8 6.8 2.9 2.9 6.9 4.7 4 1.5 8.4 1.5 6.9 0 12.4-2.6 5.3-2.9 10-7.6l-1.1 41.7q-2.5 1.1-6 2-3.8 0.7-7.5 1.3-4 0.7-8 0.9-3.8 0.2-6.4 0.2-11.6 0-21.5-4.4-10-4.4-17.3-12-7.5-7.5-11.7-17.9-4.2-10.2-4.2-22.2 0-11.9 4.4-22.8 4.2-10.6 12-18.6 7.5-7.8 17.7-12.4 10.4-4.7 22.1-4.7 6.9 0 13.5 1.4 6.7 1.1 12.9 3.3zm61.1-47q12.2 0 23.2 4.2 10.9 4 18.8 11.5 8.2 7.6 12.9 18.2 4.6 10.6 4.6 23.9 0 13.3-4.6 24-4.7 10.6-12.9 17.9-7.9 7.3-18.8 11.3-11 3.8-23.2 3.8-12.4 0-23.3-3.8-10.8-4-18.8-11.3-8.2-7.3-12.8-17.9-4.7-10.7-4.7-24 0-13.3 4.7-23.9 4.6-10.6 12.8-18.2 8-7.5 18.8-11.5 10.9-4.2 23.3-4.2zm0 36.6q-4.7 0-8.4 1.7-3.8 1.8-6.5 4.7-2.4 3.1-3.9 7.1-1.4 3.7-1.4 8.2 0 9.7 5.6 15.5 5.5 6 14.6 6 9.1 0 14.6-6 5.5-5.8 5.5-15.5 0-4.5-1.5-8.2-1.4-4-4-7.1-2.4-2.9-6.2-4.7-3.8-1.7-8.4-1.7zm62-34.8h47.4q9 0 17.2 2 8.2 2.2 14.4 6.8 6 4.7 9.5 12 3.8 7.3 3.8 17.9 0 6.3-1.3 10.9-1.1 4.7-3.8 8-2.6 3.3-6.4 5.7-4 2.5-9.5 4.3v0.8q1.5 1.4 3.3 2.7 1.8 1.6 3.3 4l21.7 33.4v2.7h-43.4l-17.3-35.7h-0.6v35.7h-38.3zm38.3 49.4h2.6q2.5 0 4.9-0.2 2.2-0.4 4-1.3 2-0.9 3.1-2.9 1.1-1.8 1.1-4.9 0-3.3-1.1-5.1-1.1-1.7-2.7-2.9-1.7-1.1-3.9-1.3-2.5-0.2-4.9-0.2h-3.1zm63.1 61.8l-1.8-2.7v-108.5h49.6q9.5 0 17.5 2.4 8 2.7 14 7.8 5.7 5.1 9 12.6 3.4 7.8 3.4 18.2 0 8.4-2.5 15.3-2.6 6.8-7.1 11.5-4.6 4.9-11.3 7.5-6.6 2.5-14.8 2.5h-19.9v33.4zm36.1-61.4h3.7q2.7 0 5.1-0.2 2.7-0.4 4.7-1.5 2-1.1 3.3-3.1 1.3-2 1.3-5.4 0-3.3-1.3-5.1-1.3-1.7-3.5-2.6-2-0.9-4.7-1.1-2.4-0.2-4.9-0.2h-3.7zm6.6 35.2h9.3v26.1h-9.3zm12.9 0h8.8l8.2 14.7h0.2q-0.2-1.6-0.4-3.4-0.2-1.7-0.2-3.3v-8h8.8v26.4h-8.8l-8.2-13.7h-0.3q0.3 1.3 0.5 2.6 0.2 1.1 0.2 2.5v8.6h-8.8zm47.6 10.6q-1.1-1.1-2.5-1.7-1.3-0.9-2.9-0.9-1.1 0-1.9 0.4-0.9 0.5-1.6 1.1-0.7 0.7-1.1 1.6-0.4 0.9-0.4 2 0 1.1 0.4 2 0.4 1.1 1.1 1.8 0.7 0.6 1.6 1.1 1.1 0.2 1.9 0.2 1.8 0 2.9-0.7 1.4-0.6 2.5-1.8l-0.3 10q-0.6 0.2-1.3 0.5-0.9 0.2-2 0.2-0.9 0.2-1.8 0.2-0.8 0-1.5 0-2.7 0-5.1-0.9-2.2-1.1-4-2.9-1.8-1.7-2.9-4.2-0.8-2.4-0.8-5.3 0-2.9 1.1-5.3 0.8-2.4 2.6-4.4 1.8-1.8 4.2-2.9 2.5-1.1 5.3-1.1 1.6 0 3.1 0.2 1.6 0.4 3.1 0.9zm6.9 7.3q0.9 0 1.8 0.2 0.9 0.2 1.5 0.9 0.9 0.7 1.4 1.3 0.4 0.9 0.4 2 0 0.9-0.4 1.8-0.5 0.9-1.4 1.3-0.6 0.7-1.5 0.9-0.9 0.2-1.8 0.2-0.9 0-1.8-0.2-0.9-0.2-1.7-0.9-0.7-0.4-1.1-1.3-0.5-0.9-0.5-1.8 0-1.1 0.5-2 0.4-0.6 1.1-1.3 0.8-0.7 1.7-0.9 0.9-0.2 1.8-0.2z"/>
		</g>
	</g>
</svg>