<?xml version="1.0" ?>
<svg xmlns="http://www.w3.org/2000/svg" viewBox="0 0 235.6 235.6">
	<style>
		.st0{fill:#E85815;}
	</style>
	<path d="M 185.42,23.91 C 185.42,23.91 190.28,27.09 196.46,32.82 C 198.1,34.29 201.11,37.11 203.4,39.95 L 204.96,41.91 C 205.08,42.27 204.85,42.13 204.47,41.79 C 203.14,40.56 201.56,39.1 199.78,37.33 C 198.55,36.29 198.31,36.82 199.87,38.58 L 204.4,43.31 C 213.01,53.28 220.22,64.48 225.69,76.55 C 226.51,78.5 227.22,80.16 227.83,81.56 C 227.84,81.58 229.93,86.55 231.41,90.44 C 233.18,93.9 233.18,91.7 232.24,85.96 C 232.24,85.96 231.56,82.69 230.64,79.44 C 230.61,79.32 229.44,75.7 228.89,74.49 C 225.91,66.71 223.32,61.1 222.95,60.29 C 222.57,59.56 222.32,59.98 222.95,61.82 L 223.05,62.08 C 223.87,64.09 224.65,66.17 225.42,68.24 C 225.89,69.29 225.63,69.32 225.35,68.77 C 224.82,67.57 224.28,66.37 223.79,65.15 C 214.06,44.4 197.53,30.06 184.12,21.75 C 181.12,20.0 182.09,21.56 185.42,23.91 L 185.42,23.91 M 220.09,67.62 C 232.81,91.24 238.06,119.83 232.49,149.11 C 230.58,158.5 227.06,169.05 222.6,177.73 C 222.08,178.69 221.65,178.59 222.39,176.83 C 223.25,175.07 224.06,173.24 224.76,171.24 C 227.03,165.08 229.07,158.33 230.43,151.82 C 230.8,149.46 230.41,149.65 230.12,150.76 C 229.73,152.31 229.3,153.86 228.85,155.41 L 228.83,155.45 C 228.49,156.59 228.14,157.73 227.78,158.86 L 227.04,161.11 C 224.99,168.36 222.32,175.37 219.04,181.99 C 218.18,183.77 216.99,184.66 219.62,178.46 C 220.58,176.09 222.79,171.55 225.14,164.51 C 227.49,157.47 227.88,156.1 228.1,154.6 C 228.41,152.35 228.31,151.29 227.91,152.83 C 223.22,171.57 215.95,185.61 204.38,198.73 C 204.28,198.85 204.22,198.92 204.23,198.9 C 201.43,202.11 200.83,202.54 199.37,203.85 C 198.84,204.32 198.5,203.82 199.29,202.95 C 200.25,201.89 200.48,201.63 202.25,199.47 C 202.95,198.61 203.37,198.02 204.29,196.85 C 216.02,181.82 223.93,165.15 228.07,144.98 C 229.26,137.33 227.82,138.36 227.15,141.92 C 225.21,154.07 220.36,168.23 214.81,178.56 C 211.22,185.59 207.54,190.93 205.49,193.67 C 204.88,194.52 204.35,195.16 203.94,195.63 C 203.7,195.91 203.34,196.29 203.34,196.29 C 203.0,196.63 203.0,196.51 203.26,196.05 L 205.8,192.23 C 207.79,189.06 208.62,188.11 211.15,182.8 C 213.29,177.9 216.57,170.34 217.64,167.48 C 217.73,167.25 217.81,167.03 217.81,167.03 C 218.88,164.08 219.61,161.85 219.78,161.24 C 221.1,156.75 224.56,145.94 224.71,129.44 C 224.71,129.44 224.62,124.04 224.56,122.12 L 224.56,122.23 C 224.52,120.52 224.46,119.41 224.4,118.72 C 224.25,116.52 224.01,114.31 223.65,112.11 C 222.67,106.54 221.0,100.31 218.75,94.15 C 218.5,93.73 218.48,94.01 218.59,94.35 C 221.45,103.16 223.06,112.43 223.71,121.85 C 223.97,127.46 223.79,131.07 223.79,131.07 C 223.78,131.67 223.73,133.36 223.73,133.48 C 222.8,151.63 217.02,168.0 211.68,178.85 L 211.66,178.89 C 200.63,200.85 174.47,222.96 146.3,230.18 L 143.41,230.8 C 142.0,231.1 142.24,230.41 144.0,229.82 L 145.93,229.28 C 170.51,221.79 193.84,203.61 205.51,182.57 C 206.28,181.18 207.02,179.78 207.73,178.36 C 207.94,178.0 207.94,177.58 207.61,178.06 C 207.61,178.06 196.61,196.64 181.29,207.85 C 171.33,215.13 161.03,221.09 149.32,225.13 C 147.66,225.18 150.82,223.89 151.72,223.5 C 158.52,220.52 165.03,216.87 171.12,212.62 C 173.31,211.09 175.52,209.53 177.68,207.9 C 181.44,205.06 185.06,202.02 188.23,198.62 C 193.7,192.75 198.13,186.01 202.31,179.19 C 202.64,178.66 202.96,178.13 203.28,177.6 C 209.65,167.1 214.24,155.44 216.72,143.45 C 217.01,142.01 217.3,140.39 217.55,138.77 C 217.94,136.15 218.29,133.16 218.53,130.93 L 218.6,130.08 C 218.82,127.46 218.91,124.82 218.91,122.22 C 218.47,116.04 217.31,117.8 217.27,118.84 C 217.79,135.11 214.38,151.87 207.24,166.88 C 205.19,171.17 204.21,172.73 204.21,172.73 C 203.15,174.27 202.54,174.97 204.8,170.19 C 204.8,170.19 207.1,165.63 208.85,160.58 C 208.85,160.58 210.3,156.63 210.93,153.71 C 211.95,148.95 213.08,144.25 213.54,140.97 C 213.6,139.68 213.21,140.08 212.83,141.17 C 212.08,144.35 209.38,154.15 209.38,154.15 C 206.98,161.36 203.8,168.34 199.93,174.9 C 198.48,177.46 195.18,181.97 193.17,185.02 C 193.01,185.26 192.85,185.48 192.67,185.7 L 191.22,187.48 C 182.85,197.84 172.5,206.49 160.53,212.32 C 160.53,212.32 159.52,212.78 158.4,213.29 C 157.4,213.74 156.81,213.33 157.55,212.52 C 158.84,211.1 162.12,209.34 164.27,208.03 C 166.82,206.48 169.28,204.8 171.67,203.01 C 176.5,199.39 180.99,195.32 185.08,190.89 C 185.57,190.36 186.06,189.82 186.54,189.28 L 189.37,185.93 C 194.59,179.48 198.94,172.47 202.06,165.3 C 202.93,162.81 202.97,162.29 202.26,163.55 C 200.35,167.98 198.09,172.28 195.51,176.4 C 194.81,177.42 194.09,178.08 195.78,175.3 C 205.15,158.39 211.48,139.14 211.93,121.18 C 212.1,115.97 211.81,110.89 211.11,105.98 L 210.31,101.32 C 207.78,88.55 202.66,77.04 196.62,67.45 C 195.6,65.97 195.26,66.3 195.56,66.91 C 196.13,67.98 196.69,69.06 197.23,70.16 C 198.02,71.62 200.3,75.97 202.0,81.19 C 202.55,82.86 204.55,88.76 205.77,96.17 C 205.84,96.54 205.91,97.01 205.98,97.5 C 206.13,98.51 206.27,99.55 206.38,100.61 C 206.4,100.93 206.2,101.47 205.96,100.57 L 205.26,96.18 L 204.88,94.1 C 204.87,94.0 204.85,93.91 204.85,93.91 C 204.25,91.2 203.29,87.64 201.81,83.84 C 198.97,76.55 196.07,72.36 195.5,71.57 C 195.5,71.57 180.54,47.17 162.93,39.96 C 162.05,39.6 162.6,40.05 162.84,40.22 C 163.08,40.39 169.27,44.57 169.27,44.57 C 179.16,51.48 186.8,60.85 186.8,60.85 C 186.8,60.85 191.87,67.32 196.36,75.14 C 197.77,77.6 198.9,79.86 199.77,81.81 C 201.25,86.09 200.27,85.5 199.75,84.26 C 192.58,68.35 181.12,55.24 168.28,47.27 C 159.85,41.89 147.49,35.69 134.17,33.32 C 128.68,32.28 123.12,31.9 117.85,32.08 L 117.94,32.06 C 117.94,32.06 108.36,32.31 100.34,34.46 C 97.34,35.43 97.69,35.6 98.65,35.62 C 99.22,35.5 103.56,34.63 109.42,33.91 C 109.92,33.87 110.76,34.21 108.16,34.85 L 105.96,35.26 C 105.96,35.26 103.18,35.81 100.6,36.36 C 97.68,37.03 94.97,37.67 91.21,38.84 L 90.04,39.26 C 76.08,45.16 64.25,51.7 53.94,63.14 C 36.33,82.67 29.16,110.32 33.83,136.07 C 36.1,148.58 41.17,160.58 48.82,170.75 C 53.89,177.5 60.18,183.26 66.93,188.29 C 70.33,190.82 73.87,193.18 77.49,195.39 C 78.99,196.31 80.96,197.99 82.66,198.42 C 84.12,198.79 85.52,198.55 83.72,197.15 L 76.29,191.68 C 75.22,190.57 75.85,190.4 78.1,191.28 C 78.45,191.42 89.39,196.96 91.33,197.74 C 93.58,198.64 98.25,200.88 98.98,199.98 C 99.17,199.74 99.19,199.08 98.38,198.53 C 97.55,197.96 97.39,197.15 98.19,197.36 C 99.88,197.88 101.4,198.34 102.0,198.51 C 102.61,198.68 105.81,199.51 105.81,199.51 C 105.81,199.51 103.72,199.0 105.79,199.51 C 107.86,200.02 114.13,202.17 118.47,203.92 C 122.34,205.47 126.07,207.93 127.68,211.15 C 128.85,213.49 129.48,215.66 129.32,217.98 C 129.06,221.77 129.58,221.24 128.77,224.6 C 128.77,224.6 128.55,226.47 128.46,227.09 C 128.15,228.47 127.73,229.74 126.61,230.85 C 123.43,234.0 122.34,234.24 122.34,234.24 C 121.56,234.64 120.63,234.94 119.38,235.09 C 116.94,235.41 109.28,235.56 106.86,235.65 C 104.42,235.76 101.37,235.21 98.92,234.77 C 96.2,234.28 92.74,233.26 90.07,232.41 C 86.68,231.33 77.75,226.64 75.7,225.77 C 74.57,225.3 66.19,221.54 66.19,221.54 C 32.09,206.37 7.72,175.04 2.04,138.15 C 1.08,131.9 0.66,125.6 0.84,119.36 C 0.52,88.32 11.64,59.13 29.7,36.88 C 30.16,36.39 30.13,37.03 29.35,38.01 C 29.35,38.01 26.16,42.55 22.91,48.22 C 20.93,52.0 19.19,55.81 17.68,59.58 C 17.55,60.0 17.81,60.1 18.02,59.63 C 25.69,43.97 36.96,30.27 50.73,19.95 C 50.83,19.87 50.91,19.81 50.99,19.74 C 51.44,19.43 51.61,19.66 50.66,20.6 L 50.46,20.75 C 49.95,21.1 48.85,22.03 48.14,22.64 C 43.13,26.63 37.23,32.83 36.03,34.12 C 31.85,38.94 28.13,43.94 24.92,49.42 C 24.07,50.89 23.29,52.36 22.54,53.84 C 22.21,54.82 22.43,54.72 23.05,53.84 C 29.9,42.76 38.34,33.23 48.69,24.96 L 49.21,24.51 C 63.47,12.56 81.0,4.88 99.42,1.81 C 119.35,-1.51 136.6,0.47 146.75,2.64 C 146.75,2.64 153.81,4.43 161.7,7.62 C 162.52,7.96 167.51,10.11 168.27,10.79 C 168.48,10.96 168.29,11.04 168.06,10.94 C 158.12,6.1 149.11,3.93 138.36,2.33 C 135.22,1.86 130.84,1.43 127.32,1.63 C 125.74,1.75 125.17,2.02 125.81,2.09 C 126.27,2.11 127.61,2.11 127.61,2.11 C 133.44,2.31 139.0,3.6 144.46,5.0 C 147.4,5.64 152.94,7.49 152.94,7.49 C 153.53,7.69 153.92,8.08 153.0,7.88 C 150.0,7.1 147.64,6.64 147.64,6.64 C 137.49,4.56 128.11,3.78 121.76,4.53 C 120.47,4.75 121.33,4.94 121.49,4.94 C 130.02,4.94 136.13,5.96 136.13,5.96 C 147.03,7.78 157.68,11.61 167.56,16.57 C 167.97,16.77 168.65,17.35 167.18,16.72 C 159.97,13.16 151.31,10.4 146.64,9.25 C 143.31,8.48 139.96,7.87 136.59,7.44 L 132.1,6.96 C 131.3,6.9 127.99,6.54 127.14,6.53 C 126.58,6.52 126.02,6.49 125.46,6.43 C 122.01,6.08 118.53,6.26 115.05,6.21 C 114.67,6.2 114.29,6.21 113.92,6.23 C 111.65,6.36 109.39,6.36 107.14,6.61 C 107.14,6.61 101.24,7.41 98.73,7.87 C 97.66,8.04 97.19,8.25 97.19,8.25 C 96.31,8.48 97.3,8.54 97.78,8.45 L 98.38,8.36 C 100.42,8.07 102.45,7.83 104.49,7.65 C 109.52,7.13 114.47,6.93 119.21,6.88 C 119.21,6.88 126.91,7.06 132.44,8.14 C 134.4,8.71 132.73,8.66 131.41,8.44 C 129.83,8.19 128.01,8.06 126.44,7.99 C 115.04,7.72 103.47,8.93 97.85,9.63 C 96.97,9.74 96.09,9.88 95.22,10.06 C 91.5,10.81 80.96,13.05 74.81,15.63 L 73.34,16.26 C 72.75,16.46 72.65,16.85 72.95,16.85 L 75.63,15.88 C 86.39,12.1 97.85,9.89 109.29,9.46 C 109.29,9.46 134.78,7.47 155.24,15.81 C 157.07,16.46 161.05,18.0 165.8,20.63 C 166.22,20.95 166.46,21.43 164.66,20.56 L 163.78,20.14 C 151.88,14.48 139.01,11.16 126.1,10.46 C 125.18,10.41 124.26,10.39 123.34,10.37 C 123.34,10.37 118.31,10.2 115.18,10.4 C 114.34,10.44 113.92,10.63 114.47,10.6 C 114.64,10.6 114.81,10.59 114.99,10.59 C 130.27,10.46 143.92,13.57 158.03,19.65 C 176.37,27.55 192.41,41.32 204.3,57.22 L 212.18,69.64 C 212.89,70.97 213.56,72.3 214.2,73.65 L 215.78,76.64 C 221.52,89.21 224.11,104.62 225.98,116.88 C 226.33,119.06 226.83,118.52 226.64,116.5 L 226.29,113.45 C 226.24,111.75 224.88,102.5 222.56,93.31 C 222.51,93.16 220.95,86.73 219.62,83.11 C 217.55,77.46 215.58,72.64 214.58,70.52 C 213.14,67.77 211.49,63.9 209.91,61.33 C 209.73,61.04 209.19,60.08 208.8,59.4 C 205.73,53.93 195.59,41.22 195.59,41.22 C 194.64,40.29 192.67,37.25 194.24,38.66 C 203.95,47.4 212.11,57.89 217.78,70.0 C 218.35,71.4 218.98,72.77 219.57,74.15 C 219.79,74.54 219.82,74.41 219.79,74.15 C 217.67,68.04 215.07,62.0 212.01,56.19 C 210.93,54.58 209.08,50.3 211.18,53.03 C 213.38,55.98 220.09,67.62 220.09,67.62 L 220.09,67.62 M 90.94,7.17 C 99.26,4.76 108.86,3.61 117.62,3.34 L 119.19,3.34 C 119.74,3.34 120.3,3.18 119.27,3.01 C 97.25,2.06 75.05,8.38 57.42,20.4 C 56.59,20.94 55.8,21.51 54.99,22.09 C 52.64,23.84 50.31,25.68 48.12,27.55 C 45.93,29.42 33.1,41.32 26.45,53.05 C 21.71,61.42 19.05,69.29 17.92,73.12 C 17.92,73.13 17.91,73.14 17.91,73.14 C 17.76,74.15 18.43,74.17 18.82,72.8 L 18.82,72.79 L 18.85,72.74 L 22.2,64.66 C 28.4,50.83 36.97,40.15 42.55,34.08 C 52.87,24.14 68.3,13.73 90.94,7.17 M 202.62,175.75 C 202.73,175.55 202.8,175.48 202.71,175.38 C 202.71,175.38 202.67,175.27 202.32,175.45 C 201.92,175.66 201.44,176.42 201.13,176.78 C 200.66,177.32 192.66,190.34 185.73,197.18 C 184.2,198.69 183.6,199.25 183.88,199.25 C 184.16,199.25 184.72,198.97 185.92,197.83 C 189.5,194.4 195.83,188.01 202.62,175.75" class="st0"/>
</svg>
