<?xml version="1.0" ?>
<svg xmlns="http://www.w3.org/2000/svg" viewBox="0 0 380 90" fill="none">
	<path d="M51.2002 11.6C51.2002 9.00001 53.9002 7.30001 56.2002 8.50001L83.1002 21.9C84.9002 22.8 86.0002 24.6 86.0002 26.6V76.9C86.0002 79.5 83.3002 81.2 81.0002 80L54.1002 66.6C52.3002 65.7 51.2002 63.9 51.2002 61.9V11.6Z" fill="#2BD659"/>
	<path d="M49.5 7.59996C50.6 6.59996 52.1 6.39996 53.4 7.09996L83.8 22.3C84.9 22.8 85.1 24.3 84.2 25.1L53 53.1C51.9 54.1 50.4 54.3 49.1 53.6L21 39.6C18.8 38.5 18.4 35.5 20.2 33.9L49.5 7.59996Z" fill="#0A307A"/>
	<path d="M6 18.6C6 16 8.7 14.3 11 15.5L38.8 29.4C40 30 40.7 31.2 40.7 32.5V80.4C40.7 83 38 84.7 35.7 83.5L7.9 69.6C6.7 69 6 67.8 6 66.5V18.6Z" fill="#2BD659"/>
	<path d="M365.2 68.9001C361.9 68.9001 358.9 68.1001 356.2 66.6001C353.6 65.1001 351.5 63.1001 349.9 60.5001C348.4 57.9001 347.6 54.9001 347.6 51.7001C347.6 48.4001 348.4 45.5001 349.9 42.9001C351.4 40.3001 353.5 38.3001 356.2 36.8001C358.9 35.3001 361.9 34.5001 365.2 34.5001C367.9 34.5001 370.5 35.0001 373 36.1001C375.5 37.1001 377.5 38.6001 379.3 40.6001L373.1 47.0001C371.9 45.7001 370.7 44.7001 369.5 44.1001C368.3 43.5001 367 43.2001 365.5 43.2001C364 43.2001 362.7 43.6001 361.6 44.3001C360.4 45.0001 359.5 46.0001 358.8 47.3001C358.1 48.6001 357.8 50.0001 357.8 51.6001C357.8 53.2001 358.1 54.6001 358.8 55.9001C359.5 57.2001 360.5 58.2001 361.7 58.9001C362.9 59.6001 364.3 60.0001 365.8 60.0001C367.2 60.0001 368.4 59.7001 369.6 59.1001C370.8 58.5001 371.9 57.6001 373 56.4001L379 62.7001C377.3 64.6001 375.3 66.1001 372.9 67.2001C370.4 68.4001 367.8 68.9001 365.2 68.9001Z" fill="#0A307A"/>
	<path d="M326 68.9001C322.6 68.9001 319.6 68.1001 316.8 66.6001C314.1 65.1001 311.9 63.0001 310.4 60.4001C308.8 57.8001 308 54.9001 308 51.7001C308 48.5001 308.8 45.6001 310.3 43.0001C311.8 40.4001 313.9 38.4001 316.6 36.9001C319.2 35.4001 322.2 34.6001 325.4 34.6001C328.7 34.6001 331.5 35.4001 334 37.0001C336.5 38.5001 338.5 40.7001 339.9 43.4001C341.4 46.1001 342.1 49.2001 342.1 52.7001V55.2001H318.5C319 56.2001 319.6 57.2001 320.3 58.0001C321.1 58.8001 322 59.4001 323.1 59.9001C324.2 60.3001 325.4 60.5001 326.6 60.5001C328 60.5001 329.2 60.3001 330.4 59.9001C331.5 59.4001 332.5 58.8001 333.3 58.0001L340 63.9001C337.9 65.7001 335.8 66.9001 333.6 67.7001C331.2 68.5001 328.7 68.9001 326 68.9001ZM318.1 48.2001H332C331.7 47.1001 331.1 46.2001 330.4 45.4001C329.7 44.6001 328.9 44.0001 328 43.6001C327.1 43.1001 326.1 42.9001 325 42.9001C323.9 42.9001 322.8 43.1001 321.9 43.5001C321 43.9001 320.2 44.5001 319.5 45.3001C319 46.1001 318.5 47.0001 318.1 48.2001Z" fill="#0A307A"/>
	<path d="M288.2 68.9001C285.1 68.9001 282.2 68.5001 279.5 67.8001C276.8 67.0001 274.5 66.0001 272.6 64.5001L277.4 57.7001C279.5 59.0001 281.4 59.9001 283.1 60.5001C284.8 61.0001 286.5 61.3001 288.2 61.3001C289.9 61.3001 291.2 61.1001 292.1 60.6001C293.1 60.1001 293.6 59.5001 293.6 58.7001C293.6 58.1001 293.3 57.6001 292.8 57.2001C292.3 56.8001 291.4 56.5001 290.2 56.3001L283.6 55.3001C280.3 54.8001 277.8 53.7001 276 52.0001C274.3 50.3001 273.4 48.1001 273.4 45.4001C273.4 43.1001 274 41.2001 275.1 39.6001C276.3 38.0001 277.9 36.7001 280 35.9001C282.1 35.0001 284.7 34.6001 287.6 34.6001C290 34.6001 292.4 34.9001 294.8 35.6001C297.2 36.3001 299.4 37.3001 301.4 38.6001L296.6 45.1001C294.8 44.1001 293.1 43.3001 291.5 42.8001C289.9 42.3001 288.2 42.0001 286.6 42.0001C285.3 42.0001 284.3 42.2001 283.5 42.7001C282.7 43.1001 282.3 43.7001 282.3 44.4001C282.3 45.1001 282.6 45.6001 283.2 46.0001C283.8 46.4001 284.8 46.7001 286.2 46.9001L292.8 47.9001C296.1 48.4001 298.6 49.4001 300.3 51.2001C302.1 52.9001 303 55.0001 303 57.6001C303 59.8001 302.4 61.7001 301.1 63.4001C299.8 65.1001 298 66.4001 295.8 67.4001C293.6 68.5001 291 68.9001 288.2 68.9001Z" fill="#0A307A"/>
	<path d="M251.9 68.9001C248.5 68.9001 245.5 68.1001 242.7 66.6001C240 65.1001 237.8 63.0001 236.3 60.4001C234.7 57.8001 233.9 54.9001 233.9 51.7001C233.9 48.5001 234.7 45.6001 236.2 43.0001C237.7 40.4001 239.8 38.4001 242.5 36.9001C245.1 35.4001 248.1 34.6001 251.3 34.6001C254.6 34.6001 257.4 35.4001 259.9 37.0001C262.4 38.5001 264.4 40.7001 265.8 43.4001C267.3 46.1001 268 49.2001 268 52.7001V55.2001H244.4C244.9 56.2001 245.5 57.2001 246.2 58.0001C247 58.8001 247.9 59.4001 249 59.9001C250.1 60.3001 251.3 60.5001 252.5 60.5001C253.9 60.5001 255.1 60.3001 256.3 59.9001C257.4 59.4001 258.4 58.8001 259.2 58.0001L265.9 63.9001C263.8 65.7001 261.7 66.9001 259.5 67.7001C257.1 68.5001 254.6 68.9001 251.9 68.9001ZM244 48.2001H257.8C257.5 47.1001 256.9 46.2001 256.2 45.4001C255.5 44.6001 254.7 44.0001 253.8 43.6001C252.9 43.1001 251.9 42.9001 250.8 42.9001C249.7 42.9001 248.6 43.1001 247.7 43.5001C246.8 43.9001 246 44.5001 245.3 45.3001C244.9 46.1001 244.4 47.0001 244 48.2001Z" fill="#0A307A"/>
	<path d="M195.2 68.3001V35.2001H205.3V37.5001C207.8 35.6001 210.8 34.6001 214.2 34.6001C216.8 34.6001 219.1 35.2001 221 36.3001C223 37.4001 224.6 39.0001 225.7 41.0001C226.8 43.0001 227.4 45.3001 227.4 47.9001V68.3001H217.3V49.3001C217.3 47.5001 216.8 46.0001 215.7 44.9001C214.6 43.8001 213.2 43.3001 211.3 43.3001C210 43.3001 208.9 43.5001 207.9 44.0001C206.9 44.5001 206.1 45.1001 205.4 45.9001V68.3001H195.2Z" fill="#0A307A"/>
	<path d="M176.3 68.3001V35.2001H186.4V68.3001H176.3ZM181.4 32.1001C179.9 32.1001 178.5 31.6001 177.5 30.5001C176.4 29.4001 175.9 28.1001 175.9 26.6001C175.9 25.1001 176.4 23.7001 177.5 22.7001C178.6 21.6001 179.9 21.1001 181.4 21.1001C182.9 21.1001 184.3 21.6001 185.3 22.7001C186.4 23.8001 186.9 25.1001 186.9 26.6001C186.9 28.1001 186.4 29.5001 185.3 30.5001C184.2 31.6001 182.9 32.1001 181.4 32.1001Z" fill="#0A307A"/>
	<path d="M116 35.2001H126.1V37.3001C128.4 35.5001 131.2 34.5001 134.4 34.5001C136.5 34.5001 138.4 34.9001 140 35.7001C141.7 36.5001 143.1 37.6001 144.2 39.1001C145.5 37.6001 147.1 36.5001 149 35.7001C150.8 34.9001 152.8 34.5001 155 34.5001C157.5 34.5001 159.7 35.1001 161.6 36.2001C163.5 37.3001 165 38.9001 166.1 40.9001C167.2 42.9001 167.8 45.2001 167.8 47.8001V68.2001H157.7V49.2001C157.7 47.4001 157.2 45.9001 156.2 44.8001C155.2 43.7001 153.9 43.2001 152.3 43.2001C151.2 43.2001 150.1 43.4001 149.2 43.8001C148.3 44.2001 147.5 44.8001 146.8 45.7001C146.8 46.0001 146.9 46.4001 146.9 46.8001C146.9 47.1001 147 47.5001 147 47.9001V68.3001H136.9V49.3001C136.9 47.5001 136.4 46.0001 135.4 44.9001C134.4 43.8001 133.1 43.3001 131.5 43.3001C130.4 43.3001 129.4 43.5001 128.4 43.9001C127.5 44.3001 126.8 44.9001 126.1 45.7001V68.4001H116V35.2001Z" fill="#0A307A"/>
</svg>