<?xml version="1.0" encoding="iso-8859-1"?>
<!-- Generator: Adobe Illustrator 25.4.1, SVG Export Plug-In . SVG Version: 6.00 Build 0)  -->
<svg version="1.2" baseProfile="tiny-pg" id="Layer_1" xmlns="http://www.w3.org/2000/svg" 
	  viewBox="0 0 500 500" overflow="visible" xml:space="preserve">
<g>
	<g>
		<path fill="#FF0001" d="M352.645,292.324l-47.426,0.093V146.969l47.426-0.139c26.084,0,47.424,24.894,47.424,55.321v90.172
			H352.645z"/>
		<path fill="#FF0001" d="M146.396,292.506l47.424,0.093V147.15l-47.424-0.138c-26.084,0-47.428,24.894-47.428,55.32v90.173H146.396
			z"/>
		<rect x="202.967" y="147.196" fill="#FF0001" width="92.297" height="145.221"/>
		<path fill="#FF0001" d="M352.645,302.712l-47.426-0.092v145.448l47.426,0.138c26.084,0,47.424-24.894,47.424-55.32v-90.173
			H352.645z"/>
		<path fill="#FF0001" d="M146.396,302.53l47.424-0.093v145.448l-47.424,0.138c-26.084,0-47.428-24.894-47.428-55.321V302.53
			H146.396z"/>
		<rect x="202.967" y="302.619" fill="#FF0001" width="92.297" height="145.221"/>
	</g>
	<g>
		<path d="M110.902,60.862v2.139c-1.427,0.778-3.074,1.167-4.941,1.167c-1.517,0-2.804-0.305-3.86-0.914
			c-1.056-0.609-1.893-1.449-2.508-2.519c-0.617-1.07-0.925-2.226-0.925-3.472c0-1.977,0.705-3.64,2.115-4.988
			c1.412-1.349,3.15-2.023,5.217-2.023c1.427,0,3.011,0.373,4.757,1.119v2.09c-1.589-0.907-3.141-1.361-4.658-1.361
			c-1.556,0-2.848,0.491-3.876,1.474c-1.027,0.982-1.542,2.212-1.542,3.69c0,1.492,0.506,2.717,1.517,3.676
			c1.012,0.959,2.304,1.439,3.881,1.439C107.724,62.379,109.332,61.874,110.902,60.862z"/>
		<path d="M123.229,64.013V50.428h3.403c1.375,0,2.466,0.341,3.273,1.021c0.807,0.681,1.211,1.601,1.211,2.762
			c0,0.791-0.199,1.475-0.594,2.052c-0.396,0.577-0.962,1.008-1.702,1.293c0.434,0.286,0.86,0.675,1.274,1.167
			c0.415,0.493,0.998,1.352,1.751,2.577c0.473,0.772,0.851,1.352,1.137,1.741l0.719,0.972h-2.313l-0.592-0.895
			c-0.021-0.033-0.06-0.088-0.118-0.166l-0.378-0.535l-0.603-0.992l-0.65-1.06c-0.401-0.558-0.77-1.002-1.104-1.332
			c-0.334-0.33-0.636-0.568-0.905-0.713c-0.269-0.146-0.722-0.219-1.357-0.219h-0.506v5.912H123.229z M125.757,52.081h-0.582v4.289
			h0.738c0.986,0,1.661-0.084,2.027-0.253c0.367-0.169,0.652-0.423,0.856-0.764c0.204-0.34,0.306-0.728,0.306-1.162
			c0-0.428-0.113-0.815-0.339-1.162c-0.227-0.346-0.547-0.592-0.958-0.734C127.394,52.153,126.711,52.081,125.757,52.081z"/>
		<path d="M145.077,50.428h7.701v1.731h-5.757v4.142h5.563v1.741h-5.563v4.22h5.941v1.731h-7.886V50.428z"/>
		<path d="M169.251,50.35h1.368l6.091,13.663h-1.99l-1.811-4.026h-5.796l-1.698,4.026h-1.999L169.251,50.35z M172.109,58.256
			l-2.192-4.92l-2.032,4.92H172.109z"/>
		<path d="M198.878,50.428h1.819v13.585h-1.955V53.442l-4.177,5.251h-0.36l-4.226-5.251v10.571h-1.944V50.428h1.84l4.514,5.579
			L198.878,50.428z"/>
		<path d="M213.503,50.428h7.701v1.731h-5.757v4.142h5.563v1.741h-5.563v4.22h5.941v1.731h-7.886V50.428z"/>
		<path d="M233.397,64.013V50.428h3.403c1.375,0,2.466,0.341,3.273,1.021c0.807,0.681,1.211,1.601,1.211,2.762
			c0,0.791-0.199,1.475-0.594,2.052c-0.396,0.577-0.962,1.008-1.702,1.293c0.434,0.286,0.86,0.675,1.274,1.167
			c0.415,0.493,0.998,1.352,1.751,2.577c0.473,0.772,0.851,1.352,1.137,1.741l0.719,0.972h-2.313l-0.592-0.895
			c-0.021-0.033-0.06-0.088-0.118-0.166l-0.378-0.535l-0.603-0.992l-0.65-1.06c-0.401-0.558-0.77-1.002-1.104-1.332
			c-0.334-0.33-0.636-0.568-0.905-0.713c-0.269-0.146-0.722-0.219-1.357-0.219h-0.506v5.912H233.397z M235.924,52.081h-0.582v4.289
			h0.738c0.986,0,1.661-0.084,2.027-0.253c0.367-0.169,0.652-0.423,0.856-0.764c0.204-0.34,0.306-0.728,0.306-1.162
			c0-0.428-0.113-0.815-0.339-1.162c-0.227-0.346-0.547-0.592-0.958-0.734S236.879,52.081,235.924,52.081z"/>
		<path d="M281.461,50.428h1.819v13.585h-1.955V53.442l-4.177,5.251h-0.36l-4.226-5.251v10.571h-1.944V50.428h1.84l4.514,5.579
			L281.461,50.428z"/>
		<path d="M296.086,50.428h7.701v1.731h-5.757v4.142h5.563v1.741h-5.563v4.22h5.941v1.731h-7.886V50.428z"/>
		<path d="M315.94,63.994V50.428h4.581c1.847,0,3.308,0.278,4.386,0.831c1.076,0.555,1.932,1.37,2.566,2.446
			c0.635,1.077,0.953,2.25,0.953,3.52c0,0.908-0.174,1.776-0.526,2.606c-0.35,0.831-0.849,1.559-1.496,2.188
			c-0.663,0.649-1.431,1.137-2.306,1.469c-0.512,0.2-0.981,0.335-1.41,0.403c-0.427,0.068-1.245,0.102-2.45,0.102H315.94z
			 M320.315,52.159h-2.431v10.103h2.491c0.972,0,1.726-0.066,2.266-0.199c0.538-0.133,0.986-0.301,1.346-0.506
			c0.359-0.204,0.689-0.455,0.986-0.753c0.96-0.973,1.44-2.201,1.44-3.685c0-1.459-0.492-2.649-1.478-3.569
			c-0.362-0.344-0.779-0.626-1.25-0.846c-0.469-0.22-0.916-0.366-1.336-0.437C321.927,52.194,321.25,52.159,320.315,52.159z"/>
		<path d="M340.755,50.428h1.944v13.585h-1.944V50.428z"/>
		<path d="M359.927,50.35h1.368l6.091,13.663h-1.99l-1.811-4.026h-5.796l-1.698,4.026h-1.999L359.927,50.35z M362.786,58.256
			l-2.192-4.92l-2.032,4.92H362.786z"/>
		<path d="M378.228,55.193v-0.38c0.292-0.285,0.496-0.567,0.613-0.846c0.116-0.279,0.185-0.662,0.204-1.148
			c-0.687-0.22-1.03-0.645-1.03-1.274c0-0.357,0.118-0.662,0.353-0.914c0.237-0.253,0.517-0.38,0.842-0.38
			c0.396,0,0.719,0.175,0.972,0.526c0.253,0.35,0.38,0.797,0.38,1.342c0,0.726-0.207,1.362-0.622,1.911
			C379.525,54.579,378.954,54.966,378.228,55.193z"/>
		<path d="M396.362,58.321l-1.478-0.898c-0.926-0.566-1.587-1.123-1.979-1.671c-0.392-0.548-0.587-1.178-0.587-1.891
			c0-1.07,0.371-1.938,1.113-2.606s1.707-1.002,2.893-1.002c1.134,0,2.174,0.319,3.122,0.955v2.208
			c-0.979-0.941-2.034-1.412-3.161-1.412c-0.636,0-1.158,0.147-1.566,0.44c-0.408,0.294-0.612,0.671-0.612,1.129
			c0,0.407,0.149,0.788,0.45,1.143c0.301,0.355,0.786,0.728,1.452,1.119l1.485,0.879c1.658,0.99,2.486,2.249,2.486,3.779
			c0,1.089-0.364,1.974-1.093,2.654c-0.729,0.681-1.679,1.021-2.846,1.021c-1.341,0-2.563-0.412-3.665-1.237v-2.47
			c1.049,1.331,2.266,1.996,3.646,1.996c0.61,0,1.118-0.17,1.522-0.509c0.406-0.339,0.608-0.764,0.608-1.274
			C398.151,59.847,397.555,59.063,396.362,58.321z"/>
	</g>
	<g>
		<path fill="#FF0001" d="M110.976,73.908l3.528,25.503h0.093l3.528-25.503h12.509v43.048h-8.183V84.882h-0.095l-4.655,32.075
			h-6.302l-4.656-32.075h-0.093v32.075h-8.183V73.908H110.976z"/>
		<path fill="#FF0001" d="M142.72,73.908v43.048h-8.747V73.908H142.72z"/>
		<path fill="#FF0001" d="M156.169,73.908l5.643,26.528h0.095V73.908h8.183v43.048h-9.594l-5.831-26.589h-0.095v26.589h-8.183
			V73.908H156.169z"/>
		<path fill="#FF0001" d="M182.504,73.908v43.048h-8.747V73.908H182.504z"/>
		<path fill="#FF0001" d="M195.955,73.908l5.643,26.528h0.095V73.908h8.183v43.048h-9.594l-5.831-26.589h-0.095v26.589h-8.183
			V73.908H195.955z"/>
		<path fill="#FF0001" d="M236.446,93.563v23.393h-5.926l-0.188-3.799h-0.095c-0.281,0.925-0.682,1.688-1.199,2.291
			c-0.517,0.603-1.099,1.056-1.74,1.357c-0.643,0.301-1.332,0.512-2.069,0.633c-0.737,0.12-1.482,0.181-2.234,0.181
			c-2.225,0-3.981-0.473-5.266-1.417c-1.287-0.944-2.257-2.361-2.916-4.251c-0.657-1.889-1.074-4.22-1.246-6.993
			c-0.172-2.773-0.258-5.948-0.258-9.526c0-3.618,0.165-6.813,0.494-9.586c0.329-2.774,0.956-5.105,1.881-6.994
			c0.925-1.889,2.203-3.325,3.834-4.31c1.63-0.985,3.73-1.477,6.3-1.477c1.536,0,2.955,0.262,4.257,0.784
			c1.299,0.523,2.421,1.367,3.361,2.532c0.94,1.166,1.677,2.663,2.211,4.491c0.533,1.83,0.8,4.05,0.8,6.662h-8.466
			c0-2.29-0.156-3.959-0.469-5.004c-0.315-1.245-0.988-1.869-2.023-1.869c-0.721,0-1.294,0.221-1.716,0.664
			c-0.424,0.443-0.738,1.226-0.94,2.351c-0.206,1.126-0.337,2.644-0.401,4.552c-0.063,1.91-0.093,4.311-0.093,7.205
			c0,2.893,0.03,5.296,0.093,7.204c0.063,1.91,0.195,3.427,0.401,4.552c0.202,1.126,0.501,1.91,0.893,2.351
			c0.392,0.443,0.918,0.664,1.575,0.664c0.471,0,0.886-0.12,1.246-0.362c0.36-0.241,0.666-0.693,0.918-1.356
			c0.25-0.664,0.446-1.587,0.587-2.773s0.213-2.704,0.213-4.553h-3.104v-7.596H236.446z"/>
		<path fill="#FF0001" d="M270.399,73.908l3.433,29.784h0.095l2.35-29.784h8.466l-5.737,43.048h-9.594l-2.914-28.94h-0.095
			l-2.914,28.94h-9.594l-5.737-43.048h8.466l2.633,29.784h0.093l3.152-29.784H270.399z"/>
		<path fill="#FF0001" d="M306.564,73.908v9.164h-11.146v7.356h10.44v8.802h-10.44v8.561h11.568v9.164h-20.315V73.908H306.564z"/>
		<path fill="#FF0001" d="M329.937,73.908v9.164h-11.146v7.356h10.44v8.802h-10.44v8.561h11.568v9.164h-20.315V73.908H329.937z"/>
		<path fill="#FF0001" d="M341.834,73.908v16.52h0.093l6.49-16.52h9.311l-8.464,18.811l9.499,24.237h-9.97l-5.126-15.013
			l-1.833,3.618v11.395h-8.747V73.908H341.834z"/>
		<path fill="#FF0001" d="M368.17,73.908v33.884h10.77v9.164h-19.517V73.908H368.17z"/>
		<path fill="#FF0001" d="M374.097,73.908h9.452l3.292,15.013h0.095l3.291-15.013h9.594l-8.559,26.106v16.942h-8.747v-16.942
			L374.097,73.908z"/>
	</g>
</g>
</svg>
