<?xml version="1.0" encoding="utf-8"?>
<svg xmlns="http://www.w3.org/2000/svg" viewBox="0 0 573.8 192.9">
    <g>
        <g>
            <path fill="#005BAC" d="M229.8,183.4h2c0.1,0,0.2-0.1,0.3-0.2l8.4-13.8l4.6,15.8c0,0.1,0.1,0.2,0.2,0.2h8.9 c0.1,0,0.2-0.1,0.1-0.2l-9.3-29.5c0-0.1-0.1-0.2-0.2-0.2h-3.3c-0.1,0-0.2,0.1-0.3,0.2l-11.4,17.6l-11.4-17.6 c-0.1-0.1-0.2-0.2-0.3-0.2h-3.3c-0.1,0-0.2,0.1-0.2,0.2l-9.3,29.5c0,0.1,0,0.2,0.1,0.2h8.8c0.1,0,0.2-0.1,0.2-0.2l4.6-15.8 l8.4,13.8c0.1,0.1,0.2,0.2,0.3,0.2H229.8L229.8,183.4z" />
            <path fill="#005BAC" d="M205.6,168.7c0-0.1-0.1-0.1-0.2-0.1h-25.2c-1.3,0-2.4,1.1-2.4,2.4s1.1,2.4,2.4,2.4h15 c-1.8,4.7-7.8,8.2-15,8.2c-8.6,0-15.5-5-15.5-11.1s6.9-11.1,15.5-11.1c4.7,0,8.9,1.5,11.7,3.8c0,0,0,0,0,0c0,0,0.1,0,0.1,0h10.3 c0.1,0,0.2-0.1,0.2-0.2c0-0.1,0-0.1,0-0.1c0,0,0,0,0,0c-4.4-4.7-12.7-7.8-22.3-7.8c-14.1,0-25.6,6.9-25.6,15.3 s11.4,15.4,25.6,15.4s25.5-6.9,25.5-15.4C205.8,169.9,205.7,169.3,205.6,168.7" />
            <path fill="#005BAC" d="M279.3,155.1c-14.1,0-25.5,6.9-25.5,15.3s11.4,15.3,25.5,15.3s25.5-6.9,25.5-15.3 S293.4,155.1,279.3,155.1 M279.3,181.6c-8.6,0-15.5-5-15.5-11.1s6.9-11.1,15.5-11.1s15.5,5,15.5,11.1S287.9,181.6,279.3,181.6" />
        </g>
        <path fill="#393C41" d="M412.5,184.9c0,0.3,0.2,0.5,0.5,0.5h5.3c0.3,0,0.5-0.2,0.5-0.5l0.9-12.2c0-0.3-0.2-0.5-0.4-0.5H414 c-0.3,0-0.5,0.2-0.5,0.5L412.5,184.9z" />
        <path fill="#393C41" d="M443.4,172.3c-0.3,0-0.5,0.2-0.4,0.5l0.9,12.2c0,0.3,0.2,0.5,0.5,0.5h5.3c0.3,0,0.8-0.2,0.7-0.5l-1.2-12.2 c0-0.3-0.2-0.5-0.5-0.5H443.4z" />
        <path fill="#393C41" d="M449.1,166.2c0.3,0,0.5-0.2,0.5-0.5v-5.1c0-0.3-0.2-0.5-0.5-0.5h-14.3c-0.3,0-0.5-0.2-0.5-0.5V156 c0-0.3-0.2-0.5-0.5-0.5h-5.1c-0.3,0-0.5,0.2-0.5,0.5v3.6c0,0.2-0.2,0.5-0.5,0.5h-14.2c-0.3,0-0.5,0.2-0.5,0.5v5.1 c0,0.3,0.2,0.5,0.5,0.5h14.2c0.3,0,0.5,0.2,0.5,0.5v18.3c0,0.3,0.2,0.5,0.5,0.5h5.1c0.3,0,0.5-0.2,0.5-0.5v-18.3 c0-0.3,0.2-0.5,0.5-0.5H449.1z" />
        <path fill="#1F7ACC" d="M453,155.1h3.6c0.3,0,0.5,0.2,0.5,0.5v7c0,0.3-0.2,0.5-0.5,0.5H453c-0.3,0-0.5-0.2-0.5-0.5v-7 C452.5,155.4,452.7,155.1,453,155.1L453,155.1z" />
        <path fill="#1F7ACC" d="M459.6,162.6c0,0.3,0.2,0.5,0.5,0.5h3.6c0.3,0,0.5-0.2,0.5-0.5v-7c0-0.3-0.2-0.5-0.5-0.5h-3.6 c-0.3,0-0.5,0.2-0.5,0.5V162.6z" />
        <path fill="#393C41" d="M312.8,176.4c-0.1,0.1-0.1,0.3,0,0.4l3.9,3.9c0.1,0.1,0.3,0.1,0.5,0l14-14c0.1-0.1,0.3-0.1,0.5,0 l18.2,18.3c0.1,0.1,0.3,0.1,0.5,0l3.9-3.9c0.1-0.1,0.1-0.3,0-0.5l-22.5-22.6c-0.1-0.1-0.3-0.1-0.5,0L312.8,176.4L312.8,176.4z" />
        <path fill="#1F7ACC" d="M350.1,164.1c2.5,0,4.5-2,4.5-4.5s-2-4.5-4.5-4.5s-4.5,2-4.5,4.5S347.6,164.1,350.1,164.1" />
        <path fill="#393C41" d="M364.2,185.1c0,0.2,0.1,0.3,0.3,0.3h5.9c0.2,0,0.3-0.1,0.4-0.3l3.2-26.6c0-0.2-0.1-0.3-0.3-0.3h-5.9 c-0.2,0-0.3,0.1-0.4,0.3L364.2,185.1z" />
        <path fill="#393C41" d="M388.1,158.2c-0.2,0-0.3,0.1-0.3,0.3l3.2,26.6c0,0.2,0.2,0.3,0.4,0.3h5.9c0.2,0,0.3-0.1,0.3-0.3l-3.2-26.6 c0-0.2-0.2-0.3-0.4-0.3H388.1z" />
        <path fill="#1F7ACC" d="M403.1,155.1c-2.5,0-4.5,2-4.5,4.5s2,4.5,4.5,4.5s4.5-2,4.5-4.5S405.6,155.1,403.1,155.1" />
        <path fill="#7D7D7D" d="M113.8,161.1v10.8h0.1c0.2-0.2,0.4-0.5,0.7-0.8c0.3-0.3,0.7-0.5,1.1-0.8c0.4-0.2,0.9-0.4,1.5-0.6 c0.6-0.2,1.2-0.2,1.9-0.2c1.1,0,2.1,0.2,3,0.6c0.9,0.4,1.7,1,2.4,1.7s1.2,1.6,1.5,2.6c0.4,1,0.5,2,0.5,3.2s-0.2,2.2-0.5,3.2 c-0.3,1-0.8,1.9-1.5,2.6s-1.4,1.3-2.4,1.8c-0.9,0.4-2,0.7-3.1,0.7c-1.1,0-2.1-0.2-3.1-0.7s-1.7-1.1-2.2-2h-0.1v2.3H110v-24.1 L113.8,161.1L113.8,161.1z M122.6,177.6c0-0.6-0.1-1.2-0.3-1.8s-0.4-1.1-0.8-1.6c-0.4-0.5-0.8-0.8-1.4-1.1 c-0.6-0.3-1.2-0.4-1.9-0.4c-0.7,0-1.3,0.1-1.9,0.4c-0.6,0.3-1,0.7-1.4,1.1s-0.7,1-0.9,1.6s-0.3,1.2-0.3,1.8s0.1,1.2,0.3,1.8 c0.2,0.6,0.5,1.1,0.9,1.6c0.4,0.5,0.9,0.8,1.4,1.1s1.2,0.4,1.9,0.4c0.8,0,1.4-0.1,1.9-0.4c0.6-0.3,1-0.7,1.4-1.1 c0.4-0.5,0.6-1,0.8-1.6C122.5,178.8,122.6,178.2,122.6,177.6" />
        <path fill="#7D7D7D" d="M128.2,169.9h4.2l4.3,11.1h0.1l3.8-11.1h4l-7.2,18.6c-0.3,0.7-0.6,1.3-0.9,1.9s-0.7,1-1.1,1.4 s-1,0.6-1.6,0.8c-0.6,0.2-1.3,0.3-2.2,0.3c-0.3,0-0.6,0-1-0.1c-0.3,0-0.7-0.1-1-0.2l0.3-3.3c0.3,0.1,0.5,0.1,0.8,0.2 c0.2,0,0.5,0.1,0.7,0.1c0.4,0,0.7-0.1,1-0.1c0.3-0.1,0.5-0.2,0.7-0.4c0.2-0.2,0.4-0.5,0.5-0.8c0.1-0.3,0.3-0.6,0.5-1.1l0.8-1.9 L128.2,169.9L128.2,169.9z" />
        <path d="M1.5,67.9c0,0,0.3-0.8,0.3-1.2s-0.1-0.2-0.4-0.7c-0.3-0.5-0.2-0.3-0.4-0.8c-0.1-0.5,0-0.3-0.2-0.6 c-0.3-0.3-0.7-0.5-0.7-0.9s0.1-0.3,0-0.8s-0.3-0.7,0-1.1s0.3-0.5,0.4-0.8s0.2-0.4,0.5-0.6c0.2-0.2,0.3-0.2,0.5-0.5 c0.2-0.2,0.4-0.5,0.7-0.4c0.3,0.2,0.6,0.7,0.8,0.5s0.3-0.4,0.6-0.5s0.2-0.1,0.6-0.1S5,59.4,5.2,59s1.1-0.6,1.2-0.3 c0.1,0.3,0.5,0.6,0.8,0.3c0.3-0.3,0.5-0.9,0.9-1.1c0.4-0.1,1.1,0.1,1.5,0s0.8-0.1,1.1-0.4s0.5-0.6,0.7-0.7s0.5-0.1,0.5-0.5 c0-0.4-0.1-0.7,0.1-1s0.7-0.4,0.9-0.7c0.3-0.3,0.2-0.1,0.5-0.5s0.5-0.1,0.7-0.6c0.2-0.5,0.2-0.2,0.3-0.7c0.1-0.5,0-0.9,0.2-1.1 s0.4,0,0.4-0.5s0-0.2,0.1-0.9s0.1-0.8,0.2-1.3c0.1-0.5,0.3-0.1,0.2-0.7s-0.2-0.7-0.2-1.2s0-0.5,0.1-1.1s0.6-0.4,0.1-1 S15.4,44.7,15,44c-0.3-0.7-0.4-0.6-0.6-1c-0.2-0.4-0.5-0.8-0.4-1.2s0.1-0.4,0.3-1s0.6-0.7,0.6-1s-0.4-0.2-0.4-0.7 s-0.3-0.8,0.1-1.6s0.7-1.3,1.1-1.2c0.3,0.1,0.7,0.1,0.9,0.6s0.3,0.6,0.6,0.4s0.6-0.6,1-0.8s1.2-0.3,1.7-0.1 c0.5,0.1,0.3,0.3,1.1,0.4s0.8,0.2,1.6,0.2s0.8-0.4,1.5-0.5s1,0.1,1.5,0.2c0.5,0.1,0.5-0.1,1.2-0.5s0.8-0.8,1.6-0.3 s0.4,0.1,1.4,0.5s1.1,0.5,1.2,0.5s0.4,0.3,1.2-0.1c0.8-0.4,1-0.9,1.9-0.6s1-0.1,0.7,1c-0.3,1.1-0.5,0.9,0,1.3s0.3,0.4,0.1,1 s-0.1,1.8-0.6,2.5c-0.5,0.7-0.5,0.7-0.4,1.7c0.1,1,0.2,1.3,0.3,2c0.2,0.7,0.5,0.9,0.2,1.5s-0.7,2.3-0.3,1.9s0.9-0.9,1.9-1.6 s0.6-0.8,1.5-1.4s1.4-0.8,1.8-1.2s0.4,0,0.6-0.5s-0.1-0.7,0.8-0.8c0.9-0.1,1.3-0.4,1.4-0.6s0.4-0.4,0.8-0.6 c0.3-0.2,0.4-0.8,1.1-0.8c0.7,0,0.9-0.5,1.3-0.3s0.5,0,0.6-0.2s0.5-0.7,0.8-1c0.3-0.3,0.2-0.6,0.4-0.4c0.2,0.2,0.7,0.3,0.9,0 s-0.2-0.2,0.4-0.3s0.2-0.7,1.1-0.6c0.9,0.2,0.7,0.2,1.1,0s1.2-1.7,1.8-1.7c0.5,0,0.4,0.8,0.8,0.5s0.5-0.4,1.5-0.7s1.4-0.5,1.6-0.6 s0.7-0.7,1.4-0.7s1.3-0.4,1.7-0.2c0.3,0.2,0.5,0.8,1.1,0.7c0.6-0.2,0.2-0.3,0.8-0.3s1.5,0.2,1.8,0c0.4-0.2,1.2-0.5,1.7-0.4 c0.5,0.1,0.5-0.2,1.2-0.2c0.7,0,0.8-0.2,1.5,0.1s1.1,0.5,1.6,0.8s0.8,0.4,1.4,0.4s2,0.3,2.7,0.7s0.7,0.9,1.2,1 c0.5,0.1,0.7,0,1.2,0.2c0.5,0.2,1.1,0.6,1.4,0.6c0.3,0,0.6,0.3,1,0.5s0.2,0.5,0.8,0.6s0.5,0,1,0.3s0.4,0.2,0.9,0.6 c0.5,0.5,0.4,1.2,0.7,1.2s0.4,0,0.5,0.5s0.1,0.6,0.6,0.8c0.5,0.2,0.7,0.5,1.1,1s0.3,0.1,0.7,0.5s0.4,0.3,0.4,0.8s0.6,1,0.7,1.5 s0.1,0.3,0.5,0.6c0.4,0.3,1,0.5,1.1,0.8c0.1,0.3,0,0.7,0.5,0.7s0.6,0.3,0.6,0.5s0.2,1,0.4,1.1s0-0.1,0.8-0.1s1.8,0.5,1.8,0.1 c0-0.4-0.2-0.3,0.2-0.7c0.4-0.4,0.3-0.2,0.7-1s0.3-0.2,0.7-0.8c0.4-0.6,0.3-0.7,0.9-1.3c0.6-0.5,0.1-0.4,0.8-0.7s1.3-0.3,1.6-0.8 c0.3-0.5,0.3-0.8,0.8-1.1c0.5-0.3,0.4-0.3,1.1-0.8s0.9-0.3,1.3-0.9c0.4-0.6,0.4-0.4,0.7-0.8c0.3-0.4,0.4-0.5,1.1-0.9s1-0.8,1.2-1 c0.2-0.3,0.6-1,1.6-1.2c0.9-0.2,0.8,0.1,1.3-0.3c0.4-0.5,0.3-0.5,0.8-0.8s0.9-0.4,1.1-0.1s0.1,0.2,0.4-0.1s0-0.2,0.6-0.3 c0.6-0.1,0.7,0,1.3-0.5c0.7-0.6,0.9-1,1.7-0.7c0.5,0.2,0.9,0.2,1.3,0.1c0.5-0.2,0.8,0,1.3-0.3c0.6-0.3,0.6-0.5,1.3-0.4 s0.5,0.1,1.4-0.1s0.8-0.3,1.7-0.1c0.9,0.1,1-0.1,1.7,0.2s0.8,0.7,1.1,0.1s0.8,0,1-0.3c0.1-0.3-0.1-0.8,0.6-0.7s1.2,0.2,1.5,0.1 c0.3-0.1,1.7,0,2.2,0.2c0.5,0.2,0.1-0.1,0.9,0.4s0.6,0.7,1.4,0.8c0.9,0.1,0.7,0.1,1.5,0.1s1.4,0.4,1.9,0.7c0.5,0.4,0,0.6,0.8,0.8 s0.9,0,1.2,0.1c0.3,0.1,1.5,0.6,1.8,1.1c0.3,0.5,0.3,0.1,0.8,0.7s0.2,0.7,0.8,0.9s0.6,0.1,0.9,0.5s0.2,0,0.7,0.7s-0.2,1.3,0.5,1.3 c0.8,0,0.6-0.2,1,0.2s0.6,0.5,1,0.7c0.4,0.2,0.1,0.1,0.6,1s0.1,0.9,0.6,1.4s0.3,0.7,0.5,1s0.6-0.1,0.9,0.9c0.3,1,0.8,1.1,0.9,1.7 c0.1,0.6,0.1,0.9,0,1.1s-0.1,0.7,0,1.1s-0.4,0.1,0.3,0.8c0.6,0.8,1.3,1.5,1.5,2.3c0.2,0.8,0.2,1.5,0.1,1.8s-0.5,0.6-0.3,1 s0.5,0.6,0.6,1s0.5,0.7,0.3,1.2c-0.2,0.5-0.4,0-0.2,0.9s0.2,1.1,0.1,1.4c-0.1,0.3-0.1,0.3,0,0.7c0.1,0.5,0.1,0.6,0.3,1.2 c0.1,0.6,0.2,0.2,0.2,1c-0.1,0.8,0.1,1-0.2,1.5c-0.2,0.5-0.2,0.4-0.5,1.4s-0.4,0.8-0.1,1.4s0.6,1.5,0.6,2.3s-0.2,1.5-0.3,1.9 c-0.2,0.4-0.2,0.4-0.2,0.7c0.1,0.3-0.1,0.1,0,0.6c0.1,0.4,0.3,0.9,0,1.4s-0.3,0.9-0.1,1.1s0.4,0,0.4,0.5s-0.1,0.1,0.2,0.6 s0.4,0.4,0.2,0.9s-0.2,1.1-0.4,1.4s-0.2-0.1-0.1,0.6c0.1,0.7-0.3,1-0.2,1.4c0.1,0.4,0.1-0.1-0.1,0.7s-0.2,0.7,0,1.2 c0.2,0.5,0.3,0.7,0.1,1.2c-0.2,0.5-0.4,0.1-0.2,0.7c0.3,0.7,0.4,0.6,0.5,1c0,0.4,0,0.4,0,1.1s0.1,1-0.1,1.3s-0.4,0.6-0.3,1.1 c0.1,0.6,0.1,0.1,0.2,0.8s0.3,1.1,0,1.5c-0.3,0.3-0.3-0.2-0.4,0.8s-0.2,0.7,0.2,1.2s0.9,0.9,1,1.8s0,1.4-0.1,2.1s-0.3,1.2-0.4,1.7 c-0.1,0.5-0.2,0-0.1,1.1s0,0.6,0,1.6s-0.6,0.8-0.5,1.7s0.2,0.8,0.4,1.3s0.5,0.2,0.2,1.1s-0.4,0.6-0.4,1.2c0,0.6-0.4,1,0.1,1.5 s0.4,0.3,0.3,0.9c-0.1,0.6-0.3,0.1,0,1s0.2,0.6,0.2,1.4s0,0.6-0.1,1.4s0,0.6,0.2,1c0.2,0.4,0.7,1.1,0.5,1.6s-0.4,0.2-0.6,0.9 s-0.8,2.3-1.6,2.2c-0.8-0.2-1.1-0.4-1.4-0.8c-0.2-0.4-0.1-0.5-0.6-0.8c-0.5-0.3-0.5-0.2-1-0.2s-0.5-0.3-1,0s-0.6,0.6-0.9,0.6 s-0.5-0.3-1-0.1c-0.4,0.2-0.2,0.1-0.6,0s-0.2-0.4-0.8,0c-0.6,0.4-0.2,0.6-1.2,0.4s-1.2-0.4-1.5-0.5s-0.6-0.6-1-0.4 c-0.5,0.3-0.4,0.3-0.9,0.4c-0.6,0.2,0.7,0.5-0.9,0.4c-1.6-0.2-1.5-0.4-2.1-0.4c-0.6-0.1-0.7-0.2-1.3-0.4s-1,0-1.3-0.7 s-0.1-0.7-0.4-1.1s-0.5-0.3-0.5-0.8s-0.1-0.4-0.1-0.9s0.3-0.2,0.2-0.8c-0.1-0.6-0.2-0.5,0-0.8s0.4-0.6,0.6-0.7s0.7-0.1,0.3-0.5 c-0.3-0.4-0.4-0.5-0.7-1.1s-0.3-0.6-0.2-1.2c0-0.6-0.4-0.2-0.1-1c0.4-0.9,0.4-0.3,0.4-0.9c0-0.6-0.1-0.2,0.2-0.6s0.6-0.1,0.5-0.8 c-0.1-0.7-0.2-1-0.1-1.4c0.1-0.4-0.4-0.7-0.3-1.4s0.1-0.4-0.1-0.9s-0.5-0.3-0.3-1.2s0.3-0.5,0.3-1c-0.1-0.5-0.2-0.5-0.1-1.1 c0.2-0.6,0.7-0.4,0.4-1.1s-0.3-0.6-0.3-1.3s-0.2,0.1,0-1c0.2-1.1,0.2-0.9,0.1-1.7c-0.1-0.7,0-0.8,0-1.6s-0.1-1.2,0.2-1.6 c0.3-0.4,0.3-0.2,0.3-1c0-0.7,0.2-0.8,0.2-1.4s-0.4-0.5-0.4-0.8c0.1-0.3,0.4-0.4,0.5-0.9s0.2,0.2,0-0.8s-0.2-0.9-0.4-1.4 s0.2,0,0-0.9s-0.5-0.2-0.3-1c0.1-0.8,0.1-0.4,0.3-1.2c0.2-0.8,0-0.3,0.2-1.2s0.5-0.6,0.3-1.1c-0.1-0.5-0.8-0.2-0.5-1.1 s0.1-0.8,0.4-1.2s0.6-0.4,0.4-1s0.3-0.7-0.3-1s-1-0.6-0.8-1s0.7-0.6,0.4-1.1c-0.3-0.5-0.7-0.9-0.6-1.3s0.2-0.4,0.5-1.3 s0.5-1,0.3-1.4c-0.1-0.4-0.2-0.4-0.4-1s-1.1-0.4-0.8-0.9s0.6-0.4,0.6-1.1s-0.1-1.6-0.1-2.4s0.3-0.4,0.1-1.1s-0.3-1.2-0.4-1.6 c-0.2-0.4-0.6-0.8-0.8-1.5s-0.1-0.6-0.2-1.1s-0.6-1-0.9-1.3c-0.3-0.3-0.4-0.2-0.9-1.3s-0.7-1-1.1-1.5s-0.4-0.4-0.6-0.9 s0,0-0.4-0.5c-0.5-0.5-0.5-0.2-0.8-0.6s-0.4-0.3-0.4-0.5c-0.1-0.2-0.2-0.2-0.5-0.4s0.2,0.1-0.6-0.5s-0.8-0.3-1.1-0.8 c-0.3-0.5,0.2-0.6-0.5-0.6c-0.7,0-0.4,0.1-0.9,0s-0.6,0-1.1-0.1s-0.2-0.2-0.6-0.2s-0.2,0.2-0.7,0c-0.6-0.2-0.3-0.2-0.7-0.4 s-0.4-0.4-0.7-0.3c-0.3,0.1-0.2,0.1-0.6,0.2c-0.4,0.1-0.4,0.3-1.1,0.2c-0.6-0.1-0.6,0-1.2-0.2c-0.6-0.2-0.2-0.3-0.9-0.3 s-0.8-0.4-1-0.2s-0.1,0-0.5,0.4s-0.4,0.4-1.1,0.6c-0.7,0.3-0.7,0.3-0.9,0.3s-0.2-0.2-0.3-0.3s0.1-0.3-0.4-0.2s-0.8,0-1.1,0.3 s-0.3,0.3-1,0.7s-0.6,0.4-1.2,0.7c-0.6,0.3-0.2,0.4-0.8,0.4s-0.9,0-1.1,0c-0.2,0-0.2-0.4-0.3,0c-0.1,0.4-0.3,0.8-0.6,1 s-0.5,0.1-0.6,0.3c-0.1,0.2-0.1,0.3-0.1,0.6c-0.1,0.2-0.3,0.6-0.7,0.9s-0.2,0.3-0.9,0.6s-0.6,0.4-1,0.4c-0.4,0-0.9,0-1,0.2 c-0.1,0.2-0.2,0.3-0.3,0.4s-0.1,0.2-0.5,0.6s-0.2,0.4-0.7,0.8s-0.8,0.5-0.9,1s0,0.3-0.6,0.6c-0.6,0.3-0.9-0.3-1,0.5 c-0.1,0.8-0.3,1.1-0.3,1.8s0.1,0.5,0,1s-0.1,0.9-0.3,1.4c-0.1,0.6-0.3,1.1-0.5,1.5s-0.3,0.7-0.3,1c0.1,0.3,0.4,0.6,0.1,1.2 s-0.5,0.2-0.5,0.7c0,0.6-0.2,0.3,0,1c0.3,0.7,0.5,0.6,0.5,1.2s-0.2,0.7-0.1,1.1c0.1,0.4,0.2,0.3,0.1,0.8c-0.2,0.4,0.2,0.1,0.1,0.7 c-0.2,0.6,0.1,0.9-0.7,1.2s-0.3,0.6,0,1.1s0.6,0.8,0.5,1.4c-0.1,0.6-0.4,1.2-0.4,1.4s0-0.1,0.2,0.8s0.3,1,0.2,1.3 c-0.1,0.3-0.1,0.9-0.2,1.2s-0.2-0.3-0.1,0.4s0.3,0.9,0.1,1.3s-0.3,0.7-0.3,1s0.3,0.6,0.2,1.3c-0.1,0.7-0.2,0.1-0.2,0.9 c0.1,0.9,0.5,0.8,0.2,1.3s-0.7,0.4-0.6,0.9s0.4,0.3,0.4,0.7c0.1,0.4,0.4,1,0.3,1.7c-0.1,0.7-0.3,0.3-0.1,0.9 c0.2,0.6,0.3,0.5,0.3,1s0,0.6,0,0.8c-0.1,0.2-0.3,0.5-0.3,0.7c-0.1,0.2-0.1-0.2,0.1,0.4s0.3,0.6,0.1,1.3s-0.1,1.3-0.3,1.8 s-0.2,0.5-0.1,0.9c0.2,0.4,0.4,0.7,0.4,0.9s0.2,0.8,0.1,1.4s-0.3,0.4-0.3,0.8c0,0.4,0,0.8,0.1,0.9s0.2,0.5,0.1,0.9 s-0.2,0.1-0.3,0.8s-0.2,0.4,0.1,0.8c0.4,0.4,0.7,1,0.7,1.7c0,0.7-0.2,0.7,0.1,1.1s-0.1,0.3-0.1,0.9c0,0.6,0.1,0.6,0,1.1 s-0.1,0.8-0.2,1.3c-0.1,0.6-0.1,0.8-0.2,1.5s0.1,0.4,0.1,1.4s0,1,0.1,1.4s0.1,0.9,0.1,1.3c0,0.4,0.1,1-0.1,1.3s0.1,0.8-0.7,1.2 s-1.1,1.2-1.6,0.5s-0.9-1.1-1.1-1.1c-0.2-0.1-0.4-0.1-0.7,0.1c-0.3,0.2-0.5,0.2-1.1,0.1s-0.6-0.3-1-0.1c-0.3,0.1,0.1,0.3-0.8,0.3 s-0.6-0.2-1.4-0.2s-0.9-0.3-1.4-0.1s-0.2,0.6-0.6,0.7c-0.3,0.1-0.2,0.5-1.3,0.4s-0.8-0.2-1.4-0.4s-0.6-0.3-1-0.1 c-0.4,0.2-1-0.1-1.4,0.3s-0.4,0.5-0.7,0.8s0.1,0.4-0.8,0.2s-0.6,0.3-1.4-0.6s-1-0.5-1.1-1.2c-0.1-0.8-0.2-0.6-0.2-1 s0.2-0.1,0.2-0.8s0-0.4,0.1-1.2s0.6-0.2,0.2-1.2c-0.3-1-0.6-1.2-0.4-1.6c0.2-0.4,0.5-0.1,0.4-0.5s0-0.4,0.1-0.9s0.4-0.2,0.2-1.3 s-0.3-2.3-0.3-3.3s0.4-2.1,0.4-2.7c0-0.6,0,0.1-0.2-0.7c-0.2-0.9-0.2-0.6-0.3-1.5s-0.2-0.7-0.2-1.5c0.1-0.8,0.3-0.8,0.3-1.2 c0.1-0.3,0.1-0.9-0.2-1.5s-0.6-1-0.6-1.6c0-0.6-0.1-0.9,0.2-1.7s0.9-1.2,0.8-1.8c-0.2-0.6-0.6-0.6-0.4-1.2s0.3-0.4,0.3-0.8 c-0.1-0.4-0.3-0.7-0.4-1.6s-0.1-1.2-0.3-1.7c-0.1-0.5-0.1-1.1,0.3-1.6c0.4-0.6,0.4-0.8,0.4-1.2s-0.1-1.4-0.1-2s-0.1-0.8-0.3-1.2 s-0.2-0.2-0.2-1.1s0-0.2,0-1.2s0.1-1,0.2-1.4s0.3-0.2,0.3-1.4s0.1-1.1,0.1-1.7s-0.3-0.1-0.3-1.3c-0.1-1.2-0.1-0.8-0.2-1.6 c-0.1-0.8-0.3-0.4-0.1-1s0.4-0.7,0.3-1.2S72,69.4,72,68.4s0.2-0.9,0.1-1.8c-0.1-0.9,0-1.2-0.1-1.7s-0.2-0.9-0.5-1.4 s0.2-0.3-0.2-0.8c-0.4-0.5-0.4-0.2-0.4-0.8c-0.1-0.6,0.4-1.3-0.2-1.8c-0.6-0.5-0.8-0.5-1.1-0.9s-0.2,0.1-0.3-0.8s0.2-0.6-0.2-1.2 s-0.6-1.1-0.8-1.3s-1.5-1.1-2-1.5s-0.1-0.5-0.7-1c-0.6-0.5,0.4-0.1-0.9-0.6s-1.3-0.2-1.8-0.6c-0.5-0.4-0.2-0.2-1-0.8 c-0.9-0.6-0.5-0.7-1.5-0.9s-1.6-0.5-1.9-0.5s-0.9-0.1-1.3-0.1c-0.4,0,0-0.1-0.9-0.3c-0.9-0.2-0.9-0.5-1.6-0.1 c-0.8,0.4-0.6,0.5-1.3,0.4c-0.7-0.1-1.2-0.3-1.5-0.3c-0.2,0,0.1-0.1-0.7,0.4c-0.8,0.5-1,0.8-1.5,0.9c-0.5,0.1-0.9,0.1-1.3,0.3 c-0.5,0.2-0.5,0.3-0.9,0.4s-0.7-0.2-0.7,0.1s0.2,0.2-0.2,0.9s-0.8,1.5-1.4,1.7s-0.9,0.2-1.7,0.2s-0.1-0.1-1,0.3 c-0.8,0.5-1.2,0.9-1.4,0.8s-0.4-0.5-0.7,0.2s0,1-0.5,1.3s-0.4,0.3-0.9,0.8c-0.5,0.4-1,0.3-1.2,0.5s0.3,0.2-0.6,0.8 s-0.5,0.6-1.3,0.8s-0.9,0.3-0.9,0.4s0.6,1,0,1.3s-0.7,0.4-1,0.5c-0.3,0.1-0.8,0.1-0.5,0.6c0.3,0.5,1.5,0.1,1.2,0.7 s-0.6,1.1-0.9,1.3s-0.4,0.2-0.3,0.4s0.4,0.6,0.2,1.2s-0.4,0.5-0.4,1c0,0.5,0.2,0.2,0.3,0.8s0.4,0.6,0,1.2 c-0.4,0.7-0.3,0.7-0.3,1.2s-0.1,0.5,0,1.1s0.4,0.6,0.4,1.4c-0.1,0.8-0.4,1.4-0.3,2s0,0.7,0.1,1.2c0.1,0.4,0.1,1.3,0.1,1.8 s-0.4,0.2,0.1,0.8c0.5,0.6,0.9,0.5,0.6,1.1s-0.4,0.2-0.6,0.9s-0.3,1.5-0.3,2.2S33,83.9,33,84.4s0.2,1.8,0.2,2.9 c0.1,1.1,0.2,0.9,0.2,1.9s0,2.9-0.1,3.7s-0.1,0.3,0,1.2s0.3,1.3,0.3,1.9s0.3,2.4,0.1,3c-0.1,0.6-0.3,0-0.2,1.1 c0,1.1,0.3,1.3,0.3,1.8s0.1,0.6,0.2,0.9c0.1,0.4-0.3,0.6,0.2,0.9c0.5,0.4,0.6,0.1,0.6,0.5s0.2,1.6,0.2,2.2c0,0.6-0.3,0.8-0.4,1.4 c-0.2,0.6-0.6,0.9-0.5,1.7s0.1,0.6,0.2,1s0.5,1.2,0.4,2s-0.1,0.4-0.2,1.1s-0.2,0.2-0.2,1s-0.1,0.8-0.1,1.3s0.2,0.4,0.2,1 s0.2,1.2,0.3,1.5c0,0.2,0.1,0.7-0.2,1.3s0.4,1.2-0.8,0.9s-1.2-0.3-1.9-0.3s-1.1,0.3-1.8,0.1s-0.7-0.3-1.5-0.6 c-0.8-0.2-1.6-0.2-1.8-0.2c-0.2,0-0.5,0.4-1.2,0.3s-0.9,0.1-1.5,0.3c-0.6,0.2-1.1,0.3-1.4,0.2c-0.2-0.1-0.2-0.3-0.5-0.6 c-0.4-0.3-0.9-0.7-1.1-0.4s-0.5,0.2-0.8,0.6c-0.3,0.4-0.7,0.8-1,0.9s0,0.5-0.8,0.4s-1.2-0.1-1.4-0.3c-0.2-0.2-0.5-0.3-1-0.5 s-0.7-0.1-0.9-0.9S15,119,15,118.3s-0.2-1,0-1.4s0.4-0.1,0.4-0.7s-0.1,0.2-0.2-0.9s-0.1-0.8,0.1-1.2s0.4-0.2,0.3-0.6 c-0.1-0.4-0.1-0.8-0.2-1.6s-0.1-1.2,0-1.3s0.4-0.2,0.3-0.5s-0.2,0-0.2-0.7c0.1-0.7,0-0.9,0-1.4s0-0.1,0.2-0.6s0.4-0.4,0.3-0.9 s0-1,0-1.8s0.1-0.6-0.2-1.2c-0.2-0.7-0.3-0.4-0.3-1.1c0.1-0.6-0.1-0.6,0.1-0.8s0.4-0.6,0.4-1.2s-0.1-0.9,0-1.2s0.4-0.1,0-0.6 c-0.4-0.4-0.5-0.1-0.6-0.8s-0.1-0.8-0.1-1.4s-0.6-0.2-0.2-1.2c0.3-1,0.3-1.2,0.2-1.7c-0.1-0.4-0.2-1.2-0.1-1.5 c0.1-0.3,0.4-1.1,0.8-1.1c0.3,0.1,0.3-0.1,0.1-0.4s-0.4-0.4-0.4-1.3s0.2-0.7-0.1-1.3c-0.3-0.6,0.1-0.5,0.1-0.9s-0.2-0.4-0.1-0.7 c0.2-0.3,0.8-0.2,0.7-0.7s-0.1-1-0.2-1.5s0.2,0.1-0.3-0.8c-0.5-0.9-0.4-0.7-0.3-1.2s-0.1-0.5,0.1-1c0.2-0.4,0.3-0.1,0.2-1.1 s-0.2-1.2,0-1.6s0.6-0.1,0.5-0.7s0-0.2-0.1-0.8s-0.2-0.2-0.2-0.7s-0.1-0.8,0-1.5c0.1-0.7,0.5-0.1,0-0.8c-0.5-0.7,0-1-0.7-0.9 c-0.7,0.1-0.5,0.2-1-0.1c-0.5-0.4-0.5-0.6-0.9-0.6c-0.4,0-0.7,0.2-1,0.4s-0.3,0.3-0.9,0.6s-0.5,0.4-1.2,0.6 c-0.8,0.2-0.8,0.4-1.3,0.3c-0.4-0.1-0.5-0.1-0.6,0.1C8.5,74.4,8.4,75,8,74.9s-0.6-0.1-0.8,0.2C7,75.5,7,75.7,6.6,75.9 s-0.4,0.4-1,0.4S4.1,76.5,4,76.6S3.8,77,3.9,76.5c0.1-0.6,0.5-0.4,0-0.8S3.1,75.2,3,74.9s-0.3-0.5-0.3-0.8 c-0.1-0.3-0.2-0.5-0.4-0.8s-0.1-0.5-0.2-0.8c0-0.3-0.3-0.1,0-1c0.3-0.9,0.6-0.6,0.3-1.1S1.9,70,1.7,69.5C1.5,69,1.1,69,1.5,67.9 L1.5,67.9z" />
        <path d="M189.5,120.1c0.2-0.1,0.2,0.2,0.9,0.2s0.4-0.2,0.9-0.1s0.9,0.4,1.8,0.4c0.9,0,1-0.2,1.5-0.4s0.6,0,0.9-0.4 c0.3-0.4,0.4-0.1,0.9-0.3s0.2,0.3,1,0.7s1.2,0.3,2,0.2c0.8-0.1,1.4-0.1,2-0.2s1-0.3,1.4-0.4c0.5-0.1,0.7,0.2,1.8,0.3 c1.1,0,1.3-0.1,2.2-0.4c1-0.3,0.3-0.5,0.1-0.9s-0.5-1-0.9-1.4s-0.6-0.3-0.1-0.7s0.3-0.7,0.6-1.5c0.3-0.8,0-1.5-0.1-1.7 c-0.1-0.2-0.1-0.8-0.1-1.4s0-0.8,0-1.4s-0.8-1.1-1.3-1.5c-0.4-0.5-0.1-0.6,0.3-0.8s0.5-0.2,0.9-0.5c0.4-0.3,0.3-0.8,0.4-1.6 c0.1-0.8,0-1.1-0.1-1.7c-0.1-0.6-0.1-1.2-0.1-1.9s-0.2-0.4-0.2-0.9c0-0.5-0.1-1.2-0.1-1.3s-0.1-0.6-0.1-0.9c0-0.3-0.1-0.9-0.1-1.3 s0.1-0.4,0.1-0.8c0.1-0.4,0.1-0.5,0.1-0.8c0-0.3-0.1-0.8-0.1-1.3s-0.4-1.3-0.5-1.7s-0.3-0.6-0.2-1.1c0-0.5,0.1-0.7,0.1-1.1 s0.2-0.7,0.3-1.4c0.1-0.7,0.1-0.9,0.1-1.1s-0.3-0.4-0.4-0.6s0-0.4,0.2-0.7s0.2-0.7,0.3-1.3s-0.1-0.6-0.2-0.9 c-0.1-0.3-0.1-0.4-0.2-1s0.3-0.5,0.6-0.9s0.1-0.7,0.2-1.3s0-0.4-0.3-1.1c-0.3-0.8-0.2-0.7-0.3-1.1c-0.1-0.4-0.1-0.4,0-1 s0.1-0.7,0.1-0.9c0-0.2-0.2-0.5-0.3-0.9c-0.1-0.4,0-0.4,0.3-0.8c0.2-0.4,0-0.5-0.1-1.1s0.1-1.7,0.2-1.9c0.2-0.2-0.1-0.4-0.1-0.8 c0-0.5,0.1-0.8,0.2-1.2c0.1-0.5,0-0.6-0.1-1.2s-0.1-0.6-0.3-1c-0.2-0.4,0.1-0.4,0.3-0.5s0.1-0.5,0-0.7s0.1-0.2,0.3-0.7 s0-0.9-0.1-1.1s0-0.6,0.1-0.8c0.1-0.2,0.3-0.5,0.4-1.2s0.2-0.9,0.2-1.3s0-0.5-0.2-1.1s-0.4-0.4-0.8-0.9c-0.4-0.5-0.2-1.5-0.1-1.8 s0-0.4-0.1-1.1s-0.2-0.5-0.2-1c-0.1-0.5,0-0.5,0-1.7s-0.2-0.6,0.3-1.2s0.5-1,0.6-1.8c0.1-0.9-0.3-1.5-0.5-1.8s-0.2-0.4-0.1-1 s0.2-0.6,0.1-1.3s-0.2-1.2-0.2-1.4c-0.1-0.2-0.2-0.4-0.4-1s0.2-0.4,0.4-0.8c0.2-0.4,0.2-0.6,0.4-1.5s-0.7-2.1-0.7-2.3 s0.1-0.6,0.7-1.2c0.6-0.6,0.4-0.6,0.6-1.3c0.2-0.7-0.1-1-0.2-1.5c-0.1-0.6-0.3-0.8-0.5-1.4c-0.2-0.7-0.9-0.2-1.4-0.5 s-0.8-0.3-0.9,0c-0.2,0.4-0.8,0.2-1.2,0.4s-1,0.2-1.6,0.2c-0.7-0.1-0.8-0.3-1.1-0.3s-0.7,0.1-1,0c-0.4-0.1-0.6-0.5-1-0.7 c-0.4-0.2-0.4,0.1-0.9,0.3s-0.9,0.2-1.4,0.1s-0.8-0.2-1.2-0.2s-0.7,0-1.2,0.4s-0.5-0.1-1.2-0.3s-1.2-0.5-1.7-0.9s-1,0.2-1.4,0.4 c-0.3,0.2-0.6-0.1-0.8-0.3s-0.7,0-0.9,0.4c-0.2,0.4-0.4-0.1-1.2,0.2c-0.8,0.4-0.8,0.5-0.9,1.2s0,1.2,0.1,2.4s0.2,0.5,0.5,1.2 c0.3,0.8,0.2,0.7,0.4,1.2c0.1,0.5,0.3,0.2,0.6,0.7s-0.1,0.5-0.1,1c0,0.5-0.2,0.2-0.4,0.8s0.3,0.8,0.4,1.5s0.2,0.3,0.3,0.9 c0.2,0.6-0.2,0.3-0.7,1.1c-0.5,0.7-0.1,0.2,0.1,0.9s-0.2,0.4-0.2,1.2c0.1,0.8,0.3,0.7,0.5,1.1c0.2,0.4,0.1,0.2,0.1,0.9 c0.1,0.6-0.1,0.6-0.2,0.9c-0.1,0.3-0.1,0.2-0.1,0.6s-0.1,0.3-0.3,0.8s0,0.1,0.4,0.8s0.1,0.2,0.1,0.7s0.1,0.2,0.4,0.7 c0.3,0.4,0.1,0.2,0.2,1s-0.1,0.4-0.2,1s-0.1,0.4-0.2,0.9s0.1,0.4,0.2,0.8s-0.1,0.4-0.2,0.7s0.1,0.3,0.2,0.9s0,0.2-0.3,0.9 s-0.3,0.9-0.2,1.5s0.1,0.3,0.1,0.8c0.1,0.6-0.1,0.5-0.2,1.3c-0.1,0.8-0.1,0.4,0,1c0.1,0.6,0.1,0.8,0.4,1.4s0.3,0.4,0.3,1.3 c0.1,0.9-0.1,0.9-0.2,1.4s-0.1,0.8-0.1,1.5s-0.1,1,0.1,1.9s0.1,0.7,0.1,1.3s0,0.1,0.4,0.6s0.1,0.2-0.1,0.5 c-0.2,0.4-0.1,0.4-0.1,0.8s0.2,0.6,0.2,1.2s-0.1,0.2-0.2,0.7s-0.1,0.5-0.2,1.2c-0.1,0.8,0,0.6,0,1.5c0.1,1,0,0.3-0.1,1.1 s-0.1,0.6-0.2,1.4s0.1,1.2,0.4,2.1s-0.3,1-0.4,1.3c-0.1,0.3-0.4,0.6-0.5,1.2c-0.1,0.7,0.2,0.9,0.4,1.6s-0.1,0.7-0.3,1.2 c-0.2,0.5-0.1,0.4,0.3,0.9c0.3,0.5,0.1,0.2,0.1,0.8s0.1,0.3,0.3,0.7c0.3,0.4,0.1,0.4-0.2,0.8s0.1,0.2,0.2,0.7 c0.2,0.5,0.1,0.2,0.1,0.8s-0.2,0.6-0.4,1.3s0.2,0.9,0.2,1.1s0.1,0.5-0.3,1.1c-0.4,0.6-0.1,0.9-0.1,1.5c0,0.6,0,0.4,0,1 s0.1,0.6,0.2,1s0.2,0.3,0,0.9c-0.2,0.6,0.1,0.6,0.2,1.2s0.3,0.3,0.2,1.1s-0.1,0.6-0.1,1.1s0.1,0.3,0.2,0.8 c0.2,0.5,0.2,0.5,0.2,0.8c0,0.2-0.2,0.3,0.1,1s0.2,0.4-0.2,1s-0.2,0.9-0.1,1.1s0,0.3,0,0.7s-0.1,0.6,0.1,1.2 c0.2,0.6-0.1,0.5-0.2,0.9c-0.1,0.4-0.3,0.8-0.5,1.3c-0.2,0.6,0,0.4,0,0.8s-0.2,0.6-0.2,1.2c0,0.6,0.1,0.4,0.1,0.8s0.4,0.5,0.7,0.8 s0.5,0.4,1,0.4s1-0.3,1-0.3C188.7,120.4,189.2,120,189.5,120.1L189.5,120.1z" />
        <path d="M188.7,3.6c0.6-0.7,0.8-0.2,0.7-0.8c0-0.6-0.1-1.2,0.3-1.2s1.1-0.1,1.7-0.1s0.8,0.2,0.9-0.1s0.1-0.6,0.5-0.4 s0.5,0.4,0.8,0.1c0.3-0.2,0.7-0.1,1.2-0.4s1.1-0.6,1.6-0.2s0.7,0.6,0.9,0.5s0.4-0.7,0.6-0.7s0.6-0.4,1.1-0.2 c0.5,0.2,0.7,0.1,1.1,0.5c0.4,0.4,0.7,0.5,1.2,0.8s0.8,0.1,1.1,0.5c0.3,0.5,0.5,0.5,0.8,0.9s0.1,0.2,0.2,0.8 c0.1,0.7,0.2,0.8,0.5,1s0.8,0.2,1,0.5s0.4,0.3,0.5,0.8s0.3,1.1,0.3,1.5s0.3,1.4,0.5,2s0.2,1.1,0.1,1.4c-0.1,0.2-0.5,0-0.4,0.9 c0.1,0.9,0,1.3-0.1,1.6s0.1,0.9,0.1,1.2s-0.1,1-0.4,1c-0.3,0-0.5,0-0.7,0s-0.5,0-0.3,0.2s1,0.1,1,0.6c0.1,0.5,0,1.1-0.4,1.2 c-0.4,0.1-1.1,0.1-1.2,0.3c-0.1,0.2-0.2,0.3-0.2,0.7s-0.1,0.4-0.5,0.6c-0.4,0.2-0.4,0.5-0.6,1c-0.2,0.5-0.2,0.5-0.7,0.7 s-0.7,0.5-1,0.3s-0.4-0.4-0.6-0.2c-0.2,0.2-0.4,0.1-0.8,0.4c-0.4,0.3-0.3,0.3-0.6,0.3c-0.4,0-0.6-0.2-0.9,0 c-0.2,0.2-0.3,0.2-0.8,0.5s-0.7,0.5-1.2,0.5s-0.7,0-1.1-0.1c-0.4-0.1-0.9-0.2-1.4-0.3c-0.5-0.1-0.3-0.4-1.2-0.5 c-0.9-0.1-0.6,0.2-1.4-0.3c-0.8-0.5-1.1-0.8-1.5-1s-0.1-0.3-0.8-0.3s-1,0.6-1.3-0.1c-0.2-0.7-0.1-0.4-0.4-1s-0.4-0.3-0.4-0.9 c0-0.5,0.2-0.1-0.1-1.1c-0.4-1-0.5-0.8-0.6-1.3s-0.2-0.4-0.2-1.1s0.5-0.5,0.5-1s-0.1,0.2-0.1-1c0-1.2,0.2-1.1,0.1-1.6 s-0.4-0.3-0.3-1s0.1-0.7,0.3-1c0.2-0.4,0.3-0.1,0.4-1.2c0.1-1-0.1-1.2,0-1.7s0-0.7,0.4-1.1s1-0.4,1.2-0.6S188.4,3.9,188.7,3.6 L188.7,3.6z" />
        <path d="M243.4,75.2c-0.5-0.2-1.2-0.4-1.5-0.6s-0.1,0-0.5-0.5s-0.5-0.6-0.6-0.9c-0.1-0.3-0.2-0.3-0.1-1c0.1-0.7,0.3-0.8,0.4-1.2 c0.1-0.4,0.2-0.6,0-0.8s-0.5,0-0.5-0.7s-0.1-0.6-0.2-1.6c-0.1-0.9,0.2-0.4-0.1-1s-0.3-0.5-0.3-1s-0.4-0.6-0.6-1 c-0.2-0.5-0.3-0.3-0.4-1c-0.1-0.7-0.1-0.7,0-1s0.5-0.2,0.2-0.6s-0.4-0.5-0.4-0.7s-0.7-0.7-0.1-1.6c0.6-0.9,0.8-0.9,1.3-0.8 c0.5,0.1,1.5-0.5,1.9-0.7s0.9,0.1,1.2,0s1-0.7,1.6-0.7c0.6-0.1,1.5,0.1,1.7,0.1c0.2,0,0.5-0.4,0.8-0.8s0.7-0.8,1.2-1 s0.9,0,1.1-0.4s0.8-1,1.2-1.4c0.3-0.3,0.6-0.5,0.7-0.9c0.1-0.3,0-0.6,0.3-0.9c0.2-0.3,0.3-0.1,0.4-0.6c0.1-0.6,0.1-0.1,0.1-0.9 c0.1-0.8,0-0.8,0.3-1.1s0.6,0,0.5-1s-0.6-1.1-0.3-2.1c0.2-1,0.1-0.5,0.5-1.3s0.7-1.1,0.7-1.6c0-0.5,0-1.2,0-1.8s-0.3-0.9-0.3-1.6 s0-0.9,0.1-1.2s0.3,0,0.3-0.5s0.4-0.7-0.1-0.8s-0.4-0.2-0.4-0.7s-0.2-0.7,0.1-1.1c0.4-0.3,0.9-0.7,1.4-0.7s1.4-0.1,1.9,0.2 s0.8,0.6,1.1,0.5c0.2-0.1,0.4-0.6,0.8-0.6c0.4-0.1,1.1,0.2,1.5,0.3s0.7,0,1-0.1s0.6-0.2,1-0.1s0.9,0.3,1.2,0.2 c0.3-0.1,0.8-0.1,0.8-0.1s0.6,0,1.1,0.3c0.5,0.2,0.7,0.2,1.1,0s1.3-0.3,1.5-0.2c0.2,0.2,0.9,0.5,1.3,0.4c0.4-0.2,0.2-0.2,1-0.2 s1.3-0.4,2-0.3s1.6-0.2,1.6,0.4c0,0.6-0.2,1.9-0.4,2.3s0.1,0.8-0.2,0.9c-0.4,0.1-0.7-0.1-0.6,0.3c0.1,0.5,0.2,0.5,0.2,0.9 s-0.2,0.6,0,1c0.2,0.4,0.1,0.8,0.2,1.2c0.1,0.4,0.2,0.1,0.2,0.6s0.1,1.2-0.1,1.5c-0.3,0.4-0.1,0.3-0.1,0.8c0,0.5,0,2.1,0.2,1.7 s0.2-0.7,0.6-1.2s0.7-0.8,1.2-1.3s0.4-0.4,1.2-0.8c0.9-0.4,1.3-0.3,1.5-0.5s0.7-0.3,0.9-0.9s0.1-0.7,0.8-0.9s1-0.5,1.7-0.7 s1.1-0.4,1.8-0.7s1.3-0.3,1.3-0.8s0.1-1.3,0.4-1.6c0.4-0.3,0.9-1.1,2-1.2s1.7,0.2,2,0.1c0.2-0.1,0.4-0.4,0.8-0.4 c0.4,0.1,0.8,0.1,0.9,0s0.5-0.3,0.7-0.8s0.9-0.9,2-1.2c1-0.3,1.3-0.3,1.6-0.1c0.3,0.2,0.4,0.4,0.7,0.2s1-1,2-1.1 c0.9-0.1,1.5,0.3,1.8,0.5s0.4-0.4,1.3-0.4s1-0.3,1.5,0.1c0.4,0.4,0.6,0.5,1.2,0.7s0.4,0.1,1.1,0.1c0.7,0.1,1.8-0.6,2.3-0.2 c0.5,0.4,0.7,0.6,1.1,0.6c0.4,0,1.4-0.3,2.2,0.1c0.9,0.4,0.7,0.4,1.5,0.7s1.1,0,1.7,0.4c0.6,0.4,0.9,0.9,1.4,1 c0.5,0.2,1.6,0.5,2.5,1.1c0.9,0.5,1.2,0.5,1.6,0.9c0.4,0.4,0.4,1.1,1.2,1.6c0.8,0.6,1.2,0.8,1.8,1.5c0.6,0.7,0.3,0.7,0.9,1.1 c0.6,0.5,0.9,0.7,0.9,0.8c0,0.1,0.4,0.5,0.4,1s-0.2,0.4,0.3,1s0.5,0.1,0.8,0.8s0.9,1,1.2,1.6s0.5,0.8,1,1.6s0.2,0.6,0.8,1.3 c0.6,0.7,0.8,0.6,0.8,0.9s-0.1,0.9,0,1.3s0.2,0.5,0.5,1s0.6,0.9,0.8,1.2s0.4,0.5,0.3,1c-0.1,0.5-0.4,0.7-0.2,1.2s0.4,0.7,0.5,0.9 s0.2,0.1,0.2,0.8c0,0.7,0,1.3-0.1,1.6c-0.1,0.3,0.2,0.1,0.2,0.7s0.2,1-0.1,1.9c-0.2,0.8-0.3,0.8-0.2,1.2c0.1,0.3,0.3,0.3,0.7,0.9 c0.4,0.6,0.8,1.1,1,1.4c0.2,0.3,0.3,0.6-0.1,1c-0.4,0.4-1,0.8-1.3,0.9c-0.2,0.2-0.5,0.6-0.4,0.8s0.3,0.6,0.3,0.8 c0,0.1,0.2,0.8,0.3,1.2c0.1,0.4,0.2,0.5,0.2,1s-0.1,1.2-0.1,1.3c-0.1,0.1-0.3,0.3-0.1,0.6s0.6,0.8,0.5,1.2c-0.1,0.4-0.4,0.8-0.5,1 s-0.1,0.5-0.1,0.8s0.2,0.9,0.1,1.3c-0.1,0.4-0.4,0.4-0.6,0.7s-1,0.1-0.6,0.8s0.6,0.4,0.5,1s-0.3,1.4-0.2,1.6s0.6,0.3,0.8,0.6 c0.1,0.3,0.2,0.3,0.1,0.8s-0.1,0.7,0.1,0.7s0.6,0.3,0.4,0.8c-0.2,0.6-0.1,0.5-0.4,1.1c-0.3,0.7-0.1,0.8-0.4,1.4 c-0.3,0.6-0.5,0.6-0.4,0.9s0.1,0.2,0,1.2s-0.3,1.3,0,1.6c0.3,0.3,0.4,0.2,0.4,0.5c0,0.3,0,0.7-0.1,1.3c-0.2,0.6-0.1,0.9-0.2,1.5 s-0.1,0.9-0.3,1.3s-0.5,1.1-0.4,1.4s0.8,0.5,0.8,0.5s0.4,0.2,0.2,0.7s-0.3,0.3-0.2,0.7s0.3,0.4,0.3,0.9s0,0.7-0.2,1 s-0.3,0.7-0.2,0.8s0.5-0.1,0.6,0.2s-0.4,1.8-0.4,2.1s-0.2,0.3-0.3,0.7s-0.2,0.1-0.1,0.7c0.1,0.6,0.6,0.9,0.5,1.1s-0.2,2.6-0.2,3.3 c0,0.7,0.2,0.4,0.2,1.1c0,0.7,0,1.4-0.2,1.6c-0.1,0.2-0.5,0-0.2,0.4s0.6,0.4,0.7,0.7s-0.3,1,0,1.4s0,0.5-0.2,0.7 c-0.2,0.1-0.4,0.1-0.4,0.3c0,0.3-0.3,0.9-0.4,1s-0.3,0.1,0.2,0.3c0.5,0.1,1.2,0.2,1.1,0.6c0,0.4,0,1.3-0.8,1.4 c-0.8,0.1-1.4,0.3-1.7-0.1s-0.4-0.4-0.6-0.7s0.2-0.5-0.5-0.4c-0.7,0.1-0.7,0.2-1.8,0.2s-1.4,0.1-2-0.1s-0.7-0.2-1.5-0.2 s-0.9,0.3-1.4,0.3s-0.3-0.1-1,0.1s-0.6,0-1.3,0.1s-0.8,0.1-1.2,0s-0.7-0.2-1.1-0.2s-0.4,0.1-1.1,0.1s-0.8,0.2-1.3,0.1 s-0.7-0.5-1.2-0.3s-0.9,0.2-1.2,0.2c-0.4,0-1.1-0.2-1.1-0.8s0-0.8-0.2-1.1s-0.1-0.7,0.2-0.9s0.3-0.3,0.3-0.6s0.1,0,0.2-0.6 s0.1-0.6-0.1-0.8s-0.2-0.6-0.1-1.3s-0.1-0.5,0-1s0.3-1.2,0-1.5c-0.3-0.4-0.7-0.5-0.7-1s-0.2-0.3,0.2-1.1c0.3-0.8,0.5-0.8,0.5-1 c0-0.3,0.4-0.4,0-0.9s-0.9-0.4-0.7-0.8s0.4-0.6,0.5-0.8c0.1-0.2,0.9-0.9,0.5-1.4s-0.7-0.4-0.2-0.9s0.8-0.4,0.5-1.1 s-0.5-1.2-0.6-1.4s-0.1-0.2-0.1-1.2c0-1.1,0.1-1.3,0-1.8s-0.3-0.4-0.1-0.9c0.2-0.5,0.5-0.1,0.1-0.9s-0.8-0.6-0.8-1.5 s0.5-1.5,0.6-1.8c0.1-0.2,0.4-0.5,0.2-0.9s-0.3-0.8-0.2-1.1c0.1-0.3,0.5-0.7,0.4-1.3s-0.3-0.7-0.2-1.6c0.1-0.9-0.1-0.6-0.1-1.5 c0-0.9,0-1,0.2-1.4c0.2-0.4,0.6-0.1,0.4-1s0-0.4-0.3-1.4s-0.5-1.7-0.5-2.5c0-0.8,0-1.6,0.3-2.2s0.7-0.4,0.4-1.1s-0.6-2-0.6-2.1 s-0.2-1,0.2-1.6s0.5-0.7,0.5-1.3c-0.1-0.6-0.3-1.2-0.5-1.7c-0.2-0.4-0.6-1.6-0.2-2.1s0.5-0.7,0.3-1s-0.2-1.1-0.1-1.4 s0.1-0.5,0.1-0.8s0.2-0.9-0.1-1.4s0-0.6-0.5-1.1c-0.5-0.5-0.8-0.7-1-0.8s-0.6-0.2-0.4-0.7s1.1-1.6,0.5-1.8s-0.6-0.2-0.6-0.7 c-0.1-0.5,0.1-0.8-0.2-1.1c-0.3-0.3-0.4,0.1-0.7-0.5s-0.2-0.9-0.5-1c-0.4-0.1-0.5-0.6-0.7-0.8s-0.3-0.2-0.6-0.4s-0.5,0.2-0.5-0.5 s0.1-0.7-0.1-0.9s-0.1,0-0.5-0.5c-0.4-0.5-0.5-0.6-0.7-0.6s-0.5-0.1-0.7-0.1s0.5-0.1-0.4-0.1s-0.7,0.5-1.4-0.2s-0.7-0.8-1-0.7 s0.6,0-0.6,0.1s-1.4,0.2-1.8,0s-0.5-0.7-1-0.8c-0.4-0.2-0.8-0.8-1.2-0.8s-1.1-0.2-1.4,0s0.2,0.3-0.7,0.4s-2.3,0.3-3,0.2 s-1.2-0.1-1.4,0.1s-1.1,0.1-1.6,0.3s-0.1-0.1-0.9,0.3c-0.8,0.4-1.3,0.3-1.6,0.4s-0.6,0.2-0.7,0.3s-0.5,1.2-0.9,1.4 s-0.7,0.1-1.2,0.2s-0.4-0.5-0.8,0.5s-0.1,1.3-0.5,1.5c-0.4,0.2-0.8-0.1-1.1,0.3c-0.3,0.4-0.7,1.2-1,1.6c-0.3,0.4-0.5,0.5-0.9,0.6 c-0.5,0-1-0.1-1.2,0c-0.3,0.2-0.7,0.5-1,0.8c-0.3,0.3-1,1.3-1.4,1.6s-0.5,0.5-0.8,0.6c-0.3,0.1-0.6-0.2-0.5,0.2 c0.1,0.4,0.2,0.6,0.1,1s-0.3,1.3-0.6,1.8s-0.6-0.1-0.9,0.6c-0.3,0.6-0.3,0.6-0.3,1.3s0.3,1.1,0.3,1.6c0,0.5,0.2,0.8,0.2,1.5 s0,1.4,0,2s0,0.3-0.1,0.7c-0.1,0.4-0.2-0.2-0.1,0.6s-0.1,0.6,0,1.2c0.1,0.6,0.2,0.4,0.2,0.9s0,0.5-0.1,1.6c-0.2,1.1-0.2,0.7,0,1.4 s0.3,1.9,0.2,2.3s-0.6-0.3-0.4,0.9s0.3,1.3,0.4,1.8s0.4,0.7-0.1,0.9s-0.3-0.1-0.6,0.4s-0.7,1.4-0.2,1.2s1.1-0.7,1-0.2 c-0.1,0.6-0.2,1.2-0.2,2c-0.1,0.7,0.2,0.4-0.1,1.3s-0.7,1.3-0.5,1.7s0.1,0.6,0.4,0.7s0.7-0.3,0.7,0.3s0.2,0.8,0.2,1.2 s-0.2,0.4-0.3,0.9s-0.3,0.6-0.1,1c0.2,0.4,0.5,1.1,0.4,1.6s-0.1,0.5-0.3,1.1s-0.5,1-0.2,1.3c0.3,0.3,0.6,1.1,0.7,1.5 s0.3,0.5-0.1,0.6c-0.5,0.1-0.7,0.2-0.5,0.3c0.1,0.1,0.3,1.1,0.4,0.8c0.2-0.2,0.3-0.4,0.3,0.2c0,0.5-0.2,0.8-0.4,1.4 s-0.2,0.7,0.1,0.9c0.3,0.2,0.7,0.3,0.5,0.7c-0.2,0.4-0.4,0.4-0.4,0.6s-0.2,0.2-0.1,0.7s0.7,0.2,0.5,0.6c-0.1,0.5-0.2,0.3-0.5,0.9 s-0.8,1.2,0,1.2c0.8,0,1.1-0.1,1.1,0.1s0-0.2-0.2,0.6c-0.2,0.7-0.3,1.1-0.5,1.3c-0.2,0.2-0.4,0.3-0.3,0.6c0,0.4,0.5,0.2,0.2,0.8 c-0.2,0.6-0.4,0.1-0.4,0.7s-0.2,0.8,0.1,1.1s0.3,0,0.4,0.4s0,0.2,0.1,0.7s0.3,0.7,0.3,1.3c0,0.6-0.1,0.7-0.2,1.3s0,0.7,0.2,1 s0.4,0.5,0.3,1s0.2,0.4,0.2,1s0.1,0.8-0.5,0.9c-0.6,0.1-1.1,0.5-1.7,0.2s0.1-0.6-0.8-0.4c-1,0.1-1-0.6-1.5,0.1 c-0.5,0.6-0.5,0.8-1.2,0.8c-0.8,0-1.2,0.5-1.7-0.1c-0.5-0.6-0.3-0.8-0.9-0.8s-0.5-0.1-1.4,0.2s-1.2,0.3-1.8,0.2 c-0.6-0.1-0.4,0.2-1.2,0.1c-0.9-0.1-0.4-0.2-1.2-0.2s-0.4,0.3-1.2,0.4s-1.2,0.3-1.7,0.2s-0.1-0.7-1.1-0.4s-1.1,0.4-1.6,0.3 s-0.4-0.1-1-0.5s-0.9-0.2-0.7-0.8s0.3-0.6,0.4-1.1s0.6-0.7,0.6-1.2s-0.1-0.6,0.1-1.1s0.2-0.3,0-0.9c-0.2-0.6-0.2-0.5-0.2-1.2 s-0.2-0.5,0-1.1s0-0.8,0-1.5s0.1-1,0.1-1.4c0.1-0.4,0-0.2,0-1.4c0-1.1,0.2-1.5,0.2-1.7c0-0.2-0.1-0.8-0.2-1.2 c-0.1-0.5-0.5-0.9-0.1-2c0.4-1.1-0.1-0.9,0.2-1.6s0.2-0.8,0.3-1.4c0.1-0.7,0.7-0.8,0.2-1.3s-0.6-0.5-0.7-0.6s-0.3-0.4-0.1-1.2 c0.2-0.8,0.2-1,0.1-1.7s-0.6-0.8-0.2-1.4c0.4-0.6,0.7-0.1,0.5-1c-0.2-1-0.5-1.8-0.5-2.2s-0.1-1.6,0.3-2.4c0.3-0.9,0.4-1,0.4-1.6 s0.4-0.7,0.2-1.2c-0.2-0.6-0.4-0.5-0.4-0.9s0.2-0.9,0.3-1.6s0-0.9-0.4-1.5s-1-0.6-0.8-1.6s0.1-1.4,0.2-2s0.6-0.4,0.5-1.1 c-0.1-0.7-0.2-0.3-0.4-0.7c-0.3-0.4-0.9-0.7-0.7-1.5s0.4-1.2,0.4-1.8s-0.3-1.9-0.8-1.2c-0.5,0.7-0.4,1.2-0.9,0.7 c-0.5-0.5-0.8-0.6-1.2-0.4c-0.4,0.2-0.2,0.2-0.9,0.5c-0.7,0.3-0.6,0.1-1.1,0.1s-0.9-0.1-1.1,0.1s-0.4,0.4-0.6,0.7 s-0.4,0.6-0.6,0.7c-0.2,0.1-0.6-0.1-0.8,0.1S244.2,75.3,243.4,75.2L243.4,75.2z" />
        <path d="M362.2,66.3c0,0,0.6-0.8,0.3-1.1c-0.3-0.3-0.6-0.8-0.8-1.1c-0.2-0.3-0.2-0.8-0.2-1.2s-1-0.8-0.8-1.4 c0.2-0.6,0.4-0.6,0.1-1c-0.3-0.4-0.9-1.3-0.3-1.3s1.7,0.3,2.2-0.3c0.6-0.7,0.8-1.2,1.2-0.8c0.4,0.3,0.2,0.5,1.2,0.3 s0.6-0.6,2.2-0.9c1.6-0.3,1.8-0.2,2.3-0.6s1.4-0.5,1.7-1s0.5-1,0.8-1.4s1.7-1.4,1.8-1.7s0.1-0.2,0.1-0.6s-0.1-0.9,0-1.2 c0.1-0.3,0.3-0.2,0.7-0.8c0.4-0.7,0.3-0.5,0.5-0.9c0.2-0.3,0.4-0.3,0.5-0.8s0.3-0.9,0.2-1.2c-0.1-0.4,0-0.8-0.2-1.5 s-0.2,0-0.1-1.6c0.1-1.6-0.3-2.2,0-2.9c0.4-0.6-0.1-0.6-0.2-0.6c-0.2,0-0.6-0.2-0.4-0.5c0.2-0.3,0.7-0.6,0.8-1 c0.2-0.4,0.6-0.4,0.2-0.8s-0.5-0.5-0.5-0.8s-0.7-0.7-0.5-1.2s0.8-1.1,1.2-1.1s0.9-0.2,1.2,0.2s0.4,0.6,0.7,0.7 c0.3,0.1,0.4,0.2,0.8,0s0.3-0.3,0.9-0.4c0.6,0,0.5-0.2,1.1,0s1.3,0.5,1.8,0.4s1-0.5,1.4-0.6s1.2-0.3,1.7-0.2 c0.5,0.1,0.6,0.2,1.2,0.4s0.9,0.1,1.4,0.1s0.9-0.2,1.7,0.1c0.8,0.3,0.7,0.3,1.4,0.2c0.7-0.2,1.4-0.6,1.9-0.6s1.2-0.2,2.2,0.2 s1,0.2,0.9,0.6c-0.1,0.3-0.4,0.6-0.4,1.3c0,0.7,0.1,1.6-0.4,2.1c-0.5,0.5-0.6,0.4-0.8,1c-0.1,0.7,0-0.1-0.2,1.2s-0.2,1.9-0.2,2.5 s-0.2,2.2,0.2,1.8s-0.1-0.8,1.2-0.8s1.3,0.2,1.6-0.2s0.8-0.7,1.1-1c0.3-0.3,0.8-0.6,1.3-0.9s1.1-0.3,1.4-0.7 c0.4-0.3,0.3-0.8,0.8-1.2c0.5-0.3,1.6-0.8,2-0.9c0.3-0.1,0.6,0.1,0.9-0.3c0.3-0.4,0.4-0.2,0.9-0.7s0.8-1,1.2-1.3s0.9-0.8,1.4-0.9 s0.2-0.3,1-0.3s1.2,0.1,1.3-0.2c0.1-0.3,0.6-0.8,0.8-0.8s0.8-0.3,1.3-0.2c0.5,0.1,0.7,0.2,0.9,0.1c0.2-0.1,0.6-0.7,1-0.8 c0.4-0.2,0.8-0.3,1.5-0.3s0.9,0.3,1.4,0.1s0.1,0.1,0.7-0.5c0.6-0.6,0.7-0.7,1.2-0.8c0.5-0.2,0.2-0.4,1.1-0.1s0.7,0.3,1.2,0.4 c0.6,0.1,0.6,0.3,1.9,0.1c1.2-0.2,1.4-0.8,1.6-0.5s0,0.5,0.7,0.5s0.2-0.2,1.3-0.3c1.1-0.1,1.2-0.3,2.7,0.1c1.5,0.4,1.7,0,2.2,0.7 s0.2,0.8,0.8,1c0.6,0.2,0.8,0.2,1,0.3s1.1,0.2,2.2,0.8c1.1,0.5,0.9,0.3,1.5,0.8c0.6,0.6,0.3,0.1,1.3,0.8c1,0.7,1,0.4,1.1,0.8 c0.1,0.4,0.2,0.8,0.8,1.1c0.5,0.2,1.2,0.3,1.5,0.6s1.8,1.5,2.3,2.2c0.6,0.7,0.5,1,0.9,1.4c0.4,0.4,0.6,0.5,0.6,0.9s-0.5,0.2,0,0.7 s0.5,0.6,0.7,0.8s1.5,1.1,1.5,1.7s0,0.9,0.1,1.4s1.2,2.9,1.4,3.5s0.4,0.4,0.5,1.5c0.1,1,0.2,1.2,0.3,2c0.1,0.9,0.4,2.3,0.1,3.1 s-0.4,0.9-0.2,1.1s0.8,0.3,0.8,0.8s-0.5,0.7-0.5,1.2s0.3,0.4,0.2,1c-0.1,0.7-0.9,0.7-0.6,1.2c0.3,0.5,0.5,0.5,0.8,0.9 s-0.3,1,0.1,1.6s0.2,0.7,0.1,0.8c-0.2,0.1-0.4,0.3-0.3,0.8c0.1,0.5-0.9,0.6-0.1,1.3c0.8,0.7,0.6,0.9,0.6,1.3 c0,0.4,0.4,1.9-0.1,2.7c-0.6,0.8-0.5,0.9-0.4,1.2c0.1,0.3-0.2,0.5-0.2,1s0.9,0.5,0.6,0.8s-0.6,0.5-0.5,0.7c0.1,0.2,0,0.7,0.5,0.8 s0,0.6-0.1,1c-0.1,0.4-0.5,0.6-0.5,0.9s0,0.4,0.3,0.8c0.2,0.4,0.1,0.3,0.3,0.7s0.3,0.3,0.2,0.7s-0.2,0.5-0.2,0.8s-0.4,1.3-0.2,1.7 s0.5,1.3,0.6,1.6s0.1,0.4-0.1,0.8c-0.2,0.4,0,0.8-0.4,1.2s-0.3,0.8-0.2,1.1s0.6,0.6,0.7,1s0.4,0.7,0.1,1.2s-0.5,1.2-0.6,1.6 c-0.1,0.3-0.2,0.5-0.1,1s0.4,0.4,0.5,1c0.1,0.6,0.1,0.7,0.2,1.1s0.2,0.9,0.2,1c0,0.2-0.1,1.2-0.1,1.5c0,0.2-0.1,0.2,0,0.8 c0.1,0.6,0.3,0.5,0.2,0.9s0.1,1.3,0,1.5s-0.1,0.2,0,0.8s0.2,0.5,0.1,1s-0.5,0.6-0.4,1.5c0.1,0.9,0,1.3,0.1,1.6s0.7,1.5,0.7,2.1 s0,0.9,0,1.6c0,0.7,0.2,0.7,0,1.5s-0.1,1-0.3,1.4c-0.2,0.3-0.1-0.2,0.1,0.6c0.2,0.8,0.2,0.9,0.2,1.2s0,0.5,0.4,0.8 s1.2,1.5,1.3,1.7s0,0.3-0.4,0.4s-0.8,0.1-0.8,0.4s0,1-1.1,1.1c-1.1,0.1-1.1,0.5-2.1,0.1s-1.2-0.8-1.7-0.7s-0.5,0.1-1.5,0.1 s-1.7-0.1-1.9-0.2c-0.2-0.1-0.3-0.2-1,0s-0.5,0.4-1.4,0s-0.4-0.7-1.3-0.7c-0.9,0-1.6-0.1-2,0c-0.4,0.1-1-0.1-1.2,0 s-0.7,0.4-1.6,0.5s-0.8-0.1-1.9,0.1c-1.1,0.2-2.3-0.3-2.2-1.1c0.2-0.8,0.5-1.1,0.7-1.5c0.1-0.4,0.4-0.5,0-1 c-0.3-0.4-0.6-1.5-0.5-1.7c0.1-0.2,0.2-0.5,0.6-1.3c0.4-0.8,0.6-0.7,0.3-1.1c-0.2-0.4-0.6,0-0.5-1s0.1-1.5,0.4-1.9 c0.3-0.4,0.5-0.4,0.1-1s0.1-0.4-0.4-0.9s-0.7-1-0.7-1.5s0.3-0.3,0.2-1.2s-0.1-1.7,0.2-2s0.2-0.3,0.7-0.5s1.1,0.2,0.5-0.7 s-0.5-1.3-0.3-1.8s0.1,0,0.1-0.6s-0.1-0.5-0.2-1.1c0-0.7-0.3-0.8-0.5-1.4c-0.2-0.5-0.3-0.3-0.2-0.9c0-0.5-0.1,0-0.1-0.9 s0.2-0.8,0.4-1.4s0-0.3,0.4-1s0.7-0.7,0.2-1.1s-1-0.6-0.8-1s0.4-0.1,0.4-0.5s-0.3-0.2-0.4-0.6s-0.1-0.4,0.2-0.9 c0.4-0.5,0.6-0.9,0.6-1.1c0-0.2,0.3-0.3-0.1-1.4c-0.4-1.1-0.5-0.9-0.5-1.8s0-1.4,0.3-1.8s0.5-0.4,0.2-0.8 c-0.3-0.4-0.4-0.1-0.3-0.7s0.4-1.6,0.2-2.2s-0.4-1-0.3-1.6c0-0.6,0.2-1.2,0.2-1.4s-0.2-0.5-0.1-1.1c0.1-0.6,0.3-0.6,0.2-1.1 s0-0.7-0.3-0.9s-0.3-0.6-0.1-1s0.3-0.6,0.2-1.1s-0.1-0.5-0.2-0.8s-0.4-0.8-0.4-1.3c0-0.5-0.3-0.9-0.3-1.4s0-1.2,0.1-1.5 c0.1-0.2,0.3-0.2,0.1-0.9s-0.2-0.9-0.5-1.2c-0.3-0.3-0.4-0.5-0.5-0.9s-0.1-0.6-0.2-1.1c-0.1-0.5-0.2-0.3-0.3-1s0.1-1.7-0.2-2 c-0.2-0.4-0.6-0.4-1-0.7s-0.6-0.3-0.8-0.8s-0.1-0.6-0.6-1.4c-0.4-0.8-0.3-1.3-0.3-1.6s-0.1-0.2-0.7-0.6c-0.6-0.3-0.7-0.3-1.4-0.5 s-0.7-0.1-1.3-0.6c-0.7-0.6-0.4-0.6-0.8-0.9c-0.4-0.3-0.4-0.6-0.9-0.5c-0.5,0.1-0.9,0-1.3-0.1c-0.4-0.1-0.6-0.5-1.5-0.5 s-0.5,0.3-1.5-0.1c-1-0.4-1.6-0.8-1.9-0.8s-0.8,0.2-1.4,0.3s-0.6-0.3-1.6,0s-1.5,0.5-1.9,0.6c-0.3,0.1-0.7,0.1-0.9,0.3 s-0.2,0.1-0.8,0.5s-0.8,1.3-0.9,0.8s0.8-1-0.1-0.9c-0.9,0.1-1.4,0.3-1.7,0.9c-0.3,0.6-0.4,0.7-0.9,0.9s-1.2,0.5-2,0.9 s-0.6,0-1.2,0.4c-0.6,0.4-0.9,0.3-1.6,0.7s-0.5-0.2-1,0.6s-0.8,1-1.8,2s-1.2,0.9-1.3,1.4c-0.1,0.5-0.1,0.6-0.6,1.1 c-0.5,0.5-0.4,0.4-0.6,0.7c-0.2,0.2,0.1,0.7-0.4,0.9s-1.5-0.3-1.2,0.6s0.8,0.8,0.6,1.5c-0.2,0.7-1,1.1-1.1,1.7 c-0.1,0.6,0.1,1.1,0,1.4s0,1.2,0.1,1.8c0.1,0.7,0,1.2-0.1,1.9s-0.1,0.7,0,1.5c0.2,0.8,0.2,1.9,0,2.4s0.2,0.9,0.2,1.3 s-0.7,1-0.7,1.7s0.9,2.6,0.8,3.1c-0.1,0.5-0.2,0.6-0.4,1.2c-0.1,0.6-0.2,1.6-0.1,2.2c0.1,0.7,0.2,0.9,0.1,1.7s-0.3,0.7-0.1,1.3 c0.2,0.6,0.2,0.8,0.4,1c0.1,0.2,0.2,0.6,0.3,1.4s0.4,0.8-0.1,1.5s-0.9,0.5-0.8,1.4s0,1,0.2,1.3c0.2,0.3,0.4,2,0.2,2.5 c-0.2,0.6-0.5-0.2-0.4,0.8c0.1,1,0.6,1.8,0.6,2.2c0,0.4,0.4,3.7,0.1,4.1s-0.8,0.1-0.6,1.1c0.1,0.9,0.1,0.8,0.3,1.1 c0.2,0.3-0.1,0.6-0.1,1.8s-0.3,1.3-0.1,1.7s0.9,0.2,0.7,1s-0.9,1-0.9,1.7c0,0.7-0.6,1.2,0.1,1.9c0.7,0.7,0.9-0.3,0.8,1.2 c0,1.5-0.6,2.1-0.3,2.7s0.5-0.1,0.5,1s0.1,1.9-1.1,1.9c-1.2,0-0.9-0.2-2.5-0.1c-1.6,0-0.4-0.5-2.1-0.3s-2,0.1-3,0.1 s-1-0.2-1.8-0.1c-0.8,0-2.3,0.2-2.3-0.2c-0.1-0.4,0.9-0.8-1-0.2c-1.9,0.6-2.1,0-2.6,0.4s-0.1,0.6-1.1,0.6s-2.3,0.2-2.8-0.7 s-1.1-0.6-0.6-1.2s0.9-0.7,1.1-1s0.3-0.4,0-0.9s-0.7-0.5-0.4-1.1c0.2-0.5,0.4,0,0.2-0.8c-0.1-0.9-0.4-0.7-0.1-1.1 c0.3-0.4,0.2-0.5,0.4-1.2s0.4,0,0.3-0.9s-0.2-0.7-0.4-1.3c-0.2-0.6-0.1-0.7,0.2-1.2s0.2-0.5-0.1-1s-0.5-0.5-0.2-0.9s0.6-0.3,0.5-1 s-0.3-0.7-0.5-1.1c-0.2-0.4-0.6-0.9-0.1-1.4c0.6-0.4,0.2-0.8,0-0.9c-0.2-0.1-0.2-0.3-0.3-1.4s0.3-2.7,0.2-3.1s0.2-0.5,0-1.4 s-0.1-0.9,0.1-1.4s0.3-0.3,0.5-0.9c0.2-0.6,0-0.7-0.1-1.4c-0.1-0.8-0.3-0.8-0.1-1.2s0.2-0.6,0.2-1.1s0.2,0.3-0.1-1s-0.2-1-0.4-1.9 s-0.2-0.1-0.1-1.2s-0.1-0.9,0.1-1.9s0.5-0.9,0.6-1.7s0-0.7-0.1-1.3c-0.1-0.7-0.2-0.9-0.2-1.6s0-0.6,0-1.2c0.1-0.6,0.2-0.7-0.1-1.3 c-0.3-0.6-0.5-0.3-0.5-0.9s0.3-0.5-0.1-1c-0.4-0.5-1.1-0.5-0.9-1.1s0.8-0.8,0-1s-1.4-0.2-1.4-0.7s-0.5,0.2-0.7,0.3 c-0.1,0.2-0.4,0-0.8,0.4c-0.4,0.4-0.3,0.7-0.8,0.9s-0.6,0.6-1.2,0.4c-0.6-0.1-1-0.2-1.2,0s0.1,0.2-0.5,0.4 c-0.6,0.1-1.2,0.2-1.3,0.3c-0.1,0.2-0.5,0.4-0.8,0.5s-1.1,0.1-1.5-0.2c-0.3-0.4-0.6-0.3-0.4-0.9s0.3-0.8,0.3-1.1s-0.1-0.3-0.2-0.8 s-0.3-1.1-0.5-1.4s-0.4-0.4-0.2-0.8c0.1-0.4,0.5-0.4,0.3-0.8c-0.2-0.4-0.1-0.5-0.5-0.8s-1.3-1.4-1.1-2.3L362.2,66.3z" />
        <path d="M573.5,76c-0.1-0.3,0.2-0.3,0.2-1.3s-0.7-1.8-0.8-2.1c-0.2-0.3,0-1.1-0.1-1.8c-0.1-0.8,0.2-0.6,0.2-1.5 c0.1-0.9-0.3-2.2-0.5-3s-0.1-0.8-0.1-1.7c0-0.8-0.3-0.8-0.4-1c-0.1-0.2-0.2-0.5-0.2-1.2s-0.3-0.7-0.9-1.5 c-0.6-0.8-0.3-0.4-0.3-0.8s-0.3-1.1-0.4-1.4s-0.4-0.8-0.6-1.3c-0.2-0.5-0.1-0.9-0.2-1.5s-0.5-0.2-0.7-0.6s0-0.3-0.8-0.9 s-0.5-0.7,0.2-0.8c0.7-0.2-0.1-0.9-0.1-1.8s-0.2-0.9-0.6-1.4c-0.4-0.5-0.4-0.3-1.1-1s-1.2-1-1.7-1.3s-0.7-0.5-0.9-1 s-0.5-1.2-1-1.9s-1.2-1.3-1.4-1.7s-0.8-0.5-1.5-1.2s-0.5-0.6-0.7-1.2c-0.2-0.6-0.9-0.9-1.6-1.6c-0.7-0.6-1.5-0.5-2.9-1 s-0.9,0.1-1.6,0.2c-0.7,0.1-0.6-0.5-1.3-1.2s-1.3-1.2-2.2-1.7s-1.2-0.1-1.7-0.2s-1.2-0.4-1.9-0.9s-0.8,0.4-1.2,0s-1.2-0.2-2.2-0.8 s-1,0.3-1.4,0.4c-0.4,0.1-1,0.2-2.3-0.7c-1.3-0.8-1.2-0.5-1.8-0.2c-0.6,0.3-0.5,0.1-1.1,0.3c-0.6,0.2-1,0.5-1.7,0.2 c-0.7-0.4-0.8-0.3-1.6-0.6c-0.8-0.3-0.7,0.4-0.8,0.4s-0.6-0.3-1.5-0.2s-2.7,0.4-3,0.5c-0.3,0.2-0.8,0-1.5-0.2s-1.3,0.6-1.7,0.8 c-0.4,0.1-0.8,0-1.2,0.2s-1,0.5-1.5,0.6s-0.9-0.1-1.4,0.2s-1.5,0.7-2.1,0.8s-0.7,0.5-1.8,0.7s-1.5,0.4-2.1,0.9 c-0.6,0.4-1.7,1.2-1.7,1.7s-0.8,0.2-1.4,0.4s-1.1,0.7-1.3,1c-0.2,0.4-0.6,0.7-0.8,0.9s-0.4,0.4-0.6,0.6c-0.2,0.2-0.5-0.2-0.9,0 s-0.8,1.1-1.5,1.5s-1.6,1-2,1.8s-1.9,2.1-2.1,2.4s-0.6,0.2-1,1s-1,1.2-1.5,2.2s-0.4,2-0.4,2.4s-0.3,0.5-0.6,1 c-0.3,0.5-0.5,1.4-0.6,1.7s-0.8,0.5-1.9,1.8c-1.1,1.2-0.8,1.9-0.9,2.7c-0.1,0.8-0.2,1.9,0,2.8c0.1,0.9-0.2,0.7-0.4,2 s-0.3,1-0.6,1.6c-0.2,0.6-1,0.9-1.6,1.1c-0.7,0.2-0.5-0.3-0.9-0.6c-0.3-0.3-0.7,0.4-1.8,0c-1.1-0.3-0.8,0.1-1.5,0 s-0.9-0.5-1.4-0.7s-0.9,0.1-1.4,0.1s-0.3-0.1-0.9-0.7c-0.5-0.6-0.9-0.7-1.4-0.8s-1.1,0.6-1.6,1.5c-0.4,0.9,0,1.4,0.2,2.2 c0.2,0.8,0,0.2-0.2,0.8s-0.3,1.1-0.5,1.8s-0.1,0.2,0.3,0.9c0.4,0.6,0.2,0.5-0.1,1.1c-0.3,0.6,0,0-0.2,1.1s0,0.8,0.2,1.5 s-0.2,0.6-0.7,1c-0.4,0.4,0,0.2,0.2,0.6c0.2,0.4,0.3,0.4,0.1,0.8s-0.5,1,0,1.6s1.2,1.6,1.2,1.6c0.7,0.6,1.2,0.6,1.8,0.6 s0.5,0,1.8-0.1s1.1,0,1.7-0.2s0.7,0.1,1.2,0.6s1.1,0.5,1.8,0.6s0.3-0.1,1.2-0.3s0.4,0.3,1,1c0.7,0.7,0,0.6-0.2,1.2 s-0.1,0.5,0.2,1.3c0.2,0.8,0.4,0.8,0.6,1.4c0.2,0.6,0.1,0.6,0.3,1s0.3,0.2,0.5,1.2s-0.2,0.5,0.3,1s0.6,1.2,1.4,1.6s0.1,0.8,0,1.2 s-0.1,0.5-0.1,1.4c0,0.9,0.9,1.5,1.3,1.8s0.5,0.3,1.1,1.5c0.6,1.2,0,0.5,0,1.1s0.2,0.8,0.8,1.6s0.6,1.5,0.7,1.7 c0.1,0.2,0.7,0.6,1.2,0.6c0.5,0.1,0.6,0.6,0.8,0.8s0.5,0.8,0.7,1.2c0.1,0.4,0.2,0.5,0.3,1.2c0.2,0.7,0.6,0.4,1.2,0.8 s0.6,0.4,0.8,0.6s0.3,0.7,0.6,1.2s0.3,0.6,0.8,0.9c0.5,0.3,0.5,0.3,1.4,0.5s0.5,0.1,0.9,0.8c0.4,0.6,0.2,0.9,0.5,1.4 s1,0.8,1.6,0.8c0.6,0,0.6-0.2,1.7,0.9c1,1.1,0.3,0.7,0.9,0.8c0.6,0.1,0.8,0.2,1.8,0.3c1,0.2,0.3,0.4,1.2,0.4s0.8,0.1,1.6,0.2 c0.8,0.1,0.9,0.4,1.2,0.8c0.3,0.4,0.8,0.5,1.2,0.5s0.7,0.1,1.4,0.4c0.7,0.3,0.3,0.3,1.1,0.5s0.2,0.4,1,0.8 c0.9,0.4,1.2-0.3,1.8-0.5s0.7,0.3,1.5,0.9c0.8,0.6,0.6,0.8,1.4,0.8s1.2,0.1,1.6-0.1c0.4-0.2,1.2,0,2.2-0.2s1.4,0,1.8,0.2 s1.7,0.1,2.7,0.1s1.2-0.1,2.8-0.2c1.5-0.1,0.7-0.1,1.3-0.1c0.7,0,0.8-0.1,1.4-0.2c0.6-0.1,0.8,0,1.2-0.1c0.4-0.2,0.9-0.1,1.5-0.1 s1.6,0,2.8-0.1c1.3-0.1,1.6-0.3,2.2-0.4c0.5-0.1,1-0.6,1.3-0.8c0.3-0.2,0.5,0.1,1.4,0.1c0.8,0,1,0,1.7-0.2s1.1-0.3,1.3-0.6 s0.3-0.4,1.4-0.3c1.1,0.1,1.6-0.5,2.5-0.7s0.8-0.4,1.1-0.8s0.8,0.3,0.9,0.6c0.2,0.3,0.2,0.1,0.8-1.1s0.6-0.2,1.1-0.7 c0.5-0.5,1.2-0.4,2.3-0.9s1.2-0.2,2.1-0.4c0.8-0.2,0.6-0.8,1.1-1.3c0.5-0.6,0.8,0.1,0.7,0.3s0.8,0.3,1.6-0.5s0.9-2.1,0.6-2.9 c-0.2-0.9,0.1-0.8,0.3-1.1s-0.5-0.7-0.7-1.2s0.4-0.7,0.6-1.7c0.2-1,0.1-1.8,0.3-2.4c0.2-0.6-0.1-0.5-0.1-1.1s0.2-0.6,0.5-1.3 s0.2-0.8,0.1-1.2s-0.3-0.6-0.2-1.1s0.2-0.8,0.3-1.5s-0.4-0.5-0.7-0.8c-0.3-0.3-0.5-0.3-1.8-0.2s-0.5,0.4-0.9,0.8 c-0.4,0.4-0.7,0.5-0.8,0.8s-0.3,0.7-0.8,0.7s-0.5,0.5-1.2,0.8s-0.7,0.2-1.3,0.5s-0.8,0.7-0.8,0.7s-1.5,0.3-2.3,0.4s-0.8,0.8-2.1,1 c-1.2,0.2-1.1,0.8-1.3,1c-0.2,0.2-0.3,0-1.8,0.1s-1.3,0.2-2,0.4s-1,0.4-1.9,0.8c-0.9,0.4-1.1,0.6-1.6,0.3c-0.6-0.2-1.3,0-1.8,0 c-0.6,0-0.9,0.5-1.7,0.7s-1,0-2.4-0.2s-0.8,0-1.3,0.4s-0.9,0-1.8-0.4c-0.8-0.3-2.4,0.4-3.4,0.4s-0.8,0-1.3-0.1 c-0.5-0.2-0.5-0.3-1.1-0.6s-1-0.1-2-0.1s-0.4,0.1-1.2,0s-0.5-0.1-1.1-0.2s-0.6-0.3-1.1-0.7s-0.7-0.4-1.8-0.8 c-1.1-0.4-0.5,0.3-0.9,0.3s-0.4,0-1.2-0.5c-0.9-0.5-0.9-0.2-1.7-0.7s-1-0.5-1.6-0.8c-0.6-0.2-0.8-0.4-1.9-1s-0.9-0.8-1.2-1.5 s-0.4-0.4-0.6-0.8c-0.2-0.4-0.5-0.7-0.7-1.1s-0.9-0.6-1.4-1.1s-0.2-0.7-0.7-1s-0.7-0.6-0.8-1.2c-0.2-0.6-0.1-0.6-0.5-1.2 c-0.4-0.6-0.2-0.2-0.6-0.9s-0.2-0.2-0.4-1.2s-0.8-1.8-0.9-2.4s-0.7-1.1-1.2-1.9s0.3-0.7,0.7-1.3s0.6-0.3,0.7-0.4s0.5,0.1,0.9,0.1 s0.4,0,1.7-0.2s1.1,0.1,1.6,0.1s0.9,0,2,0s1,0,1.3-0.3s0.3,0.1,1.1,0.1c0.8,0,0.5,0,1.5-0.1s0.7,0.1,1.6,0.2 c0.9,0.1,0.5,0,1.7-0.2s0.5,0,0.1,0.2s0.2,0.1,1.9,0.2c0.8,0,0.9,0,0.9,0c0,0,0,0,0.4,0.1c1,0.2,0.3,0.1,1.6,0.1s1.5-0.6,1.8-0.7 c0.3-0.1,0.9-0.3,1.8,0s0.9,0.4,1.5,0.6c0.6,0.2,1.1-0.3,1.4-0.5c0.3-0.2,1.3,0.3,1.8,0.4c0.6,0.1,0.8-0.2,1.4-0.3 c0.6-0.1,1,0,2,0s0.8,0,1.7-0.4s0.7-0.2,1.8-0.2s0.7,0,1.3,0.1c0.6,0.1,1.1,0.4,1.6,0.4s0.5-0.2,1.8-0.4c1.3-0.2,0.8-0.2,1.7-0.4 s0.8-0.1,1.6,0.1c0.8,0.2,1-0.1,2-0.3s0.6-0.2,1.1-0.7c0.5-0.5,0.8,0.3,1.4,0.3s0.8-0.2,1.2-0.2s1.1-0.1,2-0.2 c0.9-0.1,0.9,0.1,2,0.1s1,0,1.9-0.3s0.8,0.2,1.7,0c0.9-0.2,1.1-0.2,1.6-0.4s0.8,0.2,1.2,0.2s0.5-0.1,1.1-0.4 c0.6-0.3,0.3-1.6,0.2-2.2c-0.1-0.6,0.2-0.7,0.3-1.1s-0.2-1.5-0.3-1.8L573.5,76z M553,69.7c-0.4,0.2-0.9,0-1.6,0.2 s-0.5,0.4-0.8,0.4s-0.8-0.3-0.8-0.2s-0.6,0.2-1.2,0.5c-0.6,0.2-0.8,0.4-1,0.5s-0.6,0-0.8,0.1c-0.2,0.1-0.2,0.1-0.4,0.1 s-0.3-0.2-0.8-0.2s-0.9-0.4-1.1-0.3c-0.2,0.1,0-0.2-0.7,0.1s-1.2-0.1-1.6,0.1c-0.3,0.2-1.1,0.3-1.2,0.6s0,0.3-0.7,0.3 s-0.8-0.1-1.2-0.2s-0.6-0.5-1.2-0.5s-0.7,0-1.3,0.1s-0.4,0.1-1.1,0c-0.6-0.1-0.8-0.3-0.9,0s0,0.6-0.4,0.4 c-0.3-0.2-0.6-0.4-0.9-0.1c-0.3,0.3-0.8,0.5-1.1,0.5s-0.2,0.3-0.8,0s-0.8-0.6-0.9-0.6s-0.1-0.5-0.4-0.6s-0.2-0.2-1.1-0.2 s-1,0.1-1.3,0s-0.1,0-0.7,0.2s-1.2,0.3-1.6,0.5s-0.6,0.3-1,0.3s-1.3-0.1-1.5,0s-0.2,0-0.4,0.1c-0.2,0.1-0.2,0.1-0.5,0.1 s-0.4-0.1-0.6,0c-0.2,0.2-0.2,0.2-0.6,0s-0.5-0.4-1-0.3s-0.7,0.1-1.2,0c-0.5-0.1,0-0.5-0.8-0.6s-0.8-0.2-1.8-0.3 c-1-0.1-0.6-0.1-1.3-0.1c-1.8,0.1-1.9-0.2-1.9-0.2s0.1-0.6-0.2-1.1s-0.4-0.6-0.3-1.2c0.1-0.7,0-0.9,0.2-1.2s0.8-1.1,0.8-1.4 s-0.2-0.2,0-0.8s0.2-0.8,0.2-1s-0.2-0.4-0.1-0.9s-0.1-0.9,0-1.1c0.2-0.2,0.1-0.3,1-0.9s0.6-0.6,1-0.9s0.3-0.6,0.5-0.8 c0.2-0.2,0.4-0.5,0.6-1s0.2-0.6,0.6-0.8c0.4-0.2,0.6-0.2,0.9-0.5s0.7-0.8,0.7-0.9c0-0.1,0-0.5,0.3-1.5s0.1-0.8,0.6-1.2 c0.6-0.4,0.6-0.7,1.1-0.9c0.5-0.2,1.8-0.6,2.2-1.1s0.7-0.8,0.9-1s1.1-1,1.4-1.2s0.5-0.4,0.7-0.2s1,0.3,1.1,0.1 c0.1-0.2,0.3-0.7,0.5-0.4s0.4,0.5,1.1,0.3c0.6-0.1,0.1-0.3,1.2-0.3s1.2,0,1.7-0.3s1.3-1.1,1.3-0.8s-0.2,0.6,0.3,0.5 s0.8-0.3,1.2-0.6s0.6-0.3,1.2-0.2c0.6,0.2,0.7,0.2,1.4,0.3s0.4,0,0.8-0.1s0.7-0.2,1.1,0s0.4-0.1,1,0.2c0.6,0.4,1,0.7,1.3,0.9 s1.7,0.9,2.1,1s1.1,0.1,1.2,0.5s0.5,0.3,1.1,1.1c0.6,0.8,0.9,1,1.4,1.3s1.2,0.4,1.4,0.6s-0.1,0.2,0.2,0.6c0.3,0.3,0.4,0.4,0.7,0.7 c0.3,0.3,0.5,0.2,0.6,0.7s0.8,1.4,0.9,1.8s0.9,0.4,1.1,0.9c0.1,0.4,0.2,0.2,0.1,1s0.2,1.6,0.2,1.8c0.1,0.2,0.4,0.6,0.4,1 c0,0.4,1,1.6,0,1.6s-0.5,0.4-0.2,1c0.4,0.6,0.8,1,0.6,1.3c-0.1,0.3,0,0.8-0.3,1.2s-0.4,0.7-0.4,1.2c0,0.5,0.1,0.9,0.3,1 C552.7,69.2,553.4,69.5,553,69.7L553,69.7z" />
    </g>
</svg>