<svg xmlns="http://www.w3.org/2000/svg" viewBox="0 0 250 92.519402"><g transform="matrix(1.25 0 0 -1.25 -257.32 542.06)"><g><g stroke="#480059" stroke-miterlimit="10" stroke-width="1.2365"><path d="m49.391 17.777c-0.378 0-0.749 0.006-1.11 0.018-4.846 0.153-9.114 1.116-13.248 2.051-4.485 1.014-9.123 2.062-14.492 2.062-3.988 0-7.83-0.42-11.424-1.244 6.885 5.715 13.168 7.728 22.727 9.941-6.834 4.788-14.804 9.196-22.727 11.579 3.594 0.826 7.436 1.248 11.424 1.248 5.369 0 10.007-1.048 14.492-2.065 4.134-0.933 8.402-1.897 13.248-2.051 0.361-0.012 0.732-0.017 1.11-0.017 3.959 0 8.714 0.636 10.935 1.955 0.907 0.539 1.363 1.148 1.363 1.822v-21.521c0-0.674-0.456-1.284-1.363-1.825-2.221-1.318-6.976-1.953-10.935-1.953zm179.4 19.02c-5.59 0-10.33 1.072-14.91 2.107-4.24 0.956-8.24 1.86-12.9 2.008-0.34 0.011-0.69 0.018-1.05 0.018-3.71 0-8.13-0.577-10.16-1.784-0.76-0.45-1.15-0.966-1.15-1.539v21.522c0 0.572 0.39 1.088 1.15 1.541 2.03 1.204 6.45 1.781 10.16 1.781 0.36 0 0.71-0.004 1.05-0.015 4.66-0.148 8.66-1.052 12.9-2.01 4.58-1.035 9.32-2.106 14.91-2.106 4.13 0 8.12 0.434 11.85 1.291-5.42-5.762-11.03-9.985-21.28-11.254 2.56-3.782 13.3-8.617 21.28-10.269-3.73-0.857-7.72-1.291-11.85-1.291z" transform="matrix(.8 0 0 -.8 205.86 433.65)" fill="#480059"/><path d="m61.689 21.561c0 0.302-0.11 0.626-0.33 0.962-0.797 1.234-3.273 1.985-5.902 2.782-3.35 1.017-6.803 2.066-6.803 4.199v21.521c0-2.133 3.453-3.18 6.803-4.195 2.629-0.797 5.105-1.55 5.902-2.783 0.22-0.335 0.33-0.658 0.33-0.963v-21.523zm139.97 8.156c0 1.894-3.09 2.835-6.35 3.822-2.66 0.806-5.4 1.636-6.31 3.033-0.25 0.386-0.38 0.757-0.38 1.108v21.521c0-0.35 0.13-0.721 0.38-1.107 0.91-1.395 3.65-2.227 6.31-3.033 3.26-0.986 6.35-1.928 6.35-3.821v-21.523z" transform="matrix(.8 0 0 -.8 205.86 433.65)" fill="#f7e400"/><path d="m180.44 25.256c-6.6772 0-14.216 0.40646-21.688 1-0.2337 0.0185-0.47138 0.03619-0.70508 0.05469l-1.8691 2.9961 3.9434 3.3926-3.6621 3.6953 3.0938 4.1836-4.3945 2.7852 1.9785 4.543c0.20898-0.01613 0.41871-0.03145 0.62891-0.04883 7.7926-0.63681 15.701-1.0801 22.674-1.0801 6.1863 0 11.631 0.34733 15.604 1.2129 3.7702 0.81981 6.0211 2.06 6.7012 3.6836 0.10512 0.25102 0.15429 0.49175 0.15429 0.7168v-21.521c0-0.22629-0.0492-0.4665-0.15429-0.71875-0.68009-1.6223-2.931-2.8618-6.7012-3.6816-3.9729-0.86556-9.4172-1.2129-15.604-1.2129zm-131.59 4.2617v21.521c0 0.20031 0.04397 0.4122 0.13672 0.63477 0.62074 1.4814 2.6716 2.6093 6.1055 3.3574 3.7986 0.826 9.0358 1.1582 15.002 1.1582 8.4961 0 18.474-0.67448 27.914-1.5586 0.14715-0.01488 0.29549-0.02752 0.44141-0.04102l0.28516-2.627-5.0254-1.3477 1.7051-4.916-4.5977-2.4336 2.7559-4.4141-3.9434-3.3945 1.7578-1.7734c-0.23989 0.0185-0.47888 0.03619-0.71875 0.05469-7.1236 0.55519-14.259 0.92969-20.574 0.92969-5.9662 0-11.203-0.3322-15.002-1.1582-3.4338-0.74932-5.4847-1.8768-6.1055-3.3594-0.09275-0.22256-0.13672-0.4325-0.13672-0.63281zm41.322 13.916 4.6973 2.4863v0.002l-4.6973-2.4883zm2.9551 7.5078 5.1328 1.3789-5.1328-1.377v-0.002z" transform="matrix(.8 0 0 -.8 205.86 433.65)" fill="#480059"/></g><path d="m123.66 0.82617l-3.2 3.7187-4.16-2.5976-2.29 4.3359-4.64-1.6094-1.27 4.7383-4.87-0.5312-0.18 4.9001-4.876 0.571 0.908 4.82-4.627 1.633 1.959 4.494-4.141 2.627 2.915 3.945-3.454 3.481 3.721 3.201-2.6 4.162 4.336 2.295-1.609 4.635 4.738 1.267-0.531 4.877 4.901 0.178 0.57 4.873 4.82-0.906 1.63 4.625 4.5-1.959 2.62 4.142 3.95-2.918 3.48 3.455 3.2-3.717 4.16 2.596 2.3-4.334 4.63 1.606 1.27-4.733 4.88 0.53 0.18-4.903 4.87-0.57-0.91-4.822 4.63-1.631-1.96-4.496 4.14-2.625-2.92-3.944 3.46-3.482-3.72-3.199 2.6-4.162-4.34-2.297 1.61-4.633-4.73-1.272 0.52-4.875-4.9-0.179-0.57-4.8714-4.82 0.9063-1.63-4.625-4.5 1.957-2.62-4.1406-3.95 2.916-3.48-3.4531zm69.76 29.354c-2.3 0.039-3.17 1.442-3.16 2.496 0.02 1.146 0.87 1.874 2 2.435-1.3 0.549-2.46 1.569-2.43 3.065 0.03 1.66 1.44 2.62 3.43 2.586 2.27-0.039 3.56-1.466 3.53-3.057-0.03-1.673-1.54-2.483-2.51-2.98 0.74-0.296 1.96-1.115 1.94-2.532-0.02-1.307-1.15-2.042-2.8-2.013zm-6.71 0.117c-0.11 0.001-0.23 0.097-0.35 0.18-0.46 0.358-3.02 2.104-3.08 2.132-0.06 0.041-0.13 0.109-0.13 0.19s0.07 0.148 0.11 0.146c0.06-0.001 0.12-0.028 0.19-0.056 0.29-0.128 1.3-0.671 1.55-0.676 0.2-0.003 0.21 0.159 0.21 0.484 0.01 0.458 0.02 1.038 0.04 1.766l0.04 2.146c0.04 1.294 0.03 2.443-0.01 3.037-0.03 0.431-0.1 0.622-0.53 0.725-0.24 0.057-0.92 0.107-1.07 0.109-0.06 0.002-0.11 0.045-0.11 0.139 0 0.095 0.08 0.12 0.23 0.117 0.86-0.015 2-0.074 2.31-0.08 0.36-0.006 1.22 0.019 2.25 0.002 0.15-0.004 0.22-0.032 0.22-0.127-0.01-0.094-0.07-0.132-0.13-0.131-0.11 0.002-0.69-0.028-0.89-0.066-0.44-0.085-0.5-0.289-0.55-0.721-0.07-0.591-0.09-1.738-0.11-3.031l-0.04-2.498c-0.04-2.065 0.02-3.4 0.02-3.508-0.01-0.135-0.05-0.282-0.17-0.279zm-8.27 0.141c-2.5 0.043-3.56 2.505-3.51 5.648 0.04 1.915 0.82 4.979 3.47 4.934 2.32-0.041 3.57-2.317 3.51-5.663-0.04-2.144-0.8-4.965-3.47-4.919zm-7.83 0.134c-1.19 0.021-1.91 0.277-2.43 0.557-0.15 0.098-0.16 0.151-0.16 0.273 0.01 0.39 0.09 1.507 0.11 1.627 0.02 0.164 0.06 0.257 0.12 0.256 0.14-0.001 0.18-0.123 0.18-0.258-0.01-0.351 0.22-0.99 0.54-1.306 0.4-0.384 0.84-0.5 1.42-0.51 0.68-0.011 1.86 0.399 1.89 2.531 0.05 2.848-2.59 4.997-4.45 6.69-0.14 0.125-0.27 0.249-0.27 0.355 0 0.109 0.1 0.187 0.19 0.186l5.29-0.09c0.85-0.015 1.07-0.06 1.17-0.426 0.13-0.461 0.36-1.721 0.36-1.937-0.01-0.134-0.02-0.256-0.12-0.254-0.08 0.001-0.12 0.055-0.16 0.218-0.15 0.637-0.58 1.105-1.51 1.229-0.5 0.077-2.09 0.116-2.32 0.121l-0.92 0.016c-0.07 0-0.09-0.04-0.03-0.096 1.72-1.418 4.58-3.748 4.54-6.365-0.03-1.579-1.07-2.856-3.44-2.817zm22.67 0.19c0.81-0.014 1.5 0.567 1.51 1.58 0.03 1.362-0.9 1.904-1.28 2.086-1.24-0.667-1.83-1.209-1.85-2.045-0.01-0.756 0.45-1.6 1.62-1.621zm-15.12 0.289c1.47-0.026 2.14 2.527 2.18 4.861 0.04 2.615-0.6 4.476-1.69 4.496-1.48 0.025-2.11-2.528-2.15-4.861-0.05-3.077 0.65-4.479 1.66-4.496zm14.74 4.373c1.22 0.681 2.31 1.297 2.33 2.644 0.02 1.242-0.82 2.053-1.87 2.071-1.09 0.019-1.98-0.869-2-2.071-0.03-1.375 0.82-2.214 1.54-2.644zm-134.76 4.269c-0.108-0.001-0.231 0.09-0.354 0.168-0.477 0.345-3.096 2.004-3.15 2.03-0.069 0.039-0.137 0.105-0.137 0.187-0.002 0.08 0.065 0.151 0.106 0.151 0.054 0.001 0.121-0.025 0.189-0.051 0.297-0.116 1.318-0.626 1.574-0.621 0.204 0.002 0.201 0.163 0.196 0.488-0.008 0.457-0.017 1.037-0.028 1.766v0.001l-0.021 2.143c-0.006 1.297-0.051 2.444-0.115 3.037-0.046 0.432-0.117 0.618-0.551 0.705-0.244 0.051-0.932 0.08-1.08 0.076-0.053 0-0.108 0.041-0.11 0.135-0.002 0.097 0.08 0.123 0.227 0.125 0.864 0.014 1.997-0.009 2.308-0.004 0.365 0.006 1.227 0.06 2.252 0.076 0.149 0.003 0.217-0.023 0.219-0.119 0.001-0.094-0.067-0.133-0.121-0.134-0.108-0.003-0.687-0.054-0.889-0.098-0.431-0.1-0.494-0.304-0.529-0.734-0.043-0.596-0.027-1.742-0.006-3.038l0.041-2.496c0.032-2.063 0.133-3.4 0.135-3.507 0.001-0.137-0.035-0.284-0.156-0.286zm6.709 0.108c-2.294-0.037-3.219 1.336-3.237 2.388-0.018 1.148 0.805 1.903 1.916 2.502-1.315 0.504-2.505 1.485-2.529 2.983-0.026 1.659 1.348 2.666 3.344 2.697 2.266 0.036 3.598-1.345 3.623-2.939 0.026-1.672-1.458-2.532-2.406-3.061 0.744-0.271 1.999-1.049 2.021-2.465 0.021-1.309-1.086-2.08-2.732-2.105zm8.988 0.14c-0.067 0-0.176 0.023-0.299 0.075-2.946 1.127-5.067 3.914-5.109 6.545-0.039 2.442 1.422 3.897 3.5 3.929 1.97 0.032 3.543-1.32 3.576-3.412 0.02-1.2-0.807-2.749-2.709-2.781-0.742-0.011-1.352 0.183-1.762 0.459-0.081 0.053-0.15 0.106-0.152 0.201-0.001 0.094 0.054 0.135 0.107 0.135 0.067 0.002 0.188-0.051 0.297-0.078 0.191-0.051 0.366-0.087 0.703-0.082 0.891 0.014 1.891 0.852 1.862 2.728-0.025 1.567-0.806 2.255-1.737 2.24-1.362-0.021-2.022-1.719-1.998-3.296 0.051-3.225 1.946-5.381 3.537-6.247 0.151-0.08 0.341-0.172 0.342-0.295 0.003-0.08-0.076-0.119-0.158-0.121zm5.857 0.092c-2.292-0.036-3.218 1.339-3.234 2.393-0.018 1.146 0.806 1.901 1.916 2.5-1.316 0.504-2.506 1.483-2.531 2.98-0.026 1.66 1.35 2.669 3.346 2.699 2.267 0.036 3.598-1.348 3.623-2.939 0.026-1.674-1.459-2.531-2.409-3.061 0.745-0.269 2-1.047 2.022-2.464 0.021-1.309-1.087-2.082-2.733-2.108zm-15.003 0.342c0.809 0.014 1.473 0.618 1.459 1.631-0.023 1.362-0.961 1.873-1.356 2.043-1.217-0.706-1.788-1.27-1.775-2.106 0.012-0.755 0.498-1.585 1.672-1.568zm14.847 0.234c0.809 0.014 1.473 0.62 1.457 1.631-0.021 1.364-0.961 1.874-1.355 2.043-1.216-0.707-1.786-1.269-1.774-2.105 0.013-0.757 0.498-1.587 1.672-1.569zm-15.381 4.414c1.19 0.721 2.26 1.373 2.239 2.721-0.02 1.243-0.882 2.025-1.936 2.008-1.092-0.016-1.955-0.936-1.935-2.137 0.021-1.376 0.897-2.185 1.632-2.592zm14.848 0.235c1.19 0.721 2.259 1.371 2.238 2.721-0.019 1.241-0.883 2.025-1.935 2.007-1.093-0.017-1.953-0.936-1.936-2.136 0.022-1.377 0.897-2.185 1.633-2.592zm-68.174 28.513c0.155 0.456 0.299 1.062 0.293 1.725-0.013 1.404-0.701 3.057-3.4178 4.045-3.142 1.143-3.6153 3.05-3.666 3.881-0.0149 0.255 0.0078 0.408 0.0078 0.408 0.0543 0.789 0.4491 1.507 0.8027 1.99-0.0025-0.016-0.0046-0.031-0.0059-0.049-0.136-1.267 0.1989-3.007 2.6719-3.876 4.0043-1.406 4.2193-4.317 4.1833-5.221-0.006-0.175-0.023-0.276-0.023-0.276l0.008 0.016v-0.004c-0.26-1.662-0.818-2.582-0.854-2.639z" transform="matrix(.8 0 0 -.8 205.86 433.65)" fill="#f7e400"/><path d="m108.26 20.094c-0.26 0-0.55 0.228-0.84 0.424-1.14 0.845-7.39 4.948-7.522 5.013-0.163 0.098-0.326 0.26-0.326 0.455 0 0.196 0.162 0.358 0.26 0.358 0.13 0 0.298-0.065 0.458-0.129 0.71-0.294 3.16-1.563 3.77-1.563 0.49 0 0.49 0.39 0.49 1.17v4.266l0.04 5.176c0.03 3.124-0.04 5.892-0.17 7.324-0.1 1.042-0.26 1.498-1.3 1.726-0.59 0.13-2.25 0.229-2.6 0.229-0.13 0-0.26 0.097-0.26 0.324 0 0.229 0.19 0.295 0.55 0.295 2.08 0 4.82-0.1 5.57-0.1 0.88 0 2.96 0.1 5.43 0.1 0.36 0 0.52-0.066 0.52-0.295 0-0.227-0.16-0.324-0.29-0.324-0.26 0-1.66-0.098-2.15-0.195-1.04-0.228-1.2-0.718-1.3-1.76-0.13-1.432-0.13-4.2-0.13-7.324v-6.022c0-4.981 0.2-8.205 0.2-8.465 0-0.325-0.1-0.683-0.4-0.683zm33.76 0c-6.03 0-8.7 5.892-8.7 13.476 0 4.624 1.76 12.047 8.18 12.047 5.6 0 8.69-5.436 8.69-13.51 0-5.176-1.73-12.013-8.17-12.013zm-11.78 0.326c-0.1 0-0.3 0.065-0.66 0.098-0.35 0.065-0.91 0.128-1.82 0.128h-7.97c-0.36 0-0.59 0.098-0.62 0.424l-0.75 8.594c-0.03 0.424 0.2 0.587 0.59 0.652 2.57 0.358 8.23 2.507 8.23 7.715 0 4.233-2.77 5.957-5.37 5.957-2.28 0-4.43-0.88-4.43-4.363 0-0.357-0.06-0.553-0.29-0.553-0.2 0-0.29 0.262-0.36 0.586-0.16 1.075-0.13 3.028-0.13 4.104 0 0.682 0.07 0.976 0.62 1.269 0.81 0.39 2.02 0.586 3.06 0.586 7.55 0 10.71-4.819 10.71-9.148 0-5.665-5.93-8.335-10.78-9.115l0.46-3.973h5.92c2.64 0 2.87 0.847 2.87 1.76 0 0.259 0.06 0.455 0.26 0.455 0.23 0 0.33-0.196 0.36-0.391 0.32-2.05 0.42-3.484 0.42-4.168 0-0.488-0.06-0.617-0.32-0.617zm11.09 1.139c3.55 0 5.05 6.185 5.05 11.816 0 6.317-1.63 10.777-4.26 10.777-3.59 0-4.99-6.186-4.99-11.818 0-7.423 1.76-10.775 4.2-10.775zm-16.17 26.183c-0.1 0-0.17 0.102-0.27 0.348l-2.34 5.443c-0.18 0.439-0.34 0.702-0.74 0.764-0.08 0-0.19 0.01-0.27 0.01-0.07 0-0.1 0.041-0.1 0.091 0 0.072 0.05 0.094 0.16 0.094 0.47 0 0.95-0.031 1.04-0.031 0.29 0 0.7 0.031 1 0.031 0.09 0 0.14-0.022 0.14-0.094 0-0.05-0.02-0.091-0.13-0.091h-0.13c-0.28 0-0.36-0.092-0.36-0.245 0-0.101 0.04-0.314 0.13-0.529l0.48-1.158c0.02-0.051 0.03-0.063 0.08-0.063h2.11c0.04 0 0.07 0.012 0.09 0.063l0.69 1.738c0.04 0.102-0.02 0.184-0.08 0.194-0.09 0.01-0.11 0.041-0.11 0.091 0 0.062 0.1 0.063 0.26 0.073 0.76 0.021 1.41 0.019 1.73 0.019 0.33 0 0.38-0.02 0.38-0.092 0-0.061-0.04-0.091-0.12-0.091-0.1 0-0.2-0.01-0.34-0.03-0.16-0.031-0.41-0.143-0.76-0.925-0.57-1.314-2.07-4.856-2.28-5.334-0.09-0.193-0.13-0.276-0.26-0.276zm14.37 0.082c-1.25 0-2.26 0.682-2.26 1.74 0 0.763 0.34 1.345 1.4 1.965l0.52 0.305c0.79 0.469 0.89 0.846 0.89 1.221 0 0.611-0.47 1.099-1.25 1.099-0.55 0-1.23-0.213-1.42-0.853-0.05-0.154-0.08-0.337-0.08-0.449 0-0.062-0.01-0.143-0.09-0.143s-0.12 0.092-0.12 0.225c-0.01 0.142-0.05 0.681-0.05 1.15 0 0.194 0.03 0.233 0.18 0.295 0.38 0.173 0.93 0.223 1.45 0.223 0.48 0 1.07-0.051 1.5-0.356 0.65-0.459 0.89-0.977 0.89-1.617 0-0.784-0.36-1.445-1.54-2.098l-0.37-0.203c-0.8-0.447-0.95-0.753-0.95-1.14 0-0.59 0.58-0.926 1.23-0.926 0.57 0 0.86 0.245 0.99 0.408 0.2 0.222 0.24 0.487 0.24 0.568 0 0.102 0.03 0.153 0.09 0.153 0.07 0 0.11-0.092 0.11-0.274 0-0.682 0.03-0.926 0.03-1.039 0-0.062-0.04-0.09-0.12-0.111-0.24-0.061-0.69-0.143-1.27-0.143zm-18.88 0.051c-0.04 0-0.09 0.031-0.14 0.041-0.07 0.011-0.21 0.041-0.38 0.051-0.17 0.011-2.15 0-2.44 0-0.25 0-0.82-0.022-1.29-0.022-0.14 0-0.21 0.021-0.21 0.082 0 0.062 0.06 0.092 0.16 0.092 0.13 0 0.28 0.01 0.35 0.031 0.29 0.082 0.37 0.172 0.39 0.467 0.01 0.275 0.01 0.52 0.01 1.834v1.526c0 0.795 0 1.476-0.04 1.843-0.03 0.254-0.08 0.415-0.27 0.457-0.08 0.02-0.18 0.03-0.31 0.03-0.11 0-0.14 0.051-0.14 0.091 0 0.062 0.06 0.094 0.17 0.094 0.18 0 0.41-0.011 0.62-0.021 0.21 0 0.41-0.01 0.51-0.01 0.26 0 0.6 0.009 1.04 0.019 0.44 0.02 0.97 0.032 1.65 0.032 0.33 0 0.41-0.002 0.47-0.227 0.06-0.172 0.13-0.762 0.13-0.955 0-0.091-0.01-0.203-0.08-0.203-0.06 0-0.09 0.039-0.11 0.131-0.06 0.356-0.16 0.541-0.38 0.642-0.24 0.102-0.61 0.114-0.85 0.114-0.91 0-1.19-0.135-1.21-0.725-0.01-0.255 0-0.986 0-1.281v-0.694c0-0.05 0.01-0.091 0.05-0.091 0.23 0 1.24 0.021 1.41 0.041 0.33 0.032 0.44 0.163 0.49 0.336 0.02 0.111 0.03 0.225 0.04 0.316 0 0.041 0.02 0.07 0.08 0.07 0.08 0 0.09-0.123 0.09-0.193 0-0.061 0.02-0.407 0.04-0.58 0.05-0.438 0.07-0.58 0.07-0.631s-0.03-0.092-0.07-0.092-0.07 0.051-0.14 0.112c-0.09 0.091-0.22 0.113-0.43 0.132-0.21 0.021-1.36 0.022-1.57 0.022-0.05 0-0.06-0.041-0.06-0.092v-2.139c0-0.05 0.02-0.08 0.06-0.08 0.18 0 1.25 0.02 1.41 0.041 0.44 0.041 0.51 0.163 0.59 0.315 0.05 0.102 0.06 0.254 0.06 0.316 0 0.071 0.01 0.112 0.07 0.112 0.07 0 0.09-0.101 0.1-0.143 0.02-0.101 0.04-0.479 0.05-0.57 0.02-0.397 0.07-0.498 0.07-0.559 0-0.041-0.01-0.082-0.06-0.082zm-11.81 0.07c-0.11 0-0.17 0.021-0.17 0.082 0 0.062 0.06 0.092 0.13 0.092 0.11 0 0.26 0.052 0.38 0.113 0.17 0.091 0.35 0.294 0.58 0.61 0.31 0.457 1.53 2.362 1.6 2.494 0.12 0.255 0.2 0.437 0.2 0.904v0.713c0 0.144 0 0.5-0.03 0.867-0.02 0.254-0.09 0.415-0.28 0.457-0.08 0.02-0.19 0.03-0.31 0.03-0.11 0-0.15 0.051-0.15 0.091 0 0.072 0.07 0.092 0.2 0.092 0.33 0 0.93-0.029 1.16-0.029 0.24 0 0.84 0.029 1.4 0.029 0.12 0 0.2-0.03 0.2-0.092 0-0.04-0.05-0.091-0.16-0.091-0.12 0-0.31-0.01-0.45-0.03-0.26-0.042-0.34-0.203-0.36-0.457-0.02-0.367-0.02-0.723-0.02-0.867v-0.691c0-0.286-0.02-0.55 0.11-0.866 0.16-0.365 1.45-2.422 1.74-2.769 0.19-0.234 0.28-0.315 0.47-0.406 0.13-0.062 0.29-0.102 0.38-0.102 0.11 0 0.18-0.04 0.18-0.101 0-0.051-0.06-0.073-0.16-0.073-0.18 0-0.77 0.022-0.96 0.022-0.27 0-0.58-0.022-0.88-0.022-0.1 0-0.15 0.021-0.15 0.082 0 0.071 0.08 0.081 0.16 0.102 0.16 0.03 0.2 0.113 0.2 0.193 0 0.113-0.04 0.265-0.14 0.459-0.13 0.265-1.22 2.118-1.33 2.321-0.15-0.244-1.32-2.271-1.48-2.536-0.08-0.122-0.11-0.223-0.11-0.295 0-0.07 0.05-0.112 0.12-0.13 0.14-0.042 0.2-0.043 0.2-0.114 0-0.062-0.05-0.082-0.13-0.082-0.41 0-0.83 0.022-1.02 0.022-0.3 0-0.97-0.022-1.12-0.022zm20.86 0c-0.13 0-0.2 0.021-0.2 0.082 0 0.062 0.06 0.092 0.15 0.092 0.13 0 0.28 0.01 0.36 0.031 0.28 0.082 0.36 0.172 0.38 0.467 0.01 0.275 0.01 0.52 0.01 1.834v1.526c0 0.795 0 1.476-0.04 1.843-0.03 0.254-0.08 0.415-0.26 0.457-0.09 0.02-0.19 0.03-0.32 0.03-0.11 0-0.14 0.051-0.14 0.091 0 0.062 0.06 0.094 0.17 0.094 0.36 0 0.93-0.031 1.1-0.031 0.13 0 0.88 0.031 1.39 0.031 0.12 0 0.19-0.032 0.19-0.094 0-0.04-0.04-0.091-0.11-0.091-0.12 0-0.31-0.01-0.44-0.03-0.28-0.042-0.32-0.203-0.35-0.457-0.04-0.367-0.05-1.038-0.05-1.843v-0.122c0-0.05 0.03-0.072 0.07-0.072l0.81 0.022c0.06 0 0.11 0.008 0.16 0.058 0.11 0.134 0.49 0.715 0.85 1.182 0.49 0.671 0.83 1.079 1.22 1.271 0.23 0.124 0.47 0.174 0.97 0.174h0.86c0.11 0 0.17-0.02 0.17-0.092 0-0.04-0.04-0.091-0.11-0.091s-0.12-0.001-0.22-0.022c-0.14-0.03-0.45-0.069-0.95-0.568-0.54-0.538-1.17-1.324-1.97-2.301 0.88-0.701 1.25-1.27 1.25-1.912 0-0.579-0.38-1.018-0.63-1.192-0.48-0.315-1.14-0.367-1.71-0.367-0.27 0-1.08 0.022-1.39 0.022-0.18 0-0.75-0.022-1.22-0.022zm2.45 0.45c0.53 0 1.37 0.316 1.37 1.537 0 0.712-0.31 1.088-0.58 1.281-0.16 0.112-0.28 0.142-0.64 0.142-0.22 0-0.48-0.02-0.68-0.082-0.06-0.029-0.08-0.06-0.08-0.152v-2.574c0-0.072 0.02-0.101 0.08-0.121 0.09-0.02 0.31-0.031 0.53-0.031zm-7.23 1.109c0.02 0 0.03 0.049 0.04 0.08l0.85 2.199c0.01 0.03 0 0.051-0.04 0.051h-1.73c-0.03 0-0.06-0.021-0.03-0.061l0.86-2.189c0.01-0.031 0.02-0.08 0.05-0.08zm-114.44 23.445s0.615 3.82-4.1605 5.496c-4.13 1.45-2.2975 5.326-2.2715 5.383l0.0019 0.004s-0.0245-0.155-0.0097-0.41c0.0507-0.831 0.524-2.738 3.666-3.881 2.7168-0.988 3.4048-2.641 3.4178-4.045 0.006-0.663-0.138-1.269-0.293-1.725-0.17-0.503-0.351-0.822-0.351-0.822zm1.197 3.449s0.017 0.101 0.023 0.276c0.036 0.904-0.179 3.815-4.1833 5.221-2.473 0.869-2.8079 2.609-2.6719 3.876 0.0013 0.018 0.0034 0.033 0.0059 0.049 0.0989 0.84 0.3965 1.461 0.3965 1.461s-0.0226-0.155-0.0078-0.41c0.0495-0.831 0.522-2.738 3.664-3.881 2.7166-0.989 3.4076-2.641 3.4196-4.045 0.013-1.308-0.564-2.397-0.638-2.531l-0.008-0.016zm120.32 0.036c-0.17 0-0.24 0.03-0.24 0.121 0 0.059 0.06 0.088 0.12 0.088 0.13 0 0.39 0.018 0.51 0.048 0.49 0.105 0.62 0.345 0.65 0.856 0.03 0.481 0.02 0.9 0.02 3.246v2.193c0 2.196 0.58 3.248 1.31 3.955 1.07 1.007 2.59 1.067 3.1 1.067 0.89 0 2.01-0.151 3.1-1.112 1.2-1.068 1.38-2.871 1.38-4.494v-1.609c0-2.346 0-2.765 0.03-3.246 0.03-0.527 0.15-0.781 0.56-0.856 0.18-0.047 0.27-0.048 0.37-0.048 0.06 0 0.12-0.029 0.12-0.088 0-0.091-0.07-0.121-0.24-0.121-0.45 0-1.16 0.045-1.26 0.045-0.09 0-0.92-0.045-1.6-0.045-0.16 0-0.24 0.03-0.24 0.121 0 0.059 0.06 0.088 0.12 0.088 0.14 0 0.39 0.018 0.51 0.048 0.5 0.105 0.62 0.345 0.65 0.856 0.03 0.481 0.03 0.9 0.03 3.246v1.879c0 1.549-0.18 2.827-0.87 3.683-0.54 0.646-1.44 1.083-2.36 1.083-0.86 0-1.53-0.136-2.27-0.829-0.65-0.615-1.13-1.547-1.13-3.711v-2.105c0-2.346 0-2.765 0.03-3.246 0.03-0.527 0.15-0.797 0.56-0.856 0.18-0.03 0.27-0.048 0.38-0.048 0.06 0 0.12-0.029 0.12-0.088 0-0.091-0.08-0.121-0.24-0.121-0.45 0-1.36 0.045-1.49 0.045-0.14 0-1.06-0.045-1.73-0.045zm-112.46 0.002c-0.089 0-0.134 0.107-0.164 0.271l-1.082 9.801c-0.06 0.571-0.106 1.158-0.601 1.248-0.227 0.044-0.332 0.043-0.452 0.043-0.075 0-0.15 0.03-0.15 0.076 0 0.105 0.105 0.137 0.256 0.137 0.405 0 1.129-0.047 1.264-0.047 0.12 0 0.842 0.047 1.398 0.047 0.179 0 0.27-0.032 0.27-0.137 0-0.046-0.061-0.076-0.122-0.076-0.09 0-0.314-0.014-0.57-0.074-0.225-0.045-0.39-0.241-0.39-0.467 0-0.255-0.002-0.525 0.013-0.766l0.602-6.974h0.06c0.166 0.405 1.851 4.012 1.985 4.283 0.076 0.151 1.367 2.751 1.757 3.488 0.286 0.54 0.362 0.691 0.467 0.691 0.135 0 0.181-0.135 0.496-0.796l3.684-7.817h0.045l0.721 7.756c0.03 0.271 0.014 0.526-0.061 0.541-0.074 0.015-0.105 0.046-0.105 0.106 0 0.075 0.075 0.119 0.421 0.15 0.556 0.044 2.18 0.092 2.51 0.092 0.181 0 0.315-0.047 0.315-0.137 0-0.059-0.044-0.076-0.119-0.076-0.15 0-0.542 0-0.977-0.135-0.647-0.21-0.752-1.052-0.813-1.594l-1.005-9.228c-0.03-0.287-0.077-0.406-0.182-0.406s-0.165 0.107-0.225 0.242l-4.42 9.439-4.599-9.455c-0.076-0.166-0.136-0.226-0.227-0.226zm79.028 0c-2.253 0-3.672 1.096-3.672 2.705 0 1.022 0.426 1.955 2.306 3.263l0.797 0.555c1.525 1.067 2.04 1.671 2.04 2.707 0 0.962-0.833 1.998-2.536 1.998-1.188 0-2.361-0.42-2.627-1.533-0.053-0.21-0.053-0.422-0.053-0.557 0-0.12-0.016-0.166-0.123-0.166-0.089 0-0.125 0.077-0.142 0.242-0.017 0.242-0.088 0.842-0.088 1.594 0 0.406 0.018 0.465 0.266 0.57 0.728 0.301 1.542 0.407 2.377 0.407 0.957 0 1.914-0.18 2.677-0.631 1.229-0.737 1.509-1.88 1.509-2.494 0-1.203-0.5-2.137-2.591-3.535l-0.496-0.329c-1.667-1.158-2.164-1.669-2.164-2.527 0-1.095 0.959-1.744 2.182-1.744 1.632 0 2.109 0.631 2.219 0.797 0.1 0.166 0.21 0.571 0.23 0.752 0.02 0.12 0.03 0.195 0.14 0.195 0.09 0 0.12-0.105 0.12-0.346 0-1.021 0.08-1.516 0.08-1.591 0-0.076-0.04-0.106-0.18-0.106s-0.29-0.017-0.62-0.076c-0.446-0.09-0.96-0.15-1.651-0.15zm-61.301 3.263c-0.087 0-0.119 0.119-0.119 0.539l-0.012 6.176c0 0.981-0.054 1.292-0.322 1.367-0.162 0.053-0.357 0.065-0.444 0.065-0.053 0-0.086 0.023-0.086 0.066 0 0.074 0.067 0.086 0.174 0.086 0.485 0 0.937-0.033 1.033-0.033 0.098 0 0.53 0.033 1.145 0.033 0.129 0 0.191-0.022 0.191-0.086 0-0.043-0.03-0.066-0.084-0.066-0.097 0-0.333-0.012-0.539-0.065-0.292-0.086-0.401-0.367-0.422-1.25h0.002l-0.14-5.162c0.343 0.388 1.562 1.746 2.812 3.094 1.143 1.228 2.695 2.812 2.813 2.92 0.571 0.571 0.702 0.691 0.787 0.691 0.077 0 0.098-0.055 0.098-0.767l0.019-6.315c0-0.647 0.044-0.885 0.4-0.959 0.129-0.033 0.205-0.033 0.258-0.033 0.076 0 0.119-0.031 0.119-0.074 0-0.064-0.074-0.076-0.193-0.076-0.441 0-0.799 0.033-0.918 0.033-0.117 0-0.634-0.033-1.119-0.033-0.13 0-0.217 0.012-0.217 0.076 0 0.043 0.011 0.074 0.086 0.074 0.087 0 0.336 0.011 0.529 0.055 0.335 0.086 0.41 0.323 0.42 1.023l0.119 5.475c-0.345-0.355-1.52-1.67-2.587-2.813-1.66-1.779-3.265-3.513-3.426-3.695-0.109-0.109-0.291-0.346-0.377-0.346zm9.666 0c-0.087 0-0.117 0.119-0.117 0.539l-0.012 6.176c0 0.981-0.053 1.292-0.324 1.367-0.161 0.053-0.355 0.065-0.442 0.065-0.053 0-0.086 0.023-0.086 0.066 0 0.074 0.065 0.086 0.172 0.086 0.485 0 0.938-0.033 1.035-0.033s0.528 0.033 1.143 0.033c0.129 0 0.195-0.022 0.195-0.086 0-0.043-0.033-0.066-0.088-0.066-0.096 0-0.333-0.012-0.539-0.065-0.29-0.086-0.399-0.367-0.42-1.25l-0.138-5.162c0.345 0.388 1.561 1.746 2.812 3.094 1.142 1.228 2.692 2.812 2.811 2.92 0.572 0.571 0.702 0.691 0.787 0.691 0.075 0 0.098-0.055 0.098-0.767l0.023-6.315c0-0.647 0.04-0.885 0.396-0.959 0.129-0.033 0.206-0.033 0.26-0.033 0.076 0 0.117-0.031 0.117-0.074 0-0.064-0.074-0.076-0.193-0.076-0.441 0-0.796 0.033-0.914 0.033-0.12 0-0.638-0.033-1.123-0.033-0.13 0-0.215 0.012-0.215 0.076 0 0.043 0.011 0.074 0.086 0.074 0.087 0 0.333 0.011 0.527 0.055 0.335 0.086 0.412 0.323 0.422 1.023l0.117 5.475c-0.345-0.355-1.518-1.67-2.585-2.813-1.66-1.779-3.266-3.513-3.426-3.695-0.109-0.109-0.293-0.346-0.379-0.346zm17.566 0c-1.369 0-2.23 0.788-2.23 1.942 0 0.73 0.258 1.398 1.4 2.336l0.485 0.398c0.927 0.767 1.24 1.197 1.24 1.941 0 0.689-0.506 1.434-1.541 1.434-0.722 0-1.434-0.302-1.596-1.1-0.032-0.15-0.031-0.3-0.031-0.398 0-0.085-0.012-0.119-0.076-0.119-0.055 0-0.074 0.053-0.084 0.172-0.011 0.173-0.055 0.603-0.055 1.142 0 0.291 0.009 0.335 0.16 0.41 0.443 0.217 0.938 0.291 1.443 0.291 0.583 0 1.166-0.129 1.629-0.453 0.745-0.528 0.916-1.345 0.916-1.787 0-0.863-0.303-1.533-1.574-2.535l-0.301-0.236c-1.012-0.829-1.316-1.196-1.316-1.809 0-0.788 0.583-1.252 1.326-1.252 0.992 0 1.282 0.452 1.348 0.57 0.064 0.119 0.13 0.411 0.14 0.54 0.012 0.086 0.022 0.142 0.086 0.142 0.055 0 0.077-0.077 0.077-0.25 0-0.732 0.043-1.088 0.043-1.142s-0.023-0.075-0.108-0.075c-0.086 0-0.173-0.011-0.377-0.054-0.269-0.065-0.583-0.108-1.004-0.108zm6.985 0c-2.975 0-4.246 2.467-4.246 4.213 0 1.94 1.226 4.236 4.179 4.236 2.598 0 4.301-1.994 4.301-4.408 0-2.511-1.81-4.041-4.234-4.041zm4.711 0c-0.044 0-0.088 0.14-0.11 0.205-0.021 0.087-0.236 1.015-0.236 1.121 0 0.065 0.02 0.098 0.053 0.098 0.043 0 0.077-0.024 0.109-0.109 0.033-0.077 0.064-0.15 0.184-0.334 0.171-0.259 0.429-0.334 1.097-0.344l1.596-0.024v4.561c0 1.035 0 1.885-0.053 2.338-0.043 0.312-0.098 0.55-0.314 0.592-0.097 0.021-0.226 0.043-0.323 0.043-0.065 0-0.085 0.033-0.085 0.066 0 0.064 0.053 0.086 0.173 0.086 0.323 0 1.001-0.033 1.055-0.033 0.053 0 0.733 0.033 1.326 0.033 0.119 0 0.172-0.033 0.172-0.086 0-0.033-0.022-0.066-0.086-0.066-0.098 0-0.335-0.022-0.486-0.043-0.323-0.042-0.387-0.28-0.42-0.592-0.054-0.453-0.055-1.303-0.055-2.338v-4.561l1.36 0.024c1.033 0.02 1.283 0.268 1.326 0.59l0.01 0.121c0.009 0.15 0.032 0.183 0.085 0.183 0.044 0 0.077-0.044 0.077-0.142 0-0.119 0.031-0.861 0.031-1.184 0-0.065 0-0.131-0.053-0.131-0.043 0-0.141 0.022-0.303 0.055-0.173 0.021-0.418 0.055-0.763 0.055h-4.041c-0.13 0-0.541-0.023-0.854-0.055-0.29-0.022-0.397-0.129-0.472-0.129zm9.515 0c-0.064 0-0.108 0.065-0.236 0.42l-2.445 6.692c-0.195 0.54-0.411 0.95-0.907 1.013-0.086 0.011-0.237 0.022-0.312 0.022-0.053 0-0.096 0.023-0.096 0.066 0 0.064 0.064 0.086 0.205 0.086 0.506 0 1.098-0.033 1.217-0.033s0.581 0.033 0.84 0.033c0.096 0 0.162-0.022 0.162-0.086 0-0.043-0.032-0.066-0.108-0.066h-0.107c-0.184 0-0.41-0.096-0.41-0.313 0-0.193 0.054-0.452 0.15-0.722l0.649-1.907c0.021-0.054 0.053-0.086 0.107-0.086h2.317c0.053 0 0.076 0.02 0.097 0.065l1 2.65c0.066 0.173 0 0.27-0.064 0.291-0.043 0.011-0.074 0.033-0.074 0.076 0 0.065 0.119 0.065 0.324 0.077 0.743 0.021 1.529 0.021 1.691 0.021 0.119 0 0.215-0.022 0.215-0.086 0-0.054-0.043-0.066-0.107-0.066-0.108 0-0.27-0.012-0.432-0.065-0.226-0.064-0.538-0.236-0.926-1.195-0.658-1.638-2.35-6.089-2.512-6.498-0.129-0.334-0.172-0.389-0.238-0.389zm16.839 0c-0.04 0-0.09 0.14-0.11 0.205-0.02 0.087-0.23 1.015-0.23 1.121 0 0.065 0.02 0.098 0.05 0.098 0.04 0 0.08-0.024 0.11-0.109 0.03-0.077 0.06-0.15 0.18-0.334 0.17-0.259 0.43-0.334 1.1-0.344l1.6-0.024v4.561c0 1.035 0 1.885-0.06 2.338-0.04 0.312-0.09 0.55-0.31 0.592-0.1 0.021-0.23 0.043-0.32 0.043-0.07 0-0.09 0.033-0.09 0.066 0 0.064 0.05 0.086 0.17 0.086 0.33 0 1.01-0.033 1.06-0.033s0.73 0.033 1.32 0.033c0.12 0 0.18-0.033 0.18-0.086 0-0.033-0.02-0.066-0.09-0.066-0.09 0-0.33-0.022-0.48-0.043-0.33-0.042-0.39-0.28-0.42-0.592-0.06-0.453-0.06-1.303-0.06-2.338v-4.561l1.36 0.024c1.03 0.02 1.28 0.268 1.32 0.59l0.02 0.121c0.01 0.15 0.03 0.183 0.08 0.183s0.08-0.044 0.08-0.142c0-0.119 0.03-0.861 0.03-1.184 0-0.065 0-0.131-0.06-0.131-0.04 0-0.13 0.022-0.3 0.055-0.17 0.021-0.42 0.055-0.76 0.055h-4.04c-0.13 0-0.54-0.023-0.85-0.055-0.29-0.022-0.4-0.129-0.48-0.129zm9.52 0c-0.07 0-0.11 0.065-0.24 0.42l-2.44 6.692c-0.2 0.54-0.41 0.95-0.91 1.013-0.09 0.011-0.24 0.022-0.31 0.022-0.06 0-0.1 0.023-0.1 0.066 0 0.064 0.06 0.086 0.21 0.086 0.5 0 1.09-0.033 1.21-0.033s0.59 0.033 0.84 0.033c0.1 0 0.17-0.022 0.17-0.086 0-0.043-0.04-0.066-0.11-0.066h-0.11c-0.18 0-0.41-0.096-0.41-0.313 0-0.193 0.05-0.452 0.15-0.722l0.65-1.907c0.02-0.054 0.05-0.086 0.11-0.086h2.31c0.06 0 0.08 0.02 0.1 0.065l1 2.65c0.07 0.173 0 0.27-0.06 0.291-0.05 0.011-0.08 0.033-0.08 0.076 0 0.065 0.12 0.065 0.33 0.077 0.74 0.021 1.52 0.021 1.69 0.021 0.12 0 0.21-0.022 0.21-0.086 0-0.054-0.04-0.066-0.11-0.066-0.1 0-0.26-0.012-0.43-0.065-0.22-0.064-0.54-0.236-0.92-1.195-0.66-1.638-2.35-6.089-2.52-6.498-0.12-0.334-0.17-0.389-0.23-0.389zm3.16 0c-0.04 0-0.09 0.14-0.11 0.205-0.02 0.087-0.24 1.015-0.24 1.121 0 0.065 0.03 0.098 0.06 0.098 0.04 0 0.07-0.024 0.11-0.109 0.03-0.077 0.06-0.15 0.18-0.334 0.17-0.259 0.43-0.334 1.1-0.344l1.59-0.024v4.561c0 1.035 0 1.885-0.05 2.338-0.04 0.312-0.1 0.55-0.31 0.592-0.1 0.021-0.23 0.043-0.33 0.043-0.06 0-0.08 0.033-0.08 0.066 0 0.064 0.05 0.086 0.17 0.086 0.32 0 1-0.033 1.06-0.033 0.05 0 0.73 0.033 1.32 0.033 0.12 0 0.17-0.033 0.17-0.086 0-0.033-0.02-0.066-0.08-0.066-0.1 0-0.34-0.022-0.49-0.043-0.32-0.042-0.39-0.28-0.42-0.592-0.05-0.453-0.05-1.303-0.05-2.338v-4.561l1.36 0.024c1.03 0.02 1.28 0.268 1.32 0.59l0.01 0.121c0.01 0.15 0.03 0.183 0.09 0.183 0.04 0 0.07-0.044 0.07-0.142 0-0.119 0.04-0.861 0.04-1.184 0-0.065 0-0.131-0.06-0.131-0.04 0-0.14 0.022-0.3 0.055-0.17 0.021-0.42 0.055-0.76 0.055h-4.05c-0.12 0-0.53-0.023-0.85-0.055-0.29-0.022-0.4-0.129-0.47-0.129zm29.45 0c-0.09 0-0.12 0.119-0.12 0.539l-0.01 6.176c0 0.981-0.06 1.292-0.33 1.367-0.16 0.053-0.35 0.065-0.44 0.065-0.05 0-0.08 0.023-0.08 0.066 0 0.074 0.06 0.086 0.17 0.086 0.48 0 0.94-0.033 1.03-0.033 0.1 0 0.53 0.033 1.15 0.033 0.13 0 0.19-0.022 0.19-0.086 0-0.043-0.03-0.066-0.09-0.066-0.09 0-0.33-0.012-0.53-0.065-0.3-0.086-0.4-0.367-0.43-1.25h0.01l-0.15-5.162c0.35 0.388 1.57 1.746 2.82 3.094 1.14 1.228 2.69 2.812 2.81 2.92 0.57 0.571 0.7 0.691 0.79 0.691 0.07 0 0.09-0.055 0.09-0.767l0.03-6.315c0-0.647 0.04-0.885 0.4-0.959 0.13-0.033 0.2-0.033 0.25-0.033 0.08 0 0.12-0.031 0.12-0.074 0-0.064-0.07-0.076-0.19-0.076-0.44 0-0.8 0.033-0.92 0.033s-0.63-0.033-1.12-0.033c-0.13 0-0.21 0.012-0.21 0.076 0 0.043 0.01 0.074 0.08 0.074 0.09 0 0.34 0.011 0.53 0.055 0.33 0.086 0.41 0.323 0.42 1.023l0.12 5.475c-0.35-0.355-1.52-1.67-2.59-2.813-1.66-1.779-3.26-3.513-3.43-3.695-0.1-0.109-0.29-0.346-0.37-0.346zm36.71 0c-1.37 0-2.24 0.788-2.24 1.942 0 0.73 0.26 1.398 1.41 2.336l0.48 0.398c0.93 0.767 1.24 1.197 1.24 1.941 0 0.689-0.51 1.434-1.54 1.434-0.72 0-1.43-0.302-1.6-1.1-0.03-0.15-0.03-0.3-0.03-0.398 0-0.085-0.01-0.119-0.07-0.119s-0.08 0.053-0.09 0.172c-0.01 0.173-0.05 0.603-0.05 1.142 0 0.245 0.02 0.311 0.12 0.371-0.03-0.003-0.03 0.001-0.06-0.004-0.27-0.043-0.73-0.16-1.31-0.775-0.63-0.669-1.36-1.628-2.25-2.76 0.97-0.894 1.31-1.692 1.31-2.49 0-0.743-0.48-1.272-0.75-1.465-0.57-0.41-1.29-0.474-1.97-0.474-0.33 0-1.15 0.033-1.27 0.033-0.06 0-0.73-0.033-1.22-0.033-0.12 0-0.17 0.021-0.17 0.086 0 0.043 0.04 0.064 0.09 0.064 0.09 0 0.28 0.011 0.36 0.033 0.36 0.074 0.44 0.247 0.46 0.613 0.03 0.345 0.03 0.649 0.03 2.331v1.896c0 1.035 0 1.885-0.06 2.338-0.04 0.312-0.09 0.55-0.31 0.592-0.1 0.021-0.23 0.043-0.32 0.043-0.07 0-0.09 0.033-0.09 0.066 0 0.064 0.06 0.086 0.17 0.086 0.33 0 1-0.033 1.02-0.033 0.05 0 0.73 0.033 1.32 0.033 0.12 0 0.17-0.033 0.17-0.086 0-0.033-0.02-0.066-0.08-0.066-0.1 0-0.34-0.022-0.49-0.043-0.32-0.042-0.38-0.28-0.42-0.592-0.05-0.453-0.05-1.303-0.05-2.338v-0.26c0-0.054 0.02-0.086 0.07-0.086l1.33 0.022c0.07 0 0.1 0.021 0.14 0.064 0.22 0.28 0.72 1.002 1.18 1.596 0.61 0.807 0.99 1.335 1.45 1.584 0.28 0.151 0.55 0.205 1.15 0.205h0.77c0.07 0 0.11-0.008 0.15-0.016 0.36 0.12 0.74 0.166 1.13 0.166 0.59 0 1.17-0.129 1.63-0.453 0.74-0.528 0.92-1.345 0.92-1.787 0-0.863-0.3-1.533-1.58-2.535l-0.3-0.236c-1.01-0.829-1.31-1.196-1.31-1.809 0-0.788 0.58-1.252 1.32-1.252 0.99 0 1.28 0.452 1.35 0.57 0.06 0.119 0.13 0.411 0.14 0.54 0.01 0.086 0.02 0.142 0.09 0.142 0.05 0 0.07-0.077 0.07-0.25 0-0.732 0.04-1.088 0.04-1.142s-0.02-0.075-0.1-0.075c-0.09 0-0.18-0.011-0.38-0.054-0.27-0.065-0.58-0.108-1-0.108zm6.86 0c-0.04 0-0.08 0.14-0.11 0.205-0.02 0.087-0.23 1.015-0.23 1.121 0 0.065 0.02 0.098 0.05 0.098 0.04 0 0.08-0.024 0.11-0.109 0.03-0.077 0.06-0.15 0.18-0.334 0.17-0.259 0.43-0.334 1.1-0.344l1.6-0.024v4.561c0 1.035 0 1.885-0.06 2.338-0.04 0.312-0.09 0.55-0.31 0.592-0.1 0.021-0.23 0.043-0.32 0.043-0.07 0-0.09 0.033-0.09 0.066 0 0.064 0.05 0.086 0.17 0.086 0.33 0 1-0.033 1.06-0.033 0.05 0 0.73 0.033 1.32 0.033 0.12 0 0.18-0.033 0.18-0.086 0-0.033-0.02-0.066-0.09-0.066-0.1 0-0.33-0.022-0.48-0.043-0.33-0.042-0.39-0.28-0.43-0.592-0.05-0.453-0.05-1.303-0.05-2.338v-4.561l1.36 0.024c1.03 0.02 1.28 0.268 1.33 0.59l0.01 0.121c0.01 0.15 0.03 0.183 0.08 0.183 0.04 0 0.08-0.044 0.08-0.142 0-0.105 0.02-0.688 0.02-1.047 0.1 0.029 0.2 0.071 0.29 0.133 0.2 0.128 0.46 0.399 0.73 0.797 0.38 0.561 1.82 2.933 1.9 3.103 0.14 0.313 0.25 0.552 0.25 1.133v0.926c0 0.173 0 0.625-0.04 1.078-0.02 0.312-0.12 0.55-0.33 0.592-0.1 0.021-0.23 0.043-0.32 0.043-0.07 0-0.09 0.033-0.09 0.066 0 0.064 0.06 0.086 0.17 0.086 0.33 0 1.01-0.033 1.06-0.033s0.73 0.033 1.33 0.033c0.11 0 0.17-0.033 0.17-0.086 0-0.033-0.03-0.066-0.09-0.066-0.1 0-0.33-0.022-0.48-0.043-0.33-0.042-0.42-0.28-0.45-0.592-0.03-0.453-0.03-0.905-0.03-1.078v-0.926c0-0.356 0-0.69 0.17-1.078 0.19-0.464 1.7-2.998 2.05-3.428 0.24-0.292 0.36-0.419 0.57-0.549 0.18-0.106 0.38-0.152 0.5-0.152 0.09 0 0.14-0.032 0.14-0.086 0-0.042-0.07-0.064-0.14-0.064-0.21 0-0.98 0.033-1.05 0.033-0.08 0-0.43-0.033-0.71-0.033-0.11 0-0.17 0.022-0.17 0.064 0 0.054 0.06 0.077 0.16 0.109 0.13 0.033 0.17 0.15 0.17 0.301 0 0.14-0.04 0.323-0.18 0.549-0.21 0.356-1.58 2.717-1.79 3.17-0.19-0.313-1.81-3.095-1.98-3.406-0.09-0.162-0.14-0.292-0.14-0.422 0-0.085 0.05-0.149 0.14-0.192 0.1-0.043 0.16-0.054 0.16-0.097 0-0.042-0.02-0.076-0.14-0.076-0.42 0-0.83 0.033-0.9 0.033-0.05 0-0.63-0.023-0.93-0.029 0-0.043-0.01-0.081-0.04-0.081-0.05 0-0.14 0.022-0.3 0.055-0.18 0.021-0.43 0.055-0.77 0.055h-4.04c-0.13 0-0.54-0.023-0.85-0.055-0.29-0.022-0.4-0.129-0.48-0.129zm19.04 0c-0.06 0-0.09 0.075-0.12 0.194l-0.77 7.027c-0.05 0.409-0.08 0.83-0.43 0.894-0.17 0.033-0.24 0.032-0.33 0.032-0.05 0-0.11 0.022-0.11 0.054 0 0.076 0.08 0.098 0.19 0.098 0.29 0 0.81-0.033 0.9-0.033s0.61 0.033 1.01 0.033c0.13 0 0.19-0.022 0.19-0.098 0-0.032-0.04-0.054-0.09-0.054-0.06 0-0.22-0.011-0.41-0.053-0.16-0.032-0.28-0.173-0.28-0.334 0-0.184 0-0.378 0.01-0.551l0.43-5h0.05c0.12 0.292 1.32 2.878 1.42 3.072 0.05 0.108 0.98 1.971 1.26 2.5 0.21 0.389 0.26 0.497 0.34 0.497 0.09 0 0.13-0.099 0.35-0.573l2.64-5.605h0.03l0.52 5.562c0.02 0.194 0.01 0.378-0.04 0.389s-0.08 0.032-0.08 0.074c0 0.055 0.06 0.089 0.31 0.11 0.31 0.025 0.95 0.04 1.39 0.05 0.02 0.001 0.02 0.004 0.04 0.004s0.03-0.002 0.05-0.002c0.09 0.002 0.28 0.012 0.32 0.012 0.06 0 0.11-0.01 0.14-0.023 0.13-0.005 0.33-0.01 0.36-0.01 0.09 0 0.42 0.023 0.61 0.023 0.07 0 0.11-0.014 0.11-0.062 0-0.03-0.02-0.047-0.08-0.047h-0.07c-0.13 0-0.3-0.068-0.3-0.223 0-0.139 0.04-0.324 0.11-0.517l0.47-1.369c0.01-0.039 0.04-0.061 0.07-0.061h1.66c0.04 0 0.06 0.015 0.07 0.047l0.72 1.9c0.05 0.124 0 0.193-0.04 0.209-0.03 0.009-0.06 0.023-0.06 0.055 0 0.046 0.09 0.046 0.23 0.055 0.54 0.014 1.1 0.013 1.22 0.013 0.02 0 0.04-0.004 0.06-0.008 0.02 0.004 0.04 0.008 0.07 0.008 0.35 0 0.67-0.023 0.74-0.023s0.38 0.023 0.82 0.023c0.09 0 0.14-0.014 0.14-0.062 0-0.03-0.02-0.047-0.06-0.047-0.07 0-0.24-0.005-0.39-0.045-0.21-0.063-0.29-0.263-0.3-0.896l-0.1-3.7c0.25 0.277 1.12 1.249 2.02 2.215 0.81 0.881 1.93 2.018 2.01 2.096 0.41 0.409 0.5 0.492 0.57 0.492 0.05 0 0.07-0.037 0.07-0.547l0.01-4.527c0-0.464 0.03-0.635 0.29-0.69 0.09-0.022 0.14-0.021 0.18-0.021 0.06 0 0.09-0.024 0.09-0.055 0-0.047-0.06-0.055-0.14-0.055-0.32 0-0.57 0.024-0.66 0.024-0.08 0-0.45-0.024-0.8-0.024-0.1 0-0.16 0.008-0.16 0.055 0 0.031 0.01 0.055 0.06 0.055 0.07 0 0.24 0.008 0.38 0.039 0.24 0.062 0.3 0.231 0.3 0.734l0.09 3.924c-0.25-0.255-1.09-1.196-1.85-2.015-1.19-1.275-2.35-2.521-2.46-2.651-0.08-0.078-0.21-0.248-0.27-0.248s-0.09 0.085-0.09 0.387l-0.01 4.426c0 0.703-0.03 0.928-0.23 0.982-0.11 0.039-0.24 0.045-0.3 0.045h-0.01c-0.08 0-0.19-0.006-0.31-0.045-0.16-0.047-0.38-0.169-0.66-0.857-0.47-1.174-1.69-4.366-1.8-4.661-0.09-0.238-0.12-0.277-0.17-0.277s-0.08 0.047-0.17 0.303l-1.75 4.797c-0.13 0.347-0.27 0.611-0.56 0.695-0.12-0.012-0.27-0.034-0.43-0.084-0.47-0.151-0.54-0.754-0.59-1.143l-0.72-6.617c-0.02-0.205-0.05-0.291-0.13-0.291-0.07 0-0.12 0.074-0.16 0.172l-3.17 6.768-3.3-6.778c-0.05-0.118-0.09-0.162-0.16-0.162zm-146.93 0.065c-0.054 0-0.096 0.043-0.151 0.054-0.085 0.021-0.257 0.042-0.463 0.053-0.247 0.011-2.393 0.012-2.468 0.012-0.054 0-0.733-0.033-1.217-0.033-0.119 0-0.174 0.021-0.174 0.086 0 0.043 0.045 0.064 0.088 0.064 0.096 0 0.28 0.011 0.367 0.033 0.355 0.074 0.44 0.247 0.461 0.613 0.022 0.345 0.023 0.649 0.023 2.331v1.896c0 1.035 0 1.885-0.054 2.338-0.044 0.312-0.096 0.55-0.313 0.592-0.096 0.021-0.226 0.043-0.322 0.043-0.066 0-0.088 0.033-0.088 0.066 0 0.064 0.054 0.086 0.172 0.086 0.162 0 0.41-0.011 0.627-0.021 0.226 0 0.409-0.012 0.43-0.012 0.312 0 1.034 0.066 2.662 0.066 0.42 0 0.506 0 0.582-0.281 0.054-0.228 0.14-0.959 0.14-1.047 0-0.074 0-0.16-0.064-0.16-0.053 0-0.077 0.041-0.098 0.16-0.075 0.443-0.204 0.659-0.484 0.777-0.28 0.119-0.756 0.12-1.035 0.12-1.058 0-1.218-0.141-1.25-0.885-0.012-0.226 0-1.476 0-1.842v-0.949c0-0.043 0.021-0.074 0.076-0.074 0.183 0 1.249 0.021 1.541 0.054 0.42 0.042 0.517 0.224 0.56 0.375 0.044 0.141 0.043 0.247 0.043 0.356 0 0.053 0.021 0.097 0.075 0.097 0.075 0 0.076-0.117 0.076-0.205 0-0.074 0.022-0.473 0.043-0.689 0.032-0.355 0.086-0.539 0.086-0.604 0-0.064-0.021-0.086-0.053-0.086-0.043 0-0.087 0.054-0.162 0.141-0.097 0.106-0.248 0.128-0.506 0.15-0.249 0.021-1.575 0.022-1.715 0.022-0.054 0-0.064-0.032-0.064-0.107v-2.975c0-0.076 0.021-0.109 0.064-0.109 0.119 0 1.294 0.012 1.477 0.033 0.581 0.064 0.69 0.193 0.765 0.365 0.053 0.13 0.065 0.314 0.065 0.391 0 0.085 0.021 0.138 0.086 0.138 0.042 0 0.065-0.065 0.076-0.119 0.021-0.128 0.043-0.602 0.053-0.711 0.032-0.302 0.086-0.43 0.086-0.506 0-0.054-0.011-0.097-0.043-0.097zm66.608 0c-0.05 0-0.09 0.043-0.15 0.054-0.08 0.021-0.25 0.042-0.46 0.053-0.25 0.011-2.39 0.012-2.47 0.012-0.05 0-0.73-0.033-1.21-0.033-0.12 0-0.18 0.021-0.18 0.086 0 0.043 0.05 0.064 0.09 0.064 0.1 0 0.28 0.011 0.37 0.033 0.35 0.074 0.44 0.247 0.46 0.613 0.02 0.345 0.02 0.649 0.02 2.331v1.896c0 1.035 0 1.885-0.05 2.338-0.05 0.312-0.1 0.55-0.32 0.592-0.09 0.021-0.22 0.043-0.32 0.043-0.06 0-0.09 0.033-0.09 0.066 0 0.064 0.06 0.086 0.18 0.086 0.16 0 0.41-0.011 0.62-0.021 0.23 0 0.41-0.012 0.43-0.012 0.32 0 1.04 0.066 2.66 0.066 0.43 0 0.51 0 0.59-0.281 0.05-0.228 0.14-0.959 0.14-1.047 0-0.074 0-0.16-0.07-0.16-0.05 0-0.07 0.041-0.09 0.16-0.08 0.443-0.21 0.659-0.49 0.777-0.28 0.119-0.75 0.12-1.03 0.12-1.06 0-1.22-0.141-1.25-0.885-0.02-0.226 0-1.476 0-1.842v-0.949c0-0.043 0.02-0.074 0.07-0.074 0.18 0 1.25 0.021 1.54 0.054 0.42 0.042 0.52 0.224 0.56 0.375 0.05 0.141 0.05 0.247 0.05 0.356 0 0.053 0.02 0.097 0.07 0.097 0.08 0 0.08-0.117 0.08-0.205 0-0.074 0.02-0.473 0.04-0.689 0.03-0.355 0.09-0.539 0.09-0.604 0-0.064-0.02-0.086-0.06-0.086s-0.08 0.054-0.16 0.141c-0.1 0.106-0.25 0.128-0.5 0.15-0.25 0.021-1.58 0.022-1.72 0.022-0.05 0-0.06-0.032-0.06-0.107v-2.975c0-0.076 0.02-0.109 0.06-0.109 0.12 0 1.3 0.012 1.48 0.033 0.58 0.064 0.69 0.193 0.76 0.365 0.05 0.13 0.07 0.314 0.07 0.391 0 0.085 0.02 0.138 0.08 0.138 0.05 0 0.07-0.065 0.08-0.119 0.02-0.128 0.04-0.602 0.05-0.711 0.03-0.302 0.09-0.43 0.09-0.506 0-0.054-0.01-0.097-0.05-0.097zm42.8 0c-0.06 0-0.1 0.043-0.15 0.054-0.09 0.021-0.26 0.042-0.47 0.053-0.24 0.011-2.39 0.012-2.47 0.012-0.05 0-0.73-0.033-1.21-0.033-0.12 0-0.17 0.021-0.17 0.086 0 0.043 0.04 0.064 0.08 0.064 0.1 0 0.28 0.011 0.37 0.033 0.35 0.074 0.44 0.247 0.46 0.613 0.02 0.345 0.02 0.649 0.02 2.331v1.896c0 1.035 0 1.885-0.05 2.338-0.04 0.312-0.1 0.55-0.31 0.592-0.1 0.021-0.23 0.043-0.33 0.043-0.06 0-0.08 0.033-0.08 0.066 0 0.064 0.05 0.086 0.17 0.086 0.16 0 0.41-0.011 0.62-0.021 0.23 0 0.41-0.012 0.43-0.012 0.32 0 1.04 0.066 2.67 0.066 0.42 0 0.5 0 0.58-0.281 0.05-0.228 0.14-0.959 0.14-1.047 0-0.074 0-0.16-0.07-0.16-0.05 0-0.07 0.041-0.09 0.16-0.08 0.443-0.21 0.659-0.49 0.777-0.28 0.119-0.75 0.12-1.03 0.12-1.06 0-1.22-0.141-1.25-0.885-0.01-0.226 0-1.476 0-1.842v-0.949c0-0.043 0.02-0.074 0.07-0.074 0.19 0 1.25 0.021 1.54 0.054 0.42 0.042 0.52 0.224 0.56 0.375 0.05 0.141 0.05 0.247 0.05 0.356 0 0.053 0.02 0.097 0.07 0.097 0.08 0 0.08-0.117 0.08-0.205 0-0.074 0.02-0.473 0.04-0.689 0.03-0.355 0.09-0.539 0.09-0.604 0-0.064-0.02-0.086-0.06-0.086s-0.08 0.054-0.16 0.141c-0.09 0.106-0.25 0.128-0.5 0.15-0.25 0.021-1.58 0.022-1.72 0.022-0.05 0-0.06-0.032-0.06-0.107v-2.975c0-0.076 0.02-0.109 0.06-0.109 0.12 0 1.29 0.012 1.48 0.033 0.58 0.064 0.69 0.193 0.76 0.365 0.06 0.13 0.07 0.314 0.07 0.391 0 0.085 0.02 0.138 0.08 0.138 0.05 0 0.07-0.065 0.08-0.119 0.02-0.128 0.04-0.602 0.05-0.711 0.04-0.302 0.09-0.43 0.09-0.506 0-0.054-0.01-0.097-0.04-0.097zm-137.12 0.086c-0.118 0-0.172 0.021-0.172 0.086 0 0.043 0.042 0.064 0.086 0.064 0.074 0 0.215 0.012 0.334 0.045 0.237 0.052 0.344 0.235 0.365 0.601 0.022 0.345 0.023 0.649 0.023 2.331v1.896c0 1.035-0.001 1.885-0.054 2.338-0.045 0.312-0.098 0.55-0.313 0.592-0.098 0.021-0.227 0.043-0.324 0.043-0.064 0-0.086 0.033-0.086 0.066 0 0.064 0.055 0.086 0.174 0.086 0.322 0 1-0.033 1.054-0.033 0.055 0 0.733 0.033 1.327 0.033 0.118 0 0.173-0.033 0.173-0.086 0-0.033-0.022-0.066-0.087-0.066-0.097 0-0.334-0.022-0.485-0.043-0.323-0.042-0.388-0.28-0.422-0.592-0.053-0.453-0.052-1.303-0.052-2.338v-1.896c0-1.682-0.001-1.986 0.021-2.331 0.021-0.377 0.107-0.56 0.398-0.613 0.129-0.022 0.195-0.033 0.27-0.033 0.043 0 0.086-0.021 0.086-0.064 0-0.065-0.053-0.086-0.172-0.086-0.324 0-1.002 0.033-1.057 0.033-0.054 0-0.731-0.033-1.087-0.033zm121.28 0c-0.12 0-0.18 0.021-0.18 0.086 0 0.043 0.04 0.064 0.09 0.064 0.07 0 0.21 0.012 0.33 0.045 0.24 0.052 0.35 0.235 0.37 0.601 0.02 0.345 0.02 0.649 0.02 2.331v1.896c0 1.035 0 1.885-0.05 2.338-0.05 0.312-0.1 0.55-0.31 0.592-0.1 0.021-0.23 0.043-0.33 0.043-0.06 0-0.08 0.033-0.08 0.066 0 0.064 0.05 0.086 0.17 0.086 0.32 0 1-0.033 1.05-0.033 0.06 0 0.74 0.033 1.33 0.033 0.12 0 0.17-0.033 0.17-0.086 0-0.033-0.02-0.066-0.09-0.066-0.09 0-0.33-0.022-0.48-0.043-0.32-0.042-0.39-0.28-0.42-0.592-0.05-0.453-0.05-1.303-0.05-2.338v-1.896c0-1.682 0-1.986 0.02-2.331 0.02-0.377 0.1-0.56 0.4-0.613 0.13-0.022 0.19-0.033 0.27-0.033 0.04 0 0.08-0.021 0.08-0.064 0-0.065-0.05-0.086-0.17-0.086-0.32 0-1 0.033-1.06 0.033-0.05 0-0.73-0.033-1.08-0.033zm2.92 0c-0.18 0-0.28 0.012-0.28 0.076 0 0.043 0.02 0.074 0.08 0.074 0.07 0 0.25 0 0.41 0.045 0.38 0.106 0.54 0.225 0.78 0.828l2.64 6.607c0.2 0.517 0.26 0.668 0.39 0.668 0.1 0 0.15-0.171 0.45-0.818 0.25-0.529 0.73-1.691 1.39-3.266 0.55-1.325 1.09-2.62 1.21-2.921 0.29-0.734 0.45-0.916 0.59-1.012 0.2-0.13 0.44-0.131 0.52-0.131s0.13-0.02 0.13-0.074c0-0.053-0.07-0.076-0.19-0.076-0.31 0-0.78 0.033-0.84 0.033-0.13 0-0.62-0.033-1.06-0.033-0.17 0-0.23 0.021-0.23 0.086 0 0.054 0.05 0.064 0.12 0.064 0.11 0 0.28 0 0.41 0.045 0.1 0.052 0.14 0.16 0.14 0.248 0 0.096-0.05 0.246-0.1 0.408-0.24 0.777-1.68 4.538-2.31 5.983l-2.07-5.518c-0.16-0.42-0.29-0.757-0.29-0.896 0-0.075 0.02-0.162 0.14-0.215 0.1-0.043 0.29-0.055 0.41-0.055 0.08 0 0.11-0.02 0.11-0.074 0-0.053-0.1-0.076-0.29-0.076-0.41 0-0.89 0.033-1 0.033-0.13 0-0.75-0.033-1.26-0.033zm27.86 0c-0.12 0-0.17 0.021-0.17 0.086 0 0.043 0.04 0.064 0.08 0.064 0.08 0 0.22 0.012 0.34 0.045 0.23 0.052 0.34 0.235 0.36 0.601 0.02 0.345 0.02 0.649 0.02 2.331v1.896c0 1.035 0 1.885-0.05 2.338-0.04 0.312-0.1 0.55-0.31 0.592-0.1 0.021-0.23 0.043-0.33 0.043-0.06 0-0.08 0.033-0.08 0.066 0 0.064 0.05 0.086 0.17 0.086 0.32 0 1-0.033 1.05-0.033 0.06 0 0.74 0.033 1.33 0.033 0.12 0 0.17-0.033 0.17-0.086 0-0.033-0.02-0.066-0.08-0.066-0.1 0-0.34-0.022-0.49-0.043-0.32-0.042-0.39-0.28-0.42-0.592-0.05-0.453-0.05-1.303-0.05-2.338v-1.896c0-1.682 0-1.986 0.02-2.331 0.02-0.377 0.11-0.56 0.4-0.613 0.13-0.022 0.19-0.033 0.27-0.033 0.04 0 0.08-0.021 0.08-0.064 0-0.065-0.05-0.086-0.17-0.086-0.32 0-1 0.033-1.06 0.033-0.05 0-0.73-0.033-1.08-0.033zm-113.31 0.214c1.703 0 3.276 1.392 3.276 3.979 0 3.136-2.003 3.695-2.973 3.695-1.94 0-3.449-1.617-3.449-4.127 0-2.36 1.347-3.547 3.146-3.547zm102.53 0.131c1.15 0 1.86 0.809 1.86 2.157 0 0.818-0.28 1.401-0.66 1.658-0.24 0.173-0.55 0.207-0.8 0.207-0.48 0-0.97-0.078-1.14-0.174-0.05-0.033-0.07-0.078-0.07-0.131v-3.523c0-0.065 0.03-0.107 0.09-0.129 0.1-0.032 0.39-0.065 0.72-0.065zm-88.407 1.129c0.027 0 0.055 0.04 0.082 0.121l1.024 2.91c0.01 0.042 0.01 0.075-0.043 0.075h-2.059c-0.032 0-0.054-0.021-0.033-0.075l0.949-2.91c0.028-0.081 0.054-0.121 0.08-0.121zm26.357 0c0.03 0 0.05 0.04 0.08 0.121l1.03 2.91c0.01 0.042 0.01 0.075-0.05 0.075h-2.06c-0.03 0-0.05-0.021-0.03-0.075l0.95-2.91c0.03-0.081 0.05-0.121 0.08-0.121zm123.88 0.715c-0.05 0-0.08 0.047-0.17 0.303l-1.75 4.797c-0.1 0.257-0.2 0.466-0.36 0.595-0.31-0.14-0.48-0.283-1.08-0.836-0.31-0.293-1.92-1.953-2.12-2.177 0.16-0.194 1.51-1.506 1.7-1.692 0.35-0.332 0.52-0.526 0.83-0.666 0.16-0.069 0.32-0.107 0.44-0.107 0.06 0 0.07-0.017 0.07-0.055 0-0.039-0.03-0.055-0.11-0.055-0.19 0-0.7 0.024-0.74 0.024-0.19 0-0.43-0.024-0.58-0.024-0.06 0-0.1 0.016-0.1 0.055 0 0.031 0.03 0.048 0.07 0.063 0.07 0.023 0.1 0.069 0.1 0.162 0 0.132-0.2 0.331-0.41 0.556-0.28 0.301-1.68 1.722-1.81 1.87h-0.03v-0.463c0-1.205 0-1.423 0.01-1.67 0.02-0.271 0.08-0.403 0.29-0.442 0.09-0.014 0.14-0.021 0.19-0.021 0.03 0 0.06-0.016 0.06-0.047 0-0.047-0.03-0.063-0.12-0.063-0.23 0-0.68 0.024-0.75 0.024-0.05 0-0.5-0.024-0.85-0.024-0.08 0-0.12 0.016-0.12 0.063 0 0.031 0.03 0.047 0.06 0.047 0.07 0 0.2 0.006 0.26 0.021 0.26 0.055 0.32 0.178 0.33 0.442 0.02 0.247 0.02 0.465 0.02 1.67v1.359c0 0.741 0 1.352-0.04 1.676-0.03 0.224-0.07 0.396-0.22 0.426-0.07 0.016-0.17 0.029-0.23 0.029-0.05 0-0.06 0.025-0.06 0.047 0 0.048 0.03 0.062 0.12 0.062 0.23 0 0.68-0.023 0.74-0.023s0.51 0.023 0.89 0.023c0.08 0 0.12-0.023 0.12-0.062 0-0.022-0.01-0.047-0.06-0.047-0.07 0-0.2-0.013-0.3-0.029-0.23-0.03-0.28-0.202-0.3-0.426-0.04-0.324-0.04-0.935-0.04-1.676v-0.758h0.04c0.37 0.458 2.01 2.226 2.35 2.512 0.3 0.233 0.49 0.386 0.81 0.447 0.02 0.025 0.05 0.039 0.13 0.039 0.11 0 0.15-0.005 0.26-0.008 0.09 0.002 0.16 0.008 0.27 0.008h0.39c0.07 0 0.11-0.004 0.14-0.015 0.14 0.007 0.29 0.015 0.42 0.015 0.06 0 0.11-0.014 0.11-0.062 0-0.03-0.02-0.047-0.08-0.047h-0.07c-0.13 0-0.3-0.068-0.3-0.223 0-0.139 0.04-0.324 0.11-0.517l0.46-1.369c0.02-0.039 0.04-0.061 0.08-0.061h1.66c0.04 0 0.06 0.015 0.07 0.047l0.72 1.9c0.05 0.124 0 0.193-0.05 0.209-0.03 0.009-0.05 0.023-0.05 0.055 0 0.046 0.09 0.046 0.23 0.055 0.54 0.014 1.1 0.013 1.21 0.013 0.09 0 0.16-0.014 0.16-0.062 0-0.038-0.03-0.047-0.08-0.047-0.07 0-0.19-0.005-0.31-0.045-0.16-0.047-0.38-0.169-0.66-0.857-0.47-1.174-1.68-4.366-1.8-4.661-0.09-0.238-0.12-0.277-0.17-0.277zm2.27 0c-0.04 0-0.07 0.101-0.08 0.147-0.02 0.063-0.17 0.726-0.17 0.802 0 0.046 0.01 0.073 0.04 0.073s0.05-0.018 0.07-0.079c0.03-0.055 0.05-0.107 0.14-0.24 0.12-0.184 0.3-0.239 0.78-0.248l1.15-0.014v3.268c0 0.741-0.01 1.352-0.04 1.676-0.03 0.224-0.07 0.396-0.23 0.426-0.07 0.016-0.16 0.029-0.23 0.029-0.04 0-0.06 0.025-0.06 0.047 0 0.048 0.04 0.062 0.12 0.062 0.23 0 0.72-0.023 0.76-0.023s0.53 0.023 0.95 0.023c0.09 0 0.12-0.023 0.12-0.062 0-0.022-0.01-0.047-0.06-0.047-0.07 0-0.24-0.013-0.34-0.029-0.24-0.03-0.28-0.202-0.31-0.426-0.04-0.324-0.04-0.935-0.04-1.676v-3.268l0.98 0.014c0.74 0.016 0.92 0.193 0.95 0.426l0.01 0.086c0 0.107 0.02 0.131 0.06 0.131 0.03 0 0.05-0.031 0.05-0.102 0-0.084 0.02-0.618 0.02-0.849 0-0.046 0-0.092-0.03-0.092s-0.1 0.015-0.22 0.039c-0.12 0.015-0.3 0.037-0.55 0.037h-2.9c-0.09 0-0.38-0.015-0.61-0.037-0.2-0.016-0.28-0.094-0.33-0.094zm7.81 0c-2.13 0-3.04 1.769-3.04 3.022 0 1.389 0.88 3.035 3 3.035 1.86 0 3.08-1.427 3.08-3.158 0-1.801-1.3-2.899-3.04-2.899zm-0.05 0.264c1.22 0 2.35 0.995 2.35 2.849 0 2.248-1.44 2.651-2.13 2.651-1.39 0-2.47-1.16-2.47-2.959 0-1.693 0.96-2.541 2.25-2.541zm-27.5 0.9c0.02 0 0.04 0.03 0.06 0.088l0.74 2.086c0 0.031 0 0.055-0.04 0.055h-1.47c-0.02 0-0.04-0.017-0.03-0.055l0.69-2.086c0.02-0.058 0.03-0.088 0.05-0.088zm17.34 0c0.02 0 0.04 0.03 0.06 0.088l0.73 2.086c0.01 0.031 0.01 0.055-0.03 0.055h-1.47c-0.03 0-0.04-0.017-0.03-0.055l0.68-2.086c0.02-0.058 0.04-0.088 0.06-0.088zm-234.75 4.822v0.952h1.4863v0.927h6.2715v-0.927h1.4963v-0.952h-9.2541zm3.0859 2.52v0.801h3.0605v-0.801h-3.0605z" transform="matrix(.8 0 0 -.8 205.86 433.65)" fill="#480059"/></g></g></svg>
