<svg xmlns="http://www.w3.org/2000/svg" viewBox="0 0 250 76.258744"><g transform="matrix(1.25 0 0 -1.25 -482.5 113.93)"><g><path d="m0.88086 0.82617c1.2367 5.3443 3.4091 9.7888 9.0351 11.244-0.905 0.396-1.7111 0.758-2.5332 1.34 0.9551 2.88 3.3892 5.72 6.4632 6.471-0.498 0.495-0.928 0.909-1.563 1.226 0.877 2.055 2.564 3.293 4.537 4.135 1.094 0.564 1.74 0.562 2.875 0.625-0.34 0.526-0.908 0.987-1.463 1.115-1.218-0.773-3.264-0.65-4.439-0.127-4.0333 1.638-3.072 5.509-2.639 8.819 1.28-0.928 2.762-1.747 3.846-2.912 0.622-0.834 0.656-1.992 0.287-2.838 0.205-0.368 0.979-0.338 1.322-0.338 0.624 0.11 0.76 0.867 0.813 1.383-1.539 2.832-5.485 3.166-7.086 6.586-0.4161 1.607-0.079 3.319 1.162 4.496 1.039 1.043 2.315 1.344 3.943 1.109 2.347-0.196 2.296-3.355 3.926-3.371-0.27 1.55-0.854 2.847-2.222 3.635-0.745 0.173-1.51 0.217-2.245 0.39-1.494 1.091-1.881 3.59-3.845 4.75-0.822 1.068-0.147 5.329-0.053 5.922h8.871v-0.797c0.066-1.845-1.057-3.608-2.75-4.474 0.104-0.323 0.201-0.677 0.484-0.895 3.082 0.283 5.617-0.944 7.596-2.84 0.448 0.61 0.54 1.718 0.66 2.444-0.24 0.261-0.848 0.918-0.978 0.976-0.505 0.198-0.745 0.82-0.864 1.245-0.13 0.474-0.169 0.992-0.169 0.992 0.483 1.023 1.125 1.617 2.283 1.787 1.062 1.543 2.759 1.374 4.162 1.195 0.825 0.368 1.363 0.256 2.162-0.252 0.169-0.382 0.315-0.829 0.736-1.004 1.692-0.084 3.249 0.31 4.895-0.318 0.236-1.251-0.139-1.921-0.791-2.904-0.309-0.362-1.456-0.733-1.192-1.231 0.861-1.661-0.02-3.294-0.912-4.492 0.842-0.433 1.904-0.459 2.826-0.549 0.793 1.12-0.285 3.029-0.5 4.217 1.841 2.19 2.523 4.731 2.936 7.492l7.91-0.012 0.606-0.425 3.011 0.769c-0.766 1.293-1.553 2.56-2.38 3.813l9.449 0.486c1.171-1.656 2.343-3.366 3.394-5.141h5.832c0.765-2.357 1.594-4.714 2.422-7.072 2.672-7.442 5.539-14.957 8.596-22.324 0.445 2.652 0.89 5.231 1.209 7.883 1.082 7.073 1.845 14.219 2.418 21.513h13.5c2.929-10.241 5.476-17.757 11.786-34.332 0.82-2.21 1.65-4.346 2.48-6.556l0.38-0.887 0.06-0.147 1.28-3.2398 0.19-0.4433 1.4-3.6817c0.51-1.1795 1.15-2.4329 1.85-3.7597h-11.28c0.39 2.8738 0.32 5.304-0.57 9.6505-0.12 0.516-0.25 1.033-0.38 1.549l-0.06 0.295-0.26 0.736c-1.46 5.158-2.93 9.8-4.71 14.883-0.383 1.179-0.764 2.357-1.209 3.535l-0.701 1.918-0.639 1.914-1.973-15.178-0.062-0.808-0.574-5.6c-0.382-4.7896-0.446-6.3378-0.254-7.8848 0.254-2.136 0.508-3.4617 0.636-4.0507l0.127-0.4434 0.254-0.5156h-17.892l0.064 0.5898 0.065 0.4414 0.062 0.7364 0.127 1.6953c0.319 6.1876-0.127 9.2096-2.293 15.252l-5.603 15.912-0.319-2.947-0.445-3.609-0.254-2.43c-0.383-4.275-0.765-8.621-1.146-13.338l-0.065-1.103-0.062-1.252-0.192-2.3577c-0.191-3.5371-0.127-5.0835 0.192-7.5898h-18.213c0.89 2.4305 1.147 3.6109 1.847 7.5898l0.508 3.1677 0.065 0.514 0.062 0.443 0.129 0.588c0.331 2.321 0.632 4.829 0.922 7.43-1.321-0.379-2.83 0.09-4.143 0.32-0.506-0.513-1.345-0.991-1.59-1.676 0.953-2.818-0.337-5.465-2.14-7.472-1.397-1.589-1.426-4.2258-1.762-6.2131-0.436-2.5821-1.361-4.4361-4.242-5.0137-2.145-0.1858-3.945-0.1618-6.061 0.0469-1.662 0.163-3.152 0.3954-4.912 0.4512-9.12 0.2888-16.929 0.2412-26.023-0.87113zm149.26 4.375c-0.23 0.0042-0.45 0.0169-0.67 0.039-2.88 0.3046-4.8 1.5726-5.89 3.5157-1.24 2.2271-1.04 3.7571 0.84 5.7441 0.23 0.219 0.72 0.699 1.29 1.158 0.09 0.089 0.19 0.195 0.29 0.285 0.54 0.502 0.62 0.59 0.75 0.807 0.41 0.699-0.04 1.923-1.05 2.469-0.15 0.064-0.28 0.129-0.43 0.195-1.16 0.415-2.24 0.221-3.57-0.98-0.37-0.329-0.69-0.702-0.95-1.094l-1.04 3.123 0.36 0.176 0.34 0.131c0.18 0.087 0.36 0.152 0.54 0.216 1.37 0.482 1.92 0.569 3.18 0.526 2.02-0.087 3.44-0.548 4.81-1.399 3.25-2.031 4.08-5.37 2.61-7.097-0.2-0.241-0.38-0.415-0.91-0.895-0.1-0.087-0.22-0.174-0.32-0.262l-1.02-0.832-0.17-0.129c-0.81-0.699-1.04-1.1362-1.03-1.771 0.02-0.9165 0.41-1.5724 1.28-2.0313 0.99-0.5233 2.72-0.2829 4.27 1.3984 0.07 0.0644 0.13 0.1316 0.19 0.2188l0.7-2.9043h-0.18-0.17l-0.29-0.043-0.09-0.0234-0.64-0.1524c-0.2-0.0443-0.41-0.087-0.63-0.1328-0.98-0.1962-1.72-0.2685-2.4-0.2558zm12.16 0c-0.22 0.0042-0.45 0.0169-0.67 0.039-2.88 0.3046-4.8 1.5726-5.88 3.5157-1.24 2.2271-1.05 3.7571 0.83 5.7441 0.23 0.219 0.72 0.699 1.29 1.158 0.1 0.089 0.2 0.195 0.3 0.285 0.54 0.502 0.62 0.59 0.75 0.807 0.4 0.699-0.04 1.923-1.05 2.469-0.15 0.064-0.28 0.129-0.43 0.195-1.17 0.415-2.24 0.221-3.58-0.98-0.36-0.329-0.68-0.702-0.95-1.094l-1.03 3.123 0.35 0.176 0.35 0.131c0.17 0.087 0.36 0.152 0.54 0.216 1.37 0.482 1.92 0.569 3.18 0.526 2.01-0.087 3.44-0.548 4.81-1.399 3.25-2.031 4.07-5.37 2.61-7.097-0.21-0.241-0.39-0.415-0.92-0.895-0.1-0.087-0.21-0.174-0.31-0.262l-1.03-0.832-0.17-0.129c-0.81-0.699-1.03-1.1362-1.02-1.771 0.01-0.9165 0.4-1.5724 1.28-2.0313 0.99-0.5233 2.72-0.2829 4.27 1.3984 0.06 0.0644 0.13 0.1316 0.19 0.2188l0.69-2.9043h-0.17-0.18l-0.28-0.043-0.1-0.0234-0.63-0.1524c-0.21-0.0443-0.41-0.087-0.64-0.1328-0.97-0.1962-1.72-0.2685-2.4-0.2558zm47.42 0.0605c-1.3-0.0443-3.22 0.2403-3.46 0.2403h-4.69c-0.32 0 0.02 0.5886-0.01 0.916-0.12 1.311-0.57 2.0991-0.94 3.4101-0.96 3.3409-1.45 5.2619-2.86 8.5179-0.48 1.113-1.36 2.883-1.36 2.883l5.56 0.021s-0.16-0.96-0.05-1.332c0.19-0.633 0.31-1.092 0.53-1.77l1.23-3.843s0.53 2.03 0.91 3.297c0.25 0.809 0.48 1.857 0.72 2.119 0.12 0.37 0.59 0.853 0.89 1.006 0.48 0.238 0.92 0.48 1.54 0.48l3.7 0.022s-0.69-0.809-1.01-1.375c-0.32-0.612-0.52-1.006-0.7-1.706l-1.56-5.306c-0.02-0.087 1.26-0.396 2.51-1.27 1.19-0.829 2.36-2.7063 2.26-4.0388-0.13-1.7457-1.72-2.2272-3.21-2.2715zm-31.91 0.0449c-0.75-0.0443-1.56-0.0011-2.41 0.1504-4.52 0.7649-8.02 3.8887-9.29 8.584-1.35 4.915 1.19 8.3 6.89 7.406 3.8-0.59 7.12-3.234 8.82-6.75 2.53-5.3084 0.83-9.0844-4.01-9.3904zm-58.5 0.1954c0.15 0.3059 0.18 0.6329 0.03 1.1562l-0.16 0.7012-0.09 0.3261c-0.2 0.6992-0.31 1.049-0.41 1.3321l-2.87 8.6484-0.12 0.33c-0.56 1.486-1.03 2.336-1.74 3.233h3.28c-0.02-0.547 0.02-1.05 0.13-1.637 0.03-0.176 0.07-0.351 0.1-0.526l0.08-0.285 0.22-0.785 0.11-0.33 2.12-6.441 0.57 10.004h1.78l6.64-10.026-1.9 6.463-0.06 0.197-0.04 0.112-0.13 0.459-0.19 0.632c-0.3 0.895-0.52 1.463-0.84 2.163h5.46c0-0.175-0.03-0.329-0.03-0.504-0.08-1.07 0-1.724 0.24-2.729l0.08-0.283 0.01-0.024 2.88-8.7359c0.1-0.263 0.2-0.5893 0.45-1.2226l0.17-0.4375 0.21-0.5235c0.15-0.3931 0.32-0.6978 0.46-0.9394l0.09-0.1524 0.14-0.1757h-5.54l-5.42 8.301-0.45-8.301h-5.26zm18.23 0c0.05 0.7205-0.03 1.3335-0.32 2.25l-0.36 1.0703-0.1 0.3047-2.84 8.605-0.01 0.024-0.08 0.219-0.32 0.873-0.06 0.197c-0.33 0.851-0.66 1.506-1.11 2.184h5.38c0.05-0.723 0.15-1.399 0.39-2.184l0.02-0.135 0.3-0.935 0.08-0.33 2.83-8.518 0.1-0.3047 0.22-0.6114 0.16-0.4804c0.31-0.8736 0.65-1.5294 1.1-2.2285h-5.38zm48.61 0c-0.1 0.742-0.26 1.4422-0.51 2.2714l-0.14 0.5235-0.2 0.5683-0.08 0.3067-2.36 7.1191-0.46 1.375-0.06 0.197c-0.59 1.943 0.2 3.3 2.5 3.627 0.27 0.023 0.54 0.045 0.84 0.045 1.86-0.021 3.46-0.57 4.73-1.508l-0.39 1.202h4.95c-0.01-0.701 0.08-1.246 0.39-2.163l0.3-0.918 0.06-0.173 0.1-0.309 2.8-8.4726 0.12-0.3282 0.26-0.7422 0.1-0.3261c0.35-1.048 0.62-1.5744 1.08-2.2949h-5.17c-0.1 0.589-0.24 1.157-0.4 1.7675-0.03 0.1773-0.09 0.3515-0.15 0.5274l-0.11 0.3711-0.23 0.7207-0.1 0.3047-2.22 6.7066c-0.62 1.876-1.42 2.708-2.63 2.991-1.64 0.371-2.32-0.503-1.93-1.922l0.16-0.524 0.09-0.328 2.3-6.9236 0.1-0.3047 0.34-0.9825 0.05-0.1093c0.17-0.4819 0.44-1.0946 0.7-1.7051 0.1-0.1959 0.19-0.394 0.3-0.5898h-5.13zm30.97 0c0.05 0.7205-0.04 1.3335-0.32 2.25l-0.36 1.0703-0.1 0.3047-2.84 8.605-0.01 0.024-0.08 0.219-0.32 0.873-0.06 0.197c-0.33 0.851-0.66 1.506-1.11 2.184h5.38c0.05-0.723 0.15-1.399 0.39-2.184l0.02-0.135 0.3-0.935 0.08-0.33 2.83-8.518 0.1-0.3047 0.22-0.6114 0.16-0.4804c0.32-0.8736 0.65-1.5294 1.11-2.2285h-5.39zm-41.02 1.4687c0.8-0.0775 1.44 0.3147 1.71 1.0645 0.18 0.5247 0.24 1.0067 0.17 2.0978-0.06 0.961-0.39 2.599-0.93 4.129-0.96 2.816-1.78 4.018-2.92 4.912-1.51 1.158-3.1 0.787-3.51-0.654-0.14-0.459-0.15-0.959-0.08-1.967 0.03-0.326 0.56-2.817 0.95-3.953 0.97-2.7298 1.86-4.0395 3.07-4.9574 0.53-0.4096 1.06-0.6254 1.54-0.6719zm30.9 0.0371c1.37 0.0804 1.9 1.0928 1.18 2.7754-0.56 1.3108-1.57 2.0118-2.11 2.2928-0.55 0.283-1.6 0.438-1.6 0.438l1.63-5.4398s0.18-0.043 0.26-0.043c0.23-0.0273 0.44-0.0349 0.64-0.0234zm-65.79 18.074c-0.42 0.006-0.84 0.031-1.25 0.07-5.42 0.547-9.06 2.858-11.15 6.412-2.38 4.077-2.05 6.882 1.44 10.534 0.42 0.4 1.33 1.284 2.39 2.129 0.18 0.161 0.36 0.359 0.54 0.521 1.01 0.922 1.16 1.084 1.4 1.484 0.74 1.283-0.12 3.523-2.04 4.518-0.28 0.119-0.53 0.239-0.82 0.359-2.19 0.754-4.2 0.388-6.69-1.82-0.67-0.603-1.26-1.286-1.75-2.008l-2.02 5.719 0.66 0.322 0.65 0.242c0.33 0.162 0.67 0.283 1.01 0.403 2.56 0.888 3.59 1.052 5.96 0.98 3.79-0.151 6.47-0.985 9.07-2.541 6.16-3.704 7.79-9.822 5.08-12.992-0.39-0.442-0.72-0.763-1.7-1.648-0.18-0.159-0.4-0.319-0.59-0.481l-1.9-1.525-0.31-0.242c-1.52-1.286-1.93-2.087-1.89-3.247 0.05-1.681 0.79-2.882 2.45-3.718 1.87-0.955 5.12-0.503 7.99 2.588 0.12 0.12 0.24 0.239 0.36 0.398l1.37-5.318h-0.33l-0.33-0.002-0.53-0.08-0.18-0.043-1.19-0.285c-0.38-0.079-0.77-0.159-1.2-0.241-1.82-0.366-3.21-0.507-4.5-0.488zm70.1 0.309c-2.44-0.086-6.05 0.423-6.49 0.423l-8.83-0.025c-0.58 0 0.02 1.081-0.04 1.682-0.24 2.402-1.12 3.839-1.84 6.238-1.88 6.119-2.85 9.639-5.58 15.596-0.94 2.038-2.62 5.277-2.62 5.277l10.43 0.068s-0.27-1.76-0.04-2.439c0.37-1.16 0.59-2.001 1.02-3.242l2.42-7.037s0.93 3.725 1.63 6.048c0.44 1.485 0.85 3.407 1.3 3.887 0.21 0.682 1.08 1.564 1.64 1.846 0.9 0.443 1.72 0.886 2.89 0.891l5.61 0.046c0 0.003 0 0.006-0.01 0.008l1.32 0.004h0.02l4.22 0.012c0.04-0.682 0.14-1.323 0.25-1.963 0.19-0.999 0.35-1.56 0.48-2.002l0.4-1.076 0.3-0.881 0.17-0.602 4.48-12.593 5.9 19.15 7.79 0.022 7.78-22.114 0.24-0.56 0.62-1.801 0.08-0.16c0.27-0.719 0.76-1.759 1.48-3.198 0.19-0.318 0.37-0.64 0.55-0.958l-5.59-0.016c-0.13 1.4-0.33 2.482-0.89 4.16l-0.44 1.32-0.23 0.68-0.24 0.561-3.83 10.877-5.29-17.629-9.85-0.028c0.29 0.524 0.32 0.882-0.1 3.082-0.11 0.679-0.44 1.8-0.93 3.2l-5.65 15.996-0.2 0.599-0.73 1.959c-0.47 1.087-0.96 2.082-1.52 3.037-0.39-0.493-0.83-1.097-1.11-1.601-0.6-1.123-0.95-1.845-1.29-3.127l-2.78-9.735c-0.04-0.16 2.36-0.714 4.74-2.308 2.25-1.514 4.5-4.951 4.34-7.393-0.2-3.204-3.16-4.094-5.98-4.181zm-100.43 0.158c-0.09 1.241-0.31 2.401-0.9 4.203-0.1 0.279-0.21 0.598-0.31 0.918l-6.64 18.795c-0.1 0.279-0.2 0.561-0.3 0.84-0.77 1.838-1.36 2.959-2.08 4.037l18.6 0.053 2.52-4.678-1.5 0.316c-2.9 0.594-4.18 0.75-6.06 0.744l-2.97-0.009 3.6-10.196 0.96 0.002c0.37 0.002 0.69 0.042 1.06 0.043 1.33 0.125 2.46 0.327 3.25 0.569l0.38 0.123 0.43 0.201 1.71-4.838-0.63 0.197-0.62 0.16c-0.35 0.079-0.69 0.117-1 0.198-1.39 0.274-2.6 0.391-3.51 0.388l-0.96-0.002 3.16-9.039 2.5 0.008c0.37 0.001 0.77 0.003 1.13 0.043 2.58 0.167 3.88 0.412 5.15 0.855l0.94-3.878-17.91-0.053zm40.42 0.113l-1.94 3.916c1.62-0.357 2.95-0.552 5.24-0.746 1.62-0.157 2.09-0.156 2.5-0.154l1.03 0.004-6.9 19.474c-0.12 0.361-0.23 0.72-0.39 1.08-0.89 2.161-1.68 3.718-2.68 5.237l10.33 0.029c0.08-1.521 0.39-3.041 1.06-5.24 0.08-0.361 0.2-0.72 0.36-1.08l6.86-19.475 1.02 0.002c0.41 0.001 0.89 0.003 2.4 0.168 2.19 0.204 3.29 0.409 4.68 0.775l0.84-3.922-24.41-0.068zm25.24 0.072c-0.09 1.24-0.32 2.402-0.9 4.202-0.1 0.278-0.21 0.597-0.32 0.918l-6.63 18.792c-0.1 0.282-0.2 0.562-0.3 0.842-0.78 1.84-1.36 2.961-2.08 4.037l18.6 0.053 2.52-4.678-1.51 0.319c-2.89 0.59-4.18 0.748-6.05 0.742l-2.98-0.01 3.61-10.195 0.96 0.002c0.36 0.001 0.68 0.043 1.05 0.043 1.33 0.124 2.47 0.327 3.26 0.57l0.37 0.121 0.44 0.203 1.71-4.84-0.64 0.198-0.62 0.16c-0.35 0.079-0.69 0.117-1 0.195-1.39 0.276-2.59 0.394-3.51 0.393l-0.95-0.004 3.16-9.037 2.5 0.006c0.36 0 0.77 0.001 1.13 0.043 2.57 0.167 3.88 0.409 5.14 0.855l0.94-3.879-17.9-0.051zm29.04 2.836c2.99-0.098 4.24 1.801 2.74 5.1-1.09 2.399-2.99 3.674-4.03 4.191-1.03 0.518-3.01 0.793-3.01 0.793l3.19-9.959s0.35-0.079 0.49-0.078c0.22-0.024 0.42-0.04 0.62-0.047zm-185.23 0.399c1.73 0.836 3.523 1.351 5.636 1.093l-0.576 1.417c0.608 0.867 2.628 0.642 2.928 1.441 0.077 0.21-0.74 1.613-0.953 1.998-1.519 0.196-3.472-0.576-5.01 0.326-2.113 0.322-2.551-0.993-4.586 0.729-1.584 1.119-1.922 3.614-3.781 3.357-0.696-0.386 0-1.096 0-1.096 2.691-2.316 7.879-4.697 6.342-9.265zm-4.94 33.681c-2.14 0-3.869 1.141-4.633 3.371-0.357 1.044-0.306 1.771-0.007 2.372 0.313 0.601 0.881 1.06 1.564 1.552 0.57 0.442 1.26 0.822 0.918 1.819-0.206 0.6-0.689 1.185-1.334 1.185-0.882 0-0.896-0.599-0.664-1.281l0.287-0.838h-2.5663l-0.4336 1.266c-0.5362 1.565 0.0471 2.988 2.5819 2.988 2.299 0 3.992-1.265 4.772-3.543 0.493-1.44 0.385-2.23-0.055-2.83-0.44-0.602-1.195-1.013-2.006-1.678-0.422-0.38-0.661-0.743-0.338-1.455 0.242-0.522 0.68-0.838 1.231-0.791 0.892 0.063 0.534 1.013 0.328 1.709h2.551c0.889-2.23 0.213-3.846-2.196-3.846zm177.41 0c-2.15 0-3.87 1.141-4.64 3.371-0.35 1.044-0.3 1.771 0 2.372 0.31 0.601 0.87 1.06 1.56 1.552 0.57 0.442 1.26 0.822 0.92 1.819-0.21 0.6-0.69 1.185-1.34 1.185-0.88 0-0.89-0.599-0.66-1.281l0.29-0.838h-2.57l-0.43 1.266c-0.54 1.565 0.05 2.988 2.58 2.988 2.3 0 3.99-1.265 4.77-3.543 0.49-1.44 0.39-2.23-0.05-2.83-0.44-0.602-1.2-1.013-2.01-1.678-0.42-0.38-0.66-0.743-0.34-1.455 0.24-0.522 0.68-0.838 1.23-0.791 0.9 0.063 0.54 1.013 0.33 1.709h2.55c0.89-2.23 0.22-3.846-2.19-3.846zm-149.18 0.286l-6.643 11.865h2.787l1.121-2.311h2.174l-0.398 2.311h2.804l1.493-11.865h-3.338zm28.377 0l-4.059 11.865h6.533l0.813-2.375h-3.764l0.877-2.561h3.465l0.812-2.373h-3.465l0.749-2.183h3.572l0.812-2.373h-6.345zm42.442 0l-4.06 11.865h2.63l2.01-6.613 0.04-0.032-0.12 6.645h2.84l4.06-11.865h-2.63l-2 6.628h-0.05l0.13-6.628h-2.85zm16.19 0l-4.06 11.865h2.77l4.06-11.865h-2.77zm11.05 0l-1.49 11.865h3.26l6.64-11.865h-2.77l-4.27 8.322h-0.03l1.43-8.322h-2.77zm16.61 0l-4.06 11.865h6.54l0.81-2.375h-3.76l0.87-2.561h3.47l0.81-2.373h-3.47l0.75-2.183h3.58l0.81-2.373h-6.35zm46.5 0l-4.06 11.865h2.78l4.05-11.865h-2.77zm-177.86 0.002l-0.812 2.373h2.174l-3.25 9.49h2.771l3.248-9.49h2.236l0.811-2.373h-7.178zm29.512 0l-0.813 2.373h2.174l-3.248 9.49h2.77l3.248-9.49h2.236l0.811-2.373h-7.178zm41.918 0l-2.938 8.587c-0.833 2.437 0.152 3.561 2.497 3.561 2.832 0 4.262-1.55 4.952-3.561l2.94-8.587h-2.77l-3.04 8.873c-0.174 0.506-0.612 1.138-1.336 1.138-0.787 0-0.793-0.491-0.598-1.06l3.064-8.951h-2.771zm75.051 0l-4.06 11.861h2.77l1.6-4.682h0.92c0.63 0.049 0.68 0.522 0.51 1.25s-0.56 1.708-0.88 2.752c-0.06 0.237-0.07 0.458-0.07 0.68h3.02l0.06-0.158c-0.09-0.11-0.12-0.253-0.13-0.411 0.1-0.759 0.78-2.8 1.03-3.748 0.23-0.822-0.13-1.36-0.84-1.535l0.01-0.031c1.35-0.539 1.95-1.44 2.39-2.705 0.8-2.358-0.02-3.273-2.28-3.273h-4.05zm42.61 0l-0.81 2.373h2.17l-3.24 9.49h2.77l3.24-9.49h2.24l0.81-2.373h-7.18zm15.01 0l0.43 6.878-1.7 4.983h2.77l1.7-4.983 5.21-6.878h-2.77l-2.75 3.874h-0.03l-0.06-3.874h-2.8zm-55.58 2.134c1.36-0.031 1.93 0.031 1.44 1.44-0.25 0.727-0.69 1.47-1.49 1.47h-0.95l1-2.91zm-130.93 0.016h0.033l-1.047 5.314h-1.607l2.621-5.314z" transform="matrix(.8 0 0 -.8 386 91.142)"/><path d="m36.199 2.4238c-1.137-0.0161-2.337 0.1297-3.426 0.0332-10.247 1.0309-19.599 0.6439-29.656 0.2578 0.5764 2.3162 1.7953 4.3103 3.6525 6.0489 2.1146 1.7373 4.8035 2.3153 7.5585 1.9923 0 0 21.453-7.322 20.432-6.9474h1.73c-1.474 5.8562 6.103 8.6184 5.526 14.345 0.898 0.259 1.971 0.452 2.828 0.989 0.576-3.54-2.656-5.875-3.615-8.836-0.897-2.2522 0.063-5.2124-1.987-6.9496-0.833-0.7399-1.906-0.9175-3.043-0.9336zm-1.568 2.7989c-7.942 2.5763-15.755 5.5343-23.697 8.0453l-1.6664 0.9c0.7048 1.158 1.3444 2.445 2.6254 3.217 1.857 1.48 4.805 1.287 6.726 0.195l16.461-10.361c0.064-0.7723-0.065-1.4159-0.449-1.9963zm0.898 3.4121l-20.881 12.935c0.761 1.534 2.243 1.815 3.268 2.524 1.793 0.386 3.266 0.05 4.738-0.981 4.804-4.053 9.864-8.301 14.09-13.127-0.32-0.5144-0.447-1.3512-1.215-1.3512zm1.985 2.7652c-5.508 5.535-11.401 10.298-16.717 16.024 1.154 0.963 2.561 1.48 4.162 1.416 3.587-0.706 5.688-4.948 7.801-7.586l-0.883-0.008c0.257-1.287 0.512-2.572 1.666-3.539 0.739-0.413 1.123-0.673 2.309-0.664 1.395-1.049 2.186-3.087 3.07-4.42-0.32-0.45-0.768-1.157-1.408-1.223zm2.466 2.795c-0.92 0.927-1.566 2.172-2.275 3.192 0.705 0.383 1.346 0.836 2.113 1.093 0.898-0.193 1.09-0.773 0.961-1.673l-0.799-2.612zm-4.318 4.065c-0.147 0.013-0.297 0.043-0.453 0.092-0.769 0.128-1.772 0.903-1.656 1.654 2.435 0.45 4.537 2.657 6.586 4.072-1.73 0.774-3.202 2.188-5.059 2.574v0.514c1.857 1.415 3.522-0.707 5.379-0.643 0.705 0.322 1.217 1.159 0.898 1.866-0.449-0.516-0.898-0.965-1.666-0.772-1.089 0.193-2.305 1.221-2.177 2.317l1.281 0.128c-0.448 0.324-0.512 0.774-0.768 1.094-0.191 0.708-0.384 1.865 0.256 2.446 0.576-0.258 1.088-1.609 1.856-1.223-0.321 1.351 0 2.769 0.32 4.055 1.41-0.322 0.961-2.447 2.178-2.639 0.064 0.836 0.385 1.737 0.898 2.316l0.897-1.414c0.576 0.578 1.281 1.156 1.408 1.864 0.705-1.03 0.064-2.188-0.447-3.088-1.346-1.866 0.32-3.733 1.216-5.276-0.704-1.545-1.408-4.055 0-5.535-1.601-1.288-3.139-3.345-5.38-3.217-2.163 2.113-3.367-1.377-5.567-1.185zm7.424 3.179c0.777 0.559 1.298 1.038 1.998 1.612 0.108 0.069 0.213 0.15 0.309 0.256-0.12-0.095-0.201-0.168-0.309-0.256-1.411-0.898-3.759 1.041-4.176-1.291 0.704 0.259 1.602 0.131 2.178-0.321zm-8.648 0.131l-7.333 9.391c0.514 0.385 1.506 0.582 2.147 0.519 1.152-1.802 3.201-3.091 5.379-3.091-0.449-0.964-1.73-1.801-1.217-2.959h1.537c0.768-0.515 1.666-1.352 1.537-2.446-0.512-0.579-1.217-1.222-2.05-1.414zm15.822 0.787c-0.817 0.046-1.612 0.485-2.242 0.95-1.026 0.836-1.345 2.123-0.961 3.345 2.689 6.693 10.633 11.198 16.334 15.766-1.795-5.79-9.737-7.529-10.953-13.707-0.641-1.995 0.832-4.632-0.897-6.049-0.304-0.177-0.617-0.271-0.93-0.299-0.117-0.01-0.235-0.012-0.351-0.006zm-33.496 5.317c-0.23-0.021-0.465-0.019-0.702 0.002-0.944 0.083-1.904 0.473-2.576 0.924-1.458 1.098-1.432 2.787-1.371 4.619 0.762-0.215 1.492-0.808 1.908-1.584 0.251-0.295 0.289-0.587 0.233-0.86-0.029-0.14-0.079-0.279-0.141-0.418-0.063-0.138-0.136-0.274-0.197-0.404-0.269-0.563-0.358-1.063 0.836-1.338 1.341-0.321 3.155-0.408 3.834 1.315 0.066 2.08-1.19 3.249-2.668 4.283-0.736 0.515-1.535 0.998-2.27 1.555-0.733 0.551-1.389 1.154-1.861 1.927-0.439 1.513 0.007 3.12 1.365 3.864 1.943 0.96 2.793-0.085 3.639-1.344 0.213-0.316 0.423-0.643 0.646-0.949 0.225-0.308 0.467-0.596 0.743-0.834 0.542-0.472 1.21-0.738 2.125-0.561 0.374-0.506 0.732-1.063 0.545-1.555-1.823-0.65-2.72 0.409-3.586 1.678-0.219 0.319-0.432 0.65-0.657 0.963-0.224 0.315-0.459 0.616-0.722 0.873-0.528 0.521-1.164 0.87-2.055 0.807-0.845-0.458-1.673-1.479-1.123-2.584 0.518-0.619 1.119-1.144 1.738-1.617 0.615-0.471 1.256-0.899 1.873-1.346 1.23-0.891 2.348-1.841 2.977-3.326 0.483-1.191 0.183-2.37-0.748-3.178-0.46-0.578-1.097-0.848-1.785-0.912zm19.404 1.937c-1.408 0.322-3.137-0.062-4.291 0.903-2.882 3.604-4.932 7.529-6.66 11.584 1.986 1.737 1.344 4.566 2.306 6.689-0.257 0.772-1.184 0.332-1.982 1.176-0.385 0.322-0.324 1.143 0.188 1.4 0.769 0.837 1.601-0.131 2.304-0.451 0.769 0.579-0.64 1.158 0 1.865 1.09 1.096 2.051-0.641 2.563-1.22 0.833 0.384-0.256 1.028 0.32 1.543h0.32c1.024-0.452 1.281-1.995 0.897-3.09-3.46-2.445-0.446-6.628-1.344-9.91 1.088-0.835 2.24-2.958 3.649-2.315-0.128 1.03-1.6 1.927-2.305 2.764 0.127 0.773-0.257 1.739 0.32 2.318 3.586-0.836 8.071-0.256 10.186-3.988l-0.512-2.188c-0.834 0.771-1.86 1.543-2.885 1.414-0.063-0.836 0.193-1.864-0.447-2.443-0.385 0.256-0.705 0.772-1.09 0.9 0.064-1.674-1.345-2.766-1.217-4.503-0.512 0-1.025 0.126-1.41-0.131 0.513-0.708 1.347-1.48 1.09-2.317zm11.08 0.129c-0.832 0.515-1.664 1.482-1.088 2.51 0.768-0.192 1.602-0.259 2.307-0.645 0.063-0.77-0.578-1.479-1.219-1.865zm2.336 2.977c-1.315 0.094-2.114 0.177-2.977 0.629 0.193 1.158 0.899 2.314 0.643 3.537 1.408-0.579 3.139-1.093 3.971-2.637-0.787-0.853-0.948-1.383-1.637-1.529zm2.725 2.75l-5.829 3.281c-0.703 1.546-1.152 3.349-1.408 4.893 3.074-1.417 5.891-3.411 8.774-5.407 0.599-0.607 0.748-1.014 0.449-1.22-0.512-0.581-1.282-1.161-1.986-1.547zm-26.987 0.25c-5.906-0.294-3.121 9.649-9.906 9.467-1.377 2.412-4.076 4.391-3.09 7.361 0.389 0.929 0.912 0.619 1.68 0.555l0.193-1.418c0.832-0.063 1.024 0.967 1.537 1.418 1.153-0.192-0.382-1.16 0.258-1.739 1.088 0.193 1.152 1.674 2.176 1.739 0.257-0.258 0.129-0.644 0.129-0.965-0.385-1.223-1.922-1.931-3.074-2.446 1.088-5.275 7.748-1.029 9.543-6.048-2.051-2.704 1.218-5.149 1.857-7.723-0.476-0.117-0.909-0.182-1.303-0.201zm19.301 1.297c-1.218 1.029-0.639 3.345-2.496 4.31-3.138 0.581-1.922 3.989-3.076 5.92 1.41 1.93 2.306 4.118 2.818 6.434 0.385 0 0.899 0.13 1.219-0.129 0.191-0.513-0.386-0.708-0.195-1.221 0.962-0.709 1.347 1.221 2.179 1.35l0.127-1.672c1.153 0.064 1.153 2.059 2.178 1.543-0.064-0.322 0.127-0.835-0.127-1.092-0.449-1.351-2.049-1.802-3.395-1.996-3.202-4.246 1.216-8.622 1.088-12.998l-0.32-0.449zm10.889 1.091c-3.266 3.347-7.43 5.277-11.209 7.723l-0.321 0.645c0.449 1.803 0.706 4.118 3.268 3.859 3.459-3.539 8.709-5.983 10.439-10.553-0.257-1.031-1.408-1.286-2.177-1.674zm3.265 2.317c-2.177 4.505-6.98 7.078-10.502 10.683v0.899c0.704 2.125 3.075 1.996 4.932 2.189 3.203-3.798 7.557-7.078 7.557-12.226-0.641-0.515-1.026-1.416-1.987-1.545zm3.205 2.445c-1.089 6.049-7.238 9.975-9.992 15.317 2.049 0.13 3.969 0.449 6.147 0.32 2.37-3.667 5.318-7.333 5.83-11.902-0.192-1.416-0.641-2.897-1.985-3.735zm-29.105 1.151c-0.259 0.011-0.547 0.13-0.871 0.396 0.063 1.737-1.025 3.861 0.896 4.824 0.897 0.644-0.128 2.896 1.729 2.317v-1.223c0.833-0.193 0.899 0.774 1.348 1.223 0.318-0.065 0.638 0.129 0.767-0.192 0-1.159-1.282-1.739-2.115-2.125-0.449-0.963 1.09-1.478 0.578-2.636-0.625-0.68-1.208-2.635-2.332-2.584z" transform="matrix(.8 0 0 -.8 386 91.142)" fill="#ffc700"/></g></g></svg>
