<svg xmlns="http://www.w3.org/2000/svg" version="1.0" viewBox="0 0 1920 1080"><path d="M1432.5 387.4c-3.9 1.8-8 6.2-9.9 10.8-1.4 3.3-1.6 15.8-1.6 105.8 0 110.6-.2 105.9 5.3 111.8 8.5 9.1 24.6 7 30.2-3.9l1.5-2.8 8.5 4.4c30 15.3 66.7 9.9 90.8-13.3 23.9-23 30.8-60 16.7-90.1-10.5-22.4-32.6-39.6-56.4-44-8.6-1.6-23.6-1.3-31.8.5-7.5 1.7-19.3 6.3-23 8.8-1.2.9-2.6 1.6-3 1.6-.5 0-.8-16.5-.8-36.8 0-22.5-.4-38.2-1.1-40.5-1.3-4.7-6.3-10.6-10.6-12.3-4.1-1.8-10.9-1.7-14.8 0zm83.4 117.3c11 3.7 21.1 13.5 25.2 24.4 9.1 23.9-6.1 50.2-31.8 54.8-17.1 3.1-35.6-6.5-43.6-22.8-3-6.2-3.2-7.2-3.2-17.6 0-9.9.3-11.6 2.7-16.8 5.3-11.3 17.7-21.1 29.8-23.7 5.6-1.1 14.8-.4 20.9 1.7zM1610.9 388c-4.7 2.5-8.6 7.1-9.9 11.8-1.4 5.3-1.4 203.3.1 208.7 2.5 9.1 13.5 15 23 12.5 4.2-1.2 10.3-6.2 12.6-10.4 1-1.9 1.1-1.9 4.1.3 12.9 9.1 39 13.5 57.3 9.7 23.2-5 43.8-21 53.9-42.1 6.4-13.3 8.3-21.3 8.3-35 0-14-2-22.1-8.4-35.5-4.5-9.2-6.2-11.5-14.3-19.5-17.6-17.4-34.6-24.1-59.1-23.3-10.2.4-13.4.9-21.5 3.7-5.2 1.8-11.4 4.3-13.7 5.7-2.3 1.3-4.4 2.4-4.7 2.4-.3 0-.6-17-.6-37.8 0-34.6-.2-38-1.9-41.7-4.7-10.2-15.9-14.4-25.2-9.5zm85 117c28.2 10 36 47.1 14.1 68-20.1 19.2-52.5 13.4-65.1-11.8-3.2-6.4-3.4-7.2-3.4-17.7 0-10.4.2-11.4 3.2-17.6 5.5-11.2 17.2-20.3 29.5-22.9 5.7-1.2 15-.3 21.7 2zM1096.5 388.3c-5.7 2.3-7.4 3.8-10.2 8.5l-2.8 4.7v103c0 56.6.3 104.2.8 105.7 1 3.6 6.2 9.5 10.1 11.5 3.7 1.9 12.2 2.1 15.6.3 3.5-1.8 7.9-6 9.6-9.2 1.1-2.2 1.4-9.7 1.4-39.1 0-36.5.6-45.1 3.7-51.2 2.9-5.6 7.1-10 12.9-13.5 5.6-3.4 6.2-3.5 15.9-3.5 7.9 0 10.7.4 13.5 1.9 7.2 3.8 11.9 8.6 15.2 15.4l3.3 6.7.5 41c.3 28.5.9 41.6 1.7 43 1.5 2.6 6.2 6.9 9.1 8.5 3.4 1.7 12.3 1.5 15.9-.3 4.3-2.3 9.1-8.1 9.8-11.9.3-1.8.5-22.2.3-45.3l-.3-42-2.8-8c-8.2-23.3-28.3-41.2-51.7-46.1-11-2.3-26.2-1.5-36 2-4.1 1.5-8.3 2.9-9.2 3.3-1.7.5-1.8-1.7-1.8-36.1 0-34.8-.1-36.9-2-40.6-3.8-7.5-14.9-11.8-22.5-8.7zM856.5 401.9c-14.4 6.5-15.2 28.1-1.2 35.3 12 6.2 26.5-1.1 28.3-14.2 2.1-15.9-12.9-27.6-27.1-21.1zM259.5 411.6c-53 9.6-93.7 49.3-105.2 102.7-2.5 11.5-2.5 39.9 0 51.4 7.6 35.3 28 65 57.7 84.2 36.5 23.6 85.2 26.8 125.6 8.1l8-3.7 5.8 2.9c27.9 14.1 66.9 16.8 97.7 6.7 33.1-10.8 59.8-33.5 75.7-64.6 25.6-50.2 16-111.4-23.8-151.4-24.7-24.8-56.5-37.9-91.9-37.9-37.1 0-69.8 13.9-94.9 40.4-23.5 24.9-35.3 54.9-35.3 89.6 0 36.7 12.4 66.6 38.7 92.7l11.3 11.2-5.6 2.1c-30.8 11.5-61.8 10.2-90.9-4-61.3-29.7-82.7-107.1-45.4-164 25.9-39.3 72-58.6 118.3-49.3l7.7 1.5 6.8-5.7c3.7-3.2 6.8-6.1 7-6.5.4-1-13.5-4.9-23.5-6.6-11.1-1.8-33.3-1.7-43.8.2zm163 15.5c75 9.2 120.5 88.5 90.7 157.8-19.7 45.5-67.8 73.8-116.2 68.2-43-5.1-79-32.7-94.4-72.6-5.4-14.1-7.1-23.8-7.1-40.5s1.7-26.4 7.1-40.5c7.6-19.6 21-37.5 37.2-49.8 5-3.8 5.4-3.9 7.9-2.6 1.5.8 7.2 5.7 12.6 10.8 45.9 44 47.7 115.1 4 160.2l-7.4 7.7 8.8 3.2 8.8 3.2 5.3-5.9c10.4-11.3 20.4-28.3 25.7-43.7 8.8-25.8 9-58.3.5-83.6-6.6-19.7-16.9-36-32.6-51.7l-11.3-11.2 5.3-2c19.2-7.2 36.1-9.3 55.1-7zM857.5 465.5c-5 1.8-10 7.1-11.4 12.2-.7 2.5-1.1 25-1.1 66.1 0 68-.1 66.3 5.8 72.5 4 4.2 8 6 13.7 6.1 7.4.1 13.5-3.7 16.9-10.6l2.6-5.2v-62.5c0-40-.4-63.9-1-66.3-3-10.6-14.5-16.2-25.5-12.3zM618.5 468.4c-3.8 1.7-9 7.2-10.4 10.9-.7 1.9-1.1 23.8-1.1 66 0 59.2.2 63.5 1.9 67.2 2.2 4.8 4.4 6.9 9.4 9 9.7 4 21.1-.5 24.6-9.8.7-1.8 1.1-17.5 1.1-44.5s.4-43.1 1.1-45.7c4.5-16.3 27.2-22 40.7-10.1 7.2 6.3 7.2 6 7.2 53.8 0 27.7.4 43.7 1.1 45.5 2.5 6.8 9.7 11.6 17.4 11.6 8 0 13.8-4 17-11.5 1.3-3.2 1.5-10.1 1.5-45.8 0-35.8.2-42.6 1.6-45.8 7.4-17.9 36-19 44.3-1.8 2 4.1 2.1 5.9 2.1 46.2 0 27.5.4 43.3 1.1 45.9 1.5 5.3 7.4 10.9 13.2 12.3 10.9 2.8 20.3-3.1 22.7-14 .8-3.8 1.1-17.9.8-48.3-.4-38-.6-43.6-2.2-48.5-6.8-20.6-23.2-36.2-43.7-41.5-8.1-2.1-23.3-2.1-31.4 0-7.6 2-16.9 6.5-22.5 10.9l-4.4 3.4-6.2-4.4c-6.7-4.8-15.3-8.7-23.1-10.5-11.1-2.5-29.3-.7-38.7 3.8-3.2 1.5-3.4 1.5-5.6-.7-4.7-4.7-13.4-6.3-19.5-3.6zM1035.5 468.5c-3 1.1-9.6 7.2-27.5 25.6l-23.5 24.1-22.4-23.6c-17.9-18.8-23.4-23.9-26.8-25.2-8.3-3.2-17.1-.2-22.4 7.4-2.9 4.3-3.2 13-.7 17.7.9 1.6 11.8 13.5 24.3 26.4 12.4 12.9 22.4 23.8 22.3 24.2-.2.3-10.7 11.4-23.4 24.6-20.7 21.4-23.2 24.4-24.3 28.7-2.8 11.3 5.7 22.6 17.2 22.6 7.6 0 10.3-2.1 33.7-26.6l22.5-23.5 24 24.5c21 21.5 24.5 24.6 28.3 25.6 13.8 3.5 26.1-9.4 22.1-23.1-1.1-3.5-5.5-8.6-24.4-28.1-12.6-13.1-23.2-24.3-23.3-24.8-.2-.6 9.7-11.4 22-24.1 12.2-12.6 23.3-24.8 24.6-27.1 7.7-14.2-7-31-22.3-25.3zM1260.4 468.9c-4.7 2.2-8 5.9-9.5 11-.7 2.4-.9 16.4-.6 42.1.4 43 .5 43.5 7.8 58.7 4.8 10.1 12.6 19.9 21.3 26.9 36.1 29 88.5 16.4 110-26.3 1.4-2.8 3.8-9.1 5.3-14 2.6-8.7 2.7-9.2 3.1-44.4.2-24.2 0-36.9-.7-39.7-4-14.6-21.4-17.8-31.9-5.7-1.8 1.9-3.4 4.5-3.7 5.8-.2 1.2-.6 17.7-.8 36.7-.2 33-.3 34.7-2.5 40.1-5.1 12.7-13 20.4-24.5 24.1-16.4 5.2-34.5-4-43-21.9l-3.2-6.8-.5-37.6-.5-37.6-2.7-4c-3-4.6-11.3-9.3-16.2-9.3-1.7 0-4.9.9-7.2 1.9zM1215.4 662.3c-.2.7-.3 10.7-.2 22.2l.3 21 7.5.3c4.1.2 9.5 0 11.9-.3 11.6-1.7 14.8-16.4 4.9-22.5-2.7-1.6-2.9-2-1.5-2.6 2.1-.8 4.7-5.5 4.7-8.4 0-3.9-2.8-7.7-7-9.4-5-2-19.8-2.3-20.6-.3zm20.6 5.7c2.5 2.5 2.6 6.1.2 9-1.5 1.8-3.1 2.3-9 2.8l-7.2.5V666h7c5.7 0 7.4.4 9 2zm2.1 18.9c5.1 5.2 3.2 12.1-3.9 14.1-2 .5-6.1 1-8.9 1h-5.3v-18h7.6c7 0 7.8.2 10.5 2.9zM1256.4 662.5c-.3.8 2.6 6 7 12.4l7.6 10.9V696c0 9.9 0 10.1 2.3 9.8 2.1-.3 2.2-.8 2.5-10.6l.3-10.4 6.9-9.9c3.9-5.5 7-10.9 7-12 0-4.1-3.5-1.3-9.6 7.6-3.4 4.9-6.5 9-7 9.2-.5.1-3.8-4-7.2-9.2-6.1-9.1-8.6-11.2-9.8-8zM1331.1 662.4c-.8.9-1.1 7.7-.9 22.2l.3 20.9h10c8.6 0 10.6-.4 14-2.3 15.8-9 13.3-35.6-3.8-40.7-6.5-1.9-18-2-19.6-.1zm20.5 5.2c5.4 2.6 7.9 7.6 7.9 15.9 0 12.3-5.1 17.6-17.3 17.8l-6.7.2-.3-17.8-.2-17.7h6.6c4 0 7.9.6 10 1.6zM1380.7 661.7c-.4.3-.7 10.5-.7 22.5v21.9l2.3-.3c2-.3 2.2-.9 2.5-8.6l.3-8.2h4.4c4.3 0 4.5.1 11.1 8.5 6.3 7.9 9.1 9.9 10.1 6.9.2-.6-2.2-4.4-5.3-8.3-3.1-4-5.5-7.4-5.3-7.5.2-.2 1.9-1.1 3.6-2 4.1-2.1 6.3-6.2 6.3-12 0-3.6-.6-5.2-3.1-8-1.7-2-4.7-4-6.7-4.6-4.1-1.1-18.5-1.4-19.5-.3zm21.9 6.8c2.1 2.1 2.5 3.3 2.2 7.2-.4 6.4-3.5 8.6-12.8 9.1l-7 .4V666h7.5c6.8 0 7.9.3 10.1 2.5zM1426.5 662.2c-.3.8-.4 10.8-.3 22.3l.3 21h14c11.8 0 14-.2 14-1.5 0-1.2-2.1-1.6-11.7-1.8l-11.8-.3V686h7.3c7.8 0 10.3-.9 9.4-3.4-.5-1.3-2.2-1.6-8.7-1.6h-8v-14.9l11.3-.3c10.4-.3 11.2-.4 11.2-2.3s-.8-2-13.3-2.3c-10.2-.2-13.4 0-13.7 1zM1484.2 662.2c-2.1 2.7-18.3 41.2-17.8 42.5 1.2 3 3.8 1.1 6.4-4.7l2.7-6h21.2l2.6 6c2 4.5 3.1 6 4.7 6 2.8 0 2.6-2.5-.9-10.1-1.6-3.5-5.7-12.8-9.1-20.7-6-13.6-7.5-15.7-9.8-13zm2.5 27.6c-4.4.2-8.2.1-8.5-.2-.2-.3.6-2.9 1.8-5.8 1.3-2.9 3.1-7.3 4.2-9.8l2-4.5 4.2 10 4.3 10-8 .3zM1521.5 662.2c-.3.7-.4 10.8-.3 22.3.3 20.2.4 21 2.3 21s2-.8 2.5-16l.5-16 7.8 14.5c8.5 15.7 9.6 17.3 11.4 16.2.6-.4 4.8-7.5 9.2-15.7l8.1-15v14.7c0 15.9.3 17.8 3 17.8 1 0 2.1-.7 2.4-1.6 1-2.6.6-40.8-.4-42.4-1.7-2.8-4.1.2-13.4 17.2-5 9.1-9.3 16.9-9.6 17.1-.3.3-4.9-7.4-10.2-17.1-9-16.5-12-20.4-13.3-17zM1596.3 663.1c-8.6 4.2-12.7 11.7-12.1 22 .4 7.9 3.5 13.4 10 17.6 3.6 2.5 5.1 2.8 11.9 2.8 6.3 0 8.3-.4 10.5-2.1 1.5-1.1 3-2.6 3.2-3.2.6-2-2.9-2.6-5.7-1-8.7 5-19 1.6-23.2-7.6-5.5-12.1 2.5-26 15-26 3.1 0 5.9.8 8.3 2.2 3.1 1.9 3.7 2 4.8.7 1-1.2 1-1.8-.1-3.2-3.9-4.6-15.5-5.7-22.6-2.2zM1645 675.2c-3.4 7.9-7.5 17.2-9.1 20.7-3.5 7.6-3.7 10.1-.9 10.1 1.6 0 2.7-1.5 4.7-6l2.6-6h21.2l2.7 6c2.6 5.8 5.2 7.7 6.4 4.7.5-1.3-15.7-39.7-17.9-42.5-2.1-2.7-3.7-.6-9.7 13zm12.5 5.1c2.1 4.8 3.5 9 3.3 9.3-.3.3-4.1.4-8.5.2l-8-.3 4.1-9.7c2.3-5.3 4.4-9.4 4.7-9 .4.4 2.4 4.7 4.4 9.5zM1692.2 663c-5.1 3.1-6.8 10.2-3.6 14.9.9 1.3 5.9 4.3 11 6.7 9 4.2 11.4 6.3 11.4 10.2 0 2.6-3.9 6-7.8 6.8-4.6.9-7.9-.2-11.9-4.2-2.8-2.8-3.7-3.3-4.9-2.3-1.2 1-1.2 1.6.4 4.2 2.6 4.5 7.4 7 13.6 7 5.9 0 10.5-2 13.6-6 1.8-2.2 2.1-3.7 1.7-7.3-.6-5.4-3.3-7.8-12.7-11.6-10.6-4.2-13.3-8.3-9.1-13.5 2.9-3.6 9.9-3.4 13.8.3 4.8 4.6 8.3 3.1 4.7-2-3.7-5.3-14-7-20.2-3.2zM1726.3 662.6c-.9 2.4 1.5 3.4 8 3.4h5.7v40.1l2.3-.3c2.2-.3 2.2-.4 2.5-20l.2-19.7 6.3-.3c5.4-.3 6.2-.5 6.2-2.3 0-1.9-.8-2-15.3-2.3-13.3-.2-15.3 0-15.9 1.4z"/></svg>