<?xml version="1.0" ?>
<svg xmlns="http://www.w3.org/2000/svg" viewBox="0 0 90 90">
	<defs>
		<linearGradient x1="50%" y1="0%" x2="50%" y2="100%" id="a">
			<stop stop-color="#0342D7" offset="0%"/>
			<stop stop-color="#00B1DB" offset="100%"/>
		</linearGradient>
	</defs>
	<g fill="none" fill-rule="evenodd">
		<path fill="url(#a)" d="M0 0h90v90H0z"/>
		<path d="M67.5 29a6.5 6.5 0 0 1 6.5 6.5v26a6.5 6.5 0 1 1-13 0v-26a6.5 6.5 0 0 1 6.5-6.5Zm-22 13a6.5 6.5 0 0 1 6.5 6.5v13a6.5 6.5 0 1 1-13 0v-13a6.5 6.5 0 0 1 6.5-6.5Zm-23-19a6.5 6.5 0 0 1 6.5 6.5v31a6.5 6.5 0 1 1-13 0v-31a6.5 6.5 0 0 1 6.5-6.5Z" fill="#FFF"/>
	</g>
</svg>