<?xml version="1.0" ?>
<!-- Created with Inkscape (http://www.inkscape.org/) -->
<svg xmlns="http://www.w3.org/2000/svg" xmlns:sodipodi="http://sodipodi.sourceforge.net/DTD/sodipodi-0.dtd" xmlns:inkscape="http://www.inkscape.org/namespaces/inkscape" viewBox="0 0 82.396492 24.089628" inkscape:version="0.92.3 (2405546, 2018-03-11)" sodipodi:docname="mnemonic.svg">
	<sodipodi:namedview id="base" pagecolor="#ffffff" bordercolor="#666666" borderopacity="1.0" inkscape:pageopacity="0.0" inkscape:pageshadow="2" inkscape:zoom="3.959798" inkscape:cx="179.28574" inkscape:cy="5.8688056" inkscape:document-units="mm" inkscape:current-layer="layer1" showgrid="false" inkscape:window-width="3726" inkscape:window-height="2049" inkscape:window-x="114" inkscape:window-y="55" inkscape:window-maximized="1" fit-margin-top="0" fit-margin-left="0" fit-margin-right="0" fit-margin-bottom="0"/>
	<g inkscape:label="Layer 1" inkscape:groupmode="layer" id="layer1" transform="translate(167.25447,-135.7459)">
		<path style="fill:none;fill-rule:evenodd;stroke:#1cb200;stroke-width:0.26458332px;stroke-linecap:butt;stroke-linejoin:miter;stroke-opacity:1" d="M -121.94457,141.41555 L -114.19606,143.91964 L -101.53385,144.48661 L -93.12388,142.73847 L -100.35268,138.43899 L -101.53385,144.53385 L -107.43974,141.17932 L -100.44717,138.39174 L -113.39286,137.21057 L -107.43974,141.22656 L -113.95983,143.8724 L -113.34561,137.21057 L -121.94457,141.41555" id="path29988" inkscape:connector-curvature="0"/>
		<circle style="opacity:1;fill:#fd6500;fill-opacity:1;stroke:none;stroke-width:0.25;stroke-linecap:round;stroke-linejoin:round;stroke-miterlimit:4;stroke-dasharray:none;stroke-opacity:0.96862745" id="path29939" cx="-121.80282" cy="141.3683" r="1.4646577"/>
		<circle style="opacity:1;fill:#fd6500;fill-opacity:1;stroke:none;stroke-width:0.25;stroke-linecap:round;stroke-linejoin:round;stroke-miterlimit:4;stroke-dasharray:none;stroke-opacity:0.96862745" id="path29939-7" cx="-113.39285" cy="137.21056" r="1.4646577"/>
		<circle style="opacity:1;fill:#fd6500;fill-opacity:1;stroke:none;stroke-width:0.25;stroke-linecap:round;stroke-linejoin:round;stroke-miterlimit:4;stroke-dasharray:none;stroke-opacity:0.96862745" id="path29939-5" cx="-114.1488" cy="143.96687" r="1.4646577"/>
		<circle style="opacity:1;fill:#fd6500;fill-opacity:1;stroke:none;stroke-width:0.25;stroke-linecap:round;stroke-linejoin:round;stroke-miterlimit:4;stroke-dasharray:none;stroke-opacity:0.96862745" id="path29939-1" cx="-107.62872" cy="141.08482" r="1.4646577"/>
		<circle style="opacity:1;fill:#fd6500;fill-opacity:1;stroke:none;stroke-width:0.25;stroke-linecap:round;stroke-linejoin:round;stroke-miterlimit:4;stroke-dasharray:none;stroke-opacity:0.96862745" id="path29939-3" cx="-100.44717" cy="138.3445" r="1.4646577"/>
		<circle style="opacity:1;fill:#fd6500;fill-opacity:1;stroke:none;stroke-width:0.25;stroke-linecap:round;stroke-linejoin:round;stroke-miterlimit:4;stroke-dasharray:none;stroke-opacity:0.96862745" id="path29939-2" cx="-101.5811" cy="144.4866" r="1.4646577"/>
		<circle style="opacity:1;fill:#fd6500;fill-opacity:1;stroke:none;stroke-width:0.25;stroke-linecap:round;stroke-linejoin:round;stroke-miterlimit:4;stroke-dasharray:none;stroke-opacity:0.96862745" id="path29939-9" cx="-93.218376" cy="142.69122" r="1.4646577"/>
		<g aria-label="APACHE MNEMONIC" style="font-style:normal;font-variant:normal;font-weight:normal;font-stretch:normal;font-size:8.82066441px;line-height:125%;font-family:Montserrat;-inkscape-font-specification:Montserrat;letter-spacing:0px;word-spacing:0px;fill:#000000;fill-opacity:1;stroke:none;stroke-width:0.32075143px;stroke-linecap:butt;stroke-linejoin:miter;stroke-opacity:1" id="text29992">
			<path d="M -165.9133,145.15426 L -166.39229,146.24225 L -167.25447,146.24225 L -165.14692,141.4592 L -164.28474,141.4592 L -162.17719,146.24225 L -163.03937,146.24225 L -163.51836,145.15426 L -165.9133,145.15426 M -163.84681,144.40841 L -164.71583,142.43771 L -165.58485,144.40841 L -163.84681,144.40841" style="font-size:6.84269714px;stroke-width:0.32075143px" id="path831"/>
			<path d="M -159.86992,141.4592 Q -158.78193,141.4592 -158.28241,141.87661 Q -157.7829,142.29401 -157.7829,143.16303 Q -157.7829,144.03206 -158.2961,144.43578 Q -158.80246,144.8395 -159.85623,144.8395 L -160.70473,144.8395 L -160.70473,146.24225 L -161.51217,146.24225 L -161.51217,141.4592 L -159.86992,141.4592 M -159.76728,144.10733 Q -159.09669,144.10733 -158.8572,143.85415 Q -158.61086,143.59412 -158.61086,143.10145 Q -158.61086,142.60193 -158.91878,142.39665 Q -159.2267,142.19137 -159.8836,142.19137 L -160.70473,142.19137 L -160.70473,144.10733 L -159.76728,144.10733" style="font-size:6.84269714px;stroke-width:0.32075143px" id="path833"/>
			<path d="M -156.41104,145.15426 L -156.89003,146.24225 L -157.75221,146.24225 L -155.64466,141.4592 L -154.78248,141.4592 L -152.67493,146.24225 L -153.53711,146.24225 L -154.0161,145.15426 L -156.41104,145.15426 M -154.34455,144.40841 L -155.21357,142.43771 L -156.08259,144.40841 L -154.34455,144.40841" style="font-size:6.84269714px;stroke-width:0.32075143px" id="path835"/>
			<path d="M -149.82708,145.51008 Q -149.40968,145.51008 -149.1086,145.37323 Q -148.80752,145.22953 -148.47907,144.92161 L -147.95903,145.45534 Q -148.71857,146.29699 -149.80655,146.29699 Q -150.8877,146.29699 -151.60618,145.59904 Q -152.31782,144.90108 -152.31782,143.83362 Q -152.31782,142.76616 -151.5925,142.05452 Q -150.86033,141.34288 -149.75181,141.34288 Q -148.63645,141.34288 -147.8906,142.164 L -148.4038,142.7251 Q -148.74594,142.39665 -149.05386,142.26664 Q -149.35494,142.13663 -149.7655,142.13663 Q -150.49082,142.13663 -150.9835,142.60878 Q -151.47617,143.07408 -151.47617,143.80625 Q -151.47617,144.53157 -150.99034,145.02425 Q -150.49767,145.51008 -149.82708,145.51008" style="font-size:6.84269714px;stroke-width:0.32075143px" id="path837"/>
			<path d="M -146.97143,146.24225 L -146.97143,141.4592 L -146.164,141.4592 L -146.164,143.53254 L -143.78958,143.53254 L -143.78958,141.4592 L -142.98214,141.4592 L -142.98214,146.24225 L -143.78958,146.24225 L -143.78958,144.28524 L -146.164,144.28524 L -146.164,146.24225 L -146.97143,146.24225" style="font-size:6.84269714px;stroke-width:0.32075143px" id="path839"/>
			<path d="M -138.29254,141.4592 L -138.29254,142.21874 L -140.84487,142.21874 L -140.84487,143.48464 L -138.55256,143.48464 L -138.55256,144.20312 L -140.84487,144.20312 L -140.84487,145.48271 L -138.21043,145.48271 L -138.21043,146.24225 L -141.65231,146.24225 L -141.65231,141.4592 L -138.29254,141.4592" style="font-size:6.84269714px;stroke-width:0.32075143px" id="path841"/>
			<path d="M -155.769,159.57379 L -155.769,149.28922 Q -155.769,149.19682 -155.8614,149.19682 L -156.44645,149.19682 Q -156.47725,149.19682 -156.53885,149.3046 L -160.88054,156.20204 L -165.20683,149.3046 Q -165.26843,149.19682 -165.31461,149.19682 L -165.88426,149.19682 Q -165.99203,149.19682 -165.99203,149.3046 L -165.99203,159.58917 Q -165.99203,159.68157 -165.88426,159.68157 L -165.29921,159.68157 Q -165.20681,159.68157 -165.20681,159.57379 L -165.20681,150.76724 L -161.21923,157.09503 Q -161.17303,157.18743 -161.06527,157.18743 L -160.68037,157.18743 Q -160.5726,157.18743 -160.52641,157.09503 L -156.53883,150.76724 L -156.53883,159.58919 Q -156.53883,159.68159 -156.44643,159.68159 L -155.86138,159.68159 Q -155.76898,159.68159 -155.76898,159.57381 L -155.769,159.57379" style="font-style:normal;font-variant:normal;font-weight:300;font-stretch:normal;font-size:15.39606857px;font-family:HouschkaLight;-inkscape-font-specification:'HouschkaLight Light';stroke-width:0.32075143px" id="path843"/>
			<path d="M -144.20463,159.57379 L -144.20463,149.28922 Q -144.20463,149.19682 -144.3124,149.19682 L -144.86666,149.19682 Q -144.95906,149.19682 -144.95906,149.3046 L -144.95906,158.32669 L -152.48774,149.24301 Q -152.53394,149.19681 -152.58014,149.19681 L -153.1344,149.19681 Q -153.24217,149.19681 -153.24217,149.30459 L -153.24217,159.58916 Q -153.24217,159.68156 -153.1344,159.68156 L -152.58014,159.68156 Q -152.47237,159.68156 -152.47237,159.57378 L -152.48777,150.53629 L -144.94369,159.61997 Q -144.91289,159.65077 -144.89749,159.66617 Q -144.88209,159.66617 -144.86669,159.68157 L -144.31243,159.68157 Q -144.20466,159.68157 -144.20466,159.57379 L -144.20463,159.57379" style="font-style:normal;font-variant:normal;font-weight:300;font-stretch:normal;font-size:15.39606857px;font-family:HouschkaLight;-inkscape-font-specification:'HouschkaLight Light';stroke-width:0.32075143px" id="path845"/>
			<path d="M -134.38266,159.57379 L -134.38266,159.05033 Q -134.38266,158.95793 -134.47506,158.95793 L -140.86443,158.95793 L -140.86443,154.7856 L -135.29105,154.7856 Q -135.18328,154.7856 -135.18328,154.67782 L -135.18328,154.15436 Q -135.18328,154.06196 -135.29105,154.06196 L -140.86443,154.06196 L -140.86443,149.92042 L -134.47506,149.92042 Q -134.38266,149.92042 -134.38266,149.81265 L -134.38266,149.28918 Q -134.38266,149.19678 -134.47506,149.19678 L -141.55725,149.19678 Q -141.66502,149.19678 -141.66502,149.30456 L -141.66502,159.58913 Q -141.66502,159.68153 -141.55725,159.68153 L -134.47506,159.68153 Q -134.38266,159.68153 -134.38266,159.57375 L -134.38266,159.57379" style="font-style:normal;font-variant:normal;font-weight:300;font-stretch:normal;font-size:15.39606857px;font-family:HouschkaLight;-inkscape-font-specification:'HouschkaLight Light';stroke-width:0.32075143px" id="path847"/>
			<path d="M -122.54116,159.57379 L -122.54116,149.28922 Q -122.54116,149.19682 -122.63356,149.19682 L -123.21861,149.19682 Q -123.24941,149.19682 -123.31101,149.3046 L -127.6527,156.20204 L -131.979,149.3046 Q -132.0406,149.19682 -132.08677,149.19682 L -132.65643,149.19682 Q -132.7642,149.19682 -132.7642,149.3046 L -132.7642,159.58917 Q -132.7642,159.68157 -132.65643,159.68157 L -132.07138,159.68157 Q -131.97898,159.68157 -131.97898,159.57379 L -131.97898,150.76724 L -127.9914,157.09503 Q -127.9452,157.18743 -127.83744,157.18743 L -127.45254,157.18743 Q -127.34476,157.18743 -127.29857,157.09503 L -123.31099,150.76724 L -123.31099,159.58919 Q -123.31099,159.68159 -123.21859,159.68159 L -122.63354,159.68159 Q -122.54114,159.68159 -122.54114,159.57381 L -122.54116,159.57379" style="font-style:normal;font-variant:normal;font-weight:300;font-stretch:normal;font-size:15.39606857px;font-family:HouschkaLight;-inkscape-font-specification:'HouschkaLight Light';stroke-width:0.32075143px" id="path849"/>
			<path d="M -109.79129,154.4469 Q -109.79129,152.22987 -111.39248,150.62868 Q -112.97828,149.04288 -115.21071,149.04288 Q -117.47393,149.04288 -119.05972,150.62868 Q -120.64552,152.21447 -120.64552,154.4469 Q -120.64552,156.67933 -119.05972,158.24973 Q -117.47393,159.82013 -115.21071,159.82013 Q -112.99367,159.82013 -111.39248,158.24973 Q -109.79129,156.64854 -109.79129,154.4469 M -110.57649,154.4469 Q -110.57649,156.34062 -111.94674,157.71087 Q -113.31699,159.05033 -115.21071,159.05033 Q -117.13521,159.05033 -118.49007,157.71087 Q -119.84492,156.35602 -119.84492,154.4469 Q -119.84492,152.53779 -118.49007,151.18294 Q -117.11982,149.81269 -115.21071,149.81269 Q -113.31699,149.81269 -111.94674,151.18294 Q -110.57649,152.55319 -110.57649,154.4469" style="font-style:normal;font-variant:normal;font-weight:300;font-stretch:normal;font-size:15.39606857px;font-family:HouschkaLight;-inkscape-font-specification:'HouschkaLight Light';stroke-width:0.32075143px" id="path851"/>
			<path d="M -98.8584,159.57379 L -98.8584,149.28922 Q -98.8584,149.19682 -98.96617,149.19682 L -99.52043,149.19682 Q -99.61281,149.19682 -99.61281,149.3046 L -99.61281,158.32669 L -107.14148,149.24301 Q -107.18768,149.19681 -107.23388,149.19681 L -107.78814,149.19681 Q -107.89591,149.19681 -107.89591,149.30459 L -107.89591,159.58916 Q -107.89591,159.68156 -107.78814,159.68156 L -107.23388,159.68156 Q -107.12611,159.68156 -107.12611,159.57378 L -107.14151,150.53629 L -99.59744,159.61997 Q -99.56665,159.65077 -99.55125,159.66617 Q -99.53585,159.66617 -99.52046,159.68157 L -98.9662,159.68157 Q -98.85843,159.68157 -98.85843,159.57379 L -98.8584,159.57379" style="font-style:normal;font-variant:normal;font-weight:300;font-stretch:normal;font-size:15.39606857px;font-family:HouschkaLight;-inkscape-font-specification:'HouschkaLight Light';stroke-width:0.32075143px" id="path853"/>
			<path d="M -95.50278,159.57379 L -95.50278,149.28922 Q -95.50278,149.19682 -95.61055,149.19682 L -96.21099,149.19682 Q -96.31877,149.19682 -96.31877,149.3046 L -96.31877,159.58917 Q -96.31877,159.68157 -96.21099,159.68157 L -95.61055,159.68157 Q -95.50278,159.68157 -95.50278,159.57379" style="font-style:normal;font-variant:normal;font-weight:300;font-stretch:normal;font-size:15.39606857px;font-family:HouschkaLight;-inkscape-font-specification:'HouschkaLight Light';stroke-width:0.32075143px" id="path855"/>
			<path d="M -84.88261,158.58845 L -85.22133,158.11117 Q -85.28291,158.01877 -85.35989,158.09577 Q -86.76093,159.05033 -88.20817,159.05033 Q -90.08649,159.05033 -91.44134,157.71087 Q -92.79619,156.35602 -92.79619,154.43151 Q -92.79619,152.56858 -91.44134,151.21373 Q -90.07109,149.84348 -88.20817,149.84348 Q -86.80712,149.84348 -85.3445,150.79804 Q -85.26752,150.87504 -85.20593,150.78264 L -84.88261,150.28996 Q -84.83642,150.22836 -84.9134,150.1514 Q -86.56078,149.05828 -88.20816,149.05828 Q -90.4098,149.05828 -92.01099,150.65947 Q -93.61218,152.26066 -93.61218,154.43151 Q -93.61218,156.69473 -92.02639,158.26513 Q -90.44059,159.83553 -88.20816,159.83553 Q -86.28365,159.83553 -84.9134,158.72701 Q -84.82102,158.65001 -84.88261,158.58845 L -84.88261,158.58845" style="font-style:normal;font-variant:normal;font-weight:300;font-stretch:normal;font-size:15.39606857px;font-family:HouschkaLight;-inkscape-font-specification:'HouschkaLight Light';stroke-width:0.32075143px" id="path857"/>
		</g>
	</g>
</svg>