<?xml version="1.0" ?>
<svg xmlns="http://www.w3.org/2000/svg" viewBox="0 0 784 159" fill="none">
	<path d="M234.249 134H224.891L214.568 96.0493L199.269 131.178C198.229 133.48 196.744 134.743 194.441 134.743C192.213 134.743 190.579 133.48 189.614 131.178L174.389 96.0493L164.066 134H154.782L168.67 83.201C169.339 80.6016 170.824 79.3391 173.349 79.3391C175.355 79.3391 177.211 80.4531 178.102 82.5326L194.738 120.706L211.374 82.5326C212.266 80.4531 213.899 79.3391 215.905 79.3391C218.207 79.3391 219.692 80.6016 220.435 83.201L234.249 134ZM275.333 134H262.188C247.112 134 235.971 122.117 235.971 106.447C235.971 90.5535 247.112 80.0075 262.188 80.0075H275.333C290.929 80.0075 301.772 90.7763 301.772 106.447C301.772 122.117 290.707 134 275.333 134ZM262.188 124.568H275.333C285.285 124.568 292.34 117.067 292.34 106.892C292.34 96.7177 285.285 89.4395 275.333 89.4395H262.188C252.533 89.4395 245.403 96.6434 245.403 106.892C245.403 117.067 252.459 124.568 262.188 124.568ZM340.672 134H309.405V80.0075H340.672C355.897 80.0075 366.963 90.7763 366.963 106.447C366.963 122.117 355.897 134 340.672 134ZM318.763 124.568H340.672C350.401 124.568 357.531 117.067 357.531 106.892C357.531 96.7177 350.401 89.4395 340.672 89.4395H318.763V124.568ZM422.953 134H374.679V80.0075H422.879V89.4395H384.037V124.568H422.953V134ZM420.874 110.531H390.944V102.585H420.874V110.531ZM476.782 134H431.033V80.0075H440.465V124.568H476.782V134ZM489.848 109.715H472.024V103.402H489.848V109.715ZM534.475 118.998H512.789V109.863H534.475C541.085 109.863 545.021 105.704 545.021 99.6141C545.021 93.3756 541.085 89.4395 534.475 89.4395H505.882V134H496.525V80.0075H534.475C546.952 80.0075 554.231 87.5085 554.231 99.317C554.231 110.977 546.952 118.998 534.475 118.998ZM624.427 134H611.059L597.394 118.998H577.193V110.68H599.696C606.455 110.68 610.019 106.818 610.019 99.8369C610.019 92.8558 606.158 89.4395 599.696 89.4395H570.286V134H560.929V80.0075H599.696C612.025 80.0075 619.303 87.657 619.303 99.6884C619.303 108.6 615.144 114.913 608.163 117.587L624.427 134ZM639.273 134H629.841V80.0075H639.273V134ZM725.691 134H716.333L706.01 96.0493L690.711 131.178C689.671 133.48 688.186 134.743 685.884 134.743C683.656 134.743 682.022 133.48 681.056 131.178L665.832 96.0493L655.508 134H646.225L660.113 83.201C660.781 80.6016 662.267 79.3391 664.792 79.3391C666.797 79.3391 668.654 80.4531 669.545 82.5326L686.181 120.706L702.817 82.5326C703.708 80.4531 705.342 79.3391 707.347 79.3391C709.649 79.3391 711.135 80.6016 711.877 83.201L725.691 134ZM780.221 134H731.947V80.0075H780.147V89.4395H741.305V124.568H780.221V134ZM778.141 110.531H748.212V102.585H778.141V110.531Z" fill="black"/>
	<path d="M123.965 99.8362C129.606 100.966 132.428 96.0292 127.35 91.9283C92.378 63.6861 50.6373 29.7955 24.6905 8.33145C21.0005 5.27896 19.0499 3.8127 14.5374 2.68301L5.5124 0.423634C0.999905 -0.706054 -0.128125 0.423628 2.12812 3.81269C4.38437 7.20175 54.0218 71.594 60.7905 80.6315C67.5593 89.669 68.6874 89.669 75.4561 90.7986C82.2249 91.9283 117.197 98.7065 123.965 99.8362Z" fill="url(#paint0_linear_65_2230)"/>
	<path d="M126.706 112.387C131.167 110.968 131.244 106.357 126.021 105.448C90.0442 99.1888 47.0332 91.5885 20.1413 86.5826C16.3169 85.8707 14.353 85.5988 10.6955 86.574L3.38079 88.5243C-0.276586 89.4994 -0.637844 90.7444 2.29689 92.2593C5.23162 93.7742 65.814 119.893 74.1757 123.636C82.5375 127.38 83.3413 126.936 88.6061 125.073C93.871 123.21 121.441 114.251 126.706 112.387Z" fill="url(#paint1_linear_65_2230)"/>
	<path d="M128.368 123.219C131.023 120.388 129.17 117.003 124.997 118.447C96.2552 128.394 61.8452 140.2 40.2257 147.396C37.1511 148.42 35.611 149.014 33.3562 151.197L28.8465 155.564C26.5917 157.747 26.8445 158.799 29.6048 158.718C32.3651 158.637 87.2132 153.22 94.8409 152.573C102.469 151.926 102.869 151.279 105.925 147.802C108.98 144.325 125.312 126.696 128.368 123.219Z" fill="url(#paint2_linear_65_2230)"/>
	<defs>
		<linearGradient id="paint0_linear_65_2230" x1="130" y1="159" x2="-2.87951" y2="89.121" gradientUnits="userSpaceOnUse">
			<stop stop-color="#5183F8"/>
			<stop offset="1" stop-color="#8EDCF9"/>
		</linearGradient>
		<linearGradient id="paint1_linear_65_2230" x1="130" y1="159" x2="-2.87951" y2="89.121" gradientUnits="userSpaceOnUse">
			<stop stop-color="#5183F8"/>
			<stop offset="1" stop-color="#8EDCF9"/>
		</linearGradient>
		<linearGradient id="paint2_linear_65_2230" x1="130" y1="159" x2="-2.87951" y2="89.121" gradientUnits="userSpaceOnUse">
			<stop stop-color="#5183F8"/>
			<stop offset="1" stop-color="#8EDCF9"/>
		</linearGradient>
	</defs>
</svg>