<?xml version="1.0" ?>
<!-- Generator: Adobe Illustrator 24.1.0, SVG Export Plug-In . SVG Version: 6.00 Build 0)  -->
<svg xmlns="http://www.w3.org/2000/svg" version="1.2" baseProfile="tiny-ps" id="Calque_1" viewBox="0 0 576 576" xml:space="preserve">
	<linearGradient id="logo_1_" gradientUnits="userSpaceOnUse" x1="285.315" y1="524.3469" x2="285.315" y2="50">
		<stop offset="0" stop-color="#2880C3"/>
		<stop offset="0.1356" stop-color="#258CCB"/>
		<stop offset="0.3916" stop-color="#1EA2DA"/>
		<stop offset="0.6293" stop-color="#1AB3E5"/>
		<stop offset="0.8394" stop-color="#17BDEB"/>
		<stop offset="1" stop-color="#0FC2EF"/>
	</linearGradient>
	<path id="logo_4_" fill="url(#logo_1_)" d="M232.9,406.3l-52.6,75.8c-27.8,40.2-83.5,50.3-123.6,22.4   c51.2-74,102.4-147.9,153.7-221.9l115.5,79.9c40.1,27.8,50.2,83.5,22.4,123.6c-27.8,40.2-83.5,50.3-123.7,22.5l50.6-73.1   L232.9,406.3L232.9,406.3z M317.4,185.3c-29.4-34.6-25.1-86.5,9.5-115.9c34.6-29.3,86.4-25.1,115.8,9.5   c29.4,34.6,25.1,86.6-9.6,115.9C398.5,224.2,346.6,219.9,317.4,185.3L317.4,185.3z M498.1,348.2c28-40.3,17.8-95.8-22.4-123.7   l-50.6,73.1l-84.8-58.7l-84.7-58.7c-40.2-27.9-95.9-17.7-123.7,22.5c-27.9,40.1-17.7,95.8,22.4,123.7l50.7-73.1l84.7,58.7l84.8,58.7   C414.7,398.5,470.4,388.4,498.1,348.2L498.1,348.2z"/>
</svg>