<?xml version="1.0" encoding="UTF-8"?>
<svg version="1.1" xmlns="http://www.w3.org/2000/svg"  x="0px" y="0px" viewBox="0 0 1700 196" style="enable-background:new 0 0 1700 196;" xml:space="preserve">
	<g>
		<g>
			<path style="fill:#1D51C6;" d="M160.6,137.9c-8.1,3-15.4,2.8-23.5,0.4c-3.7-1.1-6.3-4.6-6.4-8.4c-0.9-28.1,0.1-56.8-0.5-86.5    c-0.1-5-4.2-9.1-9.3-9.1h-85c-3.7,0-7.2-2.3-8.6-5.8c-3.7-9.6-3.9-13.7-0.6-22.5c1.3-3.6,4.8-6,8.6-6h120.3c5.1,0,9.4,4.1,9.7,9.3    c2,40.4,0.4,79.9,1.2,120C166.7,133,164.2,136.5,160.6,137.9z"/>
			<path style="fill:#1D51C6;" d="M85,152c0.3,2,0.3,4,0,6.2c-0.5,4.1-3.9,7.3-8.1,7.4c-22.5,0.4-45.1,0.1-68.6,0.1    c-4.6,0-8.3-3.7-8.3-8.3V87.7c0-4.4,3.4-8,7.8-8.3c1.7-0.1,3.4,0,5.2,0.4c3.9,0.7,6.7,4.2,6.7,8.1c0,15.3-0.2,32-0.3,48.2    c0,4.6,3.6,8.2,8.2,8.3l49.3,0.7C80.9,145.3,84.4,148.1,85,152z"/>
		</g>
	</g>
	<g>
		<path style="fill:#1D51C6;" d="M238,45.8h24.9l31.5,78.8l31.7-78.8H351v115.8h-16.4V59.9l-31.8,79.5H286l-31.8-79.5v101.6H238V45.8   L238,45.8z"/>
		<path style="fill:#1D51C6;" d="M404.8,72.6c13.1,0,23.5,4.1,31,12.3c7.5,8.3,11.3,19.7,11.3,34.2s-3.8,25.9-11.3,34.2   s-17.9,12.4-31,12.4c-13.2,0-23.6-4.2-31-12.4c-7.4-8.3-11.3-19.7-11.3-34.2s3.8-25.9,11.3-34.2S391.7,72.6,404.8,72.6z M404.8,85   c-8.2,0-14.6,3-19.2,9.2c-4.7,6-7.1,14.4-7.1,25.1s2.3,19,7.1,25.1c4.6,6,11.1,9.2,19.3,9.2c8.1,0,14.5-3,19.2-9.2s7.1-14.4,7.1-25   c0-10.5-2.3-18.8-7.1-25C419.3,88,413,85,404.8,85z"/>
		<path style="fill:#1D51C6;" d="M529.8,110v52.3h-13.5v-51.9c0-8.2-1.5-14.3-4.5-18.4s-7.6-6.1-13.7-6.1c-7.3,0-16.9-0.1-21.1,4.8   s-2.4,14.1-2.4,22.6v48.9H461V89.9c0,0,6.1-7.9,19.8-13.2c8.3-3.2,14.6-3.2,20.3-3.2c9.4,0,16.6,3.1,21.4,9.2   C527.4,88.9,529.8,98,529.8,110z"/>
		<path style="fill:#1D51C6;" d="M622.2,115v6.9h-62c0.6,9.7,3.3,17.1,8.4,22.2c5,5.1,12,7.7,20.9,7.7c5.2,0,10.2-0.7,15-2   c4.8-1.4,9.7-3.4,14.5-6v13.3c-4.8,2.1-9.8,3.8-14.8,5c-5.1,1.1-10.2,1.7-15.4,1.7c-13.1,0-23.5-3.9-31.1-11.9   c-7.7-8-11.5-18.8-11.5-32.4c0-14.1,3.6-25.2,10.9-33.5c7.3-8.2,17-12.4,29.4-12.4c11,0,19.8,3.7,26.2,11.2   C619,92.2,622.2,102.3,622.2,115z M608.7,110.9c-0.1-7.8-2.2-13.9-6.2-18.5s-9.3-6.9-16-6.9c-7.6,0-13.6,2.3-18.1,6.6   c-4.5,4.5-7.1,10.7-7.8,18.8C560.6,110.9,608.7,110.9,608.7,110.9z"/>
		<path style="fill:#1D51C6;" d="M669.2,170.8c-3.8,10.5-7.6,17.2-11.1,20.4c-3.6,3.2-8.5,4.8-14.5,4.8h-10.8v-12.1h8   c3.7,0,6.6-0.9,8.7-2.9c2.1-2,4.3-6.3,6.8-13.3l2.5-6.5l-33.2-86.3h14l25.7,68.6L691,74.9h14.3L669.2,170.8z"/>
		<path style="fill:#1D51C6;" d="M708,47.2h92.6v13.2h-38.8v102.3H747V60.4h-38.8L708,47.2L708,47.2z"/>
		<path style="fill:#1D51C6;" d="M846.8,88.3c-1.8-0.4-7.8-0.2-9.9-0.2c-7.7,0-17.2,0.1-21.3,5.2s-2.4,15-2.4,24.5v44.5h-13.6V91   c0,0,5.7-8.2,19-13.5c10.2-4.2,15.7-1.7,22.3-1.7c0.9,0,2,0.1,3,0.2c1.1,0.1,2.4,0.3,3.7,0.6C847.7,76.4,848.6,88.7,846.8,88.3z"/>
		<path style="fill:#1D51C6;" d="M925.8,111.8v49.3h-13.5V148c-3,5.2-6.9,9.2-11.5,11.7s-10.2,3.7-16.8,3.7c-8.4,0-15-2.5-20.1-7.5   c-4.9-5-7.5-11.7-7.5-19.9c0-9.7,3-17.1,9.2-22c6.2-5,15.4-7.4,27.6-7.4h18.9v-1.5c0-6.6-2.1-11.5-6.1-15.2   c-4.1-3.6-9.8-5.3-17.2-5.3c-4.7,0-9.2,0.6-13.7,1.8c-4.4,1.1-8.7,2.9-12.8,5.3V78.6c4.9-2,9.7-3.5,14.4-4.5   c4.6-1,9.1-1.5,13.6-1.5c11.9,0,20.7,3.3,26.6,9.7C922.8,88.8,925.8,98.6,925.8,111.8z M898.8,117.7c-10.9,0-18.5,1.4-22.6,4   c-4.2,2.6-6.3,7.1-6.3,13.5c0,5.1,1.6,9.1,4.7,12c3.1,2.9,7.5,4.4,12.9,4.4c7.5,0,13.5-2.8,18-8.4c4.5-5.5,6.8-13,6.8-22.3v-3.2   H898.8L898.8,117.7z"/>
		<path style="fill:#1D51C6;" d="M1090.7,79.8v13.1c-3.8-2-7.8-3.5-11.9-4.5s-8.4-1.5-12.8-1.5c-6.7,0-11.7,1.1-15,3.2s-5,5.3-5,9.4   c0,3.2,1.2,5.7,3.6,7.5c2.4,1.9,7.2,3.5,14.5,5.2l4.6,1.1c9.5,2.1,16.4,5,20.4,8.9s6.1,9.1,6.1,15.9c0,7.8-3,13.9-9,18.4   s-14.4,6.8-24.9,6.8c-4.4,0-8.9-0.4-13.8-1.3c-4.7-0.9-9.8-2.2-15-3.9v-14.2c5,2.6,9.9,4.6,14.7,5.9c4.8,1.3,9.6,2,14.4,2   c6.4,0,11.2-1.1,14.6-3.3s5.1-5.4,5.1-9.4c0-3.7-1.3-6.6-3.7-8.6c-2.5-2-7.9-3.9-16.2-5.7l-4.7-1.1c-8.4-1.8-14.4-4.5-18.1-8.2   s-5.6-8.8-5.6-15.3c0-7.9,2.8-13.9,8.3-18.2s13.3-6.5,23.3-6.5c5,0,9.6,0.3,14.1,1.1C1083,77.3,1087,78.4,1090.7,79.8z"/>
		<path style="fill:#1D51C6;" d="M1156.7,42.2v11.7h-12.9c-4.8,0-8.2,1-10.1,3s-2.9,5.8-2.9,11.1v7.6h22.2v10.9h-22.2v75.2h-13.6   V86.5h-12.9V75.6h12.9v-6c0-9.6,2.2-16.6,6.4-21s11-6.5,20.3-6.5L1156.7,42.2L1156.7,42.2L1156.7,42.2z"/>
		<path style="fill:#1D51C6;" d="M1231.7,115.5v6.9h-62c0.6,9.7,3.3,17.1,8.4,22.2c5,5.1,12,7.7,20.9,7.7c5.2,0,10.2-0.7,15-2   s9.7-3.4,14.5-6v13.4c-4.8,2.1-9.8,3.8-14.8,5c-5.1,1.1-10.2,1.7-15.4,1.7c-13.1,0-23.5-3.9-31.1-11.9c-7.7-8-11.5-18.8-11.5-32.4   c0-14.1,3.6-25.2,10.9-33.5c7.3-8.2,17-12.4,29.4-12.4c11,0,19.8,3.7,26.2,11.2C1228.4,92.6,1231.7,102.8,1231.7,115.5z    M1218.2,111.3c-0.1-7.8-2.2-13.9-6.2-18.5s-9.3-6.9-16-6.9c-7.6,0-13.6,2.3-18.1,6.6c-4.5,4.5-7.1,10.7-7.8,18.8H1218.2z"/>
		<path style="fill:#1D51C6;" d="M1358.5,79.4v13c-3.8-2-7.8-3.5-11.9-4.5s-8.4-1.5-12.8-1.5c-6.7,0-11.7,1.1-15,3.2s-5,5.2-5,9.4   c0,3.2,1.2,5.7,3.6,7.4c2.4,1.9,7.2,3.5,14.5,5.1l4.6,1.1c9.5,2.1,16.4,5,20.4,8.9c4,3.8,6.1,9.1,6.1,15.9c0,7.8-3,13.9-9,18.4   s-14.4,6.8-24.9,6.8c-4.4,0-8.9-0.4-13.8-1.3c-4.7-0.9-9.8-2.2-15-3.9v-14.3c5,2.6,9.9,4.6,14.7,5.9c4.8,1.3,9.6,2,14.4,2   c6.4,0,11.2-1.1,14.6-3.3s5.1-5.4,5.1-9.4c0-3.7-1.3-6.6-3.7-8.5c-2.5-2-7.9-3.9-16.2-5.7l-4.7-1.1c-8.4-1.7-14.4-4.5-18.1-8.2   s-5.6-8.7-5.6-15.2c0-7.9,2.8-13.9,8.3-18.2s13.3-6.5,23.3-6.5c5,0,9.6,0.3,14.1,1.1C1350.7,76.8,1354.9,77.9,1358.5,79.4z"/>
		<path style="fill:#1D51C6;" d="M1376.4,143.6h15.4v17.3h-15.4V143.6z"/>
		<path style="fill:#1D51C6;" d="M1469.5,79.9v12.9c-3.8-2.2-7.7-3.8-11.5-4.9s-7.7-1.7-11.6-1.7c-8.7,0-15.5,2.9-20.3,8.5   c-4.8,5.7-7.3,13.7-7.3,24s2.5,18.2,7.3,24s11.6,8.5,20.3,8.5c3.9,0,7.8-0.6,11.6-1.7c3.8-1.1,7.7-2.7,11.5-4.9v12.8   c-3.7,1.8-7.7,3.2-11.7,4.1s-8.4,1.3-12.9,1.3c-12.4,0-22.2-4-29.5-11.9c-7.3-8-10.9-18.8-10.9-32.3c0-13.7,3.6-24.5,11-32.5   c7.4-7.8,17.4-11.8,30.3-11.8c4.1,0,8.3,0.4,12.2,1.3C1461.9,76.7,1465.8,78.2,1469.5,79.9z"/>
		<path style="fill:#1D51C6;" d="M1521.5,74.5c11.7,0,20.9,3.9,27.6,11.8s10,18.9,10,32.8c0,14-3.3,24.9-10,32.8   s-15.9,11.9-27.6,11.9c-11.8,0-21-4-27.6-11.9s-10-18.9-10-32.8c0-14,3.3-24.9,10-32.8S1509.7,74.5,1521.5,74.5z M1521.5,86.3   c-7.3,0-13,2.9-17.1,8.8c-4.2,5.8-6.3,13.8-6.3,24.1s2.1,18.2,6.3,24.1c4.1,5.8,9.9,8.8,17.2,8.8c7.2,0,12.9-2.9,17.1-8.8   c4.2-5.9,6.3-13.8,6.3-24c0-10-2.1-18.1-6.3-24C1534.4,89.2,1528.7,86.3,1521.5,86.3z"/>
		<path style="fill:#1D51C6;" d="M1293.1,88c-1.8-0.4-7.8-0.2-9.9-0.2c-7.7,0-16.7,0.1-20.7,5.3c-4.1,5.2-2.9,15.2-2.9,24.8v45.2   H1246V90.7c0,0,5.7-8.3,19-13.7c10.2-4.3,15.7-1.7,22.3-1.7c0.9,0,2,0.1,3,0.2c1.1,0.1,2.4,0.3,3.7,0.6   C1294,76,1294.9,88.4,1293.1,88z"/>
		<path style="fill:#1D51C6;" d="M1016.3,109.3v52.8h-13.5v-52.3c0-8.2-1.5-14.4-4.5-18.6c-3-4.1-7.6-6.2-13.7-6.2   c-7.3,0-16.9-0.1-21.1,4.8s-2.4,14.2-2.4,22.8V162h-13.5V89.1c0,0,6.1-8,19.8-13.3c8.3-3.2,14.6-3.2,20.3-3.2   c9.4,0,16.6,3.1,21.4,9.3C1014,88.1,1016.3,97.3,1016.3,109.3z"/>
		<path style="fill:#1D51C6;" d="M1644.5,95.4c3.3-5.6,7.4-9.8,12.1-12.5s10.2-4,16.6-4c8.6,0,15.1,2.8,19.8,8.3   c4.6,5.6,7,13.5,7,23.7V157h-13.6v-45.7c0-7.3-1.4-12.7-4.1-16.3c-2.8-3.5-7.1-5.3-12.8-5.3c-7,0-12.5,2.2-16.6,6.5   c-4,4.3-6.1,10.2-6.1,17.6v43.1h-13.6v-45.7c0-7.4-1.4-12.8-4.1-16.3c-2.8-3.5-7.1-5.3-12.9-5.3c-6.9,0-14.5,0.9-18.5,5.2   c-4,4.3-4,11.5-4,18.9v43.1h-13.6V93.3c0,0,1.9-8.1,21-14.4c5.8-1.9,14.4-2.8,20.2-1.6c6.8,1.4,9.7,2.7,14,5.5   C1639.5,86,1642.5,90.1,1644.5,95.4z"/>
	</g>
</svg>