<?xml version="1.0" ?>
<svg xmlns="http://www.w3.org/2000/svg" data-name="Capa 1" viewBox="0 0 150 100">
	<defs>
		<style>
      .cls-1 {
        fill: #970230;
      }
    </style>
	</defs>
	<path class="cls-1" d="M69.87,1.12c.01-.07,.02-.07,.03,0,.2,1.54,.4,3.08,.59,4.62,.03,.28,.11,.52,.22,.73,.13,.23,.26,.44,.42,.65,.1,.14,.15,.29,.15,.45v3.3s-.03,.04-.06,.04c0,0-.01,0-.02,0l-1.31-.5s-.09-.01-.13,0l-1.21,.52s-.05,0-.06-.03c0,0,0-.01,0-.02v-3.42s.02-.09,.05-.13c.18-.31,.37-.61,.55-.92,.12-.2,.19-.42,.21-.66,.16-1.52,.35-3.07,.58-4.65Z"/>
	<path class="cls-1" d="M65,10.14c.07,.09,.2,.12,.3,.05,.27-.18,.39-.15,.36,.07-.02,.2-.04,.8-.04,1.78,0,.04-.03,.08-.07,.1l-3.15,1.24s-.06,0-.07-.03c0,0,0,0,0-.01-.03-.49-.03-.99-.02-1.48,0,0,0-.06-.01-.16-.01-.18,.09-.32,.32-.4,.16-.06,.27-.17,.34-.34l.94-2.22s.04-.05,.07,0l1.02,1.42Z"/>
	<path class="cls-1" d="M76.03,8.74s.07-.05,.09,.01c.3,.74,.6,1.46,.88,2.16,.05,.12,.11,.21,.17,.26,.09,.08,.19,.12,.3,.13,.09,.01,.15,.08,.15,.16l-.03,1.87s-.03,.05-.05,.05c0,0-.01,0-.02,0l-3.16-1.23c-.05-.02-.08-.07-.08-.12v-1.83c0-.23,.09-.27,.27-.13,.19,.16,.35,.19,.47,.09,.01,0,.08-.12,.22-.32,.24-.35,.5-.72,.79-1.11Z"/>
	<path class="cls-1" d="M57.64,11.44c.05-.12,.11-.13,.19-.02l.92,1.31c.07,.1,.21,.13,.32,.06,.29-.19,.43-.16,.41,.1,0,.13-.01,.2-.01,.21v1.34c0,.08-.04,.14-.11,.17l-3.27,1.31s-.05,0-.06-.03c0,0,0-.01,0-.02v-1.69c0-.1,.06-.19,.16-.21,.24-.06,.42-.16,.53-.32,.01-.02,.09-.19,.23-.53,.24-.57,.47-1.13,.7-1.69Z"/>
	<path class="cls-1" d="M81.44,12.88l1.04-1.44c.05-.08,.1-.07,.13,.01,.29,.7,.57,1.4,.84,2.08,.06,.15,.12,.25,.18,.3,.09,.08,.2,.13,.34,.15,.04,0,.08,.05,.08,.1v1.82s-.02,.05-.05,.05c0,0-.01,0-.02,0l-3.25-1.29c-.07-.03-.11-.09-.11-.16v-1.79s.02-.06,.05-.06c0,0,.01,0,.02,0l.63,.25s.09,0,.11-.03Z"/>
	<path class="cls-1" d="M68.48,18.18c0-1.69,.01-3.37,.02-5.06,0-.04,.03-.08,.07-.09l1.15-.45c.09-.04,.18-.04,.26,0l1.23,.47s.06,.05,.06,.09l-.03,15.47s-.02,.06-.05,.06c0,0,0,0-.01,0-.32-.08-.64-.16-.95-.23-.22-.05-.44-.05-.66,0-.34,.08-.67,.16-1,.25-.03,0-.06,0-.07-.04,0,0,0-.01,0-.02-.03-3.48-.04-6.96-.02-10.43Z"/>
	<path class="cls-1" d="M51.49,13.97s.04-.05,.07,0l.94,1.37c.1,.15,.23,.17,.37,.07,.29-.2,.42-.16,.4,.11-.01,.17-.02,.25-.02,.26v1.23c0,.06-.04,.12-.09,.14l-3.43,1.36s-.05,0-.06-.03c0,0,0-.01,0-.02v-1.56c0-.1,.07-.2,.18-.25l.59-.27s.06-.05,.08-.1l.97-2.31Z"/>
	<path class="cls-1" d="M87.84,15.44l1.01-1.42s.05-.04,.07,0l.93,2.29c.06,.16,.18,.24,.35,.24,.1,0,.19,.05,.27,.14,.03,.03,.04,.08,.04,.13v1.63s-.02,.05-.05,.05c0,0-.01,0-.02,0l-3.45-1.37s-.07-.06-.07-.1v-1.73c0-.08,.04-.1,.11-.06,.21,.13,.44,.21,.69,.25,.04,0,.08-.01,.11-.05Z"/>
	<path class="cls-1" d="M63.12,17.58l-.73,.19s-.06,0-.07-.04c0,0,0,0,0-.01v-2.14c0-.08,.04-.14,.11-.17l3.13-1.22s.05,0,.06,.03c0,0,0,.01,0,.02v15.07s-.03,.09-.08,.1l-2.27,.57s-.06-.01-.07-.04c0,0,0,0,0-.01l-.02-12.29s-.02-.06-.05-.06c0,0,0,0-.01,0Z"/>
	<path class="cls-1" d="M76.71,17.66l.03,12.31s-.03,.07-.07,.07c0,0-.01,0-.02,0l-2.28-.57c-.06-.01-.1-.07-.1-.12V14.25s.02-.04,.04-.04c0,0,.01,0,.02,0l3.2,1.23s.07,.05,.07,.1c.05,.74,.04,1.48-.02,2.22,0,.03-.03,.05-.06,.04,0,0,0,0-.01,0l-.73-.19s-.06,.01-.07,.04c0,0,0,.01,0,.02Z"/>
	<path class="cls-1" d="M46.5,18.08l.43-.19c.06-.03,.13,0,.15,.05,0,.01,0,.03,0,.05v1.48c0,.06-.04,.11-.09,.14l-3.61,1.47s-.05,0-.06-.03c0,0,0-.01,0-.02v-1.49c0-.08,.06-.17,.15-.21l.76-.34s.06-.05,.08-.1l.96-2.29s.04-.05,.07,0l1.03,1.46s.07,.05,.11,.03Z"/>
	<path class="cls-1" d="M56.78,19.89l-.67,.27s-.08,0-.09-.04c0,0,0-.02,0-.03v-2.12s.02-.06,.05-.08l3.3-1.29s.08,0,.1,.04c0,0,0,.02,0,.03l-.04,14.17s-.03,.08-.07,.09l-2.36,.62s-.06-.01-.07-.04c0,0,0,0,0-.01v-11.51c0-.06-.06-.11-.12-.11-.01,0-.03,0-.04,0Z"/>
	<path class="cls-1" d="M83.16,19.96l-.04,11.62s-.02,.06-.06,.06c0,0,0,0-.01,0l-2.36-.57s-.07-.05-.07-.09v-14.27s.02-.06,.05-.06c0,0,.01,0,.02,0l3.28,1.26c.06,.02,.1,.08,.1,.14l-.03,2.08s-.03,.06-.07,.06c0,0-.02,0-.02,0l-.72-.27s-.06,0-.07,.03c0,0,0,.01,0,.02Z"/>
	<path class="cls-1" d="M95.21,16.7c.04-.06,.07-.05,.1,0,.29,.72,.57,1.41,.84,2.08,.11,.28,.31,.43,.61,.45,.1,0,.17,.09,.17,.18l.03,1.54s-.02,.05-.05,.05c0,0-.01,0-.02,0l-3.5-1.36c-.07-.03-.12-.1-.12-.18v-1.49c0-.06,.05-.12,.12-.11,.02,0,.03,0,.04,0l.65,.27c.05,.02,.11,0,.14-.04l.98-1.4Z"/>
	<path class="cls-1" d="M50.54,22.26l-.81,.25s-.05,0-.06-.03c0,0,0,0,0-.01v-2.03s.02-.06,.05-.08l3.45-1.33s.07,0,.08,.04c0,0,0,.01,0,.02v13.32c0,.06-.03,.11-.09,.13l-2.44,.6s-.09-.02-.1-.06c0,0,0-.01,0-.02v-10.74s-.03-.06-.06-.06c0,0,0,0-.01,0Z"/>
	<path class="cls-1" d="M89.54,22.28c-.03,.39-.04,.9-.04,1.54,0,1.7,0,4.83,0,9.4,0,.03-.03,.06-.06,.06,0,0,0,0-.01,0l-2.42-.6s-.07-.05-.07-.09v-13.44s.03-.09,.08-.09c.01,0,.02,0,.03,0l3.38,1.29c.06,.02,.09,.07,.09,.13v1.98s-.03,.06-.06,.06c0,0-.01,0-.02,0l-.83-.28s-.06,0-.07,.03c0,0,0,0,0,.01Z"/>
	<path class="cls-1" d="M40.22,20.67c.19-.02,.36-.09,.53-.19,.08-.05,.13-.03,.12,.07l-.05,1.48s-.03,.08-.07,.1l-3.68,1.48s-.06,0-.07-.03c0,0,0,0,0-.01-.05-.47-.05-.94,0-1.4,0-.04,.03-.08,.07-.1l.96-.44s.07-.05,.09-.09l.95-2.25s.04-.05,.07,0l.98,1.35s.07,.06,.11,.05Z"/>
	<path class="cls-1" d="M101.55,19.34c.05-.07,.1-.07,.13,.01l.9,2.18c.03,.07,.1,.14,.19,.18l.55,.25s.06,.06,.06,.11v1.4s-.04,.08-.09,.08c0,0-.02,0-.03,0l-3.59-1.4s-.07-.06-.07-.11v-1.5s.04-.08,.09-.08c.01,0,.02,0,.03,0l.72,.28s.09,0,.11-.04l.97-1.36Z"/>
	<path class="cls-1" d="M44.3,24.56l-.85,.28s-.1,0-.12-.05c0,0,0-.02,0-.03l.02-1.83s.03-.08,.07-.1l3.62-1.42s.05,0,.06,.03c0,0,0,.01,0,.02v12.48c0,.07-.06,.13-.12,.14l-2.51,.61s-.08-.01-.09-.05c0,0,0-.01,0-.02v-10.03s-.03-.06-.06-.06c0,0-.01,0-.02,0Z"/>
	<path class="cls-1" d="M95.93,24.64v10.24s-.03,.04-.05,.04c0,0,0,0,0,0l-2.5-.64s-.07-.05-.07-.09l-.02-12.65s.02-.05,.05-.05c0,0,.01,0,.02,0l3.52,1.32s.07,.05,.07,.1c.06,.63,.06,1.26,.01,1.87,0,.05-.05,.08-.1,.08,0,0-.01,0-.02,0l-.83-.27s-.06,0-.07,.04c0,0,0,.01,0,.02Z"/>
	<path class="cls-1" d="M32.88,21.86c.02-.05,.05-.05,.08,0l.95,1.38s.07,.06,.11,.05c.19-.03,.36-.09,.53-.19,.09-.05,.13-.03,.14,.07l.02,1.32c0,.06-.04,.11-.1,.14l-3.81,1.54c-.05,.02-.11,0-.13-.06,0-.01,0-.02,0-.04v-1.24s.03-.09,.07-.1l.98-.43c.12-.05,.21-.14,.26-.25l.91-2.19Z"/>
	<path class="cls-1" d="M109.17,24.34l.51,.19c.09,.03,.15,.11,.15,.2v1.31s-.03,.05-.06,.05c0,0-.01,0-.02,0l-3.72-1.46c-.07-.03-.12-.1-.12-.17v-1.24c0-.08,.07-.15,.14-.15,.02,0,.04,0,.06,.01l.84,.38s.09,0,.12-.04l1.01-1.42s.05-.04,.07,0l.91,2.24s.05,.08,.09,.1Z"/>
	<path class="cls-1" d="M38.02,26.88l-.95,.33s-.07,0-.09-.04c0,0,0-.01,0-.02l.02-1.78s.03-.08,.07-.1l3.76-1.44s.04,0,.04,.02c0,0,0,0,0,.01-.03,1.2-.04,2.39-.02,3.59,.02,1.59,.04,2.53,.04,2.82,0,1.73-.01,3.49-.04,5.28,0,.04-.03,.08-.07,.09l-2.59,.67s-.07-.01-.08-.05c0,0,0-.01,0-.02v-9.31s-.03-.05-.06-.05c0,0-.01,0-.02,0Z"/>
	<path class="cls-1" d="M102.27,26.97l-.02,9.5s-.03,.06-.06,.06c0,0,0,0-.01,0l-2.49-.64s-.07-.05-.07-.09v-11.86s.02-.05,.05-.05c0,0,.01,0,.02,0l3.62,1.37s.08,.07,.08,.12v1.81s-.02,.04-.05,.04c0,0-.01,0-.01,0l-.99-.32s-.06,0-.06,.04c0,0,0,.01,0,.02Z"/>
	<path class="cls-1" d="M26.68,24.53s.04-.03,.06-.02c0,0,.01,0,.02,.01l.94,1.32s.07,.06,.11,.06c.17-.01,.33-.07,.49-.18,.12-.08,.18-.05,.17,.09l-.02,1.23s-.03,.08-.07,.1l-3.32,1.34s-.07,0-.08-.03c0,0,0,0,0,0-.07-.32-.09-.71-.04-1.18,0-.1,.09-.18,.18-.19,.19-.03,.36-.1,.49-.23,.09-.09,.18-.23,.26-.45,.24-.62,.5-1.24,.8-1.86Z"/>
	<path class="cls-1" d="M114.39,24.64c.04-.06,.08-.06,.11,.01l.88,2.18s.05,.07,.09,.09l.75,.33s.06,.06,.06,.1v1.22s-.02,.05-.05,.05c0,0-.01,0-.02,0l-3.88-1.5s-.07-.06-.07-.1v-1.27c0-.06,.04-.1,.1-.1,.01,0,.03,0,.04,0l.83,.38c.07,.03,.15,0,.2-.05l.95-1.34Z"/>
	<path class="cls-1" d="M31.78,29.21l-.98,.35c-.06,.02-.12,0-.14-.05,0-.01,0-.02,0-.03v-1.62s.03-.08,.07-.1l3.85-1.48s.1,0,.12,.05c0,.01,0,.02,0,.03v10.75s-.02,.07-.05,.08l-2.66,.66c-.06,.01-.11-.02-.13-.08,0,0,0-.02,0-.03v-8.48s-.03-.06-.06-.06c0,0-.01,0-.02,0Z"/>
	<path class="cls-1" d="M108.65,29.26l-.02,8.87s-.02,.05-.05,.05c0,0,0,0-.01,0l-2.56-.64s-.07-.05-.07-.09v-11.05c0-.06,.04-.11,.1-.11,.01,0,.03,0,.04,0l3.69,1.41s.07,.05,.07,.1v1.7s-.02,.06-.05,.06c0,0-.01,0-.02,0l-1.04-.36s-.06,0-.06,.03c0,0,0,.01,0,.02Z"/>
	<path class="cls-1" d="M20.47,27.16s.04-.05,.07,0l.95,1.35s.08,.05,.13,.04l.59-.22s.06,0,.07,.03c0,0,0,.01,0,.02v1.15s-.03,.08-.07,.1l-3.68,1.49s-.06,0-.07-.03c0,0,0-.01,0-.02v-1.12s.03-.08,.07-.1l.81-.33c.11-.04,.21-.15,.27-.29l.86-2.05Z"/>
	<path class="cls-1" d="M119.83,28.67l.94-1.34c.07-.1,.13-.09,.17,.02l.87,2.12s.05,.07,.09,.09l.72,.33s.07,.06,.08,.1c.06,.3,.07,.59,.02,.89,0,.04,0,.08,.01,.13,.03,.09,0,.14-.09,.14-.04,0-.08,0-.14-.03-1.24-.49-2.51-.99-3.79-1.5-.06-.02-.1-.08-.1-.13l-.02-1.13c0-.05,.04-.09,.09-.09,.01,0,.03,0,.04,0l1,.42s.09,0,.11-.03Z"/>
	<path class="cls-1" d="M25.52,31.52c-.14,.01-.29,.06-.44,.15-.11,.06-.17,.03-.17-.1v-1.48s.03-.08,.07-.09l3.42-1.35s.05,0,.06,.03c0,0,0,.01,0,.02v9.94c0,.08-.05,.14-.13,.16l-2.64,.65s-.08-.02-.09-.05c0,0,0-.01,0-.02v-7.79s-.04-.09-.09-.09c0,0,0,0,0,0Z"/>
	<path class="cls-1" d="M115.1,38.01l1.1,.31s.07,.05,.07,.09l.02,1.66s-.03,.06-.06,.06c0,0,0,0-.01,0l-3.84-.99c-.06-.02-.1-.07-.1-.13v-10.23s.03-.06,.07-.06c0,0,.02,0,.02,0l3.82,1.47s.07,.05,.07,.1c.06,.53,.06,1.05,0,1.58,0,.03-.03,.05-.06,.05,0,0,0,0-.01,0l-1.09-.37s-.06,0-.07,.03c0,0,0,.01,0,.02v6.33s.03,.08,.07,.09Z"/>
	<path class="cls-1" d="M13.33,31.97l.91-2.18c.02-.05,.05-.05,.08,0l.93,1.35s.07,.05,.11,.04l.66-.28s.05,0,.06,.02c0,0,0,.01,0,.02v1.08c0,.05-.03,.1-.08,.12l-3.7,1.49s-.07,0-.09-.03c0,0,0-.02,0-.02v-.95s.04-.08,.08-.1l.93-.43s.08-.05,.09-.09Z"/>
	<path class="cls-1" d="M126.04,31.24l.94-1.29c.07-.1,.13-.1,.18,.02l.83,2.05s.05,.08,.09,.09l.69,.27c.08,.03,.14,.11,.13,.18v1s-.03,.05-.06,.05c0,0-.01,0-.02,0l-3.83-1.51s-.07-.06-.07-.11v-1.08s.03-.07,.07-.07c0,0,.02,0,.03,0l.91,.41s.09,0,.11-.02Z"/>
	<path class="cls-1" d="M69.64,45.22c-.32,.02-.66,.07-1.02,.14-.06,.01-.12-.03-.13-.09,0,0,0-.01,0-.02v-14.52c0-.07,.05-.13,.11-.15,.31-.09,.61-.16,.89-.22,.25-.06,.5-.06,.75-.01,.33,.07,.64,.15,.94,.24,.05,.02,.09,.07,.09,.12v14.56s-.03,.07-.07,.07c0,0,0,0,0,0-.27-.02-.53-.04-.78-.08-.32-.05-.58-.06-.78-.05Z"/>
	<path class="cls-1" d="M19.3,33.83l-.75,.25s-.08,0-.09-.04c0,0,0-.01,0-.02v-1.4s.03-.08,.07-.1l3.7-1.43s.05,0,.06,.03c0,0,0,.01,0,.02v9.15s-.03,.08-.07,.09l-2.71,.68c-.06,.01-.12-.02-.13-.08,0,0,0-.02,0-.03v-7.06s-.03-.06-.06-.06c0,0-.01,0-.02,0Z"/>
	<path class="cls-1" d="M120.2,39.29v-5.79c0-.07-.04-.14-.11-.16l-1.43-.54s-.07-.06-.07-.1l.02-1.51s.02-.05,.05-.05c0,0,.01,0,.02,0l3.99,1.52s.06,.05,.06,.1v8.95s-.02,.06-.05,.06c0,0,0,0-.01,0l-3.99-1.02s-.07-.05-.07-.09l-.02-1.6s.03-.07,.07-.07c0,0,.01,0,.02,0l1.45,.37s.06-.01,.07-.04c0,0,0,0,0-.01Z"/>
	<path class="cls-1" d="M62.99,34.13l-.59,.11s-.06-.01-.07-.05c0,0,0,0,0-.01v-1.99c0-.06,.03-.11,.09-.13l3.14-.77s.06,.01,.07,.04c0,0,0,0,0,.01,.02,3.69,.03,7.38,.04,11.08,0,0-.01,.39-.04,1.15-.01,.38,0,.77,.04,1.15,.02,.18,0,.46-.05,.86,0,.04-.04,.07-.08,.08l-2.3,.26s-.06-.02-.06-.05c0,0,0,0,0,0l.03-11.58c0-.1-.08-.17-.18-.17-.01,0-.02,0-.03,0Z"/>
	<path class="cls-1" d="M76.75,34.23l-.02,11.73s-.02,.05-.05,.05c0,0,0,0,0,0l-2.31-.28s-.07-.04-.07-.08l-.02-14.24s.03-.06,.06-.06c0,0,0,0,.01,0l3.15,.77s.07,.05,.08,.09c.06,.67,.06,1.34,0,2.03,0,.04-.04,.07-.08,.06,0,0,0,0-.01,0l-.67-.14s-.06,.02-.07,.05c0,0,0,0,0,.01Z"/>
	<path class="cls-1" d="M9.16,33.75l.66-.25s.09,0,.1,.04c0,0,0,.02,0,.02v.91c0,.06-.04,.11-.09,.14l-3.52,1.42s-.07,0-.08-.04c0,0,0-.02,0-.02v-.84c0-.06,.05-.12,.12-.16l.71-.33s.06-.05,.08-.11l.9-2.09s.04-.05,.07,0l.94,1.28s.07,.06,.11,.05Z"/>
	<path class="cls-1" d="M132.49,35.07c-.38-.15-.76-.31-1.13-.49-.04-.02-.07-.06-.07-.1l-.02-.95s.02-.05,.05-.05c0,0,.01,0,.02,0l.76,.31c.1,.04,.21,.01,.27-.07l.87-1.26s.05-.04,.07,0c.28,.62,.55,1.24,.8,1.85,.07,.17,.15,.3,.25,.37,.13,.1,.27,.17,.43,.19,.14,.02,.24,.14,.24,.29v.8s-.02,.05-.05,.05c0,0-.01,0-.02,0-.85-.32-1.68-.63-2.49-.94Z"/>
	<path class="cls-1" d="M56.85,35.54l-.69,.13c-.07,.01-.14-.03-.15-.09,0,0,0-.01,0-.02v-1.84c0-.08,.05-.14,.12-.16l3.23-.76s.09,.02,.1,.06c0,0,0,.01,0,.02v13.38c0,.05-.04,.09-.09,.1l-2.38,.25s-.07-.02-.07-.06c0,0,0,0,0,0v-10.96s-.03-.07-.07-.07c0,0,0,0-.01,0Z"/>
	<path class="cls-1" d="M83.16,35.68l-.02,11.05s-.03,.07-.06,.07c0,0,0,0,0,0l-2.36-.29c-.06,0-.1-.06-.1-.12v-13.44s.03-.06,.06-.06c0,0,0,0,.01,0l3.28,.78s.07,.05,.07,.09l.02,1.93s-.03,.06-.06,.06c0,0,0,0-.01,0l-.76-.13s-.06,.01-.07,.04c0,0,0,0,0,0Z"/>
	<path class="cls-1" d="M13.06,36.16l-.76,.26s-.06,0-.07-.03c0,0,0,0,0-.01v-1.29c0-.06,.03-.12,.09-.14l3.71-1.44s.05,0,.06,.03c0,0,0,.01,0,.02v8.23c0,.07-.05,.13-.11,.15-.94,.3-1.86,.53-2.77,.68-.03,0-.06-.02-.07-.05,0,0,0,0,0-.01l-.02-6.33s-.02-.05-.05-.05c0,0-.01,0-.02,0Z"/>
	<path class="cls-1" d="M127.72,36.24v6.73s-.04,.06-.07,.06c0,0,0,0-.01,0l-2.65-.67s-.07-.05-.07-.09l.02-8.67s.02-.05,.05-.05c0,0,.01,0,.02,0l3.82,1.45s.07,.05,.07,.1l.02,1.37s-.04,.08-.09,.08c-.01,0-.02,0-.03,0l-1-.35s-.06,0-.06,.04c0,0,0,.01,0,.02Z"/>
	<path class="cls-1" d="M50.54,36.95l-.73,.16c-.06,.01-.13-.02-.14-.08,0,0,0-.02,0-.02v-1.77c0-.06,.04-.11,.1-.13l3.4-.82s.08,.02,.09,.05c0,0,0,.01,0,.02v12.61c0,.06-.04,.1-.1,.11l-2.41,.28c-.06,0-.12-.04-.13-.1,0,0,0,0,0-.01v-10.23s-.03-.07-.07-.07c0,0,0,0-.01,0Z"/>
	<path class="cls-1" d="M89.61,37.1s-.1,.03-.11,.08c0,0,0,.01,0,.02v10.33s-.03,.07-.06,.07c0,0,0,0,0,0l-2.41-.28c-.05,0-.09-.05-.09-.11v-12.68s.04-.09,.09-.09c0,0,.01,0,.02,0l3.39,.84s.07,.05,.07,.09l.03,1.82c0,.05-.05,.09-.11,.09,0,0-.02,0-.02,0l-.78-.16Z"/>
	<path class="cls-1" d="M2.96,36.38l.67-.26s.06,0,.07,.02c0,0,0,.01,0,.02v.86s-.02,.08-.07,.09c-1.14,.46-2.29,.92-3.44,1.37-.15,.06-.22,0-.2-.17,.01-.08,.01-.15,0-.22-.01-.16,0-.31,.06-.45,.02-.04,.05-.07,.1-.08,.23-.05,.43-.14,.6-.27,.14-.11,.25-.28,.35-.53,.22-.57,.45-1.13,.69-1.69,.04-.09,.08-.09,.14-.01l.9,1.28s.07,.05,.11,.04Z"/>
	<path class="cls-1" d="M138.68,36.34l.88-1.22c.05-.08,.1-.07,.14,.02,.24,.59,.48,1.2,.71,1.82,.1,.26,.29,.41,.58,.44,.25,.03,.37,.17,.37,.41v.63s-.03,.07-.07,.07c0,0-.02,0-.03,0l-3.56-1.42s-.07-.06-.07-.1v-.85s.03-.05,.06-.05c0,0,.01,0,.02,0l.87,.29s.08,0,.11-.04Z"/>
	<path class="cls-1" d="M44.31,38.35l-.91,.19s-.06-.01-.07-.04c0,0,0,0,0-.01l.02-1.73s.03-.08,.07-.09l3.58-.87s.09,.02,.1,.06c0,0,0,.01,0,.02v11.78c0,.06-.05,.12-.11,.12l-2.52,.28s-.07-.02-.07-.05c0,0,0,0,0,0l-.02-9.6s-.02-.05-.05-.05c0,0,0,0,0,0Z"/>
	<path class="cls-1" d="M6.82,38.47l-.47,.14s-.1,0-.11-.04c0,0,0-.02,0-.02l.02-1.16s.03-.08,.07-.1l3.54-1.38s.06,0,.06,.03c0,0,0,.01,0,.02v7.43c0,.06-.04,.12-.1,.13l-2.78,.72c-.06,.02-.13-.02-.14-.08,0,0,0-.02,0-.03v-5.6s-.03-.06-.06-.06c0,0,0,0-.01,0Z"/>
	<path class="cls-1" d="M134.07,38.54v6.07s-.04,.06-.07,.06c0,0-.01,0-.02,0l-2.62-.66s-.08-.05-.08-.1v-7.9s.03-.05,.06-.05c0,0,.01,0,.02,0l3.59,1.36s.07,.05,.07,.09l.02,1.27s-.03,.06-.06,.06c0,0-.01,0-.02,0l-.82-.24s-.06,0-.06,.03c0,0,0,0,0,.01Z"/>
	<path class="cls-1" d="M95.89,38.61c.03,2.68,.03,5.35,0,8.03,0,.15,0,.43,.03,.85,.01,.27,.01,.55,0,.85,0,.04-.04,.07-.08,.07,0,0,0,0,0,0l-2.43-.29c-.07,0-.13-.07-.13-.14v-11.94s.03-.06,.06-.06c0,0,0,0,.01,0l3.53,.85c.07,.02,.11,.08,.11,.15v1.57c0,.08-.07,.15-.16,.15,0,0-.02,0-.03,0l-.83-.16s-.06,.02-.07,.05c0,0,0,0,0,.01Z"/>
	<path class="cls-1" d="M37.98,39.78l-.89,.19c-.05,.01-.1-.02-.11-.07,0,0,0-.01,0-.02v-1.54c0-.08,.06-.16,.14-.18l3.67-.88s.09,.02,.1,.06c0,0,0,.01,0,.02,0,.86,0,1.72,0,2.58-.01,.89-.01,1.75,0,2.58,.03,1.95,.02,3.91-.03,5.86,0,.04-.03,.07-.07,.08l-2.58,.28s-.07-.02-.07-.06c0,0,0,0,0,0l-.02-8.8c0-.06-.05-.11-.1-.11,0,0-.01,0-.02,0Z"/>
	<path class="cls-1" d="M102.31,40.05c-.04,1.51-.05,3.03-.03,4.54,.02,1.46,.02,2.95-.02,4.49,0,.04-.03,.07-.07,.07,0,0,0,0,0,0l-2.49-.29s-.07-.04-.07-.09v-11.17s.03-.06,.06-.06c0,0,.01,0,.02,0l3.6,.86s.07,.05,.07,.09v1.64s-.03,.06-.06,.06c0,0,0,0-.01,0l-.92-.18s-.06,.01-.07,.05c0,0,0,0,0,0Z"/>
	<path class="cls-1" d="M144.02,39.6c-.05-.02-.08-.07-.09-.13v-.74s.01-.06,.04-.06c0,0,.01,0,.02,0l.64,.27c.07,.03,.15,0,.19-.05l.88-1.28s.05-.04,.07,0c.27,.59,.52,1.19,.76,1.79,.08,.2,.17,.33,.29,.41,.14,.09,.3,.15,.5,.18,.12,.02,.2,.12,.2,.24v.66s-.03,.05-.05,.05c0,0-.01,0-.02,0l-3.43-1.34Z"/>
	<path class="cls-1" d="M.55,40.78l-.43,.15s-.08,0-.1-.05c0,0,0-.02,0-.03l.02-1.05s.03-.08,.07-.1l3.55-1.39s.05,0,.06,.03c0,0,0,.01,0,.02v6.63s-.02,.09-.07,.1l-2.91,.74s-.06-.01-.07-.04c0,0,0,0,0-.01v-4.92s-.05-.09-.09-.09c0,0-.02,0-.03,0Z"/>
	<path class="cls-1" d="M140.45,40.86c-.04,2.18-.06,3.51-.04,4.01,.02,.66,.02,1.1,0,1.33,0,.03-.03,.06-.07,.06,0,0,0,0-.01,0l-2.65-.69s-.07-.05-.07-.09l-.02-7.05s.02-.05,.05-.05c0,0,.01,0,.02,0l3.63,1.36s.07,.06,.07,.1v1.14s-.04,.09-.09,.09c0,0-.02,0-.03,0l-.72-.25s-.06,0-.07,.04c0,0,0,.01,0,.02Z"/>
	<path class="cls-1" d="M31.78,41.22l-1,.22c-.05,.01-.11-.02-.12-.07,0,0,0-.01,0-.02v-1.5c0-.06,.04-.11,.09-.12l3.88-.94s.08,.02,.08,.05c0,0,0,.01,0,.02l-.03,10.21s-.03,.08-.07,.08l-2.66,.32s-.08-.03-.09-.07c0,0,0,0,0-.01v-8.1s-.03-.07-.07-.07c0,0,0,0-.01,0Z"/>
	<path class="cls-1" d="M108.65,41.53v8.34s-.04,.08-.09,.08c0,0,0,0-.01,0l-2.57-.29s-.06-.03-.06-.06v-10.43c0-.06,.05-.12,.11-.12,0,0,.02,0,.03,0l3.68,.9s.08,.05,.08,.1v1.6s-.03,.05-.06,.05c0,0,0,0-.01,0l-1.05-.23s-.06,.02-.07,.05c0,0,0,0,0,.01Z"/>
	<path class="cls-1" d="M25.54,42.6l-.49,.12c-.06,.01-.12-.02-.13-.07,0,0,0-.02,0-.02v-1.38c0-.08,.05-.15,.13-.17l3.33-.8s.09,.02,.1,.06c0,0,0,.01,0,.02v9.43s-.03,.08-.07,.08l-2.68,.3s-.09-.03-.1-.08c0,0,0,0,0,0v-7.42s-.03-.06-.06-.06c0,0,0,0-.01,0Z"/>
	<path class="cls-1" d="M115.03,43.01v30s-.04,.07-.07,.07l-2.61,.36s-.07-.02-.07-.05c0,0,0,0,0,0V40.67s.03-.09,.08-.09c0,0,.01,0,.02,0l3.83,.94s.08,.05,.08,.1v1.44c0,.05-.05,.1-.11,.1,0,0-.01,0-.02,0l-1.06-.21s-.06,.02-.07,.05c0,0,0,0,0,.01Z"/>
	<path class="cls-1" d="M146.76,43.19l-.02,4.64s-.02,.06-.06,.06c0,0-.01,0-.01,0l-2.67-.68s-.07-.05-.07-.09v-6.3s.02-.05,.05-.05c0,0,.01,0,.02,0l3.42,1.31c.07,.03,.11,.09,.11,.16v1.02c0,.05-.05,.09-.11,.09-.01,0-.03,0-.04,0l-.55-.21s-.06,0-.07,.04c0,0,0,.01,0,.02Z"/>
	<path class="cls-1" d="M19.33,44.06c-.23-.02-.45,0-.67,.1-.08,.03-.18,0-.21-.09,0-.02-.01-.04-.01-.07l.05-1.26s.03-.08,.07-.09l3.67-.9s.06,.01,.07,.04c0,0,0,0,0,.01v8.62c0,.07-.04,.13-.11,.14l-2.66,.28c-.07,0-.13-.04-.14-.11,0,0,0,0,0-.01l.02-6.59s-.03-.08-.07-.08Z"/>
	<path class="cls-1" d="M120.13,44.05l-1.41-.32c-.08-.02-.14-.09-.14-.17v-1.38s.03-.06,.06-.06c0,0,0,0,.01,0l4.01,.96s.07,.05,.07,.1v28.72s-.04,.07-.08,.08l-2.38,.33s-.07-.02-.07-.05c0,0,0,0,0,0l-.02-28.12s-.03-.08-.07-.09Z"/>
	<path class="cls-1" d="M13.06,45.45l-.74,.12s-.07-.01-.08-.05c0,0,0,0,0-.01v-1.25s.03-.08,.07-.09l3.69-.92s.06,.01,.07,.04c0,0,0,0,0,.01v7.85s-.03,.08-.07,.08l-2.79,.35s-.07-.02-.07-.06c0,0,0,0,0,0l-.02-6.01s-.03-.06-.06-.06c0,0,0,0-.01,0Z"/>
	<path class="cls-1" d="M127.72,45.87v6.36s-.04,.08-.09,.08c0,0,0,0-.01,0l-2.65-.33s-.05-.03-.05-.05l.02-8.18s.03-.06,.06-.06c0,0,0,0,.01,0l3.83,.89s.08,.05,.08,.1v1.21c0,.08-.06,.14-.14,.14-.01,0-.02,0-.03,0l-.94-.22s-.06,.01-.07,.05c0,0,0,0,0,.01Z"/>
	<path class="cls-1" d="M6.82,46.86l-.48,.07s-.07-.02-.08-.05c0,0,0,0,0,0l-.02-1.1c0-.09,.07-.17,.17-.19l3.45-.83s.06,.01,.07,.04c0,0,0,0,0,.01v7.08s-.04,.07-.08,.08l-2.74,.33c-.11,.01-.21-.06-.22-.17,0,0,0-.02,0-.03,.02-.99,.02-1.94,.02-2.86,0-.04,0-.43,.03-1.15,.01-.38,0-.77-.04-1.15,0-.04-.04-.07-.08-.07,0,0,0,0,0,0Z"/>
	<path class="cls-1" d="M134.07,47.35v5.66c0,.05-.05,.09-.1,.09,0,0,0,0-.01,0l-2.58-.33c-.05,0-.09-.05-.09-.11v-7.42s.03-.06,.06-.06c0,0,0,0,.01,0l3.56,.86s.08,.05,.08,.09c.07,.44,.08,.84,.03,1.2,0,.04-.04,.07-.08,.06l-.8-.11s-.07,.02-.07,.05c0,0,0,0,0,0Z"/>
	<path class="cls-1" d="M.52,48.25l-.41,.12s-.07,0-.08-.04c0,0,0-.01,0-.02l-.02-1.08s.03-.08,.07-.09l3.57-.88s.06,.01,.07,.04c0,0,0,0,0,.01v6.25c0,.06-.05,.11-.11,.12l-2.87,.3s-.09-.03-.09-.07c0,0,0,0,0,0v-4.56c0-.06-.05-.1-.11-.1-.01,0-.02,0-.03,0Z"/>
	<path class="cls-1" d="M140.45,48.79l-.04,5s-.03,.07-.06,.07c0,0,0,0,0,0l-2.65-.31s-.07-.04-.07-.08v-6.67s.03-.07,.07-.07c0,0,.01,0,.02,0l3.56,.86s.07,.05,.07,.08l.02,1.09c0,.06-.05,.11-.12,.11,0,0-.02,0-.03,0l-.69-.14s-.06,.02-.07,.05c0,0,0,0,0,.01Z"/>
	<rect class="cls-1" x="68.48" y="47.28" width="2.79" height="13.26" rx=".14" ry=".14"/>
	<path class="cls-1" d="M63.19,50.25c0-.08-.08-.15-.19-.15,0,0,0,0,0,0h-.59s-.07-.03-.07-.07l-.02-1.93c0-.07,.06-.14,.14-.15l3.1-.3s.07,.02,.07,.06c0,0,0,0,0,0v12.72s-.04,.07-.08,.07c0,0,0,0,0,0l-2.27-.07s-.07-.03-.07-.07l-.02-10.12Z"/>
	<path class="cls-1" d="M76.75,50.24v10.21c0,.08-.07,.14-.15,.14,0,0,0,0,0,0l-2.23-.05s-.07-.03-.07-.07l-.03-12.64c0-.06,.05-.11,.11-.11,0,0,0,0,.01,0l3.12,.33s.07,.04,.08,.08c.05,.68,.06,1.36,0,2.04,0,.04-.04,.07-.08,.07l-.7-.05s-.07,.02-.07,.05c0,0,0,0,0,0Z"/>
	<path class="cls-1" d="M56.85,50.63l-.72,.06c-.06,0-.11-.04-.12-.09,0,0,0,0,0,0v-1.9s.04-.08,.08-.08l3.3-.35s.07,.02,.07,.06c0,0,0,0,0,0v11.93c0,.07-.06,.13-.12,.13,0,0,0,0,0,0l-2.33-.04s-.07-.03-.07-.07l-.02-9.58s-.03-.07-.06-.07c0,0,0,0,0,0Z"/>
	<path class="cls-1" d="M146.76,50.2l-.02,4.39s-.03,.07-.06,.07c0,0,0,0,0,0l-2.66-.34s-.07-.04-.07-.08v-5.9s.02-.07,.06-.07c0,0,.01,0,.02,0l3.42,.84s.07,.05,.07,.09v.98c.02,.06-.04,.11-.1,.11-.01,0-.02,0-.03,0l-.54-.14s-.06,.01-.07,.04c0,0,0,0,0,.01Z"/>
	<path class="cls-1" d="M83.13,50.87l.03,9.6c0,.07-.06,.12-.12,.12h0s-2.34,0-2.34,0c-.04,0-.08-.04-.08-.08v-12.01c0-.06,.05-.1,.1-.1,0,0,0,0,.01,0l3.26,.38s.07,.04,.07,.08l-.02,1.9s-.03,.07-.07,.07c0,0,0,0,0,0l-.77-.02s-.07,.03-.07,.07c0,0,0,0,0,0Z"/>
	<path class="cls-1" d="M50.52,51.16l-.78,.06s-.07-.02-.07-.06c0,0,0,0,0,0v-1.85s.04-.08,.08-.09l3.44-.34s.07,.02,.07,.05c0,0,0,0,0,0v11.3s-.03,.07-.07,.07l-2.44-.03c-.07,0-.12-.06-.12-.12v-8.9s-.04-.09-.09-.09c0,0,0,0,0,0Z"/>
	<path class="cls-1" d="M89.31,60.64h-2.26c-.07-.01-.12-.07-.12-.14v-11.33s.03-.07,.07-.07c0,0,0,0,0,0l3.41,.38c.06,0,.11,.06,.11,.11l-.02,1.79s-.03,.06-.07,.06c0,0,0,0,0,0h-.83s-.07,.02-.07,.06l-.03,8.94c0,.1-.08,.17-.18,.17h0Z"/>
	<path class="cls-1" d="M44.28,51.68l-.88,.08s-.07-.02-.07-.05c0,0,0,0,0,0v-1.74c0-.06,.04-.11,.1-.11l3.59-.37s.08,.02,.08,.06c0,0,0,0,0,0v10.57s-.04,.07-.08,.07c0,0,0,0,0,0l-2.56-.04s-.07-.03-.07-.07v-8.31c0-.06-.05-.1-.1-.1,0,0,0,0,0,0Z"/>
	<path class="cls-1" d="M95.92,52.11c-.03,1.04-.05,2.09-.04,3.13,.01,1.78,.01,3.55,0,5.33,0,.04-.03,.07-.07,.07l-2.46,.02s-.08-.04-.08-.09h0v-10.65c0-.05,.04-.09,.09-.09,0,0,0,0,.01,0l3.48,.38c.07,0,.13,.07,.13,.15l-.03,1.64s-.03,.07-.07,.07c0,0,0,0,0,0l-.88-.03s-.07,.03-.07,.07c0,0,0,0,0,0Z"/>
	<path class="cls-1" d="M38.02,52.25l-.97,.02s-.07-.03-.07-.07c0,0,0,0,0,0l.02-1.61c0-.06,.05-.11,.11-.11l3.6-.36c.08,0,.16,.05,.17,.14,0,0,0,0,0,.01l-.03,9.74c0,.05-.04,.1-.09,.1h0l-2.53-.03c-.07,0-.12-.06-.12-.13v-7.62s-.04-.07-.08-.07c0,0,0,0,0,0Z"/>
	<path class="cls-1" d="M102.27,52.74l.02,7.88s-.03,.07-.07,.07h-2.51c-.05,0-.09-.03-.09-.09v-9.98s.04-.06,.07-.07c0,0,0,0,0,0,1.21,.08,2.4,.21,3.6,.39,.04,0,.07,.04,.07,.08l.02,1.61c0,.06-.05,.11-.12,.1,0,0,0,0-.01,0l-.91-.08s-.07,.03-.07,.07c0,0,0,0,0,0Z"/>
	<path class="cls-1" d="M31.76,52.75l-1.01,.06s-.07-.03-.08-.06c0,0,0,0,0,0v-1.53s.03-.07,.08-.08l3.86-.38s.09,.03,.09,.08c0,0,0,0,0,0v9.09c0,.06-.04,.11-.1,.11h0s-2.57-.03-2.57-.03c-.1,0-.17-.08-.17-.17v-6.99s-.04-.09-.09-.09c0,0,0,0,0,0Z"/>
	<path class="cls-1" d="M107.05,60.73c-.35-.02-.7-.03-1.05-.03-.04,0-.07-.03-.07-.07,0,0,0,0,0,0v-9.31s.04-.09,.09-.09c0,0,0,0,0,0l3.72,.43s.07,.04,.07,.08l.02,1.55s-.03,.06-.07,.06c0,0,0,0,0,0l-.98-.12c-.07,0-.13,.04-.14,.11,0,0,0,.01,0,.02l-.02,7.28s-.03,.07-.07,.08c-.5,.04-1,.04-1.5,.01Z"/>
	<path class="cls-1" d="M25.54,53.27l-.55,.03s-.07-.02-.07-.06c0,0,0,0,0,0v-1.45c0-.05,.04-.09,.09-.1l3.39-.32s.07,.02,.07,.06c0,0,0,0,0,0v8.41s-.04,.08-.08,.08l-2.65-.04c-.07,0-.12-.06-.12-.12v-6.43s-.04-.07-.08-.07c0,0,0,0,0,0Z"/>
	<path class="cls-1" d="M19.3,53.83h-.76s-.07-.01-.07-.05h0s0-1.35,0-1.35c0-.04,.03-.08,.07-.08l3.69-.38s.07,.02,.07,.06c0,0,0,0,0,0v7.74s-.03,.07-.07,.07l-2.66-.02c-.1,0-.18-.08-.18-.17l-.02-5.74s-.03-.07-.07-.07c0,0,0,0,0,0Z"/>
	<path class="cls-1" d="M13.04,54.33l-.71,.06c-.05,0-.1-.03-.1-.08,0,0,0,0,0,0l.02-1.27s.03-.07,.08-.08l3.7-.36s.07,.02,.07,.06c0,0,0,0,0,0v6.97s-.02,.07-.06,.07c0,0,0,0,0,0l-2.81-.04s-.07-.03-.07-.07h0v-5.18s-.05-.09-.1-.09c0,0,0,0,0,0Z"/>
	<path class="cls-1" d="M6.82,54.86l-.45,.06c-.07,0-.13-.03-.14-.1,0,0,0,0,0-.01v-1.15s.04-.07,.08-.08l3.54-.37s.07,.02,.07,.06c0,0,0,0,0,0v6.28c0,.05-.03,.09-.09,.09,0,0,0,0,0,0l-2.76-.05c-.1,0-.18-.09-.18-.19v-4.48s-.03-.07-.07-.07c0,0,0,0,0,0Z"/>
	<path class="cls-1" d="M127.72,55.17v5.52s-.04,.08-.09,.08h-2.64s-.07-.03-.07-.07h0s.02-7.25,.02-7.25c0-.04,.03-.07,.07-.07,0,0,0,0,0,0,1.26,.09,2.54,.23,3.83,.42,.04,0,.07,.04,.07,.08v1.22s-.03,.07-.07,.07c0,0,0,0,0,0l-1.04-.07s-.07,.03-.07,.07c0,0,0,0,0,0Z"/>
	<path class="cls-1" d="M.55,55.39H.11s-.07-.01-.07-.05c0,0,0,0,0,0v-1.06s.03-.08,.07-.09l3.54-.35s.07,.02,.07,.06c0,0,0,0,0,0v5.55s-.03,.09-.08,.09c0,0,0,0,0,0l-2.82-.05c-.09,0-.17-.08-.17-.17l-.03-3.87s-.03-.07-.07-.07h0Z"/>
	<path class="cls-1" d="M134.07,55.77v4.95s-.04,.08-.09,.08h-2.59c-.06,0-.11-.05-.11-.11h0s0-6.58,0-6.58c0-.03,.03-.06,.06-.06,0,0,0,0,0,0l3.6,.42s.08,.04,.08,.08l-.02,1.11s-.03,.07-.08,.07c0,0,0,0,0,0l-.79-.03s-.07,.03-.07,.07c0,0,0,0,0,0Z"/>
	<path class="cls-1" d="M140.45,56.37l-.03,4.37s-.03,.07-.07,.07c-.88,.04-1.75,.03-2.63-.03-.04,0-.07-.04-.07-.08l-.03-5.85s.04-.08,.08-.08c0,0,0,0,0,0l3.55,.41s.08,.04,.08,.08v.99c.01,.07-.04,.12-.11,.12,0,0,0,0-.01,0l-.7-.06s-.07,.02-.07,.06c0,0,0,0,0,0Z"/>
	<path class="cls-1" d="M146.76,56.97l-.02,3.83s-.03,.07-.07,.07h0l-2.63-.02c-.06,0-.11-.05-.11-.11v-5.17s.04-.07,.07-.07c0,0,0,0,0,0l3.4,.36c.07,0,.12,.06,.12,.13v.86c0,.06-.05,.1-.11,.1,0,0,0,0,0,0l-.58-.05s-.07,.03-.07,.07c0,0,0,0,0,0Z"/>
	<path class="cls-1" d="M.56,61.84H.11s-.07-.05-.07-.09v-1.1c0-.05,.04-.1,.09-.1,0,0,0,0,0,0l3.5,.13s.07,.03,.07,.07l.03,7.2s-.04,.08-.08,.08c0,0,0,0-.01,0l-2.9-.49s-.07-.04-.07-.08v-5.52c0-.06-.05-.1-.11-.1Z"/>
	<path class="cls-1" d="M6.28,62.01c-.06-.31-.07-.69-.03-1.13,0-.08,.08-.14,.16-.14l3.45,.1s.07,.03,.07,.07v8.13s-.03,.06-.06,.06c0,0,0,0-.01,0l-2.81-.49c-.08-.01-.14-.09-.14-.17v-6.2s-.03-.09-.07-.09l-.47-.07s-.08-.03-.08-.07Z"/>
	<path class="cls-1" d="M12.53,62.38c-.08-.01-.15-.02-.23-.03-.04,0-.07-.04-.07-.07v-1.29s.03-.07,.07-.07c0,0,0,0,0,0l3.72,.07s.07,.03,.07,.07v9.05s-.03,.08-.07,.08c0,0,0,0-.01,0l-2.79-.49s-.07-.04-.07-.08v-7.05c0-.09-.08-.17-.17-.17,0,0,0,0-.01,0-.14,.01-.29,0-.43-.01Z"/>
	<path class="cls-1" d="M19.3,62.68l-.76-.04s-.07-.04-.07-.08l-.02-1.41s.03-.07,.07-.07c0,0,0,0,0,0l3.7,.08s.08,.04,.08,.08v9.97s-.02,.06-.05,.06c0,0,0,0-.01,0l-2.76-.47c-.06,0-.11-.06-.11-.13v-7.92s-.04-.07-.08-.07Z"/>
	<path class="cls-1" d="M25.54,62.93h-.5c-.07,0-.12-.06-.12-.13v-1.5s.03-.07,.07-.07c0,0,0,0,0,0l3.41,.11s.08,.04,.08,.09v10.86s-.03,.06-.06,.06c0,0,0,0-.01,0l-2.71-.47s-.07-.04-.07-.08l-.02-8.8s-.03-.07-.07-.07Z"/>
	<path class="cls-1" d="M30.71,63.15s-.02-.01-.02-.02v-1.66s.03-.07,.07-.07c0,0,0,0,0,0l3.82,.12c.08,0,.14,.07,.14,.14v11.71s-.03,.06-.06,.06c0,0,0,0-.01,0l-2.59-.44c-.11-.02-.19-.12-.19-.23l-.03-9.45s-.03-.07-.07-.08l-1.05-.07Z"/>
	<path class="cls-1" d="M38.02,63.53l-.97-.08s-.07-.04-.07-.08l.02-1.68s.03-.07,.07-.07c0,0,0,0,0,0l3.71,.06s.07,.03,.07,.07l.03,12.64c0,.06-.05,.12-.12,.12,0,0-.01,0-.02,0l-2.53-.44c-.07-.01-.12-.07-.12-.14v-10.31s-.04-.07-.08-.08Z"/>
	<path class="cls-1" d="M43.83,63.76c-.14-.03-.27-.04-.42-.03-.05,0-.1-.04-.1-.09,0,0,0,0,0,0v-1.79c0-.05,.04-.1,.1-.1,0,0,0,0,0,0l3.54,.07c.07,0,.13,.06,.13,.13v13.56s-.03,.06-.06,.06c0,0,0,0,0,0l-2.57-.43s-.07-.04-.07-.09v-11.13c0-.09-.07-.17-.17-.17,0,0-.02,0-.02,0-.15,.02-.27,.03-.35,0Z"/>
	<path class="cls-1" d="M50.54,64.05l-.79-.04s-.09-.04-.09-.09v-1.89c0-.06,.05-.11,.11-.11,0,0,0,0,0,0l3.38,.08c.06,0,.11,.05,.11,.11v14.44s-.04,.06-.07,.06c0,0,0,0,0,0l-2.49-.4s-.07-.04-.07-.08l-.02-12s-.03-.07-.07-.08Z"/>
	<path class="cls-1" d="M146.76,68.37c0,.09-.07,.17-.16,.18l-2.59,.37s-.07-.02-.07-.05c0,0,0,0,0,0v-6.86s.02-.07,.06-.07l3.38-.04c.07,0,.14,.05,.14,.12,0,0,0,0,0,0l-.02,1.07s-.04,.07-.08,.07l-.56,.03s-.07,.04-.07,.08l-.02,5.11Z"/>
	<path class="cls-1" d="M140.41,69.34s-.04,.09-.08,.1l-2.64,.39s-.06-.02-.07-.05c0,0,0,0,0,0l.03-7.7s.03-.07,.07-.07l3.56-.03s.07,.03,.07,.07c0,0,0,0,0,0v1.17c0,.05-.04,.09-.09,.09h-.71c-.06,0-.11,.05-.11,.11l-.03,5.92Z"/>
	<path class="cls-1" d="M134.04,70.3s-.02,.05-.05,.05l-2.62,.37s-.07-.02-.07-.05c0,0,0,0,0,0l-.03-8.52c0-.07,.06-.12,.12-.12h3.54s.07,.03,.08,.07c.04,.44,.04,.87-.02,1.28,0,.04-.04,.08-.08,.08h-.71c-.08,0-.15,.07-.15,.15l-.03,6.71Z"/>
	<path class="cls-1" d="M124.92,71.57l.02-9.42s.03-.07,.07-.07l3.83-.03s.07,.03,.07,.07c0,0,0,0,0,0v1.36s-.03,.08-.07,.08l-.98,.03c-.08,0-.14,.06-.14,.13v7.45c0,.05-.04,.1-.09,.1l-2.63,.37s-.07-.02-.07-.05c0,0,0,0,0,0Z"/>
	<path class="cls-1" d="M56.74,64.32l-.63-.02c-.05,0-.1-.04-.1-.1v-2.06s.03-.07,.07-.07c0,0,0,0,0,0l3.31,.11s.07,.04,.07,.08v15.41s-.03,.06-.06,.06c0,0,0,0-.01,0l-2.41-.4s-.07-.04-.07-.08v-12.73c0-.1-.08-.19-.18-.19Z"/>
	<path class="cls-1" d="M105.96,62.21l3.84-.02s.07,.03,.07,.07c0,0,0,0,0,0l-.02,1.67s-.04,.08-.08,.08h-1.01c-.06,0-.11,.05-.11,.11h0v9.79c0,.05-.04,.1-.1,.11l-2.48,.36c-.06,0-.12-.03-.13-.09,0,0,0-.01,0-.02v-12.05s0-.02,.02-.02Z"/>
	<path class="cls-1" d="M102.27,74.84s-.04,.09-.09,.1l-2.46,.34c-.05,0-.1-.03-.1-.08,0,0,0,0,0-.01v-12.86s.04-.07,.08-.07h0l3.6-.02s.07,.03,.07,.07h0s.02,1.72,.02,1.72c0,.06-.06,.12-.13,.12l-.92,.06s-.07,.04-.07,.08v10.53Z"/>
	<path class="cls-1" d="M95.93,64.41v11.34s-.03,.07-.07,.07l-2.46,.36c-.06,0-.11-.03-.12-.09,0,0,0,0,0-.01v-13.68c0-.06,.05-.11,.11-.11l3.48-.03c.05,0,.09,.04,.09,.09,0,0,0,0,0,0v1.82c0,.07-.07,.14-.15,.14l-.82,.02s-.07,.04-.07,.08Z"/>
	<path class="cls-1" d="M63.09,64.61l-.58-.03c-.11,0-.19-.09-.19-.18v-2.03s.04-.07,.08-.07l3.18,.06s.06,.03,.06,.07v16.28s-.04,.06-.07,.06c0,0,0,0-.01,0l-2.28-.36s-.07-.04-.07-.08c-.01-5.27-.02-9.12,0-11.55,0-.82-.01-1.51-.04-2.07,0-.05-.03-.08-.07-.08Z"/>
	<path class="cls-1" d="M87.02,62.36l3.39-.04c.06,0,.11,.05,.11,.11,0,0,0,0,0,0l-.02,1.9s-.03,.07-.07,.07l-.83,.05s-.07,.03-.07,.07l-.03,12.11c0,.05-.04,.09-.08,.1l-2.37,.34c-.06,0-.12-.04-.12-.1,0,0,0,0,0-.01v-14.53s.04-.08,.09-.08h0Z"/>
	<path class="cls-1" d="M83.23,64.59s-.08,.04-.08,.08v12.86c0,.07-.05,.13-.12,.14l-2.36,.35s-.05-.02-.06-.04c0,0,0,0,0,0v-15.51s.03-.07,.07-.07h0l3.18-.03c.08,0,.15,.06,.15,.14h0s.03,1.95,.03,1.95c0,.07-.06,.13-.13,.13,0,0,0,0,0,0h-.69Z"/>
	<path class="cls-1" d="M68.57,79.32s-.08-.05-.08-.1v-16.69s.03-.07,.07-.07h2.62s.09,.05,.09,.1h0s0,16.72,0,16.72c0,.04-.03,.08-.07,.08-.91,.2-1.79,.19-2.63-.05Z"/>
	<path class="cls-1" d="M76.75,64.83v13.69s-.04,.08-.08,.08l-2.31,.33s-.08-.02-.08-.06c0,0,0,0,0,0v-16.36s.04-.07,.08-.07h0l3.17,.02s.07,.03,.07,.07l-.02,2.12s-.03,.07-.08,.08l-.69,.04s-.07,.03-.07,.07Z"/>
	<path d="M7.39,96.78v-9.8s.05-.09,.09-.09c0,0,0,0,0,0l1.16,.02s.07,.04,.07,.08l.02,11.7s-.03,.07-.07,.07h-1.9c-.05,0-.1-.02-.12-.07-1.55-3.36-3.08-6.71-4.59-10.05-.02-.04-.04-.06-.07-.06-.03,0-.05,.04-.05,.09v10.02s-.04,.07-.08,.07H.66s-.07-.03-.07-.07H.59v-11.68c0-.07,.05-.12,.12-.12h1.88c.09,0,.17,.05,.2,.13l4.45,9.79c.09,.21,.14,.2,.14-.03Z"/>
	<rect x="24.18" y="86.9" width="1.55" height="1.45" rx=".07" ry=".07" transform="translate(-.15 .04) rotate(-.1)"/>
	<rect x="47.99" y="86.9" width="1.35" height="11.88" rx=".06" ry=".06"/>
	<path d="M54.7,88.43c-.06-.21-.1-.2-.1,.01v10.24c0,.05-.04,.1-.1,.1h-1.23s-.08-.04-.08-.08v-11.68c0-.07,.05-.12,.12-.12h2.23c.06,0,.11,.04,.13,.09l2.92,9.67c.04,.14,.09,.14,.13,0l2.94-9.67s.05-.07,.09-.07h2.37s.07,.04,.07,.08v11.7s-.04,.07-.08,.07h-1.37s-.07-.03-.07-.06c0,0,0,0,0,0v-10.29c0-.17-.03-.18-.08-.01l-3.26,10.3s-.05,.07-.09,.07h-1.29s-.08-.02-.1-.06l-3.17-10.27Z"/>
	<path d="M97.07,97.88c0-.06-.02-.07-.05-.02-.59,.88-1.42,1.21-2.49,.99-.75-.15-1.27-.55-1.55-1.19-.24-.55-.4-1.11-.46-1.69-.04-.37-.06-.95-.06-1.73,0-.82,.09-1.58,.28-2.27,.25-.91,.88-1.46,1.87-1.64,1.01-.18,1.8,.11,2.38,.88,.06,.08,.09,.07,.09-.03v-4.21s.03-.08,.08-.08h1.18s.07,.04,.07,.08h0v11.72s-.03,.07-.07,.07h-1.18s-.07-.03-.07-.07l-.02-.82Zm-2.4-.33c.63,.4,1.2,.39,1.7-.05,.18-.16,.32-.37,.43-.64,.11-.28,.18-.53,.2-.76,.07-.71,.08-1.62,.02-2.71-.01-.26-.06-.52-.13-.78-.21-.76-.66-1.15-1.35-1.17-.38-.01-.71,.08-.97,.28-.29,.22-.47,.54-.54,.96-.21,1.26-.21,2.51,0,3.77,.08,.52,.3,.89,.64,1.11Z"/>
	<path d="M115.6,87.7c.36,.33,.6,.75,.73,1.28,.08,.34,.13,.66,.15,.96,.02,.34,0,.66-.02,.97-.08,.75-.39,1.37-.94,1.84-.32,.28-.68,.47-1.1,.59-.36,.1-.78,.16-1.26,.19-.63,.04-1.26,.05-1.87,.04-.06,0-.11,.04-.11,.1,0,0,0,0,0,0v5.03s-.03,.08-.08,.08h-1.36s-.07-.04-.07-.08h0l.02-11.7s.03-.07,.07-.07c1.3-.04,2.59-.05,3.89,0,.75,.02,1.4,.28,1.95,.78Zm-1.31,.92c-.29-.26-.64-.38-1.03-.38h-1.96s-.08,.04-.08,.09l-.04,3.76c0,.07,.06,.14,.13,.14,0,0,0,0,0,0,.52,0,1.01-.01,1.48-.03,.59-.03,1.03-.12,1.31-.29,.44-.27,.71-.67,.79-1.21,.06-.4,.05-.76-.02-1.09-.08-.38-.28-.7-.59-.98Z"/>
	<rect x="117.21" y="86.91" width="1.54" height="1.43" rx=".06" ry=".06" transform="translate(-.31 .41) rotate(-.2)"/>
	<path d="M131.26,97.98c0-.13-.04-.14-.13-.03-.4,.54-.88,.85-1.44,.93-.37,.05-.75,.04-1.13-.04-.41-.08-.75-.28-1.02-.59-.36-.4-.59-.92-.7-1.55-.17-.96-.22-2.03-.14-3.21,.03-.49,.1-.93,.21-1.33,.12-.44,.29-.79,.52-1.06,.28-.33,.62-.55,1.03-.67,.49-.15,.97-.17,1.44-.07,.49,.11,.92,.38,1.28,.83,.08,.09,.11,.08,.11-.04v-4.17s.03-.07,.07-.07h1.21s.08,.04,.08,.08c0,0,0,0,0,0-.03,1.02-.04,2.04-.03,3.05,.02,2.88,.02,5.76,.01,8.65,0,.04-.03,.07-.07,.07h0l-1.18,.02c-.06,0-.12-.06-.12-.13,0,0,0,0,0,0v-.66Zm-2.46-.5c.35,.28,.74,.39,1.16,.31,.38-.07,.67-.28,.89-.63,.22-.35,.34-.76,.36-1.24,.05-.92,.05-1.75,0-2.49-.04-.64-.15-1.1-.33-1.39-.31-.5-.82-.69-1.52-.57-.2,.03-.36,.09-.49,.17-.16,.1-.28,.22-.37,.38-.17,.32-.29,.66-.33,1.04-.02,.12-.03,.47-.06,1.07-.03,.7,0,1.41,.07,2.11,.06,.54,.27,.96,.62,1.24Z"/>
	<path d="M145.41,97.85c0-.07-.02-.07-.05-.01-.35,.59-.83,.94-1.43,1.04-.53,.09-1.03,.04-1.52-.14-.52-.19-.9-.58-1.15-1.16-.11-.26-.2-.53-.25-.8-.31-1.66-.31-3.16,0-4.49,.31-1.34,1.17-2,2.58-1.98,.74,.01,1.32,.32,1.74,.93,.06,.09,.1,.08,.1-.03v-4.18c0-.07,.05-.12,.12-.12,0,0,0,0,0,0h1.15c.05,0,.1,.05,.1,.11v11.7s-.03,.07-.07,.07h-1.21c-.05,0-.09-.04-.09-.09v-.84Zm-2.46-.38c.21,.2,.43,.3,.67,.32,.93,.07,1.48-.35,1.63-1.26,.19-1.08,.22-2.16,.09-3.24-.07-.64-.22-1.1-.43-1.37-.35-.44-.88-.58-1.59-.41-.32,.08-.55,.24-.69,.5-.22,.39-.34,.85-.37,1.37-.05,.87-.05,1.74,0,2.61,.03,.59,.26,1.08,.68,1.48Z"/>
	<path d="M79.76,91.49h-1.15c-.06,0-.11-.06-.11-.12h0v-.84s.03-.08,.08-.08h1.18s.07-.04,.07-.08h0v-1.43s.03-.09,.07-.1l1.24-.55s.05,0,.06,.03c0,0,0,.01,0,.02v2.05s.03,.07,.07,.07h1.63c.05,0,.09,.04,.09,.08,0,0,0,0,0,0l-.04,.86s-.04,.07-.08,.07h-1.58c-.05,0-.09,.04-.09,.09v5.09c0,.25,.05,.46,.14,.63,.09,.17,.25,.29,.48,.37,.36,.12,.72,.14,1.11,.05,.04,0,.08,.01,.08,.05,0,0,0,0,0,0,.05,.22,.05,.44,0,.66,0,.04,0,.09,0,.14,.03,.13-.02,.19-.15,.19-.12,0-.19,0-.21,.01-.61,.11-1.19,.11-1.74,0-.41-.08-.7-.28-.89-.59-.11-.2-.17-.52-.18-.96-.03-1.89-.04-3.77-.04-5.66,0-.04-.03-.07-.07-.07,0,0,0,0,0,0Z"/>
	<path d="M14.35,97.69c-.33,.71-.84,1.11-1.54,1.2-.53,.07-1.02,.03-1.45-.11-.51-.17-.87-.56-1.08-1.15-.3-.87-.31-1.71-.03-2.5,.12-.33,.36-.61,.72-.85,.53-.35,1.08-.55,1.67-.6,.43-.04,.98-.06,1.67-.06,.04,0,.07-.03,.08-.07,.06-.54,.04-.96-.05-1.24-.23-.75-.75-1.06-1.55-.93-.65,.1-1.01,.53-1.07,1.29,0,.08-.07,.13-.15,.13h-1.22s-.07-.03-.07-.07c-.02-1,.35-1.7,1.12-2.09,.35-.18,.79-.28,1.32-.31,.46-.02,.92,.01,1.37,.1,.76,.15,1.26,.57,1.5,1.25,.12,.35,.18,.78,.17,1.3-.03,1.92,0,3.84,.12,5.75,0,.04-.02,.07-.06,.07,0,0,0,0,0,0h-1.31c-.05,0-.1-.05-.09-.1,0,0,0,0,0,0,.04-.38,.03-.71-.03-.98,0-.05-.02-.05-.05,0Zm-2.35-.1c.62,.29,1.15,.27,1.58-.05,.32-.24,.55-.64,.68-1.2,.12-.48,.16-1,.13-1.57,0-.06-.05-.11-.12-.11-.48,0-.92,.02-1.32,.07-1.25,.16-1.73,.88-1.44,2.15,.08,.36,.24,.6,.48,.71Z"/>
	<path d="M18.35,98.33c-.42-.39-.71-.86-.86-1.43-.08-.31-.14-.85-.18-1.61-.03-.58-.02-1.16,.02-1.74,.05-.72,.16-1.28,.34-1.7,.52-1.18,1.54-1.69,3.05-1.53,1.59,.17,2.35,1.07,2.26,2.71,0,.04-.03,.08-.07,.08h-1.24s-.07-.03-.07-.07c-.03-.43-.08-.74-.16-.93-.2-.47-.59-.7-1.16-.67-.31,.01-.58,.09-.79,.24-.19,.12-.34,.33-.47,.62-.14,.33-.23,.67-.27,1.02-.02,.18-.03,.52-.04,1.04,0,.73,.06,1.46,.2,2.19,.08,.41,.27,.73,.56,.96,.27,.21,.58,.3,.93,.29,.39-.02,.7-.18,.93-.51,.11-.15,.19-.35,.25-.59,.05-.2,.08-.42,.09-.64,0-.04,.04-.07,.08-.07h1.25s.07,.04,.07,.08c.01,.43-.02,.75-.1,.98-.41,1.17-1.19,1.78-2.34,1.85-.45,.02-.83,0-1.17-.05-.42-.07-.78-.24-1.08-.52Z"/>
	<path d="M27.65,98.33c-.3-.24-.51-.54-.65-.9-.18-.48-.3-.97-.36-1.47-.04-.35-.07-.85-.08-1.5-.02-.88,.08-1.65,.28-2.32,.33-1.05,1.03-1.65,2.12-1.8,.37-.05,.76-.06,1.18-.03,.45,.03,.83,.12,1.14,.26,.82,.38,1.3,1.08,1.46,2.09,.18,1.21,.19,2.38,.03,3.5-.11,.81-.31,1.41-.6,1.79-.41,.55-1.02,.86-1.83,.92-.39,.03-.78,.04-1.16,.02-.58-.02-1.08-.21-1.53-.58Zm1.55-.61c.26,.08,.55,.09,.87,.04,.55-.09,.91-.37,1.08-.85,.21-.58,.32-1.28,.33-2.09,0-.65,0-1.11-.02-1.38-.04-.52-.17-.97-.39-1.35-.23-.39-.6-.61-1.12-.64-1-.07-1.6,.35-1.8,1.27-.24,1.09-.23,2.31,.03,3.64,.07,.36,.18,.65,.35,.89,.17,.24,.39,.4,.67,.48Z"/>
	<path d="M35.21,91.36c0,.23,.05,.24,.16,.04,.29-.55,.74-.89,1.35-1.01,.42-.09,.85-.11,1.28-.07,.42,.04,.77,.19,1.05,.46,.23,.22,.41,.53,.53,.94,.11,.39,.16,.79,.15,1.2-.01,.33-.02,.49-.02,.5,0,1.76,0,3.51,0,5.27,0,.04-.03,.07-.07,.07h-1.14c-.07,0-.12-.05-.12-.12,0,0,0,0,0,0v-5.31c0-.45-.03-.8-.1-1.03-.13-.46-.42-.74-.89-.83-1.07-.22-1.75,.18-2.04,1.19-.09,.31-.13,.83-.13,1.55,0,1.49,0,2.98-.02,4.47,0,.04-.03,.07-.07,.07h-1.13c-.07,0-.13-.05-.13-.12,0,0,0,0,0,0l-.03-8.11s.03-.07,.07-.07h1.22s.07,.03,.07,.07h0v.83Z"/>
	<path d="M45.21,97.74c0-.13-.04-.14-.09-.02-.37,.74-.94,1.14-1.69,1.19-.41,.03-.79,0-1.13-.08-.41-.1-.74-.32-.98-.66-.28-.39-.44-.89-.49-1.51-.13-1.66,.61-2.64,2.21-2.93,.56-.1,1.25-.14,2.07-.12,.04,0,.07-.03,.07-.07,.03-.57,.02-.95-.03-1.15-.17-.63-.53-.99-1.09-1.07-.41-.06-.77,.03-1.08,.26-.34,.25-.51,.63-.51,1.13,0,.04-.03,.07-.07,.07h-1.3s-.07-.03-.07-.07c0,0,0,0,0,0,.02-.95,.38-1.63,1.08-2.04,.3-.18,.67-.29,1.12-.33,.4-.04,.79-.04,1.19,.01,.63,.08,1.1,.26,1.44,.55,.42,.37,.64,.88,.66,1.54,.05,1.5,.07,3.01,.06,4.51,0,.57,.04,1.15,.14,1.76,0,.04-.02,.07-.05,.07,0,0,0,0-.01,0l-1.33-.02s-.07-.03-.07-.07l-.03-.94Zm-2.4-.12c.57,.24,1.05,.23,1.47-.04,.32-.21,.56-.57,.73-1.09,.18-.57,.23-1.16,.15-1.77,0-.04-.04-.07-.08-.07-.86,0-1.41,.03-1.66,.11-1.05,.33-1.42,1.05-1.12,2.15,.11,.38,.27,.62,.51,.72Z"/>
	<path d="M66.54,98.43c-.3-.23-.53-.51-.7-.82-.13-.24-.23-.57-.32-1.01-.22-1.13-.25-2.27-.11-3.41,.1-.78,.27-1.36,.5-1.74,.35-.56,.89-.92,1.62-1.06,.44-.09,.9-.11,1.39-.06,.54,.05,.98,.17,1.33,.36,.56,.31,.94,.8,1.12,1.47,.2,.73,.3,1.5,.29,2.33,0,.71-.04,1.27-.09,1.68-.08,.61-.25,1.15-.52,1.62-.36,.61-.89,.97-1.6,1.07-.27,.04-.63,.06-1.09,.05-.36,0-.73-.05-1.08-.12-.27-.06-.52-.17-.74-.35Zm1.02-.88c.39,.27,.87,.33,1.45,.19,.52-.12,.84-.5,.97-1.13,.21-1.05,.27-2.1,.19-3.16-.06-.7-.2-1.19-.42-1.49-.36-.48-.93-.64-1.71-.47-.62,.13-.99,.52-1.11,1.17-.23,1.27-.24,2.52-.03,3.75,.09,.52,.31,.9,.66,1.13Z"/>
	<path d="M73.99,91.37c0,.17,.05,.18,.13,.03,.17-.3,.39-.54,.65-.72,.23-.16,.53-.27,.88-.33,.54-.09,1.07-.06,1.59,.1,.38,.12,.68,.36,.9,.72,.13,.21,.22,.48,.27,.81,.03,.19,.05,.47,.06,.84,.03,1.92,.04,3.88,.03,5.88,0,.04-.04,.08-.08,.08h-1.18c-.07,0-.12-.06-.12-.13,0,0,0,0,0,0,.02-1.97,0-3.88-.03-5.72,0-.39-.05-.67-.13-.83-.14-.29-.37-.48-.69-.58-1.08-.31-1.8,.05-2.15,1.09-.09,.25-.13,.59-.12,1.02,.02,1.69,.02,3.38,0,5.07,0,.04-.03,.07-.07,.07,0,0,0,0,0,0l-1.25-.03s-.07-.04-.07-.08l-.04-8.14s.03-.07,.07-.07c0,0,0,0,0,0l1.27,.03s.07,.03,.07,.08v.81Z"/>
	<path d="M84,98.25c-.31-.28-.52-.63-.65-1.03-.25-.8-.36-1.78-.34-2.93,.01-.62,.07-1.17,.16-1.65,.12-.64,.34-1.14,.65-1.49,.38-.44,.9-.7,1.54-.79,.39-.05,.78-.07,1.2-.04,.47,.03,.85,.12,1.15,.27,.43,.21,.75,.53,.97,.95,.16,.29,.27,.71,.34,1.26,.09,.68,.11,1.39,.06,2.14,0,.06-.05,.1-.1,.1h-4.33c-.09,0-.16,.07-.17,.16-.04,.8,.1,1.5,.42,2.09,.09,.16,.23,.28,.43,.38,.15,.07,.33,.11,.54,.12,1,.07,1.56-.41,1.68-1.45,0-.04,.04-.07,.08-.07h1.33s.09,.03,.09,.08c0,0,0,0,0,0-.04,1.3-.66,2.12-1.87,2.47-.4,.11-.94,.15-1.62,.1-.6-.04-1.12-.26-1.55-.66Zm3.6-4.23s.07-.03,.07-.07h0c0-.56-.06-1.1-.2-1.62-.16-.6-.55-.94-1.18-1-.41-.04-.75,.03-1.03,.2-.24,.15-.43,.42-.56,.8-.17,.48-.24,1-.23,1.58,0,.06,.05,.1,.1,.1h3.03Z"/>
	<path d="M100.7,98.33c-.29-.24-.51-.53-.65-.88-.15-.37-.26-.76-.31-1.15-.03-.22-.06-.62-.09-1.18-.05-.97,.01-1.87,.18-2.72,.14-.69,.47-1.21,.99-1.58,.4-.28,.91-.44,1.54-.5,.58-.05,1.13,0,1.66,.14,.55,.15,.96,.51,1.24,1.07,.27,.56,.43,1.16,.46,1.78,.03,.53,.04,1.08,.02,1.66,0,.04-.03,.07-.07,.07h-4.51c-.05,0-.09,.04-.09,.09,0,0,0,0,0,0,.02,.42,.05,.86,.12,1.32,.07,.51,.29,.89,.66,1.12,.33,.21,.72,.27,1.16,.2,.7-.12,1.1-.59,1.19-1.41,0-.06,.06-.11,.13-.11h1.29s.07,.03,.07,.07c0,0,0,0,0,0-.05,1.4-.74,2.25-2.05,2.53-.36,.08-.83,.1-1.41,.07-.57-.03-1.08-.23-1.52-.59Zm2.46-6.93c-.77-.23-1.35-.01-1.72,.67-.13,.24-.22,.54-.27,.92-.04,.31-.07,.63-.08,.96,0,.04,.03,.07,.07,.07,0,0,0,0,0,0h3.03c.06,0,.1-.05,.1-.1,0,0,0,0,0,0-.02-.33-.04-.67-.06-1.02-.02-.36-.13-.67-.31-.95-.17-.26-.43-.44-.77-.54Z"/>
	<path d="M121.16,95.12c-.03,.63,.03,1.18,.17,1.65,.19,.61,.56,.95,1.12,1.03,.45,.06,.83-.02,1.16-.26,.35-.25,.55-.63,.62-1.15,.01-.08,.08-.15,.17-.15h1.18c.09,0,.16,.07,.16,.16,0,0,0,0,0,.01-.11,1.53-.94,2.36-2.47,2.47-.32,.02-.63,.03-.95,.02-.73-.03-1.31-.27-1.74-.73-.32-.34-.55-.87-.71-1.6-.19-.88-.25-1.78-.19-2.69,.04-.52,.09-.93,.14-1.23,.08-.44,.23-.83,.42-1.17,.2-.33,.47-.6,.82-.8,.28-.16,.63-.27,1.06-.33,.62-.09,1.19-.08,1.73,.04,.61,.13,1.07,.44,1.38,.93,.21,.33,.36,.83,.45,1.5,.09,.66,.13,1.36,.11,2.1,0,.07-.06,.12-.12,.12h-4.45s-.07,.04-.07,.08Zm2.47-3.56c-1.18-.55-1.96-.22-2.34,1.01-.1,.32-.14,.78-.13,1.37,0,.04,.03,.07,.07,.07h3.05s.07-.02,.07-.06c.02-.73-.1-1.4-.36-2.01-.07-.17-.2-.3-.37-.38Z"/>
	<path d="M138.22,97.77c0-.13-.03-.13-.09-.02-.35,.62-.82,.99-1.43,1.11-.59,.12-1.15,.07-1.66-.15-.56-.24-.92-.74-1.08-1.49-.41-1.92,.28-3.08,2.08-3.49,.41-.09,1.1-.14,2.05-.13,.04,0,.07-.03,.08-.07,.05-.53,.05-.91-.02-1.14-.19-.71-.6-1.07-1.23-1.08-.4,0-.73,.1-1,.31-.3,.25-.44,.61-.41,1.08,0,.04-.03,.07-.07,.07,0,0,0,0,0,0h-1.31s-.07-.03-.07-.07c0,0,0,0,0,0,.05-1.27,.64-2.04,1.77-2.32,.41-.1,.89-.13,1.44-.07,.58,.06,1.03,.19,1.36,.4,.62,.4,.93,1.03,.95,1.89,.03,1.23,.03,2.47,0,3.7-.02,.79,.02,1.59,.12,2.39,0,.04-.02,.07-.06,.08,0,0,0,0,0,0h-1.34s-.08-.03-.08-.08h0v-.92Zm-1.97-.02c.47,.11,.88,0,1.21-.3,.25-.23,.44-.56,.56-1,.15-.52,.2-1.1,.15-1.72,0-.05-.05-.09-.1-.09-.5,0-.97,.03-1.4,.06-.44,.04-.8,.2-1.05,.49-.24,.27-.38,.6-.41,1-.03,.37,.05,.7,.25,1.01,.18,.28,.45,.47,.79,.55Z"/>
	<rect x="24.28" y="90.45" width="1.34" height="8.33" rx=".04" ry=".04"/>
	<rect x="117.28" y="90.46" width="1.34" height="8.32" rx=".04" ry=".04"/>
	<path d="M148.58,98.76c-.74-.04-1.32-.69-1.28-1.45h0c.04-.76,.67-1.35,1.41-1.32h0c.74,.04,1.32,.69,1.28,1.45h0c-.04,.76-.67,1.35-1.41,1.32Zm1.03-.73s.04-.04,.04-.07c.2-.35,.22-.7,.06-1.06-.21-.47-.59-.69-1.13-.67-.48,.02-.81,.23-.98,.65-.17,.39-.16,.75,.02,1.07,.16,.29,.42,.49,.76,.58,.47,.13,.87-.04,1.22-.49Z"/>
	<path d="M148.9,96.8v.03c-.12,.07-.16,.18-.13,.32l.02,.25,.04,.56c-.16,.05-.23-.02-.21-.2,0-.09,0-.19,0-.29,.06-.03,.1-.08,.11-.13,0-.06-.01-.08-.07-.05-.08,.03-.1,.09-.06,.18-.09,.1-.15,.22-.17,.35-.04,.21-.12,.25-.22,.12-.06-.08-.1-.16-.12-.25-.08-.37-.14-.47-.18-.31-.01,.05,0,.11,0,.19,.02,.12,.01,.25-.02,.37-.03,.1-.07,.12-.11,.04-.01-.02-.02-.05-.02-.08,0-.3-.01-.61,0-.92,0-.08,.02-.15,.06-.19,.1-.12,.18-.06,.25,.17,.08,.28,.14,.48,.2,.62,.02,.06,.05,.06,.06,0l.27-.7c.02-.06,.05-.1,.07-.11,.07-.04,.15-.03,.25,.03Z"/>
	<path d="M149.65,97.97s0,.06-.04,.07c-.15-.06-.22-.17-.2-.34,0-.05,0-.09-.04-.12-.21-.24-.33-.19-.33,.15,0,.01,0,.06,.01,.14,.01,.12-.05,.15-.19,.1,.09-.19,.1-.39,.03-.59-.03-.07-.04-.14-.04-.21,.06-.1,.07-.21,.04-.32v-.03s.15-.05,.29-.04c.35,.02,.48,.18,.37,.47-.02,.05-.02,.1-.02,.14l.1,.6Zm-.22-.9c0-.08-.06-.15-.14-.16h-.08c-.08-.01-.15,.05-.16,.13v.09c-.01,.08,.05,.15,.13,.16h.08c.08,.01,.15-.05,.16-.13h0s0-.09,0-.09Z"/>
</svg>