<?xml version="1.0" ?>
<svg xmlns="http://www.w3.org/2000/svg" viewBox="0 0 1517 1054">
	<style>
		.s0 { fill: #588eca } 
		.s1 { fill: #70a6d9 } 
		.s2 { fill: #8fc2e9 } 
		.s3 { fill: #fd7e00 } 
	</style>
	<g id="#588ecaff">
		<path id="Layer" class="s0" d="m873.5 4.4c70.7-4.5 141.7-4.9 212.5-3.3 36 1.2 72.1 1.4 107.8 5.8 49.8 5.9 99.1 18 144.8 38.6 53.4 24.1 102.5 60.2 136.3 108.5 9 12.9 16.8 26.6 22.7 41.2 4.5 11.3 8.1 23.1 8.4 35.4-0.1 5.3-0.7 11.4-5.1 15.1-11.2-18.4-25-35.1-41-49.4-25.7-23.2-56.1-40.5-87.9-53.7-36.9-15.2-75.8-25.1-115.1-32-54.3-9.4-109.6-13-164.7-13.7-121.6-0.9-243 12.2-363.1 30.7-67 10.5-133.7 23-200.2 36.8-57.3 11.6-114.7 23.2-172.2 34.3-7.2 1.5-14.7-3.9-15.9-11.1-1.3-4.9 1.4-9.5 3.2-13.8 13.3-31.8 26.7-63.5 40-95.3 2.6-7.7 10.7-12 18.3-13.4 90-14.8 180-29.2 270.4-41 66.7-8.6 133.6-15.7 200.8-19.7z"/>
	</g>
	<g id="#70a6d9ff">
		<path id="Layer" class="s1" d="m1033.2 152.3c61-2.4 122.2-0.9 183.2 3.1 14.3 0.6 28.5 3.1 42.7 5.4 44.3 7.6 88.1 19.2 128.8 38.4 28.2 13.5 55 30.9 76.7 53.5 16.4 16.9 29.7 36.9 38.6 58.7 11.3 27.4 15.1 57.7 11.8 87.1 0.1 3.5-6 3.4-5.8-0.2-3.9-21.2-16-40-30.2-55.9-21.3-23.7-48.1-41.8-76.4-56.3-33.3-16.8-69.1-28.6-105.5-36.9-76-17.2-154.7-20-232.3-15.2-32.7 1.8-65.2 6.4-97.5 11.5-60.3 9.5-120.2 21.2-179.9 33.8-59.9 12.7-119.6 26.4-178.8 41.9-55.3 14.2-109.7 32-164 49.4-118.6 38.1-236.6 78.4-354.8 117.7-7.8 2.3-15.4 5.5-23.5 7-9.9 1.5-18.3-9.8-14.3-19 17.6-41.4 35.4-82.8 53.1-124.2 1.6-4.3 5.5-7.7 10-8.7 106.9-28.5 214-56.5 321.3-83.7 72.6-18.3 145.3-36.5 218.4-52.7 124.6-26.9 250.7-50 378.4-54.7zm49.6 132.7c52.3-3 104.9-0.9 156.6 8.1 34.9 6.2 69.6 14.8 102.8 27.5 29.4 11.4 57.8 26.3 81.9 46.8 20.5 17.3 37.7 38.8 48.1 63.6 15.7 36.7 15.1 79 2.6 116.6-1.4 4.3-7.6 5.3-10.8 2.3-1.6-1.2-1.9-3.3-2.4-5.1-6.5-29.2-19.9-56.8-38.6-80.1-18-22.5-41-40.9-66.2-54.8-33.1-18.3-69.8-29.3-106.9-35.7-50.7-8.6-102.4-8.9-153.6-5.2-63.9 5-127.1 16.3-189.4 31.2-112.3 26.8-221.6 65-329 107.2-100.4 39.2-199.9 80.4-298.9 122.9-32.9 14.2-65.8 28.5-98.4 43.4-4.3 2-9 4.7-13.9 3.4-8.3-1.5-13.6-11.5-10-19.2 16.4-42.6 32.9-85.1 49.2-127.7 1.6-4.7 5.9-7.7 10.4-9 120.7-45 242-88.1 364.6-127.6 57.1-18.2 114.4-35.8 172.5-50.2 56-13.4 112.1-26.3 168.7-37.2 53.1-10.1 106.7-18.2 160.7-21.2z"/>
	</g>
	<g id="#8fc2e9ff">
		<path id="Layer" class="s2" d="m1152.6 423.5c47.1-1.2 94.7 4 139.6 18.5 27.8 10.8 54.6 25.3 76.3 45.9 16.3 15.6 29 35.1 35.3 56.8 8.3 28.1 6.4 58.3-0.1 86.6-4.3 18.8-10.5 37.2-17.8 55.1-2.9 5.7-3.9 12.9-9.1 17.1-7.8 5.4-19-2.1-18.8-11.1-0.1-28.3-3.8-57-14-83.5-8.3-21.9-21.5-42-39.2-57.4-28.3-24.8-66.1-35.9-103-38.6-53.7-3.7-107.2 6.6-158.6 21-56.8 16.2-111.6 38.2-165.2 62.8-47.4 21.5-93.3 46.1-139.5 70.1-180.4 94.6-360.3 190-539.5 286.9-57.3 31-114.5 62.2-171.3 94.2-3.8 2-7.5 4.8-12 5.1-7.5 0.6-15.2-5.5-15.1-13.3-0.4-4.3 1.9-8 3.4-11.9q40.3-98 80.7-196c2.8-6.3 7.6-12.1 14.1-14.7 45.7-23 92.5-44 138.9-65.4 99.4-45.3 199.1-89.7 299.5-132.9 48.6-21 97.7-41 146.6-61.5 96.2-39.8 193.3-78.4 293.9-105.6 57.1-15.2 115.7-26.5 174.9-28.2z"/>
	</g>
	<g id="#fd7e00ff">
		<path id="Layer" class="s3" d="m1165.4 580.7c39.3-5.6 80.6 12.1 103.7 44.2 22.4 30.1 27.7 71.9 13.4 106.7-8.5 21.1-23.7 39.6-43 51.9-29.8 19.1-68.9 22.7-101.5 9.1-19.5-7.9-36.7-21.5-48.8-38.8-11.9-16.8-18.7-37.1-19.9-57.6-1.5-27 7.3-54.4 24.4-75.3 17.5-22.1 43.8-36.7 71.7-40.2z"/>
	</g>
</svg>