<?xml version="1.0" ?>
<svg xmlns="http://www.w3.org/2000/svg" viewBox="0 0 1506 740">
	<defs>
		<clipPath clipPathUnits="userSpaceOnUse" id="cp1">
			<path d="m-11154.43-224.96h13805.72v7767.69h-13805.72z"/>
		</clipPath>
	</defs>
	<style>
		.s0 { fill: #254893 } 
		.s1 { fill: #27418c } 
		.s2 { fill: #c31b31 } 
		.s3 { fill: #fefefe } 
	</style>
	<g id="Clip-Path: Page 1" clip-path="url(#cp1)">
		<g id="Page 1">
			<path id="Path 8" fill-rule="evenodd" class="s0" d="m12.4 646c3.6-5 9.3-9.3 16.5-9.3q11.9 0 17.3 10.8c4.3-6.5 11.5-10.8 19.4-10.8 15.8 0 20.1 12.9 20.1 27.3v38.1h-11.5v-35.9c0-8.7-1.4-18.7-11.5-18.7-12.9 0-13.6 13.6-13.6 23v31.6h-12.3v-33.8c0-8.6 0-20.8-10.8-20.8-12.9 0-13.6 13.6-13.6 23v31.6h-12.2v-64h12.2zm110 58.3c-18.3 0-33.1-15.3-33.1-34.2 0-18.9 14.8-34.2 33.1-34.2 18.3 0 33.1 15.3 33.1 34.2 0 18.9-14.8 34.2-33.1 34.2zm20.8-34.2c0-12.5-9.3-22.6-20.8-22.6-11.5 0-20.9 10.1-20.9 22.6 0 12.5 9.4 22.7 20.9 22.7 11.5 0 20.8-10.2 20.8-22.7zm29.5 32h-11.5v-52.5h-6.4v-11.5h6.4v-24.4h11.5v24.4h12.3v11.5h-12.3z"/>
			<path id="Path 9" fill-rule="evenodd" class="s0" d="m211.9 704.3c-18.1 0-32.7-15.1-32.7-33.8 0-18.7 14.6-33.8 32.7-33.8 18.1 0 32.7 15.1 32.7 33.8 0 18.7-14.6 33.8-32.7 33.8zm21.2-33.8c0-12.3-9.5-22.3-21.2-22.3-11.7 0-21.2 10-21.2 22.3 0 12.3 9.5 22.3 21.2 22.3 11.7 0 21.2-10 21.2-22.3zm28.8-21.6c2.9-7.9 9.3-12.2 17.2-12.2 3.6 0 6.5 0.7 9.4 2.9l-5 11.5c-2.2-2.2-4.4-2.9-7.2-2.9-13 0-14.4 12.2-14.4 23v30.9h-12.2v-64h12.2zm71.9 7.9q-6.5-8.6-17.3-8.6c-11.5 0-20.8 10.8-20.8 22.3 0 13.7 8.6 23 21.6 23 6.4 0 12.2-3.6 16.5-8.6v15.8c-5 2.9-10.8 4.3-16.5 4.3-18.7 0-33.1-14.4-33.1-33.8 0-20.1 14.4-34.5 33.1-34.5 5.7 0 12.2 1.4 16.5 4.3zm64 46h-11.5v-10h-0.7c-4.3 7.2-11.5 12.2-20.9 12.2-18.7 0-29.5-16.6-29.5-34.5 0-18 11.5-33.8 29.5-33.8 8.6 0 16.6 5 20.9 12.2h0.7v-10.1h11.5zm-10.8-32.3c0-12.8-8.8-23.1-19.8-23.1-10.9 0-19.7 10.3-19.7 23.1 0 12.7 8.8 23 19.7 23 11 0 19.8-10.3 19.8-23zm32.4-21.6h0.7c2.9-7.2 8.6-12.2 16.5-12.2 3.6 0 7.2 1.4 10.1 2.8l-5.8 11.5c-2.1-2.1-4.3-2.8-7.2-2.8-12.9 0-14.3 12.2-14.3 23v31.6h-11.5v-64.7h11.5zm69.7 0.7c5-7.9 12.2-12.9 21.6-12.9 17.2 0 28.7 16.5 28.7 33.8 0 17.9-10.7 34.5-29.4 34.5-8.7 0-16.6-5-20.9-12.2v46.7h-12.2v-100.7h12.2zm38.8 21.6c0-12.7-8.8-23-19.7-23-11 0-19.8 10.3-19.8 23 0 12.7 8.8 23 19.8 23 10.9 0 19.7-10.3 19.7-23zm74.1 31.6h-11.5v-10h-0.7c-4.3 7.2-11.5 12.2-20.9 12.2-18.7 0-29.5-16.5-29.5-34.5 0-17.3 11.5-33.8 29.5-33.8 8.7 0 16.6 5 20.9 12.9h0.7v-10.8h11.5zm-10.8-31.6c0-12.7-8.8-23-19.8-23-10.9 0-19.7 10.3-19.7 23 0 12.7 8.8 23 19.7 23 11 0 19.8-10.3 19.8-23zm32.4-22.3h0.7c2.9-7.2 8.6-12.2 16.5-12.2q4.3 0 7.9 2.1h6.5v-24.4h11.5v24.4h11.5v10.8c2.9-7.2 9.4-12.9 18-12.9 7.2 0 12.9 4.3 16.5 11.5l-9.3 5c-2.2-2.9-5-5-7.9-5-3.6 0-6.5 2.1-6.5 5.7 0 5.8 7.2 7.9 14.4 11.5 7.2 3.6 13.6 7.9 13.6 18.7 0 11.5-9.3 20.9-20.8 20.9-9.4 0-18-5-21.6-14.4l10.1-5c2.9 5 5.7 8.6 11.5 8.6 5 0 9.3-3.6 9.3-9.3 0-3.6-1.4-5.1-4.3-7.2l-11.5-6.5c-7.2-3.6-12.2-7.2-12.2-15.8q0-2.9 0.7-5.1h-11.5v52.5h-11.5v-52.5h-6.5v-5.7l-3.6 6.4c-2.1-2.1-4.3-2.8-7.1-2.8-13 0-14.4 12.9-14.4 23v31.6h-11.5v-64h11.5zm157.4 55.4c-18.2 0-33-15.1-33-33.8 0-18.7 14.8-33.8 33-33.8 18.3 0 33.1 15.1 33.1 33.8 0 18.7-14.8 33.8-33.1 33.8zm20.9-33.8c0-12.3-9.3-22.3-20.9-22.3-11.5 0-20.8 10-20.8 22.3 0 12.3 9.3 22.3 20.8 22.3 11.6 0 20.9-10 20.9-22.3zm46.7-74.1c-2.1-1.4-5-2.9-7.9-2.9-8.6 0-8.6 10.8-8.6 17.3v27.3h16.5v11.5h-16.5v52.5h-11.5v-52.5h-5.8v-11.5h5.8v-30.9c0-13.7 5-25.2 20.1-25.2q4.3 0 7.9 1.5zm88.5 106.4h-11.5v-10.1h-0.7c-4.4 7.2-12.3 12.3-20.9 12.3-18.7 0-29.5-16.6-29.5-34.5 0-17.3 11.5-33.9 29.5-33.9 8.6 0 15.8 5.1 20.9 13h0.7v-10.8h11.5zm-11.5-31.6c0-12.8-8.7-23.1-19.4-23.1-10.8 0-19.5 10.3-19.5 23.1 0 12.7 8.7 23 19.5 23 10.7 0 19.4-10.3 19.4-23zm31.6-24.5h0.7c2.9-5.7 9.4-10.1 15.8-10.1 8.7 0 13.7 4.4 18 11.5 3.6-6.4 10.8-11.5 18.7-11.5 16.6 0 20.9 13 20.9 28.1v38.1h-12.3v-36c0-8.6-0.7-18.7-11.5-18.7-12.2 0-13.6 13.7-13.6 23.1v31.6h-11.5v-33.8c0-8.6 0-20.9-11.5-20.9-12.3 0-13.7 13-13.7 23.1v31.6h-11.5v-64h11.5zm90.6 25.9c0 10.8 6.5 21.6 18 21.6 9.3 0 14.4-5.1 18.7-13l10 5.8c-5.7 11.5-16.5 18-28.7 18-18.7 0-30.2-15.1-30.2-33.9 0-20.1 10.1-34.5 30.2-34.5 19.4 0 28.7 15.1 28.7 33.8v2.2zm35.3-9.4c-1.5-9.3-7.9-15.8-17.3-15.8-9.3 0-15.8 6.5-17.2 15.8zm28-14.3c2.9-7.2 9.4-12.3 17.3-12.3 2.8 0 6.4 1.5 9.3 2.9l-5 11.5c-2.2-2.1-5.1-2.9-7.2-2.9-13 0-14.4 12.3-14.4 23v31.7h-12.2v-64.7h12.2zm35.2-31c-4.3 0-7.9-3.8-7.9-8.6 0-4.8 3.6-8.6 7.9-8.6 4.4 0 8 3.8 8 8.6 0 4.8-3.6 8.6-8 8.6zm-5.7 20.9h11.5v64h-11.5zm69.7 18.7c-5-5.7-10.7-9.3-17.9-9.3-11.5 0-20.9 10.7-20.9 23 0 12.9 9.4 22.3 21.6 22.3q9.7 0 17.2-8.7v16.6c-5.7 2.9-11.5 3.6-17.2 3.6-18 0-33.1-14.4-33.1-33.1 0-20.1 14.4-34.5 33.8-34.5 5 0 11.5 1.4 16.5 4.3zm63.3 45.3h-11.5v-10.1c-5 7.2-12.2 12.3-21.6 12.3-18.7 0-28.7-15.9-28.7-34.6 0-17.2 10.8-33.1 28.7-33.1 8.7 0 16.6 4.4 21.6 12.3v-10.8h11.5zm-10.8-31.7c0-12.7-8.8-23-19.7-23-11 0-19.8 10.3-19.8 23 0 12.8 8.8 23.1 19.8 23.1 10.9 0 19.7-10.3 19.7-23.1zm43.9 19.5l-18 36.6-7.2-2.8 14.4-38.2zm47.8-72.6c-4.6 0-8.2-3.9-8.2-8.6 0-4.8 3.6-8.7 8.2-8.7 4.6 0 8.3 3.9 8.3 8.7 0 4.7-3.7 8.6-8.3 8.6zm-6.1 20.9h12.2v64h-12.2zm36.7 8.6c3.6-6.5 10.8-10.1 18.7-10.1 17.2 0 21.5 11.5 21.5 27.4v38.1h-11.5v-36.7c0-10.8-1.4-18-13.6-18-15.1 0-15.1 13.7-15.1 25.2v29.5h-12.2v-64h12.2zm95.6 9.3c-5-5-10.8-8.6-18-8.6-11.5 0-20.1 10.8-20.1 23 0 12.9 8.6 22.3 20.9 22.3 7.1 0 12.2-2.9 17.2-8.6v15.8c-5.7 3.6-10.8 4.3-17.2 4.3-18 0-33.1-14.4-33.1-33.8 0-19.4 15.1-34.5 33.8-34.5 5.7 0 11.5 1.4 16.5 4.3zm16.9 48.2c-4.2 0-7.5-3.6-7.5-7.9 0-4.4 3.3-7.9 7.5-7.9 4.2 0 7.6 3.5 7.6 7.9 0 4.3-3.4 7.9-7.6 7.9zm-1485.2-58.3h0.7c2.9-5 9.4-10 16.6-10 7.9 0 13.6 4.3 17.2 11.5 3.6-6.5 11.5-11.5 19.4-11.5 15.9 0 20.2 13.6 20.2 28v38.1h-11.5v-35.9c0-8.7-1.5-18.7-12.2-18.7-12.3 0-13 13.6-13 23v31.6h-12.2v-33.8c0-8.6 0-20.8-10.8-20.8-12.9 0-14.4 13.6-14.4 23v31.6h-11.5v-64h11.5z"/>
			<path id="Path 10" fill-rule="evenodd" class="s0" d="m122.4 704.3c-18.3 0-33.1-15.1-33.1-33.8 0-18.7 14.8-33.8 33.1-33.8 18.3 0 33.1 15.1 33.1 33.8 0 18.7-14.8 33.8-33.1 33.8zm20.8-33.8c0-12.3-9.3-22.3-20.8-22.3-11.5 0-20.9 10-20.9 22.3 0 12.3 9.4 22.3 20.9 22.3 11.5 0 20.8-10 20.8-22.3zm29.5 31.6h-11.5v-52.5h-6.4v-11.5h6.4v-24.4h11.5v24.4h12.3v11.5h-12.3z"/>
			<path id="Path 11" fill-rule="evenodd" class="s0" d="m211.9 704.3c-18.1 0-32.7-15.1-32.7-33.8 0-18.7 14.6-33.8 32.7-33.8 18.1 0 32.7 15.1 32.7 33.8 0 18.7-14.6 33.8-32.7 33.8zm21.2-33.8c0-12.3-9.5-22.3-21.2-22.3-11.7 0-21.2 10-21.2 22.3 0 12.3 9.5 22.3 21.2 22.3 11.7 0 21.2-10 21.2-22.3zm28.8-21.6c2.9-7.9 9.3-12.2 17.2-12.2 3.6 0 6.5 0.7 9.4 2.9l-5 11.5c-2.2-2.2-4.4-2.9-7.2-2.9-13 0-14.4 12.2-14.4 23v30.9h-12.2v-64h12.2zm71.9 7.9q-6.5-8.6-17.3-8.6c-11.5 0-20.8 10.8-20.8 22.3 0 13.7 8.6 23 21.6 23 6.4 0 12.2-3.6 16.5-8.6v15.8c-5 2.9-10.8 4.3-16.5 4.3-18.7 0-33.1-14.4-33.1-33.8 0-20.1 14.4-34.5 33.1-34.5 5.7 0 12.2 1.4 16.5 4.3zm64 46h-11.5v-10h-0.7c-4.3 7.2-11.5 12.2-20.9 12.2-18.7 0-29.5-16.6-29.5-34.5 0-18 11.5-33.8 29.5-33.8 8.6 0 16.6 5 20.9 12.2h0.7v-10.1h11.5zm-10.8-32.3c0-12.8-8.8-23.1-19.8-23.1-10.9 0-19.7 10.3-19.7 23.1 0 12.7 8.8 23 19.7 23 11 0 19.8-10.3 19.8-23zm32.4-21.6h0.7c2.9-7.2 8.6-12.2 16.5-12.2 3.6 0 7.2 1.4 10.1 2.8l-5.8 11.5c-2.1-2.1-4.3-2.8-7.2-2.8-12.9 0-14.3 12.2-14.3 23v31.6h-11.5v-64.7h11.5zm69.7 0.7c5-7.9 12.2-12.9 21.6-12.9 17.2 0 28.7 16.5 28.7 33.8 0 17.9-10.7 34.5-29.4 34.5-8.7 0-16.6-5-20.9-12.2v46.7h-12.2v-100.7h12.2zm38.8 21.6c0-12.7-8.8-23-19.7-23-11 0-19.8 10.3-19.8 23 0 12.7 8.8 23 19.8 23 10.9 0 19.7-10.3 19.7-23zm74.1 31.6h-11.5v-10h-0.7c-4.3 7.2-11.5 12.2-20.9 12.2-18.7 0-29.5-16.5-29.5-34.5 0-17.3 11.5-33.8 29.5-33.8 8.7 0 16.6 5 20.9 12.9h0.7v-10.8h11.5zm-10.8-31.6c0-12.7-8.8-23-19.8-23-10.9 0-19.7 10.3-19.7 23 0 12.7 8.8 23 19.7 23 11 0 19.8-10.3 19.8-23zm32.4-22.3h0.7c2.9-7.2 8.6-12.2 16.5-12.2q4.3 0 7.9 2.1h6.5v-24.4h11.5v24.4h11.5v10.8c2.9-7.2 9.4-12.9 18-12.9 7.2 0 12.9 4.3 16.5 11.5l-9.3 5c-2.2-2.9-5-5-7.9-5-3.6 0-6.5 2.1-6.5 5.7 0 5.8 7.2 7.9 14.4 11.5 7.2 3.6 13.6 7.9 13.6 18.7 0 11.5-9.3 20.9-20.8 20.9-9.4 0-18-5-21.6-14.4l10.1-5c2.9 5 5.7 8.6 11.5 8.6 5 0 9.3-3.6 9.3-9.3 0-3.6-1.4-5.1-4.3-7.2l-11.5-6.5c-7.2-3.6-12.2-7.2-12.2-15.8q0-2.9 0.7-5.1h-11.5v52.5h-11.5v-52.5h-6.5v-5.7l-3.6 6.4c-2.1-2.1-4.3-2.8-7.1-2.8-13 0-14.4 12.9-14.4 23v31.6h-11.5v-64h11.5zm157.4 55.4c-18.2 0-33-15.1-33-33.8 0-18.7 14.8-33.8 33-33.8 18.3 0 33.1 15.1 33.1 33.8 0 18.7-14.8 33.8-33.1 33.8zm20.9-33.8c0-12.3-9.3-22.3-20.9-22.3-11.5 0-20.8 10-20.8 22.3 0 12.3 9.3 22.3 20.8 22.3 11.6 0 20.9-10 20.9-22.3zm46.7-74.1c-2.1-1.4-5-2.9-7.9-2.9-8.6 0-8.6 10.8-8.6 17.3v27.3h16.5v11.5h-16.5v52.5h-11.5v-52.5h-5.8v-11.5h5.8v-30.9c0-13.7 5-25.2 20.1-25.2q4.3 0 7.9 1.5zm88.5 106.4h-11.5v-10.1h-0.7c-4.4 7.2-12.3 12.3-20.9 12.3-18.7 0-29.5-16.6-29.5-34.5 0-17.3 11.5-33.9 29.5-33.9 8.6 0 15.8 5.1 20.9 13h0.7v-10.8h11.5zm-11.5-31.6c0-12.8-8.7-23.1-19.4-23.1-10.8 0-19.5 10.3-19.5 23.1 0 12.7 8.7 23 19.5 23 10.7 0 19.4-10.3 19.4-23zm31.6-24.5h0.7c2.9-5.7 9.4-10.1 15.8-10.1 8.7 0 13.7 4.4 18 11.5 3.6-6.4 10.8-11.5 18.7-11.5 16.6 0 20.9 13 20.9 28.1v38.1h-12.3v-36c0-8.6-0.7-18.7-11.5-18.7-12.2 0-13.6 13.7-13.6 23.1v31.6h-11.5v-33.8c0-8.6 0-20.9-11.5-20.9-12.3 0-13.7 13-13.7 23.1v31.6h-11.5v-64h11.5zm90.6 25.9c0 10.8 6.5 21.6 18 21.6 9.3 0 14.4-5.1 18.7-13l10 5.8c-5.7 11.5-16.5 18-28.7 18-18.7 0-30.2-15.1-30.2-33.9 0-20.1 10.1-34.5 30.2-34.5 19.4 0 28.7 15.1 28.7 33.8v2.2zm35.3-9.4c-1.5-9.3-7.9-15.8-17.3-15.8-9.3 0-15.8 6.5-17.2 15.8zm28-14.3c2.9-7.2 9.4-12.3 17.3-12.3 2.8 0 6.4 1.5 9.3 2.9l-5 11.5c-2.2-2.1-5.1-2.9-7.2-2.9-13 0-14.4 12.3-14.4 23v31.7h-12.2v-64.7h12.2zm35.2-31c-4.3 0-7.9-3.8-7.9-8.6 0-4.8 3.6-8.6 7.9-8.6 4.4 0 8 3.8 8 8.6 0 4.8-3.6 8.6-8 8.6zm-5.7 20.9h11.5v64h-11.5zm69.7 18.7c-5-5.7-10.7-9.3-17.9-9.3-11.5 0-20.9 10.7-20.9 23 0 12.9 9.4 22.3 21.6 22.3q9.7 0 17.2-8.7v16.6c-5.7 2.9-11.5 3.6-17.2 3.6-18 0-33.1-14.4-33.1-33.1 0-20.1 14.4-34.5 33.8-34.5 5 0 11.5 1.4 16.5 4.3zm63.3 45.3h-11.5v-10.1c-5 7.2-12.2 12.3-21.6 12.3-18.7 0-28.7-15.9-28.7-34.6 0-17.2 10.8-33.1 28.7-33.1 8.7 0 16.6 4.4 21.6 12.3v-10.8h11.5zm-10.8-31.7c0-12.7-8.8-23-19.7-23-11 0-19.8 10.3-19.8 23 0 12.8 8.8 23.1 19.8 23.1 10.9 0 19.7-10.3 19.7-23.1zm43.9 19.5l-18 36.6-7.2-2.8 14.4-38.2zm47.8-72.6c-4.6 0-8.2-3.9-8.2-8.6 0-4.8 3.6-8.7 8.2-8.7 4.6 0 8.3 3.9 8.3 8.7 0 4.7-3.7 8.6-8.3 8.6zm-6.1 20.9h12.2v64h-12.2zm36.7 8.6c3.6-6.5 10.8-10.1 18.7-10.1 17.2 0 21.5 11.5 21.5 27.4v38.1h-11.5v-36.7c0-10.8-1.4-18-13.6-18-15.1 0-15.1 13.7-15.1 25.2v29.5h-12.2v-64h12.2zm95.6 9.3c-5-5-10.8-8.6-18-8.6-11.5 0-20.1 10.8-20.1 23 0 12.9 8.6 22.3 20.9 22.3 7.1 0 12.2-2.9 17.2-8.6v15.8c-5.7 3.6-10.8 4.3-17.2 4.3-18 0-33.1-14.4-33.1-33.8 0-19.4 15.1-34.5 33.8-34.5 5.7 0 11.5 1.4 16.5 4.3zm16.9 48.2c-4.2 0-7.5-3.6-7.5-7.9 0-4.4 3.3-7.9 7.5-7.9 4.2 0 7.6 3.5 7.6 7.9 0 4.3-3.4 7.9-7.6 7.9zm-150.6-690.5c10 0 20.1 3.6 25.9 11.5 7.1 7.2 9.3 17.3 7.9 28.8-3.6 21.6-24.5 39.6-46.8 39.6-10.8 0-20.1-3.6-26.6-11.6-5-5.7-7.9-13.6-7.9-22.2q0-2.9 0.7-6.5c3.6-21.6 24.5-39.6 46.8-39.6zm-11.5 71.9c17.9 0 34.5-14.3 36.6-32.3 1.5-8.7-0.7-16.6-5-22.3-5-6.5-12.9-9.4-21.6-9.4-17.9 0-34.5 14.4-37.4 32.4-1.4 8.6 0.8 16.5 5.8 23 5 5 12.9 8.6 21.6 8.6zm12.2-55.3c3.6 0 7.9 0 10.8 2.8 2.1 1.5 4.3 5.1 4.3 8q-0.7 1.4-0.7 2.1c-0.7 7.9-6.5 12.2-15.1 13 0.7 2.1 10 20.1 10 20.1h-9.3c0 0-8.6-18.7-9.4-19.4h-7.1c0 1.4-2.9 19.4-2.9 19.4h-7.9l7.2-46zm-13 7.2c0 0.7-2.1 10.7-2.1 12.2h7.9c5.7 0 12.9 0.7 13.6-6.5q0.7-2.9-0.7-4.3c-1.4-1.4-4.3-1.4-7.9-1.4z"/>
			<path id="Path 12" fill-rule="evenodd" class="s1" d="m1264.2 60.6l-76.9 438.7c-6.5 33.1-38.1 60.4-71.2 60.4h-828.3c-33.1 0-54.7-27.3-49.6-60.4l77.6-438.7c5.8-33.1 37.4-59.7 70.5-59.7h828.3c33.1 0 55.4 26.6 49.6 59.7zm-76.9-15.1h-801c-11.5 0-24.5 11.5-26.6 23l-71.2 405.6c0 0-10.1 41 35.2 41h792.4c12.2 0 25.2-11.5 27.3-23.7l70.5-400.6c7.2-46.8-26.6-45.3-26.6-45.3z"/>
			<path id="Path 13" fill-rule="evenodd" class="s2" d="m1165.7 107.3l-35.9 203.6h-69.8l24.5-146h-59.7l-2.9 13.6c0 0-27.3-14.4-56.8-8.6-28 5.8-61.1 30.2-69.7 95.7-7.9 61.8 17.2 97.1 48.1 100.6 31.7 4.4 47.5-13.6 47.5-13.6l13.7 15.1h115l-15.1 84.9c-1.4 10-10.8 17.9-20.8 17.9h-346.6l19.4-113.6c0 0 99.2 49.6 124.4-74.1 6.5-34.5 1.4-93.5-41.7-109.3-27.3-9.4-51.1 5-51.1 5l2.2-12.2-60.4-0.7-54.7 304.9h-323.5c-9.4 0-16.6-7.9-14.4-17.9l15.1-84.9h115l22.3-122.3c3.6-16.5 40.3-18.7 38.9-0.7l-20.9 123h59.7l21.6-122.3c4.3-16.5 40.9-18.7 39.5-0.7l-21.6 123h61.2l28.7-162.6c1.5-12.2-14.4-35.2-45.3-35.2-36.7 0-53.9 26.6-53.9 26.6 0 0-13-28-46-28-33.1 0-51.8 18.7-51.8 18.7l3.6-21.6-59.7 0.7-25.9 144.6h-56.1l36-203.6c1.4-9.3 11.5-17.2 20.8-17.2h732c10.1 0 16.6 7.9 15.1 17.2zm-386.1 210c-15.1-9.3-7.9-66.9 6.5-94.2 3.6-7.2 11.5-7.9 15.1-7.9 28 0 21.5 74.8 2.1 97.8-5.7 7.2-16.5 8.7-23.7 4.3zm225.1-91.3c-1.5 15.1-10.8 73.4-15.1 80.6-3.6 7.1-20.2 10.7-28.8-0.8-10.1-14.4 0-79.8 18.7-88.4 13.7-7.2 25.9 1.4 25.2 8.6z"/>
			<path id="Path 14" fill-rule="evenodd" class="s3" d="m1213.9 90.8l-70.5 400.6c-2.1 12.2-15.1 23.7-27.3 23.7h-792.4c-45.3 0-35.2-41-35.2-41l71.2-405.6c2.1-11.5 15.1-23 26.6-23h801c0 0 33.8-1.5 26.6 45.3zm-63.3-0.7h-732c-9.3 0-19.4 7.9-20.8 17.2l-36 203.6h56.1l25.9-144.6 59.7-0.7-3.6 21.6c0 0 18.7-18.7 51.8-18.7 33 0 46 28 46 28 0 0 17.2-26.6 53.9-26.6 30.9 0 46.8 23 45.3 35.2l-28.7 162.6h-61.2l21.6-123c1.4-18-35.2-15.8-39.5 0.7l-21.6 122.3h-59.7l20.9-123c1.4-18-35.3-15.8-38.9 0.7l-22.3 122.3h-115l-15.1 84.9c-2.2 10 5 17.9 14.4 17.9h323.5l54.7-304.9 60.4 0.7-2.2 12.2c0 0 23.8-14.4 51.1-5 43.1 15.8 48.2 74.8 41.7 109.3-25.2 123.7-124.4 74.1-124.4 74.1l-19.4 113.6h346.6c10 0 19.4-7.9 20.8-17.9l15.1-84.9h-115l-13.7-15.1c0 0-15.8 18-47.5 13.6-30.9-3.5-56-38.8-48.1-100.6 8.6-65.5 41.7-89.9 69.7-95.7 29.5-5.8 56.8 8.6 56.8 8.6l2.9-13.6h59.7l-24.5 146h69.8l35.9-203.6c1.5-9.3-5-17.2-15.1-17.2zm-171.1 127.3c-18.7 8.6-28.8 74-18.7 88.4 8.6 11.5 25.2 7.9 28.8 0.8 4.3-7.2 13.6-65.5 15.1-80.6 0.7-7.2-11.5-15.8-25.2-8.6zm-199.9 99.9c7.2 4.4 18 2.9 23.7-4.3 19.4-23 25.9-97.8-2.1-97.8-3.6 0-11.5 0.7-15.1 7.9-14.4 27.3-21.6 84.9-6.5 94.2z"/>
		</g>
	</g>
</svg>