<?xml version="1.0" ?>
<!-- Generator: Adobe Illustrator 27.0.0, SVG Export Plug-In . SVG Version: 6.00 Build 0)  -->
<svg xmlns="http://www.w3.org/2000/svg" version="1.2" viewBox="0 0 144 144" baseProfile="tiny-ps">
	<g transform="matrix(-1 0 0 1 134.9 -9.5835)">
		<path d="m134.7 83.7v0.2l0.2-0.2h-0.2z"/>
		<path d="m126.7 71.1c-0.2 0.1-0.4 0.2-0.5 0.5 0.9-0.2 1.6 0 2.5 0.2-0.3-1.5 1.4-0.5 1.2-0.5 0.2-0.8 1.2-0.9 1-2-0.8-0.4-1.5 0.3-2-0.7-0.1 1.3-1.2 0.6-1.7 1.5 0-1.7-1.7 0.4-2.5 1 0.6 0.8 1.4-0.9 2 0z"/>
		<path d="m120.3 82.7s0.2 0.4 0.2 0c0.1-0.3-1.1-0.6-0.2 0z"/>
		<path d="m124.3 90.1c-0.6 0-0.8 0.4-1 0.7 0.4-0.1 1-0.1 1-0.7z"/>
		<path d="m122.3 69.4c-0.5-0.1-1.3 0.7-0.7 0.7-0.1-0.5 0.7-0.2 0.7-0.7z"/>
		<path d="m123.8 70.9c0.8 0-1.4-0.1 0 0z"/>
		<path d="m120.3 91.1c1.1 0.9 3.2-1.6 2.2-2-0.1 1.6-1.7 0.5-2.2 2z"/>
		<path d="m132.4 68.7c-0.7 0.7 0.2 1.1 0.2 1.7-0.3-0.1-0.5-0.3-0.7-0.5 0.2 0.7 0.3 1.3 0 2 1.7 0.4 1.3-2.4 0.5-3.2z"/>
		<path d="m126.7 88.1c-0.8 0.1-1.4-0.1-2-0.2-0.2 1 2 1 2 0.2z"/>
		<path d="m133.7 88.2v0c0-0.1-0.1-0.1 0 0-0.1-0.1 0 0 0 0z"/>
		<path d="m133.4 83.9c0.3 0.4 1 0.3 1.3 0v-0.2c-0.7 0.1-1.1 0-1.3 0.2z"/>
		<path d="m129.7 89.9c-0.8 0.3-1.9 0.8-2.3 1.6-0.2 0.3-2.2 0.9-1.8 0.1-0.9 0.6-2.1 0.4-3 1-0.1 0.2-0.2 0.5-0.3 0.7-0.3 0.8-0.5-0.2-0.7-0.2-1-0.1-2.1 0.6-3 0.8-1.4 0.4-1.6 1.4-2.9 1.7-2 0.5-3.1 2.7-4.1 4.3-0.7 1 1.2 2.3 0.4 3.2-1.2 1.4-1.2 2.8-0.5 4.4 0.3 0.6 0.5 9.4 0.3 14.5 10.3-8.2 18-19.5 21.6-32.6-0.2-0.1-0.4-0.2-0.5-0.2-1.1-0.3-2.3 0.3-3.2 0.7z"/>
		<path d="m127.9 88.1c0.5-0.1 1.1-0.1 1-0.7-0.6-0.1-0.7 0.4-1 0.7z"/>
		<path d="m96.5 104.5c-0.4-2.4 1.3-3.5 0.9-5.7s0.6-5.7-2.3-6.2c-1.3-0.2-1.3-1-2.3-1.9s-2.2-1.5-3.4-2.1-2.4-1.2-3.5-2c-1.3 0.8-2.9 1.4-4.4 1.2 0.6 0.8-1.9 1-1.9 1 0.3-0.2 0.6-0.3 0.9-0.3-0.1-0.2-0.3-0.3-0.5-0.2 0.6-0.5 0.1-0.3 0-1 0.6-0.7 1.5 0.4 2-0.2-0.6-0.6-1.2-1.3 0.2-1.2 0 0.7 0.5 1.3 0.5 1.7 0.3-0.9 1.8-0.4 2-1.5-0.4-0.1-1.3 1.1-1.4 0.1-0.1-1.2-0.6-0.6-1.5-1-0.7-0.3-1-0.9-1.5-1.4-0.8-0.8-2.6 0.5-3.7 0.6-0.2-0.7 0.7-0.5 0.9-0.9-0.1-0.2-0.2-0.3-0.4-0.3 0.1-0.6 1.1 0 1.2-0.5-0.9-0.2-2.9-0.9-3.4 0.2 0 0.6 1.2-0.5 0.5 0.5 0.1 0 0.7-0.4 0.2-0.5 0.3-0.1 0.5-0.1 0.7 0.1 0.1 0.4-0.9 0.9-1.1 1-1 0.6-0.9-0.5-1.7-0.1 0.2-0.7 0.9-1-0.2-1.5-0.4 0-0.8 0.2-1 0.5-0.5-0.5-1.1-0.9-1.7-1.1-1.9-0.7-4.4-0.4-6.2 0.6 0.1-0.2 0.2-0.3 0.2-0.5-0.6-0.2-0.7 0.3-1.2 0.2 0.2 0.2 0.2 0.5 0.2 0.7-1.1-0.7-2.4-1-3.3-0.2-0.7 0.6-0.7-0.4-0.9-0.3-0.6 0.2-0.8 1.1-1.5 1 0.6 1-1 1-0.7 2h-2c0.1 0.3 0.4 0.5 0.7 0.5-0.2 0.9-1.3 0.3-1.7 0-0.1 1.5 1.6 0.2 1.7 1.5-1.2 0.2-2.3 0.3-3.2-0.7 0.1-0.2 0.3-0.3 0.5-0.2-2.2-0.2-4.4-0.9-6.6-0.7 1 0.6-1.1 0.7-1.2 1.2 0.2-0.5-0.4-0.7-0.2-1.2-0.3 0.2-0.7 0.3-1 0.5 1 0.7-0.7 1.6-1.2 1.7-0.6-0.4-0.3-1.3-1.2-0.7 0-0.6 0.8-0.9 1.2-0.5-0.2-1.1-2.1-0.5-2.5-1.7-1 1.1-3.1-1.5-0.7-1.5-0.3-0.8-2.2-0.8-1.5-1.7 0.4-0.5 0.7-0.7 0-1.2 0.5-0.7 1.2-0.9 2-0.7-0.3-1.5-1.5-0.1-2.5-0.7 0.4-0.6 1.9-2 1.2-2.7-1.2-1 1-0.6 1.5-0.8-0.2-0.3-0.2-0.9-0.7-1 0.3-0.7 1.2-0.6 1.5-1.2-0.9-1.1-0.9 0.3-2 0-0.3-0.3-0.3-0.5-0.1-0.8 0.4-0.3 0.8-0.3 0.6-0.9 1 0.4 2.9 0.6 3.2-1 0.8 0.5 0.9-0.1 1.4-0.7 0.8-0.9-0.3-0.7-0.6-0.8-0.2-0.8 0.9-0.7 0.9-0.9 0-0.8 0.5 0.1 1.1-0.1-0.1-0.4-1.1-0.8-1.2-0.2-0.5-0.7-0.8-1.5-1.7-1.5 0.5-0.6 2-1 1-2 0.8 0.1 1.4 0.5 2 0.9 1.3 0.9 1.4 0.6 2.7 0 1.2-0.6 0-1.1 0.8-1.3 0.4-0.1 1.4-0.4 1.2 0.4 0.6-0.4-0.3-1.2 1-1 0-1.2-1.6-1.2-1.2-2.5-0.5-0.1-0.9 0.4-1.2 0 0.4-0.2 0-0.9 0.5-1-0.4-0.5-1.3-0.3-1.2-1.2 0.6-0.1 1.3 0.5 1.7 0-0.1-0.4-0.4-0.6-0.7-0.7 0-0.6 1.2-0.1 1.5-0.2-0.2-0.7-1.4-0.3-1.2-1.2 1.3 0.7 2.2-0.5 3.4 0-0.2-0.5-0.4-0.6-1-0.6-1.2-0.1 0-1-0.5-1.1 0.5-0.2 1-0.2 1.5 0.2 0.8 0.1 0.8-1 0.8-0.9-0.2 0.2-0.5 0.3-0.8 0.2 0-1.1 1.3-0.2 1.2-1.5 0.5 0.3 1-0.1 1.5 0.2-1-0.5-1.6-2.6 0.2-2-0.3-0.3-0.6-0.3-1-0.2 0.2-0.5 0.8-0.7 1.3-0.7 1.2 0.1-0.1-0.1 0.7-0.6-0.6 0.1-1.7 0.7-2.2 0.2-0.1-0.5 1.5-1 1.7-1 2 0-0.8-1.4 1.2-1.2-0.6-0.6-1.4 0.3-2-0.5 0.2-0.2 0.2-0.5 0.2-0.7 0.2 0.1 0.9 0.5 1.1 0.1 0 0 1.8-1 0.6-1.1 1-0.6 2 0.8 3 1-0.3 0.2-0.4 0.5-0.3 0.8 0.3 0.1 1.2-0.2 1.5-0.3-0.8-0.7 1.4-1.1 2.1-0.3 1.2 1.3 0.8 0.9 1.9 0.3 0.2 0.1 0.4 0.2 0.4 0.5 0-0.2 0.9-2 1-1.3 0 0.2-0.4 0.7-0.2 0.8 0.4 0.3 1.1-1.4 1.4-1.7 0.2 0.6 0.4 0.8 0.2 1.5 0.2-0.2 0.4-0.2 0.7-0.2-0.3-0.7-0.2-1.9 0.8-2 0.9 0.5-0.4 1.7-0.7 2 0.2 1 2.1-0.4 3 0.2-0.3-0.9 1.1-1.7 1.2-2.5 0.9 0.3 1.1 1.5 2.2 1.5-0.2-0.2-0.4-0.4-0.7-0.3-0.2-0.7 0.3-0.6 0.5-1.2-1.7 0.4-0.7-0.3-1-1.2 0.5 0.4 1 0.6 1.7 0.5-0.2-0.5-0.5-0.7-1-0.7 0.3-0.3 0.3-0.5 0-0.7 0.7 0.2 1.5 0.3 2 1 0.1-0.5 0.8-0.5 1.2-0.7 0.1 0.8 0.9 1.1 1.3 1.7 0.5 0.8 1.3 0 1.2 1 0.4-0.2 0.8-0.3 1.2-0.2-0.2-0.4-0.3-0.8-0.2-1.2 0.7 0.2 1.9 0.3 1.7-0.8-0.3-1 0.9-0.5 0.6-1.2 0.2 0.5 1.2-0.1 1.2 0.5 0.3-0.3 0.3-0.6 0.2-1 0-0.3-1 0.1-1.2 0-0.1-0.9 1.1-0.7 0.7-1.7 0.7 0.7 0.9-0.3 1.5 0.5 0.6-0.7 1.4-1.2 2.2-1.5 0.6 0.1 0 1.1 0.5 1.2 0.6-0.6-0.6-2 0.5-2.5 0.5 0.1-0.6 0.7-0.1 0.7 0.3 0 0.5-0.5 0.4 0.3 0.3-0.2 0.7-0.3 1-0.5-1.3 0.7 0.8-2.3 0.8-1.9 0 0.2 0 0.3-0.1 0.4 0.9 0.1 0.9-1.4 1.5-1.5 0.6 0.9-1 1.9-1.7 2 0.1 0.2 0.2 0.2 0.2 0-0.2 0.6 0.8 0.8 0.2 1.5 1 0.2 1.8-0.8 2-1.7 0.3 0.2 0.9 0.5 0.7-0.2 0.3 0.2 0.5 0.6 0.5 1 0.4-0.1 1.2-0.9 1 0.2-0.3 1.2 0.9 0.1 1.5 0.7-0.7-0.9 0-1 0.7-1.2-0.4-0.7-1.3 0.1-1.8 0-1.1-0.1 0.2-0.9 0.1-1.2 1.3 0.1 2.2 0.9 2.5 2.2 0-0.8 2 0 1.5 0.5 0.4 0.1 0.9 0 1.2-0.2-1.2-0.4-2-1.5-3.2-2 0.2-0.2 0.3-0.5 0.5-0.7-0.8 0.4-1-0.1-1.7-0.2 0.1-0.1 0.7-0.4 0.2-0.5 0-0.3 1 0.1 1.2 0-0.5-1.1-2.1-0.4-1.7-2.2 1 0.1 5.9 4.1 5.4 4.7 0.2 0.1 4 0.8 3.8 0.3-0.4-1.4-2.5 0.4-2.4-1 0.9 0.1 0.6-0.1 0.5-0.7 1.1 0.3 2.2 0.9 2.7 2 0.5-0.9 1.5-1.2 2.5-1.2-0.3 0-0.4 0.2-0.4 0.4 0.2 0.2 0.8 0.1 0.4 0.6 0.6 0 2.2 0.1 1.5-1 0.6 0.4 1.3-0.2 1.7 0.5 0.1 0.6-0.8 0.7-0.2 1.2 0.9-0.2-0.9-0.7 1.2-0.7 0.3 0.3-0.1 2.6 1.3 1.2 0.6-0.6 0.2-1.2-0.4-1.4-1.2-0.4 0.6-1.5 0.6-1.8 1.2 0.2 0.3 1.9 0.5 2 0.1 0.1 0.9-0.4 0.9-0.1 0-0.4-0.8-0.4-0.4-1.1 0.6-0.1 0.6 0.6 0.7 1 0.6-0.7 1.3-1 1.7 0 0.5-0.1-0.2-0.4 0.2-0.7 0.7 0.4 1.4 0.3 2.2 0.5 0-0.3-0.1-0.6-0.4-0.7-0.8-0.6-0.1-0.6 0.1-0.8 0-0.3-0.2-0.4-0.4-0.4 1.6-1.7 1.1 2.7 1.1 2.7 0.3 0.1 1-1 0.9 0 0.8-0.4-0.4-0.9-0.2-1.5 0.8 0.3 1.3 1 2.2 0.5-0.1 0.8 1 0.7 1 1.5l0.3-0.3c-11.3-17.4-30.9-29-53.3-29-35.5-0.8-63.9 27.6-63.9 62.7s28.4 63.5 63.5 63.5c8.2 0 16.1-1.6 23.3-4.5 1.7-4.8 1.2-24.8 0.9-26.8zm-60.5-50c-0.3-0.5-0.7-1.1-1.4-1.4-0.1 0-0.4 0-0.5 0.1s0.3 0.6 0.2 0.8c0 0.1-0.1 0.1-0.1 0.2 0 0.2 0.2 0.4 0.1 0.6 0 0.1-0.1 0.2-0.1 0.3v0.3c0 0.1-0.1 0.3-0.1 0.4v0.2c0 0.1 0 0.2-0.1 0.3 0 0.2 0.1 0.6 0 0.6 0 0.1 0 0.1-0.1 0.2-0.1 0.2 0.1 0.6 0.1 0.9 0 0.1-0.1 0.3-0.1 0.4 0 0.2 0.1 0.3 0.1 0.4 0 0-0.2 0.1-0.2 0.2s0.1 0.4 0.1 0.5c-0.1 0.1-0.2 0-0.2 0.1-0.1 0.1 0.4 1 0.2 1.1-0.1 0-0.3-0.5-0.4-0.5-0.3 0 0.2 0.7 0.2 0.8s0.1 0.3 0.1 0.4 0.1 0.4 0 0.3c-0.1 0-0.4-0.5-0.5-0.6-0.2-0.4-0.3-0.7-0.4-0.9s-0.2-0.6-0.3-0.5c0 0 0.4 0.9 0.4 1 0.2 0.6 0.1 1.5 0 1.9-0.4-0.2 0-1.4-0.6-2.5 0-0.1-0.2-0.3-0.2-0.3-0.1 0 0 0.3 0 0.4 0.2 0.7 0.1 0.7 0.1 1.4 0 0.1-0.2 0.7-0.3 0.7s-0.1-0.4-0.1-0.4c0-0.8 0-1.3-0.2-2.1-0.1-0.3-0.1-0.8-0.3-0.8-0.1 0 0 0.3-0.1 0.2 0 0.2 0.1 0.6 0.1 0.7 0.1 0.5 0.1 0.7 0 1.2 0 0.2-0.2 0.7-0.4 0.7-0.1 0-0.1-0.3-0.1-0.2v-1.4-1.6c0-0.2-0.2-0.6-0.2-0.2v0.6c0 0.5 0 0.7-0.2 1.1-0.1 0.2-0.3 0.3-0.3 0v-0.6c0.1-0.6 0.2-1.7 0-2.3-0.1-0.2-0.1-0.5-0.2-0.5s0.1 1-0.1 1c-0.1 0-0.2-0.8-0.2-0.9 0-0.4 0-0.6-0.3-1.1-0.5-0.8-1.1-1.8-1.4-2.7-0.3-0.6 0-0.9 0.2-1.4 0.4-0.8 0.4-1.7-0.1-2.8-0.2-0.6-0.5-1-0.9-1.5-0.3-0.4-1-0.5-0.8-0.7 0.4-0.3 1.2-0.1 1.3-0.1 0.3-0.1 0.4-0.2 0.7-0.2 0.2 0 0.4 0 0.6 0.1 0.4 0.1 0.8 0.4 1.3 0.1 0.8-0.5 1.2-1.5 1.7-2.2 0.3-0.4 0.8-0.7 1.4-0.9 0.8-0.3 1.7-0.6 2.5-0.9s1.3-0.8 1.9-1.3l0.4-0.4c0.1-0.1 0.3-0.4 0.4-0.4s-0.1 0.3-0.2 0.4c-0.3 0.4-0.6 0.6-1.2 1-0.2 0.2 0.1 0.1 0.2 0 1-0.5 2-1.2 2.6-1.8 0.5-0.5 0.7-0.9 1.1-1.4 0.2-0.3 0.1 0.1 0 0.3-0.3 0.8-1.1 1.7-2 2.2 0 0-0.4 0.2-0.5 0.3 0 0.2 0.5-0.1 0.6-0.1 1.4-0.7 2.4-1.6 3.3-2.6 0 0 0.2-0.3 0.3-0.2 0.1 0-0.1 0.3-0.2 0.4-0.1 0.2-0.1 0.3-0.2 0.4-0.5 0.6-1.4 1.3-2.2 1.8-0.1 0.1-0.6 0.2-0.5 0.3 0 0.1 0.3 0 0.4 0 1.1-0.4 2.2-1.1 3.2-1.8 0.1-0.1 0.6-0.5 0.3 0s-0.9 0.9-1.5 1.3c-0.4 0.3-0.5 0.3-1 0.5-0.2 0.1-0.6 0.2-0.6 0.4 0 0.1 0.7-0.1 0.8-0.1 0.7-0.2 1.1-0.4 1.9-0.7 0.4-0.2 0.8-0.5 0.9-0.4s-0.8 0.8-0.9 0.9c-0.6 0.4-1.2 0.5-1.6 0.7 0 0-0.3 0.1-0.3 0.3 0 0.1 1-0.1 1.1-0.1 0.7-0.1 0.9-0.2 1.4-0.3 0.3-0.1 0.2 0.2-0.1 0.4-0.4 0.3-1.2 0.4-1.6 0.6-0.1 0.1-0.4 0.2-0.4 0.3 0 0.2 0.8 0 0.9 0.1 0 0.1-0.1 0.3-0.3 0.3s-0.2-0.1-0.3-0.1c-0.2 0.1 0 0.2-0.2 0.3-0.1 0.1-0.4 0.1-0.4 0.2s0.2 0.2 0.2 0.2c0 0.3-0.9 0.4-1 0.6 0 0.1 0.2 0.2 0.2 0.3s-0.3 0.2-0.5 0.3-0.3 0.2-0.5 0.3-0.2 0.4-0.5 0.6l-0.6 0.3c-0.1 0.1-0.1 0.2-0.2 0.2-0.2 0.2-0.4 0.3-0.5 0.5-0.1 0.1-0.1 0.2-0.2 0.3-0.1 0-0.2 0-0.2 0.1-0.1 0.1-0.1 0.2-0.2 0.3-0.2 0.2-0.4 0.2-0.6 0.4-0.1 0.1-0.1 0.2-0.2 0.3-0.1 0.2-0.5 0.2-0.6 0.4-0.1 0.1-0.1 0.2-0.1 0.3-0.2 0.2-0.5 0.2-0.7 0.4-0.1 0.1-0.2 0.4-0.2 0.5 0.1 0.2 0.4 0.5 0.7 0.5 0.6 0.1 1.1 0.1 1.7 0.2h0.9c0.3 0.1 0.4 0.2 0.5 0.5 0.1 0.2 0.2 0.3 0.3 0.4 0.1 0.2-0.1 0.5-0.1 0.7s0.2 0.4 0.2 0.6-0.1 0.5-0.2 0.7c-0.1 0.1-0.2 0.1-0.2 0.2v0.3c0 0.1-0.3 0.7-0.5 0.8-0.1 0.1-0.3 0.1-0.5 0.2s-0.2 0.3-0.3 0.4c-0.4 0.3-0.6 0.3-1 0 0.2-0.5-0.1-0.9-0.5-1.5z"/>
		<path d="m132.9 88.4c-0.4 0-0.9-0.1-1 0.2 0.4 0 0.9 0.1 1-0.2z"/>
		<path d="m134.4 69.6c0.3 2.2 0-1.7-0.2-0.2-0.1-0.1 0.1 0.2 0.2 0.2z"/>
		<path d="m130.9 88.1c0.9-0.4 0.4-0.5 1-1.2-0.6 0-1.6 0.9-1 1.2z"/>
		<path d="m90.3 77.8c-1-0.9-0.6 0.8 0 0z"/>
		<path d="m84.1 84.7c0.8-0.4 2.5 1.2 3 0.2-1.2 0.2-2-1.1-3-0.2z"/>
		<path d="m87.6 85.7c-1.8 0.8 0.7-0.4 0 0z"/>
		<path d="m88.5 40.3c0.3 0 0.9 0 0.7-0.5-0.4 0-0.5 0.1-0.7 0.5z"/>
		<path d="m88.3 80.5c-0.3-1.2-1.2-0.4 0 0z"/>
		<path d="m91.3 79.7c-0.4 0.1-1 0.1-1.2 0.5 0.4-0.1 1.4 0.4 1.2-0.5z"/>
		<path d="m89.8 79.7c0.7 0.2 1.5-0.6 1-0.7-0.1 0.5-1.1 0.1-1 0.7z"/>
		<path d="m75 68.2c0 0.4 0.2 0.6 0.5 0.7 0-0.4-0.2-0.6-0.5-0.7z"/>
		<path d="m74.5 82.5c0.5 0 0.6 0 0.7-0.5-0.9-0.2-0.3-0.2-0.7 0.5z"/>
		<path d="m81.9 45.5c-0.8-0.7-0.8 0.9 0 0z"/>
		<path d="m77.2 44c0.2 0.7-1.2-0.2-1 0.5 0.6 0.1 2 0.2 1 1 0.6 0.6 0.8-0.4 1-0.7-0.8 0.2-0.3-0.8-1-0.8z"/>
		<path d="m75.5 55.6c0.2 0.1 0.9 0.6 1 0-0.6 0.3-1-0.6-1 0z"/>
		<path d="m119.6 82.2c-0.1-0.2-0.7-0.3-0.7 0-0.2 0.6 0.9 0.5 0.7 0z"/>
		<path d="m111.7 39.6c-0.7 0-1.2-0.3-1.2 0.5 0.3-0.1 1.4 0.3 1.2-0.5z"/>
		<path d="m111.6 89.5c-0.2-0.4 0.2-1.2 0.1-1.4-0.3-0.5-2-0.3-0.7-1.2-0.3 0-0.6 0.2-0.7 0.5 0-0.5-0.7-0.3-0.5-1 0.7 0.6 0.2-0.4 0.7-0.5 0.6 0.6 1.9 0.3 1.7 1.5-0.3 0-0.6-0.4-0.7 0 0.4 0.3 1 0.3 1.2 0.7 0.1 0.6-1.1-0.2-0.7 0.7 1.2 0.1 2.1-2 3-2.7-0.8-0.1 0-1-1-0.7-0.5 0.1-1.1-0.7-0.6-1 0.8-0.4-1.8-1.2-0.2-2.7-1 0.4-2.2 0.1-3.2 0.4-0.9 0.3-0.8 0.8-1.8 0.7-0.4 0-0.9 0-1.2 0.3-1 0.9 0 3.7-1.2 4.2 0.3 0.4 1.5 0 1.5 0.7-1.1 0-1.7-0.4-1.9 0.8l-0.3 3c-0.1 1.5-0.5 4.1 1.1 5 1.8-1.2 3.5-2.8 4.6-4.7 0.6-0.7 1.2-1.7 0.8-2.6z"/>
		<path d="m91.4 86.1c-0.1-0.2 0-0.7 0-0.6 0-0.7-1.4 0.2-1.4 0.2 0.3-0.7-0.1-0.3-0.6-0.4-0.2 0.2-0.2 0.4 0.1 0.6 0.8-0.1 0.8 0.4 0.2 0.7 1.2-0.1 0.6 0 0.7-0.7 0.4-0.1 0.8 0.1 1 0.2z"/>
		<path d="m95.7 79.7c-0.1 0.3 0 0.6 0.2 0.7 0.6-0.6-0.3-1-0.7-1-0.1 0.4 0 0.7 0.2 1 0-0.2 0.1-0.5 0.3-0.7z"/>
		<path d="m103.1 88.4c-0.7 2.2-1.7 4.4-0.5 6.9-0.6-2.9 1.2-4.7 0.5-6.9z"/>
		<path d="m91 86.9c0.3 0 0.7 1 1 0.2-0.3 0.1-0.9-0.8-1-0.2z"/>
		<path d="m97.4 76.1c-0.6-0.1 0.2-0.4-0.2-0.5-0.1 0.6-0.4-0.2-0.5 0.2 0.3-0.1 0.6 0.9 0.7 0.3z"/>
		<path d="m95.9 76.8c-0.3-1.5-1.2-0.6 0 0z"/>
		<path d="m96.2 75.3c-1.6-0.3-0.6 0.8 0 0z"/>
		<path d="m97.2 81.7c0.1 1.2 0.9 1.7 1.5 2.7-1.6-0.3-2.7-2.5-4.4-2.2 0.5 1.7 0.9 3.6 2.1 4.9 0.6 0.6 1.3 1 2.1 1 1.2 0 1.7-2.2 1.7-3.3-2.2 0.2-1.1-3.1-3-3.1z"/>
		<path d="m47.2 72.9c0 0.2 0.7 0.3 0.7 0.2 0-0.3-0.6 0-0.5-0.4 0.4-0.4 1-0.2 1.2 0.2-0.2-0.6 1.1-0.8 0.2-1.2 0 0.2-1.5 0-1.6 1.2z"/>
		<path d="m44.9 72.1c-0.6 0-0.9 0.5-1.2 0.7 0.9 0.5 0.8-0.2 1.2-0.7z"/>
		<path d="m48.6 66c-1.4-0.1-0.3 0.9 0 0z"/>
		<path d="m42.2 81c-1.1-0.7-0.6 0.8 0 0z"/>
		<path d="m46.7 69.4c0.4 0 0.6-0.2 0.7-0.5-0.4 0-0.6 0.2-0.7 0.5z"/>
		<path d="m44.5 73.8c0.5 0 0.8-0.2 1-0.5-0.5 0.1-1.3-0.2-1 0.5z"/>
		<path d="m49.4 59.3c0.5-0.2 0.8 0.7 1 0-0.3-0.4-0.8-0.8-1 0z"/>
		<path d="m118.8 87.6c0-1.7-2.2 0.9-2 1.5 0.5-0.7 1.6-0.7 2-1.5z"/>
		<path d="m39.3 81.7c0.7-0.1 0.9 1.7 1.7 0.7-1.1 0.5-0.8-1.7-1.7-0.7z"/>
		<path d="m40.8 78.8c0.4-0.7-0.6-1.1-0.7-0.5 0.4-0.1 0.4 0.3 0.7 0.5z"/>
		<path d="m51.8 58.3c1-0.1 1.5 0.6 1 1.5 1.1-0.1 0.7-1.7 0.2-2.2 0.3 0.4-1.6 0.7-1.2 0.7z"/>
		<path d="m61.7 50.7c-1.6-0.3-0.5 0.7 0 0z"/>
		<path d="m67.1 48c0.5 0 0.6 0 0.7-0.5-0.9-0.1-0.3-0.1-0.7 0.5z"/>
		<path d="m58.7 82c-0.5 0-0.8 0.2-1 0.5 0.6 0 1-0.1 1-0.5z"/>
		<path d="m73.3 56.1c1.1 0 0-1.2 0 0z"/>
		<path d="m71.8 66.4v-0.7c0.4 0.3 0.6 0.2 0.7-0.2-0.3 0-0.6-0.2-0.7-0.5 0 1-1.5 1-2 1.7 0.8 0.2 1.7-0.2 2.5-0.2 0 0.3-0.1 0.5-0.2 0.7 1.1 0.1 0.7-1.5-0.3-0.8z"/>
		<path d="m52.1 63.2c0.4 0.7 0.8-0.4 0.2-0.5 0 0.3-0.2 0.3-0.2 0.5z"/>
		<path d="m55.5 53.9c-1.5-0.1-0.5 1-0.5 1.5 0.5 0 0.6 0 0.7-0.5-1.1 0.2-0.3-0.5-0.2-1z"/>
		<path d="m119.1 38.1c-0.2-0.6-1.1-1.1-1.5-0.7-0.1 0.8 1.1 0.4 1.5 0.7z"/>
	</g>
</svg>