<svg id="Group_47" data-name="Group 47" xmlns="http://www.w3.org/2000/svg"  viewBox="0 0 168 55.658">
				  <defs>
				    <clipPath id="clip-path">
				      <rect id="Rectangle_164" data-name="Rectangle 164" width="168" height="55.658" fill="none"></rect>
				    </clipPath>
				  </defs>
				  <g id="Group_6" data-name="Group 6" clip-path="url(#clip-path)">
				    <path id="Path_108" data-name="Path 108" d="M741.957,0c1.285.525,2.559,1.08,3.857,1.571,3.717,1.406,7.444,2.785,11.167,4.177.3.112.591.244,1.048.434l-15.773,8.134-6.493-6.953L741.363,0h.594m.33,2.754L738.82,7.2c1.179,1.259,2.351,2.453,3.447,3.713.4.465.706.416,1.167.17,1.622-.862,3.26-1.695,4.892-2.539l3.967-2.05L742.287,2.754" transform="translate(-590.029)" fill="#000"></path>
				    <path id="Path_109" data-name="Path 109" d="M693.048,269.654a.549.549,0,0,1,.052-.189,2.666,2.666,0,0,0,.843-1.821c-.028-.768.637-.965,1.625-.648l-1.926,2.657Z" transform="translate(-555.774 -213.995)" fill="#000"></path>
				    <path id="Path_110" data-name="Path 110" d="M507.832,61.416c0,.452-.015.81,0,1.167a2.674,2.674,0,0,0,1.579,2.434c2.237,1.1,6.69.325,8.409-1.469a5.072,5.072,0,0,0,.5-.61c1.129-1.626.837-2.538-1.03-3.183-3.357-1.16-6.793-2.133-10.059-3.509-4.37-1.84-6.248-5.587-4.884-9.466a21.662,21.662,0,0,1,3.528-6.456,2.216,2.216,0,0,1,1.838-.9c3.723-.095,7.445-.215,11.168-.325q10.082-.3,20.164-.592a4.129,4.129,0,0,1,.429.036,10.436,10.436,0,0,1-.591,5.8H526.173c.263-1.9-.2-2.664-1.971-3.341a5.814,5.814,0,0,0-7.517,2.724c-.577,1.093-.348,1.706.818,2.111q5.312,1.843,10.63,3.669c4.382,1.5,6.2,4.855,5.126,9.38a17.276,17.276,0,0,1-5.365,8.7c-4.212,3.929-8.967,6.935-14.8,7.5a47.264,47.264,0,0,1-10.358-.088c-3.877-.489-6.458-3.178-8.032-6.634-.967-2.123-.351-4.415.118-6.612.03-.139.335-.313.512-.314,4.15-.018,8.3-.014,12.5-.014" transform="translate(-396.303 -30.879)" fill="#000"></path>
				    <path id="Path_111" data-name="Path 111" d="M95.49,68.225,85.764,89.282c-3.3-6.076-2.827-12.6,2.21-17.382,3.793-3.6,8.408-5.723,13.233-7.455a117.45,117.45,0,0,1,21.57-5.166c3.612-.568,7.242-1.014,10.865-1.509.517-.071,1.04-.1,1.693-.162-.671,1.523-1.286,2.932-1.912,4.338q-6,13.47-12.015,26.931c-.133.3-.49.7-.747.7-3.854.045-7.71.031-11.728.031l8.962-21.113-.181-.12-20.2,21.681-1.829-21.8-.2-.034" transform="translate(-67.089 -46.197)" fill="#000"></path>
				    <path id="Path_112" data-name="Path 112" d="M48.805,15.382c3.452-2.412,6.769-4.739,10.1-7.044a2.035,2.035,0,0,1,1.059-.4c5.147-.025,10.295-.017,15.442-.014a2.951,2.951,0,0,1,.383.064c-.837,1.893-1.627,3.764-2.515,5.587-.127.261-.717.366-1.108.417-4.411.566-8.84,1.007-13.235,1.675-13.548,2.06-26.807,5.189-39.282,11.07A74.257,74.257,0,0,0,4.968,35.788c-.257.2-.543.373-.816.558l-.164-.2q2.345-2.71,4.69-5.42Q18.237,19.7,27.786,8.672a1.95,1.95,0,0,1,1.665-.766q7.275.053,14.551,0a1.2,1.2,0,0,1,1.27.784c1.121,2.226,2.322,4.413,3.534,6.689" transform="translate(-3.198 -6.34)" fill="#000"></path>
				    <path id="Path_113" data-name="Path 113" d="M339.865,78.679,353.647,47.7H341.725c-.009-1.327.9-1.275,1.689-1.336,7.357-.569,14.71-1.18,22.072-1.673,4.863-.326,9.737-.479,14.607-.708.259-.012.519,0,.921,0-.518,1.165-.96,2.254-1.5,3.294-.113.218-.581.354-.887.356-3.464.025-6.928.042-10.391-.005a1.273,1.273,0,0,0-1.376.918q-6.483,14.65-13,29.286a1.191,1.191,0,0,1-1.287.868c-4.187-.042-8.376-.02-12.709-.02" transform="translate(-272.547 -35.269)" fill="#000"></path>
				    <path id="Path_114" data-name="Path 114" d="M675.106,103.15l12.536-29.48,4.534,4.3,8.96-4.424c-.659,1.505-1.239,2.839-1.825,4.169q-5.451,12.366-10.919,24.724c-.129.29-.494.676-.752.679-4.12.043-8.24.03-12.532.03" transform="translate(-541.386 -58.98)" fill="#000"></path>
				    <path id="Path_115" data-name="Path 115" d="M359.6,13.786c.865-1.942,1.656-3.74,2.477-5.524.071-.154.328-.247.518-.311a1.612,1.612,0,0,1,.492-.01h36.93l-1.921,4.327c-12.84-.061-25.608.363-38.5,1.518" transform="translate(-288.37 -6.356)" fill="#000"></path>
				    <path id="Path_116" data-name="Path 116" d="M572.624,7.548a24.233,24.233,0,0,1,8.414-4.088,31.809,31.809,0,0,1,13.6-.914c3.2.565,5.856,1.98,7.23,5.149.128.294.232.6.336.87L572.624,7.548" transform="translate(-459.203 -1.736)" fill="#000"></path>
				    <path id="Path_117" data-name="Path 117" d="M5.461,241.694c-.585.875-1.2,1.731-1.742,2.632a1.159,1.159,0,0,1-1.56.589l.724-3.545-.244-.069c-.416.984-.869,1.955-1.237,2.957A.927.927,0,0,1,0,244.9c.945-2.169,1.833-4.36,2.885-6.469.172-.344,1.066-.329,1.851-.54l-1.03,4.434a2.972,2.972,0,0,0,.468-.429A26.777,26.777,0,0,0,5.9,239.254a1.83,1.83,0,0,1,2.478-1.064c-.41.96-.823,1.937-1.243,2.91-.457,1.055-.958,2.093-1.368,3.166-.264.691-.656.921-1.388.648l1.262-2.978.091-.412-.271.172" transform="translate(0 -190.773)" fill="#000"></path>
				    <path id="Path_118" data-name="Path 118" d="M294.262,238.111c.1,1.472.19,2.747.294,4.242a6.162,6.162,0,0,0,.511-.756c.381-.837.778-1.67,1.091-2.533a1,1,0,0,1,1.485-.709c-.95,2.155-1.871,4.318-2.877,6.442-.133.281-.695.359-1.194.6-.112-1.527-.206-2.815-.3-4.1l-.255-.079c-.465,1.046-.975,2.075-1.378,3.145a1.039,1.039,0,0,1-1.484.752c.95-2.183,1.871-4.378,2.885-6.53.125-.265.745-.3,1.224-.466" transform="translate(-232.682 -190.948)" fill="#000"></path>
				    <path id="Path_119" data-name="Path 119" d="M645.662,245.15c-.112-1.617-.208-2.991-.323-4.655-.61,1.374-1.164,2.5-1.608,3.662-.276.724-.661,1-1.48.721.951-2.164,1.873-4.336,2.882-6.466.131-.276.71-.341,1.224-.565.108,1.555.2,2.876.292,4.2l.186.047q.732-1.623,1.463-3.245c.378-.84.376-.841,1.449-.721-.954,2.178-1.873,4.349-2.879,6.48-.129.273-.708.334-1.2.548" transform="translate(-515.038 -190.735)" fill="#000"></path>
				    <path id="Path_120" data-name="Path 120" d="M148.752,245.222c-.116-1.658-.212-3.029-.328-4.687-.612,1.377-1.164,2.505-1.612,3.674-.277.724-.665,1-1.474.7.952-2.163,1.875-4.336,2.886-6.467.131-.275.718-.334,1.219-.547.109,1.551.2,2.87.3,4.19l.183.042c.489-1.085,1.042-2.146,1.445-3.262.279-.771.7-.941,1.458-.691-.934,2.138-1.838,4.285-2.832,6.389-.142.3-.722.395-1.242.656" transform="translate(-116.551 -190.776)" fill="#000"></path>
				    <path id="Path_121" data-name="Path 121" d="M731.119,240.731c-.481,1.105-.993,2.2-1.433,3.32-.279.708-.639,1.135-1.521.795.944-2.15,1.867-4.326,2.877-6.461.133-.281.711-.351,1.228-.584.11,1.573.2,2.913.318,4.56.377-.816.65-1.4.919-1.993a13.62,13.62,0,0,0,.677-1.534c.23-.731.64-1.016,1.476-.737-.961,2.188-1.9,4.38-2.911,6.532-.115.245-.69.273-1.172.445-.109-1.559-.2-2.931-.3-4.3l-.158-.041" transform="translate(-583.936 -190.699)" fill="#000"></path>
				    <path id="Path_122" data-name="Path 122" d="M122.211,246.195h-1.218a16.309,16.309,0,0,0-.216-2.013c-.071-.32-.4-.583-.618-.871a3.333,3.333,0,0,0-.8.647,4.981,4.981,0,0,0-.6,1.347c-.238.827-.732,1.088-1.594.821q1.4-3.213,2.8-6.413c.052-.119.135-.327.2-.324a30.921,30.921,0,0,1,3.653.236c.149.023.284,1.016.2,1.519-.178,1.015-.764,1.532-2.13,2.177.076.469.17.947.227,1.429.053.448.066.9.1,1.445m-2.006-4.008c1.417.137,2.062-.042,2.449-.734.283-.5.359-.925-.453-.99-1.344-.108-1.51.014-2,1.724" transform="translate(-93.955 -191.973)" fill="#000"></path>
				    <path id="Path_123" data-name="Path 123" d="M413.562,240.263l-1,.156c-.44-1.288-1.335-1.622-2.268-.671a9.426,9.426,0,0,0-1.594,2.646c-.242.516-.337,1.377.423,1.467a4.7,4.7,0,0,0,2-.618c.128-.051.162-.339.277-.606l-1.272-.077c.37-1.39-.057-1.172,2.812-1.126-.462,2.549-1.694,3.771-3.8,3.763-1.253,0-1.939-.692-1.8-1.919a6.425,6.425,0,0,1,2.508-4.532,3.665,3.665,0,0,1,1.333-.6c1.557-.392,2.447.381,2.387,2.123" transform="translate(-326.64 -190.891)" fill="#000"></path>
				    <path id="Path_124" data-name="Path 124" d="M98.095,238.817c-.085.973-.536,1.321-1.381,1.194-.258-.039-.534.035-.788-.013-1.116-.212-1.633.321-1.776,1.471h2.668c-.126.929-.461,1.428-1.389,1.247a1.571,1.571,0,0,0-.3,0c-1.708,0-1.708,0-2.354,1.756h3.043c-.122,1.022-.572,1.372-1.5,1.3-1.078-.084-2.167-.02-3.386-.02.99-2.263,1.936-4.453,2.92-6.626a.825.825,0,0,1,.633-.293c1.182-.029,2.366-.014,3.607-.014" transform="translate(-72.923 -191.511)" fill="#000"></path>
				    <path id="Path_125" data-name="Path 125" d="M618.251,245.3c-1.38,0-2.134-.807-1.971-2.006a6.285,6.285,0,0,1,2.423-4.364,4.14,4.14,0,0,1,1.788-.73,1.658,1.658,0,0,1,2.01,1.743,6.123,6.123,0,0,1-3.427,5.152,5.852,5.852,0,0,1-.824.206m-.673-2.495c-.022,1.122.644,1.563,1.494,1.083a4.272,4.272,0,0,0,2.082-3.187.968.968,0,0,0-1.532-1.061,4.474,4.474,0,0,0-2.043,3.165" transform="translate(-494.194 -190.996)" fill="#000"></path>
				    <path id="Path_126" data-name="Path 126" d="M207.532,245.743c1.006-2.287,1.93-4.417,2.895-6.528a.891.891,0,0,1,.668-.386c1.183-.039,2.368-.018,3.612-.018-.1.86-.429,1.337-1.345,1.2-.29-.045-.6.034-.887-.014-1.134-.19-1.612.374-1.7,1.491h2.6c-.023.89-.328,1.356-1.234,1.228a4.282,4.282,0,0,0-.592,0c-1.594,0-1.594,0-2.119,1.736H212.4c-.082.931-.372,1.392-1.334,1.319-1.113-.084-2.236-.019-3.537-.019" transform="translate(-166.426 -191.505)" fill="#000"></path>
				    <path id="Path_127" data-name="Path 127" d="M43.048,240.326a5.91,5.91,0,0,1-3.161,4.58,2.114,2.114,0,0,1-2.427-.071,1.906,1.906,0,0,1-.467-2.278,14.646,14.646,0,0,1,1.844-3.312,3.866,3.866,0,0,1,2.01-1.123c1.348-.353,2.222.46,2.2,2.2m-4.877,2.382c-.012,1.132.645,1.561,1.5,1.066a4.294,4.294,0,0,0,2.1-3.379c.114-.926-.654-1.384-1.5-.907a4.469,4.469,0,0,0-2.1,3.219" transform="translate(-29.519 -190.892)" fill="#000"></path>
				    <path id="Path_128" data-name="Path 128" d="M62.97,245.657c.967-2.215,1.915-4.4,2.893-6.579.067-.149.358-.253.556-.275a10.545,10.545,0,0,1,1.185-.012c1.666.008,2.286.63,1.947,2.239-.812,3.851-2.694,5.068-6.581,4.627m1.732-1.174a3.556,3.556,0,0,0,3.634-3.813.964.964,0,0,0-.658-.643c-.377-.02-.982.109-1.117.368-.673,1.3-1.223,2.656-1.859,4.088" transform="translate(-50.497 -191.484)" fill="#000"></path>
				    <path id="Path_129" data-name="Path 129" d="M499.948,242.764a6.04,6.04,0,0,1,3.113-4.487,2.13,2.13,0,0,1,2.426.061,1.9,1.9,0,0,1,.479,2.346,14.186,14.186,0,0,1-1.736,3.147,3.952,3.952,0,0,1-1.978,1.186c-1.488.42-2.341-.349-2.3-2.254m4.875-2.547c-.021-.86-.587-1.208-1.422-.873a4.756,4.756,0,0,0-2.234,3.528.946.946,0,0,0,1.443.867,4.594,4.594,0,0,0,2.213-3.522" transform="translate(-400.922 -190.801)" fill="#000"></path>
				    <path id="Path_130" data-name="Path 130" d="M329.141,240a6.059,6.059,0,0,1-3.387,5.065c-1.8.685-2.964-.208-2.756-2.108.238-2.175,2.065-4.431,3.869-4.779A1.716,1.716,0,0,1,329.141,240m-4.918,2.853c.01,1.02.674,1.449,1.478,1.012a4.235,4.235,0,0,0,2.12-3.167,1.356,1.356,0,0,0-.322-1.125,1.309,1.309,0,0,0-1.168.009,4.583,4.583,0,0,0-2.108,3.271" transform="translate(-259.002 -190.958)" fill="#000"></path>
				    <path id="Path_131" data-name="Path 131" d="M377.107,243.388c-.005-2.127,1.886-4.723,3.769-5.174a1.746,1.746,0,0,1,2.4,1.946,6.018,6.018,0,0,1-3.536,4.963c-1.591.505-2.63-.179-2.634-1.735m4.917-2.8c0-1.014-.575-1.406-1.384-1.1a4.718,4.718,0,0,0-2.288,3.585.943.943,0,0,0,1.485.8,4.567,4.567,0,0,0,2.187-3.28" transform="translate(-302.413 -190.957)" fill="#000"></path>
				    <path id="Path_132" data-name="Path 132" d="M266.211,237.991l-1.171,2.775a7.1,7.1,0,0,0,1.464-.025,1.581,1.581,0,0,0,.832-.58,3.608,3.608,0,0,0,.535-1.157c.228-.809.715-1.025,1.559-.739-.956,2.167-1.882,4.341-2.9,6.472-.13.273-.727.322-1.108.475l-.154-.218,1.208-2.857c-.068-.065-.107-.135-.148-.137-1.833-.061-1.82-.054-2.606,1.69-.756,1.677-.373,1.413-1.8,1.341.97-2.218,1.895-4.416,2.916-6.568.124-.262.766-.278,1.372-.473" transform="translate(-210.043 -190.852)" fill="#000"></path>
				    <path id="Path_133" data-name="Path 133" d="M556.466,238.027c-.74,1.7-1.4,3.128-1.97,4.59a3.267,3.267,0,0,0,.042,1.239,4.111,4.111,0,0,0,1.339-.31,2.45,2.45,0,0,0,.7-1.042c.534-1.129,1.079-2.256,1.529-3.419.3-.783.737-1.1,1.632-.791-.792,1.7-1.538,3.416-2.382,5.08a2.971,2.971,0,0,1-2.832,1.81c-1.131-.026-1.826-.742-1.472-1.8a45.375,45.375,0,0,1,2.043-4.9c.12-.255.758-.266,1.371-.456" transform="translate(-443.433 -190.881)" fill="#000"></path>
				    <path id="Path_134" data-name="Path 134" d="M673.776,242.8l1.034-.053c-.022.646.007,1.364.9,1.176a2.05,2.05,0,0,0,1.112-.781c.085-.116-.291-.736-.585-.932-.759-.507-1.382-1.007-1.141-2.059a2.714,2.714,0,0,1,2.135-2.084c1.477-.262,2.222.475,2.019,2.08l-.879.066c-.234-.344-.424-.883-.648-.9a1.744,1.744,0,0,0-1.264.427c-.451.491.069.816.461,1.062.8.5,1.6.977,1.258,2.163a2.966,2.966,0,0,1-2.62,2.205c-1.643.107-2.273-.709-1.785-2.371" transform="translate(-540.191 -190.872)" fill="#000"></path>
				    <path id="Path_135" data-name="Path 135" d="M472.241,242.8h1.072c-.156.722.079,1.28.9,1.12a2.061,2.061,0,0,0,1.118-.784c.081-.107-.309-.719-.605-.931-.693-.495-1.376-.92-1.145-1.952a2.554,2.554,0,0,1,1.842-2.1c1.607-.467,2.457.22,2.349,1.989l-1.076.075c-.059-.85-.477-1.223-1.289-.92a.735.735,0,0,0-.217,1.361,1.828,1.828,0,0,0,.407.277c1.491.673,1.385,1.87.526,3.1a2.734,2.734,0,0,1-3.592.773c-.676-.562-.549-1.263-.293-2.013" transform="translate(-378.538 -190.867)" fill="#000"></path>
				    <path id="Path_136" data-name="Path 136" d="M244.741,240.987h-1.389c-.3-1.161-1.019-1.457-1.87-.591a7.391,7.391,0,0,0-1.495,2.481c-.17.438.151,1.067.25,1.61.543-.214,1.272-.279,1.585-.675a1.057,1.057,0,0,1,1.612-.336c-.755,1.262-1.661,2.283-3.27,2.314a1.427,1.427,0,0,1-1.6-1.39c-.239-1.954,1.373-4.861,3.2-5.474a2.893,2.893,0,0,1,2.116.132c.438.248.526,1.116.86,1.927" transform="translate(-191.295 -191.492)" fill="#000"></path>
				    <path id="Path_137" data-name="Path 137" d="M767.024,240.412l-1,.122c-.43-1.272-1.263-1.536-2.1-.511a10.378,10.378,0,0,0-1.44,2.847,1.215,1.215,0,0,0,.415,1.074c.207.15.72-.065,1.07-.193a1.024,1.024,0,0,0,.506-.455c.388-.743.918-.705,1.562-.329-.749,1.223-1.628,2.26-3.207,2.309-1.033.033-1.708-.512-1.67-1.515a6.01,6.01,0,0,1,2.866-5.216,3,3,0,0,1,1.211-.38c1.306-.146,1.895.575,1.786,2.247" transform="translate(-610.395 -190.977)" fill="#000"></path>
				    <path id="Path_138" data-name="Path 138" d="M443.6,241.454c1.363-.738,1.542-2.913,3.756-2.559-.84.977-1.673,1.839-2.379,2.795a25.4,25.4,0,0,0-2.1,3.285,1.183,1.183,0,0,1-1.669.691c1.646-2.056,1.163-4.361.815-6.732h1.275l.307,2.52" transform="translate(-353.81 -191.546)" fill="#000"></path>
				    <path id="Path_139" data-name="Path 139" d="M350.364,244.413h2.7c-.075.876-.337,1.365-1.31,1.285-1-.082-2.017-.018-3.177-.018.664-1.521,1.275-2.922,1.888-4.322.25-.571.549-1.124.747-1.712.246-.73.612-1.151,1.557-.785l-2.4,5.553" transform="translate(-279.532 -191.441)" fill="#000"></path>
				    <path id="Path_140" data-name="Path 140" d="M584.952,245.618h-1.216l2.486-5.7h-1.56c.068-.936.483-1.292,1.4-1.223,1.136.085,2.283.02,3.435.02-.093.956-.538,1.3-1.437,1.222a1.1,1.1,0,0,0-.835.558c-.8,1.688-1.525,3.407-2.278,5.121" transform="translate(-468.114 -191.41)" fill="#000"></path>
				    <path id="Path_141" data-name="Path 141" d="M529.6,238.529l-2.387,5.481h2.714c-.1,1.006-.493,1.388-1.419,1.3-.97-.087-1.953-.02-3.09-.02,1-2.292,1.922-4.463,2.931-6.592.127-.268.734-.31,1.118-.457l.133.282" transform="translate(-421.351 -191.057)" fill="#000"></path>
				    <path id="Path_142" data-name="Path 142" d="M190.456,245.589l2.443-5.624-1.51-.07c.03-.864.394-1.232,1.29-1.175,1.145.073,2.3.018,3.485.018-.051.88-.4,1.344-1.29,1.185-.562-.1-.809.174-1.014.667-.58,1.393-1.271,2.742-1.8,4.153-.3.8-.713,1.116-1.6.846" transform="translate(-152.732 -191.432)" fill="#000"></path>
				    <path id="Path_143" data-name="Path 143" d="M716.855,245.064c.953-2.151,1.864-4.289,2.868-6.382.148-.308.741-.4,1.128-.6l.211.24q-.714,1.626-1.429,3.253c-.4.9-.847,1.781-1.19,2.7-.272.731-.658,1.1-1.589.784" transform="translate(-574.866 -190.927)" fill="#000"></path>
				    <path id="Path_144" data-name="Path 144" d="M604.7,238.91c-.982,2.2-1.917,4.367-2.942,6.492-.131.273-.732.319-1.115.47l-.167-.221q1.037-2.328,2.073-4.657a11.007,11.007,0,0,0,.587-1.357c.221-.762.687-.971,1.564-.727" transform="translate(-481.541 -191.511)" fill="#000"></path>
				    <path id="Path_145" data-name="Path 145" d="M814.468,259.935l-.593-1.237-.286.168-.3.856-.168-.023v-2.046a4.38,4.38,0,0,1,1.124.089.819.819,0,0,1,.417.617,9.733,9.733,0,0,1-.2,1.577" transform="translate(-652.066 -206.618)" fill="#000"></path>
				    <path id="Path_146" data-name="Path 146" d="M784.782,268.047c.218-.841.42-1.612,1.593-1.219-.292.677-.331,1.6-1.593,1.219" transform="translate(-629.338 -213.892)" fill="#000"></path>
				    <path id="Path_147" data-name="Path 147" d="M808.177,253.842c-1.567.616-1.639,1.783-1.069,3.376-1.13-1.594-.617-3,1.069-3.376" transform="translate(-646.758 -203.563)" fill="#000"></path>
				    <path id="Path_148" data-name="Path 148" d="M27.571,256.385l.271-.172-.091.412-.18-.24" transform="translate(-22.11 -205.464)" fill="#000"></path>
				  </g>
				</svg>