<?xml version="1.0" ?>
<svg xmlns="http://www.w3.org/2000/svg" viewBox="0 0 133.33333 80" xml:space="preserve" id="svg2" version="1.1">
	<defs id="defs6">
		<clipPath id="clipPath26" clipPathUnits="userSpaceOnUse">
			<path id="path24" d="M 0,60 H 100 V 0 H 0 Z"/>
		</clipPath>
	</defs>
	<g transform="matrix(1.3333333,0,0,-1.3333333,0,80)" id="g10">
		<g transform="translate(14.3755,42.2129)" id="g12">
			<path id="path14" style="fill:#4d4e4e;fill-opacity:1;fill-rule:nonzero;stroke:none" d="M 0,0 H 10.3 L 9.892,-16.114 18.132,0 H 28.386 L 21.288,-26.495 H 14.895 L 20.312,-6.273 9.974,-26.495 H 4.198 L 4.71,-6.273 -0.708,-26.495 h -6.393 z"/>
		</g>
		<g transform="translate(46.2988,42.2129)" id="g16">
			<path id="path18" style="fill:#4d4e4e;fill-opacity:1;fill-rule:nonzero;stroke:none" d="m 0,0 h 23.706 l -1.76,-6.563 H 13.995 L 8.654,-26.495 H 0.853 l 5.34,19.932 h -7.952 z"/>
		</g>
		<g id="g20">
			<g clip-path="url(#clipPath26)" id="g22">
				<g transform="translate(68.041,23.9941)" id="g28">
					<path id="path30" style="fill:#58595b;fill-opacity:1;fill-rule:nonzero;stroke:none" d="m 0,0 7.315,1.007 c -0.179,-1.271 -0.114,-2.238 0.198,-2.904 0.508,-1.078 1.505,-1.616 2.988,-1.616 1.106,0 2.032,0.273 2.778,0.819 0.743,0.548 1.214,1.18 1.407,1.903 0.183,0.685 0.065,1.297 -0.356,1.836 C 13.911,1.587 12.721,2.096 10.763,2.578 7.558,3.383 5.406,4.453 4.309,5.791 3.196,7.127 2.921,8.833 3.475,10.904 c 0.367,1.362 1.085,2.647 2.163,3.858 1.076,1.21 2.463,2.161 4.157,2.854 1.697,0.693 3.861,1.039 6.49,1.039 3.229,0 5.52,-0.631 6.875,-1.892 1.358,-1.261 1.819,-2.636 1.402,-5.388 l -7.458,-1.081 c 0.12,1.188 -0.06,2.052 -0.545,2.592 -0.484,0.54 -1.28,0.811 -2.386,0.811 -0.911,0 -1.653,-0.201 -2.223,-0.604 C 11.382,12.69 11.019,12.2 10.865,11.625 10.754,11.204 10.844,10.825 11.138,10.488 11.414,10.14 12.203,9.816 13.499,9.516 16.7,8.748 18.934,7.968 20.197,7.181 21.46,6.395 22.271,5.417 22.631,4.251 22.988,3.086 22.975,1.78 22.589,0.34 c -0.455,-1.696 -1.32,-3.263 -2.6,-4.693 -1.279,-1.43 -2.822,-2.516 -4.626,-3.253 -1.804,-0.74 -3.93,-1.11 -6.375,-1.11 -4.292,0 -7.032,0.868 -8.22,2.607 C -0.42,-4.37 -0.5,-2.68 0,0 M -21.742,18.219 H 1.964 l -1.76,-6.564 h -7.951 l -5.341,-19.931 h -7.801 l 5.34,19.931 h -7.952 z m -31.924,0 h 10.3 l -0.407,-16.115 8.24,16.115 h 10.253 l -7.097,-26.495 h -6.394 l 5.418,20.221 -10.338,-20.221 h -5.777 l 0.512,20.221 -5.418,-20.221 h -6.392 z M -0.101,-0.101 7.215,0.907 C 7.034,-0.364 7.1,-1.334 7.412,-1.999 7.921,-3.076 8.918,-3.613 10.4,-3.613 c 1.107,0 2.032,0.272 2.778,0.818 0.744,0.548 1.213,1.182 1.408,1.903 0.183,0.685 0.065,1.297 -0.356,1.836 -0.419,0.542 -1.609,1.05 -3.568,1.534 C 7.457,3.282 5.307,4.353 4.208,5.69 3.097,7.026 2.819,8.73 3.375,10.803 c 0.364,1.362 1.085,2.647 2.162,3.858 1.076,1.211 2.463,2.162 4.158,2.854 1.697,0.693 3.86,1.04 6.49,1.04 3.228,0 5.521,-0.632 6.875,-1.892 1.357,-1.261 1.817,-2.637 1.402,-5.388 l -7.459,-1.082 c 0.121,1.188 -0.061,2.053 -0.544,2.592 -0.485,0.54 -1.278,0.811 -2.387,0.811 -0.912,0 -1.652,-0.201 -2.222,-0.604 -0.569,-0.402 -0.932,-0.893 -1.084,-1.468 -0.113,-0.421 -0.024,-0.8 0.271,-1.136 C 11.313,10.04 12.101,9.715 13.398,9.415 16.601,8.646 18.833,7.868 20.096,7.08 21.359,6.292 22.17,5.316 22.529,4.15 22.89,2.984 22.875,1.679 22.488,0.237 22.034,-1.46 21.167,-3.022 19.889,-4.453 18.609,-5.881 17.066,-6.97 15.263,-7.706 13.457,-8.447 11.331,-8.815 8.888,-8.815 c -4.293,0 -7.033,0.867 -8.221,2.605 -1.187,1.738 -1.269,3.43 -0.768,6.109"/>
				</g>
				<g transform="translate(13.5684,43.0176)" id="g32">
					<path id="path34" style="fill:#000000;fill-opacity:1;fill-rule:nonzero;stroke:none" d="M 0,0 H 10.302 L 9.894,-16.112 18.134,0 H 28.389 L 21.29,-26.496 H 14.896 L 20.314,-6.273 9.975,-26.496 H 4.2 l 0.511,20.223 -5.417,-20.223 h -6.393 z"/>
				</g>
				<g transform="translate(45.4927,43.0176)" id="g36">
					<path id="path38" style="fill:#000000;fill-opacity:1;fill-rule:nonzero;stroke:none" d="m 0,0 h 23.708 l -1.76,-6.563 H 13.996 L 8.655,-26.496 H 0.853 l 5.342,19.933 h -7.952 z"/>
				</g>
				<g transform="translate(67.2363,24.7988)" id="g40">
					<path id="path42" style="fill:#231f20;fill-opacity:1;fill-rule:nonzero;stroke:none" d="M 0,0 7.316,1.008 C 7.134,-0.262 7.2,-1.23 7.513,-1.898 c 0.508,-1.076 1.506,-1.615 2.988,-1.615 1.104,0 2.032,0.275 2.775,0.819 0.745,0.548 1.216,1.181 1.409,1.903 0.184,0.685 0.065,1.297 -0.354,1.838 -0.42,0.541 -1.61,1.049 -3.569,1.531 C 7.558,3.383 5.407,4.455 4.308,5.792 3.197,7.128 2.919,8.833 3.477,10.905 c 0.362,1.361 1.083,2.646 2.161,3.857 1.076,1.211 2.463,2.162 4.158,2.855 1.694,0.693 3.858,1.039 6.489,1.039 3.228,0 5.519,-0.631 6.876,-1.892 1.356,-1.261 1.817,-2.637 1.401,-5.388 l -7.459,-1.082 c 0.122,1.189 -0.06,2.053 -0.544,2.593 -0.485,0.54 -1.28,0.81 -2.387,0.81 -0.912,0 -1.653,-0.201 -2.222,-0.604 -0.568,-0.402 -0.93,-0.892 -1.085,-1.468 -0.112,-0.42 -0.022,-0.8 0.272,-1.136 0.277,-0.348 1.065,-0.673 2.362,-0.973 3.201,-0.768 5.435,-1.547 6.696,-2.334 1.264,-0.788 2.076,-1.765 2.433,-2.93 0.359,-1.167 0.347,-2.473 -0.039,-3.913 -0.454,-1.697 -1.321,-3.261 -2.601,-4.69 -1.277,-1.429 -2.821,-2.517 -4.626,-3.254 -1.803,-0.74 -3.929,-1.112 -6.375,-1.112 -4.293,0 -7.033,0.869 -8.22,2.609 C -0.421,-4.371 -0.5,-2.681 0,0 M -21.744,18.219 H 1.964 l -1.76,-6.563 h -7.952 l -5.341,-19.933 h -7.802 l 5.342,19.933 h -7.952 z m -31.924,0 h 10.302 l -0.408,-16.113 8.24,16.113 h 10.255 l -7.099,-26.496 h -6.394 l 5.418,20.222 -10.339,-20.222 h -5.775 l 0.511,20.222 -5.417,-20.222 h -6.393 z M -0.102,-0.101 7.215,0.907 C 7.034,-0.363 7.1,-1.331 7.412,-1.998 7.919,-3.074 8.916,-3.613 10.4,-3.613 c 1.106,0 2.032,0.272 2.777,0.82 0.745,0.547 1.215,1.181 1.408,1.9 0.184,0.684 0.065,1.297 -0.355,1.839 -0.42,0.54 -1.609,1.052 -3.569,1.532 -3.205,0.804 -5.355,1.876 -6.454,3.213 -1.11,1.336 -1.388,3.04 -0.833,5.113 0.365,1.362 1.084,2.647 2.161,3.858 1.077,1.21 2.464,2.161 4.16,2.854 1.697,0.692 3.86,1.039 6.49,1.039 3.227,0 5.518,-0.631 6.876,-1.892 1.353,-1.261 1.815,-2.636 1.401,-5.387 l -7.46,-1.082 c 0.121,1.188 -0.06,2.053 -0.543,2.591 -0.486,0.541 -1.28,0.812 -2.387,0.812 -0.912,0 -1.653,-0.201 -2.222,-0.605 -0.57,-0.402 -0.931,-0.891 -1.085,-1.468 -0.113,-0.42 -0.022,-0.8 0.271,-1.134 0.277,-0.35 1.065,-0.674 2.361,-0.974 3.203,-0.769 5.436,-1.548 6.698,-2.334 1.264,-0.79 2.075,-1.766 2.434,-2.931 0.357,-1.169 0.345,-2.472 -0.042,-3.913 -0.454,-1.697 -1.32,-3.258 -2.6,-4.689 -1.278,-1.433 -2.82,-2.516 -4.625,-3.253 -1.804,-0.741 -3.931,-1.112 -6.374,-1.112 -4.294,0 -7.034,0.867 -8.222,2.608 -1.189,1.736 -1.268,3.428 -0.768,6.107"/>
				</g>
				<g transform="translate(0.8979,26.0605)" id="g44">
					<path id="path46" style="fill:#ee2524;fill-opacity:1;fill-rule:nonzero;stroke:none" d="m 0,0 v 1.71 c 0,0 4.009,0.251 7.684,4.958 L 98.249,6.666 V 4.88 c 0,0 -3.272,-0.393 -6.662,-4.875 z"/>
				</g>
				<g transform="translate(0.8979,26.0605)" id="g48">
					<path id="path50" style="fill:none;stroke:#ee2524;stroke-width:0.75;stroke-linecap:butt;stroke-linejoin:miter;stroke-miterlimit:4;stroke-dasharray:none;stroke-opacity:1" d="m 0,0 v 1.71 c 0,0 4.009,0.251 7.684,4.958 L 98.249,6.666 V 4.88 c 0,0 -3.272,-0.393 -6.662,-4.875 z"/>
				</g>
				<g transform="translate(10.2451,30.6836)" id="g52">
					<path id="path54" style="fill:#ffffff;fill-opacity:1;fill-rule:nonzero;stroke:none" d="M 0,0 0.239,-2.962 H 0.248 L 1.87,0 H 2.418 L 1.611,-3.444 H 1.232 l 0.765,3.015 H 1.988 L 0.318,-3.444 H -0.06 l -0.228,3.015 H -0.297 L -0.974,-3.444 H -1.353 L -0.548,0 Z"/>
				</g>
				<g transform="translate(10.2451,30.6836)" id="g56">
					<path id="path58" style="fill:none;stroke:#ffffff;stroke-width:0.125;stroke-linecap:butt;stroke-linejoin:miter;stroke-miterlimit:4;stroke-dasharray:none;stroke-opacity:1" d="M 0,0 0.239,-2.962 H 0.248 L 1.87,0 H 2.418 L 1.611,-3.444 H 1.232 l 0.765,3.015 H 1.988 L 0.318,-3.444 H -0.06 l -0.228,3.015 H -0.297 L -0.974,-3.444 H -1.353 L -0.548,0 Z"/>
				</g>
				<g transform="translate(14.7969,28.6621)" id="g60">
					<path id="path62" style="fill:#ffffff;fill-opacity:1;fill-rule:nonzero;stroke:none" d="M 0,0 -0.135,1.617 H -0.144 L -1.022,0 Z M 0.165,2.021 0.52,-1.423 H 0.113 l -0.082,1.036 h -1.252 l -0.574,-1.036 h -0.436 l 1.963,3.444 z"/>
				</g>
				<g transform="translate(14.7969,28.6621)" id="g64">
					<path id="path66" style="fill:none;stroke:#ffffff;stroke-width:0.125;stroke-linecap:butt;stroke-linejoin:miter;stroke-miterlimit:4;stroke-dasharray:none;stroke-opacity:1" d="M 0,0 -0.135,1.617 H -0.144 L -1.022,0 Z M 0.165,2.021 0.52,-1.423 H 0.113 l -0.082,1.036 h -1.252 l -0.574,-1.036 h -0.436 l 1.963,3.444 z"/>
				</g>
				<g transform="translate(17.6211,29.0967)" id="g68">
					<path id="path70" style="fill:#ffffff;fill-opacity:1;fill-rule:nonzero;stroke:none" d="M 0,0 C 0.155,0 0.281,0.024 0.379,0.073 0.477,0.121 0.554,0.179 0.611,0.249 0.667,0.317 0.706,0.392 0.729,0.471 0.75,0.548 0.763,0.619 0.767,0.681 0.772,0.786 0.759,0.873 0.731,0.94 0.7,1.009 0.66,1.062 0.607,1.101 0.556,1.139 0.496,1.167 0.427,1.18 0.358,1.194 0.286,1.202 0.211,1.202 H -0.606 L -0.889,0 Z M 0.232,1.587 C 0.357,1.587 0.476,1.574 0.593,1.546 0.71,1.518 0.812,1.472 0.898,1.404 0.988,1.337 1.056,1.247 1.104,1.133 1.152,1.02 1.172,0.88 1.162,0.709 1.157,0.593 1.134,0.482 1.096,0.379 1.057,0.274 1.006,0.179 0.944,0.096 0.881,0.012 0.807,-0.056 0.724,-0.111 0.638,-0.166 0.545,-0.2 0.445,-0.218 L 0.444,-0.227 C 0.507,-0.249 0.558,-0.284 0.598,-0.333 0.64,-0.381 0.67,-0.438 0.69,-0.504 0.71,-0.569 0.722,-0.645 0.724,-0.724 0.727,-0.806 0.722,-0.887 0.709,-0.975 0.7,-1.053 0.687,-1.129 0.672,-1.203 0.657,-1.278 0.645,-1.354 0.635,-1.431 0.625,-1.507 0.622,-1.581 0.623,-1.65 0.625,-1.722 0.64,-1.789 0.667,-1.857 H 0.255 c -0.016,0.064 -0.022,0.158 -0.018,0.284 0.004,0.126 0.025,0.276 0.066,0.454 0.03,0.154 0.043,0.279 0.038,0.374 -0.004,0.094 -0.022,0.167 -0.05,0.219 -0.027,0.052 -0.062,0.087 -0.106,0.105 -0.042,0.023 -0.087,0.032 -0.132,0.035 H -0.104 -0.98 l -0.344,-1.471 h -0.394 l 0.807,3.444 z"/>
				</g>
				<g transform="translate(17.6211,29.0967)" id="g72">
					<path id="path74" style="fill:none;stroke:#ffffff;stroke-width:0.125;stroke-linecap:butt;stroke-linejoin:miter;stroke-miterlimit:4;stroke-dasharray:none;stroke-opacity:1" d="M 0,0 C 0.155,0 0.281,0.024 0.379,0.073 0.477,0.121 0.554,0.179 0.611,0.249 0.667,0.317 0.706,0.392 0.729,0.471 0.75,0.548 0.763,0.619 0.767,0.681 0.772,0.786 0.759,0.873 0.731,0.94 0.7,1.009 0.66,1.062 0.607,1.101 0.556,1.139 0.496,1.167 0.427,1.18 0.358,1.194 0.286,1.202 0.211,1.202 H -0.606 L -0.889,0 Z M 0.232,1.587 C 0.357,1.587 0.476,1.574 0.593,1.546 0.71,1.518 0.812,1.472 0.898,1.404 0.988,1.337 1.056,1.247 1.104,1.133 1.152,1.02 1.172,0.88 1.162,0.709 1.157,0.593 1.134,0.482 1.096,0.379 1.057,0.274 1.006,0.179 0.944,0.096 0.881,0.012 0.807,-0.056 0.724,-0.111 0.638,-0.166 0.545,-0.2 0.445,-0.218 L 0.444,-0.227 C 0.507,-0.249 0.558,-0.284 0.598,-0.333 0.64,-0.381 0.67,-0.438 0.69,-0.504 0.71,-0.569 0.722,-0.645 0.724,-0.724 0.727,-0.806 0.722,-0.887 0.709,-0.975 0.7,-1.053 0.687,-1.129 0.672,-1.203 0.657,-1.278 0.645,-1.354 0.635,-1.431 0.625,-1.507 0.622,-1.581 0.623,-1.65 0.625,-1.722 0.64,-1.789 0.667,-1.857 H 0.255 c -0.016,0.064 -0.022,0.158 -0.018,0.284 0.004,0.126 0.025,0.276 0.066,0.454 0.03,0.154 0.043,0.279 0.038,0.374 -0.004,0.094 -0.022,0.167 -0.05,0.219 -0.027,0.052 -0.062,0.087 -0.106,0.105 -0.042,0.023 -0.087,0.032 -0.132,0.035 H -0.104 -0.98 l -0.344,-1.471 h -0.394 l 0.807,3.444 z"/>
				</g>
				<g transform="translate(20.7573,30.2988)" id="g76">
					<path id="path78" style="fill:#ffffff;fill-opacity:1;fill-rule:nonzero;stroke:none" d="M 0,0 -0.716,-3.06 H -1.11 L -0.395,0 H -1.392 L -1.3,0.385 H 1.094 L 0.998,0 Z"/>
				</g>
				<g transform="translate(20.7573,30.2988)" id="g80">
					<path id="path82" style="fill:none;stroke:#ffffff;stroke-width:0.125;stroke-linecap:butt;stroke-linejoin:miter;stroke-miterlimit:4;stroke-dasharray:none;stroke-opacity:1" d="M 0,0 -0.716,-3.06 H -1.11 L -0.395,0 H -1.392 L -1.3,0.385 H 1.094 L 0.998,0 Z"/>
				</g>
				<g transform="translate(22.8813,30.6836)" id="g84">
					<path id="path86" style="fill:#ffffff;fill-opacity:1;fill-rule:nonzero;stroke:none" d="M 0,0 -0.804,-3.444 H -1.2 L -0.395,0 Z"/>
				</g>
				<g transform="translate(22.8813,30.6836)" id="g88">
					<path id="path90" style="fill:none;stroke:#ffffff;stroke-width:0.125;stroke-linecap:butt;stroke-linejoin:miter;stroke-miterlimit:4;stroke-dasharray:none;stroke-opacity:1" d="M 0,0 -0.804,-3.444 H -1.2 L -0.395,0 Z"/>
				</g>
				<g transform="translate(24.3027,30.6836)" id="g92">
					<path id="path94" style="fill:#ffffff;fill-opacity:1;fill-rule:nonzero;stroke:none" d="M 0,0 0.91,-2.852 H 0.917 L 1.562,0 H 1.943 L 1.137,-3.444 H 0.711 l -0.902,2.832 H -0.199 L -0.85,-3.444 H -1.232 L -0.425,0 Z"/>
				</g>
				<g transform="translate(24.3027,30.6836)" id="g96">
					<path id="path98" style="fill:none;stroke:#ffffff;stroke-width:0.125;stroke-linecap:butt;stroke-linejoin:miter;stroke-miterlimit:4;stroke-dasharray:none;stroke-opacity:1" d="M 0,0 0.91,-2.852 H 0.917 L 1.562,0 H 1.943 L 1.137,-3.444 H 0.711 l -0.902,2.832 H -0.199 L -0.85,-3.444 H -1.232 L -0.425,0 Z"/>
				</g>
				<g transform="translate(29.6211,30.2988)" id="g100">
					<path id="path102" style="fill:#ffffff;fill-opacity:1;fill-rule:nonzero;stroke:none" d="M 0,0 -0.717,-3.06 H -1.112 L -0.395,0 h -0.998 l 0.092,0.385 H 1.092 L 0.998,0 Z"/>
				</g>
				<g transform="translate(29.6211,30.2988)" id="g104">
					<path id="path106" style="fill:none;stroke:#ffffff;stroke-width:0.125;stroke-linecap:butt;stroke-linejoin:miter;stroke-miterlimit:4;stroke-dasharray:none;stroke-opacity:1" d="M 0,0 -0.717,-3.06 H -1.112 L -0.395,0 h -0.998 l 0.092,0.385 H 1.092 L 0.998,0 Z"/>
				</g>
				<g transform="translate(32.2632,29.0967)" id="g108">
					<path id="path110" style="fill:#ffffff;fill-opacity:1;fill-rule:nonzero;stroke:none" d="M 0,0 C 0.155,0 0.282,0.024 0.38,0.073 0.478,0.121 0.555,0.179 0.611,0.249 0.667,0.317 0.708,0.392 0.729,0.471 0.75,0.548 0.764,0.619 0.767,0.681 0.771,0.786 0.761,0.873 0.731,0.94 0.7,1.009 0.66,1.062 0.608,1.101 0.557,1.139 0.496,1.167 0.427,1.18 0.359,1.194 0.287,1.202 0.212,1.202 H -0.607 L -0.89,0 Z M 0.232,1.587 C 0.357,1.587 0.478,1.574 0.595,1.546 0.709,1.518 0.813,1.472 0.9,1.404 0.989,1.337 1.057,1.247 1.104,1.133 1.152,1.02 1.172,0.88 1.164,0.709 1.156,0.593 1.134,0.482 1.096,0.379 1.058,0.274 1.006,0.179 0.944,0.096 0.882,0.012 0.808,-0.056 0.723,-0.111 0.639,-0.166 0.546,-0.2 0.446,-0.218 V -0.227 C 0.507,-0.249 0.56,-0.284 0.6,-0.333 0.64,-0.381 0.67,-0.438 0.691,-0.504 0.709,-0.569 0.721,-0.645 0.724,-0.724 0.727,-0.806 0.722,-0.887 0.709,-0.975 0.7,-1.053 0.687,-1.129 0.673,-1.203 0.657,-1.278 0.645,-1.354 0.635,-1.431 0.626,-1.507 0.622,-1.581 0.625,-1.65 0.626,-1.722 0.64,-1.789 0.667,-1.857 H 0.256 c -0.016,0.064 -0.023,0.158 -0.019,0.284 0.005,0.126 0.026,0.276 0.066,0.454 0.03,0.154 0.042,0.279 0.038,0.374 -0.005,0.094 -0.022,0.167 -0.049,0.219 -0.027,0.052 -0.064,0.087 -0.106,0.105 -0.043,0.023 -0.087,0.032 -0.131,0.035 H -0.103 -0.98 l -0.343,-1.471 h -0.394 l 0.807,3.444 z"/>
				</g>
				<g transform="translate(32.2632,29.0967)" id="g112">
					<path id="path114" style="fill:none;stroke:#ffffff;stroke-width:0.125;stroke-linecap:butt;stroke-linejoin:miter;stroke-miterlimit:4;stroke-dasharray:none;stroke-opacity:1" d="M 0,0 C 0.155,0 0.282,0.024 0.38,0.073 0.478,0.121 0.555,0.179 0.611,0.249 0.667,0.317 0.708,0.392 0.729,0.471 0.75,0.548 0.764,0.619 0.767,0.681 0.771,0.786 0.761,0.873 0.731,0.94 0.7,1.009 0.66,1.062 0.608,1.101 0.557,1.139 0.496,1.167 0.427,1.18 0.359,1.194 0.287,1.202 0.212,1.202 H -0.607 L -0.89,0 Z M 0.232,1.587 C 0.357,1.587 0.478,1.574 0.595,1.546 0.709,1.518 0.813,1.472 0.9,1.404 0.989,1.337 1.057,1.247 1.104,1.133 1.152,1.02 1.172,0.88 1.164,0.709 1.156,0.593 1.134,0.482 1.096,0.379 1.058,0.274 1.006,0.179 0.944,0.096 0.882,0.012 0.808,-0.056 0.723,-0.111 0.639,-0.166 0.546,-0.2 0.446,-0.218 V -0.227 C 0.507,-0.249 0.56,-0.284 0.6,-0.333 0.64,-0.381 0.67,-0.438 0.691,-0.504 0.709,-0.569 0.721,-0.645 0.724,-0.724 0.727,-0.806 0.722,-0.887 0.709,-0.975 0.7,-1.053 0.687,-1.129 0.673,-1.203 0.657,-1.278 0.645,-1.354 0.635,-1.431 0.626,-1.507 0.622,-1.581 0.625,-1.65 0.626,-1.722 0.64,-1.789 0.667,-1.857 H 0.256 c -0.016,0.064 -0.023,0.158 -0.019,0.284 0.005,0.126 0.026,0.276 0.066,0.454 0.03,0.154 0.042,0.279 0.038,0.374 -0.005,0.094 -0.022,0.167 -0.049,0.219 -0.027,0.052 -0.064,0.087 -0.106,0.105 -0.043,0.023 -0.087,0.032 -0.131,0.035 H -0.103 -0.98 l -0.343,-1.471 h -0.394 l 0.807,3.444 z"/>
				</g>
				<g transform="translate(35.6816,28.6621)" id="g116">
					<path id="path118" style="fill:#ffffff;fill-opacity:1;fill-rule:nonzero;stroke:none" d="M 0,0 -0.136,1.617 H -0.144 L -1.023,0 Z M 0.163,2.021 0.519,-1.423 H 0.111 l -0.082,1.036 h -1.251 l -0.573,-1.036 h -0.436 l 1.962,3.444 z"/>
				</g>
				<g transform="translate(35.6816,28.6621)" id="g120">
					<path id="path122" style="fill:none;stroke:#ffffff;stroke-width:0.125;stroke-linecap:butt;stroke-linejoin:miter;stroke-miterlimit:4;stroke-dasharray:none;stroke-opacity:1" d="M 0,0 -0.136,1.617 H -0.144 L -1.023,0 Z M 0.163,2.021 0.519,-1.423 H 0.111 l -0.082,1.036 h -1.251 l -0.573,-1.036 h -0.436 l 1.962,3.444 z"/>
				</g>
				<g transform="translate(38.0181,30.6836)" id="g124">
					<path id="path126" style="fill:#ffffff;fill-opacity:1;fill-rule:nonzero;stroke:none" d="M 0,0 0.911,-2.852 H 0.919 L 1.562,0 H 1.945 L 1.137,-3.444 H 0.712 l -0.902,2.832 h -0.009 l -0.65,-2.832 H -1.232 L -0.423,0 Z"/>
				</g>
				<g transform="translate(38.0181,30.6836)" id="g128">
					<path id="path130" style="fill:none;stroke:#ffffff;stroke-width:0.125;stroke-linecap:butt;stroke-linejoin:miter;stroke-miterlimit:4;stroke-dasharray:none;stroke-opacity:1" d="M 0,0 0.911,-2.852 H 0.919 L 1.562,0 H 1.945 L 1.137,-3.444 H 0.712 l -0.902,2.832 h -0.009 l -0.65,-2.832 H -1.232 L -0.423,0 Z"/>
				</g>
				<g transform="translate(42.3262,30.0068)" id="g132">
					<path id="path134" style="fill:#ffffff;fill-opacity:1;fill-rule:nonzero;stroke:none" d="m 0,0 c -0.027,0.091 -0.068,0.165 -0.125,0.221 -0.057,0.057 -0.127,0.096 -0.213,0.118 -0.084,0.024 -0.177,0.035 -0.28,0.035 -0.072,0 -0.149,-0.01 -0.23,-0.031 -0.082,-0.022 -0.158,-0.055 -0.228,-0.1 -0.07,-0.045 -0.13,-0.103 -0.177,-0.174 -0.048,-0.071 -0.075,-0.158 -0.08,-0.259 -0.005,-0.085 0.004,-0.157 0.026,-0.216 0.021,-0.06 0.054,-0.11 0.094,-0.155 0.04,-0.043 0.089,-0.079 0.148,-0.108 0.057,-0.029 0.119,-0.054 0.185,-0.078 l 0.392,-0.125 c 0.09,-0.029 0.177,-0.065 0.261,-0.108 0.083,-0.043 0.157,-0.1 0.219,-0.168 0.064,-0.071 0.112,-0.159 0.147,-0.264 0.034,-0.106 0.047,-0.235 0.039,-0.391 -0.01,-0.18 -0.053,-0.335 -0.13,-0.466 -0.078,-0.128 -0.173,-0.238 -0.289,-0.322 -0.115,-0.086 -0.243,-0.15 -0.382,-0.192 -0.139,-0.041 -0.276,-0.062 -0.408,-0.062 -0.177,0 -0.34,0.025 -0.487,0.07 -0.148,0.046 -0.271,0.118 -0.369,0.214 -0.098,0.098 -0.172,0.223 -0.217,0.374 -0.046,0.152 -0.057,0.337 -0.033,0.548 h 0.395 c -0.013,-0.154 -0.005,-0.285 0.026,-0.39 0.031,-0.107 0.079,-0.19 0.147,-0.256 0.067,-0.066 0.149,-0.111 0.247,-0.138 0.099,-0.028 0.208,-0.04 0.328,-0.04 0.091,0 0.181,0.012 0.274,0.036 0.091,0.028 0.172,0.066 0.244,0.119 0.073,0.053 0.131,0.121 0.18,0.204 0.047,0.086 0.073,0.187 0.079,0.301 0.005,0.086 -0.006,0.161 -0.029,0.225 -0.025,0.063 -0.06,0.115 -0.107,0.159 -0.045,0.043 -0.099,0.079 -0.162,0.11 -0.063,0.028 -0.128,0.053 -0.199,0.075 l -0.396,0.127 c -0.088,0.028 -0.171,0.066 -0.248,0.112 -0.079,0.047 -0.146,0.105 -0.204,0.174 -0.057,0.069 -0.1,0.152 -0.132,0.247 -0.031,0.095 -0.042,0.205 -0.036,0.334 0.009,0.167 0.048,0.312 0.117,0.437 0.071,0.124 0.16,0.227 0.265,0.312 0.105,0.083 0.223,0.147 0.354,0.188 0.131,0.041 0.263,0.063 0.396,0.063 0.147,0 0.285,-0.023 0.414,-0.065 C -0.054,0.65 0.058,0.585 0.153,0.497 0.249,0.408 0.32,0.294 0.369,0.156 0.419,0.018 0.437,-0.148 0.42,-0.341 H 0.025 C 0.036,-0.206 0.027,-0.092 0,0"/>
				</g>
				<g transform="translate(42.3262,30.0068)" id="g136">
					<path id="path138" style="fill:none;stroke:#ffffff;stroke-width:0.125;stroke-linecap:butt;stroke-linejoin:miter;stroke-miterlimit:4;stroke-dasharray:none;stroke-opacity:1" d="m 0,0 c -0.027,0.091 -0.068,0.165 -0.125,0.221 -0.057,0.057 -0.127,0.096 -0.213,0.118 -0.084,0.024 -0.177,0.035 -0.28,0.035 -0.072,0 -0.149,-0.01 -0.23,-0.031 -0.082,-0.022 -0.158,-0.055 -0.228,-0.1 -0.07,-0.045 -0.13,-0.103 -0.177,-0.174 -0.048,-0.071 -0.075,-0.158 -0.08,-0.259 -0.005,-0.085 0.004,-0.157 0.026,-0.216 0.021,-0.06 0.054,-0.11 0.094,-0.155 0.04,-0.043 0.089,-0.079 0.148,-0.108 0.057,-0.029 0.119,-0.054 0.185,-0.078 l 0.392,-0.125 c 0.09,-0.029 0.177,-0.065 0.261,-0.108 0.083,-0.043 0.157,-0.1 0.219,-0.168 0.064,-0.071 0.112,-0.159 0.147,-0.264 0.034,-0.106 0.047,-0.235 0.039,-0.391 -0.01,-0.18 -0.053,-0.335 -0.13,-0.466 -0.078,-0.128 -0.173,-0.238 -0.289,-0.322 -0.115,-0.086 -0.243,-0.15 -0.382,-0.192 -0.139,-0.041 -0.276,-0.062 -0.408,-0.062 -0.177,0 -0.34,0.025 -0.487,0.07 -0.148,0.046 -0.271,0.118 -0.369,0.214 -0.098,0.098 -0.172,0.223 -0.217,0.374 -0.046,0.152 -0.057,0.337 -0.033,0.548 h 0.395 c -0.013,-0.154 -0.005,-0.285 0.026,-0.39 0.031,-0.107 0.079,-0.19 0.147,-0.256 0.067,-0.066 0.149,-0.111 0.247,-0.138 0.099,-0.028 0.208,-0.04 0.328,-0.04 0.091,0 0.181,0.012 0.274,0.036 0.091,0.028 0.172,0.066 0.244,0.119 0.073,0.053 0.131,0.121 0.18,0.204 0.047,0.086 0.073,0.187 0.079,0.301 0.005,0.086 -0.006,0.161 -0.029,0.225 -0.025,0.063 -0.06,0.115 -0.107,0.159 -0.045,0.043 -0.099,0.079 -0.162,0.11 -0.063,0.028 -0.128,0.053 -0.199,0.075 l -0.396,0.127 c -0.088,0.028 -0.171,0.066 -0.248,0.112 -0.079,0.047 -0.146,0.105 -0.204,0.174 -0.057,0.069 -0.1,0.152 -0.132,0.247 -0.031,0.095 -0.042,0.205 -0.036,0.334 0.009,0.167 0.048,0.312 0.117,0.437 0.071,0.124 0.16,0.227 0.265,0.312 0.105,0.083 0.223,0.147 0.354,0.188 0.131,0.041 0.263,0.063 0.396,0.063 0.147,0 0.285,-0.023 0.414,-0.065 C -0.054,0.65 0.058,0.585 0.153,0.497 0.249,0.408 0.32,0.294 0.369,0.156 0.419,0.018 0.437,-0.148 0.42,-0.341 H 0.025 C 0.036,-0.206 0.027,-0.092 0,0 Z"/>
				</g>
				<g transform="translate(44.8125,29.0347)" id="g140">
					<path id="path142" style="fill:#ffffff;fill-opacity:1;fill-rule:nonzero;stroke:none" d="M 0,0 C 0.216,0 0.383,0.065 0.5,0.195 0.618,0.325 0.681,0.493 0.693,0.698 0.698,0.806 0.69,0.896 0.667,0.967 0.645,1.039 0.612,1.097 0.57,1.14 0.529,1.184 0.479,1.215 0.422,1.234 0.364,1.253 0.303,1.264 0.235,1.264 H -0.599 L -0.894,0 Z M 0.257,1.649 C 0.542,1.649 0.756,1.571 0.899,1.413 1.042,1.255 1.104,1.018 1.087,0.698 1.081,0.593 1.058,0.477 1.015,0.349 0.973,0.223 0.905,0.104 0.812,-0.005 0.72,-0.115 0.599,-0.206 0.449,-0.278 0.3,-0.349 0.116,-0.388 -0.104,-0.388 h -0.881 l -0.33,-1.407 H -1.71 l 0.799,3.444 z"/>
				</g>
				<g transform="translate(44.8125,29.0347)" id="g144">
					<path id="path146" style="fill:none;stroke:#ffffff;stroke-width:0.125;stroke-linecap:butt;stroke-linejoin:miter;stroke-miterlimit:4;stroke-dasharray:none;stroke-opacity:1" d="M 0,0 C 0.216,0 0.383,0.065 0.5,0.195 0.618,0.325 0.681,0.493 0.693,0.698 0.698,0.806 0.69,0.896 0.667,0.967 0.645,1.039 0.612,1.097 0.57,1.14 0.529,1.184 0.479,1.215 0.422,1.234 0.364,1.253 0.303,1.264 0.235,1.264 H -0.599 L -0.894,0 Z M 0.257,1.649 C 0.542,1.649 0.756,1.571 0.899,1.413 1.042,1.255 1.104,1.018 1.087,0.698 1.081,0.593 1.058,0.477 1.015,0.349 0.973,0.223 0.905,0.104 0.812,-0.005 0.72,-0.115 0.599,-0.206 0.449,-0.278 0.3,-0.349 0.116,-0.388 -0.104,-0.388 h -0.881 l -0.33,-1.407 H -1.71 l 0.799,3.444 z"/>
				</g>
				<g transform="translate(46.7349,28.21)" id="g148">
					<path id="path150" style="fill:#ffffff;fill-opacity:1;fill-rule:nonzero;stroke:none" d="m 0,0 c 0.027,-0.139 0.076,-0.256 0.144,-0.356 0.065,-0.098 0.152,-0.173 0.259,-0.229 0.107,-0.055 0.235,-0.081 0.385,-0.081 0.196,0 0.373,0.048 0.526,0.149 0.156,0.101 0.288,0.231 0.397,0.39 C 1.82,0.035 1.906,0.217 1.969,0.42 2.03,0.622 2.066,0.826 2.078,1.032 2.085,1.193 2.076,1.342 2.046,1.479 2.017,1.619 1.969,1.738 1.903,1.84 1.836,1.941 1.753,2.021 1.651,2.081 1.553,2.141 1.432,2.17 1.293,2.17 1.086,2.17 0.903,2.119 0.743,2.018 0.585,1.917 0.449,1.785 0.337,1.625 0.228,1.464 0.142,1.282 0.079,1.078 0.018,0.873 -0.02,0.667 -0.03,0.457 -0.04,0.29 -0.029,0.137 0,0 m -0.271,1.255 c 0.087,0.253 0.207,0.477 0.357,0.669 0.149,0.193 0.328,0.347 0.538,0.461 0.208,0.115 0.438,0.172 0.69,0.172 0.191,0 0.361,-0.04 0.51,-0.119 C 1.974,2.36 2.099,2.252 2.198,2.115 2.297,1.977 2.371,1.816 2.418,1.63 2.466,1.443 2.484,1.243 2.472,1.032 2.457,0.762 2.407,0.501 2.321,0.251 2.234,0 2.118,-0.224 1.97,-0.416 1.823,-0.609 1.647,-0.764 1.443,-0.878 1.24,-0.991 1.014,-1.048 0.768,-1.048 c -0.408,0 -0.715,0.131 -0.921,0.394 -0.206,0.262 -0.297,0.632 -0.272,1.111 0.014,0.28 0.067,0.546 0.154,0.798"/>
				</g>
				<g transform="translate(46.7349,28.21)" id="g152">
					<path id="path154" style="fill:none;stroke:#ffffff;stroke-width:0.125;stroke-linecap:butt;stroke-linejoin:miter;stroke-miterlimit:4;stroke-dasharray:none;stroke-opacity:1" d="m 0,0 c 0.027,-0.139 0.076,-0.256 0.144,-0.356 0.065,-0.098 0.152,-0.173 0.259,-0.229 0.107,-0.055 0.235,-0.081 0.385,-0.081 0.196,0 0.373,0.048 0.526,0.149 0.156,0.101 0.288,0.231 0.397,0.39 C 1.82,0.035 1.906,0.217 1.969,0.42 2.03,0.622 2.066,0.826 2.078,1.032 2.085,1.193 2.076,1.342 2.046,1.479 2.017,1.619 1.969,1.738 1.903,1.84 1.836,1.941 1.753,2.021 1.651,2.081 1.553,2.141 1.432,2.17 1.293,2.17 1.086,2.17 0.903,2.119 0.743,2.018 0.585,1.917 0.449,1.785 0.337,1.625 0.228,1.464 0.142,1.282 0.079,1.078 0.018,0.873 -0.02,0.667 -0.03,0.457 -0.04,0.29 -0.029,0.137 0,0 Z m -0.271,1.255 c 0.087,0.253 0.207,0.477 0.357,0.669 0.149,0.193 0.328,0.347 0.538,0.461 0.208,0.115 0.438,0.172 0.69,0.172 0.191,0 0.361,-0.04 0.51,-0.119 C 1.974,2.36 2.099,2.252 2.198,2.115 2.297,1.977 2.371,1.816 2.418,1.63 2.466,1.443 2.484,1.243 2.472,1.032 2.457,0.762 2.407,0.501 2.321,0.251 2.234,0 2.118,-0.224 1.97,-0.416 1.823,-0.609 1.647,-0.764 1.443,-0.878 1.24,-0.991 1.014,-1.048 0.768,-1.048 c -0.408,0 -0.715,0.131 -0.921,0.394 -0.206,0.262 -0.297,0.632 -0.272,1.111 0.014,0.28 0.067,0.546 0.154,0.798 z"/>
				</g>
				<g transform="translate(51.2891,29.0967)" id="g156">
					<path id="path158" style="fill:#ffffff;fill-opacity:1;fill-rule:nonzero;stroke:none" d="M 0,0 C 0.156,0 0.281,0.024 0.38,0.073 0.479,0.121 0.556,0.179 0.612,0.249 0.667,0.317 0.708,0.392 0.729,0.471 0.752,0.548 0.764,0.619 0.768,0.681 0.773,0.786 0.761,0.873 0.731,0.94 0.701,1.009 0.66,1.062 0.609,1.101 0.556,1.139 0.497,1.167 0.428,1.18 0.359,1.194 0.288,1.202 0.213,1.202 H -0.605 L -0.888,0 Z M 0.233,1.587 C 0.357,1.587 0.479,1.574 0.595,1.546 0.711,1.518 0.812,1.472 0.9,1.404 0.988,1.337 1.057,1.247 1.105,1.133 1.152,1.02 1.172,0.88 1.164,0.709 1.157,0.593 1.135,0.482 1.096,0.379 1.057,0.274 1.007,0.179 0.943,0.096 0.883,0.012 0.808,-0.056 0.724,-0.111 0.64,-0.166 0.547,-0.2 0.445,-0.218 L 0.444,-0.227 C 0.509,-0.249 0.559,-0.284 0.601,-0.333 0.641,-0.381 0.67,-0.438 0.69,-0.504 0.711,-0.569 0.723,-0.645 0.726,-0.724 0.728,-0.806 0.723,-0.887 0.709,-0.975 0.7,-1.053 0.687,-1.129 0.672,-1.203 0.657,-1.278 0.646,-1.354 0.637,-1.431 0.627,-1.507 0.623,-1.581 0.625,-1.65 0.627,-1.722 0.641,-1.789 0.667,-1.857 h -0.41 c -0.017,0.064 -0.023,0.158 -0.019,0.284 0.003,0.126 0.026,0.276 0.065,0.454 0.031,0.154 0.044,0.279 0.039,0.374 C 0.337,-0.651 0.321,-0.578 0.293,-0.526 0.266,-0.474 0.23,-0.439 0.186,-0.421 0.142,-0.398 0.1,-0.389 0.055,-0.386 h -0.158 -0.878 l -0.342,-1.471 h -0.394 l 0.807,3.444 z"/>
				</g>
				<g transform="translate(51.2891,29.0967)" id="g160">
					<path id="path162" style="fill:none;stroke:#ffffff;stroke-width:0.125;stroke-linecap:butt;stroke-linejoin:miter;stroke-miterlimit:4;stroke-dasharray:none;stroke-opacity:1" d="M 0,0 C 0.156,0 0.281,0.024 0.38,0.073 0.479,0.121 0.556,0.179 0.612,0.249 0.667,0.317 0.708,0.392 0.729,0.471 0.752,0.548 0.764,0.619 0.768,0.681 0.773,0.786 0.761,0.873 0.731,0.94 0.701,1.009 0.66,1.062 0.609,1.101 0.556,1.139 0.497,1.167 0.428,1.18 0.359,1.194 0.288,1.202 0.213,1.202 H -0.605 L -0.888,0 Z M 0.233,1.587 C 0.357,1.587 0.479,1.574 0.595,1.546 0.711,1.518 0.812,1.472 0.9,1.404 0.988,1.337 1.057,1.247 1.105,1.133 1.152,1.02 1.172,0.88 1.164,0.709 1.157,0.593 1.135,0.482 1.096,0.379 1.057,0.274 1.007,0.179 0.943,0.096 0.883,0.012 0.808,-0.056 0.724,-0.111 0.64,-0.166 0.547,-0.2 0.445,-0.218 L 0.444,-0.227 C 0.509,-0.249 0.559,-0.284 0.601,-0.333 0.641,-0.381 0.67,-0.438 0.69,-0.504 0.711,-0.569 0.723,-0.645 0.726,-0.724 0.728,-0.806 0.723,-0.887 0.709,-0.975 0.7,-1.053 0.687,-1.129 0.672,-1.203 0.657,-1.278 0.646,-1.354 0.637,-1.431 0.627,-1.507 0.623,-1.581 0.625,-1.65 0.627,-1.722 0.641,-1.789 0.667,-1.857 h -0.41 c -0.017,0.064 -0.023,0.158 -0.019,0.284 0.003,0.126 0.026,0.276 0.065,0.454 0.031,0.154 0.044,0.279 0.039,0.374 C 0.337,-0.651 0.321,-0.578 0.293,-0.526 0.266,-0.474 0.23,-0.439 0.186,-0.421 0.142,-0.398 0.1,-0.389 0.055,-0.386 h -0.158 -0.878 l -0.342,-1.471 h -0.394 l 0.807,3.444 z"/>
				</g>
				<g transform="translate(54.4258,30.2988)" id="g164">
					<path id="path166" style="fill:#ffffff;fill-opacity:1;fill-rule:nonzero;stroke:none" d="M 0,0 -0.716,-3.06 H -1.11 L -0.394,0 h -0.997 l 0.09,0.385 H 1.094 L 0.998,0 Z"/>
				</g>
				<g transform="translate(54.4258,30.2988)" id="g168">
					<path id="path170" style="fill:none;stroke:#ffffff;stroke-width:0.125;stroke-linecap:butt;stroke-linejoin:miter;stroke-miterlimit:4;stroke-dasharray:none;stroke-opacity:1" d="M 0,0 -0.716,-3.06 H -1.11 L -0.394,0 h -0.997 l 0.09,0.385 H 1.094 L 0.998,0 Z"/>
				</g>
				<g transform="translate(56.9453,28.6621)" id="g172">
					<path id="path174" style="fill:#ffffff;fill-opacity:1;fill-rule:nonzero;stroke:none" d="M 0,0 -0.135,1.617 H -0.144 L -1.021,0 Z M 0.165,2.021 0.521,-1.423 H 0.115 L 0.031,-0.387 H -1.22 l -0.573,-1.036 h -0.436 l 1.962,3.444 z"/>
				</g>
				<g transform="translate(56.9453,28.6621)" id="g176">
					<path id="path178" style="fill:none;stroke:#ffffff;stroke-width:0.125;stroke-linecap:butt;stroke-linejoin:miter;stroke-miterlimit:4;stroke-dasharray:none;stroke-opacity:1" d="M 0,0 -0.135,1.617 H -0.144 L -1.021,0 Z M 0.165,2.021 0.521,-1.423 H 0.115 L 0.031,-0.387 H -1.22 l -0.573,-1.036 h -0.436 l 1.962,3.444 z"/>
				</g>
				<g transform="translate(59.4424,30.2988)" id="g180">
					<path id="path182" style="fill:#ffffff;fill-opacity:1;fill-rule:nonzero;stroke:none" d="M 0,0 -0.718,-3.06 H -1.112 L -0.395,0 h -0.997 l 0.091,0.385 H 1.092 L 0.997,0 Z"/>
				</g>
				<g transform="translate(59.4424,30.2988)" id="g184">
					<path id="path186" style="fill:none;stroke:#ffffff;stroke-width:0.125;stroke-linecap:butt;stroke-linejoin:miter;stroke-miterlimit:4;stroke-dasharray:none;stroke-opacity:1" d="M 0,0 -0.718,-3.06 H -1.112 L -0.395,0 h -0.997 l 0.091,0.385 H 1.092 L 0.997,0 Z"/>
				</g>
				<g transform="translate(61.5645,30.6836)" id="g188">
					<path id="path190" style="fill:#ffffff;fill-opacity:1;fill-rule:nonzero;stroke:none" d="M 0,0 -0.803,-3.444 H -1.198 L -0.395,0 Z"/>
				</g>
				<g transform="translate(61.5645,30.6836)" id="g192">
					<path id="path194" style="fill:none;stroke:#ffffff;stroke-width:0.125;stroke-linecap:butt;stroke-linejoin:miter;stroke-miterlimit:4;stroke-dasharray:none;stroke-opacity:1" d="M 0,0 -0.803,-3.444 H -1.198 L -0.395,0 Z"/>
				</g>
				<g transform="translate(62.3828,28.21)" id="g196">
					<path id="path198" style="fill:#ffffff;fill-opacity:1;fill-rule:nonzero;stroke:none" d="M 0,0 C 0.028,-0.139 0.075,-0.256 0.144,-0.356 0.21,-0.454 0.297,-0.529 0.403,-0.585 0.511,-0.64 0.64,-0.666 0.788,-0.666 c 0.195,0 0.372,0.048 0.526,0.149 0.155,0.101 0.288,0.231 0.397,0.39 C 1.821,0.035 1.907,0.217 1.97,0.42 2.028,0.622 2.067,0.826 2.078,1.032 2.085,1.193 2.075,1.342 2.048,1.479 2.017,1.619 1.972,1.738 1.905,1.84 1.837,1.941 1.753,2.021 1.654,2.081 1.552,2.141 1.433,2.17 1.293,2.17 1.085,2.17 0.903,2.119 0.743,2.018 0.585,1.917 0.448,1.785 0.338,1.625 0.227,1.464 0.142,1.282 0.079,1.078 0.018,0.873 -0.02,0.667 -0.03,0.457 -0.039,0.29 -0.029,0.137 0,0 M -0.27,1.255 C -0.183,1.508 -0.064,1.732 0.086,1.924 0.235,2.117 0.415,2.271 0.623,2.385 0.83,2.5 1.062,2.557 1.314,2.557 1.505,2.557 1.675,2.517 1.826,2.438 1.975,2.36 2.098,2.252 2.199,2.115 2.298,1.977 2.371,1.816 2.419,1.63 2.466,1.443 2.482,1.243 2.473,1.032 2.458,0.762 2.407,0.501 2.321,0.251 2.234,0 2.118,-0.224 1.972,-0.416 1.824,-0.609 1.649,-0.764 1.444,-0.878 c -0.205,-0.113 -0.43,-0.17 -0.677,-0.17 -0.407,0 -0.713,0.131 -0.92,0.394 -0.206,0.262 -0.297,0.632 -0.272,1.111 0.015,0.28 0.067,0.546 0.155,0.798"/>
				</g>
				<g transform="translate(62.3828,28.21)" id="g200">
					<path id="path202" style="fill:none;stroke:#ffffff;stroke-width:0.125;stroke-linecap:butt;stroke-linejoin:miter;stroke-miterlimit:4;stroke-dasharray:none;stroke-opacity:1" d="M 0,0 C 0.028,-0.139 0.075,-0.256 0.144,-0.356 0.21,-0.454 0.297,-0.529 0.403,-0.585 0.511,-0.64 0.64,-0.666 0.788,-0.666 c 0.195,0 0.372,0.048 0.526,0.149 0.155,0.101 0.288,0.231 0.397,0.39 C 1.821,0.035 1.907,0.217 1.97,0.42 2.028,0.622 2.067,0.826 2.078,1.032 2.085,1.193 2.075,1.342 2.048,1.479 2.017,1.619 1.972,1.738 1.905,1.84 1.837,1.941 1.753,2.021 1.654,2.081 1.552,2.141 1.433,2.17 1.293,2.17 1.085,2.17 0.903,2.119 0.743,2.018 0.585,1.917 0.448,1.785 0.338,1.625 0.227,1.464 0.142,1.282 0.079,1.078 0.018,0.873 -0.02,0.667 -0.03,0.457 -0.039,0.29 -0.029,0.137 0,0 Z M -0.27,1.255 C -0.183,1.508 -0.064,1.732 0.086,1.924 0.235,2.117 0.415,2.271 0.623,2.385 0.83,2.5 1.062,2.557 1.314,2.557 1.505,2.557 1.675,2.517 1.826,2.438 1.975,2.36 2.098,2.252 2.199,2.115 2.298,1.977 2.371,1.816 2.419,1.63 2.466,1.443 2.482,1.243 2.473,1.032 2.458,0.762 2.407,0.501 2.321,0.251 2.234,0 2.118,-0.224 1.972,-0.416 1.824,-0.609 1.649,-0.764 1.444,-0.878 c -0.205,-0.113 -0.43,-0.17 -0.677,-0.17 -0.407,0 -0.713,0.131 -0.92,0.394 -0.206,0.262 -0.297,0.632 -0.272,1.111 0.015,0.28 0.067,0.546 0.155,0.798 z"/>
				</g>
				<g transform="translate(66.4512,30.6836)" id="g204">
					<path id="path206" style="fill:#ffffff;fill-opacity:1;fill-rule:nonzero;stroke:none" d="M 0,0 0.911,-2.852 H 0.919 L 1.563,0 H 1.944 L 1.136,-3.444 H 0.713 L -0.19,-0.612 H -0.199 L -0.85,-3.444 H -1.231 L -0.422,0 Z"/>
				</g>
				<g transform="translate(66.4512,30.6836)" id="g208">
					<path id="path210" style="fill:none;stroke:#ffffff;stroke-width:0.125;stroke-linecap:butt;stroke-linejoin:miter;stroke-miterlimit:4;stroke-dasharray:none;stroke-opacity:1" d="M 0,0 0.911,-2.852 H 0.919 L 1.563,0 H 1.944 L 1.136,-3.444 H 0.713 L -0.19,-0.612 H -0.199 L -0.85,-3.444 H -1.231 L -0.422,0 Z"/>
				</g>
				<g transform="translate(72.2266,30.0068)" id="g212">
					<path id="path214" style="fill:#ffffff;fill-opacity:1;fill-rule:nonzero;stroke:none" d="m 0,0 c -0.026,0.091 -0.068,0.165 -0.124,0.221 -0.059,0.057 -0.129,0.096 -0.213,0.118 -0.085,0.024 -0.178,0.035 -0.281,0.035 -0.072,0 -0.15,-0.01 -0.231,-0.031 C -0.93,0.321 -1.005,0.288 -1.076,0.243 -1.146,0.198 -1.205,0.14 -1.252,0.069 -1.303,-0.002 -1.327,-0.089 -1.333,-0.19 c -0.005,-0.085 0.003,-0.157 0.025,-0.216 0.024,-0.06 0.054,-0.11 0.095,-0.155 0.04,-0.043 0.09,-0.079 0.147,-0.108 0.059,-0.029 0.12,-0.054 0.186,-0.078 l 0.392,-0.125 c 0.09,-0.029 0.176,-0.065 0.259,-0.108 0.084,-0.043 0.158,-0.1 0.221,-0.168 0.063,-0.071 0.112,-0.159 0.146,-0.264 0.036,-0.106 0.049,-0.235 0.041,-0.391 -0.012,-0.18 -0.053,-0.335 -0.13,-0.466 -0.078,-0.128 -0.175,-0.238 -0.291,-0.322 -0.114,-0.086 -0.241,-0.15 -0.381,-0.192 -0.14,-0.041 -0.274,-0.062 -0.408,-0.062 -0.176,0 -0.341,0.025 -0.487,0.07 -0.146,0.046 -0.27,0.118 -0.369,0.214 -0.1,0.098 -0.174,0.223 -0.217,0.374 -0.046,0.152 -0.057,0.337 -0.033,0.548 h 0.397 c -0.016,-0.154 -0.007,-0.285 0.024,-0.39 0.029,-0.107 0.08,-0.19 0.146,-0.256 0.068,-0.066 0.15,-0.111 0.249,-0.138 0.097,-0.028 0.207,-0.04 0.326,-0.04 0.093,0 0.183,0.012 0.274,0.036 0.09,0.028 0.172,0.066 0.245,0.119 0.072,0.053 0.132,0.121 0.178,0.204 0.049,0.086 0.075,0.187 0.081,0.301 0.005,0.086 -0.006,0.161 -0.029,0.225 -0.025,0.063 -0.061,0.115 -0.106,0.159 -0.047,0.043 -0.101,0.079 -0.162,0.11 -0.063,0.028 -0.13,0.053 -0.201,0.075 l -0.395,0.127 c -0.088,0.028 -0.17,0.066 -0.249,0.112 -0.078,0.047 -0.146,0.105 -0.203,0.174 -0.056,0.069 -0.1,0.152 -0.131,0.247 -0.033,0.095 -0.044,0.205 -0.036,0.334 0.007,0.167 0.046,0.312 0.117,0.437 0.07,0.124 0.158,0.227 0.264,0.312 0.105,0.083 0.224,0.147 0.354,0.188 0.132,0.041 0.263,0.063 0.395,0.063 0.147,0 0.285,-0.023 0.415,-0.065 C -0.054,0.65 0.058,0.585 0.152,0.497 0.249,0.408 0.319,0.294 0.369,0.156 0.42,0.018 0.437,-0.148 0.421,-0.341 H 0.026 C 0.036,-0.206 0.027,-0.092 0,0"/>
				</g>
				<g transform="translate(72.2266,30.0068)" id="g216">
					<path id="path218" style="fill:none;stroke:#ffffff;stroke-width:0.125;stroke-linecap:butt;stroke-linejoin:miter;stroke-miterlimit:4;stroke-dasharray:none;stroke-opacity:1" d="m 0,0 c -0.026,0.091 -0.068,0.165 -0.124,0.221 -0.059,0.057 -0.129,0.096 -0.213,0.118 -0.085,0.024 -0.178,0.035 -0.281,0.035 -0.072,0 -0.15,-0.01 -0.231,-0.031 C -0.93,0.321 -1.005,0.288 -1.076,0.243 -1.146,0.198 -1.205,0.14 -1.252,0.069 -1.303,-0.002 -1.327,-0.089 -1.333,-0.19 c -0.005,-0.085 0.003,-0.157 0.025,-0.216 0.024,-0.06 0.054,-0.11 0.095,-0.155 0.04,-0.043 0.09,-0.079 0.147,-0.108 0.059,-0.029 0.12,-0.054 0.186,-0.078 l 0.392,-0.125 c 0.09,-0.029 0.176,-0.065 0.259,-0.108 0.084,-0.043 0.158,-0.1 0.221,-0.168 0.063,-0.071 0.112,-0.159 0.146,-0.264 0.036,-0.106 0.049,-0.235 0.041,-0.391 -0.012,-0.18 -0.053,-0.335 -0.13,-0.466 -0.078,-0.128 -0.175,-0.238 -0.291,-0.322 -0.114,-0.086 -0.241,-0.15 -0.381,-0.192 -0.14,-0.041 -0.274,-0.062 -0.408,-0.062 -0.176,0 -0.341,0.025 -0.487,0.07 -0.146,0.046 -0.27,0.118 -0.369,0.214 -0.1,0.098 -0.174,0.223 -0.217,0.374 -0.046,0.152 -0.057,0.337 -0.033,0.548 h 0.397 c -0.016,-0.154 -0.007,-0.285 0.024,-0.39 0.029,-0.107 0.08,-0.19 0.146,-0.256 0.068,-0.066 0.15,-0.111 0.249,-0.138 0.097,-0.028 0.207,-0.04 0.326,-0.04 0.093,0 0.183,0.012 0.274,0.036 0.09,0.028 0.172,0.066 0.245,0.119 0.072,0.053 0.132,0.121 0.178,0.204 0.049,0.086 0.075,0.187 0.081,0.301 0.005,0.086 -0.006,0.161 -0.029,0.225 -0.025,0.063 -0.061,0.115 -0.106,0.159 -0.047,0.043 -0.101,0.079 -0.162,0.11 -0.063,0.028 -0.13,0.053 -0.201,0.075 l -0.395,0.127 c -0.088,0.028 -0.17,0.066 -0.249,0.112 -0.078,0.047 -0.146,0.105 -0.203,0.174 -0.056,0.069 -0.1,0.152 -0.131,0.247 -0.033,0.095 -0.044,0.205 -0.036,0.334 0.007,0.167 0.046,0.312 0.117,0.437 0.07,0.124 0.158,0.227 0.264,0.312 0.105,0.083 0.224,0.147 0.354,0.188 0.132,0.041 0.263,0.063 0.395,0.063 0.147,0 0.285,-0.023 0.415,-0.065 C -0.054,0.65 0.058,0.585 0.152,0.497 0.249,0.408 0.319,0.294 0.369,0.156 0.42,0.018 0.437,-0.148 0.421,-0.341 H 0.026 C 0.036,-0.206 0.027,-0.092 0,0 Z"/>
				</g>
				<g transform="translate(73.4277,30.6836)" id="g220">
					<path id="path222" style="fill:#ffffff;fill-opacity:1;fill-rule:nonzero;stroke:none" d="M 0,0 H 0.419 L 0.938,-1.669 2.152,0 H 2.609 L 1.063,-2.061 0.732,-3.444 H 0.348 l 0.324,1.383 z"/>
				</g>
				<g transform="translate(73.4277,30.6836)" id="g224">
					<path id="path226" style="fill:none;stroke:#ffffff;stroke-width:0.125;stroke-linecap:butt;stroke-linejoin:miter;stroke-miterlimit:4;stroke-dasharray:none;stroke-opacity:1" d="M 0,0 H 0.419 L 0.938,-1.669 2.152,0 H 2.609 L 1.063,-2.061 0.732,-3.444 H 0.348 l 0.324,1.383 z"/>
				</g>
				<g transform="translate(78.0811,30.0068)" id="g228">
					<path id="path230" style="fill:#ffffff;fill-opacity:1;fill-rule:nonzero;stroke:none" d="M 0,0 C -0.028,0.091 -0.068,0.165 -0.125,0.221 -0.182,0.278 -0.253,0.317 -0.337,0.339 -0.422,0.363 -0.516,0.374 -0.62,0.374 -0.69,0.374 -0.767,0.364 -0.848,0.343 -0.93,0.321 -1.006,0.288 -1.075,0.243 -1.146,0.198 -1.204,0.14 -1.254,0.069 -1.301,-0.002 -1.328,-0.089 -1.333,-0.19 c -0.005,-0.085 0.005,-0.157 0.026,-0.216 0.022,-0.06 0.053,-0.11 0.094,-0.155 0.04,-0.043 0.091,-0.079 0.15,-0.108 0.054,-0.029 0.118,-0.054 0.182,-0.078 l 0.394,-0.125 c 0.089,-0.029 0.176,-0.065 0.26,-0.108 0.083,-0.043 0.156,-0.1 0.218,-0.168 0.064,-0.071 0.113,-0.159 0.147,-0.264 0.035,-0.106 0.049,-0.235 0.041,-0.391 -0.009,-0.18 -0.055,-0.335 -0.131,-0.466 -0.078,-0.128 -0.174,-0.238 -0.29,-0.322 -0.113,-0.086 -0.241,-0.15 -0.382,-0.192 -0.139,-0.041 -0.276,-0.062 -0.409,-0.062 -0.175,0 -0.337,0.025 -0.486,0.07 -0.148,0.046 -0.271,0.118 -0.369,0.214 -0.098,0.098 -0.171,0.223 -0.216,0.374 -0.045,0.152 -0.059,0.337 -0.032,0.548 h 0.394 c -0.012,-0.154 -0.004,-0.285 0.026,-0.39 0.03,-0.107 0.078,-0.19 0.146,-0.256 0.068,-0.066 0.15,-0.111 0.248,-0.138 0.099,-0.028 0.208,-0.04 0.328,-0.04 0.09,0 0.182,0.012 0.273,0.036 0.091,0.028 0.173,0.066 0.245,0.119 0.073,0.053 0.132,0.121 0.179,0.204 0.046,0.086 0.075,0.187 0.081,0.301 0.003,0.086 -0.005,0.161 -0.032,0.225 -0.023,0.063 -0.059,0.115 -0.104,0.159 -0.047,0.043 -0.1,0.079 -0.164,0.11 -0.061,0.028 -0.128,0.053 -0.198,0.075 l -0.397,0.127 c -0.087,0.028 -0.169,0.066 -0.246,0.112 -0.08,0.047 -0.146,0.105 -0.205,0.174 -0.057,0.069 -0.101,0.152 -0.132,0.247 -0.03,0.095 -0.043,0.205 -0.035,0.334 0.007,0.167 0.046,0.312 0.117,0.437 0.07,0.124 0.158,0.227 0.264,0.312 0.106,0.083 0.224,0.147 0.356,0.188 0.129,0.041 0.261,0.063 0.394,0.063 0.148,0 0.285,-0.023 0.414,-0.065 C -0.054,0.65 0.058,0.585 0.155,0.497 0.248,0.408 0.32,0.294 0.37,0.156 0.42,0.018 0.437,-0.148 0.421,-0.341 H 0.026 C 0.036,-0.206 0.027,-0.092 0,0"/>
				</g>
				<g transform="translate(78.0811,30.0068)" id="g232">
					<path id="path234" style="fill:none;stroke:#ffffff;stroke-width:0.125;stroke-linecap:butt;stroke-linejoin:miter;stroke-miterlimit:4;stroke-dasharray:none;stroke-opacity:1" d="M 0,0 C -0.028,0.091 -0.068,0.165 -0.125,0.221 -0.182,0.278 -0.253,0.317 -0.337,0.339 -0.422,0.363 -0.516,0.374 -0.62,0.374 -0.69,0.374 -0.767,0.364 -0.848,0.343 -0.93,0.321 -1.006,0.288 -1.075,0.243 -1.146,0.198 -1.204,0.14 -1.254,0.069 -1.301,-0.002 -1.328,-0.089 -1.333,-0.19 c -0.005,-0.085 0.005,-0.157 0.026,-0.216 0.022,-0.06 0.053,-0.11 0.094,-0.155 0.04,-0.043 0.091,-0.079 0.15,-0.108 0.054,-0.029 0.118,-0.054 0.182,-0.078 l 0.394,-0.125 c 0.089,-0.029 0.176,-0.065 0.26,-0.108 0.083,-0.043 0.156,-0.1 0.218,-0.168 0.064,-0.071 0.113,-0.159 0.147,-0.264 0.035,-0.106 0.049,-0.235 0.041,-0.391 -0.009,-0.18 -0.055,-0.335 -0.131,-0.466 -0.078,-0.128 -0.174,-0.238 -0.29,-0.322 -0.113,-0.086 -0.241,-0.15 -0.382,-0.192 -0.139,-0.041 -0.276,-0.062 -0.409,-0.062 -0.175,0 -0.337,0.025 -0.486,0.07 -0.148,0.046 -0.271,0.118 -0.369,0.214 -0.098,0.098 -0.171,0.223 -0.216,0.374 -0.045,0.152 -0.059,0.337 -0.032,0.548 h 0.394 c -0.012,-0.154 -0.004,-0.285 0.026,-0.39 0.03,-0.107 0.078,-0.19 0.146,-0.256 0.068,-0.066 0.15,-0.111 0.248,-0.138 0.099,-0.028 0.208,-0.04 0.328,-0.04 0.09,0 0.182,0.012 0.273,0.036 0.091,0.028 0.173,0.066 0.245,0.119 0.073,0.053 0.132,0.121 0.179,0.204 0.046,0.086 0.075,0.187 0.081,0.301 0.003,0.086 -0.005,0.161 -0.032,0.225 -0.023,0.063 -0.059,0.115 -0.104,0.159 -0.047,0.043 -0.1,0.079 -0.164,0.11 -0.061,0.028 -0.128,0.053 -0.198,0.075 l -0.397,0.127 c -0.087,0.028 -0.169,0.066 -0.246,0.112 -0.08,0.047 -0.146,0.105 -0.205,0.174 -0.057,0.069 -0.101,0.152 -0.132,0.247 -0.03,0.095 -0.043,0.205 -0.035,0.334 0.007,0.167 0.046,0.312 0.117,0.437 0.07,0.124 0.158,0.227 0.264,0.312 0.106,0.083 0.224,0.147 0.356,0.188 0.129,0.041 0.261,0.063 0.394,0.063 0.148,0 0.285,-0.023 0.414,-0.065 C -0.054,0.65 0.058,0.585 0.155,0.497 0.248,0.408 0.32,0.294 0.37,0.156 0.42,0.018 0.437,-0.148 0.421,-0.341 H 0.026 C 0.036,-0.206 0.027,-0.092 0,0 Z"/>
				</g>
				<g transform="translate(80.6289,30.2988)" id="g236">
					<path id="path238" style="fill:#ffffff;fill-opacity:1;fill-rule:nonzero;stroke:none" d="M 0,0 -0.717,-3.06 H -1.111 L -0.395,0 h -0.997 l 0.091,0.385 H 1.093 L 0.998,0 Z"/>
				</g>
				<g transform="translate(80.6289,30.2988)" id="g240">
					<path id="path242" style="fill:none;stroke:#ffffff;stroke-width:0.125;stroke-linecap:butt;stroke-linejoin:miter;stroke-miterlimit:4;stroke-dasharray:none;stroke-opacity:1" d="M 0,0 -0.717,-3.06 H -1.111 L -0.395,0 h -0.997 l 0.091,0.385 H 1.093 L 0.998,0 Z"/>
				</g>
				<g transform="translate(84.4053,30.6836)" id="g244">
					<path id="path246" style="fill:#ffffff;fill-opacity:1;fill-rule:nonzero;stroke:none" d="m 0,0 -0.086,-0.385 h -1.65 l -0.257,-1.094 h 1.538 l -0.087,-0.387 h -1.542 l -0.278,-1.193 h 1.671 L -0.786,-3.444 H -2.853 L -2.044,0 Z"/>
				</g>
				<g transform="translate(84.4053,30.6836)" id="g248">
					<path id="path250" style="fill:none;stroke:#ffffff;stroke-width:0.125;stroke-linecap:butt;stroke-linejoin:miter;stroke-miterlimit:4;stroke-dasharray:none;stroke-opacity:1" d="m 0,0 -0.086,-0.385 h -1.65 l -0.257,-1.094 h 1.538 l -0.087,-0.387 h -1.542 l -0.278,-1.193 h 1.671 L -0.786,-3.444 H -2.853 L -2.044,0 Z"/>
				</g>
				<g transform="translate(85.7559,30.6836)" id="g252">
					<path id="path254" style="fill:#ffffff;fill-opacity:1;fill-rule:nonzero;stroke:none" d="M 0,0 0.24,-2.962 H 0.247 L 1.87,0 H 2.417 L 1.61,-3.444 H 1.233 l 0.764,3.015 H 1.988 L 0.319,-3.444 h -0.378 l -0.229,3.015 H -0.295 L -0.974,-3.444 H -1.353 L -0.548,0 Z"/>
				</g>
				<g transform="translate(85.7559,30.6836)" id="g256">
					<path id="path258" style="fill:none;stroke:#ffffff;stroke-width:0.125;stroke-linecap:butt;stroke-linejoin:miter;stroke-miterlimit:4;stroke-dasharray:none;stroke-opacity:1" d="M 0,0 0.24,-2.962 H 0.247 L 1.87,0 H 2.417 L 1.61,-3.444 H 1.233 l 0.764,3.015 H 1.988 L 0.319,-3.444 h -0.378 l -0.229,3.015 H -0.295 L -0.974,-3.444 H -1.353 L -0.548,0 Z"/>
				</g>
				<g transform="translate(90.5586,30.0068)" id="g260">
					<path id="path262" style="fill:#ffffff;fill-opacity:1;fill-rule:nonzero;stroke:none" d="m 0,0 c -0.026,0.091 -0.069,0.165 -0.126,0.221 -0.056,0.057 -0.127,0.096 -0.211,0.118 -0.084,0.024 -0.179,0.035 -0.281,0.035 -0.072,0 -0.15,-0.01 -0.23,-0.031 C -0.929,0.321 -1.006,0.288 -1.075,0.243 -1.146,0.198 -1.206,0.14 -1.253,0.069 c -0.048,-0.071 -0.075,-0.158 -0.08,-0.259 -0.004,-0.085 0.005,-0.157 0.025,-0.216 0.023,-0.06 0.055,-0.11 0.095,-0.155 0.04,-0.043 0.09,-0.079 0.148,-0.108 0.058,-0.029 0.12,-0.054 0.185,-0.078 l 0.393,-0.125 c 0.089,-0.029 0.176,-0.065 0.259,-0.108 0.085,-0.043 0.156,-0.1 0.22,-0.168 0.063,-0.071 0.112,-0.159 0.147,-0.264 0.034,-0.106 0.048,-0.235 0.039,-0.391 -0.009,-0.18 -0.053,-0.335 -0.131,-0.466 -0.076,-0.128 -0.174,-0.238 -0.288,-0.322 -0.115,-0.086 -0.242,-0.15 -0.382,-0.192 -0.14,-0.041 -0.275,-0.062 -0.408,-0.062 -0.179,0 -0.34,0.025 -0.488,0.07 -0.146,0.046 -0.269,0.118 -0.367,0.214 -0.1,0.098 -0.172,0.223 -0.218,0.374 -0.046,0.152 -0.057,0.337 -0.032,0.548 h 0.394 c -0.013,-0.154 -0.005,-0.285 0.026,-0.39 0.031,-0.107 0.079,-0.19 0.148,-0.256 0.066,-0.066 0.148,-0.111 0.247,-0.138 0.097,-0.028 0.208,-0.04 0.326,-0.04 0.092,0 0.183,0.012 0.274,0.036 0.092,0.028 0.174,0.066 0.244,0.119 0.074,0.053 0.133,0.121 0.18,0.204 0.048,0.086 0.073,0.187 0.081,0.301 0.004,0.086 -0.007,0.161 -0.03,0.225 -0.025,0.063 -0.061,0.115 -0.106,0.159 -0.047,0.043 -0.101,0.079 -0.164,0.11 -0.062,0.028 -0.128,0.053 -0.198,0.075 l -0.396,0.127 c -0.086,0.028 -0.171,0.066 -0.248,0.112 -0.078,0.047 -0.145,0.105 -0.203,0.174 -0.058,0.069 -0.102,0.152 -0.133,0.247 -0.031,0.095 -0.044,0.205 -0.036,0.334 0.009,0.167 0.048,0.312 0.119,0.437 0.07,0.124 0.158,0.227 0.262,0.312 0.106,0.083 0.224,0.147 0.356,0.188 0.131,0.041 0.263,0.063 0.394,0.063 0.148,0 0.286,-0.023 0.416,-0.065 C -0.055,0.65 0.059,0.585 0.153,0.497 0.248,0.408 0.32,0.294 0.372,0.156 0.42,0.018 0.436,-0.148 0.421,-0.341 H 0.025 C 0.036,-0.206 0.027,-0.092 0,0"/>
				</g>
				<g transform="translate(90.5586,30.0068)" id="g264">
					<path id="path266" style="fill:none;stroke:#ffffff;stroke-width:0.125;stroke-linecap:butt;stroke-linejoin:miter;stroke-miterlimit:4;stroke-dasharray:none;stroke-opacity:1" d="m 0,0 c -0.026,0.091 -0.069,0.165 -0.126,0.221 -0.056,0.057 -0.127,0.096 -0.211,0.118 -0.084,0.024 -0.179,0.035 -0.281,0.035 -0.072,0 -0.15,-0.01 -0.23,-0.031 C -0.929,0.321 -1.006,0.288 -1.075,0.243 -1.146,0.198 -1.206,0.14 -1.253,0.069 c -0.048,-0.071 -0.075,-0.158 -0.08,-0.259 -0.004,-0.085 0.005,-0.157 0.025,-0.216 0.023,-0.06 0.055,-0.11 0.095,-0.155 0.04,-0.043 0.09,-0.079 0.148,-0.108 0.058,-0.029 0.12,-0.054 0.185,-0.078 l 0.393,-0.125 c 0.089,-0.029 0.176,-0.065 0.259,-0.108 0.085,-0.043 0.156,-0.1 0.22,-0.168 0.063,-0.071 0.112,-0.159 0.147,-0.264 0.034,-0.106 0.048,-0.235 0.039,-0.391 -0.009,-0.18 -0.053,-0.335 -0.131,-0.466 -0.076,-0.128 -0.174,-0.238 -0.288,-0.322 -0.115,-0.086 -0.242,-0.15 -0.382,-0.192 -0.14,-0.041 -0.275,-0.062 -0.408,-0.062 -0.179,0 -0.34,0.025 -0.488,0.07 -0.146,0.046 -0.269,0.118 -0.367,0.214 -0.1,0.098 -0.172,0.223 -0.218,0.374 -0.046,0.152 -0.057,0.337 -0.032,0.548 h 0.394 c -0.013,-0.154 -0.005,-0.285 0.026,-0.39 0.031,-0.107 0.079,-0.19 0.148,-0.256 0.066,-0.066 0.148,-0.111 0.247,-0.138 0.097,-0.028 0.208,-0.04 0.326,-0.04 0.092,0 0.183,0.012 0.274,0.036 0.092,0.028 0.174,0.066 0.244,0.119 0.074,0.053 0.133,0.121 0.18,0.204 0.048,0.086 0.073,0.187 0.081,0.301 0.004,0.086 -0.007,0.161 -0.03,0.225 -0.025,0.063 -0.061,0.115 -0.106,0.159 -0.047,0.043 -0.101,0.079 -0.164,0.11 -0.062,0.028 -0.128,0.053 -0.198,0.075 l -0.396,0.127 c -0.086,0.028 -0.171,0.066 -0.248,0.112 -0.078,0.047 -0.145,0.105 -0.203,0.174 -0.058,0.069 -0.102,0.152 -0.133,0.247 -0.031,0.095 -0.044,0.205 -0.036,0.334 0.009,0.167 0.048,0.312 0.119,0.437 0.07,0.124 0.158,0.227 0.262,0.312 0.106,0.083 0.224,0.147 0.356,0.188 0.131,0.041 0.263,0.063 0.394,0.063 0.148,0 0.286,-0.023 0.416,-0.065 C -0.055,0.65 0.059,0.585 0.153,0.497 0.248,0.408 0.32,0.294 0.372,0.156 0.42,0.018 0.436,-0.148 0.421,-0.341 H 0.025 C 0.036,-0.206 0.027,-0.092 0,0 Z"/>
				</g>
			</g>
		</g>
	</g>
</svg>