<?xml version="1.0" ?>
<svg xmlns="http://www.w3.org/2000/svg" viewBox="0 0 175 62.092">
	<g id="MWT-logo_horz-rev" transform="translate(-0.003 3.026)">
		<path id="Path_131" d="M128.741,39.5V26.965h-.17l-3,12.538H121.14l-2.748-12.587H118.2V39.5h-4.8V21.87h7.789l2.268,10.945h.195l2.213-10.945h7.771V39.5Z" transform="translate(-44.446 -9.758)" fill="#2b0a33"/>
		<path id="Path_132" d="M153.476,33c-2.2,0-3.387-.924-3.387-3.162V26.747H148.8V24.242h1.289V21.658l3.9-.438v3.04H156.3v2.505h-2.311v2.681c0,.608.268.851.827.851a3.32,3.32,0,0,0,1.386-.365l.462,2.359A7.047,7.047,0,0,1,153.476,33Z" transform="translate(-58.321 -9.503)" fill="#2b0a33"/>
		<path id="Path_133" d="M168.425,34.643V29.408c0-.608-.292-.705-.608-.705a1.076,1.076,0,0,0-.705.243v5.7H163.22V26.076h3.454l.195.754a3.241,3.241,0,0,1,2.487-.924c2.067,0,2.992.876,2.992,2.846v5.892Z" transform="translate(-63.973 -11.337)" fill="#2b0a33"/>
		<path id="Path_134" d="M199.005,29.491h-.158L197.023,39.5H189.9l-3.7-17.633h5.472l1.97,12.295h.146l2.432-12.295h5.527l2.572,12.24h.195L206.2,21.86h5.333l-3.825,17.633h-6.749Z" transform="translate(-72.98 -9.754)" fill="#2b0a33"/>
		<path id="Path_135" d="M226.2,36.029c0-4.579,2.925-6.749,6.506-6.749,4.159,0,5.941,2.365,5.941,6.214a12.761,12.761,0,0,1-.049,1.362h-6.993c0,1.532.316,2.213,1.514,2.213a1.478,1.478,0,0,0,1.508-1.386l4.019,1c-.413,2.268-2.244,4.019-5.819,4.019C227.9,42.7,226.2,39.483,226.2,36.029Zm6.312-3.435c-.565,0-.906.341-.906,1.7h1.824C233.411,32.758,232.974,32.594,232.512,32.594Z" transform="translate(-88.659 -12.663)" fill="#2b0a33"/>
		<path id="Path_136" d="M259.951,32.428l-3.9,1.386a2.171,2.171,0,0,0-1.824-1.362c-.535,0-.9.195-.9.608,0,.657,1.094.8,2.311.949,1.946.243,4.554.754,4.554,3.922,0,3.387-3.071,4.749-6.305,4.749-3.648,0-5.333-1.362-5.819-3.04l4.013-1.581a2.013,2.013,0,0,0,1.976,1.459c.949,0,1.216-.243,1.216-.608,0-.657-1.022-.827-2.189-1.022-1.976-.341-4.627-.851-4.627-4.116,0-3.04,2.724-4.481,5.892-4.481C257.148,29.284,259.1,30.36,259.951,32.428Z" transform="translate(-97.231 -12.666)" fill="#2b0a33"/>
		<path id="Path_137" d="M275.477,40c-2.967,0-4.6-1.338-4.6-4.6V30.335H269.05V26.851h1.824V23.008l5.138-.608v4.475h3.29v3.484h-3.29v4.506c0,.949.341,1.362,1.216,1.362a4.925,4.925,0,0,0,2.019-.535l.608,3.265A8.987,8.987,0,0,1,275.477,40Z" transform="translate(-105.454 -9.966)" fill="#2b0a33"/>
		<rect id="Rectangle_35" width="18.023" height="3.49" transform="translate(90.6 26.255)" fill="#2b0a33"/>
		<path id="Path_138" d="M116.241,58.334H113.62V57.16h6.628v1.174h-2.6v7.522h-1.411Z" transform="translate(-44.533 -23.59)" fill="#e31c44"/>
		<path id="Path_139" d="M134.222,64.675v1.18H128.75v-8.7h5.29v1.174h-3.879v2.572h3.648v1.167h-3.648v2.6Z" transform="translate(-50.463 -23.59)" fill="#e31c44"/>
		<path id="Path_140" d="M141.46,61.527c0-2.864,1.532-4.627,4.135-4.627a3,3,0,0,1,3.332,3.04l-1.307.122c-.146-1.313-.736-1.946-2.037-1.946-1.66,0-2.669,1.04-2.669,3.314s.918,3.277,2.548,3.277a1.964,1.964,0,0,0,2.159-1.727l1.259.237a3.218,3.218,0,0,1-3.49,2.681C142.573,65.9,141.46,64.154,141.46,61.527Z" transform="translate(-55.445 -23.488)" fill="#e31c44"/>
		<path id="Path_141" d="M163.692,65.855V62.061H159.8v3.794H158.39v-8.7H159.8v3.648h3.892V57.16H165.1v8.7Z" transform="translate(-62.08 -23.59)" fill="#e31c44"/>
		<path id="Path_142" d="M176.326,59.021v6.834H175v-8.7h1.824l3.831,6.8v-6.8h1.289v8.7h-1.666Z" transform="translate(-68.591 -23.59)" fill="#e31c44"/>
		<path id="Path_143" d="M191.24,61.43c0-2.6,1.441-4.53,4.165-4.53s3.928,1.934,3.928,4.348c0,2.821-1.362,4.652-4.1,4.652S191.24,64.026,191.24,61.43Zm6.646-.061c0-2.213-.979-3.241-2.511-3.241s-2.669,1.052-2.669,3.277,1.022,3.29,2.584,3.29S197.886,63.71,197.886,61.369Z" transform="translate(-74.956 -23.488)" fill="#e31c44"/>
		<path id="Path_144" d="M214.708,64.663v1.216H209.43V57.16h1.411v7.5Z" transform="translate(-82.086 -23.59)" fill="#e31c44"/>
		<path id="Path_145" d="M221.45,61.43c0-2.6,1.441-4.53,4.171-4.53s3.922,1.934,3.922,4.348c0,2.821-1.362,4.652-4.1,4.652S221.45,64.026,221.45,61.43Zm6.646-.061c0-2.213-.979-3.241-2.511-3.241s-2.669,1.052-2.669,3.277,1.028,3.29,2.584,3.29S228.1,63.71,228.1,61.369Z" transform="translate(-86.797 -23.488)" fill="#e31c44"/>
		<path id="Path_146" d="M242.651,65.9c-2.621,0-3.721-1.824-3.721-4.372,0-2.894,1.508-4.627,4.153-4.627,1.861,0,3.168.839,3.326,2.967l-1.319.146a1.85,1.85,0,0,0-2.043-1.921c-1.727,0-2.657,1.216-2.657,3.3,0,2.432.979,3.326,2.572,3.326a1.907,1.907,0,0,0,2.116-1.861v-.565h-2.043V61.217h3.411v4.518h-1.04l-.17-1.131A2.769,2.769,0,0,1,242.651,65.9Z" transform="translate(-93.648 -23.488)" fill="#e31c44"/>
		<path id="Path_147" d="M256.68,65.855v-8.7h1.411v8.7Z" transform="translate(-100.605 -23.59)" fill="#e31c44"/>
		<path id="Path_148" d="M270.032,64.675v1.18H264.56v-8.7h5.29v1.174h-3.873v2.572h3.648v1.167h-3.648v2.6Z" transform="translate(-103.694 -23.59)" fill="#e31c44"/>
		<path id="Path_149" d="M278.975,59.217c0,.936.93,1.216,1.958,1.526,1.283.371,2.718.784,2.718,2.523,0,1.885-1.52,2.633-3.186,2.633s-3.071-.608-3.265-2.584l1.307-.195a1.78,1.78,0,0,0,1.982,1.66c.87,0,1.751-.286,1.751-1.319s-.918-1.216-1.946-1.514c-1.3-.347-2.73-.736-2.73-2.56,0-1.575,1.319-2.487,3.04-2.487,1.532,0,2.8.565,2.967,2.5l-1.3.158a1.507,1.507,0,0,0-1.678-1.514C279.377,58.043,278.975,58.523,278.975,59.217Z" transform="translate(-108.648 -23.488)" fill="#e31c44"/>
		<path id="Path_150" d="M80.743,43.4l-2.487-4.3a8.215,8.215,0,0,0-4.116,7.12h4.968A1.879,1.879,0,0,0,80.743,43.4Z" transform="translate(-29.058 -16.512)" fill="#2b0a33"/>
		<path id="Path_151" d="M11.411,23.32,8,29.267a12.441,12.441,0,0,1,6.2,10.769h6.865A19.318,19.318,0,0,0,11.411,23.32Z" transform="translate(-3.134 -10.327)" fill="#2b0a33"/>
		<path id="Path_152" d="M59.619,13.656,57.187,9.4a1.879,1.879,0,0,0-2.675-.608A30.791,30.791,0,0,0,46.4,16.7,34.422,34.422,0,0,1,49.805,24.5a23.823,23.823,0,0,1,9.814-10.848Z" transform="translate(-18.185 -4.506)" fill="#2b0a33"/>
		<path id="Path_153" d="M22.424,8.8a1.891,1.891,0,0,0-2.365.219,2.505,2.505,0,0,0-.17.188,1.714,1.714,0,0,0-.146.219L17.31,13.679a23.75,23.75,0,0,1,11.857,20.54h6.865a30.451,30.451,0,0,0-3.283-13.784A30.8,30.8,0,0,0,22.424,8.8Z" transform="translate(-6.783 -4.51)" fill="#2b0a33"/>
		<path id="Path_154" d="M2.737,39.1.257,43.4a1.879,1.879,0,0,0,1.63,2.821H6.854A8.215,8.215,0,0,0,2.737,39.1Z" transform="translate(0 -16.511)" fill="#2b0a33"/>
		<path id="Path_155" d="M8,67.489A12.435,12.435,0,0,0,14.2,56.72h6.865a19.312,19.312,0,0,1-9.656,16.715Z" transform="translate(-3.134 -23.418)" fill="#414042"/>
		<path id="Path_156" d="M69.005,67.489A12.428,12.428,0,0,1,62.779,56.72H55.92a19.312,19.312,0,0,0,9.656,16.715Z" transform="translate(-21.917 -23.418)" fill="#414042"/>
		<path id="Path_157" d="M21.067,56.72H14.2A12.435,12.435,0,0,1,8,67.489l3.429,5.947A19.312,19.312,0,0,0,21.067,56.72Z" transform="translate(-3.134 -23.418)" fill="#e31c44"/>
		<path id="Path_158" d="M17.27,83.55,19.7,87.806a1.885,1.885,0,0,0,2.681.608,30.883,30.883,0,0,0,8.1-7.9,33.929,33.929,0,0,1-3.405-7.819A23.872,23.872,0,0,1,17.27,83.55Z" transform="translate(-6.768 -29.677)" fill="#e31c44"/>
		<path id="Path_159" d="M1.886,56.72a1.879,1.879,0,0,0-1.63,2.821l2.481,4.3a8.215,8.215,0,0,0,4.116-7.12Z" transform="translate(0 -23.418)" fill="#e31c44"/>
		<path id="Path_160" d="M62.779,56.72H55.92a19.312,19.312,0,0,0,9.656,16.715l3.429-5.947A12.428,12.428,0,0,1,62.779,56.72Z" transform="translate(-21.917 -23.418)" fill="#e31c44"/>
		<path id="Path_161" d="M44.165,56.72H37.3A30.451,30.451,0,0,0,40.583,70.5,30.822,30.822,0,0,0,50.92,82.167a1.824,1.824,0,0,0,1.04.316A1.879,1.879,0,0,0,53.6,81.54l2.432-4.256A23.775,23.775,0,0,1,44.165,56.72Z" transform="translate(-14.619 -23.418)" fill="#e31c44"/>
		<path id="Path_162" d="M79.108,56.72H74.14a8.215,8.215,0,0,0,4.117,7.121l2.486-4.3a1.879,1.879,0,0,0-1.636-2.821Z" transform="translate(-29.058 -23.418)" fill="#e31c44"/>
		<circle id="Ellipse_1" cx="4.445" cy="4.445" r="4.445" transform="translate(19.488 3.26) rotate(-45)" fill="#e31c44"/>
		<path id="Path_163" d="M65.576,23.32A19.318,19.318,0,0,0,55.92,40.035h6.859a12.435,12.435,0,0,1,6.226-10.769Z" transform="translate(-21.917 -10.327)" fill="#2b0a33"/>
	</g>
</svg>