<?xml version="1.0" ?>
<!-- Created with Inkscape (http://www.inkscape.org/) -->
<svg xmlns="http://www.w3.org/2000/svg" xmlns:sodipodi="http://sodipodi.sourceforge.net/DTD/sodipodi-0.dtd" xmlns:inkscape="http://www.inkscape.org/namespaces/inkscape" viewBox="0 0 492.76218 165.1756" inkscape:version="0.92.3 (2405546, 2018-03-11)" sodipodi:docname="mxnet.svg">
	<sodipodi:namedview id="base" pagecolor="#ffffff" bordercolor="#666666" borderopacity="1.0" inkscape:pageopacity="0.0" inkscape:pageshadow="2" inkscape:zoom="0.7" inkscape:cx="912.85713" inkscape:cy="805.14283" inkscape:document-units="mm" inkscape:current-layer="g3429" showgrid="false" fit-margin-top="0" fit-margin-left="0" fit-margin-right="0" fit-margin-bottom="0" inkscape:window-width="3726" inkscape:window-height="2049" inkscape:window-x="114" inkscape:window-y="55" inkscape:window-maximized="1"/>
	<g inkscape:label="Layer 1" inkscape:groupmode="layer" id="layer1" transform="translate(361.34523,-196.68511)">
		<g id="g3429" transform="translate(21.166667,-141.74107)">
			<circle style="opacity:1;fill:#010101;fill-opacity:1;stroke:none;stroke-width:5.50377846;stroke-linecap:round;stroke-linejoin:miter;stroke-miterlimit:4;stroke-dasharray:none;stroke-opacity:1" id="path3452" cx="-299.9241" cy="421.01398" r="82.587799"/>
			<path style="fill:#020303;stroke-width:0.26458332" d="M 13.13448,454.36058 C 7.81908,453.67694 1.66048,451.75848 -1.65723,449.75284 C -10.47018,444.42517 -15.37051,435.72582 -16.51333,423.37936 C -17.69022,410.6646 -14.10467,399.06124 -6.71535,391.67195 C -2.19803,387.15462 3.49383,384.18528 10.62094,382.62792 C 14.11309,381.86484 22.29443,381.67476 26.30139,382.26362 C 31.2137,382.98553 35.7119,384.4619 39.19594,386.4958 C 41.67469,387.94283 46.23875,392.50812 47.69277,394.99489 C 50.73357,400.19552 52.82198,408.4268 52.82198,415.2112 C 52.82198,417.10035 52.74148,417.58151 52.40346,417.71119 C 52.17327,417.79949 40.62421,417.87179 26.73888,417.87179 L 1.49281,417.87179 L 1.49281,419.97491 C 1.49281,425.14516 2.89042,431.84738 4.77743,435.72637 C 7.38963,441.09609 10.83562,444.13632 15.5768,445.25415 C 17.78284,445.77426 24.02732,445.77383 26.49594,445.25335 C 30.60402,444.38728 33.97613,442.58049 36.82448,439.71927 C 38.55443,437.98148 39.1803,437.11455 40.18119,435.06966 C 40.85784,433.68722 41.55689,432.05011 41.73464,431.43164 C 41.98901,430.54658 42.182,430.30716 42.64102,430.30716 C 43.5912,430.30716 49.7407,431.61797 49.99811,431.87537 C 50.28251,432.15978 49.40089,434.92971 48.14616,437.69392 C 46.14972,442.09217 42.0564,446.96948 38.21904,449.5224 C 34.894,451.7345 30.35613,453.47912 25.91118,454.25425 C 23.4454,454.68425 16.12485,454.74515 13.13448,454.36054 L 13.13448,454.36058 M 36.14976,408.54523 C 36.14076,403.1336 33.93822,397.39127 30.58036,394.02751 C 29.2956,392.74049 28.21637,391.97094 26.5111,391.12595 C 24.19335,389.97746 24.18586,389.97582 20.7653,389.86925 C 18.70356,389.80505 16.6927,389.88995 15.7134,390.0826 C 13.67346,390.48393 10.52175,392.05328 8.5814,393.63388 C 5.03868,396.51976 2.37679,402.55793 1.83283,408.94211 L 1.68064,410.72804 L 18.91695,410.72804 L 36.15323,410.72804 L 36.15023,408.54523 L 36.14976,408.54523 M 88.45068,453.06319 C 84.63114,452.37911 81.46556,450.99432 79.47446,449.13651 C 77.56468,447.35454 76.47414,445.59841 75.50399,442.74263 L 74.65011,440.22908 L 74.57581,416.74731 L 74.50151,393.26554 L 69.00635,393.26554 C 65.08514,393.26554 63.42028,393.17464 63.19372,392.94804 C 62.74591,392.50023 62.75742,387.07399 63.20692,386.71959 C 63.38882,386.57618 64.31155,386.39023 65.25744,386.30637 C 72.23254,385.68796 76.64246,383.12485 78.8961,378.37934 C 80.00941,376.03498 80.48717,373.59257 80.71977,369.05617 C 80.82994,366.90706 81.01851,365.49242 81.22237,365.28565 C 81.72563,364.77516 91.85774,363.99485 92.37789,364.42652 C 92.71697,364.70796 92.77406,366.19929 92.77406,374.77711 L 92.77406,384.79888 L 101.2083,384.79888 C 108.3683,384.79888 109.69214,384.85858 109.9707,385.19424 C 110.22914,385.50565 110.23568,386.47226 110.0015,389.74665 C 109.83799,392.03302 109.59645,394.01147 109.46472,394.14319 C 109.32179,394.28612 108.01565,394.19959 106.22516,393.92871 C 104.57511,393.67902 100.87116,393.41131 97.99417,393.33378 L 92.76325,393.19281 L 92.83485,417.5047 L 92.90645,441.81658 L 93.52843,442.817 C 94.47184,444.33447 95.74364,444.85929 98.47746,444.85929 C 101.18104,444.85929 102.06324,444.46515 102.91901,442.87492 C 103.43182,441.92197 103.49736,441.32924 103.57721,436.92249 C 103.62901,434.06125 103.78012,431.89074 103.94093,431.69697 C 104.3132,431.24842 109.47247,431.2364 109.91911,431.68307 C 110.40841,432.17238 110.33843,439.88344 109.82161,442.42308 C 108.75397,447.66956 105.98957,450.76739 100.88555,452.43694 C 98.9472,453.07099 98.26888,453.15056 94.22935,453.21776 C 91.75552,453.25896 89.15518,453.18936 88.45081,453.06322 L 88.45068,453.06319 M -51.92889,452.3338 C -61.23796,452.2842 -65.3734,452.17374 -65.62108,451.96818 C -65.88521,451.74896 -65.97594,450.776 -65.97594,448.16249 C -65.97594,444.20973 -66.04164,444.33013 -63.88565,444.33013 C -60.9578,444.33013 -58.09125,442.68584 -57.49268,440.66305 C -57.2967,440.00068 -57.23987,434.04019 -57.31078,421.57596 C -57.40118,405.68677 -57.46844,403.24747 -57.85654,401.79329 C -58.79065,398.29332 -60.37722,396.07653 -62.8366,394.83503 C -64.24138,394.12591 -64.60688,394.05963 -67.09288,394.0632 C -70.32407,394.0682 -72.44251,394.52161 -75.04001,395.76543 C -80.59451,398.42524 -85.27994,402.97248 -88.34151,408.67466 L -89.51502,410.86033 L -89.51902,425.81402 L -89.52302,440.7677 L -88.85164,441.75574 C -87.88099,443.18416 -85.95689,444.07773 -83.46676,444.2565 C -82.35932,444.336 -81.3044,444.51874 -81.1225,444.66257 C -80.66887,445.02127 -80.6571,451.49796 -81.1093,451.95013 C -81.56865,452.40946 -118.64422,452.40946 -119.10355,451.95013 C -119.54346,451.51022 -119.54346,445.08753 -119.10355,444.64763 C -118.92059,444.46466 -118.04426,444.33013 -117.03548,444.33013 C -112.56415,444.33013 -109.20824,442.87071 -108.32614,440.54259 C -108.13469,440.03731 -108.04394,432.89688 -108.04394,418.34084 L -108.04394,396.88391 L -108.68558,395.78901 C -109.81226,393.86649 -113.409,392.50894 -117.44991,392.48102 C -118.18479,392.47602 -118.92893,392.32892 -119.10355,392.15429 C -119.54247,391.71537 -119.54247,385.5553 -119.10355,385.11638 C -118.6455,384.65832 -90.2986,384.65832 -89.84056,385.11638 C -89.61259,385.34434 -89.52306,387.09781 -89.52306,391.33409 C -89.52306,394.5792 -89.43376,397.2329 -89.32462,397.23121 C -89.21548,397.22921 -87.80326,395.93766 -86.18637,394.36043 C -78.61015,386.97026 -70.24734,383.47596 -60.13676,383.47596 C -52.82931,383.47596 -47.65883,385.17543 -43.95961,388.79318 C -41.94525,390.76316 -40.71706,393.02262 -39.73077,396.57284 C -39.15226,398.65529 -39.14043,399.02738 -38.99896,419.59158 L -38.85518,440.49367 L -38.2426,441.35254 C -36.95521,443.15744 -33.68292,444.31608 -29.84612,444.32553 C -28.75408,444.32853 -27.84918,444.46175 -27.66331,444.64763 C -27.44868,444.86226 -27.34581,446.08813 -27.34581,448.43117 C -27.34581,450.7742 -27.44868,452.00008 -27.66331,452.21471 C -27.89358,452.44497 -29.4384,452.51472 -33.28571,452.46857 C -36.2034,452.43357 -44.59241,452.37287 -51.92793,452.3338 L -51.92889,452.3338 M -214.88352,451.95013 C -215.09686,451.73678 -215.20102,450.53902 -215.20102,448.29888 C -215.20102,446.05874 -215.09686,444.86097 -214.88352,444.64763 C -214.70889,444.473 -213.90522,444.32837 -213.09758,444.32622 C -209.44,444.31622 -205.4889,442.60019 -201.97185,439.4934 C -200.73492,438.40076 -195.45465,433.22212 -190.2379,427.98532 C -182.02253,419.73835 -180.78905,418.39766 -181.0229,417.96938 C -181.55652,416.9921 -199.65888,396.81539 -200.86771,395.85056 C -203.42714,393.80774 -206.53622,392.73638 -209.90503,392.73638 C -210.72232,392.73638 -211.53389,392.5935 -211.70852,392.41888 C -211.92186,392.20553 -212.02602,391.00777 -212.02602,388.76763 C -212.02602,386.52749 -211.92186,385.32972 -211.70852,385.11638 C -211.24899,384.65685 -172.32179,384.65685 -171.86227,385.11638 C -171.64892,385.32972 -171.54477,386.52749 -171.54477,388.76763 C -171.54477,391.00777 -171.64892,392.20553 -171.86227,392.41888 C -172.07497,392.63159 -173.2596,392.73638 -175.45153,392.73638 C -177.25101,392.73638 -178.9536,392.85963 -179.23508,393.01027 C -179.83152,393.32948 -179.92793,394.90173 -179.40674,395.80984 C -178.5994,397.21654 -167.97071,409.40513 -167.55139,409.40513 C -167.10898,409.40513 -156.29854,398.19519 -155.34125,396.74376 C -155.06689,396.32779 -154.87879,395.53639 -154.87776,394.79369 C -154.87576,393.00796 -155.49501,392.73638 -159.57246,392.73638 C -161.65819,392.73638 -162.81396,392.6301 -163.02518,392.41888 C -163.46509,391.97897 -163.46509,385.55628 -163.02518,385.11638 C -162.56694,384.65813 -133.16218,384.65813 -132.70393,385.11638 C -132.49059,385.32972 -132.38643,386.52749 -132.38643,388.76763 C -132.38643,391.00777 -132.49059,392.20553 -132.70393,392.41888 C -132.87856,392.5935 -133.5178,392.73638 -134.12448,392.73638 C -136.41692,392.73638 -139.90535,393.52685 -141.91143,394.50089 C -143.60863,395.32495 -144.54673,396.09875 -148.39372,399.84785 C -158.78383,409.97357 -163.34238,414.58311 -163.33761,414.95889 C -163.33061,415.54524 -141.36742,439.75548 -139.56857,441.16028 C -137.14459,443.05327 -134.62602,444.09042 -132.04485,444.25854 C -130.85028,444.33634 -129.72406,444.51792 -129.54216,444.66205 C -129.08853,445.02146 -129.07678,451.49797 -129.52896,451.95013 C -129.9887,452.40986 -171.03214,452.40986 -171.49188,451.95013 C -171.94289,451.49912 -171.9312,445.28837 -171.47868,444.91799 C -171.29497,444.76765 -169.20723,444.60317 -166.78232,444.54801 C -161.61744,444.43052 -161.22562,444.29786 -161.22706,442.66717 C -161.22759,442.03324 -161.44331,441.20947 -161.72687,440.75825 C -162.32369,439.80856 -175.3576,424.49341 -175.96033,424.03361 C -176.24374,423.8174 -176.53375,423.79519 -176.85167,423.96531 C -177.448,424.28446 -191.58505,439.05531 -192.22945,440.03251 C -192.5366,440.49831 -192.70863,441.25331 -192.70975,442.1405 C -192.71275,444.16131 -192.26253,444.33446 -186.53166,444.51891 C -184.03697,444.59921 -181.84704,444.78273 -181.66514,444.92677 C -181.21241,445.28525 -181.20071,451.4989 -181.65194,451.95011 C -182.11066,452.40882 -214.42488,452.40882 -214.8836,451.95011 L -214.88352,451.95013" id="path3431" inkscape:connector-curvature="0" sodipodi:nodetypes="ccccssccscscsscccccscccccccccccsccccccccccccscccccccscscccccccccscccccccccccsscsccccccccccccscscsccccccsccsccsccccscscccsccscccscsccscsccsccsscsscscscscccccsccccccccccc"/>
			<path style="fill:#008bc5;fill-opacity:1;stroke-width:0.26458332" d="M -363.82802,454.31631 C -363.90142,454.12494 -363.92782,452.54654 -363.88652,450.80876 L -363.81152,447.64917 L -361.56257,447.46469 C -356.60864,447.05832 -353.86923,445.5552 -353.11181,442.82775 C -352.71598,441.40237 -352.72984,400.66676 -353.12661,399.23042 C -353.78227,396.85708 -356.54888,395.31609 -360.97893,394.85672 C -362.38108,394.71132 -363.62573,394.49493 -363.74482,394.37584 C -363.86391,394.25675 -363.92763,392.74047 -363.88642,391.00633 L -363.81152,387.85333 L -349.78861,387.85333 L -335.76569,387.85333 L -335.69499,394.53406 C -335.62859,400.8129 -335.59509,401.21479 -335.13871,401.21479 C -334.86181,401.21479 -334.13285,400.55258 -333.44254,399.67392 C -331.50351,397.20585 -328.52328,394.28996 -326.1139,392.50352 C -315.86807,384.90669 -301.16153,384.44215 -294.11106,391.49262 C -292.2004,393.40328 -290.70116,396.18316 -290.0014,399.11273 C -289.28094,402.12896 -289.18049,402.14491 -287.06379,399.57918 C -284.74632,396.77009 -282.63388,394.73599 -279.80631,392.59082 C -269.70115,384.92444 -254.79694,384.37181 -247.77075,391.403 C -245.80256,393.37258 -244.67987,395.41854 -243.76593,398.70125 C -243.18535,400.7866 -243.17456,401.12912 -243.03678,421.85229 C -242.90959,440.98259 -242.85624,442.96095 -242.44743,443.70729 C -241.26191,445.87158 -238.56309,447.09241 -234.16568,447.45358 L -231.78443,447.64917 L -231.78443,451.08875 L -231.78443,454.52833 L -250.30527,454.52833 L -268.8261,454.52833 L -268.8261,451.08875 L -268.8261,447.64917 L -267.15212,447.46454 C -263.88933,447.10467 -261.93316,446.0972 -260.95997,444.27543 L -260.35943,443.15125 L -260.37443,424.76271 C -260.39083,404.62535 -260.44363,403.81826 -261.96429,400.42974 C -262.82765,398.50592 -264.55076,396.85656 -266.15106,396.42216 C -267.71653,395.99721 -271.67324,396.28546 -273.58602,396.96381 C -278.82215,398.82073 -284.08729,404.00244 -287.59203,410.74787 L -289.06669,413.58609 L -289.06669,428.31306 C -289.06669,442.40786 -289.04449,443.08359 -288.54913,444.05455 C -287.54655,446.01976 -285.58267,447.11681 -282.45211,447.46041 L -280.73232,447.64917 L -280.73232,451.08875 L -280.73232,454.52833 L -297.93024,454.52833 L -315.12815,454.52833 L -315.12815,451.08875 L -315.12815,447.64917 L -313.20919,447.45777 C -309.76797,447.11454 -307.46448,445.64255 -306.78736,443.35407 C -306.57843,442.64793 -306.52267,436.96004 -306.59605,423.83667 C -306.70881,403.66865 -306.72991,403.36995 -308.2629,400.23663 C -309.06951,398.58796 -310.85971,396.93006 -312.29892,396.49886 C -314.7687,395.7589 -318.59079,396.23431 -321.58696,397.65416 C -326.88788,400.16619 -331.26419,404.8443 -334.47519,411.43116 L -335.65059,413.84233 L -335.57579,428.49679 L -335.50099,443.15125 L -334.90045,444.27543 C -333.92726,446.0972 -331.97109,447.10467 -328.7083,447.46454 L -327.03432,447.64917 L -327.03432,451.08875 L -327.03432,454.52833 L -345.36432,454.59633 C -360.31592,454.65173 -363.71894,454.60033 -363.82785,454.31635 L -363.82802,454.31631" id="path3467-0" inkscape:connector-curvature="0"/>
		</g>
	</g>
</svg>