<?xml version="1.0" ?>
<svg xmlns="http://www.w3.org/2000/svg" viewBox="0 0 1414.67 216.59">
	<defs>
		<style>.cls-1{opacity:0.6;}.cls-2{fill:none;}.cls-3,.cls-6{fill:#fff;}.cls-4,.cls-6{opacity:0.6;}.cls-5{fill:#231f20;}.cls-7{fill:#ce1141;}</style>
	</defs>
	<g>
		<g>
			<g class="cls-1" name="mychart_outline">
				<path class="cls-2" d="M 167.08,143.91 C 168.08,143.78 169.08,143.68 170.08,143.6 C 172.95,143.33 176.0,143.12 179.4,142.96 L 179.51,142.96 Q 181.19,142.9 182.93,142.87 L 184.12,139.97 L 184.77,138.23 C 184.77,138.23 184.77,138.23 184.77,138.23 L 167.08,94.53 L 167.08,143.91"/>
				<path class="cls-2" d="M 247.27,94.28 L 229.45,138.19 C 228.98,139.44 227.95,142.14 226.45,145.83 C 230.36,146.25 234.3,146.7 238.18,147.18 C 250.85,148.77 263.83,150.61 277.75,152.79 C 275.69,151.1 273.68,149.31 271.75,147.4 A 79.62,79.62 0.0 0,1 247.27,94.28"/>
				<path class="cls-2" d="M 268.05,88.15 C 268.05,101.66 271.79,113.67 279.19,123.97 C 272.11,113.62 268.54,101.61 268.54,88.15 C 268.54,74.69 272.12,62.65 279.21,52.27 C 271.8,62.59 268.05,74.62 268.05,88.15"/>
				<path class="cls-2" d="M 146.08,42.79 L 145.62,41.65 L 146.08,41.65 L 146.08,39.36 L 144.89,40.85 L 144.31,72.21 C 144.31,72.93 144.31,73.63 144.31,74.3 L 144.31,148.23 L 146.1,148.23 L 146.08,42.79"/>
				<path class="cls-2" d="M 22.0,40.83 L 21.0,39.55 L 21.0,148.23 L 22.8,148.23 L 22.8,74.3 C 22.8,73.66 22.8,72.98 22.8,72.3 L 22.0,40.83"/>
				<path class="cls-2" d="M 38.48,61.4 L 41.73,65.81 C 42.5,66.87 43.23,67.81 43.88,68.62 L 44.03,68.79 L 83.25,119.0 L 123.14,68.66 C 123.8,67.85 124.53,66.89 125.32,65.81 L 128.49,61.45 L 83.66,117.87 L 38.48,61.4"/>
				<path class="cls-2" d="M 364.47,63.0 C 361.62,58.14 357.1,54.0 351.03,50.74 A 40.57,40.57 0.0 0,0 331.64,45.61 C 319.54,45.61 310.04,49.51 301.75,57.87 C 293.46,66.23 289.54,75.87 289.54,88.16 C 289.54,100.45 293.41,110.02 301.73,118.38 C 310.05,126.74 319.54,130.62 331.64,130.62 A 42.0,42.0 0.0 0,0 351.8,125.28 C 358.12,121.86 362.8,117.56 365.8,112.5 L 370.0,105.36 L 393.06,105.36 L 393.06,70.15 L 368.66,70.15 L 364.47,63.0"/>
				<path class="cls-2" d="M 414.06,94.31 A 49.07,49.07 0.0 0,1 418.94,76.87 L 414.06,81.0 L 414.06,94.31"/>
				<path class="cls-2" d="M 606.72,95.69 L 606.72,85.46 L 600.54,80.07 A 45.07,45.07 0.0 0,1 606.72,95.69"/>
				<path class="cls-2" d="M 639.7,97.21 A 47.84,47.84 0.0 0,1 645.0,79.38 L 639.74,84.09 L 639.7,97.21"/>
				<path class="cls-2" d="M 675.0,82.12 C 671.68,82.38 668.13,84.4 664.14,88.32 C 662.92,89.61 660.29,95.32 660.29,104.46 L 660.29,136.18 C 661.15,135.81 661.99,135.43 662.81,135.05 L 681.72,126.38 L 681.72,81.94 L 677.3,81.94 L 675.0,82.12"/>
				<path class="cls-2" d="M 606.72,125.56 L 606.72,115.46 A 45.16,45.16 0.0 0,1 600.78,130.71 L 606.72,125.56"/>
				<path class="cls-2" d="M 450.91,79.48 C 443.84,79.48 441.0,81.82 439.31,83.86 C 436.31,87.54 434.67,93.86 434.67,102.14 L 434.67,157.67 L 467.06,157.67 L 467.06,100.82 C 467.06,93.2 465.5,87.51 462.42,83.89 C 460.67,81.84 457.77,79.48 450.91,79.48"/>
				<path class="cls-2" d="M 561.33,79.48 A 23.55,23.55 0.0 0,0 543.44,86.91 C 538.39,92.08 536.0,98.0 536.0,105.66 C 536.0,113.32 538.34,119.21 543.38,124.34 A 23.62,23.62 0.0 0,0 561.29,131.75 C 568.65,131.75 574.17,129.46 579.2,124.32 C 584.23,119.18 586.6,113.19 586.6,105.57 C 586.6,97.95 584.29,92.0 579.25,86.89 A 23.59,23.59 0.0 0,0 561.33,79.48"/>
				<path class="cls-3" d="M 723.34,41.65 L 723.34,7.16 L 681.73,7.16 L 681.73,41.65 L 586.11,41.65 L 586.11,44.07 A 66.82,66.82 0.0 0,0 560.81,39.36 C 542.43,39.36 526.62,45.81 513.81,58.52 A 67.0,67.0 0.0 0,0 503.29,71.92 A 54.15,54.15 0.0 0,0 493.47,56.42 C 483.0,44.93 468.7,39.1 450.91,39.1 A 57.22,57.22 0.0 0,0 434.67,41.33 L 434.67,7.0 L 393.06,7.0 L 393.06,32.1 A 80.5,80.5 0.0 0,0 374.86,17.1 A 81.92,81.92 0.0 0,0 331.64,4.7 C 308.21,4.7 288.06,12.83 271.74,28.87 A 86.78,86.78 0.0 0,0 261.0,41.65 L 223.51,41.65 L 207.12,83.42 L 190.74,41.65 L 167.08,41.65 L 167.08,9.12 L 143.29,9.12 L 83.61,84.19 L 23.55,9.12 L 0.0,9.12 L 0.0,169.23 L 43.8,169.23 L 43.8,102.62 L 74.89,142.45 L 91.49,142.45 L 123.29,102.32 L 123.29,160.11 A 35.94,35.94 0.0 0,0 119.22,164.59 A 33.05,33.05 0.0 0,0 112.82,179.97 C 112.65,181.14 112.54,182.33 112.47,183.62 L 112.41,185.62 L 112.41,185.9 A 25.83,25.83 0.0 0,0 112.72,189.2 A 29.68,29.68 0.0 0,0 115.79,198.27 A 32.28,32.28 0.0 0,0 127.79,210.87 A 39.0,39.0 0.0 0,0 141.79,215.87 A 52.57,52.57 0.0 0,0 150.63,216.59 C 151.75,216.59 152.89,216.59 154.03,216.5 C 155.71,216.43 157.67,216.27 159.6,216.04 A 57.28,57.28 0.0 0,0 165.75,214.96 A 67.61,67.61 0.0 0,0 187.37,205.4 L 187.47,205.33 A 72.5,72.5 0.0 0,0 203.87,190.83 A 70.4,70.4 0.0 0,0 208.87,184.05 C 216.76,184.85 224.87,185.68 232.57,186.63 C 246.14,188.25 260.08,190.17 275.16,192.48 L 285.26,194.07 C 296.26,195.81 307.66,197.61 319.0,199.07 C 349.3,202.99 379.42,205.61 408.56,206.86 A 820.0,820.0 0.0 0,0 499.0,205.75 C 532.18,203.34 561.49,199.03 588.58,192.57 C 624.46,184.06 653.76,173.89 675.66,162.35 L 681.76,159.14 L 681.76,169.22 L 723.37,169.22 L 723.37,81.94 L 746.68,81.94 L 746.68,41.65 L 723.34,41.65 M 22.8,148.23 L 21.0,148.23 L 21.0,39.55 L 22.0,40.83 L 22.75,72.29 C 22.75,72.98 22.75,73.66 22.75,74.29 L 22.8,148.23 M 125.32,65.84 C 124.53,66.92 123.8,67.84 123.14,68.69 L 83.25,119.0 L 44.0,68.79 L 43.85,68.62 C 43.2,67.81 42.47,66.87 41.7,65.81 L 38.48,61.4 L 83.66,117.87 L 128.49,61.48 L 125.32,65.84 M 144.32,74.3 C 144.32,73.63 144.32,72.93 144.32,72.21 L 144.9,40.85 L 146.09,39.36 L 146.09,41.65 L 145.63,41.65 L 146.09,42.79 L 146.09,148.23 L 144.3,148.23 L 144.32,74.3 M 184.81,138.23 L 184.16,139.97 L 182.97,142.87 Q 181.23,142.87 179.55,142.96 L 179.44,142.96 C 176.04,143.12 172.99,143.33 170.12,143.6 C 169.12,143.68 168.12,143.78 167.12,143.91 L 167.12,94.53 L 184.83,138.18 C 184.83,138.18 184.78,138.21 184.78,138.23 L 184.81,138.23 M 238.23,147.23 C 234.35,146.75 230.41,146.3 226.5,145.88 C 227.98,142.19 229.01,139.49 229.5,138.24 L 247.32,94.33 A 79.62,79.62 0.0 0,0 271.8,147.45 C 273.75,149.36 275.8,151.15 277.8,152.84 C 263.85,150.61 250.87,148.77 238.2,147.18 L 238.23,147.23 M 279.23,124.02 C 271.83,113.72 268.09,101.71 268.09,88.2 C 268.09,74.69 271.84,62.64 279.25,52.32 C 272.16,62.7 268.58,74.72 268.58,88.2 C 268.58,101.68 272.11,113.62 279.19,124.0 L 279.23,124.02 M 393.1,105.4 L 370.0,105.4 L 365.8,112.54 C 362.8,117.6 358.12,121.9 351.8,125.32 A 42.0,42.0 0.0 0,1 331.64,130.66 C 319.54,130.66 310.03,126.77 301.73,118.42 C 293.43,110.07 289.54,100.42 289.54,88.2 C 289.54,75.98 293.42,66.31 301.75,57.91 C 310.08,49.51 319.54,45.6 331.64,45.6 A 40.57,40.57 0.0 0,1 351.0,50.73 C 357.1,54.0 361.62,58.13 364.47,63.0 L 368.66,70.16 L 393.06,70.16 L 393.1,105.4 M 414.1,94.4 L 414.1,81.0 L 418.98,76.86 A 49.07,49.07 0.0 0,0 414.06,94.31 L 414.1,94.4 M 467.1,157.76 L 434.67,157.76 L 434.67,102.14 C 434.67,93.86 436.27,87.54 439.31,83.86 C 441.0,81.86 443.84,79.48 450.91,79.48 C 457.77,79.48 460.67,81.84 462.42,83.89 C 465.5,87.51 467.06,93.2 467.06,100.82 L 467.1,157.76 M 579.28,124.41 C 574.28,129.55 568.73,131.84 561.37,131.84 A 23.62,23.62 0.0 0,1 543.46,124.43 C 538.46,119.3 536.08,113.36 536.08,105.75 C 536.08,98.14 538.43,92.17 543.48,87.0 A 25.31,25.31 0.0 0,1 579.29,87.0 C 584.29,92.13 586.68,98.07 586.68,105.68 C 586.68,113.29 584.29,119.15 579.24,124.32 L 579.28,124.41 M 606.76,125.65 L 600.82,130.8 A 45.16,45.16 0.0 0,0 606.76,115.55 L 606.76,125.65 M 606.76,95.78 A 45.07,45.07 0.0 0,0 600.58,80.16 L 606.76,85.55 L 606.76,95.78 M 639.76,97.3 L 639.76,84.09 L 645.0,79.38 A 47.84,47.84 0.0 0,0 639.7,97.21 L 639.76,97.3 M 681.76,126.47 L 662.85,135.14 C 662.03,135.52 661.19,135.9 660.33,136.27 L 660.33,104.46 C 660.33,95.36 662.96,89.61 664.18,88.32 C 668.18,84.4 671.72,82.38 675.04,82.12 L 677.34,81.94 L 681.76,81.94 L 681.76,126.47"/>
			</g>
			<g name="by_outline">
				<path class="cls-3" d="M 865.58,59.0 L 861.58,66.75 L 860.31,59.0 L 821.9,59.0 L 822.16,60.31 A 33.56,33.56 0.0 0,0 808.07,57.22 C 807.22,57.22 806.38,57.22 805.57,57.3 L 808.5,41.62 L 771.5,41.62 L 754.74,132.16 L 786.74,132.16 A 29.82,29.82 0.0 0,0 797.06,133.95 A 42.44,42.44 0.0 0,0 833.0,113.26 L 833.79,117.14 L 814.48,149.54 L 855.65,149.54 L 906.45,59.0 L 865.58,59.0"/>
			</g>
			<g name="by">
				<path class="cls-5" d="M 780.26,51.88 L 795.86,51.88 L 792.57,69.45 L 791.91,73.45 A 23.54,23.54 0.0 0,1 808.07,67.53 C 818.98,67.53 832.32,75.33 828.65,95.07 C 825.18,113.86 810.33,123.26 797.08,123.26 C 789.75,123.26 784.86,119.69 783.36,115.93 L 782.36,121.47 L 767.38,121.47 L 780.26,51.88 M 813.05,95.2 C 814.28,88.53 810.42,82.05 802.72,82.05 C 794.45,82.05 788.43,88.72 787.3,95.2 C 785.89,102.44 789.65,108.64 797.45,108.64 C 805.45,108.64 811.74,102.16 813.05,95.3 L 813.05,95.2"/>
				<path class="cls-5" d="M 844.92,118.79 L 834.77,69.27 L 851.4,69.27 L 856.4,99.53 L 872.0,69.27 L 888.54,69.27 L 849.54,138.81 L 833.0,138.81 L 844.92,118.79"/>
			</g>
			<g name="MyChart">
				<path class="cls-5" d="M 331.64,159.79 A 73.29,73.29 0.0 0,0 370.22,148.69 C 382.36,141.29 391.14,131.69 396.32,120.23 L 398.85,114.63 L 376.0,114.63 L 374.84,116.63 C 370.84,123.36 364.84,128.98 356.79,133.33 A 52.37,52.37 0.0 0,1 331.63,139.93 C 316.76,139.93 304.54,134.93 294.28,124.6 C 284.02,114.27 279.0,101.92 279.0,86.92 C 279.0,71.92 284.0,59.59 294.26,49.24 C 304.52,38.89 316.73,33.87 331.6,33.87 A 50.91,50.91 0.0 0,1 356.0,40.26 C 363.79,44.46 369.68,49.91 373.51,56.46 L 374.66,58.46 L 397.52,58.46 L 395.0,52.82 C 389.88,41.51 381.26,32.1 369.39,24.82 A 71.52,71.52 0.0 0,0 331.64,14.0 C 311.06,14.0 293.39,21.12 279.1,35.15 C 264.81,49.18 257.55,66.63 257.55,86.95 C 257.55,107.27 264.8,124.68 279.1,138.7 C 293.4,152.72 311.07,159.79 331.64,159.79"/>
				<path class="cls-5" d="M 424.17,100.91 C 424.17,90.01 426.54,81.61 431.22,75.91 C 435.78,70.4 442.22,67.72 450.91,67.72 C 459.38,67.72 465.76,70.37 470.41,75.82 C 475.06,81.27 477.56,89.38 477.56,99.56 L 477.56,157.46 L 498.16,157.46 L 498.16,99.94 C 498.16,84.04 493.97,71.36 485.69,62.26 C 477.41,53.16 465.62,48.37 450.91,48.37 C 440.21,48.37 431.24,51.42 424.17,57.43 L 424.17,16.25 L 403.56,16.25 L 403.56,157.49 L 424.17,157.49 L 424.17,100.91"/>
				<path class="cls-5" d="M 560.81,159.79 C 574.81,159.79 586.81,155.47 596.61,146.99 L 596.61,157.49 L 617.22,157.49 L 617.22,50.92 L 596.61,50.92 L 596.61,61.5 C 586.8,52.96 574.78,48.63 560.81,48.63 C 545.3,48.63 531.97,54.05 521.19,64.75 C 510.41,75.45 504.93,88.75 504.93,104.25 C 504.93,119.75 510.4,132.98 521.19,143.67 C 531.98,154.36 545.3,159.79 560.81,159.79 M 525.54,104.43 C 525.54,94.03 528.94,85.5 535.93,78.34 A 35.83,35.83 0.0 0,1 586.75,78.34 C 593.75,85.47 597.14,93.99 597.14,104.34 C 597.14,114.69 593.74,123.27 586.74,130.43 A 35.82,35.82 0.0 0,1 535.93,130.43 C 528.93,123.34 525.54,114.83 525.54,104.43 L 525.54,104.43"/>
				<path class="cls-5" d="M 712.84,50.92 L 712.84,16.43 L 692.23,16.43 L 692.23,50.92 L 674.23,50.92 L 674.23,51.32 L 673.73,51.32 C 663.61,51.69 655.54,54.54 649.73,59.77 L 649.73,50.92 L 629.2,50.92 L 629.2,157.19 Q 608.38,163.31 582.65,168.48 A 580.0,580.0 0.0 0,1 497.0,178.62 A 817.18,817.18 0.0 0,1 410.06,177.99 C 381.93,176.43 352.87,173.54 323.66,169.39 C 312.3,167.83 301.32,166.03 289.66,164.12 L 280.66,162.65 C 265.13,160.18 250.82,158.12 236.89,156.37 C 228.25,155.31 219.48,154.37 211.21,153.64 C 215.68,143.56 218.74,135.54 219.64,133.14 L 253.0,50.92 L 230.67,50.92 L 207.13,110.92 L 183.58,50.92 L 161.21,50.92 L 196.07,136.82 L 195.85,137.38 C 195.43,138.47 195.02,139.57 194.62,140.66 L 193.92,142.54 C 192.44,146.18 190.92,149.82 189.92,152.12 C 186.36,152.12 183.07,152.12 179.92,152.22 C 176.92,152.36 173.98,152.55 171.05,152.83 A 88.85,88.85 0.0 0,0 161.95,154.12 C 160.11,154.44 158.34,154.8 156.61,155.12 L 156.61,18.39 L 148.39,18.39 L 83.63,99.8 L 18.5,18.39 L 10.5,18.39 L 10.5,157.5 L 33.3,157.5 L 33.3,73.07 C 33.3,72.35 33.3,71.59 33.3,70.81 C 34.1,71.94 34.94,73.0 35.75,74.0 L 80.0,130.72 L 86.4,130.72 L 131.27,74.09 C 132.1,73.09 132.96,71.95 133.8,70.79 C 133.8,71.57 133.8,72.34 133.8,73.07 L 133.8,157.5 L 147.8,157.5 C 146.61,157.87 145.43,158.25 144.27,158.66 C 138.58,160.8 132.15,163.78 127.58,169.75 A 22.56,22.56 0.0 0,0 123.25,180.23 C 123.12,181.12 123.04,182.02 122.99,182.93 L 122.99,184.41 A 14.0,14.0 0.0 0,0 123.16,186.28 A 19.18,19.18 0.0 0,0 125.16,192.15 A 21.78,21.78 0.0 0,0 133.31,200.65 A 28.75,28.75 0.0 0,0 143.61,204.29 A 42.17,42.17 0.0 0,0 150.7,204.86 C 151.64,204.86 152.61,204.86 153.6,204.78 C 155.16,204.72 156.9,204.56 158.39,204.39 A 48.92,48.92 0.0 0,0 163.39,203.51 A 57.15,57.15 0.0 0,0 181.64,195.39 A 62.24,62.24 0.0 0,0 195.8,182.92 A 60.54,60.54 0.0 0,0 203.16,171.7 L 206.0,172.0 C 215.18,172.92 224.66,173.87 233.76,175.0 C 247.42,176.64 261.49,178.57 276.76,180.91 L 286.76,182.48 C 297.76,184.22 309.08,186.01 320.33,187.48 C 350.33,191.36 380.14,193.95 408.95,195.19 A 811.0,811.0 0.0 0,0 498.24,194.12 C 530.85,191.75 559.61,187.53 586.16,181.2 C 621.16,172.89 649.65,163.03 670.76,151.91 L 672.94,150.76 L 672.71,140.92 L 667.23,143.44 Q 659.23,147.1 649.83,150.53 L 649.83,103.23 C 649.83,93.17 652.56,83.92 656.74,79.68 C 662.6,73.91 668.32,70.88 674.24,70.42 L 676.94,70.21 L 692.26,70.21 L 692.26,157.49 L 712.87,157.49 L 712.87,70.21 L 736.18,70.21 L 736.18,50.92 L 712.84,50.92 M 166.26,167.38 C 168.07,167.38 169.65,167.43 171.19,167.55 C 173.9,167.73 176.61,168.0 179.36,168.32 C 180.15,168.41 181.09,168.5 182.08,168.59 A 64.59,64.59 0.0 0,1 170.89,181.59 L 170.89,181.59 A 34.56,34.56 0.0 0,1 159.06,189.0 A 33.12,33.12 0.0 0,1 155.82,190.0 C 154.51,190.31 153.41,190.55 152.18,190.74 A 31.45,31.45 0.0 0,1 145.18,191.08 C 140.78,190.77 137.34,189.02 135.7,186.24 A 7.0,7.0 0.0 0,1 134.8,184.06 A 10.27,10.27 0.0 0,1 134.85,181.75 A 10.71,10.71 0.0 0,1 136.74,176.55 C 139.37,172.81 144.26,170.76 147.93,169.69 A 62.38,62.38 0.0 0,1 163.3,167.48 C 164.36,167.39 165.34,167.38 166.26,167.38"/>
			</g>
			<g name="epic_outline">
				<path class="cls-6" d="M 1401.21,52.45 L 1401.21,52.45 C 1388.21,38.88 1367.21,32.28 1336.88,32.28 C 1316.82,32.28 1299.12,35.62 1284.1,42.23 L 1293.1,7.10543e-15 L 1217.85,7.10543e-15 L 1208.37,44.57 C 1197.17,37.57 1182.62,33.82 1165.85,33.82 A 83.42,83.42 0.0 0,0 1144.73,36.51 L 1106.6,36.51 L 1112.93,6.76 L 940.93,6.76 L 906.68,174.41 L 1042.73,174.41 L 1034.73,212.07 L 1110.0,212.07 L 1117.87,175.07 A 80.91,80.91 0.0 0,0 1142.63,178.65 A 98.32,98.32 0.0 0,0 1181.55,170.82 L 1180.78,174.42 L 1256.0,174.42 L 1257.81,165.89 C 1271.15,174.36 1289.65,178.65 1312.94,178.65 C 1361.69,178.65 1393.33,160.65 1409.7,123.41 A 65.51,65.51 0.0 0,0 1413.84,104.68 L 1414.59,91.38 C 1415.32,75.6 1410.81,62.5 1401.21,52.45"/>
			</g>
			<g name="epic">
				<polygon class="cls-7" points="1272.23 16.88 1231.5 16.88 1226.27 41.48 1267 41.48 1272.23 16.88"/>
				<path class="cls-7" d="M 1055.57,195.19 L 1096.31,195.19 L 1106.31,148.12 L 1106.7,148.12 C 1111.98,155.8 1124.55,161.76 1142.61,161.76 C 1173.5,161.76 1197.36,145.83 1208.77,123.76 L 1201.61,157.49 L 1242.34,157.49 L 1250.34,120.01 C 1250.54,148.38 1273.18,161.72 1312.99,161.72 C 1357.88,161.72 1381.6,145.42 1394.26,116.65 L 1351.18,116.65 C 1345.42,128.81 1334.18,134.82 1319.48,134.82 C 1299.88,134.82 1290.98,124.25 1294.98,105.42 C 1298.98,86.59 1312.76,76.02 1331.78,76.02 C 1347.3,76.02 1354.58,81.29 1355.56,90.57 L 1397.78,90.57 C 1399.16,60.06 1374.4,49.12 1336.92,49.12 C 1298.14,49.12 1268.8,63.12 1256.44,91.33 L 1264.51,53.33 L 1223.78,53.33 L 1216.28,88.62 C 1214.52,64.13 1195.89,50.62 1165.87,50.62 C 1149.35,50.62 1133.67,56.57 1122.78,67.14 L 1122.39,67.14 L 1125.33,53.31 L 1085.75,53.31 L 1069.91,127.86 L 979.41,127.86 L 983.75,104.49 L 1064.54,104.49 L 1070.54,76.05 L 989.76,76.05 L 994.12,53.15 L 1085.77,53.15 L 1092.06,23.56 L 954.68,23.56 L 927.35,157.53 L 1063.58,157.53 L 1055.57,195.19 M 1115.34,105.65 C 1118.77,89.51 1130.96,79.14 1149.99,79.14 C 1168.63,79.14 1176.85,88.36 1173.17,105.65 C 1169.49,122.94 1157.35,132.17 1138.72,132.17 C 1119.69,132.17 1111.91,121.79 1115.34,105.65 L 1115.34,105.65"/>
			</g>
		</g>
	</g>
</svg>