<?xml version="1.0" encoding="utf-8"?>
<!-- Generator: Adobe Illustrator 23.0.1, SVG Export Plug-In . SVG Version: 6.00 Build 0)  -->
<svg version="1.1" id="Ebene_1" xmlns="http://www.w3.org/2000/svg"  x="0px" y="0px"
	 viewBox="0 0 13970.6 3832.7" enable-background="new 0 0 13970.6 3832.7" xml:space="preserve">
<path d="M6899,1612.5c56.9-78.3,98.7-163.5,125.5-255.6c26.8-92.1,40.2-188.8,40.2-290c0-122.3-21.2-233.2-63.4-332.7
	c-42.2-99.5-107.6-184.3-196.2-254.4c-88.5-70.2-202.2-124.4-341.1-162.7c-138.9-38.3-305.8-57.5-500.7-57.5h-728.6
	c-231.2,0-422.1,172.6-450.7,396c-0.1,0.6-0.2,1.1-0.2,1.7L4462,3274.1c-0.1,0.6-0.2,1.1-0.2,1.7c-0.3,2.3-0.6,4.7-0.8,7
	c-1.7,16.3-2.7,32.9-2.7,49.7c0,251,203.4,454.4,454.5,454.4h726.5c206.3,0,391.1-28.8,554.4-86.4c163.2-57.6,301.7-137,415.5-238.4
	c113.7-101.3,200.6-221.3,260.7-360c60.1-138.7,90.2-289.1,90.2-451.3c0-173.5-48.8-316.6-146.2-429.3
	c-97.5-112.7-246.1-194.2-445.9-244.5c121.9-40.8,226.6-92.1,314.3-154.1C6769.9,1760.9,6842.1,1690.8,6899,1612.5z M6298.3,2915.2
	c-25.2,78.8-64.2,146.2-116.9,202.3c-52.8,56.1-119.9,99.5-201.1,130.5c-81.2,30.9-178.7,46.3-292.4,46.3h-597l43.7-358.4l85.5-702
	h594.6c185.2,0,318.4,38.2,399.6,114.6c81.2,76.4,121.9,178.8,121.9,307.2C6336.1,2749.8,6323.5,2836.4,6298.3,2915.2z
	 M6244.8,1643.9c-117.8,102.5-285.6,153.7-503.2,153.7h-467.9l79.4-644.8l49.8-404.3h501.9c177,0,307.4,33.8,391.1,101.3
	c83.7,67.5,125.5,175.3,125.5,323.2C6421.5,1384.5,6362.5,1541.4,6244.8,1643.9z"/>
<path d="M8186.5,259.6c-208.1,1.6-379.5,157.5-405.4,359c0,0,0,0,0,0.1c-0.1,0.5-0.1,1-0.2,1.5c-0.3,2.1-0.5,4.2-0.8,6.3
	l-386.4,3160.4h636L8365,1044.6l52.8-432.2c0-0.3,0.1-0.6,0.1-0.9l31.7-259.7l11.3-92.3H8186.5z"/>
<path d="M9428.3,259.6c-297.2,0-543.2,218.8-585.9,504.1c0,0.1,0,0.3,0,0.4h937.9l-72.6,593l-297.4,2429.8h629L10411.6,764h478.7
	c51.7-0.4,101.7-7.4,149.4-20.4c224.8-60.5,396.7-249.9,431.5-484.1H9428.3z"/>
<path d="M11914.2,259.6L11480,3786.9h2058.8c-42.9-200.1-181.4-376-385.5-458.2c-78-31.4-158.6-46.3-237.8-46.3h-737.8l126.9-1031.4
	h527.8c251.1,0,489.6-141.1,605.4-376.4c7.4-15.2,14.4-30.8,20.9-46.7c8.3-20.7,15.5-41.6,21.7-62.5h-1114.8l91.4-750.4l30.6-250.9
	h859.5c237.2,0,462.5-133.3,571.8-355.6c7-14.3,13.7-29.1,19.7-44.1c13.9-34.5,24.5-69.5,32.1-104.7H11914.2z"/>
<ellipse fill="#3390FF" cx="2874.8" cy="957.2" rx="824.1" ry="823.8"/>
<path fill="#3390FF" d="M3816.3,1912.1c-29.4,79.3-60.2,157.1-95.5,230.5c-8.8,17.6-17.6,36.7-26.4,54.3l-27.9,52.9
	c-10.3,17.6-20.6,35.2-29.4,51.4c-10.3,17.6-20.6,33.8-30.8,49.9c-42.6,66.1-88.1,129.2-136.6,188
	c-48.5,58.7-101.4,113.1-154.2,164.5c-108.7,101.3-227.7,186.5-352.5,255.5c-32.3,16.2-63.2,33.8-95.5,47
	c-30.8,16.2-64.6,27.9-96.9,41.1c-64.6,25-130.7,47-196.8,63.1c-235,58.4-477.2,60.2-703.7,12.6c120.4-143.2,193-328,193-529.7
	c0-454.9-368.9-823.8-824.1-823.8c-200.7,0-384.7,71.8-527.6,191c-47.2-225.9-43.8-467.5,13-701.8l13.2-49.9
	c4.4-16.2,10.3-32.3,14.7-49.9l7.3-25l8.8-25c5.9-16.2,11.8-32.3,17.6-48.5c25-64.6,55.8-127.7,89.6-190.9
	c69-123.3,154.2-243.8,255.6-352.4c51.4-54.3,105.8-105.7,164.5-154.2c58.8-48.5,121.9-94,188-136.6c16.2-10.3,33.8-22,49.9-30.8
	c17.6-10.3,33.8-19.1,51.4-29.4l52.9-27.9c17.6-10.3,36.7-17.6,54.4-26.4c73.4-35.2,149.8-66.1,229.2-95.4
	c-334.9-52.9-702.1,23.5-1018,210c-158.6,92.5-302.6,211.4-428.9,352.4C411.3,649.3,354,725.6,302.6,804.9
	c-49.9,83.7-98.4,167.4-136.6,255.5C88.1,1236.6,35.3,1426,13.2,1621.3C2.9,1718.2-2.9,1816.6,1.5,1915l1.5,36.7l2.9,36.7
	c1.5,25,2.9,49.9,5.9,73.4l10.3,73.4c2.9,25,8.8,48.5,13.2,73.4c7.3,48.5,20.6,96.9,32.3,145.4c14.7,47,26.4,95.4,44.1,142.4
	c14.7,47,35.3,92.5,54.4,139.5c10.3,23.5,20.6,45.5,30.8,67.5l16.2,33.8l17.6,33.8c45.5,88.1,101.4,171.8,160.1,252.6l45.5,58.7
	c16.2,19.1,32.3,38.2,48.5,57.3l25,27.9c8.8,8.8,17.6,17.6,25,27.9l51.4,54.3l54.4,51.4c8.8,8.8,17.6,17.6,27.9,25l27.9,25
	c19.1,16.2,38.2,32.3,57.3,48.5c19.1,14.7,39.7,30.8,58.8,45.5c80.8,58.7,164.5,113.1,254.1,158.6l33.8,17.6l33.8,16.2
	c22,10.3,45.5,22,67.6,30.8l69,27.9c23.5,10.3,47,17.6,70.5,25c47,17.6,94,30.8,142.5,44.1c23.5,5.9,48.5,11.7,72,17.6
	c23.5,5.9,48.5,10.3,73.4,14.7c25,4.4,48.5,10.3,73.4,13.2l73.4,10.3c25,2.9,48.5,4.4,73.4,5.9l36.7,2.9l36.7,1.5
	c98.4,4.4,196.8-1.5,293.8-11.7c193.9-22,384.9-74.9,559.7-152.7l66.1-30.8c22-10.3,42.6-22,63.2-33.8l32.3-17.6l30.8-19.1
	c20.6-11.7,41.1-23.5,61.7-36.7c79.3-52.9,155.7-110.1,226.2-171.8c139.5-126.3,260-271.6,352.5-428.8
	C3792.8,2615.4,3869.2,2248.3,3816.3,1912.1z"/>
</svg>
