<svg xmlns="http://www.w3.org/2000/svg" viewBox="340.551 270.771 236.682 39.6" enable-background="new 340.551 270.771 236.682 39.6"><path fill="#687894" d="M390.607 279.3c0-.681.558-1.238 1.208-1.238h8.025c2.479 0 4.434.713 5.67 1.921.899.93 1.396 2.076 1.396 3.471v.062c0 2.82-1.735 4.276-3.439 5.021 2.572.773 4.647 2.262 4.647 5.236v.062c0 3.717-3.129 5.917-7.87 5.917h-8.429c-.65 0-1.208-.561-1.208-1.238v-19.214zm8.831 8.429c2.944 0 4.989-1.332 4.989-3.873v-.062c0-2.137-1.705-3.532-4.803-3.532h-6.6v7.468h6.414v-.001zm.868 9.823c3.285 0 5.33-1.456 5.33-3.872v-.062c0-2.354-1.98-3.72-5.763-3.72h-6.848v7.651l7.281.003zM411.37 295.104v-.062c0-3.378 2.789-5.174 6.848-5.174 2.045 0 3.501.278 4.927.681v-.558c0-2.882-1.766-4.369-4.771-4.369-1.611 0-2.975.372-4.152.899-.152.061-.31.092-.434.092-.561 0-1.054-.465-1.054-1.021 0-.497.341-.869.647-.99 1.581-.684 3.192-1.086 5.237-1.086 2.262 0 3.998.59 5.175 1.769 1.084 1.085 1.644 2.634 1.644 4.679v8.771c0 .683-.494 1.178-1.146 1.178-.682 0-1.146-.495-1.146-1.115v-1.457c-1.115 1.457-2.977 2.758-5.797 2.758-2.972-.007-5.978-1.71-5.978-4.995zm11.806-1.239v-1.551c-1.178-.34-2.758-.684-4.71-.684-3.005 0-4.679 1.305-4.679 3.314v.062c0 2.016 1.859 3.191 4.028 3.191 2.944.006 5.361-1.793 5.361-4.332zM430.521 278.185c0-.681.524-1.208 1.178-1.208.682 0 1.208.526 1.208 1.208v8.769c1.302-1.92 3.189-3.562 6.135-3.562 3.843 0 7.654 3.033 7.654 8.303v.062c0 5.236-3.78 8.334-7.654 8.334-2.975 0-4.896-1.61-6.135-3.405v2.015c0 .647-.495 1.208-1.177 1.208-.684 0-1.209-.561-1.209-1.208v-20.516zm13.728 13.603v-.062c0-3.781-2.603-6.197-5.64-6.197-2.977 0-5.793 2.509-5.793 6.166v.062c0 3.718 2.816 6.197 5.793 6.197 3.099.001 5.64-2.293 5.64-6.166zM450.138 304.338c-.372-.154-.743-.465-.743-1.023 0-.588.495-1.021 1.021-1.021.217 0 .403.062.589.124.464.154.929.279 1.735.279 1.484 0 2.354-.899 3.223-2.852l.124-.248-6.693-14.19c-.093-.218-.152-.435-.152-.651 0-.648.524-1.179 1.208-1.179.648 0 .99.403 1.209.931l5.577 12.58 4.958-12.609c.185-.498.523-.898 1.146-.898.65 0 1.177.527 1.177 1.179 0 .188-.062.401-.125.591l-6.258 14.936c-1.395 3.316-2.941 4.523-5.357 4.523-1.059-.007-1.834-.194-2.639-.472zM475.337 279.3c0-.681.56-1.238 1.209-1.238h8.024c2.479 0 4.433.713 5.672 1.921.896.93 1.395 2.076 1.395 3.471v.062c0 2.82-1.733 4.276-3.438 5.021 2.57.773 4.646 2.262 4.646 5.236v.062c0 3.717-3.129 5.917-7.87 5.917h-8.429c-.647 0-1.209-.561-1.209-1.238v-19.214zm8.832 8.429c2.943 0 4.989-1.332 4.989-3.873v-.062c0-2.137-1.706-3.532-4.805-3.532h-6.603v7.468h6.417l.002-.001zm.868 9.823c3.283 0 5.329-1.456 5.329-3.872v-.062c0-2.354-1.983-3.72-5.767-3.72h-6.849v7.651l7.287.003zM496.317 291.818v-.062c0-4.523 3.529-8.365 8.364-8.365 4.805 0 8.334 3.778 8.334 8.305v.062c0 4.521-3.562 8.365-8.396 8.365-4.8 0-8.302-3.78-8.302-8.305zm14.254 0v-.062c0-3.439-2.571-6.26-5.949-6.26-3.47 0-5.856 2.818-5.856 6.195v.062c0 3.438 2.542 6.229 5.92 6.229 3.468.002 5.885-2.785 5.885-6.164zM516.337 291.818v-.062c0-4.523 3.534-8.365 8.367-8.365 4.802 0 8.334 3.778 8.334 8.305v.062c0 4.521-3.562 8.365-8.396 8.365-4.803 0-8.305-3.78-8.305-8.305zm14.253 0v-.062c0-3.439-2.57-6.26-5.948-6.26-3.47 0-5.854 2.818-5.854 6.195v.062c0 3.438 2.541 6.229 5.919 6.229 3.466.002 5.883-2.785 5.883-6.164zM537.348 278.185c0-.65.526-1.208 1.181-1.208.681 0 1.209.557 1.209 1.208v14.687l8.676-8.83c.279-.31.557-.466.93-.466.65 0 1.084.529 1.084 1.115 0 .371-.151.621-.466.931l-5.235 5.144 5.731 7.221c.217.279.311.494.311.808 0 .649-.492 1.115-1.146 1.115-.437 0-.712-.154-1.022-.562l-5.547-7-3.312 3.282v3.068c0 .682-.496 1.208-1.182 1.208-.682 0-1.206-.526-1.206-1.208v-20.513h-.006zM554.95 278.713c0-.775.618-1.271 1.394-1.271.809 0 1.426.496 1.426 1.271v.402c0 .744-.617 1.271-1.426 1.271-.772 0-1.394-.527-1.394-1.271v-.402zm.217 6.072c0-.65.526-1.209 1.177-1.209.685 0 1.209.529 1.209 1.209v13.913c0 .682-.496 1.208-1.178 1.208s-1.208-.526-1.208-1.208v-13.913zM570.104 300.123c-4.398 0-7.993-3.377-7.993-8.335v-.062c0-4.617 3.254-8.336 7.685-8.336 4.741 0 7.438 3.873 7.438 8.116 0 .651-.527 1.115-1.116 1.115h-11.588c.34 3.472 2.788 5.422 5.64 5.422 1.982 0 3.438-.772 4.617-1.856.185-.154.399-.277.682-.277.588 0 1.052.464 1.052 1.021 0 .276-.124.559-.368.771-1.527 1.46-3.324 2.421-6.049 2.421zm4.74-9.264c-.248-2.914-1.922-5.453-5.11-5.453-2.79 0-4.896 2.322-5.205 5.453h10.315zM340.849 289.12h37.857v1.935h-37.857zM343.988 300.624l-.967-1.676 32.788-18.925.967 1.676zM351.234 307.2l-1.675-.967 18.93-32.78 1.675.967zM343.013 281.693l.967-1.676 32.786 18.924-.967 1.676zM349.541 274.417l1.673-.967 18.946 32.77-1.673.967zM358.81 271.16h1.935v37.854h-1.935z"/><circle stroke="#687894" stroke-width="1.577" stroke-miterlimit="10" cx="360.351" cy="290.57" r="19.011" fill="none"/><circle fill="#fff" stroke="#687894" stroke-width="1.588" stroke-miterlimit="10" cx="360.32" cy="290.57" r="14.388"/><path stroke="#687894" stroke-width="1.588" stroke-linecap="round" stroke-miterlimit="10" d="M363.569 295.9c-.617 1.146-1.845 1.931-3.258 1.931-1.426 0-2.663-.796-3.273-1.96M361.634 291.007c0 .581-.641 1.056-1.431 1.056-.792 0-1.433-.475-1.433-1.056" fill="none"/><circle fill="#687894" cx="367.461" cy="287.684" r=".989"/><circle fill="#687894" cx="353.145" cy="287.887" r=".988"/><path stroke="#687894" stroke-width="1.588" stroke-linecap="round" stroke-miterlimit="10" d="M360.476 283.338c-1.695 0-3.265-1.166-3.265-2.861 0-.965.431-2.25 1.026-2.873.813-.851 1.816-1.186 2.65-1.286m-.411 7.02c1.129 0 2.31-.844 2.31-1.974 0-.375-.043-.853-.189-1.153-.294-.608-.909-.922-1.684-.789" fill="none"/></svg>