<svg viewBox="0 0 236 38" xmlns="http://www.w3.org/2000/svg" xmlns:xlink="http://www.w3.org/1999/xlink"><defs><path id="a" d="M.654.684H11v20.422H.654z"/><path id="c" d="M0 .579h32.672v32.183H0z"/><path id="e" d="M1 .5h.5V1H1z"/></defs><g fill="none" fill-rule="evenodd"><path d="M52.261 29.566c4.463 0 7.98-3.618 7.98-8.115 0-4.463-3.517-8.08-7.98-8.08-4.429 0-8.046 3.617-8.046 8.08 0 4.497 3.617 8.115 8.046 8.115zm-8.046.71a1.27 1.27 0 0 1-1.25 1.251 1.27 1.27 0 0 1-1.252-1.252V6.88c0-.676.574-1.25 1.251-1.25a1.27 1.27 0 0 1 1.251 1.25v8.756h.067c1.555-2.366 4.226-4.53 8.182-4.53A10.303 10.303 0 0 1 62.81 21.451c0 5.748-4.565 10.38-10.346 10.38-3.956 0-6.627-2.198-8.182-4.53h-.067v2.974zM75.326 13.37c-4.463 0-7.98 3.618-7.98 8.08 0 4.498 3.516 8.116 7.98 8.116 4.428 0 8.046-3.618 8.046-8.115 0-4.463-3.618-8.08-8.046-8.08zm8.046 13.93h-.067c-1.556 2.334-4.228 4.53-8.183 4.53-5.78 0-10.346-4.631-10.346-10.38a10.303 10.303 0 0 1 10.347-10.345c3.954 0 6.626 2.164 8.181 4.53h.067v-2.974a1.27 1.27 0 0 1 1.252-1.251 1.27 1.27 0 0 1 1.25 1.25v17.615a1.27 1.27 0 0 1-1.25 1.252 1.27 1.27 0 0 1-1.252-1.252V27.3zM99.877 29.566c4.463 0 7.979-3.618 7.979-8.115 0-4.463-3.516-8.08-7.98-8.08-4.428 0-8.045 3.617-8.045 8.08 0 4.497 3.617 8.115 8.046 8.115zm-8.046.71c0 .676-.575 1.251-1.252 1.251a1.27 1.27 0 0 1-1.25-1.252V6.88c0-.676.574-1.25 1.25-1.25a1.27 1.27 0 0 1 1.252 1.25v8.756h.067c1.555-2.366 4.226-4.53 8.182-4.53a10.303 10.303 0 0 1 10.346 10.346c0 5.748-4.565 10.38-10.346 10.38-3.956 0-6.627-2.198-8.182-4.53h-.067v2.974zM118.485 36.564c-.304.643-1.048.913-1.656.643-.609-.305-.88-1.082-.575-1.658l2.4-5.104-8.046-17.277c-.305-.575-.034-1.353.574-1.657.61-.27 1.353 0 1.657.643l7.134 15.586 7.134-15.586c.304-.643 1.048-.913 1.656-.643.61.304.88 1.082.575 1.657l-10.853 23.396zM140.098 13.37c-4.395 0-7.979 3.652-7.979 8.08 0 4.464 3.584 8.116 7.979 8.116 2.265 0 4.294-1.116 5.748-2.57.439-.405 1.149-.338 1.588.102.474.439.474 1.25.035 1.656-2.029 1.96-4.531 3.077-7.371 3.077-5.782 0-10.548-4.632-10.548-10.38 0-5.714 4.766-10.346 10.548-10.346 2.772 0 5.342 1.082 7.371 3.078.405.439.439 1.25 0 1.69a1.206 1.206 0 0 1-1.657.034c-1.522-1.488-3.516-2.503-5.714-2.536M168.054 20.302c-.575-3.889-3.887-6.931-7.945-6.931-4.056 0-7.337 3.042-7.91 6.93h15.855zm1.352 2.3h-17.208c.575 3.92 3.855 6.965 7.911 6.965 2.706 0 5.071-1.32 6.492-3.416.203-.337.54-.575.98-.575.98 0 1.454 1.081.98 1.826-1.555 2.366-4.733 4.428-8.452 4.428-5.748 0-10.448-4.665-10.448-10.38 0-5.712 4.7-10.345 10.448-10.345 5.714 0 10.38 4.564 10.481 10.346 0 .642-.54 1.15-1.184 1.15zM173.245 30.275V12.661a1.27 1.27 0 0 1 1.251-1.25c.676 0 1.25.574 1.25 1.25v2.333h.068c.879-1.86 3.55-3.889 6.526-3.889 4.767 0 7.607 3.212 7.607 7.811v11.36a1.27 1.27 0 0 1-1.251 1.251 1.27 1.27 0 0 1-1.251-1.252V18.916c0-3.314-2.096-5.579-5.308-5.579-3.144 0-6.391 2.637-6.391 5.85v11.088a1.27 1.27 0 0 1-1.25 1.252 1.27 1.27 0 0 1-1.251-1.252M193.15 11.68h1.42V8.232a1.27 1.27 0 0 1 1.25-1.25 1.27 1.27 0 0 1 1.251 1.25v3.448h3.144c.642 0 1.15.507 1.15 1.15a1.14 1.14 0 0 1-1.15 1.15h-3.144v13.49c0 1.521.88 1.96 1.995 1.96.406 0 .777-.203 1.082-.406.236-.169.473-.27.777-.27.642 0 1.116.473 1.116 1.115 0 1.184-1.96 1.792-2.94 1.792-2.503 0-4.532-1.419-4.532-4.192V13.98h-1.42A1.14 1.14 0 0 1 192 12.83c0-.642.506-1.149 1.15-1.149M220.468 20.302c-.575-3.889-3.888-6.931-7.945-6.931s-7.337 3.042-7.91 6.93h15.855zm1.353 2.3h-17.209c.574 3.92 3.854 6.965 7.911 6.965 2.705 0 5.071-1.32 6.491-3.416.203-.337.541-.575.981-.575.98 0 1.454 1.081.98 1.826-1.555 2.366-4.733 4.428-8.452 4.428-5.748 0-10.448-4.665-10.448-10.38 0-5.712 4.7-10.345 10.448-10.345 5.714 0 10.38 4.564 10.481 10.346 0 .642-.54 1.15-1.183 1.15z" fill="#004953"/><g transform="translate(225 10.421)"><mask id="b" fill="#fff"><use xlink:href="#a"/></mask><path d="M3.156 4.133h.068C4.104 2.374 5.861.684 8.228.684c.608 0 1.217.101 1.86.27.472.102.912.541.912 1.184 0 .642-.575 1.183-1.116 1.116-.406-.034-.676-.203-1.656-.203-2.807 0-5.072 2.671-5.072 5.545v11.258c0 .676-.54 1.252-1.217 1.252S.654 20.53.654 19.854V2.24c0-.675.575-1.25 1.251-1.25.676 0 1.251.54 1.251 1.216v1.928z" fill="#004953" mask="url(#b)"/></g><path d="M233.925 28.59h-.853v1.102h.853c.31 0 .542-.233.542-.558a.539.539 0 0 0-.542-.544m.263 1.271l.465.915-.232.015-.45-.899h-.9v.884h-.215V28.39h1.069a.76.76 0 0 1 .774.744.754.754 0 0 1-.511.727m-.48-1.89a1.63 1.63 0 0 0-1.643 1.628c0 .913.728 1.641 1.643 1.641a1.63 1.63 0 0 0 1.627-1.641c0-.9-.73-1.628-1.627-1.628m0 3.487a1.865 1.865 0 0 1-1.86-1.86c0-1.008.837-1.845 1.86-1.845 1.007 0 1.843.837 1.843 1.846a1.861 1.861 0 0 1-1.843 1.859" fill="#004953"/><path d="M24.58 21.552c-2.387.713-5.005-.992-5.005-.992s1.254-2.862 3.642-3.575c2.387-.713 5.006.992 5.006.992s-1.254 2.861-3.642 3.575" fill="#87BD40"/><g transform="translate(0 -.579)"><mask id="d" fill="#fff"><use xlink:href="#c"/></mask><path d="M12.504 32.762a1.19 1.19 0 0 1-.294-.037C5.02 30.853 0 24.352 0 16.915 0 7.907 7.329.577 16.336.577c9.008 0 16.336 7.33 16.336 16.336a16.312 16.312 0 0 1-11.184 15.507 1.166 1.166 0 0 1-.734-2.212 13.985 13.985 0 0 0 9.587-13.295c0-7.722-6.282-14.005-14.005-14.005C8.613 2.91 2.33 9.192 2.33 16.914c0 6.377 4.303 11.952 10.466 13.555a1.165 1.165 0 0 1-.293 2.293" fill="#3CB5CD" mask="url(#d)"/></g><g transform="translate(-1 36.421)"><mask id="f" fill="#fff"><use xlink:href="#e"/></mask></g><path d="M21.908 23.375c-.571-.445-1.208-.322-1.75.373l-2.125 2.735V23.94l-.001-.025c.024-2.005-.267-6.25-2.895-9.021-3.54-3.734-9.98-3.374-9.98-3.374s-.701 6.412 2.839 10.145c2.204 2.323 5.735 3.367 7.726 3.367-.004 6.593-.001 3.633.004 11.049 0 .818.447 1.323 1.125 1.34.7.017 1.176-.524 1.182-1.358V30.25l3.95-5.09c.533-.687.499-1.34-.075-1.786" fill="#004953"/><path d="M22.22 13.627c-.418 2.457-3.107 4.048-3.107 4.048s-2.01-2.393-1.591-4.85c.419-2.457 3.109-4.047 3.109-4.047s2.009 2.393 1.59 4.849" fill="#FF8A7C"/><path d="M23.899 35.624h-.187v-1.572l-.72 1.572h-.172l-.733-1.572v1.572H21.9v-2h.187l.812 1.76.813-1.76h.187v2zm-2.865-1.812v1.812h-.186v-1.812h-.693v-.187h1.572v.187h-.693z" fill="#004953"/></g></svg>