<?xml version="1.0" ?>
<!-- Generator: Adobe Illustrator 16.0.3, SVG Export Plug-In . SVG Version: 6.00 Build 0)  -->
<svg xmlns="http://www.w3.org/2000/svg" version="1.2" baseProfile="tiny-ps" id="Layer_1" viewBox="0 0 70 70" xml:space="preserve">
	<g>
		<circle fill-rule="evenodd" fill="#215DA4" cx="35" cy="35" r="32.447"/>
		<path fill-rule="evenodd" fill="#FFFFFF" stroke="#FFFFFF" stroke-width="0.25" d="M19.199,45.354h31.622   c1.561,0,2.845,1.511,2.845,3.35v1.185c0,1.839-1.284,3.35-2.845,3.35H19.199c-1.58,0-2.863-1.511-2.863-3.35v-1.185   C16.336,46.865,17.619,45.354,19.199,45.354L19.199,45.354z M52.697,35.305c1.323,1.856,0.613,5.826-3.317,5.806l-28.739-0.04   c-3.317,0-5.036-3.1-3.12-5.866l14.597-20.936c0.533-0.791,1.638-1.463,2.765-1.463c1.225,0,2.133,0.652,2.845,1.659L52.697,35.305   z"/>
	</g>
</svg>