<svg enable-background="new 0 0 390.2 66.1" viewBox="0 0 390.2 66.1" xmlns="http://www.w3.org/2000/svg"><path d="m9.5 20.8h9.5v-9.5-9.4h-9.5-9.5v9.4h9.5z"/><path d="m39 32.8v-1.5c9.3-1.3 11.7-7.4 11.7-13.5 0-7.5-5.1-15.6-17.8-15.9h-7.6v9.5h7.6c6.7.1 8.1 4.4 8 7.9-.2 7.7-3.7 7.9-9.6 8h-21.8v38h22.7c15.3 0 20.4-8.7 20.4-17.7 0-7.8-2.7-13.4-13.6-14.8zm-6.5 22.9h-13.4v-19.2h13.3c8 0 10.6 1.5 10.6 9.7.1 6.9-2.5 9.4-10.5 9.5z"/><path d="m60 49.8c0-8.1 5.3-16.3 16.7-16.3 6.5 0 10.2 1.9 12.9 5.6v-12.1h-24.2v-8.4h33.5v37.2h5.6v9.3h-14.9v-4.7c-2.8 3.7-6.4 5.6-12.9 5.6-11.4.1-16.7-8.1-16.7-16.2zm29.6 0c0-4.7-3.3-7.9-10.2-7.9s-10.2 3.3-10.2 7.9 3.3 7.9 10.2 7.9 10.2-3.2 10.2-7.9z"/><path d="m108.7 41.9c0-14.6 7.2-24.2 20.9-24.2 12.2 0 19.4 7.5 19.4 18.6h-9.3c-.4-5.8-2.3-10.2-9.6-10.2-8.7 0-12 3.7-12 15.8s3.3 15.8 12 15.8c7.3 0 9.2-4.5 9.6-10.2h9.3c0 11.1-7.2 18.6-19.4 18.6-13.7 0-20.9-9.6-20.9-24.2z"/><path d="m167.1 46.2v19h-9.3v-65.2h9.3v37.8h7.3l13-19.2h11.3l-16 23.4 15.9 23.2h-11.3l-13-19z"/><path d="m249.2 41.9c0 13.7-5.3 24.2-20.4 24.2-6.5 0-11.1-2.5-13.9-6.5v5.6h-9.3v-65.2h9.3v24.2c2.8-4 7.4-6.5 13.9-6.5 15.1 0 20.4 10.5 20.4 24.2zm-9.3 0c0-11.2-3.4-15.8-12.5-15.8s-12.5 4.6-12.5 15.8 3.4 15.8 12.5 15.8 12.5-4.6 12.5-15.8z"/><path d="m255.2 49.8c0-8.1 5.3-16.3 16.7-16.3 6.5 0 10.1 1.9 12.9 5.6v-12.1h-24.2v-8.4h33.5v37.2h5.6v9.3h-14.9v-4.7c-2.8 3.7-6.4 5.6-12.9 5.6-11.4.1-16.7-8.1-16.7-16.2zm29.6 0c0-4.7-3.4-7.9-10.1-7.9s-10.1 3.3-10.1 7.9 3.4 7.9 10.1 7.9 10.1-3.2 10.1-7.9z"/><path d="m306.7 60.1v-9.4c8.5 5.3 12.9 7 19.7 7 6 0 8.2-2.6 8.2-5.5 0-3.3-2.4-5-11-6.9-13.3-2.9-16.9-7.3-16.9-14.6 0-7.7 6.6-13 16.6-13 6.2 0 12.4 1.7 16.9 4.8v8.4c-6.8-3.4-12.8-4.8-17.9-4.8-4.8 0-6.3 2-6.3 4.4 0 2.6 1.2 4.4 9.1 6.5 13.8 3.7 18.8 6.6 18.8 15.2 0 7.9-6.6 14-17.5 14-7.2-.1-12.9-1.5-19.7-6.1z"/><path d="m350 41.9c0-14.6 5.8-24.2 20.1-24.2s20.1 8.7 20.1 23.3v5.1h-30.7c.6 6.5 3.3 11.6 14.1 11.6 3.7 0 7.4 0 13.4-1.7v8.2c-7.3 1.9-9.9 1.9-13.4 1.9-21-0-23.6-15-23.6-24.2zm30.9-4.2c-.2-8.1-3.3-11.6-10.8-11.6s-10.3 4.1-10.8 11.6z"/></svg>