<?xml version="1.0" encoding="UTF-8"?>
<svg id="Layer_2" data-name="Layer 2" xmlns="http://www.w3.org/2000/svg" viewBox="0 0 106.45 15.74">
  <defs>
    <style>
      .cls-1 {
        fill: #f76902;
      }
    </style>
  </defs>
  <g id="Layer_1-2" data-name="Layer 1">
    <g>
      <path class="cls-1" d="M2.83,5.47c.09-.05,.14-.07,.19-.1,.67-.47,1.43-.69,2.23-.75,.78-.05,1.56-.06,2.34-.04,.7,.02,1.39,.16,2.04,.41,1.25,.48,2.01,1.4,2.34,2.67,.42,1.57,.44,3.17,.08,4.75-.4,1.75-1.55,2.74-3.28,3.11-1.27,.27-2.56,.27-3.85,.19-.71-.04-1.4-.15-2.08-.37-1.51-.49-2.38-1.55-2.65-3.09-.11-.62-.17-1.26-.17-1.89C0,6.99,0,3.63,0,.28,0,.04,.07,0,.28,0c.77,.01,1.55,0,2.32,0,.18,0,.23,.06,.23,.24,0,1.65,0,3.29,0,4.94,0,.08,0,.17,0,.29Zm6.51,4.68c-.05-.56-.07-1.13-.15-1.68-.16-1.06-.69-1.6-1.74-1.79-.95-.17-1.9-.15-2.85-.02-.74,.1-1.34,.42-1.62,1.16-.12,.32-.21,.65-.24,.99-.1,.97-.07,1.95,.03,2.92,.13,1.14,.62,1.69,1.73,1.85,.95,.14,1.9,.13,2.85,.03,1.12-.12,1.67-.66,1.83-1.77,.08-.55,.1-1.11,.14-1.68Z"/>
      <path class="cls-1" d="M87.47,11.51c.1,1.17,.72,1.86,1.86,2.05,.9,.15,1.82,.11,2.73,.05,1.19-.07,2.35-.31,3.48-.67,.12-.04,.25-.08,.37-.12,.01,0,.03,0,.06,.01,0,.04,.02,.08,.02,.12-.02,.53-.05,1.06-.08,1.59,0,.13-.05,.19-.17,.24-.94,.36-1.91,.61-2.91,.77-1.06,.17-2.13,.22-3.2,.17-.76-.03-1.52-.12-2.26-.33-1.4-.39-2.27-1.3-2.59-2.7-.15-.67-.23-1.36-.27-2.05-.05-.94-.02-1.89,.15-2.83,.32-1.75,1.37-2.76,3.08-3.12,1.17-.25,2.35-.3,3.54-.24,.88,.04,1.74,.14,2.58,.41,.72,.24,1.38,.57,1.85,1.18,.79,1.03,.89,2.17,.41,3.36-.25,.62-.77,.99-1.37,1.25-.73,.32-1.51,.46-2.3,.56-1.58,.2-3.17,.25-4.76,.27-.07,0-.14,.01-.22,.02Zm3.13-5.04c-.64,.06-1.17,.1-1.69,.17-.75,.11-1.24,.53-1.35,1.3-.06,.44-.07,.88-.12,1.32-.02,.19,.04,.26,.24,.24,1.26-.1,2.51-.17,3.77-.28,.44-.04,.87-.17,1.29-.3,.28-.08,.48-.29,.55-.6,.16-.77-.18-1.39-.98-1.59-.59-.15-1.22-.2-1.71-.27Z"/>
      <path class="cls-1" d="M53.81,4.7c-1.63,1.68-3.26,3.35-4.91,5.05,1.8,1.89,3.59,3.78,5.4,5.69-.08,.01-.12,.02-.17,.02-1.09,0-2.19,0-3.28,0-.1,0-.23-.06-.3-.13-1.17-1.25-2.32-2.52-3.49-3.78-.42-.46-.94-.67-1.57-.55-.05,0-.1,0-.15,0-.34,0-.35-.06-.35,.34,0,1.3,0,2.59,0,3.89v.3h-2.81c0-.08-.01-.16-.01-.23,0-5.01,0-10.02,0-15.04,0-.21,.06-.27,.27-.27,.77,.01,1.53,.01,2.3,0,.22,0,.27,.07,.26,.27,0,2.7,0,5.39,0,8.09,0,.32,0,.29,.32,.32,.87,.07,1.56-.26,2.16-.89,.97-1.02,1.99-1.99,2.98-2.99,.11-.11,.23-.16,.38-.16,.92,0,1.84,0,2.76,0,.06,0,.13,0,.19,0,0,.02,.02,.03,.03,.05Z"/>
      <path class="cls-1" d="M22.67,8.67c-.03-.38-.03-.75-.1-1.11-.07-.36-.34-.6-.69-.69-.38-.1-.77-.19-1.15-.21-1.09-.06-2.19-.06-3.28,.08-.87,.11-1.72,.3-2.55,.58-.07,.02-.14,.04-.21,.07-.01-.04-.02-.07-.02-.1,.02-.57,.05-1.15,.07-1.72,0-.13,.05-.2,.19-.25,1.1-.4,2.23-.66,3.39-.79,1.1-.12,2.2-.09,3.3,.02,.66,.06,1.31,.2,1.92,.47,1.15,.51,1.78,1.42,1.87,2.64,.09,1.21,.05,2.43,.06,3.65,0,.44,0,.87-.05,1.31-.16,1.51-1,2.48-2.49,2.87-.88,.24-1.78,.27-2.69,.27-1.23,.01-2.46,0-3.67-.32-.63-.16-1.24-.4-1.75-.82-.73-.6-1.02-1.38-.95-2.3,.02-.29,.06-.58,.12-.86,.22-.98,.86-1.59,1.78-1.94,.72-.28,1.48-.45,2.25-.51,1.4-.12,2.8-.19,4.21-.28,.13,0,.26-.02,.44-.04Zm-.03,1.82c-.11,0-.19,0-.26,0-.84,.03-1.68,.03-2.51,.1-.66,.06-1.33,.15-1.98,.3-.9,.22-1.11,.55-1.05,1.47,.04,.62,.3,.96,.9,1.13,.12,.03,.24,.07,.36,.08,.89,.03,1.79,.08,2.68,.07,.39,0,.78-.1,1.15-.22,.47-.15,.69-.51,.7-1,0-.26,0-.52,0-.79,0-.38,0-.75,0-1.15Z"/>
      <path class="cls-1" d="M63.77,15.55h-2.87v-.24c0-2.25-.01-4.5,.01-6.75,0-.52,.09-1.05,.24-1.54,.37-1.2,1.28-1.86,2.45-2.23,.74-.23,1.5-.32,2.26-.34,1.05-.03,2.1-.05,3.14,.12,.73,.11,1.44,.32,2.07,.72,.9,.57,1.38,1.39,1.53,2.43,.05,.33,.06,.67,.07,1,0,2.19,0,4.37,0,6.56,0,.29,0,.29-.28,.29-.76,0-1.52,0-2.28,0-.2,0-.26-.06-.26-.26,0-2.12,0-4.24,0-6.36,0-.27,0-.54-.05-.81-.14-.85-.5-1.23-1.39-1.39-1.13-.2-2.26-.21-3.39,.02-.79,.16-1.2,.65-1.22,1.46-.03,1.73-.03,3.47-.04,5.2,0,.62,0,1.24,0,1.86,0,.08,0,.16,0,.26Z"/>
      <path class="cls-1" d="M39.63,15.55h-2.79c0-.1-.01-.19-.01-.28,0-2.25,0-4.5,0-6.75,0-.2-.02-.41-.06-.61-.12-.64-.55-1-1.16-1.12-1.18-.23-2.37-.23-3.54-.03-.97,.17-1.36,.67-1.38,1.67-.01,.63,0,1.25,0,1.88,0,1.65,0,3.31,0,4.96,0,.09,0,.17,0,.27h-2.72c0-.08,0-.15,0-.23,0-2.28,0-4.56,0-6.84,0-.95,.23-1.83,.88-2.56,.63-.71,1.45-1.05,2.35-1.25,1.21-.27,2.45-.24,3.68-.2,.77,.03,1.52,.12,2.26,.36,1.62,.54,2.52,1.73,2.54,3.43,.02,2.37,0,4.75,.01,7.12,0,.05,0,.1-.02,.17Z"/>
      <path class="cls-1" d="M82.75,4.69v2.08c-.1,0-.18,0-.27,0-1.42,0-2.84,0-4.27,0-.2,0-.26,.06-.26,.26,0,1.68,0,3.37,0,5.05,0,.88,.44,1.37,1.32,1.46,1.15,.12,2.3,.02,3.43-.19,.06-.01,.13-.02,.21-.03,0,.07,.02,.13,.02,.18-.03,.52-.06,1.05-.08,1.57,0,.13-.06,.17-.18,.2-1.21,.29-2.44,.45-3.68,.38-.74-.04-1.46-.15-2.14-.47-1.03-.49-1.58-1.33-1.6-2.44-.04-2.28-.02-4.56-.02-6.84,0-1.47,0-2.94,0-4.41,0-.28,0-.28,.29-.28,.73,0,1.46,0,2.19,0,.18,0,.24,.06,.23,.24,0,1,0,2,0,2.99,0,.22,.06,.28,.29,.28,1.41,0,2.82,0,4.22,0,.09,0,.17,0,.29,0Z"/>
      <path class="cls-1" d="M106.43,6.72c-.9,0-1.76,0-2.63,0-.42,0-.85,0-1.27,.04-.77,.09-1.05,.42-1.07,1.19-.01,.55,0,1.09,0,1.64,0,1.9,0,3.8,0,5.7,0,.09,0,.17,0,.28h-2.8c0-.05-.02-.11-.02-.16,0-2.52-.01-5.04,.01-7.56,.02-1.77,1.27-3.1,3.03-3.34,.96-.13,1.91-.04,2.86-.02,.56,.01,1.12,.08,1.68,.11,.17,0,.25,.05,.24,.24-.01,.55,0,1.11,0,1.66,0,.06,0,.13-.01,.22Z"/>
      <path class="cls-1" d="M55.53,4.7h2.79V15.54h-2.79V4.7Z"/>
      <path class="cls-1" d="M103.63,15.54v-2.7h2.79v2.7h-2.79Z"/>
      <path class="cls-1" d="M55.53,2.69V.02c.08,0,.15-.02,.22-.02,.79,0,1.57,0,2.36,0,.18,0,.24,.05,.23,.23,0,.75,0,1.5,0,2.25,0,.06,0,.13-.01,.21h-2.8Z"/>
    </g>
  </g>
</svg>