<?xml version="1.0" ?>
<svg xmlns="http://www.w3.org/2000/svg" viewBox="0 0 1518 850">
	<defs>
		<linearGradient id="g1" x1="759.2" y1="498" x2="759.2" y2=".8" gradientUnits="userSpaceOnUse">
			<stop offset="0" stop-color="#472f92"/>
			<stop offset="1" stop-color="#00aeef"/>
		</linearGradient>
		<clipPath clipPathUnits="userSpaceOnUse" id="cp1">
			<path d="m-4194.74-1417.04h9901.64v13912.76h-9901.64z"/>
		</clipPath>
	</defs>
	<style>
		.s0 { fill: url(#g1) } 
		.s1 { fill: #472f92 } 
	</style>
	<g id="g190">
		<g id="g210">
			<g id="g212">
				<g id="g218">
					<g id="g220">
						<path id="path228" class="s0" d="m659.7 0.8c-0.6 0-0.3 0 0 0-0.4 3.3-0.6 6.6-1.1 9.9-11.4 71.7-1.9 137.5 53.6 190.3 15.1 14.4 30.1 29.2 46.4 42.1 44.5 35.3 83 74.7 100.1 133.6 7.2-26.4 5.9-50.3 4.3-73.9-3.5-50-20.6-94.7-57.4-130.1-25.2-24.4-51.7-47.3-78.5-69.9-31.8-26.8-61.1-58.5-67.4-102 0.1 0 0.3 0 0.3 0 0 0-0.1 0-0.3 0zm-1.7 257.6c13.3 62.1 50.2 107.4 101.4 142.5 38.3 26.1 76.8 52 96.5 97.1 0.9-1.5 3.4-7.9 4.2-16 5.7-69.4-20.9-125.1-74.9-167-50.8-39.5-99.5-80-123.8-144-8.4 29.7-9.3 59.4-3.4 87.4z"/>
					</g>
				</g>
			</g>
		</g>
		<g id="g230">
			<g id="Clip-Path: g232" clip-path="url(#cp1)">
				<g id="g232">
					<g id="g238">
						<path id="path240" fill-rule="evenodd" class="s1" d="m0.6 545.8h133.9c34.2 0 61 9.4 78.1 26.4 13.2 13.3 20 29.5 20 49.5v0.9c0 35.8-20.4 55-42.6 66.5 35 12 59.3 32 59.3 72.5v0.9c0 53.3-44 81.9-110.5 81.9h-138.2zm123.3 125.8c33.7 0 56.3-13.2 56.3-40.5v-0.9c0-23.4-18.8-37.9-52.5-37.9h-75.4v79.3zm15.3 126.2c35.8 0 57.6-14 57.6-40.9v-0.9c0-25.1-20.1-40.1-61.4-40.1h-83.2v81.9z"/>
					</g>
					<g id="g242">
						<path id="path244" fill-rule="evenodd" class="s1" d="m414.3 543.7h48.6l131.3 300.7h-55.4l-30.3-72.1h-141.1l-30.8 72.1h-53.7zm75.1 182.1l-51.6-119.4-51.2 119.4z"/>
					</g>
					<g id="g246">
						<path id="path248" class="s1" d="m645.4 545.8h48.6l159.9 206.4v-206.4h51.6v298.6h-43.9l-164.6-212.4v212.4h-51.6z"/>
					</g>
					<g id="g250">
						<path id="path252" fill-rule="evenodd" class="s1" d="m982.3 545.8h117.6c69.6 0 113.5 39.7 113.5 99.8v0.9c0 66.9-53.8 101.9-119.4 101.9h-59.3v96h-52.4zm113.4 155.2c39.6 0 64.4-22.1 64.4-53.3v-0.8c0-35-25.2-53.3-64.4-53.3h-61v107.4z"/>
					</g>
					<g id="g254">
						<path id="path256" class="s1" d="m1262.4 717.7v-171.9h52.4v169.8c0 55.4 28.6 85.3 75.5 85.3 46.5 0 75.1-28.2 75.1-83.2v-171.9h52.4v169.3c0 89.2-50.3 134-128.3 134-77.6 0-127.1-44.8-127.1-131.4z"/>
					</g>
				</g>
			</g>
		</g>
	</g>
</svg>