<?xml version="1.0" ?>
<svg xmlns="http://www.w3.org/2000/svg" version="1.2" viewBox="0 0 1543 513">
	<defs>
		<clipPath clipPathUnits="userSpaceOnUse" id="cp1">
			<path d="m-2507.27-1691.73h4198.98v2362.21h-4198.98z"/>
		</clipPath>
	</defs>
	<style>
		.s0 { fill: #164768 } 
		.s1 { fill: #fd8b00 } 
		.s2 { fill: #ffffff } 
		.s3 { fill: #134769 } 
	</style>
	<g id="Clip-Path: Page 1" clip-path="url(#cp1)">
		<g id="Page 1">
			<path id="Path 6" fill-rule="evenodd" class="s0" d="m567.6 259.5c1.3 3.7 1.8 8.1 1.8 13.3v0.5c0 5.7-0.9 10.9-2.4 14.6-1.4 3.8-3.8 7.3-7 9.4q-5.1 4.4-12.9 5.7c-5.3 1.6-12.1 2-19.1 2h-70.2c0-2.4 0-107.2 0-109.6q0-5 0-10h68.3c10 0 17.7 1 23.8 2.8 5.7 2.4 10.5 5.7 12.9 10.1 2.4 4.8 3.7 10.5 3.7 17.5v0.4c0 4.4-0.4 8.5-1.9 12-1.4 3.3-3.3 6.6-6.2 9-2.8 2.4-7.2 4.8-11.8 6.1-0.6 0.5-1.5 0.5-2 0.5 0.9 0 2 0.4 2.9 0.4 5.2 1.5 9.6 3.5 12.5 5.7 3.2 2.4 5.6 5.7 7.6 9.6zm-46.4-53.6h-38v28.9h38q7.3 0 11.4-1.5c3.1-1.4 4.8-2.9 6.4-4.6q1.9-3.6 1.9-8.6v-0.4c0-3.9-1.1-6.8-1.9-8.8-1.6-1.7-3.3-3.2-6.4-4.1-2.8-0.9-6.5-1.5-11.4-0.9zm19.7 54.5c-1.1-2.4-3.5-3.7-6.3-4.8-3.3-0.9-7-1.3-12.3-1.3h-39.1v30.4h39.6c5.2 0 8.9-0.5 11.8-1.6 2.8-0.9 4.8-2.8 6.3-4.6 1.3-1.9 1.8-5.2 1.8-9.2 0-4.1-0.5-7-1.8-8.9zm156.6 29.1c2 6.1 4 11.3 5.3 15.1h-28l-7.2-22.8h-55.4l-7.4 22.8h-27.8c1.5-3.8 3.3-9 5.7-15.1 2.4-6.4 4.8-12.9 7.7-20.6 2.8-7.7 5.6-15.1 8.5-23.2 2.8-8.1 5.9-16.2 8.7-23.8 2.9-7.5 5.3-14.7 7.5-21.2 2.4-6.8 4.3-12.1 5.9-16.2h40.4c1.3 4.1 2.9 9.4 5.3 16.2q2.8 9.8 7 21.2c2.4 7.6 5.2 15.7 8.3 23.8 2.8 8.1 5.7 15.5 8.1 23.2 2.8 7.7 5.2 14.7 7.4 20.6zm-37.2-28.3l-3.7-11.8c-1.9-7.4-4.4-15.1-6.5-22.3-2.4-6.5-4.4-13.3-6.4-19h-8.1c-1.9 5.7-3.7 12.5-5.7 19-2.4 7.2-4.8 14.9-7.2 22.3l-3.7 11.4zm162.1 30.4c2.4 4.4 5.2 9 8.1 13.4h-29.1c-2-3.3-3.3-6.2-5.3-9.4q-2.8-5.1-5.7-10.1l-11.6-19.9h-35.2c0 2.8 0 30 0 32.1q0 3.8 0 7.3h-25.6c0-2.4 0-108.3 0-110.7q0-4.8 0-9.9h65.7c10.4 0 19 1.4 25.3 3.8 6.6 2.4 11.4 6.1 14.2 11.8 2.9 5.7 4.4 13.3 4.4 23.4v0.4c0 8.1-1.1 15.1-3.5 20.4-2.2 5.6-6.1 10-11.8 12.9-2.4 1.3-5.2 2.4-8.1 3.2 0.4 1.3 1.5 2.4 2 3.3 2.4 4.8 5.2 9.6 8.1 14.2 2.4 4.4 5.2 9.2 8.1 13.8zm-78.8-48.3h36.3c5.3 0 9.4-0.5 12.9-2 2.9-1.3 5.3-3.3 6.6-6.1 1.5-2.9 2-6.6 2-11v-0.4c0-4.4-0.5-8.1-2-10.5-1.3-2.4-3.7-4.1-6.6-5.2-2.8-0.9-7.2-1.4-12.4-1.4h-36.8zm131-58.3c0 2.8 0 117.2 0 119.6h-26.7c0-2 0-119.6 0-119.6zm138.9 96.2c0 3.5 0 19.5 0 23.4h-39.6l-23.4-47c-2.4-5.7-5.2-11.4-7.6-16.7-2.4-5.2-4.8-10.5-7.2-15.3-2.4-5-4.6-9.8-6.6-14.2-0.4-1.3-1.5-2.8-2-4.1h-1.3q0 5.6 0 11.3 0 7.3 0 15.1c0 5.3 0 10.5 0 15.3 0 4.6 0 22.3 0 26.1 0 4.8 0 10 0 15.3 0 5 0 10.3 0 14.6h-24.5c0-2.4 0-3.7 0-5.7 0-1.9 0-102.1 0-103.9 0-3.5 0-6.7 0-10.4h40.7l22.8 45.9c2.4 5.7 4.8 10.9 7.2 16.2 2.4 5.2 4.8 10.5 6.5 15.3 2.4 5 4.4 9.4 6.4 13.5 0.8 2 1.3 4 2.4 5.9h1.3q0-1.5 0-2.8c0-4.4 0-9.2 0-13.8q0-7.2 0-14.4 0-7 0-12.7c0-4.4 0-37 0-39.4q0-7.8 0-14.2h24.3c0 3.3 0 18.4 0 21.7zm17.7-73.1v-23.6h115.9v23.2c-4.4 0-42.4 0-45.9 0 0 2.8 0 87.9 0 90.1q0 3.7 0 7.2h-25.6c0-2.4 0-94.5 0-96.9-2.4 0-32.6 0-35.5 0-3.2 0-5.2 0-8.9 0zm242.5 82.3c0 2.8 0 5.2 0 7.4q0 3.7 0 7.2h-25.6c0-2.4 0-48.3 0-50.7h-59.7c0 2.8 0 41.3 0 43.5q0 3.7 0 7.2h-25.8c0-2.4 0-107.8 0-110q0-5 0-10.1h25.8c0 3.3 0 43.8 0 47.1h59.7c0-3.3 0-43.8 0-47.1h25.6c0 3.3 0 102 0 105.5zm138.2-63.7q0 4.2 0 8.5c0 2.9 0 16.7 0 19.9 0 7.7-0.4 14.7-1.3 20.4-1.5 5.7-3.5 10.9-5.9 14.9-2.8 4.1-6.1 7.4-10.5 9.8-4.1 2.4-9.8 4.4-16.2 5.2-6.1 0.9-13.7 1.6-22.3 1.6-10.5 0-19.4-1.1-26.7-2.9q-10.7-2.8-17-8.5c-4.4-4.4-7.2-9.6-9.2-16.2-2-6.8-2.8-14.9-2.8-24.7 0-3.3 0-17.1 0-19.9 0-3.3 0-38.5 0-40.9 0-3.3 0-6.6 0-9.4h25.8v68.7c0 6.3 0.4 11.3 1.3 15.3 1.1 4.1 2.4 7 4.8 9.4 2.4 2.4 5.7 3.9 9.6 4.8 3.7 0.9 9 1.3 14.7 1.3 5.6 0 10.9-0.4 14.8-1.3 3.8-0.9 6.6-2.4 9-4.8 2.4-2.4 3.9-5.7 4.8-9.4 0.9-4 1.3-9 1.3-15.3 0-3.3 0-65.4 0-68.3h25.8c0 2.9 0 38.1 0 41.8zm130.6 44.2q0 7.9-1.3 13.8c-1.1 4.1-2.4 7.4-4.8 10.2-2.4 2.9-5.7 5.3-9.7 7.3-3.7 1.3-8.9 2.8-15 3.7-5.9 1.1-13.4 1.5-22.1 1.5-9 0-17.1-0.4-23.9-1.1-6.5-0.4-12.2-1.7-16.6-3.3-4.4-1.3-8.1-3.7-10.5-6.5-2.4-2.9-4.1-6.6-5.2-11q-1.4-6.3-1.4-15.7v-2.2l25.6-0.7v4c0 3.3 0.5 5.7 1.6 7.4 0.8 2.4 2.4 4 4.8 4.8 1.7 1.6 5.2 2 9.4 2.4 4.4 0.5 9.6 0.5 16.2 0.5 5.7 0 10.5 0 14.4-0.5 3.7-0.4 6.6-1.5 8.5-2.4 2-0.8 3.3-2.8 3.7-4.1 0.7-1.6 1.1-4 1.1-6.4 0-2.2 0-4.1-1.1-6.1-0.8-2-2.4-3.3-4.5-4.8-3.1-0.9-6.4-2.2-11.2-3.3-4.6-0.9-11.4-1.7-19-2.8-10.1-0.9-18.6-2.4-24.7-4.2-6.2-1.9-11.4-3.9-14.9-6.8-3.3-2.8-5.7-6.5-7-10.2-1.5-4.4-2-9.2-2-15.4 0-6.1 0.9-11.8 2.4-16.1 1.3-4.2 4.2-7.9 8.1-11 3.7-3.3 9-5 15.8-6.5 6.5-1.3 15.3-2 25.1-2q13.6 0 23 1.5c6.5 0.5 11.8 2 15.7 3.7 4.2 2 7.2 4.4 9.4 7.3 2.4 2.8 4 6.1 4.8 9.8 1.1 3.9 1.6 8.1 1.6 13.3v2.5l-25.4 0.4v-3.7c0-2.4-0.4-4.4-1.3-6.1q-1.5-2.9-4.4-4.4c-1.9-1.3-4.8-2-8.5-2.4-3.9-0.5-8.5-0.5-14.2-0.5-5.9 0-10.1 0-13.6 0.5-3.7 0.4-6.1 1.5-8.1 2.4-1.7 0.9-3.3 2.4-3.7 3.7-0.4 1.5-0.9 3.5-0.9 5.7 0 2.4 0.5 4.8 0.9 6.3q0.7 2.9 4.4 4.2c1.7 1.1 5.7 1.9 9.8 2.8 4.4 1.1 10.5 1.6 18.2 2.4 10.5 1.6 18.6 2.9 25.3 4.8 6.6 1.8 11.4 4.2 15.1 7 4 3.5 6.4 6.8 7.7 11 1.5 4.4 2 8.9 2.4 15.3z"/>
			<path id="Path 7" fill-rule="evenodd" class="s1" d="m834.4 363.8c1.3 1.6 2 4 2 6.2 0 1.5-0.7 3.5-1.1 4.8-0.4 1.5-1.3 2.8-2.8 3.9-1.4 0.9-2.9 1.8-4.9 2.2-1.7 0.6-3.7 1.1-6.1 1.1h-15.3v-40h14.4c2.9 0 4.6 0 6.6 0.6 2 0.5 3.9 1.3 4.8 2.2 1.3 1.1 2.4 2.4 2.9 3.9 0.8 1.4 0.8 3.3 0.8 4.9 0 0.8-0.4 1.7-0.4 2.8-0.4 0.9-0.9 1.3-1.3 2.2-0.7 1.1-1.5 1.9-2.4 2.4 0.9 1.1 1.7 1.5 2.8 2.8zm-9.6-9.8c0-1.1 0-1.5 0-2 0-0.4-0.4-0.9-0.4-0.9-0.5 0-0.9-0.4-1.4-0.4-0.6 0-5.2 0-6.3 0v7c1.1 0 5.3 0 5.7 0 0.6 0 1.1-0.4 1.5-0.4 0.5-0.5 0.9-0.5 0.9-0.9 0.4-0.7 0.4-1.1 0-2.4zm-8.1 18.4h4.8c0.9 0 2-0.5 2.4-0.5 0.5-0.4 0.9-0.4 1.3-0.9 0 0 0.7-0.4 0.7-1q0-0.7 0-1.4 0-0.6 0-1.5c0-0.4 0-0.9-0.7-0.9-0.4 0-0.8-0.4-1.3-0.4-0.4 0-6.1 0-7.2 0zm43.5-30.4h9.9v39.8h-9.9zm72.9 20.1c0 2.9-0.5 5.7-1.6 7.9-0.9 2.8-1.7 4.8-3.7 6.8-2 1.7-3.7 3.3-6.1 4.1-2.4 1.1-5.3 1.6-8.1 1.6-3.1 0-5.9-0.5-8.1-1.6-2.4-0.8-4.8-2.4-6.3-4.1-1.4-2-2.9-4.4-3.8-6.8-1.1-2.2-1.5-5-1.5-7.9 0-3 0.4-5.9 1.5-8.1 0.9-2.8 1.8-4.8 3.8-6.7 1.9-1.8 3.9-3.3 6.3-4.2 4.6-2 11.4-2 16.2 0 2.4 0.9 4.1 2.4 6.1 4.2 1.3 1.9 2.8 4.3 3.7 6.7 1.1 2.9 1.6 5.1 1.6 8.1zm-23.9-10.5c-0.9 0.5-2 0.9-2.8 1.8-0.9 1.1-1.6 1.9-2 3.5-0.4 1.3-0.4 2.8-0.4 4.6 0 1.9 0 3.5 0.4 4.8 0.4 1.5 1.1 2.4 2 3.3 0.8 1.1 1.9 1.5 2.8 1.9 2.4 0.9 5.7 0.9 8.1 0 0.9-0.4 2-0.8 2.9-1.9 0.8-0.9 1.5-1.8 1.9-3.3 0.5-1.3 0.5-2.9 0.5-4.8 0-1.8 0-3.3-0.5-4.6-0.4-1.6-1.1-2.4-1.9-3.5-0.9-0.9-2-1.3-2.9-1.8-0.9-0.4-2.4-0.4-3.7-0.4-1.5 0-3.1 0-4.4 0.4zm73.5-7.6v4.3h-11.6v32.2h-4.8v-32.2h-11.4v-4.3zm54.9 36.5h-4.8v-16.6h-19v16.6h-4.8v-36.5h4.8v16.2h19v-16.2h4.8zm51-36.6v3.8h-17.3v12.4h14v3.7h-14v12.5h17.3v4.2h-21.9v-36.6zm32.8 21.5v15.1h-4.8v-36.6h10.1c2.4 0 4.3 0 5.6 0.5 1.6 0.4 2.9 0.9 4 2 0.9 0.8 1.7 1.7 2.2 3.2 0.6 1.3 0.6 2.9 0.6 4.4 0 1.3 0 2.2-0.6 3.7-0.5 0.9-0.9 2-1.8 2.9-0.4 0.8-1.5 1.3-2.8 2.4q-1.7 0.6-4 1.3 0.9 0.9 1.6 1.5l10.5 14.7h-3.5c-0.9 0-1.3-0.5-1.8-0.9l-9.2-13.3c0-0.5-0.4-0.5-0.8-0.9q-0.7 0-1.6 0zm0-4h4.8c1.6 0 2.4 0 4-0.4q1.3-0.6 2.8-1.3c0.5-0.7 1.3-1.5 1.3-2.4 0.5-1.1 0.5-2 0.5-2.9 0-2.4-0.5-3.9-1.8-4.8-1.5-0.8-3.3-1.5-6.3-1.5h-5.3zm76.8 19h-3.7c-0.5 0-0.9 0-0.9-0.4 0 0-0.7-0.4-0.7-0.9l-3.2-8.9h-16.2l-3.3 8.9c0 0.5-0.4 0.5-0.4 0.9 0 0-0.7 0.4-1.1 0.4h-3.8l14.3-36.5h4.8zm-23.4-13.3h13.3l-5.7-14.7c-0.4-0.9-0.4-2-0.8-3.3 0 0.5-0.7 1.3-0.7 2 0 0.4-0.4 0.9-0.4 1.3zm53.3-0.4v13.7h-4.6v-36.5h10.5c2.2 0 4.2 0 5.7 0.9 1.3 0.4 2.9 1.5 4.2 2.4 1.1 0.9 1.9 2.4 2.4 3.3 0.4 1.5 1.1 2.8 1.1 4.8 0 1.3 0 3.3-1.1 4.8-0.5 1.3-1.3 2.2-2.4 3.7-0.9 0.9-2.4 2-4.2 2.4-2 0.5-3.5 0.9-5.7 0.9zm0-3.7h5.7c1.3 0 2.4 0 3.7-0.4 0.9-0.7 2-1.1 2.4-1.6 0.5-0.4 1.6-1.3 1.6-2.4 0.4-0.9 0.4-1.7 0.4-2.8 0-2.4-0.4-4.2-2-5.3-1.5-1.3-3.2-1.7-6.1-1.7h-5.7zm67.6-19.1v3.8h-17.3v12.4h14v3.7h-14v12.3h17.3v4.4h-21.9v-36.6zm41.4 32.9c1.5 0 2.8 0 3.9-0.7 0.9-0.4 1.8-0.9 2.8-1.8 0.9-1 1.4-1.9 2-3.2 0.5-1.6 0.5-2.9 0.5-4.4v-22.3h4.5v21.9c0 1.9-0.4 4.1-0.8 5.6-0.5 2-1.3 3.3-2.9 4.9-0.8 1.3-2.8 2.1-4.3 2.8-1.8 0.4-3.8 0.9-5.7 0.9-1.8 0-4.2-0.5-5.7-0.9-2-0.7-3.3-2-4.2-2.8-1.1-1.6-1.9-2.9-3-4.9-0.5-1.9-0.9-3.7-0.9-5.6v-22.4h4.8v22.4c0 1.3 0 2.8 0.4 4.1 0.5 1.5 0.9 2.4 2 3.5 0.9 0.9 1.8 1.3 2.8 1.8 0.9 1.1 2.5 1.1 3.8 1.1zm67.3-32.9v4.2h-11.6v32.4h-4.8v-32.4h-11.3v-4.2zm26.6 0h4.8v36.6h-4.8zm60.2 28.8c0 0 0.4 0 0.4 0.5l2 1.9c-1.6 2-3.5 2.9-5.3 4-1.9 0.9-4.8 1.3-7.6 1.3q-3.7 0-7.2-1.3-3-1.7-5.3-4c-1.3-1.3-2.4-3.7-3.3-5.6-0.8-2-0.8-4.9-0.8-7.7 0-2.8 0.4-5 1.3-7.4 0.8-2.4 1.9-4.4 3.7-5.7q2.3-2.3 5.9-4c1.7-0.8 4.6-1.3 7-1.3 2.4 0 4.8 0.5 6.8 1.3 1.9 1.1 3.2 2 5.2 3.3l-1.5 2.4c0 0 0 0.5-0.5 0.5h-0.8c0 0-0.5-0.5-1.1-0.5-0.5 0-0.5-0.4-0.9-0.8-0.4 0-0.9-0.5-1.5-0.5-0.5 0-1.3-0.4-1.8-0.4-0.4 0-1.9 0-2.8 0-2 0-4 0.4-5.3 0.9-1.5 0.4-2.8 1.3-3.9 2.8-0.9 1.5-1.8 2.8-2.4 4.8-0.4 1.8-0.9 3.7-0.9 6.1 0 2.4 0.5 4.2 0.9 6.2 0.6 1.9 1.5 3.2 2.4 4.3 1.1 0.9 2.4 1.8 3.9 2.9 1.3 0.4 2.9 0.9 4.8 0.9q1.4 0 2.9 0c0.9 0 1.3-0.5 2.2-0.5 0.6 0 1.5-0.4 1.9-0.9 0.5-0.6 0.1-2.1 1.3-3.2-0.2 0.1-0.1-0.3 0.3-0.3zm-0.3 0.3q0 0 0.1 0-0.1 0-0.1 0zm47.9-23.4l-0.6 0.4h-0.4c0 0-0.5 0-0.9-0.4-0.5 0-0.9-0.5-1.5-0.9-0.5-0.7-1.4-0.7-1.8-1.1-1.1 0-2-0.4-2.8-0.4-1.1 0-2 0-2.9 0.4-1.1 0-1.5 0.4-2 1.1-0.4 0.4-1 0.9-1.5 1.7 0 0.5-0.4 1.6-0.4 2.4 0 1.1 0 2 0.4 2.4 0.5 0.5 1.1 1.6 2 2 0.9 0.4 1.5 0.9 2.8 1.3 0.9 0.5 2 0.5 2.9 1.1q1.5 0.7 2.8 1.3c1.1 0.5 2 0.9 2.9 2 1 0.4 1.5 1.3 1.9 2.4 0.5 0.9 0.5 2.2 0.5 3.7 0 1.3 0 2.9-0.9 4.2-0.5 1.5-1.5 2.4-2.4 3.9-0.9 0.9-2.4 2-4 2.4-1.3 0.5-3.2 0.9-5 0.9-2.4 0-4.4-0.4-6.3-1.3-2-1.1-3.3-2-4.8-3.5l1.5-2.4c0 0 0-0.5 0.4-0.5h0.5c0.4 0 0.4 0 1.1 0.5q0.6 0.9 1.3 1.5c0.4 0.4 1.5 0.9 2.4 1.5 0.9 0.5 1.9 0.5 3.3 0.5 1.1 0 1.9 0 2.8-0.5 1.1-0.6 1.5-1.1 2.4-1.5 0.4-0.4 1.1-1.5 1.5-2 0.5-0.8 0.5-1.7 0.5-2.8 0-0.9 0-1.8-0.5-2.8-0.4-0.9-1.1-1.4-1.9-1.8-0.9-0.7-1.3-1.1-2.9-1.1-0.8-0.4-1.9-0.4-2.8-0.9-0.9-0.4-2-0.4-2.9-0.8-0.8-0.7-1.9-1.1-2.8-2-1.1-0.4-1.5-1.5-2-2.9-0.4-0.8-0.4-2.4-0.4-4.3 0-1.3 0-2.4 0.4-3.7 0.5-0.9 0.9-2.4 2-3.3 0.9-1.1 2-1.6 3.3-2.4 1.5-0.9 2.8-0.9 4.8-0.9 2 0 3.7 0.4 5.2 0.9q2.2 0.6 4.2 2.8zm-47.9 23.4q0 0 0.2-0.2-0.2 0.2-0.2 0.2z"/>
			<path id="Path 8" class="s2" d="m454.5 111.4l-5.2 2.4 5.2 0.5z"/>
			<path id="Path 9" class="s1" d="m469.9 90.4l90.5-80.2c0.9-0.9 1.3-2.2 2-3.8 0-1.3-0.7-2.8-1.6-3.7-0.8-1.1-2.4-1.5-3.2-2-1.6 0-2.9 0.5-4 1.6l-88.6 78.7 4.9 9zm-400.9 345.1c-36.8 9.4-63.4 40.3-68.7 77.5 37.8-6.4 67.8-33.3 76.3-70.5l198.4-177.8-8.1-7.2z"/>
			<path id="Path 10" class="s0" d="m395.1 124.1c-4-2.4-15.8-9-21-8.5v6.8c-1.6-6.8-4.4-12.5-3.3-14.3 0.9-3.5 6.1-1.9 7-5.2 2-6.3 5.7-12.5 3.9-19 2.4-4.4 0.9-9 0-13.8v-2c0 0.5 0 1.1 0.5 1.5 0-0.4 0.4-1 0.4-1 0 0-0.4-1.8-2.4-4.6-0.4-0.5-0.9-1.1-1.3-1.1-0.7 0-1.1-0.5-1.6-0.5h-0.4c-1.5 0-2.8-0.4-5.2-0.4l4.3-0.9c-3.5-2.4-7.6-3.5-11.6-2.8-5.6 0.8-11.8 2.8-15.7 7-3.7 3.9-5.7 8.9-5.3 14.2v0.4c-0.4 1.1-0.4 2-0.4 3.1 0 0.9-0.9 1.3-0.4 2.8l1.5 2.9c0 0.4 0.9 0.9 1.3 1.3l2-2.9-3.3 3.8-2 5.7c0 0.6 0 1 0.5 1.5 1.5 0.9 2.8 1.3 3.7 1.3 0.6 2.8 0.6 5.9-0.4 8.7-0.9 2.9-2.5 4.6-4.2 6.6 0 0-1.1 0.4-1.5 0.9l8.5 3.9-14.7-2.8c-7.6 0.8-21.4 0.8-27.7 15.5l-6.6 11.8c-4.4 6.4-11.4 14.4-16.6 30.4h10.9l-12.4 4c-3.3 7-7.3 19.4-5.7 56.4v5.2l-3.7 2-1.6 2.2-2.4 1.5-0.9 2.9-1.9 2.8v5.3l1.5 1.3 8.1 7.2 0.4 0.4 10.5-9.4-0.4-1.1-3.9-10.3 8.5-8h-6.6l3.7-2.5c1.1-5.2 4.4-14.2 6.8-21 1.3-4.5 2.4-9.4 2.4-14.2v-13.3c0 0 15.8-10.3 23.2-23.2l7.7-9-6.6 13.4c1.3 9.4 5.3 21.2 7.7 30.8l13.7-7.6 65.9-58.4c-3.5-4.2-8.1-6.6-12.9-7.7z"/>
			<path id="Path 11" fill-rule="evenodd" class="s0" d="m507.9 447.8c48.6 1.6 185 6.4 185.5 9.2 0 1.8-74.8 5.3-130.6 5.7h-12c-21.5 0-91.4 0.4-118.1 0.4-25.4 0-51.4 0-78.3 0-81.8 0-184.8-0.8-277.8-1.9l4-11c35.6-0.4 63.2-0.8 77.2-1.3 22.3-0.4 35.2-1.1 49.4-1.5l-89.7-35 43.6-38.9 115.6 8.9c1.1 6.6 2 16.2 2.5 20.4 0.4 0 0.4-0.5 0.4-0.5 3.5-14.2 14-74.6 22.1-84.4 0-0.4 0.4-1.1 0.9-1.5 0.4-0.5 2.8 8.1 3.2 8.1 0-0.5-1.3-9.4-1.3-9.9-0.4-2.4-0.4-8.1 0.5-13.3h-0.5c3.7-20.6 7-58.9 20.4-81.2l69.7-62.7 18.6-16.7 8.5 11c0 0 0 0.4 0.5 1.1l3.3 10.7-0.9-12.3c7.2-14.6 18.1-36.1 18.1-36.5l9.9-12.9 0.6-10.9v-0.9l10.5-9.4 0.5 0.4 4.6 9v0.4l2.4 4.8-2.4 2.4-0.9 2.9-3.7 1.7-2.4 3.5-5.7 4.6-1.6 0.7c-8.5 48.8-17.7 63.4-22.7 70.2-0.7 2.8-2.4 4.6-4.4 4.6-0.8 0-0.8 0-2.8-0.9-2.4-0.9-3.3-1.3-6.4-3.3-8-5.2-17.9-15.3-21.8-19.9-0.5 11.4-6.6 32.2-8.6 42.7l-6.5 8.1 8.1-4.4c0 0 15.5 54.7 15.5 88.4 0 0 0 16.1-3.3 21.4l2.4 16.6c4 11 4.4 34.1 4.4 53.6l362.6-27.1-334.2 99.7zm-114.3-46.8q0-0.6 0-1.1c-0.5-3.3-0.9-6.8-1.4-9.6-3.7-20.3-12.4-38.3-13.3-66.9l7.7 5.7c-9.2-9.4-13.4-19.5-16.2-29.4-4.4-10-12.1-26.6-12.9-30.8l-4 2.9c-1.3 3.2-6.5 12.2-10.2 19-6.4 12.7-13 24-21.7 31.3 0 0.4-3.3 3.2-3.3 3.7 0.5 0 4-2.4 4-1.8-3.5 36.1-7.3 37.9-16.9 58.9l81.6 7c0 0 6.3 8.7 6.6 11.1zm0 0.2q0.2 0 0-0.2 0 0 0 0.2z"/>
			<path id="Path 12" class="s1" d="m453.7 90.9l-45.7 40.9-78.8 69.7-39.1 35.3h0.4l-8.5 8 3.9 10.3 39-35 69.7-62.7 18.6-16.7 28.9-25.6v-0.4h0.6l11-12.9z"/>
			<path id="Path 13" class="s3" d="m442.1 114.7v0.4l0.6-0.4z"/>
		</g>
	</g>
</svg>