<?xml version="1.0" ?>
<svg xmlns="http://www.w3.org/2000/svg" viewBox="0 3.17 511.025 501.76">
	<g fill="none" fill-rule="evenodd">
		<path d="M 54.491,216.137 C 86.431,125.927 147.383,21.09 270.385,21.09 C 393.387,21.09 454.217,182.857 461.897,292.57" stroke="#1d2d35" stroke-linecap="round" stroke-linejoin="round" stroke-width="41.57"/>
		<path d="M 511.025,354.011 L 144.579,504.93 L 0.0,154.088 L 66.072,126.781 L 366.446,3.17 L 511.025,354.011" fill="#ffe000" fill-rule="nonzero" opacity=".4"/>
		<path d="M 493.836,393.752 L 105.813,473.966 L 28.891,102.278 L 94.111,88.747 L 417.036,22.065 L 493.836,393.752" fill="#ffe000" fill-rule="nonzero"/>
		<path d="M 270.385,20.846 C 393.387,20.846 454.217,182.857 461.897,292.571 C 429.592,348.648 352.183,369.737 270.385,369.737 A 230.034,230.034 0.0 0,1 94.232,292.571 C 94.232,292.571 132.754,188.587 168.716,188.343 C 195.048,188.343 217.478,237.105 238.568,237.105 C 259.658,237.105 303.421,143.482 303.421,143.482" stroke="#1d2d35" stroke-linecap="round" stroke-linejoin="round" stroke-width="41.57"/>
	</g>
</svg>