<?xml version="1.0" ?>
<!-- Generator: Adobe Illustrator 28.0.0, SVG Export Plug-In . SVG Version: 6.00 Build 0)  -->
<svg xmlns="http://www.w3.org/2000/svg" version="1.2" baseProfile="tiny-ps" viewBox="0 0 1064 1064">
	<g id="circle">
		<rect fill="#3884FF" width="1064" height="1064"/>
	</g>
	<g id="logo">
		<path fill="#FFFFFF" d="M387.7,229.8l-89.9,75.6c-1.8,1.5-2.8,3.7-2.8,6v69.8c0,6.6,7.6,10.2,12.7,6.1l126-102.6   c3.4-2.8,3.9-7.8,1-11.1l-36.1-42.8C395.9,227.5,391,227.1,387.7,229.8z"/>
		<path fill="#FFFFFF" d="M656.6,470.4L359.7,721c-4.1,3.4-3.6,9.8,0.9,12.6l50.1,31.1c2.9,1.8,6.6,1.5,9.1-0.7l295.5-249.6   c4-3.4,3.6-9.6-0.7-12.5l-48.6-32C663,468,659.3,468.2,656.6,470.4z"/>
		<path fill="#FFFFFF" d="M757.2,556.9L475.2,791.4c-4.1,3.4-3.7,9.7,0.8,12.6l49.7,31.8c2.9,1.8,6.6,1.6,9.2-0.6l232.4-193.4   c1.8-1.5,2.8-3.7,2.8-6v-72.8C770,556.3,762.3,552.7,757.2,556.9z"/>
		<path fill="#FFFFFF" d="M564.8,232.2l-267,225.5c-1.8,1.5-2.8,3.7-2.8,6v69.6c0,6.6,7.7,10.2,12.8,6L611,287c3.3-2.8,3.8-7.7,1-11   l-36.2-42.9C573,229.8,568.1,229.4,564.8,232.2z"/>
		<path fill="#FFFFFF" d="M757.2,230.2L297.8,611.7c-1.8,1.5-2.8,3.7-2.8,6v69.5c0,6.6,7.7,10.2,12.8,6l459.4-384.4   c1.8-1.5,2.8-3.7,2.8-6v-66.5C770,229.6,762.3,226,757.2,230.2z"/>
	</g>
</svg>