<?xml version="1.0" encoding="UTF-8"?>
<!-- Generator: Adobe Illustrator 15.1.0, SVG Export Plug-In . SVG Version: 6.00 Build 0)  -->

<svg version="1.1" id="Layer_1" xmlns="http://www.w3.org/2000/svg"  x="0px" y="0px" viewBox="0 0 216 32.4" enable-background="new 0 0 216 32.4" xml:space="preserve">
<g>
	<path fill="#375A8B" d="M13.5,32.036H0.245V0.364h12.719c6.185,0,9.787,3.471,9.787,8.896c0,3.513-2.314,5.784-3.913,6.542   c1.913,0.882,4.359,2.891,4.359,7.115C23.197,28.833,19.149,32.036,13.5,32.036z M12.477,5.88H6.428v7.292h6.048   c2.623,0,4.089-1.467,4.089-3.645C16.566,7.346,15.1,5.88,12.477,5.88z M12.875,18.733H6.428v7.785h6.447   c2.802,0,4.138-1.779,4.138-3.912C17.013,20.469,15.677,18.733,12.875,18.733z"/>
	<path fill="#375A8B" d="M48.869,32.036L47,26.428H35.747l-1.914,5.607h-6.448L38.907,0.364h4.848l11.562,31.672H48.869z    M41.488,9.704l-4.006,11.525h7.871L41.488,9.704z"/>
	<path fill="#375A8B" d="M70.001,5.88v26.156h-6.18V5.88h-8.275V0.364h22.731V5.88H70.001z"/>
	<path fill="#375A8B" d="M96.742,5.88v26.156h-6.179V5.88h-8.276V0.364h22.729V5.88H96.742z"/>
	<path fill="#375A8B" d="M111.384,32.036V0.364h6.184v26.155h14.365v5.518H111.384z"/>
	<path fill="#375A8B" d="M138.298,32.036V0.364h20.863V5.88h-14.68v7.429h12.5v5.515h-12.5v7.695h14.68v5.518H138.298z"/>
	<path fill="#DD4B5E" d="M172.735,5.88v7.786h12.5v5.517h-12.5v12.854h-6.182V0.364h20.859V5.88H172.735z"/>
	<path fill="#DD4B5E" d="M206.233,19.048v12.988h-6.137V19.048l-9.518-18.684h6.715l5.916,12.767l5.826-12.767h6.719L206.233,19.048   z"/>
</g>
</svg>