<?xml version="1.0" ?>
<svg xmlns="http://www.w3.org/2000/svg" viewBox="0 0 132 35" fill="none">
	<title>Logo</title>
	<g clip-path="url(#clip0_9992_54939)">
		<path d="M19.9833 22.9048C19.9833 19.2869 18.4629 17.309 15.2955 16.4432C17.928 15.5915 19.3709 13.6066 19.3709 10.5165V8.2289C19.3709 3.80149 16.5413 0.964844 11.2622 0.964844H0.00012207V34.1599H11.41C17.02 34.1599 19.9904 31.1754 19.9904 26.2483V22.9119L19.9833 22.9048ZM9.99524 5.88497C12.1632 5.88497 13.1064 6.82817 13.1064 9.12283V11.1641C13.1064 13.4517 12.1632 14.4019 9.99524 14.4019H6.55326V5.89201H9.99524V5.88497ZM13.4795 25.4951C13.4795 28.1839 12.5362 29.2257 9.80519 29.2257H6.55326V19.1743H9.80519C12.494 19.1743 13.4795 20.1667 13.4795 22.8556V25.4951Z" fill="currentColor"/>
		<path d="M77.2581 0.957031L74.0977 20.7361L70.9866 0.957031H62.9271V34.1521H68.347V13.0779L71.8805 34.1521H75.604L79.1375 13.0497V34.1521H84.7967V0.957031H77.2581Z" fill="currentColor"/>
		<path d="M60.5198 24.7001V21.6664H54.4875V24.9535C54.4875 28.2406 54.0159 29.6343 51.6579 29.6343C49.2999 29.6343 48.8283 28.2406 48.8283 24.9535V19.1817H60.6606V10.9181C60.6606 4.35089 57.7887 0.613281 51.5172 0.613281C45.2456 0.613281 42.3245 4.34385 42.3245 9.91859V25.1999C42.3245 30.7746 45.2456 34.5052 51.5172 34.5052C57.7887 34.5052 60.5198 30.5705 60.5198 24.7001ZM51.6579 5.48414C54.0652 5.48414 54.4383 6.87783 54.4383 10.165V14.4938H48.8283V10.165C48.8283 6.87783 49.2999 5.48414 51.6579 5.48414Z" fill="currentColor"/>
		<path d="M40.0156 24.7001V21.6664H33.9834V24.9535C33.9834 28.2406 33.5118 29.6343 31.1538 29.6343C28.7958 29.6343 28.3242 28.2406 28.3242 24.9535V19.1817H40.1564V10.9181C40.1564 4.35089 37.2846 0.613281 31.013 0.613281C24.7414 0.613281 21.8203 4.34385 21.8203 9.91859V25.1999C21.8203 30.7746 24.7414 34.5052 31.013 34.5052C37.2846 34.5052 40.0156 30.5705 40.0156 24.7001ZM31.1538 5.48414C33.5611 5.48414 33.9341 6.87783 33.9341 10.165V14.4938H28.3242V10.165C28.3242 6.87783 28.7958 5.48414 31.1538 5.48414Z" fill="currentColor"/>
		<path d="M89.4565 31.1852V26.0891H90.4349V31.0725C90.4349 32.7548 91.0332 33.4094 92.3636 33.4094C93.6939 33.4094 94.4048 32.8956 94.4048 30.9247V26.082H95.3832V31.0585C95.3832 33.0153 94.4048 34.2119 92.3425 34.2119C90.2801 34.2119 89.4565 33.1349 89.4565 31.1781V31.1852Z" fill="currentColor"/>
		<path d="M98.1284 26.082H99.3954L103.302 32.7196V26.082H104.231V34.1133H103.105L99.0505 27.2294V34.1133H98.1213V26.082H98.1284Z" fill="currentColor"/>
		<path d="M107.096 26.082H108.074V34.1133H107.096V26.082Z" fill="currentColor"/>
		<path d="M110.545 30.1514V30.0598C110.545 27.7793 112.142 25.9844 114.5 25.9844C116.858 25.9844 118.421 27.7793 118.421 30.0387V30.1302C118.421 32.3967 116.858 34.2198 114.522 34.2198C112.185 34.2198 110.545 32.3967 110.545 30.1514ZM117.408 30.1162V30.0247C117.408 28.2298 116.352 26.7657 114.5 26.7657C112.649 26.7657 111.558 28.1383 111.558 30.0458V30.1373C111.558 32.08 112.846 33.4033 114.522 33.4033C116.197 33.4033 117.408 32.0589 117.408 30.1091V30.1162Z" fill="currentColor"/>
		<path d="M120.835 26.082H122.102L126.009 32.7196V26.082H126.938V34.1133H125.812L121.757 27.2294V34.1133H120.828V26.082H120.835Z" fill="currentColor"/>
		<path d="M89.4565 18.7506V18.6591C89.4565 16.28 91.0544 14.5625 93.2293 14.5625C95.4043 14.5625 96.3194 15.4494 96.4883 17.188H95.524C95.3199 15.9632 94.616 15.3368 93.2434 15.3368C91.8709 15.3368 90.4701 16.6249 90.4701 18.6521V18.7436C90.4701 20.7848 91.5048 22.0236 93.2364 22.0236C94.9679 22.0236 95.4606 21.362 95.6648 20.0598H96.5728C96.2912 21.911 95.0102 22.8261 93.2153 22.8261C91.4204 22.8261 89.4636 21.2283 89.4636 18.7576L89.4565 18.7506Z" fill="currentColor"/>
		<path d="M99.1629 14.6875H101.577C103.119 14.6875 104.386 15.314 104.386 16.9258V16.9681C104.386 18.2914 103.499 18.946 102.401 19.1571L104.857 22.7188H103.766L101.373 19.2275H100.134V22.7188H99.1559V14.6875H99.1629ZM101.648 18.4462C102.795 18.4462 103.414 17.9535 103.414 16.961V16.9188C103.414 15.8278 102.739 15.4688 101.648 15.4688H100.141V18.4462H101.648Z" fill="currentColor"/>
		<path d="M107.173 14.6867H111.854V15.4821H108.144V18.2132H111.129V19.0086H108.144V21.9156H112.051V22.711H107.166V14.6797L107.173 14.6867Z" fill="currentColor"/>
		<path d="M114.479 14.6867H116.605C119.371 14.6867 120.674 16.3972 120.674 18.6285V18.727C120.674 20.9513 119.392 22.711 116.584 22.711H114.486V14.6797L114.479 14.6867ZM116.556 21.9156C118.625 21.9156 119.653 20.6768 119.653 18.7129V18.6214C119.653 16.7702 118.752 15.468 116.542 15.468H115.451V21.9156H116.549H116.556Z" fill="currentColor"/>
		<path d="M123.137 14.6875H124.115V22.7188H123.137V14.6875Z" fill="currentColor"/>
		<path d="M128.592 15.4829H126.255V14.6875H131.908V15.4829H129.571V22.7188H128.592V15.4829Z" fill="currentColor"/>
	</g>
	<defs>
		<clipPath id="clip0_9992_54939">
			<rect width="132" height="33.8919" fill="currentColor" transform="translate(0 0.554688)"/>
		</clipPath>
	</defs>
</svg>