<?xml version="1.0" ?>
<svg xmlns="http://www.w3.org/2000/svg" viewBox="0 0 60.72 42">
    <style type="text/css">
    .st0 {
        fill: #CBCCCE;
    }

    .st1 {
        fill: #1F325D;
    }

    .st2 {
        fill: #FFFFFF;
    }
    </style>
    <g>
        <path class="st0" d="M39.202,12.887c0.074,0.121,0.173,0.221,0.297,0.297c0.125,0.078,0.278,0.129,0.458,0.156 c0.161,0.023,0.309,0.019,0.441-0.01c0.132-0.03,0.245-0.081,0.34-0.153c0.096-0.074,0.173-0.168,0.233-0.283 c0.06-0.115,0.101-0.249,0.122-0.4l0.05-0.353l-0.933-0.134l-0.065,0.447l0.331,0.047c-0.022,0.103-0.07,0.186-0.139,0.248 c-0.072,0.061-0.17,0.083-0.295,0.065c-0.151-0.02-0.257-0.097-0.319-0.225c-0.062-0.128-0.077-0.308-0.043-0.538 c0.014-0.097,0.036-0.186,0.067-0.265c0.029-0.08,0.067-0.147,0.113-0.205c0.043-0.056,0.098-0.098,0.158-0.126 c0.06-0.028,0.13-0.035,0.206-0.024c0.067,0.011,0.132,0.035,0.194,0.076c0.065,0.038,0.118,0.11,0.163,0.209 c0.017-0.01,0.048-0.029,0.098-0.058c0.048-0.029,0.101-0.058,0.156-0.089c0.058-0.03,0.11-0.059,0.158-0.086 c0.05-0.028,0.084-0.046,0.101-0.056c-0.077-0.15-0.175-0.267-0.297-0.353c-0.122-0.086-0.28-0.145-0.477-0.173 c-0.175-0.025-0.333-0.019-0.477,0.02c-0.141,0.04-0.268,0.104-0.376,0.198c-0.108,0.093-0.197,0.211-0.266,0.352 c-0.067,0.14-0.115,0.301-0.139,0.479c-0.029,0.187-0.029,0.36-0.007,0.518C39.079,12.628,39.127,12.767,39.202,12.887z" />
        <polygon class="st0" points="44.469,12.552 44.586,12.059 44.699,12.085 44.71,12.036 44.429,11.968 44.417,12.017 44.528,12.045 44.409,12.537 " />
        <path class="st0" d="M41.726,13.275c0.067,0.124,0.161,0.228,0.283,0.314c0.122,0.085,0.271,0.146,0.448,0.181 c0.177,0.035,0.336,0.037,0.482,0.006c0.144-0.031,0.273-0.09,0.384-0.175c0.113-0.086,0.206-0.2,0.283-0.339 c0.077-0.14,0.134-0.302,0.17-0.487c0.036-0.183,0.046-0.354,0.029-0.512c-0.017-0.161-0.06-0.302-0.127-0.427 c-0.069-0.125-0.165-0.23-0.285-0.314c-0.122-0.084-0.271-0.144-0.444-0.177c-0.177-0.036-0.338-0.037-0.484-0.005 c-0.146,0.031-0.276,0.092-0.386,0.182c-0.113,0.091-0.206,0.206-0.281,0.348c-0.074,0.142-0.129,0.302-0.165,0.482 c-0.034,0.177-0.046,0.344-0.031,0.501C41.618,13.009,41.659,13.15,41.726,13.275z M42.249,12.46 c0.019-0.097,0.046-0.185,0.079-0.264c0.036-0.079,0.077-0.146,0.127-0.199c0.048-0.054,0.105-0.094,0.17-0.117 c0.062-0.025,0.134-0.03,0.213-0.015c0.079,0.017,0.144,0.048,0.194,0.094c0.05,0.047,0.089,0.103,0.115,0.173 c0.026,0.07,0.041,0.146,0.041,0.235c0.002,0.088-0.007,0.18-0.026,0.278c-0.019,0.095-0.046,0.181-0.082,0.261 c-0.034,0.081-0.077,0.149-0.127,0.205c-0.048,0.056-0.106,0.097-0.17,0.124c-0.067,0.025-0.137,0.031-0.213,0.014 c-0.077-0.014-0.142-0.046-0.192-0.091c-0.05-0.047-0.089-0.106-0.115-0.175c-0.026-0.069-0.041-0.149-0.041-0.239 C42.22,12.655,42.227,12.561,42.249,12.46z" />
        <path class="st0" d="M44.128,14.136c0.084,0.022,0.165,0.009,0.24-0.038c0.074-0.046,0.122-0.113,0.144-0.201 c0.019-0.085,0.012-0.165-0.029-0.24c-0.041-0.075-0.105-0.125-0.194-0.146c-0.036-0.01-0.074-0.012-0.115-0.01 c-0.038,0.002-0.077,0.014-0.113,0.034c-0.036,0.019-0.07,0.046-0.098,0.079c-0.031,0.035-0.053,0.079-0.065,0.134 c-0.024,0.091-0.012,0.173,0.034,0.246C43.977,14.068,44.042,14.115,44.128,14.136z" />
        <polygon class="st0" points="44.725,12.613 44.846,12.116 44.847,12.116 44.839,12.641 44.878,12.65 45.111,12.18 45.112,12.181 44.992,12.679 45.046,12.691 45.178,12.149 45.084,12.126 44.893,12.515 44.891,12.513 44.895,12.081 44.803,12.058 44.671,12.6 " />
        <polygon class="st0" points="21.07,11.014 21.214,11.914 20.373,12.046 20.229,11.147 19.629,11.242 20.006,13.601 20.603,13.507 20.452,12.554 21.293,12.42 21.444,13.374 22.044,13.28 21.67,10.919 " />
        <path class="st0" d="M18.462,12.201c0.007,0.153,0.012,0.302,0.019,0.441c0.005,0.141,0.009,0.285,0.019,0.434l-0.01,0.002 c-0.012-0.022-0.024-0.048-0.036-0.077c-0.012-0.029-0.031-0.071-0.055-0.126c-0.026-0.056-0.06-0.132-0.103-0.227 c-0.041-0.093-0.098-0.218-0.173-0.373l-0.309-0.668l-0.575,0.128l0.007,0.732c0.002,0.151,0.002,0.299,0.002,0.444 c0.003,0.145,0.007,0.292,0.012,0.441l-0.014,0.004c-0.026-0.061-0.053-0.128-0.081-0.198c-0.029-0.071-0.058-0.141-0.089-0.212 c-0.029-0.071-0.058-0.14-0.086-0.205c-0.029-0.067-0.055-0.128-0.077-0.183l-0.292-0.682l-0.63,0.14 c0.18,0.372,0.36,0.74,0.539,1.104c0.18,0.364,0.36,0.732,0.54,1.104l0.611-0.138c0.002-0.017,0.005-0.059,0.005-0.124 c0.002-0.064,0.002-0.133,0.005-0.21v-0.211c0.003-0.065,0.003-0.107,0.003-0.125c0.005-0.158,0.007-0.316,0.009-0.474v-0.473 h0.007c0.022,0.053,0.05,0.115,0.086,0.189c0.036,0.073,0.072,0.15,0.113,0.228c0.038,0.079,0.077,0.158,0.113,0.235 c0.038,0.077,0.072,0.146,0.101,0.206l0.295,0.592l0.616-0.138c0.002-0.411,0.007-0.821,0.014-1.227 c0.005-0.406,0.012-0.816,0.017-1.229l-0.626,0.14L18.462,12.201z" />
        <path class="st0" d="M26.678,11.643c0.069-0.12,0.096-0.27,0.084-0.448c-0.012-0.132-0.041-0.245-0.091-0.338 c-0.05-0.092-0.115-0.168-0.194-0.225c-0.079-0.058-0.17-0.098-0.278-0.122c-0.106-0.024-0.218-0.031-0.341-0.022l-1.103,0.081 l0.18,2.383l0.599-0.044l-0.062-0.838l0.36-0.028l0.417,0.811l0.626-0.048l-0.496-0.886 C26.507,11.856,26.608,11.764,26.678,11.643z M26.069,11.451c-0.053,0.05-0.127,0.078-0.225,0.086l-0.41,0.03l-0.041-0.538 l0.415-0.031c0.086-0.007,0.163,0.01,0.225,0.048c0.065,0.038,0.098,0.102,0.105,0.192 C26.146,11.331,26.122,11.402,26.069,11.451z" />
        <polygon class="st0" points="23.182,12.628 23.13,12.161 23.942,12.067 23.885,11.561 23.072,11.654 23.027,11.264 24.199,11.13 24.141,10.626 22.367,10.829 22.638,13.204 24.45,12.997 24.393,12.489 " />
        <polygon class="st0" points="28.001,12.245 27.984,11.775 28.802,11.744 28.78,11.233 27.963,11.264 27.948,10.872 29.125,10.825 29.106,10.32 27.323,10.39 27.416,12.779 29.241,12.706 29.219,12.197 " />
        <path class="st0" d="M59.359,12.747L30.789,1.105c-0.142-0.058-0.292-0.087-0.443-0.087s-0.301,0.029-0.443,0.087L1.333,12.747 c-0.442,0.18-0.731,0.61-0.731,1.087v14.181c0,0.475,0.286,0.903,0.725,1.085l28.57,11.83c0.144,0.06,0.296,0.089,0.449,0.089 c0.153,0,0.305-0.03,0.449-0.089l28.57-11.825c0.439-0.182,0.725-0.61,0.725-1.085V13.834 C60.089,13.357,59.8,12.927,59.359,12.747z M58.916,28.019l-28.57,11.825l-28.57-11.83V13.834l28.57-11.642l28.57,11.642V28.019z " />
        <polygon class="st0" points="28.958,6.063 29.802,6.701 29.452,7.734 30.353,7.093 31.206,7.734 30.89,6.701 31.76,6.063 30.686,6.063 30.353,5.073 30.022,6.063 " />
        <path class="st0" d="M31.3,10.855l-0.271-0.557l-0.657-0.005l0.892,1.597l-0.007,0.801l0.602,0.005l0.007-0.808l0.916-1.575 l-0.65-0.005c-0.014,0.024-0.034,0.061-0.06,0.111c-0.024,0.049-0.053,0.102-0.079,0.159c-0.026,0.055-0.053,0.108-0.079,0.158 c-0.024,0.05-0.043,0.086-0.055,0.108l-0.288,0.583L31.3,10.855z" />
        <path class="st0" d="M35.865,12.628c0.081,0.096,0.182,0.17,0.304,0.225c0.122,0.054,0.259,0.087,0.412,0.101 c0.153,0.012,0.297,0.002,0.427-0.029c0.13-0.032,0.245-0.089,0.343-0.168c0.096-0.081,0.177-0.185,0.237-0.312 c0.06-0.128,0.098-0.279,0.113-0.456l0.115-1.368l-0.607-0.051l-0.113,1.352c-0.017,0.175-0.062,0.305-0.139,0.391 c-0.077,0.085-0.185,0.122-0.324,0.11c-0.137-0.012-0.237-0.067-0.302-0.169c-0.062-0.101-0.089-0.24-0.072-0.417l0.11-1.337 l-0.602-0.05l-0.115,1.368c-0.014,0.176-0.005,0.33,0.034,0.465C35.726,12.42,35.785,12.535,35.865,12.628z" />
        <path class="st0" d="M2.553,14.366v13.12l27.793,11.523l27.791-11.517V14.366L30.346,3.027L2.553,14.366z M27.191,35.934 l1.494-3.304h3.383l1.494,3.304H27.191z M31.175,30.216l0.592,1.443h-2.803l0.611-1.443H31.175z M29.782,29.695l0.295-0.722 h0.566l0.312,0.722H29.782z M57.477,27.081l-16.178,6.68L30.36,27.964l-10.88,5.834L3.202,27.081v-0.893h54.275V27.081z M57.475,25.698H3.202v-9.478h54.279L57.475,25.698z M57.477,15.739H3.202v-0.961L30.346,3.755l27.131,11.022V15.739z" />
        <path class="st0" d="M33.158,12.42c0.086,0.111,0.194,0.201,0.328,0.266c0.132,0.066,0.29,0.103,0.47,0.11 c0.18,0.007,0.338-0.014,0.477-0.067c0.137-0.053,0.254-0.132,0.353-0.233c0.098-0.103,0.173-0.229,0.228-0.379 c0.053-0.149,0.084-0.319,0.093-0.507c0.007-0.186-0.01-0.356-0.05-0.511c-0.041-0.155-0.106-0.289-0.192-0.402 c-0.089-0.113-0.197-0.201-0.331-0.266c-0.132-0.065-0.288-0.101-0.465-0.108c-0.18-0.007-0.341,0.017-0.48,0.07 c-0.139,0.055-0.256,0.134-0.355,0.24c-0.096,0.107-0.17,0.235-0.221,0.386c-0.053,0.151-0.081,0.319-0.091,0.501 c-0.007,0.182,0.01,0.348,0.048,0.501C33.009,12.173,33.072,12.307,33.158,12.42z M33.549,11.533 c0.003-0.097,0.017-0.188,0.038-0.271c0.022-0.084,0.053-0.156,0.093-0.218c0.041-0.06,0.091-0.108,0.151-0.141 c0.058-0.034,0.127-0.05,0.209-0.046c0.081,0.002,0.149,0.024,0.206,0.062c0.058,0.037,0.103,0.089,0.141,0.151 c0.036,0.065,0.062,0.14,0.077,0.228c0.015,0.086,0.019,0.18,0.015,0.279c-0.005,0.095-0.017,0.186-0.038,0.27 c-0.022,0.085-0.053,0.159-0.093,0.223c-0.041,0.062-0.091,0.113-0.151,0.147c-0.062,0.035-0.132,0.052-0.209,0.047 c-0.079-0.002-0.146-0.023-0.204-0.061c-0.057-0.037-0.103-0.09-0.139-0.155c-0.038-0.065-0.062-0.142-0.079-0.23 C33.549,11.732,33.544,11.636,33.549,11.533z" />
    </g>
    <path class="st1" d="M28.684,32.631l-1.494,3.304h6.37l-1.494-3.304H28.684z M30.077,28.974l-0.295,0.722h1.172l-0.312-0.722 H30.077z M28.965,31.659h2.803l-0.592-1.443h-1.599L28.965,31.659z M3.202,27.081l16.277,6.717l10.88-5.834l10.939,5.796 l16.178-6.68v-0.893H3.202V27.081z M30.346,2.192L1.776,13.834v14.181l28.57,11.83l28.57-11.825V13.834L30.346,2.192z M58.136,27.492L30.346,39.009L2.553,27.486v-13.12l27.793-11.34l27.791,11.34V27.492z M42.378,13.158 c0.05,0.046,0.115,0.077,0.192,0.091c0.077,0.017,0.146,0.011,0.213-0.014c0.065-0.026,0.122-0.067,0.17-0.124 c0.05-0.056,0.093-0.124,0.127-0.205c0.036-0.08,0.062-0.167,0.082-0.261c0.019-0.098,0.029-0.191,0.026-0.278 c0-0.089-0.015-0.165-0.041-0.235c-0.026-0.069-0.065-0.126-0.115-0.173c-0.05-0.046-0.115-0.077-0.194-0.094 c-0.079-0.016-0.151-0.011-0.213,0.015c-0.065,0.024-0.122,0.063-0.17,0.117c-0.05,0.053-0.091,0.12-0.127,0.199 c-0.034,0.079-0.06,0.167-0.079,0.264c-0.022,0.101-0.029,0.194-0.026,0.284c0,0.09,0.014,0.169,0.041,0.239 C42.29,13.052,42.328,13.111,42.378,13.158z M33.645,12.048c0.036,0.065,0.082,0.117,0.139,0.155 c0.058,0.038,0.125,0.059,0.204,0.061c0.077,0.005,0.146-0.012,0.209-0.047c0.06-0.035,0.11-0.085,0.151-0.147 c0.041-0.064,0.072-0.138,0.093-0.223c0.022-0.084,0.034-0.175,0.038-0.27c0.005-0.099,0-0.193-0.015-0.279 c-0.014-0.087-0.041-0.163-0.077-0.228c-0.038-0.062-0.084-0.114-0.141-0.151c-0.058-0.038-0.125-0.06-0.206-0.062 c-0.082-0.005-0.151,0.012-0.209,0.046c-0.06,0.034-0.11,0.082-0.151,0.141c-0.041,0.062-0.072,0.134-0.093,0.218 c-0.022,0.083-0.036,0.174-0.038,0.271c-0.005,0.103,0,0.199,0.017,0.285C33.582,11.906,33.606,11.983,33.645,12.048z M26.033,11.046c-0.062-0.038-0.139-0.055-0.225-0.048l-0.415,0.031l0.041,0.538l0.41-0.03c0.098-0.008,0.173-0.036,0.225-0.086 c0.053-0.049,0.077-0.12,0.069-0.213C26.131,11.148,26.097,11.084,26.033,11.046z M3.202,14.777v0.961h54.275v-0.961L30.346,3.755 L3.202,14.777z M19.047,12.557c-0.007,0.406-0.012,0.816-0.014,1.227l-0.616,0.138l-0.295-0.592 c-0.029-0.06-0.062-0.13-0.101-0.206c-0.036-0.077-0.074-0.156-0.113-0.235c-0.041-0.078-0.077-0.155-0.113-0.228 c-0.036-0.074-0.065-0.137-0.086-0.189h-0.007v0.473c-0.002,0.157-0.005,0.315-0.009,0.474c0,0.018,0,0.06-0.003,0.125v0.211 c-0.002,0.077-0.002,0.146-0.005,0.21c0,0.065-0.002,0.107-0.005,0.124l-0.611,0.138c-0.18-0.372-0.36-0.74-0.54-1.104 c-0.18-0.364-0.36-0.732-0.539-1.104l0.63-0.14l0.292,0.682c0.022,0.055,0.048,0.116,0.077,0.183 c0.029,0.065,0.058,0.134,0.086,0.205c0.031,0.071,0.06,0.141,0.089,0.212c0.029,0.07,0.055,0.137,0.081,0.198l0.014-0.004 c-0.005-0.149-0.01-0.296-0.012-0.441c0-0.145,0-0.293-0.002-0.444l-0.007-0.732l0.575-0.128l0.309,0.668 c0.074,0.155,0.132,0.279,0.173,0.373c0.043,0.095,0.077,0.17,0.103,0.227c0.024,0.055,0.043,0.097,0.055,0.126 c0.012,0.029,0.024,0.055,0.036,0.077l0.01-0.002c-0.01-0.149-0.014-0.292-0.019-0.434c-0.007-0.139-0.012-0.288-0.019-0.441 l-0.024-0.732l0.626-0.14C19.059,11.741,19.052,12.151,19.047,12.557z M21.444,13.374l-0.151-0.954l-0.842,0.134l0.151,0.953 l-0.597,0.095l-0.376-2.359l0.599-0.096l0.144,0.899l0.841-0.132l-0.144-0.9l0.599-0.095l0.374,2.361L21.444,13.374z M22.638,13.204l-0.271-2.375l1.774-0.203l0.058,0.503l-1.172,0.134l0.046,0.39l0.813-0.092l0.058,0.506l-0.813,0.094l0.053,0.467 l1.211-0.139l0.057,0.508L22.638,13.204z M26.249,12.854l-0.417-0.811l-0.36,0.028l0.062,0.838l-0.599,0.044l-0.18-2.383 l1.103-0.081c0.122-0.01,0.235-0.002,0.341,0.022c0.108,0.024,0.199,0.065,0.278,0.122c0.079,0.058,0.144,0.133,0.194,0.225 c0.05,0.093,0.079,0.206,0.091,0.338c0.012,0.179-0.014,0.328-0.084,0.448c-0.07,0.121-0.17,0.213-0.3,0.277l0.496,0.886 L26.249,12.854z M27.416,12.779l-0.093-2.389l1.784-0.071l0.019,0.506l-1.177,0.047l0.015,0.392l0.817-0.031l0.022,0.511 l-0.818,0.031l0.017,0.47l1.218-0.048l0.022,0.509L27.416,12.779z M44.895,12.081l-0.004,0.432l0.002,0.001l0.191-0.389 l0.094,0.023l-0.132,0.542l-0.054-0.012l0.121-0.497l-0.001-0.002l-0.233,0.471l-0.039-0.009l0.008-0.525h-0.001l-0.121,0.497 L44.671,12.6l0.132-0.542L44.895,12.081z M44.417,12.017l0.012-0.049l0.281,0.068l-0.011,0.049l-0.112-0.026l-0.118,0.493 l-0.06-0.014l0.119-0.492L44.417,12.017z M43.898,13.748c0.012-0.055,0.034-0.099,0.065-0.134c0.029-0.034,0.062-0.06,0.098-0.079 c0.036-0.019,0.074-0.031,0.113-0.034c0.041-0.002,0.079,0,0.115,0.01c0.089,0.022,0.153,0.071,0.194,0.146 c0.041,0.074,0.048,0.155,0.029,0.24c-0.022,0.089-0.07,0.156-0.144,0.201c-0.074,0.047-0.156,0.06-0.24,0.038 c-0.086-0.021-0.151-0.068-0.197-0.143C43.886,13.92,43.874,13.839,43.898,13.748z M41.633,12.352 c0.036-0.18,0.091-0.34,0.165-0.482c0.074-0.141,0.168-0.256,0.281-0.348c0.11-0.09,0.24-0.151,0.386-0.182 c0.146-0.032,0.307-0.031,0.484,0.005c0.173,0.034,0.321,0.094,0.444,0.177c0.12,0.084,0.216,0.189,0.285,0.314 c0.067,0.125,0.11,0.266,0.127,0.427c0.017,0.158,0.007,0.328-0.029,0.512c-0.036,0.185-0.094,0.346-0.17,0.487 c-0.077,0.139-0.17,0.253-0.283,0.339c-0.11,0.085-0.24,0.144-0.384,0.175c-0.146,0.031-0.304,0.029-0.482-0.006 c-0.177-0.035-0.326-0.096-0.448-0.181c-0.122-0.086-0.216-0.19-0.283-0.314c-0.067-0.126-0.108-0.266-0.125-0.422 C41.587,12.696,41.599,12.53,41.633,12.352z M39.063,11.95c0.024-0.179,0.072-0.339,0.139-0.479 c0.07-0.142,0.158-0.259,0.266-0.352c0.108-0.094,0.235-0.158,0.376-0.198c0.144-0.04,0.302-0.046,0.477-0.02 c0.197,0.028,0.355,0.086,0.477,0.173c0.122,0.086,0.221,0.204,0.297,0.353c-0.017,0.011-0.05,0.029-0.101,0.056 c-0.048,0.028-0.101,0.056-0.158,0.086c-0.055,0.031-0.108,0.06-0.156,0.089c-0.05,0.029-0.081,0.048-0.098,0.058 c-0.046-0.098-0.098-0.17-0.163-0.209c-0.062-0.041-0.127-0.065-0.194-0.076c-0.077-0.011-0.146-0.003-0.206,0.024 c-0.06,0.028-0.115,0.07-0.158,0.126c-0.046,0.058-0.084,0.125-0.113,0.205c-0.031,0.079-0.053,0.168-0.067,0.265 c-0.034,0.23-0.019,0.41,0.043,0.538c0.062,0.128,0.168,0.205,0.319,0.225c0.125,0.018,0.223-0.004,0.295-0.065 c0.069-0.062,0.118-0.145,0.139-0.248l-0.331-0.047l0.065-0.447l0.933,0.134l-0.05,0.353c-0.022,0.151-0.062,0.285-0.122,0.4 c-0.06,0.115-0.137,0.209-0.233,0.283c-0.096,0.072-0.209,0.124-0.34,0.153c-0.132,0.029-0.281,0.032-0.441,0.01 c-0.18-0.026-0.333-0.078-0.458-0.156c-0.125-0.077-0.223-0.176-0.297-0.297c-0.074-0.12-0.122-0.259-0.146-0.42 C39.034,12.309,39.034,12.137,39.063,11.95z M35.654,11.819l0.115-1.368l0.602,0.05l-0.11,1.337 c-0.017,0.177,0.01,0.316,0.072,0.417c0.065,0.102,0.165,0.157,0.302,0.169c0.139,0.012,0.247-0.025,0.324-0.11 c0.077-0.086,0.122-0.216,0.139-0.391l0.113-1.352l0.607,0.051l-0.115,1.368c-0.015,0.176-0.053,0.327-0.113,0.456 c-0.06,0.127-0.141,0.23-0.237,0.312c-0.098,0.079-0.213,0.136-0.343,0.168c-0.13,0.031-0.273,0.041-0.427,0.029 c-0.153-0.013-0.29-0.047-0.412-0.101c-0.122-0.055-0.223-0.129-0.304-0.225c-0.079-0.093-0.139-0.209-0.178-0.344 C35.649,12.149,35.639,11.995,35.654,11.819z M32.923,11.521c0.01-0.182,0.038-0.35,0.091-0.501 c0.05-0.151,0.125-0.279,0.221-0.386c0.098-0.105,0.216-0.185,0.355-0.24c0.139-0.053,0.3-0.077,0.48-0.07 c0.177,0.007,0.333,0.043,0.465,0.108c0.134,0.065,0.242,0.153,0.331,0.266c0.086,0.113,0.151,0.247,0.192,0.402 c0.041,0.155,0.057,0.325,0.05,0.511c-0.01,0.188-0.041,0.358-0.093,0.507c-0.055,0.15-0.13,0.276-0.228,0.379 c-0.098,0.101-0.216,0.18-0.353,0.233c-0.139,0.053-0.297,0.074-0.477,0.067c-0.18-0.007-0.338-0.044-0.47-0.11 c-0.134-0.065-0.242-0.155-0.328-0.266c-0.086-0.113-0.149-0.247-0.187-0.398C32.933,11.868,32.916,11.703,32.923,11.521z M31.914,10.737c0.026-0.05,0.053-0.103,0.079-0.158c0.026-0.058,0.055-0.11,0.079-0.159c0.026-0.05,0.046-0.087,0.06-0.111 l0.65,0.005l-0.916,1.575l-0.007,0.808l-0.602-0.005l0.007-0.801l-0.892-1.597l0.657,0.005l0.271,0.557l0.271,0.572l0.288-0.583 C31.87,10.823,31.89,10.787,31.914,10.737z M30.686,6.063h1.074l-0.87,0.638l0.316,1.033l-0.853-0.641l-0.901,0.641l0.35-1.033 l-0.844-0.638h1.064l0.331-0.99L30.686,6.063z" />
    <g>
        <g>
            <path d="M3.202,16.219v9.478h54.272l0.007-9.478H3.202z" />
        </g>
        <g>
            <path class="st2" d="M50.17,24.412v-1.445h3.94v-1.28h-2.934l-1.006-1.005v-2.149l1.006-1.005h4.379v1.445h-3.701v1.27h2.936 l0.996,1.006v2.157l-0.996,1.006H50.17z M43.538,24.412v-1.445h3.94v-1.28h-2.934l-1.006-1.005v-2.149l1.006-1.005h4.377v1.445 h-3.699v1.27h2.933l0.997,1.006v2.157l-0.997,1.006H43.538z M40.704,24.412v-2.136h-2.108v2.136h-1.685v-5.879l1.006-1.005 h3.466l1.002,1.004v5.879H40.704z M38.596,20.832h2.108v-1.859h-2.108V20.832z M30.484,24.412v-6.884h4.411l1.006,0.996v2.997 l-1.006,0.994H32.17v1.897H30.484z M32.17,21.072h2.047v-2.098H32.17V21.072z M26.142,24.412v-5.439h-1.896v-1.445h5.468v1.445 h-1.898v5.439H26.142z M17.985,24.412v-1.445h3.941v-1.28h-2.935l-1.006-1.005v-2.149l1.006-1.005h4.38v1.445H19.67v1.27h2.933 l0.998,1.006v2.157l-0.998,1.006H17.985z M11.781,24.412v-6.884h5.236v1.445h-3.552v1.27h2.842v1.444h-2.842v1.28h3.552v1.445 H11.781z M5.247,24.412v-6.884h4.471l1.004,0.996v1.809l-0.642,0.632l0.642,0.644v1.797l-1.005,1.006H5.247z M6.932,22.967H9.04 v-1.28H6.932V22.967z M6.932,20.244H9.04v-1.27H6.932V20.244z" />
            <g>
                <path class="st2" d="M55.95,17.907c0-0.251,0.212-0.456,0.473-0.456c0.26,0,0.47,0.205,0.47,0.456 c0,0.256-0.211,0.461-0.47,0.461C56.162,18.368,55.95,18.163,55.95,17.907z M56.04,17.907c0,0.209,0.17,0.372,0.383,0.372 c0.211,0,0.381-0.162,0.381-0.372c0-0.203-0.17-0.366-0.381-0.366C56.21,17.54,56.04,17.704,56.04,17.907z M56.658,18.165 h-0.09l-0.151-0.237h-0.092v0.237h-0.078v-0.513h0.23c0.044,0,0.088,0.003,0.129,0.025c0.039,0.022,0.058,0.068,0.058,0.11 c0,0.101-0.073,0.139-0.166,0.142L56.658,18.165z M56.411,17.865c0.074,0,0.175,0.013,0.175-0.079 c0-0.066-0.059-0.075-0.125-0.075h-0.137v0.155L56.411,17.865L56.411,17.865z" />
            </g>
        </g>
    </g>
</svg>