<?xml version="1.0" encoding="utf-8"?>
<!-- Generator: Adobe Illustrator 27.1.1, SVG Export Plug-In . SVG Version: 6.00 Build 0)  -->
<svg version="1.1" id="Layer_2_00000016783470812785566240000008818462983812605361_"
	 xmlns="http://www.w3.org/2000/svg"  x="0px" y="0px" viewBox="0 0 505 130"
	 style="enable-background:new 0 0 505 130;" xml:space="preserve">
<style type="text/css">
	.st0{fill:#181C25;}
</style>
<g id="SHAPE">
	<g>
		<path class="st0" d="M31.2,1.2l22.1,22.1c1.6,1.6,1.6,4.2,0,5.8L31.2,51.3c-1.6,1.6-4.2,1.6-5.8,0L3.2,29.2
			c-1.6-1.6-1.6-4.2,0-5.8L25.4,1.2C27-0.4,29.6-0.4,31.2,1.2z"/>
		<path class="st0" d="M69.6,39.7l22.1,22.1c1.6,1.6,1.6,4.2,0,5.8L69.6,89.8c-1.6,1.6-4.2,1.6-5.8,0L41.7,67.6
			c-1.6-1.6-1.6-4.2,0-5.8l22.1-22.1C65.4,38.1,68,38.1,69.6,39.7z"/>
		<path class="st0" d="M3.2,100.3c-1.6,1.6-1.6,4.2,0,5.8l22.1,22.1c1.6,1.6,4.2,1.6,5.8,0l22.1-22.1c1.6-1.6,1.6-4.2,0-5.8
			l-22-22.2c-1.6-1.6-4.2-1.6-5.8,0 M30.1,118.9c-1,1-2.6,1-3.6,0L12.6,105c-1-1-1-2.6,0-3.6l13.8-13.8c1-1,2.6-1,3.6,0l13.8,13.8
			c1,1,1,2.6,0,3.6L30.1,118.9z"/>
	</g>
</g>
<g id="Layer_11">
	<g>
		<g>
			<path class="st0" d="M129.5,129.1l0.1-54.7l6.8-0.1v6.9c1.6-2.5,3.4-4.1,6-5.5s5.4-2.1,8.6-2.1c5.6,0,10.3,2.1,14.1,6.2
				c3.8,4.2,5.6,9.2,5.6,15.1s-1.9,10.9-5.6,15.1c-3.8,4.2-8.4,6.2-14.1,6.2c-3,0-5.8-0.7-8.5-2.1c-2.6-1.4-4.5-3.1-6.1-5.5v20.6
				L129.5,129.1L129.5,129.1z M140.2,84.1c-2.7,2.9-4,6.5-4,10.8s1.3,7.8,4,10.7c2.7,2.9,6,4.3,10,4.3s7.3-1.4,10-4.3s4-6.5,4-10.7
				c0-4.3-1.3-7.9-4-10.8s-6-4.4-10-4.4C146.1,79.7,142.8,81.2,140.2,84.1z"/>
			<path class="st0" d="M179.6,115.2V74.3h6.4V83c1.2-2.8,3.2-5.1,5.9-6.8s5.6-3,9.5-3V80c-4.6,0-8,1.9-10.9,4.6
				c-3,2.7-4.5,6.9-4.5,12.6v18.1L179.6,115.2L179.6,115.2z"/>
			<path class="st0" d="M205.8,94.8c0-5.9,2.1-10.9,6.3-15.1s9.3-6.3,15.2-6.3s11,2.1,15.2,6.3c4.2,4.2,6.3,9.2,6.3,15.1
				s-2.1,10.8-6.3,15s-9.3,6.3-15.2,6.3s-11-2.1-15.2-6.3C207.9,105.6,205.8,100.6,205.8,94.8z M216.7,84.1c-2.9,3-4.4,6.5-4.4,10.7
				s1.5,7.7,4.4,10.6s6.4,4.4,10.6,4.4c4.1,0,7.7-1.5,10.6-4.4c2.9-2.9,4.4-6.5,4.4-10.6s-1.5-7.7-4.4-10.7s-6.4-4.5-10.6-4.5
				C223.1,79.7,219.6,81.2,216.7,84.1z"/>
			<path class="st0" d="M258,129.1l-0.1-54.8h6.4v7c1.6-2.5,3.7-4.4,6.2-5.8c2.6-1.4,5.5-2.1,8.6-2.1c5.6,0,10.3,2.1,14.1,6.2
				c3.8,4.1,5.6,9.2,5.6,15.1s-1.9,10.9-5.6,15c-3.8,4.1-8.5,6.2-14.1,6.2c-3,0-5.9-0.7-8.5-2.1s-4.7-3.3-6.4-5.7V129L258,129.1
				L258,129.1z M268.4,84c-2.7,2.9-4,6.5-4,10.7s1.3,7.8,4,10.7c2.7,2.9,6,4.3,10,4.3s7.3-1.4,10-4.3s4-6.4,4-10.7s-1.3-7.8-4-10.7
				c-2.7-2.9-6-4.4-10-4.4S271,81.1,268.4,84z"/>
			<path class="st0" d="M305.8,94.8c0-5.9,2.1-10.9,6.3-15.1c4.2-4.2,9.3-6.3,15.2-6.3c5.9,0,11,2.1,15.2,6.3
				c4.2,4.2,6.3,9.2,6.3,15.1s-2.1,10.8-6.3,15c-4.2,4.2-9.3,6.3-15.2,6.3s-11-2.1-15.2-6.3C307.9,105.6,305.8,100.6,305.8,94.8z
				 M316.8,84.1c-2.9,3-4.4,6.5-4.4,10.7c0,4.1,1.5,7.7,4.4,10.6s6.4,4.4,10.6,4.4s7.7-1.5,10.6-4.4s4.4-6.5,4.4-10.6
				s-1.5-7.7-4.4-10.7s-6.4-4.5-10.6-4.5C323.2,79.7,319.7,81.2,316.8,84.1z"/>
			<path class="st0" d="M355.9,109.7l3.1-5.1c3.4,3.5,7.7,5.3,12.9,5.3c2.9,0,5.4-0.6,7.3-1.7c2-1.1,2.9-2.6,2.9-4.5
				c0-1-0.3-1.8-0.8-2.5s-1.3-1.3-2.4-1.8s-2.1-0.9-3-1.1c-0.9-0.3-2.2-0.6-3.7-1c-2.3-0.6-4.1-1.1-5.5-1.6s-2.8-1.2-4.4-2.1
				s-2.7-2-3.4-3.4c-0.7-1.4-1.1-3-1.1-4.9c0-3.5,1.5-6.3,4.5-8.4c3-2.2,6.4-3.2,10.2-3.2c5,0,9.7,1.5,14.1,4.5l-3.1,5
				c-3.2-2.2-6.8-3.3-10.9-3.3c-2.2,0-4.1,0.5-5.8,1.6c-1.7,1.1-2.5,2.4-2.5,3.9c0,0.9,0.2,1.7,0.7,2.4c0.4,0.7,1.2,1.3,2.3,1.8
				c1.1,0.5,2,0.8,2.8,1s2,0.6,3.6,1c2.2,0.6,4,1.1,5.5,1.6c1.5,0.4,3.1,1.1,4.7,2s2.9,2.1,3.7,3.5c0.8,1.4,1.2,3.1,1.2,5
				c0,4.1-1.7,7.2-5,9.4c-3.4,2.2-7.3,3.2-11.7,3.2C365.3,116.1,359.9,113.9,355.9,109.7L355.9,109.7z"/>
			<path class="st0" d="M395.6,94.8c0-5.9,1.9-11,5.7-15.1c3.8-4.1,8.5-6.2,14.1-6.2c6.6,0,11.6,2.6,15,7.9v-7.1h6.4v40.9h-6.4v-7
				c-3.4,5.2-8.4,7.8-15,7.8c-5.6,0-10.3-2.1-14.1-6.2C397.5,105.7,395.6,100.7,395.6,94.8L395.6,94.8z M406.3,84.1
				c-2.7,2.9-4.1,6.5-4.1,10.8s1.4,7.8,4.1,10.7c2.7,2.9,6.1,4.3,10.2,4.3s7.2-1.4,9.9-4.3c2.7-2.9,4-6.4,4-10.8
				c0-4.3-1.3-7.8-4-10.8c-2.7-2.9-6-4.4-10-4.4C412.4,79.7,409,81.1,406.3,84.1L406.3,84.1z"/>
			<path class="st0" d="M447.9,115.2l0.1-50.1l6.4-0.1v50.2H447.9L447.9,115.2z"/>
			<path class="st0" d="M463.4,109.7l3.1-5.1c3.4,3.5,7.7,5.3,12.9,5.3c2.9,0,5.4-0.6,7.3-1.7c2-1.1,2.9-2.6,2.9-4.5
				c0-1-0.3-1.8-0.8-2.5s-1.3-1.3-2.4-1.8s-2.1-0.9-3-1.1c-0.9-0.3-2.2-0.6-3.7-1c-2.3-0.6-4.1-1.1-5.5-1.6s-2.8-1.2-4.4-2.1
				s-2.7-2-3.4-3.4c-0.7-1.4-1.1-3-1.1-4.9c0-3.5,1.5-6.3,4.5-8.4c3-2.2,6.4-3.2,10.2-3.2c5,0,9.7,1.5,14.1,4.5l-3.1,5
				c-3.2-2.2-6.8-3.3-10.9-3.3c-2.2,0-4.1,0.5-5.8,1.6c-1.7,1.1-2.5,2.3-2.5,3.9c0,0.9,0.2,1.7,0.7,2.4c0.4,0.7,1.2,1.3,2.3,1.8
				c1.1,0.5,2,0.8,2.8,1s2,0.5,3.6,1c2.2,0.6,4,1.1,5.5,1.6c1.5,0.4,3.1,1.1,4.7,2s2.9,2.1,3.7,3.5c0.8,1.4,1.2,3.1,1.2,5
				c0,4.1-1.7,7.2-5,9.4c-3.4,2.2-7.3,3.2-11.7,3.2C472.8,116,467.4,113.9,463.4,109.7L463.4,109.7z"/>
		</g>
		<g>
			<path class="st0" d="M129.5,56V1l6.9,0.1l-0.1,20.6c1.6-2.5,3.8-4.6,6.3-6.1c2.6-1.4,5.4-2.1,8.5-2.1c5.6,0,10.2,2.1,14,6.3
				c3.7,4.2,5.6,9.5,5.6,15.6s-1.9,10.9-5.6,15.1c-3.7,4.2-8.4,6.3-14,6.3c-3.1,0-6-0.7-8.5-2.1c-2.6-1.4-4.8-3.1-6.3-5.6V56H129.5
				L129.5,56z M140.4,24.3c-2.6,3-4,6.6-4,10.9s1.3,8,4,10.9c2.6,2.9,5.9,4.4,9.9,4.4s7.3-1.5,9.9-4.4c2.6-2.9,4-6.6,4-10.9
				s-1.3-8-4-10.9c-2.6-3-5.9-4.4-9.9-4.4C146.3,19.8,143,21.3,140.4,24.3L140.4,24.3z"/>
			<path class="st0" d="M178.2,35c0-6,2.1-11.1,6.2-15.3c4.1-4.2,9-6.3,14.8-6.3c8.9,0,14.3,6,16.2,9.2c2.2,3.9,3.5,9,3.5,15.1H185
				c0.5,4,2.2,7,5,9.5s6.2,3.7,10.1,3.7c5,0,9.3-1.5,12.9-4.7l3,4.7c-4.8,4-10.1,5.9-15.9,5.9c-6.1,0-11.3-2.1-15.5-6.2
				C180.3,46.6,178.2,41.4,178.2,35L178.2,35z M185,32.3l27.5,0.2c-0.4-3.8-1.9-7-4.4-9.5c-2.6-2.5-5.6-3.8-9.2-3.8
				c-3.5,0-6.5,1.2-9.2,3.7C187.1,25.5,185.5,28.6,185,32.3L185,32.3z"/>
			<path class="st0" d="M229.7,43.5V20h-6.2v-5.5h6.2v-9l6.4-1.3v10.3l8.7-0.1V20h-8.7v22.4c0,5.8,2,8.7,5.9,8.7
				c1.1,0,2.3-0.2,3.4-0.6c1.1-0.4,2-0.8,2.6-1.1l0.9-0.6l2.1,5c-3,2-6.2,3.1-9.6,3.1c-3.6,0-6.5-1.1-8.6-3.3
				C230.8,51.4,229.7,48,229.7,43.5L229.7,43.5z"/>
			<path class="st0" d="M260.4,43.5V19.9h-6.3v-5.5h6.3V5.2l6.5-1v10.2h8.7V20h-8.7v22.4c0,5.8,2,8.7,5.9,8.7c1.1,0,2.3-0.2,3.4-0.6
				c1.1-0.4,2-0.8,2.6-1.1l0.9-0.6l2.1,5c-3,2-6.2,3.1-9.6,3.1c-3.7,0-6.6-1.1-8.7-3.3C261.5,51.3,260.4,48,260.4,43.5L260.4,43.5z"
				/>
			<path class="st0" d="M335.1,56V13.7h6.9v9.1c1.3-2.8,3.8-4.9,6.5-6.7c2.8-1.8,5.4-2.4,9.5-2.4v6.9c-4.7,0-7.9,1.4-10.9,4.1
				s-5.1,7.2-5.1,13V56H335.1z"/>
		</g>
	</g>
	<path class="st0" d="M286,35.1c0-6,2.1-11.1,6.2-15.3s9-6.3,14.8-6.3c8.9,0,14.3,6,16.2,9.2c2.2,3.9,3.5,9,3.5,15.1h-33.9
		c0.5,4,2.2,7,5,9.5S304,51,307.9,51c5,0,9.3-1.5,12.9-4.7l3,4.7c-4.8,4-10.1,5.9-15.9,5.9c-5.9,0-11.3-2.1-15.5-6.2
		C288,46.6,285.9,41.4,286,35.1L286,35.1z M292.7,32.4l27.5,0.2c-0.4-3.8-1.9-7-4.4-9.5c-2.6-2.5-5.6-3.8-9.2-3.8
		c-3.5,0-6.5,1.2-9.2,3.7C294.9,25.5,293.3,28.6,292.7,32.4L292.7,32.4z"/>
</g>
</svg>
