<?xml version="1.0" ?>
<svg xmlns="http://www.w3.org/2000/svg" viewBox="0 0 250 25" fill="none">
	<path d="M243.922 9.76299L243.507 6.48559H239.584V23.379H244.106V14.6511C244.716 11.9391 245.674 10.4049 247.739 10.4049C248.247 10.4144 248.752 10.4921 249.239 10.6361L250 6.26327C249.453 6.10422 248.886 6.01906 248.316 6.01003C247.276 6.07752 246.285 6.48057 245.493 7.15877C244.7 7.83698 244.149 8.7538 243.922 9.77182V9.76299ZM232.917 14.9323C232.917 18.7869 231.764 20.5051 229.55 20.5051C227.313 20.5051 226.165 18.8207 226.165 14.9323C226.165 11.0778 227.319 9.34779 229.568 9.34779C231.765 9.35073 232.917 11.0424 232.917 14.9323ZM221.464 14.9323C221.464 20.5404 224.521 23.887 229.538 23.887C234.613 23.887 237.633 20.2872 237.633 14.9323C237.633 9.32423 234.611 5.97764 229.571 5.97764C224.481 5.97911 221.464 9.54361 221.464 14.9323ZM220.715 19.6747C220.146 20.0504 219.484 20.2619 218.802 20.2857C217.648 20.2857 217.118 19.6511 217.118 17.9786V9.6717H220.556L221.007 6.48706H217.123V2.24088L212.601 2.7827V18.0831C212.601 21.8449 214.378 23.8531 217.883 23.887C219.444 23.8884 220.971 23.4351 222.278 22.5825L220.715 19.6747ZM197.416 15.0604C197.416 20.4491 200.507 23.8944 205.547 23.8944C207.568 23.9154 209.531 23.216 211.084 21.9214L209.043 18.99C208.142 19.7982 206.977 20.2495 205.767 20.2592C203.633 20.2592 202.19 18.9547 202.19 15.0324C202.19 11.1102 203.54 9.49355 205.8 9.49355C207.017 9.49198 208.192 9.93076 209.11 10.7288L211.071 8.01681C209.532 6.65436 207.532 5.9285 205.478 5.98647C200.542 5.98647 197.428 9.71292 197.428 15.0678L197.416 15.0604ZM185.951 13.4791C186.17 10.2827 187.276 9.06216 189.065 9.06216C191.223 9.06216 192.076 10.7244 192.076 13.2848V13.4732L185.951 13.4791ZM188.972 5.97911C184.036 5.97911 181.302 9.92494 181.302 15.0251C181.302 20.3254 184.127 23.887 189.543 23.887C191.877 23.896 194.139 23.0829 195.934 21.5902L194.065 19.0519C192.891 19.9717 191.449 20.482 189.959 20.5051C187.791 20.5051 186.267 19.548 185.945 16.3045H196.475C196.509 15.8201 196.58 15.1164 196.58 14.551C196.58 9.16228 193.742 5.97764 188.967 5.97764L188.972 5.97911ZM169.641 8.61457L169.295 6.4797H165.373V23.379H169.894V11.7065C170.817 10.2062 171.832 9.34043 173.132 9.34043C174.286 9.34043 174.978 9.88224 174.978 11.8331V23.3717H179.511V11.0792C179.511 7.88282 177.758 5.97911 174.794 5.97911C173.787 5.97648 172.793 6.21503 171.897 6.67479C171.001 7.13456 170.228 7.8022 169.643 8.62193L169.641 8.61457ZM152.685 8.61457L152.339 6.4797H148.417V23.379H152.938V11.7065C153.861 10.2062 154.876 9.34043 156.176 9.34043C157.33 9.34043 158.022 9.88224 158.022 11.8331V23.3717H162.543V11.0792C162.543 7.88282 160.79 5.97911 157.833 5.97911C156.824 5.97656 155.828 6.21503 154.93 6.67468C154.031 7.13433 153.255 7.80191 152.666 8.62193L152.685 8.61457ZM141.74 14.9264C141.74 18.781 140.598 20.4992 138.372 20.4992C136.147 20.4992 134.987 18.8148 134.987 14.9264C134.987 11.0719 136.141 9.3419 138.402 9.3419C140.593 9.3419 141.747 11.038 141.747 14.9264H141.74ZM130.286 14.9264C130.286 20.5345 133.343 23.8811 138.36 23.8811C143.435 23.8811 146.455 20.2813 146.455 14.9264C146.455 9.31835 143.434 5.97175 138.405 5.97175C133.307 5.97175 130.285 9.53772 130.285 14.9264H130.286ZM113.894 12.3131C113.894 19.8366 117.897 23.887 123.755 23.887C125.011 23.9003 126.257 23.6621 127.42 23.1865C128.582 22.7109 129.638 22.0074 130.525 21.1175L128.376 18.3481C127.176 19.4643 125.619 20.1185 123.982 20.1944C120.96 20.1944 118.83 17.8637 118.83 12.3131C118.83 6.57099 120.998 4.35072 123.929 4.35072C125.416 4.35571 126.846 4.92504 127.93 5.94378L130.285 3.19789C128.457 1.5737 126.073 0.718641 123.63 0.811252C118.128 0.811252 113.894 4.89548 113.894 12.316V12.3131ZM105.564 1.31773H100.835V23.379H105.564V1.31773ZM87.4233 19.8955V13.4732H90.0651C92.4199 13.4732 94.1374 14.3272 94.1374 16.7845C94.1374 19.392 92.258 19.8999 89.6397 19.8999L87.4233 19.8955ZM89.1997 4.69819C91.9106 4.69819 93.2823 5.33276 93.2823 7.37487C93.2823 9.34779 91.9445 10.2709 89.706 10.2709H87.4218V4.69819H89.1997ZM98.0581 6.95968C98.0581 2.88576 94.5171 1.31773 88.7611 1.31773H82.752V23.379H89.6265C95.0469 23.379 99.0148 21.9067 99.0148 16.9744C99.0148 13.3628 96.501 12.1864 94.0211 11.7123C95.1469 11.5245 96.1699 10.9441 96.9088 10.0739C97.6478 9.20375 98.0549 8.10145 98.0581 6.95968Z" fill="black"/>
	<path d="M7.42061 3.11539L7.38528 2.83859L7.27049 2.58535L7.1086 2.36598L6.88931 2.19224L6.63617 2.0877L6.35948 2.05237L6.08279 2.0877L5.82965 2.20255L5.61035 2.3645L5.43669 2.59566L5.3322 2.83859L5.29688 3.11539L5.3322 3.39219L5.44699 3.64542L5.60888 3.87658L5.83995 4.03853L6.08279 4.15338L6.35948 4.18871L6.63617 4.15338L6.88931 4.03853L7.12037 3.87658L7.26755 3.64542L7.38234 3.39219L7.42061 3.11539Z" fill="#967EF9"/>
	<path d="M2.12372 12.347L2.08841 12.0702L1.97361 11.817L1.81172 11.5976L1.58065 11.4239L1.32751 11.3193L1.06259 11.284L0.785909 11.3193L0.532772 11.4342L0.3017 11.5961L0.139807 11.8273L0.0353138 12.0702L0 12.347L0.0353138 12.6238L0.150114 12.8771L0.312008 13.1082L0.53129 13.2702L0.784438 13.385L1.06112 13.4203L1.32604 13.385L1.59095 13.2702L1.81024 13.1082L1.97214 12.8771L2.08694 12.6238L2.12372 12.347Z" fill="#967EF9"/>
	<path d="M7.42061 21.5783L7.38528 21.3015L7.27049 21.0483L7.1086 20.8289L6.88931 20.6552L6.63617 20.5507L6.35948 20.5153L6.08279 20.5507L5.82965 20.6655L5.61035 20.8275L5.43669 21.0586L5.3322 21.3015L5.29688 21.5783L5.3322 21.8551L5.44699 22.1084L5.60888 22.3395L5.83995 22.5015L6.08279 22.6163L6.35948 22.6517L6.63617 22.6163L6.88931 22.5015L7.12037 22.3395L7.26755 22.1084L7.38234 21.8551L7.42061 21.5783Z" fill="#967EF9"/>
	<path d="M18.8512 3.11687L18.782 2.6207L18.598 2.15986L18.3037 1.76822L17.9122 1.47376L17.4515 1.28972L16.9673 1.22052L16.4714 1.28972L16.021 1.47376L15.6295 1.76822L15.3352 2.15986L15.1512 2.6207L15.082 3.11687L15.1512 3.61305L15.3352 4.07388L15.6295 4.45521L16.021 4.76735L16.4817 4.95139L16.9659 5.02059L17.4501 4.95139L17.9107 4.76735L18.3022 4.45521L18.5966 4.06358L18.7805 3.60274L18.8512 3.11687Z" fill="#967EF9"/>
	<path d="M13.5464 12.3484L13.489 11.8522L13.3051 11.3914L13.0107 10.9997L12.6192 10.7053L12.1586 10.5212L11.6744 10.452L11.1784 10.5212L10.728 10.7053L10.3366 10.9997L10.0422 11.3914L9.85824 11.8522L9.78906 12.3484L9.85824 12.8446L10.0422 13.3054L10.3366 13.6867L10.728 13.9989L11.1887 14.1829L11.6729 14.2521L12.1689 14.1829L12.6192 13.9989L13.0107 13.6867L13.3051 13.2951L13.489 12.8342L13.5464 12.3484Z" fill="#967EF9"/>
	<path d="M18.8512 21.5784L18.782 21.0822L18.598 20.6214L18.3037 20.2298L17.9122 19.9353L17.4515 19.7513L16.9673 19.6821L16.4714 19.7513L16.021 19.9353L15.6295 20.2298L15.3352 20.6214L15.1512 21.0822L15.082 21.5784L15.1512 22.0746L15.3352 22.5354L15.6295 22.9168L16.021 23.2289L16.4817 23.4129L16.9659 23.4821L17.4501 23.4129L17.9107 23.2289L18.3022 22.9168L18.5966 22.5251L18.7805 22.0643L18.8512 21.5784Z" fill="#967EF9"/>
	<path d="M30.6653 3.11691L30.5505 2.30861L30.2561 1.55919L29.7601 0.912842L29.1258 0.416669L28.3767 0.104537L27.5687 0L26.7725 0.114843L26.0234 0.409306L25.3773 0.905479L24.8931 1.55183L24.5811 2.30124L24.4766 3.10955L24.5811 3.91785L24.8931 4.66727L25.3773 5.31362L26.0234 5.80979L26.7725 6.12193L27.5805 6.22646L28.3767 6.11162L29.1258 5.81715L29.7601 5.32098L30.2561 4.67463L30.5681 3.92522L30.6653 3.11691Z" fill="#7052E8"/>
	<path d="M42.845 3.11691L42.7302 2.30861L42.4358 1.55919L41.9398 0.912842L41.3055 0.416669L40.5564 0.104537L39.7484 0L38.9522 0.114843L38.2031 0.409306L37.557 0.905479L37.0728 1.55183L36.7607 2.30124L36.6562 3.10955L36.7711 3.91785L37.0654 4.66727L37.5496 5.31362L38.1957 5.80979L38.9448 6.12193L39.7528 6.22646L40.549 6.11162L41.2982 5.81715L41.9325 5.32098L42.4284 4.67463L42.7405 3.92522L42.845 3.11691Z" fill="#28BC95"/>
	<path d="M52.2438 3.11687L52.1746 2.6207L51.9906 2.15986L51.6963 1.76822L51.3048 1.47376L50.8441 1.28972L50.3599 1.22052L49.8639 1.28972L49.4136 1.47376L49.0221 1.76822L48.7277 2.15986L48.5438 2.6207L48.4746 3.11687L48.5438 3.61305L48.7277 4.07388L49.0221 4.45521L49.4136 4.76735L49.8742 4.95139L50.3584 5.02059L50.8427 4.95139L51.3033 4.76735L51.6948 4.45521L51.9891 4.06358L52.1731 3.60274L52.2438 3.11687Z" fill="#00B0D5"/>
	<path d="M57.5372 12.3484L57.4798 11.8522L57.2841 11.3914L56.9897 10.9997L56.5982 10.7053L56.1376 10.5212L55.6534 10.452L55.1692 10.5212L54.7085 10.7053L54.317 10.9997L54.0227 11.3914L53.8387 11.8522L53.7695 12.3484L53.8387 12.8446L54.0227 13.3054L54.317 13.6867L54.7085 13.9989L55.1692 14.1829L55.6534 14.2521L56.1494 14.1829L56.61 13.9989L56.9912 13.6867L57.2855 13.2951L57.4813 12.8342L57.5372 12.3484Z" fill="#00B0D5"/>
	<path d="M52.2438 21.5784L52.1746 21.0822L51.9906 20.6214L51.6963 20.2298L51.3048 19.9353L50.8441 19.7513L50.3599 19.6821L49.8639 19.7513L49.4136 19.9353L49.0221 20.2298L48.7277 20.6214L48.5438 21.0822L48.4746 21.5784L48.5438 22.0746L48.7277 22.5354L49.0221 22.9168L49.4136 23.2289L49.8742 23.4129L50.3584 23.4821L50.8427 23.4129L51.3033 23.2289L51.6948 22.9168L51.9891 22.5251L52.1731 22.0643L52.2438 21.5784Z" fill="#00B0D5"/>
	<path d="M61.981 3.39389L61.8662 3.64713L61.7043 3.87829L61.485 4.04024L61.2319 4.15508L60.9552 4.19042L60.6785 4.15508L60.4254 4.04024L60.2061 3.87829L60.0324 3.64713L59.9279 3.39389L59.8926 3.1171L59.9279 2.8403L60.0427 2.58706L60.2046 2.36768L60.4357 2.19395L60.6785 2.08941L60.9552 2.05408L61.2319 2.08941L61.485 2.20425L61.7161 2.36621L61.8633 2.59736L61.9781 2.8403L62.0119 3.1171L61.981 3.39389ZM67.2631 12.6254L67.1586 12.8786L66.9967 13.1098L66.7656 13.2717L66.5228 13.3866L66.2461 13.4219L65.9694 13.3866L65.7163 13.2717L65.497 13.1098L65.3351 12.8786L65.2203 12.6254L65.1968 12.3486L65.2321 12.0718L65.3366 11.8185L65.4985 11.5992L65.7295 11.4254L65.9724 11.3209L66.2491 11.2855L66.5258 11.3209L66.7789 11.4357L66.9982 11.5977L67.1601 11.8288L67.2749 12.0718L67.2984 12.3486L67.2631 12.6254ZM61.981 21.8568L61.8662 22.1101L61.7043 22.3412L61.485 22.5032L61.2319 22.618L60.9552 22.6534L60.6785 22.618L60.4254 22.5032L60.2061 22.3412L60.0324 22.1101L59.9279 21.8568L59.8926 21.58L59.9279 21.3032L60.0427 21.05L60.2046 20.8306L60.4357 20.6569L60.6785 20.5524L60.9552 20.517L61.2319 20.5524L61.485 20.6672L61.7161 20.8292L61.8633 21.0603L61.9781 21.3032L62.0119 21.58L61.981 21.8568Z" fill="#59B1FC"/>
	<path d="M25.7261 12.7955C25.7637 12.5004 25.7645 12.1991 25.7278 11.9039L25.7232 11.8664C25.6868 11.5736 25.6122 11.2868 25.5015 11.0134C25.3827 10.7202 25.2234 10.445 25.0283 10.1961L25.0147 10.1787C24.8359 9.95057 24.6299 9.74527 24.4011 9.56738L24.3898 9.55859C24.1434 9.36699 23.8721 9.20971 23.5834 9.09105C23.3133 8.98004 23.0302 8.90377 22.7409 8.86407L22.699 8.85832C22.4035 8.81777 22.104 8.81589 21.808 8.85273L21.7925 8.85466C21.4864 8.89276 21.1871 8.97329 20.9032 9.09393C20.6285 9.21068 20.3708 9.36392 20.137 9.5495L20.0971 9.58118C19.8746 9.75776 19.6716 9.96358 19.4974 10.1878C19.3 10.4419 19.1358 10.7256 19.015 11.0237C18.9062 11.2924 18.8313 11.5736 18.7919 11.8607L18.7862 11.9019C18.7453 12.2003 18.7435 12.5031 18.7806 12.802C18.8196 13.1154 18.9013 13.4223 19.0233 13.7136C19.1386 13.989 19.2891 14.2485 19.471 14.4854L19.4929 14.5139C19.6717 14.7468 19.8795 14.9559 20.1114 15.1362C20.3621 15.3312 20.6414 15.4917 20.9358 15.611C21.2044 15.7199 21.4881 15.796 21.7752 15.8354L21.8234 15.842C22.117 15.8823 22.416 15.8837 22.7101 15.8467C23.0186 15.8078 23.3218 15.7261 23.608 15.6045C23.8805 15.4887 24.1365 15.3375 24.3694 15.1548L24.3937 15.1358C24.6332 14.948 24.8498 14.7275 25.034 14.4854C25.2144 14.2483 25.366 13.9865 25.481 13.7118C25.6034 13.4197 25.686 13.1096 25.7261 12.7955Z" fill="#7052E8"/>
	<path d="M49.3029 12.3484L43.5352 7.94031V16.7566L49.3029 12.3484Z" fill="#7052E8"/>
	<path d="M22.7734 13.5012V11.194H45.8416V13.5012H22.7734Z" fill="#7052E8"/>
	<path d="M30.6653 21.5799L30.5505 20.7716L30.2561 20.0221L29.7601 19.3758L29.1258 18.8796L28.3767 18.5675L27.5687 18.463L26.7725 18.5778L26.0234 18.8723L25.3773 19.3684L24.8931 20.0148L24.5811 20.7642L24.4766 21.5725L24.5811 22.3808L24.8931 23.1302L25.3773 23.7766L26.0234 24.2727L26.7725 24.5849L27.5805 24.6894L28.3767 24.5746L29.1258 24.2801L29.7601 23.7839L30.2561 23.1376L30.5681 22.3882L30.6653 21.5799Z" fill="#7052E8"/>
	<path d="M42.845 21.5799L42.7302 20.7716L42.4358 20.0221L41.9398 19.3758L41.3055 18.8796L40.5564 18.5675L39.7484 18.463L38.9522 18.5778L38.2031 18.8723L37.557 19.3684L37.0728 20.0148L36.7607 20.7642L36.6562 21.5725L36.7711 22.3808L37.0654 23.1302L37.5496 23.7766L38.1957 24.2727L38.9448 24.5849L39.7528 24.6894L40.549 24.5746L41.2982 24.2801L41.9325 23.7839L42.4284 23.1376L42.7405 22.3882L42.845 21.5799Z" fill="#28BC95"/>
</svg>