<?xml version="1.0" ?>
<svg xmlns="http://www.w3.org/2000/svg" viewBox="0 0 538 150" fill="currentColor" class="w-[99px] h-[29px] lg:w-[124px] lg:h-[36px]">
	<path d="M0 89.2517C0 87.3904 1.30588 85.7394 3.14463 85.4241C4.49553 85.1916 5.53875 84.7936 6.26673 84.2233C7.48254 83.2703 8.09797 81.8743 8.09797 80.0431V21.0307C8.09797 19.1994 7.49004 17.811 6.26673 16.8504C5.53875 16.28 4.49553 15.8747 3.14463 15.6496C1.30588 15.3343 0 13.6832 0 11.822V9.78811C0 7.63415 1.74868 5.88547 3.90264 5.88547H44.7826C49.7435 5.88547 54.2916 6.32076 58.4269 7.19135C62.5621 8.06193 66.1496 9.39033 69.1966 11.1765C72.2438 12.9627 74.6153 15.2068 76.3116 17.9011C78.0076 20.6029 78.8557 23.7775 78.8557 27.4325C78.8557 32.4834 77.0096 36.6187 73.3093 39.8383C71.0278 41.8271 68.2061 43.4784 64.8512 44.7992C63.1701 45.4595 63.2902 47.8687 65.0163 48.3715C66.2697 48.7393 67.4857 49.1522 68.6713 49.6249C71.9812 50.9309 74.8254 52.5819 77.2196 54.5858C79.6136 56.5897 81.4826 58.8937 82.8335 61.5054C84.1842 64.1173 84.8597 67.0366 84.8597 70.2489C84.8597 74.6918 83.7491 78.4744 81.5275 81.6041C79.306 84.741 76.3715 87.3305 72.7165 89.3718C69.0616 91.4207 64.8363 92.8991 60.0554 93.8074C55.2674 94.723 50.3515 95.1809 45.3006 95.1809H3.90264C1.74868 95.1809 0 93.432 0 91.2782V89.2517ZM38.516 43.3583C44.3473 43.3583 48.6102 42.1423 51.3121 39.7034C54.0065 37.2641 55.3574 33.9618 55.3574 29.7815C55.3574 25.864 54.2241 22.6218 51.9651 20.055C49.6985 17.4883 46.2236 16.2049 41.518 16.2049H39.5593C37.2927 16.2049 35.574 16.5126 34.4033 17.1205C33.225 17.7285 32.6395 18.9518 32.6395 20.7755V41.4669C32.6395 42.5178 33.4876 43.3656 34.5382 43.3656H38.516V43.3583ZM42.824 84.8687C48.3102 84.8687 52.4828 83.4579 55.3574 80.6283C58.2317 77.799 59.6654 74.0315 59.6654 69.3333C59.6654 64.0273 57.9466 60.0869 54.5093 57.5203C51.072 54.9536 46.1713 53.6702 39.822 53.6702H34.5382C33.4876 53.6702 32.6395 54.5183 32.6395 55.5689V80.3057C32.6395 82.137 33.225 83.3527 34.4033 83.9607C35.5816 84.5687 37.2927 84.8763 39.5593 84.8763H42.824V84.8687Z"/>
	<path d="M123.803 90.0569C123.803 88.0453 125.327 86.3718 127.323 86.1393C128.847 85.9666 129.92 85.6514 130.528 85.2011C131.526 84.4655 132.029 83.3547 132.029 81.8687V26.2562C132.029 23.9522 130.16 22.0759 127.849 22.0759C125.545 22.0759 123.668 20.2072 123.668 17.8956V16.4021C123.668 14.9761 124.396 13.6477 125.597 12.8822L143.925 1.18932C144.6 0.76153 145.373 0.536377 146.176 0.536377H148.87C151.174 0.536377 153.051 2.40514 153.051 4.71669V81.8763C153.051 83.3547 153.508 84.4655 154.424 85.2085C154.957 85.6438 155.903 85.9514 157.261 86.1317C159.25 86.3943 160.751 88.0453 160.751 90.0493V91.2577C160.751 93.434 158.987 95.1978 156.811 95.1978H127.744C125.567 95.1978 123.803 93.434 123.803 91.2577V90.0569Z"/>
	<path d="M163.195 90.0569C163.195 88.0453 164.718 86.3718 166.715 86.1393C168.238 85.9666 169.312 85.6514 169.92 85.2011C170.918 84.4655 171.42 83.3547 171.42 81.8687V26.2562C171.42 23.9522 169.552 22.0759 167.24 22.0759C164.936 22.0759 163.06 20.2072 163.06 17.8956V16.4021C163.06 14.9761 163.788 13.6477 164.989 12.8822L183.308 1.18932C183.984 0.76153 184.765 0.536377 185.56 0.536377H188.254C190.558 0.536377 192.435 2.40514 192.435 4.71669V81.8763C192.435 83.3547 192.893 84.4655 193.808 85.2085C194.341 85.6438 195.287 85.9514 196.645 86.1317C198.634 86.3943 200.135 88.0453 200.135 90.0493V91.2577C200.135 93.434 198.371 95.1978 196.195 95.1978H167.128C164.951 95.1978 163.188 93.434 163.188 91.2577V90.0569H163.195Z"/>
	<path d="M204.209 112.153C201.319 115.681 212.129 111.219 215.118 106.686C216.643 104.373 217.026 100.71 216.954 96.1013C216.882 93.509 216.666 90.6291 216.306 87.4607C216.018 84.2925 215.586 80.6924 215.01 76.66C214.218 72.2677 213.282 68.3077 212.202 64.7796C211.194 61.2512 210.042 58.335 208.746 56.031C208.314 55.3108 207.81 54.6988 207.234 54.1949C206.73 53.6907 206.118 53.2947 205.398 53.0068C204.966 52.8628 204.497 52.7548 203.994 52.6828C203.49 52.5388 202.769 52.4306 201.833 52.3586C200.537 52.2866 199.565 51.8186 198.917 50.9545C198.269 50.0186 198.053 48.9024 198.269 47.6063C198.413 46.2382 198.917 45.0144 199.781 43.9342C200.645 42.7821 201.833 41.8099 203.345 41.018C204.497 40.3701 205.722 39.7579 207.018 39.182C208.314 38.5338 209.682 37.9578 211.122 37.4539C212.85 36.8057 214.29 36.3738 215.442 36.1578C216.594 35.8698 217.818 35.7256 219.114 35.7256C220.699 35.7256 222.103 36.1218 223.327 36.9137C224.551 37.7059 225.631 38.93 226.567 40.5861C227.863 43.0341 229.123 46.3462 230.347 50.5225C231.571 54.6269 232.579 59.0551 233.371 63.8074C234.091 68.4157 234.595 72.628 234.883 76.4441C235.171 80.2604 235.279 84.0045 235.207 87.6769C235.207 88.6128 235.279 89.261 235.423 89.6209C235.639 89.9809 235.999 90.1609 236.503 90.1609C236.863 90.1609 237.332 89.9089 237.907 89.405C238.484 88.8288 239.204 87.8569 240.068 86.4888C241.724 83.9685 243.164 81.1603 244.388 78.0641C245.612 74.896 246.404 71.9078 246.764 69.0996C247.052 66.5076 247.088 64.1673 246.872 62.0793C246.728 59.919 246.332 57.939 245.684 56.1389C245.252 55.1308 244.748 54.1229 244.172 53.1148C243.668 52.1066 243.056 51.1347 242.336 50.1986C241.256 48.7585 240.5 47.4623 240.068 46.3102C239.708 45.0864 239.6 43.8982 239.744 42.7461C239.887 40.5861 240.824 38.858 242.552 37.5619C244.352 36.1938 246.656 35.5096 249.464 35.5096C251.84 35.5096 253.965 35.9418 255.837 36.8057C257.709 37.6699 259.293 38.966 260.589 40.6941C262.389 43.214 263.541 46.3102 264.045 49.9826C264.549 53.5827 264.405 58.119 263.613 63.5914C262.749 69.9997 261.057 76.0481 258.537 81.7365C256.089 87.4247 252.704 93.0051 248.384 98.4775C241.76 106.614 234.811 112.77 227.539 116.947C220.267 121.195 212.85 123.319 205.29 123.319C199.025 123.319 194.309 121.843 191.141 118.891C187.9 115.938 186.175 112.122 186.895 107.442C187.184 104.706 188.693 102.546 190.493 100.962C192.221 99.4494 194.381 98.6935 196.973 98.6935C198.485 98.6935 199.755 99.0343 200.861 99.5574C205.118 101.57 207.1 108.625 204.209 112.153Z"/>
	<path d="M299.426 97.7495C294.983 97.7495 290.894 96.9014 287.157 95.2053C283.411 93.5091 280.169 91.2051 277.43 88.2858C274.691 85.3738 272.552 81.9365 271.036 77.9736C269.512 74.011 268.754 69.8156 268.754 65.3727C268.754 60.3294 269.625 55.7363 271.366 51.601C273.107 47.4658 275.501 43.9233 278.548 40.9587C281.594 38.0017 285.205 35.7127 289.384 34.1066C293.566 32.5006 298.085 31.6899 302.961 31.6899C306.617 31.6899 309.927 32.1252 312.882 32.9958C315.841 33.8665 318.346 35.0673 320.388 36.5833C322.43 38.1069 323.999 39.8479 325.087 41.8069C325.529 42.6097 325.891 43.4354 326.153 44.2759C327.362 48.126 326.04 52.4115 322.852 54.8881C322.835 54.903 322.812 54.9106 322.798 54.9255C321.665 55.7962 320.742 56.4587 319.21 56.952C314.606 58.4351 309.674 56.952 307.525 52.8465C305.377 48.7413 308.484 43.7796 308.276 43.547C307.067 42.1871 305.003 41.7242 304.134 41.4165C303.262 41.1089 302.255 40.9587 301.13 40.9587C297.821 40.9587 295.231 42.4823 293.363 45.5293C291.488 48.5763 290.557 53.6272 290.557 60.6744C290.557 67.7217 292.036 73.358 294.992 77.5833C297.95 81.8088 302.129 83.9177 307.525 83.9177C309.266 83.9177 310.835 83.8128 312.224 83.5875C313.611 83.3699 314.941 83.002 316.209 82.4767C317.469 81.9514 318.729 81.3209 319.992 80.5856C320.681 80.1803 321.403 79.7298 322.16 79.2346C323.285 78.4916 324.795 78.6941 325.695 79.7073C326.544 80.6606 326.611 82.0791 325.869 83.1148C324.727 84.7056 323.512 86.2068 322.213 87.6328C320.427 89.5915 318.408 91.3327 316.142 92.8564C313.875 94.3797 311.375 95.5732 308.636 96.4435C305.889 97.3142 302.821 97.7495 299.426 97.7495Z"/>
	<path d="M345.664 97.7962C343.397 97.7962 341.266 97.4283 339.269 96.6853C337.267 95.9424 335.523 94.8991 334.047 93.5557C332.568 92.2048 331.412 90.5987 330.585 88.7225C329.761 86.8538 329.348 84.8274 329.348 82.651C329.348 77.7801 331.17 73.8625 334.834 70.898C338.49 67.941 344.32 65.2391 352.329 62.8001L361.921 59.9556C363.279 59.5504 364.207 58.3046 364.207 56.8861V55.4902C364.207 50.4466 361.859 47.9176 357.16 47.9176C354.114 47.9176 350.872 48.5478 347.435 49.8088C344.719 50.8068 341.873 52.1204 338.917 53.7413C337.537 54.4995 335.81 54.1468 334.848 52.9008L334.182 52.0304C333.257 50.8293 333.287 49.1333 334.286 47.9924C335.765 46.2888 337.362 44.6527 339.089 43.0841C341.482 40.9078 344.072 38.9713 346.856 37.2753C349.64 35.5791 352.554 34.2284 355.599 33.2301C358.647 32.232 361.738 31.7289 364.868 31.7289C371.398 31.7289 376.426 33.7554 379.947 37.8007C383.473 41.8459 385.231 47.9176 385.231 56.0155V79.9041C385.231 82.6884 386.19 84.0844 388.105 84.0844C388.802 84.0844 389.477 83.7767 390.132 83.1688C390.2 83.1013 390.267 83.0411 390.335 82.9736C391.437 81.8929 393.147 81.7354 394.415 82.6134C395.782 83.5667 396.209 85.4202 395.363 86.8538C393.681 89.6983 391.541 91.9947 388.954 93.7436C385.599 96.0026 382.182 97.1359 378.701 97.1359C374.874 97.1359 371.654 96.0701 369.041 93.9384C367.894 93.0003 366.949 91.8971 366.204 90.6139C365.065 88.6474 362.362 88.4297 360.914 90.1786C359.587 91.777 358.091 93.1657 356.44 94.3288C353.169 96.6479 349.573 97.7962 345.664 97.7962ZM355.059 84.482C356.628 84.482 358.212 83.7843 359.826 82.3957C361.274 81.1499 362.596 79.4764 363.796 77.3825C364.066 76.9095 364.201 76.3617 364.201 75.8139V70.7554C364.201 68.4365 361.805 66.8828 359.691 67.8285L358.063 68.5566C355.188 69.8622 353.057 71.2357 351.668 72.6693C350.273 74.1027 349.581 75.9564 349.581 78.2154C349.581 80.2194 350.107 81.7652 351.15 82.8535C352.185 83.9418 353.49 84.482 355.059 84.482Z"/>
	<path d="M396.139 89.9764C396.139 88.0402 397.542 86.4041 399.454 86.0664C400.498 85.8788 401.288 85.5934 401.819 85.1958C402.818 84.4604 403.321 83.3496 403.321 81.8634V57.0667C403.321 54.9727 401.625 53.2843 399.539 53.2843C397.444 53.2843 395.756 51.588 395.756 49.5017V47.3552C395.756 46.0869 396.395 44.901 397.452 44.1955L413.431 33.6134C415.27 32.3977 417.43 31.7447 419.637 31.7447H421.819C423.217 31.7447 424.342 32.878 424.342 34.2663V38.8293C424.342 41.1485 427.216 42.2216 428.732 40.473L428.777 40.4204C430.256 38.7244 431.735 37.2233 433.214 35.9176C434.691 34.6117 436.147 33.5909 437.59 32.8479C439.021 32.1125 440.396 31.7371 441.701 31.7371C444.224 31.7371 446.549 32.9531 448.69 35.392C450.188 37.1108 451.496 39.0852 452.359 42.0239C455.073 51.25 447.205 57.0667 440.692 54.5065C435.141 52.3243 438.692 44.1955 432.823 47.9938C428.209 50.9787 424.263 53.2365 424.328 57.0667C424.342 57.9674 424.328 81.8634 424.328 81.8634C424.328 83.342 424.651 84.4528 425.304 85.1958C425.633 85.5636 426.167 85.8411 426.918 86.0287C428.642 86.4567 429.806 88.0852 429.806 89.8639V91.2222C429.806 93.4137 428.034 95.1851 425.844 95.1851H400.087C397.894 95.1851 396.122 93.4137 396.122 91.2222V89.9764H396.139Z"/>
	<path d="M459.423 46.1283C456.994 45.9255 455.087 43.9444 455.087 41.5051V39.869C455.087 38.0903 456.302 36.5442 458.02 36.1089C459.71 35.6887 461.257 35.1783 462.66 34.5928C464.837 33.6848 466.749 32.4241 468.4 30.8254C470.051 29.2194 471.493 27.253 472.708 24.9114C473.58 23.2378 474.404 21.324 475.186 19.1701C475.771 17.5565 477.278 16.4682 478.999 16.4682H480.273C482.607 16.4682 484.46 18.4421 484.303 20.7761L483.667 30.5327C483.532 32.6041 485.174 34.3603 487.247 34.3603H492.402C495.973 34.3603 498.645 37.6474 497.902 41.1449L497.798 41.6477C497.25 44.252 494.952 46.1134 492.298 46.1134H486.87C484.89 46.1134 483.282 47.7194 483.282 49.7005V75.0602C483.282 78.8128 483.763 81.3721 484.716 82.723C485.669 84.0737 487.157 84.7568 489.151 84.7568C490.894 84.7568 492.371 84.3665 493.588 83.5785C494.061 83.2708 494.525 82.948 494.992 82.603C496.251 81.6648 498.015 81.8372 499.066 83.0082C499.944 83.9913 500.11 85.4399 499.435 86.5732C497.7 89.47 495.607 91.9466 493.138 94.018C490.135 96.5397 486.024 97.8007 480.799 97.8007C478.45 97.8007 476.139 97.4328 473.878 96.6899C471.611 95.9469 469.64 94.8136 467.936 93.29C466.24 91.7666 464.865 89.7776 463.822 87.3386C462.778 84.8918 462.253 81.9725 462.253 78.565V49.6856C462.269 47.772 462.036 46.3459 459.423 46.1283Z"/>
	<path d="M118.124 86.1249C116.765 85.9449 115.819 85.6373 115.287 85.2019C114.371 84.4663 113.913 83.3558 113.913 81.8695V42.3029C113.913 41.0495 112.412 40.3816 111.504 41.2523C108.059 44.5546 103.391 46.5807 98.2427 46.5807C97.0045 46.5807 95.7961 46.4607 94.6252 46.2357C93.7323 46.063 92.8991 46.7233 92.8991 47.6316V81.8771C92.8991 83.3558 92.3962 84.4663 91.3982 85.2092C90.7902 85.6598 89.7244 85.975 88.1935 86.1474C86.1971 86.3802 84.6735 88.0537 84.6735 90.0653V91.2585C84.6735 93.4351 86.4373 95.1986 88.6136 95.1986H117.681C119.857 95.1986 121.621 93.4351 121.621 91.2585V90.0501C121.613 88.0388 120.105 86.3878 118.124 86.1249Z"/>
	<path d="M91.6125 34.2903C89.5461 31.6069 88.8245 28.5692 89.446 25.1876C90.0672 21.8059 91.8692 18.9619 94.8501 16.6662C97.8313 14.3707 101.041 13.3549 104.469 13.6182C107.898 13.8814 110.65 15.3551 112.717 18.0382C114.783 20.7214 115.504 23.7593 114.883 27.1409C114.262 30.5225 112.46 33.3667 109.479 35.6623C106.498 37.9579 103.288 38.9736 99.8597 38.7104C96.4314 38.4472 93.6786 36.9733 91.6125 34.2903Z"/>
	<path d="M322.904 141.638H326.073V132.657H332.568C339.973 132.657 343.498 129.823 343.498 123.436C343.498 117.089 339.973 114.494 332.568 114.494H322.904V141.638ZM332.568 117.488C337.716 117.488 340.132 119.045 340.132 123.436C340.132 127.867 337.716 129.663 332.568 129.663H326.073V117.488H332.568Z"/>
	<path d="M352.215 142.038C355.938 142.038 358.196 140.601 359.423 138.565C359.74 140.76 360.889 141.638 363.74 141.638H364.611V138.804H363.74C362.75 138.804 362.196 138.205 362.196 136.449V128.625C362.196 124.114 359.819 122.078 354.354 122.078C349.166 122.078 346.671 124.314 346.513 128.066H349.443C349.641 125.791 350.909 124.673 354.394 124.673C357.522 124.673 359.106 125.791 359.305 128.545C358.79 132.777 345.879 128.944 345.879 136.728C345.879 141.04 349.126 142.038 352.215 142.038ZM348.928 136.689C348.928 132.337 356.097 134.333 359.305 131.858V133.495C359.305 136.888 357.245 139.642 353.008 139.642C350.196 139.642 348.928 138.445 348.928 136.689Z"/>
	<path d="M372.37 141.479L371.34 143.914C370.271 146.429 368.687 146.828 366.667 146.828V149.622H367.023C369.756 149.622 372.093 149.502 374.31 144.353L383.736 122.478H380.568L373.914 137.926L367.855 122.478H364.647L372.37 141.479Z"/>
	<path d="M386.903 149.622H389.873V138.724C391.299 141 393.596 142.038 396.605 142.038C401.754 142.038 405.477 138.964 405.477 132.058C405.477 125.152 401.754 122.078 396.605 122.078C393.556 122.078 391.259 123.156 389.833 125.472L389.477 122.478H386.903V149.622ZM389.873 129.623C390.586 126.15 392.922 124.673 395.972 124.673C399.615 124.673 402.308 126.829 402.308 132.058C402.308 137.287 399.615 139.443 395.972 139.443C392.922 139.443 390.586 137.966 389.873 134.453V129.623Z"/>
	<path d="M414.792 142.038C418.515 142.038 420.772 140.601 422 138.565C422.317 140.76 423.465 141.638 426.317 141.638H427.188V138.804H426.317C425.327 138.804 424.772 138.205 424.772 136.449V128.625C424.772 124.114 422.396 122.078 416.931 122.078C411.743 122.078 409.248 124.314 409.089 128.066H412.02C412.218 125.791 413.485 124.673 416.97 124.673C420.099 124.673 421.683 125.791 421.881 128.545C421.366 132.777 408.455 128.944 408.455 136.728C408.455 141.04 411.703 142.038 414.792 142.038ZM411.505 136.689C411.505 132.337 418.673 134.333 421.881 131.858V133.495C421.881 136.888 419.822 139.642 415.584 139.642C412.772 139.642 411.505 138.445 411.505 136.689Z"/>
	<path d="M441.057 141.638H444.225V132.657H450.72C458.126 132.657 461.651 129.823 461.651 123.436C461.651 117.089 458.126 114.494 450.72 114.494H441.057V141.638ZM450.72 117.488C455.869 117.488 458.285 119.045 458.285 123.436C458.285 127.867 455.869 129.663 450.72 129.663H444.225V117.488H450.72Z"/>
	<path d="M465.993 141.638H468.964V114.494H465.993V141.638Z"/>
	<path d="M479.65 142.038C483.373 142.038 485.63 140.601 486.858 138.565C487.175 140.76 488.324 141.638 491.175 141.638H492.046V138.804H491.175C490.185 138.804 489.63 138.205 489.63 136.449V128.625C489.63 124.114 487.254 122.078 481.789 122.078C476.601 122.078 474.106 124.314 473.947 128.066H476.878C477.076 125.791 478.343 124.673 481.829 124.673C484.957 124.673 486.541 125.791 486.739 128.545C486.225 132.777 473.314 128.944 473.314 136.728C473.314 141.04 476.561 142.038 479.65 142.038ZM476.363 136.689C476.363 132.337 483.532 134.333 486.739 131.858V133.495C486.739 136.888 484.68 139.642 480.442 139.642C477.631 139.642 476.363 138.445 476.363 136.689Z"/>
	<path d="M495.232 141.638H498.202V133.575C498.202 128.745 499.905 124.673 504.499 124.673C507.232 124.673 509.608 125.831 509.608 129.942V141.638H512.578V129.942C512.618 124.394 509.964 122.078 505.489 122.078C501.608 122.078 499.351 123.635 498.123 126.15L497.806 122.478H495.232V141.638Z"/>
	<path d="M516.741 132.058C516.741 138.964 520.781 142.038 526.286 142.038C530.603 142.038 533.85 140.201 535.078 136.13H531.87C530.84 138.485 528.781 139.443 526.286 139.443C522.088 139.443 520.147 136.609 519.91 132.777H535.474V130.182C535.276 124.913 531.276 122.078 526.286 122.078C520.781 122.078 516.741 125.152 516.741 132.058ZM520.068 130.182C520.583 126.948 522.524 124.673 526.286 124.673C529.652 124.673 532.266 126.669 532.266 130.182H520.068Z"/>
	<path d="M270.282 141.534H272.857L273.214 138.601C274.601 140.86 276.82 141.93 279.792 141.93C284.824 141.93 288.866 138.879 288.866 132.024C288.866 125.169 284.824 122.117 279.792 122.117C276.86 122.117 274.641 123.148 273.254 125.367V114.589H270.282V141.534ZM273.254 129.646C273.967 126.159 276.305 124.693 279.356 124.693C283.001 124.693 285.696 126.833 285.696 132.024C285.696 137.215 283.001 139.354 279.356 139.354C276.305 139.354 273.967 137.888 273.254 134.441V129.646Z"/>
	<path d="M297.611 141.375L296.58 143.792C295.511 146.289 293.926 146.685 291.905 146.685V149.459C292.024 149.459 292.142 149.459 292.261 149.459C294.995 149.459 297.333 149.34 299.552 144.228L308.983 122.514H305.813L299.156 137.849L293.093 122.514H289.884L297.611 141.375Z"/>
</svg>