<?xml version="1.0" ?>
<!-- Generator: Adobe Illustrator 27.3.1, SVG Export Plug-In . SVG Version: 6.00 Build 0)  -->
<svg xmlns="http://www.w3.org/2000/svg" viewBox="0 0 165 65" enable-background="new 0 0 165 65">
	<style type="text/css">
	.st0{fill:#E50914;}
	.st1{fill:#666666;}
	.st2{fill:#2E2E2E;}
</style>
	<path class="st0" d="M0,10.8C0,3.6,4.7,0,14.2,0h3.5c11.8,0,17.7,4.8,17.7,14.4c0,4.8-1.5,8.4-4.4,10.8c3,2.4,4.4,6,4.4,10.8  c0,9.6-5.9,14.4-17.7,14.4h-3.5C4.7,50.6,0,46.9,0,39.7V10.8z M17.7,7.2h-3.2c-2.2,0-3.2,1.2-3.2,3.6v10.8h6.5  c4.3,0,6.5-2.4,6.5-7.2C24.2,9.6,22.1,7.2,17.7,7.2z M17.7,28.9h-6.5v10.9c0,2.4,1.1,3.6,3.2,3.6h3.2c4.3,0,6.5-2.4,6.5-7.3  S22.1,28.9,17.7,28.9z"/>
	<path class="st0" d="M38.6,50.6h10.6V17.9c0-1.5-1.6-2.5-2.9-1.7L39.8,20c-0.7,0.4-1.2,1.2-1.2,2.1V50.6z"/>
	<path class="st0" d="M86.8,32.5v18.1H76.2V32.5c0-7.2-2.4-10.8-7.1-10.8l-2.5,0c-2.4,0-3.5,1.2-3.5,3.6v25.3H52.4V25.3  c0-7.2,4.7-10.8,14.2-10.8l2.5,0C80.9,14.4,86.8,20.4,86.8,32.5z"/>
	<path class="st0" d="M107.7,50.6c-11.8,0-17.7-6-17.7-18c0-10,7.9-18.1,17.7-18.1h3.5c9.4,0,14.2,3.6,14.2,10.8v21.7  c0,10-7.9,18.1-17.7,18.1h-8.1c-1.2,0-1.9-1.5-1.2-2.4l2.6-3.3c0.7-0.9,1.9-1.5,3-1.5h3.6c4.1,0,6.4-2.7,6.9-8.1  C112.6,50.3,110.3,50.6,107.7,50.6z M100.6,32.5c0,7.2,2.4,10.8,7.1,10.8c4.7,0,7.1-3.6,7.1-10.8v-7.2c0-2.4-1.2-3.6-3.5-3.6h-3.5  C103,21.7,100.6,25.3,100.6,32.5z"/>
	<path class="st0" d="M164.1,32.5l0,2.8c0,0.4-0.3,0.8-0.8,0.8h-22.9c-0.5,0-0.9,0.5-0.8,0.9c0.9,4.2,3.1,6.3,6.7,6.3  c4.3,0,6.6-1.3,7-3.3c0.1-0.4,0.4-0.7,0.8-0.7h9.1c0.5,0,0.8,0.4,0.8,0.9c-0.8,5.5-5.8,9.8-15.8,10.2c-11,0.5-20.1-8.7-19.5-19.9  c0.6-10.8,6.5-16.2,17.7-16.2C158.2,14.4,164.1,20.5,164.1,32.5z M152.3,28.9c0.5,0,0.9-0.5,0.8-0.9c-0.9-4.2-3.1-6.3-6.7-6.3  c-3.6,0-5.8,2.1-6.7,6.3c-0.1,0.5,0.3,0.9,0.8,0.9H152.3z"/>
	<path class="st1" d="M40.8,2l8.4,4.9c1.4,0.8,1.5,2.9,0,3.8L41,15.6c-1.4,0.8-3.2-0.2-3.2-1.9l-0.1-9.9C37.6,2.2,39.4,1.1,40.8,2z"/>
	<path class="st2" d="M38.6,4.1v9.5c0,1,1,1.6,1.9,1.1l8.1-4.8c0.8-0.5,0.8-1.7,0-2.2L40.5,3C39.7,2.5,38.6,3.1,38.6,4.1z"/>
</svg>