<?xml version="1.0" ?>
<!-- Generator: Adobe Illustrator 25.2.3, SVG Export Plug-In . SVG Version: 6.00 Build 0)  -->
<svg xmlns="http://www.w3.org/2000/svg" version="1.2" baseProfile="tiny-ps" viewBox="0 0 64 64">
	<g>
		<rect x="40" y="32.3" fill="#124677" width="11.8" height="11.5"/>
		<path fill="#1868A1" d="M51.7,30.9H40V25c0-3.1,2.5-5.6,5.5-5.6h6.2V30.9z"/>
		<path fill="#198D86" d="M51.7,18H40v-5.9c0-3.1,2.5-5.6,5.5-5.6h0.7c3.1,0,5.5,2.5,5.5,5.6V18z"/>
		<path fill="#1868A1" d="M38.6,43.9H26.8V38c0-3.1,2.5-5.6,5.5-5.6h6.2L38.6,43.9L38.6,43.9z"/>
		<path fill="#198D86" d="M38.6,30.9h-6.2c-3.1,0-5.5-2.5-5.5-5.6v-5.9h6.2c3.1,0,5.5,2.5,5.5,5.6V30.9z"/>
		<path fill="#2BAC72" d="M38.6,18h-6.2c-3.1,0-5.5-2.5-5.5-5.6v-0.3c0-3.1,2.5-5.6,5.5-5.6h0.7c3.1,0,5.5,2.5,5.5,5.6V18z"/>
		<path fill="#198D86" d="M25.5,43.9h-6.2c-3.1,0-5.5-2.5-5.5-5.6V38c0-3.1,2.5-5.6,5.5-5.6h6.2V43.9z"/>
		<path fill="#2BAC72" d="M25.5,30.9h-6.2c-3.1,0-5.5-2.5-5.5-5.6V25c0-3.1,2.5-5.6,5.5-5.6H20c3.1,0,5.5,2.5,5.5,5.6V30.9L25.5,30.9   z"/>
		<path fill="#54AC47" d="M19.9,18h-0.7c-3.1,0-5.5-2.5-5.5-5.6v-0.3c0-3.1,2.5-5.6,5.5-5.6h0.7c3.1,0,5.5,2.5,5.5,5.6v0.3   C25.5,15.4,23,18,19.9,18L19.9,18z"/>
		<path fill="#124677" d="M18.6,47.6l-1.4,2.7h-0.7l-1.4-2.7v3.2H14v-5h1.5l1.3,2.8l1.3-2.8h1.5v5h-1.1L18.6,47.6L18.6,47.6z    M22.8,45.7c0.8,0,1.4,0.2,1.7,0.4c0.4,0.3,0.5,0.8,0.5,1.4c0,0.6-0.2,1.1-0.6,1.4c-0.4,0.3-0.9,0.4-1.7,0.4H22v1.4h-1v-5   C21,45.7,22.8,45.7,22.8,45.7z M22.9,48.4c0.4,0,0.6-0.1,0.8-0.2c0.1-0.1,0.2-0.4,0.2-0.7s-0.1-0.5-0.3-0.6   c-0.2-0.1-0.4-0.2-0.8-0.2h-0.6v1.7H22.9z M30.1,50.7h-2.2v-5h2c0.3,0,0.6,0,0.9,0.1s0.4,0.2,0.6,0.3c0.2,0.3,0.3,0.6,0.3,0.9   c0,0.4-0.1,0.7-0.4,0.9C31.2,48,31.2,48,31.1,48c0,0-0.1,0.1-0.2,0.1c0.3,0.1,0.6,0.2,0.8,0.4c0.2,0.2,0.3,0.5,0.3,0.8   s-0.1,0.7-0.4,0.9C31.3,50.6,30.8,50.7,30.1,50.7L30.1,50.7z M29,47.7h0.5c0.3,0,0.6,0,0.7-0.1s0.2-0.2,0.2-0.4s-0.1-0.4-0.2-0.4   c-0.1-0.1-0.4-0.1-0.7-0.1H29V47.7L29,47.7z M29,49.8h0.8c0.3,0,0.6,0,0.7-0.1c0.2-0.1,0.3-0.2,0.3-0.5c0-0.2-0.1-0.4-0.3-0.5   c-0.2-0.1-0.4-0.1-0.8-0.1H29V49.8z M32.9,45.7H34v5h-1.1V45.7z M39.5,47.4c0,0.8-0.3,1.3-1,1.6l1.3,1.8h-1.4l-1.1-1.6h-0.8v1.6   h-1.1v-5h1.9c0.8,0,1.4,0.1,1.7,0.4C39.3,46.4,39.5,46.8,39.5,47.4L39.5,47.4z M37.3,48.2c0.4,0,0.6-0.1,0.8-0.2   c0.1-0.1,0.2-0.3,0.2-0.6s-0.1-0.4-0.2-0.6c-0.1-0.1-0.4-0.2-0.8-0.2h-0.9v1.5L37.3,48.2L37.3,48.2z M40.7,50.7v-5h1.1v4H44v1H40.7   z M48.5,50.7L48,49.6h-2.2l-0.5,1.1h-1.2l2.2-5h1.1l2.2,5C49.6,50.7,48.5,50.7,48.5,50.7z M46.9,47.2l-0.6,1.5h1.3L46.9,47.2z    M17.3,54.9h1.1v1.8c-0.5,0.6-1.2,0.8-2.1,0.8c-0.8,0-1.4-0.3-1.9-0.7c-0.5-0.5-0.8-1.1-0.8-1.8s0.3-1.4,0.8-1.9s1.1-0.7,1.9-0.7   c0.7,0,1.4,0.2,1.9,0.7l-0.6,0.8c-0.2-0.2-0.4-0.3-0.6-0.4c-0.2-0.1-0.4-0.1-0.6-0.1c-0.4,0-0.8,0.1-1.1,0.4   c-0.3,0.3-0.4,0.7-0.4,1.1c0,0.5,0.1,0.8,0.4,1.1c0.3,0.3,0.6,0.4,1,0.4s0.7-0.1,1-0.2L17.3,54.9L17.3,54.9z M23.6,54.1   c0,0.8-0.3,1.3-1,1.6l1.3,1.8h-1.4l-1.1-1.6h-0.8v1.6h-1.1v-5h1.9c0.8,0,1.4,0.1,1.7,0.4C23.5,53.1,23.6,53.5,23.6,54.1L23.6,54.1z    M21.5,54.9c0.4,0,0.7-0.1,0.8-0.2c0.1-0.1,0.2-0.3,0.2-0.6s-0.1-0.4-0.2-0.6c-0.1-0.1-0.4-0.1-0.8-0.1h-0.9v1.5L21.5,54.9   L21.5,54.9z M28.7,54.9c0-0.4-0.1-0.8-0.4-1.1s-0.6-0.5-1.1-0.5c-0.4,0-0.8,0.2-1.1,0.5c-0.3,0.3-0.4,0.7-0.4,1.1s0.1,0.8,0.4,1.1   s0.6,0.5,1.1,0.5c0.4,0,0.8-0.2,1.1-0.5C28.5,55.7,28.7,55.3,28.7,54.9L28.7,54.9z M29.1,56.7c-0.5,0.5-1.1,0.7-1.9,0.7   s-1.4-0.3-1.9-0.7c-0.5-0.5-0.8-1.1-0.8-1.8s0.3-1.4,0.8-1.8c0.5-0.5,1.1-0.7,1.9-0.7s1.4,0.3,1.9,0.7c0.5,0.5,0.8,1.1,0.8,1.8   C29.9,55.6,29.6,56.3,29.1,56.7L29.1,56.7z M32.2,56.2c0.2,0.2,0.4,0.3,0.8,0.3c0.3,0,0.6-0.1,0.8-0.3s0.3-0.6,0.3-1v-2.8h1.1v2.8   c0,0.7-0.2,1.3-0.6,1.7c-0.4,0.4-0.9,0.6-1.6,0.6c-0.6,0-1.2-0.2-1.6-0.6c-0.4-0.4-0.6-1-0.6-1.7v-2.8h1.1v2.8   C31.9,55.6,32,55.9,32.2,56.2L32.2,56.2z M38.1,52.4c0.8,0,1.4,0.1,1.7,0.4s0.5,0.8,0.5,1.4c0,0.6-0.2,1.1-0.6,1.4   C39.3,55.9,38.8,56,38,56h-0.7v1.4h-1.1v-5C36.2,52.4,38.1,52.4,38.1,52.4z M38.3,55.1c0.4,0,0.6-0.1,0.8-0.2   c0.1-0.1,0.2-0.4,0.2-0.7s-0.1-0.5-0.3-0.6s-0.4-0.2-0.8-0.2h-0.6v1.7H38.3z"/>
	</g>
</svg>