<?xml version="1.0" ?>
<svg xmlns="http://www.w3.org/2000/svg" id="svg1588" version="1.1" viewBox="0 0 76 23">
	<g transform="translate(0,-274)" id="layer1">
		<g id="text6233-1-3-8-6-6" style="font-style:normal;font-weight:normal;font-size:9.25583839px;line-height:1.25;font-family:sans-serif;letter-spacing:0px;word-spacing:0px;fill:#fffafa;fill-opacity:1;stroke:none;stroke-width:0.23139596" aria-label="bitvise">
			<path id="path3556" style="font-style:normal;font-variant:normal;font-weight:bold;font-stretch:normal;font-size:18.01783562px;font-family:Klavika;-inkscape-font-specification:'Klavika Bold';fill:#fffafa;fill-opacity:1;stroke-width:0.23139596" d="m 33.090736,288.2151 v -2.27025 c 0,-1.96394 -0.756749,-3.17114 -2.702675,-3.17114 -0.954945,0 -1.783766,0.21622 -2.486461,0.48648 v -4.25221 l -2.594569,0.36036 v 12.25213 c 1.207195,0.1982 2.630604,0.28829 3.567532,0.28829 3.621585,0 4.216173,-1.60359 4.216173,-3.69366 z M 27.9016,285.51242 c 0.486481,-0.25225 1.099088,-0.48648 1.65764,-0.48648 0.684678,0 0.936928,0.36036 0.936928,0.93693 v 2.27025 c 0,0.82882 -0.234232,1.42341 -1.531516,1.42341 -0.360357,0 -0.684678,0 -1.063052,-0.036 z"/>
			<path id="path3558" style="font-style:normal;font-variant:normal;font-weight:bold;font-stretch:normal;font-size:18.01783562px;font-family:Klavika;-inkscape-font-specification:'Klavika Bold';fill:#fffafa;fill-opacity:1;stroke-width:0.23139596" d="m 37.579148,281.8548 v -2.75673 H 34.98458 v 2.75673 z m 0,9.87378 v -8.77469 H 34.98458 v 8.77469 z"/>
			<path id="path3560" style="font-style:normal;font-variant:normal;font-weight:bold;font-stretch:normal;font-size:18.01783562px;font-family:Klavika;-inkscape-font-specification:'Klavika Bold';fill:#fffafa;fill-opacity:1;stroke-width:0.23139596" d="m 44.722094,291.58443 -0.306303,-1.96394 c -0.378375,0.12612 -0.792785,0.16216 -1.081071,0.16216 -0.324321,0 -0.540535,-0.12612 -0.540535,-0.48648 v -4.25221 h 1.855837 l 0.144143,-2.09007 h -1.99998 v -2.46844 l -2.594568,0.36035 v 2.10809 H 39.01044 v 2.09007 h 1.189177 v 4.61257 c 0,1.6216 0.972963,2.25223 2.648622,2.25223 0.594588,0 1.297284,-0.12613 1.873855,-0.32433 z"/>
			<path id="path3562" style="font-style:normal;font-variant:normal;font-weight:bold;font-stretch:normal;font-size:18.01783562px;font-family:Klavika;-inkscape-font-specification:'Klavika Bold';fill:#fffafa;fill-opacity:1;stroke-width:0.23139596" d="m 54.415689,282.95389 h -2.630604 l -1.783766,6.21615 -1.783765,-6.21615 H 45.58695 l 2.756729,8.77469 h 3.315281 z"/>
			<path id="path3564" style="font-style:normal;font-variant:normal;font-weight:bold;font-stretch:normal;font-size:18.01783562px;font-family:Klavika;-inkscape-font-specification:'Klavika Bold';fill:#fffafa;fill-opacity:1;stroke-width:0.23139596" d="m 58.271507,281.8548 v -2.75673 h -2.594568 v 2.75673 z m 0,9.87378 v -8.77469 h -2.594568 v 8.77469 z"/>
			<path id="path3566" style="font-style:normal;font-variant:normal;font-weight:bold;font-stretch:normal;font-size:18.01783562px;font-family:Klavika;-inkscape-font-specification:'Klavika Bold';fill:#fffafa;fill-opacity:1;stroke-width:0.23139596" d="m 66.603628,289.11599 c 0,-1.74773 -0.180178,-2.28826 -2.684657,-2.84682 -1.045035,-0.23423 -1.117106,-0.3063 -1.117106,-0.84684 0,-0.39639 0.180178,-0.59458 0.936927,-0.59458 0.684678,0 1.639623,0.1081 2.41439,0.25225 l 0.234232,-2.018 c -0.774767,-0.1982 -1.99998,-0.28829 -2.66664,-0.28829 -2.630604,0 -3.351317,0.77477 -3.351317,2.63061 0,1.63962 0.198196,2.21619 2.324301,2.73871 1.405391,0.34234 1.423409,0.41441 1.423409,0.97296 0,0.52252 -0.126125,0.73873 -0.900892,0.73873 -0.972963,0 -1.927908,-0.18018 -2.648622,-0.39639 l -0.41441,1.92791 c 0.864856,0.28828 2.234211,0.52252 3.189157,0.52252 2.504479,0 3.261228,-0.99099 3.261228,-2.79277 z"/>
			<path id="path3568" style="font-style:normal;font-variant:normal;font-weight:bold;font-stretch:normal;font-size:18.01783562px;font-family:Klavika;-inkscape-font-specification:'Klavika Bold';fill:#fffafa;fill-opacity:1;stroke-width:0.23139596" d="m 75.280904,288.25113 v -1.83781 c 0,-1.9099 -0.630624,-3.63961 -3.549514,-3.63961 -2.918889,0 -3.765727,1.62161 -3.765727,3.51348 v 2.05403 c 0,2.16214 1.08107,3.56754 3.927888,3.56754 1.225213,0 2.504479,-0.27027 3.297264,-0.55856 l -0.378375,-1.94592 c -0.774767,0.23423 -1.855837,0.37837 -2.666639,0.37837 -1.189178,0 -1.58557,-0.27027 -1.58557,-1.27927 v -0.25225 z m -2.450426,-1.94592 h -2.270247 v -0.37838 c 0,-0.6126 0.288285,-1.1171 1.189177,-1.1171 0.900892,0 1.08107,0.5045 1.08107,1.1171 z"/>
		</g>
		<g style="fill:#74a1e2;fill-opacity:1" transform="matrix(0.25842623,0,0,0.25842623,-18.179968,252.10497)" id="g4908-5-8-9-3-8-85">
			<g style="fill:#74a1e2;fill-opacity:1" id="g6152-8-3-3-5-2-9">
				<circle r="7.276" style="fill:#74a1e2;fill-opacity:1;stroke-width:0.27858192" cy="129.2731" cx="79.572403" id="path4679-0-1-2-7-0-7"/>
				<path id="path4681-2-4-7-0-2-0-1" d="m 85.422617,111.98065 9.274317,-10.34709 c 8.295086,9.21317 16.590186,18.42633 24.885276,27.6395 l -24.885276,27.63951 -9.274317,-10.3471 15.225353,-17.29241 c 0.20976,-0.23824 -10.150235,-11.52827 -15.225353,-17.29241 z" style="fill:#74a1e2;fill-opacity:1;stroke:none;stroke-width:0.26458332px;stroke-linecap:butt;stroke-linejoin:miter;stroke-opacity:1"/>
				<path id="path4718-3-6-6-8-5-9" d="M 131.41726,129.27306 100.64797,95.0544 c 0,0 4.45742,-4.879441 6.04269,-6.768131 1.62595,-1.937153 4.7484,-1.911512 6.44234,0 6.19791,6.993986 20.67023,22.962051 27.12086,30.018991 10.46927,11.45331 11.28973,9.33314 0,21.8284 -8.8366,9.78018 -17.55555,19.87212 -27.12086,30.01354 -1.62007,1.71764 -3.83822,2.7059 -6.44234,0 -2.06372,-2.14438 -6.04269,-6.5728 -6.04269,-6.5728 z" style="fill:#74a1e2;fill-opacity:1;stroke:none;stroke-width:0.26458332px;stroke-linecap:butt;stroke-linejoin:miter;stroke-opacity:1"/>
			</g>
		</g>
	</g>
</svg>