<?xml version="1.0" ?>
<svg xmlns="http://www.w3.org/2000/svg" viewBox="0 0 200 200">
	<path d="M 46.0,22.0 L 46.0,175.0 C 54.536,175.0 63.454,175.648 71.0,170.867 C 92.857,157.018 90.0,124.284 90.0,102.0 C 90.0,92.933 90.243,83.888 88.101,75.0 C 85.328,63.49 76.97,50.44 64.0,59.0 L 64.0,22.0 L 46.0,22.0 M 98.0,22.0 L 98.0,175.0 L 118.0,175.0 L 118.0,103.0 C 135.62,117.16 130.0,154.848 130.0,175.0 L 150.0,175.0 C 150.0,156.025 151.015,136.758 147.75,118.0 C 146.3,109.668 143.621,99.676 137.0,94.0 L 137.0,93.0 C 154.519,77.982 150.0,42.461 150.0,22.0 L 130.0,22.0 C 130.0,46.366 129.936,66.919 119.0,89.0 L 118.0,89.0 L 118.0,22.0 L 98.0,22.0 M 64.0,153.0 C 70.773,149.294 71.91,142.235 71.996,135.0 C 72.159,121.338 72.0,107.663 72.0,94.0 C 72.0,89.696 73.262,75.923 67.04,74.921 C 62.25,74.151 64.0,90.131 64.0,93.0 L 64.0,153.0" style="fill:#07a3e5;stroke:none" fill-rule="evenodd"/>
</svg>