<?xml version="1.0" ?>
<!-- Generator: Adobe Illustrator 27.0.1, SVG Export Plug-In . SVG Version: 6.00 Build 0)  -->
<svg xmlns="http://www.w3.org/2000/svg" version="1.2" viewBox="0 0 1000 1000" xml:space="preserve" baseProfile="tiny-ps">
	<g>
		<path d="M364,339.4c-88.8,0-160.8,71.9-160.8,160.6c0,88.7,72,160.6,160.8,160.6c88.8,0,160.8-71.9,160.8-160.6   C524.8,411.3,452.8,339.4,364,339.4z" fill="#0D0B3F"/>
		<path d="M685.4,408.8c-36.9,7.3-65.8,36.1-73.1,73c-2.4,12-2.3,24.3,0,36.3c10.1,50.5,59.1,83.2,109.6,73.2   c36.9-7.3,65.8-36.1,73.1-73c2.4-12,2.3-24.3,0-36.3C785,431.5,735.9,398.7,685.4,408.8z" fill="#0D0B3F"/>
	</g>
</svg>