<svg id="svg" version="1.1" xmlns="http://www.w3.org/2000/svg" viewBox="0 0 400 265.0205761316872" data-source="sic">
    <path id="path0" d="M151.932 1.440 C 151.599 1.780,149.780 2.445,147.890 2.919 C 137.345 5.562,125.221 33.627,118.928 69.959 C 118.184 74.259,117.415 78.276,117.219 78.885 C 116.570 80.908,111.711 76.989,108.536 71.882 C 104.581 65.520,101.335 66.061,97.844 73.663 C 93.867 82.323,102.621 93.004,113.695 93.004 C 115.298 93.004,115.397 93.320,114.930 96.914 C 112.872 112.726,110.697 144.002,109.785 170.896 L 109.223 187.470 111.889 188.056 C 123.851 190.683,128.624 185.160,130.020 167.078 C 131.500 147.902,134.674 123.971,138.984 99.476 C 140.481 90.974,140.651 90.571,144.891 85.484 C 172.857 51.937,182.581 7.190,162.848 2.855 C 161.564 2.573,160.301 2.001,160.043 1.583 C 159.482 0.675,152.798 0.558,151.932 1.440 M58.571 5.524 C 57.704 7.239,55.410 13.272,53.473 18.930 C 49.369 30.917,49.712 30.468,42.798 32.899 C 25.977 38.815,8.810 51.629,3.692 62.090 C -1.711 73.133,2.835 83.951,12.879 83.951 L 16.461 83.951 16.479 80.864 C 16.531 71.980,27.769 57.720,39.268 51.946 C 43.986 49.577,44.481 49.685,43.552 52.881 C 41.654 59.409,35.270 89.590,33.411 100.823 C 21.514 172.703,29.005 210.404,55.137 210.167 C 79.418 209.947,99.795 179.840,104.472 137.275 C 107.343 111.139,102.150 94.187,88.958 86.639 C 86.883 85.452,85.088 84.418,84.968 84.342 C 84.849 84.265,86.387 81.762,88.387 78.780 C 94.576 69.551,95.803 65.394,95.847 53.498 C 95.909 36.720,89.251 28.034,74.691 25.900 C 70.072 25.223,70.207 26.032,73.146 16.659 C 75.897 7.883,75.570 6.726,69.754 4.648 C 62.086 1.908,60.330 2.045,58.571 5.524 M263.903 15.528 C 251.709 19.823,248.145 31.249,256.487 39.300 C 260.757 43.422,262.081 43.627,263.736 40.426 C 266.844 34.416,277.497 30.041,289.026 30.041 C 299.129 30.041,298.611 28.605,295.168 47.076 C 282.051 117.443,275.786 169.990,279.747 176.400 C 286.336 187.062,299.977 184.233,309.203 170.291 C 311.923 166.182,311.901 166.120,310.730 174.665 C 309.423 184.197,310.360 185.185,320.708 185.185 C 332.171 185.185,332.098 185.352,339.106 143.090 C 346.207 100.267,347.631 95.405,354.862 89.316 C 358.540 86.219,358.632 87.061,356.092 100.603 C 344.078 164.660,344.695 178.803,359.831 186.345 C 375.821 194.314,392.991 181.147,398.297 156.849 C 400.153 148.350,399.852 147.280,395.069 145.366 C 388.391 142.695,386.942 143.469,385.240 150.617 C 381.276 167.264,374.466 175.979,372.104 167.427 C 371.157 163.998,371.159 163.985,376.667 123.457 C 378.954 106.632,380.462 92.335,380.536 86.777 L 380.658 77.669 377.191 73.066 C 368.800 61.930,357.261 61.428,349.695 71.872 L 347.273 75.216 347.804 70.699 C 348.328 66.240,348.297 66.152,345.366 63.917 C 339.686 59.584,333.560 57.534,331.052 59.126 C 329.756 59.948,323.840 88.691,319.759 113.992 C 316.324 135.289,313.825 142.957,306.821 153.686 C 300.734 163.010,300.775 163.609,305.394 132.922 C 308.698 110.972,316.202 66.625,321.039 40.467 C 322.406 33.074,323.305 26.333,323.036 25.486 C 320.799 18.436,276.720 11.013,263.903 15.528 M158.025 23.558 C 158.025 27.311,153.609 40.574,148.605 51.852 C 144.989 60.001,142.411 64.349,143.482 60.494 C 143.733 59.588,144.191 56.996,144.498 54.733 C 146.201 42.182,150.573 26.016,153.149 22.741 C 155.729 19.462,158.025 19.847,158.025 23.558 M73.198 45.622 C 80.032 52.897,71.753 79.099,61.796 81.702 C 59.720 82.245,59.685 83.670,62.153 67.490 C 63.552 58.318,65.710 46.363,66.275 44.650 C 66.863 42.870,71.182 43.476,73.198 45.622 M266.125 51.639 C 265.601 51.985,264.909 53.666,264.588 55.377 C 264.074 58.117,263.797 58.410,262.249 57.844 C 239.509 49.525,216.360 83.568,210.637 133.745 C 206.461 170.358,223.211 190.288,243.320 172.633 L 246.356 169.967 245.791 174.489 C 245.481 176.977,244.832 181.824,244.349 185.260 L 243.470 191.507 215.208 192.057 C 189.349 192.561,164.552 193.589,153.086 194.632 C 150.597 194.858,141.893 195.621,133.745 196.327 C 117.649 197.721,102.441 199.666,101.086 200.503 C 98.654 202.006,103.886 215.828,108.381 219.775 C 111.826 222.800,109.518 222.858,141.075 218.959 C 177.047 214.515,207.397 211.586,231.605 210.224 L 241.399 209.672 240.916 212.088 C 240.650 213.417,239.665 221.333,238.726 229.680 C 237.788 238.027,236.892 245.947,236.736 247.280 C 236.256 251.379,249.198 262.551,254.427 262.551 C 257.342 262.551,257.180 263.269,259.627 239.506 C 260.769 228.416,261.952 216.975,262.257 214.082 L 262.810 208.821 293.339 209.370 C 310.130 209.671,326.461 210.120,329.630 210.367 C 332.798 210.615,338.595 211.080,342.512 211.402 C 351.519 212.143,355.109 210.014,353.485 204.896 C 352.327 201.248,326.449 196.965,289.300 194.273 C 264.578 192.482,265.021 192.537,265.021 191.216 C 265.021 185.227,274.475 117.231,280.620 79.028 C 283.678 60.018,283.782 58.791,282.466 57.334 C 279.283 53.812,268.521 50.061,266.125 51.639 M186.008 58.383 C 178.131 60.788,169.336 69.178,164.167 79.220 L 160.965 85.440 158.956 83.859 C 149.530 76.444,136.334 141.656,142.617 164.609 C 146.680 179.456,156.184 185.428,170.180 181.931 C 188.285 177.407,205.721 143.270,209.927 104.115 C 213.195 73.700,202.543 53.335,186.008 58.383 M252.675 89.157 C 252.675 122.424,241.700 167.182,235.161 160.584 C 231.195 156.582,237.578 107.017,244.413 88.751 C 249.078 76.281,252.675 76.458,252.675 89.157 M187.654 85.555 C 187.654 86.890,186.930 91.797,186.044 96.460 C 185.158 101.123,183.290 111.907,181.893 120.425 C 177.451 147.495,172.284 164.198,168.350 164.198 C 161.035 164.198,167.701 114.704,177.790 94.101 C 182.227 85.041,187.654 80.339,187.654 85.555 M74.460 107.907 C 87.501 119.357,79.821 171.533,62.439 189.575 C 57.858 194.330,55.668 194.459,53.128 190.123 C 48.125 181.584,52.280 108.435,57.898 106.169 C 62.557 104.290,71.397 105.217,74.460 107.907 M372.827 198.209 C 367.146 201.183,364.872 208.877,367.912 214.837 C 373.613 226.010,390.955 221.355,390.943 208.655 C 390.935 199.625,381.031 193.915,372.827 198.209 M385.679 201.975 C 391.916 208.212,387.442 218.930,378.601 218.930 C 371.006 218.930,366.396 211.006,369.969 204.095 C 372.863 198.499,381.092 197.389,385.679 201.975 M373.388 203.018 C 372.166 204.240,372.786 215.638,374.074 215.638 C 374.892 215.638,375.309 214.820,375.309 213.217 C 375.309 209.579,376.717 209.410,379.720 212.689 C 383.271 216.565,385.097 216.610,382.719 212.762 C 381.101 210.143,381.058 209.771,382.241 208.588 C 383.786 207.043,383.920 204.825,382.551 203.457 C 381.514 202.419,374.331 202.075,373.388 203.018 M380.161 204.868 C 382.065 206.074,380.553 208.230,377.804 208.230 C 375.933 208.230,375.309 207.853,375.309 206.722 C 375.309 204.139,377.618 203.257,380.161 204.868 " stroke="none" fill="#000000" fill-rule="evenodd" />
</svg>