<?xml version="1.0" ?>
<svg xmlns="http://www.w3.org/2000/svg" xmlns:xlink="http://www.w3.org/1999/xlink" viewBox="0 0 1281 224.5">
	<style>.st1{fill:#000}.st2{fill:#0080ff}</style>
	<defs>
		<path id="SVGID_1_" d="M0 0h1281v224.6H0z"/>
	</defs>
	<clipPath id="SVGID_00000133517845413977056790000004154183252427166367_">
		<use xlink:href="#SVGID_1_" overflow="visible"/>
	</clipPath>
	<g clip-path="url(#SVGID_00000133517845413977056790000004154183252427166367_)">
		<path class="st1" d="M572.3 59.3h24.4v44.2h83.4V59.3h24.4v111.3h-24.4v-46.4h-83.4v46.4h-24.4V59.3zM828.2 130.5l-28.7-53.2-28.4 53.2-9.4 18-11.7 22h-27.4l60.5-111.3h33.1l59.6 111.3h-26.6l-12-22M889.4 59.3h24.4v90.4H991v20.9H889.4V59.3zM1141.2 69.1c4.4 5.2 6.8 12.3 7.8 23.5.5 5.2.6 11.2.6 23.5 0 27.9-2.5 38.5-10.6 46-5.9 5.3-13.8 8-27.1 8.8-5.1.3-24.2.7-39 .7-32.3 0-41.1-1-50.1-6.2-7-4-11.6-11.7-13-22.7-1-7.3-1.3-13.3-1.3-31.5 0-26 2.4-36.4 10-43.4 5.7-5.3 13.2-7.8 26.8-9 5.4-.5 21.2-.8 40.6-.8 37.4.1 47.4 2.1 55.3 11.1zM1033.5 115c0 21.7 1.6 28.7 7.4 31.9 5.9 3.3 10.9 3.8 41.2 3.8 27.3 0 34.1-1.2 38.4-6.2 3.6-4.2 4.8-11.3 4.8-30.2 0-34.9-.3-35.2-46-35.2s-45.8.5-45.8 35.9z"/>
		<path class="st2" d="M459.3 151h89.2v19.5H435.2M0 59.3h91.1c26.5 0 35.7 7.7 35.7 29.7 0 14.3-4.1 21.2-14.1 23.5 12.8 1.8 18.1 9.3 18.1 26 0 23-9.8 32-35 32H0V59.3zM81.6 105c9.8 0 13.5-.5 16.2-2 3-1.8 4.6-5.5 4.6-10.7 0-5.7-1.7-9.7-5.1-11.5-2.4-1.5-6.2-2.2-13.3-2.2H23.9V105h57.7zm5.3 46.2c14.7 0 19.2-3.3 19.2-14.5 0-5.8-1.7-10.2-4.9-12.2-2.5-1.5-7.1-2.2-15.8-2.2H23.9v28.9h63zM155.9 59.3h24.4v90.4h77.2v20.9H155.9V59.3zM407.8 59.3v70.1c0 21.2-3.2 29.9-13.3 35.9-9 5.5-18.1 6.5-55.5 6.5s-47.7-2.3-55.5-11.5c-5.4-6.5-7-14.2-7-34.7V59.3H301v58.2c0 9.9.3 16.4.8 19.5 1.7 11.8 7.9 14 39.6 14 14.3 0 27.4-.7 31.1-1.7 6.2-1.7 9.5-5.7 10.5-12.7.2-1.3.4-7.2.5-17.5V59.3h24.3zM435.2 59.3h112.4v19.5h-88.3M548.5 103.5h-88.9v20.7h88.9v-20.7zM1113.2 37.8c41.5-21 76.2-27.9 103.7-21.1 17 4.2 27 14.5 29.9 29.6 7 36.2-26.5 85.6-77.7 123.2-26.5 19.5-53.9 33.8-81.6 41.5-28.1 7.8-50.9 8.1-68 .5 3.9 5.7 11.2 8.4 19.1 10.5 20.1 5.1 45.1 2.9 74.5-7.1 68.2-23.2 118-69.9 141.8-103.7 3.7-5.2 8.2-10.7 10.5-15.9 2.3-5.4 5.9-11.2 8.1-16.6 2.2-5.3 3.8-10.4 5-15.4 1.2-5.1 2.1-10.1 2.3-14.8.2-4.6-.2-8.9-1-12.9-.9-4.1-2.2-8-4.1-11.4-1.9-3.5-4.6-6.6-7.5-9.3-2.9-2.7-6.3-5.1-10-7-3.8-2-7.9-3.7-12.4-4.9-20.6-5.4-46.1-3.1-76.6 7.8-18.6 6.4-37.3 14.4-56 27z"/>
	</g>
</svg>