<?xml version="1.0" ?>
<svg xmlns="http://www.w3.org/2000/svg" viewBox="0 0 162.185 162.184">
	<path d="M 91.384,140.653 L 91.384,113.685 L 101.034,113.685 C 110.859,113.685 118.852,105.977 118.852,96.501 L 118.852,65.681 C 118.852,56.205 110.859,48.497 101.033,48.497 L 91.384,48.497 L 91.384,21.531 C 119.854,26.44 141.596,51.244 141.596,81.092 C 141.596,110.94 119.853,135.744 91.384,140.653 M 20.587,81.092 C 20.587,51.244 42.331,26.44 70.797,21.531 L 70.797,48.497 L 61.153,48.497 C 51.327,48.497 43.335,56.205 43.335,65.681 L 43.335,96.501 C 43.335,105.977 51.327,113.685 61.153,113.685 L 70.797,113.685 L 70.797,140.653 C 42.331,135.744 20.587,110.94 20.587,81.092 M 61.328,95.693 L 61.328,66.513 C 61.971,66.513 100.516,66.489 100.86,66.487 L 100.86,95.67 L 61.328,95.692 M 81.091,0.0 C 36.379,0.0 0.0,36.379 0.0,81.092 C 0.0,125.805 36.379,162.184 81.09,162.184 C 125.804,162.184 162.185,125.805 162.185,81.092 C 162.185,36.379 125.804,0.0 81.091,0.0" fill="#b0013f"/>
</svg>