<svg version="1.1" xmlns="http://www.w3.org/2000/svg" viewBox="0 0 1000 337"><style>.a{fill:#FF851B}.b{fill:#E86D13}.c{fill:#FFFFFF}.d{fill:#4D4D4D}</style><circle class="a" cx="166.6" cy="168.3" r="160"/><path class="b" d="M214.4,15.6C214.4,15.6,214.4,15.6,214.4,15.6c45,23.3,75.7,70.3,75.7,124.4c0,77.3-62.7,140-140,140
s-140-62.7-140-140c0-2.1,0.1-4.1,0.1-6.1c0,0,0,0,0,0c-2.4,11.1-3.7,22.6-3.7,34.4c0,88.4,71.6,160,160,160s160-71.6,160-160
C326.6,96.6,279.4,35.9,214.4,15.6z"/><path class="c" d="M187,287.8c-3.4-1.6-6.7-3.5-9.8-5.7c-21.9-15-36.9-48.6-47.6-90.4c-9.5,7.1-14.5,17.4-21,19.9
c-6.5,2.5-30.7-1.6-24-13.8c6.8-12.2,27.5-25.9,36.4-31.9c-1.8-10.9-18.1-109.2-10-138c5.4-17.3,44.4-15.7,44.1-0.2
c0.6,34.4-3.5,86.2,0.5,116.5c14.5-7.4,25.9-11.6,43.4-15.5c24.9-5.5,47.5-0.4,66.7,10.6c17.1,9.9,30.4,26.1,37.3,45.6
c11.4,32.1,6.6,77.9-44.4,101.2C231.6,298.6,207.9,297.8,187,287.8z M160.4,173c4.4,37.6,16.1,77,33,88.6c13.6,9.3,35,9.4,56.2-0.3
c14.8-6.8,26.4-18.7,31-30.8c5.2-13.5,3.2-28.9-1.1-40.8c-7.9-22.3-35.1-43.8-73.9-35.2C187.5,158.5,174.4,165.1,160.4,173z"/><path class="d" d="M396.2,270.9c-5-0.9-10-2.3-14.8-4.2c-19.2-7.5-32.6-22.5-40.2-41.2s-7-39.3,1.6-58.1
c8.5-18.6,23.8-33.1,43.1-40.9c19.3-7.8,40.4-8,59.4-0.6c19.2,7.5,33.9,22,41.5,40.7c7.6,18.7,7.4,40.5-1.2,59.3
c-8.5,18.6-24.1,31.9-43.5,39.7C427.7,271.4,411,273.5,396.2,270.9z M424.7,143.2c-10.4-1.9-21.3-0.7-31.5,3.4
c-13.6,5.5-24.4,15.7-30.3,28.7c-5.8,12.8-4.6,28.7,0.5,41.3c5.1,12.6,13,18.6,26,23.8c13.3,5.2,28.1,5,41.7-0.5
c13.6-5.5,24.9-13.5,30.8-26.5c5.8-12.8,7.8-25.2,2.7-37.8c-5.1-12.6-15.1-23.8-28.1-29C433.3,145.3,428.2,143.8,424.7,143.2z"/><path class="d" d="M589.9,216.5c-9-6.2-16.6-14.2-22.5-23.6c-11.2-17.9-14.5-38.8-9.3-58.7c5.2-20,18.2-36.6,36.7-46.8
c18.3-10.1,39.7-12.7,60.3-7.3c42.9,11.1,69.1,53.5,58.4,94.5c-5.2,20-18.2,36.6-36.7,46.8c-18.3,10.1-39.7,12.7-60.3,7.3
C606.8,226.2,597.8,222,589.9,216.5z M669.1,110.1c-5.6-3.9-12-6.9-19-8.7c-14.7-3.8-29.9-2-42.8,5.1c-12.7,7-22.6,20.1-26.1,33.7
c-3.5,13.6-1.5,27,6.2,39.3c7.8,12.5,22.2,20.9,36.9,24.7c14.7,3.8,30.3,0.2,43.2-6.9c12.7-7,19.8-18.2,23.3-31.7
C696.3,144,687.5,122.9,669.1,110.1z"/><path class="d" d="M897.9,253.2c-19.6-4.8-36.5-16.2-47.9-32.4c-12.1-17.3-17.2-40.4-13.1-60.6c8.5-41.5,50.6-68,94-59.2
c20.9,4.3,39,16,51,33.1c12.1,17.3,16.5,37.9,12.4,58.1l0,0c-4.1,20.2-15.5,40-33.4,51.1c-17.7,11-39,14.8-59.9,10.5
C899.9,253.6,898.9,253.4,897.9,253.2z M928.4,121.3c-0.7-0.2-1.5-0.3-2.2-0.5c-30.5-6.2-60.1,12-65.9,40.6
c-2.8,13.7,1.5,29.6,9.8,41.5c8.5,12.1,21.3,20.4,36.2,23.4c14.9,3,31.4,0.8,43.9-7c12.3-7.7,19.1-17.5,21.9-31.3l0,0
c2.8-13.7-1.4-31.9-9.8-43.8C954.4,132.8,942.4,124.7,928.4,121.3z"/><path class="d" d="M383.5,318.9c-23.6-4.3-55.2-20.9-62.5-29.1s6.4-30.6,17.6-19.8c19.3,17.2,50.8,27.2,83.9,24.3
c31.7-2.8,60.6-13.4,79.1-33.8c16.6-18.2,21.9-41.9,17.1-66.2c-10.6-53.6-47.7-77.7-48.2-94c-0.5-13.3,14.5-19.9,24.8-17.8
c17.8,4.3,46.1,72.6,51.4,108.1c4.7,31.8-4.1,62.8-25.7,86.5c-22.6,24.7-58.8,40.3-96.3,43.6C410.5,321.9,396.7,321.3,383.5,318.9z
"/><path class="d" d="M774.8,178.9c0.9-0.5,1.8-0.9,2.8-1.4c19.4-10.2,56.8-38.5,63.5-69c1.8-7.6-22.6-19.2-26.2-8.3
c-7,21.4-19.5,46.1-41.7,58.1c-7.6,4.1-14.8,6.7-20.4,8.3c2.3-20.1,3.7-40.6,3.7-59.1c0.1-49.5,1.4-75.1-6.6-82
c-5-3.9-20.2-2.6-23.6,3.3c-6,11.9,29.4,110.1-17.7,226.8c-2.5,5.7,12.4,14.9,21.9,9.5c6-3.4,12.5-30.2,18.9-71.9
c57.1,11.9,65,58.9,65.1,87.1c-0.2,10.2,31.3,11,32.1-0.7C849.2,229.9,816.4,190.9,774.8,178.9z"/>
<path class="a" d="M480.8,54.2c2.7,11.4-6.1,23.2-17.5,25.8s-25.6-4.6-28.3-16s7.2-22.6,18.6-25.3
C465,36.1,478.1,42.8,480.8,54.2z"/><path class="b" d="M480.8,54.1c-2-8.6-10-14.5-18.7-15.8c4.8,1.9,8.6,5.8,9.8,10.8c2,8.7-4.6,17.7-13.3,19.7
c-8.7,2-19.5-3.5-21.6-12.2c-0.4-1.8-0.4-3.6-0.1-5.4c-2.1,3.9-2.9,8.2-1.9,12.7c2.7,11.4,16.9,18.6,28.3,16
C474.7,77.3,483.5,65.5,480.8,54.1z"/></svg>