<?xml version="1.0" ?>
<svg xmlns="http://www.w3.org/2000/svg" viewBox="0 0 371 50">
	<path d="M10.1,45.9H9.8L9,49.7H1V1H11.2V12.9l-.3,5.4h.2a14,14,0,0,1,9.4-4c8.6,0,13.9,6.9,13.9,17.4,0,11.9-7.2,18.7-14.9,18.7C16.3,50.5,12.9,48.9,10.1,45.9ZM23.9,32c0-6.2-2-9.3-6.3-9.3-2.2,0-4.2,1-6.4,3.2v14a9.11,9.11,0,0,0,6,2.3C20.9,42.2,23.9,39.1,23.9,32Zm14.5.5C38.4,21,46.9,14.4,56,14.4S73.6,21,73.6,32.5s-8.5,18-17.6,18S38.4,43.9,38.4,32.5Zm24.7,0c0-6-2.4-9.8-7.1-9.8s-7.1,3.8-7.1,9.8,2.4,9.8,7.1,9.8S63.1,38.4,63.1,32.5Zm19.8,3.7V9.1H72.8V1H93.1V36.6c0,4.2,2.7,5.6,5.6,5.6a14,14,0,0,0,5.3-1.1l2.3,7.5A28.19,28.19,0,0,1,96,50.5C87.4,50.5,82.9,45,82.9,36.2Zm25.8-3.7c0-11.2,7.2-18.1,14.7-18.1a11.17,11.17,0,0,1,8.7,3.7h.3l-.5-5.3V1h10.2V49.7h-8.3l-.8-3.5h-.2c-2.6,2.5-6.1,4.4-9.6,4.4C114.4,50.5,108.7,43.7,108.7,32.5ZM131.9,39V25a8.14,8.14,0,0,0-5.8-2.3c-3.7,0-6.9,3.1-6.9,9.6,0,6.8,2.4,9.9,6.7,9.9A7.33,7.33,0,0,0,131.9,39Zm15.3,6.2,4.4-6.4a26.51,26.51,0,0,0,13.9,4.1c3.7,0,5.5-1.2,5.5-2.9,0-1.9-1.7-2.6-8.5-4.1-9.4-2-13.1-5.4-13.1-10.8,0-6.4,6-10.8,15.8-10.8A27.71,27.71,0,0,1,180.1,19l-4.6,6.1a22,22,0,0,0-11.2-3.3c-3.2,0-4.8,1.1-4.8,2.7,0,1.9,2.2,2.4,8,3.7,10.6,2.4,13.5,5.4,13.5,11,0,6.2-5.9,11.1-16.9,11.1a30.4,30.4,0,0,1-16.9-5.1Zm46.4-9.8V23.2h-8.7V15.6l9.2-.4,1.3-10.6h8.4V15.2h14.6v8H203.8V35.3c0,5.2,2.2,7.2,7.3,7.2a20.56,20.56,0,0,0,6.8-1.3l1.8,7.4a38.32,38.32,0,0,1-11.2,1.9c-11.1,0-14.9-6.1-14.9-15.1Zm29.7,4.7c0-7.7,6.4-11.6,22.7-12.6-.3-3.1-2.7-5-7.4-5-3.3,0-6.6,1.3-10.5,3.2L224.5,19a32.56,32.56,0,0,1,16.1-4.7c9.7,0,15.6,5,15.6,15.6V49.6h-8.3l-.8-3.9h-.3c-3.5,2.6-7.8,4.7-12.2,4.7C227.7,50.5,223.3,45.9,223.3,40.1Zm22.7-.8V33.6c-10.1.6-12.9,2.7-12.9,5.7,0,2.2,1.9,3.3,4.8,3.3s5.6-1.4,8.1-3.3Zm18.7-24.1H273l.8,7.5h.2c3.4-5.6,8.5-8.3,14-8.3a14.2,14.2,0,0,1,6.7,1.4l-2.1,8.5a19.49,19.49,0,0,0-6.1-1c-4.2,0-8.7,2.2-11.6,8.4V49.6H264.7V15.2Zm42.7,20.2V23.2h-8.7V15.6l9.2-.4,1.3-10.6h8.4V15.2h14.6v8H317.6V35.3c0,5.2,2.2,7.2,7.3,7.2a20.56,20.56,0,0,0,6.8-1.3l1.8,7.4a38.32,38.32,0,0,1-11.2,1.9c-11,0-14.9-6.1-14.9-15.1Z" fill="#050505" transform="translate(-1 -1)"/>
	<path d="M345.2,41.8l18.4-11.5V30L345.2,18.5V9.2L372,26.6v7.1L345.2,51Z" fill="#08893d" transform="translate(-1 -1)"/>
</svg>