<?xml version="1.0" ?>
<svg xmlns="http://www.w3.org/2000/svg" xml:space="preserve" id="Layer_1" x="0" y="0" style="enable-background:new 0 0 200 80" version="1.1" viewBox="0 0 200 80">
	<style>.st1,.st2{enable-background:new}.st1{opacity:.9;fill:#333}.st2{opacity:.1}.st5{fill:#fff}</style>
	<path d="M160 80H40C18 80 0 62 0 40S18 0 40 0h120c22 0 40 18 40 40s-18 40-40 40z" style="fill:#44ce5e"/>
	<g id="booxi">
		<path d="M67.4 34H33.5C32 34 32 34 32 32.6v-2.8c0-2.8-.1-2.8 3-2.8s3.1 0 3.1 2.7c0 1.3 0 1.3 1.5 1.3h21.7c1.5 0 1.5 0 1.5-1.3 0-2.7 0-2.7 3.1-2.7 3 0 3 0 3 2.8v2.8C69 34 69 34 67.4 34zM55 14c3 0 3 0 3 3.1v4.7c0 3.1 0 3.1-3 3.1s-3 0-3-3.1v-4.7c0-3.1 0-3.1 3-3.1zM46 14c3 0 3 0 3 3.1v4.7c0 3.1 0 3.1-3 3.1s-3 0-3-3.1v-4.7c0-3.1 0-3.1 3-3.1z" class="st1"/>
	</g>
	<g id="booxi_Shade">
		<path d="M46 16c-3 0-3 0-3 3.1v-2c0-3.1 0-3.1 3-3.1s3 0 3 3.1v2c0-3.1 0-3.1-3-3.1zM55 16c-3 0-3 0-3 3.1v-2c0-3.1 0-3.1 3-3.1s3 0 3 3.1v2c0-3.1 0-3.1-3-3.1zM66 29c-2.2 0-2.8 0-3 1.1v-.4c0-2.4 0-2.6 2.2-2.7h1.6c2.2 0 2.2.3 2.2 2.8v2c0-2.8-.1-2.8-3-2.8zm-31.8-2h1.6c2.2 0 2.2.3 2.2 2.7v.4c-.2-1-.8-1-3-1-2.9 0-3 0-3 2.3v-2c0-2.2.1-2.4 2.2-2.4z" class="st2"/>
	</g>
	<g id="Ticket" style="">
		<g id="Gradient">
			<linearGradient id="SVGID_1_" x1="-99.516" x2="-99.516" y1="-1104.457" y2="-1074.88" gradientTransform="matrix(1 0 0 -1 150 -1044)" gradientUnits="userSpaceOnUse">
				<stop offset=".731" style="stop-color:#fff"/>
				<stop offset=".766" style="stop-color:#fbfbfb"/>
				<stop offset=".802" style="stop-color:#efefef"/>
				<stop offset=".838" style="stop-color:#dadada"/>
				<stop offset=".875" style="stop-color:#bebebe"/>
				<stop offset=".911" style="stop-color:#999"/>
				<stop offset=".947" style="stop-color:#6c6c6c"/>
				<stop offset=".979" style="stop-color:#404040"/>
			</linearGradient>
			<path d="M65.9 32.6c-1.4-.7-3.3-1.7-3.3-1.7s0 .1-.6.1H38.8c-.3 0-.4-.1-.4-.1s-2.1 1-3.3 1.7c-1.1.6-3.1 1.5-3.1 6.2v14.1c0 3.1 0 3.1 3.1 3.1h6.7c.4.1.6.3.8.4 1.4.8 3 1.8 4.6 2.6 3.4 1.9 3.3 1.9 6.7 0 1.4-.8 3.2-1.8 4.5-2.6.1-.1.5-.3.9-.4h6.6c3.1 0 3.1 0 3.1-3.1V38.8c0-4.6-1.5-5.4-3.1-6.2z" style="fill:url(#SVGID_1_)"/>
		</g>
	</g>
	<path id="_x2D_v-" d="M40.5 33.8c1 0 1.4.3 1.7.5.1 0 4.8 3 4.8 3 1.7 1.1 2.6 1.7 3.5 1.7.9 0 1.8-.6 3.5-1.7l4.6-2.9c.3-.2.9-.6 1.9-.6h7.2c-.3-.4-.6-.6-1-.8h-6.2c-1.2 0-1.9.5-2.3.7l-4.6 3c-1.6 1-2.4 1.5-3.1 1.5-.7 0-1.5-.5-3.2-1.6 0 0-4.7-3-4.8-3-.4-.2-.9-.6-2.1-.6h-6.2c-.3.2-.6.5-1 .8h7.3z" class="st2"/>
	<path id="v" d="M53.8 52.1c-.8.4-1.9 1.1-2.6 1.5-.4.3-.9.3-1.3 0-.7-.4-2.5-1.4-2.6-1.5-1.3-.7-1.3-.5-1.3.8s0 1.6.6 2c.7.4 1.6.9 2.5 1.4 1.4.8 1.4.8 2.9 0 .9-.5 2.1-1.2 2.5-1.4.6-.3.6-.6.6-1.9 0-1.4 0-1.6-1.3-.9zm.4.8V54l-.1.1c-.3.2-1 .5-1.6.9l-.9.5c-.4.2-.9.5-1 .5-.1 0-.6-.3-1-.5 0 0-2.1-1.2-2.5-1.4l-.3-.1v-1.1l.5.3c.6.4 1.6.9 2.1 1.2.4.2.7.3 1.1.3.4 0 .7-.1 1.1-.3l.8-.5c.6-.3 1.3-.7 1.8-1z" class="st2"/>
	<g id="booxi_1_">
		<path d="M168 29c0-2 0-2-3-2s-3 0-3 2 0 2 3 2 3 0 3-2zm0 23.9V36c0-3.1 0-3.1-3-3.1s-3 0-3 3v16.9c0 3.1 0 3.1 3 3.1 3 .1 3 .1 3-3zM159.1 36.1c-1 1.6-2.8 4.6-3.8 6.4-.4.6-.8.9-1.4 0-.6-1-.8-1.3-1.3-2.2-.4-.6-.8-1.4-1.3-2.2-.2-.4-.3-.6 0-1 .7-1.1 1.3-2 1.5-2.5.9-1.5 1-1.5 4.2-1.5 3.1-.1 3.9 0 2.1 3zM159.1 52.9c-1-1.6-2.8-4.6-3.8-6.4-.4-.6-.8-.9-1.4 0-.6 1-.8 1.3-1.3 2.2-.4.6-.8 1.4-1.3 2.2-.2.4-.3.6 0 1 .7 1.1 1.3 2 1.5 2.5.9 1.5 1 1.5 4.2 1.5 3.1.1 3.9 0 2.1-3zM119 46.8v-4.6c0-9.2 0-9.2-9-9.2-8.9 0-9 0-9 9.2v4.6c0 9.1 0 9.2 9 9.2s9 0 9-9.2zm-6 .1c0 3.1 0 3.2-3 3.2s-3 0-3-3.2v-4.7c0-3.1 0-3.1 3-3.1s3 0 3 3.1v4.7zM99 46.8v-4.5c0-9.2 0-9.2-9-9.2-.8 0-2.2 0-3 .2v-3.2c0-3 0-3.1-3-3.1s-3 0-3 3v16.8c0 9.2 0 9.2 9 9.2s9 0 9-9.2zm-6 0c0 3.1 0 3.2-3 3.2s-3 0-3-3.2v-4.7c0-3.1 0-3.1 3-3.1s3 0 3 3.1v4.7zM141.1 36.2c1 1.7 3.1 5.3 4 6.9.6 1 .6 2 0 3.1-.9 1.6-3.8 6.6-4 6.9-1.7 2.9-.9 3.1 2.1 3.1s3.1 0 4-1.5c.9-1.5 2.6-4.4 3.8-6.5 1.9-3.3 1.9-3.5 0-6.9-1.1-2-3.3-5.5-3.8-6.5-.8-1.4-1-1.5-4-1.5-3.1-.2-3.9-.1-2.1 2.9zM139 46.8v-4.6c0-9.2 0-9.2-9-9.2-8.9 0-9 0-9 9.2v4.6c0 9.1 0 9.2 9 9.2s9 0 9-9.2zm-6 .1c0 3.1 0 3.2-3 3.2s-3 0-3-3.2v-4.7c0-3.1 0-3.1 3-3.1s3 0 3 3.1v4.7z" class="st5"/>
	</g>
</svg>