<?xml version="1.0" encoding="UTF-8" standalone="no"?>

<svg viewBox="0 0 121 30" version="1.1" xmlns="http://www.w3.org/2000/svg"  xml:space="preserve" xmlns:serif="http://www.serif.com/" style="fill-rule:evenodd;clip-rule:evenodd;stroke-linejoin:round;stroke-miterlimit:2;">
    <g transform="matrix(1,0,0,1,-8,-8)">
        <path d="M99.328,22.92C98.665,22.269 97.168,21.862 95.75,22.435C93.548,23.327 92,25.485 92,28C92,31.314 94.686,34 98,34C98.934,34 99.904,33.615 100.969,32.871C102.045,32.119 103.042,31.129 104.062,30.11L104.086,30.086C104.867,29.305 106.133,29.305 106.914,30.086C107.695,30.867 107.695,32.133 106.914,32.914L106.89,32.938L106.842,32.987C105.873,33.956 104.65,35.179 103.26,36.15C101.836,37.145 100.067,38 98,38C92.477,38 88,33.523 88,28C88,23.8 90.589,20.21 94.25,18.728C97,17.614 100.224,18.195 102.129,20.065C103.13,21.047 103.785,22.42 103.674,24.024C103.566,25.59 102.749,27.08 101.414,28.414L101.336,28.493L98.749,30.562C97.887,31.252 96.628,31.112 95.938,30.249C95.248,29.387 95.388,28.128 96.251,27.438L98.659,25.512C99.483,24.664 99.662,24.056 99.683,23.748C99.703,23.468 99.612,23.199 99.328,22.92Z" style="fill:rgb(0,149,59);"/>
        <path d="M40,22C36.686,22 34,24.686 34,28C34,31.314 36.686,34 40,34C43.314,34 46,31.314 46,28C46,24.686 43.314,22 40,22ZM30,28C30,22.477 34.477,18 40,18C45.523,18 50,22.477 50,28C50,33.523 45.523,38 40,38C34.477,38 30,33.523 30,28Z" style="fill:rgb(0,149,59);"/>
        <path d="M10,8C11.105,8 12,8.895 12,10L12,19.999C13.671,18.744 15.749,18 18,18C19.105,18 20,18.895 20,20C20,21.105 19.105,22 18,22C14.686,22 12,24.686 12,28C12,31.314 14.686,34 18,34C21.314,34 24,31.314 24,28C24,26.895 24.895,26 26,26C27.105,26 28,26.895 28,28C28,33.523 23.523,38 18,38C12.477,38 8,33.523 8,28L8,10C8,8.895 8.895,8 10,8Z" style="fill:rgb(0,149,59);"/>
        <path d="M119,22C115.686,22 113,24.686 113,28C113,31.314 115.686,34 119,34C122.314,34 125,31.314 125,28C125,26.895 125.895,26 127,26C128.105,26 129,26.895 129,28C129,33.523 124.523,38 119,38C113.477,38 109,33.523 109,28C109,22.477 113.477,18 119,18C120.105,18 121,18.895 121,20C121,21.105 120.105,22 119,22Z" style="fill:rgb(0,149,59);"/>
        <path d="M64.9,18L65,18C66.105,18 67,18.895 67,20C67,21.105 66.105,22 65,22C64.033,22 63.666,22.002 63.372,22.025C59.449,22.333 56.333,25.449 56.025,29.372C56.002,29.666 56,30.033 56,31L56,36C56,37.105 55.105,38 54,38C52.895,38 52,37.105 52,36L52,30.9C52,30.067 52,29.53 52.037,29.058C52.5,23.174 57.174,18.5 63.059,18.037C63.53,18 64.067,18 64.9,18Z" style="fill:rgb(0,149,59);"/>
        <path d="M68,27C68,22.029 72.029,18 77,18C81.971,18 86,22.029 86,27L86,36C86,37.105 85.105,38 84,38C82.895,38 82,37.105 82,36L82,27C82,24.239 79.761,22 77,22C74.239,22 72,24.239 72,27L72,36C72,37.105 71.105,38 70,38C68.895,38 68,37.105 68,36L68,27Z" style="fill:rgb(0,149,59);"/>
        <circle cx="126" cy="23" r="2" style="fill:rgb(0,149,59);"/>
        <circle cx="25" cy="23" r="2" style="fill:rgb(0,149,59);"/>
    </g>
</svg>
