<?xml version="1.0" ?>
<svg xmlns="http://www.w3.org/2000/svg" viewBox="0 0 1212 1541">
	<defs>
		<clipPath clipPathUnits="userSpaceOnUse" id="cp1">
			<path d="m0 0.67h9907.62v1571.6h-9907.62z"/>
		</clipPath>
	</defs>
	<style>
		.s0 { fill: #000000 } 
	</style>
	<g id="Clip-Path: Clip-Path" clip-path="url(#cp1)">
		<g id="Clip-Path">
			<g id="g2">
				<path id="path2" fill-rule="evenodd" class="s0" d="m0.6 0.9h640c333.5 0 492.5 173.1 492.5 375.7 0 103.2-41.7 178.9-117.3 235.3-23.8 16-37.2 32.7-37.2 52.5 0 19.9 12.8 37.9 37.2 52.6 134 74.4 195.6 198.7 195.6 350 0 262.2-187.3 473.8-577.8 473.8h-633zm661.8 576.3c107.1 0 180.2-70.5 180.2-169.9 0-103.2-72.4-171.8-180.2-171.8h-232.7c-86.6 0-137.3 48.8-137.3 134v72.5c0 83.3 50.7 133.9 137.3 133.9h232.7zm-8.9 728.3c155.1 0 263.5-99.4 263.5-246.2 0-151.9-108.4-253.2-263.5-253.2h-223.8c-86.6 0-137.3 48.7-137.3 134v231.4c0 86.6 50.7 134 137.3 134z"/>
			</g>
		</g>
	</g>
</svg>