<?xml version="1.0" ?>
<svg xmlns="http://www.w3.org/2000/svg"  viewBox="0 0 90 90">
	<g id="boxcryptor" stroke="none" stroke-width="1" fill="none" fill-rule="evenodd">
		<rect id="Rectangle" fill="#009155" x="0" y="0" width="90" height="90"/>
		<g id="logo" transform="translate(8.000000, 8.000000)" fill="#FFFFFF" fill-rule="nonzero">
			<g id="Group" transform="translate(36.000000, 37.000000) scale(-1, 1) rotate(-180.000000) translate(-36.000000, -37.000000) ">
				<path d="M 14.71094,70.13477 C 14.55273,69.92383 13.88477,69.13281 13.23438,68.37695 C 8.55859,62.99805 5.60547,55.65039 5.0957,48.12695 L 4.95508,46.31641 L 2.70508,46.31641 L 0.4375,46.31641 L 0.4375,47.61719 C 0.4375,50.76367 1.47461,55.98438 2.81055,59.58789 C 4.39258,63.89453 6.95898,68.21875 10.01758,71.76953 L 11.74023,73.77344 L 13.375,72.13867 C 14.97461,70.53906 15.00977,70.50391 14.71094,70.13477 M 21.51367,64.0 L 27.20898,58.30469 L 26.3125,57.21484 C 24.0625,54.4375 22.65625,51.02734 22.30469,47.49414 L 22.19922,46.31641 L 14.07812,46.35156 L 5.97461,46.4043 L 6.02734,47.63477 C 6.25586,53.99805 8.62891,60.71289 12.44336,65.88086 C 13.58594,67.44531 15.51953,69.69531 15.71289,69.69531 C 15.76562,69.69531 18.38477,67.12891 21.51367,64.0 M 44.11914,67.84961 C 47.74023,67.19922 51.66016,65.30078 54.4375,62.875 L 55.42188,62.01367 L 53.78711,60.37891 L 52.16992,58.76172 L 51.09766,59.60547 C 48.25,61.9082 44.13672,63.52539 41.18359,63.54297 L 40.33984,63.54297 L 40.33984,65.93359 L 40.33984,68.32422 L 41.53516,68.21875 C 42.18555,68.14844 43.3457,67.99023 44.11914,67.84961 M 61.09961,64.82617 C 65.17773,60.44922 67.86719,54.10352 68.23633,48.03906 L 68.3418,46.31641 L 62.98047,46.31641 L 57.61914,46.31641 L 57.51367,47.6875 C 57.37305,49.48047 56.81055,51.53711 55.98438,53.29492 C 55.26367,54.8418 53.82227,57.05664 53.08398,57.74219 L 52.62695,58.16406 L 56.37109,61.9082 C 58.42773,63.96484 60.16797,65.65234 60.2207,65.65234 C 60.27344,65.65234 60.67773,65.2832 61.09961,64.82617 M 39.63672,60.13281 L 39.63672,57.61914 L 38.2832,57.39062 C 36.08594,57.03906 34.3457,56.2832 32.58789,54.91211 L 31.97266,54.41992 L 30.16211,56.23047 L 28.36914,58.04102 L 29.08984,58.69141 C 31.49805,60.87109 35.75195,62.57617 38.89844,62.64648 L 39.63672,62.66406 L 39.63672,60.13281 M 44.11914,62.13672 C 46.50977,61.53906 49.44531,59.93945 51.32617,58.23438 C 51.43164,58.14648 50.78125,57.37305 49.67383,56.26562 L 47.8457,54.4375 L 46.9668,55.14062 C 45.45508,56.33594 43.31055,57.19727 41.18359,57.47852 L 40.33984,57.58398 L 40.33984,60.15039 L 40.33984,62.7168 L 41.53516,62.61133 C 42.18555,62.54102 43.36328,62.33008 44.11914,62.13672 M 30.83008,53.10156 C 29.75781,51.71289 28.93164,49.91992 28.61523,48.25 C 28.45703,47.42383 28.31641,46.65039 28.28125,46.52734 C 28.22852,46.35156 27.63086,46.31641 25.71484,46.35156 L 23.20117,46.4043 L 23.25391,47.37109 C 23.44727,50.53516 25.09961,54.45508 27.26172,56.86328 L 27.91211,57.58398 L 29.72266,55.79102 L 31.51562,54.01562 L 30.83008,53.10156 M 53.78711,55.33398 C 55.29883,53.11914 56.35352,50.20117 56.61719,47.56445 L 56.74023,46.31641 L 54.17383,46.31641 L 51.60742,46.31641 L 51.50195,46.98438 C 51.15039,49.41016 50.35938,51.43164 49.09375,53.01367 L 48.39062,53.91016 L 50.20117,55.73828 L 52.0293,57.56641 L 52.5918,56.91602 C 52.9082,56.54688 53.45312,55.84375 53.78711,55.33398 M 28.42188,44.50586 C 28.66797,42.41406 29.38867,40.65625 30.77734,38.8457 L 31.41016,38.00195 L 29.58203,36.17383 L 27.77148,34.3457 L 27.2793,34.92578 C 25.82031,36.61328 24.625,38.77539 23.93945,40.95508 C 23.5,42.37891 23.04297,45.34961 23.21875,45.64844 C 23.27148,45.71875 24.43164,45.77148 25.80273,45.75391 L 28.29883,45.70117 L 28.42188,44.50586 M 56.6875,44.96289 C 56.6875,43.89062 56.07227,41.23633 55.45703,39.6543 C 54.89453,38.19531 53.22461,35.50586 52.43359,34.76758 L 52.01172,34.36328 L 50.21875,36.17383 L 48.42578,37.9668 L 49.05859,38.75781 C 50.30664,40.32227 51.18555,42.48438 51.50195,44.78711 L 51.60742,45.61328 L 54.15625,45.61328 L 56.6875,45.61328 L 56.6875,44.96289 M 68.23633,43.73242 C 68.02539,40.28711 67.11133,36.94727 65.47656,33.57227 C 64.29883,31.14648 63.29688,29.59961 61.55664,27.52539 L 60.32617,26.06641 L 56.54688,29.8457 L 52.75,33.64258 L 53.24219,34.22266 C 54.33203,35.55859 55.84375,38.05469 56.35352,39.37305 C 56.98633,40.99023 57.56641,43.55664 57.56641,44.78711 L 57.56641,45.61328 L 62.96289,45.61328 L 68.3418,45.61328 L 68.23633,43.73242 M 33.83594,36.06836 C 35.11914,35.25977 37.07031,34.57422 38.49414,34.43359 L 39.6543,34.31055 L 39.60156,31.74414 L 39.54883,29.17773 L 38.58203,29.23047 C 35.40039,29.42383 31.51562,31.04102 28.91406,33.29102 L 28.29883,33.81836 L 30.14453,35.66406 L 31.97266,37.52734 L 32.42969,37.10547 C 32.67578,36.87695 33.30859,36.41992 33.83594,36.06836 M 51.27344,33.60742 C 50.11328,32.32422 47.16016,30.63672 44.73438,29.89844 C 43.3457,29.47656 40.58594,29.03711 40.30469,29.21289 C 40.2168,29.24805 40.16406,30.39062 40.16406,31.74414 C 40.16406,33.55469 40.2168,34.22266 40.39258,34.25781 C 40.49805,34.29297 41.18359,34.41602 41.9043,34.52148 C 43.5918,34.78516 45.41992,35.55859 46.84375,36.63086 L 47.98633,37.49219 L 49.7793,35.7168 C 51.50195,34.01172 51.57227,33.92383 51.27344,33.60742 M 28.22852,32.67578 C 28.86133,32.00781 31.33984,30.39062 32.71094,29.77539 C 34.16992,29.10742 36.63086,28.47461 38.37109,28.29883 L 39.63672,28.17578 L 39.63672,25.9082 L 39.63672,23.64062 L 38.6875,23.64062 C 36.31445,23.64062 32.21875,24.76562 29.56445,26.13672 C 28.12305,26.89258 26.62891,27.91211 25.1875,29.16016 L 24.34375,29.88086 L 25.96094,31.49805 C 26.85742,32.39453 27.63086,33.13281 27.70117,33.13281 C 27.75391,33.13281 27.98242,32.92188 28.22852,32.67578 M 56.14258,29.37109 L 59.88672,25.62695 L 58.51562,24.43164 C 53.92773,20.5293 48.67188,18.2793 42.53711,17.64648 C 41.51758,17.54102 40.58594,17.48828 40.42773,17.54102 C 40.19922,17.64648 40.16406,18.34961 40.16406,22.91992 L 40.16406,28.17578 L 41.35938,28.29883 C 45.06836,28.68555 48.16211,29.89844 50.88672,32.06055 C 51.60742,32.64062 52.24023,33.11537 52.29297,33.11537 C 52.3457,33.13281 54.06836,31.44531 56.14258,29.37109 M 62.20703,23.30664 C 63.06836,22.44531 63.71875,21.6543 63.64844,21.56641 C 63.36719,21.10938 60.11523,18.54297 58.44531,17.45312 C 53.73438,14.37695 48.25,12.51367 42.53711,12.05664 C 41.37695,11.96875 40.35742,11.95117 40.28711,12.02148 C 40.2168,12.0918 40.18164,13.14648 40.19922,14.3418 L 40.25195,16.52148 L 40.95508,16.55664 C 43.99609,16.75 47.125,17.34766 49.65625,18.22656 C 52.85547,19.35156 56.77539,21.63672 59.20117,23.79883 C 59.85156,24.39648 60.44922,24.87109 60.51953,24.87109 C 60.58984,24.87109 61.3457,24.16797 62.20703,23.30664 M 68.28906,17.22461 C 70.60938,14.9043 71.99805,13.39258 71.89258,13.30469 C 71.78711,13.2168 71.11914,12.60156 70.39844,11.95117 C 64.21094,6.30859 56.21289,2.44141 47.65234,0.94727 C 45.45508,0.56.54688 40.84961,0.15625 40.44531,0.31445 C 40.19922,0.41992 40.16406,1.05273 40.16406,5.67578 L 40.16406,10.91406 L 42.50195,11.125 C 47.14258,11.5293 51.11523,12.58398 55.08789,14.5 C 58.23438,16.0293 62.08398,18.66602 63.78906,20.45898 C 64.08789,20.75781 64.35156,21.00391 64.4043,21.00391 C 64.47461,21.00391 66.21484,19.29883 68.28906,17.22461" id="Shape"/>
			</g>
		</g>
	</g>
</svg>