<?xml version="1.0" ?>
<svg xmlns="http://www.w3.org/2000/svg" viewBox="0 0 150 46.32" version="1.2" baseProfile="tiny-ps">
	<path d="M14.21,38.22H15.9a2.26,2.26,0,0,1,1.27.3,1.47,1.47,0,0,1,.69,1.34A1.43,1.43,0,0,1,17,41.22a1.71,1.71,0,0,1,.36,3.13,2.35,2.35,0,0,1-1.38.29H14.21ZM14.92,41h1a1.88,1.88,0,0,0,.76-.13,1,1,0,0,0,.52-1,1,1,0,0,0-.52-.91,1.72,1.72,0,0,0-.8-.15h-.93Zm0,3h1.16a2,2,0,0,0,.78-.12,1.09,1.09,0,0,0,.68-1.06,1.15,1.15,0,0,0-.69-1.09,2,2,0,0,0-.9-.13h-1Z" fill="#231f20"/>
	<path d="M23.33,42.38l-2.06-4.16h.78l1.64,3.47,1.64-3.47h.78l-2.06,4.16v2.26h-.72Z" fill="#231f20"/>
	<path d="M34.56,38.22h1.92a3.16,3.16,0,0,1,2.52,1,3.23,3.23,0,0,1,.77,2.24,3,3,0,0,1-3.26,3.22H34.56ZM35.27,44h1.28a2.31,2.31,0,0,0,2.5-2.55,2.77,2.77,0,0,0-.62-1.88,2.47,2.47,0,0,0-1.88-.72H35.27Z" fill="#231f20"/>
	<path d="M43.18,44.64h-.77l2.68-6.42h.7l2.65,6.42h-.78l-.75-1.81h-3ZM45.41,39l-1.27,3.21H46.7Z" fill="#231f20"/>
	<path d="M56.24,43.58V38.22h.69v6.42h-.69l-3.81-5.4,0,5.4h-.69V38.22h.73Z" fill="#231f20"/>
	<path d="M60.8,38.22h.72v6.42H60.8Z" fill="#231f20"/>
	<path d="M65.41,38.22H69v.63H66.12v2.23h2.82v.64H66.12V44H69v.64H65.41Z" fill="#231f20"/>
	<path d="M72.7,38.22h.72V44h2.45v.64H72.7Z" fill="#231f20"/>
	<path d="M84,44.64h-.78l2.68-6.42h.7l2.65,6.42h-.78l-.74-1.81h-3ZM86.23,39,85,42.24h2.56Z" fill="#231f20"/>
	<path d="M92.57,44.64V38.22h1L96,43.61l2.37-5.39h1v6.42h-.67V38.93l-2.48,5.71h-.46l-2.5-5.71,0,5.71Z" fill="#231f20"/>
	<path d="M103.2,38.22h3.56v.63h-2.85v2.23h2.83v.64h-2.83V44h2.85v.64H103.2Z" fill="#231f20"/>
	<path d="M115,43.58V38.22h.7v6.42H115l-3.8-5.4,0,5.4h-.7V38.22h.73Z" fill="#231f20"/>
	<path d="M119,45.29h-.58l.55-1.62h.68Z" fill="#231f20"/>
	<path d="M127.87,44.64V38.22h1l2.37,5.39,2.37-5.39h1v6.42H134l0-5.71-2.49,5.71H131l-2.5-5.71,0,5.71Z" fill="#231f20"/>
	<path d="M138.51,38.22h1.91a3.16,3.16,0,0,1,2.52,1,3.23,3.23,0,0,1,.78,2.24,3,3,0,0,1-3.26,3.22h-2Zm.71,5.78h1.27A2.31,2.31,0,0,0,143,41.45a2.73,2.73,0,0,0-.63-1.88,2.45,2.45,0,0,0-1.88-.72h-1.27Z" fill="#231f20"/>
	<path d="M136.84,32.89a11.86,11.86,0,0,0,8.46-3.28c2.64-2.61,4-6.53,4-11.64,0-4.25-1.16-7.83-3.36-10.35A11.41,11.41,0,0,0,137,3.8h-2.7V7.4h2.17a7.59,7.59,0,0,1,6.35,2.86c1.44,1.85,2.18,4.53,2.18,8,0,6.94-3.09,11.08-8.25,11.08h-7.43V3.8h-5.8l-8.16,24.27L107.17,3.8h-5.82V32.89h4V15.45c0-.35,0-.89,0-1.53v-.7c0-.25,0-.51,0-.78l0-3.34,8,23.79h4l7.8-23.22V32.89Z" fill="#231f20"/>
	<path d="M69.46,11.38V33.07H66.71V29.34a12,12,0,0,1-3.94,3.21,11,11,0,0,1-12.63-2.26,11.21,11.21,0,0,1-3.26-8.12,11,11,0,0,1,3.29-8,10.72,10.72,0,0,1,7.91-3.33A10.3,10.3,0,0,1,62.91,12a11.11,11.11,0,0,1,3.8,3.41v-4ZM58.31,13.52A8.43,8.43,0,0,0,54,14.66a8.52,8.52,0,0,0-3.14,3.22,8.82,8.82,0,0,0,0,8.76A8.66,8.66,0,0,0,54,29.89a8.22,8.22,0,0,0,4.25,1.17,8.74,8.74,0,0,0,4.34-1.16,8,8,0,0,0,3.15-3.12,8.92,8.92,0,0,0,1.11-4.44,8.63,8.63,0,0,0-2.48-6.29A8.2,8.2,0,0,0,58.31,13.52Zm13.91-2.14H75V33.07H72.22Zm5.48,0h2.79v3.89a11.68,11.68,0,0,1,3.71-3.34,9.17,9.17,0,0,1,4.42-1.1,7.74,7.74,0,0,1,4.32,1.23,7.47,7.47,0,0,1,2.78,3.33,17.58,17.58,0,0,1,.9,6.52V33.07H93.83V22.72a25,25,0,0,0-.32-5,5.54,5.54,0,0,0-1.85-3.24,5.66,5.66,0,0,0-3.59-1.08,6.93,6.93,0,0,0-4.54,1.67,7.92,7.92,0,0,0-2.64,4.15,29.17,29.17,0,0,0-.4,5.9v8H77.7Zm-30.63-.49a2.5,2.5,0,0,0-.38-.06,5.39,5.39,0,0,0-2.95.92,10.2,10.2,0,0,0-2.69,2.8V11.38H38.2V33.07h2.85V25.73a33.77,33.77,0,0,1,.52-7.49,7.28,7.28,0,0,1,2-3.56,4.06,4.06,0,0,1,2.69-1.14,3.18,3.18,0,0,1,.84.15ZM33.45,14.17a10.56,10.56,0,0,0-7.86-3.34,10.68,10.68,0,0,0-4.76,1.06,11.91,11.91,0,0,0-3.92,3.22v-11A26.09,26.09,0,0,0,14.12,5V33.07h2.79v-4a11.12,11.12,0,0,0,3.81,3.41,10.05,10.05,0,0,0,4.79,1.14,10.72,10.72,0,0,0,7.91-3.33,11,11,0,0,0,3.28-8A11.15,11.15,0,0,0,33.45,14.17Zm-.74,12.4a8.41,8.41,0,0,1-7.43,4.37,8.18,8.18,0,0,1-6.09-2.54,8.63,8.63,0,0,1-2.48-6.29,8.93,8.93,0,0,1,1.11-4.45A8.15,8.15,0,0,1,21,14.52a8.74,8.74,0,0,1,4.34-1.16,8.26,8.26,0,0,1,4.23,1.16,8.59,8.59,0,0,1,3.15,3.26,8.87,8.87,0,0,1,0,8.79ZM75,9.9H72.22V7.09H75Z" fill="#231f20"/>
	<path d="M4.29,14.59C3.32,9.39,10,3.78,19.15,2.07a28.08,28.08,0,0,1,7.28-.41,25.89,25.89,0,0,0-10.75-.13C6.5,3.24-.16,8.85.81,14.05c.7,3.76,5.2,6.27,11.1,6.73C7.78,19.76,4.84,17.57,4.29,14.59Z" fill="#231f20"/>
</svg>