<?xml version="1.0" ?>
<svg xmlns="http://www.w3.org/2000/svg" viewBox="0 0 40 40" fill="none">
	<g>
		<path d="M38.3969 20.0821C38.3969 9.89473 30.1106 1.61157 19.9264 1.61157C9.7422 1.61157 1.45483 9.89473 1.45483 20.0821C1.45483 29.7063 8.85378 37.6337 18.2622 38.4768H18.3075C18.4619 38.4902 18.6166 38.5018 18.7717 38.5116L18.8611 38.5168C19.0015 38.5253 19.144 38.5316 19.2885 38.5358H19.4011C19.5759 38.5358 19.7506 38.5442 19.9275 38.5442C20.1043 38.5442 20.2611 38.5442 20.4275 38.5368H20.498C20.6447 38.5326 20.7906 38.5267 20.9359 38.5189H20.9654C21.2931 38.5007 21.6187 38.4737 21.9422 38.4379C31.1812 37.4358 38.3969 29.5863 38.3969 20.0821ZM21.879 36.68L21.7011 31.5716L26.1622 28.8347C26.6742 29.1856 27.2733 29.388 27.8931 29.4195C28.513 29.451 29.1295 29.3103 29.6744 29.013C30.2193 28.7157 30.6712 28.2734 30.9803 27.7352C31.2893 27.1969 31.4434 26.5836 31.4254 25.9632C31.3909 25.1087 31.036 24.2986 30.4314 23.694C29.8267 23.0893 29.0166 22.7345 28.1622 22.7C27.6665 22.6822 27.1731 22.7749 26.7177 22.9715C26.2623 23.168 25.8563 23.4634 25.5292 23.8363C25.2021 24.2091 24.9621 24.6501 24.8265 25.1272C24.6909 25.6043 24.6632 26.1056 24.7454 26.5947L21.5969 28.5421L21.3685 22.1053L25.759 19.42C26.5062 19.9779 27.4263 20.2542 28.3572 20.2C29.2881 20.1458 30.1699 19.7647 30.8473 19.1239C31.5247 18.4831 31.954 17.6237 32.0597 16.6972C32.1653 15.7707 31.9405 14.8367 31.4247 14.0598C30.909 13.283 30.1356 12.7131 29.2408 12.4508C28.346 12.1884 27.3873 12.2504 26.5338 12.6259C25.6802 13.0013 24.9866 13.666 24.5753 14.5028C24.1639 15.3397 24.0613 16.2949 24.2854 17.2L21.2633 19.0758L21.0843 13.9389C21.7856 13.6678 22.3843 13.1838 22.7965 12.5549C23.2086 11.926 23.4135 11.1839 23.3822 10.4326C23.3552 9.78431 23.1533 9.15536 22.798 8.6124C22.4427 8.06944 21.9472 7.63267 21.3639 7.34835C20.7806 7.06403 20.1313 6.94274 19.4847 6.99733C18.8382 7.05193 18.2184 7.28036 17.691 7.65845C17.1637 8.03654 16.7484 8.55021 16.4891 9.14506C16.2299 9.73991 16.1364 10.3938 16.2184 11.0375C16.3005 11.6811 16.5551 12.2906 16.9553 12.8014C17.3555 13.3122 17.8863 13.7053 18.4917 13.9389L18.1654 24.5821L14.8759 22.4863C15.0954 21.5895 14.9906 20.6439 14.5801 19.8168C13.9222 18.4484 12.5959 17.4779 11.0833 17.3832C10.4033 17.3388 9.72278 17.4617 9.10133 17.7413C8.47988 18.0208 7.93641 18.4484 7.51848 18.9866C7.10056 19.5248 6.82091 20.1572 6.70402 20.8286C6.58713 21.4999 6.63656 22.1896 6.84799 22.8374C7.05941 23.4852 7.42638 24.0713 7.91679 24.5444C8.40719 25.0176 9.00608 25.3633 9.66104 25.5513C10.316 25.7394 11.0071 25.764 11.6738 25.6232C12.3405 25.4823 12.9625 25.1801 13.4854 24.7432L18.0706 27.6442L17.7948 36.66C9.58431 35.6126 3.20747 28.5779 3.20747 20.0821C3.21378 10.8674 10.7106 3.36841 19.9264 3.36841C29.1422 3.36841 36.639 10.8653 36.639 20.081C36.639 28.6368 30.1769 35.7095 21.879 36.68Z" fill="#333E48"/>
		<path d="M19.7895 8.40527C19.3579 8.40527 18.9361 8.53325 18.5772 8.77302C18.2184 9.0128 17.9387 9.3536 17.7735 9.75232C17.6084 10.1511 17.5652 10.5898 17.6494 11.0131C17.7335 11.4364 17.9414 11.8252 18.2465 12.1304C18.5517 12.4355 18.9405 12.6434 19.3638 12.7276C19.7871 12.8118 20.2259 12.7685 20.6246 12.6034C21.0233 12.4382 21.3641 12.1585 21.6039 11.7997C21.8437 11.4408 21.9716 11.019 21.9716 10.5874C21.9711 10.0088 21.741 9.45412 21.3319 9.04501C20.9228 8.63591 20.3681 8.40583 19.7895 8.40527Z" fill="#009BDE"/>
		<path d="M28.0157 24.1295C27.6238 24.1301 27.2409 24.247 26.9154 24.4653C26.59 24.6836 26.3365 24.9935 26.1872 25.3559C26.0379 25.7182 25.9995 26.1167 26.0767 26.5009C26.1539 26.8851 26.3434 27.2378 26.6211 27.5144C26.8988 27.7909 27.2523 27.9788 27.6368 28.0544C28.0213 28.13 28.4197 28.0898 28.7814 27.939C29.1431 27.7882 29.4519 27.5334 29.6688 27.207C29.8858 26.8806 30.001 26.4972 29.9999 26.1053C29.998 25.5804 29.788 25.0777 29.4161 24.7074C29.0442 24.337 28.5406 24.1292 28.0157 24.1295Z" fill="#009BDE"/>
		<path d="M29.2368 18.3821C29.6514 18.1802 29.9968 17.8598 30.2293 17.4616C30.4619 17.0633 30.5711 16.6051 30.5432 16.1448C30.5152 15.6844 30.3514 15.2427 30.0725 14.8755C29.7935 14.5083 29.4119 14.232 28.9759 14.0817C28.5399 13.9314 28.0692 13.9137 27.6231 14.0309C27.1771 14.1482 26.7759 14.395 26.4702 14.7403C26.1645 15.0856 25.968 15.5138 25.9057 15.9707C25.8433 16.4277 25.9179 16.8928 26.1199 17.3074C26.3912 17.8628 26.8718 18.2878 27.4561 18.4893C28.0404 18.6908 28.6808 18.6523 29.2368 18.3821Z" fill="#009BDE"/>
		<path d="M10.8232 19.0305C10.3261 19.0307 9.84026 19.1783 9.42705 19.4546C9.01384 19.7309 8.69181 20.1235 8.50169 20.5827C8.31156 21.042 8.26187 21.5473 8.3589 22.0349C8.45592 22.5224 8.69531 22.9702 9.04679 23.3216C9.39827 23.6731 9.84607 23.9125 10.3336 24.0095C10.8211 24.1066 11.3264 24.0569 11.7857 23.8667C12.245 23.6766 12.6376 23.3546 12.9138 22.9414C13.1901 22.5282 13.3377 22.0423 13.3379 21.5453C13.3374 20.8785 13.0722 20.2392 12.6008 19.7677C12.1293 19.2962 11.49 19.0311 10.8232 19.0305Z" fill="#009BDE"/>
	</g>
</svg>
