<svg xmlns="http://www.w3.org/2000/svg" fill="none" viewBox="0 0 347 318"><path fill="url(#a)" fill-rule="evenodd" d="M152.593 10.187c10.482-13.583 30.977-13.582 41.459 0l129.804 168.191a26.182 26.182 0 0 1 1.673 29.551l-10.907 18.025c-2.807 4.64-8.844 6.125-13.484 3.318-4.64-2.807-6.125-8.844-3.318-13.484l10.907-18.025a6.546 6.546 0 0 0-.418-7.388L178.505 22.184c-2.621-3.396-7.745-3.396-10.365 0L38.328 190.386a6.545 6.545 0 0 0-.422 7.381l10.883 18.03c2.803 4.643 1.31 10.679-3.332 13.48-4.643 2.802-10.679 1.31-13.481-3.332l-10.883-18.031a26.18 26.18 0 0 1 1.688-29.525L152.593 10.187ZM66.918 264.832c4.642-2.803 10.678-1.311 13.48 3.332l20.825 34.5c2.802 4.643 1.31 10.678-3.333 13.48-4.643 2.802-10.678 1.31-13.48-3.332l-20.825-34.501c-2.802-4.642-1.31-10.677 3.333-13.479Zm212.7.005c4.639 2.807 6.125 8.844 3.318 13.484l-20.876 34.5c-2.807 4.639-8.845 6.125-13.484 3.317-4.64-2.807-6.126-8.844-3.318-13.483l20.875-34.5c2.808-4.639 8.845-6.125 13.485-3.318Z" clip-rule="evenodd"/><path fill="url(#b)" fill-rule="evenodd" d="M152.593 106.671c10.482-13.583 30.977-13.583 41.459 0l150.547 195.068c3.313 4.293 2.519 10.459-1.775 13.772-4.293 3.313-10.459 2.518-13.772-1.775L178.505 118.668c-2.62-3.396-7.744-3.396-10.365 0L17.593 313.736c-3.313 4.293-9.48 5.088-13.772 1.775-4.294-3.313-5.088-9.479-1.775-13.772l150.547-195.068Z" clip-rule="evenodd"/><defs><linearGradient id="a" x1="0" x2="1646.65" y1="37.083" y2="377.932" gradientUnits="userSpaceOnUse"><stop stop-color="#CA93B1"/><stop offset="1" stop-color="#3D2E7A"/></linearGradient><linearGradient id="b" x1="0" x2="1646.65" y1="37.083" y2="377.932" gradientUnits="userSpaceOnUse"><stop stop-color="#CA93B1"/><stop offset="1" stop-color="#3D2E7A"/></linearGradient></defs></svg>