<?xml version="1.0" ?>
<svg xmlns="http://www.w3.org/2000/svg" version="1.2" viewBox="0 0 1470 441">
	<defs>
		<clipPath clipPathUnits="userSpaceOnUse" id="cp1">
			<path d="m1189.39 125.52h291.15v316.14h-291.15z"/>
		</clipPath>
		<clipPath clipPathUnits="userSpaceOnUse" id="cp2">
			<path d="m1322.31 306.07l-124.27 114.6c-7.91 7.26-2.72 20.45 8.01 20.45h145.58c107.4 0 158.98-131.69 80.06-204.51l-109.38-100.82c49.74 45.89 49.74 124.39 0 170.28z"/>
		</clipPath>
		<linearGradient id="g1" x1="1472" y1="113.6" x2="1259.8" y2="481.2" gradientUnits="userSpaceOnUse">
			<stop offset="0" stop-color="#005ca9"/>
			<stop offset=".25" stop-color="#005ca9"/>
			<stop offset=".313" stop-color="#005ca9"/>
			<stop offset=".316" stop-color="#005daa"/>
			<stop offset=".32" stop-color="#005daa"/>
			<stop offset=".324" stop-color="#005fab"/>
			<stop offset=".328" stop-color="#0060ac"/>
			<stop offset=".332" stop-color="#0061ad"/>
			<stop offset=".336" stop-color="#0062ad"/>
			<stop offset=".34" stop-color="#0063ae"/>
			<stop offset=".344" stop-color="#0064af"/>
			<stop offset=".348" stop-color="#0065b0"/>
			<stop offset=".352" stop-color="#0066b1"/>
			<stop offset=".355" stop-color="#0067b1"/>
			<stop offset=".359" stop-color="#0068b2"/>
			<stop offset=".363" stop-color="#0069b3"/>
			<stop offset=".367" stop-color="#006ab4"/>
			<stop offset=".371" stop-color="#006bb4"/>
			<stop offset=".375" stop-color="#006cb5"/>
			<stop offset=".379" stop-color="#006db6"/>
			<stop offset=".383" stop-color="#006db7"/>
			<stop offset=".387" stop-color="#006eb7"/>
			<stop offset=".391" stop-color="#006fb8"/>
			<stop offset=".395" stop-color="#0070b9"/>
			<stop offset=".398" stop-color="#0071ba"/>
			<stop offset=".402" stop-color="#0072ba"/>
			<stop offset=".406" stop-color="#0073bb"/>
			<stop offset=".41" stop-color="#0074bc"/>
			<stop offset=".414" stop-color="#0075bd"/>
			<stop offset=".418" stop-color="#0076bd"/>
			<stop offset=".422" stop-color="#0077be"/>
			<stop offset=".426" stop-color="#0078bf"/>
			<stop offset=".43" stop-color="#0078bf"/>
			<stop offset=".434" stop-color="#0079c0"/>
			<stop offset=".438" stop-color="#007ac1"/>
			<stop offset=".441" stop-color="#007bc1"/>
			<stop offset=".445" stop-color="#007cc2"/>
			<stop offset=".449" stop-color="#007dc3"/>
			<stop offset=".453" stop-color="#007dc3"/>
			<stop offset=".457" stop-color="#007ec4"/>
			<stop offset=".461" stop-color="#007fc5"/>
			<stop offset=".465" stop-color="#0080c5"/>
			<stop offset=".469" stop-color="#0081c6"/>
			<stop offset=".473" stop-color="#0082c7"/>
			<stop offset=".477" stop-color="#0082c7"/>
			<stop offset=".48" stop-color="#0083c8"/>
			<stop offset=".484" stop-color="#0084c8"/>
			<stop offset=".488" stop-color="#0085c9"/>
			<stop offset=".492" stop-color="#0085ca"/>
			<stop offset=".496" stop-color="#0086ca"/>
			<stop offset=".5" stop-color="#0087cb"/>
			<stop offset=".504" stop-color="#0088cb"/>
			<stop offset=".508" stop-color="#0088cc"/>
			<stop offset=".512" stop-color="#0089cd"/>
			<stop offset=".516" stop-color="#008acd"/>
			<stop offset=".52" stop-color="#008bce"/>
			<stop offset=".523" stop-color="#008bce"/>
			<stop offset=".527" stop-color="#008ccf"/>
			<stop offset=".531" stop-color="#008dcf"/>
			<stop offset=".535" stop-color="#008dd0"/>
			<stop offset=".539" stop-color="#008ed0"/>
			<stop offset=".543" stop-color="#008fd1"/>
			<stop offset=".547" stop-color="#008fd1"/>
			<stop offset=".551" stop-color="#0090d2"/>
			<stop offset=".555" stop-color="#0091d3"/>
			<stop offset=".559" stop-color="#0091d3"/>
			<stop offset=".563" stop-color="#0092d4"/>
			<stop offset=".566" stop-color="#0093d4"/>
			<stop offset=".57" stop-color="#0093d5"/>
			<stop offset=".574" stop-color="#0094d5"/>
			<stop offset=".578" stop-color="#0095d6"/>
			<stop offset=".582" stop-color="#0095d6"/>
			<stop offset=".586" stop-color="#0096d6"/>
			<stop offset=".59" stop-color="#0096d7"/>
			<stop offset=".594" stop-color="#0097d7"/>
			<stop offset=".598" stop-color="#0098d8"/>
			<stop offset=".602" stop-color="#0098d8"/>
			<stop offset=".605" stop-color="#0099d9"/>
			<stop offset=".609" stop-color="#0099d9"/>
			<stop offset=".613" stop-color="#009ada"/>
			<stop offset=".617" stop-color="#009ada"/>
			<stop offset=".621" stop-color="#009bdb"/>
			<stop offset=".625" stop-color="#009cdb"/>
			<stop offset=".629" stop-color="#009cdb"/>
			<stop offset=".633" stop-color="#009ddc"/>
			<stop offset=".637" stop-color="#009ddc"/>
			<stop offset=".641" stop-color="#009edd"/>
			<stop offset=".645" stop-color="#009edd"/>
			<stop offset=".648" stop-color="#009fdd"/>
			<stop offset=".656" stop-color="#009fde"/>
			<stop offset=".664" stop-color="#00a0de"/>
			<stop offset=".672" stop-color="#00a1df"/>
			<stop offset=".68" stop-color="#00a2e0"/>
			<stop offset=".688" stop-color="#00a3e1"/>
			<stop offset=".695" stop-color="#00a4e1"/>
			<stop offset=".703" stop-color="#00a4e2"/>
			<stop offset=".711" stop-color="#00a5e3"/>
			<stop offset=".719" stop-color="#00a6e3"/>
			<stop offset=".727" stop-color="#00a7e4"/>
			<stop offset=".734" stop-color="#00a7e4"/>
			<stop offset=".742" stop-color="#00a8e5"/>
			<stop offset=".75" stop-color="#00a9e5"/>
			<stop offset=".758" stop-color="#00a9e6"/>
			<stop offset=".766" stop-color="#00aae6"/>
			<stop offset=".773" stop-color="#00abe7"/>
			<stop offset=".781" stop-color="#00abe7"/>
			<stop offset=".797" stop-color="#00ace8"/>
			<stop offset=".813" stop-color="#00ade9"/>
			<stop offset=".828" stop-color="#00aee9"/>
			<stop offset=".844" stop-color="#00aeea"/>
			<stop offset=".875" stop-color="#00afea"/>
			<stop offset="1" stop-color="#00b0eb"/>
		</linearGradient>
		<clipPath clipPathUnits="userSpaceOnUse" id="cp3">
			<path d="m1189.39-0.94h291.15v227.63h-291.15z"/>
		</clipPath>
		<clipPath clipPathUnits="userSpaceOnUse" id="cp4">
			<path d="m1206.05 0.74c-10.73 0-15.92 13.19-8.01 20.45l216.59 199.77 17.06-15.71c78.92-72.81 27.34-204.51-80.06-204.51z"/>
		</clipPath>
		<linearGradient id="g2" x1="1190.1" y1="110.8" x2="1510.6" y2="110.8" gradientUnits="userSpaceOnUse">
			<stop offset="0" stop-color="#ec6607"/>
			<stop offset=".016" stop-color="#ec6607"/>
			<stop offset=".02" stop-color="#ec6707"/>
			<stop offset=".023" stop-color="#ec6807"/>
			<stop offset=".027" stop-color="#ed6907"/>
			<stop offset=".031" stop-color="#ed6a07"/>
			<stop offset=".035" stop-color="#ed6a07"/>
			<stop offset=".039" stop-color="#ed6b07"/>
			<stop offset=".043" stop-color="#ed6c07"/>
			<stop offset=".047" stop-color="#ed6d07"/>
			<stop offset=".051" stop-color="#ed6d06"/>
			<stop offset=".055" stop-color="#ee6e06"/>
			<stop offset=".059" stop-color="#ee6f06"/>
			<stop offset=".063" stop-color="#ee7006"/>
			<stop offset=".066" stop-color="#ee7006"/>
			<stop offset=".07" stop-color="#ee7106"/>
			<stop offset=".074" stop-color="#ee7206"/>
			<stop offset=".078" stop-color="#ee7306"/>
			<stop offset=".082" stop-color="#ee7306"/>
			<stop offset=".086" stop-color="#ef7406"/>
			<stop offset=".09" stop-color="#ef7506"/>
			<stop offset=".094" stop-color="#ef7606"/>
			<stop offset=".098" stop-color="#ef7606"/>
			<stop offset=".102" stop-color="#ef7706"/>
			<stop offset=".105" stop-color="#ef7806"/>
			<stop offset=".109" stop-color="#ef7806"/>
			<stop offset=".113" stop-color="#f07906"/>
			<stop offset=".117" stop-color="#f07a06"/>
			<stop offset=".121" stop-color="#f07b06"/>
			<stop offset=".125" stop-color="#f07b06"/>
			<stop offset=".129" stop-color="#f07c05"/>
			<stop offset=".133" stop-color="#f07d05"/>
			<stop offset=".137" stop-color="#f07d05"/>
			<stop offset=".141" stop-color="#f07e05"/>
			<stop offset=".145" stop-color="#f17f05"/>
			<stop offset=".148" stop-color="#f17f05"/>
			<stop offset=".152" stop-color="#f18005"/>
			<stop offset=".156" stop-color="#f18105"/>
			<stop offset=".16" stop-color="#f18105"/>
			<stop offset=".164" stop-color="#f18205"/>
			<stop offset=".168" stop-color="#f18305"/>
			<stop offset=".172" stop-color="#f18305"/>
			<stop offset=".176" stop-color="#f28405"/>
			<stop offset=".18" stop-color="#f28505"/>
			<stop offset=".184" stop-color="#f28505"/>
			<stop offset=".188" stop-color="#f28605"/>
			<stop offset=".191" stop-color="#f28705"/>
			<stop offset=".195" stop-color="#f28705"/>
			<stop offset=".199" stop-color="#f28805"/>
			<stop offset=".203" stop-color="#f28905"/>
			<stop offset=".207" stop-color="#f38905"/>
			<stop offset=".211" stop-color="#f38a05"/>
			<stop offset=".215" stop-color="#f38b04"/>
			<stop offset=".219" stop-color="#f38b04"/>
			<stop offset=".223" stop-color="#f38c04"/>
			<stop offset=".227" stop-color="#f38d04"/>
			<stop offset=".23" stop-color="#f38d04"/>
			<stop offset=".234" stop-color="#f38e04"/>
			<stop offset=".238" stop-color="#f48f04"/>
			<stop offset=".242" stop-color="#f48f04"/>
			<stop offset=".246" stop-color="#f49004"/>
			<stop offset=".25" stop-color="#f49004"/>
			<stop offset=".254" stop-color="#f49104"/>
			<stop offset=".258" stop-color="#f49204"/>
			<stop offset=".262" stop-color="#f49204"/>
			<stop offset=".266" stop-color="#f49304"/>
			<stop offset=".27" stop-color="#f49404"/>
			<stop offset=".273" stop-color="#f59404"/>
			<stop offset=".277" stop-color="#f59504"/>
			<stop offset=".281" stop-color="#f59504"/>
			<stop offset=".285" stop-color="#f59604"/>
			<stop offset=".289" stop-color="#f59704"/>
			<stop offset=".293" stop-color="#f59704"/>
			<stop offset=".297" stop-color="#f59804"/>
			<stop offset=".301" stop-color="#f59804"/>
			<stop offset=".305" stop-color="#f59904"/>
			<stop offset=".309" stop-color="#f69a03"/>
			<stop offset=".313" stop-color="#f69a03"/>
			<stop offset=".316" stop-color="#f69b03"/>
			<stop offset=".32" stop-color="#f69b03"/>
			<stop offset=".324" stop-color="#f69c03"/>
			<stop offset=".328" stop-color="#f69c03"/>
			<stop offset=".332" stop-color="#f69d03"/>
			<stop offset=".336" stop-color="#f69e03"/>
			<stop offset=".34" stop-color="#f69e03"/>
			<stop offset=".344" stop-color="#f79f03"/>
			<stop offset=".348" stop-color="#f79f03"/>
			<stop offset=".352" stop-color="#f7a003"/>
			<stop offset=".355" stop-color="#f7a003"/>
			<stop offset=".359" stop-color="#f7a103"/>
			<stop offset=".363" stop-color="#f7a103"/>
			<stop offset=".367" stop-color="#f7a203"/>
			<stop offset=".371" stop-color="#f7a203"/>
			<stop offset=".375" stop-color="#f7a303"/>
			<stop offset=".379" stop-color="#f7a403"/>
			<stop offset=".383" stop-color="#f8a403"/>
			<stop offset=".387" stop-color="#f8a503"/>
			<stop offset=".391" stop-color="#f8a503"/>
			<stop offset=".395" stop-color="#f8a603"/>
			<stop offset=".398" stop-color="#f8a603"/>
			<stop offset=".402" stop-color="#f8a703"/>
			<stop offset=".406" stop-color="#f8a703"/>
			<stop offset=".41" stop-color="#f8a802"/>
			<stop offset=".414" stop-color="#f8a802"/>
			<stop offset=".418" stop-color="#f8a902"/>
			<stop offset=".422" stop-color="#f9a902"/>
			<stop offset=".426" stop-color="#f9aa02"/>
			<stop offset=".43" stop-color="#f9aa02"/>
			<stop offset=".438" stop-color="#f9ab02"/>
			<stop offset=".445" stop-color="#f9ac02"/>
			<stop offset=".453" stop-color="#f9ad02"/>
			<stop offset=".461" stop-color="#f9ae02"/>
			<stop offset=".469" stop-color="#faaf02"/>
			<stop offset=".477" stop-color="#fab002"/>
			<stop offset=".484" stop-color="#fab002"/>
			<stop offset=".492" stop-color="#fab102"/>
			<stop offset=".5" stop-color="#fab202"/>
			<stop offset=".508" stop-color="#fab302"/>
			<stop offset=".516" stop-color="#fbb402"/>
			<stop offset=".523" stop-color="#fbb502"/>
			<stop offset=".531" stop-color="#fbb602"/>
			<stop offset=".539" stop-color="#fbb701"/>
			<stop offset=".547" stop-color="#fbb701"/>
			<stop offset=".555" stop-color="#fbb801"/>
			<stop offset=".563" stop-color="#fbb901"/>
			<stop offset=".57" stop-color="#fcba01"/>
			<stop offset=".578" stop-color="#fcbb01"/>
			<stop offset=".586" stop-color="#fcbb01"/>
			<stop offset=".594" stop-color="#fcbc01"/>
			<stop offset=".602" stop-color="#fcbd01"/>
			<stop offset=".609" stop-color="#fcbd01"/>
			<stop offset=".617" stop-color="#fcbe01"/>
			<stop offset=".625" stop-color="#fdbf01"/>
			<stop offset=".633" stop-color="#fdc001"/>
			<stop offset=".641" stop-color="#fdc001"/>
			<stop offset=".648" stop-color="#fdc101"/>
			<stop offset=".656" stop-color="#fdc101"/>
			<stop offset=".664" stop-color="#fdc201"/>
			<stop offset=".672" stop-color="#fdc301"/>
			<stop offset=".68" stop-color="#fdc301"/>
			<stop offset=".688" stop-color="#fdc401"/>
			<stop offset=".695" stop-color="#fec401"/>
			<stop offset=".703" stop-color="#fec500"/>
			<stop offset=".711" stop-color="#fec500"/>
			<stop offset=".719" stop-color="#fec600"/>
			<stop offset=".734" stop-color="#fec700"/>
			<stop offset=".75" stop-color="#fec800"/>
			<stop offset=".766" stop-color="#fec800"/>
			<stop offset=".781" stop-color="#fec900"/>
			<stop offset=".797" stop-color="#ffca00"/>
			<stop offset=".813" stop-color="#ffca00"/>
			<stop offset=".844" stop-color="#ffcb00"/>
			<stop offset=".875" stop-color="#ffcc00"/>
			<stop offset="1" stop-color="#ffcc00"/>
		</linearGradient>
		<clipPath clipPathUnits="userSpaceOnUse" id="cp5">
			<path d="m0.63 100.23h176.04v240.27h-176.04z"/>
		</clipPath>
	</defs>
	<style>
		.s0 { fill: url(#g1) } 
		.s1 { fill: url(#g2) } 
		.s2 { fill: #455e6b } 
	</style>
	<g id="Layer">
		<g id="Layer">
			<g id="Clip-Path" clip-path="url(#cp1)">
				<g id="Layer">
					<g id="Clip-Path" clip-path="url(#cp2)">
						<g id="Layer">
							<path id="Layer" class="s0" d="m1642.9 212.1l-372.7-214.9-212.4 367.6 372.7 214.9z"/>
						</g>
					</g>
				</g>
			</g>
			<g id="Clip-Path" clip-path="url(#cp3)">
				<g id="Layer">
					<g id="Clip-Path" clip-path="url(#cp4)">
						<g id="Layer">
							<path id="Layer" class="s1" d="m1190.1 0.7h320.5v220.3h-320.5z"/>
						</g>
					</g>
				</g>
			</g>
			<g id="Clip-Path" clip-path="url(#cp5)">
				<g id="Layer">
					<path id="Layer" fill-rule="evenodd" class="s2" d="m92.5 331.4h-85.9c-3.9 0-6-2.1-6-5.9v-209.6c0-3.8 2.1-5.9 6-5.9h81.2c19.5 0 34.9 4.5 46.4 13 13 9.8 20.1 24.8 20.1 42.5 0 13.6-4.7 24.8-13 33.1-3.3 3.2-6.8 5.6-10.7 7.9 9.2 2.7 17.2 7.1 23.4 13 11.5 10.6 17.4 25.4 17.4 42.9 0 21.8-7.9 39.8-23 52.2-13.9 11.2-32.8 16.8-55.9 16.8zm-52.9-187.4v52.5h44.9c9.2 0 16.6-1.8 22.2-6.2 6.2-4.4 9.4-11.5 9.4-20.1 0-9.1-3.2-15.9-9.4-20.3-5.6-3.9-12.7-5.9-22.7-5.9zm0 84.4v69.1h51.4c12.4 0 22.1-2.7 29.2-8.6 8-5.9 12.1-15.3 12.1-26.8 0-11.3-3.8-20.1-11.2-25.7-6.8-5.7-16.3-8-28-8z"/>
				</g>
			</g>
		</g>
		<path id="Layer" class="s2" d="m223.1 331.4h-26.3c-3.8 0-5.9-2.1-5.9-5.9v-100.6c0-15.1 4.5-26 12.7-34 8-7.1 19.8-10.9 34.9-10.9h34.5c3.9 0 6 2 6 5.9v22.7c0 3.9-2.1 5.9-6 5.9h-26.6c-11.7 0-17.4 5.6-17.4 17.1v93.9c0 3.8-2 5.9-5.9 5.9z"/>
		<path id="Layer" fill-rule="evenodd" class="s2" d="m409.9 309.3c-13 16.5-32 26.5-54.1 26.5-21 0-39.3-8.5-52.9-24.4-12.7-14.8-19.2-34-19.2-55.9 0-21.2 6.8-40.7 19.2-55.4 13.6-16 31.9-24.2 52.9-24.2 22.1 0 41.1 9.7 54.1 25.9l2-16.2c0.9-3.9 2.7-5.6 6.2-5.6h19.8c3.9 0 5.9 2 5.9 5.9v139.6c0 3.8-2 5.9-5.9 5.9h-19.8c-3.5 0-5.9-1.8-6.2-5.6zm-76.3-21.3c8 8.6 18.9 13.6 31.3 13.6 12.5 0 23.4-5 31.4-13.6 7.4-8.6 11.8-19.8 11.8-32.5 0-12.4-4.4-23.6-11.8-31.8-8.3-8.6-18.9-13.6-31.4-13.6-12.4 0-23.3 4.7-31.3 13.3-7.4 8.5-11.8 19.7-11.8 32.1 0 12.7 4.4 23.9 11.8 32.5z"/>
		<path id="Layer" class="s2" d="m464 325.5v-22.7c0-3.8 2.1-5.9 6-5.9h62.9c4.4 0 8-1.2 10.3-3.6 1.5-1.5 2.7-4.1 2.7-6.7 0-2.7-0.9-5.1-3-7.2-1.1-1.1-2.9-2.3-5-3.2l-43.7-18.9c-8.3-3.5-14.8-7.6-19.5-12.4-7.1-7-10.4-15.6-10.4-26 0-10.6 3.6-19.4 10.4-26.2 7.9-8 20.6-12.7 36.9-12.7h54.3c3.9 0 6 2 6 5.9v22.7c0 3.9-2.1 5.9-6 5.9h-51.6c-3.6 0-6.3 1.2-7.7 2.7-1.2 1.1-1.8 2.6-1.8 4.7 0 1.5 0.6 3.3 1.8 4.4 1.1 1.2 3.2 2.4 5.9 3.5l39 16.9c8.3 3.5 14.4 7.6 19.2 12.4 7.4 7.4 10.9 16.5 10.9 27.8 0 12.4-4.7 22.7-12.1 30.6-8.6 8.6-21.9 13.9-37.2 13.9h-62.3c-3.9 0-6-2.1-6-5.9z"/>
		<path id="Layer" class="s2" d="m633.9 331.4h-26.3c-3.8 0-5.9-2.1-5.9-5.9v-209.6c0-3.8 2.1-5.9 5.9-5.9h26.3c3.8 0 5.9 2.1 5.9 5.9v121.1h3.3l48.4-52.6c2.7-3.2 4.4-4.4 8.9-4.4h33.4c2.3 0 3.8 3.2 2.3 5.3l-61.1 64.9 64.7 76.2c1.5 2 0.6 5-2.7 5h-31.9c-5.6 0-8.9-1.5-12.1-5.3l-49-58.5h-4.2v57.9c0 3.8-2.1 5.9-5.9 5.9z"/>
		<path id="Layer" fill-rule="evenodd" class="s2" d="m816.5 335.8c-22.5 0-42.5-8.2-57.3-23.3-14.8-15-22.5-35.4-22.5-57.9 0-21.2 8-41 23.1-55.7 14.8-15.1 34.8-23 56.1-23 22.4 0 42.3 8.2 56.4 23.6 13.6 15 21.3 35.1 21.3 57.2v2.7c0 3.2-2.3 5.6-5 5.6h-117c1.5 9.7 5.3 17.7 11.2 24.5 8 8.6 19.5 13.3 33.7 13.3 16 0 30.7-7.1 38.1-19.5 1.5-2.7 3.6-4.2 6.8-4.2h23.3c3.9 0 6.3 3 5.1 7.5-5.7 15-15.1 27.7-28.7 36.3-12.7 8.5-28.3 12.9-44.6 12.9zm-42.5-99.7h82.4c-4.7-17.8-18.9-27.8-40.2-27.8-13.6 0-24.8 4.5-33.1 13-3.8 4.4-7.1 9.1-9.1 14.8z"/>
		<path id="Layer" class="s2" d="m945.3 331.4h-26.3c-3.8 0-5.9-2.1-5.9-5.9v-139.6c0-3.9 2.1-5.9 5.9-5.9h16c4.4 0 6.7 2 7.6 6.5l3 15.3c10.3-15.9 26.9-23.9 49.9-23.9h7.1c16.3 0 29.6 5.6 38.7 16.2 2.4 2.7 4.5 6 6.5 9.5 10.1-17.1 27.2-25.7 50.8-25.7h7.2c16.2 0 29.5 5.6 38.6 16.2 8.6 9.8 13 23.6 13 40.2v91.2c0 3.8-2 5.9-5.8 5.9h-26.6c-3.9 0-6-2.1-6-5.9v-83.6c0-18.8-9.4-29.4-25.9-29.4h-8.6c-18.6 0-30.2 12.1-30.2 33v80c0 3.8-2 5.9-5.9 5.9h-26.5c-3.9 0-6-2.1-6-5.9v-83.6c0-18.8-9.4-29.4-26-29.4h-8.5c-18.6 0-30.2 12.1-30.2 33v80c0 3.8-2 5.9-5.9 5.9z"/>
	</g>
</svg>