<?xml version="1.0" ?>
<svg xmlns="http://www.w3.org/2000/svg" viewBox="0 0 90 90">
	<defs>
		<linearGradient x1=".033%" y1="50.004%" x2="99.967%" y2="50.004%" id="a">
			<stop stop-color="#F1562B" offset="0%"/>
			<stop stop-color="#F1542B" offset="30%"/>
			<stop stop-color="#F04D2A" offset="41%"/>
			<stop stop-color="#EF4229" offset="49%"/>
			<stop stop-color="#EF4029" offset="50%"/>
			<stop stop-color="#E83E28" offset="56%"/>
			<stop stop-color="#E13C26" offset="67%"/>
			<stop stop-color="#DF3C26" offset="100%"/>
		</linearGradient>
	</defs>
	<g fill="none">
		<path d="M 77.0,29.115 L 74.215,21.578 L 76.152,17.251 A 1.479,1.479 0.0 0,0 75.848,15.605 L 70.583,10.3 A 8.52,8.52 0.0 0,0 61.723,8.25 L 60.248,8.761 L 52.205,0.076 L 38.56,0.0 L 38.472,0.0 L 24.738,0.107 L 16.701,8.862 L 15.271,8.357 A 8.545,8.545 0.0 0,0 6.354,10.427 L 0.994,15.832 C 0.649,16.178 0.554,16.699 0.754,17.144 L 2.772,21.634 L 0.0,29.167 L 1.791,35.96 L 9.961,66.917 A 15.768,15.768 0.0 0,0 16.081,75.747 C 16.081,75.747 25.998,82.717 35.781,89.05 A 4.378,4.378 0.0 0,0 41.231,89.05 A 715.49,715.49 0.0 0,0 60.919,75.722 A 15.768,15.768 0.0 0,0 67.032,66.892 L 75.158,35.922 L 77.0,29.115" fill="url(#a)" transform="translate(7)"/>
		<path d="M 47.75,55.79 A 11.683,11.683 0.0 0,0 46.142,55.21 L 45.174,55.21 C 44.624,55.363 44.087,55.557 43.567,55.79 L 41.13,56.799 C 40.358,57.121 39.118,57.695 38.377,58.06 L 33.897,60.388 A 0.852,0.852 0.0 0,0 33.789,61.965 L 37.681,64.702 A 30.87,30.87 0.0 0,1 40.073,66.594 L 41.168,67.534 C 41.801,68.077 42.832,68.979 43.459,69.534 L 44.497,70.448 A 1.79,1.79 0.0 0,0 46.782,70.448 L 47.87,69.502 L 50.161,67.509 L 51.262,66.55 A 43.551,43.551 0.0 0,1 53.648,64.658 L 57.54,61.883 A 0.845,0.845 0.0 0,0 57.42,60.313 L 52.946,58.048 A 43.69,43.69 0.0 0,0 50.18,56.786 L 47.75,55.79 L 47.75,55.79" fill="#FFF"/>
		<path d="M 75.342,30.8 L 75.469,30.396 C 75.477,29.856 75.443,29.316 75.368,28.781 A 13.59,13.59 0.0 0,0 73.925,26.069 L 71.393,22.366 C 70.925,21.673 70.128,20.575 69.59,19.926 L 66.198,15.693 A 11.83,11.83 0.0 0,0 65.191,14.52 L 65.121,14.52 C 65.121,14.52 64.438,14.64 63.616,14.797 L 58.432,15.794 L 56.161,16.229 A 5.923,5.923 0.0 0,1 53.939,15.907 L 49.845,14.589 A 36.631,36.631 0.0 0,0 46.915,13.782 A 12.287,12.287 0.0 0,0 44.326,13.782 C 43.51,13.972 42.193,14.337 41.396,14.596 L 37.3,15.92 A 5.923,5.923 0.0 0,1 35.079,16.242 L 32.807,15.812 L 27.617,14.822 C 26.795,14.665 26.117,14.539 26.111,14.545 L 26.041,14.545 C 25.681,14.914 25.345,15.305 25.035,15.718 L 21.65,19.951 C 21.13,20.581 20.314,21.704 19.846,22.391 L 17.315,26.094 A 19.824,19.824 0.0 0,0 16.119,28.081 A 9.004,9.004 0.0 0,0 15.777,30.427 L 15.903,30.831 C 15.964,31.091 16.043,31.345 16.137,31.594 C 16.663,32.224 17.561,33.272 18.137,33.884 L 26.997,43.269 C 27.597,43.966 27.768,44.932 27.447,45.792 L 25.997,49.217 A 4.433,4.433 0.0 0,0 25.927,52.037 L 26.219,52.831 A 7.664,7.664 0.0 0,0 28.579,56.131 L 29.972,57.259 A 2.64,2.64 0.0 0,0 32.503,57.562 L 37.453,55.209 A 12.585,12.585 0.0 0,0 39.983,53.538 L 43.945,49.974 A 1.581,1.581 0.0 0,0 44.028,47.704 L 35.085,41.699 A 1.725,1.725 0.0 0,1 34.541,39.51 L 38.009,33.013 C 38.407,32.21 38.469,31.282 38.18,30.433 A 3.95,3.95 0.0 0,0 36.212,28.655 L 25.34,24.56 C 24.556,24.264 24.6,23.93 25.429,23.88 L 31.814,23.248 A 9.885,9.885 0.0 0,1 34.795,23.513 L 40.352,25.059 A 1.696,1.696 0.0 0,1 41.542,26.951 L 39.358,38.834 A 6.123,6.123 0.0 0,0 39.251,40.84 C 39.339,41.124 40.086,41.47 40.902,41.673 L 44.288,42.392 C 45.271,42.572 46.279,42.572 47.263,42.392 L 50.307,41.704 C 51.123,41.521 51.863,41.136 51.958,40.853 A 6.117,6.117 0.0 0,0 51.844,38.847 L 49.648,26.963 A 1.696,1.696 0.0 0,1 50.838,25.071 L 56.395,23.52 A 9.88,9.88 0.0 0,1 59.375,23.255 L 65.761,23.848 C 66.596,23.923 66.634,24.232 65.856,24.528 L 54.99,28.637 A 3.95,3.95 0.0 0,0 53.022,30.416 A 3.37,3.37 0.0 0,0 53.192,32.996 L 56.667,39.492 A 1.725,1.725 0.0 0,1 56.123,41.681 L 47.187,47.698 A 1.58,1.58 0.0 0,0 47.269,49.968 L 51.237,53.533 A 12.585,12.585 0.0 0,0 53.768,55.198 L 58.718,57.544 A 2.64,2.64 0.0 0,0 61.248,57.235 L 62.641,56.1 A 7.658,7.658 0.0 0,0 65.001,52.795 L 65.293,52.0 A 4.433,4.433 0.0 0,0 65.223,49.18 L 63.767,45.755 A 2.516,2.516 0.0 0,1 64.217,43.232 L 73.077,33.834 C 73.653,33.204 74.545,32.194 75.07,31.544 C 75.177,31.303 75.268,31.054 75.342,30.8 L 75.342,30.8" fill="#FFF"/>
	</g>
</svg>