<svg id="Layer_1" data-name="Layer 1" xmlns="http://www.w3.org/2000/svg" viewBox="0 0 780.35 1031.79"><defs><style>.cls-1{fill:#48d8be;}</style></defs><path class="cls-1" d="M308.69,494.51c42.4-94.09,110-145.77,206.7-145.77,153.72,0,249.13,132.5,249.13,332.59,0,202.74-119.28,344.57-296.82,344.57-76.88,0-131.2-27.84-164.32-71.59L94,1007.53H91.36v-827c0-17.26-1.32-22.55-11.92-33.12l-63.61-61V83.75L308.69,5.9Zm0,14.17v428c21.2,21.21,49,29.14,76.85,29.14,82.16,0,149.73-57,149.73-280.91,0-169.61-51.68-233.22-127.21-233.22C369.62,451.71,336.5,470.27,308.69,508.68Z"/></svg>