<?xml version="1.0" ?>
<svg xmlns="http://www.w3.org/2000/svg" viewBox="0 0 128 128">
	<path d="M 90.959,0.0 A 3.932,3.932 0.0 0,0 91.659,0.363 C 95.459,1.441 97.153,3.418 97.242,7.351 C 97.35,12.171 97.408,17.001 97.197,21.814 C 97.12,23.551 95.781,25.251 95.781,26.967 C 95.781,28.683 97.119,30.381 97.199,32.118 C 97.416,36.795 97.336,41.489 97.257,46.174 C 97.175,51.091 94.516,53.657 89.572,53.668 C 79.112,53.692 68.652,53.676 58.192,53.676 L 55.93,53.676 C 55.424,61.399 57.153,69.063 54.58,76.954 C 56.053,78.469 55.965,80.931 55.953,83.394 C 55.927,88.611 55.945,93.828 55.945,99.202 L 71.981,99.202 C 71.981,93.677 71.974,88.202 71.981,82.734 C 71.99,76.764 74.435,74.334 80.408,74.325 C 83.464,74.325 86.521,74.286 89.577,74.334 C 94.465,74.412 97.177,77.044 97.259,81.888 C 97.336,86.506 97.424,91.133 97.201,95.741 C 97.113,97.547 95.768,99.314 95.768,101.099 C 95.768,102.884 97.101,104.641 97.201,106.447 C 97.435,110.647 97.281,114.865 97.278,119.076 C 97.278,124.437 96.25,125.976 91.364,128.0 L 78.322,128.0 C 77.633,127.746 76.936,127.511 76.257,127.234 C 73.131,125.956 71.994,123.441 71.986,120.259 C 71.973,114.702 71.986,109.144 71.986,103.345 C 71.358,103.314 70.576,103.245 69.793,103.245 Q 54.409,103.234 39.024,103.237 C 33.224,103.23 30.724,100.719 30.717,94.916 C 30.717,90.637 30.554,86.349 30.792,82.083 C 30.892,80.208 32.242,78.383 32.243,76.529 C 32.244,74.675 30.887,72.859 30.792,70.991 C 30.561,66.452 30.692,61.891 30.723,57.342 C 30.754,52.348 33.412,49.742 38.453,49.735 Q 54.245,49.72 70.038,49.735 L 71.985,49.735 C 71.985,43.887 71.897,38.263 72.041,32.645 C 72.082,31.017 72.825,29.415 73.169,27.784 A 4.451,4.451 0.0 0,0 73.149,26.0 A 30.768,30.768 0.0 0,1 72.036,21.133 C 71.871,17.064 71.979,12.984 71.981,8.909 C 71.981,3.569 73.036,1.993 77.914,0.001 L 90.959,0.0 M 93.359,14.509 C 93.359,12.132 93.407,9.753 93.345,7.377 C 93.289,5.208 92.351,4.161 90.263,4.114 C 86.528,4.03 82.79,4.056 79.055,4.102 C 77.239,4.124 75.997,5.087 75.966,6.942 Q 75.837,14.582 75.966,22.225 C 76.0,24.032 77.015,25.0 79.016,24.944 C 82.682,24.844 86.352,24.921 90.016,24.914 C 92.473,24.909 93.286,24.143 93.342,21.642 C 93.4,19.266 93.358,16.887 93.356,14.509 L 93.359,14.509 M 75.909,39.272 L 75.917,39.272 C 75.917,41.714 75.859,44.158 75.935,46.598 C 75.999,48.618 76.965,49.647 78.96,49.693 C 82.689,49.777 86.423,49.773 90.153,49.703 C 92.241,49.664 93.303,48.614 93.331,46.524 Q 93.431,39.198 93.331,31.871 C 93.302,29.771 92.377,28.963 90.28,28.951 C 86.617,28.93 82.953,28.939 79.29,28.951 C 76.676,28.957 75.958,29.665 75.917,32.351 C 75.881,34.658 75.909,36.965 75.909,39.272 L 75.909,39.272 M 75.909,113.323 C 75.909,115.695 75.875,118.068 75.919,120.44 C 75.963,122.84 76.9,123.859 79.219,123.9 Q 84.606,124.0 89.996,123.9 C 92.236,123.864 93.308,122.86 93.337,120.674 Q 93.437,113.355 93.337,106.034 C 93.306,103.944 92.373,103.139 90.265,103.142 C 86.538,103.148 82.81,103.2 79.083,103.242 C 76.683,103.267 75.975,103.942 75.927,106.41 C 75.874,108.713 75.91,111.018 75.91,113.323 L 75.909,113.323 M 75.909,88.734 C 75.909,91.108 75.864,93.483 75.922,95.855 C 75.979,98.19 76.87,99.042 79.144,99.055 Q 84.637,99.077 90.132,99.055 C 92.449,99.047 93.296,98.355 93.332,96.11 Q 93.438,88.787 93.332,81.461 C 93.304,79.346 92.286,78.341 90.157,78.299 Q 84.665,78.191 79.17,78.299 C 76.978,78.338 75.97,79.399 75.923,81.618 C 75.869,83.985 75.912,86.36 75.911,88.734 L 75.909,88.734 M 34.677,64.034 C 34.677,66.478 34.639,68.922 34.688,71.365 C 34.732,73.616 35.588,74.471 37.763,74.486 Q 43.363,74.524 48.963,74.486 C 51.134,74.472 51.963,73.75 51.988,71.567 Q 52.088,64.136 51.994,56.702 C 51.97,54.602 51.067,53.734 48.968,53.702 A 384.138,384.138 0.0 0,0 37.968,53.695 C 35.621,53.725 34.707,54.712 34.678,57.111 C 34.656,59.417 34.678,61.725 34.679,64.033 L 34.677,64.034 M 52.023,88.942 L 52.0,88.942 C 52.0,86.363 52.044,83.784 51.985,81.207 A 2.437,2.437 0.0 0,0 49.163,78.526 C 45.432,78.585 41.699,78.536 37.963,78.545 C 35.491,78.551 34.7,79.312 34.683,81.825 Q 34.638,88.848 34.683,95.871 C 34.696,98.264 35.591,99.271 37.955,99.326 Q 43.346,99.451 48.743,99.326 C 51.095,99.274 51.968,98.287 52.012,95.862 C 52.055,93.556 52.023,91.249 52.023,88.942 L 52.023,88.942"/>
</svg>