<?xml version="1.0" encoding="UTF-8"?>
<!-- Generator: Adobe Illustrator 26.0.2, SVG Export Plug-In . SVG Version: 6.00 Build 0)  -->
<svg version="1.1" id="Layer_1" xmlns="http://www.w3.org/2000/svg"  x="0px" y="0px" viewBox="0 0 100 100" style="enable-background:new 0 0 100 100;" xml:space="preserve">
<style type="text/css">
	.st0{fill:#FFFFFF;stroke:#D1D3D4;stroke-width:1.4794;stroke-miterlimit:10;}
	.st1{fill:#FF6B00;}
</style>
<g>
	<path class="st0" d="M93.7,14.2c-3.1-3.1-7.4-4.8-12.1-4.8l-51.4,0c-5.4,0-10.4,2.1-14.4,5.5c-4,3.3-7,7.9-8,13.2l-5.8,30   c-0.2,1.3-0.4,2.5-0.4,3.8c0,4.6,1.7,8.8,4.8,11.9c3.1,3.1,7.4,4.8,12.1,4.8c0,0,0,0,0.1,0l51.4,0c5.4,0,10.4-2.1,14.4-5.5   c4-3.3,7-7.9,8-13.2l5.8-30c0.2-1.3,0.4-2.5,0.4-3.8C98.5,21.5,96.7,17.2,93.7,14.2z"/>
	<path class="st1" d="M81.5,14l-51.4,0c-8.3,0-16.3,6.7-17.9,15L6.4,59c-1.6,8.3,3.8,15,12.1,15l51.4,0c8.3,0,16.3-6.7,17.9-15   l5.8-30C95.2,20.7,89.8,14,81.5,14z M80.9,24.7L50.5,40.5L30.5,25L80.9,24.7z M77.1,59c-0.5,2.4-2.8,4.3-5.1,4.3l-51.4,0   c-2.4,0-3.9-1.9-3.5-4.3l5.2-26.3l25.8,20.1l33.5-16.9L77.1,59z"/>
</g>
</svg>