<svg xmlns="http://www.w3.org/2000/svg"  viewBox="0 0 159 48">
  <defs>
    <clipPath id="clip-path">
      <rect id="Rectangle_146440" data-name="Rectangle 146440" width="158.18" height="45.999" fill="none"/>
    </clipPath>
    <clipPath id="clip-b24_logo">
      <rect width="159" height="48"/>
    </clipPath>
  </defs>
  <g id="b24_logo" clip-path="url(#clip-b24_logo)">
    <g id="Group_83500" data-name="Group 83500" transform="translate(0 1)">
      <g id="Group_83499" data-name="Group 83499" clip-path="url(#clip-path)">
        <path id="Path_44532" data-name="Path 44532" d="M91.885,18.531a.1.1,0,0,1-.009-.072c.052-.164.1-.327.147-.494a4.439,4.439,0,0,0,.149-1.254,4.79,4.79,0,0,0-.262-1.6,1.228,1.228,0,0,0-.676-.8,9.032,9.032,0,0,0-1.052-.163,2.632,2.632,0,0,1-.941-.42,3.891,3.891,0,0,1-1.217-1.55c-.3-.638-.59-1.279-.951-1.9-.253-.429-.494-.8-.83-.894-.486-.1-.627.632-.787,1.04a19.43,19.43,0,0,0-.549,2.875c-.248,1.044-1.271-1.3-1.227-3.067.032-1.688-.083-3.646.8-4.473.948-.612,2.268,2.5,2.778,3.721A11.869,11.869,0,0,0,89,12.766a1.676,1.676,0,0,0,1.642.423c1.125-.27,1.818,1.714,1.838,2.941a4.442,4.442,0,0,1-.532,2.38c-.012.008-.04.043-.063.021" transform="translate(44.626 3.026)" fill="#ededee"/>
        <path id="Path_44533" data-name="Path 44533" d="M103,26.887c-.014-.031.043-.066.063-.08.274-.163.55-.324.82-.486a7.912,7.912,0,0,0,1.633-1.311,4.477,4.477,0,0,0,1.167-1.863A.9.9,0,0,0,106.158,22c-.632-.267-1.323-.379-1.975-.6a4.329,4.329,0,0,1-1.466-.839,2.511,2.511,0,0,1-.84-2.18,14.255,14.255,0,0,0,.083-2.466c-.06-.575-.158-1.073-.742-1.314-.888-.3-1.943.449-2.706.831a38.508,38.508,0,0,0-4.171,2.932,6.617,6.617,0,0,1-5.42.544c-.632-.189-1.763-.356-2.039-1.043-.164-.509.837-.253,1.084-.19,2.941.667,5.16-1.239,7.13-3.162,1.86-1.84,3.7-4.028,6.377-4.586,2.582-.287,1.969,3.648,1.723,5.184-.189,1.285-.673,3.119.043,4.307a3.839,3.839,0,0,0,2.9,1.115c2.584.156,1.891,2.6.626,3.957a9.419,9.419,0,0,1-3.611,2.393c-.038.006-.127.035-.15,0" transform="translate(46.324 5.288)" fill="#ededee"/>
        <path id="Path_44534" data-name="Path 44534" d="M7.51,22.948a2.849,2.849,0,0,1,.78-.475,2.292,2.292,0,0,1,.765-.143,1.029,1.029,0,0,1,.879.3,2.556,2.556,0,0,1,.322,1.595,29.6,29.6,0,0,1-.408,3.965,36.375,36.375,0,0,1-1.217,5.635,8.634,8.634,0,0,1-1.253,2.671c-.4.475-.747.7-1.03.675a1.787,1.787,0,0,1-.54-.075.759.759,0,0,1-.377-.278ZM0,40.159a4.012,4.012,0,0,0,1.915.991,12.171,12.171,0,0,0,3.037.33,8.485,8.485,0,0,0,4.019-.9,9.443,9.443,0,0,0,3.855-4.045,27.8,27.8,0,0,0,2.746-9.227q.773-5.053-.112-7.139a3.313,3.313,0,0,0-3.488-2.019,6.8,6.8,0,0,0-2.153.339,6.319,6.319,0,0,0-1.78.935L9.684,8.466a14.287,14.287,0,0,0-4.06.278q-1.044.34-1.2,1.923Z" transform="translate(0 4.509)" fill="#1b3c71" fill-rule="evenodd"/>
        <path id="Path_44535" data-name="Path 44535" d="M23.149,36.513a10.789,10.789,0,0,1-2.945,1,19.013,19.013,0,0,1-3.773.37,7.391,7.391,0,0,1-4.221-.946,3.6,3.6,0,0,1-1.478-2.686,15.986,15.986,0,0,1,.228-4.2l2.093-13.955a.758.758,0,0,1,.273-.619,3.02,3.02,0,0,1,1.346-.227c.728-.032,1.935-.037,3.619-.037L16.043,30.173a8.4,8.4,0,0,0-.124,2.6.969.969,0,0,0,1.058.885,2.634,2.634,0,0,0,.9-.167,3.127,3.127,0,0,0,.872-.494l2.535-16.9a.779.779,0,0,1,.259-.619,2.766,2.766,0,0,1,1.293-.227c.7-.032,1.872-.037,3.511-.037Z" transform="translate(5.693 8.109)" fill="#1b3c71"/>
        <path id="Path_44536" data-name="Path 44536" d="M23.771,16.759a13.424,13.424,0,0,1,3.12-1.519,10.8,10.8,0,0,1,3.3-.46,4.006,4.006,0,0,1,2.3.412c.371.29.488.81.348,1.567a11.915,11.915,0,0,1-.305,1.426,9.536,9.536,0,0,1-.639,1.654,2.705,2.705,0,0,0-.839-.287,3.869,3.869,0,0,0-.741-.067,2.532,2.532,0,0,0-.977.23,2.876,2.876,0,0,0-1.066.787L25.82,36.568a.751.751,0,0,1-.282.616,2.983,2.983,0,0,1-1.336.23c-.716.026-1.891.037-3.534.032l3.1-20.687" transform="translate(11.022 7.881)" fill="#1b3c71"/>
        <path id="Path_44537" data-name="Path 44537" d="M36.505,19.049a.938.938,0,0,1,1.058.687,7.22,7.22,0,0,1-.084,2.792c-.052.368-.127.774-.222,1.213a5.477,5.477,0,0,1-.34,1.075,5.259,5.259,0,0,1-1.463.313c-.6.055-1.22.086-1.854.083a21.526,21.526,0,0,1,1.217-4.6q.683-1.564,1.688-1.567m1.3-4.269a8.3,8.3,0,0,0-3.976.854,8.142,8.142,0,0,0-3.363,3.677A26.693,26.693,0,0,0,28.153,27.5a19.7,19.7,0,0,0-.132,6.743,4.479,4.479,0,0,0,1.926,3.116,6.476,6.476,0,0,0,3.435.753,17.233,17.233,0,0,0,4.5-.572c1.234-.353,1.9-.722,2-1.1.11-.747.2-1.538.259-2.378a10.219,10.219,0,0,0,0-1.984,14.334,14.334,0,0,1-2.516.9,11.842,11.842,0,0,1-2.863.334,1.548,1.548,0,0,1-1.667-.774,7.56,7.56,0,0,1-.075-3.451q1.723-.03,3.873-.181a34.133,34.133,0,0,0,3.884-.48,21.416,21.416,0,0,0,.922-2.976c.261-1.1.475-2.194.632-3.272q.552-3.816-.65-5.612a4.279,4.279,0,0,0-3.873-1.783" transform="translate(14.82 7.879)" fill="#1b3c71" fill-rule="evenodd"/>
        <path id="Path_44538" data-name="Path 44538" d="M45.986,27.723a1,1,0,0,0-.515-.3,2.543,2.543,0,0,0-.581-.058,1.375,1.375,0,0,0-1.237.7,7.388,7.388,0,0,0-.831,2.817,7.727,7.727,0,0,0-.153,2.676c.12.38.455.543,1,.5a3.049,3.049,0,0,0,.667-.089,1.361,1.361,0,0,0,.676-.353c.011-.051.115-.652.314-1.792s.416-2.512.662-4.1m-6.23-10.434a3.6,3.6,0,0,1,.213-.81,1.443,1.443,0,0,1,.488-.642,6.873,6.873,0,0,1,2.458-.693,36,36,0,0,1,5.449-.365,3.668,3.668,0,0,1,3.186,1.2q.938,1.237.5,4.174L51.7,22.435q-.577,3.823-1.112,7.047t-.886,5.192c-.233,1.316-.351,1.99-.36,2.027a11.23,11.23,0,0,1-2.895,1.033,17.129,17.129,0,0,1-3.655.373,10.065,10.065,0,0,1-3.019-.311,3.011,3.011,0,0,1-2-1.886,9.879,9.879,0,0,1-.164-4.89,13.09,13.09,0,0,1,1.412-4.562,4.9,4.9,0,0,1,4.562-2.7,8.274,8.274,0,0,1,1.495.132,3.517,3.517,0,0,1,1.4.527l.488-3.255a1.628,1.628,0,0,0-.178-1.244,1.207,1.207,0,0,0-1.032-.386,19.948,19.948,0,0,0-2.961.262,17.513,17.513,0,0,0-2.853.664,4.524,4.524,0,0,1-.287-1.832,10.024,10.024,0,0,1,.1-1.339" transform="translate(19.947 7.88)" fill="#1b3c71" fill-rule="evenodd"/>
        <path id="Path_44539" data-name="Path 44539" d="M59.864,36.513a10.789,10.789,0,0,1-2.945,1,19.013,19.013,0,0,1-3.773.37,7.406,7.406,0,0,1-4.224-.946,3.594,3.594,0,0,1-1.472-2.686,15.774,15.774,0,0,1,.225-4.2l2.093-13.955a.752.752,0,0,1,.27-.619,3,3,0,0,1,1.348-.227c.73-.032,1.937-.037,3.619-.037L52.761,30.173a8.232,8.232,0,0,0-.127,2.6.973.973,0,0,0,1.06.885,2.572,2.572,0,0,0,.892-.167,3.122,3.122,0,0,0,.879-.494L58,16.089a.789.789,0,0,1,.258-.619,2.75,2.75,0,0,1,1.293-.227c.7-.032,1.874-.037,3.513-.037Z" transform="translate(25.274 8.109)" fill="#1b3c71"/>
        <path id="Path_44540" data-name="Path 44540" d="M61.821,20.076a5.945,5.945,0,0,1-.2-1.777,12.042,12.042,0,0,1,.133-1.431c.083-.408.485-.777,1.211-1.106a11.705,11.705,0,0,1,2.723-.784,19.6,19.6,0,0,1,3.439-.3q3.275.009,4.439,1.424A4.948,4.948,0,0,1,74.29,20.2a10.229,10.229,0,0,1-1.917,4.382A45.014,45.014,0,0,1,68.7,28.914q-2.155,2.256-4.431,5.14h2.893a36.19,36.19,0,0,0,3.931-.215c.974-.129,1.473-.2,1.5-.216a25.159,25.159,0,0,1-.685,3.634q-.317.964-1.014.906H57.972a3.236,3.236,0,0,1-.025-.741c.02-.244.037-.4.052-.472a6.218,6.218,0,0,1,.44-1.7,10.161,10.161,0,0,1,1.1-1.782,57.167,57.167,0,0,1,4.223-5.083q2.1-2.222,3.588-4.033a7.776,7.776,0,0,0,1.779-3.41,1.728,1.728,0,0,0-.394-1.536,2.2,2.2,0,0,0-1.6-.538,13.643,13.643,0,0,0-2.582.324,12.059,12.059,0,0,0-2.725.851Z" transform="translate(30.898 7.829)" fill="#f9b800" fill-rule="evenodd"/>
        <path id="Path_44541" data-name="Path 44541" d="M112.306,23.988c-1.461-.048-3.272-.408-4.221-1.628-1.046-1.728-.336-4.4-.066-6.274.362-2.236,1.251-7.97-2.505-7.548-3.91.807-6.582,4-9.295,6.676-.133.133-.268.264-.406.4-.774-1.129-1.86-1.886-2.671-1.466a2.028,2.028,0,0,1-2.631-.4c-1.28-1.466-2.232-4.44-3-6.457-.9-2.423-3.218-8.614-4.675-7.035-1.34,2.025-1.4,5.992-1.262,9.582a23.777,23.777,0,0,0,1.254,7.2A2.006,2.006,0,0,0,82,16.366a.521.521,0,0,0-.619.117c-.518.879.42,2.5.958,3.474a26.732,26.732,0,0,0,7.916,8.232l1.868,1.132a26.78,26.78,0,0,0,10.578,3.6c1.093.04,3.022-.373,1.009-.437-4.67-.27-10.1-3.732-13.974-6.937a28.643,28.643,0,0,1-4.049-4.362,11.718,11.718,0,0,0,1.337.434c2.631.711,5.745.725,8.094-.8a56.349,56.349,0,0,1,6.078-4.272c1.11-.555,2.646-1.645,3.945-1.21.846.348.994,1.078,1.076,1.914a20.738,20.738,0,0,1-.118,3.6,3.668,3.668,0,0,0,1.225,3.175,6.227,6.227,0,0,0,2.137,1.216c.946.32,1.953.481,2.873.874a1.307,1.307,0,0,1,.768,1.671,6.549,6.549,0,0,1-1.7,2.711,11.269,11.269,0,0,1-2.378,1.915c-.4.241-.794.469-1.194.705-.031.023-.112.072-.1.12.04.048.167.009.219,0a13.664,13.664,0,0,0,5.256-3.488c1.848-1.978,2.858-5.543-.9-5.765M85.827,19.822a1.525,1.525,0,0,1-1.092-.94,9.777,9.777,0,0,1-.67-2.772A20.483,20.483,0,0,1,84.412,9.6c.225-.915.7-2.252,1.48-2.2.538.1.948.811,1.378,1.648.621,1.21,1.122,2.481,1.65,3.75A6.669,6.669,0,0,0,90.962,15.7a3.071,3.071,0,0,0,1.519.6,11.638,11.638,0,0,1,1.679.029,1.09,1.09,0,0,1,.523.333c-2.51,2.259-5.356,4.134-8.856,3.154" transform="translate(43.32 0)" fill="#1b3c71"/>
        <path id="Path_44542" data-name="Path 44542" d="M83.072,30c-.023,0-.262.04-.725.094a14.189,14.189,0,0,1-1.693.1L82.5,18.472l.534-3.384a4.011,4.011,0,0,0-1.017-.412,5.535,5.535,0,0,0-1.437-.173,2.964,2.964,0,0,0-1.046.184,4.286,4.286,0,0,0-.94.517,5.815,5.815,0,0,0-.59.543,21.2,21.2,0,0,0-1.792,2.2Q74.665,20.053,73,22.655T70.134,27.36a13.755,13.755,0,0,0-1.322,2.715,7.24,7.24,0,0,0-.028,2.107,4.1,4.1,0,0,0,.886,2.081h5.992l-.6,3.993q2.132.009,3.077-.046a1.951,1.951,0,0,0,1.193-.325,1.465,1.465,0,0,0,.3-.882l.408-2.74h1.139a1.451,1.451,0,0,0,1.2-.831,5.791,5.791,0,0,0,.665-1.946,4.444,4.444,0,0,0,.089-1.142,1.688,1.688,0,0,0-.06-.348m-6.8.2H72.51a34.062,34.062,0,0,1,1.558-3.168c.705-1.285,1.441-2.535,2.222-3.752A20.8,20.8,0,0,1,78.3,20.523Z" transform="translate(36.648 7.734)" fill="#f9b800"/>
        <path id="Path_44543" data-name="Path 44543" d="M78.558,29.524a1.791,1.791,0,0,1,.515-1.049,1.527,1.527,0,0,1,1.147-.451q.849,0,1.109.411a1.635,1.635,0,0,1,.175,1.09,1.7,1.7,0,0,1-.514,1.027,1.556,1.556,0,0,1-1.142.432c-.581,0-.957-.127-1.124-.382a1.578,1.578,0,0,1-.166-1.079" transform="translate(41.883 14.945)" fill="#1d3d71"/>
        <path id="Path_44544" data-name="Path 44544" d="M80.981,26.77c.057-.452.1-.807.144-1.06a2.554,2.554,0,0,1,.133-.566.4.4,0,0,1,.195-.238.855.855,0,0,1,.328-.051h.685l.147-1.173a5.086,5.086,0,0,1,.573-1.92,3.511,3.511,0,0,1,.991-1.132,3.25,3.25,0,0,1,1.231-.535,6.658,6.658,0,0,1,1.28-.133,3.35,3.35,0,0,1,1.492.268.739.739,0,0,1,.448.8,3.837,3.837,0,0,1-.14.629,4.6,4.6,0,0,1-.245.629,2.2,2.2,0,0,0-.739-.228,6.392,6.392,0,0,0-.639-.041,2.633,2.633,0,0,0-1.288.278,1.4,1.4,0,0,0-.61,1.139l-.179,1.421h1.493c-.057.452-.106.807-.143,1.06a2.723,2.723,0,0,1-.133.564.484.484,0,0,1-.166.238.478.478,0,0,1-.235.052H84.547l-1,7.958a.975.975,0,0,1-.087.205.536.536,0,0,1-.133.143.388.388,0,0,1-.247.063l-1.906,0,1.052-8.37Z" transform="translate(43.187 10.647)" fill="#1d3d71"/>
        <path id="Path_44545" data-name="Path 44545" d="M85.232,23.949a6.894,6.894,0,0,1,1.357-.649,4.823,4.823,0,0,1,1.642-.276,1.614,1.614,0,0,1,1.089.247.932.932,0,0,1,.17.782,5.31,5.31,0,0,1-.112.577,3.753,3.753,0,0,1-.284.761,1.548,1.548,0,0,0-.4-.135,2.407,2.407,0,0,0-.35-.031,1.528,1.528,0,0,0-.446.081,1.786,1.786,0,0,0-.488.248L86.445,33.1a.6.6,0,0,1-.072.245c-.035.055-.127.094-.274.113a5.922,5.922,0,0,1-.7.041c-.319.006-.777.011-1.372.009Z" transform="translate(44.812 12.279)" fill="#1d3d71"/>
      </g>
    </g>
  </g>
</svg>