<svg xmlns="http://www.w3.org/2000/svg" viewBox="0 0 26.03 44"><defs><style>.cls-1{fill:#002f68;}.cls-2{fill:#00cd67;}.cls-3{fill:#00cdef;}</style></defs><g id="Layer_2" data-name="Layer 2"><g id="_6_logomark" data-name="6_logomark"><g id="bl-logomark-base"><path class="cls-1" d="M13,18H9.52v6.35H13A6.67,6.67,0,1,1,6.35,31h0V14.66A5.68,5.68,0,0,0,.67,9H0V31H0A13,13,0,1,0,13,18Z"/><path class="cls-2" d="M9.52,14.8h0a6.35,6.35,0,0,1,6.35-6.35h0A6.35,6.35,0,0,1,9.52,14.8Z"/><path class="cls-3" d="M7.94,0a6.35,6.35,0,0,0,0,9h0a6.35,6.35,0,0,0,0-9Z"/></g></g></g></svg>