<?xml version="1.0" ?>
<svg xmlns="http://www.w3.org/2000/svg" viewBox="0 0 193 193">
	<g id="surface1">
		<path d="M 0 0.246094 L 192.757813 0.246094 L 192.757813 193 L 0 193 L 0 0.246094 " stroke="none" fill-rule="evenodd" fill="#216EB1" fill-opacity="1"/>
		<path d="M 55.292969 110.328125 C 53.214844 110.058594 51.566406 105.730469 51.464844 105.378906 C 51.066406 104.007813 48.761719 103.894531 50.226563 107.558594 C 52.160156 112.40625 61.035156 118.769531 64.722656 117.042969 C 67.15625 115.90625 69.4375 112.210938 68.613281 107.378906 C 67.785156 102.546875 64.863281 99.285156 61.363281 97.128906 C 60.003906 96.289063 51.117188 93.835938 53.527344 98.660156 C 53.648438 98.902344 55.261719 100.992188 56.292969 103.601563 C 57.710938 107.191406 57.675781 110.632813 55.292969 110.328125 Z M 41.234375 76.507813 C 41.199219 75.925781 42.214844 72.710938 43.789063 68.535156 C 46.242188 62.023438 50.621094 53.269531 58.867188 49.257813 C 66.886719 45.355469 74.175781 46.734375 77.667969 53.429688 C 81.160156 60.128906 77.925781 69.714844 72.550781 76.734375 C 69.359375 80.894531 61.804688 89.777344 59.886719 87.796875 C 58.128906 89.839844 57.535156 91.757813 54.867188 91.59375 L 53.625 91.292969 C 53.070313 91.820313 48.445313 96.289063 48.109375 94.3125 C 47.839844 92.71875 54.933594 87.597656 60.246094 79.023438 C 65.558594 70.449219 67.164063 62.539063 66.605469 59.742188 C 66.042969 56.945313 62.988281 54.84375 58.820313 57.261719 C 54.652344 59.679688 49.34375 67.933594 48.503906 69.050781 C 47.664063 70.167969 46.453125 70.355469 45.988281 70.449219 C 45.523438 70.542969 44.21875 74.644531 43.378906 75.945313 C 42.539063 77.253906 41.328125 77.996094 41.234375 76.507813 Z M 44.160156 104.773438 C 44.820313 106.664063 45.351563 108.273438 43.976563 108.382813 C 42.03125 108.535156 35.269531 96.425781 36.316406 91.527344 C 36.851563 89.039063 38.886719 85.898438 41.328125 86.636719 C 43.574219 87.320313 42.789063 100.84375 44.160156 104.773438 Z M 152.105469 105.320313 C 154.539063 105.171875 157.851563 105.261719 159.285156 105.320313 C 160.648438 105.378906 161.039063 105.816406 160.992188 106.914063 C 160.949219 107.902344 160.613281 108.070313 159.554688 108.09375 C 157.671875 108.136719 154.164063 108.160156 151.835938 108.570313 C 150.125 108.871094 149.875 108.160156 150.078125 106.914063 C 150.21875 106.050781 151.152344 105.378906 152.105469 105.320313 Z M 144.742188 106.035156 C 144.742188 106.035156 105.796875 110.261719 73.253906 117.925781 C 70.324219 118.617188 32.652344 128.90625 33.21875 134.21875 C 33.414063 136.046875 33.800781 136.3125 33.214844 137.445313 C 32.625 138.574219 31.660156 138.941406 31.769531 141.550781 C 31.878906 144.160156 31.734375 144.667969 32.9375 145.671875 C 34.078125 146.621094 36.480469 146.3125 40.664063 143.316406 C 64.5625 126.222656 104.917969 115.144531 134.351563 111.101563 C 141.523438 110.117188 143.695313 109.871094 143.695313 109.871094 C 144.351563 109.496094 143.816406 108.28125 144.601563 107.984375 C 145.828125 107.523438 145.535156 105.777344 144.742188 106.035156 " stroke="none" fill-rule="evenodd" fill="#F5821F" fill-opacity="1"/>
		<path d="M 72.089844 85.800781 C 72.738281 85.605469 73.101563 85.988281 72.871094 87.019531 C 72.164063 90.136719 70.863281 96.617188 72.558594 96.574219 C 73.792969 96.539063 74.304688 96.679688 75.027344 94.804688 C 75.753906 92.929688 75.9375 91.648438 75.976563 89.898438 C 76.019531 88.152344 75.863281 87.660156 76.078125 87.277344 C 76.292969 86.894531 79.363281 86.703125 79.832031 86.703125 C 80.300781 86.703125 80.667969 87.136719 80.382813 89.386719 C 80.074219 91.851563 81.230469 96.128906 82.332031 97.191406 C 82.785156 97.628906 83.277344 98.242188 82.203125 99.023438 C 81.128906 99.804688 80.277344 100.558594 80.050781 100.730469 C 79.246094 101.339844 78.441406 98.09375 78.09375 97.277344 C 77.710938 96.382813 77.46875 95.742188 77.46875 95.742188 C 77.46875 95.742188 77.113281 98.035156 75.324219 99.527344 C 73.53125 101.019531 72.667969 101.453125 71.261719 101.367188 C 69.855469 101.285156 68.957031 100.632813 69.03125 97.539063 C 69.101563 94.445313 69.144531 89.203125 69.050781 87.84375 C 68.945313 86.261719 71.21875 86.0625 72.089844 85.800781 Z M 87.332031 77.714844 C 88.027344 77.792969 88.53125 77.695313 88.691406 77.660156 C 88.929688 77.605469 89.460938 77.9375 89.148438 78.730469 C 88.472656 80.445313 88.621094 81.089844 88.539063 81.9375 C 88.4375 82.960938 88.769531 83.492188 90.105469 83.496094 C 91.097656 83.503906 91.257813 83.386719 91.925781 83.410156 C 92.695313 83.304688 92.691406 84.753906 91.746094 84.753906 C 90.992188 84.828125 90.390625 84.84375 90.117188 84.839844 C 89.332031 84.832031 88.804688 85.425781 88.441406 85.894531 C 88.246094 86.144531 87.699219 88.449219 87.472656 90.121094 C 87.117188 92.722656 87.277344 94.96875 87.539063 95.441406 C 88.273438 96.757813 88.4375 96.757813 88.828125 97.25 C 89.21875 97.738281 88.949219 98.398438 88.949219 98.398438 C 88.949219 98.398438 86.550781 100.71875 85.9375 100.53125 C 83.316406 99.71875 84.414063 94.265625 84.914063 91.15625 C 84.960938 90.871094 85.929688 85.984375 85.144531 85.96875 C 84.652344 85.960938 84.164063 85.953125 83.671875 85.945313 C 83.234375 85.839844 84.957031 84.300781 85.652344 83.296875 C 86.75 81.71875 85.976563 77.558594 87.332031 77.714844 Z M 96.089844 77.714844 C 96.785156 77.792969 97.289063 77.695313 97.449219 77.660156 C 97.6875 77.605469 98.21875 77.9375 97.90625 78.730469 C 97.230469 80.445313 97.378906 81.089844 97.296875 81.9375 C 97.195313 82.960938 97.53125 83.492188 98.863281 83.496094 C 99.855469 83.503906 100.015625 83.386719 100.683594 83.410156 C 101.453125 83.304688 101.449219 84.753906 100.503906 84.753906 C 99.746094 84.828125 99.144531 84.84375 98.875 84.839844 C 98.089844 84.832031 97.5625 85.425781 97.199219 85.894531 C 97.003906 86.144531 96.457031 88.449219 96.230469 90.121094 C 95.875 92.722656 96.035156 94.96875 96.296875 95.441406 C 97.027344 96.757813 97.195313 96.757813 97.585938 97.25 C 97.976563 97.738281 97.707031 98.398438 97.707031 98.398438 C 97.707031 98.398438 95.308594 100.71875 94.695313 100.53125 C 92.074219 99.71875 93.171875 94.265625 93.671875 91.15625 C 93.71875 90.871094 94.6875 85.984375 93.898438 85.96875 C 93.410156 85.960938 92.917969 85.953125 92.429688 85.945313 C 91.992188 85.839844 93.714844 84.300781 94.410156 83.296875 C 95.507813 81.71875 94.734375 77.558594 96.089844 77.714844 Z M 108.273438 86.535156 C 110.0625 87.644531 110.4375 88.695313 108.1875 90.898438 C 107.300781 91.773438 106.597656 92.433594 105.882813 92.933594 C 105.351563 93.308594 104.988281 93.71875 104.078125 94.164063 C 104.078125 94.164063 103.949219 95.476563 105.433594 95.902344 C 106.917969 96.324219 107.191406 96.308594 107.808594 96.496094 C 109.109375 96.886719 108 97.878906 106.746094 98.8125 C 105.707031 99.585938 104.796875 100.566406 103.867188 100.265625 C 101.515625 99.507813 100.992188 98.332031 100.515625 97.195313 C 99.863281 95.65625 100.242188 93.625 100.871094 91.804688 C 101.585938 89.742188 102.996094 88.203125 104.671875 86.875 C 105.644531 86.238281 106.484375 85.425781 108.273438 86.535156 Z M 106.351563 89.449219 C 106.824219 89.949219 106.542969 90.925781 105.445313 91.894531 C 104.722656 92.53125 103.820313 93.316406 103.789063 93.125 C 103.625 92 103.363281 91.140625 103.863281 90.328125 C 104.789063 88.820313 106 89.078125 106.351563 89.449219 Z M 113.71875 86.007813 C 113.71875 86.007813 114.621094 87.78125 114.765625 88.042969 C 114.914063 88.304688 115.464844 88.101563 116.074219 87.289063 C 116.6875 86.472656 118.054688 85.3125 119.914063 86.039063 C 121.773438 86.765625 122.503906 87.609375 122.820313 87.839844 C 123.402344 88.265625 123.578125 88.90625 122.441406 89.582031 C 121.429688 90.179688 120.988281 90.679688 120.191406 91.445313 C 119.945313 91.6875 119.5 91.6875 119.214844 91.328125 C 117.960938 89.75 117.550781 89.152344 115.320313 89.875 C 116.429688 92.550781 116.710938 94.867188 116.800781 97.726563 C 116.800781 97.726563 115.898438 98.453125 115.230469 99.0625 C 114.625 99.621094 114.320313 99.726563 113.835938 100.109375 C 112.285156 101.347656 114.34375 93.882813 111.742188 89.761719 C 111.460938 89.308594 110.609375 88.65625 110.609375 88.65625 Z M 124.257813 85.035156 C 124.390625 82.789063 125.175781 80.367188 127.03125 78.859375 C 128.882813 77.351563 131.039063 77.199219 132.609375 77.414063 C 133.953125 77.601563 133.222656 78.570313 133.105469 79.496094 C 133.035156 80.050781 133.40625 81.128906 132.597656 81.007813 C 129.320313 80.421875 127.746094 81.363281 127.3125 83.414063 C 126.878906 85.46875 126.898438 86.6875 127.015625 88.792969 C 127.074219 89.820313 127.339844 90.117188 128.671875 90.121094 C 129.664063 90.125 130.953125 90.078125 131.621094 90.097656 C 132.175781 90.109375 131.027344 92.484375 130.492188 92.484375 C 129.738281 92.558594 128.960938 92.445313 128.691406 92.441406 C 127.90625 92.433594 127.214844 92.550781 127.328125 93.867188 C 127.621094 97.214844 128.304688 99.949219 128.074219 103.441406 C 128.015625 104.320313 128.222656 104.617188 127.335938 105.136719 C 126.441406 105.65625 125.84375 106.40625 125.230469 106.21875 C 124.503906 105.996094 124.550781 102.960938 124.570313 102.0625 C 124.761719 94.066406 124.152344 92.632813 123.710938 92.59375 C 123.222656 92.550781 122.730469 92.578125 122.242188 92.570313 C 121.804688 92.460938 123.53125 90.929688 124.222656 89.921875 C 124.9375 88.878906 124.101563 87.699219 124.257813 85.035156 Z M 139.324219 80.324219 C 139.101563 82.152344 139.101563 86.21875 138.878906 88.984375 C 138.710938 91.089844 138.117188 93.113281 138.117188 94.96875 C 138.117188 96.128906 138.433594 98.410156 137.359375 99.03125 C 135.359375 100.199219 135.039063 100.773438 134.414063 100.417969 C 133.789063 100.058594 134.863281 98.433594 134.949219 96.21875 C 135.058594 93.347656 136.285156 85.476563 136.371094 81.089844 C 136.382813 80.371094 135.894531 80.230469 135.664063 79.296875 C 135.527344 78.761719 137.003906 78.226563 137.582031 77.867188 C 138.164063 77.511719 139.144531 76.484375 139.59375 76.707031 C 140.039063 76.929688 139.769531 78.226563 139.503906 78.628906 C 139.234375 79.027344 139.324219 80.324219 139.324219 80.324219 Z M 145.347656 90.730469 C 145.359375 92.277344 145.140625 92.601563 145.707031 94.449219 C 145.960938 95.277344 146.414063 95.699219 146.917969 95.65625 C 147.421875 95.613281 148.03125 95.226563 148.171875 94.542969 C 148.4375 93.265625 148.789063 91.46875 148.527344 90.46875 C 148.039063 88.59375 148.382813 88.707031 150.320313 87.609375 C 150.578125 87.460938 153.589844 85.234375 153.804688 86.726563 C 153.855469 87.089844 153.546875 87.835938 152.917969 89.039063 C 152.289063 90.246094 151.71875 93.386719 150.984375 97.996094 C 150.253906 102.605469 149.203125 106.902344 147.738281 110.777344 C 146.472656 114.117188 145.4375 118.109375 142.761719 119.996094 C 140.085938 121.878906 134.257813 121.960938 132.496094 119.3125 C 132.046875 118.636719 131.46875 117.6875 131.554688 117.1875 C 131.699219 116.347656 132.46875 115.417969 133.753906 114.964844 C 134.914063 114.554688 135.554688 112.679688 136.425781 113.449219 C 137.375 114.285156 138.152344 116.328125 140.039063 116.167969 C 141.921875 116.015625 144.070313 113.03125 145.328125 110.042969 C 146.585938 107.058594 147.371094 103.914063 147.6875 102.5 C 148 101.085938 148.492188 98.109375 147.882813 98.285156 C 141.523438 100.109375 142.605469 92.222656 141.222656 90.746094 C 140.199219 89.65625 141.671875 88.921875 142.121094 88.484375 C 143.542969 87.105469 143.390625 87.390625 143.773438 87.183594 C 144.414063 86.835938 145.273438 88.132813 145.394531 88.441406 C 145.601563 88.953125 145.335938 89.574219 145.347656 90.730469 " stroke="none" fill-rule="evenodd" fill="#FFFFFF" fill-opacity="1"/>
		<path d="M 75.21875 134.398438 L 72.992188 142.027344 L 69.167969 142.027344 L 71.390625 134.398438 L 70.152344 134.398438 L 71.070313 131.246094 L 72.308594 131.246094 L 73.253906 128.007813 L 77.078125 128.007813 L 76.136719 131.246094 L 78.300781 131.246094 L 77.382813 134.398438 Z M 85.320313 130.886719 C 87.140625 130.886719 88.527344 131.40625 89.480469 132.445313 C 90.433594 133.480469 90.652344 134.882813 90.136719 136.648438 C 89.617188 138.425781 88.582031 139.828125 87.03125 140.851563 C 85.476563 141.875 83.792969 142.386719 81.96875 142.386719 C 80.160156 142.386719 78.777344 141.871094 77.816406 140.839844 C 76.855469 139.808594 76.632813 138.414063 77.148438 136.648438 C 77.664063 134.867188 78.699219 133.460938 80.246094 132.433594 C 81.792969 131.402344 83.484375 130.886719 85.320313 130.886719 Z M 84.351563 134.210938 C 83.59375 134.210938 82.929688 134.445313 82.351563 134.914063 C 81.773438 135.382813 81.382813 135.960938 81.183594 136.648438 C 80.972656 137.363281 81.023438 137.945313 81.324219 138.390625 C 81.628906 138.839844 82.167969 139.066406 82.9375 139.066406 C 83.695313 139.066406 84.359375 138.835938 84.933594 138.382813 C 85.507813 137.925781 85.898438 137.347656 86.101563 136.648438 C 86.304688 135.949219 86.257813 135.367188 85.957031 134.902344 C 85.660156 134.441406 85.125 134.210938 84.351563 134.210938 Z M 93.371094 131.246094 L 97.195313 131.246094 L 95.519531 137.007813 C 95.292969 137.777344 95.257813 138.355469 95.410156 138.75 C 95.5625 139.140625 96.007813 139.339844 96.753906 139.339844 C 97.480469 139.339844 98.042969 139.136719 98.433594 138.726563 C 98.824219 138.324219 99.128906 137.746094 99.34375 137.007813 L 101.023438 131.246094 L 104.847656 131.246094 L 102.953125 137.742188 C 102.464844 139.421875 101.609375 140.617188 100.386719 141.324219 C 99.164063 142.03125 97.65625 142.386719 95.863281 142.386719 C 94.097656 142.386719 92.804688 142.027344 91.984375 141.3125 C 91.160156 140.597656 90.992188 139.40625 91.480469 137.742188 Z M 111.113281 131.246094 L 110.597656 133.011719 C 111.164063 132.367188 111.792969 131.886719 112.488281 131.574219 C 113.183594 131.253906 113.914063 131.097656 114.6875 131.097656 L 115.421875 131.097656 L 114.351563 134.777344 C 114.136719 134.636719 113.921875 134.542969 113.695313 134.492188 C 113.472656 134.445313 113.1875 134.421875 112.835938 134.421875 C 111.839844 134.421875 111.066406 134.703125 110.515625 135.269531 C 109.96875 135.835938 109.539063 136.640625 109.238281 137.675781 L 107.96875 142.027344 L 104.144531 142.027344 L 107.285156 131.246094 Z M 120.632813 131.246094 L 117.492188 142.027344 L 113.667969 142.027344 L 116.808594 131.246094 Z M 120.550781 124.960938 C 121.140625 124.960938 121.585938 125.171875 121.882813 125.589844 C 122.179688 126.011719 122.242188 126.515625 122.070313 127.105469 C 121.898438 127.695313 121.542969 128.199219 121 128.617188 C 120.457031 129.039063 119.890625 129.25 119.304688 129.25 C 118.714844 129.25 118.269531 129.039063 117.972656 128.617188 C 117.675781 128.199219 117.613281 127.695313 117.785156 127.105469 C 117.953125 126.515625 118.3125 126.011719 118.855469 125.589844 C 119.398438 125.171875 119.964844 124.960938 120.550781 124.960938 Z M 131.464844 131.582031 L 129.472656 134.019531 C 128.917969 133.671875 128.28125 133.496094 127.566406 133.496094 C 127.273438 133.496094 126.980469 133.554688 126.695313 133.671875 C 126.40625 133.792969 126.226563 133.976563 126.15625 134.230469 C 126.0625 134.554688 126.125 134.761719 126.351563 134.851563 C 126.578125 134.941406 127.074219 135.066406 127.851563 135.226563 C 128.621094 135.390625 129.210938 135.71875 129.609375 136.214844 C 130.011719 136.714844 130.078125 137.433594 129.804688 138.371094 C 129.414063 139.703125 128.621094 140.707031 127.425781 141.378906 C 126.226563 142.046875 124.933594 142.386719 123.546875 142.386719 C 122.777344 142.386719 122.054688 142.28125 121.390625 142.070313 C 120.722656 141.859375 120.109375 141.550781 119.558594 141.144531 L 121.722656 138.476563 C 122.054688 138.769531 122.476563 139.027344 122.980469 139.242188 C 123.484375 139.460938 123.96875 139.570313 124.429688 139.570313 C 124.710938 139.570313 125 139.5 125.300781 139.359375 C 125.601563 139.21875 125.789063 139.015625 125.867188 138.75 C 125.972656 138.386719 125.804688 138.121094 125.363281 137.953125 C 124.699219 137.78125 124.105469 137.625 123.589844 137.476563 C 123.070313 137.332031 122.65625 137.054688 122.339844 136.648438 C 122.023438 136.242188 121.996094 135.597656 122.25 134.714844 C 122.609375 133.480469 123.355469 132.535156 124.484375 131.878906 C 125.617188 131.21875 126.824219 130.886719 128.117188 130.886719 C 128.773438 130.886719 129.375 130.941406 129.921875 131.046875 C 130.464844 131.152344 130.980469 131.332031 131.464844 131.582031 Z M 137.765625 131.246094 L 137.371094 132.589844 C 138.007813 132.003906 138.644531 131.574219 139.285156 131.296875 C 139.925781 131.027344 140.601563 130.886719 141.316406 130.886719 C 142.128906 130.886719 142.800781 131.054688 143.335938 131.394531 C 143.867188 131.730469 144.222656 132.246094 144.394531 132.949219 C 144.9375 132.289063 145.59375 131.78125 146.363281 131.421875 C 147.132813 131.066406 147.894531 130.886719 148.652344 130.886719 C 149.941406 130.886719 150.765625 131.265625 151.128906 132.023438 C 151.488281 132.78125 151.476563 133.824219 151.085938 135.15625 L 149.085938 142.027344 L 145.257813 142.027344 L 146.757813 136.878906 C 147.023438 135.96875 147.148438 135.25 147.132813 134.722656 C 147.121094 134.199219 146.753906 133.9375 146.039063 133.9375 C 145.253906 133.9375 144.675781 134.203125 144.304688 134.734375 C 143.933594 135.269531 143.617188 135.980469 143.355469 136.878906 L 141.851563 142.027344 L 138.027344 142.027344 L 139.527344 136.878906 C 139.789063 135.980469 139.902344 135.253906 139.871094 134.691406 C 139.839844 134.132813 139.449219 133.851563 138.707031 133.851563 C 137.964844 133.851563 137.414063 134.125 137.0625 134.671875 C 136.703125 135.21875 136.394531 135.953125 136.121094 136.878906 L 134.621094 142.027344 L 130.796875 142.027344 L 133.9375 131.246094 L 137.765625 131.246094 " stroke="none" fill-rule="evenodd" fill="#FFFFFF" fill-opacity="1"/>
	</g>
</svg>