<?xml version="1.0" encoding="UTF-8"?>
<svg id="_图层_2" data-name="图层 2" xmlns="http://www.w3.org/2000/svg" viewBox="0 0 1024 1024">
  <defs>
    <style>
      .cls-1 {
        fill: #fff;
      }

      .cls-1, .cls-2 {
        stroke-width: 0px;
      }

      .cls-2 {
        fill: #00b490;
      }
    </style>
  </defs>
  <g id="_图层_1-2" data-name="图层 1">
    <g>
      <rect class="cls-2" x="0" y="0" width="1024" height="1024" rx="512" ry="512"/>
      <g>
        <path class="cls-1" d="m562.84,573.09v-27.12h69.8c11.13,0,18.54-1.06,22.2-3.19,5.34-3.19,8.01-7.98,8.01-14.36,0-7.44-3.13-12.84-9.38-16.18-3.51-1.97-9.15-2.96-16.93-2.96h-28.38c-17.24,0-29.68-3.11-37.3-9.34-4.73-3.95-8.43-8.89-11.1-14.81-2.67-5.93-4.01-12.31-4.01-19.14,0-10.63,3.13-20.36,9.38-29.17,6.1-8.51,15.87-13.52,29.29-15.04,4.58-.46,11.36-.68,20.37-.68h75.75v27.12h-68.43c-10.22.15-17.01.61-20.37,1.37-6.87,1.67-10.3,6.84-10.3,15.5,0,7.29,2.9,12.16,8.7,14.59,3.81,1.82,10.22,2.74,19.22,2.74h24.49c12.51,0,21.82,1.06,27.92,3.19,10.83,3.65,18.31,10.03,22.43,19.14,3.2,7.29,4.81,15.12,4.81,23.47,0,9.27-2.14,17.55-6.41,24.84-5.95,10.33-14.88,16.56-26.78,18.69-5.8.91-14.57,1.37-26.32,1.37h-76.67Z"/>
        <path class="cls-1" d="m717.31,450.7v-29.63h30.67v29.63h-30.67Zm0,11.4h30.67v110.99h-30.67v-110.99Z"/>
        <path class="cls-1" d="m773.6,462.1h112.6c10.22,0,18,.76,23.34,2.28,5.34,1.52,9.84,4.18,13.5,7.98,6.71,7.29,10.07,17.32,10.07,30.08v70.65h-30.67v-65.86c0-5.32-.23-9.04-.69-11.17-.46-2.13-1.53-4.02-3.2-5.7-3.2-3.04-8.01-4.56-14.42-4.56h-16.25v87.29h-30.67v-87.29h-32.95v87.29h-30.67v-110.99Z"/>
        <path class="cls-1" d="m89.86,573.25v-152.01h86.28c13.58,0,23.42,1.59,29.52,4.79,7.17,3.5,12.59,9.34,16.25,17.55,2.59,5.62,3.89,11.47,3.89,17.55,0,7.9-2.1,15.27-6.29,22.11-4.2,6.84-9.5,11.55-15.9,14.13,14.8,6.69,22.2,18.61,22.2,35.78,0,9.88-2.37,18.16-7.09,24.84-4.12,5.78-9.38,9.76-15.79,11.96-6.41,2.2-15.94,3.3-28.61,3.3h-84.45Zm32.5-89.57h44.17c4.73,0,8.12-.23,10.18-.68,2.06-.46,4.08-1.44,6.06-2.96,4.73-3.65,7.09-8.66,7.09-15.04s-2.21-10.56-6.64-13.45c-3.2-2.13-8.55-3.19-16.02-3.19h-44.85v35.32Zm0,62.45h44.17c4.73,0,8.16-.23,10.3-.68,2.13-.46,4.12-1.44,5.95-2.96,4.73-3.65,7.09-8.66,7.09-15.04s-2.21-10.56-6.64-13.45c-3.2-2.13-8.55-3.19-16.02-3.19h-44.85v35.33Z"/>
        <path class="cls-1" d="m375.9,462.26v-41.02h30.67v41.02h28.38v23.7h-28.38v40.34c0,9.42.84,15.35,2.52,17.78,2.59,3.65,7.17,5.47,13.73,5.47h12.13v23.7h-22.2c-13.27,0-22.73-3.19-28.38-9.57-5.65-6.38-8.47-17.09-8.47-32.13v-45.58h-19.45v-23.7h19.45Z"/>
        <path class="cls-1" d="m542.73,505.79v23.7h-64.54c.61,7.29,2.98,12.46,7.09,15.5,4.12,3.04,10.83,4.56,20.14,4.56h37.3v23.7h-40.74c-8.85,0-16.06-.8-21.63-2.39-5.57-1.6-10.8-4.22-15.68-7.86-13.58-10.48-20.37-26.06-20.37-46.72,0-13.37,3.58-25.07,10.76-35.1,4.88-6.84,10.76-11.7,17.62-14.59,6.87-2.88,15.87-4.33,27-4.33h43.02v23.7h-40.74c-8.39,0-14.27,1.41-17.62,4.22-3.36,2.81-5.42,8.02-6.18,15.61h64.54Z"/>
        <g>
          <polygon class="cls-1" points="283.77 602.92 253.07 602.92 316.33 462.68 347.04 462.68 283.77 602.92"/>
          <polygon class="cls-1" points="306.39 553.49 275.69 553.49 236.13 462.68 266.83 462.68 306.39 553.49"/>
        </g>
      </g>
    </g>
  </g>
</svg>