<?xml version="1.0" ?>
<svg xmlns="http://www.w3.org/2000/svg" data-name="Capa 1" viewBox="0 0 150 100">
	<defs>
		<style>
      .cls-1 {
        fill: #e84426;
      }
      .cls-2 {
        fill: #322c60;
      }
    </style>
	</defs>
	<path class="cls-2" d="M18.6,48.78c-.16-.02-.44-.15-.84-.4-4.83-2.92-9.66-5.85-14.49-8.79-.18-.11-.26-.06-.26,.15,.03,6.12,.07,12.29,.12,18.51,0,.19-.04,.36-.14,.52l-2.39,1.45c-.29,.18-.44,.09-.44-.25L0,34.82c0-.23,.09-.28,.28-.17l20.47,12.4c.08,.05,.1,.15,.05,.23-.01,.02-.03,.04-.05,.05l-2.16,1.44Z"/>
	<path class="cls-1" d="M18.6,48.78c.03,.13,.11,.23,.24,.28,.14,.06,.22,.09,.24,.11,1.5,.92,3.05,1.87,4.65,2.87,.08,.05,.11,.16,.06,.24-.01,.02-.03,.04-.06,.06L3.37,65.35c-.16,.1-.24,.06-.24-.13v-6.26c0-.12-.05-.17-.15-.17,.09-.16,.14-.34,.14-.52-.05-6.22-.09-12.39-.12-18.51,0-.21,.09-.26,.26-.15,4.83,2.94,9.66,5.86,14.49,8.79,.4,.24,.68,.37,.84,.4Z"/>
	<path class="cls-1" d="M112.83,45.42c1.33-1.9,2.25-3.17,2.77-3.83,.35-.44,.8-.73,1.34-.86,.55-.14,1.06-.18,1.54-.11,.62,.09,1.16,.43,1.62,1.03,4.07,5.39,8.15,10.78,12.23,16.17,.3,.4,.46,.8,.47,1.2,.01,.38-.15,.74-.49,1.07-.62,.62-1.3,.76-2.05,.4-.38-.18-.84-.6-1.37-1.26-1.39-1.71-2.23-2.82-2.52-3.34-.33-.58-.77-.83-1.32-.77-.48,.06-.72,.08-.73,.08h-14.34c-.1,0-.19,.05-.25,.13-1.06,1.45-2.11,2.88-3.14,4.27-.73,.99-1.6,1.1-2.62,.32-.59-.45-.66-.98-.22-1.61,3.04-4.29,6.06-8.59,9.08-12.89Zm4.11,.26c-1.57,2.11-3.13,4.22-4.66,6.35-.05,.06-.03,.1,.05,.1l10.91,.08c.22,0,.27-.09,.14-.27l-5.31-7.32c-.08-.11-.23-.13-.34-.05-.03,.02-.05,.04-.06,.07-.2,.31-.44,.66-.73,1.04Z"/>
	<path class="cls-1" d="M108.49,48.33c-.18,2-1.23,3.35-3.16,4.04-.79,.28-1.55,.5-2.28,.65-.59,.12-1.37,.2-2.35,.23-4.55,.14-9.21,.17-13.99,.11-.17,0-.3,.14-.3,.31l-.05,5.46c0,.57-.31,.91-.9,1.01-.74,.12-1.41,.13-2.01,.03-.51-.09-.78-.39-.79-.91-.12-5.84-.13-11.64,0-17.4,.01-.65,.35-.98,1-1,6.02-.1,11.99-.1,17.92,.02,1.24,.02,2.65,.34,4.23,.93,1.74,.66,2.66,1.87,2.74,3.63,0,.11,0,.59,0,1.44,0,.48-.02,.96-.06,1.45Zm-22.01-.5c-.01,1.13,0,1.9,.06,2.33,0,.09,.08,.15,.17,.15,3.94-.02,7.88-.03,11.81-.02,1.82,0,2.73,0,2.74,0,.93-.09,1.82-.35,2.67-.79,.36-.18,.57-.47,.63-.86,.2-1.14,.23-2.3,.07-3.48-.05-.36-.23-.6-.56-.75-.84-.37-1.73-.56-2.65-.58-4.92-.12-9.84-.16-14.76-.1-.08,0-.15,.07-.15,.15h0c-.01,1.31-.02,2.63-.04,3.94Z"/>
	<path class="cls-1" d="M124.52,41.37c.24-.34,.59-.52,1.05-.52,.42,0,.66,0,.71,0,.42-.02,.82,.02,1.21,.14,.31,.09,.65,.3,1.01,.62,2.74,2.43,5.55,4.94,8.43,7.54,.1,.09,.25,.09,.35,0,2.46-2.16,4.86-4.29,7.21-6.37,1.08-.96,1.73-1.5,1.93-1.61,.8-.44,1.68-.51,2.65-.22,.87,.26,1.14,.72,.8,1.38-.13,.25-.42,.57-.86,.97-3.13,2.81-6.37,5.7-9.7,8.68-.13,.12-.21,.28-.21,.46-.04,2.1-.07,4.25-.07,6.43,0,.42-.07,.72-.21,.9-.15,.2-.35,.32-.6,.38-.03,0-.26,.04-.68,.1-.6,.08-1.2,.03-1.79-.16-.28-.09-.47-.34-.47-.62l-.07-6.93c0-.25-.1-.48-.28-.64-3.13-2.8-6.2-5.53-9.2-8.19-.42-.37-.81-.78-1.16-1.22-.28-.36-.3-.72-.04-1.1Z"/>
	<path class="cls-2" d="M56.09,50.24c-.26,.44-.21,.86,.12,1.24,.47,.53,.79,1.06,.95,1.59,.11,.39,.18,.98,.21,1.78,.04,1.13-.26,2.12-.91,2.97-.52,.68-1.32,1.24-2.4,1.69-1.43,.59-2.94,.89-4.54,.89-5.61,0-11.23,0-16.84,0-.79,0-1.18-.41-1.19-1.22-.02-5.66-.04-11.33-.04-16.99,0-.49,.17-.84,.51-1.05,.2-.12,.54-.18,1.02-.18,5.64,0,11.28,0,16.92,0,1.15,0,2.26,.16,3.33,.49,1.28,.4,2.23,.94,2.86,1.62,.98,1.07,1.37,2.52,1.19,4.37-.06,.57-.23,1.1-.51,1.59l-.7,1.21Zm-3.48-5.62c-.91-.52-2.04-.77-3.39-.77-4.54,.01-9.11,.02-13.69,.02-.08,0-.15,.07-.15,.16,0,0,0,0,0,0v5.03c.01,.08,.08,.15,.16,.15,4.33,.02,8.66,.03,12.98,.02,.03,0,.34,0,.95,.02,1.21,.03,2.28-.16,3.2-.56,.58-.25,.91-.67,.96-1.26,.04-.43,.02-.92-.08-1.46-.1-.61-.42-1.06-.95-1.36Zm.16,8.41c-.76-.44-1.58-.67-2.47-.7-4.75-.12-9.66-.16-14.75-.12-.13,0-.23,.11-.23,.23l-.02,4.81c0,.09,.07,.16,.16,.16,4.74,0,9.46,0,14.16-.02,.7,0,1.39-.09,2.07-.26,1.25-.31,1.87-1.07,1.86-2.28,0-.45-.03-.78-.1-1.01-.11-.35-.33-.62-.67-.82Z"/>
	<path class="cls-2" d="M64.82,57.48c4.59,.01,9.21,.02,13.88,.02,.99,0,1.49,0,1.51,0,.65,.13,.96,.64,.93,1.52-.02,.89-.46,1.34-1.3,1.33-6-.02-11.99-.03-17.99-.03-.45,0-.91-.09-1.36-.26-.46-.18-.8-.45-1.03-.83-.51-.83-.34-1.57,.53-2.23,.4-.3,.6-.46,.61-.47,4.78-4.03,9.62-8.06,14.52-12.1,.2-.17,.17-.25-.09-.25-4.14-.01-8.35-.02-12.62-.04-.52,0-.89-.12-1.11-.37-.26-.29-.41-.7-.45-1.22-.07-.89,.29-1.33,1.07-1.32,5.69,.04,11.37,.05,17.06,.02,.01,0,.17,0,.48-.02,.75-.04,1.26,.29,1.54,1.01,.18,.47,.18,.91,0,1.31-.11,.24-.38,.54-.82,.91-5.11,4.23-10.25,8.5-15.43,12.81-.15,.13-.13,.19,.07,.19Z"/>
</svg>