<svg xmlns="http://www.w3.org/2000/svg" id="Layer_1" viewBox="0 0 400 245"><style>.st0{fill:#0075c9}.st1{fill:#121921}.st2{fill:url(#SVGID_1_)}.st3{fill:url(#SVGID_2_)}</style><path class="st0" d="M377.1 180.1c-2.6-19.5-66.4-33.9-142.7-32.2-57.7 1.3-106 11.5-124.9 24.8-.9 2.4-1.5 4.7-1.7 6.8 10.5-14.4 60.4-26.2 121.8-27.6 70.7-1.6 129.8 11.2 132.1 28.5 2.3 17.3-53.2 32.6-123.8 34.2-40.8.9-77.7-2.9-102.1-9.7-1.7.1-3.3.1-4.9.1-2 0-3.8-.1-5.5-.2 25.8 9.2 69.5 14.7 118.2 13.6 76.4-1.6 136.1-18.8 133.5-38.3"/><path class="st0" d="M131.2 194.7h78.1c-5.7-5.3-10-11.7-13.6-18.6-8.3-15.9-44.7-93.7-55.7-116.8H69.3l6.9 7.1c-19 35.9-38.6 70.7-58.8 107.1-4.3 7.9-9.5 14.7-15.7 21.2h43.5c-2.6-3.1-4-6.9-3.1-11.2 1.9-9.5 8.3-16.6 12.6-25.2H123c3.8 6.4 7.6 13.1 10.2 20 1.4 3.1 1.7 6.4 1 10-.4 2.4-1.6 4.5-3 6.4m-40.3-104l21.6 44.5.2.3.1-.1v.1H67.2c.6-.8.9-1.6 1.4-2.5 7.8-14.2 14.6-28.4 22.3-42.3M344.9 91.4c-5.5-15.1-21.1-13.1-21.1-13.1h-44s-15.6-2-21.1 13.1c-5.5 15.1-3.6 82.5 0 89.5s7.5 13.8 20.8 13.8h44.6c13.3 0 17.2-6.8 20.8-13.8 3.6-7 5.5-74.4 0-89.5m-30.3 77.8c0 3.7-3 6.6-6.6 6.6h-12.3c-3.7 0-6.6-3-6.6-6.6V104c0-3.7 3-6.6 6.6-6.6H308c3.7 0 6.6 3 6.6 6.6v65.2zM245.7 188.2c-.2 3.6.6 4.2 2.4 6.5-.3 0-37.5-.1-37.6 0 1.4-1.9 2.2-3.9 2.1-6.2.1.2 0-70.3 0-70.3h-11.2c-.1.3 0-20.7 0-20.7l35.4-19.2h8.8v109.9z"/><path class="st0" d="M397.1 31.3c-10.3-26-84.9-11.6-166.7 32.1-23.8 12.7-45.6 26.5-64.3 40.3l2.2 4.2c17.1-12.4 36.9-24.8 58.5-36.3C302.6 31.1 371.5 17 380.6 40.1c9.2 23.1-44.9 74.6-120.8 115-75.8 40.5-144.7 54.6-153.8 31.5-2.4-6.1-.4-14.2 5.3-23.6h-5c-6.1 10.4-8.2 19.5-5.5 26.4 10.3 25.9 84.9 11.6 166.8-32.1 81.8-43.6 139.8-100 129.5-126M359.8 208c5.3 0 9.4 4.1 9.4 9.3 0 5.2-4.2 9.3-9.5 9.3s-9.6-4.1-9.6-9.3c.1-5.2 4.3-9.3 9.7-9.3zm-.1 1.9c-4 0-7.1 3.3-7.1 7.4 0 4.1 3.1 7.4 7.2 7.4 4 .1 7.1-3.3 7.1-7.4-.1-4.1-3.1-7.4-7.2-7.4zm-1.5 12.2h-2.1v-9.3c.8-.1 2-.3 3.6-.3 1.8 0 2.5.3 3.2.7.6.4 1 1.1 1 2 0 1.1-.9 1.9-1.9 2.2v.1c.9.3 1.4 1 1.6 2.3.3 1.4.5 1.9.7 2.3H362c-.3-.3-.4-1.1-.7-2.3-.2-1-.7-1.4-1.9-1.4h-1v3.7zm.1-5.2h1c1.2 0 2.2-.4 2.2-1.4 0-.8-.6-1.4-2-1.4-.6 0-1 0-1.2.1v2.7z"/></svg>
