<?xml version="1.0" ?>
<svg xmlns="http://www.w3.org/2000/svg" viewBox="0 0 1551 1224">
	<title>AB9</title>
	<style>
		.s0 { fill: #005751 } 
		.s1 { fill: #72bc84 } 
	</style>
	<path id="Layer" class="s0" d="m545.9 496.9l-545 723.3 224.8 1.3 317.7-422.1z"/>
	<path id="Layer" class="s1" d="m806.1 1149.7c0 0-42.6-20.4-111.9-92.2-58.4-69.3-77.8-127.9-81.6-176.5v-170.3l-1.2-710.2h194.7v862.3z"/>
	<path id="Layer" class="s0" d="m1550.7 731.4c0-273.4-221.6-494.8-495.3-494.8-65.6 0-127.6 13.2-184.7 36.4v228.6c51.1-41.4 114.1-65.6 184.7-65.6 163 0 294.4 132.7 294.4 294.2 0 163-132.3 294.4-294.4 294.4-70.6 0-133.6-24.5-184.7-65.6v228.6c57.1 22.9 119.1 36.4 184.7 36.4 273.7 2.5 495.3-218.9 495.3-492.6z"/>
</svg>