<?xml version="1.0" ?>
<svg xmlns="http://www.w3.org/2000/svg" version="1.2" viewBox="0 0 1538 881">
	<defs>
		<clipPath clipPathUnits="userSpaceOnUse" id="cp1">
			<path d="m-2354.2-1517.42h6146.19v8685.89h-6146.19z"/>
		</clipPath>
	</defs>
	<style>
		.s0 { fill: #566466 } 
		.s1 { fill: #5c6a6d } 
		.s2 { fill: #ee312c } 
	</style>
	<g id="Clip-Path: Page 1" clip-path="url(#cp1)">
		<g id="Page 1">
			<path id="Path 8" class="s0" d="m57.8 800.5h-25.3l-32 78.4h20.2l7.2-19h8.3l19.6-16.6h-21.2l10.3-25.2 10.9 25.2 6.2 16.6 7.7 19h20.1zm570.3 0h-24.8l-32.5 78.4h20.1l7.7-19h8.3l19.1-16.6h-21.2l10.4-25.2 10.8 25.2 6.2 16.6 8.2 19h19.7z"/>
			<path id="Path 9" fill-rule="evenodd" class="s0" d="m184.8 854.7c0 12.9-8.3 24.2-24.8 24.2h-54.2v-78.4h51.6c16 0 24.3 11.9 24.3 24.3 0 5.1-2.1 10.3-5.7 13.9 5.7 4.1 8.8 9.8 8.8 16zm-60.4-23.2h33c3.6 0 5.7-2.6 5.7-5.7v-2.6c0-3.6-2.1-5.6-5.7-5.6h-33zm41.8 22.7c0-3.7-2.6-6.2-6.2-6.2h-35.6v14.4h35.6c3.6 0 6.2-2.6 6.2-6.2zm114-53.1v40.2c0 19.1-13.4 39.2-38.1 39.2-24.8 0-37.7-19.6-37.7-39.2v-40.2h18.6v40.2c0 10.9 6.7 21.7 19.1 21.7 12.9 0 19.1-10.8 19.1-21.7v-40.2zm214.1 47.4v30.5h-19.1v-77.9h19.1v30.4h41.3v-30.4h19.1v77.9h-19.1v-30.5zm281.8-47.4h18.5v77.9h-18.5zm296.2 0l-33 78.4h-25.3l-33.1-78.4h20.2l26.3 61.4c0-3.1 24.8-61.4 24.8-61.4zm16.5 0h19.1v78.4h-19.1zm208.5 0v17h-31v61.4h-19.1v-61.4h-31v-17zm18.1 0h19.1v78.4h-19.1zm122.3 39.2c0 20.6-15 40.7-41.8 40.7-26.8 0-41.8-20.1-41.8-40.7 0-20.7 15-40.8 41.8-40.8 26.8 0 41.8 20.1 41.8 40.8zm-19.6 0c0-12.9-9.8-23.2-21.9-23.2-12.2 0-22 10.3-22 23.2 0 12.8 9.8 23.2 22 23.2 12.1 0 21.9-10.4 21.9-23.2zm119.7-39.2v78.4h-17l-44.4-49v49h-19.6v-78.4h16.5l45.4 49v-49zm-558.9 78.4h-20.1l-7.7-19.1-6.7-17-10.4-24.8-10.3 24.8h20.7l-19.1 17h-8.3l-7.7 19.1h-19.6l32-78.4h25.2zm235.9 0h-20.1l-7.8-19.1-6.7-16.5-10.3-25.3-10.3 25.3h20.6l-19.1 16.5h-8.2l-7.8 19.1h-19.6l32-78.4h25.3zm-971.7-466.8h-0.6l-67.1-14.5-13.9-35.5-10.3-26.9-9.3-24.2-20.6-49.5-20.2 49.5-9.3 24.2h59.4l-48 41.3h-27.3l-14 35.6h-60.9l85.7-212h71.2zm227.1-106.3c0 50.6-36.2 106.3-108.9 106.3h-105.8v-51.6h105.8c34 0 50-28.4 50-54.7 0-26.3-16-54.6-50-54.6h-48.5l-57.3-51.6h105.8c73.3 0 108.9 55.7 108.9 106.2zm-401.5 407v-49.5h-6.2q-3.1 0-5.2 1-2 0.5-4.1 2.1-1.6 1-2.6 4.1-1.5 2.6-1.5 5.7v36.6h-13.4q-6.2 0-10.9-0.5-4.1 0-8.2-1-3.7-1.1-7.3-2.6-3.6-1.6-7.7-3.6l-0.5-0.6v-19.6l1.5 0.6c4.2 2.5 14 6.7 17.1 7.7q5.1 1 10.8 1h0.5v-17q0-8.8 2.1-14.9 2.6-6.8 8.2-10.9 4.2-3.1 10.3-4.6 5.7-2.1 12.4-2.1h23.3v49.5h398.9v-47.9l18.5 3.6v44.3h86.2v-10.8q0-3.1-1-5.7-0.5-2.6-2.1-4.1-1.5-2.1-3.6-3.1-2.6-1-5.1-1h-36.7v16l-18-4.2v-65.5l18 3.6v31.5h34.6q8.2 0 14.4 2.1 6.2 2 10.9 6.7 4.1 4.6 5.7 10.8 1.5 6.2 1.5 13.4v28.9zm646.1 0q-0.5 5.2-2.1 9.8-2 5.2-5.6 8.8-3.7 3.1-9.3 5.1-5.7 2.1-14 2.1-2 0-4.1 0-2.1-0.5-4.1-0.5-2.1-0.5-4.1-1.1l-5.7-1.5-1.1-18.6h1.6q4.6 1.6 8.8 2.6c4.6 0.5 9.8 0.5 13.4 0q2.6 0 4.1-1 1.6-0.5 2.6-2.6 1-1 1-3.1h-0.5q-8.3 0-16-1.5-7.2-2.1-12.9-6.2-5.7-4.2-8.8-10.9-3.6-6.2-3.6-15.4 0-7.8 3.1-14 3.1-6.7 8.8-10.8 5.7-4.1 12.9-6.7 7.7-2.6 16.5-2.6h19.6v40.8l-18.6-4.2v-18h-5.6q-3.7 0-6.7 1.5-3.7 1.1-5.7 3.1-2.6 2.1-4.2 4.7-1.5 3.1-1.5 6.2 0 4.1 1.5 6.7 1.6 3.1 3.7 5.1 2.5 1.6 5.6 2.6 3.1 1 7.3 1h44.9v-49l18.5 3.1v64.5zm80.5-77.9v77.9h-18.5v-81zm125.9 21.7v70.6h-27.9q-5.1 0-9.8-0.5-4.1-1-7.7-2-4.2-1.1-7.3-3.1-3.1-1.6-5.6-4.7-4.7-4.1-6.2-10.8-2.1-6.7-2.1-13.9v-39.2h18.6v37.1q0 5.2 1 8.8 1.1 3.1 3.6 5.7 2.6 2 7.3 3 4.1 1.1 9.2 1.1h8.3v-55.7zm38.7-37.2v92.9h-18.6v-96.5zm38.7 112.5q-5.6 6.2-18 6.2-2.1 0-4.7 0-2-0.6-3.6-1.1h-1l-1.1-18.5h1.1q2.6 0.5 4.1 1 1.6 0 3.6 0 4.2 0 5.7-2.1 2.1-2.6 2.1-8.2v-63l18.5 3.1v44.9h400.5v-48l18.6 3.1v44.9h21.1v18.1h-440.7q-1 13.4-6.2 19.6z"/>
			<path id="Path 10" class="s1" d="m794.2 619.5v7.2h-24.2v-7.2h5.7v-5.2q0-6.7 3.6-9.2 3.6-2.6 8.7-2.6 2.1 0 3.7 0c0.5 0 2 0.5 2.5 0.5l-0.5 6.2c-0.5 0-1.5-0.5-2.6-0.5q-0.5 0-2 0-3.6 0-5.2 2-1 1.6-1 5.7v3.1z"/>
			<path id="Path 11" fill-rule="evenodd" class="s0" d="m1536.8 684.5v28.9h-96.5v-18.6h78v-10.8q0-3.6-0.6-5.7-0.5-2.6-2-4.6-1.6-1.6-4.1-2.6-2.1-1.6-5.2-1.6h-36.1v16.5l-18.6-4.1v-65.5l18.6 3.6v31.5h34.5q8.3 0 14 2 6.7 2.1 11.3 6.7 3.6 4.2 5.2 10.9 1.5 6.2 1.5 13.4zm-846.3-272.4l-67.1-14.4-13.9-35.6-10.3-26.8-9.3-24.2-20.7-49.6-20.1 49.6-9.3 24.2h59.4l-48.5 41.8h-26.9l-13.9 35h-60.9l85.7-211.9h70.7zm711.3 325.4c-5.2 0-9.5-4.1-9.5-9.3 0-5.1 4.3-9.2 9.5-9.2 5.3 0 9.6 4.1 9.6 9.2 0 5.2-4.3 9.3-9.6 9.3zm24.6 0c-5.2 0-9.3-4.1-9.3-9.3 0-5.1 4.1-9.2 9.3-9.2 5.1 0 9.2 4.1 9.2 9.2 0 5.2-4.1 9.3-9.2 9.3zm-1416.4 0c-5.2 0-9.5-4.1-9.5-9.3 0-5.1 4.3-9.2 9.5-9.2 5.3 0 9.6 4.1 9.6 9.2 0 5.2-4.3 9.3-9.6 9.3zm24.3 0c-5.3 0-9.5-4.1-9.5-9.3 0-5.1 4.2-9.2 9.5-9.2 5.3 0 9.5 4.1 9.5 9.2 0 5.2-4.2 9.3-9.5 9.3zm460.3 0c-5.3 0-9.5-4.1-9.5-9.3 0-5.1 4.2-9.2 9.5-9.2 5.3 0 9.6 4.1 9.6 9.2 0 5.2-4.3 9.3-9.6 9.3zm250 0c-5.1 0-9.2-4.1-9.2-9.3 0-5.1 4.1-9.2 9.2-9.2 5.2 0 9.3 4.1 9.3 9.2 0 5.2-4.1 9.3-9.3 9.3zm-178.5-95.4c-5.1 0-9.3-4.3-9.3-9.5 0-5.3 4.2-9.6 9.3-9.6 5.1 0 9.3 4.3 9.3 9.6 0 5.2-4.2 9.5-9.3 9.5zm321 0c-5.2 0-9.3-4.3-9.3-9.5 0-5.3 4.1-9.6 9.3-9.6 5.1 0 9.3 4.3 9.3 9.6 0 5.2-4.2 9.5-9.3 9.5zm-131.6 212.5c0 12.4-8.3 23.7-24.3 23.7h-54.7v-77.9h51.6c16.5 0 24.3 11.4 24.3 23.8 0 5.1-2.1 10.3-5.7 13.9 5.7 4.1 8.8 9.8 8.8 16.5zm-59.9-23.7h32.5c3.6 0 5.7-2.6 5.7-5.7v-2.1c0-3.6-2.1-6.1-5.7-6.1h-32.5zm41.3 22.6c0-3.6-2.1-6.1-5.7-6.1h-35.6v14.4h35.6c3.6 0 5.7-2.6 5.7-6.2z"/>
			<path id="Path 12" class="s2" d="m1536.3 290.9c-1 4.7-4.1 8.3-8.7 11.9 2-9.8-9.3-11.9-18.1-10.3-5.2 1.5-10.3 1.5-15.5 1-2.1 6.2-12.9 8.3-21.7 8.3q-1.5 0-2.5 0c-0.6 0-0.6 0-1.1 0-0.5 0-0.5 0-0.5-0.5-19.6-24.8-41.8-31.5-52.6-36.2q-0.5 0-1.1-0.5c-2-1.5-4.6-4.6-6.2-6.2-3.1-3.1-6.2-5.6-10.8-7.2l-5.2-1.5-663.1-180.6-197.6-54.1-15.5-15 876.8 205.8 52.1 10.9c12.9 3.1 23.2 7.7 43.3 20.6q11.4 7.2 20.7 15c7.2 6.1 13.9 12.3 19.6 19.6q2.6 3 4.6 6.1 5.2 6.7 3.1 12.9zm-76.9 70.2q0.8-3.9-1.5-6.2c-3.6-3.6-11.4-3.6-17-2.6-5.2 1-10.4 0.5-15 0-2.1 5.7-10.8 7.2-19.1 7.2q-2.6 0-4.7 0c0 0-0.5 0-1 0 0-0.5-0.5-0.5-0.5-0.5-17.5-24.7-38.2-33.5-48-38.1-2.1-2.1-4.6-5.2-6.2-7.3-3.1-3.1-6.2-5.1-10.3-6.7q0-0.5 0-0.5l-93.9-28.9h-0.5v-0.5h-0.6l-664.6-206.3v-0.5l-82.6-25.3-15.5-15.5 873.2 237.8h0.5l32 8.8c11.9 3.1 21.7 8.2 40.8 21.1 13.4 9.8 24.7 19.6 34 31q3.6 4.6 7.2 9.8c5.7 8.2 3.1 17-6.7 23.2z"/>
			<path id="Path 13" fill-rule="evenodd" class="s0" d="m255 214.1l57.2 51.6v74.8l-57.2-52.1zm199.2 626.1c0 18.6-13.5 39.2-40.3 39.2h-38.7v-19.1h38.7c12.4 0 18.6-10.3 18.6-20.1 0-9.3-6.2-20.1-18.6-20.1h-17.5l-21.2-19.1h38.7c27.4 0 40.3 20.7 40.3 39.2zm-79-34l21.2 19.1v27.8l-21.2-19.6z"/>
			<path id="Path 14" class="s2" d="m1388.2 409.6q0.5-1.6 0.5-3.1-0.7-3.1-3.1-4.7c-3.1-1.5-6.7-2.5-10.8-2.5q-3.1 0-5.7 0.5-1 0-3.1 0.5c-5.1 0.5-11.8 1-16 0.5q-0.5 0-1.5 0c-15.5-1.5-20.7-2.6-22.7-4.6q-0.5 0.5-1.6 1.5c-11.3 9.8-26.3 14.4-41.8 14.4h-490.2l-74.9-14.9h38.8c53.1 0 106.3-7.2 157.3-21.2 18.1-7.7 89.3-45.9 89.3-45.9l-392.7-186.7-142.4-68.1-3.1-1.5-15.5-15 477.3 149.1 380.9 118.6c6.2 1.6 12.4 4.2 20.1 7.8q10.9 5.4 24.8 15.4c17 11.9 32 20.7 42.8 36.7q1.1 1 1.1 2c4.6 7.8 1.5 15.5-7.8 21.2z"/>
		</g>
	</g>
</svg>