<svg xmlns="http://www.w3.org/2000/svg" data-name="Layer 1" viewBox="0 0 200 200"><defs><linearGradient id="a" x1="29.57" x2="173.98" y1="-44.36" y2="-83.09" gradientTransform="translate(0 170.26)" gradientUnits="userSpaceOnUse"><stop offset="0" stop-color="#2c4aaa"/><stop offset=".04" stop-color="#2f50b4"/><stop offset=".17" stop-color="#3560cd"/><stop offset=".31" stop-color="#3b6ce1"/><stop offset=".46" stop-color="#3e74ef"/><stop offset=".66" stop-color="#4079f8"/><stop offset="1" stop-color="#417bfa"/></linearGradient><linearGradient id="b" x1="100.89" x2="170.02" y1="-45.42" y2="-17.38" gradientTransform="translate(0 170.26)" gradientUnits="userSpaceOnUse"><stop offset="0" stop-color="#1d2e6d"/><stop offset=".15" stop-color="#21357c"/><stop offset=".45" stop-color="#2b46a3"/><stop offset=".86" stop-color="#3b62e2"/><stop offset="1" stop-color="#416cfa"/></linearGradient></defs><path d="M0 0h200v200H0z" style="fill:#1d2234"/><g data-name="Layer 2"><g data-name="Layer 1-2"><g data-name="Layer 2-2"><path d="M93.9 134.45c-10.43 9.81-28 26.62-35.44 29.9-9.12 3.94-23 2.27-26.56-9.51 0 0-3.24-8.54 3.57-20.67s51.18-90.24 51.18-90.24 11-24.4 25.14.19c12.43 21.79 45.28 77.59 52.59 90.71l2 3.74a19.79 19.79 0 0 1-7.29 26.62c-10.25 5.93-28.76-5-40.79-16.1s-18.5-14.78-24.48-14.64" style="fill:url(#a)"/><path d="M93.9 134.45a72.6 72.6 0 0 1 8.4-7.57c9.53-7.14 26.53-17 46.46-5.17 29.65 17.71 20.51 37.68 10.36 43.51s-28.77-5.05-40.8-16.13-18.45-14.78-24.42-14.64z" style="fill:url(#b)"/></g></g></g></svg>