<?xml version="1.0" ?>
<svg xmlns="http://www.w3.org/2000/svg" viewBox="0 0 640 384">
	<g fill-rule="nonzero" fill="none">
		<path d="M115.325 228.876H86.357l25.538-68.337c1.59-3.936 5.363-6.539 9.51-6.539h16.838c3.492 0 5.862 3.595 4.553 6.88l-22.513 64.463c-.032.093-.063.155-.094.248a5.413 5.413 0 01-2.806 2.882c-.125.062-.25.093-.406.155-.124.031-.28.093-.405.124-.062.031-.125.031-.218.062-.156.031-.28.062-.437.062h-.592z" fill="#136EF8"/>
		<path d="M111.77 228.876H82.522c-1.871-.124-3.461-1.27-4.272-2.913l-.343-.899-13.252-39.112c-1.279-3.316 1.091-6.88 4.552-6.88h15.84c4.21 0 7.952 2.635 9.542 6.602l16.183 39.793c.717 1.828 2.245 3.44 4.21 3.44l-3.212-.031z" fill="#60D0FF"/>
		<path d="M110.772 225.467c.717 1.828 2.214 3.378 4.147 3.44H86.388l12.348-33.037 12.036 29.597z" fill="#2D7FFF"/>
		<path d="M115.325 228.876h-.468c-1.87-.031-3.399-1.612-4.116-3.44l-12.036-29.628 5.52-14.721 8.293 41.467s.343 4.865 4.428 6.043c-.125.031-.25.093-.405.124-.063.031-.156.031-.218.062-.156.031-.281.062-.437.062l-.561.031z" fill="#0047D8"/>
		<path d="M173.79 229c-9.167 0-15.56-6.074-15.56-14.783 0-8.585 5.769-14.938 15.092-16.643l16.714-3.068-.032-.31c-.686-5.02-5.176-7.283-9.323-7.283-6.517 0-10.695 4.587-11.662 5.796l-8.045-8.244c1.154-1.488 8.42-9.917 20.736-9.917 12.691 0 21.92 8.74 21.92 20.733v32.603h-13.657v-6.477h-.998l-.093.124c-.094.093-5.363 7.469-15.092 7.469zm4.147-22.686c-3.804.682-6.08 2.82-6.08 5.734 0 3.595 2.463 5.733 6.673 5.733 6.61 0 11.412-5.114 11.412-12.21v-1.488l-12.005 2.231zM235.654 228.938c-14.998 0-27.19-12.242-27.19-27.21 0-15 12.192-27.242 27.19-27.242 5.737 0 10.945 1.611 15.497 4.803l-5.83 11.467c-2.121-1.611-5.457-3.44-9.667-3.44-7.702 0-13.533 6.167-13.533 14.38 0 8.213 5.831 14.38 13.533 14.38 4.21 0 7.515-1.797 9.666-3.44l5.831 11.467c-4.552 3.223-9.76 4.835-15.497 4.835zM279.402 228.938c-14.999 0-27.19-12.242-27.19-27.21 0-15 12.191-27.242 27.19-27.242 5.737 0 10.944 1.611 15.497 4.803l-5.831 11.467c-2.12-1.611-5.457-3.44-9.666-3.44-7.702 0-13.533 6.167-13.533 14.38 0 8.213 5.83 14.38 13.533 14.38 4.21 0 7.514-1.797 9.666-3.44l5.83 11.467c-4.52 3.223-9.728 4.835-15.496 4.835zM323.71 228.938c-14.998 0-27.19-12.242-27.19-27.21 0-7.222 2.775-14.04 7.827-19.216 5.051-5.144 11.755-7.995 18.802-7.995 14.094 0 25.632 11.714 25.632 26.157 0 3.037-.343 5.423-.468 6.136h-37.73l.125.403c1.933 5.981 7.078 9.421 14.032 9.421 4.802 0 8.356-1.673 10.601-3.13l9.76 7.5c-1.933 1.767-9.417 7.934-21.39 7.934zm-1.06-42.118c-6.548 0-10.539 5.052-11.942 9.422l-.125.403h24.135l-.125-.403c-1.403-4.37-5.394-9.422-11.943-9.422zM550.93 228.938c-14.998 0-27.19-12.242-27.19-27.21 0-7.222 2.775-14.04 7.826-19.216 5.052-5.144 11.756-7.995 18.803-7.995 14.094 0 25.631 11.714 25.631 26.157 0 3.037-.343 5.423-.468 6.136h-37.76l.124.403c1.933 5.981 7.078 9.421 14.032 9.421 4.802 0 8.388-1.673 10.633-3.13l9.76 7.5c-1.934 1.767-9.448 7.934-21.39 7.934zm-1.06-42.118c-6.548 0-10.508 5.052-11.943 9.422l-.124.403h24.134l-.125-.403c-1.403-4.37-5.394-9.422-11.942-9.422zM444.601 228.876v-54.39h13.627v54.39zM469.048 228.969c-1.217 0-2.214-1.023-2.214-2.262v-70.445c0-1.24.997-2.262 2.214-2.262h22.107c6.954 0 12.94 2.014 17.244 5.857 4.022 3.595 6.236 8.492 6.236 13.792 0 11.529-9.76 15.34-9.854 15.372l-.904.34.936.249c.124.03 13.501 3.904 13.501 18.068 0 12.551-10.32 21.291-25.07 21.291h-24.196zm12.13-13.388H492.9c6.299 0 10.384-3.75 10.384-9.515 0-5.764-4.085-9.514-10.384-9.514h-11.724v19.029zm0-32.418h9.603c5.27 0 8.793-3.16 8.793-7.872 0-4.71-3.555-7.872-8.793-7.872h-9.604v15.744zM373.726 228.938c-5.301 0-9.791-1.209-13.346-3.626-3.305-2.2-5.145-5.052-6.143-7.128l11.35-5.145c1.279 2.975 4.272 4.711 8.139 4.711 3.835 0 6.205-1.767 6.205-4.649 0-2.634-1.715-4.308-5.145-4.99l-6.58-1.58c-9.167-2.014-14.156-7.376-14.156-15.124 0-9.483 8.294-16.89 18.896-16.89 5.488 0 10.072 1.332 13.533 4.028a15.986 15.986 0 015.52 7.593l-11.351 4.866c-.437-1.673-1.996-5.392-7.577-5.392-3.368 0-5.956 2.045-5.956 4.648 0 3.007 2.744 4.308 4.24 4.618l7.08 1.58c9.665 2.077 15.122 7.718 14.966 15.497 0 8.15-6.174 16.983-19.675 16.983zM416.974 228.938c-5.3 0-9.79-1.209-13.345-3.626-3.305-2.2-5.145-5.052-6.143-7.128l11.35-5.145c1.278 2.975 4.272 4.711 8.138 4.711 3.836 0 6.206-1.767 6.206-4.649 0-2.634-1.715-4.308-5.145-4.99l-6.58-1.58c-9.167-2.014-14.156-7.376-14.156-15.124 0-9.483 8.294-16.89 18.896-16.89 5.488 0 10.072 1.332 13.533 4.028a15.986 15.986 0 015.519 7.593l-11.35 4.866c-.437-1.673-2.027-5.392-7.577-5.392-3.368 0-5.956 2.045-5.956 4.648 0 3.007 2.744 4.308 4.24 4.618l7.079 1.58c9.666 2.077 15.123 7.718 14.967 15.497.031 8.15-6.112 16.983-19.676 16.983zM443.198 162.74c0 4.09 3.555 7.53 7.795 7.53 4.272 0 7.89-3.44 7.89-7.53 0-4.091-3.587-7.531-7.796-7.531-4.272 0-7.889 3.44-7.889 7.53z" fill="#136EF8"/>
	</g>
</svg>