<?xml version="1.0" ?>
<svg xmlns="http://www.w3.org/2000/svg" viewBox="0 0 1552 1551">
	<title>ACICO</title>
	<style>
		.s0 { fill: #f66525 } 
		.s1 { fill: #ffffff } 
	</style>
	<path fill-rule="evenodd" class="s0" d="m776 1551c-428.84 0-775.47-346.52-775.47-775.21 0-428.68 346.63-775.2 775.47-775.2 428.84 0 775.47 346.52 775.47 775.2 0 428.69-346.63 775.21-775.47 775.21z"/>
	<path fill-rule="evenodd" class="s1" d="m1057.53 707.73c-23.83 0-41.84-6.62-55.35-23.84h-1.86c-10.85 12.98-26.74 18.54-44.22 18.54h-118.13c-25.16 0-42.11-7.15-50.05-22.51-14.04 18.8-31.52 22.51-51.38 22.51l-259.02 0.27c-1.59 54.29-29.93 91.37-93.49 91.37l-2.12-54.82c35.75 0 42.9-20.93 43.7-33.64l0.26-5.3h-32.84c-49.26 0-83.95-28.34-83.95-86.6 0-59.33 31.51-94.82 88.19-94.82 50.32 0 80.25 30.46 80.25 94.29v34.96l153.87-0.27v-5.29c0-13.25-2.11-24.37-14.3-31.78l-91.11-52.97v-33.37l152.56-96.14 23.83 36.28-114.94 71.24 58.27 33.11c34.43 19.6 34.96 46.08 34.96 71.77v7.15h55.88c19.07 0 23.57-11.38 23.57-25.69v-69.65h49.26v65.68c0 20.66 4.24 29.66 28.6 29.66h51.91v-95.34h49v95.34h17.22c15.62 0 23.04-12.44 23.04-29.13v-66.21h49.26v67.27c0 23.31 12.18 33.9 25.42 33.9 11.92 0 18.54-6.62 21.46-16.68 2.12-7.42 1.59-15.37-0.53-23.05l-18.01-66.74 46.88-11.39 19.59 69.66c5.3 18.54 5.83 38.67-0.53 56.94-9.27 25.69-29.66 45.55-65.15 45.29zm-629.27-94.82c0-26.75-12.98-39.46-32.05-39.46-23.84 0-37.87 16.42-37.87 40.26 0 19.86 11.65 34.69 32.84 34.69h37.08zm353.57 129.25v36.81h-38.67v-36.81zm52.17 0.26v36.55h-38.4v-36.55zm385.88-256.63v217.17h-49.26v-217.17zm23.04-28.34h-95.87v-25.16h14.56l1.06-0.8c-1.59-3.44-2.38-7.94-2.38-11.65 0-15.36 10.86-40.26 47.41-40.26 9.53 0 24.1 3.18 35.49 10.33l-11.13 23.04c-11.12-6.62-20.92-6.88-25.95-6.88-11.12 0-16.69 6.88-16.69 13.77 0 6.36 4.51 12.45 13.25 12.45h40.25zm0.27 497.91c0 31.78 0.79 61.44-21.46 83.69-15.36 15.63-33.37 23.84-59.06 23.84-25.95 0-43.7-8.21-59.32-23.84-22.25-22.25-21.45-51.91-21.45-83.69 0-31.78-0.8-61.71 21.45-83.96 15.62-15.36 33.37-23.83 59.32-23.83 25.69 0 43.7 8.47 59.06 23.83 22.25 22.25 21.46 52.18 21.46 83.96zm-51.91 0c0-38.67-3.18-45.82-7.95-52.18-3.71-5.03-11.39-9.26-20.66-9.26-9.53 0-16.95 4.23-20.92 9.26-4.77 6.36-7.68 13.51-7.68 52.18 0 38.67 2.91 45.29 7.68 51.64 3.97 5.04 11.39 9.54 20.92 9.54 9.27 0 16.95-4.5 20.66-9.54 4.77-6.35 7.95-12.97 7.95-51.64z"/>
	<path fill-rule="evenodd" class="s1" d="m934.11 902.66c-4.76 6.09-8.21 13.77-8.21 52.44 0 38.66 3.45 45.81 8.21 52.17 3.71 5.03 10.86 9.01 20.4 9.01 17.21 0 23.83-10.86 27.28-22.52h52.96c-7.94 46.62-40.25 68.86-80.51 68.86-24.63 0-43.43-8.21-58.79-23.83-22.25-22.25-21.46-51.91-21.46-83.69 0-32.05-0.79-61.71 21.46-83.96 15.36-15.63 34.16-23.84 58.79-23.84 40.26 0 72.57 22.25 80.51 68.86h-52.96c-3.45-11.65-10.07-22.51-27.28-22.51-9.54 0-16.69 3.97-20.4 9.01zm-118.12-53.5v211.61h-52.17v-211.61zm-389.59 0l76.8 211.61h-54.29l-9.8-31.52h-65.15l-10.33 31.52h-54.56l77.07-211.61zm-0.79 136.66l-18.01-56.41-19.07 56.41z"/>
	<path fill-rule="evenodd" class="s1" d="m599.35 902.66c-4.77 6.09-7.95 13.77-7.95 52.44 0 38.66 3.18 45.81 7.95 52.17 3.97 5.03 11.12 9.01 20.66 9.01 17.21 0 23.57-10.86 27.01-22.52h52.97c-7.95 46.62-40.26 68.86-80.25 68.86-24.89 0-43.43-8.21-59.06-23.83-22.25-22.25-21.45-51.91-21.45-83.69 0-32.05-0.8-61.71 21.45-83.96 15.63-15.63 34.17-23.84 59.06-23.84 39.99 0 72.57 22.25 80.25 68.86h-52.97c-3.18-11.65-9.8-22.51-27.01-22.51-9.54 0-16.69 3.97-20.66 9.01z"/>
</svg>