<svg version="1.1" id="Layer_1" xmlns="http://www.w3.org/2000/svg" x="0" y="0" viewBox="0 0 4698.9 905.8" style="enable-background:new 0 0 4698.9 905.8" xml:space="preserve"><style>.st0{fill:#d0282f}</style><g id="Layer_1_1_"><path d="M1471 372.9h114.3c-1 25-3.5 44-7.6 57.1-4 13-11 24.8-20.6 34.5-14.5 14.7-33.9 24.4-58.3 29.3-24.4 4.8-66 7.2-124.9 7.2-46.3 0-80.9-2-104-5.9s-42.1-11.2-57.2-21.7c-14.5-10.3-24.5-25-30.1-44.1s-8.4-48.5-8.4-88.1c0-36.1 2.6-63.4 7.8-81.8s14.4-32.9 27.6-43.7c14.5-11.6 33.7-19.5 57.6-23.8s61.3-6.5 112.2-6.5c49.8 0 87.3 2.3 112.6 6.8 25.3 4.5 45.1 12.5 59.4 23.8 11.7 9.3 20.4 21.7 25.3 35.8 4.9 14.1 7.8 35.2 8.8 63.3h-114.3c-1.9-17.1-9.4-28.8-22.7-35.3-13.3-6.5-36.3-9.7-69-9.7-33.2 0-56.3 3.1-69.5 9.3-8.2 4.1-14.1 11.2-17.6 21.2s-5.3 24.8-5.3 44.4c0 19.2 1.9 33.3 5.6 42.4s10.3 15.7 19.8 19.8c14 6.2 36.9 9.3 68.6 9.3 32.9 0 55.6-3 67.8-8.9s19.7-17.6 22.1-34.7zM1830.9 185.4c51 0 89.2 2 114.5 6s45.1 11.2 59.4 21.6c14.5 10.3 25.2 25.1 30.4 42.1 5.4 17.3 8.1 44.8 8.1 82.4 0 27.9-.8 48.8-2.3 62.7-1.3 12.8-4.2 25.5-8.5 37.6-10.7 28.1-32.5 45.9-65.4 53.6-27.3 6.4-72.6 9.6-135.8 9.6-56 0-96.1-2-120.3-6-24.2-4-43.5-12-58-24-13.8-11.3-23.1-26.2-27.7-44.6s-7-49.4-7-92.9c0-24.8 1-43.6 3-56.5 1.8-12.4 5.6-24.3 11.3-35.5 11.4-21.9 30.6-36.6 57.7-44.3 26.9-7.6 73.9-11.6 140.6-11.8zm.9 84.7c-37 0-62 2.9-75 8.7-9.5 4.3-16.2 11.6-20.1 21.6s-5.8 25-5.9 44.8c0 19.6 1.6 33.6 4.9 42 3.3 8.5 9.6 14.8 18.8 19.2 14.2 6.6 39.8 9.9 76.8 9.9 42.4 0 69.4-4.4 81.3-13.3 11.8-8.9 17.7-29.1 17.8-60.6 0-19.8-1.9-34.2-5.6-43.3-3.7-9.1-10.4-15.7-20-19.8-14.1-6.1-38.4-9.2-73-9.2zM2490.1 493.3h-105.6v-45.1h-5.6c-8.9 19.3-23.1 32.9-42.5 40.8-19.4 8-48.2 12-86.3 12-34.7 0-62.4-2.9-82.8-8.7s-37.4-15.5-50.9-29.1c-13.6-14-22.6-29.5-26.8-46.3s-6.4-45.7-6.4-86.6V193.1h112.2v137.2c0 21.9 1 37.5 3.1 46.8s6.2 16.9 12.4 22.9c6.4 6.2 14.8 10.5 25.1 12.9 10.4 2.4 26.3 3.6 47.8 3.6 36.4 0 61.1-5.6 74.2-16.7 8.1-7.1 13.7-16.6 16-27.1 2.6-11 3.9-30.6 3.9-58.7V193.1h112.2v300.2zM2531.1 397.7h114.4c1 13.1 8.1 22 21.3 26.8s37.3 7.3 72.3 7.3c36.2 0 60.8-2 73.9-6s19.6-11.4 19.6-22.3c0-10.5-6.3-17.5-18.8-21-5.8-1.7-37.5-2.8-95.2-3.5-54.1 0-87.4-.9-100-2.8-35.1-4.8-58.8-16.3-71.2-34.5-9.3-13.6-13.9-32.1-13.9-55.2 0-44.3 16.3-73.1 48.9-86.6 24.6-10.1 77.3-15.2 158.3-15.2 51 0 88.1 1.9 111.2 5.7 23.1 3.8 41.1 11.1 53.9 21.9 7.7 6.3 13.5 14.6 16.9 23.9 3.4 9.3 5.8 23.1 7.3 41.3h-114.4c-2.1-7.7-4.6-12.6-7.7-14.7-9.3-6-32.7-9-70.4-9-35 0-59 1.8-71.9 5.3-13 3.5-19.4 10-19.4 19.3 0 12.2 9 19 26.9 20.2 14 1 64.9 1.9 152.6 2.5 42 .2 72.4 7.3 91.2 21.5 19 13.9 28.4 38 28.4 72.4 0 22.8-3.7 41.3-11.1 55.5-7.4 14.2-19.1 24.8-35 31.9-26.4 12.3-82.4 18.4-167.9 18.4-54.7 0-94-2.1-117.7-6.4-23.8-4.2-42.4-12.6-56.1-25-16.9-15.1-25.7-39-26.4-71.7zM3021.3 123.8h112.2v69.3H3311v79.7h-177.6v87.8c0 23.5 1.7 38.2 4.9 44.1 5.6 10.3 18.8 15.4 39.7 15.4 21.7 0 35.1-4.9 40.3-14.8 2-3.6 3.2-7.5 3.7-11.6.4-3.8.6-13.5.6-29.2h102.6c-.4 28.7-2.1 49.5-5.1 62.3-3.1 13-9.1 25.2-17.5 35.6-11.2 14.3-26.6 24.2-46.3 29.9-19.7 5.7-49 8.5-87.9 8.5-35.9 0-62.6-2-80.1-5.9s-31.7-11.3-42.6-22c-7.6-7.2-13.5-16-17.4-25.7-3.5-9.3-5.7-22.1-6.5-38.4-.4-6-.6-22.1-.6-48.4v-87.8h-59.4v-79.7h59.4l.1-69.1zM3354.7 193.1h112.2v300.2h-112.2z"/><path class="st0" d="M3354.7 70.5h112.2v84.1h-112.2z"/><path d="M3806 372.9h114.4c-1 25-3.6 44-7.6 57.1-4 13-11 24.8-20.6 34.5-14.5 14.7-33.9 24.4-58.3 29.3-24.4 4.8-66 7.2-124.9 7.2-46.3 0-81-2-104-5.9s-42.1-11.2-57.1-21.7c-14.5-10.3-24.5-25-30.1-44.1s-8.4-48.5-8.4-88.1c0-36.1 2.6-63.4 7.7-81.8s14.4-32.9 27.6-43.7c14.4-11.6 33.7-19.5 57.6-23.8s61.4-6.5 112.2-6.5c49.8 0 87.4 2.3 112.6 6.8 25.3 4.5 45.1 12.5 59.4 23.8 11.7 9.3 20.4 21.7 25.3 35.8 4.8 14.1 7.8 35.2 8.9 63.3h-114.3c-1.8-17.1-9.4-28.8-22.7-35.3s-36.3-9.7-69-9.7c-33.1 0-56.3 3.1-69.5 9.3-8.2 4.1-14.1 11.2-17.6 21.2s-5.3 24.8-5.2 44.4c0 19.2 1.9 33.3 5.6 42.4s10.3 15.7 19.8 19.8c14 6.2 36.9 9.3 68.6 9.3 33 0 55.6-3 67.8-8.9s19.4-17.6 21.8-34.7zM4075.8 287.1h-111.9c1.4-23.3 6.4-41 14.9-53 13.4-19.2 34.3-32.2 62.5-39s75.9-10.2 143-10.2c49.4 0 83 1.9 101 5.6 17.4 3.4 33.3 11.9 45.9 24.5 9.9 9.9 16.9 22.2 20.3 35.8 3.6 14 5.4 34.6 5.4 61.8v180.8H4249v-40.7h-5.3c-8.3 17.3-21.4 29.8-39.4 37.6-9.5 4.1-22.8 6.9-40 8.5-17.2 1.5-44.4 2.3-81.8 2.2-30.2 0-53.4-1.9-69.8-5.7s-29.5-10.4-39.4-19.7c-14.5-13.8-21.7-36.5-21.7-67.9 0-34.9 8.6-60.2 25.7-75.7 13.6-12.2 31.6-20.1 54-23.9s63.5-5.6 123.4-5.6c25.8 0 44.3 1.5 55.3 4.5s20.9 9.4 29.6 19.1h5v-15.8c0-23.4-4.3-38.1-13-44s-30.1-8.9-64.2-8.9c-40.3 0-65.2 1.5-74.7 4.6-9.3 3.1-15 11.4-16.9 25.1zm75.1 79.2c-37.7 0-61.1 2.3-70.2 6.8-10.9 5.4-16.4 13.6-16.4 24.5 0 12.2 5.4 20.5 16.1 24.8 10.7 4.3 31.1 6.5 61.2 6.5 39.2 0 65.8-2.4 79.8-7.1 14-4.8 21-13.8 21-27 0-12-6.1-20.3-18.3-24.8-5.5-2-29.9-3.3-73.2-3.7zM4405.5 70.5h112.2v422.8h-112.2V70.5zM1116.5 0H768.1L0 740.3h256.2l575.7-569h44.8l1.6 327 247.3 1.1z"/><path class="st0" d="M2877.6 704.4h16.1c0 1.4 0 2.3.1 2.8.1 7 .6 11.7 1.5 14.1s2.8 4.2 5.8 5.5c4.6 2 19.7 3 45.4 3 18.5 0 31.9-.9 40-2.7s12-8 12-18.5c0-5.3-.6-9.4-1.9-12.1-1.3-2.7-3.7-4.8-6.6-5.7-3.1-1.1-7.5-1.7-13-1.9s-23.8-.3-54.5-.3c-10.3 0-18.6-1-24.8-2.9s-11-5-14.3-9.2c-4-5-5.9-12.6-5.9-22.7 0-11.3 3.1-19.4 9.4-24.5 3-2.5 6.4-4.4 10.1-5.7 5.1-1.5 10.3-2.6 15.6-3.1 13-1.4 26.1-2.1 39.2-2 14.1 0 24.9.7 32.6 2.1 7.7 1.4 13.6 3.9 17.9 7.3 3.3 2.6 5.8 6.1 7.2 10.1 1.3 3.8 2 9.7 2.1 17.7H2995v-1.9c0-6.1-.7-10.1-2-12.2-2-3.2-6.2-5.5-12.7-7-6.5-1.4-16.3-2.1-29.3-2.1-16.1 0-28.2.6-36.3 1.8s-13.5 3.2-16.4 6c-2.7 2.7-4 7.1-4 13.3 0 5.6.7 9.6 2 12s4 4.2 7.9 5.4c5.7 1.8 16.6 2.8 32.7 2.9 5.5 0 19 .1 40.6.2 8.9.1 15.8.9 20.6 2.5 4.7 1.6 8.8 4.5 11.7 8.5 3.8 5.1 5.7 12.4 5.7 21.9 0 9-1.6 16.2-4.7 21.4-3.7 6.1-10.6 10.2-20.7 12.2-10.1 2.1-28.1 3.1-54.3 3.1-13.8 0-24-.4-30.5-1.2s-11.7-2.3-15.6-4.5c-4.6-2.7-7.8-6-9.6-10s-2.6-10.1-2.6-18.1c0-.3 0-2.2.1-5.5zM3156.2 618.5c21.3 0 36.3.7 45 2s15.1 4 19.1 8c2.6 2.5 4.5 5.5 5.8 8.9 1.5 4.7 2.6 9.5 3 14.5 1 9.9 1.5 19.8 1.4 29.7 0 15.3-.7 26.9-2.2 34.8s-3.9 13.7-7.4 17.3c-3.6 3.9-9.7 6.5-18 8s-22.1 2.2-41.1 2.2c-9.3 0-19.7-.2-31.2-.5-11.4-.3-18.9-.6-22.5-.9-5-.4-10-1.4-14.7-3-3.6-1.4-6.9-3.7-9.6-6.6-3.7-3.9-6.2-9.4-7.4-16.4s-1.9-19-1.9-35.8c0-19.8 1.4-33.9 4.1-42.3 3.3-9.8 10.8-15.6 22.5-17.4 10.8-1.6 29.2-2.4 55.1-2.5zm-9.6 15c-17.4 0-30.2.7-38.3 2.1-4.8.8-8.2 2.1-10.3 4s-3.6 5-4.4 9.4c-1.4 6.9-2.1 17.1-2.1 30.5 0 13.7.4 23.7 1.1 30 .8 6.3 2.1 10.5 4.1 12.6 1.9 1.9 4.2 3.3 6.8 3.8 4.7 1 9.4 1.6 14.1 1.8 10.7.7 23 1.1 37.1 1.1 20.1 0 34.7-.8 43.8-2.5 7.2-1.2 11.4-5.5 12.8-12.7 1.4-7.8 2.1-18.4 2.1-31.8 0-16.3-.6-27.9-1.8-34.6-1.2-6.8-5.9-10.9-14.1-12.1-5.4-.8-10.8-1.2-16.3-1.4-5.9 0-17.4-.2-34.6-.2zM3293.3 618.9h16.5v109.9h98.3v14.6h-114.9l.1-124.5zM3463.1 618.9h16.6v61.2c0 18.1.2 28.9.5 32.6.5 4.8 1.9 8.2 4.1 10.3s6 3.5 11.2 4.2c8.6 1 21.1 1.5 37.4 1.5 22.3 0 37.6-.7 46-2 5-.8 8.5-2.3 10.5-4.6s3.2-6 3.5-11.1c.3-4.7.5-15 .6-30.9v-61.2h16.6v61.2c-.1 16.6-.4 28.1-.9 34.4-1.1 10.8-5.1 18.4-11.9 22.7-4.8 2.7-10.1 4.4-15.5 4.8-6.1.7-21.1 1.3-45 1.8-21-.3-33.6-.6-37.7-.8-4.6-.3-9.1-.9-13.6-1.9-7.9-1.5-14.6-6.6-18.1-13.9-1.9-4.1-3.1-8.6-3.4-13.1-.4-5.1-.8-16.4-1-34.1l.1-61.1zM3665.1 618.9h141.6v14.6h-62.4v109.9h-16.6V633.5h-62.6v-14.6zM3862.6 618.9h16.6v124.5h-16.6V618.9zM4023.7 618.5c21.3 0 36.3.7 45 2s15.1 4 19.1 8c2.5 2.5 4.5 5.5 5.7 8.9 1.6 4.7 2.6 9.5 3 14.5 1 9.9 1.5 19.8 1.4 29.7 0 15.3-.7 26.9-2.1 34.8s-3.9 13.7-7.4 17.3c-3.7 3.9-9.7 6.5-18 8s-22.1 2.2-41.1 2.2c-9.3 0-19.7-.2-31.1-.5-11.4-.3-18.9-.6-22.5-.9-6.2-.6-11.1-1.6-14.6-3-3.6-1.4-6.9-3.7-9.6-6.6-3.7-3.9-6.2-9.4-7.5-16.4s-1.9-19-1.9-35.8c0-19.8 1.4-33.9 4.1-42.3 3.3-9.8 10.8-15.6 22.5-17.4 10.8-1.6 29.1-2.4 55-2.5zm-9.6 15c-17.4 0-30.2.7-38.3 2.1-4.8.8-8.2 2.1-10.3 4s-3.6 5-4.4 9.4c-1.4 6.9-2.1 17.1-2.1 30.5 0 13.7.4 23.7 1.1 30 .8 6.3 2.1 10.5 4.2 12.6 1.9 1.9 4.2 3.3 6.8 3.8 4.7 1 9.4 1.6 14.2 1.8 10.6.7 23 1.1 37.1 1.1 20.1 0 34.7-.8 43.8-2.5 7.2-1.2 11.4-5.5 12.8-12.7 1.4-7.8 2.1-18.4 2.1-31.8 0-16.3-.6-27.9-1.8-34.6s-6-10.9-14.2-12.1c-5.4-.8-10.8-1.2-16.2-1.4-6.1 0-17.6-.2-34.8-.2zM4160.8 618.9h27.6L4297.6 728h3.8V618.9h16.6v124.5h-28.1L4181 634.5h-3.6v108.9h-16.6V618.9zM4379.9 704.4h16.2c0 .9 0 1.8.1 2.8.1 7 .6 11.7 1.5 14.1.9 2.4 2.9 4.2 5.8 5.5 4.7 2 19.8 3 45.4 3 18.6 0 31.9-.9 40-2.7s12-8 12-18.5c0-5.3-.6-9.4-1.9-12.1-1.3-2.7-3.7-4.8-6.6-5.7-3.1-1.1-7.5-1.7-13.1-1.9s-23.8-.3-54.5-.3c-10.3 0-18.6-1-24.8-2.9s-11-5-14.4-9.2c-3.9-5-5.9-12.6-5.9-22.7 0-11.3 3.1-19.4 9.4-24.5 3-2.5 6.5-4.4 10.2-5.7 5.1-1.5 10.3-2.6 15.6-3.1 13-1.4 26.1-2.1 39.3-2 14 0 24.9.7 32.6 2.1s13.6 3.9 17.9 7.3c3.3 2.6 5.9 6.1 7.3 10.1 1.3 3.8 2 9.7 2.1 17.7h-16.6v-1.9c0-6.1-.7-10.2-2-12.2-1.9-3.2-6.2-5.5-12.7-7s-16.3-2.1-29.3-2.1c-16.1 0-28.2.6-36.3 1.8s-13.5 3.2-16.4 6c-2.7 2.7-4 7.1-4 13.3 0 5.6.7 9.6 2 12s3.9 4.2 7.8 5.4c5.7 1.8 16.6 2.8 32.7 2.9 5.5 0 19 .1 40.6.2 9 .1 15.8.9 20.6 2.5 4.7 1.6 8.8 4.5 11.7 8.5 3.8 5.1 5.6 12.4 5.6 21.9 0 9-1.5 16.2-4.6 21.4-3.7 6.1-10.6 10.2-20.6 12.2s-28.2 3.1-54.3 3.1c-13.8 0-24-.4-30.5-1.2s-11.7-2.3-15.5-4.5c-4.6-2.7-7.8-6-9.6-10s-2.7-10-2.7-18c-.1-.4-.1-2.3-.1-5.6zM924.7 684.1l-32.5-52.5-29-49.8-14-23.8-12.4 31.6-39.1 99.5-26.5-132.6-11.5-57.4-16.3 64.3-53 207.4-42.3-251.6-11-65.6-16.9 72.4-51.1 218.1-28.8-102.6-16.4-61.5-18.1 34.6-39.4 66.8H364.5v32.7h112.2l4.6-7.9 33.1-44.4 41.1 145.5 14.1 50.5 13.6-58.2L631 595.7l41.7 248.2 10.4 61.9 17.5-68.5 54-211.9 23.6 117.9 8.5 42.7 18.8-47.9L851 622.3l16.9 29.9 11.3 20.4 22.4 44.8 1.2-.7h1932.8v-32.6z"/><path d="M4646.6 161.6c-1.7-3-3.9-5.7-6.3-8.1-2-1.6-4.3-2.9-6.7-3.7 7.4-1.8 12.8-4.6 16.3-8.5 3.4-3.8 5.3-8.7 5.2-13.8 0-6.8-2.3-12.3-6.8-16.3-4.5-4.1-11.8-6.1-21.9-6.1h-35.6v79.5h19.8v-31.3c.8-.2 1.6-.3 2.4-.3 2.6 0 5.2 1.5 7.8 4.4s7.7 12 15.3 27.1h23.4c-8.5-15-12.8-22.6-12.9-22.9zm-15.4-25.6c-2.3 1.9-6.4 2.8-12.1 2.8h-8.6V119h9.4c5.4 0 9.2.9 11.5 2.8 2.2 1.7 3.4 4.4 3.4 7.2-.1 2.7-1.4 5.3-3.6 7z"/><path d="M4688.9 107.7c-20.2-35.8-65.6-48.4-101.4-28.2s-48.4 65.6-28.2 101.4c.2.4.5.9.7 1.3 20.2 35.8 65.6 48.4 101.4 28.2s48.4-65.6 28.2-101.4c-.2-.5-.4-.9-.7-1.3zm-22 79.6c-23.4 23.5-61.4 23.5-84.9.1-11.3-11.3-17.6-26.6-17.6-42.6 0-33.2 26.9-60 60-60s60 26.9 60 60c.4 16-6 31.4-17.5 42.5z"/></g></svg>