<?xml version="1.0" ?>
<svg xmlns="http://www.w3.org/2000/svg" viewBox="0 0 1550 1550">
	<style>.a{fill:#5bb43b}.b{fill:#fff}</style>
	<path class="a" d="m1337.9 1153.3c21.4 17.9 48 26.6 83.8 26.6h12.2c72.9-117.3 115.6-257.5 115.6-405 0-390.9-291.4-714.6-668-766.1l396.2 1038c17.5 51.5 38.9 88.6 60.2 106.5z"/>
	<path class="a" d="m966.6 1179.9c16.1-1.7 30.1-1.7 44.5-1.7 30.1 0 51.5-3.5 60.2-8.8 17.9-12.6 28.8-26.6 28.8-44.5q0-18.5-27-96l-74.6-211.6h-463.5l33.6-96h394.5l-16.1-37.1-206-561.6-207.8 561.6-34 92.5-104.7 282.4c-10.5 28.4-16.1 49.7-16.1 60.6q0 18.6 10.8 31.9 10.5 13.3 26.7 21.3c10.5 5.3 30.1 7 55 7 17.8 0 31.8 0 42.7 1.8v78.1h-343c142.3 176.2 358.8 289.7 604 289.7 243.5 0 462.1-113.5 604.3-289.7h-412.3z"/>
	<path class="a" d="m195.5 1169.4c16.1-7.3 30.1-19.6 42.7-34q18.6-23.8 48-101.2l396.3-1028.9c-384 44.4-682.5 371.3-682.5 769.6 0 149.3 42.7 287.7 115.6 405q55.7 0 79.9-10.5z"/>
	<path class="b" d="m170.6 1258.1c-19.6-24.9-39.2-51.5-55-78.2"/>
	<path class="b" d="m1433.9 1179.9c-16.1 26.7-35.3 53.3-55 78.2"/>
	<path class="b" d="m682.5 5.3c30.1-3.5 60.2-5.3 92.1-5.3 35.7 0 71.1 1.8 105.1 7"/>
	<path class="b" d="m1421.7 1179.9c-35.8 0-62.4-8.7-83.8-26.6-21.3-17.9-40.9-53.2-62-108.2l-396.2-1038.1c-34-5.2-69.4-7-105.1-7q-45.2 0-90.4 5.3l-398 1028.9q-29.4 77.4-48 101.2c-12.6 16.2-26.6 26.7-42.7 34q-24.2 10.5-79.9 10.5c15.8 26.7 35.4 53.3 55 78.2h344.7v-78.2c-10.8 0-24.8-1.7-42.7-1.7-24.9 0-44.5-1.8-55-7-10.9-5.3-21.4-12.6-26.6-21.4q-10.9-13.3-10.9-31.9c0-10.8 5.6-32.2 16.1-60.6l104.8-282.4 34-92.4 206-559.9 206 561.6 16.1 37.1h-394.5l-33.6 96h463.5l74.6 209.9q27 77.4 27 96c0 17.9-9.1 33.6-28.8 44.5-8.7 7-30.1 8.7-60.2 8.7-14.4 0-30.2 0-44.5 1.8v78.1h410.6c19.6-24.9 38.9-51.5 55-78.1h-10.5z"/>
</svg>