<?xml version="1.0" ?>
<svg xmlns="http://www.w3.org/2000/svg" id="NEW" viewBox="-41.28 8.076 559.119 117.564">
	<defs>
		<style>.cls-1{fill:#fff;}.cls-2{fill:#e31b22;}.cls-3{fill:#fff;}</style>
	</defs>
	<path class="cls-1" d="M 501.5 58.263 L 505.274 58.263 L 505.274 58.854 L 503.79 58.854 L 503.79 62.473 L 503.071 62.473 L 503.071 58.854 L 501.541 58.854 L 501.5 58.263 Z M 510.09 62.473 L 510.09 59.508 L 508.517 61.961 L 508.177 61.961 L 506.593 59.563 L 506.593 62.473 L 505.899 62.473 L 505.899 58.263 L 506.503 58.263 L 508.349 61.163 L 510.182 58.302 L 510.767 58.302 L 510.767 62.473 L 510.09 62.473 Z" style=""/>
	<path class="cls-1" d="M 118.931 63.536 L 118.931 85.944 L 113.3 85.944 L 113.3 74.944 L 90.3 74.944 L 90.3 85.944 L 84.726 85.944 L 84.726 63.536 C 84.726 51.732 91.558 45.585 101.744 45.585 C 111.927 45.585 118.931 51.747 118.931 63.536 Z M 113.249 69.987 L 113.249 63.023 C 113.249 54.711 108.799 50.658 101.744 50.658 C 94.688 50.658 90.247 54.711 90.247 63.023 L 90.247 69.987 L 113.249 69.987 Z" style=""/>
	<path class="cls-1" d="M 126.995 70.839 C 126.995 61.83 133.657 55.444 142.939 55.444 C 148.345 55.444 152.835 57.674 155.23 61.883 L 151.081 64.572 C 149.299 61.784 146.192 60.137 142.885 60.233 C 136.957 60.233 132.517 64.4 132.517 70.839 C 132.517 77.277 136.957 81.499 142.885 81.499 C 146.188 81.598 149.297 79.957 151.081 77.172 L 155.23 79.796 C 152.835 84.002 148.345 86.35 142.939 86.35 C 133.657 86.286 126.995 79.847 126.995 70.839 Z" style=""/>
	<path class="cls-1" d="M 178.165 84.174 C 176.272 85.621 173.935 86.368 171.553 86.286 C 165.469 86.286 161.999 82.928 161.999 76.832 L 161.999 49.112 L 167.458 49.112 L 167.458 55.668 L 176.108 55.668 L 176.108 60.165 L 167.458 60.165 L 167.458 76.597 C 167.458 79.847 169.105 81.67 172.183 81.67 C 173.726 81.688 175.229 81.184 176.45 80.242 L 178.165 84.174 Z" style=""/>
	<path class="cls-1" d="M 183.795 46.384 C 183.809 44.366 185.47 42.753 187.487 42.806 C 190.225 42.907 191.828 45.938 190.37 48.264 C 188.914 50.59 185.49 50.464 184.208 48.036 C 183.94 47.531 183.798 46.968 183.795 46.398 L 183.795 46.384 Z M 184.763 55.734 L 190.222 55.734 L 190.222 85.893 L 184.763 85.893 L 184.763 55.734 Z" style=""/>
	<path class="cls-1" d="M 227.334 55.734 L 214.125 85.893 L 208.548 85.893 L 195.339 55.734 L 201.033 55.734 L 211.386 79.965 L 221.98 55.734 L 227.334 55.734 Z" style=""/>
	<path class="cls-1" d="M 254.759 77.854 L 257.693 81.381 C 255.007 84.581 250.855 86.286 245.843 86.286 C 236.116 86.286 229.625 79.847 229.625 70.839 C 229.625 61.83 235.998 55.444 244.77 55.444 C 253.019 55.444 259.458 61.268 259.628 70.275 L 235.658 74.944 C 237.192 79.1 240.895 81.499 246.014 81.499 C 249.32 81.629 252.519 80.295 254.759 77.854 Z M 234.951 70.549 L 234.951 71.126 L 254.248 67.481 C 253.316 63.036 249.326 59.907 244.796 60.06 C 239.049 60.06 234.951 64.23 234.951 70.549 Z" style=""/>
	<path class="cls-1" d="M 267.274 77.055 L 267.274 43.645 L 272.728 43.645 L 272.728 76.597 C 272.728 79.847 274.263 81.67 277.392 81.67 C 278.314 81.657 279.225 81.467 280.074 81.106 L 280.363 85.602 C 279.104 86.056 277.775 86.287 276.435 86.286 C 270.572 86.286 267.274 82.862 267.274 77.055 Z" style=""/>
	<path class="cls-1" d="M 313.652 55.734 L 313.652 81.84 C 313.652 92.5 308.588 97.351 298.846 97.351 C 293.609 97.351 288.375 95.805 285.142 92.841 L 287.8 88.698 C 290.786 91.283 294.613 92.68 298.558 92.63 C 305.208 92.63 308.167 89.38 308.167 82.549 L 308.167 80.319 C 305.74 83.263 302.081 84.907 298.271 84.763 C 290.419 84.763 285.285 80.543 285.285 71.652 L 285.285 55.734 L 290.757 55.734 L 290.757 70.958 C 290.757 76.832 293.712 79.796 298.886 79.796 C 304.581 79.796 308.22 76.254 308.22 69.75 L 308.22 55.734 L 313.652 55.734 Z" style=""/>
	<path class="cls-1" d="M 340.162 46.043 L 345.854 46.043 L 345.854 80.987 L 367.428 80.987 L 367.428 85.944 L 340.162 85.944 L 340.162 46.043 Z" style=""/>
	<path class="cls-1" d="M 395.481 77.854 L 398.441 81.381 C 395.823 84.581 391.606 86.286 386.659 86.286 C 376.932 86.286 370.437 79.847 370.437 70.839 C 370.437 61.83 376.812 55.444 385.519 55.444 C 393.767 55.444 400.192 61.268 400.364 70.275 L 376.407 74.944 C 377.94 79.1 381.646 81.499 386.765 81.499 C 390.061 81.619 393.247 80.287 395.481 77.854 Z M 375.661 70.549 L 375.661 71.126 L 394.955 67.481 C 394.032 63.039 390.05 59.908 385.519 60.06 C 379.775 60.06 375.661 64.23 375.661 70.549 Z" style=""/>
	<path class="cls-1" d="M 436.442 55.734 L 436.442 85.893 L 431.207 85.893 L 431.207 81.158 C 428.69 84.544 424.667 86.464 420.458 86.286 C 411.634 86.286 405.193 80.069 405.193 70.839 C 405.193 61.607 411.634 55.444 420.458 55.444 C 424.52 55.308 428.406 57.107 430.93 60.295 L 430.93 55.734 L 436.442 55.734 Z M 431.034 70.839 C 431.034 64.4 426.65 60.233 420.903 60.233 C 415.158 60.233 410.719 64.4 410.719 70.839 C 410.719 77.277 415.104 81.499 420.903 81.499 C 426.704 81.499 431.034 77.277 431.034 70.839 Z" style=""/>
	<path class="cls-1" d="M 463.015 55.444 L 463.015 60.69 C 462.579 60.663 462.142 60.663 461.706 60.69 C 455.842 60.69 452.19 64.283 452.19 70.892 L 452.19 85.944 L 446.73 85.944 L 446.73 55.785 L 451.966 55.785 L 451.966 60.86 C 453.97 57.228 457.724 55.444 463.015 55.444 Z" style=""/>
	<path class="cls-1" d="M 498.752 68.556 L 498.752 85.944 L 493.321 85.944 L 493.321 69.186 C 493.321 63.259 490.361 60.348 485.178 60.348 C 479.367 60.348 475.608 63.823 475.608 70.38 L 475.608 85.944 L 470.15 85.944 L 470.15 55.785 L 475.385 55.785 L 475.385 60.348 C 477.608 57.267 481.473 55.497 486.264 55.497 C 493.568 55.444 498.752 59.667 498.752 68.556 Z" style=""/>
	<rect class="cls-2" x="-32.762" y="16.737" width="97.891" height="98.054" style=""/>
	<polygon class="cls-3" points="-0.429 48.444 -1.921 32.616 -7.25 48.444 -12.473 48.444 -18.075 32.578 -19.226 48.444 -24.778 48.444 -22.29 24.671 -15.495 24.671 -9.553 41.021 -3.987 24.671 2.792 24.671 5.437 48.444 -0.429 48.444" style=""/>
	<path class="cls-3" d="M 17.479 48.967 C 12.266 49.197 7.981 44.891 8.226 39.67 C 8.156 34.387 12.482 30.102 17.755 30.23 C 20.087 30.089 22.381 30.879 24.129 32.432 L 21.889 35.894 C 20.908 35.234 19.76 34.862 18.579 34.818 C 15.947 34.738 13.812 36.932 13.956 39.567 C 13.956 42.385 15.346 44.377 18.253 44.377 C 19.653 44.301 21.01 43.847 22.178 43.069 L 24.352 46.634 C 22.378 48.188 19.924 49.004 17.414 48.941" style=""/>
	<polygon class="cls-3" points="-11.03 106.792 -11.03 96.854 -18.926 96.854 -18.926 106.792 -24.778 106.792 -24.778 83.021 -18.926 83.021 -18.926 92.107 -11.03 92.107 -11.03 83.021 -5.169 83.021 -5.169 106.792 -11.03 106.792" style=""/>
	<path class="cls-3" d="M -0.195 91.544 L 5.514 91.544 L 5.514 106.792 L -0.195 106.792 L -0.195 91.544 Z M 2.7 88.828 C 1.009 88.814 -0.353 87.427 -0.339 85.735 C -0.286 83.404 2.264 82 4.254 83.211 C 6.244 84.419 6.181 87.334 4.142 88.454 C 3.699 88.698 3.206 88.826 2.7 88.828" style=""/>
	<rect class="cls-3" x="10.373" y="83.021" width="5.432" height="23.772" style=""/>
	<rect class="cls-3" x="20.739" y="83.021" width="5.432" height="23.772" style=""/>
	<path class="cls-3" d="M -14.108 77.997 C -21.362 77.997 -26.532 73.291 -26.532 65.699 C -26.532 57.831 -21.087 53.005 -13.716 53.005 C -8.269 53.005 -5.861 55.261 -5.351 55.785 L -7.877 59.576 C -9.496 58.425 -11.442 57.821 -13.428 57.856 C -17.588 57.856 -20.615 60.677 -20.615 65.372 C -20.615 70.695 -17.237 73.147 -13.509 73.147 C -12.434 73.163 -11.366 73.022 -10.34 72.727 L -10.34 69.305 L -14.592 69.305 L -14.592 65.095 L -5.169 65.095 L -5.169 75.427 C -5.456 75.611 -8.206 78.05 -14.108 78.05" style=""/>
	<polygon class="cls-3" points="52.484 76.962 46.684 76.962 43.805 66.053 41.162 76.962 35.584 76.962 30.529 59.286 35.937 59.286 38.712 70.695 41.63 59.286 46.435 59.286 49.351 70.695 52.024 59.286 57.223 59.286 52.484 76.962" style=""/>
	<path class="cls-3" d="M 10.058 63.419 C 8.211 63.367 6.474 64.294 5.488 65.856 L 5.488 77.04 L -0.195 77.04 L -0.195 59.261 L 4.532 59.261 L 4.532 61.621 C 5.988 59.833 8.148 58.774 10.451 58.724 L 10.829 58.724 L 11.17 58.724 L 10.058 63.419 Z" style=""/>
	<path class="cls-3" d="M 22.951 68.806 C 21.643 68.806 19.024 68.728 18.056 69.764 C 16.893 70.941 17.444 72.936 19.044 73.353 C 19.244 73.409 19.457 73.428 19.665 73.42 C 20.838 73.431 21.982 73.085 22.951 72.425 L 22.951 68.806 Z M 23.488 77.119 L 23.488 75.584 C 22.099 76.791 20.328 77.465 18.489 77.486 C 15.198 77.695 12.483 74.945 12.727 71.652 C 12.727 66.067 20.581 65.581 22.493 65.581 L 22.884 65.581 C 22.884 65.018 23.029 63.941 22.453 63.481 C 21.845 63.036 21.097 62.83 20.346 62.905 C 19.094 62.926 17.856 63.158 16.679 63.589 L 15.856 63.915 L 14.102 60.439 C 14.323 60.31 14.625 60.139 15.006 59.955 C 16.775 59.165 18.694 58.764 20.635 58.788 C 22.88 58.616 25.099 59.362 26.786 60.86 C 28.329 62.407 28.214 64.477 28.214 66.669 L 28.214 77.067 L 23.488 77.119 Z" style=""/>
</svg>