<svg xmlns="http://www.w3.org/2000/svg" viewBox="0 0 140 22">
    <g>
        <defs>
            <rect id="SVGID_1_" y="0.6" width="140" height="20.8" />
        </defs>
        <clipPath id="clipping">
            <use xlink:href="#SVGID_1_" style="overflow:visible;" xmlns:xlink="http://www.w3.org/1999/xlink" />
        </clipPath>
        <g style="clip-path:url(#clipping);">
            <path d="M20.5,10c-0.2-3.5-1.3-6-2.9-7.4c-1.7-1.5-4.9-2.1-7.3-2.1c-2.5,0-5.6,0.6-7.3,2.1C1.4,4,0.2,6.6,0,10 c-0.2,3.2,0.5,6.8,2.3,8.8c1.7,2,5.2,2.6,7.9,2.6h0c2.7,0,6.2-0.6,7.9-2.6C20,16.8,20.7,13.3,20.5,10L20.5,10z M9.7,1.5 c0.3,0,0.4,0,0.6,0c0.2,0,0.2,0,0.6,0l0,7.6H9.7L9.7,1.5z M1.4,13.2c-0.1-1.3-0.5-6,1.4-8.7c0.8-1.2,1.9-2,3.1-2.4 c1.6-0.6,3.6-0.6,3.6-0.6c-0.8,1.9-2.3,6-2.6,6.9c-0.4,1.1-0.7,1.7-1,3.7c-0.2,1.6-0.6,5.7-0.6,7.5C3,18.5,1.7,16.5,1.4,13.2 L1.4,13.2z M15.2,19.7c-1.5,0.7-3.4,0.8-4.9,0.8c-1.5,0-3.4-0.2-4.9-0.8h0c0.5-1.4,2.9-7.2,4.2-9.5H11 C12.3,12.5,14.7,18.4,15.2,19.7L15.2,19.7z M19.2,13.2c-0.3,3.3-1.6,5.3-3.8,6.4c-0.1-1.8-0.4-5.9-0.6-7.5c-0.3-2-0.6-2.6-1-3.7 c-0.3-0.9-1.9-5-2.6-6.9c0,0,1.9,0,3.6,0.6c1.2,0.4,2.3,1.2,3.1,2.4C19.6,7.2,19.3,11.9,19.2,13.2L19.2,13.2z" />
            <path d="M33.1,2.2h4.6l10.3,17.5h-4.9L35.4,6.5l-4.1,7H38l2,3.3H29.3l-1.7,3h-4.8L33.1,2.2z" />
            <path d="M97,19.7h-4.2V2.2h15.7c5.5,0,6.9,7.4,3,10c1.7,0.6,1.9,2.8,2,3.5l0.1,4.1h-4.1l-0.1-3.6 c-0.1-1.5-1.1-2.6-2.6-2.6h-8L98,9.9h9.2c1.4,0,2.3-0.7,2.3-2c0-1.3-0.8-2-2.3-2H97L97,19.7" />
            <path d="M79.9,19.8h3.8c4.5,0,6.3-2.5,6.3-6.7V2.2h-4.2v11.6c0,2.2-1.5,2.5-2.9,2.5h-6.1c-1.4,0-2.9-0.3-2.9-2.5V2.2 h-4.2v10.8c0,4.1,1.8,6.7,6.3,6.7L79.9,19.8" />
            <path d="M52,11V8.8c0-1.5,0.3-3,2.4-3h12.9V2.3H54.4c-4,0-6.5,1.8-6.6,6.4v4.6c0,4.6,2.5,6.4,6.6,6.4h12.9v-3.6H54.4 c-2,0-2.3-1.5-2.4-3V11" />
            <path d="M125,2.2h4.7L140,19.7h-4.9l-7.8-13.2l-4.1,7h6.7l2,3.3h-10.6l-1.7,3h-4.8L125,2.2z" />
        </g>
    </g>
</svg>