<?xml version="1.0" ?>
<svg xmlns="http://www.w3.org/2000/svg" version="1.2" viewBox="0 0 1127 1424">
	<style>
		.s0 { fill: #c33b32 } 
	</style>
	<g id="Clip-Path: Page 1">
		<g id="Page 1">
			<path id="Path 4" fill-rule="evenodd" class="s0" d="m296.1 491.9c0 0 228.3-507.7 345.4-490.9 117.3 22.1 206.5 468.4 206.5 468.4 0 11.4 11.1 5.7 11.1 5.7q100.2-33.5 250.8-67 16.8 0 16.8 16.7 0 5.7-5.7 11.4c-100.3 61.4-178.4 111.3-245.2 150.6 0 0-5.7 5.7-5.7 16.7q22.5 156.3 33.6 373.9v49.9c0 11.4-11.1 11.4-11.1 11.4h-61.4c0 0-11.4 0-11.4-11.4v-16.7c-5.3-117-27.8-368.2-27.8-368.2 0-5.3-5.4-5.3-5.4-5.3-156.2 83.4-189.7 78.1-189.7 78.1-38.9 0-66.8-28.2-66.8-61.4 0-22.4 11.1-39.2 27.9-50.3 11-11 67-44.6 206.2-94.9 5.7 0 5.7-5.7 5.7-11-5.7-16.8-55.7-312.5-122.7-323.6-66.8-5.7-234.1 340.3-234.1 340.3-89.2 184.1-211.9 463.1-379.2 898 0 5.7-5.4 11.4-16.8 11.4-5.4 0-16.4-11.4-16.4-22.5 83.5-384.9 194.8-686 295.4-909.3z"/>
		</g>
	</g>
</svg>