<svg xmlns="http://www.w3.org/2000/svg" id="Layer_1" data-name="Layer 1" viewBox="0 0 289.06 266.28"><defs><style>.cls-1{fill:#001aff}</style></defs><path d="M149.17 103.63a12.89 12.89 0 0 0-5.84-1.4H93.78a15.22 15.22 0 0 0-13.62 8.35L7.4 253.56a12.89 12.89 0 0 0 11.48 18.72h49.55a15.22 15.22 0 0 0 13.62-8.35l72.76-143a12.87 12.87 0 0 0-5.64-17.32Z" class="cls-1" transform="translate(-5.99 -6)"/><path d="M154.81 121 82.05 264a15.22 15.22 0 0 1-13.62 8.35H18.88A12.87 12.87 0 0 1 7.4 253.56l72.76-143a15.22 15.22 0 0 1 13.62-8.35h49.55A12.88 12.88 0 0 1 154.81 121Z" class="cls-1" transform="translate(-5.99 -6)"/><path d="M287.06 165.82 211.28 17.36A20.75 20.75 0 0 0 192.72 6h-48a11.93 11.93 0 0 0-10.62 17.32l40.08 78.91 41.08 80.87a12.78 12.78 0 0 1-11.4 18.57h-58.57a14 14 0 0 0-14 14 13.72 13.72 0 0 0 1.26 5.79l19.35 42.58a14.06 14.06 0 0 0 12.77 8.22h57.21a73.2 73.2 0 0 0 65.2-106.46Z" class="cls-1" transform="translate(-5.99 -6)"/></svg>