<?xml version="1.0" ?>
<svg xmlns="http://www.w3.org/2000/svg" viewBox="0 0 1586 1566">
	<style>
		.s0 { fill: #5000e2 } 
	</style>
	<path id="Layer" fill-rule="evenodd" class="s0" d="m1585.3 34.6v1503.5h-333.7v-128.6c-237.2 177.7-554.5 206-818.9 73.5-265-132.4-432.3-403.4-432.3-699.9 0-296 167.3-567 432.3-700 264.4-132.4 581.7-104.1 818.9 73.6v-128.6zm-619.9 1176.4c56.7-23.5 107.4-57.8 150.5-100.9 43.1-43 77.4-94.3 100.8-151 23.5-56.1 35.5-116.6 35.5-177.7 0-188.1-113.4-358.1-287.3-430.1-174-72-374-31.6-507.1 101.4-132.5 133-172.3 333.6-100.3 507.5 72.5 173.4 242.1 286.8 430.2 286.2 61 0 121.6-12 177.7-35.4z"/>
</svg>