<?xml version="1.0" ?>
<svg xmlns="http://www.w3.org/2000/svg" version="1.2" viewBox="0 0 1528 1540">
	<defs>
		<clipPath clipPathUnits="userSpaceOnUse" id="cp1">
			<path d="m-10381.33-741.97h15574.42v22041.75h-15574.42z"/>
		</clipPath>
		<clipPath clipPathUnits="userSpaceOnUse" id="cp2">
			<path d="m-10381.33-741.97h15574.42v22041.75h-15574.42z"/>
		</clipPath>
		<clipPath clipPathUnits="userSpaceOnUse" id="cp3">
			<path d="m-10381.33-741.97h15574.42v22041.75h-15574.42z"/>
		</clipPath>
		<clipPath clipPathUnits="userSpaceOnUse" id="cp4">
			<path d="m-10381.33-741.97h15574.42v22041.75h-15574.42z"/>
		</clipPath>
		<clipPath clipPathUnits="userSpaceOnUse" id="cp5">
			<path d="m-10381.33-741.97h15574.42v22041.75h-15574.42z"/>
		</clipPath>
		<clipPath clipPathUnits="userSpaceOnUse" id="cp6">
			<path d="m-10381.33-741.97h15574.42v22041.75h-15574.42z"/>
		</clipPath>
		<clipPath clipPathUnits="userSpaceOnUse" id="cp7">
			<path d="m-10381.33-741.97h15574.42v22041.75h-15574.42z"/>
		</clipPath>
		<clipPath clipPathUnits="userSpaceOnUse" id="cp8">
			<path d="m-10381.33-741.97h15574.42v22041.75h-15574.42z"/>
		</clipPath>
		<clipPath clipPathUnits="userSpaceOnUse" id="cp9">
			<path d="m-10381.33-741.97h15574.42v22041.75h-15574.42z"/>
		</clipPath>
		<clipPath clipPathUnits="userSpaceOnUse" id="cp10">
			<path d="m-10381.33-741.97h15574.42v22041.75h-15574.42z"/>
		</clipPath>
		<clipPath clipPathUnits="userSpaceOnUse" id="cp11">
			<path d="m-10381.33-741.97h15574.42v22041.75h-15574.42z"/>
		</clipPath>
		<clipPath clipPathUnits="userSpaceOnUse" id="cp12">
			<path d="m-10381.33-741.97h15574.42v22041.75h-15574.42z"/>
		</clipPath>
		<clipPath clipPathUnits="userSpaceOnUse" id="cp13">
			<path d="m-10381.33-741.97h15574.42v22041.75h-15574.42z"/>
		</clipPath>
		<clipPath clipPathUnits="userSpaceOnUse" id="cp14">
			<path d="m-10381.33-741.97h15574.42v22041.75h-15574.42z"/>
		</clipPath>
		<clipPath clipPathUnits="userSpaceOnUse" id="cp15">
			<path d="m-10381.33-741.97h15574.42v22041.75h-15574.42z"/>
		</clipPath>
		<clipPath clipPathUnits="userSpaceOnUse" id="cp16">
			<path d="m-10381.33-741.97h15574.42v22041.75h-15574.42z"/>
		</clipPath>
	</defs>
	<style>
		.s0 { fill: #5bc9e1 } 
		.s1 { fill: #1c89af } 
		.s2 { fill: #227397 } 
		.s3 { fill: #00aad3 } 
	</style>
	<g id="g1">
		<path id="path1601" class="s0" d="m670.1 169.1h98.1v353.5z"/>
		<path id="path1602" class="s1" d="m866.3 171.1l-98.1-2v353.5z"/>
		<g id="Clip-Path: Clip-Path: path1603" clip-path="url(#cp1)">
			<g id="Clip-Path: path1603">
				<path id="path1603" class="s2" d="m960.5 222.2l-192.3-221.9v188.5c66.7 0 131.5 11.8 192.3 33.4z"/>
			</g>
		</g>
		<g id="Clip-Path: Clip-Path: path1605" clip-path="url(#cp2)">
			<g id="Clip-Path: path1605">
				<path id="path1605" class="s3" d="m766.2 188.8q2 0 2 0v-188.5l-190.3 219.9c58.8-19.6 121.6-31.4 188.3-31.4z"/>
			</g>
		</g>
		<path id="path1607" class="s0" d="m1119.4 277.1l68.7 68.8-247.2 249.3z"/>
		<path id="path1608" class="s1" d="m1256.8 416.6l-68.7-70.7-247.2 249.3z"/>
		<g id="Clip-Path: Clip-Path: path1609" clip-path="url(#cp3)">
			<g id="Clip-Path: path1609">
				<path id="path1609" class="s2" d="m1288.2 520.6l17.7-294.5-131.5 133.5c49 49.1 86.3 104.1 113.8 161z"/>
			</g>
		</g>
		<g id="Clip-Path: Clip-Path: path1611" clip-path="url(#cp4)">
			<g id="Clip-Path: path1611">
				<path id="path1611" class="s3" d="m1174.4 357.6q0 2 0 2l131.5-133.5-288.5 19.6c56.9 27.5 109.9 64.8 157 111.9z"/>
			</g>
		</g>
		<path id="path1613" class="s0" d="m1358.8 673.8v98.2h-347.3z"/>
		<path id="path1614" class="s1" d="m1358.8 872.1v-100.1h-347.3z"/>
		<g id="Clip-Path: Clip-Path: path1615" clip-path="url(#cp5)">
			<g id="Clip-Path: path1615">
				<path id="path1615" class="s2" d="m1307.8 966.4l219.8-194.4h-186.4c0 68.7-11.8 133.5-33.4 194.4z"/>
			</g>
		</g>
		<g id="Clip-Path: Clip-Path: path1617" clip-path="url(#cp6)">
			<g id="Clip-Path: path1617">
				<path id="path1617" class="s3" d="m1341.2 770q0 2 0 2h186.4l-217.8-194.4c19.6 60.8 31.4 125.6 31.4 192.4z"/>
			</g>
		</g>
		<path id="path1619" class="s0" d="m1256.8 1121.5l-68.7 70.7-247.2-249.4z"/>
		<path id="path1620" class="s1" d="m1119.4 1262.9l68.7-70.7-247.2-249.4z"/>
		<g id="Clip-Path: Clip-Path: path1621" clip-path="url(#cp7)">
			<g id="Clip-Path: path1621">
				<path id="path1621" class="s2" d="m1015.4 1294.3l290.5 17.7-131.5-131.6c-47.1 47.1-102 86.4-159 113.9z"/>
			</g>
		</g>
		<g id="Clip-Path: Clip-Path: path1623" clip-path="url(#cp8)">
			<g id="Clip-Path: path1623">
				<path id="path1623" class="s3" d="m1176.4 1178.4q0 0-2 2l131.5 131.6-17.7-292.6c-27.5 56.9-64.8 111.9-111.8 159z"/>
			</g>
		</g>
		<path id="path1625" class="s0" d="m866.3 1368.9h-98.1v-353.5z"/>
		<path id="path1626" class="s1" d="m670.1 1368.9h98.1v-353.5z"/>
		<g id="Clip-Path: Clip-Path: path1627" clip-path="url(#cp9)">
			<g id="Clip-Path: path1627">
				<path id="path1627" class="s2" d="m573.9 1315.9l194.3 223.8v-188.5c-68.7 0-133.4-13.7-194.3-35.3z"/>
			</g>
		</g>
		<g id="Clip-Path: Clip-Path: path1629" clip-path="url(#cp10)">
			<g id="Clip-Path: path1629">
				<path id="path1629" class="s3" d="m768.2 1351.2v188.5l190.3-221.9c-58.8 21.6-123.6 33.4-190.3 33.4z"/>
			</g>
		</g>
		<path id="path1631" class="s0" d="m417 1262.9l-70.7-70.7 247.3-249.4z"/>
		<path id="path1632" class="s1" d="m277.6 1123.4l68.7 68.8 247.3-249.4z"/>
		<g id="Clip-Path: Clip-Path: path1633" clip-path="url(#cp11)">
			<g id="Clip-Path: path1633">
				<path id="path1633" class="s2" d="m248.2 1017.4l-19.6 296.5 131.5-133.5c-47.1-49.1-84.4-104.1-111.9-163z"/>
			</g>
		</g>
		<g id="Clip-Path: Clip-Path: path1635" clip-path="url(#cp12)">
			<g id="Clip-Path: path1635">
				<path id="path1635" class="s3" d="m362 1180.4q-1.9 0-1.9 0l-131.5 133.5 288.4-19.6c-54.9-27.5-109.9-66.8-155-113.9z"/>
			</g>
		</g>
		<path id="path1637" class="s0" d="m169.7 870.1v-98.1h347.3z"/>
		<path id="path1638" class="s1" d="m169.7 671.8v100.2h347.3z"/>
		<g id="Clip-Path: Clip-Path: path1639" clip-path="url(#cp13)">
			<g id="Clip-Path: path1639">
				<path id="path1639" class="s2" d="m220.7 577.6l-219.7 194.4h186.4c0-68.8 11.8-133.6 33.3-194.4z"/>
			</g>
		</g>
		<g id="Clip-Path: Clip-Path: path1641" clip-path="url(#cp14)">
			<g id="Clip-Path: path1641">
				<path id="path1641" class="s3" d="m187.4 773.9v-1.9h-186.4l217.8 194.4c-19.6-60.9-31.4-125.7-31.4-192.5z"/>
			</g>
		</g>
		<path id="path1643" class="s0" d="m277.6 416.6l68.7-70.7 247.3 249.3z"/>
		<path id="path1644" class="s1" d="m417 277.1l-70.7 68.8 247.3 249.3z"/>
		<g id="Clip-Path: Clip-Path: path1645" clip-path="url(#cp15)">
			<g id="Clip-Path: path1645">
				<path id="path1645" class="s2" d="m519 245.7l-290.4-19.6 131.5 133.5c47-49.1 102-86.4 158.9-113.9z"/>
			</g>
		</g>
		<g id="Clip-Path: Clip-Path: path1647" clip-path="url(#cp16)">
			<g id="Clip-Path: path1647">
				<path id="path1647" class="s3" d="m358.1 359.6q2 0 2 0l-131.5-133.5 19.6 292.6c25.5-57 62.8-110 109.9-159.1z"/>
			</g>
		</g>
	</g>
</svg>