<?xml version="1.0" ?>
<svg xmlns="http://www.w3.org/2000/svg" viewBox="0 0 155.79 101.03">
	<defs>
		<style>.cls-1{fill:#ff4500;}</style>
	</defs>
	<title>Adplorer_HomePage_8_Icon_Adplorer</title>
	<g id="Layer_2">
		<g id="_1">
			<path class="cls-1" d="M153.53,2.27A7.35,7.35,0,0,0,148.18,0H148a7.34,7.34,0,0,0-5.36,2.27,7.37,7.37,0,0,0-2.26,5.36V32.19q-6.65-5.88-19-6.27h-.16l-1.69,0a37.79,37.79,0,0,0-7.22.67l-.72.14-.41.09a33.53,33.53,0,0,0-5.1,1.58l-.82.34-.57.25a36.33,36.33,0,0,0-10.8,7.57A35.7,35.7,0,0,0,84.71,51.6l0-.07a36.31,36.31,0,0,0,4.2,30.3l1.07,1.37s3.07,3.74,3.94,4.61a37.92,37.92,0,0,0,7.84,6.06l.36.2a34.39,34.39,0,0,0,13.59,4.2l.92.08.79.05,1.06,0h1.08A34.86,34.86,0,0,0,145.1,87.87,34.84,34.84,0,0,0,155.79,62.3V7.63A7.33,7.33,0,0,0,153.53,2.27ZM134.32,77.1a21.07,21.07,0,0,1-29.55,0A22.27,22.27,0,0,1,102.93,75l-.23-.3a20.09,20.09,0,0,1-4-12.42,20.88,20.88,0,0,1,35.65-14.74,20.18,20.18,0,0,1,6.05,14.74A20.29,20.29,0,0,1,134.32,77.1Z"/>
			<path class="cls-1" d="M72.71,93.4V62A34.76,34.76,0,0,0,62,36.47,34.83,34.83,0,0,0,36.44,25.89H35.36l-1.07,0-.78,0-.93.08A34.49,34.49,0,0,0,19,30.27l-.35.2a37.66,37.66,0,0,0-7.84,6.06c-.87.87-4,4.62-4,4.62L5.79,42.51a36.39,36.39,0,0,0-4.21,30.3l.06-.07A35.5,35.5,0,0,0,10.8,87.81a36.33,36.33,0,0,0,10.8,7.57l.57.25L23,96a34.24,34.24,0,0,0,5.1,1.58l.41.09.73.15a38.55,38.55,0,0,0,7.22.66c.57,0,1.14,0,1.69,0h.16q12.38-.41,19-6.27V93.4A7.74,7.74,0,0,0,64.92,101h.18a7.7,7.7,0,0,0,7.61-7.63ZM57.29,62a20.15,20.15,0,0,1-6,14.74,20.16,20.16,0,0,1-14.8,6.12A20.11,20.11,0,0,1,21.7,76.78,20.08,20.08,0,0,1,15.59,62a20.12,20.12,0,0,1,4-12.42c.07-.1.15-.19.23-.29a18.89,18.89,0,0,1,1.84-2.08,20,20,0,0,1,14.74-6.06A20.68,20.68,0,0,1,57.29,62Z"/>
		</g>
	</g>
</svg>