<svg viewBox="0 0 140 34" fill="none" xmlns="http://www.w3.org/2000/svg">
<g clip-path="url(#clip0)">
<path d="M134.948 5.68003C133.598 5.68003 132.527 4.58591 132.527 3.25901C132.527 1.93211 133.598 0.837993 134.948 0.837993C136.275 0.837993 137.346 1.90883 137.346 3.25901C137.37 4.58591 136.275 5.68003 134.948 5.68003ZM134.948 0.279297C133.296 0.279297 131.969 1.6062 131.969 3.25901C131.969 4.91182 133.296 6.23872 134.948 6.23872C136.601 6.23872 137.905 4.91182 137.905 3.25901C137.928 1.6062 136.601 0.279297 134.948 0.279297ZM134.576 3.53836H134.786C135.391 3.53836 135.321 3.88754 135.321 4.30657C135.321 4.53936 135.321 4.77215 135.414 4.98166H136.182C136.112 4.84198 136.089 4.19017 136.089 3.95738C136.089 3.32885 135.577 3.30557 135.414 3.28229V3.25901C135.926 3.18917 136.112 2.83999 136.112 2.42097C136.112 1.83899 135.763 1.51308 135.228 1.51308H133.785V4.98166H134.576V3.53836ZM134.576 2.09506H134.925C135.181 2.09506 135.344 2.21146 135.344 2.56064C135.344 2.79343 135.251 3.07278 134.925 3.07278H134.576V2.09506Z" fill="#015F73"/>
<path d="M14.7822 5.88959L20.7416 20.9278L7.63551 20.9046L14.7822 5.88959ZM38.4802 15.1779L43.974 15.1546C45.5803 15.2012 48.1643 17.5757 48.2341 21.3236C48.4902 24.6525 45.9993 26.9105 44.2068 26.864H38.5035V15.1779H38.4802ZM102.078 14.0838L105.407 22.4177H98.4004L102.078 14.0838ZM74.1436 15.0848H83.688C87.5523 15.2245 87.7153 21.2072 83.7811 21.2072H74.1436V15.0848ZM37.8982 9.03226H31.8224V29.7971H31.6129L19.1353 0H15.5038L0 33.4054H2.00199L5.02827 27.3063H23.3488L25.9794 33.4054H45.5105C50.1663 33.3356 55.1945 27.3296 55.1945 21.1373C55.1945 16.1324 51.4233 8.96242 45.5337 9.05554H37.8749L37.8982 9.03226ZM81.4765 26.8174C87.1566 28.447 86.6677 33.4054 86.6677 33.4054H93.4885L95.9095 28.3073H108.154L110.505 33.3821H123.099V14.9451H129.548C131.759 14.9451 133.971 17.1334 133.575 21.4633V33.5218H140.023V20.3691C140.023 12.6638 135.81 8.61324 130.362 8.56668H116.465V30.0532L106.781 8.70635H102.358L92.9996 29.1686C92.9996 26.3984 89.4845 24.4895 89.4845 24.4895C92.6039 24.5826 96.282 9.82374 85.2477 8.68307H67.5324V26.445H65.6468C64.4363 26.282 63.0628 23.7912 63.0395 22.3246V6.19222H129.618V0H21.4167L24.5594 6.19222H56.405V23.698C56.405 28.6565 61.8989 33.2657 67.2531 33.3821H74.1902V26.7941H81.4765V26.8174Z" fill="#015F73"/>
</g>
<defs>
<clipPath id="clip0">
<rect width="140" height="33.5218" fill="white"/>
</clipPath>
</defs>
</svg>