<?xml version="1.0" ?>
<svg xmlns="http://www.w3.org/2000/svg" data-name="Layer 1" viewBox="0 0 378.98 77.65">
	<path d="M79.9,41.06q0-12.18,14.57-12.18a51.33,51.33,0,0,1,9.36.75V24.7q0-6.45-9.67-6.45a36.53,36.53,0,0,0-11.35,1.89V14.48a36.53,36.53,0,0,1,11.35-1.89q16,0,16,12.68V53.4h-3.22l-2.52-2.79a21.06,21.06,0,0,1-11,2.79Q79.9,53.41,79.9,41.06Zm14.57-6.52q-8.25,0-8.25,6.42,0,6.8,7.18,6.79,6.57,0,10.43-3.1V35.29A48.86,48.86,0,0,0,94.47,34.54Z"/>
	<path d="M145.71,51.06a47.09,47.09,0,0,1-15.93,2.35q-15.87,0-15.87-20.4,0-18.82,16.85-18.82a20.87,20.87,0,0,1,8.7,1.87V0h6.25Zm-6.25-28.88a18.24,18.24,0,0,0-8.67-2q-10.72,0-10.73,12.59,0,14.9,10.73,14.9a24,24,0,0,0,8.66-1.46v-24Z"/>
	<path d="M194.12,14.19a35.08,35.08,0,0,0-8.94,1.22l-2.29,6.21v0a36.13,36.13,0,0,1,11.23-1.86q9.58,0,9.58,6.38v3.7a50.36,50.36,0,0,0-9.27-.75Q180,29.13,180,41.19q0,12.23,13.37,12.22a20.86,20.86,0,0,0,10.9-2.77l2.49,2.77H210V26.74Q210,14.19,194.12,14.19Zm9.58,30.55q-3.82,3.06-10.32,3.07-7.11,0-7.11-6.73,0-6.34,8.16-6.35a48,48,0,0,1,9.27.75v9.26Z"/>
	<path d="M215.4,53.41V14.19h4.22l1.12,5q6.47-5,13-5Q246,14.19,246,28.8V53.41h-6.26V28.68q0-8.73-7.89-8.74-5.37,0-10.21,5v28.5Z"/>
	<path d="M263.94,47.81H262q-4.29,0-4.29-5.49V19.8H265V14.19h-8.27l-1.35-6.35h-3.92v35q0,10.57,8.93,10.57h8A10.41,10.41,0,0,1,263.94,47.81Z"/>
	<path d="M268.44,41.19q0-12.06,14.41-12.06a50.36,50.36,0,0,1,9.27.75v-3.7q0-6.39-9.57-6.38a36.12,36.12,0,0,0-11.24,1.87V16.06a36.41,36.41,0,0,1,11.24-1.87q15.82,0,15.83,12.55V53.41H295.2l-2.51-2.77a20.77,20.77,0,0,1-10.89,2.77Q268.43,53.41,268.44,41.19Zm14.41-6.46q-8.16,0-8.15,6.35,0,6.72,7.1,6.73,6.49,0,10.32-3.07V35.47A48.9,48.9,0,0,0,282.85,34.73Z"/>
	<path d="M333.83,55.67q0,14.19-16.34,14.19A33.68,33.68,0,0,1,305.85,68v-5.6a34.4,34.4,0,0,0,11.7,1.87q10,0,10-8.6V51.54a20.12,20.12,0,0,1-8.6,1.87q-16.85,0-16.85-19.83,0-19.39,17.77-19.39a60,60,0,0,1,13.94,1.61V55.67Zm-6.26-34.83a30,30,0,0,0-7.95-.9q-11.34,0-11.34,13.56,0,13.94,10.73,13.93a17.5,17.5,0,0,0,8.56-2V20.84Z"/>
	<path d="M367.76,35.78H343.84q0,12,13.73,12A40.87,40.87,0,0,0,367,46.69v5.6a50.56,50.56,0,0,1-11.44,1.12q-18,0-18-20.06,0-19.16,17-19.16Q370.91,14.19,367.76,35.78ZM343.84,30H362q.48-10.3-8.46-10.31Q344.45,19.72,343.84,30Z"/>
	<path d="M148.21,14.19H155l10.19,30.74,10.11-30.74h6.77L167.6,53.41h-5.82Z"/>
	<path d="M350.65,77.07a19,19,0,0,1-4.76.56q-9.69,0-9.69-10.22,0-9.48,9.69-9.48a19.48,19.48,0,0,1,4.76.56v2.82a18.09,18.09,0,0,0-4.42-.56q-6.89,0-6.88,6.66,0,7.41,6.88,7.41a17.64,17.64,0,0,0,4.42-.57Z" fill="#6d6e71"/>
	<path d="M354.47,76.7v-3a17.4,17.4,0,0,0,6.19,1.13c2.85,0,4.26-.94,4.26-2.82s-.93-2.62-2.8-2.62h-2.89q-5.61,0-5.61-5.82,0-5.62,7.43-5.63a20.55,20.55,0,0,1,6.17.94v3a17.08,17.08,0,0,0-6.17-1.13q-4.46,0-4.45,2.81a2.32,2.32,0,0,0,2.63,2.63h2.89q6,0,5.95,5.82,0,5.63-7.41,5.63A21,21,0,0,1,354.47,76.7Z" fill="#6d6e71"/>
	<path d="M46.83,77.63l-.59-.09c-2.57-.4-5.25-.86-8-1.39C19.22,72.4,3.31,66.56.44,62.26A2.07,2.07,0,0,1,0,60.72c.4-2,4.94-3.08,12.45-3.08a158.07,158.07,0,0,1,28.88,3.29l1.66.34.06.37a71.18,71.18,0,0,0,3.74,14.55s-.15-.43,0,.09S47.65,77.79,46.83,77.63Z" fill="#b11116"/>
	<path d="M68.94,66.93c-.16.23-.83-.1-.83-.1A137.48,137.48,0,0,0,39.6,58.25a143.37,143.37,0,0,0-26.9-2.92c-3.41,0-8.84.51-9,.57a2.12,2.12,0,0,1-.93.13c-.18-.29.44-1,.44-1,.27-.34,27.24-34.61,65.54-51.49,0,0,.59-.35.79-.12s-.08.77-.08.77C62.72,23,62.9,38.78,64.24,48.77c1.45,10.82,4.53,17.29,4.56,17.35S69.11,66.69,68.94,66.93Z" fill="#b11116"/>
	<path d="M379,18.58a4.45,4.45,0,1,1-4.44-4.32A4.35,4.35,0,0,1,379,18.58Zm-7.79,0A3.36,3.36,0,0,0,374.57,22a3.31,3.31,0,0,0,3.3-3.43,3.34,3.34,0,1,0-6.68,0Zm2.67,2.27h-1V16.52a8.59,8.59,0,0,1,1.66-.13,2.63,2.63,0,0,1,1.5.32,1.19,1.19,0,0,1,.42.95,1.11,1.11,0,0,1-.89,1v.05a1.29,1.29,0,0,1,.79,1.06,3.47,3.47,0,0,0,.31,1.08h-1.08a3.71,3.71,0,0,1-.34-1.05c-.08-.48-.35-.69-.9-.69h-.48v1.74Zm0-2.45h.48c.56,0,1-.19,1-.63s-.29-.66-.92-.66a2.29,2.29,0,0,0-.56.05Z"/>
</svg>