<?xml version="1.0" ?>
<svg xmlns="http://www.w3.org/2000/svg" xmlns:xlink="http://www.w3.org/1999/xlink" viewBox="0 0 2332 524">
	<!-- Generator: Sketch 46.2 (44496) - http://www.bohemiancoding.com/sketch -->
	<desc>Created with Sketch.</desc>
	<defs>
		<linearGradient x1="95.2057352%" y1="6.58631132%" x2="15.8218724%" y2="81.9366702%" id="linearGradient-1">
			<stop stop-color="#01C1D2" offset="0%"/>
			<stop stop-color="#009EB5" offset="22.4874364%"/>
			<stop stop-color="#007BB7" offset="58.4178375%"/>
			<stop stop-color="#384D78" offset="86.791684%"/>
			<stop stop-color="#483B6B" offset="100%"/>
		</linearGradient>
		<path d="M 11.32087,46.85682 C 65.72249,15.61894 134.73231,0.0 218.35034,0.0 C 301.96837,0.0 370.9782,15.61894 425.37981,46.856824 L 425.37981,46.856828 C 432.63368,51.02205 436.89793,58.94056 436.38308,67.28938 L 425.1796,248.96739 L 425.1796,248.96739 C 420.5768,323.60738 380.84879,391.64174 318.10595,432.33142 L 230.32081,489.26139 L 230.32081,489.26139 C 223.0391,493.98369 213.66159,493.98369 206.37987,489.26139 L 118.59474,432.33142 L 118.59474,432.33142 C 55.85189,391.64174 16.12388,323.60738 11.52108,248.96739 L 0.3176,67.28937 L 0.3176,67.28937 C -0.19724,58.94056 4.06701,51.02205 11.32087,46.85682" id="path-2"/>
	</defs>
	<g id="Main_remake" stroke="none" stroke-width="1" fill="none" fill-rule="evenodd">
		<g id="Logo-Copy" transform="translate(-411.000000, -1290.000000)">
			<g id="Group" transform="translate(427.000000, 1301.000000)">
				<path d="M 820.93002,453.2 L 787.83102,374.66 L 636.92201,374.66 L 603.82301,453.2 L 524.72201,453.2 L 686.85101,71.15899 L 741.82902,71.15899 L 899.47002,453.2 L 820.93002,453.2 M 659.92301,315.194 L 766.51302,315.194 L 713.77901,180.55399 L 659.92301,315.194 M 1143.86535,79.01299 L 936.29534,79.01299 L 936.29534,453.2 L 1143.86535,453.2 L 1143.86535,390.368 L 1009.22534,390.368 L 1009.22534,288.266 L 1138.25535,288.266 L 1138.25535,225.434 L 1009.22534,225.434 L 1009.22534,141.84499 L 1143.86535,141.84499 L 1143.86535,79.01299 M 1207.61867,79.01299 L 1315.89167,79.01299 C 1367.50367,79.01299 1393.87067,92.47699 1411.26167,107.06299 C 1439.87267,131.18599 1448.28767,163.16299 1448.28767,191.213 C 1448.28767,227.678 1433.70167,259.655 1404.52967,279.29 C 1394.99267,286.022 1381.52867,292.193 1363.57667,295.559 L 1480.26468,453.2 L 1389.38267,453.2 L 1289.52467,302.852 L 1280.54867,302.852 L 1280.54867,453.2 L 1207.61867,453.2 L 1207.61867,79.01299 M 1280.54867,138.47899 L 1280.54867,251.24 L 1301.30567,251.24 C 1315.33067,251.24 1373.11367,249.557 1373.11367,194.57899 C 1373.11367,139.03999 1315.89167,138.47899 1302.42767,138.47899 L 1280.54867,138.47899 M 1704.464,70.59799 C 1822.274,70.59799 1904.18001,152.50399 1904.18001,266.387 C 1904.18001,380.27 1822.274,461.615 1704.464,461.615 C 1586.654,461.615 1504.748,380.27 1504.748,266.387 C 1504.748,152.50399 1586.654,70.59799 1704.464,70.59799 M 1704.464,395.417 C 1777.394,395.417 1829.006,342.122 1829.006,266.387 C 1829.006,190.65199 1777.394,136.79599 1704.464,136.79599 C 1631.534,136.79599 1579.922,190.65199 1579.922,266.387 C 1579.922,342.122 1631.534,395.417 1704.464,395.417 M 2037.49733,453.2 L 2037.49733,200.189 L 2265.26334,460.493 L 2315.75334,460.493 L 2315.75334,79.01299 L 2242.82333,79.01299 L 2242.82333,330.902 L 2015.05733,70.59799 L 1964.56733,70.59799 L 1964.56733,453.2 L 2037.49733,453.2" id="AERON" fill="#0b3757"/>
				<g id="logo">
					<g id="Oval" transform="translate(0.000000, 4.500000)">
						<mask id="mask-3" fill="white">
							<use xlink:href="#path-2"/>
						</mask>
						<g id="Mask">
							<use fill="url(#linearGradient-1)" fill-rule="evenodd" xlink:href="#path-2"/>
							<path stroke="#FFFFFF" stroke-width="15.4000003" d="M 7.48661,40.17936 C 63.1536,8.2149 133.47105,-7.7 218.35034,-7.7 C 303.22963,-7.7 373.54709,8.2149 429.21407,40.17936 C 439.00678,45.80242 444.76352,56.49241 444.06848,67.76331 L 432.865,249.44132 C 428.11193,326.51816 387.08688,396.7737 322.29561,438.79181 L 234.51047,495.72179 C 224.68016,502.09689 212.02052,502.09689 202.19021,495.72179 L 114.40507,438.79181 C 49.6138,396.7737 8.58875,326.51816 3.83568,249.44132 L -7.3678,67.76331 C -8.06284,56.49241 -2.3061,45.80242 7.48661,40.17936"/>
						</g>
					</g>
					<path d="M 9.9,44.77635 L 209.47996,405.80051 L 209.47996,405.80051 C 212.41917,411.1173 219.11198,413.04472 224.42877,410.10551 C 226.25752,409.09455 227.76048,407.58362 228.76176,405.74956 L 426.80001,43.0" id="Path-11" stroke="#FFFFFF" stroke-width="11.0000002"/>
					<path d="M 25.3,1.57205 L 214.57555,339.92101 L 214.57555,339.92101 C 216.35512,343.10217 220.37658,344.23838 223.55774,342.45881 C 224.64793,341.84895 225.54266,340.94221 226.13795,339.84399 L 410.30001,0.09044" id="Path-11-Copy" stroke="#FFFFFF" stroke-width="11.0000002" transform="translate(217.800005, 171.695225) scale(1, -1) translate(-217.800005, -171.695225) "/>
					<circle id="Oval-3" fill="#FFFFFF" cx="335.500007" cy="206.900005" r="24.2000005"/>
					<circle id="Oval-3-Copy-2" fill="#FFFFFF" cx="218.900005" cy="414.800009" r="24.2000005"/>
					<circle id="Oval-3-Copy" fill="#FFFFFF" cx="96.8000021" cy="206.900005" r="24.2000005"/>
					<path d="M 218.9,417.55001 L 218.9,498.95001" id="Line" stroke="#FFFFFF" stroke-width="11.0000002" stroke-linecap="square"/>
					<path d="M 48.4,378.6261 C 64.6831,382.46672 122.02649,396.35802 220.43017,420.30001 L 391.60001,375.20001" id="Path-12" stroke="#FFFFFF" stroke-width="11.0000002"/>
					<path d="M 305.80001,208.55 C 305.80001,201.55632 299.67851,195.43685 292.68251,195.43685 L 244.585,195.43685 L 200.86,125.5 L 184.44145,132.99767 L 205.2325,195.43685 L 157.135,195.43685 L 144.0175,177.95263 L 130.9,177.95263 L 139.645,208.55 L 130.9,239.14737 L 144.0175,239.14737 L 157.135,221.66316 L 205.2325,221.66316 L 183.34391,283.03125 L 200.86,291.60001 L 244.585,221.66316 L 292.68251,221.66316 C 299.67851,221.66316 305.80001,215.54369 305.80001,208.55" id="Shape" fill="#FFFFFF" fill-rule="nonzero" transform="translate(218.350005, 208.550005) rotate(-90.000000) translate(-218.350005, -208.550005) "/>
				</g>
			</g>
		</g>
	</g>
</svg>