<?xml version="1.0" encoding="UTF-8"?>
<svg id="Layer_1" xmlns="http://www.w3.org/2000/svg" viewBox="0 0 150 50"><defs><style>.cls-1{fill:#2e2f2f;}.cls-1,.cls-2{fill-rule:evenodd;}.cls-2{fill:#00b25e;}</style></defs><path class="cls-2" d="m22.8198,4.6844c-5.8709.6843-11.2881,4.0144-14.5878,8.9675-4.609,6.9184-4.6092,15.7506-.0004,22.6724,5.6806,8.5317,16.8695,11.528,26.0171,6.9673,6.3259-3.1541,10.4977-9.1614,11.267-16.2248.5499-5.0478-.9579-10.3891-4.0879-14.4814-.8413-1.1001-2.5151-2.7925-3.6111-3.6515-2.9281-2.295-6.3152-3.7177-10.0008-4.2007-1.3441-.1761-3.7055-.1992-4.9961-.0487Zm6.5373,7.3797c0,.1015-.7549,3.7481-.8183,3.9525-.0538.1739-.3.1886-3.1568.1886-2.4494,0-3.2131.0341-3.6462.1627-.6615.1965-1.5281.9363-1.7882,1.5266-.3121.7085-1.4974,6.7093-1.4225,7.2013.092.6035.4497,1.076,1.0792,1.4253l.5388.2989,3.0444.0331c1.6745.0182,3.0444.0535,3.0444.0783,0,.0818-.7659,3.7635-.8253,3.9672-.0554.1899-.2275.1967-3.7384.1467-3.9782-.0568-4.2699-.0921-5.5316-.6704-1.7391-.7971-2.6163-2.3298-2.6204-4.5786-.0015-.8382.1172-1.6002.6548-4.2029.7137-3.4559.9688-4.2307,1.8244-5.5413,1.5222-2.3316,3.7756-3.6225,6.9497-3.981.572-.0647,6.4121-.0711,6.4121-.0071Zm42.6213,2.3098c-1.2761.2637-2.0026.9917-2.5355,2.5404-.1635.4751-.6436,2.7336-.6436,3.0277,0,.0193-.3577.035-.7948.035h-.7948l-.0674.3368c-.1653.8267-.1475.8487.687.8487.4149,0,.7544.0448.7544.0997,0,.5184-2.1016,13.1403-2.2642,13.5976-.1179.332-.2145.6352-.2145.6735s.2614.0697.581.0697c.8858,0,.7902.3636,2.1137-8.0448.5331-3.3873.9694-6.2121.9694-6.2773,0-.0822.675-.1184,2.2092-.1184,1.2151,0,2.2092.0176,2.2092.039,0,.0626-1.7094,10.7761-1.9378,12.1453-.1143.6854-.3053,1.4735-.4244,1.7512l-.2165.5051h1.2457l.2359-.6735c.1441-.4112.6126-3.0653,1.2035-6.8162.5323-3.3785.997-6.3244,1.0328-6.5468l.0652-.4041h1.3312c.7322,0,1.3521-.0363,1.3778-.0808.0255-.0445.0799-.3111.1207-.5927l.0743-.5119h-1.3538c-.7444,0-1.3536-.0246-1.3536-.0546,0-.3869.3753-2.362.5355-2.8176.4873-1.3864,1.3357-1.884,2.7731-1.6264l.4528.0811.1123-.4046c.1585-.5707.1447-.6495-.1289-.7366-.4426-.1408-1.9474-.0824-2.359.0915-1.2776.5399-2.0339,1.9769-2.4661,4.6859l-.1247.7813h-4.4087l.0591-.3502c.0324-.1927.1064-.6655.1643-1.0507.3781-2.5154,1.2841-3.4222,3.095-3.0977l.4528.0811.1123-.4046c.1537-.5533.1433-.6512-.075-.7118-.4164-.1155-1.3989-.1531-1.8051-.0692Zm13.4578,1.0457c-.0074.4776-.4616,3.6428-1.0534,7.3422-1.1306,7.0663-1.2061,7.6173-1.1012,8.0353.0643.2566.1169.2798.6339.2798h.5637l.0149-.8891c.0089-.5384.4466-3.5843,1.1098-7.7233.6022-3.7589,1.0805-7.0565,1.0628-7.3281l-.0321-.4938-.5927-.0313-.5927-.0311-.0129.8394Zm-4.7419-.3531c-.4592.2002-.6873.5628-.6873,1.0921,0,.5324.2451.8009.7309.8009.7031,0,1.2089-.4917,1.2089-1.1751,0-.3166-.3106-.7647-.53-.7647-.0544,0-.1636-.0225-.2425-.05-.079-.0274-.295.0162-.48.0968Zm10.2291-.0703c-.3816.0597-.8942.7241-.8942,1.1588,0,.5168.3112.8045.8704.8045.6346,0,1.0694-.4498,1.0694-1.1065,0-.6485-.3812-.9608-1.0455-.8567Zm17.966,1.9846c.0007.3142-.0802,1.117-.1797,1.7837l-.1809,1.2124h-.8441c-.8166,0-.844.0083-.844.2559,0,.1407-.0303.4075-.0674.5927l-.0674.3368h.8238c.799,0,.8221.0073.768.2425-.1881.8178-.923,5.1671-1.03,6.0953-.2336,2.0269-.0228,3.0179.7428,3.4941.3183.198.5458.2438,1.2009.2418.4445-.0013.9901-.0656,1.2124-.143.3947-.1375.4041-.1534.4041-.6828,0-.4765-.0227-.5317-.1886-.4575-.2712.1217-1.1741.1871-1.4891.108-.4352-.1092-.6923-.6542-.6927-1.4682-.0003-.5653.8048-6.2019,1.0268-7.1877.053-.2355.093-.2425,1.3914-.2425h1.3367l.0903-.5658.0902-.5658-1.3213-.0302c-1.5207-.0347-1.4029.1043-1.1532-1.3604.0925-.5424.153-1.2516.1347-1.576l-.0334-.5897-.5658-.0325-.5658-.0327.0013.5715Zm-72.8508,2.5572c0,.055-.5853,2.9283-1.3005,6.3851-1.0348,5.0005-1.3736,6.4538-1.6575,7.1097-.86,1.9863-2.2909,3.5224-4.1521,4.4574-1.6885.8481-2.8606,1.0209-6.9335,1.0217-2.9076.0006-3.1019-.0114-3.0487-.1879.0549-.1822.8198-3.8787.8198-3.9619,0-.0225,1.5155-.0557,3.3677-.0736,3.2571-.0316,3.3827-.0406,3.8228-.2759.5765-.308,1.1218-.8509,1.3611-1.3552.1312-.2762,1.9017-8.6427,1.9017-8.9858,0-.0169-1.846-.0307-4.1023-.0307-3.8568,0-4.099-.0113-4.0455-.1886.0572-.19.8198-3.8804.8198-3.9675,0-.0258,2.9582-.0468,6.5737-.0468,3.9663,0,6.5737.0397,6.5737.0999Zm22.6308.3852c-1.5497.3512-3.0823,1.4765-3.9093,2.8703-1.107,1.866-1.3474,4.4823-.5691,6.1948.6952,1.5295,2.4023,2.4245,4.3454,2.2781,1.3153-.0991,2.4934-.6722,3.4468-1.6767l.458-.4826v1.9697h1.1854v-.7702c0-.4332.3301-2.8311.7544-5.4802.4149-2.5905.7544-4.7414.7544-4.7797s-.2628-.0697-.5842-.0697c-.6525,0-.615-.055-.7722,1.1315-.1042.7869-.1997.9132-.4007.5303-.2679-.5099-1.0534-1.1992-1.7065-1.4972-.7774-.3548-2.0062-.4442-3.0024-.2184Zm39.3486-.0027c-2.4483.5563-4.2658,2.503-4.8025,5.1439-.6462,3.1793.5856,5.5677,3.1502,6.1077,1.7439.3673,3.3802-.1251,4.7482-1.4285l.6929-.6604-.0675.6701c-.0371.3686-.038.8172-.002.9968.063.3152.0858.3267.6445.3267h.5792v-.8207c0-.6451,1.1294-8.3393,1.4653-9.9828.0602-.2951.0579-.2964-.5386-.2964-.6749,0-.6239-.0736-.8143,1.1727-.0578.3784-.1254.7082-.1503.7331-.0249.0249-.1447-.1149-.2663-.3106-.8872-1.4288-2.7312-2.0853-4.6389-1.6517Zm19.6643.0055c-2.2652.5736-4.0875,2.4572-4.7018,4.8583-.5524,2.1592-.0711,4.3317,1.2167,5.4891.7856.7066,1.5184.9537,2.8278.9542.5927.0001,1.3438-.0637,1.6704-.1418.7145-.1713,2.1984-.8585,2.6262-1.2168l.3104-.2591-.1897-.3711c-.1035-.2041-.2037-.3886-.222-.4098-.0194-.0213-.1767.0626-.3502.1863-.6304.449-1.8794.9691-2.6327,1.0961-1.4839.2504-2.6478-.0665-3.4065-.928-.5367-.61-.7694-1.3546-.7694-2.458v-.8783l2.0745-.0014c1.6219-.0011,2.2383-.0429,2.8288-.1916,2.1844-.551,3.3946-1.6711,3.3946-3.1446,0-1.5441-1.2307-2.5963-3.1532-2.6976-.5798-.0306-1.11.0092-1.5238.1141Zm-38.1775.8866c-.0095.4591-.3148,2.6986-.6785,4.9765-.3694,2.3139-.6471,4.3828-.6294,4.6878l.0319.546.5927.0315.5927.0315.011-.8936c.0064-.5124.2692-2.5023.6164-4.6654.7076-4.4094.7707-4.9006.6775-5.272-.0639-.2545-.1173-.2779-.6335-.2775l-.5637.0004-.0172.8348Zm10.0933-.1775c0,.362-.2871,2.4837-.638,4.7147-.6132,3.8991-.7014,4.6079-.6697,5.3767l.0144.3502h1.1854v-.7856c0-.4335.2896-2.6189.6463-4.8764.3554-2.2499.6464-4.3938.6466-4.7643l.0003-.6735h-1.1854v.6581Zm-28.3369.4942c.7327.3249,1.2197.8115,1.5675,1.5658.2841.6164.3117.7816.3112,1.8619-.0007,1.2842-.1295,1.8193-.7257,3.0111-.4125.8247-1.3611,1.7675-2.1823,2.1689-.5958.2913-.7397.3161-1.832.3161-1.3279,0-1.6221-.0991-2.3527-.7932-.484-.4596-.6985-.8374-.8957-1.5777-.3121-1.1712-.0587-2.9997.5789-4.1783.3793-.7011,1.3307-1.7352,1.907-2.0731,1.0406-.6097,2.6302-.7421,3.6238-.3015Zm39.2761-.0273c.6251.2612,1.0926.658,1.4069,1.194,1.3733,2.3434.1498,6.1646-2.38,7.4337-.5992.3006-.7277.3233-1.8299.3233-1.017,0-1.2487-.0338-1.6309-.2383-1.117-.5975-1.6752-1.5922-1.7435-3.1073-.1204-2.67,1.4194-5.0779,3.6465-5.7025.7143-.2003,1.9308-.1537,2.531.0971Zm19.2506-.1378c.6143.1841,1.2544.7746,1.3417,1.2374.2198,1.1745-.7457,2.0553-2.6974,2.4583-.7942.164-3.4151.2322-3.9022.1015-.2101-.0564-.2209-.0982-.1229-.4565.3901-1.4167,1.6531-2.8277,2.9248-3.2673.6401-.2211,1.8428-.2571,2.456-.0734Z"/><path class="cls-1" d="m88.7546,35.5696c-.8618.2826-1.6732,1.0467-1.9887,1.8731-.2414.6319-.1909,1.7817.1051,2.3936.2803.5795.9414,1.2193,1.5281,1.4788.9505.4205,2.2654.2495,3.1253-.4064.4353-.3319.4501-.5188.0546-.6826-.2587-.1071-.3905-.0841-.9288.1623-1.1889.5443-2.3576.1598-2.9152-.959-.4441-.8912-.3072-1.685.4148-2.4071.7344-.7345,1.5619-.8426,2.5975-.3395.7644.3714,1.4585.0207.9023-.4558-.5414-.4639-1.1021-.6773-1.8706-.712-.4149-.0186-.8759.0059-1.0244.0546Zm5.6995.0545c-.6378.2278-1.1734.6082-1.5091,1.0718-1.4834,2.0479-.0811,4.8152,2.4379,4.8108,1.7449-.003,2.9958-1.261,3.0044-3.0214.0084-1.7043-1.3291-3.0219-3.0509-3.0053-.2707.0026-.6677.0675-.8822.1441Zm26.6884.09c-.5776.3363-.9203.8656-.9192,1.4206.0011.7315.2823,1.0466,1.4958,1.6695,1.3622.7,1.5841,1.0363,1.041,1.5793-.3459.3461-1.0938.3627-1.6736.0372-.389-.2191-.4149-.2205-.6929-.0383-.4041.2653-.3136.4771.3535.826.4645.2424.7188.3016,1.2932.3013,1.1962-.0006,1.8449-.5948,1.846-1.6886.0011-.7462-.3201-1.1176-1.4397-1.6645-.4752-.2322-.9516-.5016-1.0593-.5986-.2942-.2661-.2468-.7324.1002-1.006.3287-.2585.8794-.2551,1.5109.0093.3211.1347.3696.1277.5809-.0834.1293-.1301.2026-.302.167-.3952-.1088-.2827-.7436-.5303-1.4753-.575-.5862-.036-.7705-.0024-1.1283.2065Zm-42.9931.1653c-.0341.163-.1857,1.0723-.3369,2.0206-.1512.9483-.3022,1.8334-.3355,1.9667-.0784.3141.2413.3378.3405.0252l.069-.2171.2761.2171c.3403.2677,1.1134.2906,1.5285.0454.5417-.32.82-.8677.82-1.614,0-.7827-.1799-1.056-.8216-1.2482-.3628-.1087-.4709-.0921-.9523.146-.2986.1479-.5429.264-.5429.2583.0001-.0057.0729-.4227.1615-.9265.0887-.5038.1614-.9281.1615-.9429,0-.0149-.0688-.0269-.153-.0269-.0842,0-.1809.1333-.215.2964Zm21.0591,2.4979c0,3.0723.0126,3.1329.652,3.1329h.3133l.0292-2.0695.0293-2.0695,1.3421,1.9225c1.0319,1.4782,1.4235,1.9566,1.6939,2.0695.7191.3004.6819.4539.6819-2.8166v-2.9636h-.3708c-.204,0-.41.0607-.458.1347-.048.0741-.1114.9814-.1411,2.0164l-.0539,1.8817-1.2393-1.814c-.6816-.9977-1.3549-1.9051-1.4963-2.0164-.1414-.1113-.4202-.2024-.6197-.2024h-.3626v2.7943Zm5.6649-2.5518c.3506,1.1245,2.0054,5.4147,2.1156,5.4846.2753.1746.724.0986.8858-.1502.0868-.1333.5685-1.3578,1.0703-2.7211.502-1.3632.9464-2.5635.9878-2.6672.0642-.1611.0111-.1886-.3649-.1886-.3404,0-.4738.055-.589.2425-.0819.1333-.4581,1.1518-.836,2.2631-.3779,1.1114-.7186,2.0206-.7571,2.0206-.0384,0-.3986-.9578-.8005-2.1284s-.7772-2.1889-.834-2.2631c-.0568-.074-.2946-.1347-.5285-.1347-.3914,0-.4191.0192-.3495.2425Zm5.9738,2.7211v2.9636h3.4489v-.3017c0-.4988-.1573-.5604-1.4275-.5604h-1.1684l.0315-.8352.0315-.8352,1.0033-.031,1.0037-.0311-.0334-.346-.0334-.3461-.9703-.0539-.9699-.0539v-1.7242l1.1814-.0308c1.233-.0322,1.3461-.0769,1.3493-.535.0022-.2414-.0054-.2425-1.7225-.2425h-1.7242v2.9636Zm4.3121-.1886c.0011,1.5263.041,2.8373.0894,2.9134s.2662.1675.4839.2027l.3955.0642v-2.3991h1.1337l.5205.9739c.2867.5357.625,1.039.7533,1.1185.3017.1878.9333.303.9333.1704,0-.0565-.2888-.625-.6412-1.2636l-.6412-1.1609.3707-.1905c.5518-.2844.75-.6589.749-1.4212-.0011-.7911-.2705-1.3213-.8115-1.5941-.3017-.1522-.6584-.1885-1.8546-.1886l-1.4818-.0002.0011,2.775Zm11.2852-2.5864c-.0938.1037-.6056,1.401-1.1369,2.8827l-.9667,2.6941.2651.0348c.4278.0561.736-.2359.9925-.9417l.2392-.6558h2.1047l.1854.5881c.2015.6374.5809,1.0284,1.0001,1.0284.1401,0,.2554-.0343.2554-.0762,0-.1658-1.8643-5.2737-2.0077-5.5007-.1875-.2964-.6865-.3252-.9311-.0539Zm3.6931,2.6699v2.8585l.2759.1051c.5981.2275.5862.2679.5862-1.8822,0-1.0931.0356-2.0093.0808-2.0362.0442-.0268.6347.7465,1.3137,1.7185.6778.9719,1.3341,1.8624,1.457,1.9786.1239.1163.3933.2251.5992.2419l.375.0306.028-2.9366.0291-2.9366h-.3168c-.6725,0-.6563-.05-.6563,2.0591,0,1.0605-.0366,1.9265-.0808,1.9245-.0453-.0022-.6595-.8551-1.3654-1.8955-1.2802-1.8857-1.4807-2.0881-2.0637-2.0881h-.2619v2.8585Zm5.6232-2.5082l.0345.3502.9429.0311.9429.0311v4.8361l.264.1731c.1455.0952.3513.1563.458.1358.1789-.0345.1961-.2309.222-2.5912l.0291-2.5538.9408-.031.9419-.0311.0334-.3502.0334-.3502h-4.8764l.0334.3502Zm5.4766-.2425c0,.0593.1455.1078.3233.1078h.3233v.916c0,.7424.0302.916.1616.916.1304,0,.1616-.1736.1616-.916v-.916h.3233c.1778,0,.3233-.0485.3233-.1078,0-.0623-.3416-.1078-.8082-.1078-.4677,0-.8082.0455-.8082.1078Zm2.0475.916c0,.6107.0431,1.0238.1078,1.0238.0614,0,.1099-.3548.1142-.8352l.0065-.8352.2899.8073c.3901,1.0874.5453,1.0927.9031.0314l.2834-.8386.0097.8352c.0054.4785.055.8352.1175.8352.0636,0,.1078-.4131.1078-1.0238,0-.919-.0205-1.0238-.1972-1.0238-.1498,0-.2565.1905-.4494.8082-.1401.4445-.2856.8082-.3233.8082-.0388,0-.1843-.3637-.3233-.8082-.194-.6177-.3007-.8082-.4505-.8082-.1767,0-.1961.1047-.1961,1.0238Zm-46.9835-.0269c1.2492.6318,1.5556,2.3128.6165,3.3824-.4466.5085-.8305.6857-1.4866.6857-1.0354,0-1.8206-.6375-2.0505-1.6649-.2992-1.3367.6913-2.6458,2.0019-2.6458.2416,0,.6549.1091.9187.2425Zm21.9076.0664c.3373.3375.3319,1.1409-.0097,1.4175-.2554.207-1.1466.3663-1.6973.3037l-.3201-.0364-.0323-.8526c-.0453-1.206-.069-1.1777.9559-1.1183.7069.0408.9106.0937,1.1035.2861Zm9.0717,1.2537c.1681.4742.3265.9228.3524.9968.0356.0997-.1509.1347-.7177.1347-.4214,0-.7662-.0363-.7673-.0808-.0032-.225.6951-2.0686.7576-1.9966.0388.046.208.4717.375.9459Zm-46.1516-.6735c.0266.0741.1859.7308.3541,1.4594l.3057,1.3245-.2296.4729c-.1762.3625-.2981.4809-.5229.5074-.3386.04-.4553.2458-.1959.3454.4243.1627.7144-.1893,1.8319-2.2236.8341-1.5183,1.065-2.0203.9292-2.0193-.1197.0009-.3916.4-.805,1.1819-.3433.6493-.6659,1.2063-.7166,1.2377-.0509.0315-.1738-.3186-.2732-.7777-.3147-1.454-.3788-1.6431-.557-1.6431-.0929,0-.1472.0607-.1206.1347Zm-1.3848.2026c.3442.1568.5418.6401.4622,1.1307-.1199.7392-.6715,1.2693-1.3206,1.2693-.7407,0-1.0819-.7405-.7462-1.6195.2871-.7518.9548-1.0766,1.6045-.7804Z"/></svg>