<?xml version="1.0" ?>
<svg xmlns="http://www.w3.org/2000/svg" role="img" viewBox="-9.21 -6.71 764.92 210.92">
	<defs>
		<style>.cls-2{fill:#259d9e}.cls-3{fill:#4a4e52}</style>
	</defs>
	<path fill="none" d="M 656.94574,101.40157 A 22.44332,22.44332 0.0 0,0 639.46274,109.29157 C 634.74974,114.56357 632.47674,121.16057 632.47674,128.91857 C 632.47674,137.30657 634.74974,144.06957 639.26274,149.34057 A 22.204,22.204 0.0 0,0 656.74474,157.29757 Q 668.02622,157.29757 674.99574,149.60657 C 679.60874,144.30157 681.94874,137.57157 681.94874,129.38257 C 681.94874,121.19357 679.60874,114.46357 674.99574,109.15957 C 670.38269,103.95461 664.3327,101.40157 656.94574,101.40157 L 656.94574,101.40157 M 152.137,35.2939 C 149.552,41.54976 146.79032,48.22652 144.02763,54.90084 C 138.53741,68.16549 133.03888,81.4272 128.907,91.37008 C 128.08815,93.33931 127.323,95.17916 126.62233,96.86324 L 200.38161,149.75972 L 179.63747,100.53121 C 169.722,77.00191 159.80255,53.4692 152.137,35.2939 M 226.94659,106.03414 C 223.83722,108.31539 221.02423,110.37886 218.59503,112.15914 L 233.83819,148.02242 C 234.8128,150.31342 235.78058,152.58883 236.73126,154.82222 C 243.87384,139.5107 252.90704,120.14351 261.9378,100.77437 C 266.87286,90.18843 271.80792,79.60054 276.43243,69.67525 A 108533.7199,108533.7199 0.0 0,1 266.52472,76.96041 C 252.138,87.53707 237.74591,98.10933 226.94659,106.03414 L 226.94659,106.03414 M 117.88507,129.3105 C 103.20929,118.75777 83.64044,104.67769 64.06769,90.56929 Q 45.7044,77.333 31.38507,66.98189 L 77.449,170.624 L 125.56473,134.832 L 117.88504,129.31149 L 117.88507,129.3105"/>
	<path d="M 193.55841,94.66451 C 183.17169,70.01751 172.78155,45.36861 164.98175,26.87593 L 159.02081,12.74508 A 7.55326,7.55326 0.0 0,0 145.07843,12.80318 C 140.98175,22.74263 135.52814,35.93648 130.06964,49.12349 C 124.58234,62.38131 119.08673,75.63521 114.95734,85.57271 C 113.11798,89.99752 111.54864,93.76851 110.37042,96.5898 A 7.55246,7.55246 0.0 0,0 112.94317,105.64058 L 213.33722,177.63765 A 7.55331,7.55331 0.0 0,0 224.69952,168.56734 L 193.55841,94.66451 M 126.62241,96.86324 A 29179.39083,29179.39083 0.0 0,0 128.90708,91.37008 C 133.03892,81.4272 138.53745,68.16549 144.02769,54.90084 C 146.79038,48.22652 149.5521,41.54976 152.13706,35.2939 C 159.80259,53.4692 169.72206,77.0019 179.63755,100.53121 L 200.38169,149.75972 L 126.62241,96.86324" class="cls-2"/>
	<path d="M 142.76739,128.59371 L 126.70439,117.04586 L 126.70439,117.04686 C 112.03251,106.49608 92.46855,92.41991 72.90067,78.31444 C 50.27081,62.00338 32.16241,48.91646 19.076,39.416 L 17.51935,38.2856 A 7.55311,7.55311 0.0 0,0 6.179,47.46529 L 67.4793,185.38668 A 7.55454,7.55454 0.0 0,0 78.89,188.37984 L 142.868,140.78804 A 7.55387,7.55387 0.0 0,0 142.76741,128.59371 L 142.76739,128.59371 M 77.449,170.624 L 31.38507,66.98189 Q 45.66437,77.30389 64.06769,90.56929 C 83.64044,104.67769 103.20929,118.75777 117.88507,129.3105 L 117.88507,129.3115 L 125.56476,134.83201 L 77.449,170.624 M 300.535,40.23433 A 7.5512,7.5512 0.0 0,0 291.27279,39.99849 C 281.40707,47.26412 269.49301,56.02925 257.57651,64.78949 C 243.19369,75.36322 228.80551,85.93207 218.00912,93.85492 C 212.61312,97.81439 208.11212,101.1142 204.90317,103.46381 C 204.8768,103.48334 204.79574,103.54291 204.76987,103.56244 A 7.55363,7.55363 0.0 0,0 202.35092,112.56144 L 219.93686,153.93351 C 223.35386,161.96769 226.69174,169.81046 229.46713,176.32316 A 7.55287,7.55287 0.0 0,0 236.28842,180.91398 C 236.3309,180.91498 236.37387,180.91498 236.41635,180.91498 A 7.55267,7.55267 0.0 0,0 243.2601,176.55658 L 248.48373,165.36224 C 255.88803,149.48924 265.7601,128.32513 275.62924,107.15716 C 285.42953,86.13568 295.22641,65.11322 302.59994,49.26654 A 7.55311,7.55311 0.0 0,0 300.535,40.23433 L 300.535,40.23433 M 261.93783,100.77433 C 252.90707,120.14347 243.87383,139.51066 236.73129,154.82218 C 235.78061,152.58879 234.81283,150.31339 233.83822,148.02238 L 218.595,112.15914 C 221.0242,110.37886 223.83719,108.31539 226.94656,106.03414 C 237.74588,98.10933 252.13797,87.53707 266.52469,76.96041 C 269.84207,74.52141 273.15897,72.08248 276.4324,69.67525 C 271.80792,79.60054 266.87286,90.18843 261.9378,100.77437 L 261.93783,100.77433 M 386.75226,86.85933 A 38.071,38.071 0.0 0,0 357.34747,99.84273 C 349.53647,108.47554 345.57599,119.41988 345.57599,132.37203 C 345.57599,145.61031 349.53692,156.76656 357.34845,165.53121 C 365.17511,174.14547 375.24835,178.51363 387.28645,178.51363 C 396.79719,178.51363 405.81867,174.63082 414.1009,166.97363 L 414.50227,166.60254 L 414.50227,176.02734 L 434.4134,176.02734 L 434.4134,89.31246 L 414.53448,89.31246 L 414.53448,99.74215 L 414.12335,99.31734 C 406.11847,91.05074 396.90948,86.85933 386.75226,86.85933 L 386.75226,86.85933 M 415.77179,132.80269 C 415.77179,140.97652 413.41241,147.83297 408.76007,153.18258 C 404.09601,158.34273 397.89581,160.95699 390.32843,160.95699 A 22.49679,22.49679 0.0 0,1 372.66632,152.91793 C 368.12432,147.61226 365.82159,140.68843 365.82159,132.33883 C 365.82159,124.43843 368.19269,117.78121 372.86847,112.55269 A 22.741,22.741 0.0 0,1 390.5296,104.58199 C 398.01691,104.58199 404.14972,107.21968 408.75812,112.42183 C 413.41241,117.77242 415.77179,124.62886 415.77179,132.80269 L 415.77179,132.80269" class="cls-3"/>
	<path d="M 414.263,89.0732 L 414.056,89.0732 L 414.056,98.56539 C 406.054,90.47896 396.87143,86.38082 386.75229,86.38082 A 38.529,38.529 0.0 0,0 356.99252,99.52242 C 349.09945,108.24508 345.09752,119.29683 345.09752,132.37203 C 345.09752,145.7314 349.09899,156.99508 356.99252,165.85152 C 364.91537,174.57125 375.10776,178.99215 387.28652,178.99215 C 396.76699,178.99215 405.76113,175.19039 414.02382,167.69234 L 414.02382,176.50582 L 434.89199,176.50582 L 434.89199,88.83394 L 414.263,88.83394 L 414.263,89.0732 M 414.53448,89.31246 L 434.41339,89.31246 L 434.41339,176.0273 L 414.50226,176.0273 L 414.50226,166.6025 L 414.10089,166.97359 C 405.81866,174.63082 396.79718,178.51359 387.28644,178.51359 C 375.24835,178.51359 365.17511,174.14543 357.34844,165.53117 C 349.53691,156.76652 345.57598,145.61027 345.57598,132.37199 C 345.57598,119.41984 349.53643,108.4755 357.34746,99.84269 A 38.071,38.071 0.0 0,1 386.75225,86.85929 C 396.90947,86.85929 406.11846,91.0507 414.12334,99.31729 L 414.53447,99.7421 L 414.53448,89.31246" class="cls-3"/>
	<path d="M 390.5296,104.582 A 22.741,22.741 0.0 0,0 372.86847,112.5527 C 368.19269,117.78122 365.82159,124.43844 365.82159,132.33884 C 365.82159,140.68844 368.12433,147.61227 372.66632,152.91794 A 22.49679,22.49679 0.0 0,0 390.32843,160.957 C 397.89581,160.957 404.09601,158.34274 408.76007,153.18259 C 413.41241,147.83298 415.77179,140.97653 415.77179,132.8027 C 415.77179,124.62887 413.41241,117.77243 408.75812,112.42184 C 404.14972,107.21968 398.01691,104.582 390.5296,104.582 L 390.5296,104.582 M 408.40167,152.8652 C 403.83526,157.91696 397.75519,160.47848 390.32843,160.47848 A 22.034,22.034 0.0 0,1 373.02862,152.60548 C 368.50079,147.31641 366.30011,140.68748 366.30011,132.33888 C 366.30011,124.55958 368.63019,118.00977 373.22589,112.8711 A 22.281,22.281 0.0 0,1 390.5296,105.06055 C 397.87433,105.06055 403.88702,107.64355 408.39874,112.73731 C 412.97394,117.9961 415.29327,124.74805 415.29327,132.80274 C 415.29327,140.85743 412.97394,147.60933 408.40167,152.86519 L 408.40167,152.8652 M 472.46417,71.50093 L 472.46417,83.17818 L 455.28253,83.17818 L 455.28253,98.34761 L 472.46417,98.34761 L 472.46417,175.95894 L 472.49737,175.95894 L 472.49737,176.02633 L 492.71026,176.02633 L 492.71026,98.414 L 514.03644,98.414 L 514.03644,83.2441 L 492.71026,83.2441 L 492.71026,72.2631 C 492.71026,58.10295 496.48077,53.55754 508.22589,53.55754 A 42.93982,42.93982 0.0 0,1 515.74151,54.16545 L 515.74151,38.49654 A 47.26388,47.26388 0.0 0,0 504.64874,37.52584 C 483.2923,37.52584 472.46417,48.9565 472.46417,71.50093 L 472.46417,71.50093" class="cls-3"/>
	<path d="M 504.64874,37.04732 C 482.97491,37.04732 471.98566,48.63912 471.98566,71.50093 L 471.98566,82.69967 L 454.804,82.69967 L 454.804,98.82613 L 471.98565,98.82613 L 471.98565,176.1982 L 472.01885,176.43746 L 472.01885,176.50484 L 493.18877,176.50484 L 493.18877,98.89254 L 514.515,98.89254 L 514.515,82.76554 L 493.18878,82.76554 L 493.18878,72.26314 C 493.18878,58.4648 496.84308,54.03609 508.22589,54.03609 A 40.96224,40.96224 0.0 0,1 515.92999,54.69381 L 516.21999,54.75728 L 516.21999,38.13375 L 516.04616,38.08443 A 46.37554,46.37554 0.0 0,0 504.64874,37.04732 M 515.74151,54.16549 A 42.93982,42.93982 0.0 0,0 508.22589,53.55758 C 496.48077,53.55758 492.71026,58.10299 492.71026,72.26314 L 492.71026,83.24414 L 514.03644,83.24414 L 514.03644,98.414 L 492.71026,98.414 L 492.71026,176.02631 L 472.49737,176.02631 L 472.49737,175.95892 L 472.46417,175.95892 L 472.46417,98.34761 L 455.28253,98.34761 L 455.28253,83.17818 L 472.46417,83.17818 L 472.46417,71.50093 C 472.46417,48.9565 483.2923,37.52584 504.64874,37.52584 A 47.26388,47.26388 0.0 0,1 515.74151,38.49654 L 515.74151,54.16549 M 546.774,175.963 L 564.546,175.963 L 564.546,83.049 L 559.518,83.049 L 546.774,88.203 L 546.774,175.963 L 546.774,175.963 M 562.94562,42.26754 A 9.97329,9.97329 0.0 0,0 559.67706,40.06295 A 9.70711,9.70711 0.0 0,0 555.69366,39.28658 A 9.426,9.426 0.0 0,0 551.71515,40.06099 A 10.521,10.521 0.0 0,0 548.44073,42.26754 A 9.90941,9.90941 0.0 0,0 546.21808,45.50875 A 9.64227,9.64227 0.0 0,0 545.43683,49.45748 A 9.3687,9.3687 0.0 0,0 546.21612,53.40181 A 10.41964,10.41964 0.0 0,0 548.44171,56.64742 A 9.9735,9.9735 0.0 0,0 551.71026,58.85201 A 9.70091,9.70091 0.0 0,0 555.69366,59.62838 A 9.42593,9.42593 0.0 0,0 559.67218,58.85396 A 10.49873,10.49873 0.0 0,0 562.94659,56.64742 A 9.92272,9.92272 0.0 0,0 565.16925,53.40621 A 9.389,9.389 0.0 0,0 565.9505,49.45748 A 9.23282,9.23282 0.0 0,0 565.1712,45.51314 A 10.41962,10.41962 0.0 0,0 562.94562,42.26754 L 562.94562,42.26754" class="cls-3"/>
	<path d="M 546.555,87.77535 L 546.29524,87.77535 L 546.29524,176.44135 L 565.02473,176.44135 L 565.02473,82.57027 L 559.471,82.57027 L 546.555,87.77535 M 564.54621,83.04879 L 564.54621,175.96285 L 546.77374,175.96285 L 546.77374,88.20308 L 559.51788,83.04879 L 564.54621,83.04879 M 563.28644,41.93062 A 10.44174,10.44174 0.0 0,0 559.86651,39.62349 A 10.17313,10.17313 0.0 0,0 555.69366,38.80806 A 9.89093,9.89093 0.0 0,0 551.52081,39.62349 A 10.97285,10.97285 0.0 0,0 548.10773,41.92476 A 10.361,10.361 0.0 0,0 545.78058,45.31636 A 10.235,10.235 0.0 0,0 544.95831,49.45748 A 9.82054,9.82054 0.0 0,0 545.78058,53.5981 A 10.87741,10.87741 0.0 0,0 548.10089,56.98433 A 10.44154,10.44154 0.0 0,0 551.52081,59.29146 A 10.16676,10.16676 0.0 0,0 555.69366,60.10689 A 9.88319,9.88319 0.0 0,0 559.86554,59.29146 A 10.97148,10.97148 0.0 0,0 563.2796,56.99019 A 10.37412,10.37412 0.0 0,0 565.60675,53.59859 A 9.84043,9.84043 0.0 0,0 566.42901,49.45748 A 9.68519,9.68519 0.0 0,0 565.60675,45.31685 A 10.8777,10.8777 0.0 0,0 563.28644,41.93062 L 563.28644,41.93062 M 565.16925,53.40621 A 9.92272,9.92272 0.0 0,1 562.94659,56.64742 A 10.49873,10.49873 0.0 0,1 559.67218,58.85396 A 9.42593,9.42593 0.0 0,1 555.69366,59.62838 A 9.70091,9.70091 0.0 0,1 551.71026,58.85201 A 9.9735,9.9735 0.0 0,1 548.44171,56.64742 A 10.41964,10.41964 0.0 0,1 546.21612,53.40181 A 9.3687,9.3687 0.0 0,1 545.43683,49.45748 A 9.64227,9.64227 0.0 0,1 546.21808,45.50875 A 9.90941,9.90941 0.0 0,1 548.44073,42.26754 A 10.521,10.521 0.0 0,1 551.71515,40.06099 A 9.426,9.426 0.0 0,1 555.69366,39.28658 A 9.70711,9.70711 0.0 0,1 559.67706,40.06295 A 9.97329,9.97329 0.0 0,1 562.94562,42.26754 A 10.41962,10.41962 0.0 0,1 565.1712,45.51314 A 9.23282,9.23282 0.0 0,1 565.9505,49.45748 A 9.389,9.389 0.0 0,1 565.16925,53.40621 L 565.16925,53.40621" class="cls-3"/>
	<path d="M 680.71173,95.73207 C 672.58973,87.34426 663.39673,83.20015 653.16873,83.20015 C 641.33473,83.20015 631.47373,87.51009 623.58573,96.26259 Q 611.75226,109.34109 611.75273,128.95159 C 611.75273,142.27959 615.69673,153.41859 623.58573,162.27059 Q 635.46873,175.34907 653.70273,175.33359 C 663.29673,175.33359 672.28873,171.48759 680.67873,163.72959 L 680.67873,172.84659 L 701.06873,172.84659 L 701.06873,85.65346 L 680.71173,85.65346 L 680.71173,95.73207 M 674.99573,149.60659 Q 668.02673,157.31359 656.74473,157.29759 A 22.204,22.204 0.0 0,1 639.26273,149.34059 C 634.74973,144.06959 632.47673,137.30659 632.47673,128.91859 C 632.47673,121.16059 634.74973,114.56359 639.46273,109.29159 A 22.44332,22.44332 0.0 0,1 656.94573,101.40159 C 664.33273,101.40159 670.38273,103.95459 674.99573,109.15959 C 679.60873,114.46359 681.94873,121.19359 681.94873,129.38259 C 681.94873,137.57155 679.6087,144.30159 674.99573,149.60659 M 740.67071,41.98989 A 10.69888,10.69888 0.0 0,0 738.39771,38.67458 A 10.215,10.215 0.0 0,0 735.05471,36.42019 A 9.93955,9.93955 0.0 0,0 730.97671,35.62447 A 9.62866,9.62866 0.0 0,0 726.89871,36.42019 A 10.78954,10.78954 0.0 0,0 723.55571,38.67458 A 10.14368,10.14368 0.0 0,0 721.28271,41.98989 A 9.93929,9.93929 0.0 0,0 720.48071,46.03456 A 9.622,9.622 0.0 0,0 721.28271,50.0793 A 10.69808,10.69808 0.0 0,0 723.55571,53.39461 A 10.21584,10.21584 0.0 0,0 726.89871,55.64907 A 9.943,9.943 0.0 0,0 730.97671,56.44466 A 9.62845,9.62845 0.0 0,0 735.05471,55.64907 A 10.77975,10.77975 0.0 0,0 738.39771,53.39461 A 10.12985,10.12985 0.0 0,0 740.67071,50.0793 A 9.62162,9.62162 0.0 0,0 741.47271,46.03456 A 9.41775,9.41775 0.0 0,0 740.67071,41.98989 M 721.885,84.592 L 721.818,84.592 L 721.818,172.78 L 740.069,172.78 L 740.069,79.387 L 734.754,79.387 L 721.885,84.592 L 721.885,84.592" class="cls-2"/>
	<circle cx="591.819" cy="169.477" r="8.544" class="cls-2"/>
</svg>