<svg data-css="[object Object]" class="Box__StyledComponent-sc-1gncnuu-0 qWbSu" viewBox="0 0 460 140" fill="none" xmlns="http://www.w3.org/2000/svg"><path d="M83.37 102l-6.75-16.11H46.11L39.36 102h-8.91l26.64-62.82h8.55L92.28 102h-8.91zM49.35 77.97v.45h24.03v-.45L61.5 49.26h-.18L49.35 77.97zm75.534-33.57c-2.22-.78-4.41-1.17-6.57-1.17-2.1 0-3.78.57-5.04 1.71-1.2 1.14-1.8 3.21-1.8 6.21v4.95h14.04v7.02h-14.04V102h-8.19V63.12h-8.37V56.1h8.37v-5.22c0-5.22 1.32-9.09 3.96-11.61 2.7-2.58 5.73-3.87 9.09-3.87 3.42 0 6.48.75 9.18 2.25v6.75h-.63zm33.379 18.72h-13.05V90.3c0 2.52.69 4.08 2.07 4.68 1.14.48 2.61.72 4.41.72 1.8 0 3.78-.48 5.94-1.44h.63v6.66c-2.52 1.32-5.22 1.98-8.1 1.98-8.76 0-13.14-3.96-13.14-11.88v-27.9h-8.55v-.54l16.74-16.38v9.9h13.05v7.02zm50.651 15.93v2.88h-34.74c.48 4.2 2.04 7.47 4.68 9.81 2.64 2.34 6.63 3.51 11.97 3.51 5.4 0 10.38-1.5 14.94-4.5h.45v7.92c-5.04 2.82-10.98 4.23-17.82 4.23-6.78 0-12.24-2.07-16.38-6.21-4.08-4.2-6.12-9.84-6.12-16.92 0-7.14 1.83-13.02 5.49-17.64 3.66-4.62 9-6.93 16.02-6.93s12.36 2.31 16.02 6.93c3.66 4.62 5.49 10.26 5.49 16.92zm-34.74-3.78h26.55c-.24-4.32-1.71-7.59-4.41-9.81-2.64-2.22-5.61-3.33-8.91-3.33s-6.27 1.11-8.91 3.33c-2.64 2.22-4.08 5.49-4.32 9.81zm71.039-20.07h.72v7.83h-.72c-3.54 0-6.84.69-9.901 2.07-3.059 1.38-5.459 3.3-7.199 5.76V102h-8.19V56.1h7.2l.99 5.76v1.35h.18c4.32-5.34 9.96-8.01 16.92-8.01zm63.424.9h8.64l-15.75 45.9h-8.01l-10.44-32.85h-.27L272.367 102h-8.01l-15.75-45.9h8.64l10.89 36h.27l11.16-36h6.75l11.16 36h.27l10.89-36zm17.564 2.52c5.22-2.28 10.8-3.42 16.74-3.42 6 0 10.59 1.74 13.77 5.22 3.18 3.48 4.77 7.65 4.77 12.51V102h-7.2l-.99-5.76h-.27c-4.32 4.44-9.87 6.66-16.65 6.66-4.08 0-7.56-1.23-10.44-3.69-2.82-2.46-4.23-5.82-4.23-10.08s1.74-7.71 5.22-10.35c3.54-2.64 8.7-3.96 15.48-3.96h10.89v-.72c0-3.96-.99-6.81-2.97-8.55-1.92-1.74-5.28-2.61-10.08-2.61s-9.3 1.02-13.5 3.06h-.54v-7.38zm27.09 30.33v-7.56h-9.81c-9.06 0-13.59 2.4-13.59 7.2 0 4.74 3.18 7.11 9.54 7.11 2.64 0 5.19-.63 7.65-1.89 2.46-1.32 4.53-2.94 6.21-4.86zm62.522-32.85l-27.63 66.6h-8.28l7.74-19.98-18.99-46.62h8.82l14.4 36.27h.36l14.76-36.27h8.82z" fill="#222F22"></path><circle cx="424" cy="95" r="7" fill="#CEEBCE"></circle></svg>