<svg xmlns="http://www.w3.org/2000/svg" id="Calque_1" x="0" y="0" style="enable-background:new 0 0 485 168" version="1.1" viewBox="0 0 485 168" xml:space="preserve"><style>.st8{fill:#4609a8}.st16{fill:#323232}</style><path d="M167.2 104.1c-4.5 0-7-2.8-7.3-6.1-2 3.5-7 6.5-13.2 6.5-10.3 0-15.7-6.5-15.7-13.6 0-8.2 6.4-13 14.7-13.6l12.8-.9v-2.7c0-4.1-1.4-6.8-7.3-6.8-4.8 0-7.7 2.2-7.9 6.2h-10.1c.6-9.8 8.3-14.1 18-14.1 7.4 0 13.8 2.3 16.3 8.8 1.1 2.8 1.3 5.8 1.3 8.8v16.1c0 2 .7 2.8 2.4 2.8.7 0 1.3-.2 1.3-.2v7.7c-1.9.7-2.8 1.1-5.3 1.1zm-8.7-19.9-11 .8c-3.2.3-6.3 2.2-6.3 5.7 0 3.3 2.9 5.4 6.2 5.4 6.5 0 11.1-3.5 11.1-9.9v-2zM197.1 123.7c-5.2 0-10.8-.4-15.3-3.6-3.3-2.3-5.3-5.4-5.3-9.5 0-3.8 1.8-7.2 5.2-8.8-2.7-1.5-4.3-4.6-4.3-7.4 0-3.7 1.7-6.6 5.2-8.8-2.7-2.7-4.3-6.2-4.3-10.7 0-10.3 8-15.9 17.8-15.9 3.6 0 7 1 9.8 2.7 1.8-3.8 5.2-5.4 8.8-5.4.7 0 2.2 0 2.8.2v8.1c-.2 0-.6-.1-.8-.1-2.4 0-4.6.7-5.3 2.8 1.4 2.3 2.2 4.9 2.2 7.8 0 9.9-8.3 15.8-17.7 15.8-2.4 0-4.8-.4-7-1.2-1 .6-2.2 1.7-2.2 3.1 0 2.6 2.6 3.2 4.8 3.2h7.2c4.3 0 10 .1 14.1 2.9 3.8 2.6 5.3 6.2 5.3 10.4-.1 11.3-11.4 14.4-21 14.4zm.7-19.6h-8.2c-2.2.7-3.9 2.6-3.9 5.3 0 5.5 6.8 6 10.9 6 4.2 0 11.5-.2 11.5-6 0-5.3-6.4-5.3-10.3-5.3zm-1.9-37.2c-4.8 0-7.7 3.4-7.7 8.1 0 4.7 2.9 8 7.7 8s7.7-3.3 7.7-8-3-8.1-7.7-8.1zM258.6 85h-29c-.1 3.3 1.1 6.5 3.2 8.5 1.5 1.4 3.6 2.7 6.4 2.7 3 0 4.8-.6 6.3-2.1.9-.9 1.7-2.1 2.1-3.7h10c-.2 2.6-2 6-3.7 8-3.7 4.3-9.1 6.1-14.6 6.1-5.9 0-10.3-2.1-13.7-5.3-4.3-4.2-6.7-10.3-6.7-17.3 0-6.9 2.1-13.1 6.3-17.3 3.3-3.3 7.9-5.5 13.8-5.5 6.4 0 12.3 2.6 15.8 8 3.2 4.8 3.9 9.7 3.8 15.1V85zm-13-15.1c-1.4-1.5-3.6-2.5-6.6-2.5-3.2 0-5.8 1.3-7.3 3.3-1.5 1.9-2.2 3.9-2.3 6.8h18.8c-.1-3.3-1-5.8-2.6-7.6zM291.6 103.4V76.9c0-5.1-1.7-8.2-7.2-8.2-3.7 0-6.1 2.3-7.5 5.5-1.5 3.4-1.4 7.9-1.4 11.6v17.7h-10.4V60.1h8.8l.8 5.6c2.6-4.6 7.8-6.7 12.8-6.7 9.2 0 14.7 6.5 14.7 15.5v28.9h-10.6zM339.1 103.4l-.7-4.8c-2.6 4-7.4 5.8-12.2 5.8-4.3 0-7.9-1.5-10.6-3.7-5.2-4.3-7.7-10.8-7.7-18.9 0-8.5 2.6-15.1 7.8-19.3 2.7-2.2 6.2-3.5 10.6-3.5 5.5 0 9.5 1.8 11.3 4.1V43.3H348v60.2h-8.9zm-10.8-35.6c-3.2 0-5.5 1.5-7 3.4-2.2 2.8-2.8 6.8-2.8 10.5s.6 7.8 2.8 10.6c1.5 1.9 3.8 3.4 7 3.4 8.2 0 9.8-7.8 9.8-14s-1.6-13.9-9.8-13.9zM357.6 54.1V43.4h11.2v10.8h-11.2zm.3 49.3V60.1h10.6v43.3h-10.6zM377.1 103.4v-9.2L400 68.7h-22.8v-8.6h35v9.4l-22.7 25.3h22.8v8.6h-35.2zM454.6 85h-29c-.1 3.3 1.1 6.5 3.2 8.5 1.5 1.4 3.6 2.7 6.4 2.7 3 0 4.8-.6 6.3-2.1.9-.9 1.7-2.1 2.1-3.7h10c-.2 2.6-2 6-3.7 8-3.7 4.3-9.1 6.1-14.6 6.1-5.9 0-10.3-2.1-13.7-5.3-4.3-4.2-6.7-10.3-6.7-17.3 0-6.9 2.1-13.1 6.3-17.3 3.2-3.3 7.9-5.5 13.8-5.5 6.4 0 12.3 2.6 15.8 8 3.2 4.8 3.9 9.7 3.8 15.1.1-.1 0 1.9 0 2.8zm-13-15.1c-1.4-1.5-3.6-2.5-6.6-2.5-3.2 0-5.8 1.3-7.2 3.3-1.5 1.9-2.2 3.9-2.3 6.8h18.8c-.1-3.3-1.1-5.8-2.7-7.6z" class="st16"/><path d="M98.1 43.4H38.5c-5.6 0-10.2 4.6-10.2 10.2v59.6c0 5.6 4.6 10.2 10.2 10.2h23.9v16.2l21-16.2h14.7c5.6 0 10.2-4.6 10.2-10.2V53.6c0-5.6-4.6-10.2-10.2-10.2zm-.6 61.7c0 4.1-3.3 7.4-7.4 7.4H46.6c-4.1 0-7.4-3.3-7.4-7.4V61.7c0-4.1 3.3-7.4 7.4-7.4H90c4.1 0 7.4 3.3 7.4 7.4v43.4z" class="st8"/><path d="M81.5 62.5H55.1c-4.2 0-7.7 3.4-7.7 7.7v26.4c0 4.2 3.4 7.7 7.7 7.7h26.4c4.2 0 7.7-3.4 7.7-7.7V70.2c-.1-4.2-3.5-7.7-7.7-7.7zm-.7 28.8c0 2.5-2.1 4.6-4.6 4.6H60.4c-2.5 0-4.6-2.1-4.6-4.6V75.5c0-2.5 2.1-4.6 4.6-4.6h15.8c2.5 0 4.6 2.1 4.6 4.6v15.8z" class="st8"/><path d="M73.5 86.7c0 1.1-.9 1.9-1.9 1.9H65c-1.1 0-1.9-.9-1.9-1.9v-6.6c0-1.1.9-1.9 1.9-1.9h6.6c1.1 0 1.9.9 1.9 1.9v6.6z" class="st8"/></svg>