<?xml version="1.0" ?>
<svg xmlns="http://www.w3.org/2000/svg" viewBox="0 0 1550 1135">
	<style>.a{fill:#fff}.b{fill:#ff2e1d}</style>
	<path class="a" d="m816.2 85.4l663.3 493.5-663.3 470.5-763.9-470.5z"/>
	<path fill-rule="evenodd" class="b" d="m0.5 567.4l785.9-567.1 762.7 569.9-762.7 564.2zm335.6-37.5c-73.9 99.6-90.7 91.9-128.2 95.6v35.1c3.7 0 54.3 9 85.3-18.3 14.3-10.3 45.3-47.8 45.3-47.8h102.5l-24.9 71.3h97.2l90.6-275.9c-2.4 2.8-94.6 0-132.2 9.3-55.6 14-67 38.8-135.6 130.7zm332.7 143.7c41.3 0 68.6-22 68.6-22-5.3 23.2-22 45.3-40.3 55.5-31.1 20.8-71.1 4.1-95.6 0l-17.1 33.5c0 0 64.9 22.1 112.7 22.1 60.8 0 105.2-58.1 120.4-116.4 7.7-28.6 37.5-164.5 37.5-164.5h-75.1l-9 33.8c-4-15.5-25.7-40-63.3-40-73.9 0-119.2 54.3-119.2 111.1 0 59.6 46.6 86.9 80.4 86.9zm328.7-158h38.8l9-33.8h-33.5c0 0 10.2-38.8 37.6-49.1 31-11.8 62-7.7 62-7.7v-35.1h-62c-66.2 0-103.7 48.1-115.5 91.9h-42.5l-5.3 33.8h37.5l-42.5 150.2h77.6zm196.8 115.2l-9.3 34.8h68.9l51.5-183.8h-75.1l-11.5 36.3c0 0-22-40-63.6-40-64.6 0-118.9 51.5-118.9 113.6 0 49.3 36.3 80.4 71.1 80.4 35.1 0 67.4-15.5 86.9-41.3zm-442.9-60.8c0 40-34.8 68.6-71.1 68.6-27.3 0-50.6-17.1-50.6-51.9 0-31 28.6-73.9 73.9-73.9 36.3 0 47.8 28.6 47.8 57.2zm-296.5-125.7c13.1-6.6 40.1-4.1 40.1-4.1l-44.1 116.7h-85.4c0 0 58.4-98.4 89.4-112.6zm740.7 116.7c0 40-33.6 76.3-73.9 76.3-24.5 0-44.1-22-44.1-48.1 0-40 35.1-75.1 73.9-75.1 24.8 0 44.1 22 44.1 46.9z"/>
</svg>