<?xml version="1.0" ?>
<svg xmlns="http://www.w3.org/2000/svg" fill="none" viewBox="0 0 1204 251">
	<path fill="#FF6726" d="M80.97 193.403c13.648 0 23.827-4.627 31.23-14.112l.463.231v11.799h34.47V78.194h-36.321v11.798l-.462.231c-7.866-9.253-19.202-14.111-31.232-14.111-29.149 0-51.59 24.059-51.59 58.761 0 34.933 22.441 58.53 53.441 58.53Zm7.633-31.926c-14.343 0-24.29-10.642-24.29-26.604 0-16.194 10.41-26.836 24.29-26.836 13.418 0 23.829 11.336 23.829 26.836 0 16.194-10.873 26.604-23.829 26.604Zm130.409 77.732c45.806 0 61.075-25.911 61.075-62.694V78.194h-36.321v11.104h-.463c-8.559-8.791-20.126-13.186-32.388-13.186-28.455 0-50.201 23.828-50.201 57.373 0 32.156 21.746 55.753 52.284 55.753 13.186 0 23.597-4.626 31.231-12.492l.463.231v10.411c0 11.798-9.948 21.515-29.612 21.515-12.493 0-24.985-4.396-34.471-9.948l-8.097 29.38c13.881 7.635 28.224 10.874 46.5 10.874Zm2.545-82.127c-13.649 0-24.06-9.717-24.06-24.291 0-14.575 10.18-24.523 24.06-24.523 13.418 0 23.829 9.948 23.829 24.291 0 14.344-10.18 24.523-23.829 24.523Zm133.659 36.321c35.627 0 61.074-23.829 61.074-58.53 0-34.933-25.447-58.761-61.074-58.761-36.552 0-61.306 24.291-61.306 58.761 0 34.239 24.754 58.53 61.306 58.53Zm0-31.926c-14.343 0-24.754-11.567-24.754-26.604 0-15.5 10.179-26.605 24.754-26.605 14.112 0 24.522 10.873 24.522 26.605 0 15.5-10.873 26.604-24.522 26.604Zm75.85 29.844h36.089v-50.896c0-14.806 8.791-25.679 25.911-25.679 1.851 0 5.089.231 8.559.463V76.112h-1.388c-12.492 0-24.291 6.246-32.619 17.813h-.463V78.194h-36.089V191.32Zm127.971 2.082c13.649 0 23.828-4.627 31.231-14.112l.463.231v11.799h34.47V78.194H588.88v11.798l-.463.231c-7.865-9.253-19.201-14.111-31.231-14.111-29.149 0-51.59 24.059-51.59 58.761 0 34.933 22.441 58.53 53.441 58.53Zm7.634-31.926c-14.343 0-24.291-10.642-24.291-26.604 0-16.194 10.41-26.836 24.291-26.836 13.418 0 23.828 11.336 23.828 26.836 0 16.194-10.873 26.604-23.828 26.604Z"/>
	<path fill="#344563" d="M656.09 237.126h30.306v-58.298l.463-.231c7.865 9.485 18.97 14.805 33.082 14.805 31.462 0 54.365-23.365 54.365-58.298 0-34.239-22.903-58.53-53.44-58.53-13.881 0-25.91 5.09-34.007 14.575h-.463V78.193H656.09v158.933Zm58.53-71.022c-16.657 0-29.612-12.261-29.612-30.769 0-18.276 12.03-31.694 29.38-31.694 16.194 0 29.15 12.261 29.15 31.694 0 18.045-12.03 30.769-28.918 30.769Zm116.194 27.298c12.724 0 24.753-5.32 33.313-15.731l.463.231v13.418h30.537V78.194H864.59v55.059c0 21.747-11.799 32.851-24.985 32.851-14.112 0-20.358-6.94-20.358-27.53v-60.38h-30.075v68.246c0 34.47 17.119 46.962 41.642 46.962Zm87.955-2.082h30.306V21.052h-30.306V191.32Zm91.481 2.082c29.61 0 43.73-15.268 43.73-35.164 0-22.44-14.35-27.761-38.87-36.783-11.11-4.164-16.657-7.403-16.657-12.03 0-6.015 6.017-8.328 10.637-8.328 8.33 0 18.51 3.701 27.07 12.029l14.81-22.44c-12.96-9.948-25.68-14.112-41.18-14.112-23.367 0-40.949 13.187-40.949 33.545 0 21.978 16.194 30.769 34.929 37.015 14.58 4.858 20.36 7.403 20.36 12.261 0 5.552-4.86 9.254-13.65 9.254-12.49 0-22.206-4.396-31.46-12.955l-14.575 21.052c12.261 10.642 27.761 16.656 45.805 16.656Zm164.79-59.686c0-33.082-22.21-57.142-54.13-57.142-33.55 0-57.38 23.597-57.38 58.067 0 35.396 24.52 58.761 59.23 58.761 25.21 0 39.79-9.253 49.27-21.514l-19.66-18.277c-6.02 7.403-14.81 12.724-27.53 12.724-15.27 0-26.14-8.097-29.84-21.746h79.35c.23-1.851.69-7.172.69-10.873Zm-54.37-30.769c13.19 0 21.29 7.866 24.3 19.896h-49.74c3.47-12.955 13.18-19.896 25.44-19.896Z"/>
</svg>