<svg xmlns="http://www.w3.org/2000/svg" viewBox="0 0 273.2317 119.0552">
	<defs>
		<style>
			.a{fill:#2f3641;}
		</style>
	</defs>
	<path class="a" d="M115.23,56.6824a5.5622,5.5622,0,1,0,5.515,5.604A5.5723,5.5723,0,0,0,115.23,56.6824Z"/>
	<path class="a" d="M97.5567,78.2354a4.35,4.35,0,1,0-3.485-5.064A4.351,4.351,0,0,0,97.5567,78.2354Z"/>
	<path class="a" d="M64.1927,4.6424a5.5619,5.5619,0,1,0-4.56,6.404A5.5676,5.5676,0,0,0,64.1927,4.6424Z"/>
	<path class="a" d="M64.1927,112.5734a5.5619,5.5619,0,1,0-4.56,6.404A5.5691,5.5691,0,0,0,64.1927,112.5734Z"/>
	<path class="a" d="M27.6327,13.9564a5.5655,5.5655,0,1,0,.623,7.841A5.57,5.57,0,0,0,27.6327,13.9564Z"/>
	<path class="a" d="M97.0087,96.6364a5.5648,5.5648,0,1,0,.623,7.841A5.5718,5.5718,0,0,0,97.0087,96.6364Z"/>
	<path class="a" d="M5.61,44.5954a5.5627,5.5627,0,1,0,5.517,5.604A5.57,5.57,0,0,0,5.61,44.5954Z"/>
	<path class="a" d="M124.7887,40.1224a3.4166,3.4166,0,1,0,3.386,3.442A3.4193,3.4193,0,0,0,124.7887,40.1224Z"/>
	<path class="a" d="M8.4327,82.22a5.5621,5.5621,0,1,0,7.829.745A5.5687,5.5687,0,0,0,8.4327,82.22Z"/>
	<path class="a" d="M34.7817,109.2274a5.5616,5.5616,0,1,0,6.477-4.46A5.5681,5.5681,0,0,0,34.7817,109.2274Z"/>
	<path class="a" d="M71.6967,7.8064a5.5618,5.5618,0,1,0,6.476-4.46A5.5685,5.5685,0,0,0,71.6967,7.8064Z"/>
	<path class="a" d="M72.3247,112.9794a5.5631,5.5631,0,1,0,2.096-7.582A5.5694,5.5694,0,0,0,72.3247,112.9794Z"/>
	<path class="a" d="M35.4107,11.5584a5.5633,5.5633,0,1,0,2.096-7.58A5.571,5.571,0,0,0,35.4107,11.5584Z"/>
	<path class="a" d="M103.4957,91.7224a5.5637,5.5637,0,1,0-3.266-7.154A5.571,5.571,0,0,0,103.4957,91.7224Z"/>
	<path class="a" d="M10.0267,37.7564a5.5635,5.5635,0,1,0-3.266-7.153A5.5684,5.5684,0,0,0,10.0267,37.7564Z"/>
	<path class="a" d="M7.42,74.1394A5.5609,5.5609,0,1,0,.3217,70.76,5.5685,5.5685,0,0,0,7.42,74.1394Z"/>
	<path class="a" d="M104.1037,7.3454a3.5138,3.5138,0,1,0-4.808,1.247A3.5189,3.5189,0,0,0,104.1037,7.3454Z"/>
	<path class="a" d="M28.8127,103.6884a5.5618,5.5618,0,1,0-7.61,1.975A5.5691,5.5691,0,0,0,28.8127,103.6884Z"/>
	<path class="a" d="M62.0407,26.19a3.3775,3.3775,0,1,0-2.77,3.892A3.3818,3.3818,0,0,0,62.0407,26.19Z"/>
	<path class="a" d="M62.0407,91.7514a3.3773,3.3773,0,1,0-2.77,3.887A3.3808,3.3808,0,0,0,62.0407,91.7514Z"/>
	<path class="a" d="M39.8327,31.8464a3.38,3.38,0,1,0,.38,4.766A3.3831,3.3831,0,0,0,39.8327,31.8464Z"/>
	<path class="a" d="M81.9707,82.0634a3.3807,3.3807,0,1,0,.381,4.765A3.3844,3.3844,0,0,0,81.9707,82.0634Z"/>
	<path class="a" d="M26.4557,50.4584a3.3811,3.3811,0,1,0,3.352,3.405A3.3813,3.3813,0,0,0,26.4557,50.4584Z"/>
	<path class="a" d="M91.0167,61.84a3.3806,3.3806,0,1,0,3.353,3.406A3.3832,3.3832,0,0,0,91.0167,61.84Z"/>
	<path class="a" d="M28.1717,73.3124a3.3773,3.3773,0,1,0,4.756.453A3.3816,3.3816,0,0,0,28.1717,73.3124Z"/>
	<path class="a" d="M93.2257,32.3624a3.3769,3.3769,0,1,0,4.753.454A3.3859,3.3859,0,0,0,93.2257,32.3624Z"/>
	<path class="a" d="M44.1777,89.7124a3.3773,3.3773,0,1,0,3.933-2.7051A3.374,3.374,0,0,0,44.1777,89.7124Z"/>
	<path class="a" d="M66.6,28.1114a3.377,3.377,0,1,0,3.932-2.708A3.38,3.38,0,0,0,66.6,28.1114Z"/>
	<path class="a" d="M66.9777,91.9974a3.3805,3.3805,0,1,0,1.275-4.606A3.384,3.384,0,0,0,66.9777,91.9974Z"/>
	<path class="a" d="M44.5557,30.39a3.38,3.38,0,1,0,1.275-4.601A3.384,3.384,0,0,0,44.5557,30.39Z"/>
	<path class="a" d="M85.9117,79.0814a3.38,3.38,0,1,0-1.98-4.343A3.3782,3.3782,0,0,0,85.9117,79.0814Z"/>
	<path class="a" d="M29.1407,46.3054a3.3792,3.3792,0,1,0-1.986-4.346A3.3858,3.3858,0,0,0,29.1407,46.3054Z"/>
	<path class="a" d="M27.5577,68.4064a3.3811,3.3811,0,1,0-4.313-2.057A3.3876,3.3876,0,0,0,27.5577,68.4064Z"/>
	<path class="a" d="M82.6877,36.1314a3.3786,3.3786,0,1,0-4.621,1.2A3.3794,3.3794,0,0,0,82.6877,36.1314Z"/>
	<path class="a" d="M40.5517,86.35a3.3789,3.3789,0,1,0-4.623,1.197A3.3836,3.3836,0,0,0,40.5517,86.35Z"/>
	<path class="a" d="M55.4817,16.5314a4.3478,4.3478,0,1,0-2.642,5.551A4.3547,4.3547,0,0,0,55.4817,16.5314Z"/>
	<path class="a" d="M70.1327,99.6194a4.3479,4.3479,0,1,0-2.642,5.55A4.3513,4.3513,0,0,0,70.1327,99.6194Z"/>
	<path class="a" d="M28.6,28.6634a4.3508,4.3508,0,1,0,1.544,5.954A4.3559,4.3559,0,0,0,28.6,28.6634Z"/>
	<path class="a" d="M93.2287,82.8934a4.35,4.35,0,1,0,1.545,5.954A4.3561,4.3561,0,0,0,93.2287,82.8934Z"/>
	<path class="a" d="M15.8057,55.2414a4.3483,4.3483,0,1,0,5.006,3.565A4.354,4.354,0,0,0,15.8057,55.2414Z"/>
	<path class="a" d="M23.0857,83.8224a4.3481,4.3481,0,1,0,6.131-.488A4.3545,4.3545,0,0,0,23.0857,83.8224Z"/>
	<path class="a" d="M149.9687,24.89a2.5554,2.5554,0,1,0-3.555-.64A2.5609,2.5609,0,0,0,149.9687,24.89Z"/>
	<path class="a" d="M47.0357,101.0334a4.3472,4.3472,0,1,0,4.381-4.31A4.3495,4.3495,0,0,0,47.0357,101.0334Z"/>
	<path class="a" d="M61.6887,17.9464a4.3467,4.3467,0,1,0,4.379-4.31A4.3491,4.3491,0,0,0,61.6887,17.9464Z"/>
	<path class="a" d="M76.4447,98.8294a4.35,4.35,0,1,0,.586-6.121A4.3546,4.3546,0,0,0,76.4447,98.8294Z"/>
	<path class="a" d="M34.2617,25.7624a4.3491,4.3491,0,1,0,.585-6.12A4.3522,4.3522,0,0,0,34.2617,25.7624Z"/>
	<path class="a" d="M139.5737,7.1564a3.4033,3.4033,0,1,0,1.628,4.526A3.4045,3.4045,0,0,0,139.5737,7.1564Z"/>
	<path class="a" d="M18.2777,49.3774a4.349,4.349,0,1,0-3.487-5.065A4.358,4.358,0,0,0,18.2777,49.3774Z"/>
	<path class="a" d="M117.9817,25.1394a3.596,3.596,0,1,0-4.899-1.358A3.5994,3.5994,0,0,0,117.9817,25.1394Z"/>
	<path class="a" d="M21.2107,77.7394a4.35,4.35,0,1,0-5.923-1.639A4.3548,4.3548,0,0,0,21.2107,77.7394Z"/>
	<path class="a" d="M86.8307,23.53a4.3481,4.3481,0,1,0-5.589,2.554A4.35,4.35,0,0,0,86.8307,23.53Z"/>
	<path class="a" d="M41.6887,97.5814a4.3481,4.3481,0,1,0-5.591,2.555A4.3526,4.3526,0,0,0,41.6887,97.5814Z"/>
	<path class="a" d="M56.7687,33.6984a2.6117,2.6117,0,1,0-1.588,3.332A2.6118,2.6118,0,0,0,56.7687,33.6984Z"/>
	<path class="a" d="M65.5707,83.6144a2.6106,2.6106,0,1,0-1.587,3.336A2.6125,2.6125,0,0,0,65.5707,83.6144Z"/>
	<path class="a" d="M40.62,40.9844a2.6142,2.6142,0,1,0,.928,3.581A2.6154,2.6154,0,0,0,40.62,40.9844Z"/>
	<path class="a" d="M79.4467,73.5634a2.6148,2.6148,0,1,0,.93,3.582A2.6215,2.6215,0,0,0,79.4467,73.5634Z"/>
	<path class="a" d="M32.9327,56.9534a2.61,2.61,0,1,0,3.008,2.144A2.6143,2.6143,0,0,0,32.9327,56.9534Z"/>
	<path class="a" d="M106.8417,42.1444a2.61,2.61,0,1,0,3.006,2.143A2.61,2.61,0,0,0,106.8417,42.1444Z"/>
	<path class="a" d="M37.3067,74.1244a2.6121,2.6121,0,1,0,3.682-.296A2.6174,2.6174,0,0,0,37.3067,74.1244Z"/>
	<path class="a" d="M76.1347,41.5414a2.6124,2.6124,0,1,0,3.683-.293A2.6207,2.6207,0,0,0,76.1347,41.5414Z"/>
	<path class="a" d="M51.6947,84.4624a2.6121,2.6121,0,1,0,2.631-2.585A2.6161,2.6161,0,0,0,51.6947,84.4624Z"/>
	<path class="a" d="M60.5,34.5464a2.6121,2.6121,0,1,0,2.63-2.589A2.6146,2.6146,0,0,0,60.5,34.5464Z"/>
	<path class="a" d="M69.3637,83.1384a2.6138,2.6138,0,1,0,.352-3.673A2.6149,2.6149,0,0,0,69.3637,83.1384Z"/>
	<path class="a" d="M44.0207,39.2434a2.6135,2.6135,0,1,0,.35-3.678A2.6151,2.6151,0,0,0,44.0207,39.2434Z"/>
	<path class="a" d="M82.0467,70.7644a2.6112,2.6112,0,1,0-2.091-3.039A2.61,2.61,0,0,0,82.0467,70.7644Z"/>
	<path class="a" d="M34.4187,53.4284a2.6121,2.6121,0,1,0-2.095-3.042A2.6145,2.6145,0,0,0,34.4187,53.4284Z"/>
	<path class="a" d="M98.8527,56.3384a2.6121,2.6121,0,1,0-3.561-.984A2.6187,2.6187,0,0,0,98.8527,56.3384Z"/>
	<path class="a" d="M36.18,70.4694a2.6136,2.6136,0,1,0-3.558-.984A2.62,2.62,0,0,0,36.18,70.4694Z"/>
	<path class="a" d="M73.8237,38.4944a2.6111,2.6111,0,1,0-3.355,1.533A2.6114,2.6114,0,0,0,73.8237,38.4944Z"/>
	<path class="a" d="M48.4837,82.39a2.6107,2.6107,0,1,0-3.359,1.535A2.6159,2.6159,0,0,0,48.4837,82.39Z"/>
	<path class="a" d="M60.58,40.8174a1.8959,1.8959,0,1,0-1.556,2.184A1.8984,1.8984,0,0,0,60.58,40.8174Z"/>
	<path class="a" d="M60.58,77.6144a1.896,1.896,0,1,0-1.556,2.18A1.8982,1.8982,0,0,0,60.58,77.6144Z"/>
	<path class="a" d="M48.1137,43.9924a1.8964,1.8964,0,1,0,.213,2.676A1.8974,1.8974,0,0,0,48.1137,43.9924Z"/>
	<path class="a" d="M71.7657,72.1754a1.8986,1.8986,0,1,0,.212,2.673A1.9063,1.9063,0,0,0,71.7657,72.1754Z"/>
	<path class="a" d="M40.6067,54.4364a1.9,1.9,0,1,0,1.881,1.912A1.9,1.9,0,0,0,40.6067,54.4364Z"/>
	<path class="a" d="M76.8417,60.8224a1.9,1.9,0,1,0,1.884,1.915A1.9022,1.9022,0,0,0,76.8417,60.8224Z"/>
	<path class="a" d="M41.5687,67.2664a1.8956,1.8956,0,1,0,2.67.253A1.8972,1.8972,0,0,0,41.5687,67.2664Z"/>
	<path class="a" d="M73.4357,48.8664a1.8957,1.8957,0,1,0,2.667.255A1.8991,1.8991,0,0,0,73.4357,48.8664Z"/>
	<path class="a" d="M50.5537,76.4684a1.8949,1.8949,0,1,0,2.207-1.518A1.8929,1.8929,0,0,0,50.5537,76.4684Z"/>
	<path class="a" d="M63.1387,41.8944a1.8953,1.8953,0,1,0,2.207-1.519A1.896,1.896,0,0,0,63.1387,41.8944Z"/>
	<path class="a" d="M63.3487,77.7554a1.8995,1.8995,0,1,0,.718-2.588A1.9009,1.9009,0,0,0,63.3487,77.7554Z"/>
	<path class="a" d="M50.7657,43.1734a1.8969,1.8969,0,1,0,.716-2.583A1.9007,1.9007,0,0,0,50.7657,43.1734Z"/>
	<path class="a" d="M73.9777,70.5024a1.8982,1.8982,0,1,0-1.112-2.438A1.894,1.894,0,0,0,73.9777,70.5024Z"/>
	<path class="a" d="M42.1137,52.1074a1.8968,1.8968,0,1,0-1.115-2.439A1.9015,1.9015,0,0,0,42.1137,52.1074Z"/>
	<path class="a" d="M84.3637,55.8214a1.8975,1.8975,0,1,0-2.421-1.158A1.9,1.9,0,0,0,84.3637,55.8214Z"/>
	<path class="a" d="M41.2257,64.5124a1.8987,1.8987,0,1,0-2.422-1.158A1.8986,1.8986,0,0,0,41.2257,64.5124Z"/>
	<path class="a" d="M72.1677,46.3954a1.8957,1.8957,0,1,0-2.593.674A1.8981,1.8981,0,0,0,72.1677,46.3954Z"/>
	<path class="a" d="M48.5187,74.58a1.8963,1.8963,0,1,0-2.595.673A1.8952,1.8952,0,0,0,48.5187,74.58Z"/>
	<path class="a" d="M49.3987,57.8074a9.468,9.468,0,1,0,11.026-7.59A9.4778,9.4778,0,0,0,49.3987,57.8074Z"/>
	<path class="a" d="M262.7237,66.9414l10.508,11.352h-9.596l-6.453-6.993a29.7073,29.7073,0,0,1-6.724,2.669,28.5123,28.5123,0,0,1-7.128.878,25.6416,25.6416,0,0,1-9.866-1.993,26.17,26.17,0,0,1-8.446-5.541,25.1779,25.1779,0,0,1-5.727-8.345,26.2819,26.2819,0,0,1,0-20.001,25.1732,25.1732,0,0,1,5.727-8.345,25.884,25.884,0,0,1,8.531-5.591,27.7181,27.7181,0,0,1,20.39,0,26.3291,26.3291,0,0,1,14.258,13.97,25.8785,25.8785,0,0,1,.084,19.7139A24.8812,24.8812,0,0,1,262.7237,66.9414Zm-10.034-10.98,4.764,5.102a18.8108,18.8108,0,0,0,3.311-5.692,19.8776,19.8776,0,0,0-.287-13.531,17.7663,17.7663,0,0,0-3.901-5.946,18.491,18.491,0,0,0-5.913-4.055,17.5315,17.5315,0,0,0-13.819,0,18.6748,18.6748,0,0,0-9.798,10.001,18.8461,18.8461,0,0,0-1.352,7.128,17.9128,17.9128,0,0,0,5.254,13.093,17.572,17.572,0,0,0,13.024,5.321,17.1935,17.1935,0,0,0,4.004-.456,16.7523,16.7523,0,0,0,3.801-1.437l-8.852-9.527h9.764Z"/>
	<path class="a" d="M181.2987,27.6094a4.7949,4.7949,0,1,0,2.292,6.376A4.7977,4.7977,0,0,0,181.2987,27.6094Z"/>
	<path class="a" d="M181.2987,27.6094a4.7949,4.7949,0,1,0,2.292,6.376A4.7977,4.7977,0,0,0,181.2987,27.6094Z"/>
	<path class="a" d="M181.2987,27.6094a4.7949,4.7949,0,1,0,2.292,6.376A4.7977,4.7977,0,0,0,181.2987,27.6094Z"/>
	<path class="a" d="M165.1157,73.6654h-7.331v-4.156a12.168,12.168,0,0,1-10.575,5.474q-6.79,0-10.693-4.646t-3.902-12.721q0-7.6695,3.987-12.382a14.0881,14.0881,0,0,1,17.112-3.074,9.6055,9.6055,0,0,1,4.071,4.713v-5.237h7.331v32.029Zm-7.128-16.116q0-4.968-2.314-7.737a7.9682,7.9682,0,0,0-6.471-2.77,8.06,8.06,0,0,0-6.537,2.854q-2.382,2.856-2.382,7.923,0,5.1,2.297,7.872a8.6738,8.6738,0,0,0,12.924-.236A12.02,12.02,0,0,0,157.9877,57.5494Z"/>
	<path class="a" d="M175.59,73.6654v-32.03h7.331v32.03Z"/>
	<path class="a" d="M200.7267,46.7374a10.375,10.375,0,0,1,3.125-4.696,7.5681,7.5681,0,0,1,4.814-1.521,12.6852,12.6852,0,0,1,3.058.372,14.8713,14.8713,0,0,1,2.956,1.081l-2.635,6.217a6.8008,6.8008,0,0,0-2.045-.997,8.7083,8.7083,0,0,0-2.449-.321,5.4956,5.4956,0,0,0-5.236,2.923q-1.59,2.922-1.588,9.815v14.055h-7.332V41.5684h7.332v5.169Z"/>
	<path class="a" d="M262.7237,66.9414l10.508,11.352h-9.596l-6.453-6.993a29.7073,29.7073,0,0,1-6.724,2.669,28.5123,28.5123,0,0,1-7.128.878,25.6416,25.6416,0,0,1-9.866-1.993,26.17,26.17,0,0,1-8.446-5.541,25.1779,25.1779,0,0,1-5.727-8.345,26.2819,26.2819,0,0,1,0-20.001,25.1732,25.1732,0,0,1,5.727-8.345,25.884,25.884,0,0,1,8.531-5.591,27.7181,27.7181,0,0,1,20.39,0,26.3291,26.3291,0,0,1,14.258,13.97,25.8785,25.8785,0,0,1,.084,19.7139A24.8812,24.8812,0,0,1,262.7237,66.9414Zm-10.034-10.98,4.764,5.102a18.8108,18.8108,0,0,0,3.311-5.692,19.8776,19.8776,0,0,0-.287-13.531,17.7663,17.7663,0,0,0-3.901-5.946,18.491,18.491,0,0,0-5.913-4.055,17.5315,17.5315,0,0,0-13.819,0,18.6748,18.6748,0,0,0-9.798,10.001,18.8461,18.8461,0,0,0-1.352,7.128,17.9128,17.9128,0,0,0,5.254,13.093,17.572,17.572,0,0,0,13.024,5.321,17.1935,17.1935,0,0,0,4.004-.456,16.7523,16.7523,0,0,0,3.801-1.437l-8.852-9.527h9.764Z"/>
	<path class="a" d="M181.2987,27.6094a4.7949,4.7949,0,1,0,2.292,6.376A4.7977,4.7977,0,0,0,181.2987,27.6094Z"/>
	<path class="a" d="M181.2987,27.6094a4.7949,4.7949,0,1,0,2.292,6.376A4.7977,4.7977,0,0,0,181.2987,27.6094Z"/>
	<path class="a" d="M165.1157,73.6654h-7.331v-4.156a12.168,12.168,0,0,1-10.575,5.474q-6.79,0-10.693-4.646t-3.902-12.721q0-7.6695,3.987-12.382a14.0881,14.0881,0,0,1,17.112-3.074,9.6055,9.6055,0,0,1,4.071,4.713v-5.237h7.331v32.029Zm-7.128-16.116q0-4.968-2.314-7.737a7.9682,7.9682,0,0,0-6.471-2.77,8.06,8.06,0,0,0-6.537,2.854q-2.382,2.856-2.382,7.923,0,5.1,2.297,7.872a8.6738,8.6738,0,0,0,12.924-.236A12.02,12.02,0,0,0,157.9877,57.5494Z"/>
	<path class="a" d="M175.59,73.6654v-32.03h7.331v32.03Z"/>
	<path class="a" d="M200.7267,46.7374a10.375,10.375,0,0,1,3.125-4.696,7.5681,7.5681,0,0,1,4.814-1.521,12.6852,12.6852,0,0,1,3.058.372,14.8713,14.8713,0,0,1,2.956,1.081l-2.635,6.217a6.8008,6.8008,0,0,0-2.045-.997,8.7083,8.7083,0,0,0-2.449-.321,5.4956,5.4956,0,0,0-5.236,2.923q-1.59,2.922-1.588,9.815v14.055h-7.332V41.5684h7.332v5.169Z"/>
</svg>
