<?xml version="1.0" ?>
<svg xmlns="http://www.w3.org/2000/svg" version="1.2" viewBox="0 0 1528 290">
	<style>
		.s0 { fill: #53555c } 
		.s1 { fill: #cecbcd } 
		.s2 { fill: none } 
		.s3 { fill: #00aeef } 
		.s4 { fill: #c9dc55 } 
	</style>
	<g id="Layer">
		<path id="Layer" fill-rule="evenodd" class="s0" d="m73.1 109.3c1.5-3.5 3.2-7 5.5-9.8 2-2.9 4.9-5.5 8.1-7.6 3.5-2 7.5-3.7 12.7-4.9q7.4-1.7 19.1-1.7c4.6 0 9.3 0.3 13.6 0.6 4.3 0.5 8.7 1.4 12.4 3.1 3.8 1.8 7.5 4.1 10.7 7.3 3.2 3.2 6.1 7.5 8.4 13l73.1 176.3h-67l-15.6-40.7h-71.1l-15.7 40.7h-67.3zm25.1 90.2h40.8l-17.9-50c-0.3-0.8-0.9-1.7-1.2-2.6-0.6-1.1-0.8-1.4-1.1-1.4-0.3 0-0.9 0.6-1.2 1.4-0.6 1.2-0.9 2-1.1 2.6z"/>
		<path id="Layer" class="s0" d="m230.9 87.6h63.9v198h-63.9zm141.7 198.1l-59.9-76.6c-5.7-7.3-8.6-15.6-8.6-24.9 0-3.8 0.5-7.8 1.7-11.9 1.2-4 2.6-7.5 4.6-10.1l53.2-74.6h75.7l-68.8 81.9c-1.4 1.7-2.8 3.7-4 6.3q-1.7 3.9-1.7 7.8c0 2 0.5 4.6 1.4 7.8 0.9 3.2 3.2 6.7 6.7 10.4l76.8 83.9z"/>
		<path id="Layer" fill-rule="evenodd" class="s0" d="m547.4 85.6c7.8 0.3 15.6 1.1 23.4 2.3 7.6 1.4 15.1 3.5 21.7 6.1 7 2.6 13 6.6 18.2 11.5 5.2 4.9 9.6 10.7 12.5 17.4 2.9 6.6 5.2 13.6 6.6 20.5 1.5 7.2 2.3 14.5 2.6 22 0.3 7.5 0.3 14.4 0.3 21.1 0 6.6-0.3 13.6-0.3 20.8-0.3 7.2-1.1 14.7-2.6 21.7-1.4 7.2-3.7 14.1-6.6 20.5-2.9 6.4-7.3 12.4-12.5 17.6-5.2 5-11.2 8.7-18.2 11.6q-10.4 3.9-21.7 6.1c-7.5 1.4-15.6 2-23.4 2.3-8.1 0.3-15.6 0.3-23.1 0.3-7.2 0-15 0-23.1-0.3-8.1-0.3-15.9-1.2-23.4-2.3-7.5-1.5-15.1-3.5-21.7-6.1-6.9-2.6-13-6.6-18.2-11.6-5.5-5.2-9.5-10.9-12.7-17.6-2.9-6.6-5.2-13.6-6.7-20.5q-2.1-10.9-2.6-21.7c-0.3-7.2-0.3-14.5-0.3-20.8 0-6.4 0-13.6 0.3-21.1 0.3-7.5 1.2-14.8 2.6-22 1.5-7.2 3.8-14.2 6.7-20.5 2.9-6.7 7.2-12.5 12.7-17.4 5.2-4.9 11.3-8.6 18.2-11.5q10.4-3.9 21.7-6.1c7.5-1.5 15.3-2 23.4-2.3 7.8-0.3 15.6-0.3 23.1-0.3 7.5 0 15.3 0 23.1 0.3zm-65 122q1.3 9.1 6.1 16.5 3 4.7 6.9 7.8c2.6 2 5.2 3.4 8.1 4.3q4.3 1.3 9.5 1.7c3.5 0.3 7.3 0.3 11.3 0.3 4.1 0 8.1 0 11.6-0.3q5.2-0.4 9.5-1.7 4.3-1.3 7.8-4.3c2.3-2.1 4.9-4.7 7-7.8 3.4-5.2 5.7-11 6.3-16.8q0.9-9.1 0.9-20.8c0-4.4 0-8.1 0-11.6 0-3.5-0.3-6.6-0.6-9.5-0.3-2.9-1.2-5.8-2-8.4-1.2-2.6-2.6-5.5-4.4-8.1-4.3-6.4-9.2-10.4-15-12.2-5.8-1.7-12.7-2.3-20.8-2.3-4 0-7.8 0-11.3 0.3-3.4 0.3-6.6 0.9-9.5 2-2.9 1.2-5.8 2.7-8.1 4.4-2.6 2-4.6 4.3-6.7 7.5-3.4 5.2-5.7 10.7-6.3 16.5-0.6 5.8-0.9 12.7-0.9 21.1-0.8 8.4-0.3 15.3 0.6 21.4z"/>
		<path id="Layer" class="s0" d="m850.6 236.2h109.9c4.6 0 7.8-0.6 8.9-2 1.5-1.5 2-2.6 2-4.4 0-3.1-1.4-5.5-4-6.6-2.6-1.2-5.5-2.3-8.7-3.2l-76.6-21.4c-5.7-1.4-10.7-3.7-14.1-6.6-3.5-2.9-6.4-5.8-8.4-8.4-4.6-6.4-7.8-13.3-9-21.1-1.1-7.8-1.7-15.6-1.7-22.9q0-9.5 1.7-19.9c1.2-7.2 4.7-13.6 10.7-19.7q4.8-4.7 13-8.6c5.5-2.6 12.5-3.8 20.8-3.8h130.7v49.1h-100.9c-3.7 0-6.3 0-7.5 0.3-1.4 0.3-2.3 0.6-2.9 0.9-2 1.2-3.2 2.9-3.2 5.5 0 3.2 1.8 5.5 5.5 6.9 3.8 1.5 7.2 2.6 11 3.8l66.5 17.9c4.3 1.2 8.9 2.9 14.1 5.2q7.9 3.5 13.1 8.7c2.8 2.9 5.4 6.4 7.2 10.4 1.7 3.8 3.2 7.8 4 11.9q1.3 6 1.8 12.1c0.2 4 0.2 7.5 0.2 11 0 5.8-0.5 12.4-1.4 19.6-0.9 7.3-3.8 13.9-8.1 20-2.9 3.8-5.8 6.6-8.9 8.7-3.2 2-6.4 3.4-9.9 4.6q-5.2 1.3-10.4 1.7c-3.5 0.3-6.9 0.3-10.1 0.3h-135.6v-50z"/>
		<path id="Layer" class="s0" d="m1102.7 285.6v-148.9h-70.8v-49.1h205.2v49.1h-70.8v148.9z"/>
		<path id="Layer" class="s0" d="m1243.4 87.6h63.9v198h-63.9z"/>
		<path id="Layer" class="s0" d="m1317.4 236.2h109.9c4.6 0 7.8-0.6 8.9-2 1.5-1.5 2-2.6 2-4.4 0-3.1-1.4-5.5-4-6.6-2.6-1.2-5.5-2.3-8.7-3.2l-76.6-21.4c-5.8-1.4-10.7-3.7-14.1-6.6-3.5-2.9-6.4-5.8-8.4-8.4-4.6-6.4-7.8-13.3-9-21.1-1.1-7.8-1.7-15.6-1.7-22.9q0-9.5 1.7-19.9c1.2-7.2 4.7-13.6 10.7-19.7q4.8-4.7 13-8.6c5.5-2.6 12.5-3.8 20.8-3.8h130.7v49.1h-100.6c-3.8 0-6.4 0-7.5 0.3-1.5 0.3-2.3 0.6-2.9 0.9-2 1.2-3.2 2.9-3.2 5.5 0 3.2 1.7 5.5 5.5 6.9 3.8 1.5 7.2 2.6 11 3.8l66.5 17.9c4.3 1.2 8.9 2.9 14.1 5.2q7.8 3.5 13 8.7c2.9 2.9 5.5 6.4 7.3 10.4 1.7 3.8 3.1 7.8 4 11.9q1.3 6 1.7 12.1c0.3 4 0.3 7.5 0.3 11 0 5.8-0.5 12.4-1.4 19.6-0.9 7.3-3.8 13.9-8.1 20-2.9 3.8-5.8 6.6-9 8.7-3.1 2-6.3 3.4-9.8 4.6q-5.2 1.3-10.4 1.7c-3.5 0.3-6.9 0.3-10.1 0.3h-135.6z"/>
	</g>
	<path id="Layer" class="s1" d="m452.9 71.7c0 0 163-31.5 198.3 47.1v-43.3c0.3 0.2-33.2-39.1-198.3-3.8z"/>
	<path id="Layer" class="s1" d="m612.2 14.7c0 0 163-31.5 198.3 47.2v-43.4c0 0.3-33.3-39-198.3-3.8z"/>
	<g id="Layer">
		<path id="Layer" fill-rule="evenodd" class="s2" d="m708.1 204.1c0 4.3 0.6 9 1.5 13.9 0.9 4.9 3.7 8.7 8.4 11 2.9 1.4 6.3 2 10.9 1.7 4.4-0.3 9-0.9 13.3-2.3 4.7-1.4 9-3.5 13.3-6.1 4.4-2.6 8.1-5.5 11-8.6 2.3-2.7 4.4-5.5 5.8-8.4 1.4-2.9 2.3-5.8 2.9-8.4 0.6-2.9 1.2-5.2 1.2-7.8 0-2.3 0-4.6 0-6.7v-92.5c-28.7-1.4-51.8-6.3-68.6-11.3v125.5z"/>
		<path id="Layer" class="s3" d="m776.6 89.9v92.2c0 2.1 0 4.4 0 6.7 0 2.3-0.5 4.9-1.1 7.8-0.6 2.9-1.8 5.5-2.9 8.4-1.5 2.9-3.2 5.8-5.8 8.4-2.9 3.1-6.3 6-11 8.6-4.3 2.6-8.9 4.7-13.3 6.1-4.6 1.5-8.9 2.3-13.3 2.3-4.3 0.3-8.1-0.3-10.9-1.7-4.7-2.3-7.6-5.8-8.4-11-0.9-4.9-1.5-9.5-1.5-13.9v-125.2c-18.8-5.5-29.2-10.7-29.2-10.7-6-2.9-12.1-5.5-18.2-8.1l-16.4 5.2v164.6c0 5.2 0.2 10.1 0.5 15 0.6 4.9 1.5 9.8 2.9 14.4 1.5 4.7 3.8 9 6.4 12.8 2.6 4 6.3 7.5 10.7 10.4 5.2 3.4 10.7 5.8 16.7 6.6 6.1 0.9 12.5 1.2 19.1 0.6 6.7-0.6 13.6-1.7 20.5-3.5 7-1.7 14.2-3.7 21.1-6 7-2.4 13.9-4.7 21.1-7.6 7-2.6 13.9-6 20.6-9.5 6.6-3.8 13-7.8 19-12.7 6.1-4.9 11.6-10.7 16.8-17.4 4.3-5.7 7.8-11.5 10.7-17 2.6-5.8 4.9-11.3 6.3-16.8 1.5-5.5 2.6-11 2.9-16.2 0.6-5.2 0.6-10.4 0.6-15.6v-80.1c-23.1 3.2-44.8 3.8-63.9 2.9z"/>
		<path id="Layer" class="s3" d="m840.5 72v-70l-63.9 20.6v43.6c21.7 4.6 43.4 6.1 63.9 5.8z"/>
		<path id="Layer" class="s4" d="m708.1 76.3c16.2 5.2 48 12.5 68.5 13.6v-23.7c-19.6-5.2-30.9-10.1-52.6-17.9-35.2-12.7-176.9-74.6-341.9 19.6 0 0 154.9-56.9 278.3-8.1l47.7-15.3z"/>
		<path id="Layer" class="s3" d="m708.1 78.6v-34.1l-47.7 15.3c6.1 2.4 12.2 5.2 18.3 8.1 0.2 0 10.7 5.2 29.4 10.7z"/>
		<path id="Layer" class="s4" d="m840.5 72c-20.5 0.6-43-1.2-65-6.1l-0.6 23.7c19.1 1.2 42.2 0.6 65.3-2.6 40.2-5.5 85.9-18.5 135-44.8 0.3 0-60.1 28.1-134.7 29.8z"/>
	</g>
	<g id="Layer">
		<path id="Layer" fill-rule="evenodd" class="s0" d="m1513.4 114.8c-8 0-14.5-6.3-14.5-14 0-7.8 6.5-14.1 14.5-14.1 8 0 14.4 6.3 14.4 14.1 0 7.7-6.4 14-14.4 14zm11-14c0-6.2-4.9-11.2-10.9-11.2-6 0-10.8 5-10.8 11.2 0 6.1 4.8 11.1 10.8 11.1 6 0 10.9-5 10.9-11.1zm-16.5 7.3v-13.9c1.2-0.2 3.2-0.2 5.5-0.2 2.6 0 3.7 0.2 4.9 1.1 0.9 0.6 1.5 1.8 1.5 3.2 0 1.3-1 2.4-2.6 3 1.2 0.6 1.7 1.5 2.3 3.4 0.3 2 0.5 2.8 1.1 3.4h-3.5c-0.2-0.6-0.5-1.7-1.1-3.4-0.3-1.5-1.2-2.4-2.9-2.4h-1.4v5.8zm9.3-6.8q-0.2 0-0.4-0.1v0.3q0.2-0.1 0.4-0.2zm-5.9-1.3h1.5c1.7 0 3.2-0.5 3.2-2 0-1.1-0.9-2-2.9-2-0.9 0-1.5 0-1.8 0.3z"/>
	</g>
</svg>