<?xml version="1.0" ?>
<svg xmlns="http://www.w3.org/2000/svg" version="1.2" viewBox="0 0 653 689">
	<style>
		.s0 { fill: #041e5b } 
		.s1 { fill: #505051 } 
	</style>
	<g id="#041e5bff">
		<path id="Layer" class="s0" d="m274.7 0h2.8c0.4 2.3-2.4 1.3-2.8 0z"/>
		<path id="Layer" class="s0" d="m203.3 22.2c22.2-9.8 45.5-17 69.3-21.6q1 0.7 2 1.3c-0.9 0.2-2.7 0.4-3.6 0.5-49.6 14.6-95.2 42.2-131.6 78.8-47.8 47.6-80 110.4-91.4 176.8-12.3 68.9-2.4 141.7 28.2 204.7 19.6 40.8 47.9 77.3 82.3 106.7 47.6 40.7 107.8 66.6 170.2 72.2 8.1 1.1 16.2 0.5 24.3 1.6 4.1 0.3 8.1 0 12.2-0.5 70.3-1.4 139.4-29 192.2-75.2 8.8-6.9 16.1-15.3 24.1-23 27.9-29.8 50.2-64.8 65.3-102.7 1.8-4.3 3.1-8.9 5.4-13-18.9 79.6-67.2 152-133.8 199.6-53.6 38.4-119.3 60.6-185.4 59.9-73.7 1.3-147-25.7-204-72.3-43.1-34.7-76.9-80.5-98.9-131.1-21.9-50.6-31.7-106.4-28.8-161.5 2.8-61 21.6-121.3 54.3-172.9 35.3-55.9 87-101.6 147.7-128.3z"/>
		<path id="Layer" class="s0" d="m397.5 111.5c7.8-6 17.1-9.4 26.6-11.5 7.5-1.1 15.3-1.1 22.8-0.1 12.8 2.5 25.2 8.4 34.2 17.9 12.5 11.9 19 29.1 19.2 46.2-0.5 12.4-3.9 24.9-11 35.3-2.3 3.6-5.3 6.7-8 9.9-15.8 15.6-39.8 22.4-61.3 16.7-16.1-3.9-30.6-14.4-39.1-28.7-8.4-13-10.9-29.1-8.8-44.3 2.8-16.3 11.9-31.7 25.4-41.4z"/>
	</g>
	<g id="#505051ff">
		<path id="Layer" class="s1" d="m424.2 65.8c0.6 0 1.9 0 2.5 0 10.7 2.9 21.5 5.5 31.9 9.5 30.4 11.2 58.6 28.6 82.1 51 5.4 4.3 9.6 9.7 14.3 14.7 33.1 36.6 54.6 83.3 61.5 132.1 2.8 16.5 2.3 33.3 2.2 49.9-2 48.7-19 96.6-47.6 136-26 35.7-61.7 64.5-102.6 81.5-25.2 10.4-52.2 16.7-79.6 17.9-15 1.1-30-0.3-44.9-2-38.4-5.5-75.4-20.6-106.6-43.7-31-22.8-56.5-53-74-87.3-2.2-4.5-4.5-9-6.2-13.7 3.9 5 6.5 10.8 10.3 15.8 28.9 43.2 72.7 76.2 122.5 91.4 19.7 5.9 40.3 9.6 61 9.2 55.8 1.7 111.3-20.3 152.4-57.7 38.3-34.3 64.7-81.7 74.3-132.2 11.3-57.7 1.1-119.5-29.1-170.1-23.5-40.3-59.5-73.2-101.8-93-7.4-3.4-15.1-6.1-22.6-9.3z"/>
		<path id="Layer" class="s1" d="m327.6 133.6c7.9-13.2 18.3-25.3 31.6-33.3-12.9 15.7-21.3 35.3-22.5 55.7-0.1 5.7-0.2 11.3 0 17 2.3 27.4 16.9 53.9 39.6 69.7 15.2 10.8 34 16.6 52.7 15.6 29.4-0.9 56.9-18.7 71.6-43.8 6.7-10.6 10.4-22.8 13-34.9 0.4 10.8 0.4 21.9-2.6 32.5-7.2 33-31.9 61.8-63.8 73.3-29.7 11-64.7 6.4-90.3-12.2-15.7-11-27.9-26.8-35.4-44.3-5.8-14.5-8.9-30.3-8.3-45.9 1.1-17.3 5.6-34.4 14.4-49.4z"/>
	</g>
</svg>