<?xml version="1.0" ?>
<svg xmlns="http://www.w3.org/2000/svg" version="1.2" viewBox="0 0 1539 1411">
	<style>
		.s0 { fill: #b6947d } 
	</style>
	<g id="Clip-Path: Clip-Path: Page 1" clip-path="url(#cp1)">
		<g id="Clip-Path: Page 1">
			<g id="Page 1">
				<path id="Path 3" fill-rule="evenodd" class="s0" d="m60 903c-39.3-39.3-59.1-91.2-59.1-142.8 0-51.6 19.8-103.5 59.1-142.9l564.3-559.1c81.5-76.4 212.1-76.4 291.1 0l564.2 559.1c79 78.7 79 206.7 0 285.7l-92.4 89.8c67.9-66.3 67.5-173.8-1.4-242.4l-492.8-487.6c-68.9-66.8-177.5-66.8-246.4 0l-492.8 487.7c-66.7 68.8-66.7 177.1 0 243.8zm1326.9 89.8q-0.4 0.7-1.1 1.1zm-249.6 254.6q-0.2 0.2-0.4 0.4zm-0.4-157.2l-286.1-283.2c-44.4-44.3-118.3-44.3-162.7 0l-285.7 283.2c-42.9 42.9-44.4 110.7-4.3 153.3l-59.9-59.9c-56.7-54.1-56.7-145.3 0-196.9l330.4-330.1c56.7-54.1 145.4-54.1 202 0l330.1 330.1c56.7 51.6 56.7 142.8 0 196.9l-63.4 63.8c41.4-41.9 41.3-113-0.4-157.2zm-177.5 320.3c19.8-19.8 19.8-56.6 0-79l-145.4-145c-24.5-22.4-61.3-22.4-83.7 0l-145.4 145c-22.3 22.4-22.3 59.2 0 79l-34.6-29.6c-29.6-29.5-29.6-73.9 0-103.5l170.3-167.4c27-27 73.9-27 103.5 0l167.4 167.4c29.6 29.6 29.6 74 0 103.5zm-561.3-167l4.3 4.4z"/>
			</g>
		</g>
	</g>
</svg>