<?xml version="1.0" ?>
<svg xmlns="http://www.w3.org/2000/svg" viewBox="0 0 914 1559">
	<style>
		.s0 { fill: #30348b } 
	</style>
	<path id="Layer" class="s0" d="m50.3 374.2c-33.5 24.5-50.3 59.1-50.3 100.5 0 192.3 0.6 384.6 1 576.8 0.1 91.8 0.1 183.5 0.2 275.2 0 2.8 0.3 5.6 0.4 8.7 1.5-0.6 2.3-0.8 2.9-1.2 55.4-40.7 111.1-80.9 165.9-122.2 30.7-23.1 44.8-55.1 44.7-93.7-0.2-67.7 0.1-135.4 0.2-203.2q0.2-203.6 0.4-407.2c0-3.2 0.2-6.4 0.2-9.6v-240.8c-1.6 0.8-2.6 1.2-3.4 1.8-54.2 38.2-108.8 75.8-162.2 114.9zm705.2-36.9c-37.2 26.4-56.4 62-56.2 107.8 0.1 34.4 0.1 68.8 0.2 103.3 0.1 248.3 0.1 496.5 0.2 744.8v9.7c2.3-1.4 3.7-2 4.9-2.9 54.4-40.2 108.9-80.1 162.9-120.9 27.8-21 42.8-49.9 44.2-85 0.9-23.2 0.8-46.4 0.9-69.6 0.1-71.7 0.2-143.4 0.2-215.2 0.1-187.5 0.2-375 0.3-562.5v-21.4c-3 1.9-4.5 2.9-6 3.9-50.5 36-100.9 72.2-151.6 108zm-191-337.1c-3.8 2.5-6.3 3.9-8.6 5.6-49.5 35.9-99.1 71.8-148.6 107.9-38.9 28.3-57.9 66.3-57.8 114.8 0.4 177.6 0.2 355.2 0.3 532.8v10c3.7-2.6 6.3-4.2 8.8-6 50.1-35.7 99.9-71.7 150.4-106.9 37.5-26.2 55.6-61.6 55.6-107.1-0.2-177.9-0.1-355.7-0.1-533.5zm-0.6 788.4c-1.7 1-2.7 1.4-3.5 2-52.8 38.3-105.9 76.2-158.1 115.2-34.8 25.9-52.6 61.7-52.6 105.3-0.1 176.5 0 353.1 0 529.6v18.2c2.3-1.2 3.5-1.7 4.5-2.4 54.2-38.6 108.7-76.8 162.5-116 31.2-22.8 47.4-54.9 47.4-93.3 0.5-183.7 0.3-367.5 0.3-551.2 0-2.3-0.3-4.5-0.5-7.4z"/>
</svg>