<?xml version="1.0" ?>
<svg xmlns="http://www.w3.org/2000/svg" viewBox="0 0 1518 824">
	<style>.a{fill:#07529b}</style>
	<path class="a" d="m0.9 409.7l762.7-409.6 754 414-758.3 409.6zm934.5 266.2h-73.3c-3.8-10-8.6-24.6-14.3-44-2.3-8.8-4-14.6-5.2-17.6-25.6 24.9-52.6 43.3-81.6 55.8-28.9 12.3-59.9 18.5-92.8 18.5-28.6 0-54.2-3.9-76.9-11.5l170.1 91.6zm-261-571.4c19.9-2.8 42-4.2 65.8-4.2 66.6 0 116 8 148.5 23.7 32.4 15.7 55.3 35.6 68.6 59.9 13.1 24.2 19.9 68.5 19.9 133.3l-1.6 173.9c0 49.3 2.3 85.8 7.2 109.4 2.7 13.8 7 28.3 12.7 43.4l430.4-229.5-660.8-358zm-42.7 180.3l-135.2-24.4c9.1-32.5 21.9-59.9 38.7-82.2l-438.5 232.4 444.2 239.3q-5-4-9.6-8.4c-33.6-31.5-50.1-71.3-50.1-119.5 0-31.6 7.5-59.9 22.8-84.9 15.1-25 36.5-44 63.8-57.2 27.3-13.2 67-24.8 118.5-34.7 69.5-13.1 117.7-25.4 144.6-36.6v-14.8c0-28.8-7.2-49-21.2-61.3-14.1-12.2-40.7-18.3-80-18.3-26.6 0-47.2 5.3-62 15.7-14.9 10.3-26.8 28.6-36 54.9zm199.2 120.7c-19 6.3-49.3 13.9-90.7 22.8-41.3 8.9-68.2 17.6-81 25.9-19.4 13.9-29.1 31.2-29.1 52.4 0 21 7.7 38.9 23.3 54.1q23.3 22.8 59.3 22.8c27 0 52.4-8.9 76.9-26.4 18.1-13.4 29.9-29.8 35.4-49.4 4-12.6 5.9-36.9 5.9-72.5z"/>
</svg>