<?xml version="1.0" ?>
<svg xmlns="http://www.w3.org/2000/svg" viewBox="0 0 439 370" enable-background="new 0 0 439 370">
	<style type="text/css">
	.st0{fill:#FECD0E;}
	.st1{fill:#25A3D6;}
</style>
	<g>
		<g>
			<path class="st0" d="M312,234.3c-62.2,0-112.8-50.6-112.8-112.8S249.8,8.7,312,8.7c11,0,21.9,1.6,32.3,4.7    c10.6,3.2,16.6,14.3,13.4,24.9s-14.3,16.6-24.9,13.4c-6.7-2-13.8-3-20.9-3c-40.1,0-72.8,32.7-72.8,72.8s32.7,72.8,72.8,72.8    s72.8-32.7,72.8-72.8c0-7.6-1.1-15-3.4-22.1c-3.3-10.5,2.5-21.8,13-25.1c10.5-3.4,21.8,2.5,25.1,13c3.5,11,5.3,22.5,5.3,34.2    C424.8,183.7,374.2,234.3,312,234.3z"/>
			<path class="st1" d="M312,194.3c-40.1,0-72.8-32.7-72.8-72.8c0-1.5-0.2-2.9-0.5-4.3C236.5,57,186.8,8.7,126,8.7    C63.8,8.7,13.2,59.3,13.2,121.5S63.8,234.3,126,234.3c38.6,0,72.6-19.4,93-49c20.4,29.6,54.4,49,93,49c11,0,20-9,20-20    S323,194.3,312,194.3z M126,194.3c-40.1,0-72.8-32.7-72.8-72.8S85.9,48.7,126,48.7s72.8,32.7,72.8,72.8S166.1,194.3,126,194.3z"/>
			<circle class="st1" cx="377.5" cy="55.6" r="20"/>
		</g>
		<g>
			<path class="st0" d="M66.8,346.3c-4.7,3.7-9.3,6.4-13.7,8.3c-4.4,1.8-9.4,2.8-14.9,2.8c-5,0-9.4-1-13.2-3s-6.7-4.7-8.8-8.1    s-3.1-7.1-3.1-11c0-5.3,1.7-9.9,5.1-13.7c3.4-3.8,8-6.3,14-7.6c1.2-0.3,4.3-0.9,9.2-1.9s9.1-1.9,12.6-2.8c3.5-0.8,7.3-1.8,11.4-3    c-0.3-5.2-1.3-8.9-3.1-11.4c-1.8-2.4-5.7-3.6-11.4-3.6c-5,0-8.7,0.7-11.2,2.1s-4.7,3.5-6.4,6.2c-1.8,2.8-3.1,4.6-3.8,5.5    c-0.7,0.9-2.3,1.3-4.8,1.3c-2.2,0-4.1-0.7-5.7-2.1s-2.4-3.2-2.4-5.4c0-3.4,1.2-6.8,3.6-10s6.2-5.9,11.4-8s11.6-3.2,19.3-3.2    c8.6,0,15.4,1,20.3,3s8.4,5.2,10.4,9.6s3,10.2,3,17.5c0,4.6,0,8.5,0,11.7s-0.1,6.8-0.1,10.7c0,3.7,0.6,7.5,1.8,11.5    c1.2,4,1.8,6.6,1.8,7.7c0,2-0.9,3.8-2.8,5.5c-1.9,1.6-4,2.5-6.4,2.5c-2,0-4-0.9-5.9-2.8C71.1,352.6,69,349.9,66.8,346.3z     M65.6,318c-2.9,1.1-7,2.2-12.5,3.3c-5.5,1.2-9.3,2-11.4,2.6c-2.1,0.5-4.1,1.6-6,3.2s-2.9,3.8-2.9,6.7c0,3,1.1,5.5,3.4,7.6    c2.2,2.1,5.2,3.1,8.8,3.1c3.9,0,7.4-0.8,10.7-2.5s5.7-3.9,7.2-6.6c1.8-3,2.7-7.8,2.7-14.6V318z"/>
			<path class="st0" d="M97.4,345.4v-84.8c0-3.9,0.9-6.9,2.6-8.9s4.1-3,7.1-3c2.9,0,5.3,1,7.2,3c1.8,2,2.7,5,2.7,8.9v84.8    c0,4-0.9,6.9-2.8,8.9c-1.8,2-4.2,3-7.1,3s-5.2-1-7-3.1C98.3,352.2,97.4,349.2,97.4,345.4z"/>
			<path class="st0" d="M130,345.4v-84.8c0-3.9,0.9-6.9,2.6-8.9c1.7-2,4.1-3,7-3c3,0,5.3,1,7.2,3c1.8,2,2.7,5,2.7,8.9v84.8    c0,4-0.9,6.9-2.8,8.9c-1.8,2-4.2,3-7.1,3c-2.9,0-5.2-1-7-3.1C130.9,352.2,130,349.2,130,345.4z"/>
			<path class="st1" d="M259.9,312.8v20.1c0,2.7-0.3,4.8-0.8,6.4s-1.5,3-2.9,4.3s-3.2,2.5-5.4,3.7c-6.4,3.4-12.5,5.9-18.3,7.5    c-5.9,1.6-12.3,2.4-19.2,2.4c-8.1,0-15.4-1.2-22.1-3.7c-6.6-2.5-12.3-6.1-17-10.8c-4.7-4.7-8.3-10.5-10.8-17.2s-3.8-14.3-3.8-22.6    c0-8.2,1.2-15.6,3.6-22.4c2.4-6.8,6-12.5,10.8-17.3c4.7-4.7,10.5-8.3,17.3-10.9c6.8-2.5,14.5-3.8,23.1-3.8    c7.1,0,13.3,0.9,18.8,2.8c5.5,1.9,9.9,4.3,13.3,7.1c3.4,2.9,5.9,5.9,7.7,9.1c1.7,3.2,2.6,6,2.6,8.5c0,2.7-1,5-3,6.8    c-2,1.9-4.4,2.8-7.1,2.8c-1.5,0-3-0.4-4.4-1.1s-2.6-1.7-3.5-3c-2.6-4.1-4.9-7.2-6.7-9.3c-1.8-2.1-4.3-3.9-7.3-5.3    c-3.1-1.4-7-2.2-11.8-2.2c-4.9,0-9.3,0.9-13.2,2.5c-3.9,1.7-7.2,4.2-9.9,7.4c-2.7,3.2-4.8,7.2-6.3,11.9c-1.5,4.7-2.2,9.9-2.2,15.5    c0,12.3,2.8,21.8,8.5,28.4s13.6,10,23.7,10c4.9,0,9.5-0.6,13.9-1.9c4.3-1.3,8.7-3.1,13.1-5.5v-17h-16.5c-4,0-7-0.6-9-1.8    c-2-1.2-3-3.2-3-6.1c0-2.3,0.8-4.3,2.5-5.8s4-2.3,6.9-2.3h24.1c3,0,5.5,0.3,7.5,0.8s3.7,1.7,5,3.5    C259.2,306.5,259.9,309.2,259.9,312.8z"/>
			<path class="st1" d="M326.2,322.3H288c0,4.4,0.9,8.4,2.7,11.7c1.7,3.4,4.1,5.9,6.9,7.7c2.9,1.7,6.1,2.6,9.6,2.6    c2.3,0,4.5-0.3,6.4-0.8s3.8-1.4,5.6-2.6c1.8-1.2,3.5-2.4,5-3.8c1.5-1.3,3.5-3.2,5.9-5.4c1-0.9,2.4-1.3,4.3-1.3    c2,0,3.6,0.5,4.9,1.6c1.2,1.1,1.9,2.7,1.9,4.7c0,1.8-0.7,3.8-2.1,6.2c-1.4,2.4-3.5,4.6-6.3,6.8c-2.8,2.2-6.3,4-10.5,5.4    s-9.1,2.1-14.6,2.1c-12.6,0-22.3-3.6-29.3-10.7c-7-7.2-10.5-16.9-10.5-29.2c0-5.8,0.9-11.1,2.6-16.1c1.7-4.9,4.2-9.2,7.5-12.7    s7.3-6.2,12.2-8.1c4.8-1.9,10.2-2.8,16-2.8c7.6,0,14.2,1.6,19.7,4.8c5.5,3.2,9.6,7.4,12.3,12.5c2.7,5.1,4.1,10.3,4.1,15.6    c0,4.9-1.4,8.1-4.2,9.6C335.3,321.6,331.3,322.3,326.2,322.3z M287.9,311.2h35.5c-0.5-6.7-2.3-11.7-5.4-15s-7.3-5-12.4-5    c-4.9,0-8.9,1.7-12,5C290.5,299.7,288.6,304.7,287.9,311.2z"/>
			<path class="st1" d="M424.8,317.5c0,5.8-0.9,11.2-2.7,16.1c-1.8,4.9-4.4,9.1-7.9,12.7c-3.4,3.5-7.5,6.3-12.3,8.1    c-4.8,1.9-10.1,2.8-16.1,2.8c-5.9,0-11.2-1-16-2.9c-4.7-1.9-8.8-4.6-12.3-8.2s-6.1-7.8-7.9-12.6c-1.8-4.8-2.7-10.2-2.7-16.1    s0.9-11.3,2.7-16.3c1.8-4.9,4.4-9.1,7.8-12.6s7.5-6.2,12.3-8.1s10.1-2.8,16-2.8s11.3,1,16.1,2.9c4.8,1.9,9,4.6,12.4,8.2    c3.4,3.5,6.1,7.7,7.8,12.6C423.9,306.3,424.8,311.7,424.8,317.5z M405.2,317.5c0-8-1.8-14.2-5.3-18.6s-8.2-6.7-14.1-6.7    c-3.8,0-7.2,1-10.1,3s-5.2,4.9-6.7,8.8c-1.6,3.9-2.4,8.4-2.4,13.5s0.8,9.6,2.3,13.4s3.8,6.7,6.7,8.8c2.9,2,6.3,3,10.2,3    c5.9,0,10.6-2.2,14.1-6.7C403.4,331.6,405.2,325.4,405.2,317.5z"/>
		</g>
	</g>
</svg>