<?xml version="1.0" ?>
<svg xmlns="http://www.w3.org/2000/svg" version="1.2" viewBox="0 0 1543 399">
	<defs>
		<clipPath clipPathUnits="userSpaceOnUse" id="cp1">
			<path d="m-379.9-423.1h6062.34v3410.08h-6062.34z"/>
		</clipPath>
	</defs>
	<style>
		.s0 { fill: #005eb8 } 
	</style>
	<g id="Clip-Path: Page 1" clip-path="url(#cp1)">
		<g id="Page 1">
			<path id="Path 6" fill-rule="evenodd" class="s0" d="m1497.8 221h44.3v35.4h-44.3v56.2c0 14.2 2.9 19.3 28.5 19.3h14.8v44.2c-120.9 4.4-135.8-1.3-135.8-54.7v-65h-32.5v-35.4h34.1v-48.3h90.9zm-134.1 63.2v93.1h-92.2v-82.1c0-15.5-6.4-29-32.6-29-28.1 0-35.6 12.3-35.6 31.9v79.2h-92.2v-155.3h84.3v24.3c20.8-18.7 43.2-28.8 78.3-28.8 61.2 0 90 24 90 66.7zm-377.4 42.3h88.4c-16.1 38.5-74.5 51.1-128.8 51.1-74.2 0-132-28.4-132-80.5 0-50.8 57.2-83.3 131.7-83.3 86.2 0 138 39.7 136.4 95.9h-175.9c0 18 21.5 30.4 45.8 30.4 14.5 0 27.8-4.5 34.4-13.6zm-80.2-52.4h84c0-14.2-19.2-27.2-40.7-27.2-27.8 0-43.3 10.4-43.3 27.2z"/>
			<path id="Path 7" fill-rule="evenodd" class="s0" d="m1304.6 72c-81.1-33.8-186.3-56.8-303.7-45.5-104.5 10.1-212.8 44.5-308.5 81.2-58.4 22.4-132 52.4-148.7 59v210.6h-92.6v-168.9c-67.2 30.3-161.9 72.9-252.9 111.8l-35.3 57.4-104.9 0.4c-13.2 5-30.3 11-57.4 20.8l229.8-106.4c0 0 11.1-5.1 29.7-13.9l-18.9-29.7-25 31.6-155.6 72 126.6-188.2h115.5l44.6 74.2c31.9-14.9 67.5-31.3 103.8-48v-26.2h57.8c79.9-36.3 152.5-67.9 178.4-78 113.4-44.5 329.7-131.4 547.2-56.8 73 24.9 114.6 44.2 174.6 82.1 51.8 32.8 69.2 46.1 88.7 60.3v0.9c0-1.2-104.8-63.8-193.2-100.7zm-761.3 92.2h-34.4l-57.4 26.2v17.7l91.8-41.4zm154.4 58.4h92.2v155.1h-92.2zm0-63.8h92.2v43.9h-92.2zm-123.1 5.3h92.2v213.2h-92.2zm-209.6 100.7l77 112.7h-115.9l-45.8-75.8z"/>
		</g>
	</g>
</svg>