<?xml version="1.0" ?>
<svg xmlns="http://www.w3.org/2000/svg" viewBox="0 0 96.679052 53.35762">
	<g fill-rule="evenodd" stroke-width="1.74871" transform="matrix(.57184953 0 0 .57184953 -.026905 .998178)">
		<g>
			<path d="m53.86.06c2.43-.09 4.86-.04 7.29.01 1.21.03 2.43.07 3.64.12 1.22.04 2.43.11 3.64.17 4.85.26 9.69.68 14.51 1.22 9.64 1.08 19.23 2.65 28.72 4.67l1.61.35c4.2.92 8.39 1.93 12.54 3.06 2.35.63 4.68 1.31 7 2.01 2.31.72 4.63 1.45 6.92 2.25 2.3.8 4.58 1.63 6.83 2.54 1.14.44 2.25.92 3.37 1.4 1.12.49 2.22 1.03 3.28 1.64 2.13 1.22 4.13 2.69 5.84 4.46 1.7 1.78 3.11 3.88 3.94 6.22.17.46.3.93.42 1.4l.04.12c.45 1.89.53 3.87.22 5.79-.39 2.45-1.4 4.77-2.75 6.82-1.37 2.05-3.08 3.85-4.98 5.39-1.49083 1.202741-3.0835 2.273447-4.76 3.2l7.21.03 5.27.02c1.75.01 3.51.02 5.27.19.11.02.19.11.18.22-.01.1-.09.17-.18.18-1.75.18-3.51.19-5.27.19l-5.27.02-10.55.04-21.09.08-42.18.06-42.18-.06-21.09-.08-10.55-.04-5.27-.02c-1.75-.01-3.51-.02-5.27-.19-.2172662.03161-.2172662-.411607 0-.38 1.75-.18 3.51-.19 5.27-.19l5.27-.02 4.24-.02c-1.590019-1.206899-3.039141-2.588932-4.32-4.12-1.59-1.87-2.91-3.99-3.84-6.28-.94-2.29-1.47-4.75-1.54-7.23-.08-2.48.31-4.96 1.01-7.32 1.41-4.74 4.11-9.02 7.49-12.57 3.39-3.57 7.45-6.43 11.8-8.66 4.36-2.22 9.02-3.82 13.78-4.89s9.62-1.64 14.49-1.8zm-27.45 46.83c-2.41.22-4.82.46-7.23.75-.76.09-1.51.19-2.26.29.136 2.927 1.75 4.647 2.044 4.944l.046.046 2.27-.01 4.77-.02c-.08-.272-.16-.646-.189-.785l-.011-.055c-.08-.49-.13-.97-.13-1.47-.02-1 .16-1.99.44-2.93.08-.26.16-.51.25-.76zm123.77 2.04s-4.1 2.81-6.39 3.95l4.05.02 1.99.01c1.9-.99 3.73-2.14 5.4-3.47zm-134.23-.87-1.26.19c-1.02.17-2.03.35-3.04.55.64.75 1.32 1.47 2.04 2.15.75.71 1.55 1.39 2.39 1.96l1.85-.01-.27-.33c-.27-.36-.51-.75-.72-1.16-.42-.81-.7-1.69-.87-2.58-.05-.25-.09-.51-.12-.77zm26.31-2.27c-10.02.45-14.44.98-14.45.98-.18.41-.35.83-.5 1.25-.28.84-.48 1.71-.54 2.58-.03.44-.02.89.02 1.33.02.22.05.44.09.65.02.1.04.21.07.31l11.13-.04.06-.3c.05-.26.12-.5.2-.74.07-.25.17-.47.26-.71.11-.23.21-.46.32-.68.45-.88.98-1.71 1.57-2.49.56-.75 1.15-1.45 1.77-2.14zm100.78 2.46-.44.31c-2.25 1.53-4.56 2.95-6.91 4.3l6.66.03 1.38-.81c.56-.32 1.11-.65 1.65-.99l1.63-1.01 1.6-1.06.3-.21zm-80.23-3.21c-5.48.1-10.96.27-16.43.52l-2.29.12c-.28.28-.55.56-.81.84-.65.69-1.28 1.38-1.86 2.11-.57.74-1.13 1.48-1.59 2.27-.12.2-.22.4-.33.6-.09.21-.2.41-.28.62 0 0-.16.42-.24.72l3.4-.01 12.15-.02c2.7-3.99 8.27-7.74 8.28-7.77zm71.46 2.45c-.14.09-.27.18-.4.27-1.61798 1.073112-3.2618 2.106751-4.93 3.1-.84.5-1.68.98-2.53 1.46-.3.17-.61.34-.91.5l1.24-.02 7.46.03c2.5-1.52 4.97-3.08 7.39-4.73-1.44-.13-2.88-.25-4.32-.37zm-12.35-.86-10.35 6.18 11.318.01h.872l4.64-2.83c1.4-.87 2.79-1.74 4.17-2.62-3.55-.27-7.1-.52-10.65-.74zm-15.23-.82-11.78 6.97 15.09.02 1.15-.79 1.46-.94c.98-.62 1.95-1.24 2.93-1.84l2.94-1.81 1.49-.91c-.29-.01-.57-.03-.86-.05-4.14-.25-8.28-.46-12.42-.65zm-37.59-.82c-1.38 0-2.76.02-4.14.04-6.55 4.03-9.38 7.78-9.37 7.77l17.97-.02c6.41-4.98 11.93-7.65 11.93-7.65-.92-.02-1.83-.04-2.74-.05-3.03-.04-6.07-.08-9.1-.08zm18.69.18c-6.55 3.36-12.79 7.61-12.79 7.61l9.56-.02 8.9.01c3.28-2.15 11.21-7.06 11.21-7.06zm71.44-4.66c-1.18 1.61-2.56 3.08-4.02 4.43-1.34278 1.213529-2.7516 2.351931-4.22 3.41l4.91.55c1.7-1.44 3.24-3.09 4.46-4.94.58113-.88924 1.08625-1.82589 1.51-2.8-.88-.22-1.76-.44-2.64-.65zm-5.18-1.18-.02.02c-1.16563 1.147388-2.37312 2.25147-3.62 3.31-2.07 1.76-4.24 3.4-6.46 4.96l2.45.24 3.35.36c1.71-1.2 3.36-2.48 4.9-3.88 1.35795-1.232518 2.606-2.580945 3.73-4.03-1.44-.34-2.88-.67-4.33-.98zm-132.26-7c-1.24.18-2.48.37-3.71.59-1.64.28-3.27.61-4.88.98-.75.18-1.5.37-2.25.57-.17.45-.33.91-.48 1.37-1.52 4.79-.44 9.46.15 11.68l.43.55c1.16-.26 2.32-.49 3.49-.69.44-.08.89-.15 1.33-.22-.02-.34-.03-.68-.02-1.02.01-.9.11-1.8.28-2.68.35-1.76.97-3.45 1.74-5.05.78-1.6 1.73-3.1 2.75-4.54.38-.52.77-1.03 1.17-1.54zm125.59 5.63c-1.30291 1.065734-2.62649 2.105932-3.97 3.12-1.55 1.17-3.13 2.31-4.72 3.42-1.12.78-2.24 1.55-3.36 2.3l2.02.18c1.73.15 3.46.32 5.19.49 1.18-.81 2.35-1.65 3.49-2.51 1.29306-.966103 2.56018-1.966457 3.8-3 1.09-.92 2.16-1.87 3.19-2.86-1.88-.4-3.76-.78-5.64-1.14zm-107.03-7.36c-5.6.3-11.19.75-16.74 1.48-.69.82-1.35 1.66-1.98 2.52-1 1.39-1.91 2.83-2.67 4.35-.78 1.5-1.38 3.09-1.77 4.73-.24 1.09-.38 2.21-.34 3.33.74-.11 1.47-.22 2.21-.32 2.6-.36 5.2-.65 7.81-.9.13-.28.26-.56.4-.83.45-.86.95-1.68 1.49-2.47 2.17-3.16 4.83-5.9 7.6-8.46 1.3-1.18 2.63-2.32 3.99-3.43zm97.42 5.67c-1.36.95-2.72 1.9-4.1 2.82-3.45 2.31-6.94 4.54-10.46 6.73 3.49.26 6.98.54 10.47.85 3.12-2.02 6.19-4.12 9.16-6.35 1.12-.85 2.23-1.7 3.33-2.58-1.24-.23-2.48-.46-3.72-.68-1.56-.27-3.12-.53-4.68-.79zm-11.97-1.81c-1.33.82-2.66 1.63-3.99 2.44-4.48 2.71-8.99 5.36-13.51 7.98 3.62.19 7.25.42 10.87.66l2.15.15.11-.07c3.93-2.41 7.82-4.86 11.65-7.41 1.08-.71 2.15-1.44 3.22-2.18-3.49-.57-6.99-1.09-10.5-1.57zm-63.38-4.4c-6.51-.02-13.02.09-19.52.39l-.39.02c-1.82 1.44-3.59 2.92-5.28 4.49-2.72 2.53-5.29 5.24-7.38 8.26 0 0-1.07 1.63-1.47 2.4 5.02-.46 10.05-.82 15.08-1.09l.93-.92c2.79-2.66 5.79-5.06 8.88-7.33 2.98-2.18 6.04-4.25 9.15-6.22zm-52.85 4.79c-1.12.34-2.23.71-3.31 1.14.11 2.13.58 4.24 1.37 6.21.46 1.18 1.04 2.32 1.71 3.41-.34-1.38-.67-3.41-.6-5.5.06-1.58.2-3.09.63-4.6.06-.22.13-.44.2-.66zm100.44-2.27-2.82 1.6-16.86 9.54c-.24.14-.47.28-.71.41l2.25.06c3.04.11 6.08.19 9.11.34 1.77.07 3.53.15 5.3.24l17.83-10.54-1.42-.19c-1.65-.23-3.31-.41-4.96-.61l-2.48-.3-2.49-.26zm-45.31-2.5c-3.65 2.28-7.23 4.67-10.69 7.22-3.01 2.23-5.94 4.59-8.65 7.15.32-.02.64-.04.96-.05 6.07-.29 12.14-.5 18.22-.57 0 0 .01 0 .01.01.72-.5 1.45-.99 2.18-1.47 1.52-1.01 3.06-1.98 4.6-2.94 4.98-3.07 10.07-5.94 15.21-8.7-.39-.03-.79-.05-1.19-.07l-2.5-.11-4.99-.22-5-.13c-2.72-.09-5.44-.1-8.16-.12zm24.09.79c-5.7 3.05-11.33 6.21-16.82 9.6-1.76 1.08-3.5 2.2-5.22 3.35l2.34-.01 4.56.03c3.04.01 6.07.07 9.11.12 1.53.02 3.06.06 4.59.09.79-.46 1.59-.91 2.39-1.37 5.62-3.19 11.26-6.34 16.89-9.5l1.45-.81-.3-.03-4.98-.45c-1.66-.16-3.32-.28-4.98-.41-1.66-.12-3.32-.26-4.98-.37zm74.21 2.22c-.98 3.35-3.34 6.81-3.34 6.82.82.21 1.64.42 2.46.64.39-1.02.69-2.07.86-3.15.23-1.42.23-2.88.02-4.31zm-2.62-2.01-.27.54c-.78 1.47-1.73 2.82-2.76 4.1-.84 1.04-1.74 2.03-2.67 2.98 1.39.32 2.78.65 4.16 1 2.57-3.26 3.92-7.71 3.93-7.71-.8-.31-1.59-.61-2.39-.91zm-4.4-1.58c-1.11 1.45-2.36 2.78-3.65 4.06-1.32 1.3-2.71 2.53-4.13 3.72 1.83.38 3.65.77 5.47 1.18 1.06-1.05 2.08-2.13 3.04-3.27 1.03-1.23 1.98-2.53 2.78-3.91.09-.14.16-.29.24-.44-1.25-.46-2.5-.91-3.75-1.34zm-6.84-2.25c-4.66 4.49-10.3 8.25-10.29 8.26 1.25.22 2.51.44 3.76.68 1.47.28 2.94.56 4.41.86 1.61-1.32 3.19-2.69 4.7-4.12 1.22-1.18 2.4-2.4 3.47-3.7-2.01-.69-4.02-1.35-6.05-1.98zm-8.76-2.55c-1.55 1.17-3.13 2.29-4.73 3.38-2.78 1.92-5.63 3.74-8.49 5.53 3.42.51 6.84 1.05 10.25 1.64 2.33-1.63 4.63-3.31 6.87-5.06 1.33-1.05 2.67-2.09 3.92-3.23-2.59299-.799869-5.20008-1.553323-7.82-2.26zm-117.48-7.62c-2.89.54-5.76 1.17-8.58 1.95-.98.27-1.95.57-2.92.89-.43.61-.84 1.23-1.23 1.86-1.24 2.04-2.25 4.21-2.93 6.49-.67 2.19-1.03 4.48-1.01 6.76 1.23-.49 2.47-.92 3.73-1.3.33-.88.7-1.75 1.12-2.59.71-1.4 1.52-2.74 2.41-4.01 1.78-2.56 3.86-4.87 6.07-7.03 1.08-1.04 2.2-2.05 3.34-3.02zm105.79 4.71c-1.56.93-3.12 1.86-4.68 2.77-4.1 2.38-8.2 4.73-12.32 7.07 3.71.41 7.42.87 11.13 1.37.9.12 1.79.25 2.68.38 3.23-1.99 6.44-4.02 9.6-6.12 1.4-.94 2.78-1.89 4.16-2.85-1.63-.44-3.26-.86-4.89-1.27-1.89-.47-3.78-.92-5.68-1.35zm-85.9-7.07c-2.89.19-5.79.43-8.67.74-3.05.33-6.09.74-9.11 1.25-1.627437 1.323465-3.195632 2.718157-4.7 4.18-2.16 2.14-4.16 4.43-5.88 6.91-1.191727 1.730714-2.20681 3.576624-3.03 5.51.51-.14 1.03-.28 1.55-.41 3.26-.82 6.57-1.41 9.88-1.89h.03c1.49-1.75 3.11-3.4 4.79-4.96 2.57-2.38 5.3-4.58 8.13-6.63 2.28-1.66 4.62-3.22 7.01-4.7zm70.14 3.95c-.9.43-1.79.86-2.68 1.29-3.26 1.57-6.5 3.18-9.74 4.81-3.23 1.63-6.45 3.3-9.65 4.99h-.01c6.33.42 12.64.97 18.94 1.65 4.58-2.57 9.16-5.12 13.71-7.73l3.84-2.19c-.95-.21-1.89-.42-2.83-.62-3.85-.81-7.71-1.54-11.58-2.2zm48.45 9.65c-.23 1.04-.73 2.17-.73 2.17.66.26 1.31.51 1.96.77-.30121-1.022046-.71368-2.007948-1.23-2.94zm-97.03-14.05c-6.45-.1-12.91-.04-19.35.31-2.93 1.8-5.79 3.7-8.55 5.74-2.77 2.06-5.45 4.25-7.96 6.61 0 0-2.99 2.86-3.75 3.81 5.76-.76 11.54-1.24 17.33-1.53 3.98-3.11 8.18-5.94 12.48-8.56 3.73-2.27 7.56-4.38 11.45-6.35zm94.25 10.28c-.46 1.94-2.18 4.37-2.18 4.37 1.21.43 2.41.88 3.61 1.34.76-1.38.93-2.67.93-2.68-.67-1.09-2.36-3.03-2.36-3.03zm-67.12-8.76c-6.22 2.81-12.31 5.89-18.26 9.23-2.17 1.23-4.31 2.48-6.44 3.77 5.38.08 10.76.25 16.13.51 1.91.09 3.81.19 5.71.31l1.7-.9c6.43-3.36 12.94-6.57 19.5-9.68.46-.22.93-.43 1.39-.67-6.54-1.07-13.13-1.92-19.73-2.57zm-23.29-1.43c-4.45 2.23-8.8 4.66-13.03 7.28-3.17537 1.967424-6.274303 4.055618-9.29 6.26-.55.4-1.09.81-1.63 1.22 6.75-.3 13.49-.4 20.24-.34 2.69-1.66 5.41-3.24 8.17-4.77 5.48-3.02 11.08-5.83 16.78-8.4-1.63-.15-3.26-.28-4.89-.41-5.44-.42-10.9-.7-16.35-.84zm85.59 6.34c-.35.99-1.34 3.21-3.7 5.62l-.33.32c1.98.65 3.95 1.31 5.91 2.01 1.88-2.29 2.4-4.65 2.39-4.66-1.30005-1.24799-2.73178-2.351122-4.27-3.29zm-6.4-3.09c-2.4 3.84-6.14 6.44-6.14 6.45 1.04.3 2.08.6 3.11.91 1.51.45 3.01.92 4.51 1.4.22-.21.43-.42.64-.63 2.37-2.41 3.34-4.51 3.68-5.39-.11-.07-.22-.14-.33-.2-1.04-.59-2.12-1.12-3.22-1.6-.75-.32-1.5-.63-2.25-.94zm-8.44-3.14c-1.02.96-3.7 3.36-6.61 5.12-.83.51-1.67 1.01-2.51 1.51 1.59.37 3.18.76 4.76 1.16 1.87.47 3.73.97 5.58 1.49 4.31-2.89 6.54-6.42 6.54-6.42-.14-.05-.28-.11-.42-.17-2.24-.9-4.52-1.72-6.8-2.51zm-10.27-3.18-8.59 3.99c-1.87.87-3.74 1.76-5.6 2.65 3.43.61 6.84 1.28 10.24 2.01 1.27.28 2.53.57 3.8.86 1.12-.65 2.24-1.31 3.35-1.98 3.37-2.02 5.4-3.82 6.24-4.63-1.84-.62-3.68-1.2-5.52-1.76-1.3-.39-2.61-.77-3.92-1.14zm-80.05-9.88c-3.03.3-6.05.77-9.02 1.44-4.69 1.07-9.27 2.64-13.54 4.82-4.26 2.19-8.23 4.99-11.52 8.46-.75.79-1.45 1.6-2.12 2.44.54-.17 1.08-.34 1.63-.5 1.63-.48 3.27-.91 4.92-1.29s3.31-.71 4.98-1.02l.68-.12c3.05-2.46 6.27-4.71 9.6-6.77 2.61-1.62 5.31-3.12 8.05-4.51 2.08-1.05 4.19-2.04 6.34-2.95zm64.41 6c-6.58 2.14-13.05 4.65-19.39 7.43l-.18.08c6.47.7 12.92 1.6 19.34 2.71 2.29-1.08 4.59-2.14 6.89-3.19l4.96-2.24 2.83-1.25c-.62-.17-1.25-.34-1.88-.51-4.17-1.12-8.36-2.12-12.57-3.03zm-51.89-6.35c-2.42-.04-4.84-.08-7.24.01-.84.03-1.68.07-2.52.12-2.76 1.19-6.36 2.84-8.66 4.03-2.71 1.41-5.36 2.93-7.95 4.54-2.74 1.72-5.41 3.55-7.97 5.52 5.73-.93 11.51-1.51 17.3-1.85.3-.02.59-.03.88-.05 2.85-1.7 5.75-3.31 8.7-4.8 3.11-1.58 6.27-3.05 9.5-4.37 2.24-.92 4.79-1.9 7.25-2.77l-2.05-.12c-1.21-.06-2.41-.12-3.62-.16-1.2-.05-2.41-.08-3.62-.1zm32.98 2.9c-6.517408 2.0231454-12.911551 4.4238707-19.15 7.19-1.51.67-3.01 1.37-4.5 2.09 4.72.18 9.45.46 14.16.84 2.28.19 4.56.4 6.83.63.59-.27 1.19-.53 1.79-.79 5.95-2.56 12.02-4.87 18.2-6.85-5.74381-1.2120518-11.523151-2.2491976-17.33-3.11zm-21.52-2.37c-2.96 1.08-6.41 2.41-9.04 3.54-3.18 1.37-6.32 2.83-9.41 4.39-2.34 1.2-4.66 2.44-6.93 3.76 5.72-.26 11.44-.31 17.16-.21 1.31.02 2.62.06 3.93.1 2.07-1.01 4.15-1.98 6.25-2.92 5.708676-2.5365863 11.562204-4.7337462 17.53-6.58-3.08-.44-6.16-.83-9.25-1.16-3.41-.38-6.82-.68-10.24-.92z"/>
			<path d="m53.86.06c2.43-.09 4.86-.04 7.29.01 1.21.03 2.43.07 3.64.12 1.22.04 2.43.11 3.64.17 4.85.26 9.69.68 14.51 1.22 9.64 1.08 19.23 2.65 28.72 4.67l1.61.35c4.2.92 8.39 1.93 12.54 3.06 2.35.63 4.68 1.31 7 2.01 2.31.72 4.63 1.45 6.92 2.25 2.3.8 4.58 1.63 6.83 2.54 1.14.44 2.25.92 3.37 1.4 1.12.49 2.22 1.03 3.28 1.64 2.13 1.22 4.13 2.69 5.84 4.46 1.7 1.78 3.11 3.88 3.94 6.22.17.46.3.93.42 1.4l.04.12c.45 1.89.53 3.87.22 5.79-.39 2.45-1.4 4.77-2.75 6.82-1.37 2.05-3.08 3.85-4.98 5.39-1.49083 1.202741-3.0835 2.273447-4.76 3.2l7.21.03 5.27.02c1.75.01 3.51.02 5.27.19.11.02.19.11.18.22-.01.1-.09.17-.18.18-1.75.18-3.51.19-5.27.19l-5.27.02-10.55.04-21.09.08-42.18.06-42.18-.06-21.09-.08-10.55-.04-5.27-.02c-1.75-.01-3.51-.02-5.27-.19-.2172662.03161-.2172662-.411607 0-.38 1.75-.18 3.51-.19 5.27-.19l5.27-.02 4.24-.02c-1.590019-1.206899-3.039141-2.588932-4.32-4.12-1.59-1.87-2.91-3.99-3.84-6.28-.94-2.29-1.47-4.75-1.54-7.23-.08-2.48.31-4.96 1.01-7.32 1.41-4.74 4.11-9.02 7.49-12.57 3.39-3.57 7.45-6.43 11.8-8.66 4.36-2.22 9.02-3.82 13.78-4.89s9.62-1.64 14.49-1.8zm-27.45 46.83c-2.41.22-4.82.46-7.23.75-.76.09-1.51.19-2.26.29.136 2.927 1.75 4.647 2.044 4.944l.046.046 2.27-.01 4.77-.02c-.08-.272-.16-.646-.189-.785l-.011-.055c-.08-.49-.13-.97-.13-1.47-.02-1 .16-1.99.44-2.93.08-.26.16-.51.25-.76zm123.77 2.04s-4.1 2.81-6.39 3.95l4.05.02 1.99.01c1.9-.99 3.73-2.14 5.4-3.47zm-134.23-.87-1.26.19c-1.02.17-2.03.35-3.04.55.64.75 1.32 1.47 2.04 2.15.75.71 1.55 1.39 2.39 1.96l1.85-.01-.27-.33c-.27-.36-.51-.75-.72-1.16-.42-.81-.7-1.69-.87-2.58-.05-.25-.09-.51-.12-.77zm26.31-2.27c-10.02.45-14.44.98-14.45.98-.18.41-.35.83-.5 1.25-.28.84-.48 1.71-.54 2.58-.03.44-.02.89.02 1.33.02.22.05.44.09.65.02.1.04.21.07.31l11.13-.04.06-.3c.05-.26.12-.5.2-.74.07-.25.17-.47.26-.71.11-.23.21-.46.32-.68.45-.88.98-1.71 1.57-2.49.56-.75 1.15-1.45 1.77-2.14zm100.78 2.46-.44.31c-2.25 1.53-4.56 2.95-6.91 4.3l6.66.03 1.38-.81c.56-.32 1.11-.65 1.65-.99l1.63-1.01 1.6-1.06.3-.21zm-80.23-3.21c-5.48.1-10.96.27-16.43.52l-2.29.12c-.28.28-.55.56-.81.84-.65.69-1.28 1.38-1.86 2.11-.57.74-1.13 1.48-1.59 2.27-.12.2-.22.4-.33.6-.09.21-.2.41-.28.62 0 0-.16.42-.24.72l3.4-.01 12.15-.02c2.7-3.99 8.27-7.74 8.28-7.77zm71.46 2.45c-.14.09-.27.18-.4.27-1.61798 1.073112-3.2618 2.106751-4.93 3.1-.84.5-1.68.98-2.53 1.46-.3.17-.61.34-.91.5l1.24-.02 7.46.03c2.5-1.52 4.97-3.08 7.39-4.73-1.44-.13-2.88-.25-4.32-.37zm-12.35-.86-10.35 6.18 11.318.01h.872l4.64-2.83c1.4-.87 2.79-1.74 4.17-2.62-3.55-.27-7.1-.52-10.65-.74zm-15.23-.82-11.78 6.97 15.09.02 1.15-.79 1.46-.94c.98-.62 1.95-1.24 2.93-1.84l2.94-1.81 1.49-.91c-.29-.01-.57-.03-.86-.05-4.14-.25-8.28-.46-12.42-.65zm-37.59-.82c-1.38 0-2.76.02-4.14.04-6.55 4.03-9.38 7.78-9.37 7.77l17.97-.02c6.41-4.98 11.93-7.65 11.93-7.65-.92-.02-1.83-.04-2.74-.05-3.03-.04-6.07-.08-9.1-.08zm18.69.18c-6.55 3.36-12.79 7.61-12.79 7.61l9.56-.02 8.9.01c3.28-2.15 11.21-7.06 11.21-7.06zm71.44-4.66c-1.18 1.61-2.56 3.08-4.02 4.43-1.34278 1.213529-2.7516 2.351931-4.22 3.41l4.91.55c1.7-1.44 3.24-3.09 4.46-4.94.58113-.88924 1.08625-1.82589 1.51-2.8-.88-.22-1.76-.44-2.64-.65zm-5.18-1.18-.02.02c-1.16563 1.147388-2.37312 2.25147-3.62 3.31-2.07 1.76-4.24 3.4-6.46 4.96l2.45.24 3.35.36c1.71-1.2 3.36-2.48 4.9-3.88 1.35795-1.232518 2.606-2.580945 3.73-4.03-1.44-.34-2.88-.67-4.33-.98zm-132.26-7c-1.24.18-2.48.37-3.71.59-1.64.28-3.27.61-4.88.98-.75.18-1.5.37-2.25.57-.17.45-.33.91-.48 1.37-1.52 4.79-.44 9.46.15 11.68l.43.55c1.16-.26 2.32-.49 3.49-.69.44-.08.89-.15 1.33-.22-.02-.34-.03-.68-.02-1.02.01-.9.11-1.8.28-2.68.35-1.76.97-3.45 1.74-5.05.78-1.6 1.73-3.1 2.75-4.54.38-.52.77-1.03 1.17-1.54zm125.59 5.63c-1.30291 1.065734-2.62649 2.105932-3.97 3.12-1.55 1.17-3.13 2.31-4.72 3.42-1.12.78-2.24 1.55-3.36 2.3l2.02.18c1.73.15 3.46.32 5.19.49 1.18-.81 2.35-1.65 3.49-2.51 1.29306-.966103 2.56018-1.966457 3.8-3 1.09-.92 2.16-1.87 3.19-2.86-1.88-.4-3.76-.78-5.64-1.14zm-107.03-7.36c-5.6.3-11.19.75-16.74 1.48-.69.82-1.35 1.66-1.98 2.52-1 1.39-1.91 2.83-2.67 4.35-.78 1.5-1.38 3.09-1.77 4.73-.24 1.09-.38 2.21-.34 3.33.74-.11 1.47-.22 2.21-.32 2.6-.36 5.2-.65 7.81-.9.13-.28.26-.56.4-.83.45-.86.95-1.68 1.49-2.47 2.17-3.16 4.83-5.9 7.6-8.46 1.3-1.18 2.63-2.32 3.99-3.43zm97.42 5.67c-1.36.95-2.72 1.9-4.1 2.82-3.45 2.31-6.94 4.54-10.46 6.73 3.49.26 6.98.54 10.47.85 3.12-2.02 6.19-4.12 9.16-6.35 1.12-.85 2.23-1.7 3.33-2.58-1.24-.23-2.48-.46-3.72-.68-1.56-.27-3.12-.53-4.68-.79zm-11.97-1.81c-1.33.82-2.66 1.63-3.99 2.44-4.48 2.71-8.99 5.36-13.51 7.98 3.62.19 7.25.42 10.87.66l2.15.15.11-.07c3.93-2.41 7.82-4.86 11.65-7.41 1.08-.71 2.15-1.44 3.22-2.18-3.49-.57-6.99-1.09-10.5-1.57zm-63.38-4.4c-6.51-.02-13.02.09-19.52.39l-.39.02c-1.82 1.44-3.59 2.92-5.28 4.49-2.72 2.53-5.29 5.24-7.38 8.26 0 0-1.07 1.63-1.47 2.4 5.02-.46 10.05-.82 15.08-1.09l.93-.92c2.79-2.66 5.79-5.06 8.88-7.33 2.98-2.18 6.04-4.25 9.15-6.22zm-52.85 4.79c-1.12.34-2.23.71-3.31 1.14.11 2.13.58 4.24 1.37 6.21.46 1.18 1.04 2.32 1.71 3.41-.34-1.38-.67-3.41-.6-5.5.06-1.58.2-3.09.63-4.6.06-.22.13-.44.2-.66zm100.44-2.27-2.82 1.6-16.86 9.54c-.24.14-.47.28-.71.41l2.25.06c3.04.11 6.08.19 9.11.34 1.77.07 3.53.15 5.3.24l17.83-10.54-1.42-.19c-1.65-.23-3.31-.41-4.96-.61l-2.48-.3-2.49-.26zm-45.31-2.5c-3.65 2.28-7.23 4.67-10.69 7.22-3.01 2.23-5.94 4.59-8.65 7.15.32-.02.64-.04.96-.05 6.07-.29 12.14-.5 18.22-.57 0 0 .01 0 .01.01.72-.5 1.45-.99 2.18-1.47 1.52-1.01 3.06-1.98 4.6-2.94 4.98-3.07 10.07-5.94 15.21-8.7-.39-.03-.79-.05-1.19-.07l-2.5-.11-4.99-.22-5-.13c-2.72-.09-5.44-.1-8.16-.12zm24.09.79c-5.7 3.05-11.33 6.21-16.82 9.6-1.76 1.08-3.5 2.2-5.22 3.35l2.34-.01 4.56.03c3.04.01 6.07.07 9.11.12 1.53.02 3.06.06 4.59.09.79-.46 1.59-.91 2.39-1.37 5.62-3.19 11.26-6.34 16.89-9.5l1.45-.81-.3-.03-4.98-.45c-1.66-.16-3.32-.28-4.98-.41-1.66-.12-3.32-.26-4.98-.37zm74.21 2.22c-.98 3.35-3.34 6.81-3.34 6.82.82.21 1.64.42 2.46.64.39-1.02.69-2.07.86-3.15.23-1.42.23-2.88.02-4.31zm-2.62-2.01-.27.54c-.78 1.47-1.73 2.82-2.76 4.1-.84 1.04-1.74 2.03-2.67 2.98 1.39.32 2.78.65 4.16 1 2.57-3.26 3.92-7.71 3.93-7.71-.8-.31-1.59-.61-2.39-.91zm-4.4-1.58c-1.11 1.45-2.36 2.78-3.65 4.06-1.32 1.3-2.71 2.53-4.13 3.72 1.83.38 3.65.77 5.47 1.18 1.06-1.05 2.08-2.13 3.04-3.27 1.03-1.23 1.98-2.53 2.78-3.91.09-.14.16-.29.24-.44-1.25-.46-2.5-.91-3.75-1.34zm-6.84-2.25c-4.66 4.49-10.3 8.25-10.29 8.26 1.25.22 2.51.44 3.76.68 1.47.28 2.94.56 4.41.86 1.61-1.32 3.19-2.69 4.7-4.12 1.22-1.18 2.4-2.4 3.47-3.7-2.01-.69-4.02-1.35-6.05-1.98zm-8.76-2.55c-1.55 1.17-3.13 2.29-4.73 3.38-2.78 1.92-5.63 3.74-8.49 5.53 3.42.51 6.84 1.05 10.25 1.64 2.33-1.63 4.63-3.31 6.87-5.06 1.33-1.05 2.67-2.09 3.92-3.23-2.59299-.799869-5.20008-1.553323-7.82-2.26zm-117.48-7.62c-2.89.54-5.76 1.17-8.58 1.95-.98.27-1.95.57-2.92.89-.43.61-.84 1.23-1.23 1.86-1.24 2.04-2.25 4.21-2.93 6.49-.67 2.19-1.03 4.48-1.01 6.76 1.23-.49 2.47-.92 3.73-1.3.33-.88.7-1.75 1.12-2.59.71-1.4 1.52-2.74 2.41-4.01 1.78-2.56 3.86-4.87 6.07-7.03 1.08-1.04 2.2-2.05 3.34-3.02zm105.79 4.71c-1.56.93-3.12 1.86-4.68 2.77-4.1 2.38-8.2 4.73-12.32 7.07 3.71.41 7.42.87 11.13 1.37.9.12 1.79.25 2.68.38 3.23-1.99 6.44-4.02 9.6-6.12 1.4-.94 2.78-1.89 4.16-2.85-1.63-.44-3.26-.86-4.89-1.27-1.89-.47-3.78-.92-5.68-1.35zm-85.9-7.07c-2.89.19-5.79.43-8.67.74-3.05.33-6.09.74-9.11 1.25-1.627437 1.323465-3.195632 2.718157-4.7 4.18-2.16 2.14-4.16 4.43-5.88 6.91-1.191727 1.730714-2.20681 3.576624-3.03 5.51.51-.14 1.03-.28 1.55-.41 3.26-.82 6.57-1.41 9.88-1.89h.03c1.49-1.75 3.11-3.4 4.79-4.96 2.57-2.38 5.3-4.58 8.13-6.63 2.28-1.66 4.62-3.22 7.01-4.7zm70.14 3.95c-.9.43-1.79.86-2.68 1.29-3.26 1.57-6.5 3.18-9.74 4.81-3.23 1.63-6.45 3.3-9.65 4.99h-.01c6.33.42 12.64.97 18.94 1.65 4.58-2.57 9.16-5.12 13.71-7.73l3.84-2.19c-.95-.21-1.89-.42-2.83-.62-3.85-.81-7.71-1.54-11.58-2.2zm48.45 9.65c-.23 1.04-.73 2.17-.73 2.17.66.26 1.31.51 1.96.77-.30121-1.022046-.71368-2.007948-1.23-2.94zm-97.03-14.05c-6.45-.1-12.91-.04-19.35.31-2.93 1.8-5.79 3.7-8.55 5.74-2.77 2.06-5.45 4.25-7.96 6.61 0 0-2.99 2.86-3.75 3.81 5.76-.76 11.54-1.24 17.33-1.53 3.98-3.11 8.18-5.94 12.48-8.56 3.73-2.27 7.56-4.38 11.45-6.35zm94.25 10.28c-.46 1.94-2.18 4.37-2.18 4.37 1.21.43 2.41.88 3.61 1.34.76-1.38.93-2.67.93-2.68-.67-1.09-2.36-3.03-2.36-3.03zm-67.12-8.76c-6.22 2.81-12.31 5.89-18.26 9.23-2.17 1.23-4.31 2.48-6.44 3.77 5.38.08 10.76.25 16.13.51 1.91.09 3.81.19 5.71.31l1.7-.9c6.43-3.36 12.94-6.57 19.5-9.68.46-.22.93-.43 1.39-.67-6.54-1.07-13.13-1.92-19.73-2.57zm-23.29-1.43c-4.45 2.23-8.8 4.66-13.03 7.28-3.17537 1.967424-6.274303 4.055618-9.29 6.26-.55.4-1.09.81-1.63 1.22 6.75-.3 13.49-.4 20.24-.34 2.69-1.66 5.41-3.24 8.17-4.77 5.48-3.02 11.08-5.83 16.78-8.4-1.63-.15-3.26-.28-4.89-.41-5.44-.42-10.9-.7-16.35-.84zm85.59 6.34c-.35.99-1.34 3.21-3.7 5.62l-.33.32c1.98.65 3.95 1.31 5.91 2.01 1.88-2.29 2.4-4.65 2.39-4.66-1.30005-1.24799-2.73178-2.351122-4.27-3.29zm-6.4-3.09c-2.4 3.84-6.14 6.44-6.14 6.45 1.04.3 2.08.6 3.11.91 1.51.45 3.01.92 4.51 1.4.22-.21.43-.42.64-.63 2.37-2.41 3.34-4.51 3.68-5.39-.11-.07-.22-.14-.33-.2-1.04-.59-2.12-1.12-3.22-1.6-.75-.32-1.5-.63-2.25-.94zm-8.44-3.14c-1.02.96-3.7 3.36-6.61 5.12-.83.51-1.67 1.01-2.51 1.51 1.59.37 3.18.76 4.76 1.16 1.87.47 3.73.97 5.58 1.49 4.31-2.89 6.54-6.42 6.54-6.42-.14-.05-.28-.11-.42-.17-2.24-.9-4.52-1.72-6.8-2.51zm-10.27-3.18-8.59 3.99c-1.87.87-3.74 1.76-5.6 2.65 3.43.61 6.84 1.28 10.24 2.01 1.27.28 2.53.57 3.8.86 1.12-.65 2.24-1.31 3.35-1.98 3.37-2.02 5.4-3.82 6.24-4.63-1.84-.62-3.68-1.2-5.52-1.76-1.3-.39-2.61-.77-3.92-1.14zm-80.05-9.88c-3.03.3-6.05.77-9.02 1.44-4.69 1.07-9.27 2.64-13.54 4.82-4.26 2.19-8.23 4.99-11.52 8.46-.75.79-1.45 1.6-2.12 2.44.54-.17 1.08-.34 1.63-.5 1.63-.48 3.27-.91 4.92-1.29s3.31-.71 4.98-1.02l.68-.12c3.05-2.46 6.27-4.71 9.6-6.77 2.61-1.62 5.31-3.12 8.05-4.51 2.08-1.05 4.19-2.04 6.34-2.95zm64.41 6c-6.58 2.14-13.05 4.65-19.39 7.43l-.18.08c6.47.7 12.92 1.6 19.34 2.71 2.29-1.08 4.59-2.14 6.89-3.19l4.96-2.24 2.83-1.25c-.62-.17-1.25-.34-1.88-.51-4.17-1.12-8.36-2.12-12.57-3.03zm-51.89-6.35c-2.42-.04-4.84-.08-7.24.01-.84.03-1.68.07-2.52.12-2.76 1.19-6.36 2.84-8.66 4.03-2.71 1.41-5.36 2.93-7.95 4.54-2.74 1.72-5.41 3.55-7.97 5.52 5.73-.93 11.51-1.51 17.3-1.85.3-.02.59-.03.88-.05 2.85-1.7 5.75-3.31 8.7-4.8 3.11-1.58 6.27-3.05 9.5-4.37 2.24-.92 4.79-1.9 7.25-2.77l-2.05-.12c-1.21-.06-2.41-.12-3.62-.16-1.2-.05-2.41-.08-3.62-.1zm32.98 2.9c-6.517408 2.0231454-12.911551 4.4238707-19.15 7.19-1.51.67-3.01 1.37-4.5 2.09 4.72.18 9.45.46 14.16.84 2.28.19 4.56.4 6.83.63.59-.27 1.19-.53 1.79-.79 5.95-2.56 12.02-4.87 18.2-6.85-5.74381-1.2120518-11.523151-2.2491976-17.33-3.11zm-21.52-2.37c-2.96 1.08-6.41 2.41-9.04 3.54-3.18 1.37-6.32 2.83-9.41 4.39-2.34 1.2-4.66 2.44-6.93 3.76 5.72-.26 11.44-.31 17.16-.21 1.31.02 2.62.06 3.93.1 2.07-1.01 4.15-1.98 6.25-2.92 5.708676-2.5365863 11.562204-4.7337462 17.53-6.58-3.08-.44-6.16-.83-9.25-1.16-3.41-.38-6.82-.68-10.24-.92z"/>
		</g>
		<path d="m34.11336 9.04061c-.0228-.0132-.19513.10051-.38867.23437h.21679c.0421-.0517.0892-.10039.13086-.15234.0392-.0489.0517-.0759.041-.082zm56.76758 55.17969c-7.36 0-12.86914 5.45906-12.86914 12.78906 0 7.35 5.50914 12.81055 12.86914 12.81055 7.35-.00001 12.83984-5.46055 12.83984-12.81055 0-7.32-5.48984-12.78906-12.83984-12.78906zm0 2.38867c5.94 0 10.30078 4.39039 10.30078 10.40039 0 6.04-4.36078 10.42969-10.30078 10.42969-5.97 0-10.30078-4.38969-10.30078-10.42969 0-6.01 4.34078-10.40039 10.30078-10.40039zm-56.72071 1.62109c-1.34 0-2.16015.63875-2.16015 1.71875 0 1.07.81015 1.7207 2.16015 1.7207 1.37 0 2.16016-.6507 2.16016-1.7207s-.79016-1.71875-2.16016-1.71875zm-15.67968.25977v1.3789h.24023l.12891.004c.529.035.76172.30095.76172.87695v13.65039h3.75976v-14.68954l-.006-.14062c-.054-.677-.50131-1.08008-1.19531-1.08008zm6.39062 0v1.3789h.24024l.12695.004c.529.035.76172.30095.76172.87695v13.65039h3.76172v-14.68954l-.006-.14062c-.054-.677-.50132-1.08008-1.19532-1.08008zm-18.18945.01v1.38086h.5l.13672.004c.532.034.82226.27184.82226.71484 0 .31-.0705.57102-.31054 1.29102l-4.18946 12.52929h3.88086v-.01l1.14844-3.83984h4.55078l1.08008 3.83984h4.2207l-4.1914-14.65039-.0469-.15625c-.26-.752-.77981-1.10352-1.63281-1.10352zm106.50976.01-4.75976 15.90039h3.80859l1.05078-3.83984h4.31055l1.04883 3.83984h3.9707l-4.79101-15.90039zm-25.14062.39062v1.48047l.084-.002c.202-.001.44532.0215.44532.0215.12.01.23984.0699.33984.16993.14.16999.19141.32945.19141.68945v12.5h3.51953v-13.42969l-.004-.1543c-.035-.95-.40955-1.27539-1.43555-1.27539zm-76.98047 3.20899 1.58008 5.85156h-3.37891zm74.39063.0801-.15821.004c-.914.042-1.28125.45978-1.28125 1.42578v10.14063h3.51953v-11.57031zm8.75 0v11.57031h3.5v-10.14112l-.004-.15625c-.039-.914-.43155-1.27343-1.43555-1.27343zm43.08007.0801c-3.35 0-5.58007 2.52985-5.58007 6.33985 0 3.7 2.12992 5.96094 5.66992 5.96094 1.29 0 2.4707-.23946 3.4707-.68946.34-.17.52977-.26031 1.00977-.57031l-.70118-2.19141-.25195.15235c-.992.575-1.75028.77929-2.73828.77929-1.92 0-2.72836-.79039-2.81836-2.65039h6.84961v-.68997l-.004-.29688c-.075-4.093-1.72225-6.14453-4.90625-6.14453zm23.97071.01c-2.03 0-3.78055.45086-5.31055 1.38086l.76953 2.33984.29102-.14062.20703-.0996c.852-.41 1.06289-.47914 1.71289-.61914.45-.1.88906-.14063 1.28906-.14063 1.2 0 1.7207.43016 1.7207 1.41016v.55002h-.33984l-.30273.002c-3.968.067-5.91797 1.47758-5.91797 4.26758 0 2.15 1.12898 3.30859 3.20898 3.30859 1.1.00001 2.08-.28812 2.75-.82812.14-.12.34156-.31156.60156-.60156h.13868v1.31054h3.41015v-7.44921l-.002-.28125c-.023-2.085-.32911-2.94039-1.28711-3.6504-.74-.51999-1.62945-.75976-2.93945-.75976zm-117.25.01c-.98.00001-1.9411.12008-2.8711.33008s-1.40906.41118-2.53906.95118l.83008 2.32031.31445-.14453c1.16-.509 2.385-.78516 3.375-.78516 1.01 0 1.36914.3582 1.36914 1.4082v.26172l-.27539.043c-1.317.209-1.78751.29856-2.60351.47656-.5.12-.96016.25922-1.41016.44922-1.51.6-2.23047 1.77078-2.23047 3.55078 0 2.27.97953 3.35938 3.01953 3.35938.74 0 1.40977-.13891 2.00977-.37891.53-.24.84133-.43125 1.61133-1.03125v.16992l.004.14258c.047.646.425.97852 1.125.97852h3.42969v-1.29102h-.16992l-.125-.004c-.555-.036-.76367-.33493-.76367-1.04493v-5.68164l-.002-.23437c-.055-2.85-1.12765-3.84571-4.09765-3.84571zm14.33984.041c-1.46 0-2.49086.45024-3.88086 1.74024v-.47071l-.006-.14258c-.047-.646-.42553-.97656-1.14453-.97656h-3.54883v1.35938h.21875l.12891.004c.529.039.76172.33025.76172.90625v9.66016h3.73047v-8.06055l.15625-.16406c.573-.575 1.17551-.83594 1.85351-.83594.79 0 .98047.31.98047 1.5v7.56055h3.73828v-8.10938-.26172c-.013-1.67699-.16728-2.25014-.73828-2.86914-.5-.55-1.27-.83984-2.25-.83984zm92.59961.01c-1.39 0-2.63016.64054-3.66016 1.81054h-.14062v-1.66992h-3.40039v11.91992h3.58008v-7.98047l.15429-.15039c.649-.622 1.06963-.83007 1.76563-.83007.89 0 1.15039.45085 1.15039 1.88086v7.08007h3.61133v-8.32031l-.004-.24609c-.065-2.335-1.07464-3.49414-3.05664-3.49414zm-21.05078.0801c-.93 0-1.81906.57039-2.53906 1.6504h-.16993v-1.57032h-3.40039v11.91992h3.61914v-7.94921l.16602-.14258c.601-.495 1.14731-.6875 1.94531-.6875.43 0 .76899.0498 1.45899.25976v-3.29101l-.16407-.0508c-.413-.123-.61401-.13868-.91601-.13868zm-98.49024.0508v1.35937h.22071l.1289.004c.529.039.76172.33025.76172.90625v9.66015h3.72852v-10.71093l-.004-.13868c-.054-.677-.50131-1.08007-1.19531-1.08007zm32.97071 0-.15235.004c-.784.046-1.13867.45716-1.13867 1.28516v2.16992h1.39063v-.20898l.006-.12305c.041-.466.33076-.6875.88476-.6875h2.67969l-5.0293 7.03906v2.46094h9.41992v-2.50977h-5.23046l4.98046-6.9707v-2.45898zm50.98047.01h.16992l1.42969 5.43945h-3.06055zm21.75 2.21875c1.03 0 1.52929.79016 1.52929 2.41016v.0703h-3.27929l.006-.20703c.067-1.486.66414-2.27344 1.74414-2.27344zm-92.6211 3.98047v2.31055l-.1582.15429c-.59.547-1.28486.875-1.88086.875-.67 0-.91016-.32875-.91016-1.21875 0-.88.18938-1.29078.85938-1.55078.5-.21 1.14984-.40031 2.08984-.57031zm116.83008.46094h.59961v2.06883l-.12109.13086c-.451.461-.97174.67773-1.67774.67773-.77 0-1.16992-.40945-1.16992-1.18945 0-.64.29055-1.11937.81055-1.35937.45-.19 1.07859-.33008 1.55859-.33008z" fill="#003087"/>
	</g>
</svg>