<?xml version="1.0" ?>
<svg xmlns="http://www.w3.org/2000/svg" viewBox="0 0 471.7 154.1" enable-background="new 0 0 471.7 154.1">
	<style type="text/css">
	.st0{fill-rule:evenodd;clip-rule:evenodd;fill:#004F74;}
	.st1{fill:#004F74;}
</style>
	<path class="st0" d="M86.6,56.1C70,42.9,41.1,51.5,22.1,75.4c-19,23.9-20.9,54-4.3,67.3c16.7,13.2,45.6,4.6,64.6-19.3  C101.4,99.5,103.3,69.4,86.6,56.1z M77.1,69.4l-7.2,18.8c-0.2,0.6-1.1,0.7-1.4,0.1c-2.6-4.8-6-8.2-10-10.4c-0.5-0.3-0.5-1.1,0.1-1.3  l17.4-8.1C76.7,68.1,77.3,68.7,77.1,69.4z M118.9,143c-9.4-5-1.2-17.9-1.2-17.9c20.9-36.5,19.6-77.4-5.2-97.1C86,7,42,17.5,10.4,51  c0,0-2.8,3.2-4.9,1.3c-2.5-2.2,0.8-5.7,0.8-5.7c38.3-41.5,92.2-54.8,124.6-29c29.4,23.4,31.5,71.5,7.6,115.1  C138.5,132.8,130.2,149,118.9,143z"/>
	<path class="st1" d="M464.4,68.2c-1.6-3.9-4.1-7.2-7.3-9.7c-3.4-2.5-7.2-4.3-11.5-5.3c-4.3-1-9.5-1.5-15.7-1.5  c-5.1,0-10.3,0.5-15.5,1.5c-4.8,0.9-8.5,1.7-11.3,2.5c-0.5,0.1-0.8,0.5-0.8,1l0,12.9c0,0,0,1.5,1.6,1.5c1.6,0,9-3.4,13.5-4.4  c4.7-1.1,8.9-1.6,12.4-1.6c3,0,5.8,0.2,8.6,0.6c2.8,0.4,5.2,1.2,7.1,2.5c1.9,1.2,3.4,2.9,4.5,5.1c1.1,2.2,1.6,5.1,1.6,8.7v2  c0,0.6-0.4,1-1,1.1c-7.6,0.4-14.7,1.1-21.3,1.9c-6.9,0.9-12.9,2.5-18,4.8c-5.7,2.6-9.9,6.1-12.5,10.5c-2.6,4.4-4,9.7-4,16  c0,4.1,0.7,7.9,2.2,11.6c1.5,3.7,3.4,6.7,5.8,9.2c2.5,2.5,5.5,4.5,8.8,5.9c3.3,1.4,6.9,2.1,10.6,2.1c4.5,0,8-0.4,10.6-1.1  c2.5-0.8,5.1-1.8,7.8-3.2c1.9-1,3.9-2.3,6-3.9c1.2-1,2.3-1.8,3.3-2.6c0.7-0.5,1.7,0,1.7,0.8v6.4c0,0.6,0.5,1.1,1.1,1.1h13  c0.6,0,1.1-0.5,1.1-1.1V82.7C466.8,77,466,72.2,464.4,68.2z M451.7,122c0,0.3-0.1,0.6-0.4,0.8c-3.3,2.9-6.8,5.3-10.6,7.3  c-3.9,2.1-8.2,3.1-13,3.1c-5.6,0-9.9-1.3-12.8-4c-2.9-2.6-4.4-6.5-4.4-11.7c0-4.6,1.3-8.1,4-10.7c2.6-2.6,6-4.5,10-5.7  c3.4-1,7.9-1.8,13.4-2.4c5-0.5,9.2-0.9,12.6-1.2c0.6-0.1,1.2,0.4,1.2,1.1V122z M250,68.2c-1.6-3.9-4.1-7.2-7.3-9.7  c-3.4-2.5-7.2-4.3-11.5-5.3c-4.3-1-9.5-1.5-15.7-1.5c-5.1,0-10.3,0.5-15.5,1.5c-4.8,0.9-8.5,1.7-11.3,2.5c-0.5,0.1-0.8,0.5-0.8,1  l0,12.9c0,0,0,1.5,1.6,1.5c1.6,0,9-3.4,13.5-4.4c4.7-1.1,8.9-1.6,12.4-1.6c3,0,5.8,0.2,8.6,0.6c2.8,0.4,5.2,1.2,7.1,2.5  c1.9,1.2,3.4,2.9,4.5,5.1c1.1,2.2,1.6,5.1,1.6,8.7v2c0,0.6-0.4,1-1,1.1c-7.6,0.4-14.7,1.1-21.3,1.9c-6.9,0.9-12.9,2.5-18,4.8  c-5.7,2.6-9.9,6.1-12.5,10.5c-2.6,4.4-4,9.7-4,16c0,4.1,0.7,7.9,2.2,11.6c1.5,3.7,3.4,6.7,5.8,9.2c2.5,2.5,5.5,4.5,8.8,5.9  c3.3,1.4,6.9,2.1,10.6,2.1c4.5,0,8-0.4,10.6-1.1c2.5-0.8,5.1-1.8,7.8-3.2c1.9-1,3.9-2.3,6-3.9c1.2-1,2.3-1.8,3.3-2.6  c0.7-0.5,1.7,0,1.7,0.8v6.4c0,0.6,0.5,1.1,1.1,1.1h13c0.6,0,1.1-0.5,1.1-1.1V82.7C252.4,77,251.6,72.2,250,68.2z M237.3,122  c0,0.3-0.1,0.6-0.4,0.8c-3.3,2.9-6.8,5.3-10.6,7.3c-3.9,2.1-8.2,3.1-13,3.1c-5.6,0-9.9-1.3-12.8-4c-2.9-2.6-4.4-6.5-4.4-11.7  c0-4.6,1.3-8.1,4-10.7c2.6-2.6,6-4.5,10-5.7c3.4-1,7.9-1.8,13.4-2.4c5-0.5,9.2-0.9,12.6-1.2c0.6-0.1,1.2,0.4,1.2,1.1V122z   M281.2,145h-13c-0.6,0-1-0.5-1-1V20.2c0-0.6,0.5-1,1-1h13c0.6,0,1,0.5,1,1v123.8C282.2,144.5,281.8,145,281.2,145z M341.7,146.2  c2.7-0.4,5.3-1,8-1.7c0.4-0.1,0.7-0.5,0.7-1l0-10.3c0.1-1.6-1.1-2.2-2.1-1.9c-1,0.3-2.3,0.8-3.8,1.3c-2.3,0.7-4.7,1.1-7.2,1.1  c-3.5,0-6.3-0.5-8.4-1.4c-2.1-0.9-3.6-2.4-4.5-4.3c-1.1-2.2-1.7-4.5-1.9-7c-0.2-2.5-0.2-6-0.2-10.6V68.2c0-0.5,0.4-0.9,0.9-0.9h26.4  c0.5,0,0.9-0.4,0.9-0.9v-11c0-0.5-0.4-0.9-0.9-0.9h-26.4c-0.5,0-0.9-0.4-0.9-0.9V29.3c0-0.5-0.4-0.9-0.9-0.9h-13.3  c-0.5,0-0.9,0.4-0.9,0.9v24.3c0,0.5-0.4,0.9-0.9,0.9h-8.5c-0.5,0-0.9,0.4-0.9,0.9v11c0,0.5,0.4,0.9,0.9,0.9h8.5  c0.5,0,0.9,0.4,0.9,0.9v49.2c0,10.2,2.3,17.7,7,22.4c4.6,4.7,11.1,7.1,19.4,7.1C336,146.9,338.8,146.6,341.7,146.2z M381.5,43.1  V29.5c0-0.6-0.5-1.1-1.1-1.1h-15.2c-0.6,0-1.1,0.5-1.1,1.1v13.7c0,0.6,0.5,1.1,1.1,1.1h15.2C381,44.2,381.5,43.7,381.5,43.1z   M380.2,143.8V55.7c0-0.6-0.5-1.1-1.1-1.1h-12.9c-0.6,0-1.1,0.5-1.1,1.1v88.1c0,0.6,0.5,1.1,1.1,1.1h12.9  C379.7,144.9,380.2,144.4,380.2,143.8z"/>
</svg>