<?xml version="1.0" encoding="UTF-8" standalone="no"?>

<svg viewBox="0 0 121 28" version="1.1" xmlns="http://www.w3.org/2000/svg"  xml:space="preserve" xmlns:serif="http://www.serif.com/" style="fill-rule:evenodd;clip-rule:evenodd;stroke-linejoin:round;stroke-miterlimit:2;">
    <g transform="matrix(1,0,0,1,-864,-405)">
        <g transform="matrix(1,0,0,1.11129,734,379)">
            <g transform="matrix(0.6434,0,0,0.578966,57.9839,-59.0674)">
                <g transform="matrix(1,0,0,1,285.581,171.439)">
                    <path d="M0,-14.514C0.853,-13.526 1.507,-12.421 1.991,-11.161C2.455,-9.901 2.687,-8.583 2.708,-7.207C2.687,-4.495 1.78,-2.091 0,0.021C-1.078,1.261 -2.353,2.231 -3.84,2.928C-5.32,3.587 -6.902,3.916 -8.58,3.916C-10.244,3.916 -11.826,3.587 -13.271,2.928C-14.779,2.231 -16.047,1.261 -17.111,0.002C-17.978,-1.026 -18.632,-2.168 -19.096,-3.41C-19.56,-4.669 -19.792,-5.948 -19.792,-7.207C-19.792,-8.525 -19.56,-9.804 -19.096,-11.044C-18.632,-12.326 -17.978,-13.451 -17.111,-14.473C-16.034,-15.735 -14.758,-16.722 -13.271,-17.422C-11.826,-18.101 -10.244,-18.41 -8.58,-18.41C-6.922,-18.41 -5.34,-18.101 -3.853,-17.422C-2.353,-16.722 -1.078,-15.755 0,-14.514M11.983,-14.823C11.001,-17.402 9.712,-19.631 8.027,-21.511C6.084,-23.739 3.67,-25.461 0.791,-26.662C-2.1,-27.882 -5.244,-28.527 -8.58,-28.506C-11.86,-28.527 -14.97,-27.882 -17.883,-26.662C-20.774,-25.461 -23.229,-23.739 -25.18,-21.511C-26.796,-19.686 -28.092,-17.477 -29.054,-14.884C-30.035,-12.264 -30.52,-9.727 -30.52,-7.207C-30.52,-4.727 -30.035,-2.208 -29.074,0.35C-28.112,2.908 -26.816,5.137 -25.159,7.017C-23.25,9.206 -20.815,10.932 -17.902,12.172C-15.011,13.393 -11.88,14.013 -8.58,14.013C-5.244,13.993 -2.1,13.393 0.791,12.191C3.67,10.951 6.084,9.226 8.027,7.017C9.712,5.137 11.001,2.908 11.983,0.35C12.931,-2.208 13.415,-4.727 13.436,-7.207C13.415,-9.746 12.931,-12.285 11.983,-14.823" style="fill:rgb(217,31,41);fill-rule:nonzero;"/>
                </g>
                <g transform="matrix(1,0,0,1,239.26,158.884)">
                    <path d="M0,10.386L-9.228,10.386L-4.515,-2.577L0,10.386ZM1.33,-15.212L-10.231,-15.212L-25.855,25.598L-14.705,25.598L-12.12,18.486L2.817,18.486L5.327,25.598L16.593,25.598L1.33,-15.212Z" style="fill:rgb(217,31,41);fill-rule:nonzero;"/>
                </g>
                <g transform="matrix(1,0,0,1,220.082,184.483)">
                    <path d="M0,-40.81L-11.444,-40.81L-21.306,-15.988L-31.148,-40.81L-42.606,-40.81L-25.514,0L-17.31,0L0,-40.81Z" style="fill:rgb(217,31,41);fill-rule:nonzero;"/>
                </g>
                <g transform="matrix(1,0,0,1,181.895,143.672)">
                    <path d="M0,40.81L0,31.934L-12.679,31.934L-12.679,0L-23.25,0L-23.25,40.81L0,40.81Z" style="fill:rgb(217,31,41);fill-rule:nonzero;"/>
                </g>
                <g transform="matrix(1,0,0,1,127.559,184.483)">
                    <path d="M0,-40.81L-15.628,0L-4.477,0L-1.91,-7.112L9.338,-7.112L6.522,-15.212L1.004,-15.212L5.692,-28.175L15.531,0L26.818,0L11.541,-40.81L0,-40.81Z" style="fill:rgb(217,31,41);fill-rule:nonzero;"/>
                </g>
            </g>
        </g>
    </g>
</svg>
