<?xml version="1.0" ?>
<svg xmlns="http://www.w3.org/2000/svg" viewBox="0 0 1549 1601">
	<title>ACT</title>
	<defs>
		<clipPath clipPathUnits="userSpaceOnUse" id="cp1">
			<path d="m2428.87-884.9v15961.09h-11280.46v-15961.09z"/>
		</clipPath>
	</defs>
	<style>
		.s0 { fill: #2dafe3 } 
	</style>
	<g id="Clip-Path" clip-path="url(#cp1)">
		<g id="Layer">
			<path id="Layer" fill-rule="evenodd" class="s0" d="m1183.7 1388.7c2.4-0.6 4.2 2.1 2.7 4.2l-66.8 91.6c-72.3 99.2-199.9 140.6-316.1 102.5l-579.8-189c-2.4-0.9-2.7-4.2-0.3-5.1 51.8-19.8 92-65.1 96.2-135.5 0.3-28.4-3-60.5-8.4-97.9-15-104.6 26.4-212.8 68.3-289.5 108.2-193.5 342.2-524.9 344.6-527.6 3-3.6 5.7-7.2 14-9.9 11.1-3.3 26.7 3.3 30.9 16.5 1.8 6.6 47.9 159.1 102.8 341.2 0.6 1.8-0.6 3.3-2.1 3.6-261 33-429.4 196.3-425.5 411.1 3.3 173.2 141.4 300.8 318.8 297.5 140.5-2.6 208.5-53.6 207.3-109.3-0.6-39.9-31.4-68.3-93.1-67.1-126.8 2.4-206.5-54-208-132.8-1.8-103.9 82.1-191.1 251.1-233.1 1.5-0.3 3 0.3 3.3 1.8 65.9 217.9 129.7 429.1 139 457.9 15.6 49.1 67.4 77.9 121.1 68.9zm-1143.1-399.4c-13.4 23.6-24.8 47-34.1 69.2-1.2 3-5.7 2.1-5.7-1.2l0.6-579.2c0-121.3 78.2-228.9 193.5-266.4l522.6-169c2.7-1.2 5.1 2.1 3.3 4.5-180.7 246-644.2 878.5-680.2 942.1zm1504.7-158.2c1.8-0.6 3.3 0.9 3.3 2.7-5.7 46.7-22.8 92.2-51.5 132.1l-224.1 307.7c-1.5 2.1-4.5 1.2-4.8-1.2q-0.9-6.9-3-13.5c-4.8-15.9-62.4-201.6-131.9-428.1-0.6-1.5 0.6-3.3 2.1-3.3 102.5-7.8 213.7-4.8 386.2 4.8 9.6 0.6 17.4 0 23.7-1.2zm-658.2-798.2c-3.3-10.5-7.5-19.5-12.6-27.6-1.2-2.1 0.3-4.8 2.7-4.8 93.4-5.4 185.7 36.6 242.7 115.1l377.5 521c28.7 39.9 45.5 85.4 51.2 131.8 0.3 2.4-2.4 4.2-4.8 3.3-12.9-6.6-31.7-13.1-59-20.6-131.5-36.6-252.3-56.1-393.1-61.8-1.2-0.3-2.4-1.2-3-2.4-79.1-256.7-163.3-529.4-201.6-654z"/>
		</g>
	</g>
</svg>