<?xml version="1.0" ?>
<svg xmlns="http://www.w3.org/2000/svg" viewBox="0 0 1540 412">
	<title>logo (34)-svg</title>
	<style>
		.s0 { fill: #ffffff } 
		.s1 { fill: #0bda51 } 
		.s2 { fill: #000000 } 
	</style>
	<path id="Layer" class="s0" d="m298.8 192.1c5.6-38 23.8-67.4 55-88.7-34 16.5-68.5 17.6-103.6 3.7 27.7 21.6 43.9 49.7 48.6 85zm-48.6 112.2c16.7-6.9 34.1-10.1 52.2-9.5 18.1 0.6 35.2 5.2 51.4 13.2-31.3-21.4-49.5-50.8-55-88.7-4.7 35.3-20.9 63.4-48.6 85zm-146.6-197.2c-34.8 13.8-69.2 12.8-103.1-3.3 30.9 21.2 48.9 50.4 54.5 87.3 4.9-34.6 21-62.5 48.6-84zm0 197.2c-27.5-21.5-43.7-49.5-48.7-84.1-2.5 17.8-8.3 34.3-17.7 49.5-9.5 15.2-21.8 27.7-36.6 37.9 16.2-7.8 33.1-12.3 51-12.8 18-0.6 35.3 2.7 52 9.5zm121.9-211.5c-29.9-23.7-46.1-54.6-48.7-92.8-0.8 18.3-5.4 35.5-13.9 51.7-8.5 16.2-20.2 29.8-34.7 41.1 32.5-13.2 64.8-13.2 97.3 0zm0 225.7c-32.4 13.2-64.8 13.2-97.2 0 29.8 23.8 46.1 54.5 48.6 92.5 2.2-38.1 20.6-71.3 48.6-92.5z"/>
	<path id="Layer" class="s1" d="m298.8 192.1c-4.7-35.3-20.9-63.4-48.6-85 35.1 13.9 69.6 12.8 103.6-3.7-31.2 21.3-49.5 50.7-55 88.7z"/>
	<path id="Layer" class="s1" d="m250.2 304.3c27.7-21.6 43.9-49.7 48.6-85 5.6 37.9 23.8 67.3 55 88.7-16.2-8-33.3-12.6-51.4-13.2-18.1-0.6-35.5 2.6-52.2 9.5z"/>
	<path id="Layer" class="s1" d="m103.6 107.1c-27.6 21.5-43.7 49.4-48.6 84-5.6-36.9-23.6-66.1-54.5-87.3 33.9 16.1 68.3 17.1 103.1 3.3z"/>
	<path id="Layer" class="s1" d="m103.6 304.3c-16.6-6.8-34-10.1-52-9.5-17.9 0.5-34.8 5-51 12.8 14.8-10.2 27.2-22.7 36.6-37.9 9.4-15.2 15.2-31.7 17.7-49.5 5 34.6 21.2 62.6 48.7 84.1z"/>
	<path id="Layer" class="s1" d="m225.5 92.8c-32.5-13.2-64.8-13.2-97.3 0 14.5-11.3 26.2-24.9 34.7-41.1q12.7-24.3 13.9-51.7c2.5 38.2 18.8 69.1 48.7 92.8z"/>
	<path id="Layer" class="s1" d="m225.5 318.5c-28 21.2-46.4 54.4-48.6 92.5-2.5-38-18.8-68.7-48.6-92.5 32.4 13.3 64.8 13.3 97.2 0.1z"/>
	<path id="Layer" fill-rule="evenodd" class="s2" d="m415.2 305.5l73-189.5h33.5l73.1 189.5h-37.1l-16.2-44.1h-73l-16.2 44.1zm89.7-143.7l-25.4 69.3h50.8z"/>
	<path id="Layer" class="s2" d="m616.1 305.5v-189.5h41.1l57.3 140 57.3-140h41.1v189.5h-33.5v-125.6l-51.4 125.6h-27l-51.7-125.6v125.6z"/>
	<path id="Layer" fill-rule="evenodd" class="s2" d="m835.1 305.5l74.4-189.5h25.9l74.4 189.5h-29.2l-18.2-48.2h-80l-18.1 48.2zm87.3-154.3l-30.8 81.5h61.7z"/>
	<path id="Layer" class="s2" d="m1034.1 305.5v-189.5h121.4v24.9h-93.3v54.4h75.5v24.9h-75.5v60.4h96.3v24.9z"/>
	<path id="Layer" fill-rule="evenodd" class="s2" d="m1190.2 305.5v-189.5h74.1c38.1 0 61.3 23 61.3 56.9 0 20.3-11.1 34.4-27.8 42.7 13.8 8.2 22.7 23.1 23.8 41.5l3.8 48.4h-27.3l-3.8-46c-1.4-16.8-12.5-28.7-28.7-28.7h-47.3v74.7zm28.1-99.6h45.2c24.6 0 34-16 34-33 0-17.3-9.4-32.5-34-32.5h-45.2z"/>
	<path id="Layer" fill-rule="evenodd" class="s2" d="m1445.5 307.7c-52 0-94-43.3-94-96.9 0-53.6 42-96.9 94-96.9 52 0 94 43.3 94 96.9 0 53.6-42 96.9-94 96.9zm65.3-96.9c0-39.8-29.2-72-65.3-72-36.1 0-65.3 32.2-65.3 72 0 39.8 29.2 72 65.3 72 36.1 0 65.3-32.2 65.3-72z"/>
</svg>