<?xml version="1.0" ?>
<svg xmlns="http://www.w3.org/2000/svg" viewBox="0 0 1554 446">
	<defs>
		<clipPath clipPathUnits="userSpaceOnUse" id="cp1">
			<path d="m1553 1v480h-1552v-480z"/>
		</clipPath>
		<clipPath clipPathUnits="userSpaceOnUse" id="cp2">
			<path d="m1553 1v453.81h-1552v-453.81z"/>
		</clipPath>
		<clipPath clipPathUnits="userSpaceOnUse" id="cp3">
			<path d="m1553 1v444.61h-1552v-444.61z"/>
		</clipPath>
	</defs>
	<style>.a{fill:#0081c0}</style>
	<g clip-path="url(#cp1)">
		<g clip-path="url(#cp2)">
			<path class="a" d="m395.6 19.7h-33.9v-13.8h83.4v13.8h-33.9v95.3h-15.6z"/>
			<path fill-rule="evenodd" class="a" d="m480.6 35.4v79.6h-14.7v-79.6zm-15.7-34.4h16.6v16.6h-16.6z"/>
			<g clip-path="url(#cp3)">
				<path class="a" d="m512.7 35.4h13.8v11.6h0.3c1.2-2.2 2.8-4.2 4.6-5.9 1.8-1.8 3.9-3.3 6.1-4.5 2.2-1.2 4.6-2 7.1-2.5 2.4-0.6 5-0.7 7.5-0.5 2.4-0.1 4.9 0.2 7.2 0.9 2.4 0.7 4.6 1.8 6.6 3.1 2 1.4 3.8 3.1 5.3 5 1.5 2 2.7 4.1 3.5 6.4 1.2-2.3 2.7-4.4 4.4-6.2 1.7-1.9 3.7-3.6 5.8-4.9 2.2-1.4 4.5-2.4 7-3.2 2.4-0.7 5-1.1 7.5-1.1 20.3 0 27.7 13.1 27.7 30.4v51h-14.7v-47.5c0-9.8-2.4-22.1-14.2-22.1-15 0-21 14.6-21 29.5v40.1h-14.7v-47.5c0-9.8-2.3-22.1-14.2-22.1-15 0-20.9 14.6-20.9 29.5v40.1h-14.7z"/>
				<path fill-rule="evenodd" class="a" d="m716.4 111.7q-3 1.3-6.1 2.3-3.1 1-6.2 1.6-3.2 0.7-6.4 1-3.2 0.3-6.5 0.3c-5.7 0.5-11.4-0.3-16.8-2.3-5.4-2-10.2-5.2-14.2-9.3-3.9-4.2-6.9-9.1-8.7-14.6-1.7-5.4-2.3-11.2-1.5-16.9-0.5-5.1 0.2-10.3 1.8-15.2 1.7-4.9 4.4-9.4 7.9-13.2 3.5-3.8 7.8-6.8 12.6-8.9 4.7-2 9.9-3 15-3 26.6 0 35.2 19.4 35.2 45h-56.8c-0.1 3.5 0.6 6.9 1.8 10.2 1.3 3.2 3.3 6.1 5.7 8.6 2.5 2.5 5.4 4.5 8.6 5.8 3.2 1.3 6.6 2 10.1 2q3.3-0.2 6.5-0.7 3.2-0.6 6.3-1.6 3.2-1 6.1-2.5 2.9-1.4 5.6-3.2zm-9.6-44.2c0.3-2.8 0-5.6-0.8-8.3q-1.3-4.1-4.2-7.2c-1.8-2.1-4.1-3.8-6.7-4.9-2.5-1.2-5.3-1.8-8.1-1.8-2.9 0.1-5.7 0.7-8.3 1.9-2.6 1.1-4.9 2.8-6.9 4.8-2 2.1-3.6 4.5-4.6 7.1-1.1 2.7-1.6 5.5-1.6 8.4z"/>
				<path fill-rule="evenodd" class="a" d="m864.9 56.1q-0.2 5-1.1 9.9-0.9 4.9-2.5 9.7-1.6 4.7-3.8 9.2-2.2 4.4-5.1 8.6l19.1 21.5h-19.5l-8.9-10.6q-2.9 3.3-6.5 5.8-3.6 2.5-7.7 4.1-4 1.6-8.4 2.3-4.3 0.6-8.7 0.3c-4.3 0.6-8.8 0.3-13-1-4.2-1.2-8.1-3.4-11.4-6.3-3.4-2.8-6-6.4-7.9-10.4-1.8-4-2.8-8.3-2.9-12.7 0-3.6 0.6-7.2 1.8-10.6 1.1-3.4 2.8-6.6 5-9.5 2.2-2.8 4.9-5.3 7.8-7.3 3-2 6.3-3.5 9.8-4.5q-2.5-2.4-4.5-5.3-1.9-2.9-3.4-6.1-1.4-3.1-2.2-6.5-0.9-3.4-1.1-6.9c-0.1-3.6 0.6-7.2 2.1-10.6 1.4-3.3 3.5-6.3 6.2-8.7 2.7-2.5 5.9-4.3 9.4-5.4 3.5-1 7.1-1.4 10.7-0.9 3.5-0.4 7-0.1 10.3 1 3.3 1.1 6.3 2.8 8.9 5.2 2.5 2.3 4.6 5.2 5.9 8.4 1.4 3.2 2 6.6 2 10.1-0.5 3.2-1.4 6.4-2.7 9.4-1.3 3-3 5.8-5.1 8.3-2.1 2.5-4.6 4.7-7.3 6.5-2.7 1.8-5.7 3.2-8.8 4.2l22.1 25.3q1.7-3 3-6.2 1.3-3.2 2.2-6.5 0.8-3.4 1.2-6.8 0.4-3.4 0.4-6.9zm-50.4 49q3-0.1 5.8-0.9 2.8-0.8 5.5-2.1 2.6-1.4 4.8-3.3 2.3-1.8 4.1-4.2l-26.3-30.7c-8.2 5.6-15.3 10.7-15.3 21.5 0.1 2.7 0.7 5.4 1.8 7.9 1.1 2.4 2.8 4.7 4.8 6.5 1.9 1.8 4.3 3.2 6.9 4.2 2.5 0.9 5.2 1.3 7.9 1.1zm-0.5-56.6c6.6-3.2 16.4-9.8 16.4-19 0.3-1.8 0.2-3.6-0.4-5.3-0.5-1.8-1.4-3.3-2.7-4.6-1.2-1.3-2.8-2.3-4.5-2.9-1.7-0.6-3.5-0.8-5.3-0.6-1.8-0.1-3.6 0.2-5.3 0.9-1.7 0.7-3.2 1.8-4.5 3.1-1.2 1.4-2.1 2.9-2.7 4.7-0.6 1.7-0.8 3.5-0.6 5.3q0.3 2.7 1.1 5.2 0.8 2.6 2 4.9 1.2 2.4 2.9 4.5 1.6 2.1 3.6 3.8z"/>
				<path fill-rule="evenodd" class="a" d="m965.2 5.9h16.4l46.1 109.1h-17.1l-11-27.5h-53.5l-11.1 27.5h-16.4zm7.7 14.7l-21.7 54.1h43.4z"/>
				<path class="a" d="m1064.5 17.5h-16.5v-16.5h16.5zm-0.9 17.8v79.6h-14.7v-79.6z"/>
				<path class="a" d="m1097 35.4h13.7v12.4h0.4q1.3-3.1 3.5-5.6 2.1-2.6 4.9-4.5 2.7-1.8 5.9-2.9 3.1-1.1 6.5-1.3 1.2 0 2.4 0.1 1.2 0.1 2.4 0.2 1.2 0.1 2.5 0.3 1.2 0.3 2.3 0.5v13.2q-0.9-0.4-1.9-0.7-1-0.3-2.1-0.4-1-0.2-2-0.3-1-0.1-2.1-0.1c-13.1 0-21.7 12.5-21.7 32.5v36.3h-14.7z"/>
				<path fill-rule="evenodd" class="a" d="m290.7 394.7c0 0 9.2 0.2 10.2 0.2 1.4 0 1.6 1.9 1.6 1.9v25.4q0 0.4-0.2 0.8-0.2 0.3-0.5 0.6-0.3 0.3-0.7 0.4-0.4 0.2-0.8 0.2h-124.9c-1.3 0-1.3-1-1.3-1v-27c0 0 0.2-1.6 1.8-1.6h13.6c7 0 12.1-3.5 8.6-11.5l-11-24.3c0 0-0.4-2-3.4-1.9-11.2 0-80.5 0-83.2 0q-0.6 0-1.2 0.2-0.6 0.2-1.1 0.6-0.5 0.3-0.9 0.8-0.4 0.5-0.7 1.1l-10.4 23.7c-0.6 1.1-0.9 2.3-1 3.6 0 1.2 0.3 2.5 0.9 3.6q0.8 1.7 2.4 2.7c1 0.7 2.2 1.2 3.4 1.3h15.6q0.6 0 1.2 0.2 0.5 0.2 1 0.7 0.4 0.4 0.6 0.9 0.3 0.6 0.3 1.2v24.5q0 0.4-0.2 0.8-0.2 0.4-0.5 0.7-0.4 0.4-0.8 0.5-0.4 0.2-0.8 0.2h-105.3c-2.2 0-2-1.6-2-1.6v-22c0 0 0-5.1 4-5.1 3.4 0 13.7-0.9 13.7-0.9 8.2-0.5 10.2-7.9 12.7-13.9l71.6-164.5c1.9-6.2-0.5-10.6-8.4-10.6h-12q-0.4 0-0.8-0.1-0.4-0.2-0.7-0.5-0.2-0.3-0.4-0.6-0.1-0.4-0.1-0.8v-27.3q0-0.3 0.2-0.6 0.1-0.3 0.3-0.5 0.3-0.2 0.5-0.3 0.3 0 0.6 0h100c1.6 0 2.7 2.1 2.7 2.1l88.5 206.8c3.9 8.4 5.5 10.9 17.3 10.9zm-168-74.7h38.2c9.1 0.3 9.4-1.1 7.5-5.8l-22.7-53c-2.6-4.9-3.9-4.6-5.9 0.4l-22.4 51.7c-2.2 5.1-2.1 6.7 5.3 6.7z"/>
				<path fill-rule="evenodd" class="a" d="m944.8 396.9c0 0 8.2 0.2 9.1 0.2 2.6 0 2.8 1.9 2.8 1.9v24.8q-0.1 0.5-0.2 0.8-0.2 0.4-0.5 0.6-0.3 0.3-0.7 0.5-0.4 0.1-0.8 0.1h-125c-1.3 0-1.3-1-1.3-1v-26.4c0 0 0.3-1.6 1.8-1.6h13.6c1.7 0.2 3.4-0.2 4.9-0.9 1.5-0.7 2.8-1.9 3.7-3.3 0.9-1.4 1.3-3 1.4-4.7 0-1.7-0.4-3.3-1.3-4.8l-11-22.9c0 0-0.3-1.9-3.4-1.8-11.2 0-80.5 0-83.2 0q-0.6 0-1.2 0.2-0.6 0.2-1.1 0.5-0.5 0.4-0.9 0.8-0.4 0.5-0.7 1.1l-10.4 22.4c-0.6 1.2-0.9 2.6-0.9 4-0.1 1.3 0.2 2.7 0.7 4 0.6 1.2 1.4 2.4 2.4 3.3 1 0.9 2.2 1.6 3.5 2h15.7q0.6 0 1.1 0.2 0.6 0.3 1 0.7 0.5 0.4 0.7 0.9 0.2 0.6 0.3 1.2v23.8q-0.1 0.4-0.3 0.9-0.2 0.4-0.5 0.7-0.3 0.3-0.7 0.5-0.4 0.1-0.9 0.1h-105.3c-2.2 0-2-1.6-2-1.6v-23.4c0 0 0.1-5.2 4-5.2 3.4 0 14.5-0.8 14.5-0.8 8.2-0.5 10.1-7.9 12.7-13.9l70.9-163.8c1.8-6.3-0.6-10.6-8.5-10.6h-12q-0.4 0-0.8-0.1-0.4-0.2-0.7-0.5-0.3-0.3-0.4-0.7-0.1-0.3-0.1-0.8v-26.5q0-0.3 0.2-0.6 0.1-0.3 0.3-0.5 0.2-0.2 0.5-0.3 0.3-0.1 0.6-0.1h99.9c1.7 0 2.7 2.1 2.7 2.1l88.5 205.3c3.9 8.5 5.5 13.2 17.3 13.2zm-169.5-76h39.7c11.4 0.8 9.4-2 7.4-6.6l-22.7-53c-2.5-4.9-3.8-4.6-5.9 0.3l-24 53.5c-2.1 5.1-2 5.8 5.5 5.8z"/>
				<path class="a" d="m474.3 299.2l-48-121.6q-0.4-0.6-0.9-1.1-0.5-0.5-1.1-0.9-0.6-0.3-1.3-0.5-0.7-0.2-1.4-0.2h-97.1q-0.4 0-0.8 0.2-0.4 0.1-0.7 0.4-0.2 0.3-0.4 0.6-0.1 0.4-0.1 0.8v26.6q0 0.3 0.1 0.7 0.1 0.3 0.4 0.6 0.3 0.2 0.6 0.4 0.3 0.1 0.7 0.1c1.7 0 9.9 0.2 9.9 0.2 11.4 0 11.2 6.6 11.2 15.5v160.8c0 5.1-1.4 12.9-11 12.9h-10.2q-0.3-0.1-0.6 0.1-0.4 0.1-0.6 0.3-0.3 0.2-0.4 0.5-0.1 0.3-0.1 0.7v26q-0.1 0.4 0 0.7 0 0.4 0.3 0.7 0.2 0.3 0.5 0.4 0.4 0.2 0.8 0.2h93c1.7 0 1.7-2.1 1.7-2.1v-25.8q0.1-0.3 0-0.6-0.1-0.4-0.3-0.6-0.3-0.3-0.6-0.5-0.3-0.1-0.7-0.1h-10.5c-1.4 0.2-2.9 0.1-4.3-0.4q-2.3-0.6-3.9-2.1c-1.1-1-2-2.2-2.6-3.6-0.6-1.4-0.8-2.8-0.8-4.3v-86.7c0-10.9 2.7-8.4 5-2.6l51.2 128.1q0.1 0.3 0.3 0.6 0.1 0.2 0.4 0.4 0.3 0.2 0.6 0.3 0.3 0.1 0.6 0h33.9q0.3 0 0.6-0.1 0.2-0.1 0.5-0.3 0.2-0.1 0.4-0.4 0.1-0.2 0.2-0.5l52.1-126c2.9-8.3 5.6-9.2 5.6-4.4v90.8c0 4.7-0.3 12-11.2 12h-10.9q-0.4 0-0.8 0.1-0.4 0.1-0.6 0.4-0.3 0.3-0.4 0.7-0.1 0.4-0.1 0.8v26.2q0 0.3 0.1 0.6 0.1 0.3 0.4 0.6 0.2 0.2 0.5 0.4 0.3 0.1 0.6 0.1h110.2q0.3 0 0.6-0.1 0.2-0.2 0.5-0.4 0.2-0.2 0.3-0.4 0.2-0.3 0.2-0.6v-26.3c0 0-0.4-1.8-2-1.8h-7.7c-15.5 0-14.9-8-14.9-12.6v-164.2c0-12.2 9.4-12.9 14.6-12.9h8c1.9 0 1.7-2.2 1.7-2.2l0.1-26.1c0 0-0.3-2.3-1.9-2.3h-93q-0.5 0-1 0.1-0.5 0.1-1 0.4-0.5 0.2-0.9 0.6-0.4 0.3-0.6 0.8l-53.8 127.3c-4.1 8.8-5.3 3.8-9.2-5.4z"/>
				<path class="a" d="m1058.9 268.3l100.4 159.2h79.9v-202.9c0-9-1.9-16.4 11.8-16.4 0 0 7.2-0.3 9.1-0.3q0.4 0 0.7-0.1 0.3-0.1 0.5-0.3 0.3-0.2 0.4-0.5 0.2-0.3 0.2-0.6v-26.6c0 0-0.3-2-1.7-2h-94.9c-1.8 0-1.5 1.8-1.5 1.8v26.7c0 0-0.3 1.6 1.6 1.6h11.2c9.7 0 11.5 7.2 11.5 12.6 0 0 0.2 119.8 0.2 121.1 0 1.3-1.8 3.2-3.6 0.4-2-3.1-94.4-148.2-103.9-163.1q-0.1-0.4-0.4-0.7-0.2-0.3-0.6-0.6-0.3-0.2-0.7-0.3-0.4-0.1-0.8-0.2h-98.1q-0.5 0-0.9 0.2-0.4 0.2-0.7 0.5-0.3 0.3-0.4 0.7-0.2 0.5-0.1 0.9v26.4q0.1 0.3 0.2 0.6 0.2 0.2 0.4 0.4 0.3 0.2 0.6 0.3 0.2 0.1 0.5 0.1h10.9c7.2 0 11 1.6 11 15.7v161.4c0 5.8-0.9 12.6-12.4 12.6h-10.5c-1.9 0-1.8 2.1-1.8 2.1v25.3c0 0 0 2 1.8 2h94.4q0.4 0.1 0.8-0.1 0.4-0.1 0.7-0.4 0.3-0.3 0.4-0.7 0.2-0.4 0.2-0.8v-24.7q-0.1-0.4-0.2-0.7-0.2-0.3-0.4-0.5-0.3-0.3-0.6-0.4-0.3-0.1-0.7-0.1c-1.6 0-10.8-0.9-10.8-0.9-12.4 0-11.2-7.5-11.2-13.1v-117.3c-0.2-6.4 2.3-7.7 7.5 1.7z"/>
				<path fill-rule="evenodd" class="a" d="m1273.2 302.7c-0.5-18.5 2.7-36.8 9.5-53.9 6.9-17.1 17.2-32.6 30.2-45.6 13.1-13 28.8-23.1 45.9-29.8 17.2-6.7 35.6-9.8 54-9 18.4-0.3 36.6 3.2 53.7 10 17 6.9 32.5 17.2 45.6 30.1 13 13 23.4 28.4 30.4 45.4 7 17 10.6 35.2 10.5 53.6 0 78.5-52.1 142.1-140.2 142.1-18.7 0.3-37.3-3.2-54.6-10.4-17.2-7.1-32.9-17.7-45.9-31-13.1-13.4-23.3-29.3-30-46.8-6.7-17.4-9.8-36.1-9.1-54.7zm139.6 105.4c52.8 0 67.2-46.9 67.2-104.6 0-57.8-20.1-101-67.2-101-51.1 0-65.6 43.2-65.6 101 0 57.8 18 104.6 65.6 104.6z"/>
			</g>
		</g>
	</g>
</svg>