<?xml version="1.0" encoding="UTF-8"?>
<svg xmlns="http://www.w3.org/2000/svg"  viewBox="0 0 467 180">
	<style type="text/css">
		.st0{fill:#383838;}
		.st1{filter:url(#Adobe_OpacityMaskFilter);}
		.st2{fill:#FFFFFF;}
		.st3{mask:url(#mask-2);fill:#383838;}
		.st4{filter:url(#Adobe_OpacityMaskFilter_1_);}
		.st5{mask:url(#mask-4);fill:#383838;}
		.st6{filter:url(#Adobe_OpacityMaskFilter_2_);}
		.st7{mask:url(#mask-6);fill:#383838;}
		.st8{filter:url(#Adobe_OpacityMaskFilter_3_);}
		.st9{mask:url(#mask-8);fill:#383838;}
		.st10{fill:#05A6CC;}
		.st11{filter:url(#Adobe_OpacityMaskFilter_4_);}
		.st12{mask:url(#mask-10);fill:#383838;}
		.st13{filter:url(#Adobe_OpacityMaskFilter_5_);}
		.st14{mask:url(#mask-12);fill:#DC1F26;}
	</style>
	<g id="Page-1_1_">
		<g id="Branding" transform="translate(-30.000000, -451.000000)">
			<g id="Color-logo" transform="translate(30.000000, 131.000000)">
				<path id="Fill-1" class="st0" d="M93.7,350.5l-11.1,27.6h22.2L93.7,350.5z M89.8,343h8.4l23.6,55.7H113l-5.7-14.1H80l-5.7,14.1     H66L89.8,343z"/>
				<g id="Group-38" transform="translate(0.000000, 0.167930)">
					<path id="Fill-2" class="st0" d="M124.3,357.9h7v5.9h0.2c2.9-4.7,6.9-6.9,12.9-6.9c4.7,0,9.4,2.4,11.6,7.9      c2.8-5.8,8.9-7.9,12.6-7.9c10.4,0,14.1,6.7,14.1,15.6v26.1h-7.5v-24.3c0-5-1.2-11.3-7.3-11.3c-7.7,0-10.7,7.5-10.7,15.1v20.5      h-7.5v-24.3c0-5-1.2-11.3-7.3-11.3c-7.7,0-10.7,7.5-10.7,15.1v20.5h-7.5V357.9z"/>
					<path id="Fill-4" class="st0" d="M205.9,363c-8.1,0-12.1,7.7-12.1,15.3c0,6.8,3.5,15.2,12,15.2c8.1,0,11.4-9,11.3-15.4      C217.2,370.7,214,363,205.9,363L205.9,363z M186.3,338.7h7.5v24.8h0.2c2.3-3.8,6.4-6.5,13.5-6.5c11.8,0,17.6,9.7,17.6,20.6      c0,11.2-5.2,22-17.5,22c-7.3,0-11.9-3.7-13.9-6.7h-0.2v5.8h-7.2V338.7z"/>
					<g id="Group-8" transform="translate(226.705539, 37.084548)">
						
						<defs>
							<filter id="Adobe_OpacityMaskFilter" filterUnits="userSpaceOnUse" x="0" y="319.8" width="34.7" height="42.6">
								<feColorMatrix type="matrix" values="1 0 0 0 0  0 1 0 0 0  0 0 1 0 0  0 0 0 1 0"/>
							</filter>
						</defs>
						<mask maskUnits="userSpaceOnUse" x="0" y="319.8" width="34.7" height="42.6" id="mask-2">
							<g class="st1">
								<polygon id="path-1" class="st2" points="0,362.4 34.7,362.4 34.7,319.8 0,319.8        "/>
							</g>
						</mask>
						<path id="Fill-6" class="st3" d="M26.9,342.1c-1.6,0-3.2-0.2-4.8-0.2c-4.1,0-14.1,0.6-14.1,7.8c0,4.3,4.2,6.6,7.6,6.6       c7.4,0,11.3-4.6,11.3-10.7V342.1z M4.6,323.6c3.8-2.2,8.2-3.8,13.4-3.8c11.7,0,16.4,5.7,16.4,16.8v16.8c0,4.6,0.2,6.8,0.3,8h-7       v-5.3h-0.2c-1.8,2.5-5.7,6.2-12.6,6.2c-8.8,0-14.9-3.8-14.9-12.7c0-10.2,11.2-13.4,18.9-13.4c3,0,5,0,8,0.2       c0-7-2.6-10.6-10.1-10.6c-4.2,0-8.8,1.6-11.8,4.2L4.6,323.6z"/>
					</g>
					<g id="Group-11" transform="translate(264.723032, 37.084548)">
						
						<defs>
							<filter id="Adobe_OpacityMaskFilter_1_" filterUnits="userSpaceOnUse" x="0.1" y="319.8" width="25.6" height="42.6">
								<feColorMatrix type="matrix" values="1 0 0 0 0  0 1 0 0 0  0 0 1 0 0  0 0 0 1 0"/>
							</filter>
						</defs>
						<mask maskUnits="userSpaceOnUse" x="0.1" y="319.8" width="25.6" height="42.6" id="mask-4">
							<g class="st4">
								<polygon id="path-3" class="st2" points="0.1,362.4 25.7,362.4 25.7,319.8 0.1,319.8        "/>
							</g>
						</mask>
						<path id="Fill-9" class="st5" d="M0.7,353.5c3,1.9,7.2,2.9,9.3,2.9c3.4,0,7.7-1.4,7.7-5.8c0-7.4-17.6-6.8-17.6-18.2       c0-8.5,6.3-12.5,14.4-12.5c3.5,0,6.4,0.7,9.3,1.6l-0.6,6.5c-1.7-1-6.1-2.1-7.9-2.1c-3.8,0-7.2,1.6-7.2,5       c0,8.3,17.6,5.9,17.6,18.9c0,8.7-6.9,12.7-14.2,12.7c-3.8,0-7.7-0.4-11.2-2.2L0.7,353.5z"/>
					</g>
					<g id="Group-14" transform="translate(292.478134, 37.084548)">
						
						<defs>
							<filter id="Adobe_OpacityMaskFilter_2_" filterUnits="userSpaceOnUse" x="0.1" y="319.8" width="25.6" height="42.6">
								<feColorMatrix type="matrix" values="1 0 0 0 0  0 1 0 0 0  0 0 1 0 0  0 0 0 1 0"/>
							</filter>
						</defs>
						<mask maskUnits="userSpaceOnUse" x="0.1" y="319.8" width="25.6" height="42.6" id="mask-6">
							<g class="st6">
								<polygon id="path-5" class="st2" points="0.1,362.4 25.7,362.4 25.7,319.8 0.1,319.8        "/>
							</g>
						</mask>
						<path id="Fill-12" class="st7" d="M0.7,353.5c3,1.9,7.2,2.9,9.3,2.9c3.4,0,7.7-1.4,7.7-5.8c0-7.4-17.6-6.8-17.6-18.2       c0-8.5,6.3-12.5,14.4-12.5c3.5,0,6.4,0.7,9.3,1.6l-0.6,6.5c-1.7-1-6.1-2.1-7.9-2.1c-3.8,0-7.2,1.6-7.2,5       c0,8.3,17.6,5.9,17.6,18.9c0,8.7-6.9,12.7-14.2,12.7c-3.8,0-7.7-0.4-11.2-2.2L0.7,353.5z"/>
					</g>
					<g id="Group-17" transform="translate(320.233236, 37.084548)">
						
						<defs>
							<filter id="Adobe_OpacityMaskFilter_3_" filterUnits="userSpaceOnUse" x="0" y="319.8" width="34.7" height="42.6">
								<feColorMatrix type="matrix" values="1 0 0 0 0  0 1 0 0 0  0 0 1 0 0  0 0 0 1 0"/>
							</filter>
						</defs>
						<mask maskUnits="userSpaceOnUse" x="0" y="319.8" width="34.7" height="42.6" id="mask-8">
							<g class="st8">
								<polygon id="path-7" class="st2" points="0,362.4 34.7,362.4 34.7,319.8 0,319.8        "/>
							</g>
						</mask>
						<path id="Fill-15" class="st9" d="M26.9,342.1c-1.6,0-3.2-0.2-4.8-0.2c-4.1,0-14.1,0.6-14.1,7.8c0,4.3,4.1,6.6,7.6,6.6       c7.4,0,11.3-4.6,11.3-10.7V342.1z M4.6,323.6c3.8-2.2,8.2-3.8,13.4-3.8c11.7,0,16.4,5.7,16.4,16.8v16.8c0,4.6,0.2,6.8,0.3,8h-7       v-5.3h-0.2c-1.8,2.5-5.7,6.2-12.6,6.2c-8.8,0-14.9-3.8-14.9-12.7c0-10.2,11.2-13.4,18.9-13.4c3,0,5,0,8,0.2       c0-7-2.6-10.6-10.1-10.6c-4.2,0-8.8,1.6-11.8,4.2L4.6,323.6z"/>
					</g>
					<path id="Fill-18" class="st0" d="M376.7,393.5c8.5,0,12-8.4,12-15.2c0-7.6-3.9-15.3-12.1-15.3c-8.1,0-11.3,7.7-11.2,15.1      C365.3,384.4,368.7,393.5,376.7,393.5L376.7,393.5z M389,392.8h-0.2c-2,3-6.6,6.7-13.9,6.7c-12.3,0-17.5-10.9-17.5-22      c0-10.9,5.8-20.6,17.6-20.6c7.1,0,11.2,2.8,13.5,6.5h0.2v-24.8h7.5v59.9H389V392.8z"/>
					<path id="Fill-20" class="st0" d="M419.7,393.5c8.8,0,12.7-8,12.7-15.2c0-7.7-4.7-15.2-12.7-15.2c-8.1,0-12.8,7.5-12.8,15.2      C406.9,385.5,410.8,393.5,419.7,393.5 M419.7,356.9c12.4,0,20.7,8.9,20.7,21.3c0,11.7-8.5,21.3-20.7,21.3      c-12.3,0-20.8-9.7-20.8-21.3C398.9,365.8,407.3,356.9,419.7,356.9"/>
					<path id="Fill-22" class="st0" d="M444,357.9h7v6.3h0.2c2-4.2,6.3-7.3,10.6-7.3c2.2,0,3.4,0.2,5,0.6v6.7      c-1.4-0.6-2.9-0.7-4.2-0.7c-6.7,0-11.1,6.4-11.1,16.6v18.5H444V357.9z"/>
					<path id="Fill-24" class="st10" d="M55.5,363.4c0,0.5-0.1,1-0.4,1.4l0,0L55,365l-6.3,9.2l-1.1,1.5l-0.5,0.8l-2.8,4l-0.5,0.7      l-3.3,4.8c0,0.1-0.1,0.2-0.2,0.2l0,0c-0.3,0.3-0.6,0.5-1.1,0.6c-0.1,0-0.2,0-0.3,0c-0.5,0-0.9-0.2-1.2-0.5c0,0,0,0,0,0      c0,0-0.1-0.1-0.1-0.1c-0.1-0.1-0.3-0.3-0.4-0.4c-2-2.1-5.1-5.4-8.2-8.7c-0.5-0.6-1-1.1-1.5-1.7c-0.1-0.1-0.2-0.2-0.3-0.3      c-0.2-0.2-0.3-0.5-0.5-0.7c-1.4-1.6-2.8-3-3.8-4.3v0c-0.7-0.7-1.2-1.3-1.7-1.8c-0.2-0.3-0.5-0.5-0.7-0.8c0,0,0,0,0,0      c-0.1-0.1-0.1-0.2-0.2-0.3c0,0,0,0,0,0c-0.2-0.4-0.4-0.8-0.4-1.2c0-0.3,0.1-0.6,0.2-0.9c0,0,0,0,0,0c0.1-0.1,0.1-0.2,0.2-0.4      c0.1-0.2,0.2-0.4,0.4-0.6c0.1-0.1,0.1-0.2,0.2-0.3c0-0.1,0.1-0.1,0.1-0.2c0,0,0,0,0,0c0.2-0.3,0.5-0.7,0.7-1      c0.1-0.1,0.2-0.3,0.3-0.4c0.8-1.1,1.6-2.2,2.5-3.3c0.7-0.9,1.3-1.7,2-2.6c0,0,0,0,0,0c0.2-0.2,0.3-0.5,0.5-0.7      c1-1.5,1.9-3.2,2.5-5.2c0-0.2,0.1-0.3,0.1-0.5c0-0.1,0-0.2,0-0.3c0.8-2.6,2.3-5.4,3.5-8.1v0c1.2-2,2.2-3.9,3.2-5.5      c0.3-0.4,0.6-0.9,0.8-1.3c0.3-0.4,0.5-0.8,0.8-1.2c0,0,0,0,0-0.1c0.2-0.3,0.4-0.6,0.6-0.9c0.1-0.1,0.2-0.3,0.3-0.4      c0-0.1,0.1-0.1,0.1-0.2c0.1-0.1,0.2-0.3,0.3-0.4c0.2-0.2,0.3-0.4,0.4-0.6c0.4-0.1,0.8-0.2,1.2-0.3c0.1,0,0.2-0.1,0.4-0.1      c0.1,0,0.1-0.1,0.2-0.1l2.3,5.9l11.3,25.8l0.1,0.1C55.5,362.6,55.5,363,55.5,363.4"/>
					<path id="Fill-26" class="st0" d="M55.4,396.9c0,1.5-3.3,2.7-7.3,2.7c-4,0-7.3-1.2-7.3-2.7c0-1.2,2-2.1,4.8-2.5l-1.7-13.1      l0.5-0.7l2.8-4l0.5-0.8l2.4,18.5C53.1,394.6,55.4,395.6,55.4,396.9"/>
					<path id="Fill-28" class="st0" d="M41.6,330.4c-0.1,0-0.1,0-0.2,0.1c-0.1,0-0.2,0.1-0.4,0.1c-0.4,0.1-0.8,0.2-1.2,0.3      c-0.1,0.2-0.3,0.4-0.4,0.6c-0.1,0.1-0.2,0.3-0.3,0.4c0,0.1-0.1,0.1-0.1,0.2c-0.1,0.1-0.2,0.3-0.3,0.4c-0.2,0.3-0.4,0.6-0.6,0.9      c0,0,0,0,0,0.1c-0.3,0.4-0.5,0.8-0.8,1.2c0.4-0.7,0.6-1.5,0.6-2.4l-0.2-1.4c-0.4-0.1-0.8-0.2-1-0.3c-0.4-0.2-0.6-0.4-0.6-0.7      c0-0.2,0-0.3,0.1-0.5c0.1-0.2,0.2-0.3,0.4-0.5l0.1-1.6l0.2-2.4l0.1-1.5l0.2-2.8c0-0.4,0.4-0.8,0.9-0.8c0.3,0,0.6,0.2,0.8,0.4      l0.1,0.2l1,2.5l1.5,3.8l0.5,1.3c0.1,0,0.2,0.1,0.3,0.1c0.3,0.2,0.5,0.4,0.6,0.7C43.1,329.5,42.5,330,41.6,330.4"/>
					<path id="Fill-30" class="st0" d="M35.2,396.8c0,1.5-3.3,2.7-7.3,2.7c-4,0-7.3-1.2-7.3-2.7c0-1.1,2-2.1,4.7-2.5l-1.7-13l0.6-0.8      l1.9-2.7c0.4,0.4,0.8,0.9,1.2,1.3l0,0.1c0.1,0,0.1,0.1,0.2,0.1c0.1,0.1,0.2,0.2,0.3,0.3c0.1,0.1,0.2,0.3,0.3,0.5l0.1,0.4v0      l1.8,13.8C33,394.5,35.2,395.6,35.2,396.8"/>
					<g id="Group-34" transform="translate(15.860058, -0.000000)">
						
						<defs>
							<filter id="Adobe_OpacityMaskFilter_4_" filterUnits="userSpaceOnUse" x="0.1" y="319.8" width="6.8" height="15.2">
								<feColorMatrix type="matrix" values="1 0 0 0 0  0 1 0 0 0  0 0 1 0 0  0 0 0 1 0"/>
							</filter>
						</defs>
						<mask maskUnits="userSpaceOnUse" x="0.1" y="319.8" width="6.8" height="15.2" id="mask-10">
							<g class="st11">
								<polygon id="path-9" class="st2" points="7,319.8 0.1,319.8 0.1,335 7,335        "/>
							</g>
						</mask>
						<path id="Fill-32" class="st12" d="M5.6,330.4c-0.1,0-0.2,0.1-0.2,0.1c-0.1,0-0.2,0.1-0.4,0.1l0-0.1c0,0,0,0.1,0,0.1       c-0.4,0.1-0.8,0.2-1.2,0.3c-0.3,0.4-0.7,1-1.1,1.6c-0.1,0.1-0.1,0.2-0.2,0.2c-0.1,0.1-0.2,0.3-0.3,0.4c-0.1,0.1,0,0.2-0.3,0.3       v0c-0.2,0.5-0.6,1-0.9,1.5c0.5-0.9,0.8-2,0.8-3.1l-0.1-1c-0.9-0.2-1.6-0.5-1.6-1.1c0-0.2,0-0.3,0.1-0.5       c0.1-0.2,0.2-0.3,0.4-0.5l0.1-1.6l0.2-2.4l0.1-1.5l0.2-2.7h0c0-0.5,0.4-0.8,0.9-0.8c0.4,0,0.7,0.2,0.8,0.5l0,0l1,2.6l1.5,3.8       l0.5,1.3c0.1,0,0.2,0.1,0.3,0.1c0.3,0.2,0.5,0.4,0.6,0.7C7,329.4,6.5,330,5.6,330.4"/>
					</g>
					<g id="Group-37" transform="translate(0.000000, 10.495627)">
						
						<defs>
							<filter id="Adobe_OpacityMaskFilter_5_" filterUnits="userSpaceOnUse" x="0" y="319.9" width="27.8" height="56.5">
								<feColorMatrix type="matrix" values="1 0 0 0 0  0 1 0 0 0  0 0 1 0 0  0 0 0 1 0"/>
							</filter>
						</defs>
						<mask maskUnits="userSpaceOnUse" x="0" y="319.9" width="27.8" height="56.5" id="mask-12">
							<g class="st13">
								<polygon id="path-11" class="st2" points="0,319.9 0,376.3 27.8,376.3 27.8,319.9        "/>
							</g>
						</mask>
						<path id="Fill-35" class="st14" d="M27.8,335.4c0,0,0,0.1,0,0.1c0,0,0,0.1,0,0.1c0,0,0,0,0,0c0,0.1,0,0.1,0,0.2c0,0,0,0,0,0       c-0.4,2.5-1.2,4.8-2.2,6.6c-0.2,0.5-0.7,1.3-1.4,2.3c-0.8,1.1-1.8,2.4-2.8,3.7c-0.2,0.2-0.3,0.4-0.5,0.6       c-0.1,0.1-0.1,0.2-0.2,0.3c-1.3,1.7-2.6,3.4-3.4,4.8c0,0,0,0,0,0c-0.1,0.2-0.2,0.4-0.3,0.6c0,0,0,0,0,0       c-0.1,0.3-0.2,0.7-0.2,1.1c0,0.6,0.2,1.1,0.5,1.6c0,0,0,0,0,0c0.1,0.1,0.2,0.2,0.3,0.3c0,0,0,0,0,0c1.1,1.4,3.1,3.6,5.3,6       c0.3,0.3,0.5,0.6,0.8,0.9c0.8,0.9,1.7,1.9,2.6,2.8l-1.9,2.7l-0.6,0.8l-3.2,4.7l0,0l-0.1,0.1l0,0l0,0c0,0,0,0,0,0       c-0.3,0.4-0.8,0.7-1.3,0.7c0,0,0,0-0.1,0c-0.5,0-0.9-0.2-1.2-0.5c0,0-0.1-0.1-0.1-0.1c0,0,0,0,0,0c0,0,0,0,0,0c0,0,0,0,0,0       c-3.9-4.1-14-14.8-17-18.5l0,0c-0.4-0.5-0.6-1.1-0.6-1.7c0-0.5,0.1-0.9,0.3-1.3l0,0c1.2-2.1,3.7-5.3,5.8-7.9       c0.6-0.7,1.1-1.5,1.5-2.1c0.6-1.1,1.2-2.2,1.6-3.5c0,0,0,0,0,0c0.1-0.4,0.3-0.9,0.4-1.4c0.7-2.4,1.9-4.9,3.1-7.4       c1.2-2.3,2.5-4.6,3.7-6.5c0,0,0,0,0,0c0.2-0.2,0.3-0.5,0.4-0.7c0.3-0.5,0.7-1.1,0.9-1.5v0c0.2-0.1,0.2-0.2,0.3-0.3       c0.1-0.2,0.2-0.3,0.3-0.4c0.1-0.1,0.1-0.2,0.2-0.2c0.4-0.6,0.8-1.1,1.1-1.6c0.4-0.1,0.8-0.2,1.2-0.3c0,0,0,0,0,0       c0.1,0,0.2-0.1,0.4-0.1c0.1,0,0.2-0.1,0.2-0.1l0.9,2.3l1.1,2.9l4.1,9.4l0.2,0.4C27.8,335,27.8,335.2,27.8,335.4"/>
					</g>
				</g>
			</g>
		</g>
	</g>
</svg>
