<?xml version="1.0" ?>
<svg xmlns="http://www.w3.org/2000/svg" viewBox="0 0 1570 1017">
	<title>logosdsdsd</title>
	<defs>
		<clipPath clipPathUnits="userSpaceOnUse" id="cp1">
			<path d="m5101.88-3.32v1025.64h-5103.88v-1025.64z"/>
		</clipPath>
	</defs>
	<style>
		.s0 { fill: #39b54a } 
	</style>
	<g id="Clip-Path" clip-path="url(#cp1)">
		<g>
			<path class="s0" d="m1568.1 974.9c-11.4-40-312.9-973.9-783.5-973.9-470.6 0-774.3 933.3-783.6 973.9-6.6 29.5 23.2 51.8 49.8 36.1 3-1.8 298.1-208.6 733.8-208.6 435.7 0 730.7 206.8 733.8 208.6 26.6 16.1 58-7.1 49.7-36.1zm-1302.6-456.7c126.8-228.2 309.9-452.5 519.1-452.5 209.2 0 392.2 224.3 519.1 452.5 0.7 1.2 1.1 2.6 1.1 4.1 0 4.4-3.6 7.9-7.9 7.9-2.1 0-4.1-0.8-5.4-2.1-161-190.2-334.7-295.4-506.8-295.4-172.1 0-345.9 105.2-506.8 295.4-1.4 1.3-3.4 2.1-5.4 2.1-4.4 0-7.9-3.5-7.9-7.9 0-1.5 0.4-2.8 1-4.1zm-67.2 203.6c127.7-194.1 345.1-424.4 586.4-424.4 241.3 0 458.6 230.4 586.3 424.4 0.8 1.3 1.1 2.9 1.1 4.4 0 4.8-3.8 8.6-8.5 8.6-2.3 0-4.4-0.9-5.9-2.3l-11.2-10.7c-176.7-156.6-370.8-242-561.7-242-191 0-385.1 85.4-561.7 242l-11.3 10.7c-1.5 1.4-3.7 2.3-5.8 2.3-4.8 0-8.6-3.8-8.6-8.6 0-1.6 0.4-3.1 1.1-4.4zm1197.7 147.3c-1.1 0-2.2-0.2-3.2-0.7-134.7-61.2-345.6-130.9-608.2-130.9-262.6 0-473.5 69.7-608.1 130.9-1 0.5-2.1 0.6-3.3 0.7-4.7 0.1-8.6-3.6-8.7-8.3 0-2.4 1.8-5.1 3.3-6.6 124.3-133.9 347.8-309.6 616.9-309.6 269 0 492.4 175.7 616.8 309.6 1.5 1.6 3.3 4.2 3.3 6.6-0.1 4.7-4.1 8.4-8.7 8.3z"/>
		</g>
	</g>
</svg>