<?xml version="1.0" ?>
<svg xmlns="http://www.w3.org/2000/svg" viewBox="0 0 90 90">
	<defs>
		<linearGradient x1="100%" y1="0%" x2="0%" y2="100%" id="a">
			<stop stop-color="#0091DA" offset="0%"/>
			<stop stop-color="#0D79C1" offset="34%"/>
			<stop stop-color="#1962A9" offset="75%"/>
			<stop stop-color="#1E5AA0" offset="100%"/>
		</linearGradient>
		<linearGradient x1="100%" y1="0%" x2="0%" y2="100%" id="b">
			<stop stop-color="#9CC3D1" offset="0%"/>
			<stop stop-color="#8CA9B6" offset="35%"/>
			<stop stop-color="#7D929E" offset="75%"/>
			<stop stop-color="#788995" offset="100%"/>
		</linearGradient>
	</defs>
	<g fill="none">
		<path d="M58.91 80.333H1.464V22.885H58.91v57.448Zm-11.016-46.43H12.48v35.413h35.423l-.01-35.414Z" fill="url(#a)" transform="translate(4 4)"/>
		<g opacity=".8" fill="#FFF">
			<path opacity=".5" d="M15.846 73.95h36.69l-.633-.625H16.48z"/>
			<path opacity=".3" d="M16.48 73.325V37.902l-.634-.625V73.95z"/>
			<path opacity=".5" d="M62.91 26.885H5.464l.634.634h56.19z"/>
			<path opacity=".3" d="M62.286 27.519v56.19l.625.624V26.885z"/>
		</g>
		<g opacity=".9" fill="#212120">
			<path opacity=".85" d="M47.916 10.646h-36.69l.633.634h35.423z" transform="translate(4.621 26.632)" mix-blend-mode="multiply"/>
			<path opacity=".6" d="M47.282 11.27v35.423l.625.625V10.646z" transform="translate(4.621 26.632)" mix-blend-mode="multiply"/>
			<path opacity=".85" d="M.842 57.701H58.29l-.625-.633H1.475z" transform="translate(4.621 26.632)" mix-blend-mode="multiply"/>
			<path opacity=".6" d="M1.476 57.077V.887L.842.253v57.448z" transform="translate(4.621 26.632)" mix-blend-mode="multiply"/>
		</g>
		<path d="M81.425 57.828H23.977V.38h57.448v57.448Zm-11.017-46.43H34.985V46.81h35.414l.009-35.414Z" fill="url(#b)" transform="translate(4 4)"/>
		<g opacity=".8" fill="#FFF">
			<path opacity=".5" d="M38.36 51.445h36.681l-.633-.634H38.985z"/>
			<path opacity=".3" d="M38.985 50.82V15.397l-.625-.624v36.672z"/>
			<path opacity=".5" d="M85.425 4.38H27.977l.634.634h56.18z"/>
			<path opacity=".3" d="M84.791 5.014v56.19l.634.624V4.38z"/>
		</g>
		<g opacity=".9" fill="#212120">
			<path opacity=".85" d="M47.789 10.773H11.108l.633.633h35.414z" transform="translate(27.253 4)" mix-blend-mode="multiply"/>
			<path opacity=".6" d="M47.146 11.397V46.82l.643.625V10.773z" transform="translate(27.253 4)" mix-blend-mode="multiply"/>
			<path opacity=".85" d="M.724 57.828h57.448l-.624-.624H1.358z" transform="translate(27.253 4)" mix-blend-mode="multiply"/>
			<path opacity=".6" d="M1.358 57.204V1.014L.724.38v57.448z" transform="translate(27.253 4)" mix-blend-mode="multiply"/>
		</g>
	</g>
</svg>