<?xml version="1.0" ?>
<svg xmlns="http://www.w3.org/2000/svg" data-name="Layer 1" viewBox="0 0 154.22 102.48">
	<defs>
		<style>.cls-1{fill:#b8894d;}.cls-2{fill:#0c7a3e;}.cls-3{fill:#000;}</style>
	</defs>
	<path class="cls-1" transform="translate(-2.94 -1.85)" d="M88.32,11.86h-2.5c0-2.53-1.23-3.19-2.93-4.1a12,12,0,0,1-2.14-1.37A9.81,9.81,0,0,1,78.31,8c-1.65.87-2.74,1.44-2.74,3.86h-2.5c0-3.92,2.26-5.11,4.08-6.07a5.1,5.1,0,0,0,2.44-2l1-2,1.14,1.93a5.49,5.49,0,0,0,2.31,1.77C85.86,6.52,88.32,7.84,88.32,11.86Z"/>
	<path class="cls-1" transform="translate(-2.94 -1.85)" d="M80.76,65.24l-1.14-1.93a5.49,5.49,0,0,0-2.31-1.77c-1.78-1-4.24-2.29-4.24-6.3h2.5c0,2.52,1.23,3.18,2.93,4.09a12,12,0,0,1,2.14,1.37,10.24,10.24,0,0,1,2.43-1.61c1.66-.87,2.75-1.44,2.75-3.85h2.5c0,3.92-2.26,5.1-4.08,6.06a5.1,5.1,0,0,0-2.44,2Z"/>
	<path class="cls-1" transform="translate(-2.94 -1.85)" d="M59,41.17c-3.92,0-5.1-2.26-6.06-4.08a5.15,5.15,0,0,0-2-2.44l-2-1,1.93-1.14a5.52,5.52,0,0,0,1.77-2.3c1-1.79,2.29-4.25,6.3-4.25v2.5c-2.52,0-3.18,1.23-4.09,2.93a12,12,0,0,1-1.37,2.14,9.81,9.81,0,0,1,1.61,2.44c.87,1.65,1.44,2.74,3.85,2.74Z"/>
	<path class="cls-1" transform="translate(-2.94 -1.85)" d="m102.39 41.17v-2.5c2.52 0 3.18-1.23 4.1-2.93a11.43 11.43 0 0 1 1.36 -2.14 9.94 9.94 0 0 1 -1.61 -2.43c-0.87-1.65-1.44-2.75-3.85-2.75v-2.5c3.92 0 5.1 2.27 6.06 4.08a5.1 5.1 0 0 0 2 2.44l2 1-1.93 1.14a5.52 5.52 0 0 0 -1.77 2.3c-1.03 1.83-2.35 4.29-6.36 4.29z"/>
	<path class="cls-1" transform="translate(-2.94 -1.85)" d="M60,23.6c-2.77-2.78-2-5.21-1.41-7.17a5.11,5.11,0,0,0,.34-3.11l-.66-2.14,2.17.56a5.48,5.48,0,0,0,2.88-.38c1.95-.58,4.61-1.38,7.46,1.46L69,14.59c-1.79-1.79-3.12-1.39-5-.83a11.14,11.14,0,0,1-2.47.54A10.3,10.3,0,0,1,61,17.17c-.55,1.78-.92,2.95.79,4.66Z"/>
	<path class="cls-1" transform="translate(-2.94 -1.85)" d="M95.09,56.3a6.09,6.09,0,0,1-4.45-2l1.77-1.77c1.79,1.79,3.12,1.39,5,.83a11.74,11.74,0,0,1,2.47-.54,10.37,10.37,0,0,1,.59-2.87c.55-1.78.92-3-.79-4.66l1.77-1.77c2.77,2.78,2,5.22,1.41,7.18a5.07,5.07,0,0,0-.34,3.1l.66,2.14L101,55.35a5.58,5.58,0,0,0-2.88.38A10.53,10.53,0,0,1,95.09,56.3Z"/>
	<path class="cls-1" transform="translate(-2.94 -1.85)" d="M66.49,56.25a9.83,9.83,0,0,1-2.91-.57,5.12,5.12,0,0,0-3.11-.34L58.33,56l.56-2.17A5.58,5.58,0,0,0,58.51,51c-.58-2-1.38-4.61,1.46-7.46l1.77,1.77c-1.79,1.79-1.39,3.12-.83,5a11.7,11.7,0,0,1,.54,2.48,10,10,0,0,1,2.87.58c1.78.55,3,.92,4.66-.79l1.77,1.77A5.84,5.84,0,0,1,66.49,56.25Z"/>
	<path class="cls-1" transform="translate(-2.94 -1.85)" d="M101.42,23.6l-1.77-1.77c1.79-1.79,1.39-3.12.83-5a11.14,11.14,0,0,1-.54-2.47,10.3,10.3,0,0,1-2.87-.59c-1.78-.55-2.95-.92-4.66.79l-1.77-1.77c2.78-2.77,5.21-2,7.17-1.41a5.11,5.11,0,0,0,3.11.34l2.14-.66-.56,2.17a5.48,5.48,0,0,0,.38,2.88C103.46,18.09,104.26,20.75,101.42,23.6Z"/>
	<path class="cls-2" transform="translate(-2.94 -1.85)" d="M84.37,21.08a8.92,8.92,0,0,0-2.83-5.6,16.64,16.64,0,0,0-3.21,5.26L76,19.85a17.92,17.92,0,0,1,4.69-7l.77-.62.78.59a11.68,11.68,0,0,1,4.62,8Z"/>
	<path class="cls-2" transform="translate(-2.94 -1.85)" d="M81.79,56.63,81,56a11.68,11.68,0,0,1-4.62-8l2.49-.29a9,9,0,0,0,2.83,5.6,16.59,16.59,0,0,0,3.21-5.27l2.33.89a17.49,17.49,0,0,1-4.69,7Z"/>
	<path class="cls-2" transform="translate(-2.94 -1.85)" d="M66.07,50.59H64.86l0-1.2a16,16,0,0,1,2.11-9.22,15.35,15.35,0,0,1-7.09-5l-.52-.69.45-.73A11.88,11.88,0,0,1,67,28.86c-1.56-2.2-2.65-5.05-2.19-9.48l.11-1.12h1.13c6.47,0,11.74,5.66,11.74,12.62V38C77.81,44.93,72.54,50.59,66.07,50.59ZM62.43,34.35C63.56,35.56,66.19,38,69.31,38l3.09.06-2.26,2.1c-1.75,1.63-2.74,4.37-2.83,7.81,4.51-.67,8-4.91,8-10V30.88c0-5.15-3.53-9.42-8.08-10A10.35,10.35,0,0,0,70.38,29l2,2.2-3-.11A9.43,9.43,0,0,0,62.43,34.35Z"/>
	<path class="cls-2" transform="translate(-2.94 -1.85)" d="M97.47,50.59H96.34C89.87,50.59,84.6,44.93,84.6,38V30.88c0-7,5.27-12.62,11.74-12.62h1.21l0,1.2a16,16,0,0,1-2.12,9.24,14.09,14.09,0,0,1,7.12,5l.48.67-.43.71A11.88,11.88,0,0,1,95.39,40c1.56,2.2,2.65,5,2.19,9.48ZM87.1,36.4V38c0,5.15,3.53,9.42,8.08,10A10.33,10.33,0,0,0,92,39.83l-2-2.2,3,.1a9.38,9.38,0,0,0,7-3.25,10.67,10.67,0,0,0-7-3.66l-2.93-.16,2.15-2C94,27,95,24.29,95.1,20.85c-4.51.67-8,4.91-8,10Z"/>
	<rect class="cls-2" x="74.02" y="31.32" width="8.06" height="2.5"/>
	<path class="cls-3" transform="translate(-2.94 -1.85)" d="M6.43,83.23a.09.09,0,0,0-.1.06c-.58,1.62-1.43,4-1.65,4.88a3.58,3.58,0,0,0-.75,0,9.59,9.59,0,0,0-1,.06c.47-1,1.18-2.63,1.92-4.43l3.69-9.14c.22-.54.31-.77.43-.77s.18.15.44.77c.21.46,2,4.63,3.63,8.41a49.46,49.46,0,0,0,2.37,5.14l-.86,0a9.14,9.14,0,0,0-1.21.06c-.3-.86-1.32-3.39-2-4.9,0,0,0-.06-.07-.06Zm4.5-1.08s.06,0,0-.07l-2.2-5.42-2,5.42c0,.06,0,.07,0,.07Z"/>
	<path class="cls-3" transform="translate(-2.94 -1.85)" d="M17.26,77.05c.11-1.06.2-2,.29-2.92,0-.22.08-.28.13-.28s.13.15.25.32c.26.45,1.17,2.25,1.67,3.16l4.12,8.1,3.63-7.18c1-1.74,1.52-2.83,2.1-4,.19-.33.28-.41.33-.41s.12.08.17.52c.08.9.17,1.88.26,2.89.41,4.39.91,9.83,1.18,10.91a3.92,3.92,0,0,0-.8,0,8.17,8.17,0,0,0-1.14.06c0-1.18-.43-7.11-.63-10.6-1.59,3.28-3.58,7.12-5.14,10.41-.15.33-.21.33-.34,0-1.86-4-3.5-7.21-5-10.48-.2,3.31-.68,9.45-.68,10.61a4.47,4.47,0,0,0-.71,0,5.68,5.68,0,0,0-1,.06C16.18,87.2,16.81,81.5,17.26,77.05Z"/>
	<path class="cls-3" transform="translate(-2.94 -1.85)" d="M33.88,79.51a43,43,0,0,0-.19-5.38,8.81,8.81,0,0,0,1.1,0h4.13a10.11,10.11,0,0,0,1.49-.09,8.25,8.25,0,0,0-.15,1.52,3.8,3.8,0,0,0-1.49-.3c-.56,0-1.64-.09-3.24-.09a.08.08,0,0,0-.07.08v4.82a.09.09,0,0,0,.07.09c.25,0,2.44,0,3,0a8,8,0,0,0,1.6-.15A7.76,7.76,0,0,0,40,81.58a3.16,3.16,0,0,0-1.27-.26c-.63,0-2.81-.08-3.15-.08a.09.09,0,0,0-.07.08v1.34c0,3.66,0,4.19.13,4.28a1.09,1.09,0,0,0,.43.11,17.64,17.64,0,0,0,1.78.09,7.23,7.23,0,0,0,3.09-.39c-.13.41-.27,1.08-.35,1.45a4.81,4.81,0,0,1-.95,0c-2.59,0-4-.11-4.69-.11-.54,0-1,0-1.17,0,.05-.65.15-2.76.15-5.38Z"/>
	<path class="cls-3" transform="translate(-2.94 -1.85)" d="M42.4,79.51a33.84,33.84,0,0,0-.22-5.38,6.49,6.49,0,0,0,.85,0c.38,0,1.81-.08,2.46-.08a6.39,6.39,0,0,1,3.26.67,3.6,3.6,0,0,1,1.66,3.06,4.66,4.66,0,0,1-2.27,4c1.19,1.58,2.55,3.47,3.83,4.84a6.2,6.2,0,0,0,1.71,1.51,4.48,4.48,0,0,1-1.21.11,2.47,2.47,0,0,1-2-1,54.06,54.06,0,0,1-3.62-4.75.3.3,0,0,0-.24-.13c-.39,0-1.73,0-2.55,0-.05,0-.05,0-.05.12V83c0,2.35.07,4.36.16,5.18a4.62,4.62,0,0,0-.82,0,8.38,8.38,0,0,0-1.09.06c.11-.64.18-3,.18-5.4ZM44,81c0,.11,0,.15.05.17a16,16,0,0,0,2.29.13,1.77,1.77,0,0,0,1.08-.23,3.46,3.46,0,0,0,1.42-2.85c0-2-1.27-3.18-3.41-3.18a7.64,7.64,0,0,0-1.36.08c-.07,0-.07,0-.07.13Z"/>
	<path class="cls-3" transform="translate(-2.94 -1.85)" d="m53.64 79.49a44.34 44.34 0 0 0 -0.16 -5.34h0.78a9.36 9.36 0 0 0 1.11 -0.06c0 0.69-0.13 2.76-0.13 5.4v3.28c0 2.36 0.06 4.84 0.17 5.38h-0.82s-0.91 0-1.08 0.06c0.08-0.64 0.13-3 0.13-5.4z"/>
	<path class="cls-3" transform="translate(-2.94 -1.85)" d="M59.39,86.44a7.48,7.48,0,0,1-2.27-5.5,7,7,0,0,1,2-5,7.86,7.86,0,0,1,5.75-2.05,15.18,15.18,0,0,1,4.82.8,8,8,0,0,0-.26,1.75,6.73,6.73,0,0,0-4.67-1.47,5.71,5.71,0,0,0-4.23,1.49,5.79,5.79,0,0,0-1.62,4.34c0,3,1.82,6.46,6.63,6.46a7.1,7.1,0,0,0,4-1,9.65,9.65,0,0,0-.3,1.57,11.59,11.59,0,0,1-3.91.65A8.58,8.58,0,0,1,59.39,86.44Z"/>
	<path class="cls-3" transform="translate(-2.94 -1.85)" d="M73,83.23c-.06,0-.07,0-.09.06-.58,1.62-1.44,4-1.66,4.88a3.47,3.47,0,0,0-.74,0,9.4,9.4,0,0,0-1,.06c.46-1,1.17-2.63,1.92-4.43l3.68-9.14c.23-.54.32-.77.43-.77s.19.15.45.77c.2.46,2,4.63,3.63,8.41A52.15,52.15,0,0,0,82,88.17l-.85,0a9.14,9.14,0,0,0-1.21.06c-.3-.86-1.33-3.39-2-4.9,0,0,0-.06-.07-.06Zm4.51-1.08s0,0,0-.07l-2.19-5.42-2,5.42c0,.06,0,.07,0,.07Z"/>
	<path class="cls-3" transform="translate(-2.94 -1.85)" d="M83.81,88.13c-.18,0-.78,0-.91.06.15-1.55.21-9.91.21-13.24,0-1,0-1.1.14-1.1s.23.15.6.52c1.77,1.85,8.28,9.42,9.75,10.78,0-3-.07-9.05-.22-11a4.06,4.06,0,0,0,.73,0,8.6,8.6,0,0,0,.93-.06c-.09,1.12-.21,5.53-.21,9.31,0,1.58,0,2.44,0,3.28,0,1.6,0,1.75-.15,1.75s-.46-.34-1.49-1.4c-1.52-1.54-6.79-7.86-8.86-10,0,4,.1,9.7.25,11.17A5.29,5.29,0,0,0,83.81,88.13Z"/>
	<path class="cls-3" transform="translate(-2.94 -1.85)" d="M103.34,79.51a44.85,44.85,0,0,0-.19-5.38,5.23,5.23,0,0,0,.82,0,7.61,7.61,0,0,0,1.08-.06c-.06.67-.13,2.53-.13,5.23v.38s0,.07.07.07h8c.06,0,.06,0,.06-.07v-.38c0-2.66-.08-4.54-.15-5.21a5,5,0,0,0,.82,0,8.66,8.66,0,0,0,1.08-.06c-.09.65-.15,2.76-.15,5.4v3.28c0,2.36.07,4.61.15,5.38a5.3,5.3,0,0,0-.82,0c-.34,0-1,0-1.08.06.09-.73.15-3,.15-5.4V81.06c0-.06,0-.08-.06-.08h-8s-.06,0-.06.08v1.73c0,2.36.09,4.61.17,5.38-.19,0-.49,0-.77,0a8.84,8.84,0,0,0-1.13.06c.09-.75.15-3,.15-5.4Z"/>
	<path class="cls-3" transform="translate(-2.94 -1.85)" d="M119.14,83.23a.09.09,0,0,0-.1.06c-.57,1.62-1.43,4-1.65,4.88a3.53,3.53,0,0,0-.75,0,9.36,9.36,0,0,0-1,.06c.46-1,1.17-2.63,1.92-4.43l3.68-9.14c.22-.54.32-.77.43-.77s.18.15.45.77c.2.46,2,4.63,3.63,8.41a49.88,49.88,0,0,0,2.36,5.14l-.86,0a9.35,9.35,0,0,0-1.21.06c-.29-.86-1.32-3.39-2-4.9,0,0,0-.06-.08-.06Zm4.5-1.08s.06,0,0-.07l-2.2-5.42-2,5.42c0,.06,0,.07,0,.07Z"/>
	<path class="cls-3" transform="translate(-2.94 -1.85)" d="M129.15,79.51a48.82,48.82,0,0,0-.18-5.38,5,5,0,0,0,.81,0,7.75,7.75,0,0,0,1.12-.06c-.07.69-.15,2.74-.15,5.35v3.2c0,3.76,0,4.22.13,4.3a1,1,0,0,0,.45.13c.37,0,1,0,1.82,0a8.12,8.12,0,0,0,3.28-.37A11.24,11.24,0,0,0,136,88.2a6.64,6.64,0,0,1-1.11,0c-2.72,0-4-.11-4.94-.11a5.81,5.81,0,0,0-.93,0c.06-.65.13-2.76.13-5.38Z"/>
	<path class="cls-3" transform="translate(-2.94 -1.85)" d="M139.87,83.23a.09.09,0,0,0-.09.06c-.58,1.62-1.43,4-1.66,4.88a3.42,3.42,0,0,0-.74,0,9.4,9.4,0,0,0-1,.06c.47-1,1.17-2.63,1.92-4.43L142,74.62c.23-.54.32-.77.43-.77s.19.15.45.77c.2.46,2,4.63,3.63,8.41a52.15,52.15,0,0,0,2.36,5.14l-.85,0a9.14,9.14,0,0,0-1.21.06c-.3-.86-1.32-3.39-2-4.9,0,0,0-.06-.07-.06Zm4.51-1.08s.05,0,0-.07l-2.19-5.42-2,5.42c0,.06,0,.07,0,.07Z"/>
	<path class="cls-3" transform="translate(-2.94 -1.85)" d="M149.88,79.51a48.82,48.82,0,0,0-.18-5.38,5.11,5.11,0,0,0,.82,0,7.5,7.5,0,0,0,1.11-.06c-.07.69-.14,2.74-.14,5.35v3.2c0,3.76,0,4.22.13,4.3a1,1,0,0,0,.44.13c.38,0,1,0,1.83,0a8.05,8.05,0,0,0,3.27-.37,11.1,11.1,0,0,0-.42,1.43,6.83,6.83,0,0,1-1.12,0c-2.72,0-4-.11-4.93-.11a6,6,0,0,0-.94,0c.06-.65.13-2.76.13-5.38Z"/>
	<path class="cls-3" transform="translate(-2.94 -1.85)" d="m22.77 100.43a14.46 14.46 0 0 0 -0.11 -2.33h0.48a6.2 6.2 0 0 0 0.65 0c0 0.3-0.07 1.21-0.07 2.35v1.43a17.36 17.36 0 0 0 0.09 2.35h-0.48-0.64c0-0.29 0.08-1.31 0.08-2.36z"/>
	<path class="cls-3" transform="translate(-2.94 -1.85)" d="M33.93,104.19l-.53,0c.07-.69.11-4.33.11-5.77,0-.44,0-.48.09-.48s.13.07.33.23c1,.81,4.35,4,5.26,4.57,0-1.22,0-3.79-.12-4.68l.41,0a5.4,5.4,0,0,0,.56,0c0,.49-.11,2.57-.12,4.12,0,.52,0,1.31,0,1.65s0,.48-.08.48-.21-.09-.85-.61c-.87-.68-3.77-3.4-4.73-4.25,0,1.72,0,4.1.12,4.74A3.54,3.54,0,0,0,33.93,104.19Z"/>
	<path class="cls-3" transform="translate(-2.94 -1.85)" d="M48.81,103.13a2.45,2.45,0,0,0,1.71.66c.93,0,1.4-.47,1.4-1s-.21-.8-1.07-1.26l-.51-.27c-1.06-.57-1.34-1.1-1.34-1.68,0-.85.82-1.57,2.23-1.57a6.16,6.16,0,0,1,1,.08l.53.06a3.59,3.59,0,0,0-.1.84,2.1,2.1,0,0,0-1.48-.46c-.74,0-1.25.35-1.25.88s.13.72,1,1.2l.5.26c1.21.64,1.46,1.13,1.46,1.76A1.72,1.72,0,0,1,52,104a3.45,3.45,0,0,1-1.58.33,4,4,0,0,1-1.68-.33A4,4,0,0,0,48.81,103.13Z"/>
	<path class="cls-3" transform="translate(-2.94 -1.85)" d="m60.81 98a10 10 0 0 0 1.51 0.07h3.31c0.6 0 1.35 0 1.53-0.06a3.76 3.76 0 0 0 -0.11 0.77 2.7 2.7 0 0 0 -1.11 -0.16h-1.59v3.2c0 1 0 2.08 0.08 2.39a3 3 0 0 0 -0.45 0 5.58 5.58 0 0 0 -0.67 0 23.14 23.14 0 0 0 0.08 -2.36v-3.23h-1.39a6.51 6.51 0 0 0 -1.36 0.13 4.62 4.62 0 0 0 0.17 -0.75z"/>
	<path class="cls-3" transform="translate(-2.94 -1.85)" d="m75.51 100.43a15 15 0 0 0 -0.1 -2.33h0.47a6.2 6.2 0 0 0 0.65 0c0 0.3-0.07 1.21-0.07 2.35v1.43a16.81 16.81 0 0 0 0.1 2.35h-0.49-0.64a23.14 23.14 0 0 0 0.08 -2.36z"/>
	<path class="cls-3" transform="translate(-2.94 -1.85)" d="M85,98a10,10,0,0,0,1.52.07h3.31c.59,0,1.34,0,1.52-.06a4.61,4.61,0,0,0-.11.77,2.68,2.68,0,0,0-1.1-.16c-.43,0-.87,0-1.6,0v3.2c0,1,.05,2.08.08,2.39a3,3,0,0,0-.45,0,5.39,5.39,0,0,0-.66,0c0-.29.08-1.31.08-2.36V98.62c-.48,0-.73,0-1.39,0a6.63,6.63,0,0,0-1.37.13A3.73,3.73,0,0,0,85,98Z"/>
	<path class="cls-3" transform="translate(-2.94 -1.85)" d="M100,98.11a5.62,5.62,0,0,0,.69,0,21.27,21.27,0,0,0-.08,2.35v1.12a1.94,1.94,0,0,0,.71,1.8,2.69,2.69,0,0,0,1.53.4,2.4,2.4,0,0,0,1.45-.42,2.36,2.36,0,0,0,.61-2v-.95a16.41,16.41,0,0,0-.12-2.34,3.24,3.24,0,0,0,.44,0,4.37,4.37,0,0,0,.53,0,18.69,18.69,0,0,0-.11,2.35v.94a2.68,2.68,0,0,1-1,2.45,3.55,3.55,0,0,1-2.06.5,3.73,3.73,0,0,1-2.12-.54,2.26,2.26,0,0,1-.85-2.07v-1.28a15.44,15.44,0,0,0-.12-2.34A3.1,3.1,0,0,0,100,98.11Z"/>
	<path class="cls-3" transform="translate(-2.94 -1.85)" d="m114.08 98a10 10 0 0 0 1.51 0.07h3.31c0.6 0 1.35 0 1.53-0.06a3.76 3.76 0 0 0 -0.11 0.77 2.7 2.7 0 0 0 -1.11 -0.16h-1.59v3.2c0 1 0 2.08 0.08 2.39a3 3 0 0 0 -0.45 0 5.58 5.58 0 0 0 -0.67 0 23.14 23.14 0 0 0 0.08 -2.36v-3.23h-1.39a6.51 6.51 0 0 0 -1.36 0.13 6.07 6.07 0 0 0 0.17 -0.75z"/>
	<path class="cls-3" transform="translate(-2.94 -1.85)" d="m128.79 100.43a13.31 13.31 0 0 0 -0.11 -2.34 6 6 0 0 0 0.65 0h2.28a7 7 0 0 0 0.81 0 5 5 0 0 0 -0.07 0.72 2.48 2.48 0 0 0 -0.84 -0.14h-1.74v2h1.61a5.13 5.13 0 0 0 0.88 -0.07 3.1 3.1 0 0 0 -0.09 0.73 2.12 2.12 0 0 0 -0.7 -0.13h-1.7v0.54a7 7 0 0 0 0.07 1.84 0.87 0.87 0 0 0 0.22 0h1a5.63 5.63 0 0 0 1.69 -0.16 4.68 4.68 0 0 0 -0.21 0.67 3.06 3.06 0 0 1 -0.53 0h-2.58-0.69c0-0.29 0.09-1.2 0.09-2.35z"/>
</svg>