<?xml version="1.0" ?>
<svg xmlns="http://www.w3.org/2000/svg" version="1.2" viewBox="0 0 1476 1529">
	<style>
		.s0 { fill: #51c7ef } 
		.s1 { fill: #15a4de } 
		.s2 { fill: #98a0d2 } 
		.s3 { fill: #363b9f } 
		.s4 { fill: #7fc74e } 
		.s5 { fill: #44b94a } 
		.s6 { fill: #009eab } 
		.s7 { fill: #0070be } 
		.s8 { fill: #003e66 } 
	</style>
	<g id="Clip-Path: Page 1">
		<g id="Page 1">
			<path id="Path 101" class="s0" d="m0.4 980.6h246.8l176.2-271.9-136.1-181.1z"/>
			<path id="Path 102" class="s1" d="m539 527.6h-251.7l332.4 453 125.7-171.3z"/>
			<path id="Path 103" class="s2" d="m564.4 94.9l-246.8 382.3h251.7l176.1-281.7-105.5-171q-45.6 25.1-75.5 70.4z"/>
			<path id="Path 104" class="s3" d="m936.9 104.9c-30.3-45.2-70.7-80.4-120.8-95.7-60.6-15-130.9-10.1-176.2 15.3l286.9 452.7h251.7c0 0-216.6-337.1-241.6-372.3z"/>
			<path id="Path 105" class="s4" d="m287.3 1529h251.7l221.7-317.2c-60.5-95.4-120.8-185.9-120.8-185.9z"/>
			<path id="Path 106" class="s5" d="m886.4 1025.9h-246.5c0 0 256.6 402.5 261.8 407.4 19.9 35.4 50.1 60.5 70.3 70.6l105.8-181.4z"/>
			<path id="Path 107" class="s6" d="m1475.4 1025.9c-4.9 29.9-10.1 60.2-25.1 80.4-70.6 120.8-186.2 322.1-196.3 342.2-10.1 20.2-35.2 40.1-60.6 55.4-29.9 15-70.3 25.1-110.7 25.1 0 0-75.5-4.9-110.7-25.1l276.8-478z"/>
			<path id="Path 108" class="s7" d="m619.7 980.6h246.5l206.4-276.8-115.6-176.2z"/>
			<path id="Path 109" fill-rule="evenodd" class="s8" d="m1248.8 980.6l-291.8-453h251.7l231.5 357.3c20.2 35.1 30.3 70.3 30.3 95.7z"/>
		</g>
	</g>
</svg>