<?xml version="1.0" ?>
<!-- Created with Inkscape (http://www.inkscape.org/) -->
<svg xmlns="http://www.w3.org/2000/svg" xmlns:sodipodi="http://sodipodi.sourceforge.net/DTD/sodipodi-0.dtd" xmlns:inkscape="http://www.inkscape.org/namespaces/inkscape" viewBox="0 0 40.2644 27.474756" version="1.1" id="svg62545" inkscape:version="0.92.0 r15299" sodipodi:docname="amorim.svg">
	<defs id="defs62539">
		<clipPath id="clipPath18339" clipPathUnits="userSpaceOnUse">
			<path inkscape:connector-curvature="0" id="path18337" d="M 0,0 H 1190.551 V 1683.78 H 0 Z"/>
		</clipPath>
	</defs>
	<sodipodi:namedview id="base" pagecolor="#ffffff" bordercolor="#666666" borderopacity="1.0" inkscape:pageopacity="0.0" inkscape:pageshadow="2" inkscape:zoom="5.1328177" inkscape:cx="76.090202" inkscape:cy="51.920799" inkscape:document-units="mm" inkscape:current-layer="layer1" showgrid="false" fit-margin-top="0" fit-margin-left="0" fit-margin-right="0" fit-margin-bottom="0" units="px" inkscape:window-width="1280" inkscape:window-height="744" inkscape:window-x="-4" inkscape:window-y="-4" inkscape:window-maximized="1"/>
	<g inkscape:label="Layer 1" inkscape:groupmode="layer" id="layer1" transform="translate(-143.28581,-209.047)">
		<g id="g18333" transform="matrix(0.35277777,0,0,-0.35277777,-152.54308,761.32321)" style="fill:#005b4c;fill-opacity:1">
			<g id="g18335" clip-path="url(#clipPath18339)" style="fill:#005b4c;fill-opacity:1">
				<g id="g18341" transform="translate(848.2941,1503.8926)" style="fill:#005b4c;fill-opacity:1">
					<path d="m 0,0 -2.596,-7.072 h 5.724 z m -9.349,-14.816 h 0.328 c 1.541,0 2.155,0.639 3.021,2.786 L 0.399,3.512 h 0.639 l 7.176,-15.826 c 0.675,-1.5 1.534,-2.56 2.82,-2.56 h 0.277 v -0.724 c -0.978,0.06 -2.149,0.074 -3.601,0.074 -1.481,0 -2.825,-0.014 -3.857,-0.074 v 0.782 h 0.703 c 0.892,0 1.422,0.283 1.422,0.823 0,0.361 -0.277,1.056 -0.394,1.289 l -2.033,4.649 h -6.508 l -1.479,-4.079 c -0.197,-0.517 -0.474,-1.293 -0.474,-1.859 0,-0.467 0.277,-0.823 1.142,-0.823 h 0.612 v -0.782 c -0.977,0.06 -2.116,0.074 -3.432,0.074 -1.061,0 -2.09,-0.014 -2.761,-0.074 z" style="fill:#005b4c;fill-opacity:1;fill-rule:nonzero;stroke:none" id="path18343" inkscape:connector-curvature="0"/>
				</g>
				<g id="g18345" transform="translate(860.9964,1489.0088)" style="fill:#005b4c;fill-opacity:1">
					<path d="m 0,0 h 0.434 c 1.183,0 1.587,0.579 1.661,3.434 0.071,3.248 0.241,6.516 0.241,9.887 0,1.562 -0.482,1.911 -1.758,1.911 H 0.146 v 0.702 c 0.742,-0.024 1.322,-0.071 2.073,-0.071 0.72,0 1.73,0.047 2.313,0.078 l 6.429,-13.178 5.745,13.171 c 0.771,-0.024 1.816,-0.071 2.512,-0.071 0.724,0 1.469,0.047 2.215,0.071 v -0.702 h -0.31 c -1.109,0 -1.855,-0.255 -1.855,-1.911 0,-1.196 0.096,-7.059 0.145,-10.59 C 19.436,0.394 19.701,0 21.096,0 h 0.484 v -0.705 c -0.794,0.029 -1.805,0.065 -3.083,0.065 -1.25,0 -2.608,-0.036 -3.426,-0.065 V 0 h 0.361 c 1.346,0 1.613,0.413 1.613,2.475 V 14.248 H 16.993 L 10.545,-0.918 H 10.018 L 3.397,12.897 H 3.348 V 3.316 C 3.348,0.767 3.567,0 4.891,0 H 5.225 V -0.705 C 4.625,-0.676 3.76,-0.64 2.672,-0.64 1.619,-0.64 0.72,-0.676 0,-0.705 Z" style="fill:#005b4c;fill-opacity:1;fill-rule:nonzero;stroke:none" id="path18347" inkscape:connector-curvature="0"/>
				</g>
				<g id="g18349" transform="translate(930.7554,1489.0088)" style="fill:#005b4c;fill-opacity:1">
					<path d="m 0,0 h 0.435 c 1.175,0 1.583,0.579 1.657,3.434 0.077,3.248 0.243,6.516 0.243,9.887 0,1.562 -0.482,1.911 -1.761,1.911 H 0.146 v 0.702 c 0.742,-0.024 1.32,-0.071 2.066,-0.071 0.726,0 1.737,0.047 2.317,0.078 L 10.96,2.763 16.705,15.934 c 0.771,-0.024 1.812,-0.071 2.51,-0.071 0.723,0 1.468,0.047 2.215,0.071 v -0.702 h -0.31 c -1.112,0 -1.856,-0.255 -1.856,-1.911 0,-1.196 0.097,-7.059 0.147,-10.59 C 19.432,0.394 19.698,0 21.096,0 h 0.479 v -0.705 c -0.794,0.029 -1.801,0.065 -3.08,0.065 -1.251,0 -2.607,-0.036 -3.428,-0.065 V 0 h 0.361 c 1.349,0 1.61,0.413 1.61,2.475 V 14.248 H 16.996 L 10.541,-0.918 H 10.018 L 3.396,12.897 H 3.347 V 3.316 C 3.347,0.767 3.566,0 4.89,0 H 5.227 V -0.705 C 4.623,-0.676 3.757,-0.64 2.673,-0.64 1.616,-0.64 0.723,-0.676 0,-0.705 Z" style="fill:#005b4c;fill-opacity:1;fill-rule:nonzero;stroke:none" id="path18351" inkscape:connector-curvature="0"/>
				</g>
				<g id="g18353" transform="translate(893.2195,1504.1072)" style="fill:#005b4c;fill-opacity:1">
					<path d="m 0,0 c -3.305,0 -6.419,-1.969 -6.419,-7.282 0,-3.713 2.5,-7.792 6.563,-7.792 4.361,0 6.37,3.113 6.37,7.334 C 6.514,-4.056 4.129,0 0,0 m 0.075,1.14 c 4.792,0 8.983,-3.761 8.983,-8.623 0,-4.111 -3.28,-8.623 -9.055,-8.623 -5.198,0 -8.954,3.81 -8.954,8.435 0,5.213 4.285,8.811 9.026,8.811" style="fill:#005b4c;fill-opacity:1;fill-rule:nonzero;stroke:none" id="path18355" inkscape:connector-curvature="0"/>
				</g>
				<g id="g18357" transform="translate(908.4153,1496.9514)" style="fill:#005b4c;fill-opacity:1">
					<path d="m 0,0 c 0.409,-0.14 1.012,-0.166 1.635,-0.166 2.171,0 3.947,0.959 3.947,3.388 0,1.03 -0.719,3.881 -4.065,3.881 C 0.936,7.103 0.48,7.057 0,7.007 Z m -4.437,-7.943 h 0.43 c 1.108,0 1.592,0.395 1.592,1.913 V 5.378 c 0,1.517 -0.484,1.911 -1.592,1.911 h -0.43 v 0.702 c 0.841,-0.024 1.995,-0.071 3.081,-0.071 1.612,0 3.061,0.071 4.123,0.071 4.26,0 5.329,-3.25 5.329,-4.323 0,-3.063 -2.514,-3.995 -3.715,-4.371 l 3.525,-5.185 c 1.32,-2.105 1.705,-2.245 3.658,-2.355 v -0.501 c -0.459,0 -1.19,-0.021 -1.648,-0.021 -2.119,0 -3.106,0.263 -4.38,2.293 L 2.72,-2.01 C 2.164,-1.142 1.857,-1.101 0,-1.05 v -4.417 c 0,-2.22 0.409,-2.476 1.373,-2.476 h 0.695 v -0.705 c -1.056,0.03 -2.366,0.065 -3.424,0.065 -1.086,0 -2.24,-0.035 -3.081,-0.065 z" style="fill:#005b4c;fill-opacity:1;fill-rule:nonzero;stroke:none" id="path18359" inkscape:connector-curvature="0"/>
				</g>
				<g id="g18361" transform="translate(921.4264,1489.0088)" style="fill:#005b4c;fill-opacity:1">
					<path d="m 0,0 h 0.427 c 1.109,0 1.594,0.394 1.594,1.913 v 11.408 c 0,1.516 -0.485,1.911 -1.594,1.911 H 0 v 0.702 c 0.841,-0.024 2.294,-0.071 3.374,-0.071 1.058,0 2.07,0.047 3.079,0.071 V 15.232 H 6.02 c -1.105,0 -1.588,-0.395 -1.588,-1.911 V 1.913 C 4.432,0.394 4.915,0 6.02,0 H 6.453 V -0.705 C 5.444,-0.676 4.134,-0.64 3.075,-0.64 1.994,-0.64 0.841,-0.676 0,-0.705 Z" style="fill:#005b4c;fill-opacity:1;fill-rule:nonzero;stroke:none" id="path18363" inkscape:connector-curvature="0"/>
				</g>
				<g id="g18365" transform="translate(869.0046,1536.5674)" style="fill:#005b4c;fill-opacity:1">
					<path d="M 0,0 C -1.778,1.977 -2.874,4.37 -3.45,6.95 -5.158,6.584 -7.801,5.949 -7.801,3.683 -7.801,1.205 -1.906,-0.01 0,0 m 18.173,-5.574 c -0.44,2.207 -1.147,4.374 -2.626,6.287 -2.1,-0.777 -6.537,-2.663 -9.902,-3.172 3.225,-2.18 7.034,-3.203 10.947,-3.203 0.525,0 1.056,0.026 1.581,0.088 m -5.048,8.81 C 11.356,5.341 3.318,7.829 -0.743,7.223 -0.308,5.082 0.903,1.684 2.539,0.186 6.19,0.696 9.731,1.819 13.125,3.236 M 28.502,1.378 c -2.705,0.029 -5.388,0.727 -7.836,1.858 -1.197,-0.438 -2.297,-1.085 -3.42,-1.672 1.526,-2.073 2.845,-4.336 3.499,-6.844 1.579,0.265 4.614,1.2 5.976,2.013 0.522,1.574 1.189,3.098 1.781,4.645 m -2.124,22.137 c -2.634,2.232 -8.001,3.488 -11.369,3.488 -2.647,0 -6.402,-0.263 -9.174,-2 C 0.125,21.41 -1.516,14.195 -0.881,8.575 4.787,9.203 10.584,7.463 15.015,3.871 c 1.108,0.452 2.241,0.84 3.316,1.362 -1.92,1.563 -3.124,4.563 -3.124,7.006 0,3.518 2.365,6.482 5.088,8.459 1.849,1.337 3.898,2.194 6.083,2.817 M 34.915,1.782 C 33.795,1.53 32.795,1.45 31.87,1.42 31.266,0.442 30.579,-0.605 30.144,-1.67 c 1.619,0.92 3.431,2.158 4.771,3.452 M 30.997,8.283 H 30.891 C 28.527,7.128 26.45,6.054 23.773,4.603 c 1.168,-0.614 3.685,-1.235 5.518,-1.447 0.622,1.692 1.226,3.389 1.706,5.127 m 0.741,5.172 c 0,3.792 -0.962,6.85 -4.089,9.054 -1.581,0.043 -2.761,-0.2 -4.24,-0.719 -3.663,-1.284 -5.738,-5.085 -5.738,-8.836 0,-2.586 0.847,-5.09 2.995,-6.669 0.561,0.188 1.646,0.665 2.075,0.85 2.926,1.274 5.878,2.451 8.845,3.639 0.093,0.891 0.152,1.783 0.152,2.681 m 9.179,-1.762 C 38.901,11.501 36.86,10.838 35.01,10.031 34.774,8.342 33.876,5.28 32.733,2.953 c 1.139,-0.103 2.461,0 3.617,0.283 2.252,2.12 4.168,5.399 4.567,8.457 m 0.112,1.466 c -0.39,5.663 -4.749,8.875 -10.262,9.503 2.525,-2.319 4.422,-7.308 4.377,-10.749 2.013,0.529 4.13,1.064 5.885,1.246 m 6.882,-2.963 c 0,1.885 -2.314,2.095 -3.722,1.908 -0.032,-2.393 -0.487,-4.592 -2.264,-7.303 2.383,0.657 5.986,2.514 5.986,5.395 M 63.74,4.184 c 0,-7.21 -5.998,-14.46 -11.565,-18.456 -10.719,-7.695 -33.559,-10.474 -45.438,-3.59 -3.306,1.909 -6.125,4.039 -8.284,7.243 -0.81,1.205 -1.642,3.235 -1.642,4.707 0,0.483 -0.027,0.913 0.032,1.451 0.011,0.102 0.146,0.158 0.177,0.017 0.788,-3.406 1.982,-4.97 3.492,-6.726 3.274,-3.825 9.476,-7.24 14.549,-7.847 1.921,3.098 3.344,6.749 3.344,10.434 0,0.364 -0.043,1.684 -0.201,2.193 -0.626,-0.041 -1.25,-0.059 -1.874,-0.059 -4.297,0 -10.276,1.132 -13.698,3.876 -3.719,0.031 -11.182,1.394 -11.182,6.415 0,2.205 2.836,3.832 4.939,4.223 -0.847,5.39 2.223,12.935 8.218,16.938 3.053,2.033 7.426,3.562 11.324,3.562 4.722,0 10.366,-1.283 13.81,-4.763 3.66,0.22 7.056,-1.053 9.954,-3.26 2.318,-1.766 3.618,-4.284 4.23,-7.091 2.16,0.087 5.214,-0.354 5.214,-2.926 0,-3.881 -6.148,-6.451 -8.696,-7.432 -2.384,-3.011 -7.673,-5.61 -11.57,-7.18 -1.417,-3.258 -2.381,-6.784 -2.381,-10.358 0,-1.84 0.266,-3.455 1.189,-3.832 0.139,-0.063 -0.252,-0.15 -0.404,-0.15 -2.407,0 -2.676,3.241 -2.676,4.995 0,2.877 0.664,5.731 1.592,8.443 -1.786,-0.6 -3.653,-0.85 -5.229,-1.142 0.432,-1.994 0.645,-5.036 0.281,-7.111 -0.381,-2.151 -1.522,-4.322 -2.948,-6.057 9.726,-0.676 21.473,2.093 29.76,7.069 6.306,3.791 13.303,10.303 13.303,18.232 0,11.586 -12.616,17.143 -22.669,17.143 -0.251,0 -0.515,-0.017 -0.597,0.112 -0.073,0.113 0.227,0.202 0.409,0.224 0.524,0.071 1.058,0.113 1.581,0.113 11.533,0 23.656,-6.717 23.656,-19.41" style="fill:#005b4c;fill-opacity:1;fill-rule:nonzero;stroke:none" id="path18367" inkscape:connector-curvature="0"/>
				</g>
			</g>
		</g>
	</g>
</svg>