<?xml version="1.0" ?>
<!-- by TradingView -->
<svg xmlns="http://www.w3.org/2000/svg" viewBox="0 0 56 56">
	<path fill="#F0F3FA" d="M0 0h56v56H0z"/>
	<path d="M44.97 28a17.02 17.02 0 0 1-16.98 17A16.97 16.97 0 0 1 11 28h33.97Zm-29.32 1.04L15 33.31l1.65 1.46v-2.04C18.45 36.25 22.4 40 28.29 40c6.95 0 10.7-5.04 11.71-7.54l-1.46-.5c-.9 2.22-4.21 6.61-10.25 6.61-6.02 0-9.89-4.7-10.96-8.25h2l1.24-1.29h-4.92Zm8.35-1c0 .27.1.53.3.77.2.24.5.46.87.65.37.18.81.33 1.3.43a7.63 7.63 0 0 0 3.06 0c.49-.1.93-.25 1.3-.43.37-.19.66-.4.87-.65.2-.24.3-.5.3-.76h-8ZM39.35 22.3v-2.04L41 21.72 40.35 26h-4.92l1.24-1.3h2c-1.07-3.55-4.94-8.26-10.96-8.26-6.04 0-9.36 4.4-10.25 6.62l-1.46-.5A12.76 12.76 0 0 1 27.71 15c5.88 0 9.84 3.78 11.64 7.3Z" fill="#004D96"/>
	<path d="M32 28c0-.26-.1-.52-.3-.77-.2-.24-.5-.46-.87-.64a5.35 5.35 0 0 0-1.3-.44 7.6 7.6 0 0 0-3.06 0c-.49.1-.93.25-1.3.44-.37.18-.66.4-.87.64-.2.25-.3.5-.3.77h8Z" fill="#7EC527"/>
	<path fill="#004D96" d="M22 21h12v2H22z"/>
	<path d="M44.51 28c-.06-2-.48-4.47-1.25-6.32a16.52 16.52 0 0 0-30.52 0A19.22 19.22 0 0 0 11.49 28h12.55l-.06.48H11V28c.07-2.07.5-4.6 1.3-6.5a17 17 0 0 1 31.4 0 19.69 19.69 0 0 1 1.3 6.98H31.99c0-.16-.03-.32-.06-.48H44.5Z" fill="#004D96"/>
</svg>