<?xml version="1.0" ?>
<svg xmlns="http://www.w3.org/2000/svg" version="1.2" viewBox="0 0 1544 754">
	<style>
		.s0 { fill: #161616 } 
	</style>
	<path id="lion" fill-rule="evenodd" class="s0" d="m805.4 713.2c-5.9 4.2-15.6 7.1-15.4 7.5l-0.1 2.2c-0.9 0.2-2.1 0.4-3.9 0.6-1.5 0.1-3.2-0.4-3.5-3.4-0.3-1.4 0.6-2.7 1.5-3.6 3.2-3 6.7-6.6 9.1-10.4 1.4-2.2 6.3-10.7 5.7-18.6-0.1-2.3-2.2-5.7-1.1-9 0.7-2 11.5 4.4 15.3 13.6 4.4 10.5-7.6 21.1-7.6 21.1zm-46.3-496.7c2.8 0.2-5.6 8-7.4 11.8-5 7-11.1 8.5-19.1 14.8-1.8 1.4-3.9 3.7-2.7 8.4 0.3 1.3-2.6 4.9-3.7 5.5-2.7 1.4-14.6-4.4-17-7.5-6.6-8.7-10.6-11-15.6-15.9-2.7-3-4.5-6.6-5.2-10.8l1-0.8 6 2.9 18.3 3.4c6.4 0.9 20.6-0.7 25.8-3.5zm-12.4-149.4c-8.4-3.9-8-12.9-8.3-20.8-0.4-9.6 1.2-19.7 7-27.4 9.1-12.1 17.7-19.5 33-18.3 8.5 0.8 15.4-0.1 22.8 4.5 8.2 5.1 14.1 12.7 20 20 11.9 14.9 28.6 23.7 44.9 32.6 26.4 14.2 45.8 35.8 63.2 59.7 19.1 26.2 32.1 61.9 22.4 94.1l-1.9 5.8c-4.1 13.4-17.7 28.8-28.8 37.1l-4.9 3.4c-29.4 20.8-23.6 48.2-24.2 79.3-5.1 28.6-24.7 52.8-48 68.9-16.4 11.4-57.6 34.7-75.6 18.6-1.5-1.4 13.5-6.1 21.6-15 8.1-8.8 14.6-21.4 18-32.6 4-12.6 4.8-25.9 4.4-39-0.3-13-1.9-25.9-4.7-38.5-1.9-9.1-3.7-18.9-1.2-28.1 2-7.4 5.6-14.7 8.4-21.8l1.1-2.6 15.1-25.9 5.8-11.3c6.8-13.4 5.4-28.1 1.8-42.1l-3.1-10.9-4.3-10.6-5.3-9.9c-2.6-5 1.1-7.6 5.1-14.4 1.2-1.4 2.7 0 4.5-1.6 6.9-5.9 15.3-26.1-6.9-43.9-1.9-1.5-9.3-3.1-13.3 1.9-0.9 1-10.3 23.7-23.3 11.7-13.7-12.1-29.3-15.3-45.3-22.9zm31.4 631.5c-0.4 3.9-1.5 7-3.3 10.4-3.3 6.6-12.5 17.6-24.3 17.6l-2.8-0.6-2.2-0.4c-1.7-0.4-3.3-0.9-4.7-1.5-10.5-4.3-15.2-13.5-21.5-22.2-8.9-12.3-11.3-26.6-4.9-40.7 3.2-6.8 4.5-15.1 5.5-22.6 0.1-0.3-0.8 0.1-2.8-0.1l-19.2-1.1c-33.9-0.6-60.5 0.7-92.4 4-2.3 0.3-4.9 0.2-7.2 0.7 0.2 6.3-2.9 10.3-9.2 11.3-6.3 1-12.6 1.9-18.9 1.9-8.2 0-13.6-1.3-24.8-4.2q-3.4-0.9-0.4-2c5.2-1.7 6.1-2.9 9.4-7.7 2.9-4.1 2.5-8.8 3.3-13.6 0.7-4 2.2-7.1 7-6.6 1.5 0.2 3 2.7 4.1 4.3 0.8 1.5 1.4 3.5 2.6 4.7 2.5 2.7 3.4-3.5 3.5-4.6 0.5-4.8-1.2-10-2.7-14.4l-1.8-3.8c-2.1-3-4.3-5.9-6.2-9-2.8-4.1-5.9-7.9-8.5-12-5-8.1-8.7-16.2-8.9-26.1 0-5.4 2.6-8.6 4.8-13.2 1.1-2.5 2.4-4.9 3.7-7.3l8.8-17.1 17.7-35.4 1.4-4c2.6-7.2 0.1-15.6 1.1-23 0.9-6.7 2.8-13.2 5.6-19.4 5.4-12.5 14.2-23.4 27.1-28.4 7.6-3 16.1-1.3 23.7-5.2 6-3.1 9.2-8.3 10.8-14.7 4-15.2 3.7-31.4 7.4-46.8 2.3-9.6 4.4-19.9 7.9-29.2q2-0.3 4 7.7c3.4 10.7 5.1 21.9 5.1 33.7l-5.8 42.2-1.4 17.2-0.3 17.7 0.5 17.1c1.5 23.2 4.5 48.1 13.7 69.6l6.5 15.4c8.9 19.4 22.3 39.8 36.2 55.8l6.6 7.1c2.9-0.4 5.1-2.2 6.5-5.5 1.9-17.8 13.8-30.3 17.1-47.7 3.3-16.3 2.3-35.6-1.9-51.7l-1.2-4.2-0.5-3.7-0.3-2.1-0.1-3.1 1.3-2.8c6.3-3.4 19.5 58.5 19.9 62.5 3.1 26.9-0.9 53.4-12.2 77.9l-7.2 15.4-6.8 15.7c-4.4 12-13.6 26.3-10.8 39.4 3.4 15.6 11 27.3 18.8 24.8 7.5-2.4 8-10.6 6.1-17-1-4.3-3.9-8.2-4.9-12.6-0.1-0.9-0.1-9.3 1.7-8.9 1.4 0.3 2.8 0.6 4 1.1 2.3 0.8 4.4 1.8 6.3 3.4 1.8 1.6 3.4 3 5.1 4.9 1.4 1.7 2.3 3.6 3.3 5.5l0.4 0.5c1.1 2.1 1.7 4.3 1.6 6.7zm-74.7-108.6l-4.2-3.7c-30.2-27.6-46.2-55.9-55-95.3l-2.5-12.6c-1.1-4.3-1.7-8.6-2-12.8q0.3-8.8-1.5-12.6c-10.8 1-18.3 2.3-22.2 4-2.5 1.1-4.3 2.8-5.4 5.1-2.6 5.5 3.8 14.3 1.5 29.3-1.1 7.3-3.9 12.9-7.8 22.1l-4.5 9.7c-1 1.7-2 3.3-2.8 5-4.4 8.7-10.3 16.7-16.8 23.8-4.9 5.4-15.3 11.7-13.7 19.7l1.4 5.8 1.5 5.1 2.5 5.4 2.6 4.9 3.7 4.8 1.6 1.6 3.2-0.4 8.7-1.6c24-5 35.5-5.4 54.6-7.5 18.8-2 40.7-3.1 57.1 0.2zm-210.4 6.9c10.6 13 12 33.2 10.6 43.2-1 6.9-9.8 20.7-11.8 20.7-4.1-0.6-8.8-2.5-13.8-5.7-3.3 0.2-47.2 4.7-63.4 15.5-5 3.3-8.6 9.8-13.6 12.3-5.8 2.9-12.6 1.6-18.8 2.4-6.4 0.7-12.9 2.7-19 4.2-14.9 3.5-29.9 7.1-44.6 11-25.4 6.5-51.9 12.5-76.1 22.7l-13.6 5.6-10 2.7-9.6 3-19.3 5.6-9.9 2.5-9.7 2.6c-18.7 4.6-37.1 7.2-56.4 7.8-9.2 0.3-13.1-1.6-20.5-7.3-10.3-8-14.1-10-27.4-10.7-9.1-0.4-17.3-2.4-26.2-4.1-10.5-2.1-21.4 2.6-32.1 2.4-6.1-1.5-7.5-3.3-7.3-5.7 19.9-16.6 41.9-21.3 66.3-28 22.7-6.3 45.5-12.1 68.4-17.9 21.8-5.6 43.7-11.3 65.6-16.6 22.2-5.5 44.1-11.2 66.6-15.2 14.8-2.6 29-5.6 43.6-8.9 10-2.2 17.9-2.6 28-2.6 8.4 0 14-5.6 22-7 4.5-0.8 9.2-0.7 13.6-1.3 18.9-2.7 37.8-7.2 56.5-10.7 11.8-2.1 23.5-4.1 35.4-5.6v-0.1c9-8.8 16.6-27.7 24.3-30.2 4.4-1.3 8.1-0.5 9.3 1.9 1.9 3.9-7.1 6.4-7.1 11.5zm234.2-557.5l-1.5-0.5c-5.1-2.1-12.6 3.8-15.4 7.4-5.4 7-9.2 15.2-14.8 22.2l-3.7 4-4 4.3-4.2 4.6-4.3 6.5-6.7 9.9-7.9 13c-4 7.1-8.6 15.2-8.5 23.6 0.2 2.7 0.3 5.9 1 8.6 0.6 2 1.1 4.1 1.8 6.1l1.5 3.6 4 7.7c1.5 4.5 3.1 8.5 3.6 12.3 5.6 30.1-12.3 46.6 9.8 77.1 10.3 14.1 21 28.2 29.9 43.3 4.7 8 8.8 16.2 12.9 24.5 3.7 7.3 7.4 14.8 9.1 22.8 2.2 10.3 1.7 23.6-2.4 33.3-3 7.4-2.4 15.5-6.2 22.7-1.5 2.7-6.1 2.8-7.6 0.4-1.5-2.4-1.1-5.8-0.5-8.4 1.5-6.6 5-11.2 4.4-18.7-1.7-19.5-18.3-36.8-31-50.3-12.5-13.3-26-25.2-35.7-41-5.7-9.3-9.2-20-10.6-30.8-7.3 7.6-21 18-40.2 28.7l-5.4 4c-26.2 23.1-41.2 56.3-48.7 89.9l-1.5 8.9c-3.4 19-3.6 41.5-9.9 59.7-4.2 12.2-12.1 18.5-19.2 28.5-17 23.6-32.9 48.4-64.2 53.5-28.6 4.7-56.9-2.4-66.3-32.7l-0.8-2.9c-3.6-11.5-2-22.3 4.7-32.4 2.5-3.9 7.1-9.6 10.9-12.4 7.1-5.2 17.6-6 20.4-5.4 2.3 0.4 4.1 1.2 5.9 2.8l2.2 3.5c4.2 2.3 9.2-0.2 11.5 5.3 4.8 11.7-16.5 24.7-16.5 24.7-5 3.8-17 6.1-19.2 9.2-5.9 8.4 4.9 22.3 12.2 24.9 9.6 3.5 22 0.7 31.3-2.5 32.4-10.7 49.8-36.9 52.6-70.2l1.7-13.4 1.4-13.1 1.7-26.3 0.4-13.1c0-13.1-0.4-26.2 3.3-38.9 2.6-8.7 5.4-16.5 9.4-24.7 2.8-5.9 6.8-11.3 10.1-16.9l5.4-7.1 6-6.6 6.6-6 10.2-7.7 5.5-3.4 5.9-2.9c14.8-7.2 67.1-18.1 66.1-27.1-1.6-14.3-3.4-28.6-12-40.7-3.7-5.2-8.6-9.4-12.4-14.5-9.4-12.8-15.2-26.2-11.9-42.3 1.4-6.9 3.7-11.9 7.8-17.4l2.6-3.4c17.7-18 40-30.3 58.2-47.8l8-6.6c10.4-9.1 21.4-22.4 35.7-24.6 6.4-1.1 16.8 0.7 19.8 7.5v2.3q-0.3 2-2.3 1.4zm-24.5 66.8c2.3 2.8-14.2 23.1-14.2 26l-2.7 1.1c-1.7-4.5 1.7-11.6 0.8-13-1.9-2.4-5.6-0.3-5.8-4-2.1-2.1-4.7-3-4.2-6.2 0.8-6.1 20.7-10.4 26.1-3.9zm78.7 2.4c0 0 0.7 0.6-0.4 3.5-0.4 0.8-0.6 1.4-1.6 2.9-2.7 4.3-16.7 14.9-28.3 10.5-3.9-1.4-7.6 9-15 8.5-3.2-0.4 0.6-5.7 2.1-8 3.8-5.7 5.3-11.6 8.7-16.4 1.1-1.7 2.6-2.1 3.8-2.3 6.1-0.3 11.5-0.5 18.8 1.5l2.6 0.9c1.8 0.2 2.3-0.9 3.2-1.4 2.1-1.3 4.5-2.4 6.1 0.3zm-64.2 34.8c5.9 5.6 15.4-4.6 16.2 2.3 0.4 2.9-5.2 5.3-7 6.4-5.9 3.3-8.7 3.1-8.7 3.1-2.4 1.1-4.4 3.5-7 4.2-5.6 3.6-4.9 11-6.3 15 0.2 4.3 5.9 5.3 8.9 8 5.6 4 10.7 16.2 19.7 14.1 1.5-0.3 3.1-0.3 4.6-0.6l3.7-0.9c2.2-0.5 4.4-1 6.6-1.1l2.5 0.1 1.8 0.3c0.8 0.5 0 1.6 1.4 1.6 4.3-0.3 9.7 4.1 4.8 7.7-1.3 1.1-2.8 1.9-4.4 2.2-3.1 0.5-5.9 2.1-8.9 2.6-3.2 0.5-6 0-9.1-0.6-2.1-0.4-4.3 0.2-6.4-0.4-2.2-0.7-4.2-1.9-6.1-3.3-3.5-2.5-7.5-4.9-10.7-7.8-2.2-1.9-7-5.5-10-5.1-2.5 0.3-5.5 2.1-7.6 3.3-2.1 1.2-3.9 2.7-5.6 4.3-1.9 1.9-6 5.1-8.4 3.2-1.1-1.7 2.6-9.8 10.1-17.7 2-2.1 7.6-3.2 7.6-9.2-0.6-4.4-5-14-5.5-15.1-2.4-1.6-1.7-3.5-3.5-5.3-12.4-8.7-9.5-12.1-6.9-13.1 6.9-0.3 21-5.5 32.9 0.9zm-195.5 473.6c0.4-2.4 2.1-5.6 4.7-5.8 5.9-0.5 6.7 9.6 7.7 13.3 1 3.6 3.4 6.4 3.9 10.2 0.3 3.5 0.3 7.7-1.3 10.8-0.7 1.5-2.2 2-3.7 2-1.9 0.1-4 0.1-5.9 0.4-1.9 0.2-4 0.2-5.7 1-2.1 0.9-4.1 2.1-6.3 2.6-0.6 0.2-5.8 0.4-3.5-1.1 1.5-1.2 2.7-2.5 4.2-3.9 0.9-0.8 5-5.6 6.1-7.4 2.2-3.4 3-8.5 2.5-12.4-0.3-1.6-1.6-3.4-2-5-0.5-1.4-0.7-2.8-0.6-4.2 0 0 0-0.5-0.1-0.5zm322.3 17.8l0.2 3.2 0.9 6c0.4 1.8 1 3.5 1.5 5.3 0 0.3 3.6 9.3 5.2 12.4 2 4.2 3.8 8.7 4.7 13.4 1.9 9.4 1.2 17.1-3.7 25.4l-2.5 2.9c-6 5.9-13 11.5-20.9 14.8-4.4 1.9-9 3.4-13.6 4.3-1.8 0.4-4.8-7.4-2.9-8.5 3.5-2.3 6.5-4.7 8.9-7.1 3.2-3.7 8-7.8 9.8-12.5 2.1-5.1 1.8-10.1 1.3-15.4-0.6-6.3-2.5-12.7-3.3-18.9-2.1-16.6-2.6-32.7-1.8-49.4 0-21 11.5-40.1 18.8-59.1 6.9-18.1 17.1-34.6 24.6-52.3 8.9-21.2 14.4-43.8 16.5-66.7 2-21.4-3.3-46.1 4-66.6 1.9-5.6 7.5-11 7.8-17 1.3-0.5 2.6 0 3.5 1.3l1.2 3.7c1 6.8-2.6 14.8-2.8 21.8-0.3 8.4 0.6 16.7 0.6 25 0.1 13.2 2.2 26.8 3.3 40 1.9 21.5 3.1 43-1.6 64.1-4.5 20.5-13.9 40.9-25.5 58.4-3.2 4.7-6.5 9.2-9.7 14l-3.8 6.3 18.9 0.1 49.6 4.5h8.2l7.9 0.3c8.8 0.3 18.2-0.2 26.8 2 2.6 0.7 4.8 2.6 7.4 2.6 8.1 0 15.8-5.6 24-3.2 11.9 3.3 24.4 4.5 36.6 6.2 21.7 3 88.3 4.5 98.1 8 2.4 0.9 132.3 17.4 149.9 21.5 22.7 5.2 43 12.3 64.6 18.7 3.7 1.1 7.7 1.9 11.4 2.6 3.3 0.4 14.2 4 16.3 5.9 2.7 2.3 10.4 1.9 13.7 1.9 1.4-0.1 4.4 0.1 5.4 1.2 1.4 1.7 4.1 5 8.8 7 4.8 1.9 12.5 3.2 12.2 5.9-0.1 0.6-7-0.4-11.7-1.6-11.1-2.6-22.3-5.4-33.4-8.1-13.7-3.3-27.5-6.6-41.1-10.1-12.2-3.1-24.5-6.3-36.9-9.1-5.4-1.1-10.8-3.1-16.3-3.9-5-0.8-10.5 0.4-15.4-1.2-5.3-1.7-7-3.9-13.3-3-3.6 0.4-5.6 1.1-9.2 0.2-5.1-1.2-8.8-3.9-14.1-4.6-5-0.7-10.1-0.1-15.1-0.9-6.5-1-13-1.9-19.6-3-10-1.5-20.5-5.1-30.5-5.5-3-0.1-22-3.3-26.2-3.2-4.8 0.2-9.6 0.5-14.4 0-2.9-0.4-10.9-0.9-12.7-0.7-6.1 0.8-12.2 0.9-18.5 1.1-8.8 0.3-20.3 2-28.7-0.7-2.4-0.9-3.5-1.9-5.9-2.3-2.6-0.5-6-0.1-7.9 1.6 16.3 10.9 42.2 9 61.3 10.6l21.2 1.8c53.9 7 108.9 10.5 161.3 25.7l32.1 8.8c4.7 1.3 9.4 2.6 14 4 11.7 3.3 23.3 6.6 34.9 10 15.1 4.2 30 8.5 45 12.9 14.8 4.1 29.7 8.5 44.4 12.7 12 3.3 51.1 19.6 60.1 23.2 3.9 1.5 7.8 3.1 11.6 4.8l3.8 2.6c-6.4 1.6-11.9 1.9-16.6 1.1-5.7-0.5-12.9-1.7-21.7-3.5-2.6-0.4-5.1-2.6-7.5-3.7-5.6-2.5-40.3-13.8-46-14-9.7-0.3-18.8-2.3-28.3-4.2-5.5-1.2-11.1-2.5-16.6-3.7-5.1-1.2-10.1-2.5-15.2-4-2-0.6-3.8-1.7-5.8-2.4-2.4-0.7-4-2.6-6.1-3.3-3.4-1.1-7.5-0.9-11-1.9-4.2-1.1-6-3.9-9.7-5.6-9.2-4.3-18.6 0.6-28 1.2-10.3 0.5-49.3-3.7-56.8-6.4-4.2-1.6-3.5-5-8.4-5.4-4.8-0.3-8.6 3-13.7 2.6-7.1-0.3-13.7-2.6-20.3-5l-9.9-2.9c-32.8-10-67-14.3-101-18.3l-15.9-1.8c-7.1-0.8-15.5-0.9-23-1-9.2 0-17.8-3.3-26.5-5.5-3.4-1-13.7-5.3-17.2-3.1q-1.4 1.1-4.5 1.9c-5.6 1.6-11.4-1.1-16.8-2.6-2.6-0.6-5.2-1.7-7.9-1.9-1.2-0.2-2.5 0-3.6 0.7-1.3 0.8-2.1 2.4-3.4 3.1-1.3 0.7-2.9 1.3-4.3 1.9-3.7 1.4-7.8 0.7-11.7 0.3-4.1-0.3-8.3-0.8-12.4-1.1-6.6-0.5-13.2-1.1-19.8-1.6-12.2-1-24.5-1.8-36.8-2.6q-15.9-0.9-31.9-1.4c-8.5-0.3-17.1-0.5-25.7-0.8-5.1-0.7-10.1-0.9-15.3-1.2zm20.7-51.2z"/>
</svg>