<?xml version="1.0" ?>
<svg xmlns="http://www.w3.org/2000/svg" viewBox="0 0 200 58" fill="none">
	<g clip-path="url(#clip0_1614_1700)">
		<path d="M18.95 58C16.8528 58 14.6896 57.5805 12.4628 56.7461C10.2336 55.9117 8.20235 54.6579 6.36899 52.9845C4.53336 51.3134 3.0139 49.1957 1.80834 46.6358C0.60278 44.0759 0 41.0716 0 37.6229C0 34.1742 0.575484 31.1699 1.731 28.61C2.88197 26.0501 4.37641 23.921 6.21204 22.2228C8.0454 20.5245 10.104 19.2706 12.3854 18.4611C14.6646 17.6517 16.9074 17.2458 19.107 17.2458C21.675 17.2458 23.9429 17.6766 25.9082 18.5382C27.8734 19.3998 29.5112 20.5109 30.8236 21.869V18.0281H41.5963V57.2177H30.8236V52.8281C29.5135 54.345 27.8484 55.5852 25.8308 56.5511C23.8109 57.517 21.5181 58 18.95 58ZM21.0723 48.1232C22.5394 48.1232 23.8883 47.8489 25.1211 47.3002C26.3517 46.7514 27.414 45.9941 28.3056 45.0282C29.1973 44.0623 29.891 42.9399 30.3892 41.6589C30.8873 40.3801 31.1353 39.0083 31.1353 37.5435C31.1353 36.0788 30.8851 34.7093 30.3892 33.4282C29.891 32.1494 29.1973 31.0384 28.3056 30.0974C27.414 29.1565 26.3517 28.4127 25.1211 27.864C23.8883 27.3153 22.5394 27.041 21.0723 27.041C19.6051 27.041 18.2267 27.304 16.9438 27.8255C15.6586 28.3493 14.5463 29.0794 13.6023 30.0203C12.6584 30.9613 11.9123 32.0723 11.3618 33.3511C10.8114 34.6322 10.5361 36.0289 10.5361 37.5435C10.5361 39.0582 10.8114 40.4571 11.3618 41.736C11.9123 43.017 12.6584 44.1258 13.6023 45.0668C14.5463 46.0077 15.6586 46.7514 16.9438 47.3002C18.2267 47.8489 19.6028 48.1232 21.0723 48.1232Z" fill="#231E52"/>
		<path d="M47.3739 18.0281H58.067V22.4177C59.3249 20.7988 60.8853 19.5314 62.7459 18.6153C64.6066 17.7016 66.6652 17.2435 68.9193 17.2435C73.5846 17.2435 77.2263 18.6539 79.849 21.4768C82.4694 24.2974 83.7795 28.245 83.7795 33.3126V57.2178H72.8499V34.7229C72.8499 32.0587 72.2471 30.009 71.0416 28.5692C69.836 27.1317 68.0277 26.4129 65.6165 26.4129C63.5716 26.4129 61.8156 27.1566 60.3485 28.6463C58.8813 30.136 58.1466 32.5258 58.1466 35.8181V57.2155H47.3739V18.0281Z" fill="#231E52"/>
		<path d="M89.4957 18.0281H100.189V24.4561C101.183 22.4177 102.573 20.8396 104.356 19.715C106.137 18.5926 108.366 18.0303 111.039 18.0303H115.363V28.4558H108.523C105.639 28.4558 103.542 29.2539 102.234 30.8457C100.924 32.4396 100.268 35.0653 100.268 38.7226V57.22H89.4957V18.0281Z" fill="#231E52"/>
		<path d="M137.215 58C134.386 58 131.738 57.4626 129.275 56.3924C126.811 55.3222 124.648 53.8711 122.787 52.0413C120.927 50.2138 119.471 48.0575 118.425 45.5747C117.374 43.0941 116.851 40.4413 116.851 37.6184C116.851 34.7955 117.374 32.1449 118.425 29.6621C119.473 27.1816 120.927 25.0253 122.787 23.1955C124.648 21.3679 126.809 19.9168 129.275 18.8443C131.738 17.7741 134.386 17.2367 137.215 17.2367C140.045 17.2367 142.693 17.7741 145.156 18.8443C147.62 19.9168 149.783 21.3657 151.643 23.1955C153.504 25.0253 154.958 27.1816 156.008 29.6621C157.057 32.1449 157.58 34.7955 157.58 37.6184C157.58 40.4413 157.055 43.0919 156.008 45.5747C154.96 48.0575 153.504 50.2115 151.643 52.0413C149.783 53.8711 147.62 55.3199 145.156 56.3924C142.693 57.4626 140.045 58 137.215 58ZM137.215 47.8103C138.578 47.8103 139.863 47.536 141.069 46.9873C142.274 46.4385 143.323 45.7084 144.214 44.7924C145.106 43.8787 145.814 42.8062 146.337 41.5795C146.86 40.3529 147.124 39.0332 147.124 37.6206C147.124 36.2081 146.86 34.8907 146.337 33.6618C145.811 32.4351 145.104 31.3626 144.214 30.4489C143.323 29.5351 142.274 28.8027 141.069 28.254C139.863 27.7053 138.578 27.431 137.215 27.431C135.853 27.431 134.502 27.7053 133.323 28.254C132.143 28.8027 131.108 29.5351 130.216 30.4489C129.325 31.3626 128.631 32.4351 128.133 33.6618C127.635 34.8907 127.387 36.2081 127.387 37.6206C127.387 39.0332 127.635 40.3506 128.133 41.5795C128.631 42.8084 129.325 43.8787 130.216 44.7924C131.108 45.7062 132.143 46.4385 133.323 46.9873C134.502 47.536 135.801 47.8103 137.215 47.8103Z" fill="#231E52"/>
		<path d="M177.513 41.541L172.245 47.7332V57.2178H161.472V0H172.245V35.3487L186.714 18.0258H199.215L184.905 34.9565L200.002 57.2155H188.208L177.515 41.5387L177.513 41.541Z" fill="#231E52"/>
	</g>
	<defs>
		<clipPath id="clip0_1614_1700">
			<rect width="200" height="58" fill="white"/>
		</clipPath>
	</defs>
</svg>