<?xml version="1.0" ?>
<svg xmlns="http://www.w3.org/2000/svg" version="1.2" viewBox="0 0 1510 818">
	<style>
		.s0 { fill: #d61821 } 
	</style>
	<g id="图层_2">
		<g id="图层_1-2">
			<path id="path211" class="s0" d="m1510 613.2c-38.2-53.9-80.4-104.8-126.3-152.2-45.8-47.5-95.3-91.5-147.8-131.5-52.5-40-108-75.9-166-107.6-57.9-31.6-118.2-58.7-180.3-81.2q55.1 1.8 109.9 6.8 54.8 4.9 109.3 12.9 54.5 8 108.4 19 53.9 11 107.2 25.1l-97.8-83.1c-52.3-19.9-105.5-37.5-159.5-52.6-53.9-15.1-108.5-27.7-163.6-37.8-55.1-10.1-110.6-17.6-166.4-22.6-55.7-5.1-111.7-7.5-167.7-7.4q-50.8-0.1-101.5 2.7-50.8 2.7-101.2 8.2-50.5 5.6-100.6 13.9-50.1 8.4-99.7 19.5l-166.4 114.5c21.1 0 52.7-1.3 73.9-1.3 125.3-0.2 250.2 14.6 372 43.9 121.8 29.3 239.7 73 351.3 130.2 111.5 57.1 215.8 127.3 310.8 209.1 95 81.7 179.9 174.5 253 276.3z"/>
		</g>
	</g>
</svg>