<?xml version="1.0" ?>
<svg xmlns="http://www.w3.org/2000/svg" viewBox="0 0 230.57 56.29">
	<defs>
		<style>.cls-1{fill:#fdbd3a;}.cls-2{fill:#f16423;}.cls-3{fill:#7f59a5;}.cls-4{fill:#1ba8e1;}.cls-5{fill:#82c342;}</style>
	</defs>
	<g>
		<g>
			<g>
				<rect class="cls-5" x="6.98" y="8.46" width="4.7" height="36.87"/>
				<rect class="cls-1" x="13.95" width="4.7" height="45.33"/>
				<rect class="cls-2" x="20.93" y="8.46" width="4.7" height="36.87"/>
				<rect class="cls-3" x="27.9" y="18.93" width="4.7" height="26.4"/>
				<rect class="cls-4" y="18.93" width="4.7" height="26.4"/>
				<g>
					<path d="M60.76,43.63v.44c-.83,.92-1.92,1.53-3.62,1.53s-3.01-1.09-3.36-3.14c-1.22,1.7-3.54,3.32-6.59,3.32-3.58,0-6.2-2.14-6.2-5.76,0-4.19,3.58-6.86,9.56-6.86,1,0,2.27,.09,3.14,.22v-3.8c0-3.84-1.35-5.81-4.5-5.81-1.92,0-3.32,.65-4.15,1.79,.96,.35,1.66,1.14,1.66,2.23,0,1.35-1.05,2.36-2.4,2.36s-2.36-1.05-2.36-2.49c0-2.97,3.49-4.98,7.6-4.98,5.98,0,7.9,3.06,7.9,7.03v11.09c0,2.14,.52,2.84,2.66,2.84h.66Zm-7.07-9.08c-.52-.09-1.18-.17-1.83-.17-4.45,0-6.86,2.1-6.86,5.28,0,2.49,1.62,4.06,3.97,4.06,1.88,0,3.62-1.09,4.72-2.53v-6.64Z"/>
					<path d="M67.82,40.44c0,2.84,.52,3.93,1.75,4.5v.39h-7.29v-.39c1.22-.57,1.79-1.66,1.79-4.5v-12.05c0-2.31-1.05-3.06-1.92-3.49v-.39l5.68-1.92v4.67c2.66-2.88,5.68-4.59,8.78-4.59,4.54,0,5.81,2.88,5.81,6.64v11.13c0,2.84,.61,3.93,1.79,4.5v.39h-7.29v-.39c1.22-.57,1.75-1.66,1.75-4.5v-9.91c0-3.45-1.31-4.89-4.19-4.89-2.53,0-5.07,1.44-6.64,2.58v12.23Z"/>
					<path d="M99.52,42.93c-1.31,1.48-3.58,2.58-5.68,2.58-3.23,0-4.8-1.88-4.8-5.9v-14.63h-3.41v-1.05c2.75-1.09,5.02-3.06,6.16-6.81h1v6.29l6.38-.44-.39,2.01h-5.98v14.02c0,3.01,.83,4.24,3.14,4.24,.96,0,2.18-.17,3.36-.7l.22,.39Z"/>
					<path d="M107.56,40.44c0,2.84,.52,3.93,1.75,4.5v.39h-7.29v-.39c1.22-.57,1.79-1.66,1.79-4.5V18.43c0-2.1-.96-3.19-1.92-3.58v-.44l5.68-1.92v14.76c2.66-2.88,5.68-4.59,8.78-4.59,4.58,0,5.81,2.88,5.81,6.64v11.13c0,2.84,.57,3.93,1.79,4.5v.39h-7.29v-.39c1.22-.57,1.75-1.66,1.75-4.5v-9.91c0-3.45-1.31-4.89-4.19-4.89-2.53,0-5.07,1.48-6.64,2.58v12.23Z"/>
					<path d="M136.86,45.81c-6.51,0-10.61-4.72-10.61-11.22,0-7.07,4.28-11.92,11.13-11.92s10.65,4.85,10.65,11.35c0,7.12-4.5,11.79-11.18,11.79m.61-1.18c3.71,0,6.42-3.62,6.42-9.87,0-6.68-2.84-10.96-7.12-10.96-3.8,0-6.42,3.97-6.42,9.83,0,6.29,2.71,11,7.12,11"/>
					<path d="M156.03,40.44c0,2.84,.57,3.93,1.79,4.5v.39h-7.34v-.39c1.22-.57,1.79-1.66,1.79-4.5V18.43c0-2.1-.96-3.19-1.92-3.58v-.44l5.68-1.92v27.95Z"/>
					<path d="M170.88,45.81c-6.51,0-10.61-4.72-10.61-11.22,0-7.07,4.28-11.92,11.13-11.92s10.65,4.85,10.65,11.35c0,7.12-4.5,11.79-11.18,11.79m.61-1.18c3.71,0,6.42-3.62,6.42-9.87,0-6.68-2.84-10.96-7.12-10.96-3.8,0-6.42,3.97-6.42,9.83,0,6.29,2.71,11,7.12,11"/>
					<path d="M198.43,42.1c4.67,0,6.77,1.31,6.77,4.67,0,4.45-5.37,9.48-12.97,9.48-5.2,0-8.08-2.31-8.08-5.55,0-2.49,2.01-4.67,4.72-5.55-1.4-.61-2.18-1.7-2.18-3.14,0-2.27,2.05-3.89,3.32-4.59-2.93-1.05-4.85-3.49-4.85-6.94,0-4.5,3.67-7.82,9.04-7.82,1.96,0,3.71,.48,5.06,1.35,.79-2.14,2.27-3.54,4.11-3.54,1.48,0,2.36,.96,2.36,2.1s-.7,2.01-1.96,2.01c-1,0-1.75-.61-2.05-1.48-.7,.13-1.31,.61-1.79,1.35,1.62,1.31,2.53,3.23,2.53,5.63,0,4.63-3.8,7.86-9.08,7.86-.83,0-1.66-.09-2.4-.26-.74,.79-1.27,1.62-1.27,2.45,0,1.31,.92,1.96,3.01,1.96h5.72Zm-6.11,3.62c-.92,0-1.75-.09-2.45-.26-1.48,.96-2.49,2.45-2.49,4.28,0,3.1,2.58,4.85,6.29,4.85,4.72,0,8.47-2.31,8.47-6.16,0-1.96-1.27-2.71-3.89-2.71h-5.94Zm-3.32-15.63c0,4.15,2.1,6.77,4.8,6.77s4.8-2.58,4.8-6.42-2.01-6.72-4.8-6.72-4.8,2.66-4.8,6.38"/>
					<path d="M211.72,29.31c-1.31-2.93-2.23-4.63-3.89-5.76v-.39h8.08v.39c-1.7,1.18-1.27,3.19-.09,6.03l4.76,11.44,3.62-10.13c1.27-3.62,1.31-6.29-.39-7.34v-.39h6.72v.39c-1.7,.87-2.88,2.62-4.72,7.25,0,0-2.04,5.45-5.16,13.17-3.11,7.73-5.47,12.33-9.79,12.33-1.88,0-3.36-.79-4.37-1.88v-.39c4.19-.22,9.93-1.44,12.33-8.34l-7.12-16.37Z"/>
				</g>
			</g>
		</g>
		<path d="M230.57,42.88c0,1.38-1.08,2.46-2.49,2.46s-2.51-1.08-2.51-2.46,1.11-2.43,2.51-2.43,2.49,1.08,2.49,2.43Zm-4.38,0c0,1.08,.8,1.94,1.9,1.94s1.86-.86,1.86-1.93-.79-1.96-1.87-1.96-1.88,.88-1.88,1.94Zm1.5,1.28h-.56v-2.43c.22-.04,.53-.07,.94-.07,.46,0,.67,.07,.85,.18,.13,.1,.24,.3,.24,.53,0,.27-.21,.47-.5,.56v.03c.24,.09,.37,.27,.44,.59,.07,.37,.12,.52,.18,.61h-.61c-.07-.09-.12-.31-.19-.59-.04-.27-.19-.39-.5-.39h-.27v.98Zm.01-1.38h.27c.31,0,.56-.1,.56-.36,0-.22-.16-.37-.52-.37-.15,0-.25,.02-.31,.03v.7Z"/>
	</g>
</svg>