<?xml version="1.0" ?>
<svg xmlns="http://www.w3.org/2000/svg" role="img" viewBox="-4.80 -4.80 249.34 36.34">
	<style>svg {isolation:isolate}</style>
	<defs>
		<clipPath id="_clipPath_A22jLTvUXMCLKqA7yEhVLtgkWUYfMmIq">
			<path d="M 0.0,0.0 L 240.0,0.0 L 240.0,26.865 L 0.0,26.865 L 0.0,0.0"/>
		</clipPath>
	</defs>
	<g clip-path="url(#_clipPath_A22jLTvUXMCLKqA7yEhVLtgkWUYfMmIq)">
		<path fill="#22A3F1" d="M 51.645,13.29 C 51.645,5.524 56.956,0.0 64.001,0.0 C 67.978,0.0 70.673,1.521 72.355,3.629 L 72.488,0.529 L 79.188,0.529 L 79.188,26.149 L 72.488,26.149 L 72.355,23.049 C 70.674,25.184 67.978,26.679 64.001,26.679 C 56.959,26.688 51.645,21.057 51.645,13.29 M 65.336,6.112 C 61.226,6.112 58.45,9.212 58.45,13.29 C 58.45,17.401 61.226,20.603 65.336,20.603 C 67.249,20.609 69.08,19.83 70.402,18.448 C 71.724,17.065 72.42,15.201 72.328,13.29 C 72.41,11.395 71.707,9.549 70.383,8.19 C 69.059,6.831 67.233,6.079 65.336,6.112 M 96.08,0.0 C 103.953,0.0 109.771,5.791 109.771,13.344 C 109.771,20.923 103.953,26.688 96.08,26.688 C 88.234,26.688 82.39,20.923 82.39,13.344 C 82.39,5.791 88.235,0.0 96.08,0.0 M 96.08,20.5 C 98.989,20.605 101.672,18.934 102.859,16.276 C 104.047,13.618 103.503,10.505 101.484,8.408 C 99.465,6.31 96.375,5.648 93.674,6.734 C 90.972,7.82 89.201,10.437 89.195,13.348 C 89.095,15.227 89.78,17.063 91.085,18.418 C 92.39,19.773 94.199,20.525 96.08,20.496 L 96.08,20.5"/>
		<path fill="#294364" d="M 157.429,0.534 L 164.261,0.534 L 164.261,15.613 C 164.261,22.098 159.377,26.688 152.145,26.688 C 144.886,26.688 140.162,22.151 140.162,15.773 L 140.162,0.534 L 147.021,0.534 L 147.021,14.918 C 147.021,18.174 149.129,20.389 152.145,20.389 C 153.597,20.447 155.004,19.883 156.013,18.838 C 157.023,17.793 157.538,16.367 157.429,14.918 L 157.429,0.534 M 190.536,4.537 C 192.552,1.633 195.888,-0.07 199.423,0.0 C 205.294,0.0 209.484,3.816 209.484,10.061 L 209.484,26.154 L 202.625,26.154 L 202.625,11.823 C 202.625,8.274 200.436,6.352 197.501,6.352 C 194.566,6.352 191.87,8.193 191.87,11.663 L 191.87,26.154 L 185.011,26.154 L 185.011,11.823 C 185.011,8.274 182.796,6.352 179.911,6.352 C 178.424,6.267 176.97,6.811 175.904,7.852 C 174.839,8.893 174.261,10.334 174.311,11.823 L 174.311,26.154 L 167.452,26.154 L 167.452,0.534 L 173.963,0.534 L 174.097,3.496 C 176.024,1.17 178.925,-0.124 181.943,-0.004 C 185.841,0.0 189.041,1.628 190.536,4.537 M 226.31,0.0 C 234.183,0.0 240.001,5.791 240.001,13.344 C 240.001,20.923 234.183,26.688 226.31,26.688 C 218.464,26.688 212.62,20.923 212.62,13.344 C 212.619,5.791 218.464,0.0 226.31,0.0 M 226.31,20.5 C 229.219,20.605 231.902,18.934 233.089,16.276 C 234.277,13.618 233.733,10.505 231.714,8.408 C 229.695,6.31 226.605,5.648 223.904,6.734 C 221.202,7.82 219.431,10.437 219.425,13.348 C 219.325,15.227 220.009,17.063 221.314,18.418 C 222.62,19.773 224.429,20.526 226.31,20.496 L 226.31,20.5 M 138.947,26.195 L 130.89,26.195 L 124.732,17.419 L 119.775,24.27 L 119.775,26.133 L 112.945,26.133 L 112.945,0.533 L 119.775,0.533 L 119.775,13.955 L 121.048,12.17 L 124.737,7.006 L 129.384,0.491 L 136.991,0.491 L 128.691,11.963 L 138.947,26.195"/>
		<g>
			<path fill="#22A3F1" d="M 23.579,20.215 C 21.477,24.187 17.404,26.726 12.912,26.865 C 15.016,22.894 19.087,20.355 23.579,20.215 L 23.579,20.215"/>
			<path fill="#294364" d="M 35.0,26.797 C 34.97,26.799 34.94,26.799 34.91,26.797 C 31.256,26.797 28.1,24.239 27.344,20.664 C 30.622,21.586 33.385,23.799 35.0,26.797 L 35.0,26.797"/>
			<circle cx="29.957" cy="4.781" r="4.781" fill="#294364" vector-effect="non-scaling-stroke"/>
			<path fill="#294364" d="M 35.0,26.797 C 34.97,26.799 34.94,26.799 34.91,26.797 C 31.256,26.797 28.1,24.239 27.344,20.664 C 30.622,21.586 33.385,23.799 35.0,26.797 L 35.0,26.797 M 42.65,19.068 C 42.649,22.723 40.09,25.879 36.513,26.635 C 34.695,22.581 31.408,19.367 27.313,17.643 C 28.048,13.715 31.654,10.994 35.632,11.364 C 39.611,11.734 42.653,15.073 42.651,19.069 L 42.65,19.068"/>
			<path fill="#22A3F1" d="M 23.579,20.215 C 21.477,24.187 17.404,26.726 12.912,26.865 C 15.016,22.894 19.087,20.355 23.579,20.215 L 23.579,20.215 M 25.035,14.355 C 25.035,15.176 24.955,15.996 24.797,16.802 C 17.331,14.936 9.521,18.163 5.55,24.755 C 0.593,21.431 -1.328,15.07 0.961,9.559 C 3.25,4.047 9.112,0.919 14.965,2.085 C 20.818,3.251 25.034,8.387 25.036,14.355 L 25.035,14.355"/>
			<path fill="#22A3F1" d="M 23.579,20.215 C 21.477,24.187 17.404,26.726 12.912,26.865 C 15.016,22.894 19.087,20.355 23.579,20.215 L 23.579,20.215"/>
			<path fill="#294364" d="M 35.0,26.797 C 34.97,26.799 34.94,26.799 34.91,26.797 C 31.256,26.797 28.1,24.239 27.344,20.664 C 30.622,21.586 33.385,23.799 35.0,26.797 L 35.0,26.797"/>
		</g>
	</g>
</svg>