<svg xmlns="http://www.w3.org/2000/svg" viewBox="0 0 439.153 41.623"><defs><style>.a{fill:#0086d1}</style></defs><path class="a" d="M109.639,346.656l-20.81,20.812c-1.791-2.193-4.1-5.141-4.015-10.445.128-8.223,8.786-17.748,14.233-20.961ZM83.954,362.048c-8.646-15.236.259-29.307,5.61-35.471l-.733-.731L68.02,346.656l15.659,15.667Z" transform="translate(-68.02-325.846)"/><path d="M350.094,335.215H331.327v-2.948h18.767Zm-19.516,9.315h10.957v14.207c0,1.89-1.139,1.89-1.629,1.89h-4.53v2.949h4.853a4.618,4.618,0,0,0,3.3-1.229,4.879,4.879,0,0,0,1.362-3.61V344.53h6.264v-2.948H330.578ZM328.8,330.272h-3.725a28.251,28.251,0,0,1-9.053,9.087v3.452l0,0C319.693,340.986,326.482,334.516,328.8,330.272Zm-12.778,18.6v3.451a32.95,32.95,0,0,0,5.252-3.626v14.8h3.359v-17.85a30.92,30.92,0,0,0,5.434-6.99h-3.661A35.474,35.474,0,0,1,316.023,348.875ZM157.378,352.32a9.845,9.845,0,0,1-3.188,7.088,16.4,16.4,0,0,1-11.666,4.1v-2.952a13.507,13.507,0,0,0,9.622-3.276,6.843,6.843,0,0,0,2.279-4.962,8.186,8.186,0,0,0-2.522-6.373,11.691,11.691,0,0,0-6.542-2.6c-.657,9.461-4.714,16.173-11.489,18.956a6.782,6.782,0,0,1-7.078-.853c-2.142-1.805-2.913-4.891-2.116-8.465,1.04-4.665,4.745-8.6,9.558-10.813,0-.12.005-.241.008-.355.04-1.341.14-2.685.283-4.012h-9.678v-2.8H134.91a44.024,44.024,0,0,1,1.04-4.736h3.078a38.417,38.417,0,0,0-1.134,4.736H154.35v2.8H137.484c-.124,1.068-.211,2.157-.263,3.259a20.872,20.872,0,0,1,7.22-.771C152.66,340.877,157.378,345.262,157.378,352.32Zm-20.737,4.8a34.892,34.892,0,0,1-2.371-11.634c-3.4,1.9-5.97,4.805-6.711,8.136-.55,2.466-.136,4.494,1.135,5.568a3.852,3.852,0,0,0,4.056.38A13.341,13.341,0,0,0,136.641,357.123Zm5.771-13.921a18.181,18.181,0,0,0-5.231.982,34.924,34.924,0,0,0,1.661,10.429A22.691,22.691,0,0,0,142.412,343.2Zm52.766,14.32c-1.59,3.432-5.806,6.773-12.922,6.122v-2.967c4.857.522,8.638-1.1,10.152-4.365a6.654,6.654,0,0,0-1.98-8c-3.179-2.682-8.67-3.248-13.423-2.315v12.588a5.024,5.024,0,0,1-2.24,4.4,5.852,5.852,0,0,1-5.3.377,8.2,8.2,0,0,1-5.163-6.788,11.478,11.478,0,0,1,4.637-10.461,17.788,17.788,0,0,1,5.031-2.41v-5.9h-9.676v-2.8h9.676v-4.736h3.038v4.736h9.514v2.8h-9.514v5.176a25.456,25.456,0,0,1,3.653-.355c4.806-.116,8.981,1.114,11.762,3.458A9.6,9.6,0,0,1,195.178,357.522Zm-21.211-10.689a13.963,13.963,0,0,0-3.234,1.656,8.6,8.6,0,0,0-3.416,7.736,5.2,5.2,0,0,0,3.317,4.412,2.7,2.7,0,0,0,2.446-.111,2.137,2.137,0,0,0,.887-1.943Zm16.377-14.7-2.111,2.188a52.621,52.621,0,0,1,8.556,7.347l2.1-2.17A57.183,57.183,0,0,0,190.344,332.129Zm43.187,1.261c1.151,1.136,3.052,3.283,3.976,4.431l1.578-1.331c-.916-1.134-2.7-3.168-3.964-4.439Zm-2.956,2.441c1.028.964,2.942,3.107,4.01,4.4l1.592-1.336c-1.036-1.255-2.817-3.268-4-4.413Zm-.524-1.728-.939-2.663c-.155.006-16.152.717-22.477.414l-.018.4v2.556c4.044.183,12.148-.164,17.475-.4-4.988,3.5-13.933,8.746-19.376,9.579l-2.578.171v2.956l14.619-.974a10.961,10.961,0,0,0-3.471,4.116,8.267,8.267,0,0,0,.859,8.664,11.946,11.946,0,0,0,6.226,4.132,22.8,22.8,0,0,0,9.69.562v-2.955c-6.128.865-11.282-.438-13.545-3.494a5.389,5.389,0,0,1-.56-5.654c1.482-3.15,5.514-5.339,10.981-6.05l7.451-.5V342L214.952,343.3A120.354,120.354,0,0,0,230.051,334.1Zm36.805.028c-5.243-1.765-14.831-3.163-19.479-3.53l-.606,2.729c4.343.305,14.6,1.773,19.476,3.543Zm-6.347,9.417a22.747,22.747,0,0,0-13.519,5.288c.311-4.983.542-11.246.584-12.43h-3.337c.112,1.785-.2,11.8-.642,16.243l2.758,1.052a19.949,19.949,0,0,1,14.22-7.2c3.958-.078,6.873,1.062,8.208,3.207a5.714,5.714,0,0,1-.18,5.969c-3.663,6.07-13.329,5.05-19.144,3.773v3.022c10.69,2.2,18.415.333,21.83-5.327a8.533,8.533,0,0,0,.159-8.939C270.331,346.407,267.422,343.415,260.509,343.548Zm50.618,16.272v3.837c-5.722-3.872-10.527-10.206-12.26-16.228h-.933v11.84a37.2,37.2,0,0,0,6.156-1.891v3.2a73.192,73.192,0,0,1-11.4,2.94V360.37c.57-.1,1.211-.221,1.889-.358V330.92h15.833v16.509h-8.522a23.344,23.344,0,0,0,2.155,4.425,45.4,45.4,0,0,0,4.786-3.785v3.886c-.925.757-2.012,1.6-3.108,2.333A31.114,31.114,0,0,0,311.127,359.82Zm-13.193-22.346h9.117v-3.6h-9.117Zm9.117,7v-4.056h-9.117v4.056ZM287.914,359.2a32.979,32.979,0,0,0,4.5-1.072v2.837a70.34,70.34,0,0,1-14.176,2.291v-2.934a49.447,49.447,0,0,0,6.315-.578V348.517h-5.3v-2.951h5.3v-3.932h-4.076v-1.721a19.666,19.666,0,0,1-3.092,1.98v-3.359a21.852,21.852,0,0,0,7.654-8.829l2.781-.048c.913,2.191,3.431,4.781,6.036,6.612v3.536a15.75,15.75,0,0,1-1.386-.906v2.735h-4.558v3.932h5.3v2.951h-5.3Zm4.255-20.518a31.754,31.754,0,0,1-5.614-5.506,27.2,27.2,0,0,1-4.614,5.506Zm-10.555,11.878h-3.008l-.127.012a64.734,64.734,0,0,1,1.86,8.6h3.044A54.986,54.986,0,0,0,281.614,350.561Zm10.1,7.251c.45-1.916,1.139-5.438,1.4-7.251h-3.068c-.318,2.066-1.087,5.887-1.454,7.251Zm80.378-23.291-.084.162a30,30,0,0,1-9.316,10.33l-.252.188,1.77,2.188.23-.16a32.394,32.394,0,0,0,9.51-10.047h13.281c-2.415,13.142-9.5,20.589-22.258,23.425l-.366.082,1.256,2.7.242-.061c5.585-1.406,20.42-5.138,23.989-25.805l.023-.137-2.384-2.862ZM389.3,329.57l-.173-.225-2.226,1.514.192.253a34.989,34.989,0,0,1,4.046,6.706l.151.32,2.382-1.636-.118-.235A39.186,39.186,0,0,0,389.3,329.57Zm9.137,5.261a37.588,37.588,0,0,0-4.294-6.664l-.177-.216-2.178,1.515.191.251a35.13,35.13,0,0,1,4.047,6.708l.155.319,2.378-1.679Zm6.829,7.89c0,5.9-.512,12.672-6.623,18.215l-.234.212,2.015,2.017.214-.212c5.393-5.357,7.4-10.88,7.4-20.38v-9.594h-2.77Zm24.32,1.6c-1.072,6.168-2.985,12.889-12.11,14.781V331.877h-2.843v30.61l.333-.036c12.37-1.327,15.611-9.037,17.27-17.172l.05-.245-2.635-1.083Zm6.174,4.578h32.265v-2.991H435.758ZM472.039,335v2.7h23c-1.331,13.2-7.893,20.707-19.507,22.32l-.429.059,1.443,2.7.209-.031c12.178-1.828,19.308-10.108,21.193-24.612l.018-.132-2.528-3Zm35.135-1.5a5.445,5.445,0,1,1-5.447-5.445A5.453,5.453,0,0,1,507.174,333.5Zm-2.479,0a2.967,2.967,0,1,0-5.934,0,2.967,2.967,0,1,0,5.934,0Z" transform="translate(-68.02-325.846)"/></svg>