<?xml version="1.0" ?>
<svg xmlns="http://www.w3.org/2000/svg" viewBox="0 0 640 384">
	<defs>
		<linearGradient x1="16.575%" y1="63.668%" x2="159.56%" y2="19.992%" id="a">
			<stop stop-color="#F69923" offset="0%"/>
			<stop stop-color="#F79A23" offset="31.23%"/>
			<stop stop-color="#E97826" offset="83.83%"/>
		</linearGradient>
		<linearGradient x1="-217.817%" y1="394.537%" x2="74.715%" y2="13.787%" id="b">
			<stop stop-color="#9E2064" offset="32.33%"/>
			<stop stop-color="#C92037" offset="63.02%"/>
			<stop stop-color="#CD2335" offset="75.14%"/>
			<stop stop-color="#E97826" offset="100%"/>
		</linearGradient>
		<linearGradient x1="-20.609%" y1="192.521%" x2="125.243%" y2="-136.489%" id="c">
			<stop stop-color="#282662" offset="0%"/>
			<stop stop-color="#662E8D" offset="9.548%"/>
			<stop stop-color="#9F2064" offset="78.82%"/>
			<stop stop-color="#CD2032" offset="94.87%"/>
		</linearGradient>
		<linearGradient x1="-80.132%" y1="170.528%" x2="146.254%" y2="-44.362%" id="d">
			<stop stop-color="#9E2064" offset="32.33%"/>
			<stop stop-color="#C92037" offset="63.02%"/>
			<stop stop-color="#CD2335" offset="75.14%"/>
			<stop stop-color="#E97826" offset="100%"/>
		</linearGradient>
		<linearGradient x1="-18.413%" y1="77.356%" x2="164.849%" y2="-41.396%" id="e">
			<stop stop-color="#282662" offset="0%"/>
			<stop stop-color="#662E8D" offset="9.548%"/>
			<stop stop-color="#9F2064" offset="78.82%"/>
			<stop stop-color="#CD2032" offset="94.87%"/>
		</linearGradient>
		<linearGradient x1="-34.771%" y1="187.812%" x2="110.708%" y2="-51.16%" id="f">
			<stop stop-color="#9E2064" offset="32.33%"/>
			<stop stop-color="#C92037" offset="63.02%"/>
			<stop stop-color="#CD2335" offset="75.14%"/>
			<stop stop-color="#E97826" offset="100%"/>
		</linearGradient>
		<linearGradient x1="-129.873%" y1="465.706%" x2="66.434%" y2="17.207%" id="g">
			<stop stop-color="#9E2064" offset="32.33%"/>
			<stop stop-color="#C92037" offset="63.02%"/>
			<stop stop-color="#CD2335" offset="75.14%"/>
			<stop stop-color="#E97826" offset="100%"/>
		</linearGradient>
	</defs>
	<g fill="none" fill-rule="evenodd">
		<path d="M155.78 225.82l34.67-82.838h6.653l34.67 82.838h-8.755l-10.744-25.904H175.04l-10.618 25.904h-8.643zm38.06-73.274l-17.049 40.956h33.62l-16.572-40.956zm46.884 73.274v-82.838h34.32c14.246 0 24.514 13.19 24.514 26.016 0 13.54-9.568 26.255-23.814 26.255H248.78v30.567h-8.055zm8.055-37.806h26.489c9.806 0 16.11-8.99 16.11-19.016 0-10.39-7.705-18.79-16.81-18.79h-25.79v37.806zm46.241 37.806l34.67-82.838h6.653l34.67 82.838h-8.755l-10.744-25.904H314.28l-10.618 25.904h-8.643zm38.045-73.274l-17.048 40.956h33.62l-16.572-40.956zm77.157-10.026c14.708 0 25.438 7.463 30.58 18.091l-6.543 3.963c-5.253-10.964-15.52-14.703-24.514-14.703-19.85 0-30.691 17.741-30.691 34.418 0 18.315 13.42 34.88 31.042 34.88 9.343 0 20.311-4.663 25.564-15.403l6.766 3.5c-5.365 12.365-20.073 19.254-32.793 19.254-22.763 0-38.746-21.704-38.746-42.707 0-19.953 14.344-41.293 39.335-41.293zm108.968.462v82.838h-8.166v-38.73h-49.14v38.73h-8.055v-82.838h8.054v36.868h49.14v-36.868zm74.397 75.598v7.24h-55.682v-82.838h54.632v7.24H545.96v29.866h40.623v6.875H545.96v31.618z" fill="#D22128" fill-rule="nonzero"/>
		<path d="M102.175 1.138c-3.768 2.227-10.03 8.514-17.496 17.63l6.864 12.952c4.818-6.89 9.707-13.079 14.638-18.372.378-.42.574-.616.574-.616-.196.21-.378.42-.574.616-1.597 1.765-6.444 7.408-13.756 18.638 7.032-.35 17.86-1.793 26.672-3.291 2.619-14.702-2.578-21.424-2.578-21.424s-6.598-10.711-14.344-6.133z" fill="url(#a)" fill-rule="nonzero" transform="translate(25 72)"/>
		<path d="M60.945 222.207c.07-.196.14-.392.224-.574 1.513-3.99 3.012-7.855 4.482-11.636 1.667-4.228 3.306-8.331 4.931-12.308a1144.35 1144.35 0 0 1 5.057-12.154 846.592 846.592 0 0 1 5.155-11.86 764.32 764.32 0 0 1 4.062-8.99c.449-.965.883-1.918 1.331-2.87a537.431 537.431 0 0 1 2.592-5.517c.784-1.666 1.569-3.29 2.353-4.887.252-.532.518-1.064.77-1.582l.127-.252-.84.098-.673-1.316c-.07.126-.126.252-.196.378a697.308 697.308 0 0 0-3.586 7.24c-.687 1.4-1.36 2.814-2.046 4.242a728.526 728.526 0 0 0-10.926 24.07 784.52 784.52 0 0 0-5.085 11.972 1123.669 1123.669 0 0 0-4.86 11.888 952.564 952.564 0 0 0-4.82 12.224c-.35.91-.7 1.82-1.05 2.716-1.247 3.249-2.465 6.47-3.656 9.634l1.05 2.086.939-.098c.028-.098.07-.196.098-.28a1397.22 1397.22 0 0 1 4.567-12.224z"/>
		<path d="M71.315 65.171a453.965 453.965 0 0 1 6.332-11.412 319.31 319.31 0 0 1 6.724-11.188c.14-.21.266-.434.406-.644a263.51 263.51 0 0 1 6.78-10.207l-6.864-12.953c-.519.63-1.037 1.275-1.555 1.919a292.002 292.002 0 0 0-6.136 7.925 345.388 345.388 0 0 0-7.298 10.11 420.632 420.632 0 0 0-6.934 10.277 452.85 452.85 0 0 0-5.94 9.34c-.07.112-.14.238-.223.364l8.923 17.629a438.274 438.274 0 0 1 5.785-11.16z" fill="url(#b)" fill-rule="nonzero" transform="translate(25 72)"/>
		<path d="M30.636 164.504a1263.86 1263.86 0 0 0-3.558 9.927.682.682 0 0 1-.056.154l-.505 1.429a1437.76 1437.76 0 0 0-3.096 8.99c2.634 1.203 4.75 4.354 6.738 7.938-.21-3.71-1.75-7.197-4.664-9.9 12.971.589 24.15-2.688 29.92-12.167a23.05 23.05 0 0 0 1.416-2.675c-2.634 3.333-5.884 4.733-12.005 4.397-.014 0-.028.014-.042.014.014 0 .028-.014.042-.014 9.021-4.033 13.546-7.911 17.552-14.324.952-1.527 1.863-3.179 2.816-5.027-7.887 8.093-17.034 10.404-26.658 8.653l-7.228.798c-.224.588-.448 1.19-.672 1.807z" fill="url(#c)" fill-rule="nonzero" transform="translate(25 72)"/>
		<path d="M34.012 148.331a952.566 952.566 0 0 1 4.818-12.224c1.583-3.935 3.208-7.911 4.861-11.888a874.807 874.807 0 0 1 5.085-11.972 847.12 847.12 0 0 1 5.393-12.168 659.128 659.128 0 0 1 7.579-16.145 497.255 497.255 0 0 1 3.586-7.239c.07-.126.126-.252.196-.378l-8.923-17.629c-.14.238-.295.476-.435.714a408.797 408.797 0 0 0-6.177 10.418 371.598 371.598 0 0 0-6.038 10.936 333.778 333.778 0 0 0-4.86 9.451c-.323.644-.63 1.288-.939 1.919a267.69 267.69 0 0 0-5.295 11.594 227.453 227.453 0 0 0-4.777 12.056 216.75 216.75 0 0 0-2.507 7.267 192.437 192.437 0 0 0-1.78 5.965 193.461 193.461 0 0 0-3.431 13.974l8.965 17.699c1.19-3.165 2.395-6.385 3.656-9.634.322-.896.672-1.806 1.023-2.716z" fill="url(#d)" fill-rule="nonzero" transform="translate(25 72)"/>
		<path d="M20.214 143.612c-1.121 5.671-1.933 11.314-2.326 16.915l-.042.588c-2.801-4.48-10.296-8.863-10.282-8.821 5.365 7.77 9.442 15.5 10.044 23.075-2.872.589-6.808-.266-11.36-1.932 4.748 4.355 8.306 5.56 9.693 5.881-4.356.266-8.895 3.263-13.462 6.707 6.682-2.73 12.09-3.808 15.956-2.926C12.299 200.462 6.15 219.63 0 239.976c1.891-.56 3.012-1.82 3.642-3.542 1.093-3.683 8.377-27.865 19.78-59.636.322-.91.644-1.807.98-2.73.098-.253.182-.505.28-.757a1281.24 1281.24 0 0 1 3.74-10.208c.295-.784.589-1.582.883-2.38 0-.014.014-.028.014-.042l-8.965-17.699c-.056.21-.098.42-.14.63z" fill="url(#e)" fill-rule="nonzero" transform="translate(25 72)"/>
		<path d="M66.902 77.815c-.252.518-.518 1.05-.77 1.582-.77 1.597-1.555 3.221-2.353 4.887a537.431 537.431 0 0 0-2.592 5.517c-.434.952-.882 1.905-1.33 2.87a764.317 764.317 0 0 0-4.063 8.99 846.597 846.597 0 0 0-5.155 11.86 778.746 778.746 0 0 0-5.057 12.154c-1.625 3.977-3.264 8.08-4.93 12.308a830.066 830.066 0 0 0-4.483 11.636c-.07.196-.14.392-.224.574a1335.203 1335.203 0 0 0-4.539 12.182c-.028.098-.07.196-.098.28l7.228-.798c-.14-.028-.28-.042-.434-.07 8.629-1.078 20.115-7.52 27.526-15.486 3.418-3.669 6.514-7.996 9.385-13.065 2.13-3.766 4.147-7.953 6.052-12.574 1.667-4.046 3.264-8.415 4.818-13.162-1.989 1.05-4.258 1.806-6.765 2.339-.435.098-.883.182-1.345.266-.449.084-.91.154-1.387.224 0 0 .014 0 .014-.014 8.055-3.095 13.126-9.074 16.824-16.397-2.116 1.442-5.562 3.332-9.694 4.243-.56.126-1.135.224-1.723.308-.14.014-.294.042-.434.07h.028c2.787-1.163 5.155-2.479 7.2-4.019.434-.336.868-.672 1.275-1.022a20.498 20.498 0 0 0 1.779-1.708c.364-.379.714-.77 1.05-1.177a28.783 28.783 0 0 0 2.886-4.144c.266-.518.518-1.023.77-1.513 1.121-2.254 2.032-4.27 2.746-6.049.364-.882.672-1.708.939-2.464.112-.308.21-.602.308-.882.28-.854.518-1.61.7-2.269.28-.994.434-1.778.532-2.352-.266.21-.588.434-.938.644-2.423 1.456-6.598 2.773-9.96 3.389l6.626-.728-6.626.728c-.056.014-.098.014-.154.028l-1.008.168.168-.084-22.68 2.478c-.027.084-.07.168-.112.252z" fill="url(#f)" fill-rule="nonzero" transform="translate(25 72)"/>
		<path d="M92.44 31.986A328.23 328.23 0 0 0 85.462 43.2a405.612 405.612 0 0 0-6.5 11.37A445.18 445.18 0 0 0 72.8 66.11a574.942 574.942 0 0 0-5.757 11.44l22.679-2.478c6.611-3.039 9.567-5.783 12.425-9.76.756-1.092 1.527-2.24 2.283-3.43 2.325-3.641 4.609-7.646 6.654-11.622 1.975-3.837 3.712-7.66 5.043-11.09.854-2.185 1.527-4.215 2.003-5.993.406-1.568.742-3.067.995-4.495-8.826 1.512-19.654 2.955-26.686 3.305z" fill="url(#g)" fill-rule="nonzero" transform="translate(25 72)"/>
		<path d="M614.01 142.142c1.262 1.26 1.892 2.786 1.892 4.565 0 1.778-.63 3.304-1.891 4.578-1.26 1.275-2.802 1.919-4.595 1.919-1.807 0-3.334-.63-4.58-1.89-1.247-1.26-1.878-2.787-1.878-4.565 0-1.779.63-3.305 1.892-4.58 1.26-1.273 2.787-1.917 4.58-1.917 1.793 0 3.32.63 4.58 1.89zm-.545 8.611c1.106-1.12 1.652-2.464 1.652-4.032 0-1.569-.546-2.899-1.638-4.005-1.093-1.106-2.438-1.666-4.02-1.666-1.584 0-2.928.56-4.035 1.666-1.093 1.12-1.653 2.464-1.653 4.033 0 1.568.546 2.912 1.625 4.018 1.093 1.107 2.423 1.667 4.006 1.667 1.583 0 2.956-.56 4.063-1.68zm-.911-5.279c0 1.163-.504 1.89-1.527 2.185l1.863 2.52h-1.499l-1.68-2.338h-1.542v2.338h-1.218v-7h2.633c1.065 0 1.821.181 2.284.545.462.364.686.952.686 1.75zm-1.555.98c.238-.195.364-.531.364-.994 0-.462-.126-.784-.378-.952-.252-.182-.686-.266-1.33-.266h-1.486v2.52h1.457c.673 0 1.121-.097 1.373-.307z" fill="#6D6E71" fill-rule="nonzero"/>
	</g>
</svg>