<?xml version="1.0" ?>
<svg xmlns="http://www.w3.org/2000/svg" xmlns:xlink="http://www.w3.org/1999/xlink" viewBox="0 0 54 54">
	<defs>
		<path d="M 0.0,0.0 L 51.142,0.0 L 51.142,53.378 L 0.0,53.378 L 0.0,0.0" transform="translate(0 .331)" id="a"/>
		<path d="M 0.0,53.942 L 220.0,53.942 L 220.0,0.0 L 0.0,0.0 L 0.0,53.942" transform="translate(0 1.058)" id="b"/>
		<clipPath id="c">
			<use xlink:href="#a" width="100%" height="100%"/>
		</clipPath>
	</defs>
	<path d="M 1.429,0.31 L 52.57,0.31 L 52.57,53.69 L 1.43,53.69 L 1.429,0.31" fill="none"/>
	<g clip-path="url(#c)" transform="translate(1.429 -.02)">
		<path d="M 33.562,53.71 L 33.562,40.566 L 25.91,40.566 C 18.562,40.566 12.857,34.816 12.857,27.014 C 12.857,19.107 18.646,13.474 25.703,13.474 C 32.76,13.474 38.357,18.121 38.357,26.233 L 38.357,53.71 L 51.142,53.71 L 51.142,25.858 C 51.142,10.455 40.688,0.33 25.703,0.33 C 10.623,0.331 0.0,12.023 0.0,27.014 C 0.0,42.322 10.44,53.71 24.362,53.71 L 33.562,53.71" fill="#003669"/>
	</g>
</svg>