<?xml version="1.0" ?>
<svg xmlns="http://www.w3.org/2000/svg" viewBox="0 0 118 35" fill="none">
	<path fill-rule="evenodd" clip-rule="evenodd" d="M31.4738 25.8243C31.4738 29.3598 28.6078 32.2258 25.0723 32.2258H14.1974C10.662 32.2258 7.7959 29.3598 7.7959 25.8243V15.1552C7.7959 11.6197 10.662 8.75372 14.1974 8.75372H25.0723C28.6078 8.75372 31.4738 11.6197 31.4738 15.1552V25.8243Z" fill="#235CF3"/>
	<path fill-rule="evenodd" clip-rule="evenodd" d="M23.6779 17.8239C23.6779 21.3584 20.8127 24.2236 17.2782 24.2236H6.39972C2.86525 24.2236 0 21.3584 0 17.8239V7.15119C0 3.61672 2.86525 0.751465 6.39972 0.751465H17.2782C20.8127 0.751465 23.6779 3.61671 23.6779 7.15119V17.8239Z" fill="url(#paint0_linear_7900_10)"/>
	<path d="M53.2035 13.361V28.5H48.605L48.7543 26.2306C47.6595 27.9426 46.0371 28.7986 43.8872 28.7986C42.5335 28.7986 41.3789 28.49 40.4234 27.8729C39.4679 27.2558 38.7413 26.3998 38.2436 25.305C37.746 24.2101 37.4971 22.956 37.4971 21.5426C37.4971 19.8506 37.8455 18.3675 38.5422 17.0935C39.239 15.8195 40.1746 14.8341 41.3491 14.1374C42.5235 13.4207 43.8374 13.0624 45.2906 13.0624C46.2461 13.0624 47.0921 13.2615 47.8287 13.6596C48.5652 14.0378 49.1326 14.5454 49.5307 15.1825L49.9189 13.361H53.2035ZM45.7385 17.0338C44.6436 17.0338 43.7777 17.4419 43.1407 18.258C42.5235 19.0742 42.215 20.1193 42.215 21.3933C42.215 22.4882 42.4539 23.3342 42.9316 23.9314C43.4293 24.5286 44.0962 24.8272 44.9323 24.8272C45.9475 24.8272 46.8134 24.4092 47.5301 23.5731C48.2666 22.737 48.6349 21.6422 48.6349 20.2885C48.6349 19.2733 48.3761 18.477 47.8585 17.8997C47.341 17.3224 46.6343 17.0338 45.7385 17.0338ZM55.836 34.472V13.3013H60.4345L60.2852 15.6303C61.38 13.9184 63.0024 13.0624 65.1524 13.0624C66.506 13.0624 67.6606 13.3709 68.6161 13.9881C69.5716 14.6052 70.2982 15.4611 70.7959 16.556C71.2936 17.6509 71.5424 18.905 71.5424 20.3184C71.5424 22.0104 71.194 23.4935 70.4973 24.7675C69.8006 26.0415 68.8649 27.0369 67.6905 27.7535C66.516 28.4502 65.2021 28.7986 63.7489 28.7986C63.0522 28.7986 62.4152 28.6991 61.8379 28.5C61.2805 28.3009 60.7828 28.0222 60.3449 27.6639L60.4046 28.5V34.472H55.836ZM63.2712 24.8272C64.366 24.8272 65.232 24.4191 65.869 23.603C66.506 22.7669 66.8245 21.7118 66.8245 20.4378C66.8245 19.3628 66.5757 18.5268 66.078 17.9296C65.6003 17.3324 64.9433 17.0338 64.1073 17.0338C63.092 17.0338 62.2161 17.4518 61.4796 18.2879C60.7629 19.124 60.4046 20.2188 60.4046 21.5725C60.4046 22.5678 60.6634 23.3641 61.181 23.9613C61.6986 24.5386 62.3953 24.8272 63.2712 24.8272ZM73.3986 34.472V13.3013H77.997L77.8477 15.6303C78.9426 13.9184 80.565 13.0624 82.7149 13.0624C84.0686 13.0624 85.2232 13.3709 86.1787 13.9881C87.1342 14.6052 87.8608 15.4611 88.3585 16.556C88.8561 17.6509 89.105 18.905 89.105 20.3184C89.105 22.0104 88.7566 23.4935 88.0599 24.7675C87.3631 26.0415 86.4275 27.0369 85.253 27.7535C84.0785 28.4502 82.7647 28.7986 81.3115 28.7986C80.6148 28.7986 79.9778 28.6991 79.4005 28.5C78.8431 28.3009 78.3454 28.0222 77.9075 27.6639L77.9672 28.5V34.472H73.3986ZM80.8337 24.8272C81.9286 24.8272 82.7945 24.4191 83.4316 23.603C84.0686 22.7669 84.3871 21.7118 84.3871 20.4378C84.3871 19.3628 84.1382 18.5268 83.6406 17.9296C83.1628 17.3324 82.5059 17.0338 81.6698 17.0338C80.6546 17.0338 79.7787 17.4518 79.0421 18.2879C78.3255 19.124 77.9672 20.2188 77.9672 21.5725C77.9672 22.5678 78.226 23.3641 78.7435 23.9613C79.2611 24.5386 79.9579 24.8272 80.8337 24.8272ZM98.456 28.7986C96.764 28.7986 95.3008 28.49 94.0666 27.8729C92.8324 27.2359 91.8769 26.3501 91.2001 25.2154C90.5232 24.0608 90.1848 22.6972 90.1848 21.1246C90.1848 19.5321 90.5232 18.1286 91.2001 16.9143C91.8968 15.7 92.8224 14.7545 93.977 14.0776C95.1515 13.4008 96.4753 13.0624 97.9484 13.0624C99.6206 13.0624 100.984 13.4406 102.039 14.1971C103.094 14.9535 103.821 16.0285 104.219 17.4219C104.637 18.7955 104.727 20.398 104.488 22.2294H94.843C94.9624 22.9859 95.3605 23.6229 96.0374 24.1404C96.7142 24.6381 97.6399 24.8869 98.8143 24.8869C99.3518 24.8869 99.9192 24.7775 100.516 24.5585C101.114 24.3196 101.621 23.9712 102.039 23.5134L104.577 26.2008C103.921 26.997 103.104 27.6341 102.129 28.1118C101.173 28.5697 99.949 28.7986 98.456 28.7986ZM98.038 16.3768C97.2417 16.3768 96.5649 16.6157 96.0075 17.0935C95.47 17.5712 95.1117 18.2381 94.9326 19.0941H100.636C100.656 18.1585 100.427 17.4717 99.949 17.0338C99.4912 16.5958 98.8542 16.3768 98.038 16.3768ZM116.816 17.7205C116.418 17.5613 115.881 17.4817 115.204 17.4817C114.169 17.4817 113.343 17.8499 112.725 18.5865C112.108 19.3031 111.66 20.4776 111.382 22.11C111.103 23.7224 110.964 25.8524 110.964 28.5H106.425V18.6462L106.365 13.3013H110.934L110.725 17.0935C111.262 15.6403 111.979 14.6052 112.875 13.9881C113.79 13.3709 114.766 13.0624 115.801 13.0624C116.139 13.0624 116.448 13.0823 116.727 13.1221C117.025 13.1619 117.324 13.2316 117.622 13.3311L116.816 17.7205Z" fill="#235CF3"/>
	<defs>
		<linearGradient id="paint0_linear_7900_10" x1="0" y1="0.751465" x2="23.4713" y2="24.4285" gradientUnits="userSpaceOnUse">
			<stop stop-color="#F9623E"/>
			<stop offset="1" stop-color="#FFA14D"/>
		</linearGradient>
	</defs>
</svg>