<?xml version="1.0" encoding="UTF-8"?>
<svg version="1.1" id="layer" xmlns="http://www.w3.org/2000/svg" viewBox="0 0 623.6 264.8">
    <style type="text/css">
    .st0 {
        fill-rule: evenodd;
        clip-rule: evenodd;
        fill: #B05726;
    }

    .st1 {
        fill-rule: evenodd;
        clip-rule: evenodd;
        fill: #009F4E;
    }

    .st2 {
        fill-rule: evenodd;
        clip-rule: evenodd;
        fill: #E31837;
    }
    </style>
    <g>
        <g>
            <path class="st0" d="M515.6,109.6c1.3,0.2,11.5-8.1,30.7-25.4l7.4-6.4v-1.7c0-0.8-11.4-6.8-14-6.4c-1.1,0-8.9,9.3-23.5,27.8    l-5.7,7C508.8,106.7,510.3,108.6,515.6,109.6" />
            <path class="st1" d="M506.2,104.3V87.8c0-20.4-26.5-50.7-48.6-51.1c-3.4,8.5-3,29.1,1.9,38.2C468.5,91.4,484.2,101.1,506.2,104.3" />
            <path class="st2" d="M546.5,264.7c41.8,2.1,92-58.7,73-110.5c-19.3-52.8-67-52.4-88.6-45.6c-14.4,4.5-26.5,13.2-36.3,25.7    c-1.9,2.5-6.2,0.4-4-2.3c5.1-6.4,11-14.8,13.6-19.9c-4.4-3.8-32.7-13.8-57.3,7c-24.6,21.2-30.5,49.4-18.2,84.4    c8.7,24.2,29.3,53.4,51.1,58.7c7.4,1.9,15.3,3.4,22.9,0.6l4.7-1.9c6.4-2.1,13.2-2.3,19.9-0.8l9.5,2.7    C541.5,264,544.9,264.7,546.5,264.7" />
        </g>
        <g>
            <path d="M386.8,250.2c-0.4-0.4-0.6-0.8-0.8-1.1c-1-1.1-2.8-1.7-5.3-1.7c-0.2,0-1.1,0.4-1.9,0.6c-1.2,0.6-1.9,0.8-2.5,0.8    c-2.3,0-4.6-0.2-5.9-1.3c-1.5-0.7-2.8-2.6-4.5-5.1L351.3,222l-11.8-16.3l11.7-11l4.7-4.8c2.1-2.5,4-4,5.5-5.1    c1.7-0.7,3.2-1.3,5.1-1.3c0.6,0,1.1,0.2,1.9,0.8c0.8,0.2,1.3,0.6,1.7,0.6c3.4,0,6.1-0.4,7.4-1.3c1.3-0.9,1.9-2.4,1.9-4.9    c0-2-0.2-3.4-1.3-4.5c-1.2-0.7-3-1.3-5.5-1.3c0,0-2.4,0.4-6.8,0.8c-4.4,0.4-8.7,0.6-12.7,0.6h-1.9c-3.4,0-6.5-0.2-9.9-0.7    c-3.8-0.4-5.9-0.8-5.9-0.8c-2.2,0-3.8,0.6-4.9,1.7c-1.3,0.9-1.9,2.6-1.9,4.5c0,1.9,0.6,3.4,1.7,4.5c0.9,1.1,2.8,1.3,4.7,1.3    c1,0,1.9-0.2,3.8-0.6c1.7-0.6,3-0.8,3.8-0.8c1.1,0,1.5,0.2,1.9,0.2c0.2,0.4,0.2,0.6,0.2,0.8c0,1,0,1.5-0.6,1.9    c-0.2,0.6-0.7,1.4-1.5,2.5L317,214.2v-64.7c0-3.2-0.1-5.4-0.9-6.2c-0.9-0.9-2.4-1.5-4.9-1.5c-0.2,0-0.7,0-1.5,0.2    c-2.1,0.3-4.2,0.9-6.1,1.1c-2.1,0.1-3.9,0.1-5.8,0.2c-1.5,0-3.4-0.4-5.1-0.6c-1.9-0.6-2.6-0.8-2.8-0.8c-1.9,0-3.8,0.6-4.9,1.5    c-0.9,1-1.5,2.5-1.5,4.2s0.5,3.2,1.3,4c0.8,0.7,2.1,1.3,4.2,1.3h6.2c3.2,0,5.7,0.8,6.8,2.5c0.7,1.1,1.2,3.2,1.6,6.7c0,0,0,0,0,0    c0,0,0,0,0,0v0.7c0,1.8,0.2,3.8,0.2,6.1v67.4c0,1.7-0.2,3.4-0.2,4.7v0.8c-0.4,2.4-0.8,4.1-1.6,4.9c-1.1,1.4-3.7,1.9-6.4,2.3    c-3,0.6-5.5,0.2-8.7,0c-3.6-0.4-5.9-0.6-6.8-1.9c-1.1-1.3-1.7-4.9-1.7-10.8v-27.4c0-12.5-2.5-21.9-7.8-27.6    c-3.1-3.2-7.5-5.4-12.9-6.9v-0.1c-3.6-0.8-7.6-1.3-12.1-1.5c-6.3,0.2-11.6,1.1-16.1,3.2c-4.4,2.5-8.7,6.1-12.7,11.2v-5.7    c0-3.4-0.5-5.9-1.3-7c-0.6-0.7-1.4-1.1-2.3-1.3v0.1c-0.7-0.2-1.3-0.2-2.3,0c0,0-0.5,0.2-1.3,0.2c-3.8,0.7-7.6,1.1-11.2,1.1    c-1.3,0-2.8-0.4-4.7-0.6c-1.5-0.6-2.4-0.8-3-0.8c-2.1,0-4,0.4-5.1,1.5c-1.3,1.2-1.9,2.5-1.9,4.4c0,1.9,0.6,3,1.5,3.8    c0.9,0.7,2.6,0.9,5.1,0.9h5.3c3.2,0,5.3,1.2,6.6,2.7c1.1,1.7,1.9,4.9,1.9,9.8v41.4c0,5-0.8,8.2-1.9,9.5    c-5.1,5.8-19.9,3.6-22.5,1.3c-1.5-1.4-0.9-3.8-0.9-7.8v-39c0-2.6-0.3-5-0.7-7.2v-0.7c-0.9-6.1-3-10.8-6.2-14    c-4.5-4.5-12.3-6.6-22.9-6.6c-1.5,0-3,0-4.5,0.2c-6.1,0.2-11.7,1.5-16.2,3.2v0.1c-1.3,0.8-2.9,1.6-4,2.4    c-6.3,3.9-9.5,9.1-9.5,15.3c0,3.4,1.2,6.4,2.7,8.3c1.9,1.9,4.4,2.8,7.6,2.8c1.1,0,2.3,0,3.2-0.2v-0.1c1.3-0.4,2.3-1,3.2-1.9    c1.6-1.3,2.5-3.2,2.5-5.1c0-1.5-0.6-3.2-2.3-4.5c-1.3-1.5-1.9-2.4-1.9-3c0-1.5,1.9-3.2,5.1-4.5c3.1-1.2,6.2-2,9.6-2.2    c0.9,0,1.9-0.2,3-0.2c5.9,0,10.2,1.5,13.4,3.8c3.2,2.3,4.7,5.7,4.7,9.6c0,5.5-5.1,9.3-15.3,11.9c-1.7,0.4-3.8,0.8-5.9,1.1    c-1.1,0.2-2.6,0.4-4,0.4c-0.8,0.4-1.7,0.4-2.5,0.6c-3.6,0.6-6.8,1.1-9.7,1.9v0.1c-5.2,1.5-9.4,3.4-12.1,5.8    c-4.3,4.2-6.4,9.7-6.4,17c0,8.3,2.3,14.4,7.4,18.7c3,2.7,6.7,4.4,11.2,5.6v0.1c3,0.6,6.2,0.9,10,0.9c2.1,0,4.2,0,6.1-0.4v0    c4.2-0.6,7.8-1.5,11.3-3c5.1-2.1,9.3-5.1,12.5-9.5c0.6,4,1.9,7.4,4.4,9.5c1.5,1.3,3.4,2.1,5.5,2.7v-0.1c1.5,0.4,3.1,0.6,4.8,0.6    c2.5-0.4,4.6-0.4,7.4-1.3c0,0,3.2-0.4,7.4-0.6c4.3-0.6,8.1-0.6,11.9-0.6h3.6v-0.1c3,0,6.2,0.2,9.8,0.6c4.5,0.2,7,0.6,7.2,0.6    c2,0,3.8-0.4,4.7-1.5c1.1-1,1.7-2.7,1.7-4.2c0-2.4-0.8-4.1-1.9-4.9c-1.1-1.1-2.6-1.5-5.1-1.5c-0.7,0-2.1,0.2-3.4,0.6    c-1.3,0.6-2.2,0.8-2.8,0.8c-2.2,0-3.6-0.8-4.5-2.1c-0.7-1.5-1.3-4.1-1.3-7.9v-17.4c0-13.1,2.2-22.5,6.2-28.6    c4-6.1,10.4-9.3,19.3-9.3c6.2,0,11,1.4,14.4,4v0.1c1,0.8,1.7,1.5,2.3,2.3c3.6,4.4,5.1,11.6,5.1,21.8v24.8c0,5.3-0.5,8.7-1.3,10    c-0.5,1.4-2,2.3-4.5,2.3c-0.4,0-0.7-0.2-1.4-0.4v-0.1c-0.4-0.2-0.8-0.4-1.1-0.6c-1.7-0.2-2.7-0.4-3.8-0.4c-2.1,0-4,0.4-5.1,1.5    c-1.1,0.8-1.5,2.5-1.5,4.9c0,1.5,0.4,3.2,1.5,4.2c1.1,1.1,2.6,1.5,4.5,1.5c0.2,0,2.3-0.4,5.4-0.6v0.2h2.1    c4.6-0.6,8.9-0.6,13.1-0.6h30.9v-0.1h6.9c3.8,0,8.9,0.1,16.1,0.9c1.9,0,3.3-0.2,4.2-1.3c0.7-0.7,1.3-2.4,1.3-4.5    c0-2-0.5-3.7-1.3-4.5c-1.2-1.1-2.5-1.7-4.4-1.7c-0.4,0-0.8,0.4-1.7,0.6c-0.7,0.6-1.3,0.8-1.5,0.8c-2.4,0-4-0.8-4.9-2.1    c-0.7-1.5-1.3-5.1-1.3-10.4v-9.5l13.3-12.5l20.9,28.4l1.1,1.5c0,0,0.4,0.3,0.6,0.9c0.2,0.7,0.6,0.9,0.6,1.5c0,0.8-0.4,1.3-0.6,1.7    c-0.4,0.2-0.9,0.4-1.7,0.4h-0.9c-0.2,0-0.2,0-0.6-0.2c-0.8-0.8-1.5-1.1-2.7-1.1c-2.7,0-4.4,0.6-5.3,1.7c-1.1,0.8-1.7,2.7-1.7,5.1    c0,2.1,0.6,3.2,1.1,4.2c0.8,0.9,2.5,1.1,4.4,1.1c1.9-0.2,4-0.3,5.7-0.5c3.9-0.4,7.1-0.6,9.6-0.6c4.3,0,8.8,0,13.2,0.6    c4.5,0.4,6.6,0.6,7,0.6c2.5,0,4-0.2,5.1-1.1c0.2-0.2,0.4-0.4,0.6-0.6v-0.1c0.5-0.9,0.9-1.9,0.9-3.6s-0.1-3.1-0.9-4.2V250.2z     M166.7,228.3c0,6.4-2.5,11.7-7.6,15.9c-4,3-8.7,4.7-14.8,5.5v0.1c-1.9,0.2-3.9,0.4-6,0.4c-3.7,0-7-0.9-9.8-2.6v-0.1h-0.2    c-0.6-0.4-1.1-0.8-1.5-1.1c-3.2-2.5-4.5-5.5-4.5-9.3c0-4.7,1.3-8.1,4.2-10.2c0.6-0.6,1.1-0.9,1.9-1.3v0c3.2-1.7,8.3-3,15-3.8h0.2    c0.4-0.2,0.6-0.2,0.8-0.2c2.2-0.4,4.3-0.8,6.2-1.2c7.9-1.5,13.4-3.6,16.1-5.7V228.3z" />
            <path d="M257.8,118.1c-0.2,0-0.4-0.1-0.5-0.1l0.3,0.1C257.7,118.1,257.7,118.1,257.8,118.1z" />
            <path d="M256.7,117.8C256.7,117.8,256.6,117.8,256.7,117.8c-0.1,0-0.2,0-0.3-0.1L256.7,117.8z" />
            <path d="M209.2,40.7c0.6,0.7,2,1.3,3.7,1.3h0.4h6.1c3.4,0,5.9,0.8,7.2,2.7c1.3,1.7,2.1,6.1,2.1,12.9v68.1c0,5.7-0.6,9.3-1.5,10.6    c-1.3,1.3-3.6,1.9-6.8,1.9c-0.4,0-1.4-0.4-2.3-0.6c-1.1-0.6-1.9-0.6-2.8-0.6c-0.8,0-1.3,0-1.9,0.2c-1.3,0.2-2.6,0.6-3.6,1.3    c-1.1,1.1-1.7,2.8-1.7,4.9c0,2.1,0.5,3.5,1.3,4.4c1,0.5,2.3,1.1,4,1.1c0.3,0.2,0.7,0.2,1.1,0.2c0.6,0,3-0.3,6.8-0.9    c3.6-0.2,7.2-0.4,10.4-0.4c5.3,0,13.7,0.2,25.2,1.3c0.3,0,0.5-0.2,0.9-0.2v0c0,0-0.1,0-0.1,0v0c1.6-0.1,3.3-0.6,4.2-1.6    c1.3-1.1,1.9-2.4,1.9-4.3c0-2-0.6-3.8-1.9-4.7c-1-0.9-2.4-1.3-4.2-1.3v0h-1c-1.2,0-2.5,0-4.2,0.4c-1.5,0.4-2.6,0.6-3.4,0.6    c-2.7,0-4.5-0.8-5.3-2.3c-1.1-1.7-1.7-4.9-1.7-10V110c3.6,3.2,7.1,5.3,11.5,6.8c1,0.3,2,0.8,3,1c3.1,0.7,7.2,1.4,10.5,1.4    c3.6,0,7-0.5,10.6-1.1c7.2-1.9,13.5-5.3,18.4-10.8c3.2-3.4,5.7-7.1,7.6-11.5c2.3-5.9,3.6-12.5,3.6-20.1c0-7.9-1.3-14.9-3.6-21    c-1.7-4.4-4-8.1-7-11.5c-6.8-8.1-16.3-12.1-27.8-12.1c-4,0-7.8,0.5-11.2,1.3c-1.5,0.3-3,0.9-4.3,1.4c-4.4,1.9-8.2,4.9-11,8.9v-1.5    c0-4.3-0.3-7-1.1-8.5c-0.7-0.9-2-1.5-4.5-1.5c-0.6,0-2.6,0.2-6.8,0.6c-4,0.6-7.8,0.8-11.2,0.8c-0.6,0-1.4-0.2-2.7-0.8    c-1.1-0.2-2-0.6-2.8-0.6h-0.2c-1.3,0-2.8,0.4-3.7,1.3c-0.7,1.2-1.3,2.5-1.3,4.4C208.1,38.8,208.4,40.1,209.2,40.7z M242.2,68.4    c0-7.6,2.1-13.7,6.6-18.2c2.5-2.7,5.5-4.6,8.9-5.7c2.6-0.7,5.3-1.3,8.3-1.3c7.9,0,14.4,3,19.3,8.9c4.5,5.7,7,13.7,7,23.7    s-2.5,18.1-7,23.8c-3.3,3.8-6.9,6.5-11.4,7.8c-2.7,0.6-5.2,0.8-8,0.8c-2.9,0-5.7-0.1-8.1-0.8c0.1,0-0.1,0,0,0v-0.1    c-3.8-1-6.9-2.8-9.5-5.5c-4-4.1-6.1-10.4-6.1-18.3V68.4z" />
            <path d="M257.8,137L257.8,137C257.7,137,257.8,137,257.8,137L257.8,137z" />
            <path d="M301.4,9.7c0.4,0.5,1.5,0.9,2.6,1.1l0,0c0.5,0.2,1,0.2,1.8,0.2h6.2c3.2,0,5.7,0.9,6.6,2.5c1.1,1.7,1.9,6.4,1.9,13.6v67.7    c0,5.5-0.6,9.1-1.5,10.4c-1.1,1.5-3.2,2.5-6.8,2.5c-0.4,0-1.3-0.4-2.3-0.9c-1.1-0.6-1.9-0.8-2.5-0.8c-1.5,0-2.6,0.2-3.6,0.6    c-0.8,0.4-1.4,0.7-2,1.2c-1.3,0.8-1.9,2.7-1.9,4.9c0,1.7,0.6,3.2,1.7,4.2c0.6,0.4,1.2,1,2.2,1.1c0.9,0.2,2.1,0.4,3.2,0.4    c0.4,0,1.3-0.2,2.8-0.2c6.4-0.9,12.9-1.1,19.3-1.1c3.2,0,6.8,0.2,11,0.6c4.2,0.6,6.6,0.8,7.2,0.8c1.5,0,2.7-0.2,3.9-0.6    c0.5-0.2,0.9-0.7,1.3-1c1.1-0.8,1.7-2.5,1.7-4.4c0-2.1-0.6-4-1.9-4.7l-1.1-1.1c-1.1-0.6-2.7-0.8-4.5-0.8c-0.2,0-0.9,0.2-2.1,0.8    c-0.8,0.6-1.7,0.9-2.5,0.9c-3.4,0-5.7-0.9-6.6-2.5c-1.1-1.3-1.7-4.9-1.7-10.6V7.8c0-3.2-0.2-5.3-0.9-6.1C331.8,0.6,330.4,0,328,0    c0,0-0.8,0.4-1.7,0.4c-4,0.8-7.8,0.9-11.7,0.9c-1.5,0-3.4,0-5.1-0.4c-0.8-0.2-1.4-0.4-1.9-0.6c-1-0.3-2-0.3-2.9,0    c-0.1,0-0.3,0.1-0.4,0.2l0,0c-0.8,0.2-1.8,0.7-2.4,1.4c-1.1,0.7-1.7,2.4-1.7,4.3C300.1,7.6,300.6,9.3,301.4,9.7z" />
            <path d="M84.3,194.6c5.8-1.3,10.6-3.9,13.8-7.9s4.9-9.4,4.9-15.5c0-10-3.2-17.2-9.6-22.1c-5.8-4.4-13.6-6.6-24-7.2    c-1.7-0.2-3.4-0.2-5.2-0.1c-3.4,0-9,0.2-16.8,0.8c-7.8,0.4-13.6,0.6-17.8,0.6c-3.8,0-8.4-0.2-13.1-0.6c-5.1-0.6-8.2-0.8-9.1-0.8    c-2.5,0-4.4,0.6-5.5,1.9c-1,1.1-1.9,3-1.9,5.3c0,1.8,1,3.6,1.9,4.5c1.1,1.1,2.8,1.9,4.9,1.9c0.6,0,2.1-0.2,4.2-0.8    c2.5-0.6,4.4-0.6,6.1-0.6c2.8,0,5.1,0.7,6.6,2.6c1.3,1.8,2.1,4.4,2.1,8v70.2c0,4.9-0.4,7.9-1.9,9.8c-1.5,1.7-4,2.8-7.4,2.8    c-1.3,0-3-0.3-5.1-0.9c-2.4-0.2-3.7-0.4-4.5-0.4c-2.1,0-3.8,0.4-4.9,1.5c-1,1.1-1.9,2.6-1.9,4.5c0,2.5,1,4.4,1.9,5.7    c1.1,1.1,3,1.7,5.5,1.7c0.8,0,3.6-0.4,9.1-0.6c5.3-0.6,10.4-0.6,15.3-0.6c4.1,0,9.8,0,17,0.6c7.4,0.2,12.5,0.4,15.3,0.4h5.2v0.1    c11.8-0.7,20.7-3.6,27.4-8.9c7.7-5.9,11.9-14.2,11.9-25c0-8-2.2-14.4-6.4-19.7C97.9,200.3,92.1,196.5,84.3,194.6z M41,163.5    c0-3.8,1.1-6.5,3.2-7.6c1.9-1.3,7-1.9,14.8-1.9c4,0,7.4,0.2,10.4,0.6c5.3,0.5,9.3,1.5,12.1,3.2c4.5,2.7,7,6.8,7,12.7    c0,4.3-1.4,8.3-4,11.7c-2.6,3.6-6,5.9-10.2,6.8c0,0-6.6,1.5-13.6,1.5h-7.8c-4.2,0-7.4-0.5-9.1-1.3c-1.9-0.8-2.8-1.9-2.8-3.8V163.5    z M86.4,241.6c-4.1,3.2-9.5,5.1-16.9,5.7c0,0-2,0.1-5.9,0.1c-9.7,0-15.7-0.8-18.4-2.3c-2.9-1.5-4.2-4.8-4.2-9.3v-24.4    c0-4.1,1.1-7,3-8.3c2.1-1,7-1.9,14.8-1.9h4.5c2.1,0.2,4.2,0.4,6.1,0.6v0.1c7,0.9,12.5,2.6,16.3,5.1c5.6,3.4,8.3,9.5,8.3,17.4    C94,232.1,91.5,237.8,86.4,241.6z" />
            <path d="M3,116.4c1.3,1.1,3.2,1.9,5.3,1.9c0,0,3.3-0.2,9.7-0.8c6.2-0.4,12.7-0.6,19.1-0.6c3.4,0,7.2,0.2,11.2,0.6    c4.4,0.6,6.8,0.8,7.4,0.8c2.5,0,4-0.8,5.3-1.9c1.1-1.1,1.7-2.6,1.7-5.1c0-2-0.6-3.8-1.7-4.7c-1.3-1.1-3.2-1.7-5.7-1.7    c-0.8,0-2.1,0-4,0.6c-1.9,0.4-3.4,0.6-4.7,0.6c-1.7,0-3.1-0.2-4.2-1.1c-0.9-0.9-1.5-1.9-1.5-2.8c0-1.3,0.2-2.5,0.2-3.8    c0.3-1.3,0.5-2.5,1.1-3.6l4.5-13.4c0.6-1.5,1.3-2.8,2.1-3.6c0.9-0.9,1.9-1.5,3-1.5h34.1c1.3,0,2.5,0.6,3.6,1.7    c0.9,0.8,2.1,2.1,2.6,3.4l4.2,13.4c0.6,0.9,0.6,1.9,0.9,3c0.2,0.8,0.2,1.9,0.2,2.7c0,1.9-0.6,3.2-1.3,4.3    c-1.1,0.9-2.1,1.3-3.8,1.3c-1.1,0-2.7-0.4-4.5-0.6c-1.9-0.6-3.2-0.6-4-0.6c-2.5,0-4,0.6-5.5,1.7c-0.9,0.9-1.7,2.7-1.7,4.7    c0,2.5,0.8,4,1.7,5.1c1.1,1.1,2.8,1.9,4.9,1.9c0.8,0,2.8-0.4,7-0.8c3.8-0.4,7.6-0.6,10.8-0.6c7.4,0,15.5,0.2,24.4,0.9    c1.1,0,2.2,0.5,2.9,0.5c0.8,0,1.3,0.2,1.7,0.2c2.1,0,4-0.8,5.3-1.9c1.5-1.3,2.1-3,2.1-4.9c0-2.7-0.6-4.2-1.7-5.3    c-1.1-1.1-3.6-1.3-6.9-1.3c0,0,0,0,0.1,0h-0.1v0c0,0,0,0,0,0h-0.4v0.1c-0.5,0.1-1,0.2-1.3,0.4c-0.8,0.2-1.5,0.6-1.9,0.6    c-3.2,0-5.9-0.9-7.8-2.5c-1.9-1.7-3.4-4.5-4.7-8.7L82.1,10.8c-1.9-5.1-3.4-7.9-5.1-9.3c-1.9-1.3-4.2-1.3-7.4-1.3h-0.2    c-2.6,0-4.9,0-6.6,1.2c-1.5,1.3-3.2,4.1-4.7,8.5l-32,85.2c-1.9,4.2-3.6,7.2-5.3,8.9c-1.9,1.5-4.9,2.1-8.9,2.1    c-0.4,0-1.4-0.2-2.5-0.6c-1.3-0.6-2.1-0.6-3-0.6c-1.3,0-2.9,0.6-4,1.9c-1.1,1.3-1.9,3-1.9,4.9C0.5,113.6,1.3,115.1,3,116.4z     M54.6,62.5c0-0.4,0.2-1.4,0.6-2.5l14.2-42l0.8-1.9l14,43.9c0.2,0.6,0.2,1.3,0.2,1.9c0.2,0.6,0.2,1.1,0.2,1.3    c0,0.8-0.2,1.3-0.8,1.7c-0.4,0.2-1.5,0.6-3.2,0.6H58.5c-1.9,0-3-0.4-3.4-0.6c-0.5-0.4-0.9-0.5-0.9-1.3    C54.2,63.3,54.2,63.1,54.6,62.5z" />
            <path d="M120.2,40.7c0.6,0.7,1.9,1.3,3.6,1.3h6.4c3.4,0,5.9,0.8,7.2,2.7c1.3,1.7,2.1,6.3,2.1,12.9v68.1c0,5.7-0.4,9.3-1.5,10.6    c-1.3,1.3-3.6,1.9-6.6,1.9c-0.6,0-1.6-0.4-2.5-0.6c-0.2-0.2-0.4-0.2-0.6-0.2c-0.8-0.4-1.5-0.4-2-0.3c-2.5,0-4.2,0.6-5.5,1.7    c-1.1,0.9-1.5,2.6-1.5,4.7c0,2.3,0.4,3.6,1.3,4.4c0.9,0.7,2.6,1.3,4.7,1.3c0.4,0,1.5-0.2,3-0.4c1,0,2.3-0.2,3.8-0.4    c3.2-0.3,6.1-0.5,8.8-0.6c1.1,0,2.2-0.1,3.2-0.2l0.4,0c5.5,0,13.1,0.4,23.3,1.3c2.3,0,3.8-0.6,5.1-1.7c1.3-1,1.9-2.3,1.9-4.2    c0-2.2-0.6-3.8-1.9-4.9c-1.3-1.1-2.8-1.3-5.3-1.3c-1.2,0-2.5,0-4,0.6c-1.7,0.2-2.7,0.6-3.6,0.6c-2.6,0-4.5-0.8-5.3-2.5    c-1.1-1.5-1.7-4.9-1.7-10v-15.7c3.6,3.2,7.3,5.3,11.5,7c3.9,1.5,8.6,2.3,13.5,2.3v0h0.2c4.7,0,9.1-0.6,13.1-1.7    c6.2-1.9,11.4-5.3,15.5-9.8c2.6-2.7,4.7-5.7,6.4-8.9v-0.1c3.2-6.4,4.9-14,4.9-22.9c0-9.1-1.7-17.2-4.9-24c-1.5-3-3.4-5.9-5.5-8.3    c-7-7.9-16.5-12.1-28-12.1l-1.7-0.1c-5.3,0.2-10,1-13.7,2.6c-4.4,1.9-8.2,4.9-11,8.9v-1.5c0-4.3-0.3-7-1.1-8.3    c-0.7-1.1-2-1.7-4.5-1.7c-0.4,0-1.3,0.2-3.2,0.4c-1,0-2.2,0.2-3.5,0.3c-4.2,0.5-7.8,0.9-11.4,0.9c-0.4,0-0.7-0.2-1.3-0.4    c-0.4-0.2-0.8-0.4-1.3-0.6c-1.3-0.2-2.2-0.6-3-0.6c-1.5,0-2.6,0.4-3.4,1.5c-1.1,1-1.3,2.3-1.3,4.2    C119.3,38.8,119.4,40.1,120.2,40.7z M153.1,68.3c0-7.4,2.1-13.7,6.6-18.2c4.3-4.5,10-6.8,17.2-6.8h1.1c7.6,0.2,13.6,3.5,18.2,9    c4.5,5.7,7,13.6,7,23.7c0,10.2-2.5,18.2-7,23.8c-2.1,2.6-4.7,4.9-7.8,6.2c-2.8,1.3-6.3,2.1-10.3,2.3h-1.3    c-7.6,0-13.2-2.2-17.6-6.4c-4-4.3-6.1-10.6-6.1-18.5V68.3z" />
            <path d="M422.9,89.8c-1.2-0.9-2.7-1.5-4.4-1.5c-2.6,0-5.1,1.9-7,5.7c-0.9,2.7-2.1,4.6-3,5.5c-2.8,3.2-5.7,5.7-8.9,7    s-7.4,1.9-11.9,1.9h-1c-7.6-0.1-13.5-2.8-18-7.9c-4.7-5.6-7-13.2-7-22.3v-0.8h55c3.6,0,5.7-0.6,7-1.7c1.1-1.1,1.7-3.2,1.7-6.4    c0-11.7-3.6-21-10.2-27.6c-7-7-16.4-10.2-27.6-10.2h-0.8v-0.1c-11.8,0.2-21.2,4-28.1,12c-3.3,3.8-5.9,8.2-7.6,13.1v0.2    c-2,5.4-3.1,11.7-3.1,18.6c0,7.1,1.1,13.4,3.1,18.8v0.4c1.7,5.1,4.4,9.4,7.6,13.2c6.8,7.5,16.3,11.5,28,11.7h0.7    c6.4,0,12.4-1,17.3-2.9c4.7-1.7,9.1-4.5,12.5-8.7c2.3-2.5,4.2-5.2,5.5-7.8c1.3-2.6,2.1-4.7,2.1-6.6    C424.8,92.1,424,90.6,422.9,89.8z M370.5,48.6c4.2-4.1,9.5-6.2,16.3-6.4v0.1h0.5c6.9,0,12.5,2,16.7,6.4c4.5,4.3,6.8,9.8,6.8,16.8    v1.1h-48.1C363.5,59,366,53.1,370.5,48.6z" />
        </g>
    </g>
</svg>