<svg xmlns="http://www.w3.org/2000/svg" id="Layer_1" data-name="Layer 1" viewBox="0 0 1279.72 223.35"><defs><style>.cls-1{fill:#1b2644}.cls-3{fill:#5bb6e7}</style></defs><path d="M662.78 177.3a51.07 51.07 0 1 1 51.07-51.07 51.13 51.13 0 0 1-51.07 51.07Zm0-93.14a42.07 42.07 0 1 0 42.07 42.07 42.12 42.12 0 0 0-42.07-42.07ZM340.12 75a4.49 4.49 0 0 0-4.5 4.5v18.07a51.08 51.08 0 1 0 0 56.67v18.22a4.5 4.5 0 1 0 9 0v-93a4.5 4.5 0 0 0-4.5-4.46Zm-47 93a42.08 42.08 0 1 1 42.07-42.08A42.12 42.12 0 0 1 293.15 168ZM421 75.16a51.05 51.05 0 0 0-42.47 22.73V79.78a4.5 4.5 0 1 0-9 0v139a4.5 4.5 0 0 0 9 0v-64.22A51.06 51.06 0 1 0 421 75.16Zm0 93.14a42.07 42.07 0 1 1 42.07-42.07A42.11 42.11 0 0 1 421 168.3ZM541.48 75.16a51 51 0 0 0-41.72 21.66v-17a4.5 4.5 0 1 0-9 0v40.53a48.77 48.77 0 0 0 0 11.83v86.62a4.5 4.5 0 0 0 9 0v-63.17a51.06 51.06 0 1 0 41.72-80.47Zm0 93.14a42.12 42.12 0 0 1-41.72-36.71v-10.72a42.07 42.07 0 1 1 41.72 47.43ZM1153.7 126.33a52.39 52.39 0 0 0-.35-5.91V33.16a4.5 4.5 0 0 0-9 0v63.77a51.08 51.08 0 1 0 0 58.81v17a4.5 4.5 0 0 0 9 0v-40.49a52.57 52.57 0 0 0 .35-5.92Zm-51.07 42.08a42.08 42.08 0 1 1 41.72-47.41v10.72a42.14 42.14 0 0 1-41.72 36.69ZM1279.08 126.33a50.15 50.15 0 0 0-.36-5.91V33.16a4.5 4.5 0 0 0-9 0v63.77a51.08 51.08 0 1 0 0 58.81v17a4.5 4.5 0 0 0 9 0v-40.49a50.32 50.32 0 0 0 .36-5.92ZM1228 168.41a42.08 42.08 0 1 1 41.72-47.41v10.72a42.13 42.13 0 0 1-41.72 36.69ZM874.12 125.84A51.06 51.06 0 0 0 781 96.93V79.66a4.5 4.5 0 1 0-9 0v46.16l-.28 47a4.5 4.5 0 0 0 4.48 4.52 4.49 4.49 0 0 0 4.5-4.47l.28-47a42.08 42.08 0 0 1 84.15 0l.07 46.94a4.5 4.5 0 0 0 4.5 4.49 4.49 4.49 0 0 0 4.49-4.51ZM925.51 69.9h-18.37V33.16a4.5 4.5 0 1 0-9 0V69.9h-17.7a4.5 4.5 0 0 0 0 9h17.7v93.88a4.5 4.5 0 1 0 9 0V78.9h18.37a4.5 4.5 0 0 0 0-9ZM742.52 177.28a4.5 4.5 0 0 1-4.5-4.5V79.84a4.5 4.5 0 0 1 9 0v92.94a4.49 4.49 0 0 1-4.5 4.5Z" class="cls-1"/><circle cx="742.52" cy="34.27" r="5.5" class="cls-1"/><path d="M1028.57 131a5.2 5.2 0 0 0 5.19-5.19c0-1.42-.07-2.82-.19-4.21a51.07 51.07 0 1 0-50.88 55.29c17.27 0 33-9.31 42.29-22.47l2.52-3.67a4.52 4.52 0 0 0-2-6.72 4.59 4.59 0 0 0-5.54 1.74l-2 2.85A42 42 0 0 1 940.94 131h87.63Zm-87.75-9.4a42.08 42.08 0 0 1 83.73 0Z" class="cls-1"/><path d="M37.69 24.06a6 6 0 0 1-4.28-1.79l-11.2-11.39a6 6 0 0 1 8.55-8.42L42 13.85a6 6 0 0 1-4.27 10.21Z" style="fill:#1b87c9"/><path d="M108 197.54c-23.52 0-56.3-9.17-78.37-35C-4.26 123-2.27 85.67 5.37 61.31a126 126 0 0 1 24.06-43.09l-7.22-7.34a6 6 0 0 1 8.55-8.42L42 13.85a6 6 0 0 1 0 8.42A113.9 113.9 0 0 0 16.82 64.9C7 96.12 14.4 126.35 38.7 154.77c19.41 22.7 48.41 30.77 69.24 30.77h.44a69.13 69.13 0 0 0 18.32-2.4c27.24-7.67 46.18-26.59 46.37-26.78a6 6 0 0 1 8.44-.08l13.4 13a6 6 0 0 1-8.36 8.6l-9.35-9.07c-7.66 6.59-24.77 19.53-47.25 25.86a80.9 80.9 0 0 1-21.51 2.85Z" class="cls-3"/><path d="M108.8 223.67H87.36a6 6 0 1 1 0-12h15.44v-19.93a6 6 0 0 1 6-6 6 6 0 0 1 6 6v25.93a6 6 0 0 1-6 6Z" class="cls-3"/><path d="M108.63 223.64a6 6 0 0 1 0-12h21.16a6 6 0 0 1 0 12h-21.16Z" class="cls-3"/><path d="M107.52 175.5a85.86 85.86 0 1 1 85.86-85.85 86 86 0 0 1-85.86 85.85Zm0-159.71a73.86 73.86 0 1 0 73.86 73.86 73.95 73.95 0 0 0-73.86-73.86Z" class="cls-1"/><path d="M106.1 104.83a6 6 0 0 1-3.29-1L77.34 87.2a6 6 0 1 1 6.57-10l22.46 14.69 40-21.8a6 6 0 0 1 5.75 10.54L109 104.1a6 6 0 0 1-2.9.73Z" class="cls-1"/></svg>