<?xml version="1.0" ?>
<svg xmlns="http://www.w3.org/2000/svg" role="img" viewBox="0 0 147 28" fill="#420926">
	<path d="M63 7h4v2.3c.94-1.43 2.84-2.53 5.07-2.53 3.69 0 6.78 2.88 6.78 7.79s-3.18 7.79-7.1 7.79c-2.08 0-3.72-.89-4.74-2.23V28h-4V7H63zm12.04 7.57c0-2.41-1.75-4.28-4.16-4.28s-4.16 1.87-4.16 4.28 1.75 4.28 4.16 4.28 4.16-1.87 4.16-4.28zM29.75 1h3.78l8.49 21h-4.23l-2.1-5.49h-8.1L25.49 22h-4.23l8.49-21zm4.59 11.97l-1.92-5.04s-.39-1.02-.78-2.28c-.39 1.26-.78 2.28-.78 2.28l-1.92 5.04h5.4zM44 7h4v2.3c.94-1.43 2.84-2.53 5.07-2.53 3.69 0 6.78 2.88 6.78 7.79s-3.18 7.79-7.1 7.79c-2.08 0-3.72-.89-4.74-2.23V28h-4V7H44zm12.04 7.57c0-2.41-1.75-4.28-4.16-4.28s-4.16 1.87-4.16 4.28 1.75 4.28 4.16 4.28 4.16-1.87 4.16-4.28zM82 7h4v2.54c.77-1.69 2.14-2.76 4.04-2.76.48 0 .89.06 1.28.18l-.59 3.54a3.56 3.56 0 0 0-1.22-.21c-2.23 0-3.5 2.22-3.5 4.71v7h-4V7H82zm10 10.65c0-2.92 2.4-4.33 5.11-4.73l4.3-.66v-.55c0-1.39-.87-2.17-2.63-2.17-1.76 0-2.57.72-2.57 1.62 0 .12 0 .17.06.35l-3.26 1.1c-.17-.38-.26-.81-.26-1.21 0-2.22 2.19-4.39 6.03-4.39 3.84 0 6.26 1.7 6.26 5.2v5.98c0 1.65.26 2.54.95 3.55h-3.69c-.23-.29-.69-1.04-.69-2.28-1.01 1.79-2.74 2.68-4.79 2.68-2.83 0-4.82-1.76-4.82-4.47v-.02zm9.41-2.63v-.26l-3.46.58c-1.56.26-2.4.95-2.4 2.11s.87 1.73 2.14 1.73c2.11 0 3.72-1.39 3.72-4.16zM113 7h-4v15h4V7zm0-5.87h-4v3.92h4V1.13zm2.91 16.79l3-1.9c.62 1.84 1.9 3.18 3.8 3.18 1.16 0 2.32-.56 2.32-1.63 0-.98-.98-1.49-3.15-1.9-2.88-.56-5.14-1.93-5.14-4.61 0-2.68 2.62-4.28 5.5-4.28 3.21 0 4.9 1.22 6.09 3.72l-2.7 1.6c-.62-1.6-1.81-2.59-3.33-2.59-1.22 0-2.23.39-2.23 1.31s1.16 1.6 3.48 2.08c3.45.71 4.93 2.08 4.93 4.55 0 2.76-2.17 4.9-5.83 4.9s-5.77-2.14-6.75-4.43h.01zm15.35-3.35c0-4.9 3.63-7.79 7.25-7.79 2.2 0 3.8.86 4.49 2.23V1h4v21h-4v-2.14c-.63 1.37-2.26 2.5-4.49 2.5-4.01 0-7.25-2.88-7.25-7.79zm12.13 0c0-2.5-1.78-4.28-4.16-4.28s-4.16 1.78-4.16 4.28 1.78 4.28 4.16 4.28 4.16-1.78 4.16-4.28zM19.02 0s-2 7-10 7h-9v3h9c2.29 0 4.72-.39 6.67-1.41-2.02 2.79-5.28 4.5-8.81 4.41H.02v3h7c2.32 0 4.42-.54 6.38-1.57-1.96 2.83-5.2 4.56-8.71 4.56H0L.02 22h4c7 0 11.26-3.52 13.4-8.79L22.02 1l-3-1z"/>
</svg>