<?xml version="1.0" ?>
<svg xmlns="http://www.w3.org/2000/svg" xmlns:avocode="https://avocode.com/" id="SVGDoc" version="1.1" viewBox="0 0 201 42">
	<defs/>
	<desc>Generated with Avocode.</desc>
	<g>
		<g>
			<g>
				<g>
					<g>
						<path d="M11.72166,23.94366c-3.30206,4.36457 -8.79787,4.9979 -11.41245,4.75414c4.70206,-4.29164 8.98121,-4.78122 11.41245,-4.75414" fill="#ffa700" fill-opacity="1"/>
					</g>
					<g>
						<title>Path 39</title>
						<path d="M18.37997,15.60828c6.84581,-6.49789 13.6666,-4.2729 18.24577,-7.76039c-1.43542,4.74581 -7.48122,10.21038 -12.19788,12.11246c4.42708,1.72499 11.00413,4.62706 16.02494,10.41662c-7.19789,-0.51667 -9.51871,1.175 -19.38117,-4.78956c0.67291,6.2083 -3.26041,12.61245 -4.70206,16.02493c-0.42916,-2.75624 -4.58748,-7.59373 -1.85207,-19.08326c-4.38123,-0.64999 -13.13537,-9.67079 -14.20827,-11.79787c2.35416,1.20833 13.09162,-0.4125 18.07076,4.87707" fill="#ffa700" fill-opacity="1"/>
					</g>
					<g>
						<title>Path 40</title>
						<path d="M10.74249,28.31239c-0.19167,3.49582 -2.62082,6.78122 -5.39997,8.72079c0.43541,-3.4604 2.39374,-6.93747 5.39997,-8.72079" fill="#ffa700" fill-opacity="1"/>
					</g>
					<g>
						<title>Path 41</title>
						<path d="M17.59246,0c2.62708,4.15206 4.29581,9.2062 1.11875,14.26036c-0.49792,-1.88542 -4.07707,-7.30206 -1.11875,-14.26036" fill="#ffa700" fill-opacity="1"/>
					</g>
				</g>
			</g>
			<g>
				<title>Path 42</title>
				<path d="M57.04647,26.5749l7.50624,-16.43327l7.46663,16.43327zM50.35276,36.43319h2.18958l3.61249,-7.95206h16.75827l3.61038,7.95206h2.31248l-13.22702,-28.60614h-2.02916z" fill="#0055a5" fill-opacity="1"/>
			</g>
			<g>
				<title>Group 7</title>
				<g>
					<title>Path 43</title>
					<path d="M91.97967,23.89575v-13.91662h8.03329c5.11248,0 8.60207,2.35206 8.60207,6.85623v0.08125c0,4.22082 -3.57083,6.97914 -8.8458,6.97914zM89.86926,36.43319h2.11041v-10.58955h7.66871c5.92497,0 11.07706,-3.08332 11.07706,-9.04787v-0.08125c0,-5.47915 -4.30208,-8.6833 -10.54998,-8.6833h-10.3062z" fill="#0055a5" fill-opacity="1"/>
				</g>
				<g>
					<title>Path 44</title>
					<path d="M124.15454,22.76033v-12.7812h9.69789c5.15204,0 8.15412,2.39373 8.15412,6.20831v0.08124c0,4.09792 -3.52915,6.49165 -8.27704,6.49165zM122.04414,36.4332h2.1104v-11.76662h9.28956l9.04994,11.76662h2.67917l-9.37496,-12.1312c4.78958,-0.64793 8.31872,-3.36875 8.31872,-8.11456v-0.08125c0,-2.02915 -0.81252,-3.9354 -2.15207,-5.27497c-1.70209,-1.70417 -4.50206,-2.8 -7.99165,-2.8h-11.92911z" fill="#0055a5" fill-opacity="1"/>
				</g>
				<g>
					<title>Rectangle 26</title>
					<path d="M156.7315,36.43323v0v-28.40196v0h2.11251v0v28.40196v0z" fill="#0055a5" fill-opacity="1"/>
				</g>
				<g>
					<title>Path 45</title>
					<path d="M176.896,26.57491l7.50621,-16.43327l7.46663,16.43327zM170.20019,36.4332h2.19165l3.61246,-7.95206h16.7583l3.6104,7.95206h2.31248l-13.22911,-28.60614h-2.02707z" fill="#0055a5" fill-opacity="1"/>
				</g>
				<g>
					<title>Path 46</title>
					<path d="M197.50842,9.7437c0.47916,0 0.76459,0.21459 0.76459,0.61251c0,0.37708 -0.28543,0.61249 -0.76459,0.61249h-0.96042v-1.22499h0.96042zM198.1313,11.48953c0.53127,-0.15416 0.89792,-0.54165 0.89792,-1.17499c0,-0.775 -0.59375,-1.2354 -1.48956,-1.2354h-1.72708v3.87082h0.73541v-1.3375h0.80624l0.93958,1.3375l0.86771,0l0.00669,-0.00669l-1.0369,-1.45373zM199.17298,12.94996l-0.00477,-0.00669l1.42014,-1.41934c-0.18051,1.51987 -1.35115,2.72932 -2.90588,2.90425l1.47905,-1.47822zM200.61259,11.11246c0,0.13926 -0.00822,0.27659 -0.02424,0.41147l0.41169,-0.41146c0,-2.02292 -1.61248,-3.68749 -3.68748,-3.68749c-2.0708,0 -3.70415,1.68541 -3.70415,3.70623c0,2.02292 1.61249,3.68749 3.68332,3.68749l0.39074,-0.39052c-0.12777,0.01438 -0.25813,0.02176 -0.39074,0.02176c-1.87706,0 -3.29582,-1.47916 -3.29582,-3.31874c0,-1.83749 1.42918,-3.33748 3.31665,-3.33748z" fill="#0055a5" fill-opacity="1"/>
				</g>
			</g>
		</g>
	</g>
</svg>