<?xml version="1.0" encoding="UTF-8"?>
<svg xmlns="http://www.w3.org/2000/svg"  viewBox="0 0 600 250">
	<style type="text/css">
		.st0{fill:#043B54;}
		.st1{fill:#6D655A;}
		.st2{font-family:'ProximaNova-Regular';}
		.st3{font-size:37.9775px;}
	</style>
	<g>
		<g>
			<path class="st0" d="M88,90.9l-23.8,56h16.6l4.5-11.4h23.3l4.4,11.4h16.6l-23.7-56H88z M89.1,125.8l7.9-20.4l7.9,20.4H89.1z M45.6,124.1c-1.2-1.3-2.8-2.2-4.6-2.9c-1.8-0.7-3.9-1.1-6.3-1.1c-3.1,0-5.9,0.6-8,1.9c-2.2,1.3-3.9,2.9-4.9,5 c-1.1,2.1-1.6,4.3-1.6,6.7s0.6,4.6,1.6,6.7c1.1,2.1,2.7,3.8,4.9,5s4.9,1.9,8,1.9c3.1,0,5.8-0.6,8-1.8c2.2-1.2,3.9-2.8,5-5 c1.1-2.1,1.7-4.4,1.7-6.9c0-1.8-0.3-3.6-0.9-5.2C47.7,126.9,46.8,125.4,45.6,124.1z M40.7,137.3c-0.6,1-1.3,1.8-2.3,2.4 c-1,0.6-2.2,0.9-3.6,0.9c-2,0-3.7-0.6-4.9-1.9c-1.2-1.3-1.7-2.9-1.7-5c0-2,0.6-3.7,1.7-5c1.2-1.3,2.8-1.9,4.9-1.9 c1.1,0,2,0.2,2.8,0.6c0.8,0.4,1.6,0.8,2.1,1.4c0.6,0.6,1,1.3,1.3,2.1c0.3,0.8,0.5,1.7,0.5,2.8C41.4,135.1,41.1,136.3,40.7,137.3z M25.7,120.1c0.9-1.7,1.4-3.6,1.4-5.7c0-1.6-0.3-2.9-0.7-4.3c-0.6-1.4-1.3-2.6-2.2-3.6c-1-1-2.2-1.8-3.8-2.5s-3.3-0.9-5.2-0.9 c-2.6,0-4.9,0.6-6.6,1.6c-1.8,1-3.1,2.5-4,4.1c-0.9,1.7-1.3,3.6-1.3,5.6c0,2,0.5,3.9,1.3,5.5c0.9,1.7,2.2,3.1,4,4.2 c1.8,1.1,4,1.6,6.6,1.6c2.6,0,4.8-0.6,6.6-1.6C23.4,123.2,24.8,121.8,25.7,120.1z M19.9,117.3c-0.5,0.8-1,1.6-1.8,2 c-0.8,0.5-1.8,0.7-3,0.7c-1.7,0-3-0.6-4-1.6c-1-1-1.5-2.4-1.5-4.1c0-1.7,0.5-3,1.5-4.1c1-1,2.3-1.6,4-1.6c0.9,0,1.7,0.2,2.4,0.5 c0.6,0.3,1.3,0.6,1.7,1.2c0.5,0.5,0.8,1.1,1.1,1.7c0.3,0.6,0.4,1.5,0.4,2.3C20.5,115.5,20.3,116.5,19.9,117.3z M461.9,98.6 c-2.5-2.7-5.7-4.7-9.5-6.2c-3.9-1.6-8.3-2.3-13.2-2.3c-6.6,0-12.2,1.4-16.9,4c-4.6,2.7-8,6.2-10.3,10.6c-2.2,4.4-3.3,9.1-3.3,14.1 s1.1,9.7,3.3,14.1c2.2,4.4,5.6,7.9,10.3,10.6c4.6,2.7,10.2,4,16.8,4c6.5,0,12.1-1.3,16.7-3.9c4.6-2.6,8-6.1,10.3-10.5 c2.3-4.4,3.5-9.2,3.5-14.4c0-3.9-0.6-7.5-1.9-11C466.3,104.3,464.4,101.3,461.9,98.6z M451.4,126.2c-1.1,2.2-2.7,3.9-4.8,5 c-2.1,1.2-4.6,1.8-7.6,1.8c-4.3,0-7.7-1.3-10.2-3.9c-2.5-2.7-3.8-6.2-3.8-10.4c0-4.3,1.2-7.7,3.8-10.4c2.5-2.7,5.9-3.9,10.2-3.9 c2.3,0,4.3,0.4,6,1.1c1.7,0.7,3.2,1.7,4.4,3c1.2,1.3,2.1,2.8,2.7,4.5c0.6,1.7,0.9,3.7,0.9,5.8 C453.1,121.7,452.5,124.1,451.4,126.2z M501.7,90.9h-16.2v56h40.8v-13.4h-24.6L501.7,90.9L501.7,90.9z M190.8,148.6 c-2.9-0.9-5.8-2-8.7-3.4c3.1-1.4,6-3.2,8.4-5.6c2.5-2.4,4.5-5.2,6.1-8.8c1.6-3.5,2.3-7.5,2.3-12.1c0-3.7-0.6-7.3-1.8-10.7 c-1.2-3.5-3.1-6.5-5.6-9.2c-2.5-2.7-5.7-4.8-9.5-6.4c-3.9-1.6-8.4-2.4-13.5-2.4c-6.6,0-12.2,1.4-16.9,4c-4.6,2.7-8,6.2-10.3,10.6 c-2.2,4.4-3.3,9.1-3.3,14.1c0,4.8,0.8,9,2.6,12.6c1.7,3.7,3.9,6.6,6.6,9c2.7,2.3,5.5,4,8.5,5.1c1.7,1.7,4.3,3.7,7.7,5.6 c4.4,2.6,8.8,4.7,13.1,6.4c4.4,1.7,8.8,3.1,13.2,4.1l11.4-10.8l-0.5-0.9C197.1,150,193.8,149.6,190.8,148.6z M176.1,131.4 c-2.1,1.2-4.6,1.8-7.6,1.8c-4.3,0-7.7-1.3-10.2-3.9c-2.5-2.7-3.8-6.2-3.8-10.4c0-4.3,1.2-7.7,3.8-10.4c2.5-2.7,5.9-3.9,10.2-3.9 c2.3,0,4.3,0.4,6,1.1c1.7,0.7,3.2,1.7,4.4,3c1.2,1.3,2.1,2.8,2.7,4.5c0.6,1.7,0.9,3.7,0.9,5.8c0,2.8-0.6,5.3-1.7,7.4 C179.8,128.4,178.2,130.1,176.1,131.4z M595.7,110.7c-0.8-2.8-1.9-5.2-3.3-7.4c-1.4-2.1-3-3.9-4.9-5.5c-1.1-0.9-2.3-1.8-3.6-2.7 c-1.4-0.8-2.9-1.6-4.9-2.2s-4-1.2-6.4-1.6c-2.4-0.4-5.2-0.6-8.6-0.6h-22.3v56h28.2h0.8c6.9,0,12.3-1.6,16.2-4.8 c2.8-2.1,5-5,7.1-8.4c2-3.5,3-8.1,3-13.8C596.9,116.6,596.5,113.6,595.7,110.7z M575.8,132.1c-3.1,2.1-6.8,3.1-11,3.1h-6.9v-33.1 h6.9c2.4,0,4.8,0.5,7.2,1.3c2.3,0.8,4.3,2.6,6,5.1c1.7,2.6,2.5,6.1,2.5,10.6C580.4,125.7,578.9,130,575.8,132.1z M254.7,117.5 c0,3.7-0.6,6.7-1.6,9.2c-1,2.4-2.5,4.1-4.3,5.2s-3.9,1.7-6.3,1.7c-2.5,0-4.6-0.6-6.4-1.7c-1.8-1.1-3.2-2.8-4.2-5.3 c-1-2.4-1.6-5.5-1.6-9.2V90.9h-16.2v30.9c0,6.2,1.5,11.3,4.3,15.1s6.5,6.6,10.7,8.3c4.3,1.7,8.7,2.4,13.2,2.4 c3.2,0,6.5-0.5,9.8-1.3c3.3-0.8,6.3-2.3,9.2-4.2s5.1-4.7,6.8-8c1.7-3.4,2.6-7.4,2.6-12.3V90.9h-16.2L254.7,117.5L254.7,117.5z M356.8,146.9h16.2v-22.7h22.3v-11.3h-22.3v-10.8h22.3V90.9h-38.5V146.9z M303.6,90.9l-23.8,56h16.6l4.5-11.4h23.3l4.4,11.4h16.6 l-23.7-56H303.6z M304.6,125.8l7.9-20.4l7.9,20.4H304.6z M27.3,106.1c1.4,0.8,3.1,1.2,5.1,1.2s3.7-0.4,5-1.2 c1.4-0.8,2.4-1.8,3.1-3.2c0.7-1.3,1-2.8,1-4.4c0-1.2-0.2-2.3-0.6-3.3c-0.4-1.1-1-2-1.7-2.8c-0.7-0.8-1.7-1.5-2.9-1.9 c-1.2-0.5-2.5-0.7-4-0.7c-2,0-3.7,0.4-5.1,1.2c-1.4,0.8-2.4,1.8-3.1,3.2c-0.6,1.3-1,2.8-1,4.3s0.4,2.9,1,4.3 C24.9,104.1,26,105.2,27.3,106.1z M29.4,95.4c0.7-0.8,1.7-1.2,3.1-1.2c0.6,0,1.3,0.1,1.8,0.4c0.6,0.2,1,0.6,1.4,0.9 c0.4,0.4,0.6,0.8,0.8,1.4c0.2,0.6,0.3,1.1,0.3,1.7c0,0.8-0.2,1.6-0.5,2.3c-0.4,0.6-0.8,1.2-1.5,1.6c-0.6,0.4-1.4,0.6-2.3,0.6 c-1.3,0-2.3-0.4-3.1-1.2c-0.7-0.8-1.1-1.8-1.1-3.1C28.2,97.2,28.5,96.2,29.4,95.4z"/>
		</g>
	</g>
</svg>