<?xml version="1.0" ?>
<svg xmlns="http://www.w3.org/2000/svg" fill="none" viewBox="0 0 256 256">
	<path fill="#2166AE" d="M 174.812,91.32 L 158.225,100.797 C 156.751,101.891 155.645,103.349 155.645,105.171 L 155.645,119.387 C 155.645,121.21 157.488,122.303 158.962,121.21 L 176.287,111.368 C 177.024,111.003 177.761,111.003 178.498,111.368 L 216.464,133.239 C 217.201,133.603 217.57,134.332 217.57,135.061 L 217.57,178.438 C 217.57,179.167 217.201,179.896 216.464,180.261 L 178.498,202.132 C 177.761,202.496 177.024,202.496 176.287,202.132 L 138.321,180.261 C 137.584,179.896 137.215,179.167 137.215,178.438 L 137.215,69.813 C 137.215,67.991 136.109,66.168 134.635,65.439 L 81.188,34.82 C 79.713,33.727 77.502,33.727 76.028,34.82 L 22.58,65.44 C 21.106,66.532 20.0,67.99 20.0,69.812 L 20.0,131.051 C 20.0,132.873 21.106,134.696 22.58,135.425 L 76.027,166.044 C 77.502,167.137 79.713,167.137 81.187,166.044 L 97.775,156.567 C 99.249,155.473 100.355,154.015 100.355,152.192 L 100.355,137.976 C 100.355,136.154 98.512,135.06 97.037,136.154 L 79.713,145.996 C 78.976,146.36 78.239,146.36 77.502,145.996 L 39.536,124.125 C 38.799,123.76 38.43,123.031 38.43,122.302 L 38.43,78.562 C 38.43,77.832 38.799,77.104 39.536,76.739 L 77.502,54.869 C 78.239,54.504 78.976,54.504 79.713,54.869 L 118.785,77.104 L 118.785,187.187 C 118.785,189.009 119.891,190.832 121.365,191.561 L 174.812,222.18 C 176.287,223.273 178.498,223.273 179.973,222.18 L 233.42,191.561 C 234.894,190.467 236.0,189.009 236.0,187.187 L 236.0,126.313 C 236.0,124.49 234.894,122.668 233.42,121.939 L 179.973,91.319 C 178.498,90.591 176.287,90.591 174.812,91.319 L 174.812,91.32"/>
</svg>