<?xml version="1.0" ?>
<svg xmlns="http://www.w3.org/2000/svg" viewBox="0 0 1550 519">
	<style>.a{fill:#002a41}</style>
	<path class="a" d="m459.8 513.1c-4.7-3.9-5.9-9.1-5.9-13.4 0-3.1 1-8.5 5.5-12.5 3.4-2.9 7.9-4.8 14.9-4.8 2.9 0 4.6 0.3 6.8 0.5 1.7 0.3 3.3 0.6 4.7 0.8 0.5 0 0.7 0.2 0.7 0.5 0 0.4-0.1 0.9-0.3 2.5-0.1 1.5-0.1 4-0.1 4.9-0.1 0.7-0.2 1.1-0.7 1.1-0.3 0-0.4-0.3-0.4-0.9-0.1-1.5-0.7-3.1-1.8-4.2-1.6-1.6-4.8-2.7-9.1-2.7-4.1 0-6.7 0.7-8.9 2.6-3.4 2.9-4.3 7.3-4.3 11.7 0 10.8 8.3 15.9 14.6 15.9 4.2 0 6.5-0.3 8.4-2.4 0.7-0.9 1.4-2.2 1.5-3 0.2-0.7 0.3-0.9 0.6-0.9 0.4 0 0.6 0.4 0.6 0.8 0 0.5-0.6 4.5-1 6-0.3 0.8-0.5 1-1.3 1.3-1.8 0.8-5.4 1.1-8.4 1.1-6.4 0-11.9-1.4-16.1-4.9z"/>
	<path class="a" d="m490.6 500.2c0-7.7 5.4-17.8 19.6-17.8 11.9 0 19.2 6.6 19.2 17 0 10.4-7.5 18.6-19.6 18.6-13.7 0-19.2-9.7-19.2-17.8zm31.8 0.9c0-10.1-6-16.3-13.5-16.3-5.3 0-11.4 2.8-11.4 14 0 9.3 5.3 16.7 14.2 16.7 3.3 0 10.7-1.5 10.7-14.4z"/>
	<path class="a" d="m539.2 483.2c0.1-0.7 0.5-1.1 0.9-1.1 0.5 0 0.8 0.2 1.4 1.4l12.6 25.3 12.6-25.6q0.6-1.1 1.2-1.1c0.4 0 0.9 0.5 1.1 1.4l4.3 28c0.4 2.8 0.8 4.1 2.2 4.5 1.4 0.4 2.1 0.4 2.7 0.4 0.4 0 0.8 0.2 0.8 0.4 0 0.4-0.6 0.6-1.3 0.6-1.1 0-7.8-0.2-9.7-0.4-1.1 0-1.4-0.2-1.4-0.5 0-0.2 0.3-0.4 0.6-0.5 0.2-0.1 0.3-0.6 0.2-1.9l-2.6-19.6h-0.2l-10.1 20.3c-1 2.1-1.3 2.5-1.8 2.5-0.6 0-1.1-0.9-1.9-2.3-1.1-2.1-4.8-9-5.4-10.3-0.3-0.8-3.1-6.5-4.7-9.7h-0.1l-2.3 17.7c-0.1 0.8-0.1 1.4-0.1 2.2 0 0.8 0.6 1.1 1.4 1.3 0.8 0.2 1.2 0.2 1.7 0.2 0.4 0 0.7 0.2 0.7 0.4 0 0.5-0.4 0.6-1.1 0.6-2 0-4.1-0.2-5-0.2-0.9 0-3.1 0.2-4.6 0.2-0.5 0-0.8-0.1-0.8-0.6 0-0.2 0.2-0.4 0.7-0.4 0.4 0 0.7 0 1.4-0.1 1.3-0.2 1.7-2 2-3.5z"/>
	<path class="a" d="m588 483.2c0.1-0.7 0.6-1.1 0.9-1.1 0.5 0 0.8 0.2 1.5 1.4l12.6 25.3 12.5-25.6q0.6-1.1 1.3-1.1c0.3 0 0.9 0.5 1 1.4l4.3 28c0.4 2.8 0.8 4.1 2.3 4.5 1.3 0.4 2.1 0.4 2.6 0.4 0.5 0 0.8 0.2 0.8 0.4 0 0.4-0.5 0.6-1.2 0.6-1.2 0-7.9-0.2-9.7-0.4-1.2 0-1.4-0.2-1.4-0.5 0-0.2 0.2-0.4 0.5-0.5 0.3-0.1 0.4-0.6 0.2-1.9l-2.6-19.6h-0.1l-10.1 20.3c-1.1 2.1-1.4 2.5-1.9 2.5-0.6 0-1.1-0.9-1.9-2.3-1.1-2.1-4.8-9-5.3-10.3-0.4-0.8-3.2-6.5-4.7-9.7h-0.2l-2.2 17.7c-0.1 0.8-0.2 1.4-0.2 2.2 0 0.8 0.7 1.1 1.5 1.3 0.8 0.2 1.2 0.2 1.6 0.2 0.4 0 0.8 0.2 0.8 0.4 0 0.5-0.5 0.6-1.2 0.6-1.9 0-4.1-0.2-4.9-0.2-0.9 0-3.2 0.2-4.7 0.2-0.4 0-0.8-0.1-0.8-0.6 0-0.2 0.3-0.4 0.7-0.4 0.4 0 0.7 0 1.5-0.1 1.3-0.2 1.7-2 1.9-3.5z"/>
	<path class="a" d="m634.1 496.2c0-6.9 0-8.2 0-9.6-0.1-1.5-0.5-2-2-2.4-0.4-0.2-1.2-0.2-1.9-0.2-0.5 0-0.8-0.2-0.8-0.5 0-0.3 0.4-0.4 1.1-0.4 2.4 0 5.4 0.1 6.7 0.1 1.5 0 11.9 0 12.8 0 0.9-0.1 1.6-0.2 2-0.3 0.3 0 0.5-0.2 0.7-0.2 0.3 0 0.4 0.2 0.4 0.4 0 0.4-0.3 0.9-0.4 3-0.1 0.5-0.2 2.4-0.3 3 0 0.2-0.1 0.7-0.5 0.7-0.3 0-0.4-0.2-0.4-0.6 0-0.3 0-1.1-0.3-1.6-0.4-0.8-0.7-1.5-3.1-1.7-0.8-0.1-6.4-0.2-7.3-0.2q-0.4 0-0.4 0.4v11.2c0 0.3 0.1 0.5 0.4 0.5 1 0 7.1 0 8.2-0.1 1.1-0.1 1.8-0.2 2.2-0.7 0.4-0.3 0.5-0.6 0.7-0.6 0.3 0 0.4 0.2 0.4 0.5 0 0.3-0.1 1-0.4 3.3-0.1 0.9-0.2 2.7-0.2 3 0 0.4 0 1.1-0.4 1.1-0.4 0-0.5-0.2-0.5-0.4 0-0.5 0-1.1-0.1-1.7-0.3-0.9-0.9-1.6-2.6-1.7-0.9-0.1-6.2-0.2-7.4-0.2-0.2 0-0.3 0.2-0.3 0.4v3.7c0 1.5 0 5.3 0 6.7 0.1 3.1 1.6 3.8 6.4 3.8 1.2 0 3.2-0.1 4.4-0.6 1.2-0.6 1.7-1.5 2-3.4 0.1-0.5 0.2-0.7 0.6-0.7 0.3 0 0.4 0.6 0.4 1.1 0 1-0.4 4.1-0.7 5-0.3 1.2-0.7 1.2-2.5 1.2-3.5 0-6.3-0.1-8.6-0.2-2.3 0-4-0.1-5.4-0.1-0.6 0-1.6 0.1-2.7 0.1-1.1 0-2.3 0.1-3.2 0.1q-0.9 0-1-0.5c0-0.2 0.2-0.5 0.8-0.5q1 0 1.6-0.2c1-0.2 1.3-1 1.4-2.3 0.2-2 0.2-5.5 0.2-9.7z"/>
	<path class="a" d="m662.9 496.2c0-6.9 0-8.2-0.1-9.6-0.1-1.5-0.5-2-2-2.4-0.4-0.2-1.2-0.2-1.9-0.2-0.4 0-0.8-0.2-0.8-0.5 0-0.3 0.4-0.4 1.1-0.4 2.5 0 5.4 0.1 6.4 0.1 1.6 0 5.9-0.1 7.3-0.1 3 0 6.4 0.3 8.9 1.9 1.3 0.9 3.3 3.2 3.3 6.2 0 3.4-1.9 6.4-6.5 10.1 4.2 5.1 7.5 9.2 10.3 12 2.6 2.6 4.3 2.8 5 3 0.5 0.1 0.7 0.1 1.1 0.1 0.4 0 0.6 0.3 0.6 0.5 0 0.4-0.3 0.5-0.9 0.5h-4.5c-2.6 0-3.9-0.3-5.1-0.9-2-1-3.8-3.2-6.4-6.7-1.9-2.5-3.8-5.5-4.4-6.2-0.3-0.3-0.5-0.3-0.9-0.3l-4.2-0.1c-0.2 0-0.4 0.1-0.4 0.4v0.6c0 4.2 0.1 7.7 0.3 9.7 0.2 1.3 0.4 2.1 1.8 2.3 0.7 0.2 1.7 0.2 2.3 0.2 0.4 0 0.6 0.3 0.6 0.5 0 0.3-0.4 0.5-1 0.5-2.7 0-6.6-0.2-7.3-0.2-0.9 0-3.8 0.2-5.7 0.2q-0.9 0-0.9-0.5c0-0.2 0.1-0.5 0.7-0.5q1.1 0 1.7-0.2c0.9-0.2 1.2-1 1.4-2.3 0.2-2 0.2-5.5 0.2-9.7zm5.9 3.5c0 0.5 0.2 0.7 0.5 0.8 1 0.3 2.4 0.4 3.5 0.4 1.9 0 2.6-0.1 3.4-0.7 1.4-1 3-3 3-6.7 0-6.4-4.4-8.1-7.2-8.1-1.1 0-2.2 0.1-2.7 0.2-0.3 0.1-0.5 0.3-0.5 0.6z"/>
	<path class="a" d="m698.8 513.1c-4.7-3.9-5.9-9.1-5.9-13.4 0-3.1 1-8.5 5.5-12.5 3.4-2.9 7.9-4.8 14.9-4.8 2.9 0 4.6 0.3 6.8 0.5 1.7 0.3 3.3 0.6 4.7 0.8 0.5 0 0.7 0.2 0.7 0.5 0 0.4-0.1 0.9-0.3 2.5-0.1 1.5-0.1 4-0.1 4.9-0.1 0.7-0.2 1.1-0.7 1.1-0.3 0-0.4-0.3-0.4-0.9-0.1-1.5-0.7-3.1-1.8-4.2-1.6-1.6-4.8-2.7-9.1-2.7-4.1 0-6.7 0.7-8.9 2.6-3.4 2.9-4.3 7.3-4.3 11.7 0 10.8 8.3 15.9 14.6 15.9 4.2 0 6.5-0.3 8.4-2.4 0.7-0.9 1.4-2.2 1.5-3 0.2-0.7 0.3-0.9 0.6-0.9 0.4 0 0.6 0.4 0.6 0.8 0 0.5-0.6 4.5-1 6-0.3 0.8-0.5 1-1.3 1.3-1.8 0.8-5.4 1.1-8.4 1.1-6.4 0-11.9-1.4-16.1-4.9z"/>
	<path class="a" d="m734.7 496.2c0-6.9 0-8.2-0.1-9.6-0.1-1.5-0.5-2.1-1.6-2.4-0.5-0.2-1.1-0.2-1.7-0.2-0.4 0-0.7-0.1-0.7-0.5q0-0.4 1.1-0.4c1.8 0 5 0.1 6.3 0.1 1.2 0 4.2-0.1 6-0.1 0.6 0 1 0.1 1 0.4 0 0.4-0.3 0.5-0.8 0.5-0.4 0-0.8 0-1.4 0.2-1.2 0.2-1.6 0.8-1.7 2.4-0.1 1.4-0.1 2.7-0.1 9.6v8c0 4.4 0 8 0.2 9.9 0.2 1.2 0.5 1.9 1.9 2.1 0.6 0.2 1.7 0.2 2.4 0.2 0.5 0 0.7 0.3 0.7 0.5 0 0.3-0.4 0.5-0.9 0.5-3.1 0-6.3-0.2-7.6-0.2-1 0-4.2 0.2-6.1 0.2q-0.9 0-0.9-0.5c0-0.2 0.2-0.5 0.7-0.5q1.1 0 1.7-0.2c1-0.2 1.2-0.8 1.4-2.1 0.2-1.9 0.2-5.5 0.2-9.9z"/>
	<path class="a" d="m757.5 506c-0.3 0-0.3 0-0.4 0.3l-2.5 6.1c-0.5 1.1-0.7 2.2-0.7 2.7 0 0.8 0.4 1.3 1.8 1.3h0.7c0.6 0 0.7 0.2 0.7 0.5 0 0.4-0.2 0.5-0.7 0.5-1.6 0-3.7-0.2-5.2-0.2-0.5 0-3 0.2-5.5 0.2-0.6 0-0.8-0.1-0.8-0.5 0-0.3 0.1-0.5 0.5-0.5 0.4 0 1 0 1.4 0 2.1-0.4 2.9-1.7 3.9-4l12.2-28.6c0.6-1.2 0.9-1.8 1.4-1.8 0.7 0 0.9 0.4 1.4 1.5 1.1 2.5 9 21 12 27.9 1.8 4.1 3.1 4.7 4 4.8 0.6 0.2 1.2 0.2 1.7 0.2q0.7 0 0.7 0.5c0 0.4-0.3 0.5-2.1 0.5-1.6 0-5 0-9-0.1-0.8-0.1-1.4-0.1-1.4-0.4 0-0.3 0.1-0.4 0.6-0.5 0.3 0 0.7-0.5 0.4-1l-3.6-9.1c-0.1-0.3-0.2-0.3-0.5-0.3zm10.1-2.5c0.2 0 0.2-0.2 0.2-0.3l-4.5-11.5c0-0.2-0.1-0.5-0.2-0.5-0.1 0-0.2 0.3-0.2 0.5l-4.6 11.4c-0.1 0.2 0 0.4 0.2 0.4z"/>
	<path class="a" d="m794.6 504.2c0 5.8 0 8.7 1 9.5 0.8 0.7 2.6 1 6.2 1 2.5 0 4.3 0 5.5-1.3 0.6-0.6 1.1-1.8 1.2-2.7 0-0.4 0.1-0.7 0.5-0.7 0.3 0 0.4 0.5 0.4 1 0 0.6-0.3 3.9-0.7 5.2-0.3 1.1-0.5 1.3-2.9 1.3-3.4 0-6.1-0.1-8.5-0.2-2.3 0-4.3-0.1-6.2-0.1-0.5 0-1.6 0.1-2.7 0.1-1.1 0-2.3 0.1-3.2 0.1q-0.9 0-0.9-0.5c0-0.2 0.1-0.5 0.7-0.5q1 0 1.7-0.2c0.9-0.2 1.2-1 1.4-2.3 0.2-2 0.2-5.5 0.2-9.7v-8c0-6.9 0-8.2-0.1-9.6-0.1-1.5-0.5-2-2-2.4-0.4-0.2-1-0.2-1.6-0.2q-0.8 0-0.8-0.5c0-0.3 0.4-0.4 1.1-0.4 2.1 0 5.1 0.1 6.4 0.1 1.1 0 5-0.1 6.8-0.1 0.7 0 1 0.1 1 0.4q0 0.5-0.9 0.5c-0.5 0-1.2 0-1.8 0.2-1.3 0.2-1.6 0.8-1.7 2.4-0.1 1.4-0.1 2.7-0.1 9.6z"/>
	<path class="a" d="m832.2 496.2c0-6.9 0-8.2 0-9.6-0.1-1.5-0.5-2-2-2.4-0.4-0.2-1.2-0.2-1.9-0.2-0.5 0-0.8-0.2-0.8-0.5 0-0.3 0.4-0.4 1.1-0.4 2.4 0 5.4 0.1 6.4 0.1 1.6 0 5.8-0.1 7.3-0.1 3 0 6.4 0.3 8.9 1.9 1.3 0.9 3.3 3.2 3.3 6.2 0 3.4-1.9 6.4-6.5 10.1 4.1 5.1 7.4 9.2 10.3 12 2.6 2.6 4.2 2.8 5 3 0.5 0.1 0.7 0.1 1.1 0.1 0.4 0 0.6 0.3 0.6 0.5 0 0.4-0.3 0.5-0.9 0.5h-4.5c-2.6 0-3.9-0.3-5.1-0.9-2-1-3.8-3.2-6.4-6.7-1.9-2.5-3.9-5.5-4.4-6.2-0.3-0.3-0.6-0.3-0.9-0.3l-4.2-0.1c-0.2 0-0.4 0.1-0.4 0.4v0.6c0 4.2 0.1 7.7 0.3 9.7 0.1 1.3 0.4 2.1 1.8 2.3 0.7 0.2 1.7 0.2 2.3 0.2 0.4 0 0.6 0.3 0.6 0.5 0 0.3-0.4 0.5-1 0.5-2.7 0-6.6-0.2-7.3-0.2-0.9 0-3.9 0.2-5.7 0.2q-0.9 0-0.9-0.5c0-0.2 0.1-0.5 0.7-0.5q1 0 1.7-0.2c0.9-0.2 1.2-1 1.3-2.3 0.2-2 0.2-5.5 0.2-9.7zm6 3.5c0 0.5 0.1 0.7 0.4 0.8 1.1 0.3 2.4 0.4 3.6 0.4 1.9 0 2.5-0.1 3.3-0.7 1.5-1 3.1-3 3.1-6.7 0-6.4-4.4-8.1-7.2-8.1-1.2 0-2.3 0.1-2.8 0.2-0.3 0.1-0.4 0.3-0.4 0.6z"/>
	<path class="a" d="m867.6 496.2c0-6.9 0-8.2 0-9.6-0.1-1.5-0.5-2-2-2.4-0.4-0.2-1.2-0.2-1.9-0.2-0.5 0-0.8-0.2-0.8-0.5 0-0.3 0.4-0.4 1.1-0.4 2.4 0 5.4 0.1 6.7 0.1 1.5 0 11.9 0 12.8 0 0.9-0.1 1.6-0.2 2-0.3 0.3 0 0.5-0.2 0.7-0.2 0.3 0 0.4 0.2 0.4 0.4 0 0.4-0.3 0.9-0.4 3-0.1 0.5-0.2 2.4-0.3 3 0 0.2-0.1 0.7-0.5 0.7-0.3 0-0.4-0.2-0.4-0.6 0-0.3 0-1.1-0.3-1.6-0.4-0.8-0.7-1.5-3.1-1.7-0.8-0.1-6.4-0.2-7.3-0.2q-0.4 0-0.4 0.4v11.2c0 0.3 0.1 0.5 0.4 0.5 1 0 7.1 0 8.2-0.1 1.1-0.1 1.8-0.2 2.2-0.7 0.4-0.3 0.5-0.6 0.8-0.6 0.2 0 0.3 0.2 0.3 0.5 0 0.3-0.1 1-0.3 3.3-0.2 0.9-0.3 2.7-0.3 3 0 0.4 0 1.1-0.4 1.1-0.4 0-0.5-0.2-0.5-0.4 0-0.5 0-1.1-0.1-1.7-0.3-0.9-0.9-1.6-2.6-1.7-0.9-0.1-6.2-0.2-7.4-0.2-0.2 0-0.3 0.2-0.3 0.4v3.7c0 1.5 0 5.3 0 6.7 0.1 3.1 1.6 3.8 6.4 3.8 1.2 0 3.2-0.1 4.4-0.6 1.2-0.6 1.7-1.5 2-3.4 0.1-0.5 0.2-0.7 0.6-0.7 0.3 0 0.4 0.6 0.4 1.1 0 1-0.4 4.1-0.7 5-0.3 1.2-0.7 1.2-2.5 1.2-3.5 0-6.3-0.1-8.6-0.2-2.3 0-4-0.1-5.4-0.1-0.6 0-1.6 0.1-2.7 0.1-1.1 0-2.3 0.1-3.2 0.1q-0.9 0-1-0.5c0-0.2 0.2-0.5 0.8-0.5q1 0 1.6-0.2c1-0.2 1.3-1 1.4-2.3 0.2-2 0.2-5.5 0.2-9.7z"/>
	<path class="a" d="m899.5 506c-0.3 0-0.3 0-0.5 0.3l-2.5 6.1c-0.4 1.1-0.6 2.2-0.6 2.7 0 0.8 0.4 1.3 1.8 1.3h0.7c0.6 0 0.7 0.2 0.7 0.5 0 0.4-0.3 0.5-0.7 0.5-1.6 0-3.8-0.2-5.3-0.2-0.4 0-3 0.2-5.4 0.2-0.6 0-0.9-0.1-0.9-0.5 0-0.3 0.2-0.5 0.6-0.5 0.4 0 0.9 0 1.4 0 2.1-0.4 2.9-1.7 3.9-4l12.2-28.6c0.5-1.2 0.9-1.8 1.4-1.8 0.7 0 0.9 0.4 1.4 1.5 1.1 2.5 8.9 21 11.9 27.9 1.8 4.1 3.2 4.7 4 4.8 0.7 0.2 1.2 0.2 1.8 0.2q0.6 0 0.6 0.5c0 0.4-0.2 0.5-2 0.5-1.7 0-5.1 0-9-0.1-0.9-0.1-1.4-0.1-1.4-0.4 0-0.3 0.1-0.4 0.6-0.5 0.3 0 0.6-0.5 0.4-1l-3.6-9.1c-0.1-0.3-0.3-0.3-0.5-0.3zm10-2.5c0.2 0 0.3-0.2 0.2-0.3l-4.4-11.5c0-0.2-0.1-0.5-0.2-0.5-0.2 0-0.2 0.3-0.3 0.5l-4.5 11.4c-0.1 0.2 0 0.4 0.2 0.4z"/>
	<path class="a" d="m936.5 504.2c0 5.8 0 8.7 1 9.5 0.8 0.7 2.6 1 6.3 1 2.5 0 4.3 0 5.5-1.3 0.6-0.6 1-1.8 1.1-2.7 0.1-0.4 0.2-0.7 0.6-0.7 0.3 0 0.4 0.5 0.4 1 0 0.6-0.3 3.9-0.7 5.2-0.3 1.1-0.5 1.3-3 1.3-3.3 0-6.1-0.1-8.4-0.2-2.3 0-4.3-0.1-6.2-0.1-0.6 0-1.6 0.1-2.7 0.1-1.1 0-2.3 0.1-3.3 0.1q-0.8 0-0.9-0.5c0-0.2 0.2-0.5 0.8-0.5q1 0 1.6-0.2c1-0.2 1.3-1 1.4-2.3 0.2-2 0.2-5.5 0.2-9.7v-8c0-6.9 0-8.2 0-9.6-0.1-1.5-0.6-2-2-2.4-0.4-0.2-1-0.2-1.6-0.2q-0.8 0-0.8-0.5c0-0.3 0.3-0.4 1-0.4 2.2 0 5.2 0.1 6.5 0.1 1.1 0 4.9-0.1 6.7-0.1 0.7 0 1.1 0.1 1.1 0.4q0 0.5-0.9 0.5c-0.5 0-1.3 0-1.8 0.2-1.3 0.2-1.7 0.8-1.8 2.4-0.1 1.4-0.1 2.7-0.1 9.6z"/>
	<path class="a" d="m974.3 496.2c0-6.9 0-8.2 0-9.6-0.1-1.5-0.6-2-2.1-2.4-0.3-0.2-1.1-0.2-1.8-0.2-0.5 0-0.8-0.2-0.8-0.5 0-0.3 0.4-0.4 1-0.4 2.5 0 5.5 0.1 6.8 0.1 1.5 0 11.9 0 12.8 0 0.9-0.1 1.6-0.2 2-0.3 0.2 0 0.5-0.2 0.7-0.2 0.3 0 0.3 0.2 0.3 0.4 0 0.4-0.2 0.9-0.3 3-0.1 0.5-0.2 2.4-0.3 3 0 0.2-0.2 0.7-0.5 0.7-0.3 0-0.4-0.2-0.4-0.6 0-0.3-0.1-1.1-0.3-1.6-0.4-0.8-0.8-1.5-3.1-1.7-0.8-0.1-6.4-0.2-7.4-0.2q-0.3 0-0.3 0.4v11.2c0 0.3 0.1 0.5 0.3 0.5 1.1 0 7.2 0 8.2-0.1 1.2-0.1 1.9-0.2 2.3-0.7 0.4-0.3 0.5-0.6 0.7-0.6 0.2 0 0.4 0.2 0.4 0.5 0 0.3-0.1 1-0.4 3.3-0.1 0.9-0.2 2.7-0.2 3 0 0.4 0 1.1-0.5 1.1-0.3 0-0.4-0.2-0.4-0.4 0-0.5 0-1.1-0.2-1.7-0.2-0.9-0.8-1.6-2.6-1.7-0.8-0.1-6.1-0.2-7.3-0.2-0.2 0-0.3 0.2-0.3 0.4v3.7c0 1.5 0 5.3 0 6.7 0.1 3.1 1.6 3.8 6.4 3.8 1.2 0 3.2-0.1 4.4-0.6 1.2-0.6 1.7-1.5 2-3.4 0.1-0.5 0.2-0.7 0.5-0.7 0.4 0 0.5 0.6 0.5 1.1 0 1-0.4 4.1-0.7 5-0.3 1.2-0.7 1.2-2.5 1.2-3.5 0-6.3-0.1-8.6-0.2-2.3 0-4.1-0.1-5.5-0.1-0.5 0-1.5 0.1-2.6 0.1-1.1 0-2.3 0.1-3.3 0.1q-0.9 0-0.9-0.5c0-0.2 0.2-0.5 0.8-0.5q1 0 1.6-0.2c1-0.2 1.2-1 1.4-2.3 0.2-2 0.2-5.5 0.2-9.7z"/>
	<path class="a" d="m1001.6 516.8c-0.8-0.3-0.9-0.6-0.9-1.6 0-2.4 0.2-5.2 0.2-6 0-0.7 0.2-1.2 0.6-1.2 0.4 0 0.5 0.5 0.5 0.8 0 0.6 0.2 1.5 0.4 2.3 1 3.4 4.5 4.5 7.5 4.5 4 0 6.5-2.5 6.5-5.7 0-2-0.5-4-4.7-6.4l-2.7-1.6c-5.5-3.3-7.3-6.3-7.3-10.3 0-5.6 5.3-9.2 11.8-9.2 3 0 5.4 0.5 6.7 0.8q0.6 0.1 0.6 0.6c0 0.6-0.2 1.8-0.2 5.4q0 1.5-0.5 1.5-0.5 0-0.5-0.8c0-0.5-0.2-1.9-1.2-3-0.7-0.9-2.2-2.2-5.3-2.2-3.3 0-6.4 1.8-6.4 4.9 0 2 0.8 3.6 5 6l1.9 1c6.2 3.4 8.1 6.9 8.1 11 0 3.4-1.3 6.1-4.7 8.5-2.2 1.6-5.3 1.9-7.8 1.9-2.7 0-5.6-0.3-7.6-1.2z"/>
	<path class="a" d="m1038.2 485.9l-6.9 0.1c-2.8 0.1-3.9 0.4-4.6 1.4-0.5 0.6-0.7 1.2-0.8 1.6-0.1 0.3-0.2 0.5-0.5 0.5-0.3 0-0.4-0.2-0.4-0.7 0-0.8 0.9-5.1 1-5.5 0.1-0.6 0.2-0.9 0.5-0.9 0.4 0 0.9 0.4 2 0.6 1.4 0.1 3.2 0.2 4.7 0.2h19.1c1.5 0 2.5-0.1 3.2-0.2 0.7-0.1 1.1-0.2 1.2-0.2 0.4 0 0.4 0.2 0.4 0.9 0 1-0.1 4.3-0.1 5.5 0 0.5-0.2 0.8-0.4 0.8-0.4 0-0.5-0.2-0.6-0.9v-0.5c-0.1-1.2-1.3-2.6-5.5-2.6l-6-0.1v18.3c0 4.2 0.1 7.7 0.3 9.7 0.2 1.3 0.4 2.1 1.8 2.3 0.7 0.2 1.7 0.2 2.4 0.2 0.5 0 0.8 0.3 0.8 0.5 0 0.3-0.4 0.5-0.9 0.5-3.1 0-6.3-0.2-7.6-0.2-1.1 0-4.3 0.2-6.1 0.2q-0.9 0-1-0.5c0-0.2 0.2-0.5 0.8-0.5 0.7 0 1.3 0 1.6-0.2 1-0.2 1.3-1 1.4-2.3 0.2-2 0.2-5.5 0.2-9.7z"/>
	<path class="a" d="m1063.7 506c-0.3 0-0.3 0-0.5 0.3l-2.5 6.1c-0.4 1.1-0.7 2.2-0.7 2.7 0 0.8 0.5 1.3 1.9 1.3h0.7c0.6 0 0.7 0.2 0.7 0.5 0 0.4-0.3 0.5-0.7 0.5-1.6 0-3.8-0.2-5.3-0.2-0.4 0-3 0.2-5.4 0.2-0.6 0-0.9-0.1-0.9-0.5 0-0.3 0.2-0.5 0.6-0.5 0.4 0 0.9 0 1.4 0 2.1-0.4 2.9-1.7 3.9-4l12.2-28.6c0.5-1.2 0.9-1.8 1.4-1.8 0.7 0 0.9 0.4 1.4 1.5 1.1 2.5 8.9 21 11.9 27.9 1.8 4.1 3.2 4.7 4 4.8 0.7 0.2 1.2 0.2 1.8 0.2q0.6 0 0.6 0.5c0 0.4-0.2 0.5-2 0.5-1.7 0-5.1 0-9-0.1-0.9-0.1-1.4-0.1-1.4-0.4 0-0.3 0.1-0.4 0.6-0.5 0.3 0 0.6-0.5 0.4-1l-3.6-9.1c-0.1-0.3-0.3-0.3-0.5-0.3zm10-2.5c0.2 0 0.3-0.2 0.2-0.3l-4.4-11.5c0-0.2-0.1-0.5-0.2-0.5-0.2 0-0.2 0.3-0.3 0.5l-4.5 11.4c-0.1 0.2 0 0.4 0.2 0.4z"/>
	<path class="a" d="m1097.2 485.9l-7 0.1c-2.7 0.1-3.8 0.4-4.5 1.4-0.5 0.6-0.7 1.2-0.8 1.6-0.1 0.3-0.2 0.5-0.5 0.5-0.4 0-0.5-0.2-0.5-0.7 0-0.8 0.9-5.1 1-5.5 0.2-0.6 0.3-0.9 0.6-0.9 0.4 0 0.8 0.4 2 0.6 1.4 0.1 3.1 0.2 4.7 0.2h19c1.5 0 2.5-0.1 3.2-0.2 0.8-0.1 1.1-0.2 1.3-0.2 0.3 0 0.4 0.2 0.4 0.9 0 1-0.1 4.3-0.1 5.5-0.1 0.5-0.2 0.8-0.5 0.8-0.3 0-0.4-0.2-0.5-0.9v-0.5c-0.2-1.2-1.4-2.6-5.6-2.6l-5.9-0.1v18.3c0 4.2 0 7.7 0.3 9.7 0.1 1.3 0.4 2.1 1.8 2.3 0.6 0.2 1.7 0.2 2.4 0.2 0.5 0 0.7 0.3 0.7 0.5 0 0.3-0.4 0.5-0.9 0.5-3.1 0-6.2-0.2-7.6-0.2-1 0-4.2 0.2-6.1 0.2q-0.9 0-0.9-0.5c0-0.2 0.2-0.5 0.8-0.5 0.6 0 1.2 0 1.6-0.2 1-0.2 1.2-1 1.4-2.3 0.2-2 0.2-5.5 0.2-9.7z"/>
	<path class="a" d="m1123.8 496.2c0-6.9 0-8.2 0-9.6-0.2-1.5-0.6-2-2.1-2.4-0.3-0.2-1.1-0.2-1.8-0.2-0.5 0-0.8-0.2-0.8-0.5 0-0.3 0.3-0.4 1-0.4 2.5 0 5.5 0.1 6.8 0.1 1.5 0 11.9 0 12.8 0 0.8-0.1 1.6-0.2 2-0.3 0.2 0 0.5-0.2 0.7-0.2 0.3 0 0.3 0.2 0.3 0.4 0 0.4-0.2 0.9-0.3 3-0.1 0.5-0.2 2.4-0.3 3-0.1 0.2-0.2 0.7-0.5 0.7-0.4 0-0.4-0.2-0.4-0.6 0-0.3-0.1-1.1-0.3-1.6-0.4-0.8-0.8-1.5-3.1-1.7-0.8-0.1-6.4-0.2-7.4-0.2q-0.3 0-0.3 0.4v11.2c0 0.3 0.1 0.5 0.3 0.5 1.1 0 7.2 0 8.2-0.1 1.1-0.1 1.8-0.2 2.3-0.7 0.3-0.3 0.5-0.6 0.7-0.6 0.2 0 0.4 0.2 0.4 0.5 0 0.3-0.1 1-0.4 3.3-0.1 0.9-0.2 2.7-0.2 3 0 0.4-0.1 1.1-0.5 1.1-0.3 0-0.4-0.2-0.4-0.4-0.1-0.5-0.1-1.1-0.2-1.7-0.2-0.9-0.8-1.6-2.6-1.7-0.8-0.1-6.2-0.2-7.3-0.2-0.2 0-0.3 0.2-0.3 0.4v3.7c0 1.5-0.1 5.3 0 6.7 0.1 3.1 1.5 3.8 6.3 3.8 1.3 0 3.2-0.1 4.5-0.6 1.1-0.6 1.7-1.5 2-3.4 0.1-0.5 0.2-0.7 0.5-0.7 0.4 0 0.5 0.6 0.5 1.1 0 1-0.4 4.1-0.7 5-0.3 1.2-0.7 1.2-2.5 1.2-3.5 0-6.3-0.1-8.6-0.2-2.3 0-4.1-0.1-5.5-0.1-0.5 0-1.5 0.1-2.6 0.1-1.2 0-2.3 0.1-3.3 0.1q-0.9 0-0.9-0.5c0-0.2 0.2-0.5 0.8-0.5q1 0 1.6-0.2c1-0.2 1.2-1 1.4-2.3 0.2-2 0.2-5.5 0.2-9.7z"/>
	<path class="a" d="m1169.4 513.1c-4.6-3.9-5.8-9.1-5.8-13.4 0-3.1 1-8.5 5.5-12.5 3.4-2.9 7.9-4.8 14.8-4.8 3 0 4.7 0.3 6.9 0.5 1.7 0.3 3.3 0.6 4.7 0.8 0.5 0 0.7 0.2 0.7 0.5 0 0.4-0.2 0.9-0.3 2.5-0.1 1.5-0.1 4-0.1 4.9-0.1 0.7-0.2 1.1-0.7 1.1-0.3 0-0.4-0.3-0.4-0.9-0.1-1.5-0.7-3.1-1.9-4.2-1.6-1.6-4.7-2.7-9-2.7-4.1 0-6.7 0.7-8.9 2.6-3.4 2.9-4.3 7.3-4.3 11.7 0 10.8 8.3 15.9 14.6 15.9 4.2 0 6.5-0.3 8.3-2.4 0.8-0.9 1.5-2.2 1.6-3 0.1-0.7 0.3-0.9 0.6-0.9 0.3 0 0.6 0.4 0.6 0.8 0 0.5-0.6 4.5-1.1 6-0.2 0.8-0.4 1-1.2 1.3-1.8 0.8-5.4 1.1-8.5 1.1-6.4 0-11.8-1.4-16.1-4.9z"/>
	<path class="a" d="m1200.3 500.2c0-7.7 5.4-17.8 19.6-17.8 11.9 0 19.2 6.6 19.2 17 0 10.4-7.6 18.6-19.7 18.6-13.6 0-19.1-9.7-19.1-17.8zm31.8 0.9c0-10.1-6-16.3-13.6-16.3-5.2 0-11.3 2.8-11.3 14 0 9.3 5.3 16.7 14.2 16.7 3.3 0 10.7-1.5 10.7-14.4z"/>
	<path class="a" d="m1247 496.2c0-6.9 0-8.2-0.1-9.6-0.1-1.5-0.5-2-2-2.4-0.4-0.2-1.2-0.2-1.9-0.2-0.5 0-0.8-0.2-0.8-0.5 0-0.3 0.4-0.4 1.1-0.4 2.4 0 5.4 0.1 6.4 0.1 1.6 0 5.8-0.1 7.3-0.1 3 0 6.4 0.3 8.9 1.9 1.3 0.9 3.3 3.2 3.3 6.2 0 3.4-1.9 6.4-6.5 10.1 4.1 5.1 7.4 9.2 10.3 12 2.6 2.6 4.2 2.8 5 3 0.5 0.1 0.7 0.1 1.1 0.1 0.4 0 0.6 0.3 0.6 0.5 0 0.4-0.3 0.5-0.9 0.5h-4.5c-2.6 0-3.9-0.3-5.1-0.9-2-1-3.8-3.2-6.4-6.7-1.9-2.5-3.8-5.5-4.4-6.2-0.3-0.3-0.6-0.3-0.9-0.3l-4.2-0.1c-0.2 0-0.4 0.1-0.4 0.4v0.6c0 4.2 0.1 7.7 0.3 9.7 0.2 1.3 0.4 2.1 1.8 2.3 0.7 0.2 1.7 0.2 2.3 0.2 0.4 0 0.6 0.3 0.6 0.5 0 0.3-0.4 0.5-1 0.5-2.7 0-6.6-0.2-7.3-0.2-0.9 0-3.9 0.2-5.7 0.2q-0.9 0-0.9-0.5c0-0.2 0.1-0.5 0.7-0.5q1 0 1.7-0.2c0.9-0.2 1.2-1 1.3-2.3 0.3-2 0.3-5.5 0.3-9.7zm5.9 3.5c0 0.5 0.1 0.7 0.5 0.8 1 0.3 2.4 0.4 3.5 0.4 1.9 0 2.5-0.1 3.3-0.7 1.5-1 3.1-3 3.1-6.7 0-6.4-4.4-8.1-7.2-8.1-1.1 0-2.3 0.1-2.7 0.2-0.4 0.1-0.5 0.3-0.5 0.6z"/>
	<path class="a" d="m1282.6 496.2c0-6.9 0-8.2 0-9.6-0.1-1.5-0.6-2-2.1-2.4-0.3-0.2-1.1-0.2-1.8-0.2-0.5 0-0.8-0.2-0.8-0.5 0-0.3 0.4-0.4 1-0.4 2.5 0 5.5 0.1 6.8 0.1 1.9 0 5.7-0.1 7.8-0.1 5.9 0 8 1.9 8.7 2.5 1.1 1 2.4 3 2.4 5.5 0 6.4-5.1 11-11.8 11-0.2 0-1.2 0-1.4-0.1-0.2 0-0.6-0.1-0.6-0.5 0-0.3 0.6-0.6 1.6-0.6 2.6 0 6.3-2.7 6.3-7.3 0-1.5-0.2-4.5-2.8-6.7-1.7-1.5-3.6-1.7-4.7-1.7-0.7 0-1.6 0-2 0.2-0.3 0.1-0.4 0.4-0.4 0.8v18c0 4.2 0 7.7 0.2 9.7 0.2 1.3 0.4 2.1 1.8 2.3 0.7 0.2 1.7 0.2 2.4 0.2 0.6 0 0.8 0.3 0.8 0.5 0 0.3-0.4 0.5-0.9 0.5-3.1 0-6.4-0.2-7.6-0.2-1.1 0-4.1 0.2-6 0.2q-0.9 0-0.9-0.5c0-0.2 0.2-0.5 0.8-0.5q1 0 1.6-0.2c1-0.2 1.3-1 1.4-2.3 0.2-2 0.2-5.5 0.2-9.7z"/>
	<path class="a" d="m1308 500.2c0-7.7 5.4-17.8 19.7-17.8 11.8 0 19.2 6.6 19.2 17 0 10.4-7.6 18.6-19.7 18.6-13.7 0-19.2-9.7-19.2-17.8zm31.9 0.9c0-10.1-6-16.3-13.6-16.3-5.2 0-11.4 2.8-11.4 14 0 9.3 5.4 16.7 14.2 16.7 3.3 0 10.8-1.5 10.8-14.4z"/>
	<path class="a" d="m1354.5 496.2c0-6.9 0-8.2-0.1-9.6-0.1-1.5-0.5-2-2-2.4-0.4-0.2-1.2-0.2-1.9-0.2-0.4 0-0.8-0.2-0.8-0.5 0-0.3 0.4-0.4 1.1-0.4 2.5 0 5.5 0.1 6.4 0.1 1.6 0 5.9-0.1 7.3-0.1 3 0 6.4 0.3 8.9 1.9 1.3 0.9 3.3 3.2 3.3 6.2 0 3.4-1.9 6.4-6.5 10.1 4.2 5.1 7.5 9.2 10.3 12 2.6 2.6 4.3 2.8 5 3 0.5 0.1 0.8 0.1 1.1 0.1 0.4 0 0.6 0.3 0.6 0.5 0 0.4-0.3 0.5-0.9 0.5h-4.5c-2.6 0-3.9-0.3-5.1-0.9-2-1-3.8-3.2-6.4-6.7-1.8-2.5-3.8-5.5-4.4-6.2-0.3-0.3-0.5-0.3-0.9-0.3l-4.2-0.1c-0.2 0-0.3 0.1-0.3 0.4v0.6c0 4.2 0 7.7 0.2 9.7 0.2 1.3 0.4 2.1 1.8 2.3 0.7 0.2 1.7 0.2 2.3 0.2 0.4 0 0.6 0.3 0.6 0.5 0 0.3-0.4 0.5-0.9 0.5-2.8 0-6.6-0.2-7.3-0.2-0.9 0-3.9 0.2-5.8 0.2q-0.9 0-0.9-0.5c0-0.2 0.2-0.5 0.7-0.5q1.1 0 1.7-0.2c1-0.2 1.2-1 1.4-2.3 0.2-2 0.2-5.5 0.2-9.7zm6 3.5c0 0.5 0.1 0.7 0.4 0.8 1 0.3 2.4 0.4 3.6 0.4 1.8 0 2.5-0.1 3.3-0.7 1.4-1 3-3 3-6.7 0-6.4-4.4-8.1-7.1-8.1-1.2 0-2.3 0.1-2.8 0.2-0.3 0.1-0.4 0.3-0.4 0.6z"/>
	<path class="a" d="m1392.2 506c-0.3 0-0.3 0-0.4 0.3l-2.5 6.1c-0.5 1.1-0.7 2.2-0.7 2.7 0 0.8 0.4 1.3 1.8 1.3h0.7c0.6 0 0.7 0.2 0.7 0.5 0 0.4-0.3 0.5-0.7 0.5-1.6 0-3.8-0.2-5.3-0.2-0.4 0-2.9 0.2-5.4 0.2-0.6 0-0.9-0.1-0.9-0.5 0-0.3 0.2-0.5 0.6-0.5 0.4 0 0.9 0 1.4 0 2.1-0.4 2.9-1.7 3.9-4l12.2-28.6c0.6-1.2 0.9-1.8 1.4-1.8 0.7 0 0.9 0.4 1.4 1.5 1.1 2.5 8.9 21 11.9 27.9 1.8 4.1 3.2 4.7 4 4.8 0.7 0.2 1.3 0.2 1.8 0.2q0.6 0 0.6 0.5c0 0.4-0.2 0.5-2 0.5-1.7 0-5.1 0-9-0.1-0.9-0.1-1.4-0.1-1.4-0.4 0-0.3 0.1-0.4 0.6-0.5 0.3 0 0.6-0.5 0.4-1l-3.6-9.1c-0.1-0.3-0.3-0.3-0.5-0.3zm10-2.5c0.2 0 0.3-0.2 0.2-0.3l-4.4-11.5c0-0.2-0.1-0.5-0.2-0.5-0.1 0-0.2 0.3-0.3 0.5l-4.5 11.4c-0.1 0.2 0 0.4 0.2 0.4z"/>
	<path class="a" d="m1425.7 485.9l-7 0.1c-2.7 0.1-3.8 0.4-4.5 1.4-0.5 0.6-0.7 1.2-0.8 1.6-0.1 0.3-0.2 0.5-0.5 0.5-0.3 0-0.5-0.2-0.5-0.7 0-0.8 0.9-5.1 1.1-5.5 0.1-0.6 0.2-0.9 0.5-0.9 0.4 0 0.8 0.4 2 0.6 1.4 0.1 3.2 0.2 4.7 0.2h19c1.5 0 2.5-0.1 3.2-0.2 0.8-0.1 1.2-0.2 1.3-0.2 0.3 0 0.4 0.2 0.4 0.9 0 1-0.1 4.3-0.1 5.5-0.1 0.5-0.2 0.8-0.4 0.8-0.4 0-0.5-0.2-0.6-0.9v-0.5c-0.1-1.2-1.4-2.6-5.6-2.6l-5.9-0.1v18.3c0 4.2 0.1 7.7 0.3 9.7 0.1 1.3 0.4 2.1 1.8 2.3 0.6 0.2 1.7 0.2 2.4 0.2 0.5 0 0.7 0.3 0.7 0.5 0 0.3-0.3 0.5-0.9 0.5-3.1 0-6.2-0.2-7.5-0.2-1.1 0-4.3 0.2-6.2 0.2q-0.9 0-0.9-0.5c0-0.2 0.2-0.5 0.8-0.5 0.7 0 1.2 0 1.6-0.2 1-0.2 1.2-1 1.4-2.3 0.2-2 0.2-5.5 0.2-9.7z"/>
	<path class="a" d="m1452.3 496.2c0-6.9 0-8.2 0-9.6-0.1-1.5-0.6-2.1-1.6-2.4-0.6-0.2-1.2-0.2-1.7-0.2-0.5 0-0.8-0.1-0.8-0.5q0-0.4 1.1-0.4c1.8 0 5 0.1 6.3 0.1 1.2 0 4.2-0.1 6-0.1 0.6 0 1 0.1 1 0.4 0 0.4-0.3 0.5-0.7 0.5-0.5 0-0.9 0-1.4 0.2-1.3 0.2-1.7 0.8-1.8 2.4-0.1 1.4-0.1 2.7-0.1 9.6v8c0 4.4 0 8 0.2 9.9 0.2 1.2 0.5 1.9 1.9 2.1 0.6 0.2 1.7 0.2 2.4 0.2 0.5 0 0.7 0.3 0.7 0.5 0 0.3-0.3 0.5-0.9 0.5-3.1 0-6.3-0.2-7.5-0.2-1.1 0-4.3 0.2-6.2 0.2q-0.9 0-0.9-0.5c0-0.2 0.2-0.5 0.8-0.5q1 0 1.6-0.2c1-0.2 1.2-0.8 1.4-2.1 0.2-1.9 0.2-5.5 0.2-9.9z"/>
	<path class="a" d="m1467.5 500.2c0-7.7 5.4-17.8 19.6-17.8 11.9 0 19.2 6.6 19.2 17 0 10.4-7.6 18.6-19.7 18.6-13.6 0-19.1-9.7-19.1-17.8zm31.8 0.9c0-10.1-6-16.3-13.6-16.3-5.2 0-11.3 2.8-11.3 14 0 9.3 5.3 16.7 14.2 16.7 3.3 0 10.7-1.5 10.7-14.4z"/>
	<path class="a" d="m1516.7 511.2c0.1 3.5 0.7 4.6 1.6 4.9 0.8 0.3 1.7 0.3 2.5 0.3 0.5 0 0.8 0.2 0.8 0.5 0 0.4-0.5 0.5-1.1 0.5-3 0-5.2-0.2-6.1-0.2-0.4 0-2.6 0.2-5 0.2-0.7 0-1.1-0.1-1.1-0.5 0-0.3 0.3-0.5 0.7-0.5 0.7 0 1.5 0 2.2-0.2 1.2-0.3 1.4-1.5 1.4-5.5l0.4-26.9c0-0.9 0.4-1.5 0.8-1.5 0.6 0 1.3 0.7 2.1 1.5 0.6 0.6 7.6 7.8 14.4 14.4 3.2 3.2 9.4 9.6 10.1 10.2h0.3l-0.5-20.1c-0.1-2.8-0.5-3.6-1.6-4-0.7-0.3-1.8-0.3-2.5-0.3-0.6 0-0.7-0.2-0.7-0.5 0-0.4 0.5-0.4 1.1-0.4 2.5 0 5 0.1 6 0.1 0.6 0 2.3-0.1 4.6-0.1 0.6 0 1.1 0 1.1 0.4 0 0.3-0.3 0.5-0.8 0.5-0.5 0-0.9 0-1.5 0.2-1.2 0.3-1.6 1.1-1.7 3.7l-0.5 28.6c0 1-0.4 1.4-0.8 1.4-0.8 0-1.4-0.5-1.9-1-2.9-2.7-8.8-8.3-13.7-13-5.1-4.9-10-10.4-11-11.2h-0.1z"/>
	<path class="a" d="m374.3 137.1c18.8-60.8 17-109.1-9.8-128.3-27.1-19.3-73.9-4.9-125.5 33.4-12.2-2.3-24.8-3.6-37.7-3.6-52.1 0-99.5 19.8-135.2 52.3-40.6 36.7-66.1 89.7-66.1 148.7 0 24.1 4.3 47.2 12.1 68.7q0.5 1.2 0.9 2.4 1.1 2.9 2.3 5.7 1 2.5 2.1 5 0.6 1.4 1.3 2.7 4 8.7 8.8 17c-18.1 59.6-16.1 107 10.5 126 26.3 18.7 71.4 5.6 121.4-30.5 13.5 2.9 27.5 4.4 41.9 4.4 111.1 0 201.2-90 201.2-201.2 0-37.5-10.3-72.6-28.2-102.7zm-284-21.5c30.8-27.8 71.3-45.1 115.8-46.4-31.4 28.3-63.5 64.3-93.1 105.9-31.9 44.7-56.7 90-73.3 131.4-5.9-17.9-9.1-36.9-9.1-56.7 0-21.8 3.9-42.7 10.9-62 10.5-27.8 27.3-52.5 48.8-72.2zm-45.9 203.5c15.5-42.5 41.4-91.4 76-140 31.6-44.3 65.8-81.9 98.3-109.8 52.1 2.1 98.6 26.3 130.2 63.5-14.7 45.2-42.2 98.8-80.1 152.1-41 57.4-86.2 103.6-126.5 131.9-44.2-18.3-79.5-53.5-97.9-97.7zm299.2-296.3c18.9 13.5 21.9 45.6 11.7 87.6-26.8-31.8-63.2-55.2-104.8-65.7 39.1-26.7 73.1-36.1 93.1-21.9zm-298 418.3c-19.1-13.6-22-46.3-11.3-89.1 22.5 33.4 54.8 59.7 92.8 74.8-34.2 20.8-63.5 27.1-81.5 14.3zm165.6-10.7c-13.1 0-25.8-1.4-38.2-4.1 38.6-30.4 79.4-73.5 116.4-125.5 34.8-48.8 61.1-98.2 77.6-142.5 15.8 26.8 24.9 58.1 24.9 91.5 0 99.8-80.9 180.6-180.7 180.6z"/>
	<path class="a" d="m617.5 89.3c5.7-15.6 7.6-18.5 10.4-18.5 2.9 0 4.8 2.4 10.5 17.1 7.1 18 81.5 213.8 110.4 285.9 17.1 42.1 30.8 49.7 40.7 52.5 7.2 2.4 14.3 2.9 19 2.9 2.9 0 4.8 0.4 4.8 2.8 0 2.8-4.3 3.8-9.5 3.8-7.1 0-41.7 0-74.4-1-9-0.4-14.3-0.4-14.3-3.3 0-1.9 1.5-2.8 3.4-3.3 2.8-0.9 5.7-5.2 2.8-12.7l-44.1-116.7c-0.9-1.9-1.9-2.8-4.2-2.8h-101.9c-2.4 0-3.8 1.4-4.8 3.8l-28.4 83.9c-4.3 11.8-6.6 23.2-6.6 31.8 0 9.4 9.9 13.7 18 13.7h4.7c3.3 0 4.8 0.9 4.8 2.8 0 2.8-2.9 3.8-7.2 3.8-11.3 0-31.7-1.4-36.9-1.4-5.2 0-31.3 1.4-53.6 1.4-6.2 0-9-1-9-3.8 0-1.9 1.9-2.8 4.3-2.8 3.3 0 9.9-0.5 13.7-1 21.8-2.8 31.3-20.8 39.8-44.5zm49.3 189.6c2.4 0 2.4-1.4 1.9-3.3l-45-128q-3.6-10.7-7.1 0l-41.7 128c-1 2.3 0 3.3 1.4 3.3z"/>
	<path class="a" d="m870.1 247.7c0-62.6 0-74-1-86.8-0.9-13.7-3.3-20.4-17-22.3-3.3-0.5-10.4-0.9-14.2-0.9-1.5 0-3.4-1.9-3.4-3.3 0-2.4 1.9-3.4 6.7-3.4 18.9 0 46.9 1 49.3 1 4.2 0 39.3-1 52.1-1 26.5 0 55.9 2.4 77.7 17.6 10.5 7.6 28.9 27 28.9 55 0 29.8-12.3 58.7-51.1 91.9 34.1 42.7 63 79.2 87.2 104.3 22.2 22.8 36 26.5 46.4 28 8.1 1.4 12.3 1.4 14.7 1.4 2.4 0 3.8 1.9 3.8 3.3 0 2.3-2.4 3.3-10 3.3h-26c-23.7 0-34.1-2.4-44.6-8-18-9.5-33.1-28.9-56.8-59.3-17.6-21.8-36.1-47.8-45.1-58.7-1.9-1.9-2.8-2.4-5.7-2.4l-53-1c-1.9 0-2.9 1-2.9 3.4v9.4c0 38.9 0 70.2 1.9 86.8 1.4 11.8 3.8 19.4 16.6 21.3 5.7 0.9 14.7 1.9 18.5 1.9 2.8 0 3.3 1.9 3.3 3.3 0 1.9-1.9 3.3-6.6 3.3-22.8 0-49.3-1.4-51.2-1.4-0.5 0-28.5 1.4-41.3 1.4-4.2 0-6.6-1-6.6-3.3 0-1.4 1-3.3 3.3-3.3 3.8 0 9-1 12.8-1.9 8.1-1.9 9-9.5 10.9-21.3 2.4-16.6 2.4-48.4 2.4-87.2zm36 34.1c0 2.4 1 3.8 2.9 5.2 6.1 3.3 27.4 6.2 45.9 6.2 10 0 21.4-0.5 31.3-7.2 14.2-9.4 25.1-30.8 25.1-61.6 0-50.2-27.5-79.1-72-79.1-12.3 0-25.6 1.4-29.9 2.3-1.9 1-3.3 2.4-3.3 4.8z"/>
	<path class="a" d="m1170.9 247.7c0-62.6 0-74-0.9-86.8-1-13.7-3.4-20.4-17.1-22.3-3.3-0.5-10.4-0.9-14.2-0.9-1.4 0-3.4-1.9-3.4-3.3 0-2.4 2-3.4 6.7-3.4 18.9 0 46 1 48.3 1 2.9 0 90.1 0.5 99.6 0 8-0.5 15.6-1.9 18.9-2.4 1.9-0.5 3.8-1.9 5.7-1.9 1.4 0 1.9 1.9 1.9 3.8 0 2.9-2.4 7.6-3.3 19-0.5 3.8-1.4 21.8-2.4 26.5-0.5 1.9-1.9 4.3-3.8 4.3-2.3 0-3.3-1.9-3.3-5.2 0-2.9-0.5-9.5-2.4-14.2-2.8-6.7-7.1-9.5-29.8-12.4-7.1-0.9-55.5-1.4-60.2-1.4-1.9 0-2.4 1.4-2.4 4.3v109.5c0 2.8 0 4.3 2.4 4.3 5.2 0 60.2 0 69.7-1 9.9-1 16.1-1.4 20.3-5.7 2.9-2.8 4.8-5.2 6.2-5.2 1.4 0 2.4 0.9 2.4 3.3 0 2.4-2.4 9-3.4 22.3-0.9 8-1.8 23.2-1.8 26.1 0 3.3-1 7.5-3.8 7.5-1.9 0-2.9-1.4-2.9-3.7 0-3.8 0-8.1-1.9-13.3-1.4-5.7-5.2-10.5-21.3-12.3-11.4-1.5-55.9-1.9-63.1-1.9-2.3 0-2.8 1.4-2.8 2.8v33.7c0 13.7-0.5 60.7 0 68.7 1 27 8.5 32.2 49.8 32.2 10.9 0 30.8 0 41.7-4.2 10.9-4.8 16.6-11.9 18.9-28 1-4.7 1.9-6.2 4.3-6.2 2.4 0 2.9 3.3 2.9 6.2 0 2.8-3.4 30.3-5.7 38.8-2.9 10.5-7.2 10.5-23.3 10.5-31.2 0-55.4-1-72.5-1.5-17.5-0.9-28.4-0.9-34.6-0.9-0.9 0-9 0-18 0.4-8 0.5-17.5 1-24.1 1-4.3 0-6.7-1-6.7-3.3 0-1.4 1-3.3 3.3-3.3 3.8 0 9-1.4 12.8-1.9 8.1-1.4 9-9.5 10.9-21.3 2.4-16.6 2.4-48.4 2.4-87.2z"/>
	<path class="a" d="m1383.7 430.1c-5.7-2.8-6.1-4.2-6.1-15.1 0-19.9 1.8-36 2.3-42.7 0-4.2 0.9-6.6 3.3-6.6 2.4 0 3.8 1.4 3.8 4.7 0 3.4 0 9.1 1.4 14.7 6.7 29.4 38 39.8 65.9 39.8 41.3 0 62.6-23.2 62.6-53.5 0-28.9-15.7-42.7-52.6-70.2l-19-14.2c-45-33.7-59.7-58.3-59.7-86.3 0-47.4 37.4-75.8 92.4-75.8 16.6 0 33.2 2.3 43.2 4.7 8 1.9 11.3 1.9 14.6 1.9 3.4 0 4.3 0.5 4.3 2.9 0 1.9-1.9 15.1-1.9 42.6 0 6.2-0.5 9-3.3 9-2.9 0-3.3-1.9-3.8-5.2-0.5-4.7-3.8-15.6-6.1-19.9-2.9-4.7-16.6-19.9-54.1-19.9-30.3 0-55.5 15.2-55.5 43.6 0 25.6 12.9 40.3 54.1 68.3l11.8 8c50.7 34.6 68.3 62.6 68.3 97.2 0 23.7-9 49.3-38.9 68.7-17.5 11.4-43.6 14.2-66.3 14.2-19.5 0-43.6-2.8-60.7-10.9z"/>
</svg>