<?xml version="1.0" ?>
<svg xmlns="http://www.w3.org/2000/svg" role="img" viewBox="238.74 408.11 117.78 25.53">
	<path d="M 250.5,410.4 L 241.1,431.4 L 243.5,431.4 L 251.7,413.2 L 259.7,431.4 L 262.2,431.4 L 252.8,410.4 L 250.5,410.4 L 250.5,410.4 M 294.7,431.4 L 297.1,431.4 L 297.1,410.5 L 294.7,410.5 L 294.7,431.4 M 285.2,416.9 C 285.2,413.1 282.3,410.7 277.7,410.7 L 268.8,410.7 L 268.8,431.4 L 271.2,431.4 L 271.2,412.7 L 277.6,412.7 C 281.0,412.7 282.9,414.2 282.9,416.8 C 282.9,419.6 280.3,421.1 277.1,421.1 L 277.1,423.2 L 283.1,431.2 L 286.0,431.2 L 279.6,422.6 C 282.8,422.3 285.2,420.3 285.2,416.9 L 285.2,416.9 M 316.5,421.9 L 309.0,410.6 L 306.5,410.6 L 306.5,431.3 L 308.8,431.3 L 308.8,414.6 L 316.3,425.7 L 316.6,425.7 L 324.1,414.5 L 324.1,431.4 L 326.5,431.4 L 326.5,410.7 L 324.0,410.7 L 316.5,421.9 M 344.7,410.4 L 342.6,410.4 L 333.2,431.4 L 335.6,431.4 L 343.8,413.2 L 351.8,431.4 L 354.3,431.4 L 344.7,410.4 L 344.7,410.4"/>
</svg>