<?xml version="1.0" ?>
<!-- Generator: Adobe Illustrator 25.2.3, SVG Export Plug-In . SVG Version: 6.00 Build 0)  -->
<svg xmlns="http://www.w3.org/2000/svg" version="1.2" baseProfile="tiny-ps" viewBox="0 0 290 290">
	<path d="M224.8,125.9c-1.8,0-3.3,1.5-3.3,3.3c0,1.8,1.5,3.3,3.4,3.3c1.8,0,3.3-1.5,3.3-3.3C228.1,127.4,226.6,125.9,224.8,125.9"/>
	<path d="M177.2,137.7c-4,0-7.2,2.2-9.5,4.3v-18.1l-5.2,0.8v41.6h5.2v-19.4c2.5-2.7,5.3-4.5,8.1-4.5c3.1,0,4.3,1.9,4.3,4.8v19.1h5.2  v-20.4C185.3,140.8,182.4,137.6,177.2,137.7"/>
	<path d="M148.2,162.3c-4.9,0-8.4-3.2-8.4-10c0-6.5,3.2-10,7.8-10c3.2,0,5.9,1,8.5,3.1l0.8-5.1c-2.1-1.5-5.1-2.6-9.2-2.6  c-7.3,0-13.1,5.1-13.1,14.6c0,9.3,5.5,14.6,13.1,14.5c3.8,0,6.7-0.8,9.6-3l-0.8-4.7C153.5,161.6,151,162.3,148.2,162.3"/>
	<path d="M42.4,144.1l-0.9-5.7h-4.2v28h5.2v-16.6c1.9-3.7,5.8-6.8,10.4-7.1l-0.8-5C47.6,138,44.4,140.9,42.4,144.1"/>
	<path d="M67.2,149.4c-4.4-1.1-5.8-2.2-5.8-4c0-2,1.6-3.2,4.8-3.2c2.9,0,6,1,8.5,2.4l0.8-4.9c-2.7-1.2-5.8-1.9-9.2-1.9  c-6.1,0-9.9,3.3-9.9,7.8c0,5,2.6,7,9.2,8.6c5,1.2,6.6,2.2,6.6,4.8c0,2.3-2.1,3.7-5.7,3.7c-3.8,0-7.2-1.4-9.9-3.2l-0.8,4.9  c2.4,1.3,6.5,2.6,10.2,2.6c7.2,0,11-3.3,11-8.4C77.3,153.2,74.1,151.2,67.2,149.4"/>
	<path d="M122.1,162.3c-4.4,0-7.6-2.5-8.3-7.8h14.8l0.7-4.4h-15.4c0.6-5.1,3.6-7.8,7.7-7.8c3.2,0,5.9,1,8.5,3.1l0.5-3.4l0.3-1.7  c-2.1-1.5-5.1-2.6-9.2-2.6c-7.3,0-13.2,5.1-13.1,14.6c0,9.3,5.5,14.5,13.1,14.5c3.8,0,6.7-0.8,9.6-3l-0.8-4.7  C127.4,161.6,124.9,162.3,122.1,162.3"/>
	<path d="M20.3,137.8c-4.4,0-7.5,1-10.9,2.4l0.7,4.5c3.1-1.3,6.3-2.4,9.7-2.4c3.2,0,5.3,1.2,5.4,4.8v1.2c-11.7,1.3-17.7,4-17.7,11  c0,4.8,3.2,7.8,8.2,7.8c4.6,0,7.6-2.1,9.9-4.4l0.6,3.8h4.2v-19.6C30.4,140.6,27.1,137.8,20.3,137.8 M16.8,162.6  c-2.6,0-4.2-1.4-4.2-3.7c0-2.9,2.2-5.7,12.5-6.7v6.5C22.8,161.1,19.9,162.6,16.8,162.6z"/>
	<rect x="7.5" y="123.9" fill="none" width="274.7" height="43.1"/>
	<path d="M102.7,162.1c-2.9,0-3.9-1.4-3.9-3.7v-15.7h6.8l-0.7-4.4h-6v-10.1l-5.1,0.8v9.3h-4.2v4.4h4.2v16.7c0,5.6,3.2,7.4,8.2,7.4  c1.8,0,3.1-0.2,3.9-0.4l-0.7-4.5C104.5,162.1,103.6,162.1,102.7,162.1"/>
	<path d="M207,137.6c-4,0-7.3,2.2-9.9,4.6l-0.6-4h-4.2v28h5.2v-19.4c2.5-2.7,5.3-4.5,8.1-4.5c3.1,0,4.3,1.9,4.3,4.8v19.1h5.2v-20.4  C215.1,140.8,212.2,137.6,207,137.6"/>
	<path d="M282.2,146.5c0-6.2-3.3-9-10.1-9c-4.3,0-7.5,1-10.9,2.4l0.7,4.5c3.1-1.4,6.3-2.4,9.7-2.4c3.2,0,5.3,1.2,5.3,4.8v1.2  c-11.7,1.2-17.7,4-17.7,11c0,4.8,3.2,7.8,8.2,7.8c4.6,0,7.6-2.1,9.9-4.4l0.6,3.8h4.2L282.2,146.5 M268.6,162.4  c-2.6,0-4.2-1.5-4.2-3.7c0-2.9,2.2-5.7,12.5-6.7v6.5C274.6,160.9,271.7,162.4,268.6,162.4z"/>
	<polyline points="222.1,138.2 222.2,166.2 227.4,166.2 227.4,138.2 222.1,138.2 "/>
	<path d="M246.7,162.2c-4.9,0-8.4-3.2-8.4-10c0-6.5,3.2-10,7.8-10c3.2,0,5.9,1,8.5,3.1l0.8-5.1c-2.1-1.5-5-2.6-9.2-2.6  c-7.3,0-13.1,5.1-13.1,14.6c0,9.3,5.5,14.5,13.1,14.5c3.8,0,6.7-0.8,9.6-3L255,159C252,161.5,249.5,162.2,246.7,162.2"/>
</svg>