<?xml version="1.0" ?>
<svg xmlns:svg="http://www.w3.org/2000/svg" xmlns="http://www.w3.org/2000/svg" viewBox="0 0 586.28119 148.91768">
	<g transform="translate(-101.14511,-388.11028)" id="layer1">
		<path d="m 544.63938,388.11028 -27.11884,8.54026 0,25.62078 -15.88237,0 0,22.92386 15.88237,0 0,58.88285 c 0,16.98464 8.76201,29.51635 29.66569,29.51635 l 19.17813,0 0,-22.92386 -8.24036,0 c -9.66674,0 -13.48462,-4.63272 -13.48462,-15.13275 l 0,-50.34259 25.0217,0 0,-22.92386 -25.0217,0 0,-34.16104 z m 89.14858,30.71497 c -29.00693,0 -53.63932,21.72523 -53.63932,59.78183 0,32.81858 19.92752,58.43337 53.48925,58.43337 32.99261,0 53.78842,-25.68072 53.78842,-59.33234 0,-37.82887 -23.73294,-58.88286 -53.63835,-58.88286 z m -483.79855,2.39727 c -16.46299,0 -35.65934,1.0488 -35.65934,1.0488 l 0,21.12591 c 0,0 20.50862,-1.0488 30.11542,-1.0488 11.30359,0 20.6769,3.37415 20.6769,16.78086 l 0,2.5471 -19.3282,0.59931 c -27.36479,0.94692 -44.64908,14.09593 -44.64908,37.15763 0,21.87506 15.22839,36.40848 34.90995,36.40848 14.246,0 23.99712,-5.54967 31.01487,-12.13616 l 2.24768,9.88873 25.1713,0 c -1.5822,-5.18409 -2.09809,-13.51459 -2.09809,-29.51635 l 0,-43.15079 c 0,-29.18072 -15.94758,-39.70472 -42.40141,-39.70472 z m 292.16683,0 c -16.45723,0 -35.50927,1.0488 -35.50927,1.0488 l 0,21.12591 c 0,0 20.50238,-1.0488 30.11542,-1.0488 11.29736,0 20.67642,3.37415 20.67642,16.78086 l 0,2.5471 -19.3282,0.59931 c -27.36431,0.94692 -44.79867,14.09593 -44.79867,37.15763 0,21.87506 15.39045,36.40848 35.06002,36.40848 14.24599,0 24.00287,-5.54967 31.01487,-12.13616 l 2.2472,9.88873 25.02123,0 c -1.5822,-5.18409 -1.94754,-13.51459 -1.94754,-29.51635 l 0,-43.15079 c 0,-29.18072 -16.09765,-39.70472 -42.55148,-39.70472 z m -226.54166,1.0488 0,111.32306 27.41897,0 0,-77.46167 c 6.31632,-6.20293 14.04175,-7.34163 20.37676,-7.34163 2.15754,0 4.7883,0.2637 7.64105,1.19863 l 0,-27.71839 c -10.1764,0 -18.64498,1.42638 -29.36651,11.68668 l -2.84652,-11.68668 -23.22375,0 z m 66.07441,0 43.60052,111.32306 20.67642,0 44.4995,-111.32306 -28.01829,0 -25.77062,72.21765 -24.87163,-72.21765 -30.1159,0 z m 351.64924,18.72865 c 16.72093,0 26.22034,15.44438 26.22034,36.85796 0,20.94013 -8.51078,37.45729 -25.47144,37.45729 -16.51668,0 -26.21986,-15.80997 -26.21986,-37.45729 0,-20.70638 8.27633,-36.85796 25.47096,-36.85796 z m -468.21584,40.15421 0,25.32112 c -3.61987,3.29624 -9.97886,7.04197 -19.47826,7.04197 -11.30887,0 -17.38018,-7.00601 -17.38018,-16.18155 0,-9.40927 6.57474,-15.28856 21.27621,-15.73206 l 15.58223,-0.44924 z m 292.31642,0 0,25.32112 c -3.61987,3.29624 -10.1342,7.04197 -19.62737,7.04197 -11.30935,0 -17.38018,-7.00601 -17.38018,-16.18155 0,-9.40927 6.57426,-15.28856 21.27525,-15.73206 l 15.7323,-0.44924 z" id="path144" fill="#0979b8" fill-opacity="1" fill-rule="nonzero" stroke="none"/>
	</g>
</svg>