<svg viewBox="0 0 3000 3000" xmlns="http://www.w3.org/2000/svg"><path d="m306.51 1552.43h-28.54v-33.91c-14.7 24.87-45.78 38.15-74.61 38.15-56.24 0-101.17-41.26-101.17-103.72s44.93-102.59 101.17-102.59c28.83 0 59.91 11.87 74.61 36.74v-32.5h28.54s0 197.82 0 197.82zm-103.15-24.3c40.13 0 74.61-26.56 74.61-75.46s-38.72-74.04-74.61-74.04c-40.98 0-72.91 28.83-72.91 74.33.28 43.8 31.93 75.17 72.91 75.17z"/><path d="m384.5 1495.63c3.67 14.7 13.28 34.48 46.63 34.48 25.43 0 41.83-12.72 41.83-31.37 0-13.28-7.63-25.43-28.54-30.52l-27.7-6.22c-24.59-5.93-55.11-18.09-50.02-64.43 4.24-28.26 32.22-46.91 64.43-46.91 30.52 0 57.09 14.7 62.46 51.43h-27.7c-3.39-15.26-17.8-24.02-34.76-24.02-19.22 0-34.76 10.17-37.02 24.02-4.24 22.89 15.26 29.67 29.11 33.06l27.13 6.22c37.3 9.04 50.02 30.52 50.02 57.65 0 34.48-31.37 57.93-72.63 57.93-33.35 0-67.26-22.33-69.24-61.04h26z"/><path d="m582.89 1354.61h-27.98v197.82h27.98z"/><path d="m842.33 1552.43h-28.54v-33.91c-14.7 24.87-45.78 38.15-74.61 38.15-56.24 0-101.17-41.26-101.17-104s44.93-102.59 101.46-102.59c28.83 0 59.63 11.87 74.61 36.74v-32.22h28.26v197.82zm-103.15-24.3c40.13 0 74.61-26.56 74.61-75.46s-39-74.04-74.61-74.04c-41.26 0-72.91 28.83-72.91 74.04 0 44.09 31.93 75.46 72.91 75.46z"/><path d="m922.59 1495.63c3.96 14.7 13.85 34.48 48.89 34.48 26.85 0 44.09-12.72 44.09-31.37 0-13.28-7.91-25.43-29.67-30.52l-28.83-6.22c-25.72-5.93-57.93-18.09-52.56-64.43 4.52-28.26 33.91-46.91 67.54-46.91s60.19 14.7 65.28 51.43h-28.83c-3.67-15.26-18.65-24.02-36.46-24.02-20.07 0-36.46 10.17-38.72 24.02-4.52 22.89 16.11 29.67 30.8 33.06l28.54 6.22c39.28 9.04 52.56 30.52 52.56 57.65 0 34.48-33.06 57.93-76.02 57.93-35.04 0-70.65-22.33-72.63-61.04h26v-.28z"/><path d="m1115.32 1552.43v-172.39h-37.3v-25.43h37.3v-74.33h29.67v74.33h44.09v25.43h-44.09v172.39z"/><path d="m1358.36 1385.41c-9.89-4.8-22.61-6.78-30.24-6.78-42.39 0-59.63 47.48-59.63 100.04v73.76h-29.67v-197.82h29.67v44.93c10.17-33.91 29.39-49.17 59.63-49.17 14.13 0 29.67 4.24 33.91 7.63z"/><path d="m1385.78 1452.96c0-62.74 45.78-102.59 105.13-102.59s102.02 39.85 102.02 102.59c0 4.24 0 9.33-.57 13.28h-176.35c5.37 38.72 36.17 62.74 74.89 62.74 27.98 0 52-12.72 65-34.48 9.04 2.26 20.35 4.24 29.67 6.22-16.96 35.04-52.85 55.96-94.67 55.96-59.06 0-105.13-41.26-105.13-103.72zm176.91-13.28c-5.65-37.59-33.35-61.61-71.78-61.61s-68.96 23.74-74.89 61.61z"/><path d="m1633.9 1452.96c0-62.74 45.78-102.59 105.13-102.59s102.02 39.85 102.02 102.59c0 4.24 0 9.33-.57 13.28h-176.35c5.37 38.72 36.17 62.74 74.89 62.74 27.98 0 52-12.72 65-34.48 9.04 2.26 20.35 4.24 29.67 6.22-16.96 35.04-52.85 55.96-94.67 55.96-59.35 0-105.13-41.26-105.13-103.72zm176.63-13.28c-5.65-37.59-33.35-61.61-71.78-61.61s-68.96 23.74-74.89 61.61z"/><path d="m1909.73 1552.43v-172.39h-37.3v-25.43h37.3v-74.33h29.67v74.33h44.09v25.43h-44.09v172.39z"/><path d="m2145.14 1273.78h-22.33c-39.56 0-43.24 31.37-42.67 57.65v22.89h51.15v25.43h-51.15v172.67h-29.67v-172.39h-40.7v-25.43h40.41v-22.89c.28-47.48 18.09-84.5 72.63-84.5h22.33v26.56z"/><path d="m2161.25 1452.96c0-62.74 49.46-102.59 108.52-102.59s108.52 39.85 108.52 102.59-49.17 103.72-108.52 103.72-108.52-41.26-108.52-103.72zm187.93 0c0-45.78-36.17-74.61-79.13-74.61s-79.13 28.83-79.13 74.61 36.17 75.74 79.13 75.74 79.13-30.24 79.13-75.74z"/><path d="m2422.09 1452.96c0-62.74 49.46-102.59 108.52-102.59s108.52 39.85 108.52 102.59-49.46 104-108.52 104-108.52-41.54-108.52-104zm187.65 0c0-45.78-36.17-74.61-79.13-74.61s-79.13 28.83-79.13 74.61 36.17 75.74 79.13 75.74c43.24 0 79.13-30.24 79.13-75.74z"/><path d="m2897.43 1552.43h-29.67v-33.91c-15.54 24.87-48.04 38.15-78.28 38.15-59.35 0-106.26-41.26-106.26-104s47.2-102.59 106.26-102.59c30.24 0 62.74 11.87 78.28 36.74v-139.61h29.67v305.21zm-108.24-24.3c42.39 0 78.28-26.56 78.28-75.46s-40.98-74.04-78.28-74.04c-43.24 0-76.59 28.83-76.59 74.04s33.35 75.46 76.59 75.46z"/><path d="m103.88 1280.28h738.17v23.46h-738.17z"/><path d="m2101.33 1735c1.7-.85 2.83-1.98 3.67-3.39s1.41-3.11 1.41-5.09-.28-3.67-1.13-4.8-1.98-2.54-3.39-3.67c-1.98-1.41-5.65-3.39-11.02-5.93-5.65-2.54-9.89-4.52-13.28-6.22s-5.93-3.67-8.48-5.65c-5.09-4.8-7.63-10.74-7.63-18.37s3.39-14.13 9.89-19.22c6.22-4.52 14.41-6.78 24.02-6.78 9.04 0 18.37 1.13 27.7 3.67l2.26 26.28h-12.15l-7.07-14.7c-3.67-.57-7.63-.85-11.59-.85s-7.07 1.13-9.61 3.11c-2.26 1.98-3.67 4.24-3.67 6.78s.57 4.24 1.98 5.65 2.83 2.83 4.8 3.96c2.26 1.41 6.22 3.11 11.3 5.65s9.61 4.52 12.72 6.22 5.93 3.96 7.91 6.22c4.24 4.24 6.22 9.33 6.22 15.26s-1.13 10.46-3.11 14.13-4.8 6.5-8.2 8.76c-6.5 4.24-14.7 6.22-24.87 6.22-9.04 0-18.93-1.98-29.67-6.22l2.83-26.85 12.15.85 1.13 15.26c1.41.28 2.83.57 5.09 1.13s4.52.85 7.07.85 4.8-.28 6.78-.57c2.54 0 4.24-.85 5.93-1.7z"/><path d="m2135.81 1686.95 21.76-3.67 5.09 5.09v52.85l7.91 1.41v8.76h-32.22l-1.7-8.76 8.2-1.7v-44.37h-7.35l-1.7-9.61zm9.04-20.07c-1.98-1.98-3.11-4.24-3.11-7.07s1.13-5.09 3.11-7.07 4.52-3.11 7.63-3.11 5.37 1.13 7.35 3.11 3.11 4.24 3.11 7.07-1.13 5.09-3.11 7.07-4.52 3.11-7.35 3.11-5.37-1.13-7.63-3.11z"/><path d="m2251.12 1742.91v8.76h-32.22v-8.76l7.07-1.41v-35.33c0-5.65-3.11-8.48-9.04-8.48-3.96 0-7.63 1.13-11.02 3.67-.85.57-1.41 1.13-1.7 1.41v39l8.2 1.7v8.76h-32.22l-1.98-8.76 8.48-1.98v-44.93h-7.35l-1.7-9.33 21.48-3.67 5.09 5.09c1.98-1.41 4.24-2.54 7.35-3.39s6.22-1.41 9.33-1.41c7.91 0 13.85 2.26 17.8 6.5 6.22-4.24 13.57-6.5 21.76-6.5 10.17 0 16.96 3.39 20.35 10.17 1.13 2.26 1.7 5.09 1.7 8.2v39.28l7.35 1.7v8.76h-33.06v-8.76l8.2-1.7v-35.33c0-5.65-3.11-8.48-9.04-8.48-3.96 0-7.63 1.13-11.02 3.67-.85.57-1.41 1.13-1.7 1.41v39l7.91 1.13z"/><path d="m2296.9 1686.95 21.76-3.67 5.09 5.09v52.85l7.91 1.41v8.76h-32.22l-1.7-8.76 8.2-1.7v-44.37h-7.35l-1.7-9.61zm9.33-20.07c-1.98-1.98-3.11-4.24-3.11-7.07s1.13-5.09 3.11-7.07 4.52-3.11 7.63-3.11 5.37 1.13 7.35 3.11 3.11 4.24 3.11 7.07-1.13 5.09-3.11 7.07-4.52 3.11-7.35 3.11-5.37-1.13-7.63-3.11z"/><path d="m2433.96 1670.28c0 9.89-5.65 19.5-16.96 28.83 1.13 1.41 2.26 2.54 3.39 3.96s2.26 2.54 3.96 4.24c4.24 4.52 7.91 8.2 11.02 11.02 1.41-3.11 2.83-6.5 3.39-10.17h-6.78l-3.11-11.87h27.7l2.26 2.26c-1.41 10.74-5.09 20.91-10.74 30.24l-.57 1.13c5.09 4.52 8.2 7.35 9.89 7.91l6.5-6.78 11.02 13.28c-1.41 1.7-3.39 3.39-6.22 5.09s-6.78 2.54-12.15 2.54c-9.04 0-16.11-2.54-21.48-7.63-6.78 5.37-15.26 7.91-24.87 7.91s-18.37-2.26-24.87-6.78c-7.35-5.37-11.02-13-11.02-23.17s5.65-18.65 16.96-26c-5.37-7.63-8.2-14.7-8.2-21.48 0-11.02 4.52-18.65 13.57-22.61 3.67-1.7 8.2-2.26 13.57-2.26 7.63 0 13.28 1.98 17.52 5.65 3.96 3.67 6.22 8.76 6.22 14.7zm-33.63 37.02c-4.8 4.52-7.07 9.61-7.07 15.26 0 4.24 1.7 7.91 4.8 11.02 3.39 3.11 7.35 4.8 12.15 4.8s9.33-1.7 13.28-4.8c-6.22-5.93-11.59-12.15-16.67-18.65l-6.5-7.63zm6.22-20.91c6.22-5.37 9.33-10.46 9.33-14.98 0-2.26-.57-3.96-1.98-5.37s-3.39-2.26-5.65-2.26-4.52.85-5.93 2.26c-1.41 1.7-2.26 3.39-2.26 5.65.28 3.67 2.26 8.48 6.5 14.7z"/><path d="m2554.07 1735c1.7-.85 2.83-1.98 3.67-3.39s1.41-3.11 1.41-5.09-.28-3.67-1.13-4.8-1.98-2.54-3.39-3.67c-1.98-1.41-5.65-3.39-11.02-5.93-5.65-2.54-9.89-4.52-13.28-6.22s-5.93-3.67-8.48-5.65c-5.09-4.8-7.63-10.74-7.63-18.37s3.39-14.13 9.89-19.22c6.22-4.52 14.41-6.78 24.02-6.78 9.04 0 18.37 1.13 27.7 3.67l2.26 26.28h-12.15l-7.07-14.7c-3.67-.57-7.63-.85-11.59-.85s-7.07 1.13-9.61 3.11c-2.26 1.98-3.67 4.24-3.67 6.78s.57 4.24 1.98 5.65 2.83 2.83 4.8 3.96c2.26 1.41 6.22 3.11 11.3 5.65s9.61 4.52 12.72 6.22 5.93 3.96 7.91 6.22c4.24 4.24 6.22 9.33 6.22 15.26s-1.13 10.46-3.11 14.13-4.8 6.5-8.2 8.76c-6.5 4.24-14.7 6.22-24.87 6.22-9.04 0-18.93-1.98-29.67-6.22l2.83-26.85 12.15.85 1.13 15.26c1.41.28 2.83.57 5.09 1.13s4.52.85 7.07.85 4.8-.28 6.78-.57c2.54 0 4.52-.85 5.93-1.7z"/><path d="m2598.16 1728.78.28-32.78h-11.02l-2.26-11.3 1.13-1.41h12.43v-23.17l15.54-3.11 1.41 2.26v24.3h14.7c.57 0 .85.28.85.85v11.87h-15.54v36.17c0 2.83.28 4.52 1.13 5.37.85.57 1.98 1.13 3.39 1.13 2.83 0 6.22-1.41 9.61-3.96 0 .28.28 1.13.85 1.98.28 1.13.85 1.98 1.13 3.11.85 3.11 1.41 5.09 1.7 5.93-1.41 1.41-3.67 2.83-6.78 4.24s-6.22 1.98-9.33 1.98-5.65-.28-7.91-.85-4.24-1.7-5.65-3.11c-3.67-3.11-5.65-8.48-5.65-15.54v-3.96z"/><path d="m2657.79 1724.26c1.41 9.89 7.07 14.7 17.52 14.7 4.52 0 7.91-.85 10.74-2.54s5.09-3.11 6.78-4.8l3.39 12.15c-2.83 3.39-7.91 5.93-15.54 7.35-2.54.57-5.65.85-9.04.85s-7.35-.57-11.3-1.98-7.35-3.39-10.46-6.22c-6.78-6.22-10.46-14.7-10.46-25.43 0-11.3 3.39-20.07 10.46-26.56 5.93-5.65 13.28-8.2 22.04-8.2 6.78 0 12.43 1.41 16.96 4.52 5.09 3.39 7.91 8.2 7.91 14.41 0 7.35-3.11 12.72-9.33 16.67-5.65 3.39-13 5.09-22.04 5.09h-3.96c-1.41 0-2.54 0-3.67 0zm0-11.59c.57 0 1.13.28 2.26.28h2.54c7.07 0 11.87-1.7 14.7-5.09.85-1.13 1.41-2.83 1.41-4.8s-.57-3.39-1.98-4.52-2.83-1.7-4.8-1.7-3.67.28-5.09 1.13-3.11 1.98-4.24 3.39c-2.83 3.11-4.24 6.78-4.8 11.3z"/><path d="m2747.09 1742.91v8.76h-37.3l-1.98-8.76 7.91-1.7v-44.93h-10.74l-2.26-11.3 1.13-1.41h11.87v-6.78c0-9.04 2.54-16.11 7.35-20.91 3.96-3.96 9.33-5.93 16.11-5.93 5.93 0 11.59 1.7 16.67 5.65 1.98 1.41 3.67 3.39 5.65 5.65l-16.67 9.61-5.93-7.63c-2.26 0-3.67.57-4.52 1.7s-1.13 2.83-1.13 4.8v13.85h16.67c.57 0 .85.28.85.85v11.87h-17.52v45.22l13.85 1.41z"/><path d="m2794.85 1745.45c-4.8 4.52-10.17 6.78-16.39 6.78s-11.87-1.7-15.83-5.37c-3.67-3.39-5.37-7.35-5.37-12.15s1.13-8.48 3.39-11.3 5.09-5.09 8.48-6.78c6.5-3.11 14.41-4.8 23.74-5.09v-11.02c0-1.13-.85-1.98-2.26-2.83s-3.39-1.41-5.37-1.41c-3.39 0-5.37.28-6.22.28l-3.67 10.17-18.09-7.35c1.98-4.52 5.37-8.2 10.46-11.3 5.37-3.11 11.3-4.8 17.52-4.8 11.02 0 18.65 3.96 22.89 11.87 1.41 2.83 2.26 6.22 2.26 10.46v31.09c0 1.98.85 3.11 2.54 3.11l2.26-.28 2.54 7.63c-3.67 3.11-7.63 4.52-11.59 4.52-5.09.57-9.04-1.7-11.3-6.22zm-1.7-22.04c-11.87.57-17.52 3.67-17.52 9.04 0 1.7.57 3.11 1.7 4.24 1.13 1.41 2.83 1.98 5.37 1.98s4.8-.57 6.5-1.98 3.39-2.83 3.96-4.52v-8.76z"/><path d="m2824.24 1686.95 21.48-3.67 5.09 5.09c1.98-1.41 4.24-2.54 7.35-3.39s6.22-1.41 9.33-1.41 5.93.28 8.76 1.13 5.09 1.7 7.07 3.39c4.52 3.11 6.78 7.91 6.78 13.85v39.56l7.91 1.13v8.76h-32.78v-8.76l7.35-1.41v-35.33c0-5.65-3.11-8.48-9.04-8.48-3.96 0-7.63 1.13-11.02 3.67-.85.57-1.41 1.13-1.7 1.41v39l8.2 1.7v8.76h-32.22l-1.7-8.76 8.2-1.7v-44.93h-7.35l-1.7-9.61z"/></svg>