<svg xmlns="http://www.w3.org/2000/svg"  id="Laag_2" viewBox="0 0 109.15 147.73">
    <defs>
        <style>
        .cls-1 {
            fill: #e10a17;
        }

        .cls-2 {
            clip-path: url(#clippath);
        }

        .cls-3 {
            fill: none;
        }

        .cls-4 {
            fill: #8c1b48;
        }

        .cls-5 {
            fill: #cae6e4;
        }
        </style>
        <clipPath id="clippath">
            <path class="cls-3" d="M82.18,34.79c-1.72,1.51-3.36,3.13-4.89,4.83-.71,.92-6.67,9.47-6.67,9.47,0,0-1.33,1.5-1.37,2.6v.13s0,.05,0,.08c0,.95,1.88,2.94,1.88,2.94l1.54,2.26s5.16,6.56,6.32,7.84c1.04,1.13,8.26,7.38,11.4,7.38h0c.33,.01,.66-.09,.93-.28,1.6-1.25-1.15-5.19-1.15-5.19l-5.51-7.21c-1.31-2.15-2.13-4.57-2.41-7.07-.16-2.93,.38-5.86,1.58-8.54,.51-.87,5.06-7.3,5.06-7.3,0,0,2.56-3.76,1.25-5.46-.24-.25-.57-.37-.91-.34-1.99,0-5.86,2.82-7.06,3.86" />
        </clipPath>
    </defs>
    <g id="Laag_1-2">
        <g id="Laag_2-2">
            <g id="Laag_1-2">
                <path class="cls-4" d="M40.12,12.35c2.92-.08,5.37,11.4,5.52,13.11s.29,10.07,.29,10.07l-.14,2.73s.3,2.73-.28,3.47c-.56,.96-2.79,1.41-2.79,1.41,0,0-9.9,3.23-11.02,3.5-2.25,.42-4.53,.72-6.82,.88-1.88,.13-8.33-.04-8.47-2.02,0-2.12,4.31-3.59,4.31-3.59,0,0,7.52-2.36,8.44-2.75,2.58-1.41,4.78-3.41,6.42-5.84,1.29-2.16,2.09-4.58,2.36-7.08v-9.08s.21-4.82,2.23-4.82" />
                <path class="cls-4" d="M87.84,22.78c1.07,2.71-8.87,8.94-10.42,9.68s-9.35,3.76-9.35,3.76l-2.62,.76s-2.46,1.25-3.36,.94c-1.09-.2-2.28-2.14-2.28-2.14,0,0-6.41-8.2-7.07-9.17-1.18-1.97-2.24-4-3.17-6.1-.77-1.73-2.83-7.84-1.01-8.65,1.99-.75,4.85,2.81,4.85,2.81,0,0,4.8,6.27,5.48,6.99,2.2,1.94,4.84,3.33,7.69,4.04,2.47,.47,5.02,.4,7.46-.21l8.52-3.13s4.6-1.45,5.3,.45" />
                <g class="cls-2">
                    <rect class="cls-1" x="69.24" y="30.93" width="23.69" height="41.39" />
                </g>
                <path class="cls-4" d="M47.76,91.8c-2.44-1.62,2.17-12.4,3.02-13.9,.85-1.5,5.55-8.4,5.55-8.4l1.69-2.16s1.33-2.41,2.23-2.68c1-.46,3.09,.45,3.09,.45,0,0,9.96,3.08,11.04,3.49,2.09,.94,4.12,2.01,6.09,3.19,1.62,.98,6.8,4.82,5.77,6.53-1.2,1.75-5.58,.46-5.58,.46,0,0-7.52-2.39-8.48-2.61-2.92-.33-5.87,.04-8.62,1.08-2.3,1.03-4.35,2.54-6,4.44l-5.2,7.44s-2.95,3.82-4.59,2.66" />
                <path class="cls-4" d="M15.54,54.11c.8-2.81,12.48-1.7,14.17-1.33,1.69,.37,9.68,2.74,9.68,2.74l2.6,.95s2.7,.54,3.23,1.32c.74,.82,.5,3.08,.5,3.08,0,0,.08,10.43,0,11.58-.27,2.28-.68,4.54-1.22,6.77-.45,1.84-2.51,7.94-4.47,7.47-2.04-.63-2.13-5.18-2.13-5.18,0,0,0-7.87-.09-8.88-.57-2.88-1.82-5.58-3.65-7.88-1.67-1.88-3.74-3.38-6.04-4.39l-8.65-2.71s-4.54-1.65-3.93-3.57" />
            </g>
        </g>
    </g>
</svg>