<svg viewBox="0 0 485 431" fill="none" xmlns="http://www.w3.org/2000/svg"><path d="M19.8408 375.687L0 429.979H17.8854L20.5884 421.755H38.7038L41.4068 429.979H59.3497L39.5665 375.687H19.9558H19.8408ZM24.6715 408.987L29.5598 393.861L34.4481 408.987H24.614H24.6715Z" fill="white" ></path><path d="M76.8894 398.002C78.2696 398.002 79.3623 398.347 80.1674 398.98C80.9725 399.613 81.5476 400.533 81.7777 401.683H96.9027C96.2125 397.082 94.2572 393.344 90.9792 390.468C87.7011 387.592 83.1004 386.155 77.2919 386.155C73.3813 386.155 69.9882 386.787 67.2278 388.052C64.4673 389.318 62.397 391.043 60.9593 393.171C59.579 395.357 58.8314 397.772 58.8314 400.418C58.8314 403.466 59.579 405.882 61.0743 407.607C62.5695 409.332 64.3523 410.598 66.3651 411.288C68.378 411.978 70.9659 412.668 74.0714 413.301C76.6018 413.818 78.4421 414.279 79.5348 414.681C80.6275 415.084 81.1451 415.774 81.1451 416.752C81.1451 417.327 80.915 417.787 80.3974 418.189C79.8799 418.592 79.1897 418.765 78.3271 418.765C76.9469 418.765 75.7967 418.477 74.934 417.844C74.0139 417.212 73.4963 416.292 73.2663 415.026H56.9336C57.1636 418.017 58.2563 420.663 60.0966 423.021C61.9369 425.379 64.4098 427.219 67.5728 428.542C70.7359 429.865 74.359 430.555 78.4421 430.555C82.1802 430.555 85.4583 429.98 88.2187 428.772C90.9792 427.622 93.1645 426.011 94.6023 423.941C96.0975 421.87 96.8451 419.57 96.8451 417.039C96.8451 413.761 96.04 411.173 94.4873 409.332C92.877 407.492 91.0367 406.169 88.9088 405.364C86.781 404.616 84.1356 403.926 81.03 403.294C78.6722 402.833 76.9469 402.373 75.9117 401.971C74.819 401.511 74.3014 400.878 74.3014 400.015C74.3014 399.325 74.5315 398.865 74.9916 398.52C75.4516 398.175 76.1417 398.002 77.0044 398.002H76.8894Z" fill="white" ></path><path d="M121.923 414.796C121.462 414.336 121.175 413.588 121.175 412.553V400.878H128.249V386.672H121.175V376.262H104.152V386.672H98.8037V400.878H104.152V412.208C104.152 423.998 110.076 429.922 121.923 429.922H128.364V415.429H124.28C123.13 415.429 122.325 415.199 121.865 414.739L121.923 414.796Z" fill="white" ></path><path d="M228.254 400.763C230.21 400.763 231.475 401.913 232.165 404.156H250.165C249.13 398.52 246.715 394.149 242.862 390.985C239.009 387.822 234.235 386.212 228.657 386.212C224.344 386.212 220.548 387.132 217.212 388.915C213.877 390.698 211.232 393.286 209.391 396.622C207.551 399.957 206.573 403.868 206.573 408.412C206.573 412.955 207.493 416.809 209.391 420.202C211.232 423.538 213.877 426.126 217.212 427.909C220.548 429.692 224.401 430.612 228.657 430.612C234.293 430.612 239.009 429.002 242.862 425.838C246.715 422.675 249.188 418.247 250.165 412.668H232.165C231.475 414.911 230.21 416.061 228.254 416.061C226.874 416.061 225.781 415.428 224.976 414.163C224.171 412.898 223.769 411 223.769 408.469C223.769 405.939 224.171 404.098 224.976 402.775C225.781 401.51 226.874 400.878 228.254 400.878V400.763Z" fill="white" ></path><path d="M281.451 392.654C280.358 390.641 278.805 389.088 276.793 387.938C274.722 386.787 272.307 386.212 269.489 386.212C266.096 386.212 263.048 387.075 260.345 388.858C257.642 390.641 255.514 393.171 253.961 396.507C252.409 399.843 251.604 403.811 251.604 408.355C251.604 412.898 252.409 416.867 253.961 420.203C255.514 423.538 257.642 426.127 260.345 427.852C263.048 429.635 266.096 430.498 269.489 430.498C272.307 430.498 274.722 429.922 276.793 428.772C278.863 427.622 280.416 426.069 281.451 424.056V429.98H298.416V386.73H281.451V392.654ZM279.668 413.761C278.518 415.026 276.965 415.659 275.125 415.659C273.285 415.659 271.789 415.026 270.582 413.761C269.431 412.496 268.799 410.713 268.799 408.412C268.799 406.112 269.374 404.329 270.582 403.064C271.732 401.798 273.285 401.166 275.125 401.166C276.965 401.166 278.46 401.798 279.668 403.064C280.818 404.329 281.451 406.112 281.451 408.412C281.451 410.713 280.876 412.496 279.668 413.761Z" fill="white" ></path><path d="M331.023 392.653C329.93 390.641 328.378 389.088 326.365 387.937C324.352 386.787 321.937 386.212 319.119 386.212C315.726 386.212 312.678 387.075 309.975 388.858C307.272 390.64 305.144 393.171 303.591 396.507C302.038 399.843 301.233 403.811 301.233 408.355C301.233 412.898 302.038 416.867 303.591 420.202C305.144 423.538 307.272 426.126 309.975 427.852C312.678 429.635 315.726 430.497 319.119 430.497C321.937 430.497 324.352 429.922 326.365 428.772C328.378 427.622 329.93 426.069 331.023 424.056V429.98H348.046V373.214H331.023V392.596V392.653ZM329.355 413.761C328.205 415.026 326.652 415.659 324.812 415.659C322.972 415.659 321.476 415.026 320.269 413.761C319.119 412.496 318.486 410.713 318.486 408.412C318.486 406.112 319.061 404.329 320.269 403.063C321.419 401.798 322.972 401.165 324.812 401.165C326.652 401.165 328.148 401.798 329.355 403.063C330.505 404.329 331.138 406.112 331.138 408.412C331.138 410.713 330.563 412.496 329.355 413.761Z" fill="white" ></path><path d="M384.854 388.857C381.519 387.074 377.665 386.212 373.41 386.212C369.154 386.212 365.301 387.132 361.965 388.915C358.63 390.698 355.984 393.286 354.144 396.622C352.304 399.957 351.326 403.868 351.326 408.412C351.326 412.955 352.246 416.809 354.144 420.202C355.984 423.538 358.63 426.126 361.965 427.909C365.301 429.692 369.154 430.612 373.41 430.612C376.975 430.612 380.253 429.922 383.244 428.484C386.234 427.104 388.707 425.148 390.663 422.733C392.618 420.317 393.941 417.556 394.516 414.508H376.515C375.71 416.176 374.387 417.039 372.547 417.039C369.672 417.039 368.119 415.198 367.889 411.46H395.263C395.436 410.367 395.493 409.275 395.493 408.067C395.493 403.638 394.573 399.785 392.675 396.507C390.835 393.228 388.19 390.698 384.854 388.972V388.857ZM368.119 403.926C368.637 400.993 370.419 399.555 373.41 399.555C374.79 399.555 375.94 399.9 376.86 400.648C377.78 401.395 378.241 402.488 378.241 403.926H368.119Z" fill="white" ></path><path d="M426.09 375.687L406.249 429.98H424.134L426.837 421.755H444.953L447.656 429.98H465.599L445.815 375.687H426.205H426.09ZM430.921 408.987L435.809 393.861L440.697 408.987H430.863H430.921Z" fill="#D619DB" ></path><path d="M484.459 375.687H467.436V429.98H484.459V375.687Z" fill="#D619DB" ></path><path d="M193.807 389.088C190.357 387.305 186.446 386.384 182.075 386.384C177.705 386.384 173.794 387.305 170.343 389.088C166.893 390.87 164.132 393.459 162.177 396.794C160.222 400.13 159.244 404.041 159.244 408.585C159.244 413.128 160.222 416.982 162.177 420.375C164.132 423.711 166.893 426.299 170.343 428.082C173.794 429.864 177.705 430.785 182.075 430.785C186.446 430.785 190.357 429.864 193.807 428.082C197.258 426.299 200.018 423.711 201.974 420.375C203.929 417.039 204.907 413.128 204.907 408.585C204.907 404.041 203.929 400.188 201.974 396.794C200.018 393.459 197.258 390.87 193.807 389.088ZM186.044 414.106C184.951 415.371 183.628 416.004 182.075 416.004C180.523 416.004 179.085 415.371 178.05 414.106C177.015 412.841 176.497 411 176.497 408.527C176.497 406.054 177.015 404.214 178.107 402.948C179.2 401.683 180.523 401.05 182.075 401.05C183.628 401.05 185.008 401.683 186.044 402.948C187.136 404.214 187.654 406.054 187.654 408.527C187.654 411 187.136 412.841 186.044 414.106Z" fill="white" ></path><path d="M159.243 386.845C157.747 387.19 156.252 387.765 154.757 388.628C152.227 390.123 150.156 392.193 148.373 394.667V386.672H131.351V429.922H148.373V412.208C148.373 407.147 153.319 405.422 157.747 404.846L159.185 386.845H159.243Z" fill="white" ></path><path d="M399.632 122.743L392.674 101.348C391.006 96.2295 386.693 92.4337 381.459 91.3984L304.454 76.4449L266.441 7.83151C263.853 3.11541 258.907 0.239746 253.501 0.239746H231.015C225.666 0.239746 220.721 3.17293 218.075 7.83151L180.061 76.4449L103.056 91.3984C97.7654 92.4337 93.5097 96.2295 91.8419 101.348L84.8833 122.743C83.2155 127.862 84.4807 133.441 88.1038 137.352L141.588 194.75L132.041 272.623C131.408 277.972 133.651 283.205 138.022 286.369L156.195 299.597C160.566 302.76 166.259 303.278 171.09 301.035L242.172 267.849L313.253 301.035C318.141 303.278 323.835 302.76 328.148 299.597L346.321 286.369C350.692 283.205 352.935 277.972 352.302 272.623L342.755 194.75L396.239 137.352C399.92 133.441 401.128 127.804 399.46 122.743H399.632ZM225.379 157.711C225.379 160.299 223.251 162.427 220.663 162.427H202.03V181.062C202.03 183.65 199.902 185.778 197.314 185.778H182.477C179.889 185.778 177.761 183.65 177.761 181.062V162.427H159.128C156.54 162.427 154.412 160.299 154.412 157.711V142.873C154.412 140.285 156.54 138.157 159.128 138.157H177.761V119.522C177.761 116.934 179.889 114.806 182.477 114.806H197.314C199.902 114.806 202.03 116.934 202.03 119.522V138.157H220.663C223.251 138.157 225.379 140.285 225.379 142.873V157.711ZM291.917 186.641C282.313 186.641 274.492 178.876 274.492 169.214C274.492 159.552 282.256 151.845 291.917 151.845C301.579 151.845 309.285 159.609 309.285 169.214C309.285 178.819 301.521 186.641 291.917 186.641ZM327.285 148.739C317.681 148.739 309.918 140.975 309.918 131.37C309.918 121.765 317.681 113.944 327.285 113.944C336.89 113.944 344.711 121.708 344.711 131.37C344.711 141.032 336.947 148.739 327.285 148.739Z" fill="url(#paint0_linear_528_39)"></path><defs><linearGradient id="paint0_linear_528_39" x1="242.229" y1="0.239746" x2="242.229" y2="302.415" gradientUnits="userSpaceOnUse"><stop stop-color="#FF499B" ></stop><stop offset="1" stop-color="#AD00FF" ></stop></linearGradient></defs></svg>