<?xml version="1.0" ?>
<!-- Generator: Adobe Illustrator 15.0.0, SVG Export Plug-In . SVG Version: 6.00 Build 0)  -->

<svg xmlns="http://www.w3.org/2000/svg"  version="1.1" x="0px" y="0px" viewBox="0 0 1200 668" enable-background="new 0 0 1200 668" xml:space="preserve">
	<g id="Layer_2">
		<path fill="#164322" d="M4.002,566.271v-1.36c5.232-1.808,11.333-2.714,12.943-3.168l9.211-1.812   c0.805-0.451,5.093-1.356,8.093-1.356s170.151-258.841,175.383-277.402l24.201-8.506l-7.649,300.847   c-13.685,0-28.981,0.906-40.25,2.717l-15.296,2.266c-0.805,0-3.225,0.452-5.638,0.452l-0.801-10.866   c10.061-3.623,18.514-5.434,31.797-8.15L206,558.575l4.513-93.353c-9.258-0.452-78.536-0.768-89.401,0.139   c-19.462,29.739-41.315,81.406-44.447,93.214c5.199,0.599,25.335,2.175,34.002,9.507l-4.429,10.866   c-16.903-3.623-32.055-4.98-50.571-4.98c0-8.603,11.939-37.823,11.939-37.823c-2.248,0-22.605,32.522-26.975,37.823   c-12.075,0-14.894,0.452-36.225,4.075l-4.43,0.905L4.002,566.271z M211.75,445.188c0.766-18.236,0.872-107.19,1.081-129.688   c0,0-77.097,120.296-79.512,129.35C141.371,444.85,211.75,445.188,211.75,445.188z M278.911,576.685c0,0-28.577-3.171-34.212-3.171   c-1.207-4.073,3.552-306.264,3.552-306.264l19.75-5.917c0,0-4.22,290.45-1,298.147l5.913,0.905   c20.528,4.073,18.878,4.979,26.93,7.696l-4.609,11.771C285.976,578.043,282.132,577.137,278.911,576.685z"/>
		<path fill="#164322" d="M302.655,472.184l9.099-3.501c6.299,15.401,9.451,21.698,14,28.7   c12.949,20.999,31.147,31.498,54.598,31.498c28.349,0,47.597-17.148,47.597-42.35c0-10.848-4.55-21.697-12.249-29.049   c-9.099-8.399-14.35-11.198-43.398-23.447c-41.997-17.501-60.547-38.849-60.547-69.647c0-22.398,10.849-41.648,29.398-52.848   c13.3-8.05,31.149-11.9,55.298-11.9c11.899,0,23.799,1.049,40.249,2.801l5.25,0.7c0.352-1.4,0.352-2.801,0.7-3.501   c0.352-1.749,0.352-3.149,0.701-3.5l0.351-2.8c0-0.349,0.349-0.7,0.349-1.398l11.2,2.098l-0.349,3.5c-0.701,7-0.701,7-1.4,14.35   v3.149l-3.152-0.697c-10.848-1.401-14.349-1.752-20.648-1.752c-1.051,0-3.149,0.351-5.601,0.351   c14.7,4.899,22.399,8.048,29.049,11.2v5.249c0,14.699,0.701,26.599,1.4,38.498l0.352,4.549h-11.551L443,368.938   c-1.751-16.45-2.452-23.1-2.452-36.75c-16.798-10.149-34.299-15.398-50.396-15.398c-23.1,0-38.5,13.648-38.5,33.947   c0,18.901,10.151,29.05,42.349,41.648c27.998,11.201,39.549,17.502,51.449,27.302c15.4,12.948,23.799,30.798,23.799,51.448   c0,44.798-34.999,73.496-89.948,73.496c-16.798,0-31.847-2.449-60.196-9.801L302.655,472.184z M454.199,473.583   c0-28.7-16.1-45.498-60.898-64.397c-24.849-10.501-30.449-13.299-38.848-19.949c-11.2-8.75-17.85-22.398-17.85-36.399   c0-10.498,2.801-18.549,9.8-29.048c-11.899,9.099-18.898,23.452-18.898,39.548c0,22.398,14.7,39.199,45.498,52.848l26.249,11.549   c30.098,13.301,44.098,31.15,44.098,55.998c0,14.001-3.85,24.499-12.949,35.698C445.449,509.631,454.199,493.183,454.199,473.583z"/>
		<path fill="#164322" d="M523.876,528.881l5.601-1.4l13.648-2.8c10.5-2.45,12.949-3.149,19.25-4.199   c1.049-9.801,1.4-15.748,1.749-36.05l0.352-31.847c0.349-8.052,0.349-17.15,0.349-26.949c0-12.251,0-23.8-0.349-34.65l-0.7-32.898   c-0.351-18.55-0.7-23.448-1.4-33.947c-12.251,1.399-19.25,2.797-34.299,5.95c-14,3.149-20.65,4.898-29.749,7.699   c-0.349,2.101-0.349,3.501-0.349,3.85l-1.4,12.949c-0.352,4.899-1.052,10.149-2.101,18.2h-11.9l0.349-4.201l0.7-13.648   c0.7-7.697,0.7-15.4,0.7-21.35c0-1.049,0-2.798,0-5.25c9.802-3.149,22.05-6.65,34.999-9.099c-6.298-0.701-8.05-0.701-14.349-1.4   c-5.25-0.7-14.349-1.4-17.499-1.75l-3.5-0.351l-0.351-3.15c-0.349-5.598-0.349-4.898-1.049-11.199c-0.349-0.701-0.349-2.1-0.7-3.85   l11.551-2.449l1.049,8.05c9.799,1.049,17.149,1.749,31.85,3.149c20.647,1.401,29.398,2.101,48.997,2.798l4.2,0.351   c0.349,2.101,0.349,3.85,0.349,4.901c0,3.849,0.352,6.999,0.352,18.898c0,4.199,0.348,8.399,0.348,12.599l0.352,35.7   c0,3.849,0,7.698,0.349,20.647c0,4.9,0,8.05,0,13.648v29.4c0,18.899-0.701,61.597-1.4,82.595l-0.349,4.901   c-19.95,0.35-36.748,2.1-53.897,5.949L523.876,528.881z M594.923,532.73v-4.901c-1.048-23.096-1.749-64.045-1.749-84.346v-27.649   c0-7.348,0-12.948,0.352-20.647c0-10.151,0-9.8,0-13.648l0.349-35.7c0.352-21.698,0.7-27.648,1.048-36.399l4.201-0.351   c19.95-0.698,28.7-1.397,49-2.798c14.696-1.4,22.046-2.1,31.847-3.149l1.399-8.05l11.201,2.449c-0.35,1.75-0.35,3.149-0.702,3.85   c-0.349,3.5-0.349,5.249-0.349,5.601l-0.7,5.598l-0.351,3.15l-3.498,0.351c-4.901,0.349-14.349,1.4-20.298,2.101   c-4.203,0.349-6.302,0.349-11.552,1.049c12.949,2.449,25.2,5.95,34.998,9.099c0,2.452,0,4.201,0,5.25c0,5.949,0.35,15.4,0.7,21.35   l0.7,13.648l0.349,4.201h-11.898c-1.048-8.051-1.75-13.301-2.1-18.2l-1.399-12.949c0-0.349,0-1.749-0.351-3.85   c-9.799-2.801-18.55-5.25-33.6-8.399c-12.6-2.8-19.249-3.85-30.448-5.249c-0.698,10.499-1.05,15.397-1.397,33.947l-0.701,32.898   c-0.352,10.851-0.352,22.399-0.352,34.999c0,9.45,0,18.549,0.352,26.601l0.35,31.847c0.352,20.302,0.699,26.249,1.749,36.05   c6.3,1.05,8.401,1.749,19.25,4.199l13.65,2.8l5.599,1.4l-1.75,9.799C631.674,534.83,614.874,533.08,594.923,532.73z"/>
		<path fill="#164322" d="M738.396,523.28l3.849-0.701c0.352-9.799,0.7-17.846,1.052-39.897l0.7-31.849c0-8.399,0-18.897,0-31.498   c0-18.198,0-35.699-0.7-55.646c-0.352-15.051-0.352-28.001-0.7-34.651l-0.352-6.999c-8.398-0.7-20.647-3.149-33.599-6.3l1.752-9.8   c17.498,2.801,33.946,4.549,48.997,4.549c0.7,12.251,0.7,21.7,1.05,40.6c0.35,22.747,0.35,36.049,0.35,53.546   c0,18.201,0,40.249,0,51.101l-0.699,36.048c0,7.001,0,13.648-0.35,20.649c0,11.55,0,11.899-0.351,20.299   c-13.298,0.35-22.749,1.399-31.849,3.15l-13.299,2.451c-0.7,0-2.101,0.348-4.201,0.697l-1.4-9.099   C717.749,527.132,720.198,526.432,738.396,523.28z M818.894,537.632l-11.549-1.751c-12.6-1.751-24.149-2.801-33.249-3.15   l-0.35-8.399c0-3.149,0-5.601,0-17.85v-5.949v-5.95l-0.352-38.848c-0.349-19.25-0.349-33.25-0.349-46.199c0-9.45,0-18.198,0-24.849   l0.349-37.099l0.352-32.55c0.35-1.049,0.35-3.149,0.35-5.599c20.998-2.801,36.047-3.85,51.797-3.85   c25.899,0,43.049,4.898,56.349,16.449c13.3,11.549,20.65,27.999,20.65,46.899c0,19.948-8.401,37.097-24.151,49.696   c-6.999,5.602-13.3,8.752-27.297,13.302l2.798,4.899l15.4,24.148l18.898,29.397c3.151,5.601,6.649,10.851,10.15,16.101   c5.25,8.051,5.601,9.1,10.499,16.098l4.901,0.701c10.148,1.751,12.949,2.451,20.998,4.2l5.6,1.4l-2.449,9.799   c-14.35-2.799-22.75-3.85-41.648-4.2l-2.449-3.849c-5.602-8.4-11.2-17.15-16.801-26.249l-14.698-23.448l-18.9-29.749l-15.75-25.2   l-3.498-5.949c20.648-6.299,32.199-23.8,32.199-49.348c0-31.851-18.551-50.749-50.049-50.749c-5.25,0-8.75,0.352-14.349,1.4   c-0.7,10.5-1.052,16.099-1.052,31.498c-0.699,28-1.048,40.598-1.048,58.099c0,11.899,0.349,22.748,0.349,42.697l0.699,30.451   c0,6.297,0,13.648,0,19.949c0.352,12.597,0.352,11.548,0.7,18.197l3.502,0.701l11.898,2.1c5.949,1.4,10.499,2.449,18.198,4.199   l-1.748,9.102C820.993,537.98,819.245,537.632,818.894,537.632z M858.793,532.03c-2.451-4.55-4.901-8.75-11.551-19.599   c-4.201-7.001-9.799-16.101-17.149-28.348c-9.1-15.751-11.899-20.3-13.648-22.752l-18.201-29.396l-3.85-6.3   c7.702-0.699,10.5-1.052,17.501-2.101l2.801,3.851c4.55,6.998,10.848,17.497,18.897,30.797l22.749,38.148l19.25,32.899l3.849,6.302   c-7.35,0.349-9.799,0.699-17.498,2.1L858.793,532.03z M886.442,368.938c0-25.9-16.101-45.149-40.95-49.347   c5.6,3.497,7.351,4.898,9.101,6.298c10.499,9.099,17.498,26.249,17.498,43.75c0,18.898-6.299,34.996-18.899,47.247   C875.243,408.486,886.442,392.037,886.442,368.938z"/>
		<path fill="#164322" d="M1198.75,537.404l-6.553-0.69c-18.272-2.758-19.327-1.741-29.67-1.741   c-1.379-3.794-19.246-25.061-20.625-27.82c0,0,8.854,20.876,8.854,27.428c-15.861,0-28.561,1.115-43.041,3.873l-4.475-9.323   c8.966-3.448,30.663-7.241,30.663-7.241s-29.402-59.222-39.153-69.648c-3.739-0.554-70.569,0.346-78.5,0.688l4.5,68.96l7.324,1.035   c11.38,2.067,18.621,3.446,27.239,6.206l0.187,8.274c-2.066,0-5.013-0.344-5.702-0.344l-13.103-1.726   c-9.653-1.379-22.757-2.069-34.48-2.069l-0.715-7.584l-2.5-88.269l-2-131.163l21,6.75c0,0,42.356,62.178,82.662,118.495   c31.83,44.475,62.675,85.001,68.338,90.394c0,0,19.061,3.448,23.542,4.825l3.792,1.037L1198.75,537.404z M1085,437.413   l-70.25-98.266l1,98.266C1022.3,437.759,1085,437.413,1085,437.413z M938.239,538.093l0.878-8.963   c6.896-2.069,27.373-6.551,27.373-6.551c2.758-5.861,0.76-225.329,0.76-225.329l17.209,5.959c0,0,2.931,226.953,1.897,230.056   C981.528,533.266,946.172,536.714,938.239,538.093z"/>
		<rect x="315.333" y="569.521" fill="#7A1D21" width="884.667" height="12.666"/>
		<path fill="#7A1D21" d="M775.773,611.99l57.667,0.014c21.808,0.005,34.688,2.099,34.685,14.339   c-0.002,7.091-2.784,11.718-17.274,12.908v0.598c16.246,0.526,19.025,5.527,19.024,12.544   c-0.004,13.733-12.592,15.597-35.863,15.591l-58.252-0.013L775.773,611.99z M805.036,655.737l22.101,0.005   c9.513,0.002,13.464-1.117,13.466-5.669c0.001-4.629-3.366-5.301-12.879-5.303l-22.686-0.005L805.036,655.737z M805.041,634.391   l21.075,0.005c10.246,0.002,12.733-0.895,12.734-5.372c0.001-3.358-1.022-4.628-9.219-4.778l-24.589-0.006L805.041,634.391z"/>
		<path fill="#7A1D21" d="M908.667,655.154l-9.334,12.826l-25.985-0.301l42.152-55.351l25.5,0.009l42.667,55.641L958.333,668   L948,655.163L908.667,655.154z M927.875,626.334l-13.708,18.754l28.333,0.006L927.875,626.334z"/>
		<path fill="#7A1D21" d="M1016,668.025l-21.345-0.008l0.012-55.575l28.833,0.011l40.91,39.789l-0.577-39.781l22,0.007l0.5,55.575   l-28.5-0.011l-41.722-40.031L1016,668.025z"/>
		<path fill="#7A1D21" d="M1129.001,668.054l-21.675-0.007l0.012-55.547l21.329,0.006 M1140.31,646.281 M1130.167,640l39-27.656   l28.334,0.008l-41.834,27.33l41,28.389l-29.853-0.008"/>
	</g>
	<g id="Layer_3">
		<path fill="#7A1D21" d="M970.638,0.638l-94.05,126.237l-130.316,1.353l71.223,59.209L725.08,290.914   c0,0,140.102-47.398,140.633-47.07s67.404,90.873,67.404,90.873l14.471-126.498l142.234-80.729c0,0-131.191-0.527-131.922-0.99   C956.816,125.813,970.638,0.638,970.638,0.638z"/>
		<path fill="#FFFFFF" d="M942.164,61.375l-7.156,82c0,0,85.133,0.413,85.438,0.906l-92.313,53.594l-12.063,90.5l-48.75-63.781   l-86.875,28.438l57.375-68.406l-47.656-39.344l90.688-0.906L942.164,61.375z"/>
	</g>
</svg>