<svg xmlns="http://www.w3.org/2000/svg" id="Layer_1" x="0" y="0" version="1.1" viewBox="0 0 300 300" xml:space="preserve"><style>.st7{fill:#fff}</style><path fill="#201747" fill-rule="evenodd" d="M-6.7-19.7H307V305H-6.7z" clip-rule="evenodd"/><path fill="#fff" d="M306-5.7L-62.2 362.5-66.5-.9l14.2-12.3z" opacity=".15"/><path fill="#80bc00" fill-rule="evenodd" d="M45.2 160c-3.1-20.5 50.6-45.5 119.9-55.8 17-2.5 33.1-3.9 48.2-4.2l6.8-10.5c-18.5.7-39.4 3.3-61.3 7.8-68.6 14.1-120.8 42-116.6 62.3 1.1 5.3 6 9.6 13.8 12.7-6.3-3.4-10.1-7.5-10.8-12.3z" clip-rule="evenodd"/><path fill="#fff" fill-rule="evenodd" d="M225.5 53.5c-11.6 2.4-23.5 5.1-35.7 8.5-82.6 23.3-144 62.3-137 87 .9 3.2 2.9 6 5.8 8.4-2-2.4-3.3-5-3.7-7.8-3.9-25.4 61.7-56.7 146.6-69.7 9.2-1.4 18.2-2.5 27-3.4l9.6-14.8-12.6-8.2z" clip-rule="evenodd"/><g fill-rule="evenodd" clip-rule="evenodd"><path fill="#009ade" d="M201.6 67.3c12.5-2.4 24.6-4.2 36.4-5.6l-12.5-8.1c-11.6 2.4-23.5 5.1-35.7 8.5-42 11.9-78.5 27.8-103.4 43.8 27.6-15.4 68.5-29.5 115.2-38.6z"/><path fill="#178ece" d="M88.2 113.5c-21.2 9.3-34.4 20.1-35.9 31.1-.1 1.6.1 3.1.5 4.5.9 3.2 2.9 6 5.8 8.4-2-2.4-3.3-5-3.7-7.8-1.8-11.7 10.9-24.5 33.3-36.2z" opacity=".7"/></g><path d="M113.8 200.3h-.4c-4.3 6.3-11.4 9.1-19.5 9.1-11.2 0-22.1-5.7-22.1-16.8 0-18.2 23-19.5 38.2-19.5h3.8v-1.5c0-6.9-5.8-10.5-13.9-10.5-6.3 0-12.1 2.3-16.2 5.8l-8-7.4c6.7-6.3 16.2-9 25.8-9 25.9 0 25.9 17.3 25.9 25.2V208h-13.6v-7.7zm-.9-17.4h-3.2c-8.3 0-22.7.6-22.7 8.6 0 5.1 5.7 7.4 10.6 7.4 10.4 0 15.3-5 15.3-12.8v-3.2zM136.6 163.9V152h12.5v-16.2h15.2V152H181v11.9h-16.7v24.5c0 5.6 1.8 9.1 8.5 9.1 2.7 0 6.3-.5 8.2-1.7v11.8c-3.2 1.4-8.5 1.9-12 1.9-16 0-19.8-6.7-19.8-19.8V164h-12.6zM252.1 152v51c0 20.2-10.6 33-34.2 33-11.2 0-21.5-2.2-30.1-9.2l9.1-11.4c6.1 5.1 12.4 8.1 20.8 8.1 14.7 0 19.2-7.7 19.2-18.8v-4.1h-.3c-4.4 5.5-12.3 8.2-19.8 8.2-18.2 0-30.2-12.8-30.2-28.7 0-16.6 11.2-29.4 29.9-29.4 8.5 0 16.4 3 20.9 9.8h.3V152h14.4zm-50.3 27.9c0 8.9 7.6 16.2 17.8 16.2 11.2 0 18.1-7.1 18.1-16.5 0-9.7-6.9-16.5-17.9-16.5-10.6.1-18 6.8-18 16.8z" class="st7"/><g><path d="M44.1 229.5l-1.1 2.8h-1.1l4.1-9.9h1l4.1 9.9H50l-1.1-2.8h-4.8zm2.4-5.6l-1.9 4.7h3.8l-1.9-4.7zM63.6 224.2l-1.3 1.3s-.9-1.4-2.8-1.4c-1.8 0-3.3 1.4-3.3 3.3 0 1.8 1.4 3.3 3.3 3.3s2.9-1.4 2.9-1.4l1.3 1.3s-1.4 2-4.2 2c-3 0-5.4-2.3-5.4-5.2 0-2.8 2.3-5.2 5.4-5.2 2.7 0 4.1 2 4.1 2zM67.8 232.4c-2 0-3.7-1.7-3.7-3.6 0-1.9 1.7-3.6 3.7-3.6s3.7 1.7 3.7 3.6c0 1.9-1.7 3.6-3.7 3.6zm0-1.7c.9 0 1.7-.8 1.7-1.8 0-1.1-.8-1.8-1.7-1.8-.9 0-1.7.8-1.7 1.8s.8 1.8 1.7 1.8zM77.3 231.2s-.7 1-2 1c-1.6 0-3.1-1.6-3.1-3.5s1.6-3.5 3.1-3.5c1.3 0 2 1 2 1v-.8h1.9v6.4c0 2-1.6 3.5-3.7 3.5s-3.2-1.5-3.2-1.5l1.2-1.1s.6.9 1.9.9c1.1 0 1.8-.7 1.8-1.8v-.6zm-1.6-.8c.8 0 1.6-.7 1.6-1.7s-.8-1.7-1.6-1.7-1.6.7-1.6 1.7.7 1.7 1.6 1.7zM82.6 226.2s.7-1 2-1c1.6 0 2.7 1.1 2.7 3v4h-1.9v-3.8c0-.8-.6-1.4-1.3-1.4-.8 0-1.4.6-1.4 1.6v3.6h-1.9v-6.9h1.9v.9zM89.7 224.4c-.6 0-1.1-.4-1.1-1.1 0-.6.4-1.1 1.1-1.1.7 0 1.1.4 1.1 1.1.1.7-.4 1.1-1.1 1.1zm1 7.9h-1.9v-6.9h1.9v6.9zM97.7 227.1l-3.4 3.5h3.5v1.7h-5.9v-1.7l3.4-3.5H92v-1.7h5.7v1.7zM102.8 231.6s-.7.8-1.9.8c-1.4 0-2.3-.9-2.3-2s.8-1.9 2-2.1l2.2-.4c0-.6-.4-1-1.2-1-1.1 0-1.6.7-1.6.7l-1.1-1.1s.9-1.3 2.8-1.3c1.8 0 3 1.2 3 2.8v4.3h-1.9v-.7zm0-2.3v-.2l-1.6.3c-.5.1-.8.4-.8.8s.3.7.9.7c.9 0 1.5-.6 1.5-1.6zM108.1 226.2s.7-1 2-1c1.6 0 2.7 1.1 2.7 3v4h-1.9v-3.8c0-.8-.6-1.4-1.3-1.4-.8 0-1.4.6-1.4 1.6v3.6h-1.9v-6.9h1.9v.9zM115.1 223.3h1.7v2.2h1.4v1.7h-1.4v2.8c0 .4.4.8.8.8s.7-.1.7-.1v1.6s-.6.2-1.3.2c-1.4 0-2.2-.8-2.2-2.4v-2.8h-1.2v-1.7h.6c.4 0 .8-.4.8-.9v-1.4zM127 222.3c2.7 0 4 2 4 2l-.7.6s-1.1-1.7-3.3-1.7c-2.3 0-4 1.8-4 4.1s1.8 4.1 4 4.1c2.3 0 3.4-1.7 3.4-1.7l.7.6s-1.4 2-4.1 2c-2.8 0-5.1-2.3-5.1-5.1.1-2.7 2.3-4.9 5.1-4.9zM135.4 225.4c1.9 0 3.5 1.6 3.5 3.5 0 2-1.6 3.5-3.5 3.5s-3.5-1.6-3.5-3.5c0-2 1.6-3.5 3.5-3.5zm0 .9c-1.3 0-2.5 1.1-2.5 2.6s1.1 2.6 2.5 2.6c1.3 0 2.5-1.1 2.5-2.6s-1.2-2.6-2.5-2.6zM149.3 228.3c0-1.3-.7-2-1.7-2s-1.8.8-1.8 2.3v3.7h-1v-4c0-1.3-.7-2-1.7-2s-1.8.8-1.8 2.3v3.7h-1v-6.8h1v.8s.6-1 1.9-1c1.6 0 2.2 1.2 2.2 1.2s.6-1.2 2.3-1.2c1.5 0 2.6 1 2.6 2.9v4h-1v-3.9zM153.2 235.3h-1v-9.8h1v1.1s.8-1.2 2.4-1.2c1.7 0 3.3 1.6 3.3 3.5 0 2-1.6 3.5-3.3 3.5a3 3 0 0 1-2.4-1.2v4.1zm2.4-3.8c1.1 0 2.3-1.1 2.3-2.6s-1.1-2.6-2.3-2.6c-1.2 0-2.4 1.2-2.4 2.6 0 1.4 1.2 2.6 2.4 2.6zM164.4 228c0-1-.7-1.7-1.7-1.7-1.2 0-1.9 1-1.9 1l-.6-.6s.9-1.3 2.5-1.3 2.7 1.1 2.7 2.6v4.3h-1v-.9s-.7 1.1-2.2 1.1c-1.4 0-2.4-1-2.4-2 0-1.1.7-1.8 2-2l2.6-.5zm0 1.3v-.4l-2.3.4c-.8.2-1.3.6-1.3 1.2s.5 1.1 1.4 1.1c1.2-.1 2.2-1 2.2-2.3zM168.2 226.5s.7-1.1 2.2-1.1c1.6 0 2.8 1.1 2.8 2.9v4h-1v-4c0-1.2-.8-2-1.8-2-1.2 0-2.1.9-2.1 2.3v3.7h-1v-6.8h1v1zM176.9 232.3l-2.8-6.8h1.1l2.2 5.5 2.2-5.5h1.1l-3.1 7.8c-.6 1.4-1.1 2-2.1 2-.5 0-.8-.1-.8-.1v-.9s.4.1.7.1c.6 0 1-.4 1.3-1.1l.2-1z" class="st7"/></g></svg>