<?xml version="1.0" ?>
<svg xmlns="http://www.w3.org/2000/svg" viewBox="0 0 1552 323">
	<title>BlueLogo</title>
	<style>
		.s0 { fill: #3d07d9 } 
		.s1 { fill: #575756 } 
	</style>
	<g id="Logo">
		<g id="Group">
			<path id="Vector" class="s0" d="m523.7 2.5c0 11.9 9.9 21.6 22 21.6h131.5v-22.9h-153.5z"/>
			<path id="Vector_2" class="s0" d="m852 1.1h-31.6l-49.2 56.2-49.2-56.2h-31.6l65 74.2-65.6 74.9h31.6l49.8-56.9 49.8 56.9h31.6l-65.6-74.9z"/>
			<path id="Vector_3" class="s0" d="m552.1 65.6c0 11.9 9.8 21.5 21.9 21.5h103.3v-22.9h-125.2z"/>
			<path id="Vector_4" class="s0" d="m580.3 128.7c0 11.8 9.9 21.5 21.9 21.5h75.1v-22.9h-97z"/>
			<path id="Vector_5" class="s0" d="m48.2 115.3h96.7l20.3 34.9h27.9l-86.9-149.1h-19.3l-86.9 149.1h27.9zm13.4-22.9l34.9-60 35 60z"/>
			<path id="Vector_6" class="s0" d="m486.4 64h-125v-62.9h-22.6v149.1h22.6v-63.3h125v63.3h22.7v-149h-22.7z"/>
			<path id="Vector_7" class="s0" d="m161.2 24.1h70.1v126.1h22.6v-126.1h70.2v-23h-162.9z"/>
			<path id="Vector_8" class="s1" d="m935 83.3h68.9c-0.9 10.4-3.8 19.7-8.9 27.6-5.4 8.6-12.8 15.4-21.9 20-9.1 4.7-19.4 7.1-30.7 7.1-11.7 0-22.4-2.6-31.8-7.6-9.4-5-16.9-12.2-22.4-21.5-5.4-9.4-8.2-20.5-8.2-33 0-12.6 2.8-23.7 8.2-33 5.5-9.3 13-16.6 22.4-21.7 9.4-5 20.1-7.6 31.8-7.6 13.4 0 25.1 3.1 34.8 9.2 9.7 6.1 16.7 14.3 20.9 24.5l0.7 1.7h17.4l-1.5-3.7c-5.8-14.1-15.1-25.3-27.7-33.3-12.5-7.9-27.5-11.9-44.6-11.9-14.7 0-28.1 3.2-40 9.6-11.9 6.4-21.3 15.5-28 27-6.7 11.4-10.1 24.6-10.1 39.2 0 14.4 3.4 27.6 10.1 39 6.7 11.5 16.1 20.6 28 27 11.9 6.4 25.3 9.6 40 9.6 14.4 0 27.5-3.1 39-9.3 11.6-6.2 20.9-14.9 27.6-25.9 6.7-11 10.3-23.5 10.8-37.3v-8.8h-84.8v13.1z"/>
			<path id="Vector_9" class="s1" d="m1123.7 74.2c7.1-7.6 10.7-17.4 10.7-29.1 0-13.1-4.6-23.8-13.8-31.8-9.1-7.9-22.8-11.9-40.6-11.9h-45.3v148.8h15.4v-61.1h29.7l39.8 61.1h18.4l-41-62.6c11.3-2.1 20.3-6.6 26.7-13.4zm-5.1-29.1c0 9.3-3.1 16.8-9.3 22.4-6.2 5.6-15.9 8.4-28.8 8.4h-30.4v-61h29.9c26 0 38.6 9.9 38.6 30.2z"/>
			<path id="Vector_10" class="s1" d="m1264.4 9.7c-11.8-6.4-25.3-9.7-39.9-9.7-14.7 0-28.2 3.3-40 9.7-11.9 6.4-21.3 15.5-28 26.9-6.7 11.5-10.1 24.7-10.1 39.3 0 14.4 3.4 27.6 10.1 39.1 6.7 11.6 16.1 20.7 28 27.1 11.8 6.4 25.3 9.6 40 9.6 14.6 0 28.1-3.2 39.9-9.6 11.9-6.4 21.3-15.5 28-27.1 6.7-11.5 10.1-24.7 10.1-39.1 0-14.6-3.4-27.8-10.1-39.3-6.7-11.4-16.1-20.5-28-26.9zm22.2 66.2c0 12.5-2.7 23.6-8.1 33-5.4 9.3-12.9 16.6-22.2 21.6-9.4 5.1-20.1 7.7-31.8 7.7-11.7 0-22.4-2.6-31.8-7.7-9.4-5-16.9-12.3-22.4-21.6-5.5-9.4-8.2-20.5-8.2-33 0-12.7 2.7-23.9 8.2-33.2 5.5-9.3 13-16.6 22.4-21.7 9.4-5 20.1-7.6 31.8-7.6 11.7 0 22.4 2.6 31.8 7.6 9.3 5.1 16.8 12.4 22.2 21.7 5.4 9.3 8.1 20.5 8.1 33.2z"/>
			<path id="Vector_11" class="s1" d="m1416.8 93.7c0 15.5-3.6 26.9-10.9 33.8-7.2 6.9-17.3 10.5-30.1 10.5-12.9 0-23.1-3.6-30.5-10.6-7.4-7-11.1-18.4-11.1-33.7v-92.4h-15.4v92.1c0 19.3 5.3 33.9 15.7 43.6 10.4 9.6 24.3 14.5 41.3 14.5 17 0 30.8-4.8 41-14.4 10.2-9.6 15.4-24.3 15.4-43.7v-92.1h-15.4v92.4z"/>
			<path id="Vector_12" class="s1" d="m1538.5 12.9c-8.9-7.7-22.3-11.6-40-11.6h-45.8v148.8h15.4v-62.9h30.4c17.3 0 30.7-3.8 39.7-11.2 9.2-7.5 13.8-18.1 13.8-31.6 0-13.1-4.5-23.7-13.5-31.5zm-1.9 31.5c0 19.7-12.5 29.2-38.1 29.2h-30.4v-58.8h30.4c13.5 0 23.4 2.6 29.3 7.6 5.8 5 8.8 12.4 8.8 22z"/>
		</g>
		<g id="Group_2">
			<path id="Vector_13" class="s1" d="m236.9 226.1l-24.4 71.5h9.4l5.7-16.7h31.2l5.7 16.7h9.4l-24.4-71.5zm-6.5 46.5l12.7-37.2 12.8 37.2z"/>
			<path id="Vector_14" class="s1" d="m292.9 229.1h-9v14.9h-11.1v7.2h11.1v26.1q0 4.1 0.1 7.4 0.2 3.3 1.8 6.4 1.9 3.7 5.6 5.4 3.7 1.7 8.4 1.9 4.8 0.1 9.6-0.8v-7.6q-5.6 0.9-9.6 0.3-3.9-0.6-5.8-3.7-0.9-1.7-1-4.1-0.1-2.3-0.1-5.6v-25.7h16.5v-7.2h-16.5z"/>
			<path id="Vector_15" class="s1" d="m363.9 254.6q-1.4-3.3-3.9-6-2.5-2.7-6.2-4.4-3.8-1.6-9.1-1.6-7 0-12.2 3-3.6 2-6 5.3v-24.8h-8.1v71.5h9.1v-28.2q0-4.7 1.1-8.2 1.1-3.4 3-5.7 2-2.3 4.8-3.4 2.7-1.1 6.1-1.1 4.4 0 7.2 1.6 2.9 1.7 4.6 4.5 1.7 2.8 2.4 6.3 0.7 3.5 0.7 7.4v26.8h9.1v-29.6q0-3.1-0.6-6.6-0.6-3.4-2-6.8z"/>
			<path id="Vector_16" class="s1" d="m414.9 246.2q-5.8-3.7-14.1-3.7-7.9 0-13.8 3.5-5.9 3.5-9.2 9.9-3.3 6.5-3.3 15.2 0 8.4 3.3 14.7 3.4 6.3 9.4 9.8 6 3.5 14 3.5 8 0 14.4-3.9 6.4-3.9 9.6-11l-8.7-2.9q-2.2 4.5-6.2 7-4 2.4-9.5 2.4-8 0-12.4-5.2-3.7-4.5-4.2-12.2h32.8 4.4 4.7q0.4-9.6-2.5-16.5-2.9-6.9-8.7-10.6zm-26.5 9.5q4.4-5.3 12.7-5.3 7.8 0 11.8 4.9 3.1 3.9 3.8 10.9h-32.4q0.9-6.6 4.1-10.5z"/>
			<path id="Vector_17" class="s1" d="m479.2 254.6q-1.4-3.3-3.9-6-2.5-2.7-6.2-4.4-3.8-1.6-9.1-1.6-7 0-12.2 3-3.6 2-6 5.3v-7h-8.1v53.7h9.1v-28.3q0-4.6 1.1-8.1 1-3.4 3-5.7 2-2.3 4.8-3.4 2.7-1.1 6.1-1.1 4.4 0 7.2 1.6 2.9 1.6 4.6 4.5 1.7 2.8 2.4 6.3 0.6 3.5 0.6 7.3v26.9h9.2v-29.6q0-3.1-0.6-6.6c-0.4-2.3-1-4.5-2-6.8z"/>
			<path id="Vector_18" class="s1" d="m527.7 270.4q-4.2-2.1-11.5-3.9-6.4-1.6-9.8-2.8-3.3-1.3-4.6-2.6-1.2-1.4-1.2-3.4 0-3.4 3.3-5.5 3.3-2 8.6-1.8 5.6 0.1 9.2 2.6 3.6 2.5 4.2 6.8l9.2-1.6q-0.5-4.7-3.5-8.3-3-3.5-7.9-5.5-5-1.9-11.2-1.9-6.3 0-11 1.9-4.7 2-7.4 5.5-2.6 3.6-2.6 8.3 0 3.8 1.8 6.5 1.7 2.7 5.9 4.7 4.1 2 11.4 3.9 6.7 1.8 10 3 3.3 1.2 4.4 2.6 1 1.5 1 3.7 0 4-3.2 6.3-3.1 2.2-8.8 2.2-5.9 0-9.9-2.5-4-2.6-5.1-7l-9.2 1.5q1.4 7.5 7.7 11.7 6.2 4.2 16 4.2 10.2 0 16-4.4 5.9-4.5 5.9-12.2 0-4.2-1.8-7-1.8-2.9-5.9-5z"/>
			<path id="Vector_19" class="s1" d="m580.7 297.6h46v-8.4h-37v-23.9h31v-8.4h-31v-22.4h37v-8.4h-46z"/>
			<path id="Vector_20" class="s1" d="m682.5 244h-10.8l-14.8 19.6-15-19.6h-10.7l20.4 26.5-20.9 27.1h10.8l15.4-20.3 15.3 20.3h10.8l-21-27.1z"/>
			<path id="Vector_21" class="s1" d="m700.7 253.4q3.7-2.5 9.3-2.5 5 0 8.9 2.6 3.9 2.5 5.6 7.2l8.9-2.6q-2.1-7.3-8.4-11.4-6.2-4.2-14.9-4.2-8.2 0-14 3.6-5.8 3.5-9 9.9-3.1 6.4-3.2 14.8 0.1 8.2 3.2 14.6 3 6.4 8.8 10.1 5.8 3.6 14.1 3.6 8.5 0 14.5-3.9 6.1-4 8.9-11.5l-9.1-2.4q-1.8 4.6-5.4 7-3.5 2.4-8.9 2.4-8.2 0-12.3-5.5-4.1-5.5-4.2-14.4 0-5.8 1.8-10.3 1.8-4.5 5.4-7.1z"/>
			<path id="Vector_22" class="s1" d="m787.1 254.6q-1.4-3.3-3.9-6-2.5-2.7-6.2-4.4-3.8-1.6-9.1-1.6-7.1 0-12.2 3-3.6 2-6.1 5.3v-24.8h-8.1v71.5h9.2v-28.2q0-4.7 1-8.2 1.1-3.4 3.1-5.7 2-2.3 4.7-3.4 2.8-1.1 6.2-1.1 4.3 0 7.2 1.6 2.9 1.7 4.6 4.5 1.7 2.8 2.3 6.3 0.7 3.5 0.7 7.4v26.8h9.1v-29.6q0-3.1-0.5-6.6-0.6-3.4-2-6.8z"/>
			<path id="Vector_23" class="s1" d="m842.8 253q-2.4-5.3-7.7-7.9-5.3-2.6-12.8-2.6-9.2 0-14.9 4-5.7 4-7.7 11.1l8.6 2.5q1.5-5 5.2-7.2 3.7-2.2 8.7-2.2 7.5 0 10.6 3.4 2.7 3.1 2.9 9.2-2.9 0.4-6 0.8-5 0.7-9.8 1.4-4.9 0.8-8.8 1.9-4.1 1.1-7.1 3.2-3 2.1-4.7 5.2-1.6 3.1-1.6 7.3 0 4.3 2.1 7.9 2.1 3.7 6.2 5.9 4.2 2.2 10.3 2.2 8 0 13.5-3.3 4-2.4 6.7-6.6v8.4h8.1v-33.2q0-3.1-0.3-6.1-0.4-2.9-1.5-5.3zm-8.1 26.3q-0.7 3.4-2.9 6.2-2.1 2.8-5.7 4.5-3.6 1.7-8.4 1.7-3.9 0-6.4-1.2-2.4-1.3-3.5-3.3-1.1-2-1.1-4.1 0-2.6 1.2-4.3 1.2-1.7 3.1-2.8 2-1.1 4.2-1.8 3-0.9 6.8-1.5 3.8-0.6 8.1-1.1c1.8-0.3 3.6-0.5 5.5-0.7q0 1.2-0.1 2.9-0.1 3.1-0.8 5.5z"/>
			<path id="Vector_24" class="s1" d="m901.1 254.6q-1.4-3.3-3.9-6-2.5-2.7-6.3-4.4-3.7-1.6-9-1.6-7.1 0-12.3 3-3.5 2-6 5.3v-7h-8.1v53.7h9.1v-28.3q0-4.6 1.1-8.1 1.1-3.4 3.1-5.7 2-2.3 4.7-3.4 2.8-1.1 6.2-1.1 4.3 0 7.2 1.6 2.9 1.6 4.5 4.5 1.8 2.8 2.4 6.3 0.7 3.5 0.7 7.3v26.9h9.1v-29.6q0-3.1-0.6-6.6c-0.3-2.3-1-4.5-1.9-6.8z"/>
			<path id="Vector_25" class="s1" d="m953.3 250q-1.9-2.2-4.2-3.9-5.3-3.6-13-3.6-7.6 0-13.1 3.7-5.4 3.7-8.4 10.1-2.9 6.4-3 14.4 0.1 8.1 3 14.5 3 6.4 8.4 10.1 5.5 3.8 13.2 3.8 7.7 0 12.9-3.8 1.7-1.2 3.1-2.6v5.2q0.1 5.4-1.6 9.1-1.6 3.7-5.1 5.6-3.4 1.8-8.6 1.8-4 0-7.7-1.8-3.7-1.8-5.8-5.7l-8.2 4.3q2.3 4 5.7 6.6 3.4 2.6 7.5 3.9 4.1 1.3 8.4 1.3 6.5 0 11.5-1.8 5-1.9 8.1-5.6 3.1-3.7 4.2-9.4 0.4-2 0.5-4 0.2-2 0.2-4.2v-54h-8zm-1.7 31.2q-1.7 4.6-5.3 7.2-3.5 2.6-9 2.6-5.4 0-9-2.6-3.5-2.7-5.3-7.3-1.8-4.6-1.8-10.3 0-5.7 1.8-10.3 1.7-4.5 5.3-7.2 3.6-2.7 9.2-2.7 5.4 0 8.9 2.6 3.5 2.5 5.2 7.1 1.7 4.5 1.7 10.5 0 5.8-1.7 10.4z"/>
			<path id="Vector_26" class="s1" d="m1010.6 246.2q-5.8-3.7-14-3.7-8 0-13.9 3.5-5.9 3.5-9.2 9.9-3.3 6.5-3.3 15.2 0 8.4 3.4 14.7 3.3 6.3 9.3 9.8 6 3.5 14.1 3.5 7.9 0 14.3-3.9 6.4-3.9 9.6-11l-8.6-2.9q-2.3 4.5-6.3 7-4 2.4-9.4 2.4-8.1 0-12.4-5.2-3.8-4.5-4.3-12.2h32.8 4.5 4.6q0.4-9.6-2.5-16.5-2.9-6.9-8.7-10.6zm-26.4 9.5q4.3-5.3 12.7-5.3 7.8 0 11.7 4.9 3.2 3.9 3.9 10.9h-32.4q0.8-6.6 4.1-10.5z"/>
			<path id="Vector_27" class="s1" d="m1129.3 260.8h-25.1v7.3h15.5q-0.5 7.1-3.1 12.2-2.7 5-7.5 7.7-4.8 2.7-11.8 2.7-8.2-0.1-13.6-3.7-5.5-3.7-8.2-10.1-2.8-6.5-2.7-15 0.1-8.6 2.8-15.2 2.7-6.5 8.1-10.1 5.4-3.6 13.6-3.5 7.8 0 13 3.9 5.2 3.8 7.5 10.3l9.1-1.8q-2.8-9.7-10.3-15.3-7.5-5.6-19.8-5.6-10.2 0-17.7 4.6-7.5 4.5-11.7 12.9-4.1 8.3-4.1 19.7 0 8.7 2.4 15.6 2.4 6.8 6.8 11.7 4.5 4.8 10.7 7.4 6.1 2.6 13.6 2.6 10.7 0 18-4.4 7.2-4.4 11-12.2 3.7-7.7 3.7-17.5 0-0.5 0-1.9-0.1-1.3-0.2-2.3z"/>
			<path id="Vector_28" class="s1" d="m1160.4 243.6q-2.7 0.2-5.4 1.1-2.7 0.9-4.8 2.5-2 1.4-3.5 3.5-0.7 0.9-1.2 1.8v-8.5h-8.1v53.6h9.1v-26.9q0-3.2 0.6-6.2 0.5-3.1 2-5.7 1.4-2.6 4-4.5 2.9-2.1 6.3-2.4 3.4-0.4 6.3 0.4v-8.3q-2.5-0.6-5.3-0.4z"/>
			<path id="Vector_29" class="s1" d="m1209.6 246.1q-5.9-3.6-14.1-3.6-8.1 0-14 3.5-5.9 3.6-9.1 9.9-3.3 6.4-3.3 14.8 0 8.3 3.2 14.7 3.2 6.5 9.1 10.1 5.9 3.6 14.1 3.6 8.1 0 14-3.6 6-3.6 9.1-10 3.2-6.4 3.2-14.7 0-8.3-3.1-14.7-3.2-6.4-9.1-10zm-1.5 39q-4.1 5.6-12.6 5.6-8.3 0-12.5-5.5-4.3-5.4-4.3-14.5 0-5.8 1.8-10.3 1.9-4.5 5.6-7 3.7-2.5 9.4-2.5 8.4 0 12.6 5.4 4.2 5.4 4.2 14.4 0 8.9-4.2 14.4z"/>
			<path id="Vector_30" class="s1" d="m1268.8 272.2q0 4.6-1 8.1-1.1 3.5-3.1 5.8-2 2.2-4.7 3.4-2.8 1.1-6.2 1.1-4.3 0-7.2-1.6-2.9-1.7-4.6-4.5-1.7-2.8-2.4-6.4-0.7-3.5-0.7-7.3v-26.8h-9.1v29.6q0 3.1 0.6 6.5 0.6 3.5 2 6.9 1.4 3.3 3.9 6 2.5 2.7 6.2 4.4 3.8 1.6 9.1 1.6 7 0 12.2-3 3.6-2 6-5.3v6.9h8.1v-53.6h-9.1v28.2z"/>
			<path id="Vector_31" class="s1" d="m1336.6 256.3q-2.9-6.4-8.4-10.1-5.5-3.7-13.1-3.7-7.7 0-13 3.7-2.3 1.6-4.2 3.8v-6h-8v77.5h9v-28.9q1.5 1.5 3.2 2.8 5.2 3.7 12.9 3.7 7.7 0 13.2-3.7 5.5-3.8 8.4-10.2 2.9-6.4 2.9-14.5 0-8-2.9-14.4zm-8.4 24.8q-1.8 4.5-5.3 7.2-3.6 2.7-9 2.7-5.5 0-9.1-2.6-3.5-2.6-5.2-7.2-1.7-4.6-1.7-10.4 0-6 1.7-10.6 1.7-4.5 5.2-7.1 3.5-2.5 8.9-2.5 5.5 0 9.1 2.7 3.7 2.7 5.4 7.2 1.8 4.6 1.8 10.3 0 5.6-1.8 10.3z"/>
		</g>
	</g>
</svg>