<?xml version="1.0" ?>
<svg xmlns="http://www.w3.org/2000/svg" viewBox="0 0 120 24" class="Logo_large__8eVLN">
	<path fill="#99DBCF" d="M115.845 8.404a4.14 4.14 0 0 1-2.939-1.233c-1.62-1.644-1.62-4.315 0-5.938a4.12 4.12 0 0 1 5.879 0c1.62 1.644 1.62 4.315 0 5.938a4.14 4.14 0 0 1-2.94 1.233m0-5.712c-.38 0-.759.144-1.059.431a1.53 1.53 0 0 0 0 2.137 1.456 1.456 0 0 0 2.099 0 1.53 1.53 0 0 0 0-2.137 1.54 1.54 0 0 0-1.04-.431" class="logo_svg__dot"/>
	<path d="M104.587 20.507c-2.68 0-4.86-2.199-4.86-4.91 0-2.713 2.18-4.912 4.86-4.912s4.859 2.199 4.859 4.911c-.02 2.712-2.179 4.911-4.859 4.911m0-13.335c-4.6 0-8.32 3.76-8.32 8.404 0 4.643 3.72 8.404 8.32 8.404s8.319-3.76 8.319-8.404c0-4.624-3.74-8.404-8.319-8.404m-79.85 12.863c-.58-.514-.78-1.295-.78-2.035v-7.459h3.2V7.377h-3.2V3.452h-3.42v3.925h-2.02v3.164h2.02v7.46c0 3.698 2.24 5.979 5.92 5.979.24 0 .52 0 .74-.02l-.06-3.33c-.74.02-1.78-.061-2.4-.595m12.198.472c-2.68 0-4.859-2.199-4.859-4.91 0-2.713 2.18-4.912 4.86-4.912 2.679 0 4.859 2.199 4.859 4.911s-2.18 4.911-4.86 4.911m0-13.335c-4.6 0-8.319 3.76-8.319 8.404 0 4.643 3.72 8.404 8.32 8.404s8.318-3.76 8.318-8.404c0-4.624-3.72-8.404-8.319-8.404M87.71 20.507c-2.68 0-4.86-2.199-4.86-4.91 0-2.713 2.18-4.912 4.86-4.912 1.78 0 3.34.966 4.18 2.425l2.98-1.767a8.29 8.29 0 0 0-7.18-4.15c-4.6 0-8.319 3.76-8.319 8.403S83.091 24 87.69 24c3.08 0 5.76-1.685 7.2-4.192l-3-1.767a4.78 4.78 0 0 1-4.18 2.466M63.992 7.09c-1.9 0-3.66.76-4.98 2.117-1.36-1.418-2.94-2.117-4.779-2.117h-.02c-1.54 0-2.96.884-3.58 1.603V7.398h-3.339v16.5h3.5V13.726c.06-1.972 1.26-3.144 3.24-3.144 1.719 0 3.239 1.562 3.239 3.33v9.986h3.5V13.665c0-1.644 1.52-3.082 3.259-3.082 1.72 0 3.24 1.561 3.24 3.328v9.987h3.5V13.706c-.02-3.904-2.8-6.617-6.78-6.617zm9.579 16.706h3.4V7.398h-3.4v16.397zM8.319 20.507c-2.68 0-4.86-2.199-4.86-4.91 0-2.713 2.18-4.912 4.86-4.912s4.86 2.199 4.86 4.911-2.18 4.911-4.86 4.911m4.68-11.63c-1.28-1.007-2.94-1.705-4.68-1.705-4.6 0-8.319 3.76-8.319 8.404 0 4.643 3.72 8.404 8.319 8.404 1.74 0 3.46-.72 4.68-1.706v1.5h3.399V7.398h-3.4z"/>
</svg>