<?xml version="1.0" ?>
<svg xmlns="http://www.w3.org/2000/svg" viewBox="0 0 483 116">
	<style>
		.cls0 { fill: #36322F; }
		.cls1 { fill: #EB636B; }
	</style>
	<path d="M 40.5,91.8 C 40.1,89.3 39.9,86.8 39.9,84.3 C 36.7,89.2 30.8,93.5 21.4,93.5 C 8.0,93.5 0.0,84.4 0.0,74.7 C 0.0,63.6 8.2,57.4 18.6,55.9 L 34.0,53.6 C 37.5,53.1 38.8,51.3 38.8,49.1 C 38.8,44.6 35.4,40.9 28.3,40.9 C 20.9,40.9 16.9,45.5 16.4,51.1 L 1.5,47.9 C 2.6,38.2 11.5,27.3 28.3,27.3 C 48.2,27.3 55.4,38.5 55.4,51.0 L 55.4,81.7 C 55.4,85.0 55.6,88.3 56.2,91.6 L 40.5,91.6 L 40.5,91.8 M 38.7,63.8 L 24.5,66.0 C 20.2,66.6 16.8,69.1 16.8,73.9 C 16.8,77.6 19.4,81.1 25.0,81.1 C 32.1,81.1 38.7,77.7 38.7,66.6 L 38.7,63.8 M 98.2,77.8 C 100.0,77.8 101.7,77.6 103.4,77.3 L 103.4,91.3 C 100.3,92.4 97.1,92.9 93.8,92.8 C 81.7,92.9 74.0,85.7 74.0,73.6 L 74.0,44.3 L 62.7,44.3 L 62.7,29.4 L 66.0,29.4 C 72.6,29.4 75.7,25.1 75.7,19.5 L 75.7,10.7 L 91.0,10.7 L 91.0,29.3 L 103.6,29.3 L 103.6,44.2 L 90.9,44.2 L 90.9,70.4 C 90.8,75.9 93.4,77.8 98.2,77.8 L 98.2,77.8 M 136.2,40.4 C 131.7,40.4 128.2,43.0 128.2,46.6 C 128.2,49.7 130.5,51.5 133.9,52.1 L 142.8,53.9 C 155.1,56.4 161.3,63.9 161.3,73.0 C 161.3,83.2 153.4,93.6 137.1,93.6 C 118.3,93.6 111.8,81.4 111.1,74.3 L 125.6,71.1 C 125.9,76.0 129.6,80.7 137.0,80.7 C 142.5,80.7 145.3,77.8 145.3,74.5 C 145.3,71.7 143.5,69.4 138.5,68.3 L 130.2,66.5 C 118.2,63.9 112.6,56.6 112.6,47.9 C 112.6,36.7 122.5,27.4 136.0,27.4 C 153.7,27.4 159.7,38.6 160.5,45.4 L 146.3,48.6 C 145.9,45.0 143.3,40.4 136.2,40.4 L 136.2,40.4 M 207.1,93.4 C 198.5,93.4 192.2,90.0 189.1,85.9 L 189.1,116.0 L 172.2,116.0 L 172.2,29.4 L 188.5,29.4 L 188.5,37.0 C 191.3,32.2 198.2,27.9 207.6,27.9 C 225.9,27.9 236.4,41.9 236.4,60.4 C 236.5,79.5 224.6,93.4 207.1,93.4 M 204.3,43.1 C 195.7,43.1 188.7,49.6 188.7,60.7 C 188.7,71.8 195.6,78.4 204.3,78.4 C 213.0,78.4 219.9,71.9 219.9,60.7 C 219.9,49.5 212.9,43.1 204.3,43.1 M 276.6,93.8 C 258.0,93.8 243.8,79.8 243.8,60.7 C 243.8,41.6 258.0,27.6 276.6,27.6 C 295.2,27.6 309.4,41.5 309.4,60.7 C 309.4,79.9 295.2,93.8 276.6,93.8 M 276.6,42.8 C 268.3,42.8 260.7,48.8 260.7,60.5 C 260.7,72.2 268.2,78.2 276.6,78.2 C 284.9,78.2 292.5,72.2 292.5,60.5 C 292.4,48.8 284.9,42.8 276.6,42.8 M 377.9,91.8 L 357.3,91.8 L 340.8,67.9 L 333.9,75.3 L 333.9,91.8 L 317.0,91.8 L 317.0,0.0 L 333.9,0.0 L 333.9,52.7 L 355.5,29.4 L 377.5,29.4 L 352.5,55.7 L 377.9,91.8 L 377.9,91.8 M 438.8,65.0 L 394.1,65.0 C 394.4,73.3 401.5,79.2 409.8,79.2 C 417.7,79.2 422.0,75.2 424.0,69.6 L 438.2,73.8 C 435.0,84.6 425.1,93.7 409.7,93.7 C 392.6,93.7 377.5,81.4 377.5,60.3 C 377.5,40.4 392.3,27.3 408.2,27.3 C 427.5,27.3 439.0,39.6 439.0,59.7 C 439.0,61.4 438.9,63.2 438.8,65.0 L 438.8,65.0 M 408.4,41.1 C 404.9,41.0 401.6,42.2 399.0,44.5 C 396.4,46.8 394.8,50.0 394.4,53.4 L 422.4,53.4 C 422.1,47.3 418.1,41.1 408.4,41.1 L 408.4,41.1" class="cls0"/>
	<path d="M 465.7,93.5 C 475.1,93.5 482.6,85.9 482.6,76.6 C 482.6,67.2 475.0,59.7 465.7,59.7 C 456.3,59.7 448.8,67.3 448.8,76.6 C 448.8,85.9 456.4,93.5 465.7,93.5" class="cls1"/>
</svg>