<?xml version="1.0" ?>
<!-- Generator: Adobe Illustrator 24.0.0, SVG Export Plug-In . SVG Version: 6.00 Build 0)  -->
<svg xmlns="http://www.w3.org/2000/svg"  viewBox="0 0 96 96">
	<style type="text/css">
	.st0{fill:#0E0E21;}
	.st1{fill:#FFFFFF;}
	.st2{fill:#2AE7A8;}
</style>
	<circle class="st0" cx="48" cy="48" r="48"/>
	<path class="st1" d="M 74.8,59.2 L 69.1,49.5 C 68.9,49.1 68.4,49.0 68.1,49.3 L 64.4,51.7 C 64.1,51.9 64.0,52.4 64.2,52.7 L 67.5,58.2 C 67.6,58.4 67.5,58.6 67.4,58.7 L 48.2,71.1 C 48.1,71.2 47.9,71.2 47.8,71.1 L 28.8,58.7 C 28.6,58.6 28.6,58.4 28.7,58.2 L 32.0,52.7 C 32.2,52.4 32.1,51.9 31.8,51.7 L 28.1,49.3 C 27.7,49.1 27.3,49.2 27.1,49.5 L 21.4,59.2 C 21.0,59.9 21.2,60.8 21.9,61.2 L 47.4,77.8 C 47.9,78.1 48.5,78.1 49.0,77.8 L 74.5,61.2 C 75.0,60.7 75.2,59.8 74.8,59.2"/>
	<path class="st2" d="M 30.9,44.1 L 34.6,46.5 C 35.0,46.7 35.4,46.6 35.6,46.3 L 47.6,25.9 C 47.7,25.7 48.1,25.7 48.2,25.9 L 60.2,46.3 C 60.4,46.7 60.9,46.8 61.2,46.5 L 64.9,44.1 C 65.2,43.9 65.3,43.4 65.1,43.1 L 51.0,18.7 C 50.7,18.2 50.3,18.0 49.7,18.0 L 46.3,18.0 C 45.8,18.0 45.3,18.3 45.0,18.7 L 30.7,43.1 C 30.5,43.4 30.6,43.9 30.9,44.1"/>
</svg>