<?xml version="1.0" ?>
<!-- Generator: Adobe Illustrator 16.0.0, SVG Export Plug-In . SVG Version: 6.00 Build 0)  -->

<svg xmlns="http://www.w3.org/2000/svg"  version="1.1" id="Layer_1" x="0px" y="0px" viewBox="0 0 612 612" style="enable-background:new 0 0 612 612;" xml:space="preserve">
    <rect x="-54.75" y="-44.958" style="fill:#FFFFFF;stroke:#000000;" width="684.375" height="703.125" />
    <path d="M544.255,269.951c2.101-4.296,3.423-7,3.423-7h-39.184c0,0-1.763,4.473-1.771,4.495c-0.11-1.955-0.253-4.495-0.253-4.495  h-88.607c-0.451-1.589-1.036-3.034-1.761-4.335c-0.554-2.375-1.367-4.484-2.446-6.333c-3.48-5.954-8.711-9.95-15.546-11.881  c-5.744-1.618-13.883-2.403-24.888-2.403h-38.478l-5.018,31.918h-1.378l-0.064-7h-39.406l-0.01,0.034H169.447l-0.187-17.952h-1.948  l-0.073-7h-58.992l-38.6,125.984h7.624l-0.919,3h44.292c0,0,0.294-1.185,0.744-3h5.73c-0.127,1.818-0.209,3-0.209,3h43.621  l-0.047-4.509c1.764,1.284,3.803,2.419,6.14,3.38c4.78,1.961,10.472,2.953,16.924,2.953c5.806,0,11.09-0.827,15.708-2.459  c4.782-1.697,8.893-4.244,12.227-7.572c3.358-3.365,5.629-6.793,6.756-10.194c0.979-2.95,1.986-7.757,3.077-14.688  c0,0,3.016-19.184,5.743-36.537h1.072c-2.641,16.802-10.472,66.626-10.472,66.626h6.811c-0.3,1.906-0.472,3-0.472,3h35.421  c0,0,0.015-0.095,0.043-0.273h51.858l-0.043,0.273h43.43c13.667,0,22.72-0.725,27.675-2.218c5.123-1.54,9.267-4.391,12.356-8.45  c1.887,1.986,4.259,3.706,7.084,5.15c2.024,1.711,4.494,3.185,7.423,4.389c4.779,1.961,10.474,2.953,16.929,2.953  c5.801,0,11.085-0.827,15.703-2.459c4.788-1.699,8.9-4.246,12.229-7.575c3.359-3.366,5.632-6.794,6.758-10.191  c0.979-2.966,1.984-7.768,3.077-14.685c0.001-0.002,1.32-8.395,3.002-19.096c0.984,5.978,1.675,10.171,1.763,10.705  c-0.326,2.072-6.053,38.477-6.053,38.477h6.812c-0.292,1.859-0.472,3-0.472,3h33.637c0,0,5.277-33.563,5.5-34.98  c0.646-1.32,30.345-62.051,30.345-62.051H544.255z" />
    <g>
        <g>
            <path style="fill:#FFD400;stroke:#FFD400;" d="M160.512,243.782l1.166,111.984h-33.207l1.41-20.205h-11.938l-5.01,20.205H79.314    l34.311-111.984H160.512z M132.166,315.598c0.451-12.576,1.242-28.251,2.381-47.021c-6.635,21.564-11.185,37.238-13.655,47.021    H132.166z" />
            <path style="fill:#FFD400;stroke:#FFD400;" d="M231.72,268.735l-9.146,58.164c-1.035,6.592-1.998,11.225-2.883,13.895    s-2.732,5.412-5.543,8.229c-2.814,2.811-6.266,4.941-10.359,6.395c-4.096,1.447-8.779,2.174-14.043,2.174    c-5.83,0-10.836-0.859-15.021-2.576c-4.186-1.723-7.154-3.961-8.908-6.719c-1.752-2.758-2.59-5.67-2.514-8.74    c0.078-3.061,0.891-9.502,2.434-19.324l8.094-51.496h25.301l-10.256,65.259c-0.598,3.799-0.758,6.227-0.473,7.287    c0.279,1.057,1.139,1.582,2.568,1.582c1.633,0,2.764-0.584,3.395-1.748c0.633-1.164,1.289-3.914,1.973-8.252l10.08-64.128H231.72z    " />
            <path style="fill:#FFD400;stroke:#FFD400;" d="M290.151,268.735l-2.738,17.404h-15.125l-10.943,69.626h-25.301l10.945-69.626    h-14.988l2.736-17.404H290.151z" />
            <path style="fill:#FFD400;stroke:#FFD400;" d="M321.549,268.7l0.602,64.96h-19.31l0.822-11.625h-6.867l-2.871,11.625h-19.516    l19.852-64.96H321.549z M304.917,310.539c0.305-7.417,0.803-16.568,1.486-27.433c-3.793,12.494-6.432,21.641-7.914,27.433H304.917    z" />
            <path style="fill:#FFD400;stroke:#FFD400;" d="M340.93,243.782h32.495c10.26,0,17.919,0.715,22.981,2.141    c5.057,1.428,8.859,4.32,11.404,8.674c2.543,4.355,3.055,11.369,1.533,21.045c-1.027,6.543-2.891,11.109-5.59,13.688    c-2.703,2.576-7.516,4.559-14.455,5.941c7.207,1.521,11.863,4.049,13.975,7.58c2.109,3.529,2.59,8.941,1.443,16.232l-1.633,10.379    c-1.191,7.57-3.033,13.18-5.531,16.82c-2.5,3.648-5.967,6.143-10.414,7.479c-4.446,1.342-13.187,2.006-26.231,2.006h-37.581    L340.93,243.782z M363.696,305.372l-4.898,31.162c4.645-0.135,7.691-0.777,9.135-1.926c1.443-1.145,2.518-3.967,3.223-8.461    l1.633-10.387c0.752-4.768,0.641-7.656-0.33-8.666C371.481,306.083,368.565,305.51,363.696,305.372z M370.356,263.01    l-3.902,24.834c1.371-0.045,2.449-0.068,3.24-0.068c3.258,0,5.436-0.699,6.523-2.105c1.086-1.398,2.152-5.412,3.195-12.033    c0.551-3.496,0.576-5.947,0.086-7.35c-0.49-1.398-1.297-2.285-2.418-2.654C375.956,263.268,373.716,263.057,370.356,263.01z" />
            <path style="fill:#FFD400;stroke:#FFD400;" d="M474.344,268.735l-9.143,58.164c-1.041,6.592-2.004,11.225-2.885,13.895    c-0.885,2.67-2.736,5.412-5.547,8.229c-2.811,2.811-6.264,4.941-10.359,6.395c-4.096,1.447-8.773,2.174-14.037,2.174    c-5.832,0-10.842-0.859-15.027-2.576c-4.186-1.723-7.15-3.961-8.902-6.719c-1.754-2.758-2.596-5.67-2.518-8.74    c0.08-3.061,0.889-9.502,2.436-19.324l8.096-51.496h25.299l-10.26,65.259c-0.598,3.799-0.756,6.227-0.473,7.287    c0.283,1.057,1.139,1.582,2.568,1.582c1.633,0,2.764-0.584,3.395-1.748c0.633-1.164,1.295-3.914,1.973-8.252l10.086-64.128    H474.344z" />
            <path style="fill:#FFD400;stroke:#FFD400;" d="M536.662,268.735l-27.156,55.529l-4.953,31.502h-23.514l4.955-31.502l-9.145-55.529    h23.203c0.959,17.043,1.26,28.498,0.902,34.363c2.961-9.275,7.129-20.73,12.504-34.363H536.662z" />
        </g>
        <g>
            <path style="fill:#FFD400;stroke:#FFD400;" d="M321.717,338.379l-2.777,17.35h-48.177l2.776-17.35H321.717z" />
        </g>
    </g>
    <g>
        <path d="M177.109,238.486h5.078c1.593,0,2.785,0.127,3.576,0.38c0.791,0.254,1.387,0.768,1.788,1.541   c0.4,0.774,0.482,2.02,0.245,3.739c-0.161,1.162-0.453,1.972-0.875,2.431c-0.423,0.459-1.175,0.811-2.257,1.056   c1.141,0.271,1.878,0.72,2.21,1.348s0.409,1.59,0.23,2.886l-0.255,1.846c-0.186,1.346-0.475,2.343-0.866,2.991   c-0.392,0.648-0.935,1.091-1.629,1.329c-0.694,0.238-2.063,0.357-4.104,0.357h-5.891L177.109,238.486z M180.691,249.414   l-0.771,5.572c0.711-0.024,1.181-0.139,1.407-0.344s0.395-0.709,0.506-1.513l0.257-1.857c0.118-0.853,0.101-1.369-0.051-1.55   C181.887,249.541,181.438,249.438,180.691,249.414z M181.731,241.892l-0.612,4.427c0.215-0.008,0.38-0.012,0.496-0.012   c0.502,0,0.839-0.125,1.009-0.375s0.338-0.965,0.501-2.146c0.086-0.623,0.091-1.06,0.014-1.31s-0.201-0.408-0.373-0.474   C182.595,241.937,182.25,241.899,181.731,241.892z" />
        <path d="M201.843,238.486l-1.838,13.292c-0.208,1.507-0.405,2.566-0.588,3.176s-0.557,1.237-1.12,1.879   c-0.563,0.643-1.256,1.13-2.078,1.462c-0.822,0.331-1.757,0.497-2.805,0.497c-1.172,0-2.176-0.197-3.014-0.589   c-0.837-0.393-1.433-0.905-1.787-1.536c-0.354-0.63-0.524-1.295-0.51-1.996c0.014-0.7,0.177-2.173,0.487-4.417l1.628-11.769h5.094   l-2.062,14.907c-0.12,0.868-0.152,1.422-0.096,1.664c0.056,0.241,0.222,0.362,0.499,0.362c0.316,0,0.54-0.133,0.67-0.399   c0.13-0.266,0.264-0.894,0.4-1.884l2.026-14.649H201.843z" />
        <path d="M214.194,238.486l-5.475,12.7l-0.997,7.205h-4.719l0.997-7.205l-1.806-12.7h4.68c0.159,3.899,0.203,6.52,0.13,7.862   c0.584-2.122,1.421-4.742,2.511-7.862H214.194z" />
        <path d="M220.045,248.346c-0.15,1.083-0.63,1.976-1.438,2.677c-0.81,0.702-1.694,1.053-2.655,1.053   c-0.986,0-1.78-0.355-2.381-1.065c-0.602-0.71-0.833-1.569-0.693-2.579c0.137-0.992,0.605-1.846,1.404-2.56   c0.798-0.714,1.687-1.071,2.664-1.071c1.052,0,1.862,0.37,2.431,1.108C219.944,246.648,220.167,247.46,220.045,248.346z" />
        <path d="M232.589,244.522h-4.719l0.203-1.471c0.095-0.687,0.095-1.124,0.001-1.312c-0.095-0.188-0.283-0.282-0.565-0.282   c-0.308,0-0.558,0.126-0.75,0.378c-0.193,0.252-0.324,0.634-0.395,1.146c-0.091,0.659-0.066,1.154,0.076,1.487   c0.124,0.333,0.545,0.739,1.262,1.217c2.069,1.377,3.336,2.503,3.803,3.378c0.475,0.875,0.578,2.287,0.308,4.233   c-0.196,1.415-0.503,2.458-0.922,3.128c-0.419,0.671-1.127,1.233-2.125,1.687c-0.997,0.453-2.115,0.681-3.354,0.681   c-1.364,0-2.491-0.262-3.382-0.784s-1.429-1.188-1.615-1.997c-0.186-0.809-0.176-1.956,0.03-3.443l0.18-1.299h4.719l-0.333,2.404   c-0.102,0.74-0.102,1.216,0,1.427c0.103,0.212,0.323,0.317,0.662,0.317c0.338,0,0.608-0.135,0.811-0.404   c0.202-0.269,0.34-0.669,0.413-1.199c0.161-1.166,0.108-1.929-0.158-2.288c-0.275-0.359-0.984-0.961-2.126-1.809   c-1.142-0.854-1.89-1.474-2.245-1.859c-0.355-0.384-0.622-0.916-0.8-1.595c-0.179-0.679-0.195-1.545-0.049-2.601   c0.21-1.521,0.556-2.634,1.038-3.337s1.175-1.254,2.081-1.65s1.961-0.595,3.167-0.595c1.321,0,2.417,0.217,3.286,0.651   c0.869,0.434,1.409,0.981,1.619,1.64c0.21,0.66,0.206,1.78-0.013,3.361L232.589,244.522z" />
        <path d="M234.944,238.486h8.5l-0.552,3.993h-3.406l-0.522,3.777h3.188l-0.522,3.776h-3.188l-0.604,4.365h3.75l-0.552,3.994h-8.844   L234.944,238.486z" />
        <path d="M249.826,238.486l-2.201,15.911h3.094l-0.552,3.994h-8.188l2.753-19.905H249.826z" />
        <path d="M258.744,238.486l-2.2,15.911h3.094l-0.552,3.994h-8.188l2.752-19.905H258.744z" />
        <path d="M268.08,248.346c-0.15,1.083-0.629,1.976-1.438,2.677c-0.81,0.702-1.694,1.053-2.655,1.053   c-0.986,0-1.78-0.355-2.381-1.065c-0.602-0.71-0.833-1.569-0.693-2.579c0.137-0.992,0.605-1.846,1.404-2.56   c0.798-0.714,1.687-1.071,2.664-1.071c1.052,0,1.862,0.37,2.431,1.108C267.979,246.648,268.203,247.46,268.08,248.346z" />
        <path d="M280.959,238.486l-0.552,3.993h-3.031l-2.201,15.912h-5.094l2.201-15.912h-3.031l0.552-3.993H280.959z" />
        <path d="M281.59,238.486h3.604c2.395,0,4.003,0.094,4.828,0.283c0.824,0.189,1.448,0.67,1.874,1.444s0.521,2.01,0.286,3.706   c-0.214,1.549-0.546,2.59-0.996,3.123c-0.45,0.533-1.241,0.853-2.372,0.959c0.974,0.254,1.604,0.594,1.893,1.021   c0.288,0.427,0.449,0.818,0.482,1.174c0.033,0.357-0.061,1.338-0.283,2.945l-0.726,5.25h-4.719l0.915-6.616   c0.147-1.066,0.156-1.726,0.027-1.98c-0.13-0.254-0.54-0.381-1.231-0.381l-1.242,8.978h-5.094L281.59,238.486z M286.212,241.892   l-0.612,4.427c0.568,0,0.976-0.08,1.225-0.24s0.434-0.679,0.555-1.556l0.151-1.094c0.087-0.631,0.035-1.045-0.155-1.242   C287.185,241.99,286.797,241.892,286.212,241.892z" />
        <path d="M303.228,238.486l0.146,19.905h-5.195l0.223-3.591h-1.836l-0.777,3.591h-5.273l5.354-19.905H303.228z M298.754,251.271   c0.062-2.242,0.19-5.031,0.386-8.365c-1.024,3.829-1.725,6.617-2.101,8.365H298.754z" />
        <path d="M306.495,238.486h3.808c2.455,0,4.101,0.115,4.938,0.344c0.836,0.23,1.443,0.607,1.821,1.131s0.578,1.108,0.602,1.752   c0.021,0.643-0.097,1.908-0.357,3.792l-0.964,6.971c-0.247,1.787-0.496,2.982-0.744,3.584c-0.249,0.603-0.601,1.074-1.058,1.414   c-0.456,0.34-0.995,0.578-1.617,0.713s-1.541,0.203-2.757,0.203h-6.424L306.495,238.486z M311.118,241.892l-1.812,13.094   c0.725,0,1.192-0.149,1.403-0.449c0.21-0.299,0.407-1.113,0.591-2.441l1.069-7.733c0.125-0.902,0.176-1.479,0.153-1.734   c-0.022-0.254-0.125-0.44-0.306-0.559C312.036,241.951,311.67,241.892,311.118,241.892z" />
        <path d="M319.679,238.486h8.5l-0.552,3.993h-3.406l-0.522,3.777h3.188l-0.522,3.776h-3.188l-0.604,4.365h3.75l-0.553,3.994h-8.844   L319.679,238.486z" />
    </g>
    <g>
    </g>
</svg>