<svg xmlns="http://www.w3.org/2000/svg" style="enable-background:new 0 0 1457 355" viewBox="0 0 1457 355" xml:space="preserve"><style>.st0{fill:#212121}.st2{fill:#1bc263}</style><g id="Layer_4"><path d="M479.2 225.1h-71l-13.1 34.3h-32l60.4-157.9h40.1l60.7 157.9h-32.2l-12.9-34.3zm-10.3-27.3L443.6 131l-25.3 66.7h50.6zM635.5 145.2v114.1h-29.8v-14.4c-7.7 10.1-20.1 17.6-36.5 17.6-30 0-45.1-20.1-45.1-50.7v-66.5h29.8v60.9c0 17.4 7.9 28.6 24.4 28.6 16.9 0 27.5-13.1 27.5-33.4v-56.1h29.7zM847 192.6v66.7h-29.8v-61.1c0-17.4-7.9-28.4-24.4-28.4-16.7 0-27.5 13.1-27.5 33.1v56.4h-29.8V101.5h29.8v58.2c7.9-10.1 20.3-17.6 36.8-17.6 29.8 0 44.9 20.1 44.9 50.5zM855.7 202.3c0-34.3 25.9-60.2 61.1-60.2s60.9 25.9 60.9 60.2c0 34.1-25.7 60.2-60.9 60.2s-61.1-26.2-61.1-60.2zm93.2 0c0-18.9-13.1-33.1-32-33.1-19.2 0-32 14.2-32 33.1s12.9 33.1 32 33.1c18.9 0 32-14.2 32-33.1zM1168 191.5v67.9h-29.8v-61.6c0-17.1-6.3-28-21.9-28-16 0-24.1 12-24.1 31.3v58.2h-30v-61.6c0-16.9-6.1-28-21.4-28-16 0-24.6 12.2-24.6 32.2v57.3h-29.8v-114h29.8v13.5c7.4-9.7 18.7-16.7 33.8-16.7 16 0 27.3 6.3 34.3 17.1 7.4-9.5 20.3-17.1 38.6-17.1 27.3.1 45.1 17.7 45.1 49.5zM1176.8 111.6c0-9.5 7.9-17.1 17.8-17.1s17.8 7.7 17.8 17.1c0 9.9-7.9 17.6-17.8 17.6s-17.8-7.6-17.8-17.6zm2.5 33.6h30v114.1h-30V145.2zM1323.1 234.5v24.8h-101.9v-18.9l60.4-70.6h-59.1v-24.6h98.5v18.9l-60.2 70.4h62.3zM1324.9 202.3c0-34.1 23.9-60.2 59.8-60.2 37.4 0 58.9 25.9 58.9 58.6 0 3.6 0 7-.7 10.6h-88.6c2 14.7 12.4 25.9 33.1 25.9 14.4 0 23.2-6.5 27.7-15.1l26.8 7.9c-6.5 14.9-25 32.5-55 32.5-36.5 0-62-24.1-62-60.2zm89.5-9.7c-1.4-14-12.2-25.3-30-25.3-17.4 0-28.6 12.2-30.2 25.3h60.2zM726.8 171.4v-26.2h-33.4v-43.7h-30v43.7h-19.2v26.2h19.2v47.1c0 24.6 12 40.8 38.1 40.8h23.1V233h-17.3c-9.5 0-14-5.2-14-14.4v-47.1h33.5z" class="st0"/><g><path d="M213 95.4h-37c-.5 1.9-1.5 3.7-2.8 5.1l25.5 44.1c.5-.1.9-.1 1.4-.1 5.1 0 9.3 4.2 9.3 9.3 0 2.2-.8 4.2-2 5.8l28.7 49.5c1.4-.4 2.9-.7 4.4-.7 1.4 0 2.8.2 4.1.6l17-29.5L213 95.4M167.7 6.4 120 88.6h33.8c1.6-4.5 5.9-7.7 11-7.7s9.3 3.2 11 7.7H310L167.7 6.4M193.2 159.9l-74 27.1c-.1 5-4.2 9.1-9.3 9.1-.5 0-.9 0-1.4-.1l-12.4 21.5c1.1 1.6 1.7 3.4 1.7 5.4 0 2.2-.7 4.1-1.9 5.8l20.3 35 96.9.1 17.4-30.2c-2.8-2.7-4.6-6.4-4.6-10.6 0-4.1 1.7-7.7 4.3-10.4L201.5 163c-.5.1-.9.1-1.4.1-2.7-.1-5.2-1.3-6.9-3.2M153.4 95.4H116l-48.7 83.9L87 213.2c.4 0 .7-.1 1.1-.1.9 0 1.7.1 2.5.3l12-20.9c-1.3-1.6-2-3.6-2-5.8 0-5.1 4.2-9.3 9.3-9.3.5 0 .9 0 1.4.1l44.6-77.5c-1.2-1.3-2-2.9-2.5-4.6M161.6 103.7l-44.1 76.6 73.4-26.8c.1-2.1.8-4 2-5.6l-25.5-44c-.9.2-1.7.3-2.6.3-1.2 0-2.2-.2-3.2-.5M316 95.4h-95.1L316 259.5V95.4M265.6 186.2l-15 26.1c2.8 2.7 4.6 6.4 4.6 10.6 0 8.1-6.5 14.6-14.6 14.6-1.4 0-2.8-.2-4.1-.6l-65.4 113.5 142.1-82-47.6-82.2M158.8 8.1 15.9 90.6l47.5 81.9L158.8 8.1M19.9 270.3 162 352.4l47.2-82-189.3-.1M13.5 100v163.5l94.9.1-18.1-31.3c-.7.2-1.4.2-2.1.2-5.4 0-9.7-4.4-9.7-9.7 0-2.5 1-4.8 2.5-6.5L13.5 100" class="st2"/></g></g></svg>