<?xml version="1.0" ?>
<svg xmlns="http://www.w3.org/2000/svg" version="1.2" baseProfile="tiny-ps" id="Layer_1" viewBox="0 0 80 80" xml:space="preserve">
	<rect x="0" y="0" fill="#FFFFFF" width="80" height="80"/>
	<circle fill="#FFFFFF" cx="40" cy="40" r="40"/>
	<path id="autoMarker" fill="#F5F200" d="M17.6,42.4c0-0.1,0-0.3,0.1-0.4c0,0,0,0,0,0c0,0,0-0.1,0-0.1c0-0.1,0-0.1,0-0.2  c0-0.2-0.1-0.3,0-0.5c0-0.1,0-0.2,0-0.3c0-0.1-0.1-0.2-0.1-0.3c0-0.1-0.1-0.1-0.1-0.2c0,0,0-0.1,0-0.1c0-0.1,0.1-0.1,0.1-0.1  c0,0,0.1,0,0.1,0c0-0.1,0-0.1,0-0.2c0,0,0,0,0,0c0-0.1,0-0.2,0-0.4c0,0,0-0.2,0-0.2c0,0,0-0.1,0-0.2c0-0.1,0-0.1,0-0.2  c0-0.1,0-0.2,0-0.2c0,0,0,0,0,0s0,0,0,0c0,0,0-0.2,0-0.2c0,0,0-0.3,0.1-0.3c0.1-0.1,0.1-0.3,0-0.5c0-0.3,0-0.3,0-0.4c0,0,0,0,0-0.1  c0-0.1,0-0.1,0.1-0.1c0,0,0,0,0,0c0,0,0-0.1,0-0.2c0-0.1-0.1-0.2-0.1-0.3c0-0.1-0.1-0.1-0.1-0.2c0-0.1,0-0.2,0-0.2c0,0,0,0,0,0  c0,0,0,0,0,0c0,0,0,0.1,0.1,0c0-0.1,0-0.1,0-0.2c0,0,0,0,0,0c0-0.1,0-0.2,0-0.3c0.1-0.1,0.1-0.2,0.1-0.3c0-0.1,0-0.2,0-0.3  c0-0.1,0-0.1,0-0.1c0,0,0,0,0,0c0-0.1,0-0.1,0-0.2c0-0.1,0-0.1,0-0.2c0,0,0-0.1,0-0.1c0,0,0,0,0,0c0,0,0.1,0.1,0.1,0.1  c0,0,0,0,0-0.1c0-0.1,0-0.1,0-0.2C18,34.4,18,34.2,18,34.1c0-0.2,0-0.3-0.1-0.3c0,0,0-0.1,0-0.1c0-0.1,0.1-0.2,0-0.3  c0-0.1,0-0.2,0-0.2c0,0,0-0.1,0-0.2c0-0.2,0-0.1,0-0.1c0,0,0,0,0.1,0c0-0.1,0-0.2,0-0.3c0,0-0.1-0.1-0.1-0.1c0,0,0-0.1,0-0.1  c0,0,0,0,0,0c0.1,0.1,0.1-0.1,0.1-0.1c0,0,0-0.1,0-0.1c0-0.1,0-0.1,0-0.2c0-0.1-0.1-0.2,0-0.2c0-0.1,0-0.2,0-0.2c0,0,0-0.1-0.1-0.1  c0,0,0-0.1,0-0.1c0,0,0,0,0,0c0,0,0,0,0.1,0c0,0,0,0,0-0.1c0-0.1,0-0.1,0-0.2c-0.1-0.1-0.1-0.3,0-0.4c0-0.1,0-0.2,0-0.3  c0,0,0-0.1,0-0.1c0,0,0,0,0,0c0,0,0,0,0,0c0,0,0,0,0,0c0-0.1,0-0.3-0.1-0.3c-0.1-0.1-0.1-0.2-0.1-0.3c0-0.1,0-0.2,0.1-0.2  c0.1,0,0.1-0.1,0.1-0.3c0-0.2,0-0.2,0.1-0.2s0.1,0,0-0.2c0,0,0-0.1,0-0.1c0-0.1,0-0.1,0-0.2c0-0.1,0-0.2,0-0.3c0,0,0-0.1,0-0.1  c0,0,0-0.1,0-0.1c0,0,0-0.1,0-0.1c0,0,0-0.1,0.1-0.1c0,0,0-0.1,0-0.1c0,0,0-0.1,0-0.1c0-0.1,0-0.2,0-0.3c0-0.1,0-0.1,0-0.2  c0,0,0-0.1,0-0.1l0,0c0-0.1,0-0.2,0-0.2c0,0,0,0,0,0c0,0,0-0.1,0-0.1c0-0.1,0-0.1,0-0.2c0,0,0-0.1,0-0.1c0,0,0-0.1,0-0.1  c0,0,0,0,0,0c0-0.1,0-0.1,0-0.2c0-0.1,0-0.1,0-0.2c0-0.1,0.2-0.3,0.1-0.4c0,0,0-0.1,0-0.1c0-0.1,0-0.1,0-0.2c0,0,0-0.1,0-0.1  c0-0.1,0-0.1,0-0.2c0-0.1-0.1-0.2-0.1-0.3c0-0.1,0.1-0.2,0.1-0.3c0-0.1,0-0.3,0-0.4c0-0.1,0-0.1-0.1-0.2c0,0,0.1-0.3,0.1-0.4  c0,0,0-0.1,0-0.1c0,0,0,0,0-0.1c0-0.1,0-0.2-0.1-0.2c0,0-0.2-0.4,0-0.5l0.1-0.1l0-0.1c0-0.1,0.1-0.2,0.1-0.3l0,0c0,0,0.1,0,0.1,0  c0,0,0,0,0.1,0c0,0,0.1,0,0.1,0c0,0,0.1,0,0.2,0c0,0,0,0,0,0c0,0,0.1,0,0.3,0.1c6.2,1.6,27.7-0.2,42.2-4.2c0.4-0.1,1-0.2,1.1-0.3  c0.1,0,0,0.1-0.1,0.2c-0.1,0.1-0.5,0.2-0.6,0.2c0,0,0,0,0,0.1c0.1,0.2,0.7,0,0.9,0c0.2,0,0.2,0.1,0.1,0.2c-0.2,0.1-0.2,0.3-0.2,0.4  c0,0,0.1,0,0.1,0c0,0,0.1,0.1,0.1,0.1c0,0.1-0.1,0.1-0.1,0.1c-0.1,0.1-0.1,0.2-0.1,0.4c0.1,0.1,0.1,0.2,0,0.2  c-0.1,0.1-0.7,0.3-0.8,0.4c-0.1,0-0.2,0.1-0.2,0.1c0,0,0,0.1,0,0.1c0.1,0.1,0.8-0.2,0.9-0.2c0,0,0.8-0.2,0.5,0  c-0.1,0.1-0.3,0.3-0.3,0.3c0,0,0,0,0,0c0,0.1,0,0.2-0.1,0.3c0,0,0,0.1,0,0.1c0,0,0,0,0,0c0.1,0,0.1,0.1,0,0.1  c-0.1,0.1-0.5,0.3-0.6,0.4c0,0,0,0,0,0.1c0,0,0.1,0,0.1,0c0.1-0.1,0.1,0,0.2-0.1c0.2-0.1,0.6-0.2,0.7-0.3c0.1-0.1,0.3,0,0.2,0.1  c0,0.1-0.1,0-0.1,0.1c0,0.1-0.1,0.1-0.1,0.1c-0.1,0.1-0.1,0.2-0.1,0.2c0.1,0.1,0.1,0.2,0.1,0.4c0,0.2,0,0.2,0.1,0.3c0,0,0,0,0,0.1  c0,0.1,0.1,0.1,0.2,0.1c0,0,0.1,0,0.1,0c0.1,0,0.1,0.1,0,0.1c-0.1,0.1-0.2,0.1-0.3,0.2c-0.1,0-0.1,0.1-0.2,0.1c0,0-0.1,0.1,0,0.2  c0.1,0.1,0.3-0.1,0.4-0.1s0.1-0.1,0.1,0s-0.6,0.3-0.6,0.3c0,0,0,0,0,0c-0.1,0.1,0.1,0.1,0.2,0.1c0.1,0,0.5-0.1,0.4,0  c0,0-0.2,0.1-0.2,0.2c0,0.1-0.1,0.1-0.1,0.1c0,0.1,0,0.1,0,0.2c0,0.1,0,0.1,0.1,0.1c0,0,0,0.1,0,0.1c0,0,0,0.1-0.1,0.1  c0,0-0.1,0.1-0.1,0.1c0,0,0,0,0,0.1c0,0,0.5-0.1,0.5-0.1c0.1,0,0.1,0,0.2,0c0,0,0.2,0,0.1,0.1c0,0,0,0-0.2,0.1s-0.1,0.1-0.5,0.3  c-0.1,0.1-0.2,0.1-0.3,0.2c-0.1,0,0,0.1,0.1,0.1c0.3-0.1,0.9-0.3,0.9-0.2c-0.1,0.1-0.2,0.2-0.2,0.3c0,0.1-0.1,0.1-0.2,0.1  c0,0,0,0.1,0,0.1c0,0,0,0,0,0c0.1,0,0,0.1,0,0.2c-0.1,0.1,0,0.1,0.1,0.1c0,0,0.4-0.1,0.4,0c0,0.1-0.2,0.2-0.3,0.2  c-0.1,0-0.2,0.1-0.3,0.2c0,0-0.1,0.1,0,0.1c0.1,0,0.2,0,0.3,0c0.3,0,0.3-0.1,0.4-0.1c0.1,0-0.2,0.1-0.3,0.2  c-0.1,0.1-0.1,0.1-0.1,0.1c-0.1,0.1-0.1,0.1,0,0.2c0.1,0,0.2,0.1,0.1,0.1c0,0-0.1,0.1-0.1,0.1c0,0,0.1,0,0.2,0c0.1,0,0.1,0,0.2,0  c0,0,0.1,0,0.1,0c0,0,0.1,0,0.2,0c0,0-0.2,0.1-0.2,0.1c-0.1,0-0.3,0.2-0.3,0.3c0,0,0.4-0.2,0.5-0.1c0.1,0.1-0.1,0-0.2,0.2  c-0.1,0.2-0.3,0.1-0.3,0.2c0,0,0,0.1-0.1,0.1c0,0,0,0.1,0,0.1c0,0,0.1,0,0.1,0c0,0,0,0,0.1,0c0,0,0,0,0,0c-0.1,0.1-0.2,0.2-0.2,0.2  c0,0,0.2-0.1,0.3-0.1c0.2,0,0.1-0.1,0.2-0.1c0.1,0,0.2-0.1,0.1,0c0,0-0.1,0.1-0.1,0.1c-0.1,0-0.1,0.1-0.1,0.1c0.1,0,0.2,0,0.2,0  c0,0.1,0.1,0,0.1,0.1c0,0,0.2-0.1,0.2,0c-0.1,0.1-0.2,0.2-0.3,0.3c-0.1,0-0.3,0.1-0.3,0.2c0,0.1,0.6,0,0.7,0c0.1,0,0.2,0.1,0.1,0.2  c0,0-0.1,0.1-0.1,0.1c-0.1,0-0.1,0.1,0,0.1c0.1,0.1,0,0.2-0.1,0.2c-0.1,0-0.1,0.1-0.2,0.1c0,0,0,0.1,0,0.1c0,0,0.1,0,0.1,0  c0.1,0,0.1,0,0.2,0c0.1,0,0.1,0,0.1,0.1c0,0,0,0.1,0,0.1c0,0.1-0.1,0.2-0.1,0.3c0,0-0.1,0.1-0.1,0.1c-0.1,0.1-0.1,0.1,0,0.2  c0,0,0.1,0.1,0.1,0.1c0,0,0,0.1-0.1,0.1c-0.1,0.1,0.3-0.1,0.5,0.3c0,0.1,0.4,0.2,0.3,0.2c-0.1,0.1-0.2,0.1-0.3,0.2  c-0.1,0.1-0.1,0.1-0.1,0.2c0,0,0.1,0.1,0.1,0.1c0,0,0,0,0,0c0,0.1,0.1,0.2,0.2,0.1c0.1,0,0.1,0,0.2,0.1c0,0-0.1,0.1-0.1,0.1  c-0.1,0-0.1,0-0.2,0.1c-0.1,0,0.1,0.1,0,0.1c0,0.1,0,0.1,0,0.2c0,0,0.1,0,0.1,0s0.1,0,0.1,0c0,0,0,0.1,0,0.1c0,0-0.3,0.1-0.3,0.1  c-0.1,0.1-0.1,0.1,0,0.2c0.2,0.1,0.5,0.2,0.4,0.4c0,0.1,0,0.1,0,0.1s0.1,0,0.1,0c0.1,0,0.1,0,0,0.1c0,0-0.3,0.1-0.3,0.2  c0,0-0.8,0.4,0,0.1c0,0,0.1,0,0.2-0.1c0.1,0,0.2,0,0.2-0.1c0,0,0.1,0,0.1,0.1c0,0,0,0.1-0.1,0.1c0,0-0.1,0-0.1,0.1  c0,0.1-0.1,0.2-0.1,0.3c0,0-0.1,0.1-0.1,0.1c0,0,0,0-0.1,0c0,0,0,0,0,0.1c0,0,0,0,0,0c0.1,0.1,0.1,0.1,0.1,0.2c0,0.1,0.3-0.1,0.4,0  c0.1,0,0.1,0.1,0.1,0.1c0,0,0,0,0,0.1c-0.1,0.1,0,0.1,0,0.1c0,0,0.1,0,0.1,0.1c0,0.1,0,0.1,0,0.2c0,0-0.1,0-0.1,0  c-0.1,0-0.1,0-0.2,0.1c0,0,0,0,0,0.1c0,0,0,0,0,0c0.1-0.1,0.2,0,0.3,0.1c0,0-0.3,0.1-0.2,0.2c0.1,0,0.1,0,0.2,0c0.1,0,0,0.1-0.3,0.1  c-0.1,0-0.2,0.1-0.2,0.2c0,0,0,0.1,0.2,0c0.1,0,0.5,0.1,0.4,0.2c0,0-0.2,0.1-0.2,0.1c0,0.1-0.1,0.1,0,0.1c0,0,0,0.1,0.1,0.1  c0,0,0.1,0,0.1,0c0,0,0.2-0.2,0.2-0.1c0,0-0.2,0.2-0.3,0.3c-0.1,0.1-0.3,0.1-0.3,0.2c0,0,0.2,0,0.2-0.1c0.1,0,0.1,0,0.2,0  c0,0-0.3,0.1-0.4,0.2c0,0,0,0.1-0.1,0.1c0,0-0.1,0.1,0,0.1c0,0,0.5-0.1,0.6-0.1c0.2,0,0,0.1,0,0.1c0,0,0,0.2-0.1,0.2  c0,0-0.2,0.1-0.2,0.2c-0.1,0.1,0.8,0.2,0.7,0.3C40.6,47.4,18.2,42.7,17.6,42.4C17.6,42.5,17.6,42.5,17.6,42.4z"/>
	<path fill="#333333" d="M55.6,55.4c0.3-0.2,0.5-0.4,0.8-0.6c2.5-2,5.2-4,5.2-6.9c0-2.3-1.7-3.9-4.1-3.9c-2.1,0-4.4,1.4-4.4,4.5  c0,0.1,0,0.3,0,0.4l1.7-0.7c0-1.7,1.3-2.6,2.5-2.6c1.2,0,2.4,0.8,2.4,2.5c0,2.2-2.3,4-5.4,6.4c-0.5,0.3-0.9,0.7-1.4,1.1l0,0v1.6h8.9  v-1.8H55.6z"/>
	<path fill="#333333" d="M13,49.6l-0.2-0.1c-1.4-0.6-2.4-1.1-2.4-2.3c0-1.2,1-1.9,2-1.9c0.8,0,1.8,0.4,2.2,1.3l1.7-0.6l0-0.1  c-0.7-1.6-2.4-2.3-3.8-2.3c-1.9,0-3.9,1.2-3.9,3.7c0,2.5,1.9,3.3,3.5,3.9l0.2,0.1c1.6,0.7,2.6,1.2,2.6,2.5c0,1.3-1.1,1.9-2.2,1.9  s-2.4-0.6-2.8-2.2l0-0.1L8,54.1c0.5,2.1,2.3,3.4,4.5,3.4c1.1,0,2.1-0.3,2.9-1c0.9-0.7,1.3-1.7,1.3-2.9C16.7,51.2,14.7,50.4,13,49.6z  "/>
	<path fill="#333333" d="M31.6,47.3c-2.7,0-4.7,2.1-4.7,5c0,2.9,2,5,4.7,5s4.7-2.1,4.7-5C36.3,49.5,34.3,47.3,31.6,47.3z M34.6,52.4  c0,2.2-1.5,3.4-3,3.4c-1.5,0-3-1.2-3-3.4c0-2,1.3-3.4,3-3.4C33.3,49,34.6,50.4,34.6,52.4z"/>
	<path fill="#333333" d="M43.5,53.1c0,1.8-1.3,2.7-2.5,2.7c-0.9,0-1.9-0.6-1.9-2.1v-6.2h-1.7v6.2c0,2.7,1.8,3.7,3.3,3.7  c1.2,0,2.3-0.6,2.9-1.5l0.3,1.3h1.4v-9.6h-1.7V53.1z"/>
	<path fill="#333333" d="M49.7,44.8L48,45.5v2.1h-1.6v1.6H48v5.3c0,2.6,1.5,3,2.4,3c0.4,0,0.8-0.1,1.3-0.2l0.1,0v-1.7l-0.1,0.1  c-0.2,0.2-0.5,0.3-0.8,0.3c-0.7,0-1.1-0.5-1.1-1.3v-5.4h2v-1.6h-2V44.8z"/>
	<polygon fill="#333333" points="69.8,52.2 69.8,48.3 68,49 68,52.2 64.1,52.2 68.9,44.1 66.9,44.1 61.9,52.7 61.9,54 68,54 68,57.2   69.8,57.2 69.8,54 72,54 72,52.2 "/>
	<path fill="#333333" d="M24.8,54.3c-0.5,0.9-1.4,1.5-2.5,1.5c-1.4,0-2.9-1.1-2.9-3.4c0-1.6,0.9-3.4,2.8-3.4c0.9,0,1.8,0.5,2.3,1.3  l1.6-0.6l0-0.1c-0.7-1.4-2.1-2.3-3.8-2.3c-1.2,0-2.3,0.4-3.1,1.3c-0.9,0.9-1.4,2.2-1.4,3.8c0,3.5,2.4,5,4.6,5c1.7,0,3.2-0.9,4-2.5  l0-0.1l0,0L24.8,54.3z"/>
	<path fill="#333333" d="M28.5,24.4h-1.8l-5.7,13.3H23l1.4-3.3h6.3l1.4,3.3h2.1L28.5,24.4z M30,32.7h-4.9l2.5-6L30,32.7z"/>
	<path fill="#333333" d="M40.6,28v5.6c0,1.8-1.3,2.7-2.5,2.7c-0.9,0-1.9-0.6-1.9-2.1V28h-1.7v6.2c0,1.2,0.3,2.2,1,2.8  c0.6,0.6,1.4,0.9,2.3,0.9c1.2,0,2.3-0.6,2.9-1.5l0.3,1.3h1.4V28H40.6z"/>
	<path fill="#333333" d="M48.9,29.6V28h-2v-2.8l-1.7,0.7V28h-1.6v1.6h1.6v5.3c0,2.7,1.5,3,2.4,3c0.4,0,0.9-0.1,1.3-0.2l0.1,0V36  l-0.1,0.1c-0.2,0.2-0.5,0.3-0.8,0.3c-0.7,0-1.1-0.5-1.1-1.3v-5.4H48.9z"/>
	<path fill="#333333" d="M54.3,27.8c-1.4,0-2.6,0.5-3.5,1.5c-0.8,0.9-1.3,2.2-1.3,3.6c0,1.4,0.5,2.7,1.3,3.6c0.9,1,2.1,1.5,3.5,1.5  c2.8,0,4.8-2.1,4.8-5.1C59.1,29.9,57.1,27.8,54.3,27.8z M54.3,36.3c-1.5,0-3-1.2-3-3.4c0-2,1.3-3.4,3-3.4c1.7,0,3,1.4,3,3.4  C57.3,35.1,55.8,36.2,54.3,36.3L54.3,36.3z"/>
</svg>