<?xml version="1.0" ?>
<!-- Generator: Adobe Illustrator 23.0.1, SVG Export Plug-In . SVG Version: 6.00 Build 0)  -->
<svg xmlns="http://www.w3.org/2000/svg"  viewBox="0 0 804.3 250">
	<g>
		<path fill="#FFFFFF" d="M 226.5,197.9 C 241.1,177.6 249.8,152.8 250.0,125.9 C 250.5,56.8 194.9,0.5 125.9,0.0 C 56.8,-0.5 0.5,55.1 0.0,124.1 C -0.2,151.4 8.4,176.7 23.1,197.4 C 26.7,202.5 30.7,207.3 35.1,211.8 L 35.1,211.8 C 57.6,235.1 89.1,249.7 124.1,250.0 C 163.3,250.3 198.3,232.5 221.4,204.5 L 221.4,204.5 C 223.2,202.3 224.9,200.1 226.5,197.9 L 226.5,197.9 L 226.5,197.9"/>
		<path fill="#FF7800" d="M 107.2,31.1 C 123.2,20.1 145.2,26.1 153.5,43.6 L 226.4,197.8 C 241.0,177.5 249.7,152.7 249.9,125.8 C 250.5,56.8 194.9,0.5 125.9,0.0 C 56.8,-0.5 0.5,55.1 0.0,124.1 C -0.2,151.4 8.4,176.7 23.1,197.4 L 26.0,196.8 L 73.6,186.3 C 74.9,186.0 75.7,187.8 74.5,188.5 L 35.1,211.9 C 57.6,235.2 89.1,249.8 124.1,250.1 C 163.3,250.4 198.3,232.6 221.4,204.6 L 102.2,78.9 C 88.8,64.8 91.2,42.1 107.2,31.1 M 129.6,172.9 L 52.8,179.6 C 44.5,180.3 37.5,173.4 38.1,165.1 C 38.7,156.8 46.6,151.0 54.7,152.9 L 129.7,170.6 C 131.1,170.8 131.0,172.8 129.6,172.9 M 94.1,105.4 L 187.2,180.7 C 188.3,181.6 187.3,183.3 186.0,182.8 L 74.0,140.3 C 62.3,135.8 57.3,121.9 63.5,111.1 C 69.8,100.2 84.3,97.5 94.1,105.4"/>
		<path fill="#04121A" d="M 794.3,111.4 C 799.8,111.4 804.2,106.9 804.2,101.5 L 804.2,89.2 L 773.2,89.2 L 773.2,62.1 L 756.1,62.1 C 750.6,62.1 746.2,66.6 746.2,72.0 L 746.2,89.1 L 741.2,89.1 C 735.7,89.1 731.3,93.6 731.3,99.0 L 731.3,111.3 L 746.3,111.3 L 746.3,151.0 C 746.3,157.4 746.4,163.2 746.5,168.3 C 746.6,173.4 748.0,178.4 750.7,183.3 C 753.6,188.5 757.9,192.3 763.5,194.7 C 769.1,197.1 775.5,198.3 782.6,198.5 C 789.7,198.7 797.0,198.1 804.4,196.7 L 804.4,185.0 C 804.4,179.4 799.7,174.9 794.1,175.1 C 791.6,175.2 789.3,175.1 787.0,175.0 C 781.8,174.7 777.9,172.6 775.6,168.8 C 774.3,166.8 773.7,164.1 773.6,160.8 C 773.5,157.5 773.5,153.7 773.5,149.5 L 773.5,111.4 L 794.3,111.4"/>
		<path fill="#04121A" d="M 370.9,53.6 L 342.2,53.6 L 290.6,196.7 L 312.5,196.7 C 316.7,196.7 320.4,194.1 321.8,190.2 L 330.5,166.9 L 394.3,166.9 L 403.0,190.2 C 404.4,194.1 408.2,196.7 412.3,196.7 L 434.2,196.7 L 386.5,64.5 C 384.1,57.9 377.9,53.6 370.9,53.6 M 339.6,142.3 L 362.4,80.9 L 385.2,142.3 L 339.6,142.3"/>
		<path fill="#04121A" d="M 576.7,86.5 C 554.0,86.5 539.3,96.6 531.7,116.4 L 548.0,122.1 C 551.9,123.5 556.3,122.3 559.0,119.0 C 562.5,114.7 566.5,111.0 576.4,111.0 C 588.8,111.0 593.8,115.4 594.8,127.1 L 561.6,132.8 C 530.9,137.8 527.2,156.7 527.2,167.0 C 527.2,177.3 535.0,199.6 564.6,199.6 C 579.6,199.6 590.4,194.2 597.4,187.4 C 597.8,192.6 602.1,196.6 607.3,196.6 L 621.2,196.6 L 621.2,127.3 C 621.2,98.6 602.9,86.5 576.7,86.5 M 569.1,178.4 C 558.7,178.4 553.7,174.9 553.7,168.3 C 553.7,161.7 558.6,154.7 575.1,151.8 C 584.2,150.2 591.5,148.9 596.3,148.0 L 596.3,154.8 C 596.3,168.6 582.4,178.4 569.1,178.4"/>
		<path fill="#04121A" d="M 507.3,89.3 C 503.1,89.3 499.4,91.9 498.0,95.8 L 473.6,162.0 L 449.2,95.8 C 447.8,91.9 444.0,89.3 439.9,89.3 L 419.1,89.3 L 460.1,196.7 L 487.1,196.7 L 528.1,89.3 L 507.3,89.3 L 507.3,89.3"/>
		<path fill="#04121A" d="M 725.7,165.6 C 725.7,154.7 720.2,145.1 711.8,139.4 L 711.8,139.4 C 711.5,139.2 711.2,139.0 710.9,138.8 C 710.9,138.8 710.9,138.8 710.8,138.8 C 710.6,138.7 710.5,138.6 710.3,138.5 C 709.3,137.9 708.3,137.3 707.2,136.8 C 703.3,134.9 699.0,133.3 699.0,133.3 L 699.0,133.3 C 697.3,132.6 695.4,132.0 693.5,131.3 C 675.1,125.2 666.3,123.6 666.3,117.5 C 666.3,112.1 672.8,109.3 679.7,109.3 C 684.1,109.3 690.3,110.7 695.4,116.9 C 695.4,116.9 695.5,117.0 695.5,117.0 C 695.6,117.1 695.7,117.3 695.8,117.4 C 695.8,117.5 695.9,117.5 695.9,117.6 C 697.7,119.4 700.2,120.6 702.9,120.6 C 704.0,120.6 705.1,120.4 706.1,120.1 C 706.1,120.1 706.2,120.1 706.2,120.1 L 721.2,114.9 C 716.1,97.6 700.1,86.4 678.7,86.4 C 670.4,86.4 663.6,87.7 658.2,89.9 L 658.2,89.9 C 647.2,94.0 639.4,104.6 639.4,117.0 C 639.4,128.7 646.4,138.8 656.4,143.4 C 661.3,145.9 667.1,148.1 674.0,150.1 C 693.3,155.8 697.9,159.6 697.9,166.4 C 697.9,167.2 697.8,168.0 697.6,168.7 C 697.2,170.1 696.5,171.3 695.6,172.3 C 692.9,175.1 687.9,176.5 681.3,176.5 C 673.1,176.5 665.7,173.1 660.6,164.6 C 658.2,160.6 653.3,158.9 648.9,160.4 L 633.9,165.7 C 640.1,183.8 652.6,199.7 681.2,199.7 C 694.2,199.7 704.5,196.8 711.9,191.8 L 711.9,191.7 C 720.2,186.0 725.7,176.4 725.7,165.6"/>
	</g>
</svg>