<?xml version="1.0" ?>
<svg xmlns="http://www.w3.org/2000/svg" viewBox="0 0 24 24">
	<g id="Group_11262" transform="translate(15761 9299)">
		<rect id="Rectangle_2307" width="24" height="24" transform="translate(-15761 -9299)" fill="#fff"/>
		<path id="Path_1960" d="M120.469,19.783c0-1.124-.447-4.783-6.209-4.783-3.469,0-6.084,1.708-6.643,4.3H110.8c.526-1.3,2.162-1.892,3.541-1.892,1.846,0,3.088.71,3.088,1.774,0,1.544-1.991,1.853-4.6,2.1-4.146.361-5.834,1.577-5.834,4.2,0,3.121,2.884,4.52,5.749,4.52a5.729,5.729,0,0,0,4.356-1.583l.486-.512.105.7a5.85,5.85,0,0,0,.269,1.11H120.8a9.4,9.4,0,0,1-.322-2.1V19.783Zm-2.891,4.428c0,1.912-1.689,3.055-4.514,3.055-1.721,0-2.878-.71-2.878-1.774,0-1.491,1.616-1.873,3.371-2.063a8.4,8.4,0,0,0,3.5-.907l.532-.342v2.03Z" transform="translate(-15863 -9310)"/>
	</g>
</svg>