<!-- sic -->
<svg xmlns="http://www.w3.org/2000/svg" viewBox="0 0 109.94 6.565">
  <g transform="translate(-9.85 -62)">
    <path d="M40,65.2c0-1.01,0-2.02,0-3.03,0-.11-.03-.16-.14-.16-.49,0-.98,0-1.47,0-.06,0-.13.04-.17.09-.27.32-.53.65-.8.98-.29.36-.59.71-.89,1.07-.21.25-.41.51-.61.76-.3.38-.61.75-.91,1.13-.1.12-.17.12-.27,0-.17-.22-.34-.45-.52-.66-.33-.4-.66-.79-.99-1.19-.18-.22-.37-.43-.55-.65-.27-.33-.54-.65-.81-.98-.13-.16-.26-.33-.39-.49-.03-.03-.08-.05-.12-.05-.51,0-1.01,0-1.52,0-.08,0-.12.01-.12.12,0,2.04,0,4.08,0,6.12,0,.1.03.12.12.12.32,0,.65,0,.97,0,.09,0,.12-.02.12-.12,0-1.66,0-3.31,0-4.97,0-.04,0-.09,0-.12.01-.05.04-.09.07-.13.04.02.09.04.12.07.32.39.62.78.94,1.17.28.34.58.68.87,1.02.23.27.47.54.71.81.22.26.43.53.65.79.04.05.12.08.19.08.26,0,.53,0,.79,0,.09,0,.15-.03.2-.09.18-.23.37-.46.56-.68.19-.23.39-.45.58-.68.25-.3.51-.6.76-.91.24-.29.47-.58.71-.87.16-.2.33-.39.5-.59.05-.06.11-.11.17-.16.02.08.06.16.06.24,0,1.63,0,3.26,0,4.88,0,.04,0,.08,0,.13,0,.08.03.12.11.12.33,0,.66,0,.99,0,.08,0,.1-.03.1-.11,0-1.02,0-2.04,0-3.06h0Z" fill="#ff6800" stroke-width="0"/>
    <path d="M18.75,67.56c-.14-.24-.29-.47-.43-.71-.03-.05-.04-.1-.07-.15-.12-.18-.25-.36-.37-.55-.15-.25-.29-.51-.44-.77-.18-.3-.36-.58-.54-.88-.19-.3-.37-.6-.56-.9-.19-.3-.38-.61-.57-.91-.13-.2-.27-.39-.38-.59-.04-.07-.07-.1-.14-.1-.46,0-.93,0-1.39,0-.03,0-.08,0-.1.03-.07.09-.13.18-.19.27-.18.28-.35.56-.52.84-.19.31-.39.62-.58.93-.13.21-.26.43-.39.65-.14.23-.3.45-.43.68-.16.27-.3.54-.46.8-.24.38-.49.76-.73,1.14-.11.17-.2.35-.31.53-.04.07-.09.13-.13.2-.05.08-.11.17-.17.26.07,0,.11,0,.15,0,.35,0,.7,0,1.04,0,.14,0,.21-.07.27-.18.02-.04.04-.08.06-.12.17-.3.35-.59.52-.89.09-.15.17-.29.27-.43.03-.04.09-.06.15-.09.03-.01.07,0,.11,0,1.42,0,2.84,0,4.26,0,.12,0,.21.03.28.14.12.22.26.42.39.64.13.22.26.45.39.67.09.17.2.28.42.26.3-.02.6,0,.9,0,.05,0,.1,0,.18,0-.12-.21-.24-.4-.35-.59-.04-.07-.08-.14-.13-.21ZM16.35,65.98s-.09.01-.14.01c-.56,0-1.11,0-1.67,0s-1.13,0-1.7,0c-.2,0-.22-.04-.13-.21.18-.31.35-.62.53-.93.18-.32.38-.63.56-.95.2-.36.39-.72.59-1.07.03-.05.08-.1.13-.11.04,0,.1.06.13.1.21.36.4.72.61,1.08.14.24.3.47.44.7.15.25.29.51.43.77.09.16.18.32.26.48.01.03-.02.1-.06.12Z" fill="#ff6800" stroke-width="0"/>
    <path d="M26.83,62.01c-.22-.01-.41,0-.46.26,0,0,0,0,0,.01-.13.23-.27.46-.4.69-.17.31-.32.63-.49.93-.22.4-.46.79-.68,1.19-.22.4-.44.79-.64,1.2-.19.38-.48.71-.56,1.14,0,.04-.07.07-.11.08-.03,0-.08-.03-.09-.06-.08-.15-.14-.3-.22-.44-.17-.32-.33-.63-.5-.95-.12-.23-.26-.46-.38-.69-.12-.22-.24-.44-.36-.66-.1-.19-.21-.38-.32-.58-.09-.17-.18-.35-.27-.53-.12-.21-.25-.41-.37-.62-.16-.29-.31-.58-.46-.87-.04-.08-.1-.11-.19-.11-.34,0-.69,0-1.03,0-.04,0-.09,0-.15.02.04.09.07.16.11.23.17.3.34.59.51.89.1.18.2.36.31.54.15.25.3.5.44.76.12.21.22.43.34.65.2.36.4.71.6,1.07.24.42.49.84.73,1.27.07.12.12.24.19.35.05.1.1.2.16.29.08.12.11.29.3.29.44,0,.88,0,1.32,0,.05,0,.11-.03.15-.07.06-.06.1-.13.14-.21.28-.5.56-1,.84-1.5.12-.22.25-.45.37-.67.07-.12.12-.25.19-.36.12-.21.25-.41.37-.62.12-.21.23-.43.35-.64.14-.24.3-.47.44-.71.2-.36.39-.74.59-1.11.08-.14.16-.28.24-.44-.07,0-.12,0-.17,0-.26,0-.53,0-.79,0Z" fill="#ff6800" stroke-width="0"/>
    <path d="M119.77,66.13c0-.18-.03-.21-.21-.21-.52,0-1.04,0-1.56,0-.46,0-.93,0-1.39,0-.38,0-.33-.07-.33.34,0,.1.03.14.14.14.7,0,1.41,0,2.11,0,.16,0,.2.03.2.19,0,.19-.05.35-.15.51-.21.35-.54.53-.91.65-1.07.33-2.13.34-3.18-.09-.18-.08-.36-.19-.51-.33-.38-.34-.54-.78-.51-1.29.02-.38.15-.72.41-.99.36-.39.82-.58,1.33-.67.71-.13,1.43-.13,2.14.02.47.1.89.31,1.22.67.05.05.15.08.22.07.26-.03.51-.08.77-.12.15-.03.16-.05.08-.17-.02-.02-.03-.04-.05-.06-.59-.62-1.36-.87-2.17-.99-.49-.07-.99-.08-1.48-.07-.82,0-1.61.15-2.35.52-.62.31-1.07.77-1.22,1.47-.11.52-.04,1.01.22,1.47.23.42.6.71,1.01.92.62.31,1.3.43,1.99.46.55.03,1.11.03,1.65-.1.34-.09.68-.2,1.01-.33.18-.07.34-.2.51-.31.1-.06.14-.03.16.08.02.16.06.32.09.48.01.08.06.11.13.11.17,0,.34,0,.51,0,.11,0,.15-.04.14-.15,0-.73,0-1.47,0-2.2Z" fill="#1e3c62" stroke-width="0"/>
    <path d="M69.54,63.93c.02-.13-.04-.17-.17-.16-.24,0-.47,0-.71,0q-.2,0-.2.2c0,1.11,0,2.22,0,3.32,0,.06-.01.13-.02.24-.1-.08-.17-.13-.24-.18-.06-.05-.12-.11-.19-.16-.6-.48-1.19-.96-1.79-1.45-.3-.24-.59-.49-.89-.73-.26-.22-.53-.43-.79-.65-.2-.16-.39-.33-.59-.48-.07-.05-.16-.1-.24-.1-.3-.01-.59,0-.89,0-.12,0-.16.05-.16.17,0,1.47,0,2.93,0,4.4,0,.11.04.14.15.14.24,0,.48,0,.72,0q.2,0,.2-.2c0-1.13,0-2.25,0-3.38,0-.05.02-.09.03-.14.04.01.08.02.11.04.26.21.51.43.77.64.26.22.53.44.79.65.35.29.7.57,1.05.86.21.17.42.35.63.53.17.14.34.27.51.41.2.17.39.34.59.5.07.05.18.08.27.09.29.01.58,0,.88,0,.14,0,.18-.03.18-.18,0-1.4,0-2.81,0-4.22,0-.05,0-.1,0-.15Z" fill="#1e3c62" stroke-width="0"/>
    <path d="M110.32,63.77c-.25,0-.5,0-.75,0-.17,0-.19.01-.19.19,0,1.13,0,2.26,0,3.39,0,.04,0,.09-.01.18-.23-.19-.43-.34-.63-.5-.4-.33-.79-.66-1.18-.98-.43-.35-.87-.69-1.3-1.04-.41-.33-.82-.66-1.21-1.01-.19-.17-.39-.25-.65-.23-.2.02-.41,0-.61,0-.17,0-.18,0-.18.18,0,1.46,0,2.91,0,4.37,0,.13.05.16.16.16.25,0,.49,0,.74,0,.14,0,.17-.05.17-.18,0-1.12,0-2.23,0-3.35,0-.03,0-.07,0-.1,0-.03.02-.08.04-.09.02,0,.07.02.09.04.35.29.71.58,1.06.88.55.46,1.1.92,1.66,1.37.52.43,1.03.86,1.55,1.28.09.07.21.14.32.14.31.02.62,0,.93,0,.1,0,.14-.03.14-.13,0-1.48,0-2.96,0-4.44,0-.1-.03-.14-.14-.14Z" fill="#1e3c62" stroke-width="0"/>
    <path d="M59.86,64.38c-.4-.25-.83-.41-1.28-.52-.49-.12-.99-.17-1.5-.14-.24,0-.47-.01-.71,0-.75.04-1.46.22-2.12.59-.36.2-.65.49-.85.85-.21.38-.27.8-.22,1.22.03.26.11.53.24.75.33.56.85.89,1.45,1.1.55.2,1.12.28,1.7.31.73.03,1.46,0,2.18-.19.51-.13.98-.34,1.4-.68.36-.3.59-.68.69-1.13.1-.46.04-.93-.2-1.36-.19-.33-.44-.61-.77-.82ZM59.47,66.95c-.16.3-.41.5-.71.66-.56.29-1.17.39-1.81.37-.5.02-.99-.07-1.46-.26-.45-.18-.81-.46-1.01-.92-.21-.49-.18-.99.06-1.45.14-.27.37-.49.65-.65.63-.36,1.31-.42,2.01-.41.36,0,.7.06,1.04.15.52.15.98.41,1.25.9.29.53.28,1.07-.01,1.6Z" fill="#1e3c62" stroke-width="0"/>
    <path d="M77.25,66.4c-.54-.29-1.14-.4-1.74-.5-.62-.1-1.25-.18-1.87-.31-.3-.06-.59-.17-.81-.42-.15-.17-.14-.38.01-.55.2-.22.48-.27.74-.3.73-.09,1.47-.12,2.19.06.34.08.63.24.8.56.03.05.1.11.15.11.28,0,.56-.03.85-.05.09,0,.12-.05.08-.13-.06-.12-.12-.24-.21-.34-.34-.4-.81-.55-1.28-.67-.54-.13-1.1-.17-1.6-.16-.58,0-1.1.03-1.61.14-.39.08-.75.22-1.06.45-.2.15-.31.35-.32.6-.02.44.27.68.59.88.41.25.88.36,1.35.45.71.13,1.44.22,2.15.35.27.05.55.14.8.26.3.14.32.49.1.72-.2.2-.46.27-.72.33-.46.11-.92.11-1.39.1-.42,0-.83-.06-1.23-.19-.36-.11-.67-.29-.85-.64-.02-.04-.09-.07-.14-.07-.26,0-.52.03-.77.05-.22.01-.22.02-.14.21.01.03.03.06.04.09.27.4.65.66,1.11.82.62.22,1.27.29,1.92.3.36,0,.72,0,1.08-.02.58-.04,1.15-.11,1.69-.35.31-.14.56-.32.69-.64.08-.18.07-.37,0-.55-.1-.28-.33-.45-.58-.59Z" fill="#1e3c62" stroke-width="0"/>
    <path d="M86.01,63.77c-.3,0-.6,0-.9,0-.1,0-.14.04-.14.15,0,.44,0,.89,0,1.33,0,0,0,0,0,0,0,.44,0,.88,0,1.32,0,.15-.03.31-.09.45-.21.53-.66.76-1.18.88-.43.1-.87.1-1.31.07-.36-.02-.7-.11-1.01-.27-.47-.24-.71-.65-.71-1.18,0-.85,0-1.71,0-2.56,0-.17-.02-.2-.19-.2-.25,0-.51,0-.76,0-.2,0-.22.01-.22.21,0,.83,0,1.65,0,2.48,0,.15.02.31.05.45.15.68.6,1.09,1.22,1.34.49.2,1.02.27,1.55.3.66.03,1.32.01,1.98-.13.5-.11.97-.28,1.34-.65.28-.27.46-.59.49-.98.02-.3.02-.59.02-.89,0-.65,0-1.31,0-1.96,0-.09,0-.17-.12-.17Z" fill="#1e3c62" stroke-width="0"/>
    <path d="M46.79,64.72c.39-.26.84-.37,1.29-.42.55-.05,1.1-.04,1.64.12.48.14.88.39,1.19.79.04.05.12.11.17.1.31-.04.61-.1.92-.15.06-.01.09-.05.04-.11-.19-.23-.37-.47-.62-.64-.44-.3-.93-.5-1.45-.59-.47-.09-.94-.11-1.42-.16,0,.01,0,.02,0,.04-.7,0-1.39.08-2.06.34-.4.16-.78.35-1.07.67-.21.22-.4.46-.47.76-.06.26-.08.53-.09.8-.02.43.14.8.4,1.12.25.32.58.56.95.73.66.3,1.35.41,2.07.43.48.02.97.03,1.44-.08.37-.08.75-.17,1.11-.3.23-.09.46-.23.65-.38.2-.16.36-.36.53-.54.07-.08.05-.13-.07-.15-.26-.04-.52-.09-.78-.15-.11-.03-.17.01-.23.09-.11.13-.22.26-.35.37-.25.2-.53.33-.83.43-.37.12-.75.16-1.13.16-.35,0-.7-.07-1.04-.13-.33-.06-.64-.21-.91-.41-.28-.22-.49-.49-.58-.86-.2-.81.1-1.44.72-1.87Z" fill="#1e3c62" stroke-width="0"/>
    <path d="M98.87,63.97c0-.2,0-.2-.2-.2-1.92,0-3.84,0-5.76,0-.43,0-.34,0-.35.35,0,.22,0,.23.24.23.72,0,1.44,0,2.16,0q.22,0,.22.21c0,1.25,0,2.49,0,3.74,0,.13.04.17.17.17.25,0,.49,0,.74,0,.13,0,.17-.04.17-.17,0-.63,0-1.26,0-1.89,0-.63,0-1.26,0-1.89,0-.14.05-.17.18-.17.7,0,1.41,0,2.11,0,.34,0,.37.07.34-.35,0,0,0-.02,0-.03Z" fill="#1e3c62" stroke-width="0"/>
    <path d="M93.25,67.92c-.99,0-1.98,0-2.98,0-.23,0-.46,0-.7,0-.1,0-.15-.04-.14-.14,0-.04,0-.07,0-.11,0-1.25,0-2.5,0-3.75,0-.1-.04-.15-.14-.15-.28,0-.56,0-.83,0-.12,0-.16.05-.15.17,0,1.45,0,2.9,0,4.35,0,.19,0,.19.2.19.79,0,1.58,0,2.36,0h2.2q.37,0,.37-.37c0-.18-.01-.19-.19-.19Z" fill="#1e3c62" stroke-width="0"/>
    <path d="M101.36,63.96c0-.16-.03-.19-.18-.19-.25,0-.49,0-.74,0-.11,0-.17.04-.17.16,0,1.47,0,2.94,0,4.41,0,.1.04.14.14.14.26,0,.52,0,.78,0,.13,0,.18-.04.17-.18,0-.72,0-1.45,0-2.17,0-.72,0-1.45,0-2.17Z" fill="#1e3c62" stroke-width="0"/>
  </g>
</svg>