<?xml version="1.0" encoding="UTF-8"?><svg id="a" xmlns="http://www.w3.org/2000/svg" viewBox="0 0 1977.52 455"><defs><style>.b,.c{fill:#3a5832;}.c,.d,.e{fill-rule:evenodd;}.d{fill:#78a94e;}.e{fill:#c8dd6f;}</style></defs><g><path d="M533.33,149.1l.85,2.44-17.09,44.07-23.68,60.18h47.24l-11.35-28.44,17.09-44.07,54.57,140.87h-35.16l-12.94-35.89h-71.66l-14.65,35.89h-34.18l67.5-175.05h33.45Z"/><path d="M784.73,324.15h-37.6l-40.04-61.28-41.02,61.28h-37.6l58.96-90.09-55.66-84.96h37.6l56.52,84.96c10.9,16.77,19.67,30.23,26.31,40.41,6.63,10.17,11.21,17.17,13.73,21l18.8,28.69Zm-45.04-111.33l-19.53-28.56,23.68-35.16h37.72l-41.87,63.72Z"/><path d="M811.88,149.1h32.59v175.05h-32.59V149.1Z"/><path d="M962.81,324.15c-24.82,0-45.61-8.54-62.38-25.63-16.6-17.74-24.9-38.21-24.9-61.4,0-16.44,3.91-31.25,11.72-44.43,7.49-13.35,18.07-23.97,31.74-31.86,13.59-7.81,28.2-11.72,43.82-11.72,23.27,0,43.46,8.54,60.55,25.63,17.25,17.42,25.88,38.21,25.88,62.38s-8.34,45.45-25.02,62.13c-16.85,16.6-37.31,24.9-61.4,24.9Zm0-30.27c7.4,0,14.26-1.38,20.57-4.15,6.31-2.77,12.15-6.84,17.52-12.21,10.82-10.58,16.24-24.05,16.24-40.41s-5.41-29.21-16.24-40.53c-10.42-10.9-23.4-16.36-38.94-16.36s-28.65,5.45-38.82,16.36c-10.42,10.5-15.62,24.01-15.62,40.53,0,18.55,6.75,33.33,20.26,44.31,10.17,8.3,21.85,12.45,35.03,12.45Z"/><path d="M1254.49,149.1l29.3,175.05h-31.62l-18.8-110.72-36.62,110.72h-29.3l-37.48-110.72-18.68,110.72h-32.59l30.15-175.05h32.47l40.77,122.19,40.65-122.19h31.74Z"/><path d="M1411.41,149.1l.85,2.44-17.09,44.07-23.68,60.18h47.24l-11.35-28.44,17.09-44.07,54.57,140.87h-35.16l-12.94-35.89h-71.66l-14.65,35.89h-34.18l67.5-175.05h33.45Z"/><path d="M1599.32,149.1v32.71h-47.85v142.33h-34.3V181.82h-47v-32.71h129.15Z"/><path d="M1621.11,149.1h32.59v175.05h-32.59V149.1Z"/><path d="M1772.28,294.12c4.72,0,9.26-.55,13.61-1.65s8.48-2.67,12.39-4.7c3.91-2.03,7.53-4.46,10.86-7.26,3.34-2.81,6.31-5.96,8.91-9.46l22.58,19.53c-3.99,5.05-8.48,9.64-13.49,13.79-5,4.15-10.42,7.69-16.23,10.62-5.82,2.93-11.96,5.19-18.43,6.78-6.47,1.59-13.2,2.38-20.2,2.38-8.06,0-15.81-1.04-23.25-3.11-7.45-2.08-14.42-5.02-20.93-8.85-6.51-3.82-12.41-8.38-17.7-13.67-5.29-5.29-9.85-11.19-13.67-17.7-3.83-6.51-6.78-13.49-8.85-20.93-2.08-7.45-3.11-15.2-3.11-23.25s1.04-15.81,3.11-23.25c2.07-7.45,5.02-14.42,8.85-20.94,3.82-6.51,8.38-12.41,13.67-17.7s11.19-9.85,17.7-13.67c6.51-3.82,13.49-6.77,20.93-8.85,7.45-2.08,15.2-3.11,23.25-3.11,7,0,13.73,.79,20.2,2.38,6.47,1.59,12.61,3.85,18.43,6.77,5.82,2.93,11.23,6.45,16.23,10.56,5.01,4.11,9.5,8.69,13.49,13.73l-22.58,19.65c-2.61-3.5-5.58-6.67-8.91-9.52-3.34-2.85-6.96-5.27-10.86-7.26-3.91-1.99-8.04-3.54-12.39-4.64s-8.89-1.65-13.61-1.65c-7.89,0-15.34,1.51-22.34,4.52-7,3.01-13.1,7.12-18.31,12.33s-9.32,11.29-12.33,18.25c-3.01,6.96-4.52,14.42-4.52,22.4s1.5,15.34,4.52,22.34c3.01,7,7.12,13.1,12.33,18.31,5.21,5.21,11.31,9.32,18.31,12.33,7,3.01,14.44,4.52,22.34,4.52Z"/><path d="M1923.82,324.15c-24.61,0-43.32-12.17-56.14-36.5l28.58-16.24c8.37,14.97,17.86,22.46,28.45,22.46,5.55,0,10.42-1.54,14.61-4.64,3.76-3.34,5.64-6.96,5.64-10.86s-1.33-7.69-3.97-11.6c-1.71-1.87-4.19-4.21-7.43-7.02-3.25-2.81-7.31-6.17-12.18-10.07-9.31-7.4-17.03-13.93-23.14-19.59-6.11-5.66-10.57-10.48-13.39-14.47-5.98-8.14-8.97-16.11-8.97-23.93,0-11.72,4.61-21.77,13.84-30.15,9.57-8.3,20.93-12.45,34.09-12.45,9.06,0,17.47,2.08,25.25,6.23,4.02,1.87,8.16,4.56,12.43,8.06,4.27,3.5,8.8,7.77,13.59,12.82l-25.25,20.87c-8.46-11.31-17.13-16.97-26.02-16.97-4.96,0-8.46,1.02-10.51,3.05-2.74,2.04-4.1,4.64-4.1,7.81,0,2.44,.81,4.96,2.44,7.57,1.62,1.63,4.46,4.17,8.52,7.63,4.06,3.46,9.38,7.92,15.96,13.37,7.69,6.1,13.54,10.95,17.56,14.53,2.65,2.28,4.61,3.91,5.9,4.88,11.96,10.99,17.94,23.6,17.94,37.84s-4.91,25.39-14.74,34.18c-9.74,8.79-22.73,13.18-38.96,13.18Z"/></g><path class="b" d="M393.14,345.03V111.34L196.57,0,0,114.09v230.94l197.95,109.97,195.2-109.97Zm-35.74-21.37l-159.71,89.97L35.74,323.66V134.71L196.57,41.36l160.83,91.1v191.2Z"/><polygon class="e" points="237.11 106.13 196.38 129.65 155.65 106.13 196.38 82.61 237.11 106.13 237.11 106.13"/><polygon class="e" points="277.85 129.65 237.11 153.16 196.38 129.65 237.11 106.13 277.85 129.65 277.85 129.65"/><polygon class="c" points="318.58 153.16 277.85 176.68 277.85 217.42 318.58 193.9 318.58 153.16 318.58 153.16"/><polygon class="e" points="318.58 153.16 277.85 176.68 237.11 153.16 277.85 129.65 318.58 153.16 318.58 153.16"/><polygon class="e" points="196.38 129.65 155.65 153.16 114.91 129.65 155.65 106.13 196.38 129.65 196.38 129.65"/><polygon class="e" points="237.11 153.16 196.38 176.68 155.65 153.16 196.38 129.65 237.11 153.16 237.11 153.16"/><polygon class="c" points="277.85 176.68 237.11 200.2 237.11 240.93 277.85 217.42 277.85 176.68 277.85 176.68"/><polygon class="e" points="277.85 176.68 237.11 200.2 196.38 176.68 237.11 153.16 277.85 176.68 277.85 176.68"/><polygon class="d" points="74.18 153.16 114.91 176.68 114.91 217.42 74.18 193.9 74.18 153.16 74.18 153.16"/><polygon class="e" points="155.65 153.16 114.91 176.68 74.18 153.16 114.91 129.65 155.65 153.16 155.65 153.16"/><polygon class="d" points="114.91 176.68 155.65 200.2 155.65 240.93 114.91 217.42 114.91 176.68 114.91 176.68"/><polygon class="e" points="196.38 176.68 155.65 200.2 114.91 176.68 155.65 153.16 196.38 176.68 196.38 176.68"/><polygon class="d" points="155.65 200.2 196.38 223.72 196.38 264.45 155.65 240.93 155.65 200.2 155.65 200.2"/><polygon class="c" points="237.11 200.2 196.38 223.72 196.38 264.45 237.11 240.93 237.11 200.2 237.11 200.2"/><polygon class="e" points="237.11 200.2 196.38 223.72 155.65 200.2 196.38 176.68 237.11 200.2 237.11 200.2"/><polygon class="c" points="318.56 208.39 277.83 231.91 277.83 272.65 318.56 249.13 318.56 208.39 318.56 208.39"/><polygon class="c" points="277.83 231.91 237.09 255.43 237.09 296.16 277.83 272.65 277.83 231.91 277.83 231.91"/><polygon class="d" points="74.15 208.39 114.89 231.91 114.89 272.65 74.15 249.13 74.15 208.39 74.15 208.39"/><polygon class="d" points="114.89 231.91 155.62 255.43 155.62 296.16 114.89 272.65 114.89 231.91 114.89 231.91"/><polygon class="d" points="155.62 255.43 196.36 278.95 196.36 319.68 155.62 296.16 155.62 255.43 155.62 255.43"/><polygon class="c" points="237.09 255.43 196.36 278.95 196.36 319.68 237.09 296.16 237.09 255.43 237.09 255.43"/><polygon class="c" points="318.56 265.77 277.83 289.29 277.83 330.03 318.56 306.51 318.56 265.77 318.56 265.77"/><polygon class="c" points="277.83 289.29 237.09 312.81 237.09 353.54 277.83 330.03 277.83 289.29 277.83 289.29"/><polygon class="d" points="74.15 265.77 114.89 289.29 114.89 330.03 74.15 306.51 74.15 265.77 74.15 265.77"/><polygon class="d" points="114.89 289.29 155.62 312.81 155.62 353.54 114.89 330.03 114.89 289.29 114.89 289.29"/><polygon class="d" points="155.62 312.81 196.36 336.33 196.36 377.06 155.62 353.54 155.62 312.81 155.62 312.81"/><polygon class="c" points="237.09 312.81 196.36 336.33 196.36 377.06 237.09 353.54 237.09 312.81 237.09 312.81"/><polygon class="e" points="257.33 154.15 196 189.55 134.68 154.15 196 118.74 257.33 154.15 257.33 154.15"/></svg>