<?xml version="1.0" ?>
<svg xmlns="http://www.w3.org/2000/svg" version="1.2" viewBox="0 0 1571 1044">
	<defs>
		<linearGradient id="g1" x1="751.3" y1="129.1" x2="534.7" y2="1046.1" gradientUnits="userSpaceOnUse">
			<stop offset="0" stop-color="#265ba7"/>
			<stop offset="1" stop-color="#199ed9"/>
		</linearGradient>
		<linearGradient id="g2" x1="751.3" y1="129.1" x2="534.7" y2="1046.1" gradientUnits="userSpaceOnUse">
			<stop offset="0" stop-color="#199ed9"/>
			<stop offset="1" stop-color="#265ba7"/>
		</linearGradient>
	</defs>
	<style>
		.s0 { fill: #265ba7 } 
		.s1 { fill: url(#g1) } 
		.s2 { fill: url(#g2) } 
	</style>
	<path id="Layer" fill-rule="evenodd" class="s0" d="m931.1 478.4v37.9h-166.2v-38l97-85 0.4-0.4v-2.5h-92.8v-37.8h157.5v44.1l-89 78.8-0.5 0.4v2.5zm247.3-194.8h53.3v232.3h-53.3zm100.8 69h53.4v163.4h-53.4zm-547.4 57.3v106.4h-50.4v-23.2l-2.2 2.5-0.3 0.3c-15.1 16.6-20.8 22.8-48 22.8h-36.4c-36.9 0-53.3-14.3-53.3-46.5v-14.5c0-41.9 27.8-43.8 80.9-43.8h56.5v-2.6c0-14-3.3-27-27.5-27h-29.8c-8.8 0-20.8 0-23.7 11.6h-52.2v-0.5c1.9-21.3 4-45.3 62.5-45.3h66.4c36.1 0 57.6 22.4 57.5 59.8zm-52 34.5h-1.3-55.8c-24.9 0-29.9 8.2-29.9 21.4 0 12.1 10.4 18.3 30.7 18.3h13c36.1 0 43.2-7.6 43.2-20.7v-17.7zm462.9-24.9l-0.1 24.9h-132.6v12.7c0 12.5 6.2 27.4 35.7 27.4h13.9c20.9 0 30.8-5 32.7-16.8h50.2v0.7c-0.1 12.5-0.4 50.3-72.3 50.3h-38.8c-32.1 0-74.7-8.1-74.7-77.9v-15c0-51.6 21.4-75.7 67.5-75.7h35.9c59.7 0 82.1 18.8 82.6 69.4zm-51.6-6.9c0-20.9-11-28.3-42.1-28.3-37.3 0-39 9.2-39 28.3v1.3h81.1zm479.2 51.9c0 42-17.6 54.2-78.3 54.2h-49.9c-57.6 0-67.5-24.4-69.1-51h55.8c2.6 11.7 13.2 16.7 35.1 16.7h16.7c24.9 0 34.5-4.5 34.5-16.2 0.2-3.3-0.3-6.7-1.6-9.7-1.2-3.1-3.1-5.9-5.5-8.2-2.5-2.3-5.4-4-8.5-5-3.2-1-6.5-1.4-9.8-1h-49.4c-57 0-66.3-6.6-66.3-47.5 0-32.4 20.6-46.8 66.9-46.8h35.9c72.2 0 82.3 14.1 85.1 44h-55.4c-4.1-6.4-8.4-9.7-37.6-9.7-30.9 0-39.8 3.6-39.8 16.2 0 9.1 4.8 13.4 32.1 13.4l37.2-0.1c66.4 0 71.9 24 71.9 50.7zm-291-181h53.3v41.8h-53.3z"/>
	<g id="logo__balls">
		<path id="Layer" fill-rule="evenodd" class="s1" d="m636.3 894.9c16.9 55.4-26.2 118.3-96.3 140.6-70.1 22.2-140.5-4.6-157.5-60-16.9-55.4 26.3-118.3 96.3-140.5 70.1-22.2 140.6 4.6 157.5 59.9zm-339.6-142.5c-61 19.4-122.3-4-137-52.2-14.7-48.1 22.9-102.8 83.8-122.2 60.9-19.4 122.3 4 137 52.2 14.7 48.2-22.8 102.9-83.8 122.2zm295.6 0.1c-60.9 19.3-122.3-4.1-136.9-52.2-14.7-48.2 22.8-102.9 83.7-122.3 61-19.4 122.3 4 137 52.2 14.7 48.2-22.8 102.9-83.8 122.3zm-470.3-242.1c-53 16.8-106.4-3.6-119.2-45.5-12.8-41.8 19.9-89.5 72.9-106.3 53-16.9 106.4 3.5 119.2 45.4 12.8 41.9-19.9 89.5-72.9 106.4zm257.2-0.1c-53 16.9-106.4-3.5-119.2-45.4-12.7-41.8 19.9-89.5 72.9-106.3 53-16.9 106.4 3.5 119.2 45.4 12.8 41.9-19.9 89.5-72.9 106.3zm73.2-210.6c-46.1 14.6-92.6-3.1-103.7-39.5-11.1-36.5 17.3-78 63.4-92.6 46.1-14.6 92.6 3.1 103.7 39.6 11.1 36.4-17.3 77.8-63.4 92.5zm223.8 0c-46.1 14.6-92.6-3.1-103.7-39.5-11.1-36.5 17.3-78 63.4-92.6 46.1-14.6 92.6 3.1 103.7 39.6 11.1 36.4-17.3 77.8-63.4 92.5zm223.1 0c-46.1 14.6-92.6-3.1-103.7-39.5-11.2-36.5 17.3-78 63.4-92.6 46.1-14.6 92.6 3.1 103.7 39.6 11.1 36.4-17.3 77.8-63.4 92.5zm-187.8-180.3c-40.1 12.7-80.5-2.6-90.2-34.4-9.7-31.7 15-67.7 55.2-80.5 40.2-12.8 80.5 2.6 90.2 34.4 9.6 31.7-15.1 67.7-55.2 80.5zm177.1 635.1c-61.7 19.6-123.7-4.1-138.5-52.8-14.8-48.7 23.1-104.1 84.7-123.6 61.7-19.6 123.7 4.1 138.6 52.8 14.8 48.7-23.1 104.1-84.8 123.6z"/>
	</g>
	<g id="logo__balls">
		<path id="Layer" fill-rule="evenodd" class="s2" d="m636.3 894.9c16.9 55.4-26.2 118.3-96.3 140.6-70.1 22.2-140.5-4.6-157.5-60-16.9-55.4 26.3-118.3 96.3-140.5 70.1-22.2 140.6 4.6 157.5 59.9zm-339.6-142.5c-61 19.4-122.3-4-137-52.2-14.7-48.1 22.9-102.8 83.8-122.2 60.9-19.4 122.3 4 137 52.2 14.7 48.2-22.8 102.9-83.8 122.2zm295.6 0.1c-60.9 19.3-122.3-4.1-136.9-52.2-14.7-48.2 22.8-102.9 83.7-122.3 61-19.4 122.3 4 137 52.2 14.7 48.2-22.8 102.9-83.8 122.3zm-470.3-242.1c-53 16.8-106.4-3.6-119.2-45.5-12.8-41.8 19.9-89.5 72.9-106.3 53-16.9 106.4 3.5 119.2 45.4 12.8 41.9-19.9 89.5-72.9 106.4zm257.2-0.1c-53 16.9-106.4-3.5-119.2-45.4-12.7-41.8 19.9-89.5 72.9-106.3 53-16.9 106.4 3.5 119.2 45.4 12.8 41.9-19.9 89.5-72.9 106.3zm73.2-210.6c-46.1 14.6-92.6-3.1-103.7-39.5-11.1-36.5 17.3-78 63.4-92.6 46.1-14.6 92.6 3.1 103.7 39.6 11.1 36.4-17.3 77.8-63.4 92.5zm223.8 0c-46.1 14.6-92.6-3.1-103.7-39.5-11.1-36.5 17.3-78 63.4-92.6 46.1-14.6 92.6 3.1 103.7 39.6 11.1 36.4-17.3 77.8-63.4 92.5zm223.1 0c-46.1 14.6-92.6-3.1-103.7-39.5-11.2-36.5 17.3-78 63.4-92.6 46.1-14.6 92.6 3.1 103.7 39.6 11.1 36.4-17.3 77.8-63.4 92.5zm-187.8-180.3c-40.1 12.7-80.5-2.6-90.2-34.4-9.7-31.7 15-67.7 55.2-80.5 40.2-12.8 80.5 2.6 90.2 34.4 9.6 31.7-15.1 67.7-55.2 80.5zm177.1 635.1c-61.7 19.6-123.7-4.1-138.5-52.8-14.8-48.7 23.1-104.1 84.7-123.6 61.7-19.6 123.7 4.1 138.6 52.8 14.8 48.7-23.1 104.1-84.8 123.6z"/>
	</g>
</svg>