<svg xmlns='http://www.w3.org/2000/svg' viewBox="0 0 193.1 53">
      <path d="M59.1,40.2c-0.7-0.5-1.6-0.5-2.4-0.5h-1.8v9.7h1.7v-3.9h0.3c0.7,0,1.6-0.1,2.4-0.7c0.6-0.5,1-1.3,1-2.2 C60.3,41.6,59.8,40.7,59.1,40.2z M58.5,42.5c0,0.6-0.2,1.2-1.7,1.2h-0.3v-2.4C57.9,41.3,58.5,41.5,58.5,42.5z"></path>
      <path d="M69.3,38.7l-4.7,10.7h1.9l1.1-2.5h3.3l1.1,2.5h1.9L69.3,38.7z M69.2,42.9l0.9,2.3h-1.9L69.2,42.9z"></path>
      <path d="M83,45.2c1.2-0.3,2-1.4,2-2.7c0-1.9-1.2-2.8-3.7-2.8h-1.7v9.7h1.7v-3.5l2.4,3.5h2.1L83,45.2z M83.2,42.6 c0,0.9-0.5,1.2-1.8,1.2v-2.5C82.8,41.3,83.2,41.6,83.2,42.6z"></path>
      <polygon points="93.5,41.3 93.5,43.2 96.5,43.2 96.5,44.9 93.5,44.9 93.5,49.4 91.8,49.4 91.8,39.7 96.6,39.7 96.6,41.3        "></polygon>
      <path d="M110.3,39.7v6c0,1-0.1,1.9-0.9,2.7c-0.7,0.7-1.6,1.1-2.7,1.1c-1,0-1.9-0.4-2.6-1c-0.9-0.9-1-1.9-1-2.9v-6h1.7v5.8 c0,0.6,0,1.2,0.3,1.7c0.3,0.4,0.9,0.7,1.5,0.7c0.5,0,1.1-0.3,1.5-0.7c0.4-0.4,0.4-1.1,0.4-1.7v-5.8H110.3z"></path>
      <polygon points="127.4,49.4 125.6,49.4 124.6,44.1 121.9,50.3 119.1,44.1 118.1,49.4 116.3,49.4 118.4,38.3 121.9,46.1 125.3,38.3        "></polygon>
      <path d="M139.4,46.4c0,1.8-1.4,3.1-3.2,3.1c-1.6,0-2.8-1-3.2-2.6l-0.1-0.3l1.7-0.5l0.1,0.4c0.1,0.8,0.7,1.3,1.4,1.3 c0.7,0,1.5-0.5,1.5-1.4c0-0.8-0.5-1-1.4-1.4l-0.6-0.3c-1.1-0.5-2.2-1.1-2.2-2.6c0-1.5,1.2-2.7,2.9-2.7c1.1,0,2.1,0.6,2.6,1.6 l0.2,0.3l-1.4,0.9l-0.2-0.3c-0.3-0.6-0.7-0.8-1.2-0.8c-0.5,0-1.1,0.4-1.1,1c0,0.5,0.5,0.8,1.2,1.1l0.6,0.3 C138.1,44,139.4,44.7,139.4,46.4z"></path>
      <path d="M11,16.8l0.3,0c2.3,0.1,4.4,0.1,6.5,0.1c0.7,0,1.5,0,2.2-0.1l0.2,0l-4-9.1L11,16.8z M15,6.5l0.4-0.7l0.5-0.9 c0.9,0.1,1.8,0.1,2.7,0.1l0.7-0.1l0.4,1L20,6.7c0.5,1.2,1,2.4,1.5,3.6C25,18.2,26.8,22,29,25.5c-1.7-0.1-3.4-0.1-5,0l-0.5-1.4 l-0.7-1.6c-0.6-1.5-1.2-2.8-1.9-4.3c-3.6-0.2-7.1-0.2-10.5-0.1c-1,1.5-1.9,3-2.6,4.6c-0.5,0.9-0.9,1.8-1.3,2.8 c-0.9-0.1-1.8-0.1-2.7,0l0.6-0.9l0.6-0.9c1.5-2.3,3.8-6.2,8.2-14C13.8,8.6,14.4,7.5,15,6.5"></path>
      <path d="M40.3,6.6c0.1-0.6,0.1-1.2,0-1.8c6.9,0.1,14,0.1,21,0c-5.7,6.1-11.1,12.3-16.1,18.8l-0.2,0.2l0.3,0 c5.4,0.3,10.7,0.1,16-0.3c-0.1,0.6-0.1,1.3,0,2c-7.6-0.1-15.2-0.1-22.8,0c2.1-2.3,4.2-4.6,6.3-6.9c3.4-3.9,6.7-7.9,9.8-11.9 l0.2-0.2l-3.1-0.3C48,6.2,44.1,6.4,40.3,6.6"></path>
      <path d="M72.4,6.6c0.1-0.6,0.1-1.2,0-1.8c6.9,0.1,14,0.1,21,0c-5.7,6.1-11.1,12.3-16.1,18.8l-0.2,0.2l0.3,0 c5.4,0.3,10.7,0.1,16-0.3c-0.1,0.6-0.1,1.3,0,2c-7.6-0.1-15.2-0.1-22.8,0c2.1-2.3,4.2-4.6,6.3-6.9c3.4-3.9,6.7-7.9,9.8-11.9 L87,6.5l-3.1-0.3C80.1,6.2,76.2,6.4,72.4,6.6"></path>
      <path d="M109.1,16.8l0.3,0c2.3,0.1,4.4,0.1,6.5,0.1c0.7,0,1.5,0,2.2-0.1l0.2,0l-4-9.1L109.1,16.8z M113.1,6.5 l0.4-0.7l0.5-0.9c0.9,0.1,1.8,0.1,2.7,0.1l0.7-0.1l0.4,1l0.4,0.9c0.5,1.2,1,2.4,1.5,3.6c3.5,7.9,5.4,11.7,7.6,15.2 c-1.7-0.1-3.4-0.1-5,0l-0.5-1.4l-0.7-1.6c-0.6-1.5-1.2-2.8-1.8-4.3c-3.6-0.2-7.1-0.2-10.5-0.1c-1,1.5-1.9,3-2.6,4.6 c-0.5,0.9-0.9,1.8-1.3,2.8c-0.9-0.1-1.8-0.1-2.7,0l0.6-0.9l0.6-0.9c1.5-2.3,3.8-6.2,8.2-14C112,8.6,112.5,7.5,113.1,6.5"></path>
      <path d="M142.1,5.9l-0.6,0.1L140.7,6l0,8.7c0.5,0.1,0.7,0.1,0.9,0.1c4.2,0.3,6.7-0.9,7.4-3.2 c1.1-3.8-1.5-5.7-5.7-5.7C142.8,5.9,142.5,5.9,142.1,5.9 M143.5,4.7c2.6-0.1,3.9,0.1,5.4,0.5c4.3,1.2,5.6,4.9,2.9,7.6 c-1.2,1.3-2.8,1.9-5.5,2.2c-0.1,0-0.3,0-0.5,0.1l-0.2,0l0.5,0.9l0.3,0.4c1.7,1.8,4.2,4.3,7,6.8c0.8,0.8,1.7,1.5,2.6,2.2 c-1.9-0.1-3.6,0-5.5,0.1c-2.7-3.5-5.8-6.8-9.4-9.9l-0.2,0c-0.2,0.4-0.2,0.7-0.3,1l-0.1,0.9c0,2.7,0.1,5.3,0.3,7.9 c-0.3,0-0.6,0-0.9,0c-1.2,0-2.4,0-3.5,0c0.4-5.9,0.5-11.7,0.2-17.8c0-1-0.1-1.9-0.2-2.9c1.6,0.1,2.4,0.1,5.3-0.1 C142.4,4.8,143,4.8,143.5,4.7"></path>
      <path d="M179.5,5.8c-7.3-1.8-13.3,1.7-13.4,9.3c-0.1,5.4,2.6,8.6,7,9.6c7.3,1.6,13.3-2,13.3-9.6 c0-4.2-1.4-6.7-4.3-8.3C181.4,6.4,180.5,6.1,179.5,5.8 M161.9,15.2c0.1-6.2,5.8-10.6,14.3-10.7c7,0,12.3,3,13.9,7.5 c2.3,6.4-2.1,12.2-10.2,13.6C169.5,27.3,161.8,22.3,161.9,15.2"></path>
    </svg>