<?xml version="1.0" ?>
<svg xmlns="http://www.w3.org/2000/svg" xmlns:xlink="http://www.w3.org/1999/xlink" viewBox="0 0 914 526">
	<g id="Canvas" transform="translate(-41427 -40942)">
		<use xlink:href="#path0_fill" id="Vector" fill="#3B81FB" transform="translate(41427 40942)"/>
	</g>
	<defs>
		<path id="path0_fill" fill-rule="evenodd" d="M67.027 124.13c39.607 0 67.026-26.378 67.026-62.065S106.634 0 67.027 0 0 26.378 0 62.065s27.42 62.065 67.027 62.065zM7.617 526H127.96V169.127H7.617V526zm185.847 0h321.422V423.593h-74.642c-19.804 0-51.794 3.103-74.644 6.206 59.41-62.064 127.96-142.749 127.96-215.675 0-89.994-62.456-148.956-152.333-148.956-65.503 0-108.157 23.274-153.857 72.926l63.98 65.169c21.327-21.723 42.653-43.446 73.12-43.446 31.99 0 54.84 18.62 54.84 60.513 0 62.065-80.736 136.543-185.846 235.847V526zm361.03 0 105.109-186.195-99.017-170.678h127.961l25.897 49.652c9.14 20.171 18.28 41.894 27.42 62.065h3.046c6.094-20.171 15.233-41.894 21.326-62.065l16.758-49.652h124.912L808.89 355.321 914 526H786.04l-27.42-49.652c-10.664-20.171-19.804-41.894-30.467-62.065h-3.047c-7.616 20.171-16.756 40.342-24.373 62.065L680.93 526H554.494zM565.156 1.552h333.611v93.097H565.156V1.552z"/>
	</defs>
</svg>