<?xml version="1.0" ?>
<svg xmlns="http://www.w3.org/2000/svg" viewBox="0 0 50 50" fill="none">
	<path d="M24.76 10C16.62 10 10 16.62 10 24.76C10 31.85 15.03 37.79 21.71 39.2V37.14C16.15 35.76 12 30.74 12 24.76C12 17.73 17.73 12 24.76 12C31.79 12 37.52 17.73 37.52 24.76C37.52 31.79 31.79 37.52 24.76 37.52V39.52C32.9 39.52 39.52 32.9 39.52 24.76C39.52 16.62 32.91 10 24.76 10Z" fill="url(#paint0_linear_9176_12934)"/>
	<path d="M24.41 25.76C22.11 25.76 20.23 23.89 20.23 21.58C20.23 19.27 22.1 17.4 24.41 17.4C26.72 17.4 28.59 19.27 28.59 21.58C28.59 23.89 26.72 25.76 24.41 25.76ZM24.41 19.41C23.21 19.41 22.23 20.39 22.23 21.59C22.23 22.79 23.21 23.77 24.41 23.77C25.61 23.77 26.59 22.79 26.59 21.59C26.59 20.39 25.61 19.41 24.41 19.41Z" fill="#10185F"/>
	<path d="M31.13 31.96H29.13V29.14C29.13 28.83 28.88 28.58 28.57 28.58H20.97C20.66 28.58 20.41 28.83 20.41 29.14V31.96H18.41V29.14C18.41 27.73 19.56 26.58 20.97 26.58H28.57C29.98 26.58 31.13 27.73 31.13 29.14V31.96Z" fill="#10185F"/>
	<defs>
		<linearGradient id="paint0_linear_9176_12934" x1="16.96" y1="43.88" x2="28.12" y2="16.55" gradientUnits="userSpaceOnUse">
			<stop offset="0.17" stop-color="#DCF0F5"/>
			<stop offset="0.28" stop-color="#4DB7CB"/>
			<stop offset="1" stop-color="#2961ED"/>
		</linearGradient>
	</defs>
</svg>