<?xml version="1.0" ?>
<svg xmlns="http://www.w3.org/2000/svg" xmlns:xlink="http://www.w3.org/1999/xlink" viewBox="0 0 73.58 73.58">
	<style>
		.cls0 { fill: #FFF; }
		.cls1 { fill: url(#a); }
		.cls2 { fill: url(#b); }
		.cls3 { fill: url(#c); }
		.cls4 { fill: url(#d); }
		.cls5 { fill: url(#e); }
		.cls6 { fill: url(#f); }
		.cls7 { fill: url(#g); }
		.cls8 { fill: url(#i); }
		.cls9 { fill: url(#j); }
		.cls10 { fill: url(#l); }
		.cls11 { fill: url(#h); }
	</style>
	<defs>
		<linearGradient x1="0%" y1="66.487%" x2="100%" y2="66.487%" id="a">
			<stop stop-color="#20C0FF" stop-opacity=".409" offset="0%"/>
			<stop stop-color="#009BFF" offset="100%"/>
		</linearGradient>
		<linearGradient x1="47.458%" y1="102.877%" x2="100%" y2="33.488%" id="b">
			<stop stop-color="#4BCDFF" stop-opacity="0" offset="0%"/>
			<stop stop-color="#1A8CF7" offset="100%"/>
		</linearGradient>
		<linearGradient x1="86.893%" y1="0%" x2="32.945%" y2="91.724%" id="c">
			<stop stop-color="#004FFF" offset="0%"/>
			<stop stop-color="#72BEFA" stop-opacity="0" offset="100%"/>
		</linearGradient>
		<linearGradient x1="87.832%" y1="106.171%" x2="33.15%" y2="97.617%" id="d">
			<stop stop-color="#3B84EE" offset="0%"/>
			<stop stop-color="#3F9BF2" stop-opacity=".608" offset="57.515%"/>
			<stop stop-color="#44A0F9" stop-opacity="0" offset="100%"/>
		</linearGradient>
		<linearGradient x1="23.155%" y1="64.283%" x2="4.394%" y2="31.73%" id="e">
			<stop stop-color="#8ADBFF" stop-opacity="0" offset="0%"/>
			<stop stop-color="#66C5F3" offset="100%"/>
		</linearGradient>
		<linearGradient x1="47.003%" y1="0%" x2="61.451%" y2="52.677%" id="i">
			<stop stop-color="#14AFF8" offset="0%"/>
			<stop stop-color="#4FC0FB" stop-opacity="0" offset="100%"/>
		</linearGradient>
		<linearGradient x1="66.005%" y1="84.468%" x2="37.683%" y2="0%" id="j">
			<stop stop-color="#89D8FA" stop-opacity="0" offset="0%"/>
			<stop stop-color="#06ADFF" stop-opacity=".5" offset="100%"/>
		</linearGradient>
		<radialGradient cx="44.414%" cy="30.31%" fx="44.414%" fy="30.31%" r="63.683%" gradientTransform="matrix(-.41438 .90025 -.60553 -.3077 .812 -.003)" id="f">
			<stop stop-color="#A5EEFB" stop-opacity=".15" offset="0%"/>
			<stop stop-color="#3A98F6" stop-opacity="0" offset="100%"/>
		</radialGradient>
		<radialGradient cx="29.202%" cy="25%" fx="29.202%" fy="25%" r="16.902%" gradientTransform="matrix(.4032 -.83036 1.0903 1.01118 -.098 .24)" id="g">
			<stop stop-color="#ACE8FF" stop-opacity=".15" offset="0%"/>
			<stop stop-color="#59C2F8" stop-opacity="0" offset="100%"/>
		</radialGradient>
		<radialGradient cx="48.886%" cy="51.121%" fx="48.886%" fy="51.121%" r="38.445%" gradientTransform="matrix(0 1 -.95176 0 .975 .022)" id="h">
			<stop stop-color="#B3E3FA" stop-opacity=".2" offset="0%"/>
			<stop stop-color="#D8D8D8" stop-opacity="0" offset="100%"/>
		</radialGradient>
		<radialGradient cx="56.824%" cy="50%" fx="56.824%" fy="50%" r="42.566%" gradientTransform="matrix(0 1 -1.00519 0 1.07 -.068)" id="l">
			<stop stop-color="#23B2F8" stop-opacity=".652" offset="0%"/>
			<stop stop-color="#2DB6FA" stop-opacity=".424" offset="62.743%"/>
			<stop stop-color="#40BFFE" stop-opacity="0" offset="100%"/>
		</radialGradient>
		<path d="M -7.5,23.987 C -7.5,18.074 -3.73,12.999 1.647,10.82 C 2.462,5.814 7.01,1.982 12.499,1.982 C 14.139,1.982 15.694,2.324 17.092,2.937 C 20.615,-2.832 27.179,-6.71 34.694,-6.71 C 45.58,-6.71 54.468,1.426 55.014,11.657 C 61.346,13.0 66.08,18.38 66.08,24.812 C 66.08,32.256 59.74,38.29 51.92,38.29 L 7.53,38.29 C -0.772,38.29 -7.5,31.886 -7.5,23.987" id="k"/>
	</defs>
	<g fill="none" fill-rule="evenodd">
		<path d="M 15.028,59.29 C 6.728,59.29 0.0,52.886 0.0,44.987 C 0.0,39.074 3.77,33.999 9.147,31.82 C 9.962,26.814 14.51,22.982 19.999,22.982 C 21.639,22.982 23.194,23.324 24.592,23.937 C 28.115,18.168 34.679,14.29 42.194,14.29 C 53.08,14.29 61.968,22.426 62.514,32.657 C 68.846,34.0 73.58,39.38 73.58,45.812 C 73.58,53.256 67.24,59.29 59.42,59.29 L 15.028,59.29" class="cls0"/>
		<path d="M 7.528,38.29 C -0.772,38.29 -7.5,31.886 -7.5,23.987 C -7.5,18.074 -3.73,12.999 1.647,10.82 C 2.462,5.814 7.01,1.982 12.499,1.982 C 14.139,1.982 15.694,2.324 17.092,2.937 C 20.615,-2.832 27.179,-6.71 34.694,-6.71 C 45.58,-6.71 54.468,1.426 55.014,11.657 C 61.346,13.0 66.08,18.38 66.08,24.812 C 66.08,32.256 59.74,38.29 51.92,38.29 L 7.528,38.29" transform="translate(7.5 21)" class="cls1"/>
		<path d="M 42.194,53.019 C 53.431,53.019 62.54,44.349 62.54,33.654 C 62.54,22.96 53.431,14.29 42.194,14.29 C 30.958,14.29 21.85,22.96 21.85,33.654 C 21.85,44.349 30.959,53.019 42.195,53.019 L 42.194,53.019" class="cls2"/>
		<path d="M 47.094,52.453 C 55.964,50.366 62.54,42.741 62.54,33.654 C 62.54,33.32 62.531,32.987 62.514,32.657 A 14.902,14.902 0.0 0,0 59.419,32.334 C 51.598,32.334 45.258,38.368 45.258,45.812 C 45.258,48.227 45.925,50.493 47.094,52.453 L 47.094,52.453" opacity=".121" class="cls3"/>
		<path d="M 59.419,59.29 C 67.24,59.29 73.58,53.256 73.58,45.812 C 73.58,38.368 67.24,32.334 59.42,32.334 C 51.6,32.334 45.259,38.368 45.259,45.812 C 45.259,53.256 51.598,59.29 59.419,59.29" class="cls4"/>
		<path d="M 28.923,39.528 C 26.669,34.336 21.297,30.684 15.028,30.684 A 15.65,15.65 0.0 0,0 9.147,31.82 A 9.996,9.996 0.0 0,0 9.017,33.434 C 9.017,39.207 13.934,43.887 19.999,43.887 C 23.675,43.887 26.929,42.167 28.923,39.527 L 28.923,39.528" class="cls5"/>
		<g transform="translate(16.517 21)">
			<path d="M 42.902,38.29 C 50.723,38.29 57.063,32.256 57.063,24.812 C 57.063,17.368 50.723,11.334 42.903,11.334 C 35.081,11.334 28.741,17.368 28.741,24.812 C 28.741,32.256 35.081,38.29 42.902,38.29 M 30.577,31.453 C 39.447,29.366 46.023,21.741 46.023,12.654 C 46.023,12.32 46.014,11.987 45.997,11.657 A 14.902,14.902 0.0 0,0 42.902,11.334 C 35.082,11.334 28.741,17.368 28.741,24.812 C 28.741,27.227 29.408,29.493 30.577,31.453 L 30.577,31.453" class="cls6"/>
			<path d="M 25.678,-6.71 C 36.914,-6.71 46.023,1.96 46.023,12.654 C 46.023,23.349 36.914,32.019 25.678,32.019 C 18.011,32.019 11.334,27.983 7.866,22.021 C 11.75,20.409 14.464,16.723 14.464,12.434 C 14.464,8.223 11.847,4.593 8.076,2.938 C 11.597,-2.832 18.16,-6.71 25.678,-6.71 M 3.482,1.982 C 5.122,1.982 6.678,2.324 8.076,2.938 A 18.56,18.56 0.0 0,0 5.332,12.654 C 5.332,16.052 6.252,19.245 7.866,22.021 A 11.43,11.43 0.0 0,1 3.482,22.887 C -2.583,22.887 -7.5,18.207 -7.5,12.434 C -7.5,6.662 -2.583,1.982 3.482,1.982" class="cls7"/>
			<ellipse cx="6.141" cy="14.689999999999998" rx="10.924" ry="10.397" class="cls11"/>
		</g>
		<path d="M 21.849,33.654 C 21.849,37.052 22.768,40.244 24.383,43.021 C 28.266,41.41 30.981,37.724 30.981,33.434 C 30.981,29.222 28.363,25.592 24.591,23.937 A 18.568,18.568 0.0 0,0 21.849,33.654 L 21.849,33.654" class="cls8"/>
		<path d="M 29.516,48.8 A 13.67,13.67 0.0 0,0 30.056,44.987 C 30.056,39.444 26.744,34.637 21.9,32.263 C 21.866,32.723 21.849,33.187 21.849,33.654 C 21.849,39.786 24.843,45.252 29.516,48.8" class="cls9"/>
		<g transform="translate(7.5 21)">
			<mask id="m" fill="#fff">
				<use xlink:href="#k"/>
			</mask>
			<path d="M 30.59,67.667 C 47.765,67.667 61.687,54.416 61.687,38.07 C 61.687,21.724 47.765,8.473 30.591,8.473 C 13.416,8.473 -0.506,21.724 -0.506,38.07 C -0.506,54.416 13.416,67.667 30.591,67.667 L 30.59,67.667" mask="url(#m)" class="cls10"/>
		</g>
	</g>
</svg>
