<?xml version="1.0" ?>
<svg xmlns="http://www.w3.org/2000/svg" version="1.2" viewBox="0 0 1537 419">
	<title>ICON_positive_logo-svg</title>
	<style>
		.s0 { fill: #008579 } 
		.s1 { fill: #ffffff } 
	</style>
	<g id="Generic/loco-colour">
		<g id="Page-1">
			<path id="Fill-1" fill-rule="evenodd" class="s0" d="m1327.8 0.2c-81.5 0-151.9 47.1-186.2 115.5-34.3-68.4-104.7-115.5-186.2-115.5-82.3 0-153.3 48.1-187.2 117.6-33.9-69.5-104.9-117.6-187.2-117.6-81.6 0-152 47.1-186.3 115.5-34.2-68.4-104.6-115.5-186.2-115.5-115.1 0-208.5 93.7-208.5 209.3 0 115.5 93.4 209.2 208.5 209.2 81.6 0 152-47.1 186.2-115.5 34.3 68.4 104.7 115.5 186.3 115.5 82.3 0 153.3-48 187.2-117.6 33.9 69.6 104.9 117.6 187.2 117.6 81.5 0 151.9-47 186.2-115.4 34.3 68.4 104.7 115.4 186.2 115.4 115.2 0 208.6-93.7 208.6-209.2 0-115.6-93.4-209.3-208.6-209.3z"/>
			<path id="Fill-4" fill-rule="evenodd" class="s1" d="m956.2 329.8c-67.1 0-121.4-54.4-121.4-121.8 0-67.3 54.3-121.8 121.4-121.8 67.1 0 121.4 54.5 121.4 121.8 0 67.4-54.3 121.8-121.4 121.8zm69.9-121.8c0-38.8-31.2-70.2-69.9-70.2-38.7 0-69.9 31.4-69.9 70.2 0 38.8 31.2 70.2 69.9 70.2 38.7 0 69.9-31.4 69.9-70.2z"/>
			<path id="Fill-6" fill-rule="evenodd" class="s1" d="m1232.5 330.7h-2.1v-216.8c0-17.6 11.8-28 26.9-28 7.3 0.1 17.6 5.1 22.5 11.8l101.6 135.9v-119.7c0-17.6 11.7-28 26.9-28 15.2 0 26.9 10.4 26.9 28v188.3c0 17.5-11.7 27.9-26.9 28-7.3-0.2-17.3-5.2-22.5-11.8l-101.6-134.4v146.7z"/>
			<path id="Fill-8" fill-rule="evenodd" class="s1" d="m664.1 266.9c-4.9-7.6-13.1-11.9-21.5-11.9-4.5 0-9.2 1.3-13.3 4l2.8 4.3-3.4-3.8c-12.5 11.2-29 18-46.9 18-38.7-0.1-69.9-31.4-70-70.2 0.1-38.7 31.3-70.1 70-70.2 25.9 0 49.4 13.8 61.5 34.6l3.3 5.9 35.9-37.1-2.6-3.5c-22-30.3-57.8-50.1-98.1-50.1-67.1 0-121.4 54.5-121.4 121.8 0 67.3 54.3 121.8 121.4 121.8 28.9 0 55.6-10.1 76.5-27.1 7-4.6 11.1-12.7 11.1-21 0-4.7-1.3-9.5-4.1-13.7z"/>
			<path id="Fill-10" fill-rule="evenodd" class="s1" d="m208.1 82.2h-2.2c-13.9 0-25.2 11.3-25.2 25.3v226.2h52.6v-226.2c0-14-11.3-25.3-25.2-25.3z"/>
		</g>
	</g>
</svg>