<?xml version="1.0" ?>
<svg xmlns="http://www.w3.org/2000/svg" viewBox="0 0 448.791 153.423">
	<path fill="#29abe2" d="M 2.796,39.965 L 2.796,113.459 L 66.441,150.205 L 130.071,113.459 L 130.071,39.965 L 66.427,3.219 L 2.796,39.965"/>
	<path fill="#fff" d="M 66.441,153.423 L 0.0,115.068 L 0.0,38.342 L 66.427,0.0 L 132.868,38.356 L 132.868,115.068 L 66.441,153.423 L 66.441,153.423 M 5.579,111.835 L 66.441,146.972 L 127.262,111.835 L 127.262,41.575 L 66.427,6.438 L 5.579,41.575 L 5.579,111.835"/>
	<path fill="#fff" d="M 111.784,108.727 A 2.8,2.8 0.0 0,1 108.984,105.927 L 108.984,47.481 A 2.79,2.79 0.0 1,1 114.563,47.481 L 114.563,105.927 A 2.728,2.728 0.0 0,1 111.835,108.727 L 111.784,108.727 M 69.076,133.372 A 2.728,2.728 0.0 0,1 67.712,133.004 L 17.064,103.787 A 2.779,2.779 0.0 0,1 19.792,98.945 L 70.465,128.176 A 2.728,2.728 0.0 0,1 69.101,133.376 L 69.076,133.372 M 18.455,54.833 A 2.728,2.728 0.0 0,1 17.091,49.622 L 67.691,20.391 A 2.7812,2.7812 0.0 0,1 70.427,25.234 L 19.846,54.464 A 2.728,2.728 0.0 0,1 18.482,54.846 L 18.455,54.833"/>
	<path fill="#666" d="M 153.819,37.592 A 3.028,3.028 0.0 0,1 159.862,37.592 L 159.862,117.959 A 3.028,3.028 0.0 0,1 153.819,117.959 L 153.819,37.592 M 177.73,120.919 L 177.239,120.919 A 2.96,2.96 0.0 0,1 174.511,117.959 L 174.511,37.592 A 3.014,3.014 0.0 0,1 177.471,34.632 L 193.621,34.632 A 43.144,43.144 0.0 1,1 193.621,120.919 L 177.73,120.919 M 193.63,114.849 A 37.1,37.1 0.0 1,0 193.63,40.649 L 180.571,40.649 L 180.571,114.849 L 193.63,114.849"/>
	<path fill="#29abe2" d="M 297.545,80.749 L 253.174,80.749 L 253.174,117.959 A 3.028,3.028 0.0 0,1 250.091,120.919 A 2.987,2.987 0.0 0,1 247.131,117.959 L 247.131,37.592 A 3.0,3.0 0.0 0,1 250.091,34.632 A 3.042,3.042 0.0 0,1 253.174,37.592 L 253.174,74.816 L 297.545,74.816 L 297.545,37.592 A 3.0,3.0 0.0 0,1 300.491,34.632 A 3.042,3.042 0.0 0,1 303.574,37.592 L 303.574,117.959 A 3.028,3.028 0.0 0,1 300.491,120.919 A 2.987,2.987 0.0 0,1 297.531,117.959 L 297.545,80.749 M 315.904,63.358 A 2.96,2.96 0.0 1,1 321.824,63.358 L 321.824,96.271 A 18.619,18.619 0.0 1,0 359.048,96.271 L 359.048,63.358 A 2.987,2.987 0.0 0,1 362.008,60.398 A 2.946,2.946 0.0 0,1 365.091,63.358 L 365.091,96.271 A 24.593,24.593 0.0 0,1 315.905,96.271 L 315.904,63.358 M 376.67,92.07 L 376.67,37.592 A 3.0,3.0 0.0 0,1 379.603,34.632 A 3.042,3.042 0.0 0,1 382.686,37.592 L 382.686,72.36 A 28.78,28.78 0.0 0,1 405.874,60.52 C 422.133,60.52 435.074,74.078 435.074,90.842 C 435.074,107.36 422.13,120.85 405.874,120.85 A 28.644,28.644 0.0 0,1 382.686,109.15 L 382.686,117.893 A 3.028,3.028 0.0 0,1 379.603,120.921 A 2.987,2.987 0.0 0,1 376.643,117.961 L 376.67,92.07 M 382.713,90.842 C 382.713,104.155 393.189,114.876 405.901,114.876 C 418.613,114.876 429.089,104.155 429.089,90.842 C 429.089,77.529 418.736,66.563 405.901,66.563 C 393.448,66.563 383.218,76.916 382.713,89.863 L 382.713,90.842 M 433.89,68.705 A 7.748,7.748 0.0 0,1 430.59,65.322 A 11.458,11.458 0.0 0,1 429.458,59.989 A 11.431,11.431 0.0 0,1 430.59,54.669 A 7.679,7.679 0.0 0,1 433.89,51.286 A 12.385,12.385 0.0 0,1 444.352,51.286 A 7.68,7.68 0.0 0,1 447.652,54.669 A 11.43,11.43 0.0 0,1 448.784,59.989 A 11.458,11.458 0.0 0,1 447.652,65.322 A 7.748,7.748 0.0 0,1 444.352,68.705 A 12.276,12.276 0.0 0,1 433.89,68.705 M 442.906,66.386 A 5.729,5.729 0.0 0,0 445.334,63.886 A 8.4,8.4 0.0 0,0 446.166,59.986 A 8.825,8.825 0.0 0,0 445.334,55.986 A 5.62,5.62 0.0 0,0 442.92,53.463 A 8.7,8.7 0.0 0,0 435.32,53.463 A 5.62,5.62 0.0 0,0 432.906,55.992 A 8.825,8.825 0.0 0,0 432.074,59.992 A 8.525,8.525 0.0 0,0 432.906,63.917 A 5.661,5.661 0.0 0,0 435.32,66.399 A 8.866,8.866 0.0 0,0 442.904,66.399 L 442.906,66.386 M 435.281,54.969 L 437.695,54.969 L 437.695,64.94 L 435.281,64.94 L 435.281,54.969 M 436.781,59.784 L 439.806,59.784 A 1.1,1.1 0.0 0,0 440.665,59.443 A 1.664,1.664 0.0 0,0 440.665,57.465 A 1.146,1.146 0.0 0,0 439.806,57.138 L 436.778,57.138 L 436.778,54.969 L 439.738,54.969 A 3.669,3.669 0.0 0,1 442.466,55.924 A 3.806,3.806 0.0 0,1 442.466,60.984 A 3.642,3.642 0.0 0,1 439.738,61.939 L 436.778,61.939 L 436.781,59.784 M 439.086,61.039 L 441.118,59.975 L 443.71,64.913 L 440.982,64.913 L 439.086,61.039"/>
</svg>