<svg xmlns="http://www.w3.org/2000/svg" xml:space="preserve" id="Layer_1" x="0" y="0" style="enable-background:new 0 0 122.85 124.27" version="1.1" viewBox="0 0 122.85 124.27"><style>.st0{fill:#662d91}.st1{fill:#fff}</style><path d="M23.87 24.03C11.02 37.47 2.06 49.89 2.28 62.31c-.22 12.42 8.74 24.84 21.59 38.28 13.28 13 25.57 22.06 37.85 21.84 12.28.22 24.56-8.84 37.85-21.84 12.85-13.44 21.81-25.86 21.59-38.28.22-12.42-8.74-24.84-21.59-38.28C86.28 11.03 74 1.97 61.72 2.19c-12.28-.22-24.56 8.84-37.85 21.84z" class="st0"/><circle cx="55.96" cy="28.59" r="10.14" class="st1"/><path d="M43.75 42.84c-1.15 3.77-2.07 7.3-2.82 10.85-.73 3.53-1.36 7.01-1.67 10.54-.16.87-.13 1.76-.22 2.64-.09.88-.17 1.77-.17 2.66-.04.89-.05 1.78-.12 2.68 0 .89.02 1.79 0 2.7-.1 1.83.09 3.64.04 5.52.01 1.88.18 3.75.05 5.78-.58-.8-1.09-1.64-1.58-2.49-.48-.86-1.02-1.71-1.36-2.63-.71-1.82-1.49-3.67-1.86-5.61-.21-.97-.44-1.94-.6-2.92-.13-.98-.2-1.98-.29-2.97-.12-.99-.07-1.99-.06-2.99.06-1 .02-2 .17-2.99.37-3.98 1.51-7.89 3.21-11.48 1.72-3.57 4.05-6.93 7.28-9.29z" class="st1"/><g id="XMLID_14_"><path d="M75.98 91.05c-9.93-1.56-19.7-1.32-33.77 2.88 13.43-17.7 16.29-32.18 11.36-45.5C67.5 52.82 78 54.02 91.56 54.19c-2.89 9.58-6.03 22.84-15.58 36.86z" class="st1"/><path d="M76 91.18c-.71-.02-1.41-.04-2.12-.07-.68-.01-1.36-.03-2.04-.04-1.36-.01-2.72-.03-4.1.02-2.76.08-5.58.35-8.44.82-2.87.49-5.74 1.03-8.67 1.81-2.93.77-5.9 1.68-8.89 2.67-1.15.38-1.86-.38-1.65-1.73.1-.66.4-1.33.8-1.89.03-.04.06-.09.09-.13 2.85-3.96 5.18-7.99 7.04-11.97 1.86-3.97 3.21-7.93 4-11.82.77-3.9 1.08-7.67.76-11.32-.31-3.64-1.21-7.14-2.68-10.38v-.01c-.6-1.29.28-1.78 2.02-1.24 7.18 2.25 13.74 3.81 19.91 4.74 3.11.5 6.13.86 9.09 1.12 2.97.28 5.84.42 8.75.61.06 0 .12.01.18.01 1.24.09 2.97.93 3.79 1.91.4.48.51.91.38 1.23-1.71 3.97-3.59 9.23-6.28 15.43-1.37 3.08-3.03 6.34-4.95 9.74A80.96 80.96 0 0 1 76 91.18zm-.04-.27c.58-.88 1.13-1.74 1.67-2.6.57-.9 1.11-1.8 1.62-2.69 1.04-1.79 1.97-3.58 2.83-5.34 1.72-3.52 3.11-6.94 4.27-10.15 2.32-6.43 3.75-11.94 4.92-16.07l.45.33c-5.71-.08-11.59-.28-17.86-1.11-6.27-.81-12.96-2.32-20.13-4.56.08-.05.15-.1.23-.15 2.66 6.57 2.89 14.16.83 21.95-2.05 7.8-6.33 15.8-12.44 23.54-.03-.13-.06-.27-.09-.41 5.96-1.75 11.84-3.01 17.54-3.47 2.85-.24 5.65-.28 8.37-.14 1.36.07 2.7.18 4.02.32l1.96.24c.62.09 1.21.2 1.81.31z" class="st0"/><path d="M78.02 101.18c-9.33-.45-19.03.55-34.11 5.19C62.33 90.6 68.98 76.28 68.95 61.81c12.29 3.72 22.3 4.14 35.78 3.18-6.54 10.9-13.21 23.95-26.71 36.19z" class="st1"/><path d="m78 101.29-2.07.12c-.66.05-1.33.09-1.99.14-1.34.11-2.67.2-4.04.36-2.74.3-5.6.75-8.55 1.37-2.97.64-5.95 1.33-9.07 2.21-3.11.88-6.3 1.86-9.55 2.91-1.25.4-1.71-.14-1.11-1.26.29-.54.78-1.12 1.34-1.62.04-.04.09-.08.13-.12 3.96-3.52 7.41-7.2 10.38-10.93 2.98-3.72 5.45-7.53 7.37-11.35 1.91-3.83 3.36-7.64 4.22-11.41.87-3.77 1.16-7.5.91-11.07v-.01c-.11-1.43.97-2.09 2.5-1.62 6.31 1.96 12.28 3.15 18.1 3.65 2.92.29 5.8.43 8.66.47 2.87.05 5.68-.04 8.53-.08h.17c1.21-.01 2.6.81 3.04 1.84.21.51.16.98-.09 1.33-3.2 4.53-6.76 10.09-11.25 16.21-2.27 3.04-4.85 6.18-7.73 9.35-2.88 3.24-6.17 6.43-9.9 9.51zm.04-.21c.83-.76 1.62-1.52 2.4-2.28.82-.79 1.61-1.6 2.37-2.41 1.54-1.61 2.97-3.25 4.33-4.88 2.71-3.27 5.07-6.55 7.17-9.72 4.21-6.35 7.41-12.18 10.18-16.92.11.11.21.22.32.33-5.68.4-11.46.67-17.42.29-5.96-.36-12.08-1.46-18.41-3.36.1-.06.19-.12.29-.19.21 7.21-1.89 14.99-6.21 22.6-4.3 7.62-10.76 15.09-19.06 21.93l.03-.32c6.39-1.94 12.54-3.47 18.29-4.32 2.88-.43 5.65-.69 8.29-.81 1.32-.06 2.61-.07 3.87-.07l1.86.03c.59.02 1.14.06 1.7.1z" class="st0"/></g></svg>