<?xml version="1.0" encoding="UTF-8" standalone="no"?>
<svg xmlns="http://www.w3.org/2000/svg" xml:space="preserve" viewBox="0 0 987.00001 457.10001" y="0px" x="0px" version="1.1">
    <style>
    .st0 {
        fill: #E30613;
    }

    .st1 {
        fill: #FFFFFF;
    }

    .st2 {
        fill-rule: evenodd;
        clip-rule: evenodd;
        fill: #141B30;
    }

    .st3 {
        fill: #8AB7CB;
    }

    .st4 {
        fill: none;
    }
    </style>
    <g transform="translate(-12.2,-5.5)">
        <g>
            <rect height="185.2" width="185.2" class="st0" y="97.699997" x="14" />
            <polygon points="30.2,171.3 40.5,178.6 36.8,190.5 46.7,183.2 56.9,190.3 53,178.5 63.1,171 50.7,171.1 46.7,159.1 42.9,171.1 " class="st1" />
            <polygon points="70.1,171.3 80.4,178.6 76.7,190.5 86.7,183.2 96.8,190.3 92.9,178.5 103.1,171 90.6,171.1 86.7,159.1 82.8,171.1 " class="st1" />
            <polygon points="110.2,171.3 120.5,178.6 116.8,190.5 126.8,183.2 136.9,190.3 133,178.5 143.2,171 130.7,171.1 126.8,159.1 122.9,171.1 " class="st1" />
            <polygon points="90,198.9 100.3,206.2 96.6,218 106.6,210.8 116.7,217.9 112.9,206.1 123,198.6 110.5,198.7 106.6,186.6 102.7,198.7 " class="st1" />
            <polygon points="50.1,198.9 60.3,206.2 56.6,218 66.6,210.8 76.7,217.9 72.8,206.1 83,198.6 70.5,198.7 66.6,186.6 62.7,198.7 " class="st1" />
            <polygon points="130.2,198.9 140.5,206.2 136.8,218 146.7,210.8 156.9,217.9 153,206.1 163.1,198.6 150.7,198.7 146.7,186.6 142.9,198.7 " class="st1" />
            <polygon points="150.3,171.3 160.6,178.6 156.8,190.5 166.8,183.2 176.9,190.3 173.1,178.5 183.2,171 170.8,171.1 166.8,159.1 162.9,171.1 " class="st1" />
            <path d="M 224.4,79.9 H 268 V 40.4 H 224.4 Z M 268,96.1 H 224.4 V 284.6 H 268 Z" class="st2" />
            <path d="M 672.8,287.9 V 37.8 h -43.7 v 79 C 608.4,101.5 597.3,96 585.5,96 c -34,0 -47.8,26.3 -47.8,74.8 v 45.7 c 0,48.5 13.9,74.8 47.8,74.8 19.4,0 38.8,-14.6 46.4,-26.3 h 0.7 v 22.9 h 40.2 m -43.6,-42.6 c -8.7,9.4 -16.6,13.5 -26.3,13.5 -11.8,0 -21.5,-7.6 -21.5,-45 v -40.2 c 0,-37.4 9.7,-45 21.5,-45 9.7,0 17.7,4.2 26.3,13.5 z" class="st2" />
            <path d="m 744.2,168.7 v -10.4 c 0,-16.6 8,-27 25.6,-27 17.7,0 25.6,10.4 25.6,27 v 10.4 h -51.2 m 94.9,35.4 v -44 c 0,-38.5 -28.8,-64.1 -69.3,-64.1 -41.6,0 -69.3,25.6 -69.3,66.9 v 61.7 c 0,41.2 27.7,66.9 69.3,66.9 44,0 67.2,-22.9 69.3,-61.7 h -43.7 c 0,14.5 -7.3,26.3 -25.6,26.3 -14.6,0 -25.6,-8.3 -25.6,-27 v -24.9 h 94.9 z" class="st2" />
            <path d="m 953.1,241.5 c -10.4,10.4 -19.7,17.3 -32.9,17.3 -11.8,0 -19.4,-7.3 -19.4,-19.7 0,-19.7 26.3,-34.3 52.3,-43.3 v 45.7 m -46.8,-87 c 0,-13.5 11.1,-23.2 24.3,-23.2 12.5,0 22.5,6.2 22.5,22.5 v 13.9 c -54.4,16.3 -96,35 -96,78.6 0,30.5 17,45 43.3,45 21.8,0 39.1,-9 52,-21.8 1.4,7.6 2.1,13.5 3.1,18.4 h 43.7 c -1.4,-4.9 -2.4,-10.1 -2.4,-15.3 V 153.1 c 0,-33.6 -17.7,-57.2 -64.1,-57.2 -35,0 -66.9,16.6 -70,58.6 z" class="st2" />
            <path d="m 288.8,79.1 h 11.4 v -53 H 288.8 Z M 300.2,5.5 h -11.4 v 10.2 h 11.4 z" class="st3" />
            <path d="m 326.2,38.6 c 2,-1.8 5.6,-5.2 8.7,-5.2 3.9,0 5.1,2.9 5.1,6.5 v 39.2 h 11.4 V 38.5 c 0,-9.8 -3.8,-13.4 -11.1,-13.4 -5.8,0 -10.6,4.4 -14.6,7.8 v -6.8 h -11 v 53 h 11.4 V 38.6 Z" class="st3" />
            <path d="m 379.3,25.2 c -8.7,0 -16.5,4.7 -16.5,14.6 0,8.7 5.8,12.5 11.9,15.5 l 4.5,2.1 c 3.5,1.7 8.1,3.9 8.1,8.5 0,3.4 -2.7,5.3 -6.6,5.3 -5.1,0 -8.3,-3.3 -9.6,-8.2 l -10,2.8 c 5.9,12.8 12.4,14.5 19.6,14.5 10.2,0 17.4,-5.5 17.4,-15.8 0,-15.8 -24.5,-15.7 -24.5,-24.7 0,-3.1 2.5,-5.4 5.6,-5.4 3.9,0 7.2,2.4 9,7.2 l 9.3,-3.6 c -3.1,-7.9 -9.3,-12.8 -18.2,-12.8" class="st3" />
            <path d="m 408.3,69.9 c 0,7.3 4.9,10.2 13,10.2 2.2,0 4.4,-0.1 6.6,-0.4 V 70.3 H 426 c -3.5,0 -6.2,-1.4 -6.2,-4.5 V 37.6 h 8.1 v -9 h -8.1 V 13.8 h -11.4 v 14.7 h -5 v 9 h 5 v 32.4 z" class="st3" />
            <path d="m 437.9,79.1 h 11.4 v -53 H 437.9 Z M 449.3,5.5 h -11.4 v 10.2 h 11.4 z" class="st3" />
            <path d="m 463.5,69.9 c 0,7.3 4.9,10.2 13,10.2 2.2,0 4.4,-0.1 6.6,-0.4 v -9.4 h -1.9 c -3.5,0 -6.2,-1.4 -6.2,-4.5 V 37.6 h 8 v -9 h -8 V 13.8 h -11.4 v 14.7 h -5 v 9 h 5 v 32.4 z" class="st3" />
            <path d="m 516.8,66.7 c -2,1.8 -5.6,5.2 -8.7,5.2 -3.9,0 -5.1,-2.9 -5.1,-6.5 V 26.1 h -11.4 v 40.6 c 0,9.8 3.8,13.4 11.1,13.4 5.8,0 10.6,-4.4 14.6,-7.8 v 6.8 h 11 v -53 h -11.4 v 40.6 z" class="st3" />
            <path d="m 540.8,69.9 c 0,7.3 4.9,10.2 13,10.2 2.2,0 4.4,-0.1 6.6,-0.4 v -9.4 h -1.9 c -3.5,0 -6.2,-1.4 -6.2,-4.5 V 37.6 h 8.1 v -9 h -8.1 V 13.8 h -11.4 v 14.7 h -5 v 9 h 5 v 32.4 z" class="st3" />
            <path d="m 606.5,43 c 0,-10.7 -8,-17.8 -19.3,-17.8 -11.6,0 -19.3,7.1 -19.3,18.6 v 17.7 c 0,11.5 7.7,18.6 19.3,18.6 12.1,0 18.5,-6.1 19.3,-16.6 h -11.4 c -0.2,4.2 -2.5,7.6 -7.9,7.6 -4.5,0 -7.9,-2.6 -7.9,-8.3 v -7.7 h 27.2 z m -27.2,-0.5 c 0,-5 2.5,-8.3 7.9,-8.3 5.4,0 7.9,3.3 7.9,8.3 V 46 h -15.8 z" class="st3" />
            <polygon points="348.8,165.9 381.3,280.6 424.4,280.6 456.9,165.9 457.5,165.9 457.5,280.6 512.1,280.6 512.1,101.1 429.9,101.1 403.1,209 402.6,209 375.8,101.1 293.7,101.1 293.7,280.8 348.3,280.6 348.3,165.9 " class="st4" />
            <path d="M 290.7,283.8 V 98.2 h 87.4 l 24.7,99.5 24.7,-99.5 H 515 v 185.4 h -60.5 v -98.2 l -27.9,98.2 h -47.5 l -27.9,-98.2 v 98.2 z m 5.9,-179.7 v 173.7 l 48.7,-0.2 V 162.9 h 5.2 l 1.1,2.2 31.9,112.5 h 38.6 l 32.6,-114.7 h 5.2 l 0.5,3 V 277.6 H 509 V 104.1 h -76.9 l -26.8,107.8 h -4.6 l -1.1,-2.2 -26.2,-105.6 z" class="st3" />
            <path d="m 68.7,383.6 c -3.5,-10.2 -10,-15.1 -17.7,-15.1 -5.9,0 -10.4,4.3 -10.4,10 0,17.1 50.1,17.5 50.1,50.5 0,22 -15.5,33.6 -36.8,33.6 -15.5,0 -29.3,-3.9 -41.7,-31.6 l 23,-6.3 c 2.2,10.4 8.6,17.1 18.7,17.1 7.7,0 12.4,-3.7 12.4,-9.8 0,-21.2 -50.1,-16.1 -50.1,-53.3 0,-21 16.9,-30.9 35,-30.9 19.1,0 32.4,11 38.7,27.7 z" class="st3" />
            <path d="m 108.2,389.7 c 0,-29.3 15.1,-41.9 40.7,-41.9 25.7,0 40.7,12.6 40.7,41.9 v 30.9 c 0,29.3 -15.1,41.9 -40.7,41.9 -25.6,0 -40.7,-12.6 -40.7,-41.9 z m 25.6,37.5 c 0,8.6 6.1,13 15.1,13 9,0 15.1,-4.5 15.1,-13 v -44 c 0,-8.5 -6.1,-13 -15.1,-13 -9,0 -15.1,4.5 -15.1,13 z" class="st3" />
            <path d="m 254.7,333.9 h -7.3 c -6.1,0 -8.8,3.9 -8.8,9.4 v 11.4 h 15.3 v 20.8 h -15.3 v 85.1 H 213 V 375.5 H 201.4 V 354.7 H 213 v -10.6 c 0,-25.6 10.8,-32.6 29.5,-32.6 3.7,0 7.9,0.6 12.2,1.2 z" class="st3" />
            <path d="m 257.6,375.4 v -20.8 h 10.2 v -30.1 h 25.7 v 30.1 H 310 v 20.8 H 293.5 V 432 c 0,5.5 4.7,8.1 11.6,8.1 1.8,0 3.5,0 5.1,-0.2 v 21.6 c -4.9,0.8 -9.8,1 -14.7,1 -16.7,0 -27.7,-6.1 -27.7,-22 v -65.1 z" class="st3" />
            <polygon points="354.5,419 354.9,419 369.8,349.8 391.7,349.8 407.4,419 407.8,419 421.9,349.8 445.9,349.8 419.8,460.5 395.8,460.5 380.1,391.3 379.7,391.3 366.1,460.5 342.1,460.5 315.6,349.8 339.6,349.8 " class="st3" />
            <path d="m 458.5,382.2 c 1.8,-24.6 20.6,-34.4 41.1,-34.4 27.3,0 37.7,13.8 37.7,33.6 v 70.2 c 0,3.1 0.6,6.1 1.4,9 h -25.6 c -0.6,-2.9 -1,-6.3 -1.8,-10.8 -7.5,7.5 -17.7,12.8 -30.5,12.8 -15.5,0 -25.5,-8.5 -25.5,-26.5 0,-25.6 24.4,-36.6 56.4,-46.2 v -8.1 c 0,-9.6 -5.9,-13.2 -13.2,-13.2 -7.7,0 -14.3,5.7 -14.3,13.6 z m 53.1,24.2 c -15.3,5.3 -30.7,13.8 -30.7,25.4 0,7.3 4.5,11.6 11.4,11.6 7.7,0 13.2,-4.1 19.3,-10.2 z" class="st3" />
            <path d="M 562.7,460.5 V 349.8 h 25 v 14.7 h 0.4 c 5.9,-11 13.6,-16.7 26.5,-16.7 v 27.7 c -4.3,-1.2 -9.2,-2.9 -13.6,-2.9 -8.3,0 -12.6,6.3 -12.6,12.2 v 75.7 z" class="st3" />
            <path d="M 654.1,411.3 V 426 c 0,11 6.5,15.9 15.1,15.9 10.8,0 15.1,-6.9 15.1,-15.5 H 710 c -1.2,22.8 -14.9,36.2 -40.7,36.2 -24.4,0 -40.7,-15.1 -40.7,-39.3 v -36.2 c 0,-24.2 16.3,-39.3 40.7,-39.3 23.8,0 40.7,15.1 40.7,37.7 v 25.8 z m 30.2,-20.8 v -6.1 c 0,-9.8 -4.7,-15.9 -15.1,-15.9 -10.4,0 -15.1,6.1 -15.1,15.9 v 6.1 z" class="st3" />
        </g>
    </g>
</svg>