<?xml version="1.0" ?>
<svg xmlns:dc="http://purl.org/dc/elements/1.1/" xmlns:cc="http://creativecommons.org/ns#" xmlns:rdf="http://www.w3.org/1999/02/22-rdf-syntax-ns#" xmlns:svg="http://www.w3.org/2000/svg" xmlns="http://www.w3.org/2000/svg" xmlns:sodipodi="http://sodipodi.sourceforge.net/DTD/sodipodi-0.dtd" xmlns:inkscape="http://www.inkscape.org/namespaces/inkscape" viewBox="0 0 79.800978 12.493889" inkscape:version="0.92.0 r15299" sodipodi:docname="immunet.svg">
	<defs id="defs217"/>
	<sodipodi:namedview id="base" pagecolor="#ffffff" bordercolor="#666666" borderopacity="1.0" inkscape:pageopacity="0.0" inkscape:pageshadow="2" inkscape:zoom="2.6768132" inkscape:cx="149.805" inkscape:cy="22.6105" inkscape:document-units="mm" inkscape:current-layer="layer1" showgrid="false" fit-margin-top="0" fit-margin-left="0" fit-margin-right="0" fit-margin-bottom="0" units="px" inkscape:window-width="1280" inkscape:window-height="744" inkscape:window-x="-4" inkscape:window-y="-4" inkscape:window-maximized="1"/>
	<metadata id="metadata220">
		<rdf:RDF>
			<cc:Work rdf:about="">
				<dc:format>image/svg+xml</dc:format>
				<dc:type rdf:resource="http://purl.org/dc/dcmitype/StillImage"/>
				<dc:title/>
			</cc:Work>
		</rdf:RDF>
	</metadata>
	<g inkscape:label="Layer 1" inkscape:groupmode="layer" id="layer1" transform="translate(243.74304,-180.87538)">
		<g id="g334" transform="matrix(0.26458333,0,0,0.26458333,-245.51601,179.01589)">
			<g id="g257">
				<g id="g239">
					<path id="path225" d="M 55.182,53.248 H 48.784 V 8.059 h 6.398 z" inkscape:connector-curvature="0" style="fill:#444444"/>
					<path id="path227" d="M 79.46,31.469 C 79.418,28.782 78.045,27.43 75.338,27.408 H 65.095 v 25.84 h -6.46 l -0.031,-32.27 h 38.667 c 6.501,0.021 9.762,3.251 9.782,9.689 v 22.579 h -6.521 L 100.501,31.651 C 100.48,28.84 99.044,27.425 96.194,27.406 H 86.136 V 53.184 H 79.46 Z" inkscape:connector-curvature="0" style="fill:#444444"/>
					<path id="path229" d="m 131.682,31.469 c -0.041,-2.687 -1.415,-4.039 -4.122,-4.061 h -10.244 v 25.84 h -6.46 l -0.031,-32.27 h 38.668 c 6.5,0.021 9.761,3.251 9.781,9.689 v 22.579 h -6.521 l -0.03,-21.595 c -0.021,-2.811 -1.456,-4.226 -4.307,-4.245 h -10.06 v 25.778 h -6.675 z" inkscape:connector-curvature="0" style="fill:#444444"/>
					<path id="path231" d="m 169.191,20.979 v 21.719 c 0.021,2.707 1.415,4.07 4.185,4.091 h 17.441 v -25.81 h 6.49 v 32.27 H 172.42 c -6.439,-0.021 -9.67,-3.25 -9.689,-9.688 V 20.98 Z" inkscape:connector-curvature="0" style="fill:#444444"/>
					<path id="path233" d="m 207.848,53.248 h -6.46 v -32.33 h 25.84 c 6.479,0.041 9.722,3.281 9.722,9.722 l 0.03,22.577 h -6.521 V 31.592 c -0.062,-2.748 -1.498,-4.151 -4.308,-4.215 h -18.304 v 25.871 z" inkscape:connector-curvature="0" style="fill:#444444"/>
					<path id="path235" d="m 274.79,46.788 v 6.46 h -24.427 c -6.397,-0.062 -9.628,-3.229 -9.688,-9.506 V 30.639 c 0,-6.439 3.229,-9.671 9.688,-9.69 h 16.183 c 6.397,0.041 9.627,2.728 9.688,8.06 V 39.1 h -25.562 v -6.583 h 19.072 l 0.029,-2.678 c -0.021,-1.618 -1.098,-2.43 -3.229,-2.43 h -14.489 c -3.281,0 -4.923,1.538 -4.923,4.614 v 9.997 c 0,3.198 1.457,4.789 4.369,4.769 z" inkscape:connector-curvature="0" style="fill:#444444"/>
					<path id="path237" d="M 288.706,20.825 V 8.028 h 6.461 v 12.797 h 9.688 v 6.46 h -9.688 v 25.963 h -6.461 V 27.316 h -9.689 v -6.491 z" inkscape:connector-curvature="0" style="fill:#444444"/>
				</g>
				<g id="g249">
					<polygon id="polygon241" points="40.51,32.14 42.851,30.608 7.701,30.762 7.701,31.765 " style="fill:#ed1c24"/>
					<g id="g247">
						<polygon id="polygon243" points="37.595,27.898 15.468,13.408 41.912,25.722 35.11,16.087 44.262,24.122 44.262,24.135 44.284,24.135 44.284,8.11 7.701,8.11 7.701,28.537 " style="fill:#ed1c24"/>
						<polygon id="polygon245" points="44.284,37.158 44.262,37.158 44.262,37.177 35.11,45.212 41.912,35.579 15.468,47.891 36.955,33.821 7.701,32.897 7.701,53.188 44.284,53.188 " style="fill:#ed1c24"/>
					</g>
				</g>
				<g id="g255">
					<path id="path251" d="m 298.695,49.653 v -0.792 h 3.511 v 0.792 h -1.285 v 3.492 h -0.94 v -3.492 z" inkscape:connector-curvature="0" style="fill:#444444"/>
					<path id="path253" d="m 304.023,48.861 1.002,2.946 h 0.013 l 0.947,-2.946 h 1.326 v 4.284 h -0.883 v -3.036 h -0.012 l -1.051,3.036 h -0.726 l -1.052,-3.006 h -0.012 v 3.006 h -0.882 v -4.284 z" inkscape:connector-curvature="0" style="fill:#444444"/>
				</g>
			</g>
			<g id="g291">
				<g id="g273">
					<path id="path259" d="M 55.182,53.248 H 48.784 V 8.059 h 6.398 z" inkscape:connector-curvature="0" style="fill:#444444"/>
					<path id="path261" d="M 79.46,31.469 C 79.418,28.782 78.045,27.43 75.338,27.408 H 65.095 v 25.84 h -6.46 l -0.031,-32.27 h 38.667 c 6.501,0.021 9.762,3.251 9.782,9.689 v 22.579 h -6.521 L 100.501,31.651 C 100.48,28.84 99.044,27.425 96.194,27.406 H 86.136 V 53.184 H 79.46 Z" inkscape:connector-curvature="0" style="fill:#444444"/>
					<path id="path263" d="m 131.682,31.469 c -0.041,-2.687 -1.415,-4.039 -4.122,-4.061 h -10.244 v 25.84 h -6.46 l -0.031,-32.27 h 38.668 c 6.5,0.021 9.761,3.251 9.781,9.689 v 22.579 h -6.521 l -0.03,-21.595 c -0.021,-2.811 -1.456,-4.226 -4.307,-4.245 h -10.06 v 25.778 h -6.675 z" inkscape:connector-curvature="0" style="fill:#444444"/>
					<path id="path265" d="m 169.191,20.979 v 21.719 c 0.021,2.707 1.415,4.07 4.185,4.091 h 17.441 v -25.81 h 6.49 v 32.27 H 172.42 c -6.439,-0.021 -9.67,-3.25 -9.689,-9.688 V 20.98 Z" inkscape:connector-curvature="0" style="fill:#444444"/>
					<path id="path267" d="m 207.848,53.248 h -6.46 v -32.33 h 25.84 c 6.479,0.041 9.722,3.281 9.722,9.722 l 0.03,22.577 h -6.521 V 31.592 c -0.062,-2.748 -1.498,-4.151 -4.308,-4.215 h -18.304 v 25.871 z" inkscape:connector-curvature="0" style="fill:#444444"/>
					<path id="path269" d="m 274.79,46.788 v 6.46 h -24.427 c -6.397,-0.062 -9.628,-3.229 -9.688,-9.506 V 30.639 c 0,-6.439 3.229,-9.671 9.688,-9.69 h 16.183 c 6.397,0.041 9.627,2.728 9.688,8.06 V 39.1 h -25.562 v -6.583 h 19.072 l 0.029,-2.678 c -0.021,-1.618 -1.098,-2.43 -3.229,-2.43 h -14.489 c -3.281,0 -4.923,1.538 -4.923,4.614 v 9.997 c 0,3.198 1.457,4.789 4.369,4.769 z" inkscape:connector-curvature="0" style="fill:#444444"/>
					<path id="path271" d="M 288.706,20.825 V 8.028 h 6.461 v 12.797 h 9.688 v 6.46 h -9.688 v 25.963 h -6.461 V 27.316 h -9.689 v -6.491 z" inkscape:connector-curvature="0" style="fill:#444444"/>
				</g>
				<g id="g283">
					<polygon id="polygon275" points="40.51,32.14 42.851,30.608 7.701,30.762 7.701,31.765 " style="fill:#ed1c24"/>
					<g id="g281">
						<polygon id="polygon277" points="37.595,27.898 15.468,13.408 41.912,25.722 35.11,16.087 44.262,24.122 44.262,24.135 44.284,24.135 44.284,8.11 7.701,8.11 7.701,28.537 " style="fill:#ed1c24"/>
						<polygon id="polygon279" points="44.284,37.158 44.262,37.158 44.262,37.177 35.11,45.212 41.912,35.579 15.468,47.891 36.955,33.821 7.701,32.897 7.701,53.188 44.284,53.188 " style="fill:#ed1c24"/>
					</g>
				</g>
				<g id="g289">
					<path id="path285" d="m 298.695,49.653 v -0.792 h 3.511 v 0.792 h -1.285 v 3.492 h -0.94 v -3.492 z" inkscape:connector-curvature="0" style="fill:#444444"/>
					<path id="path287" d="m 304.023,48.861 1.002,2.946 h 0.013 l 0.947,-2.946 h 1.326 v 4.284 h -0.883 v -3.036 h -0.012 l -1.051,3.036 h -0.726 l -1.052,-3.006 h -0.012 v 3.006 h -0.882 v -4.284 z" inkscape:connector-curvature="0" style="fill:#444444"/>
				</g>
			</g>
		</g>
	</g>
</svg>