<svg xmlns="http://www.w3.org/2000/svg" xmlns:xmpTPg="http://ns.adobe.com/xap/1.0/t/pg/" xmlns:xmpMM="http://ns.adobe.com/xap/1.0/mm/" xmlns:xmpGImg="http://ns.adobe.com/xap/1.0/g/img/" xmlns:xmpG="http://ns.adobe.com/xap/1.0/g/" xmlns:xmp="http://ns.adobe.com/xap/1.0/" xmlns:x="adobe:ns:meta/" xmlns:stEvt="http://ns.adobe.com/xap/1.0/sType/ResourceEvent#" xmlns:stDim="http://ns.adobe.com/xap/1.0/sType/Dimensions#" xmlns:rdf="http://www.w3.org/1999/02/22-rdf-syntax-ns#" xmlns:dc="http://purl.org/dc/elements/1.1/" viewBox="0 0 474.4200134 101.0800018"><g><g id="Lager_1"><g id="Lager_1-2" data-name="Lager_1"><polygon points="217.9099884 78.4700012 217.9099884 39.1900024 217.9099884 0 236.2899933 0 236.2899933 39.1900024 236.2899933 78.4700012 217.9099884 78.4700012" fill="#001469"/><path d="M24.1800003,12.0899963c0,6.6800003-5.409996,12.0899963-12.090004,12.0899963S0,18.769989,0,12.0899963,5.4100037,0,12.0899963,0s12.0899963,5.4100037,12.0899963,12.0899963" fill="#e61a78"/><polygon points="24.1800003 78.4700012 24.1800003 51.2799988 24.1800003 24.1800003 42.5500031 24.1800003 42.5500031 51.2799988 42.5500031 78.4700012 24.1800003 78.4700012" fill="#001469"/><path d="M179.3700104,22.6299973c-19.1099854,0-32.5099945,12.0799942-32.5099945,28.7399979v49.7100067h18.3799896v-24.4900055l1.1300049-1.1300049s6.8699951,4.5800018,16.5100098,4.5800018c16.230011,0,28.3500061-12.6199951,28.3500061-28.6699982s-12.9599915-28.7399979-31.8699951-28.7399979h.0099792ZM165.2499847,63v-12.2599945c0-6.6600037,4.269989-14.3300018,13.8500061-14.3300018,10.3200073,0,13.7999878,7.6699982,13.7999878,14.3300018,0,9.1699982-6.769989,20.3600006-27.6499939,12.2599945Z" fill="#001469"/><path d="M261.3700256,59.0999908l1.0899963-1.0899963c19.6000061,7.9600067,44.8999939,1.1199951,44.8999939-15.2599945,0-11.1100006-11.6799927-20.1200027-30.5499878-20.1200027s-33.8500061,10.1899948-33.8500061,28.8199997,14.9400024,28.8200073,37.1000061,28.8200073c10.4899902,0,18.9700012-3.6999969,22.7000122-5.6399994l-1.7000122-12.8899994c-12.7999878,7.9400024-32.8500061,8.0700073-39.6900024-2.6399994v-.0000153ZM274.3900146,35.5999908c8.8299866-1.9900055,13.8699951,1.5399933,14.5100098,5.3800049.7399902,4.4400024-3.5499878,7.6199951-9.4200134,9.0899963-7.9100037,1.9900055-19.019989-1.8500061-19.019989-1.8500061.3699951-3.3000031,3.8200073-10.3399963,13.9400024-12.6199951h-.0100098Z" fill="#001469"/><path d="M456.0100098,43.8000031l-1.0900269,1.0899963c-19.5999756-7.9600067-44.8999939-1.1199951-44.8999939,15.2599945,0,11.1100006,11.6800232,20.1199951,30.5500183,20.1199951s33.8499756-10.1900024,33.8499756-28.8199921-14.9400024-28.8199997-37.0999756-28.8199997c-10.4899902,0-18.9699707,3.6999969-22.7000122,5.640007l1.7000122,12.8899994c12.7999878-7.9400024,32.8499756-8.0699921,39.6900024,2.6399994ZM442.9900208,67.2899933c-8.8300171,1.9900055-13.8699951-1.5399933-14.5100098-5.3800049-.7399902-4.4400024,3.5499878-7.6199951,9.4199829-9.0899963,7.9099731-1.9900055,19.0200195,1.8500061,19.0200195,1.8500061-.3699951,3.3000031-3.8200073,10.3399963-13.9400024,12.6199951h.0100098Z" fill="#001469"/><path d="M75.5299988,30.3199921l-4.4600067,7.9499969h-1.9799957v-14.0899963h-18.3800049v54.2899933h14.1800079l20.5-36.5599976h1.9799957l-2.1699982,18.6300049c-.7700043,6.5800018,4.3699951,12.3500061,10.9900055,12.3500061,4,0,7.6999969-2.1600037,9.6499939-5.6600037l14.1999969-25.3300018h1.9799957v36.5599976h18.3800049v-39.9199982c0-8.7799988-7.1199951-15.9000015-15.8999939-15.9000015-5.75,0-11.0599976,3.1100006-13.8699951,8.1299973l-5.2200012,9.3099976h-1.9799957l.0800018-.6999969c1.0399933-8.9100037-5.9299927-16.7399979-14.8999939-16.7399979-5.4299927,0-10.4300079,2.9300003-13.0800018,7.659996l-.0000153.0200043Z" fill="#001469"/><path d="M339.1299744,30.3199921l-4.4599915,7.9499969h-1.980011v-14.0899963h-18.3800049v54.2899933h14.1799927l20.5-36.5599976h1.980011l-2.1700134,18.6300049c-.769989,6.5800018,4.3699951,12.3500061,10.9899902,12.3500061,4,0,7.7000122-2.1600037,9.6499939-5.6600037l14.2000122-25.3300018h1.980011v36.5599976h18.3800049v-39.9199982c0-8.7799988-7.1199951-15.9000015-15.8999939-15.9000015-5.75,0-11.0599976,3.1100006-13.8699951,8.1299973l-5.2200012,9.3099976h-1.980011l.0799866-.6999969c1.0400085-8.9100037-5.9299927-16.7399979-14.8999939-16.7399979-5.4299927,0-10.4299927,2.9300003-13.0799866,7.659996v.0200043Z" fill="#001469"/></g></g><metadata/></g></svg>