<?xml version="1.0" ?>
<svg xmlns="http://www.w3.org/2000/svg" viewBox="0 0 150 24" fill="none">
	<path fill-rule="evenodd" clip-rule="evenodd" d="M142.891 2.17737H146.049V5.38139H149.997V8.52589H146.049V14.8713V15.0579C146.049 15.7719 146.049 16.1289 146.153 16.4148C146.328 16.8927 146.704 17.2692 147.182 17.4435C147.468 17.5476 147.825 17.5476 148.539 17.5476H149.997V20.3543L147.443 20.3543C144.929 20.3543 142.891 18.3165 142.891 15.8026V15.6706V2.17737ZM67.4154 19.0997C68.6242 18.1054 69.3748 16.7407 69.6672 15.0055H66.4504C66.2554 15.8829 65.8362 16.5847 65.1929 17.1111C64.5495 17.618 63.7404 17.8715 62.7656 17.8715C61.4984 17.8715 60.4748 17.4133 59.695 16.497C58.9346 15.5612 58.5545 14.3524 58.5545 12.8707C58.5545 11.4085 58.9346 10.2193 59.695 9.30296C60.4748 8.38665 61.4984 7.9285 62.7656 7.9285C63.7014 7.9285 64.491 8.18194 65.1344 8.68884C65.7777 9.19574 66.2067 9.87809 66.4211 10.7359H69.6672C69.3748 9.03977 68.6339 7.70429 67.4446 6.72949C66.2554 5.7352 64.725 5.23805 62.8533 5.23805C61.3522 5.23805 60.0264 5.55973 58.8762 6.2031C57.7454 6.82697 56.8681 7.71404 56.2442 8.8643C55.6203 10.0146 55.3084 11.35 55.3084 12.8707C55.3084 14.3914 55.6106 15.7366 56.215 16.9064C56.8388 18.0762 57.7162 18.9827 58.8469 19.6261C59.9777 20.25 61.2839 20.5619 62.7656 20.5619C64.6567 20.5619 66.2067 20.0745 67.4154 19.0997ZM78.2397 20.5619C76.7385 20.5619 75.403 20.25 74.2333 19.6261C73.083 18.9827 72.1862 18.0859 71.5428 16.9356C70.919 15.7659 70.607 14.4207 70.607 12.9C70.607 11.3988 70.919 10.0731 71.5428 8.92279C72.1862 7.75303 73.083 6.84647 74.2333 6.2031C75.403 5.55973 76.7385 5.23805 78.2397 5.23805C79.7409 5.23805 81.0666 5.55973 82.2169 6.2031C83.3866 6.84647 84.2835 7.75303 84.9073 8.92279C85.5507 10.0731 85.8724 11.3988 85.8724 12.9C85.8724 14.4207 85.5507 15.7659 84.9073 16.9356C84.2835 18.0859 83.3866 18.9827 82.2169 19.6261C81.0666 20.25 79.7409 20.5619 78.2397 20.5619ZM78.2397 17.8715C79.5654 17.8715 80.628 17.4133 81.4273 16.497C82.2461 15.5612 82.6555 14.3622 82.6555 12.9C82.6555 11.4378 82.2461 10.2485 81.4273 9.33221C80.628 8.3964 79.5654 7.9285 78.2397 7.9285C76.914 7.9285 75.8514 8.3964 75.0521 9.33221C74.2528 10.2485 73.8531 11.4378 73.8531 12.9C73.8531 14.3622 74.2528 15.5612 75.0521 16.497C75.8514 17.4133 76.914 17.8715 78.2397 17.8715ZM114.496 19.0997C115.704 18.1054 116.455 16.7407 116.747 15.0055H113.531C113.336 15.8829 112.916 16.5847 112.273 17.1111C111.63 17.618 110.821 17.8715 109.846 17.8715C108.579 17.8715 107.555 17.4133 106.775 16.497C106.015 15.5612 105.635 14.3524 105.635 12.8707C105.635 11.4085 106.015 10.2193 106.775 9.30296C107.555 8.38665 108.579 7.9285 109.846 7.9285C110.782 7.9285 111.571 8.18194 112.215 8.68884C112.858 9.19574 113.287 9.87809 113.501 10.7359H116.747C116.455 9.03977 115.714 7.70429 114.525 6.72949C113.336 5.7352 111.805 5.23805 109.934 5.23805C108.432 5.23805 107.107 5.55973 105.956 6.2031C104.826 6.82697 103.948 7.71404 103.324 8.8643C102.701 10.0146 102.389 11.35 102.389 12.8707C102.389 14.3914 102.691 15.7366 103.295 16.9064C103.919 18.0762 104.796 18.9827 105.927 19.6261C107.058 20.25 108.364 20.5619 109.846 20.5619C111.737 20.5619 113.287 20.0745 114.496 19.0997ZM118.595 8.89371C117.99 10.044 117.688 11.3892 117.688 12.9294C117.688 14.4501 118 15.7855 118.624 16.9358C119.267 18.0861 120.164 18.9829 121.314 19.6263C122.484 20.2501 123.849 20.5621 125.408 20.5621C127.202 20.5621 128.693 20.0747 129.883 19.0999C131.091 18.1251 131.832 16.8773 132.105 15.3566H128.947C128.732 16.195 128.294 16.8481 127.631 17.316C126.968 17.7644 126.149 17.9886 125.174 17.9886C123.946 17.9886 122.962 17.6084 122.221 16.8481C121.48 16.0877 121.07 15.0544 120.993 13.7482V13.5728H132.281C132.339 13.1633 132.368 12.7637 132.368 12.3737C132.349 10.931 132.018 9.67355 131.374 8.60127C130.75 7.52899 129.883 6.70041 128.771 6.11553C127.68 5.53065 126.412 5.23821 124.97 5.23821C123.546 5.23821 122.279 5.5599 121.168 6.20327C120.076 6.82714 119.218 7.72395 118.595 8.89371ZM127.836 8.71825C128.576 9.32262 129.015 10.1707 129.152 11.2625H121.109C121.226 10.2097 121.655 9.37136 122.396 8.74749C123.157 8.10413 124.053 7.78244 125.087 7.78244C126.198 7.78244 127.114 8.09438 127.836 8.71825ZM133.606 11.248V10.075C133.606 7.48277 135.708 5.38082 138.301 5.38082L139.474 5.38082H141.637V8.52955L138.321 8.52955C137.456 8.52955 136.755 9.2308 136.755 10.0958V20.3544H133.606V11.248ZM35.1602 6.81727H38.3185V20.3544H35.1602V6.81727ZM43.2071 12.2451C43.2071 10.1239 44.9267 8.4044 47.0478 8.4044C49.169 8.4044 50.8885 10.1239 50.8885 12.2451L50.8885 20.3543L54.0549 20.3543V12.2451C54.0549 8.37521 50.9177 5.23805 47.0478 5.23805C43.1779 5.23805 40.0408 8.37521 40.0408 12.2451L40.0408 20.3543H43.2071V12.2451ZM94.132 8.4044C92.0109 8.4044 90.2913 10.1239 90.2913 12.2451L90.2913 20.3543H87.125V12.2451C87.125 8.37521 90.2621 5.23805 94.132 5.23805C98.0019 5.23805 101.139 8.37521 101.139 12.2451V20.3543L97.9727 20.3543V12.2451C97.9727 10.1239 96.2532 8.4044 94.132 8.4044ZM38.3185 2.17737H35.1602V5.38086H38.3185V2.17737Z" fill="#121519"/>
	<path fill-rule="evenodd" clip-rule="evenodd" d="M8.47305 0.0640879L17.3424 0.0612795C18.9683 0.0607639 20.4708 0.928094 21.2836 2.33628L25.7186 10.0207C25.8762 10.2937 25.7031 10.639 25.3901 10.6764C18.038 11.5543 10.984 7.48268 8.06952 0.676043C7.94549 0.386358 8.15793 0.0641878 8.47305 0.0640879ZM5.04726 21.9582L0.610144 14.2785C-0.203249 12.8707 -0.20339 11.1358 0.609774 9.72786L5.04715 2.04484C5.20482 1.77185 5.59032 1.74906 5.77921 2.00146C10.2156 7.92958 10.2165 16.0744 5.77899 22.0017C5.59013 22.254 5.2049 22.2311 5.04726 21.9582ZM17.3422 23.9388L8.47286 23.936C8.15774 23.9359 7.9453 23.6137 8.06933 23.324C10.9838 16.5174 18.0378 12.4457 25.3899 13.3237C25.703 13.3611 25.876 13.7063 25.7184 13.9794L21.2834 21.6638C20.4707 23.072 18.9681 23.9393 17.3422 23.9388Z" fill="#121519"/>
</svg>