<?xml version="1.0" ?>
<svg xmlns="http://www.w3.org/2000/svg" version="1.2" viewBox="0 0 1543 1551">
	<defs>
		<clipPath clipPathUnits="userSpaceOnUse" id="cp1">
			<path d="m284.31 927.16h431.73v623.31h-431.73z"/>
		</clipPath>
		<clipPath clipPathUnits="userSpaceOnUse" id="cp2">
			<path d="m821.34 927.16h431.74v623.31h-431.74z"/>
		</clipPath>
	</defs>
	<style>
		.s0 { fill: #48508d } 
		.s1 { fill: #0dafd0 } 
	</style>
	<g id="surface1">
		<g id="Clip-Path" clip-path="url(#cp1)">
			<g id="Layer">
				<path id="Layer" class="s0" d="m654.6 1550.5c-31.2 0-56.6-25.4-56.6-56.7v-292.9l-206.9 207.1c-22.1 22.2-58 22.2-80.1 0-22-22.1-22-58 0-80.1l400.2-400.5v566.4c0 31.3-25.3 56.7-56.6 56.7z"/>
			</g>
		</g>
		<path id="Layer" class="s1" d="m831.4 623.1v-566.3c0-31.3 25.3-56.8 56.5-56.8 31.3 0 56.6 25.5 56.6 56.8v292.8l207-207.1c22.1-22.1 58-22.1 80.1 0 22.1 22.1 22.1 58.1 0 80.2z"/>
		<path id="Layer" class="s1" d="m711.2 623.1l-400.2-400.4c-22-22.2-22-58.1 0-80.2 22.1-22.1 58-22.1 80.1 0l206.9 207.1v-292.8c0-31.3 25.4-56.8 56.6-56.8 31.3 0 56.6 25.5 56.6 56.8z"/>
		<path id="Layer" class="s1" d="m1360.1 1255.9c-14.4 0-28.9-5.5-39.9-16.6l-400.3-400.5h566c31.3 0 56.7 25.4 56.7 56.7 0 31.3-25.4 56.6-56.7 56.6h-292.7l207 207.1c22.1 22.1 22.1 58 0 80.1-11 11.1-25.6 16.6-40.1 16.6z"/>
		<path id="Layer" class="s1" d="m1485.9 711.7h-566l400.3-400.5c22.1-22.1 57.9-22.1 80 0 22.1 22.1 22.1 58 0 80.1l-207 207.1h292.7c31.3 0 56.7 25.4 56.7 56.6 0 31.4-25.4 56.7-56.7 56.7z"/>
		<path id="Layer" class="s1" d="m622.8 711.7h-566.2c-31.2 0-56.6-25.3-56.6-56.7 0-31.2 25.4-56.6 56.6-56.6h292.7l-206.9-207.1c-22.1-22.1-22.1-58 0-80.1 22.1-22.1 57.9-22.1 80.1 0z"/>
		<g id="Clip-Path" clip-path="url(#cp2)">
			<g id="Layer">
				<path id="Layer" class="s1" d="m887.9 1550.5c-31.2 0-56.5-25.4-56.5-56.7v-566.4l400.2 400.5c22.1 22.1 22.1 58 0 80.1-22.1 22.2-58 22.2-80.1 0l-207-207.1v292.9c0 31.3-25.3 56.7-56.6 56.7z"/>
			</g>
		</g>
		<path id="Layer" class="s1" d="m182.4 1255.9c-14.5 0-28.9-5.5-40-16.6-22.1-22.1-22.1-58 0-80.1l206.9-207.1h-292.7c-31.2 0-56.6-25.3-56.6-56.6 0-31.3 25.4-56.7 56.6-56.7h566.2l-400.3 400.5c-11 11.1-25.6 16.6-40.1 16.6z"/>
	</g>
</svg>