<?xml version="1.0" ?>
<svg xmlns="http://www.w3.org/2000/svg" viewBox="0 0 37 48" fill="none">
	<g id="logo">
		<path id="Rectangle Copy 19" fill-rule="evenodd" clip-rule="evenodd" d="M10.75 2.51911C10.75 1.16157 12.0521 0.191367 13.3382 0.590601L35.3382 7.41986C36.1774 7.68036 36.75 8.46257 36.75 9.34837V37.41C36.75 38.7675 35.4479 39.7377 34.1618 39.3385L12.1618 32.5092C11.3226 32.2487 10.75 31.4665 10.75 30.5807V2.51911Z" fill="#C79BFF" fill-opacity="0.3"/>
		<path id="Rectangle Copy 18" opacity="0.8" fill-rule="evenodd" clip-rule="evenodd" d="M5.75 6.55427C5.75 5.19672 7.05207 4.22652 8.33817 4.62576L30.3382 11.455C31.1774 11.7155 31.75 12.4977 31.75 13.3835V41.4451C31.75 42.8026 30.4479 43.7729 29.1618 43.3736L7.16183 36.5444C6.32264 36.2839 5.75 35.5016 5.75 34.6158V6.55427Z" fill="#CCAFEF"/>
		<path id="Rectangle" fill-rule="evenodd" clip-rule="evenodd" d="M0.75 10.5894C0.75 9.23188 2.05207 8.26168 3.33817 8.66091L25.3382 15.4902C26.1774 15.7507 26.75 16.5329 26.75 17.4187V45.4803C26.75 46.8378 25.4479 47.808 24.1618 47.4088L2.16183 40.5795C1.32264 40.319 0.75 39.5368 0.75 38.651V10.5894Z" fill="#9D66E1"/>
		<path id="Shape" d="M15.75 12.5156V25.7659C15.7496 25.9702 15.8715 26.1545 16.0585 26.2327C16.2456 26.311 16.461 26.2676 16.604 26.123L18.573 24.1355C18.6199 24.0881 18.6836 24.0614 18.75 24.0614C18.8164 24.0614 18.8801 24.0881 18.927 24.1355L20.896 27.396C21.039 27.5407 21.2544 27.584 21.4415 27.5058C21.6285 27.4276 21.7504 27.2432 21.75 27.0389V14.3699L15.75 12.5156Z" fill="#6129C6"/>
		<path id="Rectangle Copy 14" fill-rule="evenodd" clip-rule="evenodd" d="M0.75 10.4342C0.75 9.35091 1.98514 8.30469 3.25 8.63094L5.98282 9.48142V41.7609L2.00821 40.5209C1.24837 40.2148 0.75 39.4509 0.75 38.7525V10.4342Z" fill="#6129C6"/>
	</g>
</svg>