<?xml version="1.0" ?>
<!-- Created with Inkscape (http://www.inkscape.org/) -->
<svg xmlns="http://www.w3.org/2000/svg" xmlns:sodipodi="http://sodipodi.sourceforge.net/DTD/sodipodi-0.dtd" xmlns:inkscape="http://www.inkscape.org/namespaces/inkscape" inkscape:version="0.48.4 r9939" sodipodi:docname="informix.svg" inkscape:export-filename="/home/pavlo/Dropbox/Images/Logos/informix.png" inkscape:export-xdpi="254.31213" inkscape:export-ydpi="254.31213" viewBox="0 0 213.05412 42.467499">
	<sodipodi:namedview pagecolor="#ffffff" bordercolor="#666666" borderopacity="1" objecttolerance="10" gridtolerance="10" guidetolerance="10" inkscape:pageopacity="0" inkscape:pageshadow="2" inkscape:window-width="1227" inkscape:window-height="791" id="namedview4" showgrid="false" fit-margin-top="0" fit-margin-left="0" fit-margin-right="0" fit-margin-bottom="0" inkscape:zoom="2.7526136" inkscape:cx="103.09727" inkscape:cy="45.895217" inkscape:window-x="0" inkscape:window-y="0" inkscape:window-maximized="0" inkscape:current-layer="g10"/>
	<g id="g10" inkscape:groupmode="layer" inkscape:label="ink_ext_XXXXXX" transform="matrix(1.25,0,0,-1.25,-14.090875,170.01875)">
		<g id="g3073" inkscape:export-filename="/home/pavlo/Dropbox/Images/Logos/informix.png" inkscape:export-xdpi="254.31213" inkscape:export-ydpi="254.31213">
			<path d="M 145.643,129.144 C 147.647,129.144 149.174,130.67 149.174,132.579 C 149.174,134.488 147.647,136.015 145.643,136.015 C 143.734,136.015 142.207,134.488 142.207,132.579 C 142.207,130.67 143.734,129.144 145.643,129.144" style="fill:#f14729;fill-opacity:1;fill-rule:evenodd;stroke:none" id="path16" inkscape:connector-curvature="0"/>
			<path d="M 145.738,119.982 L 141.253,108.244 C 141.062,107.766 140.776,106.907 140.68,106.431 C 140.489,105.571 140.966,105.476 141.539,105.763 C 143.161,106.431 145.07,109.293 145.929,110.343 L 146.693,109.962 C 144.975,106.813 141.73,102.041 137.722,102.041 C 135.909,102.041 134.859,103.281 134.764,104.904 C 134.668,106.335 135.241,107.671 135.622,108.912 L 139.917,119.982 C 140.108,120.459 140.394,121.318 140.585,121.891 C 140.68,122.654 140.203,122.75 139.63,122.463 C 138.008,121.795 136.1,118.932 135.241,117.882 L 134.477,118.264 C 136.291,121.414 139.535,126.185 143.543,126.185 C 145.261,126.185 146.12,125.422 146.406,124.086 C 146.597,123.131 146.406,121.795 145.738,119.982" style="fill:#f14729;fill-opacity:1;fill-rule:evenodd;stroke:none" id="path18" inkscape:connector-curvature="0"/>
			<path d="M 101.075,119.982 C 100.216,120.364 99.1664,120.65 97.5445,120.65 C 93.918,120.65 92.009,117.692 92.009,114.352 L 92.009,102.613 L 86.3785,102.613 L 86.3785,125.613 L 92.009,125.613 L 92.009,123.036 C 93.25,125.04 95.5402,125.899 97.2582,125.995 C 99.0715,126.185 100.121,125.803 101.075,125.422 L 101.075,119.982" style="fill:#231f20;fill-opacity:1;fill-rule:evenodd;stroke:none" id="path20" inkscape:connector-curvature="0"/>
			<path d="M 11.2727,102.613 L 17.09418,102.613 L 17.09418,135.5372 L 11.2727,135.5372 L 11.2727,102.613 L 11.2727,102.613" style="fill:#231f20;fill-opacity:1;fill-rule:evenodd;stroke:none" id="path22" inkscape:connector-curvature="0"/>
			<path d="M 59.8484,120.745 L 53.6449,120.745 L 53.6449,102.613 L 48.0145,102.613 L 48.0145,120.745 L 45.1516,120.745 L 45.1516,125.613 L 48.0145,125.613 C 48.0145,125.613 48.0145,127.235 48.0145,127.521 C 48.0145,132.388 51.45,135.538 56.9848,135.538 L 59.8484,135.538 L 59.8484,130.67 L 58.3215,130.67 C 54.5039,130.67 53.6449,129.239 53.6449,126.089 L 53.6449,125.613 L 59.8484,125.613 L 59.8484,120.745" style="fill:#231f20;fill-opacity:1;fill-rule:evenodd;stroke:none" id="path24" inkscape:connector-curvature="0"/>
			<path d="M 82.943,114.161 C 82.943,107.385 78.7438,102.136 71.682,102.136 C 64.5242,102.136 60.3254,107.385 60.3254,114.161 C 60.3254,121.032 64.5242,125.995 71.682,125.995 C 78.7438,125.995 82.943,121.032 82.943,114.161 M 77.4078,114.161 C 77.4078,117.882 75.8809,121.222 71.682,121.222 C 67.3879,121.222 65.8605,117.787 65.8605,114.161 C 65.8605,110.343 67.2922,107.003 71.682,107.003 C 75.9766,107.003 77.4078,110.343 77.4078,114.161" style="fill:#231f20;fill-opacity:1;fill-rule:evenodd;stroke:none" id="path26" inkscape:connector-curvature="0"/>
			<path d="M 42.7652,102.613 L 37.1352,102.613 L 37.1352,115.21 C 37.1352,118.55 35.9898,120.841 32.5543,120.745 C 29.5957,120.745 27.6871,118.837 27.6871,115.019 L 27.6871,102.613 L 22.0566,102.613 L 22.0566,125.613 L 27.6871,125.613 L 27.6871,123.895 C 29.3098,125.326 31.6957,125.995 33.8902,125.995 C 39.3301,125.995 42.7652,122.368 42.7652,116.928 L 42.7652,102.613" style="fill:#231f20;fill-opacity:1;fill-rule:evenodd;stroke:none" id="path28" inkscape:connector-curvature="0"/>
			<path d="M 109.092,102.613 L 109.092,116.26 C 109.092,118.837 109.474,120.745 111.955,120.745 C 113.482,120.745 114.341,119.982 114.341,117.119 L 114.341,102.613 L 119.971,102.613 L 119.971,116.26 C 119.971,118.837 120.353,120.745 122.834,120.745 C 124.361,120.745 125.22,119.982 125.22,117.119 L 125.22,102.613 L 130.85,102.613 L 130.85,119.314 C 130.85,121.032 130.469,122.654 129.133,124.086 C 127.797,125.326 126.27,125.995 123.979,125.995 C 122.071,125.995 120.162,125.422 118.635,124.181 C 117.108,125.613 115.677,125.995 113.768,125.995 C 112.146,125.995 110.237,125.326 109.092,124.086 L 109.092,125.613 L 103.461,125.613 L 103.461,102.613 L 109.092,102.613" style="fill:#231f20;fill-opacity:1;fill-rule:evenodd;stroke:none" id="path30" inkscape:connector-curvature="0"/>
			<path d="M 146.693,102.613 L 157.954,104.427 L 148.697,105.095 L 159.671,106.813 L 150.414,107.671 L 161.389,109.293 L 152.132,110.152 L 163.203,111.679 L 153.85,112.825 L 164.92,114.065 L 153.946,115.402 L 163.298,116.546 L 152.323,117.978 L 161.676,118.932 L 150.701,120.555 L 159.958,121.318 L 149.079,123.036 L 158.335,123.704 L 147.17,125.613 L 159.863,125.613 L 164.157,119.028 L 168.356,125.613 L 175.609,125.613 L 167.593,114.161 L 176.277,102.613 L 169.024,102.613 L 164.157,109.675 L 159.195,102.613 L 146.693,102.613" style="fill:#2f63b7;fill-opacity:1;fill-rule:evenodd;stroke:none" id="path32" inkscape:connector-curvature="0"/>
			<path d="M 178.377,125.899 L 179.045,125.899 C 179.617,125.899 179.808,126.089 179.808,126.376 C 179.808,126.663 179.617,126.758 179.14,126.758 L 178.377,126.758 L 178.377,125.899 L 178.377,125.899 M 179.235,127.044 C 179.904,127.044 180.285,126.853 180.285,126.376 C 180.285,126.089 180.19,125.995 179.904,125.803 L 179.999,125.708 L 180.094,125.517 C 180.19,125.422 180.19,125.326 180.19,125.136 L 180.19,124.945 L 180.285,124.849 C 180.285,124.754 180.285,124.754 180.285,124.754 C 180.285,124.658 180.285,124.658 180.285,124.658 C 180.285,124.563 180.285,124.563 180.285,124.563 L 179.904,124.563 C 179.808,124.658 179.808,124.658 179.808,124.945 C 179.808,125.517 179.713,125.613 179.045,125.613 L 178.377,125.613 L 178.377,124.563 L 177.995,124.563 L 177.995,127.044 L 179.235,127.044 M 176.945,125.803 C 176.945,124.658 177.9,123.704 179.14,123.704 C 180.285,123.704 181.239,124.658 181.239,125.803 C 181.239,126.949 180.285,127.808 179.14,127.808 C 177.9,127.808 176.945,126.949 176.945,125.803 M 181.716,125.803 C 181.716,124.467 180.571,123.418 179.14,123.418 C 177.709,123.418 176.563,124.467 176.563,125.803 C 176.563,127.139 177.709,128.189 179.14,128.189 C 180.571,128.189 181.716,127.139 181.716,125.803" style="fill:#2f63b7;fill-opacity:1;fill-rule:evenodd;stroke:none" id="path34" inkscape:connector-curvature="0"/>
		</g>
	</g>
</svg>