<?xml version="1.0" encoding="utf-8"?>
<!-- Generator: Adobe Illustrator 26.5.0, SVG Export Plug-In . SVG Version: 6.00 Build 0)  -->
<svg version="1.1" id="Layer_1" xmlns="http://www.w3.org/2000/svg"  x="0px" y="0px"
	 viewBox="0 0 512 512" style="enable-background:new 0 0 512 512;" xml:space="preserve">
<style type="text/css">
	.st0{fill:#C32227;}
	.st1{fill:#231F20;}
</style>
<g id="XMLID_1_">
	<path id="XMLID_3_" d="M358.68,196.53l-3.23,13.33h10.94l-2.67,11.22h-10.94l-1.54,6.17c-0.28,1.54-0.7,2.67-0.84,3.51
		c-0.28,1.82-1.12,4.07,1.96,5.61c1.54,0.7,6.03,0.7,9.4,0.28l-5.89,11.5l-5.05,0.14h-4.63c-4.77,0-8.28-1.12-10.24-3.09
		c-1.54-1.54-2.38-3.93-2.38-7.15c0-1.82,0.28-4.35,0.98-7.43l2.38-9.54h-6.31l2.67-11.22h6.45l1.96-8.7L358.68,196.53z"/>
	<path id="XMLID_6_" d="M305.1,208.87c4.35,0,7.15,0.28,9.82,0.98c2.67,0.56,4.91,1.54,6.45,2.95c2.67,2.24,4.63,5.47,4.63,10.24
		c0,3.93-0.98,7.72-2.67,11.5c-2.81,6.03-7.01,9.4-12.06,11.78c-3.93,1.82-11.5,3.23-16.55,3.09c-5.19-0.14-7.29-0.42-9.54-0.98
		c-2.24-0.56-4.63-1.54-6.17-2.81c-2.95-2.1-4.77-5.05-4.77-9.82c0-4.21,0.56-7.43,2.38-11.64c1.68-3.79,4.63-7.29,7.43-9.54
		c2.52-1.96,5.47-3.37,8.84-4.21C295.98,209.57,299.77,209.01,305.1,208.87z M302.43,219.53c-3.65,0-6.87,1.68-8.84,4.49
		c-1.54,2.24-2.81,5.19-2.81,8.14c0,4.21,2.24,6.31,6.87,6.31c3.51,0,6.73-1.82,8.7-4.49c1.54-2.24,2.81-5.33,2.81-8.28
		C309.16,221.5,306.92,219.67,302.43,219.53z"/>
	<polygon id="XMLID_7_" points="141.68,209.99 132.42,248.15 116.57,248.15 125.83,209.99 	"/>
	<path id="XMLID_8_" d="M139.01,191.9c2.1,0.14,3.65,0.84,4.77,2.1c1.12,1.26,1.26,2.95,1.12,4.49c-0.42,2.81-1.4,4.35-3.65,6.03
		c-2.52,1.68-4.49,2.38-7.86,2.1c-2.1-0.14-3.93-1.12-4.91-2.24c-0.84-1.12-1.26-2.81-1.12-4.49c0.14-1.68,1.12-3.79,3.37-5.61
		C132.98,192.46,136.49,191.9,139.01,191.9z"/>
	<path id="XMLID_9_" d="M163.7,209.85l-0.7,3.37c3.37-2.1,5.61-3.09,8-3.65c2.52-0.7,4.63-0.84,7.86-0.7
		c3.93,0.14,6.59,0.98,9.12,2.67c2.24,1.68,3.65,3.65,3.79,6.87c0.14,2.24-0.7,5.47-0.7,5.47l-5.89,24.41h-15.57l4.63-19.22
		c0.42-2.24,0.7-3.37,0.84-4.35c0.28-3.09-2.1-3.93-5.33-3.93c-2.81,0-6.17,0.98-7.86,2.67c-1.4,1.4-2.1,3.65-3.23,7.86l-4.07,16.83
		h-15.71l9.26-38.29L163.7,209.85L163.7,209.85z"/>
	<polygon id="XMLID_10_" class="st0" points="15.15,211.26 115.31,211.26 113.2,221.5 	"/>
	<polygon id="XMLID_11_" class="st0" points="0,212.66 112.08,225 110.12,233.98 	"/>
	<path id="XMLID_12_" d="M316.46,256.84l-4.49,21.32c1.82-1.68,3.51-2.81,5.05-3.37c1.54-0.7,3.09-0.98,4.91-0.98
		c2.67,0,4.77,0.7,6.31,1.96c1.54,1.4,2.24,3.23,2.24,5.47c0,0.98-0.14,2.38-0.56,4.35L326,304.54h-5.05l3.93-18.8
		c0.28-1.12,0.42-2.1,0.42-2.81c0-1.54-0.42-2.67-1.4-3.51c-0.98-0.84-2.24-1.26-3.93-1.26c-1.26,0-2.52,0.28-3.93,0.84
		c-1.26,0.56-2.38,1.26-3.23,2.1c-1.26,1.26-1.96,2.81-2.52,4.77l-3.93,18.66h-5.05l10.1-47.69H316.46L316.46,256.84z"/>
	<path id="XMLID_15_" d="M352.37,273.82c3.65,0,6.31,0.98,8.42,2.95c1.96,1.96,2.95,4.77,2.95,8.28c0,2.38-0.42,4.77-1.26,7.15
		c-0.84,2.38-1.96,4.49-3.37,6.31c-3.51,4.35-7.86,6.59-13.33,6.59c-3.65,0-6.45-0.98-8.42-2.95c-1.96-1.96-2.95-4.77-2.95-8.28
		c0-2.38,0.42-4.77,1.26-7.15c0.84-2.38,1.96-4.49,3.37-6.31C342.41,276.06,346.9,273.96,352.37,273.82z M351.53,278.17
		c-3.93,0-7.01,2.1-9.4,6.31c-1.4,2.67-2.24,5.61-2.24,8.56c0,2.52,0.56,4.49,1.96,5.89c1.12,1.26,2.81,1.96,4.91,1.96
		c3.93,0,7.01-2.1,9.4-6.31c1.4-2.67,2.24-5.61,2.24-8.42c0-2.52-0.56-4.35-1.68-5.75C355.31,278.87,353.63,278.17,351.53,278.17z"
		/>
	<path id="XMLID_16_" d="M390.38,279.01l-4.91,2.81c0-1.4-0.42-2.38-1.26-2.95c-0.7-0.56-1.82-0.98-3.37-0.98
		c-1.68,0-3.09,0.42-4.21,1.4c-1.12,0.98-1.68,2.1-1.68,3.51c0,0.84,0.42,1.68,1.12,2.1c0.84,0.56,2.24,1.12,4.49,1.68
		c2.67,0.7,4.49,1.54,5.47,2.52c0.98,0.98,1.54,2.38,1.54,4.35c0,2.67-1.12,5.19-3.51,7.57c-2.81,2.67-6.31,4.07-10.52,4.07
		c-2.81,0-4.91-0.7-6.45-1.96c-1.4-1.26-2.52-3.37-2.95-6.17l5.19-1.96c0.28,3.93,2.1,6.03,5.61,6.03c2.38,0,4.21-0.7,5.61-2.24
		c1.12-1.26,1.68-2.52,1.68-4.07c0-0.84-0.42-1.68-1.12-2.1c-0.7-0.56-2.24-1.12-4.63-1.82c-1.82-0.56-3.23-0.98-4.07-1.54
		c-0.84-0.42-1.4-1.12-1.96-1.96c-0.56-0.98-0.98-2.1-0.98-3.37c0-1.12,0.28-2.38,0.98-3.65c0.56-1.26,1.4-2.38,2.38-3.37
		c2.24-2.1,5.19-3.23,8.7-3.23c2.38,0,4.35,0.42,5.61,1.26C388.56,275.92,389.68,277.18,390.38,279.01z"/>
	<path id="XMLID_17_" d="M405.53,264.84l-2.1,9.68h8.42l-0.84,4.35h-8.42l-3.09,14.45c-0.42,1.96-0.56,3.37-0.56,4.21
		c0,2.24,1.4,3.37,4.35,3.37c0.98,0,2.1-0.28,3.65-0.7l-1.26,4.21c-1.96,0.56-3.51,0.84-4.77,0.84c-2.24,0-4.07-0.56-5.19-1.54
		c-1.12-0.98-1.82-2.52-1.82-4.49c0-1.54,0.28-3.51,0.84-6.03l3.09-14.31h-4.91l0.98-4.35h4.91l1.68-7.57L405.53,264.84z"/>
	<path id="XMLID_20_" d="M421.24,274.52l-6.31,29.88h-5.05l6.31-29.88H421.24z M421.66,259.23c0.84,0,1.4,0.28,1.96,0.7
		c0.56,0.56,0.7,1.12,0.7,1.96c0,1.12-0.42,1.96-1.26,2.81c-0.84,0.84-1.82,1.26-2.95,1.26c-0.84,0-1.4-0.28-1.96-0.7
		c-0.56-0.56-0.7-1.12-0.7-1.96c0-1.12,0.42-2.1,1.26-2.95C419.56,259.65,420.54,259.23,421.66,259.23z"/>
	<path id="XMLID_21_" d="M434.15,274.52l-0.7,3.65c1.82-1.68,3.51-2.81,5.05-3.37c1.4-0.7,3.09-0.98,4.91-0.98
		c2.67,0,4.77,0.7,6.31,1.96c1.54,1.4,2.24,3.23,2.24,5.47c0,0.98-0.14,2.38-0.56,4.35l-3.93,18.94h-5.05l3.93-18.8
		c0.28-1.12,0.42-2.1,0.42-2.81c0-1.54-0.42-2.67-1.4-3.51c-0.98-0.84-2.24-1.26-3.93-1.26c-1.26,0-2.52,0.28-3.93,0.84
		c-1.26,0.56-2.38,1.26-3.23,2.1c-1.26,1.26-1.96,2.81-2.52,4.77l-3.93,18.66h-5.05l6.31-29.88L434.15,274.52L434.15,274.52z"/>
	<path id="XMLID_24_" d="M487.17,274.52l-6.31,29.88c-0.84,4.07-2.38,7.29-4.49,9.82c-1.68,1.82-3.51,3.37-5.89,4.35
		c-2.24,0.98-4.49,1.54-6.59,1.54c-2.95,0-5.47-0.84-7.72-2.52c-0.84-0.7-1.54-1.4-2.1-2.24c-0.56-0.84-0.98-2.1-1.4-3.65l4.91-3.23
		c0.56,4.91,2.95,7.43,7.15,7.43c3.23,0,5.89-1.4,8.14-4.35c1.4-1.68,2.38-4.35,3.09-7.86l0.56-2.81
		c-3.37,2.95-6.73,4.35-10.24,4.35c-2.52,0-4.77-0.84-6.73-2.38c-2.38-2.1-3.65-5.05-3.65-8.84c0-2.38,0.42-4.77,1.26-7.15
		s1.96-4.49,3.37-6.31c1.54-2.1,3.51-3.65,5.89-4.91c2.24-1.12,4.63-1.82,6.87-1.82c1.68,0,3.23,0.28,4.63,0.98
		c1.26,0.7,2.52,1.82,3.65,3.37l0.7-3.65H487.17L487.17,274.52z M473,278.17c-3.93,0-7.01,2.1-9.4,6.31
		c-1.4,2.67-2.24,5.61-2.24,8.56c0,2.52,0.56,4.49,1.82,5.89c1.12,1.26,2.81,1.96,4.91,1.96c3.93,0,7.01-2.1,9.4-6.45
		c1.4-2.67,2.24-5.47,2.24-8.56c0-2.52-0.56-4.35-1.68-5.75C476.79,278.87,475.11,278.17,473,278.17z"/>
	<path id="XMLID_25_" d="M200.87,209.99h15.71l-0.56,2.67c3.09-1.82,4.21-2.38,6.17-2.95c3.23-0.84,5.61-0.98,8-0.84
		c3.09,0.14,4.77,0.56,6.87,1.54c1.54,0.84,2.81,1.68,4.21,3.79c3.79-2.52,6.45-3.65,8.98-4.35c2.67-0.7,5.19-0.84,8.14-0.84
		c4.07,0,7.29,0.98,9.4,2.52c2.1,1.68,3.79,4.07,3.79,7.29c0.14,1.68-0.7,4.63-0.7,4.63l-6.03,24.83h-15.71l4.77-20.2
		c0,0,0.56-2.38,0.7-3.37c0.42-2.24-1.4-3.65-4.49-3.79c-2.95,0-5.47,0.56-7.29,2.67c-1.12,1.4-1.54,2.67-2.67,6.31l-4.35,18.38
		h-15.57c0,0,4.49-18.8,4.77-20.2c0.14-0.7,0.56-2.24,0.7-3.37c0.42-2.38-1.54-3.79-4.35-3.79c-2.67,0-4.77,0.98-6.45,2.24
		c-2.24,1.96-2.81,5.05-3.79,8.42l-4.07,16.69h-15.57L200.87,209.99z"/>
	<path id="XMLID_26_" d="M468.52,209.99l-0.7,3.37c3.37-2.1,5.61-3.09,8-3.65c2.52-0.7,4.63-0.84,7.86-0.7
		c3.93,0.14,6.59,0.98,9.12,2.67c2.24,1.68,3.65,3.65,3.79,6.87c0,2.24-0.7,5.47-0.7,5.47l-5.89,24.41h-15.57l4.63-19.22
		c0.42-2.24,0.7-3.37,0.84-4.35c0.28-3.09-2.1-3.93-5.33-3.93c-2.81,0-6.17,0.98-7.86,2.67c-1.4,1.4-2.1,3.65-3.23,7.86l-4.07,16.83
		h-15.71l9.26-38.29L468.52,209.99L468.52,209.99z"/>
	<polygon id="XMLID_27_" points="390.1,209.99 380.7,248.15 364.85,248.15 374.11,209.99 	"/>
	<path id="XMLID_28_" d="M387.3,191.9c2.1,0.14,3.65,0.84,4.77,2.1c1.12,1.26,1.26,2.95,1.12,4.49c-0.42,2.81-1.4,4.35-3.65,6.03
		c-2.52,1.68-4.49,2.38-7.86,2.1c-2.1-0.14-3.93-1.12-4.91-2.24c-0.84-1.12-1.26-2.81-1.12-4.49c0.14-1.68,1.12-3.79,3.37-5.61
		C381.26,192.46,384.91,191.76,387.3,191.9z"/>
	<path id="XMLID_31_" d="M421.8,208.87c4.35,0,7.15,0.28,9.82,0.98c2.67,0.56,4.91,1.54,6.45,2.95c2.67,2.24,4.63,5.47,4.63,10.24
		c0,3.93-0.98,7.86-2.67,11.5c-2.81,6.03-7.01,9.4-12.06,11.78c-3.93,1.82-11.5,3.23-16.55,3.09c-5.19-0.14-7.29-0.42-9.54-0.98
		c-2.24-0.56-4.63-1.54-6.17-2.81c-2.95-2.1-4.77-5.05-4.77-9.82c0-4.21,0.56-7.43,2.38-11.64c1.68-3.79,4.63-7.29,7.43-9.54
		c2.52-1.96,5.47-3.37,8.84-4.21C412.69,209.43,416.61,208.87,421.8,208.87z M419.14,219.53c-3.65,0-6.87,1.68-8.84,4.49
		c-1.54,2.24-2.81,5.19-2.81,8.14c0,4.21,2.24,6.31,6.87,6.31c3.65,0,6.73-1.82,8.7-4.49c1.54-2.24,2.81-5.33,2.81-8.28
		C426.01,221.5,423.63,219.53,419.14,219.53z"/>
	<path id="XMLID_36_" class="st1" d="M505.27,236.22c1.26,0,2.38,0.28,3.51,0.98c1.12,0.7,1.96,1.54,2.52,2.67
		c0.56,0.98,0.7,1.96,0.7,3.09c0,1.26-0.28,2.52-0.98,3.51c-0.7,1.12-1.54,1.96-2.67,2.52c-0.98,0.56-1.96,0.7-3.09,0.7
		c-1.26,0-2.52-0.28-3.51-0.98c-1.12-0.7-1.96-1.54-2.52-2.67c-0.56-0.98-0.7-1.96-0.7-3.09c0-1.26,0.28-2.52,0.98-3.65
		s1.54-1.96,2.81-2.52C503.02,236.36,504.14,236.22,505.27,236.22z M505.27,237.35c-1.54,0-2.95,0.56-3.93,1.68
		c-0.56,0.56-0.98,1.12-1.26,1.82c-0.28,0.7-0.42,1.4-0.42,2.24c0,1.54,0.56,2.95,1.68,4.07c1.12,1.12,2.38,1.68,3.93,1.68
		c1.54,0,2.81-0.56,3.93-1.68c1.12-1.12,1.68-2.38,1.68-4.07c0-1.12-0.28-2.1-0.84-2.95c-0.56-0.84-1.26-1.54-2.24-2.1
		C506.95,237.63,506.11,237.35,505.27,237.35z M502.6,246.88v-7.72h2.38c0.84,0,1.4,0.14,1.82,0.28c0.28,0.14,0.56,0.42,0.84,0.7
		c0.14,0.28,0.28,0.7,0.28,1.12s-0.14,0.84-0.28,1.26c-0.28,0.28-0.56,0.7-1.12,0.84l1.96,3.51h-1.82l-1.82-3.23h-0.56v3.23H502.6z
		 M504.28,242.4h0.56l0,0c0.42,0,0.84,0,1.12-0.28c0.28-0.14,0.42-0.42,0.42-0.84s-0.14-0.7-0.56-0.84c-0.14,0-0.42,0-0.98,0h-0.56
		V242.4L504.28,242.4z"/>
</g>
</svg>
