<?xml version="1.0" ?>
<svg xmlns="http://www.w3.org/2000/svg" viewBox="0 0 512 193" fill="none">
	<path fill-rule="evenodd" clip-rule="evenodd" d="M145.747 0.0810547H182.097V181.805H145.747L54.8709 72.7707H97.3047L145.747 130.066V0.0810547ZM0.345215 145.46H36.6956V181.805H0.345215V145.46Z" fill="#ED0000"/>
	<path d="M236.623 114.298V72.7715H242.932V114.298H236.623Z" fill="black"/>
	<path d="M271.622 114.298V93.6472C271.622 91.9951 271.096 90.7186 270.045 89.9676C268.993 89.2167 267.566 88.7662 265.764 88.7662C264.412 88.7662 263.21 89.0665 262.008 89.7424C260.807 90.4182 259.83 91.3193 259.154 92.5959C258.403 93.8724 258.028 95.4494 258.028 97.3267V114.298H252.02V84.2606H258.028V89.5922C259.004 87.7149 260.281 86.213 262.083 85.0866C263.811 83.9602 265.839 83.4346 268.017 83.4346C269.744 83.4346 271.321 83.735 272.748 84.2606C274.175 84.8614 275.377 85.7624 276.278 87.1892C277.179 88.5409 277.63 90.4182 277.63 92.7461V114.298H271.622Z" fill="black"/>
	<path d="M306.62 114.298V93.6472C306.62 91.9951 306.095 90.7186 305.043 89.9676C303.992 89.2167 302.565 88.7662 300.762 88.7662C299.41 88.7662 298.209 89.0665 297.007 89.7424C295.805 90.4182 294.829 91.3193 294.153 92.5959C293.402 93.8724 293.026 95.4494 293.026 97.3267V114.298H287.018V84.2606H293.026V89.5922C294.003 87.7149 295.28 86.213 297.082 85.0866C298.809 83.9602 300.837 83.4346 303.015 83.4346C304.743 83.4346 306.32 83.735 307.747 84.2606C309.174 84.8614 310.375 85.7624 311.277 87.1892C312.178 88.5409 312.629 90.4182 312.629 92.7461V114.298H306.62Z" fill="black"/>
	<path d="M334.634 115.124C332.005 115.124 329.527 114.523 327.274 113.397C324.946 112.195 323.143 110.468 321.716 108.14C320.289 105.812 319.613 102.884 319.613 99.3544C319.613 95.9001 320.289 93.0466 321.716 90.6437C323.143 88.3158 324.946 86.5136 327.274 85.3872C329.527 84.1857 332.005 83.585 334.634 83.585C337.263 83.585 339.741 84.1857 341.994 85.3121C344.247 86.5136 346.125 88.2407 347.552 90.5686C348.979 92.8964 349.655 95.8251 349.655 99.2793C349.655 102.734 348.979 105.662 347.552 107.99C346.125 110.318 344.323 112.12 341.994 113.322C339.666 114.523 337.263 115.124 334.634 115.124ZM334.634 110.318C336.211 110.318 337.713 109.942 338.99 109.192C340.267 108.441 341.318 107.239 342.069 105.662C342.82 104.01 343.196 101.908 343.196 99.2793C343.196 96.6511 342.82 94.5485 341.994 92.8965C341.243 91.2444 340.192 90.118 338.915 89.3671C337.638 88.6162 336.211 88.2407 334.559 88.2407C332.982 88.2407 331.48 88.6162 330.203 89.3671C328.851 90.118 327.875 91.3195 327.049 92.8965C326.298 94.5485 325.847 96.6511 325.847 99.2793C325.847 101.908 326.222 104.01 327.049 105.662C327.8 107.314 328.851 108.441 330.203 109.192C331.555 109.942 333.057 110.318 334.634 110.318Z" fill="black"/>
	<path d="M363.699 114.298L352.584 84.2607H358.893L366.929 107.239L374.59 84.2607H380.373L369.257 114.298H363.699Z" fill="black"/>
	<path d="M408.311 114.298H402.303V109.942C401.251 111.519 399.975 112.796 398.473 113.697C396.97 114.598 395.168 115.049 393.14 115.049C390.887 115.049 389.009 114.598 387.507 113.772C386.005 112.946 384.954 111.82 384.203 110.468C383.452 109.116 383.151 107.689 383.151 106.113C383.151 103.71 383.827 101.832 385.179 100.406C386.531 98.9788 388.258 97.9274 390.286 97.3267C392.389 96.6509 394.492 96.2754 396.745 96.1252L402.303 95.8249V93.5721C402.303 91.8449 401.852 90.4933 400.876 89.442C399.9 88.3907 398.473 87.9401 396.445 87.9401C394.717 87.9401 393.365 88.3156 392.464 89.0665C391.563 89.8174 391.037 90.7937 390.812 91.9951H384.804C385.029 89.9676 385.705 88.3907 386.831 87.1141C387.958 85.8376 389.31 84.9364 391.037 84.3357C392.765 83.7349 394.567 83.4346 396.52 83.4346C400.651 83.4346 403.58 84.3357 405.532 86.213C407.41 88.0903 408.386 90.4933 408.386 93.5721V114.298H408.311ZM389.31 105.587C389.31 106.939 389.685 108.065 390.512 108.966C391.338 109.867 392.539 110.318 394.192 110.318C395.468 110.318 396.745 109.942 397.947 109.266C399.149 108.591 400.2 107.614 401.026 106.338C401.852 105.061 402.228 103.634 402.228 101.982V99.8799L396.67 100.105C394.642 100.18 392.84 100.631 391.413 101.457C390.061 102.358 389.31 103.71 389.31 105.587Z" fill="black"/>
	<path d="M429.866 114.823H427.312C424.233 114.823 421.905 114.298 420.253 113.171C418.6 112.045 417.849 110.243 417.849 107.69V89.0666H413.493V84.3358H417.849V74.9492H423.858V84.3358H429.265V89.0666H423.858V107.164C423.858 108.441 424.233 109.267 424.984 109.567C425.735 109.942 426.712 110.093 427.988 110.093H429.866V114.823Z" fill="black"/>
	<path d="M435.349 78.4783V71.8701H442.408V78.4783H435.349ZM435.874 114.297V84.2604H441.883V114.297H435.874Z" fill="black"/>
	<path d="M463.663 115.124C461.034 115.124 458.556 114.523 456.303 113.397C453.974 112.195 452.172 110.468 450.745 108.14C449.318 105.812 448.642 102.884 448.642 99.3544C448.642 95.9001 449.318 93.0466 450.745 90.6437C452.172 88.3158 453.974 86.5136 456.303 85.3872C458.556 84.1857 461.034 83.585 463.663 83.585C466.292 83.585 468.77 84.1857 471.023 85.3121C473.276 86.5136 475.154 88.2407 476.581 90.5686C478.008 92.8964 478.684 95.8251 478.684 99.2793C478.684 102.734 478.008 105.662 476.581 107.99C475.154 110.318 473.351 112.12 471.023 113.322C468.695 114.523 466.292 115.124 463.663 115.124ZM463.663 110.318C465.24 110.318 466.742 109.942 468.019 109.192C469.296 108.441 470.347 107.239 471.098 105.662C471.849 104.01 472.225 101.908 472.225 99.2793C472.225 96.6511 471.849 94.5485 471.023 92.8965C470.272 91.2444 469.221 90.118 467.944 89.3671C466.667 88.6162 465.24 88.2407 463.588 88.2407C462.011 88.2407 460.509 88.6162 459.232 89.3671C457.88 90.118 456.904 91.3195 456.077 92.8965C455.326 94.5485 454.876 96.6511 454.876 99.2793C454.876 101.908 455.251 104.01 456.077 105.662C456.828 107.314 457.88 108.441 459.232 109.192C460.659 109.942 462.086 110.318 463.663 110.318Z" fill="black"/>
	<path d="M505.646 114.298V93.6472C505.646 91.9951 505.12 90.7186 504.069 89.9676C503.017 89.2167 501.59 88.7662 499.788 88.7662C498.436 88.7662 497.234 89.0665 496.033 89.7424C494.831 90.4182 493.855 91.3193 493.179 92.5959C492.428 93.8724 492.052 95.4494 492.052 97.3267V114.298H486.044V84.2606H492.052V89.5922C493.029 87.7149 494.305 86.213 496.108 85.0866C497.835 83.9602 499.863 83.4346 502.041 83.4346C503.768 83.4346 505.346 83.735 506.773 84.2606C508.2 84.8614 509.401 85.7624 510.303 87.1892C511.204 88.5409 511.654 90.4182 511.654 92.7461V114.298H505.646Z" fill="black"/>
	<path d="M236.623 181.805V140.279H242.932L263.886 172.719V140.279H269.519V181.805H263.285L242.181 149.29V181.805H236.623Z" fill="black"/>
	<path d="M291.224 182.632C288.595 182.632 286.117 182.031 283.864 180.905C281.535 179.703 279.733 177.976 278.306 175.648C276.879 173.32 276.203 170.392 276.203 166.862C276.203 163.408 276.879 160.554 278.306 158.151C279.733 155.824 281.535 154.021 283.864 152.895C286.117 151.693 288.595 151.093 291.224 151.093C293.853 151.093 296.331 151.694 298.584 152.82C300.837 154.021 302.715 155.749 304.142 158.076C305.569 160.404 306.245 163.333 306.245 166.787C306.245 170.241 305.569 173.17 304.142 175.498C302.715 177.826 300.912 179.628 298.584 180.829C296.331 182.031 293.853 182.632 291.224 182.632ZM291.224 177.826C292.801 177.826 294.303 177.45 295.58 176.699C296.857 175.948 297.908 174.747 298.659 173.17C299.41 171.518 299.786 169.415 299.786 166.787C299.786 164.159 299.41 162.056 298.584 160.404C297.833 158.752 296.782 157.626 295.505 156.875C294.228 156.124 292.801 155.749 291.149 155.749C289.497 155.749 288.07 156.124 286.793 156.875C285.516 157.626 284.465 158.827 283.638 160.404C282.887 162.056 282.437 164.159 282.437 166.787C282.437 169.415 282.812 171.518 283.638 173.17C284.389 174.822 285.441 175.948 286.793 176.699C288.145 177.45 289.647 177.826 291.224 177.826Z" fill="black"/>
	<path d="M319.613 166.787V181.806H313.605V151.769H319.613V158.827C320.064 157.551 320.665 156.349 321.491 155.148C322.317 153.946 323.293 152.97 324.57 152.219C325.847 151.468 327.274 151.093 329.001 151.093V157.325C326.147 157.325 323.819 158.076 322.167 159.653C320.439 161.23 319.613 163.633 319.613 166.787Z" fill="black"/>
	<path d="M340.943 181.806L331.705 151.769H337.788L344.247 175.122L351.082 151.769H356.039L362.723 174.897L369.182 151.769H374.514L365.352 181.806H359.569L353.035 160.554L346.501 181.806H340.943Z" fill="black"/>
	<path d="M402.904 181.805H396.895V177.45C395.844 179.027 394.567 180.304 393.065 181.205C391.563 182.106 389.76 182.556 387.733 182.556C385.479 182.556 383.602 182.106 382.1 181.28C380.598 180.454 379.546 179.327 378.795 177.976C378.044 176.624 377.744 175.197 377.744 173.62C377.744 171.217 378.42 169.34 379.772 167.913C381.123 166.487 382.851 165.435 384.879 164.835C386.981 164.159 389.084 163.783 391.337 163.633L396.895 163.333V161.08C396.895 159.353 396.445 158.001 395.468 156.95C394.492 155.899 393.065 155.448 391.037 155.448C389.31 155.448 387.958 155.823 387.057 156.574C386.155 157.325 385.63 158.301 385.404 159.503H379.396C379.621 157.475 380.297 155.899 381.424 154.622C382.55 153.345 383.902 152.444 385.63 151.844C387.357 151.243 389.16 150.942 391.112 150.942C395.243 150.942 398.172 151.844 400.125 153.721C402.002 155.598 402.979 158.001 402.979 161.08V181.805H402.904ZM383.902 173.095C383.902 174.446 384.278 175.573 385.104 176.474C385.93 177.375 387.132 177.826 388.784 177.826C390.061 177.826 391.338 177.45 392.539 176.774C393.741 176.098 394.792 175.122 395.618 173.846C396.445 172.569 396.82 171.142 396.82 169.49V167.388L391.262 167.613C389.235 167.688 387.432 168.139 386.005 168.965C384.653 169.866 383.902 171.217 383.902 173.095Z" fill="black"/>
	<path d="M420.703 192.919H415.446L419.427 181.956L407.635 151.769H413.944L422.205 174.371L429.641 151.769H435.424L420.703 192.919Z" fill="black"/>
</svg>