<?xml version="1.0" ?>
<svg xmlns="http://www.w3.org/2000/svg" version="1.2" baseProfile="tiny-ps" id="bimi" viewBox="0 0 250 250" xml:space="preserve">
	<rect x="-0.31" y="-0.48" fill="#498ECC" width="250" height="250"/>
	<path fill="#FFFFFF" d="M45.91,142.91c-8.26-8.29-12.55-18.38-12.55-30.27s4.28-22.1,12.55-30.67c8.42-8.57,18.61-12.86,30.61-12.86  c9.11,0,17.1,2.49,24.14,7.33c0.41-2.07,1.65-3.87,3.44-5.25s3.86-2.08,6.34-2.08c2.48,0,4.56,0.98,6.49,2.77  c1.79,1.8,2.76,3.87,2.76,6.36c0,66.59,0,66.59,0,66.59c0,11.33-4.27,21.14-12.69,29.15c-8.4,8.15-18.61,12.16-30.47,12.16  c-6.75,0-13.1-1.38-18.88-4.28c-2.34-1.1-4-2.76-4.82-5.25c-0.83-2.49-0.69-4.83,0.55-7.19c1.24-2.34,3.03-3.87,5.51-4.7  c2.34-0.69,4.82-0.69,7.44,0.41c3.04,1.66,7.04,2.35,11.72,2.35c4.83,0,9.38-1.66,13.65-5.26c4.41-3.44,7.18-7.88,8.41-13.12  c-7.04,4.56-14.75,6.91-23.58,6.91C64.52,156.04,54.32,151.62,45.91,142.91z M52.81,112.79c0,6.77,2.21,12.57,6.89,17.41  c4.55,4.83,10.21,7.18,16.96,7.18c6.76,0,12.41-2.34,16.96-7.04c4.56-4.71,6.9-10.51,6.9-17.55c0-7.05-2.34-12.99-7.04-17.82  c-4.55-4.97-10.2-7.33-16.82-7.33c-6.48,0-12.14,2.49-16.82,7.46C55.15,100.08,52.81,106.02,52.81,112.79z"/>
	<path fill="#FFFFFF" d="M174.56,155.9c-12.14,0-22.35-4.28-30.76-12.85c-8.41-8.43-12.54-18.66-12.54-30.4  c0-11.88,4.13-22.1,12.69-30.67c8.4-8.57,18.61-12.86,30.46-12.86c11.86,0,21.93,4.43,30.19,13c8.42,8.7,12.55,19.06,12.55,30.95  c0,12.02-4.13,21.84-12.55,29.71C196.62,151.48,186.68,155.9,174.56,155.9z M157.31,94.55c-4.41,4.83-6.48,10.77-6.48,17.82  c0,7.19,2.07,13.26,6.48,18.38c4.69,4.15,10.2,6.35,16.82,6.35c6.62,0,12.27-2.2,16.97-6.35c4.68-5.12,7.03-11.19,7.03-18.38  c0-7.05-2.34-12.99-7.03-17.82c-5.11-4.42-10.76-6.64-16.97-6.64C168.07,87.92,162.42,90.13,157.31,94.55z"/>
</svg>