<?xml version="1.0" ?>
<svg xmlns="http://www.w3.org/2000/svg" viewBox="0 0 24 24" fill="none">
	<path d="M5.544 9.696c.228 0 .434.01.663.01.239 0 .478-.01.717-.01l-.044.14-.326.175v1.239c0 .815.011 1.315.022 1.37l.424.173-.043.12c-.25 0-.511-.01-.772-.01-.25 0-.511.01-.761.01l.043-.141.36-.185c.02-.054.032-.554.032-1.359V10L5.5 9.826l.044-.13Zm1.87 1.434-.24-.13.043-.109c.077-.065.75-.217.87-.217l-.043.359.01.01c.261-.195.522-.37.729-.37.532 0 .695.425.695.773v1.087c0 .054.033.087.098.12l.25.119-.032.141H8.565l.022-.141.196-.152c.01-.142.021-.479.021-1.087 0-.294-.13-.446-.358-.446-.12 0-.24.054-.37.152 0 .38 0 1.294.011 1.38l.24.153-.023.141H7.098l.032-.141.261-.152c.011-.066.011-.533.011-1.087l.011-.403Zm3.39-.456c.11 0 .25.033.38.12.088-.055.186-.11.294-.142l.055.022c-.022.239-.076.565-.12.674l-.087.032a1.768 1.768 0 0 1-.185-.38c-.032-.022-.12-.098-.282-.098-.218 0-.305.141-.305.25 0 .087.055.174.185.24.25.119.402.195.587.293.283.152.348.326.348.532 0 .62-.62.75-.978.75-.294 0-.609-.108-.729-.195 0-.152.087-.533.12-.62l.076-.032c.087.14.217.434.304.608a.625.625 0 0 0 .261.044c.218 0 .37-.142.37-.294 0-.098-.044-.163-.174-.239a7.385 7.385 0 0 0-.424-.217c-.304-.142-.49-.337-.49-.652-.01-.337.25-.696.794-.696Zm1.86.283h.01c.337-.207.5-.283.609-.283.402 0 .956.359.956 1.043 0 .902-.706 1.25-1.174 1.25-.065 0-.184-.043-.38-.141h-.011c0 .26.01.609.022.793l.445.174-.032.142h-1.402l.043-.152.24-.142c.01-.108.02-.576.02-1.282v-1.272l-.27-.174.032-.12c.065-.021.641-.12.902-.12l-.01.284Zm.02 1.673c.066.033.131.044.218.044.326 0 .652-.294.652-.826 0-.522-.337-.772-.64-.772a.568.568 0 0 0-.24.054l.01 1.5Zm2.48-.815v.065c0 .457.282.772.673.772.043 0 .076 0 .12-.01.152-.12.38-.272.489-.327l.032.087c-.032.185-.282.424-.38.478a1.694 1.694 0 0 1-.511.098c-.685 0-1.13-.424-1.13-1.12 0-.673.521-1.173 1.13-1.173.522 0 .935.326.935.891 0 .076-.022.141-.055.152a1.247 1.247 0 0 1-.521.098l-.783-.01Zm.673-.217a.53.53 0 0 0 .033-.152c0-.337-.11-.566-.305-.566-.25 0-.391.435-.402.718h.674Zm.913-.729c.076-.043.62-.184.837-.195.022.098.054.337.044.413h.01c.153-.228.38-.413.62-.413.13 0 .217.043.283.098-.011.141-.142.51-.24.674l-.087.021c-.054-.087-.108-.152-.206-.358-.022-.011-.044-.022-.076-.022-.098 0-.228.109-.294.239v1.272l.49.152-.033.141h-1.424l.01-.141.273-.152c.021-.5.021-1.294.021-1.49l-.26-.13.032-.108Zm1.978-.032c.076-.022.533-.13.902-.152v1.01c0 .544 0 .816.011.925l.326.152-.032.141h-1.272l.022-.141.26-.152c0-.174.012-.555.012-.935v-.598l-.261-.13.032-.12Zm4.794-.087h-.337l-.054.13.195.163c-.054.196-.206.674-.315.99-.174-.413-.38-.761-.478-1.011l.13-.142.022-.14h-1.718l.022-.707c-.065 0-.326.054-.424.12-.087.097-.228.466-.26.597h-.24l-.076.196.305.087v1.228c0 .293.032.402.108.51.12.142.315.229.576.229.305 0 .566-.141.674-.326V12.5l-.021-.01a.644.644 0 0 1-.392.13.359.359 0 0 1-.228-.077c-.022-.032-.044-.076-.044-.195v-1.305l.544-.097a.39.39 0 0 1 .304.163c.207.434.74 1.739.794 1.858-.033.098-.109.25-.152.337-.229.185-.468.424-.5.5.043.087.25.25.456.25.044 0 .087 0 .109-.021.032-.142.054-.272.141-.598.315-.75.837-2.066.99-2.38.108-.055.195-.12.293-.175l.043-.14c-.13 0-.282.01-.467.01Zm-3.902-.76c0 .206-.163.38-.36.38-.195 0-.358-.174-.358-.38 0-.207.163-.381.359-.381.196.01.359.174.359.38Z" fill="#006595"/>
	<path d="M3.12 10.413a.63.63 0 0 1-.435-.13l.032.228c.13.065.283.065.348.065a.66.66 0 0 0 .065.348l.24.033a.694.694 0 0 1-.142-.435c0-.076-.043-.109-.108-.109Z" fill="#439539"/>
	<path d="M3.467 10.174a1.164 1.164 0 0 1-.837-.24l-.032-.293c.272.185.51.337.913.326.13 0 .174.033.163.163-.011.392.141.642.326.903L3.706 11c-.195-.272-.271-.565-.239-.826Z" fill="#439539"/>
	<path d="M3.913 9.728c-.24.055-.76.033-1.359-.424A14.434 14.434 0 0 0 2.522 9c.26.217.793.565 1.391.522.185-.011.228.021.207.206-.044.598.304 1.12.532 1.38l-.304-.032c-.468-.587-.49-1.109-.435-1.348Zm-.685 2.37a.63.63 0 0 1 .13-.435l-.238.033c-.066.13-.066.282-.066.348a.66.66 0 0 0-.347.065l-.033.239a.705.705 0 0 1 .446-.142c.065-.01.108-.043.108-.108Z" fill="#439539"/>
	<path d="M3.467 12.446c-.032-.261.033-.555.24-.826L4 11.587c-.185.272-.348.51-.326.902 0 .13-.033.174-.163.163-.402-.01-.641.141-.913.326l.032-.293c.283-.196.576-.272.837-.24Z" fill="#439539"/>
	<path d="M3.913 12.88c-.054-.239-.022-.75.435-1.347.217-.022.304-.033.304-.033-.217.26-.576.783-.532 1.38.01.185-.022.218-.207.207-.609-.043-1.13.304-1.391.522l.032-.305c.598-.456 1.12-.467 1.359-.424Zm-2.38-.684a.63.63 0 0 1 .434.13l-.032-.228c-.13-.065-.283-.065-.348-.065a.66.66 0 0 0-.065-.348l-.24-.033c.088.13.142.24.142.435 0 .076.043.109.109.109Z" fill="#439539"/>
	<path d="M1.185 12.446c.26-.033.554.032.837.239l.032.293c-.271-.185-.51-.337-.913-.326-.13 0-.174-.032-.163-.163.011-.391-.141-.641-.326-.902l.283.022c.206.282.282.576.25.837Z" fill="#439539"/>
	<path d="M.74 12.88c.238-.054.76-.021 1.358.424l.032.305c-.26-.218-.793-.566-1.39-.522-.186.01-.23-.022-.207-.207.043-.597-.316-1.12-.533-1.38l.304.033c.468.597.479 1.108.435 1.347Zm.684-2.358a.63.63 0 0 1-.13.434l.239-.032c.065-.13.065-.283.065-.348a.66.66 0 0 0 .348-.065l.032-.24a.66.66 0 0 1-.445.131c-.076.011-.11.044-.11.12Z" fill="#439539"/>
	<path d="M1.185 10.174c.032.26-.033.554-.24.826l-.293.033c.185-.272.348-.511.326-.902-.01-.13.033-.174.163-.164.403.011.642-.14.913-.326l-.032.294c-.283.195-.576.272-.837.239Z" fill="#439539"/>
	<path d="M.74 9.728c.053.24.02.75-.436 1.348-.217.022-.304.033-.304.033.217-.261.576-.783.533-1.38-.022-.186.021-.218.206-.207.598.054 1.13-.305 1.391-.522l-.032.304c-.598.457-1.12.479-1.359.424Z" fill="#439539"/>
	<path d="M23.38 12.772c0-.207.142-.305.283-.305s.283.098.283.305c0 .206-.142.304-.283.304s-.282-.098-.282-.304Zm.511 0c0-.152-.097-.25-.228-.25-.141 0-.228.098-.228.25s.098.25.228.25.228-.098.228-.25Zm-.326-.152h.098c.065 0 .098.043.098.087 0 .043-.022.065-.054.076.01 0 .01.01.01.021l.055.11h-.065l-.044-.099c-.01-.01-.01-.021-.022-.021h-.021v.12h-.055v-.294Zm.098.14c.033 0 .044-.01.044-.043 0-.032-.011-.043-.044-.043h-.043v.087h.043Z" fill="#006595"/>
</svg>
