<?xml version="1.0" ?>
<!-- Generator: Adobe Illustrator 26.5.0, SVG Export Plug-In . SVG Version: 6.00 Build 0)  -->
<svg xmlns="http://www.w3.org/2000/svg" version="1.2" baseProfile="tiny-ps" id="Layer_1" viewBox="0 0 500 500" xml:space="preserve">
	<g>
		<g>
			<path fill="#425266" d="M200.8,279.8v-43.5c0-7.5-0.8-9.3-8-9.4c-0.4,0-0.6-0.3-0.6-0.6c0-0.3,0.3-0.6,0.6-0.6H222v54.2H200.8z     M285.6,209.9c0-6.1-4.7-10.8-10.7-10.8c-6.1,0-10.8,4.8-10.8,10.8c0,5.9,4.9,10.7,10.8,10.7C280.8,220.6,285.6,215.8,285.6,209.9     M63.3,209.9c0-6.1-4.7-10.8-10.7-10.8c-6.1,0-10.8,4.8-10.8,10.8c0,5.9,4.9,10.7,10.8,10.7C58.5,220.6,63.3,215.8,63.3,209.9     M71.7,279.2c0,0.3-0.3,0.6-0.6,0.6H33.9c-0.3,0-0.6-0.3-0.6-0.6c0-0.3,0.3-0.6,0.6-0.6c7.3-0.1,8.1-2.1,8.1-9.7v-32.6    c0-7.5-0.7-9.3-8-9.4c-0.4,0-0.6-0.3-0.6-0.6c0-0.3,0.3-0.6,0.6-0.6h29.2v43.3c0,7.1,0.4,9.6,8,9.7    C71.4,278.6,71.7,278.9,71.7,279.2 M253.5,252.7c0,0.2,0,0.4,0,0.6c0,7.1-1.9,13.8-5.2,18.8c-3.6,5.3-8.5,8.2-13.9,8.2    c-3.9,0-7.4-1.6-10.1-4.6c-0.1-0.1-0.2-0.2-0.2-0.3c-0.2-0.2-0.3-0.5-0.2-0.7c0,0,0,0,0-0.1c0-0.1,0.1-0.1,0.1-0.2    c0.2-0.3,0.6-0.2,0.9,0c0.1,0.1,0.3,0.2,0.5,0.3c0.2,0.1,0.4,0.2,0.5,0.3c0.3,0.1,0.5,0.1,0.8,0.1c5.3,0,5.5-7.8,5.5-21.6v-1v-1    c0-13.8-0.3-21.6-5.5-21.6c-0.3,0-0.6,0-0.8,0.1c-0.1,0-0.3,0.1-0.5,0.3c-0.2,0.1-0.4,0.3-0.5,0.3c-0.3,0.2-0.7,0.2-0.9,0    c0,0-0.1-0.1-0.1-0.2c0,0,0,0,0-0.1c-0.1-0.2,0-0.5,0.2-0.7c0.1-0.1,0.1-0.2,0.2-0.3c2.7-3,6.2-4.6,10.1-4.6    c5.4,0,10.4,2.9,13.9,8.2c3.4,5,5.2,11.7,5.2,18.8C253.5,252.3,253.5,252.5,253.5,252.7 M294,279.2c0,0.3-0.3,0.6-0.6,0.6h-37.2    c-0.3,0-0.6-0.3-0.6-0.6c0-0.3,0.3-0.6,0.6-0.6c7.3-0.1,8.1-2.1,8.1-9.7v-32.6c0-7.5-0.8-9.3-8-9.4c-0.4,0-0.6-0.3-0.6-0.6    c0-0.3,0.3-0.6,0.6-0.6h29.2v43.3c0,7.1,0.4,9.6,8,9.7C293.7,278.6,294,278.9,294,279.2 M107.6,278.6L107.6,278.6    c-3.5-0.2-3.9-3.1-3.9-9.5v-43.5H74.5c-0.3,0-0.6,0.3-0.6,0.6c0,0.4,0.3,0.6,0.6,0.6c7.3,0.1,8,1.9,8,9.4v32.6    c0,7.6-0.8,9.7-8.1,9.7c-0.3,0-0.6,0.3-0.6,0.6c0,0.3,0.3,0.6,0.6,0.6h29h4.2c0.3,0,0.6-0.3,0.6-0.6    C108.2,278.9,107.9,278.6,107.6,278.6 M349.9,235.9c0-6.1-4.7-10.8-10.7-10.8c-6.1,0-10.8,4.8-10.8,10.8c0,5.9,4.9,10.7,10.8,10.7    C345.1,246.6,349.9,241.8,349.9,235.9 M334.6,279.2c0,0.3-0.3,0.6-0.6,0.6h-37.2c-0.3,0-0.6-0.3-0.6-0.6c0-0.3,0.3-0.6,0.6-0.6    c7.3-0.1,8.1-2.1,8.1-9.7v-32.6c0-7.5-0.7-9.3-8-9.4c-0.4,0-0.6-0.3-0.6-0.6c0-0.3,0.3-0.6,0.6-0.6H326v43.3c0,7.1,0.4,9.6,8,9.7    C334.3,278.6,334.6,278.9,334.6,279.2 M190.1,261.1c0,8.9-5.5,15.1-12.8,17.7c-3.1,1.1-6.2,1.7-9,1.7c-0.4,0-0.9,0-1.2,0    c-0.4,0-0.6-0.3-0.6-0.6c0-0.3,0.2-0.6,0.6-0.6c0.2,0,0.6,0.1,0.9,0.1c0.7,0,2.1-0.1,2.9-0.6c2.7-1.5,3.5-4.8,3.5-6.9    c0-3.8-2.7-6.7-11.4-9.4l-3-0.9c-5.1-1.6-11.6-3.1-14.7-8.9l0,0h0c-1.1-2.1-1.8-4.9-1.8-8.4c0-8.9,5.5-15.1,12.8-17.7    c3.1-1.1,6.2-1.7,9-1.7c0.4,0,0.9,0,1.2,0c0.4,0,0.6,0.3,0.6,0.6c0,0.3-0.2,0.6-0.6,0.6c-0.2,0-0.6-0.1-0.9-0.1    c-0.7,0-2.1,0.2-2.9,0.6c-2.7,1.5-3.5,4.8-3.5,6.9c0,3.8,2.7,6.7,11.4,9.4l3,0.9c5.1,1.6,11.6,3.1,14.7,8.9v0    C189.4,254.9,190.1,257.6,190.1,261.1 M187.2,233.2c0-4.6-3.6-8.2-8.1-8.2c-4.6,0-8.2,3.6-8.2,8.2c0,4.5,3.7,8.1,8.2,8.1    C183.5,241.3,187.2,237.7,187.2,233.2 M146.4,272.2c0,4.6,3.6,8.2,8.1,8.2c4.6,0,8.2-3.6,8.2-8.2c0-4.5-3.7-8.1-8.2-8.1    C150.1,264.1,146.4,267.8,146.4,272.2 M135.7,247.6V244c0-6.9-1-11.7-5.9-15.6c-2.8-2.2-6.5-3.3-10.8-3.3c-5.3,0-9.7,1.6-12.7,4.8    c-0.3,0.3-0.4,0.5-0.6,0.6c-0.1,0.1-0.2,0.3-0.2,0.4c0,0.3,0.3,0.6,0.6,0.6c0.2,0,0.3-0.1,0.4-0.2c0.4-0.3,1.3-1,1.8-1.1    c1-0.4,1.8-0.4,1.8-0.4c2.8,0,4.6,2,4.6,12v14.8h21v-7.1C135.7,248.9,135.7,248.3,135.7,247.6 M125.2,280.5    c-6,0-10.8-4.8-10.8-10.7c0-6.1,4.8-10.8,10.8-10.8c6,0,10.7,4.8,10.7,10.8C135.9,275.7,131.1,280.5,125.2,280.5 M221.1,295.6    c0-6.1-4.7-10.8-10.7-10.8c-6.1,0-10.8,4.8-10.8,10.8c0,5.9,4.9,10.7,10.8,10.7C216.3,306.3,221.1,301.5,221.1,295.6"/>
			<path fill="#1E76BC" d="M465,225.6v43.5c0,7.5,0.8,9.3,8,9.4c0.4,0,0.6,0.3,0.6,0.6c0,0.3-0.3,0.6-0.6,0.6h-29.2v-54.2H465z     M412.4,252.7c0-0.2,0-0.4,0-0.6c0-7.1,1.9-13.8,5.2-18.8c3.6-5.3,8.5-8.2,13.9-8.2c3.9,0,7.4,1.6,10.1,4.6    c0.1,0.1,0.2,0.2,0.2,0.3c0.2,0.2,0.2,0.4,0.2,0.7c0,0,0,0,0,0.1c0,0.1-0.1,0.1-0.1,0.2c-0.2,0.3-0.6,0.2-0.9,0    c-0.1-0.1-0.3-0.2-0.5-0.3c-0.2-0.1-0.4-0.2-0.5-0.3c-0.3-0.1-0.5-0.1-0.8-0.1c-5.3,0-5.5,7.8-5.5,21.6v1v1    c0,13.8,0.3,21.5,5.5,21.5c0.3,0,0.6,0,0.8-0.1c0.1,0,0.3-0.1,0.5-0.2c0.2-0.1,0.4-0.3,0.5-0.3c0.3-0.2,0.7-0.2,0.9,0    c0,0,0.1,0.1,0.1,0.2c0,0,0,0,0,0.1c0.1,0.2,0,0.5-0.2,0.7c-0.1,0.1-0.1,0.2-0.2,0.3c-2.7,3-6.2,4.6-10.1,4.6    c-5.4,0-10.4-2.9-13.9-8.2c-3.4-5-5.2-11.7-5.2-18.8C412.4,253.1,412.4,252.9,412.4,252.7 M393.7,278.9c-5.9,0-10.7-4.8-10.7-10.7    c0-6.1,4.7-10.8,10.7-10.8c6.1,0,10.8,4.8,10.8,10.8C404.6,274.1,399.7,278.9,393.7,278.9 M381.7,280.4c-10.2,0-18-3.1-23.1-9.3    c-5.2-6.4-5.8-14-5.8-17c0-8.2,3.5-15.9,10-22.2c6.3-6,14-6.9,18-6.9c10.9,0,18.2,5.1,22.3,15.6c1.3,3.7,1.4,7.2,1.4,11.6v0.3    h-19.2v-1c0.2-4.1,0.3-9.5,0.3-13c0-5.8-0.2-9.4-3-11.8c-0.4-0.4-1.3-0.4-2.1-0.4c-5.7,0-6.7,7.2-6.7,22.3v9.9    c0,14.5,3.2,20.2,11.4,20.4c1.8,0,2.1,0.2,2.1,0.6C387.6,280.3,381.7,280.4,381.7,280.4 M466.3,209.9c0-6.1-4.7-10.8-10.7-10.8    c-6.1,0-10.8,4.8-10.8,10.8c0,5.9,4.9,10.7,10.8,10.7C461.4,220.6,466.3,215.8,466.3,209.9"/>
		</g>
	</g>
</svg>