<?xml version="1.0" ?>
<svg xmlns="http://www.w3.org/2000/svg" version="1.2" viewBox="0 0 1556 1554">
	<style>
		.s0 { fill: #009639 } 
	</style>
	<path id="path229" fill-rule="evenodd" class="s0" d="m188.8 188.6c-8.4 8.4-12 20.3-10.2 32.3 3.6 337.3-199.7 490.4-175.8 488.6 116-13.1 109.4-13.1 109.4-13.1 86.8-123.2 136.4-268 144.8-416.3 1.8-12 10.1-20.3 22.1-22.1 150.1-8.4 293.7-57.5 416.3-144.8 1.8 0 0 7.2 13.7-108.8 3.6-25.7-148.3 178.8-489.8 175.2-8.4-3-22.1 0-30.5 9z"/>
	<path id="path231" class="s0" d="m408.9 420c-12 86.8-35.9 170.5-74.8 247.1 0 1.7 4.8 0-93.9 11.9-1.8 0-1.8 0-1.8-1.8v-1.8c56.2-100.5 90.3-211.1 95.7-327.1 0-8.4 8.4-16.8 16.8-16.8 114.2-6.6 226.6-39.4 327.7-95.7h3v1.8c-12 100.5-12 95.7-12 95.7-78.3 37.1-162 62.8-248.8 73-6.5 1.8-11.9 7.2-11.9 13.7z"/>
	<path id="path233" fill-rule="evenodd" class="s0" d="m482.4 491.8c-20.9 137.6-46 166.9-35.8 165.1 71.7-10.2 68.1-8.4 69.9-10.2 13.2-32.3 22.2-66.4 22.2-102.3 1.8-6.5 3-8.3 10.1-8.3 34.1 0 68.2-7.2 100.5-22.2 1.8-1.8-1.8 1.8 8.4-69.9 1.8-10.2-25.1 15.5-163.3 35.9-7.2 0-12 4.7-12 11.9zm885.2-303.2c-9-9-20.3-12-32.3-10.2-337.9 1.2-491.6-199.7-488-175.8 13.7 116 13.7 108.8 13.7 108.8 122.6 87.4 267.4 136.4 416.3 145.4 12 1.2 20.3 10.1 22.1 22.1 8.4 149.5 58 294.3 144.8 415.7 0 1.8-6.6 0 109.4 13.1 25.1 3.6-179.4-147.7-175.8-488.6 3.6-10.2-1.8-22.1-10.2-30.5z"/>
	<path id="path235" class="s0" d="m1135.6 406.3c-85.6-12-170.5-35.9-247.7-73-1.1 0 0 4.8-11.9-93.9 0-1.8 0-1.8 1.8-1.8h1.8c100.5 56.2 211.7 88.5 327.7 95.7 8.4 0 16.8 8.4 16.8 16.8 7.1 114.2 39.4 226.6 95.7 327.1v3.6h-1.8c-98.7-12-93.9-10.2-93.9-12-37.7-78.3-62.8-162-73-248.8-3.6-6.5-9-11.9-15.5-13.7z"/>
	<path id="path237" fill-rule="evenodd" class="s0" d="m1067.4 479.9c-138.2-20.4-167.5-46.1-165.7-35.9 8.4 71.7 8.4 69.9 10.2 69.9 31.1 13.2 65.2 22.2 101 22.2 8.4 0 10.2 0 10.2 8.3 0 35.9 6.6 70 22.1 102.3 0 1.8-3.5 0 68.2 8.4 10.2 1.8-15.5-25.7-35.9-163.3-1.8-5.4-5.3-10.2-10.1-11.9zm300.2 885.7c8.4-8.4 12-20.3 10.2-32.3-3.6-337.3 199.7-490.4 175.8-489.2-116 13.7-109.4 13.7-109.4 13.7-86.8 122.6-136.4 267.4-144.8 415.7-1.8 12-10.1 20.3-22.1 22.1-150.1 8.4-295.5 58.1-416.3 144.8-1.8 0 0-6.6-13.7 111.2-3.6 25.1 148.3-179.4 489.2-175.8 10.8 1.8 22.1-1.8 31.1-10.2z"/>
	<path id="path239" class="s0" d="m1149.3 1134.2c12-85.6 35.9-170.5 73-247.1 0-1.7-4.8 0 93.9-11.9 1.8 0 1.8 0 1.8 1.2v1.8c-56.2 100.5-88.5 211.7-95.7 327.1 0 9-8.4 17.4-16.8 17.4-114.2 6.5-226.6 38.8-327.7 95.1h-3v-1.8c12-98.7 10.2-93.3 12-93.3 78.3-37.7 161.4-61.6 247-73.6 8.3-3 15.5-8.4 15.5-14.9z"/>
	<path id="path241" fill-rule="evenodd" class="s0" d="m1075.7 1064.2c20.4-138.2 46.1-166.9 35.9-165.1-71.7 10.2-69.9 8.4-69.9 10.2-13.8 32.3-22.2 66.4-22.2 102.2-1.8 6.6-3.6 8.4-10.1 8.4-34.1 0-68.2 6.6-100.5 22.1-1.8 0 1.2-3.5-9 68.2-1.8 10.2 25.7-15.5 163.9-35.9 7.2 0 11.9-5.3 11.9-10.1zm-885.1 301.4c8.4 8.4 20.3 12 32.3 10.2 337.9-3.6 491 199.1 489.8 175.8-13.7-116-13.7-109.4-13.7-111.2-123.3-86.7-268-136.4-416.3-144.8-12-1.8-20.3-10.1-22.1-22.1-8.4-149.5-58.1-294.8-145.4-417.5-1.2-1.7 7.2 0-108.8-13.1-29.3-1.8 175.8 149.5 172.2 490.4-1.8 12 1.8 23.9 12 32.3z"/>
	<path id="path243" class="s0" d="m420.8 1147.3c86.8 12 170.5 35.9 248.8 73.6 1.8 0 0-5.4 12 93.9 0 1.2 0 1.2-1.8 1.2h-1.2c-101.1-56.2-211.7-88.5-327.7-95.1-8.4 0-16.8-8.4-16.8-17.4-7.2-113.6-39.5-226-95.7-327.1v-3h1.8c98.7 12 93.9 10.2 93.9 12 37.1 78.3 62.8 161.4 73 248.8 3.6 6.5 8.4 11.9 13.7 13.1z"/>
	<path id="path245" fill-rule="evenodd" class="s0" d="m480.7 1062.4c-20.4-138.2-46.1-165.1-35.9-163.3 71.7 8.4 68.2 6.6 69.9 8.4 15 32.3 22.2 66.4 22.2 102.3 0 8.3 1.8 8.3 10.1 8.3 35.9 0 70 8.4 100.5 22.2 1.8 0 1.8-1.8 10.2 69.9 1.8 10.2-26.9-15.5-165.1-35.9-7.2-1.7-10.2-5.3-11.9-11.9z"/>
</svg>