<?xml version="1.0" ?>
<svg xmlns="http://www.w3.org/2000/svg" version="1.2" viewBox="0 0 1530 1196">
	<defs>
		<clipPath clipPathUnits="userSpaceOnUse" id="cp1">
			<path d="m546.61 217.82c11.03-33.87 27.34-65.78 48.32-94.56 20.99-28.78 46.4-54.06 75.28-74.91 28.88-20.85 60.87-37 94.79-47.86 34.06 10.78 66.21 26.89 95.23 47.73 29.02 20.85 54.55 46.16 75.64 75 21.1 28.84 37.49 60.85 48.56 94.82 11.08 33.97 16.69 69.49 16.65 105.22v437.46h-471.07v-438c-0.03-35.62 5.58-71.02 16.6-104.9zm71.9 456.02h293.2l-0.55-351.23c0.13-23.84-3.19-47.57-9.86-70.46-6.66-22.89-16.61-44.7-29.51-64.74-12.91-20.04-28.65-38.12-46.73-53.66-18.08-15.53-38.31-28.38-60.06-38.12-21.85 9.72-42.17 22.57-60.33 38.13-18.17 15.56-33.98 33.67-46.95 53.77-12.97 20.1-22.95 41.97-29.65 64.93-6.69 22.96-10.02 46.77-9.89 70.69v22.59z"/>
		</clipPath>
		<linearGradient id="g1" x2="1" gradientUnits="userSpaceOnUse" gradientTransform="matrix(586.797,-287.469,337.77,689.475,440.712,558.074)">
			<stop offset="0" stop-color="#004266"/>
			<stop offset="1" stop-color="#108fcf"/>
		</linearGradient>
		<clipPath clipPathUnits="userSpaceOnUse" id="cp2">
			<path d="m767.5 258.32c8.88 3.07 17.24 7.5 24.77 13.14 7.52 5.63 14.13 12.4 19.57 20.07 5.45 7.66 9.68 16.13 12.53 25.09 2.85 8.96 4.29 18.31 4.26 27.71v246.21h-126.72v-246.54c-0.03-9.39 1.41-18.74 4.25-27.69 2.84-8.96 7.06-17.42 12.49-25.08 5.44-7.67 12.04-14.44 19.55-20.08 7.52-5.64 15.86-10.08 24.74-13.16zm-42.03 309.63h78.84v-224.05c0.03-6.41-0.86-12.79-2.65-18.95-1.79-6.16-4.47-12.02-7.94-17.41-3.47-5.39-7.7-10.25-12.56-14.43-4.87-4.17-10.31-7.63-16.16-10.25-5.89 2.61-11.38 6.06-16.27 10.24-4.9 4.19-9.17 9.06-12.66 14.48-3.49 5.41-6.18 11.3-7.97 17.49-1.8 6.19-2.68 12.6-2.63 19.05z"/>
		</clipPath>
		<linearGradient id="g2" x2="1" gradientUnits="userSpaceOnUse" gradientTransform="matrix(-126.49,0,0,-332.211,857.859,455.418)">
			<stop offset="0" stop-color="#02602d"/>
			<stop offset=".11" stop-color="#017736"/>
			<stop offset=".23" stop-color="#00883c"/>
			<stop offset=".37" stop-color="#009240"/>
			<stop offset=".53" stop-color="#009541"/>
			<stop offset=".66" stop-color="#008c3e"/>
			<stop offset=".87" stop-color="#017334"/>
			<stop offset="1" stop-color="#02602d"/>
		</linearGradient>
	</defs>
	<style>
		.s0 { fill: #d9d9d8 } 
		.s1 { fill: url(#g1) } 
		.s2 { fill: url(#g2) } 
		.s3 { fill: #1d1e1c } 
		.s4 { fill: #1d1d1b } 
	</style>
	<path id="Layer" fill-rule="evenodd" class="s0" d="m636.5 325.3c0-19.5 3-39 9-57.6 6-18.6 14.9-36.2 26.3-52 11.5-15.8 25.4-29.8 41.2-41.3 15.9-11.5 33.4-20.4 52-26.4 18.6 6 36.1 15 51.9 26.5 15.8 11.5 29.7 25.4 41.1 41.2 11.5 15.9 20.4 33.4 26.3 52 6 18.6 9 38.1 8.9 57.6v332.4h-256.8v-331.4zm48.7 0v283.4h160.4v-283.7c0-13.1-1.9-26.1-5.6-38.7-3.7-12.5-9.2-24.5-16.3-35.5-7.1-11-15.8-20.9-25.7-29.4-9.9-8.5-21.1-15.5-33-20.9-11.9 5.4-23 12.5-32.9 21-9.9 8.6-18.5 18.5-25.6 29.6-7 11-12.5 22.9-16.1 35.5-3.6 12.6-5.4 25.6-5.3 38.7z"/>
	<g id="Clip-Path" clip-path="url(#cp1)">
		<g id="Layer">
			<path id="Layer" class="s1" d="m229.1 147.2l680.2-333.3 391.5 799.3-680.2 333.2z"/>
		</g>
	</g>
	<g id="Clip-Path" clip-path="url(#cp2)">
		<g id="Layer">
			<path id="Layer" class="s2" d="m701.7 258h126.6v332.5h-126.6z"/>
		</g>
	</g>
	<path id="Layer" class="s3" d="m12.2 1038.1c0-19 0-22.5 0-26.5 0-4-1.5-6.4-4.3-7.1q-0.6 0-1.1-0.1-0.6 0-1.2 0-0.6 0-1.1 0-0.6 0.1-1.2 0.1c-1.3 0-2 0-2-1.2 0-1.2 1-0.9 3-0.9h16.6 15.7c1.6 0 2.6 0 2.6 0.9 0 1-0.8 1.2-2 1.2q-0.5 0-1 0-0.4 0-0.9 0-0.5 0-1 0-0.5 0-1 0c-3.5 0-4.4 2.8-4.7 7.2-0.2 4.5 0 7.5 0 26.5v21.7c0 12.2 0 21.7 0.6 27.4 0 3.5 1.3 5.8 5.1 6.2q0.8 0 1.6 0.1 0.8 0 1.6 0 0.9 0 1.7 0 0.8-0.1 1.6-0.1c1.4 0 2.1 0 2.1 1 0 0.9-1.1 1.2-2.4 1.2-8.5 0-16.5 0-20 0h-16.1c-1.7 0-2.6 0-2.6-1.2 0-1.2 0.6-1 2.1-1q0.5 0.1 1.1 0.1 0.6 0 1.2 0 0.5 0 1.1 0 0.6 0 1.1-0.1c2.6 0 3.4-2.6 3.8-6.2 0.7-5.3 0.7-15.2 0.7-27.4"/>
	<path id="Layer" class="s3" d="m87.9 1079.5c0 9.8 1.9 13 4.5 13.9q0.8 0.2 1.6 0.4 0.8 0.2 1.7 0.3 0.8 0.1 1.6 0.1 0.9 0.1 1.7 0c1.4 0 2.3 0 2.3 1 0 1-1.2 1.3-3.1 1.3-8.2 0-13.3 0-15.8 0-2.5 0-7.1 0-13.8 0-1.6 0-2.8 0-2.8-1.3 0-1.3 0.8-1 2.2-1q0.7 0.1 1.4 0 0.7 0 1.4-0.1 0.7-0.1 1.4-0.2 0.7-0.1 1.4-0.3c3.4-1 3.9-4.7 4-15.5l1.1-74.2c0-2.5 0-4.2 1.7-4.2 1.8 0 2.5 1.6 4.7 3.9 2.2 2.2 21 21.7 39.6 40.1 8.7 8.5 26 26.5 28.2 28.6h0.6l-1.3-56.2c0-7.7-1.3-10-4.3-10.9q-0.9-0.2-1.7-0.4-0.9-0.2-1.7-0.3-0.9-0.1-1.7-0.1-0.9 0-1.8 0c-1.4 0-1.9 0-1.9-1.1 0-1 1.4-1 3.2-1 6.7 0 12.8 0 15.6 0 2.7 0 6.3 0 12.5 0 1.6 0 2.9 0 2.9 1 0 1.1-0.8 1.1-2.3 1.1q-0.5 0-0.9-0.1-0.5 0-1 0-0.5 0-0.9 0-0.5 0.1-1 0.1c-3.6 1-4.7 3.6-4.8 10.9l-1.4 79.1c0 2.7 0 3.9-1.6 3.9-1.6 0-2.9-1.4-4.4-2.9-8.1-7.5-24.4-23.9-37.6-36.8-13.3-12.9-28.2-29.2-30.4-31.6"/>
	<path id="Layer" class="s3" d="m205.5 1095c-2-1-2.4-1.5-2.4-4.3 0-6.9 0.6-14.4 0.7-16.3 0.1-2 0-3.3 1.5-3.3 1.5 0 1.3 1.1 1.3 2.1q0.1 0.8 0.1 1.6 0.1 0.8 0.3 1.6 0.1 0.8 0.3 1.6 0.2 0.8 0.4 1.6c0.6 1.9 1.5 3.7 2.7 5.4 1.1 1.6 2.6 3 4.3 4.1 1.6 1.2 3.5 2 5.4 2.5 1.9 0.6 4 0.7 6 0.6 2 0.2 4.1 0 6.1-0.6 2-0.6 3.8-1.6 5.4-2.9 1.6-1.3 2.9-3 3.9-4.8 0.9-1.9 1.5-3.9 1.6-5.9 0-6.2-1.8-12-12.5-20.1l-5.8-4.5c-14.2-10.9-18.9-19.5-18.9-29.7 0-13.8 11.7-23.6 29.5-23.6q2.1 0 4.3 0.1 2.1 0.1 4.2 0.4 2.2 0.2 4.3 0.6 2.1 0.4 4.1 0.9c1.2 0 1.9 0 1.9 1.6 0 1.5-0.6 5.3-0.6 15 0 2.8 0 3.8-1.4 3.8-1.4 0-1.3-0.8-1.3-2.3q-0.1-1.1-0.3-2.2-0.3-1.1-0.7-2.2-0.4-1-1-2-0.5-1-1.2-1.9-1.3-1.5-2.9-2.8-1.5-1.2-3.4-2-1.8-0.8-3.8-1.2-1.9-0.3-3.9-0.2c-9.5 0-15.2 5.5-15.2 13 0 7.5 2.9 10.2 13.5 18l3.6 2.7c15.4 10.9 21 20 21 31.9q0 3.3-0.8 6.5-0.8 3.1-2.4 6-1.6 2.8-3.8 5.2-2.3 2.4-5.1 4.1-2.3 1.3-4.7 2.3-2.5 1-5.1 1.7-2.5 0.7-5.2 1-2.6 0.3-5.3 0.2-2.4 0.1-4.8-0.1-2.3-0.2-4.7-0.6-2.4-0.4-4.6-1-2.3-0.7-4.6-1.6z"/>
	<path id="Layer" class="s3" d="m292.3 1038.1c0-19 0-22.5 0-26.5 0-4-1.3-6.3-5.5-7.2q-0.7 0-1.3-0.1-0.6 0-1.2 0-0.7 0-1.3 0-0.6 0.1-1.2 0.1c-1.4 0-2.2 0-2.2-1.1 0-1 0.9-1 2.8-1 6.8 0 14.9 0 18.7 0h15.7c1.9 0 2.9 0 2.9 1 0 1.1-0.9 1.1-2.1 1.1q-0.5 0-0.9 0-0.5 0-0.9 0-0.5 0-1 0-0.4 0-0.9 0c-3.5 0-4.4 2.7-4.8 7.2-0.3 4.5 0 7.5 0 26.5v17.6c0 18.1 3.7 25.7 9.9 30.7q1.7 1.4 3.6 2.4 1.9 1 4 1.7 2 0.6 4.2 0.9 2.1 0.3 4.3 0.2 2.4 0.1 4.8-0.3 2.4-0.5 4.7-1.4 2.2-0.8 4.3-2.1 2-1.3 3.8-3c7-6.8 7.4-18.1 7.4-31.1v-15.6c0-19 0-22.5 0-26.5 0-4-1.3-6.3-5.6-7.2q-0.5 0-1.1 0-0.6-0.1-1.2-0.1-0.5 0-1.1 0.1-0.6 0-1.1 0c-1.4 0-2.2 0-2.2-1.1 0-1 0.9-1 2.7-1 6.5 0 14.6 0 14.7 0 0.1 0 9.5 0 14.5 0 1.8 0 2.7 0 2.7 1 0 1.1-0.7 1.1-2.2 1.1q-0.5 0-1 0-0.4 0-0.9 0-0.5 0-0.9 0-0.5 0-0.9 0c-3.5 0-4.6 2.7-4.8 7.2-0.2 4.5 0 7.5 0 26.5v13.5q0.6 5.1 0.1 10.2-0.4 5.1-2 10-1.6 4.8-4.2 9.3-2.6 4.4-6.1 8.2-2.7 2.3-5.9 4-3.1 1.8-6.5 2.9-3.5 1.2-7 1.7-3.6 0.5-7.2 0.4-3.8 0.2-7.5-0.2-3.8-0.5-7.5-1.6-3.6-1.1-7-2.8-3.3-1.8-6.3-4.1-3.2-3.2-5.5-7-2.4-3.8-3.9-8-1.4-4.3-2-8.7-0.5-4.5 0-8.9"/>
	<path id="Layer" fill-rule="evenodd" class="s3" d="m417.5 1038.1c0-19 0-22.5 0-26.5 0-4-1.3-6.3-5.5-7.2q-0.7 0-1.3-0.1-0.6 0-1.2 0-0.7 0-1.3 0-0.6 0.1-1.2 0.1c-1.4 0-2.2 0-2.2-1.1 0-1 1-1 2.8-1 6.8 0 14.9 0 17.5 0h18q3.1-0.2 6.2 0 3 0.2 6 0.9 3 0.7 5.9 1.8 2.8 1.1 5.5 2.6 2 1.5 3.6 3.4 1.6 1.9 2.7 4.1 1.2 2.3 1.8 4.7 0.6 2.4 0.6 4.9-0.2 4.3-1.5 8.4-1.3 4.1-3.5 7.7-2.2 3.7-5.2 6.7-3 3-6.6 5.3c10.8 14.1 20.2 25.2 27.6 32.5q1.4 1.7 3 3 1.6 1.4 3.4 2.5 1.9 1.1 3.8 1.8 2 0.8 4.1 1.2 0.4 0.1 0.9 0.1 0.5 0 0.9 0 0.5 0 0.9 0 0.5 0 1-0.1c0.9 0 1.5 0 1.5 1 0 1-1 1.2-2.5 1.2h-12.3q-1.7 0.2-3.5 0.1-1.7-0.1-3.5-0.4-1.7-0.2-3.4-0.8-1.7-0.5-3.3-1.2-2.6-1.8-5.1-3.9-2.4-2.1-4.6-4.4-2.3-2.3-4.2-4.9-2-2.5-3.7-5.3c-5.1-6.8-10.8-15.4-12.6-17.2q-0.2-0.3-0.4-0.4-0.3-0.2-0.6-0.3-0.3-0.1-0.6-0.2-0.3 0-0.6 0h-10.9c-0.6 0-1 0-1 1.1v1.7c0 11.6 0 21.7 0.7 26.9 0 3.5 1.1 6.4 5 6.8q0.8 0.1 1.5 0.1 0.8 0 1.6 0 0.8 0 1.6 0 0.8 0 1.6-0.1c0.9 0 1.4 0 1.4 1 0 0.9-0.9 1.2-2.5 1.2-7.4 0-16.8 0-18.8 0h-15.6c-1.7 0-2.5 0-2.5-1.2 0-1.2 0.5-1 2-1q0.6 0.1 1.2 0.1 0.5 0 1.1 0 0.6 0 1.2 0 0.5 0 1.1-0.1c2.6 0 3.1-3.3 3.7-6.8 0.6-5.4 0.6-15.3 0.6-26.8zm15.1 9.9c0 1.4 0 2 1.1 2.3q1.2 0.3 2.4 0.6 1.2 0.2 2.5 0.4 1.2 0.2 2.4 0.2 1.2 0.1 2.5 0.1 1.2 0.2 2.4 0.1 1.2-0.1 2.3-0.3 1.2-0.3 2.3-0.8 1.1-0.5 2.1-1.2 2-1.7 3.6-3.8 1.5-2.2 2.5-4.6 1-2.5 1.3-5.1 0.4-2.6 0.1-5.3c0.4-2.8 0.2-5.6-0.6-8.4-0.8-2.7-2.2-5.2-4-7.4-1.9-2.2-4.2-3.9-6.7-5.1-2.6-1.2-5.4-1.9-8.2-2q-0.9-0.1-1.8-0.1-0.8 0-1.7 0-0.8 0-1.7 0-0.8 0-1.7 0.1c-0.9 0-1.1 0.8-1.1 1.8z"/>
	<path id="Layer" fill-rule="evenodd" class="s3" d="m529.9 1063.8c0 0-0.9 0-1.1 1l-6.9 17.9q-0.4 0.9-0.7 1.9-0.3 0.9-0.6 1.9-0.2 0.9-0.3 1.9-0.2 1-0.3 1.9c0 2.3 1.1 3.9 5.1 3.9h1.9c1.5 0 1.9 0 1.9 1 0 1-0.7 1.2-2.1 1.2-1.5 0-22.1 0-28.7 0-1.6 0-2.4 0-2.4-1.2 0-1.2 0-1 1.5-1h4c5.9-0.7 8.3-5.1 10.9-10.8l32.6-78.8c1.5-3.5 2.2-4.9 3.6-4.9 1.3 0 1.9 1.1 3.1 4 3.1 6.9 23.6 58 31.7 77.1 4.9 10.8 8.6 12.9 10.9 13.6q0.6 0 1.3 0.1 0.7 0 1.3 0 0.7 0 1.4 0 0.6-0.1 1.3-0.1c1.1 0 1.7 0 1.7 0.9 0 1-1.2 1.2-5.9 1.2-4.8 0-13.9 0-24.2 0-2.2 0-3.8 0-3.8-1 0-0.9 0-0.9 1.8-1q0.4-0.2 0.7-0.5 0.3-0.3 0.5-0.7 0.2-0.5 0.2-0.9 0-0.5-0.2-0.9l-10.3-26.7q-0.1-0.2-0.2-0.4-0.2-0.1-0.3-0.2-0.2-0.2-0.4-0.2-0.2-0.1-0.4-0.1zm26-6.3c0.7 0 0.8 0 0.7-0.7l-11.5-31v-1.1c0 0-0.7 0.7-0.8 1.1l-11.8 30.9v0.8z"/>
	<path id="Layer" class="s3" d="m632.3 1079.5c0 9.8 1.8 13 4.5 13.9q0.8 0.2 1.6 0.4 0.8 0.2 1.6 0.3 0.9 0.1 1.7 0.1 0.8 0.1 1.7 0c1.4 0 2.1 0 2.1 1 0 1-1 1.3-2.9 1.3-8.2 0-13.3 0-15.8 0-2.5 0-7.2 0-13.8 0-1.7 0-2.9 0-2.9-1.3 0-1.3 0.8-1 2.1-1q0.7 0.1 1.5 0 0.7 0 1.4-0.1 0.7-0.1 1.4-0.2 0.8-0.1 1.5-0.3c3.2-1 3.8-4.7 3.9-15.5l1.2-74.2c0-2.5 0-4.2 1.6-4.2 1.6 0 2.6 1.6 4.8 3.9 2.1 2.2 20.9 21.7 39.6 40.1 8.7 8.5 26 26.5 28 28.6h0.7l-1.3-56.2c0-7.7-1.2-10-4.3-10.9q-0.8-0.2-1.6-0.4-0.9-0.2-1.7-0.3-0.9-0.1-1.8-0.1-0.8 0-1.7 0c-1.5 0-2.1 0-2.1-1.1 0-1 1.5-1 3.4-1 6.6 0 12.8 0 15.4 0 2.6 0 6.3 0 12.6 0 1.7 0 3 0 3 1 0 1.1-0.8 1.1-2.3 1.1q-0.5 0-1-0.1-0.5 0-1 0-0.5 0-1 0-0.5 0.1-0.9 0.1c-3.6 1-4.6 3.6-4.7 10.9l-1.4 79.1c0 2.7-0.6 3.9-1.6 3.9-1.1 0-3.1-1.4-4.5-2.9-8-7.5-24.3-23.9-37.7-36.8-13.3-12.9-28.1-29.2-30.4-31.6"/>
	<path id="Layer" class="s3" d="m757.6 1084.6c-4.9-4.5-8.8-10-11.6-16.1-2.7-6.1-4.1-12.7-4.2-19.3-0.1-6.7 1.1-13.3 3.7-19.5 2.6-6.1 6.3-11.7 11.1-16.4q4.2-3.6 9.1-6.3 4.8-2.8 10.1-4.6 5.2-1.7 10.7-2.4 5.5-0.7 11.1-0.3 2.3-0.1 4.6 0 2.4 0.1 4.7 0.3 2.3 0.1 4.6 0.4 2.3 0.2 4.6 0.6c4.9 0.6 9 1.7 12.9 2.1 1.4 0 1.8 0.8 1.8 1.4 0 0.7 0 2.6-0.5 7-0.6 4.3 0 10.8 0 13.5 0 2.6 0 2.9-1.6 2.9-1.5 0-1.3-1-1.3-2.7q0-1.6-0.4-3.2-0.3-1.6-1-3.1-0.6-1.5-1.5-2.8-0.9-1.4-2.1-2.5-2.7-2.1-5.8-3.7-3.1-1.6-6.4-2.5-3.4-1-6.8-1.4-3.5-0.4-6.9-0.2-3.2-0.2-6.4 0.2-3.3 0.4-6.3 1.4-3.1 1-6 2.6-2.8 1.5-5.3 3.6-3.1 3.2-5.5 6.9-2.4 3.8-3.9 8.1-1.5 4.2-2.1 8.6-0.6 4.5-0.2 8.9c-0.3 5.6 0.5 11.2 2.3 16.4 1.9 5.3 4.8 10.1 8.5 14.3 3.7 4.1 8.3 7.5 13.3 9.9 5 2.4 10.5 3.8 16 4.1q3.2 0.5 6.4 0.2 3.1-0.2 6.2-1.1 3-0.9 5.8-2.5 2.8-1.5 5.1-3.7 0.8-0.9 1.4-1.9 0.7-0.9 1.2-2 0.6-1 1-2.1 0.4-1.1 0.7-2.2c0-2.1 0.7-2.5 1.7-2.5 0.9 0 1.2 0.8 1.2 1.8q-0.2 2.1-0.5 4.2-0.3 2.1-0.6 4.2-0.4 2.1-0.8 4.2-0.5 2.1-1 4.1-0.1 0.7-0.4 1.3-0.3 0.5-0.7 1-0.5 0.5-1 0.8-0.6 0.4-1.2 0.5-2.8 0.8-5.7 1.4-2.8 0.6-5.7 1-2.9 0.4-5.8 0.5-2.9 0.1-5.8 0-5.9 0.3-11.7-0.4-5.7-0.7-11.3-2.5-5.6-1.7-10.7-4.4-5.2-2.8-9.8-6.3"/>
	<path id="Layer" class="s3" d="m868.7 1038.1c0-19 0-22.5 0-26.5 0-4-1.3-6.3-5.5-7.2q-0.7 0-1.3-0.1-0.6 0-1.2 0-0.7 0-1.3 0-0.6 0.1-1.2 0.1c-1.4 0-2.2 0-2.2-1.1 0-1 1-1 2.8-1h10.9 8 31.9q0.7-0.1 1.4-0.2 0.7-0.1 1.4-0.1 0.6-0.1 1.3-0.3 0.7-0.1 1.4-0.2 0.2-0.1 0.5-0.2 0.2 0 0.5-0.1 0.3-0.1 0.5-0.1 0.3-0.1 0.5-0.1c0.7 0 0.8 0.5 0.8 1.1 0 0.7 0 2.4-1 8.2 0 1.2 0 6.7-0.6 8.2-0.7 1.6 0 1.5-1.3 1.5-1.3 0-1.1-0.7-1.1-1.9q0-0.6-0.1-1.1 0-0.6-0.1-1.1-0.1-0.6-0.3-1.1-0.1-0.6-0.3-1.1c-0.8-2.3-2.2-3.7-8.6-4.6-2.1 0-15.6 0-18.1 0-0.6 0-1 0-1 1.3v31.6c0 0.9 0 1.4 1 1.4 2.8 0 17.5 0 20.4 0q4.4 0 6.2-1.9c1.2-1.3 1.3-1.6 2-1.6 0.6 0 0.9 0 0.9 0.9 0 0.9 0 2.8-1 9.2 0 2.5 0 7.5 0 8.4 0 0.9 0 2.4-1.1 2.4q-0.3 0-0.5-0.1-0.2 0-0.4-0.2-0.2-0.2-0.3-0.4 0-0.3 0-0.5 0-0.6 0-1.1 0-0.6 0-1.1 0-0.6 0-1.1 0-0.6 0-1.2c-0.7-2.4-2.5-4.3-7.3-4.8-2.4 0-15 0-18 0-0.7 0-0.9 0-0.9 1.2v9.8c0 4.3 0 15.9 0 19.5 0 8.6 2.3 10.8 15.4 10.8q1.5 0.1 3.1 0.1 1.5-0.1 3-0.3 1.5-0.2 3-0.5 1.4-0.3 2.9-0.8c3.3-1.5 4.9-4.1 5.7-9.2 0-1.4 0-2 1.4-2 1.4 0 1.1 1.1 1.1 2.3q-0.1 1.8-0.2 3.5-0.2 1.8-0.4 3.5-0.2 1.7-0.5 3.5-0.3 1.7-0.6 3.4c-0.9 3.3-2 3.3-6.9 3.3-9.6 0-16.6 0-21.7 0h-13.2-7.3-8.8c-1.7 0-2.6 0-2.6-1.2 0-1.2 0-1 2.1-1q0.5 0.1 1.1 0.1 0.6 0.1 1.1 0.1 0.6 0 1.2-0.1 0.6 0 1.1-0.1c2.6 0 3.2-3.3 3.7-6.8 0.7-5.4 0.7-15.2 0.7-26.8"/>
	<path id="Layer" class="s3" d="m1075 1041.6c0 0 0.8 0 0.8-0.9v-2.6c0-19 0-22.6 0-26.6 0-4-1.3-6.2-5.5-7.1q-0.7 0-1.3 0-0.6-0.1-1.2-0.1-0.6 0-1.2 0.1-0.6 0-1.2 0c-1.6 0-2.3 0-2.3-1.2 0-1.2 1-1.1 2.7-1.1 6.9 0 15 0 18.5 0h16c1.8 0 2.7 0 2.7 1.1 0 1.1-0.8 1.2-2.3 1.2h-3.7c-3.4 0.7-4.5 2.7-4.7 7.1-0.2 4.3 0 7.6 0 26.6v21.7c0 11.5 0 21.7 0.6 26.8 0 3.5 1.2 6.3 5 6.8q0.9 0 1.7 0 0.8 0.1 1.6 0.1 0.8 0 1.6-0.1 0.8 0 1.7 0c1.4 0 2 0 2 1 0 0.9-1 1.3-2.5 1.3-8.3 0-16.4 0-20 0-3.5 0-10.8 0-15.9 0-1.9 0-2.7 0-2.7-1.3 0-1.3 0-1 2-1q0.6 0 1.2 0.1 0.5 0 1.1 0 0.6 0 1.1 0 0.6-0.1 1.2-0.1c2.6 0 3.2-3.3 3.7-6.9 0.6-5.3 0.6-15.2 0.6-26.7v-10.8q0.1-0.2 0-0.4 0-0.1-0.1-0.2-0.2-0.1-0.3-0.2-0.2 0-0.3 0h-48.8c0 0-0.7 0-0.7 0.8v10.8c0 11.5 0 21.7 0.6 26.8 0 3.5 1.1 6.3 5 6.8q0.8 0 1.6 0 0.8 0.1 1.6 0.1 0.8 0 1.6-0.1 0.8 0 1.6 0c1.4 0 2.1 0 2.1 1 0 0.9-1 1.3-2.5 1.3-8.4 0-16.4 0-20 0-3.6 0-10.9 0-16.1 0-1.6 0-2.6 0-2.6-1.3 0-1.3 0-1 2.1-1q0.6 0 1.1 0.1 0.6 0 1.2 0 0.6 0 1.2 0 0.6-0.1 1.1-0.1c2.5 0 3.2-3.3 3.7-6.9 0.7-5.3 0.7-15.2 0.7-26.7v-21.7c0-19 0-22.6 0-26.6 0-4-1.2-6.2-5.4-7.1q-0.7 0-1.3 0-0.6-0.1-1.2-0.1-0.7 0-1.3 0.1-0.6 0-1.2 0c-1.4 0-2.2 0-2.2-1.2 0-1.2 0.9-1.1 2.6-1.1 7 0 15 0 18.5 0h16c1.9 0 2.7 0 2.7 1.1 0 1.1-0.7 1.2-2.2 1.2h-3.7c-3.5 0.7-4.6 2.7-4.8 7.1-0.2 4.3 0 7.6 0 26.6v2.6c0 0.7 0 0.9 0.8 0.9"/>
	<path id="Layer" fill-rule="evenodd" class="s3" d="m1129 1049.2c-0.1-6.8 1.3-13.5 3.9-19.8 2.7-6.2 6.6-11.8 11.6-16.5 5-4.6 10.9-8.1 17.3-10.3 6.4-2.2 13.2-3.1 20-2.5 31.8 0 51.6 18.1 51.6 46.8 0.1 6.9-1.1 13.8-3.7 20.2-2.6 6.5-6.5 12.3-11.5 17.1-5 4.8-10.9 8.6-17.4 11-6.5 2.4-13.4 3.5-20.3 3.1-6.7 0.4-13.4-0.5-19.7-2.8-6.3-2.3-12-5.8-16.9-10.4-4.8-4.7-8.6-10.2-11.2-16.4-2.6-6.2-3.8-12.8-3.7-19.5zm86.9 2.3c0-28.1-16.5-45.4-37.5-45.4-14.8 0-31.5 8-31.5 39.2 0 26 14.8 46.7 39.3 46.7 8.9 0 29.7-4.3 29.7-40.5z"/>
	<path id="Layer" class="s3" d="m1267 1038.1c0-19 0-22.5 0-26.5 0-4-1.3-6.3-5.5-7.2q-0.6 0-1.2-0.1-0.7 0-1.3 0-0.6 0-1.2 0-0.6 0.1-1.2 0.1c-1.5 0-2.2 0-2.2-1.1 0-1 0.9-1 2.7-1 6.9 0 14.9 0 18.7 0h15.8c1.9 0 2.8 0 2.8 1 0 1.1-0.8 1.1-2.1 1.1q-0.4 0-0.9 0-0.5 0-0.9 0-0.5 0-0.9 0-0.5 0-1 0c-3.4 0-4.4 2.7-4.7 7.2-0.4 4.5 0 7.5 0 26.5v17.6c0 18.1 3.6 25.7 9.9 30.7q1.7 1.4 3.6 2.4 1.9 1 3.9 1.7 2.1 0.6 4.2 0.9 2.2 0.3 4.3 0.2 2.4 0.1 4.8-0.3 2.4-0.5 4.7-1.3 2.2-0.9 4.3-2.2 2-1.3 3.8-3c7.1-6.8 7.4-18.1 7.4-31.1v-15.6c0-19 0-22.5 0-26.5 0-4-1.3-6.3-5.4-7.2q-0.6 0-1.2 0-0.6-0.1-1.2-0.1-0.6 0-1.2 0.1-0.5 0-1.1 0c-1.4 0-2.2 0-2.2-1.1 0-1 0.9-1 2.7-1 6.5 0 14.6 0 14.7 0 0.1 0 9.5 0 14.5 0 1.9 0 2.7 0 2.7 1 0 1.1-0.7 1.1-2.2 1.1q-0.5 0-1 0-0.4 0-0.9 0-0.4 0-0.9 0-0.5 0-0.9 0c-3.5 0-4.6 2.7-4.8 7.2-0.2 4.5 0 7.5 0 26.5v13.5q0.6 5.1 0.2 10.2-0.5 5.1-2.1 10-1.6 4.8-4.2 9.3-2.6 4.4-6.1 8.2-2.7 2.3-5.9 4-3.1 1.8-6.5 3-3.4 1.1-7 1.6-3.6 0.5-7.2 0.4-3.8 0.2-7.5-0.2-3.8-0.5-7.4-1.6-3.7-1.1-7-2.8-3.4-1.8-6.4-4.1-3.1-3.2-5.5-7-2.4-3.8-3.9-8-1.4-4.3-2-8.7-0.5-4.5 0-8.9"/>
	<path id="Layer" class="s3" d="m1385.2 1095c-2.1-1-2.4-1.5-2.4-4.3 0-6.9 0.5-14.4 0.6-16.3 0.1-2 0.6-3.3 1.5-3.3 1 0 1.4 1.1 1.4 2.1q0 0.8 0.1 1.6 0.1 0.8 0.2 1.6 0.1 0.8 0.3 1.6 0.2 0.8 0.4 1.6c0.6 1.9 1.5 3.7 2.7 5.3 1.2 1.7 2.6 3.1 4.3 4.2 1.7 1.1 3.5 2 5.4 2.5 2 0.5 4 0.7 6 0.6 2.1 0.2 4.1 0 6.1-0.6 2-0.5 3.9-1.5 5.5-2.9 1.6-1.3 2.9-2.9 3.8-4.8 1-1.8 1.5-3.9 1.6-5.9 0-6.2-1.8-12-12.4-20.1l-5.9-4.5c-14.1-10.9-18.9-19.5-18.9-29.7 0-13.8 11.7-23.6 29.5-23.6q2.2 0 4.3 0.1 2.1 0.1 4.3 0.4 2.1 0.2 4.2 0.6 2.1 0.4 4.2 0.9c1.2 0 1.8 0 1.8 1.6 0 1.5-0.5 5.3-0.5 15 0 2.8 0 3.8-1.4 3.8-1.5 0-1.3-0.8-1.3-2.3q-0.1-1.1-0.4-2.2-0.3-1.1-0.7-2.2-0.4-1-0.9-2-0.6-1-1.3-1.9-1.2-1.5-2.8-2.8-1.6-1.2-3.4-2-1.9-0.8-3.8-1.2-2-0.3-4-0.2c-9.5 0-15.2 5.5-15.2 13 0 7.5 2.9 10.2 13.6 18l3.5 2.7c15.5 10.9 21 20 21 31.9q0 3.3-0.8 6.5-0.8 3.1-2.3 6-1.6 2.8-3.9 5.2-2.3 2.4-5 4.1-2.3 1.3-4.8 2.3-2.5 1-5 1.7-2.6 0.7-5.3 1-2.6 0.2-5.3 0.2-2.3 0.1-4.7-0.1-2.4-0.2-4.8-0.6-2.3-0.4-4.6-1-2.3-0.7-4.5-1.6z"/>
	<path id="Layer" class="s3" d="m1477.5 1038.1c0-19 0-22.5 0-26.5 0-4-1.2-6.3-5.5-7.2q-0.6 0-1.2 0-0.6-0.1-1.3-0.1-0.6 0-1.2 0.1-0.6 0-1.3 0c-1.4 0-2.1 0-2.1-1.1 0-1 0.8-1 2.8-1h10.3 8 32.1q0.7-0.1 1.3-0.2 0.7-0.1 1.4-0.1 0.7-0.1 1.4-0.3 0.6-0.1 1.3-0.2 0.3-0.1 0.5-0.2 0.3 0 0.5-0.1 0.3-0.1 0.6-0.1 0.2-0.1 0.5-0.1c0.6 0 0.7 0.5 0.7 1.1q-0.1 1.1-0.3 2.1-0.2 1-0.3 2-0.1 1-0.2 2-0.1 1.1-0.1 2.1c0 1.2 0 6.7-0.7 8.2-0.6 1.6 0 1.5-1.3 1.5-1.3 0-1.2-0.7-1.2-1.9q0-0.6 0-1.1-0.1-0.6-0.2-1.1-0.1-0.6-0.2-1.2-0.2-0.5-0.4-1c-0.8-2.3-2.1-3.7-8.5-4.6-2.1 0-15.6 0-18.1 0-0.6 0-0.9 0-0.9 1.3v31.6c0 0.9 0 1.4 0.9 1.4 2.8 0 17.4 0 20.4 0 2.9 0 5.1-0.6 6.1-1.9 1.1-1.3 1.5-1.6 2.1-1.6 0.7 0 0.9 0 0.9 0.9 0 0.9 0 2.8-1 9.2 0 2.5-0.5 7.5-0.5 8.4 0 0.9 0 2.4-1.1 2.4-1.1 0-1.2 0-1.2-1.2q0-0.6 0-1.1 0.1-0.6 0.1-1.1 0-0.6-0.1-1.1 0-0.6 0-1.2c-0.7-2.4-2.4-4.3-7.2-4.8-2.4 0-15.1 0-18.1 0-0.7 0-0.8 0-0.8 1.2v9.8c0 4.3 0 15.9 0 19.5 0 8.6 2.3 10.8 15.3 10.8q1.5 0.1 3.1 0.1 1.5-0.1 3-0.3 1.5-0.1 3-0.5 1.5-0.3 3-0.8c3.3-1.5 4.8-4.1 5.7-9.2 0-1.4 0.6-2 1.3-2 0.8 0 1.1 1.1 1.1 2.3q-0.1 1.8-0.2 3.5-0.2 1.8-0.4 3.5-0.2 1.7-0.4 3.5-0.3 1.7-0.6 3.4c-0.9 3.3-2.1 3.3-7 3.3-9.5 0-16.5 0-21.7 0h-13.3-7.3-8.8c-1.6 0-2.6 0-2.6-1.2 0-1.2 0-1 2.2-1q0.5 0.1 1.1 0.1 0.5 0.1 1.1 0.1 0.5 0 1.1-0.1 0.6 0 1.1-0.1c2.7 0 3.3-3.3 3.8-6.8 0.7-5.4 0.7-15.2 0.7-26.8"/>
	<path id="Layer" class="s3" d="m988.7 826.9q-0.8 0.4-1.6 0.7-0.9 0.3-1.8 0.5-0.8 0.3-1.7 0.3-0.9 0.1-1.9 0.1h-3.5c-4.9 0-6.1-5-6.1-8.3 0-3.2 1.4-6.9 6.1-6.9q0.8 0 1.7 0.2 0.8 0.2 1.5 0.7 0.7 0.5 1.3 1.1 0.5 0.7 0.9 1.5v0.7q-0.1 0.4-0.3 0.7-0.2 0.3-0.3 0.7-0.2 0.3-0.4 0.6-0.2 0.3-0.4 0.6h7.9c-2.4-5-3.9-9.3-10.8-9.3-1.4-0.2-2.9 0-4.2 0.4-1.3 0.5-2.6 1.2-3.6 2.1-1 1-1.8 2.2-2.4 3.5-0.5 1.3-0.8 2.7-0.7 4.1q-0.1 1.1 0.1 2.1 0.1 1.1 0.5 2.1 0.5 1 1.1 1.8 0.6 0.9 1.4 1.6-0.9 0-1.8-0.1-1-0.1-1.9-0.3-0.9-0.2-1.8-0.5-0.9-0.3-1.7-0.7v4.2h25.3"/>
	<path id="Layer" class="s3" d="m1064.5 858.5c1.5 0.1 3.1-0.1 4.6-0.6 1.4-0.4 2.8-1.2 4-2.2 1.2-1 2.1-2.3 2.8-3.6 0.7-1.4 1.1-2.9 1.2-4.5-0.1-1.5-0.6-3-1.3-4.4-0.7-1.4-1.6-2.6-2.8-3.6-1.1-1-2.5-1.8-4-2.3-1.4-0.5-3-0.7-4.5-0.6-1.5 0-3.1 0.2-4.5 0.7-1.5 0.5-2.8 1.3-3.9 2.3-1.2 1-2.2 2.2-2.9 3.5-0.7 1.4-1.1 2.9-1.3 4.4 0.1 1.5 0.5 3 1.2 4.4 0.7 1.4 1.7 2.6 2.9 3.6 1.1 1 2.5 1.8 4 2.3 1.4 0.5 3 0.7 4.5 0.6z"/>
	<path id="Layer" class="s3" d="m1093.5 858.5c1.5 0.1 3.1-0.1 4.6-0.6 1.4-0.4 2.8-1.2 4-2.2 1.1-1 2.1-2.3 2.8-3.6 0.7-1.4 1.1-2.9 1.2-4.5-0.1-1.5-0.6-3-1.3-4.4-0.7-1.4-1.6-2.6-2.8-3.6-1.2-1-2.5-1.8-4-2.3-1.4-0.5-3-0.7-4.5-0.6-1.5 0-3.1 0.2-4.5 0.7-1.5 0.5-2.8 1.3-4 2.3-1.1 1-2.1 2.2-2.8 3.5-0.7 1.4-1.1 2.9-1.3 4.4 0.1 1.5 0.5 3 1.2 4.4 0.7 1.4 1.7 2.6 2.9 3.6 1.1 1 2.5 1.8 3.9 2.3 1.5 0.5 3.1 0.7 4.6 0.6z"/>
	<path id="Layer" class="s3" d="m15.7 903.9c1.6 0.1 3.1-0.1 4.6-0.6 1.5-0.4 2.8-1.2 4-2.2 1.2-1 2.1-2.3 2.8-3.7 0.7-1.3 1.1-2.9 1.2-4.4-0.1-1.5-0.6-3-1.3-4.4-0.7-1.4-1.6-2.6-2.8-3.6-1.1-1-2.5-1.8-4-2.2-1.4-0.5-2.9-0.7-4.5-0.7-1.5 0-3.1 0.2-4.5 0.7-1.5 0.5-2.8 1.2-4 2.2-1.2 1-2.1 2.3-2.9 3.6-0.7 1.4-1.1 2.9-1.3 4.4 0.1 1.5 0.6 3.1 1.3 4.4 0.7 1.4 1.6 2.6 2.8 3.7 1.2 1 2.6 1.7 4 2.2 1.5 0.5 3.1 0.7 4.6 0.6z"/>
	<path id="Layer" class="s3" d="m455.4 941.5c-1.5 0-3.1 0.2-4.5 0.7-1.4 0.5-2.8 1.3-3.9 2.3-1.2 1-2.2 2.2-2.9 3.6-0.7 1.3-1.1 2.8-1.3 4.3 0.1 1.5 0.6 3 1.3 4.4 0.7 1.4 1.6 2.6 2.8 3.6 1.1 1 2.5 1.8 4 2.3 1.4 0.5 3 0.7 4.5 0.6 1.6 0.1 3.1 0 4.6-0.5 1.5-0.5 2.8-1.3 4-2.3 1.2-1 2.2-2.2 2.8-3.6 0.7-1.4 1.1-2.9 1.2-4.5-0.1-1.5-0.5-3-1.2-4.4-0.7-1.4-1.7-2.6-2.9-3.6-1.1-1-2.5-1.8-4-2.3-1.4-0.5-3-0.7-4.5-0.6z"/>
	<path id="Layer" class="s3" d="m484.4 941.5c-1.5 0-3.1 0.2-4.5 0.7-1.4 0.5-2.8 1.3-3.9 2.3-1.2 1-2.2 2.2-2.9 3.6-0.7 1.3-1.1 2.8-1.3 4.3 0.1 1.5 0.5 3 1.2 4.4 0.7 1.4 1.7 2.6 2.9 3.6 1.1 1 2.5 1.8 4 2.3 1.4 0.5 3 0.7 4.5 0.6 1.5 0.1 3.1 0 4.6-0.5 1.5-0.5 2.8-1.3 4-2.3 1.2-1 2.2-2.2 2.8-3.6 0.7-1.4 1.1-2.9 1.2-4.5-0.1-1.5-0.6-3-1.2-4.4-0.7-1.4-1.7-2.6-2.9-3.6-1.1-1-2.5-1.8-4-2.3-1.4-0.5-3-0.7-4.5-0.6z"/>
	<path id="Layer" class="s3" d="m1314.7 879.4q0.4 1.3 0.7 2.7 0.3 1.3 0.5 2.7 0.1 1.4 0.2 2.7 0.1 1.4 0 2.8v40.8q0.1 2.4-0.2 4.7-0.3 2.4-0.9 4.6-0.7 2.3-1.8 4.4-1 2.1-2.4 4-1.3 1.6-2.8 2.9-1.6 1.2-3.4 2-1.9 0.9-3.8 1.3-2 0.4-4 0.3h-51.3l-21 14.1h73.1q3.2 0.1 6.4-0.4 3.2-0.6 6.2-1.7 3-1.1 5.7-2.8 2.7-1.7 5.1-3.8 2.1-1.9 3.7-4.1 1.6-2.3 2.8-4.8 1.1-2.5 1.7-5.2 0.7-2.7 0.7-5.5v-50.8q-0.1-1.4 0-2.8 0.1-1.3 0.2-2.7 0.2-1.4 0.5-2.7 0.3-1.4 0.7-2.7 0.4-1.1 0.9-2.2 0.4-1.1 1-2.2 0.5-1 1.1-2.1 0.7-1 1.3-1.9h-25q0.6 0.9 1.2 2 0.6 1 1.1 2.1 0.5 1 1 2.1 0.4 1.1 0.8 2.2z"/>
	<path id="Layer" class="s3" d="m1374.7 837.8h-27.4q1.6 1.9 2.8 4.1 1.1 2.2 1.9 4.5 0.8 2.4 1.1 4.9 0.3 2.4 0.1 4.9v62.4q0.2 2.5-0.1 5-0.3 2.4-1.1 4.8-0.8 2.3-2 4.5-1.2 2.2-2.7 4.1h27.4q-1.6-2-2.9-4.3-1.2-2.2-2-4.7-0.9-2.4-1.2-5-0.3-2.5-0.2-5.1v-61q-0.1-2.5 0.2-5.1 0.3-2.6 1.2-5 0.8-2.5 2-4.7 1.3-2.3 2.9-4.3z"/>
	<path id="Layer" class="s3" d="m1529.1 906.7c0-31.9-35-29.4-35-29.4h-102l17.1 9.5h89.7c12.2 1.2 10.8 19.1 10.8 19.1 0 20.6-14 21.2-14 21.2h-86.9l-16.1 8.6h102.3c35.5 0 33.7-29 33.7-29"/>
	<path id="Layer" class="s3" d="m1176.3 845.3q0.4-1.1 0.9-2.2 0.4-1.1 0.9-2.1 0.5-1.1 1.1-2.1 0.6-1.1 1.3-2h-24.6q0.7 0.9 1.3 1.9 0.7 1.1 1.2 2.1 0.6 1.1 1 2.2 0.5 1.1 0.9 2.2 0.3 1.3 0.6 2.7 0.3 1.3 0.4 2.7 0.2 1.4 0.3 2.7 0 1.4 0 2.8v71.8h-76v-37.9q-0.1-1.4 0-2.8 0.1-1.4 0.2-2.7 0.2-1.4 0.5-2.7 0.3-1.4 0.7-2.7 0.4-1.1 0.8-2.2 0.5-1.1 1-2.2 0.6-1.1 1.2-2.1 0.6-1 1.3-2h-25.1q0.7 1 1.3 2.1 0.5 1 1.1 2 0.5 1.1 0.9 2.2 0.5 1.1 0.9 2.2 0.3 1.3 0.6 2.7 0.3 1.3 0.5 2.7 0.2 1.3 0.2 2.7 0.1 1.4 0.1 2.8v37.9h-83.4v-71.8q-0.1-1.4 0-2.8 0-1.3 0.2-2.7 0.2-1.4 0.5-2.7 0.3-1.4 0.7-2.7 0.4-1.1 0.8-2.2 0.5-1.1 1-2.2 0.6-1 1.2-2.1 0.6-1 1.3-1.9h-26q0.6 0.9 1.2 2 0.6 1 1.1 2.1 0.5 1 1 2.1 0.4 1.1 0.8 2.2 0.4 1.3 0.7 2.7 0.3 1.3 0.5 2.7 0.1 1.4 0.2 2.7 0.1 1.4 0 2.8v61.1q0.1 1.4 0 2.8-0.1 1.4-0.3 2.7-0.1 1.4-0.4 2.7-0.3 1.4-0.7 2.7-0.4 1.1-0.9 2.2-0.4 1.1-0.9 2.1-0.5 1.1-1.1 2.1-0.6 1.1-1.2 2.1h212.4q-0.7-1-1.2-2.1-0.6-1-1.1-2.1-0.6-1-1-2.1-0.5-1.1-0.9-2.2-0.4-1.3-0.6-2.7-0.3-1.3-0.5-2.7-0.2-1.3-0.3-2.7 0-1.4 0-2.8v-61.1q0-1.4 0-2.8 0.1-1.3 0.3-2.7 0.2-1.4 0.4-2.7 0.3-1.4 0.7-2.7z"/>
	<path id="Layer" class="s3" d="m1215.9 836.7h-25.1q1.5 2 2.6 4.2 1.1 2.2 1.8 4.6 0.7 2.3 1 4.8 0.3 2.4 0.1 4.9v62.5q0.2 2.4-0.1 4.8-0.3 2.4-1 4.8-0.7 2.3-1.8 4.5-1.1 2.2-2.6 4.1h25.1q-1.5-2-2.7-4.3-1.1-2.3-1.8-4.7-0.8-2.4-1-5-0.3-2.5-0.2-5v-60.9q-0.1-2.6 0.2-5.1 0.3-2.6 1-5 0.7-2.5 1.8-4.8 1.2-2.3 2.7-4.4z"/>
	<path id="Layer" fill-rule="evenodd" class="s3" d="m896.8 871.2q-0.1 0-0.3 0-0.1 0-0.1 0m0.1 0c4.4-0.3 8.9 0.2 13.1 1.7 4.2 1.4 8.1 3.7 11.4 6.7 3.4 2.9 6.1 6.6 8 10.6 1.9 4 2.9 8.4 3.1 12.9v13q0.1 1.6 0.1 3.1 0.1 1.5 0.1 3 0 1.5-0.1 3.1 0 1.5-0.1 3-0.2 1.1-0.5 2.1-0.2 1.1-0.6 2.1-0.3 1.1-0.7 2.1-0.3 1.1-0.8 2.1c-1.5 2.8-3.4 5.4-5.7 7.7-2.2 2.3-4.8 4.3-7.6 6-2.7 1.6-5.7 2.9-8.8 3.7-3.2 0.8-6.4 1.3-9.6 1.2h-34.3v-19.1h-796v4.5q-0.1 2.8-0.7 5.5-0.7 2.7-1.9 5.2-1.1 2.5-2.8 4.8-1.7 2.2-3.8 4-2.3 2.2-5 3.8-2.7 1.7-5.7 2.8-2.9 1.1-6.1 1.7-3.1 0.5-6.2 0.4h-2.1q-3.2 0.1-6.3-0.4-3.1-0.6-6.1-1.7-2.9-1.1-5.6-2.8-2.7-1.6-5-3.8-2.1-1.8-3.8-4-1.7-2.3-2.9-4.8-1.2-2.5-1.8-5.2-0.7-2.7-0.8-5.5v-13.6h13.9v3.8q-0.1 2.4 0.2 4.7 0.2 2.3 0.9 4.6 0.6 2.3 1.7 4.4 1 2.1 2.4 4 1.2 1.6 2.9 2.9 1.6 1.2 3.4 2.1 1.9 0.8 3.9 1.2 2 0.4 4.1 0.3 2 0.1 4-0.3 1.9-0.4 3.8-1.3 1.8-0.8 3.4-2.1 1.5-1.2 2.8-2.8 1.4-1.9 2.6-4 1.1-2 1.8-4.3 0.7-2.2 1.1-4.6 0.3-2.3 0.3-4.7v-41q0-1.4 0-2.8-0.1-1.4-0.3-2.7-0.2-1.4-0.5-2.7-0.3-1.4-0.7-2.7-0.4-1.1-0.9-2.2-0.4-1.1-1-2.2-0.5-1-1.1-2-0.6-1.1-1.3-2.1h24.6q-0.7 1-1.3 2-0.6 1-1.2 2.1-0.5 1.1-1 2.2-0.4 1.1-0.8 2.2-0.4 1.3-0.7 2.7-0.3 1.3-0.5 2.7-0.1 1.3-0.2 2.7-0.1 1.4 0 2.8v37.8h412.6v-37.8q0.1-1.4 0-2.8-0.1-1.4-0.2-2.7-0.2-1.4-0.5-2.7-0.3-1.4-0.7-2.7-0.4-1.1-0.8-2.2-0.5-1.1-1-2.2-0.5-1-1.1-2.1-0.6-1-1.2-2h25q-0.7 1-1.3 2-0.7 1-1.2 2.1-0.6 1.1-1 2.2-0.5 1.1-0.9 2.2-0.4 1.3-0.7 2.7-0.3 1.3-0.4 2.7-0.2 1.3-0.3 2.7 0 1.4 0 2.8v37.8h370v-26.4q-0.1-3 0.4-5.8 0.5-2.9 1.6-5.6 1.1-2.7 2.7-5.2 1.7-2.4 3.8-4.4 2.5-2.3 5.4-4.1 2.9-1.7 6.1-2.9 3.2-1.2 6.6-1.8 3.2-0.5 6.4-0.4zm21.1 29.9c0.3-2.7 0-5.5-0.8-8.1-0.8-2.7-2.2-5.1-4.1-7.1-1.8-2.1-4.1-3.7-6.6-4.8-2.6-1.2-5.3-1.7-8.1-1.7-16.2 0-20.7 15.2-20.7 26.1v41.2h19.5c16.4 0 20.8-14.4 20.8-25.9z"/>
	<path id="Layer" class="s4" d="m586.6 1153.3c0-8.9 0-10.8 0-12.4 0-1.5 0-2.9-2.4-3.2h-2.1c-0.5 0-0.8 0-0.8-0.6 0-0.5 0 0 1.2 0h7.6 7.7q1.3-0.1 2.7 0 1.3 0.2 2.6 0.6 1.3 0.5 2.4 1.2 1.2 0.7 2.2 1.6 0.6 0.7 1.1 1.5 0.5 0.9 0.8 1.7 0.4 0.9 0.6 1.9 0.1 0.9 0.2 1.9c0.1 1.8-0.1 3.6-0.7 5.3-0.6 1.7-1.6 3.3-2.8 4.6-1.3 1.3-2.7 2.4-4.4 3.1-1.7 0.7-3.5 1.1-5.3 1.1h-1.1c0 0-0.6 0-0.6-0.6 0-0.5 0-0.6 1.5-0.6q1.6-0.4 3-1.3 1.4-0.9 2.4-2.2 0.9-1.3 1.4-2.9 0.4-1.6 0.3-3.3 0-1.2-0.1-2.4-0.2-1.2-0.6-2.3-0.4-1.1-1-2.2-0.6-1-1.4-1.9-0.5-0.5-1.1-0.9-0.6-0.4-1.3-0.7-0.7-0.3-1.4-0.5-0.8-0.1-1.5-0.2-0.2 0-0.5 0-0.3-0.1-0.5-0.1-0.3 0-0.5 0.1-0.3 0-0.6 0c-0.1 0.1 0 0 0 1.1v23.4c0 5.4 0 10 0 12.5 0 2.5 0 2.9 2.1 3.1q0.3 0.1 0.7 0.1 0.3 0 0.7 0 0.3 0 0.6 0 0.4 0 0.7-0.1c0.7 0 0.9 0 0.9 0 0 0 0 0-1 0h-15.3c-0.7 0-1.1 0-1.1 0 0 0 0 0 0.9 0q0.2 0.1 0.5 0.1 0.2 0 0.5 0 0.2 0 0.5 0 0.2 0 0.4-0.1c1.1 0 1.3-1.5 1.6-3.1 0.2-1.7 0-7.1 0-12.5z"/>
	<path id="Layer" class="s4" d="m609.2 1176.9q-0.1-0.7 0.1-1.3 0.2-0.7 0.7-1.2 0.4-0.5 1-0.8 0.6-0.3 1.3-0.3 0.7 0 1.3 0.2 0.6 0.3 1.1 0.8 0.5 0.4 0.7 1.1 0.2 0.6 0.2 1.3 0.1 0.7-0.1 1.4-0.2 0.7-0.7 1.2-0.5 0.5-1.1 0.9-0.7 0.3-1.4 0.3-0.7 0-1.3-0.3-0.6-0.3-1-0.8-0.5-0.5-0.7-1.2-0.2-0.6-0.1-1.3z"/>
	<path id="Layer" class="s4" d="m627.7 1153.3c0-8.9 0-10.8 0-12.4 0-1.5 0-2.9-2.2-3.2h-2.1c-0.7 0-0.9 0-0.9-0.6 0-0.5 0 0 1.1 0h7.6 6.6c0.8 0 1.2 0 1.2 0 0 0 0 0.6-0.9 0.6h-1.6c-1.5 0-1.8 1.2-1.9 3.2-0.1 2.1 0 3.5 0 12.4v10.9c0 2.5 0 5.3 0 8.2q0 1.4 0 2.8-0.1 1.4-0.2 2.7-0.2 1.4-0.5 2.7-0.2 1.4-0.6 2.7-0.7 1.7-1.6 3.2-0.9 1.6-2 3-1.2 1.4-2.5 2.5-1.4 1.2-2.9 2.2l-2.6 1.5h-1.1c0 0 0 0 1.2-1.1q0.3-0.2 0.6-0.5 0.4-0.2 0.7-0.5 0.3-0.3 0.6-0.6 0.3-0.3 0.6-0.6c4-4.5 4-10.8 4-21.7z"/>
	<path id="Layer" class="s4" d="m644.6 1176.9q-0.1-0.7 0.1-1.3 0.2-0.7 0.7-1.2 0.4-0.5 1-0.8 0.6-0.3 1.3-0.3 0.7 0 1.3 0.2 0.6 0.3 1.1 0.8 0.5 0.4 0.7 1.1 0.2 0.6 0.2 1.3 0.1 0.7-0.1 1.4-0.2 0.7-0.7 1.2-0.5 0.5-1.1 0.9-0.7 0.3-1.4 0.3-0.7 0-1.3-0.3-0.6-0.3-1-0.8-0.5-0.5-0.7-1.2-0.2-0.6-0.1-1.3z"/>
	<path id="Layer" class="s4" d="m660.2 1179.9c-0.9 0-1-0.7-1-1.9 0-3.3 0-6.8 0-7.7 0-1 0-1.6 0.7-1.6 0.6 0 0 0.6 0 1q0 0.4-0.1 0.8 0 0.4 0 0.7 0 0.4 0 0.8 0.1 0.4 0.1 0.8 0.3 1.3 1 2.4 0.7 1.1 1.7 1.9 1.1 0.8 2.3 1.2 1.3 0.4 2.6 0.3 1.4 0.1 2.7-0.3 1.3-0.5 2.3-1.4 1-1 1.6-2.2 0.5-1.3 0.6-2.7-0.1-1.4-0.4-2.8-0.4-1.3-1.1-2.6-0.6-1.2-1.6-2.2-1-1.1-2.2-1.8l-2.5-2.1q-1.7-1.2-3.1-2.7-1.4-1.5-2.4-3.3-1-1.8-1.6-3.8-0.6-2-0.7-4.1c0-1.6 0.3-3.1 1-4.5 0.6-1.4 1.5-2.7 2.7-3.7 1.1-1.1 2.5-1.8 4-2.3 1.5-0.4 3.1-0.6 4.6-0.4q0.9 0 1.8 0.1 0.9 0 1.8 0.1 0.8 0.2 1.7 0.4 0.9 0.2 1.8 0.4c0.5 0.2 0.7 0 0.7 0.7 0 0.6 0 2.5 0 7 0 1.3 0 1.8 0 1.8 0 0 0 0 0-1.1q0-0.6 0-1.1-0.1-0.6-0.2-1.1-0.2-0.6-0.4-1.1-0.2-0.5-0.5-1-0.4-0.7-1.1-1.2-0.6-0.6-1.4-1-0.7-0.4-1.6-0.5-0.8-0.2-1.6-0.2-1.3-0.1-2.5 0.3-1.2 0.4-2.1 1.3-0.9 0.9-1.4 2-0.5 1.2-0.4 2.5c0 2.7 1.3 4.8 5.6 8.5l1.5 1.2q1.9 1.1 3.5 2.8 1.6 1.6 2.7 3.5 1.2 2 1.8 4.1 0.6 2.2 0.7 4.4 0.1 1.5-0.3 3-0.3 1.4-0.9 2.7-0.7 1.4-1.6 2.5-1 1.2-2.2 2-0.9 0.7-1.9 1.1-1 0.5-2.1 0.8-1.1 0.3-2.2 0.4-1.1 0.2-2.2 0.1-1 0.1-2 0-1-0.1-2-0.3-1-0.2-1.9-0.5-1-0.3-1.9-0.7"/>
	<path id="Layer" class="s4" d="m689 1176.9q-0.1-0.7 0.2-1.3 0.2-0.7 0.7-1.2 0.4-0.5 1-0.8 0.7-0.3 1.3-0.3 0.7 0 1.3 0.3 0.6 0.2 1.1 0.7 0.4 0.5 0.7 1.1 0.2 0.6 0.2 1.3 0.1 0.7-0.2 1.4-0.2 0.7-0.7 1.2-0.4 0.5-1.1 0.9-0.6 0.3-1.4 0.3-0.6 0-1.3-0.3-0.6-0.3-1-0.8-0.5-0.5-0.7-1.2-0.2-0.6-0.1-1.3z"/>
	<path id="Layer" class="s4" d="m708.2 1175c-2-2.2-3.6-4.8-4.7-7.7-1.1-2.8-1.7-5.8-1.7-8.9 0-3 0.6-6 1.7-8.9 1.1-2.8 2.7-5.4 4.7-7.7q1.7-1.6 3.6-2.9 2-1.2 4.2-2 2.1-0.8 4.4-1.1 2.3-0.3 4.6-0.2 1 0 2-0.1 0.9 0 1.9 0 1 0 1.9 0 1 0.1 1.9 0.1c2 0 3.7 0.9 5.4 1 1.6 0.1 0.7 0 0.7 0.8 0 0.7 0 1 0 3.1 0 2.1 0 5.2 0 6.3 0 1.1 0 1.4-0.6 1.4-0.7 0 0 0 0-1.3q0-0.7-0.2-1.5-0.1-0.7-0.4-1.4-0.3-0.7-0.6-1.3-0.4-0.6-0.9-1.2-1.1-1-2.4-1.7-1.3-0.7-2.7-1.2-1.4-0.4-2.8-0.6-1.5-0.2-2.9-0.1-1.4-0.1-2.8 0.1-1.3 0.2-2.6 0.6-1.3 0.5-2.5 1.2-1.1 0.7-2.1 1.7-1.4 1.6-2.4 3.3-1 1.8-1.6 3.8-0.6 2-0.9 4-0.2 2 0 4.1c-0.3 2.5-0.1 5 0.6 7.3 0.7 2.4 1.9 4.6 3.5 6.6 1.5 1.9 3.4 3.5 5.6 4.7 2.2 1.2 4.5 2 7 2.2 4.7 0 7.6-0.6 9.7-3.3q0.3-0.4 0.6-0.9 0.3-0.4 0.5-0.9 0.3-0.5 0.4-1 0.2-0.5 0.3-1c0-1 0-1.2 0.7-1.2 0.6 0 0 0 0 0.9q-0.1 0.9-0.2 1.9-0.2 1-0.3 2-0.1 1-0.3 1.9-0.2 1-0.4 2c0 0.9 0 1.3-1.4 1.6q-1.2 0.4-2.4 0.7-1.2 0.3-2.4 0.4-1.2 0.2-2.4 0.3-1.2 0.1-2.4 0-2.5 0.2-4.9-0.2-2.5-0.3-4.8-1.1-2.4-0.9-4.5-2.1-2.1-1.3-3.9-3"/>
	<path id="Layer" class="s4" d="m825.4 1160.4q0.2-0.5 0.4-0.9 0.2-0.5 0.4-1 0.2-0.5 0.4-0.9 0.2-0.5 0.3-1v-1.1q-0.1-0.3-0.2-0.5-0.1-0.2-0.2-0.5-0.1-0.2-0.3-0.4-0.1-0.2-0.3-0.4-0.4-0.8-1-1.4-0.6-0.6-1.4-1-0.7-0.4-1.6-0.6-0.8-0.2-1.6-0.2-0.8 0-1.6 0.1-0.8 0.2-1.5 0.6-0.7 0.3-1.3 0.8-0.6 0.6-1.1 1.2-0.5 0.9-0.9 1.8-0.4 0.9-0.6 1.9-0.3 0.9-0.4 1.9-0.1 1 0 2-0.1 1.2 0 2.3 0.1 1.1 0.4 2.2 0.2 1.1 0.7 2.2 0.4 1 1 2 0.4 0.7 0.9 1.3 0.6 0.6 1.3 1 0.7 0.4 1.5 0.6 0.8 0.2 1.6 0.3h4.4q0.6 0 1.2-0.1 0.6 0 1.2-0.1 0.6 0 1.2-0.1 0.6-0.1 1.2-0.3 0.5-0.1 1-0.3 0.4-0.2 0.9-0.4 0.5-0.2 0.9-0.4 0.5-0.3 0.9-0.5v6.1h-20.4q-0.9-0.1-1.8 0-0.9 0.1-1.8 0.3-0.9 0.2-1.7 0.5-0.9 0.3-1.7 0.7-0.6 0.2-1 0.7-0.5 0.6-0.6 1.2-0.1 0.7 0.1 1.3 0.2 0.7 0.7 1.1 0.9 0.8 2 1.4 1 0.5 2.2 0.9 1.2 0.3 2.4 0.5 1.2 0.1 2.4-0.1 1 0.1 2 0 1 0 2-0.2 0.9-0.3 1.9-0.6 0.9-0.4 1.8-0.9 0.3-0.1 0.5-0.3 0.3-0.2 0.5-0.4 0.3-0.2 0.5-0.4 0.2-0.2 0.4-0.4h6.6q-0.3 0.7-0.7 1.3-0.3 0.7-0.7 1.3-0.4 0.7-0.8 1.2-0.5 0.6-1 1.2-1.2 1.2-2.5 2.1-1.4 0.9-3 1.5-1.5 0.6-3.2 0.8-1.6 0.3-3.2 0.1-1.8 0.2-3.5-0.1-1.8-0.2-3.4-0.8-1.7-0.7-3.1-1.6-1.5-1-2.7-2.2c-1-0.7-1.8-1.6-2.3-2.7-0.5-1.1-0.7-2.2-0.6-3.4 0.1-1.2 0.5-2.3 1.1-3.3 0.6-1 1.5-1.8 2.5-2.4q1-0.5 2.1-0.9 1-0.4 2.1-0.7 1.1-0.3 2.2-0.5 1.2-0.1 2.3-0.1-0.9-1.2-1.7-2.5-0.7-1.2-1.2-2.6-0.4-1.4-0.7-2.9-0.2-1.4-0.2-2.9-0.1-1.5 0.2-2.9 0.2-1.5 0.7-2.9 0.5-1.4 1.2-2.7 0.7-1.2 1.7-2.4 0.9-1 2-1.8 1.1-0.8 2.4-1.3 1.2-0.5 2.6-0.8 1.3-0.3 2.7-0.3 1.3 0 2.6 0.2 1.3 0.3 2.5 0.9 1.2 0.5 2.3 1.3 1.1 0.8 1.9 1.8 0.7 1.1 1.4 2.3 0.7 1.2 1.2 2.4 0.6 1.2 1.1 2.4 0.5 1.2 0.9 2.5z"/>
	<path id="Layer" class="s4" d="m842.8 1176.6c-0.8 0-1.5-0.3-2-0.8-0.5-0.5-0.8-1.2-0.8-1.9 0-0.8 0.3-1.5 0.8-2 0.5-0.5 1.2-0.8 2-0.8 0.7 0 1.4 0.3 1.9 0.8 0.5 0.5 0.8 1.2 0.8 2 0 0.7-0.3 1.4-0.8 1.9-0.5 0.5-1.2 0.8-1.9 0.8z"/>
	<path id="Layer" fill-rule="evenodd" class="s4" d="m879.5 1172.8q-1 0.9-2 1.6-1.1 0.8-2.3 1.3-1.2 0.6-2.4 0.9-1.3 0.3-2.6 0.4h-7.5v2c0.1 1.6-0.2 3.3-0.8 4.9-0.6 1.5-1.5 2.9-2.7 4.1-1.1 1.2-2.5 2.2-4.1 2.8-1.5 0.7-3.2 1-4.9 1v-6.3c5.7 0 7.3-6.3 7.3-10.9v-14.2q0-1.3 0.2-2.6 0.2-1.3 0.6-2.5 0.4-1.2 1-2.3 0.7-1.2 1.5-2.2 0.9-1 1.9-1.8 1.1-0.8 2.3-1.3 1.2-0.5 2.5-0.8 1.3-0.3 2.6-0.3c1.9 0 3.7 0.5 5.4 1.3 1.8 0.8 3.3 1.9 4.5 3.3 1.3 1.4 2.2 3.1 2.8 4.8 0.6 1.8 0.8 3.7 0.7 5.6q0.1 1.5-0.1 2.9-0.3 1.5-0.7 2.9-0.5 1.4-1.2 2.6-0.8 1.3-1.7 2.4m-9.6-21.9c-6.2 0-7.8 6.5-7.8 11.8v10.9h7.4c6.1 0 7.7-6.6 7.7-11.9 0-5.4-1.6-10.3-7.3-10.3z"/>
	<path id="Layer" class="s4" d="m890.6 1176.6c-0.7 0-1.4-0.3-1.9-0.8-0.5-0.5-0.8-1.2-0.8-1.9 0-0.8 0.3-1.5 0.8-2 0.5-0.5 1.2-0.8 1.9-0.8 0.8 0 1.5 0.3 2 0.8 0.5 0.5 0.8 1.2 0.8 2 0 0.7-0.3 1.4-0.8 1.9-0.5 0.5-1.2 0.8-2 0.8z"/>
	<path id="Layer" class="s4" d="m924.8 1176.6v2q0 1.3-0.2 2.5-0.2 1.2-0.6 2.3-0.5 1.1-1.1 2.2-0.6 1-1.4 1.9-0.8 1-1.8 1.7-1 0.8-2.1 1.3-1.1 0.5-2.4 0.7-1.2 0.3-2.4 0.2h-0.8q-1.2 0.1-2.4-0.2-1.2-0.2-2.4-0.7-1.1-0.5-2.1-1.3-1-0.7-1.8-1.7-0.8-0.9-1.4-1.9-0.6-1.1-1-2.2-0.5-1.2-0.7-2.4-0.2-1.1-0.2-2.4v-23.2q0-0.6 0-1.2-0.1-0.7-0.1-1.3-0.1-0.6-0.2-1.2-0.1-0.6-0.3-1.2-0.1-0.5-0.3-1-0.1-0.5-0.3-1-0.2-0.5-0.5-1-0.2-0.4-0.5-0.9h9.6q-0.3 0.5-0.5 0.9-0.3 0.5-0.5 1-0.2 0.5-0.4 1-0.1 0.5-0.3 1 0 0.6-0.1 1.2 0 0.6 0 1.2 0 0.7 0 1.3 0.1 0.6 0.1 1.2v18.6q0 1 0.1 2.1 0.1 1 0.3 2.1 0.3 1 0.7 2 0.4 1 0.9 1.9c0.5 1 1.3 1.8 2.3 2.4 0.9 0.5 2 0.8 3.1 0.8 1.1 0 2.2-0.3 3.2-0.8 0.9-0.6 1.7-1.4 2.2-2.4q0.6-0.9 1-1.9 0.4-1 0.7-2 0.2-1 0.4-2.1 0.1-1.1 0-2.1v-18.6q0.1-0.6 0.1-1.2 0.1-0.6 0.1-1.3 0-0.6-0.1-1.2 0-0.6-0.1-1.2-0.1-0.5-0.3-1-0.2-0.5-0.4-1-0.2-0.5-0.4-1-0.3-0.4-0.5-0.9h9.4q-0.2 0.5-0.5 0.9-0.2 0.5-0.4 1-0.2 0.5-0.4 1-0.2 0.5-0.3 1-0.1 0.6-0.1 1.2-0.1 0.6-0.1 1.2 0 0.7 0.1 1.3 0 0.6 0.1 1.2v17.3h3.6v3.9z"/>
	<path id="Layer" class="s4" d="m937.9 1142c-0.7 0-1.4-0.3-1.9-0.8-0.6-0.5-0.8-1.2-0.8-1.9 0-0.7 0.2-1.4 0.8-1.9 0.5-0.5 1.2-0.8 1.9-0.8 0.7 0 1.4 0.3 1.9 0.8 0.5 0.5 0.8 1.2 0.8 1.9 0 0.7-0.3 1.4-0.8 1.9-0.5 0.5-1.2 0.8-1.9 0.8zm-3.8-5.4c-0.7 0-1.4-0.3-1.9-0.8-0.6-0.5-0.8-1.2-0.8-1.9 0-0.7 0.2-1.4 0.8-1.9 0.5-0.5 1.2-0.8 1.9-0.8 0.7 0 1.4 0.3 1.9 0.8 0.5 0.5 0.8 1.2 0.8 1.9 0 0.7-0.3 1.4-0.8 1.9-0.5 0.5-1.2 0.8-1.9 0.8zm-3.9 5.4c-0.8 0-1.4-0.3-2-0.8-0.5-0.5-0.7-1.2-0.7-1.9 0-0.7 0.2-1.4 0.7-1.9 0.6-0.5 1.2-0.8 2-0.8 0.7 0 1.4 0.3 1.9 0.8 0.5 0.5 0.8 1.2 0.8 1.9 0 0.7-0.3 1.4-0.8 1.9-0.5 0.5-1.2 0.8-1.9 0.8zm-3.1 34.6v-3.9h4.3v-17.3q0-0.6 0.1-1.2 0-0.6 0-1.3 0-0.6 0-1.2-0.1-0.6-0.1-1.2-0.2-0.5-0.3-1-0.2-0.5-0.4-1-0.2-0.5-0.4-1-0.2-0.4-0.5-0.9h8.9q-0.2 0.5-0.5 0.9-0.2 0.5-0.4 1-0.3 0.5-0.4 1-0.2 0.5-0.4 1-0.1 0.6-0.1 1.2 0 0.6 0 1.2 0 0.7 0 1.3 0 0.6 0.1 1.2v17.3h5.1v-17.3q0.1-0.6 0.1-1.3 0.1-0.6 0.1-1.2 0-0.6-0.1-1.3 0-0.6-0.1-1.2-0.1-0.5-0.3-1-0.2-0.5-0.4-1-0.2-0.4-0.4-0.9-0.3-0.5-0.5-0.9h9.3q-0.2 0.4-0.4 0.9-0.3 0.5-0.4 1-0.2 0.4-0.4 0.9-0.2 0.5-0.3 1-0.1 0.6-0.1 1.2 0 0.7-0.1 1.3 0.1 0.6 0.1 1.2 0 0.7 0.1 1.3v12.4q-0.1 0.6-0.1 1.2 0 0.6 0 1.2 0 0.6 0 1.2 0 0.7 0.1 1.3 0.1 0.5 0.3 1 0.2 0.5 0.4 1 0.2 0.4 0.4 0.9 0.2 0.5 0.4 1z"/>
	<path id="Layer" class="s4" d="m758.7 1156.8h19.9v4.6h-19.9z"/>
</svg>