<svg xmlns="http://www.w3.org/2000/svg" viewBox="0 0 143 44" fill="none">
<path d="M23.8678 18.6304H20.9739V44.0001H23.8678V18.6304Z" fill="#CC0033" />
<path d="M28.9529 18.6304V44.0001H31.8468V23.2569L44.4697 43.9034V44.0001H47.3636V18.6304H44.4697V38.6831L32.2326 18.6304H28.9529Z" fill="#CC0033"/>
<path d="M59.6558 18.6577H56.7757H49.8303V21.5717H56.7757V43.9722H59.6558V21.5717H66.6012V18.6577H59.6558Z" fill="#CC0033"/>
<path d="M69.5776 18.7129V43.9998H71.0246H82.9998V41.1134H72.4715V32.9376H80.6158V30.0512H72.4715V21.6269H82.9585V18.7405H72.4715V18.7129H69.5776Z" fill="#CC0033"/>
<path d="M86.0728 18.6025V43.9723H99.743V41.0997L88.9667 41.0583V18.6025H86.0728Z" fill="#CC0033"/>
<path d="M15.6959 14.7218L13.367 13.106C13.367 13.106 13.05 13.9484 11.796 13.9484C10.6522 13.9484 9.86674 12.4292 10.7073 11.2968L9.02613 10.1367C8.32333 10.8411 7.92369 11.794 7.90991 12.7883C7.90991 14.9427 10.0597 16.2133 11.8098 16.2133C14.4419 16.1995 15.7097 14.708 15.7097 14.708" fill="#CC0033"/>
<path d="M18.0663 14.7218L20.3952 13.106C20.3952 13.106 20.7121 13.9484 21.9661 13.9484C23.1099 13.9484 23.9092 12.4292 23.0548 11.2968L24.736 10.1367C25.4388 10.8411 25.8385 11.794 25.8522 12.7883C25.8522 14.9427 23.7025 16.2133 21.9524 16.2133C19.3203 16.1995 18.0525 14.708 18.0525 14.708" fill="#CC0033"/>
<g class="main-logo-dynamic">
<path d="M20.5328 2.54102H13.3669L16.8672 5.46882L20.5328 2.54102Z" fill="#130F10"/>
<path d="M26.8995 5.73132C27.8228 4.84746 28.3464 3.63214 28.3602 2.34777C28.374 1.51915 28.1673 0.704331 27.7401 0L16.8811 9.65348L5.99451 0C5.56731 0.704331 5.36061 1.51915 5.37439 2.34777C5.37439 3.59071 5.8567 4.77841 6.75243 5.64846C6.75243 5.64846 0 11.8493 0 22.6491C0 39.7602 8.1856 43.9586 8.1856 43.9586C8.1856 43.9586 3.65183 36.349 4.94719 29.0847C5.37439 26.6679 6.4906 25.1073 7.89621 23.6296C9.75658 21.7238 12.1957 20.4947 14.8416 20.1494L16.8673 23.6987V16.9316C14.249 17.1111 11.6858 17.774 9.3156 18.9065C7.11073 19.9975 5.23658 21.6685 3.88609 23.7125C3.54158 20.4809 4.0239 17.2216 5.30548 14.2385C7.11073 9.95731 9.48097 7.8167 9.48097 7.8167L16.8673 13.2442L23.9642 7.83051C23.9642 7.83051 27.0924 9.63967 28.691 14.28C28.9666 15.0948 29.38 16.2134 29.38 16.2134C30.6616 10.8412 26.8995 5.74513 26.8995 5.74513" fill="#130F10"/>
<path d="M108.645 26.0878V33.5178H103.795L108.645 26.0878ZM108.411 18.6992L98.7648 33.5869L98.6545 33.7664V37.73H108.659V43.9999H112.876V37.7162H114.847V33.5178H112.876V18.6992H108.425H108.411Z" fill="#130F10"/>
<path d="M132.403 18.7409H115.632V23.0221H124.92C123.721 24.1684 122.646 25.4251 121.709 26.7785C119.89 29.4025 118.512 32.3165 117.658 35.3824C116.941 37.9373 116.555 40.5889 116.486 43.2405L116.459 44.0001H120.745V43.282C120.758 40.9894 121.089 38.6969 121.723 36.4873C122.467 33.9461 123.639 31.5431 125.196 29.4025C127.042 26.8061 129.385 24.5965 132.086 22.8978L132.43 22.6768V18.7271L132.403 18.7409Z" fill="#130F10"/>
<path d="M139.059 18.644L132.32 25.3007L135.255 28.2699L138.824 24.7344V44H143V18.644H139.059Z" fill="#130F10"/>
</g>
</svg>