<?xml version="1.0" ?>
<svg xmlns="http://www.w3.org/2000/svg" version="1.2" viewBox="0 0 1536 433">
	<title>integer-registered-logo-svg</title>
	<style>
		.s0 { fill: #00b5ef } 
		.s1 { fill: #007bb6 } 
		.s2 { fill: #003e6a } 
		.s3 { fill: #231f20 } 
	</style>
	<path id="Layer" class="s0" d="m333.7 131.9l41.2-23.8-187.4-108.1-187.5 108.1 41.3 23.8 146.2-84.3 146.2 84.3z"/>
	<path id="Layer" class="s0" d="m187.5 168.7l41.2 23.8-41.2 23.8-41.4-23.8 41.4-23.8z"/>
	<path id="Layer" class="s1" d="m333.7 131.9v168.7l-105 60.5v-168.6l-41.2 23.8v168.6 47.6l187.4-108.1v-216.3l-41.2 23.8z"/>
	<path id="Layer" class="s2" d="m41.3 131.9l-41.3-23.8v216.3l187.5 108.1v-47.6l-146.2-84.3v-168.7z"/>
	<path id="Layer" class="s3" d="m506.1 144h41.3v180.4h-41.3z"/>
	<path id="Layer" class="s3" d="m590.2 189.2q8.3-3.1 16.9-5.4 8.5-2.3 17.2-3.9 8.7-1.6 17.5-2.4 8.8-0.9 17.6-1c37.7 0 62 14 62 57.1v90.8h-39.3v-88.2c0-16.2-8.7-24.6-25.6-24.6q-3.5 0.1-6.9 0.3-3.5 0.3-6.9 0.8-3.4 0.6-6.8 1.3-3.4 0.8-6.7 1.9v108.7h-39z"/>
	<path id="Layer" class="s3" d="m759.9 179.8v-35.8h39v35.8h41.2v32.4h-41.2v58.1c0 16.5 7.8 21.7 19.5 21.7q3.5-0.1 7-0.6 3.5-0.5 6.9-1.6 3.4-1 6.6-2.5 3.2-1.5 6.1-3.4v35.6q-4.3 2.2-8.9 3.8-4.5 1.6-9.3 2.6-4.7 1-9.5 1.5-4.8 0.4-9.6 0.3c-25 0-47.8-12-47.8-47.1z"/>
	<path id="Layer" fill-rule="evenodd" class="s3" d="m907.1 262.8v0.6c3 20.5 23.1 30.9 42.6 30.9q6.4 0.1 12.7-0.7 6.3-0.7 12.4-2.4 6.2-1.6 12-4.1 5.8-2.5 11.3-5.8v33c-13.4 9.4-32.8 13.3-52.3 13.3-47.1 0-76.7-28.9-76.7-74 0-47.6 30.2-77.1 70.8-77.1 45.2 0 62.7 29.8 62.7 68.1v18.2zm59.1-23.4c-0.3-17.9-8.7-30.8-27.2-30.8-16.9 0-28.1 12-31.6 30.8z"/>
	<path id="Layer" fill-rule="evenodd" class="s3" d="m1128.8 318.3q-3.2 1.2-6.4 2.2-3.3 1-6.7 1.6-3.3 0.6-6.7 0.9-3.4 0.2-6.8 0.1c-43.9 0-74.4-25.3-74.4-72.7 0-46 30.9-73.9 81.5-73.9q7.5 0 15 0.6 7.5 0.7 14.9 2.1 7.4 1.4 14.6 3.5 7.3 2.1 14.3 4.8v134.6c0 49.7-40 64-72.7 64q-6.5 0-12.8-0.6-6.4-0.7-12.7-2-6.3-1.4-12.3-3.4-6.1-2-11.9-4.7v-36.4c17.5 10.1 31.8 14.3 49.7 14.3 18.8 0 33.4-10.1 33.4-32.1zm0-104.8q-2.4-0.7-4.8-1.3-2.4-0.5-4.8-0.9-2.5-0.3-4.9-0.5-2.5-0.2-5-0.2c-26 0-41.9 13.3-41.9 39.9 0 25 15.6 39.9 39.3 39.9q2.8-0.1 5.7-0.4 2.8-0.3 5.5-0.8 2.8-0.5 5.5-1.3 2.7-0.7 5.4-1.7z"/>
	<path id="Layer" fill-rule="evenodd" class="s3" d="m1236.3 262.8v0.6c2.9 20.5 23 30.9 42.5 30.9q6.4 0.1 12.7-0.7 6.3-0.7 12.4-2.4 6.2-1.6 12-4.1 5.9-2.5 11.3-5.8v33c-13.3 9.4-32.8 13.3-52.3 13.3-47.1 0-76.6-28.9-76.6-74 0-47.6 30.2-77.1 70.8-77.1 45.1 0 62.6 29.8 62.6 68.1v18.2zm59.1-23.4c-0.3-17.9-8.7-30.8-27.2-30.8-16.9 0-28.1 12-31.6 30.8z"/>
	<path id="Layer" class="s3" d="m1403.8 324.4h-38.9v-133.6q6.7-3.4 13.7-5.9 7.1-2.5 14.4-4.2 7.3-1.7 14.7-2.5 7.5-0.8 15-0.7 3.8-0.1 7.6 0.1 3.8 0.2 7.6 0.7 3.8 0.5 7.5 1.3 3.8 0.7 7.4 1.8v37.6q-3.4-1.3-7-2.3-3.6-0.9-7.3-1.6-3.7-0.6-7.4-0.8-3.7-0.3-7.5-0.2-2.5 0.1-5 0.3-2.5 0.2-5 0.6-2.5 0.4-4.9 1-2.5 0.6-4.9 1.4z"/>
	<path id="Layer" fill-rule="evenodd" class="s3" d="m1508.2 143.2c11-0.1 21.1 6.5 25.4 16.7 4.3 10.2 2 22-5.8 29.9-7.8 7.8-19.6 10.2-29.8 6-10.3-4.2-17-14.2-17-25.3-0.1-3.6 0.6-7.1 1.9-10.5 1.3-3.3 3.3-6.4 5.8-8.9 2.6-2.6 5.6-4.6 8.9-6 3.4-1.3 7-2 10.6-1.9zm0 51.4c9.7 0.2 18.7-5.5 22.5-14.5 3.9-9 2-19.4-4.8-26.4-6.9-7-17.2-9.1-26.3-5.4-9.1 3.7-15 12.5-15 22.2-0.1 3.2 0.4 6.3 1.5 9.3 1.1 2.9 2.8 5.6 5 7.9 2.2 2.2 4.9 4 7.8 5.2 3 1.2 6.1 1.7 9.3 1.7zm-4.7-8.7h-4.9v-31q1-0.2 2-0.3 0.9-0.2 1.9-0.2 1-0.1 2-0.2 1 0 2-0.1c8 0 12.7 3.6 12.7 10.6q0 1.4-0.4 2.8-0.5 1.5-1.3 2.7-0.8 1.2-2 2.1-1.2 0.9-2.5 1.4l9.4 12.2h-5.9l-8.5-11.1h-4.5zm0-15.3h3.5c4.5 0 7.1-1.9 7.1-6 0-4-2.4-5.9-7.5-5.9q-0.4 0-0.8 0-0.4-0.1-0.7-0.1-0.4 0-0.8 0.1-0.4 0-0.7 0z"/>
</svg>