<?xml version="1.0" ?>
<svg xmlns="http://www.w3.org/2000/svg" viewBox="0 0 189.849 47.482">
	<path d="M 0.0,47.0 L 10.457,47.0 L 10.457,14.236 C 10.457,14.236 6.319,10.334 0.0,8.78 L 0.0,47.0 M 131.76,47.0 L 142.217,47.0 L 142.217,8.78 C 135.899,10.334 131.76,14.236 131.76,14.236 L 131.76,47.0 M 28.75,8.161 C 20.043,8.468 13.943,14.236 13.943,14.236 L 13.943,47.0 L 24.4,47.0 L 24.4,21.258 C 24.807,19.608 27.162,18.5 28.946,18.113 C 32.766,17.283 36.948,19.566 36.948,23.617 L 36.948,47.0 L 47.405,47.0 L 47.405,23.109 C 47.405,12.087 37.47,7.853 28.75,8.161 L 28.75,8.161 M 184.31,25.791 C 183.302,15.715 174.888,8.116 164.738,8.116 C 153.891,8.116 145.066,16.947 145.066,27.802 C 145.066,38.655 153.891,47.483 164.738,47.483 C 169.857,47.483 174.693,45.498 178.417,41.882 L 179.76,47.0 L 189.848,47.0 L 184.31,25.791 L 184.31,25.791 M 164.737,37.212 C 159.552,37.212 155.339,32.996 155.339,27.816 C 155.339,22.633 159.553,18.418 164.737,18.418 C 169.919,18.418 174.134,22.634 174.134,27.816 C 174.136,32.996 169.919,37.212 164.737,37.212 M 88.325,8.206 C 77.52,8.206 68.731,16.995 68.731,27.8 C 68.731,38.603 77.521,47.392 88.325,47.392 C 96.433,47.392 103.591,42.515 106.56,34.966 L 106.72,34.558 L 95.425,34.558 L 95.337,34.648 A 9.726,9.726 0.0 0,1 88.325,37.603 C 84.44,37.603 80.884,35.255 79.338,31.716 L 107.523,31.716 L 107.57,31.474 A 19.95,19.95 0.0 0,0 107.919,27.798 C 107.918,16.995 99.129,8.206 88.325,8.206 L 88.325,8.206 M 79.486,23.553 A 9.793,9.793 0.0 0,1 88.325,17.995 A 9.788,9.788 0.0 0,1 97.163,23.553 L 79.486,23.553 M 125.649,8.161 C 116.94,8.468 110.841,14.236 110.841,14.236 L 110.841,47.0 L 121.299,47.0 L 121.299,20.76 C 122.525,18.878 126.639,18.067 128.269,17.999 L 128.269,8.208 A 24.963,24.963 0.0 0,0 125.649,8.161 L 125.649,8.161 M 61.346,8.627 L 61.346,0.0 L 50.889,0.0 L 50.889,41.392 C 50.889,41.392 56.989,47.16 65.696,47.466 C 66.561,47.496 67.438,47.481 68.316,47.419 L 68.316,37.628 C 66.686,37.562 62.57,36.749 61.346,34.866 L 61.346,19.116 L 68.316,19.116 L 68.316,8.659 L 61.346,8.659 L 61.346,8.627 L 61.346,8.627" fill="#090947"/>
</svg>