<?xml version="1.0" ?>
<svg xmlns="http://www.w3.org/2000/svg"  viewBox="0 0 48 48">
	<linearGradient id="a" gradientUnits="userSpaceOnUse" x1="11.660663" x2="10.415977" y1="56.928329" y2="32.880904">
		<stop offset="0" stop-color="#cdd0d1"/>
		<stop offset="1" stop-color="#f6f6f7"/>
	</linearGradient>
	<linearGradient id="b" gradientUnits="userSpaceOnUse" x1="14.428456" x2="5.505778" y1="47.467573" y2="39.642166">
		<stop offset="0" stop-color="#16a085"/>
		<stop offset="1" stop-color="#2dcb72"/>
	</linearGradient>
	<filter id="c" color-interpolation-filters="sRGB">
		<feColorMatrix values="0.21 0.72 0.072 0 0 0.21 0.72 0.072 0 0 0.21 0.72 0.072 0 0 0 0 0 1 0"/>
	</filter>
	<linearGradient id="d" gradientUnits="userSpaceOnUse" x1="-40.735768" x2="7.663052" y1="63.686093" y2="7.684554">
		<stop offset="0" stop-color="#9e5ba2"/>
		<stop offset=".35251617" stop-color="#f46951"/>
		<stop offset="1" stop-color="#fe4172"/>
	</linearGradient>
	<g transform="matrix(.69654364 -.00959983 .00959983 .69654364 29.521126 1.147661)">
		<rect fill="#5672d4" height="37.355316" ry="1.543778" transform="matrix(.99999416 -.00341659 .00341659 .99999416 0 0)" width="49.639671" x="-33.838921" y="8.571914"/>
		<rect fill="url(#d)" height="37.355072" ry="1.543778" transform="matrix(.98818625 -.15325775 .15325775 .98818625 0 0)" width="49.639862" x="-42.623764" y="13.684669"/>
		<circle cx="11.184063" cy="45.12323" fill="url(#a)" filter="url(#c)" r="12.348694" transform="matrix(.78017865 0 0 .78017865 2.581938 10.521665)"/>
		<path d="M 14.42846,47.27129 L 5.50578,47.46757 L 9.79713,39.64216 L 14.42846,47.27129" fill="url(#b)" filter="url(#c)" transform="matrix(-.0138427 .90747861 -.90747861 -.0138427 51.546127 37.320471)"/>
		<path d="M -19.91545,43.89642 C -19.90148,43.6483 -19.96163,43.21671 -20.04912,42.93734 L -20.20817,42.4294 L -25.27339,43.40186 L -30.33861,44.37432 L -30.26201,45.08271 C -30.1227,46.37079 -30.41622,46.35869 -24.91786,45.30307 L -19.94085,44.34755 L -19.91545,43.89642 M -18.92604,35.17244 C -18.05066,34.49054 -17.46134,33.24885 -17.43505,32.03093 C -17.40602,30.68583 -18.84923,23.27173 -19.18431,23.04458 C -19.48843,22.83843 -21.52356,23.19422 -21.86314,23.5129 C -22.05579,23.69369 -21.95724,24.45659 -21.28519,27.98872 C -20.49069,32.16422 -20.48141,32.25605 -20.80534,32.7346 C -21.26676,33.41626 -22.34837,33.57721 -23.29633,33.10527 C -23.68941,32.90957 -24.0875,32.76413 -24.18096,32.78208 C -24.44462,32.8327 -25.53946,34.6886 -25.48205,34.9876 C -25.39662,35.4326 -23.66674,36.16415 -22.52198,36.23939 C -21.52175,36.30513 -19.67773,35.75799 -18.92604,35.1724400000001 L -18.92604,35.17244 M -26.96975,36.57586 C -26.92864,35.84554 -27.29669,35.12137 -27.72333,35.09313 C -28.07429,35.0699 -28.12892,34.8787 -28.83416,31.20529 C -29.57004,27.37231 -29.57295,27.33987 -29.20314,27.08517 C -28.91378,26.88588 -28.8514,26.65107 -28.92429,26.03545 C -29.07065,24.79931 -29.23672,24.74942 -31.65793,25.21427 C -33.05977,25.4834 -33.82941,25.70688 -33.94581,25.87859 C -34.04229,26.02091 -34.05367,26.48914 -33.97113,26.9191 C -33.84738,27.56357 -33.74006,27.72049 -33.35987,27.81266 C -32.90446,27.92306 -32.88825,27.97073 -32.0651,31.61886 C -31.21874,35.36987 -31.19078,35.81598 -31.79483,35.93195 C -31.97629,35.96679 -31.99211,36.25025 -31.85301,36.97475 L -31.66201,37.96971 L -29.32991,37.52198 L -26.99781,37.07425 L -26.96976,36.57587 L -26.96975,36.57586" fill="#fff"/>
	</g>
</svg>