<?xml version="1.0" ?>
<svg xmlns="http://www.w3.org/2000/svg" viewBox="0 0 1472 300">
	<style>
		.s0 { fill: #010103 } 
	</style>
	<g id="Layer">
		<g id="Layer">
			<path id="Layer" class="s0" d="m1.4 51.6h26.5v121.4h-26.5zm0-51.1h26.5v22.3h-26.5z"/>
		</g>
		<g id="Layer">
			<path id="Layer" class="s0" d="m55.2 51.6h25v21.1h0.3c10-18.8 30.8-22.7 63.8-22.7h39.9c49.9 0 65.7 19.2 65.7 41.1v82.3h-26.5v-77.7c0-17.6-6.6-29.2-58.4-29.2h-6.9c-62.2 0-76.4 9.3-76.4 37.7v69.2h-26.5v-121.8z"/>
		</g>
		<g id="Layer">
			<path id="Layer" class="s0" d="m287.1 68.1h-34.5v-16.5h34.5v-28.9h26.5v28.9h105.6v16.5h-105.2v60.7c0 22.7 10.4 29.6 39.1 29.6h8.5c35.3 0 40.7-5.8 40.7-31.1v-9.3h21.5v13.5c0 24.2-3.1 43.4-60.7 43.4h-14.6c-49.9 0-61.4-18.4-61.4-38.4z"/>
		</g>
		<g id="Layer">
			<path id="Layer" fill-rule="evenodd" class="s0" d="m437.6 125.3v-26.1c0-44.2 39.9-49.2 77.6-49.2h42.6c47.6 0 82.2 9.2 82.2 52.7v13.4h-175.9v7.7c0 27.3 17.3 34.6 63.7 34.6h36.5c33.4 0 47.2-3.5 48.8-21.9h26.5v2.3c0 27.6-30 36.1-79.5 36.1h-48.4c-34.9 0-74.5-5-74.5-49.6zm175.9-26.1v-8.1c0-12.6-12.3-24.9-55.7-24.9h-39.2c-42.2 0-52.2 5.3-54.5 33z"/>
		</g>
		<g id="Layer">
			<path id="Layer" class="s0" d="m659.9 51.6h25v17.6h0.7c10-15.7 30-19.6 48.4-19.6h25c49.9 0 66.4 12.3 66.4 42.3v14.6h-24.9v-5.4c0-29.9-8.1-34.9-55.3-34.9h-16.5c-28.1 0-41.9 13.8-41.9 29.5v77.3h-26.5v-121.4z"/>
		</g>
		<g id="Layer">
			<path id="Layer" class="s0" d="m831.2 98.8c0-44.2 40.3-49.2 79.1-49.2h44.5c49.5 0 69.1 15.4 69.1 41.1v3.5h-24.9v-2.7c0-20.3-17.3-25-43.8-25h-48.8c-24.9 0-48.7 2.7-48.7 33.1v25.3c0 27.3 21.5 33.5 53.7 33.5h44.9c25 0 45.7-5.8 45.7-25.4v-4.2h25v3.4c0 30.8-20 42.7-69.5 42.7h-60.3c-23.8 0-66.4-5-66.4-49.2v-26.9z"/>
		</g>
		<g id="Layer">
			<path id="Layer" fill-rule="evenodd" class="s0" d="m1044.6 99.2c0-40 36.9-49.2 87.2-49.2h38c50.3 0 87.2 9.2 87.2 49.2v26.5c0 40-36.9 49.2-87.2 49.2h-38c-50.3 0-87.2-9.2-87.2-49.2zm185.9 1.2c0-28.5-21.5-33.8-52.6-33.8h-54.2c-31.1 0-52.6 5.3-52.6 33.8v24.2c0 28.4 21.5 33.8 52.6 33.8h54.2c31.1 0 52.6-5.4 52.6-33.8z"/>
		</g>
		<g id="Layer">
			<path id="Layer" class="s0" d="m1272.3 131.1h25v5.8c0 14.9 10.3 21.1 37.6 21.1h56.8c40 0 52.6-1.2 52.6-19.2v-0.8c0-11.5-4.2-18-36.4-18h-82.2c-37.6 0-51.5-9.3-51.5-32.3v-7.3c0-20 14.6-30.8 80.3-30.8h40.7c59.9 0 68.3 13.5 68.3 30.4v6.5h-24.9v-1.1c0-18.9-16.1-19.2-45.3-19.2h-45.7c-38 0-46.5 2.6-46.5 16.9v4.6c0 10 4.2 15.7 32.3 15.7h70.2c40 0 67.2 3.1 67.2 35.8v0.4c0 34.2-40.7 35.3-73.3 35.3h-49.2c-39.1 0-76 0-76-36.5v-7.3z"/>
		</g>
	</g>
	<g id="Layer">
		<path id="Layer" class="s0" d="m0.3 202.2h1471.7v15.4h-1471.7z"/>
	</g>
	<g id="Layer">
		<g id="Layer">
			<path id="Layer" class="s0" d="m353.5 278.7c0 13-4.6 18-18 18h-30c-14.6 0-19.2-5.7-19.2-18v-13.5c0-12.3 4.6-18.1 19.2-18.1h27.3c9.6 0 20 2.4 20 13.5v1.9h-6.9c0-9.2-3.1-9.6-20.8-9.6h-18.8c-6.9 0-12.7 1.9-12.7 10.4v18c0 8.5 5.8 10.4 12.7 10.4h28.4c7.3 0 11.5-2.3 11.5-8.8v-5h-27.2v-5.4h34.5z"/>
			<path id="Layer" fill-rule="evenodd" class="s0" d="m335.5 299h-30c-14.9 0-21.1-6.1-21.1-20.3v-13.5c0-14.2 6.5-20.4 21.1-20.4h27.3c14.6 0 21.9 5.4 21.9 15.4v3.9h-11.2v-2.4c0-6.5 0-7.6-18.8-7.6h-18.8c-7.3 0-10.3 2.3-10.3 8v18.1c0 5.8 3 8.1 10.3 8.1h28.4c7.7 0 9.6-2.7 9.6-7v-2.6h-27.2v-9.7h38.8v8.9c0.3 15.4-5.4 21.1-20 21.1zm-29.6-49.5c-12.3 0-16.9 4.2-16.9 16.1v13.4c0 12 4.3 16.2 16.9 16.2h30c12.3 0 15.7-3.9 15.7-15.8v-4.6h-30.3v1.2h27.2v6.9c0 7.3-4.6 11.1-13.8 11.1h-28.4c-3.4 0-14.6 0-14.6-12.7v-18c0-12.7 11.2-12.7 14.6-12.7h18.8c16.1 0 22.3 0.4 23.1 9.6h2.3c0-4.6-2.3-10.7-17.7-10.7z"/>
		</g>
		<g id="Layer">
			<path id="Layer" fill-rule="evenodd" class="s0" d="m541.3 247.5c15.3 0 17.6 4.6 17.6 13.9v3.8c0 6.9-4.2 8.8-9.9 9.2 7.3 1.2 9.2 4.6 9.2 9.3v12.2h-6.9v-10.3c0-7.7-4.3-8.5-10.8-8.5h-35.3v19.2h-7.3v-48.8zm-0.8 24.2c8.1 0 11.5-1.9 11.5-6.9v-4.6c0-5.4-2.6-7.3-13-7.3h-33v18.5h34.5z"/>
			<path id="Layer" fill-rule="evenodd" class="s0" d="m560.5 298.3h-11.2v-12.7c0-5.4-1.9-6.2-8.4-6.2h-33v19.2h-11.5v-53h44.9c16.9 0 19.9 5.8 19.9 15.8v3.8c0 5.4-2.3 8.1-4.9 9.6 2.6 1.9 4.2 5 4.2 8.9zm-59.9-4.3h2.7v-19.2h37.2c1.9 0 4.2 0 6.2 0.4v-2.3c-2 0.4-4.6 0.8-6.6 0.8h-36.8v-23.1h34.9c10 0 15.4 1.5 15.4 9.2v4.6c0 4.3-1.9 6.6-4.3 7.7 5.4-0.4 7.3-2.3 7.3-6.9v-3.8c0-7.3-0.7-11.6-15.7-11.6h-40.3zm53.4 0h2.3v-10.3c0-2.7-0.4-5.4-5.4-6.6 1.9 1.6 3.1 4.3 3.1 8.5zm-46.1-24.6h32.6c8.5 0 9.2-2.3 9.2-5v-4.6c0-3.1 0-5-11.1-5h-30.7z"/>
		</g>
		<g id="Layer">
			<path id="Layer" fill-rule="evenodd" class="s0" d="m702.9 265.2c0-12.3 4.6-18.1 19.2-18.1h30.7c14.6 0 19.2 5.8 19.2 18.1v13.5c0 12.3-4.6 18-19.2 18h-30.7c-14.6 0-19.2-5.7-19.2-18zm61.5-2.3c0-8.5-5.8-10.4-12.7-10.4h-29.2c-6.9 0-12.7 1.9-12.7 10.4v18c0 8.5 5.8 10.4 12.7 10.4h29.2c6.9 0 12.7-1.9 12.7-10.4z"/>
			<path id="Layer" fill-rule="evenodd" class="s0" d="m752.8 299h-30.7c-14.9 0-21.1-6.1-21.1-20.3v-13.5c0-14.2 6.5-20.4 21.1-20.4h30.7c15 0 21.2 6.2 21.2 20.4v13.5c0 14.2-6.6 20.3-21.2 20.3zm-30.7-49.5c-12.3 0-16.9 4.2-16.9 16.1v13.4c0 12 4.3 16.2 16.9 16.2h30.7c12.3 0 16.9-4.2 16.9-16.2v-13.4c0-11.9-4.2-16.1-16.9-16.1zm30 44.1h-29.2c-3.4 0-14.6 0-14.6-12.6v-18.1c0-12.7 11.2-12.7 14.6-12.7h29.2c3.4 0 14.6 0 14.6 12.7v18.1c0 12.6-11.2 12.6-14.6 12.6zm-29.2-38.8c-7.3 0-10.4 2.3-10.4 8.1v18.1c0 5.7 3.1 8 10.4 8h29.2c7.3 0 10.4-2.3 10.4-8v-18.1c0-5.8-3.1-8.1-10.4-8.1z"/>
		</g>
		<g id="Layer">
			<path id="Layer" class="s0" d="m917.2 247.5h7.3v36.2c0 4.6 1.9 7.3 11.5 7.3h24.9c10 0 11.6-2.7 11.6-7.3v-36.2h7.3v36.5c0 10-5.4 12.7-19.2 12.7h-24.6c-13.5 0-19.2-3.1-19.2-12.7v-36.5z"/>
			<path id="Layer" fill-rule="evenodd" class="s0" d="m960.6 299h-24.6c-12.7 0-21.1-2.7-21.1-15v-38.4h11.5v38.4c0 2.7 0 5.4 9.2 5.4h25c9.2 0 9.2-2.3 9.2-5.4v-38.4h11.5v38.4c0.8 12.3-7.7 15-20.7 15zm-41.1-49.2v34.2c0 7.3 2.7 10.4 16.9 10.4h24.5c14.2 0 16.9-3.4 16.9-10.4v-34.2h-2.7v34.2c0 7-3.8 9.6-13.8 9.6h-24.9c-9.6 0-13.9-2.6-13.9-9.6v-34.2z"/>
		</g>
		<g id="Layer">
			<path id="Layer" fill-rule="evenodd" class="s0" d="m1126.4 247.5h43.8c9.6 0 15.4 2 15.4 13.1 0 10.8-0.8 16.1-16.6 16.1h-35.3v19.2h-7.3zm52.2 12.7c0-5.7-3.4-7.3-9.6-7.3h-34.9v18.9h35.7c5.8 0 9.2-2 9.2-7v-4.6z"/>
			<path id="Layer" fill-rule="evenodd" class="s0" d="m1136 298.3h-11.5v-52.7h46.1c8.8 0 17.3 1.2 17.3 15.4 0 11.1-1.2 18.4-18.9 18.4h-33zm-7.3-4.2h2.7v-19.2h37.6c14.6 0 14.6-4.2 14.6-13.8 0-9.7-3.8-11.2-13-11.2h-41.9zm40.7-20h-37.6v-23h37.2c3.5 0 11.9 0 11.9 9.2v4.6c-0.3 4.2-2.3 9.2-11.5 9.2zm-33.4-4.6h33.4c6.6 0 6.9-2.3 6.9-4.6v-4.6c0-3.5-1.1-5-7.6-5h-32.7z"/>
		</g>
	</g>
</svg>