<?xml version="1.0" ?>
<svg xmlns="http://www.w3.org/2000/svg" viewBox="0 0 2210 360">
	<path d="M221 335.3h-66.8V111H221v32.7c12-22.6 38.4-37.5 64.9-37.5 50.4 0 82.1 31.2 82.1 95.1v134h-66.8V215.7c0-29.8-16.3-44.7-38.9-44.7S221 182.5 221 216.6v118.7ZM874.8 294.5c-22.6 33.6-64.4 45.6-102.3 45.6-64.4 0-117.2-47.1-117.2-117.7s52.8-116.3 117.2-116.3 114.8 47.6 114.8 118.2-.5 14.9-1 20.7H722c3.4 25.9 31.7 37.5 55.2 37.5s38-6.7 49-21.1l48.5 33.1Zm-54.7-91.3c-3.4-27.4-28.3-38.4-47.1-38.4s-44.2 10.1-50 38.4h97ZM991 243.1c-67.3-18.3-67.7-52.4-67.3-73 .5-33.2 40.4-63.9 87.4-63.9s91.8 19.7 92.2 74.5h-62.9c-.5-16.8-14.9-19.7-25.5-19.7s-24 6.7-23.5 16.8c.5 6.7 6.3 13.5 19.7 16.8l38 10.1c54.3 14.9 61 50.9 61 65.3 0 47.6-50 70.1-97 70.1s-93.2-27.4-93.7-77.3h62.5c.5 13 14.9 25.9 33.1 25.9 14.9-.5 27.4-7.2 27.4-18.7s-5.8-14.9-22.1-19.2l-29.3-7.7ZM1291.8 111v52.8h-47.1v171.5h-66.3V163.8h-40.8V111h40.8V25h66.3v86h47.1Z" fill="#003262"/>
	<path d="M1457.5 172.9c-18.7 0-51.4 6.7-69.2 34.6l-37-19.2 25.9-167.6h184.5v61.5h-131.2l-8.2 50.9c12.5-11.1 37-16.3 57.6-16.3 56.7 0 102.8 37.5 102.8 107.6s-50.4 115.8-129.7 115.8-87.4-25.9-111.5-63.4l56.7-36.5c12.5 19.2 35.1 32.7 54.8 32.7 36.5 0 62.4-23.1 62.4-48.5s-25.5-51.4-58.1-51.4ZM1629.9 335.3v-36.5l129.2-153.2c9.6-11 16.8-23.5 16.8-35.5s-14.4-31.2-39.4-31.2-40.8 18.7-44.7 43.7l-61.5-10.6c9.6-60 50.4-97.5 110-97.5s102.8 38.9 102.8 95.6-13.9 58.1-33.1 79.7l-72.5 82.1h97v63.4h-204.6ZM1893.6 115.8c0-60.5 45.6-101.4 114.3-101.4s107.1 42.8 112.9 109.5c7.7 97-9.1 220-127.3 216.2-37.5-1.4-74-13-97-61l62.9-26.9c8.6 18.2 22.1 25 36.5 25 46.1 0 59.1-48.5 57.6-90.8-3.8 11-16.3 35.5-63.4 35.5s-96.6-33.6-96.6-106.2Zm111 45.1c22.6 0 41.3-18.7 41.3-41.3s-18.7-41.3-41.3-41.3-41.3 18.7-41.3 41.3 18.7 41.3 41.3 41.3Z" fill="#82c341"/>
	<path d="m523.4 240.5-34.7 94.8h69.9L673.1 25h-72.5l-77.2 215.5Z" fill="#003262"/>
	<path d="M473.2 111h-70.5L489 335.3h69.2l-85-224.3z" fill="#82c341"/>
	<path d="M83.2 335.3H16.9V111h66.3v224.3ZM2155.3 15.6c16.6 0 29.8 13.5 29.8 30.1s-13.2 30-29.8 30-29.7-13.4-29.7-30 13.1-30.1 29.7-30.1Zm0 54.9c13.7 0 24.5-11.1 24.5-24.7S2169 21 2155.3 21s-24.5 11.1-24.5 24.8 10.8 24.7 24.5 24.7Zm4.6-20.4c4.6-1.2 6.5-5.3 6.5-9.4s-3.1-9.9-9.7-9.9h-11.6v30h5.9V50.4h2l7.5 10.4h7.1l-7.7-10.8Zm-3.2-13.5c2.5 0 3.9 2 3.9 4.1s-1.4 4-4.1 4h-5.6v-8.1h5.8Z" fill="#003262"/>
</svg>