<svg xmlns="http://www.w3.org/2000/svg" xml:space="preserve" style="enable-background:new 0 0 1000 1000" viewBox="0 0 1000 1000"><style>.st2{fill:#fff}.st4{fill:#0a0f46}</style><g id="Lager_4_kopia"><path d="M239.06 309.57c12.18 6.78 25.84 10.15 40.99 10.15 15.15 0 28.94-3.37 41.4-10.15 12.44-6.76 22.18-16.09 29.22-28 7.03-11.89 10.55-25.16 10.55-39.78 0-14.61-3.53-27.86-10.55-39.78-7.04-11.9-16.78-21.24-29.22-28-12.46-6.76-26.25-10.15-41.4-10.15-15.16 0-28.82 3.39-40.99 10.15-12.18 6.77-21.79 16.1-28.82 28-7.04 11.91-10.55 25.17-10.55 39.78 0 14.62 3.51 27.88 10.55 39.78 7.03 11.91 16.64 21.24 28.82 28zM204.56 354.63h151.8v436.73h-151.8zM549.82 649.05h151.8V506.01h142.46v-151.8H701.62V212.32h-151.8v141.89H407.35v151.8h142.47z" class="st4"/></g></svg>