<?xml version="1.0" ?>
<svg xmlns="http://www.w3.org/2000/svg" viewBox="0 0 186.18 46.26">
	<g id="Layer_1">
		<path d="m0,8.02h4.76v37.35H0V8.02Z" fill="#000" stroke-width="0"/>
		<path d="m12.72,8.02h5.06l18.82,30.28h.1V8.02h4.51v37.35h-5.21L17.32,15.4h-.1v29.97h-4.51V8.02Z" fill="#000" stroke-width="0"/>
		<path d="m62.99,45.37h-5.4l-12.62-37.35h5.16l10.21,32.38h.1l10.32-32.38h4.95l-12.72,37.35Z" fill="#000" stroke-width="0"/>
		<path d="m79.71,8.02h4.76v37.35h-4.76V8.02Z" fill="#000" stroke-width="0"/>
		<path d="m113.16,18.95c-.55-5.33-3.95-7.64-8.86-7.64-4.01,0-8.01,1.52-8.01,6.38,0,4.6,5.71,5.28,11.47,6.64,5.71,1.36,11.42,3.45,11.42,10.77,0,7.95-7.46,11.14-13.97,11.14-8.01,0-14.77-4.08-14.77-13.18h4.51c0,6.28,5.01,9,10.41,9,4.31,0,9.07-1.41,9.07-6.8s-5.71-6.02-11.42-7.32c-5.71-1.31-11.46-3.03-11.46-9.89,0-7.58,6.46-10.93,12.97-10.93,7.31,0,12.87,3.61,13.17,11.82h-4.51Z" fill="#000" stroke-width="0"/>
		<path d="m125.13,8.02h4.76v37.35h-4.76V8.02Z" fill="#000" stroke-width="0"/>
		<path d="m153.02,7.13c11.37,0,17.13,9.41,17.13,19.56s-5.76,19.56-17.13,19.56-17.12-9.42-17.12-19.56,5.76-19.56,17.12-19.56Zm0,34.94c8.71,0,12.37-7.85,12.37-15.38s-3.66-15.38-12.37-15.38-12.37,7.85-12.37,15.38,3.66,15.38,12.37,15.38Z" fill="#000" stroke-width="0"/>
		<path d="m179.35,0c3.71,0,6.83,3.06,6.83,7.07s-3.11,7.15-6.83,7.15-6.86-3.06-6.86-7.15,3.13-7.07,6.86-7.07Zm0,13.18c3.15,0,5.59-2.62,5.59-6.11s-2.44-6.03-5.59-6.03-5.63,2.63-5.63,6.03,2.44,6.11,5.63,6.11Zm-2.66-10.23h3.08c1.89,0,2.79.78,2.79,2.38,0,1.5-.91,2.13-2.09,2.26l2.27,3.67h-1.33l-2.17-3.58h-1.31v3.58h-1.24V2.95Zm1.24,3.69h1.29c1.09,0,2.1-.06,2.1-1.37,0-1.1-.91-1.27-1.75-1.27h-1.64v2.64Z" fill="#000" stroke-width="0"/>
	</g>
</svg>