<svg viewBox="0 0 305 68" fill="none" xmlns="http://www.w3.org/2000/svg">
<path d="M97.2423 16.873H84.5605V50.5884H97.2423V16.873Z" fill="black"/>
<path d="M126.864 16.873V30.22L116.293 16.873H103.596V50.5884H116.293V37.2098L126.864 50.5568V50.5884H139.546V16.873H126.864Z" fill="black"/>
<path d="M226.267 16.873H209.348L202.999 24.1L196.65 16.873H186.08H179.731H169.16L162.811 23.1986L156.463 16.873H139.543L156.463 33.7307L139.543 50.5884H156.463L162.811 44.2628L169.16 50.5884H186.08L169.16 33.7307L182.699 20.2414L194.539 33.7307L196.65 36.3559V50.5884H209.348V36.3559L211.459 33.7307L226.267 16.873Z" fill="black"/>
<path d="M58.0607 56.8179C62.1715 53.0858 65.8538 50.4765 66.4728 51.1565C67.1077 51.8365 64.4094 55.5369 60.2986 59.269C56.1877 63.0011 52.2832 65.2941 51.6642 64.6141C51.0293 63.9341 53.9498 60.55 58.0607 56.8179ZM41.6014 36.7816C45.5218 30.1555 53.1086 27.3881 58.5209 30.5667C63.9333 33.7611 65.1395 41.7156 61.2192 48.3258C57.2988 54.9518 49.712 57.7193 44.2996 54.5407C38.8873 51.3462 37.681 43.3918 41.6014 36.7816ZM29.0784 47.6932C37.8874 50.3816 43.7282 56.7704 42.141 61.9416C40.5538 67.1127 32.11 69.1369 23.3169 66.4327C14.508 63.7444 8.66707 57.3556 10.2543 52.1844C11.8415 47.0132 20.2853 44.989 29.0943 47.6774M5.82597 51.03C3.76262 51.3621 1.33423 47.0132 0.397789 41.3202C-0.538657 35.6271 0.38193 30.7249 2.44529 30.3928C4.50864 30.0607 6.93702 34.4095 7.87347 40.1025C8.80992 45.7955 7.88933 50.6979 5.82597 51.03ZM35.5859 35.7537C25.2374 41.6839 12.6509 39.2011 7.47667 30.2188C2.28654 21.2365 6.46087 9.1546 16.8094 3.22436C27.1579 -2.70587 39.7444 -0.22308 44.9186 8.75925C50.1088 17.7416 45.9186 29.8393 35.5859 35.7537ZM68.1552 26.2969C65.33 28.416 58.7431 24.4625 53.4578 17.4569C48.1724 10.4513 46.1884 3.06622 49.0136 0.947149C51.8388 -1.17192 58.4257 2.78161 63.7111 9.78719C68.9964 16.7928 70.9804 24.1778 68.1552 26.2969ZM71.5835 38.869C70.8058 43.7081 68.8377 47.4085 67.187 47.1555C65.5364 46.8867 64.8221 42.7593 65.5998 37.9202C66.3776 33.0811 68.3456 29.3807 69.9963 29.6337C71.647 29.8867 72.3612 34.03 71.5835 38.869Z" fill="#5E91B7"/>
<path d="M15.7309 23.9424C14.969 23.6419 14.2548 23.294 13.5723 22.8986C18.7148 13.2996 27.3491 5.81961 37.777 2.11914C39.0944 5.12379 39.4912 8.61866 38.5548 12.3349C35.9994 22.3294 25.2382 27.7377 15.7309 23.9424Z" fill="#05A3D2"/>
<path d="M13.572 22.899C10.1278 20.9065 7.82638 17.9018 6.68359 14.5493C8.50887 10.0739 11.9849 5.99394 16.7782 3.24231C23.746 -0.742803 31.7137 -0.916743 37.7768 2.11954C27.333 5.82 18.7145 13.3 13.572 22.899Z" fill="#00BECA"/>
<path d="M34.7751 20.0801C33.9973 20.5387 33.2513 21.0131 32.5371 21.5191C35.3941 19.2894 37.5685 16.1424 38.5367 12.3154C39.489 8.59913 39.0922 5.08845 37.7748 2.09961C40.7112 3.58612 43.2031 5.81588 44.8855 8.75727C46.1711 10.9712 46.8695 13.3908 47.0599 15.8419C42.838 16.3954 38.6637 17.7712 34.7592 20.0801" fill="#2194CC"/>
<path d="M9.63515 33.1778C8.80981 32.2922 8.07971 31.3118 7.4607 30.2206C4.6831 25.4132 4.58786 19.7044 6.69883 14.5332C7.84161 17.8858 10.143 20.9062 13.5873 22.883C11.8572 26.0932 10.524 29.5406 9.63515 33.1778Z" fill="#05A5BF"/>
<path d="M20.2058 38.7109C16.0949 38.0309 12.365 36.1491 9.61914 33.1919C10.508 29.5705 11.8412 26.123 13.5712 22.897C14.2537 23.2923 14.968 23.6403 15.7299 23.9407C21.2216 26.1389 27.1259 25.2533 31.6177 22.2012C25.999 26.4551 22.1104 32.2905 20.2058 38.6952" fill="#1D94CC"/>
<path d="M20.2053 38.7125C22.4433 31.1692 27.4429 24.4167 34.7758 20.0995C38.6644 17.8064 42.8546 16.4148 47.0607 15.8613C47.6321 23.3571 43.3308 31.3116 35.5535 35.7711C30.6014 38.6176 25.1256 39.519 20.1895 38.7125" fill="#666CBE"/>
<path d="M8.14246 46.0791C7.92025 48.894 7.07902 50.8391 5.79339 51.0605C3.73004 51.3926 1.30165 47.0437 0.365207 41.3507C-0.41252 36.6065 0.095354 32.4158 1.47621 30.9609C2.3333 36.5274 4.65063 41.7461 8.14246 46.0949" fill="#01587C"/>
<path d="M2.41105 30.4065C4.4744 30.0744 6.90284 34.4233 7.83928 40.1163C8.18847 42.2828 8.2837 44.3386 8.14085 46.0623C4.64902 41.7135 2.3317 36.4949 1.47461 30.9284C1.74443 30.6437 2.06187 30.454 2.41105 30.3907" fill="#0090AF"/>
<path d="M23.3806 64.3123C23.9202 65.2137 24.4916 66.0835 25.1106 66.9216C24.5075 66.7793 23.9043 66.6212 23.3012 66.4314C14.4922 63.743 8.6514 57.3542 10.2386 52.183C10.5084 51.2817 11.0004 50.4751 11.6512 49.7793C14.0002 51.8984 16.6985 53.7012 19.6824 55.0612C20.4125 58.2398 21.6347 61.3551 23.3806 64.3123Z" fill="#41589A"/>
<path d="M25.126 57.0057C30.7288 58.4448 36.3634 58.3024 41.5694 56.8634C42.3947 58.5713 42.6328 60.3108 42.1249 61.9396C40.6329 66.7629 33.2207 68.8345 25.0942 66.921C24.4911 66.0829 23.9039 65.2131 23.3642 64.3117C21.6183 61.3545 20.3803 58.2392 19.666 55.0605C21.3961 55.8512 23.2213 56.4996 25.126 56.9899" fill="#6F4DAD"/>
<path d="M19.6816 55.0773C16.6977 53.7173 14.0153 51.9145 11.6504 49.7954C13.2217 48.1191 15.793 47.028 18.888 46.6484C18.7769 49.4475 19.0308 52.2782 19.6816 55.0773Z" fill="#3086C3"/>
<path d="M35.3159 50.4928C29.9829 50.9988 24.2055 49.7337 18.9043 46.65C21.9358 46.2863 25.4753 46.6026 29.0623 47.6937C31.3797 48.4054 33.4747 49.3542 35.3 50.4928" fill="#6C7AC2"/>
<path d="M35.3154 50.4912C38.2517 52.3098 40.4579 54.5554 41.5689 56.8642C36.3629 58.3033 30.7284 58.4298 25.1256 57.0066C23.2209 56.5163 21.3957 55.868 19.6656 55.0773C19.0307 52.294 18.7609 49.4633 18.872 46.6484C18.872 46.6484 18.872 46.6484 18.8879 46.6484C24.1891 49.7322 29.9507 50.9973 35.2995 50.4912" fill="#716FBF"/>
<path d="M66.4721 51.1568C67.107 51.8368 64.4087 55.5373 60.2979 59.2693C56.1871 63.0014 52.2825 65.2945 51.6477 64.6145C51.0286 63.9345 53.9333 60.5503 58.0441 56.8182C62.1549 53.0861 65.8372 50.4768 66.4562 51.1568" fill="#814BAC"/>
<path d="M71.4568 39.5002C69.6951 38.3932 67.7269 37.6183 65.6953 37.2388C66.5365 32.7476 68.3936 29.4109 69.9649 29.6639C71.6156 29.9327 72.3298 34.0601 71.5521 38.8992C71.5203 39.1048 71.4886 39.3104 71.441 39.5002" fill="#6840A7"/>
<path d="M67.1695 47.1716C65.5188 46.9028 64.8045 42.7753 65.5823 37.9363C65.614 37.699 65.6617 37.4618 65.7093 37.2246C67.7409 37.62 69.7089 38.3791 71.4707 39.486C70.6295 44.0246 68.7567 47.4088 67.1695 47.1558" fill="#7E42A7"/>
<path d="M63.1365 36.9707C64.0254 40.4498 63.4382 44.6088 61.2161 48.3409C57.6766 54.3186 51.1691 57.1651 45.9473 55.3149C53.7404 51.8833 60.0891 45.4154 63.1365 36.9707Z" fill="#8146AA"/>
<path d="M45.9498 55.2985C45.2831 49.0362 48.2512 42.6631 54.0444 39.2473C56.8855 37.571 60.0282 36.8278 63.1073 36.9385C63.1073 36.9385 63.1073 36.9543 63.1073 36.9701C60.0758 45.3989 53.727 51.8827 45.9339 55.3143" fill="#815AB5"/>
<path d="M49.1542 43.6272C46.6623 46.9797 45.5195 51.1546 45.9481 55.2979C45.3767 55.0923 44.8212 54.8392 44.2974 54.5229C42.3451 53.3685 40.9325 51.5974 40.123 49.4941C43.5831 48.3871 46.6941 46.4262 49.1701 43.6113" fill="#6F69BE"/>
<path d="M54.062 39.2495C52.5383 40.1509 51.205 41.2579 50.0781 42.523C51.2685 40.9574 52.2684 39.1863 53.0303 37.1779C54.0302 34.6002 54.5382 31.9435 54.6493 29.3184C55.9984 29.4607 57.3157 29.8719 58.5061 30.5835C60.8711 31.9751 62.4265 34.2682 63.109 36.9565C60.0299 36.8458 56.8872 37.5891 54.0461 39.2654" fill="#6F69BE"/>
<path d="M54.647 29.301C54.5359 31.942 54.028 34.5829 53.0281 37.1606C50.5679 43.5494 45.8064 47.6768 40.1083 49.5113C38.664 45.7792 39.0767 41.0033 41.5844 36.781C44.6319 31.6257 49.9013 28.8108 54.647 29.301Z" fill="#6E79C2"/>
<path d="M63.9956 18.1837C62.1544 11.1307 57.9166 4.85255 51.9805 0.519531C55.2501 1.19953 59.8053 4.67859 63.6781 9.80231C66.6462 13.74 68.5825 17.7884 69.2015 20.967C67.5508 19.8758 65.805 18.9428 64.0114 18.1837" fill="#33438E"/>
<path d="M52.1092 15.6081C47.8396 9.20349 46.427 2.90954 48.9983 0.980239C49.7601 0.410937 50.7918 0.284412 51.9822 0.521621C57.9183 4.87046 62.1562 11.1486 64.0132 18.1858C60.2515 16.5886 56.2042 15.703 52.1092 15.6081Z" fill="#2575BE"/>
<path d="M68.1228 26.3119C67.345 26.8971 66.2658 27.0236 65.0119 26.7389C65.0595 23.8134 64.7103 20.9352 63.9961 18.1836C65.8055 18.9427 67.5356 19.8757 69.1863 20.9668C69.6624 23.4496 69.3608 25.3789 68.1228 26.3119Z" fill="#6238A2"/>
<path d="M65.0271 26.7407C61.7575 26.0132 57.2658 22.5341 53.4406 17.4737C52.9645 16.8411 52.5201 16.2244 52.1074 15.5918C56.2024 15.7025 60.2497 16.5881 64.0114 18.1695C64.7256 20.9211 65.0906 23.7993 65.0271 26.7248" fill="#655FB6"/>
<path d="M240.147 22.7806V25.1034H234.374V22.7806H240.147ZM235.177 17.1176V31.0928H232.344V17.1176H235.177ZM242.196 17.1176V31.0928H239.392V17.1176H242.196Z" fill="black"/>
<path d="M254.399 23.0206V25.353C254.399 26.3384 254.276 27.2022 254.031 27.9445C253.793 28.6804 253.451 29.2979 253.006 29.797C252.568 30.2897 252.036 30.6608 251.411 30.9104C250.792 31.16 250.106 31.2847 249.351 31.2847C248.597 31.2847 247.908 31.16 247.282 30.9104C246.663 30.6608 246.128 30.2897 245.677 29.797C245.232 29.2979 244.888 28.6804 244.643 27.9445C244.398 27.2022 244.275 26.3384 244.275 25.353V23.0206C244.275 22.0095 244.394 21.1265 244.633 20.3714C244.871 19.6099 245.216 18.9765 245.668 18.4709C246.119 17.959 246.654 17.5751 247.273 17.3191C247.891 17.0568 248.578 16.9256 249.332 16.9256C250.086 16.9256 250.773 17.0568 251.392 17.3191C252.01 17.5751 252.545 17.959 252.997 18.4709C253.448 18.9765 253.793 19.6099 254.031 20.3714C254.276 21.1265 254.399 22.0095 254.399 23.0206ZM251.585 25.353V23.0014C251.585 22.3359 251.537 21.7696 251.44 21.3025C251.343 20.8289 251.198 20.4418 251.005 20.1411C250.811 19.8403 250.576 19.6195 250.299 19.4788C250.022 19.338 249.7 19.2676 249.332 19.2676C248.965 19.2676 248.639 19.338 248.356 19.4788C248.078 19.6195 247.843 19.8403 247.65 20.1411C247.463 20.4418 247.321 20.8289 247.224 21.3025C247.134 21.7696 247.089 22.3359 247.089 23.0014V25.353C247.089 25.9928 247.137 26.5399 247.234 26.9943C247.331 27.4486 247.476 27.8197 247.669 28.1077C247.862 28.3956 248.098 28.61 248.375 28.7508C248.658 28.8851 248.984 28.9523 249.351 28.9523C249.712 28.9523 250.031 28.8851 250.309 28.7508C250.592 28.61 250.828 28.3956 251.014 28.1077C251.201 27.8197 251.343 27.4486 251.44 26.9943C251.537 26.5399 251.585 25.9928 251.585 25.353Z" fill="black"/>
<path d="M262.414 27.4166C262.414 27.167 262.392 26.9399 262.346 26.7351C262.301 26.5304 262.205 26.3416 262.056 26.1688C261.915 25.996 261.705 25.8233 261.428 25.6505C261.157 25.4777 260.803 25.2986 260.364 25.113C259.842 24.8954 259.336 24.6651 258.846 24.4219C258.356 24.1724 257.915 23.8844 257.522 23.5581C257.128 23.2317 256.816 22.8478 256.584 22.4063C256.358 21.9583 256.245 21.4336 256.245 20.8321C256.245 20.2434 256.352 19.7091 256.564 19.2292C256.784 18.7493 257.093 18.3398 257.493 18.0006C257.892 17.6551 258.36 17.3895 258.895 17.204C259.436 17.0184 260.039 16.9256 260.703 16.9256C261.605 16.9256 262.385 17.1112 263.043 17.4823C263.707 17.8535 264.219 18.3622 264.58 19.0085C264.947 19.6547 265.131 20.397 265.131 21.2353H262.308C262.308 20.8385 262.25 20.4898 262.134 20.189C262.024 19.8819 261.847 19.6419 261.602 19.4692C261.357 19.2964 261.041 19.21 260.654 19.21C260.293 19.21 259.994 19.2836 259.755 19.4308C259.523 19.5716 259.349 19.7667 259.233 20.0163C259.124 20.2594 259.069 20.5346 259.069 20.8417C259.069 21.0721 259.124 21.2801 259.233 21.4656C259.349 21.6448 259.507 21.808 259.707 21.9551C259.907 22.0959 260.142 22.2335 260.413 22.3679C260.69 22.5022 260.993 22.6334 261.322 22.7614C261.96 23.011 262.524 23.2861 263.014 23.5869C263.504 23.8812 263.913 24.214 264.242 24.5851C264.57 24.9498 264.819 25.3626 264.986 25.8233C265.154 26.284 265.238 26.8087 265.238 27.3974C265.238 27.9797 265.134 28.5108 264.928 28.9907C264.728 29.4642 264.435 29.8738 264.048 30.2193C263.661 30.5585 263.194 30.8208 262.646 31.0064C262.105 31.1919 261.499 31.2847 260.828 31.2847C260.177 31.2847 259.562 31.1951 258.982 31.016C258.402 30.8304 257.889 30.5521 257.444 30.1809C257.006 29.8034 256.661 29.3267 256.41 28.7508C256.158 28.1685 256.033 27.4806 256.033 26.6871H258.866C258.866 27.1095 258.908 27.471 258.991 27.7717C259.075 28.0661 259.204 28.3028 259.378 28.482C259.552 28.6548 259.765 28.786 260.016 28.8755C260.274 28.9587 260.567 29.0003 260.896 29.0003C261.27 29.0003 261.567 28.9299 261.786 28.7892C262.011 28.6484 262.172 28.4596 262.269 28.2229C262.366 27.9861 262.414 27.7173 262.414 27.4166Z" fill="black"/>
<path d="M272.76 17.1176V31.0928H269.946V17.1176H272.76ZM276.26 17.1176V19.45H266.514V17.1176H276.26Z" fill="black"/>
<path d="M280.843 17.1176V31.0928H278.03V17.1176H280.843Z" fill="black"/>
<path d="M293.103 17.1176V31.0928H290.367L285.948 22.3487V31.0928H283.26V17.1176H285.958L290.415 25.9577V17.1176H293.103Z" fill="black"/>
<path d="M304.948 23.75V29.509C304.748 29.7202 304.455 29.9666 304.068 30.2481C303.688 30.5233 303.188 30.7664 302.569 30.9776C301.957 31.1823 301.209 31.2847 300.326 31.2847C299.546 31.2847 298.837 31.1631 298.199 30.92C297.567 30.6768 297.023 30.3089 296.565 29.8162C296.114 29.3171 295.769 28.6964 295.53 27.9541C295.292 27.2054 295.173 26.3192 295.173 25.2954V22.915C295.173 21.904 295.285 21.0241 295.511 20.2754C295.743 19.5204 296.078 18.8933 296.517 18.3942C296.955 17.895 297.477 17.5239 298.083 17.2808C298.695 17.0376 299.385 16.916 300.152 16.916C301.209 16.916 302.076 17.092 302.753 17.4439C303.436 17.7959 303.952 18.3174 304.3 19.0085C304.655 19.6995 304.867 20.5474 304.938 21.552H302.202C302.157 20.9633 302.057 20.5026 301.902 20.1699C301.754 19.8371 301.544 19.6004 301.274 19.4596C301.003 19.3124 300.652 19.2388 300.22 19.2388C299.846 19.2388 299.52 19.306 299.243 19.4404C298.966 19.5684 298.734 19.7795 298.547 20.0739C298.36 20.3682 298.222 20.7458 298.131 21.2065C298.041 21.6672 297.996 22.2303 297.996 22.8958V25.2954C297.996 25.9545 298.047 26.5176 298.151 26.9847C298.254 27.4518 298.405 27.8325 298.605 28.1269C298.811 28.4212 299.069 28.6356 299.379 28.77C299.694 28.8979 300.065 28.9619 300.49 28.9619C300.832 28.9619 301.106 28.9267 301.312 28.8563C301.519 28.786 301.683 28.7124 301.805 28.6356C301.934 28.5524 302.041 28.4884 302.125 28.4436V25.8713H300.104V23.75H304.948Z" fill="black"/>
<path d="M240.417 48.4274V50.7502H234.297V48.4274H240.417ZM235.177 36.775V50.7502H232.344V36.775H235.177ZM239.595 42.438V44.6936H234.297V42.438H239.595ZM240.398 36.775V39.1074H234.297V36.775H240.398Z" fill="black"/>
<path d="M244.565 36.775L246.576 41.4398L248.491 36.775H251.614L248.22 43.6954L251.682 50.7502H248.433L246.431 45.9798L244.43 50.7502H241.249L244.768 43.6378L241.326 36.775H244.565Z" fill="black"/>
<path d="M257.947 45.8262H255.066V43.4938H257.947C258.347 43.4938 258.672 43.4042 258.924 43.2251C259.182 43.0459 259.368 42.7995 259.484 42.486C259.601 42.166 259.659 41.8077 259.659 41.411C259.659 41.0078 259.597 40.6335 259.475 40.288C259.359 39.936 259.175 39.6513 258.924 39.4337C258.679 39.2162 258.353 39.1074 257.947 39.1074H255.975V50.7502H253.151V36.775H257.947C258.895 36.775 259.71 36.9733 260.393 37.3701C261.077 37.7668 261.599 38.3139 261.96 39.0114C262.327 39.7025 262.511 40.4959 262.511 41.3918C262.511 42.294 262.327 43.0779 261.96 43.7434C261.599 44.4025 261.077 44.9144 260.393 45.2791C259.71 45.6438 258.895 45.8262 257.947 45.8262Z" fill="black"/>
<path d="M272.48 48.4274V50.7502H266.359V48.4274H272.48ZM267.239 36.775V50.7502H264.406V36.775H267.239ZM271.658 42.438V44.6936H266.359V42.438H271.658ZM272.46 36.775V39.1074H266.359V36.775H272.46Z" fill="black"/>
<path d="M274.143 36.775H278.658C279.599 36.775 280.402 36.935 281.066 37.2549C281.73 37.5748 282.239 38.0484 282.593 38.6754C282.948 39.3025 283.125 40.0768 283.125 40.9982C283.125 41.7533 283.022 42.3996 282.816 42.9371C282.609 43.4682 282.316 43.9129 281.936 44.2713C281.555 44.6232 281.101 44.9048 280.572 45.1159L279.712 45.6246H276.047L276.038 43.2923H278.581C278.967 43.2923 279.286 43.2091 279.538 43.0427C279.796 42.8699 279.986 42.63 280.108 42.3228C280.237 42.0093 280.302 41.6445 280.302 41.2286C280.302 40.7871 280.244 40.4095 280.128 40.096C280.018 39.7761 279.841 39.5329 279.596 39.3665C279.357 39.1938 279.045 39.1074 278.658 39.1074H276.976V50.7502H274.143V36.775ZM280.534 50.7502L277.952 44.5208L280.921 44.5112L283.56 50.6158V50.7502H280.534Z" fill="black"/>
<path d="M290.203 36.775V50.7502H287.389V36.775H290.203ZM293.703 36.775V39.1074H283.957V36.775H293.703Z" fill="black"/>
</svg>