<?xml version="1.0" ?>
<svg xmlns="http://www.w3.org/2000/svg" viewBox="0 0 1552 1658">
	<style>.a{fill:#2c5368}</style>
	<path fill-rule="evenodd" class="a" d="m977.1 1657c-317.9 0-574.9-370.1-574.9-828 0-457.9 257-828 574.9-828 317.9 0 574.9 370.1 574.9 828 0 457.9-257 828-574.9 828zm469.6-758c0-378.3-190.4-684.1-425.8-684.1-235.5 0-425.9 305.8-425.9 684.1 0 378.3 190.4 684 425.9 684 235.4 0 425.8-305.7 425.8-684zm-1207.8-70c0 457.6 142.1 828 89.3 828-52.9 0-328.2-373.4-328.2-831 0-457.1 275.3-825 328.2-825 52.8 0-89.3 370.4-89.3 828z"/>
</svg>