<svg xmlns="http://www.w3.org/2000/svg" id="Capa_1" x="0" y="0" version="1.1" viewBox="0 0 512 512" xml:space="preserve"><style>.st0,.st2{fill:#fff}.st2{fill-rule:evenodd;clip-rule:evenodd}</style><path d="M108 141.7h99c14.9 0 24.8 9.9 24.8 24.8V216c0 14.9-9.9 24.8-24.8 24.8h-99c-14.9 0-24.8-9.9-24.8-24.8v-49.5c0-14.9 9.9-24.8 24.8-24.8z" class="st0"/><linearGradient id="SVGID_1_" x1="69.027" x2="445.824" y1="83.159" y2="429.811" gradientUnits="userSpaceOnUse"><stop offset="0" stop-color="#127ef9"/><stop offset="1" stop-color="#00b4fe"/></linearGradient><path fill="url(#SVGID_1_)" d="M399 512H114.8C51.9 512 .9 461 .9 398.1V113.9C.9 51 51.9 0 114.8 0H399c62.9 0 113.9 51 113.9 113.9V398c0 63-51 114-113.9 114z"/><path d="M308.9 219.8c19.2 0 34.7 15.5 34.7 34.7s-15.5 34.7-34.7 34.7c-19.2 0-34.7-15.5-34.7-34.7s15.5-34.7 34.7-34.7z" class="st2"/><path d="M309.7 398.9c-12.4 0-25-1.6-37.3-4.9-36.9-9.9-67.8-33.6-86.9-66.7-19.1-33.1-24.2-71.7-14.3-108.6 3.1-11.7 15.1-18.6 26.8-15.5 11.7 3.1 18.6 15.1 15.5 26.8-6.9 25.7-3.3 52.5 9.9 75.5 13.3 23 34.7 39.5 60.4 46.3 25.7 6.9 52.5 3.4 75.5-9.9s39.5-34.7 46.3-60.4c6.9-25.7 3.3-52.5-9.9-75.5-13.3-23-34.7-39.5-60.4-46.3-20.4-5.5-41.5-4.4-61.1 3.1-11.2 4.3-23.9-1.4-28.2-12.6-4.3-11.3 1.3-23.9 12.6-28.2 28.3-10.8 58.7-12.3 88-4.5 36.9 9.9 67.8 33.6 86.9 66.7 19.1 33.1 24.2 71.7 14.3 108.6-9.9 36.9-33.6 67.8-66.7 86.9-22.1 12.7-46.6 19.2-71.4 19.2z" class="st0"/><path d="M87.7 111.7c14.7 0 26.6 11.9 26.6 26.6v235.6c0 14.7-11.9 26.6-26.6 26.6s-26.6-11.9-26.6-26.6V138.2c0-14.6 11.9-26.5 26.6-26.5z" class="st2"/></svg>