<?xml version="1.0" ?>
<!-- Generator: Adobe Illustrator 25.2.0, SVG Export Plug-In . SVG Version: 6.00 Build 0)  -->
<svg xmlns="http://www.w3.org/2000/svg" version="1.2" baseProfile="tiny-ps" id="Layer_1" viewBox="0 0 150 150" xml:space="preserve">
	<rect width="150" height="150"/>
	<path fill="#FF0000" d="M28.46,79.74h0.46v2.38h-8.85v-2.38h0.54c1.05,0,1.27-0.24,1.27-1.27v-5.45c0-1.03-0.22-1.27-1.27-1.27  h-0.54v-2.38h7.13v9.1C27.19,79.5,27.41,79.74,28.46,79.74z M24.17,63.47c1.35,0,2.43,1.11,2.43,2.46s-1.08,2.43-2.43,2.43  c-1.38,0-2.43-1.05-2.43-2.43C21.74,64.54,22.82,63.47,24.17,63.47z"/>
	<path fill="#FF0000" d="M45.41,75.75c0,4.21-2.94,6.83-7.75,6.83c-4.83,0-7.72-2.56-7.72-6.83s2.89-6.86,7.69-6.86  C42.47,68.89,45.41,71.54,45.41,75.75z M37.64,71.4c-1.57,0-1.97,1.35-1.97,4.35s0.4,4.35,2.02,4.35c1.59,0,1.97-1.35,1.97-4.35  S39.26,71.4,37.64,71.4z"/>
	<path fill="#FFFFFF" d="M49.2,70.78v0.08h-2.67V64h19.06v6.86h-2.65v-0.08c0-2.59-1.13-3.94-3.1-3.94h-0.78v11.15  c0,1.3,0.13,1.57,1.51,1.57h1.51v2.56h-11.9v-2.56h1.4c1.48,0,1.48-0.35,1.48-1.57V66.84h-0.78C50.3,66.84,49.2,68.19,49.2,70.78z"/>
	<path fill="#FFFFFF" d="M68.96,68.11c0-1.3-0.11-1.54-1.48-1.54h-0.92V64h12.47c4.37,0,6.56,1.46,6.56,4.51c0,2.02-1.35,3.48-3.83,4  c2.97,0.35,3.16,1.73,3.16,5.26c0,1.16,0.13,1.73,0.7,1.73c0.49,0,0.73-0.59,0.73-1.86c0-0.19-0.03-0.41-0.03-0.62h1.84  c0,0.24,0.03,0.49,0.03,0.73c0,3.37-1.32,4.8-4.4,4.8c-3.27,0-4.72-1.29-4.72-4.29v-1.51c0-2.21-0.27-2.81-2.48-2.81h-1.62v4.05  c0,1.3,0.11,1.57,1.48,1.57h1.03v2.56H66.56v-2.56h0.92c1.38,0,1.48-0.27,1.48-1.57V68.11z M76.49,71.48c2.08,0,3.02-0.54,3.02-2.32  c0-1.92-0.84-2.48-2.83-2.48H74.9v4.81H76.49z"/>
	<path fill="#FFFFFF" d="M97.5,79.55h0.81c1.05,0,1.49,0,1.49-0.54c0-0.24-0.03-0.51-0.11-0.78l-0.65-1.94h-4.89l-0.57,1.73  c-0.13,0.38-0.24,0.7-0.24,1.03s0.43,0.51,1.27,0.51h0.89v2.56h-8.1v-2.56h0.67c0.97,0,1.54-0.62,1.97-1.86L94.8,64h6.56l4.24,13.63  c0.46,1.43,0.62,1.92,1.94,1.92h0.94v2.56H97.5V79.55z M96.53,68.22l-1.54,5.48h3.18L96.53,68.22z"/>
	<path fill="#FFFFFF" d="M123.36,76.21v-8.1c0-1.24-0.03-1.54-1.48-1.54h-1.03V64h7.96v2.56h-0.65c-1.38,0-1.48,0.24-1.48,1.54v14.01  h-6.21l-7.05-12.98v8.85c0,1.3,0.11,1.57,1.49,1.57h0.81v2.56h-7.99v-2.56h0.89c1.38,0,1.51-0.27,1.51-1.57v-9.88  c0-1.3-0.13-1.54-1.51-1.54h-0.89V64h8.96L123.36,76.21z"/>
</svg>