<?xml version="1.0" ?>
<svg xmlns="http://www.w3.org/2000/svg" version="1.2" baseProfile="tiny-ps" id="Layer_1" viewBox="0 0 800 800" xml:space="preserve">
	<g>
		<rect fill="#453AD3" width="802.52" height="802.52"/>
		<path fill="#FFFFFF" d="M278.62,180.03c-19.59,0-35.52,15.94-35.52,35.53s15.94,35.53,35.52,35.53c19.59,0,35.53-15.94,35.53-35.53   S298.2,180.03,278.62,180.03z M278.62,235.65c-11.08,0-20.09-9.01-20.09-20.09c0-11.08,9.01-20.09,20.09-20.09   c11.08,0,20.09,9.01,20.09,20.09C298.71,226.64,289.69,235.65,278.62,235.65z"/>
		<path fill="#FFFFFF" d="M242.77,413.68c0,35.1,28.56,63.65,63.65,63.65V461.9c-26.59,0-48.22-21.63-48.22-48.22V280.82h40.5v134.74   h15.43V265.39h-71.37V413.68z"/>
		<path fill="#FFFFFF" d="M498.79,463.64l0.32-91.81c0-28.31-23.03-51.35-51.35-51.35c-28.31,0-51.35,23.04-51.35,51.35   s23.03,51.35,51.35,51.35v-15.43c-19.8,0-35.91-16.11-35.91-35.91s16.11-35.91,35.91-35.91s35.91,16.11,35.91,35.89l-0.32,91.34   h-0.02h-35.57c-50.35,0-91.31-40.96-91.31-91.31c0-50.35,40.96-91.32,91.31-91.32c50.35,0,91.31,40.96,91.31,91.32v43.63h15.43   v-43.63c0-58.86-47.89-106.75-106.75-106.75c-58.86,0-106.75,47.89-106.75,106.75c0,58.86,47.89,106.75,106.75,106.75h35.57v76.51   c0,35.1,28.56,63.65,63.65,63.65h7.72v-90.7C554.71,494.93,530.25,467.55,498.79,463.64z M539.27,602.7   c-22.93-3.71-40.5-23.64-40.5-47.61v-75.85c22.62,3.92,40.5,24.68,40.5,48.8V602.7z"/>
	</g>
</svg>