<?xml version="1.0" ?>
<svg xmlns="http://www.w3.org/2000/svg" class="logo fill-current" fill="none" viewBox="0 0 174 30">
	<path d="M0 29.684V.316C0 .126.126 0 .316 0h7.8c.19 0 .316.126.316.316v29.368c0 .19-.127.316-.316.316h-7.8C.126 30 0 29.874 0 29.684zm22.042-10.737c-1.61 0-3.126-.126-4.453-.473-1.357-.38-2.526-.948-3.442-1.737-.947-.79-1.673-1.769-2.21-2.969-.537-1.2-.79-2.62-.79-4.263 0-1.61.253-3 .79-4.2.537-1.2 1.263-2.179 2.21-2.968.948-.79 2.116-1.39 3.443-1.769C18.947.19 20.431 0 22.041 0h41.021c.19 0 .316.126.316.316v7.263c0 .19-.126.316-.316.316h-41.21c-.758 0-1.264.158-1.61.442-.348.316-.475.663-.475 1.137 0 .442.158.82.474 1.136.347.316.853.443 1.61.443H52.99c1.611 0 3.127.19 4.453.568 1.326.379 2.526.947 3.442 1.737.948.79 1.674 1.768 2.21 2.968.538 1.2.79 2.59.79 4.2s-.252 3-.79 4.2c-.536 1.2-1.262 2.18-2.21 2.969-.947.79-2.116 1.358-3.442 1.737-1.358.379-2.842.568-4.453.568H11.97c-.19 0-.316-.126-.316-.316v-7.263c0-.19.126-.316.315-.316h41.21c.759 0 1.264-.158 1.612-.442.347-.316.473-.663.473-1.137a1.55 1.55 0 00-.473-1.136c-.348-.316-.853-.443-1.611-.443H22.042zm96.316 10.737v-7.263c0-.19-.126-.316-.316-.316H75.347c-.19 0-.315-.126-.315-.315v-2.527c0-.19.126-.316.315-.316h42.695c.19 0 .316-.126.316-.315v-7.264c0-.19-.126-.315-.316-.315H66.916c-.19 0-.316.126-.316.315v18.316c0 .19.126.316.316.316h51.126a.317.317 0 00.316-.316zM118.042 0H66.916c-.19 0-.316.126-.316.316v7.263c0 .19.126.316.316.316h51.126c.19 0 .316-.127.316-.316V.316a.317.317 0 00-.316-.316zm55.263 29.684v-7.263c0-.19-.126-.316-.316-.316h-42.694c-.19 0-.316-.126-.316-.315v-2.527c0-.19.126-.316.316-.316h42.694c.19 0 .316-.126.316-.315v-7.264c0-.19-.126-.315-.316-.315h-51.126c-.189 0-.316.126-.316.315v18.316c0 .19.127.316.316.316h51.126c.19 0 .316-.126.316-.316zM172.989 0h-51.126c-.189 0-.316.126-.316.316v7.263c0 .19.127.316.316.316h51.126c.19 0 .316-.127.316-.316V.316c0-.19-.126-.316-.316-.316z"/>
</svg>