<svg xmlns="http://www.w3.org/2000/svg" role="img" viewBox="0.06 -0.94 412.88 131.13"><path d="M85.2921 51.53679a71.25041 71.25041 0 0 1 4.20627-24.12625A41.03136 41.03136 0 0 1 97.205 14.27591a20.2106 20.2106 0 0 1 13.112-7.07837c6.971-.74775 12.7932 1.66212 17.52026 6.74832a42.65839 42.65839 0 0 1 9.44774 17.38769 76.80416 76.80416 0 0 1 2.77877 23.89253 67.72366 67.72366 0 0 1-4.44879 23.748 39.69881 39.69881 0 0 1-7.67519 12.45292 20.31722 20.31722 0 0 1-12.47461 6.76708 19.55385 19.55385 0 0 1-15.63553-4.53192 34.60968 34.60968 0 0 1-8.63036-11.68046 57.76842 57.76842 0 0 1-5.21878-17.98094 90.113 90.113 0 0 1-.68841-12.46397zm41.06649.74931a146.39561 146.39561 0 0 0-.69063-15.3102 66.77493 66.77493 0 0 0-2.57934-13.9051c-1.04994-3.31321-2.34562-6.51437-4.785-9.09126a7.45354 7.45354 0 0 0-7.1782-2.41208 9.05008 9.05008 0 0 0-5.84731 4.309 28.63923 28.63923 0 0 0-3.68577 9.05561 94.84253 94.84253 0 0 0-2.42173 20.23231 181.73 181.73 0 0 0 .73722 25.81362 59.0528 59.0528 0 0 0 2.92077 13.75153 18.66121 18.66121 0 0 0 3.51974 6.27877c3.71246 4.137 9.20384 4.06683 12.8128-.15688a19.56336 19.56336 0 0 0 3.42832-6.24476 56.02967 56.02967 0 0 0 2.63326-11.48452 162.98153 162.98153 0 0 0 1.13587-20.83604zm173.42457-6.90458c.39219-.6257.68075-1.08836.97156-1.5496a21.85257 21.85257 0 0 1 3.752-4.68735 7.4829 7.4829 0 0 1 9.23083-.71392 8.33858 8.33858 0 0 1 2.76427 3.66568 21.33439 21.33439 0 0 1 1.14624 3.4666c.37541-.15694.45122-.47612.60573-.718a24.3646 24.3646 0 0 1 4.3823-5.54289 7.89727 7.89727 0 0 1 8.24041-1.63254 6.76041 6.76041 0 0 1 3.95475 4.28572 25.35907 25.35907 0 0 1 1.53254 7.50815c.38927 4.898.2308 9.80446.25145 14.70781.03228 7.67524.03548 15.35061.05486 23.0259a8.12918 8.12918 0 0 0 .26413 1.88074 2.82547 2.82547 0 0 0 2.48367 2.34486c.47756.07069.62675.25908.60692.72953-.03425.81177-.02463 1.62684.004 2.43921.01547.43857-.15519.5687-.57558.5667q-6.1048-.0291-12.20985-.02831c-.38394 0-.57342-.1114-.5395-.51818.019-.22713.00242-.45719.00242-.68593q.001-19.74815-.00626-39.49628a21.2199 21.2199 0 0 0-.74348-6.78879 2.80857 2.80857 0 0 0-4.85807-1.23222 10.20625 10.20625 0 0 0-2.41126 5.41908 26.76041 26.76041 0 0 0-.49359 5.45337q.0157 14.18206.00119 28.36413a14.04018 14.04018 0 0 0 .31981 3.32828 2.94889 2.94889 0 0 0 2.58225 2.45156c.47421.06884.631.25049.61.725-.03577.81165-.02571 1.62683.00284 2.43919.01539.43742-.152.56987-.57391.56792q-6.1048-.02817-12.20983-.02363c-.46112.00066-.55284-.19568-.5441-.59539.01887-.86373.006-1.72815.006-2.59229q.00087-18.75693-.00667-37.51384a21.72546 21.72546 0 0 0-.73754-6.79062 2.76186 2.76186 0 0 0-3.59527-2.04368 3.02417 3.02417 0 0 0-1.4236.97545 10.47418 10.47418 0 0 0-2.10949 5.15217 33.24137 33.24137 0 0 0-.53075 6.597q.00453 13.534.0023 27.06792a15.23838 15.23838 0 0 0 .19961 2.88531 3.54032 3.54032 0 0 0 2.69042 3.072.70307.70307 0 0 1 .62727.844 17.70776 17.70776 0 0 0 .0104 2.20973c.04737.6293-.20826.76737-.78622.76414-3.434-.01921-6.8681-.00232-10.30219-.00654-1.83148-.00225-3.66394-.06165-5.49391-.01508-.71167.01812-.897-.22531-.81234-.86409a3.43182 3.43182 0 0 0 .00164-.83737c-.13547-1.17043-.03986-2.03662 1.42725-2.42751 1.28263-.34174 1.72494-1.62166 1.9405-2.87825a15.66067 15.66067 0 0 0 .17436-2.659q-.00179-18.64224-.0018-37.28447a17.30762 17.30762 0 0 0-.174-2.81215 3.28392 3.28392 0 0 0-2.73619-3.05643c-.48777-.0909-.66651-.28784-.63785-.8a20.84413 20.84413 0 0 0-.00162-2.59064c-.04092-.59446.20464-.71717.72558-.75 3.27385-.20652 6.54615-.43762 9.81877-.66334.7356-.05074 1.47415-.08382 2.2044-.17849.53147-.0689.69467.08472.70291.63334.03354 2.2359.11749 4.47105.18368 6.70645.00503.16736.01678.33467.03561.69988zm-142.05942-.99295c.50283-1.10749.986-2.22441 1.51369-3.32a13.73524 13.73524 0 0 1 2.26692-3.41547 8.63976 8.63976 0 0 1 11.5824-.74835c3.15884 2.44526 4.9173 5.83013 6.1867 9.50708a47.48032 47.48032 0 0 1 2.1434 11.42464 81.2857 81.2857 0 0 1 .15586 12.26032 50.51814 50.51814 0 0 1-3.96822 17.889 20.42421 20.42421 0 0 1-5.0793 7.42766c-2.359 2.01612-5.04962 2.82533-8.07336 1.71833a9.02284 9.02284 0 0 1-3.67026-2.65831A36.45864 36.45864 0 0 1 157.798 90.435v.43017c-.00052 6.455-.069 12.91022.08034 19.3648a25.42132 25.42132 0 0 0 .59434 4.906 5.1709 5.1709 0 0 0 4.56751 4.36973c.54209.08373.69853.27119.69665.81493-.00673 1.94762.01546 1.96256-1.941 1.96126-6.13-.0041-12.25992-.02791-18.38985-.02006-.59009.00076-.86137-.15034-.75756-.76185a.7227.7227 0 0 0 .00019-.2282c-.21006-1.34982.01863-2.26817 1.65133-2.61408a3.25721 3.25721 0 0 0 2.2931-2.80144 17.60911 17.60911 0 0 0 .34729-3.787q-.00129-32.59344-.00067-65.18686a25.12633 25.12633 0 0 0-.20186-3.11607 4.09963 4.09963 0 0 0-3.18771-3.82216.81427.81427 0 0 1-.72868-1.005 14.03569 14.03569 0 0 0 .01079-1.7523c-.012-.391.1367-.53853.53364-.5378q6.82953.01264 13.65906-.0043c.54024-.002.54651.27755.545.67166-.00879 2.35881-.00436 4.71768-.00436 7.07652zm.06082 22.64817h-.00548c0 4.88.03328 9.7603-.01261 14.63985A10.35186 10.35186 0 0 0 160.8 88.94276c2.17786 2.36462 4.9931 1.91253 6.59207-.89747a17.342 17.342 0 0 0 1.79572-5.23495 62.78469 62.78469 0 0 0 1.00408-10.991 122.153 122.153 0 0 0-1.00279-21.97651 12.87733 12.87733 0 0 0-1.94065-5.63723 3.62531 3.62531 0 0 0-5.73089-.50768 16.02855 16.02855 0 0 0-3.13342 5.35511 7.64658 7.64658 0 0 0-.60508 3.115c.01253 4.95622.00552 9.91248.00552 14.86871zM62.11821 49.5697q-.0009 17.07884.00554 34.15769a9.5486 9.5486 0 0 0 1.286 5.4803 5.72625 5.72625 0 0 0 4.20764 2.456c.68292.1 1.04668.27484.9532 1.06612a11.01975 11.01975 0 0 0 .00452 2.13177c.04945.637-.17011.81814-.80558.816-5.06184-.01723-10.12381.00577-15.18573.0038-2.77258-.00109-5.54525-.04291-8.31767-.0277-.56745.00312-.75473-.143-.72126-.72017.05-.86123.02882-1.72787.00622-2.59138-.00959-.36657.07488-.5657.48031-.58777a5.59226 5.59226 0 0 0 .97616-.16186c3.06919-.72719 4.71-2.83537 4.95589-6.38141.04389-.633.04463-1.26984.04426-1.90489q-.02043-34.72945-.04546-69.45888c-.00056-.83014-.04081-.86193-.76935-.43638a7.893 7.893 0 0 0-2.46439 2.45385c-2.24515 3.25913-3.37111 6.97937-4.35966 10.74078a101.07935 101.07935 0 0 0-2.34147 12.337c-.13691 1.02516-.13259 1.02571-1.185 1.0225-.43242-.00133-.86819-.03683-1.29645.00472-.56372.0547-.66494-.18988-.65625-.70254q.24819-14.63652.44988-29.27377c.00933-.70879.22748-.867.90723-.86585q17.81851.03051 35.63709.003c.57761-.00073.82831.06512.84489.7546.23345 9.70576.33351 19.41336.44614 29.12082.01268 1.09308.12023.9575-.9842.95861-2.00194.002-1.957-.00962-2.2494-1.99831A82.055 82.055 0 0 0 67.97222 20.865a17.63706 17.63706 0 0 0-4.02442-6.662 5.88157 5.88157 0 0 0-1.16036-.85983c-.47546-.2768-.70227-.27862-.69538.39245.03051 2.973.02534 5.94642.026 8.91969q.00304 13.45717.00015 26.91439zM249.39366 50q0 16.73922.00761 33.47842a18.76157 18.76157 0 0 0 .43437 4.61731 3.87071 3.87071 0 0 0 3.5528 3.07283c.68159.08668.84082.34686.80331.96567a16.73884 16.73884 0 0 0 .01213 2.21c.04542.63019-.16435.82646-.80409.823-3.79071-.0204-7.58167.00753-11.37253.00344-2.87494-.0031-5.75006-.05469-8.62458-.02789-.70224.00654-.87153-.22149-.82912-.87014.053-.81.02628-1.62635.00833-2.43938-.00812-.36828.10391-.55938.49549-.60548 2.96854-.34952 3.83747-1.94335 4.15962-4.58782a23.90487 23.90487 0 0 0 .16546-2.89087q-.00934-34.96542-.03882-69.93085c-.00054-.80521-.07828-.85387-.80164-.4295a7.93874 7.93874 0 0 0-2.45929 2.46017 31.98268 31.98268 0 0 0-4.12722 9.9427 104.22614 104.22614 0 0 0-2.57815 13.37808c-.06656.47994-.206.66439-.69573.628a10.13349 10.13349 0 0 0-1.60139-.00284c-.59131.05017-.78462-.13114-.76334-.75277.07478-2.18445.08877-4.371.12267-6.5568.11624-7.4979.24167-14.99569.32962-22.49392.00843-.71728.23439-.8651.90873-.864q17.6696.02928 35.33916-.00468c.74432-.00165.92382.2032.93359.92362q.19628 14.48745.457 28.974c.0099.56908-.09475.87154-.73816.77706a6.46715 6.46715 0 0 0-.91484-.00986c-1.351-.00337-1.32128-.00756-1.51092-1.34776a83.501 83.501 0 0 0-3.99968-17.56459 17.37583 17.37583 0 0 0-4.11277-6.78187 5.40362 5.40362 0 0 0-1.17962-.83147c-.436-.23518-.58776-.12181-.58174.36263.01708 1.37227.01421 2.74481.01431 4.11725q.0012 16.12913.00044 32.25825zM21.65144 9.00354c4.19776-.00031 8.39569.01928 12.5931-.01894.7282-.00663.92683.22306.86278.89588-.07182.75451.29069 1.68-.12787 2.22812-.40509.53049-1.376.28883-2.09235.42254-2.83329.52885-4.16316 2.04179-4.70735 5.386a22.15037 22.15037 0 0 0-.28223 3.56573q.00118 31.07459-.0007 62.14918a20.757 20.757 0 0 0 .40352 4.0881c.55988 2.793 2.12755 4.33168 5.38734 4.70427 1.40371.16044 1.40966.10844 1.41743 1.49367.01048 1.86826.01047 1.87724-1.84282 1.87646-8.11559-.00342-16.2312-.02076-24.34674-.00387-.65195.00136-.83645-.18521-.78073-.80779a10.7262 10.7262 0 0 0 .00018-1.8281c-.04258-.51708.18739-.65185.64-.67876.48049-.02856.95872-.10515 1.43616-.17315a5.012 5.012 0 0 0 4.35642-3.925 15.61846 15.61846 0 0 0 .61615-4.361q-.0034-31.60837.001-63.21676a16.685 16.685 0 0 0-.35989-3.40454c-.68542-3.30033-2.2017-4.67631-5.67756-5.01487-.81978-.07985-1.12107-.30851-1.01363-1.128A7.30989 7.30989 0 0 0 8.13644 9.654c-.051-.5611.18134-.66317.69285-.66091 4.27398.01891 8.54808.01077 12.82215.01045zM363.3534 68.1259q-4.69269 0-9.38538-.00271c-.45774-.00076-.77013.06392-.77218.65471a61.6389 61.6389 0 0 0 1.03723 13.34348 18.20848 18.20848 0 0 0 1.81008 5.074c2.49411 4.47475 7.21179 3.86821 9.77883 1.10971a15.72476 15.72476 0 0 0 3.47734-6.86019 30.1865 30.1865 0 0 0 .95494-5.00605c.04085-.43365.191-.64161.659-.60845.48088.03407.96612.00715 1.44942.00722 1.1348.00017 1.15843.00265 1.04714 1.09637-.50316 4.9453-1.47726 9.7477-4.371 13.94449a12.21807 12.21807 0 0 1-8.25792 5.514c-4.77739.78091-8.71567-.87567-11.894-4.39482a26.65565 26.65565 0 0 1-6.02444-12.48412 57.24552 57.24552 0 0 1 .84686-28.11764 25.51176 25.51176 0 0 1 5.03764-9.82736 12.47326 12.47326 0 0 1 6.99775-4.48058c4.67031-.95158 8.4477.63958 11.38945 4.30414a24.95861 24.95861 0 0 1 4.47405 9.67859 65.96587 65.96587 0 0 1 1.83389 16.31164c.001.53351-.17907.69477-.70248.69165-3.12865-.01865-6.25752-.00923-9.38628-.00923zm-.70628-11.03176a79.33041 79.33041 0 0 0-.50876-9.34489 13.663 13.663 0 0 0-1.61624-5.66489 2.6115 2.6115 0 0 0-4.66513-.01942 11.12963 11.12963 0 0 0-1.46892 3.81529c-1.20974 5.52237-1.2649 11.13349-1.26785 16.74893-.00026.54146.25474.61666.70263.61685 2.72041.00113 5.441.00637 8.161.04456.55315.00776.679-.19212.67293-.70254-.0236-2.00653-.00966-4.0135-.00966-5.49389zM186.12766 84.47408c-.00019-3.78693.01-7.57392-.01159-11.36073-.00311-.54641.11229-.7979.70906-.74053.50412.04848 1.01679.00052 1.52528.01248 1.32953.03128 1.03828-.21744 1.26854 1.1146a41.45909 41.45909 0 0 0 3.86259 12.61439 14.0542 14.0542 0 0 0 4.10349 5.03749 6.53159 6.53159 0 0 0 3.14577 1.27157 5.31307 5.31307 0 0 0 5.867-3.8125 9.93587 9.93587 0 0 0-1.30857-8.87124 14.93386 14.93386 0 0 0-3.34587-3.62933c-2.7142-2.18484-5.38412-4.42222-7.95758-6.771-3.02187-2.75812-5.65335-5.82658-6.81221-9.84153-1.80165-6.24186-1.57209-12.3156 2.03915-17.94721a9.8177 9.8177 0 0 1 6.25042-4.54246 9.0399 9.0399 0 0 1 6.05832.90391c.73058.3562 1.44475.74593 2.17389 1.10523 1.895.9338 3.06287.58178 3.949-1.34161a1.172 1.172 0 0 1 1.3166-.77054c1.96783.03043 1.95611.01105 1.98337 1.98546.08388 6.0742.04631 12.14838.03535 18.22269-.00127.70042-.192.94754-.89577.87923-.7304-.07088-1.62571.19714-2.16169-.13953-.55224-.34688-.43912-1.33373-.62713-2.03706a40.36549 40.36549 0 0 0-3.91548-10.36596 11.98853 11.98853 0 0 0-2.9842-3.528c-2.63262-2.01079-5.75282-1.39682-7.26862 1.54909a7.98345 7.98345 0 0 0 .45689 8.13431 13.58335 13.58335 0 0 0 3.16389 3.48687c2.31613 1.90594 4.69068 3.74182 6.98611 5.67192a37.012 37.012 0 0 1 6.0086 6.36447 20.56461 20.56461 0 0 1 3.78507 14.84767 18.95738 18.95738 0 0 1-3.50943 9.45653 11.58648 11.58648 0 0 1-7.62208 5.02441 10.50868 10.50868 0 0 1-6.75367-1.35567c-.85079-.45622-1.69625-.923-2.55621-1.36134a1.7831 1.7831 0 0 0-2.17341.34705 11.81089 11.81089 0 0 0-1.6611 1.88461 1.26047 1.26047 0 0 1-1.19808.58967c-1.92509-.03855-1.9255-.017-1.9255-1.94653q0-5.07045-.0002-10.14088zm191.41759.00515q.00078-5.56551.00067-11.131c.00011-.96319.00112-.96332.99947-.9646.35611-.00046.71232-.00661 1.06824.001 1.57737.03366 1.176-.22793 1.44 1.26855.81966 4.646 1.91216 9.20234 4.32591 13.32658a11.1681 11.1681 0 0 0 4.943 4.92081 5.39989 5.39989 0 0 0 7.73226-3.43531c1.15507-3.60911.155-6.80515-2.06239-9.71356a16.82633 16.82633 0 0 0-2.92784-2.88272c-2.65988-2.13019-5.26289-4.32852-7.77482-6.63105-3.11627-2.85648-5.76795-6.06381-6.86165-10.24386-1.59171-6.08373-1.32334-11.99323 2.19484-17.43986a9.85155 9.85155 0 0 1 6.32278-4.56281 9.295 9.295 0 0 1 6.26043 1.047c.6354.31952 1.25909.66248 1.897.97689 1.91856.94563 3.09.56728 3.989-1.4001a1.01116 1.01116 0 0 1 1.20319-.70514c.64978.073 1.49519-.27225 1.90906.1444.4126.41532.12649 1.25678.13827 1.91034.10916 6.0479.06552 12.09611.04014 18.14443-.00284.679-.16466.95936-.88507.88436-.72961-.076-1.62347.19571-2.16271-.1392-.55747-.34624-.44234-1.3335-.6288-2.03686a39.74927 39.74927 0 0 0-3.99086-10.4963A11.69566 11.69566 0 0 0 391.751 41.876c-2.56928-1.925-5.61035-1.35424-7.13453 1.45955a7.95938 7.95938 0 0 0 .37891 8.26631 14.67479 14.67479 0 0 0 3.21545 3.54328c2.30981 1.99415 4.83012 3.72874 7.114 5.75541a40.95317 40.95317 0 0 1 5.82863 6.22246 21.25823 21.25823 0 0 1 .32409 24.2388 11.47423 11.47423 0 0 1-7.659 5.09355 10.48789 10.48789 0 0 1-6.75371-1.34966c-.80609-.4319-1.5944-.90052-2.41887-1.29379a1.81035 1.81035 0 0 0-2.47651.42675 15.47142 15.47142 0 0 0-1.49546 1.72714 1.28874 1.28874 0 0 1-1.19671.59646c-1.93213-.03943-1.93261-.01687-1.93261-1.94311q.00001-5.06997.00057-10.13992zm-98.9821-21.84769q0 11.24637.0027 22.49273a16.18378 16.18378 0 0 0 .24566 3.11045A3.622 3.622 0 0 0 281.573 91.344a.69606.69606 0 0 1 .61087.84839 17.904 17.904 0 0 0 .01009 2.20973c.046.62125-.19406.76741-.77837.764-3.68829-.0214-7.37674-.00612-11.06515-.01063-1.70428-.00209-3.40874-.04095-5.11265-.02161-.53556.00607-.73782-.16474-.68555-.69375a4.814 4.814 0 0 0 .0003-.99c-.12817-1.17139-.05014-2.05474 1.43245-2.43682 1.24161-.32 1.74111-1.54466 1.98036-2.77394a15.44478 15.44478 0 0 0 .21945-2.96039q.00216-18.41353-.00285-36.82706a15.32749 15.32749 0 0 0-.255-3.33841 3.22424 3.22424 0 0 0-2.68707-2.76034c-.5914-.10335-.71867-.39116-.696-.92532a23.01542 23.01542 0 0 0-.00852-2.43869c-.038-.59586.17744-.78525.75734-.81641 2.717-.146 5.43237-.32383 8.1476-.50123 1.44625-.09449 2.89467-.17755 4.33485-.333.65243-.07044.75039.16986.74933.74192q-.02259 12.27555-.01029 24.55116z"/><path fill="#c83644" d="M266.26046 20.05756a7.18421 7.18421 0 0 1 2.99683-6.1678 5.32592 5.32592 0 0 1 7.24975 1.02493 7.853 7.853 0 0 1 1.12731 8.57394 5.54215 5.54215 0 0 1-5.36784 3.70347c-2.62529-.03705-4.29736-1.58925-5.34995-3.87555a7.25853 7.25853 0 0 1-.6561-3.25899z"/></svg>