<svg viewBox="0 0 178.36 177.17" xmlns="http://www.w3.org/2000/svg" ><linearGradient id="a" gradientUnits="userSpaceOnUse" x1="161.22" x2="111.2" y1="232.04" y2="172.43"><stop offset="0" stop-color="#00002f"/><stop offset="0" stop-color="#00002d"/><stop offset=".01" stop-color="#00002b"/><stop offset=".04" stop-color="#000c36"/><stop offset=".39" stop-color="#006096"/><stop offset=".57" stop-color="#0084c0"/><stop offset=".63" stop-color="#0085c2"/><stop offset="1" stop-color="#0085c4"/></linearGradient><linearGradient id="b" gradientUnits="userSpaceOnUse" x1="187.26" x2="168.72" y1="171.66" y2="258.87"><stop offset="0" stop-color="#00002f"/><stop offset="0" stop-color="#00002d"/><stop offset="0" stop-color="#000026"/><stop offset=".01" stop-color="#00001b"/><stop offset=".01" stop-color="#000019"/><stop offset=".39" stop-color="#005e8f"/><stop offset=".57" stop-color="#0084c0"/><stop offset=".63" stop-color="#0085c2"/><stop offset="1" stop-color="#0085c4"/></linearGradient><linearGradient id="c" gradientUnits="userSpaceOnUse" x1="121.17" x2="117.39" y1="172.01" y2="280.21"><stop offset="0" stop-color="#00002f"/><stop offset="0" stop-color="#00002d"/><stop offset="0" stop-color="#000026"/><stop offset="0" stop-color="#00001b"/><stop offset=".01" stop-color="#000016"/><stop offset=".57" stop-color="#0084c0"/><stop offset=".63" stop-color="#0085c2"/><stop offset="1" stop-color="#0085c4"/></linearGradient><linearGradient id="d" gradientUnits="userSpaceOnUse" x1="71.04" x2="211.89" y1="157.39" y2="167.24"><stop offset="0" stop-color="#00002f"/><stop offset="0" stop-color="#000230"/><stop offset="0" stop-color="#000935"/><stop offset=".01" stop-color="#00113b"/><stop offset=".08" stop-color="#001641"/><stop offset=".19" stop-color="#002553"/><stop offset=".31" stop-color="#003e6f"/><stop offset=".45" stop-color="#006097"/><stop offset=".57" stop-color="#0084c0"/><stop offset=".63" stop-color="#0085c2"/><stop offset="1" stop-color="#0085c4"/></linearGradient><linearGradient id="e" gradientUnits="userSpaceOnUse" x1="131.35" x2="135.15" y1="277.96" y2="272.53"><stop offset="0" stop-color="#00002f"/><stop offset="0" stop-color="#00002d"/><stop offset=".01" stop-color="#00002b"/><stop offset=".19" stop-color="#00032e"/><stop offset=".34" stop-color="#000c39"/><stop offset=".48" stop-color="#001b4a"/><stop offset=".62" stop-color="#003162"/><stop offset=".75" stop-color="#004d82"/><stop offset=".87" stop-color="#006ea8"/><stop offset=".94" stop-color="#0084c0"/><stop offset=".95" stop-color="#0085c2"/><stop offset="1" stop-color="#0085c4"/></linearGradient><linearGradient id="f" gradientUnits="userSpaceOnUse" x1="64.09" x2="107.56" y1="139.24" y2="301.47"><stop offset="0" stop-color="#00002f"/><stop offset="0" stop-color="#00002d"/><stop offset="0" stop-color="#000026"/><stop offset=".01" stop-color="#00001f"/><stop offset=".03" stop-color="#000626"/><stop offset=".4" stop-color="#006094"/><stop offset=".57" stop-color="#0084c0"/><stop offset=".63" stop-color="#0085c2"/><stop offset="1" stop-color="#0085c4"/></linearGradient><linearGradient id="g" gradientUnits="userSpaceOnUse" x1="33.83" x2="211.88" y1="136.26" y2="133.16"><stop offset="0" stop-color="#00002f"/><stop offset="0" stop-color="#000230"/><stop offset="0" stop-color="#000934"/><stop offset=".01" stop-color="#000d37"/><stop offset=".08" stop-color="#00123d"/><stop offset=".19" stop-color="#00214f"/><stop offset=".31" stop-color="#003a6b"/><stop offset=".44" stop-color="#005d93"/><stop offset=".57" stop-color="#0084c0"/><stop offset=".63" stop-color="#0085c2"/><stop offset="1" stop-color="#0085c4"/></linearGradient><path d="m123.36 176.52h.34c6.59 0 12.83.14 18.69.44a67.21 67.21 0 0 0 4.54 17.35 78.41 78.41 0 0 0 17.39 25.61 80 80 0 0 1 -7.78 12.8 108 108 0 0 1 -9.74 11.42c-27.17-21.82-37.18-50.32-41.12-67.08 5.56-.31 11.47-.51 17.68-.54z" fill="url(#a)" transform="translate(-33.96 -120.32)"/><path d="m176.65 254.06c1.23-1.46 2.55-3.08 3.92-4.85a155.8 155.8 0 0 0 29.91-69.87c.11-.71.28-1.89.39-2.66-10.77-1.41-21.09-2.49-30.3-3.27a200.55 200.55 0 0 1 -9.88 32.4c-2.35 5.89-4.58 10.67-6.57 14.51a89.21 89.21 0 0 1 -7.58 12.4 106.86 106.86 0 0 1 -9.75 11.42 115.26 115.26 0 0 0 11.49 8.11 126 126 0 0 0 13.56 7.29c1.29-1.4 2.94-3.25 4.81-5.48z" fill="url(#b)" transform="translate(-33.96 -120.32)"/><path d="m89.35 171.57c3.37-.12 6.79-.23 10.05-.32a126.14 126.14 0 0 0 8.28 28.8 115.31 115.31 0 0 0 20.83 33.95 125.73 125.73 0 0 0 14.22 13.64 141 141 0 0 0 24.84 16.29 181.53 181.53 0 0 1 -19.94 17.39 167 167 0 0 1 -42.35-33.63 139.49 139.49 0 0 1 -23.76-36.72 130.86 130.86 0 0 1 -10-38.6c4.71-.3 11.17-.57 17.83-.8z" fill="url(#c)" transform="translate(-33.96 -120.32)"/><path d="m72.85 149.84c12.21-1.2 29.37-2.43 50.05-2.39 3.41 0 9.88.06 20.29.43 16.82.6 40.29 1.94 69.1 5.2a151.3 151.3 0 0 1 -1.42 23.6 652.28 652.28 0 0 0 -67.94-5.37c-7.74-.19-14.63-.2-20.3-.21-21 0-38.51.7-51.06 1.39a125.46 125.46 0 0 1 0-22.53z" fill="url(#d)" transform="translate(-33.96 -120.32)"/><path d="m119.15 268.85a160.09 160.09 0 0 0 23.52 16l.9-.64c1.55-1.1 2.6-1.87 4.05-3a166.34 166.34 0 0 1 -24-16.23z" fill="url(#e)" transform="translate(-33.96 -120.32)"/><path d="m34 149.92a166.73 166.73 0 0 0 2.44 29.61c2.67 15.44 7.52 41.6 28.84 69.65 18.07 23.82 40.55 39.14 57.12 48.32a199.3 199.3 0 0 0 20.3-12.5 173.87 173.87 0 0 1 -44.07-35.77c-5.91-6.79-27-32.27-32.85-70.09a128.83 128.83 0 0 1 -.54-35.31c-11.12 1-21.55 2.2-31.24 3.53z" fill="url(#f)" transform="translate(-33.96 -120.32)"/><path d="m195.74 124.63c4.72.55 9.27 1.15 13.67 1.77.61 2.88 1.15 5.92 1.6 9.11.6 4.27 1 8.32 1.13 12.13a657.92 657.92 0 0 0 -178.11 0 161.43 161.43 0 0 1 1.83-21.25 622.21 622.21 0 0 1 159.88-1.77z" fill="url(#g)" transform="translate(-33.96 -120.32)"/></svg>