<?xml version="1.0" ?>
<svg xmlns="http://www.w3.org/2000/svg" viewBox="0 0 250 100">
	<defs>
		<linearGradient id="i" x1="79.056%" x2="0%" y1="6.545%" y2="95.87%">
			<stop stop-color="#CFB2E8" offset="0"/>
			<stop stop-color="#C2B2D8" offset="1"/>
		</linearGradient>
		<linearGradient id="h" x1="68.594%" x2="0%" y1="12.768%" y2="95.87%">
			<stop stop-color="#DFCCF0" offset="0"/>
			<stop stop-color="#D7CCE6" offset="1"/>
		</linearGradient>
		<linearGradient id="g" x1="50%" x2="0%" y2="97.028%">
			<stop stop-color="#6200B4" offset="0"/>
			<stop stop-color="#33007D" offset="1"/>
		</linearGradient>
		<linearGradient id="f" x1="64.707%" x2="0%" y1="6.4518%" y2="95.87%">
			<stop stop-color="#6F19B8" offset="0"/>
			<stop stop-color="#47198A" offset="1"/>
		</linearGradient>
		<linearGradient id="e" x1="50%" x2="0%" y1="3.8303%" y2="95.87%">
			<stop stop-color="#7F33C1" offset="0"/>
			<stop stop-color="#5C3397" offset="1"/>
		</linearGradient>
		<linearGradient id="d" x1="50%" x2="0%" y1="7.4772%" y2="95.87%">
			<stop stop-color="#8E4CC7" offset="0"/>
			<stop stop-color="#704CA4" offset="1"/>
		</linearGradient>
		<linearGradient id="c" x1="67.899%" x2="0%" y1="17.895%" y2="95.87%">
			<stop stop-color="#9F66D0" offset="0"/>
			<stop stop-color="#8768B3" offset="1"/>
		</linearGradient>
		<linearGradient id="b" x1="75.62%" x2="0%" y1="21.751%" y2="95.87%">
			<stop stop-color="#B07FD9" offset="0"/>
			<stop stop-color="#9C82C0" offset="1"/>
		</linearGradient>
		<linearGradient id="a" x1="63.63%" x2="0%" y1="9.8527%" y2="95.87%">
			<stop stop-color="#BF99E0" offset="0"/>
			<stop stop-color="#AE99CB" offset="1"/>
		</linearGradient>
	</defs>
	<g fill="none" fill-rule="evenodd">
		<ellipse cx="50.563" cy="50" rx="45.575" ry="45.686"/>
		<path transform="translate(64.304 22.157) rotate(5) translate(-64.304 -22.157)" d="m53.106 5.4202c0.62005 2.6422 0.93008 7.5403 0.93008 14.694s-0.31003 13.423-0.93008 18.807c3.7451-4.1877 7.7506-8.7742 12.017-13.759 4.266-4.9853 7.7258-9.6092 10.38-13.872-2.9266-1.9692-6.6594-3.4773-11.198-4.5242-4.5388-1.0469-8.2715-1.4956-11.198-1.346z" fill="url(#i)"/>
		<path transform="translate(78.68 37.647) rotate(45) translate(-78.68 -37.647)" d="m67.482 20.91c0.62005 2.6422 0.93008 7.5403 0.93008 14.694 0 7.1539-0.31003 13.423-0.93008 18.807 3.7451-4.1877 7.7506-8.7742 12.017-13.759 4.266-4.9853 7.7258-9.6092 10.38-13.872-2.9266-1.9692-6.6594-3.4773-11.198-4.5242-4.5388-1.0469-8.2715-1.4956-11.198-1.346z" fill="url(#h)"/>
		<path transform="translate(80.05 58.137) rotate(85) translate(-80.05 -58.137)" d="m68.851 41.401c0.62005 2.6422 0.93008 7.5403 0.93008 14.694 0 7.1539-0.31003 13.423-0.93008 18.807 3.7451-4.1877 7.7506-8.7742 12.017-13.759s7.7258-9.6092 10.38-13.872c-2.9266-1.9692-6.6594-3.4773-11.198-4.5242-4.5388-1.0469-8.2715-1.4956-11.198-1.346z" fill="url(#g)"/>
		<path transform="translate(67.922 75.196) rotate(124) translate(-67.922 -75.196)" d="m56.724 58.459c0.62005 2.6422 0.93008 7.5403 0.93008 14.694 0 7.1539-0.31003 13.423-0.93008 18.807 3.7451-4.1877 7.7506-8.7742 12.017-13.759 4.266-4.9853 7.7258-9.6092 10.38-13.872-2.9266-1.9692-6.6594-3.4773-11.198-4.5242-4.5388-1.0469-8.2715-1.4956-11.198-1.346z" fill="url(#f)"/>
		<path transform="translate(47.678 80.588) rotate(163) translate(-47.678 -80.588)" d="m36.479 63.852c0.62005 2.6422 0.93008 7.5403 0.93008 14.694 0 7.1539-0.31003 13.423-0.93008 18.807 3.7451-4.1877 7.7506-8.7742 12.017-13.759 4.266-4.9853 7.7258-9.6092 10.38-13.872-2.9266-1.9692-6.6594-3.4773-11.198-4.5242s-8.2715-1.4956-11.198-1.346z" fill="url(#e)"/>
		<path transform="translate(28.411 71.275) rotate(204) translate(-28.411 -71.275)" d="m17.213 54.538c0.62005 2.6422 0.93008 7.5403 0.93008 14.694 0 7.1539-0.31003 13.423-0.93008 18.807 3.7451-4.1877 7.7506-8.7742 12.017-13.759s7.7258-9.6092 10.38-13.872c-2.9266-1.9692-6.6594-3.4773-11.198-4.5242-4.5388-1.0469-8.2715-1.4956-11.198-1.346z" fill="url(#d)"/>
		<path transform="translate(20 52.647) rotate(244) translate(-20 -52.647)" d="m8.802 35.91c0.62005 2.6422 0.93008 7.5403 0.93008 14.694 0 7.1539-0.31003 13.423-0.93008 18.807 3.7451-4.1877 7.7506-8.7742 12.017-13.759s7.7258-9.6092 10.38-13.872c-2.9266-1.9692-6.6594-3.4773-11.198-4.5242-4.5388-1.0469-8.2715-1.4956-11.198-1.346z" fill="url(#c)"/>
		<path transform="translate(25.184 32.843) rotate(-75) translate(-25.184 -32.843)" d="m13.985 16.106c0.62005 2.6422 0.93008 7.5403 0.93008 14.694 0 7.1539-0.31003 13.423-0.93008 18.807 3.7451-4.1877 7.7506-8.7742 12.017-13.759 4.266-4.9853 7.7258-9.6092 10.38-13.872-2.9266-1.9692-6.6594-3.4773-11.198-4.5242-4.5388-1.0469-8.2715-1.4956-11.198-1.346z" fill="url(#b)"/>
		<path transform="translate(42.494 20.196) rotate(-36) translate(-42.494 -20.196)" d="m31.296 3.4594c0.62005 2.6422 0.93008 7.5403 0.93008 14.694 0 7.1539-0.31003 13.423-0.93008 18.807 3.7451-4.1877 7.7506-8.7742 12.017-13.759 4.266-4.9853 7.7258-9.6092 10.38-13.872-2.9266-1.9692-6.6594-3.4773-11.198-4.5242-4.5388-1.0469-8.2715-1.4956-11.198-1.346z" fill="url(#a)"/>
		<path d="m126.38 19.592c0.97548-0.18584 2.0496-0.33102 3.2225-0.43555s2.34-0.1568 3.5012-0.1568c1.2077 0 2.4212 0.098724 3.6406 0.29618 1.2193 0.19745 2.3167 0.59235 3.2922 1.1847 0.97548 0.59236 1.7709 1.417 2.3864 2.4739s0.92321 2.4333 0.92321 4.129c0 1.4867-0.26709 2.7585-0.80128 3.8154-0.53419 1.0569-1.2426 1.928-2.1251 2.6133-0.88257 0.68527-1.8871 1.1847-3.0135 1.4983-1.1264 0.3136-2.2935 0.4704-3.5012 0.4704h-0.55741c-0.25548 0-0.52257-0.0058074-0.80128-0.017422s-0.5516-0.029037-0.8187-0.052266c-0.26709-0.02323-0.4587-0.046459-0.57483-0.069689v8.3975h-4.7728v-24.147zm7.107 3.5193c-0.46451 0-0.90579 0.017422-1.3239 0.052266-0.41806 0.034844-0.75483 0.075496-1.0103 0.12196v7.9097c0.092903 0.02323 0.23225 0.046459 0.41806 0.069689s0.38322 0.040652 0.59225 0.052266c0.20903 0.011615 0.41225 0.017422 0.60967 0.017422h0.43548c0.62709 0 1.2484-0.058073 1.8638-0.17422s1.1671-0.33102 1.6548-0.64462c0.48774-0.3136 0.87676-0.74915 1.1671-1.3067 0.29032-0.55751 0.43548-1.2892 0.43548-2.1952 0-0.76658-0.13935-1.3996-0.41806-1.899-0.27871-0.49944-0.6445-0.90014-1.0974-1.2021-0.4529-0.30199-0.96966-0.51105-1.5503-0.6272-0.58064-0.11615-1.1729-0.17422-1.7767-0.17422zm13.631 4.3904c0.92902-0.41813 2.0032-0.77819 3.2225-1.0802 1.2193-0.30199 2.6651-0.45298 4.3374-0.45298 1.2077 0 2.2354 0.14518 3.0832 0.43555 0.84774 0.29037 1.5329 0.70269 2.0555 1.237s0.89999 1.1731 1.1322 1.9164 0.34838 1.5796 0.34838 2.5088c0 1.1847-0.040644 2.1952-0.12193 3.0315-0.081289 0.83627-0.12193 1.5796-0.12193 2.23 0 0.48782 0.023225 1.0337 0.069676 1.6377 0.046451 0.32522 0.081289 0.63881 0.10452 0.9408h2.2645v3.8329h-5.7831l-0.4529-2.3694h-0.17419c-0.46451 0.72012-1.1264 1.3415-1.9858 1.8642s-2.0206 0.784-3.4838 0.784c-1.7419 0-3.1238-0.46459-4.1457-1.3938s-1.5329-2.1603-1.5329-3.6935c0-0.97564 0.18-1.8177 0.53999-2.5262 0.36-0.7085 0.88256-1.2892 1.5677-1.7422 0.68516-0.45298 1.5097-0.7898 2.4735-1.0105 0.96386-0.22068 2.038-0.33102 3.2225-0.33102 0.41806 0 0.85934 0.023229 1.3239 0.069688s1.0335 0.092918 1.7071 0.13938c0.046452-0.2323 0.069677-0.46459 0.069677-0.69689v-0.66204c0-0.88273-0.25548-1.5157-0.76644-1.899-0.51096-0.38329-1.2658-0.57493-2.2645-0.57493-1.1845 0-2.2529 0.15099-3.2051 0.45298s-1.7535 0.60397-2.4038 0.90595l-1.08-3.5541zm5.9573 12.788c1.1148 0 1.9509-0.20326 2.5084-0.60978s0.96386-0.84207 1.2193-1.3067v-2.0907c-0.23226-0.046459-0.58064-0.098725-1.0451-0.1568s-0.96385-0.087111-1.498-0.087111c-0.44129 0-0.88257 0.040651-1.3239 0.12196-0.44129 0.081304-0.83612 0.20906-1.1845 0.38329s-0.62709 0.40071-0.83612 0.67946c-0.20903 0.27876-0.31354 0.61558-0.31354 1.0105 0 0.65043 0.19161 1.1557 0.57483 1.5157 0.38322 0.36006 1.0161 0.54009 1.8987 0.54009zm30.074 1.7771c-0.95225 0.72012-2.0671 1.2602-3.3445 1.6203-1.2774 0.36006-2.6129 0.54009-4.0064 0.54009-1.5097 0-2.8509-0.22068-4.0238-0.66204s-2.16-1.0627-2.9612-1.8642c-0.80128-0.80142-1.4109-1.7712-1.829-2.9095-0.41806-1.1383-0.62709-2.3926-0.62709-3.7632 0-1.4635 0.24386-2.7643 0.7316-3.9026 0.48774-1.1383 1.1671-2.1023 2.038-2.8921 0.87096-0.78981 1.8987-1.388 3.0832-1.7945 1.1845-0.40652 2.4735-0.60978 3.867-0.60978 1.3006 0 2.52 0.15099 3.658 0.45298s2.009 0.59235 2.6129 0.87111v6.1326h-3.8322v-3.2057c-0.71999-0.16261-1.44-0.24391-2.16-0.24391-0.65032 0-1.2948 0.098724-1.9335 0.29618-0.6387 0.19745-1.2077 0.51105-1.7071 0.9408-0.49935 0.42975-0.90579 0.96983-1.2193 1.6203-0.31354 0.65043-0.47032 1.4286-0.47032 2.3346 0 0.74335 0.12774 1.4286 0.38322 2.0558 0.25548 0.6272 0.61547 1.1731 1.08 1.6377 0.46451 0.46459 1.0393 0.83045 1.7245 1.0976 0.68516 0.26714 1.4458 0.40071 2.2819 0.40071 1.3239 0 2.4096-0.18583 3.2574-0.55751 0.84773-0.37167 1.4806-0.69688 1.8987-0.97564l1.498 3.3799zm1.1239-22.718h7.3857v13.903h1.0451l5.7135-6.934h5.3302l-7.0373 7.9445 4.5638 5.6448h3.24v3.8329h-5.6438l-5.9922-7.2128h-1.2193v7.2128h-4.529v-20.558h-2.8567v-3.8329zm38.749 22.544c-0.30193 0.27876-0.69096 0.5517-1.1671 0.81884-0.47612 0.26714-1.0335 0.51686-1.6722 0.74915s-1.3413 0.41813-2.1077 0.55751c-0.76644 0.13938-1.5793 0.20907-2.4387 0.20907-1.4864 0-2.8161-0.20906-3.989-0.6272s-2.1658-1.0279-2.9787-1.8293-1.4342-1.7654-1.8638-2.8921c-0.42967-1.1266-0.64451-2.4101-0.64451-3.8503 0-1.5332 0.24386-2.8746 0.7316-4.0245 0.48774-1.1499 1.1555-2.1081 2.0032-2.8747s1.8406-1.3415 2.9787-1.7248c1.1381-0.38329 2.369-0.57493 3.6929-0.57493 0.88257 0 1.7942 0.11615 2.7348 0.34844 0.94064 0.2323 1.8058 0.633 2.5954 1.2021 0.78967 0.56913 1.4342 1.3299 1.9335 2.2823 0.49935 0.95242 0.74902 2.1603 0.74902 3.6238 0 0.99887-0.11613 2.079-0.34838 3.2405h-12.542c0.023226 0.74335 0.18 1.3705 0.47032 1.8816 0.29032 0.51105 0.67354 0.92918 1.1497 1.2544 0.47612 0.32522 1.0219 0.56332 1.6374 0.71431 0.61548 0.15099 1.2716 0.22649 1.9684 0.22649 1.3935 0 2.5374-0.1626 3.4316-0.48782 0.89418-0.32521 1.62-0.72011 2.1774-1.1847l1.498 2.9618zm-7.5251-12.439c-0.60386 0-1.1729 0.081302-1.7071 0.24391-0.53419 0.16261-1.0161 0.40071-1.4458 0.71431-0.42967 0.3136-0.78386 0.70269-1.0626 1.1673s-0.44128 0.98725-0.48774 1.568h8.5702c0-1.1383-0.31935-2.0384-0.95805-2.7004s-1.6084-0.99306-2.909-0.99306zm13.108 0.69689h-3.449v-3.8329h3.449v-3.9722l4.529-1.2892v5.2615h9.1276v3.8329h-9.1276v4.9827c0 1.7887 0.33677 3.0837 1.0103 3.8851 0.67354 0.80142 1.6142 1.2021 2.8219 1.2021 0.62709 0 1.1961-0.075495 1.7071-0.22649 0.51096-0.15099 0.96966-0.34263 1.3761-0.57493s0.77805-0.48782 1.1148-0.76657c0.33677-0.27876 0.6445-0.53428 0.92321-0.76657l2.0903 3.136c-0.39484 0.46459-0.88837 0.88853-1.4806 1.2718-0.59225 0.38329-1.2309 0.72011-1.9161 1.0105-0.68516 0.29037-1.3993 0.51686-2.1426 0.67946-0.74322 0.16261-1.4748 0.24391-2.1948 0.24391-2.6013 0-4.558-0.72592-5.8702-2.1778-1.3122-1.4519-1.9684-3.7574-1.9684-6.9166v-4.9827zm-86.2 31.772c0 0.60397-0.075482 1.2079-0.22645 1.8119-0.15097 0.60397-0.40064 1.1557-0.74902 1.6551s-0.80128 0.94079-1.3587 1.3241c-0.55742 0.38329-1.2309 0.66785-2.0206 0.85368v0.20907c0.69677 0.11615 1.3587 0.3136 1.9858 0.59235s1.1729 0.66204 1.6374 1.1499c0.46451 0.48782 0.83031 1.0802 1.0974 1.7771s0.40064 1.5215 0.40064 2.4739c0 1.2544-0.26709 2.3404-0.80128 3.2579-0.53419 0.91757-1.2484 1.6667-2.1426 2.2475-0.89419 0.58074-1.9103 1.0105-3.0483 1.2892-1.1381 0.27876-2.3109 0.41813-3.5187 0.41813h-1.5155c-0.61548 0-1.2774-0.017422-1.9858-0.052266-0.70838-0.034844-1.4284-0.08711-2.16-0.1568-0.73161-0.069689-1.3993-0.17422-2.0032-0.3136v-24.043c0.44129-0.069689 0.94644-0.13938 1.5155-0.20907 0.56903-0.069689 1.1787-0.12776 1.829-0.17422 0.65032-0.046459 1.318-0.081303 2.0032-0.10453 0.68515-0.02323 1.3645-0.034844 2.038-0.034844 1.1381 0 2.2471 0.08711 3.327 0.26133s2.0438 0.48201 2.8916 0.92337 1.5271 1.0569 2.038 1.8467c0.51096 0.78981 0.76644 1.7887 0.76644 2.9966zm-8.7096 15.122c0.58064 0 1.1439-0.069688 1.6897-0.20907 0.5458-0.13938 1.0277-0.35425 1.4458-0.64462s0.75483-0.65623 1.0103-1.0976c0.25548-0.44136 0.38322-0.96402 0.38322-1.568 0-0.76658-0.15096-1.3705-0.4529-1.8119-0.30193-0.44136-0.69676-0.784-1.1845-1.0279-0.48774-0.24391-1.0335-0.40071-1.6374-0.4704-0.60386-0.069689-1.2077-0.10453-1.8116-0.10453h-2.5432v6.7249c0.11613 0.046459 0.30193 0.081303 0.55741 0.10453 0.25548 0.02323 0.52838 0.040652 0.8187 0.052266s0.59225 0.02323 0.90579 0.034844c0.31354 0.011615 0.58644 0.017422 0.8187 0.017422zm-1.5677-10.558c0.32516 0 0.70257-0.011615 1.1322-0.034844 0.42967-0.02323 0.78386-0.058074 1.0626-0.10453 0.88257-0.27876 1.6432-0.69688 2.2819-1.2544 0.6387-0.55751 0.95805-1.2892 0.95805-2.1952 0-0.60397-0.11613-1.1034-0.34838-1.4983s-0.53999-0.7085-0.92321-0.9408c-0.38322-0.2323-0.8187-0.3949-1.3064-0.48782-0.48774-0.092919-0.99869-0.13938-1.5329-0.13938-0.60386 0-1.1613 0.011615-1.6722 0.034844-0.51096 0.02323-0.90579 0.058074-1.1845 0.10453v6.5159h1.5329zm13.213 10.314h4.3199v-9.7564h-4.3199v-3.8329h7.8386l0.52257 2.2997h0.13935c0.65032-0.76658 1.3935-1.4054 2.2296-1.9164s1.8116-0.76657 2.9264-0.76657c1.3935 0 2.4909 0.51104 3.2922 1.5331 0.80128 1.0221 1.2019 2.7295 1.2019 5.1221h-4.0761c0-0.83627-0.12193-1.446-0.3658-1.8293-0.24387-0.38329-0.63289-0.57493-1.1671-0.57493-0.92902 0-1.678 0.23229-2.2471 0.69689s-1.051 0.99887-1.4458 1.6028v7.4218h7.5599v3.8329h-16.409v-3.8329zm20.006-4.8782c0-1.4635 0.22064-2.7643 0.66193-3.9026 0.44129-1.1383 1.0684-2.1023 1.8813-2.8921 0.8129-0.78981 1.7826-1.388 2.909-1.7945s2.3864-0.60978 3.7799-0.60978c1.4632 0 2.7696 0.22068 3.9193 0.66204 1.1497 0.44136 2.1193 1.0627 2.909 1.8642 0.78967 0.80142 1.3877 1.7712 1.7942 2.9095 0.40645 1.1383 0.60967 2.3926 0.60967 3.7632 0 1.4635-0.22064 2.7643-0.66193 3.9026-0.44129 1.1383-1.0684 2.1023-1.8813 2.8921-0.8129 0.78981-1.7826 1.388-2.909 1.7945s-2.3864 0.60978-3.7799 0.60978c-1.4632 0-2.7696-0.22068-3.9193-0.66204s-2.1193-1.0627-2.909-1.8642c-0.78967-0.80142-1.3877-1.7712-1.7942-2.9095-0.40645-1.1383-0.60967-2.3926-0.60967-3.7632zm4.6683 0c0 0.76658 0.10451 1.4751 0.31354 2.1255 0.20903 0.65043 0.51096 1.2195 0.90579 1.7074 0.39484 0.48782 0.87095 0.8653 1.4284 1.1324 0.55742 0.26714 1.1961 0.40071 1.9161 0.40071 1.3471 0 2.4445-0.42974 3.2922-1.2892 0.84773-0.8595 1.2716-2.2184 1.2716-4.0768 0-1.6028-0.39483-2.8979-1.1845-3.8851s-1.9161-1.4809-3.3793-1.4809c-0.65032 0-1.2542 0.098724-1.8116 0.29618s-1.0393 0.51685-1.4458 0.95822c-0.40645 0.44136-0.7258 0.99887-0.95805 1.6725-0.23226 0.67366-0.34838 1.4867-0.34838 2.4391zm14.258-15.68h7.3857v13.903h1.0451l5.7135-6.934h5.3302l-7.0373 7.9445 4.5638 5.6448h3.24v3.8329h-5.6438l-5.9922-7.2128h-1.2193v7.2128h-4.529v-20.558h-2.8567v-3.8329zm38.749 22.544c-0.30193 0.27876-0.69096 0.5517-1.1671 0.81884-0.47612 0.26714-1.0335 0.51686-1.6722 0.74915s-1.3413 0.41813-2.1077 0.55751c-0.76644 0.13938-1.5793 0.20907-2.4387 0.20907-1.4864 0-2.8161-0.20906-3.989-0.6272s-2.1658-1.0279-2.9787-1.8293-1.4342-1.7654-1.8638-2.8921c-0.42967-1.1266-0.64451-2.4101-0.64451-3.8503 0-1.5332 0.24386-2.8746 0.7316-4.0245 0.48774-1.1499 1.1555-2.1081 2.0032-2.8747s1.8406-1.3415 2.9787-1.7248c1.1381-0.38329 2.369-0.57493 3.6929-0.57493 0.88257 0 1.7942 0.11615 2.7348 0.34844 0.94064 0.2323 1.8058 0.633 2.5954 1.2021 0.78967 0.56913 1.4342 1.3299 1.9335 2.2823 0.49935 0.95242 0.74902 2.1603 0.74902 3.6238 0 0.99887-0.11613 2.079-0.34838 3.2405h-12.542c0.023226 0.74335 0.18 1.3705 0.47032 1.8816 0.29032 0.51105 0.67354 0.92918 1.1497 1.2544 0.47612 0.32522 1.0219 0.56332 1.6374 0.71431 0.61548 0.15099 1.2716 0.22649 1.9684 0.22649 1.3935 0 2.5374-0.1626 3.4316-0.48782 0.89418-0.32521 1.62-0.72011 2.1774-1.1847l1.498 2.9618zm-7.5251-12.439c-0.60386 0-1.1729 0.081302-1.7071 0.24391-0.53419 0.16261-1.0161 0.40071-1.4458 0.71431-0.42967 0.3136-0.78386 0.70269-1.0626 1.1673s-0.44128 0.98725-0.48774 1.568h8.5702c0-1.1383-0.31935-2.0384-0.95805-2.7004s-1.6084-0.99306-2.909-0.99306zm10.426 10.453h4.3199v-9.7564h-4.3199v-3.8329h7.8386l0.52257 2.2997h0.13935c0.65032-0.76658 1.3935-1.4054 2.2296-1.9164 0.83612-0.51105 1.8116-0.76657 2.9264-0.76657 1.3935 0 2.4909 0.51104 3.2922 1.5331 0.80128 1.0221 1.2019 2.7295 1.2019 5.1221h-4.0761c0-0.83627-0.12193-1.446-0.3658-1.8293-0.24387-0.38329-0.63289-0.57493-1.1671-0.57493-0.92902 0-1.678 0.23229-2.2471 0.69689s-1.051 0.99887-1.4458 1.6028v7.4218h7.5599v3.8329h-16.409v-3.8329z" fill="#000"/>
	</g>
</svg>