<svg version="1.1" id="Layer_1" xmlns="http://www.w3.org/2000/svg"  x="0px" y="0px" viewBox="0 0 250 250" style="enable-background:new 0 0 250 250;" xml:space="preserve"> <g> <g> <g> <g> <g> <rect x="7.696" y="7.681" fill="rgba(80,228,234,1)" width="234.605" height="234.639"/> </g> </g> <g> <path fill="#173647" d="M127.011,178.008c-2.185-1.818-3.372-4.154-3.805-5.03c-1.177-2.374-1.733-3.946-1.865-5.34 c-3.532,4.059-6.951,7.46-11.095,10.897c-4.502,3.626-9.381,6.301-13.309,6.894c-1.752,0.32-3.56,0.198-5.256-0.367 c-0.867-0.32-1.695-0.716-2.468-1.206c-0.669-0.414-1.281-0.914-1.827-1.488c-1.074-1.243-1.761-2.779-1.95-4.417 c-0.33-2.524-0.292-5.077,0.132-7.582c1.102-6.216,2.807-12.31,5.095-18.197c1.064-2.92,1.281-3.259,2.468-6.226 c0.075-0.207,0.16-0.414,0.245-0.622l1.564-3.862c-9.494,6.527-13.224,8.872-22.228,12.97c-1.893,4.568-3.005,7.704-4.304,12.48 c-1.093,4.172-1.545,8.505-1.337,12.819c0.17,2.505,0.65,4.982,1.45,7.375c0.867,2.562,2.157,4.973,3.796,7.139 c1.601,2.1,3.504,3.956,5.623,5.529c2.025,1.479,14.043,9.927,31.788,3.052c11.171-4.323,18.932-10.671,28.529-21.475 c-1.262,0.188-6.838,0.32-11.246-3.334L127.011,178.008z"/> <path fill="#173647" d="M70.442,87.41c2.552,1.46,3.636,3.551,4.295,5.472c2.534-3.24,3.984-4.973,6.452-7.808 c2.053-2.364,4.248-4.596,6.574-6.687c2.034-1.874,4.276-3.541,6.772-4.728c1.865-0.885,3.702-0.885,4.869-0.433 c1.667,0.64,2.76,2.185,3.042,3.023c0.556,1.243,1.045,3.871,0.631,7.629l13.148-12.216c-0.283-0.725-0.612-1.441-0.97-2.147 c-1.215-2.298-2.844-4.361-4.804-6.066c-0.914-0.81-1.903-1.545-2.929-2.195l-0.753-0.462c-0.198-0.122-0.462-0.254-0.706-0.377 c-0.075-0.047-0.151-0.085-0.226-0.122c-0.65-0.339-1.328-0.622-2.016-0.876c-2.741-0.951-5.67-1.224-8.533-0.782 c-2.421,0.396-4.766,1.168-6.951,2.279c-3.626,1.903-6.96,4.295-9.918,7.121c-2.713,2.543-5.256,5.256-7.629,8.119 c-3.089,3.739-5.077,6.197-7.959,10.361c2.383-0.367,5.764-0.17,7.629,0.895L70.442,87.41z"/> </g> <path fill="#173647" d="M195.381,86.572c-0.311,3.24-0.97,6.433-1.978,9.532c-1.78,5.303-4.022,10.426-6.716,15.315 c-1.017,1.893-2.044,3.73-3.061,5.529h0.104c0,0-18.423,31.223-31.571,47.819c-4.888,6.169-12.602,10.464-18.856,6.019 c-5.736-4.069-3.513-13.233-1.045-16.765c2.713-3.88,11.689-16.332,18.771-27.163c11.105-16.972,17.104-26.25,21.616-37.665 c0.603-1.535,0.998-3.155,1.253-4.785c0.17-1.074,0.16-2.157-0.047-3.221c-0.198-0.819-0.565-2.496-2.072-3.702 c-2.43-1.94-4.37-2.345-8.552-1.639c-3.212,0.546-10.191,3.334-22.831,13.186c-1.799,1.403-3.683,2.703-5.453,4.135 c-0.885,0.706-1.761,1.422-2.609,2.157l-2.807,2.326l-22.652,18.8c-7.629,6.263-15.183,12.574-23.603,18.564 c-2.11,1.498-4.323,2.948-6.706,4.351c-2.571,1.545-5.312,2.797-8.157,3.73c-1.742,0.546-3.541,0.867-5.359,0.951 c-2.053,0.094-4.107-0.198-6.056-0.867c-1.808-0.65-3.494-1.601-5.039-2.75c-7.469-5.519-6.395-15.39-5.378-19.487 c1.526-6.15,3.749-10.634,4.577-12.282c-0.622,1.234,1.262-2.449,1.855-3.636c1.017-2.025,1.243-2.43,1.903-3.683 c2.138-4.041,6.311-6.923,10.238-4.954c2.91,1.46,3.881,5.689,1.893,9.136c-1.592,2.769-10.248,17.076-5.274,21.23 c2.562,2.138,7.196,0.028,9.004-1.14c1.808-1.168,2.487-1.724,4.285-3.193c7.186-5.896,13.638-11.849,20.721-18.527l1.027-0.98 l20.269-19.308l0.735-0.697l1.968-1.846c0.98-0.895,1.969-1.771,2.976-2.628c1.997-1.705,4.031-3.353,6.113-4.945 c4.201-3.24,8.59-6.216,13.158-8.919c4.869-2.948,10.059-5.322,15.475-7.064c3.174-1.008,6.461-1.601,9.777-1.761 c0.443-0.028,0.885-0.028,1.328-0.028h0.358c3.607,0.047,7.158,0.885,10.426,2.449c0.499,0.235,1.064,0.565,1.479,0.81 l1.083,0.65c0.716,0.462,1.441,0.942,2.147,1.469c1.498,1.102,2.892,2.336,4.154,3.683c2.807,2.967,4.888,6.546,6.084,10.445 c1.074,3.683,1.441,7.535,1.074,11.359L195.381,86.572z"/> </g> </g> <g> <g> <path fill="#173647" d="M236.842,13.158v223.684H13.158V13.158H236.842 M250,0h-14.303H12.152H0v13.3V236.88V250h12.152h223.545H250 v-13.12V13.3V0L250,0z"/> </g> </g> </g> </svg>