<svg xmlns="http://www.w3.org/2000/svg" role="img" viewBox="126.49 166.99 546.52 147.02"><defs><style>.cls-1{fill:#231f20}</style></defs><path d="M265.36909 190.855h32.7344c11.9092 0 20.0469.67971 26.6748 7.84761 4.8721 5.002 7.166 11.6407 7.166 18.9395 0 7.4453-2.4297 13.8105-7.7021 19.084-5.1533 5.1367-11.90719 8.4004-29.5137 8.4004h-15.8301v43.4277h-13.5293V190.855zm13.5293 42.88871h16.0928c8.9531 0 22.6152-.6641 22.6152-16.6329 0-15.3046-12.72939-15.3046-19.7783-15.3046h-18.9297v31.9375zm96.9278 54.8105c-.95219-3.373-1.2256-6.625-1.2256-10.1523-6.0781 11.24409-15.2842 12.3242-20.97759 12.3242-15.56441 0-23.93261-8.7969-23.93261-20.0313 0-5.4199 1.876-14.0742 11.9024-19.8926 7.3066-4.0527 18.1347-4.4589 23.5429-4.4589 3.2422 0 5.28131.13469 9.19931.4062 0-8.3984 0-12.0586-2.42581-15.0293-2.57419-3.3887-8.127-4.4668-11.7891-4.4668-12.8457 0-13.5254 8.7988-13.668 11.5059h-12.6992c.3916-3.5098.7979-8.252 4.7198-12.8594 5.1582-5.6816 14.75-7.3066 21.9218-7.3066 9.8819 0 20.4366 3.1035 24.0957 10.0156 2.1797 4.0625 2.30281 7.3086 2.30281 10.4219l-.54791 32.4746c0 1.0781.1485 10.1523 1.08691 17.0488h-11.50581zm-8.7989-33.4258c-5.1464 0-24.4892 0-24.4892 13.80859 0 4.32811 2.6953 11.77151 14.0703 11.77151 6.4941 0 11.3662-2.5664 14.4883-7.3066 2.8437-4.5977 2.9717-8.3926 3.23831-17.8672-2.30281-.2735-4.19141-.4063-7.30771-.4063zm30.9795-64.27341h12.71v97.69921h-12.71V190.855zm67.4444 97.69921c-.9405-3.373-1.2168-6.625-1.2168-10.1523-6.0938 11.24409-15.2989 12.3242-20.9658 12.3242-15.5752 0-23.97759-8.7969-23.97759-20.0313 0-5.4199 1.90719-14.0742 11.92189-19.8926 7.3105-4.0527 18.125-4.4589 23.5469-4.4589 3.23821 0 5.2793.13469 9.19921.4062 0-8.3984 0-12.0586-2.43261-15.0293-2.5752-3.3887-8.1231-4.4668-11.7705-4.4668-12.8575 0-13.5264 8.7988-13.6641 11.5059h-12.7295c.4063-3.5098.8115-8.252 4.7363-12.8594 5.1377-5.6816 14.7608-7.3066 21.9229-7.3066 9.8877 0 20.4238 3.1035 24.0859 10.0156 2.166 4.0625 2.2989 7.3086 2.2989 10.4219l-.5372 32.4746c0 1.0781.1368 10.1523 1.0811 17.0488h-11.499zm-8.8028-33.4258c-5.14639 0-24.4902 0-24.4902 13.80859 0 4.32811 2.707 11.77151 14.0742 11.77151 6.499 0 11.3662-2.5664 14.4834-7.3066 2.833-4.5977 2.9668-8.3926 3.24321-17.8672-2.29011-.2735-4.19141-.4063-7.31061-.4063zm31.1582-26.6523l-.1318-7.8594h12.7178l.1367 10.9766c1.4834-2.8457 6.3486-12.3262 21.7812-12.3262 6.0772 0 24.6368 2.3066 24.6368 23.1426v46.1445h-13v-43.166c0-4.4688-.543-8.5274-3.6534-11.6445-3.2607-3.1114-7.7158-4.5918-12.038-4.5918-9.209 0-17.7266 6.6328-17.7266 20.289v39.1133h-12.7227v-60.0781zm63.1153-7.8594h12.042v-14.4785l12.57811-4.0547v18.5332h15.15529v9.3359H575.542v40.4746c0 3.377 0 9.0704 9.07319 9.0704 2.5723 0 4.9961-.4102 6.0821-.68561v9.88091c-2.2989.4062-5.9502.8008-10.5586.8008-11.6328 0-17.1748-3.3672-17.1748-14.4649v-45.0762h-12.042v-9.3359zm48.71869-29.76171h15.294v14.207h-15.294v-14.207zm1.3545 29.76171h12.7373v67.9375h-12.7373v-67.9375zm24.4561 13.8066c0-4.5957-.2764-9.3359-.6905-13.8066H637.623l.27248 13.127c2.4277-9.4649 10.5576-12.5782 16.2393-13.38871 3.7949-.543 6.6386-.41209 8.7978-.26959v12.4473c-.6689-.26171-1.4844-.4101-2.4375-.5371-.9482-.1387-2.1562-.1387-3.6513-.1387-15.0186 0-18.55278 8.9278-18.55278 20.5664v36.1309h-12.83982v-54.1309z" class="cls-1"/><path d="M186.7686 177.82371c-26.334 0-47.6827 21.3477-47.6827 47.6817s21.3487 47.68159 47.6827 47.68159 47.6816-21.34759 47.6816-47.68159-21.3486-47.6817-47.6816-47.6817zm-.002 80.69729c-18.207 0-32.9668-14.76169-32.9668-32.96879s14.7598-32.9668 32.9668-32.9668c18.208 0 32.9688 14.7598 32.9688 32.9668S204.9746 258.521 186.7666 258.521z" class="cls-1"/><path d="M229.389 269.005l-42.62 18.405-42.621-18.405-7.081 13.573 49.702 21.18 49.7-21.18-7.08-13.573z" class="cls-1"/></svg>