<svg id="Group_837" data-name="Group 837" xmlns="http://www.w3.org/2000/svg" viewBox="0 0 175.881 43.282">
  <path id="Path_1205" data-name="Path 1205" d="M44.4,18.434c-.8,0-1.876-.179-1.876-1.312s.953-1.313,1.876-1.313h3.751A4.472,4.472,0,0,1,51.688,17a3.779,3.779,0,0,1,1.23,3.132l.277,8.978A1.335,1.335,0,0,1,51.9,30.664a1.353,1.353,0,0,1-1.384-1.312l-1.876.925a2.506,2.506,0,0,1-1.66.388H44.37a4.5,4.5,0,0,1-3.106-.925,3.628,3.628,0,0,1-1.414-3.251V25.325a3.42,3.42,0,0,1,1.322-2.953,4.512,4.512,0,0,1,3.167-.984h5.842v-.6c0-2-.461-2.327-2.429-2.327H44.4Zm-.031,5.548c-.738,0-1.814.179-1.814,1.163v1.76c0,.895,1.107,1.074,1.753,1.074h3.013l3.013-1.521v-.567c0-1.462-.431-1.909-1.937-1.909Z" fill="#fff"/>
  <path id="Path_1206" data-name="Path 1206" d="M63,21.119v7.7c0,.895-.185,1.82-1.353,1.82S60.3,29.74,60.3,28.815v-11.1c0-.955.123-1.969,1.353-1.969S63,16.734,63,17.689v.358l2.214-1.4a4.5,4.5,0,0,1,2.368-.895h2.029a3.509,3.509,0,0,1,2.521.955c1.23,1.014,1.168,2.148,1.23,3.58l.277,8.322c.031.925-.123,2-1.322,2-1.107,0-1.322-.895-1.353-1.79l-.277-8.173c-.062-1.641-.185-2.267-1.845-2.267h-.923a1.982,1.982,0,0,0-.861.239Z" fill="#fff"/>
  <path id="Path_1207" data-name="Path 1207" d="M85.3,18.434c-.8,0-1.876-.179-1.876-1.312s.953-1.313,1.876-1.313h3.751A4.472,4.472,0,0,1,92.584,17a3.779,3.779,0,0,1,1.23,3.132l.277,8.978A1.336,1.336,0,0,1,92.8,30.664a1.352,1.352,0,0,1-1.384-1.312l-1.876.925a2.55,2.55,0,0,1-1.691.388H85.235a4.5,4.5,0,0,1-3.106-.925,3.628,3.628,0,0,1-1.415-3.251V25.325a3.42,3.42,0,0,1,1.322-2.953,4.512,4.512,0,0,1,3.167-.984h5.842v-.6c0-2-.461-2.327-2.429-2.327H85.3Zm-.031,5.548c-.738,0-1.814.179-1.814,1.163v1.76c0,.895,1.107,1.074,1.753,1.074h3.013l3.013-1.521v-.567c0-1.462-.43-1.909-1.937-1.909Z" fill="#fff"/>
  <path id="Path_1208" data-name="Path 1208" d="M105.836,18.434c-.554,0-1.538-.119-1.538.746,0,.448.339.6.738.776l6.827,3.013c1.752.776,2.675,1.849,2.675,3.759,0,2.685-1.876,3.937-4.49,3.937h-4.212a5,5,0,0,1-3.413-.835c-.523-.388-1.261-.895-1.261-1.551a1.361,1.361,0,0,1,1.415-1.312,1.325,1.325,0,0,1,1.045.477,2.87,2.87,0,0,0,2.183.567h3.69c.953,0,2.275.09,2.275-1.462,0-.626-.8-1.044-1.414-1.312L103.929,22.4c-1.506-.656-2.4-1.521-2.4-3.222,0-2.088,1.691-3.371,3.751-3.371h4.643a4.167,4.167,0,0,1,3.167.895c.523.418,1.077.746,1.077,1.491a1.353,1.353,0,0,1-1.384,1.313,1.444,1.444,0,0,1-1.168-.537,2.014,2.014,0,0,0-1.692-.537Z" fill="#fff"/>
  <path id="Path_1209" data-name="Path 1209" d="M126.622,30.634a2.906,2.906,0,0,1-2.429-.716l-1.169-.984a3.252,3.252,0,0,1-1.383-2.983v-5.1a3.4,3.4,0,0,1,1.322-3.162l.953-.805a3.756,3.756,0,0,1,3.013-1.1h2.491a4.07,4.07,0,0,1,3.013.955l1.107.865c1.261.955,1.415,2,1.415,3.46v2.118c0,1.521-.246,1.969-1.876,1.969h-8.763v.895a1.272,1.272,0,0,0,.4.776l.677.716a2.343,2.343,0,0,0,1.814.507h5.842c.923,0,1.876.179,1.876,1.312,0,1.163-1.076,1.313-1.876,1.313h-6.426Zm-2.276-8.143h7.9V20.88c0-.507.031-.895-.338-1.253l-1.046-.895a2,2,0,0,0-1.291-.328h-2.306a2.25,2.25,0,0,0-1.384.3l-.923.656c-.338.239-.553.448-.553,1.223v1.909Z" fill="#fff"/>
  <path id="Path_1210" data-name="Path 1210" d="M147.069,30.635a2.906,2.906,0,0,1-2.429-.716l-1.168-.984a3.251,3.251,0,0,1-1.384-2.983v-5.1a3.4,3.4,0,0,1,1.322-3.162l.953-.805a3.759,3.759,0,0,1,3.014-1.1h2.49a4.074,4.074,0,0,1,3.014.955l1.107.865c1.26.955,1.414,2,1.414,3.46v2.118c0,1.521-.246,1.969-1.876,1.969h-8.763v.895a1.268,1.268,0,0,0,.4.776l.676.716a2.344,2.344,0,0,0,1.814.507H153.5c.922,0,1.875.179,1.875,1.312,0,1.163-1.076,1.313-1.875,1.313h-6.427Zm-2.275-8.143h7.9V20.881c0-.507.031-.895-.338-1.253l-1.046-.895a2,2,0,0,0-1.291-.328h-2.306a2.25,2.25,0,0,0-1.384.3l-.922.656c-.339.239-.554.448-.554,1.223v1.909Z" fill="#fff"/>
  <path id="Path_1211" data-name="Path 1211" d="M162.536,17.748c0-.955.123-1.969,1.353-1.969,1.076,0,1.353.895,1.353,1.76v1.074l2.121-1.7a4.236,4.236,0,0,1,2.429-1.134h2.184a3.676,3.676,0,0,1,2.675,1.044,3.793,3.793,0,0,1,1.23,3.013c0,.895-.185,1.849-1.323,1.849-.983,0-1.383-.776-1.383-1.641a1.736,1.736,0,0,0-.277-1.163c-.338-.477-.984-.477-1.66-.477h-.8a2.03,2.03,0,0,0-1.353.626L165.273,22.1v6.712c0,.895-.185,1.82-1.353,1.82s-1.353-.895-1.353-1.82V17.748Z" fill="#fff"/>
  <path id="Path_1212" data-name="Path 1212" d="M40.865,13.632V3.639H10.578V5.489H6.826V0h37.79V13.632Z" fill="#f7cd54"/>
  <path id="Path_1213" data-name="Path 1213" d="M29.334,20.642,27.3,19a1.531,1.531,0,0,0-.922-.477h-.707c-.4,0-.892.507-1.168.776l-1.691,1.551a1.739,1.739,0,0,0-.769,1.4v2.6a1.658,1.658,0,0,0,.4,1.133l2.06,1.909c.4.388.83.746,1.168.746h.707a1.39,1.39,0,0,0,.922-.477l2.029-1.641a1.306,1.306,0,0,0,.553-1.163v-3.58A1.287,1.287,0,0,0,29.334,20.642Z" fill="#fff"/>
  <path id="Path_1214" data-name="Path 1214" d="M0,7.636V43.282H36.744V7.636ZM32.624,24.967c0,1.909-.154,2.6-1.722,3.818l-1.63,1.253a4.378,4.378,0,0,1-2.183,1.193H25.244c-1.23,0-1.783-.775-2.675-1.551l-.523-.507v5.16c0,.895-.184,1.819-1.353,1.819s-1.353-.895-1.353-1.819v-16.5c0-.925.123-1.939,1.353-1.939,1.107,0,1.353.865,1.353,1.73v.328l.523-.477c.707-.6,1.783-1.581,2.552-1.581H27a4.921,4.921,0,0,1,2.275,1.223l1.63,1.223c1.6,1.223,1.722,1.939,1.722,3.818Z" fill="#fff"/>
  <path id="Path_1215" data-name="Path 1215" d="M44.585,32.991H38.958V36.63h5.627Z" fill="#f7cd54"/>
</svg>
