<svg version="1.1" id="Layer_1" xmlns="http://www.w3.org/2000/svg" x="0" y="0" viewBox="0 0 748.8 277.4" xml:space="preserve"><style>.st0{fill:#3c84fa}</style><path class="st0" d="M105.1 277.4c-.6-.1-1.1-.2-1.7-.4-3.9-.9-6.3-4.5-6.1-9 .3-6.1.6-12.1.9-18.2.5-9.4.9-18.9 1.4-28.3.5-10 1-20.1 1.5-30.1.4-8.3.8-16.5 1.2-24.8.4-8.3.7-16.7 1.2-25 .4-6.1.5-12.2-1.3-18.2C96.8 105.8 85.5 94 67.3 90c-15.9-3.5-29.8 1.1-41.5 12.2-7 6.5-11.7 14.5-14.1 23.8-1.2 4.6-1.2 9.2-.7 13.9.6 5.3 1 10.6 1.5 16 .7 6.6 1.3 13.1 2.1 19.6.8 7.2 1.6 14.4 2.5 21.6.9 7.8 1.9 15.6 3 23.4 1 7.6 2.1 15.2 3.3 22.7.7 4.9 1.5 9.8 2.4 14.6.4 2.3 1.8 3.8 4.1 4.2 5.5 1 10.9 1.9 16.4 2.7 5.1.7 10.2 1.3 15.3 1.9 3.8.4 7.6.6 11.3.8 2.4.1 3.8-1.3 3.7-3.7-.1-3-.3-5.9-.5-8.8-.3-4.8-.6-9.6-.9-14.5-.5-8.6-1-17.2-1.4-25.8-.6-10.7-1.1-21.4-1.7-32.2-.6-11.4-1.2-22.8-1.7-34.2-.2-5.1-.5-10.1-.5-15.2 0-5.4 1.2-10.7 3-15.8.7-2.1 2.3-3.2 4.5-3.3.8 0 1.7 0 2.5.1 2.6.6 4.1 3.3 3.2 5.9-1.7 4.8-2.6 9.8-2.6 14.9 0 3.9.4 7.9.6 11.8.4 7.5.7 15 1.1 22.5.6 11.6 1.1 23.3 1.7 34.9l1.2 24c.5 9.5 1 19 1.4 28.5.2 3.6.5 7.2.6 10.9 0 1.1 0 2.3-.3 3.4-1 4.1-4 6.4-8.6 6.1-6.9-.4-13.8-.8-20.7-1.6-6.5-.7-12.9-1.8-19.4-2.8-4.4-.7-8.8-1.6-13.2-2.7-4.5-1.2-7.5-4.3-8.5-8.8-1.2-5.4-2-11-2.9-16.5-.9-5.1-1.7-10.3-2.5-15.4-.7-4.7-1.3-9.3-2-14-.6-4.4-1.3-8.7-1.9-13.1l-1.5-12c-.5-4.4-1.1-8.8-1.6-13.2-.4-3.1-.7-6.1-1-9.2-.4-3.5-.9-7.1-1.2-10.6-.3-2.9-.4-5.7-.8-8.6-.7-5.4-.7-10.8-.8-16.3-.1-5 1.2-9.7 2.9-14.3 2.1-6 5.3-11.4 9.2-16.3 3.7-4.6 8-8.7 12.8-12.1 4.9-3.4 10.1-6 15.7-7.7 5.1-1.5 10.2-2.3 15.5-2.4 8.3-.2 16.4 1 24.1 4.1 3.9 1.6 7.5 3.6 10.9 6.1.6.4.9.4 1.6.1 3-1.8 6-3.7 9.2-5.3 4.4-2.2 9.1-3.5 14-4.3 4.4-.7 8.8-1.1 13.2-.7 3.6.3 7.3.3 10.8 1 16 3 28.2 11.4 36.5 25.5 4 6.8 6.4 14.2 7.5 22.1.7 5.1.3 10.1-.3 15.1-.5 4.2-.8 8.5-1.2 12.7l-2.1 18.9c-.6 4.9-1.1 9.9-1.7 14.8l-2.1 15.6c-.9 6.4-1.7 12.9-2.7 19.3-1 6.4-2 12.9-3.1 19.3-.9 5.2-1.8 10.4-2.6 15.6-.9 5.6-4.6 9.6-10.2 10.6-9.1 1.7-18.2 3.3-27.3 4.7-4.1.7-8.3 1-12.5 1.3-4.1.3-8.3.5-12.5.8-.2 0-.4.1-.5.2-.1.6-.1.6-.2.6zM99.5 97.5c4.5 5.1 8 10.4 10.5 16.2 2.7 6.4 4.4 13 4.4 20 0 2.6-.1 5.3-.2 7.9-.2 5-.5 10-.7 15-.3 5.6-.5 11.2-.8 16.7l-1.2 21.6c-.2 4.5-.5 9.1-.7 13.6-.3 6.4-.6 12.9-1 19.3-.3 5.8-.6 11.6-1 17.4-.2 3.4-.5 6.8-.7 10.1-.2 2.9-.4 5.8-.5 8.7-.1 2.1 1.5 3.5 3.5 3.4 2.8-.1 5.6-.2 8.3-.5 5.4-.6 10.8-1.1 16.1-1.9 6.1-.9 12.2-1.9 18.4-2.9 2.6-.4 4.2-2 4.6-4.6.7-4.2 1.3-8.3 1.9-12.5.7-4.7 1.5-9.4 2.1-14.1.5-3.6.9-7.2 1.4-10.8.5-3.9 1.2-7.9 1.7-11.8.6-4.8 1.1-9.6 1.7-14.5.5-3.8 1-7.6 1.4-11.5.4-3.9.8-7.9 1.2-11.8.5-4.2 1-8.4 1.4-12.5.4-4.1.9-8.1 1.2-12.2.3-4.1.6-8.3.7-12.4 0-2.5-.2-5.1-.8-7.5-2.4-9.7-7.3-18-14.6-24.9-8.5-8-18.7-12.2-30.4-12.2-7.2 0-14.1 1.6-20.7 4.5-2.2 1.3-4.6 2.8-7.2 4.2zM748.8 143.2c-1.1 2.4-2.2 4.8-4 6.7-3.9 4.2-8.7 6.5-14.3 7.5-7.6 1.3-15.2 1-22.5-2-5.9-2.5-10.4-6.7-12.9-12.7-.7-1.7-.5-2.4 1.1-3.3 1.6-.9 3.1-1.8 4.7-2.7.5-.3 1-.5 1.6-.5 2.3-.1 2.4 0 3.3 2.1 1.6 3.7 4.3 6.3 8 7.8 6.5 2.7 13 2.7 19.3-.7 3.7-2.1 5.4-5.8 4.7-9.9-.4-2.6-2.1-4.3-4.2-5.5-3.4-2-7.3-3-11.1-4-5.3-1.4-10.7-2.6-15.6-5.2-5-2.6-8.6-6.3-9.5-12-1.7-9.9 3.1-18.4 12.3-22.4 5.4-2.4 11.1-2.8 16.9-2.2 5.4.5 10.3 2.2 14.5 5.6 2.9 2.3 5.1 5.1 6.6 8.4.6 1.3.3 2.1-.9 2.8-1.7 1-3.3 1.9-5 2.9-2 1.1-3.6.6-4.6-1.4-2.2-4.5-6-7-10.9-8-5.1-1-9.8-.3-14 2.9-4.2 3.2-5.9 11.5 1.4 14.9 1.3.6 2.6 1.3 4 1.7 4.2 1.3 8.5 2.4 12.8 3.6 2.1.6 4.1 1.3 6.1 2 5.6 2.2 10.2 5.5 12.3 11.4-.1 4-.1 8.1-.1 12.2zM378.2 147.1c-14 15.2-40.2 13.9-53.5.3-14.4-14.8-13.7-38.4-.4-52.4 13.5-14.2 39.8-15.3 53.7-.2 0-.4.1-.7.1-.9v-6.2c0-1.5.7-2.2 2.2-2.2h7.3c1.8 0 2.4.6 2.4 2.4v66.4c0 1.8-.6 2.4-2.4 2.4h-7.4c-1.5 0-2.1-.7-2.1-2.2 0-2.4.1-4.8.1-7.4zm.2-26.2c-.4-2.5-.7-5.1-1.3-7.5-3.5-13.3-17.3-21.8-30.5-18.8-16.9 3.9-25.7 22.6-18 38.4 5.3 11 18.1 17.5 30.5 14 11.2-3.2 19.1-13.8 19.3-26.1zM617.8 206v-7.4c0-1.5.4-2.1 1.9-2.1h7.8c1.7 0 2.1.5 2.1 2.3v66.3c0 1.9-.3 2.4-2.2 2.4-2.7.1-5.3 0-8 0-1 0-1.6-.8-1.6-2v-7.4c-1.2 1.1-2.3 2.1-3.4 3-4.5 3.8-9.7 6.3-15.5 7.3-3.4.5-6.8.8-10.2.7-4.6-.1-9.1-1.3-13.4-3.2-4.9-2.2-9.1-5.3-12.5-9.2-3.6-4.1-6.1-8.8-7.6-14-1.3-4.6-1.7-9.2-1.3-13.9.3-3.9 1.2-7.7 2.7-11.3 2.2-5.3 5.5-9.9 9.9-13.7 4.7-4 10.1-6.8 16.2-7.9 2.8-.5 5.7-.9 8.6-.9 7.4 0 14.5 1.7 20.7 6 1.7 1.2 3.2 2.6 4.9 4 .1.2.4.6.9 1zm0 26.3v-1.8c0-.6-.2-1.2-.2-1.8-.5-5.5-2.6-10.4-6.3-14.5-5.3-6-11.9-9.1-20.1-9-8.5.1-15.3 3.8-20.3 10.4-4.9 6.4-6.5 13.9-4.8 21.8 1.9 9.2 7.1 15.8 15.8 19.6 6.8 2.9 13.6 2.8 20.2-.3 10.3-4.7 15.2-13.2 15.7-24.4zM635.9 116.1c-.8-2.6-1.4-5.1-2.3-7.3-3.4-7.9-9.4-13-17.9-14.4-10.6-1.8-22.8 3.6-27.3 15.7-3.2 8.8-3 17.5 1.8 25.7 4.2 7.1 10.7 10.8 18.7 11.9 5.8.8 11.3-.1 16.5-2.8 3.5-1.8 6.3-4.4 8.2-7.8.6-1 1.3-1.4 2.4-1.4 2.8.1 5.7 0 8.5.1 2 0 2.1.3 1.5 2.1-1.9 5.7-5.7 9.9-10.4 13.4-5.4 4-11.6 6-18.2 6.6-7.6.7-15 0-22-3.2-11.3-5.3-18-14.2-20.2-26.5-1.7-9.6-.4-18.7 4.6-27.1 5.4-9.1 13.5-14.4 23.8-16.4 7.3-1.4 14.6-1.2 21.6 1.4 9.8 3.7 16.2 10.8 20 20.4 2.3 5.7 3 11.7 2.6 17.9-.1 1.1-.7 1.8-1.8 1.9-.6.1-1.2.1-1.8.1h-43.8c-.8 0-1.5-.1-2.3-.2-3.1-.5-4.7-2.5-4.6-5.4.1-2.6 2.2-4.5 5.2-4.7H635.9zM257.4 74.8v78.8c0 2.5-.4 2.9-2.9 2.9h-7.1c-1.5 0-2.1-.6-2.1-2.1V66.5c0-1.5.6-2.1 2-2.1 11.6 0 23.3-.3 34.9.1 15.5.6 27.1 11.2 29.3 26 2 13.5-3.8 26.1-15.8 32.4-4.5 2.3-9.2 3.5-14.3 3.6-3.8.1-7.6 0-11.4 0-3.6 0-6-2.7-5.4-6 .4-2.4 2.7-4.2 5.6-4.3h9.1c12.7 0 21.8-10.2 20.4-22.8-1-8.9-5.5-15-14.1-17.7-1.8-.6-3.7-.9-5.5-.9-7.2-.1-14.4 0-21.6 0h-1.1zM656.7 203.5c3.5-3.6 7.4-6 11.9-7.2 7-1.9 14.1-1.9 21 .4 9.1 3.1 14.5 9.7 16.6 19 .6 2.6.9 5.4.9 8.1.1 13.8 0 27.6 0 41.4 0 2-.3 2.4-2.3 2.5-2.6.1-5.2 0-7.8 0-1.1 0-1.7-.7-1.8-1.8v-42.2c0-3.2-.5-6.2-1.8-9.1-2.4-5.3-6.7-8.3-12.4-9.1-6.6-.9-12.6.5-17.6 5.2-3.5 3.4-5.4 7.6-6.2 12.3-.5 2.7-.7 5.5-.7 8.2-.1 11.3 0 22.6 0 33.9 0 2-.3 2.4-2.3 2.5-2.6.1-5.1 0-7.7 0-1.1 0-1.6-.7-1.7-1.7v-85.5c0-2.4.4-2.8 2.8-2.8h6.2c2.3 0 2.7.4 2.7 2.6v21.7c.2.5.2.9.2 1.6zM432 232.1c.1-18.2 12.8-33.4 30.8-36.4 11.3-1.9 21.8 0 31 7.1 7.9 6.1 12.6 14.2 13.9 24.2 1.6 12.7-2.1 23.7-11.5 32.5-6.3 6-14 9-22.7 9.6-7.2.6-14.1-.4-20.6-3.6-11.4-5.7-18.2-14.9-20.3-27.4-.4-2-.4-4-.6-6zm38.1 27c7.7.1 14.2-3.4 18.4-7.7 10.8-10.9 10.3-29.1-1.1-39.5-10.1-9.2-25.7-8.9-35.4.8-7.1 7.1-9.4 15.8-7.4 25.5 2.4 11.9 13.5 21 25.5 20.9zM284.6 203.5c3.7-3.8 7.9-6.2 12.8-7.4 6.7-1.7 13.5-1.6 20.1.6 9.2 3.1 14.6 9.7 16.7 19 .6 2.6.9 5.4.9 8.1.1 13.8 0 27.6 0 41.4 0 2-.3 2.4-2.3 2.5-2.6.1-5.2.1-7.8 0-1.2 0-1.7-.7-1.8-1.8v-1.1c0-14.2.1-28.4-.1-42.6-.1-5.3-1.9-10-6.2-13.5-2.9-2.3-6.4-3.4-10.1-3.5-4.9-.2-9.4.9-13.4 3.8-4.7 3.5-7.1 8.3-8.1 13.8-.5 2.6-.7 5.3-.7 8-.1 11.4 0 22.9 0 34.3 0 2-.3 2.4-2.3 2.5-2.6.1-5.1 0-7.7 0-1.1 0-1.7-.7-1.7-1.7v-66.6c0-2.4.2-2.7 2.6-2.8 2.5-.1 4.9 0 7.4 0 1.1 0 1.6.7 1.7 1.8v5.2zM514.4 92.3c.8-.8 1.4-1.4 2.1-1.9 4.4-3.7 9.4-5.7 15.1-6.3 5.3-.5 10.6-.4 15.7 1.4 9.6 3.3 14.9 10.3 16.9 20 .5 2.6.7 5.2.7 7.8.1 13.5 0 26.9 0 40.4 0 2.3-.5 2.7-2.7 2.7h-6.7c-1.9 0-2.5-.6-2.5-2.5v-19.2c0-7.7.1-15.4 0-23.1-.1-5.2-1.5-9.8-5.5-13.5-2.9-2.7-6.6-4-10.5-4.2-5.7-.3-10.9 1.1-15.3 5-3.8 3.5-5.8 7.9-6.7 12.9-.4 2.6-.7 5.2-.7 7.9-.1 11.4 0 22.9 0 34.3 0 1.9-.5 2.4-2.4 2.4h-7.1c-1.6 0-2.2-.6-2.2-2.2v-66c0-2.5.4-3 3-3h6.4c1.8 0 2.3.6 2.4 2.4v4.7zM12.7 34.3C12.7 16.4 26.9.4 47.3.4 67.8.4 82 16.5 81.9 34.5c-.1 18.1-14.4 33.8-34.6 33.8-20.4 0-34.6-16.1-34.6-34zm34.6 24.8c1-.1 2.1-.2 3.1-.3 11.6-1.7 20.8-11.9 21-23.7.2-7.6-2.5-14.2-8.3-19.3-5.7-5.1-12.4-7.4-20-5.9C29.4 12.7 21 25.6 23.7 39.3 25.9 50.4 36.2 59 47.3 59.1zM102.4 34.2c.1-18 14.3-33.9 34.6-33.9s34.7 15.8 34.6 34c0 18.5-14.7 33.9-34.6 33.9-20.4.1-34.5-16-34.6-34zM137 59.1c1.1-.1 2.1-.2 3.2-.3 11.5-1.5 20.8-12.2 21-23.7.1-7-2.2-13.1-7.1-18-5.8-5.8-12.8-8.6-21-7.1-13.8 2.6-22.6 16-19.6 29.7C115.9 50.6 126 59 137 59.1zM414.8 228.3v36.8c0 2.1-.3 2.5-2.4 2.6-2.7.1-5.4 0-8.1 0-1.2 0-1.7-.6-1.8-1.8v-74c0-2.9-1-3.9-3.9-3.9h-23.3c-2.1 0-2.6-.5-2.6-2.6v-5.6c0-1.4.6-2 2-2h67.6c1.5 0 2.1.6 2.1 2.1v5.2c0 2.6-.4 3-3.1 3h-23.4c-.8 0-1.9.4-2.4 1-.6.6-.8 1.6-.9 2.5.2 12.1.2 24.4.2 36.7zM471.4 118.4v21.3c0 .6.1 1.2.2 1.8.7 3.7 2.8 5.6 6.6 5.7 3.6.1 7.2-.2 10.8-.2 2 0 2.5.5 2.5 2.4v4.9c0 1.5-.5 2-1.9 2.2-4.2.7-8.3.9-12.5.7-4.2-.2-8.3-1.2-11.7-4-3.1-2.6-4.7-6-5.4-9.9-.3-2.1-.5-4.3-.5-6.4V97c0-2-.4-2.4-2.4-2.4h-10c-2 0-2.5-.6-2.5-2.6v-5.3c0-1.7.6-2.4 2.4-2.4h10.4c1.6 0 2.1-.5 2.1-2.1V69c0-2.1.6-2.7 2.7-2.7h6.6c2 0 2.6.6 2.6 2.7v12.8c0 2.1.3 2.5 2.4 2.5h14.9c2.4 0 2.9.5 2.9 2.9v5.2c0 1.5-.6 2.1-2.1 2.2-5.2.1-10.4.1-15.6.1-2.2 0-2.5.3-2.5 2.5v21.2zM416.7 91.6c2.4-1.6 4.7-3.3 7.3-4.6 4.1-2.1 8.7-2.7 13.3-2.5 1.4 0 2 .7 2 2.1v5.6c0 1.7-.6 2.3-2.3 2.3-4.6.1-8.8 1.3-12.5 4.1-4.2 3.2-6.4 7.6-7.2 12.7-.4 2.1-.5 4.2-.5 6.3V154c0 2-.5 2.5-2.4 2.5h-7.1c-1.6 0-2.2-.6-2.2-2.2V87.4c0-1.5.7-2.1 2.1-2.1h7.4c1.6 0 2.1.6 2.1 2.2v4.1zM531.1 203.3c3.2-3.3 6.7-5.3 10.7-6.5 3.3-1 6.6-1.3 10.1-1.1 1.2 0 1.8.7 1.8 1.8.1 2.1.1 4.2 0 6.4 0 1.2-.7 1.7-2.1 1.9-1.9.2-3.8.2-5.6.7-8.1 2-13.6 8.4-14.6 16.9-.2 1.8-.3 3.7-.3 5.5v36.2c0 2.2-.3 2.6-2.5 2.7-2.5.1-5.1 0-7.7 0-1 0-1.5-.6-1.6-1.6v-66.9c0-2.2.2-2.5 2.4-2.6 2.4-.1 4.8 0 7.2 0 1.5 0 2.1.6 2.1 2.1.1 1.3.1 2.7.1 4.5zM670.5 91.8c1.8-1.3 3.3-2.7 5-3.7 4.8-2.9 10-3.8 15.5-3.7 1.4 0 2.1.7 2.1 2.1v5.9c0 1.5-.7 2-2.4 2.1-7.6.3-13.8 3.3-17.5 10.2-2 3.7-2.7 7.7-2.7 11.9v37c0 2.5-.4 2.9-2.8 2.9H661c-1.6 0-2.2-.6-2.2-2.2V87.5c0-1.6.6-2.2 2.2-2.3h6.8c2.1 0 2.6.6 2.6 2.7.1 1.4.1 2.6.1 3.9zM245.3 232.1V199c0-2 .4-2.4 2.3-2.5 2.6-.1 5.1 0 7.7 0 1 0 1.6.6 1.7 1.7V265c0 2.2-.2 2.5-2.4 2.6-2.5.1-5.1 0-7.7 0-1 0-1.5-.7-1.6-1.6v-33.9zM251.1 170c4.1 0 7.2 2.3 7.8 5.9.6 3.4-1.4 6.8-4.6 7.9-2 .7-4 .7-6 .1-3.4-1.1-5.5-4.3-5-7.8.5-3.4 3.4-6 7.1-6.2.2.1.4.1.7.1z"/></svg>