<?xml version="1.0" ?>
<svg xmlns="http://www.w3.org/2000/svg" id="Layer_1" data-name="Layer 1" viewBox="0 0 388.27 54.6">
	<defs>
		<style>
                        .cls-1 {
                            fill: #171717;
                        }
                        </style>
	</defs>
	<path class="cls-1" d="M226.81,299.27l6-1V251l-6-.91v-1.43h20.41q9.61,0,14.3,4.1t4.68,11.83q0,7.72-4.68,11.83t-14.3,4.09h-7.28v17.81l6,1v1.36H226.81Zm19.5-20.35q12,0,12-13.06v-2.6q0-13-12-13h-6.37v28.66Z" transform="translate(-226.81 -247.33)"/>
	<path class="cls-1" d="M277.25,300.63v-1.36l6.37-2.6,18.78-49.34h1l17.75,51,6,1v1.36H308.06v-1.36l5.33-.85L307.86,283H290.57l-5.26,13.65,5.85,2.6v1.36Zm13.84-19h16.32l-7.8-22.88Z" transform="translate(-226.81 -247.33)"/>
	<path class="cls-1" d="M375.66,299.53c-1.22-1.17-2-3.17-2.47-6L372,284.84a12.4,12.4,0,0,0-3-6.93c-1.58-1.66-4-2.5-7.38-2.5h-5.07v22.88l6,1v1.36H343.35v-1.36l6-1V251l-6-.91v-1.43h18.2q10.59,0,15.34,3.32T381.64,262q0,11.19-13.52,12.94v.39a14.31,14.31,0,0,1,8,3.57,13.06,13.06,0,0,1,3.8,7.61l.84,5.59a17.81,17.81,0,0,0,1.2,4.94,2.26,2.26,0,0,0,2.12,1.3,4.32,4.32,0,0,0,2.08-.62,9.59,9.59,0,0,0,2.08-1.59l1.1,1.17a11.6,11.6,0,0,1-3.9,3.05,10.37,10.37,0,0,1-4.35.91q-3.64,0-5.46-1.75m-11.9-25.68a9.47,9.47,0,0,0,7.38-2.89c1.76-1.93,2.63-4.78,2.63-8.55v-1.36q0-10.8-12.22-10.79h-5.07v23.59Z" transform="translate(-226.81 -247.33)"/>
	<polygon class="cls-1" points="189.34 53.3 189.34 51.94 195.32 50.96 195.32 2.92 184.6 2.92 179.66 15.79 177.77 15.79 177.77 1.3 220.09 1.3 220.09 15.79 218.14 15.79 213.26 2.92 202.47 2.92 202.47 50.96 208.45 51.94 208.45 53.3 189.34 53.3">
                    </polygon>
	<polygon class="cls-1" points="239.2 53.3 239.2 51.94 245.18 50.96 245.18 3.64 239.2 2.73 239.2 1.3 258.31 1.3 258.31 2.73 252.33 3.64 252.33 50.96 258.31 51.94 258.31 53.3 239.2 53.3">
                    </polygon>
	<polygon class="cls-1" points="278.65 53.3 278.65 51.94 284.7 49.34 284.7 5.26 278.65 2.73 278.65 1.3 290.74 1.3 318.76 40.56 318.76 5.26 312.71 2.73 312.71 1.3 326.56 1.3 326.56 2.73 320.38 5.26 320.38 53.3 318.76 53.3 286.32 7.74 286.32 49.34 292.56 51.94 292.56 53.3 278.65 53.3">
                    </polygon>
	<path class="cls-1" d="M585.15,298.49a22.61,22.61,0,0,1-8.22-9.62A33.19,33.19,0,0,1,574,274.63a32.85,32.85,0,0,1,3-14.27,22.54,22.54,0,0,1,8.39-9.62,23.05,23.05,0,0,1,12.51-3.41,17.78,17.78,0,0,1,5.69,1,18.47,18.47,0,0,1,5.23,2.73h5.72v12.42h-1.36l-4-10.07a17.88,17.88,0,0,0-5.3-3.32,15.73,15.73,0,0,0-6-1.23,14.06,14.06,0,0,0-8,2.34,15.34,15.34,0,0,0-5.42,6.82,26.63,26.63,0,0,0-2,10.66v11.9a27.38,27.38,0,0,0,1.88,10.66,15.35,15.35,0,0,0,5.27,6.85,13.38,13.38,0,0,0,7.93,2.38A16.24,16.24,0,0,0,604.2,299a15.74,15.74,0,0,0,5.52-3.93l3.77-10.46h1.37l.22,11.45h-4L608.81,298a17.77,17.77,0,0,1-5.33,2.92,18,18,0,0,1-5.91,1,22.41,22.41,0,0,1-12.42-3.44" transform="translate(-226.81 -247.33)"/>
</svg>