<?xml version="1.0" ?>
<svg xmlns="http://www.w3.org/2000/svg" xmlns:xlink="http://www.w3.org/1999/xlink" viewBox="0 0 107.3 35.32">
	<defs>
		<path id="A" d="M 42.634,23.755 C 37.496,23.755 33.814,27.772 33.814,32.455 C 33.814,37.209 37.384,41.3 42.694,41.3 C 47.5,41.3 51.437,37.627 51.437,32.557 C 51.437,26.757 46.857,23.754 42.634,23.754 L 42.634,23.755 M 42.684,27.201 C 45.21,27.201 47.604,29.244 47.604,32.535 C 47.604,35.755 45.22,37.857 42.672,37.857 C 39.872,37.857 37.672,35.615 37.672,32.509 C 37.672,29.469 39.852,27.201 42.692,27.201 L 42.684,27.201"/>
	</defs>
	<g transform="translate(-6 -14)">
		<path d="M 32.377,26.446 L 19.857,26.446 L 19.857,30.161 L 28.737,30.161 C 28.297,35.361 23.964,37.593 19.872,37.593 A 9.76,9.76 0.0 0,1 10.07,27.702 C 10.07,22.078 14.424,17.748 19.884,17.748 C 24.096,17.748 26.578,20.433 26.578,20.433 L 29.178,17.739 C 29.178,17.739 25.838,14.022 19.748,14.022 C 11.993,14.022 5.994,20.567 5.994,27.636 C 5.994,34.563 11.637,41.318 19.944,41.318 C 27.251,41.318 32.6,36.312 32.6,28.91 C 32.6,27.348 32.373,26.446 32.373,26.446 L 32.377,26.446" fill="#4885ed"/>
		<use xlink:href="#A" fill="#db3236"/>
		<use xlink:href="#A" x="19.181" fill="#f4c20d"/>
		<path d="M 80.628,23.765 C 75.912,23.765 72.206,27.895 72.206,32.531 C 72.206,37.811 76.503,41.313 80.546,41.313 C 83.046,41.313 84.376,40.32 85.346,39.181 L 85.346,40.911 C 85.346,43.938 83.508,45.751 80.734,45.751 C 78.054,45.751 76.71,43.758 76.234,42.628 L 72.862,44.028 C 74.058,46.558 76.466,49.195 80.762,49.195 C 85.462,49.195 89.024,46.242 89.024,40.048 L 89.024,24.292 L 85.36,24.292 L 85.36,25.778 C 84.23,24.558 82.682,23.765 80.63,23.765 L 80.628,23.765 M 80.968,27.205 C 83.28,27.205 85.654,29.179 85.654,32.55 C 85.654,35.977 83.284,37.865 80.917,37.865 C 78.403,37.865 76.064,35.825 76.064,32.582 C 76.064,29.214 78.494,27.204 80.968,27.204 L 80.968,27.205" fill="#4885ed"/>
		<path d="M 105.4,23.744 C 100.952,23.744 97.217,27.284 97.217,32.504 C 97.217,38.03 101.38,41.307 105.817,41.307 C 109.529,41.307 111.817,39.277 113.167,37.457 L 110.134,35.439 C 109.347,36.659 108.031,37.854 105.836,37.854 C 103.37,37.854 102.236,36.504 101.533,35.194 L 113.296,30.314 L 112.696,28.884 C 111.56,26.084 108.909,23.744 105.401,23.744 L 105.4,23.744 M 105.553,27.118 C 107.156,27.118 108.309,27.97 108.799,28.992 L 100.943,32.275 C 100.603,29.733 103.013,27.118 105.543,27.118 L 105.553,27.118" fill="#db3236"/>
		<path d="M 91.6,40.787 L 95.464,40.787 L 95.464,14.93 L 91.6,14.93 L 91.6,40.787" fill="#3cba54"/>
	</g>
	<g transform="translate(40.8115 30.535)" fill="#4285f4">
		<path d="M 1.2431,2.8365 L 1.2431,4.5136 L 0.4588,4.5136 L 0.4588,0.0 L 2.1855,0.0 Q 2.9419,0.0 3.3867,0.3937 Q 3.8316,0.7874 3.8316,1.4353 Q 3.8316,2.0987 3.396,2.4676 Q 2.9605,2.8365 2.1762,2.8365 L 1.2431,2.8365 M 1.2431,2.2072 L 2.1855,2.2072 Q 2.604,2.2072 2.8241,2.0103 Q 3.0442,1.8135 3.0442,1.4415 Q 3.0442,1.0757 2.821,0.8571 Q 2.5978,0.6386 2.2072,0.6324 L 1.2431,0.6324 L 1.2431,2.2072" name="P"/>
		<path d="M 2.3901,3.3542 Q 2.3405,3.2581 2.3033,3.0411 Q 1.9437,3.4162 1.4229,3.4162 Q 0.9176,3.4162 0.5983,3.1279 Q 0.279,2.8396 0.279,2.4149 Q 0.279,1.8786 0.6774,1.5918 Q 1.0757,1.3051 1.8166,1.3051 L 2.2785,1.3051 L 2.2785,1.085 Q 2.2785,0.8246 2.1328,0.668 Q 1.9871,0.5115 1.6895,0.5115 Q 1.4322,0.5115 1.2679,0.6401 Q 1.1036,0.7688 1.1036,0.9672 L 0.3503,0.9672 Q 0.3503,0.6913 0.5332,0.4511 Q 0.7161,0.2108 1.0308,0.0744 Q 1.3454,-0.062 1.7329,-0.062 Q 2.3219,-0.062 2.6722,0.234 Q 3.0225,0.5301 3.0318,1.0664 L 3.0318,2.5792 Q 3.0318,3.0318 3.1589,3.3015 L 3.1589,3.3542 L 2.3901,3.3542 M 1.5624,2.8117 Q 1.7856,2.8117 1.9824,2.7032 Q 2.1793,2.5947 2.2785,2.4118 L 2.2785,1.7794 L 1.8724,1.7794 Q 1.4539,1.7794 1.2431,1.9251 Q 1.0323,2.0708 1.0323,2.3374 Q 1.0323,2.5544 1.1764,2.683 Q 1.3206,2.8117 1.5624,2.8117" transform="translate(4.092 1.116)" name="a"/>
		<path d="M 1.3299,-0.062 L 1.3299,0.7533 L 1.922,0.7533 L 1.922,1.3113 L 1.3299,1.3113 L 1.3299,3.1837 Q 1.3299,3.3759 1.4059,3.4611 Q 1.4818,3.5464 1.6771,3.5464 Q 1.8073,3.5464 1.9406,3.5154 L 1.9406,4.0982 Q 1.6833,4.1695 1.4446,4.1695 Q 0.5766,4.1695 0.5766,3.2116 L 0.5766,1.3113 L 0.0248,1.3113 L 0.0248,0.7533 L 0.5766,0.7533 L 0.5766,-0.062 L 1.3299,-0.062" transform="translate(7.533 0.341)" name="t"/>
		<path d="M 1.8631,3.4162 Q 1.147,3.4162 0.7021,2.9651 Q 0.2573,2.5141 0.2573,1.7639 L 0.2573,1.6709 Q 0.2573,1.1687 0.4511,0.7734 Q 0.6448,0.3782 0.9951,0.1581 Q 1.3454,-0.062 1.7763,-0.062 Q 2.4614,-0.062 2.835,0.3751 Q 3.2085,0.8122 3.2085,1.612 L 3.2085,1.9158 L 1.0168,1.9158 Q 1.0509,2.3312 1.2942,2.573 Q 1.5376,2.8148 1.9065,2.8148 Q 2.4242,2.8148 2.7497,2.3963 L 3.1558,2.7838 Q 2.9543,3.0845 2.6179,3.2504 Q 2.2816,3.4162 1.8631,3.4162 M 1.7732,0.5425 Q 1.4632,0.5425 1.2725,0.7595 Q 1.0819,0.9765 1.0292,1.364 L 2.4645,1.364 L 2.4645,1.3082 Q 2.4397,0.93 2.263,0.7362 Q 2.0863,0.5425 1.7732,0.5425" transform="translate(9.765 1.116)" name="e"/>
		<path d="M 1.085,0.062 L 1.1067,0.4495 Q 1.4787,0.0 2.0832,0.0 Q 3.131,0.0 3.1496,1.1997 L 3.1496,3.4162 L 2.3963,3.4162 L 2.3963,1.2431 Q 2.3963,0.9238 2.2584,0.7703 Q 2.1204,0.6169 1.8073,0.6169 Q 1.3516,0.6169 1.1284,1.0292 L 1.1284,3.4162 L 0.3751,3.4162 L 0.3751,0.062 L 1.085,0.062" transform="translate(13.113 1.116)" name="n"/>
		<path d="M 1.3299,-0.062 L 1.3299,0.7533 L 1.922,0.7533 L 1.922,1.3113 L 1.3299,1.3113 L 1.3299,3.1837 Q 1.3299,3.3759 1.4059,3.4611 Q 1.4818,3.5464 1.6771,3.5464 Q 1.8073,3.5464 1.9406,3.5154 L 1.9406,4.0982 Q 1.6833,4.1695 1.4446,4.1695 Q 0.5766,4.1695 0.5766,3.2116 L 0.5766,1.3113 L 0.0248,1.3113 L 0.0248,0.7533 L 0.5766,0.7533 L 0.5766,-0.062 L 1.3299,-0.062" transform="translate(16.74 0.341)" name="t"/>
		<path d="M 2.2661,2.4428 Q 2.2661,2.2413 2.1002,2.1359 Q 1.9344,2.0305 1.55,1.9499 Q 1.1656,1.8693 0.9083,1.7453 Q 0.3441,1.4725 0.3441,0.9548 Q 0.3441,0.5208 0.7099,0.2294 Q 1.0757,-0.062 1.6399,-0.062 Q 2.2413,-0.062 2.6117,0.2356 Q 2.9822,0.5332 2.9822,1.0075 L 2.2289,1.0075 Q 2.2289,0.7905 2.0677,0.6463 Q 1.9065,0.5022 1.6399,0.5022 Q 1.3919,0.5022 1.2353,0.6169 Q 1.0788,0.7316 1.0788,0.9238 Q 1.0788,1.0974 1.2245,1.1935 Q 1.3702,1.2896 1.8135,1.3872 Q 2.2568,1.4849 2.5094,1.6198 Q 2.7621,1.7546 2.8845,1.9437 Q 3.007,2.1328 3.007,2.4025 Q 3.007,2.8551 2.6319,3.1357 Q 2.2568,3.4162 1.6492,3.4162 Q 1.2369,3.4162 0.9145,3.2674 Q 0.5921,3.1186 0.4123,2.8582 Q 0.2325,2.5978 0.2325,2.2971 L 0.9641,2.2971 Q 0.9796,2.5637 1.1656,2.7079 Q 1.3516,2.852 1.6585,2.852 Q 1.9561,2.852 2.1111,2.7388 Q 2.2661,2.6257 2.2661,2.4428" transform="translate(18.91 1.116)" name="s"/>
	</g>
</svg>