<?xml version="1.0" encoding="UTF-8"?>
<svg xmlns="http://www.w3.org/2000/svg" fill="none" viewBox="0 0 2089 666"><g fill="#fff"><path d="m907.548 175.828h-37.835v-61.409h37.835v-24.9875c0-59.2872 44.314-89.42192742 103.532-89.42192742 19.04-.19644558 37.99 2.63234742 56.12 8.32925742v58.26567c-12.76-4.1253-26.07-6.2469-39.47-6.2862-26.27 0-38.907 12.0224-38.907 34.8493v19.2514h81.597v61.409h-82.63v199.942h-80.242z"/><path d="m486.668 277.529v-5.237h-76.889c-21.483 0-34.476 9.997-34.476 24.755 0 19.876 17.179 30.429 46.007 30.429 41.466-.357 65.358-18.765 65.358-49.947zm-183.041 24.914c0-42.569 30.29-73.593 98.807-73.593h84.234v-17.376c0-31.46-17.771-44.076-54.379-44.076-29.855 0-47.034 12.616-47.034 33.642 0 1.587 0 5.792.474 11.029h-73.177c-.671-5.038-1.066-10.116-1.106-15.234 0-52.566 46.007-83.59 124.476-83.59s130.162 36.816 130.162 106.203v157.539h-79.495c2.251-17.495 3.633-35.11 4.107-52.764h-.553c-7.898 36.776-37.2 56.692-84.234 56.692-60.422.277-102.243-25.946-102.243-78.433z"/><path clip-rule="evenodd" d="m650.317 113.245h-79.087l70.507 263.469h61.013c-11.598 31.493-29.434 43.139-57.517 43.099-11.559 0-23.039-1.465-34.241-4.318v61.243c16.644 5.229 34.042 7.606 51.48 7.051 50.249 0 93.109-30.423 115.671-107.115l70.984-263.429h-79.286l-58.908 235.145z" fill-rule="evenodd"/><path d="m1263.69 277.36v-5.232h-76.86c-21.36 0-34.47 9.987-34.47 24.73 0 19.856 17.29 30.398 46.47 30.398 40.9-.357 64.86-18.746 64.86-49.896zm-182.98 24.888c0-42.524 30.4-73.516 98.89-73.516h84.09v-17.359c0-31.428-17.76-44.031-54.36-44.031-29.73 0-47.02 12.603-47.02 33.608 0 3.686.16 7.332.55 11.017h-73.23c-.67-5.033-.99-10.106-1.03-15.218 0-52.512 46.47-83.504 124.44-83.504 82.08 0 130.12 36.778 130.12 106.094v157.377h-79.55c2.14-17.398 3.36-34.915 3.72-52.433h-.56c-7.81 36.779-37.19 56.634-84.21 56.634-60.04 0-101.85-26.197-101.85-78.669z"/><path d="m1369.38 289.418h70.7c0 24.045 12.01 39.798 57.2 39.798 41.13 0 55.46-12.023 55.46-30.95 0-9.324-4.61-16.784-18.5-19.918-19.76-3.69-39.72-6.111-59.79-7.261-36.97-3.175-65.55-9.325-81.05-19.919-7.76-5.952-14.06-13.649-18.31-22.498-4.25-8.848-6.38-18.569-6.18-28.41 0-55.907 57.24-87.015 128.48-87.015 84.2 0 122.74 32.537 122.74 93.165h-69.67c-.55-27.219-13.03-41.384-52.04-41.384-35.31 0-50.94 12.022-50.94 29.838-.47 5.515 1.18 10.991 4.65 15.316 3.46 4.325 8.42 7.102 13.85 7.817 21.02 3.809 42.2 6.428 63.5 7.816 31.72 3.175 54.08 6.349 73.29 17.34 8.82 5.277 16.1 12.776 21.14 21.783 5 9.007 7.6 19.205 7.44 29.521 0 54.519-46.21 86.46-134.11 86.46-89.87-.357-127.86-39.123-127.86-91.499z"/><path clip-rule="evenodd" d="m1688.83 20.5879 92.38.2382v21.4759c-.12 38.7441-31.24 70.184-69.78 70.779h130.92v62.046h-83.15v108.015c0 26.835 12.69 35.251 44.17 35.251 12.17-.079 24.27-1.31 36.2-3.652v60.458c-16.57 3.533-33.46 5.438-50.39 5.716-80.85 0-109.75-35.687-109.75-93.525v-112.223h-37.79v-62.046h47.27v-92.4935z" fill-rule="evenodd"/><path d="m204.413 243.679c0-41.701-23.951-69.896-59.839-69.896-39.472 0-66.0233 28.629-66.0233 71.949v11.492c0 37.08 26.5513 61.564 66.5753 61.564 35.336 0 59.287-30.21 59.287-75.109zm-204.413-126.287h78.5507l-1.5758 52.678h.4727c9.8878-35.422 42.7424-56.825 86.9414-56.825 71.775 0 118.653 51.178 118.653 127.275 0 83.441-46.878 139.082-119.204 139.082-46.8 0-75.9511-19.271-87.4146-50.508 1.0242 17.139 2.6 42.728 2.6 52.087v97.539h-79.0234v-361.289z"/><path d="m1974.04 113.791h-67.06l115.44 137.507-114 135.59h67.06l113.52-135.59z"/><path d="m1339.17 560.046c-.11-3.843-.72-7.573-1.92-11.002-1.21-3.429-2.94-6.368-5.16-8.892-2.22-2.525-5.16-4.447-8.59-5.954s-7.38-2.223-12.02-2.223c-4.14 0-8.17.716-11.71 2.223-3.73 1.507-6.78 3.429-9.61 5.954-2.64 2.524-4.86 5.463-6.67 8.892-1.8 3.429-2.82 7.083-2.93 11.002zm19.93 7.875v3.241c0 1.205 0 2.223-.12 3.24h-78.42c.11 4.145 1.01 7.988 2.82 11.718 1.81 3.731 4.03 6.782 6.97 9.495 2.94 2.638 6.25 4.748 10.09 6.368 3.85 1.507 7.88 2.223 12.13 2.223 6.67 0 12.44-1.507 17.37-4.333 4.86-2.939 8.59-6.556 11.41-10.701l13.75 11.003c-5.35 6.97-11.41 12.132-18.68 15.486-7.08 3.24-15.18 4.861-23.85 4.861-7.57 0-14.35-1.206-20.71-3.731-6.37-2.524-11.83-5.953-16.47-10.512-4.55-4.446-8.17-9.91-10.81-16.278-2.63-6.368-4.03-13.451-4.03-21.213s1.32-14.657 3.85-21.251c2.52-6.556 6.25-12.02 10.69-16.579 4.56-4.559 10.1-8.177 16.28-10.739 6.25-2.524 13.03-3.843 20.11-3.843s13.75 1.206 19.7 3.542c5.96 2.336 11 5.765 14.96 10.211 4.14 4.446 7.27 9.797 9.49 16.164 2.41 6.67 3.43 13.753 3.43 21.628z"/><path d="m1556.67 519.389-22.33 76.15-24.15-76.15h-20.64l-23.73 76.15-22.57-76.15h-21.21l32.96 98.795h20.31l24.14-74.115h.42l24.37 74.115h20.42l32.62-98.795z"/><path d="m1661.4 568.638c0-4.748-.72-9.194-2.23-13.452-1.5-4.333-3.54-7.988-6.36-11.228-2.83-3.241-6.26-5.765-10.4-7.875-4.14-1.922-8.78-2.939-14.05-2.939s-9.91 1.017-14.05 2.939c-4.14 1.921-7.57 4.559-10.4 7.875-2.82 3.353-4.86 6.97-6.36 11.228-1.51 4.333-2.23 8.817-2.23 13.452 0 4.634.72 9.193 2.23 13.451 1.5 4.258 3.54 8.177 6.36 11.417 2.83 3.24 6.26 5.953 10.4 7.875s8.78 2.939 14.05 2.939 9.91-1.017 14.05-2.939 7.57-4.559 10.4-7.875c2.82-3.24 4.86-7.084 6.36-11.417 1.62-4.258 2.23-8.704 2.23-13.451zm20.41-.113c0 7.686-1.31 14.657-4.03 21.025-2.63 6.367-6.55 11.831-11.22 16.579-4.75 4.559-10.4 8.289-16.88 10.814-6.55 2.524-13.45 3.843-21.02 3.843s-14.54-1.319-21.02-3.843c-6.55-2.525-12.13-6.255-16.87-10.814-4.75-4.56-8.48-10.212-11.12-16.579-2.63-6.368-4.03-13.339-4.03-21.025 0-7.687 1.32-14.658 4.03-20.912 2.64-6.368 6.37-11.719 11.12-16.278 4.74-4.559 10.39-8.176 16.87-10.701 6.56-2.524 13.45-3.843 21.02-3.843s14.54 1.319 21.02 3.843c6.56 2.525 12.13 6.067 16.88 10.701 4.74 4.635 8.59 10.098 11.22 16.278 2.72 6.367 4.03 13.338 4.03 20.912z"/><path d="m1776.74 488.87h-19.63v129.316h19.63z"/><path d="m1414.25 534.349v-14.959h-24.68v-30.52h-19.4v100.076c0 10.211 2.53 17.898 7.39 23.135 4.86 5.162 12.01 7.687 21.32 7.687 3.12 0 5.95-.301 8.89-.716 2.33-.414 4.44-.904 6.36-1.62v-16.165c-1.5.603-3.12 1.018-4.86 1.508-2.1.414-4.03.602-5.76.602-4.86 0-8.47-1.318-10.7-3.843-2.22-2.524-3.24-6.782-3.24-12.735v-52.375l24.68-.113z"/><path d="m1740.54 516.753c-6.67 0-12.62 1.809-17.89 5.35-5.35 3.542-10.1 8.177-12.73 14.055v-16.767h-18.5v98.757h19.59v-51.847c0-4.144.6-8.176 1.62-12.019 1.02-3.844 2.82-7.084 5.05-10.098 2.22-2.939 5.16-5.163 8.58-6.971 3.43-1.809 7.58-2.638 12.32-2.638 3.13 0 6.07.302 8.89 1.018v-18.199c-2.03-.49-4.25-.603-6.97-.603z"/><path d="m1248.01 541.245c-1.51-4.861-3.73-9.006-6.78-12.736-3.13-3.542-6.78-6.556-11.42-8.591-4.55-2.11-10.09-3.24-16.46-3.24-3.54 0-7.08.414-10.39 1.507-3.24 1.017-6.37 2.336-9.2 4.032-2.82 1.808-5.16 3.73-7.38 6.066-2.22 2.223-4.44 4.748-5.76 7.385v-16.164h-18.39v98.757h19.59v-52.487c0-9.797 2.53-17.785 7.39-23.55 4.86-5.953 11.22-8.892 18.98-8.892 4.56 0 8.29.904 11.23 2.524 2.94 1.621 5.16 3.844 6.78 6.67s2.82 5.953 3.43 9.608c.6 3.542.9 7.385.9 11.417v54.71h19.7v-61.267c0-5.651-.71-10.927-2.22-15.787z"/><path d="m1818.37 519.389h24.14l-41.62 49.736 41.02 49.059h-24.15l-41.06-49.059z"/><path d="m962.926 602.775c4.86 0 9.229-.792 13.147-2.412 3.918-1.771 7.233-4.069 9.907-6.895 2.712-2.977 4.784-6.481 6.291-10.55 1.507-4.183 2.222-8.704 2.222-13.565 0-4.86-.753-9.307-2.222-13.376-1.469-4.182-3.579-7.687-6.291-10.55-2.712-2.977-5.989-5.275-9.907-6.895-3.918-1.771-8.287-2.638-13.147-2.638-4.859 0-9.229.867-13.147 2.638-3.917 1.62-7.232 3.918-9.907 6.895-2.712 2.826-4.784 6.33-6.29 10.55-1.507 4.032-2.223 8.516-2.223 13.376 0 4.861.753 9.382 2.223 13.565 1.469 4.069 3.578 7.573 6.29 10.55 2.713 2.826 5.99 5.124 9.907 6.895 3.918 1.62 8.288 2.412 13.147 2.412zm-49.799-138.509h18.232v70.874h.414c3.24-5.011 7.911-8.892 13.976-11.756 6.065-2.976 12.544-4.446 19.437-4.446 7.421 0 14.089 1.281 20.041 3.844 6.065 2.562 11.188 6.141 15.403 10.738 4.34 4.446 7.61 9.797 9.91 16.014 2.3 6.066 3.43 12.698 3.43 19.857s-1.17 13.753-3.43 19.857c-2.3 6.066-5.61 11.417-9.91 16.013-4.178 4.597-9.301 8.177-15.403 10.739-5.952 2.562-12.62 3.843-20.041 3.843-6.479 0-12.807-1.431-19.023-4.257-6.064-2.826-10.886-6.82-14.39-11.945h-.414v13.753h-18.232v-153.091z"/><path d="m1015.25 521.388h21.06l28.55 74.944h.42l27.12-74.944h19.62l-45.54 116.655c-1.62 4.182-3.31 7.95-5.05 11.341-1.77 3.504-3.84 6.481-6.29 8.892-2.41 2.412-5.38 4.334-8.89 5.69-3.39 1.357-7.57 2.035-12.54 2.035-2.71 0-5.46-.189-8.29-.603-2.71-.264-5.31-.942-7.91-2.035l2.22-16.616c3.66 1.469 7.31 2.223 10.93 2.223 2.82 0 5.2-.415 7.08-1.206 2.03-.678 3.69-1.771 5.05-3.24 1.47-1.357 2.71-2.977 3.65-4.861s1.88-4.032 2.83-6.481l5.87-15.185z"/></g></svg>