<?xml version="1.0" ?>
<svg xmlns="http://www.w3.org/2000/svg" viewBox="0 0 132 132" fill="none">
	<mask id="mask0_160_86" maskUnits="userSpaceOnUse" x="0" y="71" width="132" height="61" mask-type="luminance">
		<path d="M0.64865 71.8773C0.277993 71.9237 0 72.248 0 72.5723C0 72.5723 0 72.665 0 72.7113C0 72.7113 0 72.804 0 72.8503C6.81083 106.719 26.2703 131.182 49.2048 131.182C56.4789 131.182 79.3207 131.182 86.9655 81.6071C87.1045 80.6804 85.9925 80.3098 85.7608 81.1901C82.1933 93.3754 74.9654 113.159 65.7453 113.159C59.1198 113.159 51.475 102.966 43.4132 72.4333C43.3669 72.1553 43.0889 71.9237 42.8109 71.8773H0.64865ZM93.174 71.8773C92.8033 71.8773 92.5717 72.2016 92.5253 72.526C89.8844 98.611 83.2589 117.653 71.7685 128.125C71.4442 128.449 71.4442 128.959 71.7685 129.283C71.8148 129.376 71.9075 129.422 72.0002 129.468C75.2898 130.534 78.7647 131.09 82.1932 131.09C105.22 131.09 124.68 106.209 131.398 72.6186C131.398 72.248 131.12 71.8773 130.749 71.8773H93.174Z" fill="white"/>
	</mask>
	<g mask="url(#mask0_160_86)">
		<path d="M131.398 71.8773H0V131.182H131.398V71.8773Z" fill="url(#paint0_linear_160_86)"/>
	</g>
	<mask id="mask1_160_86" maskUnits="userSpaceOnUse" x="0" y="0" width="132" height="60" mask-type="luminance">
		<path d="M0 59.0433C0 59.414 0.277993 59.7383 0.64865 59.7847H38.224C38.5484 59.7847 38.8264 59.4603 38.8727 59.136C41.5136 33.051 48.1391 14.0085 59.6295 3.53742C59.9538 3.21309 60.0001 2.70344 59.6295 2.37911C59.5832 2.28645 59.4905 2.24011 59.3978 2.19378C56.1082 1.12814 52.6333 0.572157 49.1584 0.572157C26.1313 0.572157 6.67183 25.4525 0 59.0433ZM44.4325 50.1012C44.2935 51.0279 45.4055 51.3985 45.6835 50.5182C49.2511 38.3329 56.4789 18.549 65.699 18.549C72.3245 18.549 79.9693 28.7421 88.0311 59.275C88.0774 59.5993 88.3554 59.7847 88.6334 59.831H130.749C131.166 59.7847 131.444 59.414 131.398 58.997C131.398 58.997 131.398 58.9044 131.398 58.858C124.587 24.9429 105.128 0.479492 82.1932 0.479492C74.9191 0.479492 52.0773 0.479492 44.4325 50.0549" fill="white"/>
	</mask>
	<g mask="url(#mask1_160_86)">
		<path d="M131.444 0.479492H0V59.7847H131.444V0.479492Z" fill="url(#paint1_linear_160_86)"/>
	</g>
	<defs>
		<linearGradient id="paint0_linear_160_86" x1="122.502" y1="85.5453" x2="1.85328" y2="85.5453" gradientUnits="userSpaceOnUse">
			<stop stop-color="#FF8F1C"/>
			<stop offset="1" stop-color="#ED2024"/>
		</linearGradient>
		<linearGradient id="paint1_linear_160_86" x1="8.89578" y1="46.0703" x2="129.545" y2="46.0703" gradientUnits="userSpaceOnUse">
			<stop stop-color="#FF8F1C"/>
			<stop offset="1" stop-color="#ED2024"/>
		</linearGradient>
	</defs>
</svg>