<?xml version="1.0" ?>
<svg xmlns="http://www.w3.org/2000/svg" xmlns:xlink="http://www.w3.org/1999/xlink" viewBox="0 0 322 255">
	<!-- Generator: Sketch 53.1 (72631) - https://sketchapp.com -->
	
	<desc>Created with Sketch.</desc>
	<defs>
		<polygon id="path-1" points="0 75.3391304 248.779646 75.3391304 248.779646 0 0 0"/>
	</defs>
	<g id="pci_logo" stroke="none" stroke-width="1" fill="none" fill-rule="evenodd">
		<g id="Group-54" transform="translate(37.000000, 90.000000)">
			<path d="M121.96615,34.1449275 C122.627212,34.5855072 123.618804,34.915942 124.610397,34.915942 C126.152875,34.915942 127.034291,34.1449275 127.034291,32.9333333 C127.034291,31.8318841 126.373229,31.2811594 124.830751,30.6202899 C122.957742,29.9594203 121.745796,28.9681159 121.745796,27.315942 C121.745796,25.5536232 123.288273,24.2318841 125.491813,24.2318841 C126.70376,24.2318841 127.474999,24.4521739 128.025884,24.7826087 L127.585176,25.9942029 C127.254645,25.773913 126.483406,25.4434783 125.381636,25.4434783 C123.839158,25.4434783 123.178096,26.4347826 123.178096,27.2057971 C123.178096,28.3072464 123.839158,28.857971 125.491813,29.4086957 C127.474999,30.1797101 128.356415,31.0608696 128.356415,32.8231884 C128.356415,34.5855072 127.034291,36.1275362 124.390043,36.1275362 C123.288273,36.1275362 122.076327,35.7971014 121.415265,35.3565217 L121.96615,34.1449275" id="Fill-1" fill="#02797E"/>
			<path d="M135.84801,31.0610899 C135.84801,30.0697855 135.408404,28.6379014 133.755749,28.6379014 C132.212169,28.6379014 131.552209,30.0697855 131.44093,31.0610899 L135.84801,31.0610899 Z M131.44093,32.0523942 C131.44093,34.0350029 132.763054,34.9161623 134.306634,34.9161623 C135.408404,34.9161623 136.068364,34.6958725 136.619249,34.4755826 L136.839603,35.5770319 C136.288718,35.7973217 135.408404,36.1277565 134.085178,36.1277565 C131.552209,36.1277565 130.008629,34.4755826 130.008629,31.9422493 C130.008629,29.4089159 131.552209,27.4263072 133.864824,27.4263072 C136.510173,27.4263072 137.280311,29.8494957 137.280311,31.2813797 L137.280311,32.0523942 L131.44093,32.0523942 L131.44093,32.0523942 Z" id="Fill-3" fill="#02797E"/>
			<path d="M145.103318,35.6868464 C144.66261,35.9071362 143.781194,36.1274261 142.679424,36.1274261 C140.145353,36.1274261 138.602875,34.4752522 138.602875,31.9419188 C138.602875,29.4085855 140.365707,27.5361217 143.009955,27.5361217 C143.890269,27.5361217 144.66261,27.7564116 145.103318,27.9767014 L144.772787,29.0781507 C144.441154,28.8578609 143.890269,28.637571 143.009955,28.637571 C141.135844,28.637571 140.034074,30.0694551 140.034074,31.8317739 C140.034074,33.7042377 141.247123,34.9158319 142.899778,34.9158319 C143.781194,34.9158319 144.332079,34.695542 144.772787,34.4752522 L145.103318,35.6868464" id="Fill-5" fill="#02797E"/>
			<path d="M153.696903,33.704458 C153.696903,34.5856174 153.696903,35.3566319 153.80708,35.9073565 L152.484956,35.9073565 L152.374779,34.5856174 C152.044248,35.246487 151.052655,36.1276464 149.620354,36.1276464 C148.29823,36.1276464 146.755752,35.3566319 146.755752,32.4928638 L146.755752,27.646487 L148.29823,27.646487 L148.29823,32.162429 C148.29823,33.704458 148.849115,34.8059072 150.171239,34.8059072 C151.162832,34.8059072 151.934071,34.1450377 152.154425,33.3740232 C152.264602,33.1537333 152.264602,32.9334435 152.264602,32.6030087 L152.264602,27.536342 L153.80708,27.536342 L153.80708,33.704458" id="Fill-7" fill="#02797E"/>
			<path d="M156.230753,30.2898551 C156.230753,29.2985507 156.230753,28.5275362 156.120576,27.7565217 L157.443802,27.7565217 L157.552877,29.4086957 C157.883408,28.3072464 158.875001,27.6463768 159.866594,27.6463768 L160.307302,27.6463768 L160.307302,29.0782609 L159.756417,29.0782609 C158.654647,29.0782609 157.994687,29.8492754 157.773231,30.9507246 L157.773231,31.7217391 L157.773231,36.1275362 L156.230753,36.1275362 L156.230753,30.2898551" id="Fill-9" fill="#02797E"/>
			<path d="M163.392258,36.0176116 L161.959957,36.0176116 L161.959957,27.756742 L163.503536,27.756742 L163.503536,36.0176116 L163.392258,36.0176116 Z M162.621019,26.214713 C162.070134,26.214713 161.629426,25.7741333 161.629426,25.2234087 C161.629426,24.6726841 162.070134,24.2321043 162.621019,24.2321043 C163.171904,24.2321043 163.612612,24.6726841 163.612612,25.2234087 C163.612612,25.7741333 163.282081,26.214713 162.621019,26.214713 L162.621019,26.214713 Z" id="Fill-11" fill="#02797E"/>
			<path d="M167.689601,25.7738029 L167.689601,27.7564116 L169.893141,27.7564116 L169.893141,28.8578609 L167.689601,28.8578609 L167.689601,33.3738029 C167.689601,34.3651072 168.020132,35.0259768 168.791371,35.0259768 C169.230977,35.0259768 169.452433,35.0259768 169.672787,34.9158319 L169.781862,36.0172812 C169.452433,36.1274261 169.011725,36.237571 168.46084,36.237571 C167.799778,36.237571 167.248893,36.0172812 166.808185,35.5767014 C166.367477,35.1361217 166.2573,34.3651072 166.2573,33.3738029 L166.2573,28.8578609 L164.935176,28.8578609 L164.935176,27.7564116 L166.2573,27.7564116 L166.2573,26.2143826 L167.689601,25.7738029" id="Fill-13" fill="#02797E"/>
			<path d="M172.317255,27.756742 L174.080087,32.6031188 C174.300441,33.1538435 174.520795,33.814713 174.630972,34.2552928 C174.740047,33.814713 174.960401,33.1538435 175.181857,32.4929739 L176.834512,27.6465971 L178.376989,27.6465971 L176.062171,33.5944232 C174.960401,36.4581913 174.300441,37.8900754 173.198671,38.7712348 C172.427432,39.4321043 171.76637,39.6523942 171.325662,39.7614377 L170.995131,38.5509449 C171.325662,38.4408 171.876547,38.2205101 172.317255,37.7799304 C172.756861,37.4494957 173.198671,36.898771 173.529202,36.1277565 C173.638277,36.0176116 173.638277,35.9074667 173.638277,35.7973217 C173.638277,35.6871768 173.638277,35.5770319 173.529202,35.466887 L170.444246,27.866887 L172.317255,27.866887" id="Fill-15" fill="#02797E"/>
			<path d="M121.96615,51.2173913 C122.627212,51.657971 123.618804,51.9884058 124.610397,51.9884058 C126.152875,51.9884058 127.034291,51.2173913 127.034291,50.0057971 C127.034291,48.9043478 126.373229,48.3536232 124.830751,47.6927536 C122.957742,47.0318841 121.745796,46.0405797 121.745796,44.3884058 C121.745796,42.626087 123.288273,41.3043478 125.491813,41.3043478 C126.70376,41.3043478 127.474999,41.5246377 128.025884,41.8550725 L127.585176,43.0666667 C127.254645,42.8463768 126.483406,42.515942 125.381636,42.515942 C123.839158,42.515942 123.178096,43.5072464 123.178096,44.2782609 C123.178096,45.3797101 123.839158,45.9304348 125.491813,46.4811594 C127.474999,47.2521739 128.356415,48.1333333 128.356415,49.8956522 C128.356415,51.657971 127.034291,53.2 124.390043,53.2 C123.288273,53.2 122.076327,52.8695652 121.415265,52.4289855 L121.96615,51.2173913" id="Fill-17" fill="#02797E"/>
			<path d="M132.212389,42.8468174 L132.212389,44.8294261 L134.415929,44.8294261 L134.415929,45.9308754 L132.212389,45.9308754 L132.212389,50.3366725 C132.212389,51.3268754 132.54292,51.9888464 133.314159,51.9888464 C133.754867,51.9888464 133.975221,51.9888464 134.195575,51.8776 L134.305752,52.9790493 C133.975221,53.0902957 133.534513,53.1993391 132.983628,53.1993391 C132.322566,53.1993391 131.771681,52.9790493 131.330973,52.539571 C130.890265,52.0978899 130.780088,51.3268754 130.780088,50.3366725 L130.780088,45.819629 L129.457965,45.819629 L129.457965,44.7181797 L130.780088,44.7181797 L130.780088,43.1772522 L132.212389,42.8468174" id="Fill-19" fill="#02797E"/>
			<path d="M140.475664,48.9047884 C138.823009,48.9047884 136.95,49.1239768 136.95,50.7761507 C136.95,51.7685565 137.611062,52.2091362 138.382301,52.2091362 C139.484071,52.2091362 140.145133,51.5471652 140.365487,50.7761507 C140.365487,50.6671072 140.475664,50.4457159 140.475664,50.3366725 L140.475664,48.9047884 Z M141.907965,51.107687 C141.907965,51.8776 141.907965,52.539571 142.018142,53.0902957 L140.696018,53.0902957 L140.585841,52.0978899 C140.145133,52.7598609 139.263717,53.3105855 138.05177,53.3105855 C136.399115,53.3105855 135.517699,52.0978899 135.517699,50.8873971 C135.517699,48.9047884 137.280531,47.8033391 140.475664,47.8033391 L140.475664,47.5830493 C140.475664,46.9210783 140.25531,45.6004406 138.602655,45.7105855 C137.831416,45.7105855 137.060177,45.9308754 136.399115,46.3703536 L136.068584,45.3801507 C136.729646,44.9384696 137.721239,44.7181797 138.823009,44.7181797 C141.35708,44.7181797 142.018142,46.4816 142.018142,48.1337739 L142.018142,51.107687 L141.907965,51.107687 Z" id="Fill-21" fill="#02797E"/>
			<path d="M144.331858,47.0321043 C144.331858,46.1509449 144.331858,45.4900754 144.221681,44.8292058 L145.543805,44.8292058 L145.653982,46.1509449 C146.09469,45.3799304 146.976106,44.6089159 148.408407,44.6089159 C149.510177,44.6089159 151.383186,45.2686841 151.383186,48.1335536 L151.383186,53.0900754 L149.840708,53.0900754 L149.840708,48.3538435 C149.840708,47.0321043 149.289823,45.9306551 147.967699,45.9306551 C146.976106,45.9306551 146.204867,46.5915246 145.984513,47.4715826 C145.874336,47.6929739 145.874336,47.9132638 145.874336,48.1335536 L145.874336,53.0900754 L144.331858,53.0900754 L144.331858,47.0321043" id="Fill-23" fill="#02797E"/>
			<path d="M159.426327,48.1335536 C159.426327,47.9132638 159.426327,47.6929739 159.315048,47.4715826 C159.095796,46.4813797 158.324557,45.7103652 157.111508,45.7103652 C155.570132,45.7103652 154.578539,47.0321043 154.578539,48.9045681 C154.578539,50.556742 155.458853,51.9886261 157.002433,51.9886261 C157.994026,51.9886261 158.875442,51.3266551 159.205973,50.2252058 C159.315048,50.0060174 159.315048,49.7857275 159.315048,49.5654377 L159.315048,48.1335536 L159.426327,48.1335536 Z M160.967703,40.9741333 L160.967703,50.9973217 C160.967703,51.7683362 160.967703,52.5393507 161.078981,53.0900754 L159.756858,53.0900754 L159.646681,51.6581913 C159.205973,52.5393507 158.213278,53.3103652 156.892256,53.3103652 C154.907968,53.3103652 153.366592,51.6581913 153.366592,49.1237565 C153.366592,46.3701333 155.129424,44.7179594 157.111508,44.7179594 C158.434734,44.7179594 159.205973,45.2686841 159.646681,45.9306551 L159.646681,40.9741333 L160.967703,40.9741333 L160.967703,40.9741333 Z" id="Fill-25" fill="#02797E"/>
			<path d="M167.799337,48.9047884 C166.146682,48.9047884 164.273673,49.1239768 164.273673,50.7761507 C164.273673,51.7685565 164.934735,52.2091362 165.707076,52.2091362 C166.808846,52.2091362 167.468806,51.5471652 167.68916,50.7761507 C167.68916,50.6671072 167.799337,50.4457159 167.799337,50.3366725 L167.799337,48.9047884 Z M169.341815,51.107687 C169.341815,51.8776 169.341815,52.539571 169.451992,53.0902957 L168.129868,53.0902957 L168.019691,52.0978899 C167.578983,52.7598609 166.697567,53.3105855 165.48562,53.3105855 C163.832965,53.3105855 162.952651,52.0978899 162.952651,50.8873971 C162.952651,48.9047884 164.714381,47.8033391 167.910616,47.8033391 L167.910616,47.5830493 C167.910616,46.9210783 167.68916,45.6004406 166.036505,45.7105855 C165.265266,45.7105855 164.494027,45.9308754 163.832965,46.3703536 L163.503536,45.3801507 C164.163496,44.9384696 165.156191,44.7181797 166.257961,44.7181797 C168.79093,44.7181797 169.451992,46.4816 169.451992,48.1337739 L169.451992,51.107687 L169.341815,51.107687 Z" id="Fill-27" fill="#02797E"/>
			<path d="M171.76637,47.3623188 C171.76637,46.3710145 171.76637,45.6 171.655091,44.8289855 L172.978317,44.8289855 L173.087392,46.4811594 L173.198671,46.4811594 C173.529202,45.3797101 174.520795,44.7188406 175.511286,44.7188406 L175.953096,44.7188406 L175.953096,46.1507246 L175.402211,46.1507246 C174.300441,46.1507246 173.638277,46.9217391 173.419025,48.0231884 L173.419025,48.7942029 L173.419025,53.2 L171.876547,53.2 L171.76637,47.3623188" id="Fill-29" fill="#02797E"/>
			<path d="M182.893805,48.1335536 C182.893805,47.9132638 182.893805,47.6929739 182.783628,47.4715826 C182.563274,46.4813797 181.681858,45.7103652 180.580088,45.7103652 C179.037611,45.7103652 178.156195,47.0321043 178.156195,48.9045681 C178.156195,50.556742 179.037611,51.9886261 180.580088,51.9886261 C181.571681,51.9886261 182.563274,51.3266551 182.783628,50.2252058 C182.783628,50.0060174 182.893805,49.7857275 182.893805,49.5654377 L182.893805,48.1335536 Z M184.326106,40.9741333 L184.326106,50.9973217 C184.326106,51.7683362 184.326106,52.5393507 184.436283,53.0900754 L183.114159,53.0900754 L183.003982,51.6581913 C182.563274,52.5393507 181.571681,53.3103652 180.139381,53.3103652 C178.156195,53.3103652 176.613717,51.6581913 176.613717,49.1237565 C176.613717,46.3701333 178.266372,44.7179594 180.359735,44.7179594 C181.681858,44.7179594 182.453097,45.2686841 182.893805,45.9306551 L182.893805,40.9741333 L184.326106,40.9741333 L184.326106,40.9741333 Z" id="Fill-31" fill="#02797E"/>
			<path d="M186.640264,51.5476058 C187.07987,51.8780406 187.852211,52.0983304 188.62345,52.0983304 C189.725219,52.0983304 190.164826,51.5476058 190.164826,50.8867362 C190.164826,50.1157217 189.725219,49.785287 188.62345,49.3447072 C187.07987,48.7939826 186.41991,48.0229681 186.41991,47.0316638 C186.41991,45.7099246 187.52168,44.6084754 189.28341,44.6084754 C190.164826,44.6084754 190.826989,44.8287652 191.266596,45.1592 L190.936065,46.2606493 C190.606635,46.0403594 190.05575,45.8200696 189.28341,45.8200696 C188.403096,45.8200696 187.961286,46.3707942 187.961286,46.9215188 C187.961286,47.5823884 188.403096,47.9128232 189.504865,48.3545043 C190.936065,48.905229 191.708405,49.5649971 191.708405,50.8867362 C191.708405,52.3186203 190.606635,53.4200696 188.62345,53.4200696 C187.742034,53.4200696 186.859516,53.1997797 186.308631,52.8693449 L186.640264,51.5476058" id="Fill-33" fill="#02797E"/>
			<path d="M205.370352,52.7598609 C204.819467,52.9790493 203.717697,53.3105855 202.284295,53.3105855 C199.090264,53.3105855 196.556193,51.2178319 196.556193,47.4718029 C196.556193,43.8370203 198.978985,41.4138319 202.615927,41.4138319 C204.048228,41.4138319 204.929644,41.7453681 205.370352,41.9645565 L205.038719,43.1772522 C204.487835,42.9569623 203.717697,42.735571 202.726104,42.735571 C199.97168,42.735571 198.208848,44.4989913 198.208848,47.4718029 C198.208848,50.3366725 199.861503,52.0978899 202.615927,52.0978899 C203.497343,52.0978899 204.487835,51.8776 205.038719,51.6584116 L205.370352,52.7598609" id="Fill-35" fill="#02797E"/>
			<path d="M210.328317,52.0983304 C211.760618,52.0983304 212.862388,50.7765913 212.862388,48.905229 C212.862388,47.4722435 212.200224,45.7099246 210.328317,45.7099246 C208.564383,45.7099246 207.793144,47.3620986 207.793144,48.905229 C207.904423,50.7765913 208.894914,52.0983304 210.328317,52.0983304 M210.328317,53.3110261 C208.124777,53.3110261 206.360843,51.6588522 206.360843,49.0142725 C206.360843,46.2606493 208.234954,44.6084754 210.438494,44.6084754 C212.862388,44.6084754 214.403764,46.3707942 214.403764,48.7939826 C214.403764,51.8780406 212.311503,53.3110261 210.328317,53.3110261" id="Fill-37" fill="#02797E"/>
			<path d="M223.218143,50.776371 C223.218143,51.6586319 223.218143,52.4285449 223.329422,52.9792696 L222.006196,52.9792696 L221.897121,51.6586319 C221.565488,52.3184 220.574997,53.1995594 219.142696,53.1995594 C217.820573,53.1995594 216.276993,52.4285449 216.276993,49.5647768 L216.276993,44.7184 L217.820573,44.7184 L217.820573,49.2354435 C217.820573,50.776371 218.260179,51.8778203 219.693581,51.8778203 C220.684073,51.8778203 221.346236,51.2169507 221.676767,50.4459362 C221.785842,50.2256464 221.785842,50.006458 221.785842,49.6749217 L221.785842,44.6082551 L223.329422,44.6082551 L223.329422,50.776371" id="Fill-39" fill="#02797E"/>
			<path d="M225.753096,47.0321043 C225.753096,46.1509449 225.753096,45.4900754 225.641817,44.8292058 L226.965042,44.8292058 L227.074118,46.1509449 C227.515927,45.3799304 228.396242,44.6089159 229.828542,44.6089159 C230.930312,44.6089159 232.803321,45.2686841 232.803321,48.1335536 L232.803321,53.0900754 L231.261945,53.0900754 L231.261945,48.3538435 C231.261945,47.0321043 230.71106,45.9306551 229.388936,45.9306551 C228.396242,45.9306551 227.625003,46.5915246 227.40575,47.4715826 C227.294472,47.6929739 227.294472,47.9132638 227.294472,48.1335536 L227.294472,53.0900754 L225.753096,53.0900754 L225.753096,47.0321043" id="Fill-41" fill="#02797E"/>
			<path d="M241.177874,52.7598609 C240.737166,52.9790493 239.964826,53.1993391 238.753981,53.1993391 C236.21991,53.1993391 234.677432,51.5471652 234.677432,49.0149333 C234.677432,46.4816 236.439162,44.6091362 239.084512,44.6091362 C239.964826,44.6091362 240.737166,44.8294261 241.177874,45.0497159 L240.846242,46.1511652 C240.515711,45.9308754 239.964826,45.7105855 239.084512,45.7105855 C237.210401,45.7105855 236.108631,47.1413681 236.108631,48.9047884 C236.108631,50.7761507 237.32168,51.9888464 238.974335,51.9888464 C239.85575,51.9888464 240.406635,51.7685565 240.846242,51.5471652 L241.177874,52.7598609" id="Fill-43" fill="#02797E"/>
			<mask id="mask-2" fill="white">
				<use xlink:href="#path-1"/>
			</mask>
			
			<path d="M242.83119,53.0898551 L244.372566,53.0898551 L244.372566,44.8289855 L242.83119,44.8289855 L242.83119,53.0898551 Z M243.601327,43.2869565 C243.050442,43.2869565 242.609735,42.8463768 242.609735,42.2956522 C242.609735,41.7449275 243.050442,41.3043478 243.601327,41.3043478 C244.152212,41.3043478 244.59292,41.7449275 244.59292,42.2956522 C244.59292,42.8463768 244.262389,43.2869565 243.601327,43.2869565 L243.601327,43.2869565 Z" id="Fill-45" fill="#02797E" mask="url(#mask-2)"/>
			<polygon id="Fill-47" fill="#02797E" mask="url(#mask-2)" points="246.906637 53.0898551 248.449115 53.0898551 248.449115 40.973913 246.906637 40.973913"/>
			<polygon id="Fill-48" fill="#02797E" mask="url(#mask-2)" points="114.25376 47.582829 25.7816363 75.3393507 0.000220353982 5.17703188 92.8794239 0.000220289855"/>
			<path d="M36.3584071,33.5942029 C36.3584071,30.9507246 34.3752212,29.6289855 30.5190265,29.6289855 L29.0867257,29.6289855 L29.0867257,37.6695652 L30.4088496,37.6695652 C32.2818584,37.6695652 33.8243363,37.3391304 34.8159292,36.6782609 C35.8075221,36.1275362 36.3584071,35.026087 36.3584071,33.5942029 M47.3761062,33.484058 C47.3761062,35.2463768 46.9353982,36.7884058 46.1641593,38.2202899 C45.3929204,39.542029 44.2911504,40.7536232 42.8588496,41.6347826 C41.4265487,42.515942 39.6637168,43.1768116 37.680531,43.6173913 C35.6973451,44.057971 33.4938053,44.2782609 30.9597345,44.2782609 L29.1969027,44.2782609 L29.1969027,53.3101449 L17.7384956,53.3101449 L17.7384956,23.2405797 L31.1800885,23.2405797 C36.2482301,23.2405797 40.2146018,24.1217391 43.0792035,25.773913 C45.9438053,27.426087 47.3761062,30.0695652 47.3761062,33.484058" id="Fill-49" fill="#FFFFFF" mask="url(#mask-2)"/>
			<path d="M75.8015496,53.3105855 C74.0387177,53.6410203 72.0555319,53.8613101 69.741815,53.8613101 C66.5466823,53.8613101 63.6820805,53.5297739 61.2581867,52.7598609 C58.7241159,51.9888464 56.6307531,50.9964406 54.8679212,49.6747014 C53.1050894,48.3540638 51.7829655,46.7018899 50.9015496,44.8294261 C50.0201336,42.8468174 49.5794257,40.7540638 49.5794257,38.4410203 C49.5794257,36.1268754 50.0201336,34.0352232 51.0117265,32.0526145 C52.0033195,30.1801507 53.3254434,28.5279768 55.0882752,27.0960928 C56.8511071,25.7743536 58.9444699,24.6729043 61.3683637,23.9018899 C63.7922575,23.1308754 66.4365053,22.8004406 69.3011071,22.8004406 C71.5046469,22.8004406 73.5980097,22.9094841 75.4710186,23.2410203 C77.3440274,23.6816 77.3440274,23.6816 78.7763283,24.2323246 L78.7763283,32.2718029 C77.6745584,31.6120348 76.3524345,31.0613101 74.9201336,30.7308754 C73.4878327,30.2902957 71.9453549,30.0689043 70.402877,30.0689043 C67.7586292,30.0689043 65.6652664,30.8410203 64.0126115,32.1627594 C62.3599566,33.5946435 61.5887177,35.5761507 61.5887177,38.3297739 C61.5887177,39.6526145 61.8090717,40.8631072 62.3599566,41.9645565 C62.9108416,42.9569623 63.5719035,43.8370203 64.4533195,44.4989913 C65.3347354,45.1598609 66.3263283,45.7105855 67.5382752,46.0399188 C68.7502221,46.3703536 69.962169,46.5906435 71.2842929,46.5906435 C72.6064168,46.5906435 74.0387177,46.4816 75.3608416,46.1511652 C76.6829655,45.819629 78.1152664,45.4891942 79.5475673,44.8294261 L79.5475673,52.4283246 C77.7847354,52.8700058 77.5643814,52.9790493 75.8015496,53.3105855" id="Fill-50" fill="#FFFFFF" mask="url(#mask-2)"/>
			<polygon id="Fill-51" fill="#FFFFFF" mask="url(#mask-2)" points="84.2853982 53.4202899 95.8539823 53.4202899 95.8539823 23.2405797 84.2853982 23.2405797"/>
			<path d="M97.0660394,13.7681159 C97.0660394,15.7507246 96.4049774,17.4028986 95.0828535,18.5043478 C93.7607296,19.6057971 92.1080748,20.2666667 90.1248889,20.2666667 C88.1417031,20.2666667 86.4890482,19.715942 85.1669243,18.5043478 C83.8448004,17.4028986 83.1837385,15.7507246 83.1837385,13.7681159 C83.1837385,11.6753623 83.8448004,10.1333333 85.1669243,8.92173913 C86.4890482,7.71014493 88.1417031,7.15942029 90.1248889,7.15942029 C92.1080748,7.15942029 93.7607296,7.71014493 95.0828535,8.92173913 C96.4049774,10.0231884 97.0660394,11.6753623 97.0660394,13.7681159" id="Fill-52" fill="#FFFFFF" mask="url(#mask-2)"/>
			<path d="M244.923231,26.8752522 L245.253762,26.8752522 C245.585395,26.8752522 245.804647,26.7651072 245.804647,26.5448174 C245.804647,26.3245275 245.585395,26.1042377 245.253762,26.1042377 L244.923231,26.1042377 L244.923231,26.8752522 Z M244.813054,28.637571 L243.821461,28.637571 L243.821461,25.4433681 C244.041815,25.4433681 244.5927,25.3332232 245.253762,25.3332232 C245.914824,25.3332232 246.245355,25.4433681 246.465709,25.553513 C246.687165,25.663658 246.79624,25.8839478 246.79624,26.2143826 C246.79624,26.5448174 246.465709,26.7651072 246.025001,26.8752522 C246.355532,26.9853971 246.575886,27.205687 246.687165,27.6462667 C246.79624,28.0868464 246.79624,28.3071362 246.906417,28.4172812 L245.804647,28.4172812 C245.69447,28.3071362 245.69447,27.9767014 245.585395,27.7564116 C245.474116,27.4259768 245.363939,27.3158319 245.03451,27.3158319 L244.702877,27.3158319 L244.702877,28.637571 L244.813054,28.637571 Z M242.83097,26.9853971 C242.83097,28.4172812 243.93274,29.5187304 245.253762,29.5187304 C246.687165,29.5187304 247.677656,28.4172812 247.677656,26.9853971 C247.677656,25.553513 246.575886,24.4520638 245.143585,24.4520638 C243.821461,24.4520638 242.83097,25.553513 242.83097,26.9853971 L242.83097,26.9853971 Z M248.779426,26.9853971 C248.779426,28.8578609 247.23805,30.3998899 245.253762,30.3998899 C243.270576,30.3998899 241.7292,28.8578609 241.7292,26.9853971 C241.7292,25.1129333 243.270576,23.5709043 245.253762,23.5709043 C247.23805,23.5709043 248.779426,25.1129333 248.779426,26.9853971 L248.779426,26.9853971 Z" id="Fill-53" fill="#02797E" mask="url(#mask-2)"/>
		</g>
	</g>
</svg>
