<?xml version="1.0" encoding="UTF-8"?>
<!-- Generator: Avocode 2.3.2-e7da973 - http://avocode.com -->
<svg  xmlns="http://www.w3.org/2000/svg" viewBox="0 0 131 28">
    <path fill="#ffffff" fill-rule="evenodd" d="M 54.93 15 C 53.97 15.8 52.6 16.2 50.82 16.2 L 47.4 16.2 L 47.4 22.12 L 44 22.12 L 44 5.68 L 51.04 5.68 C 52.66 5.68 53.96 6.1 54.92 6.95 C 55.89 7.8 56.37 9.11 56.37 10.89 C 56.37 12.83 55.89 14.2 54.93 15 L 54.93 15 Z M 52.31 9.08 C 51.88 8.71 51.27 8.53 50.49 8.53 L 47.4 8.53 L 47.4 13.37 L 50.49 13.37 C 51.27 13.37 51.88 13.18 52.31 12.78 C 52.75 12.39 52.96 11.76 52.96 10.91 C 52.96 10.05 52.75 9.44 52.31 9.08 L 52.31 9.08 Z M 52.31 9.08"/>
    <path fill="#ffffff" fill-rule="evenodd" d="M 67.65 6.07 C 68.8 6.45 69.73 7.15 70.44 8.16 C 71.01 8.98 71.4 9.86 71.61 10.81 C 71.82 11.76 71.92 12.67 71.92 13.53 C 71.92 15.72 71.48 17.57 70.61 19.09 C 69.42 21.13 67.59 22.15 65.11 22.15 L 58.04 22.15 L 58.04 5.72 L 65.11 5.72 C 66.13 5.73 66.97 5.85 67.65 6.07 L 67.65 6.07 Z M 61.37 8.57 L 61.37 19.3 L 64.53 19.3 C 66.15 19.3 67.28 18.5 67.92 16.9 C 68.26 16.02 68.44 14.98 68.44 13.77 C 68.44 12.1 68.18 10.81 67.65 9.92 C 67.13 9.02 66.09 8.57 64.53 8.57 L 61.37 8.57 L 61.37 8.57 Z M 61.37 8.57"/>
    <path fill="#ffffff" fill-rule="evenodd" d="M 73.59 5.74 L 85.28 5.74 L 85.28 8.63 L 77 8.63 L 77 12.41 L 84.34 12.41 L 84.34 15.26 L 77 15.26 L 77 22.15 L 73.59 22.15 L 73.59 5.74"/>
    <path fill="#ffffff" fill-rule="evenodd" d="M 93.22 5.57 C 93.38 5.58 93.6 5.59 93.88 5.62 L 93.88 8.2 C 93.71 8.18 93.41 8.16 92.99 8.15 C 92.57 8.14 92.28 8.24 92.12 8.43 C 91.96 8.63 91.88 8.85 91.88 9.08 L 91.88 10.11 L 93.96 10.11 L 93.96 12.35 L 91.88 12.35 L 91.88 22.15 L 88.73 22.15 L 88.73 12.35 L 86.95 12.35 L 86.95 10.11 L 88.69 10.11 L 88.69 9.33 C 88.69 8.03 88.91 7.13 89.35 6.64 C 89.81 5.91 90.91 5.55 92.67 5.55 C 92.87 5.55 93.05 5.56 93.22 5.57"/>
    <path fill="#ffffff" fill-rule="evenodd" d="M 95.63 5.58 L 98.85 5.58 L 98.85 8.51 L 95.63 8.51 L 95.63 5.58 Z M 95.63 9.96 L 98.85 9.96 L 98.85 22.12 L 95.63 22.12 L 95.63 9.96 Z M 95.63 9.96"/>
    <path fill="#ffffff" fill-rule="evenodd" d="M 100.52 5.68 L 103.69 5.68 L 103.69 22.12 L 100.52 22.12 L 100.52 5.68 Z M 100.52 5.68"/>
    <path fill="#ffffff" fill-rule="evenodd" d="M 105.37 5.68 L 108.53 5.68 L 108.53 22.12 L 105.37 22.12 L 105.37 5.68 Z M 105.37 5.68"/>
    <path fill="#ffffff" fill-rule="evenodd" d="M 119.06 10.21 C 119.91 10.59 120.61 11.19 121.16 12.01 C 121.65 12.73 121.98 13.57 122.12 14.52 C 122.21 15.08 122.24 15.88 122.23 16.93 L 113.4 16.93 C 113.45 18.15 113.87 19.01 114.67 19.5 C 115.15 19.8 115.73 19.95 116.41 19.95 C 117.14 19.95 117.72 19.77 118.17 19.4 C 118.42 19.2 118.64 18.92 118.83 18.56 L 122.06 18.56 C 121.98 19.28 121.59 20.01 120.89 20.76 C 119.8 21.94 118.28 22.53 116.33 22.53 C 114.71 22.53 113.29 22.03 112.06 21.03 C 110.82 20.04 110.21 18.41 110.21 16.17 C 110.21 14.06 110.76 12.45 111.88 11.32 C 112.99 10.2 114.44 9.64 116.21 9.64 C 117.27 9.64 118.22 9.83 119.06 10.21 L 119.06 10.21 Z M 114.32 12.95 C 113.87 13.42 113.59 14.04 113.48 14.83 L 118.94 14.83 C 118.88 13.99 118.6 13.35 118.09 12.91 C 117.59 12.48 116.96 12.26 116.21 12.26 C 115.4 12.26 114.77 12.49 114.32 12.95 L 114.32 12.95 Z M 114.32 12.95"/>
    <path fill="#ffffff" fill-rule="evenodd" d="M 130.67 9.68 C 130.71 9.68 130.8 9.69 130.95 9.69 L 130.95 12.95 C 130.75 12.93 130.57 12.91 130.41 12.91 C 130.26 12.9 130.13 12.89 130.03 12.89 C 128.76 12.89 127.9 13.31 127.46 14.14 C 127.22 14.61 127.1 15.33 127.1 16.31 L 127.1 22.12 L 123.91 22.12 L 123.91 9.96 L 126.93 9.96 L 126.93 12.08 C 127.42 11.27 127.85 10.72 128.21 10.42 C 128.8 9.92 129.57 9.67 130.52 9.67 C 130.58 9.67 130.63 9.67 130.67 9.68"/>
    <path fill="#ffffff" fill-rule="evenodd" d="M 31.68 0.12 L 15.63 27.99 L 27.38 27.99 L 37.56 10.32 L 31.68 0.12"/>
    <path fill="#ffffff" fill-rule="evenodd" d="M 20.94 16.87 L 18.56 12.44 L 6.81 12.44 L 15.09 27.03 L 20.94 16.87"/>
    <path fill="#ffffff" fill-rule="evenodd" d="M 30.58 0.12 L 0.1 0.12 L 5.96 10.32 L 24.71 10.32 L 30.58 0.12"/>
</svg>