<?xml version="1.0" ?>
<!-- Generator: Adobe Illustrator 25.0.1, SVG Export Plug-In . SVG Version: 6.00 Build 0)  -->
<svg xmlns="http://www.w3.org/2000/svg" viewBox="0 0 249.5 61.9" enable-background="new 0 0 249.5 61.9">
	<style type="text/css">
	.st0{fill:#00467F;}
	.st1{fill:#871F5E;}
</style>
	<g>
		<g>
			<polygon class="st0" points="39.2,60.7 14,60.7 0.8,37.9 14,15.1 38.9,15.1 38.9,18.5 15.9,18.5 4.7,37.9 15.9,57.4 39.2,57.4       "/>
			<path class="st0" d="M55,34.8L55,34.8L55,34.8c0.6-0.7,2.1-3,5.8-9.6c6.4-11.9-1.3-24.4-1.3-24.4l-10.1,18L45,26.6l-6.3,11.1    c-1.8,0.6-4,1.4-6.3,2.3c-2.4,1-4.8,2.1-6.8,3.3c-2.2,1.4-4,2.6-4.6,4c-0.3,0.6-0.3,1.5-0.3,1.5c-0.8,0.9-0.8,2.5-0.3,3.3    c1.3,2.1,4,1,4,1s-1.5-0.1-1.2-1.3c0.2-0.6,0.7-1,2-1.7c2.6-1.4,7.5-1.9,7.5-1.9l0,0c0.2,0,5.1,0.9,5.1,0.9l0.4,9.9l0.1,1.7h1.9    L49,45.3l24.2-15.5L55,34.8z M23.3,48c-0.3,0.2-0.9,0.3-0.9,0.3l0,0c0,0-0.1-0.3,0.2-0.6c0,0.1,0,0.1,0.1,0.2    C22.8,48,23.1,48.1,23.3,48c0.3-0.3,0.3-0.5,0.2-0.8l-0.1-0.1c0.2-0.1,0.4,0,0.4,0S23.6,47.8,23.3,48z"/>
		</g>
		<path class="st1" d="M49.4,18.8C47.7,8.5,41.7,3.5,41.7,3.5l-9.3,36.6c2.3-0.9,4.5-1.7,6.3-2.3L49.4,18.8z"/>
	</g>
	<g>
		<path class="st1" d="M180.8,51.1c0.5,0,1,0,1.4-0.1s0.7-0.2,0.9-0.4l0.5,1.9c-0.2,0.1-0.6,0.3-1.1,0.4s-1.2,0.2-1.9,0.2   c-0.9,0-1.7-0.1-2.4-0.4s-1.4-0.7-1.9-1.2s-0.9-1.1-1.2-1.8s-0.4-1.5-0.4-2.4s0.1-1.7,0.4-2.4c0.3-0.7,0.7-1.3,1.2-1.8   s1.1-0.9,1.9-1.2c0.7-0.3,1.6-0.4,2.5-0.4c0.8,0,1.4,0.1,1.9,0.2s0.9,0.3,1.2,0.5l-0.6,2c-0.3-0.2-0.6-0.3-1-0.4s-0.8-0.2-1.2-0.2   c-0.5,0-0.9,0.1-1.3,0.2c-0.4,0.1-0.8,0.4-1.1,0.6c-0.3,0.3-0.6,0.7-0.7,1.1c-0.2,0.5-0.3,1-0.3,1.7c0,0.6,0.1,1.2,0.3,1.7   s0.4,0.9,0.7,1.2c0.3,0.3,0.7,0.5,1.1,0.7S180.3,51.1,180.8,51.1z"/>
		<path class="st1" d="M190.4,41.6c0.8,0,1.6,0.1,2.2,0.4c0.7,0.3,1.3,0.7,1.8,1.1c0.5,0.5,0.9,1.1,1.2,1.8s0.4,1.5,0.4,2.5   c0,0.9-0.1,1.7-0.4,2.4c-0.3,0.7-0.7,1.3-1.2,1.8s-1.1,0.9-1.8,1.2c-0.7,0.3-1.4,0.4-2.3,0.4s-1.6-0.1-2.2-0.4   c-0.7-0.3-1.3-0.6-1.8-1.1s-0.9-1.1-1.2-1.8c-0.3-0.7-0.4-1.5-0.4-2.4s0.1-1.7,0.4-2.4c0.3-0.7,0.7-1.3,1.2-1.8s1.1-0.9,1.8-1.2   C188.9,41.7,189.6,41.6,190.4,41.6z M187.6,47.4c0,0.6,0.1,1.2,0.2,1.7s0.4,0.9,0.6,1.2c0.3,0.3,0.6,0.5,0.9,0.7s0.7,0.2,1.1,0.2   c0.4,0,0.7-0.1,1.1-0.2c0.3-0.2,0.6-0.4,0.9-0.7c0.2-0.3,0.4-0.7,0.6-1.2s0.2-1,0.2-1.7s-0.1-1.2-0.2-1.7s-0.4-0.9-0.6-1.2   c-0.3-0.3-0.6-0.5-0.9-0.7c-0.3-0.2-0.7-0.2-1.1-0.2c-0.4,0-0.7,0.1-1.1,0.2c-0.3,0.2-0.6,0.4-0.9,0.7c-0.2,0.3-0.4,0.7-0.6,1.2   S187.6,46.8,187.6,47.4z"/>
		<path class="st1" d="M197.9,41.8h2.5l2.5,3.8c0.4,0.7,0.9,1.4,1.3,2.1c0.4,0.7,0.7,1.3,1,1.9l0,0c-0.1-0.7-0.1-1.4-0.1-2.1   s0-1.4,0-2.1v-3.6h2.5V53h-2.5l-2.6-3.8c-0.4-0.6-0.8-1.3-1.2-1.9c-0.4-0.7-0.7-1.3-0.9-2.1l0,0c0.1,0.7,0.1,1.5,0.1,2.2   s0,1.4,0,2.1v3.6H198V41.8H197.9z"/>
		<path class="st1" d="M209.8,41.8h2.5l2.5,3.8c0.4,0.7,0.9,1.4,1.3,2.1c0.4,0.7,0.7,1.3,1,1.9l0,0c-0.1-0.7-0.1-1.4-0.1-2.1   s0-1.4,0-2.1v-3.6h2.5V53H217l-2.6-3.8c-0.4-0.6-0.8-1.3-1.2-1.9c-0.4-0.7-0.7-1.3-0.9-2.1l0,0c0.1,0.7,0.1,1.5,0.1,2.2   s0,1.4,0,2.1v3.6h-2.5V41.8H209.8z"/>
		<path class="st1" d="M221.7,41.8h7.5v2.1h-4.8v2.3h4.3v2h-4.3v2.7h4.8V53h-7.5V41.8z"/>
		<path class="st1" d="M236.8,51.1c0.5,0,1,0,1.4-0.1s0.7-0.2,0.9-0.4l0.5,1.9c-0.2,0.1-0.6,0.3-1.1,0.4s-1.2,0.2-1.9,0.2   c-0.9,0-1.7-0.1-2.4-0.4s-1.4-0.7-1.9-1.2s-0.9-1.1-1.2-1.8s-0.4-1.5-0.4-2.4s0.1-1.7,0.4-2.4c0.3-0.7,0.7-1.3,1.2-1.8   s1.1-0.9,1.9-1.2c0.7-0.3,1.6-0.4,2.5-0.4c0.8,0,1.4,0.1,1.9,0.2s0.9,0.3,1.2,0.5l-0.6,2c-0.3-0.2-0.6-0.3-1-0.4s-0.8-0.2-1.2-0.2   c-0.5,0-0.9,0.1-1.3,0.2c-0.4,0.1-0.8,0.4-1.1,0.6c-0.3,0.3-0.6,0.7-0.7,1.1c-0.2,0.5-0.3,1-0.3,1.7c0,0.6,0.1,1.2,0.3,1.7   s0.4,0.9,0.7,1.2c0.3,0.3,0.7,0.5,1.1,0.7S236.3,51.1,236.8,51.1z"/>
		<path class="st1" d="M249,41.8v2.1h-3.1V53h-2.7v-9.1h-3v-2.1H249z"/>
	</g>
	<g>
		<path class="st0" d="M82.3,16.3h8c1.3,0,2.5,0.2,3.6,0.5s2,0.7,2.7,1.3s1.3,1.3,1.7,2.1c0.4,0.8,0.6,1.8,0.6,2.8   c0,1.3-0.2,2.4-0.7,3.3c-0.5,0.9-1.1,1.7-2,2.3c-0.8,0.6-1.8,1.1-2.9,1.4s-2.3,0.4-3.5,0.4h-2.2v7.8h-5.3   C82.3,38.2,82.3,16.3,82.3,16.3z M87.6,26.4h1.9c0.5,0,1-0.1,1.5-0.2c0.5-0.1,0.9-0.3,1.3-0.5s0.7-0.6,0.9-1   c0.2-0.4,0.3-0.9,0.3-1.5c0-1-0.3-1.8-1-2.3s-1.6-0.8-2.7-0.8h-2.1v6.3H87.6z"/>
		<path class="st0" d="M101.8,16.3h14.6v4h-9.3v4.5h8.4v4h-8.4v5.4h9.4v4h-14.7C101.8,38.2,101.8,16.3,101.8,16.3z"/>
		<path class="st0" d="M120.2,16.3h8.7c1.3,0,2.4,0.2,3.3,0.5s1.8,0.9,2.4,1.5c0.6,0.6,1.1,1.4,1.4,2.2c0.3,0.8,0.5,1.7,0.5,2.7   c0,0.9-0.1,1.7-0.4,2.4c-0.3,0.7-0.6,1.3-1,1.8c-0.4,0.5-0.9,0.9-1.4,1.3c-0.5,0.3-0.9,0.6-1.4,0.8l5.3,8.9h-6.1l-3.9-7.9h-2.2v7.9   h-5.3L120.2,16.3L120.2,16.3z M125.5,26.3h1.6c1.2,0,2.2-0.2,2.9-0.7s1.1-1.3,1.1-2.4c0-0.9-0.3-1.6-0.9-2.2   c-0.6-0.5-1.5-0.8-2.6-0.8h-2.1V26.3z"/>
		<path class="st0" d="M140.5,16.3h14.6v4h-9.3v4.5h8.4v4h-8.4v5.4h9.4v4h-14.7V16.3z"/>
		<path class="st0" d="M169.3,15.9c1.4,0,2.6,0.1,3.7,0.3c1.1,0.2,2,0.5,2.9,0.9l-1.1,3.5c-0.8-0.4-1.6-0.7-2.5-0.9s-1.7-0.3-2.5-0.3   c-0.9,0-1.8,0.2-2.6,0.5s-1.5,0.8-2.1,1.4c-0.6,0.6-1.1,1.4-1.4,2.4c-0.3,1-0.5,2.1-0.5,3.5c0,2.5,0.5,4.4,1.6,5.7   c1.1,1.3,2.6,2,4.7,2c0.5,0,0.9,0,1.3-0.1c0.4,0,0.7-0.1,0.9-0.2v-4.8h-3.5v-3.9h8.5v11.3c-0.9,0.4-2,0.7-3.2,1s-2.6,0.4-4.1,0.4   c-1.7,0-3.2-0.2-4.7-0.7s-2.7-1.2-3.7-2.2c-1.1-1-1.9-2.1-2.5-3.6c-0.6-1.4-0.9-3-0.9-4.9c0-1.8,0.3-3.5,0.9-4.9   c0.6-1.4,1.4-2.6,2.5-3.6s2.3-1.7,3.7-2.2C166,16.1,167.6,15.9,169.3,15.9z"/>
		<path class="st0" d="M180.7,16.3h8.7c1.3,0,2.4,0.2,3.3,0.5c1,0.4,1.8,0.9,2.4,1.5c0.6,0.6,1.1,1.4,1.4,2.2   c0.3,0.8,0.5,1.7,0.5,2.7c0,0.9-0.1,1.7-0.4,2.4c-0.3,0.7-0.6,1.3-1,1.8c-0.4,0.5-0.9,0.9-1.4,1.3c-0.5,0.3-0.9,0.6-1.4,0.8   l5.3,8.9H192l-3.9-7.9h-2.2v7.9h-5.2V16.3z M186,26.3h1.6c1.2,0,2.2-0.2,2.9-0.7s1.1-1.3,1.1-2.4c0-0.9-0.3-1.6-0.9-2.2   c-0.6-0.5-1.5-0.8-2.6-0.8H186V26.3z"/>
		<path class="st0" d="M206.3,16.3v22H201v-22H206.3z"/>
		<path class="st0" d="M210.9,16.3h4.9l4.8,7.4c0.9,1.3,1.7,2.7,2.5,4.1c0.8,1.4,1.4,2.6,1.9,3.7h0.1c-0.1-1.4-0.2-2.8-0.2-4.2   c0-1.4,0-2.8,0-4.2v-6.8h4.9v22h-4.9l-5.2-7.5c-0.8-1.2-1.6-2.5-2.3-3.8s-1.3-2.6-1.8-4h-0.1c0.1,1.5,0.2,2.9,0.2,4.2   c0,1.3,0,2.7,0,4.1v7h-4.9v-22H210.9z"/>
		<path class="st0" d="M234.3,16.3h14.6v4h-9.3v4.5h8.4v4h-8.4v5.4h9.4v4h-14.7L234.3,16.3L234.3,16.3z"/>
	</g>
</svg>