<?xml version="1.0" ?>
<!-- Generator: Adobe Illustrator 25.2.3, SVG Export Plug-In . SVG Version: 6.00 Build 0)  -->
<svg xmlns="http://www.w3.org/2000/svg" version="1.2" baseProfile="tiny-ps" viewBox="0 0 1087 1087">
	<g>
		<path fill="#F71229" d="M58.1,574.8c15.1,15.7,34.3,23.2,48.9,20.4c12-1.5,25.2-8,36.5-18.8   c21.1-20.2,27.3-47.9,13.9-61.9c-9.6-10-26.6-10.2-43.2-2.2c-7.8,3.8-16.9,3.6-24.5-0.5c-16.2-8.6-33-9-42.9,0.5   C32.8,525.8,37.9,553.7,58.1,574.8"/>
		<path fill="#F71229" d="M150.4,479.5c3.3-12.1,12.9-20.1,21.5-18c8.6,2.2,13,13.7,9.7,25.8   c-3.3,12.1-12.9,20.1-21.5,18C151.5,503.2,147.2,491.6,150.4,479.5"/>
		<path fill="#F71229" d="M109.5,456.3c2.4-14.6,11.4-25.4,20.2-24.2c8.8,1.2,14.1,14,11.7,28.5   c-2.4,14.6-11.4,25.4-20.2,24.2C112.4,483.7,107.1,470.9,109.5,456.3"/>
		<path fill="#F71229" d="M53,479.5c-3.3-12.1-12.9-20.1-21.5-18c-8.6,2.2-13,13.7-9.7,25.8s12.9,20.1,21.5,18   C51.9,503.2,56.3,491.6,53,479.5"/>
		<path fill="#F71229" d="M93.9,456.3c-2.4-14.6-11.4-25.4-20.2-24.2c-8.8,1.2-14.1,14-11.7,28.5s11.4,25.4,20.2,24.2   C91.1,483.7,96.3,470.9,93.9,456.3"/>
		<path fill="#035DD3" d="M285.2,458.9h-51.2v135.9h34.6v-32.2v-0.6c4.9,0.1,9.5,0.1,13.4,0.1c0,0,4.1,0.2,10.2-0.5   c31.9-3.3,52-22.2,52-51.7C344.1,478.5,321.6,458.9,285.2,458.9 M279.4,534.3c-3.8,0-7.5,0-10.9-0.1V534v-46.5h17.4   c16.4,0,27.2,8.6,27.2,22.1c0,0.7,0,1.4-0.1,2.1C312.4,517.8,308.2,534.3,279.4,534.3"/>
		<path fill="#035DD3" d="M454,522.2c1-9.3-1.6-17.8-7.6-24.5c-8.1-9.1-22-14.1-38.9-14.1c-34.8,0-57.3,22.6-57.3,57.5   c0,16.3,5.5,30.7,15.6,40.5c9.9,9.7,23.5,14.6,40.5,14.6c0.8,0,1.5,0,2.3,0c14.9-0.4,29.5-5,43.2-13.6l1.6-1l-9.6-21.4l-1.9,0.9   c-14.9,6.8-35.3,10.6-47.3,3.7c-4.8-2.7-7.8-6.9-8.9-12.6C405.6,553.4,450.3,554.4,454,522.2 M424.3,520.8c0,1.6-0.5,2.9-1.7,4   c-5.8,5.6-24.5,5.1-37.9,4.6c0.8-8.3,5.2-19.9,23.2-19.9C418.5,509.5,424.3,513.5,424.3,520.8"/>
		<path fill="#035DD3" d="M541.8,568.9l-2.2,0.3c-5.6,0.8-16.2,2.2-23-1.3c-5.9-3.1-6.6-12.3-6.6-19v-29.6h27.4v-29H510v-32.4   l-31.5,0.3l0,33.3l-15.6,3.7v24h14.3v28.1c0,33.3,13.3,48.8,41.9,48.8c8.1,0,15.9-1.7,22.4-4.8l1.2-0.6L541.8,568.9z"/>
		<polygon fill="#F71229" points="630,530.7 580.8,458.9 555,458.9 555,595.5 589.6,595.5 589.4,525.3 620.4,573.4 620.4,573.6    639.6,573.6 639.6,573.4 670.5,525.8 670.5,595.5 705.1,595.5 705.1,458.9 679.3,458.9  "/>
		<path fill="#F71229" d="M1002.7,527.3l-6.4-1.7c-3.9-1-6.5-1.9-7.8-3c-1.4-1-2-2.3-2-3.8c0.1-2.2,1.4-3.8,3.9-4.8   c2.5-1,6.1-1.4,10.7-1.2c2.2,0.1,4.7,0.4,7.4,0.9c2.7,0.5,5.4,1.1,8,1.8c2.6,0.7,5,1.5,7.2,2.3c2.2,0.8,3.8,1.6,4.9,2.3   c1.9-1.5,3.4-3.3,4.7-5.6c1.3-2.3,1.9-5,2-8.2c0.1-3.3-0.8-6.3-2.6-8.8c-1.9-2.5-4.5-4.6-7.7-6.2c-3.3-1.6-7.2-2.9-11.7-3.8   c-4.5-0.9-9.3-1.4-14.5-1.6c-6.8-0.2-13.1,0.4-18.7,1.7c-5.7,1.4-10.6,3.4-14.7,6c-4.1,2.7-7.4,6-9.7,10.1   c-2.4,4.1-3.6,8.7-3.8,13.9c-0.3,9.5,2.4,16.8,8.2,22.1c5.8,5.3,14.6,9.3,26.7,12l6.2,1.4c3.9,0.8,6.6,1.8,8.3,3   c1.6,1.2,2.4,2.7,2.4,4.7c-0.1,2.1-1.3,3.7-3.6,4.9c-2.3,1.2-5.7,1.7-10,1.6c-6.8-0.2-12.8-1.3-18-3.2c-5.2-1.9-9.7-4-13.7-6.4   c-2,1.5-3.7,3.3-5.2,5.6c-1.5,2.2-2.2,5-2.4,8.4c-0.1,3.6,0.8,6.8,2.7,9.5c1.9,2.7,4.6,5,8.1,6.8s7.7,3.3,12.7,4.3   c5,1,10.4,1.6,16.2,1.8c15.4,0.5,27.2-2.1,35.3-7.9c8.1-5.7,12.3-13.9,12.7-24.4c0.3-8.5-2.3-15.5-7.8-21   C1025.3,535.3,1015.9,530.8,1002.7,527.3"/>
		<path fill="#F71229" d="M819.6,522.2c1-9.3-1.6-17.8-7.6-24.5c-8.1-9.1-22-14.1-38.9-14.1c-34.8,0-57.3,22.6-57.3,57.5   c0,16.3,5.5,30.7,15.6,40.5c9.9,9.7,23.5,14.6,40.5,14.6c0.8,0,1.5,0,2.3,0c14.9-0.4,29.5-5,43.2-13.6l1.6-1l-9.6-21.4l-1.9,0.9   c-14.9,6.8-35.3,10.6-47.3,3.7c-4.8-2.7-7.8-6.9-8.9-12.6C771.2,553.4,815.9,554.4,819.6,522.2 M789.9,520.8c0,1.6-0.5,2.9-1.7,4   c-5.8,5.6-24.5,5.1-37.9,4.6c0.8-8.3,5.2-19.9,23.2-19.9C784.1,509.5,789.9,513.5,789.9,520.8"/>
		<path fill="#F71229" d="M950.7,589.8c-4.5-1.8-11.9-9.3-11.9-28.6v-25.5v-83.5H907v43.9c-12.7-10.9-27.7-11.2-29.7-11.2   c-20.3-0.1-32.9,13.7-36.3,17.4c-8.2,9-11.5,18.6-12.8,23.9c-1.2,4.6-2.5,12.1-1.4,21.1c0.5,3.9,2,15.1,9.9,25.6   c1.1,1.4,17.6,22.9,43.8,20.6c14.8-1.3,24.9-9.5,29.3-13.8c1.3,2.1,3.6,5.6,6.2,8.1c7.5,7.7,25.4,8.6,32.1,5.5   c1.7-0.8,2.3-1.3,2.9-1.8C951.5,591.1,951.5,590.1,950.7,589.8 M883.7,564.4c-13.9,0.7-25.9-11.1-26-25c0-13.3,10.8-25,24.6-25   c13.8,0,24.6,11.8,24.6,25C907,552.3,896.7,563.7,883.7,564.4"/>
		<path fill="#035DD3" d="M236.5,650.3h-7.2l12.5-32h7.5l12.5,32h-7.2l-2.8-7.6h-12.4L236.5,650.3z M241.1,637.6h8.7l-3.3-9.5   c-0.3-1.1-0.8-2.7-0.9-3.6h-0.3c-0.1,0.8-0.6,2.4-0.9,3.6L241.1,637.6z"/>
		<path fill="#035DD3" d="M285.4,633h0.3c1.2-3,3.5-5.4,7.6-5.4c5.1,0,8.3,4.3,8.3,9.3v13.3h-7v-12.2c0-2.9-1.4-5.1-3.9-5.1   c-2.2,0-3.9,1.4-4.5,3.2c0,1.5,0,3.1,0,14.1h-7v-12.2c0-2.8-1.5-5.1-3.9-5.1c-2.2,0-3.9,1.4-4.5,3.2v14.1H264v-22h4.2l2,4.3h0.3   c1.2-2.7,3.7-5.1,7.4-5.1C281.6,627.6,284.1,629.8,285.4,633"/>
		<path fill="#035DD3" d="M326.3,648.2c-2.9,1.8-6,2.8-9.3,2.9c-8.8,0.2-12.3-5.7-12.3-11.6c0-7.3,4.6-12.2,12.1-12.2   c6.6,0,10.2,3.5,9.7,8c-0.8,6.6-10.2,6.4-15.1,6.2c0.6,5.7,8,5.2,13.1,2.9L326.3,648.2z M316.9,632.1c-4.2,0-5.5,2.7-5.6,5.3   c4.2,0.2,9.7,0.4,9.7-2.3C321,633.4,319.9,632.1,316.9,632.1"/>
		<path fill="#035DD3" d="M337,650.3h-6.8v-22h3.5l1.5,4.5h0.2c1.3-4.9,7.1-5.8,9.8-4.1v5c-4.6-0.1-8.2,1-8.3,6.2L337,650.3   L337,650.3z"/>
		<path fill="#035DD3" d="M351.8,615.1c2.1,0,3.8,1.6,3.8,3.8c0,2.1-1.6,3.7-3.8,3.7c-2.1,0-3.7-1.6-3.7-3.7   C348.1,616.7,349.7,615.1,351.8,615.1 M348.4,628.3h6.8v22h-6.8V628.3z"/>
		<path fill="#035DD3" d="M372.2,645.5c2.2,0,4-0.5,5.3-0.9v5c-1.9,0.9-3.9,1.4-6.7,1.4c-7.8,0-12.2-5.1-12.2-11.4   c0-6.6,4.2-11.9,12.2-11.9c2.2,0,4.5,0.4,6.7,1.4v4.7c-1.5-0.5-3.3-0.8-5.3-0.8c-4.1,0-6.4,2.6-6.4,6.4   C365.8,643,368.2,645.5,372.2,645.5"/>
		<path fill="#035DD3" d="M399.6,628.3h3.5v14.5c0,1.7,0.4,3,2.7,2.9v4.6c-4,0.9-7.1-0.2-8.5-2.7h-0.1c-2.3,2.1-5.3,3.3-8.2,3   c-6-0.4-9.3-5.4-9.3-11.1c0-6.4,4-11.5,10.4-11.9c2.9-0.2,5.8,0.8,7.8,2.6h0.1L399.6,628.3z M386.2,639.5c0,3.1,1.7,6.2,5.4,6.2   c1.6,0,3.4-0.8,4.8-1.8v-9.8c-1.2-0.7-2.6-1.1-3.9-1.1C388.5,633,386.2,635.9,386.2,639.5"/>
		<path fill="#035DD3" d="M413.9,617.9l1.1,1.3c-1.1,3.8-2.1,6.3-4.1,9.4H407c1-3.9,1.9-7.5,2.4-10.7L413.9,617.9L413.9,617.9z"/>
		<path fill="#035DD3" d="M415.8,648.2l2.4-4.3c2.2,1.4,5.7,2.2,7.4,2.2c1.4,0,3-0.5,3-2.1c-0.3-3.3-11.9-1.2-12.7-8.7   c-0.5-4.9,3.8-7.6,8.6-7.9c3.1-0.1,6.6,0.5,9.7,2.5l-2.2,4.4c-1.8-1.1-5.1-1.8-6.9-1.7c-1.6,0.1-2.9,0.8-2.9,2.1   c0.2,3,12,1.1,13,8.2c0.8,5.4-3.9,7.9-8.3,8.2C422.1,651.6,417.6,650,415.8,648.2"/>
		<polygon fill="#035DD3" points="466.8,633.8 477.9,618.3 483.1,618.3 483.1,650.3 476.4,650.3 476.4,630 476.1,630 468.1,641.1    465,641.1 457,630 456.7,630 456.7,650.3 450.1,650.3 450.1,618.3 455.2,618.3 466.4,633.8  "/>
		<path fill="#035DD3" d="M497.9,627.5c6.8,0,11.6,4.4,11.6,12c0,7.4-5.1,11.5-11.6,11.5c-6.6,0-11.7-4.2-11.7-11.5   C486.2,632,491.1,627.5,497.9,627.5 M497.8,632.5c-3.3,0-4.7,3-4.7,7c0,4.1,1.7,6.6,4.9,6.6c3.2,0,4.7-2.7,4.7-6.6   C502.7,635.3,501.1,632.5,497.8,632.5"/>
		<path fill="#035DD3" d="M511.6,648.2l2.4-4.3c2.2,1.4,5.7,2.2,7.4,2.2c1.4,0,3-0.5,3-2.1c-0.3-3.3-11.9-1.2-12.7-8.7   c-0.5-4.9,3.8-7.6,8.6-7.9c3.1-0.1,6.6,0.5,9.7,2.5l-2.2,4.4c-1.8-1.1-5.1-1.8-6.9-1.7c-1.6,0.1-2.9,0.8-2.9,2.1   c0.2,3,12,1.1,13,8.2c0.8,5.4-3.9,7.9-8.3,8.2C517.9,651.6,513.4,650,511.6,648.2"/>
		<path fill="#035DD3" d="M531.8,633.7v-4.3l4.2-0.8l3-7.2h3.6v6.8h7.6v5.4h-7.6v6.4c0,1.3,0.1,3.9,1.8,4.8c1.7,0.8,4,0.6,5.6,0.4   l0.2,4.3c-1.5,0.7-3.2,1.1-5,1.1c-6.7,0-9.3-3.8-9.3-10.9v-6.1L531.8,633.7L531.8,633.7z"/>
		<polygon fill="#035DD3" points="578.3,650.3 571.5,650.3 571.5,624 561.9,624 561.9,618.3 587.9,618.3 587.9,624 578.3,624  "/>
		<path fill="#035DD3" d="M595.1,650.3h-6.8v-22h3.5l1.5,4.5h0.2c1.3-4.9,7.1-5.8,9.8-4.1v5c-4.6-0.1-8.2,1-8.3,6.2L595.1,650.3   L595.1,650.3z"/>
		<path fill="#035DD3" d="M621.2,628.3h6.8v22h-4.4l-1.3-3.4c-2.1,2.2-5,4.1-8.4,4.1c-5,0-8-3.8-8-8.5v-14.1h6.6v12.9   c0,2.5,1.8,4.5,4.2,4.5c1.8,0,3.4-1,4.5-2.1V628.3z"/>
		<path fill="#035DD3" d="M632,648.2l2.4-4.3c2.2,1.4,5.7,2.2,7.4,2.2c1.4,0,3-0.5,3-2.1c-0.3-3.3-11.9-1.2-12.7-8.7   c-0.5-4.9,3.8-7.6,8.6-7.9c3.1-0.1,6.6,0.5,9.7,2.5l-2.2,4.4c-1.8-1.1-5.1-1.8-6.9-1.7c-1.6,0.1-2.9,0.8-2.9,2.1   c0.2,3,12,1.1,13,8.2c0.8,5.4-3.9,7.9-8.3,8.2C638.3,651.6,633.8,650,632,648.2"/>
		<path fill="#035DD3" d="M652.8,633.7v-4.3l4.2-0.8l3-7.2h3.6v6.8h7.6v5.4h-7.6v6.4c0,1.3,0.1,3.9,1.8,4.8c1.7,0.8,4,0.6,5.6,0.4   l0.2,4.3c-1.5,0.7-3.2,1.1-5,1.1c-6.7,0-9.3-3.8-9.3-10.9v-6.1L652.8,633.7L652.8,633.7z"/>
		<path fill="#035DD3" d="M694.4,648.2c-2.9,1.8-6,2.8-9.3,2.9c-8.8,0.2-12.3-5.7-12.3-11.6c0-7.3,4.6-12.2,12.1-12.2   c6.6,0,10.2,3.5,9.7,8c-0.8,6.6-10.2,6.4-15.1,6.2c0.6,5.7,8,5.2,13.1,2.9L694.4,648.2z M685,632.1c-4.2,0-5.5,2.7-5.6,5.3   c4.2,0.2,9.7,0.4,9.7-2.3C689,633.4,688,632.1,685,632.1"/>
		<path fill="#035DD3" d="M720.6,618.2v32.1h-3.5l-1.4-2.6c-1.8,2-4.5,3.5-8.1,3.5c-6.6,0-10.9-5-10.9-11.5c0-6.7,4.2-12,11.4-12   c2.2,0,4.2,0.7,5.7,1.7v-11.1L720.6,618.2L720.6,618.2z M703.6,639.5c0,3.5,1.9,6.6,5.9,6.6c1.7,0,3.2-0.8,4.3-1.7v-10.4   c-1.1-0.7-2.5-1.1-3.8-1.1C705.9,632.8,703.6,635.6,703.6,639.5"/>
		<path fill="#035DD3" d="M737.5,650.3v-32h13.1c8.6,0,12.5,4.9,12.6,10.2c0.1,5.8-3.8,11.7-13.2,11.7h-5.6v10H737.5z M749.9,634.9   c4.8,0,7.2-3.1,7.1-6.1c0-2.8-2.2-5.3-6.8-5.3h-5.9v11.4H749.9z"/>
		<path fill="#035DD3" d="M786.2,648.2c-2.9,1.8-6,2.8-9.3,2.9c-8.8,0.2-12.3-5.7-12.3-11.6c0-7.3,4.6-12.2,12.1-12.2   c6.6,0,10.2,3.5,9.7,8c-0.8,6.6-10.2,6.4-15.1,6.2c0.6,5.7,8,5.2,13.1,2.9L786.2,648.2z M776.8,632.1c-4.2,0-5.5,2.7-5.6,5.3   c4.2,0.2,9.7,0.4,9.7-2.3C780.9,633.4,779.8,632.1,776.8,632.1"/>
		<path fill="#035DD3" d="M789,633.7v-4.3l4.2-0.8l3-7.2h3.6v6.8h7.6v5.4h-7.6v6.4c0,1.3,0.1,3.9,1.8,4.8c1.7,0.8,4,0.6,5.6,0.4   l0.2,4.3c-1.5,0.7-3.2,1.1-5,1.1c-6.7,0-9.3-3.8-9.3-10.9v-6.1L789,633.7L789,633.7z"/>
		<path fill="#035DD3" d="M822,650.3v-32h13.1c8.6,0,12.5,4.9,12.6,10.2c0.1,5.8-3.8,11.7-13.2,11.7h-5.6v10H822z M834.5,634.9   c4.8,0,7.2-3.1,7.1-6.1c0-2.8-2.2-5.3-6.8-5.3h-5.9v11.4H834.5z"/>
		<path fill="#035DD3" d="M858,650.3h-6.8v-32.1h6.8v11.5c0,1-0.1,1.8-0.1,2.4l0.2,0.1c2-2.3,4.3-4.6,7.9-4.6c4.8,0,8.1,3.8,8.1,8.5   v14.1h-7v-12.8c0-2.5-1.7-4.5-4.2-4.5c-2.1,0-3.8,1.3-4.8,2.7V650.3z"/>
		<path fill="#035DD3" d="M896.8,628.3h3.5v14.5c0,1.7,0.4,3,2.7,2.9v4.6c-4,0.9-7.1-0.2-8.5-2.7h-0.1c-2.3,2.1-5.3,3.3-8.2,3   c-6-0.4-9.3-5.4-9.3-11.1c0-6.4,4-11.5,10.4-11.9c2.9-0.2,5.8,0.8,7.8,2.6h0.1L896.8,628.3z M883.3,639.5c0,3.1,1.7,6.2,5.4,6.2   c1.6,0,3.4-0.8,4.8-1.8v-9.8c-1.2-0.7-2.6-1.1-3.9-1.1C885.7,633,883.3,635.9,883.3,639.5"/>
		<path fill="#035DD3" d="M912.8,650.3H906v-22h3.5l1.5,4.5h0.2c1.3-4.9,7.1-5.8,9.8-4.1v5c-4.6-0.1-8.2,1-8.3,6.2L912.8,650.3   L912.8,650.3z"/>
		<path fill="#035DD3" d="M945.3,633h0.3c1.2-3,3.5-5.4,7.6-5.4c5.1,0,8.3,4.3,8.3,9.3v13.3h-7v-12.2c0-2.9-1.4-5.1-3.9-5.1   c-2.2,0-3.9,1.4-4.5,3.2c0,1.5,0,3.1,0,14.1h-7v-12.2c0-2.8-1.5-5.1-3.9-5.1c-2.2,0-3.9,1.4-4.5,3.2v14.1H924v-22h4.2l2,4.3h0.3   c1.2-2.7,3.7-5.1,7.4-5.1C941.5,627.6,944.1,629.8,945.3,633"/>
		<path fill="#035DD3" d="M984.3,628.3h3.5v14.5c0,1.7,0.4,3,2.7,2.9v4.6c-4,0.9-7.1-0.2-8.5-2.7h-0.1c-2.3,2.1-5.3,3.3-8.2,3   c-6-0.4-9.3-5.4-9.3-11.1c0-6.4,4-11.5,10.4-11.9c2.9-0.2,5.8,0.8,7.8,2.6h0.1L984.3,628.3z M970.9,639.5c0,3.1,1.7,6.2,5.4,6.2   c1.6,0,3.4-0.8,4.8-1.8v-9.8c-1.2-0.7-2.6-1.1-3.9-1.1C973.2,633,970.9,635.9,970.9,639.5"/>
		<path fill="#035DD3" d="M1005.5,645.5c2.2,0,4-0.5,5.3-0.9v5c-1.9,0.9-3.9,1.4-6.7,1.4c-7.8,0-12.2-5.1-12.2-11.4   c0-6.6,4.2-11.9,12.2-11.9c2.2,0,4.5,0.4,6.7,1.4v4.7c-1.5-0.5-3.3-0.8-5.3-0.8c-4.1,0-6.4,2.6-6.4,6.4   C999.1,643,1001.5,645.5,1005.5,645.5"/>
		<path fill="#035DD3" d="M1020.7,628.3l5.1,15l5-15h6.8l-9.1,25c-2.2,6-8.7,8.2-13.4,6.2v-4.3c2.6,0,4.3-0.4,5.5-1.2   c1.1-0.8,1.7-1.9,2.3-3.8l-9.9-21.8H1020.7z"/>
	</g>
	<g>
		<path fill="#F71229" d="M1051.8,491.8h-4.2v-1.1h9.6v1.1h-4.2v10.8h-1.3L1051.8,491.8L1051.8,491.8z"/>
		<path fill="#F71229" d="M1071.6,490.7v11.9h-1.2v-9.5l-4.7,8h-0.6l-4.7-8v9.5h-1.2v-11.9h1l5.2,8.8l5.1-8.8H1071.6z"/>
	</g>
	<path fill="#F71229" d="M63,572.9c15.1,15.7,34.3,23.2,48.9,20.4c12-1.5,25.2-8,36.5-18.8c21.1-20.2,27.3-47.9,13.9-61.9  c-9.6-10-26.6-10.2-43.2-2.2c-7.8,3.8-16.9,3.6-24.5-0.5c-16.2-8.6-33-9-42.9,0.5C37.7,523.9,42.8,551.8,63,572.9"/>
	<path fill="#F71229" d="M155.3,477.6c3.3-12.1,12.9-20.1,21.5-18c8.6,2.2,13,13.7,9.7,25.8c-3.3,12.1-12.9,20.1-21.5,18  C156.4,501.3,152,489.7,155.3,477.6"/>
	<path fill="#F71229" d="M114.4,454.4c2.4-14.6,11.4-25.4,20.2-24.2c8.8,1.2,14.1,14,11.7,28.5c-2.4,14.6-11.4,25.4-20.2,24.2  C117.2,481.8,112,469,114.4,454.4"/>
	<path fill="#F71229" d="M57.9,477.6c-3.3-12.1-12.9-20.1-21.5-18c-8.6,2.2-13,13.7-9.7,25.8c3.3,12.1,12.9,20.1,21.5,18  C56.8,501.3,61.2,489.7,57.9,477.6"/>
	<path fill="#F71229" d="M98.8,454.4c-2.4-14.6-11.4-25.4-20.2-24.2c-8.8,1.2-14.1,14-11.7,28.5c2.4,14.6,11.4,25.4,20.2,24.2  C96,481.8,101.2,469,98.8,454.4"/>
</svg>