<?xml version="1.0" ?>
<svg xmlns="http://www.w3.org/2000/svg" version="1.2" viewBox="0 0 254 254" baseProfile="tiny-ps">
	<g id="white_x5F_background">
		<circle cx="127" cy="127" r="126" fill="#FFFFFF"/>
	</g>
	<g id="symbol">
		<g>
			<path d="M175.14,162.95l34.33,34.32c5.46-6.39,10.17-13.44,14.03-20.98l-72.81-30.17c3.59-4.45,5.97-9.92,6.59-15.92l72.8,30.16    c2.55-7.9,4.25-16.18,4.92-24.75h-48.53v0.01c0.4-2.82,0.68-5.69,0.68-8.63c0-2.94-0.28-5.81-0.69-8.63    c0.01,0.01,0.01,0.01,0.01,0.01H235c-0.67-8.57-2.37-16.85-4.92-24.75l-72.8,30.16c-0.63-6-3.01-11.47-6.61-15.92L223.5,77.7    c-3.86-7.54-8.58-14.58-14.03-20.98l-34.33,34.32c-3.46-4.62-7.56-8.72-12.19-12.19l34.32-34.32    c-6.39-5.45-13.43-10.17-20.98-14.03l-30.16,72.81c-4.44-3.6-9.92-5.98-15.93-6.6l30.16-72.8c-7.89-2.55-16.18-4.25-24.74-4.92    v48.53h0.01c-2.83-0.41-5.7-0.69-8.65-0.69c-2.93,0-5.78,0.28-8.61,0.69V19c-8.58,0.68-16.85,2.37-24.75,4.92l30.16,72.8    c-6,0.63-11.48,3.01-15.93,6.6L77.71,30.51c-7.55,3.86-14.59,8.58-20.98,14.03l34.32,34.32c-4.63,3.46-8.73,7.56-12.19,12.2    c0-0.01,0.01-0.01,0.01-0.02L44.54,56.72c-5.45,6.39-10.16,13.44-14.03,20.98l72.81,30.16c-3.59,4.45-5.97,9.92-6.61,15.92    L23.92,93.63c-2.55,7.9-4.25,16.18-4.92,24.75h48.54v-0.01c-0.41,2.83-0.69,5.7-0.69,8.63c0,2.94,0.28,5.8,0.69,8.63v-0.01H19    c0.68,8.58,2.37,16.85,4.92,24.75l72.79-30.16c0.63,6,3.01,11.47,6.61,15.92L30.51,176.3c3.86,7.54,8.58,14.59,14.02,20.98    l34.33-34.32c3.46,4.63,7.56,8.73,12.19,12.19h-0.01l-34.32,34.32c6.39,5.45,13.43,10.17,20.98,14.03l30.16-72.81    c4.45,3.6,9.92,5.97,15.93,6.61l-30.16,72.8c7.9,2.55,16.17,4.25,24.75,4.92v-48.54c2.83,0.41,5.69,0.69,8.61,0.69    c2.95,0,5.82-0.28,8.65-0.69h-0.01v48.53c8.57-0.67,16.85-2.37,24.74-4.92l-30.16-72.79c6-0.63,11.48-3.01,15.93-6.61l30.16,72.82    c7.54-3.86,14.59-8.57,20.98-14.03l-34.32-34.32c0,0,0,0-0.01,0C167.57,171.69,171.68,167.58,175.14,162.95z"/>
		</g>
	</g>
</svg>