<?xml version="1.0" ?>
<svg xmlns="http://www.w3.org/2000/svg" viewBox="0 0 229.7 75">
	<style>
 .logo-gray-mobile{fill:#7b7b7b}.logo-blue{fill:#0d9ed9}
 </style>
	<path class="logo-gray-mobile" d="M 221.9,17.8 L 221.9,13.7 L 220.4,13.7 L 220.4,12.9 L 224.3,12.9 L 224.3,13.7 L 222.9,13.7 L 222.9,17.8 L 221.9,17.8 M 224.9,17.8 L 224.9,12.9 L 226.4,12.9 L 227.3,16.3 L 228.2,12.9 L 229.7,12.9 L 229.7,17.8 L 228.8,17.8 L 228.8,14.0 L 227.8,17.9 L 226.8,17.9 L 225.8,14.0 L 225.8,17.9 L 224.9,17.8 L 224.9,17.8"/>
	<path d="M 72.6,29.9 C 77.3,30.0 81.3,26.3 81.4,21.5 L 81.4,0.1 L 57.8,0.1 C 53.1,0.0 49.1,3.7 49.0,8.5 L 49.0,24.0 L 32.3,24.0 L 32.3,8.5 C 32.2,3.8 28.3,0.0 23.5,0.1 L 0.0,0.1 L 0.0,21.5 C 0.1,26.2 4.0,30.0 8.8,29.9 L 26.4,29.9 L 26.4,45.3 L 8.8,45.3 C 4.0,45.2 0.1,48.9 0.0,53.7 L 0.0,75.1 L 23.6,75.1 C 28.3,75.2 32.3,71.5 32.4,66.7 L 32.4,51.3 L 49.0,51.3 L 49.0,66.8 C 49.1,71.5 53.0,75.3 57.8,75.2 L 81.4,75.2 L 81.4,53.7 C 81.3,49.0 77.4,45.2 72.6,45.3 L 55.0,45.3 L 55.0,29.9 L 72.6,29.9 M 55.0,8.5 C 55.2,7.0 56.4,6.0 57.8,6.1 L 75.4,6.1 L 75.4,21.5 C 75.3,23.0 74.0,24.0 72.6,23.9 L 55.0,23.9 L 55.0,8.5 M 8.8,23.9 C 7.4,24.0 6.1,23.0 6.0,21.5 L 6.0,6.1 L 23.6,6.1 C 25.0,6.0 26.3,7.1 26.4,8.5 L 26.4,24.0 L 8.8,24.0 L 8.8,23.9 M 26.4,66.7 C 26.3,68.1 25.0,69.2 23.6,69.1 L 6.0,69.1 L 6.0,53.7 C 6.1,52.3 7.4,51.2 8.8,51.3 L 26.4,51.3 L 26.4,66.7 L 26.4,66.7 M 72.6,51.3 C 74.0,51.2 75.3,52.3 75.4,53.7 L 75.4,69.1 L 57.8,69.1 C 56.4,69.2 55.1,68.1 55.0,66.7 L 55.0,51.3 L 72.6,51.3 L 72.6,51.3 M 49.0,45.3 L 32.3,45.3 L 32.3,29.9 L 49.0,29.9 L 49.0,45.3 L 49.0,45.3" fill="#36a7dd"/>
	<path class="logo-blue" d="M 26.4,23.9 L 32.4,23.9 L 32.4,29.9 L 26.4,29.9 L 26.4,23.9 M 55.0,23.9 L 55.0,29.9 L 49.0,29.9 L 49.0,23.9 L 55.0,23.9 M 32.3,45.3 L 32.3,51.3 L 26.4,51.3 L 26.4,45.3 L 32.3,45.3 M 55.0,45.3 L 55.0,51.3 L 49.0,51.3 L 49.0,45.3 L 55.0,45.3"/>
	<path class="logo-gray-mobile" d="M 86.1,0.1 C 86.5,0.1 87.0,0.2 87.4,0.4 C 87.8,0.6 88.1,0.9 88.3,1.3 C 88.5,1.7 88.6,2.1 88.6,2.6 C 88.6,3.0 88.5,3.5 88.3,3.9 C 88.1,4.3 87.8,4.6 87.4,4.8 C 86.6,5.3 85.6,5.3 84.8,4.8 C 84.4,4.6 84.1,4.3 83.9,3.9 C 83.7,3.5 83.6,3.1 83.6,2.6 C 83.6,2.1 83.7,1.7 83.9,1.3 C 84.1,0.9 84.5,0.6 84.8,0.4 C 85.2,0.2 85.7,0.1 86.1,0.1 L 86.1,0.1 M 86.1,0.6 C 85.8,0.6 85.4,0.7 85.1,0.9 C 84.8,1.1 84.5,1.3 84.3,1.7 C 84.1,2.0 84.0,2.3 84.0,2.7 C 84.0,3.1 84.1,3.4 84.3,3.7 C 84.5,4.0 84.7,4.3 85.1,4.5 C 85.7,4.8 86.5,4.8 87.1,4.5 C 87.4,4.3 87.7,4.1 87.9,3.7 C 88.3,3.1 88.3,2.3 87.9,1.6 C 87.7,1.3 87.5,1.0 87.1,0.8 C 86.8,0.7 86.4,0.6 86.1,0.6 L 86.1,0.6 M 85.0,4.0 L 85.0,1.3 L 86.4,1.3 C 86.5,1.3 86.7,1.3 86.8,1.4 L 87.1,1.7 C 87.2,1.8 87.2,2.0 87.2,2.1 C 87.2,2.3 87.1,2.5 87.0,2.6 C 86.9,2.7 86.7,2.8 86.5,2.9 C 86.6,2.9 86.6,3.0 86.7,3.0 L 86.9,3.2 C 86.9,3.2 87.0,3.4 87.0,3.5 L 87.4,4.0 L 86.7,4.0 L 86.5,3.6 C 86.3,3.4 86.2,3.2 86.0,3.0 C 85.9,2.9 85.8,2.9 85.6,2.9 L 85.5,2.9 L 85.5,4.0 L 85.0,4.0 M 85.6,2.5 L 86.4,2.5 C 86.5,2.5 86.5,2.4 86.6,2.4 L 86.6,2.2 C 86.6,2.1 86.6,2.1 86.5,2.0 C 86.5,1.9 86.4,1.9 86.3,1.9 L 85.5,1.9 L 85.6,2.5 L 85.6,2.5 M 126.5,41.9 L 115.2,41.9 L 115.2,60.0 C 115.2,61.2 114.3,62.1 113.2,62.2 L 113.0,62.2 C 111.8,62.2 110.8,61.3 110.8,60.1 L 110.8,15.7 C 110.8,14.5 111.8,13.5 113.0,13.5 L 125.7,13.5 C 137.0,13.5 141.0,20.0 141.0,26.2 L 141.0,29.6 C 141.0,36.8 135.6,41.9 126.5,41.9 M 136.6,26.2 C 136.6,22.3 134.2,17.5 125.4,17.5 L 115.1,17.5 L 115.1,37.8 L 126.3,37.8 C 133.4,37.8 136.6,34.0 136.6,29.3 L 136.6,26.2 L 136.6,26.2 M 175.4,61.6 L 151.6,61.6 C 150.5,61.6 149.5,60.7 149.5,59.6 L 149.5,15.6 C 149.5,14.4 150.4,13.4 151.6,13.4 L 174.4,13.4 C 175.6,13.4 176.5,14.4 176.5,15.5 C 176.5,16.7 175.5,17.6 174.4,17.6 L 153.8,17.6 L 153.8,35.4 L 172.5,35.4 C 173.6,35.4 174.6,36.3 174.6,37.4 C 174.6,38.5 173.7,39.4 172.5,39.4 L 153.8,39.4 L 153.8,57.2 L 175.3,57.2 C 176.4,57.3 177.3,58.2 177.3,59.4 C 177.3,60.7 176.5,61.6 175.4,61.6 L 175.4,61.6 M 216.4,62.2 C 215.6,62.2 215.0,61.8 214.6,61.1 C 210.4,54.1 206.1,47.2 201.3,40.3 C 196.5,47.2 192.1,54.1 187.9,61.1 C 187.6,61.8 186.9,62.2 186.1,62.2 C 184.9,62.2 183.9,61.3 183.9,60.1 C 183.9,59.7 184.0,59.3 184.2,58.9 C 188.6,51.3 193.5,43.9 198.6,36.4 C 194.1,29.8 189.9,23.1 186.0,16.0 C 185.8,15.6 185.7,15.2 185.8,14.8 C 185.9,13.7 186.8,12.8 188.0,12.8 C 188.8,12.8 189.5,13.3 189.8,14.0 C 193.3,20.3 197.1,26.5 201.3,32.7 C 205.5,26.5 209.2,20.3 212.7,14.0 C 213.0,13.3 213.7,12.8 214.5,12.8 C 215.7,12.8 216.6,13.7 216.7,14.9 C 216.7,15.3 216.6,15.7 216.4,16.0 C 212.5,23.0 208.3,29.8 203.7,36.4 C 208.9,43.9 213.7,51.3 218.2,58.9 C 218.4,59.2 218.5,59.6 218.5,60.0 C 218.5,61.3 217.6,62.2 216.4,62.2 L 216.4,62.2"/>
</svg>