<svg xmlns="http://www.w3.org/2000/svg" fill="none" viewBox="0 0 231 51">
  <defs></defs>
  <path fill="#991B1E" d="M50.25 25.125C50.25 11.231 38.985 0 25.125 0 11.231 0 0 11.231 0 25.125 0 38.985 11.231 50.25 25.125 50.25c13.86 0 25.125-11.265 25.125-25.125z"></path>
  <path fill="#991B1E" d="M48.987 25.125c0-13.177-10.685-23.862-23.862-23.862-13.177 0-23.862 10.685-23.862 23.862 0 13.177 10.685 23.862 23.862 23.862 13.177 0 23.862-10.685 23.862-23.862z"></path>
  <path fill="#fff" d="M34.888 8.125s9.32 6.656 9.661 14.952c.342 8.33-6.315 9.66-9.66 9.217 0 0 4.335.922 7.646.068 0 0-2.765 3.687-13.62 2.8-10.856-.888-7.75 5.427-3.312 5.53 0 0 .683 1.536-3.107.648-3.755-.887-4.54-4.199-4.881-2.662-.341 1.536 2.424 5.223 12.187 4.984 0 0 0 1.433-7.544.99-7.545-.444-12.324-4.882-12.631-14.201-.342-9.32 8.09-14.645 12.87-13.416 4.779 1.229 2.662-2.322.443-4.097 0 0 4.097-.785 6.316.785 2.219 1.536 6.11.99 6.11.99s-7.544 2.424-5.974 6.316c1.536 3.891 7.203 2.765 8.534.239 1.264-2.527 2.254-5.497-3.038-13.143z"></path>
  <path fill="#fff" d="M24.442 5.667s-9.08 2.219-7.203 8.09c.649 2.117.512 2.083.512 2.083s-7.305 2.116-8.193 8.91c0 0-.887-.444-1.536-2.663-.648-2.22-1.468-5.77 1.536-9.866 3.039-4.096 12.017-7.1 14.884-6.554z"></path>
  <path fill="#fff" d="M37.585 21.745s0-.034 0 0c-1.673 2.22-6.793 3.005-8.261-.648-1.536-3.892 5.974-6.316 5.974-6.316s-.137.035-.41.035c-2.8.682-9.32 2.765-7.612 6.998 2.184 5.325 9.387 1.775 10.309-.069z" opacity=".23"></path>
  <path fill="#fff" d="M34.956 8.193c2.697 3.004 10.447 12.597 6.213 19.56-3.038 4.131-8.056 3.039-8.056 3.039s-.034 1.194 2.15 1.57c4.575.341 9.56-1.536 9.252-9.285-.307-7.852-8.637-14.201-9.559-14.884zM28.846 33.83c-11.504-.99-11.265 7.237-3.277 6.998 0-.068-.034-.137-.034-.137-4.438-.102-7.545-6.417 3.311-5.53 10.856.888 13.62-2.799 13.62-2.799h-.068c-1.74.888-5.735 2.15-13.552 1.468z" opacity=".23"></path>
  <path fill="#fff" d="M29.426 43.696c-9.456.136-12.187-3.448-11.845-4.984.034-.205.273-.342.307-.376-1.16-1.297-3.107-.273-1.98 1.331 4.506 5.053 10.89 4.54 13.518 4.029z" opacity=".23"></path>
  <path fill="#991B1E" d="M60.457 22.701c0-1.843-.068-3.345-.137-4.745h2.322l.136 2.492h.069c1.058-1.775 2.799-2.8 5.154-2.8 3.55 0 6.18 2.97 6.18 7.34 0 5.223-3.176 7.784-6.59 7.784-1.911 0-3.584-.854-4.471-2.287h-.069v7.885h-2.594V22.701zm2.594 3.858c0 .375.035.75.137 1.092a4.052 4.052 0 003.96 3.073c2.8 0 4.404-2.288 4.404-5.599 0-2.867-1.537-5.36-4.302-5.36-1.809 0-3.516 1.264-3.994 3.244-.102.34-.17.716-.17 1.058v2.492h-.035zM77.492 11.197h2.628v9.08h.068c.41-.75 1.093-1.433 1.878-1.877a5.478 5.478 0 012.697-.717c1.945 0 5.052 1.195 5.052 6.179v8.637h-2.629v-8.364c0-2.321-.853-4.267-3.345-4.267-1.707 0-3.038 1.195-3.55 2.594-.137.376-.171.785-.171 1.263v8.74h-2.629V11.197zM107.225 25.09c0 5.36-3.755 7.716-7.203 7.716-3.892 0-6.964-2.868-6.964-7.442 0-4.813 3.209-7.68 7.203-7.68 4.165-.035 6.964 3.003 6.964 7.407zm-11.47.137c0 3.175 1.81 5.565 4.37 5.565 2.526 0 4.403-2.356 4.403-5.633 0-2.458-1.229-5.53-4.335-5.53-3.073 0-4.438 2.867-4.438 5.598zM112.004 25.671c.069 3.55 2.322 5.018 4.984 5.018 1.878 0 3.038-.341 4.028-.75l.478 1.877c-.921.41-2.56.921-4.847.921-4.472 0-7.135-2.97-7.135-7.339 0-4.37 2.561-7.783 6.794-7.783 4.779 0 5.974 4.13 5.974 6.793 0 .546-.035.922-.103 1.229h-10.173v.034zm7.749-1.877c.035-1.639-.682-4.268-3.652-4.268-2.697 0-3.824 2.424-4.029 4.268h7.681zM125.557 21.882c0-1.536-.034-2.731-.137-3.926h2.322l.136 2.39h.068c.717-1.332 2.39-2.697 4.78-2.697 2.014 0 5.12 1.195 5.12 6.179v8.637h-2.628V24.1c0-2.322-.854-4.267-3.346-4.267-1.707 0-3.038 1.229-3.55 2.697-.137.34-.171.785-.171 1.229v8.704h-2.628V21.883h.034zM145.117 13.894c0 .887-.614 1.604-1.672 1.604-.956 0-1.571-.717-1.571-1.604 0-.888.649-1.639 1.639-1.639.956 0 1.604.717 1.604 1.639zm-2.935 18.57V17.956h2.628v14.508h-2.628zM150.409 17.956l2.082 3.107c.58.82 1.024 1.536 1.502 2.321h.068c.478-.853.956-1.57 1.468-2.355l2.014-3.073h2.868l-4.95 6.998 5.052 7.477h-2.97l-2.15-3.278a38.522 38.522 0 01-1.571-2.526h-.068a41.985 41.985 0 01-1.536 2.526l-2.082 3.278h-2.902l5.155-7.408-4.916-7.067h2.936z"></path>
  <path fill="#020202" d="M177.241 24.75c0 5.29-3.653 7.578-7.135 7.578-3.858 0-6.862-2.833-6.862-7.374 0-4.779 3.141-7.578 7.101-7.578 4.13 0 6.896 3.004 6.896 7.374zm-11.334.136c0 3.14 1.809 5.496 4.335 5.496 2.492 0 4.336-2.321 4.336-5.564 0-2.424-1.195-5.496-4.301-5.496-3.039.034-4.37 2.867-4.37 5.564zM180.518 22.19c0-1.673-.034-3.141-.103-4.473h2.287l.103 2.8h.102c.649-1.912 2.219-3.141 3.96-3.141.307 0 .512.034.751.102v2.458a3.518 3.518 0 00-.887-.102c-1.844 0-3.141 1.4-3.482 3.345a6.43 6.43 0 00-.103 1.195v7.613h-2.56v-9.798h-.068zM194.036 13.62v4.097h3.721v1.98h-3.721v7.715c0 1.775.512 2.765 1.946 2.765a6.7 6.7 0 001.502-.17l.102 1.945c-.512.205-1.297.342-2.321.342-1.229 0-2.185-.376-2.799-1.092-.751-.752-.99-2.049-.99-3.721v-7.784h-2.219v-1.98h2.219v-3.413l2.56-.683zM200.693 11.026h2.594v8.91h.069a4.648 4.648 0 011.877-1.843c.751-.444 1.673-.751 2.663-.751 1.912 0 4.984 1.195 4.984 6.11v8.5h-2.595v-8.158c0-2.322-.853-4.268-3.311-4.268-1.673 0-3.004 1.195-3.482 2.595-.136.341-.171.751-.171 1.229v8.637h-2.594v-20.96h-.034zM230.017 24.75c0 5.29-3.653 7.578-7.135 7.578-3.858 0-6.862-2.833-6.862-7.374 0-4.779 3.141-7.578 7.101-7.578 4.131 0 6.896 3.004 6.896 7.374zm-11.334.136c0 3.14 1.809 5.496 4.336 5.496 2.492 0 4.335-2.321 4.335-5.564 0-2.424-1.195-5.496-4.301-5.496-3.039.034-4.37 2.867-4.37 5.564z"></path>
</svg>