<?xml version="1.0" ?>
<svg xmlns="http://www.w3.org/2000/svg" viewBox="0 0 60 60" enable-background="new 0 0 60 60">
	<path d="M37.2 43.4c-.7.5-1.4.8-2.2 1h-.1l-.3.1c-1.2.3-2.5.2-3.7-.4-.5-.3-.9-.6-1.4-.9-1.2-.9-2.3-1.9-3.2-3-.3-.4-.6-.8-1-1.2-1.1-1.5-2.1-3.2-2.8-5-.2-.6-.4-1.3-.6-1.9-.2-1.2 0-2.5.7-3.6l.2-.4.1-.1c.5-.7 1-1.3 1.7-1.8.4-.3.9-.2 1.2.2l1.5 2.1c.3.4.6.8.9 1.1.3.4.1 1-.2 1.2L26.3 32c-.3.2-.3.5-.2.8.5 1.5 1.3 2.8 2.2 4.1l.5.7c.7.8 1.5 1.6 2.4 2.3.2.2.6.2.8.1l1.7-1.2c.4-.3.9-.2 1.3.2.4.6.9 1.2 1.3 1.8l1.1 1.4c.3.4.2.9-.2 1.2zm8.2-16.2c-.6.3-1.3.6-2 .8-2.3.8-4.4.6-3.6-3.2.1-.6.3-1.2.6-1.8.2-.7.3-1.4.1-2.1-.1-.3-.2-.7-.4-1-.5-.8-1.1-1.5-1.8-2s-1.4-.9-2.1-1.2c.2 1 .1 2-.1 2.9-.2.5-.5 1-1 1.3-.9.4-2 .4-2.9 0-2-.7-2.7-2.4-2.9-4.3-.1-2.2.2-4.4.8-6.5l-1.5.9c-1.1.8-2 1.7-2.8 2.8-.8 1-1.4 2.2-1.9 3.4-.2.7-.4 1.3-.6 2-.1.6-.3 1.2-.5 1.8-1.1 2.7-3.2 3.7-3.4 2.1-.1-.5 0-.9.1-1.4-.7.5-1.3 1.2-1.7 2-.2.5-.4 1-.4 1.5 0 .2-.1.4-.1.6 0 .8 0 1.5.1 2.2.2 2.2.6 3.9-1 3.6-.6-.1-1.2-.4-1.7-.7.1.1.2.3.3.5.7 1.6 1.1 3.3 1.3 5.1.2 1.6.6 3.2 1.1 4.7.6 1.8 1.6 3.4 2.8 4.9 1.6 1.5 3.5 2.6 5.6 3.2 2.8.8 5.6 1 8.5.5 1.2-.1 2.4-.5 3.4-1 .5-.2.9-.5 1.4-.8.5-.4 1.1-.8 1.6-1.3 1.2-1.3 2-3 2.3-4.7.3-1.4.1-4.6.1-7.1.1-2.4.8-4.7 2-6.7-.1-.4.1-.7.3-1z" fill-rule="evenodd" clip-rule="evenodd" fill="#fd671a"/>
</svg>