<?xml version="1.0" ?>
<!-- Generator: Adobe Illustrator 28.1.0, SVG Export Plug-In . SVG Version: 6.00 Build 0)  -->
<svg xmlns="http://www.w3.org/2000/svg" viewBox="0 0 416.17 145.02" enable-background="new 0 0 416.17 145.02">
	<style type="text/css">
	.st0{fill:#00457C;}
	.st1{fill:#0079C1;}
	.st2{fill:#66B2FF;}
</style>
	<path class="st0" d="M392.99,133.75c-1.92,0-3.85,0.01-5.77,0c-4.65-0.01-4.94-0.49-5.49-5.49c-0.63-5.84-1.13-11.75-2.46-17.44  c-8.98-38.29-39.81-67.48-77.78-73.89c-2.84-0.48-5.73-0.75-8.6-0.86c-2.9-0.11-4.3-1.24-4.2-4.38c0.15-4.48,0.03-8.96,0.04-13.44  c0.01-4.48,0.31-4.93,4.82-4.61c12.77,0.9,25.22,3.52,36.96,8.76c39.19,17.48,63.2,47.67,71.54,90.61c1.1,5.64,1.17,11.49,1.7,17.24  c0.23,2.52-0.94,3.61-3.39,3.52C397.91,133.68,395.45,133.75,392.99,133.75z"/>
	<path class="st1" d="M358.65,133.75c-2.46,0-4.92-0.07-7.37,0.02c-2.36,0.09-3.44-0.81-3.64-3.36c-1.1-13.99-5.77-26.56-14.76-37.28  c-10.05-11.98-22.71-19.29-38.01-21.69c-1.05-0.17-2.1-0.46-3.16-0.51c-2.39-0.1-3.02-1.5-3-3.69c0.06-5.13,0.09-10.27-0.01-15.4  c-0.05-2.6,0.91-3.38,3.48-3.15c40.07,3.62,71.09,33.64,76.72,74.36c0.33,2.38,0.42,4.78,0.7,7.17c0.3,2.58-0.8,3.63-3.27,3.55  C363.78,133.69,361.22,133.75,358.65,133.75z"/>
	<path class="st2" d="M325.7,133.76c-2.67,0-5.34-0.04-8.01,0.01c-2.02,0.04-3.04-0.67-3.38-2.93c-2-13.19-9.29-21.73-21.94-25.21  c-2.8-0.77-3.81-2.12-3.69-5.04c0.19-4.9,0.1-9.82,0.04-14.74c-0.03-2.53,0.83-3.49,3.48-3.13c22.74,3.09,40.62,21.02,44.02,44.26  c0.97,6.62,0.84,6.77-5.72,6.77C328.91,133.76,327.3,133.76,325.7,133.76z"/>
	<g>
		<g>
			<path class="st1" d="M33.32,80.57c0,3.42-0.89,6.08-2.67,8c-1.78,1.92-4.25,2.88-7.42,2.88c-3.17,0-5.62-0.96-7.35-2.88    s-2.59-4.59-2.59-8V22.96c0-3.5,1.27-5.91,3.82-7.23c2.54-1.32,5.5-1.98,8.86-1.98h15.41c7.2,0,13.3,0.66,18.29,1.98    c4.99,1.32,8.76,3.8,11.31,7.43c2.54,3.63,3.82,8.94,3.82,15.94c0,5.46-0.84,9.86-2.52,13.19c-1.68,3.33-4.08,5.89-7.2,7.68    c-3.12,1.79-6.87,3.01-11.23,3.65c-4.37,0.64-9.29,0.96-14.76,0.96h-5.76V80.57z M42.39,49.84c3.17,0,5.69-0.36,7.56-1.09    c1.87-0.72,3.22-1.88,4.03-3.46c0.82-1.58,1.22-3.65,1.22-6.21c0-3.93-0.91-6.68-2.74-8.26c-1.83-1.58-4.99-2.37-9.51-2.37H32.88    v21.38H42.39z"/>
			<path class="st1" d="M86.03,23.21c0-3.41,0.89-6.08,2.66-8c1.78-1.92,4.2-2.88,7.27-2.88c3.17,0,5.64,0.96,7.42,2.88    c1.78,1.92,2.66,4.59,2.66,8v57.35c0,3.42-0.89,6.08-2.66,8c-1.78,1.92-4.25,2.88-7.42,2.88c-3.07,0-5.5-0.96-7.27-2.88    c-1.78-1.92-2.66-4.59-2.66-8V23.21z"/>
			<path class="st1" d="M165.53,22.45c0-3.24,0.79-5.74,2.38-7.49c1.58-1.75,3.86-2.62,6.84-2.62c2.88,0,5.13,0.88,6.77,2.62    c1.63,1.75,2.45,4.25,2.45,7.49v57.61c0,2.99-0.79,5.61-2.38,7.87c-1.58,2.26-4.25,3.39-7.99,3.39c-2.11,0-3.96-0.49-5.54-1.47    c-1.58-0.98-3.15-2.62-4.68-4.93l-27.65-41.74v38.15c0,3.25-0.79,5.74-2.38,7.49c-1.58,1.75-3.87,2.62-6.84,2.62    c-2.88,0-5.14-0.88-6.77-2.62c-1.63-1.75-2.45-4.24-2.45-7.49V24.75c0-3.33,0.86-6.21,2.59-8.64c1.73-2.43,4.61-3.65,8.64-3.65    c2.4,0,4.44,0.53,6.12,1.6c1.68,1.07,3.33,2.84,4.97,5.31l25.92,39.18V22.45z"/>
			<path class="st1" d="M242.29,60.6h-4.46c-2.69,0-4.78-0.58-6.26-1.73c-1.49-1.15-2.23-2.71-2.23-4.67c0-2.9,1.05-4.91,3.17-6.02    c2.11-1.11,4.56-1.66,7.35-1.66h5.91c2.5,0,4.92,0.17,7.27,0.51c2.35,0.34,4.1,1.49,5.26,3.46c0.77,1.37,1.22,3.05,1.37,5.06    c0.14,2.01,0.22,4.08,0.22,6.21v14.34c0,2.82-0.27,4.93-0.79,6.34c-0.53,1.41-1.66,2.75-3.38,4.03c-1.92,1.45-5.11,2.65-9.58,3.58    c-4.46,0.94-9.43,1.41-14.91,1.41c-13.25,0-22.76-3.07-28.52-9.22c-2.59-2.73-4.54-6.21-5.83-10.43    c-1.3-4.22-1.94-9.11-1.94-14.66v-10.5c0-5.72,0.72-10.75,2.16-15.11c1.44-4.35,3.55-7.94,6.34-10.75    c5.76-5.63,14.31-8.45,25.64-8.45c11.52,0,19.16,2.18,22.9,6.53c1.15,1.28,1.73,2.78,1.73,4.48c0,2.05-0.86,3.86-2.59,5.44    c-1.73,1.58-3.7,2.37-5.91,2.37c-0.1,0-0.29-0.02-0.58-0.06c-0.29-0.04-0.91-0.23-1.87-0.58c-0.96-0.34-2.59-0.9-4.9-1.66    c-0.96-0.43-2.11-0.75-3.46-0.96c-1.35-0.21-2.88-0.32-4.61-0.32c-4.99,0-8.64,1.54-10.95,4.61c-1.15,1.54-2.04,3.65-2.66,6.34    c-0.63,2.69-0.94,5.91-0.94,9.67v8.45c0,2.99,0.24,5.59,0.72,7.81c0.48,2.22,1.1,4.1,1.87,5.63c1.25,2.13,2.9,3.69,4.97,4.67    c2.06,0.98,4.78,1.47,8.14,1.47c2.4,0,4.42-0.13,6.05-0.38c1.63-0.26,3.41-0.64,5.33-1.15V60.6z"/>
		</g>
	</g>
	<rect x="402.81" y="-100.6" width="190.98" height="88.34" fill-rule="evenodd" clip-rule="evenodd" fill="none"/>
	<g>
		<g>
			<path class="st2" d="M21.65,129.8c0,1.43-0.37,2.55-1.12,3.36c-0.75,0.81-1.78,1.21-3.11,1.21s-2.36-0.4-3.08-1.21    c-0.73-0.81-1.09-1.93-1.09-3.36v-24.19c0-1.47,0.53-2.48,1.6-3.04c1.07-0.55,2.31-0.83,3.72-0.83h6.47    c3.02,0,5.58,0.28,7.68,0.83c2.1,0.56,3.68,1.6,4.75,3.12c1.07,1.52,1.6,3.76,1.6,6.69c0,2.29-0.35,4.14-1.06,5.54    c-0.71,1.4-1.71,2.47-3.02,3.23c-1.31,0.75-2.88,1.26-4.72,1.53c-1.84,0.27-3.9,0.4-6.2,0.4h-2.42V129.8z M25.46,116.9    c1.33,0,2.39-0.15,3.18-0.46c0.79-0.3,1.35-0.79,1.69-1.45c0.34-0.66,0.51-1.53,0.51-2.61c0-1.65-0.38-2.8-1.15-3.47    c-0.77-0.66-2.1-1-3.99-1h-4.23v8.98H25.46z"/>
			<path class="st2" d="M50.93,127.65l-1.33,3.49c-0.81,2.12-2.16,3.17-4.05,3.17c-1.05,0-1.97-0.33-2.75-1s-1.18-1.44-1.18-2.34    c0-0.32,0.04-0.65,0.12-0.99c0.08-0.34,0.22-0.73,0.42-1.16l9.68-23.33c0.6-1.51,1.36-2.6,2.27-3.28    c0.91-0.68,2.05-1.02,3.42-1.02c1.37,0,2.51,0.34,3.42,1.02c0.91,0.68,1.66,1.77,2.27,3.28l9.74,23.07    c0.36,0.82,0.54,1.59,0.54,2.31c0,0.93-0.4,1.74-1.21,2.42c-0.81,0.68-1.77,1.02-2.9,1.02c-1.98,0-3.37-1.11-4.17-3.33l-1.33-3.33    H50.93z M57.46,110.39l-4.48,11.24h8.89L57.46,110.39z"/>
			<path class="st2" d="M76.15,107.49c-0.56-1.08-0.85-1.99-0.85-2.74c0-0.93,0.44-1.76,1.33-2.47c0.89-0.72,1.88-1.08,2.96-1.08    c0.97,0,1.79,0.24,2.48,0.73c0.69,0.48,1.27,1.26,1.75,2.34l5.08,9.95l5.14-10.11c0.93-1.94,2.26-2.9,3.99-2.9    c1.05,0,1.98,0.34,2.78,1.02c0.81,0.68,1.21,1.45,1.21,2.31c0,0.82-0.28,1.68-0.85,2.58l-8.47,14.68v8.01    c0,1.43-0.36,2.55-1.09,3.36c-0.73,0.81-1.75,1.21-3.08,1.21c-1.33,0-2.36-0.4-3.08-1.21c-0.73-0.81-1.09-1.93-1.09-3.36v-8.01    L76.15,107.49z"/>
			<path class="st2" d="M115.46,130.45c-0.24,2.62-1.53,3.92-3.87,3.92c-1.13,0-2.03-0.34-2.69-1.02c-0.67-0.68-1-1.56-1-2.63    c0-0.18,0-0.32,0-0.43s0-0.23,0-0.38l2.36-23.71c0.12-1.4,0.57-2.59,1.36-3.58c0.79-0.99,2.03-1.48,3.72-1.48    c1.21,0,2.22,0.31,3.03,0.94s1.47,1.62,2,2.98l6.65,16.02l6.65-16.18c0.48-1.29,1.12-2.24,1.91-2.85    c0.79-0.61,1.78-0.91,2.99-0.91c1.65,0,2.85,0.48,3.6,1.45s1.18,2.12,1.3,3.44l2.36,23.87c0.04,0.14,0.06,0.27,0.06,0.38    s0,0.25,0,0.43c0,1.08-0.33,1.95-1,2.63c-0.67,0.68-1.56,1.02-2.69,1.02c-1.13,0-2.04-0.33-2.72-1s-1.07-1.64-1.15-2.93    L137,113.94l-6.17,14.3c-0.85,1.97-2.16,2.96-3.93,2.96c-1.82,0-3.17-0.99-4.05-2.96l-6.05-14.3L115.46,130.45z"/>
			<path class="st2" d="M162.58,114.05h8.95c1.41,0,2.5,0.29,3.27,0.86c0.77,0.57,1.15,1.36,1.15,2.37c0,1-0.38,1.79-1.15,2.37    c-0.77,0.57-1.86,0.86-3.27,0.86h-8.95v6.67h11.31c1.41,0,2.51,0.3,3.3,0.89c0.79,0.59,1.18,1.41,1.18,2.45s-0.39,1.85-1.18,2.42    c-0.79,0.57-1.89,0.86-3.3,0.86h-15.36c-1.65,0-2.79-0.47-3.42-1.42c-0.62-0.95-0.94-2.05-0.94-3.31v-22.58    c0-1.72,0.41-2.94,1.24-3.66c0.83-0.72,2.19-1.08,4.08-1.08h13.85c1.45,0,2.57,0.29,3.36,0.86s1.18,1.38,1.18,2.42    c0,1.04-0.39,1.86-1.18,2.45c-0.79,0.59-1.91,0.89-3.36,0.89h-10.77V114.05z"/>
			<path class="st2" d="M205.16,105.39c0-1.36,0.33-2.41,1-3.15c0.67-0.73,1.62-1.1,2.87-1.1c1.21,0,2.16,0.37,2.84,1.1    c0.69,0.74,1.03,1.78,1.03,3.15v24.19c0,1.25-0.33,2.36-1,3.31c-0.67,0.95-1.78,1.42-3.36,1.42c-0.89,0-1.66-0.21-2.33-0.62    c-0.67-0.41-1.32-1.1-1.97-2.07l-11.61-17.53v16.02c0,1.36-0.33,2.41-1,3.15c-0.67,0.73-1.62,1.1-2.87,1.1    c-1.21,0-2.16-0.37-2.84-1.1c-0.69-0.73-1.03-1.78-1.03-3.15v-23.76c0-1.4,0.36-2.61,1.09-3.63s1.94-1.53,3.63-1.53    c1.01,0,1.87,0.22,2.57,0.67c0.71,0.45,1.4,1.19,2.09,2.23l10.89,16.45V105.39z"/>
			<path class="st2" d="M222.52,108.35c-1.45,0-2.57-0.3-3.36-0.89c-0.79-0.59-1.18-1.41-1.18-2.45c0-1.04,0.39-1.85,1.18-2.42    s1.91-0.86,3.36-0.86h20.32c1.45,0,2.57,0.29,3.36,0.86c0.79,0.57,1.18,1.38,1.18,2.42c0,1.04-0.39,1.86-1.18,2.45    c-0.79,0.59-1.91,0.89-3.36,0.89h-5.99v21.45c0,1.43-0.36,2.55-1.09,3.36s-1.75,1.21-3.08,1.21c-1.33,0-2.36-0.4-3.08-1.21    c-0.73-0.81-1.09-1.93-1.09-3.36v-21.45H222.52z"/>
			<path class="st2" d="M254.49,117.78c-1.39-0.88-2.38-1.89-2.96-3.04c-0.58-1.15-0.88-2.51-0.88-4.09c0-3.12,1-5.48,2.99-7.1    c2-1.61,4.93-2.42,8.8-2.42c1.98,0,3.73,0.21,5.26,0.62c1.53,0.41,2.72,0.97,3.57,1.67s1.27,1.51,1.27,2.45    c0,0.9-0.34,1.66-1.03,2.29c-0.69,0.63-1.51,0.94-2.48,0.94c-0.24,0-0.44-0.02-0.6-0.05c-0.16-0.04-0.41-0.12-0.76-0.24    s-0.9-0.35-1.66-0.67c-0.97-0.39-2.02-0.59-3.15-0.59c-1.25,0-2.23,0.24-2.93,0.73c-0.71,0.48-1.06,1.14-1.06,1.96    c0,0.54,0.16,0.99,0.48,1.37c0.32,0.38,0.9,0.75,1.72,1.13c0.83,0.38,1.99,0.85,3.48,1.42c1.97,0.72,3.71,1.47,5.2,2.26    c1.49,0.79,2.66,1.81,3.51,3.06c0.85,1.25,1.27,2.92,1.27,5c0,3.41-1.08,5.91-3.24,7.5c-2.16,1.59-5.54,2.39-10.13,2.39    c-3.67,0-6.53-0.43-8.59-1.29s-3.19-2.06-3.39-3.6c-0.04-0.54,0.1-1.11,0.42-1.72c0.28-0.57,0.72-1.01,1.3-1.32    c0.58-0.3,1.18-0.46,1.78-0.46c0.4,0,0.73,0.04,0.97,0.11c0.24,0.07,0.81,0.29,1.69,0.65c1.69,0.82,3.67,1.24,5.93,1.24    c1.57,0,2.8-0.27,3.69-0.81c0.89-0.54,1.33-1.31,1.33-2.31c0-0.93-0.36-1.68-1.09-2.23s-1.57-1-2.54-1.34s-1.84-0.64-2.6-0.89    C257.74,119.53,255.88,118.66,254.49,117.78z"/>
		</g>
	</g>
</svg>