<?xml version="1.0" ?>
<svg xmlns="http://www.w3.org/2000/svg" viewBox="0 0 125 22">
	<style>
		.cls0 { fill: #263746; }
	</style>
	<g id="Navigation" stroke="none" stroke-width="1" fill-rule="evenodd">
		<g id="Unified-Header-Signed-Out" transform="translate(-120.0, -10.0)">
			<g id="Stacked-Group" transform="translate(0.0, -1.0)">
				<g id="Group" transform="translate(120.0, 8.0)">
					<g transform="translate(-0.0, 3.0)" id="PingIdentity_Logo_H">
						<polygon id="Fill-1" fill="#B8232F" points="0 20.2631579 20.2631579 20.2631579 20.2631579 0 0 0"/>
						<path d="M 103.39271,6.05888 L 105.08977,5.77498 L 105.08977,17.34185 L 103.39271,17.34185 L 103.39271,6.05888 M 110.04974,7.36537 L 110.04974,14.6594 C 110.04974,15.90956 110.36464,16.3418 111.39142,16.3418 C 111.85327,16.3418 111.73143,16.34706 112.02571,16.18746 L 112.25701,17.3242 C 111.73143,17.61825 111.538,17.7035 110.80399,17.7035 C 110.25892,17.7035 109.84019,17.59121 109.44094,17.38654 C 108.70806,17.00049 108.43553,16.27346 108.43553,15.13633 L 108.43553,7.36537 L 107.07248,7.36537 L 107.07248,6.02508 L 108.43553,6.02508 L 108.43553,1.73684 L 110.11347,1.73684 L 110.11347,6.02508 L 112.7346,6.02508 L 112.23152,7.36537 L 110.04974,7.36537 M 123.49353,17.00275 C 122.84162,17.00275 122.31492,16.44357 122.31492,15.67034 C 122.31492,14.89637 122.84162,14.33794 123.49353,14.33794 C 124.14581,14.33794 124.67288,14.89637 124.67288,15.67034 C 124.67288,16.44357 124.14581,17.00275 123.49353,17.00275 M 123.49353,14.01649 C 122.63506,14.01649 121.93442,14.75892 121.93442,15.67034 C 121.93442,16.58102 122.63506,17.3227 123.49353,17.3227 C 124.35349,17.3227 125.05263,16.58102 125.05263,15.67034 C 125.05263,14.75892 124.35349,14.01649 123.49353,14.01649 M 123.22212,15.52839 L 123.22212,14.99213 L 123.51489,14.99213 C 123.68396,14.99213 123.87402,15.02818 123.87402,15.24824 C 123.87402,15.50023 123.7057,15.52839 123.51114,15.52839 L 123.22212,15.52839 M 124.20241,15.27678 C 124.20241,14.88247 123.97299,14.72662 123.54938,14.72662 L 122.89372,14.72662 L 122.89372,16.60092 L 123.22212,16.60092 L 123.22212,15.7939 L 123.42005,15.7939 L 123.87777,16.60092 L 124.21479,16.60092 L 123.74057,15.78075 C 124.0296,15.75184 124.20241,15.59674 124.20241,15.27678 M 122.79026,6.02508 L 119.20495,17.74931 C 118.49194,20.02318 117.65259,21.52232 115.8292,22.0 L 115.34673,20.79566 C 116.36752,20.44904 116.90284,19.94507 117.34857,18.71369 C 117.181,17.82066 117.08615,17.43236 117.08615,17.43236 C 116.96132,16.70532 116.39451,14.4998 116.03838,13.36456 L 113.79325,6.27519 L 115.40971,5.68297 L 117.54875,13.02282 C 117.86252,14.09234 118.17667,15.84084 118.17667,15.84084 L 118.2194,15.84084 C 118.2194,15.84084 118.61677,14.38714 118.86944,13.45581 L 120.92338,6.02508 L 122.79026,6.02508 M 72.29304,14.45511 C 72.29304,14.45511 72.10373,14.93242 71.66362,15.27378 C 70.99185,15.7954 70.50938,16.00044 69.65167,16.00044 C 68.68674,16.00044 68.03596,15.61439 67.55424,14.68231 C 67.21798,14.024 67.13475,13.0461 67.13475,11.72797 C 67.13475,10.13758 67.30157,9.32004 67.80541,8.4563 C 68.24589,7.68383 68.93753,7.27487 69.75663,7.27487 C 70.99185,7.27487 71.76934,7.66205 72.29304,8.4563 L 72.29304,14.45511 M 73.94961,1.73684 L 72.31366,1.73684 L 72.31366,5.50347 C 72.31366,6.32026 72.33428,7.25234 72.33428,7.25234 C 71.70636,6.34354 70.67733,5.82117 69.50472,5.82117 C 68.74897,5.82117 68.16229,6.02508 67.49089,6.5253 C 66.06486,7.5922 65.33198,9.3651 65.33198,11.77341 C 65.33198,15.38569 66.88359,17.4992 69.58681,17.4992 C 70.80366,17.4992 71.6014,17.11428 72.35527,16.18295 C 72.37589,16.77179 72.58619,17.34185 72.58619,17.34185 L 74.26414,17.34185 C 74.03209,16.68166 73.94961,15.63655 73.94961,13.68414 L 73.94961,1.73684 M 98.91444,6.04799 L 101.61167,6.04799 L 101.10934,7.38828 L 98.85146,7.38828 L 98.85146,14.68231 C 98.85146,15.93284 99.16561,16.36546 100.19314,16.36546 C 100.65499,16.36546 100.53315,16.37072 100.82743,16.21037 L 101.05873,17.34749 C 100.53315,17.64191 100.33972,17.72715 99.60534,17.72715 C 99.06064,17.72715 98.64191,17.61449 98.24267,17.4102 C 97.50978,17.02378 97.2365,16.29636 97.2365,15.15962 L 97.2365,7.38828 L 95.8742,7.38828 L 95.8742,6.04799 L 97.2365,6.04799 L 97.2365,1.7605 L 98.91444,1.7605 L 98.91444,6.04799 M 94.15428,7.43372 C 94.32184,7.84305 94.40619,8.2967 94.40619,8.75223 L 94.40619,17.34261 L 92.74887,17.34261 L 92.74887,9.68355 C 92.74887,8.47846 92.6649,8.18442 92.37137,7.79724 C 92.14157,7.50244 91.69997,7.31993 91.21825,7.31993 C 90.37816,7.31993 89.07996,8.04885 88.32496,8.91108 L 88.32496,17.34261 L 86.73137,17.34261 L 86.73137,8.61628 C 86.73137,7.00223 86.334,6.22975 86.334,6.22975 L 87.9261,5.75207 C 87.9261,5.75207 88.30509,6.59139 88.30509,7.52497 C 89.39336,6.34354 90.48312,5.77498 91.59575,5.77498 C 92.72825,5.77498 93.73516,6.43479 94.15428,7.43372 M 77.96153,10.63704 C 78.044,8.29595 78.88335,7.11527 80.37161,7.11527 C 81.16934,7.11527 81.90222,7.50244 82.25835,8.11494 C 82.57325,8.66022 82.7202,9.41054 82.74082,10.63704 L 77.96153,10.63704 M 80.45558,5.72879 C 79.19675,5.72879 78.16996,6.22975 77.33137,7.29702 C 76.45116,8.43527 76.07441,9.66065 76.07441,11.56987 C 76.07441,15.31997 77.81308,17.59121 80.70749,17.59121 C 82.04992,17.59121 83.30838,17.09175 84.22945,16.18295 L 83.60003,15.04508 C 82.86715,15.77324 82.04992,16.1131 81.04226,16.1131 C 79.99336,16.1131 79.02918,15.70489 78.4425,14.72775 C 78.08562,14.13853 77.96153,13.31912 77.96153,12.25184 L 77.96153,11.97808 L 84.48062,11.97808 L 84.48062,11.72797 C 84.44013,9.02524 84.18671,7.95684 83.28739,6.95566 C 82.57325,6.16178 81.5877,5.72879 80.45558,5.72879 M 61.36842,17.34185 L 63.04636,17.34185 L 63.04636,1.75299 L 61.36842,1.75299 L 61.36842,17.34185" id="Fill-3" class="cls0"/>
						<path d="M 59.60727,5.5181 L 60.78947,7.41921 C 60.17629,8.0229 59.58618,8.26923 58.80513,8.26923 C 58.53041,8.26923 58.23368,8.22549 58.06475,8.20317 C 58.48715,8.73806 58.7001,9.32002 58.7001,10.08044 C 58.7001,12.04777 57.00944,13.48037 54.70787,13.48037 C 54.58068,13.48037 54.49614,13.48037 54.28563,13.45743 C 53.56832,13.81615 53.16717,14.0842 53.16717,14.3966 C 53.16717,14.55318 53.33519,14.66556 53.63131,14.66556 L 53.63131,14.66556 L 55.15243,14.68789 C 56.79847,14.70991 57.66391,14.97796 58.42477,15.71696 C 59.05753,16.34267 59.35426,17.12541 59.35426,18.15479 C 59.35426,19.11628 59.07924,19.85377 58.48715,20.52412 C 57.53793,21.59845 55.91056,22.0 54.22173,22.0 C 52.68163,22.0 51.09722,21.73225 50.12645,20.77015 C 49.53497,20.1894 49.23976,19.51707 49.23976,18.73615 C 49.23976,18.10984 49.38668,17.79562 49.49278,17.57282 L 49.49278,17.57282 L 52.1114,17.57282 C 52.00516,17.84148 51.98346,17.99684 51.98346,18.30955 C 51.98346,19.2273 52.70304,19.71815 54.01212,19.71815 C 54.72958,19.71815 55.34246,19.63036 55.7852,19.33862 C 56.20729,19.07057 56.4814,18.64624 56.4814,18.1762 C 56.4814,17.14834 55.61657,16.83443 54.49614,16.8121 L 54.49614,16.8121 L 53.293,16.78947 C 52.02656,16.76624 51.20362,16.65598 50.69607,16.43136 C 50.18853,16.23074 49.87283,15.71696 49.87283,14.93392 C 49.87283,14.19644 50.08304,13.50178 51.85748,13.01093 C 50.29462,12.58539 49.53497,11.5343 49.53497,9.83532 C 49.53497,7.4871 51.3302,5.96672 54.09545,5.96672 C 54.70787,5.96672 55.2567,6.05602 56.03866,6.25649 C 56.62863,6.41246 57.00944,6.50313 57.3687,6.50313 C 58.14975,6.50313 58.9522,6.14532 59.60727,5.5181 L 59.60727,5.5181 M 41.65647,5.87697 C 41.9107,6.34701 42.05838,6.83816 42.05838,7.30759 C 42.48032,6.99382 42.83958,6.72547 43.30448,6.45772 C 43.87425,6.14532 44.61402,5.96672 45.24663,5.96672 C 46.45053,5.96672 47.5063,6.63647 47.84386,7.6215 C 47.99154,8.04598 48.05528,8.53759 48.05528,9.25335 L 48.05528,17.61747 L 45.26712,17.61747 L 45.26712,10.1702 C 45.26712,8.87368 45.05675,8.49385 44.31729,8.49385 C 43.74843,8.49385 43.00957,8.89661 42.3551,9.52141 L 42.3551,17.61747 L 39.52429,17.61747 L 39.52429,9.32002 C 39.52429,8.33606 39.3974,7.39689 39.14469,6.63647 L 41.65647,5.87697 M 37.22181,5.89777 L 37.22181,17.61747 L 34.39312,17.61747 L 34.39312,6.36751 L 37.22181,5.89777 M 27.02141,2.07504 C 29.5127,2.07504 30.27326,2.34279 31.09787,2.83515 C 32.46873,3.64052 33.20698,5.07129 33.20698,6.86139 C 33.20698,8.91802 32.279,10.57311 30.67471,11.37787 C 29.99884,11.71335 29.36471,11.89256 27.73947,11.89256 L 27.73947,11.89256 L 26.11423,11.89256 L 26.11423,17.61747 L 23.15789,17.61747 L 23.15789,2.07504 L 27.02141,2.07504 M 54.07405,8.1573 C 52.99764,8.1573 52.38491,8.78453 52.38491,9.85734 C 52.38491,11.02052 53.06078,11.48934 54.05325,11.48934 C 55.17292,11.48934 55.7852,10.90844 55.7852,9.85734 C 55.7852,8.78453 55.15243,8.1573 54.07405,8.1573 M 27.99188,4.60126 L 26.11423,4.60126 L 26.11423,9.34281 L 27.65539,9.34281 C 28.85868,9.34281 29.21809,9.18608 29.61803,8.53759 C 29.87287,8.11387 29.97714,7.66585 29.97714,6.92715 C 29.97714,5.47375 29.23858,4.60126 27.99188,4.60126 L 27.99188,4.60126 M 35.84928,1.15789 C 36.79957,1.15789 37.56043,1.98559 37.56043,3.01375 C 37.56043,4.04222 36.77817,4.87052 35.80678,4.87052 C 34.85741,4.87052 34.07575,4.04222 34.07575,3.01375 C 34.07575,1.98559 34.87836,1.15789 35.84928,1.15789" id="Path-2" class="cls0"/>
					</g>
				</g>
			</g>
		</g>
	</g>
</svg>