<svg class="header-logo" viewBox="0 0 130 28" fill="none" xmlns="http://www.w3.org/2000/svg">
<path d="M38.5798 1.83936H47.0818C51.7799 1.83936 53.6028 4.79814 53.6028 7.87528C53.6028 10.9524 51.7799 13.9112 47.0818 13.9112H42.7246V20.6572H38.5798V1.83936ZM42.7246 10.7157H45.9456C47.8723 10.7157 49.5865 10.2916 49.5865 7.89501C49.5865 5.49839 47.8723 5.0743 45.9456 5.0743H42.7246V10.7157Z" fill="black" ></path>
<path d="M58.3258 4.93129H54.5762V1.83936H58.3258V4.93129ZM54.5762 7.04189H58.3258V20.6572H54.5762V7.04189Z" fill="black" ></path>
<path d="M59.9609 7.03217H63.5277V8.77292H63.5821C64.0102 8.09282 64.612 7.53881 65.3257 7.16787C66.0394 6.79692 66.8392 6.62242 67.6429 6.66232C71.9211 6.66232 73.8477 10.1142 73.8477 13.9903C73.8477 17.6246 71.842 21.0223 67.8553 21.0223C67.0569 21.0433 66.2658 20.867 65.5521 20.5091C64.8385 20.1512 64.2245 19.6228 63.7649 18.9709H63.7105V25.4506H59.9609V7.03217ZM70.0981 13.8818C70.0981 11.7218 69.2287 9.48303 66.8277 9.48303C64.4268 9.48303 63.5821 11.6676 63.5821 13.8818C63.5821 16.0959 64.4071 18.2065 66.8772 18.2065C69.3472 18.2065 70.0981 16.0959 70.0981 13.8818Z" fill="black" ></path>
<path d="M77.8591 14.7544C77.9678 17.1264 79.1287 18.2063 81.2134 18.2063C82.6955 18.2063 83.9305 17.2842 84.1775 16.4409H87.4776C86.4204 19.6561 84.1775 21.0221 81.085 21.0221C76.7821 21.0221 74.1194 18.0633 74.1194 13.8569C74.1194 9.77377 76.9402 6.66211 81.085 6.66211C85.7337 6.66211 87.9765 10.5628 87.7147 14.7544H77.8591ZM83.9602 12.3824C83.6144 10.4839 82.7992 9.48282 80.9961 9.48282C80.5991 9.46225 80.202 9.5216 79.8284 9.65735C79.4549 9.7931 79.1125 10.0025 78.8217 10.273C78.5308 10.5435 78.2975 10.8697 78.1355 11.2321C77.9735 11.5945 77.8863 11.9857 77.8788 12.3824H83.9602Z" fill="black" ></path>
<path d="M88.7126 1.83936H92.4622V20.6572H88.7126V1.83936Z" fill="black" ></path>
<path d="M97.9507 4.93129H94.2012V1.83936H97.9507V4.93129ZM94.2012 7.04189H97.9507V20.6572H94.2012V7.04189Z" fill="black" ></path>
<path d="M99.5859 7.03202H103.153V8.93058H103.232C103.674 8.22813 104.29 7.65074 105.02 7.25359C105.75 6.85645 106.57 6.65282 107.401 6.66217C111.388 6.66217 112.391 8.90099 112.391 12.274V20.6572H108.641V12.9595C108.641 10.7206 107.984 9.61603 106.24 9.61603C104.205 9.61603 103.336 10.7453 103.336 13.5118V20.6572H99.5859V7.03202Z" fill="black" ></path>
<path d="M117.01 14.7544C117.113 17.1264 118.274 18.2063 120.364 18.2063C121.846 18.2063 123.081 17.2842 123.328 16.4409H126.628C125.571 19.6561 123.328 21.0221 120.241 21.0221C115.938 21.0221 113.27 18.0633 113.27 13.8569C113.27 9.77377 116.096 6.66211 120.241 6.66211C124.884 6.66211 127.132 10.5628 126.865 14.7544H117.01ZM123.106 12.3824C122.765 10.4839 121.945 9.48282 120.142 9.48282C119.745 9.46225 119.348 9.5216 118.974 9.65735C118.601 9.7931 118.258 10.0025 117.967 10.273C117.677 10.5435 117.443 10.8697 117.281 11.2321C117.119 11.5945 117.032 11.9857 117.025 12.3824H123.106Z" fill="black" ></path>
<path d="M3.64308 17.5407C3.64308 12.0423 7.17035 8.60023 11.5473 8.60023C12.5794 8.57419 13.6062 8.75462 14.5674 9.13088C15.5285 9.50714 16.4044 10.0716 17.1436 10.7911C17.8828 11.5105 18.4702 12.3704 18.8713 13.3199C19.2724 14.2695 19.4791 15.2897 19.4791 16.3202C19.4791 17.3508 19.2724 18.3709 18.8713 19.3205C18.4702 20.2701 17.8828 21.1299 17.1436 21.8494C16.4044 22.5688 15.5285 23.1333 14.5674 23.5095C13.6062 23.8858 12.5794 24.0662 11.5473 24.0402C8.08922 24.0402 5.50058 22.9504 2.84277 20.4255C3.66326 21.9371 4.8866 23.1927 6.37749 24.0534C7.86838 24.9142 9.56871 25.3465 11.2904 25.3026C17.1445 25.3026 21.0127 21.1603 21.0127 16.0514C21.0127 10.9426 17.2927 6.9729 11.4238 6.9729C10.1532 6.99705 8.90534 7.31317 7.77698 7.89672C6.64862 8.48027 5.67017 9.31555 4.91758 10.3377C4.165 11.3599 3.65853 12.5414 3.4375 13.7906C3.21646 15.0398 3.28681 16.323 3.64308 17.5407Z" fill="black" ></path>
<path d="M17.1891 18.6404C16.0133 20.0359 13.7952 20.8447 11.3547 20.6129C7.92134 20.2184 5.3574 17.2596 5.61922 14.7446C5.61922 14.7446 5.4562 17.3779 9.77883 19.0694C14.3831 20.8792 17.1891 18.6404 17.1891 18.6404Z" fill="black" ></path>
<path d="M24.3523 11.7761C24.3523 7.55979 20.4792 4.14732 15.6971 4.14732C13.9933 4.13933 12.3189 4.59083 10.8508 5.45412C11.8322 5.13504 12.8569 4.96871 13.889 4.96099C18.9823 4.96099 23.1123 8.68906 23.1123 13.285C23.1118 14.4578 22.8378 15.6143 22.312 16.663C23.6008 15.3595 24.3323 13.6074 24.3523 11.7761Z" fill="black" ></path>
<path d="M26.3678 7.82593C26.3678 4.61072 23.4037 2.00698 19.7677 2.00698C18.4697 1.99875 17.1933 2.33942 16.0725 2.99324C16.8223 2.75811 17.6035 2.63838 18.3894 2.63819C22.2724 2.63819 25.4242 5.47863 25.4242 8.98479C25.4213 9.87948 25.2134 10.7617 24.8166 11.5639C25.7972 10.5642 26.353 9.22498 26.3678 7.82593Z" fill="black" ></path>
</svg>