<svg xmlns="http://www.w3.org/2000/svg" xml:space="preserve" id="Layer_1" x="0" y="0" style="enable-background:new 0 0 214.3 118" version="1.1" viewBox="0 0 214.3 118"><style>.st0{fill:#5da7e5}</style><g id="Artwork_3_00000060025831247552324900000003556469766188772022_"><path d="M80.1 88.3c6.5 1 13-.6 13-.6V71s-2.2.2-3.5-.9c-.9-.7-.9-2.1-.9-3.2V31.7H66.9v42.9c0-.1.5 11.7 13.2 13.7M173.6 88.3c6.5 1 13-.6 13-.6V71s-2.2.2-3.5-.9c-.9-.7-.9-2.1-.9-3.2V3.6h-21.8v71c0-.1.5 11.7 13.2 13.7M90 14.9C90 21.6 84.6 27 78 27c-6.7 0-12-5.4-12-12.1 0-6.7 5.4-12.1 12-12.1s12 5.4 12 12.1M131.1 71.1c-1.7 1.5-3.5 1.7-5.8 1.7v15.6c11.4 2.7 18-1 18-1 8.7-4.1 10.9-14.7 11.4-23.9.1-2.5.2-5.3.1-8.2-.4-9-2.8-18.8-10.9-22.9-3.3-1.6-7-2.3-10.7-2.3-10.7 0-18 5.4-18 5.4l-2.4-3.5H98.5v83.4h21.8V47.6c.1-.1 2.4-2.2 6.9-1.4 6.1 1.1 6.8 8.3 6.8 12.4 0 3.1 0 10.1-2.9 12.5M37.5 71.1c-1.7 1.5-3.5 1.7-5.8 1.7v15.6c11.4 2.7 18-1 18-1 8.7-4.1 10.9-14.7 11.4-23.9.1-2.5.2-5.3.1-8.2-.4-9-2.8-18.8-10.9-22.9-3.3-1.6-7-2.3-10.7-2.3-10.7 0-18 5.4-18 5.4L19.2 32H4.8v83.4h21.8V47.6c.1-.1 2.4-2.2 6.9-1.4 6.1 1.1 6.8 8.3 6.8 12.4.1 3.1 0 10.1-2.8 12.5" class="st0"/></g><path d="M200.3 76.5h2.5c1.5 0 2.7.5 2.7 2.2 0 1.1-.6 1.8-1.5 2.1l1.7 3.1h-1.5l-1.6-2.9h-1.1v2.9h-1.3v-7.4zm2.3 3.5c1 0 1.5-.4 1.5-1.2 0-.8-.5-1.1-1.5-1.1h-1V80h1z" class="st0"/><path d="M202.6 88.3c-4.5 0-8.2-3.7-8.2-8.2 0-4.5 3.7-8.2 8.2-8.2 4.5 0 8.2 3.7 8.2 8.2-.1 4.6-3.7 8.2-8.2 8.2zm0-15c-3.8 0-6.8 3.1-6.8 6.8 0 3.8 3.1 6.8 6.8 6.8 3.8 0 6.8-3.1 6.8-6.8 0-3.7-3.1-6.8-6.8-6.8z" class="st0"/></svg>