<svg viewBox="0 0 994 290" xmlns="http://www.w3.org/2000/svg" class="logo-svg"><g fill="none"><path class="box-wrap" d="m994 0v283h-475v-283zm-411.969669 50h-22.030331v188.087593h22.030331v-18.176532h.518361c2.318432 3.928194 5.35332 7.370459 8.941722 10.141978 3.446904 2.670094 7.241072 4.842061 11.274346 6.453986 3.891604 1.557106 7.93001 2.704626 12.051887 3.424564 3.636466.66224 7.320988 1.014702 11.015166 1.053712 9.234853.202384 18.398215-1.687319 26.825167-5.531988 7.446203-3.495968 14.006713-8.677207 19.179347-15.14711 5.227776-6.668355 9.103726-14.323466 11.403936-22.523094 2.545658-8.900264 3.811466-18.127949 3.758116-27.396513l.000599-.993894c-.041575-8.943281-1.350656-17.835621-3.888305-26.402618-2.41702-8.258349-6.32842-15.986012-11.533526-22.786522-5.149254-6.626964-11.705759-11.985146-19.179347-15.673966-8.465804-4.034288-17.736798-6.0180631-27.084348-5.7954158-8.810041-.1053537-17.5462 1.6436058-25.658856 5.1368458-7.501254 3.161298-13.591867 9.023447-17.105904 16.46425h-.518361zm206.065973 54.522247c-17.98434-7.3629959-38.078588-7.3629959-56.062928 0-7.823217 3.464982-14.805428 8.625699-20.457143 15.120354-5.632955 6.588359-9.864634 14.287569-12.429656 22.61479-2.819442 9.056611-4.217622 18.507422-4.143219 28.005524-.081389 9.455541 1.317117 18.864168 4.143219 27.874044 2.584909 8.279034 6.815389 15.931313 12.429656 22.483308 5.633216 6.482728 12.622856 11.604011 20.457143 14.988873 18.017408 7.187813 38.04552 7.187813 56.062928 0 7.781823-3.412239 14.723662-8.530895 20.327667-14.988873 5.610593-6.554624 9.840624-14.206091 12.429656-22.483308 2.823579-9.010473 4.222023-18.418688 4.143219-27.874044.071824-9.497917-1.326296-18.94832-4.143219-28.005524-2.569208-8.325392-6.800431-16.023773-12.429656-22.61479-5.62251-6.47014-12.557055-11.628272-20.327667-15.120354zm70.637696-2.522247h-28.122l46.44 64.448743-50.052 71.551257h26.574l37.152-56.294004 37.152 56.294004h28.122l-51.6-73.39265 45.924-62.60735h-26.316l-33.282 47.613153zm-268.450952 32.223997c7.030701-10.597688 18.93342-16.724019 31.459039-16.191971 6.390226-.152439 12.719937 1.293789 18.437059 4.212546 5.107342 2.689785 9.523832 6.567846 12.893048 11.321214 3.423941 4.89551 5.956975 10.380264 7.477968 16.191971 1.631465 6.046314 2.455476 12.289948 2.449992 18.561526.01188 6.551822-.679886 13.085239-2.0632 19.483021-1.239325 5.977954-3.509425 11.683413-6.704385 16.850181-3.082947 4.903674-7.286215 8.969464-12.248396 11.847783-5.821372 3.169916-12.3594 4.713916-18.952782 4.475829-6.698618.201042-13.342082-1.291258-19.339572-4.344187-5.149959-2.737641-9.607517-6.658072-13.021979-11.452857-3.451158-4.958656-5.945315-10.543333-7.349038-16.455254-3.050173-12.484959-3.09441-25.538337-.12893-38.044548 1.34804-5.885192 3.752342-11.464434 7.091176-16.455254zm154.107598-12.799436c10.275341-4.566081 21.944656-4.566081 32.219997 0 5.089625 2.301499 9.621585 5.71899 13.274638 10.010228 3.975839 4.751498 6.997528 10.256413 8.892719 16.200765 4.296 14.33548 4.296 29.656839 0 43.992319-1.874671 5.913932-4.899455 11.379684-8.892719 16.069051-3.680218 4.227948-8.207573 7.597044-13.274638 9.878515-10.275341 4.566081-21.944656 4.566081-32.219997 0-5.068563-2.278809-9.596438-5.648293-13.274638-9.878515-3.996944-4.686707-7.022175-10.153267-8.892719-16.069051-4.297738-14.335743-4.29684-29.657102 0-43.992319 1.891028-5.946216 4.913153-11.451927 8.892719-16.200765 3.650979-4.293534 8.183478-7.711431 13.274638-10.010228z" fill="#ee3124"></path><path class="box-word" d="m582.030331 50v70.335276h.518361c3.514037-7.440803 9.60465-13.302952 17.105904-16.46425 8.112656-3.49324 16.848815-5.2421995 25.658856-5.1368458 9.34755-.2226473 18.618544 1.7611278 27.084348 5.7954158 7.473588 3.68882 14.030093 9.047002 19.179347 15.673966 5.205106 6.80051 9.116506 14.528173 11.533526 22.786522 2.631636 8.884293 3.942014 18.118475 3.887706 27.396512.05335 9.268564-1.212458 18.496249-3.758116 27.396513-2.30021 8.199628-6.17616 15.854739-11.403936 22.523094-5.172634 6.469903-11.733144 11.651142-19.179347 15.14711-8.426952 3.844669-17.590314 5.734372-26.825167 5.531988-3.694178-.03901-7.3787-.391472-11.015166-1.053712-4.121877-.719938-8.160283-1.867458-12.051887-3.424564-4.033274-1.611925-7.827442-3.783892-11.274346-6.453986-3.588402-2.771519-6.62329-6.213784-8.941722-10.141978h-.518361v18.176532h-22.030331v-188.087593zm78.519831 99.757757c-1.520993-5.811707-4.054027-11.296461-7.477968-16.191971-3.369216-4.753368-7.785706-8.631429-12.893048-11.321214-5.717122-2.918757-12.046833-4.364985-18.437059-4.212546-12.525619-.532048-24.428338 5.594283-31.459039 16.191971-3.338834 4.99082-5.743136 10.570062-7.091176 16.455254-2.96548 12.506211-2.921243 25.559589.12893 38.044548 1.403723 5.911921 3.89788 11.496598 7.349038 16.455254 3.414462 4.794785 7.87202 8.715216 13.021979 11.452857 5.99749 3.052929 12.640954 4.545229 19.339572 4.344187 6.593382.238087 13.13141-1.305913 18.952782-4.475829 4.962181-2.878319 9.165449-6.944109 12.248396-11.847783 3.19496-5.166768 5.46506-10.872227 6.704385-16.850181 1.383314-6.397782 2.07508-12.931199 2.0632-19.483021.005484-6.271578-.818527-12.515212-2.449992-18.561526zm61.673127 41.870116c1.870544 5.915784 4.895775 11.382344 8.892719 16.069051 3.6782 4.230222 8.206075 7.599706 13.274638 9.878515 10.275341 4.566081 21.944656 4.566081 32.219997 0 5.067065-2.281471 9.59442-5.650567 13.274638-9.878515 3.993264-4.689367 7.018048-10.155119 8.892719-16.069051 4.296-14.33548 4.296-29.656839 0-43.992319-1.895191-5.944352-4.91688-11.449267-8.892719-16.200765-3.653053-4.291238-8.185013-7.708729-13.274638-10.010228-10.275341-4.566081-21.944656-4.566081-32.219997 0-5.09116 2.298797-9.623659 5.716694-13.274638 10.010228-3.979566 4.748838-7.001691 10.254549-8.892719 16.200765-4.29684 14.335217-4.297738 29.656576-.002578 43.992319zm-23.076712-49.370482c2.565022-8.327221 6.796701-16.026431 12.429656-22.61479 5.651715-6.494655 12.633926-11.655372 20.457143-15.120354 17.98434-7.3629959 38.078588-7.3629959 56.062928 0 7.770612 3.492082 14.705157 8.650214 20.327667 15.120354 5.629225 6.591017 9.860448 14.289398 12.429656 22.61479 2.816923 9.057204 4.215043 18.507607 4.143219 28.005524.078804 9.455356-1.31964 18.863571-4.143219 27.874044-2.589032 8.277217-6.819063 15.928684-12.429656 22.483308-5.604005 6.457978-12.545844 11.576634-20.327667 14.988873-18.017408 7.187813-38.04552 7.187813-56.062928 0-7.834287-3.384862-14.823927-8.506145-20.457143-14.988873-5.614267-6.551995-9.844747-14.204274-12.429656-22.483308-2.826102-9.009876-4.224608-18.418503-4.143219-27.874044-.074403-9.498102 1.323777-18.948913 4.143219-28.005524zm131.465423-40.257391h28.122l31.992 47.613153 33.282-47.613153h26.316l-45.924 62.60735 51.6 73.39265h-28.122l-37.152-56.294004-37.152 56.294004h-26.574l50.052-71.551257z" fill="#fff"></path><path class="pitch-word" d="m22.5547085 103.469112v18.28777h.5316111c3.5976732-7.379975 9.8330622-13.194373 17.5127094-16.330314 8.3045149-3.467397 17.2479587-5.205024 26.2676798-5.103563 9.5701271-.22088 19.061919 1.746294 27.7296103 5.746961 7.6507529 3.6573 14.3633549 8.969468 19.6363849 15.539697 5.32845 6.745586 9.33317 14.410063 11.808965 22.600717 2.693326 8.81188 4.034389 17.97054 3.978777 27.17266.054284 9.192689-1.241064 18.344847-3.845874 27.172659-2.35441 8.13294-6.322925 15.725622-11.676062 22.338996-5.296102 6.417143-12.012877 11.556364-19.6363854 15.024434-8.6280053 3.81176-18.0092991 5.68545-27.4638047 5.48524-3.7820178-.03959-7.5541388-.388847-11.2773543-1.044159-4.2196376-.714425-8.3538282-1.852676-12.3378076-3.396923-4.1294698-1.598667-8.0141119-3.752897-11.5431598-6.401265-3.6740052-2.748751-6.7809118-6.163246-9.1536786-10.059909h-.5316111v69.497887h-22.5547085v-186.530888zm81.0623865 47.944054c-1.565446-5.767193-4.1717915-11.210068-7.694517-16.068592-3.467457-4.716989-8.0123813-8.565452-13.2681271-11.234928-5.8832364-2.89551-12.3964118-4.330314-18.9718711-4.17936-12.8896109-.528341-25.1382929 5.551407-32.372901 16.068591-3.4351506 4.953173-5.9088112 10.490003-7.2958086 16.330313-3.0514632 12.410486-3.0058632 25.363926.1329028 37.753285 1.4439126 5.8662 4.0102508 11.407624 7.5616141 16.327587 3.5137512 4.758474 8.1010912 8.649125 13.4010298 11.365789 6.1721342 3.029187 13.0088054 4.509807 19.9021906 4.310221 6.7849202.23661 13.5129569-1.295412 19.5034823-4.441082 5.1061777-2.855595 9.4313987-6.889815 12.6036132-11.755644 3.287479-5.127054 5.623736-10.78841 6.899869-16.720169 1.423641-6.349058 2.135791-12.832705 2.123976-19.334654.004151-6.22439-.845244-12.420854-2.525453-18.421357zm40.9922-72.245959v-27.167207h22.568552v27.1726595h-22.554708zm22.554708 24.299179v135.078133h-22.554708v-135.075407h22.568552zm80.395104 0v19.596375h-27.330902v83.857112c-.057865 2.109598.164601 4.217593.661745 6.270404.375612 1.474578 1.269171 2.77066 2.522384 3.658645 1.554635.981165 3.333307 1.564945 5.174902 1.698461 2.864054.292611 5.742831.422778 8.622067.389856h10.349804v19.60728h-17.252442c-5.022955.066446-10.041312-.326918-14.990325-1.175019-3.677656-.574894-7.147152-2.058805-10.083998-4.312947-2.739248-2.350551-4.721653-5.437653-5.703744-8.882164-1.384321-4.931161-2.010561-10.038699-1.85787-15.152567v-85.956334h-23.349357v-19.596376h23.349357v-40.495905h22.554708v40.495905h27.330902zm89.650221 23.514015c-6.408619-4.976216-14.398229-7.480974-22.505668-7.055568-6.983852-.237868-13.914698 1.289762-20.149154 4.441082-5.222757 2.793461-9.672781 6.832755-12.954003 11.758371-3.337793 5.139386-5.689655 10.853452-6.935743 16.851029-1.409161 6.480041-2.110474 13.093522-2.091646 19.72451-.013505 6.163889.733013 12.306 2.222715 18.287769 1.354637 5.639646 3.703123 10.993796 6.935743 15.812324 3.147839 4.628947 7.361561 8.436764 12.287735 11.104067 5.563397 2.908607 11.779765 4.347369 18.057508 4.179361 10.991606 0 19.583008-2.873481 25.774206-8.620443 6.555575-6.498117 10.58947-15.107583 11.383903-24.296452h22.765076c-2.444804 16.721077-8.681512 29.609938-18.710124 38.666583-10.028611 9.056644-23.68165 13.584966-40.959114 13.584966-9.354437.173341-18.649848-1.514298-27.344305-4.964524-7.639105-3.093618-14.449643-7.924542-19.889746-14.108409-5.47319-6.365243-9.570923-13.790311-12.036519-21.810101-2.788251-9.008776-4.156249-18.395693-4.054952-27.824236-.072196-9.590765 1.249529-19.141262 3.923883-28.353131 2.399684-8.377471 6.447962-16.193293 11.90818-22.990573 5.406031-6.597053 12.253864-11.870008 20.018085-15.414289 8.805767-3.905742 18.366274-5.823365 27.99965-5.616101 7.286311-.050193 14.546654.87218 21.588184 2.74262 6.414632 1.686313 12.45234 4.567628 17.79537 8.492308 5.199321 3.894804 9.522955 8.83474 12.691865 14.500991 3.491832 6.423111 5.629205 13.492125 6.280397 20.771395h-23.027214c-1.26357-7.682643-5.139037-14.696292-10.974312-19.860823zm68.837234-74.9722222v71.3190302h.516928c1.61982-4.021871 4.100046-7.634501 7.264053-10.580625 3.121116-2.88078 6.663806-5.260495 10.503647-7.055568 3.887585-1.826952 7.975442-3.185831 12.178926-4.0485 4.052615-.850827 8.179998-1.288328 12.31966-1.30588 7.514406-.22543 15.001054 1.016985 22.046562 3.658645 5.507952 2.17626 10.404995 5.674515 14.265582 10.190769 3.708193 4.514729 6.327083 9.833821 7.651072 15.539697 1.528673 6.548747 2.268349 13.259198 2.203032 19.986231v88.832541h-22.043856v-91.4443c.379814-7.3412-2.245836-14.518084-7.264052-19.855371-5.384507-5.085491-12.601121-7.728677-19.970733-7.314562-5.98504-.140418-11.937581.925526-17.507882 3.135202-4.733952 1.954151-8.948995 4.995763-12.308834 8.882163-3.342228 3.934632-5.856754 8.511758-7.391255 13.454106-1.690319 5.452799-2.521363 11.138871-2.46285 16.851029v76.291733h-22.046562v-186.544519h22.046562z" fill="#292f38"></path></g></svg>