<?xml version="1.0" ?>
<svg xmlns="http://www.w3.org/2000/svg" viewBox="0 0 130 40" fill="none">
	<path d="M1.704 18V1.2H9.48C10.584 1.2 11.544 1.416 12.36 1.848C13.176 2.264 13.816 2.848 14.28 3.6C14.744 4.352 14.976 5.224 14.976 6.216C14.976 7.208 14.744 8.08 14.28 8.832C13.816 9.584 13.168 10.176 12.336 10.608C11.52 11.024 10.568 11.232 9.48 11.232H4.224V18H1.704ZM4.224 9.096H9.216C10.208 9.096 10.992 8.84 11.568 8.328C12.16 7.8 12.456 7.104 12.456 6.24C12.456 5.376 12.16 4.688 11.568 4.176C10.992 3.664 10.208 3.408 9.216 3.408H4.224V9.096ZM19.2032 18V1.2L21.6032 0.743999V18H19.2032ZM30.2138 18.216C29.3338 18.216 28.5578 18.064 27.8858 17.76C27.2138 17.44 26.6858 17 26.3018 16.44C25.9178 15.88 25.7258 15.232 25.7258 14.496C25.7258 13.344 26.1658 12.44 27.0458 11.784C27.9258 11.112 29.1338 10.776 30.6698 10.776C31.8698 10.776 32.9818 11.008 34.0058 11.472V10.176C34.0058 9.296 33.7498 8.64 33.2378 8.208C32.7418 7.776 32.0058 7.56 31.0298 7.56C30.4698 7.56 29.8858 7.648 29.2778 7.824C28.6698 7.984 27.9898 8.24 27.2378 8.592L26.3498 6.792C27.2778 6.36 28.1418 6.048 28.9418 5.856C29.7418 5.648 30.5498 5.544 31.3658 5.544C32.9498 5.544 34.1738 5.92 35.0378 6.672C35.9178 7.424 36.3578 8.496 36.3578 9.888V18H34.0058V16.944C33.4618 17.376 32.8778 17.696 32.2538 17.904C31.6298 18.112 30.9498 18.216 30.2138 18.216ZM28.0298 14.448C28.0298 15.04 28.2778 15.52 28.7738 15.888C29.2858 16.256 29.9498 16.44 30.7658 16.44C31.4058 16.44 31.9898 16.344 32.5178 16.152C33.0618 15.96 33.5578 15.664 34.0058 15.264V13.2C33.5418 12.928 33.0538 12.736 32.5418 12.624C32.0458 12.496 31.4858 12.432 30.8618 12.432C29.9818 12.432 29.2858 12.616 28.7738 12.984C28.2778 13.336 28.0298 13.824 28.0298 14.448ZM47.0912 23.136C46.1952 23.136 45.3232 23.032 44.4752 22.824C43.6272 22.616 42.8592 22.32 42.1712 21.936L43.0832 20.064C43.8032 20.432 44.4752 20.696 45.0992 20.856C45.7392 21.032 46.3792 21.12 47.0192 21.12C48.0912 21.12 48.8992 20.872 49.4432 20.376C50.0032 19.88 50.2832 19.152 50.2832 18.192V16.8C49.2112 17.648 47.9872 18.072 46.6112 18.072C45.4912 18.072 44.4592 17.8 43.5152 17.256C42.5872 16.696 41.8512 15.944 41.3072 15C40.7632 14.04 40.4912 12.984 40.4912 11.832C40.4912 10.664 40.7632 9.608 41.3072 8.664C41.8672 7.704 42.6112 6.952 43.5392 6.408C44.4832 5.848 45.5392 5.568 46.7072 5.568C47.3632 5.568 47.9952 5.68 48.6032 5.904C49.2272 6.112 49.7952 6.416 50.3072 6.816V5.784H52.6832V18.192C52.6832 19.776 52.1952 20.992 51.2192 21.84C50.2592 22.704 48.8832 23.136 47.0912 23.136ZM46.9232 16.008C47.6272 16.008 48.2672 15.888 48.8432 15.648C49.4192 15.392 49.8992 15.032 50.2832 14.568V9.096C49.8992 8.648 49.4112 8.296 48.8192 8.04C48.2432 7.784 47.6112 7.656 46.9232 7.656C46.1552 7.656 45.4592 7.84 44.8352 8.208C44.2272 8.576 43.7392 9.08 43.3712 9.72C43.0192 10.344 42.8432 11.048 42.8432 11.832C42.8432 12.616 43.0192 13.328 43.3712 13.968C43.7392 14.592 44.2272 15.088 44.8352 15.456C45.4592 15.824 46.1552 16.008 46.9232 16.008ZM57.4241 18V5.784H59.8241V18H57.4241ZM58.6241 3.816C58.2241 3.816 57.8801 3.672 57.5921 3.384C57.3041 3.08 57.1601 2.728 57.1601 2.328C57.1601 1.912 57.3041 1.568 57.5921 1.296C57.8801 1.008 58.2241 0.863999 58.6241 0.863999C59.0401 0.863999 59.3921 1.008 59.6801 1.296C59.9681 1.568 60.1121 1.912 60.1121 2.328C60.1121 2.728 59.9681 3.08 59.6801 3.384C59.3921 3.672 59.0401 3.816 58.6241 3.816ZM68.4347 18.216C67.5547 18.216 66.7787 18.064 66.1067 17.76C65.4347 17.44 64.9067 17 64.5227 16.44C64.1387 15.88 63.9467 15.232 63.9467 14.496C63.9467 13.344 64.3867 12.44 65.2667 11.784C66.1467 11.112 67.3547 10.776 68.8907 10.776C70.0907 10.776 71.2027 11.008 72.2267 11.472V10.176C72.2267 9.296 71.9707 8.64 71.4587 8.208C70.9627 7.776 70.2267 7.56 69.2507 7.56C68.6907 7.56 68.1067 7.648 67.4987 7.824C66.8907 7.984 66.2107 8.24 65.4587 8.592L64.5707 6.792C65.4987 6.36 66.3627 6.048 67.1627 5.856C67.9627 5.648 68.7707 5.544 69.5867 5.544C71.1707 5.544 72.3947 5.92 73.2587 6.672C74.1387 7.424 74.5787 8.496 74.5787 9.888V18H72.2267V16.944C71.6827 17.376 71.0987 17.696 70.4747 17.904C69.8507 18.112 69.1707 18.216 68.4347 18.216ZM66.2507 14.448C66.2507 15.04 66.4987 15.52 66.9947 15.888C67.5067 16.256 68.1707 16.44 68.9867 16.44C69.6267 16.44 70.2107 16.344 70.7387 16.152C71.2827 15.96 71.7787 15.664 72.2267 15.264V13.2C71.7627 12.928 71.2747 12.736 70.7627 12.624C70.2667 12.496 69.7067 12.432 69.0827 12.432C68.2027 12.432 67.5067 12.616 66.9947 12.984C66.4987 13.336 66.2507 13.824 66.2507 14.448ZM79.2641 18V5.784H81.6641V7.344C82.0481 6.768 82.5201 6.32 83.0801 6C83.6561 5.664 84.3041 5.496 85.0241 5.496C85.5201 5.512 85.9281 5.584 86.2481 5.712V7.872C86.0241 7.776 85.7921 7.712 85.5521 7.68C85.3121 7.632 85.0721 7.608 84.8321 7.608C84.1281 7.608 83.5041 7.8 82.9601 8.184C82.4161 8.552 81.9841 9.096 81.6641 9.816V18H79.2641ZM90.0904 18V5.784H92.4904V18H90.0904ZM91.2904 3.816C90.8904 3.816 90.5464 3.672 90.2584 3.384C89.9704 3.08 89.8264 2.728 89.8264 2.328C89.8264 1.912 89.9704 1.568 90.2584 1.296C90.5464 1.008 90.8904 0.863999 91.2904 0.863999C91.7064 0.863999 92.0584 1.008 92.3464 1.296C92.6344 1.568 92.7784 1.912 92.7784 2.328C92.7784 2.728 92.6344 3.08 92.3464 3.384C92.0584 3.672 91.7064 3.816 91.2904 3.816ZM101.437 18.24C100.381 18.24 99.3889 18.088 98.4609 17.784C97.5489 17.464 96.7569 17.016 96.0849 16.44L97.4049 14.856C98.0289 15.352 98.6689 15.736 99.3249 16.008C99.9969 16.264 100.677 16.392 101.365 16.392C102.229 16.392 102.933 16.224 103.477 15.888C104.021 15.552 104.293 15.112 104.293 14.568C104.293 14.12 104.133 13.768 103.813 13.512C103.493 13.256 102.997 13.08 102.325 12.984L100.117 12.672C98.9009 12.496 97.9889 12.12 97.3809 11.544C96.7729 10.968 96.4689 10.2 96.4689 9.24C96.4689 8.504 96.6689 7.864 97.0689 7.32C97.4689 6.76 98.0289 6.328 98.7489 6.024C99.4689 5.704 100.309 5.544 101.269 5.544C102.149 5.544 102.997 5.672 103.813 5.928C104.629 6.184 105.413 6.584 106.165 7.128L104.941 8.712C104.269 8.264 103.613 7.936 102.973 7.728C102.349 7.52 101.717 7.416 101.077 7.416C100.341 7.416 99.7489 7.576 99.3009 7.896C98.8529 8.2 98.6289 8.6 98.6289 9.096C98.6289 9.544 98.7809 9.896 99.0849 10.152C99.4049 10.392 99.9249 10.56 100.645 10.656L102.853 10.968C104.069 11.144 104.989 11.52 105.613 12.096C106.237 12.656 106.549 13.416 106.549 14.376C106.549 15.112 106.325 15.776 105.877 16.368C105.429 16.944 104.821 17.4 104.053 17.736C103.285 18.072 102.413 18.24 101.437 18.24ZM110.313 18V5.784H112.713V6.96C113.625 6.016 114.769 5.544 116.145 5.544C116.977 5.544 117.713 5.728 118.353 6.096C119.009 6.464 119.529 6.96 119.913 7.584C120.425 6.912 121.025 6.408 121.713 6.072C122.401 5.72 123.177 5.544 124.041 5.544C124.953 5.544 125.745 5.744 126.417 6.144C127.105 6.544 127.641 7.104 128.025 7.824C128.425 8.544 128.625 9.376 128.625 10.32V18H126.225V10.728C126.225 9.768 125.969 9.016 125.457 8.472C124.961 7.912 124.281 7.632 123.417 7.632C122.825 7.632 122.289 7.768 121.809 8.04C121.329 8.312 120.913 8.728 120.561 9.288C120.593 9.448 120.617 9.616 120.633 9.792C120.649 9.968 120.657 10.144 120.657 10.32V18H118.281V10.728C118.281 9.768 118.025 9.016 117.513 8.472C117.017 7.912 116.337 7.632 115.473 7.632C114.897 7.632 114.377 7.76 113.913 8.016C113.449 8.256 113.049 8.624 112.713 9.12V18H110.313Z" fill="#033E92"/>
	<path d="M1.232 39V27.8H6.032C6.768 27.8 7.408 27.9333 7.952 28.2C8.496 28.4667 8.91733 28.84 9.216 29.32C9.52533 29.8 9.68 30.3653 9.68 31.016C9.68 31.752 9.46133 32.3867 9.024 32.92C8.59733 33.4427 8.02133 33.8107 7.296 34.024L9.808 39H8.448L6.048 34.184H2.464V39H1.232ZM2.464 33.144H5.952C6.70933 33.144 7.312 32.952 7.76 32.568C8.21867 32.184 8.448 31.6667 8.448 31.016C8.448 30.376 8.21867 29.864 7.76 29.48C7.312 29.096 6.70933 28.904 5.952 28.904H2.464V33.144ZM18.2761 39.144C17.5081 39.144 16.8095 38.9627 16.1801 38.6C15.5615 38.2267 15.0655 37.7253 14.6921 37.096C14.3295 36.4667 14.1481 35.7627 14.1481 34.984C14.1481 34.216 14.3241 33.5227 14.6761 32.904C15.0281 32.2747 15.5028 31.7787 16.1001 31.416C16.6975 31.0427 17.3641 30.856 18.1001 30.856C18.8148 30.856 19.4548 31.0427 20.0201 31.416C20.5961 31.7787 21.0495 32.2747 21.3801 32.904C21.7215 33.5227 21.8921 34.216 21.8921 34.984V35.352H15.3161C15.3801 35.8747 15.5455 36.344 15.8121 36.76C16.0895 37.176 16.4468 37.5067 16.8841 37.752C17.3215 37.9867 17.8015 38.104 18.3241 38.104C18.7401 38.104 19.1455 38.04 19.5401 37.912C19.9348 37.784 20.2655 37.6027 20.5321 37.368L21.2681 38.152C20.8201 38.4827 20.3508 38.7333 19.8601 38.904C19.3801 39.064 18.8521 39.144 18.2761 39.144ZM15.3481 34.408H20.7081C20.6441 33.928 20.4841 33.5013 20.2281 33.128C19.9828 32.744 19.6735 32.4453 19.3001 32.232C18.9268 32.008 18.5161 31.896 18.0681 31.896C17.6095 31.896 17.1881 32.0027 16.8041 32.216C16.4201 32.4293 16.1001 32.728 15.8441 33.112C15.5881 33.4853 15.4228 33.9173 15.3481 34.408ZM27.2274 39V30.984H28.4114V31.864C29.0194 31.1707 29.8034 30.824 30.7634 30.824C31.3287 30.824 31.83 30.9573 32.2674 31.224C32.7047 31.48 33.046 31.832 33.2914 32.28C33.622 31.7893 34.0167 31.4267 34.4754 31.192C34.934 30.9467 35.4567 30.824 36.0434 30.824C36.63 30.824 37.142 30.9573 37.5794 31.224C38.0167 31.48 38.358 31.8427 38.6034 32.312C38.8594 32.7707 38.9874 33.3093 38.9874 33.928V39H37.8194V34.168C37.8194 33.4533 37.6327 32.8933 37.2594 32.488C36.886 32.072 36.3794 31.864 35.7394 31.864C35.302 31.864 34.902 31.976 34.5394 32.2C34.1767 32.4133 33.8674 32.7387 33.6114 33.176C33.6327 33.2933 33.6487 33.416 33.6594 33.544C33.6807 33.6613 33.6914 33.7893 33.6914 33.928V39H32.5234V34.168C32.5234 33.4533 32.3367 32.8933 31.9634 32.488C31.59 32.072 31.0887 31.864 30.4594 31.864C30.0327 31.864 29.6434 31.9653 29.2914 32.168C28.95 32.36 28.6567 32.648 28.4114 33.032V39H27.2274ZM48.3854 39.16C47.628 39.16 46.9347 38.9787 46.3054 38.616C45.6867 38.2427 45.196 37.7413 44.8334 37.112C44.4707 36.4827 44.2894 35.7787 44.2894 35C44.2894 34.2213 44.4707 33.5173 44.8334 32.888C45.196 32.2587 45.6867 31.7627 46.3054 31.4C46.9347 31.0267 47.628 30.84 48.3854 30.84C49.1534 30.84 49.8467 31.0267 50.4654 31.4C51.084 31.7627 51.5747 32.2587 51.9374 32.888C52.3 33.5173 52.4814 34.2213 52.4814 35C52.4814 35.7787 52.3 36.4827 51.9374 37.112C51.5747 37.7413 51.084 38.2427 50.4654 38.616C49.8467 38.9787 49.1534 39.16 48.3854 39.16ZM48.3854 38.104C48.9294 38.104 49.42 37.9653 49.8574 37.688C50.3054 37.4107 50.6574 37.0373 50.9134 36.568C51.18 36.0987 51.3134 35.576 51.3134 35C51.3134 34.4133 51.18 33.8907 50.9134 33.432C50.6574 32.9627 50.3054 32.5893 49.8574 32.312C49.42 32.0347 48.9294 31.896 48.3854 31.896C47.8414 31.896 47.3454 32.0347 46.8974 32.312C46.46 32.5893 46.108 32.9627 45.8414 33.432C45.5854 33.8907 45.4574 34.4133 45.4574 35C45.4574 35.576 45.5854 36.0987 45.8414 36.568C46.108 37.0373 46.46 37.4107 46.8974 37.688C47.3454 37.9653 47.8414 38.104 48.3854 38.104ZM60.1158 39L56.6438 30.984H57.9558L60.6918 37.464L63.4278 30.984H64.6918L61.2358 39H60.1158ZM72.9805 39.144C72.2125 39.144 71.5138 38.9627 70.8845 38.6C70.2658 38.2267 69.7698 37.7253 69.3965 37.096C69.0338 36.4667 68.8525 35.7627 68.8525 34.984C68.8525 34.216 69.0285 33.5227 69.3805 32.904C69.7325 32.2747 70.2072 31.7787 70.8045 31.416C71.4018 31.0427 72.0685 30.856 72.8045 30.856C73.5192 30.856 74.1592 31.0427 74.7245 31.416C75.3005 31.7787 75.7538 32.2747 76.0845 32.904C76.4258 33.5227 76.5965 34.216 76.5965 34.984V35.352H70.0205C70.0845 35.8747 70.2498 36.344 70.5165 36.76C70.7938 37.176 71.1512 37.5067 71.5885 37.752C72.0258 37.9867 72.5058 38.104 73.0285 38.104C73.4445 38.104 73.8498 38.04 74.2445 37.912C74.6392 37.784 74.9698 37.6027 75.2365 37.368L75.9725 38.152C75.5245 38.4827 75.0552 38.7333 74.5645 38.904C74.0845 39.064 73.5565 39.144 72.9805 39.144ZM70.0525 34.408H75.4125C75.3485 33.928 75.1885 33.5013 74.9325 33.128C74.6872 32.744 74.3778 32.4453 74.0045 32.232C73.6312 32.008 73.2205 31.896 72.7725 31.896C72.3138 31.896 71.8925 32.0027 71.5085 32.216C71.1245 32.4293 70.8045 32.728 70.5485 33.112C70.2925 33.4853 70.1272 33.9173 70.0525 34.408ZM81.9318 39V30.984H83.1158V32.12C83.3611 31.704 83.6704 31.384 84.0438 31.16C84.4278 30.9253 84.8651 30.808 85.3558 30.808C85.6331 30.808 85.8838 30.8453 86.1078 30.92V32.008C85.9691 31.9547 85.8304 31.9173 85.6918 31.896C85.5531 31.8747 85.4144 31.864 85.2758 31.864C84.7851 31.864 84.3531 32.008 83.9798 32.296C83.6171 32.5733 83.3291 32.9787 83.1158 33.512V39H81.9318ZM90.7756 39.096C90.5516 39.096 90.3596 39.016 90.1996 38.856C90.0396 38.696 89.9596 38.504 89.9596 38.28C89.9596 38.056 90.0396 37.864 90.1996 37.704C90.3596 37.544 90.5516 37.464 90.7756 37.464C90.9996 37.464 91.1916 37.544 91.3516 37.704C91.5116 37.864 91.5916 38.056 91.5916 38.28C91.5916 38.504 91.5116 38.696 91.3516 38.856C91.1916 39.016 90.9996 39.096 90.7756 39.096ZM97.4636 39V30.984H98.6476V31.928C99.277 31.192 100.12 30.824 101.176 30.824C101.784 30.824 102.317 30.9573 102.776 31.224C103.245 31.48 103.608 31.8427 103.864 32.312C104.13 32.7707 104.264 33.3093 104.264 33.928V39H103.096V34.168C103.096 33.4533 102.893 32.8933 102.488 32.488C102.093 32.072 101.549 31.864 100.856 31.864C100.376 31.864 99.949 31.9707 99.5756 32.184C99.2023 32.3973 98.893 32.7013 98.6476 33.096V39H97.4636ZM113.685 39.144C112.917 39.144 112.218 38.9627 111.589 38.6C110.97 38.2267 110.474 37.7253 110.101 37.096C109.738 36.4667 109.557 35.7627 109.557 34.984C109.557 34.216 109.733 33.5227 110.085 32.904C110.437 32.2747 110.912 31.7787 111.509 31.416C112.106 31.0427 112.773 30.856 113.509 30.856C114.224 30.856 114.864 31.0427 115.429 31.416C116.005 31.7787 116.458 32.2747 116.789 32.904C117.13 33.5227 117.301 34.216 117.301 34.984V35.352H110.725C110.789 35.8747 110.954 36.344 111.221 36.76C111.498 37.176 111.856 37.5067 112.293 37.752C112.73 37.9867 113.21 38.104 113.733 38.104C114.149 38.104 114.554 38.04 114.949 37.912C115.344 37.784 115.674 37.6027 115.941 37.368L116.677 38.152C116.229 38.4827 115.76 38.7333 115.269 38.904C114.789 39.064 114.261 39.144 113.685 39.144ZM110.757 34.408H116.117C116.053 33.928 115.893 33.5013 115.637 33.128C115.392 32.744 115.082 32.4453 114.709 32.232C114.336 32.008 113.925 31.896 113.477 31.896C113.018 31.896 112.597 32.0027 112.213 32.216C111.829 32.4293 111.509 32.728 111.253 33.112C110.997 33.4853 110.832 33.9173 110.757 34.408ZM125.554 39.16C124.86 39.16 124.327 38.9947 123.954 38.664C123.58 38.3333 123.394 37.8533 123.394 37.224V31.992H121.666V30.984H123.394V28.952L124.562 28.648V30.984H126.978V31.992H124.562V36.92C124.562 37.3467 124.658 37.656 124.85 37.848C125.042 38.0293 125.356 38.12 125.794 38.12C126.018 38.12 126.215 38.104 126.386 38.072C126.567 38.04 126.759 37.9867 126.962 37.912V38.952C126.759 39.0267 126.53 39.08 126.274 39.112C126.028 39.144 125.788 39.16 125.554 39.16Z" fill="#3291FF"/>
</svg>