<?xml version="1.0" ?>
<svg xmlns="http://www.w3.org/2000/svg" viewBox="-59.50 -59.50 3094.00 594.00">
	<title>PlatCo Group logo (horizontal) dark.svg</title>
	<g fill="#070742" clip-path="url(#clip0_11080_2126)">
		<path d="M209.09 20.82c-19.213-10.537-42.952-15.78429-71.178-15.78429H0V372.73h66.6073V248.487h70.3737c28.352 0 52.262-5.248 71.643-15.7 19.381-10.452 34.065-24.882 43.968-43.163 9.944-18.324 14.895-39.271 14.895-62.842 0-23.57-4.951-44.1788-14.811-62.5868-9.86-18.3657-24.417-32.8382-43.629-43.3752h.043zm-17.097 140.578c-5.078 10.071-12.906 17.942-23.443 23.698-10.537 5.755-24.037 8.632-40.583 8.632H66.565V60.6829h61.022c16.63 0 30.256 2.7929 40.836 8.3365 10.579 5.5859 18.45 13.3299 23.528 23.2321 5.078 9.9445 7.617 21.4125 7.617 34.4885s-2.539 24.586-7.617 34.658h.042zm694.973-14.176l13.203-50.2729h-72.067V30.8918h-64.999v66.0573H613.681v45.6179h-2.708c-3.344-6.686-8.083-13.838-14.177-21.455-6.093-7.617-14.345-14.134-24.755-19.55-10.41-5.4593-23.698-8.1676-39.863-8.1676-21.201 0-40.413 5.4166-57.636 16.2496-17.223 10.833-30.892 26.829-41.006 47.946-10.114 21.116-15.149 47.014-15.149 77.652 0 30.638 4.951 56.028 14.895 77.186 9.945 21.201 23.444 37.324 40.583 48.496 17.096 11.129 36.519 16.715 58.186 16.715 15.784 0 28.903-2.623 39.313-7.913 10.41-5.247 18.788-11.637 25.136-19.127 6.348-7.491 11.172-14.558 14.557-21.286h3.936v43.46h63.899V147.264h84.253V300.58c-.127 17.223 3.597 31.611 11.214 43.079 7.618 11.51 17.943 19.973 30.977 25.39 13.033 5.459 27.717 7.913 43.967 7.448 9.225-.254 17.012-1.058 23.444-2.497 6.39-1.439 11.341-2.751 14.811-3.935l-10.96-50.823c-1.777.465-4.401 1.015-7.829 1.608-3.428.592-7.151.888-11.214.888-5.374 0-10.283-.846-14.726-2.496-4.444-1.693-7.998-4.825-10.664-9.437-2.709-4.613-4.02-11.299-4.02-20.016V147.222h58.821zM607.418 281.706c-5.036 13.415-12.399 23.867-22.09 31.315-9.69 7.49-21.412 11.214-35.208 11.214-13.795 0-26.236-3.851-36.012-11.595-9.775-7.702-17.138-18.323-22.089-31.78-4.951-13.457-7.448-28.818-7.448-46.041 0-17.223 2.454-32.331 7.363-45.618 4.909-13.288 12.187-23.698 21.92-31.23 9.691-7.533 21.794-11.299 36.266-11.299 14.473 0 25.814 3.639 35.462 10.96 9.648 7.321 16.927 17.519 21.92 30.68 4.952 13.161 7.448 28.649 7.448 46.507 0 17.858-2.496 33.473-7.532 46.845v.042zM1026.57 74.7747c15.45-9.9868 33.14-14.9803 53.15-14.9803 11.26 0 21.75 1.5234 31.53 4.5703 9.77 3.0468 18.45 7.5748 26.11 13.5415 7.66 5.9667 14.05 13.2453 19.21 21.7934 5.16 8.5484 8.68 18.3234 10.58 29.3684h67.16c-2.75-20.482-8.59-38.6782-17.52-54.6741-8.93-15.996-20.27-29.4952-34.02-40.5823-13.76-11.0871-29.46-19.4659-47.06-25.22106-17.61-5.75514-36.61-8.63272-57.09-8.63272-32.07 0-60.81 7.49016-86.155 22.42818-25.391 14.9803-45.407 36.5198-60.133 64.7031-14.727 28.1829-22.09 62.0789-22.09 101.6879s7.279 73.379 21.92 101.604c14.6 28.268 34.574 49.85 59.964 64.83 25.394 14.98 54.204 22.428 86.534 22.428 21.93 0 41.86-3.258 59.8-9.775 17.94-6.517 33.64-15.615 47.06-27.295 13.41-11.679 24.24-25.178 32.58-40.497 8.34-15.319 13.75-31.696 16.25-49.173l-67.16-.338c-2.03 10.79-5.71 20.354-11.04 28.733-5.33 8.379-11.85 15.446-19.55 21.201-7.7 5.755-16.42 10.071-26.03 13.034-9.65 2.92-19.97 4.401-30.97 4.401-19.85 0-37.5-4.867-52.86-14.642-15.4-9.775-27.462-24.248-36.264-43.46-8.802-19.212-13.203-42.867-13.203-71.008s4.358-51.077 13.118-70.289c8.717-19.2123 20.819-33.8117 36.269-43.7986l-.09.0423zm470.61 86.2853c-10.83-21.413-26.11-38.043-45.87-49.892-19.76-11.8491-43.08-17.7735-70.03-17.7735-26.96 0-50.28 5.9244-70.04 17.7735-19.76 11.849-35.04 28.479-45.87 49.892-10.83 21.412-16.25 46.38-16.25 74.859 0 28.48 5.42 53.362 16.25 74.69 10.83 21.328 26.11 37.874 45.87 49.723 19.76 11.849 43.08 17.773 70.04 17.773 26.95 0 50.27-5.924 70.03-17.773 19.76-11.849 35.04-28.437 45.87-49.723 10.84-21.286 16.25-46.21 16.25-74.69 0-28.479-5.41-53.447-16.25-74.859zm-56.91 120.265c-4.87 13.627-12.19 24.502-22.01 32.585-9.82 8.082-22 12.102-36.65 12.102-14.64 0-27.37-4.02-37.23-12.102-9.86-8.083-17.23-18.958-22.09-32.585-4.87-13.626-7.28-28.86-7.28-45.618 0-16.757 2.41-32.161 7.28-45.871 4.86-13.711 12.18-24.629 22.09-32.754 9.86-8.125 22.3-12.187 37.23-12.187 14.94 0 26.83 4.062 36.65 12.187s17.14 19.043 22.01 32.754c4.86 13.71 7.27 28.987 7.27 45.871 0 16.885-2.41 31.95-7.27 45.618zM402.65 320.849c-3.427.593-7.151.889-11.214.889-5.374 0-10.283-.846-14.726-2.497-4.443-1.692-7.998-4.824-10.664-9.437-2.708-4.612-4.02-11.298-4.02-20.016V5.03571h-64.999V300.537c-.127 17.223 3.639 31.611 11.214 43.079 7.617 11.51 17.942 19.974 30.976 25.39 13.034 5.459 27.718 7.914 43.967 7.448 9.226-.254 17.012-1.058 23.444-2.497 6.39-1.438 11.341-2.75 14.811-3.935l-10.96-50.823c-1.777.465-4.401 1.016-7.829 1.608v.042zm1385.09-86.411h84.17c-.3 16.757-3.9 31.442-10.96 44.01-7.37 13.16-17.9 23.317-31.53 30.468-13.63 7.152-29.75 10.706-48.33 10.706-20.48 0-38.46-4.951-53.95-14.895-15.49-9.945-27.55-24.502-36.27-43.672-8.67-19.169-13.03-42.571-13.03-70.204 0-27.633 4.36-50.611 13.12-69.739 8.76-19.127 20.82-33.5996 36.18-43.5019 15.36-9.8599 32.88-14.811 52.52-14.811 10.96 0 21.07 1.3965 30.34 4.1894 9.26 2.7929 17.52 6.94 24.71 12.399 7.19 5.4589 13.41 12.0604 18.58 19.7198 5.16 7.6597 9.26 16.3347 12.23 25.9827h67.49c-2.75-17.985-8.5-34.4038-17.3-49.2995-8.81-14.8957-20.02-27.7601-33.69-38.5933-13.63-10.8333-29.2-19.2121-46.72-25.0942-17.52-5.88206-36.39-8.84427-56.62-8.84427-23.95 0-46.08 4.27404-66.44 12.77977-20.35 8.5058-38.08 20.9048-53.23 37.1546-15.11 16.2498-26.87 35.9696-35.29 59.2019-8.38 23.232-12.61 49.596-12.61 79.133 0 38.593 7.1 71.897 21.32 99.911 14.22 28.057 34.07 49.638 59.46 64.83 25.43 15.192 54.97 22.767 88.65 22.767 30.26 0 57.05-6.178 80.36-18.493 23.32-12.314 41.69-29.918 55.02-52.769 13.33-22.852 20.01-49.935 20.01-81.249v-43.926h-148.4v51.797l.21.042zm346.02-136.8115c-2.96-.5924-6.68-1.0579-11.17-1.3541-4.48-.2962-8.46-.4655-12.06-.4655-15.7 0-29.66 4.3161-41.89 12.9491-12.19 8.633-20.82 20.862-25.82 36.689h-2.87V99.7424h-62.68V374.043h64.66V212.772c0-11.68 2.67-21.963 8.04-30.892 5.38-8.929 12.7-15.911 22.05-20.989 9.35-5.078 19.93-7.575 31.7-7.575 5.46 0 11.17.381 17.05 1.143 5.88.761 10.2 1.65 12.95 2.581V97.5842l.04.0423zm200.8 16.2915c-19.64-11.806-42.87-17.6884-69.66-17.6884-26.78 0-50.02 5.8824-69.65 17.6884-19.64 11.807-34.87 28.353-45.62 49.638-10.79 21.328-16.17 46.126-16.17 74.479 0 28.352 5.38 53.108 16.17 74.309 10.79 21.201 25.98 37.704 45.62 49.469 19.63 11.806 42.87 17.688 69.65 17.688 26.79 0 50.02-5.882 69.66-17.688 19.63-11.807 34.87-28.268 45.61-49.469 10.8-21.201 16.17-45.957 16.17-74.309 0-28.353-5.37-53.151-16.17-74.479-10.79-21.328-25.98-37.874-45.61-49.638zm-11.01 169.269c-4.82 13.584-12.1 24.375-21.87 32.415-9.78 8.04-21.92 12.061-36.44 12.061-14.51 0-27.25-4.021-37.07-12.061s-17.14-18.831-21.96-32.415c-4.83-13.584-7.24-28.691-7.24-45.364s2.41-31.992 7.24-45.618c4.82-13.626 12.14-24.502 21.96-32.584 9.82-8.083 22.18-12.145 37.07-12.145 14.9 0 26.66 4.062 36.44 12.145 9.77 8.082 17.05 18.958 21.87 32.584 4.83 13.626 7.24 28.86 7.24 45.618 0 16.758-2.41 31.78-7.24 45.364zm282.18-24.459c0 13.922-2.88 25.517-8.67 34.742-5.76 9.226-13.12 16.166-22.05 20.821-8.93 4.654-18.15 6.982-27.68 6.982-15.48 0-27.97-5.121-37.49-15.361-9.52-10.241-14.3-24.036-14.3-41.429V99.7844h-64.66V274.47c0 21.92 3.85 40.582 11.59 55.986 7.75 15.403 18.49 27.167 32.25 35.165 13.75 7.998 29.62 12.061 47.6 12.061 20.61 0 37.96-4.867 52.05-14.642 14.1-9.775 24.25-22.344 30.47-37.662h2.84v48.749h62.67V99.7844h-64.66V258.728h.04zm354.83-98.684c-10.07-21.032-23.66-36.901-40.71-47.692-17.1-10.791-36.22-16.165-57.43-16.165-16.08 0-29.28 2.7083-39.65 8.125-10.36 5.417-18.57 11.891-24.63 19.466-6.09 7.575-10.79 14.684-14.09 21.328h-3.76V99.7417h-63.56V476.915h64.66V330.836h2.66c3.47 6.686 8.3 13.711 14.56 21.159 6.26 7.448 14.56 13.795 24.93 19.043 10.36 5.247 23.4 7.871 39.1 7.871 21.54 0 40.83-5.544 57.84-16.631 17.02-11.087 30.47-27.125 40.37-48.199 9.91-21.074 14.82-46.676 14.82-76.806 0-30.13-5.04-56.24-15.11-77.229zm-58.23 122.72c-4.95 13.414-12.23 23.951-21.88 31.611-9.65 7.659-21.62 11.51-35.88 11.51-14.26 0-25.35-3.724-34.91-11.172-9.61-7.448-16.93-17.815-21.97-31.145-5.08-13.33-7.57-28.861-7.57-46.634s2.45-33.177 7.4-46.253 12.23-23.274 21.88-30.553c9.65-7.278 21.37-10.875 35.17-10.875 13.79 0 26.45 3.766 36.05 11.256 9.65 7.49 16.93 17.858 21.79 31.061 4.87 13.203 7.33 28.353 7.33 45.364 0 17.012-2.46 32.415-7.41 45.787v.043z"/>
	</g>
	<defs>
		<clipPath id="clip0_11080_2126">
			<path fill="#fff" d="M0 0h2975.66v477H0z"/>
		</clipPath>
	</defs>
</svg>