<?xml version="1.0" ?>
<svg xmlns="http://www.w3.org/2000/svg" viewBox="0 0 40 41" fill="none">
	<path d="M16.971 17.7864C16.971 18.246 16.595 18.6012 16.1563 18.6012H14.506C14.0464 18.6012 13.6913 18.246 13.6704 17.7864V16.1361C13.6704 15.6766 14.0464 15.3005 14.506 15.3005H16.1563C16.6159 15.3005 16.971 15.6766 16.971 16.1361V17.7864Z" fill="#2BB031"/>
	<path d="M21.6502 17.7864C21.6502 18.246 21.2742 18.6012 20.8355 18.6012H19.1852C18.7256 18.6012 18.3705 18.246 18.3496 17.7864V16.1361C18.3496 15.6766 18.7256 15.3005 19.1852 15.3005H20.8355C21.2742 15.3005 21.6502 15.6766 21.6502 16.1361V17.7864Z" fill="#2BB031"/>
	<path d="M26.3297 17.7864C26.3297 18.246 25.9537 18.6012 25.515 18.6012H23.8647C23.4051 18.6012 23.0499 18.246 23.0291 17.7864V16.1361C23.0291 15.6766 23.4051 15.3005 23.8647 15.3005H25.515C25.9745 15.3005 26.3297 15.6766 26.3297 16.1361V17.7864Z" fill="#2BB031"/>
	<path d="M16.971 22.4659C16.971 22.9255 16.595 23.2806 16.1563 23.2806H14.506C14.0464 23.2806 13.6913 22.9255 13.6704 22.4659V20.8156C13.6704 20.356 14.0464 19.98 14.506 19.98H16.1563C16.6159 19.98 16.971 20.356 16.971 20.8156V22.4659Z" fill="#2BB031"/>
	<path d="M21.6502 22.4659C21.6502 22.9255 21.2742 23.2806 20.8355 23.2806H19.1852C18.7256 23.2806 18.3705 22.9255 18.3496 22.4659V20.8156C18.3496 20.356 18.7256 19.98 19.1852 19.98H20.8355C21.2742 19.98 21.6502 20.356 21.6502 20.8156V22.4659Z" fill="#2BB031"/>
	<path d="M26.3297 22.4659C26.3297 22.9255 25.9537 23.2806 25.515 23.2806H23.8647C23.4051 23.2806 23.0499 22.9255 23.0291 22.4659V20.8156C23.0291 20.356 23.4051 19.98 23.8647 19.98H25.515C25.9745 19.98 26.3297 20.356 26.3297 20.8156V22.4659Z" fill="#2BB031"/>
	<path d="M16.971 27.1455C16.971 27.605 16.595 27.9602 16.1563 27.9602H14.506C14.0464 27.9602 13.6913 27.605 13.6704 27.1455V25.4951C13.6704 25.0356 14.0464 24.6595 14.506 24.6595H16.1563C16.6159 24.6595 16.971 25.0356 16.971 25.4951V27.1455Z" fill="#2BB031"/>
	<path d="M21.6502 27.1455C21.6502 27.605 21.2742 27.9602 20.8355 27.9602H19.1852C18.7256 27.9602 18.3705 27.605 18.3496 27.1455V25.4951C18.3496 25.0356 18.7256 24.6595 19.1852 24.6595H20.8355C21.2742 24.6595 21.6502 25.0356 21.6502 25.4951V27.1455Z" fill="#2BB031"/>
	<path d="M26.3297 27.1455C26.3297 27.605 25.9537 27.9602 25.515 27.9602H23.8647C23.4051 27.9602 23.0499 27.605 23.0291 27.1455V25.4951C23.0291 25.0356 23.4051 24.6595 23.8647 24.6595H25.515C25.9745 24.6595 26.3297 25.0356 26.3297 25.4951V27.1455Z" fill="#2BB031"/>
	<path d="M20.7986 5.70942C16.4952 5.70942 12.5052 7.96554 10.27 11.6422V7.08816C10.27 6.18989 9.53885 5.45874 8.64058 5.45874C7.74231 5.45874 7.01116 6.18989 7.01116 7.08816V14.8383C1.85133 17.3451 -0.300342 23.5495 2.18557 28.7093C3.91944 32.3024 7.57519 34.5794 11.5861 34.5585H29.3635C34.5651 34.6003 38.8057 30.4014 38.8475 25.2207C38.8684 21.3978 36.5705 17.9301 33.0401 16.4678C32.2463 10.3261 27.0029 5.70942 20.7986 5.70942Z" stroke="#2BB031" stroke-width="2.01939" stroke-linejoin="round"/>
</svg>