<svg xmlns="http://www.w3.org/2000/svg" fill="none" viewBox="0 0 438 191"><path fill="#3343AB" fill-rule="evenodd" d="M15.515 1.258C27.523-2.872 40.61 3.504 44.745 15.5c2.356 6.838 1.296 14.026-2.276 19.708l-.014.03c-3.488 7.431-4.2 16.173-1.313 24.547C45.352 72.003 56.08 80.13 68.106 81.62c18.768 2.585 35.435 15.38 42.025 34.501 9.332 27.076-5.073 56.583-32.175 65.906-27.103 9.323-56.639-5.069-65.97-32.144-6.669-19.347-1.217-39.935 12.326-53.514-.015-.006-.032-.015-.048-.023 7.923-8.564 10.996-21.094 6.93-32.892-2.925-8.486-8.892-15.094-16.305-18.829l.103-.11C8.767 42.2 3.59 37.222 1.26 30.458c-4.135-11.996 2.248-25.07 14.256-29.2Z" clip-rule="evenodd"/><path fill="#6F7FE7" fill-rule="evenodd" d="M90.622 55.629c6.959 2.539 10.43 9.97 7.753 16.598-1.525 3.778-4.72 6.48-8.474 7.634-4.384 1.933-8.016 5.43-9.886 10.062-2.726 6.75-.976 14.084 3.865 19.04 7.458 7.845 10.113 19.313 5.846 29.878-6.041 14.959-23.67 22.44-39.377 16.709-15.705-5.73-23.54-22.502-17.499-37.462 4.317-10.689 14.55-17.56 25.77-18.52a.364.364 0 0 1-.013-.028c6.799-.828 12.918-5.097 15.55-11.615 1.893-4.689 1.71-9.664-.21-13.926l.087-.01c-1.922-3.227-2.368-7.22-.859-10.957 2.677-6.627 10.488-9.942 17.447-7.403Z" clip-rule="evenodd"/><path fill="#03142B" d="M182.17 97.558c5.71 0 10.902 1.465 15.574 4.396 4.673 2.844 8.307 6.852 10.902 12.024 2.683 5.085 4.024 10.817 4.024 17.195 0 6.465-1.341 12.283-4.024 17.454-2.595 5.086-6.229 9.094-10.902 12.024-4.586 2.931-9.734 4.396-15.445 4.396-5.018 0-9.647-1.164-13.887-3.491-4.153-2.413-7.485-5.602-9.994-9.567v34.132c0 1.121-.389 2.026-1.168 2.715-.692.776-1.601 1.164-2.725 1.164-1.125 0-2.077-.388-2.856-1.164-.692-.689-1.038-1.594-1.038-2.715v-84.296c0-1.121.346-2.069 1.038-2.845.779-.775 1.731-1.163 2.856-1.163 1.124 0 2.033.388 2.725 1.163.779.776 1.168 1.724 1.168 2.845v8.791c2.25-4.051 5.495-7.24 9.734-9.567 4.24-2.327 8.913-3.49 14.018-3.49Zm-.649 60.249c4.499 0 8.522-1.121 12.07-3.362 3.634-2.327 6.446-5.516 8.436-9.567 2.077-4.051 3.115-8.619 3.115-13.705 0-4.999-1.038-9.481-3.115-13.446-1.99-4.051-4.802-7.197-8.436-9.438-3.548-2.327-7.571-3.491-12.07-3.491-4.586 0-8.696 1.121-12.33 3.362-3.634 2.241-6.447 5.387-8.437 9.438-1.99 3.965-2.985 8.49-2.985 13.575 0 5.086.995 9.654 2.985 13.705 1.99 4.051 4.803 7.24 8.437 9.567 3.634 2.241 7.744 3.362 12.33 3.362ZM237.273 160.263c0 1.121-.389 2.069-1.168 2.845-.692.689-1.601 1.034-2.726 1.034-1.124 0-2.076-.345-2.855-1.034-.692-.776-1.038-1.724-1.038-2.845V72.347c0-1.12.346-2.026 1.038-2.715.779-.776 1.731-1.164 2.855-1.164 1.125 0 2.034.388 2.726 1.164.779.69 1.168 1.594 1.168 2.715v87.916ZM307.565 98.463c1.125 0 2.033.388 2.725 1.164.779.689 1.169 1.594 1.169 2.715v36.459c0 8.447-2.38 14.955-7.139 19.523-4.759 4.482-11.335 6.723-19.728 6.723-8.306 0-14.839-2.241-19.598-6.723-4.672-4.568-7.008-11.076-7.008-19.523v-36.459c0-1.121.346-2.026 1.038-2.715.779-.776 1.73-1.164 2.855-1.164s2.034.388 2.726 1.164c.778.689 1.168 1.594 1.168 2.715v36.459c0 6.206 1.644 10.947 4.932 14.222 3.288 3.189 7.917 4.784 13.887 4.784 6.057 0 10.729-1.595 14.017-4.784 3.375-3.275 5.062-8.016 5.062-14.222v-36.459c0-1.121.346-2.026 1.038-2.715.779-.776 1.731-1.164 2.856-1.164ZM344.858 105.574v43.312c0 3.275.606 5.516 1.817 6.723 1.211 1.12 2.812 1.681 4.802 1.681.519 0 1.168-.086 1.947-.259.779-.258 1.384-.388 1.817-.388.779 0 1.428.345 1.947 1.035.605.603.908 1.336.908 2.197 0 1.207-.692 2.241-2.076 3.103-1.385.776-3.029 1.164-4.932 1.164-2.336 0-4.413-.215-6.23-.646-1.817-.431-3.591-1.724-5.322-3.879-1.643-2.155-2.465-5.603-2.465-10.343v-43.7h-9.475a3.987 3.987 0 0 1-2.726-1.034c-.692-.69-1.038-1.552-1.038-2.586 0-1.034.346-1.896 1.038-2.586a3.985 3.985 0 0 1 2.726-1.034h9.475V83.983c0-1.12.346-2.026 1.038-2.715.779-.776 1.73-1.164 2.855-1.164s2.034.388 2.726 1.164c.778.69 1.168 1.594 1.168 2.715v14.351h12.979c.951 0 1.773.388 2.466 1.164.778.775 1.168 1.637 1.168 2.585 0 1.035-.346 1.897-1.039 2.586-.692.603-1.557.905-2.595.905h-12.979ZM436.487 131.044c0 6.465-1.428 12.326-4.283 17.583-2.856 5.258-6.793 9.395-11.811 12.412-5.019 2.931-10.6 4.396-16.743 4.396-6.143 0-11.724-1.465-16.743-4.396-5.018-3.017-8.955-7.154-11.81-12.412-2.856-5.257-4.283-11.118-4.283-17.583 0-6.464 1.427-12.325 4.283-17.583 2.855-5.258 6.792-9.395 11.81-12.412 5.019-3.017 10.6-4.525 16.743-4.525 6.143 0 11.724 1.508 16.743 4.525 5.018 3.017 8.955 7.154 11.811 12.412 2.855 5.258 4.283 11.119 4.283 17.583Zm-7.788 0c0-5.171-1.081-9.826-3.244-13.963-2.163-4.137-5.192-7.37-9.086-9.697-3.807-2.413-8.046-3.62-12.719-3.62-4.672 0-8.912 1.207-12.719 3.62-3.807 2.327-6.836 5.56-9.085 9.697-2.164 4.137-3.245 8.792-3.245 13.963 0 5.085 1.081 9.697 3.245 13.834 2.249 4.137 5.278 7.413 9.085 9.826 3.807 2.327 8.047 3.491 12.719 3.491 4.673 0 8.912-1.164 12.719-3.491 3.894-2.327 6.923-5.559 9.086-9.697 2.163-4.137 3.244-8.791 3.244-13.963Z"/><path stroke="#03142B" stroke-width="2" d="M182.17 97.558c5.71 0 10.902 1.465 15.574 4.396 4.673 2.844 8.307 6.852 10.902 12.024 2.683 5.085 4.024 10.817 4.024 17.195 0 6.465-1.341 12.283-4.024 17.454-2.595 5.086-6.229 9.094-10.902 12.024-4.586 2.931-9.734 4.396-15.445 4.396-5.018 0-9.647-1.164-13.887-3.491-4.153-2.413-7.485-5.602-9.994-9.567v34.132c0 1.121-.389 2.026-1.168 2.715-.692.776-1.601 1.164-2.725 1.164-1.125 0-2.077-.388-2.856-1.164-.692-.689-1.038-1.594-1.038-2.715v-84.296c0-1.121.346-2.069 1.038-2.845.779-.775 1.731-1.163 2.856-1.163 1.124 0 2.033.388 2.725 1.163.779.776 1.168 1.724 1.168 2.845v8.791c2.25-4.051 5.495-7.24 9.734-9.567 4.24-2.327 8.913-3.49 14.018-3.49Zm-.649 60.249c4.499 0 8.522-1.121 12.07-3.362 3.634-2.327 6.446-5.516 8.436-9.567 2.077-4.051 3.115-8.619 3.115-13.705 0-4.999-1.038-9.481-3.115-13.446-1.99-4.051-4.802-7.197-8.436-9.438-3.548-2.327-7.571-3.491-12.07-3.491-4.586 0-8.696 1.121-12.33 3.362-3.634 2.241-6.447 5.387-8.437 9.438-1.99 3.965-2.985 8.49-2.985 13.575 0 5.086.995 9.654 2.985 13.705 1.99 4.051 4.803 7.24 8.437 9.567 3.634 2.241 7.744 3.362 12.33 3.362ZM237.273 160.263c0 1.121-.389 2.069-1.168 2.845-.692.689-1.601 1.034-2.726 1.034-1.124 0-2.076-.345-2.855-1.034-.692-.776-1.038-1.724-1.038-2.845V72.347c0-1.12.346-2.026 1.038-2.715.779-.776 1.731-1.164 2.855-1.164 1.125 0 2.034.388 2.726 1.164.779.69 1.168 1.594 1.168 2.715v87.916ZM307.565 98.463c1.125 0 2.033.388 2.725 1.164.779.689 1.169 1.594 1.169 2.715v36.459c0 8.447-2.38 14.955-7.139 19.523-4.759 4.482-11.335 6.723-19.728 6.723-8.306 0-14.839-2.241-19.598-6.723-4.672-4.568-7.008-11.076-7.008-19.523v-36.459c0-1.121.346-2.026 1.038-2.715.779-.776 1.73-1.164 2.855-1.164s2.034.388 2.726 1.164c.778.689 1.168 1.594 1.168 2.715v36.459c0 6.206 1.644 10.947 4.932 14.222 3.288 3.189 7.917 4.784 13.887 4.784 6.057 0 10.729-1.595 14.017-4.784 3.375-3.275 5.062-8.016 5.062-14.222v-36.459c0-1.121.346-2.026 1.038-2.715.779-.776 1.731-1.164 2.856-1.164ZM344.858 105.574v43.312c0 3.275.606 5.516 1.817 6.723 1.211 1.12 2.812 1.681 4.802 1.681.519 0 1.168-.086 1.947-.259.779-.258 1.384-.388 1.817-.388.779 0 1.428.345 1.947 1.035.605.603.908 1.336.908 2.197 0 1.207-.692 2.241-2.076 3.103-1.385.776-3.029 1.164-4.932 1.164-2.336 0-4.413-.215-6.23-.646-1.817-.431-3.591-1.724-5.322-3.879-1.643-2.155-2.465-5.603-2.465-10.343v-43.7h-9.475a3.987 3.987 0 0 1-2.726-1.034c-.692-.69-1.038-1.552-1.038-2.586 0-1.034.346-1.896 1.038-2.586a3.985 3.985 0 0 1 2.726-1.034h9.475V83.983c0-1.12.346-2.026 1.038-2.715.779-.776 1.73-1.164 2.855-1.164s2.034.388 2.726 1.164c.778.69 1.168 1.594 1.168 2.715v14.351h12.979c.951 0 1.773.388 2.466 1.164.778.775 1.168 1.637 1.168 2.585 0 1.035-.346 1.897-1.039 2.586-.692.603-1.557.905-2.595.905h-12.979ZM436.487 131.044c0 6.465-1.428 12.326-4.283 17.583-2.856 5.258-6.793 9.395-11.811 12.412-5.019 2.931-10.6 4.396-16.743 4.396-6.143 0-11.724-1.465-16.743-4.396-5.018-3.017-8.955-7.154-11.81-12.412-2.856-5.257-4.283-11.118-4.283-17.583 0-6.464 1.427-12.325 4.283-17.583 2.855-5.258 6.792-9.395 11.81-12.412 5.019-3.017 10.6-4.525 16.743-4.525 6.143 0 11.724 1.508 16.743 4.525 5.018 3.017 8.955 7.154 11.811 12.412 2.855 5.258 4.283 11.119 4.283 17.583Zm-7.788 0c0-5.171-1.081-9.826-3.244-13.963-2.163-4.137-5.192-7.37-9.086-9.697-3.807-2.413-8.046-3.62-12.719-3.62-4.672 0-8.912 1.207-12.719 3.62-3.807 2.327-6.836 5.56-9.085 9.697-2.164 4.137-3.245 8.792-3.245 13.963 0 5.085 1.081 9.697 3.245 13.834 2.249 4.137 5.278 7.413 9.085 9.826 3.807 2.327 8.047 3.491 12.719 3.491 4.673 0 8.912-1.164 12.719-3.491 3.894-2.327 6.923-5.559 9.086-9.697 2.163-4.137 3.244-8.791 3.244-13.963Z"/></svg>