<?xml version="1.0" ?>
<svg xmlns="http://www.w3.org/2000/svg" viewBox="0 0 640 384">
	<g fill="none" fill-rule="evenodd">
		<path d="M294.525 192.392v22.506H284v-60.57h23.171c6.767 0 12.14 1.761 16.12 5.283 3.98 3.522 5.97 8.182 5.97 13.978 0 5.935-1.948 10.553-5.845 13.853-3.896 3.3-9.353 4.95-16.37 4.95h-12.521zm0-8.445h12.646c3.744 0 6.601-.88 8.57-2.641 1.97-1.761 2.954-4.306 2.954-7.634 0-3.272-.999-5.886-2.996-7.841-1.996-1.956-4.742-2.961-8.236-3.016h-12.938v21.132zm41.496 8.03c0-4.41.874-8.383 2.621-11.92 1.747-3.535 4.202-6.253 7.363-8.153 3.162-1.9 6.795-2.85 10.9-2.85 6.073 0 11.003 1.956 14.789 5.866 3.785 3.91 5.83 9.097 6.136 15.559l.041 2.371c0 4.437-.852 8.403-2.558 11.898-1.706 3.494-4.146 6.198-7.322 8.112-3.175 1.913-6.843 2.87-11.003 2.87-6.351 0-11.433-2.114-15.247-6.344-3.813-4.23-5.72-9.866-5.72-16.91v-.5zm10.11.873c0 4.632.956 8.258 2.87 10.878 1.913 2.621 4.576 3.932 7.987 3.932 3.411 0 6.067-1.331 7.966-3.994 1.9-2.662 2.85-6.559 2.85-11.69 0-4.548-.978-8.153-2.933-10.816-1.955-2.662-4.61-3.993-7.966-3.993-3.3 0-5.921 1.31-7.863 3.93-1.941 2.622-2.912 6.539-2.912 11.753zm52.02 22.048h-10.108V151h10.109v63.898zm27.727-14.477l9.152-30.534h10.775l-17.888 51.834c-2.746 7.57-7.405 11.357-13.978 11.357-1.47 0-3.092-.25-4.867-.75v-7.82l1.913.125c2.552 0 4.472-.465 5.762-1.394 1.29-.929 2.309-2.489 3.058-4.68l1.456-3.869-15.809-44.803h10.9l9.526 30.534zm36.213-30.534l.292 4.7c3.161-3.688 7.488-5.532 12.979-5.532 6.018 0 10.137 2.301 12.355 6.905 3.273-4.604 7.877-6.905 13.812-6.905 4.964 0 8.66 1.372 11.086 4.118 2.427 2.746 3.668 6.795 3.723 12.147v29.578H506.23v-29.286c0-2.857-.624-4.95-1.872-6.282-1.248-1.331-3.314-1.997-6.198-1.997-2.302 0-4.18.617-5.637 1.851-1.456 1.234-2.475 2.85-3.058 4.847l.042 30.867h-10.109v-29.62c-.138-5.296-2.842-7.945-8.112-7.945-4.049 0-6.92 1.65-8.611 4.95v32.615h-10.109v-45.011h9.526zm85.427 45.843c-6.407 0-11.6-2.017-15.58-6.053-3.98-4.035-5.97-9.408-5.97-16.12v-1.248c0-4.493.868-8.507 2.6-12.043 1.734-3.536 4.168-6.289 7.302-8.258 3.134-1.969 6.628-2.953 10.483-2.953 6.13 0 10.865 1.955 14.207 5.865 3.342 3.91 5.012 9.443 5.012 16.599v4.077h-29.411c.305 3.716 1.546 6.656 3.723 8.819 2.177 2.163 4.916 3.245 8.216 3.245 4.632 0 8.404-1.872 11.316-5.616l5.45 5.2c-1.803 2.69-4.21 4.777-7.218 6.26-3.01 1.484-6.386 2.226-10.13 2.226zm-1.207-38.563c-2.773 0-5.012.97-6.718 2.912-1.706 1.941-2.794 4.645-3.266 8.112h19.261v-.75c-.222-3.383-1.123-5.941-2.704-7.674-1.58-1.734-3.771-2.6-6.573-2.6zm51.647 1.955a25.015 25.015 0 0 0-4.118-.333c-4.632 0-7.752 1.775-9.36 5.325v30.784H574.37v-45.011h9.651l.25 5.033c2.44-3.91 5.824-5.865 10.15-5.865 1.443 0 2.635.194 3.578.582l-.042 9.485z" fill="#FF4470"/>
		<g fill-rule="nonzero">
			<path fill="#FFF" d="M119.29 124.27H79.96L40.63 192.5l39.33 68.23h39.33l59.04-102.39 19.71 34.16-39.33 68.23h39.33l39.33-68.23-39.33-68.23h-39.33L99.67 226.66 79.96 192.5z"/>
			<path fill="#F52757" opacity=".8" d="M139 158.34l19.62-34.07 19.71 34.07z"/>
			<path fill="#F52757" opacity=".7" d="M139 158.34l19.62 34.16 19.71-34.16z"/>
			<path fill="#F52757" opacity=".6" d="M119.29 192.5L139 158.34l19.62 34.16z"/>
			<path fill="#1E88E5" opacity=".68" d="M79.96 124.27l19.71 34.07 19.62-34.07z"/>
			<path fill="#1E88E5" opacity=".76" d="M60.34 158.34l19.62-34.07 19.71 34.07z"/>
			<path fill="#1E88E5" opacity=".84" d="M60.34 158.34l19.62 34.16 19.71-34.16z"/>
			<path fill="#1E88E5" opacity=".94" d="M40.63 192.5l19.71-34.16 19.62 34.16z"/>
			<path fill="#F52757" opacity=".65" d="M119.29 192.5L139 226.66l19.62-34.16z"/>
			<path fill="#F52757" opacity=".7" d="M99.67 226.66l19.62-34.16L139 226.66z"/>
			<path fill="#F52757" opacity=".8" d="M99.67 226.66l19.62 34.07L139 226.66z"/>
			<path fill="#F52757" d="M79.96 260.73l19.71-34.07 19.62 34.07z"/>
			<path fill="#1E88E5" d="M40.63 192.5l19.71 34.16 19.62-34.16z"/>
			<path fill="#1E88E5" opacity=".68" d="M198.04 260.73l-19.71-34.07-19.62 34.07z"/>
			<path fill="#1E88E5" opacity=".76" d="M217.66 226.66l-19.62 34.07-19.71-34.07z"/>
			<path fill="#1E88E5" opacity=".84" d="M217.66 226.66l-19.62-34.16-19.71 34.16z"/>
			<path fill="#1E88E5" opacity=".94" d="M237.37 192.5l-19.71 34.16-19.62-34.16z"/>
			<path fill="#1E88E5" d="M237.37 192.5l-19.71-34.16-19.62 34.16z"/>
			<path fill="#0D47A1" opacity=".92" d="M99.67 226.66L79.96 192.5l-19.62 34.16z"/>
			<path fill="#0D47A1" d="M99.67 226.66l-19.71 34.07-19.62-34.07z"/>
			<path fill="#F52757" d="M158.62 124.27l19.71 34.07 19.71-34.07z"/>
			<path fill="#0D47A1" d="M217.66 158.34l-19.62-34.07-19.71 34.07z"/>
			<path fill="#0D47A1" opacity=".92" d="M217.66 158.34l-19.62 34.16-19.71-34.16z"/>
		</g>
	</g>
</svg>