<?xml version="1.0" encoding="UTF-8"?>
<svg id="Camada_1" data-name="Camada 1" xmlns="http://www.w3.org/2000/svg" version="1.1" viewBox="0 0 170 34">
  <defs>
    <style>
      .cls-1 {
        fill: #f7f5f5;
      }

      .cls-1, .cls-2 {
        stroke-width: 0px;
      }

      .cls-2 {
        fill: #ed771a;
      }

      .cls-3 {
        opacity: 1;
      }
    </style>
  </defs>
  <g class="cls-3">
    <path class="cls-1" d="M54.4,7.4h-.4c-2.3,0-4.3.8-5.9,2.5-1.6,1.6-2.5,3.6-2.5,5.9v11.4h5.1v-11.4c0-1.1.3-1.9,1-2.6.6-.6,1.5-1,2.5-1s1.8.3,2.5,1c.6.6,1,1.5,1,2.6v11.4h5.1v-11.4c0-2.3-.8-4.3-2.5-5.9-1.6-1.6-3.6-2.5-5.9-2.5Z"/>
    <polygon class="cls-1" points="71.6 3.1 66.5 3.1 66.5 27.2 71.6 27.2 71.6 12.8 75.8 12.8 75.8 8 71.6 8 71.6 3.1"/>
    <path class="cls-1" d="M96.7,13.7c-.5-1.2-1.3-2.3-2.2-3.3s-2.1-1.7-3.3-2.2c-1.2-.5-2.6-.8-3.9-.8s-2.7.3-3.9.8c-1.2.5-2.3,1.3-3.3,2.2-1,1-1.7,2.1-2.2,3.3-.5,1.2-.8,2.6-.8,3.9s.3,2.7.8,3.9c.5,1.2,1.3,2.3,2.2,3.3,1,1,2.1,1.7,3.3,2.2,1.2.5,2.6.8,3.9.8s2.7-.3,3.9-.8c1.2-.5,2.3-1.3,3.3-2.2,1-1,1.7-2.1,2.2-3.3.5-1.2.8-2.6.8-3.9s-.3-2.7-.8-3.9ZM88.9,22.7c-.5.2-1,.2-1.5.2s-1.1,0-1.5-.2c-2.2-.7-3.8-2.7-3.8-5.1s1.6-4.5,3.8-5.1c.5-.2,1-.2,1.5-.2s1.1,0,1.5.2c2.2.7,3.8,2.7,3.8,5.1s-1.6,4.5-3.8,5.1Z"/>
    <path class="cls-1" d="M40,10.3c-1-1-2.1-1.7-3.3-2.2-1.2-.5-2.6-.8-3.9-.8s-2.7.3-3.9.8c-1.2.5-2.3,1.3-3.3,2.2-1,1-1.7,2.1-2.2,3.3-.5,1.2-.8,2.6-.8,3.9s.3,2.7.8,3.9c.5,1.2,1.3,2.3,2.2,3.3,1,1,2.1,1.7,3.3,2.2,1.2.5,2.6.8,3.9.8s2.7-.3,3.9-.8c1.2-.5,2.3-1.3,3.3-2.2,1-1,1.7-2.1,2.2-3.3.5-1.2.8-2.6.8-3.9s-.3-2.7-.8-3.9c-.5-1.2-1.3-2.3-2.2-3.3ZM34.4,22.7c-.5.2-1,.2-1.5.2s-1.1,0-1.5-.2c-2.2-.7-3.8-2.7-3.8-5.1s1.6-4.5,3.8-5.1c.5-.2,1-.2,1.5-.2s1.1,0,1.5.2c2.2.7,3.8,2.7,3.8,5.1s-1.6,4.5-3.8,5.1Z"/>
    <path class="cls-1" d="M17.4,10.4c-1-1-2.1-1.7-3.3-2.2-1.2-.5-2.6-.8-3.9-.8s-2.7.3-3.9.8c-1.2.5-2.3,1.3-3.3,2.2-1,1-1.7,2.1-2.2,3.3C.3,14.8,0,15.9,0,17.2h0v16.1h5.1v-6.8c.4.2.8.4,1.2.6,1.2.5,2.6.8,3.9.8s2.7-.3,3.9-.8c1.2-.5,2.3-1.3,3.3-2.2,1-1,1.7-2.1,2.2-3.3.5-1.2.8-2.6.8-3.9s-.3-2.7-.8-3.9c-.5-1.2-1.3-2.3-2.2-3.3ZM11.8,22.7c-.5.2-1,.2-1.6.2s-1.1,0-1.6-.2c-2.2-.7-3.8-2.7-3.8-5.1s1.6-4.5,3.9-5.1c.5-.2,1-.2,1.5-.2s1,0,1.5.2c2.2.7,3.9,2.7,3.9,5.1s-1.6,4.5-3.8,5.1Z"/>
    <path class="cls-1" d="M108.4,4.9h1V0h-1c-2.5,0-4.5.8-6,2.3-1.5,1.5-2.3,3.9-2.3,6.9v17.9h5.1v-14.4s4.2,0,4.2,0v-4.8s-4.2,0-4.2,0c.1-.8.4-1.5.7-2,.5-.7,1.4-1,2.5-1ZM105.5,9.3h0c0-.1,0-.1,0-.2v.2Z"/>
    <path class="cls-1" d="M119.9,12.9h1v-4.9h-1c-2.5,0-4.5.8-6,2.3-1.5,1.5-2.3,3.9-2.3,6.9v9.9h5.1v-6.4s-.2-3.6,0-4.8.4-1.5.7-2c.5-.7,1.4-1,2.5-1ZM117,17.3h0c0-.1,0-.1,0-.2v.2Z"/>
    <path class="cls-1" d="M123.9,5.1c-.6-.6-.9-1.3-.9-2.1s.3-1.5.9-2.1c.6-.6,1.3-.9,2.1-.9s1.5.3,2.1.9c.6.6.9,1.3.9,2.1s-.3,1.6-.9,2.1c-.6.6-1.3.9-2.1.9s-1.6-.3-2.1-.9Z"/>
    <path class="cls-1" d="M123.5,8h5.1v19.2h-5.1V8Z"/>
    <path class="cls-1" d="M150.8,13.7c-.5-1.2-1.3-2.3-2.2-3.3s-2.1-1.7-3.3-2.2c-1.2-.5-2.6-.8-3.9-.8s-2.7.3-3.9.8c-1.2.5-2.3,1.3-3.3,2.2-1,1-1.7,2.1-2.2,3.3-.5,1.2-.8,2.6-.8,3.9s.3,2.7.8,3.9c.5,1.2,1.3,2.3,2.2,3.3,1,1,2.1,1.7,3.3,2.2,1.2.5,2.6.8,3.9.8s2.7-.3,3.9-.8c1.2-.5,2.3-1.3,3.3-2.2,1-1,1.7-2.1,2.2-3.3.5-1.2.8-2.6.8-3.9s-.3-2.7-.8-3.9ZM143,22.7c-.5.2-1,.2-1.5.2s-1.1,0-1.5-.2c-2.2-.7-3.8-2.7-3.8-5.1s1.6-4.5,3.8-5.1c.5-.2,1-.2,1.5-.2s1.1,0,1.5.2c2.2.7,3.8,2.7,3.8,5.1s-1.6,4.5-3.8,5.1Z"/>
    <polygon class="cls-2" points="170 17.6 163.9 14.1 163.9 21.1 170 17.6 163.9 14.1 163.9 21.1 170 17.6"/>
    <g>
      <path class="cls-1" d="M159.2,13.9c1.6,0,3-1.3,3-2.9s-1.4-3-3-3-2.9,1.3-2.9,3,1.3,2.9,2.9,2.9Z"/>
      <path class="cls-1" d="M159.3,21.2c-1.6,0-2.9,1.3-2.9,3s1.3,2.9,2.9,2.9,3-1.3,3-2.9-1.4-3-3-3Z"/>
    </g>
  </g>
</svg>