<svg xmlns="http://www.w3.org/2000/svg" version="1.0" viewBox="0 0 373 358"><path d="M122 34.6c-8.5 2.3-13.7 5.2-20.5 11.5-7 6.6-11.7 14.6-13.4 22.9-.9 3.9-1.2 41.8-1.4 133.8-.1 70.5 0 128.2.3 128.1.3 0 5.1-5.9 10.7-13.2 5.6-7.3 15.8-20.4 22.7-29.2l12.6-16V81h120v121h-62.8l-17.9 23.1c-9.8 12.7-17.9 23.5-18.1 24-.2.5 19.4.9 50.5.9 55.5 0 59.7-.4 69.5-5.7 10.7-5.8 18.5-15 23-26.9 2.2-5.8 2.3-6.5 2.6-71.3.2-42.7-.1-67.9-.8-72.5-2.1-14-11.3-27.7-23.2-34.4-10.9-6.1-11.8-6.2-83.4-6.1-53.8 0-65.8.3-70.4 1.5z"/><path d="M184.4 120.8c-9.2 4.4-14.8 15.5-12.4 25 2.7 10.9 10.6 17.3 21.2 17.4 7.5 0 10.4-1 15.2-5.3 5.9-5.1 7.9-10 7.4-17.9-.4-8-3.5-13.4-9.9-17.7-5.5-3.6-15.4-4.3-21.5-1.5z"/></svg>