<?xml version="1.0" ?>
<svg xmlns="http://www.w3.org/2000/svg" viewBox="0 0 744 261" fill="none">
	<g clip-path="url(#clip0_1395_49165)">
		<path d="M58.6996 8.43023C52.7896 3.31024 44.4196 0.740234 33.5796 0.740234H0.0996094V87.5602H12.0096V60.5202H33.5896C44.3396 60.5202 52.6896 57.8502 58.6396 52.5202C64.5896 47.1902 67.5696 39.6802 67.5696 30.0102C67.5696 20.3402 64.6096 13.5602 58.6996 8.43023ZM50.1996 44.8302C46.2296 48.1002 40.5296 49.7302 33.0796 49.7302H11.9996V11.6602L33.0796 11.5402C40.5196 11.5402 46.2296 13.1302 50.1996 16.3102C54.1696 19.4902 56.1496 24.1902 56.1496 30.3902C56.1496 36.5902 54.1696 41.5702 50.1996 44.8402" fill="#1E55A6"/>
		<path d="M121.29 26.1802L113.31 33.9202C113.73 34.1302 114.15 34.3602 114.57 34.6102C117.92 36.5902 120.52 39.3402 122.38 42.8602C124.24 46.3802 125.17 50.3602 125.17 54.8302C125.17 59.3002 124.24 63.4302 122.38 66.9902C120.52 70.5402 117.91 73.3002 114.57 75.2402C111.22 77.1802 107.44 78.1602 103.22 78.1602C99.0005 78.1602 95.1005 77.1902 91.7505 75.2402C88.4005 73.3002 85.8005 70.5502 83.9405 66.9902C82.0805 63.4402 81.1505 59.3802 81.1505 54.8302C81.1505 50.2802 82.0805 46.3802 83.9405 42.8602C85.8005 39.3502 88.4005 36.6002 91.7505 34.6102C92.1705 34.3602 92.5905 34.1302 93.0305 33.9102L85.3505 25.9902C80.4205 28.7902 76.5605 32.6302 73.7605 37.5202C70.9105 42.5202 69.4805 48.2502 69.4805 54.7002C69.4805 61.1502 70.9105 67.0002 73.7605 72.0002C76.6105 77.0002 80.5805 80.9102 85.6705 83.7202C90.7605 86.5302 96.6005 87.9402 103.22 87.9402C109.84 87.9402 115.56 86.5302 120.65 83.7202C125.73 80.9102 129.7 76.9802 132.56 71.9402C135.41 66.9002 136.84 61.1502 136.84 54.7002C136.84 48.2502 135.41 42.5302 132.56 37.5202C129.83 32.7302 126.07 28.9602 121.3 26.1802" fill="#1E55A6"/>
		<path d="M215.19 76.1502L196.95 21.9502H184.92L166.82 76.1502L148.46 21.9502H136.43L160.74 87.5602H172.77L190.88 35.9702L208.99 87.5602H221.02L245.2 21.9502H233.29L215.19 76.1502Z" fill="#1E55A6"/>
		<path d="M276.28 21.5801C269.91 21.5801 264.25 23.0101 259.29 25.8601C254.33 28.7101 250.46 32.6401 247.7 37.6401C244.93 42.6401 243.54 48.3701 243.54 54.8201C243.54 61.2701 244.92 67.0201 247.7 72.0601C250.47 77.1001 254.35 81.0101 259.36 83.7801C264.36 86.5501 270.09 87.9301 276.54 87.9301C282.08 87.9301 287.12 86.9801 291.67 85.0801C296.22 83.1801 300.1 80.4901 303.33 77.0201L297 70.4501C294.52 73.0101 291.61 75.0001 288.26 76.4001C284.91 77.8101 281.29 78.5101 277.41 78.5101C271.54 78.5101 266.6 76.7701 262.59 73.3001C258.58 69.8301 256.12 65.1601 255.21 59.2901H307.05C307.13 58.4601 307.17 57.2201 307.17 55.5701C307.17 44.9001 304.57 36.5801 299.36 30.5801C294.15 24.5901 286.46 21.5901 276.29 21.5901M255.08 50.3601C255.82 44.4901 258.12 39.8201 261.96 36.3501C265.81 32.8801 270.62 31.1401 276.41 31.1401C282.2 31.1401 287.16 32.8601 290.8 36.2901C294.44 39.7201 296.42 44.4101 296.75 50.3701H255.08V50.3601Z" fill="#1E55A6"/>
		<path d="M326.33 36.0901V21.9501H314.79V87.5601H326.33V52.9601C326.91 46.6801 329.26 41.6801 333.4 37.9501C337.53 34.2301 342.95 32.4901 349.65 32.7401V21.5801C344.19 21.6601 339.48 22.9301 335.51 25.3601C331.54 27.8001 328.48 31.3801 326.33 36.0901Z" fill="#1E55A6"/>
		<path d="M405.21 44.5898C401.61 42.8998 396.88 41.1798 391.01 39.4398C385.96 37.8698 382 36.4398 379.1 35.1598C376.21 33.8798 373.77 32.1198 371.78 29.8898C369.8 27.6598 368.8 24.7698 368.8 21.2098C368.8 17.1598 370.6 13.9598 374.19 11.5998C377.79 9.23977 382.56 8.06977 388.52 8.06977C392.24 8.06977 396.21 8.66977 400.43 9.86977C404.65 11.0698 408.53 12.7798 412.09 15.0198L415.81 7.69977C412.17 5.38977 407.97 3.52977 403.22 2.11977C398.46 0.719766 393.73 0.00976562 389.02 0.00976562C383.15 0.00976562 377.98 0.899766 373.52 2.67977C369.06 4.45977 365.58 6.99977 363.1 10.3098C360.62 13.6198 359.38 17.4598 359.38 21.8398C359.38 26.9698 360.62 31.1198 363.1 34.2998C365.58 37.4798 368.6 39.8798 372.15 41.4898C375.7 43.0998 380.42 44.8198 386.29 46.6398C391.5 48.2998 395.55 49.7398 398.45 50.9798C401.34 52.2198 403.78 53.9998 405.77 56.3098C407.76 58.6298 408.75 61.5998 408.75 65.2398C408.75 69.7898 406.81 73.4098 402.92 76.0898C399.03 78.7798 393.78 80.1198 387.17 80.1198C382.21 80.1198 377.16 79.0498 372.04 76.8998C366.91 74.7498 362.41 71.7798 358.52 67.9698L354.55 75.0398C358.68 79.0098 363.62 82.1898 369.37 84.5898C375.12 86.9898 381.01 88.1898 387.05 88.1898C393.09 88.1898 398.58 87.2198 403.3 85.2798C408.01 83.3398 411.67 80.5898 414.28 77.0298C416.88 73.4798 418.19 69.3798 418.19 64.7498C418.19 59.4598 416.93 55.1998 414.41 51.9698C411.89 48.7498 408.83 46.2898 405.23 44.5898" fill="#54575A"/>
		<path d="M446.03 80.2399C440.08 80.2399 437.1 76.2299 437.1 68.2099V30.8799H458.18V24.3099L437.1 24.4299V7.68994H428.79V24.4299H419.37L419.49 30.8799H428.79V69.5799C428.79 75.6999 430.24 80.2899 433.13 83.3499C436.02 86.4099 439.95 87.9399 444.91 87.9399C450.03 87.7699 454.83 86.1599 459.3 83.0999L456.82 76.7699C452.93 79.0899 449.34 80.2399 446.03 80.2399Z" fill="#54575A"/>
		<path d="M478.7 37.6998V22.5698H470.39V87.5598H478.7V52.8298C479.28 45.7998 481.65 40.2398 485.83 36.1498C490 32.0598 495.52 30.0498 502.39 30.1398V22.3198C496.77 22.3998 491.95 23.7498 487.94 26.3498C483.93 28.9498 480.85 32.7398 478.7 37.6998Z" fill="#54575A"/>
		<path d="M533.68 22.3198C527.56 22.3198 522.06 23.7098 517.18 26.4798C512.3 29.2498 508.48 33.1398 505.71 38.1398C502.94 43.1398 501.55 48.7898 501.55 55.0698C501.55 61.3498 502.93 67.0998 505.71 72.0598C508.48 77.0198 512.3 80.8898 517.18 83.6598C522.06 86.4298 527.64 87.8098 533.92 87.8098C539.21 87.8098 544.07 86.8798 548.49 85.0198C552.91 83.1598 556.69 80.5398 559.84 77.1398L555.13 72.4298C552.57 75.1598 549.51 77.2698 545.95 78.7598C542.39 80.2498 538.55 80.9898 534.42 80.9898C527.72 80.9898 522.1 78.8598 517.55 74.5998C513 70.3398 510.44 64.7398 509.86 57.7998H564.06C564.47 46.9698 562.03 38.3498 556.74 31.9398C551.45 25.5298 543.76 22.3298 533.67 22.3298M509.86 51.3498C510.52 44.6498 513.04 39.2798 517.43 35.2298C521.81 31.1798 527.27 29.1498 533.8 29.1498C540.33 29.1498 545.77 31.1598 549.86 35.1698C553.95 39.1798 556.2 44.5798 556.62 51.3498H509.86Z" fill="#54575A"/>
		<path d="M618.69 28.2201C614.39 24.2901 608.31 22.3301 600.46 22.3301C595.33 22.3301 590.79 23.0501 586.82 24.5001C582.85 25.9501 578.67 28.2001 574.29 31.2601L578.01 36.9701C585.04 31.7601 592.03 29.1501 598.97 29.1501C604.84 29.1501 609.31 30.5601 612.37 33.3701C615.43 36.1801 616.96 40.1501 616.96 45.2801V50.2401H595.13C587.52 50.2401 581.55 51.8501 577.21 55.0801C572.87 58.3001 570.7 62.7301 570.7 68.3501C570.7 72.0701 571.61 75.4201 573.43 78.4001C575.25 81.3801 577.83 83.7101 581.18 85.4101C584.53 87.1101 588.39 87.9501 592.78 87.9501C598.15 87.9501 602.91 87.0201 607.04 85.1601C611.17 83.3001 614.52 80.4701 617.09 76.6701L617.21 87.5801H625.39L625.27 44.5401C625.19 37.5901 622.99 32.1601 618.7 28.2301M617.09 65.6201C615.68 70.5001 612.98 74.2801 608.97 76.9701C604.96 79.6601 600.06 81.0001 594.27 81.0001C589.56 81.0001 585.77 79.8201 582.92 77.4701C580.07 75.1101 578.64 71.9901 578.64 68.1101C578.64 64.2301 580.13 61.4601 583.11 59.5501C586.08 57.6501 590.43 56.7001 596.13 56.7001H617.09V65.6301V65.6201Z" fill="#54575A"/>
		<path d="M737.219 29.0201C732.919 24.5601 726.93 22.3201 719.24 22.3201C712.79 22.4001 707.35 23.8901 702.93 26.7801C698.51 29.6801 695.3 34.0201 693.32 39.8001C692 34.2601 689.29 29.9601 685.2 26.9001C681.11 23.8401 675.96 22.3101 669.76 22.3101C663.64 22.3901 658.45 23.7201 654.19 26.2801C649.93 28.8401 646.73 32.6901 644.58 37.8101V22.5501H636.27V87.5401H644.58V55.5401C644.58 47.9301 646.56 41.8101 650.53 37.1801C654.5 32.5501 659.96 30.1501 666.9 29.9901C672.77 29.9901 677.379 31.7101 680.729 35.1401C684.079 38.5701 685.75 43.3901 685.75 49.5901V87.5401H694.18V55.5401C694.18 47.9301 696.14 41.8101 700.07 37.1801C704 32.5501 709.43 30.1501 716.38 29.9901C722.25 29.9901 726.86 31.7101 730.21 35.1401C733.56 38.5701 735.229 43.3901 735.229 49.5901V87.5401H743.659V47.6001C743.659 39.6601 741.51 33.4601 737.21 29.0001" fill="#54575A"/>
		<path d="M109.04 20.6602H97.1699V47.6602H109.04V20.6602Z" fill="#1E55A6"/>
		<path d="M33.4696 113.74V118.99H6.22957V137.66H25.5996V142.91H6.22957V164.2H35.0096V169.45H0.0595703V113.74H33.4696Z" fill="#1E55A6"/>
		<path d="M47.4401 129.33V134.73H47.5901C50.7501 131.18 54.9201 128.56 59.4701 128.56C65.4101 128.56 71.0401 131.65 71.0401 140.29V169.45H65.4801V140.44C65.4801 135.12 62.9301 133.34 58.9201 133.34C54.9101 133.34 49.9701 136.73 47.4201 139.43V169.44H41.8701V129.32H47.4201L47.4401 129.33Z" fill="#1E55A6"/>
		<path d="M111.56 160.88C108.94 165.43 105.23 170.22 96.1304 170.22C87.0304 170.22 78.6904 164.05 78.6904 149.39C78.6904 136.43 85.1704 128.56 95.0504 128.56C103.38 128.56 110.33 133.96 110.33 146.77V150.48H84.2504C84.2504 159.27 89.5004 165.45 96.1304 165.45C101.07 165.45 104.93 162.83 107.24 158.66L111.56 160.9V160.88ZM104.77 145.68C104.77 138.28 101.22 133.34 95.2004 133.34C88.4904 133.34 84.8604 138.28 84.4004 145.68H104.77Z" fill="#1E55A6"/>
		<path d="M118.81 129.33H124.37V137.28H124.52C127.61 131.8 130.92 128.72 137.56 128.72V134.28C130.62 134.43 126.99 138.98 124.37 147.24V169.46H118.81V129.34V129.33Z" fill="#1E55A6"/>
		<path d="M175.37 133.34C173.06 133.34 170.59 133.72 169.2 134.42C170.36 135.81 171.98 138.89 171.98 142.6C171.98 150.55 165.42 156.64 157.32 156.64C154.08 156.64 152.38 156.18 150.22 155.56C148.06 156.18 147.06 157.49 147.06 159.26C147.06 161.03 148.37 162.19 150.38 162.19C169.36 162.19 175.46 165.58 175.46 173.45C175.46 179.31 169.67 184.25 157.17 184.25C145.91 184.25 139.89 181.16 139.89 174.53C139.89 170.52 142.36 168.59 146.68 166.35C143.59 165.43 141.66 163.03 141.66 160.64C141.66 157.17 143.97 155.7 147.06 153.77C143.28 150.92 141.58 146.98 141.58 142.58C141.58 134.09 148.22 128.54 156.78 128.54C161.1 128.54 164.11 129.47 166.74 131.32C169.13 129.62 172.37 128.08 175.38 127.77V133.33L175.37 133.34ZM156.31 167.75C147.59 167.75 145.12 171.61 145.12 174.46C145.12 177.47 146.97 179.47 158.08 179.47C164.71 179.47 170.12 177.62 170.19 173.68C170.11 169.75 166.1 167.74 156.3 167.74M156.53 133.33C150.2 133.33 146.81 137.34 146.81 142.59C146.81 147.84 150.98 151.85 157.15 151.85C163.32 151.85 166.72 147.68 166.72 142.9C166.72 137.04 163.32 133.33 156.54 133.33" fill="#1E55A6"/>
		<path d="M212.26 129.33L198.14 173C195.21 181.95 189.88 184.26 184.64 184.26C182.79 184.26 181.71 183.95 180.63 183.8V179.25C181.4 179.33 182.41 179.48 183.64 179.48C187.03 179.48 192.2 178.71 194.13 169.91L180.17 129.33H186.03L196.83 159.96H196.98L206.39 129.33H212.25H212.26Z" fill="#1E55A6"/>
		<path d="M257.7 127.94C256.31 122.54 251.91 118.22 244.74 118.22C238.26 118.22 234.4 121.31 234.33 126.86C234.18 139.05 265.65 135.96 265.65 153.86C265.65 161.96 261.1 170.22 246.9 170.22C234.71 170.22 229.93 162.35 227 155.71L232.63 153.71C234.87 159.57 239.04 164.97 247.21 164.97C255.38 164.97 259.48 160.65 259.48 154.94C259.48 140.74 228.16 144.91 228.16 127.32C228.16 119.3 234.87 112.97 244.9 112.97C253.54 112.97 260.33 117.52 263.26 126.7L257.7 127.93V127.94Z" fill="#1E55A6"/>
		<path d="M303.92 160.88C301.3 165.43 297.59 170.22 288.49 170.22C279.39 170.22 271.05 164.05 271.05 149.39C271.05 136.43 277.53 128.56 287.41 128.56C295.74 128.56 302.69 133.96 302.69 146.77V150.48H276.61C276.61 159.27 281.86 165.45 288.49 165.45C293.43 165.45 297.29 162.83 299.6 158.66L303.92 160.9V160.88ZM297.13 145.68C297.13 138.28 293.58 133.34 287.56 133.34C280.85 133.34 277.22 138.28 276.76 145.68H297.13Z" fill="#1E55A6"/>
		<path d="M311.18 129.33H316.73V137.28H316.89C319.97 131.8 323.29 128.72 329.93 128.72V134.28C322.98 134.43 319.36 138.98 316.74 147.24V169.46H311.19V129.34L311.18 129.33Z" fill="#1E55A6"/>
		<path d="M356.32 169.45H348.92L336.57 129.33H342.2L352.39 162.5H352.54L362.73 129.33H368.36L356.32 169.45Z" fill="#1E55A6"/>
		<path d="M380.78 119.61H375.22V112.97H380.78V119.61ZM375.22 129.33H380.78V169.45H375.22V129.33Z" fill="#1E55A6"/>
		<path d="M413.88 141.29C412.34 136.43 409.17 133.35 404.39 133.35C397.52 133.35 393.51 139.21 393.51 149.4C393.51 159.59 397.52 165.45 404.39 165.45C409.48 165.45 412.34 163.75 415.42 158.04L419.89 160.05C415.88 166.84 412.33 170.23 404.38 170.23C394.35 170.23 387.95 162.36 387.95 149.4C387.95 136.44 394.35 128.57 404.38 128.57C412.63 128.57 416.49 133.2 419.04 139.45L413.87 141.3L413.88 141.29Z" fill="#1E55A6"/>
		<path d="M457.09 160.88C454.47 165.43 450.76 170.22 441.66 170.22C432.56 170.22 424.22 164.05 424.22 149.39C424.22 136.43 430.7 128.56 440.58 128.56C448.91 128.56 455.86 133.96 455.86 146.77V150.48H429.78C429.78 159.27 435.03 165.45 441.66 165.45C446.6 165.45 450.46 162.83 452.77 158.66L457.09 160.9V160.88ZM450.3 145.68C450.3 138.28 446.75 133.34 440.73 133.34C434.02 133.34 430.39 138.28 429.93 145.68H450.3Z" fill="#1E55A6"/>
		<path d="M465.2 159.26C467.82 163.04 471.68 165.43 476.7 165.43C482.72 165.43 485.34 162.19 485.34 158.79C485.34 148.61 461.58 154.01 462.04 139.35C462.27 132.4 467.6 128.47 475.31 128.55C480.55 128.63 486.34 131.48 489.04 135.57L485.18 138.96C482.09 135.18 479.16 133.33 474.84 133.33C470.13 133.33 467.59 135.72 467.59 139.27C467.59 147.99 490.89 143.51 490.89 158.48C490.89 166.27 484.1 170.21 476.85 170.21C470.6 170.21 464.51 167.51 460.8 162.57L465.2 159.25V159.26Z" fill="#1E55A6"/>
		<path d="M0.0302734 251.48V219.1H11.3303C18.2403 219.1 21.2403 223.05 21.2403 228.16C21.2403 233.54 17.5203 237.04 9.35027 237.04H3.62027V251.48H0.0302734ZM3.62027 233.99H9.72027C15.6903 233.99 17.6603 231.93 17.6603 228.07C17.6603 224.21 15.3703 222.15 10.5303 222.15H3.62027V233.99Z" fill="#54575A"/>
		<path d="M25.0898 228.16H28.3198V232.78H28.4098C30.1998 229.6 32.1298 227.8 35.9898 227.8V231.03C31.9498 231.12 29.8498 233.77 28.3198 238.57V251.49H25.0898V228.17V228.16Z" fill="#54575A"/>
		<path d="M46.9104 251.93C40.5404 251.93 37.3604 246.55 37.3604 239.82C37.3604 233.09 40.5404 227.71 46.9104 227.71C53.2804 227.71 56.4604 233.09 56.4604 239.82C56.4604 246.55 53.2804 251.93 46.9104 251.93ZM46.9104 230.49C43.0504 230.49 40.5904 233.81 40.5904 239.82C40.5904 245.83 43.0604 249.15 46.9104 249.15C50.7604 249.15 53.2304 245.83 53.2304 239.82C53.2304 233.81 50.7604 230.49 46.9104 230.49Z" fill="#54575A"/>
		<path d="M68.9898 251.48H64.6798L57.5098 228.16H60.7798L66.6998 247.44H66.7898L72.7098 228.16H75.9798L68.9898 251.48Z" fill="#54575A"/>
		<path d="M82.98 222.51H79.75V218.65H82.98V222.51ZM79.75 228.16H82.98V251.48H79.75V228.16Z" fill="#54575A"/>
		<path d="M106.82 219.1V246.37C106.82 248.08 106.73 249.78 107 251.48H104.04L103.59 249.19C102.51 250.67 100.23 251.93 97.4504 251.93C93.3204 251.93 87.9004 249.15 87.9004 239.82C87.9004 230.49 93.3304 227.71 97.2704 227.71C99.4704 227.71 101.62 228.83 103.41 230.31L103.59 230.4V219.1H106.82ZM103.59 233.72C101.84 231.79 99.6404 230.49 97.7104 230.49C93.9404 230.49 91.1204 232.96 91.1204 240C91.1204 245.92 93.6804 249.15 97.7104 249.15C99.7704 249.15 101.3 248.25 103.59 246.01V233.72Z" fill="#54575A"/>
		<path d="M130.32 246.5C128.79 249.14 126.64 251.93 121.35 251.93C116.06 251.93 111.21 248.34 111.21 239.82C111.21 232.28 114.98 227.71 120.72 227.71C125.56 227.71 129.6 230.85 129.6 238.3V240.45H114.44C114.44 245.56 117.49 249.15 121.35 249.15C124.22 249.15 126.46 247.63 127.81 245.2L130.32 246.5ZM126.37 237.66C126.37 233.35 124.31 230.48 120.81 230.48C116.91 230.48 114.8 233.35 114.53 237.66H126.37Z" fill="#54575A"/>
		<path d="M151.82 219.1V246.37C151.82 248.08 151.73 249.78 152 251.48H149.04L148.59 249.19C147.51 250.67 145.23 251.93 142.45 251.93C138.32 251.93 132.9 249.15 132.9 239.82C132.9 230.49 138.33 227.71 142.27 227.71C144.47 227.71 146.62 228.83 148.41 230.31L148.59 230.4V219.1H151.82ZM148.59 233.72C146.84 231.79 144.64 230.49 142.71 230.49C138.94 230.49 136.12 232.96 136.12 240C136.12 245.92 138.68 249.15 142.71 249.15C144.77 249.15 146.3 248.25 148.59 246.01V233.72Z" fill="#54575A"/>
		<path d="M175.72 219.1V230.4L175.9 230.31C177.69 228.83 179.85 227.71 182.05 227.71C186 227.71 191.42 230.76 191.42 239.82C191.42 248.88 186 251.93 181.87 251.93C179.09 251.93 177.03 250.76 175.14 249.01L174.56 251.48H172.32C172.59 249.78 172.5 248.07 172.5 246.37V219.1H175.73H175.72ZM175.72 246.01C178.01 248.25 179.53 249.15 181.6 249.15C185.64 249.15 188.19 245.92 188.19 240C188.19 232.96 185.36 230.49 181.6 230.49C179.67 230.49 177.47 231.79 175.72 233.72V246.01Z" fill="#54575A"/>
		<path d="M211.14 228.16L202.93 253.54C201.23 258.74 198.13 260.09 195.08 260.09C194 260.09 193.38 259.91 192.75 259.82V257.17C193.2 257.21 193.78 257.31 194.5 257.31C196.47 257.31 199.48 256.86 200.6 251.75L192.48 228.16H195.89L202.17 245.97H202.26L207.73 228.16H211.14Z" fill="#54575A"/>
		<path d="M234.54 219.06H242.25L251.45 251.48H245.3L243.51 244.48H233.28L231.35 251.48H225.21L234.54 219.06ZM234.63 239.38H242.16L238.53 225.3H238.44L234.63 239.38Z" fill="#54575A"/>
		<path d="M259.7 219.1H254.14V251.48H259.7V219.1Z" fill="#54575A"/>
		<path d="M268.53 240.72C268.62 245.56 270.77 247.45 273.37 247.45C275.97 247.45 277.18 246.28 278.57 244.67L282.61 247.18C280.46 250.5 277.32 251.94 272.83 251.94C266.78 251.94 262.96 247.23 262.96 239.83C262.96 232.43 266.77 227.72 273.1 227.72C279.2 227.68 282.61 232.83 282.61 238.44V240.73H268.53V240.72ZM277.5 236.95C277.41 233.72 275.71 231.84 273.01 231.84C270.31 231.84 268.62 233.72 268.53 236.95H277.5Z" fill="#54575A"/>
		<path d="M299.25 235.74C298.35 233.77 297.36 232.2 294.67 232.2C291.58 232.2 290.1 234.62 290.1 239.82C290.1 245.02 291.58 247.44 294.85 247.44C297.27 247.44 298.66 245.78 299.78 243.72L304 246.1C301.76 250.27 298.93 251.97 294.67 251.93C288.35 251.93 284.53 247.22 284.53 239.82C284.53 232.42 288.34 227.71 294.67 227.71C299.07 227.71 302.56 230.05 303.87 233.95L299.25 235.74Z" fill="#54575A"/>
		<path d="M308.77 228.16V220.45H314.33V228.16H318.9V232.65H314.33V245.84C314.33 247.09 314.96 247.45 316.35 247.45C317.2 247.45 318.1 247.18 318.9 247V251.58C317.38 251.76 316.03 251.94 314.51 251.94C310.38 251.94 308.77 249.88 308.77 246.56V232.66H305.54V228.17H308.77V228.16Z" fill="#54575A"/>
		<path d="M321.45 251.48V228.16H326.56V232.15H326.65C328 229.37 329.88 227.8 333.2 227.71V233.59C332.93 233.54 332.62 233.54 332.21 233.54C329.43 233.54 327.01 236.72 327.01 237.31V251.48H321.45Z" fill="#54575A"/>
		<path d="M347.77 251.48L347.41 249.46C345.17 250.99 343.06 251.93 340.14 251.93C335.93 251.93 333.82 248.92 333.82 245.74C333.82 240.45 338.12 237.67 347.19 236.59V234.62C347.19 232.83 345.75 231.84 343.78 231.84C341.18 231.84 339.74 233.23 338.67 234.71L335.08 231.97C336.51 229.5 340.37 227.62 343.78 227.71C350.06 227.85 352.75 230.13 352.75 237.13V248.12C352.75 249.28 352.84 250.45 353.2 251.48H347.78H347.77ZM347.19 240.31C343.47 241.03 339.38 241.79 339.38 245.07C339.38 246.82 340.5 247.8 342.07 247.8C343.82 247.8 346.02 246.32 347.18 245.33V240.31H347.19Z" fill="#54575A"/>
		<path d="M371.98 251.48V219.1H393.41V224.3H378.17V232.02H389.25V237.22H378.17V246.28H393.91V251.48H371.98Z" fill="#54575A"/>
		<path d="M396.87 251.48V228.16H401.98V230.67C404.04 229.24 406.42 227.71 409.16 227.71C413.82 227.71 416.06 230.76 416.06 235.52V251.49H410.5V236.33C410.5 233.19 409.52 232.21 407.63 232.21C405.21 232.21 403.37 233.6 402.43 234.68V251.5H396.87V251.48Z" fill="#54575A"/>
		<path d="M424.54 240.72C424.63 245.56 426.78 247.45 429.38 247.45C431.98 247.45 433.19 246.28 434.58 244.67L438.62 247.18C436.47 250.5 433.33 251.94 428.84 251.94C422.79 251.94 418.97 247.23 418.97 239.83C418.97 232.43 422.78 227.72 429.1 227.72C435.2 227.68 438.61 232.83 438.61 238.44V240.73H424.53L424.54 240.72ZM433.51 236.95C433.42 233.72 431.72 231.84 429.02 231.84C426.32 231.84 424.62 233.72 424.54 236.95H433.51Z" fill="#54575A"/>
		<path d="M441.75 251.48V228.16H446.86V232.15H446.95C448.29 229.37 450.18 227.8 453.5 227.71V233.59C453.23 233.54 452.92 233.54 452.52 233.54C449.74 233.54 447.32 236.72 447.32 237.31V251.48H441.76H441.75Z" fill="#54575A"/>
		<path d="M475.4 231.48C474.1 231.48 472.67 231.48 471.81 232.02C472.53 233.01 473.07 234.36 473.07 236.15C473.07 240.54 470.11 243.68 464.28 243.68C461.86 243.68 459.93 243.77 459.93 245.11C459.93 248.87 475.27 243.76 475.27 253.09C475.27 256.41 471.91 260 464.46 260C458.18 260 454.05 258.12 454.05 254.44C454.05 251.52 456.25 250.13 458.27 250.13V250.04C457.19 249.37 454.82 248.78 454.82 246.27C454.82 244.03 457.42 242.32 458.45 242.01C456.52 240.44 455 238.65 455 235.82C455 231.74 458.14 227.7 464.19 227.7C466.16 227.7 468.5 228.51 469.93 229.76C471.01 228.33 472.76 227.61 475.4 227.7V231.47V231.48ZM459.17 253.72C459.17 255.51 460.69 256.32 465.36 256.32C468.95 256.32 470.16 254.53 470.16 253.72C470.16 252.64 468.5 251.03 463.12 251.03C460.07 251.03 459.17 252.74 459.17 253.72ZM464.15 231.83C461.77 231.83 460.11 233.53 460.11 235.69C460.11 237.85 461.77 239.55 464.15 239.55C466.26 239.55 467.96 237.85 467.96 235.69C467.96 233.53 466.25 231.83 464.15 231.83Z" fill="#54575A"/>
		<path d="M476.45 255.25C477.3 255.43 477.98 255.43 478.78 255.43C480.71 255.43 481.79 254.89 482.46 253.59C483 252.47 483.36 251.8 483.36 250.86C483.36 250.01 482.91 249.02 482.64 248.08L476.41 228.17H482.01L485.87 242.52H485.96L489.95 228.17H495.51L488.16 251.54C485.69 258.22 483.72 260.02 479.14 260.02C477.8 260.02 477.12 259.93 476.45 259.84V255.26V255.25Z" fill="#54575A"/>
		<path d="M527.48 227.71C526.54 225.2 524.61 223.5 521.69 223.5C519 223.5 517.07 224.58 517.07 227.09C517.07 232.65 533.75 231.49 533.75 241.98C533.75 248.62 529.58 251.94 522.4 251.94C517.11 251.94 512.13 248.98 510.29 244.27L515.4 242.03C516.88 245.08 518.81 247.1 522.44 247.1C525.53 247.1 527.91 245.94 527.91 242.79C527.91 236.42 511.23 237.68 511.23 227.72C511.23 221.94 516.07 218.66 521.68 218.66C526.88 218.66 531.19 221.26 533.12 225.97L527.47 227.72L527.48 227.71Z" fill="#54575A"/>
		<path d="M541.68 240.72C541.77 245.56 543.92 247.45 546.52 247.45C549.12 247.45 550.33 246.28 551.72 244.67L555.76 247.18C553.61 250.5 550.47 251.94 545.98 251.94C539.93 251.94 536.11 247.23 536.11 239.83C536.11 232.43 539.92 227.72 546.25 227.72C552.35 227.68 555.76 232.83 555.76 238.44V240.73H541.68V240.72ZM550.65 236.95C550.56 233.72 548.86 231.84 546.16 231.84C543.46 231.84 541.77 233.72 541.68 236.95H550.65Z" fill="#54575A"/>
		<path d="M558.88 251.48V228.16H563.99V232.15H564.08C565.43 229.37 567.31 227.8 570.63 227.71V233.59C570.36 233.54 570.05 233.54 569.64 233.54C566.86 233.54 564.44 236.72 564.44 237.31V251.48H558.88Z" fill="#54575A"/>
		<path d="M571.72 228.16H577.28L581.13 243.95H581.22L585.17 228.16H590.73L584.05 251.48H578.22L571.72 228.16Z" fill="#54575A"/>
		<path d="M593.21 218.65H598.77V223.85H593.21V218.65ZM598.77 251.48H593.21V228.16H598.77V251.48Z" fill="#54575A"/>
		<path d="M616.75 235.74C615.85 233.77 614.87 232.2 612.18 232.2C609.08 232.2 607.6 234.62 607.6 239.82C607.6 245.02 609.08 247.44 612.36 247.44C614.78 247.44 616.17 245.78 617.29 243.72L621.51 246.1C619.27 250.27 616.44 251.97 612.18 251.93C605.86 251.93 602.04 247.22 602.04 239.82C602.04 232.42 605.85 227.71 612.18 227.71C616.57 227.71 620.07 230.05 621.37 233.95L616.75 235.74Z" fill="#54575A"/>
		<path d="M628.67 240.72C628.76 245.56 630.91 247.45 633.51 247.45C636.11 247.45 637.32 246.28 638.71 244.67L642.75 247.18C640.6 250.5 637.46 251.94 632.97 251.94C626.92 251.94 623.1 247.23 623.1 239.83C623.1 232.43 626.91 227.72 633.24 227.72C639.34 227.68 642.75 232.83 642.75 238.44V240.73H628.67V240.72ZM637.64 236.95C637.55 233.72 635.85 231.84 633.15 231.84C630.45 231.84 628.76 233.72 628.67 236.95H637.64Z" fill="#54575A"/>
		<path d="M657.86 234.3C656.74 233.09 655.26 231.83 653.51 231.83C651.36 231.83 650.37 232.72 650.37 234.12C650.37 238.11 662.03 236.41 662.03 244.93C662.03 249.78 658.35 251.93 653.46 251.93C649.74 251.93 646.69 250.27 644.62 247.22L648.34 244.44C649.64 246.23 651.39 247.8 653.77 247.8C655.74 247.8 657.09 246.72 657.09 245.15C657.09 241.16 645.43 242.6 645.43 234.48C645.43 230.13 649.11 227.71 653.14 227.71C656.23 227.71 659.33 228.88 661.35 231.25L657.85 234.3H657.86Z" fill="#54575A"/>
		<path d="M686.87 219.1H680.68V251.48H686.87V219.1Z" fill="#54575A"/>
		<path d="M692.17 251.48V228.16H697.28V230.67C699.34 229.24 701.72 227.71 704.46 227.71C709.12 227.71 711.37 230.76 711.37 235.52V251.49H705.81V236.33C705.81 233.19 704.83 232.21 702.94 232.21C700.52 232.21 698.68 233.6 697.74 234.68V251.5H692.18L692.17 251.48Z" fill="#54575A"/>
		<path d="M729 235.74C728.1 233.77 727.109 232.2 724.419 232.2C721.329 232.2 719.849 234.62 719.849 239.82C719.849 245.02 721.329 247.44 724.599 247.44C727.019 247.44 728.41 245.78 729.53 243.72L733.74 246.1C731.5 250.27 728.669 251.97 724.409 251.93C718.089 251.93 714.27 247.22 714.27 239.82C714.27 232.42 718.079 227.71 724.409 227.71C728.809 227.71 732.299 230.05 733.599 233.95L728.979 235.74H729Z" fill="#54575A"/>
		<path d="M743.71 245.11H737.52V251.48H743.71V245.11Z" fill="#54575A"/>
		<path d="M743.74 199.01H0V200.4H743.74V199.01Z" fill="#54575A"/>
	</g>
	<defs>
		<clipPath id="clip0_1395_49165">
			<rect width="743.74" height="260.09" fill="white"/>
		</clipPath>
	</defs>
</svg>