<?xml version="1.0" ?>
<svg xmlns="http://www.w3.org/2000/svg" viewBox="0 0 256 256" fill="none">
	

	<path d="M0.338379 127.824C0.338379 57.3017 57.4876 0.209183 127.84 0.209183C198.193 0.209183 255.342 57.3017 255.342 127.824C255.342 198.121 198.193 255.213 127.84 255.213C57.4876 255.213 0.338379 198.121 0.338379 127.824Z" fill="url(#paint0_linear_334_9601)"/>
	

	<path fill-rule="evenodd" clip-rule="evenodd" d="M97.3245 101.332C111.973 101.474 123.873 89.6022 124.015 74.812C124.015 58.3501 109.366 47.3849 97.4662 48.4616C83.8943 47.3849 70.9174 59.8801 70.7757 74.3586C70.6341 88.3839 81.9109 101.332 97.3245 101.332ZM179.379 74.982C179.237 83.0571 172.805 88.2422 165.807 88.2422C158.327 88.2422 152.376 81.8388 152.376 74.8403C152.518 67.5302 158.468 61.4384 165.807 61.4384C173.598 61.4101 179.379 67.3602 179.379 74.982ZM165.949 161.995C176.489 161.825 184.876 153.438 184.876 142.785C184.876 132.273 176.348 123.744 165.807 123.744C155.267 123.744 146.739 132.443 146.739 142.955C146.739 153.466 155.437 161.995 165.949 161.995ZM106.476 142.785C106.476 147.658 102.509 151.766 97.7777 151.766C93.046 151.766 88.7676 147.488 88.7676 142.926C88.6259 138.365 92.876 133.945 97.6077 134.086C102.509 133.945 106.476 137.911 106.476 142.785ZM113.022 203.136C113.022 211.522 106.165 218.379 97.608 218.379C89.2212 218.379 82.3644 211.522 82.3644 203.136C82.2227 194.749 89.2212 187.75 97.608 187.75C106.165 187.75 113.022 194.607 113.022 203.136Z" fill="white"/>
	

	<linearGradient id="paint0_linear_334_9601" x1="127.845" y1="0.202666" x2="127.845" y2="255.207" gradientUnits="userSpaceOnUse">
		

		<stop stop-color="#F15922"/>
		

		<stop offset="1" stop-color="#F26922"/>
		

	</linearGradient>
	

</svg>
