<?xml version="1.0" ?>
<!-- Generator: Adobe Illustrator 27.3.1, SVG Export Plug-In . SVG Version: 6.00 Build 0)  -->
<svg xmlns="http://www.w3.org/2000/svg" version="1.2" baseProfile="tiny" id="Layer_1" x="0px" y="0px" viewBox="0 0 600 600" overflow="visible" xml:space="preserve">
	<g>
		<g>
			<path fill="#DCDDDE" d="M600,300c0,165.4-134.6,300-300,300S0,465.4,0,300S134.6,0,300,0C465.4,0,600,134.6,600,300"/>
			<path fill="none" stroke="#FFFFFF" stroke-width="2.3881" stroke-miterlimit="10" d="M600,300c0,165.4-134.6,300-300,300    S0,465.4,0,300S134.6,0,300,0C465.4,0,600,134.6,600,300z"/>
		</g>
		<g>
			<path fill="#FFFFFF" d="M534.9,306.5c0,129.7-105.2,234.9-234.9,234.9S65.1,436.3,65.1,306.5C65.1,176.8,170.3,71.7,300,71.7    S534.9,176.8,534.9,306.5"/>
		</g>
		<g>
			<path fill="#F37321" d="M317,378.5c-4.3-2.8-7-6.4-8.1-10.7c-0.7-2.4-0.8-5-0.4-7.7l20.5-113c1.1-6.2,4.8-11.5,11.1-15.9    c6.2-4.4,13.2-6.7,21-6.7h81.4c-28.3-49.3-81.5-82.5-142.4-82.5S186,175.2,157.7,224.5H286c5.9,0,11,1.4,15.3,4.2    c4.3,2.8,7,6.4,8.1,10.7c0.6,2.4,0.7,5,0.1,7.7l-7.2,40.7c-1.1,6.1-4.8,11.4-11.1,15.8s-13.2,6.6-21,6.6h-97.3L160,382.7h-5.1    c27.5,52.1,82.2,87.6,145.2,87.6s117.7-35.5,145.2-87.6H332.3C326.3,382.7,321.3,381.3,317,378.5"/>
			<path fill="none" stroke="#F37321" stroke-width="0.3865" d="M317,378.5c-4.3-2.8-7-6.4-8.1-10.7c-0.7-2.4-0.8-5-0.4-7.7l20.5-113    c1.1-6.2,4.8-11.5,11.1-15.9c6.2-4.4,13.2-6.7,21-6.7h81.4c-28.3-49.3-81.5-82.5-142.4-82.5S186,175.2,157.7,224.5H286    c5.9,0,11,1.4,15.3,4.2c4.3,2.8,7,6.4,8.1,10.7c0.6,2.4,0.7,5,0.1,7.7l-7.2,40.7c-1.1,6.1-4.8,11.4-11.1,15.8s-13.2,6.6-21,6.6    h-97.3L160,382.7h-5.1c27.5,52.1,82.2,87.6,145.2,87.6s117.7-35.5,145.2-87.6H332.3C326.3,382.7,321.3,381.3,317,378.5z"/>
		</g>
		<polygon fill="#F37321" points="266.2,255.9 182.9,255.9 178.6,278.7 261.9,278.7  "/>
		<polygon fill="none" stroke="#F37321" stroke-width="0.3865" points="266.2,255.9 182.9,255.9 178.6,278.7 261.9,278.7  "/>
		<g>
			<path fill="#F37321" d="M351.8,351.3h106c4.1-14.4,6.3-29.5,6.3-45.1c0-17.5-2.8-34.4-7.9-50.2H369L351.8,351.3z"/>
			<path fill="none" stroke="#F37321" stroke-width="0.3865" d="M351.8,351.3h106c4.1-14.4,6.3-29.5,6.3-45.1    c0-17.5-2.8-34.4-7.9-50.2H369L351.8,351.3z"/>
			<path fill="#FFFFFF" d="M182.9,255.9h83.3l-4.3,22.8h-83.3L182.9,255.9z M172.8,310.1h97.3c7.8,0,14.8-2.2,21-6.6    c6.2-4.4,9.9-9.7,11.1-15.8l7.2-40.7c0.6-2.7,0.5-5.3-0.1-7.7c-1.2-4.4-3.9-8-8.1-10.7c-4.3-2.8-9.3-4.2-15.3-4.2H157.6    c-13.8,24-21.8,51.9-21.8,81.6c0,27.7,6.9,53.7,18.9,76.6h5.1L172.8,310.1z"/>
			<path fill="none" stroke="#FFFFFF" stroke-width="0.3865" d="M182.9,255.9h83.3l-4.3,22.8h-83.3L182.9,255.9z M172.8,310.1h97.3    c7.8,0,14.8-2.2,21-6.6c6.2-4.4,9.9-9.7,11.1-15.8l7.2-40.7c0.6-2.7,0.5-5.3-0.1-7.7c-1.2-4.4-3.9-8-8.1-10.7    c-4.3-2.8-9.3-4.2-15.3-4.2H157.6c-13.8,24-21.8,51.9-21.8,81.6c0,27.7,6.9,53.7,18.9,76.6h5.1L172.8,310.1z"/>
			<path fill="#FFFFFF" d="M361,224.5c-7.8,0-14.8,2.2-21,6.7c-6.2,4.4-9.9,9.8-11.1,15.9l-20.5,113c-0.4,2.7-0.3,5.3,0.4,7.7    c1.2,4.4,3.9,8,8.1,10.7c4.3,2.8,9.3,4.2,15.3,4.2h112.9c5.2-9.9,9.5-20.4,12.6-31.4h-106L369,256h87.3    c-3.5-11-8.2-21.5-13.9-31.4L361,224.5L361,224.5z"/>
			<path fill="none" stroke="#FFFFFF" stroke-width="0.3865" d="M361,224.5c-7.8,0-14.8,2.2-21,6.7c-6.2,4.4-9.9,9.8-11.1,15.9    l-20.5,113c-0.4,2.7-0.3,5.3,0.4,7.7c1.2,4.4,3.9,8,8.1,10.7c4.3,2.8,9.3,4.2,15.3,4.2h112.9c5.2-9.9,9.5-20.4,12.6-31.4h-106    L369,256h87.3c-3.5-11-8.2-21.5-13.9-31.4L361,224.5L361,224.5z"/>
		</g>
	</g>
</svg>