<?xml version="1.0" ?>
<svg xmlns="http://www.w3.org/2000/svg" viewBox="0 0 694 150" fill="none">
	<path d="M140.478 145.777V131.468H193.604V145.777H140.478Z" fill="black"/>
	<path d="M612.868 131.468V145.777H561.178V131.468H612.868Z" fill="black"/>
	<path d="M193.604 67.0797V82.5806H140.478V67.0797H193.604Z" fill="black"/>
	<path d="M561.178 112.39V96.8892H612.868V112.39H561.178Z" fill="black"/>
	<path d="M353.051 145.635V130.708C363.65 130.708 374.137 130.736 384.62 130.708C393.673 130.675 398.533 124.882 394.564 118.218C393.79 117.179 392.764 116.287 391.553 115.599C390.342 114.911 388.972 114.443 387.532 114.223C381.898 113.765 376.228 113.716 370.585 114.075C367.635 114.305 364.673 113.757 362.114 112.509C359.556 111.26 357.529 109.374 356.317 107.114C353.274 102.288 351.64 96.9284 351.549 91.4734C351.458 86.0184 352.912 80.6227 355.792 75.7272C357.196 72.9758 359.6 70.664 362.665 69.1204C365.731 67.5768 369.3 66.88 372.866 67.129C385.345 67.3046 397.83 67.1744 410.674 67.1744V82.6486C399.206 82.6486 387.952 82.9331 376.733 82.5487C369.252 82.2945 367.876 86.0231 367.905 90.5022C367.93 94.9057 369.115 99.0822 376.596 98.604C380.51 98.3558 384.465 98.5525 388.401 98.5647C400.818 98.5979 407.05 102.266 410.095 112.111C413.294 121.302 412.089 131.172 406.735 139.633C405.682 141.593 404.011 143 403 143.5C401.989 144 400.5 145 394.383 145.744C394.383 145.744 367.416 145.635 353.051 145.635Z" fill="black"/>
	<path d="M490.527 145.626V130.685C501.565 130.685 512.175 130.718 522.781 130.685C524.177 130.826 525.593 130.713 526.932 130.355C528.27 129.997 529.499 129.401 530.532 128.609C531.564 127.817 532.377 126.848 532.913 125.769C533.449 124.691 533.695 123.528 533.635 122.362C533.723 116.927 530.144 114.062 523.146 114.001C519.674 113.865 516.196 113.876 512.726 114.034C499.147 115.079 493.402 110.735 490.579 99.8621C489.214 94.571 489.018 89.1184 490.001 83.7693C492.419 71.1241 498.935 67.0797 514.651 67.0797H548.434V82.5726C537.349 82.5726 526.272 82.5575 515.199 82.5726C507.795 82.5726 505.367 84.4934 505.261 90.2798C505.151 96.2055 507.927 98.4595 515.443 98.4958C518.917 98.514 522.383 98.4958 525.867 98.4958C538.65 98.5231 545.173 102.389 548.109 112.483C551.01 121.321 549.896 130.735 544.979 138.937C543.911 141.115 542.028 142.952 539.607 144.175C537.186 145.398 534.355 145.944 531.532 145.732C518.157 145.378 504.786 145.626 490.527 145.626Z" fill="black"/>
	<path d="M441.257 82.2976H421.901V67.0797H477.899V82.1467H458.867V145.777H441.272L441.257 82.2976Z" fill="black"/>
	<path d="M561.178 82.5806V67.0797H612.868V82.5806H561.178Z" fill="black"/>
	<path d="M193.604 96.8892V112.39H140.478V96.8892H193.604Z" fill="black"/>
	<path d="M693.066 107.683C694.244 97.1272 690.398 86.6073 682.34 78.3413C679.093 75.2922 670.546 67.2854 657.73 67.0797C652.768 67.0743 647.876 68.0386 643.455 69.8933C639.035 71.748 635.211 74.4401 632.3 77.7485C618.467 92.516 617.802 118.993 630.875 134.13C634.567 138.634 639.856 142.092 646.02 144.033C652.185 145.974 658.926 146.304 665.326 144.977C680.643 141.398 687.78 129.138 691.086 118.421C692.166 114.903 692.829 111.307 693.066 107.683ZM666.677 126.074C666.468 126.216 666.163 126.41 665.792 126.631C664.241 127.704 662.44 128.504 660.499 128.982C658.559 129.46 656.52 129.606 654.508 129.411H654.335C650.938 128.862 647.86 127.395 645.59 125.242C640.805 121.302 637.842 116.108 637.215 110.56C636.965 107.776 637.165 104.978 637.81 102.238C639.393 95.5228 644.323 85.6434 654.424 83.7256C656.273 83.4544 658.171 83.5108 659.992 83.891C661.813 84.2713 663.515 84.9666 664.984 85.9308C679.435 94.8422 680.764 116.579 666.677 126.074Z" fill="black"/>
	<path d="M342.726 107.692C343.881 97.1304 340.111 86.6044 332.215 78.3436C329.033 75.2926 320.656 67.289 308.097 67.0797C303.238 67.0726 298.447 68.0355 294.115 69.8896C289.784 71.7436 286.035 74.436 283.177 77.7462C269.62 92.513 268.965 118.993 281.78 134.127C285.407 138.635 290.591 142.094 296.631 144.035C302.67 145.975 309.273 146.304 315.541 144.975C330.552 141.396 337.546 129.135 340.786 118.42C341.844 114.905 342.494 111.313 342.726 107.692ZM316.87 126.083C316.664 126.223 316.366 126.42 316.002 126.642C314.481 127.715 312.715 128.516 310.814 128.994C308.912 129.472 306.915 129.618 304.944 129.423H304.775C301.447 128.872 298.432 127.401 296.207 125.243C291.52 121.306 288.616 116.111 288 110.558C287.754 107.775 287.949 104.976 288.58 102.236C290.131 95.5216 294.962 85.6406 304.861 83.736C306.673 83.4646 308.533 83.5208 310.317 83.901C312.101 84.2811 313.769 84.9764 315.21 85.9409C329.368 94.8574 330.671 116.6 316.866 126.087L316.87 126.083Z" fill="black"/>
	<path d="M118.771 117.376C125.43 114.887 128.871 109.768 130.517 100.734C131.571 94.775 131.364 88.7084 129.905 82.8081C128.439 76.8215 126.566 72.0553 121.226 69.1762C116.863 67.3658 111.991 66.5687 107.127 66.8692C106.156 66.8327 102.447 66.8448 95.6523 66.8448H88.0879V81.5968H97.4518C101.692 81.5968 106.215 80.9881 109.751 83.3224C111.278 84.62 112.435 86.1857 113.136 87.904C113.837 89.6223 114.064 91.4494 113.801 93.2504C113.84 95.5152 113.284 97.7599 112.17 99.8275C111.792 100.663 111.245 101.439 110.554 102.122C109.132 103.373 105.907 104.052 99.3209 104.283C95.5778 104.421 91.8288 104.403 88.0879 104.228V107.032L97.0304 119.361L115.058 145.931H136.923L118.771 117.376Z" fill="black"/>
	<path d="M88.0851 66.8387H69.5186V145.931H88.0851V66.8387Z" fill="#28C63B"/>
	<path d="M262.693 84.438C261.152 78.0785 259.241 73.0212 253.709 69.9626C249.147 67.984 244.022 67.0632 238.879 67.2977C237.879 67.2614 234.262 67.0797 227.237 67.0797H202.218V145.777H220.764V120.593L225.688 120.742L238.879 120.593C239.218 120.594 249.605 120.593 249.605 120.593C260.404 117.168 261.716 111.996 263.235 103.438C264.357 97.1249 264.174 90.7002 262.693 84.438ZM246.219 103.183C245.87 104.06 245.3 104.865 244.546 105.546C241.057 108.244 241.397 107.363 232.465 107.496C229.803 107.532 225.388 107.447 220.75 107.232V85.6615C225.926 85.6221 230.594 85.6312 234.661 85.6615C240.859 85.71 242.371 85.7857 243.934 86.7547C247.295 88.8382 247.486 92.9325 247.643 96.2788C247.808 98.6397 247.319 101.001 246.219 103.183Z" fill="black"/>
	<path d="M45.8878 71.1179L1.31115 147.24L0.0100973 150V146.868C0.0100973 134.752 -0.0448768 122.642 0.101721 110.522C0.325046 109.358 1.0269 108.293 2.08812 107.509C16.6404 95.3352 31.2354 83.2038 45.8731 71.1149L45.8878 71.1179Z" fill="black"/>
	<path d="M73.1711 44.7032C71.7564 43.4614 69.5794 41.5075 67.3695 39.657C53.8568 28.396 40.1353 17.3175 26.8536 5.87387C21.5761 1.35119 16.2509 -1.76842 8.60585 1.11075C6.90344 1.69199 5.37382 2.57404 4.12323 3.69562C2.87265 4.8172 1.93107 6.15144 1.36393 7.60564C0.518084 9.99172 0.146711 12.4764 0.264445 14.9618C0.420815 43.3681 0.486784 71.7855 0.462351 100.214C0.462351 101.888 0.462351 103.793 0.462351 105.029V105.367C24.3174 85.4225 48.6746 65.1343 73.1711 44.7032ZM20.7295 34.7721C21.1289 30.4016 26.2269 30.1703 29.8918 32.7178C34.7015 36.1468 39.1678 39.8945 43.2469 43.924C43.6997 44.6842 43.9133 45.5272 43.8678 46.3745C43.8223 47.2217 43.5192 48.0456 42.9866 48.7693L20.3337 69.9188L20.7001 48.4223V48.2063C20.7001 43.7353 20.3337 39.2218 20.7295 34.7721Z" fill="#28C63B"/>
</svg>