<svg viewBox="0 0 458 100" fill="none" xmlns="http://www.w3.org/2000/svg">
<path fill-rule="evenodd" clip-rule="evenodd" d="M23.2754 20.1437C23.4386 20.2239 23.5989 20.3119 23.7558 20.4076L38.0699 29.1414C39.8285 30.2145 40.8982 32.1046 40.8982 34.139V40.1961H53.2215C53.2079 40.089 53.2009 39.9799 53.2009 39.8693V5.88235C53.2009 5.52138 52.9032 5.22876 52.5359 5.22876H23.9404C23.5731 5.22876 23.2754 5.52138 23.2754 5.88235V20.1437ZM40.8982 45.4248V60.1307H55.8564L55.8609 60.1307L55.8655 60.1307H70.8237L70.8237 46.0784C70.8237 45.7175 70.526 45.4248 70.1587 45.4248L40.8982 45.4248ZM35.5781 60.1307V34.139C35.5781 33.913 35.4592 33.703 35.2638 33.5838L20.9498 24.8499C20.7367 24.7199 20.4672 24.7188 20.253 24.8471L5.63907 33.5988C5.44097 33.7174 5.32009 33.9289 5.32009 34.1569V60.1307H17.9553V48.366C17.9553 46.9222 19.1463 45.7517 20.6154 45.7517C22.0845 45.7517 23.2754 46.9222 23.2754 48.366V60.1307H35.5781ZM0.0889612 65.3126C1.43705 84.7002 17.9381 100 38.0719 100L38.1778 99.9998L38.2382 100C38.3077 100 38.3771 99.9994 38.4463 99.9982C59.2866 99.8017 76.1402 83.2132 76.1438 62.7517L76.1438 62.7451V46.0784C76.1438 42.8297 73.4642 40.1961 70.1587 40.1961H58.5004C58.514 40.089 58.521 39.9799 58.521 39.8693V5.88235C58.521 2.63362 55.8414 0 52.5359 0H23.9404C20.6349 0 17.9553 2.63362 17.9553 5.88235V20.1278C17.7957 20.2051 17.6386 20.2898 17.4848 20.3819L2.87083 29.1336C1.08794 30.2013 0 32.105 0 34.1569V62.7451V64.6396C0 64.8723 0.030927 65.0979 0.0889612 65.3126ZM35.5781 65.3595L35.5781 94.2071C33.0265 93.1328 30.4083 90.4974 28.1562 86.0705C25.4708 80.7919 23.6494 73.5416 23.3267 65.3595H35.5781ZM40.8982 94.2071V65.3595H53.1496C52.8269 73.5416 51.0055 80.7919 48.3201 86.0705C46.068 90.4974 43.4497 93.1328 40.8982 94.2071ZM5.42769 65.3595H18.003C18.3274 74.223 20.2907 82.3014 23.3977 88.4088C24.1284 89.8451 24.9439 91.209 25.8396 92.4633C14.5933 88.0331 6.44573 77.6764 5.42769 65.3595ZM58.4733 65.3595H70.7161C69.7121 77.5059 61.7746 87.7461 50.7693 92.276C51.613 91.0736 52.3841 89.7739 53.0786 88.4088C56.1856 82.3014 58.1489 74.223 58.4733 65.3595Z" fill="#066ABE"/>
<path d="M101.144 73.8523H108.166V57.4886H117.712C128.507 57.4886 133.848 50.9659 133.848 42.375C133.848 33.8068 128.553 27.3068 117.735 27.3068H101.144V73.8523ZM108.166 51.5341V33.3296H116.985C123.939 33.3296 126.78 37.1023 126.78 42.375C126.78 47.6477 123.939 51.5341 117.076 51.5341H108.166Z" fill="#39454F"/>
<path d="M140.536 73.8523H147.331V52.5341C147.331 47.9659 150.854 44.6705 155.672 44.6705C157.081 44.6705 158.672 44.9205 159.218 45.0796V38.5796C158.536 38.4887 157.195 38.4205 156.331 38.4205C152.24 38.4205 148.74 40.7386 147.468 44.4886H147.104V38.9432H140.536V73.8523Z" fill="#39454F"/>
<path d="M164.098 73.8523H170.894V38.9432H164.098V73.8523ZM167.53 33.5568C169.871 33.5568 171.826 31.7387 171.826 29.5114C171.826 27.2841 169.871 25.4432 167.53 25.4432C165.166 25.4432 163.235 27.2841 163.235 29.5114C163.235 31.7387 165.166 33.5568 167.53 33.5568Z" fill="#39454F"/>
<path d="M193.74 74.5568C201.99 74.5568 207.331 69.6023 208.081 62.8068H201.468C200.604 66.5796 197.672 68.8068 193.786 68.8068C188.036 68.8068 184.331 64.0114 184.331 56.3977C184.331 48.9205 188.104 44.2159 193.786 44.2159C198.104 44.2159 200.74 46.9432 201.468 50.2159H208.081C207.354 43.1705 201.604 38.4887 193.672 38.4887C183.831 38.4887 177.468 45.8977 177.468 56.5568C177.468 67.0796 183.604 74.5568 193.74 74.5568Z" fill="#39454F"/>
<path d="M229.394 74.5568C237.007 74.5568 242.394 70.8068 243.939 65.125L237.507 63.9659C236.28 67.2614 233.326 68.9432 229.462 68.9432C223.644 68.9432 219.735 65.1705 219.553 58.4432H244.371V56.0341C244.371 43.4205 236.826 38.4887 228.916 38.4887C219.189 38.4887 212.78 45.8977 212.78 56.625C212.78 67.4659 219.098 74.5568 229.394 74.5568ZM219.576 53.3523C219.848 48.3977 223.439 44.1023 228.962 44.1023C234.235 44.1023 237.689 48.0114 237.712 53.3523H219.576Z" fill="#39454F"/>
<path d="M251.456 73.8523H258.479V53.5568H281.683V73.8523H288.729V27.3068H281.683V47.5341H258.479V27.3068H251.456V73.8523Z" fill="#39454F"/>
<path d="M319.524 59.375C319.547 65.3068 315.138 68.125 311.32 68.125C307.115 68.125 304.206 65.0796 304.206 60.3296V38.9432H297.411V61.1477C297.411 69.8068 302.161 74.3068 308.865 74.3068C314.115 74.3068 317.683 71.5341 319.297 67.8068H319.661V73.8523H326.343V38.9432H319.524V59.375Z" fill="#39454F"/>
<path d="M335.019 73.8523H341.655V68.4205H342.223C343.451 70.6477 345.951 74.5341 352.314 74.5341C360.769 74.5341 366.905 67.7614 366.905 56.4659C366.905 45.1477 360.678 38.4887 352.246 38.4887C345.769 38.4887 343.428 42.4432 342.223 44.6023H341.814V27.3068H335.019V73.8523ZM341.678 56.3977C341.678 49.1023 344.86 44.2614 350.791 44.2614C356.951 44.2614 360.041 49.4659 360.041 56.3977C360.041 63.3977 356.86 68.7386 350.791 68.7386C344.951 68.7386 341.678 63.7386 341.678 56.3977Z" fill="#39454F"/>
<path d="M374.081 73.8523H380.718V68.4205H381.286C382.513 70.6477 385.013 74.5341 391.377 74.5341C399.831 74.5341 405.968 67.7614 405.968 56.4659C405.968 45.1477 399.74 38.4887 391.308 38.4887C384.831 38.4887 382.49 42.4432 381.286 44.6023H380.877V27.3068H374.081V73.8523ZM380.74 56.3977C380.74 49.1023 383.922 44.2614 389.854 44.2614C396.013 44.2614 399.104 49.4659 399.104 56.3977C399.104 63.3977 395.922 68.7386 389.854 68.7386C384.013 68.7386 380.74 63.7386 380.74 56.3977Z" fill="#39454F"/>
<path d="M419.394 27.3068H412.598V73.8523H419.394V27.3068Z" fill="#39454F"/>
<path d="M442.581 74.5568C450.195 74.5568 455.581 70.8068 457.127 65.125L450.695 63.9659C449.468 67.2614 446.513 68.9432 442.649 68.9432C436.831 68.9432 432.922 65.1705 432.74 58.4432H457.558V56.0341C457.558 43.4205 450.013 38.4887 442.104 38.4887C432.377 38.4887 425.968 45.8977 425.968 56.625C425.968 67.4659 432.286 74.5568 442.581 74.5568ZM432.763 53.3523C433.036 48.3977 436.627 44.1023 442.149 44.1023C447.422 44.1023 450.877 48.0114 450.899 53.3523H432.763Z" fill="#39454F"/>
</svg>