<?xml version="1.0" ?>
<svg xmlns="http://www.w3.org/2000/svg" viewBox="0 0 99 50" fill="none">
	<path d="M11.3221 12.8989C9.63327 12.8968 7.96774 13.2949 6.46094 14.0609L6.46094 23.7441C6.46058 22.7785 6.74537 21.8345 7.27931 21.0314C7.81325 20.2284 8.57234 19.6024 9.46057 19.2326C10.3488 18.8629 11.3263 18.7659 12.2694 18.9541C13.2125 19.1422 14.0788 19.607 14.7589 20.2897C15.4389 20.9724 15.9021 21.8422 16.0898 22.7892C16.2775 23.7363 16.1813 24.7179 15.8135 25.6101C15.4456 26.5022 14.8225 27.2647 14.023 27.8012C13.2236 28.3377 12.2837 28.6241 11.3221 28.6241C10.0332 28.6241 8.79699 28.11 7.88539 27.1949C6.97379 26.2798 6.46142 25.0385 6.46094 23.7441L6.46093 33.4273C7.91584 34.1591 9.51667 34.5509 11.1437 34.5736C12.7707 34.5963 14.3817 34.2493 15.8563 33.5584C17.3309 32.8676 18.6308 31.8508 19.6589 30.5842C20.6869 29.3176 21.4165 27.8339 21.7929 26.2442C22.1694 24.6545 22.183 22.9998 21.8328 21.4041C21.4825 19.8083 20.7775 18.3127 19.7705 17.0292C18.7634 15.7457 17.4804 14.7075 16.0174 13.9923C14.5544 13.277 12.9493 12.9033 11.3221 12.8989Z" fill="#BFBFBF"/>
	<path d="M6.46219 12.8989L0.53125 12.8989L0.531248 23.7368C0.530983 21.7298 1.08523 19.762 2.13233 18.0524C3.17943 16.3429 4.67831 14.9586 6.46219 14.0536L6.46219 12.8989ZM0.531248 23.7368L0.531244 47.3511L6.46219 47.3511L6.46219 33.4109C4.6783 32.5059 3.17942 31.1216 2.13233 29.4121C1.08523 27.7025 0.530982 25.7347 0.531248 23.7277" fill="#BFBFBF"/>
	<path d="M6.46219 14.0605C4.67831 14.9655 3.17943 16.3498 2.13233 18.0594C1.08523 19.7689 0.530983 21.7367 0.531248 23.7438C0.530983 25.7508 1.08523 27.7186 2.13233 29.4282C3.17942 31.1377 4.6783 32.522 6.46219 33.427L6.46219 14.0605Z" fill="white"/>
	<path d="M31.4739 12.8968L25.543 12.8968L25.543 20.965C25.5433 19.1926 26.1241 17.4695 27.1959 16.0614C28.2677 14.6532 29.771 13.6382 31.4739 13.1727L31.4739 12.895" fill="#BFBFBF"/>
	<path d="M33.574 12.897C32.8645 12.8963 32.1581 12.9891 31.4727 13.1729L31.4727 20.9633C31.4724 20.5458 31.5956 20.1376 31.8265 19.7904C32.0573 19.4431 32.3856 19.1725 32.7697 19.0127C33.1538 18.8529 33.5764 18.8111 33.9842 18.8926C34.3919 18.9741 34.7665 19.1753 35.0603 19.4706L39.2611 15.2593C38.5168 14.5082 37.6316 13.9127 36.6566 13.5072C35.6817 13.1017 34.6364 12.8943 33.5812 12.897" fill="#BFBFBF"/>
	<path d="M31.4739 13.1729C29.7713 13.6382 28.2682 14.653 27.1965 16.0608C26.1247 17.4685 25.5437 19.1912 25.543 20.9633L25.543 34.5855L31.4739 34.5855L31.4739 13.1729Z" fill="white"/>
	<path d="M48.0052 12.9424L42.0742 12.9424L42.0742 34.5871L48.0052 34.5871L48.0052 12.9424Z" fill="#BFBFBF"/>
	<path d="M73.1653 0.135255L67.2344 0.135254L67.2344 14.0754C69.0165 14.9802 70.5141 16.3632 71.561 18.0708C72.608 19.7785 73.1633 21.7441 73.1653 23.7495L73.1653 0.135255ZM73.1653 23.7495C73.165 25.7564 72.6105 27.724 71.5634 29.4334C70.5164 31.1428 69.0179 32.5272 67.2344 33.4327L67.2344 34.5965L73.1653 34.5965L73.1653 23.7495Z" fill="#BFBFBF"/>
	<path d="M62.3743 12.9116C60.7443 12.911 59.1352 13.2812 57.668 13.9945C56.2008 14.7077 54.9135 15.7455 53.9029 17.0299C52.8922 18.3142 52.1844 19.8118 51.8325 21.4102C51.4807 23.0086 51.494 24.6663 51.8714 26.2588C52.2488 27.8513 52.9805 29.3373 54.0116 30.6052C55.0428 31.873 56.3465 32.8898 57.825 33.5793C59.3034 34.2687 60.9182 34.6129 62.548 34.5859C64.1779 34.559 65.7805 34.1616 67.2355 33.4236L67.2355 23.7404C67.2355 24.7059 66.9504 25.6498 66.4163 26.4526C65.8821 27.2554 65.1229 27.8811 64.2346 28.2506C63.3464 28.6201 62.369 28.7167 61.426 28.5284C60.483 28.34 59.6168 27.8751 58.937 27.1923C58.2571 26.5096 57.7941 25.6397 57.6066 24.6928C57.419 23.7458 57.5153 22.7642 57.8832 21.8722C58.2511 20.9802 58.8742 20.2177 59.6736 19.6813C60.473 19.1449 61.4129 18.8586 62.3743 18.8586C63.6636 18.8586 64.9001 19.3729 65.8117 20.2884C66.7234 21.2039 67.2355 22.4456 67.2355 23.7404L67.2355 14.0754C65.729 13.3084 64.0634 12.9097 62.3743 12.9116Z" fill="#BFBFBF"/>
	<path d="M67.2344 14.0755L67.2344 33.4237C69.0181 32.5185 70.5169 31.1342 71.564 29.4247C72.611 27.7152 73.1654 25.7475 73.1653 23.7405C73.1637 21.735 72.6086 19.7693 71.5616 18.0615C70.5146 16.3538 69.0168 14.9709 67.2344 14.0664" fill="white"/>
	<path d="M87.382 12.9136C84.5209 12.9165 81.7779 14.059 79.7546 16.0905C77.7314 18.122 76.5932 20.8765 76.5898 23.7496C76.5898 29.8263 81.4765 34.5875 87.7131 34.5875C90.9314 34.5875 93.513 33.5553 96.3384 31.1399L92.4942 26.6034C90.7459 28.0998 89.3759 28.52 87.5967 28.52C86.716 28.5512 85.8457 28.3205 85.0951 27.8568L84.9004 27.939L78.8967 30.4311C77.7724 29.0136 77.0289 27.3303 76.7372 25.5419L82.8246 23.017C82.9133 22.2014 83.2135 21.4234 83.6952 20.7607C84.177 20.098 84.8234 19.5739 85.5699 19.2406C86.1012 19.005 86.6758 18.8842 87.2564 18.8861C88.2964 18.8879 89.3065 19.2355 90.1291 19.8745C90.1601 19.9001 90.191 19.9275 90.2201 19.9567L96.182 17.483C96.5908 18.0617 96.9424 18.6791 97.2317 19.3264C96.3817 17.4168 94.9989 15.7955 93.2505 14.6586C91.5021 13.5218 89.463 12.9182 87.3802 12.9209L87.382 12.9136ZM97.2372 19.3374L97.2481 19.3611L97.2372 19.3374ZM97.2608 19.3885L97.2608 19.3995L97.2608 19.3885ZM97.3027 19.4854L97.3027 19.4945L97.3027 19.4854ZM98.4888 22.3045L92.507 24.7856L98.4888 22.3045Z" fill="#BFBFBF"/>
	<path d="M97.2329 19.3189L97.2329 19.328L97.2329 19.3189ZM97.2475 19.3517L97.2602 19.3791L97.2475 19.3517ZM97.2638 19.3901L97.282 19.4321L97.2638 19.3901ZM97.2857 19.4394L97.302 19.476L97.2857 19.4394ZM97.3057 19.4851L97.3239 19.529L98.49 22.2951L97.3239 19.529L97.3057 19.4851ZM90.2213 19.9473L86.5627 21.4674L83.0459 22.929L82.8313 23.0186C82.5365 25.5526 83.8446 26.9412 84.918 27.7286C84.978 27.7725 85.0399 27.8145 85.0999 27.8547L91.6986 25.1142L92.5118 24.7762C92.5118 24.7634 91.8041 21.3998 90.2249 19.9455" fill="#BFBFBF"/>
	<path d="M96.183 17.4756L90.223 19.9475C91.8003 21.4 92.5062 24.7636 92.5099 24.7782L98.4899 22.2971L97.3256 19.531L97.3074 19.4871L97.3074 19.478L97.291 19.4433L97.2728 19.4013L97.2601 19.372L97.2492 19.3483L97.2492 19.3373C96.9598 18.69 96.6082 18.0726 96.1994 17.4939L96.183 17.4756ZM82.8421 23.0352L76.7383 25.5419C77.0298 27.3279 77.772 29.0092 78.8942 30.4255L84.8979 27.9335L85.0925 27.8512C85.0307 27.811 84.9688 27.769 84.9106 27.7252C83.8372 26.9377 82.5291 25.5492 82.8239 23.0169" fill="white"/>
	<path d="M44.9841 9.03087C46.643 9.03087 47.9878 7.68038 47.9878 6.01446C47.9878 4.34854 46.643 2.99805 44.9841 2.99805C43.3253 2.99805 41.9805 4.34854 41.9805 6.01446C41.9805 7.68038 43.3253 9.03087 44.9841 9.03087Z" fill="white"/>
	<path d="M13.4913 47.3876C13.0111 47.3956 12.5341 47.3068 12.0887 47.1263C11.7002 46.9696 11.3501 46.7303 11.0626 46.4248C10.7845 46.1188 10.5566 45.7704 10.3876 45.3925C10.2102 45.0045 10.0818 44.5957 10.0055 44.1757C9.93027 43.7493 9.89313 43.317 9.89457 42.884C9.89374 42.36 9.95978 41.8381 10.0911 41.331C10.2262 40.8286 10.4307 40.3477 10.6987 39.9023C10.9721 39.4442 11.3604 39.0662 11.8249 38.8061C12.3368 38.5207 12.915 38.377 13.5004 38.3895C14.1674 38.3647 14.8266 38.5396 15.3943 38.892C15.8595 39.1845 16.2259 39.6111 16.4459 40.1161L15.2706 40.6642C15.0894 40.3521 14.8407 40.0849 14.5429 39.8822C14.2159 39.7109 13.851 39.6256 13.4823 39.6342C13.1136 39.6428 12.753 39.7451 12.4343 39.9315C12.1318 40.1275 11.8878 40.4021 11.7284 40.7263C11.5645 41.0556 11.4423 41.4042 11.3646 41.764C11.2842 42.1337 11.2445 42.5111 11.2463 42.8895C11.2291 43.6864 11.4305 44.4727 11.8285 45.1623C11.9903 45.4665 12.2333 45.7194 12.5302 45.8927C12.8271 46.066 13.1662 46.1528 13.5095 46.1434C14.2373 46.1434 14.8231 45.7707 15.267 45.0253L16.4677 45.4857C15.9098 46.7536 14.9177 47.3876 13.4913 47.3876Z" fill="white"/>
	<path d="M21.6426 47.2397L21.6426 46.6916C21.4185 46.9228 21.1486 47.1043 20.8502 47.2242C20.5519 47.3441 20.2318 47.3998 19.9106 47.3877C19.3194 47.4147 18.7394 47.2193 18.2842 46.8395C17.867 46.4741 17.6589 45.9498 17.6602 45.2665C17.6614 44.5832 17.8961 44.0619 18.3642 43.7026C18.8628 43.3371 19.4683 43.1487 20.0853 43.1672C20.6277 43.1464 21.1656 43.2726 21.6426 43.5326L21.6426 43.1855C21.6426 42.7123 21.5371 42.378 21.3224 42.1788C21.1078 41.9797 20.7657 41.881 20.2945 41.881C19.6466 41.8667 19.0121 42.0677 18.4898 42.4529L18.1059 41.3969C19.0661 40.8135 20.2072 40.6072 21.3097 40.8177C21.5761 40.8806 21.8309 40.9855 22.0647 41.1283C22.3382 41.3044 22.5486 41.5636 22.6651 41.8682C22.8234 42.2715 22.8989 42.7028 22.887 43.1362L22.887 47.2488L21.6426 47.2397ZM20.1472 46.2421C20.4312 46.2461 20.7126 46.1869 20.9711 46.0687C21.2297 45.9506 21.459 45.7765 21.6426 45.5588L21.6426 44.5978C21.2257 44.3841 20.7625 44.2774 20.2945 44.2872C19.9425 44.2719 19.5933 44.3561 19.2866 44.5302C19.162 44.6053 19.06 44.7129 18.9915 44.8416C18.9229 44.9703 18.8904 45.1152 18.8973 45.261C18.8908 45.3982 18.9166 45.5351 18.9725 45.6605C19.0284 45.7858 19.113 45.8962 19.2193 45.9827C19.4903 46.1724 19.8175 46.2639 20.1472 46.2421Z" fill="white"/>
	<path d="M27.3931 47.3873C27.103 47.3995 26.814 47.3429 26.5497 47.2219C26.2855 47.101 26.0533 46.9191 25.8722 46.6912L25.8722 49.1394L24.5859 49.735L24.5859 40.8904L25.8722 40.8904L25.8722 41.4001C26.0623 41.1852 26.297 41.0147 26.5598 40.9008C26.8225 40.7868 27.107 40.7321 27.3931 40.7405C27.7572 40.7262 28.1195 40.7992 28.4498 40.9537C28.7802 41.1081 29.069 41.3394 29.2925 41.6285C29.7582 42.2229 29.9911 43.0371 29.9911 44.0712C29.9911 45.1053 29.754 45.9147 29.2797 46.4993C29.0572 46.7861 28.7703 47.0161 28.4424 47.1704C28.1146 47.3247 27.755 47.399 27.3931 47.3873ZM27.2112 46.1705C27.4279 46.1819 27.644 46.1376 27.8388 46.0417C28.0337 45.9458 28.2009 45.8014 28.3246 45.6223C28.5811 45.2569 28.7085 44.7417 28.7085 44.0639C28.7337 43.5258 28.596 42.9927 28.3137 42.5347C28.1958 42.3501 28.0323 42.1993 27.839 42.0972C27.6458 41.995 27.4295 41.945 27.2112 41.9519C26.9445 41.9385 26.6792 41.9985 26.4439 42.1254C26.2086 42.2522 26.0122 42.4411 25.8758 42.6717L25.8758 45.4305C26.0204 45.654 26.2175 45.8384 26.4497 45.9674C26.6819 46.0964 26.9422 46.1662 27.2076 46.1705L27.2112 46.1705Z" fill="white"/>
	<path d="M32.7231 39.6644C32.5958 39.7912 32.4286 39.8698 32.25 39.8867C32.0714 39.9036 31.8926 39.8577 31.7439 39.757C31.5952 39.6562 31.4859 39.5068 31.4347 39.3342C31.3834 39.1616 31.3934 38.9765 31.4628 38.8104C31.5323 38.6444 31.6569 38.5076 31.8155 38.4235C31.9742 38.3394 32.1569 38.3132 32.3326 38.3493C32.5084 38.3854 32.6662 38.4815 32.7792 38.6214C32.8922 38.7613 32.9534 38.9362 32.9524 39.1163C32.9531 39.2185 32.9332 39.3198 32.8938 39.414C32.8544 39.5082 32.7963 39.5934 32.7231 39.6644ZM31.5297 47.2374L31.5297 40.8903L32.8159 40.8903L32.8159 47.2392L31.5297 47.2374Z" fill="white"/>
	<path d="M36.4885 47.3876C35.5497 47.3876 35.0797 46.862 35.0785 45.8108L35.0785 42.0088L34.1016 42.0088L34.1016 40.8907L35.0767 40.8907L35.0767 38.881L36.363 38.2598L36.363 40.8815L37.8603 40.8815L37.8603 41.9997L36.363 41.9997L36.363 45.471C36.363 45.9515 36.5704 46.1909 36.9815 46.1909C37.3167 46.1821 37.6426 46.0789 37.9221 45.8931L37.762 47.0989C37.3658 47.2938 36.9296 47.3927 36.4885 47.3876Z" fill="white"/>
	<path d="M42.8106 47.2394L42.8106 46.6913C42.5864 46.9225 42.3164 47.1039 42.0181 47.2238C41.7198 47.3437 41.3997 47.3995 41.0786 47.3874C40.4874 47.4145 39.9074 47.2191 39.4522 46.8393C39.0349 46.4739 38.8269 45.9496 38.8281 45.2663C38.8293 44.583 39.064 44.0616 39.5322 43.7023C40.0302 43.3371 40.6351 43.1488 41.2514 43.167C41.7944 43.1462 42.3329 43.2724 42.8106 43.5324L42.8106 43.1853C42.8106 42.7121 42.7033 42.3777 42.4886 42.1786C42.2739 41.9795 41.9319 41.8808 41.4625 41.8808C40.814 41.8662 40.1789 42.0672 39.6559 42.4526L39.272 41.3966C40.2328 40.8128 41.3746 40.6065 42.4777 40.8175C42.7436 40.8801 42.9978 40.985 43.2309 41.1281C43.5053 41.3031 43.716 41.5627 43.8312 41.868C43.9861 42.2677 44.0597 42.6945 44.0477 43.1232L44.0477 47.2358L42.8106 47.2394ZM41.3133 46.2419C41.5976 46.246 41.8793 46.1869 42.1382 46.0687C42.3971 45.9506 42.6267 45.7764 42.8106 45.5586L42.8106 44.5976C42.3937 44.3838 41.9305 44.2771 41.4625 44.287C41.1105 44.2715 40.7612 44.3557 40.4546 44.53C40.33 44.6051 40.228 44.7127 40.1594 44.8414C40.0909 44.9701 40.0583 45.115 40.0653 45.2608C40.0585 45.3979 40.084 45.5346 40.1396 45.66C40.1953 45.7853 40.2795 45.8958 40.3855 45.9824C40.6565 46.1722 40.9837 46.2637 41.3133 46.2419Z" fill="white"/>
	<path d="M45.8086 47.2392L45.8086 38.877L47.0948 38.2686L47.0948 47.2392L45.8086 47.2392Z" fill="white"/>
	<path d="M52.125 47.2396L52.125 38.543L55.6017 38.543C56.5841 38.543 57.3058 38.7994 57.7667 39.3121C58.2178 39.8311 58.4645 40.4977 58.4601 41.1866C58.4558 41.8755 58.2007 42.5389 57.743 43.0521C57.2651 43.5953 56.5514 43.8669 55.6017 43.8669L53.4185 43.8669L53.4185 47.2469L52.125 47.2396ZM55.6763 42.6172C56.1711 42.6172 56.535 42.4784 56.7679 42.2007C57.0034 41.9221 57.1289 41.5666 57.1208 41.2013C57.1248 40.8422 57.0045 40.4929 56.7806 40.2129C56.5538 39.9279 56.1845 39.7853 55.6726 39.7853L53.4131 39.7853L53.4131 42.6172L55.6763 42.6172Z" fill="white"/>
	<path d="M63.1601 47.2397L63.1601 46.6916C62.9359 46.9228 62.6659 47.1042 62.3676 47.2241C62.0693 47.344 61.7492 47.3997 61.4281 47.3877C60.8369 47.4147 60.2569 47.2193 59.8016 46.8395C59.3844 46.4741 59.1758 45.9498 59.1758 45.2665C59.1758 44.5832 59.4111 44.0619 59.8817 43.7026C60.3794 43.3368 60.9845 43.1484 61.6009 43.1672C62.1439 43.1464 62.6824 43.2726 63.1601 43.5326L63.1601 43.1855C63.1601 42.7123 63.0527 42.378 62.838 42.1788C62.6234 41.9797 62.2813 41.881 61.812 41.881C61.1635 41.8664 60.5283 42.0675 60.0054 42.4529L59.6215 41.3969C60.5817 40.8135 61.7228 40.6072 62.8253 40.8177C63.0919 40.88 63.3468 40.9849 63.5803 41.1283C63.8548 41.3033 64.0654 41.5629 64.1807 41.8682C64.3355 42.2679 64.4092 42.6947 64.3972 43.1234L64.3972 47.236L63.1601 47.2397ZM61.6628 46.2421C61.9471 46.2462 62.2288 46.1871 62.4877 46.069C62.7465 45.9508 62.9762 45.7766 63.1601 45.5588L63.1601 44.5978C62.7431 44.3841 62.28 44.2774 61.812 44.2872C61.4599 44.2715 61.1106 44.3557 60.8041 44.5302C60.6795 44.6053 60.5775 44.7129 60.5089 44.8416C60.4404 44.9703 60.4078 45.1152 60.4147 45.261C60.408 45.3981 60.4335 45.5348 60.4891 45.6602C60.5447 45.7856 60.6289 45.896 60.7349 45.9827C61.0059 46.1724 61.3331 46.2639 61.6628 46.2421Z" fill="white"/>
	<path d="M66.1055 47.2396L66.1055 40.8907L67.3935 40.8907L67.3935 41.6599C67.5059 41.3801 67.7018 41.1421 67.9542 40.9785C68.2067 40.815 68.5033 40.7339 68.8035 40.7464C69.1934 40.7393 69.5722 40.8765 69.8678 41.1319L69.6859 42.3249C69.3909 42.1215 69.0412 42.0132 68.6834 42.0143C68.5131 42.0125 68.3442 42.0463 68.1876 42.1136C68.031 42.1809 67.89 42.2803 67.7738 42.4053C67.5191 42.666 67.3917 43.0923 67.3917 43.6842L67.3917 47.2506L66.1055 47.2396Z" fill="white"/>
	<path d="M73.0098 47.3876C72.0699 47.3876 71.5993 46.862 71.5981 45.8108L71.5981 42.0088L70.6211 42.0088L70.6211 40.8907L71.5981 40.8907L71.5981 38.881L72.8861 38.2598L72.8861 40.8815L74.3743 40.8815L74.3743 41.9997L72.8789 41.9997L72.8789 45.471C72.8789 45.9509 73.085 46.1909 73.4974 46.1909C73.832 46.182 74.1573 46.0788 74.4362 45.8931L74.2761 47.0989C73.8822 47.2928 73.4486 47.3917 73.0098 47.3876Z" fill="white"/>
	<path d="M79.7519 47.2394L79.7519 43.4501C79.7519 42.9434 79.6361 42.5683 79.4044 42.3247C79.2866 42.2033 79.1448 42.1081 78.9881 42.0452C78.8314 41.9823 78.6634 41.953 78.4948 41.9593C77.5863 41.9593 77.1327 42.4465 77.1339 43.4209L77.1339 47.2357L75.8477 47.2357L75.8477 40.8905L77.1339 40.8905L77.1339 41.4915C77.327 41.2433 77.5763 41.045 77.8611 40.9131C78.1459 40.7812 78.458 40.7196 78.7713 40.7333C80.2886 40.7333 81.0472 41.6365 81.0472 43.4428L81.0472 47.232L79.7519 47.2394Z" fill="white"/>
	<path d="M85.367 47.3872C84.484 47.3872 83.7848 47.0913 83.2693 46.4993C82.7538 45.9074 82.4961 45.0937 82.4961 44.0584C82.4961 43.0219 82.7563 42.2101 83.2766 41.623C83.7969 41.0359 84.4937 40.7418 85.367 40.7405C85.7262 40.7274 86.0844 40.7871 86.4201 40.9162C86.7558 41.0452 87.0622 41.2408 87.3209 41.4915C87.8315 41.9969 88.0874 42.7338 88.0887 43.7022C88.0937 43.9807 88.0772 44.2592 88.0395 44.5353L83.7823 44.5353C83.7773 44.7628 83.818 44.9889 83.9021 45.2002C83.9862 45.4115 84.1119 45.6035 84.2717 45.7649C84.4143 45.916 84.5861 46.0362 84.7767 46.1182C84.9672 46.2002 85.1724 46.2422 85.3797 46.2417C85.6339 46.2485 85.8859 46.1931 86.114 46.0805C86.3422 45.9678 86.5397 45.8012 86.6896 45.5949L87.5319 46.4646C87.0213 47.0809 86.2997 47.3885 85.367 47.3872ZM83.7823 43.5012L86.8024 43.5012C86.7939 42.9543 86.6496 42.5481 86.3694 42.2826C86.1004 42.0229 85.7401 41.8804 85.367 41.8861C84.967 41.8735 84.5771 42.0132 84.2754 42.2771C83.9807 42.5377 83.8163 42.9458 83.7823 43.5012Z" fill="white"/>
	<path d="M89.5469 47.2397L89.5469 40.8908L90.8331 40.8908L90.8331 41.66C90.9456 41.3799 91.1418 41.1417 91.3946 40.9781C91.6474 40.8145 91.9444 40.7336 92.2449 40.7464C92.6343 40.739 93.0127 40.8763 93.3074 41.1319L93.1255 42.325C92.8313 42.1214 92.4821 42.013 92.1248 42.0144C91.9545 42.0125 91.7856 42.0463 91.629 42.1137C91.4724 42.181 91.3314 42.2803 91.2152 42.4054C90.9605 42.6666 90.8313 43.0905 90.8313 43.6843L90.8313 47.2506L89.5469 47.2397Z" fill="white"/>
	<path d="M96.3869 47.3875C95.9071 47.3905 95.4317 47.2954 94.9897 47.1079C94.5967 46.9549 94.254 46.6949 94 46.357L94.9097 45.5732C95.2905 45.9736 95.8139 46.2062 96.3651 46.22C97.1074 46.22 97.4785 45.9922 97.4785 45.5367C97.4757 45.4534 97.4554 45.3716 97.4191 45.2967C97.3827 45.2218 97.3311 45.1554 97.2675 45.1019C97.1446 44.9816 97.0025 44.8828 96.8472 44.8095C96.7071 44.7474 96.4833 44.6542 96.1668 44.53C95.4742 44.2986 94.9648 44.0251 94.6386 43.7097C94.4769 43.5525 94.3499 43.363 94.2659 43.1533C94.1819 42.9437 94.1428 42.7187 94.151 42.4929C94.1425 42.2446 94.1949 41.9981 94.3038 41.775C94.4126 41.552 94.5745 41.3593 94.775 41.214C95.236 40.8897 95.79 40.726 96.3524 40.7481C97.3008 40.7481 98.0389 41.0672 98.5664 41.7054L97.6386 42.4508C97.4739 42.2756 97.2742 42.1372 97.0525 42.045C96.8308 41.9527 96.5922 41.9086 96.3524 41.9155C96.1256 41.9045 95.9004 41.9583 95.7029 42.0708C95.6282 42.1143 95.5664 42.1771 95.5239 42.2525C95.4813 42.328 95.4596 42.4135 95.4609 42.5002C95.4631 42.597 95.4913 42.6914 95.5426 42.7734C95.5938 42.8554 95.6662 42.922 95.752 42.9661C96.0511 43.1354 96.3639 43.279 96.6871 43.3954C97.4039 43.639 97.9297 43.9204 98.2644 44.2395C98.4335 44.4101 98.5653 44.6142 98.6515 44.8388C98.7376 45.0634 98.7762 45.3036 98.7648 45.544C98.7786 45.8076 98.7278 46.0705 98.6168 46.3098C98.5058 46.549 98.3379 46.7572 98.128 46.9161C97.7023 47.2303 97.1219 47.3875 96.3869 47.3875Z" fill="white"/>
</svg>