<svg viewBox="0 0 219 43" fill="none" xmlns="http://www.w3.org/2000/svg">
<g clip-path="url(#clip0_208_96)">
<path d="M8.58453 14.5244H13.7347C17.2051 14.5244 19.3922 16.505 19.3922 19.7477V19.7906C19.3922 23.2935 16.8509 25.0568 13.6011 25.1218H11.7893V29.7569H8.58453V14.5244ZM13.5801 22.2929C15.2372 22.2929 16.1664 21.2701 16.1664 19.8556V19.8335C16.1664 18.2446 15.2387 17.374 13.5365 17.374H11.7908V22.2929H13.5816H13.5801Z" fill="black"/>
<path d="M21.8224 14.5244H25.1818L28.6297 20.704L32.0326 14.5244H35.4145V29.7569H32.2758V20.03L28.6297 26.319H28.5636L24.9386 20.0729V29.7569H21.8224V14.5244Z" fill="black"/>
<path d="M21.8359 3.18513C32.0926 3.18513 40.437 11.4014 40.437 21.5007C40.437 31.6 32.0926 39.8163 21.8359 39.8163C11.5792 39.8163 3.23478 31.5986 3.23478 21.5007C3.23478 11.4029 11.5792 3.18513 21.8359 3.18513ZM21.8359 0C9.7764 0 0 9.62634 0 21.5007C0 33.3751 9.7764 43.0015 21.8359 43.0015C33.8954 43.0015 43.6718 33.3751 43.6718 21.5007C43.6718 9.62634 33.8939 0 21.8359 0Z" fill="black"/>
<path d="M57.3495 21.4668V26.8142H54.4554V11.9114H60.6218C62.2249 11.9114 63.4033 12.2838 64.2048 13.0731C64.9839 13.8402 65.3621 15.0463 65.3621 16.6898C65.3621 18.3334 64.8953 19.4508 64.0712 20.2622C63.2471 21.0514 62.0673 21.4682 60.6428 21.4682H57.348L57.3495 21.4668ZM60.9325 19.0561C61.9337 19.0561 62.357 18.5521 62.357 17.5663V15.7247C62.357 14.7388 62.0013 14.322 60.9325 14.322H57.3495V19.0561H60.9325Z" fill="black"/>
<path d="M67.8764 15.6375H74.2199V17.785H70.6579V26.8142H67.8749V15.6375H67.8764Z" fill="black"/>
<path d="M75.5994 21.2257C75.5994 17.7184 77.5132 15.3743 80.9191 15.3743C84.325 15.3743 86.2389 17.7199 86.2389 21.2257C86.2389 24.7316 84.325 27.0772 80.9191 27.0772C77.5132 27.0772 75.5994 24.7316 75.5994 21.2257ZM83.3448 19.6044C83.3448 18.2461 82.2986 17.4997 80.9191 17.4997C79.5396 17.4997 78.4934 18.2668 78.4934 19.6044V22.8486C78.4934 24.1862 79.5396 24.9533 80.9191 24.9533C82.2986 24.9533 83.3448 24.2084 83.3448 22.8486V19.6044Z" fill="black"/>
<path d="M89.3101 15.6375H92.093V30.5403H86.2389V28.4149H89.3101V15.6375ZM92.1365 14.3442H89.265V11.9114H92.1365V14.3442Z" fill="black"/>
<path d="M94.8955 21.2036C94.8955 17.6962 96.943 15.3743 100.016 15.3743C103.088 15.3743 105.091 17.6534 105.091 20.7217V22.1022H97.7895V22.8471C97.7895 24.1847 98.8358 24.9518 100.038 24.9518C101.24 24.9518 102.086 24.2941 102.219 23.1546H105.002C104.646 25.6317 102.754 27.0772 100.016 27.0772C96.7883 27.0772 94.8955 24.7109 94.8955 21.2036ZM102.24 19.5822C102.24 18.3761 101.283 17.4997 100.014 17.4997C98.7457 17.4997 97.7881 18.3761 97.7881 19.5822V19.9768H102.24V19.5822Z" fill="black"/>
<path d="M112.479 15.3743C114.839 15.3743 116.997 16.5803 117.219 19.4063H114.436C114.28 17.9815 113.479 17.4997 112.366 17.4997C111.254 17.4997 110.274 18.2017 110.274 19.6916V22.7599C110.274 24.1182 111.141 24.9518 112.389 24.9518C113.636 24.9518 114.348 24.4478 114.526 22.958H117.309C117.042 25.7411 115.017 27.0787 112.524 27.0787C109.141 27.0787 107.383 24.7124 107.383 21.2923C107.383 17.6105 109.364 15.3743 112.48 15.3743H112.479Z" fill="black"/>
<path d="M121.026 17.7629H118.777V15.6375H121.026V11.9114H123.809V15.6375H126.635V17.7629H123.809V24.6888H126.635V26.8142H121.026V17.7629Z" fill="black"/>
<path d="M129.417 26.8142V11.9114H134.136L137.074 23.6143H137.162L140.056 11.9114H144.798V26.8142H142.015V15.0019H141.927L138.833 26.8157H135.384L132.29 15.0019H132.201V26.8157H129.418L129.417 26.8142Z" fill="black"/>
<path d="M148.713 26.1136C148.067 25.5002 147.689 24.6459 147.689 23.6364C147.689 21.8391 149.025 20.3493 151.406 20.1512L154.545 19.8881V19.1654C154.545 18.0037 153.854 17.4997 152.764 17.4997C151.675 17.4997 150.85 18.048 150.85 19.0782H148.069C148.158 16.6454 150.161 15.3743 152.877 15.3743C155.592 15.3743 157.284 16.7119 157.284 19.2097V24.6887H159.198V26.8141H154.791V25.0834H154.702C154.057 26.3101 153.01 27.0772 151.274 27.0772C150.25 27.0772 149.36 26.7269 148.714 26.1136H148.713ZM154.545 22.4096V21.9707L151.206 22.2559C150.76 22.3003 150.583 22.5412 150.583 22.9787V23.9423C150.583 24.6001 151.274 24.9504 152.252 24.9504C153.677 24.9504 154.545 23.8108 154.545 22.4082V22.4096Z" fill="black"/>
<path d="M168.077 19.6916C168.077 18.3761 167.565 17.609 166.229 17.609C164.693 17.609 163.781 18.7264 163.781 20.3493V26.8141H160.998V15.6374H163.781V17.2587C164.471 16.0748 165.538 15.3743 167.141 15.3743C169.678 15.3743 170.858 16.9306 170.858 19.495V26.8156H168.075V19.693L168.077 19.6916Z" fill="black"/>
<path d="M174.509 26.1136C173.863 25.5002 173.485 24.6459 173.485 23.6364C173.485 21.8391 174.821 20.3493 177.202 20.1512L180.34 19.8881V19.1654C180.34 18.0037 179.65 17.4997 178.56 17.4997C177.47 17.4997 176.646 18.048 176.646 19.0782H173.865C173.953 16.6454 175.957 15.3743 178.673 15.3743C181.388 15.3743 183.08 16.7119 183.08 19.2097V24.6887H184.994V26.8141H180.586V25.0834H180.498C179.852 26.3101 178.806 27.0772 177.069 27.0772C176.046 27.0772 175.156 26.7269 174.51 26.1136H174.509ZM180.34 22.4096V21.9707L177.002 22.2559C176.556 22.3003 176.379 22.5412 176.379 22.9787V23.9423C176.379 24.6001 177.069 24.9504 178.048 24.9504C179.473 24.9504 180.34 23.8108 180.34 22.4082V22.4096Z" fill="black"/>
<path d="M186.639 27.5812H189.422C189.6 28.4577 190.178 28.9617 191.469 28.9617C192.76 28.9617 194.028 28.502 194.028 26.5067V25.3007C193.315 26.418 192.248 27.0758 190.756 27.0758C187.728 27.0758 186.238 24.4671 186.238 21.2243C186.238 17.9815 187.662 15.3728 190.711 15.3728C192.203 15.3728 193.315 16.0305 194.028 17.1479V15.6359H196.811V26.6383C196.811 29.6623 194.341 31.0871 191.691 31.0871C189.042 31.0871 186.994 30.1441 186.639 27.5798V27.5812ZM191.469 17.4997C190.022 17.4997 189.132 18.3983 189.132 19.6472V22.8028C189.132 24.0517 190.045 24.9504 191.469 24.9504C193.249 24.9504 194.028 23.8108 194.028 22.0579V20.3922C194.028 18.6392 193.249 17.4997 191.469 17.4997Z" fill="black"/>
<path d="M199.614 21.2036C199.614 17.6962 201.661 15.3743 204.734 15.3743C207.807 15.3743 209.809 17.6534 209.809 20.7217V22.1022H202.508V22.8471C202.508 24.1847 203.554 24.9518 204.756 24.9518C205.959 24.9518 206.804 24.2941 206.938 23.1546H209.72C209.365 25.6317 207.472 27.0772 204.734 27.0772C201.507 27.0772 199.614 24.7109 199.614 21.2036ZM206.959 19.5822C206.959 18.3761 206.001 17.4997 204.732 17.4997C203.464 17.4997 202.506 18.3761 202.506 19.5822V19.9768H206.959V19.5822Z" fill="black"/>
<path d="M212.657 15.6375H219V17.785H215.438V26.8142H212.655V15.6375H212.657Z" fill="black"/>
</g>
<defs>
<clipPath id="clip0_208_96">
<rect width="219" height="43" fill="black"/>
</clipPath>
</defs>
</svg>