<svg xmlns="http://www.w3.org/2000/svg" fill="none" viewBox="0 0 199 33"><mask id="a" width="14" height="18" x="13" y="7" maskUnits="userSpaceOnUse" style="mask-type:luminance"><path fill="#fff" fill-rule="evenodd" d="m13.5 16.89 13.5 8v-17l-13.5 9Z" clip-rule="evenodd"/></mask><g mask="url(#a)"><path fill="#03DAC6" fill-rule="evenodd" d="M10.012 26.777h19.347V5.45H10.012v21.326Z" clip-rule="evenodd"/></g><mask id="b" width="27" height="17" x="0" y="16" maskUnits="userSpaceOnUse" style="mask-type:luminance"><path fill="#fff" fill-rule="evenodd" d="m0 24.89 13.551 7.593L27 24.892l-13.5-8-13.5 8Z" clip-rule="evenodd"/></mask><g mask="url(#b)"><path fill="#D6F7F3" fill-rule="evenodd" d="M-2.156 34.637h31.41V14.645h-31.41v19.992Z" clip-rule="evenodd"/></g><mask id="c" width="14" height="18" x="0" y="7" maskUnits="userSpaceOnUse" style="mask-type:luminance"><path fill="#fff" fill-rule="evenodd" d="m0 24.89 13.5-8-13.5-9v17Z" clip-rule="evenodd"/></mask><g mask="url(#c)"><path fill="#03DAC6" fill-rule="evenodd" d="M-2.336 26.921h19.348V5.596H-2.336V26.92Z" clip-rule="evenodd"/></g><mask id="d" width="27" height="17" x="0" y="0" maskUnits="userSpaceOnUse" style="mask-type:luminance"><path fill="#fff" fill-rule="evenodd" d="M13.5.001 0 7.891l13.5 9 13.5-9L13.5 0v.001Z" clip-rule="evenodd"/></mask><g mask="url(#d)"><path fill="#1CB79A" fill-rule="evenodd" d="M-2.156 19.1h31.409V-2.43h-31.41V19.1Z" clip-rule="evenodd"/></g><path fill="#42505D" fill-rule="evenodd" d="M70.367 15.873c0 .514.085 1.009.257 1.486.172.477.425.9.762 1.267.334.366.737.66 1.207.88.471.22 1.005.33 1.602.33.597 0 1.13-.11 1.601-.33.471-.22.874-.514 1.208-.88.335-.368.588-.79.76-1.267.172-.477.259-.972.259-1.486 0-.515-.087-1.01-.259-1.486a3.745 3.745 0 0 0-1.968-2.148c-.47-.22-1.004-.33-1.601-.33s-1.13.11-1.602.33c-.47.221-.873.515-1.207.88-.337.369-.59.79-.762 1.268a4.344 4.344 0 0 0-.257 1.486m-3.261 0c0-1.048.186-1.996.558-2.85a6.653 6.653 0 0 1 1.506-2.188 6.616 6.616 0 0 1 2.254-1.403 7.72 7.72 0 0 1 2.768-.496c.977 0 1.9.165 2.769.496.87.33 1.62.797 2.254 1.403a6.653 6.653 0 0 1 1.506 2.188c.37.854.557 1.802.557 2.85 0 1.046-.187 1.995-.557 2.848a6.644 6.644 0 0 1-1.506 2.19 6.643 6.643 0 0 1-2.254 1.402 7.719 7.719 0 0 1-2.769.496c-.977 0-1.9-.165-2.768-.496a6.656 6.656 0 0 1-2.254-1.403 6.644 6.644 0 0 1-1.506-2.19c-.372-.852-.558-1.801-.558-2.847M93.667 15.873c0-.515-.086-1.01-.258-1.486a3.746 3.746 0 0 0-.76-1.267 3.808 3.808 0 0 0-1.208-.88c-.47-.22-1.006-.331-1.602-.331-.597 0-1.13.11-1.601.33a3.724 3.724 0 0 0-1.968 2.147 4.345 4.345 0 0 0-.258 1.487c0 .514.086 1.009.258 1.486a3.724 3.724 0 0 0 1.968 2.147c.47.22 1.004.33 1.601.33.596 0 1.131-.11 1.602-.33.47-.22.872-.514 1.208-.88.335-.368.588-.79.76-1.267.172-.477.258-.972.258-1.486ZM82.86 9.267h3.095v1.982h.055c.47-.807 1.103-1.395 1.9-1.762a6.081 6.081 0 0 1 2.58-.551c.995 0 1.89.179 2.686.537a6.046 6.046 0 0 1 2.037 1.473c.561.624.986 1.358 1.276 2.201.29.845.434 1.754.434 2.726a7.9 7.9 0 0 1-.462 2.725 6.787 6.787 0 0 1-1.29 2.201 5.946 5.946 0 0 1-1.995 1.473 6.05 6.05 0 0 1-2.552.537 6.215 6.215 0 0 1-1.629-.193 5.536 5.536 0 0 1-1.248-.496 4.935 4.935 0 0 1-.923-.646 4.626 4.626 0 0 1-.624-.675h-.082v6.163L82.86 28.85V9.267ZM53.804 15.873c0-.515-.086-1.01-.258-1.486a3.743 3.743 0 0 0-1.968-2.148c-.471-.22-1.005-.33-1.602-.33-.597 0-1.13.11-1.601.33a3.722 3.722 0 0 0-1.968 2.147 4.342 4.342 0 0 0-.259 1.487c0 .514.086 1.009.259 1.486.17.477.425.9.76 1.267.334.366.737.66 1.208.88.47.22 1.004.33 1.601.33s1.13-.11 1.602-.33a3.743 3.743 0 0 0 1.968-2.147c.172-.477.258-.972.258-1.486ZM43 9.267h3.095v1.982h.055c.47-.807 1.103-1.395 1.9-1.762a6.082 6.082 0 0 1 2.58-.551c.994 0 1.89.179 2.686.537a6.035 6.035 0 0 1 2.037 1.473c.56.624.986 1.358 1.275 2.201a8.35 8.35 0 0 1 .435 2.726c0 .971-.154 1.88-.46 2.725a6.832 6.832 0 0 1-1.29 2.201 5.963 5.963 0 0 1-1.997 1.473 6.043 6.043 0 0 1-2.551.537c-.616 0-1.16-.065-1.63-.193a5.56 5.56 0 0 1-1.248-.496 4.976 4.976 0 0 1-.924-.646 4.706 4.706 0 0 1-.623-.675h-.082v6.163L43 28.85V9.267ZM108.261 14.55c-.019-.974-.317-1.74-.896-2.298-.579-.561-1.385-.841-2.417-.841-.977 0-1.75.285-2.32.854-.57.57-.919 1.33-1.046 2.285h6.679Zm-6.675 2.478c.108.992.489 1.761 1.141 2.313.651.55 1.439.825 2.361.825.815 0 1.498-.17 2.05-.51a5.737 5.737 0 0 0 1.453-1.278l2.334 1.788c-.759.955-1.611 1.633-2.552 2.037a7.437 7.437 0 0 1-2.959.606 7.717 7.717 0 0 1-2.769-.496 6.654 6.654 0 0 1-2.254-1.403 6.667 6.667 0 0 1-1.506-2.19c-.372-.852-.557-1.801-.557-2.847s.185-1.996.557-2.85a6.676 6.676 0 0 1 1.506-2.188 6.614 6.614 0 0 1 2.254-1.403 7.718 7.718 0 0 1 2.769-.496c.905 0 1.733.161 2.484.483a5.33 5.33 0 0 1 1.928 1.388c.533.606.95 1.354 1.248 2.244.3.891.448 1.913.448 3.069v.908h-9.936ZM116.195 15.913v6.561h-3.257V9.264h3.257v1.172s1.452-1.407 5.077-1.158v2.908s-5.077-.803-5.077 3.727ZM61.508 15.913v6.561H58.25V9.264h3.258v1.172s1.451-1.407 5.077-1.158v2.908s-5.077-.803-5.077 3.727M122.531 12.072V9.264h2.688V5.292l3.258-1.891v5.863h7.972l-4.866 2.808h-3.106v5.781c0 .66.121 1.182.365 1.568.245.385.729.578 1.454.578.288 0 .605-.032.95-.096.343-.064.614-.17.813-.316v2.779c-.344.165-.764.279-1.262.344a10.3 10.3 0 0 1-1.316.096c-.868 0-1.579-.096-2.131-.288-.553-.193-.987-.487-1.304-.882-.316-.394-.533-.885-.651-1.472-.119-.587-.176-1.266-.176-2.037v-6.055h-2.688Z" clip-rule="evenodd"/><path fill="#42505D" fill-rule="evenodd" d="M133.48 9.266h3.584l3.638 9.166h.054l3.258-9.166h3.394l-6.163 16.047c-.236.624-.494 1.17-.774 1.638-.281.468-.611.861-.99 1.184-.381.32-.83.559-1.345.715-.516.155-1.136.233-1.859.233a9.56 9.56 0 0 1-2.498-.33l.408-2.972c.252.091.519.17.801.234.279.063.565.095.854.095.398 0 .735-.035 1.004-.11a1.8 1.8 0 0 0 .693-.343c.19-.156.348-.359.476-.606.125-.248.262-.546.407-.895l.625-1.568-5.567-13.322ZM159.335 15.873c0-.515-.086-1.01-.258-1.486a3.744 3.744 0 0 0-.76-1.267 3.816 3.816 0 0 0-1.208-.88c-.471-.22-1.004-.331-1.602-.331-.597 0-1.13.11-1.601.33a3.728 3.728 0 0 0-1.968 2.147 4.347 4.347 0 0 0-.258 1.487c0 .514.086 1.009.258 1.486a3.728 3.728 0 0 0 1.968 2.147c.471.22 1.004.33 1.601.33.598 0 1.131-.11 1.602-.33.471-.22.872-.514 1.208-.88.335-.368.588-.79.76-1.267.172-.477.258-.972.258-1.486Zm-10.804-10.58 3.258-1.89v7.542h.082c.163-.22.371-.444.624-.674.254-.23.562-.445.923-.647a5.561 5.561 0 0 1 1.248-.496 6.23 6.23 0 0 1 1.63-.193c.922 0 1.774.179 2.551.537a5.962 5.962 0 0 1 1.997 1.473 6.845 6.845 0 0 1 1.29 2.201c.306.845.46 1.754.46 2.726 0 .971-.145 1.88-.434 2.725a6.327 6.327 0 0 1-1.276 2.201 6.031 6.031 0 0 1-2.037 1.473c-.795.357-1.691.537-2.686.537a6.122 6.122 0 0 1-2.58-.55c-.796-.367-1.429-.955-1.9-1.762h-.055v1.982h-3.095V5.292ZM167.215 15.873c0 .514.085 1.009.258 1.486a3.728 3.728 0 0 0 1.968 2.147c.471.22 1.004.33 1.602.33.597 0 1.13-.11 1.601-.33.471-.22.874-.514 1.208-.88.335-.368.588-.79.76-1.267.172-.477.258-.972.258-1.486 0-.515-.086-1.01-.258-1.486a3.744 3.744 0 0 0-.76-1.267 3.793 3.793 0 0 0-1.208-.88c-.471-.22-1.004-.331-1.601-.331-.598 0-1.131.11-1.602.33a3.728 3.728 0 0 0-1.968 2.147 4.323 4.323 0 0 0-.258 1.487m-3.254 0c0-1.048.185-1.996.557-2.85a6.643 6.643 0 0 1 1.506-2.188 6.614 6.614 0 0 1 2.254-1.403 7.716 7.716 0 0 1 2.768-.496c.977 0 1.901.165 2.769.496.87.33 1.62.797 2.254 1.403a6.643 6.643 0 0 1 1.506 2.188c.372.854.557 1.802.557 2.85 0 1.046-.185 1.995-.557 2.848a6.634 6.634 0 0 1-1.506 2.19 6.644 6.644 0 0 1-2.254 1.402 7.717 7.717 0 0 1-2.769.496c-.976 0-1.9-.165-2.768-.496a6.654 6.654 0 0 1-2.254-1.403 6.634 6.634 0 0 1-1.506-2.19c-.372-.852-.557-1.801-.557-2.847" clip-rule="evenodd"/><mask id="e" width="16" height="14" x="177" y="9" maskUnits="userSpaceOnUse" style="mask-type:luminance"><path fill="#fff" fill-rule="evenodd" d="M177.629 9.264h14.632v13.212h-14.632V9.264Z" clip-rule="evenodd"/></mask><g mask="url(#e)"><path fill="#42505D" fill-rule="evenodd" d="m182.869 15.376-4.507-6.112h3.963l2.607 3.964 2.824-3.964h3.719l-4.452 6.112 5.239 7.1h-3.964l-3.393-4.734-3.421 4.734h-3.855l5.24-7.1Z" clip-rule="evenodd"/></g></svg>