<?xml version="1.0" encoding="UTF-8"?>
<!-- Generator: Adobe Illustrator 18.1.1, SVG Export Plug-In . SVG Version: 6.00 Build 0)  -->
<svg version="1.1" id="Layer_1" xmlns="http://www.w3.org/2000/svg" xmlns:xlink="http://www.w3.org/1999/xlink" x="0px" y="0px" viewBox="0 0 514.4 117.9" enable-background="new 0 0 514.4 117.9" xml:space="preserve">
<g>
	<defs>
		<rect id="SVGID_1_" y="0" width="514.4" height="117.9"/>
	</defs>
	<clipPath id="SVGID_2_">
		<use xlink:href="#SVGID_1_" overflow="visible"/>
	</clipPath>
	<path clip-path="url(#SVGID_2_)" d="M181.3,58.4c10.2,0,16.5-6.1,16.5-14.8c0-8.8-6.3-14.9-16.5-14.9h-16.2v29.8H181.3z    M165.1,64.2v30.3h-6.4V22.9h23.5c13.1,0,21.9,8.9,21.9,20.7c0,11.8-8.8,20.6-21.9,20.6H165.1z"/>
	<path clip-path="url(#SVGID_2_)" d="M238.7,52.6c-1.1-0.3-2.6-0.5-4.2-0.5c-8.2,0-14.2,5.3-14.2,16.3v26.2h-6.1V46.3h5.9v9   c3-6.7,8.6-9.6,14.9-9.6c1.6,0,2.9,0.2,3.7,0.5V52.6z"/>
	<path clip-path="url(#SVGID_2_)" d="M285.9,70.5c0-12.6-8.1-19.9-17.6-19.9c-9.4,0-17.5,7.3-17.5,19.9c0,12.5,8.1,19.9,17.5,19.9   C277.8,90.3,285.9,83,285.9,70.5 M292.1,70.5c0,15-10.4,25.3-23.7,25.3c-13.1,0-23.6-10.3-23.6-25.3c0-15.1,10.2-25.4,23.6-25.4   C281.5,45,292.1,55.3,292.1,70.5"/>
	<path clip-path="url(#SVGID_2_)" d="M327.4,50.6c-10,0-16.6,8.6-16.6,19.8c0,11.4,6.6,20,16.6,20c10.1,0,16.7-8.7,16.7-20   C344.1,59,337.5,50.6,327.4,50.6 M305,113.7V46.3h6v9.6c2.3-4.9,7.9-10.7,17.5-10.7c13.6,0,21.8,10.9,21.8,25.1   c0,14.3-8.5,25.3-22,25.3c-9.3,0-14.8-5.5-17.3-10.3v28.3H305z"/>
	<path clip-path="url(#SVGID_2_)" d="M397.5,66.5c-0.2-9-6-16.1-16.1-16.1c-9,0-15.3,7.2-16,16.1H397.5z M403.5,80.9   c-2.7,8.2-10,14.9-21.1,14.9c-12.7,0-23.4-9.4-23.4-25.5c0-15.1,10.3-25.2,22.3-25.2c14.2,0,22.4,10.1,22.5,24.3   c0,0.8-0.1,1.4-0.2,2.2h-38.4V72c0.1,11.1,7.7,18.5,17.2,18.5c8.7,0,13.7-5.2,15.8-11.5L403.5,80.9z"/>
	<path clip-path="url(#SVGID_2_)" d="M441.2,52.6c-1.1-0.3-2.6-0.5-4.2-0.5c-8.2,0-14.2,5.3-14.2,16.3v26.2h-6.1V46.3h5.9v9   c3-6.7,8.6-9.6,14.9-9.6c1.6,0,2.9,0.2,3.7,0.5V52.6z"/>
</g>
<rect x="452.2" y="21.6" width="6.1" height="72.9"/>
<polygon points="507.9,46.3 492,82 474.9,46.3 468,46.3 488.7,88.2 476.6,114.1 483.2,114.1 514.4,46.3 "/>
<g>
	<defs>
		<rect id="SVGID_3_" y="0" width="514.4" height="117.9"/>
	</defs>
	<clipPath id="SVGID_4_">
		<use xlink:href="#SVGID_3_" overflow="visible"/>
	</clipPath>
	<path clip-path="url(#SVGID_4_)" fill="#91D9F8" d="M29.5,0L29.5,0H0v29.5v58.9c0,16.2,13.3,29.5,29.5,29.5s29.5-13.3,29.5-29.5   V29.5C58.9,13.3,45.7,0,29.5,0"/>
	<path clip-path="url(#SVGID_4_)" fill="#0073B9" d="M90.2,36.8c-5.1,0-9.2-4.1-9.2-9.2s4.1-9.2,9.2-9.2c5.1,0,9.2,4.1,9.2,9.2   S95.3,36.8,90.2,36.8 M88.4,0H29.5H0v29.5c0,16.2,13.3,29.5,29.5,29.5h58.9c16.2,0,29.5-13.3,29.5-29.5C117.9,13.3,104.6,0,88.4,0"/>
	<path clip-path="url(#SVGID_4_)" fill="#0C2335" d="M29.5,0H0v29.5c0,16.2,13.3,29.5,29.5,29.5h29.5V29.5C58.9,13.3,45.7,0,29.5,0"/>
</g>
</svg>