<svg viewBox="0 0 277 45" fill="none" xmlns="http://www.w3.org/2000/svg">
    <path d="M10.4 0.2L1.6 5.2C1.3 5.3 1.3 5.7 1.6 5.8L22.2 17.6C22.4 17.7 22.7 17.7 22.9 17.6L31.7 12.6C32 12.5 32 12.1 31.7 12L11.2 0.2C10.9 0.1 10.7 0.1 10.4 0.2Z" fill="#2d3135" />
    <path d="M33.9 0.199994L25.1 5.19999C24.8 5.29999 24.8 5.69999 25.1 5.79999L34 11C34.2 11.1 34.5 11.1 34.7 11L43.5 5.99999C43.8 5.89999 43.8 5.49999 43.5 5.39999L34.6 0.299992C34.4 0.0999923 34.1 0.0999939 33.9 0.199994Z" fill="#2d3135" />
    <path d="M23.6 20.3V30.4C23.6 30.7 23.9 30.9 24.2 30.7L33.1 25.6C33.2 25.5 33.3 25.4 33.3 25.3V14.9C33.3 14.6 33 14.4 32.7 14.6L24 19.6C23.7 19.8 23.6 20 23.6 20.3Z" fill="#2d3135" />
    <path d="M35.6 12.9L44.4 7.9C44.6 7.8 45 7.9 45 8.2V31.8C45 32.1 44.9 32.3 44.6 32.4L24.1 44.2C23.9 44.3 23.5 44.2 23.5 43.9V33.8C23.5 33.5 23.6 33.3 23.9 33.2L34.9 26.9C35.1 26.8 35.3 26.5 35.3 26.2V13.6C35.3 13.3 35.4 13.1 35.6 12.9Z" fill="#2d3135" />
    <path d="M21.6 20.2V30.6C21.6 30.8 21.4 30.9 21.2 30.8L10.4 24.6C10.2 24.5 9.8 24.6 9.8 24.9V37.1C9.8 37.4 9.5 37.6 9.2 37.4L0.4 32.4C0.2 32.3 0 32 0 31.8V8.1C0 7.8 0.3 7.6 0.6 7.8L21.2 19.6C21.4 19.7 21.6 20 21.6 20.2Z" fill="#2d3135" />
    <path d="M12.3 28L21.1 33.1C21.3 33.2 21.5 33.5 21.5 33.7V43.9C21.5 44.2 21.2 44.4 20.9 44.2L12.1 39.1C11.9 39 11.7 38.7 11.7 38.5V28.4C11.8 28.1 12.1 27.9 12.3 28Z" fill="#2d3135" />
    <path d="M79.1 15.5C79.1 19.8 76.2 22.3 72.7 22.7C71.5 22.8 70.7 22.9 69.3 22.9H65.8V31.8H61.1V8.10001H69.3C70.7 8.10001 71.6 8.1 72.7 8.3C76.3 8.7 79.1 11.1 79.1 15.5ZM74.1 15.5C74.1 13.3 72.9 12.2 71.3 12C70.8 11.9 70.1 11.9 69.2 11.9H65.8V19.1H69.2C70.1 19.1 70.8 19.1 71.3 19C73 18.7 74.1 17.7 74.1 15.5Z" fill="#2d3135" />
    <path d="M92 13.2V17C88.1 16.7 86.1 18.5 86.1 23.4V31.7H81.4V13.5H86.1V16.8L87.5 14.3C88.4 13.5 89.6 13.1 90.6 13.1C91.2 13.1 91.6 13.1 92 13.2Z" fill="#2d3135" />
    <path d="M111.7 22.6C111.7 28.1 108.3 32.2 102.3 32.2C96.3 32.2 92.9 28.1 92.9 22.6C92.9 17.1 96.3 13 102.3 13C108.3 13 111.7 17.1 111.7 22.6ZM106.8 22.6C106.8 18.7 105.1 16.3 102.3 16.3C99.5 16.3 97.8 18.6 97.8 22.6C97.8 26.5 99.5 28.9 102.3 28.9C105.1 28.8 106.8 26.5 106.8 22.6Z" fill="#2d3135" />
    <path d="M120.2 25.2V26.8C120.3 28.6 121 29 123.6 28.8V31.9C122.5 32.1 121.5 32.1 120.5 32.1C117 32.1 115.7 30.9 115.5 28.4C115.4 27.6 115.4 26.8 115.4 25.8V16.8H112.7V13.7H115.4V7.7H120.1V13.7H123.9V16.8H120.1V25.2H120.2Z" fill="#2d3135" />
    <path d="M144 22.6C144 28.1 140.6 32.2 134.6 32.2C128.6 32.2 125.2 28.1 125.2 22.6C125.2 17.1 128.6 13 134.6 13C140.6 13 144 17.1 144 22.6ZM139.2 22.6C139.2 18.7 137.5 16.3 134.7 16.3C131.9 16.3 130.2 18.6 130.2 22.6C130.2 26.5 131.9 28.9 134.7 28.9C137.4 28.8 139.2 26.5 139.2 22.6Z" fill="#2d3135" />
    <path d="M163.1 20.1H158.5C158.1 17.5 156.7 16.4 154.7 16.4C152.3 16.4 150.6 18.3 150.6 22.5C150.6 27 152.3 28.9 154.7 28.9C156.5 28.9 157.9 27.7 158.4 25.4H163.1C162.3 29.9 159 32.2 154.4 32.2C149.4 32.2 145.7 29.1 145.7 22.8C145.7 16.6 149.8 13.1 154.8 13.1C159.7 13 162.8 16 163.1 20.1Z" fill="#2d3135" />
    <path d="M183.6 22.6C183.6 28.1 180.2 32.2 174.2 32.2C168.2 32.2 164.8 28.1 164.8 22.6C164.8 17.1 168.2 13 174.2 13C180.2 13 183.6 17.1 183.6 22.6ZM178.7 22.6C178.7 18.7 177 16.3 174.2 16.3C171.4 16.3 169.7 18.6 169.7 22.6C169.7 26.5 171.4 28.9 174.2 28.9C177 28.8 178.7 26.5 178.7 22.6Z" fill="#2d3135" />
    <path d="M185.7 31.7V7.60001H190.4V31.7H185.7Z" fill="#2d3135" />
    <path d="M219.6 31.7H202.6V7.60001H207.3V27.8H219.6V31.7Z" fill="#2d3135" />
    <path d="M232.3 29L231.4 30.9C230.1 31.8 228.6 32.1 226.9 32.1C223.8 32.1 221.1 30.3 221.1 26.8C221.1 22.8 224.5 20.5 231.1 20.5H232.3V20.1C232.3 19.6 232.3 19 232.2 18.4C232.1 17.1 231.2 16.2 229.4 16.2C227.5 16.2 226.5 17.3 226.4 19.3H221.8C221.9 15.2 225.3 12.9 229.6 12.9C234.7 12.9 236.6 15.1 236.9 18.3C237 19.2 237 20.1 237 21.1V27C237 28.4 237.1 29.6 237.3 31.6H232.7L232.3 29ZM232.3 25V23.5C228.5 23.2 226 24.1 226 26.5C226 28.1 227.1 28.9 228.8 28.9C230.7 28.8 232.3 27.5 232.3 25Z" fill="#2d3135" />
    <path d="M259.4 22.3C259.4 28.9 255.4 32.2 250.7 32.2C249.2 32.2 247.4 31.8 246.4 31.2L245.2 29.3V31.7H240.5V7.60001H245.2V16.3L246.6 14.3C247.6 13.5 249.5 13 251.3 13C256.4 13 259.4 16.9 259.4 22.3ZM254.5 22.6C254.5 18.9 252.7 16.4 249.9 16.4C247.3 16.4 245.2 18 245.2 22.4V23.3C245.2 27.4 247.6 28.9 249.7 28.9C252.5 28.8 254.5 26.8 254.5 22.6Z" fill="#2d3135" />
    <path d="M276 18.8H271.3C271 17.1 270.1 16.2 268.5 16.2C267.1 16.2 266.3 17 266.3 18.1C266.3 19.5 267.4 20.2 270.4 20.9C274.1 21.9 276.3 23.4 276.3 26.7C276.3 30.4 273 32.1 268.8 32.1C264.4 32.1 261.3 30.2 260.8 26.1H265.5C265.9 28.1 267.2 29 268.9 29C270.4 29 271.6 28.4 271.6 27C271.6 25.6 270.4 24.8 267.3 24C263.9 23.1 261.6 21.7 261.6 18.5C261.6 15 264.5 12.9 268.8 12.9C273.1 13 275.6 15.5 276 18.8Z" fill="#2d3135" />
</svg>