<?xml version="1.0" ?>
<svg xmlns="http://www.w3.org/2000/svg"  viewBox="0 0 132 29">
	<!-- Generator: Sketch 62 (91390) - https://sketch.com -->
	<desc>Created with Sketch.</desc>
	<g id="Symbols" stroke="none" stroke-width="1" fill="none" fill-rule="evenodd">
		<g id="Group-4">
			<g id="Group-3" transform="translate(-0.000000, 1.978020)" fill="#0A262E">
				<path d="M 120.34352,5.68681 L 122.11222,10.63398 C 122.89005,12.60033 123.56168,14.60843 124.12411,16.6493 C 124.12411,16.6493 124.43363,15.58116 126.04757,10.63398 L 127.63939,5.68681 L 131.43103,5.68681 L 125.90386,20.74196 C 124.25676,25.2394 121.88008,26.94842 118.93962,26.94842 C 118.43392,26.96206 117.9286,26.90916 117.43623,26.79101 L 117.43623,23.76649 C 117.76908,23.84931 118.11056,23.89084 118.45323,23.89017 C 120.32142,23.89017 121.54845,22.91198 122.33331,20.86564 L 116.3529,5.68681 L 120.34352,5.68681 M 6.42533,3.61397e-15 C 11.12378,3.61397e-15 14.07292,2.85806 14.07292,6.72484 C 14.07292,11.02873 10.70888,13.55054 6.52625,13.55054 L 3.83501,13.55054 L 3.83501,20.52196 L 3.69704e-14,20.52196 L 3.69704e-14,3.61397e-15 L 6.42533,3.61397e-15 M 25.63282,5.03765 L 25.63282,8.55477 C 25.12263,8.33771 24.56754,8.23398 24.00932,8.25138 C 21.86819,8.25138 20.47998,10.11668 20.47998,12.52136 L 20.47998,20.52196 L 16.58594,20.52196 L 16.65653,5.04889 L 20.49175,5.04889 L 20.45645,7.79067 C 21.00962,6.0804 22.67659,4.92285 24.55049,4.94776 C 24.91376,4.93536 25.27725,4.96555 25.63282,5.03765 M 35.66789,4.94505 C 40.6599,4.94505 43.22397,8.39806 43.22397,12.68417 C 43.22397,16.97029 40.56913,20.52196 35.66789,20.52196 C 30.86275,20.52196 28.2495,17.28732 28.14886,13.10091 L 28.145,12.873 L 28.14904,12.63433 C 28.25776,8.26653 31.12796,4.94505 35.66789,4.94505 M 49.61982,5.68681 L 52.63311,10.51335 L 55.80991,5.68681 L 60.06122,5.68681 L 54.47846,13.06667 L 59.87435,20.52196 L 55.65808,20.52196 L 52.48128,15.54459 L 49.176,20.52196 L 44.98309,20.52196 L 50.61257,13.03435 L 45.33347,5.68681 L 49.61982,5.68681 M 66.59507,4.94505 L 66.59507,20.52196 L 62.32294,20.52196 L 62.32294,4.94505 L 66.59507,4.94505 M 83.50681,7.87329 C 84.31368,6.05659 86.17683,4.90216 88.20938,4.95952 C 91.42089,4.95952 93.2331,6.93552 93.2331,10.39632 L 93.2331,20.52196 L 89.47105,20.52196 L 89.47105,11.08848 C 89.47105,9.14597 88.66817,7.99609 87.03947,7.99609 C 85.73193,7.99609 83.91972,9.00084 83.91972,12.27185 L 83.91972,20.52196 L 80.19207,20.52196 L 80.19207,11.08848 C 80.19207,9.14597 79.37772,7.99609 77.76049,7.99609 C 76.41854,7.99609 74.60633,9.00084 74.60633,12.27185 L 74.60633,20.52196 L 70.86721,20.52196 L 70.86721,5.1493 L 74.56045,5.1493 L 74.56045,7.57186 C 75.38775,5.9204 77.1356,4.89703 79.02216,4.95952 C 81.03122,4.79784 82.88969,6.00533 83.50681,7.87329 M 101.52608,4.94505 L 101.52608,20.52196 L 97.25394,20.52196 L 97.25394,4.94505 L 101.52608,4.94505 M 110.01208,0.98901 L 110.01208,4.75275 L 113.84464,4.75275 L 113.84464,7.51887 L 110.01208,7.51887 L 110.01208,15.46581 C 109.95239,16.00818 110.13726,16.54891 110.51544,16.93808 C 110.89362,17.32724 111.4249,17.52348 111.96198,17.47238 C 112.71636,17.45535 113.45211,17.23206 114.09118,16.8262 L 114.09118,20.00043 C 113.21675,20.34805 112.28515,20.52499 111.34563,20.52196 C 107.98373,20.52196 106.35881,18.70807 106.35881,15.40912 L 106.35881,7.47353 L 104.0391,7.47353 L 104.0391,4.75275 L 106.35881,4.75275 L 106.35881,0.98901 L 110.01208,0.98901 M 35.66789,7.86092 C 33.20592,7.86092 32.02599,10.13004 32.02599,12.78283 C 32.02599,15.40273 33.26265,17.66089 35.70193,17.66089 C 38.1412,17.66089 39.36651,15.46851 39.36651,12.80476 C 39.36651,10.14101 38.37946,7.86092 35.66789,7.86092 M 6.08892,3.13826 L 3.84622,3.13826 L 3.84622,10.44591 L 5.99921,10.44591 C 8.89229,10.44591 10.18184,8.88799 10.18184,6.72484 C 10.18184,4.56168 8.86987,3.13826 6.08892,3.13826" id="Combined-Shape"/>
			</g>
			<path d="M 99.23295,1.81923e-13 C 100.6208,1.81923e-13 101.74588,1.02612 101.74588,2.2919 C 101.90243,3.18643 101.46661,4.08113 100.63384,4.5748 C 99.80108,5.06847 98.72764,5.06847 97.89487,4.5748 C 97.0621,4.08113 96.62628,3.18643 96.78283,2.2919 C 96.78283,1.02612 97.90791,1.81923e-13 99.29577,1.81923e-13" id="Path" fill="#30E600"/>
			<path d="M 64.30194,1.81923e-13 C 65.6898,1.81923e-13 66.81488,1.02612 66.81488,2.2919 C 66.97143,3.18643 66.53561,4.08113 65.70284,4.5748 C 64.87008,5.06847 63.79663,5.06847 62.96387,4.5748 C 62.1311,4.08113 61.69528,3.18643 61.85183,2.2919 C 61.85183,1.02612 62.97691,1.81923e-13 64.36477,1.81923e-13" id="Path-Copy" fill="#30E600"/>
		</g>
	</g>
</svg>