<?xml version="1.0" ?>
<svg xmlns="http://www.w3.org/2000/svg" viewBox="0 0 172.5 41.85" version="1.2" baseProfile="tiny-ps">
	<path d="M154.16,128.93l-.95-1.17c-.47-.56-.94-1.13-1.42-1.69l-1.09-1.28c-.47-.56-.93-1.12-1.41-1.68l-1.16-1.35c-.36-.43-.72-.88-1.09-1.31s-.58-.68-.87-1L145,118l-1.08-1.27L142.45,115c-.45-.54-.91-1.06-1.36-1.6s-1.09-1.31-1.64-2c-.38-.46-.77-.9-1.16-1.35l-1.09-1.32-1.11-1.3-1.43-1.71-1.1-1.28c-.39-.47-.77-.94-1.17-1.4l-.91-1v.32c0,7.19,0,14.37,0,21.55a2.18,2.18,0,0,0,.44,1.37,5.18,5.18,0,0,0,2.66,1.94,4.66,4.66,0,0,0,1.79.2v.73H124.58v-.72h.21a5.07,5.07,0,0,0,4.61-2.85.6.6,0,0,0,0-.26q0-12.42,0-24.83a1.41,1.41,0,0,0-.25-.66,5.78,5.78,0,0,0-3.73-2.66,8.35,8.35,0,0,0-1-.14v-.66h6.91a.44.44,0,0,1,.37.17l1.12,1.35L134,98.26c.37.43.73.87,1.09,1.31l.88,1,1.17,1.4,1.08,1.27,1.46,1.74,1.37,1.6,1.63,2,1.16,1.35,1.09,1.32.9,1,1.37,1.64,1.11,1.3,1.43,1.71.82,1c.48.58,1,1.16,1.45,1.73a2.42,2.42,0,0,0,.31.25V98.74a.66.66,0,0,0-.14-.44,5.74,5.74,0,0,0-3.44-2.12,9.05,9.05,0,0,0-.93-.13v-.64h11.46V96c-.66.19-1.32.34-2,.55A7.66,7.66,0,0,0,155,97.81q-.36.28-.69.6a.87.87,0,0,0-.1.24s0,0,0,.07v30.21Z" transform="translate(-21.75 -87.07)"/>
	<path d="M194.25,103.15l-.95.41c-.11-.27-.23-.55-.34-.83a12.3,12.3,0,0,0-1.54-2.65,10.84,10.84,0,0,0-1.86-2c-.4-.33-.82-.64-1.23-1a.54.54,0,0,0-.32-.11H177.3c-.27,0-.41.19-.57.33a5,5,0,0,0-1.13,1.42.67.67,0,0,0-.1.34v11.4h.29c3.18,0,6.37,0,9.56,0a1.81,1.81,0,0,0,1.09-.36,5.14,5.14,0,0,0,1.82-2.13,4.6,4.6,0,0,0,.45-1.89v-.51h.72v10.73h-.72V116a4.79,4.79,0,0,0-1-2.92,4.62,4.62,0,0,0-1.8-1.48.72.72,0,0,0-.28-.07H175.5v.29q0,6.06,0,12.12a2,2,0,0,0,.32,1.2,4.88,4.88,0,0,0,1.24,1.32.46.46,0,0,0,.25.08q5.35,0,10.71,0a1,1,0,0,0,.59-.28c.68-.58,1.38-1.14,2-1.78a10.25,10.25,0,0,0,1.78-2.45c.3-.59.55-1.19.83-1.79l.1-.2.94.42v.09c-.09.26-.18.52-.28.77-.32.8-.63,1.6-1,2.39a19.27,19.27,0,0,1-1.81,3.19c-.28.42-.59.83-.88,1.23a.31.31,0,0,1-.15.08H166.23v-.73h.28a4.9,4.9,0,0,0,3.18-1.1,4.73,4.73,0,0,0,1.3-1.58,1,1,0,0,0,.12-.48q0-12.32,0-24.64a1.63,1.63,0,0,0-.3-.88,5.81,5.81,0,0,0-2.34-2.11,5.36,5.36,0,0,0-2.29-.58h-.1v-.68h23.82a.6.6,0,0,1,.57.27A25.37,25.37,0,0,1,193,99.8a20,20,0,0,1,1.22,3.23l0,0Z" transform="translate(-21.75 -87.07)"/>
	<path d="M21.75,95.39H35.21c.36,0,.71,0,1.06,0a5.11,5.11,0,0,1,1.65.29,19.37,19.37,0,0,1,3.69,1.41,7.51,7.51,0,0,1,1.69,1.17,8.1,8.1,0,0,1,2.08,2.84,7.27,7.27,0,0,1,.66,2.41,8.64,8.64,0,0,1,.09,1,8.92,8.92,0,0,1-.75,3.48,8.4,8.4,0,0,1-2,2.82,9.14,9.14,0,0,1-3.47,1.9,11.05,11.05,0,0,1-2.6.55,17.82,17.82,0,0,1-2.06.08,11.74,11.74,0,0,1-3.06-.51c-.65-.21-1.29-.46-1.94-.69,0,.06,0,.13,0,.2v12a1.5,1.5,0,0,0,.38.86,5,5,0,0,0,3.36,2.23,7.12,7.12,0,0,0,1.14.08v.7H21.91v-.72h.33A4.87,4.87,0,0,0,25.71,126a5.8,5.8,0,0,0,1-1.28.77.77,0,0,0,.09-.36q0-12.45,0-24.88a1.41,1.41,0,0,0-.24-.62,5.7,5.7,0,0,0-2.35-2.19,5.16,5.16,0,0,0-1.85-.56l-.59,0Zm8.45,1.87v13.85a.65.65,0,0,0,0,.14.28.28,0,0,0,.1.15,10.18,10.18,0,0,0,3.92.84,9.45,9.45,0,0,0,1.68-.14,2.38,2.38,0,0,0,1.05-.32,9.75,9.75,0,0,0,1.67-1.41,8,8,0,0,0,1.46-2.09,8.64,8.64,0,0,0,.74-5.56,9,9,0,0,0-1.39-3.25A2.85,2.85,0,0,0,38,98.24c-.37-.13-.73-.33-1.1-.48A11.34,11.34,0,0,0,33.24,97a11,11,0,0,0-1.28,0C31.37,97.11,30.79,97.19,30.2,97.26Z" transform="translate(-21.75 -87.07)"/>
	<path d="M109.69,87.07a5.53,5.53,0,0,1,.92.43,2.4,2.4,0,0,1,.63,3.27,2.33,2.33,0,0,1-2.16,1.1,2.41,2.41,0,0,1-.39-4.75s0,0,.07-.05Z" transform="translate(-21.75 -87.07)"/>
	<path d="M94,87.07a9.44,9.44,0,0,1,1,.54,2,2,0,0,1,.84,1.33,2.3,2.3,0,0,1-.73,2.29,2.27,2.27,0,0,1-2,.61,2.41,2.41,0,0,1-1.71-1.11A2.49,2.49,0,0,1,91.59,88,2.37,2.37,0,0,1,93,87.12l0-.05Z" transform="translate(-21.75 -87.07)"/>
	<path d="M51.32,128.17v-.72h.39a4.81,4.81,0,0,0,2.88-1,4.69,4.69,0,0,0,1.54-1.82.94.94,0,0,0,.07-.37q0-10.12,0-20.24c0-1.42,0-2.85,0-4.27a1.83,1.83,0,0,0-.36-1.12A6.09,6.09,0,0,0,54.13,97a5.57,5.57,0,0,0-2.36-.86l-.54-.06v-.67h.24c4.89,0,9.77,0,14.66,0a12.5,12.5,0,0,1,1.71.22,17,17,0,0,1,3.23.83,7.63,7.63,0,0,1,4.41,4.12,6.37,6.37,0,0,1,.58,2.13c0,.5,0,1,0,1.49a6.8,6.8,0,0,1-.5,2.27,7.57,7.57,0,0,1-2,2.9,7.88,7.88,0,0,1-2.32,1.45c-.65.28-1.31.53-2,.77-.37.13-.76.22-1.17.34l.2.3L71,115.84c.89,1.2,1.79,2.4,2.68,3.61l2.45,3.37,1.32,1.78a12.47,12.47,0,0,0,.91,1.22,4.93,4.93,0,0,0,1.8,1.21,4.8,4.8,0,0,0,2.13.42v.73H75.74a.44.44,0,0,1-.39-.22c-.73-1-1.47-2-2.21-3l-1.82-2.47-1.65-2.25-1.81-2.46-2-2.74c-.58-.8-1.17-1.59-1.74-2.38a.41.41,0,0,0-.36-.19,17.36,17.36,0,0,1-1.77,0c-.7-.06-1.39-.19-2.09-.29l-.23,0v.3c0,3.84,0,7.69,0,11.54a2.19,2.19,0,0,0,.45,1.37,5.12,5.12,0,0,0,2.63,1.92,4.13,4.13,0,0,0,1.39.22h.42v.72Zm8.35-16.8c.44.08.88.17,1.32.23s.89.08,1.34.1a11.74,11.74,0,0,0,2.58-.23,14.28,14.28,0,0,0,2.73-.73,6.63,6.63,0,0,0,2.48-1.81,6.52,6.52,0,0,0,1.37-2.6,6.77,6.77,0,0,0,.18-2.76,6.55,6.55,0,0,0-.79-2.3A6.7,6.7,0,0,0,69,99.11a11.47,11.47,0,0,0-2.29-1.23A11.58,11.58,0,0,0,62.49,97a11.43,11.43,0,0,0-1.17,0c-.55.06-1.1.14-1.65.21Z" transform="translate(-21.75 -87.07)"/>
	<path d="M82.91,96.11v-.66H96.46v.63c-.36.06-.72.11-1.07.18a5.3,5.3,0,0,0-2.12.92A5.17,5.17,0,0,0,92,98.4a.43.43,0,0,0-.07.25v4.13q0,8.4,0,16.79a1.87,1.87,0,0,0,.21.81,10.1,10.1,0,0,0,1.58,2.37,9.82,9.82,0,0,0,3.85,2.63,8.77,8.77,0,0,0,2.36.58,19.64,19.64,0,0,0,2.17,0,8.3,8.3,0,0,0,2.51-.55,10,10,0,0,0,2.78-1.56,9.92,9.92,0,0,0,2.31-2.65c.26-.44.45-.92.67-1.39a.78.78,0,0,0,.05-.31V98.66c0-.33-.23-.49-.41-.68a5.81,5.81,0,0,0-3.31-1.8,6.45,6.45,0,0,0-.79-.07v-.66h11.69v.67a5,5,0,0,0-1.8.33,5.66,5.66,0,0,0-3.1,2.63.94.94,0,0,0-.07.37q0,10.15,0,20.3a1.71,1.71,0,0,1-.2.76,12,12,0,0,1-1.86,2.89,19.9,19.9,0,0,1-1.67,1.64,11.41,11.41,0,0,1-2.69,1.75,12.25,12.25,0,0,1-3.65,1.16c-.57.08-1.14.13-1.71.19-.32,0-.65.05-1,0a15,15,0,0,1-3.71-.59,13.76,13.76,0,0,1-2.71-1.14A10.88,10.88,0,0,1,91.35,125a11.51,11.51,0,0,1-1-.88,12.75,12.75,0,0,1-2-2.71l-.13-.21a2.54,2.54,0,0,1-.36-1.41q0-10.14,0-20.3a.8.8,0,0,0-.11-.4,10.13,10.13,0,0,0-.91-1.24,5.68,5.68,0,0,0-2-1.33A6.24,6.24,0,0,0,82.91,96.11Z" transform="translate(-21.75 -87.07)"/>
</svg>