<?xml version="1.0" encoding="UTF-8"?>
<!-- Generator: Adobe Illustrator 26.4.1, SVG Export Plug-In . SVG Version: 6.00 Build 0) -->
<svg xmlns="http://www.w3.org/2000/svg"  id="Layer_1" x="0px" y="0px" viewBox="0 0 820 140" style="enable-background:new 0 0 820 140;" xml:space="preserve"> <style type="text/css"> .st0{fill:#262732;} </style> <g> <g> <path class="st0" d="M47.26,70.32c0,27.01-15,50.52-37.13,62.66V7.66C32.26,19.79,47.26,43.3,47.26,70.32z"/> <path class="st0" d="M135.45,70.32c0,27.01-15,50.52-37.13,62.66V7.66C120.45,19.79,135.45,43.3,135.45,70.32z"/> <path class="st0" d="M91.35,70.32c0,27.01-15,50.52-37.13,62.66V7.66C76.35,19.79,91.35,43.3,91.35,70.32z"/> </g> <path class="st0" d="M211.19,28.55h-33.97v83.85H191V83.65h20.19c7.91,0,14.49-2.64,19.77-7.91c5.39-5.39,8.03-11.86,8.03-19.64 s-2.64-14.37-8.03-19.64C225.68,31.18,219.1,28.55,211.19,28.55z M211.19,70.71H191V41.48h20.19c8.15,0,14.02,6.11,14.02,14.61 C225.2,64.6,219.33,70.71,211.19,70.71z"/> <path class="st0" d="M300.26,81.25c0,10.18-6.97,19.29-18.95,19.29c-11.98,0-18.95-9.1-18.95-19.29V28.55h-13.78v52.71 c0,11.54,7.42,32.7,32.73,32.7c25.31,0,32.73-21.16,32.73-32.7V28.55h-13.77V81.25z"/> <polygon class="st0" points="474.42,76.58 508.51,76.58 508.51,63.52 474.42,63.52 474.42,41.72 511.51,41.72 511.51,28.55 460.64,28.55 460.64,112.4 512.11,112.4 512.11,99.22 474.42,99.22 "/> <path class="st0" d="M558.06,28.55h-30.42v83.85h30.42c11.5,0,21.08-4.07,28.63-12.1c7.67-8.15,11.5-18.09,11.5-29.83 c0-11.86-3.83-21.8-11.5-29.83C579.14,32.62,569.56,28.55,558.06,28.55z M577.34,91.08c-4.91,5.39-11.38,8.15-19.29,8.15h-16.65 v-57.5h16.65c7.91,0,14.37,2.75,19.29,8.15c5.03,5.39,7.55,12.22,7.55,20.6C584.89,78.74,582.37,85.69,577.34,91.08z"/> <polygon class="st0" points="623.01,76.58 657.1,76.58 657.1,63.52 623.01,63.52 623.01,41.72 660.1,41.72 660.1,28.55 609.23,28.55 609.23,112.4 660.7,112.4 660.7,99.22 623.01,99.22 "/> <polygon class="st0" points="379.45,99.22 343.34,99.22 343.34,28.55 329.57,28.55 329.57,112.4 379.45,112.4 "/> <path class="st0" d="M705.84,64.18c-10.48-3.21-18.33-6.17-18.83-12.75c-0.47-6.42,3.75-11.03,14.17-11.03 c5.74,0,14.14,1.9,22.07,9.14l8.73-10.06c-11.03-10.28-21.9-12.5-30.43-12.5c-16.82,0-28.31,11.03-28.31,23.63 c0,13.95,13.64,21.63,27.44,26.05c11.27,3.61,19.38,5.38,19.38,12.35c0,6.59-5.16,11.52-15.58,11.52c-5.74,0-14.12-1.9-23.76-10.86 l-8.75,10.06c12.74,11.99,23.62,14.21,32.15,14.21c17.03,0,29.7-9.8,29.7-25.18C733.84,70.96,712.46,66.38,705.84,64.18z"/> <path class="st0" d="M420.4,64.18c-10.48-3.21-18.33-6.17-18.83-12.75c-0.47-6.42,3.75-11.03,14.17-11.03 c5.74,0,14.14,1.9,22.07,9.14l8.73-10.06c-11.03-10.28-21.9-12.5-30.44-12.5c-16.82,0-28.31,11.03-28.31,23.63 c0,13.95,13.64,21.63,27.44,26.05c11.27,3.61,19.38,5.38,19.38,12.35c0,6.59-5.16,11.52-15.58,11.52c-5.74,0-14.12-1.9-23.76-10.86 l-8.75,10.06c12.74,11.99,23.62,14.21,32.15,14.21c17.03,0,29.7-9.8,29.7-25.18C448.4,70.96,427.02,66.38,420.4,64.18z"/> <polygon class="st0" points="810.13,28.55 793.35,28.55 760.29,66.75 760.29,28.55 746.52,28.55 746.52,112.4 760.29,112.4 760.29,74.19 793.35,112.4 810.13,112.4 773.69,70.47 "/> </g> </svg>