<?xml version="1.0" ?>
<svg xmlns="http://www.w3.org/2000/svg" viewBox="0 0 54 37" fill="none">
	<g clip-path="url(#clip0_2414_9052)">
		<path d="M24.3328 27.9172C24.441 27.2823 24.6574 26.0861 24.7208 25.7065C24.7232 25.6921 24.7224 25.6774 24.7186 25.6633C24.7148 25.6493 24.7081 25.6362 24.6989 25.6251C24.6896 25.614 24.6781 25.6051 24.6652 25.5989C24.6522 25.5928 24.6381 25.5896 24.6238 25.5897H21.9632C21.9127 25.5897 21.8639 25.5712 21.8256 25.5377C21.7873 25.5042 21.762 25.4577 21.7542 25.4068C21.542 24.0524 21.3305 22.698 21.1199 21.3435L20.4631 17.1228C20.2442 15.7125 20.0257 14.3009 19.8076 12.8881C19.5895 11.4753 19.3723 10.0713 19.1558 8.67625C18.9357 7.26552 18.7043 5.85734 18.4966 4.44535C18.3 3.11463 18.0475 1.77882 17.8958 0.429051C17.8926 0.400622 17.8954 0.371834 17.9039 0.344572C17.9124 0.31731 17.9265 0.292188 17.9451 0.27085C17.9638 0.249513 17.9867 0.232442 18.0123 0.220755C18.0378 0.209068 18.0655 0.203028 18.0936 0.203031H25.3676C25.4153 0.204172 25.461 0.222745 25.4964 0.25537C25.5318 0.287996 25.5545 0.332505 25.5604 0.380799C25.6761 1.62518 25.8192 3.00543 25.9336 4.23457C26.0331 5.28594 26.1276 6.33732 26.2259 7.38869C26.3354 8.54038 26.4473 9.81777 26.5568 10.9695C26.5991 11.4215 26.6812 12.2888 26.7098 12.5897C26.7123 12.6185 26.7253 12.6454 26.7462 12.6649C26.7672 12.6844 26.7946 12.6952 26.823 12.6951H26.9996C27.0284 12.6952 27.0563 12.6844 27.0777 12.6646C27.0991 12.6449 27.1125 12.6177 27.1153 12.5884C27.1376 12.3548 27.1613 12.1199 27.1837 11.885C27.2666 11.0249 27.3495 10.1653 27.4324 9.30606C27.5021 8.56451 27.5705 7.69725 27.6402 6.95697L27.8566 4.67899C27.9263 3.93406 27.9955 3.1887 28.0643 2.44292C28.1253 1.78644 28.1887 1.04616 28.2608 0.380799C28.2658 0.330849 28.2888 0.284572 28.3254 0.250999C28.3619 0.217427 28.4094 0.198967 28.4586 0.199221H35.1754C35.2042 0.199228 35.2326 0.205598 35.2587 0.217893C35.2849 0.230189 35.3081 0.248117 35.3267 0.270443C35.3454 0.29277 35.3591 0.318964 35.3669 0.347222C35.3748 0.37548 35.3765 0.40513 35.372 0.43413C34.9055 3.43588 30.0234 34.0553 29.5893 36.8246C29.5816 36.8722 29.5576 36.9154 29.5216 36.9466C29.4856 36.9777 29.44 36.9948 29.3928 36.9948H22.9857C22.9566 36.9947 22.928 36.9881 22.9017 36.9755C22.8754 36.9629 22.8522 36.9446 22.8336 36.9218C22.815 36.8991 22.8014 36.8725 22.794 36.8438C22.7865 36.8152 22.7853 36.7852 22.7904 36.7561L24.1312 29.1146" fill="black"/>
		<path d="M17.9476 10.8844C17.9476 10.1225 17.9115 9.36066 17.8717 8.59879C17.8333 7.83977 17.7423 7.08448 17.5993 6.33859C17.2461 4.51773 16.6689 2.80988 15.3778 1.48805C14.7599 0.85658 13.9863 0.407324 13.1389 0.187797C12.4072 0.00193771 11.6483 -0.0454034 10.8999 0.0481213C10.3929 0.0899319 9.89866 0.231808 9.4446 0.465878C8.54903 0.949662 7.96939 1.71026 7.63355 2.67275C7.63355 2.69179 7.58379 2.90893 7.57757 2.9267C7.5733 2.93796 7.56578 2.94762 7.556 2.95443C7.54623 2.96123 7.53467 2.96484 7.52284 2.9648H7.18825C7.17625 2.9648 7.16473 2.96003 7.15614 2.95149C7.14754 2.94295 7.14255 2.93132 7.14222 2.91908V0.416356C7.14239 0.389629 7.13735 0.363135 7.12741 0.33841C7.11747 0.313684 7.10282 0.291221 7.0843 0.272322C7.06579 0.253422 7.04378 0.238464 7.01956 0.228314C6.99534 0.218163 6.96939 0.213024 6.94321 0.213192H0.199017C0.146234 0.213192 0.0956137 0.234597 0.0582907 0.272698C0.0209678 0.310798 0 0.362474 0 0.416356L0 36.7967C0 36.8234 0.00514773 36.8498 0.0151493 36.8744C0.0251508 36.8991 0.0398103 36.9215 0.0582907 36.9404C0.0767712 36.9592 0.0987107 36.9742 0.122857 36.9844C0.147002 36.9946 0.172882 36.9999 0.199017 36.9999H7.80271C7.82889 37 7.85485 36.9949 7.87907 36.9847C7.90329 36.9746 7.92529 36.9596 7.94381 36.9407C7.96232 36.9218 7.97697 36.8994 7.98692 36.8746C7.99686 36.8499 8.00189 36.8234 8.00173 36.7967V24.3796C8.00173 24.3676 8.00405 24.3558 8.00857 24.3448C8.01308 24.3337 8.0197 24.3237 8.02803 24.3154C8.03637 24.307 8.04625 24.3004 8.05711 24.2959C8.06797 24.2914 8.07959 24.2892 8.09129 24.2894H8.37986C8.39143 24.2898 8.40278 24.2926 8.41326 24.2977C8.42373 24.3027 8.4331 24.3098 8.44081 24.3186C8.47813 24.3656 8.51171 24.4202 8.54281 24.4659C8.98313 25.1122 9.63118 25.4513 10.3638 25.6328C11.0801 25.8048 11.8221 25.8341 12.5493 25.7192C13.3021 25.6153 14.0216 25.3369 14.6526 24.9052C15.5432 24.2932 16.1652 23.4475 16.6428 22.4838C17.2013 21.3575 17.4961 20.1499 17.6876 18.917C17.8636 17.7673 17.9509 16.6053 17.9489 15.4416C17.9513 13.9255 17.9613 12.4056 17.9476 10.8844ZM9.87747 6.26621V20.3442C9.87747 20.58 9.78573 20.806 9.62244 20.9727C9.45916 21.1394 9.23769 21.2331 9.00677 21.2331H8.8774C8.64648 21.2331 8.42501 21.1394 8.26173 20.9727C8.09844 20.806 8.00671 20.58 8.00671 20.3442V20.3163V6.26621V6.20145C8.00671 5.96572 8.09844 5.73964 8.26173 5.57295C8.42501 5.40626 8.64648 5.31261 8.8774 5.31261H9.00925C9.24018 5.31261 9.46164 5.40626 9.62493 5.57295C9.78822 5.73964 9.87995 5.96572 9.87995 6.20145L9.87747 6.26621Z" fill="black"/>
		<path d="M53.7865 36.9997C53.8127 36.9999 53.8386 36.9947 53.8628 36.9846C53.8871 36.9744 53.9091 36.9595 53.9276 36.9406C53.9461 36.9217 53.9607 36.8992 53.9707 36.8745C53.9806 36.8498 53.9857 36.8233 53.9855 36.7966V32.379C53.9855 27.0815 53.9855 14.7672 53.9855 9.46844C53.9855 8.80562 53.9743 8.14152 53.9556 7.4787C53.94 6.81855 53.878 6.1604 53.7703 5.50928C53.5091 3.9792 53.024 2.56721 51.9767 1.46504C51.4014 0.849089 50.669 0.409325 49.8621 0.195267C48.8824 -0.0490405 47.8604 -0.057734 46.8769 0.169872C46.3567 0.267462 45.8628 0.476313 45.4273 0.782699C44.9919 1.08909 44.625 1.48607 44.3506 1.94756C44.1951 2.20151 43.9302 2.77799 43.853 2.93925C43.8471 2.95164 43.8379 2.96211 43.8265 2.9695C43.8151 2.9769 43.8019 2.98093 43.7884 2.98116H43.46V0.433985C43.46 0.376836 43.4379 0.321989 43.3986 0.281341C43.3592 0.240693 43.3058 0.217522 43.2498 0.216854H36.6126C36.5566 0.217522 36.5031 0.240693 36.4638 0.281341C36.4244 0.321989 36.4023 0.376836 36.4023 0.433985V36.7966C36.4023 36.8232 36.4075 36.8496 36.4175 36.8743C36.4275 36.8989 36.4422 36.9213 36.4606 36.9402C36.4791 36.9591 36.5011 36.974 36.5252 36.9842C36.5493 36.9945 36.5752 36.9997 36.6014 36.9997H44.072C44.0981 36.9997 44.124 36.9945 44.1481 36.9842C44.1723 36.974 44.1942 36.9591 44.2127 36.9402C44.2312 36.9213 44.2458 36.8989 44.2558 36.8743C44.2658 36.8496 44.271 36.8232 44.271 36.7966V6.24448C44.2655 6.12534 44.2835 6.00628 44.324 5.8944C44.3645 5.78252 44.4266 5.68011 44.5067 5.59326C44.5868 5.50641 44.6832 5.43691 44.7901 5.38888C44.8971 5.34086 45.0124 5.3153 45.1292 5.31373H45.4004C45.514 5.3144 45.6263 5.33793 45.7309 5.38299C45.8356 5.42805 45.9305 5.49375 46.0102 5.57632C46.09 5.65889 46.153 5.75671 46.1956 5.86418C46.2382 5.97164 46.2596 6.08664 46.2587 6.20258V36.8042C46.2587 36.8581 46.2796 36.9097 46.317 36.9478C46.3543 36.9859 46.4049 37.0073 46.4577 37.0073L53.7865 36.9997Z" fill="black"/>
	</g>
	<defs>
		<clipPath id="clip0_2414_9052">
			<rect width="53.9871" height="37" fill="white"/>
		</clipPath>
	</defs>
</svg>