<?xml version="1.0" ?>
<svg xmlns="http://www.w3.org/2000/svg" viewBox="0 0 324.72 132.44">
	<path d="M 723.059,229.41 C 897.297,453.801 894.082,754.41 720.168,832.555 C 657.91,860.523 586.941,855.563 520.598,819.844 C 550.051,825.012 578.484,816.625 604.363,803.418 C 732.41,737.98 725.105,485.09 588.738,287.621 C 498.176,156.461 386.926,109.758 311.152,142.473 C 377.395,58.668 493.809,46.593 607.313,120.199 C 699.055,93.239 780.906,143.984 780.906,143.984 C 780.906,143.984 713.242,168.539 695.496,196.488 C 704.813,206.785 714.023,217.766 723.059,229.41 M 917.5,123.633 C 902.051,99.836 874.641,90.199 856.289,102.117 C 837.938,114.027 835.586,143.004 851.047,166.785 C 866.492,190.574 893.918,200.199 912.258,188.293 C 930.605,176.371 932.949,147.441 917.5,123.633" style="fill:#0e355d;fill-opacity:1;fill-rule:nonzero;stroke:none" transform="matrix(.13333 0 0 -.13333 0 132.44)"/>
	<path d="M 377.773,61.047 C 203.027,128.809 141.777,364.883 244.238,587.668 C 346.914,810.938 572.18,929.938 744.141,854.301 A 260.067,260.067 0.0 0,0 786.16,830.957 C 753.801,892.008 705.637,940.195 642.938,968.008 C 446.594,1055.12 184.434,909.582 61.609,641.879 C -60.89,374.918 5.49,95.867 205.598,19.457 C 293.723,-14.199 393.02,-2.805 486.184,42.895 C 449.109,41.797 412.52,47.578 377.773,61.047" style="fill:#66cde2;fill-opacity:1;fill-rule:nonzero;stroke:none" transform="matrix(.13333 0 0 -.13333 0 132.44)"/>
	<path d="M 1784.67,662.797 C 1765.91,633.906 1732.64,622.211 1710.35,636.684 C 1688.07,651.145 1685.23,686.309 1703.99,715.195 C 1722.75,744.086 1756.04,755.781 1778.32,741.309 C 1800.59,726.84 1803.44,691.688 1784.67,662.797 M 2422.95,662.797 C 2404.19,633.906 2370.91,622.211 2348.63,636.676 C 2326.34,651.145 2323.5,686.309 2342.27,715.195 C 2361.03,744.086 2394.3,755.781 2416.58,741.309 C 2438.86,726.84 2441.71,691.688 2422.95,662.797 M 1565.64,556.703 C 1576.34,532.75 1580.47,499.734 1580.47,473.316 C 1580.47,367.641 1536.03,250.406 1463.6,189.309 C 1421.64,153.813 1382.13,139.785 1320.4,139.785 C 1276.79,139.785 1248.82,160.414 1234.81,186.836 C 1204.37,162.066 1170.63,139.785 1117.96,139.785 C 1048.84,139.785 1009.34,168.676 1009.34,233.898 C 1009.34,249.574 1014.27,287.559 1016.74,302.418 L 1064.47,550.918 L 1154.17,550.918 L 1107.27,304.887 C 1105.62,294.988 1101.5,263.617 1101.5,255.355 C 1101.5,224.813 1117.13,204.164 1146.77,204.164 C 1222.48,204.164 1271.04,365.992 1271.04,479.094 C 1271.04,493.125 1269.38,525.328 1266.09,536.891 L 1345.1,556.703 C 1356.62,532.75 1360.73,499.734 1360.73,473.316 C 1360.73,395.703 1338.52,316.449 1299.01,255.3556 C 1298.18,224.8136 1314.64,204.1646 1343.45,204.1646 C 1419.16,204.1646 1491.57,365.9926 1491.57,479.094 C 1491.57,493.125 1489.93,525.328 1486.65,536.891 L 1565.64,556.703 M 1610.11,211.598 C 1610.11,219.039 1610.93,227.285 1612.57,235.547 L 1675.13,550.918 L 1765.64,550.918 L 1706.4,243.801 C 1705.57,238.848 1704.75,234.719 1704.75,230.586 C 1704.75,217.387 1708.05,209.945 1718.74,209.945 C 1737.67,209.945 1759.05,215.727 1760.71,216.559 L 1760.71,157.113 C 1760.71,157.113 1730.25,142.258 1686.64,142.258 C 1638.09,142.258 1610.11,169.508 1610.11,211.598 M 1898.14,146.383 L 1805.97,146.383 L 1919.53,728.43 L 2012.53,744.926 L 1987.03,606.234 C 1980.44,571.555 1961.51,514.586 1949.17,470.016 C 1991.95,539.359 2040.52,557.523 2086.59,557.523 C 2149.97,557.523 2196.87,526.969 2196.87,462.582 C 2196.87,363.512 2079.19,323.063 2079.19,323.063 C 2107.18,233.898 2147.5,173.625 2208.4,102.621 L 2135.16,61.344 C 2050.39,139.785 2002.66,242.141 1976.32,344.523 L 1977.15,352.777 C 1994.43,356.898 2100.58,388.273 2100.58,446.895 C 2100.58,475.797 2089.89,490.645 2059.44,490.645 C 1982.91,490.645 1937.64,351.949 1922.82,275.176 L 1898.14,146.383 M 2229.8,211.598 C 2229.8,219.039 2230.63,227.285 2232.28,235.547 L 2294.82,550.918 L 2385.34,550.918 L 2326.09,243.801 C 2325.27,238.848 2324.44,234.719 2324.44,230.586 C 2324.44,217.387 2327.74,209.945 2338.44,209.945 C 2357.37,209.945 2378.76,215.727 2380.41,216.559 L 2380.41,157.113 C 2380.41,157.113 2349.96,142.258 2306.34,142.258 C 2257.79,142.258 2229.8,169.508 2229.8,211.598" style="fill:#0e355d;fill-opacity:1;fill-rule:nonzero;stroke:none" transform="matrix(.13333 0 0 -.13333 0 132.44)"/>
</svg>