<?xml version="1.0" ?>
<svg xmlns="http://www.w3.org/2000/svg" viewBox="0 0 1515 500" fill="none">
	<path fill-rule="evenodd" clip-rule="evenodd" d="M234.06 74.8179C215.467 69.87 195.648 75.1854 182.017 88.7754L178.5 92.2827C178.45 92.3314 178.401 92.3803 178.352 92.4294L91.9097 178.616C88.0536 182.46 84.8577 186.803 82.3671 191.475C82.0903 191.994 81.8223 192.518 81.5631 193.045C75.8595 204.64 74.4 218.094 77.8433 230.957L110.564 353.185C115.573 371.894 130.19 386.496 148.892 391.473L265.839 422.594C265.873 422.603 265.906 422.612 265.94 422.621L266.025 422.644L271.807 424.182C290.4 429.13 310.219 423.815 323.849 410.225L413.957 320.384C427.667 306.714 433.031 286.753 428.023 268.044L395.302 145.816C390.294 127.107 375.676 112.504 356.974 107.527L234.06 74.8179ZM107.575 194.357C101.009 200.903 97.6909 209.897 98.2608 218.955C98.3923 221.045 98.7308 223.138 99.2842 225.206L132.005 347.434L132.005 347.434C132.53 349.393 133.233 351.276 134.097 353.064C138.095 361.34 145.531 367.589 154.596 370.001L271.827 401.198C272.531 401.381 273.238 401.548 273.95 401.7C283.112 403.34 292.095 397.472 294.145 388.208L306.884 330.643C307.991 325.64 307.877 320.442 306.552 315.492L266.403 165.514C265.077 160.564 262.58 156.006 259.121 152.227L219.333 108.75C212.938 101.761 202.245 101.168 195.13 107.15C194.543 107.678 193.969 108.221 193.408 108.777L107.575 194.357ZM328.556 335.448L317.834 374.167L351.93 318.887C356.966 311.269 358.498 301.856 356.136 293.032L320.563 160.152C318.201 151.328 312.172 143.942 304.005 139.866L246.865 109.056L275.489 137.22C281.357 143.632 285.595 151.365 287.843 159.764L327.993 309.742C330.241 318.141 330.434 326.958 328.556 335.448ZM367.988 334.858L398.292 304.643C406.373 296.587 409.534 284.821 406.582 273.794L373.862 151.566C370.91 140.539 362.294 131.932 351.271 128.999L309.933 117.998L313.911 119.984C327.768 126.9 337.996 139.432 342.003 154.401L377.576 287.282C381.584 302.252 378.986 318.223 370.441 331.148L367.988 334.858Z" fill="#292929"/>
	<path fill-rule="evenodd" clip-rule="evenodd" d="M584.613 325.054C607.011 325.054 626.888 317.488 642.846 305.158C653.205 319.169 671.123 325.054 690.161 325.054V302.916C676.722 302.916 666.924 300.114 658.805 289.185C672.523 271.811 680.362 249.393 680.362 224.173C680.362 167.288 639.767 123.293 584.613 123.293C529.46 123.293 488.864 167.288 488.864 224.173C488.864 281.058 529.46 325.054 584.613 325.054ZM584.613 304.037C542.338 304.037 512.382 269.009 512.382 224.173C512.382 179.337 542.338 144.309 584.613 144.309C626.888 144.309 656.845 179.337 656.845 224.173C656.845 240.146 652.925 254.717 646.206 267.047C642.846 261.443 637.807 255.278 631.088 249.393C619.329 239.025 606.171 234.261 582.094 234.261V256.399C599.451 256.399 608.41 260.042 614.85 264.805C621.289 269.569 626.328 277.696 631.088 286.103C618.769 297.031 602.811 304.037 584.613 304.037Z" fill="#292929"/>
	<path fill-rule="evenodd" clip-rule="evenodd" d="M755.247 325.054C779.604 325.054 794.162 314.966 802.281 304.037C802.841 310.482 804.241 317.488 807.6 322.251H829.998C826.638 314.966 824.678 304.317 824.678 291.147V217.728C824.678 186.623 804.521 171.491 768.685 171.491C740.688 171.491 721.091 184.942 711.572 198.673L727.25 212.404C735.929 200.074 749.367 191.667 768.685 191.667C791.922 191.667 802.281 200.074 802.281 212.964C802.281 228.376 790.522 236.223 761.406 236.223C731.729 236.223 704.852 249.113 704.852 280.498C704.852 309.081 726.41 325.054 755.247 325.054ZM757.206 305.438C740.128 305.438 727.25 295.91 727.25 280.498C727.25 263.685 739.568 254.998 761.406 254.998C784.923 254.998 796.682 251.915 802.281 244.349V263.124C802.281 288.344 787.443 305.438 757.206 305.438Z" fill="#292929"/>
	<path d="M925.738 322.532C920.698 324.213 914.819 325.054 905.02 325.054C885.982 325.054 866.945 317.768 866.945 282.179V194.469H841.188V174.293H866.945V126.095H889.342V174.293H925.738V194.469H889.342V282.46C889.342 297.592 895.781 304.877 907.82 304.877C915.659 304.877 920.698 303.757 925.738 302.355V322.532Z" fill="#292929"/>
	<path fill-rule="evenodd" clip-rule="evenodd" d="M992.311 325.054C1016.67 325.054 1031.23 314.966 1039.35 304.037C1039.91 310.482 1041.31 317.488 1044.66 322.251H1067.06C1063.7 314.966 1061.74 304.317 1061.74 291.147V217.728C1061.74 186.623 1041.59 171.491 1005.75 171.491C977.753 171.491 958.155 184.942 948.636 198.673L964.314 212.404C972.993 200.074 986.432 191.667 1005.75 191.667C1028.99 191.667 1039.35 200.074 1039.35 212.964C1039.35 228.376 1027.59 236.223 998.47 236.223C968.794 236.223 941.917 249.113 941.917 280.498C941.917 309.081 963.474 325.054 992.311 325.054ZM994.271 305.438C977.193 305.438 964.314 295.91 964.314 280.498C964.314 263.685 976.633 254.998 998.47 254.998C1021.99 254.998 1033.75 251.915 1039.35 244.349V263.124C1039.35 288.344 1024.51 305.438 994.271 305.438Z" fill="#292929"/>
	<path d="M1114.07 322.251H1091.68V123.293H1114.07V322.251Z" fill="#292929"/>
	<path fill-rule="evenodd" clip-rule="evenodd" d="M1210.45 325.054C1252.16 325.054 1282.68 293.949 1282.68 248.272C1282.68 202.316 1252.16 171.491 1210.45 171.491C1168.73 171.491 1138.22 202.316 1138.22 248.272C1138.22 293.949 1168.73 325.054 1210.45 325.054ZM1210.45 304.877C1179.93 304.877 1160.61 279.657 1160.61 248.272C1160.61 216.607 1179.93 191.667 1210.45 191.667C1240.97 191.667 1260.28 216.607 1260.28 248.272C1260.28 279.657 1240.97 304.877 1210.45 304.877Z" fill="#292929"/>
	<path fill-rule="evenodd" clip-rule="evenodd" d="M1413.52 189.145L1418.84 174.293H1439V306.279C1439 346.351 1416.88 375.494 1369.01 375.494C1343.53 375.494 1320.57 365.966 1304.9 348.312L1321.69 331.779C1334.29 347.471 1351.37 355.318 1369.01 355.318C1404.84 355.318 1416.6 333.46 1416.6 305.718V300.954C1405.12 315.806 1388.61 323.372 1368.17 323.372C1327.01 323.372 1299.86 291.147 1299.86 247.432C1299.86 203.717 1327.01 171.491 1368.17 171.491C1390.57 171.491 1404.84 178.497 1413.52 189.145ZM1322.25 247.432C1322.25 278.536 1337.93 303.196 1369.85 303.196C1401.76 303.196 1418 278.536 1418 247.432C1418 216.327 1401.76 191.667 1369.85 191.667C1337.93 191.667 1322.25 216.327 1322.25 247.432Z" fill="#292929"/>
</svg>