<?xml version="1.0" ?>
<svg xmlns="http://www.w3.org/2000/svg" data-name="Layer 1" viewBox="0 0 141.332 39.105">
	<defs>
		<style>
      .cls-1 {
        fill: #111827;
        stroke-width: 0px;
      }
    </style>
	</defs>
	<path class="cls-1" d="M140.688,27.033c-.808,0-1.213-.46-1.213-1.376v-8.473c0-2.84-.821-5.008-2.465-6.503s-3.88-2.243-6.708-2.243c-1.847,0-3.411.297-4.695.893-1.192.526-2.243,1.324-3.068,2.332-.747.933-1.312,2.016-1.66,3.184l5.02,1.787c.158-.96.608-1.847,1.288-2.543.664-.657,1.673-.985,3.029-.984,1.385,0,2.395.343,3.028,1.028.635.689.899,1.569.953,2.636.028.56-.213,1.281-1.741,1.281h-4.151c-1.474-.026-2.938.247-4.304.801-1.194.487-2.217,1.316-2.941,2.383-.707,1.055-1.061,2.36-1.061,3.916s.353,2.876,1.061,3.963c.703,1.082,1.701,1.941,2.876,2.475,1.291.581,2.695.87,4.111.847,1.493,0,3.355-.231,4.22-.687.865-.457,1.493-.984,1.904-1.583.325-.44.595-.927.799-1.444.219-.56.411-1.131.575-1.712h.497s-.069.547-.129,1.56c0,.915.067,1.583.703,2.2.635.616,1.236.821,2.304.821h2.413v-4.569l-.644.009ZM134.197,22.815c0,1.497-.484,2.696-1.451,3.597-.968.901-2.213,1.351-3.733,1.351-1.156,0-2.036-.259-2.64-.779-.294-.241-.527-.547-.683-.893-.158-.352-.235-.735-.227-1.121-.016-.37.055-.739.207-1.077.151-.335.377-.627.66-.848.576-.456,1.369-.685,2.379-.685h5.496l-.008.456ZM110.756,14.747h6.576v-4.689h-6.576V3.105h-6.095v6.952h-5.996v4.692h5.996v12.64c0,1.533.495,2.76,1.484,3.676.989.919,2.268,1.376,3.836,1.373h6.771v-4.691h-4.639c-.903,0-1.352-.453-1.352-1.356l-.005-11.641v-.003ZM95.247,9.67h-5.592v21.993h5.592V9.67ZM92.451.002c-.947-.023-1.865.328-2.555.977-.693.649-1.043,1.507-1.043,2.572-.001,1.065.347,1.921,1.043,2.571,1.461,1.303,3.666,1.303,5.127,0,.68-.651,1.021-1.507,1.021-2.571s-.34-1.921-1.021-2.573c-.693-.656-1.62-1.007-2.573-.976h.001ZM79.631,9.075v.867c0,1.613.436,2.133.651,2.444l-.435.337s-1.355-1.428-1.637-1.772c-.552-.647-1.088-1.009-1.749-1.432-1.093-.693-2.647-1.08-4.736-1.08-1.815-.015-3.6.444-5.173,1.331-1.595.903-2.908,2.232-3.793,3.837-.952,1.671-1.427,3.68-1.425,6.027v.724c0,2.347.475,4.356,1.425,6.027.884,1.605,2.197,2.934,3.792,3.837,1.579.888,3.362,1.348,5.173,1.333,1.412,0,2.576-.165,3.493-.496.809-.268,1.559-.69,2.208-1.243.247-.205.473-.433.68-.68.281-.345,1.644-1.799,1.644-1.799l.435.347c-.215.308-.644.829-.644,2.443v2.657c0,.901-.429,1.352-1.287,1.352h-10.384v4.968h12.407c1.529,0,2.755-.459,3.677-1.377.924-.917,1.384-2.144,1.38-3.679V9.075h-5.701,0ZM79.631,20.227c0,2.016-.597,3.581-1.793,4.693-1.196,1.115-2.683,1.672-4.46,1.673-1.777,0-3.264-.557-4.459-1.672-1.195-1.115-1.793-2.68-1.793-4.693v-.451c0-2.048.597-3.621,1.793-4.72,1.196-1.1,2.683-1.649,4.459-1.649,1.809,0,3.304.549,4.484,1.648,1.181,1.1,1.769,2.673,1.764,4.72,0,0,.005.451.005.451ZM52.803,9.81c-1.816-.913-3.863-1.369-6.137-1.372-2.276,0-4.321.456-6.139,1.373-1.783.888-3.273,2.271-4.289,3.984-1.048,1.743-1.572,3.835-1.572,6.276v.733c0,2.444.524,4.536,1.571,6.273,1.016,1.714,2.506,3.098,4.289,3.987,1.817.916,3.863,1.373,6.139,1.373s4.323-.457,6.139-1.373c1.785-.888,3.276-2.272,4.293-3.987,1.044-1.737,1.569-3.831,1.569-6.275v-.733c0-2.441-.524-4.533-1.571-6.275-1.017-1.714-2.507-3.098-4.292-3.985ZM52.851,20.666c0,2.14-.585,3.78-1.756,4.92-1.171,1.141-2.647,1.715-4.427,1.72-1.785,0-3.26-.573-4.427-1.72-1.165-1.145-1.751-2.785-1.752-4.92v-.456c0-2.137.584-3.777,1.752-4.92,1.169-1.144,2.644-1.716,4.427-1.717,1.816,0,3.3.573,4.453,1.717s1.731,2.784,1.733,4.92c0,0-.004.456-.004.456ZM32.755,32.277c-1.685-1.69-3.759-2.94-6.04-3.64l.181-.605c.96.241,1.976-.007,2.717-.663,1.547-1.393,2.613-4.641,2.613-8.087-.006-2.418-.55-4.805-1.595-6.987-1.042-2.178-2.558-4.096-4.437-5.613-3.795-3.07-8.78-4.25-13.549-3.207C6.565,4.758,1.651,9.697.372,15.801c-1.041,4.787.129,9.789,3.187,13.617,1.508,1.885,3.42,3.408,5.595,4.457,2.172,1.048,4.551,1.593,6.963,1.597,3.72,0,6.299-1.091,7.651-2.305,1.352-1.213,1.235-3.248,1.235-3.248l.539-.127.028.089c.707,2.221,1.933,4.24,3.576,5.888l3.308,3.335,3.547-3.56-3.244-3.268ZM16.117,29.685c-2.048,0-4.049-.611-5.749-1.752-1.703-1.144-3.029-2.767-3.811-4.664-1.6-3.883-.715-8.347,2.244-11.327,2.952-2.973,7.411-3.864,11.279-2.253,1.893.788,3.509,2.12,4.644,3.827,2.741,4.125,2.202,9.609-1.289,13.121-1.937,1.948-4.57,3.045-7.317,3.048Z"/>
</svg>