<?xml version="1.0" ?>
<svg xmlns="http://www.w3.org/2000/svg" viewBox="0 0 1548 443">
	<defs>
		<clipPath clipPathUnits="userSpaceOnUse" id="cp1">
			<path d="m2204.07-11892.49v12929.69h-9150.65v-12929.69z"/>
		</clipPath>
	</defs>
	<style>.a{fill:#55b88e}</style>
	<g clip-path="url(#cp1)">
		<path fill-rule="evenodd" class="a" d="m564.5 347.7l-25.4 24.6-2.3 2.3c-6.9 3.8-15.3 1.5-19.2-4.6-16.1-25.3-24.6-53.8-24.6-86.8 0-44.5 16.2-81.4 46.1-112.1 31.5-30.7 69.9-46 117.6-46q50.7 0 88.3 23l2.3 2.3c5.4 4.6 5.4 13.1 0 18.4l-23 23.1c-5.4 4.6-13.8 5.3-20 2.3-39.2-21.5-87.6-13.9-118.3 17.6-19.2 19.2-29.2 44.6-29.2 71.4 0 16.2 3.8 31.5 10.8 46.1 3 6.1 2.3 13.8-3.1 18.4zm255.8-64.5q0 66.8-46.1 112.9-46.1 46.1-117.5 46.1c-33.8 0-63-7.7-88.4-23.1q-1.5-0.7-2.3-2.3c-5.4-4.6-5.4-13 0-18.4l23.8-23.8c5.4-4.6 13.1-5.4 19.2-2.3 14.6 8.4 31.5 12.3 47.7 12.3 26.9 0 53-10.8 70.7-30 19.2-19.2 29.9-44.5 29.2-71.4 0.7-16.1-3.1-31.5-10-45.3-3.1-6.1-2.3-13.8 2.3-18.4l25.3-24.6q0.8-0.7 2.3-1.5c6.2-3.8 14.6-2.3 18.5 3.8q25.3 36.9 25.3 86zm-385.7 104.4c6.2 6.2 6.2 16.2 0 22.3l-26.9 26.1c-6.1 6.2-16.9 6.2-23 0l-144.4-141.3c-6.2-6.1-6.2-16.1 0-22.2l26.1-26.1c6.9-6.2 16.9-6.2 23 0zm-345-59.1l-28.4 27.6q0 0.8-0.7 1.5c-6.2 3.9-14.6 3.1-19.3-3-27.6-35.4-40.7-77.6-40.7-125.2q0-89.8 64.6-152.8c43-42.2 94.5-62.9 155.2-62.9 49.1 0 92.2 13 129 39.9l1.6 1.5c5.4 5.4 5.4 13.1 0 18.4l-26.1 26.1c-6.2 5.4-14.6 6.2-20.8 1.6-59.9-38.4-139.8-30-191.3 19.2-28.4 28.4-43 64.5-43 107.5 0 30.7 6.9 57.6 22.3 81.4 4.6 6.1 3 14.5-2.4 19.2zm289.7-230.4c6.2-4.6 14.6-3.1 19.2 2.3 28.4 36.9 42.3 79.1 42.3 126.7 0 25.3-4.6 50.7-13.1 74.5q-1.5 3.1-3.1 4.6c-5.3 5.4-13.8 5.4-19.2 0l-33-31.5c-3.1-3.1-5.4-8.4-3.9-13.8q3.1-16.1 3.1-33c0-30.7-7.7-58.4-23-82.2-3.9-6.1-3.1-14.6 2.3-19.2l26.9-26.9c0.7-0.7 1.5-0.7 1.5-1.5zm-77.6 307.9c1.5 1.5 3.1 3.1 3.1 5.4 2.3 6.9-0.8 14.6-8.5 16.9-24.6 8.4-50.7 12.3-77.6 12.3-49.1 0-92.2-13.1-128.3-38.4q-1.5-0.8-2.3-1.6c-5.4-5.3-5.4-13.8 0-18.4l27.7-26.9c5.4-5.3 13.8-6.1 19.9-2.3 24.6 16.1 52.3 24.6 84.6 24.6 12.3 0 24.5-1.5 36.8-3.8 5.4-1.6 10.8 0 14.6 3.8zm771.4-248.8l-2.3 26.1q-1.5 16.2-11.5 16.2-3.1 0-6.9-2.3-19.2-7.7-40-7.7-32.2 0-52.2 21.5-20 21.5-20 56v145.9q0 10-5.4 15.4-5.3 5.3-15.3 5.3h-24.6q-10 0-15.4-5.3-5.4-5.4-5.4-15.4v-261.8q0-9.2 5.4-14.6 5.4-5.4 15.4-5.4h24.6q10 0 15.3 5.4 5.4 5.4 5.4 14.6v19.2q14.6-20.8 36.1-32.3 21.5-11.5 47.7-11.5 19.9 0 35.3 6.9 16.1 3.9 13.8 23.8zm49.2-85.2q-12.3-12.3-12.3-29.9 0-16.9 12.3-29.2 12.3-12.3 30-12.3 16.9 0 29.2 12.3 12.3 12.3 12.3 29.2 0 17.6-12.3 29.9-12.3 13.1-29.2 13.1-17.7 0-30-13.1zm18.4 361.6q-9.9 0-15.3-5.3-5.4-5.4-5.4-15.4v-261.8q0-9.2 5.4-14.6 5.4-5.4 15.3-5.4h24.6q9.2 0 14.6 5.4 5.4 5.4 5.4 14.6v261.8q0 10-5.4 15.4-5.4 5.3-14.6 5.3zm386.5-302.5q10 0 15.4 5.4 5.3 5.4 5.3 14.6v261.8q0 10-5.3 15.4-5.4 5.3-15.4 5.3h-24.6q-9.2 0-14.6-5.3-6.1-5.4-6.1-15.4v-30.7q-16.2 26.9-42.3 41.5-26.1 14.5-58.4 14.5-39.9 0-71.4-19.9-32.3-20.8-50.8-56.1-18.4-36.1-18.4-79.8 0-43.8 18.4-79.9 18.5-35.3 50.8-55.3 31.5-20.7 71.4-20.7 32.3 0 58.4 14.6 26.1 14.6 42.3 41.5v-31.5q0-9.2 6.1-14.6 5.4-5.4 14.6-5.4zm-89.1 235.7q20.7-11.5 32.3-32.2 12.2-20.7 12.2-46.8v-10.8q0-25.3-12.2-46.1-11.6-20.7-32.3-33-20-11.5-45.3-11.5-24.6 0-45.4 12.3-20.7 12.3-32.2 34.5-11.6 22.3-11.6 49.2 0 26.8 11.6 49.1 11.5 22.3 32.2 34.6 20.8 12.3 45.4 12.3 25.3 0 45.3-11.6z"/>
	</g>
</svg>