<?xml version="1.0" ?>
<svg xmlns="http://www.w3.org/2000/svg" id="Layer_1" data-name="Layer 1" viewBox="0 0 88 26">
	<defs>
		<style>.cls-1{fill:#f7941d;}.cls-2{fill:#fff;}.cls-3{fill:#fcfdff;}</style>
	</defs>
	<circle class="cls-1" cx="31.68" cy="12.89" r="12.89"/>
	<path class="cls-2" d="M38.32,17.16a7.9,7.9,0,0,0,0-8.54,2.46,2.46,0,1,0-3.06-2.77,7.92,7.92,0,0,0-7.16,0A2.46,2.46,0,1,0,25,8.62a7.87,7.87,0,0,0,0,8.54,2.45,2.45,0,1,0,3.06,2.75,7.92,7.92,0,0,0,7.16,0,2.46,2.46,0,1,0,3.06-2.76"/>
	<path d="M38.32,17.16a7.9,7.9,0,0,0,0-8.54,2.46,2.46,0,1,0-3.06-2.77,7.92,7.92,0,0,0-7.16,0A2.46,2.46,0,1,0,25,8.62a7.87,7.87,0,0,0,0,8.54,2.45,2.45,0,1,0,3.06,2.75,7.92,7.92,0,0,0,7.16,0,2.46,2.46,0,1,0,3.06-2.76Z"/>
	<rect class="cls-2" x="24.73" y="5.27" width="1.66" height="1.66"/>
	<rect class="cls-2" x="36.95" y="5.27" width="1.66" height="1.66"/>
	<rect class="cls-2" x="24.73" y="18.72" width="1.66" height="1.66"/>
	<rect class="cls-2" x="36.95" y="18.72" width="1.66" height="1.66"/>
	<path class="cls-2" d="M34,19.52a1.55,1.55,0,0,1-1,.37H30.32a1.41,1.41,0,0,1-.67-.16,1.66,1.66,0,0,1-.77-1.14l.22-.29c.56.25,2.58-.53,2.58-.53a4.54,4.54,0,0,0,2.58.54l.24.31a1.43,1.43,0,0,1-.46.9"/>
	<path class="cls-3" d="M38.26,15.41A5.59,5.59,0,0,1,35,18.06l.05-.15a3.23,3.23,0,0,0,.82-.91,4.38,4.38,0,0,0,2.07-5.23l-.7.24a3.41,3.41,0,0,1-1.07,3.8V15a2.42,2.42,0,0,0,.64-2.51l-.7.17a1.45,1.45,0,0,1-.3,1.6l-.58-.64-.45.55a2.14,2.14,0,0,1,.65,1.4,2,2,0,0,1-1,1.85h0a1.11,1.11,0,0,1-.89.1l-1.38-.43a.59.59,0,0,1,0-.52l1.54-.78s.25-.22.11-1A7.49,7.49,0,0,1,34,12.12s1.75.22,2.32-1.08l.73,0s.49-.14.21-.75A7.57,7.57,0,0,0,35.46,8l-.4.57a5.47,5.47,0,0,1,1.33,1.66H34.75a1.08,1.08,0,0,0-.72.27c-.47.39-1.08,1.46-1,4.21l-1.4.14-1.41-.14c.12-2.75-.49-3.82-1-4.24a1.12,1.12,0,0,0-.73-.26H26.94a5.71,5.71,0,0,1,1.33-1.67L27.87,8a7.78,7.78,0,0,0-1.82,2.24c-.29.61.2.74.2.74L27,11c.56,1.3,2.33,1.09,2.33,1.09a7.87,7.87,0,0,1,.21,2.65c-.14.76.12,1,.12,1l1.54.8a.67.67,0,0,1,0,.52l-1.39.41a1.16,1.16,0,0,1-.89-.1h0A2,2,0,0,1,28,15.51a2.15,2.15,0,0,1,.66-1.4l-.46-.53-.6.65a1.48,1.48,0,0,1-.29-1.6l-.7-.17A2.4,2.4,0,0,0,27.19,15v.84A3.41,3.41,0,0,1,26.14,12l-.7-.24A4.36,4.36,0,0,0,27.51,17a3.14,3.14,0,0,0,.82.92l0,.15a5.63,5.63,0,0,1-3.28-2.64,4.34,4.34,0,0,1-.52-2.59,10.49,10.49,0,0,1,2.07-4.74A5.85,5.85,0,0,1,31.2,5.69v.52a5.31,5.31,0,0,0-2.33.7l.35.62a4.7,4.7,0,0,1,2-.57v.51a7.07,7.07,0,0,0-1.34.46l.32.66c.27-.13,1.05-.39,1.05-.39V9h1V8.19s.77.26,1.05.39l.33-.67a7.38,7.38,0,0,0-1.35-.45V7a4.77,4.77,0,0,1,1.94.56l.36-.61a5,5,0,0,0-2.33-.68V5.69a5.86,5.86,0,0,1,4.56,2.39,10.48,10.48,0,0,1,2.06,4.74,4.2,4.2,0,0,1-.52,2.59"/>
	<polygon points="51.1 10.74 47.65 10.74 47.65 17.87 44.81 17.87 44.81 10.74 41.36 10.74 41.36 8.45 51.1 8.45 51.1 10.74"/>
	<rect x="52.43" y="8.45" width="2.84" height="9.42"/>
	<path d="M66.31,17.21l-.52.19-.42.13-.58.16c-.43.1-.86.17-1.29.23a12.26,12.26,0,0,1-1.36.08,6.54,6.54,0,0,1-2.65-.53,4.38,4.38,0,0,1-1.94-1.62,4.71,4.71,0,0,1-.73-2.71,5.65,5.65,0,0,1,.37-2,3.6,3.6,0,0,1,1.15-1.59,5.33,5.33,0,0,1,1.3-.76,5.17,5.17,0,0,1,1.28-.35,10.66,10.66,0,0,1,1.38-.09,9.37,9.37,0,0,1,2,.19c.54.12,1.13.28,1.78.49v2.23a8.29,8.29,0,0,0-1.35-.63A5.68,5.68,0,0,0,63,10.35a3.66,3.66,0,0,0-2,.47,2.46,2.46,0,0,0-1,1.11,3.18,3.18,0,0,0-.29,1.25A2.71,2.71,0,0,0,60,14.49a2.48,2.48,0,0,0,1,1,3.36,3.36,0,0,0,1.62.35,4.56,4.56,0,0,0,1.16-.15V14.57H62.55V12.68h3.76Z"/>
	<path d="M88,17.87H85l-.74-1.67a7,7,0,0,0-.74-1.34,1.43,1.43,0,0,0-.63-.54,2.2,2.2,0,0,0-.8-.13h-.32v3.68H78.88V8.45h4.84a3.55,3.55,0,0,1,1.91.48,2.94,2.94,0,0,1,1.08,1.16A3,3,0,0,1,87,11.38a2.53,2.53,0,0,1-.28,1.21,2.18,2.18,0,0,1-.58.7,7.31,7.31,0,0,1-.7.43,2.54,2.54,0,0,1,.77.62,7.47,7.47,0,0,1,.8,1.47Zm-3.86-6.44a1,1,0,0,0-.42-.91,2.74,2.74,0,0,0-1.41-.26h-.59v2.27h.61a3,3,0,0,0,1.42-.23.92.92,0,0,0,.39-.87"/>
	<rect x="68" y="12.13" width="9.57" height="2.17"/>
	<rect x="68" y="15.58" width="9.57" height="2.17"/>
	<rect x="68" y="8.67" width="9.57" height="2.17"/>
	<path d="M11.09,18.44l-2,1.81a17.33,17.33,0,0,1-2.33-.7,18.55,18.55,0,0,1-2.31-1.07,6.77,6.77,0,0,1-1.36-.95,5.14,5.14,0,0,1-1.51-.86A4.63,4.63,0,0,1,.45,15.16,4.78,4.78,0,0,1,0,13.06a5.12,5.12,0,0,1,.59-2.39A4.41,4.41,0,0,1,2.38,8.88a6,6,0,0,1,3-.66,6.58,6.58,0,0,1,2.37.38A4.66,4.66,0,0,1,9.39,9.68a4.35,4.35,0,0,1,1,1.55,4.94,4.94,0,0,1,.32,1.83,4.62,4.62,0,0,1-.41,2,4.4,4.4,0,0,1-1,1.48,5.2,5.2,0,0,1-1.48.93,10.3,10.3,0,0,0,1.52.57A6.12,6.12,0,0,0,11,18.3ZM7.8,13.06a2.92,2.92,0,0,0-.16-1,2,2,0,0,0-.47-.78,2.21,2.21,0,0,0-.77-.51,3,3,0,0,0-1.06-.18,2.41,2.41,0,0,0-1.79.69,2.36,2.36,0,0,0-.65,1.75,2.36,2.36,0,0,0,.65,1.75,2.39,2.39,0,0,0,1.79.67,2.73,2.73,0,0,0,1.32-.31,2.11,2.11,0,0,0,.84-.86,2.67,2.67,0,0,0,.3-1.24"/>
	<path d="M21.32,18.14H18.27l-.74-1.68a7,7,0,0,0-.73-1.34,1.53,1.53,0,0,0-.64-.54,2.13,2.13,0,0,0-.8-.12H15v3.68H12.2V8.71H17A3.56,3.56,0,0,1,19,9.2,2.87,2.87,0,0,1,20,10.36a2.91,2.91,0,0,1,.33,1.29,2.42,2.42,0,0,1-.28,1.21,2.18,2.18,0,0,1-.58.7,7,7,0,0,1-.68.43,2.65,2.65,0,0,1,.75.63,7.47,7.47,0,0,1,.8,1.47Zm-3.85-6.45a1,1,0,0,0-.43-.91,2.94,2.94,0,0,0-1.4-.26H15v2.26h.61a3,3,0,0,0,1.42-.23.93.93,0,0,0,.39-.87"/>
</svg>