<?xml version="1.0" ?>
<svg xmlns="http://www.w3.org/2000/svg" viewBox="0 0 1553 389">
	<style>.a{fill:#ff4200}</style>
	<path fill-rule="evenodd" d="m184.6 104.1q0.8 0.9 1.5 1.8 0.6 1 1 2.1 0.5 1.1 0.7 2.3 0.2 1.2 0.1 2.3v264.8q0.1 1.1-0.1 2.3-0.2 1.1-0.7 2.2-0.4 1-1 2-0.7 1-1.5 1.8c-1.1 1-2.5 1.9-3.9 2.4-1.4 0.6-3 0.9-4.5 0.9-1.6 0-3.1-0.3-4.6-0.9-1.4-0.5-2.7-1.4-3.9-2.4q-0.8-0.8-1.4-1.8-0.7-1-1.1-2-0.4-1.1-0.6-2.2-0.2-1.2-0.2-2.3v-116.4q-2.6 4.6-5.8 8.9-3.2 4.2-6.9 8-3.7 3.9-7.8 7.2-4.2 3.3-8.7 6.1-4.8 3.1-10 5.4-5.1 2.4-10.6 4-5.4 1.5-11.1 2.3-5.6 0.8-11.3 0.7-6.2 0.1-12.3-0.7-6.1-0.8-12.1-2.5-6-1.7-11.6-4.3-5.7-2.5-10.9-5.8-5.3-3.5-10.1-7.6-4.8-4-9-8.7-4.2-4.7-7.7-10-3.5-5.2-6.3-10.8c-4-8.3-7.1-16.9-9.1-25.8-2.1-9-3.1-18.1-3.1-27.2 0-9.2 1-18.3 3.1-27.2 2-8.9 5.1-17.6 9.1-25.8q2.8-5.6 6.3-10.9 3.5-5.2 7.7-9.9 4.2-4.7 9-8.8 4.8-4.1 10.1-7.5 5.2-3.3 10.8-5.8 5.6-2.6 11.5-4.3 5.9-1.7 12-2.5 6.1-0.8 12.2-0.8 5.6 0 11.2 0.7 5.6 0.7 11 2.2 5.4 1.4 10.6 3.6 5.2 2.2 10 5 4.6 2.6 8.9 5.8 4.2 3.2 8 7 3.8 3.8 7 8 3.3 4.3 5.9 8.9v-25.3c0-2.3 0.6-4.7 1.9-6.7 1.3-1.9 3.1-3.5 5.3-4.4 2.2-1 4.6-1.2 6.9-0.7 2.3 0.4 4.4 1.6 6.1 3.3zm-53.4 167.3q4.2-2.7 7.9-5.9 3.7-3.3 6.9-7 3.3-3.7 6-7.8 2.7-4.1 4.8-8.6 2.3-4.9 4.1-10.1 1.7-5.1 2.9-10.4 1.2-5.3 1.7-10.8 0.6-5.4 0.5-10.8 0.1-5.4-0.5-10.7-0.5-5.4-1.7-10.6-1.2-5.3-2.9-10.3-1.8-5.1-4.1-10-2.2-4.4-4.9-8.5-2.7-4.1-5.9-7.8-3.2-3.7-6.9-7-3.8-3.2-7.9-6-4-2.6-8.4-4.7-4.4-2-9.1-3.3-4.7-1.4-9.5-2.1-4.8-0.6-9.6-0.5-4.9-0.1-9.7 0.5-4.8 0.7-9.5 2.1-4.6 1.3-9.1 3.3-4.4 2.1-8.4 4.7-4.1 2.7-7.8 6-3.7 3.2-7 7-3.2 3.7-5.9 7.8-2.7 4.1-4.8 8.5c-3 6.6-5.4 13.4-6.9 20.4-1.6 7-2.3 14.2-2.3 21.4 0 7.2 0.7 14.3 2.3 21.3 1.5 7.1 3.9 13.9 6.9 20.4q2.1 4.4 4.8 8.6 2.7 4.1 5.9 7.8 3.3 3.7 7 7 3.7 3.2 7.8 5.9 4 2.7 8.4 4.7 4.5 2 9.1 3.4 4.7 1.3 9.5 2 4.8 0.7 9.7 0.6 4.8 0.1 9.6-0.6 4.8-0.6 9.5-2 4.6-1.3 9-3.3 4.5-2 8.5-4.6z"/>
	<path d="m402.9 104.4q0.8 0.8 1.5 1.8 0.6 1 1 2.1 0.4 1.1 0.6 2.2 0.2 1.2 0.2 2.4v111.2q0 38.6-21.2 59.3c-4 3.6-8.3 6.8-12.9 9.5-4.5 2.7-9.4 5-14.4 6.8-5 1.7-10.2 3-15.5 3.8-5.3 0.7-10.6 0.9-16 0.6-5.2 0.3-10.5 0.1-15.8-0.6-5.2-0.8-10.3-2.1-15.3-3.8-5-1.8-9.8-4.1-14.3-6.8-4.6-2.7-8.8-5.9-12.7-9.5q-21.1-20.7-21-59.3v-111.2q-0.1-1.2 0.1-2.4 0.2-1.1 0.6-2.2 0.5-1.1 1.1-2.1 0.6-1 1.4-1.8c1.1-1.1 2.4-1.9 3.9-2.5 1.4-0.6 2.9-0.9 4.4-0.9 1.6 0 3.1 0.3 4.5 0.9 1.4 0.6 2.7 1.4 3.9 2.5q0.8 0.8 1.4 1.8 0.6 1 1 2.1 0.5 1.1 0.7 2.2 0.2 1.2 0.1 2.4v111.2q-0.4 5.8 0.4 11.7 0.7 5.8 2.6 11.3 1.9 5.6 4.8 10.7 3 5.1 6.9 9.4 4.1 3.9 9 6.8 4.8 3 10.1 4.9 5.4 1.9 11 2.7 5.6 0.8 11.2 0.4 5.8 0.4 11.4-0.4 5.7-0.8 11.1-2.7 5.4-1.9 10.3-4.8 4.9-3 9.1-6.9 4-4.3 7-9.4 3-5.1 4.9-10.6 1.9-5.6 2.7-11.4 0.7-5.9 0.3-11.7v-111.2q0-1.2 0.2-2.4 0.2-1.1 0.6-2.2 0.4-1.1 1.1-2.1 0.6-1 1.4-1.8c1.1-1.1 2.4-1.9 3.8-2.5 1.5-0.6 3-0.9 4.5-0.9 1.6 0 3.1 0.3 4.5 0.9 1.4 0.6 2.7 1.4 3.8 2.5z"/>
	<path fill-rule="evenodd" d="m636.3 106.1q0.8 0.9 1.4 1.9 0.7 1 1.1 2.1 0.4 1.1 0.6 2.2 0.2 1.2 0.2 2.4v173.9c0 3.1-1.2 6.1-3.4 8.2-2.2 2.2-5.1 3.4-8.2 3.4-3.1 0-6-1.2-8.2-3.4-2.2-2.1-3.4-5.1-3.4-8.2v-25.9q-2.6 4.6-5.7 8.7-3.2 4.2-6.9 7.9-3.6 3.7-7.7 6.9-4.2 3.3-8.6 5.9-4.7 3-9.8 5.2-5.1 2.3-10.4 3.8-5.4 1.5-10.9 2.3-5.5 0.7-11 0.7-6.2 0.1-12.3-0.7-6.1-0.9-12-2.6-5.9-1.7-11.5-4.3-5.6-2.5-10.8-5.9-5.2-3.5-9.9-7.6-4.7-4.1-8.8-8.8-4.1-4.7-7.5-9.9-3.5-5.2-6.2-10.9-3-6.1-5.2-12.6-2.3-6.5-3.8-13.2-1.4-6.6-2.1-13.5-0.7-6.8-0.6-13.6-0.1-6.9 0.6-13.7 0.7-6.8 2.2-13.4 1.5-6.7 3.8-13.1 2.3-6.5 5.4-12.6 2.7-5.6 6.2-10.7 3.5-5.2 7.6-9.8 4.1-4.6 8.8-8.7 4.7-4 10-7.4c6.5-4.1 13.6-7.3 21-9.5 7.4-2.2 15.1-3.4 22.8-3.6 7.7-0.1 15.4 0.7 22.9 2.6 7.5 1.9 14.7 4.8 21.5 8.6q4.5 2.6 8.7 5.7 4.2 3.2 7.8 7 3.7 3.7 6.8 7.9 3.1 4.2 5.6 8.8v-24q0-1.1 0.2-2.3 0.2-1.2 0.6-2.3 0.4-1.1 1.1-2.1 0.6-1 1.4-1.8c1.1-1.1 2.4-2 3.8-2.6 1.4-0.6 2.9-0.9 4.5-0.9 1.5 0 3.1 0.3 4.5 0.9 1.4 0.6 2.7 1.5 3.8 2.6zm-52.5 165.7q4.1-2.7 7.7-6 3.7-3.2 6.9-7 3.1-3.7 5.8-7.8 2.6-4.1 4.7-8.6 2.3-4.9 4-10 1.8-5.2 2.9-10.5 1.2-5.2 1.7-10.6 0.6-5.4 0.5-10.9 0-5.3-0.5-10.5-0.5-5.3-1.7-10.5-1.1-5.1-2.9-10.2-1.7-5-4-9.7-2.1-4.5-4.7-8.5-2.7-4.1-5.9-7.8-3.2-3.7-6.8-7-3.7-3.2-7.7-5.9-4-2.7-8.3-4.7-4.4-2-8.9-3.4-4.6-1.3-9.4-2-4.7-0.6-9.5-0.6-4.8 0-9.5 0.6-4.7 0.6-9.3 2-4.6 1.3-8.9 3.3-4.4 2-8.4 4.6-4 2.6-7.7 5.8-3.6 3.2-6.8 6.9-3.2 3.6-5.8 7.7-2.7 4-4.8 8.4-2.3 4.8-4 9.9-1.8 5.1-2.9 10.3-1.2 5.3-1.7 10.6-0.5 5.4-0.4 10.7-0.1 5.5 0.4 10.8 0.5 5.4 1.6 10.7 1.2 5.3 2.9 10.5 1.7 5.1 4 10 2 4.5 4.6 8.6 2.6 4.1 5.7 7.8 3.2 3.8 6.8 7 3.7 3.3 7.7 6c5.4 3.5 11.3 6.1 17.4 7.9 6.1 1.8 12.5 2.8 18.9 2.8 6.4 0 12.8-1 18.9-2.8 6.2-1.8 12-4.4 17.4-7.9z"/>
	<path fill-rule="evenodd" d="m869.6 4.3q0.9 0.8 1.5 1.8 0.7 1 1.1 2 0.4 1.1 0.6 2.3 0.2 1.1 0.2 2.3v275.8q0 1.2-0.2 2.3-0.2 1.2-0.6 2.3-0.4 1-1.1 2-0.6 1-1.5 1.8c-1.1 1.1-2.4 1.9-3.9 2.4-1.4 0.6-2.9 0.9-4.5 0.9-1.5 0-3.1-0.3-4.5-0.9-1.4-0.5-2.8-1.3-3.9-2.4q-0.8-0.8-1.5-1.8-0.6-1-1-2-0.5-1.1-0.7-2.3-0.2-1.1-0.1-2.3v-27.3q-2.6 4.7-5.8 9-3.2 4.3-6.9 8.1-3.7 3.8-7.9 7.2-4.1 3.3-8.7 6.1-4.8 3.1-9.9 5.5-5.2 2.4-10.6 3.9-5.5 1.6-11.1 2.4-5.6 0.8-11.3 0.7-6.2 0.1-12.4-0.7-6.1-0.9-12.1-2.6-5.9-1.7-11.6-4.2-5.6-2.6-10.8-5.9-5.3-3.5-10.1-7.6-4.8-4.1-9-8.8-4.2-4.7-7.7-10-3.6-5.2-6.4-10.9-3.1-6.2-5.4-12.7-2.3-6.5-3.9-13.3-1.5-6.7-2.2-13.6-0.7-6.9-0.6-13.8-0.1-6.9 0.6-13.7 0.7-6.8 2.3-13.5 1.5-6.7 3.8-13.2 2.3-6.5 5.4-12.6 2.8-5.7 6.4-10.9 3.5-5.3 7.7-10 4.2-4.7 9-8.8 4.8-4.1 10.1-7.6 5.1-3.3 10.7-5.8 5.6-2.6 11.5-4.3 5.9-1.7 12-2.5 6.1-0.9 12.3-0.8 5.6-0.1 11.1 0.7 5.6 0.7 11 2.1 5.5 1.5 10.6 3.7 5.2 2.1 10 5 4.7 2.6 9 5.9 4.2 3.2 8 7 3.8 3.7 7 8 3.2 4.3 5.9 8.9v-124.9q-0.1-1.2 0.1-2.3 0.2-1.2 0.7-2.2 0.4-1.1 1-2.1 0.7-1 1.5-1.8c1.1-1 2.5-1.9 3.9-2.4 1.4-0.6 3-0.9 4.5-0.9 1.6 0 3.1 0.3 4.5 0.9 1.5 0.5 2.8 1.4 3.9 2.4zm-53.3 267.5q4.1-2.8 7.8-6 3.8-3.3 7-7 3.2-3.7 5.9-7.9 2.7-4.1 4.8-8.6 2.4-4.9 4.1-10.1 1.8-5.2 3-10.5 1.1-5.3 1.7-10.8 0.5-5.4 0.4-10.9 0.1-5.4-0.4-10.7-0.6-5.4-1.8-10.7-1.1-5.2-2.9-10.3-1.7-5.1-4.1-10-2.1-4.5-4.8-8.6-2.7-4.1-6-7.8-3.2-3.8-6.9-7-3.7-3.3-7.8-6c-5.5-3.5-11.4-6.2-17.6-8-6.2-1.8-12.6-2.7-19.1-2.7-6.5 0-12.9 0.9-19.1 2.7-6.2 1.8-12.1 4.5-17.6 8q-4.1 2.7-7.8 6-3.7 3.2-6.9 7-3.2 3.7-5.9 7.8-2.7 4.1-4.8 8.6-2.4 4.9-4.2 10-1.7 5.1-2.9 10.3-1.2 5.3-1.7 10.7-0.6 5.3-0.5 10.7-0.1 5.5 0.5 10.9 0.5 5.4 1.7 10.7 1.2 5.3 2.9 10.5 1.8 5.1 4.2 10 2.1 4.5 4.8 8.6 2.7 4.2 5.9 7.9 3.2 3.7 6.9 7 3.7 3.2 7.8 6 4.1 2.6 8.5 4.7 4.4 2 9.1 3.4 4.6 1.3 9.4 2 4.9 0.7 9.7 0.6 4.9 0.1 9.7-0.6 4.8-0.6 9.4-2 4.7-1.3 9.1-3.3 4.4-2 8.5-4.6z"/>
	<path class="a" d="m954.5 297.8c-1.2 1.1-2.6 1.9-4.1 2.4-1.5 0.6-3 0.9-4.6 0.9-1.6 0-3.2-0.3-4.7-0.9-1.5-0.5-2.8-1.3-4-2.4q-0.9-0.8-1.5-1.7-0.7-1-1.1-2-0.5-1.1-0.7-2.3-0.2-1.1-0.2-2.3v-176.9q0-1.2 0.2-2.3 0.2-1.2 0.7-2.2 0.4-1.1 1.1-2.1 0.7-0.9 1.5-1.7c1.2-1 2.6-1.9 4-2.4 1.5-0.6 3.1-0.9 4.7-0.9 1.6 0 3.1 0.3 4.6 0.9 1.5 0.5 2.9 1.4 4.1 2.4q0.8 0.8 1.5 1.7 0.6 1 1.1 2.1 0.4 1 0.6 2.2 0.2 1.1 0.2 2.3v176.9q0 1.2-0.2 2.3-0.2 1.2-0.6 2.2-0.5 1.1-1.1 2.1-0.7 0.9-1.5 1.7z"/>
	<path class="a" d="m1030.6 13.1c0.2-1.6 0-3.2-0.6-4.8-0.6-1.5-1.4-2.9-2.6-4.1-1.2-1.1-2.6-2-4.1-2.6-1.5-0.5-3.2-0.7-4.8-0.6h-78.8c-1.6-0.2-3.3 0.1-4.8 0.6-1.6 0.6-3 1.5-4.1 2.6-1.2 1.2-2.1 2.6-2.6 4.1-0.6 1.5-0.8 3.2-0.6 4.8-0.2 1.7 0 3.3 0.6 4.8 0.5 1.6 1.4 3 2.6 4.1 1.1 1.2 2.5 2.1 4.1 2.6 1.5 0.6 3.2 0.8 4.8 0.6h66.7v66.7c0.1 3.2 1.4 6.2 3.6 8.4 2.3 2.2 5.3 3.5 8.5 3.5 3.2 0 6.2-1.3 8.5-3.5 2.2-2.2 3.5-5.2 3.6-8.4z"/>
	<path fill-rule="evenodd" d="m1199.9 198q-0.8 0.8-1.8 1.4-0.9 0.6-2 1-1 0.4-2.1 0.7-1.1 0.2-2.3 0.2h-147.5q-0.1 5.3 0.4 10.7 0.6 5.4 1.8 10.6 1.2 5.3 3.1 10.3 1.8 5.1 4.2 9.9 2.3 4.5 5.2 8.6 3 4.2 6.4 7.9 3.5 3.6 7.4 6.8 4 3.2 8.3 5.7 4.8 2.8 9.9 4.8 5.1 2.1 10.4 3.4 5.3 1.4 10.8 2 5.4 0.6 10.9 0.5 4.4 0 8.7-0.4 4.3-0.5 8.6-1.5 4.2-0.9 8.3-2.4 4.1-1.5 8-3.5 3.5-1.7 6.7-3.9 3.3-2.1 6.3-4.6 3-2.5 5.7-5.3 2.7-2.8 5.1-5.9 0.8-0.8 1.8-1.4 0.9-0.6 2-1.1 1-0.4 2.1-0.7 1.1-0.2 2.3-0.3 0.9 0 1.9 0.2 1 0.2 1.9 0.6 0.9 0.4 1.7 1 0.8 0.6 1.4 1.3 0.8 0.7 1.4 1.5 0.5 0.8 0.9 1.7 0.5 0.9 0.7 1.8 0.2 1 0.2 2-0.1 1.1-0.3 2.3-0.3 1.1-0.8 2.1-0.5 1.1-1.2 2-0.7 0.9-1.6 1.7-3.2 3.9-6.8 7.4-3.7 3.5-7.6 6.6-4 3.1-8.2 5.8-4.3 2.7-8.8 5-4.6 2.3-9.5 4.2-4.9 1.8-9.9 3-5.1 1.2-10.3 1.8-5.1 0.6-10.3 0.6-6.9 0.2-13.8-0.6-6.9-0.7-13.6-2.3-6.7-1.6-13.2-4.1-6.4-2.5-12.5-5.7-5.6-3.1-10.8-7-5.2-3.8-9.7-8.4-4.6-4.5-8.4-9.7-3.9-5.1-7-10.7-3.3-6.1-5.8-12.6-2.5-6.4-4.1-13.2-1.6-6.7-2.4-13.6-0.7-6.9-0.6-13.8-0.1-7.2 0.6-14.4 0.7-7.1 2.3-14.1 1.6-7 4.1-13.8 2.4-6.8 5.7-13.2 2.9-5.6 6.5-10.7 3.6-5.2 7.9-9.8 4.2-4.6 9.1-8.6 4.9-4 10.3-7.2 5-3.1 10.4-5.5 5.5-2.3 11.1-3.9 5.7-1.6 11.6-2.4 5.8-0.8 11.7-0.8 5.8 0 11.4 0.7 5.7 0.6 11.3 2 5.5 1.4 10.9 3.4 5.3 2.1 10.4 4.8 5.1 2.7 9.9 6.1 4.7 3.4 8.9 7.4 4.2 4.1 7.9 8.6 3.6 4.6 6.6 9.6 3.4 5.6 5.9 11.5 2.5 6 4.2 12.3 1.7 6.3 2.5 12.7 0.8 6.5 0.7 13 0 1.1-0.2 2.2-0.2 1.1-0.7 2.1-0.4 1-1.1 1.9-0.6 1-1.5 1.7zm-129-62.1q-5 4.2-9.2 9.2-4.1 5-7.3 10.7-3.2 5.7-5.3 11.9-2 6.2-3 12.7h133.1v-3.1q-0.4-4.1-1.4-8.2-0.9-4-2.4-7.8-1.5-3.9-3.5-7.5-1.9-3.6-4.4-6.9-2.4-3.2-5.1-6-2.8-2.9-5.9-5.4-3-2.5-6.4-4.6-3.4-2.1-7-3.7-3.5-1.7-7.2-3-3.7-1.2-7.6-2.1-3.8-0.8-7.7-1.3-3.8-0.4-7.8-0.4-5.7 0-11.3 1.1-5.6 1-11 3-5.4 2-10.3 4.8-4.9 2.9-9.3 6.6z"/>
	<path d="m1395.6 119.2q4.5 6 7.8 12.7 3.4 6.7 5.6 13.9 2.1 7.1 3 14.6 0.9 7.4 0.6 14.9v114.1q0 1.2-0.2 2.4-0.2 1.1-0.7 2.2-0.5 1.1-1.1 2-0.7 1-1.6 1.8c-1.1 1-2.4 1.9-3.8 2.4-1.4 0.6-2.9 0.9-4.4 0.9-1.5 0-3-0.3-4.5-0.9-1.4-0.5-2.7-1.4-3.8-2.4q-0.8-0.8-1.4-1.8-0.7-1-1.1-2-0.4-1.1-0.6-2.3-0.2-1.1-0.2-2.3v-113q0.3-5.4-0.4-10.9-0.7-5.4-2.3-10.7-1.6-5.2-4.1-10.1-2.5-4.9-5.8-9.2c-2.4-2.8-5.2-5.2-8.1-7.3-3-2.1-6.2-3.8-9.6-5.2-3.4-1.4-6.9-2.3-10.5-2.9-3.6-0.5-7.3-0.6-10.9-0.4-5.4 0.1-10.9 0.7-16.1 2-5.3 1.3-10.4 3.2-15.3 5.7-4.8 2.4-9.4 5.5-13.5 9-4.1 3.5-7.9 7.5-11.1 11.9q-2.2 3-4 6.4-1.7 3.3-2.9 6.9-1.2 3.6-1.8 7.3-0.6 3.8-0.6 7.5v113c0 3.1-1.2 6.1-3.4 8.3-2.2 2.2-5.2 3.4-8.2 3.4-3.1 0-6.1-1.2-8.3-3.4-2.2-2.2-3.4-5.2-3.4-8.3v-173.9c0-3.1 1.2-6.1 3.4-8.3 2.2-2.1 5.2-3.4 8.3-3.4 3 0 6 1.3 8.2 3.4 2.2 2.2 3.4 5.2 3.4 8.3v21.3q2.8-4.3 6.2-8.3 3.3-4 7.1-7.5 3.8-3.5 8.1-6.5 4.2-3 8.7-5.5 4.6-2.6 9.5-4.7 4.8-2 9.9-3.4 5.1-1.4 10.4-2.1 5.2-0.8 10.5-0.8 36.1 0 53 21.2z"/>
	<path d="m1513.6 125.7v129.7q-0.3 2.7-0.1 5.3 0.2 2.7 0.9 5.2 0.7 2.6 1.9 5 1.2 2.3 2.9 4.4 1.1 1.4 2.5 2.4 1.4 1 3 1.7 1.6 0.7 3.3 1 1.7 0.3 3.5 0.2 0.7-0.1 1.5-0.1 0.8-0.1 1.5-0.2 0.8-0.1 1.5-0.3 0.8-0.2 1.5-0.4 0.7-0.2 1.4-0.4 0.6-0.1 1.3-0.3 0.7-0.1 1.5-0.2 0.7 0 1.4-0.1 0.9 0 1.7 0.2 0.9 0.2 1.7 0.6 0.8 0.4 1.5 0.9 0.7 0.6 1.2 1.2 0.7 0.7 1.2 1.5 0.4 0.8 0.8 1.7 0.3 0.8 0.5 1.8 0.1 0.9 0.1 1.8-0.1 1.5-0.5 2.9-0.5 1.4-1.4 2.6-0.8 1.2-2 2.1-1.1 0.9-2.5 1.5-1.7 1-3.5 1.7-1.9 0.7-3.8 1.1-1.9 0.5-3.9 0.7-1.9 0.2-3.9 0.2-2.1 0-4.2-0.1-2.1-0.1-4.2-0.3-2.1-0.3-4.2-0.7-2.1-0.3-4.1-0.9-2.5-0.7-4.7-1.8-2.3-1.1-4.4-2.6-2-1.5-3.8-3.3-1.8-1.8-3.3-3.9-2.2-3.4-3.8-7.2-1.6-3.7-2.6-7.6-1-4-1.4-8-0.3-4.1 0.1-8.2v-130.8h-29.2q-1.1 0.1-2.2-0.1-1.1-0.2-2.2-0.6-1-0.4-2-1-0.9-0.6-1.8-1.4c-1-1-1.9-2.2-2.5-3.5-0.5-1.3-0.9-2.8-0.9-4.2 0-1.5 0.4-2.9 0.9-4.3 0.6-1.3 1.5-2.5 2.5-3.5q0.9-0.7 1.8-1.3 1-0.6 2-1 1.1-0.4 2.2-0.6 1.1-0.2 2.2-0.2h29.2v-42.9q-0.1-1.2 0.1-2.3 0.2-1.1 0.7-2.2 0.4-1.1 1.1-2.1 0.6-0.9 1.5-1.7c1.1-1.1 2.5-1.9 3.9-2.5 1.5-0.5 3.1-0.8 4.6-0.8 1.6 0 3.2 0.3 4.6 0.8 1.5 0.6 2.8 1.4 4 2.5q0.8 0.8 1.5 1.7 0.7 1 1.1 2.1 0.4 1.1 0.6 2.2 0.2 1.1 0.2 2.3v43h27.3q1.1 0 2.1 0.2 1.1 0.3 2.1 0.7 1 0.5 1.9 1.1 0.9 0.6 1.6 1.5 0.8 0.7 1.4 1.6 0.7 0.9 1.1 1.9 0.4 1 0.7 2.1 0.2 1 0.2 2.1 0 1.1-0.1 2.1-0.2 1.1-0.6 2-0.5 1-1.1 1.9-0.6 0.8-1.4 1.6-0.8 0.7-1.7 1.2-1 0.6-2 1-1 0.3-2.1 0.5-1.1 0.2-2.2 0.1z"/>
</svg>