<?xml version="1.0" ?>
<svg xmlns="http://www.w3.org/2000/svg" viewBox="0 0 42.26 42.26">
	<path d="M 0.0,0.0 L 42.26,0.0 L 42.26,42.26 L 0.0,42.26 L 0.0,0.0" style="fill:#00b7ac"/>
	<path d="M 30.44,14.15 C 30.32,18.49 26.67,29.51 16.67,33.45 C 11.56,35.47 8.36,34.51 8.52,28.88 C 8.76,20.31 15.98,12.28 23.1,9.47 C 27.72,7.64 30.59,8.91 30.44,14.15 L 30.44,14.15 M 38.75,29.95 C 38.76,29.77 38.7,29.75 38.65,29.78 C 37.62,30.22 36.85,30.6 35.49,31.13 C 34.78,31.41 32.67,32.07 30.99,32.41 C 26.99,33.2 23.33,33.51 19.19,33.24 C 27.49,28.71 35.12,19.3 35.32,12.33 C 35.47,7.02 31.38,5.16 23.72,8.19 C 12.58,12.58 3.88,23.59 3.68,30.82 C 3.53,36.1 8.27,37.77 16.1,34.67 C 18.08,34.89 20.6,35.25 23.02,35.34 C 25.76,35.44 28.93,35.4 31.65,34.33 C 34.48,33.21 37.16,31.48 38.48,30.38 C 38.69,30.22 38.74,30.17 38.75,29.95 L 38.75,29.95" style="fill:#fff"/>
</svg>