<?xml version="1.0" ?>
<svg xmlns="http://www.w3.org/2000/svg" viewBox="0 0 140.249 21.276">
	<defs>
		<style>.cls-1{fill:#001445;}</style>
	</defs>
	<path class="cls-1" d="M23.997,12.369V.703c0-.243.197-.44.44-.44h3.165c.243,0,.44.197.44.44v11.638c0,2.504,1.541,3.631,3.687,3.631s3.687-1.128,3.687-3.631V.703c0-.243.197-.44.44-.44h3.165c.243,0,.44.197.44.44v11.666c0,4.925-3.164,7.373-7.731,7.373s-7.731-2.449-7.731-7.373"/>
	<path class="cls-1" d="M64.889.263h3.304c.243,0,.44.197.44.44v14.857c0,.122.099.22.22.22h7.89c.275,0,.483.25.432.52l-.508,2.729c-.053.286-.303.493-.593.493h-11.184c-.333,0-.603-.27-.603-.603V.866c0-.333.27-.603.603-.603"/>
	<path class="cls-1" d="M81.792.263h3.467c.243,0,.44.197.44.44v18.379c0,.243-.197.44-.44.44h-3.467c-.243,0-.44-.197-.44-.44V.703c0-.243.197-.44.44-.44"/>
	<path class="cls-1" d="M95.279,3.977h-5.008c-.243,0-.44-.197-.44-.44V.703c0-.243.197-.44.44-.44h14.701c.27,0,.476.241.435.508l-.443,2.835c-.034.214-.218.372-.435.372h-4.463c-.121,0-.22.098-.22.22v14.885c0,.243-.197.44-.44.44h-3.467c-.243,0-.44-.197-.44-.44V4.197c0-.121-.099-.22-.22-.22"/>
	<path class="cls-1" d="M112.438.263h3.493c.183,0,.346.113.411.284l6.958,18.379c.109.288-.104.596-.411.596h-3.422c-.256,0-.483-.161-.569-.402l-1.157-3.267c-.062-.175-.228-.293-.414-.293h-6.257c-.186,0-.352.117-.414.293l-1.157,3.267c-.085.241-.313.402-.569.402h-3.449c-.308,0-.52-.308-.411-.596L112.027.547c.065-.171.228-.284.411-.284M112.391,11.929h3.614c.152,0,.258-.15.207-.293l-1.807-5.093c-.069-.195-.345-.195-.414,0l-1.807,5.093c-.051.143.055.293.207.293"/>
	<path class="cls-1" d="M125.893,13.458l2.821-.838c.246-.073.499.079.554.329.421,1.882,1.989,3.106,3.745,3.106,1.733,0,2.861-.825,2.861-2.036,0-3.632-9.877-1.486-9.877-8.557,0-3.164,3.026-5.42,6.796-5.42,3.485,0,6.341,1.744,7.225,4.391.099.296-.054.618-.343.739l-2.929,1.226c-.238.099-.506-.028-.589-.272-.499-1.468-1.716-2.398-3.365-2.398-1.513,0-2.449.633-2.449,1.706,0,3.054,9.904.605,9.904,8.474,0,3.494-2.971,5.833-7.401,5.833-3.651,0-6.758-2.348-7.377-5.592-.058-.304.125-.603.422-.692"/>
	<path class="cls-1" d="M49.225.263h3.493c.182,0,.346.113.411.284l6.958,18.379c.109.288-.104.596-.411.596h-3.421c-.256,0-.483-.161-.569-.402l-1.157-3.267c-.062-.175-.228-.293-.414-.293h-6.258c-.186,0-.352.117-.414.293l-1.157,3.267c-.085.241-.313.402-.569.402h-3.449c-.308,0-.52-.308-.411-.596L48.815.547c.065-.171.228-.284.411-.284M49.178,11.929h3.614c.152,0,.258-.15.207-.293l-1.807-5.093c-.069-.195-.345-.195-.415,0l-1.807,5.093c-.051.143.055.293.207.293"/>
	<path class="cls-1" d="M11.656,10.3l2.693,2.927c.096.104.268.088.336-.035.516-.925.796-2.051.796-3.295,0-3.539-2.322-6.165-5.557-6.165-3.262,0-5.557,2.626-5.557,6.165s2.294,6.138,5.557,6.138c.506,0,.978-.07,1.428-.183.156-.039.215-.231.106-.349l-2.53-2.735c-.167-.18-.154-.462.029-.626l2.082-1.871c.179-.161.455-.148.618.029M9.888,0c5.362-.029,9.753,4.111,9.953,9.47.101,2.695-.754,5.093-2.246,6.906-.101.123-.099.299.009.415l1.777,1.929c.166.18.153.462-.03.625l-2.028,1.819c-.179.16-.453.148-.616-.028l-2.011-2.168c-.109-.117-.279-.148-.425-.082-1.296.59-2.759.908-4.319.908C4.202,19.794,0,15.592,0,9.897S4.171.032,9.888,0"/>
</svg>