<svg viewBox="0 0 407 69" fill="none" xmlns="http://www.w3.org/2000/svg">
<g clip-path="url(#clip0_1_3)">
<path d="M19.88 69L16.48 65.68C14.6618 66.4615 12.6852 66.8041 10.71 66.68C0.66 66.65 0 60.27 0 51.53V46.86C0.26 38.51 0.92 32.31 10.71 32.31C20.5 32.31 21.15 38.51 21.41 46.86V51.53C21.41 55.73 21.19 60.19 19.62 62.72L23 66.09L19.88 69ZM14.42 57.56L14.73 57.87C14.9578 56.7914 15.075 55.6924 15.08 54.59V45.5C15.08 42.97 15.47 37.24 10.67 37.24C5.87 37.24 6.29 43 6.29 45.5V54.59C6.29 57.3 6.51 61.72 10.71 61.72C11.2412 61.7229 11.77 61.6488 12.28 61.5L11.1 60.36L14.42 57.56Z" fill="#F8991D"/>
<path d="M45 33.09H51.12V56C51.12 63.25 48.76 66.7 40.76 66.7C32.76 66.7 30.28 63.2 30.28 56V33.09H36.4V55.42C36.4 58.57 36.62 61.72 40.77 61.72C44.77 61.72 44.96 58.57 44.96 55.42L45 33.09Z" fill="#F8991D"/>
<path d="M57.67 65.87L65.5 33.09H73.76L81.19 65.87H74.63L73 57.56H65.85L64.23 65.87H57.67ZM66.81 52.76H72.05L70.39 43.45C70.09 41.92 69.95 40.45 69.78 38.9C69.78 38.16 69.65 37.42 69.56 36.72H69.47C69.39 37.42 69.3 38.16 69.26 38.9C69.08 40.43 68.95 41.9 68.64 43.45L66.81 52.76Z" fill="#F8991D"/>
<path d="M102.46 33.09H108.58V65.87H102.2L97.44 54.2C95.7136 49.9621 94.2541 45.6203 93.07 41.2H93C93.22 43.91 93.48 47.2 93.66 50.55C93.84 53.9 93.96 57.1 93.96 59.73V65.89H87.82V33.09H94.16L98.92 45C100.653 49.2356 102.112 53.5778 103.29 58H103.38C103.16 55 102.95 51.83 102.77 48.69C102.59 45.55 102.46 42.39 102.46 39.47V33.09Z" fill="#F8991D"/>
<path d="M115.57 33.09H136V37.9H128.88V65.9H122.76V37.9H115.59L115.57 33.09Z" fill="#F8991D"/>
<path d="M162.33 54.2C162.28 54.81 162.24 55.47 162.2 56.08C161.89 62.08 159.88 66.65 153.06 66.65C143.01 66.65 142.35 60.27 142.35 51.53V46.86C142.62 38.51 143.27 32.31 153.06 32.31C158.52 32.39 161.58 35.19 162.06 40.78C162.173 41.6049 162.217 42.4378 162.19 43.27H156.19C155.93 41.18 156.19 37.27 153.13 37.27C148.32 37.27 148.72 43 148.72 45.53V54.62C148.72 57.33 148.94 61.75 153.13 61.75C156.5 61.75 156.13 56.33 156.23 54.23L162.33 54.2Z" fill="#333333"/>
<path d="M170.19 46.86C170.45 38.51 171.11 32.31 180.89 32.31C190.67 32.31 191.34 38.51 191.6 46.86V51.53C191.6 60.27 190.95 66.65 180.89 66.65C170.83 66.65 170.19 60.27 170.19 51.53V46.86ZM176.48 54.59C176.48 57.3 176.7 61.72 180.89 61.72C185.27 61.72 185.31 57.21 185.31 54.07V45.68C185.31 43.06 185.44 37.24 180.89 37.24C176.09 37.24 176.48 42.97 176.48 45.5V54.59Z" fill="#333333"/>
<path d="M215.11 33.09H221.23V65.87H214.85L210.08 54.2C208.354 49.9621 206.894 45.6203 205.71 41.2H205.62C205.84 43.91 206.11 47.2 206.28 50.55C206.45 53.9 206.59 57.1 206.59 59.73V65.89H200.47V33.09H206.8L211.57 45C213.294 49.2389 214.753 53.5805 215.94 58H216C215.78 55 215.56 51.83 215.38 48.69C215.2 45.55 215.08 42.39 215.08 39.47L215.11 33.09Z" fill="#333333"/>
<path d="M245.08 33.09H251.2V65.87H244.82L240.06 54.2C238.334 49.9621 236.874 45.6203 235.69 41.2H235.6C235.82 43.91 236.08 47.2 236.25 50.55C236.42 53.9 236.56 57.1 236.56 59.73V65.89H230.44V33.09H236.78L241.54 45C243.273 49.2356 244.732 53.5778 245.91 58H246C245.78 55 245.56 51.83 245.39 48.69C245.22 45.55 245.08 42.39 245.08 39.47V33.09Z" fill="#333333"/>
<path d="M260.24 65.87V33.09H277.46V37.9H266.36V46.16H276.59V51H266.36V61.06H277.46V65.87H260.24Z" fill="#333333"/>
<path d="M304.94 54.2C304.94 54.81 304.86 55.47 304.81 56.08C304.51 62.08 302.5 66.65 295.68 66.65C285.63 66.65 284.97 60.27 284.97 51.53V46.86C285.23 38.51 285.89 32.31 295.68 32.31C301.14 32.39 304.2 35.19 304.68 40.78C304.783 41.6058 304.827 42.438 304.81 43.27H298.81C298.55 41.18 298.76 37.27 295.75 37.27C290.94 37.27 291.33 43 291.33 45.53V54.62C291.33 57.33 291.55 61.75 295.75 61.75C299.11 61.75 298.75 56.33 298.85 54.23L304.94 54.2Z" fill="#333333"/>
<path d="M310.88 33.09H331.29V37.9H324.17V65.9H318.05V37.9H310.88V33.09Z" fill="#333333"/>
<path d="M397.19 9.76C394.231 6.68277 390.68 4.2369 386.75 2.57C382.682 0.873492 378.318 0 373.91 0C369.502 0 365.138 0.873492 361.07 2.57C357.108 4.27596 353.505 6.71546 350.45 9.76C347.486 12.7766 345.112 16.3208 343.45 20.21C341.744 24.2754 340.87 28.6413 340.88 33.05H348.59C348.657 29.6971 349.353 26.3866 350.64 23.29C351.901 20.2772 353.766 17.5546 356.12 15.29C358.386 12.938 361.108 11.0733 364.12 9.81C370.385 7.30288 377.375 7.30288 383.64 9.81C386.696 11.1049 389.482 12.964 391.85 15.29C394.097 17.6072 395.897 20.3193 397.16 23.29C398.53 26.3607 399.232 29.6875 399.22 33.05C399.225 36.47 398.535 39.8554 397.19 43C395.846 45.9263 394.055 48.6253 391.88 51C389.505 53.2744 386.718 55.0764 383.67 56.31C380.599 57.6781 377.272 58.3802 373.91 58.37V66.07C378.318 66.0767 382.684 65.2029 386.75 63.5C394.686 60.1246 401.005 53.8056 404.38 45.87C406.076 41.8018 406.95 37.4378 406.95 33.03C406.95 28.6222 406.076 24.2582 404.38 20.19C402.711 16.2642 400.265 12.7164 397.19 9.76Z" fill="#F8991D"/>
<path d="M364.32 42.63C365.556 43.9289 367.043 44.963 368.69 45.6697C370.338 46.3763 372.112 46.7407 373.905 46.7407C375.698 46.7407 377.472 46.3763 379.12 45.6697C380.767 44.963 382.254 43.9289 383.49 42.63C384.821 41.4288 385.865 39.9448 386.547 38.287C387.229 36.6292 387.53 34.8397 387.43 33.05H379.73C379.736 33.8143 379.587 34.5718 379.291 35.2766C378.995 35.9814 378.56 36.6188 378.01 37.15C377.482 37.7043 376.846 38.1433 376.14 38.4393C375.434 38.7354 374.675 38.882 373.91 38.87C373.139 38.9137 372.369 38.7815 371.657 38.4836C370.945 38.1856 370.31 37.7296 369.8 37.15C369.219 36.6431 368.763 36.0101 368.464 35.2995C368.166 34.5888 368.035 33.8193 368.08 33.05C368.067 32.2832 368.213 31.5219 368.509 30.8145C368.805 30.107 369.244 29.4687 369.8 28.94C370.334 28.3911 370.973 27.9558 371.679 27.6602C372.386 27.3646 373.144 27.2149 373.91 27.22V19.52C372.128 19.4943 370.36 19.8302 368.711 20.5074C367.063 21.1846 365.569 22.189 364.32 23.46C363.01 24.6879 361.968 26.174 361.261 27.8246C360.553 29.4751 360.196 31.2543 360.21 33.05C360.176 34.847 360.525 36.6305 361.234 38.2823C361.943 39.934 362.995 41.416 364.32 42.63Z" fill="#F8991D"/>
<path d="M352.33 42.12C353.517 44.9019 355.267 47.4079 357.47 49.48C359.542 51.6832 362.048 53.4333 364.83 54.62C370.665 56.8996 377.145 56.8996 382.98 54.62C385.762 53.4333 388.268 51.6832 390.34 49.48C392.557 47.4496 394.269 44.9293 395.34 42.12C396.649 39.2793 397.292 36.177 397.22 33.05C397.262 29.929 396.61 26.8378 395.31 24C394.239 21.1907 392.527 18.6704 390.31 16.64C388.28 14.4228 385.759 12.7107 382.95 11.64C380.109 10.3309 377.007 9.6879 373.88 9.76001V17.46C375.928 17.4211 377.961 17.8132 379.847 18.6109C381.734 19.4085 383.431 20.5939 384.83 22.09C386.32 23.5039 387.501 25.2115 388.298 27.1048C389.095 28.9981 389.49 31.036 389.46 33.09C389.509 35.1465 389.121 37.1899 388.323 39.0858C387.525 40.9818 386.335 42.6872 384.83 44.09C383.401 45.5364 381.698 46.6832 379.821 47.4631C377.943 48.243 375.929 48.6404 373.896 48.632C371.863 48.6236 369.852 48.2096 367.981 47.4143C366.11 46.6189 364.417 45.4581 363 44C361.499 42.5952 360.311 40.8891 359.515 38.9935C358.719 37.0979 358.332 35.0555 358.38 33H350.67C350.601 36.121 351.166 39.2235 352.33 42.12Z" fill="#333333"/>
</g>
<defs>
<clipPath id="clip0_1_3">
<rect width="406.95" height="68.97" fill="white"/>
</clipPath>
</defs>
</svg>
