<?xml version="1.0" ?>
<svg xmlns="http://www.w3.org/2000/svg" viewBox="0 0 1548 281">
	<defs>
		<clipPath clipPathUnits="userSpaceOnUse" id="cp1">
			<path d="m-457-405h5107v7222h-5107z"/>
		</clipPath>
	</defs>
	<style>.a{fill:none;stroke:#fff;stroke-linecap:round;stroke-linejoin:round;stroke-width:2.9}.b{fill:#939fa2}.c{fill:#2e353f}.d{fill:#f0341a}.e{fill:none;stroke:#fff;stroke-linecap:round;stroke-linejoin:round;stroke-width:5.3}</style>
	<g clip-path="url(#cp1)">
		<path class="a" d="m39.9 161.9c0 0 4.4-9.1 15.6-11.1"/>
		<path fill-rule="evenodd" class="b" d="m140.5 10.9c2.5-5.9 8.4-10.1 15.3-10.1 9.2 0 16.6 7.5 16.6 16.7 0 9.2-7.4 16.7-16.6 16.7-9.2 0-16.7-7.5-16.7-16.7q0-0.6 0-1.1h4.8v-5.5zm-60.9 5.5c-0.2-2.1-0.5-4-1-5.5h61.9c-0.7 1.7-1.2 3.6-1.3 5.5zm-57.7 62.6l27.1-49.2c1.3 1.3 2.9 2.3 4.6 3l-26.7 48.5c-1.7-1.1-3.4-1.8-5-2.3zm27.1-49.2c-3.3-3-5.4-7.4-5.4-12.3 0-9.2 7.4-16.7 16.6-16.7 9.2 0 16.7 7.5 16.7 16.7 0 9.2-7.5 16.7-16.7 16.7-2.4 0-4.6-0.5-6.6-1.4l2.5-4.5-4.8-2.6zm-1.7 132.9l-27-48.7c1.8-0.4 3.6-1.2 5.2-2.1l26.4 47.7c-1.8 1-3.3 2-4.6 3.1zm-27-48.7q-1.8 0.4-3.6 0.4c-9.2 0-16.6-7.4-16.6-16.7 0-9.2 7.4-16.6 16.6-16.6 9.3 0 16.7 7.4 16.7 16.6 0 6-3.2 11.2-7.9 14.2l-2.8-5.1-4.9 2.7zm114.4 70.8l-59.6-0.1c0.9-1.6 1.4-3.5 1.6-5.5l57.9 0.1c-0.2 2-0.1 3.8 0.1 5.5zm-59.6-0.1c-2.7 5.5-8.4 9.2-14.9 9.2-9.2 0-16.6-7.4-16.6-16.6 0-9.3 7.4-16.7 16.6-16.7 9.2 0 16.7 7.4 16.7 16.7q0 1-0.2 1.9h-2.7v5.5zm122.6-99.1l-4.9 2.7-29.5-53c1.9-0.8 3.5-1.8 4.8-2.8zm233.9-74.8c-0.5 1.5-0.9 3.4-1.1 5.5h-59.5c-0.2-1.9-0.6-3.8-1.3-5.5zm-65.3 5.5v-5.5h3.3c-2.5-5.9-8.4-10.1-15.2-10.1-9.3 0-16.7 7.5-16.7 16.7 0 9.2 7.4 16.7 16.7 16.7 9.2 0 16.6-7.5 16.6-16.7q0-0.5-0.1-1.1zm116.9 64.9l-26.7-48.4c1.7-0.8 3.3-1.8 4.7-3l27 49.1c-1.5 0.5-3.2 1.2-5 2.3zm-26.7-48.4c-2 0.9-4.2 1.3-6.6 1.3-9.2 0-16.7-7.5-16.7-16.7 0-9.2 7.5-16.7 16.7-16.7 9.2 0 16.7 7.5 16.7 16.7 0 4.9-2.1 9.3-5.4 12.4l-2.3-4.2-4.9 2.6zm1.7 126.8l26.5-47.7c1.5 1 3.3 1.7 5.1 2.1l-27 48.7c-1.2-1.1-2.8-2.1-4.6-3.1zm26.5-47.7c-4.8-2.9-8-8.1-8-14.2 0-9.2 7.5-16.6 16.7-16.6 9.2 0 16.7 7.4 16.7 16.6 0 9.3-7.5 16.7-16.7 16.7q-1.8 0-3.6-0.4l2.5-4.5-4.8-2.7zm-109.1 67.5l57.8-0.1c0.2 1.9 0.8 3.8 1.6 5.5l-59.5 0.1c0.2-1.6 0.3-3.5 0.1-5.5zm57.8-0.1q-0.1-1-0.1-1.9c0-9.2 7.5-16.7 16.7-16.7 9.2 0 16.7 7.5 16.7 16.7 0 9.2-7.5 16.6-16.7 16.6-6.6 0-12.2-3.8-15-9.2h1.3v-5.5zm-91.3-146.7c1.2 1 2.9 2 4.7 2.8l-29.5 53-4.8-2.7z"/>
		<path fill-rule="evenodd" class="c" d="m647 156.6c-7.9 2.7-16.4 4.1-25.7 4.1-40.6 0-69.1-28.1-69.1-67.7 0-39.6 28.5-67.7 69.1-67.7 40.6 0 69.1 28.1 69.1 67.7 0 20.8-7.9 38.6-21.4 50.7l23.2 30.1h-32.1zm-17.4-22.8l-21.8-28.5h31.9l11.8 15.7c5.8-7.2 9.1-16.9 9.1-28 0-24.5-16-41.6-39.4-41.6-23.3 0-39.4 17.1-39.4 41.6 0 24.6 16.1 41.6 39.4 41.6 3 0 5.8-0.2 8.4-0.8zm192-31.1c0 38.6-19.2 58.1-57.6 58.1-37.8 0-56.8-19.5-56.8-58.1v-75.4h29.3v73.5c0 22.3 9.7 33.8 28.3 33.8 18.8 0 28.5-11.5 28.5-33.8v-73.5h28.3zm107.7 33.8h-60.4l-8.9 22.2h-30.7l56.1-131.5h28.3l56 131.5h-31.4zm-30.5-75.6l-20 50.5h40.6l-20.2-50.5zm116.4 0.2h-0.4v97.6h-28.3v-131.5h40.2l49.7 88.3h0.4v-88.3h28.3v131.5h-35.3zm177.7 97.7h-29.3v-105.4h-39.3v-26.2h107.6v26.2h-39zm169.7-56.1c0 38.7-19.3 58.1-57.7 58.1-37.8 0-56.8-19.4-56.8-58.1v-75.4h29.3v73.5c0 22.3 9.7 33.8 28.3 33.8 18.8 0 28.6-11.5 28.6-33.8v-73.5h28.3zm155.6 56v-99h-0.4l-38 99h-26.5l-36.9-96.2h-0.4v96.2h-28.3v-131.5h44l35.2 91.7h0.4l35.3-91.7h44.9v131.5zm-959.4 76.6c0 15 10.3 24.8 25.8 24.8 5.4 0 10.1-0.9 14.1-2.6v-14.9h-18.5v-8.2h27.4v27.7c-6.1 4.2-13.4 6.2-23.4 6.2-21 0-34.8-13-34.8-33 0-20.1 13.8-33 34.8-33 10 0 17.3 1.9 23.4 6.2v10.2h-0.5c-5.9-5.6-13-8.2-22.5-8.2-15.5 0-25.8 9.7-25.8 24.8z"/>
		<path fill-rule="evenodd" class="c" d="m626.2 267.3v-64h28.2c15 0 22.8 6.8 22.8 19.8 0 10.5-5 16.9-14.8 19.1l16.8 25.1h-11l-15.4-24.4h-17.3v24.4zm27.8-32.6c9.2 0 13.8-3.8 13.8-11.6q0.1-11.6-13.8-11.6h-18.5v23.2zm85.8 19.3h-35.4l-5.9 13.3h-9.7l29-64h8.8l29 64h-10zm-17.7-40.2l-14.1 32h28.3l-14-32zm75.3-10.5c15 0 22.9 6.8 22.9 20.2 0 13.3-7.9 20.2-22.9 20.2h-18.4v23.6h-9.3v-64zm-0.4 32.2c9.3 0 13.9-4 13.9-12 0-8-4.6-12-13.9-12h-18v24zm85.1 31.8v-28.3h-37.4v28.3h-9.2v-64h9.2v27.5h37.4v-27.5h9.2v64zm38.4-64v64h-9.3v-64zm45.2 64h-9.3v-55.8h-21.1v-8.2h51.4v8.2h-21zm75.6-36.5v8.2h-30.6v20.1h37.6v8.2h-46.9v-64h46.9v8.2h-37.6v19.3z"/>
		<path fill-rule="evenodd" class="d" d="m287.1 93.8c2.5-8.1 10-13.9 18.9-13.9 11 0 19.9 8.8 19.9 19.8 0 11-8.9 19.9-19.9 19.9-9.5 0-17.4-6.7-19.3-15.6h2.9v-10.2zm-57.7 10.1c0.7-4 0.3-7.5-0.5-10.1h58.2q-0.9 2.8-0.9 5.9 0 2.2 0.5 4.3zm-63.1 56.4l27.3-45.7c2.5 2.2 5.6 3.8 9.1 4.6l-28.2 47.1c-2.7-3.1-5.7-4.9-8.2-6zm27.3-45.7c-4.1-3.7-6.6-9-6.6-14.9 0-11 8.8-19.8 19.8-19.8 11 0 19.8 8.8 19.8 19.8 0 11-8.8 19.9-19.8 19.9q-2.1 0-4.1-0.4l3.5-5.9-8.7-5.2zm-3.5 130.6l-26.8-44.8c3.3-1 6.2-2.9 8.5-5.4l26.7 44.6c-3.7 1.5-6.5 3.6-8.4 5.6zm-26.8-44.8c-1.9 0.7-4 1-6.1 1-11 0-19.8-8.8-19.8-19.8 0-11 8.8-19.9 19.8-19.9 11 0 19.8 8.9 19.8 19.9 0 5.2-2 9.8-5.2 13.4l-4.9-8.4-8.7 5.2zm142.6 80.4c-11 0-19.8-8.9-19.8-19.8 0-11 8.8-19.9 19.8-19.9 3.7 0 7.1 1 10 2.7l25.2-42.2c3.7 2 7.3 2.7 10.2 2.8l-28 46.9c1.6 2.8 2.5 6.2 2.5 9.7 0 10.9-8.9 19.8-19.9 19.8zm-20-9.2l-62.5 0.1c1.9-3 3-6.5 3.1-10.2h56.7c0.1 4.2 1.4 7.6 2.7 10.1zm-63.3 0.1v-10.2h3.9q0-0.3 0-0.5c0-11-8.8-19.9-19.8-19.9-11 0-19.8 8.9-19.8 19.9 0 10.9 8.8 19.8 19.8 19.8 7 0 13.2-3.7 16.7-9.1zm129.2-70.3c-11 0-19.8-8.8-19.8-19.8 0-7.2 3.7-13.5 9.4-17l-26.2-44.1c3.7-1.8 6.4-4.1 8.2-6.2l28.1 47.4q0.1 0 0.3 0c11 0 19.8 8.9 19.8 19.9 0 11-8.8 19.8-19.8 19.8zm-8.6-2.1l-0.5-0.3-0.1 0.1c0.2 0.1 0.4 0.1 0.6 0.2zm-57.1 62.2q0 0.3 0 0.6z"/>
		<path class="e" d="m196.1 100.2c0 0-0.7-12 11.1-11.3"/>
		<path class="e" d="m295.3 100.2c0 0-0.7-12 11.1-11.3"/>
		<path class="e" d="m341.2 182c0 0-0.7-11.9 11.1-11.2"/>
		<path class="e" d="m146.5 182c0 0-0.7-11.9 11.1-11.2"/>
		<path class="e" d="m196.1 261.4c0 0-0.7-12 11.1-11.2"/>
		<path class="e" d="m295.3 261.4c0 0-0.7-12 11.1-11.2"/>
		<path class="a" d="m171.2 27.8c0 0-5.8 8.2-17.2 8.4"/>
		<path class="a" d="m137.8 191c0 0-4.9-8.8 0-19.1"/>
		<g opacity=".6"/>
	</g>
</svg>