<?xml version="1.0" ?>
<svg xmlns="http://www.w3.org/2000/svg" viewBox="0 0 156 70" fill="none">
	<path fill-rule="evenodd" clip-rule="evenodd" d="M34.1855 0.332214L34.9498 2.68435H37.4229L35.4221 4.13828L36.1863 6.4911L34.1855 5.03716L32.1841 6.4911L32.9483 4.13828L30.9475 2.68435H33.4213L34.1855 0.332214Z" fill="#FAC922"/>
	<path fill-rule="evenodd" clip-rule="evenodd" d="M49.4748 4.41373L50.239 6.76586H52.7128L50.712 8.21979L51.4762 10.5719L49.4748 9.11799L47.474 10.5719L48.2382 8.21979L46.2374 6.76586H48.7105L49.4748 4.41373Z" fill="#FAC922"/>
	<path fill-rule="evenodd" clip-rule="evenodd" d="M18.8957 4.41373L19.6599 6.76586H22.1337L20.1322 8.21979L20.8965 10.5719L18.8957 9.11799L16.8949 10.5719L17.6591 8.21979L15.6577 6.76586H18.1308L18.8957 4.41373Z" fill="#FAC922"/>
	<path fill-rule="evenodd" clip-rule="evenodd" d="M7.42826 16.0671L8.19248 18.4199H10.6663L8.66551 19.8739L9.42973 22.226L7.42826 20.7721L5.4268 22.226L6.1917 19.8739L4.19092 18.4199H6.66404L7.42826 16.0671Z" fill="#FAC922"/>
	<path fill-rule="evenodd" clip-rule="evenodd" d="M60.9421 16.0671L61.707 18.4199H64.1802L62.1787 19.8739L62.9429 22.226L60.9421 20.7721L58.9414 22.226L59.7056 19.8739L57.7041 18.4199H60.1779L60.9421 16.0671Z" fill="#FAC922"/>
	<path fill-rule="evenodd" clip-rule="evenodd" d="M60.9421 46.6469L61.707 48.999H64.1802L62.1787 50.4529L62.9429 52.8058L60.9421 51.3518L58.9414 52.8058L59.7056 50.4529L57.7041 48.999H60.1779L60.9421 46.6469Z" fill="#FAC922"/>
	<path fill-rule="evenodd" clip-rule="evenodd" d="M7.42826 46.6469L8.19248 48.999H10.6663L8.66551 50.4529L9.42973 52.8058L7.42826 51.3518L5.4268 52.8058L6.1917 50.4529L4.19092 48.999H6.66404L7.42826 46.6469Z" fill="#FAC922"/>
	<path fill-rule="evenodd" clip-rule="evenodd" d="M49.4748 57.927L50.239 60.2798H52.7128L50.712 61.7331L51.4762 64.0859L49.4748 62.6319L47.474 64.0859L48.2382 61.7331L46.2374 60.2798H48.7105L49.4748 57.927Z" fill="#FAC922"/>
	<path fill-rule="evenodd" clip-rule="evenodd" d="M18.8957 57.927L19.6599 60.2798H22.1337L20.1322 61.7331L20.8965 64.0859L18.8957 62.6319L16.8949 64.0859L17.6591 61.7331L15.6577 60.2798H18.1308L18.8957 57.927Z" fill="#FAC922"/>
	<path fill-rule="evenodd" clip-rule="evenodd" d="M34.1855 61.9368L34.9498 64.2889H37.4229L35.4221 65.7428L36.1863 68.0957L34.1855 66.6417L32.1841 68.0957L32.9483 65.7428L30.9475 64.2889H33.4213L34.1855 61.9368Z" fill="#FAC922"/>
	<path fill-rule="evenodd" clip-rule="evenodd" d="M65.0504 31.3577L65.8146 33.7098H68.2878L66.287 35.1637L67.0512 37.5159L65.0504 36.0619L63.0489 37.5159L63.8138 35.1637L61.8124 33.7098H64.2862L65.0504 31.3577Z" fill="#FAC922"/>
	<path fill-rule="evenodd" clip-rule="evenodd" d="M3.32005 31.3577L4.08495 33.7098H6.55807L4.55729 35.1637L5.32151 37.5159L3.32005 36.0619L1.31926 37.5159L2.08349 35.1637L0.0827026 33.7098H2.55583L3.32005 31.3577Z" fill="#FAC922"/>
	<path fill-rule="evenodd" clip-rule="evenodd" d="M17.6768 24.8775C17.6768 25.3847 17.266 25.7969 16.7581 25.7969C16.2502 25.7969 15.8387 25.3847 15.8387 24.8775C15.8387 24.3696 16.2502 23.9581 16.7581 23.9581C17.266 23.9581 17.6768 24.3696 17.6768 24.8775Z" fill="#253666"/>
	<path fill-rule="evenodd" clip-rule="evenodd" d="M17.6768 24.8775C17.6768 25.3847 17.266 25.7969 16.7581 25.7969C16.2502 25.7969 15.8387 25.3847 15.8387 24.8775C15.8387 24.3696 16.2502 23.9581 16.7581 23.9581C17.266 23.9581 17.6768 24.3696 17.6768 24.8775Z" stroke="#253666" stroke-width="0.273424"/>
	<path fill-rule="evenodd" clip-rule="evenodd" d="M20.098 24.8775C20.098 25.3847 19.6872 25.7969 19.1793 25.7969C18.6715 25.7969 18.2599 25.3847 18.2599 24.8775C18.2599 24.3696 18.6715 23.9581 19.1793 23.9581C19.6872 23.9581 20.098 24.3696 20.098 24.8775Z" fill="#253666"/>
	<path fill-rule="evenodd" clip-rule="evenodd" d="M20.098 24.8775C20.098 25.3847 19.6872 25.7969 19.1793 25.7969C18.6715 25.7969 18.2599 25.3847 18.2599 24.8775C18.2599 24.3696 18.6715 23.9581 19.1793 23.9581C19.6872 23.9581 20.098 24.3696 20.098 24.8775Z" stroke="#253666" stroke-width="0.273424"/>
	<path fill-rule="evenodd" clip-rule="evenodd" d="M22.5199 24.8775C22.5199 25.3847 22.1084 25.7969 21.6005 25.7969C21.0926 25.7969 20.6811 25.3847 20.6811 24.8775C20.6811 24.3696 21.0926 23.9581 21.6005 23.9581C22.1084 23.9581 22.5199 24.3696 22.5199 24.8775Z" fill="#253666"/>
	<path fill-rule="evenodd" clip-rule="evenodd" d="M22.5199 24.8775C22.5199 25.3847 22.1084 25.7969 21.6005 25.7969C21.0926 25.7969 20.6811 25.3847 20.6811 24.8775C20.6811 24.3696 21.0926 23.9581 21.6005 23.9581C22.1084 23.9581 22.5199 24.3696 22.5199 24.8775Z" stroke="#253666" stroke-width="0.273424"/>
	<path fill-rule="evenodd" clip-rule="evenodd" d="M24.9411 24.8775C24.9411 25.3847 24.5296 25.7969 24.0224 25.7969C23.5138 25.7969 23.103 25.3847 23.103 24.8775C23.103 24.3696 23.5138 23.9581 24.0224 23.9581C24.5296 23.9581 24.9411 24.3696 24.9411 24.8775Z" fill="#253666"/>
	<path fill-rule="evenodd" clip-rule="evenodd" d="M24.9411 24.8775C24.9411 25.3847 24.5296 25.7969 24.0224 25.7969C23.5138 25.7969 23.103 25.3847 23.103 24.8775C23.103 24.3696 23.5138 23.9581 24.0224 23.9581C24.5296 23.9581 24.9411 24.3696 24.9411 24.8775Z" stroke="#253666" stroke-width="0.273424"/>
	<path fill-rule="evenodd" clip-rule="evenodd" d="M17.6768 27.2119C17.6768 27.7198 17.266 28.1313 16.7581 28.1313C16.2502 28.1313 15.8387 27.7198 15.8387 27.2119C15.8387 26.7047 16.2502 26.2925 16.7581 26.2925C17.266 26.2925 17.6768 26.7047 17.6768 27.2119Z" fill="#253666"/>
	<path fill-rule="evenodd" clip-rule="evenodd" d="M17.6768 27.2119C17.6768 27.7198 17.266 28.1313 16.7581 28.1313C16.2502 28.1313 15.8387 27.7198 15.8387 27.2119C15.8387 26.7047 16.2502 26.2925 16.7581 26.2925C17.266 26.2925 17.6768 26.7047 17.6768 27.2119Z" stroke="#253666" stroke-width="0.273424"/>
	<path fill-rule="evenodd" clip-rule="evenodd" d="M20.098 27.2119C20.098 27.7198 19.6872 28.1313 19.1793 28.1313C18.6715 28.1313 18.2599 27.7198 18.2599 27.2119C18.2599 26.7047 18.6715 26.2925 19.1793 26.2925C19.6872 26.2925 20.098 26.7047 20.098 27.2119Z" fill="#253666"/>
	<path fill-rule="evenodd" clip-rule="evenodd" d="M20.098 27.2119C20.098 27.7198 19.6872 28.1313 19.1793 28.1313C18.6715 28.1313 18.2599 27.7198 18.2599 27.2119C18.2599 26.7047 18.6715 26.2925 19.1793 26.2925C19.6872 26.2925 20.098 26.7047 20.098 27.2119Z" stroke="#253666" stroke-width="0.273424"/>
	<path fill-rule="evenodd" clip-rule="evenodd" d="M17.6768 29.5469C17.6768 30.0548 17.266 30.4663 16.7581 30.4663C16.2502 30.4663 15.8387 30.0548 15.8387 29.5469C15.8387 29.0397 16.2502 28.6275 16.7581 28.6275C17.266 28.6275 17.6768 29.0397 17.6768 29.5469Z" fill="#253666"/>
	<path fill-rule="evenodd" clip-rule="evenodd" d="M17.6768 29.5469C17.6768 30.0548 17.266 30.4663 16.7581 30.4663C16.2502 30.4663 15.8387 30.0548 15.8387 29.5469C15.8387 29.0397 16.2502 28.6275 16.7581 28.6275C17.266 28.6275 17.6768 29.0397 17.6768 29.5469Z" stroke="#253666" stroke-width="0.273424"/>
	<path fill-rule="evenodd" clip-rule="evenodd" d="M15.2557 29.5469C15.2557 30.0548 14.8442 30.4663 14.337 30.4663C13.8284 30.4663 13.4176 30.0548 13.4176 29.5469C13.4176 29.0397 13.8284 28.6275 14.337 28.6275C14.8442 28.6275 15.2557 29.0397 15.2557 29.5469Z" fill="#253666"/>
	<path fill-rule="evenodd" clip-rule="evenodd" d="M15.2557 29.5469C15.2557 30.0548 14.8442 30.4663 14.337 30.4663C13.8284 30.4663 13.4176 30.0548 13.4176 29.5469C13.4176 29.0397 13.8284 28.6275 14.337 28.6275C14.8442 28.6275 15.2557 29.0397 15.2557 29.5469Z" stroke="#253666" stroke-width="0.273424"/>
	<path fill-rule="evenodd" clip-rule="evenodd" d="M17.6768 31.882C17.6768 32.3892 17.266 32.8014 16.7581 32.8014C16.2502 32.8014 15.8387 32.3892 15.8387 31.882C15.8387 31.3741 16.2502 30.9626 16.7581 30.9626C17.266 30.9626 17.6768 31.3741 17.6768 31.882Z" fill="#253666"/>
	<path fill-rule="evenodd" clip-rule="evenodd" d="M17.6768 31.882C17.6768 32.3892 17.266 32.8014 16.7581 32.8014C16.2502 32.8014 15.8387 32.3892 15.8387 31.882C15.8387 31.3741 16.2502 30.9626 16.7581 30.9626C17.266 30.9626 17.6768 31.3741 17.6768 31.882Z" stroke="#253666" stroke-width="0.273424"/>
	<path fill-rule="evenodd" clip-rule="evenodd" d="M15.2557 31.882C15.2557 32.3892 14.8442 32.8014 14.337 32.8014C13.8284 32.8014 13.4176 32.3892 13.4176 31.882C13.4176 31.3741 13.8284 30.9626 14.337 30.9626C14.8442 30.9626 15.2557 31.3741 15.2557 31.882Z" fill="#253666"/>
	<path fill-rule="evenodd" clip-rule="evenodd" d="M15.2557 31.882C15.2557 32.3892 14.8442 32.8014 14.337 32.8014C13.8284 32.8014 13.4176 32.3892 13.4176 31.882C13.4176 31.3741 13.8284 30.9626 14.337 30.9626C14.8442 30.9626 15.2557 31.3741 15.2557 31.882Z" stroke="#253666" stroke-width="0.273424"/>
	<path fill-rule="evenodd" clip-rule="evenodd" d="M17.6768 34.2163C17.6768 34.7242 17.266 35.1357 16.7581 35.1357C16.2502 35.1357 15.8387 34.7242 15.8387 34.2163C15.8387 33.7091 16.2502 33.2969 16.7581 33.2969C17.266 33.2969 17.6768 33.7091 17.6768 34.2163Z" fill="#253666"/>
	<path fill-rule="evenodd" clip-rule="evenodd" d="M17.6768 34.2163C17.6768 34.7242 17.266 35.1357 16.7581 35.1357C16.2502 35.1357 15.8387 34.7242 15.8387 34.2163C15.8387 33.7091 16.2502 33.2969 16.7581 33.2969C17.266 33.2969 17.6768 33.7091 17.6768 34.2163Z" stroke="#253666" stroke-width="0.273424"/>
	<path fill-rule="evenodd" clip-rule="evenodd" d="M15.2557 34.2163C15.2557 34.7242 14.8442 35.1357 14.337 35.1357C13.8284 35.1357 13.4176 34.7242 13.4176 34.2163C13.4176 33.7091 13.8284 33.2969 14.337 33.2969C14.8442 33.2969 15.2557 33.7091 15.2557 34.2163Z" fill="#253666"/>
	<path fill-rule="evenodd" clip-rule="evenodd" d="M15.2557 34.2163C15.2557 34.7242 14.8442 35.1357 14.337 35.1357C13.8284 35.1357 13.4176 34.7242 13.4176 34.2163C13.4176 33.7091 13.8284 33.2969 14.337 33.2969C14.8442 33.2969 15.2557 33.7091 15.2557 34.2163Z" stroke="#253666" stroke-width="0.273424"/>
	<path fill-rule="evenodd" clip-rule="evenodd" d="M17.6768 36.5513C17.6768 37.0586 17.266 37.4707 16.7581 37.4707C16.2502 37.4707 15.8387 37.0586 15.8387 36.5513C15.8387 36.0435 16.2502 35.632 16.7581 35.632C17.266 35.632 17.6768 36.0435 17.6768 36.5513Z" fill="#253666"/>
	<path fill-rule="evenodd" clip-rule="evenodd" d="M17.6768 36.5513C17.6768 37.0586 17.266 37.4707 16.7581 37.4707C16.2502 37.4707 15.8387 37.0586 15.8387 36.5513C15.8387 36.0435 16.2502 35.632 16.7581 35.632C17.266 35.632 17.6768 36.0435 17.6768 36.5513Z" stroke="#253666" stroke-width="0.273424"/>
	<path fill-rule="evenodd" clip-rule="evenodd" d="M15.2557 36.5513C15.2557 37.0586 14.8442 37.4707 14.337 37.4707C13.8284 37.4707 13.4176 37.0586 13.4176 36.5513C13.4176 36.0435 13.8284 35.632 14.337 35.632C14.8442 35.632 15.2557 36.0435 15.2557 36.5513Z" fill="#253666"/>
	<path fill-rule="evenodd" clip-rule="evenodd" d="M15.2557 36.5513C15.2557 37.0586 14.8442 37.4707 14.337 37.4707C13.8284 37.4707 13.4176 37.0586 13.4176 36.5513C13.4176 36.0435 13.8284 35.632 14.337 35.632C14.8442 35.632 15.2557 36.0435 15.2557 36.5513Z" stroke="#253666" stroke-width="0.273424"/>
	<path fill-rule="evenodd" clip-rule="evenodd" d="M17.6768 38.8864C17.6768 39.3936 17.266 39.8058 16.7581 39.8058C16.2502 39.8058 15.8387 39.3936 15.8387 38.8864C15.8387 38.3785 16.2502 37.967 16.7581 37.967C17.266 37.967 17.6768 38.3785 17.6768 38.8864Z" fill="#253666"/>
	<path fill-rule="evenodd" clip-rule="evenodd" d="M17.6768 38.8864C17.6768 39.3936 17.266 39.8058 16.7581 39.8058C16.2502 39.8058 15.8387 39.3936 15.8387 38.8864C15.8387 38.3785 16.2502 37.967 16.7581 37.967C17.266 37.967 17.6768 38.3785 17.6768 38.8864Z" stroke="#253666" stroke-width="0.273424"/>
	<path fill-rule="evenodd" clip-rule="evenodd" d="M15.2557 38.8864C15.2557 39.3936 14.8442 39.8058 14.337 39.8058C13.8284 39.8058 13.4176 39.3936 13.4176 38.8864C13.4176 38.3785 13.8284 37.967 14.337 37.967C14.8442 37.967 15.2557 38.3785 15.2557 38.8864Z" fill="#253666"/>
	<path fill-rule="evenodd" clip-rule="evenodd" d="M15.2557 38.8864C15.2557 39.3936 14.8442 39.8058 14.337 39.8058C13.8284 39.8058 13.4176 39.3936 13.4176 38.8864C13.4176 38.3785 13.8284 37.967 14.337 37.967C14.8442 37.967 15.2557 38.3785 15.2557 38.8864Z" stroke="#253666" stroke-width="0.273424"/>
	<path fill-rule="evenodd" clip-rule="evenodd" d="M27.3622 29.5469C27.3622 30.0548 26.9507 30.4663 26.4435 30.4663C25.9349 30.4663 25.5241 30.0548 25.5241 29.5469C25.5241 29.0397 25.9349 28.6275 26.4435 28.6275C26.9507 28.6275 27.3622 29.0397 27.3622 29.5469Z" fill="#253666"/>
	<path fill-rule="evenodd" clip-rule="evenodd" d="M27.3622 29.5469C27.3622 30.0548 26.9507 30.4663 26.4435 30.4663C25.9349 30.4663 25.5241 30.0548 25.5241 29.5469C25.5241 29.0397 25.9349 28.6275 26.4435 28.6275C26.9507 28.6275 27.3622 29.0397 27.3622 29.5469Z" stroke="#253666" stroke-width="0.273424"/>
	<path fill-rule="evenodd" clip-rule="evenodd" d="M24.9411 29.5469C24.9411 30.0548 24.5296 30.4663 24.0224 30.4663C23.5138 30.4663 23.103 30.0548 23.103 29.5469C23.103 29.0397 23.5138 28.6275 24.0224 28.6275C24.5296 28.6275 24.9411 29.0397 24.9411 29.5469Z" fill="#253666"/>
	<path fill-rule="evenodd" clip-rule="evenodd" d="M24.9411 29.5469C24.9411 30.0548 24.5296 30.4663 24.0224 30.4663C23.5138 30.4663 23.103 30.0548 23.103 29.5469C23.103 29.0397 23.5138 28.6275 24.0224 28.6275C24.5296 28.6275 24.9411 29.0397 24.9411 29.5469Z" stroke="#253666" stroke-width="0.273424"/>
	<path fill-rule="evenodd" clip-rule="evenodd" d="M22.5199 27.2119C22.5199 27.7198 22.1084 28.1313 21.6005 28.1313C21.0926 28.1313 20.6811 27.7198 20.6811 27.2119C20.6811 26.7047 21.0926 26.2925 21.6005 26.2925C22.1084 26.2925 22.5199 26.7047 22.5199 27.2119Z" fill="#253666"/>
	<path fill-rule="evenodd" clip-rule="evenodd" d="M22.5199 27.2119C22.5199 27.7198 22.1084 28.1313 21.6005 28.1313C21.0926 28.1313 20.6811 27.7198 20.6811 27.2119C20.6811 26.7047 21.0926 26.2925 21.6005 26.2925C22.1084 26.2925 22.5199 26.7047 22.5199 27.2119Z" stroke="#253666" stroke-width="0.273424"/>
	<path fill-rule="evenodd" clip-rule="evenodd" d="M24.9411 27.2119C24.9411 27.7198 24.5296 28.1313 24.0224 28.1313C23.5138 28.1313 23.103 27.7198 23.103 27.2119C23.103 26.7047 23.5138 26.2925 24.0224 26.2925C24.5296 26.2925 24.9411 26.7047 24.9411 27.2119Z" fill="#253666"/>
	<path fill-rule="evenodd" clip-rule="evenodd" d="M24.9411 27.2119C24.9411 27.7198 24.5296 28.1313 24.0224 28.1313C23.5138 28.1313 23.103 27.7198 23.103 27.2119C23.103 26.7047 23.5138 26.2925 24.0224 26.2925C24.5296 26.2925 24.9411 26.7047 24.9411 27.2119Z" stroke="#253666" stroke-width="0.273424"/>
	<path fill-rule="evenodd" clip-rule="evenodd" d="M17.6768 43.5312C17.6768 43.0233 17.266 42.6118 16.7581 42.6118C16.2502 42.6118 15.8387 43.0233 15.8387 43.5312C15.8387 44.0384 16.2502 44.4506 16.7581 44.4506C17.266 44.4506 17.6768 44.0384 17.6768 43.5312Z" fill="#253666"/>
	<path fill-rule="evenodd" clip-rule="evenodd" d="M17.6768 43.5312C17.6768 43.0233 17.266 42.6118 16.7581 42.6118C16.2502 42.6118 15.8387 43.0233 15.8387 43.5312C15.8387 44.0384 16.2502 44.4506 16.7581 44.4506C17.266 44.4506 17.6768 44.0384 17.6768 43.5312Z" stroke="#253666" stroke-width="0.273424"/>
	<path fill-rule="evenodd" clip-rule="evenodd" d="M20.098 43.5312C20.098 43.0233 19.6872 42.6118 19.1793 42.6118C18.6715 42.6118 18.2599 43.0233 18.2599 43.5312C18.2599 44.0384 18.6715 44.4506 19.1793 44.4506C19.6872 44.4506 20.098 44.0384 20.098 43.5312Z" fill="#253666"/>
	<path fill-rule="evenodd" clip-rule="evenodd" d="M20.098 43.5312C20.098 43.0233 19.6872 42.6118 19.1793 42.6118C18.6715 42.6118 18.2599 43.0233 18.2599 43.5312C18.2599 44.0384 18.6715 44.4506 19.1793 44.4506C19.6872 44.4506 20.098 44.0384 20.098 43.5312Z" stroke="#253666" stroke-width="0.273424"/>
	<path fill-rule="evenodd" clip-rule="evenodd" d="M22.5199 43.5312C22.5199 43.0233 22.1084 42.6118 21.6005 42.6118C21.0926 42.6118 20.6811 43.0233 20.6811 43.5312C20.6811 44.0384 21.0926 44.4506 21.6005 44.4506C22.1084 44.4506 22.5199 44.0384 22.5199 43.5312Z" fill="#253666"/>
	<path fill-rule="evenodd" clip-rule="evenodd" d="M22.5199 43.5312C22.5199 43.0233 22.1084 42.6118 21.6005 42.6118C21.0926 42.6118 20.6811 43.0233 20.6811 43.5312C20.6811 44.0384 21.0926 44.4506 21.6005 44.4506C22.1084 44.4506 22.5199 44.0384 22.5199 43.5312Z" stroke="#253666" stroke-width="0.273424"/>
	<path fill-rule="evenodd" clip-rule="evenodd" d="M24.9411 43.5312C24.9411 43.0233 24.5296 42.6118 24.0224 42.6118C23.5138 42.6118 23.103 43.0233 23.103 43.5312C23.103 44.0384 23.5138 44.4506 24.0224 44.4506C24.5296 44.4506 24.9411 44.0384 24.9411 43.5312Z" fill="#253666"/>
	<path fill-rule="evenodd" clip-rule="evenodd" d="M24.9411 43.5312C24.9411 43.0233 24.5296 42.6118 24.0224 42.6118C23.5138 42.6118 23.103 43.0233 23.103 43.5312C23.103 44.0384 23.5138 44.4506 24.0224 44.4506C24.5296 44.4506 24.9411 44.0384 24.9411 43.5312Z" stroke="#253666" stroke-width="0.273424"/>
	<path fill-rule="evenodd" clip-rule="evenodd" d="M17.6768 41.1962C17.6768 40.6889 17.266 40.2768 16.7581 40.2768C16.2502 40.2768 15.8387 40.6889 15.8387 41.1962C15.8387 41.704 16.2502 42.1155 16.7581 42.1155C17.266 42.1155 17.6768 41.704 17.6768 41.1962Z" fill="#253666"/>
	<path fill-rule="evenodd" clip-rule="evenodd" d="M17.6768 41.1962C17.6768 40.6889 17.266 40.2768 16.7581 40.2768C16.2502 40.2768 15.8387 40.6889 15.8387 41.1962C15.8387 41.704 16.2502 42.1155 16.7581 42.1155C17.266 42.1155 17.6768 41.704 17.6768 41.1962Z" stroke="#253666" stroke-width="0.273424"/>
	<path fill-rule="evenodd" clip-rule="evenodd" d="M20.098 41.1962C20.098 40.6889 19.6872 40.2768 19.1793 40.2768C18.6715 40.2768 18.2599 40.6889 18.2599 41.1962C18.2599 41.704 18.6715 42.1155 19.1793 42.1155C19.6872 42.1155 20.098 41.704 20.098 41.1962Z" fill="#253666"/>
	<path fill-rule="evenodd" clip-rule="evenodd" d="M20.098 41.1962C20.098 40.6889 19.6872 40.2768 19.1793 40.2768C18.6715 40.2768 18.2599 40.6889 18.2599 41.1962C18.2599 41.704 18.6715 42.1155 19.1793 42.1155C19.6872 42.1155 20.098 41.704 20.098 41.1962Z" stroke="#253666" stroke-width="0.273424"/>
	<path fill-rule="evenodd" clip-rule="evenodd" d="M27.3622 31.882C27.3622 32.3892 26.9507 32.8014 26.4435 32.8014C25.9349 32.8014 25.5241 32.3892 25.5241 31.882C25.5241 31.3741 25.9349 30.9626 26.4435 30.9626C26.9507 30.9626 27.3622 31.3741 27.3622 31.882Z" fill="#253666"/>
	<path fill-rule="evenodd" clip-rule="evenodd" d="M27.3622 31.882C27.3622 32.3892 26.9507 32.8014 26.4435 32.8014C25.9349 32.8014 25.5241 32.3892 25.5241 31.882C25.5241 31.3741 25.9349 30.9626 26.4435 30.9626C26.9507 30.9626 27.3622 31.3741 27.3622 31.882Z" stroke="#253666" stroke-width="0.273424"/>
	<path fill-rule="evenodd" clip-rule="evenodd" d="M24.9411 31.882C24.9411 32.3892 24.5296 32.8014 24.0224 32.8014C23.5138 32.8014 23.103 32.3892 23.103 31.882C23.103 31.3741 23.5138 30.9626 24.0224 30.9626C24.5296 30.9626 24.9411 31.3741 24.9411 31.882Z" fill="#253666"/>
	<path fill-rule="evenodd" clip-rule="evenodd" d="M24.9411 31.882C24.9411 32.3892 24.5296 32.8014 24.0224 32.8014C23.5138 32.8014 23.103 32.3892 23.103 31.882C23.103 31.3741 23.5138 30.9626 24.0224 30.9626C24.5296 30.9626 24.9411 31.3741 24.9411 31.882Z" stroke="#253666" stroke-width="0.273424"/>
	<path fill-rule="evenodd" clip-rule="evenodd" d="M27.3622 34.2163C27.3622 34.7242 26.9507 35.1357 26.4435 35.1357C25.9349 35.1357 25.5241 34.7242 25.5241 34.2163C25.5241 33.7091 25.9349 33.2969 26.4435 33.2969C26.9507 33.2969 27.3622 33.7091 27.3622 34.2163Z" fill="#253666"/>
	<path fill-rule="evenodd" clip-rule="evenodd" d="M27.3622 34.2163C27.3622 34.7242 26.9507 35.1357 26.4435 35.1357C25.9349 35.1357 25.5241 34.7242 25.5241 34.2163C25.5241 33.7091 25.9349 33.2969 26.4435 33.2969C26.9507 33.2969 27.3622 33.7091 27.3622 34.2163Z" stroke="#253666" stroke-width="0.273424"/>
	<path fill-rule="evenodd" clip-rule="evenodd" d="M24.9411 34.2163C24.9411 34.7242 24.5296 35.1357 24.0224 35.1357C23.5138 35.1357 23.103 34.7242 23.103 34.2163C23.103 33.7091 23.5138 33.2969 24.0224 33.2969C24.5296 33.2969 24.9411 33.7091 24.9411 34.2163Z" fill="#253666"/>
	<path fill-rule="evenodd" clip-rule="evenodd" d="M24.9411 34.2163C24.9411 34.7242 24.5296 35.1357 24.0224 35.1357C23.5138 35.1357 23.103 34.7242 23.103 34.2163C23.103 33.7091 23.5138 33.2969 24.0224 33.2969C24.5296 33.2969 24.9411 33.7091 24.9411 34.2163Z" stroke="#253666" stroke-width="0.273424"/>
	<path fill-rule="evenodd" clip-rule="evenodd" d="M27.3622 36.5513C27.3622 37.0586 26.9507 37.4707 26.4435 37.4707C25.9349 37.4707 25.5241 37.0586 25.5241 36.5513C25.5241 36.0435 25.9349 35.632 26.4435 35.632C26.9507 35.632 27.3622 36.0435 27.3622 36.5513Z" fill="#253666"/>
	<path fill-rule="evenodd" clip-rule="evenodd" d="M27.3622 36.5513C27.3622 37.0586 26.9507 37.4707 26.4435 37.4707C25.9349 37.4707 25.5241 37.0586 25.5241 36.5513C25.5241 36.0435 25.9349 35.632 26.4435 35.632C26.9507 35.632 27.3622 36.0435 27.3622 36.5513Z" stroke="#253666" stroke-width="0.273424"/>
	<path fill-rule="evenodd" clip-rule="evenodd" d="M24.9411 36.5513C24.9411 37.0586 24.5296 37.4707 24.0224 37.4707C23.5138 37.4707 23.103 37.0586 23.103 36.5513C23.103 36.0435 23.5138 35.632 24.0224 35.632C24.5296 35.632 24.9411 36.0435 24.9411 36.5513Z" fill="#253666"/>
	<path fill-rule="evenodd" clip-rule="evenodd" d="M24.9411 36.5513C24.9411 37.0586 24.5296 37.4707 24.0224 37.4707C23.5138 37.4707 23.103 37.0586 23.103 36.5513C23.103 36.0435 23.5138 35.632 24.0224 35.632C24.5296 35.632 24.9411 36.0435 24.9411 36.5513Z" stroke="#253666" stroke-width="0.273424"/>
	<path fill-rule="evenodd" clip-rule="evenodd" d="M27.3622 38.8864C27.3622 39.3936 26.9507 39.8058 26.4435 39.8058C25.9349 39.8058 25.5241 39.3936 25.5241 38.8864C25.5241 38.3785 25.9349 37.967 26.4435 37.967C26.9507 37.967 27.3622 38.3785 27.3622 38.8864Z" fill="#253666"/>
	<path fill-rule="evenodd" clip-rule="evenodd" d="M27.3622 38.8864C27.3622 39.3936 26.9507 39.8058 26.4435 39.8058C25.9349 39.8058 25.5241 39.3936 25.5241 38.8864C25.5241 38.3785 25.9349 37.967 26.4435 37.967C26.9507 37.967 27.3622 38.3785 27.3622 38.8864Z" stroke="#253666" stroke-width="0.273424"/>
	<path fill-rule="evenodd" clip-rule="evenodd" d="M24.9411 38.8864C24.9411 39.3936 24.5296 39.8058 24.0224 39.8058C23.5138 39.8058 23.103 39.3936 23.103 38.8864C23.103 38.3785 23.5138 37.967 24.0224 37.967C24.5296 37.967 24.9411 38.3785 24.9411 38.8864Z" fill="#253666"/>
	<path fill-rule="evenodd" clip-rule="evenodd" d="M24.9411 38.8864C24.9411 39.3936 24.5296 39.8058 24.0224 39.8058C23.5138 39.8058 23.103 39.3936 23.103 38.8864C23.103 38.3785 23.5138 37.967 24.0224 37.967C24.5296 37.967 24.9411 38.3785 24.9411 38.8864Z" stroke="#253666" stroke-width="0.273424"/>
	<path fill-rule="evenodd" clip-rule="evenodd" d="M22.5199 41.1962C22.5199 40.6889 22.1084 40.2768 21.6005 40.2768C21.0926 40.2768 20.6811 40.6889 20.6811 41.1962C20.6811 41.704 21.0926 42.1155 21.6005 42.1155C22.1084 42.1155 22.5199 41.704 22.5199 41.1962Z" fill="#253666"/>
	<path fill-rule="evenodd" clip-rule="evenodd" d="M22.5199 41.1962C22.5199 40.6889 22.1084 40.2768 21.6005 40.2768C21.0926 40.2768 20.6811 40.6889 20.6811 41.1962C20.6811 41.704 21.0926 42.1155 21.6005 42.1155C22.1084 42.1155 22.5199 41.704 22.5199 41.1962Z" stroke="#253666" stroke-width="0.273424"/>
	<path fill-rule="evenodd" clip-rule="evenodd" d="M24.9411 41.1962C24.9411 40.6889 24.5296 40.2768 24.0224 40.2768C23.5138 40.2768 23.103 40.6889 23.103 41.1962C23.103 41.704 23.5138 42.1155 24.0224 42.1155C24.5296 42.1155 24.9411 41.704 24.9411 41.1962Z" fill="#253666"/>
	<path fill-rule="evenodd" clip-rule="evenodd" d="M24.9411 41.1962C24.9411 40.6889 24.5296 40.2768 24.0224 40.2768C23.5138 40.2768 23.103 40.6889 23.103 41.1962C23.103 41.704 23.5138 42.1155 24.0224 42.1155C24.5296 42.1155 24.9411 41.704 24.9411 41.1962Z" stroke="#253666" stroke-width="0.273424"/>
	<path fill-rule="evenodd" clip-rule="evenodd" d="M27.3622 45.8164C27.3622 45.3092 26.9507 44.897 26.4435 44.897C25.9349 44.897 25.5241 45.3092 25.5241 45.8164C25.5241 46.3242 25.9349 46.7358 26.4435 46.7358C26.9507 46.7358 27.3622 46.3242 27.3622 45.8164Z" fill="#253666"/>
	<path fill-rule="evenodd" clip-rule="evenodd" d="M27.3622 45.8164C27.3622 45.3092 26.9507 44.897 26.4435 44.897C25.9349 44.897 25.5241 45.3092 25.5241 45.8164C25.5241 46.3242 25.9349 46.7358 26.4435 46.7358C26.9507 46.7358 27.3622 46.3242 27.3622 45.8164Z" stroke="#253666" stroke-width="0.273424"/>
	<path fill-rule="evenodd" clip-rule="evenodd" d="M24.9411 45.8164C24.9411 45.3092 24.5296 44.897 24.0224 44.897C23.5138 44.897 23.103 45.3092 23.103 45.8164C23.103 46.3242 23.5138 46.7358 24.0224 46.7358C24.5296 46.7358 24.9411 46.3242 24.9411 45.8164Z" fill="#253666"/>
	<path fill-rule="evenodd" clip-rule="evenodd" d="M24.9411 45.8164C24.9411 45.3092 24.5296 44.897 24.0224 44.897C23.5138 44.897 23.103 45.3092 23.103 45.8164C23.103 46.3242 23.5138 46.7358 24.0224 46.7358C24.5296 46.7358 24.9411 46.3242 24.9411 45.8164Z" stroke="#253666" stroke-width="0.273424"/>
	<path fill-rule="evenodd" clip-rule="evenodd" d="M27.3622 48.1022C27.3622 47.5936 26.9507 47.1828 26.4435 47.1828C25.9349 47.1828 25.5241 47.5936 25.5241 48.1022C25.5241 48.6094 25.9349 49.0209 26.4435 49.0209C26.9507 49.0209 27.3622 48.6094 27.3622 48.1022Z" fill="#253666"/>
	<path fill-rule="evenodd" clip-rule="evenodd" d="M27.3622 48.1022C27.3622 47.5936 26.9507 47.1828 26.4435 47.1828C25.9349 47.1828 25.5241 47.5936 25.5241 48.1022C25.5241 48.6094 25.9349 49.0209 26.4435 49.0209C26.9507 49.0209 27.3622 48.6094 27.3622 48.1022Z" stroke="#253666" stroke-width="0.273424"/>
	<path fill-rule="evenodd" clip-rule="evenodd" d="M24.9411 48.1022C24.9411 47.5936 24.5296 47.1828 24.0224 47.1828C23.5138 47.1828 23.103 47.5936 23.103 48.1022C23.103 48.6094 23.5138 49.0209 24.0224 49.0209C24.5296 49.0209 24.9411 48.6094 24.9411 48.1022Z" fill="#253666"/>
	<path fill-rule="evenodd" clip-rule="evenodd" d="M24.9411 48.1022C24.9411 47.5936 24.5296 47.1828 24.0224 47.1828C23.5138 47.1828 23.103 47.5936 23.103 48.1022C23.103 48.6094 23.5138 49.0209 24.0224 49.0209C24.5296 49.0209 24.9411 48.6094 24.9411 48.1022Z" stroke="#253666" stroke-width="0.273424"/>
	<path fill-rule="evenodd" clip-rule="evenodd" d="M36.3457 24.8775C36.3457 25.3847 35.9342 25.7969 35.4263 25.7969C34.9191 25.7969 34.5076 25.3847 34.5076 24.8775C34.5076 24.3696 34.9191 23.9581 35.4263 23.9581C35.9342 23.9581 36.3457 24.3696 36.3457 24.8775Z" fill="#253666"/>
	<path fill-rule="evenodd" clip-rule="evenodd" d="M36.3457 24.8775C36.3457 25.3847 35.9342 25.7969 35.4263 25.7969C34.9191 25.7969 34.5076 25.3847 34.5076 24.8775C34.5076 24.3696 34.9191 23.9581 35.4263 23.9581C35.9342 23.9581 36.3457 24.3696 36.3457 24.8775Z" stroke="#253666" stroke-width="0.273424"/>
	<path fill-rule="evenodd" clip-rule="evenodd" d="M33.9244 24.8775C33.9244 25.3847 33.5129 25.7969 33.005 25.7969C32.4978 25.7969 32.0856 25.3847 32.0856 24.8775C32.0856 24.3696 32.4978 23.9581 33.005 23.9581C33.5129 23.9581 33.9244 24.3696 33.9244 24.8775Z" fill="#253666"/>
	<path fill-rule="evenodd" clip-rule="evenodd" d="M33.9244 24.8775C33.9244 25.3847 33.5129 25.7969 33.005 25.7969C32.4978 25.7969 32.0856 25.3847 32.0856 24.8775C32.0856 24.3696 32.4978 23.9581 33.005 23.9581C33.5129 23.9581 33.9244 24.3696 33.9244 24.8775Z" stroke="#253666" stroke-width="0.273424"/>
	<path fill-rule="evenodd" clip-rule="evenodd" d="M36.3457 27.2119C36.3457 27.7198 35.9342 28.1313 35.4263 28.1313C34.9191 28.1313 34.5076 27.7198 34.5076 27.2119C34.5076 26.7047 34.9191 26.2925 35.4263 26.2925C35.9342 26.2925 36.3457 26.7047 36.3457 27.2119Z" fill="#253666"/>
	<path fill-rule="evenodd" clip-rule="evenodd" d="M36.3457 27.2119C36.3457 27.7198 35.9342 28.1313 35.4263 28.1313C34.9191 28.1313 34.5076 27.7198 34.5076 27.2119C34.5076 26.7047 34.9191 26.2925 35.4263 26.2925C35.9342 26.2925 36.3457 26.7047 36.3457 27.2119Z" stroke="#253666" stroke-width="0.273424"/>
	<path fill-rule="evenodd" clip-rule="evenodd" d="M33.9244 27.2119C33.9244 27.7198 33.5129 28.1313 33.005 28.1313C32.4978 28.1313 32.0856 27.7198 32.0856 27.2119C32.0856 26.7047 32.4978 26.2925 33.005 26.2925C33.5129 26.2925 33.9244 26.7047 33.9244 27.2119Z" fill="#253666"/>
	<path fill-rule="evenodd" clip-rule="evenodd" d="M33.9244 27.2119C33.9244 27.7198 33.5129 28.1313 33.005 28.1313C32.4978 28.1313 32.0856 27.7198 32.0856 27.2119C32.0856 26.7047 32.4978 26.2925 33.005 26.2925C33.5129 26.2925 33.9244 26.7047 33.9244 27.2119Z" stroke="#253666" stroke-width="0.273424"/>
	<path fill-rule="evenodd" clip-rule="evenodd" d="M36.3457 29.5469C36.3457 30.0548 35.9342 30.4663 35.4263 30.4663C34.9191 30.4663 34.5076 30.0548 34.5076 29.5469C34.5076 29.0397 34.9191 28.6275 35.4263 28.6275C35.9342 28.6275 36.3457 29.0397 36.3457 29.5469Z" fill="#253666"/>
	<path fill-rule="evenodd" clip-rule="evenodd" d="M36.3457 29.5469C36.3457 30.0548 35.9342 30.4663 35.4263 30.4663C34.9191 30.4663 34.5076 30.0548 34.5076 29.5469C34.5076 29.0397 34.9191 28.6275 35.4263 28.6275C35.9342 28.6275 36.3457 29.0397 36.3457 29.5469Z" stroke="#253666" stroke-width="0.273424"/>
	<path fill-rule="evenodd" clip-rule="evenodd" d="M33.9244 29.5469C33.9244 30.0548 33.5129 30.4663 33.005 30.4663C32.4978 30.4663 32.0856 30.0548 32.0856 29.5469C32.0856 29.0397 32.4978 28.6275 33.005 28.6275C33.5129 28.6275 33.9244 29.0397 33.9244 29.5469Z" fill="#253666"/>
	<path fill-rule="evenodd" clip-rule="evenodd" d="M33.9244 29.5469C33.9244 30.0548 33.5129 30.4663 33.005 30.4663C32.4978 30.4663 32.0856 30.0548 32.0856 29.5469C32.0856 29.0397 32.4978 28.6275 33.005 28.6275C33.5129 28.6275 33.9244 29.0397 33.9244 29.5469Z" stroke="#253666" stroke-width="0.273424"/>
	<path fill-rule="evenodd" clip-rule="evenodd" d="M36.3457 31.882C36.3457 32.3892 35.9342 32.8014 35.4263 32.8014C34.9191 32.8014 34.5076 32.3892 34.5076 31.882C34.5076 31.3741 34.9191 30.9626 35.4263 30.9626C35.9342 30.9626 36.3457 31.3741 36.3457 31.882Z" fill="#253666"/>
	<path fill-rule="evenodd" clip-rule="evenodd" d="M36.3457 31.882C36.3457 32.3892 35.9342 32.8014 35.4263 32.8014C34.9191 32.8014 34.5076 32.3892 34.5076 31.882C34.5076 31.3741 34.9191 30.9626 35.4263 30.9626C35.9342 30.9626 36.3457 31.3741 36.3457 31.882Z" stroke="#253666" stroke-width="0.273424"/>
	<path fill-rule="evenodd" clip-rule="evenodd" d="M33.9244 31.882C33.9244 32.3892 33.5129 32.8014 33.005 32.8014C32.4978 32.8014 32.0856 32.3892 32.0856 31.882C32.0856 31.3741 32.4978 30.9626 33.005 30.9626C33.5129 30.9626 33.9244 31.3741 33.9244 31.882Z" fill="#253666"/>
	<path fill-rule="evenodd" clip-rule="evenodd" d="M33.9244 31.882C33.9244 32.3892 33.5129 32.8014 33.005 32.8014C32.4978 32.8014 32.0856 32.3892 32.0856 31.882C32.0856 31.3741 32.4978 30.9626 33.005 30.9626C33.5129 30.9626 33.9244 31.3741 33.9244 31.882Z" stroke="#253666" stroke-width="0.273424"/>
	<path fill-rule="evenodd" clip-rule="evenodd" d="M36.3457 34.2163C36.3457 34.7242 35.9342 35.1357 35.4263 35.1357C34.9191 35.1357 34.5076 34.7242 34.5076 34.2163C34.5076 33.7091 34.9191 33.2969 35.4263 33.2969C35.9342 33.2969 36.3457 33.7091 36.3457 34.2163Z" fill="#253666"/>
	<path fill-rule="evenodd" clip-rule="evenodd" d="M36.3457 34.2163C36.3457 34.7242 35.9342 35.1357 35.4263 35.1357C34.9191 35.1357 34.5076 34.7242 34.5076 34.2163C34.5076 33.7091 34.9191 33.2969 35.4263 33.2969C35.9342 33.2969 36.3457 33.7091 36.3457 34.2163Z" stroke="#253666" stroke-width="0.273424"/>
	<path fill-rule="evenodd" clip-rule="evenodd" d="M33.9244 34.2163C33.9244 34.7242 33.5129 35.1357 33.005 35.1357C32.4978 35.1357 32.0856 34.7242 32.0856 34.2163C32.0856 33.7091 32.4978 33.2969 33.005 33.2969C33.5129 33.2969 33.9244 33.7091 33.9244 34.2163Z" fill="#253666"/>
	<path fill-rule="evenodd" clip-rule="evenodd" d="M33.9244 34.2163C33.9244 34.7242 33.5129 35.1357 33.005 35.1357C32.4978 35.1357 32.0856 34.7242 32.0856 34.2163C32.0856 33.7091 32.4978 33.2969 33.005 33.2969C33.5129 33.2969 33.9244 33.7091 33.9244 34.2163Z" stroke="#253666" stroke-width="0.273424"/>
	<path fill-rule="evenodd" clip-rule="evenodd" d="M36.3457 36.5513C36.3457 37.0586 35.9342 37.4707 35.4263 37.4707C34.9191 37.4707 34.5076 37.0586 34.5076 36.5513C34.5076 36.0435 34.9191 35.632 35.4263 35.632C35.9342 35.632 36.3457 36.0435 36.3457 36.5513Z" fill="#253666"/>
	<path fill-rule="evenodd" clip-rule="evenodd" d="M36.3457 36.5513C36.3457 37.0586 35.9342 37.4707 35.4263 37.4707C34.9191 37.4707 34.5076 37.0586 34.5076 36.5513C34.5076 36.0435 34.9191 35.632 35.4263 35.632C35.9342 35.632 36.3457 36.0435 36.3457 36.5513Z" stroke="#253666" stroke-width="0.273424"/>
	<path fill-rule="evenodd" clip-rule="evenodd" d="M33.9244 36.5513C33.9244 37.0586 33.5129 37.4707 33.005 37.4707C32.4978 37.4707 32.0856 37.0586 32.0856 36.5513C32.0856 36.0435 32.4978 35.632 33.005 35.632C33.5129 35.632 33.9244 36.0435 33.9244 36.5513Z" fill="#253666"/>
	<path fill-rule="evenodd" clip-rule="evenodd" d="M33.9244 36.5513C33.9244 37.0586 33.5129 37.4707 33.005 37.4707C32.4978 37.4707 32.0856 37.0586 32.0856 36.5513C32.0856 36.0435 32.4978 35.632 33.005 35.632C33.5129 35.632 33.9244 36.0435 33.9244 36.5513Z" stroke="#253666" stroke-width="0.273424"/>
	<path fill-rule="evenodd" clip-rule="evenodd" d="M36.3457 38.8864C36.3457 39.3936 35.9342 39.8058 35.4263 39.8058C34.9191 39.8058 34.5076 39.3936 34.5076 38.8864C34.5076 38.3785 34.9191 37.967 35.4263 37.967C35.9342 37.967 36.3457 38.3785 36.3457 38.8864Z" fill="#253666"/>
	<path fill-rule="evenodd" clip-rule="evenodd" d="M36.3457 38.8864C36.3457 39.3936 35.9342 39.8058 35.4263 39.8058C34.9191 39.8058 34.5076 39.3936 34.5076 38.8864C34.5076 38.3785 34.9191 37.967 35.4263 37.967C35.9342 37.967 36.3457 38.3785 36.3457 38.8864Z" stroke="#253666" stroke-width="0.273424"/>
	<path fill-rule="evenodd" clip-rule="evenodd" d="M33.9244 38.8864C33.9244 39.3936 33.5129 39.8058 33.005 39.8058C32.4978 39.8058 32.0856 39.3936 32.0856 38.8864C32.0856 38.3785 32.4978 37.967 33.005 37.967C33.5129 37.967 33.9244 38.3785 33.9244 38.8864Z" fill="#253666"/>
	<path fill-rule="evenodd" clip-rule="evenodd" d="M33.9244 38.8864C33.9244 39.3936 33.5129 39.8058 33.005 39.8058C32.4978 39.8058 32.0856 39.3936 32.0856 38.8864C32.0856 38.3785 32.4978 37.967 33.005 37.967C33.5129 37.967 33.9244 38.3785 33.9244 38.8864Z" stroke="#253666" stroke-width="0.273424"/>
	<path fill-rule="evenodd" clip-rule="evenodd" d="M36.3457 41.2207C36.3457 41.7286 35.9342 42.1401 35.4263 42.1401C34.9191 42.1401 34.5076 41.7286 34.5076 41.2207C34.5076 40.7135 34.9191 40.302 35.4263 40.302C35.9342 40.302 36.3457 40.7135 36.3457 41.2207Z" fill="#253666"/>
	<path fill-rule="evenodd" clip-rule="evenodd" d="M36.3457 41.2207C36.3457 41.7286 35.9342 42.1401 35.4263 42.1401C34.9191 42.1401 34.5076 41.7286 34.5076 41.2207C34.5076 40.7135 34.9191 40.302 35.4263 40.302C35.9342 40.302 36.3457 40.7135 36.3457 41.2207Z" stroke="#253666" stroke-width="0.273424"/>
	<path fill-rule="evenodd" clip-rule="evenodd" d="M33.9244 41.2207C33.9244 41.7286 33.5129 42.1401 33.005 42.1401C32.4978 42.1401 32.0856 41.7286 32.0856 41.2207C32.0856 40.7135 32.4978 40.302 33.005 40.302C33.5129 40.302 33.9244 40.7135 33.9244 41.2207Z" fill="#253666"/>
	<path fill-rule="evenodd" clip-rule="evenodd" d="M33.9244 41.2207C33.9244 41.7286 33.5129 42.1401 33.005 42.1401C32.4978 42.1401 32.0856 41.7286 32.0856 41.2207C32.0856 40.7135 32.4978 40.302 33.005 40.302C33.5129 40.302 33.9244 40.7135 33.9244 41.2207Z" stroke="#253666" stroke-width="0.273424"/>
	<path fill-rule="evenodd" clip-rule="evenodd" d="M36.3457 43.5558C36.3457 44.063 35.9342 44.4752 35.4263 44.4752C34.9191 44.4752 34.5076 44.063 34.5076 43.5558C34.5076 43.0479 34.9191 42.6371 35.4263 42.6371C35.9342 42.6371 36.3457 43.0479 36.3457 43.5558Z" fill="#253666"/>
	<path fill-rule="evenodd" clip-rule="evenodd" d="M36.3457 43.5558C36.3457 44.063 35.9342 44.4752 35.4263 44.4752C34.9191 44.4752 34.5076 44.063 34.5076 43.5558C34.5076 43.0479 34.9191 42.6371 35.4263 42.6371C35.9342 42.6371 36.3457 43.0479 36.3457 43.5558Z" stroke="#253666" stroke-width="0.273424"/>
	<path fill-rule="evenodd" clip-rule="evenodd" d="M33.9244 43.5558C33.9244 44.063 33.5129 44.4752 33.005 44.4752C32.4978 44.4752 32.0856 44.063 32.0856 43.5558C32.0856 43.0479 32.4978 42.6371 33.005 42.6371C33.5129 42.6371 33.9244 43.0479 33.9244 43.5558Z" fill="#253666"/>
	<path fill-rule="evenodd" clip-rule="evenodd" d="M33.9244 43.5558C33.9244 44.063 33.5129 44.4752 33.005 44.4752C32.4978 44.4752 32.0856 44.063 32.0856 43.5558C32.0856 43.0479 32.4978 42.6371 33.005 42.6371C33.5129 42.6371 33.9244 43.0479 33.9244 43.5558Z" stroke="#253666" stroke-width="0.273424"/>
	<path fill-rule="evenodd" clip-rule="evenodd" d="M45.3289 24.8775C45.3289 25.3847 44.9174 25.7969 44.4102 25.7969C43.9023 25.7969 43.4908 25.3847 43.4908 24.8775C43.4908 24.3696 43.9023 23.9581 44.4102 23.9581C44.9174 23.9581 45.3289 24.3696 45.3289 24.8775Z" fill="#253666"/>
	<path fill-rule="evenodd" clip-rule="evenodd" d="M45.3289 24.8775C45.3289 25.3847 44.9174 25.7969 44.4102 25.7969C43.9023 25.7969 43.4908 25.3847 43.4908 24.8775C43.4908 24.3696 43.9023 23.9581 44.4102 23.9581C44.9174 23.9581 45.3289 24.3696 45.3289 24.8775Z" stroke="#253666" stroke-width="0.273424"/>
	<path fill-rule="evenodd" clip-rule="evenodd" d="M47.7501 24.8775C47.7501 25.3847 47.3393 25.7969 46.8314 25.7969C46.3242 25.7969 45.912 25.3847 45.912 24.8775C45.912 24.3696 46.3242 23.9581 46.8314 23.9581C47.3393 23.9581 47.7501 24.3696 47.7501 24.8775Z" fill="#253666"/>
	<path fill-rule="evenodd" clip-rule="evenodd" d="M47.7501 24.8775C47.7501 25.3847 47.3393 25.7969 46.8314 25.7969C46.3242 25.7969 45.912 25.3847 45.912 24.8775C45.912 24.3696 46.3242 23.9581 46.8314 23.9581C47.3393 23.9581 47.7501 24.3696 47.7501 24.8775Z" stroke="#253666" stroke-width="0.273424"/>
	<path fill-rule="evenodd" clip-rule="evenodd" d="M50.172 24.8775C50.172 25.3847 49.7605 25.7969 49.2526 25.7969C48.7454 25.7969 48.3332 25.3847 48.3332 24.8775C48.3332 24.3696 48.7454 23.9581 49.2526 23.9581C49.7605 23.9581 50.172 24.3696 50.172 24.8775Z" fill="#253666"/>
	<path fill-rule="evenodd" clip-rule="evenodd" d="M50.172 24.8775C50.172 25.3847 49.7605 25.7969 49.2526 25.7969C48.7454 25.7969 48.3332 25.3847 48.3332 24.8775C48.3332 24.3696 48.7454 23.9581 49.2526 23.9581C49.7605 23.9581 50.172 24.3696 50.172 24.8775Z" stroke="#253666" stroke-width="0.273424"/>
	<path fill-rule="evenodd" clip-rule="evenodd" d="M52.5932 24.8775C52.5932 25.3847 52.1817 25.7969 51.6738 25.7969C51.1666 25.7969 50.7544 25.3847 50.7544 24.8775C50.7544 24.3696 51.1666 23.9581 51.6738 23.9581C52.1817 23.9581 52.5932 24.3696 52.5932 24.8775Z" fill="#253666"/>
	<path fill-rule="evenodd" clip-rule="evenodd" d="M52.5932 24.8775C52.5932 25.3847 52.1817 25.7969 51.6738 25.7969C51.1666 25.7969 50.7544 25.3847 50.7544 24.8775C50.7544 24.3696 51.1666 23.9581 51.6738 23.9581C52.1817 23.9581 52.5932 24.3696 52.5932 24.8775Z" stroke="#253666" stroke-width="0.273424"/>
	<path fill-rule="evenodd" clip-rule="evenodd" d="M45.3289 27.2119C45.3289 27.7198 44.9174 28.1313 44.4102 28.1313C43.9023 28.1313 43.4908 27.7198 43.4908 27.2119C43.4908 26.7047 43.9023 26.2925 44.4102 26.2925C44.9174 26.2925 45.3289 26.7047 45.3289 27.2119Z" fill="#253666"/>
	<path fill-rule="evenodd" clip-rule="evenodd" d="M45.3289 27.2119C45.3289 27.7198 44.9174 28.1313 44.4102 28.1313C43.9023 28.1313 43.4908 27.7198 43.4908 27.2119C43.4908 26.7047 43.9023 26.2925 44.4102 26.2925C44.9174 26.2925 45.3289 26.7047 45.3289 27.2119Z" stroke="#253666" stroke-width="0.273424"/>
	<path fill-rule="evenodd" clip-rule="evenodd" d="M47.7501 27.2119C47.7501 27.7198 47.3393 28.1313 46.8314 28.1313C46.3242 28.1313 45.912 27.7198 45.912 27.2119C45.912 26.7047 46.3242 26.2925 46.8314 26.2925C47.3393 26.2925 47.7501 26.7047 47.7501 27.2119Z" fill="#253666"/>
	<path fill-rule="evenodd" clip-rule="evenodd" d="M47.7501 27.2119C47.7501 27.7198 47.3393 28.1313 46.8314 28.1313C46.3242 28.1313 45.912 27.7198 45.912 27.2119C45.912 26.7047 46.3242 26.2925 46.8314 26.2925C47.3393 26.2925 47.7501 26.7047 47.7501 27.2119Z" stroke="#253666" stroke-width="0.273424"/>
	<path fill-rule="evenodd" clip-rule="evenodd" d="M45.3289 29.5469C45.3289 30.0548 44.9174 30.4663 44.4102 30.4663C43.9023 30.4663 43.4908 30.0548 43.4908 29.5469C43.4908 29.0397 43.9023 28.6275 44.4102 28.6275C44.9174 28.6275 45.3289 29.0397 45.3289 29.5469Z" fill="#253666"/>
	<path fill-rule="evenodd" clip-rule="evenodd" d="M45.3289 29.5469C45.3289 30.0548 44.9174 30.4663 44.4102 30.4663C43.9023 30.4663 43.4908 30.0548 43.4908 29.5469C43.4908 29.0397 43.9023 28.6275 44.4102 28.6275C44.9174 28.6275 45.3289 29.0397 45.3289 29.5469Z" stroke="#253666" stroke-width="0.273424"/>
	<path fill-rule="evenodd" clip-rule="evenodd" d="M42.9077 29.5469C42.9077 30.0548 42.4962 30.4663 41.989 30.4663C41.4811 30.4663 41.0696 30.0548 41.0696 29.5469C41.0696 29.0397 41.4811 28.6275 41.989 28.6275C42.4962 28.6275 42.9077 29.0397 42.9077 29.5469Z" fill="#253666"/>
	<path fill-rule="evenodd" clip-rule="evenodd" d="M42.9077 29.5469C42.9077 30.0548 42.4962 30.4663 41.989 30.4663C41.4811 30.4663 41.0696 30.0548 41.0696 29.5469C41.0696 29.0397 41.4811 28.6275 41.989 28.6275C42.4962 28.6275 42.9077 29.0397 42.9077 29.5469Z" stroke="#253666" stroke-width="0.273424"/>
	<path fill-rule="evenodd" clip-rule="evenodd" d="M45.3289 31.882C45.3289 32.3892 44.9174 32.8014 44.4102 32.8014C43.9023 32.8014 43.4908 32.3892 43.4908 31.882C43.4908 31.3741 43.9023 30.9626 44.4102 30.9626C44.9174 30.9626 45.3289 31.3741 45.3289 31.882Z" fill="#253666"/>
	<path fill-rule="evenodd" clip-rule="evenodd" d="M45.3289 31.882C45.3289 32.3892 44.9174 32.8014 44.4102 32.8014C43.9023 32.8014 43.4908 32.3892 43.4908 31.882C43.4908 31.3741 43.9023 30.9626 44.4102 30.9626C44.9174 30.9626 45.3289 31.3741 45.3289 31.882Z" stroke="#253666" stroke-width="0.273424"/>
	<path fill-rule="evenodd" clip-rule="evenodd" d="M42.9077 31.882C42.9077 32.3892 42.4962 32.8014 41.989 32.8014C41.4811 32.8014 41.0696 32.3892 41.0696 31.882C41.0696 31.3741 41.4811 30.9626 41.989 30.9626C42.4962 30.9626 42.9077 31.3741 42.9077 31.882Z" fill="#253666"/>
	<path fill-rule="evenodd" clip-rule="evenodd" d="M42.9077 31.882C42.9077 32.3892 42.4962 32.8014 41.989 32.8014C41.4811 32.8014 41.0696 32.3892 41.0696 31.882C41.0696 31.3741 41.4811 30.9626 41.989 30.9626C42.4962 30.9626 42.9077 31.3741 42.9077 31.882Z" stroke="#253666" stroke-width="0.273424"/>
	<path fill-rule="evenodd" clip-rule="evenodd" d="M47.7501 34.2163C47.7501 34.7242 47.3393 35.1357 46.8314 35.1357C46.3242 35.1357 45.912 34.7242 45.912 34.2163C45.912 33.7091 46.3242 33.2969 46.8314 33.2969C47.3393 33.2969 47.7501 33.7091 47.7501 34.2163Z" fill="#253666"/>
	<path fill-rule="evenodd" clip-rule="evenodd" d="M47.7501 34.2163C47.7501 34.7242 47.3393 35.1357 46.8314 35.1357C46.3242 35.1357 45.912 34.7242 45.912 34.2163C45.912 33.7091 46.3242 33.2969 46.8314 33.2969C47.3393 33.2969 47.7501 33.7091 47.7501 34.2163Z" stroke="#253666" stroke-width="0.273424"/>
	<path fill-rule="evenodd" clip-rule="evenodd" d="M45.3289 34.2163C45.3289 34.7242 44.9174 35.1357 44.4102 35.1357C43.9023 35.1357 43.4908 34.7242 43.4908 34.2163C43.4908 33.7091 43.9023 33.2969 44.4102 33.2969C44.9174 33.2969 45.3289 33.7091 45.3289 34.2163Z" fill="#253666"/>
	<path fill-rule="evenodd" clip-rule="evenodd" d="M45.3289 34.2163C45.3289 34.7242 44.9174 35.1357 44.4102 35.1357C43.9023 35.1357 43.4908 34.7242 43.4908 34.2163C43.4908 33.7091 43.9023 33.2969 44.4102 33.2969C44.9174 33.2969 45.3289 33.7091 45.3289 34.2163Z" stroke="#253666" stroke-width="0.273424"/>
	<path fill-rule="evenodd" clip-rule="evenodd" d="M42.9077 34.2163C42.9077 34.7242 42.4962 35.1357 41.989 35.1357C41.4811 35.1357 41.0696 34.7242 41.0696 34.2163C41.0696 33.7091 41.4811 33.2969 41.989 33.2969C42.4962 33.2969 42.9077 33.7091 42.9077 34.2163Z" fill="#253666"/>
	<path fill-rule="evenodd" clip-rule="evenodd" d="M42.9077 34.2163C42.9077 34.7242 42.4962 35.1357 41.989 35.1357C41.4811 35.1357 41.0696 34.7242 41.0696 34.2163C41.0696 33.7091 41.4811 33.2969 41.989 33.2969C42.4962 33.2969 42.9077 33.7091 42.9077 34.2163Z" stroke="#253666" stroke-width="0.273424"/>
	<path fill-rule="evenodd" clip-rule="evenodd" d="M47.7501 36.5513C47.7501 37.0586 47.3393 37.4707 46.8314 37.4707C46.3242 37.4707 45.912 37.0586 45.912 36.5513C45.912 36.0435 46.3242 35.632 46.8314 35.632C47.3393 35.632 47.7501 36.0435 47.7501 36.5513Z" fill="#253666"/>
	<path fill-rule="evenodd" clip-rule="evenodd" d="M47.7501 36.5513C47.7501 37.0586 47.3393 37.4707 46.8314 37.4707C46.3242 37.4707 45.912 37.0586 45.912 36.5513C45.912 36.0435 46.3242 35.632 46.8314 35.632C47.3393 35.632 47.7501 36.0435 47.7501 36.5513Z" stroke="#253666" stroke-width="0.273424"/>
	<path fill-rule="evenodd" clip-rule="evenodd" d="M45.3289 36.5513C45.3289 37.0586 44.9174 37.4707 44.4102 37.4707C43.9023 37.4707 43.4908 37.0586 43.4908 36.5513C43.4908 36.0435 43.9023 35.632 44.4102 35.632C44.9174 35.632 45.3289 36.0435 45.3289 36.5513Z" fill="#253666"/>
	<path fill-rule="evenodd" clip-rule="evenodd" d="M45.3289 36.5513C45.3289 37.0586 44.9174 37.4707 44.4102 37.4707C43.9023 37.4707 43.4908 37.0586 43.4908 36.5513C43.4908 36.0435 43.9023 35.632 44.4102 35.632C44.9174 35.632 45.3289 36.0435 45.3289 36.5513Z" stroke="#253666" stroke-width="0.273424"/>
	<path fill-rule="evenodd" clip-rule="evenodd" d="M42.9077 36.5513C42.9077 37.0586 42.4962 37.4707 41.989 37.4707C41.4811 37.4707 41.0696 37.0586 41.0696 36.5513C41.0696 36.0435 41.4811 35.632 41.989 35.632C42.4962 35.632 42.9077 36.0435 42.9077 36.5513Z" fill="#253666"/>
	<path fill-rule="evenodd" clip-rule="evenodd" d="M42.9077 36.5513C42.9077 37.0586 42.4962 37.4707 41.989 37.4707C41.4811 37.4707 41.0696 37.0586 41.0696 36.5513C41.0696 36.0435 41.4811 35.632 41.989 35.632C42.4962 35.632 42.9077 36.0435 42.9077 36.5513Z" stroke="#253666" stroke-width="0.273424"/>
	<path fill-rule="evenodd" clip-rule="evenodd" d="M45.3289 38.8864C45.3289 39.3936 44.9174 39.8058 44.4102 39.8058C43.9023 39.8058 43.4908 39.3936 43.4908 38.8864C43.4908 38.3785 43.9023 37.967 44.4102 37.967C44.9174 37.967 45.3289 38.3785 45.3289 38.8864Z" fill="#253666"/>
	<path fill-rule="evenodd" clip-rule="evenodd" d="M45.3289 38.8864C45.3289 39.3936 44.9174 39.8058 44.4102 39.8058C43.9023 39.8058 43.4908 39.3936 43.4908 38.8864C43.4908 38.3785 43.9023 37.967 44.4102 37.967C44.9174 37.967 45.3289 38.3785 45.3289 38.8864Z" stroke="#253666" stroke-width="0.273424"/>
	<path fill-rule="evenodd" clip-rule="evenodd" d="M42.9077 38.8864C42.9077 39.3936 42.4962 39.8058 41.989 39.8058C41.4811 39.8058 41.0696 39.3936 41.0696 38.8864C41.0696 38.3785 41.4811 37.967 41.989 37.967C42.4962 37.967 42.9077 38.3785 42.9077 38.8864Z" fill="#253666"/>
	<path fill-rule="evenodd" clip-rule="evenodd" d="M42.9077 38.8864C42.9077 39.3936 42.4962 39.8058 41.989 39.8058C41.4811 39.8058 41.0696 39.3936 41.0696 38.8864C41.0696 38.3785 41.4811 37.967 41.989 37.967C42.4962 37.967 42.9077 38.3785 42.9077 38.8864Z" stroke="#253666" stroke-width="0.273424"/>
	<path fill-rule="evenodd" clip-rule="evenodd" d="M55.0144 29.5469C55.0144 30.0548 54.6029 30.4663 54.0957 30.4663C53.5878 30.4663 53.1763 30.0548 53.1763 29.5469C53.1763 29.0397 53.5878 28.6275 54.0957 28.6275C54.6029 28.6275 55.0144 29.0397 55.0144 29.5469Z" fill="#253666"/>
	<path fill-rule="evenodd" clip-rule="evenodd" d="M55.0144 29.5469C55.0144 30.0548 54.6029 30.4663 54.0957 30.4663C53.5878 30.4663 53.1763 30.0548 53.1763 29.5469C53.1763 29.0397 53.5878 28.6275 54.0957 28.6275C54.6029 28.6275 55.0144 29.0397 55.0144 29.5469Z" stroke="#253666" stroke-width="0.273424"/>
	<path fill-rule="evenodd" clip-rule="evenodd" d="M52.5932 29.5469C52.5932 30.0548 52.1817 30.4663 51.6738 30.4663C51.1666 30.4663 50.7544 30.0548 50.7544 29.5469C50.7544 29.0397 51.1666 28.6275 51.6738 28.6275C52.1817 28.6275 52.5932 29.0397 52.5932 29.5469Z" fill="#253666"/>
	<path fill-rule="evenodd" clip-rule="evenodd" d="M52.5932 29.5469C52.5932 30.0548 52.1817 30.4663 51.6738 30.4663C51.1666 30.4663 50.7544 30.0548 50.7544 29.5469C50.7544 29.0397 51.1666 28.6275 51.6738 28.6275C52.1817 28.6275 52.5932 29.0397 52.5932 29.5469Z" stroke="#253666" stroke-width="0.273424"/>
	<path fill-rule="evenodd" clip-rule="evenodd" d="M50.172 27.2119C50.172 27.7198 49.7605 28.1313 49.2526 28.1313C48.7454 28.1313 48.3332 27.7198 48.3332 27.2119C48.3332 26.7047 48.7454 26.2925 49.2526 26.2925C49.7605 26.2925 50.172 26.7047 50.172 27.2119Z" fill="#253666"/>
	<path fill-rule="evenodd" clip-rule="evenodd" d="M50.172 27.2119C50.172 27.7198 49.7605 28.1313 49.2526 28.1313C48.7454 28.1313 48.3332 27.7198 48.3332 27.2119C48.3332 26.7047 48.7454 26.2925 49.2526 26.2925C49.7605 26.2925 50.172 26.7047 50.172 27.2119Z" stroke="#253666" stroke-width="0.273424"/>
	<path fill-rule="evenodd" clip-rule="evenodd" d="M50.172 34.2163C50.172 34.7242 49.7605 35.1357 49.2526 35.1357C48.7454 35.1357 48.3332 34.7242 48.3332 34.2163C48.3332 33.7091 48.7454 33.2969 49.2526 33.2969C49.7605 33.2969 50.172 33.7091 50.172 34.2163Z" fill="#253666"/>
	<path fill-rule="evenodd" clip-rule="evenodd" d="M50.172 34.2163C50.172 34.7242 49.7605 35.1357 49.2526 35.1357C48.7454 35.1357 48.3332 34.7242 48.3332 34.2163C48.3332 33.7091 48.7454 33.2969 49.2526 33.2969C49.7605 33.2969 50.172 33.7091 50.172 34.2163Z" stroke="#253666" stroke-width="0.273424"/>
	<path fill-rule="evenodd" clip-rule="evenodd" d="M50.172 36.5513C50.172 37.0586 49.7605 37.4707 49.2526 37.4707C48.7454 37.4707 48.3332 37.0586 48.3332 36.5513C48.3332 36.0435 48.7454 35.632 49.2526 35.632C49.7605 35.632 50.172 36.0435 50.172 36.5513Z" fill="#253666"/>
	<path fill-rule="evenodd" clip-rule="evenodd" d="M50.172 36.5513C50.172 37.0586 49.7605 37.4707 49.2526 37.4707C48.7454 37.4707 48.3332 37.0586 48.3332 36.5513C48.3332 36.0435 48.7454 35.632 49.2526 35.632C49.7605 35.632 50.172 36.0435 50.172 36.5513Z" stroke="#253666" stroke-width="0.273424"/>
	<path fill-rule="evenodd" clip-rule="evenodd" d="M52.5932 27.2119C52.5932 27.7198 52.1817 28.1313 51.6738 28.1313C51.1666 28.1313 50.7544 27.7198 50.7544 27.2119C50.7544 26.7047 51.1666 26.2925 51.6738 26.2925C52.1817 26.2925 52.5932 26.7047 52.5932 27.2119Z" fill="#253666"/>
	<path fill-rule="evenodd" clip-rule="evenodd" d="M52.5932 27.2119C52.5932 27.7198 52.1817 28.1313 51.6738 28.1313C51.1666 28.1313 50.7544 27.7198 50.7544 27.2119C50.7544 26.7047 51.1666 26.2925 51.6738 26.2925C52.1817 26.2925 52.5932 26.7047 52.5932 27.2119Z" stroke="#253666" stroke-width="0.273424"/>
	<path fill-rule="evenodd" clip-rule="evenodd" d="M55.0144 31.882C55.0144 32.3892 54.6029 32.8014 54.0957 32.8014C53.5878 32.8014 53.1763 32.3892 53.1763 31.882C53.1763 31.3741 53.5878 30.9626 54.0957 30.9626C54.6029 30.9626 55.0144 31.3741 55.0144 31.882Z" fill="#253666"/>
	<path fill-rule="evenodd" clip-rule="evenodd" d="M55.0144 31.882C55.0144 32.3892 54.6029 32.8014 54.0957 32.8014C53.5878 32.8014 53.1763 32.3892 53.1763 31.882C53.1763 31.3741 53.5878 30.9626 54.0957 30.9626C54.6029 30.9626 55.0144 31.3741 55.0144 31.882Z" stroke="#253666" stroke-width="0.273424"/>
	<path fill-rule="evenodd" clip-rule="evenodd" d="M52.5932 31.882C52.5932 32.3892 52.1817 32.8014 51.6738 32.8014C51.1666 32.8014 50.7544 32.3892 50.7544 31.882C50.7544 31.3741 51.1666 30.9626 51.6738 30.9626C52.1817 30.9626 52.5932 31.3741 52.5932 31.882Z" fill="#253666"/>
	<path fill-rule="evenodd" clip-rule="evenodd" d="M52.5932 31.882C52.5932 32.3892 52.1817 32.8014 51.6738 32.8014C51.1666 32.8014 50.7544 32.3892 50.7544 31.882C50.7544 31.3741 51.1666 30.9626 51.6738 30.9626C52.1817 30.9626 52.5932 31.3741 52.5932 31.882Z" stroke="#253666" stroke-width="0.273424"/>
	<path fill-rule="evenodd" clip-rule="evenodd" d="M55.0144 34.2163C55.0144 34.7242 54.6029 35.1357 54.0957 35.1357C53.5878 35.1357 53.1763 34.7242 53.1763 34.2163C53.1763 33.7091 53.5878 33.2969 54.0957 33.2969C54.6029 33.2969 55.0144 33.7091 55.0144 34.2163Z" fill="#253666"/>
	<path fill-rule="evenodd" clip-rule="evenodd" d="M55.0144 34.2163C55.0144 34.7242 54.6029 35.1357 54.0957 35.1357C53.5878 35.1357 53.1763 34.7242 53.1763 34.2163C53.1763 33.7091 53.5878 33.2969 54.0957 33.2969C54.6029 33.2969 55.0144 33.7091 55.0144 34.2163Z" stroke="#253666" stroke-width="0.273424"/>
	<path fill-rule="evenodd" clip-rule="evenodd" d="M52.5932 34.2163C52.5932 34.7242 52.1817 35.1357 51.6738 35.1357C51.1666 35.1357 50.7544 34.7242 50.7544 34.2163C50.7544 33.7091 51.1666 33.2969 51.6738 33.2969C52.1817 33.2969 52.5932 33.7091 52.5932 34.2163Z" fill="#253666"/>
	<path fill-rule="evenodd" clip-rule="evenodd" d="M52.5932 34.2163C52.5932 34.7242 52.1817 35.1357 51.6738 35.1357C51.1666 35.1357 50.7544 34.7242 50.7544 34.2163C50.7544 33.7091 51.1666 33.2969 51.6738 33.2969C52.1817 33.2969 52.5932 33.7091 52.5932 34.2163Z" stroke="#253666" stroke-width="0.273424"/>
	<path fill-rule="evenodd" clip-rule="evenodd" d="M55.0144 36.5513C55.0144 37.0586 54.6029 37.4707 54.0957 37.4707C53.5878 37.4707 53.1763 37.0586 53.1763 36.5513C53.1763 36.0435 53.5878 35.632 54.0957 35.632C54.6029 35.632 55.0144 36.0435 55.0144 36.5513Z" fill="#253666"/>
	<path fill-rule="evenodd" clip-rule="evenodd" d="M55.0144 36.5513C55.0144 37.0586 54.6029 37.4707 54.0957 37.4707C53.5878 37.4707 53.1763 37.0586 53.1763 36.5513C53.1763 36.0435 53.5878 35.632 54.0957 35.632C54.6029 35.632 55.0144 36.0435 55.0144 36.5513Z" stroke="#253666" stroke-width="0.273424"/>
	<path fill-rule="evenodd" clip-rule="evenodd" d="M52.5932 36.5513C52.5932 37.0586 52.1817 37.4707 51.6738 37.4707C51.1666 37.4707 50.7544 37.0586 50.7544 36.5513C50.7544 36.0435 51.1666 35.632 51.6738 35.632C52.1817 35.632 52.5932 36.0435 52.5932 36.5513Z" fill="#253666"/>
	<path fill-rule="evenodd" clip-rule="evenodd" d="M52.5932 36.5513C52.5932 37.0586 52.1817 37.4707 51.6738 37.4707C51.1666 37.4707 50.7544 37.0586 50.7544 36.5513C50.7544 36.0435 51.1666 35.632 51.6738 35.632C52.1817 35.632 52.5932 36.0435 52.5932 36.5513Z" stroke="#253666" stroke-width="0.273424"/>
	<path fill-rule="evenodd" clip-rule="evenodd" d="M55.0144 38.8864C55.0144 39.3936 54.6029 39.8058 54.0957 39.8058C53.5878 39.8058 53.1763 39.3936 53.1763 38.8864C53.1763 38.3785 53.5878 37.967 54.0957 37.967C54.6029 37.967 55.0144 38.3785 55.0144 38.8864Z" fill="#253666"/>
	<path fill-rule="evenodd" clip-rule="evenodd" d="M55.0144 38.8864C55.0144 39.3936 54.6029 39.8058 54.0957 39.8058C53.5878 39.8058 53.1763 39.3936 53.1763 38.8864C53.1763 38.3785 53.5878 37.967 54.0957 37.967C54.6029 37.967 55.0144 38.3785 55.0144 38.8864Z" stroke="#253666" stroke-width="0.273424"/>
	<path fill-rule="evenodd" clip-rule="evenodd" d="M52.5932 38.8864C52.5932 39.3936 52.1817 39.8058 51.6738 39.8058C51.1666 39.8058 50.7544 39.3936 50.7544 38.8864C50.7544 38.3785 51.1666 37.967 51.6738 37.967C52.1817 37.967 52.5932 38.3785 52.5932 38.8864Z" fill="#253666"/>
	<path fill-rule="evenodd" clip-rule="evenodd" d="M52.5932 38.8864C52.5932 39.3936 52.1817 39.8058 51.6738 39.8058C51.1666 39.8058 50.7544 39.3936 50.7544 38.8864C50.7544 38.3785 51.1666 37.967 51.6738 37.967C52.1817 37.967 52.5932 38.3785 52.5932 38.8864Z" stroke="#253666" stroke-width="0.273424"/>
	<path fill-rule="evenodd" clip-rule="evenodd" d="M45.3289 41.2207C45.3289 41.7286 44.9174 42.1401 44.4102 42.1401C43.9023 42.1401 43.4908 41.7286 43.4908 41.2207C43.4908 40.7135 43.9023 40.302 44.4102 40.302C44.9174 40.302 45.3289 40.7135 45.3289 41.2207Z" fill="#253666"/>
	<path fill-rule="evenodd" clip-rule="evenodd" d="M45.3289 41.2207C45.3289 41.7286 44.9174 42.1401 44.4102 42.1401C43.9023 42.1401 43.4908 41.7286 43.4908 41.2207C43.4908 40.7135 43.9023 40.302 44.4102 40.302C44.9174 40.302 45.3289 40.7135 45.3289 41.2207Z" stroke="#253666" stroke-width="0.273424"/>
	<path fill-rule="evenodd" clip-rule="evenodd" d="M42.9077 41.2207C42.9077 41.7286 42.4962 42.1401 41.989 42.1401C41.4811 42.1401 41.0696 41.7286 41.0696 41.2207C41.0696 40.7135 41.4811 40.302 41.989 40.302C42.4962 40.302 42.9077 40.7135 42.9077 41.2207Z" fill="#253666"/>
	<path fill-rule="evenodd" clip-rule="evenodd" d="M42.9077 41.2207C42.9077 41.7286 42.4962 42.1401 41.989 42.1401C41.4811 42.1401 41.0696 41.7286 41.0696 41.2207C41.0696 40.7135 41.4811 40.302 41.989 40.302C42.4962 40.302 42.9077 40.7135 42.9077 41.2207Z" stroke="#253666" stroke-width="0.273424"/>
	<path fill-rule="evenodd" clip-rule="evenodd" d="M45.3289 43.5558C45.3289 44.063 44.9174 44.4752 44.4102 44.4752C43.9023 44.4752 43.4908 44.063 43.4908 43.5558C43.4908 43.0479 43.9023 42.6371 44.4102 42.6371C44.9174 42.6371 45.3289 43.0479 45.3289 43.5558Z" fill="#253666"/>
	<path fill-rule="evenodd" clip-rule="evenodd" d="M45.3289 43.5558C45.3289 44.063 44.9174 44.4752 44.4102 44.4752C43.9023 44.4752 43.4908 44.063 43.4908 43.5558C43.4908 43.0479 43.9023 42.6371 44.4102 42.6371C44.9174 42.6371 45.3289 43.0479 45.3289 43.5558Z" stroke="#253666" stroke-width="0.273424"/>
	<path fill-rule="evenodd" clip-rule="evenodd" d="M42.9077 43.5558C42.9077 44.063 42.4962 44.4752 41.989 44.4752C41.4811 44.4752 41.0696 44.063 41.0696 43.5558C41.0696 43.0479 41.4811 42.6371 41.989 42.6371C42.4962 42.6371 42.9077 43.0479 42.9077 43.5558Z" fill="#253666"/>
	<path fill-rule="evenodd" clip-rule="evenodd" d="M42.9077 43.5558C42.9077 44.063 42.4962 44.4752 41.989 44.4752C41.4811 44.4752 41.0696 44.063 41.0696 43.5558C41.0696 43.0479 41.4811 42.6371 41.989 42.6371C42.4962 42.6371 42.9077 43.0479 42.9077 43.5558Z" stroke="#253666" stroke-width="0.273424"/>
	<path fill-rule="evenodd" clip-rule="evenodd" d="M55.0144 41.2207C55.0144 41.7286 54.6029 42.1401 54.0957 42.1401C53.5878 42.1401 53.1763 41.7286 53.1763 41.2207C53.1763 40.7135 53.5878 40.302 54.0957 40.302C54.6029 40.302 55.0144 40.7135 55.0144 41.2207Z" fill="#253666"/>
	<path fill-rule="evenodd" clip-rule="evenodd" d="M55.0144 41.2207C55.0144 41.7286 54.6029 42.1401 54.0957 42.1401C53.5878 42.1401 53.1763 41.7286 53.1763 41.2207C53.1763 40.7135 53.5878 40.302 54.0957 40.302C54.6029 40.302 55.0144 40.7135 55.0144 41.2207Z" stroke="#253666" stroke-width="0.273424"/>
	<path fill-rule="evenodd" clip-rule="evenodd" d="M52.5932 41.2207C52.5932 41.7286 52.1817 42.1401 51.6738 42.1401C51.1666 42.1401 50.7544 41.7286 50.7544 41.2207C50.7544 40.7135 51.1666 40.302 51.6738 40.302C52.1817 40.302 52.5932 40.7135 52.5932 41.2207Z" fill="#253666"/>
	<path fill-rule="evenodd" clip-rule="evenodd" d="M52.5932 41.2207C52.5932 41.7286 52.1817 42.1401 51.6738 42.1401C51.1666 42.1401 50.7544 41.7286 50.7544 41.2207C50.7544 40.7135 51.1666 40.302 51.6738 40.302C52.1817 40.302 52.5932 40.7135 52.5932 41.2207Z" stroke="#253666" stroke-width="0.273424"/>
	<path fill-rule="evenodd" clip-rule="evenodd" d="M55.0144 43.5558C55.0144 44.063 54.6029 44.4752 54.0957 44.4752C53.5878 44.4752 53.1763 44.063 53.1763 43.5558C53.1763 43.0479 53.5878 42.6371 54.0957 42.6371C54.6029 42.6371 55.0144 43.0479 55.0144 43.5558Z" fill="#253666"/>
	<path fill-rule="evenodd" clip-rule="evenodd" d="M55.0144 43.5558C55.0144 44.063 54.6029 44.4752 54.0957 44.4752C53.5878 44.4752 53.1763 44.063 53.1763 43.5558C53.1763 43.0479 53.5878 42.6371 54.0957 42.6371C54.6029 42.6371 55.0144 43.0479 55.0144 43.5558Z" stroke="#253666" stroke-width="0.273424"/>
	<path fill-rule="evenodd" clip-rule="evenodd" d="M52.5932 43.5558C52.5932 44.063 52.1817 44.4752 51.6738 44.4752C51.1666 44.4752 50.7544 44.063 50.7544 43.5558C50.7544 43.0479 51.1666 42.6371 51.6738 42.6371C52.1817 42.6371 52.5932 43.0479 52.5932 43.5558Z" fill="#253666"/>
	<path fill-rule="evenodd" clip-rule="evenodd" d="M52.5932 43.5558C52.5932 44.063 52.1817 44.4752 51.6738 44.4752C51.1666 44.4752 50.7544 44.063 50.7544 43.5558C50.7544 43.0479 51.1666 42.6371 51.6738 42.6371C52.1817 42.6371 52.5932 43.0479 52.5932 43.5558Z" stroke="#253666" stroke-width="0.273424"/>
	<path fill-rule="evenodd" clip-rule="evenodd" d="M88.4514 53.5631H90.5192L91.1836 51.6075H93.9028L94.5789 53.5631H96.6466L93.4599 44.8279H91.6389L88.4514 53.5631ZM91.5028 50.2164L92.5494 47.1281L93.5706 50.2164H91.5028ZM104.254 53.5631V51.7913H100.021V44.8279H98.0035V53.5631H104.254ZM111.905 53.5631V51.7913H107.672V44.8279H105.655V53.5631H111.905ZM113.305 53.5631H115.323V44.8279H113.305V53.5631ZM116.679 53.5631H118.747L119.411 51.6075H122.13L122.807 53.5631H124.874L121.688 44.8279H119.867L116.679 53.5631ZM119.731 50.2164L120.777 47.1281L121.798 50.2164H119.731ZM132.272 53.5631H133.897V44.8279H131.879V49.9587L127.806 44.8279H126.231V53.5631H128.249V48.5677L132.272 53.5631ZM136.005 50.7701C136.215 51.3115 136.51 51.7954 136.891 52.222C137.272 52.6485 137.727 52.991 138.257 53.2494C138.786 53.5078 139.366 53.6369 139.998 53.6369C140.359 53.6369 140.728 53.5918 141.105 53.5016C141.483 53.4114 141.84 53.2801 142.176 53.1079C142.512 52.9356 142.81 52.7223 143.068 52.4681C143.326 52.2138 143.521 51.9267 143.652 51.6075L142.004 50.6354C141.913 50.8562 141.794 51.0428 141.647 51.1946C141.499 51.347 141.337 51.4694 141.161 51.5637C140.984 51.6587 140.8 51.7278 140.606 51.7736C140.414 51.818 140.228 51.8405 140.047 51.8405C139.694 51.8405 139.377 51.7688 139.093 51.6252C138.81 51.4817 138.569 51.2875 138.368 51.0415C138.167 50.7947 138.012 50.5117 137.906 50.1918C137.8 49.8726 137.746 49.5397 137.746 49.1952C137.746 48.8759 137.792 48.5601 137.882 48.2484C137.972 47.936 138.111 47.6572 138.299 47.4111C138.489 47.1657 138.726 46.9647 139.014 46.8082C139.301 46.653 139.636 46.5744 140.023 46.5744C140.203 46.5744 140.388 46.5935 140.576 46.6298C140.765 46.6667 140.95 46.733 141.13 46.8266C141.311 46.921 141.477 47.0447 141.628 47.1957C141.78 47.3475 141.905 47.5382 142.004 47.7679L143.554 46.6851C143.259 46.1191 142.81 45.6598 142.207 45.3078C141.603 44.9543 140.891 44.778 140.072 44.778C139.382 44.778 138.768 44.9051 138.226 45.1594C137.685 45.4137 137.226 45.7459 136.848 46.1561C136.471 46.5669 136.184 47.0317 135.987 47.5526C135.789 48.0741 135.692 48.5964 135.692 49.1213C135.692 49.6791 135.796 50.2287 136.005 50.7701ZM147.265 51.7913V49.9334H150.71V48.2976H147.265V46.599H151.276V44.8279H145.246V53.5631H151.387V51.7913H147.265ZM89.2642 38.7982H91.282V30.0623H89.2642V38.7982ZM99.6386 38.7982H101.263V30.0623H99.2448V35.1931L95.1722 30.0623H93.5973V38.7982H95.6151V33.8034L99.6386 38.7982ZM110.027 30.0623H102.682V31.8348H105.352V38.7982H107.369V31.8348H110.027V30.0623ZM113.457 37.0264V35.1692H116.903V33.532H113.457V31.8348H117.469V30.0623H111.439V38.7982H117.579V37.0264H113.457ZM121.557 38.7982V35.9806H122.874L124.547 38.7982H126.823L124.904 35.5499C125.125 35.4276 125.324 35.2772 125.5 35.1008C125.677 34.9245 125.826 34.7255 125.95 34.5041C126.073 34.2826 126.166 34.0468 126.233 33.7966C126.298 33.5471 126.331 33.286 126.331 33.0153C126.331 32.6544 126.259 32.2982 126.116 31.9448C125.972 31.5921 125.773 31.2763 125.519 30.9974C125.265 30.7185 124.963 30.4929 124.615 30.3207C124.266 30.1484 123.886 30.0623 123.476 30.0623H119.539V38.7982H121.557ZM121.557 31.8348H123.341C123.57 31.8348 123.784 31.9407 123.981 32.1547C124.178 32.3673 124.276 32.6544 124.276 33.0153C124.276 33.368 124.19 33.6578 124.018 33.8827C123.846 34.1083 123.64 34.2211 123.402 34.2211H121.557V31.8348ZM134.404 38.7982H136.028V30.0623H134.01V35.1931L129.937 30.0623H128.362V38.7982H130.38V33.8034L134.404 38.7982ZM140.365 37.0264V35.1692H143.81V33.532H140.365V31.8348H144.376V30.0623H138.347V38.7982H144.487V37.0264H140.365ZM152.967 30.0623H145.622V31.8348H148.292V38.7982H150.31V31.8348H152.967V30.0623ZM95.6746 24.034H97.5688L96.3137 22.6552C96.6753 22.2533 96.9542 21.798 97.1511 21.2895C97.348 20.7809 97.4464 20.2484 97.4464 19.6899C97.4464 19.1404 97.3432 18.599 97.1388 18.0658C96.9337 17.5326 96.6425 17.0575 96.2652 16.6385C95.8872 16.2202 95.432 15.8818 94.8995 15.6234C94.3663 15.3651 93.7757 15.2365 93.127 15.2365C92.4961 15.2365 91.9137 15.3568 91.3805 15.5988C90.8466 15.8408 90.3859 16.1669 89.9963 16.577C89.6066 16.9871 89.3031 17.4595 89.0858 17.9927C88.8684 18.5252 88.7597 19.0795 88.7597 19.653C88.7597 20.2197 88.8643 20.7686 89.0735 21.3025C89.2819 21.835 89.5759 22.3087 89.9532 22.7236C90.3305 23.1371 90.7858 23.4693 91.319 23.7202C91.8521 23.9697 92.442 24.0955 93.0907 24.0955C93.4845 24.0955 93.8598 24.0456 94.2166 23.9478C94.5734 23.8487 94.9076 23.7134 95.2194 23.5411L95.6746 24.034ZM92.1187 22.0769C91.8316 21.93 91.5917 21.7345 91.3989 21.4925C91.2062 21.2505 91.0606 20.9716 90.9615 20.6558C90.8637 20.34 90.8145 20.0146 90.8145 19.6783C90.8145 19.3495 90.8617 19.0276 90.956 18.7124C91.0503 18.3966 91.1939 18.1136 91.386 17.8628C91.5794 17.6126 91.8166 17.4116 92.0996 17.2606C92.3826 17.1081 92.7175 17.0323 93.1031 17.0323C93.4722 17.0323 93.7982 17.1061 94.0812 17.2544C94.3642 17.4021 94.6035 17.5969 94.801 17.8382C94.9979 18.0808 95.1449 18.359 95.244 18.6749C95.3424 18.9913 95.3916 19.3167 95.3916 19.653C95.3916 19.9237 95.3588 20.191 95.2925 20.4528C95.2276 20.7153 95.1291 20.962 94.9979 21.191L94.4565 20.5888H92.5617L93.9643 22.1385C93.7183 22.2451 93.4312 22.2991 93.1031 22.2991C92.7339 22.2991 92.4058 22.2246 92.1187 22.0769ZM102.123 22.1022C101.89 21.9621 101.699 21.7734 101.552 21.5356C101.404 21.2984 101.297 21.027 101.232 20.7235C101.166 20.4207 101.134 20.1008 101.134 19.7644V15.2974H99.1157V19.7644C99.1157 20.338 99.1874 20.8875 99.331 21.4132C99.4738 21.9375 99.7001 22.3989 100.008 22.7967C100.315 23.1946 100.715 23.5124 101.207 23.751C101.699 23.9882 102.294 24.1071 102.991 24.1071C103.663 24.1071 104.244 23.9943 104.732 23.7687C105.221 23.5432 105.622 23.2342 105.938 22.8405C106.253 22.4461 106.488 21.9874 106.64 21.4617C106.791 20.9368 106.867 20.3708 106.867 19.7644V15.2974H104.849V19.7644C104.849 20.0837 104.819 20.3974 104.757 20.7057C104.696 21.0133 104.591 21.2854 104.443 21.5233C104.296 21.7611 104.103 21.9525 103.864 22.0961C103.627 22.2396 103.336 22.3107 102.991 22.3107C102.647 22.3107 102.358 22.2417 102.123 22.1022ZM107.826 24.034H109.893L110.556 22.0769H113.276L113.953 24.034H116.02L112.833 15.2974H111.012L107.826 24.034ZM110.877 20.6866L111.922 17.5989L112.944 20.6866H110.877ZM123.419 24.034H125.043V15.2974H123.025V20.4282L118.953 15.2974H117.378V24.034H119.396V19.0378L123.419 24.034ZM133.807 15.2974H126.462V17.0692H129.132V24.034H131.149V17.0692H133.807V15.2974ZM138.166 22.1022C137.932 21.9621 137.742 21.7734 137.594 21.5356C137.446 21.2984 137.34 21.027 137.273 20.7235C137.208 20.4207 137.176 20.1008 137.176 19.7644V15.2974H135.158V19.7644C135.158 20.338 135.23 20.8875 135.373 21.4132C135.517 21.9375 135.742 22.3989 136.049 22.7967C136.357 23.1946 136.757 23.5124 137.249 23.751C137.742 23.9882 138.336 24.1071 139.034 24.1071C139.706 24.1071 140.287 23.9943 140.774 23.7687C141.262 23.5432 141.665 23.2342 141.98 22.8405C142.296 22.4461 142.53 21.9874 142.681 21.4617C142.833 20.9368 142.909 20.3708 142.909 19.7644V15.2974H140.891V19.7644C140.891 20.0837 140.86 20.3974 140.799 20.7057C140.738 21.0133 140.632 21.2854 140.485 21.5233C140.338 21.7611 140.145 21.9525 139.907 22.0961C139.669 22.2396 139.377 22.3107 139.034 22.3107C138.689 22.3107 138.4 22.2417 138.166 22.1022ZM154.025 24.034V15.2974H151.847L149.571 19.8622L147.307 15.2974H145.117V24.034H147.134V18.804L149.029 22.6067H150.112L152.007 18.804V24.034H154.025Z" fill="#253666"/>
	<path d="M78.3695 0.332214V68.0957" stroke="#253666" stroke-width="0.500367"/>
	<title>Quantum Internet Alliance</title>
</svg>