<?xml version="1.0" ?>
<!-- Generator: Adobe Illustrator 24.0.3, SVG Export Plug-In . SVG Version: 6.00 Build 0)  -->
<svg xmlns="http://www.w3.org/2000/svg" version="1.1" id="Layer_1" x="0px" y="0px" viewBox="0 0 332.86 78.33" style="enable-background:new 0 0 332.86 78.33;" xml:space="preserve">
	<style type="text/css">
	.st0{fill:#003B5C;}
	.st1{fill:#62B5E5;}
</style>
	<g>
		<g>
			<path class="st0" d="M84.17,57.03V53.7H84c-1.19,2.88-3.87,3.58-6.83,3.58c-4.32,0-7.2-1.48-7.24-6.21V35.43h5.18v13.62    c0,3.08,0.29,4.28,3.62,4.28c3.99,0,5.27-1.69,5.27-5.43V35.43h5.18v21.6H84.17z"/>
			<path class="st0" d="M99.22,30.58h-5.18v-4.4h5.18V30.58z M99.22,57.03h-5.18v-21.6h5.18V57.03z"/>
			<path class="st0" d="M122.88,48.8c0,7.08-2.55,8.47-9.83,8.47c-7.94,0-9.67-2.3-9.67-11.03c0-7.57,1.19-11.07,9.67-11.07    c6.42,0,9.83,0.99,9.83,7.82h-5.18c0-3.29-1.03-3.87-4.65-3.87c-4.44,0-4.48,1.56-4.48,7.12c0,5.39-0.08,7.08,4.48,7.08    c4.24,0,4.65-0.74,4.65-4.53H122.88z"/>
			<path class="st0" d="M131.85,43.83h1.28l6.05-8.39h5.84l-7.65,10.16l9.21,11.44h-6.25l-7.2-9.67h-1.28v9.67h-5.18V26.18h5.18    V43.83z"/>
			<path class="st0" d="M167.02,50.16c0,6.79-3.91,7.12-10.08,7.12c-8.27,0-9.96-2.63-9.96-10.98c0-7.73,1.23-11.11,9.96-11.11    c8.89,0,10.08,2.59,10.08,12.01h-14.85c0,4.65,0.12,6.13,4.77,6.13c2.88,0,4.9,0.04,4.9-3.17H167.02z M161.83,43.91    c0-4.44-0.66-4.77-4.9-4.77c-4.48,0-4.77,0.95-4.77,4.77H161.83z"/>
			<path class="st0" d="M175.53,35.43l-0.12,2.84h0.21c1.03-2.39,3.25-3.08,5.76-3.08c4.57,0,5.68,2.71,5.68,6.79v1.73h-4.85v-1.11    c0-2.18-0.21-3.46-2.63-3.46c-3.08,0-3.99,1.77-3.91,4.57v13.33h-5.18v-21.6H175.53z"/>
			<path class="st1" d="M217.08,57.03h-5.72l-17.32-27.97h-0.08v27.97h-3.5V26.18h5.76l17.28,28.18h0.08V26.18h3.5V57.03z"/>
			<path class="st1" d="M231.6,35.19c8.02,0,9.58,1.93,9.58,11.07c0,9.09-1.56,11.03-9.58,11.03c-8.02,0-9.59-1.93-9.59-11.03    C222.02,37.12,223.58,35.19,231.6,35.19z M231.6,54.65c5.8,0,6.21-0.91,6.21-8.39c0-7.53-0.41-8.43-6.21-8.43    c-5.8,0-6.21,0.9-6.21,8.43C225.39,53.74,225.8,54.65,231.6,54.65z"/>
			<path class="st1" d="M257.56,38.07h-8.35v13.7c0.04,2.34,0.66,2.88,3.04,2.88c3.04,0,3.04-1.6,3.04-3.66v-1.6h3.09v1.6    c0,4.28-1.77,6.29-6.21,6.29c-5.06,0-6.21-1.44-6.21-6.5V38.07h-2.88v-2.63h2.88v-5.22h3.25v5.22h8.35V38.07z"/>
			<path class="st1" d="M279.45,50.49v0.78c0,5.72-4.4,6.01-9.21,6.01c-8.43,0-9.71-2.8-9.71-11.03c0-8.97,1.97-11.07,9.71-11.07    c6.99,0,9.21,1.6,9.21,9.58v2.18H263.9c0,6.83,0.49,7.69,6.33,7.69c4.44,0,5.88-0.29,5.88-3.33v-0.82H279.45z M276.07,44.32    c-0.17-6.13-0.91-6.5-5.84-6.5c-5.88,0-6.09,1.52-6.33,6.5H276.07z"/>
			<path class="st1" d="M301.54,41.07h-3.37v-0.82c0-2.18-1.65-2.18-5.06-2.18c-4.07,0-6.05-0.04-6.05,2.63    c0,3.87,1.07,3.58,4.44,3.74c5.55,0.33,10.61-0.54,10.61,6.5c0,6.09-4.2,6.34-9.01,6.34c-4.69,0-9.58-0.25-9.58-5.06V50.2h3.37    v1.69c0,2.06,1.28,2.51,6.21,2.51c2.22,0,5.64,0.49,5.64-3.33c0-4.03-1.69-3.29-5.64-3.54c-4.69-0.33-9.42,0.17-9.42-5.96    c0-6.25,3.58-6.38,9.42-6.38c3.78,0,8.43,0.16,8.43,5.06V41.07z"/>
		</g>
		<g>
			<g>
				<path class="st1" d="M55.73,32.73H40c-0.85,0-1.55,0.7-1.55,1.55s0.7,1.55,1.55,1.55h15.73c0.85,0,1.55-0.7,1.55-1.55     S56.59,32.73,55.73,32.73z"/>
				<path class="st1" d="M55.73,45.09H40c-0.85,0-1.55,0.7-1.55,1.55s0.7,1.55,1.55,1.55h15.73c0.85,0,1.55-0.7,1.55-1.55     S56.59,45.09,55.73,45.09z"/>
				<path class="st1" d="M40,42.01h11.66c0.85,0,1.55-0.7,1.55-1.55s-0.7-1.55-1.55-1.55H40c-0.85,0-1.55,0.7-1.55,1.55     S39.15,42.01,40,42.01z"/>
			</g>
			<path class="st0" d="M67.14,58.89l-1.95-7.28c0.04-0.13,0.09-0.26,0.13-0.39c0.44-1.48,0.49-3.13,0.58-4.66    c0.16-2.63,0.19-5.27,0.19-7.91c0-3.15,0-4.16-0.15-5.7c-0.09-0.96-0.5-1.88-1.17-2.61l-8.13-8.95c-0.94-1.03-2.28-1.67-3.73-1.76    c-1.39-0.09-3.15-0.18-4.47-0.18c-7.69,0-12.57,1.05-14.62,3.16c-2.04,2.11-3.07,7.11-3.07,15c0,9.88,0.9,15.9,2.69,18.06    c1.8,2.16,6.79,3.25,15,3.25c2.78,0,5.59-0.15,8.33-0.72c1.22-0.25,2.44-0.61,3.59-1.11L67.14,58.89z M55.82,54.55    c-2.44,0.56-4.98,0.66-7.48,0.66c-6.52,0-10.35-0.68-11.46-2.04c-1.12-1.36-1.67-6.03-1.67-14.02c0-7.97,0.56-12.64,1.67-13.99    c1.11-1.36,4.95-2.04,11.52-2.04c2.73,0,3.29,0.11,5.09,0.34l0,4.85c0,1.85,1.61,3.35,3.59,3.35l4.19,0    c0.28,2.75,0.35,3.97,0.35,9.69c0,1.98-0.02,3.98-0.22,5.95c-0.05,0.46-0.09,0.91-0.15,1.36c-0.17,1.38-0.47,2.72-1.37,3.88    C58.98,53.73,57.18,54.23,55.82,54.55z"/>
		</g>
	</g>
</svg>