<?xml version="1.0" ?>
<svg xmlns="http://www.w3.org/2000/svg" viewBox="0 0 146 40" fill="none">
	<g fill="#000">
		<path d="M39.746 32.144l-7.684-15.207-2.474-2.86v-.64h9.809v.64l-1.883 2.747 5.155 9.727 3.187-13.114h3.072L54.956 26.7l2.294-10.026-1.944-2.598v-.64h8.434v.64l-2.354 2.861-7.734 15.207h-1.768L46.89 20.838l-5.306 11.306h-1.837zM70.743 32.676c-1.641 0-2.992-.47-4.052-1.407-1.06-.963-1.59-2.192-1.59-3.688 0-3.346 2.726-5.513 8.179-6.502l4.013-.684v-.266c0-1.547-.366-2.725-1.098-3.536-.707-.837-1.716-1.255-3.029-1.255-.48 0-1.442.22-1.922.373l-3.02 4.075h-.909l-2.124-4.459.289-.597c.933-.533 2.183-.976 3.748-1.331a21.507 21.507 0 014.695-.532c2.853 0 5.024.583 6.513 1.749 1.49 1.165 2.234 2.864 2.234 5.095v7.642l2.347 2.09v.761l-5.073 2.434h-.871l-1.326-2.928h-.34c-1.692 1.977-3.913 2.966-6.664 2.966zm-.038-6.16c0 .862.24 1.534.72 2.016.504.456 1.198.684 2.082.684 1.464 0 2.726-.38 3.786-1.14v-5.742l-2.234.57c-1.565.38-2.688.85-3.37 1.407-.656.558-.984 1.293-.984 2.205zM86.569 32.144v-.609l2.46-2.395V18.874l-2.687-2.547v-.76l6.929-2.396h1.098l-.265 3.308h.189c2.297-2.408 4.695-3.612 7.194-3.612 1.944 0 3.446.583 4.506 1.749 1.086 1.165 1.628 2.813 1.628 4.942v9.582l2.461 2.395v.609H99.935v-.609l2.31-2.395v-8.25c0-1.496-.291-2.574-.871-3.233-.556-.659-1.465-.988-2.727-.988-1.59 0-3.004.52-4.24 1.559V29.14l2.31 2.395v.609H86.568zM120.483 32.676c-1.919 0-3.471-.609-4.658-1.825-1.186-1.217-1.779-2.827-1.779-4.83v-8.896h-3.295v-.799l7.573-8.288h1.098v6.009l5.983-1.179h.681v4.373l-.53.418-6.134-1.103v8.135c0 2.915 1.048 4.373 3.143 4.373 1.414 0 2.613-.583 3.597-1.75l1.136.723a6.29 6.29 0 01-2.537 3.384c-1.212.836-2.638 1.255-4.278 1.255zM135.29-.004l-1.588 6.157-6.091 1.57v.628l6.091 1.572 1.588 6.157h.594l1.588-6.157 6.223-1.606v-.559l-6.223-1.605-1.588-6.157h-.594z"/>
		<path fill-rule="evenodd" clip-rule="evenodd" d="M28.227 19.081c0-8.97-6.204-13.589-13.856-13.589C6.718 5.492.514 10.108.514 19.081c0 8.332 5.265 12.845 12.077 13.504 3.578 5.748 9.086 7.456 14.648 5.82l.405-.51.573-5.364-.978-.53c-3.133 2.66-8.17 2.658-11.507.62 7.014-.515 12.495-5.05 12.495-13.54zm-6.577 0c0 6.172-2.362 11.176-7.279 11.176-5.17 0-7.278-5.004-7.278-11.176 0-6.172 2.194-11.175 7.278-11.175 5.232 0 7.28 5.003 7.28 11.175z"/>
	</g>
</svg>