<?xml version="1.0" ?>
<svg xmlns="http://www.w3.org/2000/svg" viewBox="-11.99 -11.49 623.48 230.98">
	<title>wand-logo.svg</title>
	<path fill="#03012F" d="M598.664 51.332c.738 0 1.336.5981 1.336 1.3359V203.856c0 .738-.598 1.336-1.336 1.336H574.08c-.738 0-1.336-.598-1.336-1.336v-12.073c-6.375 9.892-20.003 16.046-35.609 16.046-29.894 0-56.051-22.2-56.051-56.93 0-34.729 26.157-56.93 56.051-56.93 15.606 0 29.234 6.155 35.609 16.046V52.6679c0-.7378.598-1.3359 1.336-1.3359h24.584zm-25.92 99.567c0-19.563-14.508-32.751-32.092-32.751-17.585 0-31.872 13.188-31.872 32.751 0 19.563 14.287 32.751 31.872 32.751 17.584 0 32.092-13.188 32.092-32.751zm-174.998-39.565c5.056-9.892 16.706-17.365 32.092-17.365 24.619 0 41.764 16.925 41.764 42.643v67.244c0 .738-.598 1.336-1.336 1.336h-24.805c-.737 0-1.335-.598-1.335-1.336v-63.068c0-14.287-8.353-22.86-20.882-22.86-15.826 0-25.498 12.749-25.498 35.169v50.759c0 .738-.598 1.336-1.336 1.336h-24.804c-.738 0-1.336-.598-1.336-1.336V97.9425c0-.7377.598-1.3358 1.336-1.3358h24.804c.738 0 1.336.5981 1.336 1.3358v13.3915zm-45.917-14.7273c.737 0 1.335.5981 1.335 1.3358V203.856c0 .738-.598 1.336-1.335 1.336h-24.585c-.738 0-1.336-.598-1.336-1.336v-12.073c-6.374 9.892-20.002 16.046-35.609 16.046-29.893 0-56.05-22.2-56.05-56.93 0-34.729 26.157-56.93 56.05-56.93 15.607 0 29.235 6.155 35.609 16.046V97.9425c0-.7377.598-1.3358 1.336-1.3358h24.585zm-25.921 54.2923c0-19.563-14.507-32.751-32.092-32.751-17.584 0-31.872 13.188-31.872 32.751 0 19.563 14.288 32.752 31.872 32.752 17.585 0 32.092-13.189 32.092-32.752z"/>
	<path fill="url(#paint0_linear_14_221)" d="M286.927 40.2656c2.205 0 2.178 2.4842 1.454 3.2373-.17.1876-131.501 145.5311-140.872 154.2451-9.377 8.72-15.551 10.252-21.65 8.671-5.439-2.048-8.583-4.819-9.149-12.47l-3.403-76.531-88.6508 86.294c-4.184 4.073-10.4008 5.244-15.78022 2.974C3.49671 204.415.00015 199.144 0 193.305V126.92c.00004-.668.5417-1.211 1.20996-1.211H27.8389c.6684 0 1.2099.542 1.2099 1.211v31.976l83.1732-79.8003c8.801-8.5666 28.284-3.2058 28.65 8.7383l3.351 69.712L249.264 41.3223c.604-.604 1.104-1.0566 2.304-1.0567h35.359zm13.605 11.6211c4.862-6.9582 14.493-8.6236 21.437-3.7724L304.402 73.125c-.382.5479-1.155.7081-1.702.3262l-10.574-7.4268c-.547-.382-.709-1.1572-.326-1.7051l8.732-12.4326zm55.653 1.1494c.547.3828.709 1.1555.327 1.7022l-7.428 10.5732c-.382.5467-1.156.7098-1.704.3272l-12.433-8.7325c-6.958-4.8619-8.623-14.493-3.772-21.4365l25.01 17.5664zM291.414 9.0664c.382-.5467 1.157-.70996 1.705-.32715l12.433 8.73245c6.958 4.862 8.623 14.494 3.771 21.4375l-25.01-17.5674c-.547-.3828-.708-1.1545-.326-1.7012l7.427-10.5742zm44.683-7.81348c.383-.54758 1.154-.70797 1.701-.32617l10.574 7.42676c.547.38193.71 1.15722.327 1.70509l-8.732 12.4326c-4.862 6.9585-14.494 8.6239-21.438 3.7725l17.568-25.01078z"/>
	<defs>
		<linearGradient id="paint0_linear_14_221" x1="0" x2="248.317" y1="143.053" y2="-87.379" gradientUnits="userSpaceOnUse">
			<stop stop-color="#060518"/>
			<stop offset=".787" stop-color="#865CF1"/>
			<stop offset="1" stop-color="#00F9F1"/>
		</linearGradient>
	</defs>
</svg>