<?xml version="1.0" ?>
<svg xmlns="http://www.w3.org/2000/svg" viewBox="0 0 50 50" fill="none">
	<path d="M6 10C6 7.79086 7.79086 6 10 6H40C42.2091 6 44 7.79086 44 10V40C44 42.2091 42.2091 44 40 44H10C7.79086 44 6 42.2091 6 40V10Z" fill="url(#paint0_linear_9176_16416)"/>
	<path d="M19.891 17.08L18.5873 28.4981H14.9345C14.5986 26.7436 14.3047 24.7478 14.0528 22.5107C13.9352 23.4701 13.6627 25.4659 13.2353 28.4981H9.59125L8.28 17.08H11.1254L11.7338 24.9151C11.8422 22.9223 12.1121 20.3106 12.5438 17.08H15.5857C15.626 17.4137 15.7322 18.6689 15.9044 20.8456L16.2281 25.1871C16.3944 22.4213 16.6669 19.7189 17.0456 17.08H19.891Z" fill="#231F20"/>
	<path d="M22.7176 22.5618H19.9943V21.9118C19.9943 21.1593 20.0783 20.5813 20.2463 20.1778C20.4142 19.7743 20.7564 19.415 21.2728 19.1001C21.7867 18.7885 22.4543 18.6327 23.2756 18.6327C24.2598 18.6327 25.0017 18.8094 25.5013 19.1626C26.001 19.5159 26.3012 19.9492 26.4019 20.4625C26.5027 20.9733 26.5531 22.0306 26.5531 23.6343V28.4981H23.719V27.6349C23.5705 27.9589 23.3301 28.2306 23.0286 28.4155C22.7271 28.6004 22.3781 28.6901 22.0261 28.673C21.5261 28.6763 21.037 28.5248 20.6241 28.2389C20.2043 27.9503 19.9943 27.3161 19.9943 26.3363V25.5408C19.9943 24.8155 20.1073 24.3213 20.3332 24.0583C20.5591 23.7952 21.1179 23.4888 22.0097 23.1389C22.9662 22.7584 23.4776 22.503 23.5439 22.3728C23.6119 22.2451 23.6447 21.9744 23.6447 21.5696C23.6447 21.0588 23.6081 20.7332 23.5338 20.58C23.5025 20.5064 23.4491 20.4447 23.3813 20.4035C23.3136 20.3622 23.2347 20.3436 23.1559 20.3502C22.9594 20.3502 22.8373 20.4153 22.7894 20.5442C22.7415 20.6732 22.7163 21.0078 22.7163 21.5479L22.7176 22.5618ZM23.6396 23.891C23.1753 24.2315 22.9053 24.5209 22.8297 24.7593C22.7436 25.0877 22.7058 25.4272 22.7176 25.7668C22.7176 26.2686 22.7503 26.5917 22.8158 26.7385C22.8494 26.8113 22.9047 26.8715 22.9738 26.9107C23.043 26.9499 23.1226 26.966 23.2013 26.9569C23.3827 26.9569 23.5023 26.9007 23.5578 26.7858C23.6132 26.6708 23.6396 26.3708 23.6396 25.8843V23.891Z" fill="#231F20"/>
	<path d="M33.4935 21.9041H30.9151V21.3781C30.9151 20.9311 30.8899 20.6477 30.8395 20.5276C30.7891 20.4089 30.6632 20.3489 30.4616 20.3489C30.3917 20.3439 30.3217 20.3564 30.2576 20.3851C30.1935 20.4138 30.1373 20.4579 30.0938 20.5136C30.0007 20.6599 29.9566 20.8327 29.9679 21.0065C29.9596 21.2262 29.9803 21.4461 30.0296 21.6603C30.1057 21.845 30.233 22.0033 30.3961 22.1161C30.6002 22.2864 31.0201 22.5273 31.6558 22.8388C32.5022 23.256 33.0573 23.6505 33.321 24.0225C33.5855 24.3916 33.724 24.9304 33.724 25.6353C33.724 26.4244 33.6228 27.0203 33.4205 27.4229C33.201 27.8415 32.8447 28.1697 32.4128 28.3512C31.8716 28.5805 31.2886 28.691 30.7022 28.6756C30.0525 28.6929 29.4062 28.5738 28.804 28.3257C28.2783 28.0925 27.9168 27.7758 27.7195 27.3757C27.5221 26.9756 27.4239 26.372 27.4247 25.565V25.0951H30.0032V25.708C30.0032 26.229 30.0355 26.5695 30.1001 26.7296C30.1313 26.8052 30.1855 26.8687 30.2549 26.9107C30.3243 26.9528 30.4051 26.9712 30.4856 26.9632C30.5646 26.9722 30.6447 26.9627 30.7196 26.9355C30.7944 26.9083 30.8622 26.864 30.9176 26.8062C31.0016 26.7015 31.0436 26.4814 31.0436 26.146C31.0436 25.6838 30.9907 25.3939 30.8849 25.2764C30.7791 25.159 30.2106 24.8104 29.1794 24.2307C28.3245 23.7437 27.8035 23.3019 27.6162 22.9052C27.419 22.4619 27.323 21.9792 27.3353 21.493C27.3353 20.7192 27.4361 20.1484 27.6376 19.7807C27.8391 19.4129 28.1813 19.1294 28.6642 18.9302C29.2001 18.7201 29.7713 18.6181 30.3458 18.6302C30.8941 18.6178 31.4404 18.7016 31.9606 18.8779C32.3487 19.0048 32.7 19.2267 32.9834 19.524C33.1885 19.732 33.3381 19.9895 33.4179 20.2723C33.4783 20.6268 33.5036 20.9865 33.4935 21.3461V21.9041Z" fill="#231F20"/>
	<path d="M37.1602 18.8089L37.1098 19.6645C37.3374 19.3465 37.63 19.0822 37.9676 18.8894C38.2818 18.718 38.6337 18.6301 38.9904 18.634C39.4098 18.6243 39.8207 18.7539 40.1606 19.003C40.4579 19.2043 40.6762 19.5047 40.7778 19.8522C40.8618 20.1739 40.9038 20.7192 40.9038 21.4879V25.574C40.9038 26.455 40.8521 27.0816 40.7488 27.4536C40.6525 27.819 40.4287 28.1365 40.119 28.3474C39.7761 28.5753 39.3726 28.6912 38.9627 28.6794C38.6108 28.683 38.2639 28.595 37.955 28.424C37.6245 28.231 37.3375 27.97 37.1124 27.6579V29.8797H34.2027V18.8089H37.1602ZM37.989 21.6271C37.989 21.0312 37.9672 20.6685 37.9235 20.5391C37.8807 20.4114 37.7611 20.3489 37.5633 20.3489C37.4863 20.3389 37.4082 20.355 37.3412 20.3948C37.2742 20.4345 37.2221 20.4956 37.193 20.5685C37.1376 20.7141 37.1098 21.0678 37.1098 21.6271V25.6429C37.1098 26.2277 37.1388 26.5917 37.1968 26.7385C37.2275 26.8118 37.2811 26.8729 37.3494 26.9123C37.4176 26.9517 37.4968 26.9674 37.5746 26.9569C37.7623 26.9569 37.8782 26.8905 37.9235 26.7564C37.9689 26.6223 37.9928 26.298 37.9928 25.7821L37.989 21.6271Z" fill="#231F20"/>
	<path d="M8.40596 30.9485H9.02695C9.2392 30.9335 9.45169 30.974 9.64415 31.0659C9.70712 31.1043 9.75842 31.1595 9.79242 31.2255C9.82642 31.2915 9.84181 31.3658 9.83687 31.4401C9.84082 31.5423 9.81113 31.6429 9.75248 31.7261C9.72579 31.7626 9.69223 31.7933 9.65374 31.8165C9.61526 31.8398 9.57261 31.855 9.52827 31.8614V31.8742C9.63525 31.8903 9.73284 31.9452 9.80286 32.0287C9.87367 32.1415 9.90124 32.2767 9.88035 32.4087C9.85946 32.5407 9.79156 32.6604 9.6895 32.7451C9.53086 32.8513 9.34279 32.9032 9.15291 32.8932H8.40596V30.9485ZM8.82919 31.7146H9.07481C9.16184 31.7218 9.24911 31.7041 9.32673 31.6635C9.35339 31.6441 9.37462 31.618 9.38831 31.5878C9.402 31.5576 9.4077 31.5243 9.40483 31.4911C9.40705 31.4592 9.4003 31.4272 9.38537 31.399C9.37043 31.3707 9.34792 31.3474 9.32043 31.3315C9.23717 31.2933 9.14585 31.2766 9.05466 31.283H8.82919V31.7146ZM8.82919 32.0428V32.5535H9.10504C9.1958 32.5607 9.2864 32.5379 9.36326 32.4884C9.3917 32.464 9.41406 32.4331 9.4285 32.3983C9.44295 32.3634 9.44908 32.3256 9.44639 32.2879C9.44639 32.127 9.32799 32.0466 9.09119 32.0466L8.82919 32.0428Z" fill="#231F20"/>
	<path d="M11.3887 32.8932L11.2439 32.4309H10.5158L10.3709 32.8932H9.91749L10.6229 30.9408H11.1406L11.8485 32.8932H11.3887ZM11.1431 32.0849C11.0083 31.6648 10.934 31.4273 10.9164 31.3724C10.8987 31.3175 10.8874 31.2741 10.8798 31.2447C10.8509 31.3583 10.7639 31.6393 10.6216 32.0875L11.1431 32.0849Z" fill="#231F20"/>
	<path d="M12.4002 32.1475V32.8932H11.9757V30.9485H12.5627C12.7732 30.9329 12.9834 30.9833 13.1647 31.0928C13.2302 31.1439 13.2823 31.2106 13.3164 31.287C13.3504 31.3634 13.3654 31.4471 13.36 31.5307C13.3621 31.6406 13.328 31.748 13.263 31.8359C13.1922 31.9303 13.0972 32.0031 12.9884 32.0466C13.2894 32.4833 13.4847 32.7655 13.5766 32.8932H13.103L12.6256 32.1475H12.4002ZM12.4002 31.8116H12.5362C12.6394 31.8191 12.7425 31.7965 12.8335 31.7465C12.8655 31.7237 12.8911 31.6929 12.9078 31.6571C12.9246 31.6213 12.932 31.5818 12.9292 31.5422C12.9326 31.5032 12.9252 31.4641 12.9078 31.4291C12.8905 31.3942 12.8638 31.3648 12.831 31.3443C12.7364 31.3001 12.6326 31.2804 12.5286 31.2868H12.4027L12.4002 31.8116Z" fill="#231F20"/>
	<path d="M14.5528 31.2639C14.4817 31.2603 14.4109 31.2744 14.3463 31.3049C14.2818 31.3354 14.2256 31.3813 14.1825 31.4388C14.0888 31.5829 14.0445 31.7544 14.0565 31.9266C14.0565 32.359 14.2245 32.5757 14.5604 32.5765C14.7326 32.5699 14.9027 32.5354 15.0642 32.4744V32.8204C14.8891 32.8889 14.7027 32.9227 14.515 32.92C14.3924 32.9285 14.2694 32.9101 14.1544 32.866C14.0394 32.8219 13.9352 32.7532 13.8487 32.6646C13.6821 32.4567 13.5993 32.1926 13.6169 31.9253C13.613 31.7412 13.6518 31.5588 13.7303 31.3928C13.802 31.2457 13.9157 31.1238 14.0565 31.0429C14.2106 30.9565 14.3843 30.9125 14.5604 30.9153C14.7627 30.9175 14.962 30.9641 15.1448 31.0519L15.0076 31.3877C14.934 31.3534 14.8588 31.3232 14.7821 31.2971C14.708 31.2732 14.6305 31.262 14.5528 31.2639Z" fill="#231F20"/>
	<path d="M17.1804 31.9189C17.1965 32.1902 17.1059 32.457 16.9284 32.6608C16.8345 32.7502 16.7234 32.8191 16.602 32.863C16.4807 32.907 16.3516 32.9251 16.2231 32.9162C16.0945 32.9252 15.9654 32.9072 15.844 32.8632C15.7226 32.8193 15.6115 32.7504 15.5177 32.6608C15.3424 32.4551 15.2541 32.1876 15.2721 31.9164C15.2629 31.7824 15.2799 31.6479 15.322 31.5206C15.3642 31.3933 15.4307 31.2757 15.5177 31.1745C15.6122 31.0851 15.7238 31.0163 15.8455 30.9724C15.9673 30.9284 16.0966 30.9103 16.2256 30.9191C16.354 30.9098 16.4829 30.9276 16.6042 30.9716C16.7254 31.0156 16.8363 31.0847 16.9297 31.1745C17.1067 31.3795 17.1968 31.647 17.1804 31.9189ZM15.7217 31.9189C15.7094 32.0919 15.7537 32.2643 15.8477 32.4092C15.8934 32.4649 15.9515 32.5089 16.0172 32.5375C16.0828 32.5662 16.1543 32.5786 16.2256 32.574C16.5615 32.574 16.7294 32.3556 16.7294 31.9189C16.7294 31.4797 16.5619 31.2613 16.2256 31.2613C16.1543 31.2569 16.083 31.2695 16.0173 31.2982C15.9517 31.3268 15.8936 31.3706 15.8477 31.426C15.7531 31.5717 15.7088 31.745 15.7217 31.9189Z" fill="#231F20"/>
	<path d="M19.1315 31.9023C19.1404 32.0382 19.1198 32.1745 19.0713 32.3016C19.0228 32.4286 18.9475 32.5434 18.8506 32.6378C18.6642 32.8089 18.3934 32.8932 18.0394 32.8932H17.4751V30.9485H18.1049C18.3797 30.9332 18.6499 31.0245 18.8607 31.2038C18.9527 31.2937 19.0245 31.4026 19.0712 31.5231C19.1179 31.6437 19.1385 31.773 19.1315 31.9023ZM18.6919 31.9125C18.6919 31.4945 18.5021 31.286 18.1226 31.2868H17.8971V32.5535H18.0797C18.4878 32.5535 18.6919 32.3399 18.6919 31.9125Z" fill="#231F20"/>
	<path d="M20.5763 32.8932H19.425V30.9485H20.5763V31.2868H19.8495V31.7133H20.5259V32.0517H19.8495V32.5535H20.5763V32.8932Z" fill="#231F20"/>
	<path d="M22.6886 32.8932H22.2616V31.2919H21.7187V30.9485H23.2303V31.2919H22.6874L22.6886 32.8932Z" fill="#231F20"/>
	<path d="M24.5692 32.8932H23.4179V30.9485H24.5692V31.2868H23.8424V31.7133H24.5188V32.0517H23.8424V32.5535H24.5692V32.8932Z" fill="#231F20"/>
	<path d="M25.7142 31.2639C25.6431 31.2606 25.5723 31.2747 25.5078 31.3052C25.4434 31.3357 25.3871 31.3815 25.3439 31.4388C25.2507 31.5832 25.2065 31.7544 25.2179 31.9266C25.2179 32.359 25.3859 32.5757 25.7218 32.5765C25.8961 32.5702 26.0683 32.5357 26.2319 32.4744V32.8204C26.0568 32.8888 25.8704 32.9226 25.6827 32.92C25.5599 32.9285 25.4367 32.9101 25.3215 32.866C25.2063 32.822 25.1018 32.7533 25.0151 32.6646C24.8494 32.4563 24.7671 32.1923 24.7846 31.9253C24.7806 31.7412 24.8195 31.5588 24.898 31.3928C24.9693 31.2454 25.083 31.1234 25.2242 31.0429C25.3763 30.9572 25.5478 30.9132 25.7218 30.9153C25.9244 30.9175 26.1242 30.9641 26.3075 31.0519L26.1664 31.3928C26.0929 31.3585 26.0176 31.3283 25.9409 31.3022C25.8679 31.2769 25.7913 31.2639 25.7142 31.2639Z" fill="#231F20"/>
	<path d="M28.1666 32.8932H27.7434V32.0543H26.9524V32.8932H26.5292V30.9485H26.9524V31.7146H27.7434V30.9485H28.1666V32.8932Z" fill="#231F20"/>
	<path d="M30.3231 32.8932H29.7852L28.9161 31.4222H28.9035C28.9212 31.6776 28.93 31.8678 28.93 31.9776V32.8932H28.5521V30.9485H29.0862L29.9553 32.4054H29.9641C29.9502 32.15 29.944 31.9738 29.944 31.8691V30.9485H30.3218L30.3231 32.8932Z" fill="#231F20"/>
	<path d="M32.5186 31.9189C32.5347 32.1902 32.4441 32.457 32.2667 32.6608C32.0687 32.8282 31.8191 32.92 31.5613 32.92C31.3035 32.92 31.0538 32.8282 30.8559 32.6608C30.6806 32.4551 30.5923 32.1876 30.6103 31.9164C30.6011 31.7824 30.6181 31.6479 30.6602 31.5206C30.7024 31.3933 30.7689 31.2757 30.8559 31.1745C30.9504 31.0851 31.062 31.0163 31.1837 30.9724C31.3055 30.9284 31.4348 30.9103 31.5638 30.9191C31.6922 30.9098 31.8212 30.9276 31.9424 30.9716C32.0636 31.0156 32.1745 31.0847 32.2679 31.1745C32.4449 31.3795 32.535 31.647 32.5186 31.9189ZM31.06 31.9189C31.0476 32.0919 31.0919 32.2643 31.1859 32.4092C31.2316 32.4649 31.2897 32.5089 31.3554 32.5375C31.421 32.5662 31.4925 32.5786 31.5638 32.574C31.8997 32.574 32.0676 32.3556 32.0676 31.9189C32.0676 31.4797 31.9001 31.2613 31.5638 31.2613C31.4925 31.2569 31.4212 31.2695 31.3556 31.2982C31.2899 31.3268 31.2318 31.3706 31.1859 31.426C31.0913 31.5717 31.047 31.745 31.06 31.9189Z" fill="#231F20"/>
	<path d="M32.8121 32.8932V30.9485H33.2353V32.5535H34.0465V32.8932H32.8121Z" fill="#231F20"/>
	<path d="M36.087 31.9189C36.0954 32.0533 36.0774 32.188 36.0341 32.3153C35.9909 32.4427 35.9233 32.5601 35.8351 32.6608C35.6374 32.8281 35.388 32.9198 35.1304 32.9198C34.8728 32.9198 34.6234 32.8281 34.4256 32.6608C34.248 32.4561 34.1575 32.1885 34.1737 31.9164C34.1654 31.782 34.1834 31.6472 34.2266 31.5199C34.2698 31.3926 34.3375 31.2752 34.4256 31.1745C34.5201 31.0851 34.6317 31.0163 34.7535 30.9724C34.8752 30.9284 35.0046 30.9103 35.1335 30.9191C35.2619 30.9099 35.3908 30.9279 35.512 30.9718C35.6332 31.0158 35.7441 31.0848 35.8376 31.1745C36.0142 31.3797 36.1038 31.6472 36.087 31.9189ZM34.6284 31.9189C34.6161 32.0919 34.6604 32.2643 34.7544 32.4092C34.8001 32.4649 34.8582 32.5089 34.9238 32.5375C34.9895 32.5662 35.0609 32.5786 35.1323 32.574C35.4682 32.574 35.6361 32.3556 35.6361 31.9189C35.6361 31.4797 35.4686 31.2613 35.1323 31.2613C35.061 31.2569 34.9896 31.2695 34.924 31.2982C34.8584 31.3268 34.8003 31.3706 34.7544 31.426C34.6597 31.5717 34.6154 31.745 34.6284 31.9189Z" fill="#231F20"/>
	<path d="M37.1388 31.8014H37.9311V32.8102C37.8126 32.8485 37.6913 32.8771 37.5683 32.8957C37.4532 32.9122 37.337 32.9204 37.2207 32.92C37.0944 32.9294 36.9675 32.9115 36.8485 32.8675C36.7295 32.8235 36.6211 32.7543 36.5304 32.6646C36.359 32.458 36.2732 32.1921 36.2911 31.9227C36.2836 31.7873 36.3045 31.6517 36.3522 31.525C36.4 31.3983 36.4736 31.2832 36.5682 31.1872C36.7806 31.002 37.0556 30.9076 37.3353 30.9242C37.539 30.9237 37.7407 30.9645 37.9286 31.0442L37.7875 31.3737C37.6458 31.304 37.4903 31.2678 37.3328 31.2677C37.2511 31.2641 37.1696 31.2783 37.0937 31.3093C37.0179 31.3404 36.9495 31.3876 36.8932 31.4477C36.7774 31.5803 36.7177 31.7536 36.7269 31.9304C36.7165 32.1023 36.7635 32.2728 36.8604 32.4143C36.9079 32.4707 36.9677 32.5151 37.035 32.5439C37.1024 32.5727 37.1755 32.5852 37.2484 32.5803C37.3389 32.5801 37.4291 32.5711 37.518 32.5535V32.1475H37.1401L37.1388 31.8014Z" fill="#231F20"/>
	<path d="M38.2863 32.8932V30.9485H38.7108V32.8932H38.2863Z" fill="#231F20"/>
	<path d="M40.2437 32.8932H39.0925V30.9485H40.2437V31.2868H39.5182V31.7133H40.1946V32.0517H39.5182V32.5535H40.245L40.2437 32.8932Z" fill="#231F20"/>
	<path d="M41.72 32.3531C41.7231 32.4331 41.7069 32.5127 41.6729 32.585C41.6389 32.6573 41.588 32.7201 41.5248 32.768C41.366 32.8786 41.1753 32.932 40.9831 32.92C40.7883 32.9243 40.595 32.8842 40.4176 32.8025V32.4195C40.5278 32.4712 40.6419 32.5139 40.7589 32.5471C40.8411 32.5694 40.9257 32.5814 41.0108 32.5829C41.0856 32.5878 41.1602 32.57 41.225 32.5318C41.2493 32.5146 41.2688 32.4913 41.2818 32.4643C41.2948 32.4373 41.3008 32.4073 41.2993 32.3773C41.2997 32.3406 41.2882 32.3047 41.2665 32.2752C41.2391 32.2414 41.2063 32.2125 41.1695 32.1896C41.0881 32.1421 41.004 32.0995 40.9176 32.0619C40.8195 32.02 40.7268 31.966 40.6418 31.901C40.5824 31.8508 40.5328 31.7898 40.4957 31.721C40.4588 31.647 40.4402 31.5651 40.4415 31.4822C40.4381 31.405 40.4526 31.328 40.4839 31.2574C40.5152 31.1869 40.5624 31.1248 40.6216 31.0762C40.7651 30.97 40.9406 30.9177 41.1179 30.928C41.2181 30.9273 41.3179 30.9394 41.4152 30.9638C41.5161 30.9901 41.6151 31.0238 41.7112 31.0647L41.5726 31.3813C41.4872 31.345 41.3992 31.3152 41.3094 31.2919C41.2417 31.2754 41.1724 31.2669 41.1028 31.2664C41.037 31.2618 40.9717 31.2813 40.9189 31.3213C40.8981 31.3383 40.8815 31.3599 40.8703 31.3845C40.8592 31.4091 40.8538 31.436 40.8546 31.4631C40.8541 31.4967 40.8628 31.5299 40.8798 31.5588C40.9023 31.59 40.9305 31.6165 40.963 31.6367C41.0498 31.6873 41.1394 31.7329 41.2313 31.7733C41.3739 31.8299 41.5028 31.917 41.6092 32.0287C41.6831 32.1199 41.7225 32.235 41.72 32.3531Z" fill="#231F20"/>
	<defs>
		<linearGradient id="paint0_linear_9176_16416" x1="6" y1="25" x2="44" y2="25" gradientUnits="userSpaceOnUse">
			<stop stop-color="#F6C94B"/>
			<stop offset="1" stop-color="#F4BE48"/>
		</linearGradient>
	</defs>
</svg>