<svg xmlns="http://www.w3.org/2000/svg" version="1.0" viewBox="0 0 302 306"><path d="M0 153v153h302V0H0v153zm165.4-91.2c2.7 1.2 6.9 3.8 9.3 5.8l4.3 3.5v149.7l-13.6 12.9c-7.5 7-14.2 12.8-14.9 12.8-.8 0-7.5-6-15-13.4L122 219.7V72.4l3.8-3.6c4.1-3.9 7.7-6.1 13.7-8.3 5.9-2.2 19.6-1.5 25.9 1.3zm-63.9 49.7c1.8.9 3.7 2.7 4.4 4.1 1.5 3.3 1.6 72.7.1 75.5-1.4 2.5-6.2 4.9-9.8 4.9-2 0-4-1-6.1-3.2l-3.1-3.2v-35.7c0-24.6.4-36.6 1.1-38.3 1.1-2.4 6-5.5 8.7-5.6.8 0 2.9.7 4.7 1.5zm110.6.1c5.6 2.9 5.9 4.9 5.9 41.9 0 27.9-.3 34.1-1.5 36.5-3.4 6.6-10.3 7.9-15.7 3.1l-3.3-2.9-.3-35.6c-.3-39.5-.2-40.4 6.1-43.1 4.1-1.8 5.2-1.8 8.8.1zM67.8 137.5c1.9 2.3 2.2 3.7 2.2 12 0 5.2-.5 10.5-1.1 11.8-2.7 5.9-11.6 6.8-16.1 1.8-2.7-3-2.8-3.6-2.8-12.9 0-10.9 1-13.5 6.3-15.7 3.9-1.6 8.4-.4 11.5 3zm179.9-2c2.8 2 4.3 7.3 4.3 15.3 0 11.9-5.8 17.9-14.3 14.9-4.8-1.6-6.7-6-6.7-15.5 0-8.7 1.4-13.2 4.7-15.1 2.7-1.6 9.6-1.3 12 .4z"/><path d="M142.1 79.6c-3.1 2.6-3.1 2.6-3.1 12.9v10.3l3.4 1.6c4.3 2 12.8 2.1 16.6.1l3-1.6V81l-3.2-2c-5-3-12.8-2.7-16.7.6zM142 168.8l.1 43.7 4.3 3.7 4.3 3.7 4.2-3.5 4.1-3.6V125.1h-17v43.7z"/></svg>