<svg viewBox="0 0 140 18" fill="none" xmlns="http://www.w3.org/2000/svg">
						<path fill-rule="evenodd" clip-rule="evenodd" d="M100.964 0.400002C100.495 0.400002 100.086 0.568078 99.7513 0.90423C99.4163 1.24038 99.2489 1.63704 99.2489 2.10766C99.2422 2.58499 99.4096 2.98838 99.7513 3.32453C100.086 3.66068 100.495 3.82876 100.964 3.82876C101.419 3.82876 101.821 3.66068 102.156 3.32453C102.498 2.98838 102.672 2.58499 102.672 2.10766C102.666 1.63704 102.498 1.24038 102.156 0.90423C101.821 0.568078 101.419 0.400002 100.964 0.400002ZM55.2751 4.9246C56.0924 4.9246 56.8494 5.05906 57.5595 5.31454C58.2696 5.57674 58.8391 5.98012 59.2745 6.52469C59.71 7.06926 59.9244 7.7819 59.9244 8.6559V16.0714H58.5644C57.727 16.0714 57.0437 15.3857 57.0437 14.5453H56.9566C56.6953 15.0562 56.2934 15.4731 55.7641 15.7958C55.2349 16.1185 54.565 16.2798 53.7544 16.2798C52.7093 16.2798 51.8384 16.0042 51.1483 15.4529C50.4583 14.9083 50.1167 14.0881 50.1167 12.999C50.1167 12.1721 50.3042 11.5334 50.6928 11.0628C51.0746 10.5921 51.5838 10.2493 52.2068 10.0341C52.8299 9.81899 53.5065 9.6778 54.23 9.61057C55.1813 9.51645 55.8646 9.4156 56.2733 9.30803C56.6819 9.20719 56.8896 8.97861 56.8896 8.62228V8.58194C56.8896 8.12478 56.7489 7.77518 56.4675 7.52643C56.1795 7.27767 55.7775 7.15666 55.2617 7.15666C54.7123 7.15666 54.2769 7.27095 53.9553 7.51298C53.6338 7.74829 53.4194 8.05082 53.3122 8.42059L50.4985 8.19201C50.7062 7.19027 51.2287 6.39023 52.0594 5.80532C52.8901 5.22042 53.962 4.9246 55.2751 4.9246ZM56.2666 13.5973C56.6953 13.2074 56.9097 12.7233 56.9097 12.1452H56.903V10.9754C56.7824 11.056 56.5948 11.13 56.347 11.1905C56.0991 11.251 55.8311 11.3048 55.5497 11.3518C55.2684 11.3989 55.0138 11.4392 54.7927 11.4729C54.2635 11.5468 53.8347 11.7014 53.5065 11.9233C53.1782 12.1452 53.0174 12.4746 53.0174 12.9049C53.0174 13.3284 53.1715 13.6444 53.473 13.8595C53.7744 14.0747 54.1563 14.1822 54.6253 14.1822C55.2885 14.1822 55.8378 13.9873 56.2666 13.5973ZM126.535 7.40543C126.079 6.57849 125.463 5.95997 124.686 5.54987C123.909 5.13976 123.038 4.93135 122.073 4.93135C120.995 4.93135 120.063 5.17338 119.266 5.65071C118.469 6.12805 117.853 6.79363 117.417 7.64746C116.982 8.50129 116.761 9.4963 116.761 10.6258C116.761 11.7889 116.982 12.7906 117.417 13.6377C117.853 14.4848 118.482 15.1369 119.293 15.6008C120.104 16.0647 121.075 16.2933 122.2 16.2933C123.554 16.2933 124.672 15.9908 125.543 15.379C126.414 14.7672 126.957 13.9537 127.171 12.9318L124.358 12.7435C124.204 13.1671 123.942 13.4831 123.574 13.6982C123.205 13.9133 122.763 14.0209 122.254 14.0209C121.49 14.0209 120.887 13.7856 120.439 13.315C120.05 12.9049 119.836 12.367 119.782 11.6947L127.232 10.4846C127.211 9.26099 126.984 8.21892 126.535 7.40543ZM119.755 9.77194V9.46268C119.789 8.83744 120.023 8.30632 120.452 7.8626C120.887 7.4256 121.437 7.20374 122.113 7.20374C122.777 7.20374 123.313 7.41888 123.728 7.84243C124.049 8.17186 124.244 8.5618 124.317 9.02569L119.755 9.77194ZM44.7572 12.4208H44.6634L42.8613 5.07253H39.8399L38.0713 12.4612H37.9709L36.075 5.07253H33L35.8673 14.9756C36.0549 15.6277 36.6511 16.0782 37.3277 16.0782H39.3978L41.2803 9.15342H41.4143L42.9953 14.9487C43.1762 15.6143 43.7791 16.0714 44.4624 16.0714H46.5191L49.6945 5.07253H46.6263L44.7572 12.4208ZM68.7673 5.07253L66.2953 12.9452H66.1814L63.7027 5.07253H60.4937L64.1582 15.0764C64.3793 15.6748 64.9487 16.0782 65.5851 16.0782H67.95L71.9829 5.07925H68.7673V5.07253ZM84.5105 13.3419C84.8455 13.0057 85.2541 12.8377 85.7231 12.8377C86.1853 12.8377 86.5806 13.0057 86.9156 13.3419C87.2572 13.678 87.4247 14.0747 87.4314 14.5453C87.4314 15.0227 87.2572 15.426 86.9156 15.7622C86.5806 16.0983 86.1786 16.2664 85.7231 16.2664C85.2541 16.2664 84.8455 16.0983 84.5105 15.7622C84.1689 15.426 84.0014 15.0227 84.0081 14.5453C84.0081 14.0747 84.1756 13.678 84.5105 13.3419ZM92.3151 12.9788H92.429L94.901 5.10615H98.1167L94.0837 16.1118H91.7189C91.0824 16.1118 90.513 15.7084 90.2919 15.1101L86.6274 5.10615H89.8364L92.3151 12.9788ZM102.478 5.07253H99.4365V16.0714H102.478V5.07253ZM111.971 6.92137H112.051V1.40846H115.086V16.0647H113.625C112.781 16.0647 112.091 15.3722 112.091 14.5251V14.3033H111.964C111.83 14.6125 111.629 14.9151 111.368 15.2109C111.107 15.5067 110.765 15.7555 110.356 15.9504C109.948 16.1454 109.445 16.2462 108.856 16.2462C108.018 16.2462 107.268 16.0311 106.598 15.6008C105.921 15.1706 105.392 14.5319 104.997 13.6915C104.602 12.8444 104.407 11.8157 104.407 10.5854C104.407 9.32822 104.608 8.27942 105.017 7.43904C105.426 6.60538 105.962 5.97341 106.638 5.55659C107.315 5.13976 108.052 4.93134 108.849 4.93134C109.465 4.93134 109.981 5.03219 110.39 5.2406C110.798 5.44902 111.133 5.71122 111.388 6.01375C111.642 6.31629 111.837 6.61883 111.971 6.92137ZM109.82 13.8259C110.55 13.8259 111.12 13.5234 111.522 12.9318C111.924 12.3401 112.125 11.5535 112.125 10.5653C112.125 9.58369 111.931 8.7971 111.529 8.21891C111.127 7.64073 110.557 7.35164 109.82 7.35164C109.07 7.35164 108.501 7.64745 108.105 8.24581C107.71 8.84416 107.516 9.61731 107.516 10.572C107.516 11.5334 107.71 12.3133 108.105 12.9183C108.501 13.5234 109.07 13.8259 109.82 13.8259ZM138.687 7.63401C138.252 6.78019 137.629 6.12133 136.818 5.64399C136.014 5.16665 135.056 4.93135 133.944 4.93135C132.839 4.93135 131.881 5.16665 131.07 5.64399C130.266 6.12133 129.643 6.78019 129.201 7.63401C128.766 8.48784 128.545 9.48285 128.545 10.619C128.545 11.7485 128.766 12.7368 129.201 13.5906C129.637 14.4445 130.26 15.11 131.07 15.5807C131.874 16.058 132.832 16.2933 133.944 16.2933C135.05 16.2933 136.008 16.058 136.818 15.5807C137.622 15.1033 138.245 14.4445 138.687 13.5906C139.123 12.7368 139.344 11.7485 139.344 10.619C139.344 9.48285 139.13 8.48784 138.687 7.63401ZM135.673 12.9788C135.284 13.6108 134.715 13.9268 133.964 13.9268C133.201 13.9268 132.618 13.6108 132.229 12.9788C131.841 12.3469 131.646 11.5536 131.646 10.5922C131.646 9.63076 131.841 8.83744 132.229 8.20547C132.618 7.57351 133.201 7.25752 133.964 7.25752C134.715 7.25752 135.284 7.57351 135.673 8.20547C136.061 8.83744 136.256 9.63748 136.256 10.5922C136.256 11.5468 136.061 12.3536 135.673 12.9788ZM79.9215 5.54987C80.6987 5.95997 81.315 6.57849 81.7705 7.40543C82.2194 8.21892 82.4472 9.26099 82.4673 10.4846L75.0177 11.6947C75.0713 12.367 75.2857 12.9049 75.6742 13.315C76.1231 13.7856 76.726 14.0209 77.4897 14.0209C77.9989 14.0209 78.441 13.9133 78.8095 13.6982C79.1779 13.4831 79.4392 13.1671 79.5933 12.7435L82.407 12.9318C82.1926 13.9537 81.6499 14.7672 80.779 15.379C79.9081 15.9908 78.7894 16.2933 77.4361 16.2933C76.3106 16.2933 75.3393 16.0647 74.5287 15.6008C73.718 15.1369 73.0883 14.4848 72.6529 13.6377C72.2174 12.7906 71.9963 11.7889 71.9963 10.6258C71.9963 9.4963 72.2174 8.50129 72.6529 7.64746C73.0883 6.79363 73.7046 6.12805 74.5019 5.65071C75.2991 5.17338 76.2303 4.93135 77.3088 4.93135C78.2735 4.93135 79.1444 5.13976 79.9215 5.54987ZM74.9909 9.46268V9.77194L79.5531 9.02569C79.4794 8.5618 79.2851 8.17186 78.9636 7.84243C78.5482 7.41888 78.0123 7.20374 77.349 7.20374C76.6724 7.20374 76.1231 7.4256 75.6876 7.8626C75.2589 8.30632 75.0244 8.83744 74.9909 9.46268Z" fill="inherit"></path>
						<path d="M18.4408 6.36476C16.3042 2.39787 16.4267 0.744428 11.3099 1.09825C10.6907 2.28219 9.20058 5.14679 8.56779 6.36476L6.8395 3.04427C4.58048 -1.12675 -1.68625 2.1257 0.429877 6.37837C0.429877 6.37837 5.00235 15.2511 5.34937 15.8363C5.35617 15.8431 5.43102 15.9724 5.47184 16.0268C6.39722 17.4489 7.52673 18.0069 10.752 17.7959L13.5009 12.5226C15.6714 16.4963 15.4741 18.1293 20.6386 17.7891L22.5165 14.1829L18.4408 6.36476Z" fill="#0693E0"></path>
						<path d="M26.9869 4.65029C27.0073 3.45955 26.3065 2.32323 25.2995 1.66322C25.2995 1.66322 25.2927 1.66322 25.2927 1.65641C24.4421 1.13249 23.231 0.955575 21.1829 1.09846C20.8563 1.72446 18.7402 5.78661 18.4408 6.36497L22.5165 14.1831C22.9928 12.9447 27.2659 5.9295 26.9869 4.65029Z" fill="#30AEF2"></path>
					</svg>