<?xml version="1.0" encoding="utf-8"?>
<!-- Generator: Adobe Illustrator 24.2.3, SVG Export Plug-In . SVG Version: 6.00 Build 0)  -->
<svg version="1.1" id="Layer_1" xmlns="http://www.w3.org/2000/svg"  x="0px" y="0px"
	 viewBox="0 0 163 42" style="enable-background:new 0 0 163 42;" xml:space="preserve">
<style type="text/css">
	.st0{fill:#FFFFFF;}
</style>
<g>
	<polygon class="st0" points="52.8,23.9 58.1,23.9 55.4,15.3 	"/>
	<polygon class="st0" points="107.8,23.9 113,23.9 110.4,15.3 	"/>
	<path class="st0" d="M154.2,0.1H5c-2.8,0-5,2.3-5,5v31.8c0,2.8,2.2,5,5,5h149.2c2.8,0,5-2.2,5-5V5.1C159.2,2.3,157,0.1,154.2,0.1z
		 M32.5,33.1L28.3,18l-4.2,15.1h-7.2l-5.3-24h7l2.5,13.4l3.7-13.4h7l3.7,13.4L38,9.1h7l-5.3,24H32.5z M60.8,33.1l-1.2-4h-8.4l-1.2,4
		h-7.5l9-24h8.1l9,24H60.8z M86.9,33.1L82.7,18l-4.2,15.1h-7.2L66,9.1h7l2.5,13.4l3.7-13.4h7l3.7,13.4l2.5-13.4h7l-5.3,24H86.9z
		 M115.8,33.1l-1.2-4h-8.4l-1.2,4h-7.5l9-24h8.1l9,24H115.8z M139.7,33.1l-7.4-10.9h-0.1v10.9h-7.4v-24h7.4v9.8h0.1l7.2-9.8h8
		l-8.8,11.2l9.5,12.8H139.7z"/>
</g>
</svg>
