<?xml version="1.0" ?>
<svg xmlns="http://www.w3.org/2000/svg"  viewBox="0 0 908.05 167.15" version="1.1">
	<defs>
		<clipPath id="clip1">
			<path d="M 359 37 L 547 37 L 547 167.148438 L 359 167.148438 Z M 359 37 "/>
		</clipPath>
		<clipPath id="clip2">
			<path d="M 330 0 L 575 0 L 575 167.148438 L 330 167.148438 Z M 330 0 "/>
		</clipPath>
		<clipPath id="clip3">
			<path d="M 590 33 L 704 33 L 704 167.148438 L 590 167.148438 Z M 590 33 "/>
		</clipPath>
	</defs>
	<g id="surface1">
		<g clip-path="url(#clip1)" clip-rule="nonzero">
			<path style=" stroke:none;fill-rule:nonzero;fill:rgb(55.299377%,73.699951%,30.999756%);fill-opacity:1;" d="M 546.132813 147.640625 L 546.132813 131.601563 C 545.148438 132.8125 544.105469 133.964844 543 135.089844 C 534.292969 143.796875 522.710938 148.585938 510.402344 148.585938 C 483.914063 148.585938 466.234375 131.300781 461.871094 101.167969 C 456.121094 61.597656 431.152344 37.96875 395.078125 37.96875 C 381.867188 37.96875 369.59375 41.988281 359.355469 48.828125 L 359.355469 73.488281 C 367.796875 63.082031 380.65625 56.398438 395.078125 56.398438 C 421.554688 56.398438 439.246094 73.679688 443.613281 103.808594 C 449.359375 143.390625 474.328125 167.019531 510.402344 167.019531 C 523.328125 167.019531 535.621094 163.207031 546.132813 156.195313 L 546.132813 147.640625 "/>
		</g>
		<path style=" stroke:none;fill-rule:nonzero;fill:rgb(29.798889%,34.498596%,35.299683%);fill-opacity:1;" d="M 184.789063 41.105469 L 165.300781 41.105469 L 133.109375 134.859375 L 102.6875 41.105469 L 82.324219 41.105469 L 51.792969 135.214844 L 19.492188 41.105469 L 0.00390625 41.105469 L 42.242188 164.167969 L 61.78125 164.167969 L 92.515625 69.472656 L 123.140625 163.882813 L 123.046875 164.167969 L 142.621094 164.167969 L 142.578125 164.050781 L 184.789063 41.105469 "/>
		<path style=" stroke:none;fill-rule:nonzero;fill:rgb(29.798889%,34.498596%,35.299683%);fill-opacity:1;" d="M 252.125 56.402344 C 273.148438 56.402344 289.636719 71.515625 293.34375 92.789063 L 211.503906 92.789063 C 215.152344 71.515625 231.40625 56.402344 252.125 56.402344 M 294.832031 133.527344 C 283.9375 143.621094 271.847656 148.398438 257.195313 148.457031 L 256.972656 148.457031 C 244.140625 148.457031 232.425781 143.828125 223.984375 135.40625 C 217.5 128.960938 213.21875 120.578125 211.542969 111.230469 L 312.570313 111.230469 L 312.570313 102.023438 C 312.570313 66.09375 286.011719 37.964844 252.125 37.964844 C 218.011719 37.964844 192.289063 65.507813 192.289063 102.023438 C 192.289063 119.980469 198.917969 136.476563 210.960938 148.476563 C 222.902344 160.355469 239.230469 166.882813 256.972656 166.882813 L 257.269531 166.882813 C 275.210938 166.820313 290.667969 161.199219 304.226563 149.796875 L 294.832031 133.527344 "/>
		<g clip-path="url(#clip2)" clip-rule="nonzero">
			<path style=" stroke:none;fill-rule:nonzero;fill:rgb(29.798889%,34.498596%,35.299683%);fill-opacity:1;" d="M 556.5 -0.00390625 L 556.5 57.390625 C 547.0625 47.761719 534.648438 41.058594 520.765625 38.808594 C 517.386719 38.261719 513.929688 37.964844 510.402344 37.964844 C 489.835938 37.964844 472.550781 47.160156 460.109375 64.011719 C 463.800781 70.320313 466.789063 77.355469 468.996094 85.046875 C 476.167969 70.9375 488.78125 56.402344 510.402344 56.402344 C 514.15625 56.402344 517.800781 56.90625 521.28125 57.757813 C 541.460938 62.660156 556.5 80.835938 556.5 102.5 C 556.5 102.507813 556.5 102.519531 556.5 102.527344 L 556.5 147.632813 C 568.390625 135.503906 574.933594 119.503906 574.933594 102.5 L 574.933594 -0.00390625 Z M 436.492188 119.941406 C 438.691406 127.628906 441.683594 134.660156 445.371094 140.96875 C 432.929688 157.824219 415.644531 167.019531 395.078125 167.019531 C 390.023438 167.019531 385.113281 166.425781 380.386719 165.3125 C 351.863281 158.65625 330.542969 133.023438 330.542969 102.5 L 330.542969 -0.00390625 L 348.980469 -0.00390625 L 348.980469 102.5 C 348.980469 122.769531 362.160156 140.003906 380.386719 146.144531 C 385.007813 147.710938 389.941406 148.585938 395.078125 148.585938 C 416.699219 148.585938 429.3125 134.042969 436.492188 119.941406 "/>
		</g>
		<g clip-path="url(#clip3)" clip-rule="nonzero">
			<path style=" stroke:none;fill-rule:nonzero;fill:rgb(29.798889%,34.498596%,35.299683%);fill-opacity:1;" d="M 671.457031 141.898438 C 661.167969 147.136719 649.25 148.707031 642.15625 148.707031 C 630.179688 148.707031 619.628906 145.429688 613.949219 139.46875 C 609.917969 135.214844 608.128906 129.664063 608.488281 122.523438 C 609.242188 107.582031 628.511719 100.195313 647.242188 100.632813 C 666.214844 101.046875 685.453125 109.511719 685.5625 124.898438 C 685.542969 133.03125 677.886719 138.632813 671.457031 141.898438 M 659.539063 35.496094 C 640.152344 31.558594 618.546875 35.425781 600.429688 45.628906 L 603.085938 65.773438 C 618.359375 54.859375 638.679688 50.078125 655.882813 53.566406 C 669.691406 56.363281 685.5625 62.863281 685.5625 88.453125 L 685.5625 92.8125 C 676.464844 86.695313 663.949219 82.554688 647.660156 82.1875 C 609.5 81.3125 591.054688 102.011719 590.070313 121.582031 C 589.457031 133.707031 593.089844 144.273438 600.578125 152.160156 C 613.691406 165.949219 634.03125 167.140625 642.15625 167.140625 C 651.722656 167.140625 666.632813 165.035156 679.820313 158.339844 C 681.847656 157.308594 683.765625 156.195313 685.5625 155.019531 L 685.5625 164.039063 L 703.996094 164.039063 L 703.996094 88.453125 C 703.996094 52.121094 679.820313 39.601563 659.539063 35.496094 "/>
		</g>
		<path style=" stroke:none;fill-rule:nonzero;fill:rgb(29.798889%,34.498596%,35.299683%);fill-opacity:1;" d="M 907.929688 125.492188 C 907.917969 119.703125 907.910156 113.414063 907.902344 106.757813 C 907.832031 100.054688 908.050781 93.375 907.472656 85.167969 C 906.75 77.101563 905.050781 68.386719 900.449219 59.984375 C 898.097656 55.835938 895.039063 51.828125 891.203125 48.597656 C 887.410156 45.308594 882.960938 42.855469 878.453125 41.210938 C 873.902344 39.5625 869.292969 38.6875 864.832031 38.320313 C 863.710938 38.222656 862.609375 38.164063 861.503906 38.128906 L 859.855469 38.085938 L 858.207031 38.085938 L 858.03125 38.097656 C 857.015625 38.175781 856.300781 38.175781 854.921875 38.332031 L 853.0625 38.535156 L 851.375 38.8125 C 849.101563 39.15625 846.886719 39.773438 844.71875 40.519531 C 842.574219 41.238281 840.5 42.164063 838.523438 43.214844 C 834.589844 45.378906 831.015625 47.996094 828.011719 50.996094 C 824.953125 53.953125 822.390625 57.21875 820.355469 60.636719 C 820.109375 61.0625 819.867188 61.488281 819.609375 61.925781 C 819.292969 61.277344 818.996094 60.625 818.636719 59.984375 C 816.292969 55.835938 813.234375 51.828125 809.402344 48.597656 C 805.605469 45.308594 801.15625 42.855469 796.648438 41.210938 C 792.097656 39.5625 787.488281 38.6875 783.03125 38.320313 C 781.90625 38.222656 780.804688 38.164063 779.703125 38.128906 L 778.050781 38.085938 L 776.402344 38.085938 L 776.226563 38.097656 C 775.195313 38.175781 774.488281 38.175781 773.117188 38.332031 L 771.257813 38.535156 L 769.570313 38.8125 C 767.296875 39.15625 765.082031 39.773438 762.914063 40.519531 C 760.769531 41.238281 758.683594 42.164063 756.707031 43.214844 C 752.785156 45.378906 749.210938 47.996094 746.199219 50.996094 C 745.394531 51.789063 744.601563 52.597656 743.867188 53.433594 L 743.867188 39.757813 L 725.433594 39.757813 L 725.433594 164.179688 L 743.867188 164.179688 L 743.867188 91.148438 C 744.035156 86.386719 744.917969 81.3125 747.035156 76.527344 C 749.152344 71.628906 752.417969 67.023438 756.738281 63.574219 C 761.007813 60.078125 766.3125 57.769531 772.09375 57.078125 L 773.175781 56.953125 L 774.121094 56.894531 L 774.585938 56.855469 L 775.269531 56.839844 L 776.703125 56.820313 L 778.90625 56.863281 C 779.703125 56.90625 780.507813 56.945313 781.28125 57.015625 C 784.429688 57.289063 787.371094 57.914063 790.011719 58.886719 C 795.324219 60.839844 799.210938 64.238281 801.910156 69.117188 C 804.59375 74.015625 805.984375 80.277344 806.480469 86.5625 C 806.878906 92.804688 806.679688 100.175781 806.769531 106.757813 C 806.796875 113.414063 806.816406 119.703125 806.839844 125.492188 C 806.855469 137.105469 807.066406 146.777344 807.117188 153.53125 C 807.207031 160.304688 807.253906 164.179688 807.253906 164.179688 L 825.6875 164.179688 C 825.6875 164.179688 825.757813 160.304688 825.90625 153.53125 C 825.929688 146.777344 826.207031 137.105469 826.128906 125.492188 C 826.117188 119.703125 826.105469 113.414063 826.085938 106.757813 C 826.027344 100.988281 826.1875 95.21875 825.859375 88.484375 C 826.226563 84.515625 827.121094 80.429688 828.835938 76.527344 C 830.953125 71.628906 834.222656 67.023438 838.542969 63.574219 C 842.8125 60.078125 848.125 57.769531 853.898438 57.078125 L 854.992188 56.953125 L 855.925781 56.894531 L 856.402344 56.855469 L 857.074219 56.839844 L 858.507813 56.820313 L 860.710938 56.863281 C 861.527344 56.90625 862.3125 56.945313 863.09375 57.015625 C 866.234375 57.289063 869.195313 57.914063 871.835938 58.886719 C 877.128906 60.839844 881.011719 64.238281 883.722656 69.117188 C 886.40625 74.015625 887.785156 80.277344 888.285156 86.5625 C 888.679688 92.804688 888.484375 100.175781 888.570313 106.757813 C 888.601563 113.414063 888.621094 119.703125 888.660156 125.492188 C 888.660156 137.105469 888.878906 146.777344 888.929688 153.53125 C 889.007813 160.304688 889.058594 164.179688 889.058594 164.179688 L 907.492188 164.179688 C 907.492188 164.179688 907.574219 160.304688 907.710938 153.53125 C 907.730469 146.777344 908.007813 137.105469 907.929688 125.492188 "/>
	</g>
</svg>
