<svg viewBox="0 0 406 100" fill="none" xmlns="http://www.w3.org/2000/svg">
<circle cx="88.7556" cy="78.318" r="9.21993" fill="#0B98FF"/>
<path d="M0 19.3504L21.3781 14.9937L33.6882 25.3635L15.6536 29.8368L39.818 99.9995L27.4065 92.7552L0 19.3504Z" fill="#141626"/>
<path d="M47.3656 9.524L61.0941 6.58578L70.922 16.059L58.7132 19.0985L46.2511 67.2246L38.8042 44.1747L47.3656 9.524Z" fill="#141626"/>
<path d="M81.5614 2.27965L92.7063 0L101.622 8.66268L90.6293 11.3476L80.6495 55.5222L74.8237 32.1684L81.5614 2.27965Z" fill="#141626"/>
<path d="M59.9795 61.1452L64.0322 75.8363L74.468 83.8404L63.9309 44.8837L59.9795 61.1452Z" fill="#141626"/>
<path d="M158.466 42H155.616C154.416 42 153.616 42.6 153.216 43.9L148.766 58.7L143.616 43.55C143.166 42.2 142.416 41.75 141.316 41.75H141.066C139.966 41.75 139.216 42.15 138.766 43.55L133.616 59L129.116 43.9C128.766 42.6 127.966 42 126.716 42H123.916C122.766 42 122.066 42.75 122.516 43.9L130.866 65.65C131.416 67 132.116 67.5 133.216 67.5H133.516C134.616 67.5 135.366 67 135.866 65.65L141.166 50.95L146.416 65.65C146.916 67 147.666 67.5 148.766 67.5H149.066C150.166 67.5 150.866 67 151.416 65.65L159.866 43.9C160.316 42.75 159.616 42 158.466 42ZM168.443 56.25H185.743C187.243 56.25 187.793 55.6 187.793 54.2C187.793 50.7 186.493 47.4 184.143 45.1C181.993 42.95 178.793 41.6 174.993 41.6C167.443 41.6 161.893 47.2 161.893 54.75C161.893 62.75 167.993 67.9 175.493 67.9C179.043 67.9 183.493 66.7 186.043 64.1C186.593 63.5 186.993 62.75 186.043 61.8L184.843 60.6C184.043 59.75 183.343 59.9 182.443 60.6C180.243 62.3 178.043 62.85 176.093 62.85C172.243 62.85 168.843 60.5 168.443 56.25ZM174.893 46.5C176.793 46.5 178.393 47.15 179.493 48.35C180.443 49.3 181.043 50.6 181.293 52.15H168.493C168.993 48.7 171.443 46.5 174.893 46.5ZM206.841 41.6C203.991 41.6 201.441 42.55 199.391 44.05V33.45C199.391 32.15 198.741 31.3 197.391 31.6L194.641 32.1C193.391 32.4 192.741 32.9 192.741 34.05V65.3C192.741 66.5 193.441 67.25 194.641 67.25H196.391C197.591 67.25 198.241 66.5 198.241 65.3V64.05C200.291 66.35 203.191 67.9 206.841 67.9C214.191 67.9 219.391 62.1 219.391 54.75C219.391 47.35 214.191 41.6 206.841 41.6ZM205.841 62.1C202.041 62.1 199.041 59.45 198.991 54.75C198.891 50 202.091 47.35 205.841 47.35C210.041 47.35 212.791 50.65 212.791 54.75C212.791 58.85 210.041 62.1 205.841 62.1ZM227.878 37.8C230.228 37.8 232.178 35.9 232.178 33.5C232.178 31.15 230.228 29.2 227.878 29.2C225.478 29.2 223.578 31.15 223.578 33.5C223.578 35.9 225.478 37.8 227.878 37.8ZM226.428 67.25H229.328C230.528 67.25 231.178 66.5 231.178 65.3V43.9C231.178 42.7 230.528 42 229.328 42H226.428C225.228 42 224.528 42.7 224.528 43.9V65.3C224.528 66.5 225.228 67.25 226.428 67.25ZM251.508 41.6C247.808 41.6 245.158 43.2 243.508 45.6V43.9C243.508 42.7 242.808 42 241.608 42H239.708C238.508 42 237.808 42.7 237.808 43.9V65.3C237.808 66.5 238.508 67.25 239.708 67.25H242.608C243.808 67.25 244.458 66.5 244.458 65.3V52.8C244.458 49.5 246.658 47.3 249.908 47.3C253.158 47.3 255.158 49.5 255.158 52.8V65.3C255.158 66.5 255.858 67.25 257.058 67.25H259.958C261.158 67.25 261.808 66.5 261.808 65.3V52.3C261.808 45.9 257.708 41.6 251.508 41.6ZM278.579 41.6C275.479 41.6 272.229 42.4 269.329 44.35C268.429 44.9 268.029 45.8 268.779 47.1L269.229 47.9C269.879 49 270.729 49.2 271.729 48.6C273.479 47.4 275.729 46.65 278.129 46.65C281.579 46.65 283.679 48.45 283.679 51.35V52.7C281.729 51.9 279.529 51.35 277.179 51.35C270.779 51.35 266.479 54.75 266.479 59.85C266.479 64.65 270.429 67.9 276.279 67.9C279.479 67.9 282.379 66.55 284.529 64.45V65.3C284.529 66.5 285.229 67.25 286.429 67.25H288.029C289.229 67.25 289.879 66.55 289.879 65.3V52.1C289.879 44.7 284.879 41.6 278.579 41.6ZM277.729 63.35C274.779 63.35 272.829 61.85 272.829 59.6C272.829 57.2 274.929 55.6 278.079 55.6C280.379 55.6 282.579 56.45 283.829 57.05V58.9C283.829 61.35 280.979 63.35 277.729 63.35ZM311.805 42.05C310.805 41.75 309.905 41.6 308.655 41.6C305.805 41.6 303.555 43.05 301.955 45.45V43.9C301.955 42.7 301.255 42 300.055 42H298.155C296.955 42 296.255 42.7 296.255 43.9V65.3C296.255 66.5 296.955 67.25 298.155 67.25H301.055C302.255 67.25 302.905 66.5 302.905 65.3V53.4C302.905 49.8 304.755 47.3 308.055 47.3C308.755 47.3 309.555 47.45 310.255 47.7C311.105 47.95 311.905 47.8 312.255 46.55L312.905 44.05C313.255 42.7 312.555 42.3 311.805 42.05ZM342.768 41.6C339.068 41.6 336.418 43.2 334.768 45.6V43.9C334.768 42.7 334.068 42 332.868 42H330.968C329.768 42 329.068 42.7 329.068 43.9V65.3C329.068 66.5 329.768 67.25 330.968 67.25H333.868C335.068 67.25 335.718 66.5 335.718 65.3V52.8C335.718 49.5 337.918 47.3 341.168 47.3C344.418 47.3 346.418 49.5 346.418 52.8V65.3C346.418 66.5 347.118 67.25 348.318 67.25H351.218C352.418 67.25 353.068 66.5 353.068 65.3V52.3C353.068 45.9 348.968 41.6 342.768 41.6ZM364.439 56.25H381.739C383.239 56.25 383.789 55.6 383.789 54.2C383.789 50.7 382.489 47.4 380.139 45.1C377.989 42.95 374.789 41.6 370.989 41.6C363.439 41.6 357.889 47.2 357.889 54.75C357.889 62.75 363.989 67.9 371.489 67.9C375.039 67.9 379.489 66.7 382.039 64.1C382.589 63.5 382.989 62.75 382.039 61.8L380.839 60.6C380.039 59.75 379.339 59.9 378.439 60.6C376.239 62.3 374.039 62.85 372.089 62.85C368.239 62.85 364.839 60.5 364.439 56.25ZM370.889 46.5C372.789 46.5 374.389 47.15 375.489 48.35C376.439 49.3 377.039 50.6 377.289 52.15H364.489C364.989 48.7 367.439 46.5 370.889 46.5ZM404.948 64.15L404.048 62.05C403.598 61.2 403.048 60.7 401.898 61.4C401.198 61.8 400.448 62.15 399.598 62.15C397.648 62.15 396.298 61.1 396.298 58.3V47H401.848C403.048 47 403.798 46.3 403.798 45.1V43.85C403.798 42.65 403.048 42 401.848 42H396.298V35.1C396.298 33.8 395.648 32.9 394.298 33.2L391.598 33.75C390.348 34 389.698 34.55 389.698 35.7V42H387.248C386.048 42 385.298 42.65 385.298 43.85V45.1C385.298 46.3 386.048 47 387.248 47H389.698V58.9C389.698 65.1 393.748 67.9 398.498 67.9C400.698 67.9 402.698 67.3 404.098 66.3C404.748 65.85 405.498 65.2 404.948 64.15Z" fill="#141626"/>
<path d="M319.422 67.85C321.822 67.85 323.722 65.9 323.722 63.55C323.722 61.15 321.822 59.25 319.422 59.25C317.072 59.25 315.122 61.15 315.122 63.55C315.122 65.9 317.072 67.85 319.422 67.85Z" fill="#0B98FF"/>
</svg>
