<?xml version="1.0" ?>
<svg xmlns="http://www.w3.org/2000/svg" viewBox="0 0 16 16">
    <g id="layer3">
        <rect id="rect1529" width="15.988523" height="15.247249" x="0.012780594" y="0.39619839" stroke-width="0.264583" fill-opacity="1" fill="#d40000" />
    </g>
    <g id="layer1">
        <g id="text113" stroke-width="0.264583">
            <path d="M 2.7535612,7.1281579 2.3577439,8.269043 H 2.2582605 L 1.94711,7.3546416 1.9132433,7.2255247 h -0.00423 q -0.010583,0.0635 -0.033867,0.1291169 L 1.555526,8.269043 H 1.4560426 L 1.0602253,7.1281579 h 0.1291169 l 0.2857504,0.8995847 0.033867,0.1354669 h 0.00423 q 0.00847,-0.0635 0.033867,-0.1354669 L 1.8560932,7.1281579 h 0.1185335 l 0.3005671,0.8995847 0.035983,0.1354669 h 0.00423 q 0.0127,-0.078317 0.03175,-0.1354669 L 2.6371444,7.1281579 Z" id="path1939" fill="#ffffff" />
            <path d="m 3.9537141,7.640392 -0.891118,0.1100668 q 0.014817,0.2222504 0.1397002,0.3407839 0.1248835,0.1164168 0.3302005,0.1164168 0.1841503,0 0.3280838,-0.071967 l 0.04445,0.08255 q -0.1397002,0.078317 -0.3746506,0.078317 -0.2603504,0 -0.4191006,-0.1481669 -0.1587503,-0.1481669 -0.1587503,-0.4529674 0,-0.2899837 0.1439336,-0.442384 0.1460502,-0.1524002 0.3725339,-0.1524002 0.2264837,0 0.3556005,0.1333502 0.1291169,0.1312335 0.1291169,0.4064006 z m -0.1164169,-0.05715 q 0,-0.2074336 -0.099483,-0.3048004 -0.099484,-0.099483 -0.2730505,-0.099483 -0.1756836,0 -0.2899837,0.1270002 -0.1143002,0.1270002 -0.1143002,0.3746505 z" id="path1941" fill="#ffffff" />
            <path d="m 5.1707996,7.6848421 q 0,0.2730504 -0.1502835,0.442384 -0.1481669,0.1693336 -0.4254507,0.1693336 -0.224367,0 -0.3619505,-0.078317 V 6.6074571 h 0.1121835 v 0.5566842 q 0.1270002,-0.059267 0.3090338,-0.059267 0.2328337,0 0.3746506,0.1587503 0.1418168,0.1587502 0.1418168,0.4212173 z m -0.1143001,0 q 0,-0.2159004 -0.1121835,-0.3619506 -0.1100669,-0.1460502 -0.3175005,-0.1460502 -0.1693336,0 -0.2815171,0.052917 v 0.9398014 q 0.1058335,0.048683 0.2455337,0.048683 0.230717,0 0.3471339,-0.1460502 0.1185335,-0.1481669 0.1185335,-0.3873506 z" id="path1943" fill="#ffffff" />
            <path d="M 6.4619701,8.269043 H 6.1952697 V 7.4541251 q 0,-0.1037169 -0.08255,-0.1524003 -0.080433,-0.048683 -0.205317,-0.048683 -0.1227668,0 -0.2137836,0.033867 V 8.269043 H 5.4290352 V 7.1810746 q 0.205317,-0.08255 0.4931841,-0.08255 0.5397508,0 0.5397508,0.3513672 z" id="path1945" fill="#ffffff" />
            <path d="m 7.7065712,8.2161262 q -0.1799169,0.08255 -0.4783674,0.08255 -0.2667004,0 -0.4021672,-0.091017 -0.1333502,-0.093133 -0.1333502,-0.2603504 0,-0.1100668 0.05715,-0.1883836 0.059267,-0.080433 0.1714502,-0.1270002 0.1143002,-0.046567 0.2391837,-0.06985 0.1248835,-0.023283 0.2963338,-0.0381 v -0.065617 q 0,-0.2032003 -0.2857504,-0.2032003 -0.1841503,0 -0.3365506,0.065617 L 6.7731198,7.1810746 q 0.211667,-0.08255 0.4466174,-0.08255 0.2222503,0 0.3534838,0.09525 0.1333502,0.093133 0.1333502,0.3005671 z M 7.4568042,8.1229927 V 7.6382753 q -0.2603504,0.0254 -0.3873506,0.0889 -0.1248835,0.061383 -0.1248835,0.2137836 0,0.2201337 0.3048004,0.2201337 0.1227669,0 0.2074337,-0.0381 z" id="path1947" fill="#ffffff" />
            <path d="M 9.7809066,8.269043 H 9.5163229 V 7.4520084 q 0,-0.084667 -0.0635,-0.1418169 -0.061383,-0.05715 -0.1841503,-0.05715 -0.1502836,0 -0.249767,0.086784 V 8.269043 H 8.752205 V 7.4456584 q 0,-0.086784 -0.071967,-0.1397002 -0.06985,-0.052917 -0.198967,-0.052917 -0.1333502,0 -0.2264837,0.035983 V 8.269043 H 7.9902039 V 7.1810746 q 0.211667,-0.08255 0.4931841,-0.08255 0.2772837,0 0.4148673,0.1312336 0.1651002,-0.1312336 0.4275673,-0.1312336 0.224367,0 0.3386672,0.1037168 0.1164168,0.1037169 0.1164168,0.2476504 z" id="path1949" fill="#ffffff" />
            <path d="m 11.124991,7.6827254 -0.848785,0.1037168 q 0.0381,0.3407839 0.389467,0.3407839 0.205317,0 0.349251,-0.065617 l 0.0635,0.1545169 q -0.1778,0.08255 -0.436034,0.08255 -0.287867,0 -0.455084,-0.1566335 -0.167217,-0.1566336 -0.167217,-0.4466174 0,-0.2794004 0.154517,-0.4381506 0.154517,-0.1587503 0.414867,-0.1587503 0.260351,0 0.397934,0.1502836 0.137584,0.1481669 0.137584,0.4339173 z m -0.256117,-0.097367 q 0,-0.1714503 -0.0762,-0.2540004 -0.0762,-0.084667 -0.213783,-0.084667 -0.143934,0 -0.234951,0.1079502 -0.0889,0.1058335 -0.08467,0.3090338 z" id="path1951" fill="#ffffff" />
            <path d="m 12.153693,7.9430758 q 0,0.1439336 -0.135467,0.2497671 -0.135467,0.1058334 -0.349251,0.1058334 -0.230717,0 -0.37465,-0.08255 l 0.06985,-0.1566336 q 0.105833,0.067733 0.270934,0.067733 0.1016,0 0.17145,-0.0508 0.07197,-0.052917 0.07197,-0.1270002 0,-0.074083 -0.05715,-0.1206502 -0.05503,-0.046567 -0.135467,-0.071967 -0.07832,-0.027517 -0.158751,-0.05715 -0.08043,-0.03175 -0.137583,-0.097367 -0.05503,-0.065617 -0.05503,-0.1693336 0,-0.1333502 0.120651,-0.2328337 0.12065,-0.1016002 0.313267,-0.1016002 0.198967,0 0.34925,0.08255 l -0.06985,0.1418169 q -0.103717,-0.065617 -0.226483,-0.065617 -0.09948,0 -0.160867,0.048683 -0.06138,0.046567 -0.06138,0.1143001 0,0.06985 0.05715,0.1143002 0.05715,0.04445 0.137584,0.071967 0.08255,0.027517 0.162983,0.061383 0.08255,0.03175 0.139701,0.1016002 0.05715,0.067733 0.05715,0.1735669 z" id="path1953" fill="#ffffff" />
            <path d="m 12.655342,8.0362093 q 0.04868,0.042333 0.04868,0.1037168 0,0.061383 -0.04868,0.1037168 -0.04868,0.042333 -0.116417,0.042333 -0.06773,0 -0.116417,-0.042333 -0.04657,-0.042333 -0.04657,-0.1037168 0,-0.061383 0.04657,-0.1037168 0.04868,-0.04445 0.116417,-0.04445 0.06773,0 0.116417,0.04445 z" id="path1955" fill="#ffffff" />
            <path d="m 13.789878,8.2161262 q -0.10795,0.08255 -0.321734,0.08255 -0.232833,0 -0.385233,-0.1629835 -0.152401,-0.1651003 -0.152401,-0.4381507 0,-0.2751671 0.152401,-0.436034 0.154516,-0.1629836 0.38735,-0.1629836 0.201084,0 0.317501,0.08255 l -0.05927,0.1375836 q -0.08255,-0.055033 -0.194734,-0.055033 -0.15875,0 -0.243417,0.1164168 -0.08467,0.1143002 -0.08467,0.3111505 0,0.1947336 0.0889,0.3132671 0.0889,0.1185335 0.23495,0.1185335 0.105833,0 0.194733,-0.05715 z" id="path1957" fill="#ffffff" />
            <path d="m 14.960395,8.2161262 q -0.179917,0.08255 -0.478367,0.08255 -0.266701,0 -0.402168,-0.091017 -0.13335,-0.093133 -0.13335,-0.2603504 0,-0.1100668 0.05715,-0.1883836 0.05927,-0.080433 0.17145,-0.1270002 0.114301,-0.046567 0.239184,-0.06985 0.124884,-0.023283 0.296334,-0.0381 v -0.065617 q 0,-0.2032003 -0.28575,-0.2032003 -0.184151,0 -0.336551,0.065617 l -0.06138,-0.1397003 q 0.211667,-0.08255 0.446617,-0.08255 0.22225,0 0.353484,0.09525 0.13335,0.093133 0.13335,0.3005671 z M 14.710628,8.1229927 V 7.6382753 q -0.26035,0.0254 -0.387351,0.0889 -0.124883,0.061383 -0.124883,0.2137836 0,0.2201337 0.3048,0.2201337 0.122767,0 0.207434,-0.0381 z" id="path1959" fill="#ffffff" />
        </g>
    </g>
</svg>