<?xml version="1.0" ?>
<svg xmlns="http://www.w3.org/2000/svg" xmlns:zwibbler="http://zwibbler.com/xml" viewBox="0 0 113.192 109.992">
	<path zwibbler:id="9" fill="orange" stroke="#000" stroke-linecap="round" stroke-linejoin="round" stroke-width="4" d="M2.5 2.5c51.269 3.246 46.558-3.246 108.192 0 3.15 51.31-3.15 73.078 0 104.992-75.247 3.245-45.949-3.246-108.192 0C5.65 31.024-.65 67.518 2.5 2.5Z"/>
	<path zwibbler:id="10" fill="#fff" stroke="#000" stroke-linecap="round" stroke-linejoin="round" stroke-width="4" d="M20.11 16.457c14.487.576 20.31-.754 25.882-.132 1.076 8.774.056 6.592 1.363 18.503-17.738.682-17.758-.68-27.246 0 .46-11.137-.459-10.485 0-18.37Z"/>
	<path zwibbler:id="11" fill="#fff" stroke="#000" stroke-linecap="round" stroke-linejoin="round" stroke-width="4" d="M66.36 16.54c13.605.697 16.305-.697 27.88 0 .488 7.566-.49 8.05 0 19.558-11.72.697-19.748-.697-27.88 0 .49-9.083-.488-13.618 0-19.558Z"/>
	<path zwibbler:id="12" fill="none" stroke="#000" stroke-linecap="round" stroke-linejoin="round" stroke-width="4" d="M31.782 35.252c1.853 37.658-.692 34.268.817 50.633"/>
	<path zwibbler:id="13" fill="none" stroke="#000" stroke-linecap="round" stroke-linejoin="round" stroke-width="4" d="M77.93 36.483c1.737 30.476-.973 16.932.817 50.633"/>
	<path zwibbler:id="14" fill="none" stroke="#e31919" stroke-linecap="round" stroke-linejoin="round" stroke-width="4" d="M23.66 42.263c9.867 3.101 22.786 8.816 32.892 10.337 11.163 1.68 26.661-.152 38.087-.217m-14.957 7.585c4.487-2.275 14.97-5.335 14.957-7.585-.013-2.25-10.53-5.19-15.042-7.415"/>
	<path zwibbler:id="15" fill="none" stroke="#21d83b" stroke-linecap="round" stroke-linejoin="round" stroke-width="4" d="M89.303 71.784c-10.25.558-23.91 1.62-34.168 1.86-10.424.242-24.341-.191-34.774-.273m15.059-7.382c-4.518 2.214-15.041 5.132-15.059 7.382-.017 2.25 10.459 5.332 14.941 7.617"/>
</svg>