<?xml version="1.0" ?>
<svg xmlns="http://www.w3.org/2000/svg"  viewBox="0 0 48 48">
	<linearGradient id="a" gradientUnits="userSpaceOnUse" x1="11.660663" x2="10.415977" y1="56.928329" y2="32.880904">
		<stop offset="0" stop-color="#cdd0d1"/>
		<stop offset="1" stop-color="#f6f6f7"/>
	</linearGradient>
	<linearGradient id="b" gradientUnits="userSpaceOnUse" x1="14.428456" x2="5.505778" y1="47.467573" y2="39.642166">
		<stop offset="0" stop-color="#16a085"/>
		<stop offset="1" stop-color="#2dcb72"/>
	</linearGradient>
	<filter id="c" color-interpolation-filters="sRGB">
		<feColorMatrix values="0.21 0.72 0.072 0 0 0.21 0.72 0.072 0 0 0.21 0.72 0.072 0 0 0 0 0 1 0"/>
	</filter>
	<linearGradient id="d" gradientUnits="userSpaceOnUse" x1="2.585951" x2="18.434279" y1="43.868756" y2="14.411841">
		<stop offset="0" stop-color="#1d8bd7"/>
		<stop offset="1" stop-color="#00cdd7"/>
	</linearGradient>
	<g transform="matrix(.89574006 0 0 .89574006 1.801146 2.651363)">
		<rect fill="#9fe37b" height="29.050928" ry="1.200584" transform="matrix(.99985212 -.01719698 .01719698 .99985212 0 0)" width="38.60437" x="4.654494" y="5.520015"/>
		<rect fill="url(#d)" height="29.050737" ry="1.200584" transform="matrix(.9859804 -.16686118 .16686118 .9859804 0 0)" width="38.604519" x="-2.355443" y="14.151027"/>
		<circle cx="11.184063" cy="45.12323" fill="url(#a)" filter="url(#c)" r="12.348694" transform="matrix(.60668101 -.00836134 .00836134 .60668101 33.06698 6.475439)"/>
		<path d="M 14.42846,47.27129 L 5.50578,47.46757 L 9.79713,39.64216 L 14.42846,47.27129" fill="url(#b)" filter="url(#c)" transform="matrix(-.00103869 .70582011 -.70582011 -.00103869 71.429627 26.789915)"/>
		<path d="M 15.58891,32.11425 L 15.44452,31.49418 L 11.81953,32.33838 L 8.19454,33.18257 L 8.28478,33.70269 C 8.33442,33.98876 8.41158,34.27681 8.45632,34.3428 C 8.5238,34.44251 9.14581,34.31671 12.13544,33.59855 L 15.73331,32.73431 L 15.58892,32.11424 L 15.58891,32.11425 M 21.32934,24.57188 C 22.22918,23.89221 22.56265,22.98247 22.30853,21.9005 C 21.97894,20.49692 21.26565,20.09736 18.83133,19.95252 C 17.79496,19.89085 17.38131,19.73022 17.29405,19.35556 C 17.19327,18.92267 17.45653,18.65573 18.14167,18.49618 C 18.63218,18.38195 18.86927,18.39022 19.52182,18.54436 C 19.95516,18.64671 20.33867,18.70167 20.37406,18.6665 C 20.47826,18.56292 20.94138,17.31178 20.91595,17.20256 C 20.87337,17.01968 19.99461,16.72183 19.29787,16.65413 C 18.33372,16.56043 17.06736,16.85512 16.46639,17.31303 C 15.99782,17.67006 15.58669,18.23662 15.47016,18.6859 C 15.21715,19.66143 15.58294,20.79201 16.3165,21.30175 C 16.85764,21.67777 17.27042,21.77998 18.56072,21.85744 C 19.76893,21.92998 20.1808,22.02004 20.38886,22.25717 C 20.594,22.49096 20.51496,22.95857 20.2337,23.17521 C 19.71279,23.57643 18.52982,23.62467 17.62504,23.28157 C 17.36415,23.18264 17.09371,23.11496 17.02407,23.13117 C 16.86983,23.16709 16.2528,24.3849 16.29563,24.56884 C 16.36709,24.87659 17.71764,25.27058 18.77735,25.29301 C 19.54577,25.30928 20.83564,24.9448 21.32934,24.57189 L 21.32934,24.57188 M 10.3538,27.15796 C 10.39783,27.06995 10.4809,26.04893 10.53838,24.88902 C 10.63881,22.86282 10.66436,22.61718 10.7676,22.68578 C 10.81171,22.71509 12.77266,26.28294 12.79325,26.37135 C 12.79855,26.3942 12.88609,26.46465 12.98775,26.52789 C 13.22052,26.67273 14.4353,26.41515 14.53892,26.19898 C 14.6617,25.94281 15.01982,17.73801 14.91117,17.6704 C 14.85377,17.63469 14.40586,17.71194 13.91581,17.8421 L 13.02481,18.07873 L 12.97299,20.05188 C 12.94448,21.13711 12.91905,22.15652 12.91645,22.31723 C 12.91375,22.48025 12.86783,22.57989 12.81244,22.54259 C 12.75785,22.50582 12.26666,21.67461 11.72096,20.69545 C 11.17525,19.71628 10.67246,18.84906 10.60365,18.76829 C 10.50297,18.65013 10.35099,18.65113 9.8258,18.77349 C 9.41774,18.86853 9.14798,18.97847 9.10611,19.0668 C 9.06929,19.14452 9.00027,19.95733 8.95275,20.87305 C 8.81633,23.50183 8.81038,23.56529 8.7066,23.49671 C 8.65247,23.46097 8.22377,22.68401 7.75391,21.77015 C 7.28405,20.85629 6.82304,19.97934 6.72944,19.82137 L 6.55926,19.53416 L 5.61271,19.75459 C 4.82953,19.93698 4.67199,20.00005 4.69992,20.11998 C 4.75989,20.37747 8.69601,27.39881 8.84289,27.5103 C 9.03974,27.65972 10.24316,27.37909 10.35379,27.15794 L 10.3538,27.15796" fill="#fff"/>
	</g>
</svg>