<?xml version="1.0" ?>
<svg xmlns="http://www.w3.org/2000/svg" viewBox="0 0 110 33" fill="none">
	<path fill-rule="evenodd" clip-rule="evenodd" d="M108.045 11.147L108.056 11.419C108.061 11.567 108.082 11.653 108.221 11.683C108.359 11.713 108.484 11.751 108.484 11.751C108.63 11.788 108.695 11.828 108.665 12.025L108.527 12.973L108.528 12.966L107.307 20.347L107.136 21.338L107.044 21.895C106.94 22.519 106.982 22.982 107.59 23H108.576C108.673 23 108.773 22.945 108.803 22.824L108.858 22.558C108.892 22.412 108.888 22.333 108.748 22.333C108.608 22.331 108.54 22.317 108.54 22.317C108.391 22.309 108.327 22.284 108.353 22.084L108.461 21.416L108.63 20.385L109.668 14.11L109.667 14.111L109.794 13.354L109.816 13.22L109.849 13.024L109.854 13.025L109.95 12.479C110.057 11.867 110.035 11.392 109.439 11.252L108.224 11.005C108.209 11.002 108.194 11 108.18 11C108.104 11 108.044 11.043 108.045 11.147Z" fill="#F36A25"/>
	<path fill-rule="evenodd" clip-rule="evenodd" d="M101.384 15.315C101.017 15.505 100.707 15.753 100.438 16.044V16.045C100.43 15.663 100.288 15.38 99.848 15.277L98.565 15.011C98.466 14.992 98.377 15.032 98.378 15.164L98.389 15.455C98.394 15.614 98.417 15.706 98.564 15.737C98.71 15.768 98.84 15.811 98.84 15.811C98.992 15.849 99.063 15.891 99.033 16.102L98.885 17.116L98.886 17.107L98 22.598C98 22.802 98.079 22.904 98.238 22.904H99.075C99.271 22.904 99.381 22.802 99.403 22.598L99.971 19.079C100.108 18.299 100.373 17.646 100.772 17.129C101.185 16.593 101.717 16.325 102.371 16.325C102.738 16.325 103.013 16.43 103.196 16.639C103.378 16.85 103.472 17.153 103.472 17.549C103.472 17.727 103.45 17.921 103.41 18.13L102.822 21.739C102.705 22.451 102.753 22.979 103.437 23H104.529C104.637 22.999 104.751 22.937 104.784 22.799L104.847 22.495C104.885 22.329 104.879 22.238 104.723 22.237C104.565 22.236 104.487 22.219 104.487 22.219C104.321 22.212 104.247 22.182 104.276 21.954L104.939 17.816C104.98 17.562 105 17.324 105 17.103C105 16.43 104.812 15.911 104.434 15.546C104.057 15.182 103.476 15 102.692 15C102.222 15 101.787 15.105 101.384 15.315Z" fill="#F36A25"/>
	<path fill-rule="evenodd" clip-rule="evenodd" d="M95.417 21.301C95.194 21.5 95.06 21.734 95.016 22.001V22.083C95.004 22.128 95 22.156 95 22.167C95 22.411 95.078 22.612 95.238 22.768C95.396 22.922 95.589 23 95.819 23C96.082 23 96.331 22.903 96.565 22.708C96.799 22.514 96.939 22.279 96.983 22.001V21.917C96.993 21.895 97 21.874 97 21.85C97 21.617 96.92 21.417 96.761 21.251C96.603 21.084 96.404 21 96.164 21C95.891 21 95.643 21.101 95.417 21.301Z" fill="#F36A25"/>
	<path fill-rule="evenodd" clip-rule="evenodd" d="M2.62402 4.29C2.62102 4.085 2.74902 4 2.90902 4C2.93802 4 2.96902 4.003 3.00002 4.009L8.85302 5.095L9.14602 5.145L9.14002 5.149L10.237 5.352C11.924 5.697 12.36 6.863 12.562 8.368L12.743 9.709L12.803 10.16L13.17 12.895L13.735 17.089L13.883 18.197L16.897 11.803L17.482 10.561L17.41 10.06C17.301 9.376 17.572 9.285 17.962 9.199C18.351 9.114 19.51 8.941 19.984 8.854C20.459 8.768 20.904 8.877 20.947 9.544L22.019 18.042L25.338 11.42C25.527 11.101 25.772 10.941 26.073 10.941H26.159L26.216 10.969L27.942 11.617C28.187 11.749 28.309 11.965 28.309 12.266V12.322L28.281 12.407L22.868 22.579C22.794 22.693 22.686 22.794 22.544 22.89C22.4 22.984 22.265 23.03 22.133 23.03H19.756C19.338 23.03 19.161 22.786 19.161 22.551L18.233 16.092L16.111 20.318L15.249 22.032L14.961 22.607C14.801 22.914 14.578 23.03 14.254 23.03H11.493C11.15 23.03 10.972 22.862 10.927 22.551L9.92502 15.584L8.72402 7.252C8.64502 6.775 8.44502 6.674 8.04402 6.586L7.28502 6.399C4.69902 8.996 3.09802 12.565 3.09802 16.511C3.09802 18.223 3.40102 19.866 3.95202 21.389C5.95802 26.922 11.275 30.878 17.52 30.878C22.669 30.878 27.183 28.189 29.735 24.145C30.108 24.281 30.509 24.382 30.936 24.448C30.705 24.915 30.45 25.368 30.17 25.806C28.776 27.844 26.931 29.55 24.782 30.79C22.35 32.193 19.529 33 16.517 33C7.39502 33 -0.000976562 25.632 -0.000976562 16.545C-0.000976562 12.522 1.45502 8.843 3.86102 5.984C3.86102 5.984 3.86002 5.984 3.85902 5.983C3.87002 5.97 3.88402 5.956 3.89702 5.942C3.98602 5.837 4.08202 5.737 4.17302 5.633L3.54902 5.479C3.54902 5.479 3.28902 5.402 2.99702 5.344C2.70402 5.286 2.65402 5.118 2.64702 4.826L2.62402 4.29ZM30.17 25.806C30.45 25.368 30.705 24.915 30.936 24.448C30.957 24.451 30.979 24.452 30.999 24.455C30.744 24.919 30.469 25.37 30.17 25.806Z" fill="#3293E6"/>
	<path fill-rule="evenodd" clip-rule="evenodd" d="M54.083 11.942C53.12 12.57 52.533 13.461 52.316 14.61C52.271 14.856 52.247 15.076 52.247 15.276C52.247 15.705 52.335 16.072 52.514 16.379C52.69 16.686 52.929 16.944 53.229 17.15C53.53 17.358 53.868 17.533 54.245 17.678C54.622 17.824 55.095 17.973 55.665 18.126V18.104C56.25 18.256 56.678 18.414 56.947 18.575C57.215 18.736 57.351 18.954 57.351 19.23C57.351 19.246 57.343 19.268 57.328 19.299V19.391C57.251 19.774 57.02 20.062 56.636 20.253C56.25 20.445 55.819 20.54 55.342 20.54C54.711 20.54 54.149 20.448 53.656 20.265C53.163 20.081 52.717 19.851 52.316 19.574L52.247 19.528C52.078 19.452 51.97 19.413 51.924 19.413C51.771 19.413 51.632 19.467 51.508 19.574C51.385 19.682 51.309 19.812 51.278 19.965L51 21.528C51 21.621 51.027 21.724 51.082 21.84C51.136 21.955 51.2 22.02 51.278 22.035C51.754 22.295 52.292 22.521 52.894 22.713C53.494 22.904 54.218 23 55.065 23C55.634 23 56.193 22.927 56.739 22.782C57.285 22.635 57.798 22.41 58.275 22.104C58.751 21.796 59.156 21.399 59.488 20.908C59.818 20.418 60.046 19.842 60.168 19.184C60.214 18.908 60.236 18.648 60.236 18.402C60.236 17.606 59.975 17 59.452 16.585C58.928 16.173 58.136 15.828 57.074 15.552C56.442 15.398 55.962 15.234 55.63 15.057C55.299 14.882 55.133 14.663 55.133 14.403C55.258 13.728 55.881 13.391 57.006 13.391C57.436 13.391 57.821 13.437 58.159 13.529C58.498 13.621 58.844 13.743 59.199 13.897C59.199 13.943 59.229 13.965 59.292 13.965C59.352 14.027 59.467 14.058 59.637 14.058C59.884 14.058 60.075 13.957 60.214 13.758L60.861 12.724C60.922 12.663 60.969 12.556 61 12.403C61 12.141 60.931 11.976 60.793 11.907C60.8 11.911 60.808 11.915 60.815 11.92L60.768 11.895C60.777 11.899 60.785 11.903 60.793 11.907C60.261 11.591 59.707 11.363 59.13 11.218C58.544 11.073 57.975 11 57.42 11C56.158 11 55.045 11.314 54.083 11.942Z" fill="#3293E6"/>
	<path fill-rule="evenodd" clip-rule="evenodd" d="M62.176 6.291L62.199 6.83C62.207 7.124 62.254 7.293 62.543 7.351C62.831 7.411 63.089 7.488 63.089 7.488C63.391 7.56 63.527 7.638 63.467 8.027L63.18 9.889L61 22.434C61 22.811 61.154 23 61.468 23H63.118C63.504 23 63.72 22.811 63.765 22.434L64.657 17.396C64.822 16.353 65.171 15.491 65.707 14.811C66.241 14.129 66.933 13.789 67.781 13.789C68.227 13.789 68.562 13.913 68.785 14.163C69.007 14.413 69.12 14.765 69.12 15.218C69.12 15.385 69.097 15.581 69.053 15.808L69.029 15.966L68.353 19.712L68.16 20.814C67.946 22.048 68.036 22.963 69.299 23H71.377C71.576 22.999 71.784 22.891 71.846 22.651L71.964 22.125C72.033 21.836 72.026 21.679 71.734 21.677C71.441 21.675 71.3 21.646 71.3 21.646C70.992 21.635 70.854 21.583 70.911 21.187L71.137 19.866L71.886 15.514C71.961 15.12 71.998 14.749 71.998 14.402C71.998 13.403 71.7 12.633 71.105 12.088C70.51 11.544 69.588 11.271 68.338 11.271C67.818 11.271 67.324 11.351 66.855 11.508C66.387 11.668 65.952 11.883 65.55 12.156L65.928 10.005H65.937L66.138 8.926C66.364 7.715 66.317 6.776 65.076 6.499L62.547 6.009C62.516 6.003 62.486 6 62.456 6C62.3 6 62.174 6.086 62.176 6.291Z" fill="#3293E6"/>
	<path fill-rule="evenodd" clip-rule="evenodd" d="M40.165 6.287C40.162 6.084 40.287 6 40.442 6C40.47 6 40.501 6.003 40.531 6.009L43.031 6.491C44.26 6.764 44.304 7.687 44.081 8.88L43.883 9.943L43.5 12.17C43.971 11.858 44.475 11.617 45.011 11.445C45.549 11.274 46.089 11.188 46.633 11.188C48.074 11.188 49.162 11.582 49.897 12.372C50.633 13.161 51 14.232 51 15.587C51 16.049 50.957 16.548 50.868 17.083C50.721 17.932 50.471 18.714 50.118 19.428C49.765 20.142 49.32 20.768 48.783 21.303C48.247 21.84 47.637 22.255 46.952 22.553C46.268 22.851 45.53 23 44.736 23C44.118 23 43.559 22.904 43.059 22.71C42.559 22.516 42.139 22.264 41.803 21.95L41.758 22.174C41.714 22.546 41.5 22.732 41.118 22.732H39.464C39.155 22.732 38.999 22.546 38.999 22.174L41.155 9.842L41.256 9.189L41.44 7.996C41.5 7.612 41.365 7.536 41.066 7.465C41.066 7.465 40.812 7.388 40.527 7.33C40.242 7.273 40.194 7.107 40.187 6.817L40.165 6.287ZM43.203 19.784C43.607 20.276 44.185 20.521 44.934 20.521C45.758 20.521 46.43 20.198 46.952 19.55C47.475 18.903 47.825 18.08 48 17.083C48.059 16.71 48.088 16.36 48.088 16.034C48.088 15.305 47.93 14.72 47.614 14.281C47.297 13.841 46.809 13.622 46.148 13.622C45.265 13.622 44.504 13.957 43.865 14.627C43.225 15.297 42.824 16.115 42.661 17.083C42.618 17.351 42.596 17.62 42.596 17.887C42.596 18.661 42.797 19.294 43.203 19.784Z" fill="#3293E6"/>
	<path fill-rule="evenodd" clip-rule="evenodd" d="M75.272 12.643C76.421 11.548 77.831 11 79.498 11C80.933 11 82.043 11.41 82.825 12.229C83.608 13.049 83.999 14.173 83.999 15.597C83.999 16.043 83.957 16.51 83.869 16.999C83.575 18.793 82.859 20.242 81.718 21.345C81.161 21.866 80.524 22.273 79.807 22.564C79.089 22.854 78.313 23 77.479 23C76.045 23 74.94 22.587 74.164 21.759C73.388 20.931 72.999 19.812 72.999 18.403C72.999 17.943 73.036 17.475 73.111 16.999C73.403 15.191 74.124 13.74 75.272 12.643ZM76.348 19.84C76.693 20.321 77.209 20.563 77.896 20.563C78.73 20.563 79.426 20.218 79.982 19.529C80.539 18.839 80.897 17.997 81.057 16.999C81.116 16.663 81.146 16.341 81.146 16.035C81.146 15.253 80.973 14.621 80.63 14.137C80.286 13.655 79.77 13.413 79.082 13.413C78.247 13.413 77.552 13.759 76.995 14.448C76.439 15.138 76.081 15.989 75.921 16.999C75.861 17.337 75.833 17.659 75.833 17.965C75.833 18.732 76.004 19.357 76.348 19.84Z" fill="#3293E6"/>
	<path fill-rule="evenodd" clip-rule="evenodd" d="M84.182 11.292C84.18 11.086 84.306 11 84.465 11C84.494 11 84.525 11.003 84.556 11.009L87.11 11.502C87.718 11.637 88.041 11.931 88.188 12.336C88.701 11.958 89.243 11.663 89.816 11.454C90.423 11.234 91.035 11.124 91.652 11.124C93.078 11.124 94.159 11.524 94.896 12.323C95.632 13.122 96 14.215 96 15.601C96 16.088 95.956 16.605 95.865 17.153C95.715 18.021 95.459 18.82 95.098 19.55C94.738 20.282 94.288 20.922 93.746 21.469C93.205 22.017 92.594 22.44 91.911 22.737C91.227 23.033 90.503 23.182 89.736 23.182C88.444 23.182 87.438 22.862 86.716 22.223L85.816 27.43C85.742 27.81 85.523 28 85.164 28H83.474C83.158 28 82.999 27.855 82.999 27.566C82.999 27.551 83.007 27.529 83.023 27.499V27.43L85.193 14.929L85.485 13.041C85.545 12.648 85.41 12.57 85.103 12.498C85.103 12.498 84.843 12.419 84.553 12.36C84.26 12.301 84.213 12.131 84.204 11.835L84.182 11.292ZM88.115 19.916C88.506 20.419 89.068 20.67 89.804 20.67C90.63 20.67 91.313 20.338 91.854 19.677C92.395 19.014 92.747 18.173 92.914 17.153C92.988 16.757 93.026 16.384 93.026 16.034C93.026 15.288 92.868 14.698 92.553 14.264C92.237 13.831 91.748 13.613 91.089 13.613C90.216 13.613 89.461 13.956 88.824 14.641C88.185 15.326 87.776 16.163 87.596 17.153C87.551 17.427 87.529 17.702 87.529 17.974C87.529 18.766 87.723 19.414 88.115 19.916Z" fill="#3293E6"/>
	<path fill-rule="evenodd" clip-rule="evenodd" d="M32.914 11.247C33.489 11.083 34.093 11 34.726 11C36.112 11 37.169 11.355 37.902 12.068C38.633 12.781 38.999 13.82 38.999 15.185C38.999 15.705 38.946 16.264 38.836 16.863L38.697 17.598C38.649 17.98 38.423 18.173 38.019 18.173H33.506H32.99H32.354H30.989C31.021 18.832 31.234 19.387 31.632 19.84C31.719 19.94 31.82 20.027 31.929 20.105C32.153 20.265 32.42 20.378 32.732 20.445C32.831 20.465 32.935 20.482 33.044 20.493C33.177 20.508 33.317 20.518 33.465 20.518C34.087 20.518 34.664 20.448 35.193 20.311C35.722 20.173 36.213 19.996 36.665 19.782C36.757 19.736 36.85 19.713 36.945 19.713C37.255 19.713 37.411 19.905 37.411 20.287L37.156 21.712C37.092 21.958 36.96 22.127 36.757 22.219C36.197 22.464 35.622 22.656 35.03 22.794C34.438 22.931 33.691 23 32.787 23C32.562 23 32.347 22.989 32.138 22.973C32.092 22.968 32.047 22.962 32.001 22.957C31.593 22.916 31.216 22.842 30.87 22.735C30.199 22.525 29.64 22.196 29.203 21.737C28.401 20.894 27.999 19.774 27.999 18.38C27.999 17.951 28.039 17.49 28.116 16.999C28.273 16.112 28.546 15.299 28.934 14.563C29.322 13.828 29.805 13.196 30.383 12.668C30.817 12.267 31.299 11.937 31.827 11.673C31.997 11.587 32.174 11.508 32.355 11.436C32.539 11.365 32.725 11.301 32.914 11.247ZM32.383 14.177C32.003 14.571 31.679 15.107 31.41 15.782H32.502H32.873H33.631H35.964V15.575C35.979 15.514 35.987 15.452 35.987 15.39C35.987 14.748 35.842 14.253 35.555 13.908C35.267 13.563 34.828 13.391 34.236 13.391C33.951 13.391 33.685 13.432 33.437 13.508C33.116 13.608 32.824 13.771 32.566 14C32.553 14.011 32.542 14.024 32.529 14.036C32.479 14.081 32.431 14.127 32.383 14.177Z" fill="#3293E6"/>
	<path fill-rule="evenodd" clip-rule="evenodd" d="M7 3.327L10.74 4C10.747 3.995 10.756 3.991 10.764 3.985C13.345 2.116 16.351 1.041 19.56 1.041C20.738 1.041 21.888 1.186 23 1.462C21.012 0.523 18.814 0 16.502 0C12.946 0 9.665 1.24 7 3.327Z" fill="#F36A25"/>
	<path fill-rule="evenodd" clip-rule="evenodd" d="M21.1829 24H19.7929H19.3849C19.1929 24 19.0759 24.006 19.0349 24.179C19.0339 24.185 19.0319 24.193 19.0309 24.199C19.0299 24.204 19.0299 24.21 19.0289 24.216C18.8789 25.219 19.3349 25.999 20.1109 25.999C20.8589 25.999 21.6469 25.272 21.9829 24.321C22.0489 24.122 21.9149 24 21.7829 24H21.1829Z" fill="#3293E6"/>
	<path fill-rule="evenodd" clip-rule="evenodd" d="M29.6188 6.5311C29.1628 5.9681 28.6698 5.4351 28.1398 4.9381C26.0448 3.1321 23.0398 2.0001 19.6988 2.0001C18.0248 2.0001 16.4348 2.2871 14.9998 2.7991C15.9468 2.6011 16.9308 2.4951 17.9388 2.4951C23.8198 2.4951 28.8528 6.0111 30.9528 11.0001C31.0208 10.9681 31.0898 10.9361 31.1578 10.9051C31.2428 10.8661 31.3278 10.8301 31.4138 10.7961C31.6058 10.7211 31.8028 10.6571 31.9998 10.5991C31.4178 9.1221 30.6078 7.7541 29.6188 6.5311Z" fill="#3293E6"/>
	<path fill-rule="evenodd" clip-rule="evenodd" d="M13.193 24H11.797H11.703C11.302 24 11.005 24.027 11 24.556C11 24.561 10.999 24.568 10.999 24.575V24.613C11.009 25.417 11.444 25.999 12.117 25.999C12.775 25.999 13.464 25.441 13.851 24.664C13.847 24.666 13.858 24.643 13.893 24.58C13.928 24.505 13.958 24.427 13.988 24.348C14.049 24.093 13.875 24 13.645 24H13.193Z" fill="#3293E6"/>
	<mask id="mask0" mask-type="alpha" maskUnits="userSpaceOnUse" x="10" y="24" width="5" height="2">
		<path fill-rule="evenodd" clip-rule="evenodd" d="M13.193 24H11.797H11.703C11.302 24 11.005 24.027 11 24.556C11 24.561 10.999 24.568 10.999 24.575V24.613C11.009 25.417 11.444 25.999 12.117 25.999C12.775 25.999 13.464 25.441 13.851 24.664C13.847 24.666 13.858 24.643 13.893 24.58C13.928 24.505 13.958 24.427 13.988 24.348C14.049 24.093 13.875 24 13.645 24H13.193Z" fill="white"/>
	</mask>
	<g mask="url(#mask0)">
</g>
</svg>