<?xml version="1.0" ?>
<svg xmlns="http://www.w3.org/2000/svg" data-name="Layer 1" viewBox="0 0 267.158 92.876">
	<defs>
		<style>
      .cls-1 {
        fill: #82a0f9;
        stroke-width: 0px;
      }
    </style>
	</defs>
	<path class="cls-1" d="M66.92,22.5c-1.331.448-2.453.95-2.781,2.56-1.361,6.678-2.643,13.378-4.241,20.001-2.293,9.502-4.424,19.074-8.922,27.88-.861,1.687-1.936,3.195-3.568,4.18-1.649.995-2.564.506-2.636-1.406-.05-1.344.038-2.701.167-4.042.929-9.645,2.325-19.231,3.931-28.781.992-5.899,1.018-5.422-4.908-3.964-2.63.647-3.784,2.078-4.499,4.696-3.002,10.994-6.547,21.815-11.851,31.966-1.329,2.544-2.675,5.099-4.93,6.974-.678.564-1.448,1.393-2.467.961-1.203-.51-.865-1.704-.866-2.676-.007-5.563,1.557-10.909,2.951-16.167,2.394-9.03,4.659-18.098,7.047-27.13,1.244-4.704,2.641-9.439,2.701-14.38.057-4.74-2.634-6.764-7.242-5.479-1.292.36-2.57.843-3.778,1.426-6.095,2.943-11.188,7.226-15.67,12.213-2.073,2.307-4.122,4.785-4.885,7.898-.744,3.035-.913,6.253,1.763,8.444,2.509,2.055,5.444,1.2,8.163.074,1.992-.825,2.6-2.043,1.92-4.395-1.486-5.142-.679-10.027,3.022-14.165,1.168-1.307,2.701-2.586,4.384-1.703,1.627.853.758,2.74.43,4.132-1.775,7.535-3.654,15.045-5.466,22.571-2.166,8.996-4.771,17.886-6.168,27.065-1.222,8.033,5.049,13.525,12.773,11.001,3.409-1.114,5.989-3.377,8.235-6.072,2.378-2.855,4.18-6.106,6.453-9.671.961,7.59,4.297,10.737,10.414,10.135,2.679-.264,4.979-1.459,7.005-3.238,3.439-3.018,5.774-6.815,7.617-10.916,3.426-7.624,5.568-15.605,7.398-23.781,1.608-7.184,2.932-14.395,4.133-21.637,1.081-6.517.72-6.713-5.629-4.577Z"/>
	<path class="cls-1" d="M248.78,36.206c7.451-2.766,14.133-6.573,17.359-14.328,2.976-7.155-.804-14.048-8.204-13.761-3.235.135-6.24.811-8.902,2.902-2.198,1.727-4.103,3.64-5.707,5.926-4.068,5.796-6.383,12.218-6.209,19.273.083,3.385-1.645,5.471-3.563,7.671-.49.562-1.177,1.11-2.001.645-.913-.515-.758-1.402-.573-2.253.322-1.482.678-2.957.949-4.449.871-4.794,2.372-9.503,2.339-14.423-.035-5.265-4.73-8.347-9.653-6.546-2.589.947-4.844,2.356-6.66,4.419-.808.918-1.33,1.052-2.423.17-2.873-2.319-6.247-2.423-9.18-.733-1.071.617-2.276,2.802-3.469.015-.151-.354-.76-.108-1.176-.018-1.98.426-3.949.882-5.798,1.737-1.036.479-1.785,1.183-2.051,2.385-2.205,9.949-4.461,19.887-6.656,29.839-1.098,4.976-.855,4.984,4.105,3.747,3.437-.858,4.744-2.947,5.388-6.089,1.504-7.339,3.141-14.651,4.734-21.972.473-2.176,2.065-3.349,4.196-3.047,2.184.31,2.563,1.87,2.456,3.724-.186,3.215-1.104,6.298-1.712,9.437-.8,4.131-1.639,8.254-2.376,12.396-.149.835-.405,1.884.839,2.352,2.789,1.049,7.578-1.391,8.225-4.294,1.722-7.717,4.015-15.316,4.676-23.253.184-2.204,2.242-3.612,4.549-3.445,2.693.195,2.104,2.242,2.04,3.799-.209,5.079-1.821,9.926-2.649,14.907-.516,3.108-.115,5.963,2.315,8.088,2.53,2.213,5.527,2.188,8.573,1.088,2.767-.999,4.969-2.797,6.965-4.895.569-.598,1.061-1.345,2.11-.684,4.344,2.735,8.839,1.785,13.042-.062,4.335-1.906,8.067-4.796,9.941-9.436.325-.806.882-1.826-.225-2.495-.959-.58-1.808-.026-2.468.639-2.181,2.195-4.885,3.57-7.617,4.874-1.518.725-3.163,1.313-4.878,1.106-1.722-.208-3.109-1.213-3.317-2.971-.214-1.804,1.577-1.579,2.666-1.983ZM254.27,16.034c.971-1.003,2.156-1.724,3.605-.907,1.427.805,1.425,2.207,1.207,3.561-1.104,6.852-5.998,10.258-12.234,13.383,1.599-6.242,3.241-11.72,7.422-16.037Z"/>
	<path class="cls-1" d="M171.398,24.751c-9.169,4.319-13.04,12.429-14.54,21.969,0,0-.021.023-.021.023-.826,1.244-.405,2.626-.436,3.958-4.331,5.316-9.206,9.869-16.178,11.451-3.115.707-4.72-.528-4.768-3.703-.053-3.494.608-6.885,1.619-10.215.599-.641.722-1.501,1.07-2.259,1.537-3.351,2.793-6.889,5.905-9.244.785-.594,1.577-1.028,2.547-.525.931.483,1.196,1.34,1.22,2.331.053,2.2-.06,4.378-.643,6.516-.169.621-.552,1.337.233,1.82.756.465,1.423.139,2.102-.303,3.2-2.085,4.811-5.143,5.203-8.824.651-6.12-3.143-9.569-9.261-8.565-7.222,1.185-11.757,5.724-14.953,11.944-.521.732-.966,1.5-1.115,2.405-.577.585-.79,1.341-.986,2.105-1.846,4.4-2.844,8.948-2.155,13.728.164,1.139-.067,2.019-.841,2.747-1.041.979-2.109,1.946-3.257,2.794-2.171,1.603-4.354,1.48-5.918-.221-1.968-2.14-2.763-6.122-1.515-7.735,3.151-4.07,6.248-8.184,8.688-12.728,1.747-3.253,3.829-6.368,4.627-10.063,4.33-8.901,6.229-18.31,5.169-28.138-.477-4.419-3.906-6.565-8.185-5.899-2.067.322-3.777,1.488-5.232,2.905-7.093,6.905-11.109,15.51-13.595,24.938-.688,2.023-.896,4.193-1.423,6.193-2.003,7.6-2.632,15.187-1.427,22.932.162,1.04-.128,1.768-.869,2.456-3.825,3.551-7.564,7.213-12.026,9.983-2.716,1.686-5.441,3.405-8.723,3.844-1.997.267-3.286-.687-3.903-2.451-.693-1.983,1.069-2.217,2.252-2.587,2.815-.88,5.364-2.32,7.856-3.79,5.021-2.962,8.835-7.01,10.264-12.891,1.545-6.357-2.59-11.611-9.096-11.501-4.069.069-7.544,1.68-10.472,4.427-7.431,6.974-10.557,15.679-9.986,25.735.347,6.119,4.497,9.817,10.586,9.837,3.551.011,6.798-1.118,9.981-2.496,5.71-2.472,10.67-6.113,15.344-10.146,1.24-1.07,1.751-1.173,2.831.317,3.423,4.72,8.772,6.454,13.3,4.33,2.722-1.277,5.58-2.378,7.932-4.358.664-.559,1.233-.977,2.203-.307,3.283,2.267,6.915,1.854,10.478.946,5.697-1.452,10.725-4.199,15.026-8.246,1.005-.946,1.815-1.243,3.022.123,1.883,2.13,4.406,3.205,7.386,3.154,4.406-.075,7.733-2.353,10.909-5.022.191-.192.383-.384.574-.576.637-.368,1.119-.876,1.419-1.55.375-.333.816-.615,1.115-1.005,4.404-5.757,6.688-12.42,6.766-19.513.111-10.145-7.087-15.294-16.102-11.047ZM85.128,48.701c.995-1.13,2.216-2.47,3.873-1.727,1.785.801,1.564,2.692,1.326,4.258-.606,3.992-3.034,6.92-6.089,9.291-1.68,1.304-3.427,2.661-5.882,3.339,1.208-5.749,3.015-10.894,6.771-15.161ZM123.05,37.184s0,0,0,0c.102.045.221.132.315.157-.094-.025-.213-.112-.315-.156ZM113.442,37.605c1.957-9.538,4.773-18.774,9.611-27.296.458-.806.971-1.582,1.483-2.356.417-.631.883-1.488,1.721-1.213.914.3.599,1.322.528,2.016-.559,5.455-1.3,10.878-3.143,16.086-.834,2.358-1.244,4.865-2.495,7.076.199.249.46.47.588.752-.128-.282-.389-.503-.589-.752-2.501,4.705-4.61,9.638-8.23,14.284-.41-3.23.502-5.894.526-8.597ZM156.48,53.294c.149.286.42.41.744.454-.324-.043-.595-.167-.744-.454ZM160.991,53.584c.04-.093.111-.197.142-.286-.032.089-.102.194-.142.286,0,0,0,0,0,0ZM161.145,53.269c.008-.031.009-.06,0-.085.01.025.008.053,0,.085ZM165.233,56.191c-.102-.044-.22-.129-.313-.153.094.024.212.109.314.153,0,0,0,0,0,0ZM165.472,53.098c-.015-1.247.034-2.495.053-3.742,1.568-5.137,2.671-10.44,5.574-15.093.725-1.161,1.522-2.237,2.55-3.117.833-.713,1.748-1.426,2.957-.893,1.161.512,1.431,1.576,1.513,2.715.216,2.984-.262,5.893-1.087,8.737-1.486,5.118-3.167,10.155-7.017,14.103,0,0,0,0,0,0-3.162,1.805-4.501,1.014-4.544-2.71Z"/>
</svg>