<svg xmlns="http://www.w3.org/2000/svg" id="Layer_1" viewBox="0 0 567.03 117.1"><defs><style>.cls-1{fill:#002169;}.cls-2,.cls-3{fill:#fff;}.cls-3{stroke:#002169;stroke-width:3.86px;}</style></defs><rect class="cls-2" width="567.03" height="117.1"></rect><rect class="cls-1" x="128.55" y="4.64" width="434.08" height="108.01"></rect><g><path class="cls-2" d="m218.93,88.36h-24.04l-4.26-21.22c-.64-3.94-.8-4.9-1.45-10.37-.48,3.7-.56,4.5-1.29,8.2l-4.9,23.4h-24.04l-9.41-56.76h19.78l3.94,32.16c.32,3.7.4,4.58.64,7.56.4-3.22.48-4.02,1.04-7.4l5.95-32.32h16.64l4.9,26.53c.97,5.47,1.29,7.32,2.01,12.86.24-3.46.32-4.5.81-7.72l3.86-31.68h19.13l-9.33,56.76Z"></path><path class="cls-2" d="m265.25,76.68c-.38,1.39-1.03,6.54-6.74,9.83-4.74,2.73-12.38,3.05-16.24,3.05-2.73,0-5.39-.16-8.12-.64-2.81-.56-5.71-1.53-7.96-3.3-6.11-4.66-6.11-12.86-6.11-17.53,0-13.18,5.55-21.14,23.56-21.14,10.94,0,15.44,3.22,17.37,5.31,3.37,3.86,4.02,10.69,4.02,14.63,0,.96,0,1.29-.08,3.14h-26.37c0,2.17-.08,3.46,0,5.23.08,1.69.24,6.75,4.42,6.75,3.86,0,4.1-3.94,4.24-5.33h18.01Zm-18.47-13.4c.16-4.5-.16-8.76-3.78-8.76s-4.26,4.5-4.34,8.76h8.12Z"></path><path class="cls-2" d="m278.18,76.67c.44,2.66,1.7,3.92,4.14,3.92,2,0,3.4-1.41,3.4-3.11,0-2.59-2.22-2.96-5.99-3.77-4.59-1.04-8.43-1.85-11.17-3.11-3.99-1.85-6.43-5.69-6.43-10.35,0-8.8,7.1-13.54,20.86-13.54s20.04,4.36,20.04,12.43v.74h-16.12c-.07-2.74-1.18-4.07-3.25-4.07-2.37,0-3.85,1.26-3.85,2.96,0,3.33,3.62,3.55,9.69,4.59,9.91,1.7,14.72,4.36,14.72,12.06,0,9.25-7.32,14.35-21.3,14.35s-21.67-4.66-21.75-13.09h17.01Z"></path><g><polygon class="cls-2" points="333.9 59.89 290.73 59.89 282.94 46.71 333.9 46.71 333.9 59.89"></polygon><path class="cls-2" d="m326.28,57.22v13.61c0,5.99.81,7.92,6.51,7.92h1.04v9.54h-16.49c-8.73,0-10.21-2.37-10.21-11.09v-37.95h19.16v17.97Z"></path></g><path class="cls-2" d="m372.2,31.6c10.45-.08,14.63,0,18.09,1.69,6.75,3.37,6.75,10.13,6.75,12.06,0,1.77-.16,4.42-1.93,7.16-1.85,2.81-4.34,4.1-6.19,4.74-.64.24-1.29.48-2.01.64.96.08,1.93.16,2.81.4,1.45.24,2.89.8,4.1,1.61,5.79,3.78,5.79,10.21,5.79,12.22,0,2.57-.4,5.15-1.45,7.48-1.13,2.57-3.13,4.74-5.55,6.11-4.02,2.33-9.49,2.65-18.09,2.65h-26.93V31.6h24.6Zm-4.34,22.83h2.09c1.77,0,4.1,0,5.63-1.12.96-.72,2.17-2.41,2.17-5.63,0-1.53-.24-2.49-.48-3.22-1.29-3.3-4.18-3.37-7.72-3.37h-1.69v13.35Zm0,8.92v15.52h2.25c1.85,0,4.42-.08,6.19-1.61,1.37-1.13,2.33-3.38,2.33-6.51,0-.88,0-4.42-2.65-6.27-1.69-1.21-4.34-1.12-6.27-1.12h-1.85Z"></path><path class="cls-2" d="m440.01,78.39c0,5.95,1.83,6.49,5.3,9.97h-19.29c-2.73,0-4.58-.24-4.42-4.66-1.45,1.69-5.06,5.87-13.51,5.87-7.8,0-12.22-3.7-12.22-12.14,0-2.33.08-7.16,5.23-10.37,3.13-2.01,7.24-2.65,15.36-3.46l5.07-.48v-2.81c0-3.46-.08-5.79-3.13-5.79-.4,0-2.17,0-3.06,1.85-.4.8-.48,1.12-.64,4.34h-17.85c-.16-7.8,3.38-13.75,22.27-13.75,2.89,0,5.71.16,8.6.56,2.97.4,6.03,1.04,8.28,2.81,4.1,3.29,4.02,8.04,4.02,11.33v16.72Zm-18.49-8.84c-6.35.24-7.24,3.14-7.24,6.19,0,2.57.48,5.06,3.46,5.06,3.78,0,3.78-3.05,3.78-6.35v-4.9Z"></path><path class="cls-2" d="m486.84,88.36h-18.49v-28.38c-.08-.8-.16-3.78-3.22-3.78-3.37,0-3.46,3.14-3.46,4.91v27.25h-18.49v-40.2h18.49v4.58c2.41-1.93,6.51-5.31,13.59-5.31,3.78,0,6.83,1.05,8.6,2.73,2.73,2.65,2.89,6.35,2.98,9.17v29.02Z"></path><path class="cls-2" d="m490.12,31.29h18.49v34.51h.44l10.58-17.68h20.56l-12.42,18.94,13.02,21.3h-21.15l-10.51-20.34h-.52v20.34h-18.49V31.29Z"></path></g><rect class="cls-3" x="6.53" y="6.51" width="115.8" height="104.22"></rect><rect class="cls-1" x="12.32" y="12.31" width="104.22" height="92.64"></rect><g><path class="cls-2" d="m83.48,36.66l-11.41,51.8h17.85c5.15,0,6.47-5.13,6.47-5.13l11.38-51.7h-17.94s-5.06.11-6.36,5.03Z"></path><path class="cls-2" d="m45.64,36.63l11.3,51.83h-17.85c-5.15,0-6.46-5.13-6.46-5.13l-11.27-51.73h17.94s5.06.11,6.36,5.03Z"></path><path class="cls-2" d="m66.99,31.58s4.52-.57,5.34,5.03l10.03,51.85h-10.12c-5.15,0-6.47-5.13-6.47-5.13l-1.27-5.08-1.27,5.08s-1.31,5.13-6.47,5.13h-8.05l5.8-51.85c.65-5.53,6.36-5.03,6.36-5.03h6.12Z"></path><path class="cls-2" d="m81.45,88.46l-8.61-45.89,3.9-3.44,2.16,1.3c1.25-7-2.62-6.3-2.62-6.3h-7.58"></path></g></svg>