<svg xmlns="http://www.w3.org/2000/svg" viewBox="0 0 139 32" fill="none"><path d="M44.3912 2.53365C44.3912 1.13381 43.3641 0 42.0961 0C40.828 0 39.8009 1.13381 39.8009 2.53365C39.8009 6.08709 37.1815 8.97862 33.9626 8.97862C32.6257 8.97862 31.3691 8.49406 30.3276 7.57878C29.335 6.70784 27.8919 6.88836 27.1029 7.981C26.314 9.0768 26.4775 10.6698 27.4673 11.5408C27.6305 11.6844 27.7974 11.8222 27.9678 11.9542C30.1049 13.6092 32.1306 16.0904 30.9892 18.5406C28.6703 23.5185 23.9696 26.9327 18.5592 26.9327C10.8561 26.9327 4.59031 20.0158 4.59031 11.5123C4.59031 10.1124 3.56323 8.97862 2.29516 8.97862C1.02708 8.97862 0 10.1124 0 11.5123C0 22.8092 8.32568 32 18.5592 32C27.1535 32 34.4019 25.5158 36.5027 16.7465C36.9636 14.8223 38.3097 13.205 39.8821 12.0038C42.6035 9.92467 44.3912 6.4542 44.3912 2.53365Z" fill="#354093"/><path d="M13.9402 14.0649C13.9402 14.0649 13.9689 14.0649 13.9832 14.0649C15.7936 14.0649 16.9784 12.3167 17.1104 12.1172C17.5723 11.4078 17.4289 10.2138 16.7833 9.70388C16.1407 9.19398 15.2485 9.35234 14.7866 10.0618C14.6087 10.3246 14.2099 10.8979 13.9832 10.8979H13.9775C13.8685 10.8979 13.5873 10.73 13.2201 10.1283C12.7754 9.40301 11.8832 9.21615 11.2291 9.70388C10.5721 10.1948 10.3999 11.1797 10.8446 11.9018C11.9262 13.6659 13.1254 14.0523 13.9431 14.0649H13.9402Z" fill="#354093"/><path d="M61.9957 22.13C60.8438 22.13 59.8303 21.3706 59.5087 20.2665L56.2458 9.06353C55.7286 7.28772 57.0631 5.51318 58.9158 5.51318C59.3476 5.51318 59.7222 5.81087 59.819 6.23095L62.1233 16.2305C62.1464 16.3307 62.2358 16.4018 62.3388 16.4018C62.4408 16.4018 62.5295 16.3321 62.5537 16.2332L64.5221 8.15963C64.9008 6.60642 66.2945 5.51318 67.8959 5.51318C68.4221 5.51318 68.882 5.86746 69.0155 6.37551L71.6122 16.2614C71.6377 16.3585 71.7255 16.4261 71.826 16.4261C71.9305 16.4261 72.0207 16.3531 72.0422 16.251L73.7195 8.31211C74.0641 6.68074 75.5062 5.51318 77.1764 5.51318C77.9609 5.51318 78.5261 6.26439 78.3074 7.01641L74.4506 20.281C74.132 21.3764 73.1268 22.13 71.9841 22.13C70.834 22.13 69.8241 21.3667 69.5122 20.2617L67.3016 12.4302C67.274 12.3321 67.1843 12.2644 67.0823 12.2644C66.9818 12.2644 66.8933 12.33 66.8641 12.4259L64.4742 20.2948C64.1431 21.3847 63.1366 22.13 61.9957 22.13Z" fill="#354093"/><path d="M81.41 22.13C80.855 22.13 80.4051 21.6809 80.4051 21.1269V8.52245C80.4051 6.86048 81.7548 5.51318 83.4198 5.51318C83.9748 5.51318 84.4247 5.96228 84.4247 6.51627V10.7979C84.4247 11.5627 85.0458 12.1826 85.8119 12.1826H89.3074C90.23 12.1826 90.9778 11.4361 90.9778 10.5153V8.51637C90.9778 6.85776 92.3248 5.51318 93.9864 5.51318C94.5403 5.51318 94.9893 5.96137 94.9893 6.51425V19.1268C94.9893 20.7855 93.6423 22.13 91.9807 22.13C91.4268 22.13 90.9778 21.6818 90.9778 21.129V16.8372C90.9778 16.0724 90.3567 15.4525 89.5906 15.4525H86.0971C85.1734 15.4525 84.4247 16.1999 84.4247 17.1218V19.1208C84.4247 20.7827 83.075 22.13 81.41 22.13Z" fill="#354093"/><path fill-rule="evenodd" clip-rule="evenodd" d="M102.149 18.8099L101.446 20.9768H101.448C101.115 21.6737 100.406 22.13 99.6156 22.13C98.2265 22.13 97.2474 20.7692 97.6911 19.4553L101.117 9.30959C101.883 7.0409 104.014 5.51318 106.413 5.51318C107.212 5.51318 107.922 6.02242 108.178 6.77865L112.463 19.4698C112.904 20.7766 111.931 22.13 110.549 22.13C109.73 22.13 109.001 21.6378 108.688 20.8976L107.719 17.5453C107.595 17.1173 107.203 16.8226 106.757 16.8226H104.25C103.382 16.8226 102.612 17.3814 102.345 18.2064L102.207 18.6297L102.206 18.6297L102.149 18.8099ZM105.396 9.86461L106.964 15.1395C106.723 14.3307 105.978 13.7762 105.132 13.7762C104.296 13.7762 103.558 14.3181 103.308 15.1142L104.955 9.86131C104.985 9.76524 105.074 9.69985 105.175 9.69985C105.277 9.69985 105.367 9.76688 105.396 9.86461Z" fill="#354093"/><path d="M117.649 22.13C116.117 22.13 114.875 20.8901 114.875 19.3606V8.52245C114.875 6.86048 116.224 5.51318 117.889 5.51318C118.444 5.51318 118.894 5.96228 118.894 6.51627V16.5663C118.894 17.8377 119.927 18.8683 121.2 18.8683H124.179C125.081 18.8683 125.813 19.5985 125.813 20.4992C125.813 21.3999 125.081 22.13 124.179 22.13H117.649Z" fill="#354093"/><path d="M127.404 16.5911C127.404 19.6502 129.889 22.13 132.953 22.13H137.366C138.269 22.13 139 21.3999 139 20.4992C139 19.5985 138.269 18.8683 137.366 18.8683H132.565C131.935 18.8683 131.424 18.3585 131.424 17.7297C131.424 16.472 132.445 15.4525 133.705 15.4525H136.77C137.674 15.4525 138.407 14.7205 138.407 13.8175C138.407 12.9146 137.674 12.1826 136.77 12.1826H132.562C131.933 12.1826 131.424 11.6741 131.424 11.0467C131.424 9.79202 132.443 8.77489 133.7 8.77489H137.366C138.269 8.77489 139 8.04473 139 7.14404C139 6.24334 138.269 5.51318 137.366 5.51318H130.179C128.647 5.51318 127.404 6.75312 127.404 8.28266V16.5911Z" fill="#354093"/></svg>