<?xml version="1.0" ?>
<svg xmlns="http://www.w3.org/2000/svg" viewBox="0 0 63.968 64.211">
	<g fill="#c32127">
		<path d="M 10.069,8.476 C 13.738,6.437 18.289,5.701 22.088,5.495 A 58.814,58.814 0.0 0,1 22.175,1.197 A 32.462,32.462 0.0 0,0 10.069,8.476 M 8.968,32.732 C 8.968,32.143 9.148,31.596 9.457,31.142 C 6.805,27.623 3.778,22.567 3.399,17.463 A 32.075,32.075 0.0 0,0 0.0,31.869 C 0.0,38.491 2.0,44.645 5.424,49.77 C 5.703,47.757 6.739,41.873 9.92,34.833 A 2.807,2.807 0.0 0,1 8.968,32.732 L 8.968,32.732 M 41.912,50.374 C 41.869,50.475 41.811,50.565 41.757,50.657 C 46.446,55.163 50.465,57.394 51.407,57.887 A 32.533,32.533 0.0 0,0 60.488,46.915 C 58.139,48.255 51.417,51.402 41.912,50.374 M 40.755,51.679 A 2.833,2.833 0.0 0,1 39.297,52.091 A 2.835,2.835 0.0 0,1 36.465,49.364 C 29.724,47.593 21.947,43.638 13.549,35.88 C 13.549,35.88 13.332,35.665 12.986,35.304 C 12.626,35.468 12.23,35.564 11.81,35.564 C 11.707,35.564 11.609,35.547 11.509,35.534 C 9.421,40.123 7.698,45.347 6.531,51.329 C 12.457,59.155 21.864,64.211 32.459,64.211 A 32.394,32.394 0.0 0,0 50.183,58.961 A 57.071,57.071 0.0 0,1 40.755,51.679 L 40.755,51.679 M 48.059,4.522 C 46.577,4.853 43.909,5.568 40.595,6.918 C 40.667,7.17 40.72,7.429 40.72,7.705 C 40.72,7.902 40.7,8.093 40.661,8.279 C 52.501,12.131 59.161,18.378 62.885,24.036 C 60.686,15.762 55.271,8.791 48.059,4.522 L 48.059,4.522 M 25.778,13.902 A 56.877,56.877 0.0 0,1 35.07,8.095 A 3.01,3.01 0.0 0,1 35.043,7.825 C 30.897,6.788 27.128,6.482 23.809,6.618 C 23.854,8.976 24.024,11.214 24.257,13.385 A 2.84,2.84 0.0 0,1 25.778,13.902"/>
		<path d="M 63.666,27.908 C 59.802,20.59 52.926,16.207 52.926,16.207 C 48.398,13.1 44.121,10.919 40.123,9.42 A 2.832,2.832 0.0 0,1 35.517,9.288 A 56.107,56.107 0.0 0,0 26.725,15.05 C 26.884,15.403 26.975,15.793 26.975,16.205 C 26.975,17.449 26.165,18.495 25.045,18.874 C 27.404,31.479 32.759,40.523 38.051,46.724 A 2.807,2.807 0.0 0,1 39.297,46.422 A 2.837,2.837 0.0 0,1 42.097,48.81 C 47.441,49.528 55.414,49.434 61.635,44.403 A 32.174,32.174 0.0 0,0 63.968,32.345 C 63.968,30.838 63.867,29.355 63.666,27.908 L 63.666,27.908 M 37.874,4.868 A 2.83,2.83 0.0 0,1 40.042,5.888 A 67.283,67.283 0.0 0,1 46.575,3.695 A 32.41,32.41 0.0 0,0 31.51,0.0 C 28.883,0.0 26.332,0.319 23.885,0.906 A 84.936,84.936 0.0 0,0 23.795,5.435 C 27.225,5.378 29.7,5.705 29.7,5.705 C 31.635,6.005 33.464,6.359 35.203,6.763 A 2.838,2.838 0.0 0,1 37.874,4.868 M 22.676,13.785 A 76.165,76.165 0.0 0,1 22.115,6.728 C 12.945,7.54 7.581,11.58 7.581,11.58 C 7.581,11.58 7.301,11.732 6.915,11.926 A 31.912,31.912 0.0 0,0 4.498,15.453 C 4.647,17.235 5.508,23.493 10.34,30.319 A 2.817,2.817 0.0 0,1 12.391,29.96 A 55.962,55.962 0.0 0,1 21.753,17.748 A 2.8,2.8 0.0 0,1 21.29,16.205 C 21.29,15.173 21.849,14.28 22.676,13.785 L 22.676,13.785"/>
		<path d="M 36.953,47.659 C 29.021,38.389 25.258,27.785 23.517,18.967 A 2.747,2.747 0.0 0,1 22.978,18.789 C 19.726,22.062 16.606,26.03 13.899,30.824 C 14.362,31.328 14.653,31.994 14.653,32.732 C 14.653,33.463 14.368,34.122 13.913,34.625 C 18.617,39.52 25.655,44.285 36.216,47.529 C 36.216,47.529 36.471,47.608 36.904,47.737 C 36.921,47.711 36.936,47.684 36.953,47.659 L 36.953,47.659"/>
	</g>
</svg>