<?xml version="1.0" encoding="UTF-8" standalone="no"?>
<svg xmlns="http://www.w3.org/2000/svg"  viewBox="0 0 219 220" data-font="Weidemann Bk BT">
    <defs id="defs2989">
        <linearGradient id="linearGradient7077">
            <stop style="stop-color:#7f0000;stop-opacity:0.24705882;" offset="0" id="stop7089" />
            <stop style="stop-color:#000000;stop-opacity:0;" offset="1" id="stop7081" />
        </linearGradient>
        <linearGradient id="linearGradient7071">
            <stop style="stop-color:#ffffff;stop-opacity:1;" offset="0" id="stop7073" />
        </linearGradient>
    </defs>
    <rect ry="8.9878683" y="1.973088" x="1.9730942" height="216.05382" width="216.0538" id="rect3765" style="fill:#ffffff;stroke:#000000;stroke-width:3.94618845000000020;stroke-linejoin:round;stroke-miterlimit:4;stroke-opacity:1;stroke-dasharray:none" />
    <path transform="matrix(1.1445668,0,0.01511401,-1.2534466,-14.359077,270.03811)" d="m 188.45071,116.33803 a 81.830986,75.492958 0 0 1 -163.661955,0.0536" id="path3009-4-8-3" style="fill:#04ce04;fill-opacity:1;fill-rule:nonzero;stroke:none;stroke-width:0.85945725;marker-start:none;marker-mid:none;marker-end:none" />
    <path transform="matrix(1.1445668,0,0.01511401,-1.2534466,-14.359077,270.03811)" d="M 178.41544,152.5612 A 81.830986,75.492958 0 0 1 24.788755,116.39168 l 81.830965,-0.0536 z" id="path3009-4-8-1" style="fill:#87ff05;fill-opacity:1;fill-rule:nonzero;stroke:none;stroke-width:0.85945725;marker-start:none;marker-mid:none;marker-end:none" />
    <path transform="matrix(1.1445668,0,0.01511401,-1.2534466,-14.359077,270.03811)" d="M 149.52418,180.62255 A 81.830986,75.492958 0 0 1 24.788755,116.39168 l 81.830965,-0.0536 z" id="path3009-4-8-8" style="fill:#cfff05;fill-opacity:1;fill-rule:nonzero;stroke:none;stroke-width:0.85945725;marker-start:none;marker-mid:none;marker-end:none" />
    <path transform="matrix(1.1445668,0,0.01511401,-1.2534466,-14.359077,270.03811)" d="M 106.1268,191.82962 A 81.830986,75.492958 0 0 1 24.788755,116.39168 l 81.830965,-0.0536 z" id="path3009-4-8" style="fill:#ffff04;fill-opacity:1;fill-rule:nonzero;stroke:none;stroke-width:0.85945725;marker-start:none;marker-mid:none;marker-end:none" />
    <path transform="matrix(1.1445668,0,0.01511401,-1.2534466,-14.359077,270.03811)" d="M 66.011929,181.87992 A 81.830986,75.492958 0 0 1 24.788755,116.39168 l 81.830965,-0.0536 z" id="path3009-4" style="fill:#ff8704;fill-opacity:1;fill-rule:nonzero;stroke:none;stroke-width:0.85945725;marker-start:none;marker-mid:none;marker-end:none" />
    <path transform="matrix(1.1445668,0,0.01511401,-1.2534466,-14.359077,270.03811)" d="M 36.15172,154.71612 A 81.830986,75.492958 0 0 1 24.788755,116.39168 l 81.830965,-0.0536 z" id="path3009" style="fill:#cd0404;fill-opacity:1;fill-rule:nonzero;stroke:none;stroke-width:0.85945725;marker-start:none;marker-mid:none;marker-end:none" />
    <path transform="matrix(0.96970238,0,0.01280493,-0.97633997,-4.8584997,238.95739)" d="m 188.45071,116.33803 a 81.830986,75.492958 0 0 1 -163.661955,0.0536" id="path3009-0" style="fill:#ffffff;fill-opacity:1;fill-rule:nonzero;stroke:none;stroke-width:0.85945725;marker-start:none;marker-mid:none;marker-end:none" />
    <path id="path3777" d="m 78.957055,124.5092 3.262767,7.47905 113.092548,-51.232612 -0.95654,-2.529163 z" style="fill:#000000;fill-opacity:1;stroke:#000000;stroke-width:1px;stroke-linecap:butt;stroke-linejoin:miter;stroke-opacity:1" />
    <path transform="matrix(0.96173294,0,0,0.96173294,4.7723645,4.7748678)" style="fill:#ffffff;fill-opacity:1;stroke:#000000;stroke-width:4;stroke-linejoin:round;stroke-miterlimit:4;stroke-opacity:1" d="m 123.83436,115.39877 c 0,8.94498 -7.25134,16.19632 -16.19632,16.19632 -8.944982,0 -16.196321,-7.25134 -16.196321,-16.19632 0,-8.94498 7.251339,-16.196316 16.196321,-16.196316 8.94498,0 16.19632,7.251336 16.19632,16.196316 z" id="path3767" />
    <g transform="matrix(1.1647898,0,0,1.0637109,-0.00757702,-12.652572)" style="fill:#000000;fill-opacity:1;stroke:none" id="flowRoot3783">
        <path d="m 12.851563,154.37992 6.640624,0 c 0.234369,3e-5 0.413405,0.0456 0.53711,0.13672 0.123691,0.0912 0.18554,0.22138 0.185547,0.39063 -7e-6,0.19534 -0.06511,0.35484 -0.195313,0.47851 -0.130215,0.12373 -0.358079,0.23115 -0.683594,0.32227 l -1.289062,0.3125 c -0.156255,0.0391 -0.273442,0.10093 -0.351563,0.18554 -0.07813,0.0847 -0.117192,0.1986 -0.117187,0.3418 -5e-6,0.0391 0.0065,0.0944 0.01953,0.16602 0.01302,0.0716 0.04557,0.19208 0.09766,0.36133 l 5.078125,19.51171 5.273438,-19.53125 c 0.03905,-0.13018 0.06834,-0.23435 0.08789,-0.3125 0.01952,-0.0781 0.02928,-0.13018 0.0293,-0.15625 -1.5e-5,-0.0911 -0.02606,-0.16924 -0.07813,-0.23437 -0.0521,-0.0651 -0.182306,-0.16274 -0.390625,-0.29297 l -1.09375,-0.50781 c -0.234388,-0.11716 -0.384127,-0.21807 -0.449218,-0.30274 -0.06512,-0.0846 -0.09767,-0.19854 -0.09766,-0.34179 -1.3e-5,-0.18227 0.06184,-0.31573 0.185547,-0.40039 0.123685,-0.0846 0.315742,-0.12693 0.576172,-0.12696 l 6.191406,0 c 0.260397,3e-5 0.452454,0.0423 0.576172,0.12696 0.123678,0.0847 0.185526,0.21812 0.185547,0.40039 -2.1e-5,0.13023 -0.03583,0.24416 -0.107422,0.34179 -0.07164,0.0977 -0.224629,0.1986 -0.458984,0.30274 l -1.074219,0.50781 c -0.208352,0.13023 -0.33856,0.22463 -0.390625,0.2832 -0.0521,0.0586 -0.08465,0.14 -0.09766,0.24414 0.013,0.0261 0.02602,0.0749 0.03906,0.14649 0.013,0.0716 0.04556,0.18557 0.09766,0.3418 l 5,19.51171 5.429687,-19.53125 c 0.05205,-0.2083 0.08461,-0.34177 0.09766,-0.40039 0.01299,-0.0586 0.0195,-0.0944 0.01953,-0.10742 -3e-5,-0.1432 -0.03584,-0.25388 -0.107422,-0.33203 -0.07164,-0.0781 -0.192086,-0.1432 -0.361328,-0.19531 l -1.25,-0.3125 c -0.312528,-0.0911 -0.537137,-0.19529 -0.673828,-0.3125 -0.136746,-0.11716 -0.205105,-0.2669 -0.205079,-0.44922 -2.6e-5,-0.18227 0.06182,-0.32224 0.185547,-0.41992 0.123671,-0.0976 0.302708,-0.14646 0.53711,-0.14649 l 5.839843,0 c 0.286425,3e-5 0.498014,0.0423 0.634766,0.12696 0.136685,0.0847 0.205044,0.21812 0.205078,0.40039 -3.4e-5,0.13023 -0.04235,0.24091 -0.126953,0.33203 -0.08467,0.0912 -0.211622,0.16278 -0.380859,0.21484 l -1.738282,0.64453 c -0.429718,0.1693 -0.696645,0.4232 -0.800781,0.76172 -0.01305,0.0521 -0.02607,0.0912 -0.03906,0.11719 l -7.03125,25.33203 -0.839844,0 -6.484375,-25 -6.757813,25 -0.800781,0 -7.03125,-25.33203 c -0.01302,-0.013 -0.01953,-0.026 -0.01953,-0.0391 -0.117189,-0.37758 -0.390627,-0.65753 -0.820312,-0.83985 l -1.738282,-0.64453 c -0.16927,-0.0521 -0.296223,-0.12367 -0.380859,-0.21484 -0.08464,-0.0911 -0.126952,-0.2018 -0.126953,-0.33203 1e-6,-0.18227 0.06836,-0.31573 0.205078,-0.40039 0.136719,-0.0846 0.348308,-0.12693 0.634766,-0.12696 z" id="path3313" />
        <path d="m 52.441406,162.58305 0,16.32812 c -6e-6,0.46875 0.06835,0.778 0.205078,0.92774 0.136713,0.14974 0.419915,0.30273 0.84961,0.45898 l 1.035156,0.3711 c 0.28645,0.0911 0.485017,0.18554 0.595703,0.2832 0.110668,0.0977 0.166007,0.21159 0.166016,0.3418 -9e-6,0.1302 -0.06837,0.24414 -0.205078,0.34179 -0.136728,0.0977 -0.309254,0.14649 -0.517579,0.14649 l -6.523437,0 c -0.208335,0 -0.387371,-0.0488 -0.537109,-0.14649 -0.149741,-0.0977 -0.224611,-0.21159 -0.22461,-0.34179 -10e-7,-0.13021 0.05534,-0.24414 0.166016,-0.3418 0.110676,-0.0977 0.309243,-0.19206 0.595703,-0.2832 l 1.035156,-0.3711 c 0.429684,-0.15625 0.712887,-0.30924 0.84961,-0.45898 0.136715,-0.14974 0.205074,-0.45899 0.205078,-0.92774 l 0,-13.125 c -4e-6,-0.29946 -0.0586,-0.52081 -0.175782,-0.66406 -0.117191,-0.14321 -0.299482,-0.21483 -0.546875,-0.21484 l -0.195312,0 -1.132813,0.0781 c -0.03906,2e-5 -0.08789,0.007 -0.146484,0.0195 -0.05859,0.013 -0.08789,0.0196 -0.08789,0.0195 -0.14323,2e-5 -0.266928,-0.0521 -0.371093,-0.15625 -0.104168,-0.10415 -0.156251,-0.22784 -0.15625,-0.37109 -10e-7,-0.0651 0.0293,-0.14321 0.08789,-0.23437 0.05859,-0.0911 0.126952,-0.15624 0.205078,-0.19532 l 3.964844,-2.01172 c 0.03906,-0.013 0.100906,-0.0423 0.185547,-0.0879 0.08463,-0.0455 0.139968,-0.0683 0.166016,-0.0684 0.156244,2e-5 0.279942,0.0619 0.371093,0.18555 0.09114,0.12372 0.136713,0.28973 0.136719,0.49805 z m -1.308594,-7.67578 c 0.559891,2e-5 1.031896,0.18557 1.416016,0.55664 0.384108,0.37112 0.576165,0.83661 0.576172,1.39648 -7e-6,0.5469 -0.198574,1.01565 -0.595703,1.40625 -0.397141,0.39065 -0.862636,0.58596 -1.396485,0.58594 -0.520837,2e-5 -0.986332,-0.2018 -1.396484,-0.60547 -0.410159,-0.40362 -0.615237,-0.86586 -0.615234,-1.38672 -3e-6,-0.53383 0.198564,-0.99281 0.595703,-1.37695 0.397131,-0.38409 0.869136,-0.57615 1.416015,-0.57617 z" id="path3315" />
        <path d="m 62.207031,155.02445 0,15.80079 0.957031,0 5.214844,-6.07422 c 0.104155,-0.13019 0.18228,-0.24413 0.234375,-0.3418 0.05207,-0.0976 0.07811,-0.17251 0.07813,-0.22461 -1.2e-5,-0.11717 -0.02931,-0.20832 -0.08789,-0.27344 -0.05861,-0.0651 -0.166028,-0.12368 -0.322266,-0.17578 L 67.5,163.50102 c -0.273449,-0.0911 -0.442719,-0.17902 -0.507813,-0.26368 -0.06511,-0.0846 -0.09767,-0.21157 -0.09766,-0.38085 -1e-5,-0.16926 0.06184,-0.29621 0.185547,-0.38086 0.123687,-0.0846 0.315744,-0.12694 0.576172,-0.12696 l 5.507812,0 c 0.377587,2e-5 0.65428,0.0456 0.830079,0.13672 0.175763,0.0912 0.263653,0.22788 0.263671,0.41016 -0.01304,0.26043 -0.234392,0.46226 -0.664062,0.60547 -0.104184,0.0391 -0.175798,0.0651 -0.214844,0.0781 l -1.601562,0.56641 c -0.481786,0.16929 -0.872411,0.44272 -1.171875,0.82031 -0.0521,0.0651 -0.08465,0.10418 -0.09766,0.11719 l -4.980468,6.01562 7.246093,8.39844 c 0.169255,0.19531 0.315739,0.33854 0.439454,0.42969 0.12368,0.0912 0.270165,0.16276 0.439453,0.21484 l 1.113281,0.3125 c 0.325502,0.10417 0.546856,0.21159 0.664062,0.32227 0.117169,0.11067 0.175762,0.25716 0.175782,0.43945 -2e-5,0.20833 -0.08465,0.35482 -0.253907,0.43945 -0.169289,0.0846 -0.468768,0.12696 -0.898437,0.12696 l -5.644531,0 c -0.299492,0 -0.520846,-0.0456 -0.664063,-0.13672 -0.143241,-0.0911 -0.214855,-0.23438 -0.214844,-0.42969 -1.1e-5,-0.14323 0.06184,-0.26693 0.185547,-0.37109 0.123686,-0.10417 0.367827,-0.22136 0.732422,-0.35157 l 0.566406,-0.19531 c 0.156237,-0.0391 0.273424,-0.0879 0.351563,-0.14648 0.07811,-0.0586 0.117174,-0.13998 0.117187,-0.24414 -1.3e-5,-0.0781 -0.01954,-0.15951 -0.05859,-0.24414 -0.03908,-0.0846 -0.110691,-0.19206 -0.214844,-0.32227 l -6.40625,-7.59766 -0.996094,0 0,7.16797 c -6e-6,0.46875 0.06835,0.778 0.205078,0.92774 0.136713,0.14974 0.413405,0.30273 0.830078,0.45898 l 1.054688,0.3711 c 0.273429,0.0911 0.468741,0.18554 0.585937,0.2832 0.117179,0.0977 0.175773,0.21159 0.175782,0.3418 -9e-6,0.1302 -0.07488,0.24414 -0.22461,0.34179 -0.149748,0.0977 -0.328784,0.14649 -0.537109,0.14649 l -6.523438,0 c -0.208334,0 -0.38086,-0.0488 -0.517578,-0.14649 -0.136719,-0.0977 -0.205079,-0.21159 -0.205078,-0.34179 -10e-7,-0.13021 0.05534,-0.24414 0.166016,-0.3418 0.110676,-0.0977 0.302733,-0.19206 0.576172,-0.2832 l 1.054687,-0.3711 c 0.429685,-0.15625 0.709632,-0.30924 0.839844,-0.45898 0.130205,-0.14974 0.195309,-0.45899 0.195312,-0.92774 l 0,-20.64453 c -3e-6,-0.31247 -0.06185,-0.54359 -0.185546,-0.69336 -0.123702,-0.14971 -0.309248,-0.22458 -0.556641,-0.22461 l -0.214844,0 -1.074219,0.11719 -0.234375,0 c -0.14323,2e-5 -0.266928,-0.0455 -0.371093,-0.13672 -0.104168,-0.0911 -0.156251,-0.20831 -0.15625,-0.35156 -10e-7,-0.0651 0.02604,-0.14321 0.07813,-0.23438 0.05208,-0.0911 0.104165,-0.15622 0.15625,-0.19531 l 3.984375,-2.05078 c 0.104161,-0.039 0.185541,-0.0683 0.24414,-0.0879 0.05859,-0.0195 0.107417,-0.0293 0.146485,-0.0293 0.156244,3e-5 0.279942,0.0586 0.371093,0.17578 0.09114,0.11722 0.136713,0.27347 0.136719,0.46875 z" id="path3317" />
        <path d="m 81.347656,162.58305 0,16.32812 c -6e-6,0.46875 0.06835,0.778 0.205078,0.92774 0.136713,0.14974 0.419915,0.30273 0.84961,0.45898 l 1.035156,0.3711 c 0.28645,0.0911 0.485017,0.18554 0.595703,0.2832 0.110668,0.0977 0.166007,0.21159 0.166016,0.3418 -9e-6,0.1302 -0.06837,0.24414 -0.205078,0.34179 -0.136728,0.0977 -0.309254,0.14649 -0.517579,0.14649 l -6.523437,0 c -0.208335,0 -0.387371,-0.0488 -0.537109,-0.14649 -0.149741,-0.0977 -0.224611,-0.21159 -0.22461,-0.34179 -10e-7,-0.13021 0.05534,-0.24414 0.166016,-0.3418 0.110676,-0.0977 0.309243,-0.19206 0.595703,-0.2832 l 1.035156,-0.3711 c 0.429684,-0.15625 0.712887,-0.30924 0.84961,-0.45898 0.136715,-0.14974 0.205074,-0.45899 0.205078,-0.92774 l 0,-13.125 c -4e-6,-0.29946 -0.0586,-0.52081 -0.175782,-0.66406 -0.117191,-0.14321 -0.299482,-0.21483 -0.546875,-0.21484 l -0.195312,0 -1.132813,0.0781 c -0.03906,2e-5 -0.08789,0.007 -0.146484,0.0195 -0.05859,0.013 -0.08789,0.0196 -0.08789,0.0195 -0.14323,2e-5 -0.266928,-0.0521 -0.371093,-0.15625 -0.104168,-0.10415 -0.156251,-0.22784 -0.15625,-0.37109 -10e-7,-0.0651 0.0293,-0.14321 0.08789,-0.23437 0.05859,-0.0911 0.126952,-0.15624 0.205078,-0.19532 l 3.964844,-2.01172 c 0.03906,-0.013 0.100906,-0.0423 0.185547,-0.0879 0.08463,-0.0455 0.139968,-0.0683 0.166016,-0.0684 0.156244,2e-5 0.279942,0.0619 0.371093,0.18555 0.09114,0.12372 0.136713,0.28973 0.136719,0.49805 z m -1.308594,-7.67578 c 0.559891,2e-5 1.031896,0.18557 1.416016,0.55664 0.384108,0.37112 0.576165,0.83661 0.576172,1.39648 -7e-6,0.5469 -0.198574,1.01565 -0.595703,1.40625 -0.397141,0.39065 -0.862636,0.58596 -1.396485,0.58594 -0.520837,2e-5 -0.986332,-0.2018 -1.396484,-0.60547 -0.410159,-0.40362 -0.615237,-0.86586 -0.615234,-1.38672 -3e-6,-0.53383 0.198564,-0.99281 0.595703,-1.37695 0.397131,-0.38409 0.869136,-0.57615 1.416015,-0.57617 z" id="path3319" />
        <path d="m 91.269531,162.09477 0,3.28125 c 0.794264,-1.11978 1.647128,-1.97915 2.558594,-2.57813 0.911449,-0.59894 1.822906,-0.89842 2.734375,-0.89844 0.104155,2e-5 0.260405,0.0196 0.46875,0.0586 0.208321,0.0391 0.34504,0.0586 0.410156,0.0586 l 0.3125,4.57031 0,0.58594 c -1.2e-5,0.16929 -0.05861,0.31903 -0.175781,0.44922 -0.1172,0.13022 -0.260429,0.19533 -0.429688,0.19531 -0.156261,2e-5 -0.289725,-0.0521 -0.40039,-0.15625 -0.110689,-0.10415 -0.224621,-0.31248 -0.341797,-0.625 l -1.015625,-2.73437 -0.03906,0 c -0.273447,1e-5 -0.64454,0.10744 -1.113281,0.32226 -0.468758,0.21486 -0.898446,0.49156 -1.289062,0.83008 -0.585945,0.53387 -1.012377,1.1133 -1.279297,1.73828 -0.266934,0.62502 -0.400397,1.38022 -0.400391,2.26563 l 0,9.45312 c -6e-6,0.46875 0.06835,0.778 0.205078,0.92774 0.136713,0.14974 0.419915,0.30273 0.84961,0.45898 l 1.035156,0.3711 c 0.28645,0.0911 0.485017,0.18554 0.595703,0.2832 0.110668,0.0977 0.166007,0.21159 0.166016,0.3418 -9e-6,0.1302 -0.06837,0.24414 -0.205078,0.34179 -0.136728,0.0977 -0.309254,0.14649 -0.517579,0.14649 l -6.523437,0 c -0.208335,0 -0.387371,-0.0488 -0.537109,-0.14649 -0.149741,-0.0977 -0.224611,-0.21159 -0.22461,-0.34179 -10e-7,-0.13021 0.05534,-0.24414 0.166016,-0.3418 0.110676,-0.0977 0.309243,-0.19206 0.595703,-0.2832 l 1.035156,-0.3711 c 0.429684,-0.15625 0.712887,-0.30924 0.84961,-0.45898 0.136715,-0.14974 0.205074,-0.45899 0.205078,-0.92774 l 0,-13.88672 c -4e-6,-0.31248 -0.0586,-0.5436 -0.175782,-0.69336 -0.117191,-0.14972 -0.299482,-0.22459 -0.546875,-0.2246 l -0.195312,0 -1.132813,0.11718 -0.234375,0 c -0.14323,2e-5 -0.266928,-0.0455 -0.371093,-0.13672 -0.104168,-0.0911 -0.156251,-0.20831 -0.15625,-0.35156 -10e-7,-0.0651 0.0293,-0.14321 0.08789,-0.23437 0.05859,-0.0911 0.126952,-0.15624 0.205078,-0.19532 l 3.847657,-1.85546 c 0.0651,-0.0521 0.123692,-0.0911 0.175781,-0.11719 0.05208,-0.026 0.09765,-0.039 0.136719,-0.0391 0.02604,2e-5 0.0651,0.007 0.117187,0.0195 0.05208,0.013 0.09114,0.0195 0.117188,0.0195 0.182285,0.013 0.299473,0.0749 0.351562,0.18554 0.05208,0.1107 0.07812,0.30276 0.07813,0.57618 z" id="path3321" />
        <path d="m 109.66797,171.39164 c -2.60418,0.61199 -4.4336,1.32488 -5.48828,2.13867 -1.05469,0.81381 -1.58204,1.87175 -1.58203,3.17383 -1e-5,1.01563 0.28645,1.84245 0.85937,2.48047 0.57291,0.63802 1.30859,0.95703 2.20703,0.95703 1.13281,0 2.08333,-0.43945 2.85157,-1.31836 0.76821,-0.8789 1.15233,-2.02799 1.15234,-3.44726 z m 2.20703,-2.8125 0,9.76563 c -1e-5,0.6901 0.0553,1.12956 0.16602,1.31836 0.11066,0.1888 0.40037,0.3483 0.86914,0.47851 l 0.99609,0.27344 c 0.33853,0.0911 0.57616,0.19531 0.71289,0.3125 0.1367,0.11719 0.20506,0.26693 0.20508,0.44922 -2e-5,0.23437 -0.0684,0.39388 -0.20508,0.47851 -0.13673,0.0846 -0.47853,0.12696 -1.02539,0.12696 l -3.92578,0 0,-2.59766 c -0.53387,0.97656 -1.19142,1.71875 -1.97266,2.22656 -0.78126,0.50781 -1.66016,0.76172 -2.63672,0.76172 -1.40625,0 -2.58138,-0.51107 -3.52539,-1.5332 -0.94401,-1.02214 -1.41601,-2.30794 -1.41601,-3.85742 0,-1.83593 0.75846,-3.32031 2.27539,-4.45313 1.51692,-1.1328 3.94205,-2.0052 7.27539,-2.61719 l 0,-1.77734 c -1e-5,-1.22394 -0.36785,-2.17446 -1.10352,-2.85156 -0.73568,-0.67707 -1.76758,-1.01561 -3.0957,-1.01563 -0.53386,2e-5 -0.96355,0.0977 -1.28906,0.29297 -0.32553,0.19533 -0.60548,0.53387 -0.83985,1.01563 l -0.74218,1.5625 c -0.1823,0.35157 -0.32878,0.57293 -0.43946,0.66406 -0.11068,0.0912 -0.24414,0.13673 -0.40039,0.13672 -0.18229,1e-5 -0.33529,-0.0683 -0.45898,-0.20508 -0.1237,-0.1367 -0.18555,-0.30923 -0.18555,-0.51758 0,-0.013 0.01,-0.0716 0.0293,-0.17578 0.0195,-0.10415 0.0358,-0.20832 0.0488,-0.3125 l 0.83984,-3.94531 c 0.61198,-0.22134 1.20768,-0.39061 1.78711,-0.50781 0.57942,-0.11717 1.14257,-0.17577 1.68945,-0.17579 2.14843,2e-5 3.74674,0.55015 4.79492,1.65039 1.04817,1.10028 1.57226,2.77671 1.57227,5.0293 z" id="path3323" />
        <path d="m 121.23047,159.3018 0,3.04687 4.88281,0 -0.48828,1.875 -4.39453,0 0,12.16797 c -1e-5,1.66667 0.1595,2.72136 0.47851,3.16406 0.31901,0.44271 0.89518,0.66407 1.72852,0.66407 0.57291,0 1.19791,-0.13347 1.875,-0.40039 0.67707,-0.26693 1.06119,-0.40039 1.15234,-0.40039 0.24739,0 0.42968,0.0521 0.54688,0.15625 0.11717,0.10416 0.17577,0.2539 0.17578,0.44921 -1e-5,0.4948 -0.45249,0.98633 -1.35742,1.47461 -0.90496,0.48828 -1.87827,0.73242 -2.91992,0.73243 -1.39324,-1e-5 -2.40886,-0.39714 -3.04688,-1.19141 -0.63802,-0.79427 -0.95703,-2.0638 -0.95703,-3.80859 l 0,-13.00782 -1.19141,0 c -0.46875,2e-5 -0.79427,-0.0521 -0.97656,-0.15625 -0.18229,-0.10415 -0.27344,-0.27993 -0.27344,-0.52734 0,-0.29946 0.37761,-0.72589 1.13282,-1.2793 0.7552,-0.55336 1.30208,-1.14256 1.64062,-1.76758 0.20833,-0.40362 0.38411,-0.98956 0.52735,-1.75781 0.14322,-0.7682 0.4427,-1.15232 0.89843,-1.15234 0.19531,2e-5 0.33854,0.0651 0.42969,0.19531 0.0911,0.13023 0.13671,0.33205 0.13672,0.60547 z" id="path3325" />
        <path d="m 134.31641,162.58305 0,16.32812 c -1e-5,0.46875 0.0684,0.778 0.20507,0.92774 0.13672,0.14974 0.41992,0.30273 0.84961,0.45898 l 1.03516,0.3711 c 0.28645,0.0911 0.48502,0.18554 0.5957,0.2832 0.11067,0.0977 0.16601,0.21159 0.16602,0.3418 -1e-5,0.1302 -0.0684,0.24414 -0.20508,0.34179 -0.13673,0.0977 -0.30925,0.14649 -0.51758,0.14649 l -6.52344,0 c -0.20833,0 -0.38737,-0.0488 -0.5371,-0.14649 -0.14975,-0.0977 -0.22461,-0.21159 -0.22461,-0.34179 0,-0.13021 0.0553,-0.24414 0.16601,-0.3418 0.11068,-0.0977 0.30925,-0.19206 0.5957,-0.2832 l 1.03516,-0.3711 c 0.42969,-0.15625 0.71289,-0.30924 0.84961,-0.45898 0.13672,-0.14974 0.20507,-0.45899 0.20508,-0.92774 l 0,-13.125 c -1e-5,-0.29946 -0.0586,-0.52081 -0.17578,-0.66406 -0.11719,-0.14321 -0.29949,-0.21483 -0.54688,-0.21484 l -0.19531,0 -1.13281,0.0781 c -0.0391,2e-5 -0.0879,0.007 -0.14649,0.0195 -0.0586,0.013 -0.0879,0.0196 -0.0879,0.0195 -0.14323,2e-5 -0.26693,-0.0521 -0.37109,-0.15625 -0.10417,-0.10415 -0.15625,-0.22784 -0.15625,-0.37109 0,-0.0651 0.0293,-0.14321 0.0879,-0.23437 0.0586,-0.0911 0.12695,-0.15624 0.20508,-0.19532 l 3.96484,-2.01172 c 0.0391,-0.013 0.10091,-0.0423 0.18555,-0.0879 0.0846,-0.0455 0.13997,-0.0683 0.16601,-0.0684 0.15625,2e-5 0.27995,0.0619 0.3711,0.18555 0.0911,0.12372 0.13671,0.28973 0.13672,0.49805 z m -1.3086,-7.67578 c 0.55989,2e-5 1.0319,0.18557 1.41602,0.55664 0.38411,0.37112 0.57616,0.83661 0.57617,1.39648 -1e-5,0.5469 -0.19857,1.01565 -0.5957,1.40625 -0.39714,0.39065 -0.86264,0.58596 -1.39649,0.58594 -0.52084,2e-5 -0.98633,-0.2018 -1.39648,-0.60547 -0.41016,-0.40362 -0.61524,-0.86586 -0.61524,-1.38672 0,-0.53383 0.19857,-0.99281 0.59571,-1.37695 0.39713,-0.38409 0.86913,-0.57615 1.41601,-0.57617 z" id="path3327" />
        <path d="m 144.23828,162.09477 0,3.28125 c 0.83333,-1.17186 1.70572,-2.04426 2.61719,-2.61719 0.91145,-0.5729 1.8815,-0.85936 2.91015,-0.85938 1.65364,2e-5 2.96874,0.55015 3.94532,1.65039 0.97654,1.10028 1.46482,2.60744 1.46484,4.52149 l 0,10.83984 c -2e-5,0.46875 0.0651,0.778 0.19531,0.92774 0.13019,0.14974 0.41014,0.30273 0.83985,0.45898 l 1.09375,0.3711 c 0.26039,0.0911 0.44269,0.18554 0.54687,0.2832 0.10415,0.0977 0.15623,0.21159 0.15625,0.3418 -2e-5,0.1302 -0.0684,0.24414 -0.20508,0.34179 -0.13673,0.0977 -0.30926,0.14649 -0.51757,0.14649 l -6.52344,0 c -0.19533,0 -0.3646,-0.0488 -0.50781,-0.14649 -0.14324,-0.0977 -0.21486,-0.21159 -0.21485,-0.34179 0.013,-0.14323 0.0683,-0.26042 0.16602,-0.35157 0.0976,-0.0911 0.28319,-0.18229 0.55664,-0.27343 l 1.05469,-0.3711 c 0.41665,-0.15625 0.69334,-0.30924 0.83007,-0.45898 0.13671,-0.14974 0.20507,-0.45899 0.20508,-0.92774 l 0,-10.9375 c -1e-5,-1.1979 -0.31251,-2.14191 -0.9375,-2.83203 -0.62501,-0.69009 -1.47136,-1.03514 -2.53906,-1.03515 -1.38022,1e-5 -2.58139,0.51434 -3.60352,1.54296 -1.02214,1.02866 -1.5332,2.29819 -1.5332,3.8086 l 0,9.45312 c 0,0.46875 0.0684,0.778 0.20508,0.92774 0.13671,0.14974 0.41991,0.30273 0.84961,0.45898 l 1.03515,0.3711 c 0.28645,0.0911 0.48502,0.18554 0.59571,0.2832 0.11067,0.0977 0.166,0.21159 0.16601,0.3418 -1e-5,0.1302 -0.0684,0.24414 -0.20507,0.34179 -0.13673,0.0977 -0.30926,0.14649 -0.51758,0.14649 l -6.52344,0 c -0.20833,0 -0.38737,-0.0488 -0.53711,-0.14649 -0.14974,-0.0977 -0.22461,-0.21159 -0.22461,-0.34179 0,-0.13021 0.0553,-0.24414 0.16602,-0.3418 0.11067,-0.0977 0.30924,-0.19206 0.5957,-0.2832 l 1.03516,-0.3711 c 0.42968,-0.15625 0.71288,-0.30924 0.84961,-0.45898 0.13671,-0.14974 0.20507,-0.45899 0.20507,-0.92774 l 0,-13.88672 c 0,-0.31248 -0.0586,-0.5436 -0.17578,-0.69336 -0.11719,-0.14972 -0.29948,-0.22459 -0.54687,-0.2246 l -0.19532,0 -1.13281,0.11718 -0.23437,0 c -0.14323,2e-5 -0.26693,-0.0455 -0.3711,-0.13672 -0.10416,-0.0911 -0.15625,-0.20831 -0.15625,-0.35156 0,-0.0651 0.0293,-0.14321 0.0879,-0.23437 0.0586,-0.0911 0.12696,-0.15624 0.20508,-0.19532 l 3.84766,-1.85546 c 0.0651,-0.0521 0.12369,-0.0911 0.17578,-0.11719 0.0521,-0.026 0.0976,-0.039 0.13672,-0.0391 0.026,2e-5 0.0651,0.007 0.11719,0.0195 0.0521,0.013 0.0911,0.0195 0.11718,0.0195 0.18229,0.013 0.29948,0.0749 0.35157,0.18554 0.0521,0.1107 0.0781,0.30276 0.0781,0.57618 z" id="path3329" />
        <path d="m 167.91016,180.74711 c -1.95314,0 -3.43425,0.29622 -4.44336,0.88867 -1.00912,0.59245 -1.51368,1.4681 -1.51368,2.62696 0,1.24999 0.53386,2.22981 1.60157,2.93945 1.0677,0.70963 2.55858,1.06444 4.47265,1.06445 1.79687,-1e-5 3.26171,-0.39063 4.39453,-1.17187 1.1328,-0.78126 1.69921,-1.79037 1.69922,-3.02735 -1e-5,-1.17187 -0.48504,-2.01823 -1.45507,-2.53906 -0.97007,-0.52083 -2.55535,-0.78125 -4.75586,-0.78125 z m -1.52344,-17.36328 c -1.04167,2e-5 -1.88803,0.41994 -2.53906,1.25976 -0.65105,0.83986 -0.97657,1.94989 -0.97657,3.33008 0,1.88804 0.39713,3.43426 1.19141,4.63867 0.79426,1.20444 1.80989,1.80665 3.04687,1.80665 1.10677,0 1.95637,-0.41015 2.54883,-1.23047 0.59244,-0.82031 0.88866,-1.99869 0.88867,-3.53516 -1e-5,-1.83592 -0.38738,-3.33983 -1.1621,-4.51172 -0.77475,-1.17186 -1.7741,-1.75779 -2.99805,-1.75781 z m 3.65234,-0.37109 5.3125,0 0,1.60156 -3.80859,0 c 0.44269,0.71616 0.77472,1.47788 0.99609,2.28515 0.22134,0.80731 0.33202,1.63413 0.33203,2.48047 -1e-5,1.9271 -0.5534,3.48959 -1.66015,4.6875 -1.10678,1.19793 -2.5521,1.79688 -4.33594,1.79688 -0.23438,0 -0.47201,-0.01 -0.71289,-0.0293 -0.24089,-0.0195 -0.47852,-0.0488 -0.71289,-0.0879 -0.5599,0.36459 -0.98308,0.7129 -1.26953,1.04492 -0.28647,0.33204 -0.4297,0.64779 -0.42969,0.94727 -1e-5,0.39063 0.15624,0.66732 0.46875,0.83008 0.31249,0.16276 0.82031,0.24414 1.52344,0.24414 0.39062,0 0.89192,-0.013 1.5039,-0.0391 0.61197,-0.026 1.03515,-0.0391 1.26953,-0.0391 2.47395,0 4.35871,0.41016 5.6543,1.23047 1.29556,0.82031 1.94334,2.01172 1.94336,3.57422 -2e-5,1.875 -0.76499,3.3789 -2.29492,4.51172 -1.52996,1.1328 -3.57749,1.69921 -6.14258,1.69922 -2.44792,-1e-5 -4.38151,-0.50782 -5.80078,-1.52344 -1.41927,-1.01563 -2.12891,-2.38933 -2.12891,-4.12109 0,-0.89844 0.22136,-1.6862 0.66407,-2.36329 0.4427,-0.67708 1.14583,-1.30208 2.10937,-1.875 -0.37761,-0.16926 -0.67383,-0.39387 -0.88867,-0.67382 -0.21485,-0.27995 -0.32227,-0.57617 -0.32227,-0.88868 0,-0.46874 0.23438,-0.97655 0.70313,-1.52343 0.46874,-0.54687 1.13932,-1.10677 2.01172,-1.67969 -1.09376,-0.53385 -1.94662,-1.36718 -2.5586,-2.5 -0.61198,-1.1328 -0.91797,-2.46093 -0.91797,-3.98438 0,-1.97915 0.57292,-3.59373 1.71875,-4.84375 1.14583,-1.24998 2.64323,-1.87498 4.49219,-1.875 0.59895,2e-5 1.17187,0.0944 1.71875,0.28321 0.54687,0.18882 1.0677,0.46551 1.5625,0.83008 z" id="path3331" />
    </g>
</svg>