<?xml version="1.0" ?>
<svg xmlns="http://www.w3.org/2000/svg" version="1.0" viewBox="0 0 700.000000 700.000000">
	<g transform="translate(0.000000,700.000000) scale(0.100000,-0.100000)" fill="#000000" stroke="none">
		<path d="M130 6530 l-75 -5 2 -29 c3 -34 22 -100 118 -401 40 -126 99 -311 130 -410 86 -270 187 -590 280 -880 46 -143 113 -354 150 -470 36 -115 70 -221 75 -235 5 -14 34 -106 66 -205 31 -99 78 -247 104 -330 27 -82 73 -229 104 -325 30 -96 95 -301 145 -455 81 -255 113 -354 232 -720 21 -66 59 -186 85 -266 l47 -147 211 -2 c116 -1 308 -3 427 -5 118 -2 220 0 226 3 5 4 25 57 42 117 18 61 36 121 41 135 10 32 29 94 141 470 127 424 149 501 159 535 10 37 111 377 150 505 16 52 90 302 165 555 146 497 197 662 251 825 41 122 83 220 95 220 7 0 36 -87 109 -330 70 -231 92 -306 100 -335 4 -16 58 -196 118 -400 60 -203 115 -386 120 -405 6 -19 25 -82 42 -140 35 -115 89 -298 149 -502 22 -73 54 -180 71 -238 17 -58 40 -134 50 -170 11 -36 38 -126 61 -200 22 -74 49 -164 60 -200 10 -36 44 -149 75 -252 l57 -186 196 -2 c470 -5 616 -3 653 9 42 14 36 0 157 386 89 286 306 970 344 1085 8 25 36 113 62 195 26 83 53 168 60 190 15 43 63 193 145 455 29 91 67 212 85 270 221 699 536 1702 545 1735 5 17 42 138 83 270 41 132 72 245 70 252 -11 29 -84 34 -513 34 -371 0 -477 -4 -491 -18 -24 -24 -83 -224 -235 -793 -20 -74 -45 -166 -56 -204 -11 -38 -21 -76 -23 -85 -2 -9 -31 -117 -65 -241 -33 -124 -63 -233 -65 -243 -2 -9 -18 -67 -35 -127 -17 -60 -33 -118 -35 -127 -2 -10 -14 -52 -25 -93 -11 -41 -22 -82 -24 -90 -10 -36 -51 -189 -96 -350 -51 -185 -168 -611 -177 -645 -3 -11 -16 -57 -30 -102 -13 -45 -26 -90 -28 -100 -22 -93 -49 -183 -54 -183 -4 0 -11 13 -16 28 -69 203 -343 1046 -462 1422 -31 96 -59 184 -64 195 -4 11 -49 148 -99 305 -50 157 -95 296 -100 310 -5 14 -50 153 -100 310 -50 157 -98 303 -105 325 -8 22 -46 140 -85 262 -74 234 -70 227 -137 240 -16 3 -165 6 -333 7 -271 2 -355 -3 -336 -21 3 -3 -1 -22 -9 -42 -8 -20 -64 -191 -125 -381 -61 -190 -117 -363 -125 -385 -7 -22 -64 -195 -125 -385 -61 -190 -117 -363 -125 -385 -23 -69 -265 -819 -342 -1060 -223 -701 -239 -743 -264 -718 -9 9 -83 265 -103 358 -4 17 -51 189 -60 220 -2 6 -6 24 -11 40 -22 84 -94 348 -157 570 -60 218 -95 345 -189 695 -11 41 -52 192 -90 335 -39 143 -72 267 -74 275 -2 8 -31 116 -65 240 -34 124 -63 232 -65 240 -2 8 -24 90 -49 182 -25 91 -46 172 -46 180 -1 44 5 43 -457 43 -241 0 -472 -2 -513 -5z"/>
		<path d="M578 925 c-2 -2 -124 -6 -271 -8 -147 -3 -271 -7 -274 -10 -7 -8 -11 -80 -13 -249 -1 -107 2 -143 15 -167 8 -17 21 -32 28 -33 6 0 26 -2 42 -4 152 -12 5406 -22 6454 -12 l383 4 20 24 c18 23 19 38 17 223 -2 109 -6 203 -10 209 -4 6 -74 12 -175 15 -184 6 -6211 13 -6216 8z"/>
	</g>
</svg>