<?xml version="1.0" ?>
<svg xmlns="http://www.w3.org/2000/svg" viewBox="0 0 640 384" version="1.1">
	<!-- Generator: Sketch 43.2 (39069) - http://www.bohemiancoding.com/sketch -->
	<desc>Created with Sketch.</desc>
	<defs>
		<linearGradient x1="50%" y1="100%" x2="50%" y2="0%" id="linearGradient-1">
			<stop stop-color="#4EDECF" offset="0%"/>
			<stop stop-color="#0C6DA2" offset="100%"/>
		</linearGradient>
	</defs>
	<g id="Page-1" stroke="none" stroke-width="1" fill="none" fill-rule="evenodd">
		<g id="wing-logo">
			<path d="M353.094352,44.2096179 L357.084645,44.2096179 C405.086836,44.2096179 444,84.9196179 444,135.138211 C444,185.356805 405.086836,226.066805 357.084645,226.066805 L259.616754,226.066805 C252.4275,226.066805 246.599414,220.250748 246.599414,213.077211 C246.599414,205.902715 252.4275,200.087138 259.617234,200.087138 L263.254383,200.087138 L333.037184,200.086179 C340.14668,199.993122 345.881074,194.21352 345.881074,187.097545 C345.881074,179.981089 340.14668,174.201488 333.037184,174.107951 L326.09441,174.12522 L316.721426,174.107472 L312.382313,174.107472 C305.192578,174.107472 299.364492,168.291894 299.364492,161.117878 C299.364492,153.943862 305.192578,148.128285 312.382313,148.128285 L317.068805,148.128285 C317.099074,148.148911 344.49252,148.126846 344.49252,148.126846 C351.602016,148.034268 357.336891,142.254667 357.336891,135.138211 C357.336891,128.021756 351.602016,122.242154 344.49252,122.148618 L335.120016,122.170683 L254.83657,122.148618 L252.674461,122.148618 C245.484727,122.148618 239.656641,116.332561 239.656641,109.159024 C239.656641,101.984528 245.484727,96.1689512 252.674461,96.1689512 L319.151637,96.1689512 C326.261133,96.074935 331.995527,90.2953333 331.995527,83.1793577 C331.995527,76.0629024 326.261133,70.2833008 319.151637,70.1902439 L299.06468,70.1902439 C299.048824,70.1667398 294.331102,70.1892846 294.331102,70.1892846 C287.141367,70.1892846 281.313281,64.3737073 281.313281,57.1996911 C281.313281,50.0256748 287.141367,44.2100976 294.331102,44.2100976 L353.094352,44.2100976 L353.094352,44.2096179 Z M275.932512,148.127805 C283.122246,148.127805 288.950332,153.943862 288.950332,161.117398 C288.950332,168.291894 283.122246,174.107472 275.932512,174.107472 L237.400359,174.107472 C230.210625,174.107472 224.382539,168.291894 224.382539,161.117878 C224.382539,153.943862 230.210625,148.128285 237.400359,148.128285 L275.932031,148.128285 L275.932512,148.127805 Z M219.349148,44.2096179 L257.881301,44.2096179 C265.071035,44.2096179 270.899121,50.0256748 270.899121,57.1992114 C270.899121,64.3737073 265.071035,70.1892846 257.881301,70.1892846 L219.349148,70.1892846 C212.159414,70.1892846 206.331328,64.3737073 206.331328,57.1996911 C206.331328,50.0256748 212.159414,44.2100976 219.349148,44.2100976 L219.349148,44.2096179 Z M211.01782,96.1694309 L216.216012,96.1694309 C223.401902,96.1694309 229.227105,101.985008 229.227105,109.159024 C229.227105,116.333041 223.401902,122.148618 216.216012,122.148618 L211.01734,122.148618 C203.828086,122.148618 198,116.333041 198,109.159024 C198,101.985008 203.828086,96.1694309 211.01782,96.1694309 Z" id="Wing" fill="url(#linearGradient-1)" fill-rule="nonzero"/>
			<path d="M302.8416,271.845528 L292.4112,310.170346 L278.2284,276.612297 L264.0456,310.170346 L253.6152,271.845528 L248.4,271.845528 L263.0916,324.979106 L278.2284,289.196565 L293.3652,324.979106 L308.0568,271.845528 L302.8416,271.845528 Z M315.3708,292.565081 L315.3708,323.580854 L320.3316,323.580854 L320.3316,292.565081 L315.3708,292.565081 Z M317.8512,277.629207 C316.0704,277.629207 314.6076,279.154573 314.6076,280.934167 C314.6076,282.71376 316.0704,284.239126 317.8512,284.239126 C319.6956,284.239126 321.1584,282.71376 321.1584,280.934167 C321.1584,279.154573 319.6956,277.629207 317.8512,277.629207 Z M354.6756,304.51378 C354.6756,296.632724 349.6512,291.865955 343.482,291.865955 C340.302,291.865955 337.44,292.692195 334.4508,295.67937 L334.4508,292.565081 L329.6172,292.565081 L329.6172,323.580854 L334.4508,323.580854 L334.4508,304.51378 C334.4508,300.064797 337.758,296.442053 342.1464,296.442053 C345.7716,296.442053 349.842,297.776748 349.842,304.32311 L349.842,323.580854 L354.6756,323.580854 L354.6756,304.51378 Z M387.7476,319.258984 C385.458,322.500386 381.006,324.27998 377.508,324.27998 C368.6676,324.27998 361.9896,317.606504 361.9896,308.009411 C361.9896,299.365671 367.65,291.865955 377.3172,291.865955 C381.1968,291.865955 385.14,293.581992 387.7476,296.886951 L387.7476,292.565081 L392.5812,292.565081 L392.5812,318.814085 C392.5812,328.538293 390.4824,338.326057 375.2184,338.326057 C371.3388,338.326057 367.332,337.245589 363.8976,335.338882 L365.5512,331.017012 C368.4768,332.733049 371.8476,333.749959 375.2184,333.749959 C385.3308,333.749959 387.7476,328.919634 387.7476,319.258984 Z M387.9384,308.072967 C387.9384,300.891037 383.3592,296.442053 377.3172,296.442053 C371.148,296.442053 366.8868,301.208821 366.8868,308.009411 C366.8868,314.81 371.148,319.703882 377.3172,319.703882 C383.3592,319.703882 387.9384,315.191341 387.9384,308.072967 Z" id="Wing" fill="#000000"/>
		</g>
	</g>
</svg>