<?xml version="1.0" ?>
<svg xmlns="http://www.w3.org/2000/svg" viewBox="0 0 8.939 3.576">
	<path d="M 7.82,1.888 C 7.82,1.188 8.72,0.588 8.92,-0.312 C 9.02,-0.912 8.72,-1.512 8.32,-1.912 C 7.92,-2.312 7.22,-2.612 6.72,-2.512 C 5.72,-2.312 5.12,-1.412 4.52,-1.412 C 3.92,-1.412 3.12,-2.412 2.22,-2.612 C 1.62,-2.712 1.02,-2.412 0.62,-2.012 C 0.22,-1.612 -0.08,-0.912 0.02,-0.412 C 0.22,0.588 1.12,1.188 1.12,1.788 C 1.12,2.388 0.22,3.088 0.02,3.988 C -0.08,4.588 0.22,5.188 0.62,5.588 C 1.02,5.988 1.72,6.288 2.22,6.188 C 3.22,5.988 3.82,5.088 4.42,5.088 C 5.02,5.088 5.72,5.988 6.62,6.188 C 7.22,6.288 7.82,5.988 8.22,5.588 C 8.62,5.1885 8.92,4.488 8.82,3.988 C 8.72,3.188 7.82,2.588 7.82,1.888" fill="#ff565a"/>
</svg>