<?xml version="1.0" ?>
<svg xmlns="http://www.w3.org/2000/svg" viewBox="0 0 1653.333 1653.333">
	<path d="M 1430.453,336.0 L 1290.787,822.215 C 1272.44,885.892 1257.88,950.379 1247.04,1015.945 L 1247.04,1016.755 L 1242.827,1016.755 C 1239.067,980.329 1229.173,944.173 1223.067,913.144 L 1069.307,336.0 L 754.713,336.0 L 601.89,912.604 C 595.785,943.634 585.896,980.059 582.14,1016.214 L 577.925,1016.214 L 577.925,1015.405 C 567.089,950.109 552.526,885.352 534.18,821.944 L 395.0,336.0 L 172.115,336.0 L 237.476,564.537 L 0.0,564.537 L 0.0,728.317 L 284.03,728.317 L 330.56,891.02 L 0.0,891.02 L 0.0,1055.07 L 377.113,1055.07 L 451.904,1317.334 L 718.048,1317.334 L 898.133,629.565 C 903.787,604.201 908.973,576.41 910.373,556.982 L 914.587,556.982 C 916.027,575.87 921.187,604.201 926.827,629.565 L 1106.92,1317.335 L 1373.08,1317.335 L 1653.333,336.0 L 1430.453,336.0" fill="#246b60" fill-rule="evenodd"/>
</svg>