<?xml version="1.0" ?>
<svg xmlns="http://www.w3.org/2000/svg" version="1.2" baseProfile="tiny-ps" viewBox="0 0 2518.71 1865.57" xml:space="preserve">
	<g>
		<path d="M601.98,776.42L471.22,1087.3h-83.07l-10.51-181.47l-58.32,181.47H239.1l-49.77-310.89h98.14L295,969.3l64.9-192.88h73.68   l9,192.88l63.45-192.88H601.98z"/>
		<path d="M605.27,776.42h92.92l-41.91,310.89h-91.5L605.27,776.42z"/>
		<path d="M677.27,1059.3l39.08-81.17c16.63,14.35,32.14,26.54,52.39,30.43c9.54,1.83,19.53-0.25,27.26-6.12   c17.2-13.07,7.58-28.63-0.21-31.46c-21.65-11.91-83.48-2.93-86.77-70.34c-0.81-16.51,2.39-32.92,8.47-48.29   c15.57-39.3,41.83-64.22,82.22-74.89c13.32-3.52,35.41-4.88,49.1-3.35c25.73,2.89,51.4,11.26,69.03,25.63l-35.31,73.97   c-18.33-13.36-31.76-21.4-48.32-23.4c-5.98-0.72-12.1-0.13-17.69,2.1c-5.35,2.13-8.4,4.9-10.25,8.18   c-3.95,6.98-1.81,15.74,4.32,20.92c30.48,25.79,105.46,4.23,87.51,108.08c-9.17,53.07-51.46,99.64-125.15,99.64   C733.24,1089.23,698.46,1078.4,677.27,1059.3z"/>
		<path d="M1092.84,1003.99l-10.66,83.32H905.87l41.91-310.89h171.9l-10.66,79.05h-81.76l-4.91,36.42h74.94l-10.18,75.5h-74.94   l-5.51,36.6H1092.84z"/>
		<path d="M2302.55,1003.99l-10.66,83.32h-176.31l41.91-310.89h171.9l-10.66,79.05h-81.76l-4.91,36.42H2307l-10.18,75.5h-74.94   l-5.51,36.6H2302.55z"/>
		<path d="M1463.68,1087.3l7.97-179.8l-69.88,179.8h-53.78l-20.62-179.8l-41.26,179.8h-87.21l85.95-310.89h94.28l13.98,175.53   l63.53-175.53h94.28l-0.04,310.89H1463.68z"/>
		<path d="M1580.38,932.79c13.59-93.62,84.18-161.62,167.08-161.62c82.9,0,133.74,68,120.15,161.62   c-13.59,93.62-84.18,161.62-167.08,161.62S1566.79,1026.4,1580.38,932.79z M1772.74,932.79c5.97-41.1-12.15-65.98-39.16-65.98   c-27.01,0-52.35,24.88-58.32,65.98s12.15,65.98,39.16,65.98S1766.77,973.88,1772.74,932.79z"/>
		<path d="M2159.27,776.42l-142.42,310.89h-81.62l-58.6-310.89h99.03l16.62,189.12l71.16-189.12H2159.27z"/>
	</g>
</svg>