<svg xmlns="http://www.w3.org/2000/svg" viewBox="0 0 676.78 674.82"><g data-name="Layer 2"><path d="M306.43 0a339 339 0 0 0-142.94 46.94L374.87 197Zm129.51 372.78L412.05 304 108.34 88.4a337.66 337.66 0 0 0-45.18 51.37c-61.53 86-76.93 191-51.3 285.69l353.82-1.41Zm128.94 170.83 11.57 33.2a338.86 338.86 0 0 0 37.28-43.27 344.37 344.37 0 0 0 26.61-44.73l-57.91.23Zm77.03-239.73-21.61 67.3 49.23 35a338.67 338.67 0 0 0 2.78-124.49Zm-20.22-151.99A336.94 336.94 0 0 0 376.18.42l91.09 262.15 60.66 43.12 57.91-42.28ZM37.52 491.15a336.21 336.21 0 0 0 88.07 108.12l149.4-109Zm349.69-1.35L184.57 637.66a337.88 337.88 0 0 0 276.36 14.27l34.62-107.64-19.06-54.83Z" data-name="Layer 1" style="fill:#00a87f"/></g></svg>