<?xml version="1.0" ?>
<svg xmlns:xlink="http://www.w3.org/1999/xlink" xmlns="http://www.w3.org/2000/svg" viewBox="0 0 152.784 27.144">
	<defs>
		<linearGradient id="a">
			<stop style="stop-color:#f60;stop-opacity:1" offset="0"/>
			<stop style="stop-color:#fc0;stop-opacity:1" offset="1"/>
		</linearGradient>
		<linearGradient xlink:href="#a" id="d" gradientUnits="userSpaceOnUse" x1="109.232" y1="89.845" x2="262.016" y2="89.845"/>
		<marker style="overflow:visible" id="c" refX="0" refY="0" orient="auto">
			<path transform="matrix(.8 0 0 .8 10 0)" style="fill:#e77171;fill-opacity:1;fill-rule:evenodd;stroke:none;stroke-width:1pt;stroke-opacity:1" d="m0 0 5-5-17.5 5L5 5Z"/>
		</marker>
		<marker style="overflow:visible" id="b" refX="0" refY="0" orient="auto">
			<path transform="matrix(.8 0 0 .8 10 0)" style="fill:#e77171;fill-opacity:1;fill-rule:evenodd;stroke:none;stroke-width:1pt;stroke-opacity:1" d="m0 0 5-5-17.5 5L5 5Z"/>
		</marker>
		<path id="e" d="M37.798 65.768h296.933v62.197H37.798z"/>
	</defs>
	<g style="display:inline" transform="translate(-70.678 -79.926)">
		<path style="display:inline;opacity:1;mix-blend-mode:normal;fill:#e77171;fill-opacity:1;stroke:none;stroke-width:0;stroke-linecap:butt;stroke-linejoin:bevel;stroke-miterlimit:4;stroke-dasharray:none;stroke-opacity:1;marker-start:url(#b)" d="M203.053 87.17s.794 3.19-.258 2.914c-2.402-.633-2.977-1.397-5.311-1.572-2.335-.174-4.028.873-4.028.873V88.12s2.335-1.128 3.56-1.615c1.935-.77 6.828-4.024 5.97-2.059-.386.882.067 2.726.067 2.726z"/>
		<ellipse style="mix-blend-mode:normal;fill:#e77171;fill-opacity:1;stroke:none;stroke-width:.00400521;stroke-linejoin:bevel;stroke-miterlimit:4;stroke-dasharray:none;stroke-opacity:1;paint-order:fill markers stroke" cx="193.512" cy="87.684" rx=".941" ry=".565"/>
		<path style="display:inline;mix-blend-mode:normal;fill:#e77171;fill-opacity:1;stroke:none;stroke-width:0;stroke-linecap:butt;stroke-linejoin:bevel;stroke-miterlimit:4;stroke-dasharray:none;stroke-opacity:1;marker-start:url(#c)" d="M183.942 87.17s-.794 3.19.257 2.914c2.402-.633 2.977-1.397 5.312-1.572 2.335-.174 4.028.873 4.028.873V88.12s-2.335-1.128-3.56-1.615c-1.936-.77-6.828-4.024-5.97-2.059.385.882-.067 2.726-.067 2.726z"/>
	</g>
	<g style="display:inline">
		<path style="font-weight:700;font-size:38.5504px;line-height:1.35;font-family:'Berkshire Swash';-inkscape-font-specification:'Berkshire Swash Bold';text-align:center;letter-spacing:1.32292px;word-spacing:0;text-anchor:middle;white-space:pre;fill:#e77171;stroke:url(#d);stroke-width:0" d="M129.75 96.339q.413-1.11.865-2.39t.885-2.636q.433-1.374.828-2.767.414-1.412.734-2.767l-1.826-5.986q-.188-.621.02-1.073.225-.47.696-.772.47-.32 1.11-.47.659-.151 1.374-.151.621 0 1.11.075.49.057.848.226.376.17.621.49.245.3.395.79l5.403 17.393q.433-1.167.903-2.522.47-1.356.923-2.786.451-1.43.865-2.899.415-1.468.716-2.88.32-1.412.49-2.692.187-1.299.187-2.371 0-1.243-.169-2.071-.17-.828-.395-1.374-.207-.565-.377-.923-.17-.357-.17-.658 0-.396.208-.66.207-.282.527-.47.32-.188.696-.263.377-.094.716-.094.753 0 1.28.225.527.226.734.772.094.283.15.603.057.3.076.602.037.282.037.546v.395q0 .79-.263 2.165-.245 1.374-.697 3.106-.433 1.713-.997 3.69-.565 1.976-1.186 3.99-.603 1.995-1.224 3.915-.62 1.92-1.186 3.558-.545 1.618-.978 2.86-.415 1.224-.64 1.827-.151.451-.415.715-.244.263-.583.395-.32.15-.715.188-.377.038-.79.038-.754 0-1.243-.15-.47-.151-.753-.377-.283-.226-.414-.49-.132-.263-.207-.47l-3.746-12.31q-.621 2.051-1.261 4.046-.64 1.977-1.224 3.652-.565 1.676-1.016 2.937-.452 1.242-.697 1.826-.188.451-.47.715-.264.263-.603.395-.32.15-.696.188-.377.038-.772.038-.753 0-1.242-.15-.471-.151-.753-.377-.283-.226-.433-.49-.132-.263-.207-.47l-6.701-22.4q-.189-.64-.415-1.073-.207-.452-.527-.734-.3-.282-.753-.414-.433-.132-1.073-.132-.527 0-1.223.264-.697.244-1.337.753-.62.489-1.054 1.242-.433.734-.433 1.713 0 .602.151.96.17.357.376.546.208.17.415.226.225.037.32.037.47 0 .771-.15.302-.17.546-.34.245-.187.452-.338.226-.17.508-.17.226 0 .47.114.264.094.471.32.226.225.377.602.15.358.15.885 0 .753-.3 1.298-.283.546-.754.923-.451.357-1.054.546-.583.169-1.167.169-.903 0-1.619-.32-.696-.32-1.186-.866-.47-.546-.734-1.261-.244-.734-.244-1.562 0-1.958.753-3.407.753-1.469 1.995-2.447 1.242-.98 2.823-1.45 1.582-.49 3.257-.49 1.882 0 3.087.584 1.205.565 1.939 1.469.753.903 1.186 2.032.433 1.111.771 2.203zm29.764 4.894q0 .244-.094.602-.075.339-.395.659-.301.301-.885.508-.583.226-1.58.226-.998 0-1.563-.245-.565-.226-.847-.546-.283-.32-.358-.658-.056-.34-.056-.546V86.7q0-.546-.264-.941-.245-.414-.847-.414-.32 0-.546.113-.226.113-.49.32l-.395-.47q.433-.358.96-.697.546-.358 1.168-.621.62-.264 1.336-.433.715-.17 1.506-.17 1.223 0 1.901.339.678.32.998.81.32.47.376 1.016.075.546.075.96zm-6.362-22.137q0-.527.226-.997.245-.49.659-.847.433-.358.979-.565.564-.207 1.223-.207.64 0 1.186.207.565.207.979.565.414.357.64.847.245.47.245.997 0 .546-.245 1.017-.226.47-.64.828-.414.339-.979.546-.546.207-1.186.207-.659 0-1.223-.207-.546-.207-.98-.546-.413-.358-.658-.828-.226-.47-.226-1.017zm18.471 5.798q-.433 0-.828.113-.377.113-.678.376-.3.245-.47.64-.17.377-.17.904 0 .734.527 1.468.546.715 1.337 1.506.81.772 1.732 1.619.94.828 1.731 1.77.81.922 1.337 1.976.546 1.054.546 2.259 0 1.355-.47 2.409-.453 1.054-1.319 1.788-.847.734-2.07 1.13-1.205.376-2.692.376-1.299 0-2.353-.358-1.054-.376-1.882-.903-.81-.546-1.393-1.148-.584-.603-.904-1.092l.66-.47q.244.282.62.62.377.32.829.603.47.282.997.47.527.17 1.073.17 1.355 0 2.221-.64.866-.659.866-1.939 0-.715-.47-1.468-.47-.772-1.186-1.581-.716-.81-1.544-1.676-.828-.866-1.543-1.788-.716-.922-1.186-1.901t-.47-2.033q0-1.186.47-2.07.49-.885 1.28-1.469.81-.583 1.826-.866 1.035-.3 2.127-.3 1.26 0 2.296.225 1.036.226 1.77.697.753.451 1.148 1.148.414.696.414 1.619 0 .715-.47 1.242-.471.527-1.318.527-.81 0-1.243-.339-.414-.358-.414-.96 0-.395.189-.621.207-.226.451-.358.245-.15.433-.244.207-.113.207-.283 0-.527-.564-.828-.565-.32-1.45-.32zm15.328 2.07q.696-.997 1.58-1.788.359-.338.791-.658.452-.32.942-.565.508-.264 1.054-.414.564-.15 1.148-.15 1.261 0 2.259.489.997.489 1.675 1.637.678 1.148 1.035 3.05.358 1.882.358 4.687 0 2.729-.49 4.743-.489 2.014-1.28 3.426-.79 1.412-1.788 2.296-.997.904-2.014 1.412-1.016.508-1.957.697-.942.207-1.62.226l-.187-.772q.847-.207 1.505-.772.66-.565 1.111-1.845.452-1.298.678-3.482.244-2.183.244-5.628 0-2.372-.225-3.784-.208-1.43-.565-2.164-.339-.753-.79-.98-.434-.244-.885-.244-.546 0-.96.301-.415.283-.735.66-.3.376-.527.752-.207.376-.357.565v12.574q0 .244-.076.602-.075.339-.376.659-.282.301-.866.508-.565.226-1.562.226-.998 0-1.581-.245-.584-.226-.885-.546-.282-.32-.358-.658-.075-.34-.075-.546V76.95q0-.546-.264-.942-.244-.414-.847-.414-.32 0-.564.113-.226.094-.49.301l-.376-.451q.433-.358.96-.697.527-.357 1.148-.621.64-.264 1.355-.433.716-.17 1.506-.17 1.224 0 1.901.34.678.32.998.809.32.47.376 1.016.076.527.076.941zm26.659 6.589q0-1.638-.17-3.068-.169-1.45-.545-2.523-.377-1.092-.96-1.713-.584-.64-1.412-.64-.64 0-1.092.32-.433.302-.715.697-.282.395-.414.79-.132.377-.132.509v5.628q0 4.103.678 5.967.696 1.863 2.033 1.863 1.411 0 2.07-1.9.659-1.902.659-5.93zM202.391 76.95q0-.546-.263-.942-.245-.414-.847-.414-.32 0-.565.113-.226.094-.49.301l-.376-.451q.433-.358.96-.697.546-.357 1.167-.621t1.337-.433q.715-.17 1.505-.17 1.092 0 1.751.34.678.32 1.016.809.358.47.471 1.035.113.546.113 1.017v8.395q.226-.207.584-.508.357-.32.903-.622.546-.3 1.299-.508.772-.207 1.807-.207 1.205 0 2.41.565 1.204.546 2.164 1.732.96 1.185 1.562 3.049.603 1.864.603 4.48 0 2.052-.565 3.878-.546 1.825-1.638 3.2-1.091 1.355-2.729 2.145-1.638.791-3.802.791-2.353 0-3.972-.753-1.6-.772-2.579-2.052-.979-1.298-1.412-3.011-.414-1.713-.414-3.614zm20.862 16.338q0-2.466.715-4.31.715-1.864 1.901-3.106 1.205-1.242 2.786-1.864 1.581-.62 3.313-.62 1.732 0 3.313.583 1.581.564 2.767 1.75 1.205 1.186 1.92 3.012.715 1.807.715 4.292 0 2.466-.715 4.367-.715 1.901-1.92 3.2-1.186 1.299-2.767 1.976-1.581.66-3.313.66-1.732 0-3.313-.622-1.581-.64-2.786-1.882-1.186-1.243-1.9-3.106-.716-1.864-.716-4.33zm11.576-.188q0-1.506-.113-2.899-.094-1.412-.395-2.503-.301-1.092-.866-1.732-.565-.659-1.487-.659-.922 0-1.487.697-.565.677-.866 1.807-.301 1.11-.395 2.54-.094 1.431-.094 2.937 0 1.506.094 2.956.094 1.43.395 2.56.301 1.129.866 1.825.565.678 1.487.678.922 0 1.487-.715.565-.716.866-1.883.301-1.167.395-2.635.113-1.468.113-2.974zm21.295.452q0-1.638-.17-3.068-.169-1.45-.545-2.523-.377-1.092-.96-1.713-.584-.64-1.412-.64-.64 0-1.092.32-.433.302-.715.697-.283.395-.414.79-.132.377-.132.509v5.628q0 4.103.678 5.967.696 1.863 2.032 1.863 1.412 0 2.071-1.9.659-1.902.659-5.93zM244.905 76.95q0-.546-.263-.942-.245-.414-.847-.414-.32 0-.565.113-.226.094-.49.301l-.376-.451q.433-.358.96-.697.546-.357 1.167-.621t1.336-.433q.716-.17 1.506-.17 1.092 0 1.75.34.679.32 1.017.809.358.47.471 1.035.113.546.113 1.017v8.395q.226-.207.583-.508.358-.32.904-.622.546-.3 1.299-.508.772-.207 1.807-.207 1.205 0 2.41.565 1.204.546 2.164 1.732.96 1.185 1.562 3.049.603 1.864.603 4.48 0 2.052-.565 3.878-.546 1.825-1.638 3.2-1.092 1.355-2.73 2.145-1.637.791-3.801.791-2.353 0-3.972-.753-1.6-.772-2.579-2.052-.979-1.298-1.412-3.011-.414-1.713-.414-3.614z" transform="matrix(1 0 0 .83742 -109.232 -61.666)" aria-label="Wishbob"/>
	</g>
</svg>