<svg viewBox="0 0 308 56" xmlns="http://www.w3.org/2000/svg"><path d="M100.04 20.58V56h11.2V.13l-11.2 20.45zM116.05.13v33.52h44.78v11.18h-44.78V56h55.98V22.48h-44.79V11.31h44.79V.13h-55.98zm60.72 0V56h11.19V11.31h33.6v22.34h-28.34v11.18h39.53V.13h-55.98zm60.72 0V56h11.19V11.31h33.59v22.34h-22.39v11.18h8.4L279.48 56h13.99l-11.2-11.17h11.2V.13h-55.98zm-145.2 0L68.47 44.14l-8.71-16.07L74.88.13H61.27l-8.32 15.36L44.64.13H31.02l15.13 27.94-8.71 16.07L13.61.13H0L30.25 56h14.39l8.31-15.36L61.27 56h14.39L105.91.13H92.29zm205.1 4.77l.6-.71c.54.47 1.08.73 1.78.73.61 0 1-.28 1-.71v-.02c0-.4-.23-.62-1.27-.86-1.2-.29-1.88-.64-1.88-1.68v-.02c0-.97.81-1.63 1.93-1.63.82 0 1.48.25 2.05.71l-.53.75c-.51-.38-1.02-.58-1.53-.58-.58 0-.92.3-.92.67v.02c0 .43.26.63 1.34.89 1.19.29 1.82.72 1.82 1.65v.02c0 1.06-.83 1.68-2.02 1.68-.86 0-1.68-.3-2.36-.9zm5.06-4.82h1.06l1.72 2.67 1.72-2.67h1.06v5.64h-.99V1.67l-1.78 2.66h-.03l-1.77-2.64v4.03h-.98V.08z" fill="#fff"/></svg>