<?xml version="1.0" ?>
<svg xmlns="http://www.w3.org/2000/svg" viewBox="0 0 161 38" fill="none">
	<path fill-rule="evenodd" clip-rule="evenodd" d="M1.06612 4.16147C0.224588 4.47733 -0.208353 5.4263 0.100118 6.28561C0.997118 8.78492 4.255 16.9463 8.45453 16.9463C10.5272 16.9463 12.5269 15.098 14.5725 11.2842L14.6091 11.2139C16.2177 8.23871 17.4178 7.84974 17.8264 7.84974C18.2349 7.84974 19.435 8.23871 21.0342 11.1946L21.0869 11.2966C23.1258 15.098 25.1255 16.9463 27.1982 16.9463C31.3977 16.9463 34.6556 8.78492 35.5539 6.28561C35.8624 5.4263 35.4295 4.47595 34.5866 4.16147C33.7451 3.84698 32.8115 4.28836 32.5044 5.14767C30.9364 9.50905 28.359 13.3256 27.1982 13.3256C26.7991 13.3256 25.6017 12.8153 23.9444 9.72285L23.8875 9.61664C21.896 5.93112 19.9139 4.14078 17.8264 4.14078C15.7388 4.14078 13.7567 5.93112 11.7557 9.63319L11.7165 9.70905C10.051 12.8153 8.855 13.3477 8.45453 13.3477C7.29776 13.3477 4.71906 9.50905 3.14829 5.1463C2.90747 4.47595 2.28512 4.06078 1.62353 4.06078C1.43818 4.06078 1.25012 4.0925 1.06612 4.16147ZM32.6478 20.1008C30.4101 23.7932 28.0099 24.9877 27.1982 24.9877C26.3039 24.9877 25.0294 24.1491 23.7171 22.698L23.6548 22.6277C21.6484 20.4304 19.688 19.316 17.8264 19.316C15.9647 19.316 14.0043 20.4304 11.9816 22.6456L11.9478 22.6856C10.6233 24.1491 9.34882 24.9877 8.45453 24.9877C6.74847 24.9877 4.24147 22.1297 3.00488 20.1008C2.53406 19.3242 1.53288 19.0828 0.771176 19.5628C0.281412 19.8718 0.00811765 20.4015 0 20.9463V20.9946C0.00405882 21.2842 0.0825294 21.5766 0.242176 21.8415C0.642647 22.5035 4.278 28.2994 8.45453 28.2994C10.3324 28.2994 12.3104 27.1656 14.3452 24.9173L14.375 24.8828C15.6846 23.4484 16.9429 22.6277 17.8264 22.6277C18.7098 22.6277 19.9681 23.4484 21.2615 24.8649L21.3183 24.9297C23.3423 27.1656 25.3203 28.2994 27.1982 28.2994C31.3747 28.2994 35.0101 22.5035 35.4105 21.8428C35.8814 21.0635 35.6459 20.0442 34.8815 19.5628C34.6164 19.396 34.3214 19.316 34.0305 19.316C33.4866 19.316 32.9549 19.5946 32.6478 20.1008ZM12.4119 33.2497L12.3767 33.2677C10.9318 34.0525 9.57612 34.4677 8.45453 34.4677C5.68506 34.4677 2.66124 32.0608 2.63553 32.0387C1.932 31.4704 0.910529 31.5891 0.353118 32.3049C-0.204294 33.0194 -0.0892941 34.0608 0.614235 34.6304C0.772529 34.7587 4.54047 37.778 8.45453 37.778C10.1295 37.778 11.9627 37.2442 13.9164 36.1835L13.9461 36.167C15.3748 35.3973 16.7169 34.9904 17.8264 34.9904C18.9358 34.9904 20.2792 35.3973 21.6904 36.1573L21.7485 36.1904C23.69 37.2442 25.5232 37.778 27.1982 37.778C31.1122 37.778 34.8802 34.7587 35.0398 34.6304C35.742 34.0608 35.8584 33.0194 35.2996 32.3049C34.7422 31.5891 33.7207 31.4704 33.0172 32.0387C32.1851 32.7146 29.5158 34.4677 27.1982 34.4677C26.0766 34.4677 24.7209 34.0525 23.2868 33.2746L23.2246 33.2401C21.3021 32.2042 19.4864 31.6787 17.8264 31.6787C16.1663 31.6787 14.3506 32.2042 12.4119 33.2497Z" fill="url(#paint0_linear)"/>
	<mask id="mask0" mask-type="alpha" maskUnits="userSpaceOnUse" x="0" y="4" width="36" height="34">
		<path fill-rule="evenodd" clip-rule="evenodd" d="M1.06612 4.16147C0.224588 4.47733 -0.208353 5.4263 0.100118 6.28561C0.997118 8.78492 4.255 16.9463 8.45453 16.9463C10.5272 16.9463 12.5269 15.098 14.5725 11.2842L14.6091 11.2139C16.2177 8.23871 17.4178 7.84974 17.8264 7.84974C18.2349 7.84974 19.435 8.23871 21.0342 11.1946L21.0869 11.2966C23.1258 15.098 25.1255 16.9463 27.1982 16.9463C31.3977 16.9463 34.6556 8.78492 35.5539 6.28561C35.8624 5.4263 35.4295 4.47595 34.5866 4.16147C33.7451 3.84698 32.8115 4.28836 32.5044 5.14767C30.9364 9.50905 28.359 13.3256 27.1982 13.3256C26.7991 13.3256 25.6017 12.8153 23.9444 9.72285L23.8875 9.61664C21.896 5.93112 19.9139 4.14078 17.8264 4.14078C15.7388 4.14078 13.7567 5.93112 11.7557 9.63319L11.7165 9.70905C10.051 12.8153 8.855 13.3477 8.45453 13.3477C7.29776 13.3477 4.71906 9.50905 3.14829 5.1463C2.90747 4.47595 2.28512 4.06078 1.62353 4.06078C1.43818 4.06078 1.25012 4.0925 1.06612 4.16147ZM32.6478 20.1008C30.4101 23.7932 28.0099 24.9877 27.1982 24.9877C26.3039 24.9877 25.0294 24.1491 23.7171 22.698L23.6548 22.6277C21.6484 20.4304 19.688 19.316 17.8264 19.316C15.9647 19.316 14.0043 20.4304 11.9816 22.6456L11.9478 22.6856C10.6233 24.1491 9.34882 24.9877 8.45453 24.9877C6.74847 24.9877 4.24147 22.1297 3.00488 20.1008C2.53406 19.3242 1.53288 19.0828 0.771176 19.5628C0.281412 19.8718 0.00811765 20.4015 0 20.9463V20.9946C0.00405882 21.2842 0.0825294 21.5766 0.242176 21.8415C0.642647 22.5035 4.278 28.2994 8.45453 28.2994C10.3324 28.2994 12.3104 27.1656 14.3452 24.9173L14.375 24.8828C15.6846 23.4484 16.9429 22.6277 17.8264 22.6277C18.7098 22.6277 19.9681 23.4484 21.2615 24.8649L21.3183 24.9297C23.3423 27.1656 25.3203 28.2994 27.1982 28.2994C31.3747 28.2994 35.0101 22.5035 35.4105 21.8428C35.8814 21.0635 35.6459 20.0442 34.8815 19.5628C34.6164 19.396 34.3214 19.316 34.0305 19.316C33.4866 19.316 32.9549 19.5946 32.6478 20.1008ZM12.4119 33.2497L12.3767 33.2677C10.9318 34.0525 9.57612 34.4677 8.45453 34.4677C5.68506 34.4677 2.66124 32.0608 2.63553 32.0387C1.932 31.4704 0.910529 31.5891 0.353118 32.3049C-0.204294 33.0194 -0.0892941 34.0608 0.614235 34.6304C0.772529 34.7587 4.54047 37.778 8.45453 37.778C10.1295 37.778 11.9627 37.2442 13.9164 36.1835L13.9461 36.167C15.3748 35.3973 16.7169 34.9904 17.8264 34.9904C18.9358 34.9904 20.2792 35.3973 21.6904 36.1573L21.7485 36.1904C23.69 37.2442 25.5232 37.778 27.1982 37.778C31.1122 37.778 34.8802 34.7587 35.0398 34.6304C35.742 34.0608 35.8584 33.0194 35.2996 32.3049C34.7422 31.5891 33.7207 31.4704 33.0172 32.0387C32.1851 32.7146 29.5158 34.4677 27.1982 34.4677C26.0766 34.4677 24.7209 34.0525 23.2868 33.2746L23.2246 33.2401C21.3021 32.2042 19.4864 31.6787 17.8264 31.6787C16.1663 31.6787 14.3506 32.2042 12.4119 33.2497Z" fill="white"/>
	</mask>
	<g mask="url(#mask0)">
</g>
	<path fill-rule="evenodd" clip-rule="evenodd" d="M88.1475 20.8974C88.1475 21.8477 88.2463 22.7622 88.4438 23.6408C88.6413 24.5195 88.9525 25.2891 89.376 25.9512C89.7994 26.6146 90.3433 27.1388 91.0076 27.5277C91.6706 27.9167 92.4688 28.1112 93.401 28.1112C94.3331 28.1112 95.1314 27.9167 95.7957 27.5277C96.4586 27.1388 97.0025 26.6146 97.426 25.9512C97.8508 25.2891 98.1606 24.5195 98.3581 23.6408C98.5557 22.7622 98.6558 21.8477 98.6558 20.8974C98.6558 19.8601 98.5489 18.9098 98.3379 18.0464C98.1254 17.1829 97.8075 16.427 97.384 15.7788C96.9606 15.1305 96.4167 14.627 95.7524 14.267C95.0894 13.907 94.3047 13.7264 93.401 13.7264C92.4972 13.7264 91.7139 13.907 91.0496 14.267C90.3853 14.627 89.8427 15.1305 89.4193 15.7788C88.9944 16.427 88.6765 17.1829 88.4654 18.0464C88.253 18.9098 88.1475 19.8601 88.1475 20.8974ZM81.9619 20.8974C81.9619 19.227 82.2081 17.6726 82.7033 16.2326C83.1971 14.7926 83.925 13.5401 84.8856 12.4739C85.8448 11.4091 87.0381 10.5732 88.4654 9.96911C89.8914 9.36359 91.5366 9.06152 93.401 9.06152C95.2653 9.06152 96.9105 9.36359 98.3379 9.96911C99.7639 10.5732 100.957 11.4091 101.918 12.4739C102.877 13.5401 103.605 14.7926 104.1 16.2326C104.594 17.6726 104.841 19.227 104.841 20.8974C104.841 22.4808 104.644 23.9857 104.247 25.4119C103.852 26.8367 103.203 28.0974 102.299 29.1912C101.394 30.2864 100.216 31.1567 98.7613 31.8036C97.3056 32.4519 95.5197 32.776 93.401 32.776C91.2823 32.776 89.4964 32.4519 88.042 31.8036C86.5862 31.1567 85.4078 30.2864 84.504 29.1912C83.5989 28.0974 82.9495 26.8367 82.5544 25.4119C82.1594 23.9857 81.9619 22.4808 81.9619 20.8974Z" fill="#0060FF"/>
	<path fill-rule="evenodd" clip-rule="evenodd" d="M109.379 13.7702H107.981C107.105 13.7702 106.477 13.5978 106.095 13.2516C105.714 12.9068 105.523 12.3882 105.523 11.6971C105.523 11.0061 105.714 10.4875 106.095 10.1413C106.477 9.79643 107.105 9.62402 107.981 9.62402H109.379V6.46954C109.379 5.49161 109.563 4.61988 109.93 3.85712C110.296 3.09437 110.798 2.45299 111.434 1.93437C112.07 1.41575 112.797 1.02816 113.616 0.768848C114.435 0.509538 115.297 0.379883 116.201 0.379883C117.33 0.379883 118.291 0.617124 119.082 1.09299C119.872 1.56747 120.268 2.3385 120.268 3.40333C120.268 3.97988 120.077 4.48333 119.697 4.91506C119.315 5.34678 118.842 5.56333 118.276 5.56333C118.05 5.56333 117.824 5.54126 117.598 5.4985C117.372 5.45575 117.146 5.43368 116.92 5.43368C116.468 5.43368 116.13 5.57023 115.904 5.84333C115.677 6.11781 115.565 6.46954 115.565 6.90264V9.62402H117.471C118.375 9.62402 119.067 9.78264 119.548 10.0985C120.028 10.4157 120.268 10.9482 120.268 11.6971C120.268 12.4461 120.028 12.9785 119.548 13.2944C119.067 13.6116 118.375 13.7702 117.471 13.7702H115.565V29.6226C115.565 30.6599 115.282 31.4447 114.718 31.9771C114.152 32.5095 113.404 32.7757 112.472 32.7757C111.54 32.7757 110.792 32.5095 110.226 31.9771C109.66 31.4447 109.379 30.6599 109.379 29.6226V13.7702Z" fill="#0060FF"/>
	<path fill-rule="evenodd" clip-rule="evenodd" d="M125.654 13.7702H124.256C123.379 13.7702 122.752 13.5978 122.37 13.2516C121.988 12.9068 121.798 12.3882 121.798 11.6971C121.798 11.0061 121.988 10.4875 122.37 10.1413C122.752 9.79643 123.379 9.62402 124.256 9.62402H125.654V6.46954C125.654 5.49161 125.838 4.61988 126.204 3.85712C126.571 3.09437 127.073 2.45299 127.709 1.93437C128.345 1.41575 129.071 1.02816 129.891 0.768848C130.71 0.509538 131.571 0.379883 132.475 0.379883C133.605 0.379883 134.565 0.617124 135.357 1.09299C136.147 1.56747 136.542 2.3385 136.542 3.40333C136.542 3.97988 136.351 4.48333 135.971 4.91506C135.59 5.34678 135.116 5.56333 134.551 5.56333C134.325 5.56333 134.099 5.54126 133.873 5.4985C133.647 5.45575 133.421 5.43368 133.195 5.43368C132.743 5.43368 132.405 5.57023 132.179 5.84333C131.952 6.11781 131.839 6.46954 131.839 6.90264V9.62402H133.746C134.649 9.62402 135.342 9.78264 135.822 10.0985C136.303 10.4157 136.542 10.9482 136.542 11.6971C136.542 12.4461 136.303 12.9785 135.822 13.2944C135.342 13.6116 134.649 13.7702 133.746 13.7702H131.839V29.6226C131.839 30.6599 131.556 31.4447 130.992 31.9771C130.427 32.5095 129.679 32.7757 128.746 32.7757C127.814 32.7757 127.066 32.5095 126.501 31.9771C125.935 31.4447 125.654 30.6599 125.654 29.6226V13.7702Z" fill="#0060FF"/>
	<path fill-rule="evenodd" clip-rule="evenodd" d="M160.163 29.6229C160.163 30.5732 159.943 31.336 159.506 31.9126C159.068 32.4877 158.355 32.776 157.366 32.776C156.377 32.776 155.664 32.4877 155.227 31.9126C154.789 31.336 154.569 30.5732 154.569 29.6229V28.8022H154.486C153.609 29.9829 152.585 30.9401 151.413 31.6753C150.241 32.4091 148.765 32.776 146.986 32.776C146.054 32.776 145.122 32.6464 144.19 32.387C143.258 32.1277 142.424 31.6753 141.689 31.027C140.955 30.3788 140.354 29.5305 139.889 28.4781C139.422 27.427 139.189 26.096 139.189 24.4822V12.2146C139.189 11.3801 139.402 10.6464 139.825 10.0119C140.249 9.37876 141.067 9.06152 142.282 9.06152C143.497 9.06152 144.317 9.37876 144.74 10.0119C145.164 10.6464 145.375 11.3801 145.375 12.2146V23.2298C145.375 24.5264 145.686 25.5774 146.307 26.3829C146.928 27.1898 147.917 27.5926 149.274 27.5926C149.81 27.5926 150.36 27.485 150.926 27.2684C151.49 27.0532 151.999 26.7291 152.451 26.2974C152.903 25.8643 153.271 25.3401 153.553 24.7208C153.835 24.1015 153.977 23.4022 153.977 22.6257V12.2146C153.977 11.3801 154.188 10.6464 154.613 10.0119C155.036 9.37876 155.855 9.06152 157.07 9.06152C158.283 9.06152 159.103 9.37876 159.527 10.0119C159.95 10.6464 160.163 11.3801 160.163 12.2146V29.6229Z" fill="#0060FF"/>
	<path fill-rule="evenodd" clip-rule="evenodd" d="M64.7044 18.2195C64.5975 18.2195 64.4974 18.2554 64.4257 18.3257C64.331 18.4167 64.2647 18.7078 64.2647 18.7078L61.6102 29.494C61.4398 30.1271 61.2707 30.6526 61.1015 31.0705C60.9324 31.4885 60.7051 31.8264 60.4237 32.0857C60.141 32.3436 59.7878 32.5243 59.3644 32.625C58.9409 32.7257 58.4038 32.7767 57.7544 32.7767C57.132 32.7767 56.6165 32.7395 56.208 32.6678C55.798 32.5961 55.4449 32.4374 55.1486 32.1933C54.8523 31.9492 54.598 31.6029 54.3855 31.156C54.1731 30.7105 53.9553 30.1133 53.7294 29.3643L49.1957 14.3312C49.082 13.9864 48.9832 13.6347 48.8994 13.2733C48.8141 12.9133 48.7722 12.4898 48.7722 11.9988C48.7722 11.1643 49.0752 10.4664 49.6827 9.90364C50.2902 9.34226 50.9883 9.06226 51.7798 9.06226C52.344 9.06226 52.804 9.13398 53.1571 9.27743C53.5102 9.42226 53.793 9.63053 54.004 9.90364C54.2164 10.1781 54.3788 10.5023 54.4911 10.8761C54.6047 11.2512 54.717 11.6692 54.8307 12.1285L57.6732 24.1712C57.6732 24.1712 57.7368 24.4623 57.8301 24.5533C57.9018 24.6236 58.0033 24.6595 58.1102 24.6595C58.2157 24.6595 58.3172 24.6236 58.3889 24.5533C58.4822 24.4623 58.5499 24.1712 58.5499 24.1712L60.8052 13.3809C60.9175 12.7767 61.0515 12.2016 61.2071 11.654C61.3627 11.1078 61.5818 10.6388 61.8646 10.2498C62.146 9.86088 62.5059 9.55881 62.9442 9.34226C63.3812 9.12708 63.9684 9.03329 64.7031 9.06226H64.7058C65.4404 9.03329 66.0262 9.12708 66.4646 9.34226C66.903 9.55881 67.2628 9.86088 67.5442 10.2498C67.827 10.6388 68.0462 11.1078 68.2018 11.654C68.3574 12.2016 68.4913 12.7767 68.6036 13.3809L70.859 24.1712C70.859 24.1712 70.9266 24.4623 71.02 24.5533C71.0917 24.6236 71.1931 24.6595 71.2987 24.6595C71.4055 24.6595 71.507 24.6236 71.5787 24.5533C71.6721 24.4623 71.7357 24.1712 71.7357 24.1712L74.5782 12.1285C74.6918 11.6692 74.8041 11.2512 74.9178 10.8761C75.0301 10.5023 75.1924 10.1781 75.4048 9.90364C75.6159 9.63053 75.8987 9.42226 76.2518 9.27743C76.6049 9.13398 77.0649 9.06226 77.6291 9.06226C78.4205 9.06226 79.1187 9.34226 79.7261 9.90364C80.3336 10.4664 80.6367 11.1643 80.6367 11.9988C80.6367 12.4898 80.5947 12.9133 80.5095 13.2733C80.4256 13.6347 80.3268 13.9864 80.2132 14.3312L75.6795 29.3643C75.4535 30.1133 75.2357 30.7105 75.0233 31.156C74.8109 31.6029 74.5565 31.9492 74.2602 32.1933C73.964 32.4374 73.6108 32.5961 73.2009 32.6678C72.7923 32.7395 72.2768 32.7767 71.6545 32.7767C71.0051 32.7767 70.468 32.7257 70.0445 32.625C69.621 32.5243 69.2679 32.3436 68.9851 32.0857C68.7037 31.8264 68.4764 31.4885 68.3073 31.0705C68.1382 30.6526 67.9691 30.1271 67.7986 29.494L65.1441 18.7078C65.1441 18.7078 65.0778 18.4167 64.9831 18.3257C64.9114 18.2554 64.8113 18.2195 64.7044 18.2195Z" fill="#0060FF"/>
	<defs>
		<linearGradient id="paint0_linear" x1="0" y1="4.06006" x2="0" y2="37.778" gradientUnits="userSpaceOnUse">
			<stop stop-color="#00B1FF"/>
			<stop offset="1" stop-color="#0060FF"/>
		</linearGradient>
	</defs>
</svg>