<?xml version="1.0" ?>
<svg xmlns="http://www.w3.org/2000/svg" viewBox="0 0 466 128" fill="none">
	<path d="M209.659 105.672L228.058 37.3425H245.198L225.54 105.672H209.659ZM169.181 105.672L149.523 37.3425H166.664L185.063 105.672H169.181ZM171.602 105.672L189.033 49.9736H203.946L186.612 105.672H171.602ZM208.11 105.672L190.776 49.9736H205.689L223.991 105.672H208.11Z" fill="#4e2b79"/>
	<path d="M268.617 106.843C263.517 106.843 258.998 105.77 255.06 103.622C251.122 101.409 248.023 98.3835 245.763 94.544C243.504 90.7045 242.374 86.2794 242.374 81.2686C242.374 76.2577 243.471 71.8326 245.666 67.9931C247.926 64.1537 251.025 61.1602 254.963 59.0127C258.901 56.8001 263.388 55.6939 268.423 55.6939C273.588 55.6939 278.139 56.8001 282.077 59.0127C286.015 61.1602 289.082 64.1537 291.277 67.9931C293.472 71.8326 294.569 76.2577 294.569 81.2686C294.569 86.2794 293.472 90.7045 291.277 94.544C289.082 98.3835 286.015 101.409 282.077 103.622C278.204 105.77 273.717 106.843 268.617 106.843ZM268.617 91.518C270.424 91.518 272.006 91.095 273.362 90.249C274.717 89.3379 275.75 88.134 276.461 86.6373C277.235 85.0755 277.623 83.2859 277.623 81.2686C277.623 79.2512 277.235 77.4942 276.461 75.9974C275.686 74.4356 274.588 73.2317 273.168 72.3857C271.812 71.4747 270.263 71.0192 268.52 71.0192C266.712 71.0192 265.098 71.4747 263.678 72.3857C262.322 73.2317 261.257 74.4356 260.482 75.9974C259.708 77.4942 259.32 79.2512 259.32 81.2686C259.32 83.2859 259.708 85.0755 260.482 86.6373C261.257 88.134 262.355 89.3379 263.775 90.249C265.195 91.095 266.809 91.518 268.617 91.518Z" fill="#4e2b79"/>
	<path d="M325.452 106.843C320.352 106.843 315.833 105.77 311.895 103.622C307.957 101.409 304.858 98.3835 302.598 94.544C300.339 90.7045 299.209 86.2794 299.209 81.2686C299.209 76.2577 300.306 71.8326 302.501 67.9931C304.761 64.1537 307.86 61.1602 311.798 59.0127C315.736 56.8001 320.223 55.6939 325.258 55.6939C330.423 55.6939 334.974 56.8001 338.912 59.0127C342.85 61.1602 345.917 64.1537 348.112 67.9931C350.307 71.8326 351.404 76.2577 351.404 81.2686C351.404 86.2794 350.307 90.7045 348.112 94.544C345.917 98.3835 342.85 101.409 338.912 103.622C335.039 105.77 330.552 106.843 325.452 106.843ZM325.452 91.518C327.259 91.518 328.841 91.095 330.197 90.249C331.552 89.3379 332.585 88.134 333.296 86.6373C334.07 85.0755 334.458 83.2859 334.458 81.2686C334.458 79.2512 334.07 77.4942 333.296 75.9974C332.521 74.4356 331.423 73.2317 330.003 72.3857C328.647 71.4747 327.098 71.0192 325.355 71.0192C323.547 71.0192 321.933 71.4747 320.513 72.3857C319.157 73.2317 318.092 74.4356 317.317 75.9974C316.543 77.4942 316.155 79.2512 316.155 81.2686C316.155 83.2859 316.543 85.0755 317.317 86.6373C318.092 88.134 319.19 89.3379 320.61 90.249C322.03 91.095 323.644 91.518 325.452 91.518Z" fill="#4e2b79"/>
	<path d="M381.706 126.561C377.639 126.561 374.088 126.301 371.054 125.78C368.084 125.325 365.566 124.674 363.5 123.828C361.435 122.982 359.659 121.973 358.174 120.802L364.566 107.722C365.599 108.242 366.793 108.828 368.149 109.479C369.569 110.195 371.312 110.813 373.378 111.334C375.508 111.854 378.026 112.114 380.931 112.114C383.061 112.114 384.966 111.691 386.644 110.845C388.323 109.999 389.614 108.73 390.518 107.039C391.486 105.347 391.97 103.232 391.97 100.694V56.8652H408.239V99.9127C408.239 105.379 407.206 110.097 405.14 114.067C403.139 118.101 400.169 121.192 396.231 123.34C392.293 125.487 387.451 126.561 381.706 126.561ZM377.735 103.524C373.216 103.524 369.311 102.613 366.018 100.791C362.79 98.9691 360.272 96.3661 358.465 92.9822C356.722 89.5982 355.85 85.5636 355.85 80.8781C355.85 75.607 356.722 71.1168 358.465 67.4075C360.272 63.6331 362.79 60.7372 366.018 58.7199C369.311 56.7025 373.216 55.6939 377.735 55.6939C381.48 55.6939 384.708 56.7025 387.419 58.7199C390.131 60.7372 392.196 63.6656 393.617 67.5051C395.037 71.2795 395.747 75.8348 395.747 81.171C395.747 85.8564 395.037 89.8586 393.617 93.1774C392.196 96.4963 390.131 99.0667 387.419 100.889C384.708 102.646 381.48 103.524 377.735 103.524ZM382.674 89.9562C384.417 89.9562 385.902 89.5332 387.129 88.6872C388.42 87.8412 389.42 86.7024 390.131 85.2707C390.841 83.774 391.196 82.082 391.196 80.1948C391.196 78.2426 390.808 76.5506 390.034 75.1189C389.324 73.6222 388.355 72.4834 387.129 71.7025C385.902 70.8565 384.385 70.4335 382.577 70.4335C380.834 70.4335 379.317 70.8565 378.026 71.7025C376.735 72.4834 375.734 73.6222 375.024 75.1189C374.314 76.5506 373.926 78.2426 373.862 80.1948C373.926 82.082 374.314 83.774 375.024 85.2707C375.734 86.7024 376.735 87.8412 378.026 88.6872C379.382 89.5332 380.931 89.9562 382.674 89.9562Z" fill="#4e2b79"/>
	<path d="M450.505 105.672L449.731 96.5939V56.8652H465.999V105.672H450.505ZM436.367 106.843C431.848 106.843 427.942 105.835 424.65 103.817C421.422 101.8 418.904 98.8715 417.097 95.0321C415.354 91.1275 414.482 86.5397 414.482 81.2686C414.482 75.9324 415.354 71.3445 417.097 67.5051C418.904 63.6656 421.422 60.7372 424.65 58.7199C427.942 56.7025 431.848 55.6939 436.367 55.6939C440.434 55.6939 443.791 56.7025 446.438 58.7199C449.085 60.7372 451.054 63.6656 452.345 67.5051C453.701 71.3445 454.379 75.9324 454.379 81.2686C454.379 86.5397 453.701 91.1275 452.345 95.0321C451.054 98.8715 449.085 101.8 446.438 103.817C443.791 105.835 440.434 106.843 436.367 106.843ZM440.725 91.7132C442.468 91.7132 444.017 91.2577 445.373 90.3466C446.793 89.4356 447.891 88.1991 448.665 86.6373C449.44 85.0755 449.828 83.2859 449.828 81.2686C449.828 79.2512 449.44 77.4616 448.665 75.8998C447.891 74.338 446.793 73.1341 445.373 72.2881C444.017 71.3771 442.436 70.9215 440.628 70.9215C438.885 70.9215 437.336 71.3771 435.98 72.2881C434.624 73.1341 433.559 74.338 432.784 75.8998C432.01 77.4616 431.59 79.2512 431.525 81.2686C431.59 83.2859 432.01 85.0755 432.784 86.6373C433.559 88.1991 434.624 89.4356 435.98 90.3466C437.4 91.2577 438.982 91.7132 440.725 91.7132Z" fill="#4e2b79"/>
	<path d="M95.3714 0C106.516 0 115.517 9.06575 115.517 20.29C115.517 31.5143 106.516 40.5801 95.3714 40.5801C84.2269 40.5801 75.2255 31.5143 75.2255 20.29C75.2255 9.06575 84.2269 0 95.3714 0ZM29.933 0C41.0776 0 50.0789 9.06575 50.0789 20.29C50.0789 31.5143 41.0776 40.5801 29.933 40.5801C18.7885 40.5801 9.78717 31.5143 9.78717 20.29C9.78717 9.06575 18.7885 0 29.933 0ZM95.2999 128C77.1544 128 75.6541 97.493 62.6522 97.493C49.6503 97.493 48.15 128 30.0045 128C19.1457 128 0 93.8235 0 62.4531C0 52.1641 2.42893 41.0837 3.78628 36.8387C8.9299 45.9764 18.7171 52.1641 29.8616 52.2361C22.3605 64.8274 21.0031 82.3114 29.933 103.393C34.4337 99.7234 48.9359 73.7493 62.5808 73.7493C76.2971 73.7493 90.7278 99.6515 95.2285 103.393C104.23 82.3114 102.801 64.8274 95.2999 52.2361C106.444 52.1641 116.232 45.9764 121.375 36.8387C122.733 41.0837 125.162 52.1641 125.162 62.4531C125.304 93.8235 106.23 128 95.2999 128Z" fill="#4e2b79"/>
</svg>