<svg xmlns="http://www.w3.org/2000/svg" id="Layer_1" viewBox="0 0 373 140"><defs><style>.cls-1{fill:#184a5c}.cls-2{fill:#70c074}</style></defs><path d="m296.26 67.55.01-17.2h-18.15V79.2h6.12v7.46l10.9-7.58h29.37V67.54l-28.25.01z" class="cls-2"/><path d="M325 65.87V49.45h-26.88v16.42H325Zm-22.88-3.85v-8.71h18.87v8.71h-18.87ZM310.76 46.61l1.24 2.68-2.78-1.19 1.54-1.49zM313.24 46.61 312 49.29l2.79-1.19-1.55-1.49z" class="cls-2"/><path d="M107.39 64.19c8.45-.04 15.32 6.14 15.36 14.39.04 8.42-6.77 14.76-15.17 14.8-8.45.04-15.32-6.25-15.36-14.66-.03-8.26 6.78-14.49 15.17-14.53Zm.18 25.81c6.15-.03 11.19-4.92 11.16-11.4-.03-6.31-5.11-11-11.26-10.97-6.21.03-11.25 4.76-11.22 11.07.03 6.47 5.11 11.32 11.32 11.3ZM125.25 69.24c0-.78-.47-1.22-1.27-1.21h-1.66l-.02-3.26 3.27-.02c2.41-.01 3.51.93 3.52 3.14v1.88c.02 1.16-.09 2.11-.09 2.11h.11c1.36-4.22 4.57-7.44 9.11-7.46.81 0 1.55.16 1.55.16l.02 3.71s-.69-.11-1.44-.1c-4.08.02-7.12 3.13-8.36 7.24-.57 1.77-.79 3.66-.78 5.43l.05 11.74-3.91.02-.1-23.38ZM168.74 85.6s3.24 4.19 8.93 4.17c3.22-.01 6.09-1.52 6.07-4.46-.03-6.09-16.24-4.91-16.28-13.89-.02-5.04 4.45-7.55 10.26-7.58 2.93-.01 8.8 1.07 8.82 5v2.38l-3.67.02v-1.33c-.02-2.05-3.13-2.81-5.03-2.8-4.02.02-6.43 1.36-6.42 4.07.03 6.26 16.24 4.75 16.28 14 .02 4.65-4.33 7.83-10.08 7.85-7.53.03-11.12-4.83-11.12-4.83l2.24-2.6ZM192.14 67.59l-3.79.02v-3.16l3.84-.02-.04-7.7 3.85-.02.04 7.7 7.24-.03v3.16l-7.23.03.07 14.18c.03 6.53 4.35 7.35 6.53 7.34.81 0 1.32-.12 1.32-.12l.02 3.38s-.69.11-1.67.12c-3.33.01-10.07-1.01-10.11-10.31l-.07-14.57ZM223.17 74.98h1.61v-.34c-.04-5.81-2.23-7.85-7.52-7.82-1.44.01-5.63.42-5.62 2.47v1.05l-3.73.02-.02-1.93c-.02-3.88 6.87-4.75 9.4-4.76 9.14-.05 11.36 4.64 11.39 10.62l.08 13.35c0 .83.47 1.22 1.27 1.21h1.66l.02 3.26-3.21.02c-2.47.01-3.46-1.03-3.47-3.3 0-1.22.04-2.05.04-2.05h-.11c.06 0-2.32 6.05-9.56 6.09-4.83.03-9.85-2.66-9.88-8.19-.06-9.27 12.65-9.67 17.65-9.7Zm-7.15 14.66c5.52-.03 8.82-5.59 8.79-10.41v-1.27l-1.68.01c-4.54.03-13.63.19-13.59 6.45.02 2.6 2.16 5.24 6.48 5.22ZM234.54 68.71c0-.78-.47-1.22-1.27-1.21h-1.66l-.02-3.26 3.27-.02c2.41-.01 3.51.93 3.52 3.14v1.88c.02 1.16-.1 2.11-.1 2.11h.12c1.36-4.22 4.57-7.44 9.11-7.46.81 0 1.55.16 1.55.16l.02 3.71s-.69-.11-1.44-.1c-4.08.02-7.12 3.13-8.36 7.24-.57 1.77-.79 3.66-.78 5.43l.05 11.74-3.91.02-.1-23.38ZM251.82 85.19s3.24 4.19 8.93 4.17c3.22-.01 6.09-1.52 6.07-4.46-.03-6.09-16.24-4.91-16.28-13.89-.02-5.04 4.45-7.55 10.26-7.58 2.93-.01 8.8 1.07 8.82 5v2.38l-3.67.02V69.5c-.02-2.05-3.13-2.81-5.03-2.8-4.02.02-6.43 1.36-6.42 4.07.03 6.26 16.24 4.75 16.28 14 .02 4.65-4.33 7.83-10.08 7.85-7.53.03-11.12-4.83-11.12-4.83l2.24-2.6ZM145.85 56.74l.09 18.54h2.99c1.09-.02 2.47-.35 3.27-1.35l7.37-9.34 4.77-.02-8.29 10.23c-1.43 1.72-2.18 2-2.18 2v.11s.87.38 1.79 2.04l5.27 9c.52.94 1.1 1.21 2.65 1.21h.8l.01 3.26h-1.95c-2.87.02-3.68-.42-5.01-2.74l-5.8-9.94c-.64-1.1-2.02-1.21-3.05-1.2h-2.64l.06 13.97-3.91.02-.16-35.78h3.92ZM83.71 92.64h-4.4l-7.22-20.25c-.47-1.41-.88-3.05-.88-3.05h-.12s-.41 1.64-.94 3.05l-7.16 20.25h-4.46l-8.47-23.8c-.35-1.02-.24-1.3-1.3-1.3H48V64.2h1.3c2.82 0 3.76.51 4.64 3.17l6.05 18.04c.47 1.36.88 3.05.88 3.05h.12s.47-1.7.94-3.05l7.22-21.09h3.99l7.22 21.09c.47 1.36.94 3.05.94 3.05h.12" class="cls-1"/><path d="M60.85 88.46h.12s.47-1.7.94-3.05l7.22-21.09h3.99l7.22 21.09c.47 1.36.94 3.05.94 3.05h.12s.41-1.7.88-3.05l6.05-18.04c.88-2.66 1.82-3.17 4.64-3.17h1.3v3.34h-.01c-1.06 0-1.7.28-2.06 1.3l-8.45 23.81h-4.46L72.13 72.4c-.53-1.41-.94-3.05-.94-3.05h-.12s-.41 1.64-.88 3.05l-7.22 20.25h-4.4" class="cls-1"/></svg>