<?xml version="1.0" ?>
<svg xmlns="http://www.w3.org/2000/svg" viewBox="0 0 539.2 81.7">
	<defs>
		<style>
      .cls-1 {
        fill: #002d5c;
      }
      .cls-2 {
        fill: none;
        stroke: #5f6973;
        stroke-miterlimit: 10;
      }
      .cls-3 {
        fill: #fff;
      }
      .cls-4 {
        fill: #001c23;
      }
      .cls-5 {
        fill: url(#linear-gradient-2);
      }
      .cls-5, .cls-6 {
        isolation: isolate;
        opacity: .7;
      }
      .cls-6 {
        fill: url(#linear-gradient);
      }
    </style>
		<linearGradient gradientUnits="userSpaceOnUse" gradientTransform="translate(0 -307.3)" y2="352.5" x2="19.3" y1="354.9" x1="23.6" id="linear-gradient">
			<stop stop-opacity="0" stop-color="#4d4a4a" offset="0"/>
			<stop stop-color="#221f1f" offset="1"/>
		</linearGradient>
		<linearGradient gradientUnits="userSpaceOnUse" gradientTransform="translate(0 -307.3)" y2="349.4" x2="34.8" y1="353.3" x1="41.9" id="linear-gradient-2">
			<stop stop-opacity="0" stop-color="#221f1f" offset="0"/>
			<stop stop-opacity="0" stop-color="#221f1f" offset="0"/>
			<stop stop-opacity=".3" stop-color="#221f1f" offset=".2"/>
			<stop stop-opacity=".5" stop-color="#221f1f" offset=".4"/>
			<stop stop-opacity=".7" stop-color="#221f1f" offset=".5"/>
			<stop stop-opacity=".8" stop-color="#221f1f" offset=".7"/>
			<stop stop-opacity=".9" stop-color="#221f1f" offset=".8"/>
			<stop stop-opacity=".9" stop-color="#221f1f" offset="1"/>
		</linearGradient>
	</defs>
	<g>
		<g id="Layer_1">
			<g id="Layer_1-2">
				<g id="ww-logo">
					<g id="w-circle">
						<circle r="40.8" cy="40.8" cx="40.8" class="cls-1"/>
						<g id="_Group_5">
							<g>
								<path d="M6.5,40.6c1.6.3,3.1-.7,3.4-2.3h0c.3-1.6-.7-3.1-2.3-3.4-1.6-.3-3.1.7-3.4,2.3-.3,1.6.7,3.1,2.3,3.4h0Z" class="cls-3"/>
								<path d="M13,45.4c0-.2,0-.3-.1-.5l-.3-1c-.4-1.8-2.2-3-4-2.6s-3,2.2-2.6,4c0,.2,0,.3,0,.5l.3,1c.4,1.8,2.2,3,4,2.6s3-2.2,2.6-4Z" class="cls-3"/>
								<path d="M70,20.2c-2.9-1.4-4.6,1.7-4.6,1.7l-12.7,30.1s-5.4-16.5-5.6-17.1h0v.2h0v-.5c0,0-2-5.8-2-5.8-.3-1.1-1-1.9-2-2.4-1.8-.8-3.9,0-4.7,1.8l-8.1,19.3-2.8-8.1h0v-.2l-.3-1-1.8-5.3h0c-.3-1-1-1.7-1.8-2h0c-1.8-.8-3.9,0-4.7,1.8l-4,10.6v.3c-.9,1.7-.1,3.7,1.6,4.5,1.4.6,3,.2,4-.9.2-.3.4-.6.6-.9l.8-1.9,4.8,14.6c.6,1.9,2.6,2.9,4.4,2.3,1-.3,1.8-1,2.2-1.9l8.2-19.5h0l7.8,23.8c.5,1.3,1.7,2.1,3.1,2.1,2.4,0,3.4-2.1,3.4-2.1l16.4-39.3s.9-2.9-1.9-4.3h-.3ZM43,35.8l.2-.4h0l-.2.4Z" class="cls-3"/>
								<path d="M15.9,49.5c-1.7-.8-3.7,0-4.5,1.7l-1.1,2.4c-.7,1.7,0,3.6,1.7,4.4,1.7.8,3.7,0,4.5-1.6l.9-2.1c.8-1.7.1-4.1-1.6-4.8h.1Z" class="cls-3"/>
							</g>
							<path d="M30.3,47.5l-2.8-8.1h0c-.3-.9-1.1-1.8-2.3-1.4-.9.3-1.4,1.2-1.6,1.7l-2,4.8,4.8,14.6c.6,1.9,2.6,2.9,4.4,2.3,1-.3,1.8-1,2.2-1.9l.7-1.7-3.5-10.3h0Z" class="cls-6" id="_Path_9"/>
							<path d="M52.6,51.9h0l-.9-2.9-4.6-14c-.3-.9-1.1-1.8-2.3-1.4-.9.3-1.4,1.2-1.6,1.7l-2,4.6h0l7.8,23.8c.5,1.3,1.7,2.1,3.1,2.1,2.4,0,3.4-2.1,3.4-2.1l.5-1.3s-3.4-10.5-3.4-10.5Z" class="cls-5" id="_Path_10"/>
						</g>
					</g>
					<g id="workwave">
						<path d="M365.2,26.9c0,1.7-1.3,3.1-3.1,3.1s-3.1-1.4-3.1-3.1,1.4-3.1,3.1-3.1,3.1,1.4,3.1,3.1ZM359.5,26.9c0,1.5,1.1,2.7,2.6,2.7s2.6-1.2,2.6-2.7-1.1-2.8-2.6-2.8-2.6,1.2-2.6,2.7h0ZM361.7,28.6h-.7v-3.1h1.2c.5,0,.8,0,1,.2.2.1.3.4.3.7s-.3.6-.6.7h0c.3.1.5.4.6.8,0,.5.1.7.2.8h-.8c0-.1-.1-.4-.2-.7,0-.3-.2-.5-.6-.5h-.3v1.2h-.1ZM361.7,26.8h.3c.4,0,.7-.1.7-.5s-.2-.5-.6-.5h-.4v.9h0Z" class="cls-4"/>
						<g>
							<path d="M123.9,25c-1.2,0-2.3.8-2.7,2l-5.5,17.1-4.9-17.1c-.3-1.1-1.4-2-2.6-2s-2.2.8-2.6,2l-4.9,17.1-5.5-17.1c-.4-1.1-1.5-2-2.7-2s-2.8,1.3-2.8,2.8,7.4,23.6,8.4,26.4c.4,1.1,1.5,2,2.7,2s2.4-.8,2.7-2l4.8-16.7,4.8,16.7c.3,1.2,1.4,2,2.6,2s2.3-.8,2.7-2c.9-2.8,8.4-25.1,8.4-26.4s-1.3-2.8-2.8-2.8" class="cls-4"/>
							<path d="M217.2,37l7.2-7.1c.5-.5.9-1.2.9-2,0-1.6-1.3-2.8-2.8-2.8s-1.5.3-2,.8l-13.2,13v-10.7c0-1.6-1.3-3.1-3-3.1s-3.1,1.4-3.1,3.1v25.1c0,1.7,1.4,3.1,3.1,3.1s3-1.4,3-3.1v-6.4c1.9-1.9,3.9-3.8,5.8-5.7l8.6,13.8c.5.8,1.5,1.4,2.4,1.4,1.6,0,2.8-1.3,2.8-2.8s-.1-1-.4-1.5l-9.2-15h-.1Z" class="cls-4"/>
							<path d="M266.8,25c-1.2,0-2.3.8-2.7,2l-5.5,17.1-4.9-17.1c-.3-1.1-1.4-2-2.6-2s-2.2.8-2.6,2l-4.9,17.1-5.5-17.1c-.4-1.1-1.5-2-2.7-2s-2.8,1.3-2.8,2.8,7.4,23.6,8.4,26.4c.4,1.1,1.5,2,2.7,2s2.4-.8,2.7-2l4.8-16.7,4.8,16.7c.3,1.2,1.4,2,2.6,2s2.3-.8,2.7-2c.9-2.8,8.4-25.1,8.4-26.4s-1.3-2.8-2.8-2.8" class="cls-4"/>
							<path d="M324.6,25c-1.1,0-2.1.6-2.6,1.6l-8.5,20.4-8.5-20.4c-.4-1-1.5-1.6-2.6-1.6s-2.8,1.4-2.8,2.9,0,.8.2,1.1l11.1,25.5c.5,1,1.5,1.6,2.6,1.6s2.1-.6,2.6-1.6l11-25.5c.2-.4.3-.8.3-1.2,0-1.6-1.3-2.8-2.8-2.8" class="cls-4"/>
							<path d="M354.6,50.1h-14.2v-6.8h7.5c1.6,0,2.8-1.2,2.8-2.8s-1.3-2.9-2.8-2.9h-7.5v-6.5h13.6c1.6,0,2.9-1.3,2.9-2.9s-1.3-2.8-2.9-2.8h-16.6c-1.7,0-3.1,1.3-3.1,3v24.3c0,1.7,1.4,3.1,3.1,3.1h17.3c1.6,0,2.9-1.2,2.9-2.8s-1.3-2.9-2.9-2.9" class="cls-4"/>
							<path d="M146.3,24.9c-8.8,0-15.6,7-15.6,15.7s6.8,15.8,15.6,15.8,15.6-7,15.6-15.8-6.8-15.7-15.6-15.7M146.3,50.8c-5.7,0-9.5-4.6-9.5-10.2s3.8-10.1,9.5-10.1,9.5,4.5,9.5,10.1-3.8,10.2-9.5,10.2" class="cls-4"/>
							<path d="M193.9,34.6c0-6.7-5.1-9.1-11.1-9.1h-11.3c-1.7,0-3,1.3-3,3v24.7c0,1.7,1.3,3,3,3s3.1-1.3,3.1-3v-9.6h8.4c0,.2,5,10.1,5.4,11,.5,1,1.5,1.6,2.6,1.6,1.6,0,3-1.3,3-2.9s-4.1-9-5-10.8c3.3-1.4,5-4.4,5-7.9M183.7,38.4h-9.1v-7.3h9.1c2.3,0,4.2,1.3,4.2,3.7s-1.9,3.6-4.2,3.6" class="cls-4"/>
							<path d="M270.8,52.2c-.1.4-.2.8-.2,1.2,0,1.6,1.2,2.8,2.8,2.8s1.3-.2,1.7-.7c.3-.2.6-.5.8-.9.2-.4,3.9-7.9,14.2-9l4,9c.5,1,1.5,1.6,2.6,1.6,1.6,0,2.9-1.3,2.9-2.9s0-.8-.3-1.1l-11.7-25.5c-.4-1-1.4-1.6-2.5-1.6s-2.1.6-2.6,1.6l-11.6,25.5h0ZM288,40.8c-2.7.4-5,1.3-6.9,2.2l4-8.7,2.9,6.5Z" class="cls-4"/>
						</g>
					</g>
					<g>
						<path d="M408.7,25.3v2.5h-13.2v11.4h11.1v2.5h-11.1v14h-3v-30.5h16.2Z" class="cls-4"/>
						<path d="M413.6,26.8c-.4-.4-.6-1-.6-1.6s.2-1.2.6-1.6.9-.6,1.5-.6,1.1.2,1.5.6.6,1,.6,1.6-.2,1.2-.6,1.6-.9.7-1.5.7-1.1-.2-1.5-.7ZM416.6,31.9v23.8h-3v-23.8s3,0,3,0Z" class="cls-4"/>
						<path d="M441.3,34.1c1.8,1.8,2.7,4.3,2.7,7.7v14h-3v-13.6c0-2.6-.6-4.6-1.9-5.9-1.3-1.4-3-2-5.2-2s-4.1.7-5.4,2.2-2,3.6-2,6.4v13h-3v-23.8h3v4.1c.7-1.5,1.8-2.6,3.2-3.3,1.4-.8,3-1.2,4.8-1.2,2.8,0,5.1.9,6.9,2.6v-.2Z" class="cls-4"/>
						<path d="M454.5,34.5v14.8c0,1.5.3,2.5.8,3,.5.6,1.5.8,2.9.8h2.7v2.6h-3.2c-2.1,0-3.7-.5-4.7-1.5s-1.5-2.7-1.5-5v-14.8h-3.3v-2.6h3.3v-6h3v6h6.4v2.6h-6.4,0Z" class="cls-4"/>
						<path d="M486.9,45h-19.4c0,1.8.5,3.3,1.3,4.6s1.8,2.2,3,2.9,2.6,1,4.1,1,3.6-.5,4.9-1.4c1.3-1,2.2-2.3,2.6-3.9h3.2c-.6,2.3-1.8,4.2-3.7,5.7-1.9,1.5-4.2,2.2-7.1,2.2s-4.2-.5-5.9-1.5c-1.7-1-3.1-2.4-4.1-4.3-1-1.8-1.5-4-1.5-6.5s.5-4.6,1.5-6.5,2.3-3.3,4.1-4.3c1.7-1,3.7-1.5,6-1.5s4.2.5,5.9,1.5c1.7,1,3,2.3,3.9,4s1.4,3.5,1.4,5.6v2.4h-.2ZM482.9,38c-.7-1.2-1.7-2.2-3-2.8s-2.6-1-4.1-1c-2.2,0-4.1.7-5.7,2.2s-2.4,3.5-2.6,6.1h16.5c0-1.8-.3-3.3-1.1-4.5h0Z" class="cls-4"/>
						<path d="M492.6,37.4c1-1.8,2.3-3.3,4-4.3s3.7-1.5,5.9-1.5,5.3.7,7.1,2.2c1.9,1.5,3.1,3.4,3.6,5.9h-3.2c-.4-1.7-1.3-3.1-2.6-4-1.3-1-3-1.5-5-1.5s-3,.4-4.2,1.1c-1.3.7-2.2,1.8-3,3.2-.7,1.4-1.1,3.2-1.1,5.3s.4,3.9,1.1,5.3c.7,1.5,1.7,2.5,3,3.3,1.3.7,2.7,1.1,4.2,1.1s3.6-.5,5-1.5c1.3-1,2.2-2.3,2.6-4.1h3.2c-.5,2.4-1.8,4.4-3.6,5.9-1.9,1.5-4.3,2.2-7.1,2.2s-4.2-.5-5.9-1.5-3.1-2.4-4-4.3c-1-1.8-1.5-4-1.5-6.5s.5-4.6,1.5-6.5v.2Z" class="cls-4"/>
						<path d="M534.7,32.6c1.4.8,2.5,1.9,3.3,3.5s1.2,3.5,1.2,5.7v14h-3v-13.6c0-2.6-.6-4.6-1.9-5.9-1.3-1.4-3-2-5.2-2s-4.1.7-5.4,2.2c-1.3,1.5-2,3.6-2,6.4v13h-3V23.5h3v12.5c.7-1.4,1.8-2.5,3.3-3.3,1.4-.8,3.1-1.2,4.9-1.2s3.4.4,4.8,1.1h0Z" class="cls-4"/>
					</g>
					<line y2="74.1" x2="375.7" y1="7.6" x1="375.7" class="cls-2"/>
				</g>
			</g>
		</g>
	</g>
</svg>