<svg xmlns="http://www.w3.org/2000/svg" viewBox="0 0 180 30.561">
  <path id="logo-workramp" d="M57.166,24.546l-2.319-8.6-2.3,8.6H49.557L45.772,12.018h3.149l2.32,9.054,2.516-9.054h2.2l2.5,9.054,2.318-9.054h3.15L60.158,24.547Zm20.941-6.255a4.013,4.013,0,1,0-8.024,0,4.013,4.013,0,1,0,8.024,0Zm-10.917,0c0-3.775,2.911-6.48,6.915-6.48,3.983,0,6.9,2.7,6.9,6.48s-2.913,6.48-6.9,6.48C70.1,24.771,67.19,22.066,67.19,18.291ZM93.7,16.036a1.75,1.75,0,0,0-1.961-1.672H88.765v3.381h2.973A1.755,1.755,0,0,0,93.7,16.036Zm-.278,8.509-2.6-4.451H88.764v4.451H85.951V12.018h6.183c2.753,0,4.458,1.709,4.458,4.039a3.664,3.664,0,0,1-2.913,3.718l2.991,4.772Zm16.088,0-4-5.034-1.032,1.183v3.851h-2.813V12.018h2.813V17.6l4.677-5.579h3.468L107.369,17.9l5.607,6.65Zm15.473-8.509a1.75,1.75,0,0,0-1.962-1.672h-2.973v3.381h2.973A1.754,1.754,0,0,0,124.982,16.036Zm-.277,8.509-2.6-4.451h-2.061v4.451h-2.814V12.018h6.183c2.754,0,4.458,1.709,4.458,4.039a3.664,3.664,0,0,1-2.913,3.718l2.992,4.772Zm13.708-9.861-2.06,5.391h4.121Zm3.666,9.861-.832-2.123h-5.668l-.833,2.123h-3.19l5.092-12.529h3.528l5.093,12.529Zm18.882,0V15.511l-3.727,9.035h-1.227l-3.726-9.035v9.035h-2.814V12.018h3.943l3.21,7.832,3.211-7.832h3.963V24.547Zm16.166-8.491a1.752,1.752,0,0,0-1.963-1.689h-2.973v3.361h2.973a1.75,1.75,0,0,0,1.963-1.671Zm-7.749,8.491V12.018h6.183c2.873,0,4.438,1.841,4.438,4.039,0,2.179-1.586,4.02-4.438,4.02h-3.369v4.47h-2.814ZM16.859,15.962,32.3,30.6V15.962Zm-.12-.688H32.3V.523Zm-.392,15.81h15.44L16.346,16.448ZM0,31.084H15.561V16.333Z" transform="translate(0 -0.523)" fill="#263889" fill-rule="evenodd"/>
</svg>