<?xml version="1.0" ?>
<svg xmlns="http://www.w3.org/2000/svg"  zoomAndPan="magnify" viewBox="0 0 224.87999 225" preserveAspectRatio="xMidYMid meet" version="1.0">
	<defs>
		<clipPath id="c9510c8d16">
			<path d="M 0 0.0585938 L 224.761719 0.0585938 L 224.761719 224.9375 L 0 224.9375 Z M 0 0.0585938 " clip-rule="nonzero"/>
		</clipPath>
	</defs>
	<g clip-path="url(#c9510c8d16)">
		<path fill="#ffffff" d="M 0 0.0585938 L 224.878906 0.0585938 L 224.878906 224.941406 L 0 224.941406 Z M 0 0.0585938 " fill-opacity="1" fill-rule="nonzero"/>
		<path fill="#ffffff" d="M 0 0.0585938 L 224.878906 0.0585938 L 224.878906 224.941406 L 0 224.941406 Z M 0 0.0585938 " fill-opacity="1" fill-rule="nonzero"/>
		<path fill="#ffffff" d="M 0 0.0585938 L 224.878906 0.0585938 L 224.878906 224.941406 L 0 224.941406 Z M 0 0.0585938 " fill-opacity="1" fill-rule="nonzero"/>
	</g>
	<path fill="#000000" d="M 144.824219 64.226562 L 144.824219 83.117188 L 150.21875 83.117188 L 150.21875 45.335938 L 144.824219 45.335938 Z M 144.824219 64.226562 " fill-opacity="1" fill-rule="nonzero"/>
	<path fill="#000000" d="M 174.207031 50.851562 L 174.207031 56.429688 L 169.289062 56.25 C 162.933594 56.011719 160.773438 57.03125 158.617188 61.289062 C 157.296875 63.867188 157.117188 65.003906 157.117188 70.222656 C 157.117188 77.597656 158.433594 81.136719 161.792969 82.695312 C 164.371094 83.957031 168.449219 84.015625 171.75 82.816406 C 173.066406 82.335938 174.207031 82.214844 174.207031 82.515625 C 174.207031 82.875 175.585938 83.117188 177.207031 83.117188 L 180.203125 83.117188 L 180.203125 45.335938 L 174.207031 45.335938 Z M 174.085938 69.441406 L 174.265625 77.660156 L 171.988281 78.257812 C 168.511719 79.277344 165.929688 79.039062 164.613281 77.71875 C 162.992188 76.097656 162.632812 74.300781 162.875 68.785156 C 163.113281 64.707031 163.351562 63.804688 164.613281 62.425781 C 165.929688 61.046875 166.410156 60.867188 170.007812 61.046875 L 173.90625 61.226562 Z M 174.085938 69.441406 " fill-opacity="1" fill-rule="nonzero"/>
	<path fill="#000000" d="M 48.035156 56.25 C 49.113281 61.648438 50.671875 69.863281 51.574219 74.601562 L 53.191406 83.175781 L 58.050781 82.996094 L 62.90625 82.816406 L 66.023438 68.421875 C 67.703125 60.507812 69.261719 54.449219 69.503906 54.929688 C 69.683594 55.410156 71.121094 61.886719 72.679688 69.324219 L 75.558594 82.816406 L 80.355469 82.996094 L 85.15625 83.175781 L 88.8125 64.824219 L 92.46875 46.535156 L 86.292969 46.535156 L 83.714844 62.425781 C 81.976562 72.921875 80.835938 78.316406 80.355469 78.316406 C 79.9375 78.316406 78.316406 72.441406 76.160156 62.425781 L 72.621094 46.535156 L 65.84375 46.535156 L 62.367188 62.425781 C 60.207031 72.023438 58.527344 78.316406 58.109375 78.316406 C 57.6875 78.316406 56.488281 72.5 54.8125 62.425781 L 52.230469 46.535156 L 46.054688 46.535156 Z M 48.035156 56.25 " fill-opacity="1" fill-rule="nonzero"/>
	<path fill="#000000" d="M 100.6875 57.269531 C 96.847656 59.007812 95.347656 62.605469 95.347656 69.921875 C 95.347656 80.058594 98.347656 83.65625 106.921875 83.714844 C 113.519531 83.714844 116.578125 81.554688 118.136719 75.621094 C 119.277344 71.121094 119.277344 68.722656 118.136719 64.226562 C 116.578125 58.289062 113.519531 56.128906 106.921875 56.128906 C 104.523438 56.128906 102.246094 56.550781 100.6875 57.269531 Z M 110.640625 61.527344 C 112.199219 62.367188 113.039062 65.304688 113.039062 69.921875 C 113.039062 74.539062 112.199219 77.480469 110.640625 78.316406 C 108.722656 79.335938 104.285156 79.039062 102.785156 77.777344 C 101.527344 76.757812 101.347656 76.039062 101.105469 71.480469 C 100.867188 65.484375 101.226562 63.746094 102.84375 62.125 C 104.164062 60.808594 108.660156 60.449219 110.640625 61.527344 Z M 110.640625 61.527344 " fill-opacity="1" fill-rule="nonzero"/>
	<path fill="#000000" d="M 134.207031 57.929688 L 130.429688 59.667969 L 130.429688 58.230469 C 130.429688 56.851562 130.191406 56.730469 127.730469 56.730469 L 125.035156 56.730469 L 125.035156 83.117188 L 130.371094 83.117188 L 130.730469 64.40625 L 132.828125 63.566406 C 133.96875 63.144531 136.066406 62.488281 137.507812 62.125 C 140.023438 61.46875 140.023438 61.46875 140.023438 58.828125 C 140.023438 55.53125 139.425781 55.410156 134.207031 57.929688 Z M 134.207031 57.929688 " fill-opacity="1" fill-rule="nonzero"/>
	<path fill="#000000" d="M 88.03125 92.109375 C 85.933594 92.949219 84.855469 95.230469 84.433594 99.546875 C 84.136719 103.203125 83.957031 103.503906 82.695312 103.503906 C 81.4375 103.503906 81.257812 103.804688 81.257812 105.902344 C 81.257812 108.0625 81.4375 108.300781 82.753906 108.300781 L 84.253906 108.300781 L 84.253906 129.890625 L 90.25 129.890625 L 90.25 108.300781 L 96.847656 108.300781 L 96.847656 103.503906 L 90.25 103.503906 L 90.25 100.867188 C 90.25 97.269531 91.453125 96.128906 94.871094 96.429688 L 97.449219 96.609375 L 97.449219 94.449219 C 97.449219 92.652344 97.207031 92.171875 96.128906 91.871094 C 94.148438 91.390625 89.59375 91.511719 88.03125 92.109375 Z M 88.03125 92.109375 " fill-opacity="1" fill-rule="nonzero"/>
	<path fill="#000000" d="M 59.367188 103.746094 C 55.289062 105.542969 53.492188 109.5 53.492188 116.757812 C 53.492188 121.074219 53.730469 122.453125 54.929688 124.851562 C 57.03125 129.109375 58.828125 130.128906 64.34375 130.371094 C 68.242188 130.550781 69.382812 130.371094 71.601562 129.171875 C 75.679688 127.070312 76.757812 124.492188 76.757812 116.699219 C 76.757812 108.902344 75.679688 106.324219 71.660156 104.222656 C 68.601562 102.664062 62.367188 102.425781 59.367188 103.746094 Z M 69.503906 109.082031 C 72.203125 111.78125 72.203125 121.613281 69.503906 124.3125 C 68.421875 125.394531 67.464844 125.691406 65.183594 125.691406 C 61.046875 125.691406 59.667969 124.074219 59.25 118.917969 C 58.828125 114.121094 59.308594 111.300781 60.925781 109.261719 C 62.605469 107.101562 67.402344 106.984375 69.503906 109.082031 Z M 69.503906 109.082031 " fill-opacity="1" fill-rule="nonzero"/>
	<path fill="#000000" d="M 124.433594 159.574219 L 124.433594 178.464844 L 129.832031 178.464844 L 129.832031 140.683594 L 124.433594 140.683594 Z M 124.433594 159.574219 " fill-opacity="1" fill-rule="nonzero"/>
	<path fill="#000000" d="M 48.035156 151.597656 C 49.113281 156.996094 50.671875 165.210938 51.574219 169.949219 L 53.191406 178.523438 L 58.050781 178.34375 L 62.90625 178.164062 L 66.023438 163.773438 C 67.703125 155.855469 69.261719 149.800781 69.503906 150.28125 C 69.683594 150.757812 71.121094 157.234375 72.679688 164.671875 L 75.558594 178.164062 L 80.355469 178.34375 L 85.15625 178.523438 L 88.8125 160.175781 L 92.46875 141.882812 L 86.292969 141.882812 L 83.714844 157.777344 C 81.976562 168.269531 80.835938 173.667969 80.355469 173.667969 C 79.9375 173.667969 78.316406 167.789062 76.160156 157.777344 L 72.621094 141.882812 L 65.84375 141.882812 L 62.367188 157.777344 C 60.207031 167.371094 58.527344 173.667969 58.109375 173.667969 C 57.6875 173.667969 56.488281 167.851562 54.8125 157.777344 L 52.230469 141.882812 L 46.054688 141.882812 Z M 48.035156 151.597656 " fill-opacity="1" fill-rule="nonzero"/>
	<path fill="#000000" d="M 138.824219 148.179688 L 138.824219 152.078125 L 136.96875 152.078125 C 135.226562 152.078125 135.167969 152.199219 135.347656 154.296875 C 135.527344 156.277344 135.765625 156.578125 137.207031 156.757812 L 138.824219 156.9375 L 138.824219 164.550781 C 138.824219 177.144531 140.085938 179.246094 147.460938 178.945312 L 151.71875 178.765625 L 151.898438 176.484375 L 152.078125 174.265625 L 149.199219 174.265625 C 147.582031 174.265625 145.960938 173.96875 145.542969 173.546875 C 145.0625 173.066406 144.824219 170.25 144.824219 164.851562 L 144.824219 156.875 L 152.019531 156.875 L 152.019531 152.078125 L 144.824219 152.078125 L 144.824219 144.28125 L 138.824219 144.28125 Z M 138.824219 148.179688 " fill-opacity="1" fill-rule="nonzero"/>
	<path fill="#000000" d="M 98.765625 152.140625 C 96.488281 152.679688 96.1875 152.917969 96.488281 154.058594 C 96.667969 154.777344 96.847656 155.617188 96.847656 155.976562 C 96.847656 156.335938 99.128906 156.515625 102.964844 156.398438 C 109.800781 156.15625 110.640625 156.578125 110.640625 160.234375 L 110.640625 162.09375 L 106.023438 162.511719 C 97.207031 163.351562 94.628906 165.632812 95.167969 172.226562 C 95.589844 176.90625 97.328125 178.585938 102.183594 178.945312 C 104.464844 179.125 106.742188 178.882812 108.480469 178.285156 C 110.941406 177.445312 111.480469 177.445312 113.339844 178.226562 C 116.339844 179.425781 118.4375 179.363281 118.4375 177.925781 C 118.4375 177.265625 118.617188 176.367188 118.796875 175.886719 C 118.976562 175.347656 118.617188 174.925781 117.898438 174.6875 C 116.699219 174.386719 116.636719 173.90625 116.636719 166.949219 C 116.578125 158.195312 116.039062 155.4375 113.9375 153.339844 C 112.558594 151.898438 111.960938 151.777344 106.863281 151.660156 C 103.863281 151.597656 100.148438 151.839844 98.765625 152.140625 Z M 110.640625 169.710938 C 110.640625 174.027344 110.761719 173.90625 105.722656 174.566406 C 103.386719 174.925781 102.785156 174.808594 101.707031 173.726562 C 100.148438 172.167969 100.085938 170.007812 101.585938 168.210938 C 102.484375 167.070312 103.503906 166.710938 106.5625 166.410156 C 108.601562 166.230469 110.402344 165.992188 110.519531 165.992188 C 110.582031 165.929688 110.640625 167.609375 110.640625 169.710938 Z M 110.640625 169.710938 " fill-opacity="1" fill-rule="nonzero"/>
</svg>
