<?xml version="1.0" ?>
<svg xmlns="http://www.w3.org/2000/svg" viewBox="0 0 793.70135 1122.52">
	<defs id="defs6">
		<clipPath id="clipPath18" clipPathUnits="userSpaceOnUse">
			<path id="path16" d="M 0,841.89 H 595.276 V 0 H 0 Z"/>
		</clipPath>
	</defs>
	<g transform="matrix(1.3333333,0,0,-1.3333333,0,1122.52)" id="g10">
		<g id="g12">
			<g clip-path="url(#clipPath18)" id="g14">
				<g transform="translate(210.3652,465.3862)" id="g20">
					<path id="path22" style="fill:#68696b;fill-opacity:1;fill-rule:nonzero;stroke:none" d="M 0,0 C 0,0 -8.157,-30.069 -10.663,-39.311 -12.994,-30.036 -20.542,0 -20.542,0 h -20.294 c 0,0 -7.341,-29.973 -9.638,-39.352 C -52.998,-30.014 -61.117,0 -61.117,0 h -22.847 l 21.877,-69 h 21.331 c 0,0 7.5,29.588 9.855,38.882 C -28.443,-39.393 -20.597,-69 -20.597,-69 H 0.593 L 22.338,0 Z"/>
				</g>
				<g transform="translate(258.0518,413.3398)" id="g24">
					<path id="path26" style="fill:#68696b;fill-opacity:1;fill-rule:nonzero;stroke:none" d="m 0,0 v 0.002 c -1.75,1.018 -3.172,2.4 -4.227,4.112 -1.103,1.787 -1.895,3.836 -2.353,6.094 -0.48,2.353 -0.722,4.798 -0.722,7.274 0,2.481 0.244,4.95 0.723,7.344 0.459,2.292 1.245,4.335 2.342,6.075 1.061,1.682 2.495,3.076 4.26,4.143 1.723,1.04 3.953,1.568 6.633,1.568 2.684,0 4.942,-0.53 6.709,-1.576 1.801,-1.064 3.251,-2.457 4.312,-4.138 1.094,-1.734 1.882,-3.779 2.344,-6.075 0.477,-2.391 0.72,-4.863 0.72,-7.341 0,-2.473 -0.243,-4.921 -0.72,-7.274 C 19.56,7.95 18.767,5.897 17.668,4.114 16.599,2.384 15.198,1.043 13.391,0.01 11.617,-1.003 9.353,-1.516 6.656,-1.516 3.965,-1.516 1.727,-1.007 0,0 M -7.903,51.228 H -7.9 c -4.342,-1.729 -8.119,-4.207 -11.229,-7.361 -3.112,-3.162 -5.542,-7.034 -7.224,-11.507 -1.668,-4.442 -2.515,-9.442 -2.515,-14.857 0,-5.424 0.847,-10.401 2.517,-14.802 1.681,-4.428 4.111,-8.278 7.222,-11.436 3.112,-3.16 6.895,-5.619 11.242,-7.307 4.315,-1.675 9.208,-2.522 14.543,-2.522 5.332,0 10.245,0.847 14.6,2.52 4.391,1.689 8.196,4.146 11.31,7.309 3.113,3.161 5.546,7.008 7.228,11.436 1.672,4.401 2.52,9.378 2.52,14.802 0,5.415 -0.848,10.415 -2.519,14.857 -1.683,4.473 -4.116,8.344 -7.229,11.507 -3.11,3.158 -6.912,5.634 -11.294,7.364 -4.359,1.719 -9.279,2.591 -14.616,2.591 -5.341,0 -10.239,-0.872 -14.559,-2.594"/>
				</g>
				<g transform="translate(338.2607,466.0635)" id="g28">
					<path id="path30" style="fill:#68696b;fill-opacity:1;fill-rule:nonzero;stroke:none" d="m 0,0 v 0 c -2.255,-0.724 -4.404,-1.755 -6.385,-3.061 -1.994,-1.314 -3.786,-2.928 -5.326,-4.789 -0.159,-0.191 -0.276,-0.406 -0.429,-0.599 v 7.761 h -20.663 v -68.989 h 21.55 v 31.271 c 0,2.797 0.282,5.423 0.835,7.799 0.532,2.272 1.429,4.28 2.665,5.969 1.201,1.639 2.82,2.958 4.814,3.918 2.014,0.972 4.552,1.462 7.542,1.462 l 3.216,-0.178 4.958,-0.72 0.098,2.096 V 0.004 L 11.561,0.393 C 9.967,0.861 8.475,1.099 7.129,1.099 4.677,1.099 2.279,0.729 0,0"/>
				</g>
				<path id="path32" style="fill:#68696b;fill-opacity:1;fill-rule:nonzero;stroke:none" d="m 356.19,396.387 h 21.564 v 93.845 H 356.19 Z"/>
				<g transform="translate(412.4619,413.3809)" id="g34">
					<path id="path36" style="fill:#68696b;fill-opacity:1;fill-rule:nonzero;stroke:none" d="m 0,0 c -1.74,1.073 -3.207,2.504 -4.36,4.249 -1.178,1.785 -2.049,3.859 -2.589,6.16 -0.554,2.376 -0.837,4.786 -0.837,7.16 0,2.547 0.264,5.03 0.778,7.369 0.501,2.265 1.317,4.299 2.416,6.048 1.057,1.675 2.483,3.043 4.24,4.067 1.729,1.007 3.929,1.518 6.537,1.518 2.591,0 4.74,-0.503 6.378,-1.502 1.691,-1.026 3.087,-2.386 4.155,-4.036 1.092,-1.692 1.877,-3.689 2.334,-5.937 0.479,-2.355 0.722,-4.846 0.722,-7.401 0,-2.559 -0.243,-5.071 -0.722,-7.468 C 18.587,7.917 17.813,5.84 16.748,4.05 15.714,2.323 14.373,0.979 12.641,-0.049 10.957,-1.051 8.784,-1.557 6.185,-1.557 3.758,-1.557 1.678,-1.034 0,0 M 19.129,76.851 V 46.992 c -1.702,1.672 -3.653,3.081 -5.905,4.146 -3.725,1.754 -7.704,2.643 -11.829,2.643 -5.074,0 -9.61,-1.026 -13.477,-3.053 -3.836,-2.009 -7.076,-4.707 -9.63,-8.021 -2.524,-3.279 -4.455,-7.111 -5.732,-11.393 -1.265,-4.237 -1.906,-8.686 -1.906,-13.223 0,-4.701 0.641,-9.293 1.903,-13.65 1.275,-4.4 3.199,-8.357 5.717,-11.758 2.558,-3.456 5.851,-6.23 9.793,-8.246 3.947,-2.021 8.56,-3.042 13.713,-3.042 4.537,0 8.681,0.839 12.315,2.498 2.24,1.026 4.203,2.496 5.936,4.296 v -5.153 h 20.746 v 93.815 z"/>
				</g>
				<g transform="translate(175.4067,372.1279)" id="g38">
					<path id="path40" style="fill:#68696b;fill-opacity:1;fill-rule:nonzero;stroke:none" d="m 0,0 v -12.818 c 0.001,-3.613 -0.399,-4.872 -1.316,-6.021 -1.435,-1.86 -3.841,-2.78 -5.991,-2.78 -0.518,0 -7.111,0 -7.139,7.224 h 5.759 c 0.06,-0.974 0.202,-2.465 1.636,-2.465 1.635,0 1.635,1.721 1.635,2.692 l 0,14.168 z"/>
				</g>
				<g transform="translate(209.8696,355.2676)" id="g42">
					<path id="path44" style="fill:#68696b;fill-opacity:1;fill-rule:nonzero;stroke:none" d="M 0,0 C 3.842,0 5.704,3.497 5.704,6.223 5.703,8.975 3.842,12.501 -0.058,12.501 -3.814,12.501 -5.85,9.288 -5.85,6.308 -5.85,3.039 -3.643,0 0,0 M -0.086,17.26 C 6.451,17.26 11.123,12.157 11.123,6.25 11.121,0.345 6.479,-4.759 -0.116,-4.759 c -6.679,0 -11.151,5.305 -11.152,10.751 0.001,1.404 0.201,2.983 0.83,4.53 1.119,2.75 4.417,6.738 10.352,6.738"/>
				</g>
				<g transform="translate(249.5181,372.1279)" id="g46">
					<path id="path48" style="fill:#68696b;fill-opacity:1;fill-rule:nonzero;stroke:none" d="m 0,0 v -12.818 c 0,-1.433 0.086,-4.042 2.753,-4.042 2.695,0 2.695,2.352 2.695,4.042 L 5.447,0 h 5.417 v -12.818 c 0,-3.552 -0.772,-5.128 -2.119,-6.508 -1.377,-1.403 -3.297,-2.293 -5.935,-2.293 -1.547,0 -4.358,0.372 -6.106,2.265 -1.75,1.921 -2.122,3.411 -2.122,6.536 l 0,12.818 z"/>
				</g>
				<g transform="translate(289.5972,361.4619)" id="g50">
					<path id="path52" style="fill:#68696b;fill-opacity:1;fill-rule:nonzero;stroke:none" d="m 0,0 h 1.921 c 3.182,0 3.556,2.005 3.556,3.037 0,1.92 -1.404,2.867 -3.499,2.867 H 0 Z m -5.189,10.666 h 6.708 c 3.727,0 5.163,-0.46 6.536,-1.522 1.749,-1.376 2.612,-3.612 2.612,-5.79 0,-2.437 -1.263,-6.024 -5.277,-6.677 l 5.764,-7.228 H 4.959 l -4.901,6.85 H 0 v -6.85 h -5.189 z"/>
				</g>
				<g transform="translate(323.374,372.1279)" id="g54">
					<path id="path56" style="fill:#68696b;fill-opacity:1;fill-rule:nonzero;stroke:none" d="m 0,0 h 4.671 l 8.202,-13.336 0.057,0.061 L 12.7,0 h 5.189 V -21.217 H 13.188 L 5.104,-8.316 5.048,-8.347 5.189,-21.217 H 0 Z"/>
				</g>
				<g transform="translate(365.376,372.1279)" id="g58">
					<path id="path60" style="fill:#68696b;fill-opacity:1;fill-rule:nonzero;stroke:none" d="m 0,0 h 11.785 l 10e-4,-4.762 H 5.192 v -3.295 h 6.393 l -0.003,-4.761 h -6.39 v -3.64 h 6.594 l -10e-4,-4.759 H 0.003 Z"/>
				</g>
				<g transform="translate(405.4297,358.623)" id="g62">
					<path id="path64" style="fill:#68696b;fill-opacity:1;fill-rule:nonzero;stroke:none" d="m 0,0 -6.336,13.505 h 5.879 l 3.153,-8.517 3.182,8.517 h 5.819 L 5.421,0 V -7.712 H 0 Z"/>
				</g>
				<g transform="translate(447.8633,365.9346)" id="g66">
					<path id="path68" style="fill:#68696b;fill-opacity:1;fill-rule:nonzero;stroke:none" d="m 0,0 c -0.114,0.714 -0.287,2.063 -1.949,2.063 -0.947,0 -1.866,-0.662 -1.866,-1.664 0,-1.261 0.577,-1.518 4.387,-3.24 3.956,-1.778 4.96,-3.611 4.96,-6.074 0,-3.099 -1.777,-6.511 -7.395,-6.511 -6.136,0 -7.656,4.013 -7.656,6.738 v 0.689 h 5.391 c 0,-2.468 1.519,-2.895 2.209,-2.895 1.286,0 2.061,1.057 2.061,2.034 0,1.404 -0.89,1.748 -4.157,3.126 -1.489,0.6 -5.189,2.091 -5.189,6.076 0,3.984 3.872,6.251 7.426,6.251 2.094,0 4.357,-0.775 5.734,-2.411 C 5.218,2.636 5.301,1.204 5.359,0 Z"/>
				</g>
				<g transform="translate(471.4648,402.8701)" id="g70">
					<path id="path72" style="fill:#68696b;fill-opacity:1;fill-rule:nonzero;stroke:none" d="m 0,0 c 0,3.566 -2.89,6.457 -6.455,6.457 -3.565,0 -6.456,-2.891 -6.456,-6.457 0,-3.564 2.891,-6.453 6.456,-6.453 C -2.89,-6.453 0,-3.564 0,0"/>
				</g>
			</g>
		</g>
	</g>
</svg>
