<svg xmlns="http://www.w3.org/2000/svg" xml:space="preserve" id="Layer_1" x="0" y="0" style="enable-background:new 0 0 354.8 67" version="1.1" viewBox="0 0 354.8 67"><style>.st0{fill:#34789b}</style><path d="m101.1 25 4.9 14 7.7-15.8 9.1 15.5 5.1-13.7h9.8l-11.8 32h-3.4l-8.2-16.6-7.6 16.6h-4L90.9 25h10.2zm71 16.2c0 9.4-7.7 16.8-17 17-9.6.3-17.4-7.5-17.4-17 0-9.6 8.2-17.4 17.7-17 9.2.3 16.6 6.9 16.7 17zm-17.4 8.4c4.8.1 8.6-4.1 8.4-8.8-.2-4.5-3.6-8-8.1-8.1-4.6-.1-8.3 3.8-8.4 8.3-.1 4.8 3.6 8.6 8.1 8.6zM182.6 25l4.9 13.9 7.7-15.8 9.1 15.5 5.1-13.7h9.8L207.4 57H204l-8.2-16.6-7.5 16.6h-4l-11.8-32h10.1zm36.2 16.1c.1-9.2 7.4-16.8 16.8-16.9 4.8 0 8.4 2.8 8.3 2.8V7.9h9.4V41c0 9.3-7.9 17.4-17.4 17.3-9.3-.1-17.3-7.9-17.1-17.2zm25.4-.2c-.1-4.5-3.4-8-8.2-8.1-4.6-.1-8.4 4-8.3 8.6.1 4.5 3.8 8.2 8.3 8.1 4.9-.2 8.3-4 8.2-8.6zm40.5 12.2c.1-.1-5.4 5.1-12.4 5.1-9.2-.1-16.6-7.5-16.6-17-.1-9.5 7.9-17.5 17.4-17.2 10.6.4 17.3 9.2 16.6 20h-24.9c1.2 3.4 3.9 5.3 7.5 5.4 2.6.1 4.9-1.1 6.2-2.6l6.2 6.3zm-5.2-16c-.1 0-1.8-4.2-7.1-4.2-4.6 0-6.9 4.2-6.9 4.2h14zm29.1-2.8c-.1.1-.5-2.6-3.2-2.6-1.5 0-3.2.5-3.2 2-.1 1.6 1.6 2.3 3.1 2.7l4.6 1.2c5.1 1.3 7.5 4.5 8 9.6.6 6.3-5 10.9-12 11.1-10.5.3-13.9-7.7-13.7-8l7.9-3.9c0 .1.6 4 5.1 4.1 2.4.1 3.8-1.2 3.8-3-.1-1.8-2-2.4-3.8-2.8l-3.3-.7c-4.4-1-7.5-4.2-7.8-8.7-.3-6.5 5.3-11.2 11.5-10.9 7.8.3 10.2 6.4 10.2 6.3l-7.2 3.6zm10.8-26.4h9.1v28.4L338 25h11.8l-12.9 14.8 14 17.2h-11.8l-10.6-13.7V57h-9.2V7.9z" class="st0"/><path d="m82.6 48.5 3.9 9.4-10.3-4.4c-4.7 2.8-10.6 4.4-17 4.4-3.4 0-6.7-.5-9.6-1.4 11-4.4 18.6-13.4 18.6-23.7 0-7.2-3.8-13.8-9.9-18.6h.9C75 14.2 87.6 24 87.6 36c0 4.7-1.9 8.9-5 12.5z" style="fill:#00adb4"/><path d="M57.2 15.8c-5.7-4.6-13.8-7.3-22.7-7.3C17 8.4 3 19.3 3 32.7c0 5.2 2 10 5.6 13.9L4.1 57.1l11.4-4.9c2 1.2 4.2 2.1 6.6 2.9v-.3c0-4.7 4.2-8.4 9.3-8.4h6.7c5.1 0 9.3 3.8 9.3 8.4v.2c.6-.2 1.2-.4 1.8-.7 10-4.1 17-12.3 17-21.6-.1-6.6-3.5-12.5-9-16.9zm-6.9 5H50l-3.2 4.8c1 .9 1.7 2.2 1.7 3.7v6.5c0 2.8-2.2 5-5 5h-8c0 .5.1 1.1.1 1.9V44c0 1.4-.1 2.5-.2 2.5h-.7c-.1 0-.2-1.1-.2-2.5v-1.3c0-.7 0-1.4.1-1.9h-8.1c-2.8 0-5-2.2-5-5v-6.5c0-1.5.6-2.8 1.7-3.7L20 20.8h-.3c-.8 0-1.4-.6-1.4-1.4 0-.8.6-1.4 1.4-1.4.8 0 1.4.6 1.4 1.4 0 .2 0 .4-.1.5l3 4.4v-.1l.3.5c.7-.3 1.4-.5 2.3-.5h17c.8 0 1.6.2 2.3.5l.4-.6v.1L49 20c-.1-.2-.1-.3-.1-.5 0-.8.6-1.4 1.4-1.4.8 0 1.4.6 1.4 1.4 0 .7-.6 1.3-1.4 1.3z" class="st0"/><path d="M32.3 31.5c0 1.3-1 2.3-2.3 2.3-1.3 0-2.3-1-2.3-2.3 0-1.3 1-2.3 2.3-2.3 1.2 0 2.3 1 2.3 2.3zm5.4 0c0 1.3 1 2.3 2.3 2.3 1.3 0 2.3-1 2.3-2.3 0-1.3-1-2.3-2.3-2.3-1.3 0-2.3 1-2.3 2.3z" class="st0"/><path d="M39 31.5c0 .5.4 1 1 1 .5 0 1-.4 1-1 0-.5-.4-1-1-1-.5 0-1 .5-1 1zm-10 0c0 .5.4 1 1 1 .5 0 1-.4 1-1 0-.5-.4-1-1-1s-1 .5-1 1z" style="fill:#c7e0e1"/></svg>