<svg id="Layer_1" data-name="Layer 1" xmlns="http://www.w3.org/2000/svg" viewBox="0 0 287.51 287.36"><path d="M643.61,584.53c-3.71,0-6.88-.14-10,0-2.56.16-5.22,2.91-5.52,5.45a81.72,81.72,0,0,0,9.26-.08c2.92-.32,4.89-2.2,6.31-5.41M412,421.9c3.47,0,6.71.16,9.92,0,2.4-.14,4.91-2.77,5.52-5.51h-8.58c-3,0-5.62,2.05-6.91,5.51M621.52,596.08a6,6,0,0,0,.11.7c3.25.18,6.48.49,9.71.48,2.54,0,5.08-2.21,6-5-2.88-.21-5.71-.48-8.53-.61-3.4-.14-5.51,1.76-7.26,4.41M434,409.84c-1.88-.21-3.31-.42-4.72-.52-1.66-.12-3.31-.22-5-.2a6.8,6.8,0,0,0-6.2,5.06c3.11.2,6.19.62,9.27.52s5-1.95,6.62-4.86M500.7,364.3c2.6,2.57,4.73,5.29,7.59,7.08,2.21,1.34,4.8,1.29,7.73,0a82.25,82.25,0,0,0-7.58-7c-2.15-1.55-4.84-1.63-7.72-.11m54,277.94c-2.79-2.64-5-5.19-7.66-7.09-2.2-1.53-4.91-1.39-7.53-.26,2,2.13,3.84,4.11,5.73,6,2.55,2.54,5.52,2.72,9.46,1.34M404.23,456.61l-.44-.59a72.94,72.94,0,0,0-9.23,3.61c-2.33,1.27-3.52,3.71-3.46,7a82.62,82.62,0,0,0,9.34-3.61c2.39-1.25,3.49-3.73,3.79-6.41m255.88,48.83a92,92,0,0,0,7.63-6.73c1.84-2,1.84-4.7,1-7.86-2.86,2.47-5.64,4.41-7.72,6.86a6.94,6.94,0,0,0-.84,7.72M395.92,491.81c-2.5,1.81-4.57,3.39-6.73,4.84-2.62,1.74-3.31,4.3-3.31,7.19a6.84,6.84,0,0,0,.57,1.76,81.18,81.18,0,0,0,7.82-5.85c2-1.93,2.44-4.65,1.7-7.94M386.55,515l.63.31c2.42-2,4.93-4,7.19-6.18,1.88-1.82,2.14-5.51.79-7.84a93,93,0,0,0-7.2,6.24c-2,2.08-2,4.8-1.41,7.47m273-.26c2.92-2.13,5.51-3.87,7.88-5.8,2-1.6,2.66-5.16,1.72-7.6a1.41,1.41,0,0,0-.66.1,73.73,73.73,0,0,0-7.1,5.19c-2.2,2-2.53,4.74-1.84,8.11M613,390.08c-.17,3.61-.48,6.69-.41,9.75a7.09,7.09,0,0,0,5.25,6.11,87.66,87.66,0,0,0,.38-9c-.15-3.07-2.07-5.14-5.22-6.84M641.12,435c1.1-3.49,2.43-6.61,3-9.81.46-2.66-.83-5.05-3.31-7.12-1.1,3.54-2.64,6.62-3,10-.27,2.62.87,4.91,3.31,6.89m-234.69-4.67c3.68-.28,6.93-.38,10.13-.82,2.38-.33,4.73-3.14,5.17-5.89a91.79,91.79,0,0,0-9.92,1c-2.6.53-4.25,2.6-5.36,5.72m-4.65,8.25a4,4,0,0,0,1,.17c2.85-.35,5.71-.6,8.51-1.15,2.51-.48,5-3.66,5.07-6.37a87.25,87.25,0,0,0-9.64,1.59c-2.64.74-4.23,2.92-5,5.76m-15.24,57.23c2.9-1.83,5.65-3.41,8.22-5.24,2.12-1.52,3-5.23,2-7.72a77.91,77.91,0,0,0-8.29,5.51c-2.05,1.76-2.59,4.42-1.89,7.5m271.92,28.05c3-1.88,5.62-3.41,8.09-5.12,2.2-1.54,3.13-4.83,2.28-8a77.06,77.06,0,0,0-8.34,5.51c-2,1.72-2.62,4.41-2,7.6M639,575.21c3.53-.44,7.08-.43,10.33-1.66a7.26,7.26,0,0,0,4.42-5.79,22.85,22.85,0,0,0-2.74.15c-1.9.25-3.77.58-5.67.85a7.63,7.63,0,0,0-6.39,6.45M414.79,588.34c1-3.31,2.2-6.28,2.88-9.35a6.62,6.62,0,0,0-3.42-7c-.86,2.65-1.76,5.28-2.58,7.92-.95,3,.1,6.09,3.12,8.47M603.57,394.87c-.46-3.78-.53-7.15-1.35-10.32-.66-2.57-2.76-4.26-5.93-5.12a86.51,86.51,0,0,0,1.25,10c.63,2.65,2.72,4.35,6,5.42M545,643.8c-2.65-2.82-4.61-5.73-7.4-7.82a6.24,6.24,0,0,0-7.19,0c2.1,2.3,4,4.76,6.3,6.81s5,2.08,8.29,1m-19.69,1c-2.13-3.09-3.71-6-5.86-8.34-1.84-2-4.5-2.66-7.72-1.73a83.92,83.92,0,0,0,5.94,8.33c1.75,1.91,4.36,2.41,7.66,1.74m139-104.9c-3.22,1.17-6.09,2.09-8.83,3.24-2.47,1-4.19,4.25-3.93,7.28,3.31-1.1,6.78-1.9,9.68-3.78,2.09-1.34,3.2-3.62,3.12-6.74m-268.69,14a80.41,80.41,0,0,0,5.52-8.59c1.18-2.43.58-5.07-1.31-7.72-2,3.09-4.13,5.72-5.52,8.68-1.1,2.4-.71,5.08,1.31,7.72m260.82-21c3.45-1.85,6.69-3.12,9.43-5.28a6.48,6.48,0,0,0,1.76-7,84.45,84.45,0,0,0-8.1,4.41c-2.4,1.67-3.25,4.31-3.09,7.81m-266.57,2c2.35-2.68,4.81-5,6.61-7.72,1.46-2.21,1.49-4.91-.17-7.72-2.52,2.66-5.09,4.95-6.81,7.86-1.31,2.21-1.29,4.81.38,7.56M559.49,365.28c1.39,3.31,2.47,6.42,3.91,9.32,1.1,2.2,4.46,3.57,7.19,3.11a78.09,78.09,0,0,0-4-9.15c-1.37-2.29-3.9-3.3-7.12-3.3M579.22,381c-1.1-3.17-1.83-6.46-3.3-9.37-1.2-2.35-3.58-3.65-6.82-3.62,1.1,3.31,2,6.48,3.19,9.44.93,2.27,4.29,3.89,6.93,3.55m-4.05,245.82c3.3,1.7,6.22,3.56,9.39,4.68,2.44.86,5,0,7.34-2.09-3.31-1.73-6.17-3.91-9.54-4.78-2.43-.64-4.83.15-7.19,2.21m-99.1-1.69c1.17,3.5,2,6.62,3.31,9.6,1,2.36,4.21,3.86,6.84,3.49a74.38,74.38,0,0,0-3-9c-1.19-2.54-3.57-3.87-7.09-4.13M567,629.33c-.07.26-.15.5-.21.75a86.58,86.58,0,0,0,8.75,5.08c2.41,1.1,4.9.25,7.47-1.57-2.6-1.63-4.89-3-7.14-4.49-3.06-2-6-1.33-8.82.23M397.43,448a84.69,84.69,0,0,0,9.71-2.2c2.65-.92,4.14-3.21,4.78-6.15a4.56,4.56,0,0,0-1.1-.15,79,79,0,0,0-8.34,1.84c-2.86.91-4.31,3.22-5,6.62m82.72-68.32c-3.15-1.63-6-3.31-8.95-4.57-2.2-1-5.73.17-7.41,2.2,2.48,1.33,4.92,2.66,7.38,3.93,2.88,1.48,6,1,9-1.58M657.53,477.9c2.21-2.87,4.26-5.28,6-7.9,1.46-2.15,1-5.81-.85-7.83a81.61,81.61,0,0,0-5.75,7.58c-1.44,2.41-1.19,5.14.56,8.15M495.9,641.22c-1.38-3.31-2.33-6.51-3.93-9.28-1.38-2.41-3.86-3.58-7.28-3.46,1.44,3.4,2.43,6.62,4.09,9.44,1.36,2.3,3.89,3.31,7.12,3.31M655.57,468.79c1.92-2.89,3.79-5.45,5.38-8.19a6.73,6.73,0,0,0-1.39-7.72c-1.56,2.32-3.14,4.6-4.66,6.92-1.79,2.71-1.62,5.87.67,9M393.79,456.92a18.29,18.29,0,0,0,2-.3c2-.54,4-1.2,6-1.65a7.74,7.74,0,0,0,5.43-4.89,13.21,13.21,0,0,0,.54-2.66c-3,.84-5.52,1.57-8,2.21-3.5,1-5.05,3.51-5.93,7.25M442.46,616c.15-2.66.3-5.1.44-7.55a11.21,11.21,0,0,0,0-1.42c-.14-3-2.63-6.07-5.31-6.4-.16,2.93-.42,5.85-.41,8.83a7.38,7.38,0,0,0,5.25,6.62m186-212.63h-.8a86.7,86.7,0,0,0-1.39,10c-.06,2.57,1.47,4.69,4,6.24a10.9,10.9,0,0,0,.57-1.57c.37-2.1.61-4.24,1.1-6.33.86-3.7-.93-6.17-3.45-8.37M425.35,586.86c-.32.45-.53.62-.56.83-.53,2.8-1.1,5.59-1.52,8.41-.35,2.45,1.74,5.73,4.48,7a87.16,87.16,0,0,0,1.45-9.92c.1-2.62-1.4-4.78-3.85-6.34m191.24,26.36c-3.38-1-6.45-2-9.59-2.68-2.26-.5-5.59,1.46-6.8,3.75,2.69.77,5.33,1.57,8,2.3,3.13.86,6.07-.23,8.41-3.37m-161-221a86,86,0,0,0-10.12-2.53c-2.56-.34-4.81,1-6.81,3.58,3.69,1,6.9,2.27,10.21,2.63,2.47.27,4.88-1,6.72-3.68M633.45,582.77c3.76-.35,7.3.06,10.62-1a7.35,7.35,0,0,0,4.87-5.62c-3.57.27-7,.19-10.15.9-2.58.59-4.41,2.63-5.34,5.73M459.11,626.88c-.38-3.44-.56-6.61-1.1-9.7a6.82,6.82,0,0,0-5.78-5.12c-.06.14-.19.29-.17.42q.39,3.91.81,7.82c.34,3.18,2.44,5.51,6.27,6.62M592.05,619c3.41,1.19,6.49,2.61,9.71,3.25,2.61.53,5.06-.64,7.1-3.06-2.89-1.11-5.51-2.08-8.09-3-2.95-1.11-6.11-.12-8.72,2.82M525.31,370.86c-2.14-2.4-3.95-4.49-5.82-6.51a7.37,7.37,0,0,0-8.49-1.66,1,1,0,0,0,.14.65,70.32,70.32,0,0,0,5.93,6.51c2.21,1.92,4.93,2.29,8.24,1m118.12,196a3.81,3.81,0,0,0,1,.22,83.51,83.51,0,0,0,8.58-1.87c2.84-.92,4.29-3.24,4.89-6.38a10.79,10.79,0,0,0-1.61.09q-3.31.65-6.52,1.36c-3.5.75-5.32,3.11-6.34,6.61m4.29-7.72a85,85,0,0,0,9.73-3c2.44-1.11,3.75-3.43,4-6.69-3.6,1-7,1.49-10,3.1a7.5,7.5,0,0,0-3.75,6.62m-248.27,4c1.8-3.17,3.57-5.74,4.82-8.55s.49-5.4-1.3-7.83c-.35.23-.62.31-.72.48a80.65,80.65,0,0,0-4.41,7.65c-1.25,2.74-.41,5.37,1.57,8.25M645.59,443c1.32-3.37,2.69-6.42,3.69-9.57.71-2.21-.86-5.52-3-6.91-1,2.53-2.07,5-3.08,7.48-1.27,3.17-.54,6.16,2.43,9M471.72,383.28c-3.48-1.48-6.51-3.16-9.74-4-2.46-.64-4.94.4-7.2,2.66,3.38,1.45,6.32,3.09,9.49,3.95,2.53.7,5.1-.18,7.45-2.6M651.5,434.6c-1.58,3.31-3.11,6.17-4.33,9.17-.9,2.21.39,5.71,2.5,7.34a72.45,72.45,0,0,0,4.05-8.6c.85-2.63.17-5.32-2.21-7.91M605,384.9a3.43,3.43,0,0,0-.18.89c.12,2.86.16,5.72.41,8.56.22,2.46,2.94,5.13,5.39,5.52,0-3.08.2-6.17-.06-9.22a7,7,0,0,0-5.51-5.78m51,58.45a97.19,97.19,0,0,0-4.82,8.56c-1.19,2.7-.51,5.38,1.29,7.82.35-.23.63-.31.73-.48a86.81,86.81,0,0,0,4.41-7.66c1.23-2.73.42-5.36-1.58-8.24m-209.47-56c3.31,1.18,6.32,2.43,9.43,3.31,2.36.67,5.68-1,6.94-3.08a3.12,3.12,0,0,0-.56-.39c-2.39-.9-4.77-1.83-7.17-2.67-3-1-6.13-.09-8.64,2.8m173.91,9.37c-.32,2.72-.64,5.38-1,8-.38,3.08,1,5.37,3.25,7.28a5.72,5.72,0,0,0,1.54.62c.38-3.25.81-6.22,1-9.22.17-2.46-2.21-5.66-4.86-6.72m-189.32,3c3.52.72,6.74,1.74,10,1.94,2.63.16,4.94-1.32,6.83-4.11-3.75-.74-7-1.75-10.39-1.91-2.54-.11-4.82,1.35-6.46,4.08M398.81,473.5c-3.31,1.78-6.2,3.19-8.93,4.92-2.11,1.34-3.06,4.84-2.2,7.39,2.88-1.57,5.92-2.84,8.47-4.75,2.1-1.57,3.05-4.13,2.68-7.56M600.67,624.6c-3.31-1.44-6.31-3.08-9.46-4-2.57-.72-5.09.26-7.55,2.57,3.55,1.51,6.56,3.2,9.79,4,2.44.64,5-.35,7.22-2.65M398.2,529c-.41.16-.77.21-.93.41a65.3,65.3,0,0,0-5.39,7c-1.5,2.51-1.21,5.29.52,8.25,1.84-2.37,3.46-4.52,5.15-6.62,2.31-2.84,2-5.81.65-9M421,596c.85-3.5,2-6.68,2.29-9.93.22-2.59-1.11-5-3.85-6.78-.75,3-1.44,5.69-2.09,8.38-.76,3.11.42,6.05,3.65,8.35m29.78,26a90.38,90.38,0,0,0-.59-10,7.29,7.29,0,0,0-5.2-5.63c0,3.44-.35,6.7.1,9.86.4,2.74,2.42,4.65,5.69,5.78m-15.85-12c.34-3.42.82-6.55.93-9.69a7,7,0,0,0-4.75-6.3c-.18,1.27-.37,2.5-.51,3.74s-.23,2.69-.41,4c-.44,3.36,1.1,6.34,4.74,8.21m108.2-237.89.5-.56c-2-2.76-3.65-5.76-6-8.2-1.72-1.83-4.32-2.4-7.4-1.55,1.64,2.45,3.12,4.56,4.51,6.76,2,3.16,4.93,3.91,8.35,3.55m36.06-.9-.65.36c.85,3.2,1.48,6.47,2.61,9.57a6.45,6.45,0,0,0,6.43,3.73c-.63-2.63-1.24-5.26-1.9-7.87-.87-3.43-3.31-5-6.49-5.79M489,376.67c-3.16-1.94-5.78-3.74-8.57-5.22a6.82,6.82,0,0,0-7.73,1.66,73.85,73.85,0,0,0,8.12,4.94c2.54,1.16,5.24.58,8.14-1.38m98.55-1.37c.6,3.21,1,6.42,1.83,9.52.67,2.52,3.54,4.41,6.32,4.5-.61-3.23-1-6.44-1.84-9.54-.65-2.5-3.59-4.41-6.31-4.48m-37.76-12c1.62,3.31,2.89,6.2,4.41,8.95,1.28,2.2,4.85,3.46,7.46,2.7a83.19,83.19,0,0,0-4.41-8.68c-1.51-2.27-4.08-3.1-7.45-3m-14.6,281.41c-2.3-3-4.14-5.52-6.25-7.89a6.92,6.92,0,0,0-7.81-1,84.81,84.81,0,0,0,6,7.39c2,2,4.69,2.34,8.1,1.54m17.53-271.33c-.46-.94-.76-1.65-1.1-2.32-.93-1.67-2-3.31-2.84-5-1.44-2.8-4-3.75-6.82-4.1a5.67,5.67,0,0,0-1.78.44,77.65,77.65,0,0,0,5,8.36c1.71,2.21,4.35,3,7.56,2.59m-32.52-11.59c2.32,2.95,4.16,5.52,6.27,7.89a6.81,6.81,0,0,0,7.8,1,86,86,0,0,0-5.95-7.4c-2-2-4.69-2.33-8.12-1.52m-79.41,41.56c-3.69-.44-7.05-1.21-10.39-1.1-2.52.05-4.61,1.72-6.15,4.34,1.05.24,1.71.42,2.4.52,1.87.3,3.77.53,5.64.83,3.38.53,6.37-.92,8.5-4.54M607.52,609c3.48.72,6.61,1.51,9.82,2,2.4.33,5.45-1.75,6.62-4.18L616,605.08c-3.31-.7-6.22.55-8.46,3.9m28.58-181.76c.83-3.51,2-6.7,2.2-9.93a7.28,7.28,0,0,0-3.53-6.62,3.76,3.76,0,0,0-.5.81c-.63,2.38-1.26,4.76-1.85,7.15-.8,3.31.32,6.21,3.62,8.62M614.61,603.14c3.68.45,7,1.22,10.38,1.1,2.5,0,4.63-1.68,6.14-4.31-1-.23-1.69-.44-2.36-.54-1.89-.3-3.77-.53-5.65-.83-3.37-.53-6.35.9-8.51,4.53M409,580.32c1.45-3.45,3.13-6.48,3.76-9.8.48-2.54-.59-4.94-2.9-7.15-1.37,3.5-2.95,6.61-3.71,9.86-.56,2.46.52,4.93,2.85,7.09m84.53,50.84a81.73,81.73,0,0,0,4.71,9.11c1.51,2.21,4.1,3,7.4,2.86-1.69-3.31-2.89-6.51-4.76-9.2-1.51-2.2-4.06-3.15-7.35-2.77M404,572c1.61-3.44,3.39-6.39,4.41-9.59a7.24,7.24,0,0,0-2-7c-.32.24-.59.34-.69.53a67,67,0,0,0-3.74,7.72c-1,2.85-.28,5.58,2.1,8.35m255.12-85c2.39-2.71,4.69-5,6.62-7.59,1.58-2.09,1.28-5.52-.38-7.72a74.7,74.7,0,0,0-6.37,7.39c-1.49,2.2-1.57,4.91.12,7.95m-5,55c3.49-1.59,6.52-2.79,9.37-4.33,2.2-1.19,3.44-4.68,2.86-7.24a86.31,86.31,0,0,0-8.69,4c-2.42,1.46-3.39,4-3.54,7.58M459.64,616.78c.69,3.64,1.11,6.85,1.93,9.93.63,2.45,3.67,4.41,6.3,4.41a86.09,86.09,0,0,0-1.81-9.29c-.81-2.71-3-4.31-6.45-5.08m47.27-244.18c-2.83-2.49-5.2-5-8.17-6.62-2.3-1.27-4.91-1.05-7.62.61,2.76,2.2,5.14,4.66,8,6.36,2.21,1.35,5,1.1,7.84-.33M395.57,510.26c-2.63,2.6-5.07,4.74-7.19,7.17-1.66,1.9-1.61,5.63-.13,7.72a72.06,72.06,0,0,0,6.85-6.91c1.62-2.09,1.89-4.78.47-8m72.15,111c.9,3.56,1.53,6.62,2.49,9.66a6.85,6.85,0,0,0,6.62,4.11,72.72,72.72,0,0,0-2.4-9.17c-1-2.58-3.3-4.1-6.77-4.6M401.25,464.65c-3.51,1.5-6.89,2.52-9.67,4.56-2.05,1.51-3,3.94-2.8,7.07a84.17,84.17,0,0,0,9.13-4.26c2.36-1.46,3.31-4,3.31-7.37M557.49,632.13c2.42,1.78,4.51,3.11,6.36,4.71a8,8,0,0,0,6.95,1.57,15.32,15.32,0,0,0,3.05-1.26c-3-2.14-5.36-4.13-8-5.7s-5.3-1-8.36.68m-8.9,1.93c2.74,2.21,5.15,4.42,7.78,6.34,2.14,1.5,5.52,1.1,7.72-.61-2.14-1.82-4.23-3.63-6.36-5.39-2.34-1.95-5.86-2.21-9.1-.34M515,644.51a4.67,4.67,0,0,0-.16-1.23,74.9,74.9,0,0,0-4.2-7.19c-1.78-2.49-4.48-3.31-7.84-3,.39.87.62,1.52,1,2.12,1,1.8,2.08,3.56,3.1,5.37,1.73,3.08,4.55,3.88,8.15,4m-33.42-275.1c3.08,2.15,5.72,4.32,8.66,6a6.29,6.29,0,0,0,7.25-1.37,78.9,78.9,0,0,0-7.57-5.36c-2.56-1.42-5.33-1-8.34.76m185.6,111.93c-2.32,2.29-4.76,4.41-6.89,6.87-1.68,1.9-1.66,5.52-.12,7.72,2.37-2.38,4.86-4.58,7-7.09,1.58-1.85,1.43-5.51,0-7.53M654.8,473c-.14-1,0-2.28-.5-2.93-1.8-2.13-2.13-4.57-2.2-7.16a2.62,2.62,0,0,0-.51-1.73c-1.94-1.86-2.37-4.26-2.64-6.75-.06-.59-.14-1.4-.53-1.72-2.2-1.76-2.72-4.22-3.23-6.75a2.88,2.88,0,0,0-.7-1.66c-2.21-1.6-2.9-3.92-3.53-6.34-.16-.58-.36-1.34-.8-1.62-2.36-1.46-3.31-3.81-4.07-6.27-.16-.5-.37-1.16-.77-1.37-2.55-1.31-3.68-3.63-4.6-6.15a2.27,2.27,0,0,0-1-1.26c-2.47-1.1-3.68-3.17-4.78-5.43-.25-.54-.61-1.24-1.1-1.42-2.69-1-4.13-3.13-5.41-5.52a2.2,2.2,0,0,0-1.11-1.1c-2.53-.65-4-2.52-5.36-4.51-.38-.55-.88-1.29-1.44-1.43-2.69-.64-4.41-2.45-6-4.54a2.62,2.62,0,0,0-1.43-1.1c-2.56-.39-4.27-2-5.91-3.77a3.69,3.69,0,0,0-1.88-1.24,10.53,10.53,0,0,1-6-3.31,3.58,3.58,0,0,0-1.9-1.19c-2.62,0-4.51-1.36-6.38-2.92a3.1,3.1,0,0,0-1.78-1c-2.78.17-4.89-1.16-7-2.71a2.7,2.7,0,0,0-1.69-.61c-2.66.3-4.82-.76-6.92-2.21-.43-.28-1-.67-1.46-.56-2.83.74-5.15-.42-7.49-1.69a2.35,2.35,0,0,0-1.55-.37c-2.59.89-4.84-.13-7.14-1.1a3.34,3.34,0,0,0-2-.35,10.39,10.39,0,0,1-7-.61,3.05,3.05,0,0,0-2-.1c-2.47,1.1-4.83.58-7.23-.15a2.69,2.69,0,0,0-1.79-.12c-2.44,1.38-4.91,1-7.44.42-.52-.12-1.22-.31-1.58-.06-2.48,1.66-5.15,1.3-7.86.92a1.89,1.89,0,0,0-1.32.18c-2,1.69-4.42,1.53-6.84,1.51a4.43,4.43,0,0,0-2.45.51,11.43,11.43,0,0,1-6.84,1.7,2.76,2.76,0,0,0-1.73.37c-1.87,1.82-4.18,2.21-6.62,2.34a3.13,3.13,0,0,0-2,.53c-1.8,2-4.16,2.54-6.62,2.92a3.23,3.23,0,0,0-1.9.74c-1.68,2.1-4,2.74-6.46,3.31a2.8,2.8,0,0,0-1.64.73c-1.51,2.2-3.72,3.13-6.18,3.77a3,3,0,0,0-1.76,1c-1.41,2.28-3.58,3.3-6,4.11a2.67,2.67,0,0,0-1.48,1c-1.18,2.43-3.31,3.54-5.61,4.61-.55.26-1.29.54-1.49,1-1.1,2.65-3.31,4-5.65,5.24a2.3,2.3,0,0,0-1.1,1.1c-.81,2.46-2.66,3.89-4.72,5.18-.58.36-1.34.82-1.48,1.37-.67,2.6-2.49,4.19-4.51,5.68a3.24,3.24,0,0,0-1.25,1.31c-.54,2.8-2.36,4.62-4.46,6.29a2.36,2.36,0,0,0-.84,1.32,10.54,10.54,0,0,1-3.74,6.22,2.67,2.67,0,0,0-1,1.5c-.13,2.77-1.66,4.76-3.4,6.62a2.77,2.77,0,0,0-.87,1.59c.11,2.69-1.23,4.71-2.8,6.67a2.63,2.63,0,0,0-.75,1.62c.32,2.69-.94,4.78-2.31,6.87-.34.51-.89,1.16-.79,1.64.62,2.83-.6,5.11-1.93,7.41a2.29,2.29,0,0,0-.46,1.51c.79,2.7-.24,5-1.39,7.31a2.88,2.88,0,0,0-.35,1.75,10.77,10.77,0,0,1-.87,7.21,2.84,2.84,0,0,0-.32,1.79,10.8,10.8,0,0,1-.41,7.47,2.65,2.65,0,0,0,0,1.8c1.17,2.34.76,4.64.17,7a3.21,3.21,0,0,0-.08,2c1.28,2.44,1,4.92.6,7.48a2.68,2.68,0,0,0,.23,1.76,9.66,9.66,0,0,1,1.1,6.68,3.37,3.37,0,0,0,.22,2.21c1.5,2,1.63,4.24,1.54,6.61a3.61,3.61,0,0,0,.41,2.21c1.78,2,2,4.41,2.11,6.94a3.06,3.06,0,0,0,.58,1.94c1.86,1.82,2.3,4.11,2.57,6.53.08.66.17,1.56.6,1.92,2.08,1.73,2.61,4.12,3.14,6.55.14.59.21,1.41.62,1.7,2.34,1.68,3.08,4.17,3.72,6.76a2.34,2.34,0,0,0,.77,1.35c2.29,1.42,3.18,3.7,4,6.07.2.56.44,1.32.88,1.56,2.48,1.29,3.55,3.55,4.49,6a2.68,2.68,0,0,0,.88,1.34c2.66,1.1,3.93,3.36,5,5.8A2.34,2.34,0,0,0,431.6,592c2.52.91,3.89,2.92,5.15,5.1a3,3,0,0,0,1.4,1.44c2.4.73,3.82,2.48,5.18,4.41.44.62,1,1.41,1.62,1.58,2.59.66,4.25,2.4,5.78,4.41.37.47.87,1.1,1.38,1.1,2.67.37,4.41,2,6.11,3.88a3.23,3.23,0,0,0,1.69,1.11,10.5,10.5,0,0,1,6.32,3.58c.42.42,1,.95,1.53.94,2.79,0,4.81,1.43,6.75,3.15a2.66,2.66,0,0,0,1.66.73c2.59-.16,4.58,1.1,6.61,2.47a3.43,3.43,0,0,0,1.86.85,10.2,10.2,0,0,1,7.12,2.21,2.2,2.2,0,0,0,1.44.6c2.63-.65,4.84.38,7.05,1.55.54.27,1.27.7,1.74.55,2.78-.92,5.16.14,7.58,1.22a2.32,2.32,0,0,0,1.57.23c2.53-.91,4.86-.27,7.22.58a3.1,3.1,0,0,0,2,.2c2.4-1.11,4.68-.54,7,.14a3.05,3.05,0,0,0,2,.11c2.39-1.29,4.78-1,7.23-.41.58.13,1.36.32,1.78,0,2.43-1.57,5-1.22,7.65-.89.45,0,1.1.15,1.34-.08,2.26-1.86,4.9-1.62,7.55-1.54a3,3,0,0,0,1.76-.42c2.09-1.66,4.51-1.82,7-1.81a2.7,2.7,0,0,0,1.72-.44c1.81-1.73,4-2.12,6.38-2.28a3.62,3.62,0,0,0,2.21-.61c1.76-1.91,4-2.44,6.42-2.84a3.72,3.72,0,0,0,2.1-.82c1.67-2,3.92-2.64,6.27-3.2a3.3,3.3,0,0,0,1.83-.82,10,10,0,0,1,6-3.66,3.49,3.49,0,0,0,2-1.1c1.32-2.12,3.38-3.07,5.52-3.94.68-.28,1.57-.62,1.88-1.2,1.21-2.29,3.31-3.4,5.45-4.41.61-.29,1.4-.64,1.63-1.17,1.11-2.45,3.06-3.81,5.31-5,.53-.27,1.22-.66,1.38-1.1.86-2.63,2.83-4.15,5.08-5.51a2.58,2.58,0,0,0,1.2-1.3c.69-2.5,2.43-4.06,4.41-5.52.54-.4,1.25-.91,1.37-1.49.58-2.69,2.32-4.48,4.35-6.1a2.43,2.43,0,0,0,.92-1.28,10.7,10.7,0,0,1,3.83-6.43,2.68,2.68,0,0,0,.94-1.53c.13-2.58,1.55-4.41,3.13-6.29a3.67,3.67,0,0,0,1.1-2c0-2.59,1.24-4.54,2.74-6.45.37-.49.93-1.11.86-1.6-.39-2.88,1-5.07,2.49-7.26a2.29,2.29,0,0,0,.56-1.48c-.49-2.71.53-5,1.87-7.2a2.58,2.58,0,0,0,.51-1.72c-.72-2.53.25-4.69,1.23-6.88a4,4,0,0,0,.49-2.21,11,11,0,0,1,.86-7,3.18,3.18,0,0,0,.33-2,11,11,0,0,1,.31-7,3.27,3.27,0,0,0,.22-2c-1.2-2.43-.76-4.8-.17-7.24a3.2,3.2,0,0,0,0-2c-1.2-2.36-1-4.78-.55-7.24a2.82,2.82,0,0,0-.14-1.79,9.74,9.74,0,0,1-1.11-7.14,3.27,3.27,0,0,0-.48-2.2A7.89,7.89,0,0,1,654.9,473m-121-113.47c1.22.53,2.43,1.11,3.69,1.56A2,2,0,0,0,539,361c2.59-1.28,5-.52,7.35.62a3.93,3.93,0,0,0,3.36.28c2.32-.85,4.41.2,6.34,1.29a4.38,4.38,0,0,0,3.59.56c2.2-.58,4.09.44,5.81,1.59a5.32,5.32,0,0,0,4,1c2.3-.32,4.18.86,5.89,2.2a4.07,4.07,0,0,0,3.23,1.11c2.42-.31,4.32,1,6,2.53a4.24,4.24,0,0,0,3.38,1.35c2.34-.13,4,1.32,5.51,2.87a4.39,4.39,0,0,0,3.31,1.56c2.13,0,3.7,1.4,5,2.93a6.13,6.13,0,0,0,4.14,2.39c2.2.26,3.55,2.21,5,3.89a4,4,0,0,0,2,1.45,7.89,7.89,0,0,1,5.4,4,5.06,5.06,0,0,0,3.2,2.55c2.2.55,3.38,2.34,4.41,4.18a4.6,4.6,0,0,0,2.86,2.58c2.21.68,3.31,2.66,4.22,4.64a4.41,4.41,0,0,0,2.51,2.6c2.3.92,3.22,3.16,4.17,5.3a4,4,0,0,0,1.44,2c2.53,1.1,3.61,3.31,4.31,5.72a4.38,4.38,0,0,0,2.2,2.91c2,1.17,2.71,3.31,3.18,5.41a4.36,4.36,0,0,0,1.91,3.1c2,1.31,2.61,3.56,2.88,5.81a3.94,3.94,0,0,0,1.6,3c2.05,1.52,2.36,3.91,2.59,6.21a4.43,4.43,0,0,0,1.45,3.09,7.41,7.41,0,0,1,2,5.7,4.9,4.9,0,0,0,1.34,3.87c1.55,1.56,1.71,3.74,1.52,5.84a4.54,4.54,0,0,0,1,3.71,6.83,6.83,0,0,1,1.19,5.68,5.27,5.27,0,0,0,.79,4.26c1.3,1.87,1.1,4.12.62,6.25a4,4,0,0,0,.47,3.37c1.25,2,.93,4.14.36,6.25a4.5,4.5,0,0,0,.23,3.84c1.19,2.09.59,4.41-.23,6.48a4.19,4.19,0,0,0,0,3.4,7.91,7.91,0,0,1-.6,6.48,4,4,0,0,0-.26,3.38,7.73,7.73,0,0,1-1,6.43,4.43,4.43,0,0,0-.5,3.6c.65,2.3-.37,4.41-1.55,6.31a3.84,3.84,0,0,0-.69,3.31c.58,2.33-.57,4.41-1.91,6.19a4.16,4.16,0,0,0-.95,3.48c.38,2.09-.75,3.88-2,5.46a6.1,6.1,0,0,0-1.67,4.46c.14,2.21-1.37,3.86-2.83,5.36a3.45,3.45,0,0,0-1.18,2.67c0,2.41-1.33,4.23-3,5.76a4.89,4.89,0,0,0-1.9,3.33,7.38,7.38,0,0,1-3.3,5.11,5.35,5.35,0,0,0-2.31,3.66c-.32,2.21-2,3.55-3.77,4.72a4.32,4.32,0,0,0-2.1,2.95c-.45,2.2-2.26,3.65-4.17,4.68a4.7,4.7,0,0,0-2.42,3c-.61,2-2.32,3.21-4.13,4.11a5.35,5.35,0,0,0-3,3.07c-.8,2.15-2.84,3.18-4.88,4a3.94,3.94,0,0,0-2.45,2.32c-.94,2.14-3,3.08-5,3.79a4.76,4.76,0,0,0-3,2.36c-1.11,2.13-3.31,2.9-5.52,3.4a3.6,3.6,0,0,0-2.62,1.78c-1.11,1.94-3.1,2.66-5.18,3.11a5.75,5.75,0,0,0-4,2.2c-1.34,1.85-3.67,2.21-5.8,2.44a3.85,3.85,0,0,0-2.83,1.4c-1.75,2.11-4.31,2.21-6.76,2.49a3.39,3.39,0,0,0-1.93.6c-1.83,2.07-4.21,2.52-6.74,2.38a4.73,4.73,0,0,0-3.66,1.26c-1.74,1.5-4,1.59-6.14,1.29a3.85,3.85,0,0,0-3.31.78,6.74,6.74,0,0,1-5.68,1.18,5.92,5.92,0,0,0-4.73.7c-1.81,1.19-4,.77-6.06.32a4.11,4.11,0,0,0-3.39.35c-2.21,1.33-4.5.75-6.72,0a3.56,3.56,0,0,0-3.15.13c-2.15,1.17-4.41.56-6.46-.3a4.93,4.93,0,0,0-3.86-.1c-2.34.9-4.52-.14-6.68-1a3.31,3.31,0,0,0-2.2-.37c-2.71,1-5.05.12-7.29-1.17a4,4,0,0,0-3.37-.54c-2.27.63-4.23-.43-6-1.61a5,5,0,0,0-3.76-1c-2.39.37-4.36-.84-6.11-2.2a4.1,4.1,0,0,0-3.26-1c-2.31.25-4.16-1-5.75-2.46a4.42,4.42,0,0,0-3.59-1.44c-2.2.14-3.89-1.28-5.36-2.76a4.7,4.7,0,0,0-3.46-1.69c-2.3-.06-3.94-1.64-5.33-3.3a4.57,4.57,0,0,0-3.37-1.89c-2.21-.21-3.69-1.85-4.89-3.54a4.75,4.75,0,0,0-3.22-2.14c-2.3-.43-3.68-2.21-4.8-4a4.39,4.39,0,0,0-2.89-2.2c-2.35-.61-3.61-2.55-4.65-4.54a4.14,4.14,0,0,0-2.57-2.2c-2.32-.76-3.46-2.74-4.41-4.8A4.16,4.16,0,0,0,420,597.4c-2.35-.91-3.4-3.06-4.19-5.26a3.7,3.7,0,0,0-2-2.42c-2.31-1.05-3.22-3.26-3.86-5.52a4.1,4.1,0,0,0-2-2.75c-2.12-1.18-2.87-3.36-3.31-5.58a4.43,4.43,0,0,0-2-3c-1.92-1.3-2.54-3.45-2.78-5.62a4.27,4.27,0,0,0-1.7-3.21c-2-1.54-2.28-3.94-2.53-6.24a4.1,4.1,0,0,0-1.34-2.89c-1.79-1.63-2.21-3.86-2.11-6.13a4.35,4.35,0,0,0-1.26-3.42c-1.55-1.59-1.75-3.72-1.61-5.82a5,5,0,0,0-1.1-3.94,7,7,0,0,1-1.1-5.93,4.52,4.52,0,0,0-.76-3.8c-1.36-2-1-4.23-.73-6.48a4.46,4.46,0,0,0-.2-2.68,7.07,7.07,0,0,1-.71-6.21,6.07,6.07,0,0,0-.84-5.79v-2.88c.47-1.17,1-2.34,1.38-3.53a1.6,1.6,0,0,0-.08-1.1c-1.42-2.77-.72-5.41.4-8.06a3.07,3.07,0,0,0,.29-2c-1-2.73-.3-5.15.89-7.58a3.6,3.6,0,0,0,.57-2.21c-.94-3,.21-5.45,1.64-7.89.3-.52.73-1.24.59-1.7-.95-3.16.49-5.58,2.2-8,.31-.43.74-1.1.63-1.45-.83-3.31.94-5.66,2.78-8a2.6,2.6,0,0,0,.68-1.67c-.35-2.93,1.11-5,2.95-7,.45-.51,1.1-1.17,1.1-1.73-.16-3.15,1.61-5.22,3.65-7.21.43-.43,1.05-1,1.1-1.46.11-3.31,2.1-5.39,4.48-7.27a2.66,2.66,0,0,0,1-1.51c.28-3.05,2.28-4.8,4.55-6.39.5-.35,1.24-.8,1.29-1.29.41-3.37,2.83-5,5.38-6.62a2.3,2.3,0,0,0,1.11-1.15c.76-3.14,3.1-4.69,5.74-6,.48-.23,1.11-.6,1.23-1,.9-3.25,3.52-4.55,6.27-5.74a2.21,2.21,0,0,0,1.22-1c1-2.86,3.44-4,6-5,.71-.26,1.63-.64,1.91-1.22,1.27-2.68,3.66-3.62,6.22-4.42.66-.19,1.62-.34,1.87-.82,1.6-3,4.42-3.75,7.33-4.36a2.42,2.42,0,0,0,1.43-.67c1.73-2.77,4.53-3.31,7.41-3.72.53-.08,1.25-.16,1.5-.52,2-2.73,4.89-3,7.88-3.31a2.3,2.3,0,0,0,1.49-.51c2-2.32,4.65-2.55,7.43-2.51a3.07,3.07,0,0,0,2-.42c2.3-2.26,5-2.41,8-2a2.46,2.46,0,0,0,1.75-.38c2.21-1.86,4.75-2,7.47-1.51a3.58,3.58,0,0,0,2.47-.24,7.83,7.83,0,0,1,6.89-.94,4.78,4.78,0,0,0,4.94-1.22Z" transform="translate(-383.91 -359.44)" style="fill:#231f20"/><path d="M654.82,473.07a7.93,7.93,0,0,0,1.19,5.51,3.31,3.31,0,0,1,.49,2.21,9.71,9.71,0,0,0,1.1,7.13,2.83,2.83,0,0,1,.14,1.79c-.39,2.46-.65,4.88.55,7.25a3.07,3.07,0,0,1,0,2c-.59,2.43-1,4.81.17,7.23a3.19,3.19,0,0,1-.22,2,11,11,0,0,0-.31,7,3.09,3.09,0,0,1-.33,2,11.08,11.08,0,0,0-.86,7,3.94,3.94,0,0,1-.49,2.2c-1,2.21-2,4.36-1.23,6.88a2.58,2.58,0,0,1-.51,1.72c-1.33,2.21-2.36,4.49-1.86,7.21a2.29,2.29,0,0,1-.56,1.46c-1.53,2.21-2.88,4.42-2.5,7.27.07.49-.48,1.1-.86,1.6-1.5,1.91-2.78,3.86-2.73,6.45a3.82,3.82,0,0,1-1.11,2c-1.57,1.84-3,3.7-3.13,6.28a2.7,2.7,0,0,1-.94,1.54,10.58,10.58,0,0,0-3.82,6.43,2.4,2.4,0,0,1-.93,1.26c-2,1.64-3.77,3.41-4.35,6.12-.12.57-.82,1.1-1.36,1.48-2,1.46-3.7,3-4.41,5.52a2.7,2.7,0,0,1-1.22,1.3c-2.2,1.32-4.22,2.83-5.08,5.51-.16.49-.85.88-1.38,1.11-2.21,1.16-4.24,2.51-5.31,5-.23.53-1,.88-1.63,1.17-2.2,1-4.23,2.21-5.45,4.41-.31.59-1.2.93-1.88,1.2-2.21.88-4.23,1.81-5.52,3.94a3.4,3.4,0,0,1-2,1.1,10,10,0,0,0-6,3.67,3.43,3.43,0,0,1-1.83.81c-2.35.57-4.6,1.24-6.26,3.2a3.72,3.72,0,0,1-2.11.83c-2.39.4-4.65.92-6.42,2.83a3.6,3.6,0,0,1-2.21.61c-2.34.16-4.57.55-6.38,2.28a2.63,2.63,0,0,1-1.72.44c-2.51,0-4.93.16-7,1.81a2.94,2.94,0,0,1-1.76.42c-2.65-.09-5.28-.32-7.55,1.55-.27.23-.89.13-1.34.07-2.63-.33-5.22-.68-7.64.9-.42.27-1.21.08-1.79,0-2.45-.56-4.84-.89-7.23.4a2.93,2.93,0,0,1-2-.11c-2.33-.68-4.61-1.21-7-.14a2.94,2.94,0,0,1-2-.2c-2.36-.85-4.7-1.49-7.22-.57a2.38,2.38,0,0,1-1.57-.23c-2.43-1.11-4.81-2.14-7.59-1.23-.47.16-1.19-.27-1.73-.55-2.21-1.17-4.42-2.2-7.06-1.54a2.17,2.17,0,0,1-1.49-.48,10.31,10.31,0,0,0-7.13-2.2,3.28,3.28,0,0,1-1.85-.84c-2-1.39-4-2.64-6.62-2.47a2.63,2.63,0,0,1-1.65-.73c-1.94-1.72-4-3.2-6.75-3.15a2.72,2.72,0,0,1-1.53-.94,10.57,10.57,0,0,0-6.32-3.59,3.16,3.16,0,0,1-1.69-1.1c-1.68-1.87-3.44-3.52-6.11-3.88-.51-.07-1-.69-1.38-1.1-1.53-2-3.19-3.74-5.78-4.42-.64-.16-1.18-1-1.62-1.57-1.36-1.91-2.78-3.67-5.19-4.42a3,3,0,0,1-1.4-1.43c-1.25-2.2-2.62-4.19-5.15-5.12a2.17,2.17,0,0,1-1.1-1.15c-1.1-2.44-2.37-4.69-5-5.81-.42-.17-.68-.83-.88-1.33-.94-2.42-2-4.68-4.49-6-.44-.23-.68-1-.88-1.55-.8-2.37-1.68-4.66-4-6.07a2.35,2.35,0,0,1-.78-1.36c-.64-2.59-1.37-5.07-3.71-6.76-.41-.29-.49-1.1-.62-1.71-.53-2.42-1.1-4.8-3.14-6.54-.43-.36-.52-1.25-.6-1.92-.28-2.41-.72-4.71-2.57-6.53a3,3,0,0,1-.58-1.94c-.08-2.51-.33-4.9-2.11-6.93a3.62,3.62,0,0,1-.41-2.21c.09-2.35,0-4.59-1.54-6.62a3.22,3.22,0,0,1-.22-2.2,9.76,9.76,0,0,0-1.11-6.69,2.74,2.74,0,0,1-.23-1.76c.43-2.55.69-5-.59-7.47a3.21,3.21,0,0,1,.07-2c.6-2.36,1-4.67-.15-7a2.54,2.54,0,0,1,0-1.8,10.88,10.88,0,0,0,.42-7.48,2.76,2.76,0,0,1,.31-1.78,10.86,10.86,0,0,0,.87-7.22,2.86,2.86,0,0,1,.35-1.74c1.1-2.32,2.21-4.61,1.39-7.31a2.32,2.32,0,0,1,.45-1.51c1.34-2.3,2.56-4.58,1.93-7.43-.1-.46.46-1.1.8-1.63,1.37-2.08,2.62-4.17,2.3-6.86a2.74,2.74,0,0,1,.75-1.62c1.58-2,2.91-4,2.8-6.67a2.72,2.72,0,0,1,.88-1.59c1.74-1.91,3.3-3.89,3.39-6.62a2.73,2.73,0,0,1,1-1.5,10.54,10.54,0,0,0,3.74-6.22,2.35,2.35,0,0,1,.83-1.32c2.11-1.67,3.93-3.49,4.47-6.29.1-.5.75-1,1.25-1.31,2-1.49,3.84-3.08,4.51-5.68.14-.55.9-1,1.48-1.37,2.06-1.29,3.91-2.74,4.72-5.18a2.33,2.33,0,0,1,1.1-1.11c2.38-1.21,4.57-2.58,5.65-5.24.2-.46.93-.75,1.49-1,2.26-1.1,4.41-2.21,5.61-4.6a2.59,2.59,0,0,1,1.48-1c2.38-.82,4.55-1.85,5.95-4.13a3.09,3.09,0,0,1,1.77-1c2.46-.64,4.66-1.58,6.19-3.79.28-.42,1.1-.58,1.63-.71,2.44-.55,4.77-1.19,6.46-3.31a3.17,3.17,0,0,1,1.9-.74c2.48-.39,4.83-.92,6.62-2.92a3.13,3.13,0,0,1,2-.53c2.43-.16,4.73-.53,6.62-2.34a2.84,2.84,0,0,1,1.73-.39,11.29,11.29,0,0,0,6.84-1.69,4.52,4.52,0,0,1,2.45-.5c2.4,0,4.79.16,6.83-1.51a1.92,1.92,0,0,1,1.33-.18c2.71.38,5.38.74,7.86-.93.35-.24,1.1,0,1.58.07,2.52.6,5,1,7.43-.43a2.72,2.72,0,0,1,1.8.13c2.39.73,4.75,1.28,7.22.15a3.1,3.1,0,0,1,2,.25,10.45,10.45,0,0,0,7,.62,3.3,3.3,0,0,1,2,.34c2.31.93,4.56,1.95,7.15,1.1a2.27,2.27,0,0,1,1.54.38c2.34,1.26,4.67,2.42,7.49,1.68.42-.11,1,.28,1.47.57,2.1,1.42,4.26,2.48,6.92,2.2a2.71,2.71,0,0,1,1.68.61c2.09,1.55,4.19,2.88,7,2.71a3.1,3.1,0,0,1,1.79,1c1.86,1.56,3.76,2.9,6.38,2.92a3.48,3.48,0,0,1,1.89,1.2,10.6,10.6,0,0,0,6,3.3,3.67,3.67,0,0,1,1.87,1.24c1.65,1.79,3.31,3.39,5.93,3.76a2.68,2.68,0,0,1,1.42,1.1c1.58,2.09,3.31,3.9,6,4.54.56.14,1.1.88,1.44,1.43,1.39,2,2.82,3.86,5.36,4.51a2.18,2.18,0,0,1,1.1,1.1c1.28,2.36,2.73,4.49,5.42,5.52.48.19.85.89,1.1,1.43,1.11,2.26,2.31,4.41,4.78,5.43a2.27,2.27,0,0,1,1,1.26c.91,2.52,2,4.84,4.6,6.15.4.21.6.87.77,1.37.79,2.46,1.71,4.8,4.07,6.27.44.27.64,1,.79,1.63.63,2.41,1.37,4.73,3.53,6.33a2.86,2.86,0,0,1,.71,1.66c.51,2.53,1.1,5,3.23,6.75.39.32.46,1.11.53,1.72.27,2.5.7,4.89,2.64,6.75a2.63,2.63,0,0,1,.5,1.73c0,2.6.38,5,2.21,7.16.55.65.35,1.94.5,2.94" transform="translate(-383.91 -359.44)" style="fill:#cc9f53"/><path d="M667.16,481.34c1.41,2,1.56,5.68,0,7.53-2.13,2.52-4.62,4.71-7,7.09-1.53-2.2-1.56-5.85.12-7.72,2.13-2.41,4.57-4.57,6.89-6.87" transform="translate(-383.91 -359.44)" style="fill:#cc9f53"/><path d="M481.56,369.41c3-1.81,5.78-2.2,8.34-.76a78.9,78.9,0,0,1,7.57,5.36,6.29,6.29,0,0,1-7.25,1.37c-2.94-1.65-5.58-3.82-8.66-6" transform="translate(-383.91 -359.44)" style="fill:#cc9f53"/><path d="M514.93,644.51c-3.59-.07-6.41-.87-8.15-4-1-1.81-2.08-3.57-3.1-5.37-.33-.6-.56-1.25-.94-2.12,3.36-.27,6.05.53,7.84,3a77.05,77.05,0,0,1,4.2,7.19,4.28,4.28,0,0,1,.15,1.23" transform="translate(-383.91 -359.44)" style="fill:#cc9f53"/><path d="M548.59,634.06c3.24-1.83,6.76-1.61,9.09.34,2.13,1.76,4.23,3.57,6.37,5.39-2.21,1.71-5.52,2.11-7.72.61-2.64-1.87-5-4.07-7.79-6.34" transform="translate(-383.91 -359.44)" style="fill:#cc9f53"/><path d="M557.49,632.13c3.06-1.64,5.76-2.2,8.36-.68s5,3.56,8,5.7a15.32,15.32,0,0,1-3.05,1.26,8,8,0,0,1-6.95-1.57c-1.85-1.6-3.94-2.93-6.36-4.71" transform="translate(-383.91 -359.44)" style="fill:#cc9f53"/><path d="M401.25,464.65c0,3.31-1,5.91-3.3,7.37a85.22,85.22,0,0,1-9.14,4.26c-.17-3.13.75-5.52,2.8-7.07,2.78-2,6.16-3.06,9.68-4.56" transform="translate(-383.91 -359.44)" style="fill:#cc9f53"/><path d="M467.72,621.21c3.45.5,5.74,2,6.77,4.6a74.42,74.42,0,0,1,2.39,9.17,6.84,6.84,0,0,1-6.61-4.11c-1-3-1.59-6.1-2.5-9.65" transform="translate(-383.91 -359.44)" style="fill:#cc9f53"/><path d="M395.57,510.26c1.42,3.2,1.11,5.89-.47,8a72.06,72.06,0,0,1-6.85,6.91c-1.48-2.09-1.53-5.82.13-7.72,2.12-2.43,4.56-4.57,7.19-7.17" transform="translate(-383.91 -359.44)" style="fill:#cc9f53"/><path d="M506.88,372.57c-2.89,1.46-5.6,1.67-7.84.33-2.81-1.7-5.19-4.12-8-6.37,2.71-1.65,5.32-1.87,7.62-.6,3,1.62,5.33,4.13,8.17,6.62" transform="translate(-383.91 -359.44)" style="fill:#cc9f53"/><path d="M459.61,616.74c3.43.77,5.64,2.37,6.45,5.08a88.49,88.49,0,0,1,1.78,9.29c-2.64,0-5.67-2-6.3-4.41-.8-3.12-1.25-6.33-1.93-9.93" transform="translate(-383.91 -359.44)" style="fill:#cc9f53"/><path d="M654.08,542c.14-3.54,1.1-6.12,3.55-7.58a87,87,0,0,1,8.67-4c.59,2.56-.67,6-2.85,7.23-2.85,1.55-5.88,2.75-9.37,4.34" transform="translate(-383.91 -359.44)" style="fill:#cc9f53"/><path d="M659.07,487c-1.69-3.05-1.61-5.75-.12-8a77,77,0,0,1,6.37-7.38c1.65,2.21,1.95,5.67.38,7.72-2,2.57-4.24,4.89-6.62,7.59" transform="translate(-383.91 -359.44)" style="fill:#cc9f53"/><path d="M404,572c-2.39-2.77-3.1-5.52-2.1-8.35a67,67,0,0,1,3.74-7.72c.1-.19.36-.29.68-.53a7.21,7.21,0,0,1,2,7c-1,3.2-2.76,6.15-4.41,9.59" transform="translate(-383.91 -359.44)" style="fill:#cc9f53"/><path d="M493.53,631.16c3.31-.38,5.84.6,7.35,2.77,1.87,2.69,3.07,5.86,4.76,9.2-3.31.17-5.89-.64-7.4-2.86a81.73,81.73,0,0,1-4.71-9.11" transform="translate(-383.91 -359.44)" style="fill:#cc9f53"/><path d="M409,580.32c-2.33-2.21-3.41-4.63-2.85-7.09.76-3.31,2.34-6.36,3.71-9.86,2.31,2.2,3.38,4.59,2.9,7.15-.63,3.31-2.31,6.35-3.76,9.8" transform="translate(-383.91 -359.44)" style="fill:#cc9f53"/><path d="M614.61,603.14c2.2-3.63,5.14-5.06,8.51-4.54,1.88.3,3.76.53,5.65.83.67.1,1.33.31,2.36.54-1.51,2.64-3.64,4.26-6.14,4.31-3.31.08-6.7-.69-10.38-1.1" transform="translate(-383.91 -359.44)" style="fill:#cc9f53"/><path d="M636.07,427.17c-3.31-2.41-4.41-5.32-3.62-8.62.59-2.39,1.22-4.77,1.84-7.15a4.51,4.51,0,0,1,.51-.8,7.26,7.26,0,0,1,3.52,6.61c-.29,3.31-1.41,6.46-2.21,9.93" transform="translate(-383.91 -359.44)" style="fill:#cc9f53"/><path d="M607.49,608.94c2.21-3.31,5.17-4.6,8.46-3.91l7.94,1.69c-1.1,2.44-4.18,4.51-6.61,4.18-3.2-.45-6.35-1.24-9.83-2" transform="translate(-383.91 -359.44)" style="fill:#cc9f53"/><path d="M440.78,403.35c-2.12,3.63-5.11,5.07-8.49,4.55-1.87-.3-3.77-.53-5.65-.83-.68-.1-1.34-.29-2.39-.52,1.53-2.63,3.63-4.29,6.14-4.35,3.31-.06,6.71.71,10.39,1.11" transform="translate(-383.91 -359.44)" style="fill:#cc9f53"/><path d="M520.22,361.79c3.42-.81,6.12-.48,8.12,1.52a90,90,0,0,1,5.95,7.4,6.81,6.81,0,0,1-7.8-1c-2.11-2.35-4-4.94-6.27-7.89" transform="translate(-383.91 -359.44)" style="fill:#cc9f53"/><path d="M552.75,373.4c-3.21.39-5.85-.4-7.56-2.6a77.65,77.65,0,0,1-5-8.36A5.81,5.81,0,0,1,542,362c2.86.35,5.38,1.3,6.82,4.1.88,1.69,1.91,3.31,2.84,5,.37.67.67,1.38,1.1,2.33" transform="translate(-383.91 -359.44)" style="fill:#cc9f53"/><path d="M535.18,644.71c-3.41.8-6.11.47-8.1-1.54a86.33,86.33,0,0,1-6-7.39,6.92,6.92,0,0,1,7.81,1c2.11,2.35,4,4.94,6.25,7.89" transform="translate(-383.91 -359.44)" style="fill:#cc9f53"/><path d="M549.8,363.36c3.37-.13,5.94.69,7.45,3a82.29,82.29,0,0,1,4.42,8.68c-2.62.76-6.19-.47-7.47-2.71-1.56-2.74-2.82-5.65-4.41-8.94" transform="translate(-383.91 -359.44)" style="fill:#cc9f53"/><path d="M587.56,375.36c2.73,0,5.66,2,6.31,4.48.82,3.1,1.24,6.31,1.84,9.54-2.78-.09-5.64-2-6.32-4.5-.82-3.1-1.23-6.31-1.83-9.52" transform="translate(-383.91 -359.44)" style="fill:#cc9f53"/><path d="M489,376.73c-2.91,2-5.61,2.53-8.14,1.37a73.85,73.85,0,0,1-8.12-4.94,6.81,6.81,0,0,1,7.72-1.65c2.79,1.48,5.41,3.31,8.57,5.22" transform="translate(-383.91 -359.44)" style="fill:#cc9f53"/><path d="M579.14,371.16c3.16.77,5.62,2.36,6.49,5.79.66,2.61,1.27,5.24,1.9,7.87a6.45,6.45,0,0,1-6.43-3.73c-1.1-3.1-1.76-6.37-2.61-9.57l.65-.36" transform="translate(-383.91 -359.44)" style="fill:#cc9f53"/><path d="M543.08,372.06c-3.42.36-6.35-.39-8.35-3.55-1.39-2.21-2.87-4.31-4.51-6.77,3.08-.84,5.68-.27,7.4,1.56,2.31,2.44,4,5.44,6,8.2l-.5.56" transform="translate(-383.91 -359.44)" style="fill:#cc9f53"/><path d="M434.88,610c-3.6-1.87-5.18-4.85-4.74-8.22.18-1.34.25-2.68.41-4s.33-2.47.51-3.74a7,7,0,0,1,4.75,6.3c-.11,3.14-.59,6.27-.93,9.69" transform="translate(-383.91 -359.44)" style="fill:#cc9f53"/><path d="M450.73,622c-3.31-1.11-5.29-3-5.69-5.78-.45-3.16-.1-6.42-.1-9.86a7.28,7.28,0,0,1,5.2,5.63,90.38,90.38,0,0,1,.59,10" transform="translate(-383.91 -359.44)" style="fill:#cc9f53"/><path d="M421,596c-3.23-2.3-4.41-5.24-3.65-8.35.65-2.69,1.34-5.36,2.09-8.38,2.69,1.81,4.07,4.19,3.85,6.78-.28,3.31-1.44,6.46-2.29,9.93" transform="translate(-383.91 -359.44)" style="fill:#cc9f53"/><path d="M398.2,529c1.39,3.24,1.66,6.21-.65,9-1.69,2.08-3.31,4.23-5.15,6.62-1.73-3-2-5.73-.52-8.25a66.32,66.32,0,0,1,5.39-7c.16-.2.52-.24.93-.41" transform="translate(-383.91 -359.44)" style="fill:#cc9f53"/><path d="M600.62,624.57c-2.2,2.29-4.77,3.31-7.21,2.64-3.23-.83-6.24-2.52-9.8-4,2.46-2.32,5-3.31,7.55-2.57,3.15.88,6.1,2.51,9.46,4" transform="translate(-383.91 -359.44)" style="fill:#cc9f53"/><path d="M398.81,473.52c.37,3.43-.58,6-2.68,7.57-2.55,1.9-5.6,3.17-8.47,4.74-.84-2.55.11-6.05,2.2-7.39,2.73-1.73,5.65-3.13,8.92-4.92" transform="translate(-383.91 -359.44)" style="fill:#cc9f53"/><path d="M431.24,399.74c1.64-2.73,3.92-4.19,6.46-4.08,3.3.16,6.61,1.17,10.39,1.91-1.89,2.79-4.2,4.27-6.83,4.12-3.31-.2-6.5-1.23-10-1.95" transform="translate(-383.91 -359.44)" style="fill:#cc9f53"/><path d="M620.56,396.7c2.68,1.1,5,4.26,4.86,6.72-.22,3-.65,6-1,9.22a5.72,5.72,0,0,1-1.54-.62c-2.21-1.92-3.63-4.2-3.26-7.28.33-2.66.65-5.32,1-8" transform="translate(-383.91 -359.44)" style="fill:#cc9f53"/><path d="M446.65,387.34c2.51-2.89,5.66-3.84,8.64-2.81,2.4.84,4.78,1.77,7.17,2.66a3.78,3.78,0,0,1,.56.4c-1.26,2.1-4.58,3.75-6.94,3.08-3.11-.9-6.12-2.21-9.43-3.31" transform="translate(-383.91 -359.44)" style="fill:#cc9f53"/><path d="M656,443.34c2,2.88,2.81,5.52,1.58,8.24a84.48,84.48,0,0,1-4.42,7.66c-.1.17-.36.25-.72.48-1.8-2.44-2.49-5.12-1.29-7.82a92.34,92.34,0,0,1,4.82-8.56" transform="translate(-383.91 -359.44)" style="fill:#cc9f53"/><path d="M605,384.9a7,7,0,0,1,5.51,5.78c.25,3.05.06,6.14.06,9.22-2.45-.42-5.17-3.09-5.39-5.52-.25-2.84-.29-5.7-.42-8.55a3.9,3.9,0,0,1,.19-.9" transform="translate(-383.91 -359.44)" style="fill:#cc9f53"/><path d="M651.45,434.6c2.39,2.59,3.06,5.28,2.2,7.91a70.91,70.91,0,0,1-4,8.6c-2.1-1.63-3.39-5.14-2.5-7.34,1.22-3,2.76-5.86,4.33-9.17" transform="translate(-383.91 -359.44)" style="fill:#cc9f53"/><path d="M471.72,383.28c-2.35,2.42-4.92,3.31-7.45,2.6-3.17-.86-6.11-2.5-9.49-4,2.26-2.21,4.74-3.31,7.2-2.65,3.23.85,6.26,2.53,9.74,4" transform="translate(-383.91 -359.44)" style="fill:#cc9f53"/><path d="M645.6,443c-3-2.84-3.69-5.83-2.43-9,1-2.48,2-4.95,3.08-7.48,2.21,1.44,3.75,4.69,3,6.91-1,3.15-2.37,6.2-3.69,9.57" transform="translate(-383.91 -359.44)" style="fill:#cc9f53"/><path d="M399.45,563.15c-2-2.88-2.83-5.52-1.58-8.25a85.23,85.23,0,0,1,4.41-7.65c.1-.17.38-.25.73-.48,1.78,2.43,2.48,5.13,1.29,7.83s-3,5.38-4.82,8.55" transform="translate(-383.91 -359.44)" style="fill:#cc9f53"/><path d="M647.72,559.12c.16-3.21,1.5-5.42,3.75-6.62,3-1.61,6.38-2.07,10-3.1-.27,3.26-1.56,5.59-4,6.69a85,85,0,0,1-9.73,3" transform="translate(-383.91 -359.44)" style="fill:#cc9f53"/><path d="M643.43,566.84c1-3.47,2.84-5.83,6.34-6.62,2.2-.48,4.38-.93,6.52-1.35a10.79,10.79,0,0,1,1.61-.09c-.6,3.14-2,5.46-4.89,6.36a78.61,78.61,0,0,1-8.58,1.89,4.26,4.26,0,0,1-1-.22" transform="translate(-383.91 -359.44)" style="fill:#cc9f53"/><path d="M525.27,370.89c-3.31,1.28-6,.92-8.24-1a66.55,66.55,0,0,1-5.93-6.52c-.14-.14-.1-.44-.15-.65a7.39,7.39,0,0,1,8.5,1.66c1.87,2,3.68,4.12,5.82,6.51" transform="translate(-383.91 -359.44)" style="fill:#cc9f53"/><path d="M592,619c2.6-2.94,5.77-3.88,8.71-2.82,2.62.94,5.21,1.93,8.1,3-2,2.42-4.49,3.6-7.11,3.07-3.23-.64-6.29-2.07-9.7-3.26" transform="translate(-383.91 -359.44)" style="fill:#cc9f53"/><path d="M459.09,626.93c-3.82-1-5.92-3.4-6.26-6.62-.29-2.6-.55-5.21-.82-7.82a1.16,1.16,0,0,1,.18-.42,6.82,6.82,0,0,1,5.78,5.12c.56,3.09.74,6.26,1.1,9.69" transform="translate(-383.91 -359.44)" style="fill:#cc9f53"/><path d="M633.42,582.8c.94-3.11,2.77-5.14,5.35-5.72,3.19-.72,6.62-.63,10.15-.91A7.37,7.37,0,0,1,644,581.8c-3.3,1.1-6.86.66-10.62,1" transform="translate(-383.91 -359.44)" style="fill:#cc9f53"/><path d="M455.54,392.21c-1.84,2.7-4.26,4-6.73,3.69-3.31-.38-6.52-1.65-10.2-2.64,2-2.56,4.25-3.92,6.81-3.57a84.06,84.06,0,0,1,10.12,2.52" transform="translate(-383.91 -359.44)" style="fill:#cc9f53"/><path d="M616.59,613.22c-2.34,3.14-5.28,4.23-8.41,3.37-2.65-.72-5.29-1.53-8-2.31,1.21-2.27,4.54-4.24,6.8-3.74,3.13.69,6.21,1.72,9.59,2.68" transform="translate(-383.91 -359.44)" style="fill:#cc9f53"/><path d="M425.35,586.86c2.45,1.56,3.95,3.73,3.85,6.34a87.67,87.67,0,0,1-1.45,9.93c-2.74-1.27-4.83-4.55-4.48-7,.4-2.82,1-5.61,1.52-8.41,0-.21.24-.38.56-.83" transform="translate(-383.91 -359.44)" style="fill:#cc9f53"/><path d="M628.43,403.45c2.52,2.21,4.31,4.67,3.45,8.37-.49,2.09-.73,4.23-1.1,6.33a14,14,0,0,1-.57,1.57c-2.51-1.55-4-3.67-4-6.24a82.56,82.56,0,0,1,1.39-10h.8" transform="translate(-383.91 -359.44)" style="fill:#cc9f53"/><path d="M442.46,616a7.39,7.39,0,0,1-5.25-6.62c0-2.92.25-5.85.41-8.82,2.68.33,5.17,3.38,5.31,6.39v1.43c-.14,2.45-.28,4.88-.44,7.54" transform="translate(-383.91 -359.44)" style="fill:#cc9f53"/><path d="M393.79,456.92c.88-3.74,2.43-6.29,5.93-7.25,2.5-.68,5-1.41,8-2.2a13.5,13.5,0,0,1-.54,2.66,7.73,7.73,0,0,1-5.43,4.88c-2,.45-4,1.11-6,1.66-.49.13-1,.15-2,.29" transform="translate(-383.91 -359.44)" style="fill:#cc9f53"/><path d="M655.57,468.79c-2.29-3.12-2.46-6.28-.67-9,1.52-2.32,3.1-4.6,4.66-6.92A6.73,6.73,0,0,1,661,460.6c-1.59,2.74-3.46,5.3-5.38,8.19" transform="translate(-383.91 -359.44)" style="fill:#cc9f53"/><path d="M495.9,641.22c-3.23,0-5.76-1-7.12-3.31-1.66-2.81-2.65-6-4.09-9.43,3.42-.12,5.9,1.11,7.28,3.46,1.6,2.78,2.55,5.93,3.93,9.28" transform="translate(-383.91 -359.44)" style="fill:#cc9f53"/><path d="M657.53,477.9c-1.75-3-2-5.74-.56-8.15a81.61,81.61,0,0,1,5.75-7.58c1.83,2,2.31,5.68.85,7.83-1.78,2.62-3.83,5-6,7.9" transform="translate(-383.91 -359.44)" style="fill:#cc9f53"/><path d="M480.13,379.64c-3,2.58-6.1,3.05-9,1.57-2.46-1.26-4.9-2.6-7.38-3.92,1.68-2.05,5.2-3.21,7.41-2.21,3,1.33,5.79,2.95,8.95,4.58" transform="translate(-383.91 -359.44)" style="fill:#cc9f53"/><path d="M397.42,448c.72-3.44,2.2-5.75,5-6.61a78.85,78.85,0,0,1,8.33-1.85,4.58,4.58,0,0,1,1.11.16c-.64,2.93-2.13,5.23-4.78,6.14a82.53,82.53,0,0,1-9.73,2.21" transform="translate(-383.91 -359.44)" style="fill:#cc9f53"/><path d="M567,629.32c2.89-1.56,5.82-2.2,8.83-.23,2.2,1.46,4.53,2.86,7.13,4.49-2.57,1.82-5.06,2.64-7.46,1.57a86.73,86.73,0,0,1-8.76-5.08c.06-.25.14-.49.21-.75" transform="translate(-383.91 -359.44)" style="fill:#cc9f53"/><path d="M476.07,625.14c3.52.26,5.9,1.59,7.09,4.13a76.17,76.17,0,0,1,3,9c-2.63.37-5.85-1.1-6.85-3.49-1.24-3-2.11-6.1-3.31-9.6" transform="translate(-383.91 -359.44)" style="fill:#cc9f53"/><path d="M575.17,626.81c2.36-2,4.76-2.83,7.19-2.21,3.37.87,6.2,3,9.54,4.78-2.36,2.06-4.9,3-7.34,2.09-3.17-1.1-6.09-3-9.39-4.69" transform="translate(-383.91 -359.44)" style="fill:#cc9f53"/><path d="M579.22,381c-2.64.35-6-1.27-6.93-3.54-1.22-3-2.08-6.09-3.19-9.45,3.24,0,5.62,1.28,6.82,3.63,1.47,2.91,2.2,6.2,3.3,9.36" transform="translate(-383.91 -359.44)" style="fill:#cc9f53"/><path d="M559.49,365.28c3.22,0,5.75,1,7.12,3.31a77.22,77.22,0,0,1,4,9.14c-2.73.46-6.09-.88-7.18-3.11-1.45-2.9-2.53-6-3.92-9.32" transform="translate(-383.91 -359.44)" style="fill:#cc9f53"/><path d="M389.93,535c-1.67-2.75-1.69-5.33-.38-7.55,1.72-2.92,4.29-5.21,6.81-7.87,1.66,2.81,1.63,5.52.17,7.72-1.79,2.73-4.25,5-6.61,7.72" transform="translate(-383.91 -359.44)" style="fill:#cc9f53"/><path d="M656.5,533c-.16-3.51.69-6.14,3.09-7.81a82.3,82.3,0,0,1,8.1-4.41,6.48,6.48,0,0,1-1.76,7c-2.74,2.15-6,3.43-9.43,5.27" transform="translate(-383.91 -359.44)" style="fill:#cc9f53"/><path d="M395.68,553.92c-2-2.6-2.44-5.28-1.31-7.72,1.4-3,3.52-5.6,5.52-8.68,1.89,2.69,2.49,5.33,1.31,7.72a83.2,83.2,0,0,1-5.52,8.6" transform="translate(-383.91 -359.44)" style="fill:#cc9f53"/><path d="M664.29,539.93c.08,3.12-1,5.4-3.12,6.74-2.9,1.88-6.35,2.62-9.68,3.78-.25-3,1.47-6.25,3.94-7.28,2.78-1.1,5.64-2.07,8.82-3.24" transform="translate(-383.91 -359.44)" style="fill:#cc9f53"/><path d="M525.3,644.83c-3.31.67-5.91.16-7.65-1.74a85.2,85.2,0,0,1-5.95-8.33c3.25-.93,5.9-.29,7.72,1.73,2.15,2.36,3.73,5.25,5.86,8.34" transform="translate(-383.91 -359.44)" style="fill:#cc9f53"/><path d="M545,643.8c-3.31,1.11-6.08,1-8.29-1s-4.2-4.51-6.3-6.81a6.24,6.24,0,0,1,7.19,0c2.79,2.09,4.75,5,7.4,7.82" transform="translate(-383.91 -359.44)" style="fill:#cc9f53"/><path d="M603.57,394.87c-3.31-1.1-5.4-2.77-6-5.42a86.51,86.51,0,0,1-1.25-10c3.17.86,5.27,2.55,5.93,5.12.82,3.17.89,6.54,1.35,10.32" transform="translate(-383.91 -359.44)" style="fill:#cc9f53"/><path d="M414.77,588.29c-3-2.37-4.07-5.42-3.13-8.47.83-2.65,1.72-5.26,2.58-7.92a6.61,6.61,0,0,1,3.42,7.05c-.69,3.07-1.84,6-2.87,9.34" transform="translate(-383.91 -359.44)" style="fill:#cc9f53"/><path d="M638.88,575.17a7.63,7.63,0,0,1,6.39-6.46c1.9-.26,3.77-.59,5.67-.84.85-.11,1.71-.1,2.73-.16a7.2,7.2,0,0,1-4.41,5.78c-3.25,1.25-6.8,1.24-10.33,1.68" transform="translate(-383.91 -359.44)" style="fill:#cc9f53"/><path d="M658.41,523.86c-.6-3.26,0-5.88,2-7.61a78.14,78.14,0,0,1,8.34-5.52c.85,3.16,0,6.44-2.28,8-2.47,1.71-5.07,3.23-8.08,5.12" transform="translate(-383.91 -359.44)" style="fill:#cc9f53"/><path d="M386.49,495.81c-.71-3.09-.17-5.75,1.88-7.5a74.17,74.17,0,0,1,8.3-5.51c1.1,2.53.15,6.24-2,7.72-2.57,1.83-5.31,3.4-8.21,5.24" transform="translate(-383.91 -359.44)" style="fill:#cc9f53"/><path d="M401.73,438.58c.73-2.85,2.31-5,4.95-5.76a87.25,87.25,0,0,1,9.64-1.59c-.1,2.72-2.56,5.89-5.06,6.37-2.8.54-5.67.8-8.52,1.16a4.37,4.37,0,0,1-1-.18" transform="translate(-383.91 -359.44)" style="fill:#cc9f53"/><path d="M406.37,430.33c1.1-3.12,2.76-5.18,5.36-5.71a89.29,89.29,0,0,1,9.93-1c-.44,2.75-2.79,5.52-5.17,5.89-3.2.44-6.46.54-10.14.82" transform="translate(-383.91 -359.44)" style="fill:#cc9f53"/><path d="M641.07,435c-2.47-2-3.61-4.27-3.31-6.9.35-3.38,1.86-6.49,3-10,2.5,2.06,3.79,4.41,3.31,7.11-.57,3.22-1.89,6.32-3,9.82" transform="translate(-383.91 -359.44)" style="fill:#cc9f53"/><path d="M612.94,390.1c3.16,1.7,5.08,3.78,5.23,6.84a87.54,87.54,0,0,1-.39,9,7.12,7.12,0,0,1-5.25-6.11c-.06-3.06.25-6.14.41-9.75" transform="translate(-383.91 -359.44)" style="fill:#cc9f53"/><path d="M659.47,514.73c-.69-3.38-.33-6.13,1.85-8.12a73.73,73.73,0,0,1,7.1-5.19c.15-.12.44-.07.65-.09.95,2.43.25,6-1.72,7.59-2.39,1.93-5,3.67-7.88,5.81" transform="translate(-383.91 -359.44)" style="fill:#cc9f53"/><path d="M386.5,515c-.6-2.66-.58-5.38,1.41-7.47,2.2-2.27,4.75-4.15,7.19-6.23,1.36,2.29,1.1,6-.78,7.84-2.21,2.21-4.78,4.13-7.19,6.17l-.63-.31" transform="translate(-383.91 -359.44)" style="fill:#cc9f53"/><path d="M395.92,491.81c.74,3.31.34,6-1.7,7.94a82.43,82.43,0,0,1-7.82,5.85,7.27,7.27,0,0,1-.58-1.76c0-2.89.75-5.45,3.31-7.19,2.21-1.45,4.24-3,6.73-4.84" transform="translate(-383.91 -359.44)" style="fill:#cc9f53"/><path d="M660.08,505.44a6.94,6.94,0,0,1,.84-7.72c2.14-2.47,4.91-4.41,7.72-6.86.86,3.16.86,5.84-1,7.86a90.06,90.06,0,0,1-7.62,6.73" transform="translate(-383.91 -359.44)" style="fill:#cc9f53"/><path d="M404.23,456.61c-.3,2.68-1.4,5.16-3.79,6.41a82.56,82.56,0,0,1-9.34,3.6c-.06-3.31,1.1-5.72,3.46-7a72.94,72.94,0,0,1,9.23-3.61l.44.59" transform="translate(-383.91 -359.44)" style="fill:#cc9f53"/><path d="M554.81,642.29c-3.92,1.38-6.91,1.19-9.46-1.34-1.89-1.9-3.71-3.89-5.73-6,2.62-1.11,5.36-1.27,7.53.26,2.67,1.9,4.87,4.41,7.66,7.09" transform="translate(-383.91 -359.44)" style="fill:#cc9f53"/><path d="M500.82,364.32c2.91-1.52,5.6-1.45,7.72.11,2.67,1.92,4.88,4.41,7.57,7-2.93,1.27-5.51,1.32-7.72,0-2.86-1.79-5-4.51-7.6-7.08" transform="translate(-383.91 -359.44)" style="fill:#cc9f53"/><path d="M434.1,409.86c-1.63,2.91-3.68,4.76-6.62,4.86s-6.16-.32-9.27-.52a6.82,6.82,0,0,1,6.21-5.06c1.67,0,3.3.08,5,.2,1.43.1,2.84.31,4.72.52" transform="translate(-383.91 -359.44)" style="fill:#cc9f53"/><path d="M621.56,596.12c1.68-2.63,3.86-4.53,7.25-4.41,2.83.12,5.65.4,8.53.61-.88,2.73-3.43,5-6,5-3.23,0-6.46-.3-9.7-.47a4,4,0,0,0-.11-.71" transform="translate(-383.91 -359.44)" style="fill:#cc9f53"/><path d="M412,422c1.29-3.44,3.9-5.45,6.9-5.52,2.84-.05,5.68,0,8.58,0-.64,2.69-3.15,5.32-5.51,5.52-3.22.2-6.46,0-9.93,0" transform="translate(-383.91 -359.44)" style="fill:#cc9f53"/><path d="M643.61,584.53c-1.41,3.16-3.38,5.1-6.3,5.42a84.12,84.12,0,0,1-9.26.07c.31-2.53,3-5.29,5.52-5.44,3.15-.19,6.32,0,10,0" transform="translate(-383.91 -359.44)" style="fill:#cc9f53"/><path d="M629.85,503.12a102.51,102.51,0,1,1-102.51-102.5h0a102.5,102.5,0,0,1,102.5,102.5h0m24.56,0A127.06,127.06,0,1,0,527.39,630.18,127.06,127.06,0,0,0,654.45,503.12h0" transform="translate(-383.91 -359.44)" style="fill:#231f20"/><circle cx="143.33" cy="143.92" r="130.88" style="fill:none;stroke:#231f20;stroke-width:2px"/><path d="M630.37,544.48l-2.87,6.15c.59.39,1.34.86,2.42,1.63l.24-.53c-.7-.84-.75-1-.27-2l1.5-3.19a94.24,94.24,0,0,1,5.57,8.18h.24l.55-1.63c-2.44-2.81-4.8-5.76-7.14-8.6Zm-1.1,13.17c.54-1,1.87-1.1,3.23-.35.93.53,1.93,1.36,1.43,2.21s-2,.92-3.9-.16a8.31,8.31,0,0,1-1.11-.75,2.88,2.88,0,0,1,.35-1Zm-.86.59a5.06,5.06,0,0,1-1.67-4.06,8.1,8.1,0,0,1,.34-1.83l-.59-.21a12.83,12.83,0,0,0-.75,2.4,6.29,6.29,0,0,0,3.12,6.81c2.29,1.29,4.48.64,5.51-1.17a3.67,3.67,0,0,0-1.25-5l-.17-.09a3,3,0,0,0-4.09.94,3.07,3.07,0,0,0-.17.31,2.67,2.67,0,0,0-.19,1Zm-7.27,4.55c.69-1.1,2.45-.41,3.79.49a10.16,10.16,0,0,1,1,.75,2.19,2.19,0,0,1-.33.88c-.66,1-2.11,1-3.31.18-.9-.6-1.66-1.54-1.17-2.29Zm-.39-.63a3.7,3.7,0,0,0,.88,5.11,3,3,0,0,0,4.23-.65,1.75,1.75,0,0,0,.18-.29,2.11,2.11,0,0,0,.29-1l.09-.91a5.51,5.51,0,0,1,1,6.13l.55.24a10,10,0,0,0,1.1-2.64,6.27,6.27,0,0,0-2.75-6.74c-1.89-1.26-4.16-1.31-5.52.69Zm5.43,10.75-.44-.35c-.88,1-1.17.92-2.08.22L617,567.63a34.74,34.74,0,0,1-1.61,3.51l.37.3.55-.64c.48-.5.6-.49,1.3,0l4.74,3.67c.94.72,1,1,.31,2.06l.44.35Zm-15,1.68-2.69,2.74.41.41c1-.78,1.1-.64,1.43,0,.44,1,1,2.68,1.3,3.68-1.33-.4-2.68-.77-3.91-1.17-.62-.22-.78-.34-.12-1.21l-.42-.41L603.9,582l.41.41a2,2,0,0,1,2.26-.32c1.94.52,3.16.86,4.12,1.18a1.83,1.83,0,0,1,.8.48l1.32,1.3c1.1,1,1,1.21.12,2.29l.4.4,3.77-3.84-.4-.38c-1.1,1-1.28,1-2.35,0L612.83,582a1.9,1.9,0,0,1-.52-1,34.81,34.81,0,0,1-1-3.59,2.21,2.21,0,0,1,.4-2.4Zm-6.11,10.26c-.74-.76-1.74-1.82-2.21-2.34l-.3.27a1.12,1.12,0,0,1-.47.92L597,588a.91.91,0,0,1-1,.29l-.3.26c.51.68,1.21,1.66,1.94,2.63l.47-.4a3.87,3.87,0,0,1-.55-1.72c0-.36.12-.68,1.17-1.56l.43-.37,5.06,6c.91,1.1.85,1.25-.14,2.2l.37.44,4.13-3.47-.38-.44c-1.19.85-1.38.88-2.28-.2l-5-6,.57-.47c.74-.63,1.11-.82,1.54-.8a3.71,3.71,0,0,1,1.66.85Zm-3.82,13.51-.34-.46c-1.1.63-1.24.62-2.06-.51l-3.73-5.14c-.83-1.1-.78-1.3.16-2.12l-.35-.47-4,2.93.34.47c1.1-.64,1.25-.64,2.07.49l3.74,5.14c.82,1.11.76,1.3-.17,2.13l.34.46Zm-10.14-2.72c-.65-.8-1.11-1.37-1.53-1.86a7.28,7.28,0,0,0-2.2.85c-2,1.24-2.46,3.21-1.5,4.76.84,1.34,2.31,1.48,4.2,1.31,1.41-.09,2.36.06,2.87.87a1.61,1.61,0,0,1-.31,2.26l-.18.11c-1.34.84-3.16-.24-4-1l-.39.48a19,19,0,0,0,1.9,2.1,4.68,4.68,0,0,0,1-.21,6.23,6.23,0,0,0,1.54-.68c2-1.28,2.64-3.37,1.64-5-.87-1.4-2.37-1.56-4.29-1.36-1.62.15-2.4,0-2.89-.75a1.57,1.57,0,0,1,.45-2.17l0,0c1.1-.71,2.33,0,3.16.71Zm-11.1,9.8-1.87-3.56c-.16-.31-.21-.47-.15-.62a1.13,1.13,0,0,1,.58-.48c.82-.43,2-.34,2.84,1.21a2.38,2.38,0,0,1,.22,2.11,2.44,2.44,0,0,1-1.23,1.1Zm8.26,1.21a2.55,2.55,0,0,1-1.22-.16,15,15,0,0,1-2-1,26.09,26.09,0,0,1-2.3-1.45,2.87,2.87,0,0,0,.58-3.31,2.51,2.51,0,0,0-2-1.42,4.94,4.94,0,0,0-2.91.83l-4.12,2.2.28.51c1.1-.45,1.32-.38,1.94.79l3,5.63c.64,1.21.55,1.43-.5,2.11l.26.51,4.42-2.32-.27-.51c-1.17.47-1.37.42-2-.81l-1.1-2.12.28-.16a1.1,1.1,0,0,1,1.3.12c.83.55,1.64,1.11,2.34,1.54,1.1.61,1.85.72,3.75-.16l.44-.21ZM576,610.11a5.27,5.27,0,0,1-.24,1.85c-.19.54-.68.85-1.49,1.18a4.2,4.2,0,0,1-1.43.41c-.37,0-.59-.38-.88-1.1l-1.11-2.66,1-.42c1.3-.54,1.52-.55,2.21.46l.55-.22-1.26-3.08-.55.23c.24,1.15,0,1.32-1.24,1.84l-1,.42-1.33-3.25c-.21-.5-.15-.56.41-.79l.74-.3c.86-.35,1.31-.42,1.69-.24a3.22,3.22,0,0,1,1.1,1.1l.54-.31-1.1-2.2L565.42,606l.22.53c1.1-.35,1.31-.34,1.85,1l2.39,5.89c.53,1.31.42,1.46-.84,2.1l.21.53,7.82-3.18c-.06-.49-.33-2-.5-2.75Zm-11.5-3.82-3.71,1.11.17.57c1.35-.23,1.41,0,1.37,1.19,0,1.51-.16,3.55-.33,6.13h-.06c-1-1.32-3.22-4.17-4.06-5.3-.44-.61-.48-.79.62-1.3l-.16-.58-4.74,1.4.17.58c1-.2,1.33,0,2.2,1,1.11,1.46,3.77,4.84,5.71,7.42l.79-.24c.27-3.63.64-7.65.8-9,.18-1.69.41-2,1.41-2.39Zm-9.73,13.87-.12-.57c-1.23.15-1.39.07-1.69-1.3l-1.34-6.21c-.3-1.36-.19-1.5,1-1.87l-.12-.56-4.86,1.1.12.56c1.23-.14,1.4-.09,1.71,1.29l1.34,6.21c.3,1.36.18,1.5-1,1.89l.12.56ZM546.6,611l-4,.46,0,.56c1.23-.08,1.59.16,1.76.86a27.12,27.12,0,0,1,.44,2.7l.33,2.89h-.06L538,612l-3,.35.07.56a1.69,1.69,0,0,1,1.44.43c.37.36.41.65.53,1.72l.4,3.44a19.41,19.41,0,0,1,.14,2.75c0,.69-.33,1-1.24,1.19l.06.57,4-.46-.07-.57c-1.22.07-1.53-.19-1.71-.92a26.12,26.12,0,0,1-.43-2.65l-.41-3.7h0l7.77,7.42.8-.1-.75-6.52a23.27,23.27,0,0,1-.17-2.77c0-.75.32-1,1.2-1.17Zm-12.44,1.38-4.14.06V613c1.11,0,1.51.39,1.61,1a12.28,12.28,0,0,1,.17,2.35v1.77c0,2.76-.81,4.26-2.78,4.29-1.79,0-2.69-1.41-2.73-3.89v-3.61c0-1.55.15-1.65,1.35-1.78v-.58l-5,.06v.58c1.22.1,1.38.2,1.41,1.76v3.9c0,1.93.48,3.17,1.42,3.88a4.74,4.74,0,0,0,2.94.81,4.23,4.23,0,0,0,3.05-1.25,5.74,5.74,0,0,0,1.1-4.14v-1.81a12.63,12.63,0,0,1,.12-2.3c.08-.58.49-.93,1.38-1ZM517.07,620a5.42,5.42,0,0,1-1.1,1.51,2.19,2.19,0,0,1-1.86.32,4.56,4.56,0,0,1-1.46-.33c-.32-.19-.33-.61-.24-1.4l.32-2.86,1.1.12c1.4.17,1.61.26,1.69,1.47l.58.07.39-3.31-.6-.07c-.34,1.1-.58,1.18-2,1l-1.1-.12.39-3.5c.07-.54.14-.56.74-.5l.8.09c.91.11,1.34.28,1.59.61a3.29,3.29,0,0,1,.49,1.49h.62c.06-1,.1-2.21.12-2.5l-7.72-.88-.07.58c1.16.23,1.32.34,1.11,1.76l-.72,6.32c-.15,1.39-.33,1.48-1.74,1.43l-.07.58,8.38,1c.19-.47.69-1.93.89-2.66Zm-8.91-6.19c.15-1,.37-2.49.5-3.17l-.4-.09a1.11,1.11,0,0,1-1,.21l-6.5-1.41c-.47-.1-.67-.2-.84-.61l-.39-.09c-.21.82-.57,2-.89,3.14l.6.14a3.93,3.93,0,0,1,1-1.49c.29-.23.62-.32,2,0l.55.12-1.67,7.64c-.29,1.38-.48,1.45-1.86,1.26l-.12.56,5.27,1.1.12-.56c-1.4-.42-1.54-.55-1.24-1.93l1.66-7.65.73.16c.95.21,1.33.39,1.56.73a3.51,3.51,0,0,1,.35,1.83Zm-15.44-.13-2.46-.79c.77-1,1.53-2,2.35-3h0Zm3.31,5.69.18-.54c-1-.45-1.11-.71-1.18-2.28-.15-3-.24-6.09-.36-9.18l-.86-.05-5.84,7c-1,1.16-1.22,1.27-2.3,1.11l-.17.54,3.53,1.1.17-.55c-1.1-.52-1.1-.75-.59-1.44s.77-1.1,1.1-1.5l3,1c0,.7.06,1.45.06,2,0,.77-.11.94-1.11.77l-.17.56Zm-8.35-10.94c.35-1,.86-2.37,1.1-3l-.37-.17a1.1,1.1,0,0,1-1,0l-6.1-2.66c-.44-.19-.61-.33-.69-.76l-.39-.16c-.36.76-.93,1.83-1.48,2.91l.57.24a3.73,3.73,0,0,1,1.3-1.26c.32-.16.66-.19,1.92.36l.52.22L480,611.3c-.56,1.29-.75,1.31-2.07.86l-.23.53,4.95,2.21.23-.53c-1.29-.7-1.4-.85-.84-2.14l3.12-7.17.69.29c.89.39,1.23.64,1.39,1a3.94,3.94,0,0,1,0,1.87Zm-10.28-4.8c.37-1,.61-1.67.84-2.2A7.23,7.23,0,0,0,476.4,600c-2.08-1.1-4-.5-4.86,1.1-.73,1.4-.11,2.75,1,4.29.79,1.17,1.1,2.07.7,2.92a1.6,1.6,0,0,1-2.08.88,1.24,1.24,0,0,1-.2-.1c-1.41-.74-1.4-2.85-1.2-3.94l-.61-.1a18.54,18.54,0,0,0-.86,2.71,6.67,6.67,0,0,0,.71.79,6,6,0,0,0,1.37,1c2.14,1.1,4.24.56,5.12-1.1.76-1.46.15-2.83-1-4.42-1-1.32-1.24-2.07-.82-2.87a1.57,1.57,0,0,1,2.08-.78l.13.07c1.19.63,1.18,2,1,3.08Zm-10.27-5.31c.54-.92,1.29-2.21,1.68-2.75l-.34-.23a1.14,1.14,0,0,1-1-.2l-5.51-3.77c-.4-.28-.54-.44-.54-.89l-.34-.23c-.5.68-1.27,1.61-2,2.57l.49.35a4.21,4.21,0,0,1,1.53-1c.35-.1.69-.06,1.82.72l.46.32-4.41,6.44c-.8,1.16-1,1.1-2.21.45l-.33.48,4.41,3.06.33-.47c-1.1-.93-1.21-1.1-.42-2.26l4.42-6.44.6.43c.81.55,1.11.87,1.17,1.27a3.63,3.63,0,0,1-.37,1.83Zm-7.33-8.45-3.81-3.2-.37.44c.88.88.91,1,0,2.12l-1.57,1.86-3.46-2.91,1.58-1.86c.9-1.11,1.1-1.11,2.05-.39l.37-.44-3.79-3.19-.38.44c.91.91.95,1.11,0,2.21l-4.09,4.86c-.9,1.11-1.1,1.11-2.08.37l-.38.44,3.77,3.17.38-.44c-.86-.88-.91-1,0-2.12l2-2.34,3.47,2.9-2,2.36c-.9,1.1-1.1,1.1-2.15.31l-.36.44,3.86,3.25.36-.44c-.88-.89-.91-1.1,0-2.13l4.1-4.86c.91-1.11,1-1.11,2.11-.36Zm-13.6-4.26L442.81,582l-.42.4c1.11,1.37,1,1.52.19,2.3l-1.1,1.11a1,1,0,0,1-.94.35,1.75,1.75,0,0,1-.77-.54c-1.85-2-.78-4.67,1-6.38,2.2-2,4.65-2,6-.54a3,3,0,0,1,.26,4.13l.53.36,1.81-2a14.5,14.5,0,0,0-1.86-2.67c-2.4-2.56-5.92-3.44-8.67-.87-2.43,2.27-2.34,5.57.28,8.37a17.93,17.93,0,0,0,3,2.35,8.87,8.87,0,0,1,1.11-1.1l.95-.89c.8-.77.92-.73,1.61-.25ZM434,579.79l.45-.37c-.7-1-.69-1.2.39-2.08l4.95-4c1.1-.9,1.24-.85,2.11,0l.46-.37-3.16-3.85-.45.37c.69,1,.71,1.21-.39,2.1l-4.94,4c-1.1.87-1.26.84-2.13-.06l-.45.37ZM430.21,566l3.31-2.3c.28-.2.44-.27.58-.23a1.23,1.23,0,0,1,.56.52c.53.76.6,2-.85,3a2.34,2.34,0,0,1-2.07.47,2.39,2.39,0,0,1-1.28-1.1Zm-.17,8.35a2.6,2.6,0,0,1,0-1.24,14.17,14.17,0,0,1,.76-2.06c.34-.85.9-2,1.11-2.46a2.82,2.82,0,0,0,3.38.16,2.49,2.49,0,0,0,1.1-2.21,4.8,4.8,0,0,0-1.18-2.78l-2.65-3.81-.48.33c.6,1.1.55,1.26-.54,2l-5.2,3.64c-1.11.78-1.36.71-2.21-.24l-.47.33,2.85,4.1.48-.33c-.62-1.11-.59-1.31.54-2.09l2-1.39.18.27a1.11,1.11,0,0,1,0,1.3c-.44.89-.93,1.77-1.24,2.51-.46,1.11-.48,1.93.63,3.7.12.17.21.33.27.42Zm2-15.09-1.74-3.47-.52.26c.5,1.25.28,1.44-.71,1.67s-3.59.78-5.69,1.1h0c1.75-1.9,3.59-3.87,5.42-5.82l-.35-.71c-2.62.45-5.22.84-7.72,1.17h0c1.37-1.32,2.85-2.69,4.33-4.05.65-.58.87-.67,1.56.38l.52-.26-2.21-4.41-.52.26c.32.93.24,1.29-.74,2.2-2.2,2.14-4.33,4.12-6.61,6.27l.38.77,7.72-1.1h0l-5.36,5.71.39.77c4.76-.84,7.72-1.25,8.9-1.4,1.43-.21,1.75-.07,2.4.85Z" transform="translate(-383.91 -359.44)" style="fill:#cc9f53"/><path d="M634.71,527.23l.57.1c.34-1.25.47-1.31,2-1.1l6.13.87c1.36.2,1.48.29,1.39,1.61l.58.1.55-3.31-6.62-4.41,7.72-2,.56-3.38-.57-.1c-.36,1.39-.62,1.47-2.44,1l-3.23-.73a28.8,28.8,0,0,1-3-.85c-.58-.21-.81-.55-.73-1.5l-.57-.09-.65,3.93.57.1c.28-1.1.47-1.37,1.2-1.31a14.81,14.81,0,0,1,2.65.44l4.22.9v.07l-8.88,2L636,520l7.88,5v.07l-6.28-1c-1.51-.23-1.61-.33-1.54-1.57l-.57-.1Zm12.9-14.13.16-4.13h-.58c-.11,1.1-.45,1.49-1,1.56a11.78,11.78,0,0,1-2.3.08l-1.77-.06c-2.76-.11-4.21-1-4.15-3,.08-1.79,1.55-2.63,4-2.53l3.61.13c1.55.06,1.64.24,1.71,1.45h.58l.19-5h-.58c-.16,1.22-.27,1.38-1.83,1.32l-3.89-.15c-1.94-.07-3.2.32-4,1.23a4.71,4.71,0,0,0-.95,2.89A4.26,4.26,0,0,0,638,510a5.79,5.79,0,0,0,4.09,1.34l1.8.07a13.57,13.57,0,0,1,2.29.23c.58.11.91.54.93,1.43Zm-2.13-21.22a2.18,2.18,0,0,1,.91.09,1.5,1.5,0,0,1,.32,1,3.63,3.63,0,0,1-.77,2.78,5,5,0,0,1-3.47,1.55c-2.94.27-4.87-1.1-5.06-3.31-.1-1.16.28-1.44,1.45-1.54ZM647,488.2l-.58.06c0,1.15-.1,1.33-1.51,1.45l-6.29.56c-1.42.14-1.54,0-1.77-1.31h-.57l.37,4.24a8.32,8.32,0,0,0,1.82,4.87,5.28,5.28,0,0,0,4.6,1.67,4.77,4.77,0,0,0,3.37-1.78,6.62,6.62,0,0,0,1-4.86Zm-.33-2.38-.76-4-.56.1c.17,1.22,0,1.6-.72,1.81a22.42,22.42,0,0,1-2.66.65l-2.86.55v-.06l5.94-7.58-.59-3-.55.11a1.7,1.7,0,0,1-.32,1.48c-.33.39-.62.45-1.68.66l-3.39.66a19.23,19.23,0,0,1-2.73.35c-.69.06-1.1-.26-1.28-1.1l-.57.11.77,4,.56-.11c-.16-1.22.08-1.56.79-1.78a23.07,23.07,0,0,1,2.61-.63l3.65-.7h0l-6.82,8.32.16.78,6.45-1.25c.91-.17,1.82-.3,2.74-.38.75,0,1,.25,1.25,1.11Zm-10.56-11.56a5.74,5.74,0,0,1-1.82-.42c-.53-.24-.78-.76-1-1.59a4.35,4.35,0,0,1-.26-1.48c0-.36.43-.54,1.19-.77l2.76-.83.32,1.11c.4,1.34.4,1.56-.69,2.12l.17.57,3.19-1-.17-.56c-1.17.12-1.32-.08-1.72-1.42l-.32-1.1,3.37-1c.53-.16.57-.1.75.48l.23.76c.26.89.28,1.35.07,1.7a3.06,3.06,0,0,1-1.18,1.05l.27.56,2.33-.87-2.21-7.46-.55.16c.24,1.16.21,1.34-1.17,1.75l-6.09,1.82c-1.34.4-1.49.27-2-1L631,467l2.32,8.14c.5,0,2.05-.13,2.8-.23Zm-5.72-8.49.54-.22c-.37-1.2-.31-1.36,1-1.89l5.8-2.42c1.3-.53,1.45-.45,2,.66l.53-.21-1.89-4.61-.54.22c.37,1.19.33,1.36-1,1.89l-5.78,2.42c-1.28.53-1.44.44-2-.66l-.53.21Zm7.35-10.58L636,451.73l-.52.25c.47,1.29.26,1.39-.93,1.57-1.49.24-3.52.46-6.09.72h0c1.1-1.22,3.55-3.89,4.51-4.92.53-.54.7-.61,1.4.38l.53-.26-2.21-4.42-.52.27c.36,1,.27,1.3-.63,2.34-1.24,1.36-4.12,4.54-6.32,6.9l.37.74c3.62-.36,7.66-.7,9.06-.78,1.7-.11,2,.06,2.59,1ZM624,441.51l3.41-2.13c.29-.18.45-.25.59-.19s.31.18.53.54c.5.78.5,2-1,2.92a2.31,2.31,0,0,1-2.08.37,2.42,2.42,0,0,1-1.24-1.1Zm-.57,8.34a2.44,2.44,0,0,1,.06-1.23,13,13,0,0,1,.86-2c.38-.82,1-1.92,1.27-2.4a2.85,2.85,0,0,0,3.38.32,2.52,2.52,0,0,0,1.27-2.1,5,5,0,0,0-1.11-2.84l-2.48-3.94-.48.31c.54,1.11.48,1.29-.64,2l-5.39,3.37c-1.15.74-1.39.67-2.14-.33l-.49.31,2.66,4.23.48-.3c-.56-1.1-.52-1.34.64-2.06l2.05-1.29.17.26a1.1,1.1,0,0,1,0,1.31c-.49.87-1,1.72-1.35,2.45-.53,1.1-.58,1.91.44,3.72l.25.43Zm-4.56-11.56a5.79,5.79,0,0,1-1.85.26c-.57,0-1-.45-1.53-1.11a4.58,4.58,0,0,1-.78-1.29c-.08-.35.2-.65.83-1.1l2.32-1.82.67.88c.86,1.1.94,1.33.13,2.21l.37.46,2.62-2-.36-.46c-1,.53-1.25.4-2.1-.71l-.68-.87,2.78-2.15c.43-.33.49-.3.87.19l.48.63c.58.74.75,1.1.69,1.56a3.31,3.31,0,0,1-.72,1.39l.43.44,1.87-1.65L620,427l-.45.35c.64,1,.67,1.17-.47,2.05l-5,3.84c-1.1.85-1.29.78-2.2-.27l-.47.36,5.15,6.68c.47-.19,1.87-.85,2.53-1.21Zm-2.41-11.6c.66-.79,1.1-1.39,1.52-1.85a6.78,6.78,0,0,0-1.23-2c-1.59-1.71-3.61-1.78-5-.55-1.1,1.1-1,2.57-.47,4.41.36,1.36.41,2.32-.3,3a1.61,1.61,0,0,1-2.26.15l-.14-.15c-1.11-1.1-.39-3.15.15-4.11l-.54-.29a17.9,17.9,0,0,0-1.7,2.27,6.88,6.88,0,0,0,.41,1,6.35,6.35,0,0,0,1,1.38c1.65,1.77,3.83,1.93,5.21.64,1.19-1.1,1.1-2.62.48-4.47-.46-1.56-.48-2.36.18-3a1.56,1.56,0,0,1,2.2-.05l.09.1c.92,1,.45,2.27-.08,3.22Zm-8.66-7.29a2.29,2.29,0,1,0,0,3.24l.05,0a2.21,2.21,0,0,0,0-3.12ZM600.54,422l.36-.45c-.95-.9-.94-1,0-2.26l3.64-5c.8-1.1.93-1.18,2.07-.49l.34-.46-2.64-2-7,3.8,1.85-7.73-2.73-2.07-.34.46c1,1,1,1.23-.24,2.63l-2.21,2.45a29.47,29.47,0,0,1-2.2,2.27c-.45.41-.86.45-1.67-.06l-.34.46,3.17,2.42.35-.46c-.83-.75-1-1.1-.6-1.68a16,16,0,0,1,1.62-2.14l2.78-3.3h.06l-2.42,8.75.36.28,8.14-4.61H603l-3.89,5.19c-.92,1.22-1.05,1.26-2.12.61l-.35.46Zm-6.24-18.19-3.56-2.09-.3.49c.94.63,1.1,1.1.9,1.66a12.38,12.38,0,0,1-1,2.06l-.89,1.53c-1.4,2.38-2.9,3.23-4.6,2.21s-1.58-2.61-.32-4.74l1.83-3.12c.78-1.33,1-1.33,2.07-.82l.3-.5-4.31-2.52-.3.49c1,.73,1.1.9.3,2.21l-2,3.36c-1,1.67-1.22,3-.79,4.06a4.71,4.71,0,0,0,2.09,2.21,4.24,4.24,0,0,0,3.26.51,5.79,5.79,0,0,0,3.12-3l.91-1.56a16.39,16.39,0,0,1,1.29-1.91c.37-.45.9-.54,1.69-.13ZM575,395.48c.2-.43.34-.68.53-.75a1.63,1.63,0,0,1,1,.23,3.56,3.56,0,0,1,2,2.06,5,5,0,0,1-.38,3.78c-1.24,2.67-3.38,3.66-5.4,2.73-1-.49-1.1-1-.6-2Zm-2.45-3.14-.24.52c1,.6,1.1.75.5,2l-2.65,5.74c-.6,1.29-.8,1.31-2,.87l-.25.52,3.86,1.78a8.21,8.21,0,0,0,5.12.88,5.32,5.32,0,0,0,3.75-3.16,4.68,4.68,0,0,0,.15-3.79,6.6,6.6,0,0,0-3.71-3.31Zm-2.47-.93-3.86-1.2-.18.53c1.11.45,1.38.82,1.24,1.52a24.5,24.5,0,0,1-.71,2.64l-.9,2.77h0l-3.8-8.82-2.91-.94-.17.53c.66.29,1,.52,1.1,1s.11.77-.22,1.79l-1.11,3.31a17,17,0,0,1-1,2.56c-.27.64-.72.79-1.62.57l-.18.55,3.85,1.25.19-.55c-1.1-.45-1.32-.82-1.18-1.55a23.54,23.54,0,0,1,.77-2.73l1.1-3.54h0l4,9.92.75.25,2-6.25a23.82,23.82,0,0,1,1-2.59c.31-.68.71-.79,1.58-.56Zm-19.46,1.1-2.53-.49c.65-1.1,1.28-2.2,2-3.31h0Zm4,5.24.11-.58c-1-.32-1.17-.55-1.45-2.1-.53-3-1-6-1.5-9.06h-.86L546,393.73c-.79,1.27-1,1.4-2.14,1.34l-.1.56,3.63.7.11-.58c-1.16-.36-1.16-.6-.77-1.33s.65-1.16.92-1.64l3.12.6c.12.7.23,1.45.31,2,.12.76,0,.94-1,.91l-.11.56Zm-11.18-7.37-4.94-.44,0,.57c1.72.31,1.8.44,1.69,1.6l-.14,1.57a.9.9,0,0,1-.46.89,1.78,1.78,0,0,1-.94.11c-2.7-.23-3.69-2.94-3.47-5.44.25-3,2.13-4.59,4.11-4.41a3.06,3.06,0,0,1,2.95,2.9l.64-.07v-2.74a14.57,14.57,0,0,0-3.18-.75c-3.47-.31-6.69,1.39-7,5.14-.29,3.31,2,5.7,5.8,6a16.68,16.68,0,0,0,3.8-.25,8.34,8.34,0,0,1,0-1.58l.11-1.3c.1-1.1.2-1.17,1-1.25ZM531,394.63v-.58c-1.23-.13-1.36-.25-1.34-1.64l.08-6.35c0-1.4.15-1.5,1.39-1.6v-.59l-5-.05v.57c1.24.13,1.39.23,1.37,1.64l-.08,6.36c0,1.39-.16,1.5-1.41,1.6v.58Zm-6.76-8c-.15-1-.33-2.5-.38-3.19h-.41a1.1,1.1,0,0,1-.92.46l-6.61.42c-.49,0-.7,0-1-.35h-.41v3.25h.6a3.89,3.89,0,0,1,.59-1.71c.21-.3.49-.48,1.87-.56h.57l.48,7.82c.09,1.4-.06,1.51-1.44,1.71V395l5.38-.33v-.58c-1.47,0-1.63-.11-1.72-1.51l-.5-7.81h.75c1-.06,1.39,0,1.7.27a3.71,3.71,0,0,1,.84,1.68Zm-12.13.7c-.3-1-.53-1.71-.69-2.29a7.08,7.08,0,0,0-2.34-.06c-2.33.39-3.51,2-3.21,3.82.25,1.57,1.58,2.2,3.37,2.82,1.34.45,2.15,1,2.32,1.91a1.61,1.61,0,0,1-1.14,2l-.22,0c-1.56.26-2.83-1.43-3.31-2.42l-.54.29a18.16,18.16,0,0,0,.95,2.68,7.34,7.34,0,0,0,1,.2,6,6,0,0,0,1.69,0c2.38-.4,3.72-2.11,3.42-4-.27-1.61-1.59-2.34-3.45-2.89-1.55-.48-2.2-.91-2.38-1.8a1.58,1.58,0,0,1,1.22-1.87l.11,0c1.32-.21,2.14.9,2.63,1.87Zm-7.72,6.7a5.53,5.53,0,0,1-.52,1.78c-.26.52-.8.75-1.64,1a4.19,4.19,0,0,1-1.49.19c-.35-.07-.52-.45-.71-1.22l-.67-2.81,1.1-.25c1.37-.33,1.6-.32,2.09.78l.58-.13-.79-3.23-.57.13c.06,1.18-.15,1.31-1.49,1.65l-1.11.26-.82-3.41c-.14-.54-.08-.58.51-.73l.78-.18c.9-.22,1.36-.21,1.71,0a3.33,3.33,0,0,1,1,1.22l.57-.22-.75-2.37-7.56,1.84.13.55c1.17-.17,1.34-.13,1.69,1.27l1.5,6.18c.33,1.35.19,1.5-1.11,1.94l.13.56,8.21-2c0-.49,0-2.05-.09-2.8Zm-12-5.14-3.65,1.28.19.56c1.34-.3,1.42-.08,1.43,1.1.05,1.51,0,3.55,0,6.13h0c-1.11-1.26-3.42-4-4.32-5.09-.46-.6-.53-.76.56-1.34l-.2-.56-4.65,1.63.19.57c1-.26,1.34-.12,2.21.91,1.2,1.4,4,4.65,6.05,7.14l.79-.28c.08-3.65.26-7.72.35-9.09.11-1.69.32-2,1.3-2.44Zm-13,4.67-3.61,1.79.24.5c1.11-.48,1.55-.38,1.94.23a24.09,24.09,0,0,1,1.33,2.38l1.29,2.61h0l-8.9-3.7-2.75,1.36.24.5a1.81,1.81,0,0,1,1.51-.09c.47.23.61.49,1.11,1.45l1.53,3.1a17.87,17.87,0,0,1,1.1,2.54c.26.65,0,1.1-.77,1.54l.26.52,3.63-1.8-.25-.52c-1.1.49-1.51.34-1.92-.28a24.62,24.62,0,0,1-1.31-2.35L472.42,400h0l9.82,4.34L483,404l-3-5.93a21.16,21.16,0,0,1-1.1-2.54c-.27-.71-.06-1.1.73-1.51ZM472.6,409.1l-.28-.51c-1.11.53-1.3.5-2-.69l-3.22-5.52c-.72-1.21-.65-1.37.36-2.1l-.29-.49-4.3,2.56.29.49c1.1-.53,1.31-.51,2,.7l3.22,5.51c.71,1.19.63,1.37-.37,2.1l.28.5Zm-11.31-1.24a2.31,2.31,0,1,0,3.18.69l0-.06a2.22,2.22,0,0,0-3-.7Zm1,7.66-.38-.44c-1.1.72-1.21.69-2.2-.46L455.6,410c-.92-1-1-1.18,0-2.13l-.37-.44-2.55,2.14,2.21,7.63-7.1-3.48-2.63,2.2.38.44c1.17-.8,1.41-.7,2.51.81l1.91,2.68a28.18,28.18,0,0,1,1.74,2.61c.3.54.26.94-.42,1.61l.38.45,3-2.56-.36-.44c-.92.62-1.26.71-1.78.2a15.43,15.43,0,0,1-1.72-2l-2.62-3.43h0l8,4.27.34-.29-2.75-9h.06L458,416c1,1.16,1,1.29.14,2.21l.37.44Zm-19.06,2.2-2.83,3,.43.4c.81-.77,1.31-.83,1.8-.51a12.54,12.54,0,0,1,1.79,1.46l1.29,1.2c2,1.9,2.53,3.54,1.18,5s-2.89,1-4.7-.72l-2.63-2.47c-1.11-1.1-1.11-1.25-.36-2.21l-.41-.39-3.41,3.62.43.4c.91-.81,1.1-.86,2.2.2l2.85,2.67c1.42,1.32,2.62,1.84,3.79,1.66a4.79,4.79,0,0,0,2.62-1.56,4.25,4.25,0,0,0,1.21-3.06,5.73,5.73,0,0,0-2.21-3.69l-1.32-1.24a14.71,14.71,0,0,1-1.58-1.67c-.36-.47-.33-1,.25-1.69ZM430.85,435c-.39-.29-.6-.49-.64-.68a1.65,1.65,0,0,1,.43-1,3.65,3.65,0,0,1,2.42-1.57,4.92,4.92,0,0,1,3.63,1.11c2.37,1.73,2.92,4,1.61,5.82-.68.93-1.1.88-2.1.19Zm-3.57,1.77.47.34c.78-.87,1-.93,2.1-.1l5.1,3.74c1.1.84,1.1,1,.45,2.21l.46.34,2.52-3.43a8.22,8.22,0,0,0,1.86-4.85,5.3,5.3,0,0,0-2.36-4.29,4.65,4.65,0,0,0-3.69-.89,6.6,6.6,0,0,0-4,3Zm-1.31,2-2.06,3.48.48.28c.69-1,1.11-1.16,1.75-.87a24.13,24.13,0,0,1,2.41,1.28l2.51,1.49h0l-9.49,1.73L420,448.76l.47.29a1.7,1.7,0,0,1,1.22-.9c.51-.06.78.08,1.7.62l3,1.78a17.52,17.52,0,0,1,2.28,1.54c.56.41.61.88.19,1.71l.5.3,2.07-3.49-.5-.3c-.68,1-1.1,1.11-1.76.81a20.64,20.64,0,0,1-2.37-1.26l-3.2-1.91h0l10.61-1.69.41-.68L429,442.22a25.5,25.5,0,0,1-2.3-1.53c-.6-.46-.62-.88-.2-1.67Zm.12,15.68a5.37,5.37,0,0,1,1.11,1.51,2.2,2.2,0,0,1-.25,1.87,4.28,4.28,0,0,1-.75,1.29c-.27.26-.68.15-1.41-.17l-2.63-1.16.45-1c.56-1.29.71-1.45,1.88-1.18l.25-.54-3.05-1.33-.19.51c1,.66,1,.9.4,2.2l-.44,1-3.26-1.47c-.51-.22-.51-.3-.27-.86l.32-.73c.38-.85.66-1.21,1.05-1.34a3.17,3.17,0,0,1,1.56,0l.18-.6-2.34-.85-3.13,7.14.52.23c.57-1,.7-1.1,2-.58l5.81,2.56c1.29.57,1.31.76.86,2.1l.52.23,3.4-7.72c-.39-.32-1.65-1.24-2.28-1.64Zm-4.31,9.21c1.33,1.32,1.84,2.57,1.42,3.87-.7,2.14-3.13,3.06-6,2.13-2.33-.77-4.06-2.72-3.31-5a3,3,0,0,1,3.31-2.15l.08-.62c-1-.21-1.77-.34-2.68-.47a12.58,12.58,0,0,0-1.36,2.72c-1.22,3.75.2,6.95,3.44,8,2.51.81,5.79,0,7.15-4.21a16,16,0,0,0,.55-3.06,19,19,0,0,0-2.2-1.7Zm-11.83,15c.4-1.88,2.61-2.75,5.83-2,3,.65,4.2,2.2,3.87,3.76-.45,2.06-3,2.77-5.82,2.21s-4.24-2.21-3.88-3.88Zm-.61-.44a5.51,5.51,0,0,0,3.85,6.78l.42.1a5.65,5.65,0,0,0,2.28-11A5.35,5.35,0,0,0,409.4,478l-.06.28ZM409,494.59a1.18,1.18,0,0,1-.9-.25,1.68,1.68,0,0,1-.14-1.1,3.65,3.65,0,0,1,1.27-2.59,5,5,0,0,1,3.68-.92c2.94.26,4.6,1.93,4.41,4.15-.11,1.1-.54,1.36-1.71,1.26ZM406.86,498l.57.06c.22-1.11.33-1.31,1.75-1.17l6.3.56c1.41.12,1.5.3,1.5,1.61h.58l.37-4.23a8.31,8.31,0,0,0-.91-5.11,5.36,5.36,0,0,0-4.24-2.46,4.69,4.69,0,0,0-3.63,1.17,6.61,6.61,0,0,0-1.85,4.6Zm2.07,14.34a1.79,1.79,0,0,1-.91-.11,1.53,1.53,0,0,1-.3-1,3.53,3.53,0,0,1,.85-2.75,4.93,4.93,0,0,1,3.5-1.47c2.94-.19,4.84,1.21,5,3.43.08,1.16-.32,1.43-1.5,1.5Zm-1.59,3.64h.58c0-1.17.13-1.34,1.55-1.42l6.31-.41c1.41-.09,1.52.06,1.72,1.36h.57l-.26-4.24a8.27,8.27,0,0,0-1.69-4.92,5.31,5.31,0,0,0-4.55-1.78,4.7,4.7,0,0,0-3.41,1.69,6.58,6.58,0,0,0-1.1,4.83Zm7.32,6.3.43,2.53c-1.24-.23-2.5-.44-3.77-.69V524Zm3.52-5.57-.56.08c0,1.11-.12,1.31-1.49,2.1-2.62,1.52-5.29,3-8,4.53l.35.8,8.94,2c1.46.31,1.67.48,2,1.54l.56-.1-.6-3.65-.58.1c.06,1.22-.16,1.3-1,1.18s-1.3-.2-1.84-.29l-.52-3.14c.61-.35,1.27-.7,1.73-1,.68-.37.89-.33,1.19.61l.58-.09Z" transform="translate(-383.91 -359.44)" style="fill:#cc9f53"/><path d="M635,537.15l7.86-.76L641,542.53Zm-2.38-1.32,8.82,7.9,2.75-9Z" transform="translate(-383.91 -359.44)" style="fill:#cda053"/><polygon points="249.39 176.59 257.32 183.51 259.65 175.73 249.39 176.59" style="fill:#cc9f53"/><polygon points="26.44 175.51 28.97 183.39 36.98 176.91 26.44 175.51" style="fill:#cc9f53"/><path d="M419,536.55l-6.1,5L411,535.43Zm2.71-.24L410,534.7l2.74,9Z" transform="translate(-383.91 -359.44)" style="fill:#cc9f53"/><path d="M559,485.18l-31.57,57.57L494,485.18Zm28.93-51.84-28.21,51.4c53.37-.07,3,0,58.52,0L557.86,593.86l-30.47-50.67-28.55,50.28L435.39,484.74c25.37-.11,46.92,0,58.17,0,0-.9-29.63-51.44-29.63-51.44h124" transform="translate(-383.91 -359.44)" style="fill:#231f20"/><polygon points="175.06 125.35 143.45 182.92 110.05 125.35 175.06 125.35" style="fill:#cc9f53"/></svg>