<svg xmlns="http://www.w3.org/2000/svg" viewBox="0 -0.05 148.13 40.65"><g fill="#4a0077" data-name="Wyng Logo"><path d="M48.293 0a2.382 2.382 0 0 0-2.383 2.383v11.478a9.1 9.1 0 0 1-18.191 0V2.384a2.383 2.383 0 1 0-4.765 0v11.478a9.095 9.095 0 0 1-18.19 0V2.384a2.382 2.382 0 1 0-4.764 0v11.478a13.856 13.856 0 0 0 25.337 7.761 13.857 13.857 0 0 0 25.339-7.761V2.384A2.382 2.382 0 0 0 48.293.001" data-name="Path 478"/><path d="M113.264 27.719a2.382 2.382 0 0 1-2.382-2.383V13.86a9.095 9.095 0 1 0-18.19 0v11.477a2.383 2.383 0 0 1-4.765 0V13.86a13.86 13.86 0 0 1 27.72 0v11.477a2.382 2.382 0 0 1-2.383 2.383" data-name="Path 479"/><path d="M80.778 0a2.382 2.382 0 0 0-2.383 2.383V13.86a9.095 9.095 0 0 1-18.19 0V2.382a2.383 2.383 0 1 0-4.765 0V13.86A13.849 13.849 0 0 0 78.395 24.3v2.446a9.1 9.1 0 0 1-16.955 4.578 2.382 2.382 0 1 0-4.113 2.4 13.861 13.861 0 0 0 25.834-6.981V2.375a2.382 2.382 0 0 0-2.383-2.383" data-name="Path 480"/><path d="M134.271 22.955a9.095 9.095 0 1 1 9.094-9.1 9.105 9.105 0 0 1-9.094 9.1m13.859-9.1a13.884 13.884 0 1 0-4.765 10.446v2.445a9.1 9.1 0 0 1-16.956 4.579 2.382 2.382 0 1 0-4.113 2.4 13.861 13.861 0 0 0 25.834-6.982V13.852z" data-name="Path 481"/></g></svg>