<?xml version="1.0" ?>
<svg xmlns="http://www.w3.org/2000/svg" viewBox="0 0 155.536 42.566">
	<defs>
		<clipPath id="clip-path">
			<rect id="Rectangle_199" data-name="Rectangle 199" width="155.536" height="42.566" fill="#ea9836"/>
		</clipPath>
	</defs>
	<g id="C-DASH" clip-path="url(#clip-path)">
		<path id="Path_338" data-name="Path 338" d="M29,42.566H0V14.1A14.1,14.1,0,0,1,14.1,0h29V28.463A14.1,14.1,0,0,1,29,42.566" transform="translate(0 0)" fill="#ea9836"/>
		<path id="Path_339" data-name="Path 339" d="M61.754,55.572v.005a6.023,6.023,0,0,1-1.678,4.217,5.554,5.554,0,0,1-3.3,1.742,6.732,6.732,0,0,1-1.039.078A5.751,5.751,0,0,1,51.912,60.3l-.1-.086,1.616-1.968.105.089a3.251,3.251,0,0,0,.474.331,3.6,3.6,0,0,0,2.89.253,3.131,3.131,0,0,0,.56-.253A3.234,3.234,0,0,0,58.692,57.4a3.6,3.6,0,0,0,.466-1.791v-.035a3.463,3.463,0,0,0-1.023-2.5c-.062-.062-.127-.127-.194-.186a3.347,3.347,0,0,0-.9-.59,3.2,3.2,0,0,0-1.311-.267,3.287,3.287,0,0,0-2.857,1.688,6.629,6.629,0,0,0-.584,1.618,9.24,9.24,0,0,1-.39,1.236c-.108.253-.213.477-.32.679-.073.14-.153.28-.234.415-.1.164-.207.326-.318.482s-.221.3-.329.434c-.059.07-.107.129-.159.188l-.329.353a8.086,8.086,0,0,1-5.784,2.453H44.4a8.123,8.123,0,1,1,0-16.246,7.907,7.907,0,0,1,1.271.1c.06.008.124.019.191.032l.2.04c.083.016.162.035.242.054a8.208,8.208,0,0,1,3.307,1.688l.1.086-1.648,2.009-.1-.089a5.5,5.5,0,0,0-2.289-1.161l-.046-.011c-.051-.013-.105-.024-.156-.035l-.03-.005a.1.1,0,0,0-.038-.008,5.455,5.455,0,0,0-1.007-.092,5.513,5.513,0,1,0,0,11.027h.03A5.514,5.514,0,0,0,49.335,55.9a6.612,6.612,0,0,0,.412-1.19l.075-.272c.886-3.1,3.1-4.955,5.911-4.955a6.441,6.441,0,0,1,1.465.164,5.653,5.653,0,0,1,2.408,1.228,6.407,6.407,0,0,1,.557.547,6.027,6.027,0,0,1,1.591,4.152" transform="translate(-26.505 -33.123)" fill="#fff"/>
		<path id="Path_340" data-name="Path 340" d="M207.08,52.7l-.423.539a10.31,10.31,0,0,1-3.8,2.994,11.846,11.846,0,0,1-5.041,1.053,10.578,10.578,0,0,1-8.391-3.557,10.741,10.741,0,0,1-2.585-7.225,10.134,10.134,0,0,1,3.134-7.518,10.807,10.807,0,0,1,7.817-3.043,11.493,11.493,0,0,1,5.111,1.123,10.026,10.026,0,0,1,3.77,3.169l.382.528-2.553,1.96-.412-.533a7.584,7.584,0,0,0-2.741-2.257,8.1,8.1,0,0,0-3.533-.767,7.8,7.8,0,0,0-3.888,1.007,7.21,7.21,0,0,0-2.757,2.687,7.5,7.5,0,0,0-.978,3.813A7.079,7.079,0,0,0,192.377,52a7.56,7.56,0,0,0,5.555,2.138,7.762,7.762,0,0,0,6.183-2.9l.412-.479Z" transform="translate(-136.529 -26.261)" fill="#ea9836"/>
		<rect id="Rectangle_198" data-name="Rectangle 198" width="8.463" height="2.927" transform="translate(72.595 21.249)" fill="#ea9836"/>
		<path id="Path_341" data-name="Path 341" d="M328.4,42.076a8.974,8.974,0,0,0-4.669-3.633,20.549,20.549,0,0,0-6.425-.724h-4.621V58.106h6.729a12.745,12.745,0,0,0,5.846-1.115,8.6,8.6,0,0,0,3.485-3.471,10.739,10.739,0,0,0,1.322-5.369,10.93,10.93,0,0,0-1.667-6.075M315.85,40.929h.673a21.991,21.991,0,0,1,5.7.514,6.018,6.018,0,0,1,3.355,2.413,7.534,7.534,0,0,1,1.214,4.327,7.136,7.136,0,0,1-1.112,4.066,5.6,5.6,0,0,1-3.029,2.251,20.132,20.132,0,0,1-5.267.458h-1.53Z" transform="translate(-228.482 -27.562)" fill="#ea9836"/>
		<path id="Path_342" data-name="Path 342" d="M394.115,37.719h-1.322l-9.632,20.387h3.611l2.967-6.266h7.351l2.994,6.266h3.538Zm1.516,10.935h-4.384l2.2-4.642Z" transform="translate(-279.984 -27.562)" fill="#ea9836"/>
		<path id="Path_343" data-name="Path 343" d="M473.172,51.485a5.532,5.532,0,0,1-1.777,4.082,5.962,5.962,0,0,1-4.3,1.715,6.3,6.3,0,0,1-3.514-1.034,9.158,9.158,0,0,1-2.822-3.339l-.312-.568,2.776-1.667.334.619c1.007,1.853,2.138,2.792,3.358,2.792a3.091,3.091,0,0,0,1.484-.369,2.464,2.464,0,0,0,1.015-.942,2.409,2.409,0,0,0,.347-1.252,2.549,2.549,0,0,0-.522-1.489,15.047,15.047,0,0,0-3.118-2.906,16.779,16.779,0,0,1-3.1-2.744,5.416,5.416,0,0,1-1.139-3.307,5.113,5.113,0,0,1,.687-2.6,4.923,4.923,0,0,1,1.936-1.863,5.494,5.494,0,0,1,2.671-.671,5.7,5.7,0,0,1,2.852.754,9.173,9.173,0,0,1,2.687,2.639l.39.536-2.617,1.985-.407-.539a6.613,6.613,0,0,0-1.64-1.7,2.479,2.479,0,0,0-1.3-.358,1.952,1.952,0,0,0-1.419.514A1.6,1.6,0,0,0,465.2,41a2.258,2.258,0,0,0,.2.932A3.862,3.862,0,0,0,466.2,43c.148.143.692.584,2.386,1.836a14.278,14.278,0,0,1,3.554,3.425,5.922,5.922,0,0,1,1.029,3.226" transform="translate(-336.461 -26.261)" fill="#ea9836"/>
		<path id="Path_344" data-name="Path 344" d="M537.309,37.719V58.106h-3.25V48.915h-8.348v9.191h-3.25V37.719h3.25V45.7h8.348V37.719Z" transform="translate(-381.773 -27.562)" fill="#ea9836"/>
	</g>
</svg>