<?xml version="1.0" ?>
<svg xmlns="http://www.w3.org/2000/svg" viewBox="0 0 825.7 296.7" enable-background="new 0 0 825.7 296.7">
	<style type="text/css"> .st0{fill:url(#SVGID_1_);} .st1{fill:#002169;} </style>
	<radialGradient id="SVGID_1_" cx="106.1116" cy="298.7083" r="256.6684" gradientTransform="matrix(0.9097 0 0 0.9097 37.2902 13.4015)" gradientUnits="userSpaceOnUse">
		<stop offset="0" stop-color="#17F7F7"/>
		<stop offset="0.25" stop-color="#0FAFE2"/>
		<stop offset="0.37" stop-color="#0E8BDA"/>
		<stop offset="0.4" stop-color="#0A78D5"/>
		<stop offset="0.53" stop-color="#0037C3"/>
		<stop offset="0.62" stop-color="#002FA2"/>
		<stop offset="0.73" stop-color="#002783"/>
		<stop offset="0.82" stop-color="#00226F"/>
		<stop offset="0.88" stop-color="#002169"/>
	</radialGradient>
	<path class="st0" d="M126.1,69.5c-7.3,12-11.8,19.2-21.4,37.9c-3.2,6.2-0.8,13.6,5.4,16.9c6.1,3.2,13.6,0.8,16.9-5.4 c9.2-17.9,13.2-24.4,20.4-36.3c2.3-3.8,5-8.1,8.1-13.4c3.6-6,1.6-13.6-4.3-17.1c-6-3.6-13.6-1.6-17.2,4.3 C130.9,61.5,128.3,65.8,126.1,69.5L126.1,69.5L126.1,69.5z M113,190.4c-3.9,16,18.8,22.7,24,6.9c10.9-38.2,14.5-47.5,40.3-92.7 c3.5-6,1.3-13.6-4.6-17.1c-6-3.5-13.6-1.3-17.1,4.6C128.9,139.2,124.4,151,113,190.4L113,190.4L113,190.4z M67.2,128 c6.2,2.8,13.6,0.1,16.5-6.3c1.9-4.2,3.7-7.5,5.5-11c1.4-2.7,2.8-5.4,4.4-8.7c3-6.2,0.4-13.6-5.9-16.7c-6.3-3-13.7-0.4-16.7,5.9 c-1.4,2.8-2.7,5.3-3.9,8c-1.9,3.7-3.9,7.4-6.1,12.3C58.1,117.8,60.9,125.2,67.2,128L67.2,128z M93.8,76.2c5.9,3.5,13.6,1.5,17.1-4.4 c0,0,9.7-16.7,23-39.5c7.8-14.6-12.7-26.6-21.6-12.5C99,42.4,89.4,59.1,89.4,59.1C85.8,65.2,87.8,72.8,93.8,76.2z M215.5,165.6 c-6.2-3-13.6-0.4-16.7,5.9c-3,6.2-4.2,13.2-5.5,20.6c-2.7,15-5.7,32-23.3,49.7c-4.8,4.8-4.8,12.7,0.1,17.6 c4.8,4.8,12.7,4.8,17.6-0.1c23-23.2,27.4-47.1,30.2-62.8c1.1-6,2-11,3.5-14.2C224.2,175.7,221.6,168.7,215.5,165.6L215.5,165.6 L215.5,165.6z M141.2,255.6c-31.6,9.8-74-6.4-78.7-52.5c-1.9-18.6,2.5-34,7.8-49.5c2.1-6.6-1.3-13.6-7.9-15.8s-13.7,1.3-15.8,7.9 c-25.3,64.3,1.2,136.7,77,137.8c12.3,0,21.4-2.5,25.9-4.1C164.9,272.9,156.9,250.5,141.2,255.6L141.2,255.6z M200,140.9 c3.9-5.7,2.4-13.5-3.4-17.3c-5.7-3.9-13.5-2.4-17.3,3.4c-7.8,11.5-15.4,25-25.1,62.6c-6.6,26.1-19.4,29.9-28.3,30.6 c-20.3,1-29.7-17-24.9-36.9c2.9-12.9,6.9-23.5,10.9-33.7c2.5-6.4-0.8-13.6-7.1-16.1c-6.4-2.5-13.6,0.8-16.1,7.1 c-4.2,11-8.7,22.5-12,37.2c-8.8,34.3,12.4,67.5,47.3,67.4c20.6-0.7,43.5-9,54.4-49.4C186.9,161.9,193.2,150.9,200,140.9L200,140.9z"/>
	<path class="st1" d="M474.6,186.6c-10.4,0-17.7,2.1-22.7,5.3c-11.9,7.4-12.4,21.4-4.2,27.2c12.6,9.1,26.8-3.8,26.8-22.1 C474.5,191.8,474.6,186.6,474.6,186.6L474.6,186.6z M401.2,206.9l6.5,4.5c-4.6,7.2-18.1,25.9-50.9,25.9c-15.1,0-38.7-4.1-56-26.1 c-8.3-10.6-14.7-25.5-15.2-46c-0.7-24.1,9.2-42.4,21.3-54.3c15.9-15.7,35.3-19.7,50.3-19.7c26.6,0,52.3,16,52.5,38.3 c0.1,9.5-6.5,16.1-15.4,16.1c-7.5,0-14.3-5.6-14.4-14.4c-0.1-8,6.5-16.9,1.1-23.1c-6-6.9-14-7.3-19.4-7.3 c-23.8,0-44.8,22.9-43.8,62.6c0.3,11.5,2.3,28.7,12.5,43c7.8,10.8,17.9,18,33.3,18C386.6,224.5,397.3,212.2,401.2,206.9L401.2,206.9 L401.2,206.9z M684,226.1l6.6,0.8v7.8h-39.2c-2,0-3.8-1.7-3.7-3.8l1.6-75.7c0.3-8.1-5-9.3-7.3-9.5c-4.3,0.1-8.9,0.3-8.9,0.3v-7.5 l34.8-3.7c3.4-0.6,6.1,0.8,7.9,3c1.1,1.4,1.6,3.3,1.6,4.8c0,1.2-0.2,5.1-0.1,6.3l-1.1,68.1C676.2,221.7,679.5,225.5,684,226.1 L684,226.1L684,226.1z M633.7,220.3l3.9,3.8c-2.1,8.8-11.9,12.7-20,12.8c-14.5,0.3-21.8-9.3-24.1-22.6c-1.9,5.4-5.1,10.1-9.3,14.4 c-10.4,10.9-32.5,11.4-44.5,1.9c-13.7-10.5-18.9-27.9-18.9-46c-0.1-18,6.6-34.9,20.9-44.6c16.7-11.6,43.9-8.4,51.2,12.5l-0.1-46.6 c-0.1-3.9-3.5-7.1-7.4-7.1L574.4,99v-7.4l36.4-3.7c1.8-0.2,3.6,0.1,5.2,1c0.9,0.4,1.6,1.2,2.4,2c1.2,1.5,1.7,3.6,1.7,5.5 c-0.4,18.2-0.3,106.8-0.3,115.5c-0.2,8.9,3.9,13.3,9.5,11.7c1.8-0.6,3.4-1.7,4.5-3.1C633.6,220.4,633.6,220.3,633.7,220.3 L633.7,220.3L633.7,220.3z M590.7,166.6c-1.3-5.7-3.5-10.5-6.5-14.3c-7.4-8.9-21.8-7.4-27.4,4.4c-7.5,12.5-6.9,43.8-0.3,55.8 c6.6,14,23,13.5,30.1-0.7C593.2,200.8,593.8,180.7,590.7,166.6L590.7,166.6L590.7,166.6z M781.2,196.1l-6,14.9 c-3,6.6-4.5,11.6-10.9,13.5c-5.7,1.7-28.7,0.7-35.3,1l11.3-15.1l41-62.5c2.4-3.5,3.3-7.8,2.9-12h-83c0,4.1-0.2,29.4-0.3,34h7.3 c2.8-6.1,7.2-19.9,12.1-22.8c2.4-1.6,6.3-2.4,11.6-2.4h22.9l-10.8,14.7l-41.3,62.9c-2.4,3.5-2.9,7.9-2.6,12.1h87.8l0.3-38.5 L781.2,196.1L781.2,196.1z M662.5,123c9.1,0,16.3-7.3,16.3-16.3s-7.3-16.3-16.3-16.3s-16.3,7.3-16.3,16.3S653.5,123,662.5,123z M515.5,219.9l3.8,3.6c-1.7,9.1-11.9,13.3-20.2,13.4c-12.9,0-20.8-7-23.3-19.6c-6.4,20-36.5,26.6-51.8,12.7 c-10.4-8.8-10.2-29-0.6-37.7c12.8-11.6,32.1-12.7,51-13.6c-0.1-12.6,1.5-29.9-11.1-35.1l0,0c-5.4-2.1-22.7-2.3-18.4,9.5 c3.5,9.2-1.3,18.2-11.5,18.2c-8.6,0.1-14.6-7.8-12.2-16.8c4.8-17.8,29.3-20.9,39.6-21.4c22.7-0.8,42.3,9.2,41.1,37.3 c0.1,14.4-0.9,26.8-0.9,41.2c-0.3,9.7,4.4,14.3,10.6,11.5c1-0.4,1.8-1,2.6-1.7C514.9,220.9,515.3,220.4,515.5,219.9L515.5,219.9 L515.5,219.9z"/>
</svg>