<svg xmlns="http://www.w3.org/2000/svg" xml:space="preserve" id="图层_1" x="0" y="0" style="enable-background:new 0 0 375 512.2" version="1.1" viewBox="0 0 375 512.2"><style>.st1{fill:#fff}.st2{fill:#2e2836}</style><path d="M141.8 460.3v-79.9c0-5.4 3.4-10.1 8.8-11.4l3.4-.6c12.2-1.3 23.5-4.7 34.9-9.4l6-2.8c8-2.1 16.1 3.3 16.1 11.4V462.7h2.8c4.7 0 9.4-.7 12.8-1.3 4.1-.6 7.3-1.3 10.1-1.9 3.4-.9 8.7-2.8 8.7-2.8 11-4.4 14.3-10.1 15.9-14.3l.8-2.4 26-187.9c-10.1 4.1-22.1 7.3-34.9 10.1-19.5 4.8-41.6 6.7-66.4 6.7s-46.9-2.6-66.4-6.7c-2.5-.6-5.2-1.2-7.8-1.8l14.2 195.4c3 1.5 6.8 2.8 10.9 3.9 1.3 0 2.8.6 4.1.6zm73.4-170.6c12.2 0 22.1 9.9 22.1 22.1s-9.9 22.1-22.1 22.1c-12.2 0-22.1-9.9-22.1-22.1s9.9-22.1 22.1-22.1z" style="fill:#fec89a"/><path d="M178.5 444.5 160 462.3c.4 0 .7.2 1 .2.2 0 .4.1.7.1 8.8 1.2 27.2 1.7 36.7 1v-38.3l-19.9 19.2zM100.8 150.3c3.4-8.1 16.1-16.1 35.5-20.1v6c0 6 10.1 10.7 22.1 10.7 4.7 0 8.7-.7 12-1.9 8-2.8 10.9-9.3 10.9-10v-10.7h6.7c50.3 0 79.9 9.4 87.2 26.8l4.7 28.9c-.6 3.4-7.3 9.4-23.5 14.8-18.2 6-42.2 9.4-68.3 9.4-26.1 0-50.3-3.4-68.3-9.4-16.1-5.4-22.7-11.4-23.5-14.8l4.5-29.7z" class="st1"/><path d="M290 240.1c-9.4 4.7-20.8 8.8-32.8 12-20.8 4.7-43.7 6.7-69.2 6.7-24.8 0-47.6-1.9-67.7-6.7-13.5-3.4-24.8-7.3-34.3-12-10.7-5.4-26.1-20.7-21.4-35.5 3.4-9.4 13.5-14.1 23.5-17.4 4.1 6.7 13.5 12.8 28.2 17.4 19.5 6.7 45 10.1 71.7 10.1s52.3-3.4 71.7-10.1c14.8-4.7 24.2-10.7 28.2-17.4 10.1 3.4 20.1 8.1 23.5 17.4 4.8 14.8-10.6 30.2-21.4 35.5z" class="st1"/><path d="M187.6 177.9c37.5 0 62.3-6.7 75.2-20.8l-7.3-6.7c-7.3 8.1-24.8 17.4-67.7 17.4-34.9 0-59.7-6-67.7-16.7l-8.1 6c10.5 13.3 37.4 20.8 75.6 20.8zM163.8 70.8c3-1.9 6.3-3.4 9.6-4.7 7-2.6 14.3-4.1 21.7-4.9 1.9-.2 3.9-.4 5.9-.6 8.7-.9 17.4-2 24.5-7 10.2-7.2 14-21 12-33.3-8.3 6.3-18.1 10.6-28.4 12.6-12.2 2.3-25.4 1.4-36.2 7.6-10.5 6-16.9 18.9-15.2 30.9.8 4.9 3.2 1.2 6.1-.6z" class="st2"/><path d="M332.5 229.2c5.7-12.3 4.5-28.2-2.2-39.9-4.6-8-11.6-14-19.8-18-3.4-1.9-6-3.4-8.8-4.1l-3.4-19.5-.6-3.8c-6-16.1-19.5-27.4-40.9-34.3-17.4-6-40.3-8.8-69.2-8.8h-7.3v-7.3c0-6-10.1-10.7-22.1-10.7-6 0-11.4 1.3-15.4 3.4-4.1 1.9-6.7 4.7-6.7 8.1v11.4c-6 1.3-12 2.8-17.4 4.7-22.1 7.3-36.2 19.5-40.9 34.9l-.6 2.6-3.4 19.5c-.1.4-4.3 1.7-4.8 2-1.9.9-3.7 1.9-5.6 2.9-10.1 5.9-18.4 13.9-22.3 25.2-7.2 20.9 3.6 43 20.5 55.7l26.8 190.4c.6 4.1 1.9 8.8 4.1 12.8 4.1 7.3 11.4 15.4 24.2 21.4 5.4 2.8 11.4 4.1 18.8 6 18.8 5.4 46.3 8.1 83.1 8.1 65.1-.6 104.7-16.7 104.7-36.8 0-11.4-8.8-22.1-34.9-28.2l24.8-173c8-7.1 15.3-14.7 19.3-24.7zm-232.1-78.9c3.4-8.1 16.1-16.1 35.5-20.1v6c0 6 10.1 10.7 22.1 10.7 4.7 0 8.7-.7 12-1.9 8-2.8 10.9-9.3 10.9-10v-10.7h6.7c50.3 0 79.9 9.4 87.2 26.8l4.7 28.9c-.6 3.4-7.3 9.4-23.5 14.8-18.2 6-42.2 9.4-68.3 9.4-26.1 0-50.3-3.4-68.3-9.4-16.1-5.4-22.7-11.4-23.5-14.8l4.5-29.7zm26.3 305.5c-8.6-3.9-13.5-9.3-14.4-15.6l-26.6-188c8.3 3.1 17 5.8 26.3 8.1.2 0 .4.1.6.1 2.6.6 5.3 1.2 7.8 1.8 19.5 4.1 41.6 6.7 66.4 6.7s46.9-1.9 66.4-6.7c12.8-2.8 24.8-6 34.9-10.1l-26 187.9-.8 2.4c-1.6 4.2-4.9 9.9-15.9 14.3 0 0-5.3 1.9-8.7 2.8-2.8.6-6 1.3-10.1 1.9-3.4.6-8.1 1.3-12.8 1.3H211V367.6c0-8.1-8.1-13.5-16.1-11.4l-6 2.8c-11.4 4.7-22.7 8.1-34.9 9.4l-3.4.6c-5.4 1.3-8.8 6-8.8 11.4v79.9c-1.3 0-2.8-.6-4.1-.6-4.2-1.1-7.9-2.4-11-3.9.1 0 0 0 0 0zm33.3 6.5 18.5-17.8 19.9-19.2v38.3c-9.5.7-27.9.2-36.7-1-.2 0-.5-.1-.7-.1-.3 0-.6-.2-1-.2zm129.6-222.2c-9.4 4.7-20.8 8.8-32.8 12-20.8 4.7-43.7 6.7-69.2 6.7-24.8 0-47.6-1.9-67.7-6.7-13.5-3.4-24.8-7.3-34.3-12-10.7-5.4-26.1-20.7-21.4-35.5 3.4-9.4 13.5-14.1 23.5-17.4 4.1 6.7 13.5 12.8 28.2 17.4 19.5 6.7 45 10.1 71.7 10.1s52.3-3.4 71.7-10.1c14.8-4.7 24.2-10.7 28.2-17.4 10.1 3.4 20.1 8.1 23.5 17.4 4.8 14.8-10.6 30.2-21.4 35.5z" class="st2"/><circle cx="215.2" cy="311.8" r="22.1" class="st2" transform="rotate(-45.001 215.211 311.756)"/><path d="m85.7 252.2 26.6 188c.9 6.3 5.8 11.7 14.4 15.6h.1l-14.2-195.4c-.2 0-.4-.1-.6-.1-9.3-2.3-18-5-26.3-8.1z" class="st1"/></svg>