<?xml version="1.0" ?>
<svg xmlns="http://www.w3.org/2000/svg" viewBox="0 0 146.618 146.616">
	<path d="M 207.023,48.105 L 399.779,48.105 L 399.779,240.86 L 207.023,240.86 L 207.023,48.105" clip-rule="evenodd" fill="#fff" fill-rule="evenodd"/>
	<g clip-rule="evenodd" fill-rule="evenodd">
		<path d="M 146.618,146.616 L 146.618,0.0 L 0.0,0.0 L 0.0,146.616 L 146.618,146.616" fill="#cc2131"/>
		<path d="M 81.842,96.583 L 116.141,96.583 L 111.778,103.566 L 77.479,103.566 L 81.842,96.583 M 57.032,126.325 L 118.034,126.325 L 113.668,133.308 L 52.667,133.308 L 57.032,126.325 M 98.993,62.398 L 103.549,59.553 L 114.284,76.751 L 99.719,85.851 L 96.891,81.309 L 106.913,75.038 L 98.993,62.398 M 10.658,74.618 L 57.468,74.618 L 53.104,81.6 L 6.294,81.6 L 10.658,74.618" fill="#fff"/>
		<path d="M94.547 74.377a4.397 4.397 0 100-8.795 4.397 4.397 0 100 8.795zm-76.13-12.173h46.81l-4.365 6.983H14.053zm7.759-12.543h46.809l-4.364 6.983H21.812z" fill="#fff"/>
		<path d="M124.774 4.031C83.911 24.311 24.559 47.791 24.559 95.678c0 17.836 10.258 30.881 20.56 35.785l52.758-84.405-4.105-6.53-50.496 80.818c-5.216-3.844-11.864-13.85-11.864-27.221 0-36.902 46.691-61.263 86.992-79.847z" fill="#fff"/>
	</g>
</svg>