<?xml version="1.0" encoding="UTF-8"?>
<svg id="Layer_2" xmlns="http://www.w3.org/2000/svg" viewBox="0 0 418.21 92.92"><defs><style>.cls-1,.cls-2{fill:#f2783a;}.cls-2{fill-rule:evenodd;}</style></defs><g id="Layer_1-2"><g id="Group-5" transform="translate(0 0)"><path id="Shape" class="cls-1" d="M41.92,0C18.77,0,0,18.77,0,41.92c0,23.15,18.77,41.92,41.92,41.92,2.73,3.93,16.75,9.76,22.54,9.03-.42-5.33-.22-10.69,.59-15.98,19.3-12.8,24.57-38.82,11.77-58.12C69.05,7.06,55.95,.02,41.92,0Zm-15.53,65.99c-3.81,0-6.9-3.1-6.89-6.91,0-3.81,3.1-6.9,6.91-6.89,3.81,0,6.89,3.1,6.89,6.91,0,3.81-3.1,6.9-6.91,6.89h0Zm0-16.86c-3.81,0-6.9-3.1-6.89-6.91,0-3.81,3.1-6.9,6.91-6.89,3.81,0,6.9,3.1,6.89,6.91h0c0,3.82-3.1,6.9-6.91,6.89h0Zm0-17.1c-3.81,0-6.9-3.1-6.89-6.91,0-3.81,3.1-6.9,6.91-6.89,3.81,0,6.89,3.1,6.89,6.9,0,3.81-3.09,6.9-6.9,6.9,0,0,0,0-.01,0h0Zm15.61,33.95c-3.81,0-6.9-3.09-6.9-6.9,0-3.81,3.09-6.9,6.9-6.9,3.81,0,6.9,3.09,6.9,6.9,0,3.81-3.09,6.9-6.9,6.9h0Zm0-16.86c-3.81,0-6.9-3.09-6.9-6.9,0-3.81,3.09-6.9,6.9-6.9,3.81,0,6.9,3.09,6.9,6.9,0,0,0,.01,0,.02,0,3.81-3.09,6.89-6.9,6.89h0Zm0-17.1c-3.81,0-6.9-3.09-6.9-6.9,0-3.81,3.09-6.9,6.9-6.9,3.81,0,6.9,3.09,6.9,6.9h0c0,3.81-3.09,6.9-6.9,6.9h0Zm15.45,33.95c-3.81,0-6.9-3.09-6.9-6.9,0-3.81,3.09-6.9,6.9-6.9,3.81,0,6.9,3.09,6.9,6.9,0,3.81-3.09,6.9-6.9,6.9h0Zm0-16.86c-3.81,0-6.9-3.09-6.9-6.9,0-3.81,3.09-6.9,6.9-6.9,3.81,0,6.9,3.09,6.9,6.9,0,0,0,.01,0,.02,0,3.81-3.09,6.89-6.9,6.89h0Zm0-17.1c-3.81,0-6.9-3.09-6.9-6.9,0-3.81,3.09-6.9,6.9-6.9,3.81,0,6.9,3.09,6.9,6.9,0,3.81-3.09,6.9-6.9,6.9h0Z"/><path id="CallHub" class="cls-2" d="M141.45,66.84l2.16,11.12c-5.15,1.99-10.65,2.92-16.16,2.71-21.77,0-32.99-13.55-32.99-31.49,0-21.49,15.32-33.46,34.38-33.46,5.31-.19,10.6,.77,15.51,2.8l-2.9,11.31c-3.79-1.57-7.86-2.36-11.96-2.34-11.31,0-20.09,6.82-20.09,20.83,0,12.61,7.47,20.55,20.18,20.55,4.04,0,8.06-.69,11.87-2.04Zm48.86,12.89h-12.8l-.83-4.58h-.28c-3.29,3.75-8.1,5.82-13.08,5.61-7.72,.42-14.32-5.5-14.74-13.23-.01-.26-.02-.53-.02-.79,0-11.87,10.65-17.58,26.83-17.47v-.65c0-2.43-1.31-5.89-8.33-5.89-4.43,.04-8.78,1.24-12.61,3.46l-2.61-9.16c5.5-2.77,11.6-4.14,17.75-4.01,15.23,0,20.09,8.97,20.09,19.72v15.88c-.08,3.71,.14,7.43,.64,11.11Zm-14.49-16.63v-4.95c-7.47-.09-13.26,1.68-13.26,7.19-.19,2.81,1.93,5.24,4.74,5.44,.29,.02,.58,.01,.86-.01,3.33,.02,6.3-2.09,7.38-5.24,.19-.79,.29-1.61,.28-2.42h-.01Zm25.04,16.63V13.4h14.2V79.74h-14.2Zm25.69,0V13.4h14.2V79.74h-14.2Zm26.17-62.97h14.3v24.2h23.45V16.76h14.2v62.97h-14.2v-26.35h-23.45v26.35h-14.3V16.76Zm106.99,17.29v31.01c0,5.98,.19,10.84,.37,14.67h-12.33l-.65-6.45h-.28c-3.11,4.84-8.54,7.68-14.29,7.47-9.25,0-16.07-5.79-16.07-19.9v-26.83h14.29v24.57c0,6.63,2.16,10.65,7.09,10.65,3.16-.03,5.98-1.99,7.09-4.95,.36-.99,.52-2.03,.47-3.08v-27.17h14.31Zm23.08,45.69h-12.05c.19-2.99,.37-8.5,.37-13.64V13.4h14.2v26.07h.19c3.23-4.34,8.43-6.76,13.83-6.45,10.93,0,18.97,9.06,18.87,23.08,0,16.44-10.47,24.67-20.93,24.67-5.59,.26-10.87-2.58-13.73-7.38h-.19l-.56,6.35Zm2.52-26.16v6.73c0,.85,.08,1.7,.28,2.52,.87,3.91,4.32,6.7,8.33,6.73,6.07,0,9.81-4.67,9.81-12.89,0-7.09-3.18-12.71-9.81-12.71-4.06,.13-7.5,3.03-8.33,7.01-.19,.86-.29,1.73-.29,2.61h.01Z"/></g></g></svg>