<svg viewBox="0 0 225 30" fill="none" xmlns="http://www.w3.org/2000/svg"><path fill-rule="evenodd" clip-rule="evenodd" d="M183.349 28.53h-2.824V.83h2.824v27.7z" fill="url(#paint0_linear_285_2060)"/><path fill-rule="evenodd" clip-rule="evenodd" d="M183.349 28.53h-2.824V.83h2.824v27.7z" fill="url(#paint1_linear_285_2060)" fill-opacity=".5"/><path fill-rule="evenodd" clip-rule="evenodd" d="M180.193 28.263h-2.825v-27.1h2.825v27.1z" fill="url(#paint2_linear_285_2060)"/><path fill-rule="evenodd" clip-rule="evenodd" d="M180.193 28.263h-2.825v-27.1h2.825v27.1z" fill="url(#paint3_linear_285_2060)" fill-opacity=".5"/><path fill-rule="evenodd" clip-rule="evenodd" d="M177.036 27.44h-2.824V3.24h2.824v24.2z" fill="url(#paint4_linear_285_2060)"/><path fill-rule="evenodd" clip-rule="evenodd" d="M177.036 27.44h-2.824V3.24h2.824v24.2z" fill="url(#paint5_linear_285_2060)" fill-opacity=".5"/><path fill-rule="evenodd" clip-rule="evenodd" d="M173.88 25.131h-2.825v-9.5h2.825v9.5z" fill="url(#paint6_linear_285_2060)"/><path fill-rule="evenodd" clip-rule="evenodd" d="M173.88 25.131h-2.825v-9.5h2.825v9.5z" fill="url(#paint7_linear_285_2060)" fill-opacity=".5"/><path fill-rule="evenodd" clip-rule="evenodd" d="M170.723 22.294h-2.825v-5.5h2.825v5.5z" fill="url(#paint8_linear_285_2060)"/><path fill-rule="evenodd" clip-rule="evenodd" d="M170.723 22.294h-2.825v-5.5h2.825v5.5z" fill="url(#paint9_linear_285_2060)" fill-opacity=".5"/><path fill-rule="evenodd" clip-rule="evenodd" d="M167.566 18.704h-2.824v-4.65h2.824v4.65z" fill="url(#paint10_linear_285_2060)"/><path fill-rule="evenodd" clip-rule="evenodd" d="M167.566 18.704h-2.824v-4.65h2.824v4.65z" fill="url(#paint11_linear_285_2060)" fill-opacity=".5"/><path fill-rule="evenodd" clip-rule="evenodd" d="M158.429 12.126h2.824v4.651h-2.824v-4.65z" fill="url(#paint12_linear_285_2060)"/><path fill-rule="evenodd" clip-rule="evenodd" d="M158.429 12.126h2.824v4.651h-2.824v-4.65z" fill="url(#paint13_linear_285_2060)" fill-opacity=".5"/><path fill-rule="evenodd" clip-rule="evenodd" d="M155.272 8.223h2.824v5.813h-2.824V8.224z" fill="url(#paint14_linear_285_2060)"/><path fill-rule="evenodd" clip-rule="evenodd" d="M155.272 8.223h2.824v5.813h-2.824V8.224z" fill="url(#paint15_linear_285_2060)" fill-opacity=".5"/><path fill-rule="evenodd" clip-rule="evenodd" d="M152.115 5.399h2.825v9.8h-2.825V5.4z" fill="url(#paint16_linear_285_2060)"/><path fill-rule="evenodd" clip-rule="evenodd" d="M152.115 5.399h2.825v9.8h-2.825V5.4z" fill="url(#paint17_linear_285_2060)" fill-opacity=".5"/><path fill-rule="evenodd" clip-rule="evenodd" d="M148.959 3.007h2.824V27.59h-2.824V3.007z" fill="url(#paint18_linear_285_2060)"/><path fill-rule="evenodd" clip-rule="evenodd" d="M148.959 3.007h2.824V27.59h-2.824V3.007z" fill="url(#paint19_linear_285_2060)" fill-opacity=".5"/><path fill-rule="evenodd" clip-rule="evenodd" d="M145.802 2.26h2.825v27.408h-2.825V2.259z" fill="url(#paint20_linear_285_2060)"/><path fill-rule="evenodd" clip-rule="evenodd" d="M145.802 2.26h2.825v27.408h-2.825V2.259z" fill="url(#paint21_linear_285_2060)" fill-opacity=".5"/><path fill-rule="evenodd" clip-rule="evenodd" d="M142.646 1.927h2.824V30h-2.824V1.927z" fill="url(#paint22_linear_285_2060)"/><path fill-rule="evenodd" clip-rule="evenodd" d="M142.646 1.927h2.824V30h-2.824V1.927z" fill="url(#paint23_linear_285_2060)" fill-opacity=".5"/><path fill-rule="evenodd" clip-rule="evenodd" d="M181.937 29.9a1.41 1.41 0 01-1.412-1.412c0-.78.631-1.412 1.412-1.412a1.41 1.41 0 011.412 1.412 1.41 1.41 0 01-1.412 1.412zm-3.156-.332a1.411 1.411 0 110-2.824 1.411 1.411 0 110 2.824zm-3.157-.83a1.41 1.41 0 01-1.412-1.412 1.41 1.41 0 011.412-1.412 1.41 1.41 0 011.412 1.412 1.41 1.41 0 01-1.412 1.412zm-3.157-2.326A1.41 1.41 0 01171.055 25c0-.78.631-1.412 1.412-1.412A1.41 1.41 0 01173.879 25a1.41 1.41 0 01-1.412 1.412zm-3.156-2.824a1.41 1.41 0 01-1.412-1.412c0-.78.631-1.412 1.412-1.412a1.41 1.41 0 011.412 1.412 1.41 1.41 0 01-1.412 1.412zm-3.157-3.488a1.41 1.41 0 01-1.412-1.412 1.41 1.41 0 011.412-1.412 1.41 1.41 0 011.412 1.412 1.41 1.41 0 01-1.412 1.412zm-3.157-3.489a1.411 1.411 0 110-2.824 1.411 1.411 0 110 2.824zm-3.156-3.156a1.41 1.41 0 01-1.412-1.412c0-.78.631-1.412 1.412-1.412a1.41 1.41 0 011.412 1.412 1.41 1.41 0 01-1.412 1.412zm-3.157-3.82a1.41 1.41 0 01-1.412-1.412 1.41 1.41 0 011.412-1.412 1.41 1.41 0 011.412 1.412 1.41 1.41 0 01-1.412 1.412zm-3.156-2.824a1.411 1.411 0 110-2.824 1.411 1.411 0 110 2.824zm-3.157-2.326a1.41 1.41 0 01-1.412-1.412c0-.78.631-1.412 1.412-1.412a1.41 1.41 0 011.412 1.412 1.41 1.41 0 01-1.412 1.412zm-3.157-.83a1.411 1.411 0 110-2.824 1.411 1.411 0 110 2.823zm-3.156-.333a1.41 1.41 0 01-1.412-1.412c0-.78.631-1.412 1.412-1.412a1.41 1.41 0 011.412 1.412 1.41 1.41 0 01-1.412 1.412z" fill="#266EF4"/><path fill-rule="evenodd" clip-rule="evenodd" d="M216.726 29.485l-3.123-6.196h-17.395l-3.106 6.196h-8.224L199.88.415h10.085L225 29.485h-8.274zM204.931 5.947l-5.948 11.794h11.829l-5.881-11.794zm-79.447 23.538h-21.1V.415h21.1c7.526 0 14.121 4.651 14.121 14.535s-6.612 14.535-14.121 14.535zm-2.825-22.79H111.86v16.528h10.799c5.649 0 9.47-1.213 9.47-8.273s-3.821-8.256-9.47-8.256zM91.924.414H99.4v29.07h-7.476V.415zM18.275 23.638c6.197 0 9.852-1.877 10.55-6.611h7.592c-.73 8.438-6.546 12.873-18.142 12.873C5.483 29.9 0 24.585 0 14.917 0 5.282 5.483 0 18.275 0c11.597 0 17.411 4.402 18.159 12.79h-7.592c-.715-4.7-4.32-6.528-10.55-6.528-7.61 0-10.8 2.708-10.8 8.638-.016 5.997 3.224 8.738 10.783 8.738z" fill="#272E3C"/><path fill-rule="evenodd" clip-rule="evenodd" d="M79.464.432h7.476v29.07h-7.476V.432zM64.627 23.306H47.233l-3.107 6.196h-8.24L50.87.432h10.101l15.036 29.07H67.75l-3.124-6.196zm-8.672-17.36l-5.948 11.795h11.846L55.955 5.947z" fill="#266EF4"/><defs><linearGradient id="paint0_linear_285_2060" x1="181.942" y1="28.137" x2="181.942" y2="1.219" gradientUnits="userSpaceOnUse"><stop stop-color="#266EF4"/><stop offset="1" stop-color="#00C9EF" stop-opacity="0"/></linearGradient><linearGradient id="paint1_linear_285_2060" x1="180.571" y1="9.894" x2="183.366" y2="9.894" gradientUnits="userSpaceOnUse"><stop stop-color="#fff"/><stop offset=".305" stop-color="#fff" stop-opacity="0"/><stop offset=".696" stop-color="#fff" stop-opacity="0"/><stop offset="1" stop-color="#fff"/></linearGradient><linearGradient id="paint2_linear_285_2060" x1="178.785" y1="27.878" x2="178.785" y2="1.543" gradientUnits="userSpaceOnUse"><stop stop-color="#266EF4"/><stop offset="1" stop-color="#00C9EF" stop-opacity="0"/></linearGradient><linearGradient id="paint3_linear_285_2060" x1="177.415" y1="10.03" x2="180.209" y2="10.03" gradientUnits="userSpaceOnUse"><stop stop-color="#fff"/><stop offset=".305" stop-color="#fff" stop-opacity="0"/><stop offset=".696" stop-color="#fff" stop-opacity="0"/><stop offset="1" stop-color="#fff"/></linearGradient><linearGradient id="paint4_linear_285_2060" x1="175.628" y1="27.096" x2="175.628" y2="3.579" gradientUnits="userSpaceOnUse"><stop stop-color="#266EF4"/><stop offset="1" stop-color="#00C9EF" stop-opacity="0"/></linearGradient><linearGradient id="paint5_linear_285_2060" x1="174.258" y1="11.158" x2="177.053" y2="11.158" gradientUnits="userSpaceOnUse"><stop stop-color="#fff"/><stop offset=".305" stop-color="#fff" stop-opacity="0"/><stop offset=".696" stop-color="#fff" stop-opacity="0"/><stop offset="1" stop-color="#fff"/></linearGradient><linearGradient id="paint6_linear_285_2060" x1="172.472" y1="24.996" x2="172.472" y2="15.764" gradientUnits="userSpaceOnUse"><stop stop-color="#266EF4"/><stop offset="1" stop-color="#00C9EF" stop-opacity="0"/></linearGradient><linearGradient id="paint7_linear_285_2060" x1="171.102" y1="18.74" x2="173.896" y2="18.74" gradientUnits="userSpaceOnUse"><stop stop-color="#fff"/><stop offset=".305" stop-color="#fff" stop-opacity="0"/><stop offset=".696" stop-color="#fff" stop-opacity="0"/><stop offset="1" stop-color="#fff"/></linearGradient><linearGradient id="paint8_linear_285_2060" x1="169.315" y1="22.216" x2="169.315" y2="16.871" gradientUnits="userSpaceOnUse"><stop stop-color="#266EF4"/><stop offset="1" stop-color="#00C9EF" stop-opacity="0"/></linearGradient><linearGradient id="paint9_linear_285_2060" x1="167.945" y1="18.594" x2="170.739" y2="18.594" gradientUnits="userSpaceOnUse"><stop stop-color="#fff"/><stop offset=".305" stop-color="#fff" stop-opacity="0"/><stop offset=".696" stop-color="#fff" stop-opacity="0"/><stop offset="1" stop-color="#fff"/></linearGradient><linearGradient id="paint10_linear_285_2060" x1="166.159" y1="18.638" x2="166.159" y2="14.118" gradientUnits="userSpaceOnUse"><stop stop-color="#266EF4"/><stop offset="1" stop-color="#00C9EF" stop-opacity="0"/></linearGradient><linearGradient id="paint11_linear_285_2060" x1="164.789" y1="15.575" x2="167.583" y2="15.575" gradientUnits="userSpaceOnUse"><stop stop-color="#fff"/><stop offset=".305" stop-color="#fff" stop-opacity="0"/><stop offset=".696" stop-color="#fff" stop-opacity="0"/><stop offset="1" stop-color="#fff"/></linearGradient><linearGradient id="paint12_linear_285_2060" x1="159.845" y1="16.711" x2="159.845" y2="12.191" gradientUnits="userSpaceOnUse"><stop stop-color="#00C9EF" stop-opacity="0"/><stop offset=".95" stop-color="#266EF4"/></linearGradient><linearGradient id="paint13_linear_285_2060" x1="158.475" y1="13.648" x2="161.27" y2="13.648" gradientUnits="userSpaceOnUse"><stop stop-color="#fff"/><stop offset=".305" stop-color="#fff" stop-opacity="0"/><stop offset=".696" stop-color="#fff" stop-opacity="0"/><stop offset="1" stop-color="#fff"/></linearGradient><linearGradient id="paint14_linear_285_2060" x1="156.689" y1="13.954" x2="156.689" y2="8.304" gradientUnits="userSpaceOnUse"><stop stop-color="#00C9EF" stop-opacity="0"/><stop offset=".95" stop-color="#266EF4"/></linearGradient><linearGradient id="paint15_linear_285_2060" x1="155.319" y1="10.125" x2="158.113" y2="10.125" gradientUnits="userSpaceOnUse"><stop stop-color="#fff"/><stop offset=".305" stop-color="#fff" stop-opacity="0"/><stop offset=".696" stop-color="#fff" stop-opacity="0"/><stop offset="1" stop-color="#fff"/></linearGradient><linearGradient id="paint16_linear_285_2060" x1="153.532" y1="15.06" x2="153.532" y2="5.536" gradientUnits="userSpaceOnUse"><stop stop-color="#00C9EF" stop-opacity="0"/><stop offset=".95" stop-color="#266EF4"/></linearGradient><linearGradient id="paint17_linear_285_2060" x1="152.162" y1="8.606" x2="154.956" y2="8.606" gradientUnits="userSpaceOnUse"><stop stop-color="#fff"/><stop offset=".305" stop-color="#fff" stop-opacity="0"/><stop offset=".696" stop-color="#fff" stop-opacity="0"/><stop offset="1" stop-color="#fff"/></linearGradient><linearGradient id="paint18_linear_285_2060" x1="150.375" y1="27.242" x2="150.375" y2="3.352" gradientUnits="userSpaceOnUse"><stop stop-color="#00C9EF" stop-opacity="0"/><stop offset=".95" stop-color="#266EF4"/></linearGradient><linearGradient id="paint19_linear_285_2060" x1="149.005" y1="11.051" x2="151.8" y2="11.051" gradientUnits="userSpaceOnUse"><stop stop-color="#fff"/><stop offset=".305" stop-color="#fff" stop-opacity="0"/><stop offset=".696" stop-color="#fff" stop-opacity="0"/><stop offset="1" stop-color="#fff"/></linearGradient><linearGradient id="paint20_linear_285_2060" x1="147.219" y1="29.279" x2="147.219" y2="2.644" gradientUnits="userSpaceOnUse"><stop stop-color="#00C9EF" stop-opacity="0"/><stop offset=".95" stop-color="#266EF4"/></linearGradient><linearGradient id="paint21_linear_285_2060" x1="145.849" y1="11.228" x2="148.643" y2="11.228" gradientUnits="userSpaceOnUse"><stop stop-color="#fff"/><stop offset=".305" stop-color="#fff" stop-opacity="0"/><stop offset=".696" stop-color="#fff" stop-opacity="0"/><stop offset="1" stop-color="#fff"/></linearGradient><linearGradient id="paint22_linear_285_2060" x1="144.062" y1="29.601" x2="144.062" y2="2.321" gradientUnits="userSpaceOnUse"><stop stop-color="#00C9EF" stop-opacity="0"/><stop offset=".95" stop-color="#266EF4"/></linearGradient><linearGradient id="paint23_linear_285_2060" x1="142.692" y1="11.113" x2="145.487" y2="11.113" gradientUnits="userSpaceOnUse"><stop stop-color="#fff"/><stop offset=".305" stop-color="#fff" stop-opacity="0"/><stop offset=".696" stop-color="#fff" stop-opacity="0"/><stop offset="1" stop-color="#fff"/></linearGradient></defs></svg>