<?xml version="1.0" ?>
<svg xmlns="http://www.w3.org/2000/svg" class="header__logo-svg" viewBox="0 0 112.434 36">
	<g transform="translate(-526.759 -366.999)">
		<path d="M498.267,89.346a6.011,6.011,0,1,1,4.28-10.23l1.559-3.2a9.446,9.446,0,1,0,.032,14.818l-1.53-3.241a5.99,5.99,0,0,1-4.342,1.856" transform="translate(37.937 302.577)" fill="currentColor" fill-rule="evenodd"/>
		<path d="M517.261,73.888v2.164a9.457,9.457,0,1,0,0,14.552v.079c0,.131.132,2.1,3.088,2.1.11,0,.221,0,.329-.016V73.888c-.108-.011-3.408,0-3.416,0M511.22,89.345a6.017,6.017,0,1,1,6.018-6.018,6.018,6.018,0,0,1-6.018,6.018" transform="translate(40.525 302.573)" fill="currentColor" fill-rule="evenodd"/>
		<rect width="3.484" height="28.358" transform="translate(563.898 366.999)" fill="currentColor"/>
		<rect width="3.484" height="28.358" transform="translate(570.183 366.999)" fill="currentColor"/>
		<path d="M536.607,81.321c-3.029-.114-3.37-1.212-3.37-1.969a2.177,2.177,0,0,1,2.423-2.158,4.164,4.164,0,0,1,3.1,1.627l.455.53,1.7-3.029-.228-.265a6.751,6.751,0,0,0-5.035-2.233h-.378a5.472,5.472,0,0,0-5.339,5.527c0,3.522,3.521,5.188,6.474,5.3,2.006.3,2.8,1.061,2.8,2.386a2.621,2.621,0,0,1-2.726,2.612h-.076c-1.969-.037-3.748-.6-4.619-1.968l-.416-.644-1.59,2.726.19.227a7.1,7.1,0,0,0,5.754,2.8h.757a5.788,5.788,0,0,0,5.906-5.755c0-3.066-2.272-5.3-5.792-5.717" transform="translate(46.131 302.564)" fill="currentColor" fill-rule="evenodd"/>
		<path d="M543.6,67.8a1.8,1.8,0,0,0-1.78,1.78,1.778,1.778,0,0,0,1.78,1.78,1.8,1.8,0,0,0,1.78-1.78,1.828,1.828,0,0,0-1.78-1.78" transform="translate(48.536 301.359)" fill="currentColor" fill-rule="evenodd"/>
		<rect width="3.407" height="18.893" transform="translate(590.467 376.465)" fill="currentColor"/>
		<path d="M565.477,83.347q0-.14,0-.277V73.884h-3.341V76.13a9.456,9.456,0,1,0-.094,14.512v.583l-.006,0a6.018,6.018,0,0,1-10.559,3.679h-4.052a9.458,9.458,0,0,0,18.055-3.941q0-.139,0-.277V83.623c0-.091,0-.184,0-.276m-9.456,6.017a6.018,6.018,0,1,1,6.018-6.018,6.018,6.018,0,0,1-6.018,6.018" transform="translate(49.485 302.576)" fill="currentColor" fill-rule="evenodd"/>
		<path d="M581.567,79.25a8.927,8.927,0,0,0-4.691-4.72,8.5,8.5,0,0,0-5.219-.512,8.322,8.322,0,0,0-1.71.571,7.381,7.381,0,0,0-1.482.912c-.109.086-.215.178-.314.27V73.893h-3.462l-.037,18.9h3.5V82.687a4.782,4.782,0,0,1,.428-1.955,5.912,5.912,0,0,1,1.164-1.723,5.755,5.755,0,0,1,1.7-1.2,4.761,4.761,0,0,1,2.02-.444,5.1,5.1,0,0,1,2.029.413,5.308,5.308,0,0,1,2.832,2.837,5.227,5.227,0,0,1,.413,2.074V92.794h3.535V82.687a8.606,8.606,0,0,0-.707-3.437" transform="translate(53.103 302.563)" fill="currentColor" fill-rule="evenodd"/>
		<path d="M581.332,71.8a1.774,1.774,0,1,0,1.776,1.776,1.768,1.768,0,0,0-1.776-1.776m0,3.193a1.419,1.419,0,1,1,1.42-1.417,1.41,1.41,0,0,1-1.42,1.417" transform="translate(56.085 302.159)" fill="currentColor" fill-rule="evenodd"/>
		<path d="M581.449,73.535a.485.485,0,0,0,.328-.169.605.605,0,0,0,.056-.616.457.457,0,0,0-.16-.168.693.693,0,0,0-.228-.088,1.382,1.382,0,0,0-.266-.025h-.665v1.912h.341v-.81h.248l.443.81h.41Zm-.184-.263c-.049,0-.1.007-.146.007h-.264v-.518h.294a1.312,1.312,0,0,1,.134.007.443.443,0,0,1,.125.034.224.224,0,0,1,.092.078.238.238,0,0,1,.035.134.26.26,0,0,1-.037.148.229.229,0,0,1-.1.078.451.451,0,0,1-.133.032" transform="translate(56.275 302.293)" fill="currentColor" fill-rule="evenodd"/>
	</g>
</svg>