<?xml version="1.0" ?>
<svg xmlns="http://www.w3.org/2000/svg" viewBox="0 0 119 48" fill="none">
	<path d="M119.006 0H0V48H119.006V0Z" fill="#e90600"/>
	<path fill-rule="evenodd" clip-rule="evenodd" d="M59.4664 6.55359C94.2844 6.55359 112.1 13.0258 112.1 23.9984C112.1 34.9286 94.2844 41.4432 59.4664 41.4432C24.6712 41.4432 6.9043 34.9481 6.9043 23.9984C6.9043 13.0063 24.6712 6.55359 59.4664 6.55359Z" fill="white"/>
	<path d="M29.2765 26.94C28.8633 27.4379 28.2906 27.8316 27.5356 27.9943C27.2558 28.0334 26.9955 28.0562 26.7677 28.0562C24.6266 28.0562 23.1297 26.4096 23.1102 24.044C23.1102 24.0277 23.1069 24.0147 23.1069 23.9984C23.1069 23.9821 23.1102 23.9691 23.1102 23.9528C23.1297 21.5904 24.6266 19.9406 26.7677 19.9406C26.9955 19.9406 27.2526 19.9634 27.5356 20.0025C28.2906 20.1652 28.8633 20.5622 29.2765 21.0568C29.5759 21.3887 29.8362 21.828 30.1486 22.5992L32.8527 21.4733L32.8072 21.3464C31.8798 18.7432 29.5662 17.1259 26.7677 17.1259C26.0551 17.1259 25.3717 17.2333 24.7339 17.4285C21.9615 18.2843 19.9961 20.8648 19.9961 23.9951C19.9961 27.1255 21.9583 29.7059 24.7339 30.5617C25.375 30.7602 26.0583 30.8644 26.7677 30.8644C29.5662 30.8644 31.8798 29.2471 32.8072 26.6439L32.8527 26.517L30.1486 25.3911C29.833 26.1688 29.5759 26.6081 29.2765 26.94Z" fill="#251f20"/>
	<path d="M38.0235 17.3276L32.9082 30.6756H36.2013L37.1905 27.8446H42.3546L43.3243 30.6756H46.6987L41.5834 17.3276H38.0235ZM41.4272 25.147H38.1602L39.8035 20.4678L41.4272 25.147Z" fill="#251f20"/>
	<path d="M55.9781 25.4562L50.5536 17.3276H47.6641V30.6724H50.7163V22.5243L56.144 30.6724H59.0303V17.3276H55.9781V25.4562Z" fill="#251f20"/>
	<path d="M61.2148 30.6724H64.2671V25.9801H69.8282V23.2662H64.2671V20.1228H70.6027V17.3276H61.2148V30.6724Z" fill="#251f20"/>
	<path d="M78.1225 17.1292C74.2697 17.1292 71.25 20.1489 71.25 24.0016C71.25 27.9195 74.2046 30.8741 78.1225 30.8741C82.0403 30.8741 84.995 27.9195 84.995 24.0016C84.995 20.1456 81.9752 17.1292 78.1225 17.1292ZM78.1225 19.9244C80.3124 19.9244 81.9004 21.6392 81.9004 24.0016C81.9004 26.351 80.3124 28.0561 78.1225 28.0561C75.9455 28.0561 74.3641 26.351 74.3641 24.0016C74.3641 21.6392 75.9455 19.9244 78.1225 19.9244Z" fill="#251f20"/>
	<path d="M94.7568 25.4562C96.3577 24.8021 97.1712 23.5266 97.1712 21.662C97.1712 19.0263 95.3457 17.3244 92.518 17.3244H86.5371V30.6724H89.5894V25.9606H91.698L94.0734 30.6724H97.7081L94.7568 25.4562ZM89.5894 20.0838H92.2219C93.4454 20.0838 94.119 20.6468 94.119 21.6653C94.119 22.6968 93.4454 23.2662 92.2219 23.2662H89.5894V20.0838Z" fill="#251f20"/>
	<path d="M78.1225 17.1292C74.2697 17.1292 71.25 20.1489 71.25 24.0016C71.25 27.9195 74.2046 30.8741 78.1225 30.8741C82.0403 30.8741 84.995 27.9195 84.995 24.0016C84.995 20.1456 81.9752 17.1292 78.1225 17.1292ZM78.1225 19.9244C80.3124 19.9244 81.9004 21.6392 81.9004 24.0016C81.9004 26.351 80.3124 28.0561 78.1225 28.0561C75.9455 28.0561 74.3641 26.351 74.3641 24.0016C74.3641 21.6392 75.9455 19.9244 78.1225 19.9244Z" fill="#251f20"/>
</svg>