<?xml version="1.0" ?>
<svg xmlns="http://www.w3.org/2000/svg" viewBox="0 0 47 61" fill="none">
	<g>
		<path d="M43.5799 35.3417C41.6238 35.163 39.9122 36.5925 39.7335 38.5392C38.9718 46.8339 31.8244 53.3229 23.4639 53.3229C14.4263 53.3229 7.0815 46.0157 7.0815 37.0251V23.8025C7.0815 14.8213 14.4357 7.50472 23.4639 7.50472C31.8433 7.50472 39.0094 14.0031 39.7806 22.2884C39.9592 24.2351 41.6802 25.6552 43.6269 25.4859C45.5737 25.3072 47.0031 23.5862 46.8244 21.6395C45.7147 9.74296 35.4545 0.432617 23.4639 0.432617C10.5235 0.432617 0 10.9185 0 23.8025V37.0251C0 49.9091 10.5235 60.395 23.4639 60.395C35.6332 60.395 45.6583 51.2821 46.7774 39.1881C46.9561 37.2414 45.5172 35.5204 43.5799 35.3417Z" fill="#525DF9"/>
		<path d="M23.4921 13.0815C18.6488 13.0815 14.3886 16.3637 13.1285 21.0471C12.6206 22.9373 13.7397 24.8746 15.63 25.3825C15.9404 25.4671 16.2413 25.5047 16.5423 25.5047C18.1034 25.5047 19.5328 24.4609 19.956 22.8809C20.3886 21.2728 21.8369 20.1536 23.4827 20.1536C25.1473 20.1536 26.6049 21.2634 27.0187 22.8621C27.5172 24.7524 29.4451 25.8809 31.3354 25.3919C33.2256 24.8935 34.3542 22.9656 33.8651 21.0753C32.6426 16.3637 28.373 13.0815 23.4921 13.0815Z" fill="#525DF9"/>
	</g>
</svg>
