<?xml version="1.0" ?>
<svg xmlns="http://www.w3.org/2000/svg" viewBox="0 0 420.6 79.4" enable-background="new 0 0 420.6 79.4">
	<style>.st0{fill:#737577}.st1{fill:#24272a}</style>
	<path class="st0" d="M1 67.1c-.2 0-.4-.1-.6-.2-.1-.1-.2-.3-.2-.5s.1-.4.2-.6.3-.2.6-.2h9.4c.2 0 .4.1.6.2.1.1.2.3.2.6 0 .2-.1.4-.2.5-.1.1-.3.2-.6.2H1zm4.7 12c-.2 0-.4-.1-.6-.2s-.2-.4-.2-.6V65.6h1.6v12.7c0 .2-.1.4-.2.6s-.3.2-.6.2zM18.1 79.1c-.2 0-.4-.1-.6-.2-.2-.2-.2-.4-.2-.6V66.4c0-.2.1-.4.2-.6.2-.2.4-.2.6-.2s.4.1.6.2c.1.2.2.4.2.6v5.1h8.2v-5.1c0-.2.1-.4.2-.6.2-.2.4-.2.6-.2s.4.1.6.2c.1.2.2.4.2.6v11.9c0 .2-.1.4-.2.6s-.3.2-.6.2c-.2 0-.4-.1-.6-.2-.2-.2-.2-.4-.2-.6V73h-8.2v5.3c0 .2-.1.4-.2.6-.1.1-.3.2-.6.2zM37.2 79.1c-.2 0-.4-.1-.6-.2-.2-.2-.2-.4-.2-.6V66.4c0-.2.1-.4.2-.6.2-.2.4-.2.6-.2h7.9c.2 0 .4.1.6.2.1.1.2.3.2.6 0 .2-.1.4-.2.5s-.3.2-.6.2H38v4.4h5.1c.2 0 .4.1.6.2s.2.3.2.6c0 .2-.1.4-.2.5s-.3.2-.6.2H38v4.5h7.1c.2 0 .4.1.6.2.1.1.2.3.2.5s-.1.4-.2.6c-.1.1-.3.2-.6.2h-7.9v.1zM62.7 79.1c-.2 0-.4-.1-.6-.2s-.2-.4-.2-.6V66.4c0-.2.1-.4.2-.6.2-.2.4-.2.6-.2.3 0 .6.1.7.4L69 77.1h-.6L73.8 66c.2-.3.4-.4.7-.4.2 0 .4.1.6.2.2.2.2.4.2.6v11.9c0 .2-.1.4-.2.6-.1.2-.4.2-.6.2s-.4-.1-.6-.2-.2-.4-.2-.6v-9.6l.3-.1-4.7 9.6c-.2.3-.4.4-.7.4-.3 0-.6-.2-.8-.5l-4.7-9.4.3-.1v9.6c0 .2-.1.4-.2.6-.1.2-.3.3-.5.3zM82.4 79.1c-.3 0-.5-.1-.7-.4s-.2-.5 0-.8l4.9-11.8c.2-.4.4-.6.8-.6s.6.2.8.6l5 11.8c.1.3.1.6-.1.8s-.4.4-.7.4c-.2 0-.3 0-.5-.1-.1-.1-.3-.2-.3-.4l-4.4-11h.5l-4.5 11c-.1.2-.2.3-.3.4-.2.1-.4.1-.5.1zm1-3 .6-1.4h6.9l.6 1.4h-8.1zM100.1 79.1c-.2 0-.4-.1-.6-.2-.2-.2-.2-.4-.2-.6V66.4c0-.2.1-.4.2-.6.2-.2.3-.2.6-.2s.5.1.6.3l7.8 10.3v-9.8c0-.2.1-.4.2-.6.2-.2.3-.2.6-.2.2 0 .4.1.6.2.1.2.2.4.2.6v11.9c0 .2-.1.4-.2.6-.1.2-.3.2-.6.2-.1 0-.2 0-.3-.1s-.2-.1-.3-.2l-7.8-10.3v9.8c0 .2-.1.4-.2.6-.2.1-.4.2-.6.2zM117.2 79.1c-.3 0-.5-.1-.7-.4s-.2-.5 0-.8l4.9-11.8c.2-.4.4-.6.8-.6s.6.2.8.6l5 11.8c.1.3.1.6-.1.8s-.4.4-.7.4c-.2 0-.3 0-.5-.1-.1-.1-.3-.2-.3-.4l-4.4-11h.5l-4.5 11c-.1.2-.2.3-.3.4-.2.1-.4.1-.5.1zm1-3 .6-1.4h6.9l.6 1.4h-8.1zM139.8 79.3c-.9 0-1.8-.2-2.6-.5-.8-.4-1.5-.8-2.1-1.5-.6-.6-1.1-1.4-1.4-2.2-.3-.8-.5-1.7-.5-2.7s.2-1.9.5-2.7c.3-.8.8-1.6 1.4-2.2.6-.6 1.3-1.1 2.1-1.5s1.7-.5 2.6-.5c.9 0 1.6.1 2.3.4s1.3.6 1.9 1.2c.1.1.2.1.2.2s.1.2.1.3v.3c0 .2-.1.3-.2.4-.1.1-.3.2-.5.2s-.4-.1-.5-.2c-.4-.4-.9-.7-1.4-.9-.5-.2-1.1-.3-1.8-.3s-1.4.1-2 .4-1.2.7-1.6 1.2-.8 1.1-1.1 1.7c-.3.7-.4 1.3-.4 2.1s.1 1.5.4 2.1c.3.7.6 1.2 1.1 1.7s1 .9 1.6 1.2c.6.3 1.3.4 2 .4.6 0 1.2-.1 1.7-.3.5-.2 1.1-.5 1.5-.9.2-.1.4-.2.6-.2s.3.1.5.2c.1.1.2.3.2.5 0 .1 0 .2-.1.3 0 .1-.1.2-.2.3-.6.5-1.3.9-2 1.1-.8.3-1.5.4-2.3.4zm4.5-2.1-1.6-.3v-3.2h-2.5c-.2 0-.4-.1-.6-.2s-.2-.3-.2-.5.1-.4.2-.5c.2-.1.4-.2.6-.2h3.3c.2 0 .4.1.6.2.1.2.2.3.2.6v4.1zM152.1 79.1c-.2 0-.4-.1-.6-.2-.2-.2-.2-.4-.2-.6V66.4c0-.2.1-.4.2-.6.2-.2.4-.2.6-.2h7.9c.2 0 .4.1.6.2.1.1.2.3.2.6 0 .2-.1.4-.2.5s-.3.2-.6.2h-7.1v4.4h5.1c.2 0 .4.1.6.2s.2.3.2.6c0 .2-.1.4-.2.5s-.3.2-.6.2h-5.1v4.5h7.1c.2 0 .4.1.6.2.1.1.2.3.2.5s-.1.4-.2.6c-.1.1-.3.2-.6.2h-7.9v.1zM168.4 79.1c-.2 0-.4-.1-.6-.2-.2-.2-.2-.4-.2-.6V66.4c0-.2.1-.4.2-.6.2-.2.4-.2.6-.2h3.1c1 0 1.9.2 2.7.5s1.5.8 2.1 1.4 1.1 1.3 1.4 2.1c.3.8.5 1.7.5 2.7s-.2 1.9-.5 2.7c-.3.8-.8 1.5-1.4 2.1-.6.6-1.3 1.1-2.1 1.4s-1.7.5-2.7.5l-3.1.1zm.8-1.4h2.3c1 0 1.9-.2 2.7-.7s1.4-1.1 1.8-1.9c.4-.8.7-1.7.7-2.7s-.2-2-.7-2.7-1-1.4-1.8-1.9-1.7-.7-2.7-.7h-2.3v10.6zM200.5 79.3c-.9 0-1.8-.2-2.6-.5-.8-.4-1.5-.8-2.1-1.5-.6-.6-1.1-1.4-1.4-2.2-.3-.8-.5-1.7-.5-2.7s.2-1.9.5-2.7c.3-.8.8-1.6 1.4-2.2.6-.6 1.3-1.1 2.1-1.5s1.7-.5 2.6-.5c.9 0 1.6.1 2.3.4.7.2 1.3.6 1.9 1.2.1.1.2.1.2.2s.1.2.1.3v.3c0 .2-.1.3-.2.4-.1.1-.3.2-.5.2s-.4-.1-.5-.2c-.4-.4-.9-.7-1.4-.9s-1.1-.3-1.8-.3-1.4.1-2 .4-1.2.7-1.6 1.2c-.5.5-.8 1.1-1.1 1.7-.3.7-.4 1.3-.4 2.1s.1 1.5.4 2.1c.3.7.6 1.2 1.1 1.7s1 .9 1.6 1.2c.6.3 1.3.4 2 .4.6 0 1.2-.1 1.7-.3.5-.2 1.1-.5 1.5-.9.2-.1.4-.2.6-.2s.3.1.5.2c.1.1.2.3.2.5 0 .1 0 .2-.1.3 0 .1-.1.2-.2.3-.6.5-1.3.9-2 1.1-.8.3-1.6.4-2.3.4zM212.8 79.1c-.2 0-.4-.1-.6-.2-.2-.2-.2-.4-.2-.6V66.4c0-.2.1-.4.2-.6.2-.2.4-.2.6-.2s.4.1.6.2c.2.2.2.4.2.6v11.1h6.4c.2 0 .4.1.6.2.2.2.2.3.2.6s-.1.4-.2.6c-.2.2-.4.2-.6.2h-7.2zM232.2 79.3c-1 0-1.9-.2-2.8-.5-.8-.3-1.6-.8-2.2-1.4s-1.1-1.4-1.4-2.2c-.3-.8-.5-1.8-.5-2.8s.2-1.9.5-2.8c.3-.8.8-1.6 1.4-2.2s1.3-1.1 2.2-1.4c.8-.3 1.8-.5 2.8-.5s1.9.2 2.8.5c.8.3 1.6.8 2.2 1.4s1.1 1.4 1.4 2.2c.3.8.5 1.8.5 2.8s-.2 1.9-.5 2.8c-.3.8-.8 1.6-1.4 2.2s-1.3 1.1-2.2 1.4c-.9.3-1.8.5-2.8.5zm0-1.5c.8 0 1.5-.1 2.1-.4s1.2-.7 1.7-1.2.8-1.1 1.1-1.7c.3-.7.4-1.4.4-2.1 0-.8-.1-1.5-.4-2.1-.3-.7-.6-1.2-1.1-1.7s-1-.9-1.7-1.1c-.6-.3-1.4-.4-2.1-.4-.8 0-1.5.1-2.1.4s-1.2.7-1.7 1.1c-.5.5-.8 1.1-1.1 1.7-.3.7-.4 1.4-.4 2.1 0 .8.1 1.5.4 2.1.3.7.6 1.2 1.1 1.7s1 .9 1.7 1.2c.6.3 1.3.4 2.1.4zM251.6 79.4c-1.1 0-2-.2-2.9-.6-.8-.4-1.5-1-2-1.7s-.7-1.5-.7-2.5v-8.2c0-.2.1-.4.2-.6.2-.2.4-.2.6-.2s.4.1.6.2c.1.2.2.4.2.6v8.2c0 .6.2 1.2.5 1.7s.8.9 1.4 1.2c.6.3 1.3.4 2 .4s1.4-.1 2-.4 1-.7 1.3-1.2.5-1.1.5-1.7v-8.2c0-.2.1-.4.2-.6.2-.2.3-.2.6-.2s.5.1.6.2c.1.2.2.4.2.6v8.2c0 .9-.2 1.8-.7 2.5-.5.7-1.1 1.3-1.9 1.7-.7.4-1.6.6-2.7.6zM265.5 79.1c-.2 0-.4-.1-.6-.2-.2-.2-.2-.4-.2-.6V66.4c0-.2.1-.4.2-.6.2-.2.4-.2.6-.2h3.1c1 0 1.9.2 2.7.5s1.5.8 2.1 1.4 1.1 1.3 1.4 2.1c.3.8.5 1.7.5 2.7s-.2 1.9-.5 2.7c-.3.8-.8 1.5-1.4 2.1s-1.3 1.1-2.1 1.4-1.7.5-2.7.5l-3.1.1zm.8-1.4h2.3c1 0 1.9-.2 2.7-.7.8-.5 1.4-1.1 1.8-1.9s.7-1.7.7-2.7-.2-2-.7-2.7-1-1.4-1.8-1.9-1.7-.7-2.7-.7h-2.3v10.6zM297.6 79.3c-.9 0-1.8-.2-2.6-.5-.8-.4-1.5-.8-2.1-1.5-.6-.6-1.1-1.4-1.4-2.2-.3-.8-.5-1.7-.5-2.7s.2-1.9.5-2.7c.3-.8.8-1.6 1.4-2.2s1.3-1.1 2.1-1.5c.8-.4 1.7-.5 2.6-.5s1.6.1 2.3.4c.7.2 1.3.6 1.9 1.2.1.1.2.1.2.2s.1.2.1.3v.3c0 .2-.1.3-.2.4s-.3.2-.5.2-.4-.1-.5-.2c-.4-.4-.9-.7-1.4-.9s-1.1-.3-1.8-.3-1.4.1-2 .4-1.2.7-1.6 1.2c-.5.5-.8 1.1-1.1 1.7-.3.7-.4 1.3-.4 2.1s.1 1.5.4 2.1c.3.7.6 1.2 1.1 1.7s1 .9 1.6 1.2c.6.3 1.3.4 2 .4.6 0 1.2-.1 1.7-.3.5-.2 1.1-.5 1.5-.9.2-.1.4-.2.6-.2s.3.1.5.2c.1.1.2.3.2.5 0 .1 0 .2-.1.3 0 .1-.1.2-.2.3-.6.5-1.3.9-2 1.1-.8.3-1.5.4-2.3.4zM315.4 79.3c-1 0-1.9-.2-2.8-.5-.8-.3-1.6-.8-2.2-1.4s-1.1-1.4-1.4-2.2c-.3-.8-.5-1.8-.5-2.8s.2-1.9.5-2.8c.3-.8.8-1.6 1.4-2.2s1.3-1.1 2.2-1.4c.8-.3 1.8-.5 2.8-.5s1.9.2 2.8.5c.8.3 1.6.8 2.2 1.4s1.1 1.4 1.4 2.2c.3.8.5 1.8.5 2.8s-.2 1.9-.5 2.8c-.3.8-.8 1.6-1.4 2.2s-1.3 1.1-2.2 1.4c-.9.3-1.8.5-2.8.5zm0-1.5c.8 0 1.5-.1 2.1-.4s1.2-.7 1.7-1.2.8-1.1 1.1-1.7c.3-.7.4-1.4.4-2.1 0-.8-.1-1.5-.4-2.1-.3-.7-.6-1.2-1.1-1.7s-1-.9-1.7-1.1c-.6-.3-1.4-.4-2.1-.4-.8 0-1.5.1-2.1.4s-1.2.7-1.7 1.1c-.5.5-.8 1.1-1.1 1.7-.3.7-.4 1.4-.4 2.1 0 .8.1 1.5.4 2.1.3.7.6 1.2 1.1 1.7s1 .9 1.7 1.2c.6.3 1.3.4 2.1.4zM330 79.1c-.2 0-.4-.1-.6-.2-.2-.2-.2-.4-.2-.6V66.4c0-.2.1-.4.2-.6.2-.2.4-.2.6-.2.3 0 .6.1.7.4l5.6 11.1h-.6l5.4-11.1c.2-.3.4-.4.7-.4.2 0 .4.1.6.2.2.2.2.4.2.6v11.9c0 .2-.1.4-.2.6-.2.2-.4.2-.6.2s-.4-.1-.6-.2c-.2-.2-.2-.4-.2-.6v-9.6l.3-.1-4.7 9.6c-.2.3-.4.4-.7.4-.3 0-.6-.2-.8-.5l-4.7-9.4.3-.1v9.6c0 .2-.1.4-.2.6 0 .2-.2.3-.5.3zM351.2 79.1c-.2 0-.4-.1-.6-.2-.2-.2-.2-.4-.2-.6V66.4c0-.2.1-.4.2-.6.2-.2.4-.2.6-.2h3.5c.9 0 1.6.2 2.3.6s1.2.9 1.6 1.6.6 1.4.6 2.3-.2 1.6-.6 2.3-.9 1.2-1.6 1.5c-.7.4-1.4.6-2.3.6h-2.6v3.9c0 .2-.1.4-.2.6-.3 0-.5.1-.7.1zm.8-6.2h2.6c.5 0 1-.1 1.5-.4s.8-.6 1-1 .4-.9.4-1.5-.1-1.1-.4-1.5c-.2-.4-.6-.8-1-1s-.9-.4-1.5-.4H352v5.8zM364.1 79.1c-.3 0-.5-.1-.7-.4s-.2-.5 0-.8l4.9-11.8c.2-.4.4-.6.8-.6s.6.2.8.6l5 11.8c.1.3.1.6-.1.8-.2.2-.4.4-.7.4-.2 0-.3 0-.5-.1-.1-.1-.3-.2-.3-.4l-4.4-11h.5l-4.5 11c-.1.2-.2.3-.3.4s-.4.1-.5.1zm1-3 .6-1.4h6.9l.6 1.4h-8.1zM381.8 79.1c-.2 0-.4-.1-.6-.2-.2-.2-.2-.4-.2-.6V66.4c0-.2.1-.4.2-.6.2-.2.3-.2.6-.2s.5.1.6.3l7.8 10.3v-9.8c0-.2.1-.4.2-.6.2-.2.3-.2.6-.2.2 0 .4.1.6.2.1.2.2.4.2.6v11.9c0 .2-.1.4-.2.6-.2.2-.3.2-.6.2-.1 0-.2 0-.3-.1s-.2-.1-.3-.2l-7.8-10.3v9.8c0 .2-.1.4-.2.6-.1.1-.3.2-.6.2zM403.5 79.1c-.2 0-.4-.1-.6-.2-.2-.2-.2-.4-.2-.6v-4.1l-4.7-7.3c-.1-.2-.2-.4-.2-.6s.1-.4.3-.5c.1-.1.3-.2.5-.2s.3 0 .4.1l.3.3 4.5 7.1h-.7l4.5-7.2.3-.3c.1-.1.3-.1.4-.1.2 0 .4.1.5.2s.2.3.2.5 0 .4-.2.6l-4.7 7.3v4.1c0 .2-.1.4-.2.6 0 .2-.2.3-.4.3z"/>
	<g>
		<path class="st1" d="M44.7 30.8c-.1-.2-.2-.3-.4-.3s-.3 0-.5.1c-6.6 4.3-10.3 5.8-17.9 5.8-7.9 0-16.3-4.6-16.3-13.2 0-8.3 8.2-13.4 15.9-13.4 6.1 0 10.8 2 16.3 6.8.1.1.3.2.5.1.2 0 .3-.1.4-.3l5-7.4c.2-.3.1-.6-.1-.8C40.2 2.7 34.8 0 25.7 0 11 0 0 10.1 0 23.5 0 39 13.7 46 26.5 46c9.5 0 13.8-1.7 21.8-6.7.3-.2.4-.5.2-.8l-3.8-7.7zM88.3 1.7c-.1-.2-.3-.3-.5-.3H76.6c-.2 0-.4.1-.5.3L55.7 43.8c-.1.2-.1.4 0 .6s.3.3.5.3h9.6c.2 0 .4-.1.5-.3l15.9-32.8 7.2 14.7h-9.3c-.2 0-.4.1-.5.3l-4 8.4c-.1.2-.1.4 0 .6.1.2.3.3.5.3h18.1l4.1 8.5c.1.2.3.3.5.3h9.6c.2 0 .4-.1.5-.3.1-.2.1-.4 0-.6L88.3 1.7zM154.7 27.2c6-2.1 9.1-6.5 9.1-12.5 0-4.4-2-8.5-5.4-10.9-2.8-2-5.2-2.4-8.4-2.4h-28.8c-.3 0-.6.3-.6.6v42.1c0 .3.3.6.6.6h8.5c.3 0 .6-.3.6-.6V27.4h12.5l10.5 16.9c.1.2.3.3.5.3h10.6c.3 0 .6-.3.6-.6 0-.2-.1-.3-.2-.4l-10.1-16.4zM130.3 11h18.2c3.5 0 5.6.6 5.6 3.4 0 2.6-2.2 3.5-4.1 3.5h-19.6l-.1-6.9zM218.1 21c2.1-2.5 2.6-4.2 2.6-7.6 0-3.4-1.3-6.7-3.6-8.9-2.9-2.9-6.2-3.1-9.8-3.1h-27.5c-.3 0-.6.3-.6.6v42.1c0 .3.3.6.6.6h27.5c9.6 0 15.5-5.3 15.5-13.8 0-4.3-1.2-7-4.7-9.9zm-29.3 5.6h18.5c4.2 0 6 1.2 6 4.1 0 3-1.8 4.3-6 4.3h-18.5v-8.4zm18.5-9.5h-18.5v-6h18.5c2.7 0 3.6.8 3.6 2.9 0 2.6-.8 3.1-3.6 3.1zM260.3 0c-12.8 0-26.4 8-26.4 22.9 0 15.1 13.6 23.2 26.3 23.2 12.9 0 26.6-8.2 26.6-23.4C286.8 7.1 273.1 0 260.3 0zm.2 36.2c-8.1 0-16.9-4.1-16.9-13.2S252 9.8 260.4 9.8c8 0 16.7 4 16.7 12.9 0 8.8-8.5 13.5-16.6 13.5zM342.1 1.4h-8.4c-.3 0-.6.3-.6.6v26.8L310.8 1.7c-.1-.1-.3-.2-.5-.2h-8.4c-.3 0-.6.3-.6.6v42.1c0 .3.3.6.6.6h8.4c.3 0 .6-.3.6-.6v-27l22.3 27.2c.1.1.3.2.5.2h8.4c.3 0 .6-.3.6-.6V2c0-.4-.3-.6-.6-.6z"/>
	</g>
	<g>
		<linearGradient id="SVGID_1_" gradientUnits="userSpaceOnUse" x1="369.45" y1="31.645" x2="369.45" y2="64.945" gradientTransform="matrix(1 0 0 -1 0 76.6)">
			<stop offset="0" stop-color="#007298"/>
			<stop offset=".03" stop-color="#04749a"/>
			<stop offset=".278" stop-color="#2182a4"/>
			<stop offset=".524" stop-color="#368cab"/>
			<stop offset=".766" stop-color="#4291b0"/>
			<stop offset="1" stop-color="#4693b1"/>
		</linearGradient>
		<path d="M371.8 22c-.8 0-1.4.1-2 .2l7-9.6c.1-.2.2-.4 0-.6-.1-.2-.3-.3-.5-.3h-8.2c-.2 0-.4.1-.5.3l-7.8 11.3c-2.1 3-3.2 6.5-3.2 9.9 0 7.1 5.2 11.8 13 11.8 7.2 0 12.7-5.1 12.7-11.8 0-7.7-5.5-11.2-10.5-11.2zm1.8 11.3c0 2.5-1.7 4.3-4.1 4.3-3.7 0-4.1-3.1-4.1-4.4 0-2.6 1.6-4.3 4.1-4.3 2.5.1 4.1 1.7 4.1 4.4z" fill="url(#SVGID_1_)"/>
		<linearGradient id="SVGID_2_" gradientUnits="userSpaceOnUse" x1="398.701" y1="31.645" x2="398.701" y2="65.601" gradientTransform="matrix(1 0 0 -1 0 76.6)">
			<stop offset="0" stop-color="#007298"/>
			<stop offset=".03" stop-color="#04749a"/>
			<stop offset=".278" stop-color="#2182a4"/>
			<stop offset=".524" stop-color="#368cab"/>
			<stop offset=".766" stop-color="#4291b0"/>
			<stop offset="1" stop-color="#4693b1"/>
		</linearGradient>
		<path d="M398.7 11c-7.7 0-12.9 4.8-12.9 11.9v10.3c0 7.1 5.2 11.9 12.9 11.9s12.9-4.8 12.9-11.9V22.8c.1-7-5.1-11.8-12.9-11.8zm-4 11.8c0-2.9 1.4-4.4 4.1-4.4s4.1 1.5 4.1 4.4v10.3c0 2.9-1.4 4.4-4.1 4.4s-4.1-1.5-4.1-4.4V22.8z" fill="url(#SVGID_2_)"/>
	</g>
	<g>
		<path class="st0" d="M416.7 46.1c-2.2 0-3.9-1.7-3.9-3.9s1.7-3.9 3.9-3.9 3.9 1.7 3.9 3.9c0 2.3-1.7 3.9-3.9 3.9zm0-7.1c-1.8 0-3.3 1.4-3.3 3.3 0 1.8 1.4 3.3 3.3 3.3s3.3-1.4 3.3-3.3-1.4-3.3-3.3-3.3zm.8 5.5-.9-1.8h-.4v1.8h-.9V40h1.6c1 0 1.6.5 1.6 1.4s-.6 1.2-.9 1.3l1.1 1.9h-1.2v-.1zm-.9-3.7h-.5v1.3h.5c.4 0 .8-.1.8-.6.1-.6-.3-.7-.8-.7z"/>
	</g>
</svg>