<?xml version="1.0" ?>
<svg xmlns="http://www.w3.org/2000/svg" viewBox="0 0 200 47" fill="none">
	<path fill-rule="evenodd" clip-rule="evenodd" d="M45.5939 12.3208C45.5939 6.02982 40.4864 0.922363 34.1956 0.922363H11.399C5.10757 0.922363 0 6.02982 0 12.3208V35.1176C0 41.4084 5.10757 46.5159 11.399 46.5159H34.1956C40.4864 46.5159 45.5939 41.4084 45.5939 35.1176V12.3208Z" fill="url(#paint0_linear_58_1233)"/>
	<mask id="mask0_58_1233" maskUnits="userSpaceOnUse" x="0" y="0" width="46" height="47" mask-type="luminance">
		<path d="M45.5939 12.3208C45.5939 6.02982 40.4864 0.922363 34.1956 0.922363H11.399C5.10757 0.922363 0 6.02982 0 12.3208V35.1176C0 41.4084 5.10757 46.5159 11.399 46.5159H34.1956C40.4864 46.5159 45.5939 41.4084 45.5939 35.1176V12.3208Z" fill="white"/>
	</mask>
	<g mask="url(#mask0_58_1233)">
		<path fill-rule="evenodd" clip-rule="evenodd" d="M0.159235 9.27416C0.159235 9.27416 8.7025 10.136 11.6702 12.7233C11.6702 12.7233 8.49971 9.00172 9.46931 5.49609C9.46931 5.49609 11.6911 8.86065 14.9814 10.2102C18.1336 11.5028 28.4215 14.1472 27.0184 20.1763C27.0184 20.1763 28.5115 20.9827 29.4589 22.5312C30.0711 23.532 30.348 24.9461 30.0907 26.2477C29.753 27.955 28.8454 29.7218 26.2294 30.6825C26.2294 30.6825 22.5101 24.5804 17.4974 28.2845C15.2755 29.9271 14.5518 33.2871 15.9872 36.4506C17.3744 39.5077 21.28 43.0319 31.938 43.8418C35.5591 44.1168 44.283 44.4837 47.3883 39.4253C47.3883 39.4253 49.1133 45.0591 42.6328 49.7531C42.6328 49.7531 21.6001 54.1803 8.59413 50.1942C0.138329 47.6023 -2.36489 39.8778 -2.23435 30.4544C-2.23435 30.4544 -1.12913 11.2747 0.159235 9.27416Z" fill="white"/>
		<mask id="mask1_58_1233" maskUnits="userSpaceOnUse" x="-3" y="5" width="51" height="47" mask-type="luminance">
			<path d="M0.159235 9.27416C0.159235 9.27416 8.7025 10.136 11.6702 12.7233C11.6702 12.7233 8.49971 9.00172 9.46931 5.49609C9.46931 5.49609 11.6911 8.86065 14.9814 10.2102C18.1336 11.5028 28.4215 14.1472 27.0184 20.1763C27.0184 20.1763 28.5115 20.9827 29.4589 22.5312C30.0711 23.532 30.348 24.9461 30.0907 26.2477C29.753 27.955 28.8454 29.7218 26.2294 30.6825C26.2294 30.6825 22.5101 24.5804 17.4974 28.2845C15.2755 29.9271 14.5518 33.2871 15.9872 36.4506C17.3744 39.5077 21.28 43.0319 31.938 43.8418C35.5591 44.1168 44.283 44.4837 47.3883 39.4253C47.3883 39.4253 49.1133 45.0591 42.6328 49.7531C42.6328 49.7531 21.6001 54.1803 8.59413 50.1942C0.138329 47.6023 -2.36489 39.8778 -2.23435 30.4544C-2.23435 30.4544 -1.12913 11.2747 0.159235 9.27416Z" fill="white"/>
		</mask>
		<g mask="url(#mask1_58_1233)">
			<path fill-rule="evenodd" clip-rule="evenodd" d="M26.2295 30.6823C26.2295 30.6823 26.2182 28.3527 24.8892 26.2241C23.772 24.4344 21.6832 22.7923 18.2757 22.7439C16.4081 22.7174 12.6849 24.0777 11.2679 27.5631C11.2679 27.5631 10.3509 23.7487 12.7572 21.229C12.7572 21.229 4.38882 23.3089 5.86604 32.5936C5.97694 33.2894 6.62085 36.2863 8.58666 38.8339C11.3199 42.3764 14.6628 44.7509 20.3327 45.9423C24.2409 46.7637 29.2689 47.1515 36.5073 46.7636C36.5073 46.7636 48.3593 47.4202 48.5887 35.6215C48.5887 35.6215 16.9296 43.3073 26.2295 30.6823Z" fill="#FFEDDC"/>
		</g>
		<path fill-rule="evenodd" clip-rule="evenodd" d="M24.1205 19.7321L23.0872 21.0464C23.0872 21.0464 22.0367 18.7927 20.0078 16.8237L24.1205 19.7321Z" fill="#F9A14C"/>
	</g>
	<path d="M74.9551 29.8917L79.8614 32.5456C78.8356 33.9431 77.5495 35.0656 76.0033 35.9131C74.4571 36.7605 72.7696 37.1843 70.9409 37.1843C68.8892 37.1843 67.0158 36.6565 65.3209 35.6009C63.6409 34.5453 62.2954 33.1328 61.2844 31.3636C60.2883 29.5795 59.7902 27.6095 59.7902 25.4537C59.7902 23.8183 60.0801 22.2944 60.6599 20.8819C61.2398 19.4547 62.0352 18.2058 63.0462 17.1353C64.0721 16.05 65.2615 15.2025 66.6144 14.593C67.9674 13.9834 69.4095 13.6786 70.9409 13.6786C72.7696 13.6786 74.4571 14.1023 76.0033 14.9498C77.5495 15.7972 78.8356 16.9346 79.8614 18.3619L74.9551 20.9934C74.4348 20.3987 73.8178 19.9379 73.1041 19.6108C72.4053 19.2837 71.6843 19.1201 70.9409 19.1201C69.8704 19.1201 68.904 19.4175 68.0417 20.0122C67.1794 20.592 66.4955 21.3651 65.99 22.3315C65.4845 23.2831 65.2317 24.3238 65.2317 25.4537C65.2317 26.5688 65.4845 27.6095 65.99 28.5759C66.4955 29.5274 67.1794 30.2931 68.0417 30.873C68.904 31.4528 69.8704 31.7427 70.9409 31.7427C71.714 31.7427 72.4499 31.5792 73.1487 31.2521C73.8475 30.9101 74.4496 30.4567 74.9551 29.8917Z" fill="black"/>
	<path d="M99.6309 14.303H105.072V36.6044H99.6086L99.3856 33.839C98.7612 34.8352 97.9434 35.6455 96.9324 36.2699C95.9363 36.8795 94.7618 37.1843 93.4088 37.1843C91.7585 37.1843 90.2123 36.872 88.7701 36.2476C87.328 35.6232 86.0568 34.7608 84.9566 33.6606C83.8564 32.5604 83.0015 31.2893 82.3919 29.8471C81.7824 28.4049 81.4776 26.8587 81.4776 25.2084C81.4776 23.6176 81.7675 22.1234 82.3473 20.7258C82.9272 19.3283 83.7449 18.1017 84.8005 17.0461C85.8561 15.9905 87.0752 15.1654 88.4579 14.5707C89.8406 13.976 91.3274 13.6786 92.9182 13.6786C94.405 13.6786 95.7282 14.0057 96.8878 14.6599C98.0624 15.314 99.0585 16.1466 99.8762 17.1576L99.6309 14.303ZM93.5649 31.9434C94.7543 31.9434 95.7876 31.6386 96.6648 31.0291C97.542 30.4195 98.2036 29.6092 98.6497 28.5982C99.1105 27.5724 99.2964 26.4424 99.2072 25.2084C99.1031 24.0487 98.7612 23.0006 98.1813 22.0639C97.6015 21.1124 96.8581 20.3541 95.9512 19.7892C95.0443 19.2242 94.0258 18.9417 92.8959 18.9417C91.7214 18.9417 90.6658 19.2465 89.7291 19.8561C88.8073 20.4657 88.0937 21.2834 87.5882 22.3092C87.0827 23.3202 86.882 24.4502 86.986 25.699C87.105 26.8438 87.4767 27.892 88.1011 28.8435C88.7255 29.7802 89.5135 30.531 90.465 31.096C91.4314 31.6609 92.4647 31.9434 93.5649 31.9434Z" fill="black"/>
	<path d="M123.538 19.8338C123.137 19.5662 122.698 19.3506 122.222 19.187C121.761 19.0235 121.248 18.9417 120.683 18.9417C119.598 18.9417 118.661 19.2242 117.873 19.7892C117.1 20.3541 116.506 21.1124 116.089 22.0639C115.673 23.0006 115.465 24.0413 115.465 25.1861V36.6044H109.979V14.303H115.42V16.9346C116.164 15.9533 117.048 15.1728 118.074 14.593C119.115 14.0131 120.289 13.7232 121.598 13.7232C122.103 13.7232 122.586 13.7381 123.047 13.7678C123.523 13.7975 123.977 13.8793 124.408 14.0131L123.538 19.8338Z" fill="black"/>
	<path d="M139.822 13.6786C141.993 13.6786 143.97 14.2064 145.754 15.262C147.538 16.3176 148.958 17.7374 150.014 19.5216C151.069 21.2908 151.597 23.2533 151.597 25.4091C151.597 27.0297 151.292 28.5536 150.683 29.9809C150.073 31.4082 149.226 32.6645 148.14 33.7498C147.07 34.8203 145.821 35.6603 144.394 36.2699C142.981 36.8795 141.457 37.1843 139.822 37.1843C138.424 37.1843 137.183 36.872 136.098 36.2476C135.027 35.6083 134.128 34.7831 133.399 33.7721V36.6044H127.958V3.15234H133.399V17.0907C134.128 16.0797 135.027 15.262 136.098 14.6376C137.183 13.9983 138.424 13.6786 139.822 13.6786ZM139.755 31.9211C140.915 31.9211 141.963 31.6312 142.899 31.0514C143.851 30.4567 144.609 29.6687 145.174 28.6874C145.739 27.7062 146.022 26.6134 146.022 25.4091C146.022 24.2197 145.739 23.1344 145.174 22.1531C144.609 21.157 143.851 20.369 142.899 19.7892C141.948 19.2093 140.9 18.9194 139.755 18.9194C138.625 18.9194 137.614 19.2168 136.722 19.8115C135.83 20.3913 135.131 21.1793 134.626 22.1754C134.12 23.1567 133.867 24.2346 133.867 25.4091C133.867 26.6134 134.12 27.7136 134.626 28.7097C135.131 29.691 135.83 30.4715 136.722 31.0514C137.614 31.6312 138.625 31.9211 139.755 31.9211Z" fill="black"/>
	<path d="M164.547 37.1843C162.496 37.1843 160.622 36.6565 158.927 35.6009C157.247 34.5453 155.902 33.1328 154.891 31.3636C153.895 29.5795 153.397 27.6095 153.397 25.4537C153.397 23.8183 153.687 22.2944 154.267 20.8819C154.846 19.4547 155.642 18.2058 156.653 17.1353C157.679 16.05 158.868 15.2025 160.221 14.593C161.574 13.9834 163.016 13.6786 164.547 13.6786C166.599 13.6786 168.465 14.2064 170.145 15.262C171.84 16.3176 173.186 17.7374 174.182 19.5216C175.193 21.3057 175.698 23.2831 175.698 25.4537C175.698 27.0743 175.408 28.5908 174.828 30.0032C174.249 31.4156 173.446 32.6645 172.42 33.7498C171.409 34.8203 170.227 35.6603 168.874 36.2699C167.536 36.8795 166.094 37.1843 164.547 37.1843ZM164.547 31.7427C165.633 31.7427 166.607 31.4528 167.469 30.873C168.331 30.2931 169.008 29.5274 169.498 28.5759C170.004 27.6244 170.257 26.5837 170.257 25.4537C170.257 24.2941 169.996 23.2385 169.476 22.2869C168.971 21.3205 168.279 20.5549 167.402 19.9899C166.54 19.4101 165.588 19.1201 164.547 19.1201C163.477 19.1201 162.511 19.4101 161.648 19.9899C160.786 20.5697 160.102 21.3428 159.597 22.3092C159.091 23.2756 158.838 24.3238 158.838 25.4537C158.838 26.6283 159.098 27.6913 159.619 28.6428C160.139 29.5944 160.831 30.3526 161.693 30.9176C162.57 31.4677 163.522 31.7427 164.547 31.7427Z" fill="black"/>
	<path d="M200 25.0746V36.6044H194.558V25.1638C194.558 24.019 194.321 22.9783 193.845 22.0416C193.369 21.0901 192.707 20.3318 191.86 19.7669C191.027 19.2019 190.061 18.9194 188.961 18.9194C187.89 18.9194 186.961 19.2019 186.173 19.7669C185.385 20.3318 184.776 21.0901 184.344 22.0416C183.928 22.9783 183.72 24.019 183.72 25.1638V36.6044H178.278V14.303H183.72V16.9346C184.463 15.9385 185.348 15.1505 186.374 14.5707C187.415 13.976 188.589 13.6786 189.898 13.6786C191.949 13.6786 193.726 14.199 195.228 15.2397C196.744 16.2656 197.911 17.6408 198.729 19.3654C199.561 21.0901 199.985 22.9931 200 25.0746Z" fill="black"/>
	<defs>
		<linearGradient id="paint0_linear_58_1233" x1="41.211" y1="5.80927" x2="8.52056" y2="37.6223" gradientUnits="userSpaceOnUse">
			<stop stop-color="#FF9133"/>
			<stop offset="1" stop-color="#FF2905"/>
		</linearGradient>
	</defs>
</svg>