<?xml version="1.0" encoding="utf-8"?>
<!-- Generator: Adobe Illustrator 21.1.0, SVG Export Plug-In . SVG Version: 6.00 Build 0)  -->
<svg version="1.1" id="Layer_1" xmlns="http://www.w3.org/2000/svg"  x="0px" y="0px"
	 viewBox="0 0 720 97.7" style="enable-background:new 0 0 720 97.7;" xml:space="preserve">
<style type="text/css">
	.st0{fill:#464646;}
	.st1{fill:#04679A;}
</style>
<g>
	<g>
		<path class="st0" d="M185.8,29.3c1.3,0.2,2.1,0.9,2.1,2.5v9.7c0,1.3-0.7,2-2.1,2h-20c-11.3,0-13,3.8-13,19.2
			c0,15.3,1.7,19.2,13,19.2h20c1.3,0,2.1,0.6,2.1,1.8v9.8c0,1.5-0.7,2.1-2.1,2.3c-6.6,1.5-15.4,1.7-20,1.7c-26.1,0-31.1-7-31.1-34.9
			c0-28.1,5-34.9,31.1-34.9C170.4,27.7,179.2,27.9,185.8,29.3z"/>
		<path class="st0" d="M252,48.8v42.4c0,2-0.5,3.1-2.7,3.8c-8.6,2-19.4,2.6-27.8,2.6c-18.4,0-28.1-2-28.3-21.2
			c0.2-16.5,8.8-20.1,25.1-20.1h15.6v-4.4c0-5.9-3.7-8.5-11.5-8.5h-22.2c-1.3,0-1.7-0.4-1.7-1.8v-10c0-1.5,0.5-1.7,1.7-2
			c7.5-1.5,14.6-1.8,22.2-1.8C246.6,27.7,252,35.5,252,48.8z M219.8,68c-6.4,0-8.6,2.1-8.6,7.4c0,5.9,2.7,7.5,10.4,7.5
			c2.5,0,8.7-0.2,12.3-1.2V68H219.8z"/>
		<path class="st0" d="M302,29c1.3,0.4,2,0.9,2,2.5v10c0,1.2-0.7,1.8-2.1,1.8h-11.5c-6.4,0-8.6,1-8.6,6.2V95c0,1.3-0.6,2-1.8,2
			h-14.6c-1.2,0-1.8-0.6-1.8-2V45c0-15.4,11-17.3,22.2-17.3C289.2,27.7,297.7,28.1,302,29z"/>
		<path class="st0" d="M367.8,2.1c1.3,0,1.8,0.6,1.8,2v88.1c0,1.8-1,2.8-2.6,3.1c-10,1.6-18.5,2.3-27,2.3
			c-25.9,0-31.7-7.2-31.7-34.8c0-27.2,5.8-35,28.1-35c5.6,0,10.5,0.2,15.1,0.7V4c0-1.3,0.5-2,1.8-2H367.8z M340.5,43.5
			c-12.4,0-14,3.3-14,19.1c0,14.5,1,19.2,13.2,19.2c2.9,0,8.1-0.2,11.8-0.9V43.5H340.5z"/>
		<path class="st0" d="M430.8,29.3c1.3,0.2,2.1,0.9,2.1,2.5v9.7c0,1.3-0.7,2-2.1,2h-20c-11.3,0-13,3.8-13,19.2
			c0,15.3,1.7,19.2,13,19.2h20c1.3,0,2.1,0.6,2.1,1.8v9.8c0,1.5-0.7,2.1-2.1,2.3c-6.6,1.5-15.4,1.7-20,1.7c-26.1,0-31.1-7-31.1-34.9
			c0-28.1,5-34.9,31.1-34.9C415.3,27.7,424.2,27.9,430.8,29.3z"/>
		<path class="st0" d="M481.4,29c1.3,0.4,2,0.9,2,2.5v10c0,1.2-0.7,1.8-2.1,1.8h-11.5c-6.4,0-8.6,1-8.6,6.2V95c0,1.3-0.6,2-1.8,2
			h-14.6c-1.2,0-1.8-0.6-1.8-2V45c0-15.4,11-17.3,22.2-17.3C468.6,27.7,477.1,28.1,481.4,29z"/>
		<path class="st0" d="M543.1,9.3c1.2-0.4,2,0.5,2,1.8v17.5h11.3c1.3,0,2.1,0.6,2.1,1.8v9.8c0,1.2-0.7,1.8-2.1,1.8h-11.3v33.5
			c0,5.3,1.8,6.2,7.2,6.2h5c1.5,0,2.1,0.5,2.1,1.8v10.4c0,1.5-0.6,2.1-2,2.3c-4.3,0.9-7.7,1.1-10.4,1.1c-10.5,0-20.1-0.4-20.1-15.8
			V42.1h-7.2c-1.3,0-2-0.6-2-1.8v-9.8c0-1.2,0.6-1.8,2-1.8h7.2V15.1c0-1.2,0.5-1.7,1.7-2L543.1,9.3z"/>
		<g>
			<path class="st0" d="M507.3,28.3c1.2,0,1.8,0.6,1.8,1.8V95c0,1.3-0.6,2-1.8,2h-14.5c-1.2,0-1.8-0.6-1.8-2V30.1
				c0-1.2,0.6-1.8,1.8-1.8H507.3z"/>
			<path class="st0" d="M510.8,10.8c0,6.2-3.8,9.9-10.5,9.9c-6.9,0-10.8-3.7-10.8-9.9s3.9-9.8,10.8-9.8
				C507,0.9,510.8,4.5,510.8,10.8z"/>
		</g>
		<g>
			<path class="st0" d="M584.3,28.3c1.2,0,1.8,0.6,1.8,1.8V95c0,1.3-0.6,2-1.8,2h-14.5c-1.2,0-1.8-0.6-1.8-2V30.1
				c0-1.2,0.6-1.8,1.8-1.8H584.3z"/>
			<path class="st0" d="M587.7,10.8c0,6.2-3.8,9.9-10.5,9.9c-6.9,0-10.8-3.7-10.8-9.9s3.9-9.8,10.8-9.8
				C583.9,0.9,587.7,4.5,587.7,10.8z M587.7,10.8c0,6.2-3.8,9.9-10.5,9.9c-6.9,0-10.8-3.7-10.8-9.9s3.9-9.8,10.8-9.8
				C583.9,0.9,587.7,4.5,587.7,10.8z"/>
		</g>
		<path class="st0" d="M648.6,29.3c1.3,0.2,2.1,0.9,2.1,2.5v9.7c0,1.3-0.7,2-2.1,2h-20c-11.3,0-13,3.8-13,19.2
			c0,15.3,1.7,19.2,13,19.2h20c1.3,0,2.1,0.6,2.1,1.8v9.8c0,1.5-0.7,2.1-2.1,2.3c-6.6,1.5-15.4,1.7-20,1.7c-26.1,0-31.1-7-31.1-34.9
			c0-28.1,5-34.9,31.1-34.9C633.2,27.7,642,27.9,648.6,29.3z"/>
		<path class="st0" d="M706.6,29.3c1.5,0.4,2,0.9,2,2v9.3c0,1.3-0.5,2-2.1,2h-22.1c-4.8,0-7.2,1.3-7.2,4.4v1.2c0,2.3,1.5,4,5.9,5.6
			l15.7,5.5c10.4,3.7,12.9,10,12.9,18.4v2c0,14.2-10.5,17.9-26.1,17.9c-10.7,0-19.5-0.6-25.4-1.2c-1.6,0-2.1-0.5-2.1-1.8v-9.9
			c0-1.3,0.6-1.8,2.1-1.8h25.1c6.5,0,8.5-0.9,8.5-4.2v-1.1c0-2.3-1.3-3.9-6.7-5.8l-15.1-5.4c-9.7-3.3-12.5-10.8-12.5-18.6v-2.3
			c0-13.1,10.2-17.6,27.8-17.6C692.5,27.7,699.5,28.1,706.6,29.3z"/>
	</g>
	<g>
		<path class="st1" d="M111.1,12.8c0-5.9-5.7-10.8-12.6-10.8h-6.8v95.5h19.4V12.8z"/>
		<path class="st1" d="M75.8,2.1H12.6C5.7,2.1,0,6.9,0,12.8v0l75.8,70.4V2.1z"/>
		<polygon class="st0" points="0,28.2 0,97.5 74.6,97.5 		"/>
	</g>
</g>
</svg>
