<?xml version="1.0" ?>
<svg xmlns="http://www.w3.org/2000/svg" version="1.2" baseProfile="tiny-ps" fill="none" viewBox="0 0 512 512">
	<circle cx="256" cy="256" r="256" fill="#FF8B72"/>
	<path fill="#482C2E" d="M262.838 234.734c-1.353 0-1.867 3.035-3.22 5.42-2.462 4.323-7.494 6.654-12.852 6.654-10.822 0-18.005-10.218-18.005-21.14 0-10.542 6.385-18.104 16.003-18.104 5.817 0 12.717 3.564 14.205 9.12 1.028 3.876 1.42 5.813 2.908 5.813 1.15 0 2.056-1.612 2.056-5.556 0-4.458-1.352-11.315-3.612-11.315-.96 0-1.609 1.166-1.677 2.711a22.767 22.767 0 0 0-13.934-4.716c-12.459 0-22.727 10.082-22.727 23.985 0 13.903 10.268 23.796 22.457 23.796a23.295 23.295 0 0 0 13.108-3.89c0 1.166.582 1.884 1.488 1.884 2.314 0 5.29-7.439 5.29-11.898 0-1.856-.487-2.764-1.488-2.764Zm36.945 12.534c-4.194-.84-4.262-3.36-4.262-7.303v-12.413c0-6.396-3.679-9.96-10.065-9.96-6.385 0-14.596 4.661-14.596 7.765a2.241 2.241 0 0 0 2.394 2.263 4.638 4.638 0 0 0 3.747-2.331c2.26-2.643 4.573-4.458 7.224-4.458 5.412 0 5.493 5.555 5.493 8.401v3.754a35.031 35.031 0 0 0-7.427-.976c-8.333 0-13.69 4.065-13.69 10.15 0 5.244 4.058 9.187 10.457 9.187a12.567 12.567 0 0 0 10.822-5.881c.839 3.876 3.03 5.421 5.871 5.421 2.841 0 4.519-1.735 4.519-3.036a.596.596 0 0 0-.487-.583Zm-18.723.136c-4.059 0-6.453-2.52-6.453-6.084 0-3.564 2.908-6.207 8.387-6.207 2.322.002 4.62.463 6.764 1.355v1.938a8.82 8.82 0 0 1-2.454 6.353 8.787 8.787 0 0 1-6.244 2.699v-.054Zm42.491-29.609c-3.219 0-7.684 2.846-9.875 8.402v-5.109c0-1.87-.393-2.913-1.935-2.913a26.869 26.869 0 0 0-8.117 2.073c-.906.393-1.231.84-1.231 1.491 0 .65.839 1.49 4.586 1.612.636.515.772 4.594.772 7.765v8.469c0 5.42-.136 7.101-.772 7.426-2.705.136-4.058.461-4.058 1.613 0 1.49 2.773 2.073 7.806 2.073 6.006 0 9.104-.515 9.104-2.073 0-1.152-1.353-1.545-5.411-1.681-.582-.311-.839-2.778-.839-7.358v-5.678c0-6.857 4.058-10.475 6.399-10.475a2.557 2.557 0 0 1 2.056 1.22 3.605 3.605 0 0 0 2.787 1.355c1.799 0 3.287-1.355 3.287-3.889a4.273 4.273 0 0 0-2.824-4.083 4.247 4.247 0 0 0-1.735-.24Zm34.145 22.684c-.636 0-1.028.461-1.678 1.098a12.577 12.577 0 0 1-9.55 4.526c-6.9 0-11.093-5.231-11.229-12.67h19.819c2.327 0 3.612-1.802 3.612-4.58 0-5.692-5.033-11.261-12.906-11.261-8.847 0-16.071 7.182-16.071 17.616 0 9.567 5.993 16.261 14.881 16.261a15.815 15.815 0 0 0 12.175-5.312 7.878 7.878 0 0 0 2.124-4.255c-.014-.894-.46-1.423-1.177-1.423Zm-12.392-19.784c4.978 0 7.941 3.428 7.941 6.992 0 1.748-.96 2.453-2.773 2.453l-15.043.19c.906-5.814 4.586-9.635 9.875-9.635Zm54.599 22.766c-1.42 0-3.734 2.845-7.738 2.845-3.422 0-4.518-1.937-4.518-5.881v-18.036h9.361c2.57 0 3.287-.461 3.287-1.884 0-1.422-1.163-1.68-3.287-1.68h-9.361v-4.065c0-1.288-.65-2.006-1.61-2.006-1.353 0-3.044 1.491-4.654 2.981-2.002 1.803-3.801 3.551-3.801 4.974 0 1.097.893 1.68 2.191 1.68h2.057v20.326c0 5.692 3.098 8.212 8.008 8.212 6.331 0 11.161-4.268 11.161-6.328a1.102 1.102 0 0 0-.667-1.051 1.09 1.09 0 0 0-.429-.087Zm18.845 7.954c9.686 0 17.302-6.775 17.302-17.074 0-9.703-6.845-16.749-16.396-16.749-10.065 0-17.289 6.992-17.289 17.074 0 9.703 6.71 16.749 16.383 16.749Zm1.691-3.239c-7.36 0-12.176-7.751-12.176-15.841 0-7.046 4.194-11.572 9.673-11.572 7.237 0 12.175 7.832 12.175 15.909 0 6.978-4.126 11.504-9.672 11.504Zm-169.668 41.29a11.052 11.052 0 0 0 6.764-10.082c0-5.501-3.869-11.504-15.368-11.504-2.57 0-7.481.257-9.673.257h-3.747c-4.518 0-7.427.447-7.427 2.06 0 1.355 1.556 1.626 5.412 1.748.649.393.838 3.035.838 7.507v23.335c0 5.23-.189 6.911-.838 7.371-3.869.122-5.412.448-5.412 1.749 0 1.612 2.976 1.992 7.495 1.992h3.287c2.192 0 7.17.271 10.822.271 11.364 0 17.235-5.949 17.235-13.199a11.624 11.624 0 0 0-2.617-7.453 11.588 11.588 0 0 0-6.771-4.052Zm-16.396-17.196a20.253 20.253 0 0 1 5.817-.705c9.158 0 10.971 4.648 10.971 8.592 0 5.501-3.747 8.347-8.847 8.347-3.031 0-5.804 0-8.523-.271v-8.984c0-3.998.068-6.329.582-7.033v.054Zm6.764 38.214a22.875 22.875 0 0 1-6.764-.786c-.447-.258-.514-3.103-.514-7.047v-10.339c2.705-.19 5.411-.258 7.616-.258 7.873 0 12.067 3.551 12.067 9.567-.068 5.461-3.68 8.808-12.459 8.808l.054.055Zm51.257-6.464c-.649 0-1.028.447-1.677 1.098a12.608 12.608 0 0 1-9.551 4.526c-6.913 0-11.106-5.245-11.228-12.671h19.805c2.327 0 3.612-1.815 3.612-4.593 0-5.692-5.033-11.248-12.906-11.248-8.834 0-16.071 7.169-16.071 17.617 0 9.567 6.006 16.261 14.881 16.261a15.814 15.814 0 0 0 12.175-5.299 7.99 7.99 0 0 0 2.137-4.268c-.067-.962-.527-1.477-1.231-1.477l.054.054Zm-12.391-19.785c4.964 0 7.941 3.429 7.941 6.979 0 1.748-.974 2.453-2.787 2.453l-15.03.203c.853-5.881 4.532-9.689 9.822-9.689l.054.054Zm48.186 26.56c-4.193-.84-4.261-3.36-4.261-7.304v-12.412c0-6.396-3.666-9.947-10.065-9.947-6.399 0-14.583 4.648-14.583 7.751a2.245 2.245 0 0 0 .705 1.655 2.23 2.23 0 0 0 1.689.608 4.576 4.576 0 0 0 3.734-2.33c2.259-2.643 4.586-4.459 7.238-4.459 5.411 0 5.478 5.556 5.478 8.402v3.754a34.877 34.877 0 0 0-7.426-.962c-8.32 0-13.677 4.065-13.677 10.149 0 5.231 4.058 9.174 10.457 9.174a12.57 12.57 0 0 0 10.822-5.881c.839 3.876 3.031 5.42 5.871 5.42 2.841 0 4.519-1.748 4.519-3.048-.095-.299-.23-.488-.555-.624l.054.054Zm-18.709.136c-4.058 0-6.453-2.521-6.453-6.071s2.895-6.206 8.388-6.206a17.558 17.558 0 0 1 6.764 1.287v1.938a8.8 8.8 0 0 1-5.354 8.301 8.764 8.764 0 0 1-3.399.697l.054.054Zm54.626-1.613c-.649-.46-.785-4.2-.785-7.697v-6.07c0-4.852.136-8.673.136-10.936 0-2.006-.393-2.9-2.07-2.9-2.76.118-5.491.615-8.117 1.477-.906.325-1.42.786-1.42 1.355 0 .908 1.028 1.68 4.775 1.816.704.515.839 4.716.839 7.887v5.488c-.582 7.764-5.29 10.732-9.47 10.732-5.411 0-7.034-3.74-7.034-9.946v-5.095c0-4.919.121-8.605.121-10.841 0-1.87-.378-2.9-2.069-2.9a28.85 28.85 0 0 0-7.806 1.477c-.906.325-1.353.786-1.353 1.355 0 .908 1.028 1.68 4.519 1.816.703.515.771 4.783.771 7.887v8.333c0 9.052 4.843 12.291 10.524 12.291a12.408 12.408 0 0 0 7.17-2.142 12.433 12.433 0 0 0 4.64-5.88c-.067 1.938-.067 3.496-.067 4.661 0 1.87.392 2.9 1.88 2.9a24.808 24.808 0 0 0 8.117-2.059c.96-.393 1.231-.908 1.231-1.491-.068-.799-.852-1.45-4.586-1.572l.054.054Zm29.166-2.33c-1.352 0-3.733 2.845-7.738 2.845-3.422 0-4.518-1.938-4.518-5.881v-18.09h9.361c2.584 0 3.288-.461 3.288-1.884 0-1.423-1.164-1.68-3.288-1.68h-9.361v-4.066c0-1.287-.649-1.992-1.61-1.992-1.353 0-3.044 1.477-4.653 2.968-2.003 1.816-3.802 3.55-3.802 4.973 0 1.111.907 1.681 2.192 1.681h2.07v20.326c0 5.678 3.097 8.131 7.995 8.131 6.331 0 11.174-4.255 11.174-6.329a1.116 1.116 0 0 0-.735-.993 1.116 1.116 0 0 0-.429-.064l.054.055Zm30.452-25.219c-4.397 0-7.292.718-7.292 2.209 0 1.098 1.353 1.355 4.519 1.545.324.976-.46 4.065-1.042 6.016-1.218 4.323-3.869 12.02-5.871 17.061-2.002-4.201-5.222-11.179-7.102-16.478-1.028-2.846-1.732-5.759-1.475-6.531 3.03-.136 4.383-.461 4.383-1.559 0-1.545-2.448-2.263-7.684-2.263-5.235 0-7.995.718-7.995 2.209 0 1.098 1.353 1.477 3.612 1.613.514.379.907 1.219 1.935 3.875 2.381 6.139 6.764 16.424 9.158 21.533 1.678 3.753 1.881 5.041 1.353 6.653-1.163 3.103-2.516 5.109-4.329 5.109a.808.808 0 0 1-.312-.046.803.803 0 0 1-.527-.727 9.642 9.642 0 0 0 0-1.422 3.289 3.289 0 0 0-3.422-3.429 3.808 3.808 0 0 0-2.735 1.234 3.836 3.836 0 0 0-.999 2.831c0 2.846 2.516 5.163 6.196 5.163 6.385 0 8.834-5.488 12.391-14.797 2.706-7.44 4.519-12.603 7.617-21.397.96-2.778 1.474-3.944 2.448-4.594 2.327-.19 3.545-.447 3.545-1.613 0-1.165-2.571-2.249-6.426-2.249l.054.054Zm22.091-3.604a13.817 13.817 0 0 0-7.684 2.351 13.861 13.861 0 0 0-5.085 6.231 13.89 13.89 0 0 0-.772 8.011 13.865 13.865 0 0 0 3.802 7.091 13.824 13.824 0 0 0 21.288-2.143 13.873 13.873 0 0 0 2.317-7.706 13.854 13.854 0 0 0-4.064-9.857 13.8 13.8 0 0 0-9.856-4.033l.054.055Zm0 25.462a11.57 11.57 0 0 1-6.442-1.933 11.603 11.603 0 0 1-4.963-11.895 11.609 11.609 0 0 1 3.152-5.95 11.58 11.58 0 0 1 5.922-3.192 11.558 11.558 0 0 1 6.694.642 11.587 11.587 0 0 1 5.209 4.26 11.613 11.613 0 0 1 1.967 6.441 11.621 11.621 0 0 1-3.41 8.186 11.582 11.582 0 0 1-8.183 3.387l.054.054Zm7.697-6.627h-.946c-.501 0-.88-.352-1.529-1.829-.649-1.477-1.177-2.71-2.706-3.117a4.063 4.063 0 0 0 2.922-3.753c0-2.087-1.583-3.862-5.235-3.862-1.136 0-2.476.095-3.206.095h-1.583c-1.474 0-2.462.203-2.462.799 0 .596.487.637 1.529.691.243.149.297 1.03.297 1.979v7.412c0 1.355 0 1.829-.351 1.978-.934.095-1.475.15-1.475.637 0 .488 1.136.841 3.247.841 2.11 0 3.503-.19 3.503-.841 0-.433-.432-.582-1.677-.637-.244-.094-.338-.935-.338-1.978v-2.71h2.015c1.353 0 1.84 1.355 2.327 2.71.596 1.68 1.231 3.456 3.558 3.456 1.353 0 2.408-.881 2.408-1.423-.013-.353-.162-.502-.352-.502l.054.054Zm-8.252-5.637a10.647 10.647 0 0 1-1.718-.149v-3.266a4.497 4.497 0 0 1 .19-1.829 6.956 6.956 0 0 1 1.731-.19 2.595 2.595 0 0 1 2.089.731 2.622 2.622 0 0 1 .779 2.074c-.054 1.532-1.041 2.575-3.125 2.575l.054.054Zm-274.469 16.6a50.01 50.01 0 0 1-35.567-14.264 50.177 50.177 0 0 1-15.081-35.278 50.186 50.186 0 0 1 14.239-35.628 50.014 50.014 0 0 1 35.219-15.107 2.881 2.881 0 0 1 3.133 2.807 2.88 2.88 0 0 1-1.844 2.761c-.367.142-.76.207-1.154.191a44.197 44.197 0 0 0-16.859 3.791 44.294 44.294 0 0 0-14.128 9.964 44.42 44.42 0 0 0 1.531 62.714 44.267 44.267 0 0 0 14.597 9.261 44.22 44.22 0 0 0 17.023 2.961 2.88 2.88 0 0 1 3.134 2.807 2.898 2.898 0 0 1-.861 2.127 2.87 2.87 0 0 1-2.137.825l-1.245.068Z"/>
	<path fill="#482C2E" d="M172.105 329.468a71.053 71.053 0 0 1-49.823-20.656 71.296 71.296 0 0 1-21.035-49.734 71.304 71.304 0 0 1 19.848-50.222 71.066 71.066 0 0 1 49.319-21.836 2.88 2.88 0 0 1 3.134 2.807 2.898 2.898 0 0 1-.861 2.127 2.877 2.877 0 0 1-2.138.825 65.314 65.314 0 0 0-45.528 20.412 65.538 65.538 0 0 0-17.9 46.637 65.53 65.53 0 0 0 20.152 45.707 65.307 65.307 0 0 0 46.469 18.16 2.826 2.826 0 0 1 2.056.785 2.846 2.846 0 0 1 .879 2.02 2.878 2.878 0 0 1-1.704 2.709 2.878 2.878 0 0 1-1.096.245l-1.772.014Z"/>
	<path fill="#482C2E" d="M129.478 337.626a2.89 2.89 0 0 1-1.352-.352 89.158 89.158 0 0 1-33.6-31.876 89.37 89.37 0 0 1-2.181-89.504 89.182 89.182 0 0 1 32.006-33.48 2.878 2.878 0 0 1 3.815 1.057 2.89 2.89 0 0 1-.839 3.875 83.443 83.443 0 0 0-29.938 31.321 83.615 83.615 0 0 0-10.22 42.137 83.602 83.602 0 0 0 12.253 41.589 83.405 83.405 0 0 0 31.423 29.826 2.885 2.885 0 0 1 1.416 3.234 2.888 2.888 0 0 1-2.769 2.187l-.014-.014Z"/>
	<path fill="#482C2E" d="M81.968 315.755a2.871 2.871 0 0 1-2.3-1.152 91.704 91.704 0 0 1-18.229-52.744 91.716 91.716 0 0 1 15.713-53.55 2.868 2.868 0 0 1 3.99-.772 2.881 2.881 0 0 1 .771 3.997 85.966 85.966 0 0 0-14.724 50.184 85.95 85.95 0 0 0 17.079 49.429 2.874 2.874 0 0 1 .193 3.224 2.878 2.878 0 0 1-.761.842 2.95 2.95 0 0 1-1.732.542Z"/>
</svg>
