<?xml version="1.0" ?>
<svg xmlns="http://www.w3.org/2000/svg" version="1.2" baseProfile="tiny-ps" viewBox="0 0 521 521" fill="none">
	<desc>Care/of Vitamins</desc>
	<rect width="521" height="521" fill="#E91D1D"/>
	<g>
		<path d="M142.193 341.248C102.501 341.248 74 310.044 74 271.078C74 232.111 103.097 201.057 142.491 201.057C171.141 201.057 200.387 220.316 207.848 248.832H180.243C172.782 233.305 160.546 223.899 142.64 223.899C115.184 223.899 98.9194 244.801 98.9194 271.078C98.9194 296.309 115.483 318.405 142.193 318.405C159.203 318.405 172.931 309.298 179.945 293.92H207.848C198 322.436 172.782 341.248 142.193 341.248Z" fill="#FBF5F0"/>
		<path d="M237.394 362H209.937L279.174 160H306.631L237.394 362Z" fill="#FBF5F0"/>
		<path d="M374.226 341.248C335.131 341.248 302.452 309.746 302.452 270.331C302.452 231.215 335.877 201.057 374.226 201.057C413.172 201.057 446 231.364 446 270.779C446 308.85 414.515 341.248 374.226 341.248ZM374.226 223.899C348.262 223.899 327.372 245.1 327.372 271.078C327.372 297.055 348.262 318.405 374.226 318.405C400.489 318.405 421.081 296.757 421.081 270.779C421.081 244.801 400.19 223.899 374.226 223.899Z" fill="#FBF5F0"/>
	</g>
</svg>