<?xml version="1.0" ?>
<svg xmlns="http://www.w3.org/2000/svg" version="1.2" viewBox="0 0 980 1545">
	<defs>
		<clipPath clipPathUnits="userSpaceOnUse" id="cp1">
			<path d="m-1168.75-1229.27h12282.64v17361.83h-12282.64z"/>
		</clipPath>
	</defs>
	<style>
		.s0 { fill: #00a4ac } 
	</style>
	<g id="Clip-Path: Page 1" clip-path="url(#cp1)">
		<g id="Page 1">
			<path id="Path 10" class="s0" d="m850.5 0.7c-17.5 0-33 3.1-48.5 11.3-44.3 23.8-59.8 57.8-48.4 100l59.8 189.7-206.3-76.2c-23.7-7.3-43.3-6.2-62.9 5.1-33 17.5-52.6 45.4-52.6 81.5 1.1 17.5 3.1 32.9 10.3 46.4 23.8 44.3 57.8 59.7 101.1 50.5l208.3-62.9-71.1 185.6c-8.3 21.6-5.2 42.2 6.2 64.9 19.5 35.1 46.4 54.7 83.5 54.7 17.5-1.1 33-3.1 43.3-9.3 42.3-22.7 62.9-65 53.6-102.1 0 0-45.3-157.7-53.6-184.5-8.3-27.9 0-57.8 0-57.8l65-176.3c7.2-23.7 4.1-45.3-8.3-67-17.5-33-45.4-52.6-79.4-53.6zm-727 287.6c-20.7 31-20.7 62.9-3.1 95.9 13.4 23.7 28.8 38.2 52.6 45.4l190.7 42.3-165 137.1c-30.9 27.8-35 73.2-14.4 110.3 7.2 13.4 18.6 24.7 32 34 30.9 20.6 64.9 19.6 97.9 2.1 19.6-11.4 34.1-26.8 40.3-47.4l47.4-213.5 128.9 155.7c24.8 28.9 72.2 34 110.4 14.5 15.4-8.3 25.7-19.6 36.1-34.1 17.5-28.8 16.5-62.9-2.1-97.9-11.4-22.7-27.9-36.1-50.5-41.3 0 0-163-39.1-186.7-45.3-22.7-5.2-45.4-32-45.4-32l-122.7-144.3c-26.8-28.9-75.3-34-112.4-13.4-13.4 7.2-24.8 18.5-34 31.9zm314.5 437.2c0 0-115.5 117.5-134.1 137.1-19.6 20.6-48.4 25.8-48.4 25.8l-186.7 35c-7.2 1.1-15.5 3.1-21.7 6.2-42.2 22.7-59.8 85.6-36.1 129.9 23.8 44.4 87.7 61.9 124.8 41.3 4.2-2.1 10.3-8.3 19.6-16.5l134.1-142.3 35.1 213.4c2 8.3 5.1 14.4 7.2 19.6 24.7 46.4 84.5 61.9 128.9 38.1 44.3-23.7 63.9-82.4 40.2-126.8q-1.5-3.1-12.4-18.5l-159.8-147.5 195.9-34c7.2-1 15.5-2 19.6-5.1 44.4-23.8 62.9-84.6 39.2-128.9-23.7-44.3-86.6-65-127.9-42.3-3.1 2.1-8.2 7.2-17.5 15.5zm203.2 167c-16.5 0-33 3.1-43.4 8.2q-73.2 39.2-54.6 106.2l53.6 184.6c0 0 6.2 34-1 54.6l-60.9 178.4c-7.2 23.7-5.1 44.3 7.3 67 17.5 33 44.3 50.5 76.3 52.6 17.5-1 33-3.1 48.4-11.4 46.5-24.7 63-56.7 51.6-98.9l-61.9-188.7 209.4 75.3q29.4 9.2 58.8-6.2c50.5-26.8 67-87.7 44.3-128.9-22.7-42.3-60.8-60.8-100-48.5l-211.4 61.9 72.2-183.5c7.2-23.7 4.1-45.4-7.3-67-20.6-38.2-46.4-54.7-81.4-55.7z"/>
		</g>
	</g>
</svg>