<?xml version="1.0" encoding="utf-8"?>
<!-- Generator: Adobe Illustrator 18.1.1, SVG Export Plug-In . SVG Version: 6.00 Build 0)  -->
<svg version="1.1" id="Layer_1" xmlns="http://www.w3.org/2000/svg" xmlns:xlink="http://www.w3.org/1999/xlink" x="0px" y="0px"
	 viewBox="-371.5 250.5 216.7 54" enable-background="new -371.5 250.5 216.7 54" xml:space="preserve">
<g id="Layer_1_1_">
	
		<g id="logo" xmlns:rdf="http://www.w3.org/1999/02/22-rdf-syntax-ns#" xmlns:dc="http://purl.org/dc/elements/1.1/" xmlns:svg="http://www.w3.org/2000/svg" xmlns:cc="http://creativecommons.org/ns#">
		<g id="layer1" transform="translate(0,-987.36218)">
			<g id="g111230" transform="translate(-85.740311,617.73898)">
				<g id="g166" transform="matrix(1.25,0,0,-1.25,-486.84702,2863.5283)">
					<g>
						<g>
							<g>
								<g>
									<defs>
										<path id="SVGID_1_" d="M174.3,1784.6c0,0-1.8-3.4-0.7-4.2l0,0c6-4.5,13.6-11.6,19.7-18l0,0c0.8-0.8,2-1.2,2.7-1.9l0,0
											l3.3,3.2c-0.1,0.1,0,0.3,0,0.3l0,0c-6.6,7.2-16.5,16.4-23.6,20.6l0,0c-0.2,0.1-0.5,0.2-0.8,0.2l0,0
											C174.7,1784.8,174.5,1784.7,174.3,1784.6"/>
									</defs>
									<clipPath id="SVGID_2_">
										<use xlink:href="#SVGID_1_"  overflow="visible"/>
									</clipPath>
									<g id="g168" clip-path="url(#SVGID_2_)">
										<g id="g174">
											<g id="g176">
												
													<linearGradient id="path188_1_" gradientUnits="userSpaceOnUse" x1="931.7784" y1="5373.0005" x2="932.7789" y2="5373.0005" gradientTransform="matrix(47.6158 -54.5103 -54.5103 -47.6158 248692.6562 308414.625)">
													<stop  offset="0" style="stop-color:#A8248B"/>
													<stop  offset="0.3632" style="stop-color:#B6509D"/>
													<stop  offset="0.3632" style="stop-color:#B6509D"/>
													<stop  offset="1" style="stop-color:#A8248B"/>
												</linearGradient>
												<path id="path188" fill="url(#path188_1_)" d="M174.3,1784.6c0,0-1.8-3.4-0.7-4.2l0,0c6-4.5,13.6-11.6,19.7-18l0,0
													c0.8-0.8,2-1.2,2.7-1.9l0,0l3.3,3.2c-0.1,0.1,0,0.3,0,0.3l0,0c-6.6,7.2-16.5,16.4-23.6,20.6l0,0
													c-0.2,0.1-0.5,0.2-0.8,0.2l0,0C174.7,1784.8,174.5,1784.7,174.3,1784.6"/>
											</g>
										</g>
									</g>
								</g>
							</g>
						</g>
					</g>
				</g>
				<g id="g190" transform="matrix(1.25,0,0,-1.25,-486.84702,2863.5283)">
					<g>
						<g>
							<g>
								<g>
									<defs>
										<path id="SVGID_3_" d="M200.9,1786.9c-7.4-9.1-19.6-23.2-25.3-29.3l0,0c-1.2-1.2-1.1-1.4-1.6-1.9l0,0l0.4-0.4l2.8-1
											c0.5-0.1,1,0.1,1.3,0.4l0,0c7.1,6.2,19.3,18.6,30.1,31.5l0,0l0,0c0,0-3.6,1.2-5.9,1.2l0,0
											C201.8,1787.4,201.2,1787.3,200.9,1786.9"/>
									</defs>
									<clipPath id="SVGID_4_">
										<use xlink:href="#SVGID_3_"  overflow="visible"/>
									</clipPath>
									<g id="g192" clip-path="url(#SVGID_4_)">
										<g id="g198">
											<g id="g200">
												
													<linearGradient id="path208_1_" gradientUnits="userSpaceOnUse" x1="918.7139" y1="5350.5264" x2="919.7152" y2="5350.5264" gradientTransform="matrix(-42.8956 -49.2305 -49.2305 42.8956 303016.1875 -182506.3281)">
													<stop  offset="0" style="stop-color:#AB298D"/>
													<stop  offset="1" style="stop-color:#C55FA3"/>
												</linearGradient>
												<path id="path208" fill="url(#path208_1_)" d="M200.9,1786.9c-7.4-9.1-19.6-23.2-25.3-29.3l0,0
													c-1.2-1.2-1.1-1.4-1.6-1.9l0,0l0.4-0.4l2.8-1c0.5-0.1,1,0.1,1.3,0.4l0,0c7.1,6.2,19.3,18.6,30.1,31.5l0,0l0,0
													c0,0-3.6,1.2-5.9,1.2l0,0C201.8,1787.4,201.2,1787.3,200.9,1786.9"/>
											</g>
										</g>
									</g>
								</g>
							</g>
						</g>
					</g>
				</g>
				<g id="g210" transform="matrix(1.25,0,0,-1.25,-486.84702,2863.5283)">
					<g>
						<g>
							<g>
								<g>
									<defs>
										<path id="SVGID_5_" d="M203.1,1790.4c-13.8-5.2-32.4-14.9-40.5-21l0,0c0,0,2.5-3.5,3.6-2.9l0,0
											c10.8,6,29.6,14.8,42.2,19.8l0,0l-3.6,3.7c-0.3,0.3-0.7,0.5-1.1,0.5l0,0C203.5,1790.6,203.3,1790.5,203.1,1790.4"/>
									</defs>
									<clipPath id="SVGID_6_">
										<use xlink:href="#SVGID_5_"  overflow="visible"/>
									</clipPath>
									<g id="g212" clip-path="url(#SVGID_6_)">
										<g id="g218">
											<g id="g220">
												
													<linearGradient id="path232_1_" gradientUnits="userSpaceOnUse" x1="915.0125" y1="5381.7427" x2="916.013" y2="5381.7427" gradientTransform="matrix(108.6261 49.5026 49.5026 -108.6261 -365637.6562 541073)">
													<stop  offset="0" style="stop-color:#A8248B"/>
													<stop  offset="0.5235" style="stop-color:#B6509D"/>
													<stop  offset="0.5235" style="stop-color:#B6509D"/>
													<stop  offset="1" style="stop-color:#B9358F"/>
												</linearGradient>
												<path id="path232" fill="url(#path232_1_)" d="M203.1,1790.4c-13.8-5.2-32.4-14.9-40.5-21l0,0c0,0,2.5-3.5,3.6-2.9l0,0
													c10.8,6,29.6,14.8,42.2,19.8l0,0l-3.6,3.7c-0.3,0.3-0.7,0.5-1.1,0.5l0,0C203.5,1790.6,203.3,1790.5,203.1,1790.4"/>
											</g>
										</g>
									</g>
								</g>
							</g>
						</g>
					</g>
				</g>
				<g id="g234" transform="matrix(1.25,0,0,-1.25,-486.84702,2863.5283)">
					<g>
						<g>
							<g>
								<g>
									<defs>
										<path id="SVGID_7_" d="M171.2,1783c-0.5-0.3-0.8-0.8-0.9-1.3l0,0c-0.4-6.6,1-19.5,2.4-25.6l0,0c0.1-0.6,0.6-1.1,1.3-1.2
											l0,0l3.9-0.7c0.1,0-0.1,0.1-0.1,0.1l0,0c-1.5,7.1-3.4,22.2-2.8,30.7l0,0l-0.1,0.1L171.2,1783L171.2,1783z"/>
									</defs>
									<clipPath id="SVGID_8_">
										<use xlink:href="#SVGID_7_"  overflow="visible"/>
									</clipPath>
									<g id="g236" clip-path="url(#SVGID_8_)">
										<g id="g242">
											<g id="g244">
												
													<linearGradient id="path252_1_" gradientUnits="userSpaceOnUse" x1="937.7896" y1="5356.5962" x2="938.7894" y2="5356.5962" gradientTransform="matrix(3.3646 -47.8524 -47.8524 -3.3646 253343.5 64680.2109)">
													<stop  offset="0" style="stop-color:#B6509D"/>
													<stop  offset="1" style="stop-color:#A8248B"/>
												</linearGradient>
												<path id="path252" fill="url(#path252_1_)" d="M171.2,1783c-0.5-0.3-0.8-0.8-0.9-1.3l0,0c-0.4-6.6,1-19.5,2.4-25.6l0,0
													c0.1-0.6,0.6-1.1,1.3-1.2l0,0l3.9-0.7c0.1,0-0.1,0.1-0.1,0.1l0,0c-1.5,7.1-3.4,22.2-2.8,30.7l0,0l-0.1,0.1L171.2,1783
													L171.2,1783z"/>
											</g>
										</g>
									</g>
								</g>
							</g>
						</g>
					</g>
				</g>
				<g id="g254" transform="matrix(1.25,0,0,-1.25,-486.84702,2863.5283)">
					<g>
						<g>
							<g>
								<g>
									<defs>
										<path id="SVGID_9_" d="M162.6,1769.5L162.6,1769.5l0.4-3.6c0.1-0.6,0.5-1.1,1.1-1.3l0,0c7.9-2.3,19.1-4.4,30.8-4.6l0,0
											c0.4,0,0.8,0.2,1.1,0.5l0,0l0.8,0.8c1,1,0.3,2.6-1.1,2.7l0,0C183.7,1764.4,171,1767.2,162.6,1769.5L162.6,1769.5z"/>
									</defs>
									<clipPath id="SVGID_10_">
										<use xlink:href="#SVGID_9_"  overflow="visible"/>
									</clipPath>
									<g id="g256" clip-path="url(#SVGID_10_)">
										<g id="g262">
											<g id="g264">
												
													<linearGradient id="path274_1_" gradientUnits="userSpaceOnUse" x1="925.1609" y1="5383.9302" x2="926.1596" y2="5383.9302" gradientTransform="matrix(74.7486 -10.6782 -10.6782 -74.7486 -11498.6865 414086.6875)">
													<stop  offset="0" style="stop-color:#BE4394"/>
													<stop  offset="0.3632" style="stop-color:#B6509D"/>
													<stop  offset="1" style="stop-color:#A8248B"/>
												</linearGradient>
												<path id="path274" fill="url(#path274_1_)" d="M162.6,1769.5L162.6,1769.5l0.4-3.6c0.1-0.6,0.5-1.1,1.1-1.3l0,0
													c7.9-2.3,19.1-4.4,30.8-4.6l0,0c0.4,0,0.8,0.2,1.1,0.5l0,0l0.8,0.8c1,1,0.3,2.6-1.1,2.7l0,0
													C183.7,1764.4,171,1767.2,162.6,1769.5L162.6,1769.5z"/>
											</g>
										</g>
									</g>
								</g>
							</g>
						</g>
					</g>
				</g>
				<g id="g276" transform="matrix(1.25,0,0,-1.25,-486.84702,2863.5283)">
					<g>
						<g>
							<g>
								<g>
									<defs>
										<path id="SVGID_11_" d="M177.2,1754.9c0.1-0.3,0.3-0.6,0.6-0.7l0,0c0.1,0,0.2-0.1,0.3-0.1l0,0c0.2,0,0.4,0.1,0.6,0.2l0,0
											c1.8,1.6,4.2,3.8,6.5,6.1l0,0l-0.7,0.1c-2.4-2.3-4.4-4.2-6.2-5.8l0,0c-0.1-0.1-0.2-0.1-0.4-0.1l0,0
											c-0.1,0-0.2,0.2-0.3,0.3l0,0c-0.4,1.9-0.8,4.2-1.1,6.7l0,0l-0.6,0.1C176.4,1759.3,176.8,1756.8,177.2,1754.9"/>
									</defs>
									<clipPath id="SVGID_12_">
										<use xlink:href="#SVGID_11_"  overflow="visible"/>
									</clipPath>
									<g id="g278" clip-path="url(#SVGID_12_)">
										<g id="g284">
											<g id="g286">
												
													<linearGradient id="path294_1_" gradientUnits="userSpaceOnUse" x1="862.6103" y1="5433.1387" x2="863.6086" y2="5433.1387" gradientTransform="matrix(5.0503 16.0574 16.0574 -5.0503 -91419.7734 15342.0039)">
													<stop  offset="0" style="stop-color:#D599C4"/>
													<stop  offset="1" style="stop-color:#B6509D"/>
												</linearGradient>
												<path id="path294" fill="url(#path294_1_)" d="M177.2,1754.9c0.1-0.3,0.3-0.6,0.6-0.7l0,0c0.1,0,0.2-0.1,0.3-0.1l0,0
													c0.2,0,0.4,0.1,0.6,0.2l0,0c1.8,1.6,4.2,3.8,6.5,6.1l0,0l-0.7,0.1c-2.4-2.3-4.4-4.2-6.2-5.8l0,0
													c-0.1-0.1-0.2-0.1-0.4-0.1l0,0c-0.1,0-0.2,0.2-0.3,0.3l0,0c-0.4,1.9-0.8,4.2-1.1,6.7l0,0l-0.6,0.1
													C176.4,1759.3,176.8,1756.8,177.2,1754.9"/>
											</g>
										</g>
									</g>
								</g>
							</g>
						</g>
					</g>
				</g>
				<g id="g296" transform="matrix(1.25,0,0,-1.25,-486.84702,2863.5283)">
					<g>
						<g>
							<g>
								<g>
									<defs>
										<path id="SVGID_13_" d="M174.9,1784.9c-0.3-0.2-0.5-0.4-0.5-0.8l0,0c-0.2-4.2,0.2-10.7,1-17.9l0,0l0.5,0.1
											c-0.8,7.2-1.2,13.6-1,17.8l0,0c0,0.1,0.1,0.3,0.2,0.3l0,0c0.1,0.1,0.3,0.1,0.4,0l0,0c1.7-1,3.5-2.3,5.6-3.9l0,0l0.5,0.3
											c-2.1,1.6-4.2,3.1-5.9,4.1l0,0c-0.1,0.1-0.3,0.1-0.5,0.1l0,0C175.2,1785.1,175.1,1785,174.9,1784.9"/>
									</defs>
									<clipPath id="SVGID_14_">
										<use xlink:href="#SVGID_13_"  overflow="visible"/>
									</clipPath>
									<g id="g298" clip-path="url(#SVGID_14_)">
										<g id="g304">
											<g id="g306">
												
													<linearGradient id="path314_1_" gradientUnits="userSpaceOnUse" x1="954.8912" y1="5433.2969" x2="955.8909" y2="5433.2969" gradientTransform="matrix(17.985 0 0 -17.985 -16999.3242 99493.5156)">
													<stop  offset="0" style="stop-color:#D599C4"/>
													<stop  offset="1" style="stop-color:#B6509D"/>
												</linearGradient>
												<path id="path314" fill="url(#path314_1_)" d="M174.9,1784.9c-0.3-0.2-0.5-0.4-0.5-0.8l0,0c-0.2-4.2,0.2-10.7,1-17.9
													l0,0l0.5,0.1c-0.8,7.2-1.2,13.6-1,17.8l0,0c0,0.1,0.1,0.3,0.2,0.3l0,0c0.1,0.1,0.3,0.1,0.4,0l0,0c1.7-1,3.5-2.3,5.6-3.9
													l0,0l0.5,0.3c-2.1,1.6-4.2,3.1-5.9,4.1l0,0c-0.1,0.1-0.3,0.1-0.5,0.1l0,0C175.2,1785.1,175.1,1785,174.9,1784.9"/>
											</g>
										</g>
									</g>
								</g>
							</g>
						</g>
					</g>
				</g>
				<g id="g316" transform="matrix(1.25,0,0,-1.25,-486.84702,2863.5283)">
					<g>
						<g>
							<g>
								<g>
									<defs>
										<rect id="SVGID_15_" x="-1160.6" y="-700.5" width="3355.3" height="3551.3"/>
									</defs>
									<clipPath id="SVGID_16_">
										<use xlink:href="#SVGID_15_"  overflow="visible"/>
									</clipPath>
									<g id="g318" clip-path="url(#SVGID_16_)">
										<g id="g324" transform="translate(497.238,1970.976)">
											<path id="path326" fill="#B6509D" d="M-307.6-197.5c-1.2,1.1-2.3,2-3.4,3l0.4,0.4c1.2-1,2.2-1.9,3.4-3L-307.6-197.5z"/>
										</g>
									</g>
								</g>
							</g>
						</g>
					</g>
				</g>
				<g id="g328" transform="matrix(1.25,0,0,-1.25,-486.84702,2863.5283)">
					<g>
						<g>
							<g>
								<g>
									<defs>
										<path id="SVGID_17_" d="M168.6,1773.8c-2.2-1.3-4.2-2.5-5.8-3.7l0,0c-0.2-0.2-0.3-0.4-0.3-0.7l0,0
											c0.1-0.3,0.3-0.5,0.5-0.6l0,0c3.4-0.9,7.9-1.9,12.6-2.8l0,0c8.6-1.6,16.4-2.5,23.2-2.6l0,0c0,0,0,0,0,0l0,0
											c0.3,0,0.5,0.2,0.7,0.4l0,0c0.1,0.3,0.1,0.6-0.1,0.8l0,0c-1.6,1.7-3.3,3.5-5.2,5.3l0,0l-0.4-0.4c1.9-1.8,3.6-3.6,5.2-5.3
											l0,0c0.1-0.1,0-0.2,0-0.2l0,0c0,0-0.1-0.1-0.2-0.1l0,0c-6.8,0.1-14.6,1-23.1,2.6l0,0c-4.7,0.9-9.1,1.9-12.5,2.8l0,0
											c-0.1,0-0.1,0.1-0.1,0.1l0,0c0,0,0,0.1,0.1,0.2l0,0c1.5,1.1,3.6,2.3,5.7,3.6l0,0c0.5,0.3,1.1,0.6,1.5,0.9l0,0l0,0.6
											C169.9,1774.6,169.1,1774.1,168.6,1773.8"/>
									</defs>
									<clipPath id="SVGID_18_">
										<use xlink:href="#SVGID_17_"  overflow="visible"/>
									</clipPath>
									<g id="g330" clip-path="url(#SVGID_18_)">
										<g id="g336">
											<g id="g338">
												
													<linearGradient id="path346_1_" gradientUnits="userSpaceOnUse" x1="921.5097" y1="5383.0186" x2="922.5086" y2="5383.0186" gradientTransform="matrix(90.415 0 0 -90.415 -83155.7344 488474.7812)">
													<stop  offset="0" style="stop-color:#D599C4"/>
													<stop  offset="1" style="stop-color:#B6509D"/>
												</linearGradient>
												<path id="path346" fill="url(#path346_1_)" d="M168.6,1773.8c-2.2-1.3-4.2-2.5-5.8-3.7l0,0c-0.2-0.2-0.3-0.4-0.3-0.7
													l0,0c0.1-0.3,0.3-0.5,0.5-0.6l0,0c3.4-0.9,7.9-1.9,12.6-2.8l0,0c8.6-1.6,16.4-2.5,23.2-2.6l0,0c0,0,0,0,0,0l0,0
													c0.3,0,0.5,0.2,0.7,0.4l0,0c0.1,0.3,0.1,0.6-0.1,0.8l0,0c-1.6,1.7-3.3,3.5-5.2,5.3l0,0l-0.4-0.4
													c1.9-1.8,3.6-3.6,5.2-5.3l0,0c0.1-0.1,0-0.2,0-0.2l0,0c0,0-0.1-0.1-0.2-0.1l0,0c-6.8,0.1-14.6,1-23.1,2.6l0,0
													c-4.7,0.9-9.1,1.9-12.5,2.8l0,0c-0.1,0-0.1,0.1-0.1,0.1l0,0c0,0,0,0.1,0.1,0.2l0,0c1.5,1.1,3.6,2.3,5.7,3.6l0,0
													c0.5,0.3,1.1,0.6,1.5,0.9l0,0l0,0.6C169.9,1774.6,169.1,1774.1,168.6,1773.8"/>
											</g>
										</g>
									</g>
								</g>
							</g>
						</g>
					</g>
				</g>
				<g id="g348" transform="matrix(1.25,0,0,-1.25,-486.84702,2863.5283)">
					<g>
						<g>
							<g>
								<g>
									<defs>
										<path id="SVGID_19_" d="M207.5,1786.5c-8.9-3.6-21.2-9.3-32-14.9l0,0l0.1-0.6c10.8,5.5,23.3,11.3,32.2,15l0,0
											c0.2,0.1,0.3,0,0.3-0.1l0,0c0,0,0.1-0.2,0-0.3l0,0c-5.7-6.8-12.5-14.2-19.3-21l0,0l0.7-0.1c6.8,6.8,13.3,13.9,19,20.7l0,0
											c0.2,0.3,0.3,0.7,0,1l0,0c-0.2,0.2-0.4,0.3-0.6,0.3l0,0C207.7,1786.6,207.6,1786.6,207.5,1786.5"/>
									</defs>
									<clipPath id="SVGID_20_">
										<use xlink:href="#SVGID_19_"  overflow="visible"/>
									</clipPath>
									<g id="g350" clip-path="url(#SVGID_20_)">
										<g id="g356">
											<g id="g358">
												
													<linearGradient id="path366_1_" gradientUnits="userSpaceOnUse" x1="922.4825" y1="5384.4858" x2="923.4812" y2="5384.4858" gradientTransform="matrix(80.922 0 0 -80.922 -74473.6875 437498.9688)">
													<stop  offset="0" style="stop-color:#D599C4"/>
													<stop  offset="1" style="stop-color:#BF5DA2"/>
												</linearGradient>
												<path id="path366" fill="url(#path366_1_)" d="M207.5,1786.5c-8.9-3.6-21.2-9.3-32-14.9l0,0l0.1-0.6
													c10.8,5.5,23.3,11.3,32.2,15l0,0c0.2,0.1,0.3,0,0.3-0.1l0,0c0,0,0.1-0.2,0-0.3l0,0c-5.7-6.8-12.5-14.2-19.3-21l0,0
													l0.7-0.1c6.8,6.8,13.3,13.9,19,20.7l0,0c0.2,0.3,0.3,0.7,0,1l0,0c-0.2,0.2-0.4,0.3-0.6,0.3l0,0
													C207.7,1786.6,207.6,1786.6,207.5,1786.5"/>
											</g>
										</g>
									</g>
								</g>
							</g>
						</g>
					</g>
				</g>
				<g id="g368" transform="matrix(1.25,0,0,-1.25,-486.84702,2863.5283)">
					<g>
						<g>
							<g>
								<g>
									<defs>
										<rect id="SVGID_21_" x="-1160.6" y="-700.5" width="3355.3" height="3551.3"/>
									</defs>
									<clipPath id="SVGID_22_">
										<use xlink:href="#SVGID_21_"  overflow="visible"/>
									</clipPath>
									<g id="g370" clip-path="url(#SVGID_22_)">
										<g id="g376" transform="translate(551.7153,1970.3967)">
											<path id="path378" fill="#AA218D" d="M-322.7-194.9c0,0-0.3,1.5-0.3,1.5c0,0.2-0.2,0.3-0.4,0.3c-0.3,0-1.6-0.5-3.5-0.5
												c-2.6,0-3,2.1-3,4.6c0,2.4,0.4,4.6,3,4.6c1.2,0,3-0.3,3.4-0.5c0.2-0.1,0.4,0.1,0.5,0.3c0,0,0.3,1.1,0.3,1.3
												c0.1,0.2-0.1,0.4-0.2,0.5c-1,0.4-2.7,0.7-4,0.7c-4.6,0-6.2-2.3-6.2-6.9c0-4.6,1.6-6.9,6.2-6.9c1.3,0,3,0.4,3.9,0.7
												C-322.8-195.2-322.7-195.1-322.7-194.9"/>
										</g>
										<g id="g380" transform="translate(566.5527,1972.4825)">
											<path id="path382" fill="#AA218D" d="M-326.8-195.5c-0.7-0.3-1.2-0.4-3-0.4c-1.6,0-2.2,0.9-2.2,2c0,1.4,0.4,1.7,1.6,2
												c1.4,0.3,1.9,0.4,3.6,0.6C-326.8-191.3-326.8-195.5-326.8-195.5z M-329.1-184.3c-1.6,0-3.7-0.4-5-0.8l0,0
												c-0.2-0.1-0.3-0.2-0.3-0.4c0,0,0-0.1,0-0.1l0.3-1.3c0-0.2,0.2-0.3,0.4-0.3c0,0,0.1,0,0.1,0c1.3,0.3,3.1,0.6,4.1,0.6
												c2.7,0,2.7-0.5,2.7-2.6c-2.2-0.3-3.5-0.6-5.2-0.9c-2.6-0.5-3.1-1.7-3.1-3.9c0-2.7,1.6-4.1,5.6-4.1c2.6,0,5.9,0.2,5.9,2.2
												v7.8C-323.7-185.4-324.9-184.3-329.1-184.3"/>
										</g>
										<g id="g384" transform="translate(625.0671,1972.4825)">
											<path id="path386" fill="#AA218D" d="M-343-195.5c-0.7-0.3-1.2-0.4-3-0.4c-1.6,0-2.2,0.9-2.2,2c0,1.4,0.4,1.7,1.6,2
												c1.4,0.3,1.9,0.4,3.6,0.6C-343-191.3-343-195.5-343-195.5z M-345.3-184.3c-1.6,0-3.7-0.4-5-0.8l0,0
												c-0.2-0.1-0.3-0.2-0.3-0.4c0,0,0-0.1,0-0.1l0.3-1.3c0-0.2,0.2-0.3,0.4-0.3c0,0,0.1,0,0.1,0c1.3,0.3,3.1,0.6,4.1,0.6
												c2.7,0,2.7-0.5,2.7-2.6c-2.2-0.3-3.5-0.6-5.2-0.9c-2.6-0.5-3.1-1.7-3.1-3.9c0-2.7,1.6-4.1,5.6-4.1c2.6,0,5.9,0.2,5.9,2.2
												v7.8C-339.9-185.4-341.1-184.3-345.3-184.3"/>
										</g>
										<g id="g388" transform="translate(591.2089,1987.5038)">
											<path id="path390" fill="#AA218D" d="M-333.6-199.6h-2.6c-0.2,0-0.3-0.1-0.4-0.3c0,0,0,0,0,0c-0.5-1.7-2.5-9.6-2.8-10.4
												c-0.1-0.2-0.3-0.2-0.3-0.2s-0.3,0-0.3,0.2c-0.2,0.8-2.3,8.6-2.8,10.4c0,0,0,0,0,0c0,0.2-0.2,0.3-0.4,0.3h-2.6
												c-0.2,0-0.4-0.2-0.4-0.4c0,0,0-0.1,0-0.1c0,0,0,0,0,0c0.6-2.1,3-9.9,3.7-12.3c0-0.1,0.2-0.3,0.5-0.3h2.3h2.3
												c0.2,0,0.4,0.2,0.5,0.3c0.8,2.5,3.1,10.3,3.7,12.3c0,0,0,0,0,0c0,0,0,0.1,0,0.1C-333.2-199.8-333.4-199.6-333.6-199.6"/>
										</g>
										<g id="g392" transform="translate(605.886,1979.3256)">
											<path id="path394" fill="#AA218D" d="M-337.7-197.4h-5.6c0,2,0,3.9,2.9,3.9C-337.5-193.5-337.7-195.6-337.7-197.4
												 M-340.3-191.2c-5.1,0-6.2-3-6.2-7.1c0-4.3,1.9-6.6,6.3-6.6c2.8,0,3.9,0.5,4.8,0.8c0.1,0.1,0.2,0.2,0.2,0.3
												c0,0-0.3,1.3-0.3,1.5c0,0.2-0.2,0.3-0.4,0.3c-0.3,0-1.6-0.6-3.7-0.6c-2.5,0-3.8,1.1-3.8,3.2h8.3c0.3,0,0.5,0.3,0.5,0.6
												v1.9C-334.6-194.7-335.2-191.2-340.3-191.2"/>
										</g>
									</g>
								</g>
							</g>
						</g>
					</g>
				</g>
			</g>
		</g>
	</g>
</g>
<g id="Layer_2_1_">
	<g>
		<path fill="#AA218D" d="M-298.6,288.7v-6.4h1.3l2.1,5.4c0.3-0.9,0.7-1.8,1-2.7c0.3-0.9,0.7-1.8,1-2.7h1.3v6.4h-0.8v-5.2
			c-0.3,0.9-0.7,1.7-1,2.6s-0.7,1.7-1,2.6h-1l-2-5.2v5.2L-298.6,288.7L-298.6,288.7z"/>
		<path fill="#AA218D" d="M-290.6,284.5c0-0.8,0.2-1.4,0.5-1.7c0.3-0.3,0.9-0.5,1.8-0.5h0.8c0.9,0,1.5,0.2,1.8,0.5v0
			c0.3,0.3,0.5,0.9,0.5,1.7v2.1c0,0.8-0.2,1.4-0.5,1.7c-0.3,0.3-0.9,0.5-1.8,0.5h-0.8c-0.9,0-1.5-0.2-1.8-0.5
			c-0.3-0.3-0.5-0.9-0.5-1.7V284.5z M-288.1,283.1c-0.2,0-0.4,0-0.5,0c-0.1,0-0.3,0-0.4,0c-0.2,0-0.3,0.1-0.4,0.2
			c-0.1,0.1-0.2,0.2-0.2,0.4c0,0.2-0.1,0.5-0.1,0.9v1.8c0,0.2,0,0.4,0,0.5c0,0.2,0,0.3,0.1,0.4c0,0.1,0.1,0.1,0.1,0.2
			c0,0.1,0.1,0.1,0.1,0.2c0.1,0.1,0.3,0.2,0.4,0.2c0.1,0,0.2,0,0.4,0.1s0.3,0,0.5,0h0.4c0.2,0,0.4,0,0.6,0s0.3,0,0.4-0.1
			c0.2,0,0.3-0.1,0.4-0.2c0.1-0.1,0.2-0.2,0.2-0.4c0-0.1,0-0.2,0.1-0.3c0-0.1,0-0.3,0-0.6v-1.8c0-0.2,0-0.4,0-0.6
			c0-0.1,0-0.3-0.1-0.4c0-0.2-0.1-0.3-0.2-0.4c-0.1,0-0.1-0.1-0.2-0.1c-0.1,0-0.1-0.1-0.2-0.1c-0.1,0-0.2,0-0.4,0
			c-0.2,0-0.3,0-0.6,0L-288.1,283.1L-288.1,283.1z"/>
		<path fill="#AA218D" d="M-284.7,282.3h0.9l1.9,5.4c0.3-0.9,0.6-1.8,1-2.7c0.3-0.9,0.6-1.8,1-2.7h0.9l-2.3,6.4h-1L-284.7,282.3z"/>
		<path fill="#AA218D" d="M-278.2,288.7v-6.4h0.9v6.4H-278.2z"/>
		<path fill="#AA218D" d="M-275.9,288.7v-6.4h4.5v0.8h-3.7v1.9h3.6v0.8h-3.6v2.1h3.7v0.8L-275.9,288.7L-275.9,288.7z"/>
		<path fill="#AA218D" d="M-270.5,286.5h0.9v0.2c0,0.2,0,0.3,0,0.5c0,0.1,0,0.2,0.1,0.3c0,0.1,0.1,0.3,0.2,0.3c0,0,0.1,0,0.2,0.1
			c0.1,0,0.2,0,0.2,0c0.1,0,0.3,0,0.5,0c0.2,0,0.5,0,0.8,0c0.3,0,0.6,0,0.8-0.1c0.2,0,0.3-0.1,0.4-0.2c0,0,0.1-0.1,0.1-0.3
			c0-0.1,0-0.3,0-0.5c0-0.4,0-0.7-0.1-0.8c-0.1-0.1-0.2-0.2-0.5-0.2l-1.9-0.1c-0.6,0-1-0.2-1.2-0.5c-0.1-0.1-0.2-0.3-0.3-0.5
			c-0.1-0.2-0.1-0.5-0.1-0.8c0-0.4,0-0.7,0.1-0.9c0.1-0.2,0.2-0.4,0.4-0.6c0.1-0.1,0.3-0.2,0.6-0.3c0.1,0,0.3,0,0.5-0.1
			c0.2,0,0.4,0,0.7,0h0.2c0.6,0,1.1,0,1.4,0.1c0.3,0.1,0.5,0.2,0.7,0.3c0.3,0.2,0.4,0.6,0.4,1.2c0,0.1,0,0.2,0,0.2
			c0,0.1,0,0.1,0,0.2h-0.8V284c0-0.2,0-0.4,0-0.5c0-0.1-0.1-0.2-0.1-0.2c-0.1-0.1-0.2-0.1-0.4-0.2c-0.2,0-0.6-0.1-1.2-0.1
			c-0.3,0-0.6,0-0.8,0s-0.3,0.1-0.4,0.1c-0.1,0.1-0.2,0.4-0.2,0.8c0,0.2,0,0.3,0,0.4c0,0.1,0.1,0.2,0.1,0.3v0c0,0.1,0.1,0.1,0.2,0.1
			c0.1,0,0.2,0.1,0.4,0.1l1.9,0.2c0.5,0,0.9,0.2,1.1,0.5c0.2,0.3,0.3,0.7,0.3,1.2c0,0.2,0,0.4,0,0.5c0,0.2,0,0.3-0.1,0.4
			c-0.1,0.2-0.2,0.4-0.3,0.5c-0.1,0.1-0.2,0.2-0.3,0.2c-0.1,0.1-0.2,0.1-0.4,0.2c-0.1,0-0.3,0.1-0.5,0.1c-0.2,0-0.5,0-0.9,0h-0.3
			c-0.3,0-0.5,0-0.7,0c-0.2,0-0.4,0-0.5-0.1c-0.1,0-0.2-0.1-0.3-0.1c-0.1-0.1-0.2-0.1-0.3-0.2h0c-0.2-0.1-0.3-0.3-0.4-0.6
			c-0.1-0.2-0.1-0.5-0.1-0.9C-270.5,286.9-270.5,286.5-270.5,286.5z"/>
		<path fill="#AA218D" d="M-261.1,288.7v-6.4h0.8v5.5h3.5v0.8L-261.1,288.7L-261.1,288.7z"/>
		<path fill="#AA218D" d="M-256,288.7v-6.4h0.9v6.4H-256z"/>
		<path fill="#AA218D" d="M-254.5,282.3h0.9l1.9,5.4c0.3-0.9,0.6-1.8,1-2.7c0.3-0.9,0.6-1.8,1-2.7h0.9l-2.3,6.4h-1L-254.5,282.3z"/>
		<path fill="#AA218D" d="M-248,288.7v-6.4h4.5v0.8h-3.7v1.9h3.6v0.8h-3.6v2.1h3.7v0.8L-248,288.7L-248,288.7z"/>
		<path fill="#AA218D" d="M-239.4,288.7v-6.4h0.8v2.7h3.4v-2.7h0.8v6.4h-0.8v-2.9h-3.4v2.9H-239.4z"/>
		<path fill="#AA218D" d="M-232.8,288.7v-6.4h4.5v0.8h-3.7v1.9h3.6v0.8h-3.6v2.1h3.7v0.8L-232.8,288.7L-232.8,288.7z"/>
		<path fill="#AA218D" d="M-227.2,288.7v-6.4h2.9c0.7,0,1.2,0.1,1.5,0.3c0.3,0.2,0.4,0.6,0.4,1.2v0.9c0,0.6-0.2,0.9-0.6,1.1
			c0.2,0.1,0.3,0.2,0.4,0.3c0.1,0.2,0.2,0.5,0.2,0.9v1.6h-0.9v-1.4c0-0.4-0.1-0.7-0.2-0.8c-0.1-0.1-0.4-0.2-0.8-0.2h-2.1v2.4
			L-227.2,288.7L-227.2,288.7z M-226.4,283.2v2.3h1.9c0.5,0,0.8-0.1,1-0.2c0.1-0.1,0.2-0.3,0.2-0.6v-0.7c0-0.3-0.1-0.5-0.2-0.6
			c-0.1-0.1-0.2-0.1-0.3-0.1c-0.2,0-0.4,0-0.6,0H-226.4z"/>
		<path fill="#AA218D" d="M-221.1,288.7v-6.4h4.5v0.8h-3.7v1.9h3.6v0.8h-3.6v2.1h3.7v0.8L-221.1,288.7L-221.1,288.7z"/>
	</g>
</g>
</svg>
