<?xml version="1.0" ?>
<svg xmlns="http://www.w3.org/2000/svg" viewBox="0 0 562 110" fill="none">
	<path fill-rule="evenodd" clip-rule="evenodd" d="M69.308 40.3291L60.1766 47.9909L50.7858 55.8709V52.2491V40.3291L1.58008 81.6182H15.7852L41.655 59.9109V63.5327V74.313L41.6514 75.4553L41.655 75.4527L49.9495 68.4928L50.7858 67.7909L60.1766 59.9109V67.0083V74.313H69.308H71.7431H72.0056H77.833C83.6051 74.313 87.9263 73.2673 90.7966 71.1868C93.6664 69.1063 95.1069 65.9694 95.1069 61.7764C95.1069 58.9061 94.36 56.5268 92.8554 54.6386C91.3621 52.7499 89.0785 51.3311 86.0273 50.3707C87.9155 49.5168 89.3669 48.3646 90.3588 46.9029C91.3512 45.4411 91.8418 43.3456 91.8418 41.4146C91.8418 37.7017 90.379 35.3075 87.4461 33.4167C84.5211 31.5306 80.1802 30.5894 74.4293 30.5894H71.7431H42.1083L33.3408 37.894H71.7431H72.016H74.9628C77.9018 37.894 78.2398 38.122 79.2131 38.9407C80.1921 39.7652 80.9447 41.3029 80.9447 42.989C80.9447 44.5149 80.555 45.8862 79.6401 46.7003C78.2941 47.8969 77.6816 48.0835 75.8084 48.0835H71.7431V55.3886H75.5815C78.5334 55.3886 79.5548 55.4605 81.228 56.6638C82.4969 57.5761 83.4516 59.5372 83.4516 61.4145C83.4516 62.9373 82.8799 64.3045 81.5272 65.5026C79.6706 67.1473 78.4838 67.0083 75.6456 67.0083H72.0056H71.7431H69.308V52.2491V40.3291V40.3291Z" fill="url(#paint0_radial)"/>
	<path d="M8.89565 62.1573C8.98249 62.6442 8.98921 63.1223 8.91581 63.5906C8.84241 64.0595 8.67391 64.49 8.41029 64.8829C8.14668 65.2752 7.77555 65.6163 7.29743 65.9058C6.81879 66.1958 6.21455 66.4056 5.48367 66.5359L5.25572 66.5767C4.55534 66.7018 3.93817 66.7101 3.40475 66.601C2.8708 66.4925 2.41387 66.2991 2.03447 66.0211C1.65508 65.7435 1.35218 65.3972 1.12475 64.9821C0.897319 64.567 0.740184 64.1163 0.653347 63.6294C0.56651 63.142 0.557723 62.6649 0.626986 62.1966C0.696766 61.7288 0.861653 61.2988 1.12113 60.907C1.38113 60.5152 1.74243 60.1756 2.20556 59.8887C2.6687 59.6018 3.25071 59.3961 3.95058 59.271L4.17904 59.2302C4.90992 59.0994 5.54932 59.0875 6.09877 59.1935C6.6477 59.2994 7.11394 59.4912 7.49695 59.7683C7.88048 60.0453 8.18751 60.3911 8.41856 60.8051C8.64961 61.2197 8.80882 61.6704 8.89565 62.1573V62.1573ZM7.68562 62.3734C7.63496 62.0917 7.53675 61.8265 7.39047 61.5779C7.24368 61.3292 7.04002 61.122 6.77848 60.9566C6.51745 60.7912 6.19284 60.6785 5.80518 60.618C5.41751 60.5581 4.9611 60.5746 4.43594 60.6681L4.20747 60.709C3.70557 60.7989 3.29206 60.9375 2.96849 61.1251C2.6444 61.3122 2.39268 61.5283 2.21228 61.7722C2.03189 62.0167 1.91662 62.2808 1.86493 62.5646C1.81376 62.8489 1.81325 63.1316 1.86338 63.4133C1.91507 63.7023 2.01431 63.9716 2.16059 64.2202C2.30739 64.4688 2.50743 64.6766 2.7607 64.8431C3.01449 65.01 3.32514 65.1232 3.69317 65.1832C4.06119 65.2431 4.49641 65.2281 4.99883 65.1387L5.22678 65.0979C5.75194 65.0038 6.18664 64.8637 6.52985 64.6766C6.87358 64.4895 7.13926 64.2734 7.32741 64.0279C7.51504 63.7819 7.63444 63.5172 7.68613 63.2335C7.7373 62.9492 7.73731 62.6623 7.68562 62.3734V62.3734ZM1.9342 56.6886L3.39492 56.6519L3.43317 58.1587L1.97245 58.1959L0.143178 56.9662L0.125604 56.2705L1.9342 56.6886ZM6.99815 54.9214L1.5243 50.1324L1.2028 54.3642L0 54.2732L0.448142 48.376L1.53516 48.4582L7.00953 53.2477L7.3486 48.7844L8.5514 48.8753L8.08517 55.0041L6.99815 54.9214V54.9214ZM0.822887 45.545L1.55273 42.3811C1.76001 41.4849 2.10374 40.8718 2.58444 40.5426C3.06463 40.2128 3.62546 40.1223 4.26588 40.2702C4.67216 40.3637 4.99625 40.5498 5.23763 40.8279C5.47902 41.1055 5.62116 41.4435 5.66407 41.8425C5.87754 41.3996 6.17578 41.0781 6.55932 40.877C6.94285 40.6759 7.39099 40.6341 7.90323 40.7524C8.23455 40.8289 8.52556 40.9519 8.77625 41.1205C9.02694 41.2895 9.22439 41.5076 9.36912 41.7754C9.51385 42.0426 9.60069 42.362 9.62963 42.7337C9.6591 43.1053 9.61723 43.5364 9.50403 44.0259L8.73232 47.3707L0.822887 45.545V45.545ZM8.29503 43.9018C8.43097 43.3141 8.42994 42.8872 8.29296 42.6215C8.15598 42.3558 7.89134 42.178 7.50005 42.0876C7.31139 42.0441 7.13616 42.0312 6.97334 42.0493C6.81052 42.0674 6.66424 42.1248 6.53451 42.2219C6.40528 42.3191 6.29105 42.4613 6.19233 42.6484C6.09308 42.836 6.00986 43.0769 5.94215 43.3705L5.51985 45.2008L7.87015 45.7435L8.29503 43.9018ZM4.81327 43.3121C4.93474 42.7848 4.92181 42.3951 4.77347 42.1429C4.62564 41.8901 4.3858 41.7257 4.05447 41.6492C3.7154 41.5712 3.43421 41.613 3.20988 41.7759C2.98607 41.9382 2.81239 42.2871 2.68885 42.8221L2.31101 44.4601L4.4349 44.9506L4.81327 43.3121V43.3121ZM3.12563 36.8112L5.12495 31.741L6.2466 32.1835L4.75796 35.9593L6.74281 36.7419L8.1043 33.2896L9.22594 33.732L7.86498 37.1844L10.0659 38.0517L11.5545 34.2763L12.6767 34.7183L10.6774 39.789L3.12563 36.8112V36.8112ZM6.46369 29.1958L7.15736 27.9894L10.5151 29.9205L8.86826 25.0142L9.70096 23.5664L11.0614 27.8535L16.8537 27.4115L16.0096 28.879L11.4336 29.1374L11.9329 30.7351L14.1948 32.0356L13.5011 33.242L6.46369 29.1958V29.1958ZM11.5483 21.366L12.4079 20.2718L18.7905 25.2876L17.9309 26.3814L11.5483 21.366V21.366ZM22.1931 21.7356C21.8127 22.0984 21.4426 22.3708 21.0823 22.5538C20.7226 22.7368 20.3773 22.8417 20.0455 22.8696C19.7141 22.897 19.4009 22.8567 19.1052 22.7487C18.8101 22.6407 18.5336 22.4737 18.2767 22.2489L19.2836 21.289C19.418 21.3851 19.557 21.4554 19.7012 21.4999C19.8449 21.5443 20.002 21.5547 20.1721 21.5314C20.3422 21.5082 20.5225 21.4425 20.7138 21.335C20.905 21.2275 21.1154 21.0647 21.3449 20.846C21.5796 20.6217 21.76 20.4103 21.8851 20.2108C22.0101 20.0112 22.0908 19.8272 22.1275 19.6587C22.1647 19.4902 22.16 19.3341 22.114 19.1909C22.0686 19.0478 21.9921 18.9201 21.8856 18.8079C21.624 18.534 21.2994 18.4482 20.9112 18.551C20.5236 18.6539 20.0077 18.9056 19.3637 19.3057C18.9977 19.5269 18.653 19.7032 18.3299 19.8345C18.0068 19.9663 17.7019 20.0386 17.4145 20.051C17.1271 20.0629 16.8506 20.0112 16.5854 19.8955C16.3202 19.7802 16.0597 19.5879 15.8039 19.3191C15.5956 19.101 15.4446 18.8498 15.35 18.566C15.2554 18.2823 15.2286 17.9819 15.2689 17.6661C15.3092 17.3498 15.4224 17.0231 15.608 16.6856C15.794 16.3486 16.0628 16.0116 16.4153 15.6756C16.757 15.3499 17.0935 15.1039 17.4253 14.9369C17.7577 14.77 18.0797 14.6739 18.3919 14.6485C18.7046 14.6232 19.0029 14.6614 19.2877 14.7638C19.572 14.8667 19.8377 15.0248 20.0842 15.2383L19.0768 16.1987C18.8292 16.0286 18.5522 15.9645 18.2451 16.0064C17.9376 16.0483 17.6104 16.2343 17.2636 16.5651C16.8609 16.9492 16.6381 17.2955 16.5952 17.6036C16.5523 17.9111 16.6242 18.1634 16.8108 18.3588C17.0666 18.6275 17.3711 18.7221 17.7226 18.643C18.0746 18.564 18.5279 18.3505 19.083 18.0031C19.4939 17.7504 19.8744 17.5478 20.2253 17.3948C20.5763 17.2418 20.9066 17.1539 21.2162 17.1311C21.5253 17.1084 21.8168 17.1539 22.0903 17.2671C22.3637 17.3803 22.6315 17.5736 22.8925 17.8481C23.122 18.0884 23.2879 18.3577 23.3902 18.6554C23.4926 18.9532 23.5189 19.2695 23.4698 19.6045C23.4213 19.9399 23.2926 20.2867 23.0842 20.6455C22.8759 21.0042 22.5792 21.3676 22.1931 21.7356V21.7356ZM22.8232 11.9007L20.6021 13.4798L19.9033 12.4972L25.4795 8.53218L26.1783 9.51479L23.9573 11.0944L27.9626 16.7269L26.8286 17.5333L22.8232 11.9007V11.9007ZM33.6613 13.4008C33.2209 13.6266 32.7661 13.7729 32.2962 13.8396C31.8269 13.9063 31.3658 13.8711 30.913 13.7336C30.4608 13.5961 30.0261 13.3413 29.6089 12.9681C29.1923 12.5954 28.8145 12.0786 28.4764 11.418L28.3705 11.2117C28.0464 10.5785 27.8582 9.99084 27.8065 9.44863C27.7543 8.90641 27.806 8.4133 27.9606 7.96929C28.1151 7.52528 28.3581 7.13348 28.6884 6.79492C29.0186 6.45636 29.4037 6.17465 29.8446 5.94877C30.2845 5.72341 30.7388 5.57558 31.2066 5.50528C31.6744 5.43499 32.1339 5.46703 32.5847 5.60091C33.0354 5.73478 33.4654 5.98134 33.8753 6.34006C34.2852 6.6993 34.6522 7.19551 34.9763 7.82818L35.0823 8.03494C35.4203 8.69552 35.6188 9.3039 35.6782 9.86007C35.7372 10.4157 35.6901 10.9176 35.5371 11.3652C35.3841 11.8129 35.1433 12.2078 34.8145 12.5494C34.4863 12.8916 34.1017 13.1754 33.6613 13.4008V13.4008ZM33.101 12.307C33.3553 12.1762 33.5802 12.0046 33.775 11.7922C33.9704 11.5792 34.1084 11.3239 34.1906 11.0257C34.2723 10.7274 34.2852 10.3842 34.2299 9.99601C34.1741 9.60731 34.0247 9.17571 33.7818 8.70121L33.6758 8.49445C33.4432 8.04062 33.1899 7.68604 32.916 7.43121C32.642 7.17587 32.3619 6.99806 32.076 6.89726C31.7897 6.79595 31.5033 6.76287 31.2165 6.79647C30.9301 6.83059 30.6592 6.91277 30.4049 7.04303C30.1434 7.1769 29.9149 7.35058 29.7201 7.56302C29.5252 7.77598 29.3846 8.0277 29.2993 8.31922C29.214 8.61023 29.1965 8.94104 29.2471 9.3101C29.2972 9.67968 29.4384 10.0916 29.671 10.5455L29.7769 10.7522C30.0199 11.2267 30.2814 11.6015 30.5605 11.8749C30.8396 12.1489 31.1244 12.3401 31.4139 12.4476C31.7039 12.5556 31.9918 12.5923 32.2787 12.5587C32.565 12.5246 32.8395 12.4409 33.101 12.307V12.307ZM35.9827 3.20616L37.277 2.83865L42.6981 7.32628L41.1144 1.74905L42.4526 1.36862L44.67 9.17726L43.3763 9.54477L37.9551 5.05714L39.5389 10.6349L38.2001 11.0148L35.9827 3.20616V3.20616ZM49.9873 0.0795037L53.0591 0.00197039C53.5693 -0.0109518 54.0169 0.0397033 54.4025 0.153419C54.7886 0.267651 55.1117 0.433572 55.3722 0.651182C55.6332 0.868793 55.8333 1.13034 55.9723 1.43634C56.1114 1.74233 56.1858 2.08038 56.1951 2.45151C56.2091 3.00768 56.0705 3.49304 55.7795 3.90603C55.4885 4.31954 55.0435 4.62295 54.4454 4.81575L56.5683 8.03339L55.0378 8.07215L53.1625 5.01062L51.5048 5.05249L51.5834 8.15951L50.1925 8.19465L49.9873 0.0795037V0.0795037ZM52.9247 3.85641C53.6355 3.83883 54.1291 3.71013 54.4056 3.47133C54.6816 3.23201 54.8145 2.90378 54.8041 2.48665C54.7933 2.06952 54.6439 1.74802 54.356 1.52369C54.0681 1.29884 53.5688 1.19547 52.8575 1.21356L51.4087 1.25026L51.4754 3.89311L52.9247 3.85641V3.85641ZM59.5306 0.0857063L64.9372 0.773168L64.7853 1.96925L60.7592 1.45753L60.4899 3.57419L64.1712 4.04197L64.0192 5.23857L60.338 4.77078L60.0397 7.11746L64.0663 7.62918L63.9143 8.82578L58.5071 8.13831L59.5306 0.0857063V0.0857063ZM68.1487 10.0622C67.6431 9.91848 67.2203 9.73808 66.8802 9.52099C66.5396 9.3039 66.2734 9.05941 66.0816 8.78804C65.8893 8.51668 65.7648 8.22618 65.7084 7.91657C65.6516 7.60695 65.6547 7.28441 65.7177 6.94895L67.0565 7.32887C67.042 7.49375 67.0518 7.64934 67.0865 7.79562C67.1216 7.94241 67.1919 8.08301 67.2984 8.2174C67.4049 8.35231 67.5527 8.47429 67.7424 8.58491C67.9326 8.695 68.1797 8.79321 68.4846 8.87953C68.7968 8.96844 69.0708 9.01599 69.306 9.02271C69.5412 9.02891 69.7407 9.00565 69.9045 8.95138C70.0689 8.89762 70.2007 8.8144 70.301 8.70224C70.4013 8.59007 70.4726 8.45982 70.5145 8.31095C70.6178 7.94655 70.5269 7.62349 70.2415 7.34127C69.9557 7.05957 69.4771 6.74271 68.8056 6.39123C68.4293 6.18809 68.1021 5.9803 67.8251 5.7689C67.5475 5.55749 67.3304 5.33109 67.1738 5.09022C67.0172 4.84883 66.9216 4.58419 66.8864 4.29731C66.8518 4.00992 66.8849 3.6879 66.9862 3.33073C67.0684 3.04076 67.2079 2.78335 67.4049 2.55798C67.6013 2.3321 67.8463 2.15688 68.1388 2.03076C68.4319 1.90515 68.771 1.83641 69.1556 1.82555C69.5406 1.81418 69.9676 1.87517 70.4359 2.00801C70.8897 2.13672 71.2727 2.30212 71.5849 2.50319C71.8977 2.70426 72.1442 2.93325 72.3246 3.18911C72.505 3.44548 72.6234 3.72202 72.6797 4.01923C72.7355 4.31644 72.7345 4.62554 72.6756 4.94653L71.3368 4.56661C71.3575 4.26682 71.2717 3.99545 71.0799 3.752C70.8877 3.50854 70.5615 3.32143 70.0999 3.19066C69.5649 3.03869 69.1535 3.02215 68.8661 3.14155C68.5792 3.26095 68.3988 3.45065 68.3249 3.71116C68.2236 4.06833 68.296 4.37795 68.543 4.64105C68.7896 4.90414 69.2041 5.18636 69.7851 5.48771C70.2116 5.71359 70.5796 5.93844 70.8892 6.16328C71.1993 6.38761 71.4428 6.62745 71.6196 6.88279C71.7958 7.13762 71.9049 7.41209 71.9462 7.70516C71.9876 7.99824 71.9566 8.32698 71.8532 8.69087C71.7622 9.01082 71.6149 9.29046 71.4102 9.52978C71.2055 9.7691 70.9466 9.95259 70.6328 10.0803C70.3191 10.2085 69.9552 10.2736 69.5406 10.2767C69.1261 10.2793 68.6619 10.2079 68.1487 10.0622ZM76.0834 4.09056L78.778 5.30887C79.7714 5.75804 80.4077 6.30233 80.6868 6.94172C80.9665 7.58111 80.9437 8.2603 80.6186 8.97877C80.294 9.69725 79.7993 10.163 79.1346 10.3759C78.4699 10.5889 77.6408 10.4705 76.6473 10.0213L75.2212 9.37678L74.0076 12.0605L72.7397 11.4872L76.0834 4.09056V4.09056ZM77.0386 8.87488C77.37 9.02478 77.6599 9.12402 77.9091 9.17312C78.1587 9.22223 78.3732 9.22585 78.5531 9.18398C78.7335 9.14263 78.8875 9.05527 79.0152 8.92243C79.1434 8.78908 79.255 8.61695 79.3507 8.40554C79.4463 8.19414 79.5011 7.99824 79.5145 7.81784C79.5285 7.63745 79.4923 7.46429 79.406 7.29785C79.3202 7.13193 79.176 6.97118 78.9744 6.81663C78.7733 6.66208 78.5066 6.5096 78.1758 6.36022L76.8546 5.76269L75.718 8.27787L77.0386 8.87488V8.87488ZM82.1326 16.8303C81.7232 16.5388 81.3919 16.2178 81.1386 15.8668C80.8853 15.5164 80.7225 15.1442 80.6506 14.7519C80.5788 14.3591 80.6021 13.9466 80.7204 13.5134C80.8383 13.0803 81.0631 12.6311 81.395 12.1649L84.2172 8.19569L85.3517 9.00203L82.5761 12.9051C82.1326 13.5289 81.9387 14.081 81.9951 14.5622C82.0514 15.0434 82.3347 15.4657 82.8448 15.8286C83.3617 16.1956 83.8548 16.3258 84.3247 16.2188C84.7945 16.1118 85.2489 15.7495 85.6877 15.1323L88.4701 11.2195L89.6042 12.0263L86.7815 15.9955C86.4501 16.4618 86.0992 16.8215 85.7291 17.0753C85.359 17.3291 84.9765 17.4862 84.5821 17.5478C84.1877 17.6087 83.7835 17.5772 83.369 17.4532C82.9544 17.3291 82.5419 17.1213 82.1326 16.8303V16.8303ZM91.6604 13.8551L94.0107 16.0958C94.6764 16.7306 95.0284 17.3389 95.0672 17.9204C95.1054 18.5019 94.8982 19.0302 94.4443 19.5057C94.1564 19.8081 93.8313 19.9921 93.4695 20.0583C93.1071 20.1244 92.7438 20.0743 92.3788 19.9079C92.6512 20.3167 92.7758 20.738 92.7536 21.1701C92.7308 21.6027 92.5386 22.009 92.1757 22.39C91.941 22.636 91.6872 22.8236 91.4138 22.9534C91.1409 23.0831 90.8525 23.1415 90.5485 23.1296C90.2451 23.1177 89.9257 23.0299 89.5907 22.8655C89.2563 22.7016 88.9069 22.4458 88.5435 22.099L86.0588 19.7306L91.6604 13.8551V13.8551ZM89.2667 21.122C89.7029 21.5381 90.0704 21.7552 90.3687 21.7728C90.6674 21.7899 90.9553 21.6534 91.2324 21.3624C91.3657 21.2223 91.4665 21.0781 91.5337 20.9287C91.6014 20.7793 91.6263 20.6243 91.6087 20.4635C91.5911 20.3028 91.527 20.1317 91.4164 19.9513C91.3053 19.7709 91.1409 19.5765 90.9223 19.3682L89.5628 18.0719L87.8985 19.8179L89.2667 21.122ZM91.5482 18.4265C91.9395 18.8002 92.2817 18.9873 92.5742 18.9888C92.8668 18.9899 93.1304 18.8674 93.3651 18.6213C93.6054 18.3696 93.7124 18.106 93.6871 17.8305C93.6612 17.5545 93.4498 17.2273 93.0523 16.8489L91.8356 15.6885L90.3309 17.2666L91.5482 18.4265V18.4265ZM98.2135 20.7214L99.0198 21.8555L93.3873 25.8609L95.6725 29.0738L94.6893 29.7732L91.5983 25.4257L98.2135 20.7214ZM102.548 27.182L103.242 28.3885L96.2043 32.4347L95.5112 31.2282L102.548 27.182V27.182ZM104.743 30.9739L105.253 32.2682L101.65 33.6891L106.512 35.4616L107.125 37.0153L102.925 35.4052L99.6582 40.2081L99.0369 38.6332L101.689 34.895L100.129 34.2887L97.7012 35.246L97.1911 33.9512L104.743 30.9739V30.9739ZM102.933 45.7011L102.192 42.4918L100.253 42.2375L99.9399 40.8811L108.54 42.0503L108.854 43.4061L101.635 48.2261L101.301 46.7799L102.933 45.7011V45.7011ZM103.469 42.6613L104.006 44.9889L106.994 43.0851L103.469 42.6613V42.6613ZM101.711 51.7668C101.67 51.2427 101.694 50.7837 101.78 50.3893C101.866 49.9949 102.004 49.661 102.192 49.3871C102.381 49.1126 102.611 48.8955 102.882 48.7353C103.152 48.5755 103.456 48.467 103.793 48.4101L103.898 49.798C103.739 49.8409 103.596 49.9039 103.471 49.9872C103.345 50.0704 103.238 50.1856 103.148 50.3319C103.058 50.4782 102.995 50.6596 102.957 50.8752C102.919 51.0918 102.912 51.3574 102.936 51.6738C102.961 51.9973 103.011 52.2708 103.086 52.4941C103.161 52.7169 103.252 52.8962 103.359 53.0311C103.467 53.1665 103.59 53.2617 103.73 53.317C103.87 53.3723 104.017 53.394 104.171 53.3826C104.548 53.3537 104.82 53.1567 104.987 52.7913C105.153 52.4258 105.285 51.8671 105.383 51.1155C105.444 50.6922 105.525 50.3138 105.628 49.9804C105.73 49.6471 105.868 49.3653 106.04 49.1348C106.213 48.9048 106.428 48.7239 106.685 48.5916C106.943 48.4598 107.256 48.3796 107.627 48.3517C107.927 48.3285 108.217 48.3703 108.496 48.4773C108.776 48.5838 109.025 48.7528 109.244 48.9844C109.464 49.216 109.645 49.5101 109.789 49.8678C109.932 50.2249 110.022 50.6467 110.059 51.1321C110.095 51.6024 110.072 52.019 109.991 52.3819C109.91 52.7442 109.781 53.0549 109.603 53.3128C109.424 53.5702 109.206 53.777 108.946 53.9326C108.687 54.0876 108.396 54.1931 108.075 54.2484L107.969 52.8611C108.258 52.7773 108.483 52.6031 108.645 52.3385C108.807 52.0744 108.87 51.7032 108.833 51.2256C108.791 50.6705 108.664 50.2787 108.453 50.0507C108.242 49.8223 108.002 49.7184 107.732 49.7391C107.362 49.767 107.096 49.9427 106.934 50.2647C106.773 50.5873 106.651 51.0731 106.568 51.7234C106.504 52.201 106.42 52.6243 106.316 52.9924C106.212 53.3609 106.071 53.6721 105.893 53.9259C105.715 54.1802 105.495 54.3771 105.234 54.5172C104.973 54.6567 104.654 54.7415 104.277 54.7699C103.945 54.7953 103.632 54.7534 103.336 54.6438C103.041 54.5342 102.78 54.3549 102.551 54.1047C102.323 53.8545 102.136 53.5351 101.99 53.1469C101.844 52.7587 101.751 52.2987 101.711 51.7668V51.7668ZM110.036 56.5992L110.001 57.9907L101.886 57.7855L101.921 56.394L110.036 56.5992Z" fill="#E4A216"/>
	<path d="M19.1274 85.0323L20.1193 86.0733L18.4208 91.2654L23.6885 89.8166L24.6483 90.8235L18.7734 96.425L17.813 95.4176L21.9259 91.497L17.5499 92.7049L16.9095 92.033L18.3247 87.7201L14.2123 91.6407L13.252 90.6338L19.1274 85.0323V85.0323ZM26.1597 99.5036L23.4755 97.5947L21.8561 98.6915L20.722 97.8847L27.9311 93.0507L29.0651 93.8571L26.8652 102.253L25.6552 101.393L26.1597 99.5036ZM24.5434 96.8742L26.49 98.2584L27.4617 94.8511L24.5434 96.8742ZM32.3412 96.0229L35.1412 97.2887C35.6064 97.4986 35.9878 97.7389 36.2855 98.0093C36.5833 98.2796 36.8019 98.5696 36.942 98.8792C37.0821 99.1883 37.1487 99.5108 37.141 99.8468C37.1332 100.183 37.0531 100.52 36.9001 100.858C36.6706 101.365 36.3352 101.742 35.8932 101.987C35.4513 102.233 34.9189 102.312 34.2966 102.226L34.8088 106.047L33.4142 105.416L33.0565 101.844L31.5457 101.161L30.2653 103.993L28.9974 103.42L32.3412 96.0229ZM33.3439 100.701C33.9921 100.994 34.4925 101.093 34.845 100.998C35.198 100.903 35.4601 100.665 35.6322 100.285C35.8043 99.9042 35.8095 99.5506 35.6477 99.2229C35.4859 98.8952 35.0812 98.5851 34.433 98.292L33.1124 97.695L32.0233 100.104L33.3439 100.701V100.701ZM39.6159 99.2022L40.9546 99.5827L39.8965 103.308L44.2565 100.52L45.863 100.976L42.0344 103.337L43.8688 108.848L42.2401 108.386L40.8791 104.009L39.4499 104.881L38.7377 107.391L37.3989 107.011L39.6159 99.2022V99.2022ZM51.2247 107.878L47.9409 107.628L47.12 109.403L45.7322 109.298L49.4119 101.436L50.7993 101.542L53.2483 109.869L51.7684 109.757L51.2247 107.878V107.878ZM48.4836 106.46L50.8654 106.641L49.9392 103.221L48.4836 106.46V106.46ZM55.1205 108.913L59.0271 102.778L54.7948 103.1L54.7033 101.897L60.6005 101.449L60.6832 102.536L56.7771 108.671L61.2404 108.331L61.3319 109.534L55.2032 110L55.1205 108.913V108.913ZM62.6898 101.122L64.0595 100.877L65.4867 108.869L64.1169 109.114L62.6898 101.122V101.122ZM69.9262 104.596L65.3621 100.876L66.9215 100.348L70.1609 103.047L70.9419 98.9877L72.3918 98.4972L71.2443 104.15L72.2476 107.116L70.9295 107.562L69.9262 104.596ZM76.0917 96.8478L78.9061 95.2294C79.7037 94.7709 80.387 94.6055 80.9551 94.7332C81.5236 94.8614 81.9718 95.2103 82.2995 95.7799C82.5073 96.1417 82.592 96.5056 82.5528 96.8716C82.5135 97.2375 82.362 97.572 82.0995 97.8744C82.5688 97.7296 83.0076 97.7291 83.416 97.8733C83.8243 98.0175 84.1598 98.3173 84.4218 98.7732C84.5914 99.0678 84.6994 99.3645 84.7464 99.6633C84.7935 99.9621 84.7676 100.255 84.6705 100.543C84.5728 100.831 84.3981 101.112 84.1453 101.387C83.8931 101.661 83.5488 101.924 83.1136 102.174L80.1379 103.885L76.0917 96.8478V96.8478ZM82.3817 101.204C82.9043 100.903 83.2165 100.612 83.3178 100.331C83.4191 100.049 83.3695 99.7346 83.1694 99.3862C83.0728 99.2188 82.9627 99.0813 82.8386 98.9743C82.7146 98.8673 82.5729 98.7996 82.4137 98.7706C82.2545 98.7417 82.0726 98.7551 81.8679 98.8099C81.6637 98.8652 81.4306 98.9681 81.1691 99.1185L79.5403 100.055L80.7431 102.146L82.3817 101.204V101.204ZM80.4433 98.2517C80.9127 97.9819 81.1892 97.7069 81.2735 97.4267C81.3572 97.1466 81.3148 96.8587 81.1448 96.564C80.9716 96.2622 80.7493 96.0849 80.4775 96.0316C80.2061 95.9779 79.8324 96.088 79.3568 96.3614L77.8987 97.1998L78.9857 99.0896L80.4433 98.2517V98.2517ZM89.9686 95.0356L87.379 97.0706L87.9729 98.934L86.8786 99.7936L84.2797 91.5125L85.3734 90.6524L92.8058 95.1364L91.6386 96.0534L89.9686 95.0356V95.0356ZM86.9892 95.843L88.8676 94.3667L85.8738 92.4718L86.9892 95.843V95.843ZM88.0597 88.3409L88.9405 87.3241L95.935 88.1052L91.5523 84.3091L92.4636 83.2573L98.5991 88.5719L97.7183 89.5886L90.7237 88.8076L95.1064 92.6042L94.1952 93.6555L88.0597 88.3409ZM93.5651 81.9066L94.2587 80.7002L97.6165 82.6313L95.9696 77.7245L96.8018 76.2772L98.1628 80.5643L103.955 80.1223L103.111 81.5898L98.5344 81.8482L99.0338 83.4459L101.296 84.7464L100.602 85.9528L93.5651 81.9066V81.9066ZM97.6635 74.3761L98.2367 73.1082L105.633 76.4519L105.06 77.7203L97.6635 74.3761Z" fill="#E4A216"/>
	<path fill-rule="evenodd" clip-rule="evenodd" d="M104.468 64.4802C106.035 64.4802 107.306 65.7513 107.306 67.319C107.306 68.8867 106.035 70.1578 104.468 70.1578C102.9 70.1578 101.629 68.8867 101.629 67.319C101.629 65.7513 102.9 64.4802 104.468 64.4802Z" fill="#E4A216"/>
	<path d="M147.016 73.5251C149.158 73.5251 150.604 76.1348 150.604 80.5428C150.604 84.411 149.124 85.4363 147.994 85.4363C145.411 85.4363 144.406 81.4787 144.406 79.0958C144.406 76.1348 144.909 73.5251 147.016 73.5251ZM140 79.8049C140 84.0085 143.257 86.7907 147.488 86.7907C149.708 86.7907 151.581 86.1391 152.871 84.954C154.46 83.4943 155.01 81.3062 155.01 79.5143C155.01 75.3011 152.193 72.174 147.522 72.174C144.909 72.174 142.963 73.0907 141.721 74.5569C140.531 75.9559 140 77.898 140 79.8049V79.8049ZM163.413 82.3571V74.1384H166.117C166.685 74.1384 167.219 73.9787 167.219 73.5922V72.8512C167.219 72.6563 167.188 72.5285 166.591 72.5285H163.413V70.8803C163.413 66.0571 164.702 65.3512 165.396 65.3512C165.93 65.3512 166.054 65.8335 166.276 66.6097C166.56 67.6478 167.378 68.4559 168.509 68.4559C169.549 68.4559 170.304 67.7756 170.304 66.3861C170.304 65.5109 169.327 64 165.992 64C164.512 64 162.751 64.5462 161.555 65.8654C160.39 67.1591 159.322 68.7785 159.322 71.8865V72.5285H159.26C158.189 72.5285 156.899 72.6882 156.899 72.947V73.8158C156.899 74.0426 157.024 74.1384 157.748 74.1384H159.322V82.421C159.322 85.0562 158.816 85.3405 156.899 85.4363C156.709 85.6312 156.709 86.3371 156.899 86.5319C158.22 86.5 159.634 86.4681 161.368 86.4681C163.097 86.4681 164.481 86.5 165.836 86.5319C166.023 86.3371 166.023 85.6312 165.836 85.4363C163.915 85.3405 163.413 85.0562 163.413 82.3571V82.3571ZM178.329 72.5285C177.889 72.5349 177.411 72.6563 177.005 73.0109V73.9468C177.005 74.1065 177.036 74.1384 177.164 74.1384H179.21C179.141 77.3678 179.116 81.4883 179.116 83.0918C179.116 84.2193 179.388 85.299 180.059 85.8867C180.768 86.5096 181.926 86.7907 182.669 86.7907C184.406 86.7907 186.32 85.8867 186.95 84.9859C186.95 84.5994 186.76 84.4078 186.385 84.0916C185.973 84.4078 185.189 84.5356 184.59 84.5356C183.897 84.5356 183.206 83.9925 183.206 82.3859C183.206 80.7792 183.175 77.3454 183.175 74.1384H186.351C186.666 74.1384 187.107 74.0106 187.107 73.72V72.7234C187.107 72.5924 187.013 72.5285 186.857 72.5285H183.175L183.206 71.4329C183.269 69.2928 183.363 67.7979 183.363 67.7979C183.363 67.5935 183.269 67.5168 183.116 67.5168C182.891 67.5168 181.717 67.8714 181.224 68.0854C180.687 68.3122 179.769 68.5006 179.556 68.7945C179.335 69.1012 179.21 69.97 179.21 72.5285H178.329V72.5285ZM204.224 82.3475V77.3262C204.224 73.7839 202.747 72.174 200.04 72.174C198.882 72.174 196.636 73.3558 194.847 74.5026V67.6989C194.847 65.6067 194.944 64.4152 194.944 64.4152C194.944 64.1278 194.722 64 194.438 64C193.274 64.3833 190.757 64.7379 188.524 64.8369C188.427 65.2202 188.462 65.5747 188.618 65.8654C190.601 66.0251 190.757 66.0698 190.757 68.2802V82.3795C190.757 85.0498 190.254 85.3405 188.334 85.4363C188.146 85.6312 188.146 86.3371 188.334 86.5319C189.658 86.5 191.063 86.4681 192.802 86.4681C194.298 86.4681 195.288 86.5 196.643 86.5319C196.83 86.3371 196.83 85.6312 196.643 85.4363C195.322 85.3405 194.847 85.0498 194.847 82.3795V75.7898C196.156 74.937 197.214 74.5569 197.776 74.5569C199.035 74.5569 200.134 75.135 200.134 76.9717V82.3475C200.134 85.0498 199.631 85.3405 198.341 85.4363C198.151 85.6312 198.151 86.3371 198.341 86.5319C199.662 86.5 200.686 86.4681 202.179 86.4681C203.921 86.4681 205.295 86.5 206.647 86.5319C206.838 86.3371 206.838 85.6312 206.647 85.4363C204.73 85.3405 204.224 85.0498 204.224 82.3475V82.3475ZM212.658 77.6137C212.689 76.4894 212.858 75.2756 213.289 74.6207C213.785 73.8541 214.632 73.5251 214.988 73.5251C215.837 73.5251 217.002 74.362 217.002 76.9397C217.002 77.1314 217.002 77.5498 216.939 77.6137H212.658ZM220.652 82.3156C219.362 83.6667 217.664 84.0213 216.468 84.0213C214.013 84.0213 212.502 82.5711 212.502 79.4184C212.502 79.1917 212.533 79.0639 212.533 78.901H220.087C220.839 78.901 220.998 78.3548 220.998 77.9044C220.998 75.1669 219.959 72.174 215.334 72.174C212.031 72.174 208.252 75.167 208.252 80.0924C208.252 81.977 208.921 83.935 210.266 85.1808C211.447 86.2732 212.999 86.7907 215.241 86.7907C217.411 86.7907 219.55 85.6631 221.123 83.3122C221.123 82.8937 220.967 82.3156 220.652 82.3156V82.3156ZM244.661 71.4329C244.661 75.3842 242.335 76.0038 239.69 76.0038H238.338V69.5994C238.338 67.4114 239.059 66.7342 240.73 66.7342C242.553 66.7342 244.661 67.5072 244.661 71.4329ZM241.735 65.415C240.477 65.415 232.577 65.6386 231.318 65.6386C231.006 65.8335 231.006 66.5426 231.318 66.7342C233.051 66.8301 233.932 66.961 233.932 69.6314V82.5392C233.932 85.2127 233.051 85.3405 231.318 85.4363C231.006 85.6312 231.006 86.3371 231.318 86.5319C232.577 86.5 234.906 86.4681 236.165 86.4681C237.423 86.4681 239.69 86.5 240.948 86.5319C241.264 86.3371 241.264 85.6312 240.948 85.4363C239.218 85.3405 238.338 85.2127 238.338 82.5392V77.3582C240.833 77.3614 241.104 77.5882 241.548 78.3228L245.229 83.9255C246.204 85.3724 247.493 86.7907 249.382 86.7907C250.647 86.7907 252.277 86.6917 252.592 86.5319C252.702 86.3052 252.686 85.6951 252.561 85.4363C251.143 85.4363 250.422 84.6633 249.538 83.3122L245.261 76.5532C246.959 75.8441 249.414 74.1704 249.414 70.8867C249.414 69.5931 248.942 67.6574 246.99 66.4787C245.826 65.7728 244.096 65.415 241.735 65.415V65.415ZM257.816 77.6137C257.847 76.4894 258.016 75.2756 258.444 74.6207C258.943 73.8541 259.787 73.5251 260.146 73.5251C260.995 73.5251 262.157 74.362 262.157 76.9397C262.157 77.1314 262.157 77.5498 262.094 77.6137H257.816ZM265.81 82.3156C264.517 83.6667 262.819 84.0213 261.623 84.0213C259.168 84.0213 257.657 82.5711 257.657 79.4184C257.657 79.1917 257.688 79.0639 257.688 78.901H265.242C265.997 78.901 266.153 78.3548 266.153 77.9044C266.153 75.1669 265.117 72.174 260.489 72.174C257.185 72.174 253.41 75.167 253.41 80.0924C253.41 81.977 254.075 83.935 255.424 85.1808C256.605 86.2732 258.157 86.7907 260.395 86.7907C262.569 86.7907 264.708 85.6631 266.281 83.3122C266.281 82.8937 266.122 82.3156 265.81 82.3156V82.3156ZM270.622 76.5213V90.0072C270.622 92.6808 270.278 92.7447 268.358 92.9044C268.167 93.0992 268.167 93.8052 268.358 94C269.679 93.9681 270.99 93.9361 272.667 93.9361C274.347 93.9361 275.627 93.9681 276.979 94C277.17 93.8052 277.17 93.0992 276.979 92.9044C275.059 92.7766 274.715 92.6808 274.715 90.0072V86.2413C275.39 86.5958 276.067 86.7907 276.823 86.7907C281.622 86.7907 284.72 83.5869 284.72 78.8371C284.72 77.0451 284.055 75.0392 282.834 73.7839C281.732 72.6531 280.152 72.174 278.522 72.174C277.61 72.174 275.908 73.3015 274.809 74.3301H274.631C274.556 73.4197 274.462 72.7234 274.462 72.7234C274.431 72.3305 274.178 72.174 273.738 72.174C272.573 72.4966 270.687 72.947 268.514 73.2377C268.452 73.4293 268.514 74.0745 268.576 74.2662C270.294 74.4291 270.622 74.6846 270.622 76.5213V76.5213ZM274.715 84.3759V76.122C274.715 75.9527 274.709 75.7739 274.703 75.5982C275.612 74.7613 276.776 74.3301 277.513 74.3301C278.806 74.3301 280.314 75.94 280.314 79.7059C280.314 82.4114 279.371 85.4363 276.633 85.4363C276.286 85.4363 275.499 85.2447 274.715 84.3759V84.3759ZM301.966 82.1846V76.6171C301.966 73.9116 302.028 74.2981 302.028 73.5251C302.028 72.9789 301.903 72.6244 301.713 72.4327C301.148 72.4647 300.517 72.4966 299.92 72.4966C299.049 72.4966 296.995 72.4647 295.767 72.4327C295.577 72.6244 295.577 73.3335 295.767 73.5251C297.372 73.688 297.875 73.9116 297.875 76.6171V82.5839C297.875 82.8937 297.885 83.2164 297.9 83.539C296.62 84.3471 295.561 84.4078 295.012 84.4078C293.753 84.4078 292.807 84.2609 292.807 81.993V76.6171C292.807 73.9116 292.87 74.2981 292.87 73.5251C292.87 72.9789 292.745 72.6244 292.558 72.4327C291.989 72.4647 291.34 72.4966 290.762 72.4966C289.141 72.4966 287.961 72.4647 286.609 72.4327C286.419 72.6244 286.419 73.3335 286.609 73.5251C288.055 73.5922 288.717 73.9116 288.717 76.6171V81.6384C288.717 85.0658 290.038 86.7907 292.745 86.7907C293.888 86.7907 296.177 85.8612 297.985 84.8262C298.059 85.6344 298.125 86.2413 298.125 86.2413C298.153 86.6278 298.409 86.7907 298.849 86.7907C300.014 86.4681 301.903 86.0177 304.073 85.727C304.136 85.5322 304.073 84.8901 304.011 84.6953C302.297 84.5356 301.966 84.0213 301.966 82.1846V82.1846ZM307.062 82.3795C307.062 85.0498 306.999 85.4363 306.874 86.6597C307.252 86.7907 307.599 86.8865 307.945 86.8865C308.354 86.5319 308.667 86.0911 308.951 85.5002C310.178 86.4681 312.108 86.7907 313.544 86.7907C317.038 86.7907 320.72 83.2547 320.72 78.6454C320.72 76.8152 320.033 74.9977 319.021 73.8158C317.888 72.4966 316.373 72.174 314.709 72.174C313.735 72.174 312.067 73.3015 311.155 73.9787V67.6989C311.155 65.6067 311.249 64.4152 311.249 64.4152C311.249 64.1278 311.027 64 310.746 64C309.582 64.3833 307.062 64.7379 304.829 64.8369C304.735 65.2202 304.767 65.5747 304.923 65.8654C306.906 66.0251 307.062 66.0698 307.062 68.2802V82.3795V82.3795ZM311.155 75.266C312.192 74.5728 312.87 74.461 313.61 74.461C315.149 74.461 316.314 75.908 316.314 79.0639C316.314 81.6927 315.873 85.4363 313.388 85.4363C312.464 85.4363 311.752 85.0498 311.155 84.312V75.266V75.266ZM324.938 82.3795C324.938 85.0498 324.432 85.3405 322.515 85.4363C322.325 85.6312 322.325 86.3371 322.515 86.5319C323.836 86.5 325.241 86.4681 326.983 86.4681C328.723 86.4681 330.097 86.5 331.452 86.5319C331.639 86.3371 331.639 85.6312 331.452 85.4363C329.531 85.3405 329.029 85.0498 329.029 82.3795V67.6989C329.029 65.6067 329.122 64.4152 329.122 64.4152C329.122 64.1278 328.901 64 328.62 64C327.455 64.3833 324.938 64.7379 322.702 64.8369C322.609 65.2202 322.64 65.5747 322.796 65.8654C324.779 66.0251 324.938 66.0698 324.938 68.2802V82.3795V82.3795ZM339.317 82.5392V76.122C339.317 74.5249 339.442 72.7234 339.442 72.7234C339.442 72.3688 339.161 72.174 338.718 72.174C337.822 72.5285 335.289 72.7873 333.119 73.0747C333.054 73.2696 333.119 73.9116 333.182 74.1065C334.896 74.2662 335.227 74.5249 335.227 76.3584V82.5392C335.227 85.2127 334.88 85.2766 332.96 85.4363C332.773 85.6312 332.773 86.3371 332.96 86.5319C334.284 86.5 335.595 86.4681 337.272 86.4681C338.949 86.4681 340.229 86.5 341.584 86.5319C341.772 86.3371 341.772 85.6312 341.584 85.4363C339.664 85.3086 339.317 85.2127 339.317 82.5392V82.5392ZM335.071 67.2805C335.071 68.3441 335.823 69.4078 337.082 69.4078C338.499 69.4078 339.317 68.2483 339.317 67.4114C339.317 66.4436 338.593 65.2873 337.272 65.2873C335.792 65.2873 335.071 66.3158 335.071 67.2805V67.2805ZM355.43 83.6667C355.43 83.2802 355.367 82.6701 355.021 82.6701C353.762 83.8584 352.691 84.4717 351.779 84.4717C349.419 84.4717 347.561 82.734 347.561 78.869C347.561 75.2979 348.348 73.5251 350.015 73.5251C351.18 73.5251 351.651 74.7836 351.748 75.8122C351.842 76.681 352.691 77.3262 353.697 77.3262C354.705 77.3262 355.43 76.5213 355.43 75.5215C355.43 74.0745 353.731 72.174 350.299 72.174C346.587 72.174 343.314 75.234 343.314 79.9966C343.314 82.0792 344.042 83.9414 345.266 85.1137C346.502 86.302 347.923 86.7907 350.175 86.7907C352.061 86.7907 354.234 85.4363 355.43 83.6667V83.6667ZM373.175 73.5251C375.317 73.5251 376.763 76.1348 376.763 80.5428C376.763 84.411 375.286 85.4363 374.152 85.4363C371.573 85.4363 370.565 81.4787 370.565 79.0958C370.565 76.1348 371.067 73.5251 373.175 73.5251V73.5251ZM366.159 79.8049C366.159 84.0085 369.416 86.7907 373.65 86.7907C375.867 86.7907 377.74 86.1391 379.03 84.954C380.619 83.4943 381.169 81.3062 381.169 79.5143C381.169 75.3011 378.352 72.174 373.681 72.174C371.067 72.174 369.122 73.0907 367.879 74.5569C366.69 75.9559 366.159 77.898 366.159 79.8049ZM389.571 82.3571V74.1384H392.279C392.844 74.1384 393.378 73.9787 393.378 73.5922V72.8512C393.378 72.6563 393.347 72.5285 392.75 72.5285H389.571V70.8803C389.571 66.0571 390.861 65.3512 391.554 65.3512C392.088 65.3512 392.216 65.8335 392.435 66.6097C392.719 67.6478 393.537 68.4559 394.671 68.4559C395.707 68.4559 396.463 67.7756 396.463 66.3861C396.463 65.5109 395.489 64 392.151 64C390.674 64 388.91 64.5462 387.714 65.8654C386.552 67.1591 385.481 68.7785 385.481 71.8865V72.5285H385.419C384.347 72.5285 383.058 72.6882 383.058 72.947V73.8158C383.058 74.0426 383.183 74.1384 383.907 74.1384H385.481V82.421C385.481 85.0562 384.978 85.3405 383.058 85.4363C382.867 85.6312 382.867 86.3371 383.058 86.5319C384.379 86.5 385.796 86.4681 387.526 86.4681C389.256 86.4681 390.643 86.5 391.995 86.5319C392.185 86.3371 392.185 85.6312 391.995 85.4363C390.074 85.3405 389.571 85.0562 389.571 82.3571V82.3571ZM409.649 69.6633C409.649 66.993 410.121 66.8301 412.544 66.7342C412.731 66.5426 412.731 65.8335 412.544 65.6386C411.001 65.6738 408.912 65.7057 407.414 65.7057C405.987 65.7057 404.394 65.6738 402.82 65.6386C402.63 65.8335 402.63 66.5426 402.82 66.7342C404.706 66.8301 405.243 66.993 405.243 69.6633V78.869C405.243 81.993 406.202 84.2577 407.979 85.4363C409.959 86.7523 412.841 86.7907 414.336 86.7907C420.787 86.7907 422.833 82.7021 422.833 76.9717V69.6633C422.833 66.993 423.401 66.9291 425.256 66.7342C425.446 66.5426 425.446 65.8335 425.256 65.6386C424.029 65.6738 422.761 65.7057 421.89 65.7057C420.972 65.7057 419.335 65.6738 417.893 65.6386C417.706 65.8335 417.706 66.5426 417.893 66.7342C420.269 66.9451 420.787 66.993 420.787 69.6633V77.5498C420.787 81.1561 420.316 85.4363 414.998 85.4363C413.487 85.4363 412.197 84.7624 411.254 83.8264C409.712 82.3156 409.649 79.9008 409.649 77.8086V69.6633V69.6633ZM426.83 72.1101C426.755 72.1101 426.642 72.2283 426.642 72.3049C426.608 73.7519 426.42 75.1957 426.168 76.7672C426.445 76.8854 427.154 76.9493 427.523 76.8631C428.15 74.5185 429.128 73.8158 430.071 73.7839L433.281 73.6944L433.334 73.7519C431.198 77.3741 428.132 82.1016 425.727 85.4044C425.462 85.7813 425.446 85.8867 425.446 86.0496C425.446 86.2732 425.696 86.4361 426.168 86.4361L437.246 86.5319C437.624 85.4363 438.033 83.769 438.252 82.1655C438.049 82.0473 437.371 81.9706 436.993 81.9706L436.553 82.9001C435.751 84.5963 435.104 85.1808 433.468 85.1808H430.449L430.424 85.0818C432.734 82.0473 435.882 76.9653 437.78 73.7839C438.258 72.9725 438.345 72.7234 438.345 72.5924C438.345 72.4647 438.189 72.3688 437.971 72.3688C437.811 72.3688 435.673 72.4327 434.761 72.4327H428.687C427.673 72.4327 427.379 72.2219 426.83 72.1101V72.1101ZM441.777 82.3795C441.777 85.0498 441.715 85.4363 441.587 86.6597C441.964 86.7907 442.311 86.8865 442.658 86.8865C443.067 86.5319 443.382 86.0911 443.666 85.5002C444.893 86.4681 446.823 86.7907 448.259 86.7907C451.754 86.7907 455.435 83.2547 455.435 78.6454C455.435 76.8152 454.748 74.9977 453.736 73.8158C452.603 72.4966 451.085 72.174 449.424 72.174C448.447 72.174 446.779 73.3015 445.868 73.9787V67.6989C445.868 65.6067 445.961 64.4152 445.961 64.4152C445.961 64.1278 445.743 64 445.459 64C444.294 64.3833 441.777 64.7379 439.544 64.8369C439.448 65.2202 439.479 65.5747 439.638 65.8654C441.621 66.0251 441.777 66.0698 441.777 68.2802V82.3795V82.3795ZM445.868 75.266C446.907 74.5728 447.582 74.461 448.322 74.461C449.864 74.461 451.029 75.908 451.029 79.0639C451.029 81.6927 450.589 85.4363 448.103 85.4363C447.179 85.4363 446.467 85.0498 445.868 84.312V75.266V75.266ZM462.389 77.6137C462.42 76.4894 462.589 75.2756 463.017 74.6207C463.516 73.8541 464.359 73.5251 464.718 73.5251C465.568 73.5251 466.729 74.362 466.729 76.9397C466.729 77.1314 466.729 77.5498 466.667 77.6137H462.389ZM470.383 82.3156C469.09 83.6667 467.391 84.0213 466.195 84.0213C463.741 84.0213 462.23 82.5711 462.23 79.4184C462.23 79.1917 462.264 79.0639 462.264 78.901H469.814C470.57 78.901 470.726 78.3548 470.726 77.9044C470.726 75.1669 469.689 72.174 465.062 72.174C461.758 72.174 457.983 75.167 457.983 80.0924C457.983 81.977 458.648 83.935 459.997 85.1808C461.177 86.2732 462.729 86.7907 464.968 86.7907C467.141 86.7907 469.28 85.6631 470.854 83.3122C470.854 82.8937 470.695 82.3156 470.383 82.3156V82.3156ZM475.354 82.3795C475.354 85.0498 474.851 85.3405 472.931 85.4363C472.74 85.6312 472.74 86.3371 472.931 86.5319C474.251 86.5 475.657 86.4681 477.399 86.4681C478.773 86.4681 480.169 86.5 480.924 86.5319C481.112 86.3371 481.112 85.6312 480.924 85.4363C479.963 85.3245 479.444 85.0498 479.444 82.3795V79.7379C480.325 79.7379 481.283 79.8529 481.614 80.3511C482.339 81.4468 483.219 82.7819 483.756 83.9574C484.165 84.8582 484.259 85.1488 484.259 85.6312V86.4681L484.322 86.5319C484.322 86.5319 485.736 86.4681 486.838 86.4681C488.128 86.4681 489.892 86.5 491.057 86.5319C491.244 86.3371 491.244 85.6312 491.057 85.4363C489.833 85.3245 489.146 85.398 488.193 83.9574L484.543 78.4506C484.39 78.227 484.312 77.9587 484.446 77.8086L486.005 76.0549C487.023 74.905 487.878 73.7998 490.27 73.5251C490.457 73.3335 490.457 72.6244 490.27 72.4327C489.577 72.4647 487.594 72.4966 486.776 72.4966C485.611 72.4966 484.134 72.4647 482.969 72.4327C482.779 72.6244 482.779 73.3335 482.969 73.5251C484.668 73.6561 485.155 73.9627 484.259 75.234C483.566 76.2083 482.873 76.9876 482.245 77.5466C481.842 77.898 480.387 78.4506 479.444 78.4506V67.6989C479.444 65.6067 479.538 64.4152 479.538 64.4152C479.538 64.1278 479.319 64 479.035 64C477.87 64.3833 475.354 64.7379 473.118 64.8369C473.024 65.2202 473.055 65.5747 473.215 65.8654C475.194 66.0251 475.354 66.0698 475.354 68.2802V82.3795V82.3795ZM499.113 82.5392V76.122C499.113 74.5249 499.238 72.7234 499.238 72.7234C499.238 72.3688 498.954 72.174 498.513 72.174C497.617 72.5285 495.085 72.7873 492.912 73.0747C492.849 73.2696 492.912 73.9116 492.974 74.1065C494.692 74.2662 495.019 74.5249 495.019 76.3584V82.5392C495.019 85.2127 494.676 85.2766 492.756 85.4363C492.565 85.6312 492.565 86.3371 492.756 86.5319C494.076 86.5 495.388 86.4681 497.065 86.4681C498.745 86.4681 500.025 86.5 501.377 86.5319C501.567 86.3371 501.567 85.6312 501.377 85.4363C499.456 85.3086 499.113 85.2127 499.113 82.5392ZM494.863 67.2805C494.863 68.3441 495.619 69.4078 496.877 69.4078C498.295 69.4078 499.113 68.2483 499.113 67.4114C499.113 66.4436 498.389 65.2873 497.065 65.2873C495.588 65.2873 494.863 66.3158 494.863 67.2805V67.2805ZM503.453 81.7662C503.581 83.3601 503.722 84.8741 503.99 86.0816C504.571 86.2892 506.595 86.7907 508.362 86.7907C510.785 86.7907 513.808 85.4427 513.808 82.635C513.808 81.549 513.539 80.6674 512.843 79.8688C511.934 78.8275 510.629 78.0322 509.18 77.3901C507.922 76.8247 507.481 75.8122 507.481 74.8795C507.481 74.1384 508.081 73.5251 508.993 73.5251C510.095 73.5251 511.163 74.5569 511.95 76.5213C512.518 76.6171 512.861 76.5852 513.177 76.3584C513.177 75.2021 513.052 73.9787 512.768 72.947C511.762 72.4966 510.976 72.174 509.246 72.174C507.581 72.174 505.992 72.8128 504.996 73.8477C504.271 74.5984 503.925 75.4896 503.925 76.3584C503.925 77.3135 504.287 78.0865 504.902 78.7732C505.876 79.8688 507.591 81.006 508.552 81.4468C509.811 82.0249 510.157 83.1844 510.157 83.9574C510.157 84.9923 509.149 85.5322 508.299 85.5322C506.879 85.5322 505.374 84.0692 504.712 81.7023C504.209 81.6065 503.956 81.6384 503.453 81.7662V81.7662ZM517.049 72.5285C516.609 72.5349 516.131 72.6563 515.728 73.0109V73.9468C515.728 74.1065 515.759 74.1384 515.884 74.1384H517.929C517.861 77.3678 517.836 81.4883 517.836 83.0918C517.836 84.2193 518.107 85.299 518.779 85.8867C519.488 86.5096 520.646 86.7907 521.392 86.7907C523.125 86.7907 525.039 85.8867 525.67 84.9859C525.67 84.5994 525.483 84.4078 525.105 84.0916C524.696 84.4078 523.909 84.5356 523.31 84.5356C522.619 84.5356 521.926 83.9925 521.926 82.3859C521.926 80.7792 521.895 77.3454 521.895 74.1384H525.074C525.386 74.1384 525.826 74.0106 525.826 73.72V72.7234C525.826 72.5924 525.733 72.5285 525.576 72.5285H521.895L521.926 71.4329C521.989 69.2928 522.082 67.7979 522.082 67.7979C522.082 67.5935 521.989 67.5168 521.836 67.5168C521.611 67.5168 520.437 67.8714 519.943 68.0854C519.409 68.3122 518.491 68.5006 518.276 68.7945C518.054 69.1012 517.929 69.97 517.929 72.5285H517.049V72.5285ZM535.94 84.9061C536.149 86.2093 536.999 86.7907 538.382 86.7907C540.118 86.7907 541.342 86.1135 542.507 84.9859C542.432 84.6122 542.301 84.3535 541.939 84.0852C541.529 84.4078 541.214 84.5356 540.618 84.5356C539.924 84.5356 539.737 83.9574 539.737 82.3795L539.8 77.7447C539.8 73.1067 536.999 72.174 534.413 72.174C532.106 72.174 528.565 73.5092 528.565 75.6365C528.565 76.5564 528.949 77.2655 530.198 77.2655C531.309 77.2655 532.153 76.5564 532.153 75.7802C532.153 75.3554 531.934 74.8156 532.006 74.2566C532.053 73.902 532.277 73.5251 533.339 73.5251C534.666 73.5251 535.771 74.1065 535.771 78.1951L533.658 78.869C530.348 79.9327 528.031 80.8654 528.031 83.408C528.031 85.6312 529.227 86.7907 531.965 86.7907C532.877 86.7907 534.701 85.7589 535.74 84.9221L535.94 84.9061V84.9061ZM535.771 79.4504V83.6987C534.985 84.3439 534.198 84.8582 533.633 84.8582C532.277 84.8582 531.806 83.9255 531.806 82.9257C531.806 81.7342 531.906 80.744 534.135 79.9966L535.771 79.4504V79.4504ZM550.057 82.5392V76.122V76.0645C551.306 75.1829 552.586 74.5569 553.142 74.5569C554.401 74.5569 555.344 75.135 555.344 76.9717V82.3475C555.344 85.0498 554.841 85.3405 553.551 85.4363C553.361 85.6312 553.361 86.3371 553.551 86.5319C554.872 86.5 555.896 86.4681 557.389 86.4681C559.131 86.4681 560.505 86.5 561.857 86.5319C562.048 86.3371 562.048 85.6312 561.857 85.4363C559.94 85.3405 559.434 85.0498 559.434 82.3475V77.3262C559.434 73.7839 557.957 72.174 555.25 72.174C553.982 72.174 551.74 73.5954 550.01 74.8092C549.938 73.6785 549.807 72.7234 549.807 72.7234C549.776 72.3305 549.523 72.174 549.083 72.174C547.918 72.4966 546.029 72.947 543.859 73.2377C543.796 73.4293 543.859 74.0745 543.921 74.2662C545.636 74.4291 545.967 74.6846 545.967 76.5213V82.5392C545.967 85.2127 545.62 85.2766 543.703 85.4363C543.512 85.6312 543.512 86.3371 543.703 86.5319C545.024 86.5 546.335 86.4681 548.012 86.4681C549.445 86.4681 550.341 86.5 551.693 86.5319C551.884 86.3371 551.884 85.6312 551.693 85.4363C550.372 85.3086 550.057 85.2127 550.057 82.5392V82.5392Z" fill="black" fill-opacity="0.87"/>
	<path d="M159.601 42.0219V21.4696C159.601 18.0094 160.137 16.0063 162.07 16.0063H163.254C167.281 16.0063 169.537 17.3604 170.447 21.5226C171.039 21.5226 172.058 21.4696 172.542 21.2543C172.167 18.7645 171.897 15.9532 171.845 13.5195C171.845 13.4665 171.736 13.3573 171.684 13.3573C169.859 13.5195 163.898 13.791 159.654 13.791H152.082C147.949 13.791 141.611 13.5195 139.572 13.3573C139.464 13.3573 139.355 13.4665 139.355 13.5195C139.141 15.9532 138.605 18.8206 138.014 21.4166C138.55 21.6319 139.464 21.6849 140.108 21.6849C141.183 17.3604 143.383 16.0063 146.927 16.0063H149.56C151.546 16.0063 152.082 18.0094 152.082 21.3074V42.0219C152.082 46.5117 151.171 46.7801 146.874 46.9423C146.552 47.2668 146.552 48.4587 146.874 48.7832C149.504 48.727 152.28 48.674 155.735 48.674C159.27 48.674 162.126 48.727 164.809 48.7832C165.131 48.4587 165.131 47.2668 164.809 46.9423C160.515 46.7801 159.601 46.5117 159.601 42.0219ZM210.921 33.8003C210.973 31.9095 211.258 29.8721 211.993 28.7707C212.845 27.4821 214.285 26.9329 214.892 26.9329C216.342 26.9329 218.331 28.337 218.331 32.6646C218.331 32.9891 218.331 33.6943 218.223 33.8003H210.921ZM224.558 41.6974C222.359 43.9688 219.459 44.5648 217.417 44.5648C213.229 44.5648 210.651 42.1311 210.651 36.83C210.651 36.4524 210.704 36.234 210.704 35.9657H223.592C224.881 35.9657 225.15 35.0453 225.15 34.2871C225.15 29.6911 223.378 24.6615 215.484 24.6615C209.846 24.6615 203.402 29.6911 203.402 37.9657C203.402 41.1295 204.539 44.4181 206.837 46.5117C208.851 48.3495 211.5 49.2138 215.323 49.2138C219.028 49.2138 222.681 47.323 225.364 43.3729C225.364 42.6709 225.097 41.6974 224.558 41.6974ZM261.103 49.2138C266.314 49.2138 271.094 46.727 274.744 41.9127C274.474 41.4259 273.563 40.7769 272.972 40.7769C269.161 44.9953 264.808 46.4025 261.05 46.4025C254.82 46.4025 249.882 39.0484 249.882 30.6085C249.882 22.1997 254.176 15.3042 260.567 15.3042C267.978 15.3042 270.394 19.5226 271.791 24.1748C272.436 24.39 273.492 24.2278 274.099 23.9033C273.833 21.0921 273.402 18.4961 272.919 15.5195C270.18 15.2512 267.764 13.0858 261.159 13.0858C250.631 13.0858 241.771 19.7286 241.771 31.6381C241.771 36.7208 243.964 42.6896 248.271 45.8066C251.706 48.2964 255.895 49.2138 261.103 49.2138ZM285.054 33.8003C285.11 31.9095 285.395 29.8721 286.129 28.7707C286.978 27.4821 288.422 26.9329 289.029 26.9329C290.479 26.9329 292.465 28.337 292.465 32.6646C292.465 32.9891 292.465 33.6943 292.359 33.8003H285.054ZM298.695 41.6974C296.492 43.9688 293.592 44.5648 291.554 44.5648C287.365 44.5648 284.788 42.1311 284.788 36.83C284.788 36.4524 284.84 36.234 284.84 35.9657H297.728C299.017 35.9657 299.287 35.0453 299.287 34.2871C299.287 29.6911 297.515 24.6615 289.621 24.6615C283.982 24.6615 277.538 29.6911 277.538 37.9657C277.538 41.1295 278.672 44.4181 280.974 46.5117C282.988 48.3495 285.637 49.2138 289.46 49.2138C293.165 49.2138 296.814 47.323 299.5 43.3729C299.5 42.6709 299.231 41.6974 298.695 41.6974ZM312.441 42.0749V31.2949V31.195C314.573 29.7161 316.757 28.6615 317.705 28.6615C319.852 28.6615 321.463 29.6381 321.463 32.7208V41.7504C321.463 46.2933 320.604 46.7801 318.402 46.9423C318.08 47.2668 318.08 48.4587 318.402 48.7832C320.657 48.727 322.404 48.674 324.954 48.674C327.925 48.674 330.271 48.727 332.582 48.7832C332.904 48.4587 332.904 47.2668 332.582 46.9423C329.304 46.7801 328.446 46.2933 328.446 41.7504V33.3136C328.446 27.3666 325.921 24.6615 321.305 24.6615C319.136 24.6615 315.316 27.0484 312.361 29.0858C312.237 27.1857 312.014 25.5819 312.014 25.5819C311.958 24.9236 311.53 24.6615 310.777 24.6615C308.792 25.2013 305.57 25.9595 301.864 26.4462C301.756 26.7707 301.864 27.8534 301.97 28.1779C304.897 28.4462 305.461 28.8799 305.461 31.9626V42.0749C305.461 46.5648 304.869 46.674 301.595 46.9423C301.273 47.2668 301.273 48.4587 301.595 48.7832C303.85 48.727 306.087 48.674 308.953 48.674C311.394 48.674 312.924 48.727 315.236 48.7832C315.558 48.4587 315.558 47.2668 315.236 46.9423C312.98 46.727 312.441 46.5648 312.441 42.0749ZM335.587 25.2543C334.837 25.2637 334.022 25.4727 333.331 26.0655V27.635C333.331 27.9064 333.387 27.9595 333.601 27.9595H337.092C336.975 33.3854 336.931 40.3089 336.931 43.0047C336.931 44.8986 337.396 46.7083 338.542 47.7005C339.751 48.7457 341.727 49.2138 342.997 49.2138C345.962 49.2138 349.228 47.7005 350.303 46.1872C350.303 45.5383 349.98 45.2138 349.336 44.6802C348.636 45.2138 347.294 45.429 346.275 45.429C345.095 45.429 343.911 44.518 343.911 41.8128C343.911 39.1202 343.859 33.351 343.859 27.9595H349.283C349.819 27.9595 350.569 27.7442 350.569 27.2574V25.5819C350.569 25.3635 350.408 25.2543 350.142 25.2543H343.859L343.911 23.4166C344.02 19.8191 344.181 17.3042 344.181 17.3042C344.181 16.9641 344.02 16.8362 343.759 16.8362C343.375 16.8362 341.371 17.4322 340.528 17.791C339.614 18.1716 338.05 18.4868 337.681 18.9829C337.306 19.4946 337.092 20.9548 337.092 25.2543H335.587ZM364.746 34.1623C364.746 32.234 365.338 31.4478 366.038 30.6085C366.475 30.078 366.949 29.6911 367.736 29.6911C368.237 29.6911 368.801 30.1592 369.26 30.7177C369.635 31.1794 370.549 31.61 371.757 31.61C373.312 31.61 374.842 29.9626 374.842 27.6911C374.842 26.284 373.231 24.6615 371.298 24.6615C369.421 24.6615 367.379 26.284 364.907 29.8534H364.693C364.585 28.2309 364.318 25.5819 364.318 25.5819C364.272 25.1108 363.835 24.6615 363.082 24.6615C360.533 25.3105 357.713 26.0936 354.169 26.4462C354.061 26.7707 354.169 27.7972 354.274 28.1217C357.202 28.3932 357.766 28.8799 357.766 31.9626V42.0749C357.766 46.5648 357.174 46.674 353.9 46.9423C353.577 47.2668 353.577 48.4587 353.9 48.7832C356.155 48.727 358.392 48.674 361.257 48.674C364.12 48.674 366.304 48.727 368.612 48.7832C368.934 48.4587 368.934 47.2668 368.612 46.9423C365.338 46.727 364.746 46.5648 364.746 42.0749V34.1623ZM391.346 46.0499C391.705 48.2403 393.155 49.2138 395.519 49.2138C398.481 49.2138 400.566 48.078 402.552 46.1872C402.428 45.5539 402.205 45.1233 401.585 44.6709C400.888 45.2138 400.352 45.429 399.33 45.429C398.149 45.429 397.827 44.4556 397.827 41.8066L397.936 34.0187C397.936 26.2278 393.155 24.6615 388.744 24.6615C384.806 24.6615 378.765 26.9049 378.765 30.4743C378.765 32.025 379.415 33.2138 381.547 33.2138C383.446 33.2138 384.886 32.025 384.886 30.7177C384.886 30.0063 384.508 29.0952 384.636 28.1592C384.716 27.5632 385.1 26.9329 386.909 26.9329C389.171 26.9329 391.061 27.9064 391.061 34.7738L387.455 35.9095C381.807 37.6943 377.851 39.2637 377.851 43.5351C377.851 47.2668 379.892 49.2138 384.564 49.2138C386.12 49.2138 389.236 47.4852 391.008 46.078L391.346 46.0499ZM391.061 36.883V44.0219C389.719 45.1046 388.375 45.9688 387.408 45.9688C385.1 45.9688 384.295 44.4025 384.295 42.7239C384.295 40.7239 384.465 39.0577 388.27 37.8035L391.061 36.883ZM409.104 41.8066C409.104 46.2933 408.246 46.7801 404.968 46.9423C404.646 47.2668 404.646 48.4587 404.968 48.7832C407.224 48.727 409.625 48.674 412.596 48.674C415.567 48.674 417.912 48.727 420.22 48.7832C420.542 48.4587 420.542 47.2668 420.22 46.9423C416.945 46.7801 416.087 46.2933 416.087 41.8066V17.142C416.087 13.6287 416.248 11.6256 416.248 11.6256C416.248 11.1389 415.87 10.9236 415.387 10.9236C413.401 11.5726 409.104 12.1685 405.29 12.3308C405.129 12.9797 405.185 13.5726 405.451 14.0593C408.835 14.3308 409.104 14.4025 409.104 18.1155V41.8066ZM483.579 46.0499C483.938 48.2403 485.385 49.2138 487.749 49.2138C490.711 49.2138 492.799 48.078 494.785 46.1872C494.658 45.5539 494.435 45.1233 493.818 44.6709C493.121 45.2138 492.582 45.429 491.563 45.429C490.382 45.429 490.06 44.4556 490.06 41.8066L490.166 34.0187C490.166 26.2278 485.385 24.6615 480.974 24.6615C477.036 24.6615 470.995 26.9049 470.995 30.4743C470.995 32.025 471.648 33.2138 473.777 33.2138C475.676 33.2138 477.117 32.025 477.117 30.7177C477.117 30.0063 476.742 29.0952 476.866 28.1592C476.946 27.5632 477.33 26.9329 479.14 26.9329C481.404 26.9329 483.291 27.9064 483.291 34.7738L479.685 35.9095C474.037 37.6943 470.081 39.2637 470.081 43.5351C470.081 47.2668 472.122 49.2138 476.794 49.2138C478.353 49.2138 481.466 47.4852 483.238 46.078L483.579 46.0499ZM483.291 36.883V44.0219C481.95 45.1046 480.608 45.9688 479.641 45.9688C477.33 45.9688 476.525 44.4025 476.525 42.7239C476.525 40.7239 476.695 39.0577 480.5 37.8035L483.291 36.883ZM507.137 42.0749V31.2949V31.195C509.265 29.7161 511.449 28.6615 512.397 28.6615C514.547 28.6615 516.158 29.6381 516.158 32.7208V41.7504C516.158 46.2933 515.297 46.7801 513.098 46.9423C512.775 47.2668 512.775 48.4587 513.098 48.7832C515.353 48.727 517.097 48.674 519.647 48.674C522.621 48.674 524.963 48.727 527.274 48.7832C527.597 48.4587 527.597 47.2668 527.274 46.9423C523.997 46.7801 523.138 46.2933 523.138 41.7504V33.3136C523.138 27.3666 520.614 24.6615 515.997 24.6615C513.832 24.6615 510.009 27.0484 507.056 29.0858C506.929 27.1857 506.706 25.5819 506.706 25.5819C506.654 24.9236 506.223 24.6615 505.47 24.6615C503.484 25.2013 500.262 25.9595 496.557 26.4462C496.449 26.7707 496.557 27.8534 496.665 28.1779C499.59 28.4462 500.154 28.8799 500.154 31.9626V42.0749C500.154 46.5648 499.565 46.674 496.287 46.9423C495.965 47.2668 495.965 48.4587 496.287 48.7832C498.543 48.727 500.78 48.674 503.645 48.674C506.09 48.674 507.62 48.727 509.928 48.7832C510.25 48.4587 510.25 47.2668 509.928 46.9423C507.673 46.727 507.137 46.5648 507.137 42.0749ZM533.343 41.8066C533.343 46.2933 532.482 46.7801 529.208 46.9423C528.885 47.2668 528.885 48.4587 529.208 48.7832C531.463 48.727 533.861 48.674 536.832 48.674C539.177 48.674 541.56 48.727 542.848 48.7832C543.171 48.4587 543.171 47.2668 542.848 46.9423C541.209 46.7551 540.323 46.2933 540.323 41.8066V37.3698C541.826 37.3698 543.465 37.5601 544.029 38.3994C545.265 40.2372 546.767 42.4805 547.681 44.4556C548.378 45.9688 548.54 46.4556 548.54 47.2668V48.674L548.648 48.7832C548.648 48.7832 551.064 48.674 552.942 48.674C555.145 48.674 558.153 48.727 560.139 48.7832C560.461 48.4587 560.461 47.2668 560.139 46.9423C558.054 46.7551 556.883 46.8799 555.253 44.4556L549.023 35.2075C548.763 34.83 548.629 34.3776 548.862 34.1248L551.52 31.1794C553.258 29.2481 554.714 27.3916 558.797 26.9329C559.119 26.6085 559.119 25.4197 558.797 25.0921C557.614 25.1482 554.231 25.2013 552.837 25.2013C550.848 25.2013 548.326 25.1482 546.337 25.0921C546.015 25.4197 546.015 26.6085 546.337 26.9329C549.237 27.1482 550.07 27.6631 548.54 29.8003C547.359 31.4384 546.176 32.7457 545.104 33.6849C544.413 34.2777 541.934 35.2075 540.323 35.2075V17.142C540.323 13.6287 540.485 11.6256 540.485 11.6256C540.485 11.1389 540.11 10.9236 539.626 10.9236C537.637 11.5726 533.343 12.1685 529.53 12.3308C529.369 12.9797 529.421 13.5726 529.691 14.0593C533.074 14.3308 533.343 14.4025 533.343 18.1155V41.8066ZM198.553 42.234V34.3869C198.553 28.8518 196.208 26.337 191.911 26.337C190.071 26.337 186.508 28.181 183.667 29.9751V19.3417C183.667 16.0718 183.819 14.2122 183.819 14.2122C183.819 13.7598 183.469 13.557 183.019 13.557C181.17 14.1623 177.173 14.7145 173.626 14.8643C173.477 15.4696 173.527 16.0219 173.778 16.4743C176.925 16.727 177.173 16.7957 177.173 20.2496V42.284C177.173 46.4618 176.374 46.9142 173.329 47.064C173.028 47.3666 173.028 48.4743 173.329 48.7738C175.426 48.7239 177.657 48.674 180.42 48.674C182.793 48.674 184.367 48.7239 186.514 48.7738C186.815 48.4743 186.815 47.3666 186.514 47.064C184.417 46.9142 183.667 46.4618 183.667 42.284V31.9875C185.743 30.6553 187.422 30.0593 188.314 30.0593C190.312 30.0593 192.06 30.9641 192.06 33.8315V42.234C192.06 46.4618 191.26 46.9142 189.212 47.064C188.912 47.3666 188.912 48.4743 189.212 48.7738C191.31 48.7239 192.933 48.674 195.306 48.674C198.073 48.674 200.254 48.7239 202.401 48.7738C202.701 48.4743 202.701 47.3666 202.401 47.064C199.352 46.9142 198.553 46.4618 198.553 42.234Z" fill="black"/>
	<path d="M448.315 18.3261C448.315 16.7639 448.582 16.0098 452.054 16.0098C454.512 16.0098 457.504 16.9794 457.504 22.2584C457.504 26.5678 455.1 28.3455 451.306 28.3455H448.315V18.3261ZM448.315 30.6079H452.108C457.61 30.6079 460.015 33.8939 460.015 38.5265C460.015 41.7586 458.893 46.4451 451.841 46.4451C448.635 46.4451 448.315 45.637 448.315 44.0749V30.6079ZM444.628 13.855C442.491 13.855 436.401 13.7473 436.401 13.7473C435.866 14.0705 435.866 15.2556 436.401 15.5788C439.339 15.7404 440.835 15.9559 440.835 20.4269V42.0279C440.835 46.4989 439.339 46.7144 436.401 46.876C435.866 47.1992 435.866 48.3843 436.401 48.7075C436.401 48.7075 442.491 48.5998 444.628 48.5998C446.765 48.5998 450.184 48.7075 453.39 48.7075C464.342 48.7075 467.868 44.0749 467.868 38.5804C467.868 33.84 465.517 30.7695 459.854 29.2612V29.1535C462.739 27.8607 464.983 24.8979 464.983 22.1507C464.983 18.4338 462.953 13.7473 452.215 13.7473C449.543 13.7473 446.284 13.855 444.628 13.855Z" fill="black"/>
	<defs>
		<radialGradient id="paint0_radial" cx="0" cy="0" r="1" gradientUnits="userSpaceOnUse" gradientTransform="translate(81.9426 31.1256) rotate(144.287) scale(86.545 88.9384)">
			<stop stop-color="#E4A237"/>
			<stop offset="0.501961" stop-color="#F0B644"/>
			<stop offset="1" stop-color="#E7C66E"/>
		</radialGradient>
	</defs>
</svg>