<svg xmlns="http://www.w3.org/2000/svg" id="Layer_1" viewBox="0 0 940.7 88.86"><defs><style>.cls-4{fill:#003865}</style></defs><path d="M910.25 15.48c-18.2 23.03-43.67 40.05-72.92 47.56-.68.17-1.39-.07-1.83-.62-2.56-3.22-5.49-6.7-8.78-10.33a.488.488 0 0 1 .27-.81c21.83-4.24 42.05-14.36 58.75-29.57.21-.11.41-.21.62-.32 7.61-1.65 15.4-3.86 23.28-6.76.52-.19.96.42.62.85" style="fill:#358ca2"/><path d="M939.95.07a178.95 178.95 0 0 1-20.56 10.63c-.14.06-.26.16-.34.28a141.626 141.626 0 0 1-16.32 19.54c-17.79 17.79-39.52 30.22-63.21 36.46a.28.28 0 0 0-.15.44c3.5 4.7 6.05 8.56 7.64 11.1.13.21.39.31.63.23 40.6-12.2 74.18-40.79 93.01-78.04.22-.44-.27-.89-.69-.64" style="fill:#34bcaa"/><path d="M875.97 23.97c0 .15-.06.28-.15.38-.05.04-.09.08-.14.11-15.14 11.74-33.19 19.9-52.87 23.17a.413.413 0 0 1-.37-.12c-3.68-3.82-7.75-7.75-12.21-11.67a.415.415 0 0 1 .25-.73c12.66-.87 24.88-3.98 36.18-9.16.18-.08.37-.16.55-.25.34-.08.66-.15.99-.23 8.58-.02 17.64-.62 27.03-2.04l.17-.03h.01c.31 0 .55.26.55.56" style="fill:#2f5f95"/><path d="M834.29 25c-.07 0-.14-.01-.2-.01-23.6-1.68-42.18-7.28-51.78-10.76-.59-.21-.98.61-.44.93 8.27 4.9 15.78 10.26 22.51 15.73.11.09.25.14.39.14a99.716 99.716 0 0 0 29.47-4.91c.06-.02.11-.04.16-.06.19-.09.32-.28.32-.51 0-.27-.18-.49-.43-.55M195.49 76.13h7.89v-24.7h6.98v-6.35h-6.98v-3.94c0-3.28 1.88-5.1 4.67-5.1 1.09 0 2.06.24 2.97.73V30.1c-1.21-.55-2.73-.79-4.55-.79-6.74 0-10.98 4.43-10.98 11.35v4.43h-5.1v6.35h5.1v24.7ZM226.96 44.36c-9.02 0-16.61 6.96-16.61 16.24s7.58 16.26 16.61 16.26 16.57-6.92 16.57-16.26-7.58-16.24-16.57-16.24Zm0 25.59c-4.91 0-8.66-3.94-8.66-9.34s3.74-9.34 8.66-9.34 8.62 3.94 8.62 9.34-3.7 9.34-8.62 9.34ZM255.54 60.96c0-6.01 3.58-8.49 8.19-8.49.61 0 1.21.06 1.88.12v-8.01c-.3 0-.61-.04-.91-.04-4.25 0-7.46 2.35-9.16 5.32v-4.77h-8.01v31.05h8.01V60.97ZM299 76.86c4.25 0 8.19-1.09 11.47-3.09V64.3c-2.61 2.91-6.61 4.73-11.29 4.73-8.37 0-14.81-6.55-14.81-15.05s6.43-15.03 14.81-15.03c4.67 0 8.68 1.82 11.29 4.73v-9.47c-3.28-2-7.22-3.09-11.47-3.09-12.62 0-22.81 10.25-22.81 22.86S286.38 76.86 299 76.86ZM314.96 45.06v31.07h7.99V60.96c0-6.01 3.58-8.49 8.19-8.49.61 0 1.21.06 1.88.12v-8.01c-.3 0-.61-.04-.91-.04-4.25 0-7.46 2.35-9.16 5.32v-4.79h-7.99ZM394.7 76.14V56.48c0-7.58-5.1-12.14-13.39-12.14-4.07 0-8.01 1.09-10.44 2.43v7.04c2.49-1.46 5.46-2.55 8.74-2.55 4.65 0 7.32 2.43 7.32 5.58v2.31c-1.27-1.34-4.19-2.73-7.69-2.73-6.49 0-11.89 4.07-11.89 10.07 0 6.37 5.4 10.38 11.65 10.38 3.86 0 6.78-1.64 7.93-3.09v2.37h7.77Zm-13.87-5.22c-3.16 0-6.13-1.58-6.13-4.43s2.97-4.49 6.13-4.49 6.23 1.64 6.23 4.49-3.16 4.43-6.23 4.43ZM412.46 76.86c2.29 0 4.65-.55 6.23-1.46v-7.1c-1.33 1.09-2.91 1.64-4.67 1.64-2.83 0-4.53-1.64-4.53-4.73V51.44h8.29v-6.37h-8.29v-9.75l-8.01 2.55v7.2h-5.1v6.37h5.1v14.62c0 7.1 4.67 10.8 10.98 10.8ZM422.87 45.07h8.01v31.07h-8.01zM426.88 31.01h-.06c-2.61 0-4.67 2-4.67 4.61s2.06 4.61 4.67 4.61h.06c2.61 0 4.67-2 4.67-4.61s-2.06-4.61-4.67-4.61ZM441.82 45.07h-8.88l17.1 32.37c.18.33.65.33.83 0l17.08-32.37h-8.43l-8.88 18.3-8.82-18.3ZM496.1 66.37h-6.81c-.63 1.22-1.68 2.23-3.02 2.88-1.36.67-3.85 1.07-5.59.69-4.15-.91-7.07-3.34-7.76-7.27h23.22c.06-.67.06-1.28.06-1.88 0-9.24-4.98-16.47-14.83-16.47-8.51 0-15.99 6.99-15.99 16.35 0 8.29 5.86 14.61 13.98 15.95.43.08 2.17.24 2.61.24 4.52 0 9.2-2.05 11.91-5.59 1.09-1.4 1.88-3.04 2.21-4.88Zm-14.85-15.62c4.56 0 7.05 3.28 7.42 6.57h-15.5c1.09-4.01 4.19-6.57 8.08-6.57ZM364.65 66.37h-6.81c-.63 1.22-1.68 2.23-3.02 2.88-1.36.67-3.85 1.07-5.59.69-4.15-.91-7.07-3.34-7.76-7.27h23.22c.06-.67.06-1.28.06-1.88 0-9.24-4.98-16.47-14.83-16.47-8.51 0-15.99 6.99-15.99 16.35 0 8.29 5.86 14.61 13.98 15.95.43.08 2.17.24 2.61.24 4.52 0 9.2-2.05 11.91-5.59 1.09-1.4 1.88-3.04 2.21-4.88ZM349.8 50.75c4.56 0 7.05 3.28 7.42 6.57h-15.5c1.09-4.01 4.19-6.57 8.08-6.57ZM22.81 76.86c4.25 0 8.19-1.09 11.47-3.1v-9.47c-2.61 2.91-6.61 4.73-11.29 4.73-8.37 0-14.81-6.55-14.81-15.05s6.43-15.03 14.81-15.03c4.67 0 8.68 1.82 11.29 4.73V34.2c-3.28-2-7.22-3.09-11.47-3.09C10.19 31.13 0 41.38 0 53.98s10.19 22.88 22.81 22.88ZM79.77 58.35c0-3.7 2.25-6.8 6.07-6.8s6.05 3.1 6.05 6.74v17.84h8.01V56.17c0-6.92-4.19-11.81-11.33-11.81-3.94 0-7.16 1.86-8.8 4.35v-3.62h-8.01v31.05h8.01V58.36ZM107.54 66.06c0 7.1 4.67 10.8 10.98 10.8 2.31 0 4.67-.55 6.25-1.46v-7.1c-1.33 1.09-2.91 1.64-4.67 1.64-2.85 0-4.55-1.64-4.55-4.73V51.44h8.31v-6.35h-8.31v-9.77l-8.01 2.55v7.22h-5.1v6.35h5.1v14.62ZM169.59 60.96c0-6.01 3.58-8.49 8.19-8.49.61 0 1.21.06 1.86.12v-8.01c-.28 0-.59-.04-.89-.04-4.25 0-7.46 2.35-9.16 5.32v-4.77h-8.01v31.05h8.01V60.97ZM157.53 66.36h-6.81c-.63 1.22-1.68 2.23-3.02 2.88-1.36.67-3.85 1.07-5.59.69-4.15-.91-7.07-3.34-7.76-7.27h23.22c.06-.67.06-1.28.06-1.88 0-9.24-4.98-16.47-14.83-16.47-8.51 0-15.99 6.99-15.99 16.35 0 8.29 5.86 14.61 13.98 15.95.43.08 2.17.24 2.61.24 4.52 0 9.2-2.05 11.91-5.59 1.09-1.4 1.88-3.04 2.21-4.88Zm-14.85-15.62c4.56 0 7.05 3.28 7.42 6.57h-15.5c1.09-4.01 4.19-6.57 8.08-6.57ZM67.49 66.34H60.7c-.63 1.21-1.68 2.22-3.01 2.87-1.35.67-3.84 1.07-5.58.69-4.14-.91-7.05-3.33-7.74-7.25h23.15c.06-.67.06-1.27.06-1.88 0-9.21-4.97-16.43-14.79-16.43-8.49 0-15.94 6.97-15.94 16.31 0 8.26 5.84 14.57 13.94 15.9.42.08 2.16.24 2.61.24 4.51 0 9.17-2.04 11.88-5.58 1.09-1.39 1.88-3.03 2.2-4.87ZM52.68 50.76c4.55 0 7.03 3.27 7.39 6.55H44.61c1.09-4 4.18-6.55 8.06-6.55ZM518.62 31.86h-8.19v44.28h26.33v-7.69h-18.14V31.86zM584.64 44.34c-4.05 0-7.99 1.09-10.42 2.43v7.04c2.49-1.46 5.46-2.55 8.72-2.55 4.67 0 7.34 2.43 7.34 5.58v2.31c-1.27-1.33-4.19-2.73-7.71-2.73-6.47 0-11.87 4.07-11.87 10.07 0 6.37 5.4 10.38 11.63 10.38 3.88 0 6.8-1.64 7.95-3.09v2.37h7.77V56.49c0-7.58-5.1-12.14-13.41-12.14Zm-.49 26.58c-3.13 0-6.11-1.58-6.11-4.43s2.97-4.49 6.11-4.49 6.25 1.64 6.25 4.49-3.16 4.43-6.25 4.43ZM626.3 49.44c-1.7-2.73-5.52-5.1-10.13-5.1-8.56 0-15.11 7.1-15.11 16.26s6.55 16.26 15.11 16.26c4.61 0 8.43-2.37 10.13-5.1v4.37h8.01V30.04h-8.01v19.4Zm-8.56 20.57c-4.91 0-8.8-4.06-8.8-9.4s3.88-9.34 8.8-9.34 8.8 4 8.8 9.34-3.82 9.4-8.8 9.4ZM681.26 49.86v-4.79h-8.01v31.07h8.01V60.97c0-6.01 3.58-8.49 8.17-8.49.61 0 1.21.06 1.88.12v-8.01c-.3 0-.61-.06-.91-.06-4.23 0-7.44 2.37-9.14 5.34ZM709.88 59.09l-5.46-2.37c-2.12-.97-3.28-1.58-3.28-3.16 0-1.82 1.58-2.85 3.88-2.85 3.03 0 6.13 1.52 8.74 3.52v-7.22c-2.25-1.58-5.28-2.67-8.8-2.67-6.55 0-11.29 4.25-11.29 9.65 0 4.55 2.67 6.61 5.95 8.07l5.7 2.49c1.88.91 2.67 1.52 2.67 3.03 0 2-1.88 3.03-4.43 3.03-3.52 0-7.4-1.52-10.25-4.13v7.46c2.61 1.76 6.25 2.91 10.32 2.91 6.25 0 11.95-3.7 11.95-9.77 0-4.07-2-6.37-5.7-8.01ZM736.31 44.34c-3.92 0-7.14 1.88-8.78 4.37V30.04h-8.01v46.09h8.01V58.35c0-3.7 2.25-6.8 6.07-6.8s6.05 3.09 6.05 6.73v17.84h8.01V56.16c0-6.92-4.19-11.83-11.35-11.83ZM757.73 31.01h-.06c-2.61 0-4.67 2-4.67 4.61s2.06 4.61 4.67 4.61h.06c2.61 0 4.67-2 4.67-4.61s-2.06-4.61-4.67-4.61ZM753.73 45.07h8.01v31.07h-8.01zM786.11 44.34c-4.61 0-8.41 2.37-10.11 5.1v-4.37h-8.01v43.79H776V71.77c1.7 2.73 5.5 5.1 10.11 5.1 8.56 0 15.11-7.04 15.11-16.26s-6.55-16.26-15.11-16.26Zm-1.58 25.67c-4.96 0-8.78-4.06-8.78-9.4s3.82-9.34 8.78-9.34 8.8 4 8.8 9.34-3.88 9.4-8.8 9.4ZM568.04 66.37h-6.81c-.63 1.22-1.68 2.23-3.02 2.88-1.36.67-3.85 1.07-5.59.69-4.15-.91-7.07-3.34-7.76-7.27h23.22c.06-.67.06-1.28.06-1.88 0-9.24-4.98-16.47-14.83-16.47-8.51 0-15.99 6.99-15.99 16.35 0 8.29 5.86 14.61 13.98 15.95.43.08 2.17.24 2.61.24 4.52 0 9.2-2.05 11.91-5.59 1.09-1.4 1.88-3.04 2.21-4.88Zm-14.85-15.62c4.56 0 7.05 3.28 7.42 6.57h-15.5c1.09-4.01 4.19-6.57 8.08-6.57ZM669.16 66.37h-6.81c-.63 1.22-1.68 2.23-3.02 2.88-1.36.67-3.85 1.07-5.59.69-4.15-.91-7.07-3.34-7.76-7.27h23.22c.06-.67.06-1.28.06-1.88 0-9.24-4.98-16.47-14.83-16.47-8.51 0-15.99 6.99-15.99 16.35 0 8.29 5.86 14.61 13.98 15.95.43.08 2.17.24 2.61.24 4.52 0 9.2-2.05 11.91-5.59 1.09-1.4 1.88-3.04 2.21-4.88Zm-14.85-15.62c4.56 0 7.05 3.28 7.42 6.57h-15.5c1.09-4.01 4.19-6.57 8.08-6.57Z" class="cls-4"/></svg>