<?xml version="1.0" ?>
<svg xmlns="http://www.w3.org/2000/svg" viewBox="0 0 200 145" version="1.1">
	<g id="ShipStation-Partner-Logo---Cdiscount" stroke="none" stroke-width="1" fill="none" fill-rule="evenodd">
		<g id="cdiscount" transform="translate(33.000000, 62.000000)" fill-rule="nonzero">
			<path d="M14.8549618,14.4648855 C13.7969466,15.9610687 12.0763359,16.8480916 10.248855,16.8427481 C6.97862595,16.8427481 4.50992366,14.3633588 4.50992366,11.0770992 C4.50992366,9.43129771 5.10839695,7.94580153 6.19312977,6.89312977 C7.24580153,5.87251908 8.68854962,5.31145038 10.248855,5.31145038 C12.0816794,5.30610687 13.8022901,6.19847328 14.8549618,7.69465649 L15.0259542,7.9351145 L18.429771,5.04961832 L18.2587786,4.84656489 C16.2656489,2.48473282 13.3320611,1.1221374 10.2435115,1.13276203 C4.59541985,1.12748092 0,5.58931298 0,11.0770992 C0,16.5541985 4.59541985,21.000141 10.2435115,21.000141 C13.3267176,21.0160305 16.2603053,19.6641221 18.2534351,17.3129771 L18.4244275,17.1099237 L15.0206107,14.2244275 L14.8549618,14.4648855 Z" id="Path" fill="#E23A05"/>
			<path d="M34.8770992,0.29389313 L34.8770992,20.519084 L31.1206107,20.519084 L31.1206107,19.6320611 C29.9396947,20.3267176 28.4114504,20.759542 26.8832061,20.759542 C22.8328244,20.759542 19.5091603,17.7030534 19.5091603,13.2251908 C19.5091603,8.66717557 22.8328244,5.69083969 26.8832061,5.69083969 C28.3687023,5.69618321 29.8221374,6.07557252 31.1206107,6.79694656 L31.1206107,0.29389313 L34.8770992,0.29389313 Z M31.1206107,16.121374 L31.1206107,10.270229 C30.2335878,9.5221374 28.9778626,9.03587786 27.5564885,9.03587786 C25.0610687,9.03587786 23.2122137,10.8312977 23.2122137,13.2198473 C23.2122137,15.6885496 25.0610687,17.3770992 27.5564885,17.3770992 C28.951145,17.3770992 30.2389313,16.8961832 31.1206107,16.121374 Z M38.0885496,7.12824427 L41.8183206,7.12824427 L41.8183206,20.519084 L38.0885496,20.519084 L38.0885496,7.12824427 Z M45.6816794,16.5755725 C47.4770992,17.3557252 48.8450382,17.7564885 50.6725191,17.7564885 C52.3877863,17.7564885 53.0610687,17.1152672 53.0610687,16.3618321 C53.0610687,15.5282443 52.2274809,15.1541985 49.9778626,14.6732824 C46.8358779,13.978626 44.559542,12.9580153 44.559542,10.1419847 C44.559542,7.5129771 46.7343511,5.69083969 50.1114504,5.69083969 C52.3931298,5.69083969 54.2152672,6.22519084 55.7969466,6.87175573 L54.5625954,9.60763359 C53.1412214,9.07328244 51.4793893,8.66717557 50.0312977,8.66717557 C48.6099237,8.66717557 47.8885496,9.17480916 47.8885496,9.95496183 C47.8885496,10.7618321 48.7755725,11.1358779 51.1053435,11.6167939 C54.4824427,12.3167939 56.4435115,13.4923664 56.4435115,16.1480916 C56.4435115,18.910687 54.3221374,20.7328244 50.5977099,20.7328244 C48.0755725,20.7328244 46.440458,20.3854962 44.2977099,19.3381679 L45.6816794,16.5755725 Z M71.640458,17.8099237 C70.3259542,19.6053435 68.2633588,20.7328244 66.0083969,20.7328244 C61.610687,20.7328244 58.0412214,17.3824427 58.0412214,13.2251908 C58.0412214,9.04122137 61.6053435,5.69083969 66.0083969,5.69083969 C68.3435115,5.69083969 70.3793893,6.81832061 71.6938931,8.5870229 L69.278626,10.8152672 C68.5519084,9.71984733 67.3229008,9.05725191 66.0083969,9.04656489 C63.6465649,9.04656489 61.7175573,10.9221374 61.7175573,13.2305344 C61.7175573,15.5122137 63.6465649,17.3877863 66.0083969,17.3877863 C67.3335878,17.3770992 68.5625954,16.7038168 69.278626,15.5923664 L71.640458,17.8099237 Z M88.6916031,13.2198473 C88.6916031,17.3770992 85.1274809,20.7274809 80.7244275,20.7274809 C76.321374,20.7274809 72.7572519,17.3770992 72.7572519,13.2198473 C72.7572519,9.03587786 76.321374,5.68549618 80.7244275,5.68549618 C85.1274809,5.68549618 88.6916031,9.03587786 88.6916031,13.2198473 Z M85.0206107,13.2198473 C85.0206107,10.9114504 83.1183206,9.03587786 80.729771,9.03587786 C78.3679389,9.03587786 76.4389313,10.9114504 76.4389313,13.2198473 C76.4389313,15.5015267 78.3679389,17.3770992 80.729771,17.3770992 C83.1129771,17.3770992 85.0206107,15.5015267 85.0206107,13.2198473 L85.0206107,13.2198473 Z M104.834351,6.07557252 L104.834351,20.519084 L101.10458,20.519084 L101.10458,19.5519084 C99.9984733,20.3053435 98.6358779,20.7328244 97.1343511,20.7328244 C92.870229,20.7328244 90.9091603,18.7503817 90.9091603,14.0267176 L90.9091603,6.07557252 L94.6389313,6.07557252 L94.6389313,14.0267176 C94.6389313,16.2816794 95.7450382,17.3770992 97.8022901,17.3770992 C99.1435115,17.3770992 100.244275,16.9496183 101.099237,16.2229008 L101.099237,6.07022901 L104.834351,6.07022901 L104.834351,6.07557252 Z M121.757252,12.3916031 L121.757252,20.519084 L118.027481,20.519084 L118.027481,12.3916031 C118.027481,10.1366412 116.921374,9.04122137 114.864122,9.04122137 C113.549618,9.04122137 112.475573,9.46870229 111.647328,10.1954198 L111.647328,20.519084 L107.917557,20.519084 L107.917557,5.95267176 L111.647328,5.95267176 L111.647328,6.86641221 C112.721374,6.1129771 114.062595,5.68549618 115.537405,5.68549618 C119.796183,5.68549618 121.757252,7.67328244 121.757252,12.3916031 L121.757252,12.3916031 Z M129.366412,9.03587786 L129.366412,14.1870229 C129.366412,16.789313 129.793893,17.5374046 131.674809,17.5374046 C132.316031,17.5374046 132.882443,17.4572519 133.390076,17.4038168 L133.390076,20.1931298 C133.229771,20.2465649 132.10229,20.7274809 130.012977,20.7274809 C127.570992,20.7274809 125.615267,19.1992366 125.615267,16.1427481 L125.615267,9.03587786 L123.552672,9.03587786 L123.552672,5.95267176 L125.615267,5.95267176 L125.615267,0.29389313 L129.371756,0.29389313 L129.371756,5.95267176 L133.443511,5.95267176 L133.443511,9.03587786 L129.366412,9.03587786 Z" id="Shape" fill="#293847"/>
			<path d="M37.9442748,2.20152672 C37.9442748,0.99389313 38.9061069,0 40.0870229,0 C41.2679389,0 42.2083969,0.99389313 42.2083969,2.20152672 C42.2083969,3.40916031 41.2679389,4.37633588 40.0870229,4.37633588 C38.8954198,4.36564885 37.9335878,3.39312977 37.9442748,2.20152672 Z" id="Path" fill="#E23A05"/>
		</g>
	</g>
</svg>