<?xml version="1.0" ?>
<svg xmlns="http://www.w3.org/2000/svg" viewBox="0 0 304 120" fill="none">
	<path d="M20 60.9761C20 36.3234 31.8905 21.9675 52.6172 21.9675C67.7795 21.9675 78.4731 31.3898 81.4185 47.7208H71.3777C68.7587 36.4327 62.3238 30.7341 52.5006 30.7341C37.8823 30.7341 29.6989 41.8035 29.6989 60.9839C29.6989 80.1642 37.5559 91.2337 52.1742 91.2337C62.0985 91.2337 68.5411 85.6443 71.2689 74.2469H81.3097C78.3643 90.6872 67.7795 100 52.182 100C31.7817 99.9924 20 85.5272 20 60.9761Z" fill="#000044"/>
	<path d="M97.5655 73.3642V73.9106C97.8919 84.5429 104.544 91.9903 115.129 91.9903C122.986 91.9903 129.095 87.8294 130.952 80.5929H140.006C137.822 91.7717 128.659 99.9918 115.79 99.9918C99.0965 99.9918 88.1852 88.4852 88.1852 71.3892C88.1852 54.2931 98.8789 42.7865 114.585 42.7865C130.291 42.7865 140.55 52.7553 140.985 69.3049C140.985 70.1792 140.876 72.0449 140.768 73.3564H97.5655V73.3642ZM98.1095 65.6905H131.387C130.517 56.0496 123.965 50.6788 114.694 50.6788C106.511 50.6788 98.9877 56.596 98.1095 65.6905Z" fill="#000044"/>
	<path d="M148.189 71.4985C148.189 54.4024 159.21 42.7865 175.359 42.7865C188.998 42.7865 197.617 50.4602 199.901 62.7319H190.521C188.881 55.2768 183.433 50.7881 175.25 50.7881C164.556 50.7881 157.36 59.3361 157.36 71.4985C157.36 83.6608 164.556 91.9903 175.25 91.9903C183.216 91.9903 188.671 87.3845 190.412 80.265H199.901C197.718 92.3181 188.664 99.9918 175.133 99.9918C158.875 99.9918 148.189 88.9223 148.189 71.4985Z" fill="#000044"/>
	<path d="M248.353 91.116V99.3361H205.695V91.116H222.497V51.6624H205.695V43.4423H231.442V91.116H248.353Z" fill="#000044"/>
	<path d="M227.074 20C223.259 20 220.204 22.9586 220.204 26.7916C220.204 30.8431 223.259 33.6924 227.074 33.6924C230.89 33.6924 233.836 30.8431 233.836 26.7916C233.836 22.9586 230.89 20 227.074 20Z" fill="#4B49F6"/>
	<path d="M282.855 91.1164V99.3365H256.999V30.8432H244.083V22.623H265.944V91.1164H282.855Z" fill="#000044"/>
</svg>