<?xml version="1.0" ?>
<svg xmlns="http://www.w3.org/2000/svg" version="1.2" viewBox="0 0 184.177 184.177" baseProfile="tiny-ps">
	<g>
		<path d="M23.696,129.943c-1.284,7.031,2.782,13.663,9.084,14.816l73.133,13.355   c6.302,1.151,12.451-3.615,13.734-10.646l5.91-32.353L29.604,97.591L23.696,129.943z" fill="#00A79D"/>
		<path d="M146.744,76.103c-9.582,2.172-12.736,21.637-18.016,19.017c-1.545-0.767-3.039-3.749-3.783-7.721   c-0.615-0.181-1.123-0.675-1.277-1.346c-0.178-0.798,0.193-1.585,0.865-1.979c-0.084-1.251-0.094-2.556-0.01-3.888   c-0.631-0.173-1.148-0.672-1.303-1.354c-0.223-0.986,0.395-1.969,1.383-2.192c0.125-0.031,0.254-0.042,0.379-0.046   c0.26-1.357,0.627-2.717,1.119-4.048c-0.502-0.229-0.9-0.677-1.031-1.257c-0.225-0.988,0.396-1.968,1.385-2.191   c0.414-0.095,0.826-0.033,1.182,0.134c0.816-1.45,1.818-2.832,3.021-4.103c-0.064-0.13-0.121-0.265-0.152-0.412   c-0.225-0.986,0.398-1.969,1.383-2.191c0.504-0.115,1.008-0.008,1.408,0.258c1.275-0.951,2.707-1.801,4.32-2.521   c-0.18-0.962,0.428-1.902,1.389-2.122c0.811-0.184,1.611,0.207,1.998,0.893c0.57-0.166,1.158-0.322,1.764-0.459   c0.947-0.215,1.875-0.371,2.779-0.482c0.211-0.553,0.686-0.993,1.307-1.137c0.826-0.187,1.646,0.225,2.023,0.944   c1.896,0.021,3.688,0.267,5.365,0.694c0.231-0.5,0.678-0.893,1.258-1.023c0.984-0.227,1.967,0.395,2.19,1.38   c0.066,0.286,0.051,0.569-0.012,0.835c1.434,0.637,2.77,1.408,4.006,2.288c0.203-0.152,0.436-0.267,0.695-0.325   c0.988-0.225,1.971,0.395,2.193,1.383c0.096,0.419,0.031,0.836-0.145,1.199c1.227,1.161,2.32,2.423,3.283,3.732   c0.02-0.005,0.035-0.014,0.055-0.019c0.986-0.224,1.969,0.396,2.193,1.382c0.127,0.567-0.029,1.131-0.371,1.553   c3.607,6.379,4.211,13.004,1.609,14.516C165.369,88.882,156.322,73.931,146.744,76.103z" fill="#8DC63F"/>
		<g>
			<polygon points="49.003,31.125 58.222,46.373 64.405,43.696 56.017,29.992   " fill="none"/>
			<path d="M116.434,35.269c-2.838-6.558-10.065-9.743-16.142-7.112L70.721,40.961L60.636,24.485    c-0.004-0.006-0.009-0.011-0.013-0.017c-0.059-0.094-0.133-0.175-0.2-0.263c-0.771-1.01-2.013-1.495-3.221-1.306    c-0.005,0.001-0.01,0-0.015,0.001L42.99,25.193c-0.005,0.001-0.009,0.002-0.014,0.002l-0.045,0.007    c-0.074,0.012-0.14,0.04-0.212,0.057c-0.141,0.032-0.281,0.061-0.419,0.112c-0.138,0.051-0.264,0.12-0.392,0.187    c-0.065,0.034-0.133,0.055-0.197,0.093c-0.006,0.004-0.01,0.009-0.016,0.012c-0.147,0.09-0.279,0.198-0.409,0.308    c-0.043,0.036-0.093,0.065-0.133,0.103c-0.107,0.1-0.197,0.214-0.29,0.327c-0.048,0.058-0.106,0.11-0.15,0.171    c-0.308,0.426-0.502,0.928-0.587,1.459c-0.02,0.126-0.048,0.251-0.054,0.379c-0.003,0.056,0.008,0.114,0.008,0.17    c0,0.17,0.004,0.341,0.031,0.511c0.001,0.007,0,0.013,0.001,0.019c0.024,0.148,0.068,0.287,0.109,0.427    c0.017,0.058,0.024,0.118,0.045,0.176c0.074,0.207,0.169,0.402,0.279,0.588c0.006,0.009,0.008,0.02,0.014,0.029l11.353,18.776    l-22.128,9.581c-6.078,2.632-8.699,10.081-5.859,16.639l5.742,13.26l92.511-40.057L116.434,35.269z M58.222,46.373l-9.219-15.248    l7.014-1.133l8.388,13.703L58.222,46.373z M91.804,52.596c-2.287,0-4.141-1.855-4.141-4.142c0-2.287,1.854-4.142,4.141-4.142    c2.287,0,4.142,1.854,4.142,4.142C95.946,50.741,94.091,52.596,91.804,52.596z" fill="#00A79D"/>
		</g>
	</g>
</svg>