<?xml version="1.0" encoding="utf-8"?>
<svg xmlns="http://www.w3.org/2000/svg" viewBox="0 0 250 250">
<path fill="#FFFFFF" d="M122.5,3.2c-4.8,1.2-8.4,3.4-11.4,6.2c-1,0.9-2.3,2.6-4.3,1.6c-0.4-0.2-0.7-0.5-1.1-0.8
	c-2.6-1.8-6.1-2.8-10.5-2.8c-9.7,0-17,3.7-22.1,8.4c-2,1.8-3.7,4.1-4.9,6.5c-0.8,1.7-1,4.1-3.3,4.4c-1.1,0.1-2.3-0.5-3.2-0.6
	c-1.2-0.2-2.3-0.2-3.6-0.1c-6.5,0.7-11.6,4.2-15.3,7.6c-4.5,4.2-8.5,9.8-9.3,17.4c-0.1,1.1-0.1,2.3-0.1,3.6c0,1.1-0.9,2.4-2,2.7
	c-1.1,0.3-2.2,0.3-3.1,0.7c-2.7,0.9-5.1,2.6-7,4.4c-5,4.7-9.3,11.6-10.1,20.5c-0.4,4.6,0.4,8.3,1.8,11.3c0.2,0.4,0.5,0.9,0.6,1.3
	c0.5,2.7-2.3,3.5-3.6,4.5c-4.6,3.7-7,9.7-7.6,16.9c-0.9,9.9,2.4,16.8,6.7,21.6c1,1.1,2.8,2.2,2.2,4.5c-0.1,0.4-0.5,0.8-0.8,1.2
	c-0.9,1.2-1.5,2.5-2,4.1c-2.1,6.8-0.4,15.1,2,20.4c2.5,5.4,6.2,10.1,11.4,12.8c1.9,1,5.2,1.2,5,4.2c-0.1,1.1-0.6,2.1-0.7,3.1
	c-0.4,3.8,0.7,7,1.8,9.5c1.5,3.5,3.6,6.5,6.1,9.1c4.3,4.6,9.8,8.3,17.4,9.1c1.1,0.1,2.3,0,3.6,0.1c1.2,0.1,2.4,1.1,2.7,2
	c0.2,0.6,0.1,1.2,0.2,1.7c0.8,3.5,2.9,6.3,5,8.6c4.8,5,12.1,9.4,21.3,9.9c3.9,0.2,7.2-0.5,9.9-1.6c1-0.4,1.9-1,3-0.8
	c1.1,0.2,1.6,0.9,2.2,1.8c1.5,2.5,3.9,4.5,6.2,5.8c3.4,1.9,7.5,3.2,12.5,3.5c9.4,0.6,16.3-2.6,21-6.9c0.8-0.8,1.5-1.8,2.7-2.1
	c1.5-0.4,2.2,0.3,3,0.8c2.6,1.9,6.4,3.1,10.9,3.1c5.1,0,9.4-1.2,13-3c5.2-2.6,9.9-6.3,12.5-11.6c0.9-1.9,1.1-4.4,3.6-4.4
	c1.1,0,2.1,0.5,3.1,0.7c3.7,0.5,7.1-0.5,9.6-1.6c3.6-1.5,6.7-3.7,9.3-6.1c4.6-4.2,8.5-9.7,9.3-17.4c0.1-1.2,0-2.4,0.1-3.8
	c0.1-1.2,1.2-2.3,2.1-2.5c1.2-0.2,2.1-0.3,3.1-0.7c2.9-1,5-2.6,7-4.4c5.1-4.7,9.3-11.5,10.1-20.4c0.4-3.9-0.3-7.4-1.3-10.1
	c-0.3-0.9-1-1.8-1.1-2.7c-0.2-2.7,2.4-3.3,3.8-4.4c1.6-1.3,2.8-2.9,3.8-4.4c2-3.3,3.4-7.7,3.8-12.5c0.8-9.8-2.3-16.8-6.7-21.6
	c-0.6-0.6-1.6-1.5-1.9-2.2c-0.6-1.4-0.1-2.3,0.5-3.1c1.9-2.4,2.8-5.8,3-9.7c0.4-5.9-0.8-10.3-2.5-14.3c-2.5-5.8-6.4-10.8-11.8-13.6
	c-1.7-0.9-4.6-1.2-4.8-3.7c0-0.5,0.2-1.1,0.4-1.6c1.1-4.3-0.2-8.9-1.6-12c-1.7-3.7-4.1-6.9-6.8-9.6c-4.3-4.3-10.2-7.9-18.4-8.3
	c-0.7,0-1.4,0.1-1.9,0c-1-0.2-2-1.1-2.2-1.9c-0.3-1.2-0.3-2.2-0.7-3.1c-1-2.8-2.5-5-4.4-7c-4.8-5.2-11.3-9.3-20.3-10.1
	c-4.5-0.4-8.4,0.4-11.4,1.7c-0.4,0.2-0.9,0.5-1.3,0.6c-1.2,0.2-2.5-0.4-2.9-0.9c-0.3-0.4-0.5-0.9-0.7-1.3c-3.7-6-12.4-9.6-22.4-9.1
	C126.4,2.4,124.4,2.7,122.5,3.2"/>
<path d="M125.1,12.2C62.8,12.2,12.3,62.7,12.3,125c0,62.3,50.5,112.8,112.8,112.8c62.3,0,112.8-50.5,112.8-112.8
	C237.9,62.7,187.4,12.2,125.1,12.2z M125,234.6c-60.5,0-109.6-49.1-109.6-109.6S64.5,15.4,125,15.4S234.6,64.4,234.6,125
	S185.6,234.6,125,234.6z M125,18.2C66,18.2,18.2,66,18.2,125c0,59,47.8,106.8,106.8,106.8c59,0,106.8-47.8,106.8-106.8
	C231.8,66,184,18.2,125,18.2z M125,206.2c-44.8,0-81.2-36.4-81.2-81.2c0-44.8,36.4-81.2,81.2-81.2c44.8,0,81.2,36.4,81.2,81.2
	C206.2,169.8,169.9,206.2,125,206.2z M125,47.4c-42.8,0-77.5,34.7-77.5,77.5c0,42.8,34.7,77.5,77.5,77.5c42.8,0,77.5-34.7,77.5-77.5
	C202.6,82.1,167.8,47.4,125,47.4z M125,199.3c-41,0-74.3-33.3-74.3-74.3c0-41,33.3-74.3,74.3-74.3c41,0,74.3,33.3,74.3,74.3
	C199.3,166,166.1,199.3,125,199.3z"/>
<path d="M117.7,6.8c-1.4,0.8-3,1.9-4.2,3c-1.3,1.2-2.5,2.6-4.4,2.9c-1.2,0.2-2.4,0-3.3-0.2c-0.9-0.3-1.4-0.9-2.2-1.4
	c-4.5-3-13-2.4-18.3-0.7C78.4,12.6,72,17.3,69.7,24c-0.6,1.8-1.8,3.1-3.4,3.9c-0.9,0.4-1.9,0.7-2.9,0.6c-1-0.1-1.9-0.5-3.1-0.6
	c-4.6-0.6-8.6,1.4-11.4,3C43,34.4,38,39.8,36,47.1c-0.6,2.1-0.7,4.1-0.7,6.5c-0.1,2.4-1.1,3.8-2.4,4.9c-1.4,1.2-3.7,1.1-5.5,1.8
	c-5,2-8.5,6.3-11.1,10.8c-1.7,3.1-3.1,6.8-3.6,11.1c-0.4,3.7,0.1,7,1.1,9.5c0.4,0.9,0.9,1.6,1.2,2.5c0.6,2.4-0.3,4.4-1.4,5.7
	c-0.6,0.7-1.3,1.1-2.1,1.5c-0.8,0.5-1.5,1.1-2.1,1.6c-4.5,4.2-7.1,14.1-5.2,22.7c0.8,3.9,2.4,7.2,4.6,10c1,1.2,2.5,2.4,3.3,4
	c0.8,1.7,0.8,4.5-0.2,5.9c-0.5,0.8-1.1,1.4-1.5,2.2c-1.2,2.4-1.7,5.7-1.5,9.4c0.2,4.6,1.4,8.3,3,11.6c2.4,4.9,5.8,8.9,10.7,11.2
	c0.9,0.4,1.8,0.6,2.6,1c2.3,1.2,3.9,4,3,7.2c-0.6,2-0.5,4.3,0,6.5c0.9,3.9,2.7,6.9,4.9,9.7c2.1,2.6,4.6,5.1,7.6,6.9
	c2.9,1.8,6.6,3.4,11.1,3.6c1.4,0,2.5-0.1,3.4,0.2c1.9,0.5,3.3,1.8,4.1,3.2c0.5,0.9,0.4,1.6,0.7,2.9c0.4,1.8,1.4,3.4,2.5,4.9
	c3,4.2,7.2,7.4,12.5,9.4c3.5,1.3,7.9,2.3,12.6,1.8c1.9-0.2,3.9-0.8,5.6-1.7c2.8-1.4,6.4-0.5,7.9,1.6c0.5,0.7,0.8,1.5,1.4,2.3
	c3,4,8.8,6.2,15.2,6.7c8.4,0.7,14.9-2.2,19.2-6c0.7-0.6,1.2-1.3,1.8-1.8c1.4-1.1,3.6-1.8,5.7-1.2c0.9,0.2,1.5,0.8,2.3,1.4
	c3.5,2.6,10,3.1,15.1,2c3.9-0.9,7.2-2.5,10.1-4.5c2.6-1.8,5.2-4.4,6.9-7.6c0.8-1.6,1.2-3.5,2.5-4.7c1.2-1.1,3.1-2.2,5.3-1.7
	c1,0.2,1.9,0.6,2.9,0.7c1.2,0.1,2.3,0,3.4-0.2c5.9-0.9,10.6-4.6,14-8c3.5-3.6,6.6-8.3,7.2-14.7c0.1-1.2,0-2.3,0.1-3.5
	c0.3-3.1,2.5-5,5.5-5.4c2-0.3,3.8-1.2,5.2-2.2c5.6-3.7,9.9-10,11.5-17.7c0.8-4,0.7-9.1-0.9-12.6c-0.4-0.9-0.8-1.6-1-2.6
	c-0.3-2.3,0.7-4.3,1.8-5.3c0.6-0.6,1.4-0.9,2.2-1.5c2.9-1.9,4.9-5.3,6-8.6c1.3-3.8,1.9-8.4,1.4-12.9c-0.5-4.2-1.9-8-3.7-10.9
	c-1-1.5-2.1-2.7-3.3-3.9c-1.3-1.3-2.1-3.1-1.8-5.4c0.3-2.1,1.7-3,2.5-4.9c0.7-1.7,1.2-3.7,1.4-6c0.4-5-0.6-9.1-2-12.5
	c-2.3-5.9-6.2-11-11.9-13.5c-0.8-0.4-1.7-0.6-2.6-1.1c-1.5-0.9-2.6-2.4-2.9-4.4c-0.2-1.3,0.2-2.1,0.4-3.1c1.3-5.6-1.5-10.7-3.7-14
	c-2-2.9-4.3-5.6-7.1-7.6c-2.7-2-6.1-3.7-10.1-4.5c-2.1-0.4-4.9-0.1-6.6-0.7c-1.7-0.6-3.2-1.9-3.8-3.5c-0.3-0.8-0.3-1.7-0.5-2.5
	c-0.2-0.8-0.4-1.6-0.7-2.2c-1.8-3.9-5-6.9-8.5-9.2c-4.4-2.9-10.9-5.8-18.6-4.7c-1.8,0.3-3.2,0.6-4.6,1.3c-1.5,0.7-2.8,1.2-4.7,0.9
	c-1.6-0.3-3-1.1-3.7-2.2c-0.4-0.6-0.6-1.3-1-1.9c-3.3-4.8-11.1-7.7-19.3-7.3C124.3,4,120.7,5.1,117.7,6.8 M128.8,0.5
	c10.1-0.5,18.9,3.2,22.7,9.2c0.3,0.4,0.4,1,0.7,1.4c0.4,0.5,1.7,1.2,2.9,0.9c0.4-0.1,0.9-0.4,1.4-0.6c3-1.4,7-2.2,11.6-1.7
	c9.1,0.9,15.7,5,20.6,10.3c1.9,2.1,3.5,4.3,4.5,7.1c0.3,0.9,0.3,2,0.7,3.1c0.2,0.8,1.2,1.7,2.2,2c0.6,0.1,1.3,0,2,0
	c8.3,0.4,14.3,4,18.7,8.4c2.8,2.8,5.2,6,6.9,9.8c1.4,3.1,2.7,7.8,1.6,12.2c-0.1,0.6-0.4,1.1-0.4,1.7c0.2,2.6,3.1,2.8,4.9,3.7
	c5.5,2.8,9.5,8,12,13.8c1.8,4.1,3,8.5,2.6,14.5c-0.3,4-1.2,7.4-3.1,9.8c-0.6,0.8-1.1,1.8-0.6,3.2c0.3,0.8,1.3,1.6,1.9,2.3
	c4.4,4.9,7.6,12,6.8,21.9c-0.4,4.9-1.8,9.4-3.9,12.7c-0.9,1.5-2.2,3.2-3.8,4.5c-1.4,1.1-4.1,1.7-3.8,4.4c0.1,0.9,0.8,1.9,1.1,2.8
	c1,2.7,1.7,6.3,1.3,10.2c-0.9,9-5,15.9-10.3,20.7c-2.1,1.9-4.2,3.5-7.1,4.5c-1,0.3-1.9,0.4-3.1,0.7c-1,0.2-2,1.3-2.2,2.5
	c-0.2,1.4,0,2.6-0.1,3.8c-0.9,7.8-4.8,13.4-9.5,17.6c-2.6,2.4-5.8,4.6-9.4,6.1c-2.6,1.1-6.1,2.1-9.8,1.6c-1-0.1-2.1-0.7-3.2-0.7
	c-2.5,0-2.8,2.6-3.7,4.5c-2.6,5.4-7.5,9.1-12.7,11.7c-3.6,1.8-8,3.1-13.2,3.1c-4.5,0-8.4-1.2-11.1-3.2c-0.8-0.6-1.5-1.2-3.1-0.9
	c-1.2,0.3-1.9,1.4-2.7,2.2c-4.7,4.4-11.7,7.6-21.3,7c-5-0.3-9.2-1.6-12.7-3.6c-2.3-1.3-4.8-3.4-6.3-5.9c-0.6-1-1.1-1.6-2.2-1.8
	c-1.2-0.2-2.1,0.4-3.1,0.8c-2.8,1.2-6,1.9-10,1.7c-9.3-0.5-16.7-4.9-21.6-10c-2.2-2.3-4.3-5.2-5.1-8.7c-0.1-0.5-0.1-1.1-0.2-1.7
	c-0.3-1-1.5-2-2.7-2c-1.3-0.1-2.5,0-3.6-0.1c-7.8-0.8-13.4-4.6-17.7-9.2c-2.5-2.6-4.6-5.7-6.1-9.3c-1.1-2.6-2.2-5.8-1.8-9.6
	c0.1-1.1,0.6-2,0.7-3.1c0.2-3-3.2-3.2-5.1-4.2c-5.2-2.8-9-7.5-11.6-13c-2.5-5.3-4.2-13.8-2-20.6c0.5-1.6,1.1-2.9,2-4.1
	c0.3-0.4,0.7-0.8,0.8-1.2c0.6-2.3-1.2-3.5-2.2-4.5C3,134-0.3,126.9,0.6,116.9c0.7-7.3,3.1-13.4,7.7-17.1c1.3-1,4.1-1.9,3.6-4.6
	c-0.1-0.4-0.4-0.9-0.6-1.4C10,90.8,9.2,87,9.6,82.3c0.7-9,5.1-16,10.2-20.8c2-1.9,4.3-3.5,7.1-4.5c0.9-0.3,2-0.4,3.1-0.7
	c1.1-0.3,2-1.6,2-2.7c0.1-1.4,0-2.6,0.1-3.7c0.8-7.8,4.9-13.4,9.5-17.7c3.8-3.5,8.9-7.1,15.5-7.7c1.3-0.1,2.5-0.1,3.7,0.1
	c0.9,0.1,2.2,0.8,3.3,0.6c2.3-0.3,2.5-2.7,3.3-4.4c1.2-2.5,3-4.8,5-6.6C77.6,9.4,85,5.7,94.9,5.7c4.4,0,8,1.1,10.6,2.9
	c0.3,0.2,0.7,0.6,1.1,0.8c2,1,3.4-0.8,4.4-1.7c3.1-2.9,6.7-5,11.6-6.3C124.4,1,126.4,0.7,128.8,0.5 M123.7,89.1c0.2,1.7,1,4-0.1,5.3
	c-0.2,0.2-0.5,0.3-0.8,0.5c-0.5,0.4-1.7,1.7-1.9,2.3c-0.7,1.8,0.9,4.4,1.6,5.5c0.2,0.4,0.5,1.2,0.9,1.3c0.6,0.2,1.5,0,2.2,0
	c0.8,0,1.5,0,2.3,0c1.3-1.3,2.3-3,2.4-5.3c0.2-3.7-1.4-6.9-2.8-9.2c-0.2,0.4-0.4,0.9-0.7,1.4c-0.3-0.1-0.5-0.2-0.9-0.2
	c-0.4-1.6-1.5-2.7-2.4-3.6C123.8,87.6,123.7,88.3,123.7,89.1 M126.6,89.3c0.3-0.5,0.6-1.1,1.1-1.4c2.8,3.5,5.5,11.9,1.6,16.2h3.4
	v1.6H117V104h3.4c-1-1.7-2.5-3.6-2.3-6.1c0.1-1.3,0.6-2.5,1.4-3.1c1-0.8,1.7-1.2,2.3-2.3c0.9-1.6,1.3-4.6,0.4-6.9
	c0.2-0.2,0.5-0.3,0.7-0.5C124.5,86.2,125.5,87.7,126.6,89.3 M121.7,111.7h5.2c0-0.8,0.1-1.6,0.2-2.4h-6.1
	C121.2,110.2,121.5,110.9,121.7,111.7 M132.7,107.7v1.6H130c-0.3,0.7-0.4,1.6-0.7,2.3c0.2,0.1,0.7,0,1,0.1v1.3h-10.9v-1.3h1.2
	c-0.1-0.7-0.4-1.6-0.6-2.4h-3v-1.6H132.7z M122.8,163.5c0.1,3.3,0.3,6.5,0.3,9.8c0.3,0.1,0.9,0,1.4,0.1c0.2-3.3,0.4-6.6,0.6-9.9h1.6
	c-0.2,3.8-0.5,7.6-0.7,11.5h-4.4c-0.1-3.8-0.4-7.8-0.3-11.5H122.8z M140.3,123c-3.1,0-6.6-1.4-8.6-2.9c-1-0.7-1.6-1.7-3.5-1.5
	c-0.9,0.1-2.9,1-3.1,1.6c-0.2,0.5,0,1.6,0,2.4v17.2c1.5-1,4.6-2.8,7.2-1.5c0.8,0.4,1.3,1.1,2,1.5c2.1,1.3,4.8,2.6,8,2.8
	c3,0.2,5.3-0.6,7.1-1.8c0.3-0.2,1.2-0.7,1.2-1.1c0.1-0.5-0.4-1.6-0.5-2.3c-1.1-5.6-2.2-11-3.3-16.3C144.8,122.2,142.9,123,140.3,123
	 M119.4,118.5c-1.4,0.2-2,1.2-3.1,1.9c-2,1.3-5.1,2.5-8.1,2.5c-2.3,0-4.4-0.8-5.8-1.7c-0.2-0.1-0.4-0.3-0.6-0.2
	c-1.1,5.3-2.2,10.8-3.3,16.2c-0.1,0.7-0.5,1.9-0.4,2.4c0.1,0.4,0.9,0.8,1.2,1c1.3,0.9,3.3,1.7,5.2,1.8c4.2,0.3,7.5-1.3,10-2.8
	c0.8-0.5,1.3-1.2,2.2-1.5c2.1-0.9,4.6,0.1,5.9,0.9c0.3,0.2,0.6,0.4,0.9,0.4v-19.7C122.4,119.2,121.3,118.3,119.4,118.5 M122,114.9
	v2.4c0.9,0.3,1.7,0.8,2.4,1.2c0.6-0.5,1.2-0.9,2-1.1v-2.5H122z M152.3,138.4c-0.3,2-0.7,4.8,0.1,6.6c0.3,0.7,1,1,1.2,1.6H95.2
	c0.5-0.5,1.2-0.8,1.7-1.2c0.3-2.5-0.3-5-0.7-7.2c0.2,0,0.5,0.6,0.6,0.3c1.1-5.3,2.1-10.6,3.2-15.9h-2.1c-1.7,8.6-3.4,17.2-5,25.9
	c9.5,0,18.8,0.1,28.3,0.1c0.4,1.7,3.9,2.7,5.4,1.2c0.4-0.3,0.4-0.8,0.6-1.2c9.9,0,19.9,0,29.7,0.1c-2.1-8.6-4.3-17.1-6.3-25.7
	c-0.6,0-1.3-0.1-1.7,0.1c1.1,4.8,2,10,3,14.8c0.1,0.2,0,0.7,0.3,0.8C152.1,138.4,152.3,138.2,152.3,138.4
	C152.3,138.3,152.2,138.3,152.3,138.4 M119.5,113.6h10.8v1.3H129v2c1.7,0,2.6,1.2,3.7,2c2.2,1.5,5.3,2.7,9.5,2.3
	c2.5-0.3,3.9-1.9,5.6-3.1c0.2,1,0.4,2.1,0.6,3.1c1.2,0,2.1,0.1,3.3,0.1c2.4,9.7,4.8,19.2,7.1,28.9c-10.3,0-20.3-0.1-30.6-0.1
	c-0.3,0.3-0.5,0.7-0.9,1c-0.1,1.4-0.1,2.7-0.2,4h-1.6c0.1-1.1,0.2-2.1,0.2-3.2c-0.9,0.1-2.5,0.4-3.3-0.1c0,1.2,0.1,2.1,0.1,3.3
	c-0.5,0-1.2,0.1-1.6-0.1c0-1.5-0.1-2.8-0.1-4.2c-0.2-0.2-0.4-0.5-0.6-0.7c-9.8,0-19.5-0.1-29.3-0.1c1.9-9.7,3.8-19.3,5.7-29.1h3.7
	c0.2-0.9,0.4-1.9,0.6-2.8c0.2-0.1,0.4,0.1,0.5,0.2c1,0.9,2.6,2.3,4.2,2.6c0.9,0.1,1.8,0,2.7,0c0.9,0,1.8,0.2,2.6,0.1
	c1.7-0.2,3.8-1.4,5-2.2c1.5-1,2.6-2.4,5.2-1.8V115c-0.4-0.1-1.1,0-1.6-0.1C119.5,114.5,119.4,113.9,119.5,113.6 M126.8,188.4
	c-0.4,0.3-0.9,0.5-1.4,0.7c0.7,0.7,1.7,1.1,2.4,1.8c0.7,0.1,1.4,0.3,2,0.5c0.1-0.3,0.4-0.4,0.4-0.7
	C129.2,189.9,128.1,189.1,126.8,188.4 M171.9,160.3c1.9-3.5,4.4-10,2.1-14.6c-0.1,0-0.1-0.1-0.1-0.1c-2.9,2.6-3.2,9.2-2.2,14.1
	c-0.2,0-0.3,0.1-0.6,0.1c0,0.3,0.4,0.2,0.2,0.4c-1.7,2.2-3.7,4.5-5.9,6.7c-1.5,1.5-3.4,2.9-5,4.4c-0.3,0.3-1.5,1.5-1.7,1.5
	c-0.3,0-0.5-0.8-0.7-1c3.4-3.1,6.9-6.2,7.5-12.2c-6.2,2.5-8.5,8.9-9.8,16.3c-0.3-0.1-0.8-0.1-1.1-0.2c-0.2-0.1,0.1-0.3,0-0.4
	c-5.5,3.4-12.5,4.8-19,7.1c-3.2,1.1-6.4,2.3-9.3,3.7c-3,1.3-5.9,2.8-8.2,4.9c0.2,0.2,0.3,0.4,0.4,0.6c1.6-0.1,2.5-0.9,3.6-1.7
	c7.7-5.3,17.6-8.2,27.8-11c1.4-0.4,3.2-1.2,4.7-1.3c0.9-0.1,1.8,0.1,2.6,0.1c5.9-0.1,9.9-2.1,12.9-5c0.2-0.2,0.6-0.3,0.5-0.7
	c-1.7,0-3.2,0.2-4.7,0.4c-1.4,0.2-2.9,0.4-4.1,1c-0.7,0.3-1.4,1-2,1.4c-0.7,0.5-1.3,1-2,1.5c-0.3-0.3-0.6-0.6-0.9-1
	c1-1.4,2.7-2,4.2-2.9c0.6-0.3,1.2-0.9,1.8-1.3c1.8-1.3,3.5-2.8,5-4.2c0.1-0.2,0.1-0.5,0.2-0.7c6.5-0.7,11-3.3,13.3-8.1
	c-4.7,1.3-8.7,3.3-11.4,6.5c-0.2-0.4-0.7-0.5-0.9-0.9C170,162.5,170.9,161.1,171.9,160.3 M74.4,145.6c-2.5,4.6,0.4,11.5,2.2,15.1
	c-0.2,0-0.3,0.1-0.5,0.1c0.3,0.4,0.6,1,1.1,1.7c0.2,0.2,1.3,1.4,1.2,1.7c0,0.3-1,0.6-1,0.7c-2.6-3.1-6.1-5.3-10.3-6.8
	c2.3,4.8,6.9,7.3,13.3,7.9c0.1,1,0.8,1.3,1.5,1.9c1.8,1.6,3.7,3.2,5.7,4.5c0.5,0.3,1.1,0.5,1.7,0.9c0.5,0.3,0.9,0.6,1.5,1.1
	c0.4,0.3,1.3,1,1.3,1.3c0,0.3-0.7,0.6-0.9,0.9c-0.7-0.5-1.3-0.9-2-1.4c-0.6-0.5-1.3-1.1-2-1.5c-1.2-0.6-2.8-1-4.2-1.2
	c-1.5-0.3-3.2-0.4-5-0.5c3.1,3.6,8.1,5.9,14.7,5.6c0.3,0,0.7-0.2,1.1-0.1c1.1,0.1,2.4,0.6,3.6,1c8.5,2.3,17.2,4.8,24.2,8.5
	c0.4-0.2,0.8-0.4,1.1-0.7c-4.4-2-9.3-3.8-14.3-5.4c-2.5-0.8-5.1-1.5-7.5-2.3c-2.4-0.9-4.6-1.9-6.8-3c0.1,0.3-1,0.4-1.2,0.4
	c-1.3-6.2-3.5-11.5-8.4-14.1c-0.3,3.6,1.4,6.2,3.3,8.1c0.1,0.1,0.9,0.7,0.9,0.8c0,0.2-0.8,0.9-0.9,0.9c-1.1-0.7-1.7-1.8-2.6-2.8
	c-0.6-0.7-1.5-1.3-2.2-2c-2.1-2.1-4.1-4.3-5.9-6.7c0.1-0.1,0.3-0.1,0.2-0.3c-0.2,0-0.4,0-0.6-0.1C77.6,154.7,77.4,148.1,74.4,145.6
	 M176.6,151.8c-0.3,0.5-0.6,1-0.8,1.4c-0.3,0.9-0.3,1.9-0.6,2.7c1.5-2,3-4.1,4.2-6.5c5.5-0.9,9.1-3.7,9.5-9.7
	c-3.2,1.7-6,3.8-7.6,7.3c-0.4-0.1-0.7-0.3-1-0.4c0.3-0.4,0.7-0.6,0.9-1c-0.2,0-0.5,0-0.6-0.1c0.4-4,0.2-8.2-1.3-10.7
	c-0.3-0.5-0.8-0.9-1.2-1.4c-0.3-0.5-0.4-1.1-0.8-1.5c-0.4,1.4-0.8,2.7-0.9,4.2c-0.3,4.8,1.6,8.2,3.6,10.8c-0.3,0.2-0.6,0.5-0.9,0.7
	c-0.2,0-0.2-0.3-0.4-0.3C178.1,148.8,177.3,150.4,176.6,151.8 M73.6,157.1C73.6,157.2,73.6,157.2,73.6,157.1c-0.6-1.3-0.6-2.7-1.1-4
	c-0.4-1-1-1.9-1.5-2.8c-0.5-1-1-1.9-1.4-2.9c-0.1-0.1-0.2,0.3-0.4,0.3c-0.2-0.3-0.7-0.5-0.9-0.9c3-3,4.8-9.8,2.6-15
	c-0.4,0.3-0.4,0.9-0.7,1.4c-0.3,0.5-0.8,0.8-1.1,1.3c-2.1,2.9-2.4,8.2-0.7,12.1c-0.4,0.1-0.8,0.3-1.2,0.4c-1-4.1-3.6-6.6-7.9-7.5
	c0.4,6.1,3.9,9.1,9.6,9.9C70.3,152.2,72,154.6,73.6,157.1 M185,134c-0.3-0.1-0.7-0.1-1.1-0.1c-0.1-0.1,0.1-0.3,0-0.5
	c-0.3,0-0.3,0.3-0.5,0.4c-0.2,0-0.4-0.6-0.5-0.3c-0.2,0.8-0.3,1.7-0.5,2.5c-0.2,0.8-0.6,1.6-0.6,2.5c-0.1,1.2,0.4,2.5,0.3,4
	c0.6-1.4,1.3-2.6,1.3-4.5c3.9-2.6,6.2-6.8,6.5-13c0,0-0.1-0.1-0.1-0.1C187.2,127,185.6,130,185,134 M64.9,137.9
	c0,1.5,0.6,2.5,1.2,3.6c-0.3-1.3,0.3-2.5,0.2-3.7c0-0.4-0.2-1-0.4-1.5c-0.3-1.1-0.4-2.1-0.6-3.2c-0.1-0.6-0.1-1.3-0.2-1.7
	c-0.1-0.3-0.7-0.8-0.9-0.8c0.1,0.6,0.2,1.1,0.2,1.8c-0.5,0-1,0.2-1.3,0.1c-0.3-3.8-1.9-6.4-4.7-7.9C58.6,131,61.1,135.2,64.9,137.9
	 M184,132.6c0.1-0.9,0.3-1.8,0.4-2.8c-0.2,0-0.6,0.1-0.7-0.1c-0.1-5.9-0.9-11.2-4.4-13.7C179,123.2,180.4,129.1,184,132.6
	 M64.1,127.4c-0.3,0-0.4,0-0.6-0.1c0.3,0.9,0.6,1.8,0.7,2.9c3.4-2.9,5.3-7.9,4.9-14.3C65.7,118.2,64.4,122.3,64.1,127.4 M63.3,120.8
	c0.1,0.2,0.3,0.5,0.6,0.4c0.7-1.1,0.8-2.9,0.9-4.6c-0.5,0-0.7,0.1-1.2,0.1c-0.5-3.9-1.5-7.3-2.8-10.4
	C59.4,111.7,60.8,117.7,63.3,120.8 M184.5,116.1c-0.3,0-0.8-0.1-0.9-0.1c0.3,1.8,0.1,3.4,0.3,5.1c0.2,1.4,0.8,2.9,0.9,4.4
	c0-1.4,0-2.8-0.3-3.9c2.9-3,4.7-10,3-15.5C186,109,184.9,112.2,184.5,116.1 M65.5,111.3c-0.3,0-0.4-0.1-0.6-0.1
	c0.1,1.2-0.2,2.7,0,3.9c0-0.9,0.2-1.7,0.3-2.6c0.2,0,0,0.3,0.2,0.2c4-2.2,6.8-6,7.6-11.2C69.2,103.4,66.7,106.7,65.5,111.3
	 M182.4,114c0.3-0.5,0.4-1.2,0.7-1.7c0.1,0.4,0.1,0.9,0.2,1.3c0-0.6,0-1.9,0.1-2.5c-0.1,0.1-0.4,0.3-0.6,0.2
	c-1.1-4.8-3.7-8.1-7.7-9.9C175.8,107.4,178,111.8,182.4,114 M165.6,87.8c3.1,3,7,6.1,12.3,6.9C176.1,90.4,171.8,85.9,165.6,87.8
	 M70.4,94.7c4.1-0.7,7.2-2.6,9.9-4.7c0.9-0.7,1.8-1.5,2.4-2.3C76.3,86,72.2,90.5,70.4,94.7 M66.3,100.5c0.1,0.4,0.3,1,0.3,1.4
	c0,0.4-0.2,0.9-0.4,1.4c-0.4,1.5-0.7,3-0.8,4.4c0.4-1,0.9-1.8,1.5-2.6c0.9-3.3,2-6.2,3.3-9c-0.2,0.1-0.6,0.1-0.9,0.1
	c-0.3,0.7-0.6,1.4-0.9,2c-0.4-0.2-0.8-0.3-1.2-0.5c1.2-2.8,2.1-7.8,0.8-11.1C66.2,90.3,65.3,95.7,66.3,100.5 M180.8,96.8
	c-0.5,0-0.8,0.5-1.2,0.4c-0.1-0.4-0.3-0.7-0.4-1.1c-0.4,0-0.7-0.1-1.1-0.1c1.3,2.9,2.5,5.8,3.3,9c0.6,0.7,1,1.7,1.5,2.5
	c-0.3-2-0.7-3.9-1.2-5.7c1.6-4.9,0.6-12-1.6-15.5C178.7,89.5,179.7,94,180.8,96.8 M168.4,80.7c-3.2-1.7-6.4-3.4-10.8-3.9
	c1.1,1.3,2.6,2.7,4.2,3.8c2.1,1.4,4.9,3,8,2.1c-0.1-2.8-2.1-4.5-3.6-5.9C167,78,167.8,79.3,168.4,80.7 M81.2,79.4
	c-0.3-0.3-0.5-0.7-0.9-0.9c-0.8,1.2-2,2.3-1.8,4.2c3.1,1,6.1-0.7,8.1-2.2c1.4-1,2.7-2.2,3.8-3.4c0.1-0.1,0.5-0.3,0.3-0.5
	C86.8,76.9,83.8,78,81.2,79.4 M170.9,80.8c0.2,0.3,0.5,0.6,0.8,0.9c0.2,0.2,0.8,0.9,0.7,1c0,0.3-0.9,0.5-0.9,0.8
	c-0.2-0.1-0.3-0.4-0.5-0.3c0,0.3-0.2,0.4-0.4,0.4c1.3,1.7,2.1,3.7,4.2,4.5c1.3-6.8-2-11.8-5.7-14.6c0,0-0.1,0-0.1,0.1
	C169.2,75.7,169.8,79.1,170.9,80.8 M73.3,86.5c0,0.6,0.2,1.1,0.3,1.7c0.5-0.2,1-0.8,1.7-1c0.8-1.2,1.6-2.3,2.5-3.4
	c-0.2-0.1-0.5-0.2-0.4-0.5c-0.2-0.2-0.3,0.3-0.6,0.3c-0.2-0.4-0.6-0.5-0.9-0.9c2-2.1,3.2-5.4,3.3-9.1C76.1,76.4,72.9,80.2,73.3,86.5
	 M99.1,66.9c-3.2,0.2-5.8,1.3-7.7,2.6c-0.3,0.2-0.7,0.4-0.7,0.6c5.4,1.3,11.6-0.1,15.2-2.2C103.8,67.2,101.5,66.7,99.1,66.9
	 M141,67.1c3.9,2.5,10.2,3.9,16.6,2.9C154.3,66.8,146.5,64.7,141,67.1 M99.5,65.4c-0.4,0.1-0.8,0.1-1,0.2c0.4-0.1,1-0.1,1.5-0.1
	c-0.1-0.3-0.1-0.6-0.2-0.7C99.6,65,99.7,65.3,99.5,65.4 M146.5,64.8c-0.4-0.1-0.9-0.5-1.3-0.4C145.6,64.5,146,64.9,146.5,64.8
	 M85.6,73.8c-1.2,0.9-2.1,2.1-2.8,3.4c1.4-0.3,2-1.1,2.9-1.9c1.6-1.5,3.3-2.6,4.9-3.9c-0.6-0.1-1.1-0.3-1.7-0.4
	c-0.5,0.3-1,0.7-1.6,1c-0.2-0.4-0.5-0.6-0.7-1.1c3.1-2.3,5.5-5.7,7.3-9.2C89.3,63.8,85.4,67,85.6,73.8 M160.4,70.7
	c-0.9,0.1-1.8,0.4-2.8,0.5c1.3,1.1,2.7,2.1,3.9,3.2c1.3,1.1,2.5,2.3,3.9,3.3c-0.7-1.5-1.4-3.1-2.7-4c0.2-7-3.9-10.2-8.8-12.2
	C155,65.6,157.6,68.3,160.4,70.7 M137.5,56.5c2.4,2.5,5.2,5,8.5,6.6c0.5,0.2,0.9,0.6,1.5,0.4c-1.4-4.3-5.5-6.2-10.1-7.1
	C137.5,56.4,137.4,56.5,137.5,56.5 M99.9,64.3c0.9-0.3,1.7-0.5,2.5-0.8c0.8-0.3,1.8-0.5,2.5-0.8c1.3-0.6,2.5-1.8,3.6-2.8
	c1.1-1.1,2.3-2.6,2.8-3.6C106,57.4,101.9,59.8,99.9,64.3 M152.1,59.7c6.5,1.8,11.7,5.4,12,13.6c0.2,0.3,0.4-0.2,0.6,0.1
	c1.2,1,2.4,2.1,3.6,3.3c-0.3-1.7-0.6-3.5-0.6-5.5c0.3-0.1,0.6,0.3,0.8,0.4c4.3,3,8.4,7.7,7.8,15.2c0,0.4-0.2,1-0.2,1.4
	c0.1,0.5,0.8,1.1,1.1,1.6c0.4,0.6,0.7,1.2,1,1.7c-0.2-3.2,0.4-6.1,2.2-7.4c2.2,3.9,4.1,9.4,3.1,15.6c-0.1,0.7-0.5,1.5-0.5,2.2
	c0,0.6,0.3,1.3,0.5,2c0.4,2,0.7,4.1,0.9,6.3c0.9-2.7,2-5.3,3.4-7.5c1.1,3,1.8,6.7,1.4,10.5c-0.4,3.6-1.7,6.6-3.4,8.7
	c0.3,1.6,0.2,3.7,0.1,5.4c1.3-1.7,2.9-3.7,5.1-4.7c0.5,7.7-2.1,12.9-6.4,16.1c-0.1,1.1-0.4,2-0.7,2.8c1.8-1.3,3.9-2.8,6.3-3.7
	c0.3,7.9-3.7,11.5-10,12.8c-1.9,3.2-4,6-6.2,8.8c2.7-1.5,5.7-2.6,9.2-3.3c-1.9,6.5-6.9,9.9-14.3,11c-1.3,1.5-2.9,2.7-4.4,3.9
	c2.4-0.5,5.6-0.7,8.3-0.4c0.1,0.2-0.3,0.6-0.5,0.9c-3.2,4.4-8.8,7.6-16.7,7.3c-0.3,0-0.7-0.1-1-0.1c-1,0.1-2.3,0.7-3.4,1
	c-8,2.3-16.4,4.5-23,7.9c1.3,1,2.8,1.8,3.8,3c-0.6,0.7-1,1.5-1.7,2.2c-1.1-0.4-2.1-0.3-3-0.7c-0.6-0.2-1-0.8-1.5-1.2
	c-0.6-0.4-1.1-0.7-1.7-1c-0.5,0.4-1.1,0.7-1.7,1c-0.5,0.3-0.9,0.9-1.5,1.2c-0.9,0.4-1.9,0.4-3,0.7c-0.7-0.6-1.1-1.5-1.7-2.2
	c1.1-1.2,2.5-2.1,3.9-2.9c-6.6-3.5-14.9-5.7-23-8c-1.1-0.3-2.4-0.9-3.4-1c-0.4,0-0.7,0.1-1,0.1c-8.5,0.4-14.1-3.1-17.3-8.2
	c3.1-0.2,6.1,0.2,8.7,0.7c-1.4-1.3-3.3-2.6-4.6-4.2c-7.4-1.1-12.5-4.5-14.3-11.1c3.4,1,6.4,2.3,9,4.1c-1.8-3.1-4.2-6.1-5.8-9.6
	c-6.3-1.3-10.3-4.9-10.1-12.6c2.4,0.2,4.2,1,5.8,1.9c-0.1-0.4-0.2-0.7-0.2-1.2c-4.2-3.2-6.8-8.3-6.4-15.9c2.3,0.5,3.8,1.9,5.1,3.4
	c-0.1-1.3-0.1-3,0.1-4.2c-1.7-2.2-3-5.2-3.4-8.8c-0.4-3.9,0.5-7.5,1.4-10.6c1.4,2.5,2.4,5.3,3.2,8.4c0.4-3.1,0.8-6.3,1.7-9
	c-1.9-6.3,0-13.9,2.7-18.1c1.5,1.8,2.1,4.8,1.9,8.1c0.4-0.5,0.7-1.2,1.1-1.9c0.4-0.6,1.1-1.2,1.2-1.8c0.1-0.5-0.2-1.2-0.2-1.8
	c-0.5-8,4.1-12.3,8.7-15.4c0,2.1-0.2,3.9-0.6,5.5c1.1-0.9,2.3-2.3,3.6-3.3c0.2-0.3,0.3,0.1,0.6-0.1c0.3-8.4,5.6-11.8,12.2-13.8
	c-1.1,2.9-2.9,5.6-4.7,8c2.1-1,4.1-2.6,6.7-3.3c2.5-5.8,7.8-8.8,15.3-9.6c-1.3,2.8-3.1,5-5.2,7c2.8-0.5,6-2.2,9-1
	c-0.1,0.3-0.1,0.8-0.1,1.2c-5.4,0.7-10.1,2.1-14.3,4c2,0.4,3.9,1.1,5.5,1.8c-4,2.6-9.4,4.7-16.2,4c-1.9,1.3-3.7,2.7-5.4,4.2
	c1.8-0.4,4.3-0.6,6.3-0.2c-1.5,1.9-3.3,3.8-5.5,5.5c-2.2,1.7-5.2,3.5-8.8,3.1c-0.6,0.7-1.2,1.5-1.7,2.2c2.7-0.6,5.6,0,7.4,1
	c-0.2,0.6-0.8,0.9-1.2,1.4c-3.1,3.1-6.9,5.9-11.8,7.1c-1.2,2.1-2,4.5-2.9,6.9c1.5-1.2,3.4-2.4,5.6-3c-0.5,6.9-3.5,11.3-8.2,14.1
	c-0.1,1.1-0.2,2.2-0.4,3.3c1-1.1,2.4-2.3,4.1-2.8c1.1,6.5-0.9,12.6-3.9,16c0.2,1.8,0.6,3.5,0.9,5.3c0.7-1.8,2.9-3,2.9-5.3
	c0-0.4,0-0.5-0.2-0.8c0.3-0.3,0.6-0.6,1-0.8c1.4,2.3,2.4,5.4,2.4,9c0,3.6-1.3,6.4-2.7,8.6c0.5,1.2,1.1,2.4,1.6,3.6
	c0.2-2.4,0.8-4.4,2.1-5.8c4.1,2.2,5,9.3,3.9,15.4c1.7,2.3,3.6,4.4,5.5,6.4c-0.4-1.5-0.6-3.7-0.2-5.5c3.2,0.7,5.2,2.8,6.8,5.2
	c1.6,2.4,2.8,5.2,3.6,8.3c4.3,3,9.8,4.4,15.2,6.1c5.4,1.7,10.7,3.7,15.4,5.9c4.7-2.3,10-4.1,15.4-5.9c5.3-1.8,10.9-3.1,15.2-6.1
	c0.7-3.8,2-7.2,3.8-9.9c1.8-2.7,4.2-5,7.9-5.7c0.4,2.9-0.4,5.4-1.4,7.3c1.8-1.7,3.6-3.9,5.2-6c-1.1-6.1-0.3-13.2,3.8-15.4
	c1.3,1.3,2,3.3,2.1,5.8c0.6-1.1,1.1-2.3,1.7-3.6c-1.4-2.2-2.6-5.1-2.7-8.7c-0.1-3.5,1.1-6.7,2.4-9c0.4,0.1,0.6,0.5,1,0.7
	c-0.2,0.3-0.2,0.4-0.2,0.7c-0.1,2.5,2.4,3.5,2.8,5.7c0.4-1.1,0.5-2.4,0.7-3.5c-3.1-4.1-4.3-10.8-3.7-17.9c1.9,0.4,3.3,1.7,4.2,3.3
	c0-1-0.2-1.8-0.2-2.7c-0.1-0.1-0.2,0.3-0.2,0.4c-5.1-2.7-7.9-7.8-8-15.5c2.2,0.7,4,1.7,5.5,3.1c-0.8-2.5-1.8-4.7-2.8-6.9
	c-5.7-1.5-9.8-4.8-13.1-8.4c1.7-1.1,4.7-1.7,7.4-1c-0.3-0.7-1.1-1.5-1.6-2.2c-3.6,0.5-6.6-1.4-8.8-3.1c-2.2-1.7-4-3.6-5.5-5.5
	c2.5-0.3,4.9,0.2,6.8,0.8c-1.7-1.7-4-3.3-6.1-4.9c-6.4,0.5-11.8-1-15.7-3.6c-0.5-0.3-1.1-0.7-1.4-1.2c1.6-0.6,3-1.3,4.9-1.5
	c-3.6-1.7-8-2.6-12.5-3.4v-1.2c2-0.8,4.5-0.1,6.6,0.4c1.5,0.4,3,0.7,4.3,1.1c-2.6-2.1-5.6-4.7-7.5-7.5c6.7,0.9,12.4,2.8,14.3,8.4
	c2.3,0.8,4.2,2.1,6.1,3.3C153.5,64.4,152.6,62.2,152.1,59.7 M130.7,157.3c-1-0.5-2.9-0.1-4.2-0.2c-0.1,0.3,0,0.9-0.1,1.3
	c1.9-0.8,4.6-0.3,4.8,1.7c0.2,2-1.7,2.8-3.8,2.6c-1.1-0.1-1.8-0.7-2.6-0.9c0.3-0.5,0.6-1,1-1.4c0.1,1.7,4.7,1.8,4-0.5
	c-0.4-1.2-3.2-1.1-3.4,0.1c-0.6-0.3-0.9-0.8-1.4-1.2c0.2-0.6,0.4-2.4-0.1-2.8c1.9-0.1,4.1,0.2,5.7-0.1
	C130.8,156.1,130.6,156.9,130.7,157.3 M117,160.7c-0.1-0.8,0.6-1,1.7-1.1c0.9-0.1,2.3,0,2.3,1C121,162,117.1,162,117,160.7
	 M117.4,157.7c0-0.4,0.3-0.6,0.9-0.7c0.9-0.2,2.4-0.2,2.3,0.8C120.6,158.8,117.3,159,117.4,157.7 M121,159c0.8-0.1,1-1.2,0.8-1.8
	c-0.7-1.8-6.2-1.9-5.7,1c0.2,0.4,0.5,0.7,0.9,0.9c-1.2,0.1-1.6,1.7-1,2.6c1.3,1.8,6.5,1.3,6.3-1.2C122.3,159.6,121.8,159.3,121,159
	 M138.2,159c0.7-0.1,1-0.9,0.9-1.6c-0.4-1.9-4.5-1.9-5.4-0.5c-0.2,0.1-0.3-0.2-0.4,0.1c0.3,0.4,0.6,0.9,1,1.2
	c-0.2-1.3,3.4-1.8,3.5-0.4c0,1-1.7,1.1-2.4,0.6v1.5c1-0.6,3.1-0.2,2.8,1c-0.4,1.3-4.1,0.9-4.3-0.5c-0.5,0.3-0.5,1.1-0.9,1.5
	c0.2,0,0.2-0.1,0.4-0.1c1.2,1.1,5.6,1.3,6-0.7C139.7,160.1,139,159.2,138.2,159 M111.2,156c0,0.2,0.2,0.2,0.2,0.4
	c-0.1,0.3-0.7,0.6-1,0.2v1.4c0.2-0.2,0.5-0.4,0.9-0.4c0.1,1.4,0,3.1,0.1,4.6c0,0.2-0.3,0.2-0.3,0.4h1.8c0-0.2-0.3-0.1-0.3-0.4v-6
	c0-0.2,0.3-0.1,0.3-0.3H111.2 M99.3,86.9c0.7-0.1,1.2,0.4,1.2,0.9c0.1,1.8-2.9,0.9-1.9-0.6C98.7,87.1,98.9,87,99.3,86.9 M159.2,96.2
	c-0.7,0.1-0.9,0.5-0.9,1c0,1.3,2.1,1.4,2.1,0C160.4,96.5,159.9,96.1,159.2,96.2 M164.4,103.2c0.4-0.4,1.1-0.5,1.5-0.8
	c0.6,0.6,1.2,2.6-0.3,2.4C164.9,104.7,164.9,103.7,164.4,103.2 M166,101.1c-0.1,0.3-0.7,0.6-1.1,0.8c-1.2,0.6-2.5,1.1-3.5,1.7
	c-0.2,0.1-0.2-0.1-0.3-0.1c0.1,0.5,0.4,0.8,0.6,1.2c0.5-0.6,1.4-0.8,2.2-1.2c0.5,0.9,0.8,2.4,2.2,2.2c0.6-0.1,1.3-0.5,1.4-1.4
	C167.5,103.4,166.4,101.7,166,101.1 M168.6,107c-1.5,0.6-3.2,1.1-4.7,1.7c-0.2,0-0.3,0-0.4-0.1c0.1,0.4,0.3,0.8,0.4,1.2
	c0.2,0,0.1-0.3,0.3-0.3c1.6-0.5,3.1-1.1,4.7-1.7c0.1,0,0.3,0.2,0.3,0.1c-0.3-0.3-0.2-0.9-0.6-1.2V107z M169.8,110.4
	c0,0.1,0,0.1-0.1,0.2c-1.5,0.5-3.3,0.8-4.9,1.2c-0.2,0.1-0.2-0.2-0.4-0.1c0.2,1.3,0.9,2.7,0.7,3.9c0.4,0,0.7-0.2,1.1-0.2
	c-0.5-0.7-0.5-1.8-0.8-2.8c0.5-0.1,1.1-0.3,1.6-0.4c0.2,0.5,0.2,1,0.4,1.5c0.1,0.2-0.3,0.4,0,0.4c0.4-0.1,0.8-0.1,1-0.3
	c-0.5-0.3-0.4-1.1-0.6-1.7c0.5-0.2,1-0.3,1.5-0.4c0.1,0.9,0.7,1.9,0.5,2.7c0.4-0.1,0.9-0.1,1.1-0.3c-0.1-0.1-0.3-0.1-0.2-0.2
	C170.4,112.8,170.3,111.4,169.8,110.4 M171.4,116.4c-0.3,0.1-0.7,0.1-1.1,0.1c0.3,0.3,0.2,1,0.3,1.5c-1.4,0.2-3,0.3-4.4,0.5
	c-0.2,0-0.2-0.2-0.4-0.2c0.1,0.4,0,1.1,0.2,1.4c0-0.3,0.3-0.3,0.4-0.3c1.2-0.3,3-0.1,4.2-0.4c-0.1,0.6,0.3,1.3-0.1,1.6
	c0.4-0.1,0.9,0,1.2-0.2c-0.2,0-0.2-0.2-0.2-0.3C171.6,118.8,171.1,117.5,171.4,116.4 M168.4,125.5c-0.2-0.4,0.1-0.9,0-1.4
	c0.7,0.2,1.4,0.5,2.2,0.7C169.9,125.2,169,125.2,168.4,125.5 M166.1,122.3c0,0.4-0.1,0.7-0.1,1.2c0.5-0.3,1.1,0.2,1.5,0.4
	c0,0.6,0.1,1.4-0.1,1.9c-0.5,0.1-0.8,0.2-1.2,0.3c-0.1,0-0.2-0.3-0.2-0.1c-0.1,0.3-0.1,0.8-0.1,1.2c1.6-0.7,3.5-1.1,5.3-1.6
	c0.2-0.1,0.2,0.2,0.4,0.1c0-0.5,0-1,0.1-1.4c-0.1-0.1-0.2,0.2-0.5,0.1C169.6,123.6,167.6,123.2,166.1,122.3 M166.3,128.7
	c-0.3,0.7-1.1,1.5-1.1,2.7c0,1,0.6,1.9,1.8,1.8c1.6-0.1,1.3-2.8,2.4-2.9c1.2-0.1,0.9,2.8-0.4,2.6c0.3,0.4,0.7,0.6,1.1,0.8
	c-0.1-0.2,0-0.4,0.1-0.5c0.3-0.6,0.7-0.9,0.7-1.7c0.1-1.3-0.5-2.2-1.7-2.2c-1.6,0.1-1.3,2.6-2.3,2.8c-1.6,0.4-1.1-2.9,0.3-2.8
	C167,129.3,166.7,128.9,166.3,128.7 M92.1,94c-0.3-0.7-0.7-1.3-1-1.9c0.6,0.1,1.3,0.7,2,0.9C92.8,93.4,92.5,93.7,92.1,94 M90.7,90.7
	c-0.3,0.4-0.7,0.7-1,1.1c0.3,0,0.3,0.1,0.4,0.2c0.8,1.6,1.9,3.2,2.5,4.8c0.2-0.4,0.5-0.5,0.7-0.9c-0.6-0.1-0.6-0.8-0.9-1.2
	c0.5-0.5,0.9-1,1.4-1.4c0.3,0.4,1.1,0.2,1.2,0.9c0.3-0.3,0.9-0.7,0.8-1c-0.8-0.2-1.5-0.6-2.6-1.2C92.4,91.7,90.9,91.2,90.7,90.7
	 M87.2,94.8c-0.2,0.4-0.5,0.7-0.7,1.1c0.1,0,0.1-0.1,0.3-0.1c1.4,1,2.8,2,4.1,3.1v0.2c0.3-0.3,0.7-0.7,0.7-1.1
	c0,0.1-0.1,0.1-0.2,0.1C90,97,88.3,96.2,87.2,94.8 M85,97.5c-0.1,0.1-0.1,0.1,0.1,0.2c-0.5,1.2-1.3,2.1-1.8,3.3H83
	c0.2,0.3,0.7,0.6,1,0.6c-0.1-0.5,0.4-1,0.7-1.4c1.2,0.8,2.6,1.5,3.9,2.3c0,0.2,0,0.3,0.1,0.3c0.1-0.5,0.6-0.8,0.6-1.2
	c0,0.1-0.1,0.1-0.2,0.1c-1.3-0.8-2.6-1.5-3.9-2.3c0.3-0.4,0.3-1.1,0.9-1.2C85.8,97.8,85.3,97.8,85,97.5 M82,103.2
	c-0.1,0.4-0.3,0.7-0.4,1.1c1.4,0.1,2.5,0.9,3.7,1.4c-1.5,0.2-2.8,0.5-4.2,0.7c-0.2,0,0-0.2-0.2-0.2c-0.1,0.5-0.4,0.9-0.5,1.4
	c0.2,0,0.1-0.2,0.4-0.1c1.5,0.7,3.1,1.3,4.6,1.9c0.1,0.1,0,0.3,0.2,0.3c0.1-0.4,0.4-0.7,0.4-1.2c-0.2,0-0.1,0.2-0.4,0.1
	c-1.2-0.5-2.5-1-3.6-1.5c1.5-0.3,3.2-0.5,4.7-0.8c0.1,0.1-0.1,0.2,0.1,0.2c0.2-0.4,0.3-0.7,0.4-1.1c-0.1,0-0.2,0.1-0.4,0.1
	c-1.5-0.6-3-1.3-4.5-1.8C82.1,103.5,82.2,103.2,82,103.2 M79.3,110c0.1,1.2-0.6,2.5-0.7,3.8c0.2,0,0.1-0.2,0.4-0.1
	c1.6,0.4,3.1,0.8,4.7,1.2c0.2,0,0.1,0.3,0.3,0.3c0.4-1.3,0.5-2.8,1.1-3.9c-0.4,0-0.7-0.2-1.1-0.2c0.2,0.8-0.3,2-0.6,2.8
	c-0.5-0.2-1.2-0.2-1.6-0.5c0.3-0.5,0.2-1.4,0.6-1.7c-0.4,0-0.8-0.3-1.1-0.2c0.2,0.5-0.1,1.3-0.3,1.8c-0.5-0.1-1-0.2-1.4-0.4
	c0.2-0.9,0.3-2,0.8-2.6C80,110.2,79.7,110,79.3,110 M78,116c0.2,1.2-0.1,3-0.4,4.1c0.4,0,0.7,0.1,1.1,0.1c-0.2-0.4,0-1.2,0.1-1.6
	c1.4,0.2,2.9,0.4,4.4,0.5c0.1,0,0.1,0.3,0.2,0.2c0.1-0.4,0.1-0.9,0.2-1.4c-0.2-0.1-0.1,0.2-0.3,0.2c-1.5-0.2-3.1-0.2-4.5-0.6
	c0.1-0.5,0-1.2,0.4-1.5C78.7,116.1,78.4,116,78,116 M78.4,124.2c0.2-0.6,0.8-1,1.8-1.1c1-0.1,1.7,0.2,2,0.5c0.6,0.6,0.5,1.5,0.1,2
	C81.3,126.9,77.7,126.4,78.4,124.2 M80,122.2c-1,0.1-1.5,0.4-2,0.9c-1.4,1.7,0,4,2.2,4.1c1.1,0.1,2.5-0.5,2.9-1.7
	C84,123.3,82,121.9,80,122.2 M80.4,130.1c0.4,0.4,0.3,1.3,0.4,1.8c-0.6,0-1,0.2-1.6,0.2c-0.1-0.6-0.5-1.5-0.1-2
	C79.4,129.9,80.1,129.8,80.4,130.1 M81.6,131.8c-0.1-1.4-0.4-2.8-1.8-2.8c-2.2,0.1-1.5,2.9-1,4.5c0-0.2,0.1-0.3,0.3-0.3
	c1.5-0.1,3.2-0.8,4.6-0.8c0.2,0,0.4,0.1,0.5,0c0-0.4-0.2-0.8-0.2-1.2C83.5,131.7,82.4,131.6,81.6,131.8 M126.7,79.6
	c0.2-0.8,0.6-1.4,0.8-2.2c0.3,0.7,0.4,1.4,0.6,2.2C127.6,79.7,127.2,79.6,126.7,79.6 M126.9,76.3c0,0.1,0,0.2,0.1,0.2
	c-0.7,1.8-1.3,3.7-2.2,5.3c0.4,0,0.7,0.1,1.2,0.1c-0.2-0.5,0.2-1.1,0.4-1.5c0.6,0,1.2,0.1,1.8,0.1c0,0.5,0.5,1.2,0.1,1.5
	c0.4,0,1.1,0.3,1.3,0c-0.7-1.5-0.9-3.5-1.5-5.2c0-0.2,0.3-0.2,0.1-0.4C127.8,76.4,127.4,76.3,126.9,76.3 M132.4,76.9
	c0.1,1.7-0.7,3.5-0.9,5.3c0,0.1-0.3,0-0.2,0.2c0.4,0,1,0.4,1.2,0.1c-0.2,0-0.2-0.1-0.2-0.2c0.3-1.3,0.5-2.6,0.9-3.8
	c0.6,1.4,1.1,3,1.6,4.5c0,0.1-0.2,0-0.1,0.2c0.4,0,0.7,0.2,1.1,0.2c0.1,0-0.2-0.2-0.1-0.5c0.3-1.5,0.7-3,1-4.6
	c0.1-0.1,0.2-0.2,0.3-0.3c-0.4-0.1-0.7-0.2-1.2-0.2c0.2,1-0.4,2.6-0.7,3.8c-0.4-1.4-1.3-2.9-1.4-4.3
	C133.3,77.1,132.9,76.9,132.4,76.9 M114.8,77.2c-0.4,0.1-0.8,0.2-1.2,0.3c0,0.2,0.3,0.1,0.3,0.3c0,1,1,2.6,0.9,3.7
	c0,1-1.8,1.3-2.3,0.6c-0.6-1-0.5-2.7-1-3.8c0-0.2,0.2,0,0.2-0.2c-0.5,0.1-0.8,0.2-1.3,0.3c0,0.2,0.3,0.1,0.3,0.3
	c0.4,1.1,0.5,2.7,1,3.8c0.8,1.7,4.3,0.8,4.1-1.4c-0.1-1.1-0.8-2.4-0.9-3.5c-0.1-0.3,0.1-0.3,0.1-0.4H114.8 M139.3,78.6
	c0,0.1,0,0.2,0.1,0.2c-0.5,1.7-1.1,3.2-1.6,4.9c-0.1,0.1-0.3,0.1-0.3,0.2c0.5,0.1,0.8,0.3,1.2,0.4c0.1,0-0.2-0.2-0.1-0.4
	c0.5-1.5,1.1-2.9,1.5-4.5c0.1-0.1,0.2-0.2,0.4-0.3C140.2,78.9,139.8,78.7,139.3,78.6 M107.9,79.3c-0.4,0.2-1,0.2-1.2,0.6
	c0.2,0,0.3,0,0.3,0.1c0.2,0.6,0.6,1.1,0.7,1.8c-0.8,0.3-1.4,0.7-2.3,0.9c-0.1-0.7-0.9-1.4-0.6-2.1c-0.5,0.1-0.8,0.4-1.3,0.5
	c-0.1,0.2,0.3,0.1,0.3,0.2c0.7,1.6,1.4,3.1,2,4.7c0,0.2-0.1,0.1-0.1,0.2c0.5-0.1,0.9-0.3,1.3-0.6c0-0.1-0.3,0-0.3-0.1
	c-0.3-0.7-0.6-1.4-0.9-2.1c0.8-0.3,1.5-0.6,2.3-1c0.2,0.8,0.9,1.5,0.8,2.4c0.5-0.1,0.8-0.4,1.2-0.5c0.1-0.2-0.3,0-0.3-0.2
	c-0.7-1.5-1.4-3.1-2-4.6C107.8,79.4,107.9,79.5,107.9,79.3 M142.7,79.6c-0.2,0.3-0.4,0.7-0.5,1c0.6-0.1,1.1,0.3,1.5,0.6
	c-0.7,1.4-1.2,3.1-2.2,4.2c0.4,0.1,0.8,0.5,1.2,0.4c-0.1,0-0.1-0.2-0.1-0.3c0.7-1.3,1.2-2.8,2-4c0.4,0.3,1.1,0.3,1.3,0.8
	c0.2-0.3,0.4-0.7,0.5-1c-0.1,0-0.2,0.1-0.4,0.1C145,80.8,143.6,80.5,142.7,79.6C142.8,79.7,142.8,79.6,142.7,79.6 M147.8,86.2
	c0.5-0.6,1.2-0.9,1.7-1.5c0,0.6-0.4,1.5-0.6,2.2C148.5,86.7,148.2,86.4,147.8,86.2 M149.5,83.4c0,0.5-0.6,0.8-1,1.1
	c-0.4,0.3-0.8,0.7-1,0.9c-0.8,0.6-1.5,1.3-2.3,1.6c0.2,0.4,0.6,0.5,1,0.7c0-0.5,0.7-0.8,1-1c0.5,0.4,1.2,0.6,1.5,1.1
	c-0.1,0.5-0.2,1.1-0.6,1.4c0.4,0.2,0.6,0.5,1,0.6c0.2-1.7,0.9-3.5,1.3-5.3c0.1-0.1,0.1-0.2,0.3-0.2C150.5,83.9,150,83.7,149.5,83.4
	 M157,89.6c-0.8-0.9-1-2.2-2.5-2.4c-0.7-0.1-1.4,0.2-1.7,0.9c-0.6,1.5,1.6,2.3,1.3,3.4c-0.1,0.3-0.4,0.5-0.6,0.5
	c-1.1,0.2-2-1.4-1.6-2.3c-0.4,0.1-0.8,0.3-1.2,0.4c0.4,0.7,0.5,1.4,1.1,2c0.3,0.3,1,0.8,1.8,0.7c0.8-0.1,1.3-0.8,1.4-1.4
	c0.2-1.4-1.6-2-1.4-3c0-0.2,0.3-0.5,0.7-0.5c0.8,0,1.8,1.2,1.4,2C156.1,90.1,156.5,89.7,157,89.6 M122.8,76.3c-0.5,0-1,0.1-1.5,0.1
	c0.1,0.9-0.5,2.5-0.9,3.6c-0.4-1.2-1.2-2.1-1.4-3.4c-0.4,0.1-1,0.1-1.5,0.2c0,0.2,0.3,0.2,0.2,0.4c0.1,1.7,0.3,3.2,0.4,4.9
	c0.1,0.2-0.2,0.1-0.2,0.3c0.4,0,0.9-0.1,1.2-0.1c0-0.2-0.3-0.1-0.2-0.3c0-1.2-0.4-2.5-0.2-3.6c0.6,1.3,1.2,2.6,1.8,3.8
	c0.4-1.4,0.7-2.9,1.2-4.2c-0.1,1.4,0.6,2.9,0.1,4.1c0.4,0,1,0,1.3-0.2c-0.1,0-0.2-0.1-0.2-0.2c-0.1-1.7-0.4-3.3-0.4-5
	C122.6,76.3,122.8,76.4,122.8,76.3"/>
<path fill="#FFFFFF" d="M148.4,28c0.1,0.2-0.2,0.4-0.4,0.6c-0.4,0.4-0.8,0.9-1.2,1.4c-0.2,0.2-0.4,0.6-0.7,0.5
	c-0.2-0.1,0-0.4-0.1-0.7c-3-3.2-10.7-3.2-10.1,3.1c0.3,2.6,3,4.1,6,4.1c1.5,0,3.6-0.5,3.9-1.9c0.2,0,0.3,0.4,0.4,0.6
	c0.3,0.7,0.7,1.5,1,2.3c-0.2,0.1-0.3-0.2-0.6,0c-4.7,2.8-12.8,0.3-13.3-5c-0.4-4.6,3-7.6,8-7.4c2.1,0.1,3.6,0.8,5,1.6
	c0.4,0.2,0.9,0.7,1.4,0.8C148.1,28.1,148.1,27.8,148.4,28 M107.5,26.2c-0.7-0.1-1.4,0.1-2.1,0.2c-0.5,0.1-1.2,0-1.5,0.4
	c0,0.2,0.5,0,0.5,0.2c0.7,3.9,1.3,7.9,1.9,12c0,0.2-0.5,0.1-0.4,0.4c3.8-0.4,7.6-1.2,11.4-1.7c0.3,0,0.2,0.4,0.6,0.3
	c-0.1-0.8-0.2-2.2-0.6-2.9c-0.3,0-0.1,0.5-0.4,0.5c-2.8,0.5-5.6,0.9-8.4,1.4c-0.5-3.5-1.1-6.8-1.6-10.3
	C107.1,26.4,107.5,26.5,107.5,26.2 M90.2,38.9c0-1.5,0.2-3.4,0.2-5c0.1,0,0.1,0,0.1,0.1c1.1,1.1,2.5,2.3,3.4,3.6
	C92.6,37.9,91.4,38.4,90.2,38.9 M91.4,30.3c-1.1,0.6-2.6,0.8-3.6,1.5c0.1,0.2,0.5,0,0.6,0.3c-0.2,4.4-0.5,8.7-0.7,13
	c0,0.3-0.4,0.2-0.3,0.6c1-0.1,2-0.7,3.1-1c0.1-0.4-0.4-0.2-0.4-0.5c0-1.1,0.2-2,0.2-3.1c1.9-0.7,3.8-1.5,5.7-2.2
	c0.7,0.8,1.6,1.4,2.3,2.3c0,0.3-0.3,0.2-0.1,0.5c0.5-0.1,1.1-0.4,1.7-0.6c0.6-0.2,1.4-0.4,1.6-0.7c0-0.3-0.5,0-0.6-0.2
	c-3.2-3.1-6.4-6.1-9.5-9.3C91.3,30.7,91.6,30.6,91.4,30.3 M156.2,36.4c0.5-1.5,1.6-2.8,3.6-3.1c2-0.3,4.1,0.8,4.9,1.7
	c2.6,2.7,0.6,7.6-3.2,7.6c-1.3,0-2.8-0.6-3.8-1.4C156.6,40.5,155.5,38.6,156.2,36.4 M159.3,31.1c-0.8,0.1-1.5,0.2-2.1,0.5
	c-2.1,1-4.1,3.6-3.7,6.9c0.4,3.8,4.6,6.4,8.4,6.4c3.4,0,5.9-2.4,6.5-5.9c0.2-1.7-0.1-2.9-0.9-4.1C166.1,32.8,162.9,30.7,159.3,31.1
	 M73.5,45.2c-1,0.6-2,1.2-2.8,1.8c-0.7-0.8-1.2-1.8-1.8-2.6c1.4-0.7,3.3-2.5,5-3.3c1.1-0.5,2.5-0.2,2.6,1.1
	C76.5,43.7,74.6,44.5,73.5,45.2 M77.6,45.2c0.7-0.8,1.3-1.4,1.5-2.6c0.3-2.4-1.8-4.4-4-4.1c-2.1,0.3-3.6,1.5-5.3,2.6
	c-0.8,0.5-1.6,1.1-2.3,1.6c-0.8,0.5-1.8,0.9-2.3,1.6c0.1,0.2,0.3-0.1,0.6,0c2.2,3.4,4.5,6.7,6.5,10.2c0.1,0.3-0.4,0.2-0.2,0.6
	c0.7-0.3,1.7-0.9,2.4-1.4c0.2-0.1,0.7-0.3,0.6-0.6c-0.1-0.2-0.5,0.1-0.6-0.1c-0.9-1.4-1.8-2.8-2.7-4.2c1-0.7,2-1.3,3.1-2
	c1.8,0.8,3.9,1.5,5.7,2.4c0,0.2-0.2,0.2,0,0.4c1-0.6,2.4-1.4,3.4-2.2C81.7,47.1,79.7,45.9,77.6,45.2 M180,40.7
	c-0.2-0.4-0.8-0.7-1.3-1c-0.5-0.3-1-0.7-1.5-1c0,0,0-0.1-0.1-0.1c-0.1,0-0.1,0.1-0.1,0.1c-0.2,0.3,0.3,0.2,0.2,0.6
	c-2.2,3.4-4.4,6.8-6.8,10c-0.3,0-0.4-0.1-0.6,0.1c3.1,2.3,6.5,4.4,9.6,6.6c0,0.2,0,0.5,0.1,0.6c0.7-0.7,1.2-1.6,1.7-2.5
	c-0.3-0.1-0.4,0.2-0.7,0.1c-2.3-1.6-4.7-3.1-7-4.7c2-2.9,3.9-5.9,5.9-8.7C179.7,40.7,179.9,41,180,40.7 M59.1,48.5
	c-0.2,0.2,0,0.2,0,0.6c-2.8,2.8-5.6,5.7-8.6,8.4c-0.3,0-0.3-0.2-0.5,0c0.6,0.8,1.4,1.7,2.2,2.2c0.2-0.2-0.1-0.3,0-0.6
	c1.1-1.1,2.1-2.2,3.3-3.2c1.7,1.6,3.7,3.8,5.5,5.6c0.3,0.3,1.7,1.5,1.8,1.9c0,0.2-0.4,0.4-0.1,0.6c0.5-0.2,0.9-0.8,1.4-1.2
	c0.5-0.5,1.1-0.9,1.3-1.4c-0.2-0.2-0.4,0.1-0.7,0.1c-0.2,0-0.7-0.6-0.9-0.9c-2.1-2.1-4.5-4.6-6.3-6.6c1.1-1.1,2.2-2.2,3.4-3.2
	c0.2,0,0.3,0.2,0.5,0.1c-0.1-0.4-0.5-0.8-0.9-1.1c-0.4-0.4-0.8-0.7-1-1C59.2,48.6,59.2,48.5,59.1,48.5 M195,52.7
	c-0.1-0.5-0.7-0.9-1.1-1.3c-0.4-0.4-0.8-0.9-1.3-1.3c0-0.1-0.1,0-0.1,0c-0.3,0.2,0.1,0.2,0.1,0.6c-2.8,2.9-5.7,5.8-8.6,8.6
	c-0.2,0-0.3-0.3-0.5-0.1c0.1,0.5,0.6,0.7,0.9,1c2.4,2.4,4.9,4.9,7.3,7.4c0.2,0.2-0.2,0.3,0,0.5c0.5,0,0.8-0.6,1.2-1
	c0.4-0.4,0.9-0.7,1-1.2c-0.2-0.2-0.4,0.2-0.6,0c-2.1-1.9-4.1-4-6.1-6c2.4-2.5,4.8-5,7.4-7.3C194.7,52.4,194.8,52.8,195,52.7
	 M45.4,63.5c-0.5,1-1.3,1.7-1.7,2.8c0.3,0.2,0.3-0.2,0.6-0.2c2.3,1.6,4.7,3,6.9,4.7c-3.8,0.5-7.6,1.4-11.4,1.8c0-0.3,0.2-0.4,0-0.6
	c-0.8,1-1.7,2.2-2.2,3.3c0.3,0.2,0.2-0.2,0.6-0.1c3.4,2.2,6.8,4.5,10.1,6.8c0,0.2-0.2,0.3,0,0.5c0.5-0.3,0.7-0.8,1-1.3
	c0.3-0.5,0.7-0.9,0.8-1.4c-0.3-0.2-0.2,0.3-0.6,0.2c-2.5-1.6-5-3.3-7.4-5c4.1-0.6,8-1.3,12.1-1.9c0.2,0.2-0.3,0.5,0.1,0.5
	c0.4-0.2,0.6-0.9,1-1.4c0.3-0.5,0.9-1,0.8-1.4c-0.2-0.3-0.2,0.3-0.6,0.1c-3.3-2.2-6.7-4.4-10-6.7C45.6,63.8,45.8,63.5,45.4,63.5
	 M205.5,64.1c-0.3,0.1,0,0.3-0.1,0.6c-3.4,2.2-6.6,4.5-10.1,6.7c-0.3,0.1-0.3-0.4-0.6-0.1c0.9,1.7,2.1,3.3,3.3,5
	c1.1,1.7,2.3,3.4,3.4,5.1c0.1,0.3-0.2,0.4-0.1,0.6c0.9-0.5,1.8-1,2.5-1.7c-0.1-0.2-0.4,0-0.6-0.1c-1.7-2.5-3.4-5-5-7.6
	c1-0.6,1.9-1.3,2.8-1.8c1.1,1.6,2.2,3.2,3.3,4.9c0.1,0.3-0.2,0.4-0.1,0.6c0.5-0.1,0.9-0.6,1.4-0.9c0.4-0.3,1-0.5,1.2-0.9
	c-0.1-0.2-0.3,0-0.6-0.1c-1.2-1.6-2.2-3.2-3.3-4.9c0.8-0.6,1.7-1.2,2.6-1.7c1.6,2.5,3.4,4.9,4.9,7.4c0,0.3-0.3,0.3-0.1,0.6
	c0.9-0.5,1.8-1.1,2.5-1.7c-0.1-0.3-0.2-0.1-0.5-0.1C210,70.8,207.9,67.3,205.5,64.1 M36.4,83.3c-0.8-0.5-1.9-0.9-2.8-1.1
	c0.3,0.7,0,1.2-0.3,2c-0.5,1.4-1.2,2.9-1.7,4.2c-0.8,2-1.7,3.8-2.1,5.5c0.6-0.5,1.2-0.1,2,0.2c3.3,1.3,6.7,2.7,9.8,3.9
	c0,0.2-0.1,0.6,0.2,0.5c1.5-3.4,3-7.5,4.5-11.2c0.1-0.2,0.6,0,0.6-0.4c-0.4-0.2-0.9-0.4-1.4-0.6c-0.5-0.2-1-0.6-1.4-0.4
	c-0.2,0.2,0.3,0.2,0.2,0.6c-1.1,2.8-2.2,5.6-3.3,8.4c-1-0.5-2.2-0.8-3.1-1.3c0.7-1.9,1.4-3.7,2.2-5.5c0.1-0.2,0.5,0,0.6-0.2
	c-0.3-0.4-0.9-0.5-1.4-0.7c-0.5-0.2-1-0.6-1.4-0.4c-0.1,0.2,0.2,0.2,0.2,0.6c0,0.3-0.3,1-0.5,1.4c-0.5,1.4-1.1,2.9-1.7,4.1
	c-1-0.4-2-0.7-2.9-1.2c1.2-2.7,2.1-5.6,3.4-8.3C36.1,83.3,36.4,83.7,36.4,83.3 M220.4,94.7c0-0.5-0.3-0.4-0.4-0.8
	c-0.1-0.6,0.1-1.4,0.1-2.1c-0.2-2.8-1.5-5.4-3.1-6.9c-1.1-1-2.9-2.1-5.2-1.9c-3.3,0.3-5.8,2.9-5.8,6.3c-0.1,4.3,2.7,7.6,5.3,9.6
	c0.2-0.1,0.1-0.4,0.3-0.5c1.2-0.5,2.4-1,3.6-1.4c0.4-0.1,0.3,0.3,0.6,0.1c-0.5-1.9-1.5-3.9-2.2-5.8c-0.1-0.3,0.4-0.3,0.2-0.6
	c-0.9,0.2-2.1,0.7-2.9,1.2c0.2,0.3,0.4,0.2,0.6,0.4c0.6,0.7,0.7,2.3,1.2,2.9c-0.4,0.2-0.9,0.3-1.4,0.6c-1.7-1.3-3.3-3.5-3-6.5
	c0.2-2.2,2.5-4,5-3.7c2.5,0.3,4.3,3.2,4.5,5.9c0.1,0.8,0.1,1.7-0.2,2.2c-0.2,0.3-0.5,0.1-0.6,0.6C217.8,94.5,219.4,94.5,220.4,94.7
	 M28.2,102.1c-0.2,0.2,0.1,0.3,0.1,0.6c-1.2,2-2.3,3.7-2.5,6.5c-0.3,4.6,2.3,8.1,6.8,8.1c6-0.1,8.4-8.4,5.6-13.3
	c-0.1-0.2,0.1-0.4,0-0.6c-0.5,0.2-1,0.5-1.5,0.7c-0.5,0.2-1.1,0.4-1.4,0.8c1.4,0.1,1.9,2.3,1.9,3.9c0,2.9-1.4,5.6-4,5.9
	c-6.3,0.6-6.4-7.1-3.1-10.1c0.2-0.1,0.5,0.1,0.7-0.2C30,103.5,29.1,102.8,28.2,102.1 M223.6,102.6c-0.3,0-0.1,0.4-0.3,0.5
	c-3.9,0.7-7.9,1.4-12,2c-0.2,0-0.1-0.4-0.4-0.4c-0.1,1,0.2,1.9,0.4,2.9c0.5,3,1,6.1,1.4,9.2c0,0.3-0.4,0.2-0.2,0.6
	c1-0.2,2.2-0.2,2.9-0.6c0-0.3-0.5-0.1-0.5-0.4c-0.5-2.9-1-5.9-1.5-8.9c1.1-0.2,2.2-0.4,3.4-0.6c0.3,2,0.7,3.8,0.9,5.8
	c0,0.3-0.4,0.2-0.3,0.6c1-0.2,2.2-0.2,3-0.6c0-0.3-0.5-0.1-0.6-0.4c-0.3-2-0.7-3.8-0.9-5.8c1-0.2,2-0.3,3.1-0.5
	c0.4,2.9,1,5.8,1.4,8.7c0,0.3-0.4,0.2-0.4,0.6c0.8-0.1,2.2-0.2,3-0.6c-0.8-0.5-0.8-2-1-3.3C224.7,108.7,224.1,104.7,223.6,102.6
	 M53.1,182.9c-0.8-1-1.5-1.8-2.1-2.7c0.8-0.6,1.6-1.2,2.4-1.9c0.1,0,0.1,0.1,0.1,0.1c1,1.1,2.1,2.6,3.1,3.9c0.3,0.4,0.8,0.9,0.8,1.5
	c0,0.8-1.1,1.7-2,1.5C54.6,185.2,53.6,183.5,53.1,182.9 M49.4,181.6c0.8,1.1,1.7,2.2,2.8,3.5c0.9,1.1,1.8,2.6,3.5,2.8
	c1.4,0.1,2.2-0.6,2.9-1.2c0.7-0.7,1.4-1.6,1.2-3c-0.2-1.9-2-3.4-3.1-4.9c-1.2-1.6-2.4-3.1-3.4-4.2c0-0.1-0.1,0-0.1,0
	c-0.3,0.2,0.1,0.2,0.1,0.6c-3.1,2.6-6.3,5.1-9.5,7.6c-0.3,0.1-0.3-0.4-0.6-0.2c0.1,0.5,0.6,1,1,1.5c0.4,0.5,0.7,1.1,1.2,1.4
	c0.3-0.2-0.1-0.3,0-0.7C46.7,183.7,47.9,182.5,49.4,181.6 M197.9,186.1c-0.8-1.4-1.6-2.9-2.3-4.4c1.6,0.4,3.2,0.8,4.8,1.2
	C199.7,184,198.7,185,197.9,186.1 M194.7,178.6c0.1-0.2,0.2-0.4-0.1-0.5c-0.8,1.1-1.7,2-2.4,3.1c0.2,0.2,0.3-0.1,0.6-0.1
	c2.1,3.9,4.1,7.8,6.1,11.7c0,0.2-0.2,0.3-0.1,0.5c0.4-0.1,0.8-0.7,1.2-1.1c0.4-0.5,0.8-1,0.9-1.4c-0.2-0.2-0.3,0-0.5,0
	c-0.6-0.9-1-2-1.5-2.9c1.3-1.5,2.5-3.2,3.9-4.7c1,0.3,2.1,0.5,3.1,0.8c0,0.2-0.2,0.3,0,0.5c0.5-0.2,0.8-0.8,1.2-1.3
	c0.4-0.5,0.8-1,1.1-1.5c-1.1,0.3-2.5-0.4-3.9-0.7c-2.3-0.5-4.5-1-6.6-1.5C196.7,179.3,195.7,179.1,194.7,178.6 M182.3,196.5
	c2.4,1.7,4.8,3.4,7.2,5.1c0.1,0.3-0.2,0.3-0.1,0.5c0.5-0.1,1-0.6,1.5-1c0.2-0.2,0.5-0.4,0.7-0.6c0.2-0.2,0.6-0.4,0.6-0.7
	c-0.1-0.3-0.2,0.1-0.4,0c-1.8-3.7-3.4-7.6-5-11.4c-0.1-0.3,0.1-0.5,0-0.6c-0.5,0.1-0.9,0.5-1.3,0.8c-0.4,0.3-0.9,0.7-1.2,1.1
	c0.1,0.2,0.3,0,0.6,0.1c1.3,2.6,2.4,5.3,3.6,8c-2.4-1.7-4.8-3.4-7.2-5.2c0-0.3,0.2-0.3,0-0.5c-0.8,0.4-1.5,1.1-2.1,1.6
	c-0.2,0.2-0.6,0.3-0.6,0.6c0.1,0.3,0.2-0.1,0.4,0c1.2,2.6,2.3,5.4,3.4,8c-2.3-1.7-4.7-3.4-6.9-5.2c0-0.3,0.3-0.3,0.1-0.5
	c-0.8,0.5-1.9,1.3-2.6,2.1c0.2,0.2,0.3,0,0.6,0.1c3.3,2.5,6.8,4.9,10,7.5c-0.1,0.2-0.2,0.3-0.1,0.5c0.5-0.3,1-0.7,1.5-1.1
	c0.5-0.4,1.1-0.7,1.2-1.2c-0.1-0.2-0.2,0.1-0.4,0C184.5,202,183.5,199.2,182.3,196.5 M74.2,195.5c-0.2-0.1-0.3,0.1-0.6,0
	c-3-2.5-6-5.1-9-7.6c0-0.1-0.1,0-0.2,0c-0.2,0.2,0.2,0.2,0.1,0.6c-2.6,3.1-5.1,6.3-7.9,9.2c-0.2,0-0.3-0.2-0.5-0.1
	c0.1,0.5,0.6,0.8,1,1c2.8,2.3,5.6,4.7,8.2,7c0,0.2-0.2,0.3,0,0.5c0.7-0.4,1.4-1.5,2-2.3c-0.3-0.2-0.3,0.1-0.7,0
	c-2.3-1.9-4.7-3.8-6.9-5.8c0.7-0.9,1.4-1.8,2.2-2.6c1.5,1.3,3.1,2.5,4.5,3.9c0.1,0.2-0.2,0.4,0.1,0.6c0.4-0.2,0.7-0.7,1-1.1
	c0.3-0.4,0.9-0.8,0.9-1.3c-0.2-0.2-0.3,0.2-0.6,0.1c-1.1-0.8-2.3-1.9-3.4-2.9c-0.2-0.2-1.2-0.8-1.2-1c0,0,0.5-0.5,0.6-0.6
	c0.6-0.7,1-1.3,1.5-1.8c2.2,2,4.7,3.8,6.8,5.9c-0.2,1.2,0.7-0.2,1-0.6C73.7,196.2,74.2,195.9,74.2,195.5 M78.3,198.8
	c-0.2,0.3,0.2,0.3,0.2,0.6c-1.9,3.5-3.8,7.1-5.9,10.6c-0.2,0.2-0.4-0.2-0.6,0.1c3.2,2.1,6.9,3.7,10.1,5.8c0.1,0.1-0.1,0.6,0.2,0.5
	c0.4-0.6,1.2-1.8,1.4-2.6c-0.3-0.2-0.3,0.2-0.6,0.2c-2.5-1.4-5-2.7-7.5-4.2c1.8-3,3.3-6.2,5.2-9.1c0.3-0.1,0.4,0.3,0.6,0
	c-0.1-0.3-0.4-0.4-0.7-0.5c-0.8-0.4-1.5-0.9-2.3-1.3C78.4,198.8,78.3,198.8,78.3,198.8 M162.1,206.8c0.7-0.8,2-1.5,3.4-1.7
	c1.7-0.2,3,0.3,3.7,1c0.9,0.9,1.9,3.2,1.2,5c-0.2,0.7-0.8,1.3-1.3,1.8c-2.8,2.5-7.5,1.7-8.2-2.3
	C160.7,208.9,161.7,207.3,162.1,206.8 M166.3,202.7c-2,0.2-3.7,0.9-5.2,2c-1.5,1.2-3,3.2-2.7,6c0.3,2.2,1.7,4.2,3.4,5.2
	c4.1,2.3,9.4-1,10.8-3.7c1.7-3.3-0.1-7.2-2.3-8.6C169.3,203,167.8,202.6,166.3,202.7 M96.4,207.6c0-0.2-0.4-0.3-0.6-0.4
	c-0.9-0.3-1.8-0.5-2.6-0.8c0-0.1-0.1,0-0.1,0c-0.1,0.3,0.3,0.3,0.3,0.6c0,0.2-0.3,1-0.4,1.4c-1,3.3-2.3,7-3.3,10
	c-0.1,0.1-0.5,0-0.6,0.2c1.7,0.8,3.6,1.3,5.5,1.9c1.9,0.6,3.8,1.2,5.6,1.8c0.1,0.1,0.1,0.4,0.2,0.5c0.4-0.3,0.4-0.9,0.6-1.4
	c0.2-0.5,0.5-1,0.4-1.4c-0.2,0-0.3,0.2-0.6,0.2c-0.5,0-1.4-0.4-2-0.6c-2-0.7-4.3-1.3-6-2c1.2-3.3,2.1-6.7,3.3-9.9
	C96.1,207.6,96.5,207.9,96.4,207.6 M151.2,208.6c0-0.1-0.1-0.1-0.2-0.1c-0.6,0.2-1.2,0.4-1.8,0.6c-0.6,0.2-1.3,0.2-1.7,0.6
	c0,0.3,0.6,0,0.7,0.2c1.1,3.9,2.3,7.7,3.3,11.6c0,0.3-0.5,0.1-0.5,0.5c0.5,0.1,1.2-0.2,1.9-0.4c0.3-0.1,0.7-0.2,1-0.3
	c0.3-0.1,0.8-0.1,0.9-0.4c0-0.2-0.5,0.1-0.7-0.1c-1.2-3.8-2.3-7.7-3.3-11.6C150.8,208.8,151.4,208.9,151.2,208.6 M112.2,219
	c0.8-1.4,1.7-2.8,2.5-4.3c0.6,1.5,1.1,3.1,1.6,4.7C114.9,219.3,113.6,219.1,112.2,219 M113.3,211.6c-0.1,0.4,0.4,0.2,0.3,0.6
	c-1.8,3.2-3.9,6.6-5.7,9.8c-0.3,0.5-0.5,1.1-0.8,1.4c-0.2,0.2-0.5,0.2-0.6,0.4c0.9,0.3,2.1,0.3,3.2,0.4c0.1-0.4-0.3-0.3-0.2-0.6
	c0.6-0.9,1.1-1.8,1.7-2.6c2,0.2,4,0.5,6,0.7c0.3,1,0.8,2,1,3.1c-0.1,0.2-0.4,0.1-0.4,0.4c1.1,0.1,2.6,0.5,3.6,0.3
	c0-0.3-0.4-0.2-0.4-0.4c-1.4-4.2-2.9-8.3-4.2-12.6c0-0.2,0.5,0,0.4-0.4C116.1,211.8,114.7,211.7,113.3,211.6 M128.9,228.1
	c1.8-0.4,3.5-2.7,2.5-4.5c-0.5-0.9-2.2-0.9-2.5,0.2c-0.2,1.3,0.8,1.6,1.7,1.6c-0.1,0.5-0.2,0.8-0.5,1.2
	C129.7,227.2,128.6,227.3,128.9,228.1"/>
</svg>
