<?xml version="1.0" ?>
<!-- Generator: Adobe Illustrator 14.0.0, SVG Export Plug-In . SVG Version: 6.00 Build 43363)  -->
<svg xmlns="http://www.w3.org/2000/svg" xmlns:sodipodi="http://sodipodi.sourceforge.net/DTD/sodipodi-0.dtd" xmlns:inkscape="http://www.inkscape.org/namespaces/inkscape" version="1.1" id="Layer_1" x="0px" y="0px" viewBox="0 0 242 242" enable-background="new 0 0 250 250" xml:space="preserve" inkscape:version="0.91 r13725" sodipodi:docname="Central_Connecticut_State_University_Seal.svg">
	<sodipodi:namedview pagecolor="#ffffff" bordercolor="#666666" borderopacity="1" objecttolerance="10" gridtolerance="10" guidetolerance="10" inkscape:pageopacity="0" inkscape:pageshadow="2" inkscape:window-width="1280" inkscape:window-height="744" id="namedview3445" showgrid="false" inkscape:zoom="2.172" inkscape:cx="125" inkscape:cy="125" inkscape:window-x="-4" inkscape:window-y="-4" inkscape:window-maximized="1" inkscape:current-layer="Layer_1"/>
	<g id="g3337" transform="translate(-4.8515,-4.9665)">
		<g id="g3339">
			<path d="m 125.852,245.967 c 66.27,0 119.999,-53.727 119.999,-120 0,-66.274 -53.729,-120.001 -119.999,-120.001 -66.271,0 -120,53.727 -120,120.001 0,66.273 53.729,120 120,120" id="path3341" inkscape:connector-curvature="0" style="fill:#ffffff"/>
			<path d="m 125.85,241.312 c 63.701,0 115.339,-51.641 115.339,-115.339 0,-63.701 -51.638,-115.341 -115.339,-115.341 -63.698,0 -115.339,51.641 -115.339,115.341 -10e-4,63.698 51.64,115.339 115.339,115.339" id="path3343" inkscape:connector-curvature="0" style="fill:#ffffff"/>
			<circle cx="125.85" cy="125.971" r="115.34" id="circle3345" style="fill:none;stroke:#06519b;stroke-width:4.28149986"/>
			<path d="m 26.847,141.552 c 0.196,1.198 -0.592,2.535 -1.853,2.74 -1.359,0.22 -2.519,-0.592 -2.74,-1.948 -0.227,-1.399 0.508,-2.563 1.966,-2.803 1.34,-0.221 2.407,0.652 2.627,2.011" id="path3347" inkscape:connector-curvature="0" style="fill:#06519b"/>
			<path d="m 28.904,123.625 c -1.462,1.373 -3.851,1.936 -5.792,1.817 -1.881,-0.113 -3.785,-0.836 -5.234,-2.383 -1.029,-1.095 -1.869,-2.97 -1.736,-5.169 0.112,-1.839 0.892,-3.312 1.359,-4.012 0.178,-0.251 0.165,-0.353 0.025,-0.404 l -0.576,-0.198 c -0.119,-0.046 -0.116,-0.087 -0.105,-0.269 0.01,-0.184 0.055,-0.22 0.336,-0.203 0.386,0.024 3.383,-0.2 3.954,-0.266 0.103,-0.015 0.181,0.01 0.197,0.092 l 0.062,0.307 c 0.016,0.104 -0.007,0.143 -0.173,0.193 -0.684,0.242 -1.682,0.628 -2.603,1.423 -0.921,0.795 -1.672,1.822 -1.769,3.417 -0.219,3.613 2.906,5.261 5.861,5.421 1.172,0.07 3.478,-0.155 5.313,-1.624 1.621,-1.279 1.851,-2.422 1.934,-3.773 0.139,-2.281 -1.007,-4.133 -2.266,-5.143 -0.097,-0.065 -0.115,-0.108 -0.049,-0.164 l 0.216,-0.251 c 0.044,-0.058 0.088,-0.094 0.186,-0.029 1.686,1.319 3.204,3.376 3.032,6.223 -0.146,2.383 -0.986,3.852 -2.172,4.995" id="path3349" inkscape:connector-curvature="0" style="fill:#06519b"/>
			<path d="m 24.965,103.94 c 0.037,-0.157 0.446,-2.284 0.462,-2.53 0.033,-0.595 -0.088,-0.791 -0.659,-1.109 -0.185,-0.104 -0.561,-0.276 -0.931,-0.382 -0.099,-0.022 -0.125,-0.09 -0.107,-0.169 l 0.134,-0.488 c 0.023,-0.097 0.111,-0.118 0.185,-0.08 0.323,0.135 1.94,0.51 2.237,0.578 0.689,0.162 1.656,0.302 2.078,0.358 0.099,0.024 0.129,0.072 0.131,0.154 l -0.041,0.45 c -0.003,0.102 -0.071,0.128 -0.214,0.116 -0.266,-0.022 -0.747,-0.007 -0.978,0 -0.442,0.024 -0.789,0.171 -0.965,0.669 -0.313,0.904 -0.627,2.264 -0.701,2.581 l 1.224,0.283 c 1.065,0.247 2.989,0.65 3.384,0.742 1.029,0.217 1.538,-0.184 1.797,-0.767 0.17,-0.377 0.362,-0.935 0.476,-1.426 0.079,-0.336 0.285,-1.327 0.342,-1.75 0.038,-0.346 0.021,-1.262 -0.293,-1.875 -0.144,-0.283 -1.308,-1.716 -1.699,-2.096 -0.084,-0.082 -0.149,-0.159 -0.063,-0.263 l 0.25,-0.276 c 0.081,-0.084 0.142,-0.07 0.285,0.024 l 2.66,1.718 c 0.163,0.099 0.249,0.266 0.195,0.496 -0.045,0.196 -0.465,1.74 -1.883,7.874 -0.341,1.481 -0.44,2.185 -0.523,2.54 -0.028,0.119 -0.08,0.169 -0.179,0.145 l -0.533,-0.123 c -0.08,-0.017 -0.085,-0.083 -0.053,-0.22 l 0.182,-0.788 c 0.209,-0.906 0.091,-1.018 -0.64,-1.187 l -4.675,-1.083 -1.934,-0.45 c -1.639,-0.379 -4.114,-0.914 -4.315,-0.938 -0.65,-0.068 -0.833,0.097 -1.002,0.827 l -0.163,0.71 c -0.024,0.097 -0.057,0.152 -0.175,0.125 l -0.533,-0.123 c -0.059,-0.015 -0.091,-0.063 -0.068,-0.162 0.102,-0.433 0.32,-1.109 0.622,-2.41 l 0.2,-0.868 c 0.45,-1.953 0.883,-3.908 1.333,-5.861 0.073,-0.314 0.121,-0.698 0.144,-0.797 0.021,-0.099 0.071,-0.128 0.134,-0.135 0.295,-0.015 3.198,-0.254 3.409,-0.269 0.083,0 0.143,0.012 0.163,0.099 l 0.089,0.333 c 0.027,0.068 -0.051,0.133 -0.094,0.143 -0.089,0.022 -2.301,1.046 -2.706,1.453 -0.372,0.348 -0.737,0.846 -0.878,1.373 l -0.891,3.493 5.78,1.341" id="path3351" inkscape:connector-curvature="0" style="fill:#06519b"/>
			<path d="m 25.028,88.84 c -1.103,-0.461 -1.954,-0.159 -2.252,0.505 l -0.338,0.756 c -0.04,0.094 -0.122,0.082 -0.179,0.058 l -0.486,-0.203 c -0.075,-0.031 -0.104,-0.065 -0.065,-0.16 0.079,-0.186 0.297,-0.556 0.828,-1.825 0.265,-0.633 0.391,-1.042 0.485,-1.266 0.1,-0.242 0.238,-0.36 0.469,-0.44 0.151,-0.046 6.375,-1.699 6.724,-1.796 0.347,-0.097 5.535,-1.634 6.319,-1.834 L 36.565,82.56 34.34,81.632 c -1.664,-0.693 -2.589,-1.059 -3.538,-1.411 -0.738,-0.285 -2.609,-0.957 -2.975,-0.979 -0.529,-0.046 -0.939,0.201 -1.158,0.723 l -0.249,0.597 c -0.031,0.075 -0.084,0.096 -0.178,0.058 l -0.485,-0.203 c -0.075,-0.031 -0.097,-0.084 -0.065,-0.159 0.109,-0.261 0.415,-0.836 0.912,-2.03 0.468,-1.122 0.597,-1.593 0.7,-1.834 0.055,-0.13 0.119,-0.125 0.192,-0.094 l 0.469,0.196 c 0.075,0.032 0.115,0.092 0.083,0.167 l -0.21,0.502 c -0.21,0.505 0.03,0.824 0.725,1.158 1.222,0.6 3.073,1.371 4.29,1.88 l 6.993,2.919 c 0.262,0.109 0.441,0.206 0.41,0.28 -0.093,0.223 -0.387,0.297 -0.486,0.322 -0.046,0.005 -1.89,0.527 -3.831,1.075 -2.172,0.628 -4.462,1.274 -4.62,1.339 -0.273,0.126 -6.026,1.757 -6.223,1.808 l -0.046,0.111 4.149,1.733 c 1.74,0.728 4.851,1.852 5.242,1.97 0.759,0.23 1.162,0.266 1.371,-0.239 l 0.234,-0.561 c 0.054,-0.13 0.12,-0.125 0.231,-0.08 l 0.411,0.174 c 0.114,0.046 0.143,0.08 0.088,0.21 -0.079,0.188 -0.602,1.283 -0.811,1.789 -0.165,0.391 -0.646,1.704 -0.724,1.89 -0.032,0.075 -0.078,0.078 -0.169,0.039 L 34.585,94.779 C 34.528,94.755 34.48,94.714 34.52,94.622 l 0.264,-0.636 c 0.227,-0.542 0.088,-0.841 -0.789,-1.317 -0.34,-0.187 -2.457,-1.112 -5.785,-2.501 L 25.028,88.84" id="path3353" inkscape:connector-curvature="0" style="fill:#06519b"/>
			<path d="m 33.463,67.441 -0.272,0.428 c -0.35,0.543 -1.297,2.027 -1.517,2.823 -0.251,0.921 0.616,2.197 1.01,2.784 0.063,0.089 0.048,0.15 -0.024,0.225 l -0.28,0.251 c -0.051,0.041 -0.102,0.082 -0.18,-0.017 -0.506,-0.563 -2.327,-2.569 -2.492,-2.721 -0.202,-0.176 -0.209,-0.278 -0.166,-0.346 0.056,-0.084 0.104,-0.125 0.2,-0.162 l 0.296,-0.124 c 0.418,-0.164 0.576,-0.302 0.91,-0.785 0.612,-0.882 1.137,-1.554 2.161,-3.159 l 0.525,-0.817 c 1.187,-1.858 1.587,-2.637 2.087,-3.495 0.221,-0.384 0.313,-0.638 0.329,-1.037 l 0.001,-0.457 c 0.002,-0.118 0.02,-0.179 0.062,-0.247 0.055,-0.087 0.128,-0.087 0.371,0.02 0.226,0.097 2.551,1.126 3.39,1.469 0.096,0.039 0.107,0.094 0.071,0.191 l -0.107,0.317 c -0.027,0.077 -0.054,0.084 -0.207,0.06 -0.411,-0.072 -2.052,-0.401 -2.684,-0.012 -0.583,0.348 -1.641,1.929 -2.175,2.762 l -0.306,0.479 4.865,3.11 c 0.239,0.152 5.018,3.208 5.318,3.376 0.448,0.237 0.792,0.266 1.052,-0.145 l 0.687,-1.073 c 0.099,-0.155 0.161,-0.138 0.28,-0.063 l 0.359,0.229 c 0.086,0.056 0.126,0.104 0.027,0.256 -0.109,0.169 -0.508,0.684 -1.576,2.354 -1.045,1.639 -1.453,2.388 -1.605,2.627 -0.087,0.135 -0.166,0.109 -0.268,0.043 L 43.281,76.379 C 43.161,76.302 43.12,76.251 43.186,76.15 l 0.741,-1.16 c 0.217,-0.341 0.145,-0.677 -0.05,-0.824 -0.463,-0.368 -5.702,-3.717 -6.026,-3.923 l -4.388,-2.802" id="path3355" inkscape:connector-curvature="0" style="fill:#06519b"/>
			<path d="m 47.944,58.47 c 0.247,-0.186 0.411,-0.338 0.667,-0.624 2.459,-2.741 1.047,-4.959 0.415,-5.527 -0.694,-0.621 -1.64,-0.901 -2.394,-0.788 -0.995,0.167 -1.815,0.628 -2.935,1.878 -0.164,0.181 -0.307,0.403 -0.338,0.621 -0.02,0.171 0.079,0.396 0.319,0.611 l 4.266,3.829 m -2.71,0.017 c -1.114,-1 -2.08,-1.866 -2.529,-2.243 -0.512,-0.433 -0.93,-0.483 -1.268,-0.106 l -0.54,0.604 c -0.068,0.075 -0.126,0.048 -0.186,-0.005 l -0.377,-0.338 c -0.076,-0.067 -0.092,-0.111 -0.025,-0.186 0.122,-0.135 0.586,-0.561 1.721,-1.825 0.756,-0.843 1.967,-2.284 2.21,-2.557 1.12,-1.25 2.389,-1.904 3.445,-1.991 0.928,-0.063 1.862,0.259 2.42,0.759 1.885,1.692 1.824,3.186 0.516,5.491 l 0.031,0.026 c 0.459,-0.239 0.921,-0.205 1.194,-0.179 0.358,-0.005 2.854,0.307 3.159,0.362 0.217,0.058 2.454,0.327 2.922,0.23 0.509,-0.114 0.85,-0.433 1.228,-0.856 0.096,-0.104 0.169,-0.065 0.231,-0.012 l 0.33,0.297 c 0.09,0.082 0.123,0.138 0.028,0.244 -0.108,0.121 -0.504,0.472 -1.099,1.134 -0.392,0.438 -0.862,1.02 -1.049,1.259 -0.3,0.031 -1.108,-0.097 -1.426,-0.138 -0.29,-0.042 -2.451,-0.513 -2.638,-0.546 -0.162,-0.034 -1.895,-0.285 -2.268,-0.295 -0.818,-0.026 -1.549,-0.031 -2.333,0.843 -0.122,0.136 -0.256,0.286 -0.401,0.537 l 0.845,0.759 c 0.89,0.795 2.591,2.296 2.832,2.484 0.343,0.254 0.723,0.377 0.926,0.15 l 0.851,-0.948 c 0.094,-0.106 0.153,-0.08 0.229,-0.012 l 0.332,0.297 c 0.104,0.095 0.121,0.136 -0.013,0.288 -0.148,0.164 -0.533,0.5 -1.815,1.931 -1.229,1.371 -1.494,1.757 -1.644,1.924 -0.107,0.121 -0.153,0.08 -0.229,0.012 l -0.347,-0.312 c -0.076,-0.067 -0.12,-0.108 -0.053,-0.184 l 0.555,-0.616 c 0.296,-0.331 0.42,-0.684 0.015,-1.049 -1.466,-1.368 -2.883,-2.639 -4.315,-3.925 l -1.465,-1.308 z" id="path3357" inkscape:connector-curvature="0" style="fill:#06519b"/>
			<path d="m 63.681,44.672 c -0.522,-0.36 -4.967,-3.287 -5.234,-3.463 -0.137,-0.073 -0.257,-0.157 -0.305,-0.121 -0.064,0.053 -0.037,0.213 0.016,0.377 0.085,0.271 1.826,5.518 2.032,6.001 l 3.491,-2.794 m -3.24,3.529 c 0.158,0.522 1.213,3.621 1.4,4.014 0.072,0.124 0.168,0.307 0.231,0.387 0.177,0.22 0.467,0.196 0.814,-0.082 l 0.742,-0.595 c 0.111,-0.089 0.185,-0.094 0.248,-0.017 l 0.291,0.365 c 0.088,0.111 0.065,0.179 -0.012,0.244 -0.221,0.176 -0.906,0.648 -1.839,1.392 -1.152,0.923 -1.462,1.25 -1.684,1.426 -0.079,0.063 -0.135,0.055 -0.211,-0.039 l -0.305,-0.379 c -0.063,-0.077 -0.025,-0.159 0.038,-0.21 l 0.555,-0.442 c 0.473,-0.379 0.516,-0.778 0.333,-1.462 -0.092,-0.341 -1.28,-4.188 -1.861,-5.851 -0.143,-0.404 -1.584,-4.829 -1.784,-5.368 -0.078,-0.196 -0.164,-0.467 -0.414,-0.551 -0.098,-0.024 -0.225,-0.053 -0.276,-0.116 -0.037,-0.048 -0.057,-0.138 0.029,-0.256 0.366,-0.45 0.68,-1.479 0.678,-1.839 0.015,-0.145 0.013,-0.244 0.091,-0.307 0.095,-0.078 0.202,-0.007 0.389,0.128 1.098,0.756 5.165,3.311 6.275,4.084 1.351,0.942 4.731,3.06 5.32,3.342 0.686,0.307 1.25,0.167 1.644,-0.147 l 0.521,-0.418 c 0.096,-0.077 0.166,-0.053 0.215,0.01 l 0.316,0.394 c 0.063,0.08 0.041,0.15 -0.069,0.239 -0.285,0.227 -0.655,0.444 -1.934,1.467 -1.31,1.051 -1.826,1.54 -2.189,1.832 -0.079,0.063 -0.163,0.053 -0.239,-0.041 L 67.462,49.04 c -0.076,-0.094 -0.041,-0.147 0.055,-0.225 l 0.394,-0.314 c 0.442,-0.355 0.458,-0.628 -0.007,-0.981 -0.582,-0.469 -2.85,-1.972 -3.577,-2.429 l -3.886,3.11 z" id="path3359" inkscape:connector-curvature="0" style="fill:#06519b"/>
			<path d="m 71.487,35.93 c -0.633,-1.131 -1.717,-2.985 -1.914,-3.294 -0.292,-0.44 -0.479,-0.565 -1.009,-0.268 l -0.829,0.464 c -0.106,0.061 -0.173,-0.02 -0.223,-0.106 l -0.219,-0.389 c -0.048,-0.089 -0.049,-0.133 0.055,-0.193 0.194,-0.109 0.859,-0.413 2.322,-1.235 1.712,-0.959 2.423,-1.428 2.583,-1.516 0.14,-0.08 0.188,-0.036 0.238,0.051 l 0.227,0.406 c 0.048,0.089 0.043,0.162 -0.098,0.242 l -1.058,0.592 c -0.547,0.307 -0.519,0.524 -0.232,1.037 0.129,0.229 1.57,2.929 2.263,4.164 l 0.851,1.521 c 0.168,0.302 2.307,4.118 2.765,4.812 0.409,-0.182 3.92,-2.105 4.428,-2.485 0.952,-0.742 0.822,-3.456 0.683,-4.285 -0.003,-0.089 0.011,-0.145 0.102,-0.147 l 0.342,-0.053 c 0.074,0.005 0.083,0.021 0.125,0.138 0.016,0.155 0.944,3.466 1.104,4.002 -0.479,0.223 -5.567,3.055 -7.455,4.114 -1.395,0.783 -1.999,1.191 -2.229,1.319 -0.123,0.07 -0.161,0.043 -0.211,-0.043 l -0.247,-0.442 c -0.049,-0.09 -0.052,-0.133 0.055,-0.193 l 0.847,-0.474 c 0.652,-0.367 0.62,-0.674 0.49,-0.904 -0.187,-0.336 -2.599,-4.766 -3.203,-5.844 L 71.487,35.93" id="path3361" inkscape:connector-curvature="0" style="fill:#06519b"/>
			<path d="m 95.128,29.61 c -1.155,0.372 -2.595,-0.21 -2.984,-1.423 -0.419,-1.313 0.216,-2.579 1.527,-3 1.348,-0.433 2.609,0.121 3.06,1.53 0.414,1.291 -0.292,2.475 -1.603,2.893" id="path3363" inkscape:connector-curvature="0" style="fill:#06519b"/>
			<path d="m 111.09,29.315 c -1.593,-1.218 -2.542,-3.482 -2.744,-5.416 -0.195,-1.875 0.207,-3.875 1.493,-5.557 0.914,-1.196 2.625,-2.332 4.821,-2.562 1.83,-0.193 3.411,0.333 4.179,0.682 0.279,0.135 0.378,0.104 0.403,-0.042 l 0.101,-0.602 c 0.026,-0.125 0.066,-0.13 0.248,-0.147 0.18,-0.02 0.226,0.017 0.256,0.297 0.04,0.384 0.751,3.304 0.911,3.859 0.03,0.097 0.019,0.182 -0.061,0.208 l -0.293,0.114 c -0.098,0.029 -0.139,0.014 -0.216,-0.14 -0.352,-0.636 -0.896,-1.557 -1.832,-2.335 -0.936,-0.778 -2.074,-1.354 -3.663,-1.187 -3.602,0.377 -4.716,3.734 -4.388,6.675 0.121,1.167 0.722,3.408 2.473,4.976 1.529,1.388 2.693,1.431 4.04,1.289 2.274,-0.237 3.916,-1.672 4.703,-3.079 0.051,-0.106 0.088,-0.13 0.156,-0.078 l 0.281,0.174 c 0.065,0.034 0.109,0.07 0.06,0.176 -1.024,1.88 -2.804,3.717 -5.643,4.015 -2.374,0.251 -3.963,-0.336 -5.285,-1.32" id="path3365" inkscape:connector-curvature="0" style="fill:#06519b"/>
			<path d="m 137.85,23.646 c 0.299,-4.425 -2.679,-7.241 -4.916,-7.391 -0.305,-0.02 -1.661,-0.353 -3.271,0.981 -1.44,1.204 -2.242,3.2 -2.354,4.855 -0.355,5.315 3.212,7.439 4.928,7.553 4.443,0.295 5.492,-4.203 5.613,-5.998 m -10.079,5.155 c -1.375,-0.964 -2.761,-3.249 -2.565,-6.199 0.083,-1.233 0.535,-3.13 2.217,-4.906 1.919,-2.042 3.946,-2.315 5.641,-2.202 1.271,0.084 2.91,0.457 4.418,1.895 1.388,1.371 2.545,3.437 2.359,6.226 -0.1,1.474 -0.667,2.98 -1.813,4.324 -1.339,1.554 -3.217,2.649 -6.004,2.462 -0.991,-0.066 -2.725,-0.505 -4.253,-1.6 z" id="path3367" inkscape:connector-curvature="0" style="fill:#06519b"/>
			<path d="M 146.825,20.153 C 147.12,18.995 146.697,18.197 145.994,18 l -0.795,-0.223 c -0.1,-0.026 -0.1,-0.109 -0.085,-0.169 l 0.131,-0.51 c 0.019,-0.077 0.048,-0.111 0.147,-0.087 0.197,0.048 0.592,0.213 1.926,0.551 0.665,0.169 1.088,0.234 1.324,0.295 0.252,0.065 0.392,0.184 0.5,0.398 0.07,0.143 2.613,6.057 2.758,6.388 0.146,0.329 2.422,5.235 2.736,5.982 l 0.077,0.019 0.595,-2.334 c 0.444,-1.748 0.669,-2.714 0.88,-3.705 0.174,-0.771 0.565,-2.721 0.536,-3.084 -0.034,-0.532 -0.333,-0.899 -0.885,-1.039 l -0.628,-0.16 c -0.077,-0.021 -0.106,-0.07 -0.082,-0.169 l 0.13,-0.51 c 0.02,-0.077 0.068,-0.106 0.147,-0.084 0.275,0.07 0.888,0.288 2.14,0.606 1.179,0.3 1.662,0.36 1.919,0.421 0.138,0.036 0.14,0.099 0.12,0.179 l -0.125,0.491 c -0.02,0.08 -0.073,0.128 -0.15,0.106 l -0.531,-0.133 c -0.529,-0.135 -0.81,0.15 -1.039,0.885 -0.411,1.295 -0.909,3.239 -1.233,4.515 l -1.87,7.342 c -0.067,0.275 -0.138,0.466 -0.218,0.447 -0.231,-0.061 -0.351,-0.341 -0.389,-0.435 -0.008,-0.043 -0.796,-1.789 -1.622,-3.63 -0.936,-2.057 -1.909,-4.227 -1.996,-4.374 -0.164,-0.249 -2.617,-5.702 -2.695,-5.89 l -0.115,-0.029 -1.109,4.357 c -0.465,1.827 -1.124,5.066 -1.185,5.469 -0.116,0.786 -0.095,1.189 0.435,1.322 l 0.59,0.15 c 0.136,0.034 0.141,0.099 0.111,0.217 l -0.111,0.43 c -0.028,0.119 -0.058,0.152 -0.198,0.119 -0.193,-0.051 -1.355,-0.409 -1.885,-0.544 -0.411,-0.104 -1.779,-0.389 -1.978,-0.438 -0.074,-0.02 -0.087,-0.065 -0.06,-0.162 l 0.133,-0.512 c 0.012,-0.058 0.048,-0.111 0.145,-0.087 l 0.667,0.169 c 0.57,0.145 0.844,-0.036 1.189,-0.974 0.131,-0.363 0.739,-2.591 1.629,-6.086 l 0.85,-3.337" id="path3369" inkscape:connector-curvature="0" style="fill:#06519b"/>
			<path d="m 165.157,25.618 c 0.498,-1.085 0.225,-1.946 -0.428,-2.267 l -0.749,-0.365 c -0.092,-0.041 -0.073,-0.124 -0.049,-0.179 l 0.22,-0.479 c 0.034,-0.075 0.07,-0.101 0.162,-0.06 0.184,0.084 0.541,0.316 1.793,0.889 0.629,0.288 1.03,0.428 1.25,0.529 0.239,0.109 0.353,0.249 0.423,0.483 0.041,0.152 1.481,6.426 1.566,6.777 0.082,0.351 1.445,5.583 1.614,6.375 l 0.072,0.034 1.008,-2.192 c 0.749,-1.636 1.144,-2.547 1.53,-3.485 0.31,-0.725 1.046,-2.572 1.08,-2.937 0.065,-0.527 -0.167,-0.945 -0.682,-1.179 l -0.59,-0.271 c -0.074,-0.034 -0.092,-0.087 -0.051,-0.179 l 0.221,-0.479 c 0.033,-0.075 0.089,-0.094 0.161,-0.058 0.257,0.116 0.819,0.442 1.997,0.981 1.102,0.505 1.57,0.652 1.81,0.761 0.128,0.058 0.121,0.123 0.09,0.196 l -0.213,0.461 c -0.034,0.073 -0.097,0.111 -0.169,0.078 l -0.498,-0.228 c -0.495,-0.227 -0.824,0 -1.182,0.684 -0.641,1.199 -1.472,3.021 -2.023,4.217 l -3.158,6.883 c -0.119,0.259 -0.221,0.435 -0.295,0.401 -0.22,-0.102 -0.285,-0.399 -0.305,-0.498 -0.003,-0.046 -0.462,-1.904 -0.945,-3.862 -0.553,-2.192 -1.116,-4.5 -1.179,-4.662 -0.116,-0.275 -1.55,-6.078 -1.591,-6.276 l -0.111,-0.051 -1.875,4.087 c -0.783,1.711 -2.014,4.781 -2.146,5.165 -0.256,0.751 -0.305,1.15 0.191,1.377 l 0.553,0.254 c 0.126,0.06 0.121,0.123 0.068,0.234 l -0.184,0.403 c -0.051,0.111 -0.088,0.138 -0.218,0.08 -0.184,-0.085 -1.262,-0.646 -1.757,-0.873 -0.385,-0.177 -1.68,-0.704 -1.864,-0.788 -0.074,-0.034 -0.077,-0.077 -0.033,-0.171 l 0.22,-0.479 c 0.026,-0.053 0.067,-0.102 0.162,-0.058 l 0.626,0.285 c 0.534,0.244 0.834,0.119 1.341,-0.742 0.196,-0.333 1.196,-2.414 2.697,-5.691 l 1.44,-3.125" id="path3371" inkscape:connector-curvature="0" style="fill:#06519b"/>
			<path d="m 181.587,38.695 c 0.133,0.092 1.967,1.245 2.192,1.346 0.541,0.247 0.764,0.206 1.266,-0.21 0.167,-0.135 0.462,-0.423 0.694,-0.73 0.058,-0.084 0.133,-0.082 0.195,-0.039 l 0.408,0.302 c 0.085,0.058 0.07,0.147 0.008,0.203 -0.244,0.251 -1.18,1.622 -1.349,1.873 -0.399,0.587 -0.88,1.436 -1.088,1.81 -0.053,0.084 -0.111,0.094 -0.188,0.065 l -0.401,-0.201 c -0.097,-0.039 -0.094,-0.114 -0.033,-0.242 0.115,-0.239 0.277,-0.694 0.353,-0.911 0.141,-0.42 0.128,-0.798 -0.273,-1.143 -0.728,-0.621 -1.883,-1.407 -2.148,-1.588 l -0.705,1.037 c -0.617,0.904 -1.688,2.55 -1.917,2.886 -0.578,0.882 -0.387,1.501 0.063,1.955 0.288,0.295 0.737,0.677 1.155,0.959 0.285,0.196 1.132,0.75 1.506,0.955 0.31,0.16 1.165,0.477 1.852,0.406 0.316,-0.031 2.073,-0.597 2.566,-0.824 0.108,-0.048 0.203,-0.082 0.271,0.036 l 0.167,0.334 c 0.046,0.108 0.012,0.157 -0.128,0.258 l -2.562,1.856 c -0.152,0.116 -0.339,0.138 -0.539,0 -0.167,-0.113 -1.453,-1.065 -6.649,-4.611 -1.254,-0.853 -1.873,-1.203 -2.173,-1.409 -0.101,-0.068 -0.128,-0.135 -0.069,-0.22 l 0.309,-0.452 c 0.044,-0.065 0.106,-0.048 0.223,0.031 l 0.67,0.457 c 0.766,0.524 0.916,0.452 1.336,-0.167 l 2.702,-3.968 1.117,-1.641 c 0.947,-1.39 2.337,-3.504 2.436,-3.683 0.295,-0.58 0.211,-0.813 -0.408,-1.235 l -0.602,-0.408 c -0.085,-0.058 -0.121,-0.109 -0.054,-0.21 l 0.308,-0.452 c 0.036,-0.051 0.089,-0.061 0.174,-0.005 0.367,0.253 0.918,0.701 2.022,1.455 l 0.735,0.5 c 1.652,1.128 3.315,2.24 4.971,3.369 0.269,0.184 0.607,0.365 0.694,0.423 0.082,0.058 0.092,0.114 0.077,0.174 -0.097,0.281 -0.924,3.077 -0.986,3.277 -0.026,0.078 -0.063,0.128 -0.154,0.116 l -0.339,-0.036 c -0.072,0 -0.106,-0.097 -0.102,-0.141 0.015,-0.092 -0.14,-2.525 -0.367,-3.05 -0.193,-0.474 -0.524,-0.993 -0.967,-1.317 l -2.924,-2.098 -3.345,4.908" id="path3373" inkscape:connector-curvature="0" style="fill:#06519b"/>
			<path d="m 188.961,51.906 c -0.104,-2.001 1,-4.191 2.344,-5.598 1.298,-1.365 3.077,-2.354 5.191,-2.465 1.504,-0.08 3.476,0.486 5.073,2.006 1.334,1.269 1.955,2.813 2.192,3.623 0.077,0.299 0.164,0.355 0.29,0.28 l 0.521,-0.314 c 0.116,-0.06 0.146,-0.031 0.275,0.094 0.131,0.124 0.133,0.182 -0.063,0.387 -0.264,0.28 -2.025,2.714 -2.342,3.195 -0.056,0.087 -0.123,0.13 -0.198,0.089 l -0.275,-0.15 c -0.09,-0.056 -0.104,-0.099 -0.034,-0.256 0.254,-0.679 0.602,-1.689 0.587,-2.907 -0.014,-1.216 -0.313,-2.453 -1.472,-3.555 -2.622,-2.497 -5.899,-1.17 -7.92,0.986 -0.81,0.851 -2.127,2.758 -2.185,5.109 -0.063,2.062 0.66,2.975 1.639,3.908 1.658,1.576 3.813,1.895 5.395,1.583 0.116,-0.032 0.159,-0.017 0.159,0.067 l 0.049,0.329 c 0.019,0.07 0.019,0.128 -0.092,0.16 -2.099,0.438 -4.648,0.273 -6.715,-1.694 -1.726,-1.643 -2.309,-3.234 -2.419,-4.877" id="path3375" inkscape:connector-curvature="0" style="fill:#06519b"/>
			<path d="m 211.684,58.663 -0.305,-0.403 c -0.392,-0.518 -1.45,-1.921 -2.119,-2.405 -0.776,-0.554 -2.271,-0.184 -2.961,-0.02 -0.106,0.029 -0.159,-0.007 -0.203,-0.102 l -0.14,-0.35 c -0.018,-0.061 -0.039,-0.121 0.082,-0.162 0.706,-0.278 3.214,-1.288 3.417,-1.39 0.237,-0.126 0.334,-0.097 0.382,-0.034 0.061,0.082 0.083,0.143 0.083,0.242 l 0.009,0.321 c 0.013,0.449 0.085,0.645 0.424,1.126 0.611,0.88 1.059,1.607 2.204,3.123 l 0.587,0.776 c 1.324,1.757 1.914,2.405 2.545,3.168 0.283,0.343 0.49,0.517 0.858,0.669 l 0.428,0.16 c 0.108,0.046 0.161,0.08 0.21,0.145 0.063,0.082 0.036,0.15 -0.15,0.341 -0.169,0.179 -1.942,1.999 -2.557,2.663 -0.067,0.078 -0.126,0.07 -0.203,0.002 l -0.259,-0.21 c -0.064,-0.051 -0.06,-0.08 0.018,-0.215 0.208,-0.36 1.087,-1.784 0.944,-2.511 -0.123,-0.667 -1.234,-2.209 -1.834,-3 l -0.339,-0.452 -4.608,3.478 c -0.229,0.169 -4.754,3.586 -5.018,3.809 -0.379,0.338 -0.524,0.65 -0.231,1.037 l 0.766,1.018 c 0.111,0.145 0.072,0.198 -0.038,0.283 l -0.339,0.256 c -0.082,0.061 -0.143,0.082 -0.251,-0.063 -0.126,-0.162 -0.465,-0.715 -1.658,-2.296 -1.17,-1.549 -1.729,-2.19 -1.899,-2.417 -0.097,-0.128 -0.044,-0.193 0.053,-0.266 l 0.307,-0.232 c 0.114,-0.087 0.175,-0.106 0.249,-0.01 l 0.827,1.097 c 0.241,0.324 0.58,0.37 0.788,0.239 0.505,-0.305 5.469,-4.051 5.775,-4.283 l 4.156,-3.132" id="path3377" inkscape:connector-curvature="0" style="fill:#06519b"/>
			<path d="m 215.092,72.889 c 0.42,-0.242 3.558,-2.103 3.809,-2.27 0.401,-0.278 0.479,-0.553 0.097,-1.22 l -0.58,-1.018 c -0.051,-0.087 -0.043,-0.162 0.024,-0.201 l 0.474,-0.271 c 0.072,-0.041 0.138,-0.01 0.177,0.063 0.123,0.21 0.58,1.136 1.515,2.77 0.89,1.563 1.262,2.095 1.402,2.339 0.053,0.087 0.02,0.152 -0.051,0.193 l -0.438,0.249 c -0.09,0.051 -0.155,0.02 -0.208,-0.07 l -0.469,-0.824 c -0.201,-0.351 -0.493,-0.534 -0.846,-0.333 -0.175,0.101 -4.092,2.267 -4.303,2.388 l -1.353,0.773 c -0.18,0.102 -4.211,2.475 -4.404,2.583 -0.546,0.312 -0.483,0.626 -0.161,1.187 l 0.41,0.72 c 0.051,0.087 0.044,0.162 -0.043,0.213 l -0.457,0.258 c -0.07,0.042 -0.136,0.01 -0.196,-0.094 -0.12,-0.21 -0.469,-0.942 -1.341,-2.47 -0.952,-1.67 -1.436,-2.395 -1.547,-2.588 -0.051,-0.087 -0.043,-0.162 0.026,-0.201 l 0.477,-0.271 c 0.067,-0.042 0.135,-0.01 0.184,0.08 l 0.561,0.983 c 0.2,0.351 0.464,0.689 0.962,0.498 0.285,-0.116 4.113,-2.233 5.047,-2.765 l 1.232,-0.701" id="path3379" inkscape:connector-curvature="0" style="fill:#06519b"/>
			<path d="m 213.404,84.403 c 0.723,-1.869 2.63,-3.41 4.428,-4.147 1.745,-0.71 3.775,-0.885 5.752,-0.121 1.402,0.542 2.973,1.866 3.81,3.906 0.695,1.704 0.633,3.369 0.515,4.203 -0.051,0.304 0.007,0.392 0.154,0.375 l 0.604,-0.073 c 0.128,-0.007 0.143,0.029 0.213,0.198 0.069,0.169 0.046,0.22 -0.218,0.326 -0.355,0.147 -2.958,1.648 -3.444,1.956 -0.087,0.056 -0.169,0.07 -0.217,0.002 l -0.191,-0.251 c -0.056,-0.084 -0.056,-0.13 0.075,-0.249 0.51,-0.512 1.242,-1.293 1.726,-2.41 0.483,-1.114 0.715,-2.368 0.111,-3.845 -1.373,-3.35 -4.901,-3.48 -7.633,-2.344 -1.088,0.445 -3.069,1.648 -4.084,3.766 -0.904,1.856 -0.619,2.985 -0.104,4.239 0.865,2.115 2.7,3.287 4.273,3.65 0.118,0.017 0.152,0.048 0.118,0.125 l -0.09,0.321 c -0.014,0.073 -0.036,0.124 -0.151,0.106 -2.094,-0.457 -4.354,-1.653 -5.434,-4.292 -0.904,-2.208 -0.783,-3.895 -0.213,-5.441" id="path3381" inkscape:connector-curvature="0" style="fill:#06519b"/>
			<path d="m 217.937,101.63 c 0.234,-1.46 0.949,-2.344 2.129,-2.939 0.836,-0.435 2.144,-0.807 4.732,-1.382 l 4.708,-1.046 c 0.693,-0.152 0.977,-0.363 0.841,-0.974 l -0.203,-0.928 c -0.029,-0.118 0.007,-0.147 0.146,-0.179 l 0.435,-0.094 c 0.118,-0.029 0.164,-0.017 0.198,0.14 0.044,0.198 0.198,1.18 0.541,2.719 0.344,1.539 0.614,2.475 0.662,2.692 0.034,0.16 0,0.187 -0.077,0.206 l -0.515,0.114 c -0.102,0.021 -0.145,0.01 -0.174,-0.128 l -0.22,-0.988 c -0.128,-0.573 -0.578,-0.822 -1.021,-0.766 -0.184,0.02 -1.573,0.307 -2.581,0.532 l -1.305,0.29 c -1.049,0.232 -3.543,0.87 -4.172,1.029 -0.906,0.223 -1.801,0.587 -2.373,1.192 -0.904,0.967 -0.981,2.308 -0.726,3.454 0.252,1.126 0.88,2.189 1.745,2.721 1.006,0.585 2.248,0.578 3.713,0.254 l 4.229,-0.94 c 1.505,-0.333 2.644,-0.628 3.125,-0.797 0.5,-0.174 0.785,-0.568 0.674,-1.083 l -0.193,-0.868 c -0.029,-0.119 0.029,-0.152 0.126,-0.174 l 0.474,-0.106 c 0.102,-0.021 0.145,-0.009 0.169,0.106 0.044,0.198 0.188,1.119 0.483,2.441 0.302,1.363 0.503,1.982 0.541,2.161 0.039,0.179 -0.033,0.217 -0.094,0.229 l -0.433,0.097 c -0.121,0.026 -0.203,0.024 -0.228,-0.075 l -0.179,-0.81 c -0.164,-0.73 -0.729,-0.665 -0.981,-0.672 -0.205,0.005 -3.016,0.626 -3.291,0.689 -0.278,0.06 -3.746,0.79 -4.529,0.904 -1.648,0.242 -2.992,0.084 -4.187,-0.812 -0.908,-0.626 -1.634,-1.73 -2.016,-3.449 -0.224,-1.027 -0.307,-2.047 -0.173,-2.76" id="path3383" inkscape:connector-curvature="0" style="fill:#06519b"/>
			<path d="m 234.141,118.872 -0.023,-0.505 c -0.031,-0.646 -0.116,-2.405 -0.396,-3.181 -0.329,-0.896 -1.774,-1.433 -2.432,-1.687 -0.102,-0.036 -0.128,-0.094 -0.111,-0.196 l 0.082,-0.37 c 0.018,-0.063 0.037,-0.124 0.16,-0.089 0.739,0.169 3.381,0.751 3.605,0.78 0.266,0.029 0.329,0.106 0.334,0.186 0.005,0.102 -0.015,0.165 -0.068,0.249 l -0.171,0.271 c -0.247,0.375 -0.298,0.58 -0.288,1.167 0.01,1.073 -0.031,1.926 0.059,3.824 l 0.048,0.969 c 0.104,2.204 0.228,3.067 0.314,4.055 0.041,0.445 0.116,0.704 0.333,1.04 l 0.262,0.372 c 0.065,0.097 0.087,0.157 0.092,0.237 0.007,0.102 -0.054,0.145 -0.314,0.198 -0.241,0.051 -2.731,0.554 -3.613,0.759 -0.102,0.026 -0.145,-0.015 -0.169,-0.113 l -0.097,-0.319 c -0.021,-0.082 -0.005,-0.102 0.133,-0.169 0.38,-0.179 1.907,-0.861 2.199,-1.542 0.275,-0.621 0.225,-2.523 0.179,-3.512 l -0.028,-0.565 -5.767,0.273 c -0.285,0.017 -5.95,0.285 -6.294,0.321 -0.503,0.065 -0.798,0.242 -0.778,0.725 l 0.065,1.274 c 0.007,0.181 -0.053,0.205 -0.195,0.21 l -0.424,0.022 c -0.102,0.005 -0.164,-0.015 -0.171,-0.196 -0.01,-0.203 0.02,-0.853 -0.073,-2.833 -0.097,-1.938 -0.197,-2.784 -0.21,-3.067 -0.007,-0.16 0.072,-0.184 0.193,-0.189 l 0.385,-0.019 c 0.145,-0.007 0.203,0.01 0.21,0.13 l 0.065,1.375 c 0.02,0.401 0.275,0.633 0.517,0.643 0.59,0.034 6.804,-0.263 7.188,-0.283 l 5.199,-0.245" id="path3385" inkscape:connector-curvature="0" style="fill:#06519b"/>
			<path d="m 22.05,162.95 c 0.077,-0.288 0.088,-0.418 0.051,-0.51 -0.044,-0.111 -0.203,-0.136 -0.432,-0.17 -0.248,-0.028 -0.302,-0.113 -0.354,-0.243 -0.045,-0.109 0.01,-0.237 0.227,-0.283 0.491,-0.111 2.904,-0.865 3.461,-1.027 0.119,-0.024 0.133,0.01 0.162,0.087 l 0.093,0.28 c 0.029,0.075 0.007,0.126 -0.103,0.17 -0.581,0.256 -1.176,0.538 -1.872,1.52 -0.644,0.901 -0.733,2.112 -0.326,3.125 0.443,1.103 1.688,2.227 3.345,1.562 1.898,-0.764 2.05,-2.405 1.975,-4.085 -0.027,-0.649 -0.099,-2.158 0.412,-3.284 0.364,-0.851 1.104,-1.511 2.32,-1.999 0.921,-0.369 2.052,-0.161 2.818,0.193 0.892,0.409 1.519,1.229 1.919,2.219 0.421,1.049 0.435,1.984 0.412,2.356 -0.025,0.201 0.03,0.285 0.159,0.341 l 0.318,0.152 c 0.111,0.061 0.169,0.102 0.207,0.193 0.037,0.092 -0.087,0.206 -0.254,0.273 -0.646,0.259 -2.428,1.252 -2.825,1.433 -0.092,0.039 -0.135,0.034 -0.184,-0.033 l -0.145,-0.198 c -0.041,-0.046 -0.038,-0.092 0.011,-0.133 0.475,-0.36 1.097,-0.888 1.586,-1.96 0.335,-0.711 0.333,-1.46 -0.014,-2.323 -0.659,-1.636 -2.111,-1.737 -3.051,-1.36 -0.515,0.21 -1.079,0.563 -1.373,1.213 -0.319,0.75 -0.312,1.941 -0.262,2.54 0.105,1.434 0.207,2.589 -0.337,3.577 -0.379,0.708 -0.964,1.327 -2.181,1.817 -2.174,0.87 -4.568,0.293 -5.544,-2.134 -0.519,-1.288 -0.495,-2.345 -0.219,-3.309" id="path3387" inkscape:connector-curvature="0" style="fill:#06519b"/>
			<path d="m 40.313,172.358 -0.248,-0.428 c -0.316,-0.548 -1.182,-2.042 -1.775,-2.593 -0.687,-0.633 -2.188,-0.452 -2.876,-0.375 -0.106,0.013 -0.154,-0.028 -0.186,-0.123 l -0.093,-0.357 c -0.012,-0.063 -0.025,-0.126 0.098,-0.15 0.718,-0.186 3.282,-0.865 3.491,-0.939 0.243,-0.095 0.335,-0.059 0.375,0.012 0.048,0.087 0.063,0.147 0.05,0.246 l -0.025,0.313 c -0.046,0.439 0.002,0.641 0.274,1.147 0.492,0.931 0.841,1.689 1.772,3.304 l 0.478,0.824 c 1.083,1.871 1.578,2.567 2.098,3.389 0.237,0.37 0.418,0.563 0.758,0.757 l 0.395,0.205 c 0.103,0.058 0.147,0.097 0.188,0.167 0.051,0.084 0.019,0.149 -0.186,0.314 -0.185,0.151 -2.128,1.711 -2.804,2.283 -0.076,0.068 -0.13,0.051 -0.197,-0.023 l -0.228,-0.235 c -0.056,-0.058 -0.048,-0.084 0.041,-0.205 0.247,-0.326 1.272,-1.604 1.219,-2.332 -0.04,-0.665 -0.939,-2.296 -1.426,-3.137 l -0.278,-0.481 -4.896,2.83 c -0.24,0.141 -5.051,2.92 -5.333,3.105 -0.41,0.283 -0.588,0.568 -0.351,0.979 l 0.626,1.082 c 0.089,0.155 0.047,0.203 -0.072,0.271 l -0.361,0.211 c -0.086,0.048 -0.147,0.061 -0.237,-0.092 -0.098,-0.169 -0.366,-0.749 -1.338,-2.432 -0.954,-1.65 -1.422,-2.34 -1.563,-2.581 -0.079,-0.141 -0.021,-0.196 0.083,-0.254 l 0.327,-0.19 c 0.12,-0.07 0.182,-0.083 0.239,0.021 l 0.676,1.167 c 0.199,0.344 0.525,0.428 0.741,0.329 0.528,-0.239 5.803,-3.287 6.129,-3.476 l 4.415,-2.553" id="path3389" inkscape:connector-curvature="0" style="fill:#06519b"/>
			<path d="m 43.862,190.215 c 0.359,-0.508 3.282,-4.829 3.455,-5.09 0.074,-0.133 0.16,-0.249 0.122,-0.295 -0.048,-0.063 -0.208,-0.039 -0.369,0.01 -0.265,0.082 -5.429,1.726 -5.905,1.919 l 2.697,3.456 m -3.419,-3.22 c -0.514,0.15 -3.563,1.148 -3.953,1.327 -0.122,0.07 -0.302,0.159 -0.381,0.22 -0.22,0.172 -0.199,0.459 0.071,0.8 l 0.573,0.735 c 0.085,0.11 0.09,0.181 0.012,0.241 l -0.36,0.283 c -0.109,0.084 -0.178,0.063 -0.238,-0.015 -0.17,-0.22 -0.624,-0.896 -1.344,-1.817 -0.891,-1.144 -1.206,-1.45 -1.376,-1.67 -0.062,-0.078 -0.054,-0.134 0.039,-0.206 l 0.375,-0.295 c 0.079,-0.061 0.16,-0.021 0.207,0.041 l 0.428,0.547 c 0.366,0.471 0.755,0.517 1.427,0.343 0.336,-0.085 4.121,-1.203 5.758,-1.752 0.399,-0.133 4.751,-1.496 5.283,-1.685 0.193,-0.077 0.457,-0.155 0.544,-0.401 0.025,-0.094 0.054,-0.22 0.117,-0.266 0.048,-0.039 0.134,-0.056 0.251,0.031 0.435,0.362 1.443,0.684 1.795,0.684 0.138,0.018 0.238,0.015 0.298,0.095 0.074,0.092 0.005,0.198 -0.131,0.379 -0.754,1.066 -3.306,5.022 -4.076,6.103 -0.94,1.311 -3.057,4.6 -3.341,5.173 -0.309,0.669 -0.179,1.223 0.125,1.614 l 0.404,0.515 c 0.074,0.092 0.051,0.162 -0.012,0.21 l -0.392,0.305 c -0.078,0.063 -0.146,0.041 -0.232,-0.067 -0.22,-0.28 -0.428,-0.646 -1.417,-1.912 -1.011,-1.298 -1.486,-1.808 -1.767,-2.17 -0.061,-0.077 -0.049,-0.162 0.045,-0.234 l 0.359,-0.283 c 0.094,-0.072 0.146,-0.036 0.22,0.059 l 0.306,0.389 c 0.341,0.438 0.607,0.457 0.959,0.005 0.465,-0.563 1.967,-2.77 2.423,-3.476 l -2.999,-3.85 z" id="path3391" inkscape:connector-curvature="0" style="fill:#06519b"/>
			<path d="m 57.141,194.27 -0.359,-0.343 c -0.458,-0.438 -1.703,-1.631 -2.427,-1.994 -0.836,-0.418 -2.227,0.174 -2.868,0.44 -0.098,0.043 -0.153,0.02 -0.211,-0.065 l -0.189,-0.319 c -0.028,-0.056 -0.057,-0.111 0.053,-0.172 0.638,-0.377 2.912,-1.744 3.092,-1.873 0.208,-0.159 0.307,-0.146 0.364,-0.094 0.071,0.07 0.1,0.126 0.117,0.223 l 0.062,0.309 c 0.079,0.433 0.181,0.614 0.583,1.025 0.73,0.756 1.276,1.387 2.621,2.678 l 0.687,0.66 c 1.559,1.493 2.23,2.027 2.958,2.67 0.329,0.288 0.556,0.423 0.937,0.513 l 0.436,0.089 c 0.114,0.027 0.169,0.054 0.229,0.106 0.071,0.07 0.058,0.143 -0.092,0.355 -0.137,0.198 -1.57,2.235 -2.061,2.973 -0.054,0.087 -0.111,0.09 -0.195,0.036 l -0.284,-0.164 c -0.071,-0.041 -0.071,-0.067 -0.02,-0.21 0.147,-0.382 0.778,-1.896 0.526,-2.576 -0.224,-0.629 -1.542,-1.948 -2.242,-2.618 l -0.401,-0.384 -3.919,4.082 c -0.192,0.2 -4.043,4.21 -4.263,4.466 -0.314,0.39 -0.406,0.711 -0.063,1.04 l 0.9,0.867 c 0.131,0.123 0.103,0.179 0.006,0.278 l -0.288,0.302 c -0.069,0.07 -0.126,0.099 -0.253,-0.021 -0.145,-0.141 -0.561,-0.619 -1.962,-1.965 -1.375,-1.315 -2.017,-1.85 -2.216,-2.043 -0.113,-0.11 -0.074,-0.181 0.009,-0.268 l 0.261,-0.271 c 0.098,-0.102 0.152,-0.131 0.237,-0.049 l 0.976,0.936 c 0.285,0.272 0.621,0.266 0.8,0.108 0.443,-0.374 4.665,-4.773 4.925,-5.044 l 3.534,-3.683" id="path3393" inkscape:connector-curvature="0" style="fill:#06519b"/>
			<path d="m 64.61,208.141 c 0.13,0.092 1.913,1.242 2.13,1.346 0.528,0.249 0.748,0.208 1.249,-0.193 0.163,-0.128 0.456,-0.406 0.688,-0.706 0.056,-0.079 0.128,-0.079 0.193,-0.033 l 0.394,0.3 c 0.081,0.058 0.069,0.145 0.006,0.2 -0.243,0.242 -1.175,1.576 -1.346,1.817 -0.399,0.57 -0.88,1.397 -1.086,1.762 -0.057,0.08 -0.111,0.092 -0.188,0.061 l -0.392,-0.198 c -0.092,-0.043 -0.091,-0.113 -0.026,-0.239 0.115,-0.234 0.28,-0.679 0.356,-0.892 0.14,-0.408 0.133,-0.775 -0.255,-1.121 -0.706,-0.614 -1.827,-1.399 -2.085,-1.581 l -0.706,1.008 c -0.615,0.878 -1.686,2.479 -1.915,2.804 -0.575,0.858 -0.396,1.467 0.038,1.917 0.278,0.292 0.715,0.672 1.122,0.954 0.275,0.196 1.1,0.747 1.463,0.952 0.298,0.162 1.138,0.483 1.81,0.421 0.31,-0.026 2.039,-0.561 2.527,-0.776 0.105,-0.048 0.199,-0.079 0.262,0.039 l 0.158,0.326 c 0.046,0.106 0.012,0.155 -0.128,0.252 l -2.533,1.79 c -0.151,0.111 -0.333,0.129 -0.528,-0.007 -0.162,-0.113 -1.41,-1.061 -6.46,-4.595 -1.217,-0.853 -1.82,-1.203 -2.112,-1.409 -0.096,-0.067 -0.124,-0.133 -0.065,-0.215 l 0.307,-0.438 c 0.044,-0.067 0.105,-0.048 0.22,0.031 l 0.649,0.455 c 0.746,0.521 0.891,0.454 1.313,-0.147 l 2.698,-3.855 1.115,-1.595 c 0.945,-1.352 2.335,-3.405 2.433,-3.579 0.3,-0.568 0.218,-0.796 -0.384,-1.216 l -0.583,-0.408 c -0.081,-0.059 -0.119,-0.106 -0.05,-0.206 l 0.307,-0.438 c 0.034,-0.048 0.089,-0.061 0.169,-0.002 0.358,0.249 0.892,0.696 1.964,1.445 l 0.714,0.503 c 1.607,1.123 3.227,2.232 4.833,3.359 0.261,0.181 0.591,0.364 0.673,0.42 0.081,0.059 0.091,0.111 0.073,0.172 -0.094,0.275 -0.94,3.004 -1.005,3.2 -0.029,0.077 -0.063,0.125 -0.151,0.113 l -0.333,-0.041 c -0.071,-0.003 -0.103,-0.097 -0.097,-0.141 0.013,-0.087 -0.106,-2.475 -0.325,-2.992 -0.181,-0.464 -0.499,-0.979 -0.927,-1.302 l -2.843,-2.089 -3.341,4.767" id="path3395" inkscape:connector-curvature="0" style="fill:#06519b"/>
			<path d="m 88.52,224.033 c -1.113,-0.415 -1.869,-1.735 -1.431,-2.905 0.473,-1.264 1.731,-1.854 2.995,-1.382 1.3,0.485 1.933,1.677 1.426,3.033 -0.467,1.244 -1.726,1.728 -2.99,1.254" id="path3397" inkscape:connector-curvature="0" style="fill:#06519b"/>
			<path d="m 110.729,234.566 c -1.282,-0.68 -1.875,-1.624 -2.053,-2.9 -0.138,-0.916 -0.072,-2.245 0.213,-4.831 l 0.517,-4.696 c 0.076,-0.688 -0.028,-1.02 -0.638,-1.088 l -0.925,-0.102 c -0.117,-0.015 -0.134,-0.056 -0.119,-0.193 l 0.048,-0.433 c 0.013,-0.118 0.036,-0.157 0.194,-0.147 0.197,0.022 1.154,0.188 2.691,0.358 1.536,0.169 2.489,0.215 2.706,0.244 0.157,0.019 0.173,0.06 0.165,0.14 l -0.057,0.513 c -0.009,0.099 -0.035,0.135 -0.172,0.121 l -0.985,-0.109 c -0.57,-0.063 -0.947,0.275 -1.034,0.703 -0.04,0.177 -0.211,1.555 -0.323,2.563 l -0.143,1.303 c -0.115,1.044 -0.313,3.56 -0.362,4.193 -0.08,0.908 -0.024,1.854 0.355,2.576 0.612,1.143 1.833,1.639 2.975,1.764 1.123,0.126 2.307,-0.123 3.074,-0.761 0.859,-0.74 1.246,-1.897 1.407,-3.357 l 0.465,-4.222 c 0.166,-1.499 0.251,-2.649 0.247,-3.149 -0.002,-0.518 -0.279,-0.909 -0.791,-0.965 l -0.868,-0.097 c -0.117,-0.012 -0.131,-0.072 -0.12,-0.171 l 0.051,-0.474 c 0.012,-0.1 0.037,-0.138 0.154,-0.131 0.198,0.021 1.097,0.179 2.416,0.326 1.361,0.147 1.996,0.159 2.174,0.187 0.178,0.021 0.188,0.102 0.183,0.162 l -0.048,0.433 c -0.012,0.118 -0.042,0.195 -0.139,0.186 l -0.807,-0.092 c -0.73,-0.077 -0.848,0.467 -0.934,0.698 -0.062,0.191 -0.371,2.992 -0.4,3.268 -0.032,0.275 -0.451,3.727 -0.593,4.491 -0.297,1.604 -0.869,2.798 -2.075,3.622 -0.868,0.646 -2.12,0.965 -3.834,0.776 -1.027,-0.115 -1.997,-0.359 -2.615,-0.709" id="path3399" inkscape:connector-curvature="0" style="fill:#06519b"/>
			<path d="m 126.766,224.323 c -0.072,-1.167 -0.703,-1.786 -1.417,-1.764 l -0.813,0.028 c -0.098,0.008 -0.123,-0.069 -0.127,-0.13 l -0.031,-0.515 c -0.005,-0.078 0.013,-0.121 0.112,-0.124 0.197,-0.015 0.618,0.02 1.962,-0.061 0.675,-0.041 1.088,-0.105 1.324,-0.12 0.257,-0.015 0.421,0.053 0.59,0.225 0.106,0.111 4.249,4.875 4.481,5.136 0.234,0.266 3.828,4.167 4.34,4.771 l 0.08,-0.005 -0.143,-2.356 c -0.106,-1.764 -0.184,-2.733 -0.285,-3.722 -0.065,-0.773 -0.28,-2.707 -0.421,-3.035 -0.186,-0.488 -0.58,-0.74 -1.133,-0.711 l -0.634,0.041 c -0.079,0.005 -0.12,-0.034 -0.128,-0.133 l -0.029,-0.515 c -0.005,-0.077 0.029,-0.123 0.109,-0.131 0.277,-0.017 0.916,0.005 2.183,-0.07 1.188,-0.074 1.657,-0.161 1.919,-0.171 0.135,-0.01 0.159,0.051 0.164,0.128 l 0.029,0.495 c 0.005,0.08 -0.029,0.141 -0.111,0.147 l -0.534,0.031 c -0.534,0.032 -0.713,0.38 -0.706,1.134 0,1.337 0.118,3.297 0.196,4.585 l 0.444,7.407 c 0.02,0.278 0.01,0.477 -0.07,0.481 -0.234,0.015 -0.428,-0.211 -0.493,-0.288 -0.021,-0.038 -1.278,-1.436 -2.598,-2.905 -1.489,-1.641 -3.045,-3.376 -3.171,-3.487 -0.228,-0.184 -4.147,-4.541 -4.273,-4.693 l -0.12,0.008 0.263,4.398 c 0.111,1.842 0.465,5.061 0.529,5.455 0.126,0.769 0.267,1.136 0.803,1.104 l 0.592,-0.034 c 0.138,-0.01 0.162,0.051 0.17,0.169 l 0.026,0.436 c 0.007,0.118 -0.013,0.159 -0.15,0.166 -0.198,0.013 -1.387,0.024 -1.924,0.056 -0.415,0.026 -1.777,0.167 -1.976,0.182 -0.08,0.002 -0.101,-0.034 -0.107,-0.136 l -0.03,-0.512 c -0.005,-0.063 0.012,-0.124 0.111,-0.129 l 0.673,-0.041 c 0.575,-0.033 0.778,-0.282 0.817,-1.261 0.017,-0.38 -0.077,-2.64 -0.29,-6.166 l -0.203,-3.368" id="path3401" inkscape:connector-curvature="0" style="fill:#06519b"/>
			<path d="m 145.228,225.527 c -0.092,-0.467 -0.851,-3.959 -0.928,-4.247 -0.133,-0.459 -0.365,-0.616 -1.104,-0.469 l -1.126,0.225 c -0.097,0.022 -0.165,-0.009 -0.18,-0.087 l -0.105,-0.524 c -0.015,-0.077 0.036,-0.128 0.113,-0.147 0.231,-0.048 1.235,-0.186 3.043,-0.546 1.73,-0.346 2.339,-0.527 2.612,-0.577 0.1,-0.018 0.147,0.031 0.162,0.108 l 0.099,0.488 c 0.02,0.099 -0.031,0.147 -0.128,0.167 l -0.913,0.181 c -0.387,0.077 -0.648,0.293 -0.573,0.682 0.041,0.196 0.841,4.508 0.887,4.742 l 0.3,1.498 c 0.039,0.196 0.996,4.682 1.039,4.895 0.119,0.604 0.431,0.646 1.054,0.521 l 0.796,-0.159 c 0.097,-0.02 0.162,0.007 0.181,0.104 l 0.102,0.506 c 0.018,0.082 -0.033,0.13 -0.149,0.154 -0.232,0.046 -1.022,0.143 -2.714,0.479 -1.847,0.367 -2.671,0.592 -2.884,0.636 -0.097,0.02 -0.164,-0.01 -0.179,-0.087 l -0.106,-0.524 c -0.015,-0.08 0.036,-0.128 0.133,-0.147 l 1.09,-0.218 c 0.387,-0.077 0.783,-0.218 0.759,-0.737 -0.017,-0.302 -0.8,-4.52 -1.005,-5.549 l -0.276,-1.368" id="path3403" inkscape:connector-curvature="0" style="fill:#06519b"/>
			<path d="m 150.973,218.639 c -0.031,-0.094 -0.024,-0.138 0.087,-0.176 0.188,-0.063 0.826,-0.216 2.291,-0.711 1.581,-0.536 2.405,-0.877 2.574,-0.936 0.167,-0.058 0.205,-0.007 0.234,0.068 l 0.145,0.433 c 0.032,0.094 0.039,0.176 -0.094,0.22 l -0.901,0.305 c -0.527,0.179 -0.732,0.438 -0.624,0.756 0.051,0.15 0.147,0.37 0.29,0.614 0.344,0.638 1.799,2.639 2.492,3.579 0.467,0.639 2.651,3.502 3.473,4.503 l 0.039,-0.015 c 0.094,-1.015 0.246,-5.385 0.251,-5.865 0.015,-0.571 -0.002,-2.976 -0.002,-3.898 -0.01,-0.521 -0.013,-0.897 -0.102,-1.16 -0.075,-0.226 -0.278,-0.387 -0.747,-0.228 l -0.488,0.164 c -0.075,0.024 -0.111,-0.023 -0.149,-0.138 l -0.146,-0.433 c -0.033,-0.094 -0.028,-0.138 0.065,-0.169 0.169,-0.058 1.054,-0.292 2.235,-0.691 1.373,-0.464 1.822,-0.679 1.992,-0.739 0.11,-0.036 0.145,-0.005 0.176,0.089 l 0.157,0.47 c 0.024,0.074 0.029,0.138 -0.085,0.176 l -0.51,0.172 c -0.618,0.208 -0.872,0.631 -1.082,1.182 -0.285,0.769 -0.483,5.131 -0.532,6.027 -0.017,0.696 -0.413,7.495 -0.444,7.715 -0.024,0.177 -0.087,0.303 -0.179,0.334 -0.152,0.051 -0.29,-0.111 -0.47,-0.326 -1.184,-1.525 -4.159,-5.296 -4.63,-5.891 l -0.406,-0.575 c -0.904,-1.182 -2.709,-3.61 -3.145,-4.092 -0.336,-0.369 -0.585,-0.492 -0.981,-0.357 l -0.49,0.164 c -0.072,0.024 -0.111,-0.023 -0.136,-0.101 l -0.158,-0.47" id="path3405" inkscape:connector-curvature="0" style="fill:#06519b"/>
			<path d="m 172.41,217.068 c 0.145,-0.075 1.981,-1.136 2.17,-1.283 0.464,-0.358 0.532,-0.573 0.401,-1.201 -0.038,-0.203 -0.159,-0.59 -0.316,-0.931 -0.046,-0.09 -0.012,-0.152 0.061,-0.188 l 0.444,-0.216 c 0.09,-0.046 0.162,0.005 0.179,0.085 0.106,0.326 0.868,1.765 1.008,2.027 0.324,0.614 0.839,1.419 1.068,1.77 0.049,0.087 0.031,0.141 -0.029,0.193 l -0.357,0.259 c -0.079,0.065 -0.143,0.031 -0.225,-0.085 -0.154,-0.208 -0.474,-0.556 -0.628,-0.72 -0.3,-0.314 -0.634,-0.477 -1.117,-0.288 -0.87,0.351 -2.078,0.988 -2.358,1.139 l 0.575,1.088 c 0.5,0.947 1.436,2.629 1.619,2.979 0.5,0.904 1.126,1.022 1.726,0.841 0.387,-0.115 0.923,-0.333 1.36,-0.565 0.298,-0.154 1.165,-0.638 1.516,-0.867 0.28,-0.193 0.947,-0.795 1.199,-1.421 0.115,-0.286 0.43,-2.069 0.461,-2.604 0.008,-0.116 0.024,-0.213 0.157,-0.218 l 0.362,0.013 c 0.116,0.005 0.146,0.058 0.165,0.225 l 0.435,3.071 c 0.031,0.187 -0.034,0.355 -0.246,0.467 -0.175,0.092 -1.586,0.773 -7.038,3.657 -1.314,0.698 -1.899,1.075 -2.214,1.239 -0.106,0.059 -0.177,0.051 -0.223,-0.036 l -0.251,-0.474 c -0.039,-0.072 0.005,-0.116 0.131,-0.182 l 0.7,-0.372 c 0.808,-0.425 0.81,-0.585 0.469,-1.234 l -2.201,-4.157 -0.911,-1.721 c -0.769,-1.455 -1.963,-3.628 -2.071,-3.795 -0.37,-0.524 -0.609,-0.556 -1.257,-0.21 l -0.631,0.331 c -0.087,0.048 -0.15,0.058 -0.205,-0.046 l -0.252,-0.477 c -0.026,-0.051 -0.012,-0.104 0.08,-0.152 0.382,-0.202 1.024,-0.474 2.18,-1.087 l 0.771,-0.406 c 1.735,-0.921 3.463,-1.856 5.196,-2.774 0.282,-0.15 0.594,-0.36 0.684,-0.406 0.087,-0.046 0.141,-0.029 0.184,0.012 0.203,0.211 2.245,2.205 2.388,2.352 0.056,0.061 0.085,0.114 0.034,0.187 l -0.188,0.28 c -0.036,0.063 -0.133,0.046 -0.169,0.021 -0.073,-0.053 -2.251,-1.034 -2.812,-1.072 -0.497,-0.051 -1.1,-0.003 -1.583,0.231 l -3.156,1.581 2.715,5.14" id="path3407" inkscape:connector-curvature="0" style="fill:#06519b"/>
			<path d="m 186.167,209.414 c 0.272,-0.133 0.459,-0.247 0.761,-0.472 2.894,-2.155 1.965,-4.561 1.468,-5.228 -0.547,-0.732 -1.402,-1.187 -2.146,-1.226 -0.986,-0.028 -1.866,0.252 -3.184,1.235 -0.19,0.143 -0.374,0.326 -0.446,0.529 -0.049,0.162 0,0.396 0.19,0.652 l 3.357,4.51 m -2.605,-0.515 c -0.88,-1.175 -1.639,-2.194 -1.996,-2.645 -0.406,-0.517 -0.801,-0.643 -1.196,-0.348 l -0.636,0.474 c -0.08,0.058 -0.131,0.024 -0.179,-0.041 l -0.295,-0.396 c -0.063,-0.082 -0.068,-0.126 0.012,-0.184 0.141,-0.106 0.67,-0.426 2.004,-1.421 0.892,-0.662 2.334,-1.811 2.619,-2.025 1.32,-0.983 2.664,-1.366 3.693,-1.242 0.904,0.118 1.74,0.611 2.18,1.201 1.481,1.989 1.134,3.412 -0.57,5.372 l 0.024,0.034 c 0.488,-0.141 0.923,-0.02 1.185,0.058 0.343,0.065 2.683,0.851 2.963,0.965 0.198,0.099 2.293,0.788 2.763,0.788 0.51,-0.01 0.896,-0.249 1.344,-0.583 0.113,-0.084 0.176,-0.031 0.22,0.034 l 0.264,0.351 c 0.069,0.094 0.092,0.152 -0.02,0.236 -0.128,0.095 -0.578,0.355 -1.274,0.878 -0.464,0.341 -1.026,0.812 -1.252,1.005 -0.297,-0.029 -1.049,-0.312 -1.346,-0.411 -0.269,-0.097 -2.255,-0.969 -2.429,-1.036 -0.146,-0.065 -1.762,-0.644 -2.117,-0.723 -0.783,-0.187 -1.484,-0.334 -2.405,0.354 -0.143,0.106 -0.302,0.223 -0.49,0.438 l 0.667,0.893 c 0.696,0.939 2.042,2.711 2.238,2.938 0.277,0.31 0.618,0.503 0.855,0.324 l 1.003,-0.747 c 0.111,-0.082 0.162,-0.046 0.223,0.034 l 0.261,0.35 c 0.084,0.111 0.089,0.155 -0.07,0.273 -0.174,0.131 -0.604,0.377 -2.117,1.503 -1.445,1.078 -1.773,1.399 -1.95,1.528 -0.128,0.097 -0.162,0.048 -0.22,-0.032 l -0.273,-0.364 c -0.061,-0.082 -0.097,-0.128 -0.017,-0.188 l 0.652,-0.486 c 0.348,-0.261 0.536,-0.572 0.218,-1.003 -1.146,-1.6 -2.258,-3.096 -3.384,-4.608 l -1.152,-1.548 z" id="path3409" inkscape:connector-curvature="0" style="fill:#06519b"/>
			<path d="m 201.806,204.759 c -0.292,0.041 -0.423,0.082 -0.49,0.152 -0.087,0.085 -0.043,0.237 0.015,0.462 0.067,0.239 0.01,0.324 -0.087,0.421 -0.085,0.084 -0.223,0.084 -0.349,-0.1 -0.294,-0.406 -1.928,-2.335 -2.293,-2.784 -0.067,-0.099 -0.041,-0.128 0.017,-0.184 l 0.225,-0.193 c 0.056,-0.058 0.114,-0.058 0.196,0.026 0.461,0.438 0.952,0.875 2.127,1.131 1.077,0.242 2.228,-0.145 3.001,-0.913 0.844,-0.839 1.397,-2.419 0.138,-3.686 -1.44,-1.45 -3.014,-0.952 -4.526,-0.229 -0.59,0.277 -1.953,0.933 -3.186,0.898 -0.926,-0.005 -1.822,-0.43 -2.745,-1.358 -0.698,-0.703 -0.947,-1.827 -0.919,-2.668 0.034,-0.981 0.542,-1.875 1.301,-2.629 0.8,-0.798 1.658,-1.173 2.008,-1.298 0.196,-0.054 0.254,-0.138 0.254,-0.278 l 0.015,-0.351 c 0.015,-0.126 0.029,-0.195 0.102,-0.266 0.067,-0.07 0.223,0 0.348,0.128 0.488,0.49 2.099,1.747 2.422,2.042 0.068,0.07 0.082,0.111 0.039,0.182 l -0.126,0.21 c -0.029,0.056 -0.072,0.07 -0.126,0.044 -0.517,-0.298 -1.247,-0.665 -2.426,-0.698 -0.783,-0.032 -1.472,0.261 -2.132,0.916 -1.252,1.242 -0.778,2.619 -0.067,3.337 0.392,0.395 0.938,0.776 1.652,0.793 0.813,0.003 1.91,-0.472 2.441,-0.747 1.278,-0.654 2.306,-1.198 3.422,-1.08 0.801,0.072 1.598,0.37 2.523,1.301 1.648,1.66 2.047,4.087 0.191,5.931 -0.986,0.978 -1.969,1.368 -2.965,1.488" id="path3411" inkscape:connector-curvature="0" style="fill:#06519b"/>
			<path d="m 205.612,189.525 c -0.372,-0.3 -3.192,-2.491 -3.437,-2.665 -0.396,-0.267 -0.677,-0.237 -1.146,0.35 l -0.72,0.897 c -0.063,0.077 -0.131,0.099 -0.193,0.048 l -0.416,-0.333 c -0.063,-0.051 -0.059,-0.121 -0.008,-0.185 0.147,-0.186 0.829,-0.938 1.984,-2.375 1.104,-1.375 1.458,-1.907 1.629,-2.122 0.063,-0.077 0.136,-0.07 0.198,-0.021 l 0.387,0.312 c 0.077,0.063 0.07,0.133 0.008,0.213 l -0.585,0.725 c -0.249,0.31 -0.312,0.641 -0.003,0.89 0.155,0.123 3.538,2.922 3.723,3.069 l 1.191,0.959 c 0.154,0.124 3.765,2.951 3.932,3.092 0.483,0.384 0.745,0.215 1.146,-0.278 l 0.508,-0.636 c 0.063,-0.077 0.131,-0.097 0.208,-0.036 l 0.401,0.324 c 0.063,0.051 0.056,0.12 -0.018,0.212 -0.152,0.185 -0.693,0.767 -1.773,2.11 -1.182,1.47 -1.67,2.17 -1.808,2.342 -0.061,0.077 -0.129,0.097 -0.191,0.049 l -0.416,-0.339 c -0.063,-0.046 -0.058,-0.118 0.005,-0.195 l 0.696,-0.865 c 0.249,-0.31 0.464,-0.672 0.111,-1.057 -0.208,-0.22 -3.514,-2.953 -4.331,-3.613 l -1.082,-0.872" id="path3413" inkscape:connector-curvature="0" style="fill:#06519b"/>
			<path d="m 208.979,176.248 -0.259,0.423 c -0.329,0.541 -1.228,2.013 -1.431,2.796 -0.228,0.909 0.647,2.142 1.046,2.709 0.065,0.085 0.051,0.147 -0.019,0.221 l -0.271,0.253 c -0.047,0.039 -0.095,0.08 -0.177,-0.014 -0.508,-0.544 -2.33,-2.473 -2.494,-2.618 -0.201,-0.169 -0.208,-0.268 -0.169,-0.338 0.053,-0.082 0.102,-0.123 0.193,-0.16 l 0.285,-0.128 c 0.405,-0.169 0.561,-0.307 0.879,-0.788 0.58,-0.877 1.081,-1.544 2.055,-3.137 l 0.495,-0.81 c 1.129,-1.844 1.506,-2.612 1.978,-3.463 0.21,-0.385 0.295,-0.636 0.302,-1.025 l -0.01,-0.444 c 0.003,-0.118 0.018,-0.179 0.056,-0.247 0.054,-0.084 0.123,-0.087 0.365,0.013 0.225,0.092 2.521,1.054 3.35,1.375 0.097,0.034 0.106,0.09 0.072,0.184 l -0.097,0.314 c -0.023,0.075 -0.053,0.082 -0.203,0.063 -0.403,-0.063 -2.018,-0.353 -2.629,0.041 -0.565,0.351 -1.571,1.922 -2.076,2.751 l -0.293,0.471 4.829,2.954 c 0.237,0.145 4.979,3.045 5.278,3.202 0.445,0.225 0.781,0.244 1.03,-0.16 l 0.649,-1.068 c 0.095,-0.151 0.152,-0.138 0.273,-0.064 l 0.355,0.217 c 0.084,0.054 0.125,0.102 0.031,0.252 -0.102,0.169 -0.483,0.682 -1.496,2.339 -0.993,1.625 -1.378,2.366 -1.522,2.604 -0.08,0.135 -0.162,0.111 -0.261,0.048 l -0.322,-0.195 c -0.12,-0.072 -0.159,-0.121 -0.099,-0.223 l 0.703,-1.152 c 0.208,-0.336 0.128,-0.665 -0.065,-0.805 -0.461,-0.351 -5.657,-3.531 -5.981,-3.728 l -4.35,-2.663" id="path3415" inkscape:connector-curvature="0" style="fill:#06519b"/>
			<path d="m 225.827,164.313 c 0.718,0.292 1.934,0.725 2.144,0.79 0.611,0.187 0.781,-0.067 0.975,-0.544 l 0.292,-0.718 c 0.051,-0.128 0.106,-0.106 0.182,-0.075 l 0.42,0.172 c 0.111,0.046 0.169,0.07 0.114,0.191 -0.09,0.22 -0.438,0.916 -1.066,2.458 -0.677,1.652 -0.855,2.245 -0.936,2.45 -0.028,0.072 -0.099,0.087 -0.19,0.049 l -0.442,-0.18 c -0.075,-0.031 -0.123,-0.069 -0.075,-0.181 l 0.367,-0.899 c 0.193,-0.479 0.073,-0.701 -0.198,-0.831 -0.248,-0.123 -1.687,-0.754 -3.396,-1.453 l -1.063,-0.438 c -0.577,0.044 -7.001,0.972 -7.861,1.243 -0.372,0.125 -0.713,0.48 -0.832,0.772 l -0.188,0.462 c -0.046,0.109 -0.106,0.106 -0.181,0.075 l -0.477,-0.196 c -0.072,-0.031 -0.102,-0.06 -0.058,-0.174 0.067,-0.164 0.474,-1.003 0.931,-2.124 0.771,-1.893 0.988,-2.576 1.063,-2.758 0.046,-0.111 0.089,-0.113 0.143,-0.09 l 0.459,0.187 c 0.094,0.036 0.159,0.085 0.116,0.196 l -0.252,0.606 c -0.223,0.548 -0.087,0.691 0.385,0.797 0.313,0.065 5.225,-0.563 6.499,-0.686 -0.788,-1.114 -3.563,-5.247 -3.862,-5.455 -0.283,-0.201 -0.648,-0.457 -0.965,0.314 l -0.203,0.495 c -0.043,0.111 -0.106,0.106 -0.217,0.061 l -0.442,-0.182 c -0.073,-0.029 -0.102,-0.065 -0.059,-0.179 0.078,-0.184 0.44,-0.913 0.943,-2.146 0.441,-1.082 0.551,-1.508 0.618,-1.667 0.054,-0.128 0.097,-0.131 0.169,-0.1 l 0.442,0.179 c 0.109,0.044 0.157,0.087 0.104,0.213 l -0.188,0.462 c -0.111,0.275 -0.129,0.631 0.038,1.063 0.198,0.51 3.616,5.742 4.341,6.852 l 2.406,0.989" id="path3417" inkscape:connector-curvature="0" style="fill:#06519b"/>
			<path d="m 230.719,141.991 c -0.203,1.199 -1.378,2.211 -2.635,2.001 -1.357,-0.227 -2.194,-1.375 -1.967,-2.73 0.237,-1.397 1.305,-2.263 2.763,-2.019 1.336,0.223 2.066,1.393 1.839,2.748" id="path3419" inkscape:connector-curvature="0" style="fill:#06519b"/>
			<path d="M 125.657,211.302 C 207.36,188.825 191.638,70.035 191.638,70.035 L 59.439,70.03 c 0,0 -15.722,118.791 65.983,141.267 l 0.235,0.005" id="path3421" inkscape:connector-curvature="0" style="fill:#06519b"/>
			<path d="M 125.657,211.302 C 207.36,188.825 191.638,70.035 191.638,70.035 L 59.439,70.03 c 0,0 -15.722,118.791 65.983,141.267 l 0.235,0.005 z" id="path3423" inkscape:connector-curvature="0" style="fill:none;stroke:#06519b;stroke-width:0.53530002"/>
			<path d="M 124.565,205.571 C 53.75,185.92 64.178,75.415 64.178,75.415 l 60.208,0.077 c 0,1.16 0.848,2.613 -0.713,2.927 -0.357,2.809 0,6.021 -1.829,8.428 -5.798,7.405 -16.769,10.081 -18.687,19.847 -0.892,2.008 -1.16,3.835 -1.427,6.109 -1.07,1.117 -2.721,2.456 -3.167,4.015 -0.178,1.117 0.49,2.678 -0.847,3.123 -1.026,-0.089 -2.186,0.089 -2.409,1.16 -0.179,2.052 1.784,3.388 3.122,4.416 l 0,44.107 c -0.802,1.518 -2.364,2.453 -3.433,3.702 l 0.58,0.578 19.267,-0.133 0.579,-0.312 c -1.381,-0.76 -3.078,-1.383 -4.593,-2.142 -1.785,-1.337 -3.39,-3.253 -4.281,-5.262 l 0.311,-45.671 c 0.804,-3.879 5.486,-2.765 6.691,-5.975 1.606,-6.467 -1.962,-15.12 4.148,-19.714 1.963,-1.515 4.147,-2.497 6.556,-2.854 l 0.312,0.268 -0.179,26.581 c -2.631,1.919 -5.708,2.632 -8.83,3.391 l -0.134,0.177 0.269,0.268 8.563,0.135 0.312,0.312 0,82.598" id="path3425" inkscape:connector-curvature="0" style="fill:#ffffff"/>
			<path d="m 127.338,79.711 c 0.67,4.326 1.564,9.634 5.845,11.864 -0.67,1.247 -2.142,-0.179 -3.256,0 -1.07,-0.089 -2.142,-0.179 -3.302,-0.179 l 0,-11.82 0.713,0.135" id="path3427" inkscape:connector-curvature="0" style="fill:#ffffff"/>
			<path d="m 143.171,103.839 c 1.073,3.077 2.055,6.11 2.456,9.411 -0.672,0.624 -1.519,0.089 -2.142,-0.133 -1.204,-0.938 -3.882,-1.027 -2.987,-3.437 -0.179,-2.139 -1.431,-3.833 -1.607,-5.974 -1.16,-2.676 -2.496,-5.308 -3.971,-7.85 0.044,-0.713 0.938,-0.447 1.296,-0.312 2.943,1.917 5.708,5.085 6.955,8.295" id="path3429" inkscape:connector-curvature="0" style="fill:#ffffff"/>
			<path d="m 132.914,108.523 c 2.276,4.014 -0.223,10.615 4.862,12.843 2.006,-0.043 4.817,0.938 6.289,-0.846 1.604,-1.025 0.223,-3.79 2.274,-4.147 0.935,2.006 2.052,4.326 4.282,5.44 0.312,0.312 1.38,0.135 0.979,0.981 -1.336,0.802 -3.076,1.74 -3.702,3.301 l 0,43.796 c 0.449,1.249 1.116,2.453 1.875,3.567 -2.765,0 -5.708,0 -8.297,0 l -0.133,-0.134 c 1.963,-0.802 4.012,-2.854 3.969,-5.128 l -0.133,-43.53 c -1.738,-1.516 -4.191,-1.293 -6.558,-1.293 -1.159,0.624 -2.943,-0.133 -3.566,1.426 l 0.135,45.539 c 0.488,1.024 1.337,2.049 2.272,2.719 l 0,0.401 c -2.853,0 -6.153,0.135 -9.098,-0.134 1.697,-1.026 3.21,-2.542 3.836,-4.415 l 0,-44.109 c -1.114,-1.472 -2.722,-2.987 -4.863,-2.542 l 0,-26.133 c 2.812,3.612 3.881,8.205 5.577,12.398" id="path3431" inkscape:connector-curvature="0" style="fill:#ffffff"/>
			<path d="m 123.371,130.243 0,34.384 -0.313,0.269 -11.418,0 -0.268,-0.269 0,-31.129 c 0.847,-2.721 3.569,-5.264 6.558,-5.396 2.229,-0.312 4.057,0.626 5.441,2.141" id="path3433" inkscape:connector-curvature="0" style="fill:#06519b"/>
			<path d="m 102.246,182.181 c 0,-0.408 -0.119,-0.78 -0.545,-0.78 -0.238,0 -0.546,0.017 -1.067,0.121 l -1.163,0.234 c -0.12,0.017 -0.215,0.017 -0.262,-0.049 l -0.166,-0.338 c -0.047,-0.068 -0.024,-0.138 0.142,-0.206 l 5.765,-2.016 c 0.166,-0.051 0.284,-0.102 0.452,-0.102 0.141,0 0.212,0.119 0.212,0.254 0,0.136 -0.071,2.794 -0.071,4.981 l 0,0.713 c 0,0.882 0.023,3.795 0.023,3.98 0.024,0.882 0.12,1.003 1.305,1.003 l 0.854,0 c 0.166,0 0.237,0.049 0.237,0.133 l 0,0.442 c 0,0.085 -0.071,0.118 -0.26,0.118 -0.167,0 -3.393,-0.051 -3.796,-0.051 -0.688,0 -4.034,0.051 -4.152,0.051 -0.143,0 -0.191,-0.033 -0.191,-0.118 l 0,-0.459 c 0,-0.102 0.143,-0.116 0.333,-0.116 l 0.616,0 c 1.305,0 1.659,-0.053 1.708,-0.916 0.048,-0.713 0.024,-2.576 0.024,-3.186 l 0,-3.693" id="path3435" inkscape:connector-curvature="0" style="fill:#06519b"/>
			<path d="m 115.152,181.876 c 0,0.899 0.688,1.337 2.729,2.171 0.854,-0.426 1.613,-1.172 1.613,-2.222 0,-1.136 -0.783,-2.034 -2.16,-2.001 -1.494,0 -2.182,1.001 -2.182,2.052 m 4.104,6.388 c 0,-0.98 -0.83,-1.592 -3.178,-2.525 -0.807,0.457 -1.566,1.288 -1.566,2.391 0,1.44 1.471,2.083 2.419,2.083 1.495,-0.001 2.325,-0.711 2.325,-1.949 z m -7.022,0.237 c 0,-1.491 1.281,-2.407 3.014,-3.166 -1.947,-1.003 -3.108,-1.578 -3.108,-3.035 0,-1.373 1.803,-3.254 5.434,-3.254 2.489,0 4.268,1.117 4.268,2.323 0,1.285 -0.688,2.049 -3.036,3.016 2.111,0.796 3.368,1.709 3.368,3.389 0,1.406 -1.898,3.101 -5.219,3.101 -3.463,-0.001 -4.721,-1.271 -4.721,-2.374 z" id="path3437" inkscape:connector-curvature="0" style="fill:#06519b"/>
			<path d="m 131.894,186.415 0,-3.743 c 0,-0.234 -0.236,-0.234 -0.451,-0.034 l -3.843,3.439 c -0.213,0.186 -0.143,0.338 0.166,0.338 l 4.128,0 m 0.261,4.205 c -0.213,0 -0.285,-0.019 -0.285,-0.188 l 0,-2.472 -6.121,0 c -0.426,0 -0.711,-0.119 -0.711,-0.322 0,-0.272 0.238,-0.492 0.428,-0.662 l 8.493,-7.658 c 0.141,-0.136 0.334,-0.271 0.616,-0.271 0.239,0 0.331,0.119 0.331,0.575 l 0,6.794 1.496,0 c 0.164,0 0.283,0.07 0.283,0.155 l 0,1.22 c 0,0.102 -0.07,0.17 -0.377,0.17 l -1.402,0 0,2.424 c 0,0.184 -0.048,0.236 -0.331,0.236 l -2.42,0 z" id="path3439" inkscape:connector-curvature="0" style="fill:#ffffff"/>
			<path d="m 141.963,182.198 c 0,1.677 0.974,2.914 2.257,2.914 0.542,0 1.016,-0.118 1.324,-0.341 0.382,-0.305 0.358,-1.354 0.358,-2.134 0,-1.576 -0.358,-2.966 -1.827,-2.966 -1.399,0.001 -2.112,0.968 -2.112,2.527 m 6.027,-1.897 c 1.093,1.049 1.327,2.137 1.327,2.661 0,2.286 -1.306,4.828 -3.843,6.352 -1.352,0.816 -2.371,1.188 -3.797,1.477 -0.237,0.051 -0.568,0.084 -0.735,0.084 -0.188,0 -0.379,-0.051 -0.379,-0.254 0,-0.118 0.143,-0.236 0.307,-0.287 1.996,-0.544 4.225,-2.373 4.723,-4.729 l -0.167,0 c -0.355,0.205 -1.187,0.49 -2.607,0.49 -2.823,0 -3.939,-1.778 -3.939,-3.014 0,-1.237 0.807,-2.56 1.706,-3.104 1.02,-0.626 2.069,-0.931 3.417,-0.931 1.947,0 3.037,0.355 3.987,1.255 z" id="path3441" inkscape:connector-curvature="0" style="fill:#ffffff"/>
			<circle cx="125.376" cy="124.988" r="89.837997" id="circle3443" style="fill:none;stroke:#06519b;stroke-width:4.28149986"/>
		</g>
	</g>
</svg>