<?xml version="1.0" ?>
<svg xmlns="http://www.w3.org/2000/svg" xmlns:xlink="http://www.w3.org/1999/xlink" viewBox="0 0 140 28" version="1.1">
	<defs>
		<polygon id="path-1" points="0 0 17.5053015 0 17.5053015 17.5128415 0 17.5128415"/>
		<polygon id="path-3" points="0 0.419725105 13.8232819 0.419725105 13.8232819 10.7017335 0 10.7017335"/>
		<polygon id="path-5" points="0.103046283 0.0251332398 20.4019074 0.0251332398 20.4019074 23.3022833 0.103046283 23.3022833"/>
	</defs>
	<g id="3.0备份" stroke="none" stroke-width="1" fill="none" fill-rule="evenodd">
		<g id="首页" transform="translate(-40.000000, -14.000000)">
			<g id="ChainX-Logo" transform="translate(40.000000, 14.000000)">
				<g id="编组-14">
					<g id="Clipped" transform="translate(-0.000000, -0.000000)">
						<mask id="mask-2" fill="white">
							<use xlink:href="#path-1"/>
						</mask>
						
						<path d="M15.8681912,7.96528718 L11.4830895,3.57840177 C11.3956906,3.49100295 11.2538905,3.49100295 11.1669376,3.57840177 L9.42743367,5.31835165 C9.34003486,5.40575045 9.34003486,5.54755057 9.42743367,5.63450348 L13.7692819,9.9785813 C14.8309992,11.0402985 14.8590916,12.8065573 13.7799839,13.850438 C12.731198,14.8644426 11.05323,14.8537407 10.0178216,13.8178864 L3.69300124,7.49083647 C2.65759284,6.45498215 2.64689094,4.77656817 3.66089555,3.72733649 C4.70388446,2.64733686 6.46969725,2.67542932 7.53096857,3.73759247 L8.16238042,4.36945023 C8.24977923,4.45684904 8.39157935,4.45684904 8.47897817,4.36945023 L10.2180362,2.62950036 C10.305435,2.54210154 10.305435,2.40030142 10.2180362,2.31290261 L9.54337087,1.63823728 C7.36018416,-0.545841271 3.82053216,-0.545841271 1.63734545,1.63823728 C-0.545841271,3.8218699 -0.545841271,7.36285963 1.63734545,9.54693817 L7.96216579,15.874434 C10.1453525,18.0585126 13.6850045,18.0585126 15.8681912,15.874434 C18.051378,13.6903555 18.051378,10.1493657 15.8681912,7.96528718" fill="#EA754B" fill-rule="nonzero" mask="url(#mask-2)"/>
					</g>
					<g id="编组-10" transform="translate(0.000000, 0.000067)">
						<path d="M26.0094414,1.63839334 C23.8258087,-0.546131112 20.2861567,-0.546131112 18.1034158,1.63839334 L13.8231036,5.92004344 L15.8685033,7.96544325 C15.8716247,7.96901055 15.8747462,7.97257785 15.8783135,7.97569923 L20.1581799,3.69404914 C21.205182,2.64838474 22.9076752,2.64838474 23.9533397,3.69404914 C24.9994499,4.74105127 24.9994499,6.44443633 23.9533397,7.49143845 L23.2795661,8.16521197 C23.1921673,8.25261078 23.1921673,8.3944109 23.2795661,8.48180971 L25.0190701,10.2217596 C25.1064689,10.3091584 25.247823,10.3091584 25.3352219,10.2217596 L26.0094414,9.54709424 C28.1917362,7.3630157 28.1917362,3.82247188 26.0094414,1.63839334" fill="#34C69A" fill-rule="nonzero"/>
						<path d="M22.3306647,9.43053276 C22.2432658,9.34313394 22.1019116,9.34313394 22.0145129,9.43053276 L17.6280734,13.817864 C17.431426,14.0145114 17.2111454,14.1745939 16.9765954,14.2976657 C15.9643744,14.8278555 14.6832684,14.6677729 13.8333596,13.817864 C13.8302382,13.8147427 13.825779,13.8098376 13.8231036,13.8067163 C12.7912624,12.7632815 12.7912624,11.0750574 13.8231036,10.0316226 L11.7683396,7.97596678 C10.0645086,9.68737826 9.6988605,12.2281867 10.6705034,14.2976657 C10.9376049,14.8679876 11.3077121,15.4039742 11.7781496,15.8748576 C12.376564,16.473272 13.0775381,16.9071446 13.8231036,17.1778134 C14.4384626,17.4003236 15.0845895,17.5122476 15.7307165,17.5122476 C17.162095,17.5122476 18.5921358,16.966451 19.6841751,15.8748576 L24.0701686,11.4870804 C24.1575675,11.3996816 24.1575675,11.2583274 24.0701686,11.1709285 L22.3306647,9.43053276 Z" fill="#34C69A" fill-rule="nonzero"/>
						<path d="M26.0092183,18.1097255 L21.7297978,13.8285214 L19.6741421,15.8846231 L23.9535626,20.1658272 C24.9898629,21.2025734 24.9996729,22.8814333 23.9852223,23.9302191 C22.9417876,25.0093269 21.1768665,24.9807885 20.1155952,23.9190712 L19.4841834,23.2872135 C19.3967846,23.2002605 19.2554303,23.2002605 19.1680316,23.2872135 L17.4285277,25.0276093 C17.3411288,25.1145622 17.3411288,25.2563623 17.4285277,25.3437611 L18.0331847,25.9488641 C20.223506,28.1396313 23.8634883,28.1962622 26.0377567,25.9898881 C27.1106219,24.9009702 27.6466084,23.482523 27.6466084,22.0649679 C27.6466084,20.6335893 27.1012576,19.2017648 26.0092183,18.1097255" fill="#F6C94A" fill-rule="nonzero"/>
						<path d="M18.2192639,22.3382675 C18.3066627,22.2508686 18.3066627,22.1095145 18.2192639,22.0221157 L13.8341622,17.6352303 C13.637069,17.4381371 13.4765405,17.2174104 13.3539146,16.9824146 C12.8250626,15.9710855 12.9842533,14.6890876 13.8341622,13.8387328 L13.8439722,13.8284768 C14.8878529,12.7957438 16.5747393,12.7957438 17.61862,13.8284768 L19.6742758,11.7719292 C17.9615266,10.0685441 15.4216101,9.7024501 13.3539146,10.6745389 C12.7831468,10.9416404 12.2493898,11.3113017 11.7785064,11.7826311 C11.180092,12.3810454 10.7457734,13.0811277 10.4764424,13.8284768 C10.2525944,14.4429439 10.1411163,15.0908546 10.1411163,15.7378734 C10.1411163,17.1692519 10.6873589,18.6001845 11.7785064,19.691332 L16.1636081,24.0782174 C16.251007,24.1656162 16.3923611,24.1656162 16.4797599,24.0782174 L18.2192639,22.3382675 Z" fill="#F6C94A" fill-rule="nonzero"/>
						<path d="M17.1778357,13.83958 C17.1198671,13.6741465 17.0525344,13.5109427 16.9767293,13.3495223 C16.7105196,12.7783087 16.3404123,12.2432139 15.8686372,11.7723305 C15.3999833,11.3027848 14.8680099,10.9335694 14.2999176,10.6664679 C14.1447401,10.5924465 13.9855494,10.5277892 13.8259127,10.4693747 C11.8523049,9.75368542 9.55942371,10.1844367 7.9737595,11.7625204 L10.0289694,13.8181762 C10.2233872,13.625988 10.4405465,13.4690269 10.6706372,13.3486306 C11.68375,12.8193326 12.9648561,12.9794151 13.8138732,13.8284322 L13.8236833,13.8386882 C14.6700248,14.6943939 14.8229727,15.9826346 14.2807433,16.9939637 C14.1625766,17.2173658 14.0100745,17.4264988 13.8236833,17.6146737 L15.8797849,19.6716673 C17.4493963,18.0922459 17.883269,15.8082829 17.1778357,13.83958 M5.62768102,18.2212036 L7.97407165,15.8739211 L5.91886177,13.8182654 L3.57247114,16.1651019 C3.48507233,16.2520549 3.48507233,16.393855 3.57247114,16.4812538 L5.31152918,18.2212036 C5.398928,18.3086025 5.5402822,18.3086025 5.62768102,18.2212036" fill="#46AEE2" fill-rule="nonzero"/>
						<g id="Clipped" transform="translate(-0.000000, 16.944763)">
							<mask id="mask-4" fill="white">
								<use xlink:href="#path-3"/>
							</mask>
							
							<path d="M7.48860691,7.0075121 C6.44205068,8.05451423 4.73911154,8.05451423 3.69389307,7.0075121 C2.64733686,5.96050997 2.64733686,4.25801674 3.69389307,3.21101462 L4.36276154,2.54214613 C4.45016036,2.45474732 4.45016036,2.31294721 4.36276154,2.22554839 L2.62370349,0.485598516 C2.53630469,0.398199702 2.39450457,0.398199702 2.30710575,0.485598516 L1.63779136,1.15535882 C-0.545841271,3.33988328 -0.545841271,6.87998118 1.63779136,9.06450563 C2.73027655,10.156099 4.15987144,10.7032334 5.58991225,10.7019006 C7.02129079,10.7019006 8.45222343,10.156099 9.54470861,9.06450563 L13.8236833,4.78285554 L11.7684733,2.72675383 L7.48860691,7.0075121 Z" fill="#46AEE2" fill-rule="nonzero" mask="url(#mask-4)"/>
						</g>
					</g>
				</g>
				<path d="M48.4413727,24.6508803 C46.8030908,25.735339 44.8771955,26.2775684 42.6632408,26.2775684 C40.516619,26.2775684 38.6527055,25.8147114 37.0715004,24.8881057 C35.4898494,23.9619458 34.2698333,22.6291139 33.4114521,20.8891639 C32.5526249,19.14966 32.1236573,17.105152 32.1236573,14.755194 C32.1236573,12.4056821 32.5526249,10.3611741 33.4114521,8.6212242 C34.2698333,6.88172023 35.4898494,5.54888831 37.0715004,4.62228251 C38.6527055,3.69612263 40.5054711,3.23281972 42.6293515,3.23281972 C44.8660478,3.23281972 46.7469058,3.69612263 48.271926,4.62228251 C49.6520246,5.46104358 50.6852035,6.66010181 51.3714626,8.21990311 C51.491413,8.49324736 51.3750298,8.81252059 51.1021315,8.93425464 L48.8529498,9.93621962 C48.4801671,10.1025449 48.0485239,9.92685547 47.8853201,9.55362685 C47.4550146,8.56994428 46.8895978,7.82482479 46.1877318,7.31648474 C45.3289047,6.69532889 44.2105567,6.384528 42.8326875,6.384528 C40.7315486,6.384528 39.0540265,7.12474245 37.8001211,8.60427953 C36.5462156,10.0842625 35.9192629,12.1345674 35.9192629,14.755194 C35.9192629,17.3985623 36.5176772,19.454664 37.7153977,20.9230533 C38.9126724,22.3918885 40.5732498,23.1258602 42.6971302,23.1258602 C44.142778,23.1258602 45.3574431,22.7651171 46.3402338,22.0414013 C47.1656176,21.4349606 47.7952457,20.589065 48.2300103,19.5041603 C48.3740399,19.1460927 48.770456,18.9601473 49.13655,19.0818813 L51.3933123,19.8345813 C51.6880603,19.932682 51.83209,20.2590898 51.7170446,20.548041 C51.0214214,22.2982468 49.9293821,23.66586 48.4413727,24.6508803 M68.4018351,10.2819355 C69.5879618,11.3663942 70.1810252,12.9253037 70.1810252,14.9586638 L70.1810252,25.2075126 C70.1810252,25.6110633 69.8537255,25.9388088 69.449729,25.9388088 L67.2866084,25.9388088 C66.8826118,25.9388088 66.5548662,25.6110633 66.5548662,25.2075126 L66.5548662,16.1109012 C66.5548662,13.1286397 65.3459979,11.6375089 62.9287072,11.6375089 C61.6632081,11.6375089 60.5787493,12.0780703 59.6753309,12.959193 C58.7714667,13.8403157 58.3197574,15.1847413 58.3197574,16.992024 L58.3197574,25.2075126 C58.3197574,25.6110633 57.9924578,25.9388088 57.5884613,25.9388088 L55.4248947,25.9388088 C55.0213441,25.9388088 54.6935986,25.6110633 54.6935986,25.2075126 L54.6935986,2.10033621 C54.6935986,1.69633965 55.0213441,1.36904001 55.4248947,1.36904001 L57.5884613,1.36904001 C57.9924578,1.36904001 58.3197574,1.69633965 58.3197574,2.10033621 L58.3197574,11.7052876 C58.8842824,10.6663119 59.6356448,9.89800494 60.5733984,9.40081271 C61.510706,8.90406638 62.5898138,8.6552473 63.8098299,8.6552473 C65.6848913,8.6552473 67.2157083,9.19747668 68.4018351,10.2819355 M82.6858335,22.651454 C83.6119934,22.0641875 84.0752963,21.2847327 84.0752963,20.3130898 L84.0752963,18.2797297 L80.3813587,19.025295 C79.2063798,19.2513726 78.3364047,19.5675245 77.7718797,19.9741965 C77.2069089,20.3808685 76.9246464,20.9230978 76.9246464,21.6008846 C76.9246464,22.2336342 77.1449271,22.7138817 77.5854885,23.0411814 C78.0260498,23.368927 78.6530025,23.5325768 79.4663466,23.5325768 C80.6863627,23.5325768 81.7592278,23.2391665 82.6858335,22.651454 M90.1419335,24.1251942 L90.0161862,25.4147727 C89.9876478,25.7081829 89.7878791,25.9583397 89.5060625,26.0461845 C89.0124375,26.2004702 88.4675327,26.277613 87.870902,26.277613 C86.8992591,26.277613 86.1256012,26.0854248 85.5494825,25.7014942 C84.9733638,25.3175637 84.5947842,24.6736664 84.4141898,23.7698022 C83.8942559,24.5608505 83.126395,25.1762095 82.1097148,25.6167709 C81.0930348,26.0573323 79.9519451,26.277613 78.6868919,26.277613 C77.0374622,26.277613 75.7046303,25.8936824 74.6879502,25.1253755 C73.6712701,24.3575146 73.16293,23.261462 73.16293,21.83811 C73.16293,20.5052781 73.7163073,19.3811331 74.8235076,18.4661209 C75.930262,17.5511089 77.5796916,16.9018606 79.7713506,16.5174842 L83.4675179,15.8775999 C83.8188968,15.8165099 84.0752963,15.5119519 84.0752963,15.155668 L84.0752963,14.8569066 C84.0752963,13.8179309 83.7702924,12.99879 83.1602843,12.3999298 C82.5502763,11.8015154 81.7030428,11.5018624 80.6185841,11.5018624 C78.6614749,11.5018624 77.3009964,12.2804253 76.5375945,13.8371052 C76.3543246,14.2107797 75.9115335,14.3744295 75.5436559,14.17912 L74.1381403,13.4344463 C73.6489745,13.1749254 73.5102958,12.7896572 73.6507582,12.4574525 C74.1051428,11.3828038 74.8631937,10.5110452 75.924911,9.84128489 C77.1788165,9.05068235 78.7207812,8.65515812 80.5508054,8.65515812 C82.7420185,8.65515812 84.4819683,9.16349816 85.7697631,10.1801783 C87.0575579,11.1968583 87.7014553,12.6879891 87.7014553,14.6535707 L87.7014553,22.3125607 C87.7014553,22.7419742 87.7973265,23.0581261 87.9895146,23.261462 C88.181257,23.4647981 88.5032056,23.5664661 88.9553608,23.5664661 C89.1756415,23.5664661 89.3798693,23.5579938 89.5693821,23.5401572 C89.9011408,23.5089434 90.1740392,23.7934354 90.1419335,24.1251942 M95.1731176,25.9387196 L93.0055378,25.9387196 C92.6028789,25.9387196 92.2760253,25.6123118 92.2760253,25.209653 L92.2760253,9.72356404 C92.2760253,9.3204593 92.6028789,8.99405148 93.0055378,8.99405148 L95.1731176,8.99405148 C95.5757764,8.99405148 95.9021843,9.3204593 95.9021843,9.72356404 L95.9021843,25.209653 C95.9021843,25.6123118 95.5757764,25.9387196 95.1731176,25.9387196 M92.3099146,5.55428386 C91.880501,5.15920554 91.6660172,4.60003149 91.6660172,3.8767617 C91.6660172,3.15393783 91.880501,2.60056064 92.3099146,2.21618423 C92.7388822,1.83225372 93.3377424,1.64006551 94.1060493,1.64006551 C94.8739104,1.64006551 95.4669738,1.83225372 95.8852396,2.21618423 C96.3030594,2.60056064 96.5121923,3.15393783 96.5121923,3.8767617 C96.5121923,4.60003149 96.3030594,5.15920554 95.8852396,5.55428386 C95.4669738,5.94980808 94.8739104,6.14734724 94.1060493,6.14734724 C93.3377424,6.14734724 92.7388822,5.94980808 92.3099146,5.55428386 M113.914054,10.2819355 C115.100181,11.3663942 115.693245,12.9253037 115.693245,14.9586638 L115.693245,25.4028222 C115.693245,25.698908 115.453344,25.9388088 115.157704,25.9388088 L112.603072,25.9388088 C112.306986,25.9388088 112.067086,25.698908 112.067086,25.4028222 L112.067086,16.1109012 C112.067086,13.1286397 110.858217,11.6375089 108.440927,11.6375089 C107.175427,11.6375089 106.090969,12.0727193 105.18755,12.9422484 C104.283686,13.8122233 103.831977,15.1508521 103.831977,16.9581347 L103.831977,25.4028222 C103.831977,25.698908 103.592076,25.9388088 103.29599,25.9388088 L100.741804,25.9388088 C100.445719,25.9388088 100.205818,25.698908 100.205818,25.4028222 L100.205818,9.52789772 C100.205818,9.23314967 100.444827,8.99414067 100.740021,8.99414067 L102.922762,8.99414067 C103.205024,8.99414067 103.438682,9.21397545 103.455627,9.49579203 L103.594751,11.8069556 C104.159276,10.7452383 104.938731,9.9546358 105.933116,9.43470204 C106.927054,8.91521419 108.05655,8.6552473 109.322049,8.6552473 C111.19711,8.6552473 112.727927,9.19747668 113.914054,10.2819355" fill="#000" fill-rule="nonzero"/>
				<g id="Clipped" transform="translate(118.612555, 2.675433)">
					<mask id="mask-6" fill="white">
						<use xlink:href="#path-5"/>
					</mask>
					
					<path d="M20.2676513,22.1506499 L12.701857,11.3457485 L19.821739,1.17716393 C20.1633079,0.69022768 19.811483,0.0209132878 19.2170819,0.0253283013 L16.0881152,0.0494516762 C15.8513357,0.0507894132 15.6297173,0.167172528 15.4937141,0.361144388 L10.2524606,8.03217402 L5.01076132,0.361144388 C4.87475807,0.167172528 4.65358556,0.0507894132 4.41680611,0.0494516762 L1.28783937,0.0253283013 C0.693438248,0.0209132878 0.341613427,0.69022768 0.682736352,1.17716393 L7.80261836,11.3457485 L0.236824033,22.1506499 C-0.106082541,22.6407076 0.251093227,23.3126974 0.849061648,23.3026708 L3.9998781,23.2471483 C4.23398206,23.2431351 4.45203319,23.1271979 4.58669871,22.9354555 L10.2524606,14.7208588 L15.9177767,22.9354555 C16.0524422,23.1271979 16.2704933,23.2431351 16.5050432,23.2471483 L19.6554138,23.3026708 C20.2533822,23.3126974 20.6110038,22.6407076 20.2676513,22.1506499" fill="#F6C94A" fill-rule="nonzero" mask="url(#mask-6)"/>
				</g>
			</g>
		</g>
	</g>
</svg>
