<?xml version="1.0" ?>
<svg xmlns="http://www.w3.org/2000/svg" viewBox="0 0 616.992 100">
	<defs>
		<style>
      .cls-1 {
        fill: #ff5300;
        stroke-width: 0px;
      }
    </style>
	</defs>
	<path class="cls-1" d="M143.702,49.28c0,12.17,9.09,20.29,20.11,20.29,5.98.013,11.845-1.639,16.94-4.77v11.82c-2.29,1.42-9.17,4-16.85,4-17.92-.03-32.11-13.62-32.11-31.34s14.19-31.28,32.11-31.28c7.68,0,14.56,2.56,16.85,4v11.75c-5.099-3.119-10.963-4.764-16.94-4.75-11.02,0-20.11,8.11-20.11,20.28ZM233.482,50v29.71h-11v-26.2c0-5.2-2.3-9.08-8.21-9.08-5.73,0-9.08,3.61-9.08,10.14v25.14h-11V15.32h11v27.61c.79-2,3.88-8.21,13.14-8.21,9.51,0,15.15,5.65,15.15,15.28h0ZM293.292,70.45v9.26h-14.2c-.921.056-1.712-.646-1.768-1.566-.003-.048-.004-.096-.002-.144v-7.9c-1.5,5.2-5.55,10.49-14,10.49-11.47,0-19.76-8.55-19.76-22.93,0-14.56,9.08-22.94,20.37-22.94,10.41,0,12.53,8.56,12.53,8.56v-7.67h11v34.84h5.83ZM276.792,57.75c0-8.29-4-13.5-10.58-13.5-6.35,0-11.2,4.68-11.2,13.41s4,13.41,10.67,13.41c6.79,0,11.11-4.41,11.11-13.32ZM318.542,37.37v42.34h-11v-34.84h-8v-9.26h17.28c.922-.029,1.693.695,1.722,1.617.001.048,0,.096-.002.143ZM318.192,26.43h-11.91v-11.11h11.91v11.11ZM331.392,35.61h10.85v7.85c.36-1.15,3-8.74,13.32-8.74,9.53,0,15.18,5.65,15.18,15.26v29.73h-11v-26.2c0-5.2-2.29-9.08-8.2-9.08-5.74,0-9.09,3.61-9.09,10.14v25.14h-11l-.06-44.1ZM430.542,70.45v9.26h-14.2c-.921.056-1.712-.646-1.768-1.566-.003-.048-.004-.096-.002-.144v-7.9c-1.5,5.2-5.55,10.49-14,10.49-11.47,0-19.76-8.55-19.76-22.93,0-14.56,9.08-22.94,20.38-22.94,10.41,0,12.52,8.56,12.52,8.56v-7.67h11v34.84h5.83ZM414.042,57.75c0-8.29-4-13.5-10.58-13.5-6.35,0-11.2,4.68-11.2,13.41s4.05,13.41,10.72,13.41c6.74,0,11.06-4.41,11.06-13.32ZM453.042,18v61.71h-11.06V24.58h-6.88v-9.26h15.26c1.463-.017,2.663,1.156,2.68,2.62,0,.02,0,.04,0,.06ZM472.852,100h-11v-9.26h8.13c2.91,0,4.24-.88,5.29-3.53l3.27-8.29-16.98-43.31h12.26l10.32,31.13,10.68-31.13h12.26l-21.7,55.83c-2.29,5.91-6.09,8.56-12.53,8.56ZM513.192,76.89v-10.67c1.5,1,7.58,5,14.38,5,5.2,0,7.49-1.5,7.49-4.41,0-8.73-22.49-2.29-22.49-18.87,0-7.5,6.35-13.24,18-13.24,6.43,0,11,1.68,12.79,2.74v10.56c-2.21-1.42-6.62-4.24-12.62-4.24-5.2,0-7.14,1.59-7.14,4.06,0,7.14,22.4,2.2,22.4,18.44,0,8.82-7.32,14.37-18,14.37-7.02-.04-12.78-2.42-14.81-3.74ZM572.382,37.37v42.34h-11v-34.84h-8v-9.26h17.29c.916-.029,1.683.69,1.712,1.606.002.051,0,.103-.002.154ZM572.032,26.43h-11.91v-11.11h11.91v11.11ZM584.172,76.89v-10.67c1.49,1,7.58,5,14.37,5,5.21,0,7.5-1.5,7.5-4.41,0-8.73-22.49-2.29-22.49-18.87,0-7.5,6.35-13.24,18-13.24,6.44,0,11,1.68,12.79,2.74v10.56c-3.69-2.633-8.079-4.109-12.61-4.24-5.21,0-7.15,1.59-7.15,4.06,0,7.14,22.41,2.2,22.41,18.44,0,8.82-7.32,14.37-18,14.37-7.01-.04-12.8-2.42-14.82-3.74h0Z"/>
	<path class="cls-1" d="M49.982,0c1.12,0,2.39.14,2.39.14-3.758,4.507-6.022,10.07-6.48,15.92-14.53,2.431-25.806,14.002-27.86,28.59-6.47.7-13.79,3.66-18,7.89C-.968,23.52,21.272,0,49.982,0ZM57.182,87.18c-1.324.196-2.661.293-4,.29-2.311-.028-4.616-.218-6.9-.57-1.784,4.296-4.139,8.332-7,12C20.985,94.865,6.479,80.938,1.702,62.82c4.51-5.35,14.93-8.45,21.4-8.45,13.8,0,21.12,7.32,23.66,18.73-8.31-2.25-13.24-6.9-16.48-13.8-1.893-.687-3.896-1.026-5.91-1-1.818-.007-3.624.28-5.35.85,3.66,13.95,17.18,24.37,33.65,24.37,15.21,0,21.68-7.74,21.68-7.74v-11.84s-7.46,7.75-16.75,9.3c-2.147-14.858-13.852-26.511-28.72-28.59,2.39-11.83,11.4-18.45,23.65-18.45s22.11,8.87,22.11,8.87v-11.69s-6.34-5.92-17.6-7.18c.28-5.2,3.66-11.69,7.32-14.09,15.34,4.79,30.13,17.75,34.35,36.62,0,0-6.76,6.76-19.43,6.76-10.42,0-17-5.21-20.7-14.36-1.941-.691-3.99-1.03-6.05-1-1.923-.021-3.832.318-5.63,1,4.08,14.65,17,24.5,31.4,24.5,14.08,0,21.68-6.47,21.68-6.47,0,29.29-22.39,50.28-49,50.84,3.1-3,5.49-9.58,6.2-12.82Z"/>
</svg>