<?xml version="1.0" ?>
<svg xmlns="http://www.w3.org/2000/svg" viewBox="0 0 478 551.5">
	<style>
		.st0,.st1{fill:none;stroke:#e7e7e9;stroke-width:2}
		.st1{stroke:#3fa0f1;stroke-width:5}
		.st2{fill:#6f9dce}
		.st3{font-family:'Arial-Black'}
		.st4{font-size:48.68px}
		.st5{fill:#3fa0f1}
		.st6{fill:#fff;fill-opacity:0;stroke:#3fa0f1;stroke-width:17;stroke-linejoin:bevel}
		.st7{fill:#2c6cea}
	</style>
	<g id="layer1">
		<g id="g7226" transform="matrix(2.66672 0 0 2.66672 -505.499 -542.37)">
			<path id="path7002" class="st0" d="M 279.4,409.0 L 279.6,306.8 L 190.9,256.2 L 279.6,306.7 L 367.5,256.3"/>
			<path id="path7000" class="st1" d="M 190.6,358.3 L 190.4,256.2 L 278.9,204.5 L 367.4,255.6 L 367.8,358.6 L 279.1,409.1 L 190.6,358.3 L 190.6,358.3"/>
			<g id="g7124" transform="matrix(.17895 .10258 0 .25978 219.278 150.083)">
				<path id="path7068" d="M -70.3,562.0 L -106.0,547.1 L -106.0,537.8 L -70.3,523.0 L -70.3,534.2 L -92.0,542.6 L -70.3,551.0 L -70.3,562.0 L -70.3,562.0"/>
				<path id="path7070" d="M -16.1,562.0 L 19.6,547.1 L 19.6,537.8 L -16.1,523.0 L -16.1,534.2 L 5.6,542.6 L -16.1,551.0 L -16.1,562.0"/>
				<path id="rect7074" d="M -60.2,536.4 L -28.6,536.4 C -26.6,536.4 -25.0,538.0 -25.0,540.0 L -25.0,545.0 C -25.0,547.0 -26.6,548.6 -28.6,548.6 L -60.2,548.6 C -62.2,548.6 -63.8,547.0 -63.8,545.0 L -63.8,540.0 C -63.8,538.0 -62.1,536.4 -60.2,536.4"/>
			</g>
			<path id="rect7076" class="st2" d="M 201.2,293.1 L 252.1,322.3 C 252.6,322.6 253.0,323.3 253.0,323.9 L 253.0,326.3 C 253.0,326.9 252.6,327.1 252.1,326.8 L 201.2,297.6 C 200.7,297.3 200.3,296.6 200.3,296.0 L 200.3,293.6 C 200.3,293.0 200.7,292.8 201.2,293.1"/>
			<path id="rect7078" class="st2" d="M 201.2,300.5 L 272.6,341.4 C 273.1,341.7 273.5,342.4 273.5,343.0 L 273.5,345.4 C 273.5,346.0 273.1,346.2 272.6,345.9 L 201.2,305.0 C 200.7,304.7 200.3,304.0 200.3,303.4 L 200.3,301.0 C 200.3,300.5 200.7,300.3 201.2,300.5"/>
			<path id="rect7080" class="st2" d="M 201.2,307.6 L 272.6,348.5 C 273.1,348.8 273.5,349.5 273.5,350.1 L 273.5,352.5 C 273.5,353.1 273.1,353.3 272.6,353.0 L 201.2,312.1 C 200.7,311.8 200.3,311.1 200.3,310.5 L 200.3,308.1 C 200.3,307.6 200.7,307.3 201.2,307.6 L 201.2,307.6"/>
			<path id="rect7082" class="st2" d="M 201.2,314.7 L 232.1,332.4 C 232.6,332.7 233.0,333.4 233.0,334.0 L 233.0,336.4 C 233.0,337.0 232.6,337.2 232.1,336.9 L 201.2,319.2 C 200.7,318.9 200.3,318.2 200.3,317.6 L 200.3,315.2 C 200.3,314.6 200.7,314.4 201.2,314.7"/>
			<path id="rect7084" class="st2" d="M 201.2,321.7 L 261.8,356.4 C 262.3,356.7 262.7,357.4 262.7,358.0 L 262.7,360.4 C 262.7,361.0 262.3,361.2 261.8,360.9 L 201.2,326.2 C 200.7,325.9 200.3,325.2 200.3,324.6 L 200.3,322.2 C 200.3,321.7 200.7,321.5 201.2,321.7 L 201.2,321.7"/>
			<path id="rect7086" class="st2" d="M 201.2,328.8 L 212.3,335.1 C 212.8,335.4 213.2,336.1 213.2,336.7 L 213.2,339.1 C 213.2,339.7 212.8,339.9 212.3,339.6 L 201.2,333.3 C 200.7,333.0 200.3,332.3 200.3,331.7 L 200.3,329.3 C 200.3,328.8 200.7,328.5 201.2,328.8"/>
			<g id="g7118" transform="matrix(.17895 .10258 0 .25978 221.119 151.138)">
				<path id="path7068-8" d="M -77.3,812.7 L -116.3,796.5 L -116.3,786.3 L -77.3,770.1 L -77.3,782.3 L -101.0,791.4 L -77.3,800.6 L -77.3,812.7"/>
				<path id="path7070-7" d="M -33.7,812.7 L 5.3,796.5 L 5.3,786.3 L -33.7,770.1 L -33.7,782.3 L -10.0,791.4 L -33.7,800.6 L -33.7,812.7"/>
				<polygon points="-65.45,817.75 -49.8,769.05 -46.3,769.05 -61.9,817.75"/>
			</g>
			<g id="g7183" transform="matrix(.45186 -.23406 -.01436 .47021 341.63 217.323)">
				<g id="g7189" transform="matrix(.98474 -.0433 .04191 1.01366 -18.103 -1.603)">
					<path id="rect7147" class="st5" d="M -54.5,209.8 L 15.4,209.8 C 22.1,209.8 27.6,215.2 27.6,222.0 L 27.6,268.5 C 27.6,275.2 22.2,280.7 15.4,280.7 L -54.5,280.7 C -61.2,280.7 -66.7,275.3 -66.7,268.5 L -66.7,222.0 C -66.7,215.2 -61.3,209.8 -54.5,209.8"/>
					<path id="rect7177" class="st6" d="M -22.8,176.0 L -16.3,176.0 C -3.0,176.0 7.8,186.8 7.8,200.1 L 7.8,228.7 C 7.8,242.0 -3.0,252.8 -16.3,252.8 L -22.8,252.8 C -36.1,252.8 -46.9,242.0 -46.9,228.7 L -46.9,200.1 C -46.9,186.8 -36.1,176.0 -22.8,176.0 L -22.8,176.0"/>
					<ellipse id="path7179" transform="rotate(-55.278 -19.165 236.08)" class="st7" cx="-19.2" cy="236.1" rx="15.4" ry="9.1"/>
					<path id="rect7181" class="st7" d="M -21.9,236.5 L -16.4,236.5 C -15.0,236.5 -13.9,237.6 -13.9,239.0 L -13.9,255.0 C -13.9,256.4 -15.0,257.5 -16.4,257.5 L -21.9,257.5 C -23.3,257.5 -24.4,256.4 -24.4,255.0 L -24.4,239.0 C -24.4,237.6 -23.3,236.5 -21.9,236.5"/>
				</g>
			</g>
			<g id="text7201" transform="matrix(.85395 .52036 -.9448 .5953 0 6)">
				<path id="path7208" d="M 381.4,64.0 C 379.6,64.4 377.8,64.6 375.9,64.6 C 370.4,64.6 367.6,62.8 367.6,59.3 L 367.6,49.9 C 367.6,46.1 370.4,44.2 375.9,44.2 C 377.7,44.2 379.5,44.4 381.3,44.8 L 381.3,47.0 C 379.4,46.5 377.6,46.3 376.0,46.3 C 375.2,46.3 374.6,46.4 374.0,46.5 C 373.4,46.6 372.8,46.7 372.3,47.0 C 371.7,47.2 371.3,47.6 371.0,48.1 C 370.7,48.6 370.5,49.2 370.5,50.0 L 370.5,59.2 C 370.5,61.5 372.4,62.6 376.2,62.6 C 377.8,62.6 379.6,62.4 381.5,61.9 L 381.4,64.0 L 381.4,64.0"/>
				<path id="path7210" d="M 397.8,64.3 L 395.0,64.3 L 395.0,53.7 C 395.0,53.3 395.0,53.0 394.9,52.8 C 394.8,52.6 394.7,52.3 394.5,52.1 C 394.3,51.8 394.0,51.6 393.5,51.5 C 393.1,51.4 392.5,51.3 391.8,51.3 C 390.1,51.3 389.0,51.5 388.5,51.8 C 388.0,52.2 387.7,52.8 387.7,53.7 L 387.7,64.3 L 385.0,64.3 L 385.0,43.0 L 387.7,43.0 L 387.7,51.4 C 388.0,50.0 389.6,49.3 392.5,49.3 C 394.4,49.3 395.8,49.7 396.5,50.4 C 397.2,51.1 397.6,52.1 397.6,53.6 L 397.6,64.3 L 397.8,64.3"/>
				<path id="path7212" d="M 414.1,64.3 L 411.5,64.3 L 411.5,62.9 C 411.3,64.0 409.8,64.6 407.1,64.6 C 405.1,64.6 403.7,64.3 402.9,63.7 C 402.1,63.1 401.7,61.8 401.7,59.9 C 401.7,58.3 402.1,57.1 402.8,56.5 C 403.5,55.9 404.9,55.6 407.0,55.6 L 411.4,55.6 L 411.4,53.3 C 411.4,52.5 411.1,51.9 410.6,51.7 C 410.1,51.4 409.2,51.3 407.8,51.3 C 406.3,51.3 404.6,51.4 402.8,51.7 L 402.8,49.7 C 404.8,49.5 406.6,49.4 408.2,49.4 C 410.7,49.4 412.3,49.7 413.0,50.3 C 413.7,50.9 414.1,52.1 414.1,54.0 L 414.1,64.3 L 414.1,64.3 M 411.4,61.3 L 411.4,57.3 L 407.2,57.3 C 405.9,57.3 405.2,57.5 404.8,57.8 C 404.5,58.1 404.3,58.9 404.3,60.0 C 404.3,61.0 404.5,61.8 404.8,62.2 C 405.1,62.6 405.9,62.8 406.9,62.8 L 408.7,62.8 C 409.1,62.8 409.5,62.7 409.9,62.6 C 410.3,62.5 410.7,62.3 410.9,62.1 C 411.2,61.9 411.4,61.7 411.4,61.3 L 411.4,61.3"/>
				<path id="path7214" d="M 421.6,47.1 L 418.9,47.1 L 418.9,44.2 L 421.6,44.2 L 421.6,47.1 M 421.6,64.3 L 418.9,64.3 L 418.9,49.6 L 421.6,49.6 L 421.6,64.3"/>
				<path id="path7216" d="M 439.0,64.3 L 436.3,64.3 L 436.3,53.7 C 436.3,53.3 436.3,53.0 436.2,52.8 C 436.1,52.6 436.0,52.3 435.8,52.1 C 435.6,51.8 435.3,51.6 434.8,51.5 C 434.4,51.4 433.8,51.3 433.1,51.3 C 431.5,51.3 430.4,51.5 429.9,51.8 C 429.4,52.1 429.1,52.8 429.1,53.7 L 429.1,64.3 L 426.4,64.3 L 426.4,49.6 L 429.1,49.6 L 429.1,51.4 C 429.4,50.0 431.0,49.3 433.9,49.3 C 435.8,49.3 437.2,49.7 437.9,50.4 C 438.6,51.1 439.0,52.1 439.0,53.6 L 439.0,64.3 L 439.0,64.3"/>
				<path id="path7218" d="M 380.8,88.7 L 368.2,88.7 L 368.2,69.0 L 371.1,69.0 L 371.1,86.7 L 380.8,86.7 L 380.8,88.7 L 380.8,88.7"/>
				<path id="path7220" d="M 386.5,71.5 L 383.8,71.5 L 383.8,68.6 L 386.5,68.6 L 386.5,71.5 M 386.5,88.7 L 383.8,88.7 L 383.8,74.0 L 386.5,74.0 L 386.5,88.7"/>
				<path id="path7222" d="M 403.9,88.7 L 401.2,88.7 L 401.2,78.1 C 401.2,77.7 401.2,77.4 401.1,77.2 C 401.0,77.0 400.9,76.7 400.7,76.5 C 400.5,76.2 400.2,76.0 399.7,75.9 C 399.3,75.8 398.7,75.7 398.0,75.7 C 396.4,75.7 395.3,75.9 394.8,76.2 C 394.3,76.5 394.0,77.2 394.0,78.1 L 394.0,88.7 L 391.3,88.7 L 391.3,74.0 L 394.0,74.0 L 394.0,75.8 C 394.3,74.4 395.9,73.7 398.8,73.7 C 400.7,73.7 402.1,74.1 402.8,74.8 C 403.5,75.5 403.9,76.5 403.9,78.0 L 403.9,88.7 L 403.9,88.7"/>
				<path id="path7224" d="M 421.8,88.7 L 418.4,88.7 L 413.0,82.2 L 411.3,83.9 L 410.9,80.6 L 417.7,73.8 L 421.3,74.0 L 414.9,80.7 L 421.8,88.7 L 421.8,88.7 M 411.3,88.7 L 408.6,88.7 L 408.6,67.4 L 411.3,67.4 L 411.3,88.7"/>
			</g>
		</g>
	</g>
</svg>