<svg xmlns="http://www.w3.org/2000/svg" xml:space="preserve" id="Layer_1" x="0" y="0" style="enable-background:new 0 0 900 900" version="1.1" viewBox="0 0 900 900"><style>.st0{fill:#cdfd5f}</style><path d="M0 0h900v900H0z"/><path d="M329.2 590.3c0 1.1-.5 2-1.4 2.6-19.8 13.2-47.3 20.2-79.7 20.2-89.2 0-156.2-63-156.2-148s68.8-152.4 159.2-152.4c27.7 0 53.4 5.8 73.1 16.2 1 .5 1.6 1.6 1.6 2.8v62.8c0 2.4-2.6 3.8-4.7 2.5-18-11.1-40.6-17.6-63.3-17.6-52.6 0-88.7 34.1-88.7 83.7s37 82.5 87 82.5c23.9 0 48.6-7.3 68.3-20.3 2-1.3 4.7 0 4.7 2.5l.1 62.5zM506.8 417.5c-2.7 17.1-18 29.1-36.9 29.1-18.8 0-34.3-12.2-37.2-29.1H359c3 54.4 47.7 84 97.5 83.2h3.8l-8.1 11H536l16.7-24.4c15.5-22.2 25.3-43.4 26.9-69.7h-72.8v-.1zM371.8 363.4c-7.4 12.5-11.9 27-12.8 42.9h73.7c2.8-17.4 18.1-29 37.3-29 19.1 0 33.8 11.7 36.8 29h73c-.6-15.9-4.9-30.4-12.2-42.9H371.8zM410.6 571.9l-22.8 31.5c-1.5 2 0 4.8 2.5 4.8h79.9c1 0 1.9-.5 2.5-1.3l24-35h-86.1zM445 524.2 419.1 560h85.6l24.5-35.8H445zM559.2 351.2c-19.5-23.9-51.5-38.4-89.4-38.4-37.9 0-70 14.3-89.9 38.4h179.3zM801.4 351.6c-19.5-23.9-51.5-38.4-89.4-38.4-38 0-70 14.3-89.9 38.4h179.3zM651.8 571.9 629 603.4c-1.5 2 0 4.8 2.5 4.8h79.9c1 0 1.9-.5 2.5-1.3l24-35h-86.1zM613.9 363.4c-7.4 12.5-11.9 27-12.8 42.9h73.7c2.9-17.4 18.1-29 37.3-29 19.1 0 33.8 11.7 36.8 29h73c-.6-15.9-4.9-30.4-12.2-42.9H613.9zM686.2 524.2 660.3 560h85.6l24.5-35.8h-84.2zM749 417.5c-2.7 17.1-18.1 29.1-36.9 29.1-18.8 0-34.3-12.2-37.2-29.1h-73.8c3 54.4 47.7 84 97.5 83.2h3.8l-8 11h83.8l16.7-24.4c15.5-22.2 25.3-43.4 26.9-69.7H749v-.1z" class="st0"/></svg>