<?xml version="1.0" encoding="utf-8"?>
<!-- Generator: Adobe Illustrator 20.1.0, SVG Export Plug-In . SVG Version: 6.00 Build 0)  -->

<svg version="1.1" id="Layer_1" xmlns="http://www.w3.org/2000/svg"  x="0px" y="0px"
	 viewBox="0 0 259.5 100.2" style="enable-background:new 0 0 259.5 100.2;" xml:space="preserve">
<style type="text/css">
	.st0{fill:#3C3C3B;}
	.st1{fill:#0080A4;}
	.st2{fill:#0080A4;}
	.st3{fill:#00597D;}
</style>
<g>
	<g>
		<path class="st0" d="M140.7,51.1c-0.8-4.4-2.4-7.6-4.7-9.6c-2.3-2-5.3-3.1-9-3.1c-2.2,0-4.2,0.4-6.2,1.1c-1.9,0.7-3.6,1.9-5.1,3.6
			c-1.5,1.7-2.6,3.9-3.5,6.6c-0.8,2.7-1.3,6.1-1.3,10.1c0,2.5,0.3,4.9,0.9,7.3c0.6,2.4,1.5,4.5,2.8,6.4c1.3,1.9,2.9,3.4,5,4.5
			c2,1.2,4.5,1.7,7.3,1.7c3.3,0,6.2-0.8,8.6-2.4c2.4-1.6,4.5-3.9,6.4-6.9l1.3,1c-1.1,2.1-2.3,3.8-3.6,5.2c-1.3,1.4-2.7,2.5-4.2,3.4
			c-1.5,0.9-3.1,1.5-4.9,1.8c-1.8,0.4-3.6,0.5-5.6,0.5c-3.2,0-6-0.6-8.6-1.8c-2.6-1.2-4.7-2.8-6.5-4.8c-1.8-2-3.2-4.4-4.1-7.2
			c-1-2.8-1.4-5.7-1.4-8.9c0-3.3,0.5-6.5,1.6-9.4c1.1-2.9,2.6-5.5,4.4-7.6c1.9-2.2,4.1-3.9,6.6-5.1c2.5-1.2,5.2-1.9,8-1.9
			c3.7,0,6.9,0.5,9.5,1.6c2.7,1,4.6,2.3,5.8,3.8c0.8,1,1.3,2.4,1.5,4.3c0.1,1.8,0.2,3.7,0.2,5.7H140.7z"/>
		<path class="st0" d="M155.4,52.4c0.8-0.8,2-1.6,3.5-2.3c1.5-0.7,3.2-1,5.2-1c1.4,0,2.8,0.2,4.2,0.5c1.4,0.3,2.6,1,3.6,1.9
			c1.1,0.9,1.9,2.1,2.6,3.7c0.6,1.6,1,3.5,1,5.9v20h-6v-20c0-1.6-0.2-3-0.6-4.2c-0.4-1.2-1-2.1-1.7-2.8c-0.7-0.7-1.5-1.2-2.3-1.5
			c-0.9-0.3-1.8-0.5-2.7-0.5c-1.3,0-2.6,0.4-3.7,1.1c-1.1,0.7-2.1,1.5-3,2.5v25.5h-6v-36c0-2-0.3-3.6-0.8-4.8
			c-0.6-1.2-1.8-1.8-3.8-1.8h-1.3v-1.3h6c1.2,0,2.1,0.1,2.9,0.3c0.8,0.2,1.4,0.6,1.9,1.2c0.5,0.6,0.8,1.4,1,2.5c0.2,1,0.3,2.4,0.3,4
			V52.4z"/>
		<path class="st0" d="M207.5,66.4h-20.2c0,1.8,0.2,3.5,0.6,5.1c0.4,1.6,1,2.9,1.8,4c0.8,1.1,1.7,2,2.8,2.6c1.1,0.6,2.4,0.9,3.8,0.9
			c2.2,0,4-0.5,5.4-1.4c1.4-0.9,2.7-2.2,3.9-3.9l1.3,1c-1.5,2.5-3.3,4.3-5.2,5.4c-2,1.1-4.2,1.6-6.8,1.6c-2.4,0-4.4-0.4-6.1-1.3
			c-1.7-0.9-3.2-2-4.4-3.5c-1.2-1.5-2.1-3.2-2.6-5.2c-0.6-2-0.9-4.1-0.9-6.4c0-2.3,0.3-4.4,0.9-6.4c0.6-2,1.5-3.7,2.6-5.2
			c1.2-1.5,2.6-2.6,4.2-3.5c1.6-0.9,3.5-1.3,5.6-1.3c4.5,0,7.9,1.3,10.1,3.8c2.2,2.5,3.3,6.2,3.3,10.9L207.5,66.4z M201.3,63.8
			c0-3.9-0.6-6.8-1.7-8.9c-1.2-2.1-2.9-3.1-5.3-3.1c-1,0-2,0.3-2.8,0.9c-0.8,0.6-1.6,1.4-2.2,2.5c-0.6,1.1-1.1,2.3-1.5,3.8
			c-0.4,1.5-0.5,3.1-0.5,4.8H201.3z"/>
		<path class="st0" d="M236.2,73.1c0,1.4-0.3,2.7-0.9,3.7c-0.6,1.1-1.4,2-2.4,2.7c-1,0.7-2.3,1.3-3.7,1.7c-1.4,0.4-3,0.6-4.6,0.6
			c-2.7,0-4.8-0.2-6.5-0.7c-1.7-0.5-3-1.1-3.8-2c-0.8-0.8-1.3-1.8-1.5-2.9c-0.1-1.1-0.2-2.4-0.2-4.1h1.3c0.4,2.2,1.3,3.9,2.8,5.1
			c1.5,1.2,3.7,1.9,6.5,1.9c2.5,0,4.4-0.4,5.6-1.3c1.2-0.9,1.8-2,1.8-3.3c0-1.3-0.5-2.5-1.5-3.4c-1-0.9-2.5-1.8-4.5-2.6l-4-1.7
			c-2.5-1-4.5-2.2-5.9-3.6c-1.4-1.4-2.1-3.2-2.1-5.4c0-1.4,0.3-2.7,0.8-3.7c0.6-1.1,1.3-2,2.3-2.7c1-0.7,2.1-1.3,3.5-1.7
			c1.3-0.4,2.8-0.6,4.4-0.6c2.5,0,4.6,0.2,6.3,0.7c1.6,0.5,2.9,1.1,3.7,2c0.8,0.8,1.3,1.8,1.5,2.9c0.1,1.1,0.2,2.4,0.2,4.1h-1.3
			c-0.4-2.2-1.3-3.9-2.8-5.1c-1.5-1.2-3.6-1.9-6.2-1.9c-2.2,0-3.8,0.4-5,1.3c-1.1,0.9-1.7,2-1.7,3.3c0,1.2,0.5,2.2,1.4,3.2
			c0.9,1,2.2,1.8,3.9,2.5l4,1.7c2.8,1.2,5,2.4,6.5,3.8C235.4,68.9,236.2,70.8,236.2,73.1z"/>
		<path class="st0" d="M243.2,52.4h-4.7v-2.7h4.7v-6l3.3-4h2.7v10h8v2.7h-8v20.7c0,4,1.6,6,4.7,6c1.2,0,2.1-0.1,2.9-0.4
			c0.8-0.3,1.5-0.6,2.1-0.9l0.7,1.3c-0.4,0.3-0.8,0.6-1.2,0.9c-0.5,0.3-1,0.6-1.7,0.9c-0.7,0.3-1.4,0.5-2.3,0.7
			c-0.9,0.2-1.9,0.3-3.1,0.3c-2.4,0-4.3-0.7-5.8-2.1c-1.5-1.4-2.2-3.6-2.2-6.6V52.4z"/>
	</g>
	<g>
		<polygon class="st1" points="7.5,69.1 17.6,72.7 93.1,99.9 92.4,99.3 36.6,52.9 0,66.4 7.5,69.1 		"/>
		<polygon class="st2" points="96.2,100.2 78.6,2.8 66.2,75.2 		"/>
		<polygon class="st3" points="70.7,38.5 76.6,4 77.3,0 55.5,18.4 1.8,63.9 		"/>
	</g>
</g>
</svg>
