<svg viewBox="0 0 329 43" fill="none" xmlns="http://www.w3.org/2000/svg">
<path d="M47.1399 16.3655C45.4766 14.7395 43.3027 13.9266 40.6181 13.9266C37.6125 13.9266 35.2635 15.0879 33.571 17.4108V6H28.8438V36.4868H33.571V25.2066C33.571 22.9709 34.0962 21.2143 35.1468 19.9368C36.2264 18.6302 37.7001 17.977 39.5676 17.977C41.3184 17.977 42.6461 18.5286 43.5507 19.6319C44.4845 20.7352 44.9513 22.3467 44.9513 24.4663V36.4868H49.6785V24.205C49.6785 20.6046 48.8323 17.9915 47.1399 16.3655Z" fill="#ff33ff"/>
<path d="M22.1209 34.5704C23.9301 33.0897 25.0536 31.0572 25.4913 28.4731H20.6765C20.3848 29.7797 19.7574 30.825 18.7944 31.6089C17.8315 32.3638 16.6205 32.7412 15.1614 32.7412C13.2647 32.7412 11.7328 32.0589 10.5656 30.6943C9.42751 29.3006 8.85852 27.5004 8.85852 25.2937C8.85852 23.1161 9.42751 21.345 10.5656 19.9803C11.7328 18.6157 13.2647 17.9334 15.1614 17.9334C16.5621 17.9334 17.7439 18.3109 18.7069 19.0657C19.6698 19.8206 20.3118 20.8369 20.6328 22.1144H25.4913C25.0536 19.5884 23.9447 17.5994 22.1648 16.1478C20.3848 14.6669 18.0941 13.9266 15.2928 13.9266C13.0459 13.9266 11.0616 14.4057 9.34002 15.3637C7.6475 16.2929 6.33445 17.614 5.40065 19.3271C4.46685 21.0402 4 23.029 4 25.2937C4 27.5585 4.4523 29.5619 5.3569 31.3041C6.2906 33.0461 7.60376 34.3963 9.29617 35.3543C10.9887 36.2835 12.9438 36.748 15.1614 36.748C17.9919 36.748 20.3117 36.0222 22.1209 34.5704Z" fill="#ff33ff"/>
<path fill-rule="evenodd" clip-rule="evenodd" d="M64.1326 36.748C61.8854 36.748 59.8863 36.2835 58.1355 35.3543C56.4142 34.3963 55.0724 33.0607 54.109 31.3475C53.1751 29.6054 52.7081 27.602 52.7081 25.3373C52.7081 23.1016 53.1751 21.1272 54.109 19.4141C55.0724 17.672 56.4142 16.3219 58.1355 15.3637C59.8863 14.4057 61.8854 13.9266 64.1326 13.9266C66.3789 13.9266 68.3636 14.4057 70.085 15.3637C71.8358 16.3219 73.1786 17.672 74.1115 19.4141C75.0749 21.1272 75.5561 23.1016 75.5561 25.3373C75.5561 27.602 75.0749 29.6054 74.1115 31.3475C73.1786 33.0607 71.8358 34.3963 70.085 35.3543C68.3636 36.2835 66.3789 36.748 64.1326 36.748ZM64.1326 32.7412C66.1164 32.7412 67.7065 32.0589 68.9028 30.6943C70.1287 29.3006 70.7421 27.5149 70.7421 25.3373C70.7421 23.1597 70.1287 21.3886 68.9028 20.0239C67.7065 18.6302 66.1164 17.9334 64.1326 17.9334C62.1478 17.9334 60.5578 18.6302 59.3614 20.0239C58.165 21.3886 57.5668 23.1597 57.5668 25.3373C57.5668 27.5149 58.165 29.3006 59.3614 30.6943C60.5578 32.0589 62.1478 32.7412 64.1326 32.7412Z" fill="#ff33ff"/>
<path d="M91.3073 18.5867V14.1879H90.2564C88.5351 14.1879 87.1637 14.4927 86.1423 15.1025C85.121 15.6832 84.2888 16.4962 83.6469 17.5415L83.1219 14.1879H78.9204V36.4868H83.6469V25.2938C83.6469 23.3484 84.0853 21.7515 84.9602 20.503C85.8361 19.2255 87.2512 18.5867 89.2055 18.5867H91.3073Z" fill="#ff33ff"/>
<path fill-rule="evenodd" clip-rule="evenodd" d="M114.555 6V36.4868H110.441L109.872 33.1332C108.092 35.5431 105.656 36.748 102.563 36.748C100.52 36.748 98.6961 36.298 97.0907 35.3979C95.4864 34.4688 94.231 33.1477 93.3267 31.4346C92.4222 29.6925 91.9695 27.6601 91.9695 25.3373C91.9695 23.0726 92.4222 21.0837 93.3267 19.3706C94.2606 17.6285 95.5302 16.2929 97.1345 15.3637C98.7398 14.4057 100.549 13.9266 102.563 13.9266C104.197 13.9266 105.626 14.2314 106.852 14.8412C108.078 15.4218 109.07 16.2348 109.829 17.2801V6H114.555ZM103.35 32.7848C105.306 32.7848 106.881 32.1025 108.078 30.7378C109.274 29.3732 109.872 27.6021 109.872 25.4244C109.872 23.1887 109.274 21.3886 108.078 20.0239C106.881 18.6302 105.306 17.9334 103.35 17.9334C101.395 17.9334 99.8192 18.6302 98.6228 20.0239C97.4264 21.3886 96.8283 23.1597 96.8283 25.3373C96.8283 27.544 97.4264 29.3441 98.6228 30.7378C99.8192 32.1025 101.395 32.7848 103.35 32.7848Z" fill="#ff33ff"/>
<path d="M130.522 36.836C124.253 36.836 120 32.304 120 25.44C120 18.664 124.297 14 130.566 14C135.608 14 139.072 16.816 139.993 21.436H137.669C136.88 18.092 134.249 15.98 130.522 15.98C125.612 15.98 122.28 19.896 122.28 25.44C122.28 30.984 125.656 34.812 130.522 34.812C134.205 34.812 136.88 32.7 137.625 29.4H139.993C139.116 33.932 135.565 36.836 130.522 36.836Z" fill="#ff33ff"/>
<path fill-rule="evenodd" clip-rule="evenodd" d="M143.506 25.396C143.506 32.172 147.89 36.836 154.16 36.836C160.43 36.836 164.858 32.172 164.858 25.396C164.858 18.664 160.43 14 154.16 14C147.89 14 143.506 18.664 143.506 25.396ZM162.534 25.396C162.534 30.94 159.114 34.812 154.16 34.812C149.206 34.812 145.786 30.94 145.786 25.396C145.786 19.896 149.206 15.98 154.16 15.98C159.114 15.98 162.534 19.896 162.534 25.396Z" fill="#ff33ff"/>
<path d="M194.116 14C198.764 14 202.315 16.904 202.315 23.636V36.572H200.035V23.724C200.035 18.664 197.712 16.068 193.853 16.068C189.688 16.068 187.058 19.324 186.926 24.428V36.572H184.69V23.944C184.69 18.796 182.279 16.068 178.42 16.068C174.168 16.068 171.537 19.764 171.537 25.22V36.572H169.301V14.264H171.23L171.581 19.016C172.721 16.244 175.001 14 178.815 14C182.322 14 185.085 15.892 186.137 19.588C187.408 16.288 190.039 14 194.116 14Z" fill="#ff33ff"/>
<path d="M240.293 23.636C240.293 16.904 236.742 14 232.094 14C228.017 14 225.386 16.288 224.115 19.588C223.062 15.892 220.3 14 216.793 14C212.978 14 210.699 16.244 209.559 19.016L209.208 14.264H207.279V36.572H209.515V25.22C209.515 19.764 212.145 16.068 216.398 16.068C220.256 16.068 222.668 18.796 222.668 23.944V36.572H224.904V24.428C225.035 19.324 227.666 16.068 231.831 16.068C235.689 16.068 238.013 18.664 238.013 23.724V36.572H240.293V23.636Z" fill="#ff33ff"/>
<path fill-rule="evenodd" clip-rule="evenodd" d="M254.735 36.836C248.422 36.836 244.081 32.26 244.081 25.264C244.081 18.664 248.246 14 254.341 14C260.303 14 264.381 17.872 264.6 24.516C264.6 24.6424 264.59 24.7891 264.579 24.9414L264.579 24.9426C264.568 25.1078 264.556 25.2801 264.556 25.44H246.405V25.836C246.493 31.028 249.605 34.812 254.56 34.812C258.199 34.812 261.136 32.656 262.013 29.18H264.293C263.328 33.668 259.602 36.836 254.735 36.836ZM262.189 23.548C261.838 18.664 258.725 15.98 254.384 15.98C250.307 15.98 246.931 19.016 246.58 23.548H262.189Z" fill="#ff33ff"/>
<path d="M290.698 36.836C284.428 36.836 280.175 32.304 280.175 25.44C280.175 18.664 284.472 14 290.741 14C295.783 14 299.247 16.816 300.168 21.436H297.844C297.055 18.092 294.424 15.98 290.698 15.98C285.787 15.98 282.455 19.896 282.455 25.44C282.455 30.984 285.831 34.812 290.698 34.812C294.38 34.812 297.055 32.7 297.8 29.4H300.168C299.291 33.932 295.74 36.836 290.698 36.836Z" fill="#ff33ff"/>
<path fill-rule="evenodd" clip-rule="evenodd" d="M314.335 36.836C308.022 36.836 303.681 32.26 303.681 25.264C303.681 18.664 307.846 14 313.941 14C319.903 14 323.981 17.872 324.2 24.516C324.2 24.6424 324.19 24.7891 324.179 24.9414L324.179 24.9426C324.168 25.1078 324.156 25.2801 324.156 25.44H306.005V25.836C306.093 31.028 309.205 34.812 314.16 34.812C317.799 34.812 320.736 32.656 321.613 29.18H323.893C322.929 33.668 319.202 36.836 314.335 36.836ZM321.789 23.548C321.438 18.664 318.325 15.98 313.984 15.98C309.907 15.98 306.531 19.016 306.18 23.548H321.789Z" fill="#ff33ff"/>
<path d="M279.279 14.264H278.095C273.974 14.264 272.22 16.244 271.299 18.708L270.949 14.264H269.02V36.572H271.256V25.264C271.256 20.732 272.439 16.42 277.657 16.42H279.279V14.264Z" fill="#ff33ff"/>
</svg>