<?xml version="1.0" ?>
<svg xmlns="http://www.w3.org/2000/svg" viewBox="0 0 120 39" fill="none">
	<path d="M52.2989 27.3814C50.341 27.3814 48.8904 26.7259 47.9464 25.4062C47.0026 24.0909 46.5306 22.2337 46.5306 19.8303C46.5306 17.4313 47.0026 15.5742 47.9464 14.2545C48.8904 12.9261 50.341 12.2618 52.2989 12.2618C53.0415 12.2618 53.7058 12.3667 54.2914 12.5765C54.8727 12.7775 55.3752 13.0572 55.7947 13.4155C56.2143 13.7782 56.5551 14.2195 56.8258 14.7439C57.0927 15.2595 57.3019 15.8364 57.4551 16.4743L54.5362 17.191C54.4531 16.8414 54.3523 16.5224 54.2391 16.2296C54.121 15.9412 53.977 15.6878 53.8018 15.478C53.6271 15.2683 53.4087 15.1066 53.1552 14.9886C52.8975 14.8619 52.5874 14.7963 52.2288 14.7963C51.3768 14.7963 50.7691 15.1284 50.4111 15.7927C50.0616 16.4568 49.8864 17.3789 49.8864 18.5544V21.1063C49.8864 22.2862 50.0616 23.2038 50.4111 23.868C50.7691 24.5235 51.3768 24.8469 52.2288 24.8469C52.9498 24.8469 53.4744 24.6284 53.8018 24.1826C54.1383 23.7413 54.3831 23.1689 54.5362 22.4697L57.4551 23.1864C57.3019 23.8287 57.0927 24.4055 56.8258 24.9168C56.5551 25.4324 56.2143 25.8738 55.7947 26.2452C55.3752 26.621 54.8727 26.9051 54.2914 27.1017C53.7058 27.2852 53.0415 27.3814 52.2989 27.3814Z" fill="black"/>
	<path d="M59.8085 27.1368V24.812H62.9549V14.8489H59.8085V12.5242H69.2299V14.8489H66.0835V24.812H69.2299V27.1368H59.8085Z" fill="black"/>
	<path d="M77.4216 27.3814C75.4637 27.3814 74.0131 26.7259 73.0694 25.4062C72.1253 24.0909 71.6534 22.2337 71.6534 19.8303C71.6534 17.4313 72.1253 15.5742 73.0694 14.2545C74.0131 12.9261 75.4637 12.2618 77.4216 12.2618C78.1646 12.2618 78.8285 12.3667 79.4141 12.5765C79.9954 12.7775 80.4979 13.0572 80.9174 13.4155C81.337 13.7782 81.6778 14.2195 81.9485 14.7439C82.2154 15.2595 82.4251 15.8364 82.5778 16.4743L79.6589 17.191C79.5758 16.8414 79.4755 16.5224 79.3618 16.2296C79.2437 15.9412 79.0997 15.6878 78.925 15.478C78.7498 15.2683 78.5314 15.1066 78.2779 14.9886C78.0202 14.8619 77.7101 14.7963 77.3515 14.7963C76.4995 14.7963 75.8923 15.1284 75.5338 15.7927C75.1843 16.4568 75.0096 17.3789 75.0096 18.5544V21.1063C75.0096 22.2862 75.1843 23.2038 75.5338 23.868C75.8923 24.5235 76.4995 24.8469 77.3515 24.8469C78.0725 24.8469 78.5971 24.6284 78.925 24.1826C79.2614 23.7413 79.5058 23.1689 79.6589 22.4697L82.5778 23.1864C82.4251 23.8287 82.2154 24.4055 81.9485 24.9168C81.6778 25.4324 81.337 25.8738 80.9174 26.2452C80.4979 26.621 79.9954 26.9051 79.4141 27.1017C78.8285 27.2852 78.1646 27.3814 77.4216 27.3814Z" fill="black"/>
	<path d="M91.4688 25.1615H91.3286C91.093 25.782 90.7214 26.3064 90.2102 26.7346C89.7077 27.1628 89.0218 27.3813 88.1477 27.3813C87.6322 27.3813 87.1603 27.2939 86.7317 27.1192C86.2992 26.9443 85.9277 26.6909 85.6133 26.3501C85.3075 26.0005 85.0713 25.5766 84.8966 25.0741C84.7219 24.5628 84.6346 23.9816 84.6346 23.3262V16.3345H87.7281V22.9067C87.7281 24.305 88.3402 25.0042 89.5637 25.0042C89.795 25.0042 90.0269 24.9779 90.2625 24.9168C90.4944 24.8468 90.6907 24.7507 90.8568 24.6196C91.0315 24.4798 91.176 24.3181 91.2941 24.1302C91.4073 23.9335 91.4688 23.7019 91.4688 23.431V16.3345H94.5624V27.1366H91.4688V25.1615Z" fill="black"/>
	<path d="M97.1606 11.6327H100.255V18.2923H100.394C100.661 17.6542 101.046 17.1212 101.548 16.7016C102.046 16.2822 102.737 16.0724 103.61 16.0724C104.205 16.0724 104.747 16.1904 105.236 16.422C105.734 16.6448 106.163 16.9901 106.512 17.4533C106.871 17.9077 107.15 18.4933 107.351 19.2012C107.561 19.9135 107.666 20.7568 107.666 21.7356C107.666 22.7145 107.561 23.5622 107.351 24.2701C107.15 24.9824 106.871 25.5723 106.512 26.0355C106.163 26.49 105.734 26.8308 105.236 27.0493C104.747 27.2678 104.205 27.3814 103.61 27.3814C102.737 27.3814 102.046 27.1761 101.548 26.7696C101.046 26.3633 100.661 25.8258 100.394 25.1616H100.255V27.1367H97.1606V11.6327ZM102.265 24.9868C102.964 24.9868 103.497 24.777 103.873 24.3575C104.257 23.9293 104.449 23.335 104.449 22.5747V20.8966C104.449 20.1407 104.257 19.5508 103.873 19.1313C103.497 18.703 102.964 18.4845 102.265 18.4845C101.714 18.4845 101.242 18.62 100.849 18.8865C100.451 19.1575 100.255 19.577 100.255 20.1451V23.3263C100.255 23.8987 100.451 24.3182 100.849 24.5848C101.242 24.8557 101.714 24.9868 102.265 24.9868Z" fill="black"/>
	<path d="M115.054 27.3813C113.235 27.3813 111.859 26.8832 110.928 25.8781C109.993 24.8774 109.53 23.5097 109.53 21.7705C109.53 20.8965 109.652 20.11 109.897 19.4108C110.142 18.7029 110.491 18.0999 110.946 17.6104C111.4 17.1123 111.947 16.7321 112.589 16.4743C113.24 16.2077 113.974 16.0723 114.791 16.0723C115.595 16.0723 116.316 16.2077 116.959 16.4743C117.597 16.7321 118.139 17.0992 118.584 17.5755C119.039 18.043 119.388 18.6155 119.633 19.2885C119.878 19.9658 120 20.7217 120 21.5607V22.4871H112.606V22.6794C112.606 23.3786 112.821 23.9467 113.253 24.3749C113.681 24.7944 114.319 25.0042 115.158 25.0042C115.796 25.0042 116.347 24.8818 116.801 24.637C117.264 24.3923 117.667 24.069 118.008 23.6582L119.686 25.4761C119.266 26.0004 118.676 26.4505 117.92 26.822C117.173 27.1934 116.216 27.3813 115.054 27.3813ZM114.809 18.2921C114.132 18.2921 113.594 18.5019 113.201 18.9214C112.803 19.3321 112.606 19.8827 112.606 20.5819V20.7567H116.959V20.5819C116.959 19.874 116.766 19.3147 116.382 18.9039C115.997 18.4975 115.473 18.2921 114.809 18.2921Z" fill="black"/>
	<path d="M33.9278 6.94024L29.6434 4.31579L25.3641 1.69135L25.2219 1.59998L25.0595 1.64059L18.3994 3.33099L11.7494 5.02648L5.09949 6.71181L4.79999 6.78795V29.1338L4.98781 29.2506L9.26713 31.875L13.5515 34.5096L17.8359 37.134L17.9831 37.2203L18.1456 37.1797L24.7955 35.4842L31.4505 33.7938L38.1005 32.1034L38.4 32.0273V9.68651L38.2122 9.56976L33.9278 6.94024ZM18.4654 3.93L22.2777 6.27017L16.1658 7.82351L12.3535 5.48842L18.4654 3.93ZM29.3997 4.86911L33.212 7.20421L27.1002 8.76263L23.2879 6.42246L29.3997 4.86911ZM37.4964 9.82865L31.3845 11.3871L27.5722 9.05198L33.6841 7.49355L37.4964 9.82865ZM31.1561 33.2558L24.897 34.8446V27.9866L31.1561 26.3977V33.2558ZM11.8154 5.62548L15.6277 7.96057L9.50571 9.51392L5.70357 7.17882L11.8154 5.62548ZM22.7498 6.55952L26.5621 8.89969L20.4451 10.453L16.6379 8.11286L22.7498 6.55952ZM24.897 27.5754V20.7173L31.1561 19.1284V25.9865L24.897 27.5754ZM16.0998 8.255L19.907 10.5901L13.7901 12.1434L9.98288 9.80835L16.0998 8.255ZM5.77464 7.68645L6.0386 7.8489L5.39391 8.49359V8.06718L5.77464 7.68645ZM5.39391 7.7829V7.45802L5.59697 7.57985L5.39391 7.7829ZM13.9576 29.347L15.2572 28.0475L15.5211 28.2099L13.9576 29.7734V29.347ZM9.67323 25.1032L9.96766 24.8088L10.2367 24.9712L9.67323 25.5296V25.1032ZM13.9627 12.7171L13.9576 12.7221V12.712L13.9627 12.7171ZM17.577 29.0018L17.3131 28.8394L17.8461 28.3013V28.7328L17.577 29.0018ZM17.8461 29.012V29.1693L17.7496 29.1084L17.8461 29.012ZM17.1354 28.7328L16.8663 28.5653L17.8461 27.5906V28.0221L17.1354 28.7328ZM13.5617 14.5395L10.6276 17.4736L10.3585 17.306L13.5617 14.108V14.5395ZM13.9576 22.2402L15.3587 20.8391L15.6226 21.0016L13.9576 22.6666V22.2402ZM13.9576 21.9559V21.5295L14.917 20.5701L15.1861 20.7325L13.9576 21.9559ZM13.9576 21.2452V20.8188L14.4805 20.301L14.7444 20.4635L13.9576 21.2452ZM13.9576 20.5346V20.1082L14.0388 20.032L14.3028 20.1944L13.9576 20.5346ZM13.9576 22.9509L15.8003 21.1133L16.0643 21.2706L13.9576 23.3773V22.9509ZM16.242 21.3823L16.5059 21.5447L13.9576 24.093V23.6666L16.242 21.3823ZM16.6836 21.6513L16.9476 21.8138L13.9576 24.7986V24.3722L16.6836 21.6513ZM12.0997 18.8442L9.67323 21.2655V20.8391L11.8357 18.6817L12.0997 18.8442ZM12.2723 18.9508L12.5413 19.1132L9.67323 21.9762V21.5498L12.2723 18.9508ZM12.7139 19.2198L12.9779 19.3822L9.67323 22.6869V22.2656L12.7139 19.2198ZM13.45 19.1995L13.5617 19.0878V19.2706L13.45 19.1995ZM13.2723 19.0929L13.0084 18.9304L13.5617 18.3771V18.8035L13.2723 19.0929ZM12.8307 18.8238L12.5667 18.6614L13.5617 17.6614V18.0878L12.8307 18.8238ZM12.389 18.5548L12.1251 18.3873L13.5617 16.9507V17.3822L12.389 18.5548ZM11.9474 18.2807L11.6834 18.1182L13.5617 16.2451V16.6715L11.9474 18.2807ZM11.5058 18.0116L11.2418 17.8492L13.5617 15.5344V15.9608L11.5058 18.0116ZM11.0692 17.7426L10.8002 17.5802L13.5617 14.8237V15.2501L11.0692 17.7426ZM10.7799 18.0319L9.67323 19.1335V18.7071L10.5108 17.8695L10.7799 18.0319ZM10.9525 18.1385L11.2164 18.301L9.67323 19.8442V19.4228L10.9525 18.1385ZM11.3941 18.4127L11.6581 18.57L9.67323 20.5549V20.1335L11.3941 18.4127ZM9.67323 22.9712L13.1556 19.4888L13.4195 19.6513L9.67323 23.3976V22.9712ZM13.5617 22.3569L10.9626 24.9509L10.7037 24.7885L13.5617 21.9255V22.3569ZM13.5617 22.6412V23.0626L11.4042 25.22L11.1403 25.0575L13.5617 22.6412ZM13.5617 23.3468V23.7732L11.8459 25.489L11.5819 25.3266L13.5617 23.3468ZM13.9576 25.0829L17.1202 21.9204L17.3841 22.0828L13.9576 25.5093V25.0829ZM13.5617 13.8288L10.1859 17.1994L9.92197 17.0421L13.5617 13.4024V13.8288ZM9.89659 17.4939L9.67323 17.7121V17.3568L9.89659 17.4939ZM10.0692 17.6005L10.3331 17.7629L9.67323 18.4228V17.9964L10.0692 17.6005ZM13.5617 19.7934V20.2249L9.67323 24.1133V23.6819L13.5617 19.7934ZM13.5617 20.9305L10.0844 24.4078L9.82044 24.2453L13.5617 20.5041V20.9305ZM13.5617 21.2199V21.6463L10.526 24.6819L10.2621 24.5195L13.5617 21.2199ZM12.0236 25.6007L13.5617 24.0626V24.489L12.2875 25.7631L12.0236 25.6007ZM13.9576 25.7936L17.5618 22.1894L17.8258 22.3519L13.9576 26.22V25.7936ZM17.6785 21.7935L17.4095 21.631L17.8461 21.1996V21.626L17.6785 21.7935ZM17.2369 21.5244L16.9729 21.362L17.8461 20.4889V20.9153L17.2369 21.5244ZM16.7953 21.2554L16.5313 21.093L17.8461 19.7731V20.2046L16.7953 21.2554ZM16.3536 20.9813L16.0897 20.8188L17.8461 19.0624V19.4939L16.3536 20.9813ZM15.912 20.7122L15.648 20.5498L17.8461 18.3518V18.7832L15.912 20.7122ZM15.4754 20.4432L15.2064 20.2807L17.8461 17.6411V18.0726L15.4754 20.4432ZM15.0338 20.1741L14.7698 20.0117L17.8461 16.9304V17.3619L15.0338 20.1741ZM14.5922 19.9L14.3282 19.7427L17.8461 16.2248V16.6512L14.5922 19.9ZM14.1556 19.6361L13.9576 19.5142V19.3975L17.8461 15.5141V15.9405L14.1556 19.6361ZM13.5617 13.1181L9.74938 16.9355L9.67323 16.8898V16.575L13.5617 12.6866V13.1181ZM9.27728 13.8491L7.54626 15.5801L7.2823 15.4177L9.27728 13.4227V13.8491ZM9.27728 14.1333V14.5598L7.98282 15.8491L7.71886 15.6867L9.27728 14.1333ZM9.27728 14.844V15.2704L8.42446 16.1233L8.1605 15.9608L9.27728 14.844ZM9.27728 15.5547V15.9811L8.8661 16.3923L8.60213 16.2299L9.27728 15.5547ZM9.27728 16.2603V16.6461L9.03869 16.4989L9.27728 16.2603ZM9.27728 20.9508L7.44474 22.7884L7.18077 22.626L9.27728 20.5295V20.9508ZM9.27728 21.2351V21.6615L7.8813 23.0575L7.61733 22.895L9.27728 21.2351ZM9.27728 21.9508V22.3773L8.32294 23.3316L8.05897 23.1692L9.27728 21.9508ZM9.27728 22.6615V23.0879L8.76457 23.6006L8.50061 23.4382L9.27728 22.6615ZM9.27728 23.3722V23.7935L9.20114 23.8697L8.93717 23.7072L9.27728 23.3722ZM12.4652 25.8697L13.5617 24.7733V25.1946L12.7292 26.0322L12.4652 25.8697ZM13.5617 25.4789V25.9104L13.1708 26.3012L12.9018 26.1388L13.5617 25.4789ZM13.5617 26.1946V26.5398L13.3485 26.4078L13.5617 26.1946ZM17.8461 27.3114L16.6937 28.4587L16.4298 28.2962L17.8461 26.8799V27.3114ZM14.2013 27.4028L13.9576 27.6414V27.2505L14.2013 27.4028ZM16.2521 28.1896L15.9881 28.0272L17.8461 26.1692V26.6007L16.2521 28.1896ZM15.8105 27.9206L15.5465 27.7581L17.8461 25.4586V25.885L15.8105 27.9206ZM15.3688 27.6464L15.1049 27.4891L17.8461 24.7479V25.1743L15.3688 27.6464ZM14.9323 27.3825L14.6683 27.22L17.8461 24.0372V24.4636L14.9323 27.3825ZM14.4906 27.1134L14.2267 26.9459L17.8461 23.3265V23.7529L14.4906 27.1134ZM14.049 26.8393L13.9576 26.7835V26.5043L17.8461 22.6158V23.0422L14.049 26.8393ZM17.8461 15.2298L13.9576 19.1183V18.6919L17.6633 14.9862L17.8461 15.0978V15.2298ZM13.9576 18.4025V17.9761L17.2217 14.712L17.4907 14.8796L13.9576 18.4025ZM13.9576 17.6918V17.2654L16.78 14.443L17.044 14.6054L13.9576 17.6918ZM13.9576 16.9812V16.5547L16.3435 14.174L16.6075 14.3364L13.9576 16.9812ZM13.9576 16.2755V15.8441L15.9018 13.9049L16.1658 14.0674L13.9576 16.2755ZM13.9576 15.5598V15.1334L15.4602 13.6308L15.7242 13.7983L13.9576 15.5598ZM13.9576 14.8491V14.4278L15.0236 13.3668L15.2876 13.5242L13.9576 14.8491ZM13.9576 14.1435V13.712L14.5769 13.0927L14.846 13.2551L13.9576 14.1435ZM13.9576 13.4328V13.0013L14.1404 12.8237L14.4043 12.9861L13.9576 13.4328ZM9.67323 16.2908V15.8644L13.252 12.2805L13.5211 12.4429L9.67323 16.2908ZM9.67323 15.5801V15.1588L12.8155 12.0165L13.0794 12.1739L9.67323 15.5801ZM9.67323 14.8694V14.443L12.3738 11.7424L12.6429 11.9049L9.67323 14.8694ZM9.67323 14.1587V13.7323L11.9373 11.4734L12.2012 11.6358L9.67323 14.1587ZM9.67323 13.4531V13.0267L11.4956 11.2043L11.7596 11.3668L9.67323 13.4531ZM9.67323 12.7424V12.311L11.054 10.9302L11.323 11.0977L9.67323 12.7424ZM9.67323 12.0318V11.6003L10.6123 10.6612L10.8763 10.8236L9.67323 12.0318ZM9.67323 11.3211V10.8947L10.1758 10.3921L10.4398 10.5546L9.67323 11.3211ZM9.67323 10.6104V10.1789L9.73415 10.118L9.99811 10.2855L9.67323 10.6104ZM9.27728 12.4277L6.66299 15.042L6.39902 14.8796L9.27728 12.0013V12.4277ZM9.27728 12.712V13.1384L7.10463 15.3111L6.84066 15.1486L9.27728 12.712ZM9.27728 18.8188L6.11982 21.9762L5.86093 21.8138L9.27728 18.3924V18.8188ZM9.27728 19.1081V19.5345L6.56146 22.2453L6.29749 22.0879L9.27728 19.1081ZM9.27728 19.8188V20.2401L7.0031 22.5194L6.73913 22.3569L9.27728 19.8188ZM9.79506 24.6971L9.67323 24.819V24.6261L9.79506 24.6971ZM10.4144 25.0778L10.6733 25.2403L9.67323 26.2403V25.8139L10.4144 25.0778ZM10.8509 25.3469L11.1149 25.5093L9.67323 26.951V26.5246L10.8509 25.3469ZM11.2926 25.6159L11.5565 25.7784L9.67323 27.6617V27.2353L11.2926 25.6159ZM11.7342 25.8901L11.9982 26.0525L9.67323 28.3724V27.951L11.7342 25.8901ZM12.1758 26.1591L12.4347 26.3215L9.67323 29.083V28.6566L12.1758 26.1591ZM14.379 27.5094L14.6429 27.6718L13.9576 28.3521V27.9256L14.379 27.5094ZM14.8155 27.7784L15.0795 27.9409L13.9576 29.0627V28.6313L14.8155 27.7784ZM15.6988 28.3165L15.9628 28.479L13.9576 30.4841V30.0577L15.6988 28.3165ZM13.9576 30.7633L16.1404 28.5906L16.3993 28.748L13.9576 31.1948V30.7633ZM16.577 28.8546L16.846 29.0221L13.9576 31.9055V31.479L16.577 28.8546ZM9.27728 11.717L6.22643 14.7679L5.96246 14.6054L9.27728 11.2906V11.717ZM9.27728 18.1132L5.68326 21.7072L5.4193 21.5447L9.27728 17.6817V18.1132ZM9.67323 29.3724L12.6124 26.4281L12.8764 26.5906L9.67323 29.7937V29.3724ZM13.9576 32.1897L17.0186 29.1287L17.2826 29.2912L13.9576 32.6161V32.1897ZM6.2112 7.9555L6.48024 8.12302L5.39391 9.20934V8.77786L6.2112 7.9555ZM6.65284 8.22962L6.92188 8.39206L5.39391 9.92002V9.48854L6.65284 8.22962ZM7.09447 8.49866L7.35844 8.6611L5.39391 10.6307V10.1992L7.09447 8.49866ZM7.53611 8.77278L7.80008 8.93015L5.39391 11.3363V10.9099L7.53611 8.77278ZM7.97267 9.04183L8.23664 9.20427L5.39391 12.0521V11.6206L7.97267 9.04183ZM8.41431 9.31087L8.68335 9.47331L5.39391 12.7577V12.3313L8.41431 9.31087ZM8.85595 9.57991L9.11992 9.74235L5.39391 13.4684V13.0419L8.85595 9.57991ZM9.27728 11.0064L5.78479 14.4988L5.52082 14.3364L9.27728 10.5749V11.0064ZM6.37872 15.3314L5.39391 16.3111V15.8847L6.10967 15.1638L6.37872 15.3314ZM6.55131 15.438L6.81528 15.6004L5.39391 17.0218V16.5954L6.55131 15.438ZM6.99295 15.707L7.25184 15.8694L5.39391 17.7324V17.301L6.99295 15.707ZM7.42951 15.976L7.69348 16.1385L5.39391 18.4431V18.0116L7.42951 15.976ZM7.87115 16.2502L8.13511 16.4126L5.39391 19.1538V18.7223L7.87115 16.2502ZM8.31278 16.5192L8.57675 16.6817L5.39391 19.8645V19.4381L8.31278 16.5192ZM8.74935 16.7883L9.01331 16.9507L5.39391 20.5752V20.1488L8.74935 16.7883ZM9.19098 17.0573L9.27728 17.1131V17.4025L5.39391 21.2858V20.8594L9.19098 17.0573ZM6.27211 22.5346L5.39899 23.4179V22.9864L6.00815 22.3773L6.27211 22.5346ZM6.44978 22.6463L6.71375 22.8087L5.39391 24.1286V23.7022L6.44978 22.6463ZM6.89142 22.9153L7.15539 23.0778L5.39391 24.8393V24.4128L6.89142 22.9153ZM7.32798 23.1844L7.59195 23.3468L5.39391 25.5499V25.1185L7.32798 23.1844ZM7.76962 23.4585L8.03359 23.6209L5.39391 26.2606V25.8342L7.76962 23.4585ZM8.21126 23.7275L8.47523 23.89L5.39391 26.9713V26.5449L8.21126 23.7275ZM8.64782 23.9966L8.91179 24.159L5.39899 27.682V27.2505L8.64782 23.9966ZM9.08438 24.2656L9.27728 24.3824V24.5093L5.39391 28.3927V27.9612L9.08438 24.2656ZM9.67323 30.0729L13.054 26.6972L13.318 26.8596L9.67323 30.5044V30.0729ZM13.4957 26.9662L13.5617 27.0068V27.3266L9.67323 31.2202V30.7887L13.4957 26.9662ZM13.9576 32.9004L17.4603 29.3978L17.7242 29.5602L13.9576 33.3268V32.9004ZM18.242 15.1385L24.496 13.5496V20.4077L18.242 21.9965V15.1385ZM18.0796 14.773L14.2673 12.4328L20.3791 10.8794L24.1914 13.2145L18.0796 14.773ZM9.27728 9.86926V10.2906L5.39391 14.179V13.7526L9.27728 9.86926ZM5.49544 14.7882L5.39899 14.8897V14.7273L5.49544 14.7882ZM5.67311 14.8948L5.93708 15.0572L5.39391 15.6004V15.174L5.67311 14.8948ZM5.57158 22.1082L5.83048 22.2656L5.39391 22.7072V22.2757L5.57158 22.1082ZM5.39391 28.6719L9.27728 24.7885V25.2149L5.58174 28.9104L5.39899 28.7988V28.6719H5.39391ZM9.27728 25.4992V25.9307L6.02337 29.1846L5.75433 29.0221L9.27728 25.4992ZM9.27728 26.2149V26.6363L6.45994 29.4536L6.19597 29.2912L9.27728 26.2149ZM9.27728 26.9205V27.3469L6.90157 29.7227L6.63761 29.5602L9.27728 26.9205ZM9.27728 27.6312V28.0627L7.34321 29.9968L7.07417 29.8293L9.27728 27.6312ZM9.27728 28.347V28.7683L7.77977 30.2658L7.51581 30.1034L9.27728 28.347ZM9.27728 29.0526V29.479L8.22649 30.5349L7.95744 30.3724L9.27728 29.0526ZM9.27728 29.7683V30.1897L8.66305 30.8039L8.39908 30.6465L9.27728 29.7683ZM9.27728 30.4739V30.9004L9.10469 31.078L8.83564 30.9156L9.27728 30.4739ZM13.5617 27.6109V28.0373L9.98288 31.6161L9.71892 31.4537L13.5617 27.6109ZM13.5617 28.3216V28.748L10.4245 31.8852L10.1606 31.7227L13.5617 28.3216ZM13.5617 29.0323V29.4587L10.8662 32.1593L10.5971 31.9918L13.5617 29.0323ZM13.5617 29.743V30.1694L11.3078 32.4283L11.0438 32.2659L13.5617 29.743ZM13.5617 30.4536V30.88L11.7444 32.6974L11.4804 32.5349L13.5617 30.4536ZM13.5617 31.1643V31.5907L12.186 32.9715L11.922 32.804L13.5617 31.1643ZM13.5617 31.875V32.3014L12.6276 33.2405L12.3637 33.0781L13.5617 31.875ZM13.5617 32.5857V33.0121L13.0642 33.5096L12.8002 33.3471L13.5617 32.5857ZM13.5617 33.2964V33.7279L13.5058 33.7786L13.2419 33.6162L13.5617 33.2964ZM17.8461 29.7277V30.1541L13.9576 34.0375V33.6111L17.8461 29.7277ZM17.8461 30.4333V30.8597L14.3891 34.3218L14.1201 34.1593L17.8461 30.4333ZM17.8461 31.144V31.5704L14.8307 34.5908L14.5668 34.4284L17.8461 31.144ZM17.8461 31.8547V32.2811L15.2673 34.8599L15.0033 34.6974L17.8461 31.8547ZM17.8461 32.5654V32.9918L15.714 35.134L15.4399 34.9665L17.8461 32.5654ZM17.8461 33.2761V33.7025L16.1506 35.398L15.8866 35.2406L17.8461 33.2761ZM17.8461 33.9867V34.4132L16.5922 35.6721L16.3232 35.5096L17.8461 33.9867ZM17.8461 34.6974V35.1238L17.0339 35.9411L16.7648 35.7787L17.8461 34.6974ZM17.8461 35.4081V35.8345L17.4704 36.2102L17.2065 36.0477L17.8461 35.4081ZM17.8461 36.1188V36.4386L17.6481 36.3168L17.8461 36.1188ZM18.242 22.4077L24.496 20.8188V27.6769L18.242 29.2658V22.4077ZM24.897 20.3061V13.448L31.1561 11.8592V18.7172L24.897 20.3061ZM24.7295 13.0775L20.9172 10.7424L27.0342 9.18904L30.8465 11.5241L24.7295 13.0775ZM18.242 29.677L24.496 28.0881V34.9462L18.242 36.5401V29.677ZM37.8061 31.5653L31.5521 33.1542V26.2962L37.8061 24.7073V31.5653ZM37.8061 24.2961L31.5521 25.885V19.0269L37.8061 17.438V24.2961ZM37.8061 17.0268L31.5521 18.6157V11.7576L37.8061 10.1637V17.0268ZM28.9276 4.57976L22.8158 6.13311L19.0035 3.79801L25.1255 2.24467L28.9276 4.57976Z" fill="black"/>
</svg>