<?xml version="1.0" ?>
<svg xmlns="http://www.w3.org/2000/svg" viewBox="0 0 149.725 149.725">
	<style type="text/css">.st0{fill:#00a677}</style>
	<g id="g12177" transform="translate(-382.537 -153.837)">
		<g id="g12175">
			<path class="st0" d="M 528.7,300.0 C 524.0,304.7 516.3,304.8 511.6,300.0 L 483.7,272.1 L 483.9,291.5 C 484.1,299.1 478.8,303.5 472.1,303.5 C 465.3,303.5 460.0,298.2 460.0,291.5 L 460.0,267.4 C 460.0,262.1 463.2,257.9 467.6,256.2 C 475.6,253.1 481.8,246.8 484.9,238.9 C 486.5,234.6 490.8,231.3 496.1,231.3 L 520.2,231.3 C 526.8,231.3 532.2,236.6 532.2,243.5 C 532.2,250.1 527.8,255.5 520.2,255.3 L 500.8,255.1 L 528.7,283.0 C 533.5,287.6 533.4,295.3 528.7,300.0" id="path12167" fill="#00a677"/>
			<path class="st0" d="M 528.7,157.4 C 533.4,162.1 533.5,169.8 528.7,174.5 L 500.8,202.4 L 520.2,202.2 C 527.8,202.0 532.2,207.3 532.2,214.0 C 532.2,220.8 526.9,226.1 520.2,226.1 L 496.1,226.1 C 490.8,226.1 486.6,222.9 484.9,218.5 C 481.8,210.5 475.6,204.3 467.6,201.2 C 463.3,199.6 460.0,195.3 460.0,190.0 L 460.0,165.9 C 460.0,159.3 465.3,153.9 472.2,153.9 C 478.8,153.9 484.2,158.3 484.0,165.9 L 483.8,185.3 L 511.7,157.4 C 516.3,152.6 524.0,152.7 528.7,157.4 L 528.7,157.4" id="path12169" fill="#00a677"/>
			<path class="st0" d="M 386.1,157.4 C 390.8,152.7 398.5,152.6 403.2,157.4 L 431.1,185.3 L 430.9,165.9 C 430.7,158.3 436.0,153.9 442.7,153.9 C 449.5,153.9 454.8,159.2 454.8,165.9 L 454.8,190.0 C 454.8,195.3 451.6,199.5 447.2,201.2 C 439.2,204.3 433.0,210.6 429.9,218.5 C 428.3,222.8 424.0,226.1 418.7,226.1 L 394.6,226.1 C 388.0,226.1 382.6,220.8 382.6,214.0 C 382.6,207.3 387.0,202.0 394.6,202.2 L 414.0,202.4 L 386.1,174.5 C 381.3,169.7 381.4,162.0 386.1,157.4 L 386.1,157.4" id="path12171" fill="#00a677"/>
			<path class="st0" d="M 386.1,300.0 C 381.4,295.3 381.3,287.6 386.1,282.9 L 414.0,255.0 L 394.6,255.2 C 387.0,255.4 382.6,250.1 382.6,243.4 C 382.6,236.6 387.9,231.3 394.6,231.3 L 418.7,231.3 C 424.0,231.3 428.2,234.5 429.9,238.9 C 433.0,246.9 439.3,253.1 447.2,256.2 C 451.5,257.8 454.8,262.1 454.8,267.4 L 454.8,291.5 C 454.8,298.1 449.5,303.5 442.7,303.5 C 436.1,303.5 430.7,299.1 430.9,291.5 L 431.1,272.1 L 403.2,300.0 C 398.4,304.7 390.7,304.7 386.1,300.0" id="path12173" fill="#00a677"/>
		</g>
	</g>
</svg>