<?xml version="1.0" ?>
<svg xmlns="http://www.w3.org/2000/svg" viewBox="0 0 119.68 21.13">
	<defs>
		<style>.cls-1{fill:#110f33;}.cls-2{fill:#4122c4;}</style>
	</defs>
	<polygon class="cls-1" points="15.61 15.32 14.8 15.95 16.13 15.86 15.61 15.32"/>
	<path class="cls-1" d="M17.73,17.49l-2.11-2.23-.44,.35c-1.24,1-2.72,1.68-4.49,1.68-3.76,0-6.57-3.11-6.57-6.77S6.91,3.68,10.67,3.68c1.41,.01,2.79,.45,3.93,1.27l.87,.69,.08,.08,2.09-2.09,.08-.08c.21-.2,.24-.54,.04-.76l-.06-.06C15.7,.95,13.55,.01,10.59,.01,4.75,0,.01,4.73,0,10.57v.04c0,5.86,4.72,10.53,10.59,10.53,2.61,0,5.13-.91,7.12-2.85,.19-.21,.25-.59,.01-.79Z"/>
	<path class="cls-1" d="M21.61,.86c0-.3,.25-.55,.55-.55h3.25V17.31h7.48c.3,0,.55,.24,.55,.54h0v2.42c0,.3-.25,.55-.55,.55h-11.3V.86h.01Z"/>
	<path class="cls-1" d="M58.76,.53c.01-.3,.25-.53,.55-.53h.73l12.21,12.96h.03V.84c0-.3,.25-.55,.55-.55h3.25V20.59c-.01,.3-.25,.53-.55,.53h-.71l-12.26-13.47h-.03v13.16h-3.78V.53Z"/>
	<path class="cls-1" d="M101.92,.86c0-.3,.23-.54,.53-.55h6.95c5.66,0,10.29,4.6,10.29,10.24s-4.61,10.29-10.29,10.29h-7.48V.86Zm7.12,16.39c3.81,0,6.59-2.87,6.59-6.72s-2.79-6.68-6.59-6.68h-3.34v13.4h3.34Z"/>
	<path class="cls-1" d="M55.42,20.07L46.39,.34C46.31,.13,46.11,0,45.88,.01h-.29c-.21,0-.42,.13-.5,.33l-3.29,7.12-6.03,13.09c-.06,.15-.1,.28-.1,.28,0,0,.55,.03,.79,.03h2.55c.38,.01,.72-.23,.84-.59l1.44-3.16h8.76l1.44,3.16c.2,.42,.42,.59,.84,.59h2.55c.47-.03,.71-.4,.53-.78Zm-12.67-6.25l2.87-6.46h.09l2.94,6.46h-5.9Z"/>
	<path class="cls-2" d="M97.36,1.21c0-.4-.33-.73-.73-.73h-15.13c-.4,0-.73,.33-.73,.73v2.95l15.85-.06c.4,0,.73-.33,.73-.73V1.21Z"/>
	<path class="cls-2" d="M97.36,9.51c0-.4-.33-.73-.73-.73h-15.85v3.62h15.85c.4,0,.73-.33,.73-.73v-2.16Z"/>
	<path class="cls-2" d="M97.36,17.79c0-.4-.33-.73-.73-.73h-15.85v2.89c0,.4,.33,.73,.73,.73h15.13c.4,0,.73-.33,.73-.73v-2.16Z"/>
</svg>