<svg xmlns="http://www.w3.org/2000/svg" viewBox="0 0 153 18"><defs><clipPath id="a"><path d="M0 17.486h152.29V0H0z"/></clipPath></defs><path fill="#233a4f" d="M8.371.35c1.854 0 3.684.558 5.026 1.553l-.511.718c-1.225-.926-2.848-1.456-4.515-1.456-4.217 0-7.093 2.962-7.093 7.366 0 4.659 2.806 7.788 7.093 7.788 1.854 0 3.637-.649 4.819-1.737l.581.624c-1.369 1.252-3.316 1.924-5.426 1.924C3.526 17.13.35 13.7.35 8.531.35 3.642 3.62.35 8.371.35z"/><path fill="#233a4f" d="M8.352 17.225C3.518 17.225.27 13.734.27 8.539.27 3.593 3.528.27 8.378.27c1.881 0 3.732.572 5.079 1.57l.068.051-.612.861-.072-.054c-1.212-.914-2.838-1.438-4.463-1.438-4.19 0-7.005 2.925-7.005 7.279 0 4.605 2.815 7.699 7.005 7.699 1.815 0 3.595-.64 4.76-1.713l.064-.059.7.753-.066.06c-1.372 1.255-3.319 1.946-5.484 1.946m.02-16.78C3.631.445.445 3.697.445 8.539c0 5.09 3.176 8.511 7.901 8.511 2.085 0 3.962-.653 5.297-1.842l-.46-.496c-1.197 1.066-2.988 1.701-4.811 1.701-4.292 0-7.175-3.164-7.175-7.874 0-4.459 2.883-7.454 7.175-7.454 1.629 0 3.26.516 4.493 1.42l.408-.575C11.963.985 10.183.445 8.372.445"/><path fill="#233a4f" d="M8.35 17.401c-4.941 0-8.26-3.563-8.26-8.864 0-2.465.797-4.578 2.305-6.111C3.899.898 5.967.09 8.376.09c1.918 0 3.808.585 5.184 1.605l.21.155-.821 1.153-.218-.165c-1.181-.891-2.768-1.402-4.355-1.402-4.083 0-6.827 2.853-6.827 7.101 0 4.569 2.68 7.521 6.827 7.521 1.772 0 3.506-.623 4.639-1.666l.195-.179.942 1.014-.197.181c-1.405 1.285-3.396 1.993-5.605 1.993M8.382.621C3.74.621.621 3.802.621 8.537c0 5.062 3.036 8.333 7.735 8.333 1.974 0 3.755-.594 5.049-1.678l-.22-.235c-1.226 1.026-3 1.633-4.803 1.633-4.404 0-7.364-3.237-7.364-8.053 0-4.565 2.96-7.632 7.364-7.632 1.63 0 3.2.477 4.458 1.349l.202-.283c-1.267-.86-2.949-1.35-4.66-1.35"/><path fill="#233a4f" d="M8.347 17.485C3.354 17.485 0 13.888 0 8.534c0-2.488.806-4.622 2.33-6.172C3.851.817 5.941 0 8.373 0c1.937 0 3.845.591 5.236 1.622l.279.206-.922 1.296-.29-.219c-1.166-.88-2.734-1.384-4.303-1.384-4.031 0-6.739 2.818-6.739 7.013 0 4.516 2.645 7.434 6.739 7.434 1.751 0 3.462-.614 4.58-1.643l.259-.238 1.062 1.143-.263.24c-1.42 1.3-3.432 2.015-5.664 2.015M8.379.175c-2.386 0-4.434.8-5.923 2.311C.964 4.003.175 6.096.175 8.54c0 5.252 3.286 8.781 8.178 8.781 2.19 0 4.16-.7 5.55-1.97l.133-.122-.825-.886-.13.12c-1.15 1.059-2.908 1.69-4.702 1.69-4.203 0-6.919-2.988-6.919-7.613 0-4.303 2.78-7.192 6.919-7.192 1.607 0 3.215.517 4.411 1.42l.146.11.72-1.009-.14-.104C12.153.754 10.28.175 8.379.175m-.032 16.779c-4.748 0-7.816-3.305-7.816-8.42C.531 3.747 3.683.531 8.373.531c1.714 0 3.428.498 4.705 1.365l.074.05-.303.427-.071-.049C11.539 1.464 9.975.99 8.373.99c-4.349 0-7.27 3.032-7.27 7.544 0 4.764 2.921 7.965 7.27 7.965 1.764 0 3.538-.602 4.744-1.611l.064-.054.338.364-.071.059c-1.307 1.094-3.119 1.697-5.101 1.697M8.373.706C3.787.706.706 3.852.706 8.534c0 5.009 2.999 8.245 7.641 8.245 1.906 0 3.648-.566 4.918-1.598l-.1-.106c-1.235 1.002-3.019 1.599-4.792 1.599-4.453 0-7.445-3.271-7.445-8.14C.928 3.917 3.92.815 8.373.815c1.606 0 3.177.467 4.433 1.316l.099-.14C11.665 1.173 10.019.706 8.373.706M26.95.85h.985v14.906h10.62v.884H26.95z"/><path fill="#233a4f" d="M38.641 16.745H26.86V.77h1.16v14.915h10.621zm-11.606-.195h11.431v-.709H27.845V.945h-.81z"/><path fill="#233a4f" d="M38.843 16.938H26.66V.57h1.563v14.906h10.62zm-11.605-.578h11.027v-.305h-10.62V1.148h-.407z"/><path fill="#233a4f" d="M38.929 17.023H26.57V.48h1.738v14.906h10.621zm-12.184-.175h11.999v-1.287H28.132V.655h-1.387zm11.606-.413H27.148V1.058h.581v14.897h10.622zm-11.028-.165h10.863v-.13h-10.63V1.233h-.233zM75.72.83h7.039c4.189 0 5.651 2.285 5.651 4.761 0 2.091-1.186 4.099-4.164 4.656l3.359 6.391h-1.134l-3.207-6.265h-6.562v6.265h-.982zm6.988 8.711c3.458 0 4.716-1.983 4.716-3.95 0-2.044-1.207-3.9-4.665-3.9h-6.057v7.85z"/><path fill="#233a4f" d="M87.748 16.723h-1.333l-.024-.047-3.182-6.218h-6.422v6.265H75.63V.74h7.127c5.179 0 5.738 3.39 5.738 4.848 0 2.438-1.537 4.194-4.119 4.719zm-1.226-.175h.936l-3.346-6.368.116-.022c3.694-.69 4.091-3.426 4.091-4.57 0-2.97-2.027-4.673-5.562-4.673h-6.952v15.633h.807v-6.265h6.704l.024.048zm-9.91-6.916v-8.03h6.145c4.289 0 4.752 2.79 4.752 3.989 0 2.979-2.481 4.04-4.804 4.04zm.175-.186h5.912c4.292 0 4.625-2.955 4.625-3.86 0-2.42-1.666-3.81-4.573-3.81h-5.964z"/><path fill="#233a4f" d="M88.085 16.927h-1.79l-3.207-6.265H76.99v6.265h-1.56V.54h7.329c2.011 0 3.562.279 4.607 1.399.859.921 1.332 2.218 1.332 3.651 0 1.951-1.062 4.126-4.019 4.857zm-1.439-.579h.478l-3.318-6.314.387-.073c2.895-.54 3.926-2.473 3.926-4.371 0-1.117-.386-4.472-5.36-4.472h-6.751v15.23h.404v-6.265h7.027zM76.412 9.829V1.401h6.347c3.652 0 4.954 2.024 4.954 4.189 0 1.169-.404 1.964-1.138 2.764-.886.965-2.223 1.475-3.868 1.475zm.578-.578h5.717c3.268 0 4.428-1.839 4.428-3.661 0-.915-.316-3.61-4.376-3.61H76.99z"/><path fill="#233a4f" d="M88.227 17.012h-1.989l-.024-.048-3.182-6.217h-5.957v6.265H75.34V.45h7.416c1.735 0 3.501.173 4.671 1.427.875.938 1.356 2.255 1.356 3.71 0 .914-.289 3.947-3.977 4.915zm-1.882-.175h1.593l-3.39-6.45.108-.027c3.667-.906 3.95-3.882 3.95-4.773 0-1.411-.463-2.686-1.307-3.59-.91-.974-2.225-1.372-4.543-1.372h-7.24v16.212H76.9v-6.265h6.239l.025.047zm.911-.413h-.675l-.025-.048-3.178-6.213h-6.881v6.26h-.579V1.029h6.832c2.16 0 3.71.623 4.612 1.85.725.986.833 2.118.833 2.705 0 1.115-.39 3.782-3.996 4.455l-.27.05zm-.56-.165h.28l-3.305-6.292.503-.094c3.48-.65 3.854-3.213 3.854-4.286 0-1.318-.513-4.383-5.272-4.383h-6.662v15.055h.229V9.994h7.167l.025.047zM76.323 9.914V1.311h6.439c3.159 0 5.044 1.599 5.044 4.276 0 1.107-.336 1.925-1.16 2.823-.905.984-2.265 1.504-3.936 1.504zm.175-.175h6.207c1.619 0 2.933-.5 3.802-1.447.792-.863 1.114-1.646 1.114-2.705 0-1.233-.474-4.101-4.865-4.101h-6.258zm.403-.403V1.89h5.855c4.028 0 4.462 2.586 4.462 3.697 0 .88-.325 3.749-4.513 3.749zm.175-.185H82.7c4.021 0 4.334-2.731 4.334-3.569 0-1.057-.418-3.517-4.283-3.517h-5.674z"/><g clip-path="url(#a)"><path fill="#233a4f" d="M101.13 16.625h.982V.84h-.982z"/></g><g clip-path="url(#a)"><path fill="#233a4f" d="M101.04.75h1.157v15.96h-1.157zm.176 15.785h.807V.925h-.807z"/></g><g clip-path="url(#a)"><path fill="#233a4f" d="M100.84.55h1.56v16.363h-1.56zm.578 15.775h.404V1.129h-.404z"/></g><g clip-path="url(#a)"><path fill="#233a4f" d="M100.75.46h1.735v16.538h-1.735zm.174 16.353h1.385V.635h-1.385zm.403-15.774h.578V16.42h-.578zm.176 15.216h.228V1.214h-.228z"/></g><g clip-path="url(#a)"><path fill="#233a4f" d="M120.602 1.752h-6.762V.84h14.536v.912h-6.789v14.896h-.985z"/></g><g clip-path="url(#a)"><path fill="#233a4f" d="M121.673 16.733h-1.16V1.837h-6.763V.75h14.711v1.087h-6.788zm-.985-.165h.81V1.662h6.788V.925h-14.36v.737h6.762z"/></g><g clip-path="url(#a)"><path fill="#233a4f" d="M121.875 16.936h-1.563V2.04h-6.762V.55h15.114v1.49h-6.789zm-.985-.578h.407V1.462h6.788v-.334h-13.957v.334h6.762z"/></g><g clip-path="url(#a)"><path fill="#233a4f" d="M121.971 17.021h-1.739V2.125h-6.762V.46h15.289v1.665h-6.788zm-1.569-.175h1.389V1.95h6.783V.635h-14.93V1.95h6.758zm.991-.413h-.582V1.546h-6.762v-.508h14.132v.508h-6.788zm-.402-.155h.232V1.372h6.793v-.159h-13.792v.16h6.767z"/></g><g clip-path="url(#a)"><path fill="#233a4f" d="M144.556 10.288L138.5.86h1.211l5.324 8.519h.051l5.31-8.519h1.211l-6.044 9.428v6.333h-1.007z"/></g><g clip-path="url(#a)"><path fill="#233a4f" d="M145.65 16.706h-1.182v-6.395L138.34.77h1.419l.026.041 5.275 8.441L150.347.77h1.42l-.086.134-6.031 9.407zm-1.007-.185h.832v-6.268l.014-.021 5.958-9.287h-1.003l-5.309 8.513h-.149l-.026-.041-5.298-8.472h-1.002l5.983 9.308z"/></g><g clip-path="url(#a)"><path fill="#233a4f" d="M145.85 16.909h-1.585v-6.538L137.97.57h1.899l5.19 8.301L150.234.57h1.899l-6.283 9.801zm-1.007-.578h.429v-6.129l5.805-9.054h-.522l-5.31 8.519h-.372l-5.325-8.519h-.522l5.817 9.054z"/></g><g clip-path="url(#a)"><path fill="#233a4f" d="M145.937 16.994h-1.76v-6.6L137.81.48h2.107l.027.041 5.115 8.183L150.185.48h2.107l-.086.134-6.269 9.78zm-1.585-.175h1.41v-6.476l.014-.021 6.196-9.667h-1.69l-5.223 8.379-.075-.119-5.163-8.26h-1.691l6.222 9.688zm1.007-.403h-.604v-6.19l-5.89-9.168h.732l.025.041 5.299 8.478h.275l5.31-8.519h.731l-.086.135-5.792 9.033zm-.429-.175h.254v-6.067l.014-.021 5.719-8.92h-.314l-5.31 8.519h-.469l-.026-.041-5.299-8.478h-.314l5.745 8.94z"/></g><g clip-path="url(#a)"><path fill="#233a4f" d="M58.9 11.942l2.009-3.824L56.861.42 48.13 17.056h4.022l4.717-8.979z"/></g><g clip-path="url(#a)"><path fill="#00a2f7" d="M62.47 11.1l-2.01 3.826 1.123 2.136h4.022z"/></g></svg>