<svg viewBox="0 0 61 51" fill="none" xmlns="http://www.w3.org/2000/svg">
<g>
<path d="M59.0748 9.6864L40.8312 14.642C41.5692 18.0648 41.9582 21.6938 41.9582 25.5014C41.9582 29.3089 41.5662 32.9349 40.8312 36.3607L59.0748 41.3164C60.2417 36.373 60.8541 30.9557 60.8541 25.5045C60.8541 20.0533 60.2417 14.6297 59.0748 9.6864Z" fill="#00D7B8"/>
<path d="M12.8805 4.56512L0.854126 25.4985L19.8875 11.2166C18.0622 8.48032 15.6857 6.22723 12.8805 4.56512Z" fill="#5F3AD7"/>
<path d="M12.8805 46.4358L0.854126 25.4994L19.8875 39.7811C18.0622 42.5206 15.6857 44.7737 12.8805 46.4358Z" fill="#5F3AD7"/>
<path d="M34.8213 0.0144043L0.854126 25.5008L40.833 14.6415C39.6631 9.2086 37.6142 4.28985 34.8213 0.0144043Z" fill="#0280FF"/>
<path d="M34.8213 50.9851L0.854126 25.4987L40.833 36.3582C39.6631 41.7941 37.6142 46.7128 34.8213 50.9851Z" fill="#0280FF"/>
<path d="M41.9631 25.4986C41.9631 21.691 41.5712 18.065 40.8361 14.6391L0.854126 25.4986L40.833 36.3581C41.5742 32.929 41.9631 29.3123 41.9631 25.4986Z" fill="white"/>
</g>
</svg>
