<svg xmlns="http://www.w3.org/2000/svg" xmlns:xlink="http://www.w3.org/1999/xlink" fill="none" viewBox="0 0 797 752">
    <path fill="#00AEEF" fill-rule="evenodd" d="M375.805 752c207.552 0 375.806-168.341 375.806-376S583.357 0 375.805 0C168.254 0 0 168.341 0 376s168.254 376 375.805 376Z" clip-rule="evenodd" />
    <mask id="a" width="752" height="752" x="0" y="0" maskUnits="userSpaceOnUse" style="mask-type:luminance">
        <path fill="#fff" fill-rule="evenodd" d="M375.805 752c207.552 0 375.806-168.341 375.806-376S583.357 0 375.805 0C168.254 0 0 168.341 0 376s168.254 376 375.805 376Z" clip-rule="evenodd" />
    </mask>
    <g mask="url(#a)">
        <path fill="#231F20" fill-rule="evenodd" stroke="#231F20" stroke-width="3.482" d="M128.947 352.357s-91.841 62.603-172.54-22.983c0 0-34.561-26.89-1.727-19.007 0 0 37.477-50.203 144.334 5.965 0-.003 56.747 21.168 29.933 36.025Z" clip-rule="evenodd" />
        <path fill="#231F20" fill-rule="evenodd" stroke="#231F20" stroke-width="3.482" d="M137.354 361.688S118.095 465.12 25.316 449.584c0 0-42.83-10.959-24.844-25.061 0 0 65.385-78.533 93.013-72.973 0 0 25.89 8.477 37.078-.292l6.791 10.43Z" clip-rule="evenodd" />
        <path fill="#9AD63B" fill-rule="evenodd" d="M326.117 118.4S271.84 40.558 192.984 45.834c-45.795 3.061-11.711 32.68-1.45 38.293 29.998 16.447 38.774 52.678 35.037 87.752-3.74 35.074 99.546-53.479 99.546-53.479Z" clip-rule="evenodd" />
        <path fill="url(#b)" fill-rule="evenodd" d="M327.23 911.356c-17.73 10.883-38.046 20.653-59.61 26.029-.631.157-1.255.31-1.888.459a83.57 83.57 0 0 0 9.919-1.872c17.082-4.259 34.993-13.74 51.579-24.616Zm328.445-144.493c-49.419 26.377-131.461 66.744-199.666 83.749-23.427 5.841-45.22 8.927-63.501 7.742 0 0-3.732 4.113-10.441 10.508 5.212-4.414 8.991-7.55 10.903-8.652 24.592-1.178 49.447-5.33 73.745-11.388 77.989-19.445 150.159-58.523 188.96-81.959Zm44.21-24.617s-2.314 1.37-6.571 3.817a1388.89 1388.89 0 0 0 30.095-7.125c3.814-.951 7.514-1.894 11.086-2.826-10.453 2.13-21.942 4.18-34.61 6.134ZM347.571 454.327c14.272-3.558 29.567-7.721 44.929-12.665 62.823-20.201 126.797-47.496 126.797-47.496s29.33-5.243 37.096 26.273c5.506 22.298-3.391 127.75-105.749 155.933a365.376 365.376 0 0 1-8.407 2.205c-98.101 24.46-170.095-2.511-187.939-74.996 0 0-12.341-22.8 29.079-34.208 1.494-.411 3.125-.835 4.882-1.273 6.834-1.704 15.588-3.632 25.675-5.893 10.081-2.261 21.49-4.851 33.637-7.88Zm-13.897-351.129c-84.626 21.103-189.8 63.842-217.498 129.893 0 0-13.627 30.852-7.069 53.974 72.73 256.486 89.26 274.65 140.635 450.974 12.904 44.29 22.126 73.484 18.751 85.121-23.139 79.779-56.799 101.493-28.415 112.178 7.759 2.921 16.189 3.596 24.985 2.587 8.299-3.114 107.845-42.064 115.859-122.074 0 0 37.856 2.306 93.807-11.644 52.841-13.175 121.818-40.85 190.286-98.661 0 0 87.256-1.732 136.071-13.903 17.99-4.485 30.752-10.385 32.014-18.139 0 0 3.609 4.799 2.294 12.14 2.13-8.669-1.588-17.44-6-27.007-4.104-8.902-123.139-11.912-127.525-19.516-20.904-36.234.174 13.633-46.394-130.531-50.172-155.32-82.109-297.552-104.194-351.425-6.392-15.6-53.828-72.637-125.137-69.452-20.866.936-54.602 6.04-92.47 15.485Z" clip-rule="evenodd" />
        <path fill="#73B230" fill-rule="evenodd" d="m152.326 430.462-8.545-22.155-2.353-7.14s-15.63-42.193-25.344-93.058c0 0 268.72-186.981 434.495-145.831 0 0 16.288 42.293 26.339 73.896 2.161 6.797 10.298 41.305 10.298 41.305s-251.662-80.19-434.89 152.983Z" clip-rule="evenodd" />
        <path fill="#231F20" fill-rule="evenodd" d="M533.145 143.928S251.341 92.814 109.572 305.783c0 0-9.237 32.369 9.728 39.02 0 0-14.447 13.469 8.678 36.458 0 0-8.271 12.781 10.493 22.792 0 0 123.711-195.583 442.03-153.518 0 0 16.083-18.811-9.964-36 0 0 18.641-16.49-13.453-38.091-.005.001 4.479-30.647-23.939-32.516Z" clip-rule="evenodd" />
        <mask id="c" width="572" height="254" x="264" y="685" maskUnits="userSpaceOnUse" style="mask-type:luminance">
            <path fill="#fff" fill-rule="evenodd" d="M265.066 937.924c-.361.135-.549.202-.549.202.407-.093.808-.187 1.215-.282-.221.029-.446.055-.666.08Zm117.005-69.06c-12.204 10.337-32.297 27.706-54.843 42.493 24.254-14.887 43.681-31.857 54.843-42.493Zm303.377-121.047s-10.972 7.685-29.774 19.043c17.087-9.121 30.272-16.568 37.639-20.8-2.578.584-5.196 1.168-7.865 1.757Zm149.95-62.171c-3.874 15.777-27.137 31.213-100.9 50.465a511.207 511.207 0 0 0 21.66-4.879c62.39-15.556 77.132-33.832 79.24-45.586Z" clip-rule="evenodd" />
        </mask>
        <g mask="url(#c)">
            <path fill="url(#d)" d="M0 0h619.19v110.302H0z" transform="scale(1 -1) rotate(14 3960.827 602.076)" />
        </g>
        <mask id="e" width="571" height="265" x="265" y="673" maskUnits="userSpaceOnUse" style="mask-type:luminance">
            <path fill="#fff" fill-rule="evenodd" d="M665.014 705.545c-68.467 57.812-137.445 85.487-190.286 98.661-55.947 13.95-93.806 11.645-93.806 11.645-8.015 80.01-107.561 118.96-115.859 122.074.219-.025.447-.052.666-.08a152.61 152.61 0 0 0 1.888-.459c21.563-5.377 41.877-15.145 59.61-26.029 22.547-14.787 42.639-32.156 54.843-42.493 6.709-6.395 10.441-10.508 10.441-10.508 18.281 1.182 40.075-1.901 63.501-7.742 68.205-17.005 150.247-57.372 199.666-83.749 18.802-11.358 29.774-19.043 29.774-19.043a1437.8 1437.8 0 0 0 7.868-1.758c4.256-2.447 6.571-3.817 6.571-3.817 12.665-1.953 24.157-4.004 34.609-6.134 73.764-19.249 97.027-34.686 100.901-50.465 1.317-7.345-2.294-12.14-2.294-12.14-1.263 7.754-14.024 13.654-32.014 18.139-48.821 12.17-136.079 13.898-136.079 13.898Z" clip-rule="evenodd" />
        </mask>
        <g mask="url(#e)">
            <path fill="url(#f)" d="M0 0h621.954v132.362H0z" transform="scale(1 -1) rotate(14 3960.827 602.076)" />
        </g>
        <path fill="#231F20" fill-rule="evenodd" d="M272.25 399.796c2.267 6.797-1.435 14.346-8.254 16.851-6.802 2.498-14.163-.986-16.413-7.797-2.261-6.805 1.434-14.36 8.253-16.851 6.811-2.509 14.168.991 16.414 7.797ZM468.583 328.201c2.016 6.883 9.254 10.644 16.149 8.401 6.888-2.25 10.843-9.657 8.814-16.544-2.025-6.884-9.267-10.652-16.157-8.399-6.894 2.249-10.838 9.665-8.806 16.542ZM254.304 503.579s-12.341-22.8 29.079-34.207c7.295-2.006 17.873-4.323 30.557-7.166 21.916-4.914 50.121-11.393 78.563-20.544 62.822-20.202 126.796-47.497 126.796-47.497s29.33-5.243 37.096 26.273c5.506 22.298-3.391 127.751-105.749 155.933-102.371 28.153-177.996 1.744-196.342-72.792Z" clip-rule="evenodd" />
        <mask id="g" width="306" height="195" x="252" y="393" maskUnits="userSpaceOnUse" style="mask-type:luminance">
            <path fill="#fff" fill-rule="evenodd" d="M254.304 503.579s-12.341-22.8 29.079-34.207c7.295-2.006 17.873-4.323 30.557-7.166 21.916-4.914 50.121-11.393 78.563-20.544 62.822-20.202 126.796-47.497 126.796-47.497s29.33-5.243 37.096 26.273c5.506 22.298-3.391 127.751-105.749 155.933-102.371 28.153-177.996 1.744-196.342-72.792Z" clip-rule="evenodd" />
        </mask>
        <g mask="url(#g)">
            <path fill="#FD8C8D" fill-rule="evenodd" d="M309.174 562.14s8.923-43.886 51.179-52.941c47.949-10.274 61.921 9.686 61.921 9.686s4.959-27.101 39.77-39.235c19.032-6.635 44.61-14.539 79.532 9.528 0 0-.452 48.26-59.309 74.821l-50.355 19.42-92.141-.076-30.597-21.203Z" clip-rule="evenodd" />
        </g>
        <mask id="h" width="306" height="195" x="252" y="393" maskUnits="userSpaceOnUse" style="mask-type:luminance">
            <path fill="#fff" fill-rule="evenodd" d="M254.304 503.579s-12.341-22.8 29.079-34.207c7.295-2.006 17.873-4.323 30.557-7.166 21.916-4.914 50.121-11.393 78.563-20.544 62.822-20.202 126.796-47.497 126.796-47.497s29.33-5.243 37.096 26.273c5.506 22.298-3.391 127.751-105.749 155.933-102.371 28.153-177.996 1.744-196.342-72.792Z" clip-rule="evenodd" />
        </mask>
        <g mask="url(#h)">
            <mask id="i" width="233" height="112" x="309" y="472" maskUnits="userSpaceOnUse" style="mask-type:luminance">
                <path fill="#fff" fill-rule="evenodd" d="M309.175 562.14s8.923-43.886 51.178-52.941c47.95-10.274 61.921 9.686 61.921 9.686s4.959-27.101 39.77-39.235c19.033-6.635 44.61-14.539 79.533 9.528 0 0-.452 48.26-59.309 74.821l-50.355 19.42-92.141-.076-30.597-21.203Z" clip-rule="evenodd" />
            </mask>
            <g mask="url(#i)">
                <path fill="#E47F80" fill-rule="evenodd" d="M318.662 539.479a82.19 82.19 0 0 0-5.055 9.661c4.48-.539 9.454-.03 14.922 2.038 10.258 3.878 16.114 10.749 19.318 18.36.059-.249.122-.498.187-.748-1.962-10.882-7.724-21.991-21.937-27.367-2.589-.98-5.067-1.611-7.435-1.944Z" clip-rule="evenodd" />
            </g>
            <mask id="j" width="233" height="112" x="309" y="472" maskUnits="userSpaceOnUse" style="mask-type:luminance">
                <path fill="#fff" fill-rule="evenodd" d="M309.175 562.14s8.923-43.886 51.178-52.941c47.95-10.274 61.921 9.686 61.921 9.686s4.959-27.101 39.77-39.235c19.033-6.635 44.61-14.539 79.533 9.528 0 0-.452 48.26-59.309 74.821l-50.355 19.42-92.141-.076-30.597-21.203Z" clip-rule="evenodd" />
            </mask>
            <g mask="url(#j)">
                <path fill="#E47F80" fill-rule="evenodd" d="M516.504 476.409c-2.961 1.659-5.858 3.974-8.604 7.101-9.93 11.306-9.899 23.688-6.62 34.152.191.098.379.196.566.294-.602-8.056 1.42-16.645 8.486-24.691 4.861-5.535 10.194-8.522 15.513-9.848a29.069 29.069 0 0 1 5.056-.79c-5.003-2.69-9.798-4.721-14.397-6.218Z" clip-rule="evenodd" />
            </g>
            <mask id="k" width="233" height="112" x="309" y="472" maskUnits="userSpaceOnUse" style="mask-type:luminance">
                <path fill="#fff" fill-rule="evenodd" d="M309.174 562.14s8.923-43.886 51.179-52.941c47.949-10.274 61.921 9.686 61.921 9.686s4.959-27.101 39.77-39.235c19.032-6.635 44.61-14.539 79.532 9.528 0 0-.452 48.26-59.309 74.821l-50.355 19.42-92.141-.076-30.597-21.203Z" clip-rule="evenodd" />
            </mask>
            <g mask="url(#k)">
                <path fill="#E47F80" fill-rule="evenodd" d="M379.405 537.966c-20.094 5.01-28.23 18.631-31.372 30.821-.065.25-.128.5-.187.748 1.233 2.937 2.075 5.981 2.621 9.012 3.138-12.191 11.274-25.813 31.367-30.825a63.833 63.833 0 0 1 7.798-1.418c23.075-2.79 36.56 7.806 44.416 20.425a70.307 70.307 0 0 1-.535-6.478c-7.516-13.984-21.262-26.732-46.313-23.704-2.78.337-5.373.815-7.795 1.419Z" clip-rule="evenodd" />
            </g>
            <mask id="l" width="233" height="112" x="309" y="472" maskUnits="userSpaceOnUse" style="mask-type:luminance">
                <path fill="#fff" fill-rule="evenodd" d="M309.175 562.14s8.923-43.886 51.178-52.941c47.95-10.274 61.921 9.686 61.921 9.686s4.959-27.101 39.77-39.235c19.033-6.635 44.61-14.539 79.533 9.528 0 0-.452 48.26-59.309 74.821l-50.355 19.42-92.141-.076-30.597-21.203Z" clip-rule="evenodd" />
            </mask>
            <g mask="url(#l)">
                <path fill="#E47F80" fill-rule="evenodd" d="M468.796 513.967a57.908 57.908 0 0 0-8.601 2.902c-22.523 9.559-27.212 28.127-26.678 43.384.079 2.245.27 4.415.535 6.478a59.662 59.662 0 0 1 1.897 3.277c-.534-15.258 4.153-33.821 26.679-43.384a57.859 57.859 0 0 1 8.6-2.902c12.93-3.224 23.848-.736 32.488 3.697-.946-3.018-1.622-6.194-1.866-9.461l-.566-.294c-8.64-4.432-19.559-6.923-32.488-3.697Z" clip-rule="evenodd" />
            </g>
        </g>
        <mask id="m" width="306" height="195" x="252" y="393" maskUnits="userSpaceOnUse" style="mask-type:luminance">
            <path fill="#fff" fill-rule="evenodd" d="M254.304 503.579s-12.341-22.8 29.079-34.207c7.295-2.006 17.873-4.323 30.557-7.166 21.916-4.914 50.121-11.393 78.563-20.544 62.822-20.202 126.796-47.497 126.796-47.497s29.33-5.243 37.096 26.273c5.506 22.298-3.391 127.751-105.749 155.933-102.371 28.153-177.996 1.744-196.342-72.792Z" clip-rule="evenodd" />
        </mask>
        <g mask="url(#m)">
            <path fill="#fff" fill-rule="evenodd" d="M283.813 574.168s15.228-34.14 44.716-22.99c32.883 12.435 20.532 55.568 20.532 55.568l-65.248-32.578Z" clip-rule="evenodd" />
        </g>
        <mask id="n" width="306" height="195" x="252" y="393" maskUnits="userSpaceOnUse" style="mask-type:luminance">
            <path fill="#fff" fill-rule="evenodd" d="M254.304 503.579s-12.341-22.8 29.079-34.207c7.295-2.006 17.873-4.323 30.557-7.166 21.916-4.914 50.121-11.393 78.563-20.544 62.822-20.202 126.796-47.497 126.796-47.497s29.33-5.243 37.096 26.273c5.506 22.298-3.391 127.751-105.749 155.933-102.371 28.153-177.996 1.744-196.342-72.792Z" clip-rule="evenodd" />
        </mask>
        <g mask="url(#n)">
            <path fill="#fff" fill-rule="evenodd" d="M560.608 492.574s-29.474-22.995-50.276.693c-23.198 26.418 7.96 58.704 7.96 58.704l42.316-59.397Z" clip-rule="evenodd" />
        </g>
        <mask id="o" width="306" height="195" x="252" y="393" maskUnits="userSpaceOnUse" style="mask-type:luminance">
            <path fill="#fff" fill-rule="evenodd" d="M254.304 503.579s-12.341-22.8 29.079-34.207c7.295-2.006 17.873-4.323 30.557-7.166 21.916-4.914 50.121-11.393 78.563-20.544 62.822-20.202 126.796-47.497 126.796-47.497s29.33-5.243 37.096 26.273c5.506 22.298-3.391 127.751-105.749 155.933-102.371 28.153-177.996 1.744-196.342-72.792Z" clip-rule="evenodd" />
        </mask>
        <g mask="url(#o)">
            <path fill="#fff" fill-rule="evenodd" d="M349.068 600.824s-7.65-48.691 40.565-54.52c51.853-6.267 55.271 55.048 55.271 55.048l-95.836-.528Z" clip-rule="evenodd" />
        </g>
        <mask id="p" width="306" height="195" x="252" y="393" maskUnits="userSpaceOnUse" style="mask-type:luminance">
            <path fill="#fff" fill-rule="evenodd" d="M254.304 503.579s-12.341-22.8 29.079-34.207c7.295-2.006 17.873-4.323 30.557-7.166 21.916-4.914 50.121-11.393 78.563-20.544 62.822-20.202 126.796-47.497 126.796-47.497s29.33-5.243 37.096 26.273c5.506 22.298-3.391 127.751-105.749 155.933-102.371 28.153-177.996 1.744-196.342-72.792Z" clip-rule="evenodd" />
        </mask>
        <g mask="url(#p)">
            <path fill="#fff" fill-rule="evenodd" d="M440.897 594.21s-20.538-49.646 21.728-67.585c40.42-17.156 64.039 21.778 64.039 21.778l-43.341 40.41-42.426 5.397Z" clip-rule="evenodd" />
        </g>
        <mask id="q" width="306" height="195" x="252" y="393" maskUnits="userSpaceOnUse" style="mask-type:luminance">
            <path fill="#fff" fill-rule="evenodd" d="M254.304 503.579s-12.341-22.8 29.079-34.207c7.295-2.006 17.873-4.323 30.557-7.166 21.916-4.914 50.121-11.393 78.563-20.544 62.822-20.202 126.796-47.497 126.796-47.497s29.33-5.243 37.096 26.273c5.506 22.298-3.391 127.751-105.749 155.933-102.371 28.153-177.996 1.744-196.342-72.792Z" clip-rule="evenodd" />
        </mask>
        <g mask="url(#q)">
            <path fill="#1F1C1D" fill-rule="evenodd" d="M537.28 452.416c-.662.165-.996.754-.902 1.882.19 2.262 2.642 12.202-.151 28.41 4.309.406 8.379 1.579 11.916 2.98a168.348 168.348 0 0 0 6.227-22.11c-6.582-5.689-14.447-11.821-17.09-11.162Z" clip-rule="evenodd" />
        </g>
        <mask id="r" width="306" height="195" x="252" y="393" maskUnits="userSpaceOnUse" style="mask-type:luminance">
            <path fill="#fff" fill-rule="evenodd" d="M254.304 503.579s-12.341-22.8 29.079-34.207c7.295-2.006 17.873-4.323 30.557-7.166 21.916-4.914 50.121-11.393 78.563-20.544 62.822-20.202 126.796-47.497 126.796-47.497s29.33-5.243 37.096 26.273c5.506 22.298-3.391 127.751-105.749 155.933-102.371 28.153-177.996 1.744-196.342-72.792Z" clip-rule="evenodd" />
        </mask>
        <g mask="url(#r)">
            <path fill="#E5E6E7" fill-rule="evenodd" d="M536.229 482.705c-.951 5.515-2.508 11.756-4.967 18.663-4.961 13.931-9.987 25.016-15.866 34.095a65.586 65.586 0 0 1 1.834 1.68c14.923-15.917 24.711-34.101 30.915-51.459-3.536-1.401-7.606-2.573-11.916-2.979Z" clip-rule="evenodd" />
        </g>
        <mask id="s" width="306" height="195" x="252" y="393" maskUnits="userSpaceOnUse" style="mask-type:luminance">
            <path fill="#fff" fill-rule="evenodd" d="M254.304 503.579s-12.341-22.8 29.079-34.207c7.295-2.006 17.873-4.323 30.557-7.166 21.916-4.914 50.121-11.393 78.563-20.544 62.822-20.202 126.796-47.497 126.796-47.497s29.33-5.243 37.096 26.273c5.506 22.298-3.391 127.751-105.749 155.933-102.371 28.153-177.996 1.744-196.342-72.792Z" clip-rule="evenodd" />
        </mask>
        <g mask="url(#s)">
            <path fill="#E5E6E7" fill-rule="evenodd" d="M300.41 554.207c-3.573 2.404-6.579 5.356-9.008 8.244 15.549 11.958 35.036 19.69 57.74 23.029.081-.627.174-1.266.277-1.911-12.93-3.881-23.57-9.384-33.481-14.453-4.902-2.508-10.46-8.425-15.528-14.909Z" clip-rule="evenodd" />
        </g>
        <mask id="t" width="306" height="195" x="252" y="393" maskUnits="userSpaceOnUse" style="mask-type:luminance">
            <path fill="#fff" fill-rule="evenodd" d="M254.304 503.579s-12.341-22.8 29.079-34.207c7.295-2.006 17.873-4.323 30.557-7.166 21.916-4.914 50.121-11.393 78.563-20.544 62.822-20.202 126.796-47.497 126.796-47.497s29.33-5.243 37.096 26.273c5.506 22.298-3.391 127.751-105.749 155.933-102.371 28.153-177.996 1.744-196.342-72.792Z" clip-rule="evenodd" />
        </mask>
        <g mask="url(#t)">
            <path fill="#E5E6E7" fill-rule="evenodd" d="M349.42 583.572a61.137 61.137 0 0 0-.278 1.91c4.901.72 9.966 1.24 15.159 1.55-5.3-.882-10.24-2.068-14.881-3.46Z" clip-rule="evenodd" />
        </g>
        <mask id="u" width="306" height="195" x="252" y="393" maskUnits="userSpaceOnUse" style="mask-type:luminance">
            <path fill="#fff" fill-rule="evenodd" d="M283.383 469.372c7.295-2.006 17.873-4.323 30.557-7.166 21.916-4.914 50.121-11.393 78.563-20.544 62.822-20.202 126.796-47.497 126.796-47.497s29.33-5.243 37.096 26.273c5.506 22.298-3.391 127.751-105.749 155.933-102.371 28.153-177.996 1.744-196.342-72.792 0 0-12.341-22.8 29.079-34.207Z" clip-rule="evenodd" />
        </mask>
        <g mask="url(#u)">
            <path fill="#E5E6E7" fill-rule="evenodd" d="M515.394 535.467c-3.315 5.119-6.898 9.6-10.896 13.599a134.025 134.025 0 0 0 12.731-11.916 59.842 59.842 0 0 0-1.835-1.683Z" clip-rule="evenodd" />
        </g>
    </g>
    <path fill="#A2E30C" fill-rule="evenodd" d="M616.262 335.804c4.187-3.216 8.342-6.157 9.879-7.481a224.963 224.963 0 0 0-9.879 7.481Z" clip-rule="evenodd" />
    <path fill="#9AD63B" fill-rule="evenodd" d="M739.064 297.108c-44.047-11.186-88.58 13.631-112.646 30.718 5.351 33.339 61.837 67.761 61.837 67.761l-2.534 2.88c21.653-21.17 38.149-35.775 38.149-35.775 20.443-19.854 47.138-34.004 47.138-34.004 3.498-27.524-31.944-31.58-31.944-31.58Z" clip-rule="evenodd" />
    <path fill="#73B230" fill-rule="evenodd" d="M626.849 327.825c-.013-.071-.033-.14-.046-.211.015.093-.255.361-.661.709-1.538 1.324-5.693 4.265-9.879 7.481-.172.133-.345.26-.519.397-4.984 3.857-9.458 7.812-9.458 7.812 8.863 33.227 19.471 72.313 29.824 106.805 16.579-18.859 34.617-37.27 50.042-52.352l2.534-2.879s-56.486-34.422-61.837-67.762Z" clip-rule="evenodd" />
    <path fill="#9AD63B" fill-rule="evenodd" d="M160.409 487.54s2.511.871 5.945 1.116c-26.338-5.318-87.705-12.949-127.751 20.027 0 0-30.657 19.102-15.399 41.829 0 0 30.63.777 58.04 9.319 0 0 20.413 5.361 48.388 14.127 2.609-.586 41.637-12.449 30.777-86.418Z" clip-rule="evenodd" />
    <path fill="#73B230" fill-rule="evenodd" d="M210.473 606.205c-.391-1.26-.781-2.52-1.173-3.771-11.703-37.583-22.722-71.253-35.396-112.097-.053-.019-.117-.046-.169-.062a206.063 206.063 0 0 0-7.381-1.619c-3.434-.245-5.945-1.116-5.945-1.116 10.86 73.969-28.168 85.832-30.777 86.418-.088.021-.138.029-.138.029s46.201 18.426 80.979 32.218Z" clip-rule="evenodd" />
    <defs>
        <pattern id="d" width="1" height="1" patternContentUnits="objectBoundingBox">
            <use xlink:href="#v" transform="scale(.00222 .01205)" />
        </pattern>
        <pattern id="f" width="1" height="1" patternContentUnits="objectBoundingBox">
            <use xlink:href="#w" transform="scale(.00221 .01)" />
        </pattern>
        <linearGradient id="b" x1="752.05" x2="536.105" y1="745.456" y2="244.673" gradientUnits="userSpaceOnUse">
            <stop stop-color="#96C748" />
            <stop offset="1" stop-color="#9BD839" />
        </linearGradient>
    </defs>
</svg>