<?xml version="1.0" ?>
<svg xmlns="http://www.w3.org/2000/svg" xmlns:xlink="http://www.w3.org/1999/xlink" viewBox="0 0 512 512">
	<defs>
		<linearGradient x1="63.6%" y1="-29.9%" x2="56.2%" y2="113.5%" id="c">
			<stop stop-color="#B1B6C1" offset="0%"/>
			<stop stop-color="#262B36" offset="100%"/>
		</linearGradient>
		<linearGradient x1="50%" y1="0%" x2="50%" y2="100%" id="f">
			<stop stop-color="#FFF" stop-opacity=".5" offset="0%"/>
			<stop stop-opacity=".5" offset="100%"/>
		</linearGradient>
		<linearGradient x1="50%" y1="0%" x2="50%" y2="100%" id="i">
			<stop stop-color="#FFF" stop-opacity=".5" offset="0%"/>
			<stop stop-opacity=".5" offset="100%"/>
		</linearGradient>
		<linearGradient x1="50%" y1="0%" x2="50%" y2="100%" id="p">
			<stop stop-color="#FFF" offset="0%"/>
			<stop stop-color="#FFF" stop-opacity="0" offset="100%"/>
		</linearGradient>
		<linearGradient x1="85.5%" y1="6.8%" x2="73.9%" y2="94.3%" id="u">
			<stop stop-color="#A1E8FD" offset="0%"/>
			<stop stop-color="#2CA5F4" offset="51.1%"/>
			<stop stop-color="#125BDA" offset="100%"/>
		</linearGradient>
		<linearGradient x1="89.7%" y1="6.2%" x2="63.6%" y2="90.1%" id="v">
			<stop stop-color="#73D9FC" offset=".1%"/>
			<stop stop-color="#1E97ED" offset="100%"/>
		</linearGradient>
		<linearGradient x1="27.4%" y1="43%" x2="45.6%" y2="22.8%" id="y">
			<stop stop-color="#72BAE1" offset="0%"/>
			<stop stop-color="#E2F0F7" offset="100%"/>
		</linearGradient>
		<linearGradient x1=".2%" y1="26.7%" x2="97.8%" y2="79%" id="A">
			<stop stop-color="#36AAF1" offset="0%"/>
			<stop stop-color="#4EBBF6" stop-opacity="0" offset="8.9%"/>
			<stop stop-color="#1D95ED" stop-opacity="0" offset="90.6%"/>
			<stop stop-color="#1D95ED" offset="100%"/>
		</linearGradient>
		<linearGradient x1="50%" y1="22.5%" x2="31.4%" y2="42.9%" id="B">
			<stop stop-color="#FFF" offset="0%"/>
			<stop stop-color="#FFF" stop-opacity="0" offset="100%"/>
		</linearGradient>
		<filter x="-6.3%" y="-4.7%" width="112.6%" height="112.7%" filterUnits="objectBoundingBox" id="a">
			<feOffset dy="5" in="SourceAlpha" result="shadowOffsetOuter1"/>
			<feGaussianBlur stdDeviation="5.5" in="shadowOffsetOuter1" result="shadowBlurOuter1"/>
			<feColorMatrix values="0 0 0 0 0 0 0 0 0 0 0 0 0 0 0 0 0 0 0.25 0" in="shadowBlurOuter1"/>
		</filter>
		<filter x="-67.9%" y="-84.8%" width="235.7%" height="269.7%" filterUnits="objectBoundingBox" id="d">
			<feOffset in="SourceAlpha" result="shadowOffsetOuter1"/>
			<feGaussianBlur stdDeviation="6" in="shadowOffsetOuter1" result="shadowBlurOuter1"/>
			<feColorMatrix values="0 0 0 0 0.968627451 0 0 0 0 0.333333333 0 0 0 0 0.415686275 0 0 0 0.5 0" in="shadowBlurOuter1"/>
		</filter>
		<filter x="-67.9%" y="-67.9%" width="235.7%" height="235.7%" filterUnits="objectBoundingBox" id="g">
			<feOffset in="SourceAlpha" result="shadowOffsetOuter1"/>
			<feGaussianBlur stdDeviation="6" in="shadowOffsetOuter1" result="shadowBlurOuter1"/>
			<feColorMatrix values="0 0 0 0 1 0 0 0 0 0.623529412 0 0 0 0 0.105882353 0 0 0 0.5 0" in="shadowBlurOuter1"/>
		</filter>
		<filter x="-67.9%" y="-67.9%" width="235.7%" height="235.7%" filterUnits="objectBoundingBox" id="j">
			<feOffset in="SourceAlpha" result="shadowOffsetOuter1"/>
			<feGaussianBlur stdDeviation="6" in="shadowOffsetOuter1" result="shadowBlurOuter1"/>
			<feColorMatrix values="0 0 0 0 0.439215686 0 0 0 0 0.380392157 0 0 0 0 0.968627451 0 0 0 0.7 0" in="shadowBlurOuter1"/>
		</filter>
		<filter x="-67.9%" y="-67.9%" width="235.7%" height="235.7%" filterUnits="objectBoundingBox" id="l">
			<feOffset in="SourceAlpha" result="shadowOffsetOuter1"/>
			<feGaussianBlur stdDeviation="6" in="shadowOffsetOuter1" result="shadowBlurOuter1"/>
			<feColorMatrix values="0 0 0 0 0.17254902 0 0 0 0 0.756862745 0 0 0 0 0.698039216 0 0 0 0.5 0" in="shadowBlurOuter1"/>
		</filter>
		<filter x="-67.9%" y="-67.9%" width="235.7%" height="235.7%" filterUnits="objectBoundingBox" id="n">
			<feOffset in="SourceAlpha" result="shadowOffsetOuter1"/>
			<feGaussianBlur stdDeviation="6" in="shadowOffsetOuter1" result="shadowBlurOuter1"/>
			<feColorMatrix values="0 0 0 0 0.925490196 0 0 0 0 0.333333333 0 0 0 0 0.537254902 0 0 0 0.5 0" in="shadowBlurOuter1"/>
		</filter>
		<filter x="-1.9%" y="-1.9%" width="103.7%" height="103.8%" filterUnits="objectBoundingBox" id="r">
			<feGaussianBlur stdDeviation="1.9" in="SourceGraphic"/>
		</filter>
		<filter x="-14.9%" y="-19.5%" width="129.7%" height="138.9%" filterUnits="objectBoundingBox" id="x">
			<feGaussianBlur stdDeviation="11.4" in="SourceGraphic"/>
		</filter>
		<path d="M128 50.5h121.3c31.2 0 42.5 3.3 53.9 9.4 11.4 6 20.3 15 26.4 26.4 6.1 11.4 9.4 22.7 9.4 53.9v120.6c0 31.1-3.3 42.4-9.4 53.8-6 11.4-15 20.4-26.4 26.5-11.4 6-22.7 9.3-53.9 9.3H128c-31.2 0-42.5-3.2-53.9-9.3-11.3-6.1-20.3-15-26.4-26.5-6-11.4-9.3-22.7-9.3-53.8V140.2c0-31.2 3.2-42.5 9.3-53.9C53.8 75 62.7 66 74.1 60c11.4-6.1 22.7-9.4 54-9.4Z" id="b"/>
		<path id="o" d="m13.3 0 13.2 26.5H0z"/>
		<path d="M89.6 0H211c31.1 0 42.4 3.2 53.8 9.3 11.4 6.1 20.4 15 26.5 26.5 6 11.4 9.3 22.7 9.3 53.8v120.6c0 31.2-3.2 42.5-9.3 53.9-6.1 11.4-15 20.3-26.5 26.4-11.4 6.1-22.7 9.4-53.8 9.4H89.6c-31.1 0-42.4-3.3-53.8-9.4-11.4-6-20.4-15-26.5-26.4-6-11.4-9.3-22.7-9.3-53.9V89.6c0-31.1 3.2-42.4 9.3-53.8 6.1-11.4 15-20.4 26.5-26.5C47.2 3.3 58.5 0 89.6 0Z" id="q"/>
		<path d="M232.7 290.9c39.1 4.1 70.8-25.3 70.8-65.7V69.9a70 70 0 0 0-70-69.9H70A70 70 0 0 0 0 68.7V126c0 7.6 4 15.2 10.1 19.5L25.4 156c44.8 31 171.7 118.6 183.2 126.4 13.6 9.1 20.7 8.5 24 8.5h.1Z" id="t"/>
		<path d="M184.7 160.6c1 1.4 1.8 2.8 2.6 4.2l68.2 123.4.4.7a64.1 64.1 0 0 0 17.3 18.4l.6.4a36.4 36.4 0 0 0 18.2 5.9c-1 0-2.6.9-4.8 1.8h-.4a46 46 0 0 1-17.6-8l-.4-.2c-13.7-9.2-191-131.8-198.5-137-4-2.7-6.5-7.2-8.1-11.7l.4-.3c.6-.4 1-.7 1.2-.7 1-.2 1.5.5 1.5.5v.1c.4.7 2 5 8.5 8.5 7.2 3.8 18.4-1.2 18.4-1.2a15 15 0 0 0 1.8-1l23-16a48.6 48.6 0 0 1 67.7 12.2Z" id="z"/>
		<rect id="e" x="66.4" y="116.7" width="26.5" height="21.2" rx="5.3"/>
		<rect id="h" x="66.2" y="58.2" width="26.5" height="26.5" rx="13.3"/>
		<rect id="k" x="129.9" y="114.5" width="26.5" height="26.5" rx="13.3"/>
		<rect id="m" x="0" y="58.2" width="26.5" height="26.5" rx="4.4"/>
	</defs>
	<g fill="none" fill-rule="evenodd">
		<path fill="#FFF" d="M0 0h512v512H0z"/>
		<g transform="translate(58 64)">
			<use fill="#000" filter="url(#a)" xlink:href="#b"/>
			<use fill="url(#c)" xlink:href="#b"/>
		</g>
		<g transform="translate(136 234.7)">
			<use fill="#000" filter="url(#d)" xlink:href="#e"/>
			<use fill="#FF4C62" xlink:href="#e"/>
			<use fill="url(#f)" style="mix-blend-mode:overlay" xlink:href="#e"/>
		</g>
		<g transform="translate(136 234.7)">
			<use fill="#000" filter="url(#g)" xlink:href="#h"/>
			<use fill="#FF9F1C" xlink:href="#h"/>
			<use fill="url(#i)" style="mix-blend-mode:overlay" xlink:href="#h"/>
		</g>
		<g transform="translate(136 234.7)">
			<use fill="#000" filter="url(#j)" xlink:href="#k"/>
			<use fill="#7463FF" xlink:href="#k"/>
			<use fill="url(#i)" style="mix-blend-mode:overlay" xlink:href="#k"/>
		</g>
		<g transform="translate(136 234.7)">
			<use fill="#000" filter="url(#l)" xlink:href="#m"/>
			<use fill="#60F9EB" xlink:href="#m"/>
			<use fill="url(#i)" style="mix-blend-mode:overlay" xlink:href="#m"/>
		</g>
		<g transform="translate(136 234.7)">
			<use fill="#000" filter="url(#n)" xlink:href="#o"/>
			<use fill="#FF5394" xlink:href="#o"/>
			<use fill="url(#p)" style="mix-blend-mode:overlay" xlink:href="#o"/>
			<use fill="url(#i)" style="mix-blend-mode:overlay" xlink:href="#o"/>
		</g>
		<g transform="translate(96.4 114.5)">
			<mask id="s" fill="#fff">
				<use xlink:href="#q"/>
			</mask>
			<path d="M15.2 97.6V53c0-42.4 28.3-68.6 85-78.8h222.1v297c-51.3 4-82.2 4-92.5 0-15.6-6-188.7-130.3-199.1-137.8-10.4-7.5-15.5-23-15.5-35.8Z" fill="#17181B" opacity=".2" filter="url(#r)" mask="url(#s)"/>
		</g>
		<g transform="translate(118.7 88.7)">
			<mask id="w" fill="#fff">
				<use xlink:href="#t"/>
			</mask>
			<use fill="url(#u)" xlink:href="#t"/>
			<path d="M231.8 291.7c40 4 72.6-26.5 72.6-68.3V69a70 70 0 0 0-70-70H70A70 70 0 0 0 0 67.7v59c.1 7.6 4 15.1 10.2 19.5L178.6 263l28 19.5 1.1.7c13.5 9.4 20.7 8.5 24 8.5Z" stroke="url(#v)" stroke-width="7.1" mask="url(#w)"/>
			<path d="M124 135.9c1 1.4 1.8 2.7 2.6 4.2l68.1 123.3.4.7a64.1 64.1 0 0 0 17.4 18.5l.6.4a36.4 36.4 0 0 0 18.1 5.8h.1c-1 0-2.7 1-4.9 1.9h-.4a46 46 0 0 1-17.6-8l-.4-.2c-13.7-9.3-191-131.8-198.5-137-4-2.8-6.4-7.2-8.1-11.8l.5-.3 1.1-.6c1-.3 1.6.5 1.6.5.4.8 1.9 5 8.4 8.5 7.3 3.9 18.4-1.1 18.4-1.1a15 15 0 0 0 1.8-1l23.1-16a48.6 48.6 0 0 1 67.7 12.2Z" fill="#0A5AD6" filter="url(#x)" mask="url(#w)"/>
		</g>
		<g transform="translate(58 64)">
			<use fill="url(#y)" xlink:href="#z"/>
			<use fill="url(#A)" xlink:href="#z"/>
		</g>
		<path d="M184.7 160.6c1 1.4 1.8 2.8 2.6 4.2l68.2 123.4.4.7.4.6a63.3 63.3 0 0 0 16.9 17.8l.6.4a37 37 0 0 0 17.8 5.8h.4c-1 .1-2.6 1-4.8 2l-.4-.1a46 46 0 0 1-17.6-8l-.4-.2c-13.7-9.2-191-131.8-198.5-137-4-2.7-7-6.8-8.7-11.4l.5-.3.2-.1 1-.5c1-.3 1.5.5 1.5.5l.1.2a20 20 0 0 0 8.9 8c7.2 3.8 18.4-1.2 18.4-1.2a15 15 0 0 0 1.8-1l23-16a48.6 48.6 0 0 1 67.7 12.2Zm-2.5 1.8a45.6 45.6 0 0 0-63.4-11.5l-23.1 16-2.3 1.3h-.1a27.7 27.7 0 0 1-4 1.4c-3.1 1-6.3 1.5-9.4 1.4-1.3 0-2.5-.1-3.6-.4h-.1l7 4.8c31.7 22 117.6 81.4 161.4 111.5l12 8.3-.2-.2-2.8-4.1-.3-.5-.4-.6v-.2l-68.2-123.3-2-3.3-.5-.6Z" fill="url(#B)" fill-rule="nonzero" transform="translate(58 64)"/>
	</g>
</svg>
