<?xml version="1.0" encoding="UTF-8"?>
<svg xmlns="http://www.w3.org/2000/svg" viewBox="0 0 105 40" fill="none">
	<rect fill="lightgrey" height="100%" width="100%" />
    <g transform="translate(-115 -40)">
        <path d="M146.705 42.1597C148.536 42.1597 150.078 43.5967 150.078 45.4489C150.078 47.365 148.536 48.802 146.705 48.802C144.875 48.802 143.333 47.333 143.333 45.4489C143.365 43.6286 144.907 42.1597 146.705 42.1597Z" fill="#243B51" />
        <path d="M116 59.596C116 54.3907 119.79 50.7183 125.025 50.7183C127.242 50.7183 129.104 51.4847 130.646 52.8579C130.068 54.263 129.458 55.6042 128.88 57.0093C127.948 55.9874 126.824 55.3807 125.507 55.3807C123.13 55.3807 121.685 57.0413 121.685 59.596C121.685 62.0869 123.13 63.8113 125.603 63.8113C127.081 63.8113 128.044 63.1726 128.912 62.2785C129.458 63.7155 130.068 65.0887 130.614 66.5257C129.104 67.7712 127.402 68.5376 124.993 68.5376C119.822 68.5376 116 65.0248 116 59.596Z" fill="#243B51" />
        <path d="M143.879 51.165H149.564V68.0264H143.879V51.165Z" fill="#243B51" />
        <path d="M152.615 59.596C152.615 54.3907 156.405 50.7183 161.641 50.7183C163.857 50.7183 165.752 51.4847 167.261 52.8579C166.683 54.263 166.073 55.6042 165.495 57.0093C164.563 55.9874 163.439 55.3807 162.122 55.3807C159.746 55.3807 158.268 57.0413 158.268 59.596C158.268 62.0869 159.713 63.8113 162.187 63.8113C163.664 63.8113 164.628 63.1726 165.495 62.2785C166.041 63.7155 166.651 65.0887 167.197 66.5257C165.687 67.7712 163.985 68.5376 161.576 68.5376C156.437 68.5376 152.615 65.0248 152.615 59.596Z" fill="#243B51" />
        <path d="M195.269 42.1597C197.099 42.1597 198.641 43.5967 198.641 45.4489C198.641 47.365 197.099 48.802 195.269 48.802C193.438 48.802 191.896 47.333 191.896 45.4489C191.896 43.6286 193.47 42.1597 195.269 42.1597ZM192.41 51.1651H198.095V68.0265H192.41V51.1651Z" fill="#E42F25" />
        <path d="M210.589 68.5376C205.29 68.5376 201.179 64.6416 201.179 59.6279C201.179 54.5504 205.29 50.7183 210.589 50.7183C215.889 50.7183 220 54.5823 220 59.6279C220 64.7055 215.921 68.5376 210.589 68.5376ZM210.589 55.4765C208.309 55.4765 206.896 57.1371 206.896 59.6279C206.896 62.1188 208.309 63.7794 210.589 63.7794C212.87 63.7794 214.283 62.1188 214.283 59.6279C214.283 57.1371 212.87 55.4765 210.589 55.4765Z" fill="#E42F25" />
        <path d="M210.589 70.3896C212.42 70.3896 213.962 71.8267 213.962 73.6789C213.962 75.5949 212.42 77.032 210.589 77.032C208.759 77.032 207.217 75.563 207.217 73.6789C207.249 71.8267 208.791 70.3896 210.589 70.3896Z" fill="#E42F25" />
        <path d="M133.44 42H139.125V68.0265H133.44V42Z" fill="#243B51" />
        <path d="M188.203 65.2801C187.56 64.2582 186.886 63.2682 186.115 62.2464C185.344 61.2245 184.573 60.2664 183.77 59.3084C183.321 58.7974 182.903 58.3184 182.485 57.9033C182.903 57.4562 183.353 57.0091 183.77 56.4982C184.573 55.5401 185.376 54.5821 186.115 53.5602C186.886 52.5383 187.56 51.5484 188.203 50.5265C188.299 50.3987 188.363 50.271 188.427 50.1432C187.046 49.5684 184.862 48.6423 183.16 47.9398C182.775 48.5465 182.357 49.1852 181.907 49.9197C181.393 50.7181 180.847 51.5164 180.269 52.3148C179.691 53.1131 179.081 53.8796 178.439 54.6141C177.796 55.3485 177.154 55.9553 176.511 56.4662V55.2847V47.7162V42H170.826V47.7162V68.0265H176.511V60.49V59.3084C177.154 59.8193 177.796 60.4261 178.439 61.1606C179.081 61.8951 179.691 62.6615 180.269 63.4599C180.847 64.2582 181.393 65.0566 181.907 65.8549C182.421 66.6533 182.903 67.3878 183.288 68.0265H189.809C189.391 67.1962 188.845 66.2701 188.203 65.2801Z" fill="#243B51" />
        <path d="M195.301 42.1597C197.132 42.1597 198.673 43.5967 198.673 45.4489C198.673 47.365 197.132 48.802 195.301 48.802C193.47 48.802 191.928 47.333 191.928 45.4489C191.96 43.6286 193.502 42.1597 195.301 42.1597Z" fill="#E42F25" />
    </g>
</svg>