<?xml version="1.0" ?>
<svg xmlns="http://www.w3.org/2000/svg" viewBox="0 0 459.64 67.09">
	<defs>
		<style>.cls-1{fill:#404041;}.cls-2{fill:#b51233;}</style>
	</defs>
	<title>Asset 4</title>
	<g id="Layer_2">
		<g id="Layer_1-2">
			<path class="cls-1" d="M6.8,6.82C11.22,2.68,17.55,1,24.53.7Q29.9.51,35.25,0V11.69q-4.74.29-9.5.43c-4.53.13-7.55,1.5-9.81,4.15-2.45,2.93-2.82,7.06-2.82,17s.37,14.63,2.82,17.56c2.27,2.66,5.29,4,9.81,4.15q4.76.14,9.5.43V67.09q-5.35-.51-10.73-.7c-7-.27-13.3-2-17.73-6.12C-.74,53.24,0,43.34,0,33.26S-.74,13.86,6.8,6.82"/>
			<path class="cls-2" d="M47.49,19a23.56,23.56,0,0,0-11,0V49.6a23.56,23.56,0,0,0,11,0V19"/>
			<path class="cls-2" d="M76.23,6.83C71.81,2.68,65.48,1,58.5.71Q53.13.51,47.77,0V11.69q4.75.29,9.51.43c4.53.13,7.54,1.5,9.81,4.15,2.45,2.93,2.83,7.06,2.83,17s-.38,14.63-2.83,17.56c-2.27,2.66-5.29,4-9.81,4.15q-4.76.14-9.51.43V67.09q5.36-.51,10.73-.7c7-.27,13.31-2,17.73-6.13,7.53-7,6.78-16.93,6.78-27s.75-19.41-6.78-26.44"/>
			<polyline class="cls-1" points="283.06 23.54 272.85 23.54 272.85 47.99 276.83 47.99 283.06 47.99 283.06 23.54"/>
			<path class="cls-1" d="M306.31,11.33c-3.91-3.92-9.48-5.66-15.65-5.66H281V16h8.06c4.17,0,6.94,1.25,9,3.66,2.26,2.67,2.62,6.41,2.62,15.39s-.35,13.23-2.62,15.89c-2.09,2.42-4.85,3.66-9,3.66H281V64.9h9.63c6.16,0,11.73-1.75,15.65-5.66,6.66-6.66,6-15.31,6-24.21s.67-17.05-6-23.71"/>
			<polyline class="cls-1" points="201.8 64.9 206.29 64.9 206.29 5.67 201.8 5.67 201.8 64.9"/>
			<path class="cls-1" d="M118.6,9.16c8,0,13.81,5.16,15.55,13.31h4.58c-1.92-10.73-9.57-17.3-20.14-17.3a20.88,20.88,0,0,0-14.81,6.07c-5.42,5.41-5.49,10.65-5.49,24s.07,18.63,5.49,24A20.9,20.9,0,0,0,118.6,65.4c10.4,0,18.22-6.57,20.14-17.31h-4.41c-1.75,8.15-7.75,13.31-15.73,13.31a15.7,15.7,0,0,1-11.23-4.58c-4.24-4.24-4.58-8.82-4.58-21.54s.33-17.31,4.58-21.55A15.71,15.71,0,0,1,118.6,9.16"/>
			<polyline class="cls-1" points="158.7 5.67 154.21 5.67 154.21 64.9 190.14 64.9 190.14 60.9 158.7 60.9 158.7 5.67"/>
			<path class="cls-1" d="M242.56,9.16c8,0,13.82,5.16,15.56,13.31h4.58c-1.92-10.73-9.57-17.3-20.15-17.3a20.85,20.85,0,0,0-14.79,6.07c-5.41,5.41-5.49,10.65-5.49,24s.08,18.63,5.49,24a20.87,20.87,0,0,0,14.79,6.07c10.41,0,18.23-6.57,20.15-17.31h-4.42c-1.74,8.15-7.74,13.31-15.73,13.31a15.7,15.7,0,0,1-11.22-4.58c-4.24-4.24-4.57-8.82-4.57-21.54s.33-17.31,4.57-21.55a15.71,15.71,0,0,1,11.22-4.57"/>
			<path class="cls-1" d="M428.93,5.67,407.39,64.9h12.07L423,54.42h21.05l3.49,10.48h12.06L438,5.67h-9.08m-2.65,39,7.49-21.54L441,44.68"/>
			<polyline class="cls-1" points="409.48 5.67 366.97 5.67 366.97 15.98 382.43 15.98 382.43 64.9 394 64.9 394 15.98 409.48 15.98 409.48 5.67"/>
			<path class="cls-1" d="M347.41,5.67h-9.07L316.8,64.9h12.06l3.57-10.48h21.06L357,64.9H369l-2.93-8-18.7-51.2m-11.73,39,7.48-21.54,7.24,21.54"/>
		</g>
	</g>
</svg>