<svg xmlns="http://www.w3.org/2000/svg" viewBox="0 0 813 200">
  <path fill="#341e2a" fill-rule="evenodd" clip-rule="evenodd" d="m90.5917224 12.8139324c-3.0579213 0-6.1176959.7895043-8.8457324 2.3666551l-60.014949 34.7307558c-5.4560729 3.158017-8.8438791 9.0430744-8.8438791 15.3572507v69.463369c0 6.312319 3.3878062 12.197376 8.8438791 15.355393l60.014949 34.730756c5.456073 3.156159 12.2353919 3.158017 17.6914648 0l60.0149492-34.730756c5.456073-3.158017 8.843879-9.043074 8.843879-15.355393v-69.463369c0-6.3141763-3.387806-12.1992337-8.843879-15.3572507l-60.0149492-34.7307558c-2.7280365-1.5771508-5.7878111-2.3666551-8.8457324-2.3666551m0 186.9787526c-5.2355319 0-10.4673573-1.350516-15.1357838-4.053407l-60.0149491-34.730756c-9.33685304-5.402067-15.13578382-15.470568-15.13578382-26.276559v-69.463369c0-10.805991 5.79893078-20.8763497 15.13578382-26.2784164l60.0149491-34.7307558c9.336853-5.4039243 20.9347146-5.4039243 30.2715674 0l60.014949 34.7307558c9.336853 5.4020667 15.135784 15.4724254 15.135784 26.2784164v69.463369c0 10.805991-5.798931 20.874492-15.135784 26.276559l-60.014949 34.730756c-4.668426 2.702891-9.9021049 4.053407-15.1357836 4.053407"></path>
  <path fill="#341e2a" fill-rule="evenodd" clip-rule="evenodd" d="m150.733807 123.201115-59.7666089-59.907582c-1.0582261-1.0588645-2.7725153-1.0588645-3.8307414 0l-56.6827415 56.818298c-2.2091165 2.212469.4596149 5.797748 3.2061842 4.306049l28.5924909-15.53187c1.8236331-.990132 4.0364561.35667 3.9993904 2.435388l-.2261008 12.476025c-.0500387 2.730755 3.5027098 3.817485 4.9816318 1.523278l16.3330064-25.3235804c.9006968-1.3951004 2.8299672-1.6607454 4.0716685-.5572971l26.0015974 23.0906765c1.747649 1.553002 4.505338.308371 4.505338-2.032276 0-1.956113 1.999695-3.269477 3.788115-2.489261l22.03186 9.602229c2.742863 1.196332 5.109509-2.288633 2.99491-4.410077"></path>
  <path fill="#341e2a" fill-rule="evenodd" clip-rule="evenodd" d="m267.656054 142c-23.120235 0-38.656054-15.532374-38.656054-41.94964 0-25.9280578 15.658148-42.1942449 37.55509-42.1942449 12.477587 0 21.407625 5.9928058 25.077503 15.7769784l2.201927-14.3093525h7.217428v29.7194245h-9.664013c-3.058232-16.1438849-11.254294-23.1151079-23.609552-23.1151079-16.269795 0-26.423125 11.618705-26.423125 32.5323741v2.9352513c0 21.035972 10.275659 32.532375 26.545454 32.532375 13.578551 0 23.85421-6.726619 25.68915-22.381295l8.318391 1.100719c-1.590281 16.755396-13.456221 29.352518-34.252199 29.352518zm40.613322-1.467626v-7.093525h6.972769c.978634 0 1.71261-.366907 1.71261-2.81295v-60.9064745c0-2.5683454-.489317-3.3021583-1.71261-3.3021583h-7.217428v-7.0935252h6.85044c5.627147 0 11.131965-.6115108 13.70088-1.1007194v72.4028774c0 2.446043.611646 2.81295 1.71261 2.81295h6.72811v7.093525zm50.204936-67.7553956c-4.648512 0-7.829074-3.5467626-7.829074-7.9496403 0-4.2805755 3.180562-7.8273381 7.829074-7.8273381 4.526184 0 7.829075 3.5467626 7.829075 7.8273381 0 4.4028777-3.302891 7.9496403-7.829075 7.9496403zm-14.312526 67.7553956v-7.093525h6.972769c1.100964 0 1.71261-.489209 1.71261-2.81295v-37.4244602c0-3.7913669-.611646-4.8920863-2.691244-4.8920863h-5.994135v-7.0935252h6.605782c5.627147 0 11.131964-.6115108 13.700879-1.1007194v50.5107911c0 2.323741.611647 2.81295 1.71261 2.81295h6.728111v7.093525zm89.495105-27.640288h-46.240469c.244659 12.597123 7.095099 21.647482 19.939674 21.647482 10.275659 0 16.025136-5.258992 18.71638-13.820144l7.095098 2.935252c-2.935902 10.395684-11.376623 18.345324-26.667783 18.345324-19.817344 0-30.949309-13.086331-30.949309-31.18705 0-18.2230219 12.232928-31.0647486 30.093004-31.0647486 17.615416 0 28.013405 11.6187051 28.013405 30.2086336zm-28.013405-25.9280572c-10.887307 0-17.370759 6.971223-18.227064 19.4460432h34.619188c-.244659-12.9640288-5.871806-19.4460432-16.392124-19.4460432zm53.090909-6.8489209v13.8201439c3.914537-9.294964 11.254294-14.1870504 20.918307-14.1870504 12.477587 0 18.83871 7.0935252 18.83871 21.1582736v29.719424c0 2.446043.611646 2.81295 1.834939 2.81295h6.85044v7.093525h-28.380394v-7.093525h6.361123c1.100963 0 1.71261-.366907 1.71261-2.81295v-29.352518c0-9.1726616-3.42522-13.330935-11.498953-13.330935-10.031001 0-16.514453 8.438849-16.514453 24.093525v18.589928c0 2.446043.611646 2.81295 1.834939 2.81295h6.483452v7.093525h-28.625052v-7.093525h6.85044c1.223293 0 1.834939-.366907 1.834939-2.81295v-39.0143882c0-2.5683453-.489317-3.3021583-1.834939-3.3021583h-6.85044v-7.0935252h6.605781c5.504818 0 11.009636-.6115108 13.578551-1.1007194zm73.275241 61.7625901c-11.743612 0-16.514454-4.769784-16.514454-16.877698v-36.6906475h-8.930037v-6.3597122s6.361122-.3669065 5.871805-.3669065c3.302891-.4892086 5.015501-1.589928 5.382489-5.1366906l1.100963-10.76259h8.196062v15.5323741h13.089234v7.0935252h-13.456222v36.5683455c0 6.726619 2.568915 9.294964 8.318392 9.294964 2.935902 0 4.648512-.611511 6.238793-1.10072v7.33813c-1.834939.611511-5.260159 1.467626-9.297025 1.467626zm82.023032-60.7841728c0 11.0071942-5.260159 17.8561151-18.104734 20.3021578 10.642648 3.179857 14.679515 11.007195 15.535819 22.503598.489318 7.827338 2.201928 9.539568 7.217428 9.539568h2.691244v7.093525h-9.052367c-10.031001 0-13.333891-6.971223-14.190196-17.856115-.611647-12.230216-4.159196-18.467626-16.881442-18.467626h-11.376623v26.172662c0 2.446043.489317 3.057554 1.834939 3.057554h7.339757v7.093525h-30.093003v-7.093525h7.339757c1.345622 0 1.957268-.611511 1.957268-3.057554v-61.028777c0-2.323741-.611646-2.9352518-1.957268-2.9352518h-7.339757v-7.0935252h37.065773c18.961038 0 28.013405 6.8489209 28.013405 21.7697842zm-44.160871-14.676259v31.3093525h11.865941c13.823209 0 19.572685-4.8920863 19.572685-16.0215827 0-10.76259-5.504818-15.2877698-17.982405-15.2877698zm81.653549 75.5827338c-18.104734 0-30.337663-12.597122-30.337663-31.18705 0-18.3453241 12.477587-31.0647486 30.82698-31.0647486 17.860075 0 30.093004 12.5971223 30.093004 31.0647486 0 18.467626-12.355258 31.18705-30.582321 31.18705zm.122329-7.460432c12.110599 0 18.83871-8.316546 18.83871-23.115108v-1.100719c0-15.0431655-6.728111-23.1151079-18.716381-23.1151079-12.110599 0-18.838709 8.1942446-18.838709 23.1151079v1.100719c0 14.920864 6.605781 23.115108 18.71638 23.115108zm77.923754-31.064748c0-4.0359711 2.568915-6.9712229 6.605781-7.5827337-1.957269-5.6258992-7.217428-8.9280575-16.269795-8.9280575-12.599916 0-20.184332 8.4388489-20.184332 22.7482012v1.467626c0 14.431655 6.85044 23.23741 19.572686 23.23741 10.031001 0 16.392124-4.647482 19.083368-13.820144l6.972769 2.935252c-3.180561 10.884892-11.498953 18.467626-26.423125 18.467626-19.450356 0-31.071638-11.985612-31.071638-31.309353 0-18.8345319 12.355258-30.9424456 31.560955-30.9424456 16.025136 0 26.423125 8.0719425 26.423125 20.5467626 0 6.115108-3.669878 10.273381-8.930037 10.273381-4.281525 0-7.339757-3.057554-7.339757-7.093525zm17.860075 37.057554v-7.093525h6.85044c1.223293 0 1.834939-.366907 1.834939-2.81295v-60.9064745c0-2.5683454-.489317-3.3021583-1.834939-3.3021583h-7.095099v-7.0935252h6.97277c5.504817 0 11.009635-.6115108 13.57855-1.1007194v55.1582734l22.875576-22.7482015c.733976-.7338129.978634-2.323741-1.223293-2.323741h-6.72811v-7.0935252h28.258064v7.0935252h-5.382488c-2.324257 0-3.54755.8561151-4.770842 1.9568346l-13.70088 13.2086329 17.737746 27.76259c.978634 1.589928 2.079598 2.201439 3.302891 2.201439h4.893171v7.093525h-27.646418v-7.093525h5.627147c2.079598 0 1.467951-1.467626.978634-2.323741l-12.966904-20.302158-11.254294 11.251798v8.561151c0 2.446043.611646 2.81295 1.71261 2.81295h6.605781v7.093525z"></path>
</svg>