<svg xmlns="http://www.w3.org/2000/svg" role="img" viewBox="0 0 488.1 103.91">
    <style>
    .st2 {
        fill: #4d4d4d
    }

    .st3 {
        fill: #fff
    }
    </style>
    <path d="M47.5 87.3C28.6 85.6 14.7 69 16.4 50.2 18 31.3 34.7 17.4 53.5 19.1c4.9.4 9.6 1.9 13.6 4.2v-9.6c-4-1.7-8.3-2.8-12.9-3.2C30.7 8.4 9.9 25.8 7.8 49.4s15.3 44.4 38.9 46.5c7.2.6 14.2-.6 20.4-3.2v-9.6c-5.8 3.2-12.5 4.8-19.6 4.2z" class="st2" />
    <path d="M16.4 50.2C14.7 69 28.6 85.6 47.5 87.3c7.1.6 13.9-1 19.7-4.2v-8.2c-5.3 4-12 6.2-19.1 5.6C33 79.2 21.9 65.8 23.2 50.8c1.3-15.1 14.7-26.2 29.7-24.9 5.4.5 10.2 2.5 14.2 5.6v-8.2c-4.1-2.3-8.7-3.8-13.6-4.2C34.7 17.4 18 31.3 16.4 50.2z" class="st3" />
    <path d="M23.2 50.8c-1.3 15 9.8 28.4 24.9 29.7 7.1.6 13.8-1.5 19.1-5.6V60.7C64.1 67.6 56.9 72.1 49 71.4c-10-.9-17.5-9.8-16.6-19.8.9-10.1 9.8-17.5 19.9-16.7 6.8.6 12.4 4.9 15 10.7V31.4c-4-3.1-8.9-5.1-14.2-5.6-15.3-1.3-28.6 9.9-29.9 25z" class="st2" />
    <path d="M52.1 35c-10-.9-19 6.6-19.9 16.7-.9 10 6.6 18.9 16.6 19.8 8 .7 15.1-3.8 18.2-10.7v-15c-2.5-6-8.1-10.2-14.9-10.8zm9.8 19.2c-.6 6.3-6.1 10.9-12.4 10.4-6.3-.6-10.9-6.1-10.4-12.4.6-6.3 6.1-10.9 12.4-10.4 6.2.5 10.9 6.1 10.4 12.4z" class="st3" />
    <path d="M51.5 41.8c-6.3-.6-11.8 4.1-12.4 10.4-.6 6.3 4.1 11.8 10.4 12.4 6.2.6 11.8-4.1 12.4-10.4.5-6.3-4.2-11.9-10.4-12.4zm-1.4 16c-2.6-.2-4.5-2.5-4.3-5.1s2.5-4.5 5.1-4.3 4.5 2.5 4.3 5.1c-.3 2.7-2.6 4.6-5.1 4.3z" class="st2" />
    <path fill="none" stroke="#fff" stroke-width="3" d="M0 52.9l71.7.4m-21.2 50.6L50.9 0" />
    <g>
        <path fill="#d95017" d="M101.8 38.5c-.1 1.7-.5 3.2-1.2 4.6-.6 1.4-1.5 2.7-2.6 3.7s-2.4 1.9-4 2.4c-1.6.6-3.5.9-5.6.9-2.4 0-4.5-.4-6.3-1.2s-3.3-1.9-4.5-3.3c-1.2-1.4-2.1-3.2-2.8-5.2-.6-2-.9-4.3-.9-6.8 0-2.6.3-4.8 1-6.9.7-2 1.6-3.8 2.9-5.2s2.8-2.5 4.6-3.3c1.8-.8 3.8-1.1 6.1-1.1 2 0 3.7.2 5.2.7s2.7 1.2 3.7 2.2c1 .9 1.8 2.1 2.4 3.4s1.1 2.8 1.4 4.4l-6.5.8c-.3-1.8-.9-3.3-1.9-4.4-.9-1.1-2.4-1.6-4.4-1.6-2.5 0-4.4.9-5.7 2.8-1.3 1.9-2 4.6-2 8 0 3.5.7 6.2 2.1 8.1 1.4 1.9 3.3 2.8 5.6 2.8 2 0 3.5-.5 4.5-1.6 1-1 1.5-2.5 1.8-4.5h7.1v.3zm4.5-20.5h6.6v25.8h14.9l-.7 5.6h-20.7V18h-.1zm37.9 32.2c-2.3 0-4.4-.4-6.3-1.1-1.8-.8-3.4-1.9-4.7-3.3-1.3-1.4-2.3-3.2-3-5.2s-1-4.3-1-6.9.3-4.8 1-6.9c.7-2 1.7-3.8 3-5.2s2.9-2.5 4.7-3.3 3.9-1.1 6.2-1.1 4.4.4 6.3 1.1c1.8.8 3.4 1.9 4.7 3.3s2.3 3.2 2.9 5.2c.7 2 1 4.3 1 6.9 0 2.6-.3 4.8-1 6.9-.7 2-1.6 3.8-2.9 5.2-1.3 1.4-2.8 2.5-4.7 3.3-1.7.7-3.8 1.1-6.2 1.1zm0-5.6c2.8 0 4.8-.9 6.2-2.8 1.3-1.9 2-4.6 2-8.1s-.7-6.1-2-8-3.4-2.8-6.2-2.8-4.8.9-6.2 2.8c-1.3 1.9-2 4.6-2 8 0 3.5.7 6.2 2 8.1 1.4 1.8 3.4 2.8 6.2 2.8zM163.9 18h6.6v18.7c0 2.7.5 4.6 1.4 5.9.9 1.3 2.5 1.9 4.7 1.9s3.8-.6 4.7-1.9c.9-1.3 1.4-3.3 1.4-5.9V18h6.6v18.7c0 2.4-.3 4.4-.9 6.1-.6 1.7-1.4 3.1-2.5 4.2s-2.4 1.9-4 2.4-3.3.8-5.3.8-3.8-.3-5.3-.8c-1.6-.5-2.9-1.3-4-2.4-1.1-1.1-1.9-2.5-2.5-4.2s-.8-3.8-.8-6.2l-.1-18.6zm31.1 0h11.7c4.8 0 8.6 1.3 11.2 3.9 2.7 2.6 4 6.5 4 11.6 0 2.6-.4 4.9-1.1 6.9-.7 2-1.8 3.6-3.2 5-1.4 1.3-3.1 2.4-5.1 3-2 .7-4.3 1-6.9 1H195V18zm10.8 25.8c1.7 0 3.2-.2 4.4-.7s2.2-1.2 2.9-2.1 1.3-2 1.6-3.2c.4-1.2.5-2.6.5-4.2 0-1.5-.2-2.9-.5-4.2-.3-1.2-.8-2.3-1.5-3.1-.7-.9-1.5-1.5-2.6-2s-2.4-.7-3.9-.7h-5.2v20.2h4.3zm48.5-5.3c-.1 1.7-.5 3.2-1.2 4.6-.6 1.4-1.5 2.7-2.6 3.7s-2.4 1.9-4 2.4c-1.6.6-3.5.9-5.6.9-2.4 0-4.5-.4-6.3-1.2s-3.3-1.9-4.5-3.3c-1.2-1.4-2.1-3.2-2.8-5.2-.6-2-.9-4.3-.9-6.8 0-2.6.3-4.8 1-6.9.7-2 1.6-3.8 2.9-5.2 1.3-1.4 2.8-2.5 4.6-3.3s3.8-1.1 6.1-1.1c2 0 3.7.2 5.2.7s2.7 1.2 3.7 2.2c1 .9 1.8 2.1 2.4 3.4s1.1 2.8 1.4 4.4l-6.5.8c-.3-1.8-.9-3.3-1.9-4.4-.9-1.1-2.4-1.6-4.4-1.6-2.5 0-4.4.9-5.7 2.8s-2 4.6-2 8c0 3.5.7 6.2 2.1 8.1 1.4 1.9 3.3 2.8 5.6 2.8 2 0 3.5-.5 4.5-1.6 1-1 1.5-2.5 1.8-4.5h7.1v.3zm18.5 11.7c-2.3 0-4.4-.4-6.3-1.1-1.8-.8-3.4-1.9-4.7-3.3-1.3-1.4-2.3-3.2-3-5.2s-1-4.3-1-6.9.3-4.8 1-6.9c.7-2 1.7-3.8 3-5.2s2.9-2.5 4.7-3.3c1.8-.8 3.9-1.1 6.2-1.1 2.3 0 4.4.4 6.3 1.1 1.8.8 3.4 1.9 4.7 3.3 1.3 1.4 2.3 3.2 2.9 5.2.7 2 1 4.3 1 6.9 0 2.6-.3 4.8-1 6.9-.7 2-1.6 3.8-2.9 5.2s-2.8 2.5-4.7 3.3c-1.7.7-3.8 1.1-6.2 1.1zm0-5.6c2.8 0 4.8-.9 6.2-2.8 1.3-1.9 2-4.6 2-8.1s-.7-6.1-2-8-3.4-2.8-6.2-2.8c-2.8 0-4.8.9-6.2 2.8-1.3 1.9-2 4.6-2 8 0 3.5.7 6.2 2 8.1 1.4 1.8 3.4 2.8 6.2 2.8zM293.2 18h7.9l7.8 23.5L317 18h7.7v31.4h-6V28.5l-7.2 20.9h-5.1l-7.2-20.9v20.9h-5.9l-.1-31.4zm37.8 0h11.2c2.4 0 4.4.3 6 .8s2.8 1.3 3.7 2.2c.9.9 1.6 1.9 1.9 3.1.4 1.2.5 2.4.5 3.7 0 1.4-.2 2.7-.5 4-.4 1.3-1 2.4-1.9 3.3s-2.2 1.7-3.7 2.3-3.5.8-5.8.8h-4.9v11.2H331V18zm11.2 14.7c1.1 0 2.1-.1 2.8-.4.7-.2 1.3-.6 1.8-1 .4-.4.7-.9.9-1.5.2-.6.2-1.3.2-2s-.1-1.4-.3-1.9c-.2-.6-.5-1-.9-1.4s-1-.7-1.8-.9c-.7-.2-1.7-.3-2.8-.3h-4.7v9.3l4.8.1zM358.5 18h6.6v18.7c0 2.7.5 4.6 1.4 5.9.9 1.3 2.5 1.9 4.7 1.9s3.8-.6 4.7-1.9c.9-1.3 1.4-3.3 1.4-5.9V18h6.6v18.7c0 2.4-.3 4.4-.9 6.1-.6 1.7-1.4 3.1-2.5 4.2s-2.4 1.9-4 2.4-3.3.8-5.3.8-3.8-.3-5.3-.8-2.9-1.3-4-2.4c-1.1-1.1-1.9-2.5-2.5-4.2s-.8-3.8-.8-6.2V18h-.1zm38.3 5.7h-9.5V18h25.5v5.7h-9.5v25.7h-6.6V23.7h.1zm20.1-5.7h6.6v31.4h-6.6V18zm13 0h5.9l12.9 20.6V18h6.4v31.4h-5.9l-13-20.4v20.4h-6.4V18h.1zM476 32.2h12.1v13.3c-1.6 1.5-3.5 2.7-5.8 3.5-2.2.8-4.5 1.2-6.9 1.2-2.5 0-4.7-.4-6.5-1.2-1.9-.8-3.4-1.9-4.6-3.3-1.2-1.4-2.2-3.2-2.8-5.2-.6-2-.9-4.3-.9-6.8 0-2.6.3-4.8 1-6.9.7-2 1.6-3.8 2.9-5.2 1.2-1.4 2.8-2.5 4.6-3.3 1.8-.8 3.8-1.1 6-1.1 2 0 3.8.2 5.2.7 1.5.5 2.7 1.2 3.7 2.1s1.8 1.9 2.4 3.1 1 2.4 1.3 3.8l-6.5.8c-.2-.8-.4-1.5-.6-2.1s-.6-1.1-1.1-1.5-1.1-.7-1.8-1c-.7-.2-1.6-.3-2.6-.3-2.6 0-4.5 1-5.7 2.9-1.3 1.9-1.9 4.6-1.9 8.1s.6 6.2 1.9 8.1c1.3 1.9 3.4 2.8 6.2 2.8 1.4 0 2.6-.1 3.6-.4s2-.7 2.9-1.3v-5.2h-6v-5.6h-.1z" />
    </g>
    <g>
        <path fill="#19191e" d="M74.9 57.4h6.6v31.4h-6.6V57.4zm13 0h5.9L106.7 78V57.4h6.4v31.4h-5.9l-13-20.4v20.4h-6.4V57.4h.1zm36.3 21.2c.1 1.9.8 3.3 1.9 4.2 1.1.9 2.7 1.3 4.9 1.3 1 0 1.9-.1 2.6-.3.7-.2 1.3-.5 1.7-.9s.8-.8.9-1.3c.2-.5.3-1 .3-1.6 0-.8-.3-1.6-.9-2.3s-1.7-1.2-3.4-1.6l-4.1-.7c-1.6-.3-3-.7-4.3-1.1-1.2-.5-2.3-1.1-3.1-1.8s-1.5-1.7-1.9-2.8c-.4-1.1-.7-2.4-.7-3.9s.3-2.8.9-4c.6-1.1 1.4-2.1 2.5-2.9 1.1-.8 2.4-1.3 3.9-1.7s3.1-.6 4.9-.6c2.3 0 4.2.3 5.7.8s2.8 1.2 3.7 2.1c.9.9 1.6 1.9 2.1 3s.8 2.3.9 3.6l-6.2.8c-.3-1.7-.9-3-1.9-3.7-.9-.8-2.3-1.1-4.2-1.1-1.1 0-2 .1-2.8.3-.7.2-1.3.4-1.7.7-.4.3-.7.7-.9 1.1-.2.4-.3.8-.3 1.3 0 1.2.3 2.1 1 2.6.7.6 1.8 1 3.4 1.4l4.3.8c3.4.7 5.9 1.8 7.5 3.3s2.4 3.7 2.4 6.5c0 1.4-.3 2.6-.8 3.8-.5 1.2-1.3 2.2-2.3 3-1 .9-2.3 1.5-3.8 2s-3.3.7-5.4.7c-4.3 0-7.6-.9-9.8-2.8-2.3-1.8-3.5-4.6-3.7-8.3h6.7v.1zm23.7-21.2h6.6v31.4h-6.6V57.4zm13 0h11.7c4.8 0 8.6 1.3 11.2 3.9 2.7 2.6 4 6.5 4 11.6 0 2.6-.4 4.9-1.1 6.9-.7 2-1.8 3.6-3.2 5-1.4 1.3-3.1 2.4-5.1 3-2 .7-4.3 1-6.9 1h-10.6V57.4zm10.8 25.8c1.7 0 3.2-.2 4.4-.7s2.2-1.2 2.9-2.1 1.3-2 1.6-3.2c.4-1.2.5-2.6.5-4.2 0-1.5-.2-2.9-.5-4.2-.3-1.2-.8-2.3-1.5-3.1-.7-.9-1.5-1.5-2.6-2s-2.4-.7-3.9-.7h-5.2v20.2h4.3zm21.6-25.8h21.4V63h-14.9v6.9h14v5.6h-14v7.7h15.8l-.7 5.6h-21.7l.1-31.4zm27 0h11.1c2.5 0 4.5.3 6.1.9 1.6.6 2.9 1.3 3.8 2.2.9.9 1.5 2 1.9 3.1.4 1.1.5 2.2.5 3.3 0 2-.4 3.7-1.1 5.1-.7 1.4-2 2.5-3.7 3.5l6.4 13.3h-7.1L233 77h-6.2v11.8h-6.5V57.4zm11.6 14.2c1 0 1.9-.1 2.6-.3.7-.2 1.2-.5 1.6-.9.4-.4.7-.9.8-1.4.1-.6.2-1.2.2-1.8 0-.6-.1-1.1-.3-1.6s-.5-1-.9-1.4-1-.7-1.8-.9c-.7-.2-1.7-.3-2.8-.3h-4.5v8.8h5.1v-.2z" />
    </g>
</svg>