<svg xmlns="http://www.w3.org/2000/svg" viewBox="0 0 12 16"><linearGradient id="a" x1="6" x2="6" y1="4.117" y2="11.199" gradientTransform="matrix(1 0 0 -1 0 19.977)" gradientUnits="userSpaceOnUse"><stop offset="0" stop-color="#27aae1"/><stop offset=".164" stop-color="#28a7df"/><stop offset=".36" stop-color="#299ed9"/><stop offset=".572" stop-color="#2c90cf"/><stop offset=".794" stop-color="#2f7dc1"/><stop offset="1" stop-color="#3069b3"/></linearGradient><path fill="url(#a)" d="M12.002 15.999V7.872C9.076 6.869 4.349 5.946-.002 8.179v7.82h12.004z"/><path fill="#F47B20" d="M12.002 7.208V.001H-.002v7.531c4.432-2.886 9.109-1.66 12.004-.324z"/><linearGradient id="b" x1="6" x2="6" y1=".317" y2="7.369" gradientUnits="userSpaceOnUse"><stop offset="0" stop-color="#fcc396"/><stop offset=".045" stop-color="#fbb37d"/><stop offset=".103" stop-color="#f9a465"/><stop offset=".168" stop-color="#f7964f"/><stop offset=".242" stop-color="#f68c3c"/><stop offset=".329" stop-color="#f5842f"/><stop offset=".435" stop-color="#f57f25"/><stop offset=".585" stop-color="#f47c21"/><stop offset="1" stop-color="#f47b20"/></linearGradient><path fill="url(#b)" d="M.269 7.369V.317H11.73v6.769S5.63 3.958.269 7.369z"/><linearGradient id="c" x1="5.943" x2="5.943" y1="9.25" y2="14.25" gradientUnits="userSpaceOnUse"><stop offset="0" stop-color="#d1e9f9"/><stop offset="1" stop-color="#27aae1"/></linearGradient><path fill="url(#c)" d="M8.906 13.758c-1.369 1.037-2.518.113-2.518.113s-1.047.735-2.718.057c-4.368.472-2.557-3.054-1.127-2.752-.2-1.113 2.478-3.186 4.572-.886 2.354-.34 2.697 1.074 2.656 1.715 2.336.358.786 3.148-.865 1.753z"/></svg>