<?xml version="1.0" encoding="UTF-8"?>
<!-- Generator: Adobe Illustrator 20.0.0, SVG Export Plug-In . SVG Version: 6.00 Build 0)  -->
<svg version="1.1" id="Layer_1" xmlns="http://www.w3.org/2000/svg"  x="0px" y="0px" viewBox="0 0 5786.3 1104.4" style="enable-background:new 0 0 5786.3 1104.4;" xml:space="preserve">
<style type="text/css">
	.st0{fill:#A5A5A7;}
	.st1{fill:#00AEEF;}
	.st2{opacity:0.2;fill:#FFFFFF;}
</style>
<path class="st0" d="M1092.4,396.3c-3.4-79.7-66.1-143.3-142.8-143.3c-13.2,0-26,1.9-38.1,5.4c-38.2-79.8-124.5-135.6-225-135.6  c-100.4,0-186.6,55.6-224.9,135.2c-5.8-0.5-11.6-0.8-17.5-0.8c-88.4,0-160.2,60.4-162.2,135.5C170.2,404,82.9,501.4,82.9,619.9  c0,83,42.8,155.6,106.7,195.5c-46.4-42.4-75.2-101.5-75.2-166.9c0-108.3,79.1-199.4,186.4-226c19.1-76.4,80.8-132.3,154-132.3  c7.9,0,15.7,0.7,23.3,1.9c39.6-77.7,117.7-130.7,207.6-130.7c90.6,0,169.2,53.8,208.5,132.5c8.2-1.5,16.7-2.4,25.3-2.4  c73.9,0,135,58.1,145.7,133.8c103.4,9.2,184.7,105.8,184.7,223.7c0,69.9-28.6,132.4-73.5,173.6C1242.1,785.2,1287,709.4,1287,622  C1287,500.9,1200.7,402,1092.4,396.3z"/>
<path class="st1" d="M636.3,832.2c0,26.8-21.9,48.6-48.6,48.6h-40c-26.8,0-48.6-21.9-48.6-48.6V575c0-26.8,21.9-48.6,48.6-48.6h40  c26.8,0,48.6,21.9,48.6,48.6V832.2z M1205.5,647.8c0,109.8-87.1,198.8-194.5,198.8c-1.2,0-2.4-0.1-3.6-0.1l-0.7,1.5  c-26.6,3.5-38.8,24.8-44.3,45.7v43c0,26.8-21.9,48.6-48.6,48.6H579.1v-64.4h26.5c12.2,0,22.2-10,22.2-22.2c0-2.6-0.5-5.1-1.4-7.4  c17.7-7.3,30.3-24.7,30.3-45v-240c0-26.8,21.9-48.6,48.6-48.6h208.4c26.8,0,48.6,21.9,48.6,48.6v145.5c12,23.2,31.3,28.8,47.8,28.5  c5.8-0.4,11.5-1.1,17-2.2c8.3-2,13.8-4.5,13.8-4.5l-0.6,1.3c55.9-16.5,96.4-65.9,96.4-124.3c0-71.9-61.5-130.1-137.3-130.1  c-6.2,0-12.3,0.4-18.2,1.2c4.3-11.5,6.8-23.9,6.8-36.9c0-59.2-49-107.3-109.4-107.3c-24.6,0-47.2,8-65.4,21.4  c-4.7-69.5-61.6-124.4-131.2-124.4c-68.9,0-125.4,53.8-131.1,122.4c-17.3-12.3-38.1-19.4-60.6-19.4c-60,0-108.7,51.2-108.7,114.4  c0,9.1,1.1,17.9,3,26.4c-4.5-0.4-9.1-0.7-13.8-0.7c-75.4,0-136.6,58.9-136.6,131.6c0,69.1,55.4,125.8,125.7,131.1  c17.9-0.6,38.3-8.7,48.8-38.6V606.3c0-26.8,15.9-48.6,35.3-48.6c19.4,0,35.3,21.9,35.3,48.6v240c0,21.9,14.7,40.5,34.7,46.6  c-0.5,1.9-0.9,3.8-0.9,5.8c0,12.2,10,22.2,22.2,22.2h20.7v64.4h-98.7c-26.8,0-48.6-21.9-48.6-48.6v-13.7  c-0.9-20.3-10-67.7-33.7-70.5C257,847.1,163,757.9,163,648.7c0-98.7,76.8-181.1,178.9-199.9c2.6-68.3,55.6-122.8,120.7-122.8  c12.7,0,25,2.1,36.5,5.9C526.4,256.8,599.9,203,686.4,203c85,0,157.6,52.1,186,125.3c9.6-2.4,19.6-3.7,30-3.7  c68.4,0,123.9,55.8,125.8,125.2C1127.5,458.6,1205.5,543.9,1205.5,647.8z M918,740.7c0-26.8-21.9-48.6-48.6-48.6H752.2  c-26.8,0-48.6,21.9-48.6,48.6v117.2c0,26.8,21.9,48.6,48.6,48.6h117.2c26.8,0,48.6-21.9,48.6-48.6V740.7z M899.9,743.3v112.1  c0,18.2-14.9,33.1-33.1,33.1H754.8c-18.2,0-33.1-14.9-33.1-33.1V743.3c0-18.2,14.9-33.1,33.1-33.1h112.1  C885,710.2,899.9,725.1,899.9,743.3z M777.9,836.2c0-2.7-2.2-4.9-4.9-4.9h-28.9c-2.7,0-4.9,2.2-4.9,4.9v28.9c0,2.7,2.2,4.9,4.9,4.9  H773c2.7,0,4.9-2.2,4.9-4.9V836.2z M777.9,786.6c0-2.7-2.2-4.9-4.9-4.9h-28.9c-2.7,0-4.9,2.2-4.9,4.9v28.9c0,2.7,2.2,4.9,4.9,4.9  H773c2.7,0,4.9-2.2,4.9-4.9V786.6z M777.9,737c0-2.7-2.2-4.9-4.9-4.9h-28.9c-2.7,0-4.9,2.2-4.9,4.9v28.9c0,2.7,2.2,4.9,4.9,4.9H773  c2.7,0,4.9-2.2,4.9-4.9V737z M829.4,836.2c0-2.7-2.2-4.9-4.9-4.9h-28.9c-2.7,0-4.9,2.2-4.9,4.9v28.9c0,2.7,2.2,4.9,4.9,4.9h28.9  c2.7,0,4.9-2.2,4.9-4.9V836.2z M829.4,786.6c0-2.7-2.2-4.9-4.9-4.9h-28.9c-2.7,0-4.9,2.2-4.9,4.9v28.9c0,2.7,2.2,4.9,4.9,4.9h28.9  c2.7,0,4.9-2.2,4.9-4.9V786.6z M829.4,737c0-2.7-2.2-4.9-4.9-4.9h-28.9c-2.7,0-4.9,2.2-4.9,4.9v28.9c0,2.7,2.2,4.9,4.9,4.9h28.9  c2.7,0,4.9-2.2,4.9-4.9V737z M880.9,836.2c0-2.7-2.2-4.9-4.9-4.9h-28.9c-2.7,0-4.9,2.2-4.9,4.9v28.9c0,2.7,2.2,4.9,4.9,4.9H876  c2.7,0,4.9-2.2,4.9-4.9V836.2z M880.9,786.6c0-2.7-2.2-4.9-4.9-4.9h-28.9c-2.7,0-4.9,2.2-4.9,4.9v28.9c0,2.7,2.2,4.9,4.9,4.9H876  c2.7,0,4.9-2.2,4.9-4.9V786.6z M880.9,737c0-2.7-2.2-4.9-4.9-4.9h-28.9c-2.7,0-4.9,2.2-4.9,4.9v28.9c0,2.7,2.2,4.9,4.9,4.9H876  c2.7,0,4.9-2.2,4.9-4.9V737z"/>
<path class="st1" d="M1861.2,262v62.2h-230.7c-57.4,0-86.1,26.8-86.1,80.4v285.1c0,30.3,6.3,53.5,18.8,69.4s31.1,23.9,55.7,23.9  h238.4v64.4h-220.7c-54.3,0-93.4-13.8-117.3-41.3c-23.8-27.5-35.7-70.4-35.7-128.5V415.9c0-54.6,12.4-93.9,37.3-117.9  c24.9-24,65-36,120.3-36H1861.2z"/>
<path class="st1" d="M1978.4,436.6v299.7c0,21.4,4.4,37.7,13.3,48.9c8.8,11.2,21.9,16.8,39.3,16.8h167.9v45.4h-155.5  c-38.3,0-65.8-9.7-82.6-29.1c-16.8-19.4-25.2-49.6-25.2-90.5V436.6H1978.4z"/>
<path class="st1" d="M2299,435v308.8c0,38.8,16.9,58.2,50.8,58.2h94c36.4,0,54.6-20.8,54.6-62.5V435h41.2v292.7  c0,79.8-32.5,119.7-97.5,119.7H2350c-62.5,0-93.7-39.9-93.7-119.7V435H2299z"/>
<path class="st1" d="M3237.4,435v45.4h-129.2v367h-41.7v-367h-118.8V435H3237.4z"/>
<path class="st1" d="M3549.3,435v43.8H3383c-40.5,0-60.7,18.9-60.7,56.6v82.8h211.8v45.4h-211.8v72.6c0,21.4,4.4,37.7,13.3,48.9  c8.8,11.2,21.9,16.8,39.3,16.8h174.9v45.4h-162.5c-38.3,0-65.8-9.7-82.6-29.1c-16.8-19.4-25.2-49.6-25.2-90.5V543.4  c0-38.5,8.9-66.1,26.8-83.1c17.9-16.9,46-25.4,84.2-25.4H3549.3z"/>
<g>
	<path class="st1" d="M5251.8,571.3c15.6-7.3,26.7-23.8,26.7-23.8L5414.3,263l-77-0.9l-131.4,271.8h-29.4h-22.7h-4.5l-131.4-271.8   l-77,0.9l135.9,284.5c0,0,11.1,16.5,26.7,23.8c-15.6,7.3-26.7,23.8-26.7,23.8l-121.2,253.7h77.6l116-240.1h4.5h22.7h29.4l116,240.1   h77.6l-121.2-253.7C5278.4,595.1,5267.4,578.5,5251.8,571.3z"/>
	<path class="st1" d="M4882,438.5v-49.8c0-70.6-57.8-128.4-128.4-128.4l-248.9-1.5c-25.4,0-46.2,20.8-46.2,46.2v498.7   c0,25.4,20.8,46.2,46.2,46.2h129.8h36h83.2c70.6,0,128.4-57.8,128.4-128.4v-57.5c0-48.5-27.3-91-67.3-112.8   C4854.8,529.4,4882,487,4882,438.5z M4814.1,722.3c0,29.7-23.1,54-51.4,54h-229.5v-188h229.5c28.3,0,51.4,24.3,51.4,54V722.3z    M4814.1,462.1c0,28.3-23.1,51.4-51.4,51.4h-229.5V334.6h229.5c28.3,0,51.4,23.1,51.4,51.4V462.1z"/>
	<path class="st1" d="M4259.8,262.1h-101.9h-44.8H4016c-28.3,0-51.4,23.1-51.4,51.4v222.7V555v296h72.5V581.1   c21.3,15.8,23.7,25.3,52.1,25.3h170.6c70.6,0,128.4-57.8,128.4-128.4v-87.5C4388.2,319.9,4330.5,262.1,4259.8,262.1z M4313.5,484.8   c0,28.3-23.1,51.4-51.4,51.4h-225V330h225c28.3,0,51.4,23.1,51.4,51.4V484.8z"/>
</g>
<g>
	<path class="st1" d="M5517.9,291.1h-41.8v-14.7h100.2v14.7h-41.8v120h-16.6V291.1z M5599,276.4h26.5l41.5,109.2l40.3-109.2h26.5   v134.7h-16.5v-119h-0.6l-45.5,119h-9.4l-45.5-119h-0.6v119H5599V276.4z"/>
</g>
<path class="st1" d="M2876.1,655.4l-220.7-75.7l0-68.3c0.1-8.8,2-13.5,4.3-17c3.3-5.1,9.3-8.7,15.6-10.7c3.1-1,6-1.6,7.9-1.9  l2.1-0.3l0.1,0h205.4V435v0h-206.2l-0.9,0c-1.9,0.2-17.8,0.5-36.2,10c-9.2,4.8-19.1,12.3-26.6,23.6c-7.6,11.3-12.2,26.1-12.1,42.9  v73.2c0,23.2,14.4,32.2,38.4,41.7l211.2,72.4l0,75c-0.3,1.9-1.9,9.4-6,15.1c-2.2,3.3-4.9,6-8.6,8c-3.7,2.1-8.8,3.8-17.1,3.8h-214  v46.7l214,0c16.4,0.1,30.8-4.1,42-11c17-10.3,26-25.4,30.6-36.9c4.7-11.6,5.5-20.5,5.7-22l0.1-2.2V692  C2905.1,676.5,2895.2,661.1,2876.1,655.4z"/>
<path class="st1" d="M3671.6,669.7c4.4,2.8,9.1,4.4,18.9,4.4h86.8l79.8,172h52.7l-80.9-174.4l2.7-0.7c37.7-9.9,65.9-44.4,65.9-85.5  v-61.9c0-24.4-9.8-46.5-25.7-62.6c-15.9-16.1-37.8-26-61.9-26h-71.3h-31.4h-68c-18.5,0-33.6,15.3-33.6,34v157.7v13.4l0,207.3h46.1  V653.9l3.7,2.8C3663,662.4,3667.2,666.9,3671.6,669.7z M3651.7,629.1V478.4h159.9c21.1,0,38.3,17.4,38.3,38.7v73.2  c0,21.3-17.2,38.7-38.3,38.7H3654H3651.7z"/>
</svg>