<?xml version="1.0" ?>
<!-- Created with Inkscape (http://www.inkscape.org/) -->
<svg xmlns="http://www.w3.org/2000/svg" xmlns:xlink="http://www.w3.org/1999/xlink" xmlns:sodipodi="http://sodipodi.sourceforge.net/DTD/sodipodi-0.dtd" xmlns:inkscape="http://www.inkscape.org/namespaces/inkscape" viewBox="0 0 598.8244 118.67693" inkscape:version="0.92.3 (2405546, 2018-03-11)" sodipodi:docname="cocoon.svg">
	<defs id="defs12721">
		<linearGradient inkscape:collect="always" id="linearGradient13630">
			<stop style="stop-color:#0093b9;stop-opacity:1;" offset="0" id="stop13626"/>
			<stop id="stop13634" offset="0.57612664" style="stop-color:#149bbe;stop-opacity:1"/>
			<stop style="stop-color:#0696bb;stop-opacity:0.84941179" offset="0.5845868" id="stop13636"/>
			<stop style="stop-color:#2ca6c5;stop-opacity:1" offset="1" id="stop13628"/>
		</linearGradient>
		<filter style="color-interpolation-filters:sRGB" inkscape:label="Drop Shadow" id="filter13616">
			<feFlood flood-opacity="0.737255" flood-color="rgb(0,0,0)" result="flood" id="feFlood13606"/>
			<feComposite in="flood" in2="SourceGraphic" operator="in" result="composite1" id="feComposite13608"/>
			<feGaussianBlur in="composite1" stdDeviation="1.95561" result="blur" id="feGaussianBlur13610"/>
			<feOffset dx="3.2" dy="3.2" result="offset" id="feOffset13612"/>
			<feComposite in="SourceGraphic" in2="offset" operator="over" result="composite2" id="feComposite13614"/>
		</filter>
		<linearGradient inkscape:collect="always" xlink:href="#linearGradient13630" id="linearGradient13632" x1="47.803715" y1="147.81279" x2="47.803715" y2="52.116032" gradientUnits="userSpaceOnUse"/>
	</defs>
	<sodipodi:namedview id="base" pagecolor="#ffffff" bordercolor="#666666" borderopacity="1.0" inkscape:pageopacity="0.0" inkscape:pageshadow="2" inkscape:zoom="0.49497475" inkscape:cx="547.35097" inkscape:cy="79.435988" inkscape:document-units="mm" inkscape:current-layer="layer1" showgrid="false" inkscape:window-width="3726" inkscape:window-height="2049" inkscape:window-x="114" inkscape:window-y="55" inkscape:window-maximized="1" fit-margin-top="0" fit-margin-left="0" fit-margin-right="0" fit-margin-bottom="0"/>
	<g inkscape:label="Layer 1" inkscape:groupmode="layer" id="layer1" transform="translate(264.6384,-29.792276)">
		<rect style="opacity:1;fill:#fbfbfb;fill-opacity:1;fill-rule:nonzero;stroke:#000000;stroke-width:2;stroke-linecap:round;stroke-linejoin:round;stroke-miterlimit:4;stroke-dasharray:none;stroke-opacity:0.46823527" id="rect13285-6" width="596.8244" height="116.67693" x="-263.6384" y="30.792276" rx="58.481445" ry="56.125164"/>
		<rect style="opacity:1;fill:url(#linearGradient13632);fill-opacity:1;fill-rule:nonzero;stroke:#000000;stroke-width:3.8866334;stroke-linecap:round;stroke-linejoin:round;stroke-miterlimit:4;stroke-dasharray:none;stroke-opacity:0.87058824" id="rect13285" width="557.51483" height="82.776787" x="-243.71906" y="47.838093" rx="54.629597" ry="39.818161"/>
		<g id="g13364" style="filter:url(#filter13616)">
			<path inkscape:connector-curvature="0" id="path13317" d="M -157.03218,111.93807 C -158.10819,111.58936 -160.34821,110.2903 -162.01001,109.05128 C -170.42087,102.7802 -170.97408,88.12204 -163.07284,80.88962 C -158.57879,76.77598 -157.39745,76.61994 -132.27168,76.82099 L -109.52526,77.00301 L -109.31655,78.642 C -109.2017,79.54345 -109.42598,80.63477 -109.81472,81.06721 C -110.3051,81.61254 -117.64943,81.9596 -133.78476,82.19991 L -157.04782,82.54637 L -159.41192,84.54996 C -165.74082,89.91371 -165.33848,100.57396 -158.63239,105.20452 C -156.35883,106.7744 -155.97572,106.80376 -133.304,107.14497 C -112.25967,107.46168 -110.22501,107.59551 -109.59592,108.70403 C -109.09432,109.58792 -109.09444,110.24537 -109.59637,111.12924 C -110.22925,112.24377 -112.09627,112.35117 -132.68045,112.45695 C -144.99799,112.52035 -155.9563,112.28672 -157.03231,111.93807 L -157.03218,111.93807 M -90.51296,111.62403 C -94.05124,110.41279 -98.2484,106.48142 -99.94429,102.78995 C -101.80834,98.73243 -102.16904,92.69753 -100.78762,88.68065 C -99.42263,84.71157 -96.09603,80.51841 -92.72033,78.51189 C -90.27739,77.05981 -89.48908,77.00301 -71.77442,77.00301 C -54.05975,77.00301 -53.27147,77.05984 -50.82853,78.51189 C -40.49767,84.65262 -38.81589,99.82687 -47.54641,108.12549 C -51.88686,112.25123 -54.29387,112.69482 -72.04367,112.64004 C -83.56309,112.60444 -88.43106,112.33672 -90.51296,111.62403 L -90.51296,111.62403 M -51.54804,104.81271 C -48.11501,101.90329 -46.82027,99.14459 -46.81754,94.73331 C -46.81524,89.97127 -48.84223,85.90886 -52.29882,83.75153 C -54.70424,82.25022 -55.33593,82.19991 -71.7744200000001,82.19991 C -88.21293,82.19991 -88.84462,82.25019 -91.25004,83.75153 C -97.44107,87.61549 -98.673,98.22713 -93.53817,103.46112 C -89.94066,107.12808 -89.58599,107.18379 -71.10057,106.98425 L -53.8912,106.79858 L -51.54804,104.81271 M -22.87638,111.93807 C -23.95237,111.58936 -26.19238,110.2903 -27.85417,109.05128 C -36.26505,102.7802 -36.81824,88.12204 -28.91701,80.88962 C -24.42296,76.77598 -23.24164,76.61994 1.88412,76.82099 L 24.63057,77.00301 L 24.83928,78.642 C 24.95413,79.54345 24.72986,80.63477 24.3411,81.06721 C 23.85073,81.61254 16.50638,81.9596 0.37105,82.19991 L -22.89199,82.54637 L -25.25612,84.54996 C -31.58501,89.91371 -31.18268,100.57396 -24.47657,105.20452 C -22.20302,106.7744 -21.81988,106.80376 0.85183,107.14497 C 21.89615,107.46168 23.9308,107.59551 24.55989,108.70403 C 25.06149,109.58792 25.06137,110.24537 24.55946,111.12924 C 23.92655,112.24377 22.05954,112.35117 1.47538,112.45695 C -10.84216,112.52035 -21.8005,112.28672 -22.87649,111.93807 L -22.87638,111.93807 M 43.64287,111.62403 C 40.10456,110.41279 35.90741,106.48142 34.21154,102.78995 C 32.34747,98.73243 31.98676,92.69753 33.36822,88.68065 C 34.73321,84.71157 38.0598,80.51841 41.43548,78.51189 C 43.87842,77.05981 44.66673,77.00301 62.38139,77.00301 C 80.09606,77.00301 80.88437,77.05984 83.32731,78.51189 C 93.65817,84.65262 95.33995,99.82687 86.60943,108.12549 C 82.26898,112.25123 79.86195,112.69482 62.11214,112.64004 C 50.59274,112.60444 45.72478,112.33672 43.64287,111.62403 L 43.64287,111.62403 M 82.60778,104.81271 C 86.04083,101.90329 87.33554,99.14459 87.3383,94.73331 C 87.3406,89.97127 85.31361,85.90886 81.85702,83.75153 C 79.4516,82.25022 78.81989,82.19991 62.38139,82.19991 C 45.9429,82.19991 45.31122,82.25019 42.90577,83.75153 C 36.71474,87.61549 35.48283,98.22713 40.61765,103.46112 C 44.21517,107.12808 44.56984,107.18379 63.05527,106.98425 L 80.26462,106.79858 L 82.60778,104.81271 M 111.27946,111.95384 C 107.25739,110.61796 103.36983,106.99376 101.43323,102.77468 C 96.90661,92.91293 101.06337,81.22843 110.34813,77.71527 C 114.42053,76.17436 144.4981,76.17436 148.5705,77.71527 C 156.13944,80.5792 160.70037,89.54015 159.01936,98.24437 C 158.08015,103.10757 155.03113,107.63275 150.97003,110.19068 L 147.55476,112.34185 L 130.39527,112.47279 C 120.95757,112.54489 112.35546,112.31121 111.27946,111.95389 L 111.27946,111.95384 M 148.33488,105.6752 C 155.81057,101.65646 156.7208,90.22777 150.0174,84.54996 L 147.6519,82.54637 L 129.45931,82.54637 L 111.26673,82.54637 L 108.90123,84.54996 C 102.22019,90.20884 103.09855,101.57169 110.5329,105.65815 C 113.08646,107.06178 114.1301,107.1439 129.4183,107.14442 C 144.63413,107.14492 145.76411,107.05722 148.33488,105.6752 L 148.33488,105.6752 M 167.67812,111.9399 C 166.68651,111.2985 166.58616,109.71638 166.58616,94.72286 C 166.58616,81.37299 166.75431,78.05709 167.46456,77.40255 C 168.10893,76.80869 174.5506,76.64762 191.64379,76.798 C 214.32661,76.99756 215.01322,77.04365 217.52954,78.53818 C 218.95119,79.38252 221.13771,81.40093 222.38842,83.02356 C 225.71035,87.33325 226.56053,91.39378 226.35158,101.95167 C 226.20206,109.50003 226.01507,110.92041 225.08433,111.57121 C 224.28982,112.12678 223.69493,112.12707 222.9004,111.57221 C 221.965,110.91916 221.76372,109.33016 221.49645,100.48911 C 221.16965,89.67838 220.9182,88.6173 217.96227,85.57584 C 214.35776,81.86702 214.38846,81.87205 193.8334,81.62077 C 183.25176,81.49139 173.93615,81.56892 173.13203,81.79309 L 171.66997,82.20059 L 171.46809,96.3003 C 171.31527,106.96867 171.05769,110.67843 170.40973,111.54411 C 169.42189,112.86385 169.16451,112.90115 167.67822,111.93983 L 167.67812,111.9399" style="fill:#ffffff;fill-opacity:1;stroke-width:0.65754664"/>
			<rect transform="rotate(45)" y="104.8203" x="24.906719" height="4.9136906" width="4.9136906" id="rect13337" style="opacity:1;fill:#ffffff;fill-opacity:1;fill-rule:nonzero;stroke:none;stroke-width:1;stroke-linecap:round;stroke-linejoin:round;stroke-miterlimit:4;stroke-dasharray:none;stroke-opacity:0.46823527"/>
			<rect transform="rotate(45)" y="11.142326" x="118.58468" height="4.9136906" width="4.9136906" id="rect13337-9" style="opacity:1;fill:#ffffff;fill-opacity:1;fill-rule:nonzero;stroke:none;stroke-width:1;stroke-linecap:round;stroke-linejoin:round;stroke-miterlimit:4;stroke-dasharray:none;stroke-opacity:0.46823527"/>
			<rect transform="rotate(45)" y="-15.584623" x="145.31165" height="4.9136906" width="4.9136906" id="rect13337-1" style="opacity:1;fill:#ffffff;fill-opacity:1;fill-rule:nonzero;stroke:none;stroke-width:1;stroke-linecap:round;stroke-linejoin:round;stroke-miterlimit:4;stroke-dasharray:none;stroke-opacity:0.46823527"/>
		</g>
		<text xml:space="preserve" style="font-style:normal;font-variant:normal;font-weight:normal;font-stretch:normal;font-size:15.68795776px;line-height:125%;font-family:Montserrat;-inkscape-font-specification:Montserrat;letter-spacing:0px;word-spacing:0px;fill:#ffffff;fill-opacity:1;stroke:none;stroke-width:0.57047117px;stroke-linecap:butt;stroke-linejoin:miter;stroke-opacity:1" x="236.00549" y="73.562675" id="text13640">
			<tspan sodipodi:role="line" id="tspan13638" x="236.00549" y="73.562675" style="fill:#ffffff;fill-opacity:1;stroke-width:0.57047117px">TM</tspan>
		</text>
	</g>
</svg>