<svg xmlns="http://www.w3.org/2000/svg" viewBox="0 0 152 28"><g fill="none" fill-rule="nonzero"><path fill="#3C38B2" d="M7.708 21.778c4.841 0 7.275-2.17 7.275-7.04v-.265h-3.651c0 2.593-.947 4.208-3.408 4.208h-.243c-3.03 0-3.976-2.382-3.976-7.04v-1.06c0-4.658.974-7.04 3.976-7.04h.243c2.57 0 3.408 1.72 3.408 5.003h3.651v-.9c0-5.03-2.434-7.2-7.275-7.2C2.434.444 0 3.435 0 10.582v1.058c0 7.147 2.434 10.138 7.708 10.138zm17.851 0c5.182 0 7.492-3.46 7.492-8.168v-.998c0-4.738-2.31-8.168-7.492-8.168-5.181 0-7.491 3.43-7.491 8.168v.998c0 4.707 2.31 8.168 7.491 8.168zm0-3.556c-2.435 0-3.525-1.77-3.525-4.598v-.994c0-2.859 1.09-4.63 3.525-4.63 2.436 0 3.526 1.771 3.526 4.63v.994c0 2.827-1.09 4.598-3.526 4.598zM43.564 28c5.047 0 7.304-2.493 7.304-6.824V9.523l.25-4.673h-3.604l-.345 2.025c-.909-1.402-2.413-2.43-4.796-2.43-4.45 0-6.237 3.396-6.237 7.727v.81c0 4.549 1.786 7.727 6.237 7.727 2.07 0 3.48-.779 4.42-1.9v2.305c0 2.524-1.003 3.552-3.323 3.552-2.413 0-3.165-1.246-3.165-3.303h-3.856v.592c0 3.334 1.787 6.045 7.115 6.045zm-.157-10.667c-2.204 0-3.305-1.513-3.305-4.256v-.82C40.102 9.703 41.203 8 43.407 8c1.762 0 2.801 1.135 3.305 1.923v5.518c-.504.757-1.543 1.892-3.305 1.892zm15.612 4V9.856c.473-.777 1.543-1.897 3.463-1.897 1.857 0 2.644 1.15 2.644 2.737v10.637h4.06v-11.29c0-2.986-1.479-5.599-5.13-5.599-2.644 0-4.376 1.089-5.414 2.582l-.378-2.177h-3.62l.283 4.665v11.82h4.092zm18.54 0V7.556h-3.966v13.777h3.966zM75.576 4.89A2.436 2.436 0 0 0 78 2.444 2.434 2.434 0 0 0 75.576 0a2.434 2.434 0 0 0-2.423 2.444 2.434 2.434 0 0 0 2.423 2.445z"/><path fill="#FFA600" d="M90.582 22c4.814 0 7.553-2.24 7.553-6.045v-.286c0-3.57-2.24-5.16-6.945-5.758-3.403-.443-4.206-1.381-4.206-3.049v-.156c0-1.59 1.329-2.658 3.376-2.658h.25c2.573 0 3.624 1.355 3.624 4.404h3.708v-.6C97.942 3.267 95.7 1 90.582 1c-4.677 0-7.388 2.293-7.388 5.888v.26c0 3.362 2.103 5.055 6.807 5.655 3.292.417 4.344 1.355 4.344 3.126v.157c0 1.693-1.328 2.866-3.653 2.866h-.249c-2.324 0-3.735-1.251-3.735-4.143H83v.26C83 19.733 85.629 22 90.582 22zm53.864 0c4.815 0 7.554-2.24 7.554-6.045v-.286c0-3.57-2.241-5.16-6.945-5.758-3.404-.443-4.206-1.381-4.206-3.049v-.156c0-1.59 1.328-2.658 3.376-2.658h.249c2.573 0 3.625 1.355 3.625 4.404h3.707v-.6c0-4.585-2.241-6.852-7.36-6.852-4.676 0-7.388 2.293-7.388 5.888v.26c0 3.362 2.103 5.055 6.807 5.655 3.293.417 4.344 1.355 4.344 3.126v.157c0 1.693-1.328 2.866-3.652 2.866h-.25c-2.324 0-3.735-1.251-3.735-4.143h-3.707v.26c0 4.664 2.628 6.931 7.581 6.931zm-38.218 0c2.457 0 4.23-.951 5.38-2.27l.312 1.871h3.577l-.249-4.603v-5.892c0-3.806-1.555-6.168-6.687-6.168-5.257 0-6.687 2.761-6.687 5.493v.276h3.856c0-1.412.498-2.67 2.738-2.67 2.083 0 2.737 1.013 2.737 3.069v.061l-4.2.645c-3.203.46-5.753 1.565-5.753 5.094v.307c0 2.608 1.493 4.787 4.976 4.787zm1.314-3.063c-1.614 0-2.284-1.005-2.284-2.043v-.251c0-1.29.731-2.107 2.406-2.39l3.381-.566v3.521c-.518.724-1.645 1.73-3.503 1.73zM123.59 22c2.458 0 4.23-.951 5.381-2.27l.311 1.871h3.577l-.249-4.603v-5.892c0-3.806-1.555-6.168-6.687-6.168-5.256 0-6.687 2.761-6.687 5.493v.276h3.857c0-1.412.497-2.67 2.737-2.67 2.084 0 2.737 1.013 2.737 3.069v.061l-4.199.645c-3.204.46-5.754 1.565-5.754 5.094v.307c0 2.608 1.493 4.787 4.976 4.787zm1.315-3.063c-1.615 0-2.285-1.005-2.285-2.043v-.251c0-1.29.731-2.107 2.407-2.39l3.38-.566v3.521c-.517.724-1.644 1.73-3.502 1.73z"/></g></svg>