<?xml version="1.0" ?>
<svg xmlns="http://www.w3.org/2000/svg" viewBox="0 0 1546 5890">
	<title>COKE_BIG</title>
	<style>
		.s0 { fill: #e2271f } 
		.s1 { fill: #ffffff } 
	</style>
	<path class="s0" d="m1545.3 5436.9c-3.9-81.2-20.2-228-76.2-419.6-66.1-225.8-64.4-316.5-68.3-409.6-4.5-93.5 19-224.1 43.1-400 24.1-175.9 66.1-494.7 89.7-674.5 19-148.5-15.2-167-15.2-167 20.8-370.3 0-741.2-61.6-1112.7 0 0 18.5-4.5 17.9-59.9-1.1-55.5-51-262.2-131.6-458.3-81.3-196.1-154.1-425.3-200.6-660.6-30.8-154.6-38.7-417.4-40.4-521v-47.1c11.8-9 42.6-37.5 26.9-109.8-7.8-35.9-46.5-138.4-46.5-138.4q-0.5 0-0.5 0c0.5-1.7 28.5-49.9 28.5-110.4 0-61 6.2-147.9-337.8-147.9-344.6 0-337.9 86.9-337.9 147.9 0 61.7 28.6 110.4 28.6 110.4h0.6c0 0.6-39.3 102.5-46.5 138.4-15.7 72.3 15.1 100.8 26.9 109.8v47.1c-2.3 103.6-9.6 366.4-40.4 521-46.5 235.3-119.9 464.5-200.6 660.6-80.7 196.1-131.1 402.8-131.6 458.3-0.6 52.1 15.6 58.8 17.3 59.4v0.5c-61 371.5-82.3 742.4-61.6 1112.7-0.6 0.6-33.6 20.7-14.6 167 23.6 179.8 65.6 498.6 89.7 674.5 23.5 175.9 47.6 306.5 43.1 400-3.9 93.1-2.2 183.8-68.9 409.6-56 191.6-72.3 338.4-75.6 419.6l-1.2 54.9c2.3 73.4 16.3 214.6 53.3 253.9 40.9 42 175.9 143.4 719.9 143.4 544.1 0 679.1-101.4 719.5-143.4 37.5-39.3 51.5-180.5 53.2-253.9z"/>
	<path fill-rule="evenodd" class="s1" d="m625.9 138.5c0 22.4 30.8 28.6 30.8 50.4 0 176-61.1 276.8-61.1 452.2 0 53.8 11.2 97.5 61.1 126-84.6 153.5-91.9 257.2-91.9 426.9 0 40.9 49.9 56.6 91.9 75.7-53.8 34.2-91.9 68.9-91.9 125.5 0 135-61.6 203.9-61.6 338.9 0 88-111 109.9-153.5 188.9-65 122.1-94.7 147.9-183.3 258.2 111.5-559.1 336.8-798.9 336.8-1364.2v-276.2h92.4c-34.7-47.1-65.5-75.1-123.2-100.3 49.8-56.6 92.4-103.7 92.4-175.9 0-34.8-30.8-56.6-61.6-75.7 45.9-18.5 76.7-34.7 122.7-50.4zm353 452.7c7.3 184.9 45.9 291.9 45.9 477.3 0 31.4-26.9 47.1-30.8 75.1-11.2-216.2-76.8-342.3-15.1-552.4z"/>
	<path fill-rule="evenodd" class="s1" d="m441.6 2098.9c-4 49.8-11.8 78.4-30.9 125.5l61.7 49.8c-26.9-15.6-61.7-31.3-61.7-62.7 0-43.7 23-72.3 30.9-112.6z"/>
	<path fill-rule="evenodd" class="s1" d="m153.6 2217.1c-10.7 57.7 115.4 80.7 177 84 7.3 59.4-25.2 135.6 35.9 173.2-23.6 25.2-42.6 47-62.2 75.6l-1.1 175.9c42-6.1 80.1-6.1 122.1 0-72.8 28-153.5 56.6-154.1 125.5-0.5 28.6 34.2 38.1 60.5 50.4q-63.3 23.6-92.4 75.7c115.4-15.7 191.6-12.9 307 0-88.5 2.8-134.4 2.8-222.4 0-12.9 115.9 1.7 185.4-2.8 301.4h-84.6c15.1 31.4 34.2 53.8 61.1 75.6h-92.5l-3.9 452.2c51.5 251.5-19.1 405.6 52.1 653.8l-141.8-930c0.6-56.6 28.1-113.2 93.6-125.5-26.9-32-49.3-56.6-91.9-75.7 2.3-245.4 15.1-386.6-25.2-628.6 47.6-150.7 35.9-328.3 65.6-483.5z"/>
	<path fill-rule="evenodd" class="s1" d="m455 2876.5c23.5-75 58.3-122.1 124.4-175.9-73.4 53.8-112.1 97.5-185.5 151.3 15.2 18.5 22.4 31.4 30.3 49.8 68.9-6.1 114.8-12.3 184.3-25.2-7.3-72.2 31.4-109.8 62.8-175.9-66.1 78.4-104.8 144.6-216.3 175.9zm306.5 50.5c-0.6 34.7 45.4 47 60.5 75.6l32.5-226.4c-42.6 53.3-92.5 84.6-93 150.8zm-346.3 1299.2c14-24.1 29.2-44.8 57.2-67.2-19.1-9.5-61.7-3.4-61.7-25.2 0-47.1 61.7-65.6 61.7-113.2 0-251-26.9-392.2-61.7-640.4-105.3 322.7-49.8 544.6 4.5 846zm-4.5 7.9q3.4 0 5.6-0.6-0.5-3.4-1.1-7.3-2.2 3.9-4.5 7.9zm5.6-0.6q13.5 72.3 25.3 151.3c0-68.9 11.7-109.8 30.8-175.4-18 14.6-32.5 20.7-56.1 24.1zm-298.6 1145.2c57.2 6.1 95.8 12.3 153 25.2v-427.5c-23-25.2-46-47.1-61.1-75.1 26.9 3.4 42 9.6 61.1 25.2-7.3-116.5-7.3-188.8-30.3-301.4-46.5 291.9-122.7 458.3-122.7 753.6z"/>
	<path fill-rule="evenodd" class="s1" d="m455 4649.8c11.8 40.9 61.6 56.6 61.6 100.8 0 295.3-115.4 458.3-91.9 753.6-27.4-109.8 7.3-175.9 7.3-289.1 0-62.8-34.7 226.3-38.1 163.6-26.9-282.4 61.1-446 61.1-728.9zm930.1 991.6c22.9 12.4 38.1 19.1 61 25.3-45.9 15.6-72.8 25.2-122.7 25.2 5.1 12.3 18.5 39.2 25.8 50.4-35.3 3.3-57.7 12.9-86.8 24.6 15.1-28 26.9-43.7 30.2-75q-9.5 1.6-19 2.8c37.5-11.8 74.5-29.2 111.5-53.3zm-35.9 100.9q2.8 0 5.1-0.6c1.1 7.9-1.2 6.2-5.1 0.6zm-75.6-47.6c-43.2 14-87.4 21.3-132.8 24.6q-1.1-1.1-1.7-2.8c51-7.8 86.9-14 134.5-21.8zm-72.9 72.2c-19-2.8-38.1 0-61.6 0-122.7 0-183.8-50.4-306.5-50.4 114.3 0 214.6 9.5 308.2 2.8 11.2 23.5 30.2 38.7 59.9 47.6z"/>
</svg>