<?xml version="1.0" ?>
<svg xmlns="http://www.w3.org/2000/svg" version="1.2" viewBox="0 0 1584 1583">
	<style>
		.s0 { fill: #000000 } 
	</style>
	<g id="Logo/Colruyt-Group/Logo-CG-Full" style="opacity: .6">
		<path id="Fill-26" fill-rule="evenodd" class="s0" d="m1041.7 791.6c0 137.9-112 249.7-250.4 249.7-137.9 0-249.9-111.8-249.9-249.7 0-138.1 112-249.9 249.9-249.9 30.1 0 59 5.3 85.4 14.9l229.1-491c-96.4-41.9-202.5-65.6-314.5-65.6-437.1 0-791.3 354.5-791.3 791.6 0 436.8 354.2 791.4 791.3 791.4 437.6 0 792.3-354.6 792.3-791.4 0-60.5-7.4-119.4-20.2-176h-594.3c45 45 72.6 107.3 72.6 176z"/>
	</g>
</svg>