<svg viewBox="0 0 117 28" fill="none" xmlns="http://www.w3.org/2000/svg">
<g clip-path="url(#clip0_1789_6965)">
<path d="M18.73 12.2428C18.6678 11.692 18.5589 11.1434 18.4593 10.6735C18.3597 10.2037 18.2073 9.67061 18.0237 9.14892C17.6835 8.1412 17.2341 7.17367 16.6837 6.26355C16.1342 5.33839 15.451 4.49959 14.6561 3.77438C13.8207 3.05567 12.8319 2.5377 11.7655 2.26013C11.0572 2.07617 10.3286 1.9814 9.59681 1.97802C9.38212 1.97802 9.16639 1.98736 8.95273 2.00395C8.95273 1.88053 8.94236 1.76955 8.93095 1.6648C8.90474 1.39529 8.83174 1.13241 8.71522 0.88797C8.58132 0.607227 8.36399 0.374682 8.09293 0.222116C7.83373 0.0881909 7.54665 0.0171324 7.25491 0.0146845H7.18023C6.8963 0.0127621 6.61713 0.0876617 6.37229 0.231451C6.11976 0.387475 5.91071 0.604731 5.76452 0.863079C5.63181 1.09222 5.5346 1.34015 5.47619 1.59842C5.44294 1.73128 5.42006 1.86652 5.40773 2.00291C5.32482 2.00921 5.24238 2.02064 5.16089 2.03714C4.96603 2.07531 4.77679 2.13804 4.59771 2.22383C4.39901 2.31561 4.22083 2.44649 4.07382 2.60864C3.92681 2.7708 3.81398 2.96092 3.74206 3.16764C3.6757 3.36386 3.6407 3.56932 3.63834 3.77645C3.63043 3.97037 3.64189 4.16459 3.67257 4.35622C3.70687 4.60168 3.81544 4.83078 3.98372 5.01274C4.16484 5.18778 4.39624 5.30167 4.64542 5.33841C4.84188 5.37027 5.0407 5.38519 5.23971 5.38301C5.35795 5.38301 5.47411 5.38301 5.59027 5.37575L5.73029 5.37056L6.72803 5.32907C7.11697 5.31041 7.44263 5.29796 7.76519 5.29796C8.063 5.29656 8.36069 5.31006 8.65714 5.33841C9.26505 5.38708 9.85641 5.56043 10.3944 5.84765C10.9225 6.14752 11.3819 6.55492 11.7427 7.04349C12.1959 7.64193 12.5724 8.35446 12.9302 9.30761H12.923C12.813 9.22152 12.7 9.1344 12.5817 9.04624C12.1143 8.70106 11.6232 8.38915 11.1121 8.1128C10.5948 7.83136 10.0512 7.60139 9.48894 7.42621C8.94278 7.25396 8.37414 7.16344 7.80149 7.15758H7.69777C6.50011 7.14807 5.32167 7.45888 4.28449 8.05783C3.30957 8.62516 2.44665 9.49637 1.78598 10.5781C1.18174 11.5867 0.735438 12.6818 0.462571 13.8255C0.185436 14.9566 0.0341298 16.1148 0.0114075 17.2792C-0.0246466 18.457 0.115179 19.6337 0.42627 20.7703C0.738222 21.9177 1.25318 22.9999 1.94674 23.9657C2.64693 24.9366 3.53986 25.7525 4.56971 26.3626C5.59357 26.9573 6.71893 27.3569 7.88861 27.5408C8.12819 27.5854 8.36985 27.6134 8.60321 27.6445L8.76501 27.6632L8.99733 27.6808C9.20476 27.6974 9.42257 27.714 9.63103 27.714C9.76586 27.7202 9.89862 27.7234 10.0252 27.7234C10.4935 27.7287 10.961 27.6796 11.4181 27.5771C11.7205 27.5091 12.0152 27.4104 12.2976 27.2826C12.5988 27.15 12.8746 26.9661 13.1128 26.7391C13.2515 26.6067 13.3641 26.4495 13.4447 26.2755C13.4935 26.1664 13.5219 26.0494 13.5287 25.9301C13.536 25.7761 13.4954 25.6235 13.4125 25.4935C13.3389 25.3837 13.2409 25.2925 13.1263 25.2269C13.0292 25.1708 12.9243 25.1296 12.8151 25.1045C12.6447 25.068 12.4707 25.0513 12.2965 25.0548C12.1109 25.0548 11.9335 25.0631 11.7614 25.0724C11.6514 25.0776 11.5425 25.0838 11.4315 25.0869C11.2117 25.0952 11.0167 25.0983 10.8238 25.0983H10.608C10.0685 25.0949 9.53032 25.0449 8.9994 24.949C8.49389 24.8543 8.00815 24.6744 7.56294 24.4169C7.12628 24.1583 6.73981 23.8232 6.42207 23.4275C6.10152 23.0208 5.83967 22.5711 5.64421 22.0916C5.59857 21.9785 5.55397 21.8603 5.50937 21.7286V21.7234L7.41982 21.7359C7.46033 21.7359 7.49934 21.7205 7.52885 21.6927C7.55835 21.665 7.57612 21.6269 7.5785 21.5865C7.58887 21.4071 7.59821 21.2048 7.60754 21.0057V20.9528C7.6314 20.4529 7.65006 19.9872 7.65006 19.9644V19.9385L7.67185 19.1533L7.67703 19.1481H9.94425C10.0158 19.4728 10.0988 19.7922 10.189 20.1044C10.2585 20.3378 10.3228 20.5431 10.3819 20.7267C10.4037 20.7931 10.4255 20.8584 10.4483 20.9238L10.4701 20.985C10.5676 21.2702 10.6506 21.4838 10.72 21.6446C10.7346 21.6776 10.7584 21.7058 10.7886 21.7257C10.8188 21.7455 10.854 21.7563 10.8901 21.7566L13.5266 21.7742C13.5466 21.7744 13.5664 21.7705 13.5849 21.763C13.6034 21.7555 13.6202 21.7443 13.6343 21.7302C13.6485 21.7162 13.6598 21.6994 13.6674 21.681C13.6751 21.6626 13.6791 21.6428 13.6791 21.6228V20.6894L13.6251 19.2322V19.227H14.5057V21.6187C14.5057 21.6585 14.5213 21.6967 14.5493 21.725C14.5772 21.7533 14.6152 21.7695 14.655 21.7701L16.9907 21.7856C17.0761 21.7854 17.1595 21.7594 17.2299 21.7109C17.3002 21.6624 17.3542 21.5937 17.3848 21.5139C18.2042 19.4188 18.6792 17.3653 18.7974 15.4009C18.8747 14.3484 18.8522 13.291 18.73 12.2428Z" fill="#192038"/>
<path d="M17.8763 15.3434C17.7615 17.2201 17.3805 19.0709 16.7448 20.8403C16.7347 20.8684 16.7163 20.8927 16.692 20.91C16.6677 20.9272 16.6387 20.9366 16.6089 20.9368L15.5448 20.944C15.5109 20.944 15.4785 20.9306 15.4546 20.9067C15.4306 20.8827 15.4172 20.8503 15.4172 20.8165V20.2979C16.5477 18.8936 16.751 15.6089 16.78 14.9586C16.786 14.9146 16.7809 14.8697 16.7654 14.8281C16.7498 14.7865 16.7242 14.7494 16.6908 14.72C16.644 14.6833 16.5864 14.6629 16.5269 14.662C16.2314 14.662 16.1639 15.0945 16.0405 15.8806C15.8943 16.8141 15.6734 18.2319 14.964 18.3159H13.6157L13.5202 15.7375C13.5171 15.6631 13.4855 15.5927 13.4321 15.5408C13.3787 15.489 13.3074 15.4595 13.2329 15.4585H13.2267C13.1509 15.4574 13.0777 15.4859 13.0226 15.538C12.9676 15.5902 12.9351 15.6618 12.9322 15.7375L12.7444 20.8341C12.7409 20.8672 12.7253 20.8978 12.7006 20.9202C12.676 20.9426 12.6439 20.9551 12.6106 20.9554L11.505 20.9627L11.4594 20.8652L11.3277 20.5707C11.2437 20.3757 11.1617 20.1755 11.085 19.9764C10.9294 19.575 10.7935 19.1653 10.6784 18.7598C10.5633 18.3542 10.4658 17.93 10.3849 17.5038C10.304 17.0962 10.2376 16.6658 10.1858 16.2219C10.1771 16.1532 10.1434 16.0902 10.0912 16.0448C10.0389 15.9995 9.97181 15.975 9.90263 15.976C9.86605 15.9767 9.82997 15.9847 9.79649 15.9995C9.76301 16.0143 9.73281 16.0356 9.70765 16.0621C9.68223 16.0886 9.66227 16.1198 9.64892 16.1539C9.63558 16.1881 9.6291 16.2246 9.62986 16.2613C9.64023 16.7228 9.6672 17.175 9.71076 17.6096C9.73254 17.8035 9.76054 18.013 9.79684 18.2422H8.02745C8.02745 18.2422 8.02123 18.2422 8.02745 18.236C8.09596 18.1271 8.15862 18.0145 8.21518 17.8989C8.37894 17.5718 8.49356 17.2223 8.55537 16.8618C8.61962 16.5031 8.6315 16.1369 8.59063 15.7748C8.54881 15.4262 8.47237 15.0826 8.36245 14.7491C8.24761 14.4085 8.08337 14.0867 7.87499 13.7939C7.76104 13.6468 7.63474 13.5098 7.49747 13.3842L7.43316 13.3282C7.32413 13.2248 7.20573 13.1317 7.07949 13.0502C6.78542 12.8488 6.45823 12.7007 6.11286 12.6125C5.83676 12.5381 5.55246 12.4984 5.26654 12.4943C5.21054 12.4943 5.15349 12.4943 5.09645 12.5005C5.04887 12.502 5.00303 12.5187 4.96568 12.5482C4.92833 12.5777 4.90145 12.6185 4.88902 12.6644C4.88223 12.6928 4.88151 12.7223 4.88691 12.751C4.8923 12.7797 4.9037 12.8069 4.92034 12.8309C4.93698 12.8549 4.9585 12.8751 4.98349 12.8902C5.00847 12.9053 5.03636 12.9149 5.06533 12.9185C5.64681 13.0019 6.19292 13.2478 6.64078 13.6279C7.06354 13.9957 7.36026 14.4869 7.48917 15.0322C7.56442 15.3072 7.61236 15.589 7.6323 15.8734C7.64994 16.1493 7.63216 16.4264 7.5794 16.6979C7.52894 16.9702 7.44535 17.2352 7.33048 17.4872C7.27324 17.6128 7.20704 17.7341 7.13239 17.8502C7.06603 17.9602 6.99039 18.0643 6.90629 18.1613L6.88554 18.1852C6.80953 18.2706 6.7694 18.3821 6.77353 18.4963L6.81398 19.9349C6.82228 20.246 6.83161 20.5707 6.85236 20.8922C6.85381 20.9066 6.85221 20.9212 6.84765 20.9351C6.84309 20.9489 6.83568 20.9615 6.8259 20.9723C6.81612 20.9831 6.80419 20.9916 6.79088 20.9975C6.77757 21.0033 6.76318 21.0063 6.74864 21.0063L5.3101 21.0156C5.26654 20.8496 5.23024 20.6982 5.2012 20.5561C4.98532 19.4728 4.86936 18.3719 4.85479 17.2673C4.85384 17.2176 4.83641 17.1697 4.80524 17.131C4.77408 17.0924 4.73095 17.0651 4.68262 17.0537C4.66553 17.0503 4.64817 17.0486 4.63077 17.0485C4.58039 17.0485 4.5315 17.0655 4.49198 17.0967C4.45246 17.128 4.42462 17.1716 4.41296 17.2206C4.14899 18.3699 4.10709 19.5591 4.28954 20.7241C4.38005 21.3163 4.53732 21.8963 4.75834 22.4531C4.98015 23.027 5.29019 23.5627 5.67726 24.041C6.0721 24.529 6.5578 24.9358 7.1075 25.2389C7.64825 25.5319 8.23449 25.7318 8.84162 25.8301C9.36821 25.9082 9.90034 25.9429 10.4326 25.9338H10.612C10.9346 25.9338 11.2603 25.9089 11.5745 25.8871C11.8317 25.8695 12.0734 25.8529 12.3078 25.8477H12.3804C12.4637 25.8448 12.5469 25.8525 12.6283 25.8705C12.6864 25.8861 12.7144 25.9079 12.7206 25.9213C12.7238 25.9297 12.7238 25.9389 12.7206 25.9473C12.6809 26.0301 12.6268 26.1052 12.5609 26.1692C12.1896 26.5384 11.643 26.7179 11.2499 26.804C10.868 26.8866 10.478 26.9263 10.0872 26.9222C9.95242 26.9222 9.81344 26.9222 9.66305 26.9108C9.11655 26.8954 8.5721 26.8371 8.03471 26.7365C6.97067 26.5473 5.95088 26.1626 5.02696 25.6019C4.117 25.034 3.33076 24.2887 2.71514 23.4104C2.09797 22.5263 1.63864 21.542 1.3575 20.5012C1.07001 19.454 0.93037 18.3718 0.942638 17.286C0.945844 16.1871 1.06755 15.0917 1.30564 14.0189C1.53686 12.9543 1.93188 11.9319 2.47659 10.9884C3.00939 10.0586 3.76362 9.27476 4.67225 8.70661C5.59491 8.16017 6.64708 7.87081 7.71942 7.86859H7.8418C8.74828 7.86859 9.73669 8.15277 10.7801 8.7118C11.7435 9.23474 12.6312 9.88654 13.4186 10.6492C13.4512 10.6843 13.4907 10.7124 13.5346 10.7317C13.5784 10.7509 13.6258 10.761 13.6737 10.7612C13.6988 10.761 13.7239 10.7582 13.7484 10.7529C13.7929 10.743 13.835 10.7244 13.8722 10.6981C13.9095 10.6719 13.9412 10.6385 13.9655 10.5999C13.9898 10.5614 14.0062 10.5184 14.0138 10.4734C14.0214 10.4285 14.02 10.3825 14.0098 10.3381V10.3246C13.8649 9.65678 13.6668 9.00164 13.4176 8.36539C13.1674 7.71033 12.8315 7.09129 12.4188 6.52444C11.9905 5.93321 11.4383 5.44262 10.8008 5.08694C10.1621 4.74431 9.45937 4.53773 8.73687 4.4802C8.41907 4.44938 8.0999 4.43484 7.78061 4.43664C7.40516 4.43664 7.03178 4.45324 6.68122 4.46983L5.63681 4.52688C5.48227 4.53517 5.32566 4.54243 5.17216 4.54243C5.04237 4.54429 4.91265 4.53562 4.78426 4.5165C4.56231 4.47709 4.50112 4.41279 4.45652 4.19395C4.43368 4.0569 4.4243 3.91795 4.42852 3.77908C4.42702 3.65224 4.44521 3.52593 4.48245 3.40467C4.51871 3.29635 4.57695 3.19668 4.65351 3.11191C4.73007 3.02714 4.82331 2.95909 4.92739 2.91202C5.0472 2.85313 5.17408 2.80991 5.30492 2.78341C5.38167 2.76682 5.61607 2.71704 5.73949 2.70148C5.81081 2.70141 5.88008 2.67764 5.93641 2.63389C5.99273 2.59014 6.03292 2.52891 6.05063 2.45982L6.06308 2.39863C6.13068 2.00662 6.26916 1.6302 6.47172 1.28784C6.65841 0.991209 6.9011 0.84082 7.19151 0.84082H7.2247C7.59703 0.84082 7.85736 0.977726 7.99945 1.24013C8.17784 1.56683 8.22555 2.02422 8.24733 2.381V2.40174C8.25003 2.48978 8.28699 2.5733 8.35033 2.63451C8.41367 2.69572 8.4984 2.72979 8.58648 2.72948H8.62278C8.71198 2.72948 8.80221 2.72948 8.89244 2.72948C9.29219 2.72941 9.69144 2.75748 10.0872 2.81349C10.5715 2.8753 11.0494 2.97942 11.5154 3.12464C11.9765 3.26592 12.4228 3.4514 12.8482 3.67848C13.2669 3.90694 13.6583 4.18216 14.015 4.49887C14.7349 5.16298 15.3537 5.92892 15.8518 6.77232C16.3633 7.62332 16.7806 8.52753 17.0963 9.46893C17.7246 11.3603 17.9893 13.3536 17.8763 15.3434Z" fill="white"/>
<path d="M7.15534 3.04308C7.34496 2.98543 7.44425 2.75966 7.3771 2.5388C7.30996 2.31794 7.10181 2.18563 6.91219 2.24328C6.72257 2.30092 6.62328 2.5267 6.69042 2.74756C6.75757 2.96842 6.96572 3.10073 7.15534 3.04308Z" fill="#192038"/>
<path d="M13.9913 10.2851C14.2672 11.9684 12.3899 11.5961 11.8133 12.6706C11.5384 13.1788 10.6351 14.8227 9.80637 14.3435C8.31598 13.4806 10.6952 10.2136 10.1175 10.0569C9.40395 9.86196 8.41865 12.514 7.39913 12.1479C6.00104 11.6459 7.25082 9.61719 6.82455 9.34753C5.98756 8.82895 5.40468 11.5785 4.34159 11.5785C3.73797 11.5785 3.16338 10.8742 3.11567 10.1783C3.11554 10.1718 3.11323 10.1656 3.10914 10.1605C3.10504 10.1555 3.09938 10.152 3.09305 10.1506C3.08673 10.1492 3.08011 10.1499 3.07425 10.1526C3.06839 10.1554 3.06362 10.1601 3.06071 10.1658C1.57654 12.6841 5.30407 13.4121 5.17754 14.5489C5.02093 15.9604 2.87713 15.5943 2.87713 16.4313C2.87713 17.2683 4.34989 18.3967 2.26624 19.9576C2.2596 19.9629 2.25151 19.9659 2.24307 19.9664C2.23463 19.9669 2.22624 19.9648 2.21902 19.9605C2.2118 19.956 2.20609 19.9495 2.20267 19.9418C2.19925 19.9341 2.19827 19.9255 2.19986 19.9172C2.29839 19.4702 2.54109 17.7734 0.734362 16.9945L0.416992 16.6294C0.416992 16.6294 0.624425 7.46924 7.56508 7.46924C11.1173 7.4682 13.9913 10.2851 13.9913 10.2851Z" fill="#192038"/>
</g>
<path d="M29.5961 20.3876C32.6037 20.3876 34.6968 18.9448 34.839 15.8763H30.6528C30.5512 16.425 30.1651 16.7298 29.6164 16.7298C29.2507 16.7298 28.9458 16.5672 28.7223 16.2421C28.4988 15.9169 28.3768 15.4496 28.3768 14.9009C28.3768 14.3319 28.4988 13.9051 28.7426 13.5597C28.9865 13.2142 29.3116 13.0313 29.718 13.0313C30.287 13.0313 30.6731 13.3158 30.7951 13.8848H34.9813C34.839 10.8163 32.7256 9.37354 29.6977 9.37354C27.6656 9.37354 26.0399 10.0848 25.0848 11.4666C24.4752 12.3404 24.1094 13.4987 24.1094 14.8806C24.1094 16.2827 24.4548 17.441 25.0848 18.3352C26.0399 19.6967 27.625 20.3876 29.5961 20.3876Z" fill="#192038"/>
<path d="M41.4082 20.3876C43.4606 20.3876 45.1473 19.5544 46.1227 18.1319C46.7324 17.2378 47.0778 16.1405 47.0778 14.8806C47.0778 13.6207 46.7324 12.5233 46.1227 11.6292C45.1473 10.2067 43.4606 9.37354 41.4082 9.37354C39.3557 9.37354 37.6691 10.2067 36.6936 11.6292C36.084 12.5233 35.7385 13.6207 35.7385 14.8806C35.7385 16.1405 36.084 17.2378 36.6936 18.1319C37.6691 19.5544 39.3557 20.3876 41.4082 20.3876ZM41.4082 16.7298C40.9611 16.7298 40.5953 16.5266 40.3515 16.1608C40.1279 15.8357 40.006 15.4089 40.006 14.8806C40.006 14.3522 40.1279 13.9255 40.3515 13.6003C40.5953 13.2346 40.9611 13.0313 41.4082 13.0313C41.8553 13.0313 42.221 13.2346 42.4649 13.6003C42.6884 13.9255 42.8104 14.3522 42.8104 14.8806C42.8104 15.4089 42.6884 15.8357 42.4649 16.1608C42.221 16.5266 41.8553 16.7298 41.4082 16.7298Z" fill="#192038"/>
<path d="M52.8624 20.0625V14.2913C52.8624 13.5394 53.1672 13.2346 53.7159 13.2346C54.163 13.2346 54.3662 13.4987 54.3662 14.0677V20.0625H58.6336V14.2913C58.6336 13.58 58.9791 13.2346 59.4871 13.2346C59.9342 13.2346 60.1374 13.4987 60.1374 14.0677V20.0625H64.4049V13.1533C64.4049 10.7147 63.3482 9.37354 61.438 9.37354C59.8529 9.37354 58.4914 10.288 58.0443 12.3811H57.5363C57.5363 10.3896 56.5812 9.37354 55.301 9.37354C53.8581 9.37354 52.8624 10.3693 52.3747 12.3811H51.8667L52.8624 9.69867H48.5949V20.0625H52.8624Z" fill="#192038"/>
<path d="M70.7031 20.0625V14.2913C70.7031 13.5394 71.0079 13.2346 71.5565 13.2346C72.0036 13.2346 72.2068 13.4987 72.2068 14.0677V20.0625H76.4743V14.2913C76.4743 13.58 76.8198 13.2346 77.3278 13.2346C77.7749 13.2346 77.9781 13.4987 77.9781 14.0677V20.0625H82.2455V13.1533C82.2455 10.7147 81.1888 9.37354 79.2786 9.37354C77.6936 9.37354 76.3321 10.288 75.885 12.3811H75.3769C75.3769 10.3896 74.4219 9.37354 73.1416 9.37354C71.6988 9.37354 70.7031 10.3693 70.2153 12.3811H69.7073L70.7031 9.69867H66.4356V20.0625H70.7031Z" fill="#192038"/>
<path d="M88.2592 20.3673C90.0475 20.3673 91.3277 19.8999 92.1406 19.087C92.6892 18.5384 92.9737 17.8271 92.9737 16.933C92.9737 15.1041 92.039 14.149 89.763 13.6003L88.4218 13.2752C87.7309 13.1126 87.548 12.9501 87.548 12.7062C87.548 12.5843 87.5886 12.4827 87.6699 12.4014C87.7918 12.2795 87.995 12.2185 88.3202 12.2185C88.8485 12.2185 89.2346 12.503 89.2346 12.9907V13.0517H93.0957V12.9907C93.0957 10.6944 91.4293 9.39386 88.4624 9.39386C86.6741 9.39386 85.3329 9.86124 84.5201 10.6741C83.9714 11.2228 83.6869 11.934 83.6869 12.7468C83.6869 14.4945 84.5811 15.5308 86.288 15.9373L88.3608 16.425C88.8282 16.5266 89.0314 16.7298 89.0314 16.994C89.0314 17.1565 88.9908 17.2581 88.9095 17.3394C88.7876 17.4613 88.5844 17.5223 88.2592 17.5223C87.7309 17.5223 87.3854 17.2785 87.3854 16.8314V16.7908H83.565V16.8314C83.565 19.1074 85.2313 20.3673 88.2592 20.3673Z" fill="#192038"/>
<path d="M99.5739 20.3876C101.626 20.3876 103.313 19.5544 104.288 18.1319C104.898 17.2378 105.244 16.1405 105.244 14.8806C105.244 13.6207 104.898 12.5233 104.288 11.6292C103.313 10.2067 101.626 9.37354 99.5739 9.37354C97.5214 9.37354 95.8348 10.2067 94.8593 11.6292C94.2497 12.5233 93.9042 13.6207 93.9042 14.8806C93.9042 16.1405 94.2497 17.2378 94.8593 18.1319C95.8348 19.5544 97.5214 20.3876 99.5739 20.3876ZM99.5739 16.7298C99.1268 16.7298 98.761 16.5266 98.5172 16.1608C98.2936 15.8357 98.1717 15.4089 98.1717 14.8806C98.1717 14.3522 98.2936 13.9255 98.5172 13.6003C98.761 13.2346 99.1268 13.0313 99.5739 13.0313C100.021 13.0313 100.387 13.2346 100.631 13.6003C100.854 13.9255 100.976 14.3522 100.976 14.8806C100.976 15.4089 100.854 15.8357 100.631 16.1608C100.387 16.5266 100.021 16.7298 99.5739 16.7298Z" fill="#192038"/>
<path d="M111.028 20.0625V14.3725C111.028 13.6003 111.313 13.2549 111.719 13.2549C112.146 13.2549 112.369 13.519 112.369 14.2709V15.6324H116.637V12.9501C116.637 10.6131 115.702 9.37354 113.954 9.37354C112.166 9.37354 111.211 10.227 110.276 12.7062H109.768L110.926 9.69867H106.761V20.0625H111.028Z" fill="#192038"/>
<defs>
<clipPath id="clip0_1789_6965">
<rect width="18.8586" height="27.7107" fill="white" transform="translate(0 0.000488281)"/>
</clipPath>
</defs>
</svg>