<svg viewBox="0 0 64 64" xmlns="http://www.w3.org/2000/svg">
  <g transform="matrix(.63257 0 0 .63257 -64.578 -.004)">
    <path d="M108.88 77.67a2.11 2.11 0 0 0 0 3.85l42 19.26a4.48 4.48 0 0 0 1.78.4v-43a4.35 4.35 0 0 0-1.83.4z" fill="#ff761c"/>
    <path d="M152.68 58.18v43a4.47 4.47 0 0 0 1.9-.4l41.91-19.2a2.1 2.1 0 0 0 0-3.85l-42-19.15a4.31 4.31 0 0 0-1.83-.4" fill="#ff8c1e"/>
    <path d="M107.63 21.41a2.1 2.1 0 0 0 1.25 1.93l42 19.26a4.42 4.42 0 0 0 3.36.13l1.17-.53c4.34-2 1.47-.66 41.06-18.8a2.1 2.1 0 0 0 0-3.85L154.51.4a4.45 4.45 0 0 0-3.66 0l-42 19.1a2.13 2.13 0 0 0-1.25 1.92" fill="#00c1ad"/>
    <path d="M152.68 45.41v12.77a4.35 4.35 0 0 0-1.83.4l-42 19.09a2.13 2.13 0 0 0-1.25 1.92V21.41a2.11 2.11 0 0 0 1.25 1.93l42 19.26a4.42 4.42 0 0 0 3.36.13h-.08c-1.3.59-1.5 1.18-1.5 2.64" fill="#d1d1d1"/>
  </g>
</svg>
