<?xml version="1.0" ?>
<svg xmlns="http://www.w3.org/2000/svg" viewBox="0 0 401 376">
	<desc>Created with Sketch.</desc>
	<g fill="none" fill-rule="evenodd">
		<g>
			<g fill="#000">
				<path d="M4.62 140.97c2.6-2.023 5.908-3.018 9.617-3.018 1.92 0 4.628.39 6.3.853.43.107.677.178 1 .142.035.813.21 3.054.497 5.218-.177.247-.714.284-.96.07-.536-2.415-2.138-5.183-7.3-5.183-5.452 0-10.08 3.444-10.08 10.794 0 7.457 4.736 11.577 10.575 11.577 4.595 0 6.627-2.983 7.445-5.078.246-.176.78-.105.924.142-.252 1.85-1.178 4.19-1.71 4.865-.43.07-.856.213-1.25.356-.78.28-3.345.813-5.622.813-3.206 0-6.27-.636-8.866-2.375-2.85-1.955-5.058-5.19-5.058-9.767-.003-3.938 1.776-7.313 4.485-9.408" id="Fill-1" fill="#000"/>
				<path d="M28.2 151.677c0-5.585 4.196-9.852 9.96-9.852 6.464 0 9.712 4.66 9.712 9.572 0 5.638-4.31 9.74-9.712 9.74-6.212 0-9.96-4.437-9.96-9.46m16.873.587c0-4.607-2.043-9.575-7.39-9.575-2.908 0-6.686 1.98-6.686 8.093 0 4.132 2.018 9.488 7.526 9.488 3.362 0 6.55-2.51 6.55-8.006" fill="#000"/>
				<path d="M70.59 155.944c0 .836 0 4.157.083 4.884-.053.167-.225.31-.528.31-.336-.476-1.15-1.452-3.585-4.216l-6.493-7.367c-.753-.87-2.656-3.154-3.244-3.768h-.058c-.108.335-.14.977-.14 1.813v6.084c0 1.31.032 4.94.508 5.775.165.31.724.476 1.427.53l.866.086c.166.222.14.557-.055.694-1.258-.052-2.237-.082-3.274-.082-1.176 0-1.93.03-2.91.082-.197-.137-.226-.53-.056-.694l.753-.087c.646-.084 1.094-.25 1.234-.558.39-1.004.364-4.41.364-5.748v-8.07c0-.778-.03-1.364-.618-2.008-.39-.39-1.06-.585-1.735-.67l-.473-.052c-.17-.168-.17-.587.05-.7 1.177.083 2.662.083 3.165.083.447 0 .92-.027 1.288-.084.556 1.423 3.863 5.108 4.785 6.14l2.714 3.044c1.932 2.148 3.302 3.708 4.62 5.05h.054c.114-.14.114-.588.114-1.172v-5.97c0-1.313-.03-4.94-.56-5.777-.167-.25-.617-.417-1.736-.56l-.476-.052c-.195-.167-.168-.616.055-.7 1.29.056 2.24.084 3.305.084 1.202 0 1.93-.028 2.882-.085.225.142.225.53.055.7l-.394.054c-.894.14-1.455.36-1.567.585-.477 1.004-.422 4.467-.422 5.753v6.666h.002" fill="#000"/>
				<path d="M95.297 155.944c0 .836 0 4.157.085 4.884-.055.167-.227.31-.533.31-.337-.476-1.148-1.452-3.584-4.216l-6.49-7.367c-.756-.87-2.658-3.154-3.25-3.768h-.052c-.113.335-.14.977-.14 1.813v6.084c0 1.31.027 4.94.503 5.775.166.31.726.476 1.427.53l.87.086c.167.222.137.557-.056.694-1.26-.052-2.24-.082-3.275-.082-1.177 0-1.933.03-2.912.082-.196-.137-.224-.53-.054-.694l.756-.087c.64-.084 1.092-.25 1.23-.558.393-1.004.363-4.41.363-5.748v-8.07c0-.778-.028-1.364-.616-2.008-.394-.39-1.065-.585-1.736-.67l-.476-.052c-.168-.168-.168-.587.055-.7 1.177.083 2.657.083 3.163.083.445 0 .92-.027 1.286-.084.56 1.423 3.866 5.108 4.787 6.14l2.713 3.044c1.93 2.148 3.305 3.708 4.62 5.05h.052c.113-.14.113-.588.113-1.172v-5.97c0-1.313-.03-4.94-.56-5.777-.164-.25-.612-.417-1.734-.56l-.475-.052c-.194-.167-.17-.616.054-.7 1.287.056 2.238.084 3.302.084 1.207 0 1.933-.028 2.884-.085.223.142.223.53.055.7l-.39.054c-.9.14-1.457.36-1.57.585-.475 1.004-.42 4.467-.42 5.753v6.666h.002" id="Fill-4" fill="#000"/>
				<path d="M104.947 146.46c0-2.905-.053-3.322-1.706-3.517l-.447-.057c-.167-.11-.112-.614.053-.697 1.204.052 2.156.082 3.305.082h5.26c1.79 0 3.444 0 3.78-.083.167.474.335 2.484.447 3.712-.112.167-.56.222-.7.053-.423-1.31-.674-2.29-2.13-2.65-.587-.142-1.483-.167-2.713-.167h-2.015c-.842 0-.842.053-.842 1.116v5.583c0 .78.085.78.924.78h1.624c1.175 0 2.04-.054 2.38-.166.334-.11.527-.28.668-.975l.227-1.146c.14-.17.62-.17.725.026 0 .67-.108 1.76-.108 2.82 0 1.005.108 2.064.108 2.678-.108.195-.588.195-.724.027l-.252-1.087c-.112-.502-.308-.92-.866-1.06-.39-.11-1.064-.14-2.156-.14h-1.624c-.84 0-.924.03-.924.75v3.936c0 1.48.085 2.43.533 2.904.336.335.925.642 3.388.642 2.154 0 2.965-.115 3.58-.422.506-.277 1.262-1.255 1.99-2.706.196-.142.587-.055.7.197-.198.974-.9 3.124-1.262 3.877-2.52-.055-5.008-.082-7.5-.082h-2.517c-1.206 0-2.157.027-3.807.082-.168-.082-.225-.53-.055-.698l.92-.085c1.596-.14 1.736-.556 1.736-3.487V146.46h.003" fill="#000"/>
				<path d="M125.262 144.2c2.043-1.59 4.644-2.373 7.553-2.373 1.513 0 3.64.307 4.955.67.336.084.53.14.78.112.034.64.17 2.4.397 4.1-.143.198-.56.223-.756.054-.42-1.893-1.68-4.073-5.735-4.073-4.284 0-7.922 2.71-7.922 8.487 0 5.86 3.723 9.096 8.312 9.096 3.61 0 5.205-2.344 5.85-3.99.194-.14.617-.085.727.112-.197 1.45-.923 3.294-1.346 3.823-.336.055-.67.165-.98.28-.615.224-2.63.64-4.42.64-2.52 0-4.926-.5-6.966-1.87-2.24-1.534-3.974-4.07-3.974-7.67 0-3.102 1.398-5.753 3.526-7.4" id="Fill-6" fill="#000"/>
				<path d="M153.073 156.505c0 2.93.057 3.346 1.68 3.486l.896.086c.165.11.112.614-.056.697-1.595-.053-2.542-.083-3.665-.083-1.12 0-2.102.03-3.892.083-.166-.083-.225-.557 0-.697l1.01-.085c1.59-.14 1.73-.556 1.73-3.485v-12.47c0-.867 0-.897-.837-.897h-1.54c-1.2 0-2.74.055-3.442.7-.668.613-.95 1.227-1.257 1.924-.224.167-.614.028-.727-.195.448-1.256.87-3.043 1.064-4.16.085-.052.448-.082.53 0 .17.897 1.092.867 2.38.867h11.336c1.51 0 1.762-.053 2.18-.78.14-.056.446-.03.504.084-.308 1.143-.503 3.403-.42 4.244-.113.222-.59.222-.727.052-.083-.7-.28-1.73-.7-2.037-.642-.474-1.706-.7-3.246-.7h-1.985c-.838 0-.815.03-.815.948v12.42h-.002" fill="#000"/>
				<path d="M167.624 146.51c0-2.955-.057-3.43-1.71-3.57l-.698-.056c-.168-.11-.113-.614.055-.697 1.4.055 2.352.083 3.524.083 1.122 0 2.073-.028 3.472-.083.168.083.226.587.056.697l-.7.057c-1.65.14-1.706.615-1.706 3.57v9.938c0 2.956.055 3.35 1.707 3.545l.7.083c.166.112.11.616-.057.7-1.397-.056-2.348-.084-3.472-.084-1.172 0-2.123.028-3.523.083-.167-.083-.224-.532-.054-.7l.7-.082c1.65-.194 1.708-.59 1.708-3.545v-9.937" id="Fill-8" fill="#000"/>
				<path d="M181.054 144.2c2.043-1.59 4.645-2.373 7.554-2.373 1.512 0 3.64.307 4.955.67.335.084.528.14.783.112.028.64.168 2.4.39 4.1-.137.198-.557.223-.755.054-.417-1.893-1.677-4.073-5.735-4.073-4.28 0-7.917 2.71-7.917 8.487 0 5.86 3.72 9.096 8.31 9.096 3.61 0 5.205-2.344 5.85-3.99.194-.14.612-.085.725.112-.193 1.45-.924 3.294-1.342 3.823-.337.055-.67.165-.98.28-.616.224-2.632.64-4.422.64-2.52 0-4.927-.5-6.966-1.87-2.24-1.534-3.973-4.07-3.973-7.67-.003-3.102 1.4-5.753 3.524-7.4" fill="#000"/>
				<path d="M215.498 149.278c0-1.73-.055-4.94-.53-5.778-.196-.334-.7-.53-1.398-.586l-.7-.058c-.167-.195-.11-.554.056-.67 1.06.058 2.096.086 3.188.086 1.176 0 1.932-.028 2.94-.085.224.142.197.507.054.67l-.67.057c-.702.055-1.23.307-1.4.67-.39.92-.39 4.13-.39 5.693v3.154c0 2.428-.392 4.994-1.96 6.67-1.206 1.308-3.276 2.037-5.347 2.037-1.93 0-3.862-.365-5.23-1.536-1.484-1.227-2.185-3.264-2.185-6.583v-6.588c0-2.902-.052-3.377-1.677-3.516l-.7-.058c-.167-.11-.114-.584.056-.67 1.398.058 2.35.086 3.47.086 1.15 0 2.07-.028 3.443-.085.165.085.225.56.053.67l-.67.057c-1.626.142-1.676.616-1.676 3.515v6.028c0 4.492 1.394 7.45 5.68 7.45 4.056 0 5.596-3.18 5.596-7.422v-3.208h-.002" id="Fill-10" fill="#000"/>
				<path d="M232.536 156.505c0 2.93.055 3.346 1.68 3.486l.894.086c.17.11.115.614-.055.697-1.593-.053-2.544-.083-3.664-.083s-2.1.03-3.89.083c-.167-.083-.224-.557 0-.697l1.007-.085c1.597-.14 1.738-.556 1.738-3.485v-12.47c0-.867 0-.897-.84-.897h-1.54c-1.2 0-2.743.055-3.44.7-.675.613-.953 1.227-1.258 1.924-.228.167-.62.028-.73-.195.447-1.256.87-3.043 1.065-4.16.085-.052.446-.082.53 0 .164.897 1.09.867 2.38.867h11.334c1.512 0 1.762-.053 2.18-.78.143-.056.446-.03.504.084-.306 1.143-.504 3.403-.42 4.244-.11.222-.59.222-.725.052-.085-.7-.28-1.73-.7-2.037-.646-.474-1.71-.7-3.25-.7h-1.983c-.84 0-.814.03-.814.948v12.42h-.002" fill="#000"/>
				<path d="M51.774 173.904c2.6-2.024 5.908-3.018 9.615-3.018 1.922 0 4.627.392 6.3.852.43.106.678.18 1 .142.034.814.214 3.055.496 5.22-.174.246-.71.285-.96.07-.534-2.416-2.135-5.184-7.3-5.184-5.448 0-10.08 3.442-10.08 10.796 0 7.454 4.738 11.575 10.58 11.575 4.59 0 6.623-2.984 7.44-5.078.25-.178.784-.11.925.14-.245 1.845-1.174 4.188-1.71 4.866-.424.07-.852.213-1.242.353-.782.28-3.35.815-5.626.815-3.208 0-6.27-.638-8.868-2.38-2.848-1.954-5.056-5.185-5.056-9.764-.002-3.936 1.776-7.312 4.486-9.406" id="Fill-12" fill="#000"/>
				<path d="M75.352 184.61c0-5.582 4.2-9.85 9.962-9.85 6.465 0 9.712 4.657 9.712 9.57 0 5.638-4.31 9.738-9.712 9.738-6.214 0-9.962-4.434-9.962-9.458m16.875.585c0-4.604-2.046-9.572-7.39-9.572-2.913 0-6.686 1.982-6.686 8.094 0 4.13 2.016 9.487 7.525 9.487 3.362 0 6.552-2.51 6.552-8.01" fill="#000"/>
				<path d="M102.69 179.392c0-2.928-.058-3.375-1.818-3.515l-.703-.055c-.17-.112-.114-.617.054-.7 1.567.056 2.52.083 3.636.083 1.094 0 2.045-.027 3.442-.082.17.082.228.587.058.7l-.674.054c-1.65.142-1.705.587-1.705 3.515v9.712c0 1.758.084 2.485.59 3.012.305.307.836.64 3.047.64 2.38 0 2.97-.11 3.415-.36.56-.335 1.29-1.34 1.847-2.765.167-.138.702-.026.702.17 0 .306-.785 3.152-1.176 3.906-1.427-.055-4.088-.085-6.97-.085h-2.576c-1.172 0-2.07.03-3.636.086-.168-.085-.225-.53-.055-.7l.838-.08c1.622-.17 1.68-.56 1.68-3.49v-10.044h.002" id="Fill-14" fill="#000"/>
				<path d="M120.957 179.392c0-2.928-.055-3.375-1.817-3.515l-.7-.055c-.167-.112-.114-.617.056-.7 1.567.056 2.516.083 3.638.083 1.092 0 2.04-.027 3.44-.082.166.082.225.587.058.7l-.674.054c-1.652.142-1.71.587-1.71 3.515v9.712c0 1.758.086 2.485.59 3.012.31.307.842.64 3.05.64 2.38 0 2.967-.11 3.41-.36.564-.335 1.293-1.34 1.85-2.765.17-.138.704-.026.704.17 0 .306-.788 3.152-1.18 3.906-1.426-.055-4.082-.085-6.964-.085h-2.574c-1.18 0-2.07.03-3.638.086-.17-.085-.225-.53-.057-.7l.837-.08c1.623-.17 1.678-.56 1.678-3.49v-10.044h.002" fill="#000"/>
				<path d="M139.23 179.392c0-2.9-.058-3.32-1.708-3.515l-.446-.055c-.17-.112-.113-.617.055-.7 1.2.056 2.154.083 3.304.083h5.26c1.79 0 3.442 0 3.78-.082.166.474.336 2.484.448 3.71-.112.167-.56.225-.7.057-.423-1.313-.674-2.287-2.13-2.65-.587-.143-1.483-.168-2.715-.168h-2.015c-.84 0-.84.057-.84 1.116v5.582c0 .78.086.78.925.78h1.624c1.176 0 2.044-.053 2.375-.163.338-.115.533-.282.674-.977l.224-1.145c.14-.168.616-.168.726.027 0 .672-.113 1.76-.113 2.817 0 1.005.113 2.063.113 2.68-.113.192-.588.192-.726.027l-.25-1.09c-.113-.502-.31-.92-.87-1.06-.39-.112-1.063-.14-2.153-.14h-1.623c-.84 0-.924.028-.924.755v3.935c0 1.478.085 2.427.533 2.9.335.335.92.643 3.387.643 2.154 0 2.965-.113 3.58-.42.504-.277 1.262-1.258 1.99-2.71.194-.138.585-.05.7.196-.198.977-.9 3.126-1.262 3.88-2.518-.055-5.007-.085-7.498-.085h-2.52c-1.203 0-2.156.03-3.806.086-.168-.085-.226-.53-.056-.7l.924-.08c1.595-.143 1.735-.56 1.735-3.49v-10.044" id="Fill-16" fill="#000"/>
				<path d="M172.92 190.777c0 1.116.17 1.786.67 1.98.085.087.085.252-.027.337-.336 0-.84.112-1.372.248-1.484.392-3.497.726-5.007.726-3.33 0-6.382-.92-8.537-3.096-1.678-1.675-2.572-3.882-2.572-6.34 0-2.37.784-4.77 2.52-6.61 1.87-1.957 4.643-3.268 8.867-3.268 1.598 0 3.08.307 3.556.42.533.112 1.4.306 1.735.25 0 .918.17 2.373.42 4.046-.08.225-.586.252-.752.085-.788-3.014-2.886-3.962-5.736-3.962-5.43 0-7.81 3.852-7.81 8.04 0 5.357 2.773 9.57 8.394 9.57 1.737 0 2.774-.36 3.08-.838.14-.194.277-.696.277-1.59v-1.114c0-2.343-.08-2.513-1.817-2.708l-1.23-.14c-.225-.112-.198-.613 0-.698.81.055 2.35.085 4.003.085 1.09 0 2.042-.03 2.962-.086.197.112.227.527.032.7l-.448.054c-1.177.14-1.202.92-1.202 2.342v1.567h-.003" fill="#000"/>
				<path d="M182.068 179.392c0-2.9-.055-3.32-1.708-3.515l-.446-.055c-.17-.112-.112-.617.056-.7 1.204.056 2.153.083 3.302.083h5.26c1.79 0 3.443 0 3.778-.082.168.474.338 2.484.45 3.71-.112.167-.56.225-.7.057-.423-1.313-.674-2.287-2.128-2.65-.59-.143-1.485-.168-2.717-.168H185.2c-.836 0-.836.057-.836 1.116v5.582c0 .78.082.78.92.78h1.626c1.172 0 2.038-.053 2.376-.163.336-.115.53-.282.67-.977l.226-1.145c.14-.168.618-.168.726.027 0 .672-.11 1.76-.11 2.817 0 1.005.11 2.063.11 2.68-.11.192-.588.192-.726.027l-.25-1.09c-.113-.502-.31-.92-.87-1.06-.39-.112-1.06-.14-2.152-.14h-1.625c-.84 0-.92.028-.92.755v3.935c0 1.478.08 2.427.53 2.9.335.335.92.643 3.384.643 2.155 0 2.966-.113 3.582-.42.503-.277 1.262-1.258 1.988-2.71.195-.138.586-.05.7.196-.197.977-.898 3.126-1.26 3.88-2.524-.055-5.01-.085-7.502-.085h-2.518c-1.202 0-2.156.03-3.806.086-.168-.085-.22-.53-.055-.7l.92-.08c1.598-.143 1.738-.56 1.738-3.49v-10.044" id="Fill-18" fill="#000"/>
			</g>
			<g>
				<path d="M75.147 30.46h90.27v90.018h-90.27V30.46z" fill="#00254D"/>
				<path d="M80.162 35.462h80.235v80.01H80.162v-80.01z" id="Fill-20" fill="#FFF"/>
				<path d="M158.37 95.396c-1.078-.112-2.057.195-2.85.56-.335.16-.664.416-1.036.547-.405.137-.947.204-1.377.295-.126.028-.287-.02-.39-.03-.936-.077-1.476-.446-2.156-.75-.615-.274-1.277-.52-2.09-.563-1.347-.066-2.124.456-2.98.84-.52.228-1.13.386-1.78.48-.42.06-.857-.027-1.188-.068-1.585-.223-2.433-1.21-4.074-1.302-1.367-.066-2.3.967-3.197 1.368.05 1.073.27 1.652.323 2.716.73-.345 1.41-.714 2.475-.774 1.944-.116 2.978 1.243 4.95 1.353 2.432.13 3.107-1.56 5.476-1.37.458.037 1.023.13 1.448.28.986.346 1.75 1.01 3.03 1.082.983.057 1.994-.523 2.617-.846.48-.25 1.118-.435 1.738-.52 1.354-.183 2.213.266 3.094.697v-3.328c-.612-.293-1.216-.582-2.032-.67" fill="#92C7EB"/>
				<path d="M153.133 102.01c-.338.027-.7-.07-.956-.13-1.356-.322-2.13-1.165-3.666-1.25-.838-.044-1.557.103-2.13.335-.245.098-.482.27-.693.4-.496.3-1.22.58-1.937.624-.665.038-1.485 0-2.025-.173-1.158-.383-2.054-1.176-3.6-1.153-.998.02-1.975.917-2.727 1.28 0 .327.242.13.267.5 0 .017.023.127.023.118l.005.367c.034.5.124.956.158 1.45h.008c.338-.16.7-.31 1.1-.42.398-.11.837-.184 1.322-.195 1.944-.044 2.83 1.215 4.757 1.322 2.087.11 2.868-1.143 4.74-1.317 1.026-.097 1.91.15 2.653.43.79.296 1.593.858 2.664.858 1.025 0 2.213-.752 3.11-1.073 1.267-.45 2.704-.264 3.84.197.12.048.236.122.348.2v-3.007c-.678-.335-1.31-.727-2.275-.777-2.176-.124-2.97 1.267-4.984 1.412" id="Fill-22" fill="#92C7EB"/>
				<path d="M83.558 104.274c.9.323 2.09 1.072 3.112 1.072 1.07 0 1.87-.564 2.66-.86.746-.28 1.63-.524 2.658-.428 1.87.174 2.65 1.428 4.738 1.316 1.683-.09 2.572-1.064 4.07-1.284h.005c.118-.016.254-.016.382-.023.584-.018 1.172.053 1.733.25.903.323 2.096 1.08 3.123 1.08 1.073 0 1.88-.566 2.675-.862.745-.282 1.636-.532 2.668-.433 1.88.174 2.66 1.434 4.756 1.322 1.935-.105 2.827-1.368 4.775-1.327.495.012.932.083 1.34.195.4.11.762.26 1.097.422.003 0 .003.002.007.002.037-.495.13-.953.16-1.46l.006-.366c0 .006.023-.104.023-.12.025-.373.018-.7.02-1.024-.75-.36-1.49-.745-2.486-.763-1.554-.025-2.452.777-3.62 1.16-.542.174-1.367.208-2.036.17-.716-.044-1.442-.326-1.938-.624-.22-.132-.453-.308-.7-.402-.578-.24-1.297-.383-2.14-.34-1.545.085-2.322.936-3.682 1.254-.255.06-.623.16-.96.14-2.025-.15-2.82-1.55-5.015-1.428-1.184.064-1.87.646-2.756.997-.453.18-.993.322-1.554.38-.232 0-.462 0-.674-.008-.712-.046-1.436-.327-1.932-.623-.216-.132-.446-.306-.692-.4-.577-.234-1.294-.378-2.135-.334-1.535.082-2.312.925-3.663 1.246-.255.06-.62.158-.956.133-2.015-.146-2.806-1.538-4.99-1.414-.59.03-1.056.194-1.484.39v3.035c1.064-.344 2.3-.438 3.408-.04" fill="#92C7EB"/>
				<path d="M110.963 114.75c.184.084.368.17.556.25h.022c.16-.668 1.112-1.585 1.418-1.83 1.583-1.283 3.295-2.706 5.522-3.316.494-.14 2.138-.422 2.432-.68.324-.283.512-.805.804-1.124.142-.162.184-.515-.09-.62-.103-.046-3.964-.127-6.103-.143l.032-.025s-21.545-.527-35.39 1.258v6.958h30.798v-.727h-.002" id="Fill-24" fill="#00305E"/>
				<path d="M160.397 115.475v-7.303c-1.08-.22-2.512-.387-4.11-.513-.305-.045-.61-.084-.91-.118-.748-.076-1.55-.028-2.348-.087-2.018-.152-5.516-.255-7.927-.2-1.28-.007-2.275-.004-2.8-.004-.077 0-.157.003-.236.003-.112.002-.172.002-.165.01-.17 0-.34.004-.503.017-1.867.138-3.763.33-5.434-.206-.49-.16-.797-.357-1.01-.772l-.45-.92-.32-8.194c-.245-1.81-.054-3.128-.07-4.726-.01-1.27-.193-.043-.027-1.228.27-2.115 1.584-3.463 2.956-4.52.44-.336.844-.76 1.326-1.042.218.346.547.57.802.867 1.023 1.18 2.335 2.084 4.288 2.33.34.04 1.313-.19 1.75-.028.093.03.305.307.415.375.892.57 1.712 1.385 2.687 1.81.193-.897.452-1.734.383-2.712.5-.06 1.016-.17 1.568-.314 1.298 2.123 6.315 3.27 10.137 2.847v-.84c-.825-.327-1.87-.62-2.186-.86-.232-.177-.69-.303-.834-.557-.113-.195-.035-.454 0-.693 0 0 .174-.098.138-.07.47.174.887.417 1.397.52.485.103.986.155 1.485.178V58.07l-.023-.01c0-.293-.013-.59.022-.848v-10.7c-.322-.068-.49-.405-.646-.586-.14-.145-.265-.264-.39-.417.328-.03.686-.01 1.036-.03v-2.93c-.067-.13-.152-.243-.265-.277-.076-.026-.255-.055-.386-.035-1.134.186-1.667 1.34-2.538 1.808-.405-.254-.73-.515-1.223-.7-.447-.16-.966-.32-1.472-.452.36-.29.798-.502 1.154-.798.89-.722 1.7-1.822 2.266-2.85-1.36-.186-2.99-.493-4.325-.14-.68.178-1.223.602-1.882.87-.158-1.446.03-2.903-.14-4.138-1.344.45-2.51 1.16-3.766 1.737-.508.234-.91.56-1.496.726-.232-.906-.29-1.894-.425-2.843h-4.743l.216.587c.085.234.34.56.377.8.126.685-1.037 1.65-1.7 2.12.52.64.82 1.446.964 2.13l-.126.095c-.39-.185-.8-.352-1.022-.602-.202-.22-1.05-1.998-.988-2.232.06-.236.23-.195.425-.073.122.078.237.165.343.26-.062-.936.112-2.12.094-3.086H126.33c-.066.097-.126.172-.156.204-.023-.05-.05-.125-.083-.203h-3.584c-.05.15-.1.307-.14.49-.16-.14-.296-.316-.427-.49h-3.632c-.014.17-.02.33.013.45.082.32.585.582.808.8.655.64 1.485 2.506 1.32 3.72-.327-.325-.408-.932-.66-1.32-.62-.964-1.425-1.592-2.37-2.23-.813-.547-1.788-1.012-2.8-1.42h-2.67c-.008.124-.013.243-.004.342-.002-.02-.04.132-.037.175 0 .103.02.328.037.557.1 1.325.538 1.15 1.218 1.806.572.545.972 1.33 1.01 2.397l-.104.037c-.173-.165-.317-.35-.49-.52-.972-.96-2.1-2.04-3.624-2.434-2.2-.57-4.667.483-5.65 1.595.587.213 1.966.53 3.384 2.053.304.328.683.745 1.122.882.69.213 1.307-.715 1.666-1.054 0 .002.103 0 .106 0 .036.234.036.49.036.766.995 0 2.112.23 2.73.63 1.17.765 1.963 1.77 2.177 3.355l-.377.046c-.876.115-1.765-.02-2.406-.31-1.07-.485-1.78-1.35-2.092-2.575-.075-.298-.094-.563-.142-.866-.223.712-.67 1.333-1.15 1.805-1.2 1.185-1.727 1.19-2.02 3.373 1.557.633 2.862 1.288 3.586 2.748.085.16.18.316.264.477.163.314.216.644.186.994-.12-.036-.236-.018-.356-.034-.17-.023-.34-.064-.508-.1-.24-.056-.473-.143-.71-.207-.79-.218-1.535-.546-2.047-1.212-.256-.335-.432-.715-.566-1.11-.085-.238-.147-.48-.202-.726-.016-.08-.11-.823-.14-.827-1.35-.2-2.556-.634-3.695-1.076.03-.257.064-.32.142-.486.967.036 1.97-.06 2.79.1.342.067.487.26.832.35.04-.39-.094-.734-.067-1.113.218-2.73-.742-3.49-1.427-4.82-2.707 1.216-3.75 4.282-3.633 6.21.06 1.005.643 2.11.494 3.235-.505-.468-1.123-2.06-1.463-2.816-.163-.365-.27-.922-.595-1.112-.476-.277-2.266-.406-2.86-.486-.158-.023-.31-.023-.383-.04.144.487.2.984.316 1.498.14.67.435 1.393.59 2.053.12.497.22.9.313 1.39 2.185.166 3.398.85 3.94 2.64.166.55-.215.198-.45.07-.643-.362-1.282-.736-2.06-.942-.41-.105-.992-.08-1.323-.314-.597-.42-.997-1.713-2.162-1.383-.57.153-1.01.584-1.43.9.327.31.62.66.943.977.42.403.944.857 1.496 1.11.33.148.61.19.91.347 1.21.636-.326 1.99-1.462 1.388-.583-.3-1.153-.76-1.712-1.146-.44-.307-.69-.76-1.22-1.006.115 1.026-.064 1.904-.106 2.713 0 .068.085.137 0 .173 0 .012.007.097 0 .103.805.47 1.597.9 2.163 1.6.24.296.377 1.015.698 1.215.338.216 1.11-.01 1.393 0 1.747.09 2.77 1.29 3.518 2.402.184.268.34.417.386.832-1.153.048-2.785.27-3.8-.24-.66-.333-1.414-1.206-1.602-1.983-.085-.34-.058-.93-.278-1.147-.136-.128-.366-.18-.527-.275-1.55-.965-3.428-1.343-5.61-1.008-.07.01-.314.062-.385.064.462 1.013 1.027 1.813 1.535 2.75.07.128.142.26.21.38.024.055.08.13.105.175.036.08.027.13.066.207.035.07.147.156.175.21.764-.253 1.855-.396 2.894-.276.377.042.837.152 1.085.347.036.034.068.28.068.28-.228 0-.526.015-.7.034-.507.053-.62.067-1.044.177-.674.163-1.154.364-1.676.66.736.397 1.437.958 2.41 1.146.91.18 2.336.004 3.032.174-.1.66-.354 1.167-.418 1.808-.07.635.103 1.004.103 1.565-.377-.24-.726-.804-1.114-1.148-.54-.483-4.12-3.286-4.848-3.128-.418.085-.745.62-1.046.87-.283.232-.602.418-.905.624-.225.152-.275.21-.034.38.577.41 1.414.966 2.02 1.29.24.125.593.145.802.313.12.092.12.308.143.486-.335.088-.705.143-1.153.177-.997.073-2.025.007-2.856-.106.883 1.42 1.784 3.11 3.14 4.066-.05.04-.01.147-.07.174-.434.195-1.134.314-1.573.454.07.086.098.13.174.207.35.34.688.724 1.088 1.01.48.35 1.338.592 2.158.487.306-.042.607-.138.908-.067-.17.158-.255.188-.524.277-.276.09-.558.15-.94.175-.198.008-.673.008-.977-.073-.243-.068-.416-.275-.767-.24-.607.048-1.232.483-1.742.692-.545.224-1.08.482-1.75.556-.09.692.316.91.704 1.217.72.58 1.664.994 2.822 1.08.354.024.683-.067.982-.067.783-.005 1.49.158 2.16.378-.36.272-.706.545-1.12.767-.156.082-.562.254-.59.453-.046.37.664.747.834 1.006-.35-.01-2.47-.297-2.615-.242-.532.21-.787.81-1.22 1.114-.287.202-.75.364-1.082.48-.524.203-.896.35-1.15.808-.07.124-.077.202-.14.348 1.405.367 3.506 1.148 5.372.935 1.72-.2 2.36-.928 3.628-1.462 1.324-.556 3.68-.41 4.884.214.248.13.464.232.586.484 0 .007.082.133.07.142-.073.057-.09.215-.174.273-.873.664-2.68.245-3.52-.136-.232-.11-.506-.446-.874-.387-.46.085-1.597 1.288-2.09 1.572-.44.248-.964.333-1.357.624-.124.082-.328.32-.35.483-.217 1.386 6.307 1.033 7.527.8.742-.14 1.485-.505 2.133-.762.156-.066.255-.103.38-.176.21-.115.725-.518 1.08-.31.045.02.052.115.07.168.575 1.698-2.957 1.86-3.87 2.51-.73.512-1.353 1.46-1.503 2.534 1.278-.1 2.675-.24 3.877-.38.724-.09 1.533-.104 2.16-.38.93-.42 1.655-1.78 2.825-1.954.43-.062.687-.075 1.082-.14.156-.027.278.005.39 0-.12.305-1.665 2.134-.95 2.434.52.216 1.13.2 1.783.243 2.482.188 3.817-.61 5.3-1.528.535-.336 1.065-.648 1.53-1.046.707-.6 1.434-1.318 2.376-1.67.14-.052.33-.113.526-.07.358.087 1.54 1.132 1.91 1.396.865.614 1.936 1.375 2.483 2.29.19.327.246.652.416 1.007.132.282.367.583.452.942.335 1.388.078.334.07 1.743l-.07 2.315c-.124 3.24-.134 6.643-.42 9.884-.063.738-.005 1.45-.27 2.046-.404.9-1.29 1.42-1.84 2.19-.36.494-.7 1.66-1.16 1.98-.994.69-2.4.856-3.326 1.596-.492.4-1.96 1.87-2.682 3.105h2.974c.266-.436.52-.83.67-1.07.718-1.103 1.754-1.95 2.933-2.568.378-.2.82-.325 1.132-.595.24-.207.303-.576.505-.825.416-.525 1.07-1.123 1.724-1.39 0 .005.086 0 .086 0 0 .164.01.31-.03.44-.15.52-.568.83-.8 1.275-.266.507-.292 1.137-.66 1.54-.206.227-.55.316-.795.504-.38.28-.676.657-.987 1.005-.076.094-.225.135-.292.236-.327.464-.62.96-.91 1.452h25.253c.3-.12.602-.24.898-.356v.356h13.167v.013" fill="#00305E"/>
				<path d="M128.396 38.095c.78.206 1.572.818.56 1.313-.12-.158-.192-.328-.305-.504-.192-.298-.286-.362-.254-.81" id="Fill-26" fill="#FFF"/>
				<path d="M128.65 42.555c.185.025.378.006.454.14.113.194.05.492.103.73.067.312.256.654.315.98.07.37-.04.854 0 1.188.1.844.414 1.657.214 2.44-.303-.14-.37-.235-.56-.453-.3-.344-.67-.637-.977-.978-.11-.12-.302-.257-.353-.417-.2-.633.58-3.124.804-3.63" fill="#FFF"/>
				<path d="M124.768 47.65c.808-.18 2.036 1.782 2.132 2.48-.522-.16-.88-.444-1.33-.634-.72-.298-1.506-.495-2.27-.73.132-.285.208-.317.49-.452.31-.16.656-.594.978-.665" id="Fill-28" fill="#FFF"/>
				<path d="M122.53 37.254c1.024.81 2.05 1.87 1.822 3.63-1.54-.937-2.01-1.286-1.823-3.63" fill="#FFF"/>
				<path d="M122.143 53.51c.627.187 1.285.368 1.963.52.1.384.06.845.138 1.29.073.432.32.73.39 1.22-.926-.2-2.585-1.85-2.49-3.03" id="Fill-30" fill="#FFF"/>
				<path d="M124.664 61.498c-.48-.438-.848-.99-1.404-1.362-.508-.34-1.108-.55-1.606-.905.027-.235.057-.352.103-.524.646.07 2.454.152 2.698.525.106.166.09.402.142.624.095.525.182 1.135.067 1.644" fill="#FFF"/>
				<path d="M116.966 40.322c2.017-.19 5.046 2.035 5.14 3.592-.487 0-1.1.142-1.468-.035-.36-.17-.503-.94-.736-1.26-.61-.833-1.67-1.35-2.73-1.74-.167-.06-.827-.498-.206-.558" id="Fill-32" fill="#FFF"/>
				<path d="M117 70.29c-.09.25-.113.308-.315.422-1.018.55-1.55-.31-1.822-1.045-.01-.034-.032-.39-.032-.39.748.29 1.42.668 2.17 1.014" fill="#FFF"/>
				<path d="M115.844 57.24c.667.197 1.347.444 2.032.696-.085.323-.3.504-.35.773-.07.354-.053.583-.14.835-.5-.362-1.455-1.538-1.542-2.305" id="Fill-34" fill="#FFF"/>
				<path d="M115.463 74.198c.128-.103.24-.245.45-.282.48-.07.857.105 1.193.174.248.053.478.096.698.142.448.08.462.18.315.56-.75.08-1.786.048-2.446-.246-.085-.04-.234-.133-.24-.243-.01-.023.017-.142.03-.105" fill="#FFF"/>
				<path d="M117.7 60.313c.743.458 1.4 1.14 1.646 2.094-1.413 0-1.804-.673-1.647-2.094" id="Fill-36" fill="#FFF"/>
				<path d="M116.86 50.13c.027-.235.048-.35.106-.526.422.057.822.085 1.153.243.252.126.208.396.137.664-.526-.077-.963-.22-1.397-.38" fill="#FFF"/>
				<path d="M118.328 47.44c-.25-.27-.452-.95-.49-1.397-.004-.05.038-.24.038-.24.944.432 2.45 1.337 2.868 2.233.094.204.13.43-.14.314-.607-.268-1.832-.437-2.276-.91" fill="#FFF"/>
				<path d="M120.773 45.24c-.813.163-1.512-.864-.625-.976.715-.094 1.34.834.625.976" fill="#FFF"/>
				<path d="M116.966 55.638c.227.243.35.34.457.73-.487-.098-.832-.334-1.333-.382-.78-.08-1.308.243-1.924 0-.498-.202-.78-.71-1.227-.976-.237-.15-.38-.26-.07-.422.27-.137.782-.24 1.16-.24 1.18-.005 2.34.65 2.936 1.29" fill="#FFF"/>
				<path d="M113.498 48.73c.515.13 1.022.253 1.402.525-.092.406-.237.79-.352 1.15-.037.11-.07.237-.103.31-.288-.268-.908-1.343-.98-1.77-.004-.056.033-.214.033-.214" fill="#FFF"/>
				<path d="M112.66 46.884c1.065-.138.507.774.316 1.187-.35-.167-1.236-1.072-.315-1.186" fill="#FFF"/>
				<path d="M112.103 60.73c.937.577 1.073 1 2.585 1.116-.044.39-.096.488-.418.59-1.69.565-2.32.272-2.167-1.706" fill="#FFF"/>
				<path d="M112.346 66.87c-.35-.074-2.373-.45-1.645-.906.21-.13.592-.245.88-.28.992-.112 1.08.527.766 1.187" fill="#FFF"/>
				<path d="M106.574 63.24c.154-.837.347-1.607.524-2.407.687.337 1.09 1.082 1.68 1.54.335.257.845.41 1.12.73.065.077.056.166.104.278 0 0 .026.157-.07.21-.65.327-2.69-.248-3.358-.35" fill="#FFF"/>
				<path d="M106.992 66.347c-.172 1.18-.97.222-1.397-.07.03-.286.085-.368.18-.554.367.067.672.186 1.005.278.053.017.13 0 .177 0l.07.207c0-.002.034.14-.035.14" fill="#FFF"/>
				<path d="M108.428 69.557c.66.445 1.046 1.132 1.754 1.572.583.364 1.365.563 2.24.657.042.477-.062.484-.494.598-.58.145-1.35.422-2.063.243-.798-.204-1.956-2.115-1.437-3.07" fill="#FFF"/>
				<path d="M103.844 52.74c.062-.274.592-.47.808-.63.274-.2.515-.59.908-.66 1.257-.215 2.632 2.14 3.358 2.723.682.54 1.657.89 2.42 1.327.3.174.457.22.418.56-.646 0-.968.174-1.432.343-.72-1.008-1.563-2.25-2.8-2.72-.337-.128-.914-.36-1.228-.103-.327.26-.322 1.06-.38 1.496-.45-.346-.696-.86-1.12-1.217-.256-.22-.608-.404-.805-.663-.075-.092-.186-.275-.146-.458" fill="#FFF"/>
				<path d="M104.193 56.23c1.133 0 2.18.196 3.043.558.847.353 1.682 1.13 1.928 2.095-2.135.93-4.296.348-5.46-1.084-.31-.38-.584-.87-.697-1.43.276-.054.797-.14 1.186-.14" fill="#FFF"/>
				<path d="M103.04 61.184c-.486-.16-.787-.832-.665-1.362.47.264.956.75.664 1.362" fill="#FFF"/>
				<path d="M101.536 59.653c-.23.018-.335-.358-.418-.493-.21-.34-.44-.832-.772-1.045-.758-.497-1.86-.6-2.625-1.047.337-.305.907-.454 1.472-.525 1.68-.213 2.457.832 3.114 1.675.122.158.476.43.384.768-.05.167-.37.234-.526.316-.138.07-.48.332-.628.35" fill="#FFF"/>
				<path d="M100.068 63.24c.21-.143.44-.276.767-.313.924-.096 1.347.725 1.786 1.153.104.1.35.188.387.344.048.225-.08.396-.142.522-.53-.073-1.407.012-1.857-.206-.24-.114-.207-.433-.386-.59-.24-.22-1.202-.457-.554-.91" fill="#FFF"/>
				<path d="M102.272 66.24c.26.214.246.63.452.91.157.212.616.42.84.56.29.177.404.303.528.66.066.213.085.463.066.73-.422-.235-.717-.647-1.153-.835-.772-.323-1.93-.05-2.63 0-.247-.74-.535-1.543-.767-2.235-.023-.06-.07-.593-.07-.593 1.08.15 2.065.263 2.734.804" fill="#FFF"/>
				<path d="M103.317 73.36c-.278-.02-.682-.044-.98-.143-1.474-.497-2.706-2.003-2.552-3.976.62.384 1.01.966 1.715 1.29.32.15.942.102 1.224.317.062.046.072.314.072.314 0 .72.23.872.8 1.01.048.387.15.65.282.91-.165.112.306.247-.354.277h-.207v.002" fill="#FFF"/>
				<path d="M93.874 71.58c-.025-.398-.085-.916-.278-1.255-.206-.37-.71-.445-.597-.944 1.656 0 3.15.262 4.372.807.524.23.986.564 1.476.832-.053.64-.175 1.143-.32 1.71-.07.265-.193.57-.28.77-.248-.948-.19-1.79-1.156-2.027-1.184-.29-2.227.108-3.218.108" fill="#FFF"/>
				<path d="M97.724 75.87c-.347-.22-.655-.584-.947-.868-.133.156-.267.337-.382.523-.082.133-.12.26-.21.383-.194.274-.502-.07-.7-.214.085-.552 1.398-1.336 2.133-1.427 1.39-.174 2.578.282 3.43.7.304.145.994.34.63.727-.833.894-2.883.876-3.954.177" fill="#FFF"/>
				<path d="M105.034 78.07c-.46.37-.834.84-1.328 1.188-.113.08-.18.16-.28.24.54.168.985.395 1.54.562.004.018.015.156.038.21-1.04.48-2.544.68-3.71.24-.447-.17-.854-.473-1.33-.665.612-1.123 2.44-2.838 4.027-2.964.51-.038 1.67.146 2.03.382.046.04.027.142.07.176-.334.236-.74.383-1.056.63" fill="#FFF"/>
				<path d="M105.772 74.544c.124-.156.188-.227.35-.346.247-.195.45-.42.907-.42.716-.004 1.242.282 1.748.49.436.177.988.322 1.507.418.18.037.4.055.554.07-1.005.815-4.034.395-5.068-.212" fill="#FFF"/>
				<path d="M111.93 84.662c-.124.277-.383.437-.63.595-.045.028-.188.177-.243.172-.11-.003.028-.484.032-.56-.283-.19-.69-.362-1.05-.38-.118-.01-.15.01-.313 0 .174-.468.838-.988 1.4-1.045.728-.087 1.03.694.803 1.217" fill="#FFF"/>
				<path d="M110.11 79.5c-.484.19-.843.507-1.367.66.09-.205.214-.34.42-.52.49-.428.947-.863 1.506-1.225.488-.317 1.474-1.114 2.13-1.153.615-.028 1.144.185 1.4.525.348.463.56 1.05.56 1.856-.518-.213-1.088-.534-1.644-.63-1.15-.195-2.17.15-3.006.486" fill="#FFF"/>
				<path d="M118.61 82.432c-.964.747-2.32 1.425-3.676 1.744-.145.034-.322-.014-.283-.245.04-.19.438-.442.567-.593.202-.245.413-.495.66-.697.342-.272.827-.61 1.334-.7.404-.07.705.118.944.21.154.06.303.092.455.142 0 .016-.013.128 0 .14" fill="#FFF"/>
				<path d="M119.1 66.908c-.09-.174-.052-.433-.032-.632 1.446.38 2.728 1.152 3.353 2.34.203.39.35.774.424 1.292.032.23-.014.406-.07.554.022.007-.14 0-.14 0-.174-.038-.233-.075-.353-.14-.994-.503-1.134-1.665-1.85-2.438-.355-.382-1.08-.506-1.33-.976" fill="#FFF"/>
				<path d="M124.664 83.79c-.315-.24-.607-.572-.95-.765-.744-.424-1.49-.845-2.203-1.258-.178-.103-.454-.144-.56-.31-.15-.24.02-.593.143-.77.1-.155.306-.366.526-.384.245-.025.76.014.978.14.198.105.306.56.423.765.34.598.792.937 1.263 1.396.062.064.09.2.174.24h.037c.156.243.19.624.17.945" fill="#FFF"/>
				<path d="M123.33 74.232c.086-.793.688-1.15.985-1.778.696.878 1.27 2.232 1.643 3.385.092.308.165.63.14.977-.802-.962-1.363-2.234-2.767-2.585" fill="#FFF"/>
				<path d="M126.273 64.814c-.09-.232-.156-.408-.246-.66-.39-1.17.207-2.274.597-3.108.802.706.366 3.298-.35 3.768" fill="#FFF"/>
				<path d="M128.895 71.512c-.085.532-.198 1.295-.352 1.884-.655-.607-.64-2.377-.873-3.387-.117-.508-.432-.904-.597-1.36-.02-.062-.035-.456-.035-.456.22.27.524.74.807.942.243.174.643.19.873.382.414.353.257 1.492.177 1.994" fill="#FFF"/>
				<path d="M129.557 54.8c-.205-.118-.278-.462-.384-.698-.154-.35-.39-.678-.42-1.08.415.326.762.77 1.4.872.57.087 1.148-.252 1.573-.037.228.115.237.436.248.665-.662.174-1.746.662-2.417.28" fill="#FFF"/>
				<path d="M149.22 47.333c.28.016.624-.007.81 0 .115.387-.13 1.297-.632 1.22-.223-.03-.542-.45-.7-.592-.26-.233-.518-.334-.56-.696.456.002.796.053 1.083.07" fill="#FFF"/>
				<path d="M147.613 49.88c.942-.19.655.62.487 1.048-.276-.112-1.294-.882-.487-1.047" fill="#FFF"/>
				<path d="M147.332 62.753c.467-.357 1.145-.616 1.643-.907.212.146.207.167.244.49.238 1.863-1.205 1.254-2.166.834.085-.192.124-.3.278-.417" fill="#FFF"/>
				<path d="M145.27 54.8c.063-.088.235-.12.31-.21.286-.323.504-.632.845-.907.14.07.17.057.278.142-.108.738-.552 1.25-1.122 1.533-.162.087-.327.163-.38-.103-.037-.165.004-.374.07-.454" fill="#FFF"/>
				<path d="M144.71 71.652c-.296.03-.538-.154-.735-.248-1.092-.495.294-.692.698-.87.237-.106.39-.434.667-.49 1.078-.216-.154 1.553-.63 1.608" fill="#FFF"/>
				<path d="M145.473 58.846c-.165.3-.464.55-.66.834-.287-.112-.9-.53-.735-1.042.062-.193.405-.198.593-.278.14-.062.275-.222.458-.243.545-.07.527.413.345.73" fill="#FFF"/>
				<path d="M144.253 50.337c.928-.188.79.802.21.908-.842.144-.757-.8-.21-.908" fill="#FFF"/>
				<path d="M143.24 61.463c.558.26.365.965.206 1.503-.533 0-1.29.005-.942-.595.19-.327.46-.65.735-.907" fill="#FFF"/>
				<path d="M134.247 63.035c.212-.8 1.15-1.288 1.783-1.675.524.843-.967 3.085-1.47 3.7-.13-.505-.267-.973-.35-1.576-.073.016.026-.4.037-.45" fill="#FFF"/>
				<path d="M133.58 47.37c-.068.297-.953.976-1.222 1.15-.034-.206-.048-.45-.034-.663.098-1.322.326-2.474.733-3.522h.108c.094.74.14 1.432.273 2.164.044.228.223.546.143.87" fill="#FFF"/>
				<path d="M136.662 78.596c-.744.96-1.512 1.77-2.73 2.266.09-.486.338-.68.522-1.082.26-.556.574-1.14.807-1.71.22-.538.292-1.03.67-1.395.17.103 1.144 1.31 1.114 1.465-.023.142-.297.34-.382.456" fill="#FFF"/>
				<path d="M135.58 50.16c-.1-.83.917-2.245 1.71-2.2.436.026.85.45 1.158.663.22.156.273.27.38.56-1.067.357-2.14.698-3.248.978" fill="#FFF"/>
				<path d="M139.216 59.996c-.403.24-.584.69-1.117.628-.01-.128-.052-.107 0-.24.088-.262.173-.6.31-.873.105-.206.396-.387.665-.42.258-.035.773-.08 1.016 0 .056.02.08.07.105.14.243.645-.646.565-.98.766" fill="#FFF"/>
				<path d="M141.21 42.726c-.057-.018-.076-.12-.105-.137-.003.024-.035-.047-.035-.072-.018-.174.07-.337.14-.452.366-.614.98-1.12 1.4-1.71.15.06.25.017.282.175.05.265-.174.494-.21.702-.068.323-.02.555-.143.8-.155.298-.847.88-1.33.694" fill="#FFF"/>
				<path d="M141.594 45.346c-.018-.062 0-.24 0-.24.1-.063.188-.184.347-.212.67-.1.98.3.844.807-.51 0-1.068.026-1.19-.354" fill="#FFF"/>
				<path d="M142.047 75.56c-.182-.262.034-.53.21-.63.22-.127.544-.22.842-.242.383-.034.77.016 1.086.07.212.036.687.32.386.556-.262.202-2.236.646-2.525.245" fill="#FFF"/>
				<path d="M147.996 85.535c-.395.183-.622.39-.912.664-.363-.15-.57-.418-.91-.56-.65-.277-1.342-.252-1.71-.806 0 0 0-.223.037-.24.14-.093.562-.157.732-.175 1.032-.118 2.002.15 2.764.386.93.284.678.415 0 .73" fill="#FFF"/>
				<path d="M149.08 73.64c-.495.104-1.286-.324-1.4-.664-.02-.057 0-.346 0-.346.287-.045.71-.052.985-.07.24-.02.717-.042.802.1.163.27-.195.942-.386.98" fill="#FFF"/>
				<path d="M148.626 67.78c-.043-.365-.025-.805.07-1.085.4.048.748.087 1.086.176 1.257.327-.51.91-1.156.91" fill="#FFF"/>
				<path d="M155.272 45.31c.283-.047.697-.283.947-.278.38.004-.854 1.318-1.093 1.363-.5.1-.703-.37-.9-.595-.138-.142-.267-.262-.39-.42.456-.032.955.014 1.435-.07" fill="#FFF"/>
				<path d="M151.6 85.044c-.24-.31-.802-.64-.91-1.042-.17-.605.852-1.572 1.153-1.955.065.238.244.532.28.836.08.674-.307 1.588-.523 2.16" fill="#FFF"/>
				<path d="M152.89 63.663c-.14.424-.26.754-.45 1.112-.748-.117-1.766.08-.806-.727.412-.346.76-.765 1.257-1.013.312.236.107.31 0 .628" fill="#FFF"/>
				<path d="M153.22 50.456c.165-.29.324-.5.506-.758 1.744.818-1.685 2.832-.506.758" fill="#FFF"/>
				<path d="M154.51 68.136c-.96.253-.59-1.125-.2-1.214.723-.17.652 1.095.2 1.214" fill="#FFF"/>
				<path d="M154.994 58.044l-.14-.07c0-.43-.03-.876.108-1.186.113-.275 1.367-1.803 1.602-1.847.24-.047.273.125.25.35-.156 1.182-1.034 2.158-1.82 2.754" fill="#FFF"/>
				<path d="M135.428 40.955l-.126.096c-.388-.184-.8-.352-1.025-.6-.202-.224-1.055-2.004-.99-2.243.062-.236.23-.194.427-.07 1.006.646 1.514 1.856 1.714 2.818" fill="#FFF"/>
				<path d="M157.058 72.385c.418-.538.763-1.114 1.257-1.572 1.21.493-.31 2.16-.91 2.377-.867.3-.584-.505-.347-.805" fill="#FFF"/>
				<path d="M160.17 84.245c-.21.364-.49.747-.803 1.008-.618.513-1.328.823-2.098 1.19-.203-.427-.038-.947.14-1.293.057-.112.103-.29.206-.344.15-.087.327-.053.49-.105.703-.235 1.526-.42 2.1-.77.166.1.044.18-.037.315" fill="#FFF"/>
				<path d="M80.162 99.31c.64-.27 1.347-.458 2.298-.332.618.085 1.262.27 1.742.522.62.323 1.632.9 2.61.848 1.287-.07 2.046-.733 3.036-1.086.423-.15.988-.24 1.446-.275 1.75-.142 2.58.742 3.88 1.164.38.16.828.265 1.415.226.15-.01.297-.032.435-.053 1.804-.21 2.84-1.43 4.697-1.322.143.01.262.035.39.05.525.097 1.047.26 1.45.473.622.326 1.64.905 2.62.853 1.297-.07 2.06-.736 3.053-1.09.427-.152.993-.246 1.45-.283 2.383-.19 3.06 1.51 5.504 1.377 1.982-.11 3.023-1.473 4.974-1.363 1.07.064 1.756.43 2.484.78.053-1.07.104-2.135.147-3.216-.896-.396-1.663-.96-3.038-.884-1.647.087-2.495 1.082-4.086 1.304-.334.044-.77.135-1.196.073-.655-.1-1.266-.254-1.788-.488-.862-.385-1.64-.91-2.992-.84-.818.045-1.484.288-2.1.565-.687.305-1.228.676-2.167.754-.104.01-.265.055-.39.032-.433-.096-.975-.162-1.385-.3-.372-.133-.705-.39-1.04-.55-.805-.37-1.782-.676-2.864-.56-1.69.175-2.486 1.23-4.265 1.355-.19.013-.36.008-.53 0-.61-.095-1.185-.24-1.672-.46-.578-.254-1.125-.58-1.835-.735-.014-.002-.032-.01-.046-.018-.05-.012-.095-.02-.143-.026-.023 0-.042-.008-.062-.01-.09-.016-.175-.025-.265-.028-.193-.022-.4-.034-.625-.018-.813.046-1.48.287-2.096.562-.224.1-.433.204-.644.307l-.44.142s.024.01.054.032c-.326.128-.678.236-1.122.268-.103.01-.266.057-.39.034-.432-.097-.97-.16-1.377-.3l-3.883-1.103c-.47.048-.87.167-1.238.314v3.31h-.008" fill="#92C7EB"/>
				<path d="M80.162 35.462h80.235v80.01H80.162v-80.01zm.81 79.207h78.614V36.272H80.97v78.396z" fill="#FFF"/>
			</g>
		</g>
	</g>
</svg>