<?xml version="1.0" ?>
<svg xmlns="http://www.w3.org/2000/svg" viewBox="0 0 133 57" fill="none">
	<path d="M67.411 14.4116C70.1934 18.9784 77.1236 22.9134 85.4695 25.0995C84.9817 24.7595 84.5907 24.4196 84.2493 24.0302C79.3201 22.3789 75.4646 20.0958 73.6591 17.4722C70.0469 12.0803 76.7326 7.41658 88.5442 7.028C100.404 6.688 113.045 10.7685 116.706 16.1603C118.707 19.1728 117.535 21.9901 114.021 23.9336L113.875 24.5163C119.635 21.9415 121.928 17.6666 119.097 12.9547C114.656 5.66807 99.4776 -0.016387 85.2256 0.421053C71.0226 0.809889 63.0187 7.12467 67.411 14.4116Z" fill="url(#paint0_linear_123_2940)"/>
	<path d="M88.1543 22.039C89.5203 24.1277 92.839 25.8762 96.7441 26.7506C96.6951 26.6539 96.6466 26.5564 96.6466 26.4595C94.0598 25.7795 91.9613 24.6621 91.0329 23.3503C89.3248 20.9702 92.3027 18.784 97.6223 18.4928C102.942 18.2007 108.701 19.9498 110.409 22.3301C111.483 23.8363 110.654 25.2451 108.604 26.1684V26.3625C111.63 25.1963 112.899 23.1075 111.434 20.8727C109.384 17.618 102.454 15.2378 96.0602 15.5293C89.6668 15.869 86.1042 18.784 88.1543 22.039Z" fill="url(#paint1_linear_123_2940)"/>
	<path d="M103.481 25.0507C104.456 25.0507 105.238 25.3904 105.92 26.0217C106.604 26.7024 106.897 27.4791 106.897 28.4517C106.897 29.3739 106.555 30.2002 105.871 30.8799C105.189 31.5601 104.407 31.9001 103.481 31.9001C102.553 31.9001 101.723 31.5601 101.04 30.8799C100.405 30.2002 100.063 29.3739 100.063 28.4517C100.063 27.4791 100.405 26.7024 101.04 26.0703C101.723 25.3904 102.504 25.0507 103.481 25.0507Z" fill="url(#paint2_linear_123_2940)"/>
	<path fill-rule="evenodd" clip-rule="evenodd" d="M37.115 37.2569C34.8433 34.7503 32.0618 33.4972 28.7689 33.4972C25.6787 33.5302 23.0757 34.5489 20.9616 36.5532C18.5545 38.8487 17.3508 41.6059 17.3508 44.8215C17.3508 46.6824 17.7893 48.4364 18.6672 50.0852C19.6258 51.8969 20.9893 53.3427 22.7608 54.4271C24.5958 55.5405 26.5936 56.0995 28.7541 56.0995C30.8821 56.0995 32.8389 55.55 34.6262 54.4508C36.3316 53.4162 37.6711 52.009 38.6467 50.23C39.5883 48.5182 40.0596 46.7639 40.0596 44.9679C40.0596 41.9612 39.0775 39.3917 37.115 37.2569ZM24.7548 41.3263C25.8417 40.0429 27.172 39.401 28.7477 39.401C29.9976 39.434 31.1005 39.8569 32.0591 40.6688C33.3248 41.7572 33.9588 43.1534 33.9588 44.8583C33.9588 46.1764 33.5036 47.3689 32.5953 48.4417C31.589 49.612 30.3061 50.1957 28.7477 50.1957C27.3682 50.1957 26.1739 49.7185 25.1679 48.7577C24.0796 47.7194 23.5364 46.4018 23.5364 44.8097C23.5364 43.4301 23.9417 42.2684 24.7548 41.3263Z" fill="#525252"/>
	<path d="M12.936 55.5091H14.7151V49.6899H13.1304C11.5839 49.6899 10.3847 49.4655 9.53076 49.0112C8.79045 48.608 8.19864 48.0295 7.75498 47.278C7.31043 46.5271 7.08934 45.7151 7.08934 44.8402C7.08934 43.9837 7.30618 43.1849 7.74195 42.4412C8.17742 41.6981 8.76552 41.1234 9.50529 40.7187C10.3609 40.2339 11.5774 39.9914 13.1556 39.9914H14.7151V34.1722H12.8871C11.3536 34.1722 10.2046 34.2457 9.43935 34.3905C7.18841 34.8269 5.25531 35.9257 3.64286 37.6878C1.81575 39.6763 0.903809 42.0604 0.903809 44.8402C0.903809 46.8285 1.39239 48.6553 2.37077 50.3197C3.31582 51.906 4.61186 53.166 6.25914 54.1043C7.27061 54.6697 8.21198 55.0454 9.08441 55.231C9.95559 55.4171 11.2398 55.5091 12.936 55.5091Z" fill="#525252"/>
	<path d="M56.4678 55.509H62.5687V44.2496C62.5687 42.2722 62.2937 40.6068 61.7424 39.2519C61.1918 37.8973 60.3006 36.7099 59.0695 35.6877C57.3032 34.2271 55.2854 33.4972 53.0176 33.4972C51.4622 33.4972 49.9885 33.8621 48.5954 34.5925C47.2823 35.2908 46.1804 36.2397 45.2898 37.4387C44.5932 38.3954 44.1074 39.3932 43.8319 40.4313C43.5567 41.4699 43.4189 42.8147 43.4189 44.47V55.509H49.5198V44.2247L49.52 44.0867C49.5202 44.0056 49.5205 43.9268 49.5212 43.8497L49.5232 43.6321C49.5266 43.3382 49.5331 43.0791 49.5425 42.855C49.5565 42.5195 49.577 42.2621 49.6045 42.0826C49.66 41.7083 49.7857 41.3356 49.9819 40.9611C50.2731 40.4751 50.7098 40.0651 51.2925 39.7317C51.875 39.3995 52.4589 39.232 53.0428 39.232C53.6092 39.232 54.1758 39.3955 54.7426 39.7198C55.3096 40.0452 55.7226 40.4593 55.9819 40.9624C56.305 41.5474 56.4678 42.619 56.4678 44.1774V55.509Z" fill="#525252"/>
	<path d="M79.3867 40.222V34.6896C77.3546 33.8951 75.5987 33.4972 74.1203 33.4972C71.974 33.4972 70.138 34.0482 68.6099 35.1498C66.7566 36.4782 65.8293 38.3176 65.8293 40.666C65.8293 42.627 66.4822 44.2061 67.7903 45.4056C68.5968 46.1512 69.8714 46.7496 71.6153 47.2027C72.8409 47.5114 73.6246 47.7764 73.9636 47.995C74.3026 48.212 74.4724 48.5578 74.4724 49.027C74.4724 50.0308 73.5643 50.5332 71.7492 50.5332C70.8566 50.5332 70.0184 50.4012 69.2323 50.135C68.4455 49.8673 67.3975 49.3617 66.084 48.617V54.6605C68.0521 55.5631 70.1524 56.0152 72.3817 56.0152C74.7253 56.0152 76.621 55.4589 78.0696 54.3427C79.795 53.0158 80.6583 51.2318 80.6583 48.9819C80.6583 46.8813 79.9564 45.1749 78.5527 43.8648C78.0786 43.4301 77.5519 43.0781 76.972 42.8106C76.3921 42.5455 75.5073 42.2326 74.3163 41.8768C73.9786 41.7799 73.682 41.6844 73.4268 41.5907C73.193 41.5051 72.9939 41.421 72.8289 41.3381C72.6932 41.2704 72.5808 41.2037 72.4917 41.1377C72.1737 40.9032 72.0152 40.6091 72.0152 40.2532C72.0152 39.3481 72.8666 38.8948 74.5704 38.8948C76.1254 38.8948 77.7318 39.3375 79.3867 40.222Z" fill="#525252"/>
	<path d="M95.0278 55.5091H96.807V49.6899H95.2227C93.6761 49.6899 92.4768 49.4655 91.6225 49.0112C90.8824 48.608 90.2911 48.0295 89.8475 47.278C89.4021 46.5271 89.1809 45.7151 89.1809 44.8402C89.1809 43.9837 89.3985 43.1849 89.8338 42.4412C90.2696 41.6981 90.8573 41.1234 91.5974 40.7187C92.4529 40.2339 93.6695 39.9914 95.2472 39.9914H96.807V34.1722H94.9788C93.4459 34.1722 92.2963 34.2457 91.531 34.3905C89.2807 34.8269 87.3473 35.9257 85.7349 37.6878C83.9079 39.6763 82.9956 42.0604 82.9956 44.8402C82.9956 46.8285 83.484 48.6553 84.4627 50.3197C85.4085 51.906 86.704 53.166 88.3511 54.1043C89.3627 54.6697 90.3037 55.0454 91.1765 55.231C92.0476 55.4171 93.3317 55.5091 95.0278 55.5091Z" fill="#525252"/>
	<path d="M106.75 34.135H100.6V55.5089H106.75V34.135Z" fill="#525252"/>
	<path fill-rule="evenodd" clip-rule="evenodd" d="M132.429 55.509H126.328V53.7615C124.39 55.0965 122.484 55.7621 120.612 55.7621C118.934 55.7621 117.298 55.2877 115.701 54.335C114.104 53.3979 112.827 52.154 111.866 50.6042C110.775 48.8135 110.23 46.9078 110.23 44.8891C110.23 41.8058 111.351 39.1822 113.596 37.0184C115.742 34.9521 118.312 33.9191 121.306 33.9191C123.794 33.9191 126.03 34.67 128.014 36.1695C129.575 37.3319 130.702 38.6997 131.393 40.2734C132.084 41.8469 132.429 43.8031 132.429 46.1422V55.509ZM121.287 39.8226C119.708 39.8226 118.43 40.4474 117.453 41.694C116.703 42.6334 116.33 43.6936 116.33 44.8772C116.33 46.3676 116.866 47.6222 117.941 48.6419C118.901 49.5672 120.041 50.0271 121.36 50.0271C122.922 50.0271 124.176 49.4035 125.121 48.1559C125.869 47.1687 126.244 46.1089 126.244 44.9734C126.244 43.3879 125.624 42.0589 124.388 40.9888C123.525 40.2444 122.492 39.8556 121.287 39.8226Z" fill="#525252"/>
	<defs>
		<linearGradient id="paint0_linear_123_2940" x1="115.352" y1="33.1277" x2="70.5403" y2="20.4447" gradientUnits="userSpaceOnUse">
			<stop offset="0.171272" stop-color="#05419B"/>
			<stop offset="0.624405" stop-color="#055FBC"/>
			<stop offset="1" stop-color="#048BEC"/>
		</linearGradient>
		<linearGradient id="paint1_linear_123_2940" x1="109.802" y1="30.4054" x2="89.5149" y2="24.7009" gradientUnits="userSpaceOnUse">
			<stop offset="0.171272" stop-color="#05419B"/>
			<stop offset="0.624405" stop-color="#055FBC"/>
			<stop offset="1" stop-color="#048BEC"/>
		</linearGradient>
		<linearGradient id="paint2_linear_123_2940" x1="106.271" y1="34.1262" x2="100.257" y2="33.3509" gradientUnits="userSpaceOnUse">
			<stop offset="0.171272" stop-color="#05419B"/>
			<stop offset="0.624405" stop-color="#055FBC"/>
			<stop offset="1" stop-color="#048BEC"/>
		</linearGradient>
	</defs>
</svg>
