<?xml version="1.0" ?>
<svg xmlns="http://www.w3.org/2000/svg" viewBox="0 0 121 56" fill="none">
	<g fill="black">
		<path d="M36.2972 31.0603C35.4819 30.236 35.0742 29.1762 35.0742 27.9398C35.0742 26.7033 35.4819 25.7024 36.2972 24.8193C37.1125 23.995 38.1607 23.5828 39.3836 23.5828C40.956 23.5828 42.3536 24.4071 43.0525 25.7024L40.8977 26.9388C40.6066 26.3501 40.0825 25.9968 39.3254 25.9968C38.2772 25.9968 37.4619 26.7622 37.4619 27.9398C37.4619 29.1173 38.2189 29.8827 39.3254 29.8827C40.0825 29.8827 40.6066 29.5883 40.8977 28.9407L43.0525 30.1771C42.3536 31.4724 40.956 32.2967 39.3836 32.2967C38.1607 32.3556 37.1125 31.9434 36.2972 31.0603Z"/>
		<path d="M48.061 32.3571C46.8381 32.3571 45.8481 31.9449 44.9745 31.1206C44.1592 30.2964 43.6934 29.2366 43.6934 28.0001C43.6934 26.7637 44.101 25.7628 44.9745 24.9385C45.7898 24.1142 46.8381 23.6432 48.061 23.6432C49.2839 23.6432 50.2739 24.0553 51.1475 24.9385C51.9628 25.7628 52.4287 26.8226 52.4287 28.0001C52.4287 29.2366 52.021 30.2375 51.1475 31.1206C50.3322 31.9449 49.2839 32.3571 48.061 32.3571ZM48.061 29.9431C48.5851 29.9431 49.051 29.7665 49.4004 29.4132C49.7498 29.0599 49.9245 28.5889 49.9245 28.0001C49.9245 27.4114 49.7498 26.9403 49.4004 26.5871C49.051 26.2338 48.5851 26.0572 48.061 26.0572C47.5369 26.0572 47.071 26.2338 46.7216 26.5871C46.3722 26.9403 46.1975 27.4114 46.1975 28.0001C46.1975 28.5889 46.3722 29.0599 46.7216 29.4132C47.071 29.7665 47.5369 29.9431 48.061 29.9431Z"/>
		<path d="M60.8695 24.525C61.4518 25.1138 61.743 25.9381 61.743 27.0567V32.1202H59.2971V27.41C59.2971 26.4091 58.7147 25.8792 57.8995 25.8792C56.9677 25.8792 56.3853 26.468 56.3853 27.5866V32.1202H53.9395V23.8774H56.3853V24.6428C56.8512 23.9362 57.6665 23.6418 58.7148 23.6418C59.53 23.6418 60.2871 23.9362 60.8695 24.525Z"/>
		<path d="M68.4409 23.8184H71.1779L68.1497 32.0612H65.3544L62.3262 23.8184H65.0632L66.7521 29.0585L68.4409 23.8184Z"/>
		<path d="M74.0272 28.9407C74.3184 29.7061 74.959 30.1182 76.0072 30.1182C76.706 30.1182 77.1719 29.8827 77.5795 29.4706L79.5595 30.5893C78.7443 31.7079 77.5795 32.2967 76.0072 32.2967C74.6095 32.2967 73.5613 31.8846 72.6878 31.0603C71.8725 30.236 71.4648 29.1762 71.4648 27.9398C71.4648 26.7033 71.8725 25.6435 72.6878 24.8193C73.5031 23.995 74.5513 23.5828 75.8325 23.5828C76.9972 23.5828 77.9872 23.995 78.8025 24.8193C79.6178 25.6435 79.9672 26.7033 79.9672 27.9398C79.9672 28.293 79.909 28.6463 79.8507 28.9407H74.0272ZM77.4631 27.1155C77.2301 26.2323 76.6478 25.8202 75.716 25.8202C74.7843 25.8202 74.2019 26.2323 73.9107 27.1155H77.4631Z"/>
		<path d="M83.8756 25.2918C84.1667 24.232 85.215 23.6432 86.3215 23.6432V26.4693C85.7391 26.3516 85.1567 26.4693 84.6326 26.7637C84.1085 27.0581 83.8756 27.588 83.8756 28.3534V32.1216H81.4297V23.8787H83.8756V25.2918Z"/>
		<path d="M92.6034 26.2349H90.9146V29.1787C90.9146 29.8264 91.3804 29.9441 92.6034 29.8853V32.1226C91.031 32.2993 89.9828 32.1226 89.3422 31.6516C88.7599 31.1806 88.4687 30.3563 88.4687 29.1199V26.176H87.1875V23.8209H88.4687V22.2901L90.9146 21.5247V23.8798H92.6034V26.2349Z"/>
		<path d="M94.4739 22.6967C93.8915 22.108 93.8915 21.1659 94.4739 20.5771C95.0562 19.9884 95.988 19.9884 96.5703 20.5771C97.1527 21.1659 97.1527 22.108 96.5703 22.6967C95.988 23.2855 95.0562 23.2855 94.4739 22.6967ZM94.2992 32.1171V23.8743H96.745V32.1171H94.2992Z"/>
		<path d="M104.549 23.8183H106.995V32.0612H104.549V31.2958C103.966 32.0023 103.151 32.2967 102.103 32.2967C100.996 32.2967 100.123 31.8846 99.3659 31.0603C98.6088 30.236 98.2012 29.1762 98.2012 27.9398C98.2012 26.7033 98.5506 25.7024 99.3659 24.8781C100.123 24.0538 101.055 23.5828 102.103 23.5828C103.151 23.5828 103.966 23.9361 104.549 24.5837V23.8183ZM102.627 30.0005C103.209 30.0005 103.675 29.8238 104.025 29.4706C104.374 29.1173 104.549 28.5874 104.549 27.9986C104.549 27.4099 104.374 26.88 104.025 26.5267C103.675 26.1734 103.209 25.9968 102.627 25.9968C102.045 25.9968 101.579 26.1734 101.229 26.5267C100.88 26.88 100.705 27.4099 100.705 27.9986C100.705 28.5874 100.88 29.1173 101.229 29.4706C101.579 29.8238 102.045 30.0005 102.627 30.0005Z"/>
		<path d="M109.259 25.352L109.026 24.9987H108.91V25.352H108.677V24.2333H109.084C109.201 24.2333 109.259 24.2922 109.376 24.3511C109.492 24.4099 109.492 24.5277 109.492 24.6455C109.492 24.7632 109.434 24.881 109.317 24.9398L109.55 25.352H109.259ZM108.968 24.4688V24.7632H109.143C109.201 24.7632 109.259 24.7043 109.259 24.6455C109.259 24.5866 109.201 24.5277 109.143 24.5277L108.968 24.4688ZM109.143 23.9978C109.55 23.9978 109.958 24.3511 109.958 24.8221C109.958 25.2342 109.609 25.6464 109.143 25.6464C108.735 25.6464 108.327 25.2931 108.327 24.8221C108.327 24.3511 108.677 23.9978 109.143 23.9978ZM109.143 23.8212C108.619 23.8212 108.211 24.2333 108.211 24.7632C108.211 25.2931 108.619 25.7052 109.143 25.7052C109.667 25.7052 110.074 25.2931 110.074 24.7632C110.074 24.2922 109.667 23.8212 109.143 23.8212Z"/>
		<path d="M20.5029 18.1128C18.8141 18.1717 17.2418 18.5838 15.9023 19.4081C17.3 18.5838 18.8141 18.1717 20.5029 18.1128Z"/>
	</g>
	<g fill="black">
		<path d="M27.4337 35.1873L26.0361 34.0097C24.5802 35.305 22.7167 36.0704 20.7367 36.0704C18.5819 36.0704 16.6019 35.2462 15.0878 33.7153C13.5737 32.1845 12.7584 30.1827 12.7584 28.0042C12.7584 25.8258 13.5737 23.8239 15.0878 22.2931C16.6019 20.7623 18.5819 19.938 20.7367 19.938C22.309 19.938 23.7649 20.409 25.0461 21.2333L26.2108 19.8202C25.9778 19.7025 25.8031 19.5259 25.5702 19.4081C24.1725 18.5838 22.6002 18.1717 20.9696 18.1128C20.9114 18.1128 20.7949 18.1128 20.7367 18.1128C20.6784 18.1128 20.5619 18.1128 20.5037 18.1128C18.8149 18.1717 17.2425 18.5838 15.9031 19.4081C15.1461 19.8202 14.4472 20.409 13.8067 20.9978C11.9431 22.8819 10.9531 25.3547 10.9531 28.0042C10.9531 30.6537 11.9431 33.1266 13.8067 35.0106C14.4472 35.6583 15.1461 36.1882 15.8449 36.6003C17.2425 37.4246 18.8149 37.8368 20.4455 37.8956C20.5037 37.8956 20.6202 37.8956 20.6784 37.8956C20.7367 37.8956 20.8531 37.8956 20.9114 37.8956C22.542 37.8368 24.1143 37.4246 25.5119 36.6003C26.2108 36.1882 26.8514 35.7172 27.4337 35.1873Z"/>
		<path d="M18.2324 28.004C18.2324 29.3582 19.3389 30.4768 20.6783 30.4768C22.0177 30.4768 23.1242 29.3582 23.1242 28.004C23.1242 26.6498 22.0177 25.5311 20.6783 25.5311C19.3389 25.5311 18.2324 26.5909 18.2324 28.004Z"/>
	</g>
	<g fill="#1aeda1">
		<path d="M27.6706 21.0584L26.5059 22.4715C27.9035 23.9434 28.6606 25.9452 28.6606 28.006C28.6606 29.6545 28.1947 31.2442 27.2629 32.5395L28.6606 33.7171C29.8253 32.0685 30.4659 30.0667 30.4659 28.006C30.5241 25.4153 29.4759 22.9425 27.6706 21.0584Z"/>
		<path d="M16.4264 29.1837C16.6011 29.8903 17.0087 30.5379 17.5329 31.1267C17.6493 31.2444 17.7658 31.3622 17.8823 31.48C18.6393 32.1276 19.5711 32.422 20.5611 32.422C21.5511 32.422 22.4829 32.0687 23.2399 31.48C23.3564 31.3622 23.4729 31.2444 23.5893 31.1267C24.5211 30.2435 24.987 29.1837 24.987 28.0062C24.987 26.8286 24.5211 25.7688 23.7058 24.9445C23.5893 24.8268 23.4729 24.709 23.3564 24.5913C22.5993 24.0025 21.6676 23.6492 20.6776 23.6492C19.6876 23.6492 18.7558 24.0025 17.9987 24.5913C17.8823 24.709 17.7658 24.8268 17.6493 24.9445C17.1252 25.4744 16.7176 26.1221 16.5429 26.8286H14.6211C14.854 25.6511 15.4364 24.5324 16.3099 23.6492C17.4746 22.4717 18.9887 21.824 20.6193 21.824C22.2499 21.824 23.8223 22.4717 24.9287 23.6492C26.0934 24.8268 26.734 26.3576 26.734 28.0062C26.734 29.6548 26.1517 31.1856 24.987 32.3631C23.8223 33.5407 22.3082 34.1883 20.6776 34.1883C19.047 34.1883 17.4746 33.5407 16.3682 32.3631C15.4364 31.48 14.854 30.3613 14.6211 29.1837H16.4264Z"/>
	</g>
</svg>