<svg viewBox="0 0 141 40" fill="none" xmlns="http://www.w3.org/2000/svg"><path d="M73.6667 6.79032H76.7889L80.8389 13.6256H80.8722V6.79032H83.7278V17.8808H80.6112L76.5556 10.9725H76.5278V17.8808H73.6667V6.79032Z" fill="#002366"></path><path d="M92.2611 17.8808H88.7667L85.0945 6.79032H88.2611L90.55 15.0422H90.5833L92.8667 6.79032H96.0389L92.2611 17.8808Z" fill="#002366"></path><path d="M97.4 6.79032H106.694V9.10623H100.439V11.0455H106.156V13.2827H100.439V15.3963H106.861V17.8808H97.4V6.79032Z" fill="#002366"></path><path d="M108.511 6.79032H114.456C116.494 6.79032 118.539 7.67847 118.539 9.91006C118.539 11.1074 117.95 12.2372 116.711 12.6925V12.7206C117.939 13.0129 118.328 14.3226 118.411 15.3794C118.461 15.8628 118.494 17.448 118.9 17.8808H115.894C115.633 17.493 115.6 16.4362 115.55 16.1102C115.467 14.9916 115.289 13.8448 113.85 13.8448H111.55V17.8808H108.511V6.79032ZM111.55 11.6076H114.1C115.017 11.6076 115.506 11.1579 115.506 10.3035C115.506 9.48285 114.822 9.10623 113.972 9.10623H111.556V11.6076H111.55Z" fill="#002366"></path><path d="M122.956 14.154C123.022 15.4581 123.856 15.8797 125.161 15.8797C126.078 15.8797 127.022 15.5706 127.022 14.7443C127.022 13.7493 125.356 13.5807 123.672 13.131C122.022 12.6813 120.261 11.9843 120.261 9.93255C120.261 7.50984 122.828 6.55987 125.011 6.55987C127.317 6.55987 129.683 7.64475 129.683 10.1349H126.644C126.694 9.13997 125.683 8.79709 124.767 8.79709C124.111 8.79709 123.3 9.01631 123.3 9.74706C123.3 10.6183 124.983 10.7589 126.678 11.2086C128.361 11.6582 130.061 12.4059 130.061 14.407C130.061 17.2175 127.544 18.1169 124.983 18.1169C122.322 18.1169 119.922 16.9983 119.922 14.154H122.956Z" fill="#002366"></path><path d="M131.544 6.79032H140.833V9.10623H134.578V11.0455H140.294V13.2827H134.578V15.3963H141V17.8808H131.544V6.79032Z" fill="#002366"></path><path d="M66.5889 6.55987C63.4334 6.55987 60.8778 9.14559 60.8778 12.3384C60.8778 15.5312 63.4334 18.1169 66.5889 18.1169C69.7445 18.1169 72.3 15.5312 72.3 12.3384C72.3 9.14559 69.7445 6.55987 66.5889 6.55987ZM66.5889 15.0815C65.0889 15.0815 63.8778 13.8561 63.8778 12.3384C63.8778 10.8207 65.0889 9.59529 66.5889 9.59529C68.0889 9.59529 69.3 10.8263 69.3 12.3384C69.3 13.8561 68.0889 15.0815 66.5889 15.0815Z" fill="#002366"></path><path d="M53.8778 15.0815C52.3778 15.0815 51.1666 13.8561 51.1666 12.3384C51.1666 10.8207 52.3778 9.59529 53.8778 9.59529C55.0389 9.59529 56.0333 10.3373 56.4166 11.3828H59.5111C59.0611 8.64532 56.7111 6.5655 53.8778 6.5655C50.7222 6.5655 48.1666 9.15122 48.1666 12.344C48.1666 15.5368 50.7222 18.1226 53.8778 18.1226C56.7111 18.1226 59.0611 16.0427 59.5111 13.3052H56.4166C56.0389 14.3395 55.0444 15.0815 53.8778 15.0815Z" fill="#002366"></path><path d="M33.7333 5.86847C30.1556 2.24846 25.2222 0 19.7667 0C8.85001 0 0 8.95447 0 20C0 25.5256 2.22222 30.5171 5.8 34.1315C9.37778 37.7515 14.3111 40 19.7667 40C25.2278 40 30.1611 37.7515 33.7333 34.1315C37.3111 30.5115 39.5333 25.52 39.5333 20C39.5333 14.48 37.3111 9.48848 33.7333 5.86847ZM19.7667 11.4671C15.1333 11.4671 11.3333 15.3176 11.3333 20C11.3333 24.7218 15.1333 28.5722 19.7667 28.5722C23.6056 28.5722 26.8833 25.9415 27.9 22.4002H32.7167C31.6278 28.6116 26.2389 33.3333 19.7667 33.3333C12.5389 33.3333 6.62781 27.3524 6.62781 20C6.62781 12.6869 12.5389 6.70602 19.7667 6.70602C26.2444 6.70602 31.6278 11.4278 32.7167 17.6391H27.9C26.8778 14.0978 23.6056 11.4671 19.7667 11.4671ZM23.5278 20C23.5278 22.0967 21.8722 23.8111 19.7611 23.8111C17.6889 23.8111 15.9945 22.0967 15.9945 20C15.9945 17.9033 17.6889 16.1889 19.7611 16.1889C21.8722 16.1945 23.5278 17.9089 23.5278 20Z" fill="#002366"></path><path d="M48 22H52.1987C52.4574 22 52.727 22 53.0077 22.0056C53.2883 22.0112 53.569 22.0279 53.8441 22.0502C54.1193 22.0781 54.3834 22.1172 54.631 22.1674C54.8787 22.2177 55.0878 22.2958 55.2639 22.4019C55.6436 22.6196 55.9627 22.921 56.2269 23.3061C56.491 23.6913 56.6231 24.1602 56.6231 24.7072C56.6231 25.2933 56.469 25.8012 56.1664 26.231C55.8637 26.6608 55.44 26.9734 54.9007 27.1799V27.2078C55.6161 27.353 56.1608 27.66 56.5406 28.1344C56.9203 28.6089 57.1074 29.1838 57.1074 29.8648C57.1074 30.2667 57.0303 30.6574 56.8817 31.0426C56.7276 31.4221 56.5075 31.7626 56.2104 32.0529C55.9132 32.3487 55.5445 32.5831 55.1098 32.7618C54.6751 32.9404 54.1688 33.0353 53.5965 33.0353H48.0055V22H48ZM49.5408 26.7445H52.6225C53.4974 26.7445 54.1248 26.5994 54.51 26.3036C54.8952 26.0077 55.0878 25.5668 55.0878 24.9807C55.0878 24.6011 55.0217 24.2941 54.8952 24.0597C54.7631 23.8252 54.587 23.6522 54.3614 23.5238C54.1358 23.401 53.8716 23.3229 53.5745 23.2838C53.2773 23.2503 52.9636 23.228 52.628 23.228H49.5463V26.7445H49.5408ZM49.5408 31.7961H53.3984C54.0697 31.7961 54.598 31.6175 54.9887 31.2602C55.3794 30.903 55.572 30.423 55.572 29.8146C55.572 29.4517 55.5005 29.1559 55.3629 28.9159C55.2198 28.6814 55.0383 28.4917 54.8016 28.3521C54.565 28.2126 54.3009 28.1177 53.9982 28.0563C53.6955 28.0005 53.3819 27.9725 53.0572 27.9725H49.5408V31.7961Z" fill="#FF6700"></path><path d="M62.957 22H64.6574L69.1808 33.0353H67.4804L66.2147 29.7141H61.3171L60.0239 33.0353H58.4336L62.957 22ZM61.8069 28.4749H65.7305L63.8044 23.3285H63.7714L61.8069 28.4749Z" fill="#FF6700"></path><path d="M70.5621 22H72.1964L78.2937 30.9477H78.3267V22H79.785V33.0353H78.0956L72.0534 24.1769H72.0203V33.0353H70.5621V22Z" fill="#FF6700"></path><path d="M81.4029 22H82.9437V27.5037L88.8098 22H90.8019L85.9263 26.4487L91 33.0353H89.052L84.8697 27.4534L82.9437 29.1671V33.0353H81.4029V22Z" fill="#FF6700"></path></svg>