<?xml version="1.0" ?>
<svg xmlns="http://www.w3.org/2000/svg" id="f3c3742b-7847-4cd0-8f29-525a2371f735" data-name="Layer 1" viewBox="0 0 283.99 126.77">
	<defs>
		<style>.d8caf6c8-a1e7-4c2a-8fe1-1d1d15131c93{fill:#252525;}</style>
	</defs>
	<path class="d8caf6c8-a1e7-4c2a-8fe1-1d1d15131c93" d="M387.67,287.81a22.49,22.49,0,0,1,5-7.58,35.91,35.91,0,0,1,8.48-6.35,46.51,46.51,0,0,1,22.76-6q6.84,0,8.9,1.07t2.06,4.46a4.14,4.14,0,0,1-.77,2.68,2.59,2.59,0,0,1-2.12,1,7.88,7.88,0,0,1-1.93-.56,38.63,38.63,0,0,0-12.86-2.19q-11,0-17.67,5a15.51,15.51,0,0,0-6.72,13q0,8,7,13.76a25.8,25.8,0,0,0,16.92,5.72,31.33,31.33,0,0,0,15.06-4.17,5.41,5.41,0,0,1,1.34-.6,1.19,1.19,0,0,1,.77.23,0.75,0.75,0,0,1,.28.62,2.59,2.59,0,0,1-1,1.72,20,20,0,0,1-3.38,2.33,40,40,0,0,1-9.9,4.23,39.31,39.31,0,0,1-10.6,1.49q-10.86,0-18-6T384,296.92a13.65,13.65,0,0,1,.84-5.07A12.32,12.32,0,0,1,387.67,287.81Z" transform="translate(-384 -264.77)"/>
	<path class="d8caf6c8-a1e7-4c2a-8fe1-1d1d15131c93" d="M452.73,293.19a4.37,4.37,0,0,1,2.21-2.3,6.51,6.51,0,0,1,3-1.16q1.34,0,3.67,2.73a8.73,8.73,0,0,1,2.33,5.72,9.54,9.54,0,0,1-.11,1.28q-0.11.76-.32,1.81a17.75,17.75,0,0,1-1.14,6.52,18,18,0,0,1-3.61,5.6,25.45,25.45,0,0,1-7,5.49A15.82,15.82,0,0,1,444.5,321a6.82,6.82,0,0,1-5-1.88,5.88,5.88,0,0,1-1.92-4.32,20.91,20.91,0,0,1,4.21-12A30.12,30.12,0,0,1,452.73,293.19Zm0.7,5.21a36.93,36.93,0,0,0-4.39,8.12,20.33,20.33,0,0,0-1.67,6.82,3.18,3.18,0,0,0,.47,1.86,1.53,1.53,0,0,0,1.32.67q1.76,0,4.53-2.95a22.26,22.26,0,0,0,4.42-7.1,11,11,0,0,1-3.21-3.31,9.81,9.81,0,0,1-1.47-4.11h0Z" transform="translate(-384 -264.77)"/>
	<path class="d8caf6c8-a1e7-4c2a-8fe1-1d1d15131c93" d="M476.61,309.23a87.33,87.33,0,0,1,6.59-9.53,31,31,0,0,1,5.74-5.76,5.26,5.26,0,0,1,1.85-1.48,5.14,5.14,0,0,1,2.35-.6,2.89,2.89,0,0,1,2.45,1.28,5.79,5.79,0,0,1,.93,3.47,33.08,33.08,0,0,1-1.44,8.4,32.82,32.82,0,0,0-1.44,7,3.38,3.38,0,0,0,.58,2,2.77,2.77,0,0,1,.58,1.11q0,1.09-2.89,3a9.4,9.4,0,0,1-4.76,1.9,2.33,2.33,0,0,1-2.15-1.48,10.09,10.09,0,0,1-.74-4.37,9.22,9.22,0,0,1,.44-2q0.44-1.49,1.56-5,1-2.68,1.53-4.6a12.78,12.78,0,0,0,.58-2.35,0.25,0.25,0,0,0-.11-0.19A0.38,0.38,0,0,0,488,300q-0.39,0-2,1.88t-4.32,5.55q-2.72,3.67-5.13,7.16l-2.45,3.53a24.31,24.31,0,0,1-2.28,1q-2.24,1-2.35,1a3,3,0,0,1-1.37-1.16,3.39,3.39,0,0,1-1-1.72q0-.28.9-3.77t2.14-7.47q1.41-4.65,2.65-8.09a27.8,27.8,0,0,1,1.62-4,10,10,0,0,1,2.24-1.21,8.64,8.64,0,0,1,2.52-.9,4.28,4.28,0,0,1,2.58.84,2.36,2.36,0,0,1,1.16,1.86q0,0.11-2.42,4.47A43.92,43.92,0,0,0,476.61,309.23Z" transform="translate(-384 -264.77)"/>
	<path class="d8caf6c8-a1e7-4c2a-8fe1-1d1d15131c93" d="M523.67,296.47q-7.86,7.65-11.47,11.46t-3.61,4.47a3.12,3.12,0,0,0,.72,1.27,2.86,2.86,0,0,1,.72,1.48q0,1.48-6.73,7.23l-0.35.28q-1.86,1.58-4.47,3.91a37.6,37.6,0,0,1-3.14,2.65,4.28,4.28,0,0,1-1.39.4,6.87,6.87,0,0,0-1.25.26q-0.74.28-2.12,1a10.4,10.4,0,0,1-3.81,1.2,2.48,2.48,0,0,1-1.69-.53,1.87,1.87,0,0,1-.6-1.48q0-3.46,33.51-35.39l4.23-4q-1.58-5.35-2.89-10.86T517.89,274a3.55,3.55,0,0,0-1.44-1.28,1.93,1.93,0,0,1-1.16-1.6q0-1.55,3.14-2.65,1.19-.42,1.76-0.67a18.1,18.1,0,0,0,2.61-1.69,5.63,5.63,0,0,1,3-1.34,1.72,1.72,0,0,1,1.46.58,3.39,3.39,0,0,1,.44,2,77.89,77.89,0,0,0,.49,8.72,79.89,79.89,0,0,0,1.44,8.62q12.09-11.14,18.34-15.39t10.09-4.25a2.72,2.72,0,0,1,2,.74,2.81,2.81,0,0,1,.74,2.08,5.65,5.65,0,0,1-1.69,3.82,4.73,4.73,0,0,1-3.38,1.85,11.33,11.33,0,0,1-1.39-.18,11.41,11.41,0,0,0-1.78-.18q-2.82,0-6.75,2.75t-15,13.64a33.36,33.36,0,0,0,7.58,14.88q5.35,5.85,10.75,5.85a3.39,3.39,0,0,0,2.61-1,3.94,3.94,0,0,0,.91-2.79v-0.89a6.61,6.61,0,0,1,1.78-4.53,5,5,0,0,1,3.72-2,2.12,2.12,0,0,1,1.79.91,4.17,4.17,0,0,1,.67,2.51,9.62,9.62,0,0,1-1.14,4.81,8.44,8.44,0,0,1-3.4,3.26,31,31,0,0,0-3.6,2.37q-4.93,3.7-9.34,3.7a15.9,15.9,0,0,1-11.79-5.23Q526.3,306.2,523.67,296.47Z" transform="translate(-384 -264.77)"/>
	<path class="d8caf6c8-a1e7-4c2a-8fe1-1d1d15131c93" d="M568.55,320.5a4.34,4.34,0,0,1-3.47-1.6,6.25,6.25,0,0,1-1.35-4.18,10.23,10.23,0,0,1,.53-2.65q0.53-1.76,1.69-4.65,1-2.3,2.4-5.92a41.93,41.93,0,0,1,2.68-6,6.43,6.43,0,0,1,2.58-1.37q1-.35,1.51-0.56a10.92,10.92,0,0,0,1.49-.83,3.57,3.57,0,0,1,1.6-.62,1.37,1.37,0,0,1,1.13.51,2.6,2.6,0,0,1,.42,1.58,11.24,11.24,0,0,1-1.58,4q-1.16,2.19-1.79,3.56a45.45,45.45,0,0,0-2.14,5.44,14,14,0,0,0-.76,3.86,2.56,2.56,0,0,0,.53,1.69,1.66,1.66,0,0,0,1.34.63,5.44,5.44,0,0,0,2.51-1.12,5.71,5.71,0,0,1,2.3-1.12,1.44,1.44,0,0,1,1.44,1.44h0q0,1-2.1,3a9.67,9.67,0,0,1-4.42,2.59,24.19,24.19,0,0,0-3.72,1.35A8.28,8.28,0,0,1,568.55,320.5Zm4.62-29.74a1.36,1.36,0,0,1-1.09-.72,2.89,2.89,0,0,1-.49-1.67,6.29,6.29,0,0,1,1.16-2.3l0.84-1.3a5.81,5.81,0,0,1,2.72-1.78,10.24,10.24,0,0,1,3.74-.83,1.94,1.94,0,0,1,2.08,2.08,5.79,5.79,0,0,1-.32,1.58,23.34,23.34,0,0,1-.84,2.26q-0.49,1.09-2.8,1.88A15.26,15.26,0,0,1,573.18,290.76Z" transform="translate(-384 -264.77)"/>
	<path class="d8caf6c8-a1e7-4c2a-8fe1-1d1d15131c93" d="M599.75,293.19a4.37,4.37,0,0,1,2.21-2.3,6.51,6.51,0,0,1,3-1.16q1.34,0,3.67,2.73a8.73,8.73,0,0,1,2.33,5.72,9.55,9.55,0,0,1-.11,1.28q-0.11.76-.32,1.81a17.75,17.75,0,0,1-1.14,6.52,18,18,0,0,1-3.61,5.6,25.45,25.45,0,0,1-7,5.49,15.82,15.82,0,0,1-7.24,2.08,6.82,6.82,0,0,1-5-1.88,5.88,5.88,0,0,1-1.92-4.32,20.91,20.91,0,0,1,4.21-12A30.12,30.12,0,0,1,599.75,293.19Zm0.7,5.21a36.93,36.93,0,0,0-4.39,8.12,20.33,20.33,0,0,0-1.67,6.82,3.18,3.18,0,0,0,.47,1.86,1.53,1.53,0,0,0,1.32.67q1.76,0,4.53-2.95a22.26,22.26,0,0,0,4.42-7.1,11,11,0,0,1-3.21-3.31,9.81,9.81,0,0,1-1.47-4.11h0Z" transform="translate(-384 -264.77)"/>
	<path class="d8caf6c8-a1e7-4c2a-8fe1-1d1d15131c93" d="M665.23,300.14q-1.41,5.18-2.86,9.46a44.35,44.35,0,0,1-2,5.37,14,14,0,0,1-6.16,4.09q-1.23,0-2.61-1.79a45.11,45.11,0,0,1-3.81-6.81,103.86,103.86,0,0,1-6-15.42,110,110,0,0,1-3.53-16.62q-12,17.48-20,30.92t-7.91,15.84q0,0.35.07,1.05t0.07,1a3.62,3.62,0,0,1-1.76,2.72A5.29,5.29,0,0,1,606,331.3a2.7,2.7,0,0,1-2.24-.9,4.45,4.45,0,0,1-.72-2.8q0-1.48,6.35-12.83t15.26-25.06q7.44-11.49,11-15.95t5.2-4.46a2.47,2.47,0,0,1,1.65.69,10.78,10.78,0,0,1,1.83,2.49,7.73,7.73,0,0,1,1.3,1.92,14.38,14.38,0,0,1,.91,3l0.18,0.7q4.74,20.79,10.33,32.54a69.22,69.22,0,0,0,2.43-9,44.41,44.41,0,0,0,.72-7.86,40.61,40.61,0,0,1-2.24-5,10.75,10.75,0,0,1-.65-3.46,41.22,41.22,0,0,1,2-13.83q2-5.58,4.79-5.58a8.35,8.35,0,0,1,1.28.46,7.35,7.35,0,0,1,1.46.7,2.86,2.86,0,0,1,.81,1.53,14.84,14.84,0,0,1,.25,3.16q0,3.88-.4,8.77T666.4,290.8q0.21,0.91.56,2.51a25.73,25.73,0,0,1,.81,4.79,1.84,1.84,0,0,1-.6,1.51A3.27,3.27,0,0,1,665.23,300.14Z" transform="translate(-384 -264.77)"/>
	<path class="d8caf6c8-a1e7-4c2a-8fe1-1d1d15131c93" d="M392.32,361H384v-2.06h18.91V361h-8.32v22.28h-2.27V361Z" transform="translate(-384 -264.77)"/>
	<path class="d8caf6c8-a1e7-4c2a-8fe1-1d1d15131c93" d="M406.07,357.3h2.06v12.89h0.07a5.57,5.57,0,0,1,2.06-2.25,6,6,0,0,1,3.37-.95,6.78,6.78,0,0,1,3,.58,4.88,4.88,0,0,1,1.84,1.53,5.76,5.76,0,0,1,.93,2.18,12.46,12.46,0,0,1,.26,2.54v9.45h-2.06v-9.35a10.08,10.08,0,0,0-.17-1.87,5,5,0,0,0-.6-1.63,3.15,3.15,0,0,0-1.2-1.15,4.12,4.12,0,0,0-2-.43,5.88,5.88,0,0,0-2.15.4,4.63,4.63,0,0,0-1.75,1.2,5.82,5.82,0,0,0-1.17,2,8.63,8.63,0,0,0-.43,2.87v7.94h-2.06v-26Z" transform="translate(-384 -264.77)"/>
	<path class="d8caf6c8-a1e7-4c2a-8fe1-1d1d15131c93" d="M439.22,380.3a7,7,0,0,1-3,2.61,9.47,9.47,0,0,1-3.9.79,8.47,8.47,0,0,1-3.3-.62,7.44,7.44,0,0,1-2.54-1.74,7.62,7.62,0,0,1-1.63-2.65,9.67,9.67,0,0,1-.57-3.39,9.07,9.07,0,0,1,.58-3.3,7.88,7.88,0,0,1,1.65-2.63,7.75,7.75,0,0,1,2.51-1.75,7.85,7.85,0,0,1,3.2-.64,7.67,7.67,0,0,1,3.21.64,7,7,0,0,1,2.34,1.68,7.14,7.14,0,0,1,1.43,2.39,8,8,0,0,1,.48,2.72v1.44H426.36a7,7,0,0,0,.26,1.67,5.9,5.9,0,0,0,.95,2,6,6,0,0,0,1.84,1.65,5.73,5.73,0,0,0,3,.69,6.64,6.64,0,0,0,3.06-.76,5.51,5.51,0,0,0,2.27-2.06ZM437.64,374a4.69,4.69,0,0,0-.43-2,5.34,5.34,0,0,0-1.17-1.63,5.54,5.54,0,0,0-1.75-1.12,5.65,5.65,0,0,0-2.15-.41,5.26,5.26,0,0,0-2.8.69,6.15,6.15,0,0,0-1.77,1.58,6.29,6.29,0,0,0-.93,1.74,4.59,4.59,0,0,0-.28,1.15h11.28Z" transform="translate(-384 -264.77)"/>
	<path class="d8caf6c8-a1e7-4c2a-8fe1-1d1d15131c93" d="M453.25,371.88q0-.45,0-1.08t-0.05-1.29q0-.65-0.05-1.22t0-.88h2.06q0,0.89.05,1.72a5.36,5.36,0,0,0,.09,1.07h0.1a5.57,5.57,0,0,1,2.06-2.25,6,6,0,0,1,3.37-.95,6.78,6.78,0,0,1,3,.58,4.88,4.88,0,0,1,1.84,1.53,5.76,5.76,0,0,1,.93,2.18,12.46,12.46,0,0,1,.26,2.54v9.45H464.8v-9.35a10.08,10.08,0,0,0-.17-1.87,5,5,0,0,0-.6-1.63,3.15,3.15,0,0,0-1.2-1.15,4.12,4.12,0,0,0-2-.43,5.88,5.88,0,0,0-2.15.4,4.63,4.63,0,0,0-1.75,1.2,5.82,5.82,0,0,0-1.17,2,8.63,8.63,0,0,0-.43,2.87v7.94h-2.06V371.88Z" transform="translate(-384 -264.77)"/>
	<path class="d8caf6c8-a1e7-4c2a-8fe1-1d1d15131c93" d="M486.39,380.3a7,7,0,0,1-3,2.61,9.47,9.47,0,0,1-3.9.79,8.47,8.47,0,0,1-3.3-.62,7.44,7.44,0,0,1-2.54-1.74A7.62,7.62,0,0,1,472,378.7a9.67,9.67,0,0,1-.57-3.39,9.07,9.07,0,0,1,.58-3.3,7.88,7.88,0,0,1,1.65-2.63,7.75,7.75,0,0,1,2.51-1.75,7.85,7.85,0,0,1,3.2-.64,7.67,7.67,0,0,1,3.21.64,7,7,0,0,1,2.34,1.68,7.14,7.14,0,0,1,1.43,2.39,8,8,0,0,1,.48,2.72v1.44H473.53a7,7,0,0,0,.26,1.67,5.9,5.9,0,0,0,.95,2,6,6,0,0,0,1.84,1.65,5.73,5.73,0,0,0,3,.69,6.64,6.64,0,0,0,3.06-.76,5.51,5.51,0,0,0,2.27-2.06ZM484.81,374a4.69,4.69,0,0,0-.43-2,5.34,5.34,0,0,0-1.17-1.63,5.54,5.54,0,0,0-1.75-1.12,5.65,5.65,0,0,0-2.15-.41,5.26,5.26,0,0,0-2.8.69,6.15,6.15,0,0,0-1.77,1.58,6.29,6.29,0,0,0-.93,1.74,4.59,4.59,0,0,0-.28,1.15h11.28Z" transform="translate(-384 -264.77)"/>
	<path class="d8caf6c8-a1e7-4c2a-8fe1-1d1d15131c93" d="M489.24,367.41h2.27l3.85,13.31h0.07l4.44-13.31h2l4.71,13.31h0.07l3.75-13.31h2.06l-4.68,15.88h-2.13l-4.74-13H500.8l-4.44,13h-2.13Z" transform="translate(-384 -264.77)"/>
	<path class="d8caf6c8-a1e7-4c2a-8fe1-1d1d15131c93" d="M524.66,379.23a4.44,4.44,0,0,0,1.93,1.94,5.67,5.67,0,0,0,2.68.67,4.32,4.32,0,0,0,1.31-.21,4,4,0,0,0,1.17-.58,3.18,3.18,0,0,0,.84-0.91,2.29,2.29,0,0,0,.33-1.22,2,2,0,0,0-.71-1.65,5.25,5.25,0,0,0-1.74-.86,20.87,20.87,0,0,0-2.27-.53,9.69,9.69,0,0,1-2.27-.69,4.87,4.87,0,0,1-1.74-1.29,3.49,3.49,0,0,1-.71-2.34,4.09,4.09,0,0,1,.48-2,4.44,4.44,0,0,1,1.25-1.43,5.44,5.44,0,0,1,1.74-.84,7.1,7.1,0,0,1,2-.28,7.42,7.42,0,0,1,3.39.72,5,5,0,0,1,2.22,2.27l-1.86,1.1a4.37,4.37,0,0,0-1.46-1.67,4.15,4.15,0,0,0-2.29-.57,4.2,4.2,0,0,0-1.15.17,4.05,4.05,0,0,0-1.08.48,2.79,2.79,0,0,0-.81.79,1.91,1.91,0,0,0-.33,1.1,1.83,1.83,0,0,0,.7,1.58,5.41,5.41,0,0,0,1.74.81,21,21,0,0,0,2.27.5,9.19,9.19,0,0,1,2.27.67,4.65,4.65,0,0,1,1.74,1.34,3.89,3.89,0,0,1,.7,2.49,4.67,4.67,0,0,1-.46,2.15,4.45,4.45,0,0,1-1.27,1.53,5.68,5.68,0,0,1-1.84.93,7.49,7.49,0,0,1-2.17.31,8.83,8.83,0,0,1-3.76-.79,5.71,5.71,0,0,1-2.63-2.44Z" transform="translate(-384 -264.77)"/>
	<path class="d8caf6c8-a1e7-4c2a-8fe1-1d1d15131c93" d="M547,369.26H542.5v10.35a2.23,2.23,0,0,0,.58,1.65,2.18,2.18,0,0,0,1.62.58,4.76,4.76,0,0,0,1.19-.15,7.65,7.65,0,0,0,1.15-.4l0.17,1.86a12.17,12.17,0,0,1-1.34.38,6.16,6.16,0,0,1-1.34.17,4.94,4.94,0,0,1-1.89-.33,3.34,3.34,0,0,1-1.27-.88,3.43,3.43,0,0,1-.71-1.29,5.49,5.49,0,0,1-.22-1.6V369.26H537v-1.86h3.44v-4.57h2.06v4.57H547v1.86Z" transform="translate(-384 -264.77)"/>
	<path class="d8caf6c8-a1e7-4c2a-8fe1-1d1d15131c93" d="M555.19,388.21a5.93,5.93,0,0,1-1.62,2.44,4.05,4.05,0,0,1-2.75.89,6.3,6.3,0,0,1-1-.09,9,9,0,0,1-1-.22l0.21-1.93,0.91,0.26a3.75,3.75,0,0,0,.95.12,2,2,0,0,0,1-.24,2.6,2.6,0,0,0,.74-0.62,4.23,4.23,0,0,0,.53-0.84,9.81,9.81,0,0,0,.4-0.95l1.44-3.68-6.46-16h2.3L556,380.78l5.12-13.37h2.2Z" transform="translate(-384 -264.77)"/>
	<path class="d8caf6c8-a1e7-4c2a-8fe1-1d1d15131c93" d="M567,357.3H569v26H567v-26Z" transform="translate(-384 -264.77)"/>
	<path class="d8caf6c8-a1e7-4c2a-8fe1-1d1d15131c93" d="M588.91,380.3a7,7,0,0,1-3,2.61,9.47,9.47,0,0,1-3.9.79,8.47,8.47,0,0,1-3.3-.62,7.44,7.44,0,0,1-2.54-1.74,7.62,7.62,0,0,1-1.63-2.65,9.67,9.67,0,0,1-.57-3.39,9.07,9.07,0,0,1,.58-3.3,7.88,7.88,0,0,1,1.65-2.63,7.75,7.75,0,0,1,2.51-1.75,7.85,7.85,0,0,1,3.2-.64,7.67,7.67,0,0,1,3.21.64,7,7,0,0,1,2.34,1.68,7.14,7.14,0,0,1,1.43,2.39,8,8,0,0,1,.48,2.72v1.44H576.06a7,7,0,0,0,.26,1.67,5.9,5.9,0,0,0,.95,2,6,6,0,0,0,1.84,1.65,5.73,5.73,0,0,0,3,.69,6.64,6.64,0,0,0,3.06-.76A5.51,5.51,0,0,0,587.4,379ZM587.33,374a4.69,4.69,0,0,0-.43-2,5.34,5.34,0,0,0-1.17-1.63,5.54,5.54,0,0,0-1.75-1.12,5.65,5.65,0,0,0-2.15-.41,5.26,5.26,0,0,0-2.8.69,6.15,6.15,0,0,0-1.77,1.58,6.29,6.29,0,0,0-.93,1.74,4.59,4.59,0,0,0-.28,1.15h11.28Z" transform="translate(-384 -264.77)"/>
	<path class="d8caf6c8-a1e7-4c2a-8fe1-1d1d15131c93" d="M602,375.35a8.87,8.87,0,0,1,.62-3.35,8,8,0,0,1,1.72-2.65,7.66,7.66,0,0,1,2.65-1.74,9,9,0,0,1,3.37-.62,8.86,8.86,0,0,1,3.35.62,7.78,7.78,0,0,1,4.38,4.38,9.4,9.4,0,0,1,0,6.7,7.78,7.78,0,0,1-4.38,4.38,8.87,8.87,0,0,1-3.35.62,9,9,0,0,1-3.37-.62,7.65,7.65,0,0,1-2.65-1.74,8,8,0,0,1-1.72-2.65A8.86,8.86,0,0,1,602,375.35Zm2.06,0a7.34,7.34,0,0,0,.43,2.53,5.9,5.9,0,0,0,1.25,2.06,6.06,6.06,0,0,0,2,1.39,6.88,6.88,0,0,0,5.23,0,6.08,6.08,0,0,0,2-1.39,5.92,5.92,0,0,0,1.25-2.06,7.65,7.65,0,0,0,0-5.05,5.92,5.92,0,0,0-1.25-2.06,6.07,6.07,0,0,0-2-1.39,6.88,6.88,0,0,0-5.23,0,6.05,6.05,0,0,0-2,1.39,5.9,5.9,0,0,0-1.25,2.06A7.34,7.34,0,0,0,604.11,375.35Z" transform="translate(-384 -264.77)"/>
	<path class="d8caf6c8-a1e7-4c2a-8fe1-1d1d15131c93" d="M624.53,369.26h-3.3v-1.86h3.3v-5.19a6.18,6.18,0,0,1,.46-2.56,4.91,4.91,0,0,1,1.15-1.63,4,4,0,0,1,1.53-.88,5.46,5.46,0,0,1,1.6-.26,5.87,5.87,0,0,1,2.37.41l-0.41,1.79a4.21,4.21,0,0,0-1.86-.34q-2.79,0-2.78,4.23v4.44h3.71v1.86H626.6v14h-2.06v-14Z" transform="translate(-384 -264.77)"/>
	<path class="d8caf6c8-a1e7-4c2a-8fe1-1d1d15131c93" d="M643.07,358.95h2.27v24.34h-2.27V358.95Z" transform="translate(-384 -264.77)"/>
	<path class="d8caf6c8-a1e7-4c2a-8fe1-1d1d15131c93" d="M657.4,361h-8.32v-2.06H668V361h-8.32v22.28H657.4V361Z" transform="translate(-384 -264.77)"/>
</svg>