<?xml version="1.0" encoding="UTF-8"?>
<svg data-bbox="5.49 16.73 69.96 45.79" xmlns="http://www.w3.org/2000/svg" viewBox="0 0 80 80" data-type="color">
    <g>
        <path d="M57.56 53.31c-5.38 0-11.1-1.23-16.63-2.42-5.4-1.16-10.5-2.25-15.18-2.25-5.25 0-9.07 1.4-12.03 4.39l-.1.15-.25.01c-.39 0-.45-.26-3.04-10.15-1.42-5.41-3.07-11.79-4.08-15.69l-.76-2.92.14-.17c3.39-3.99 8.15-5.93 14.54-5.93 5.49 0 11.58 1.4 17.47 2.75 5.86 1.34 11.39 2.61 16.35 2.61 6.09 0 10.19-1.96 12.89-6.18l.5-.78.26.89c7.81 27.09 7.81 27.24 7.81 27.32v.15l-.09.11c-4.33 5.54-9.99 8.11-17.8 8.11zM19.83 29.43c-.49 0-1.02.04-1.57.12-2.3.33-4.01 1.22-5.07 2.66-1.06 1.44-1.44 3.38-1.1 5.76.25 1.8.82 3.23 1.68 4.27.87 1.03 1.82 1.71 2.84 2.02.61.18 1.32.28 2.11.28.56 0 1.18-.05 1.83-.14 1.29-.18 2.33-.52 3.09-1 .76-.48 1.36-1.12 1.81-1.91.4-.71.66-1.55.79-2.51l-3.42-.54c-.11.85-.35 1.55-.71 2.09-.45.67-1.2 1.08-2.2 1.22-.19.03-.39.04-.57.04-.8 0-1.49-.26-2.04-.78-.68-.63-1.13-1.8-1.38-3.6-.2-1.46-.12-2.54.26-3.32.5-1.06 1.37-1.69 2.57-1.86.17-.02.34-.04.5-.04.35 0 .68.05 1 .16.46.16.88.42 1.24.79.16.17.33.4.5.71l3.19-1.2c-.68-1.22-1.52-2.1-2.52-2.62-.78-.4-1.73-.6-2.83-.6zm15.37-.05c-.48 0-.99.04-1.51.11-2.16.31-3.78 1.16-4.81 2.53-1.03 1.37-1.39 3.18-1.09 5.37.22 1.57.71 2.85 1.46 3.8.74.94 1.64 1.59 2.67 1.92.64.21 1.38.31 2.2.31.52 0 1.08-.04 1.66-.13 1.48-.21 2.7-.67 3.6-1.36.9-.69 1.54-1.57 1.91-2.62.38-1.07.46-2.41.24-4-.3-2.16-1.14-3.76-2.48-4.78-1.01-.75-2.31-1.15-3.85-1.15zm23.79 13.91 11.05-1.56-.31-2.24-7.51 1.06-.49-3.5 6.77-.96-.27-1.93-6.77.96-.42-2.98 7.31-1.04-.29-2.06-10.84 1.54 1.77 12.71zm-13.51-.12 3.54-.5-.7-5.03 2.8-.4c1.65-.23 2.82-.76 3.5-1.57.68-.8.92-1.81.74-3.06-.17-1.22-.64-2.08-1.43-2.62-.58-.4-1.34-.6-2.27-.6-.35 0-.73.03-1.13.09l-6.82.97 1.77 12.72zm-10.73-2.26c-.79 0-1.49-.26-2.07-.77-.7-.62-1.15-1.68-1.36-3.23-.22-1.56-.08-2.71.43-3.5.51-.81 1.28-1.29 2.28-1.43.2-.03.39-.04.58-.04.79 0 1.49.25 2.06.75.7.61 1.15 1.64 1.35 3.07.24 1.7.12 2.91-.37 3.69-.5.79-1.28 1.27-2.34 1.42-.19.03-.38.04-.56.04zm12.76-9.05 1.66-.24c.27-.04.53-.06.76-.06.56 0 .98.11 1.29.35.43.32.68.76.76 1.3.08.57-.08 1.07-.47 1.49-.38.41-1.02.67-1.97.8l-1.49.21-.54-3.85z" fill="#31469D" data-color="1"/>
        <path d="M75.03 44.73C59.01 65.21 27.79 37.9 13.4 52.56c-.12.17-6.16-23.3-7.44-28.23 14.71-17.3 49.55 11.54 61.29-6.8-.01 0 7.78 27.03 7.78 27.2zm-53.25-4.67c-.39.57-1.03.92-1.92 1.04-.92.13-1.68-.08-2.27-.63-.6-.55-1.01-1.67-1.25-3.35-.19-1.36-.12-2.38.22-3.08.44-.93 1.19-1.48 2.25-1.63.47-.07.9-.03 1.31.11.4.14.76.37 1.07.69.19.19.39.5.59.94l3.98-1.5c-.75-1.53-1.73-2.6-2.92-3.22-1.2-.62-2.74-.79-4.64-.53-2.43.34-4.21 1.28-5.35 2.82-1.14 1.54-1.53 3.56-1.18 6.07.26 1.88.86 3.38 1.78 4.48.92 1.1 1.94 1.82 3.04 2.15 1.11.33 2.48.38 4.12.15 1.35-.19 2.44-.55 3.26-1.06a5.75 5.75 0 0 0 1.95-2.06c.48-.86.78-1.88.89-3.07l-4.25-.67c-.07 1.01-.3 1.78-.68 2.35zm7.15 1.19c.8 1.01 1.76 1.7 2.87 2.06 1.11.36 2.46.43 4.05.21 1.56-.22 2.83-.7 3.79-1.44s1.65-1.68 2.06-2.82c.41-1.14.49-2.54.26-4.2-.32-2.28-1.2-3.97-2.65-5.06-1.45-1.09-3.34-1.47-5.69-1.13-2.29.32-3.98 1.22-5.08 2.69s-1.49 3.36-1.17 5.68c.24 1.66.76 3 1.56 4.01zm3.17-7.82c.45-.7 1.11-1.11 1.99-1.24.92-.13 1.69.07 2.31.61.62.54 1.03 1.48 1.21 2.81.22 1.58.12 2.72-.31 3.4-.43.68-1.11 1.09-2.05 1.23-.91.13-1.68-.08-2.29-.63-.62-.55-1.03-1.54-1.22-2.97-.21-1.44-.09-2.51.36-3.21zm13.02 10.01 4.36-.62-.7-5.03 2.39-.34c1.76-.25 3.01-.82 3.76-1.71s1.03-2.02.84-3.39c-.19-1.33-.72-2.3-1.61-2.91-.89-.61-2.12-.8-3.69-.58l-7.24 1.03 1.89 13.55zm2.86-11.43 1.25-.18c.82-.12 1.4-.05 1.74.21.34.25.54.59.6 1.02.06.44-.06.82-.36 1.15-.3.33-.88.55-1.72.67l-1.07.15-.44-3.02zm10.65 11.55 11.87-1.68-.43-3.07-7.51 1.06-.37-2.67 6.77-.96-.39-2.77-6.77.96-.3-2.15 7.31-1.04-.4-2.9-11.67 1.65 1.89 13.57z" fill="#31469D" data-color="1"/>
        <path d="M17.79 56.92h3.26c.71 0 1.24.15 1.59.44.35.29.53.71.53 1.25 0 .56-.19.99-.58 1.3-.39.31-.97.47-1.76.47h-1.07v2.04h-1.97v-5.5zm1.97 2.35h.48c.38 0 .64-.06.79-.17.15-.11.23-.26.23-.44 0-.17-.07-.32-.2-.44s-.38-.18-.74-.18h-.55v1.23z" fill="#31469D" data-color="1"/>
        <path d="M23.78 56.92h1.96v4.15h3.06v1.35h-5.02v-5.5z" fill="#31469D" data-color="1"/>
        <path d="M34.02 61.52H31.8l-.31.91h-2l2.39-5.5h2.15l2.38 5.5h-2.05l-.34-.91zm-.41-1.19-.7-1.98-.69 1.98h1.39z" fill="#31469D" data-color="1"/>
        <path d="m36.25 60.61 1.87-.1c.04.26.12.46.25.6.2.22.49.33.86.33.28 0 .5-.05.65-.17.15-.11.23-.24.23-.4 0-.14-.07-.27-.21-.38-.15-.11-.48-.22-1-.32-.86-.17-1.47-.39-1.84-.67-.37-.28-.55-.63-.55-1.06 0-.28.09-.55.28-.8.19-.25.47-.45.85-.59.38-.15.9-.22 1.56-.22.81 0 1.43.13 1.85.39.43.26.68.68.76 1.25l-1.85.09c-.05-.25-.15-.42-.31-.54-.16-.11-.37-.17-.65-.17-.23 0-.4.04-.51.13-.12.08-.17.19-.17.31 0 .09.05.16.14.23.09.07.31.14.66.2.86.16 1.47.32 1.84.49.37.16.64.37.81.61.17.24.25.52.25.81 0 .35-.11.68-.34.98-.22.3-.54.52-.94.68-.41.16-.91.23-1.53.23-1.08 0-1.83-.18-2.24-.54-.43-.36-.66-.82-.72-1.37z" fill="#31469D" data-color="1"/>
        <path d="M42.14 56.92h5.95v1.36h-2v4.14h-1.96v-4.14h-2v-1.36z" fill="#31469D" data-color="1"/>
        <path d="M48.65 56.92h1.96v5.5h-1.96v-5.5z" fill="#31469D" data-color="1"/>
        <path d="m55.83 60.18 1.72.45c-.12.42-.3.77-.55 1.05-.25.28-.56.49-.92.63-.37.14-.84.21-1.4.21-.69 0-1.25-.09-1.69-.26-.44-.17-.82-.48-1.13-.92-.32-.44-.48-1-.48-1.68 0-.91.28-1.61.84-2.1.56-.49 1.35-.73 2.37-.73.8 0 1.43.14 1.88.42.46.28.8.71 1.02 1.29l-1.73.33c-.06-.17-.12-.29-.19-.37-.11-.13-.24-.23-.4-.3-.16-.07-.33-.1-.53-.1-.44 0-.78.15-1.02.46-.18.23-.27.59-.27 1.08 0 .61.11 1.03.32 1.25.21.23.51.34.9.34.37 0 .66-.09.85-.27.18-.17.32-.43.41-.78z" fill="#31469D" data-color="1"/>
        <path d="m58.16 60.61 1.87-.1c.04.26.12.46.25.6.2.22.49.33.86.33.28 0 .5-.05.65-.17.15-.11.23-.24.23-.4 0-.14-.07-.27-.21-.38-.14-.11-.48-.22-1-.32-.86-.17-1.47-.39-1.84-.67-.37-.28-.55-.63-.55-1.06 0-.28.09-.55.28-.8.19-.25.47-.45.85-.59.38-.15.9-.22 1.56-.22.81 0 1.43.13 1.85.39.42.26.68.68.76 1.25l-1.85.09c-.05-.25-.15-.42-.31-.54-.16-.11-.37-.17-.65-.17-.23 0-.4.04-.51.13-.12.08-.17.19-.17.31 0 .09.05.16.14.23.09.07.31.14.66.2.86.16 1.47.32 1.84.49.37.16.64.37.81.61.17.24.25.52.25.81 0 .35-.11.68-.34.98-.23.3-.54.52-.94.68-.41.16-.92.23-1.53.23-1.08 0-1.83-.18-2.24-.54a1.96 1.96 0 0 1-.72-1.37z" fill="#31469D" data-color="1"/>
    </g>
</svg>
