<svg xmlns="http://www.w3.org/2000/svg" fill="none" viewBox="0 0 198 52"><path fill="#5C5F61" d="m71.454 31.725 2.58 2.801a9.211 9.211 0 0 1-2.912 2.065c-1.106.516-2.383.774-3.833.774-1.966 0-3.65-.381-5.05-1.143a8.052 8.052 0 0 1-3.17-3.244c-.713-1.4-1.069-3.01-1.069-4.828 0-1.671.393-3.207 1.18-4.608a9.038 9.038 0 0 1 3.243-3.354c1.4-.836 3.023-1.253 4.866-1.253 1.4 0 2.678.258 3.833.774 1.155.491 2.138 1.167 2.949 2.027l-2.764 2.801a4.878 4.878 0 0 0-1.733-1.327c-.663-.32-1.425-.479-2.285-.479-1.106 0-2.028.258-2.765.774a4.887 4.887 0 0 0-1.622 2.027 6.632 6.632 0 0 0-.516 2.618c0 .86.172 1.708.516 2.543.369.835.91 1.524 1.622 2.064.737.54 1.659.811 2.765.811.86 0 1.646-.16 2.359-.48.737-.343 1.339-.798 1.806-1.363ZM75.602 28.15c0-1.671.393-3.207 1.18-4.608a9.038 9.038 0 0 1 3.243-3.354c1.401-.836 3.023-1.253 4.866-1.253 1.843 0 3.452.417 4.828 1.253A8.95 8.95 0 0 1 93 23.542c.786 1.4 1.18 2.937 1.18 4.608 0 1.67-.394 3.206-1.18 4.607a9.23 9.23 0 0 1-3.28 3.391c-1.377.836-2.986 1.253-4.83 1.253-1.842 0-3.464-.417-4.865-1.253a9.327 9.327 0 0 1-3.243-3.39c-.787-1.402-1.18-2.937-1.18-4.608Zm9.289 5.492c1.106 0 2.015-.283 2.727-.848a5.018 5.018 0 0 0 1.622-2.101c.369-.86.553-1.708.553-2.543 0-.836-.184-1.671-.553-2.507a5.018 5.018 0 0 0-1.621-2.1c-.713-.566-1.622-.849-2.728-.849s-2.028.283-2.765.848a5.45 5.45 0 0 0-1.622 2.101 6.54 6.54 0 0 0-.516 2.507c0 .835.172 1.683.516 2.543a5.45 5.45 0 0 0 1.622 2.101c.737.565 1.659.848 2.765.848ZM97.65 36.812V19.524h4.166l.111 2.175c.27-.344.626-.7 1.068-1.069.467-.393 1.033-.725 1.696-.995.688-.295 1.499-.442 2.433-.442.418 0 .786.024 1.106.073.344.05.688.136 1.032.258l-.885 4.092c-.59-.221-1.253-.332-1.99-.332-1.205 0-2.237.381-3.097 1.143-.86.762-1.29 1.781-1.29 3.06v9.325h-4.35ZM123.419 36.812l-.111-1.696c-.442.492-1.094.995-1.954 1.511-.835.517-1.904.774-3.206.774-1.254 0-2.458-.344-3.613-1.032-1.155-.688-2.113-1.695-2.875-3.022-.737-1.352-1.106-2.974-1.106-4.866 0-1.351.197-2.543.59-3.575.393-1.032.885-1.892 1.475-2.58.663-.787 1.4-1.401 2.211-1.843.811-.467 1.61-.799 2.396-.995.786-.222 1.462-.332 2.027-.332.762 0 1.352.037 1.77.11.442.05.823.136 1.142.258.344.099.725.234 1.143.406v-7.704h4.313v24.586h-4.202Zm-.111-7.667v-5.308c-.762-.614-1.954-.921-3.575-.921-.836 0-1.549.171-2.138.515a4.9 4.9 0 0 0-1.475 1.29c-.786 1.033-1.179 2.286-1.179 3.76 0 1.475.368 2.703 1.105 3.686.738.983 1.807 1.475 3.207 1.475 1.008 0 1.806-.234 2.396-.7a3.8 3.8 0 0 0 1.253-1.733c.271-.713.406-1.4.406-2.064ZM131.883 36.812V12.226h4.35v24.586h-4.35ZM154.418 31.651l2.359 2.654-.626.627c-.32.32-.799.676-1.438 1.069-.614.368-1.413.688-2.396.958-.958.295-2.113.442-3.464.442-1.843 0-3.453-.393-4.829-1.179-1.352-.811-2.408-1.929-3.17-3.354-.762-1.426-1.143-3.06-1.143-4.903 0-1.695.369-3.219 1.106-4.57.762-1.376 1.794-2.458 3.096-3.244 1.327-.81 2.851-1.216 4.571-1.216 1.597 0 2.936.282 4.018.847a7.16 7.16 0 0 1 2.617 2.286 9.327 9.327 0 0 1 1.437 3.17c.295 1.18.443 2.383.443 3.612v.627h-12.901c0 .835.233 1.572.7 2.211a5.438 5.438 0 0 0 1.843 1.475 5.268 5.268 0 0 0 2.248.516c1.131 0 2.065-.123 2.802-.369.737-.27 1.327-.565 1.769-.885.442-.32.762-.577.958-.774Zm-10.357-5.308h8.478c0-.59-.16-1.167-.48-1.732a3.547 3.547 0 0 0-1.327-1.438c-.589-.393-1.339-.59-2.248-.59-.958 0-1.769.197-2.433.59-.639.37-1.13.848-1.474 1.438-.344.565-.516 1.143-.516 1.732ZM159.508 34.71l2.617-2.838c.541.541 1.217.996 2.028 1.364.835.344 1.781.516 2.838.516.934 0 1.683-.123 2.248-.368.565-.27.848-.676.848-1.217 0-.344-.111-.639-.332-.884-.196-.27-.602-.529-1.216-.774-.614-.27-1.56-.553-2.838-.848a14.765 14.765 0 0 1-2.433-.885 6.403 6.403 0 0 1-2.212-1.659c-.589-.737-.884-1.658-.884-2.764 0-1.155.344-2.138 1.032-2.949.712-.81 1.609-1.425 2.691-1.843a9.52 9.52 0 0 1 3.391-.626c1.523 0 2.826.16 3.907.479a8.783 8.783 0 0 1 2.875 1.437l-2.249 3.06c-.466-.344-1.093-.652-1.879-.922-.762-.295-1.647-.442-2.654-.442-1.008 0-1.72.16-2.138.48-.418.294-.627.662-.627 1.105 0 .54.332.97.995 1.29.688.295 1.745.614 3.17.958 1.745.393 3.133 1.008 4.166 1.843 1.056.811 1.585 2.052 1.585 3.723 0 1.106-.344 2.077-1.033 2.912-.663.811-1.56 1.438-2.69 1.88-1.106.442-2.335.663-3.686.663-1.598 0-3.06-.22-4.387-.663-1.302-.467-2.346-1.143-3.133-2.027ZM177.11 34.71l2.617-2.838c.541.541 1.217.996 2.028 1.364.835.344 1.781.516 2.838.516.934 0 1.683-.123 2.248-.368.566-.27.848-.676.848-1.217 0-.344-.11-.639-.332-.884-.196-.27-.602-.529-1.216-.774-.614-.27-1.56-.553-2.838-.848a14.765 14.765 0 0 1-2.433-.885 6.403 6.403 0 0 1-2.212-1.659c-.589-.737-.884-1.658-.884-2.764 0-1.155.344-2.138 1.032-2.949.713-.81 1.609-1.425 2.691-1.843a9.52 9.52 0 0 1 3.391-.626c1.523 0 2.826.16 3.907.479 1.081.32 2.04.798 2.875 1.437l-2.248 3.06c-.467-.344-1.094-.652-1.88-.922-.762-.295-1.647-.442-2.654-.442-1.008 0-1.72.16-2.138.48-.418.294-.627.662-.627 1.105 0 .54.332.97.996 1.29.688.295 1.744.614 3.169.958 1.745.393 3.134 1.008 4.166 1.843 1.056.811 1.585 2.052 1.585 3.723 0 1.106-.344 2.077-1.032 2.912-.664.811-1.561 1.438-2.691 1.88-1.106.442-2.335.663-3.686.663-1.597 0-3.06-.22-4.387-.663-1.302-.467-2.346-1.143-3.133-2.027Z"/><ellipse cx="28.962" cy="26.605" fill="url(#a)" rx="17.631" ry="17.401"/><path stroke="#FD9B8E" stroke-width="1.26" d="M28.924 46.431c11.07 0 20.059-8.86 20.059-19.806 0-10.946-8.988-19.806-20.059-19.806-11.07 0-20.059 8.86-20.059 19.806 0 10.947 8.989 19.806 20.06 19.806Z" opacity=".5"/><path stroke="#FD9B8E" stroke-width="1.26" d="M28.924 49.881c13 0 23.554-10.404 23.554-23.256 0-12.851-10.554-23.255-23.554-23.255-13 0-23.554 10.404-23.554 23.255 0 12.852 10.553 23.256 23.554 23.256Z" opacity=".25"/><defs><linearGradient id="a" x1="57.76" x2="32.875" y1="36.988" y2="-3.348" gradientUnits="userSpaceOnUse"><stop stop-color="#F88"/><stop offset="1" stop-color="#FAD7A1"/></linearGradient></defs></svg>