<?xml version="1.0" ?>
<svg xmlns="http://www.w3.org/2000/svg" data-name="Layer 2" viewBox="0 0 441.16 220.62">
	<defs>
		<style>
      .cls-1 {
        fill: #231f20;
      }
      .cls-2 {
        fill: #ffb03b;
      }
    </style>
	</defs>
	<g id="Layer_1-2">
		<g>
			<g>
				<path class="cls-1" d="M214.48,76.49c1.14,2.51,3.53,4.33,6.61,4.33,4.9,0,6.84-2.5,6.84-8.95v-23.71c0-1.14.57-1.77,1.71-1.77h.52c1.08,0,1.65.63,1.65,1.77v23.71c0,8.38-3.36,12.31-10.72,12.31-5.13,0-8.89-3.19-8.89-5.36,0-1.54,2.16-2.57,2.28-2.34Z"/>
				<path class="cls-1" d="M256.6,67.31h.57v-.97c0-4.67-2.73-7.24-7.63-7.24-4.39,0-7.18,2.22-8.66,5.02,0,.06-2.11-.17-2.11-2.17s3.88-6.27,11.06-6.27,11,3.99,11,10.54v17.1c0,.11-.57.4-1.25.4-1.25,0-2.33-.63-2.33-3.59v-1.03c-2.16,3.13-5.81,5.02-10.15,5.02-5.93,0-9.35-3.02-9.35-7.58,0-6.33,6.33-8.95,18.86-9.23ZM247.42,81.05c5.58,0,9.74-3.47,9.74-8.32v-2.51l-1.59.06c-9.29.34-14.08,1.99-14.08,6.27,0,2.74,2.22,4.5,5.93,4.5Z"/>
				<path class="cls-1" d="M271.93,92.96c0,1.37-.69,1.77-1.65,1.77h-.4c-.97,0-1.66-.4-1.66-1.77v-36.42c0-.11.57-.4,1.25-.4,1.25,0,2.39.63,2.39,3.59v1.2c2.45-3.36,5.64-5.24,10.15-5.24,7.18,0,12.82,5.58,12.82,14.19s-5.53,14.31-13.05,14.31c-4.84,0-8.32-2.56-9.86-5.19v13.96ZM281.51,80.93c5.76,0,9.57-4.44,9.57-11s-3.99-11-9.46-11c-4.73,0-8.04,2.51-9.75,6.44v6.38c0,5.19,4.5,9.18,9.63,9.18Z"/>
				<path class="cls-1" d="M317.81,67.31h.57v-.97c0-4.67-2.73-7.24-7.63-7.24-4.39,0-7.18,2.22-8.66,5.02,0,.06-2.11-.17-2.11-2.17s3.88-6.27,11.06-6.27,11,3.99,11,10.54v17.1c0,.11-.57.4-1.25.4-1.25,0-2.33-.63-2.33-3.59v-1.03c-2.16,3.13-5.81,5.02-10.15,5.02-5.93,0-9.35-3.02-9.35-7.58,0-6.33,6.33-8.95,18.86-9.23ZM308.64,81.05c5.58,0,9.74-3.47,9.74-8.32v-2.51l-1.59.06c-9.29.34-14.08,1.99-14.08,6.27,0,2.74,2.22,4.5,5.93,4.5Z"/>
				<path class="cls-1" d="M329.45,56.54c0-.11.57-.4,1.25-.4,1.25,0,2.39.63,2.39,3.59v.91c1.88-2.91,5.02-4.96,9.23-4.96,7.18,0,10.77,4.79,10.77,11.97v14.31c0,1.37-.68,1.77-1.65,1.77h-.4c-.97,0-1.65-.4-1.65-1.77v-14.08c0-5.41-2.68-8.72-7.29-8.72-4.22,0-7.35,2.34-8.95,5.76v17.04c0,1.37-.69,1.77-1.65,1.77h-.4c-.97,0-1.66-.4-1.66-1.77v-25.42Z"/>
				<path class="cls-1" d="M372.37,55.69c7.63,0,12.65,5.41,12.65,13.68v.34c0,1.03-.4,1.25-1.54,1.25h-21.09c.29,5.81,4.5,9.92,10.32,9.92,5.3,0,7.7-2.28,9.29-4.85.11-.17,2.16.34,2.16,2.11,0,1.88-4.1,6.04-11.45,6.04-8.26,0-14.02-5.81-14.02-14.13s5.81-14.36,13.68-14.36ZM381.08,67.77c-.34-5.36-3.65-8.84-8.72-8.84s-9.06,3.65-9.86,8.84h18.58Z"/>
				<path class="cls-1" d="M390.72,76.66c1.82,2.51,4.79,4.39,9.29,4.39s7.01-1.82,7.01-4.56c0-3.25-2.85-3.93-7.98-5.02-4.22-.91-9.52-2.11-9.52-7.58,0-4.85,4.1-8.21,10.37-8.21,6.61,0,10.03,3.13,10.03,5.19,0,1.42-1.94,2.11-2.05,1.94-1.54-2.33-4.27-3.99-7.98-3.99-4.44,0-6.84,1.88-6.84,4.56,0,2.91,2.57,3.7,7.58,4.79,4.39.97,9.97,2.16,9.97,7.75,0,5.02-4.1,8.26-10.71,8.26-7.24,0-11.17-3.47-11.17-5.53,0-1.54,1.88-2.11,2-2Z"/>
				<path class="cls-1" d="M428.51,55.69c7.63,0,12.65,5.41,12.65,13.68v.34c0,1.03-.4,1.25-1.54,1.25h-21.09c.29,5.81,4.5,9.92,10.32,9.92,5.3,0,7.7-2.28,9.29-4.85.11-.17,2.16.34,2.16,2.11,0,1.88-4.1,6.04-11.45,6.04-8.26,0-14.02-5.81-14.02-14.13s5.81-14.36,13.68-14.36ZM437.23,67.77c-.34-5.36-3.65-8.84-8.72-8.84s-9.06,3.65-9.86,8.84h18.58Z"/>
			</g>
			<g>
				<path class="cls-2" d="M225.14,101.71c.4-.97,1.08-1.42,2.91-1.42s2.51.45,2.91,1.42l13.51,34.88c.11.28-1.03,1.14-2.22,1.14-.91,0-1.83-.4-2.34-1.77l-4.05-10.49h-15.84l-3.99,10.49c-.51,1.37-1.37,1.77-2.22,1.77-1.14,0-2.28-.86-2.16-1.14l13.51-34.88ZM234.6,122.05l-6.67-17.33-6.67,17.33h13.34Z"/>
				<path class="cls-2" d="M261.1,109.69c7.92,0,11.68,5.07,11.68,7.52,0,1.66-2.34,2-2.45,1.77-1.42-3.36-4.05-5.98-9.23-5.98-5.81,0-10.2,4.56-10.2,10.88s4.33,11,10.2,11c5.19,0,7.81-2.62,9.23-5.99.11-.23,2.45.11,2.45,1.77,0,2.45-3.76,7.52-11.68,7.52s-13.96-6.04-13.96-14.31,5.98-14.19,13.96-14.19Z"/>
				<path class="cls-2" d="M295.65,121.31h.57v-.97c0-4.67-2.73-7.24-7.63-7.24-4.39,0-7.18,2.22-8.66,5.02,0,.06-2.11-.17-2.11-2.17s3.88-6.27,11.06-6.27,11,3.99,11,10.54v17.1c0,.11-.57.4-1.25.4-1.25,0-2.33-.63-2.33-3.59v-1.03c-2.16,3.13-5.81,5.02-10.15,5.02-5.93,0-9.35-3.02-9.35-7.58,0-6.33,6.33-8.95,18.86-9.23ZM286.47,135.05c5.58,0,9.74-3.47,9.74-8.32v-2.51l-1.59.06c-9.29.34-14.08,1.99-14.08,6.27,0,2.74,2.22,4.5,5.93,4.5Z"/>
				<path class="cls-2" d="M318.5,109.69c4.79,0,8.26,2.28,9.86,4.79v-15.39c0-.11.57-.4,1.25-.4,1.25,0,2.45.63,2.45,3.59v33.68c0,1.37-.68,1.77-1.65,1.77h-.4c-.97,0-1.6-.4-1.6-1.77v-2.96c-2.45,3.3-5.64,5.19-10.14,5.19-7.18,0-12.82-5.58-12.82-14.19s5.53-14.3,13.05-14.3ZM318.67,134.93c4.96,0,9.52-3.7,9.74-8.72v-6.9c-1.71-3.93-4.84-6.38-9.63-6.38-5.76,0-9.57,4.45-9.57,11s3.99,11,9.46,11Z"/>
				<path class="cls-2" d="M351.56,109.69c7.63,0,12.65,5.41,12.65,13.68v.34c0,1.03-.4,1.25-1.54,1.25h-21.09c.29,5.81,4.5,9.92,10.32,9.92,5.3,0,7.69-2.28,9.29-4.85.11-.17,2.16.34,2.16,2.11,0,1.88-4.1,6.04-11.46,6.04-8.26,0-14.02-5.81-14.02-14.13s5.81-14.36,13.68-14.36ZM360.28,121.77c-.34-5.36-3.65-8.84-8.72-8.84s-9.06,3.65-9.86,8.84h18.58Z"/>
				<path class="cls-2" d="M369.97,110.54c0-.11.57-.4,1.25-.4,1.25,0,2.39.63,2.39,3.59v.68c1.88-2.74,4.9-4.73,8.55-4.73,4.27,0,7.52,1.99,9.01,5.81,1.82-3.25,5.13-5.81,9.63-5.81,6.84,0,10.49,3.93,10.49,11.45v14.82c0,1.37-.69,1.77-1.65,1.77h-.4c-.97,0-1.66-.4-1.66-1.77v-14.59c0-5.42-2.33-8.21-7.01-8.21-3.36,0-6.5,2.22-8.09,5.47v17.33c0,1.37-.68,1.77-1.65,1.77h-.4c-.97,0-1.65-.4-1.65-1.77v-14.31c0-5.7-2.34-8.49-7.01-8.49-3.36,0-6.5,2.22-8.09,5.47v17.33c0,1.37-.69,1.77-1.65,1.77h-.4c-.97,0-1.65-.4-1.65-1.77v-25.42Z"/>
				<path class="cls-2" d="M415.46,111.23c-.06-.23.51-1.08,1.82-1.08s2,.57,2.79,2.57l8.6,21.26,7.46-21.14c.69-2,1.54-2.68,2.74-2.68,1.03,0,1.94.8,1.88.97l-13.11,35.17c-.74,1.99-1.65,2.45-2.62,2.45-1.03,0-2-.8-1.94-.97l4.56-11.63c-1.25,0-1.77-.28-2.28-1.42l-9.92-23.48Z"/>
			</g>
			<g>
				<path class="cls-2" d="M86.75,87.55c-.91-1.03-1.98-1.83-3.21-2.4-1.23-.57-2.56-.85-3.99-.85s-2.76.3-3.99.88c-1.23.59-2.3,1.4-3.21,2.44-.91,1.03-1.62,2.26-2.14,3.69-.52,1.43-.78,2.98-.78,4.65s.26,3.28.78,4.69c.52,1.4,1.23,2.62,2.14,3.66.91,1.03,1.98,1.83,3.21,2.4,1.23.57,2.56.85,3.99.85s2.76-.28,3.99-.85c1.23-.57,2.3-1.37,3.21-2.4.91-1.03,1.62-2.26,2.14-3.69.52-1.43.77-3,.77-4.73s-.26-3.23-.77-4.65c-.52-1.43-1.23-2.66-2.14-3.69Z"/>
				<path class="cls-2" d="M158.45,87.55c-.91-1.03-1.98-1.83-3.21-2.4-1.23-.57-2.56-.85-3.99-.85s-2.76.3-3.99.88c-1.23.59-2.3,1.4-3.21,2.44-.91,1.03-1.62,2.26-2.14,3.69-.52,1.43-.78,2.98-.78,4.65s.26,3.28.78,4.69c.52,1.4,1.23,2.62,2.14,3.66.91,1.03,1.98,1.83,3.21,2.4,1.23.57,2.56.85,3.99.85s2.76-.28,3.99-.85c1.23-.57,2.3-1.37,3.21-2.4.91-1.03,1.62-2.26,2.14-3.69.52-1.43.77-3,.77-4.73s-.26-3.23-.77-4.65c-.52-1.43-1.23-2.66-2.14-3.69Z"/>
				<path class="cls-2" d="M185.15,70.72C174.1,15.09,125.27-9.83,73.81,3.54,18.91,17.81-10.41,57.74,3.38,113.82c13.68,55.61,58.88,89.36,97.6,106.81,0,0-6.31-16.68-9.32-38.69,26.9.24,111.65-19.76,93.49-111.21ZM49.5,113.17c-3.05,1.87-6.72,2.81-11,2.81-3.15,0-5.98-.54-8.49-1.63-2.51-1.08-4.65-2.55-6.42-4.39-1.77-1.85-3.14-3.99-4.1-6.42-.96-2.44-1.44-4.98-1.44-7.64s.47-5.27,1.4-7.68c.93-2.41,2.29-4.53,4.06-6.35,1.77-1.82,3.91-3.27,6.42-4.36,2.51-1.08,5.34-1.62,8.49-1.62,4.23,0,7.84.91,10.82,2.73,2.98,1.82,5.2,4.21,6.68,7.16l-9.67,2.95c-.84-1.43-1.95-2.52-3.32-3.28-1.38-.76-2.9-1.15-4.58-1.15-1.43,0-2.76.28-3.99.85-1.23.57-2.3,1.35-3.21,2.36-.91,1.01-1.62,2.23-2.14,3.66-.52,1.43-.78,3-.78,4.73s.27,3.3.81,4.73c.54,1.43,1.27,2.66,2.18,3.69.91,1.03,1.98,1.83,3.21,2.4,1.23.57,2.54.85,3.91.85,1.77,0,3.41-.45,4.91-1.33,1.5-.88,2.55-1.97,3.14-3.25l9.67,2.95c-1.33,2.95-3.52,5.37-6.57,7.24ZM98.38,103.58c-.94,2.41-2.26,4.54-3.99,6.39-1.72,1.85-3.84,3.31-6.35,4.39-2.51,1.08-5.34,1.63-8.49,1.63s-5.98-.54-8.49-1.63c-2.51-1.08-4.64-2.55-6.39-4.39s-3.09-3.98-4.02-6.39c-.94-2.41-1.4-4.95-1.4-7.61s.47-5.27,1.4-7.68c.93-2.41,2.28-4.54,4.02-6.39s3.88-3.31,6.39-4.39c2.51-1.08,5.34-1.62,8.49-1.62s5.97.54,8.45,1.62c2.49,1.08,4.6,2.55,6.35,4.39,1.75,1.85,3.09,3.98,4.02,6.39.93,2.41,1.4,4.97,1.4,7.68s-.47,5.19-1.4,7.61ZM124.04,115.02c-1.95.59-3.98.88-6.09.88-1.38,0-2.67-.17-3.88-.52-1.21-.34-2.26-.9-3.17-1.66-.91-.76-1.64-1.75-2.18-2.95-.54-1.21-.81-2.67-.81-4.39v-22.22h-5.02v-7.6h5.02v-12.55h9.9v12.55h8.2v7.6h-8.2v18.9c0,1.38.37,2.35,1.11,2.92.74.57,1.62.85,2.66.85s2.04-.17,3.03-.52c.98-.34,1.77-.64,2.36-.88l1.99,7.83c-1.33.59-2.97,1.18-4.91,1.78ZM151.25,115.98c-3.15,0-5.98-.54-8.49-1.63-2.51-1.08-4.64-2.55-6.39-4.39-1.75-1.85-3.09-3.98-4.02-6.39-.94-2.41-1.4-4.95-1.4-7.61s.47-5.27,1.4-7.68c.93-2.41,2.28-4.54,4.02-6.39,1.75-1.85,3.88-3.31,6.39-4.39,2.51-1.08,5.34-1.62,8.49-1.62s5.97.54,8.45,1.62c2.49,1.08,4.6,2.55,6.35,4.39,1.75,1.85,3.09,3.98,4.02,6.39.93,2.41,1.4,4.97,1.4,7.68s-.47,5.19-1.4,7.61c-.94,2.41-2.26,4.54-3.99,6.39-1.72,1.85-3.84,3.31-6.35,4.39-2.51,1.08-5.34,1.63-8.49,1.63Z"/>
			</g>
		</g>
	</g>
</svg>