<?xml version="1.0" ?>
<svg xmlns="http://www.w3.org/2000/svg"  viewBox="0 0 175 125">
	<defs>
		<linearGradient id="a" x1="6.214" y1="-0.531" x2="8.651" y2="1.906" gradientUnits="objectBoundingBox">
			<stop offset="0.12" stop-color="#00aaf4"/>
			<stop offset="0.88" stop-color="#00d258"/>
		</linearGradient>
	</defs>
	<g id="b">
		<g transform="translate(348.704 -54.962)">
			<g transform="translate(-319.704 99.962)">
				<path d="M -93.054,118.928 L -83.464,108.084 A 3.755,3.755 0.0 0,0 -83.79,102.784 A 3.756,3.756 0.0 0,0 -89.09,103.109 L -98.065,113.259 L -107.04,103.109 A 3.756,3.756 0.0 0,0 -112.34,102.784 A 3.756,3.756 0.0 0,0 -112.666,108.084 L -103.078,118.928 L -112.668,129.772 A 3.755,3.755 0.0 0,0 -112.342,135.072 A 3.756,3.756 0.0 0,0 -107.042,134.747 L -98.067,124.597 L -89.092,134.747 A 3.756,3.756 0.0 0,0 -83.792,135.072 A 3.756,3.756 0.0 0,0 -83.466,129.772 L -93.054,118.928" transform="translate(189.953 -101.145)" fill="#00d258"/>
				<path d="M -208.6,135.533 A 17.805,17.805 0.0 0,1 -226.385,117.748 A 17.805,17.805 0.0 0,1 -208.6,99.962 A 17.806,17.806 0.0 0,1 -190.815,117.747 A 17.805,17.805 0.0 0,1 -208.6,135.533 M -208.6,107.474 A 10.285,10.285 0.0 0,0 -218.874,117.748 A 10.286,10.286 0.0 0,0 -208.6,128.021 A 10.286,10.286 0.0 0,0 -198.326,117.747 A 10.285,10.285 0.0 0,0 -208.6,107.474 L -208.6,107.474" transform="translate(260.952 -99.962)" fill="url(#a)"/>
				<path d="M -301.919,135.533 A 17.806,17.806 0.0 0,1 -319.7,117.747 A 17.806,17.806 0.0 0,1 -301.915,99.962 A 17.779,17.779 0.0 0,1 -292.87,102.431 A 3.756,3.756 0.0 0,1 -291.549,107.576 A 3.755,3.755 0.0 0,1 -296.694,108.896 A 10.26,10.26 0.0 0,0 -301.914,107.474 A 10.285,10.285 0.0 0,0 -312.188,117.748 A 10.285,10.285 0.0 0,0 -301.914,128.022 A 10.259,10.259 0.0 0,0 -296.694,126.6 A 3.756,3.756 0.0 0,1 -291.549,127.92 A 3.755,3.755 0.0 0,1 -292.87,133.065 A 17.781,17.781 0.0 0,1 -301.915,135.534 L -301.919,135.533" transform="translate(319.704 -99.962)" fill="#00aaf4"/>
			</g>
			<path d="M -19.169,176.7 A 3.137,3.137 0.0 0,1 -17.658,177.1 A 2.8,2.8 0.0 0,1 -16.51,178.236 A 3.115,3.115 0.0 0,1 -16.099,179.775 A 3.1,3.1 0.0 0,1 -16.506,181.302 A 2.852,2.852 0.0 0,1 -17.642,182.442 A 3.111,3.111 0.0 0,1 -19.169,182.842 A 3.134,3.134 0.0 0,1 -20.7,182.442 A 2.886,2.886 0.0 0,1 -21.836,181.302 A 3.1,3.1 0.0 0,1 -22.243,179.775 A 3.115,3.115 0.0 0,1 -21.832,178.236 A 2.831,2.831 0.0 0,1 -20.68,177.1 A 3.137,3.137 0.0 0,1 -19.169,176.7 M -19.169,177.209 A 2.614,2.614 0.0 0,0 -20.431,177.543 A 2.367,2.367 0.0 0,0 -21.388,178.492 A 2.579,2.579 0.0 0,0 -21.734,179.775 A 2.6,2.6 0.0 0,0 -21.396,181.049 A 2.444,2.444 0.0 0,0 -20.443,181.998 A 2.6,2.6 0.0 0,0 -19.169,182.336 A 2.6,2.6 0.0 0,0 -17.9,182.0 A 2.416,2.416 0.0 0,0 -16.951,181.051 A 2.6,2.6 0.0 0,0 -16.613,179.777 A 2.579,2.579 0.0 0,0 -16.959,178.494 A 2.334,2.334 0.0 0,0 -17.916,177.545 A 2.607,2.607 0.0 0,0 -19.174,177.211 L -19.169,177.209 M -20.393,181.472 L -20.393,178.166 L -19.257,178.166 A 2.12,2.12 0.0 0,1 -18.501,178.26 A 0.684,0.684 0.0 0,1 -18.141,178.578 A 0.848,0.848 0.0 0,1 -17.986,179.063 A 0.964,0.964 0.0 0,1 -18.586,180.063 L -17.615,181.471 L -18.266,181.471 C -18.636,180.926 -19.173,180.163 -19.173,180.163 L -19.858,180.163 L -19.858,181.471 L -20.393,181.472 M -19.86,179.708 L -19.213,179.708 A 0.72,0.72 0.0 0,0 -18.613,179.486 A 0.673,0.673 0.0 0,0 -18.499,179.106 A 0.455,0.455 0.0 0,0 -18.58,178.845 A 0.48,0.48 0.0 0,0 -18.808,178.67 A 1.084,1.084 0.0 0,0 -19.255,178.613 L -19.862,178.613 L -19.86,179.708" transform="translate(-187.274 -48.312)" fill="#00d258"/>
		</g>
	</g>
</svg>