<?xml version="1.0" encoding="UTF-8"?>
<!-- Generator: Adobe Illustrator 26.2.1, SVG Export Plug-In . SVG Version: 6.00 Build 0)  -->
<svg version="1.1" id="Layer_1" xmlns="http://www.w3.org/2000/svg"  x="0px" y="0px" viewBox="0 0 320.24 101.76" style="enable-background:new 0 0 320.24 101.76;" xml:space="preserve">
<style type="text/css">
	.st0{fill:#FFAD00;}
	.st1{fill:#333F48;}
</style>
<g>
	<g>
		<g>
			<g>
				<g>
					<path class="st0" d="M228.95,37.45L197.92,13.8c-1.6-1.22-3.82-1.22-5.41,0v0c-2.34,1.79-2.34,5.31,0,7.1l31.04,23.65       c0.78,0.59,1.73,0.91,2.71,0.91C230.52,45.47,232.35,40.05,228.95,37.45z"/>
					<path class="st0" d="M198.81,37.45l-15.9-12.18c-1.6-1.22-3.82-1.22-5.41,0h0c-2.34,1.79-2.34,5.31,0,7.1l15.9,12.18       c0.78,0.59,1.73,0.91,2.71,0.91C200.37,45.47,202.2,40.05,198.81,37.45z"/>
					<path class="st0" d="M170.65,37.45l-1.86-1.43c-1.6-1.22-3.82-1.22-5.41,0c-2.34,1.79-2.34,5.31,0,7.1l1.86,1.43       c0.78,0.59,1.73,0.91,2.71,0.91C172.21,45.47,174.04,40.05,170.65,37.45z"/>
					<path class="st0" d="M289.22,37.45L251.75,8.84c-1.78-1.36-4.26-1.36-6.04,0l-12.08,9.19L212.94,2.38       c-1.6-1.22-3.82-1.22-5.41,0c-2.34,1.79-2.34,5.31,0,7.1l46.16,35.07c0.78,0.59,1.73,0.91,2.71,0.91c4.27,0,6.1-5.42,2.71-8.01       l-18.1-13.81l7.74-5.88l35.08,26.79c0.78,0.59,1.73,0.91,2.71,0.91C290.79,45.47,292.62,40.05,289.22,37.45z"/>
				</g>
			</g>
		</g>
	</g>
	<g>
		<path class="st1" d="M16.8,56.75c6.21,0,10.32,2.96,12.56,6.58c1.4,2.27-0.28,5.2-2.95,5.2h0c-1.24,0-2.4-0.66-2.98-1.75    c-1.24-2.33-3.63-3.84-6.69-3.84c-5.01,0-8.18,4.06-8.18,9.83c0,5.71,3.18,9.77,8.18,9.77c3.06,0,5.46-1.51,6.69-3.84    c0.58-1.09,1.74-1.75,2.98-1.75h0c2.67,0,4.35,2.93,2.95,5.2c-2.24,3.62-6.35,6.58-12.56,6.58c-9.01,0-15.25-7.12-15.25-15.96    C1.55,63.88,7.79,56.75,16.8,56.75z"/>
		<path class="st1" d="M52.13,63.64c-4.95-0.03-7.89,2.59-7.89,8.48v12.66c0,1.79-1.45,3.24-3.24,3.24h-0.53    c-1.79,0-3.24-1.45-3.24-3.24V60.7c0-1.79,1.45-3.24,3.24-3.24h0c1.79,0,3.24,1.45,3.24,3.24v1c1.07-1.86,3.48-4.32,8.32-4.52    c1.79-0.07,1.69,1.44,1.69,1.44v3.4C53.72,62.02,53.89,63.65,52.13,63.64z"/>
		<path class="st1" d="M56.43,79.48c0-5.18,3.65-8.54,11.72-9.66l8.83-1.24v-0.47c0-3.71-2.36-5.59-6.54-5.59    c-2.93,0-4.89,1-5.86,2.73c-0.61,1.08-1.69,1.8-2.92,1.8h-0.05c-2.52,0-4.17-2.77-2.85-4.92c1.92-3.12,5.61-5.38,11.86-5.38    c8.95,0,13.19,4.42,13.19,11.42v14.07c0,0.67,0.04,1.39,0.11,2.11c0.2,1.95-1.3,3.66-3.26,3.66h-2.62c-0.06,0-0.41-1.53-0.41-4    c-2.06,3.12-5.59,4.71-10.48,4.71C59.55,88.72,56.43,84.72,56.43,79.48z M68.86,74.89c-4.3,0.65-5.71,2.24-5.71,4.36    c0,2.89,2.06,4,5.42,4c5.65,0,8.42-3.53,8.42-7.65v-1.94L68.86,74.89z"/>
		<path class="st1" d="M117.26,43.86h0.53c1.79,0,3.24,1.45,3.24,3.24v37.68c0,1.79-1.45,3.24-3.24,3.24h0    c-1.79,0-3.24-1.45-3.24-3.24v-1.12c-1.94,3.18-5.54,5.06-10.3,5.06c-9.01,0-14.13-7.24-14.13-15.96    c0-8.77,5.12-16.02,14.13-16.02c4.77,0,8.07,2.12,9.77,4.71V47.09C114.02,45.31,115.47,43.86,117.26,43.86z M105.72,62.93    c-5.3,0-8.6,4.24-8.6,9.83c0,5.48,3.3,9.77,8.6,9.77c5.36,0,8.6-4.3,8.6-9.77C114.32,67.17,111.08,62.93,105.72,62.93z"/>
		<path class="st1" d="M129.57,84.78V47.09c0-1.79,1.45-3.24,3.24-3.24h0.53c1.79,0,3.24,1.45,3.24,3.24v37.68    c0,1.79-1.45,3.24-3.24,3.24h-0.53C131.02,88.02,129.57,86.57,129.57,84.78z"/>
		<path class="st1" d="M150.74,74.77c-0.42,0-0.76,0.38-0.69,0.8c0.77,4.37,3.81,7.15,8.43,7.15c2.7,0,5.55-0.94,7.52-2.95    c0.71-0.72,1.58-1.26,2.59-1.26h0.04c2.56,0,4.12,2.98,2.51,4.97c-2.66,3.31-7.42,5.24-12.84,5.24c-9.25,0-15.25-6.89-15.25-16.02    c0-8.89,6.12-15.96,15.19-15.96s15.01,6.89,15.01,15.84l0,0.03c0,1.19-0.96,2.15-2.15,2.15L150.74,74.77z M150.91,69.59h14.58    c0.43,0,0.77-0.39,0.68-0.81c-0.84-3.79-3.68-6.31-7.92-6.31c-4.23,0-7.07,2.56-8.01,6.29C150.13,69.18,150.47,69.59,150.91,69.59    z"/>
		<path class="st1" d="M183.45,100.27h-0.53c-1.79,0-3.24-1.45-3.24-3.24V60.7c0-1.79,1.45-3.24,3.24-3.24h0    c1.79,0,3.24,1.45,3.24,3.24v1.12c2-3.12,5.59-5.06,10.31-5.06c9.07,0,14.19,7.24,14.19,16.02c0,8.71-5.12,15.96-14.19,15.96    c-4.71,0-8.07-2.06-9.77-4.71v13.01C186.69,98.82,185.24,100.27,183.45,100.27z M195.05,82.54c5.3,0,8.6-4.3,8.6-9.77    c0-5.65-3.3-9.95-8.6-9.95c-5.36,0-8.6,4.3-8.6,9.95C186.45,78.24,189.69,82.54,195.05,82.54z"/>
		<path class="st1" d="M215.13,72.77c0-8.6,6.12-16.02,15.84-16.02c9.77,0,15.9,7.42,15.9,16.02s-6.12,15.96-15.9,15.96    C221.25,88.72,215.13,81.36,215.13,72.77z M230.97,82.54c5.12,0,8.89-3.89,8.89-9.77c0-5.95-3.77-9.83-8.89-9.83    c-5.06,0-8.83,3.89-8.83,9.83C222.13,78.66,225.9,82.54,230.97,82.54z"/>
		<path class="st1" d="M256.58,57.46h0.53c1.79,0,3.24,1.45,3.24,3.24v24.08c0,1.79-1.45,3.24-3.24,3.24h-0.53    c-1.79,0-3.24-1.45-3.24-3.24V60.7C253.34,58.91,254.79,57.46,256.58,57.46z"/>
		<path class="st1" d="M275.31,61.52c1.3-2.41,4.42-4.77,9.42-4.77c7.42,0,11.36,4.95,11.36,12.07v15.96c0,1.79-1.45,3.24-3.24,3.24    h-0.53c-1.79,0-3.24-1.45-3.24-3.24V69.2c0-3.5-2.8-6.52-6.3-6.44c-4.28,0.1-6.94,2.85-6.94,7.53v14.49    c0,1.79-1.45,3.24-3.24,3.24h-0.53c-1.79,0-3.24-1.45-3.24-3.24V60.7c0-1.79,1.45-3.24,3.24-3.24l0,0c1.79,0,3.24,1.45,3.24,3.24    V61.52z"/>
		<path class="st1" d="M314.41,88.19c-6.24,0-8.95-3.24-8.95-9.01V63.05h-1.86c-1.54,0-2.8-1.25-2.8-2.8v0c0-1.54,1.25-2.8,2.8-2.8    h1.86V52.3c0-1.54,1.25-2.8,2.8-2.8h1.41c1.54,0,2.8,1.25,2.8,2.8v5.15h2.92c1.54,0,2.8,1.25,2.8,2.8v0c0,1.54-1.25,2.8-2.8,2.8    h-2.92l0,15.43c0,2,1.63,3.65,3.63,3.59c0.02,0,2.26-0.12,1.97,3.17C318.06,85.23,317.82,88.19,314.41,88.19z"/>
	</g>
</g>
</svg>