<?xml version="1.0" ?>
<svg xmlns="http://www.w3.org/2000/svg" viewBox="0 0 68 72" fill="none">
	<path d="M68 15.4996C68 15.3826 68 15.2656 68 15.1487C68 15.0317 68 15.0317 68 14.9147C68 14.7977 68 14.6807 67.8828 14.5638C67.7655 14.4468 67.8828 14.4468 67.8828 14.3298C67.8828 14.2128 67.7655 13.9789 67.6483 13.8619C67.531 13.7449 67.4138 13.6279 67.2966 13.394L67.1793 13.277C67.0621 13.16 67.0621 13.16 66.9448 13.0431H66.8276L66.5931 12.9261L66.3586 12.8091H66.2414L35.1724 0.175467C34.469 -0.058489 33.6483 -0.058489 32.9448 0.175467L1.87586 12.8091H1.75862H1.52414L1.28966 12.9261L1.17241 13.16C1.05517 13.277 1.05517 13.277 0.937931 13.394L0.82069 13.511C0.703448 13.6279 0.586207 13.7449 0.468966 13.9789C0.351724 14.0959 0.351724 14.3298 0.234483 14.4468C0.234483 14.5638 0.234483 14.5638 0.234483 14.6807C0.234483 14.7977 0.234483 14.9147 0.117241 15.0317C0.117241 15.1487 0.117241 15.1487 0.117241 15.2656C0.117241 15.3826 0 15.4996 0 15.6166C0 15.7336 0 15.7336 0 15.8505V15.9675L4.68966 49.0723C4.8069 49.8911 5.15862 50.476 5.86207 50.944L32.3586 71.5321H32.4759L32.7103 71.6491L32.9448 71.7661L33.1793 71.883C33.2966 71.883 33.4138 72 33.531 72H33.7655C34 72 34.1172 72 34.3517 72C34.5862 72 34.7034 72 34.9379 72H35.1724C35.2897 72 35.4069 72 35.5241 71.883L35.7586 71.7661C35.8759 71.7661 35.9931 71.6491 35.9931 71.6491L36.2276 71.5321H36.3448L62.8414 50.944C63.4276 50.476 63.8966 49.7742 64.0138 49.0723L68 15.8505V15.7336C68 15.6166 68 15.6166 68 15.4996ZM6.68276 20.9976L31.069 35.0349V45.7969L7.97241 30.3558L6.68276 20.9976ZM36.931 51.2949V35.0349L46.1931 29.6539L44.3172 57.3777L36.931 63.1097V51.2949ZM34 30.0049L24.7379 24.6239L49.7103 12.3412L58.5035 15.8505L34 30.0049ZM34 6.14135L42.3241 9.53371L18.5241 21.2315L9.61379 16.0845L34 6.14135ZM9.02759 38.1933L31.069 52.9326V63.2266L10.3172 47.0837L9.02759 38.1933ZM50.6483 52.5816L52.4069 26.1446L61.3172 20.9976L57.6828 47.0837L50.6483 52.5816Z" fill="black"/>
</svg>