<?xml version="1.0" ?>
<svg xmlns="http://www.w3.org/2000/svg" fill="none" viewBox="0 0 36 24" class="size-8" data-sentry-element="Icon" data-sentry-component="LogoIcon" data-sentry-source-file="logo.tsx">
	<path fill="#12D2AC" fill-rule="evenodd" d="M.781 8.674 6.146 19.75c1.432 2.955 4.49 4.443 6.833 3.325l.1-.05.094-.048c2.327-1.198 3.032-4.533 1.59-7.512L9.396 4.389C7.966 1.434 4.907-.054 2.564 1.064l-.1.05-.094.048C.044 2.36-.662 5.695.781 8.674" clip-rule="evenodd"/>
	<path fill="#307AF2" fill-rule="evenodd" d="m16.709 19.754 5.387-10.917c1.498-3.035.802-6.45-1.569-7.692-2.299-1.205-5.385.182-6.892 3.098l-.064.126-5.387 10.916c-1.498 3.036-.801 6.45 1.569 7.693 2.299 1.205 5.385-.182 6.892-3.098zM28.884 19.755l5.424-10.898c1.508-3.03.823-6.448-1.543-7.698-2.295-1.213-5.385.164-6.903 3.075l-.064.126-5.423 10.898c-1.509 3.03-.824 6.448 1.542 7.698 2.295 1.213 5.386-.164 6.903-3.075z" clip-rule="evenodd"/>
</svg>