<?xml version="1.0" ?>
<svg xmlns="http://www.w3.org/2000/svg" viewBox="0 0 120 60">
	<g id="Creatopy Logo Clean">
		<path id="Path" d="M7.25662 30C7.25665 26.5519 10.0519 23.7567 13.5 23.7567V16.5C6.04416 16.5 0 22.5442 0 30C0 37.4558 6.04416 43.5 13.5 43.5V36.2433C10.0519 36.2433 7.25664 33.4481 7.25662 30Z" fill="#C7C8CB"/>
		<g id="Clipped">
			<mask id="mask0_6939_9703" maskUnits="userSpaceOnUse" x="13" y="3" width="28" height="54">
				<g id="mask 2">
					<path id="Vector" d="M13.5 43.5C21.0106 43.5 27.0992 37.5445 27.0992 30C27.0992 22.4554 21.0106 16.5 13.5 16.5V3H13.6214C28.466 3 40.5 15.0883 40.5 30C40.5 44.9116 28.466 57 13.6214 57H13.5V43.5Z" fill="white"/>
				</g>
			</mask>
			<g mask="url(#mask0_6939_9703)">
				<g id="Ellipse 14" filter="url(#filter0_f_6939_9703)">
					<circle cx="13.5" cy="30" r="21" transform="rotate(-90 13.5 30)" fill="url(#paint0_linear_6939_9703)"/>
				</g>
			</g>
		</g>
		<g id="Group">
			<path id="Path_2" d="M48.0717 25.2617C49.2788 25.2617 50.2047 25.5513 50.9654 26.0962L50.4362 27.833C49.7583 27.4073 49.1465 27.1179 48.204 27.1179C46.7654 27.1179 45.6244 28.1566 45.6244 30.0298C45.6244 31.8179 46.7323 32.8906 48.1544 32.8906C48.9804 32.9165 49.7978 32.7105 50.5189 32.2947L50.8331 33.9804C50.1717 34.4401 49.2292 34.7468 47.9725 34.7468C45.4591 34.7468 43.4087 33.0778 43.4087 30.115C43.4087 27.0156 45.5418 25.2617 48.0717 25.2617Z"/>
			<path id="Shape" d="M62.5753 25.2788C64.9894 25.2788 66.891 26.7773 66.891 30.0126C66.8941 30.2464 66.8775 30.4801 66.8414 30.7109H60.2768C60.4918 32.2435 61.4343 33.0097 63.1209 33.0097C64.1652 33.0356 65.1976 32.7771 66.1138 32.2604L66.4776 33.8271C65.5186 34.4062 64.2949 34.7637 62.7902 34.7637C59.7477 34.7637 58.0776 32.9927 58.0776 30.0808C58.0776 27.1689 59.9792 25.2788 62.5753 25.2788ZM62.5422 26.9986C61.2524 26.9986 60.4587 27.7991 60.2768 29.3486H64.7083C64.5595 27.782 63.8319 26.9986 62.5422 26.9986Z"/>
			<path id="Shape_2" d="M90.0166 25.2617C92.5134 25.2617 94.8614 26.9136 94.8614 29.9957C94.8614 33.0609 92.5961 34.7468 89.9834 34.7468C87.4371 34.7468 85.2378 33.112 85.2378 30.0469C85.2378 26.9817 87.47 25.2617 90.0166 25.2617ZM90.0495 27.0837C88.6772 27.0837 87.4535 28.0204 87.4535 29.9788C87.4535 31.937 88.5779 32.9077 90.0166 32.9077C91.5046 32.9077 92.6456 31.9199 92.6456 30.0127C92.6456 28.0885 91.4551 27.0837 90.0495 27.0837Z"/>
			<path id="Path_3" d="M79.4165 23.2776H81.5206V25.516H84.5806V27.1881H81.5206V32.6879H84.5806V34.4687H81.5408C80.3676 34.4687 79.4165 33.4892 79.4165 32.281V23.2776Z"/>
			<path id="Path_4" d="M57.6481 25.4944H57.2531C56.3632 25.4944 55.5097 25.8585 54.8805 26.5065L54.4363 26.964V25.4952L54.4424 25.4944H52.2889L52.2856 34.5182L54.4331 34.5191L54.4356 27.5134H57.6481V25.4944Z"/>
			<path id="Path_5" d="M113.117 25.5168L110.719 32.1411L108.42 25.5168H105.973L109.611 34.5761L109.143 35.6563H107.425V37.4251H109.466C110.159 37.4251 110.783 36.9969 111.051 36.3391L115.448 25.5168H113.117Z"/>
			<path id="Shape_3" d="M72.243 25.2788C73.5824 25.2788 74.9457 26.1304 75.3682 27.4404V25.5172H77.4682V34.5253H75.3682V32.3638C74.9472 33.7759 73.6774 34.7372 72.243 34.7297C69.9777 34.7297 67.9438 33.112 67.9438 30.0298C67.9438 26.9476 69.9115 25.2788 72.243 25.2788ZM75.3682 29.9276C74.9383 28.1907 73.8469 27.1179 72.5572 27.1179C71.2013 27.1179 70.1595 28.0885 70.1595 29.9957C70.1595 31.8348 71.2013 32.8906 72.5572 32.8906C73.9627 32.8906 74.9713 31.6985 75.3682 30.0127V29.9276Z"/>
			<path id="Shape_4" d="M98.2897 25.5172V27.4915C98.9043 26.1265 100.059 25.2788 101.415 25.2788C103.746 25.2788 105.714 26.9816 105.714 30.0638C105.714 33.146 103.68 34.7637 101.415 34.7637C100.092 34.7637 98.8141 33.7771 98.3724 32.5511V37.4253H96.2559V25.5172H98.2897ZM101.101 27.1179C99.7779 27.1179 98.6866 28.2929 98.2897 30.0298C98.67 31.7497 99.7283 32.9077 101.084 32.9077C102.457 32.9077 103.498 31.8519 103.498 30.0298C103.498 28.1225 102.457 27.1179 101.101 27.1179Z"/>
		</g>
	</g>
	<defs>
		<filter id="filter0_f_6939_9703" x="-12" y="4.5" width="51" height="51" filterUnits="userSpaceOnUse" color-interpolation-filters="sRGB">
			<feFlood flood-opacity="0" result="BackgroundImageFix"/>
			<feBlend mode="normal" in="SourceGraphic" in2="BackgroundImageFix" result="shape"/>
			<feGaussianBlur stdDeviation="2.25" result="effect1_foregroundBlur_6939_9703"/>
		</filter>
		<linearGradient id="paint0_linear_6939_9703" x1="-7.5" y1="30" x2="34.5" y2="30" gradientUnits="userSpaceOnUse">
			<stop stop-color="#B1DD00"/>
			<stop offset="1" stop-color="#00DBDB"/>
		</linearGradient>
	</defs>
</svg>