<?xml version="1.0" ?>
<svg xmlns="http://www.w3.org/2000/svg" viewBox="0 0 1000 500">
	<style>
		.cls0 { fill: #ff6b00; }
	</style>
	<path d="M 992.0,298.0 A 11.0,11.0 0.0 0,0 987.0,297.0 C 984.0,297.0 982.0,297.0 979.0,299.0 C 976.0,300.0 975.0,302.0 974.0,304.0 L 964.0,321.0 C 960.0,329.0 954.0,336.0 948.0,342.0 L 931.0,361.0 C 930.0,362.0 928.0,363.0 926.0,362.0 L 925.0,358.0 L 930.0,311.0 L 933.0,290.0 L 936.0,259.0 L 946.0,183.0 C 947.0,178.0 947.0,168.0 940.0,161.0 A 19.0,19.0 0.0 0,0 931.0,157.0 C 927.0,156.0 923.0,157.0 920.0,159.0 C 911.0,166.0 908.0,180.0 905.0,191.0 C 899.0,216.0 898.0,242.0 885.0,266.0 A 76.0,76.0 0.0 0,1 877.0,279.0 C 875.0,282.0 872.0,285.0 869.0,286.0 A 14.0,14.0 0.0 0,1 859.0,289.0 C 854.0,288.0 851.0,284.0 849.0,280.0 A 36.0,36.0 0.0 0,1 846.0,267.0 C 845.0,244.0 850.0,221.0 856.0,200.0 L 861.0,185.0 C 862.0,178.0 862.0,169.0 856.0,163.0 A 22.0,22.0 0.0 0,0 835.0,158.0 C 827.0,160.0 822.0,168.0 820.0,174.0 C 811.0,193.0 809.0,214.0 806.0,234.0 A 102.0,102.0 0.0 0,1 769.0,303.0 C 764.0,306.0 760.0,308.0 755.0,307.0 C 751.0,307.0 746.0,304.0 744.0,299.0 A 36.0,36.0 0.0 0,1 740.0,285.0 L 738.0,260.0 C 738.0,251.0 738.0,242.0 740.0,232.0 C 743.0,216.0 768.0,152.0 774.0,135.0 A 509.0,509.0 0.0 0,0 788.0,83.0 C 792.0,67.0 794.0,51.0 793.0,35.0 C 793.0,24.0 790.0,11.0 781.0,5.0 C 774.0,-1.0 764.0,-1.0 756.0,2.0 C 748.0,6.0 741.0,13.0 737.0,20.0 A 105.0,105.0 0.0 0,0 728.0,45.0 A 506.0,506.0 0.0 0,0 716.0,99.0 L 708.0,151.0 L 697.0,230.0 C 695.0,241.0 690.0,252.0 685.0,262.0 C 679.0,273.0 674.0,285.0 667.0,295.0 L 660.0,305.0 C 657.0,307.0 653.0,308.0 649.0,307.0 C 645.0,305.0 643.0,299.0 642.0,294.0 C 639.0,276.0 642.0,258.0 645.0,240.0 L 667.0,121.0 C 671.0,99.0 677.0,78.0 678.0,55.0 C 680.0,39.0 682.0,19.0 670.0,6.0 C 665.0,0.0 657.0,-1.0 652.0,0.0 A 28.0,28.0 0.0 0,0 636.0,13.0 A 72.0,72.0 0.0 0,0 625.0,32.0 C 620.0,44.0 617.0,58.0 614.0,70.0 L 613.0,75.0 A 454.0,454.0 0.0 0,0 605.0,124.0 A 679.0,679.0 0.0 0,0 602.0,150.0 L 601.0,163.0 C 601.0,166.0 602.0,170.0 600.0,173.0 L 598.0,176.0 C 595.0,179.0 590.0,178.0 585.0,178.0 A 66.0,66.0 0.0 0,0 529.0,209.0 C 521.0,220.0 517.0,232.0 513.0,244.0 L 510.0,250.0 A 124.0,124.0 0.0 0,1 488.0,291.0 L 472.0,308.0 A 47.0,47.0 0.0 0,1 450.0,319.0 C 443.0,320.0 434.0,317.0 428.0,310.0 A 39.0,39.0 0.0 0,1 419.0,288.0 L 420.0,281.0 C 422.0,278.0 426.0,278.0 430.0,278.0 A 68.0,68.0 0.0 0,0 487.0,236.0 C 493.0,222.0 495.0,207.0 492.0,192.0 A 49.0,49.0 0.0 0,0 484.0,172.0 A 39.0,39.0 0.0 0,0 468.0,159.0 A 55.0,55.0 0.0 0,0 426.0,159.0 C 402.0,169.0 386.0,190.0 378.0,224.0 L 378.0,228.0 C 373.0,248.0 368.0,269.0 353.0,284.0 C 348.0,289.0 343.0,291.0 338.0,290.0 C 336.0,290.0 335.0,288.0 334.0,287.0 C 330.0,280.0 334.0,265.0 340.0,245.0 L 344.0,230.0 C 344.0,222.0 343.0,215.0 340.0,209.0 C 336.0,204.0 331.0,199.0 324.0,196.0 C 318.0,193.0 311.0,193.0 305.0,193.0 L 296.0,193.0 A 9.0,9.0 0.0 0,1 290.0,187.0 L 291.0,178.0 L 292.0,175.0 C 294.0,169.0 291.0,161.0 285.0,158.0 C 279.0,154.0 272.0,154.0 265.0,156.0 A 33.0,33.0 0.0 0,0 250.0,171.0 C 247.0,177.0 245.0,184.0 246.0,191.0 A 47.0,47.0 0.0 0,1 248.0,210.0 A 82.0,82.0 0.0 0,1 232.0,241.0 L 227.0,248.0 C 218.0,262.0 208.0,273.0 198.0,282.0 A 116.0,116.0 0.0 0,1 147.0,310.0 C 115.0,317.0 84.0,308.0 67.0,280.0 A 120.0,120.0 0.0 0,1 52.0,227.0 C 50.0,191.0 56.0,155.0 70.0,122.0 C 84.0,91.0 104.0,59.0 142.0,55.0 C 156.0,53.0 173.0,59.0 180.0,72.0 C 184.0,81.0 183.0,93.0 180.0,103.0 C 177.0,113.0 172.0,123.0 172.0,134.0 C 172.0,145.0 177.0,157.0 187.0,160.0 C 197.0,163.0 208.0,156.0 214.0,148.0 C 220.0,139.0 222.0,129.0 224.0,118.0 C 230.0,95.0 239.0,72.0 252.0,50.0 C 257.0,41.0 264.0,30.0 262.0,19.0 C 261.0,11.0 255.0,4.0 247.0,2.0 C 239.0,-1.0 230.0,2.0 224.0,8.0 C 219.0,14.0 216.0,23.0 208.0,25.0 C 201.0,28.0 194.0,23.0 187.0,20.0 A 96.0,96.0 0.0 0,0 106.0,18.0 C 79.0,28.0 58.0,48.0 42.0,72.0 A 244.0,244.0 0.0 0,0 1.0,230.0 C 3.0,249.0 5.0,265.0 10.0,280.0 C 16.0,297.0 23.0,313.0 33.0,325.0 A 98.0,98.0 0.0 0,0 72.0,356.0 A 122.0,122.0 0.0 0,0 171.0,353.0 A 174.0,174.0 0.0 0,0 213.0,325.0 A 217.0,217.0 0.0 0,0 274.0,243.0 C 276.0,238.0 278.0,234.0 282.0,232.0 C 285.0,230.0 289.0,231.0 291.0,232.0 C 293.0,234.0 296.0,235.0 297.0,238.0 C 298.0,243.0 297.0,248.0 296.0,252.0 L 292.0,265.0 C 287.0,283.0 283.0,299.0 286.0,315.0 A 47.0,47.0 0.0 0,0 296.0,336.0 A 35.0,35.0 0.0 0,0 317.0,347.0 C 328.0,349.0 338.0,346.0 347.0,342.0 A 69.0,69.0 0.0 0,0 371.0,324.0 C 373.0,321.0 375.0,317.0 379.0,317.0 L 383.0,320.0 L 386.0,325.0 A 61.0,61.0 0.0 0,0 441.0,360.0 L 444.0,360.0 C 455.0,360.0 467.0,356.0 477.0,351.0 C 488.0,345.0 497.0,336.0 506.0,328.0 L 509.0,326.0 C 511.0,326.0 512.0,326.0 513.0,328.0 L 515.0,332.0 A 46.0,46.0 0.0 0,0 550.0,359.0 A 46.0,46.0 0.0 0,0 591.0,345.0 L 598.0,337.0 C 601.0,335.0 604.0,334.0 607.0,335.0 C 612.0,337.0 613.0,342.0 615.0,347.0 C 619.0,356.0 630.0,362.0 640.0,362.0 C 652.0,362.0 663.0,356.0 672.0,348.0 C 680.0,341.0 687.0,331.0 694.0,323.0 A 15.0,15.0 0.0 0,1 698.0,319.0 C 700.0,318.0 702.0,317.0 704.0,319.0 L 706.0,323.0 A 45.0,45.0 0.0 0,0 748.0,349.0 A 69.0,69.0 0.0 0,0 794.0,328.0 C 798.0,324.0 802.0,320.0 807.0,319.0 C 813.0,319.0 816.0,324.0 818.0,328.0 A 32.0,32.0 0.0 0,0 828.0,342.0 A 27.0,27.0 0.0 0,0 851.0,347.0 A 39.0,39.0 0.0 0,0 871.0,333.0 L 879.0,322.0 C 882.0,318.0 884.0,323.0 884.0,326.0 L 885.0,341.0 L 881.0,370.0 C 881.0,373.0 881.0,375.0 879.0,378.0 C 876.0,380.0 872.0,381.0 868.0,380.0 A 129.0,129.0 0.0 0,0 855.0,379.0 L 849.0,378.0 L 824.0,377.0 L 816.0,377.0 C 799.0,377.0 785.0,379.0 773.0,383.0 A 71.0,71.0 0.0 0,0 731.0,426.0 A 53.0,53.0 0.0 0,0 729.0,452.0 A 53.0,53.0 0.0 0,0 741.0,476.0 A 67.0,67.0 0.0 0,0 789.0,499.0 C 806.0,500.0 824.0,497.0 842.0,488.0 C 878.0,473.0 904.0,443.0 913.0,407.0 L 914.0,405.0 A 125.0,125.0 0.0 0,0 975.0,361.0 L 986.0,345.0 L 994.0,330.0 L 1000.0,317.0 C 1000.0,312.0 1000.0,307.0 997.0,303.0 A 10.0,10.0 0.0 0,0 992.0,298.0 M 422.0,230.0 L 424.0,221.0 A 73.0,73.0 0.0 0,1 435.0,200.0 C 437.0,198.0 438.0,196.0 441.0,195.0 C 443.0,193.0 446.0,192.0 449.0,193.0 C 453.0,193.0 456.0,198.0 457.0,202.0 A 43.0,43.0 0.0 0,1 452.0,226.0 A 47.0,47.0 0.0 0,1 439.0,243.0 L 432.0,248.0 L 427.0,249.0 L 426.0,249.0 C 424.0,249.0 422.0,248.0 421.0,245.0 C 420.0,240.0 421.0,235.0 422.0,230.0 M 601.0,222.0 L 600.0,232.0 L 599.0,244.0 L 600.0,264.0 C 601.0,270.0 602.0,276.0 599.0,283.0 A 45.0,45.0 0.0 0,1 576.0,309.0 A 22.0,22.0 0.0 0,1 566.0,312.0 L 563.0,311.0 C 558.0,311.0 554.0,307.0 552.0,304.0 L 548.0,293.0 A 90.0,90.0 0.0 0,1 551.0,246.0 C 554.0,237.0 559.0,228.0 567.0,221.0 C 573.0,215.0 582.0,211.0 590.0,211.0 C 593.0,211.0 597.0,212.0 599.0,214.0 A 9.0,9.0 0.0 0,1 601.0,221.0 L 601.0,222.0 M 869.0,416.0 L 866.0,422.0 A 80.0,80.0 0.0 0,1 846.0,444.0 A 99.0,99.0 0.0 0,1 814.0,460.0 A 84.0,84.0 0.0 0,1 793.0,463.0 L 792.0,463.0 A 34.0,34.0 0.0 0,1 770.0,456.0 C 768.0,454.0 764.0,450.0 763.0,445.0 C 763.0,441.0 763.0,437.0 766.0,433.0 C 769.0,426.0 774.0,420.0 781.0,417.0 A 87.0,87.0 0.0 0,1 824.0,410.0 L 841.0,411.0 L 854.0,412.0 L 861.0,412.0 L 867.0,413.0 C 869.0,413.0 870.0,414.0 869.0,416.0" class="cls0"/>
</svg>