<svg xmlns="http://www.w3.org/2000/svg" fill="none" viewBox="0 0 800 800">
<path fill="#18A171" fill-rule="evenodd" d="M399.998 111.111c108.737 0 203.426 60.088 252.724 148.864a158.271 158.271 0 0 0-7.238-.183 139.554 139.554 0 0 0-79.583 24.745 201.882 201.882 0 0 0-165.903-86.713c-111.621 0-202.111 90.492-202.111 202.115s90.49 202.178 202.111 202.178a201.871 201.871 0 0 0 165.903-86.713 139.55 139.55 0 0 0 79.583 24.773c2.434 0 4.847-.061 7.238-.183-49.298 88.813-143.987 148.901-252.724 148.901-159.549 0-288.887-129.34-288.887-288.892s129.338-288.892 288.887-288.892Zm0 183.713a105.178 105.178 0 1 0 100.476 136.359c28.451-17.68 78.771-19.46 107.824-8.772a43.414 43.414 0 0 0 48.809 19.416 43.406 43.406 0 0 0 31.782-41.824 43.413 43.413 0 0 0-31.782-41.825 43.407 43.407 0 0 0-48.809 19.416c-29.053 10.689-79.41 8.909-107.824-8.771a105.232 105.232 0 0 0-100.476-73.999Z" clip-rule="evenodd"/>
</svg>