<?xml version="1.0" ?>
<svg xmlns="http://www.w3.org/2000/svg" version="1.2" viewBox="0 0 1526 1524">
	<title>pic1-1-pdf-svg</title>
	<style>
		.s0 { fill: #ffffff } 
		.s1 { fill: #f09839 } 
	</style>
	<g id="Clip-Path: Page 1" clip-path="url(#cp1)">
		<g id="Page 1">
			<path id="Path 160" class="s0" d="m138.2 123.4h1387.6v1400.1h-1387.6z"/>
			<path id="Path 161" fill-rule="evenodd" class="s1" d="m0.1 0.6h1525.7v856.6l-184.2-319.3c-12.3-18.4-33.8-30.7-55.3-30.7-21.5 0-42.9 12.3-55.2 30.7l-236.4 414.5c-18.4 30.7-9.2 67.5 21.5 86 30.7 18.4 70.6 6.1 89-21.5l181.1-319.4 184.2 319.4c12.3 18.4 33.8 30.7 55.3 30.7v350l-184.2-319.3c-12.3-18.4-33.8-30.7-55.3-30.7-21.5 0-42.9 12.3-55.2 30.7l-236.4 414.5q-9.2 15.3-9.2 30.7h-64.5c0-9.2-3-21.5-9.2-30.7l-236.4-414.5c-12.2-18.4-33.7-30.7-55.2-30.7-24.6 0-43 12.3-55.3 30.7l-239.4 414.5c-6.2 9.2-9.2 21.5-9.2 30.7h-316.2zm1120.5 1522.9l165.7-285.5 165.8 285.5zm-669.2 0l165.8-285.5 165.7 285.5zm162.7-825.9l184.2 319.3c18.4 30.7 58.3 39.9 86 21.5 30.7-15.4 43-55.3 24.5-86l-239.4-411.4c-9.2-21.5-33.8-33.8-55.3-33.8-21.5 0-42.9 12.3-55.2 33.8l-236.4 411.4c-18.4 30.7-9.2 70.6 21.5 86 30.7 18.4 70.6 9.2 89-21.5z"/>
		</g>
	</g>
</svg>