<?xml version="1.0" ?>
<svg xmlns="http://www.w3.org/2000/svg" viewBox="0 0 1575 652">
	<defs>
		<clipPath clipPathUnits="userSpaceOnUse" id="cp1">
			<path d="m-691.41-778.43h20399.38v13851.43h-20399.38z"/>
		</clipPath>
	</defs>
	<style>
		.s0 { fill: #ffffff } 
		.s1 { fill: #f09839 } 
		.s2 { fill: #6c5b55 } 
	</style>
	<g id="Clip-Path: Page 1" clip-path="url(#cp1)">
		<g id="Page 1">
			<path id="Path 160" class="s0" d="m39.4 35h387.3v390.9h-387.3z"/>
			<path id="Path 161" fill-rule="evenodd" class="s1" d="m0.9 0.7h425.8v239.2l-51.4-89.2c-3.5-5.1-9.5-8.6-15.5-8.6-6 0-12 3.5-15.4 8.6l-66 115.7c-5.1 8.6-2.5 18.9 6 24 8.6 5.2 19.7 1.7 24.9-6l50.5-89.1 51.4 89.1c3.5 5.2 9.5 8.6 15.5 8.6v97.7l-51.4-89.1c-3.5-5.2-9.5-8.6-15.5-8.6-6 0-12 3.4-15.4 8.6l-66 115.7q-2.5 4.3-2.5 8.6h-18c0-2.6-0.9-6-2.6-8.6l-66-115.7c-3.4-5.2-9.4-8.6-15.4-8.6-6.8 0-12 3.4-15.4 8.6l-66.8 115.7c-1.7 2.6-2.6 6-2.6 8.6h-88.2zm312.7 425.1l46.2-79.7 46.3 79.7zm-186.8 0l46.3-79.7 46.3 79.7zm45.4-230.6l51.4 89.2c5.1 8.5 16.2 11.1 24 6 8.5-4.3 12-15.5 6.8-24l-66.8-114.9c-2.6-6-9.4-9.4-15.4-9.4-6 0-12 3.4-15.5 9.4l-65.9 114.9c-5.2 8.5-2.6 19.7 6 24 8.5 5.1 19.7 2.5 24.8-6z"/>
			<path id="Path 162" fill-rule="evenodd" class="s2" d="m599.7 647q-6 0.9-13.7 2.6-7.7 1.7-18 1.7-11.1 0-22.2-3.4-11.2-2.6-19.8-9.5-8.5-6-14.5-17.1-5.2-10.3-5.2-25.7 0-13.7 4.3-24 4.3-11.2 12.9-18 8.5-6.9 19.7-10.3 11.1-3.4 24-3.4 8.5 0 16.2 1.7 7.8 1.7 16.3 4.3l-2.5 23.1q-6.9-4.3-13.8-6-6.8-1.7-14.5-1.7-7.7 0-13.7 2.6-6 2.5-10.3 6.8-4.3 5.2-6.9 11.2-2.5 6.8-2.5 13.7 0 8.5 2.5 14.5 2.6 6 7.8 10.3 4.2 4.3 11.1 6.9 6.8 2.6 14.6 2.6 6.8 0 13.7-1.8 6.8-1.7 12.8-4.2zm12-104.6h51.4q6.9 0 13.7 1.7 6 1.7 11.2 5.1 4.2 3.5 6.8 8.6 2.6 5.2 2.6 12 0 10.3-5.2 17.2-4.2 6.8-15.4 9.4v0.8q3.4 0.9 6 2.6 1.7 1.7 3.4 5.2 1.8 2.5 2.6 6.8 1.7 3.4 3.4 8.6l10.3 29.1h-29.1l-6.9-18.8q-1.7-6.9-3.4-12-2.6-4.3-4.3-6.9-2.5-2.6-5.1-3.4-3.4-0.9-6.9-0.9h-6v42h-29.1zm29.1 44.6c2.3 0 12.3 0 14.6 0q3.4 0 6.9-1.7 2.5-0.9 5.1-3.4 1.7-2.6 1.7-6.9 0-4.3-1.7-6-1.7-2.6-4.3-4.3-3.4-0.8-6.8-1.7c-2.9 0-13.2 0-15.5 0zm121.7-44.6h28.3v85.7h44.5v21.5h-72.8zm117.4 0h35.1l41.1 107.1h-30.8l-8.6-22.3h-40.3l-8.5 22.3h-28.3zm17.1 22.3l-14.5 42h27.4zm70.2-22.3h36.9l36 72.9v-72.9h25.7v108h-35.2l-37.7-73.7 0.9 73.7h-26.6zm119.1 0h39.4q13.8 0 25.7 2.6 11.2 1.7 19.8 8.6 8.5 6 13.7 16.2 4.2 10.3 4.2 25.8 0 14.5-5.1 24.8-4.3 10.3-12.8 17.2-8.6 6-20.6 9.4-11.1 2.6-24.9 2.6h-39.4zm29.2 85.7h11.1q15.4 0 24-7.7 9.4-8.6 9.4-24 0-16.3-9.4-24.9-8.6-7.7-24-7.7h-11.1zm-134.5-438.9c-3.5 39.5 4.2 76.3 0 116.6 0.8 3.4-0.9 5.1 0 8.6-0.9 11.1 2.5 17.1 1.7 25.7 1.7 22.3 19.7 59.1-7.7 72-14.6-10.3-29.2-21.4-43.7-34.3 0-0.9-6-6.9-9.5-10.3-2.5-3.4-6-7.7-6-12-21.4-9.4-46.2 24.9-61.6-3.4-12.9-18 28.2-26.6 6-43.7-2.6-1.7-2.6-5.2-5.2-8.6 6.9-6 24.9-0.9 21.4-15.4-7.7-7.7-18-10.3-30-10.3-6.8 0.8-13.7 6.8-15.4 13.7 3.4 30-6 57.4-5.1 89.1-0.9 4.3-5.2 7.8-8.6 4.3-13.7-23.1-4.3-49.7-7.7-76.3 0-23.1 9.4-48.8-0.9-69.4-17.9 23.2-18.8 57.4-29.1 85.7-6.8 23.2-12 47.2-24 67.7-9.4-6.8-27.4-8.5-29.1-24-0.9-5.1 1.7-8.5 4.3-12 0-0.8 2.6-3.4 2.6-3.4 16.2-18.8 12.8-44.6 17.1-69.4 4.3-26.6-16.3-48.9-5.2-73.7l30.9-48c12.8 10.3 22.3 30 21.4 48.8-6.8 12-21.4 12.9-29.1 24.9 6.8 6.8 9.4 24 23.1 18.8 20.6-22.2 23.1-48.8 26.6-77.1 2.5-3.4 6.8-6 9.4-8.6 2.6-1.7 6-4.3 6.8-4.3 12.9-4.2 25.8-12 40.3-11.1l7.7 12.9c-13.7 24.8-2.5 57.4-10.3 83.1-0.8 4.3 4.3 5.1 7.8 7.7 6-0.8 10.2-5.1 15.4-7.7 4.3-33.4-2.6-69.4 12-99.4 6 4.3 12 14.5 21.4 11.1 22.3-0.8 43.7-44.6 60-12zm-27.5-21.4l-20.5 11.1c-0.9 13.7 20.5 14.6 18 30-5.2 7.7-14.6 4.3-20.6 8.6-0.8 6 7.7 8.6 11.2 12.9 5.1 2.5 13.7 9.4 17.1 0.8-4.3-21.4 6.8-44.6-5.2-63.4zm-107 18.8c-2.6 4.3-0.9 11.2 4.2 14.6 6.9 4.3 6.9-5.1 7.7-9.4 1.8-7.7-6.8-5.2-11.9-5.2zm-6.9 38.6c-5.1 4.3-4.3 11.2-5.1 17.2-1.8 6 1.7 12 8.5 11.1 6.9-2.6 10.3-9.4 10.3-16.3 2.6-9.4-8.6-10.3-13.7-12zm89.1 30c-18.8-7.7-12.8 18-27.4 20.6-2.6 6 0.8 12 6 16.3 6 6 2.6 14.5 0 20.5 1.7 4.3 3.4 8.6 8.6 9.5 17.1 6 10.2 20.5 17.9 32.5 7.8 3.5 16.3 6 24 0-3.4-32.5 4.3-62.5 0-95.1-10.2-2.6-22.2 5.1-29.1-0.9zm-236.5-159.4c2.6 15.4-16.2 24.9-24 36-3.4 0-8.5 2.6-9.4 8.6 21.4 20.6-13.7 34.3-21.4 51.4 0 0-0.9 2.6-1.7 3.4 2.6 3.5 7.7 4.3 10.3 1.8l1.7-1.8c0 0 7.7-12.8 17.1-12 2.6-6 6.9-6.8 13.7-7.7 16.3 14.6-15.4 45.5 16.3 52.3 2.6 4.3 0 8.6 0 12-13.7 15.4-36.8 11.2-46.3 30.9 4.3 3.4 9.5 1.7 14.6 0 0.9 0 16.3-6.9 23.1-8.6 6-0.9 11.2-3.4 16.3-7.7 0.9-0.9 3.4-1.7 4.3-1.7 11.1-0.9 24.8-3.5 32.6 6.8 2.5 1.7 1.7 6 0 8.6-6.9 9.4-19.7 6-28.3 11.1-14.6 5.2-30.9 6.9-39.4 22.3 3.4 9.5 22.3 16.3 17.1 29.2-18.8 12.8-36 19.7-55.7 30.8 0 36-3.4 78.9 1.7 111.5-3.4 3.4-8.5 8.5-12 4.2-6-3.4-5.1-7.7-7.7-12-3.4-26.5-1.7-55.7-4.3-82.2l-0.8-5.2c0-1.7-1.7-6-4.3-6.8-8.6-4.3-18 3.4-26.6 6-5.1 0.8-10.2 4.2-12.8 4.2-6.9 0.9-12.9 0-12-8.5-3.4-11.2 6-16.3 12.9-22.3 3.4-3.4 6.8-6 8.5-6.9 4.3-5.1 10.3-8.5 12-16.3-3.4-2.5-8.6-3.4-12-1.7-25.7 14.6-56.5 22.3-82.2 35.2-8.6 1.7-21.4 17.1-25.7 0-1.7-2.6 0-5.2-0.9-7.7 27.4-17.2 57.4-31.8 85.7-51.5-2.6-13.7 9.4-21.4 12-34.3-7.7-10.2-25.7 12-25.7-8.5-11.2-25.7 28.3-25.7 25.7-47.2-3.4-8.5-6.9-18-6.9-27.4-13.7-12.9-24.8-30-17.1-48.9 20.6-18 37.7-34.2 64.2-35.1q2.6 5.1 7.8 10.3c6.8 1.7 12-6.9 17.1-1.7 0 6-6 4.3-8.6 8.5-15.4 22.3-40.2 41.2-55.7 60 4.3 11.2 10.3-1.7 15.5-0.8 28.2-21.4 49.7-49.7 65.9-76.3 7.7-15.4 21.4-4.3 31.7-13.7 6.9-0.9 10.3 5.1 13.7 9.4zm-102.8 123.4c-3.4 6-9.4 13.8-5.1 19.8 13.7 4.2 18.8-6.9 21.4-16.3-0.9-8.6-12-4.3-16.3-3.5zm30 24.9c2.6 6.9 11.2 6 17.1 6.9 9.5-6 1.8-20.6 6.9-28.3-12.8-2.6-19.7 11.1-24 21.4zm-26.5 30.9h6.8c3.4 0 4.3-4.3 4.3-7.8-6 0-13.7 1.8-11.1 7.8zm4.2 9.4c-2.5 4.3-12.8 6-8.5 12 6 0 10.3 0 14.5-5.2-0.8-2.5 0-6.8-6-6.8zm47.2 30.8c-3.5 1.8-10.3 6-7.8 12h8.6c4.3-0.8 5.2-5.1 6-8.5 0-4.3-4.3-3.5-6.8-3.5z"/>
			<path id="Path 163" fill-rule="evenodd" class="s2" d="m1294.6 368.4v22.3h-245.1v-22.3h31.7v-110.5h66.9q0.8-4.3 1.7-10.3h-96.8v-24h99.3q0.9-6 0.9-11.2h-89.1v-59.1h215.9v59.1h-93.4q-0.9 5.2-1.7 11.2h101.1v24h-105.4l-1.7 10.3h82.2v110.5zm-138.8-177.4h30.9v-16.3h-30.9zm-43.6 177.4h117.3v-10.2h-117.3zm0-25.8h117.3v-11.1h-117.3zm0-27.4h117.3v-10.3h-117.3zm0-26.6h117.3v-10.3h-117.3zm-16.3-96.8h30v-16.3h-30zm120.8-0.9h31.7v-15.4h-31.7zm309.3 174c15.4 0 18-6.9 20.5-34.3 6.9 5.2 19.7 10.3 28.3 11.2-4.3 38.5-13.7 51.4-45.4 51.4h-58.3c-36.8 0-47.9-9.4-47.9-47.2v-70.2l-14.6 6-12-29.2 26.6-11.1v-72h31.7v59.1l22.2-10.3v-74.5h30v61.7l22.3-9.5 5.1-3.4 6-4.3 22.3 8.6-0.8 5.1c0 52.3-0.9 84.9-1.8 96-0.8 12.9-6 18.9-13.7 22.3-8.5 3.5-19.7 4.3-29.1 4.3 0-8.6-2.6-20.6-6-27.4 4.3 0.8 10.3 0.8 12.9 0.8 3.4 0 5.1-1.7 6-6 0-5.1 0.8-24.8 0.8-63.4l-24 10.3v96.9h-30v-84l-22.2 10.2v84c0 16.3 1.7 18.9 18.8 18.9zm-145.6-63.4q12.8-5.2 24.8-10.3l7.7 28.3c-29.1 14.5-60 29.1-85.7 41.1l-12.8-32.6c9.4-4.2 21.4-8.5 35.1-13.7v-77.1h-31.7v-30.9h31.7v-59.1h30.9v59.1h27.4v30.9h-27.4z"/>
		</g>
	</g>
</svg>