<?xml version="1.0" ?>
<svg xmlns="http://www.w3.org/2000/svg" baseProfile="tiny-ps" viewBox="0 0 140 140" fill="none">
	<path d="M108 53.8782V97.5163C108 102.756 103.756 107 98.5163 107H54.8782C49.639 107 45.3946 102.756 45.3946 97.5163V53.8782C45.3946 48.639 49.639 44.3946 54.8782 44.3946H98.5163C103.756 44.3946 108 48.639 108 53.8782ZM36.4837 26C31.2444 26 27 30.2444 27 35.4837C27 40.7229 31.2444 44.9673 36.4837 44.9673C41.7229 44.9673 45.9673 40.7229 45.9673 35.4837C45.9673 30.2444 41.7229 26 36.4837 26Z" fill="url(#paint0_linear_1078_20226)"/>
	<defs>
		<linearGradient id="paint0_linear_1078_20226" x1="38.9764" y1="95.0257" x2="96.0268" y2="37.9753" gradientUnits="userSpaceOnUse">
			<stop stop-color="#7381FD"/>
			<stop offset="1" stop-color="#76C7FF"/>
		</linearGradient>
	</defs>
</svg>