<?xml version="1.0" ?>
<svg xmlns="http://www.w3.org/2000/svg" viewBox="0 0 1000 1000">
	<defs>
		<style>.st0{fill:#2500dc}</style>
	</defs>
	<path d="M852.13 165.46 514.45 38.92c-9.72-3.55-20.14-3.55-29.62 0l.95-.47-337.91 126.3c-16.35 6.4-27.25 22.04-27.25 39.57v295.5c0 145.5 96.45 261.61 182.7 337.91 44.31 38.63 88.63 68.96 121.56 89.57 16.59 10.19 30.33 18.25 40.28 23.7 4.74 2.84 8.77 4.74 11.61 6.16 1.18.71 2.13 1.42 3.08 1.66.47.24.95.47.95.47s6.4-12.56 18.96-37.68l.24.47.12-.24-.12-.24h.24l-.12.24 18.84 37.44h.71c.47-.24 1.66-.71 3.08-1.66 2.84-1.42 6.87-3.32 11.61-6.16 9.95-5.45 23.7-13.27 40.28-23.7 32.94-20.62 77.25-50.71 121.56-89.57 86.73-76.07 183.18-192.18 183.18-337.68V205.04c0-17.54-10.9-33.41-27.25-39.57Zm-56.87 335.07c0 107.82-72.51 202.84-154.5 274.41-40.52 35.07-80.57 62.8-110.9 81.75-11.97 7.28-21.85 13.39-30.09 17.88.08.04.16.09.24.13h-.47c.08-.04.16-.09.24-.13-8.03-4.49-18.36-10.37-30.1-17.88-1.32-.82-2.69-1.68-4.05-2.54-22.57-152.06 25.53-275.9 74.69-356.96 7.09 41.29 9.9 97.48-4.29 155.46-3.55 14.93-4.98 26.78-3.08 35.31 1.18 4.5 3.55 9.72 8.53 12.8 4.98 3.32 10.66 2.84 14.93 1.42 7.58-2.37 14.93-9.24 21.33-16.82 6.87-8.29 13.98-18.72 20.38-30.81 13.27-24.41 24.41-56.16 27.25-89.34 1.08-12.73.88-25.76-.99-38.69 19.52 30.09 37.72 65.49 50.27 105.04 5.21 17.3 11.14 29.62 18.01 36.73 3.32 3.79 8.53 7.11 14.69 7.11 6.64.24 11.37-3.55 14.45-7.11 5.69-6.87 9-17.77 10.66-29.38 1.66-11.85 2.61-26.78 1.66-42.89-1.66-31.99-9.48-70.62-27.01-105.69-16.14-32.06-40.33-61.67-75.47-79.12 28.36 3.41 61.6 11.28 94.19 27.23 10.9 5.45 20.38 8.53 27.73 8.53 4.03 0 9-1.18 13.03-5.45 3.55-4.27 4.03-9.72 3.55-13.27-1.18-7.11-5.69-14.45-10.43-20.62-5.45-6.64-12.32-13.98-20.85-21.09-17.06-14.46-39.81-28.91-65.17-36.73-25.36-7.82-53.79-9.48-80.81 2.84-6.36 2.97-12.05 5.96-17.12 8.96-.66-28.5-13.34-52.79-30.03-72.23-17.54-19.91-40.05-35.07-59.72-44.55-9.95-4.74-19.67-8.53-27.96-10.43-7.82-1.9-16.35-3.08-22.75-1.18-3.55 1.18-8.29 3.32-10.66 8.77s-1.18 10.43.24 13.74c2.84 6.87 9.95 13.98 18.96 21.8 43.32 36.1 69.57 81.89 82.15 112.28-6.89-10.5-16.18-22.29-28.36-35.27-29.86-31.75-68.96-46.21-108.06-50.47-38.63-4.03-77.73 1.9-108.53 11.61-15.4 4.74-29.15 10.66-39.81 16.59-10.19 5.69-19.19 12.8-23.7 20.38-2.37 4.27-4.03 9.95-1.66 16.11 2.37 5.92 7.11 9.24 11.85 11.37 9 4.03 22.51 4.98 40.52 4.27 69.79-3.63 134.15 12.01 180.7 29.41-14.75 3.18-28.5 9.35-40.89 17.04-22.51 13.98-41 33.89-53.55 52.13-6.16 9-11.37 18.01-14.69 25.83-3.08 7.35-5.69 15.4-4.74 22.51.47 3.55 2.37 8.77 7.11 11.85s10.19 2.84 13.74 1.66c7.11-1.66 15.4-7.35 24.64-15.4 34.56-30.2 73.49-48.2 104.01-58.06-78.05 96.67-119.28 196-142.45 288.51-74.91-69.81-137.86-159.13-137.86-259.37V234.42l295.5-110.9 295.5 110.9v266.11Z" class="st0"/>
	<path d="m500 922.09-18.72 37.21a42.191 42.191 0 0 0 37.68 0h-.24L500 922.09Z" class="st0"/>
</svg>