<?xml version="1.0" ?>
<svg xmlns="http://www.w3.org/2000/svg" viewBox="0 0 50 50" fill="none">
	<path d="M27.0194 43.0006C16.3469 43.0274 7.90794 33.7933 9.11402 23.1817C9.92879 16.0292 13.7936 10.8797 20.5191 8.30852C27.2249 5.74628 33.4625 6.99166 38.9819 11.6516C39.5269 12.1108 39.5412 12.4056 38.9998 12.8505C38.4995 13.2615 38.1118 14.0351 37.5864 14.1227C37.1808 14.1906 36.6448 13.4366 36.157 13.0613C27.0819 6.06969 13.8579 11.3836 12.0676 22.7385C10.8079 30.7219 16.1986 38.4139 24.1141 39.8398C29.7014 40.8475 34.4274 39.193 38.2386 34.9887C38.6442 34.542 38.8586 34.483 39.3357 34.894C41.0689 36.3824 41.0868 36.3627 39.4375 38.0012C36.1945 41.2245 31.8115 42.9899 27.0194 43.0006Z" fill="#860338"/>
	<path d="M31.6328 31.29C30.3553 32.0458 29.033 32.6926 27.5125 32.7516C20.9418 33.0063 17.1208 25.949 20.6745 20.4997C21.1551 19.7885 21.8484 19.2775 22.4219 18.6539C23.4869 18.1715 24.4946 17.5711 25.6953 17.4067C28.8544 16.9761 31.4273 17.9946 33.2606 20.5747C35.1206 23.1905 35.1581 25.9994 33.7126 28.8421C33.5929 29.0762 33.4678 29.3085 33.3463 29.5425C32.7746 30.125 32.2046 30.7075 31.6328 31.2882V31.29ZM28.2486 22.8582C28.2486 20.9696 28.2486 20.9892 26.3404 21.0125C25.8419 21.0178 25.6864 21.15 25.6935 21.6557C25.7221 23.4854 25.7043 25.3168 25.7043 27.1465C25.7043 29.103 25.7043 29.0869 27.6608 29.0351C28.12 29.0226 28.2719 28.9082 28.2576 28.4383C28.2042 26.5801 28.2472 24.7172 28.2486 22.8582Z" fill="#860338"/>
	<path d="M31.6328 31.29C32.2046 30.7075 32.7745 30.1272 33.3462 29.5447C34.5005 30.4738 35.4564 31.6066 36.5339 32.6144C36.8037 32.8663 36.7197 33.036 36.5106 33.2737C31.6381 38.7841 24.1157 38.8252 19.1824 34.9532C17.9138 33.958 17.9584 33.9687 19.0591 32.7877C19.5522 32.2588 19.8274 32.2463 20.3813 32.7394C21.7947 34.0027 23.4796 34.7353 25.3575 35.089C28.0931 35.6054 30.4802 34.8014 32.7584 33.3827C33.2962 33.0485 33.2033 32.852 32.7959 32.5018C32.3724 32.1391 32.0188 31.6956 31.6328 31.2882V31.29Z" fill="#9B8D7F"/>
	<path d="M22.422 18.6563C21.8484 19.2799 21.1552 19.7909 20.6745 20.5021C19.9241 19.3442 18.8055 18.5402 17.83 17.6075C17.2332 17.0375 17.3386 16.7463 17.8532 16.2245C22.4935 11.5128 30.0373 11.1536 35.0921 15.3955C35.6514 15.8654 35.5763 16.1012 35.11 16.5444C33.9914 17.6075 34.0111 17.6271 32.8139 16.7498C29.5513 14.3591 24.8485 14.2394 21.4661 16.4336C20.9157 16.7909 20.8818 17.0429 21.3678 17.4842C21.7537 17.8344 22.2058 18.1453 22.4238 18.6563H22.422Z" fill="#9B8D7F"/>
</svg>