<?xml version="1.0" ?>
<svg xmlns="http://www.w3.org/2000/svg" xmlns:xlink="http://www.w3.org/1999/xlink" viewBox="0 0 90 90">
	<g fill="none" fill-rule="evenodd">
		<g fill-rule="nonzero">
			<use xlink:href="#B" fill="#e74c3c"/>
			<use xlink:href="#C" fill="#000" opacity=".12"/>
			<use xlink:href="#D" fill="#fff"/>
			<use xlink:href="#C" fill="#000" opacity=".12"/>
			<use xlink:href="#D" fill="#fff"/>
			<use xlink:href="#C" fill="#000" opacity=".12"/>
			<use xlink:href="#D" fill="#fff"/>
			<use xlink:href="#C" fill="#000" opacity=".12"/>
			<use xlink:href="#D" fill="#fff"/>
			<use xlink:href="#B" fill="#e74c3c"/>
			<use xlink:href="#C" fill="#000" opacity=".12"/>
			<use xlink:href="#D" fill="#fff"/>
			<use xlink:href="#C" fill="#000" opacity=".12"/>
			<use xlink:href="#D" fill="#fff"/>
			<use xlink:href="#C" fill="#000" opacity=".12"/>
			<use xlink:href="#D" fill="#fff"/>
			<use xlink:href="#C" fill="#000" opacity=".12"/>
		</g>
	</g>
	<defs>
		<path id="B" d="M 30.431,40.442 L 33.669,37.736 L 10.037,17.991 L 9.921,17.912 L 9.786,17.837 L 9.653,17.787 L 9.505,17.75 L 9.346,17.75 L 9.198,17.765 L 9.056,17.796 L 8.921,17.849 L 8.796,17.921 L 8.671,18.013 L 8.564,18.116 L 8.483,18.241 L 8.411,18.366 L 8.372,18.509 L 8.335,18.656 L 8.335,18.928 L 8.545,20.396 L 8.787,21.869 L 8.89,22.449 L 9.047,23.342 L 9.338,24.802 L 9.637,26.251 L 9.982,27.702 L 10.334,29.159 L 10.721,30.595 L 11.127,32.028 L 11.566,33.448 L 12.012,34.862 L 12.501,36.275 L 13.001,37.684 L 13.521,39.073 L 14.071,40.462 L 14.643,41.842 L 15.248,43.194 L 15.86,44.557 L 16.509,45.905 L 17.162,47.239 L 17.852,48.565 L 18.746,50.203 L 30.43,40.444 L 30.43,40.444 L 30.431,40.442 M 65.133,59.724 L 66.833,57.334 L 53.095,45.85 L 49.857,43.144 L 47.679,44.967 L 47.347,45.216 L 47.074,45.381 L 46.807,45.528 L 46.525,45.653 L 46.224,45.756 L 45.929,45.84 L 45.621,45.888 L 45.308,45.925 L 45.004,45.943 L 44.587,45.925 L 44.274,45.87 L 43.975,45.809 L 43.671,45.725 L 43.38,45.615 L 43.1,45.488 L 42.831,45.328 L 42.573,45.154 L 42.322,44.967 L 40.142,43.144 L 36.904,45.85 L 23.171,57.334 L 24.025,58.554 L 24.897,59.756 L 25.791,60.948 L 26.709,62.131 L 27.644,63.289 L 28.592,64.441 L 29.571,65.573 L 30.559,66.688 L 31.566,67.789 L 32.599,68.866 L 33.65,69.924 L 34.71,70.97 L 35.792,72.006 L 36.898,73.011 L 38.012,74.003 L 39.148,74.979 L 40.288,75.935 L 41.455,76.871 L 42.632,77.777 L 44.994,79.518 L 45.003,79.518 L 46.211,78.65 L 47.406,77.746 L 48.583,76.834 L 49.754,75.904 L 50.895,74.948 L 52.031,73.972 L 53.141,72.981 L 54.236,71.965 L 55.318,70.938 L 56.391,69.892 L 57.429,68.824 L 58.458,67.747 L 59.469,66.646 L 60.457,65.54 L 61.436,64.395 L 62.384,63.261 L 63.319,62.091 L 64.237,60.917 L 65.131,59.725 L 65.131,59.723 L 65.133,59.724 M 45.005,36.381 L 72.085,13.753 L 70.798,13.276 L 69.496,12.823 L 68.194,12.396 L 66.885,11.996 L 65.559,11.613 L 64.24,11.261 L 62.907,10.914 L 61.565,10.608 L 60.224,10.322 L 58.878,10.069 L 57.526,9.831 L 56.165,9.611 L 54.8,9.424 L 53.435,9.259 L 52.07,9.127 L 50.705,9.011 L 49.333,8.917 L 47.959,8.855 L 46.587,8.815 L 45.001,8.793 L 43.62,8.802 L 42.255,8.846 L 40.883,8.905 L 39.509,8.989 L 38.135,9.105 L 36.77,9.239 L 35.405,9.395 L 34.04,9.58 L 32.692,9.789 L 31.335,10.026 L 29.985,10.283 L 28.643,10.569 L 27.302,10.875 L 25.967,11.2 L 24.648,11.561 L 23.324,11.935 L 22.004,12.335 L 20.704,12.762 L 19.402,13.206 L 17.912,13.755 L 45.001,36.383 L 45.005,36.381 M 81.673,18.781 L 81.664,18.625 L 81.633,18.491 L 81.578,18.344 L 81.508,18.219 L 81.416,18.094 L 81.311,17.991 L 81.186,17.912 L 81.062,17.837 L 80.914,17.787 L 80.77,17.75 L 80.622,17.75 L 80.474,17.765 L 80.33,17.796 L 80.195,17.849 L 79.968,17.99 L 56.331,37.735 L 59.569,40.441 L 71.253,50.2 L 71.969,48.898 L 72.659,47.566 L 73.327,46.245 L 73.983,44.897 L 74.604,43.549 L 75.2,42.182 L 75.781,40.802 L 76.331,39.422 L 76.877,38.033 L 77.379,36.635 L 77.866,35.224 L 78.323,33.806 L 78.771,32.386 L 79.173,30.957 L 79.571,29.515 L 79.938,28.066 L 80.277,26.622 L 80.59,25.164 L 80.885,23.7 L 81.114,22.445 L 81.155,22.24 L 81.391,20.767 L 81.664,18.925 L 81.673,18.778 L 81.673,18.778 L 81.673,18.781 M 90.0,18.616 L 90.0,19.093 L 89.965,19.57 L 89.915,20.036 L 89.541,22.573 L 89.272,24.112 L 88.99,25.642 L 88.677,27.174 L 88.334,28.7 L 87.98,30.223 L 87.595,31.735 L 87.18,33.239 L 86.741,34.74 L 86.286,36.235 L 85.807,37.715 L 85.298,39.197 L 84.778,40.67 L 84.216,42.13 L 83.644,43.579 L 83.039,45.021 L 82.412,46.452 L 81.767,47.879 L 81.103,49.29 L 80.402,50.686 L 79.698,52.08 L 78.96,53.456 L 78.198,54.825 L 77.42,56.183 L 76.614,57.519 L 75.792,58.849 L 74.951,60.162 L 74.088,61.47 L 73.194,62.752 L 72.285,64.023 L 71.359,65.278 L 70.411,66.525 L 69.445,67.758 L 68.457,68.969 L 67.45,70.161 L 66.425,71.344 L 65.374,72.514 L 64.314,73.651 L 63.232,74.783 L 62.133,75.904 L 61.019,76.99 L 59.883,78.067 L 58.729,79.135 L 57.562,80.171 L 56.376,81.198 L 55.168,82.192 L 53.947,83.175 L 52.721,84.14 L 51.473,85.083 L 50.202,86.006 L 48.922,86.909 L 47.635,87.799 L 46.32,88.661 L 45.009,89.499 L 42.848,88.097 L 41.546,87.229 L 40.255,86.337 L 38.983,85.416 L 37.733,84.48 L 36.497,83.517 L 35.267,82.545 L 34.063,81.549 L 32.874,80.535 L 31.697,79.508 L 30.535,78.45 L 29.397,77.38 L 28.274,76.296 L 27.16,75.188 L 26.078,74.056 L 25.0,72.92 L 23.949,71.766 L 22.92,70.586 L 21.9,69.394 L 20.912,68.192 L 19.933,66.968 L 18.98,65.726 L 18.04,64.471 L 17.136,63.207 L 16.238,61.923 L 15.366,60.628 L 14.512,59.324 L 13.68,57.992 L 12.869,56.658 L 12.078,55.31 L 11.318,53.943 L 10.566,52.573 L 9.85,51.184 L 9.153,49.786 L 8.463,48.375 L 7.818,46.957 L 7.184,45.528 L 6.572,44.095 L 5.986,42.646 L 5.427,41.184 L 4.887,39.726 L 4.376,38.244 L 3.884,36.762 L 3.419,35.272 L 2.971,33.777 L 2.556,32.276 L 2.158,30.759 L 1.795,29.246 L 1.443,27.723 L 1.13,26.189 L 0.829,24.657 L 0.556,23.122 L 0.307,21.579 L 0.086,20.034 L 0.016,19.144 L 0.0,18.678 L 0.022,18.197 L 0.063,17.735 L 0.124,17.267 L 0.224,16.805 L 0.327,16.334 L 0.456,15.901 L 0.46,15.888 L 0.626,15.444 L 0.805,15.007 L 1.012,14.57 L 1.231,14.155 L 1.48,13.751 L 1.74,13.373 L 2.031,12.986 L 2.335,12.625 L 2.656,12.282 L 3.001,11.948 L 3.355,11.636 L 3.731,11.339 L 4.115,11.071 L 4.51,10.809 L 4.93,10.574 L 7.447,9.273 L 8.745,8.642 L 10.047,8.042 L 11.366,7.462 L 12.69,6.888 L 14.032,6.363 L 15.374,5.842 L 16.729,5.347 L 18.088,4.881 L 19.466,4.437 L 20.836,4.015 L 22.223,3.617 L 23.619,3.245 L 25.015,2.893 L 26.418,2.559 L 27.823,2.26 L 29.236,1.981 L 30.656,1.719 L 32.076,1.495 L 33.503,1.286 L 34.93,1.1 L 36.368,0.944 L 37.803,0.812 L 39.238,0.696 L 40.678,0.612 L 42.124,0.553 L 43.561,0.509 L 45.005,0.5 L 47.845,0.553 L 49.283,0.612 L 50.721,0.696 L 52.158,0.797 L 53.593,0.936 L 55.03,1.092 L 56.457,1.277 L 57.884,1.482 L 59.306,1.713 L 60.726,1.966 L 62.139,2.252 L 63.557,2.549 L 64.947,2.883 L 66.352,3.235 L 67.739,3.607 L 69.122,4.0 L 70.507,4.427 L 71.868,4.871 L 73.233,5.335 L 74.587,5.832 L 75.939,6.34 L 77.272,6.883 L 78.605,7.443 L 79.914,8.017 L 81.225,8.632 L 82.514,9.256 L 83.805,9.905 L 85.077,10.573 L 85.846,11.035 L 86.231,11.307 L 86.605,11.597 L 86.959,11.909 L 87.304,12.241 L 87.625,12.58 L 87.938,12.945 L 88.22,13.314 L 88.489,13.71 L 88.74,14.114 L 88.967,14.529 L 89.174,14.956 L 89.353,15.387 L 89.523,15.836 L 89.545,15.909 L 89.545,15.913 L 89.654,16.282 L 89.774,16.744 L 89.863,17.203 L 89.94,17.671 L 89.979,18.148 L 90.001,18.614 L 90.001,18.614 L 90.0,18.616"/>
		<path id="C" d="M 88.362,15.961 L 88.104,15.765 L 87.833,15.578 L 87.551,15.413 L 87.26,15.266 L 86.959,15.143 L 86.646,15.04 L 86.334,14.967 L 86.011,14.904 L 85.69,14.875 L 85.357,14.864 L 85.032,14.875 L 84.713,14.915 L 84.39,14.967 L 84.066,15.051 L 83.752,15.154 L 83.463,15.277 L 83.162,15.435 L 82.889,15.6 L 82.434,15.932 L 79.966,17.995 L 56.329,37.735 L 49.856,43.144 L 47.68,44.97 L 47.348,45.217 L 47.077,45.382 L 46.806,45.529 L 46.526,45.652 L 46.224,45.755 L 45.93,45.839 L 45.621,45.891 L 45.309,45.924 L 45.003,45.942 L 44.588,45.924 L 44.274,45.872 L 43.974,45.81 L 43.673,45.726 L 43.382,45.612 L 43.1,45.489 L 42.83,45.331 L 42.572,45.155 L 42.32,44.97 L 40.144,43.144 L 33.671,37.735 L 10.037,17.997 L 7.57,15.932 L 7.31,15.735 L 7.037,15.548 L 6.759,15.38 L 6.467,15.247 L 6.154,15.125 L 5.842,15.029 L 5.529,14.956 L 5.208,14.893 L 4.883,14.875 L 4.551,14.864 L 4.228,14.882 L 3.906,14.915 L 3.581,14.989 L 3.262,15.069 L 2.956,15.176 L 2.655,15.31 L 2.364,15.453 L 2.086,15.629 L 1.824,15.816 L 1.4,16.189 L 8.879,22.439 L 8.89,22.446 L 30.433,40.442 L 36.905,45.85 L 39.644,48.14 L 39.989,48.409 L 40.343,48.67 L 40.706,48.896 L 41.093,49.116 L 41.479,49.31 L 41.884,49.477 L 42.29,49.631 L 42.707,49.767 L 43.133,49.87 L 43.559,49.954 L 43.985,50.027 L 44.424,50.066 L 45.003,50.088 L 45.434,50.066 L 45.868,50.037 L 46.305,49.985 L 46.733,49.903 L 47.162,49.8 L 47.577,49.675 L 47.983,49.528 L 48.388,49.363 L 48.783,49.178 L 49.157,48.969 L 49.532,48.749 L 49.897,48.501 L 50.358,48.14 L 53.095,45.85 L 59.567,40.442 L 81.113,22.446 L 81.121,22.439 L 88.602,16.189 L 88.362,15.961"/>
		<path id="D" d="M 81.06,17.838 L 81.184,17.911 L 81.309,17.994 L 81.412,18.095 L 81.506,18.22 L 81.578,18.345 L 81.631,18.492 L 81.662,18.626 L 81.671,18.782 L 81.662,18.929 L 81.389,20.771 L 81.153,22.244 L 81.112,22.449 L 80.883,23.704 L 80.588,25.168 L 80.275,26.626 L 79.934,28.068 L 79.569,29.519 L 79.171,30.961 L 78.769,32.39 L 78.321,33.81 L 77.864,35.228 L 77.377,36.641 L 76.875,38.037 L 76.331,39.426 L 75.78,40.806 L 75.199,42.186 L 74.603,43.553 L 73.982,44.901 L 73.324,46.249 L 72.66,47.57 L 71.968,48.9 L 71.252,50.204 L 59.568,40.445 L 56.33,37.741 L 79.967,17.996 L 80.194,17.853 L 80.329,17.798 L 80.473,17.769 L 80.621,17.756 L 80.769,17.756 L 80.913,17.791 L 81.061,17.841 L 81.06,17.838 M 66.835,57.336 L 65.135,59.724 L 64.241,60.916 L 63.323,62.09 L 62.39,63.262 L 61.44,64.396 L 60.461,65.541 L 59.473,66.649 L 58.462,67.748 L 57.433,68.825 L 56.395,69.893 L 55.322,70.939 L 54.24,71.966 L 53.145,72.98 L 52.035,73.972 L 50.899,74.948 L 49.758,75.904 L 48.587,76.834 L 47.41,77.746 L 46.215,78.65 L 45.007,79.518 L 44.998,79.518 L 42.638,77.777 L 41.461,76.871 L 40.292,75.935 L 39.152,74.979 L 38.014,74.003 L 36.9,73.012 L 35.795,72.005 L 34.713,70.969 L 33.653,69.923 L 32.602,68.865 L 31.569,67.788 L 30.562,66.687 L 29.574,65.572 L 28.597,64.44 L 27.647,63.288 L 26.712,62.132 L 25.794,60.947 L 24.9,59.755 L 24.028,58.553 L 23.174,57.335 L 36.904,45.85 L 40.142,43.144 L 42.32,44.967 L 42.573,45.154 L 42.831,45.328 L 43.1,45.488 L 43.38,45.613 L 43.671,45.723 L 43.975,45.809 L 44.276,45.871 L 44.589,45.924 L 45.004,45.942 L 45.308,45.924 L 45.621,45.887 L 45.929,45.839 L 46.224,45.755 L 46.525,45.652 L 46.805,45.527 L 47.074,45.38 L 47.347,45.215 L 47.679,44.966 L 49.857,43.143 L 53.095,45.849 L 66.833,57.335 L 66.835,57.336 M 10.037,17.994 L 33.669,37.737 L 30.431,40.441 L 18.747,50.2 L 17.853,48.562 L 17.163,47.238 L 16.51,45.902 L 15.863,44.554 L 15.249,43.193 L 14.644,41.839 L 14.072,40.459 L 13.522,39.07 L 13.002,37.681 L 12.502,36.27 L 12.013,34.861 L 11.567,33.445 L 11.128,32.025 L 10.722,30.594 L 10.335,29.156 L 9.983,27.701 L 9.638,26.25 L 9.34,24.8 L 9.049,23.34 L 8.892,22.447 L 8.789,21.867 L 8.549,20.394 L 8.337,18.926 L 8.337,18.654 L 8.374,18.507 L 8.413,18.364 L 8.487,18.239 L 8.566,18.114 L 8.673,18.013 L 8.798,17.919 L 8.923,17.846 L 9.058,17.795 L 9.2,17.764 L 9.348,17.751 L 9.507,17.751 L 9.655,17.786 L 9.788,17.836 L 9.923,17.909 L 10.039,17.993 L 10.037,17.994 M 72.085,13.753 L 45.005,36.38 L 17.916,13.753 L 19.404,13.204 L 20.708,12.76 L 22.008,12.333 L 23.328,11.933 L 24.652,11.559 L 25.971,11.198 L 27.306,10.873 L 28.647,10.567 L 29.989,10.283 L 31.339,10.024 L 32.694,9.787 L 34.046,9.578 L 35.411,9.393 L 36.776,9.237 L 38.141,9.103 L 39.513,8.987 L 40.887,8.903 L 42.261,8.844 L 43.626,8.8 L 45.007,8.791 L 46.591,8.813 L 47.963,8.853 L 49.337,8.915 L 50.711,9.007 L 52.076,9.124 L 53.441,9.258 L 54.806,9.423 L 56.171,9.608 L 57.53,9.828 L 58.88,10.066 L 60.226,10.319 L 61.568,10.605 L 62.91,10.911 L 64.243,11.26 L 65.562,11.61 L 66.886,11.993 L 68.197,12.393 L 69.499,12.82 L 70.801,13.273 L 72.088,13.75 L 72.085,13.753"/>
	</defs>
</svg>