<?xml version="1.0" ?>
<svg xmlns="http://www.w3.org/2000/svg" version="1.2" viewBox="0 0 1524 881">
	<title>CTS_BIG copy-svg</title>
	<style>
		.s0 { fill: #003973 } 
		.s1 { fill: #44c000 } 
		.s2 { fill: #ff7300 } 
	</style>
	<g id="Clip-Path: Page 1">
		<g id="Page 1">
			<path id="Path 10" class="s0" d="m352.1 203.3c169.7 0 248.8 96.4 248.8 96.4l-71.4 109.9c0 0-67.5-69.4-167.8-69.4-119.6 0-196.8 88.7-196.8 200.5 0 108 79.1 202.5 200.7 202.5 109.9 0 191-82.9 191-82.9l61.7 113.7c0 0-92.6 106.1-266.2 106.1-214.2 0-351.2-150.4-351.2-339.4 0-183.2 137-337.4 351.2-337.4zm744.7 468.5c0 0 71.3 71.4 177.4 71.4 46.3 0 84.9-21.2 84.9-57.9 0-96.4-314.4-84.8-314.4-293.1 0-119.5 108-188.9 246.9-188.9 146.6 0 218 73.2 218 73.2l-59.8 119.6c0 0-59.8-55.9-160.1-55.9-40.5 0-81 17.3-81 57.8 0 90.6 314.4 79.1 314.4 287.3 0 108-94.5 194.8-246.9 194.8-162.1 0-252.8-94.5-252.8-94.5z"/>
			<path id="Path 11" class="s1" d="m662.7 0.8h160.1v187h-160.1z"/>
			<path id="Path 12" class="s2" d="m822.8 187.8h187.1v160.1h-187.1z"/>
			<path id="Path 13" fill-rule="evenodd" class="s0" d="m822.8 347.9v252.6c0 106 84.9 121.5 129.3 121.5 17.3 0 28.9-3.9 28.9-3.9v140.8c0 0-19.3 3.8-50.2 3.8-88.7 0-268.1-25.1-268.1-242.9v-271.9z"/>
		</g>
	</g>
</svg>