<svg viewBox="0 0 196 63" fill="none" xmlns="http://www.w3.org/2000/svg">
<path d="M127.945 15.7614L116.801 0.746094H88.2109L103.073 15.7614H127.945Z" fill="#D71718"/>
<path fill-rule="evenodd" clip-rule="evenodd" d="M0.242188 15.6126L15.7987 0.746094V15.6126H0.242188ZM58.465 15.5212V15.6126H15.801V0.746094H46.4931L58.465 15.5212Z" fill="#121212"/>
<path d="M45.1491 62.1014L58.4687 47.9301V47.8424L15.8047 47.8086V62.1014H45.1491Z" fill="#D71718"/>
<path opacity="0.9" d="M0.242188 15.6094H15.7987V47.8284V62.0973L0.242188 47.8284V15.6094Z" fill="#232323"/>
<path d="M194.976 0.844466L174.091 0.746094L163.152 16.4168L173.462 31.1825L194.976 0.844466Z" fill="#D71718"/>
<path d="M195.688 62.1016L174.803 62.1016L163.152 45.8441L173.462 31.0784L195.688 62.1016Z" fill="#D71718"/>
<path d="M152.216 0.746094L131.332 0.844466L152.846 31.1825L163.155 16.4168L152.216 0.746094Z" fill="#393939"/>
<path d="M163.149 16.4219L152.84 31.1875L163.149 45.727L173.459 31.1875L163.149 16.4219Z" fill="url(#paint0_linear_11545_88856)"/>
<path fill-rule="evenodd" clip-rule="evenodd" d="M152.848 31.1914L163.157 16.4258L173.466 31.1914L163.157 45.7309L152.848 31.1914ZM131.332 62.1098V62.0114L152.846 31.1914L163.155 45.7308L151.548 62.1098H131.332Z" fill="#121212"/>
<path d="M57.9453 0.746094L70.0314 15.7614H88.2325V0.746094H57.9453Z" fill="url(#paint1_linear_11545_88856)"/>
<path fill-rule="evenodd" clip-rule="evenodd" d="M103.779 15.7614L88.2268 0.746094V15.7614H103.779ZM88.1367 62.105L88.2289 15.7656H103.782V62.105H88.1367Z" fill="#121212"/>
<defs>
<linearGradient id="paint0_linear_11545_88856" x1="161.083" y1="24.9803" x2="169.966" y2="51.6293" gradientUnits="userSpaceOnUse">
<stop/>
<stop offset="1" stop-color="#58595B"/>
</linearGradient>
<linearGradient id="paint1_linear_11545_88856" x1="63.7083" y1="8.25377" x2="132.618" y2="8.25377" gradientUnits="userSpaceOnUse">
<stop stop-color="#3A3A3A"/>
<stop offset="1" stop-color="#58595B"/>
</linearGradient>
</defs>
</svg>