<?xml version="1.0" ?>
<svg xmlns="http://www.w3.org/2000/svg" fill="none" viewBox="0 0 72 72">
	<path d="m0 0h72v72h-72z" fill="#fff"/>
	<path d="m34.4386 10.3088c-1.9312.5739-19.4912 10.6384-20.5241 11.7861-.539.5739-1.2126 1.8099-1.4372 2.7369-.6287 2.0747-.6287 20.5264-.0449 22.6452.2246.8387.9881 2.0747 1.6617 2.6927.7186.618 5.524 3.5756 10.7336 6.489 7.7695 4.3702 9.7905 5.3413 11.2726 5.3413 1.3922 0 3.009-.7063 7.3653-3.1341 12.6648-7.0629 14.8205-8.4313 15.5839-9.8439.6288-1.1477.8084-2.9575.8983-11.0798.1796-11.8744-.045-13.9933-1.6168-15.6707-1.1677-1.236-15.8085-9.8438-19.6259-11.5212-1.9312-.8829-2.5599-.92705-4.2665-.4415zm11.3623 9.3141c4.7157 2.6928 8.8923 5.253 9.1618 5.6503.6287.7946.8084 8.4754.2245 8.4754-.1796 0-1.2574-.8828-2.3353-1.9864s-2.2006-1.9864-2.4701-1.9864c-.2245.0441-1.4371.927-2.6946 1.9864l-2.2455 1.9423 2.0209 2.1188c1.1228 1.1478 3.1887 3.3549 4.6258 4.8116 1.9312 1.9864 2.6048 2.9576 2.4701 3.708-.0898.8828-1.527-.3973-9.2516-8.1664l-9.1168-9.2259-3.4581 3.399-3.4581 3.399 8.9372 8.7844c8.1288 7.9899 9.521 9.7556 7.7695 9.7556-.3144 0-5.1198-4.5026-10.7336-10.0204l-10.2396-10.0646-4.042 3.9729-4.0419 3.9728v-7.3277c0-5.3412.1347-7.4601.5838-7.8132 1.6617-1.3685 18.593-10.6384 19.087-10.4619.3144.0883 4.4461 2.3837 9.2066 5.0764z" fill="#4f5182"/>
</svg>