<?xml version="1.0" ?>
<svg xmlns="http://www.w3.org/2000/svg" viewBox="0 0 1197 500">
    <defs>
        <style>
        .cls-1,
        .cls-2 {
            fill: #4281b4;
        }

        .cls-2 {
            stroke: #4281b4;
            stroke-miterlimit: 10;
        }

        .cls-3 {
            fill: #274370;
        }
        </style>
    </defs>
    <path class="cls-1" d=" M 1174.6,272.7 A 15.7,15.7 0.0 0,0 1160.0,271.7 L 1111.5,220.7 L 1110.8,228.0 L 1156.2,274.0 A 15.4,15.4 0.0 0,0 1151.5,281.0 L 1119.2,276.0 L 1115.8,281.0 L 1150.8,286.4 A 15.8,15.8 0.0 0,0 1151.8,292.4 L 1113.6,305.9 L 1114.0,309.9 L 1154.5,295.9 A 15.7,15.7 0.0 0,0 1180.5,292.9 A 15.8,15.8 0.0 0,0 1174.5,272.6 L 1174.6,272.7 " />
    <path class="cls-1" d="M 247.8,375.0 C 176.0,375.0 117.8,317.0 117.8,245.7 C 117.8,174.4 176.1,116.5 247.8,116.5 C 315.1,116.5 370.5,167.3 377.2,232.5 L 397.6,232.5 C 390.9,155.5 326.4,95.2 247.8,95.2 A 150.5,150.5 0.0 0,0 247.8,396.2 C 326.8,396.2 391.3,335.4 397.8,258.2 L 377.0,258.2 C 371.0,323.6 315.4,375.0 247.8,375.0" />
    <path class="cls-1" d="M 341.7,206.8 L 387.3,206.8 L 387.3,232.5 L 341.7,232.5 L 341.7,206.8 M 234.3,344.0 L 259.0,344.0 L 259.0,379.2 L 234.3,379.2 L 234.3,344.0" />
    <path class="cls-1" d="M 247.0,135.7 A 112.8,112.8 0.0 0,0 233.2,136.7 L 233.2,153.5 A 97.5,97.5 0.0 0,1 247.0,152.5 C 295.0,152.5 334.4,187.2 341.0,232.5 L 357.0,232.5 C 350.5,178.0 303.7,135.7 247.0,135.7" />
    <path class="cls-1" d="M 247.0,338.6 C 194.6,338.6 152.0,296.9 152.0,245.6 C 152.0,202.6 181.8,166.4 222.2,155.6 L 222.2,138.6 C 172.9,149.6 136.2,193.3 136.2,245.6 C 136.2,306.2 185.8,355.3 247.0,355.3 C 304.5,355.3 351.8,312.0 357.3,256.5 L 341.3,256.5 C 335.6,302.8 295.6,338.5 247.0,338.5 L 247.0,338.6" />
    <path class="cls-1" d="M 233.2,140.4 L 258.4,140.4 L 258.4,187.0 L 233.2,187.0 L 233.2,140.4" />
    <path class="cls-1" d=" M 198.6,244.6 C 198.6,218.4 220.3,197.2 247.1,197.2 C 270.1,197.2 289.1,212.2 294.1,232.6 L 321.1,232.6 A 73.8,73.8 0.0 0,0 248.1,171.2 C 208.1,171.2 174.1,204.2 174.1,244.6 A 73.5,73.5 0.0 0,0 224.1,314.0 L 224.1,287.0 A 47.3,47.3 0.0 0,1 198.6,244.6 " />
    <path class="cls-1" d="M 247.0,292.0 A 49.6,49.6 0.0 0,1 236.0,291.0 L 236.0,317.0 A 75.0,75.0 0.0 0,0 247.5,318.0 A 73.8,73.8 0.0 0,0 320.1,258.8 L 294.1,258.8 A 48.4,48.4 0.0 0,1 247.1,292.0 L 247.0,292.0 M 424.8,149.0 A 15.7,15.7 0.0 0,0 412.3,155.3 L 345.0,134.3 L 348.0,141.3 L 410.0,159.3 A 15.4,15.4 0.0 0,0 409.3,167.7 L 378.7,179.0 L 378.2,185.0 L 411.2,172.7 A 15.8,15.8 0.0 0,0 415.2,177.3 L 388.4,207.8 L 391.0,211.8 L 419.4,179.6 A 15.7,15.7 0.0 1,0 424.8,149.1 L 424.8,149.0 M 262.0,100.3 L 270.4,97.3 L 195.8,64.0 A 14.0,14.0 0.0 0,0 196.0,62.0 A 14.6,14.6 0.0 1,0 176.4,75.2 L 169.0,122.2 L 175.3,118.0 L 181.6,76.0 A 14.7,14.7 0.0 0,0 187.3,74.8 L 206.3,105.2 L 211.3,103.2 L 191.7,72.0 A 14.4,14.4 0.0 0,0 193.5,69.8 L 262.0,100.3 M 119.0,172.7 L 38.0,221.4 L 41.3,225.6 L 121.0,178.0 L 119.0,172.7 M 102.8,211.5 L 41.5,225.5 L 42.5,231.3 L 102.9,217.5 L 101.9,211.5 L 102.8,211.5 M 42.6,239.8 L 107.6,288.4 L 107.9,294.0 L 38.9,244.0 L 41.9,239.8 L 42.6,239.8" />
    <ellipse class="cls-1" cx="31.3" cy="232.7" rx="15.8" ry="15.7" />
    <circle class="cls-2" cx="326.5" cy="93.8" r="11.3" transform="rotate(-24.36 326.553 93.758)" />
    <circle class="cls-2" cx="360.6" cy="371.3" r="7.9" transform="rotate(-24.36 360.64 371.318)" />
    <circle class="cls-2" cx="125.5" cy="124.7" r="11.3" />
    <circle class="cls-2" cx="104.8" cy="352.6" r="11.3" />
    <circle class="cls-2" cx="281.7" cy="421.1" r="11.3" />
    <path class="cls-1" d="M 283.5,389.5 L 274.1,390.1 L 219.1,430.1 A 14.5,14.5 0.0 0,0 212.1,425.1 L 218.1,390.1 L 213.1,388.1 L 208.1,425.1 A 14.6,14.6 0.0 0,0 202.1,427.1 L 168.0,366.0 L 163.0,366.7 L 198.7,430.7 A 14.2,14.2 0.0 0,0 195.3,440.2 A 14.5,14.5 0.0 0,0 224.3,440.2 A 14.2,14.2 0.0 0,0 223.9,436.7 L 283.5,389.5 M 338.0,361.5 L 331.0,365.8 L 326.2,391.6 A 8.0,8.0 0.0 0,0 324.9,391.6 L 323.9,391.6 L 317.9,373.8 L 312.9,376.4 L 318.9,393.2 A 8.0,8.0 0.0 0,0 316.9,395.5 L 293.9,382.3 L 290.9,387.1 L 315.9,401.1 A 8.0,8.0 0.0 1,0 330.9,396.1 L 338.0,361.5 M 388.6,288.7 L 402.0,334.0 L 397.0,333.6 L 385.0,292.6 L 388.6,288.6 L 388.6,288.7 M 373.2,322.0 L 393.6,336.6 L 390.1,339.6 L 368.1,325.2 L 374.1,322.2 L 373.2,322.0 M 358.0,343.8 L 391.5,343.6 L 390.0,348.6 L 354.8,348.6 L 358.1,343.8 L 358.0,343.8" />
    <ellipse class="cls-1" cx="399.3" cy="344.2" rx="14.1" ry="14.2" />
    <path class="cls-3" d="M 525.3,266.0 L 525.3,284.7 C 525.3,307.1 514.1,319.9 492.5,319.9 C 470.9,319.9 459.7,306.9 459.7,283.9 L 459.7,211.9 C 459.7,188.9 470.9,175.9 492.5,175.9 C 514.1,175.9 525.3,188.9 525.3,210.9 L 525.3,223.9 L 504.5,223.9 L 504.5,208.9 C 504.5,198.9 500.1,194.9 493.1,194.9 C 486.1,194.9 482.1,198.9 482.1,208.9 L 482.1,284.9 C 482.1,294.9 487.1,298.3 494.1,298.3 C 501.1,298.3 505.1,295.3 505.1,285.3 L 505.1,265.3 L 525.3,266.0 M 557.0,272.0 L 529.3,178.3 L 552.3,178.3 L 569.0,242.0 L 586.0,178.3 L 607.0,178.3 L 579.0,272.0 L 579.0,318.3 L 557.0,318.3 L 557.0,272.0 M 681.5,210.5 L 681.5,215.5 C 681.5,229.9 677.1,239.1 667.3,243.7 C 679.1,248.3 683.7,258.9 683.7,273.7 L 683.7,285.0 C 683.7,306.7 672.3,318.3 650.3,318.3 L 615.7,318.3 L 615.7,178.3 L 649.0,178.3 C 671.7,178.3 681.5,188.9 681.5,210.5 M 637.7,198.3 L 637.7,235.3 L 646.3,235.3 C 654.5,235.3 659.5,231.7 659.5,220.5 L 659.5,212.7 C 659.5,202.7 656.1,198.3 648.3,198.3 L 637.7,198.3 M 637.7,255.3 L 637.7,298.3 L 650.3,298.3 C 657.7,298.3 661.7,294.9 661.7,284.5 L 661.7,272.3 C 661.7,259.3 657.5,255.3 647.5,255.3 L 637.7,255.3 M 719.0,237.3 L 749.0,237.3 L 749.0,257.3 L 719.0,257.3 L 719.0,298.3 L 757.0,298.3 L 757.0,318.3 L 697.0,318.3 L 697.0,178.3 L 757.0,178.3 L 757.0,198.3 L 719.0,198.3 L 719.0,237.3 M 816.5,318.3 C 815.3,314.7 814.5,312.5 814.5,301.1 L 814.5,279.1 C 814.5,266.1 810.1,262.1 800.1,262.1 L 793.1,262.1 L 793.1,319.1 L 771.1,319.1 L 771.1,179.0 L 804.1,179.0 C 827.1,179.0 837.1,189.5 837.1,211.0 L 837.1,222.0 C 837.1,236.4 833.1,245.8 823.1,250.4 C 834.1,255.0 838.1,265.4 838.1,280.2 L 838.1,302.0 C 838.1,308.8 838.5,313.8 840.7,319.0 L 816.5,318.3 M 792.5,198.3 L 792.5,241.3 L 801.1,241.3 C 810.1,241.3 815.1,237.7 815.1,226.5 L 815.1,212.7 C 815.1,202.7 812.1,198.3 804.1,198.3 L 792.5,198.3 M 851.0,178.3 L 885.7,178.3 C 907.7,178.3 918.5,190.5 918.5,212.9 L 918.5,282.9 C 918.5,304.9 907.7,316.9 885.7,316.9 L 851.0,316.9 L 851.0,178.3 M 873.0,198.3 L 873.0,298.3 L 885.3,298.3 C 892.3,298.3 896.5,294.7 896.5,284.7 L 896.5,212.0 C 896.5,202.0 892.3,198.3 885.3,198.3 L 873.0,198.3 M 932.5,178.3 L 954.5,178.3 L 954.5,318.0 L 932.5,318.0 L 932.5,178.3" />
    <path class="cls-1" d="M 1041.7,318.3 L 1019.5,318.3 L 1015.7,292.9 L 988.7,292.9 L 985.0,317.9 L 964.6,317.9 L 987.0,178.0 L 1019.3,178.0 L 1041.7,318.3 M 988.7,292.9 L 1015.7,292.9 L 1002.2,202.9 L 988.7,292.9" />
    <path class="cls-3" d="M 1071.5,217.0 L 1071.5,318.3 L 1051.7,318.3 L 1051.7,178.3 L 1079.3,178.3 L 1102.0,262.0 L 1102.0,178.3 L 1121.5,178.3 L 1121.5,318.3 L 1099.0,318.3 L 1071.5,217.0" />
    <circle class="cls-2" cx="1146.4" cy="219.6" r="11.3" />
</svg>