<?xml version="1.0" ?>
<svg xmlns="http://www.w3.org/2000/svg" viewBox="0 0 256 114" fill="none">
	<g clip-path="url(#clip0_10366_310353)">
		<mask id="mask0_10366_310353" style="mask-type:luminance" maskUnits="userSpaceOnUse" x="0" y="0" width="256" height="114">
			<path d="M255.904 0H0V113.269H255.904V0Z" fill="white"/>
		</mask>
		<g mask="url(#mask0_10366_310353)">
			<path d="M69.6566 58.21L54.7996 43.351C54.8116 41.687 54.8326 39.07 54.8326 38.156C54.8326 36.999 52.3416 35.67 52.3416 35.67C52.3416 35.67 52.3416 35.63 52.3356 35.577H57.6466V39.219C57.6466 39.983 58.5676 40.6 59.7046 40.6C60.8416 40.6 61.7606 39.983 61.7606 39.219V35.119C61.7606 35.119 63.1106 34.564 63.1106 33.36C63.1106 32.156 63.1446 28.228 63.1446 27.072C63.1446 25.916 60.6596 24.583 60.6596 24.583C60.6596 24.583 60.2076 18.776 59.2416 17.153C58.2756 15.53 57.2356 15.321 54.8516 15.321H43.6396C41.2546 15.321 40.2176 15.528 39.2496 17.153C38.2816 18.778 37.8336 24.583 37.8336 24.583C37.4592 24.8014 37.0986 25.0425 36.7536 25.305L24.3996 12.958C30.7075 9.17739 38.0977 7.61287 45.3964 8.51296C52.6952 9.41304 59.4839 12.7261 64.6843 17.9259C69.8846 23.1257 73.1985 29.9141 74.0993 37.2127C75.0002 44.5113 73.4365 51.9017 69.6566 58.21ZM51.1666 34.356C51.2666 34.978 50.5786 35.047 49.6096 35.047H46.4916L39.8316 28.386H40.9866C41.5866 28.386 46.3766 28.375 47.6746 28.375C49.0566 28.375 50.2296 28.724 50.6096 30.623C50.9896 32.522 51.0596 33.734 51.1646 34.355M49.2436 17.3H49.2996C49.8996 17.3 54.6906 17.29 55.9876 17.29C57.3676 17.29 58.5426 17.634 58.9226 19.533C59.3026 21.432 59.3726 22.646 59.4766 23.269C59.5806 23.892 58.8896 23.958 57.9236 23.958H40.5616C39.5956 23.958 38.9026 23.889 39.0066 23.269C39.1106 22.649 39.1806 21.437 39.5596 19.533C39.9386 17.629 41.1156 17.29 42.4966 17.29C43.7966 17.29 48.5836 17.3 49.1836 17.3H49.2436ZM27.9996 39.442L34.6656 46.107H23.9226C22.9566 46.107 22.2636 46.04 22.3696 45.416C22.4756 44.792 22.5436 43.586 22.9226 41.686C23.3016 39.786 24.4786 39.438 25.8596 39.438C26.2856 39.438 27.0976 39.438 28.0036 39.438M41.3036 74.338C35.4647 74.3451 29.7285 72.8024 24.6808 69.8675C19.6331 66.9325 15.4549 62.7104 12.5727 57.6324C9.69048 52.5544 8.20766 46.8025 8.27565 40.9639C8.34363 35.1254 9.95998 29.4095 12.9596 24.4L26.0516 37.489C24.3236 37.562 23.4406 37.912 22.6116 39.301C21.6426 40.925 21.1936 46.73 21.1936 46.73C21.1936 46.73 18.7066 48.063 18.7066 49.221C18.7066 50.379 18.7406 54.302 18.7406 55.509C18.7406 56.716 20.0916 57.27 20.0916 57.27V61.37C20.0916 62.13 21.0116 62.749 22.1476 62.749C23.2836 62.749 24.2036 62.13 24.2036 61.37V57.723H41.0036V61.367C41.0036 62.127 41.9236 62.746 43.0586 62.746C44.1936 62.746 45.1166 62.127 45.1166 61.367V57.267C45.2743 57.1935 45.4255 57.1068 45.5686 57.008L58.2146 69.652C53.1091 72.7201 47.2651 74.3416 41.3086 74.343M82.6156 32.26V14.554C82.6156 0 68.0606 0 68.0606 0H14.5526C-0.000380516 0 -0.000380266 14.554 -0.000380266 14.554V68.061C-0.000380266 82.616 14.5526 82.616 14.5526 82.616H68.0606C82.6156 82.616 82.6156 68.06 82.6156 68.06V32.26ZM241.287 0H187.78C173.225 0 173.225 14.554 173.225 14.554V68.061C173.225 82.617 187.78 82.617 187.78 82.617H241.287C255.841 82.617 255.841 68.061 255.841 68.061V14.554C255.842 0 241.287 0 241.287 0ZM214.535 74.3C208.009 74.3 201.631 72.365 196.205 68.7398C190.78 65.1145 186.551 59.9618 184.054 53.9333C181.557 47.9047 180.904 41.2711 182.177 34.8712C183.45 28.4714 186.592 22.5928 191.206 17.9788C195.82 13.3648 201.699 10.2227 208.099 8.94981C214.499 7.67692 221.132 8.33041 227.161 10.8277C233.189 13.3249 238.342 17.5537 241.967 22.9794C245.592 28.405 247.527 34.7838 247.527 41.309C247.526 50.0588 244.05 58.45 237.863 64.6369C231.676 70.8239 223.284 74.2997 214.535 74.3ZM225.96 39.326L219.317 34.042V39.796H218.338L210.9 33.882V39.795H209.957L202.883 33.882V39.795H201.83L195.522 34.347V56.707H231.929V19.3H225.96V39.326ZM154.675 0H101.167C86.6126 0 86.6126 14.554 86.6126 14.554V68.061C86.6126 82.617 101.167 82.617 101.167 82.617H154.676C169.23 82.617 169.23 68.061 169.23 68.061V14.554C169.229 0 154.675 0 154.675 0ZM127.922 74.3C121.396 74.3002 115.018 72.3654 109.592 68.7403C104.166 65.1151 99.9374 59.9625 97.4402 53.934C94.943 47.9054 94.2895 41.2717 95.5625 34.8718C96.8355 28.4719 99.9777 22.5932 104.592 17.9791C109.206 13.3651 115.085 10.2229 121.484 8.94988C127.884 7.67691 134.518 8.33035 140.547 10.8276C146.575 13.3248 151.728 17.5536 155.353 22.9792C158.978 28.4049 160.913 34.7837 160.913 41.309C160.912 50.0587 157.436 58.4499 151.249 64.6369C145.063 70.8238 136.671 74.2997 127.922 74.3ZM142.462 36.278C141.286 32.457 139.998 28.228 139.947 28.048C139.861 27.732 139.771 27.604 140.267 27.348C140.73 27.1179 141.115 26.7572 141.375 26.3104C141.635 25.8635 141.759 25.3503 141.731 24.834C141.752 24.5313 141.713 24.2274 141.617 23.9398C141.52 23.6522 141.367 23.3866 141.168 23.1582C140.968 22.9298 140.725 22.7432 140.453 22.6091C140.18 22.4751 139.884 22.3962 139.582 22.377H134.418V24.8H138.485C138.951 24.8 139.073 25.25 138.511 25.621C137.949 25.992 136.834 26.571 137.433 28.668C137.521 28.987 137.664 29.48 137.84 30.088H119.573L118.414 27.245C119.864 26.9626 121.297 26.5998 122.707 26.158C123.525 25.905 123.494 24.889 122.339 24.889H113.055C113.055 24.889 113.315 27.489 115.699 27.534L116.682 29.963C116.234 30.804 114.816 33.463 113.287 36.33C111.333 35.5119 109.17 35.332 107.108 35.8161C105.045 36.3002 103.188 37.4235 101.802 39.0256C100.416 40.6277 99.572 42.6268 99.3898 44.7374C99.2076 46.848 99.6968 48.9622 100.788 50.7782C101.878 52.5942 103.515 54.0191 105.464 54.8496C107.413 55.68 109.574 55.8735 111.64 55.4024C113.705 54.9314 115.569 53.8198 116.965 52.2265C118.361 50.6331 119.218 48.6394 119.414 46.53H120.552C120.778 47.5178 121.373 48.3817 122.216 48.945C122.021 49.365 121.575 50.324 121.221 51.078H119.79V52.14H120.756C120.709 52.321 120.856 52.545 121.125 52.673C121.416 52.81 121.725 52.773 121.811 52.59C121.827 52.551 121.904 52.383 122.018 52.14H123.518V51.075H122.518C122.818 50.439 123.13 49.763 123.289 49.428C123.967 49.6377 124.69 49.6607 125.381 49.4945C126.072 49.3282 126.705 48.979 127.214 48.4834C127.723 47.9879 128.089 47.3643 128.274 46.6783C128.459 45.9923 128.455 45.2692 128.264 44.585L139.752 36.559C139.861 36.917 139.969 37.29 140.069 37.639C138.055 39.1834 136.703 41.4342 136.285 43.937C135.866 46.4398 136.413 49.0081 137.815 51.1232C139.217 53.2384 141.369 54.7429 143.837 55.333C146.305 55.923 148.905 55.5547 151.111 54.3022C153.318 53.0498 154.968 51.0067 155.727 48.5854C156.486 46.164 156.298 43.5449 155.201 41.2569C154.104 38.9688 152.179 37.1822 149.816 36.2579C147.453 35.3336 144.827 35.3404 142.469 36.277M109.469 52.667C108.432 52.6782 107.406 52.4609 106.463 52.0306C105.52 51.6002 104.683 50.9674 104.012 50.1772C103.341 49.3869 102.852 48.4585 102.581 47.4581C102.309 46.4577 102.262 45.4097 102.441 44.3887C102.62 43.3677 103.022 42.3987 103.618 41.5506C104.214 40.7025 104.99 39.9962 105.89 39.4817C106.79 38.9673 107.792 38.6575 108.826 38.5742C109.859 38.491 110.898 38.6363 111.869 39C110.276 42 108.885 44.635 108.745 44.938C108.409 45.681 108.419 46.529 109.915 46.529H116.427C116.209 48.224 115.382 49.782 114.1 50.9118C112.818 52.0415 111.169 52.6658 109.46 52.668M111.382 44.744L113.868 40.144C115.289 41.2848 116.21 42.9351 116.434 44.744H111.382ZM120.545 44.744H119.419C119.298 43.3066 118.868 41.9124 118.158 40.6568C117.448 39.4012 116.475 38.3141 115.306 37.47L117.828 32.789L121.823 42.647C121.186 43.1949 120.739 43.9299 120.546 44.747M124.425 48.314C123.895 48.3138 123.377 48.1565 122.936 47.8619C122.495 47.5674 122.152 47.1488 121.949 46.6591C121.747 46.1695 121.694 45.6307 121.797 45.1109C121.901 44.5911 122.156 44.1137 122.531 43.739C122.905 43.3642 123.383 43.109 123.903 43.0055C124.422 42.9021 124.961 42.9551 125.451 43.1578C125.94 43.3605 126.359 43.7039 126.654 44.1444C126.948 44.585 127.105 45.103 127.106 45.633C127.106 45.9852 127.037 46.334 126.902 46.6594C126.768 46.9849 126.57 47.2806 126.321 47.5296C126.072 47.7787 125.777 47.9761 125.451 48.1107C125.126 48.2453 124.777 48.3144 124.425 48.314ZM126.954 42.596C126.84 42.504 126.745 42.396 126.623 42.315C126.823 41.894 127.297 40.874 127.654 40.104H129.154V39.039H128.075C128.066 38.9345 128.028 38.8347 127.964 38.7513C127.901 38.6678 127.815 38.6042 127.717 38.568C127.425 38.433 127.117 38.468 127.034 38.653C127.019 38.683 126.949 38.834 126.852 39.039H125.433V40.1H126.361C126.047 40.764 125.713 41.487 125.551 41.831C125.185 41.7148 124.804 41.6531 124.421 41.648C124.38 41.648 124.347 41.668 124.306 41.668L120.58 32.556H138.562C138.717 33.082 138.883 33.656 139.05 34.214L126.954 42.596ZM153.178 45.614C153.182 46.7694 152.904 47.9084 152.366 48.931C151.828 49.9535 151.047 50.8284 150.092 51.4788C149.137 52.1293 148.037 52.5353 146.888 52.6615C145.74 52.7876 144.578 52.6299 143.505 52.2022C142.431 51.7746 141.479 51.09 140.732 50.2086C139.985 49.3271 139.466 48.2758 139.22 47.1469C138.974 46.0179 139.008 44.8458 139.321 43.7335C139.634 42.6211 140.214 41.6025 141.013 40.767C141.204 41.405 141.365 41.916 141.463 42.208C141.771 43.0915 142.258 43.9024 142.893 44.5904C143.527 45.2784 144.296 45.8289 145.152 46.208C146.952 47.159 147.796 45.739 146.417 44.746C145.5 44.1651 144.781 43.3195 144.355 42.321C144.233 41.981 143.841 40.737 143.343 39.126C144.218 38.7478 145.163 38.5535 146.117 38.555C147.989 38.5553 149.784 39.2989 151.108 40.6224C152.432 41.9459 153.176 43.741 153.177 45.613M247.352 107.092V104.077H245.695V99.834L251.709 107.089H255.909V103.923H254.009L250.4 99.575L254.388 96.162H255.756V93.412H247.5V96.012H250.33L245.692 99.835V87.419H239.1V90.584H241.324V103.923H239.1V107.089L247.352 107.092ZM235.8 103.923V93.412H229.319V96.576H231.428V102.723C230.75 103.296 229.907 103.637 229.022 103.695C228.818 103.719 228.612 103.698 228.417 103.634C228.223 103.57 228.045 103.464 227.896 103.323C227.646 102.904 227.538 102.415 227.588 101.93V93.412H221.181V96.576H223.215V103.043C223.159 103.612 223.23 104.187 223.422 104.725C223.615 105.264 223.925 105.753 224.329 106.158C224.733 106.563 225.222 106.873 225.76 107.066C226.299 107.26 226.873 107.331 227.443 107.276C228.881 107.244 230.274 106.766 231.429 105.907V107.088H238.022V103.922L235.8 103.923ZM219.9 102.342H215.191V107.089H219.9V102.342ZM204.665 102.966C204.189 102.176 203.955 101.264 203.992 100.343C203.992 97.7563 204.892 96.463 206.692 96.463C207.079 96.4506 207.463 96.5332 207.81 96.7035C208.158 96.8738 208.458 97.1267 208.686 97.44C209.217 98.2437 209.475 99.1979 209.42 100.16C209.502 101.188 209.235 102.213 208.662 103.07C208.429 103.368 208.129 103.607 207.787 103.769C207.445 103.93 207.07 104.008 206.692 103.998C206.293 104.022 205.894 103.939 205.538 103.757C205.182 103.576 204.88 103.303 204.665 102.966ZM211.847 105.466C213.172 104.049 213.907 102.18 213.903 100.24C213.899 98.2994 213.156 96.4335 211.825 95.022C210.405 93.7903 208.589 93.1122 206.709 93.1122C204.83 93.1122 203.013 93.7903 201.594 95.022C200.255 96.4348 199.509 98.3071 199.509 100.254C199.509 102.2 200.255 104.072 201.594 105.485C203.017 106.72 204.839 107.398 206.724 107.395C208.608 107.391 210.428 106.706 211.847 105.466ZM195.447 93.415V94.545C194.118 93.5791 192.495 93.104 190.855 93.2007C189.215 93.2973 187.659 93.9597 186.453 95.075C185.752 95.7313 185.203 96.5324 184.843 97.4224C184.483 98.3125 184.322 99.2702 184.37 100.229C184.326 101.2 184.494 102.169 184.861 103.068C185.228 103.968 185.786 104.778 186.497 105.441C188.075 106.801 190.116 107.5 192.197 107.394C193.596 107.484 194.988 107.135 196.179 106.395C197.369 105.655 198.299 104.561 198.838 103.267L195.446 101.779C195.083 102.423 194.568 102.967 193.946 103.365C193.36 103.754 192.674 103.963 191.971 103.965C191.557 103.973 191.147 103.894 190.765 103.735C190.384 103.575 190.04 103.337 189.756 103.037C189.089 102.236 188.764 101.205 188.85 100.166C188.803 99.2373 189.106 98.3247 189.7 97.609C189.988 97.2914 190.342 97.0412 190.738 96.8759C191.133 96.7107 191.56 96.6346 191.989 96.653C192.71 96.6457 193.415 96.8633 194.006 97.2755C194.598 97.6877 195.046 98.2741 195.289 98.953H198.419V93.412L195.447 93.415ZM182.558 102.346H177.848V107.093H182.558V102.346ZM166.287 98.727C166.549 96.9183 167.476 96.014 169.069 96.014C169.442 95.9956 169.815 96.0567 170.164 96.1933C170.512 96.3298 170.827 96.5386 171.089 96.806C171.583 97.3344 171.894 98.008 171.977 98.727H166.287ZM169.674 104.567C168.85 104.559 168.05 104.29 167.39 103.798C167.004 103.482 166.697 103.08 166.492 102.625C166.287 102.171 166.19 101.675 166.209 101.176H176.385C176.402 99.8349 176.177 98.5017 175.72 97.241C175.253 96.0377 174.424 95.0092 173.347 94.298C172.15 93.4906 170.732 93.0761 169.29 93.112C168.31 93.0808 167.335 93.2502 166.424 93.6096C165.512 93.969 164.684 94.5108 163.99 95.202C163.295 95.8931 162.749 96.7188 162.386 97.6285C162.022 98.5382 161.848 99.5126 161.875 100.492C161.837 101.422 161.998 102.35 162.348 103.212C162.699 104.074 163.23 104.852 163.906 105.492C165.47 106.835 167.496 107.517 169.554 107.392C170.862 107.483 172.171 107.222 173.344 106.637C174.518 106.052 175.514 105.163 176.229 104.064L172.838 102.982C172.44 103.442 171.956 103.818 171.412 104.09C170.869 104.361 170.277 104.523 169.671 104.564M136.082 96.577V103.924H133.822V107.09H142.714V103.924H140.452V97.848C141.418 97.289 142.503 96.9688 143.618 96.914C144.798 96.914 145.39 97.6727 145.392 99.19V107.09H152.021V103.924H149.76V97.848C150.7 97.2765 151.77 96.955 152.87 96.914C154.088 96.914 154.696 97.6317 154.696 99.067V107.089H161.331V103.923H159.068V98.709C159.115 97.6256 158.982 96.5418 158.674 95.502C158.404 94.7851 157.889 94.1867 157.221 93.813C156.374 93.3601 155.422 93.1432 154.463 93.185C152.477 93.2096 150.552 93.8703 148.971 95.07C148.491 94.4495 147.869 93.9541 147.157 93.6259C146.445 93.2977 145.665 93.1464 144.882 93.185C143.313 93.2143 141.782 93.6699 140.453 94.503V93.412H133.823V96.576L136.082 96.577ZM122.482 98.724C122.745 96.9153 123.672 96.011 125.264 96.011C125.637 95.9922 126.011 96.0532 126.359 96.1897C126.707 96.3263 127.022 96.5353 127.284 96.803C127.778 97.3318 128.089 98.0051 128.173 98.724H122.482ZM125.87 104.564C125.046 104.557 124.246 104.287 123.586 103.795C123.199 103.479 122.891 103.078 122.686 102.623C122.481 102.168 122.384 101.672 122.404 101.173H132.58C132.597 99.8319 132.372 98.4988 131.915 97.238C131.449 96.0341 130.619 95.0053 129.542 94.295C128.346 93.4877 126.929 93.0732 125.487 93.109C124.508 93.0783 123.532 93.2479 122.621 93.6074C121.71 93.967 120.882 94.5089 120.188 95.1999C119.493 95.891 118.947 96.7165 118.584 97.626C118.22 98.5355 118.046 99.5098 118.072 100.489C118.034 101.419 118.196 102.346 118.545 103.208C118.895 104.07 119.425 104.848 120.1 105.489C121.665 106.832 123.692 107.513 125.752 107.389C127.06 107.479 128.369 107.218 129.542 106.633C130.716 106.048 131.712 105.16 132.428 104.061L129.036 102.979C128.638 103.439 128.154 103.815 127.61 104.087C127.067 104.358 126.475 104.52 125.869 104.561M109.4 107.089V103.923H107.439V97.542C108.119 97.0512 108.921 96.7565 109.757 96.69C109.944 96.6753 110.132 96.6994 110.31 96.7608C110.487 96.8222 110.65 96.9197 110.789 97.047C111.061 97.4272 111.184 97.8948 111.134 98.36V107.088H117.5V103.922H115.5V98.128C115.5 94.7827 114.104 93.1093 111.312 93.108C109.901 93.1798 108.547 93.6859 107.435 94.557V87.419H100.842V90.584H103.066V103.923H100.842V107.089H109.4ZM96.7996 93.412V94.542C95.4706 93.5759 93.8475 93.1006 92.2073 93.1973C90.567 93.2939 89.011 93.9565 87.8046 95.072C87.1034 95.7279 86.5538 96.5288 86.194 97.419C85.8343 98.3092 85.673 99.2671 85.7216 100.226C85.6781 101.197 85.8456 102.166 86.2126 103.065C86.5796 103.965 87.1375 104.775 87.8476 105.438C89.4258 106.798 91.4672 107.497 93.5476 107.391C94.9464 107.481 96.3383 107.132 97.5287 106.392C98.7191 105.652 99.6484 104.558 100.187 103.264L96.7966 101.776C96.4341 102.42 95.919 102.964 95.2966 103.362C94.7104 103.751 94.0231 103.959 93.3196 103.962C92.9059 103.97 92.4951 103.891 92.1134 103.731C91.7317 103.572 91.3874 103.334 91.1026 103.034C90.439 102.231 90.1159 101.201 90.2026 100.163C90.1558 99.234 90.4599 98.3213 91.0546 97.606C91.342 97.2882 91.6959 97.0377 92.0913 96.8724C92.4866 96.7072 92.9136 96.6312 93.3416 96.65C94.0634 96.642 94.7698 96.8593 95.3623 97.2715C95.9549 97.6837 96.4041 98.2705 96.6476 98.95H99.7756V93.412H96.7996ZM75.9316 107.089V106.389C76.535 107.062 77.6523 107.397 79.2836 107.396C80.7516 107.491 82.202 107.034 83.3506 106.115C83.8179 105.707 84.189 105.201 84.4375 104.633C84.686 104.065 84.8055 103.449 84.7876 102.829C84.8099 101.959 84.543 101.106 84.0286 100.404C83.5165 99.7273 82.8111 99.2221 82.0056 98.955C80.7632 98.5666 79.4928 98.2744 78.2056 98.081C77.5252 97.995 76.8568 97.8312 76.2136 97.593C76.0963 97.5429 75.9965 97.4591 75.9268 97.3523C75.857 97.2456 75.8204 97.1205 75.8216 96.993C75.8216 96.2943 76.4583 95.945 77.7316 95.945C79.465 95.945 80.474 96.4217 80.7586 97.375H83.8846V93.412H80.7556V93.881C79.6563 93.4125 78.4726 93.1742 77.2776 93.181C75.9487 93.1149 74.6403 93.5283 73.5906 94.346C73.1549 94.6852 72.803 95.1199 72.5618 95.6167C72.3206 96.1134 72.1967 96.6588 72.1996 97.211C72.1875 97.7782 72.3155 98.3396 72.5722 98.8455C72.829 99.3513 73.2066 99.786 73.6716 100.111C75.1217 101.013 76.7587 101.571 78.4576 101.743C79.2005 101.832 79.9274 102.023 80.6176 102.312C80.781 102.383 80.9202 102.501 81.0183 102.65C81.1164 102.799 81.1693 102.973 81.1706 103.151C81.1653 103.35 81.1068 103.543 81.0013 103.712C80.8958 103.88 80.7471 104.017 80.5706 104.109C80.0596 104.387 79.4813 104.517 78.9006 104.484C78.1642 104.508 77.4377 104.308 76.8176 103.91C76.5547 103.747 76.3362 103.521 76.1815 103.253C76.0267 102.985 75.9406 102.683 75.9306 102.374H72.7306V107.084L75.9316 107.089ZM60.5236 98.723C60.7856 96.9143 61.7136 96.01 63.3076 96.01C63.681 95.9916 64.0541 96.0527 64.4022 96.1892C64.7502 96.3257 65.0653 96.5346 65.3266 96.802C65.82 97.3311 66.1308 98.0043 66.2136 98.723H60.5236ZM63.9136 104.563C63.0896 104.556 62.2892 104.287 61.6286 103.794C61.2421 103.478 60.9343 103.077 60.7295 102.622C60.5247 102.167 60.4285 101.671 60.4486 101.172H70.6236C70.6413 99.8309 70.416 98.4978 69.9586 97.237C69.4924 96.0334 68.663 95.0048 67.5856 94.294C66.3906 93.4872 64.974 93.0727 63.5326 93.108C62.5532 93.0764 61.5777 93.2454 60.666 93.6047C59.7543 93.9639 58.9256 94.5057 58.231 95.1969C57.5364 95.8881 56.9904 96.714 56.6266 97.6239C56.2628 98.5338 56.0889 99.5084 56.1156 100.488C56.0775 101.418 56.2389 102.345 56.5889 103.208C56.9388 104.07 57.4693 104.848 58.1446 105.488C59.7101 106.831 61.7367 107.512 63.7956 107.388C65.1041 107.478 66.413 107.217 67.5868 106.632C68.7607 106.047 69.757 105.159 70.4726 104.06L67.0726 102.978C66.6761 103.438 66.1923 103.815 65.6492 104.086C65.1061 104.358 64.5144 104.519 63.9086 104.56M55.1736 107.085V103.919H53.2216V87.419H46.6996V90.584H48.8466V103.923H46.6996V107.089L55.1736 107.085ZM42.5416 93.412V94.542C41.2126 93.5759 39.5895 93.1006 37.9493 93.1973C36.309 93.2939 34.753 93.9565 33.5466 95.072C32.8456 95.728 32.2962 96.529 31.9366 97.4191C31.577 98.3093 31.4159 99.2672 31.4646 100.226C31.4215 101.197 31.5892 102.165 31.956 103.065C32.3228 103.965 32.8801 104.774 33.5896 105.438C35.1678 106.798 37.2092 107.497 39.2896 107.391C40.6886 107.481 42.0809 107.132 43.2716 106.392C44.4624 105.652 45.3921 104.558 45.9306 103.264L42.5386 101.776C42.1757 102.419 41.6607 102.964 41.0386 103.362C40.4518 103.751 39.7638 103.96 39.0596 103.962C38.6459 103.97 38.235 103.892 37.8532 103.732C37.4714 103.572 37.1272 103.334 36.8426 103.034C36.1785 102.232 35.8554 101.201 35.9426 100.163C35.8955 99.2346 36.1981 98.3223 36.7906 97.606C37.0785 97.2883 37.4329 97.038 37.8285 96.8727C38.2241 96.7075 38.6513 96.6315 39.0796 96.65C39.8015 96.6424 40.5077 96.8598 41.1004 97.2719C41.693 97.6841 42.1426 98.2706 42.3866 98.95H45.5136V93.412H42.5416ZM23.2556 113.27L29.7926 96.577H31.7526V93.412H24.5926V96.576H26.3406L23.9246 102.731L21.6506 96.576H23.2756V93.412H15.0996V96.576H17.0596L22.0396 107.712L21.1156 110.105H18.4886V113.27H23.2556ZM11.0776 93.412V94.542C9.74864 93.5761 8.12583 93.101 6.48579 93.1977C4.84574 93.2943 3.28996 93.9567 2.08362 95.072C1.38225 95.7278 0.832416 96.5287 0.472478 97.4189C0.11254 98.309 -0.0488326 99.267 -0.000380266 100.226C-0.0439504 101.197 0.123657 102.166 0.490876 103.066C0.858095 103.965 1.41618 104.775 2.12662 105.438C3.70443 106.798 5.74607 107.498 7.82662 107.391C9.22571 107.481 10.6179 107.131 11.8088 106.392C12.9996 105.652 13.9295 104.558 14.4686 103.264L11.0766 101.776C10.7135 102.419 10.1985 102.964 9.57662 103.362C8.98983 103.751 8.30177 103.96 7.59762 103.962C7.18418 103.97 6.77364 103.891 6.39225 103.732C6.01085 103.572 5.66699 103.334 5.38262 103.034C4.71784 102.232 4.39464 101.201 4.48262 100.163C4.43477 99.234 4.7386 98.3211 5.33362 97.606C5.62097 97.2882 5.97495 97.0377 6.37028 96.8724C6.76561 96.7072 7.19255 96.6312 7.62062 96.65C8.34147 96.643 9.0466 96.8607 9.63801 97.2729C10.2294 97.6851 10.6777 98.2713 10.9206 98.95H14.0496V93.412H11.0776Z" fill="#2A5078"/>
		</g>
	</g>
	<defs>
		<clipPath id="clip0_10366_310353">
			<rect width="255.904" height="113.27" fill="white"/>
		</clipPath>
	</defs>
</svg>
