<svg viewBox="0 0 26.909641 4.1402702" xmlns="http://www.w3.org/2000/svg"><g transform="translate(-84.435388 -221.44584)"><path d="m84.435492 225.58576h26.909538v-4.13984h-26.909538z" fill="#fff"/><g fill="#ef3920"><path d="m110.53424 224.77257h-.47096l-1.21743-1.59808v1.59596l-.54575.002v-2.51389h.51012l1.17792 1.54798v-1.54798h.5461zm-4.81048 0h-1.91099v-2.51389h1.89406l-.001.49106v.001h-1.34655v.50976h1.18533v.49213h-1.18533v.52776h1.36489zm-14.769392.0437c-.717903 0-1.300339-.58208-1.300339-1.30033 0-.71791.582436-1.30034 1.300339-1.30034.336197 0 .641703.12806.87242.33761l-.327025.38911c-.14217-.13511-.333728-.21837-.545395-.21837-.437444 0-.791986.35454-.791986.79199 0 .43744.354542.79233.791986.79233.213784 0 .407459-.0854.550334-.22295l.325966.38947c-.231069.21166-.537986.34148-.8763.34148m2.991908-3.37043 1.524706 1.82209.610658-1.00929h.62865l-.965905 1.512v1.00189h-.553861v-.99131l-1.890536-2.33538h-8.8646v4.13984h17.145002l-1.35608-1.61748h-.1083-.42757v.80433h-.552803v-2.51389h1.149353c.3182 0 .56233.0847.73236.25505.14358.14358.21555.33514.21555.57468v.007c0 .20356-.0497.36936-.14887.49742-.0783.1009-.17604.18098-.29281.23954-.006.003-.013.006-.0194.01l1.45521 1.74378h9.11789v-4.13984z"/><path d="m99.688474 222.75786v.72178h.560566c.13652 0 .2413-.0321.31432-.097.073-.0646.10936-.15064.10936-.25859v-.007c0-.11959-.0381-.2092-.11465-.26917-.0769-.06-.1838-.09-.31997-.09z"/></g></g></svg>