<?xml version="1.0" encoding="UTF-8"?> <!-- Generator: Adobe Illustrator 26.3.1, SVG Export Plug-In . SVG Version: 6.00 Build 0) --> <svg xmlns="http://www.w3.org/2000/svg"  version="1.1" id="Warstwa_1" x="0px" y="0px" viewBox="0 0 512 512" style="enable-background:new 0 0 512 512;" xml:space="preserve"> <style type="text/css"> .st0{fill:url(#SVGID_1_);} .st1{fill:#FEC703;} </style> <g> <g> <linearGradient id="SVGID_1_" gradientUnits="userSpaceOnUse" x1="339.7873" y1="47.6826" x2="108.6599" y2="448.007"> <stop offset="0" style="stop-color:#58008B"></stop> <stop offset="0" style="stop-color:#522583"></stop> <stop offset="1" style="stop-color:#7D1BC8"></stop> </linearGradient> <path class="st0" d="M291.9,364.5c0-5.9,0.6-11.7,1.7-17.3c-16.1,9.8-35,15.5-55.2,15.5c-22.3,0-42.9-6.8-60-18.5l-42.2,10.5 l13.2-40.1C138.4,298,132,278,132,256.6c-0.1-58.7,47.5-106.3,106.1-106.4c36.3,0,68.3,18.1,87.5,45.9L432,129.3 C389.9,67.8,325.5,26.8,241.5,26.9C114.6,27.1,0.8,116.8,1,254.9C1.2,393,115.1,485.2,242,485.1c45.8-0.1,85.8-12.3,119.4-33.5 C321.6,442.6,291.8,407,291.9,364.5z"></path> <g> <path class="st1" d="M412.9,243.6c54.2,0.1,98.1,44.1,98.1,98.3c0,19.8-5.9,38.3-16,53.7l12.2,37l-39-9.7 c-15.8,10.8-34.9,17.1-55.5,17.1c-54.2-0.1-98.1-44.1-98.1-98.3C314.7,287.5,358.7,243.6,412.9,243.6z"></path> </g> </g> </g> </svg> 