<?xml version="1.0" ?>
<svg xmlns="http://www.w3.org/2000/svg" viewBox="2.384185791015625e-7 0.1919994354248047 120 19.62000274658203">
	<g>
		<g clip-path="url(#6b1ad87a-9f4a-4e99-9bb9-01d0e6a928b0_comp-mgux10bj10)">
			<path fill="#000000" d="M4.86 19.808q-2.857 0-3.86-.972c-.664-.648-1-1.868-1-3.664v-4.068l4.604-.872v5.888h8.96V.192h4.576v14.98q-.002 2.687-1.012 3.664-1.012.972-3.86.972z" data-color="1"/>
			<path fill="#000000" d="M55.96 19.808V.192h16.796c1.552 0 2.672.304 3.368.912q1.044.913 1.044 2.9v2.384q-.002 1.409-.868 2.248-.869.842-2.5 1.048 1.69.223 2.612 1.208.919.985.92 2.564v2.512q-.001 1.949-1.436 2.896-1.433.948-4.36.948H55.96zM70.844 3.392H60.452v4.656h10.392c.792 0 1.336-.104 1.64-.316q.454-.313.452-1.088V4.8q-.001-.756-.452-1.08c-.304-.22-.848-.328-1.64-.328m0 7.888H60.452v5.004h10.392c.872 0 1.464-.128 1.768-.392q.458-.391.46-1.376v-1.488q.001-.984-.46-1.368-.455-.382-1.768-.38" data-color="1"/>
			<path fill="#000000" d="M90.7.192h-4.576v19.616H90.7z" data-color="1"/>
			<path fill="#000000" d="M100.704 19.808V.192h4.576V16.12H120v3.688z" data-color="1"/>
			<path fill="#000000" d="m41.144 13.52 3.384 6.288h5.12l-4.236-7.392z" data-color="1"/>
			<path fill="#000000" d="m36.056 3.996 2.748 5.192 4.76.004-5.156-9h-4.392L22.924 19.808h4.544z" data-color="1"/>
			<path fill="#15BEF0" d="m33.216 9.184-4.036 7.44 28.644-7.428z" data-color="2"/>
		</g>
		<defs fill="none">
			<clipPath id="6b1ad87a-9f4a-4e99-9bb9-01d0e6a928b0_comp-mgux10bj10">
				<path fill="#000000" d="M120 0v20H0V0z"/>
			</clipPath>
		</defs>
	</g>
</svg>