<?xml version="1.0" ?>
<svg xmlns="http://www.w3.org/2000/svg" id="Слой_1" data-name="Слой 1" viewBox="0 0 130 56">
	<defs>
		<style>.cls-1{fill:#4d5d6a;}</style>
	</defs>
	<path class="cls-1" d="M108.67,31.72v4.34c1,.11,1.93,0,2.87,0h5.91c.09.85,0,1.66,0,2.53H105.66c-.15-.67-.21-14.21-.07-15.6.6-.17,10.47-.21,11.52,0v2.45h-8.29a10.8,10.8,0,0,0-.09,3.66c.83.08,1.69,0,2.55,0h5.3a17,17,0,0,1,0,2.57Z"/>
	<path class="cls-1" d="M55.37,38.65H52.08c2.05-5.26,4.07-10.47,6.11-15.7h3.36l6.31,15.69H64.49c-.26-.63-.52-1.29-.79-2-.1-.27-.19-.54-.3-.81-.33-.82-.34-.82-1.19-.82H57.52c-.85,0-.85,0-1.15.84s-.65,1.79-1,2.76m4.48-12.14a27.9,27.9,0,0,0-2,6c.69,0,1.38,0,2.07,0A7.34,7.34,0,0,0,62,32.35c-.67-2-1.4-3.85-2.17-5.84"/>
	<path class="cls-1" d="M27.8,38.65H24.5c2.05-5.27,4.08-10.47,6.12-15.7h3.23c.37.52,6,14.37,6.35,15.69a12.57,12.57,0,0,1-1.62,0H36.93c-.48-1.2-1-2.39-1.45-3.63H30c-.89,0-.89,0-1.17.8s-.67,1.84-1,2.8m4.58-11.91h-.23l-2,5.58a18.48,18.48,0,0,0,4.35,0c-.7-1.89-1.39-3.76-2.09-5.63"/>
	<path class="cls-1" d="M72.86,32.8v5.82c-1,.13-2,0-3,.06-.18-.69-.24-14.24-.09-15.69a3.4,3.4,0,0,1,.57-.08c2.2,0,4.39,0,6.59,0a5.41,5.41,0,0,1,2.27.44A4.11,4.11,0,0,1,81.54,26a5.86,5.86,0,0,1,.09,3.08,4.43,4.43,0,0,1-4.24,3.47c-1.29.08-2.59.11-3.89.16l-.64,0m0-2.79a33.2,33.2,0,0,0,3.75,0,2.18,2.18,0,0,0,1.72-3.22A2.43,2.43,0,0,0,76.1,25.5c-.87,0-1.73,0-2.6,0a4.62,4.62,0,0,0-.6.07c0,.27-.05.5-.05.73V30"/>
	<path class="cls-1" d="M93.85,32.81c0,.4-.1.74-.1,1.08,0,1.27,0,2.54,0,3.81v.95c-1,.06-1.94,0-2.93,0V23a5.26,5.26,0,0,1,.67-.07c2.14,0,4.28,0,6.42,0a5.59,5.59,0,0,1,2.28.41,4.17,4.17,0,0,1,2.53,3.56,6.85,6.85,0,0,1-.06,2.07,4.44,4.44,0,0,1-4.36,3.63c-1.33.07-2.65.1-4,.15l-.46.06M93.74,30c1.38,0,2.63.1,3.85,0a2.21,2.21,0,0,0,1.77-3.15,2.23,2.23,0,0,0-1.91-1.3c-1.17-.08-2.36,0-3.65,0-.12,1.49,0,2.94-.06,4.49"/>
	<path class="cls-1" d="M46.4,34.44q1-2.85,1.9-5.72L50.23,23h3.08c0,.05.07.07.08.1s0,.06,0,.08c-.1.33-.19.66-.31,1L47.9,38.63H44.5L38.89,22.94h3.36q2,5.74,4,11.5h.2"/>
	<path class="cls-1" d="M12.54,33.89l2.79-.33c.1.49.15.94.27,1.39a2,2,0,0,0,3.1,1,1.63,1.63,0,0,0,.53-.85,6.38,6.38,0,0,0,.2-1.63c0-3.18,0-6.36,0-9.55V23h3c0,.23.06.45.06.68q0,5,0,10.07a7.91,7.91,0,0,1-.21,1.88,4.15,4.15,0,0,1-2.66,3,6.2,6.2,0,0,1-4,.2,3.88,3.88,0,0,1-2.83-2.68,4.44,4.44,0,0,1-.29-2.2"/>
	<path class="cls-1" d="M87.39,38.65h-3V22.94c.48,0,1,0,1.44,0s1,0,1.41,0l.12.11a.1.1,0,0,1,0,.07,3,3,0,0,1,0,.43q0,7.41,0,14.82a1.56,1.56,0,0,1-.08.31"/>
</svg>