<svg viewBox="0 0 120 32" fill="none" xmlns="http://www.w3.org/2000/svg">
<g id="logo_text">
<g id="Vector">
<path fill-rule="evenodd" clip-rule="evenodd" d="M101.092 7.38194H91.6179V1.0127H119.996V7.38194H108.674V31.1141H101.092V7.38194Z" fill="#39B7FF"/>
<path fill-rule="evenodd" clip-rule="evenodd" d="M60.9245 19.1869V31.1141H53.3438V15.4133C53.3678 13.0771 53.4834 8.64238 54.7047 6.58887C55.7493 4.61839 57.2977 3.14653 59.3972 2.2691C61.8836 1.2342 65.0652 1.0127 67.7391 1.0127H78.6508V7.38194H68.5485C67.3265 7.40009 64.2472 7.46009 63.1585 8.01199L63.1295 8.02661L63.1021 8.03703C61.4243 8.69616 60.9565 10.2559 60.9249 11.8899V12.8186H78.651V19.1869H60.9245Z" fill="#39B7FF"/>
<path d="M89.6417 1.0127H82.0599V31.114H89.6417V1.0127Z" fill="#39B7FF"/>
</g>
<g id="Vector_2">
<path fill-rule="evenodd" clip-rule="evenodd" d="M33.2862 12.9406H49.952V19.3095H33.3017C33.5043 20.8128 33.9999 22.4779 35.2333 23.4175C36.7487 24.5727 39.5124 24.7448 41.354 24.7448H49.952V31.1136H41.071C39.0745 31.1136 37.0421 31.0137 35.0696 30.7025C32.3718 30.2797 30.0559 29.136 28.2992 27.0859C25.6311 23.9373 24.7801 19.8992 24.7801 15.9078C24.7801 11.2346 26.1197 6.9019 29.7612 3.71081C30.8435 2.76716 32.0797 2.01981 33.4749 1.60319C35.0802 1.117 36.961 1.01213 38.6338 1.01213H49.9519V7.38137H41.0708C39.7242 7.38137 37.8296 7.40726 36.5366 7.78757C35.6627 8.04705 34.9644 8.55022 34.4108 9.25422C34.0603 9.70276 33.7744 10.2054 33.6243 10.7553C33.4435 11.398 33.3514 12.2055 33.2862 12.9406Z" fill="#39B7FF"/>
<path fill-rule="evenodd" clip-rule="evenodd" d="M0 30.9874V24.6187H6.70385C8.02042 24.6187 9.5232 24.6157 10.823 24.419C11.4332 24.319 12.135 24.1338 12.6313 23.7528C13.2252 23.3026 13.5603 22.66 13.7453 21.965C14.07 20.7054 14.0826 18.9965 14.0826 17.7022V0.885986H21.6636V17.7022C21.6636 19.2282 21.652 20.8952 21.4273 22.4038C21.2725 23.4767 20.9639 24.5204 20.5003 25.5077C19.218 28.276 16.8835 29.8858 13.8566 30.5937C11.8095 30.9572 9.4348 30.9876 7.35692 30.9876L0 30.9874Z" fill="#39B7FF"/>
</g>
</g>
</svg>
