<?xml version="1.0" ?>
<!-- Generator: Adobe Illustrator 20.1.0, SVG Export Plug-In . SVG Version: 6.00 Build 0)  -->
<svg xmlns="http://www.w3.org/2000/svg" viewBox="0 0 300 80" enable-background="new 0 0 300 80">
	<style type="text/css">
	.st0{stroke:#000000;stroke-width:0.5;stroke-miterlimit:10;}
</style>
	<g>
		<path class="st0" d="M10.4,57.2c-1.7,0-3.2-0.4-4.6-1.2c-1.4-0.8-2.5-1.9-3.3-3.4c-0.8-1.4-1.2-3-1.2-4.7v-0.4h2.6V48   c0,0.8,0.1,1.6,0.3,2.3l12.1-7V32.5h0.7v11.2L3.9,51.3l-0.1-0.4c-0.3-0.7-0.5-1.6-0.5-2.5H2c0.1,1.5,0.5,2.8,1.3,4.1   c0.8,1.3,1.8,2.2,3.1,3c1.3,0.7,2.6,1.1,4.1,1.1c1.5,0,2.9-0.4,4.2-1.2c1.3-0.8,2.3-1.8,3.1-3.1c0.8-1.3,1.1-2.7,1.1-4.3V21.5H3.6   v-0.8h16V47l-0.1,1c0,1.7-0.4,3.2-1.2,4.7c-0.8,1.4-1.9,2.5-3.3,3.4C13.6,56.8,12.1,57.2,10.4,57.2z"/>
		<path class="st0" d="M39,53.7v3H24v-36h14.6v0.8h-14V56h13.6v-1.6H26.5V42.7h6.6v-3h-2.5l-4.1-4v-3.4h0.7v3.1l3.7,3.6h3v4.5h-6.7   v10.2H39z"/>
		<path class="st0" d="M54.3,42.6l7.5,14.1h-2.7L50.6,41l1-0.3l0.9-0.3c1-0.5,2-1.1,2.8-1.9c0.8-0.8,1.5-1.6,1.9-2.6H45.8v-3.7h0.7   v2.9h11.9l-0.2,0.5C57.7,36.9,57,38,56,38.9c-0.9,0.9-2,1.7-3.2,2.2c-0.2,0-0.3,0.1-0.5,0.2c-0.2,0.1-0.4,0.1-0.6,0.2h-0.1L59.5,56   h1.1l-7.2-13.8l0.8-0.4c1.8-0.9,3.2-2.3,4.2-4c1-1.7,1.5-3.6,1.5-5.6c0-2-0.5-3.8-1.4-5.4c-0.9-1.6-2.2-2.9-3.8-3.9   c-1.6-1-3.3-1.4-5.2-1.4h-5.3v35.2h-0.7v-36h6c2,0,3.9,0.5,5.6,1.6c1.7,1,3.1,2.4,4.1,4.2c1,1.7,1.5,3.7,1.5,5.8   c0,2.2-0.5,4.2-1.6,6C57.9,40.1,56.4,41.5,54.3,42.6L54.3,42.6z"/>
		<path class="st0" d="M81.2,53.7v3h-15v-36h14.6v0.8h-14V56h13.6v-1.6H68.7V42.7h6.6v-3h-2.5l-4.1-4v-3.4h0.7v3.1L73,39h3v4.5h-6.7   v10.2H81.2z"/>
		<path class="st0" d="M86.3,22.5v34.2h-0.7V20.3l11.9,17.3l11.5-17.4v36.5h-2.5L88.7,30.1v9.8H88V27.8L106.8,56h1.5V22.6L97.5,38.8   L86.3,22.5z"/>
		<path class="st0" d="M128.6,39.1v17.6h-2.8V39.1l-12.4-18.4h0.8l12.3,18.2V56h1.4V38.9l0-0.1l12.3-17.3h-1.4l-8,10.8h-0.9l8.6-11.6   h3.1L128.6,39.1z"/>
		<path class="st0" d="M167.8,21.4v35.2h-0.7v-36h8.3c2,0,3.9,0.5,5.6,1.6c1.7,1,3.1,2.4,4.1,4.2c1,1.7,1.5,3.7,1.5,5.8   c0,2.1-0.5,4-1.5,5.8c-1,1.7-2.4,3.1-4.1,4.2c-1.7,1-3.6,1.5-5.6,1.5h-1.1v-2.5h0.3c1.3,0,2.5-0.2,3.6-0.7c1.2-0.5,2.2-1.1,3.1-2   c0.7-0.7,1.3-1.4,1.8-2.4h-13.8v-3.9h0.7v3.1h14.2l-0.2,0.5c-0.5,1.2-1.2,2.2-2.2,3.1c-0.9,0.9-2,1.5-3.1,2.1   c-1.2,0.5-2.4,0.8-3.7,0.8v1h0.4c1.9,0,3.6-0.5,5.2-1.4c1.6-1,2.9-2.3,3.8-3.9c0.9-1.6,1.4-3.4,1.4-5.4c0-2-0.5-3.8-1.4-5.4   c-0.9-1.6-2.2-2.9-3.8-3.9c-1.6-1-3.3-1.4-5.2-1.4H167.8z"/>
		<path class="st0" d="M203.7,20.2l13.1,36.5h-3.2l-4.8-13.2h-11l4-11.2h0.8l-3.7,10.4h10.5L214,56h1.8l-12.1-33.7l-12.4,34.5h-0.8   L203.7,20.2z"/>
		<path class="st0" d="M227.8,32.3v24.4H225V23.7h-10.7v-2.9h21.8v0.8H215v1.4h10.8V56h1.4V32.3H227.8z"/>
		<path class="st0" d="M264.8,22.9c2.5,1.6,4.4,3.9,5.9,6.7c1.4,2.8,2.2,5.8,2.2,9.1c0,3.3-0.7,6.3-2.2,9.1c-1.4,2.8-3.4,5-5.9,6.7   c-2.5,1.6-5.2,2.5-8.1,2.5c-2.9,0-5.6-0.8-8.1-2.5c-2.5-1.6-4.4-3.9-5.9-6.7c-1.4-2.8-2.2-5.8-2.2-9.1c0-2.8,0.5-5.5,1.6-8   c1.1-2.5,2.6-4.6,4.6-6.4v1c-1.7,1.7-3.1,3.7-4,6c-0.9,2.3-1.4,4.8-1.4,7.4c0,3.2,0.7,6.1,2.1,8.8c1.4,2.7,3.3,4.8,5.6,6.4   c2.4,1.6,4.9,2.4,7.7,2.4c2.8,0,5.3-0.8,7.7-2.4c2.4-1.6,4.2-3.7,5.6-6.4c1.4-2.7,2.1-5.6,2.1-8.8c0-3.1-0.7-6-2-8.7   c-1.3-2.7-3.2-4.8-5.5-6.4c-2.3-1.6-4.8-2.4-7.6-2.5v1.5c2.4,0.1,4.7,0.8,6.9,2.3c2.1,1.5,3.8,3.4,5.1,5.9c1.3,2.4,1.9,5,1.9,7.8   c0,2.4-0.5,4.7-1.4,6.9c-0.9,2.2-2.3,4-4,5.6l-0.2,0.2l-21.6-11.7v-7.3h0.7v6.8l20.8,11.4c1.6-1.5,2.8-3.3,3.7-5.3   c0.9-2.1,1.3-4.2,1.3-6.5c0-2.7-0.6-5.2-1.8-7.6c-1.2-2.3-2.9-4.2-4.9-5.6c-2.1-1.4-4.3-2.1-6.7-2.1h-0.3v-3h0.3   C259.6,20.5,262.3,21.3,264.8,22.9z"/>
		<path class="st0" d="M298.7,20.7V57l-10.3-14.2h-8.8V32.5h0.7V42h8.4l9.3,13.1V21.4h-1.8l0.2,29l-18.6-27.9v34.2h-0.7V20.3   l18.6,27.9l-0.2-27.4H298.7z"/>
	</g>
</svg>