<?xml version="1.0" ?>
<!DOCTYPE svg
  PUBLIC '-//W3C//DTD SVG 1.1//EN'
  'http://www.w3.org/Graphics/SVG/1.1/DTD/svg11.dtd'>
<svg xmlns="http://www.w3.org/2000/svg" viewBox="0 0 309.921 90.324" xml:space="preserve">
	<g>
		<g>
			<path style="fill:#020202;" d="M16.032,17.947c0-4.801-4.191-3.36-4.191-4.657c0-0.384,0.216-0.528,0.648-0.528    c1.814,0,2.722,0.192,4.665,0.192c2.03,0,3.024-0.192,4.018-0.192c0.432,0,0.821,0.144,0.821,0.672    c0,1.056-2.549-0.288-2.549,3.457v25.49c0,7.489-3.715,13.345-8.38,13.345c-1.339,0-1.685-0.336-1.685-1.728    c0-0.672,0.345-2.688,0.95-2.688c0.648,0,1.469,1.92,2.678,1.92c1.815,0,3.024-2.735,3.024-6.96V17.947z"/>
			<path style="fill:#020202;" d="M22.785,32.751c0-8.112,5.686-14.001,12.88-14.001c7.16,0,12.669,5.733,12.669,13.807    c0,8.775-5.44,14.431-13.266,14.431C27.452,46.987,22.785,40.981,22.785,32.751z M25.347,31.62    c0,7.215,4.247,14.196,11.195,14.196c5.124,0,9.23-4.563,9.23-11.778c0-7.098-4.317-14.002-11.16-14.002    C28.716,20.037,25.347,25.458,25.347,31.62z"/>
			<path style="fill:#020202;" d="M51.251,22.455c-0.035-2.847-3.053-2.067-3.053-2.925c0-0.351,0.281-0.429,0.562-0.429    c1.298,0,2.562,0.156,3.86,0.156c1.088,0,2.176-0.156,3.264-0.156c0.597,0,0.667,0.234,0.667,0.39c0,0.78-2.527,0.039-2.527,2.964    v8.424c0,0.546,0,0.702,0.526,0.702h12.845c0.351,0,0.281-0.975,0.281-1.131v-7.996c0-2.691-2.632-2.028-2.632-2.925    c0-0.234,0.07-0.429,0.597-0.429c1.158,0,2.983,0.156,3.65,0.156c1.298,0,1.825-0.156,2.527-0.156c0.912,0,0.982,0.39,0.982,0.624    c0,0.702-2.352,0.039-2.352,2.73v20.671c0,2.847,3.194,2.145,3.194,3.12c0,0.117-0.14,0.468-0.386,0.468    c-0.947,0-2.035-0.156-3.299-0.156c-2.246,0-3.229,0.156-3.896,0.156c-0.316,0-0.842,0.117-0.842-0.507    c0-0.936,2.456-0.39,2.456-2.847v-9.36c0-0.624,0.141-0.975-0.281-0.975h-12.95c-0.421,0-0.421,0.234-0.421,0.663v9.711    c0,2.652,3.334,1.794,3.334,3.003c0,0.195-0.246,0.312-0.561,0.312c-0.456,0-3.018-0.156-4.879-0.156    c-2.492,0-2.877,0.156-3.018,0.156c-0.281,0-0.386-0.195-0.386-0.585c0-1.131,2.737,0.156,2.737-3.705V22.455z"/>
			<path style="fill:#020202;" d="M78.277,26.784c0-8.112-4.247-5.85-4.247-7.293c0-0.234,0.351-0.39,0.526-0.39    c0.562,0,1.088,0.156,1.649,0.156c0.526,0,1.088-0.156,1.614-0.156c0.386,0,0.702,0.624,0.913,0.897l16.74,20.71    c0.211,0.273,0.351,0.429,0.421,0.429c0.07,0,0.105-0.117,0.105-0.429V24.405c0-5.109-3.896-3.627-3.896-4.914    c0-0.273,0.176-0.39,0.386-0.39c1.053,0,2.071,0.156,3.194,0.156c1.193,0,2.702-0.156,3.544-0.156    c0.211,0,0.351,0.117,0.351,0.351c0,1.014-2.071,0.312-2.071,3.159v22.582c0,1.131-0.035,1.677-0.316,1.677    c-0.246,0-0.597-0.195-1.334-1.092L80.769,26.901c-0.07-0.078-0.492-0.741-0.737-0.741c-0.14,0-0.246,0.117-0.246,0.897v15.952    c0,3.51,3.088,2.145,3.088,3.198c0,0.195-0.035,0.507-0.386,0.507c-0.842,0-1.825-0.156-3.545-0.156    c-1.228,0-3.053,0.156-3.299,0.156c-0.421,0-0.456-0.234-0.456-0.429c0-1.365,3.088,0.351,3.088-5.109V26.784z"/>
			<path style="fill:#020202;" d="M117.217,26.732c0,1.632-0.086,1.632,1.642,1.632h4.665c4.493,0,3.326-3.84,4.363-3.84    c0.345,0,0.475,0.528,0.475,0.912c0,1.68-0.087,3.312-0.087,4.849c0,1.248,0.087,2.496,0.087,3.792    c0,0.432-0.173,0.624-0.475,0.624c-1.339,0,0.129-4.225-3.499-4.225h-6.393c-0.994,0-0.777,0.816-0.777,1.536v9.697    c0,4.561,4.061,3.312,4.061,4.417c0,0.672-0.648,0.672-0.95,0.672c-0.303,0-0.734-0.24-4.752-0.24c-2.203,0-3.715,0.24-4.493,0.24    c-0.346,0-0.432-0.336-0.432-0.432c0-1.344,3.153,0.048,3.153-5.281v-22.13c0-2.16,0-4.464-2.333-4.848    c-0.345-0.096-1.296-0.192-1.296-0.768c0-0.384,0.259-0.576,1.512-0.576c8.164,0,10.411,0.192,12.225,0.192    c0.864,0,4.838-0.192,6.177-0.192c0.346,0,0.432,0.48,0.432,1.056c0,5.329-0.604,5.712-0.864,5.712    c-1.037,0-0.346-2.304-1.037-3.408c-1.124-1.632-5.616-1.344-7.344-1.344c-4.147,0-4.061-0.192-4.061,3.024V26.732z"/>
			<path style="fill:#020202;" d="M129.421,43.138c0.681-0.864,0.583-1.188,1.004-1.188c0.454,0,0.324,0.324,1.037,1.188    c0.615,0.756,1.037,0.648,1.037,1.116s-0.421,0.432-1.037,1.224c-0.713,0.72-0.583,1.08-1.037,1.08    c-0.421,0-0.324-0.36-1.004-1.08c-0.648-0.792-1.069-0.756-1.069-1.224S128.773,43.894,129.421,43.138z"/>
			<path style="fill:#020202;" d="M159.444,19.483c0.821-0.816,3.067-2.688,3.067-3.889c0-1.536-2.419-1.392-2.419-2.256    c0-0.384,0.216-0.576,0.561-0.576c1.599,0,2.289,0.192,4.579,0.192c2.246,0,2.592-0.192,3.974-0.192    c0.26,0,0.777,0.048,0.777,0.384c0,1.536-0.993-0.288-5.918,4.177l-10.107,9.985c-0.39,0.384-0.648,0.672-0.648,0.912    c0,0.288,0.173,0.528,0.476,0.912l12.009,13.969c2.894,3.36,4.752,1.536,4.752,3.024c0,0.384-0.217,0.624-0.519,0.624    c-0.864,0-1.771-0.192-2.636-0.192c-0.907,0-1.771,0.192-2.678,0.192c-0.562,0-0.907-0.768-1.296-1.2l-12.182-14.113    c-0.259-0.336-0.562-0.48-0.778-0.48s-0.389,0.144-0.389,0.48v10.033c0,5.329,4.233,3.072,4.233,4.8c0,0.48-0.907,0.48-1.166,0.48    c-0.13,0-0.907-0.192-4.233-0.192c-2.203,0-3.542,0.192-4.233,0.192c-0.475,0-1.079-0.048-1.079-0.768    c0-0.768,3.067,0.048,3.067-4.032V17.371c0-3.984-3.629-2.832-3.629-4.081c0-0.432,0.173-0.528,0.562-0.528    c1.382,0,2.765,0.192,4.19,0.192c1.814,0,3.153-0.192,4.449-0.192c0.216,0,0.346,0.144,0.346,0.432    c0,1.056-2.505,0.576-2.505,3.984V27.98c0,0.288,0.087,0.48,0.216,0.48c0.13,0,0.302-0.048,0.475-0.24L159.444,19.483z"/>
			<path style="fill:#020202;" d="M176.192,30.45c0,1.326-0.07,1.326,1.333,1.326h3.79c3.65,0,2.703-3.12,3.545-3.12    c0.281,0,0.386,0.429,0.386,0.741c0,1.365-0.069,2.691-0.069,3.939c0,1.014,0.069,2.028,0.069,3.081    c0,0.351-0.14,0.507-0.386,0.507c-1.088,0,0.105-3.432-2.843-3.432h-5.194c-0.736,0-0.631,0.663-0.631,1.248v7.176    c0,2.301-0.281,3.237,2.667,3.237c8.106,0,9.3-4.017,9.756-4.017c0.246,0,0.281,0.39,0.281,0.468c0,1.404-0.912,2.769-1.755,3.783    c-1.123,1.404-1.895,1.326-3.439,1.326c-2.667,0-5.334-0.234-8.002-0.156c-1.403,0.039-2.877,0.156-4.281,0.156    c-0.315,0-0.526-0.078-0.526-0.39c0.07-0.468,0.421-0.39,1.544-1.014c0.913-0.468,0.982-1.56,0.982-3.393V24.132    c0-1.755,0-3.627-1.895-3.939c-0.281-0.078-1.053-0.156-1.053-0.624c0-0.312,0.21-0.468,1.229-0.468    c6.633,0,8.457,0.156,9.932,0.156c0.702,0,3.931-0.156,5.019-0.156c0.28,0,0.351,0.39,0.351,0.858    c0,4.329-0.491,4.641-0.701,4.641c-0.843,0-0.281-1.872-0.843-2.769c-0.912-1.326-4.562-1.092-5.966-1.092    c-3.369,0-3.299-0.156-3.299,2.457V30.45z"/>
			<path style="fill:#020202;" d="M193.146,26.784c0-8.112-4.247-5.85-4.247-7.293c0-0.234,0.352-0.39,0.526-0.39    c0.562,0,1.088,0.156,1.65,0.156c0.526,0,1.088-0.156,1.614-0.156c0.386,0,0.701,0.624,0.912,0.897l16.74,20.71    c0.211,0.273,0.352,0.429,0.421,0.429c0.07,0,0.106-0.117,0.106-0.429V24.405c0-5.109-3.896-3.627-3.896-4.914    c0-0.273,0.176-0.39,0.386-0.39c1.054,0,2.071,0.156,3.194,0.156c1.193,0,2.702-0.156,3.544-0.156    c0.211,0,0.352,0.117,0.352,0.351c0,1.014-2.07,0.312-2.07,3.159v22.582c0,1.131-0.035,1.677-0.316,1.677    c-0.245,0-0.597-0.195-1.334-1.092l-15.091-18.876c-0.069-0.078-0.491-0.741-0.736-0.741c-0.141,0-0.246,0.117-0.246,0.897v15.952    c0,3.51,3.089,2.145,3.089,3.198c0,0.195-0.035,0.507-0.387,0.507c-0.842,0-1.824-0.156-3.544-0.156    c-1.229,0-3.054,0.156-3.3,0.156c-0.421,0-0.456-0.234-0.456-0.429c0-1.365,3.089,0.351,3.089-5.109V26.784z"/>
			<path style="fill:#020202;" d="M219.4,26.784c0-8.112-4.247-5.85-4.247-7.293c0-0.234,0.352-0.39,0.526-0.39    c0.562,0,1.089,0.156,1.649,0.156c0.527,0,1.089-0.156,1.615-0.156c0.386,0,0.701,0.624,0.912,0.897l16.74,20.71    c0.211,0.273,0.352,0.429,0.421,0.429c0.07,0,0.105-0.117,0.105-0.429V24.405c0-5.109-3.896-3.627-3.896-4.914    c0-0.273,0.176-0.39,0.387-0.39c1.053,0,2.07,0.156,3.193,0.156c1.193,0,2.702-0.156,3.545-0.156c0.21,0,0.351,0.117,0.351,0.351    c0,1.014-2.07,0.312-2.07,3.159v22.582c0,1.131-0.035,1.677-0.316,1.677c-0.245,0-0.597-0.195-1.333-1.092l-15.092-18.876    c-0.07-0.078-0.491-0.741-0.736-0.741c-0.141,0-0.246,0.117-0.246,0.897v15.952c0,3.51,3.089,2.145,3.089,3.198    c0,0.195-0.035,0.507-0.387,0.507c-0.842,0-1.824-0.156-3.544-0.156c-1.229,0-3.054,0.156-3.299,0.156    c-0.422,0-0.457-0.234-0.457-0.429c0-1.365,3.089,0.351,3.089-5.109V26.784z"/>
			<path style="fill:#020202;" d="M248.042,30.45c0,1.326-0.07,1.326,1.333,1.326h3.79c3.65,0,2.703-3.12,3.545-3.12    c0.281,0,0.386,0.429,0.386,0.741c0,1.365-0.069,2.691-0.069,3.939c0,1.014,0.069,2.028,0.069,3.081    c0,0.351-0.14,0.507-0.386,0.507c-1.088,0,0.105-3.432-2.843-3.432h-5.194c-0.736,0-0.631,0.663-0.631,1.248v7.176    c0,2.301-0.281,3.237,2.667,3.237c8.107,0,9.3-4.017,9.756-4.017c0.246,0,0.281,0.39,0.281,0.468c0,1.404-0.912,2.769-1.755,3.783    c-1.123,1.404-1.896,1.326-3.439,1.326c-2.667,0-5.334-0.234-8.002-0.156c-1.403,0.039-2.877,0.156-4.281,0.156    c-0.315,0-0.526-0.078-0.526-0.39c0.07-0.468,0.421-0.39,1.544-1.014c0.913-0.468,0.982-1.56,0.982-3.393V24.132    c0-1.755,0-3.627-1.895-3.939c-0.281-0.078-1.053-0.156-1.053-0.624c0-0.312,0.21-0.468,1.229-0.468    c6.633,0,8.457,0.156,9.932,0.156c0.702,0,3.931-0.156,5.019-0.156c0.28,0,0.351,0.39,0.351,0.858    c0,4.329-0.491,4.641-0.701,4.641c-0.843,0-0.281-1.872-0.843-2.769c-0.912-1.326-4.562-1.092-5.966-1.092    c-3.369,0-3.299-0.156-3.299,2.457V30.45z"/>
			<path style="fill:#020202;" d="M264.118,23.274c0-3.979-2.878-2.73-2.878-3.783c0-0.273,0.28-0.39,0.491-0.39    c1.088,0,2.105,0.156,3.158,0.156c2.316,0,4.598-0.156,7.616-0.156c6.212,0,12.318,5.226,12.318,12.441    c0,8.97-3.825,15.172-13.547,15.172c-1.79,0-3.58-0.156-5.369-0.156c-0.316,0-3.686,0.156-3.931,0.156    c-0.281,0-0.352-0.156-0.352-0.39c0-0.897,2.492,0.078,2.492-3.627V23.274z M266.891,41.059c0,0.624-0.105,2.496,0.21,2.847    c1.158,1.287,3.826,1.755,5.405,1.755c4.983,0,9.722-2.964,9.722-11.974c0-8.658-5.194-13.572-11.862-13.611    c-3.334,0-3.475,0.624-3.475,2.457V41.059z"/>
			<path style="fill:#020202;" d="M285.529,21.558c-0.913-1.677-2.632-1.209-2.632-1.872c0-0.273,0.21-0.585,0.456-0.585    c0.947,0,1.614,0.156,4.001,0.156c1.158,0,2.105-0.156,2.456-0.156c0.246,0,0.667,0.039,0.667,0.39    c0,0.663-1.649,0.702-1.649,1.833c0,0.624,0.421,1.248,0.632,1.599l4.246,7.527c0.281,0.468,0.491,0.702,0.702,0.702    c0.176,0,0.386-0.273,0.667-0.78l3.614-6.513c0.246-0.429,0.737-1.092,0.737-2.145c0-1.911-2.632-1.092-2.632-2.028    c0-0.507,0.351-0.585,0.736-0.585c0.843,0,1.72,0.156,2.562,0.156c1.018,0,2.035-0.156,3.053-0.156    c0.211,0,0.387,0.273,0.387,0.468c0,0.429-0.597,0.585-0.843,0.741c-0.947,0.624-1.403,1.716-1.965,2.691l-4.914,8.502    c-0.561,0.975-0.842,1.17-0.842,1.755v9.555c0,3.393,2.878,2.301,2.878,3.51c0,0.351-0.316,0.39-0.808,0.39    c-0.526,0-2.561-0.156-3.86-0.156c-1.579,0-2.843,0.156-3.158,0.156c-0.316,0-0.526-0.039-0.526-0.468    c0-1.092,2.702-0.078,2.702-2.847V33.96c0-0.741-0.526-1.521-0.808-1.989L285.529,21.558z"/>
		</g>
		<line style="fill:none;stroke:#69BBE9;stroke-width:3;" x1="24.447" y1="57.783" x2="288.119" y2="57.783"/>
		<g>
			<path style="fill:#020202;" d="M10.283,72.346c0-0.479-0.028-0.82-0.083-1.025c-0.055-0.205-0.155-0.378-0.299-0.52    s-0.382-0.244-0.714-0.309c-0.01,0-0.017-0.002-0.022-0.007H9.151c-0.289-0.049-0.433-0.158-0.433-0.329    c0-0.098,0.031-0.175,0.094-0.231c0.063-0.056,0.149-0.084,0.26-0.084c0.019,0,0.233,0.021,0.642,0.062    c0.409,0.041,0.805,0.062,1.19,0.062c0.442,0,0.965-0.025,1.569-0.076c0.603-0.052,0.987-0.077,1.15-0.077    c1.092,0,1.951,0.264,2.578,0.791c0.628,0.527,0.941,1.24,0.941,2.139c0,0.869-0.292,1.591-0.876,2.164    c-0.585,0.574-1.317,0.86-2.196,0.86c-0.471,0-0.845-0.052-1.121-0.157c-0.277-0.104-0.415-0.247-0.415-0.429    c0-0.053,0.02-0.101,0.061-0.143c0.041-0.041,0.093-0.062,0.155-0.062c0.01,0,0.085,0.013,0.227,0.037    c0.141,0.024,0.285,0.037,0.429,0.037c0.62,0,1.088-0.169,1.403-0.506c0.314-0.337,0.472-0.837,0.472-1.502    c0-0.775-0.206-1.398-0.616-1.867c-0.412-0.469-0.961-0.703-1.648-0.703c-0.365,0-0.615,0.096-0.746,0.285    c-0.133,0.191-0.199,0.691-0.199,1.502v5.926c0,0.4,0.054,0.721,0.162,0.963c0.109,0.241,0.276,0.421,0.502,0.538    c0.043,0.02,0.091,0.038,0.144,0.055c0.053,0.018,0.132,0.038,0.238,0.062l0.022,0.007c0.284,0.069,0.426,0.187,0.426,0.352    c0,0.117-0.029,0.202-0.087,0.253c-0.058,0.052-0.151,0.077-0.281,0.077c-0.029,0-0.243-0.021-0.642-0.066    c-0.399-0.043-0.786-0.065-1.161-0.065c-0.385,0-0.803,0.022-1.255,0.065C9.687,80.469,9.43,80.49,9.367,80.49    c-0.111,0-0.197-0.023-0.26-0.069c-0.063-0.047-0.094-0.111-0.094-0.194c0-0.098,0.024-0.176,0.072-0.234    c0.048-0.059,0.159-0.127,0.332-0.205c0.024-0.015,0.067-0.038,0.13-0.069c0.063-0.032,0.111-0.058,0.144-0.077    c0.207-0.132,0.357-0.312,0.451-0.542c0.094-0.229,0.141-0.521,0.141-0.872V72.346z"/>
			<path style="fill:#020202;" d="M19.486,72.346c0-0.503-0.028-0.852-0.083-1.047c-0.055-0.195-0.15-0.361-0.285-0.498    c-0.139-0.142-0.368-0.244-0.685-0.309c-0.014,0-0.026-0.002-0.036-0.007h-0.014c-0.289-0.049-0.433-0.158-0.433-0.329    c0-0.098,0.033-0.173,0.097-0.224c0.065-0.052,0.158-0.077,0.278-0.077c0.034,0,0.127,0.008,0.281,0.021    c0.587,0.059,1.132,0.088,1.637,0.088c0.255,0,0.685-0.022,1.291-0.069c0.606-0.046,1.082-0.069,1.428-0.069    c1.106,0,1.958,0.244,2.557,0.732c0.599,0.488,0.898,1.185,0.898,2.088c0,0.6-0.158,1.098-0.472,1.494    c-0.315,0.395-0.797,0.703-1.446,0.922c0.087,0.045,0.168,0.111,0.245,0.202c0.077,0.09,0.166,0.233,0.267,0.429l1.493,2.805    c0.221,0.4,0.405,0.665,0.552,0.795c0.146,0.129,0.318,0.193,0.515,0.193c0.058,0,0.13-0.004,0.216-0.014s0.142-0.016,0.166-0.016    c0.072,0,0.125,0.017,0.159,0.048c0.034,0.032,0.05,0.087,0.05,0.165c0,0.186-0.165,0.361-0.494,0.527    c-0.329,0.166-0.689,0.249-1.078,0.249c-0.442,0-0.851-0.196-1.226-0.59c-0.375-0.393-0.803-1.09-1.284-2.091l-0.079-0.176    c-0.524-1.113-0.866-1.74-1.024-1.883c-0.106-0.092-0.226-0.158-0.361-0.197c-0.135-0.039-0.375-0.059-0.721-0.059    c-0.245,0-0.41,0.037-0.494,0.109c-0.085,0.074-0.126,0.213-0.126,0.418v2.205c0,0.4,0.053,0.721,0.159,0.963    c0.106,0.241,0.272,0.421,0.498,0.538c0.067,0.034,0.176,0.071,0.325,0.11c0.019,0.005,0.031,0.007,0.036,0.007l0.014,0.007    c0.279,0.069,0.418,0.187,0.418,0.352c0,0.123-0.026,0.208-0.079,0.257s-0.144,0.073-0.274,0.073    c-0.043,0-0.262-0.021-0.656-0.066c-0.394-0.043-0.767-0.065-1.118-0.065c-0.385,0-0.805,0.022-1.262,0.065    c-0.457,0.045-0.712,0.066-0.765,0.066c-0.111,0-0.197-0.023-0.26-0.069c-0.063-0.047-0.094-0.111-0.094-0.194    c0-0.098,0.024-0.176,0.072-0.234s0.159-0.127,0.332-0.205c0.024-0.015,0.067-0.038,0.13-0.069    c0.063-0.032,0.111-0.058,0.144-0.077c0.207-0.132,0.357-0.312,0.451-0.542c0.094-0.229,0.141-0.521,0.141-0.872V72.346z     M21.304,74.074c0,0.327,0.069,0.528,0.205,0.604c0.138,0.075,0.449,0.113,0.934,0.113c0.789,0,1.347-0.138,1.677-0.414    c0.329-0.275,0.494-0.733,0.494-1.373c0-0.791-0.214-1.413-0.642-1.868c-0.428-0.453-1.017-0.681-1.767-0.681    c-0.337,0-0.571,0.079-0.703,0.238c-0.133,0.158-0.199,0.479-0.199,0.963V74.074z"/>
			<path style="fill:#020202;" d="M30.139,72.346c0-0.498-0.029-0.845-0.087-1.04s-0.161-0.363-0.31-0.505    c-0.091-0.083-0.196-0.149-0.314-0.198c-0.118-0.049-0.285-0.088-0.502-0.117h-0.014c-0.303-0.054-0.454-0.163-0.454-0.329    c0-0.098,0.034-0.175,0.101-0.231c0.067-0.056,0.161-0.084,0.281-0.084c0.019,0,0.087,0.005,0.202,0.015    c0.755,0.073,1.539,0.109,2.351,0.109c0.841,0,1.726-0.018,2.654-0.055c0.928-0.036,1.438-0.055,1.529-0.055    c0.274,0,0.441,0.032,0.502,0.096c0.06,0.063,0.09,0.207,0.09,0.432v0.314c0,0.357,0.005,0.73,0.014,1.121    c0,0.083,0,0.135,0,0.154c0,0.122-0.017,0.202-0.05,0.241c-0.034,0.039-0.096,0.059-0.188,0.059c-0.159,0-0.249-0.116-0.27-0.348    c-0.022-0.232-0.059-0.407-0.112-0.524c-0.149-0.312-0.409-0.531-0.779-0.658s-0.933-0.191-1.688-0.191    c-0.447,0-0.759,0.064-0.934,0.191c-0.176,0.127-0.263,0.352-0.263,0.674v2.344c0,0.225,0.049,0.386,0.148,0.482    c0.099,0.099,0.261,0.146,0.487,0.146h0.476c0.337,0,0.602-0.038,0.797-0.117c0.195-0.077,0.362-0.209,0.502-0.395    c0.067-0.093,0.142-0.234,0.224-0.426c0.125-0.287,0.262-0.432,0.411-0.432c0.082,0,0.142,0.024,0.18,0.073    s0.058,0.13,0.058,0.241c0,0.016-0.005,0.062-0.014,0.14c-0.029,0.332-0.043,0.667-0.043,1.003c0,0.538,0.031,1.1,0.094,1.686    c0.014,0.146,0.022,0.234,0.022,0.264c0,0.098-0.022,0.169-0.065,0.216c-0.043,0.046-0.106,0.069-0.188,0.069    c-0.159,0-0.257-0.132-0.296-0.396c-0.029-0.19-0.063-0.342-0.101-0.454c-0.111-0.293-0.272-0.497-0.483-0.611    c-0.212-0.115-0.548-0.172-1.01-0.172h-0.577c-0.24,0-0.404,0.052-0.49,0.157c-0.087,0.104-0.13,0.333-0.13,0.685v2.336    c0,0.621,0.077,1.007,0.231,1.158s0.471,0.227,0.952,0.227c0.49,0,0.975-0.079,1.454-0.238c0.478-0.158,0.869-0.369,1.172-0.633    c0.212-0.176,0.397-0.398,0.555-0.667s0.284-0.403,0.375-0.403c0.063,0,0.113,0.028,0.151,0.085    c0.038,0.056,0.058,0.128,0.058,0.216c0,0.195-0.055,0.459-0.166,0.791s-0.248,0.615-0.411,0.85    c-0.202,0.293-0.461,0.508-0.776,0.645c-0.315,0.137-0.705,0.205-1.172,0.205c-0.202,0-0.611-0.021-1.226-0.066    c-0.615-0.043-1.128-0.065-1.536-0.065c-0.5,0-1.011,0.022-1.533,0.065c-0.522,0.045-0.79,0.066-0.804,0.066    c-0.111,0-0.197-0.023-0.26-0.069c-0.063-0.047-0.094-0.111-0.094-0.194c0-0.098,0.024-0.176,0.072-0.234s0.159-0.127,0.332-0.205    c0.024-0.015,0.067-0.038,0.13-0.069c0.063-0.032,0.111-0.058,0.144-0.077c0.207-0.132,0.357-0.312,0.451-0.542    c0.094-0.229,0.141-0.521,0.141-0.872V72.346z"/>
			<path style="fill:#020202;" d="M38.563,79.545l-0.476-2.16c-0.014-0.059-0.028-0.114-0.039-0.168    c-0.013-0.054-0.018-0.086-0.018-0.096c0-0.137,0.022-0.229,0.065-0.278c0.043-0.049,0.12-0.073,0.231-0.073    c0.111,0,0.224,0.165,0.339,0.494c0.115,0.33,0.248,0.632,0.397,0.904c0.308,0.553,0.684,0.985,1.129,1.301    c0.445,0.314,0.901,0.473,1.367,0.473c0.591,0,1.077-0.184,1.457-0.55s0.57-0.845,0.57-1.436c0-0.742-0.731-1.433-2.193-2.073    l-0.231-0.102l-0.014-0.008c-1.938-0.84-2.907-1.906-2.907-3.201c0-0.805,0.275-1.483,0.826-2.035    c0.551-0.552,1.244-0.828,2.081-0.828c0.428,0,0.873,0.086,1.334,0.256c0.462,0.172,0.755,0.257,0.88,0.257    c0.139,0,0.271-0.033,0.393-0.099c0.123-0.066,0.199-0.1,0.227-0.1c0.096,0,0.164,0.025,0.205,0.074s0.062,0.134,0.062,0.256    c0,0.054-0.005,0.138-0.014,0.253c-0.01,0.114-0.014,0.206-0.014,0.274c0,0.244,0.035,0.587,0.105,1.029    c0.069,0.441,0.104,0.743,0.104,0.904c0,0.122-0.017,0.205-0.05,0.249c-0.034,0.044-0.091,0.065-0.173,0.065    c-0.149,0-0.269-0.162-0.361-0.486c-0.091-0.325-0.221-0.634-0.389-0.927c-0.255-0.42-0.598-0.755-1.028-1.003    c-0.43-0.25-0.881-0.374-1.352-0.374c-0.476,0-0.868,0.141-1.176,0.421c-0.308,0.281-0.462,0.632-0.462,1.051    c0,0.41,0.147,0.759,0.44,1.044c0.293,0.286,0.837,0.583,1.63,0.89c0.087,0.035,0.221,0.086,0.404,0.154    c0.966,0.376,1.604,0.716,1.911,1.018c0.289,0.284,0.508,0.623,0.66,1.019c0.151,0.396,0.227,0.83,0.227,1.304    c0,1.011-0.299,1.829-0.898,2.453c-0.598,0.626-1.379,0.938-2.34,0.938c-0.394,0-0.843-0.083-1.345-0.248    c-0.503-0.166-0.812-0.259-0.927-0.279c-0.019-0.004-0.045-0.009-0.076-0.014c-0.031-0.005-0.056-0.01-0.075-0.016    c-0.255-0.029-0.411-0.188-0.469-0.476c-0.005-0.01-0.009-0.017-0.011-0.022C38.564,79.57,38.563,79.56,38.563,79.545z"/>
			<path style="fill:#020202;" d="M47.499,72.346c0-0.557-0.03-0.929-0.09-1.117c-0.06-0.188-0.169-0.345-0.328-0.473    c-0.159-0.111-0.402-0.199-0.728-0.264c-0.014,0-0.029-0.002-0.043-0.007c-0.202-0.02-0.335-0.054-0.401-0.103    c-0.064-0.049-0.097-0.125-0.097-0.227c0-0.098,0.033-0.175,0.097-0.231c0.065-0.056,0.155-0.084,0.271-0.084    c0.024,0,0.089,0.007,0.195,0.022c0.433,0.059,0.846,0.088,1.241,0.088c0.899,0,1.707-0.037,2.423-0.11    c0.087-0.01,0.135-0.015,0.144-0.015c0.101,0,0.178,0.024,0.231,0.073c0.053,0.049,0.079,0.12,0.079,0.212    c0,0.146-0.124,0.257-0.372,0.33c-0.248,0.073-0.419,0.159-0.515,0.256c-0.12,0.123-0.207,0.296-0.26,0.521    c-0.053,0.225-0.079,0.552-0.079,0.981v5.984c0,0.424,0.063,0.762,0.188,1.01c0.125,0.25,0.315,0.418,0.57,0.506    c0.082,0.024,0.212,0.054,0.389,0.088c0.034,0.01,0.055,0.015,0.065,0.015c0.231,0.039,0.38,0.084,0.447,0.136    c0.067,0.051,0.101,0.126,0.101,0.223c0,0.113-0.034,0.196-0.101,0.25c-0.067,0.053-0.171,0.08-0.31,0.08    c-0.111,0-0.394-0.021-0.851-0.066c-0.457-0.043-0.858-0.065-1.205-0.065c-0.351,0-0.748,0.022-1.19,0.065    c-0.442,0.045-0.704,0.066-0.786,0.066c-0.111,0-0.199-0.024-0.263-0.073c-0.065-0.049-0.098-0.112-0.098-0.19    c0-0.098,0.025-0.176,0.075-0.234c0.051-0.059,0.17-0.127,0.357-0.205c0.043-0.024,0.102-0.055,0.176-0.092    c0.075-0.036,0.124-0.06,0.148-0.069c0.168-0.093,0.297-0.259,0.386-0.498s0.134-0.539,0.134-0.901V72.346z"/>
			<path style="fill:#020202;" d="M52.944,72.199c0-0.483-0.046-0.825-0.137-1.025c-0.091-0.2-0.257-0.368-0.498-0.506    c-0.125-0.072-0.326-0.131-0.602-0.176c-0.276-0.043-0.414-0.146-0.414-0.307c0-0.098,0.037-0.175,0.112-0.231    c0.075-0.056,0.179-0.084,0.314-0.084c0.043,0,0.233,0.016,0.57,0.048c0.337,0.031,0.654,0.047,0.952,0.047    c0.25,0,0.513-0.007,0.79-0.021c0.276-0.015,0.622-0.039,1.035-0.073c0.024,0,0.067-0.002,0.13-0.007    c0.519-0.034,0.892-0.052,1.118-0.052c1.89,0,3.342,0.42,4.356,1.26s1.522,2.031,1.522,3.574c0,1.66-0.56,3.042-1.681,4.146    s-2.539,1.655-4.255,1.655c-0.197,0-0.509-0.015-0.934-0.044c-0.426-0.029-0.754-0.044-0.985-0.044c-0.837,0-1.57,0.054-2.2,0.161    c-0.072,0.015-0.113,0.021-0.123,0.021c-0.082,0-0.156-0.03-0.224-0.091c-0.067-0.062-0.101-0.131-0.101-0.209    c0-0.151,0.137-0.293,0.411-0.425h0.007l0.267-0.132c0.202-0.112,0.347-0.271,0.437-0.476c0.088-0.205,0.133-0.481,0.133-0.828    V72.199z M54.733,77.611c0,0.899,0.12,1.481,0.361,1.747c0.24,0.267,0.678,0.399,1.313,0.399c1.183,0,2.133-0.406,2.849-1.22    c0.716-0.812,1.075-1.9,1.075-3.263c0-1.406-0.387-2.554-1.161-3.442S57.39,70.5,56.154,70.5c-0.567,0-0.946,0.084-1.136,0.253    c-0.19,0.168-0.285,0.551-0.285,1.146V77.611z"/>
			<path style="fill:#020202;" d="M64.556,72.346c0-0.498-0.029-0.845-0.087-1.04s-0.161-0.363-0.31-0.505    c-0.091-0.083-0.196-0.149-0.314-0.198c-0.118-0.049-0.285-0.088-0.502-0.117H63.33c-0.303-0.054-0.454-0.163-0.454-0.329    c0-0.098,0.034-0.175,0.101-0.231c0.067-0.056,0.161-0.084,0.281-0.084c0.019,0,0.087,0.005,0.202,0.015    c0.755,0.073,1.539,0.109,2.351,0.109c0.841,0,1.726-0.018,2.654-0.055c0.928-0.036,1.438-0.055,1.529-0.055    c0.274,0,0.441,0.032,0.502,0.096c0.06,0.063,0.09,0.207,0.09,0.432v0.314c0,0.357,0.005,0.73,0.014,1.121    c0,0.083,0,0.135,0,0.154c0,0.122-0.017,0.202-0.05,0.241s-0.096,0.059-0.188,0.059c-0.159,0-0.249-0.116-0.27-0.348    c-0.022-0.232-0.059-0.407-0.112-0.524c-0.149-0.312-0.409-0.531-0.779-0.658s-0.933-0.191-1.688-0.191    c-0.447,0-0.759,0.064-0.934,0.191s-0.263,0.352-0.263,0.674v2.344c0,0.225,0.049,0.386,0.148,0.482    c0.099,0.099,0.261,0.146,0.487,0.146h0.476c0.337,0,0.602-0.038,0.797-0.117c0.195-0.077,0.362-0.209,0.502-0.395    c0.067-0.093,0.142-0.234,0.224-0.426c0.125-0.287,0.262-0.432,0.411-0.432c0.082,0,0.142,0.024,0.18,0.073    s0.058,0.13,0.058,0.241c0,0.016-0.005,0.062-0.014,0.14c-0.029,0.332-0.043,0.667-0.043,1.003c0,0.538,0.031,1.1,0.094,1.686    c0.014,0.146,0.022,0.234,0.022,0.264c0,0.098-0.022,0.169-0.065,0.216c-0.043,0.046-0.106,0.069-0.188,0.069    c-0.159,0-0.257-0.132-0.296-0.396c-0.029-0.19-0.063-0.342-0.101-0.454c-0.111-0.293-0.272-0.497-0.483-0.611    c-0.212-0.115-0.548-0.172-1.01-0.172h-0.577c-0.24,0-0.404,0.052-0.49,0.157c-0.087,0.104-0.13,0.333-0.13,0.685v2.336    c0,0.621,0.077,1.007,0.231,1.158s0.471,0.227,0.952,0.227c0.49,0,0.975-0.079,1.454-0.238c0.478-0.158,0.869-0.369,1.172-0.633    c0.212-0.176,0.397-0.398,0.555-0.667s0.284-0.403,0.375-0.403c0.063,0,0.113,0.028,0.151,0.085    c0.038,0.056,0.058,0.128,0.058,0.216c0,0.195-0.055,0.459-0.166,0.791s-0.248,0.615-0.411,0.85    c-0.202,0.293-0.461,0.508-0.776,0.645s-0.705,0.205-1.172,0.205c-0.202,0-0.611-0.021-1.226-0.066    c-0.615-0.043-1.128-0.065-1.536-0.065c-0.5,0-1.011,0.022-1.533,0.065c-0.522,0.045-0.79,0.066-0.804,0.066    c-0.111,0-0.197-0.023-0.26-0.069c-0.063-0.047-0.094-0.111-0.094-0.194c0-0.098,0.024-0.176,0.072-0.234s0.159-0.127,0.332-0.205    c0.024-0.015,0.067-0.038,0.13-0.069c0.063-0.032,0.111-0.058,0.144-0.077c0.207-0.132,0.357-0.312,0.451-0.542    c0.094-0.229,0.141-0.521,0.141-0.872V72.346z"/>
			<path style="fill:#020202;" d="M73.558,76.439v-3.764c0-0.484-0.036-0.873-0.108-1.169c-0.072-0.295-0.185-0.521-0.339-0.677    c-0.106-0.107-0.22-0.191-0.342-0.25c-0.123-0.059-0.28-0.095-0.473-0.109h-0.007c-0.231-0.034-0.346-0.134-0.346-0.301    c0-0.117,0.022-0.198,0.065-0.245c0.043-0.046,0.12-0.069,0.231-0.069c0.048,0,0.1,0.003,0.155,0.008    c0.055,0.005,0.136,0.012,0.241,0.021c0.115,0.024,0.21,0.042,0.285,0.051c0.075,0.011,0.143,0.016,0.206,0.016    c0.087,0,0.18-0.005,0.281-0.016c0.101-0.009,0.231-0.026,0.389-0.051c0.163-0.01,0.288-0.017,0.375-0.021    c0.087-0.005,0.161-0.008,0.224-0.008c0.264,0,0.553,0.19,0.866,0.571l0.05,0.059l5.085,6.196c0.125,0.156,0.24,0.278,0.346,0.366    s0.188,0.132,0.245,0.132c0.072,0,0.124-0.058,0.155-0.172c0.031-0.115,0.047-0.299,0.047-0.553v-3.824    c0-0.575-0.043-0.998-0.13-1.267c-0.087-0.269-0.233-0.471-0.44-0.608c-0.221-0.141-0.494-0.245-0.819-0.311    c-0.324-0.066-0.487-0.172-0.487-0.318c0-0.088,0.027-0.155,0.083-0.202c0.055-0.046,0.136-0.069,0.242-0.069    c0.082,0,0.167,0.004,0.256,0.011c0.088,0.008,0.184,0.021,0.285,0.04c0.13,0.016,0.269,0.026,0.418,0.033    c0.149,0.008,0.308,0.012,0.476,0.012c0.173,0,0.356-0.005,0.548-0.016c0.192-0.009,0.421-0.026,0.685-0.051    c0.115-0.015,0.224-0.025,0.325-0.033c0.101-0.007,0.192-0.011,0.274-0.011c0.111,0,0.188,0.021,0.231,0.062    c0.043,0.041,0.065,0.111,0.065,0.208c0,0.143-0.101,0.251-0.303,0.326c-0.202,0.076-0.351,0.153-0.447,0.23    c-0.183,0.143-0.31,0.32-0.382,0.535s-0.113,0.61-0.123,1.187L81.859,80c0,0.215-0.016,0.373-0.047,0.476    c-0.032,0.103-0.081,0.153-0.148,0.153c-0.163,0-0.394-0.181-0.692-0.541c-0.058-0.074-0.103-0.13-0.137-0.169l-6.066-7.28    c-0.067-0.083-0.137-0.152-0.209-0.209c-0.072-0.056-0.123-0.084-0.151-0.084c-0.058,0-0.101,0.053-0.13,0.157    c-0.029,0.105-0.043,0.263-0.043,0.473v3.501c0,1.089,0.036,1.824,0.108,2.205c0.072,0.381,0.197,0.664,0.375,0.85    c0.135,0.137,0.385,0.236,0.75,0.3h0.014c0.226,0.034,0.375,0.078,0.447,0.132s0.108,0.13,0.108,0.227    c0,0.128-0.023,0.212-0.068,0.253c-0.046,0.042-0.153,0.062-0.321,0.062c-0.029,0-0.216-0.024-0.563-0.073    s-0.676-0.073-0.988-0.073c-0.332,0-0.684,0.022-1.056,0.065c-0.373,0.045-0.576,0.066-0.61,0.066    c-0.091,0-0.161-0.03-0.209-0.092c-0.048-0.061-0.072-0.15-0.072-0.268s0.113-0.209,0.339-0.277l0.014-0.008    c0.005,0,0.019-0.005,0.043-0.015c0.274-0.098,0.462-0.212,0.563-0.345c0.144-0.176,0.255-0.525,0.332-1.051    C73.519,77.911,73.558,77.246,73.558,76.439z"/>
			<path style="fill:#020202;" d="M88.105,71.43c0-0.307-0.052-0.499-0.155-0.574c-0.104-0.076-0.376-0.113-0.819-0.113    c-0.745,0-1.267,0.059-1.565,0.176c-0.298,0.117-0.512,0.324-0.642,0.622c-0.091,0.2-0.176,0.446-0.252,0.739    c-0.087,0.338-0.224,0.506-0.411,0.506c-0.082,0-0.142-0.026-0.18-0.08s-0.058-0.137-0.058-0.25    c0.005-0.033,0.019-0.129,0.043-0.285c0.101-0.596,0.171-1.164,0.209-1.707c0.019-0.282,0.056-0.457,0.112-0.523    c0.055-0.065,0.162-0.099,0.321-0.099c0.063,0,0.366,0.016,0.912,0.048c0.546,0.031,1.054,0.047,1.526,0.047h3.498    c0.49,0,1.023-0.013,1.597-0.04c0.575-0.026,0.908-0.04,0.999-0.04c0.245,0,0.397,0.028,0.454,0.084    c0.058,0.057,0.094,0.172,0.108,0.348l0.123,1.539v0.131c0,0.162-0.012,0.257-0.036,0.286c-0.024,0.029-0.082,0.044-0.173,0.044    c-0.173,0-0.293-0.122-0.361-0.366c-0.053-0.19-0.111-0.349-0.173-0.476c-0.13-0.259-0.331-0.438-0.602-0.539    c-0.272-0.1-0.74-0.15-1.403-0.15h-0.123c-0.534,0-0.853,0.043-0.959,0.129c-0.106,0.085-0.159,0.284-0.159,0.597v6.702    c0,0.415,0.062,0.737,0.184,0.967c0.123,0.229,0.328,0.407,0.617,0.534c0.087,0.034,0.226,0.071,0.418,0.11    c0.014,0.005,0.026,0.007,0.036,0.007l0.022,0.007c0.317,0.074,0.476,0.196,0.476,0.367c0,0.107-0.032,0.187-0.098,0.237    c-0.064,0.052-0.16,0.077-0.285,0.077c-0.067,0-0.336-0.021-0.804-0.066c-0.469-0.043-0.901-0.065-1.295-0.065    c-0.409,0-0.88,0.024-1.414,0.073s-0.853,0.073-0.959,0.073c-0.13,0-0.232-0.028-0.307-0.084    c-0.075-0.057-0.112-0.133-0.112-0.231c0-0.155,0.147-0.271,0.44-0.344h0.007c0.029-0.01,0.091-0.028,0.188-0.055    c0.096-0.027,0.176-0.053,0.238-0.077c0.279-0.117,0.484-0.295,0.617-0.534c0.132-0.239,0.198-0.557,0.198-0.953V71.43z"/>
			<path style="fill:#020202;" d="M96.169,72.346c0-0.557-0.03-0.929-0.09-1.117c-0.06-0.188-0.169-0.345-0.328-0.473    c-0.159-0.111-0.401-0.199-0.728-0.264c-0.014,0-0.029-0.002-0.043-0.007c-0.202-0.02-0.335-0.054-0.401-0.103    c-0.064-0.049-0.097-0.125-0.097-0.227c0-0.098,0.033-0.175,0.097-0.231c0.065-0.056,0.155-0.084,0.271-0.084    c0.024,0,0.089,0.007,0.195,0.022c0.433,0.059,0.846,0.088,1.241,0.088c0.899,0,1.707-0.037,2.423-0.11    c0.087-0.01,0.135-0.015,0.144-0.015c0.101,0,0.178,0.024,0.231,0.073s0.079,0.12,0.079,0.212c0,0.146-0.124,0.257-0.372,0.33    s-0.419,0.159-0.515,0.256c-0.12,0.123-0.207,0.296-0.26,0.521c-0.053,0.225-0.079,0.552-0.079,0.981v5.984    c0,0.424,0.063,0.762,0.188,1.01c0.125,0.25,0.315,0.418,0.57,0.506c0.082,0.024,0.212,0.054,0.389,0.088    c0.034,0.01,0.055,0.015,0.065,0.015c0.231,0.039,0.38,0.084,0.447,0.136c0.067,0.051,0.101,0.126,0.101,0.223    c0,0.113-0.034,0.196-0.101,0.25c-0.067,0.053-0.171,0.08-0.31,0.08c-0.111,0-0.394-0.021-0.851-0.066    c-0.457-0.043-0.858-0.065-1.205-0.065c-0.351,0-0.748,0.022-1.19,0.065c-0.442,0.045-0.704,0.066-0.786,0.066    c-0.111,0-0.199-0.024-0.263-0.073c-0.065-0.049-0.098-0.112-0.098-0.19c0-0.098,0.025-0.176,0.075-0.234    c0.051-0.059,0.17-0.127,0.357-0.205c0.043-0.024,0.102-0.055,0.176-0.092c0.075-0.036,0.124-0.06,0.148-0.069    c0.168-0.093,0.297-0.259,0.386-0.498c0.089-0.239,0.134-0.539,0.134-0.901V72.346z"/>
			<path style="fill:#020202;" d="M101.679,78.314l3.722-8.503v-0.007c0.058-0.133,0.135-0.198,0.231-0.198    c0.053,0,0.105,0.024,0.155,0.073c0.051,0.049,0.093,0.112,0.126,0.19l3.772,8.942c0.12,0.289,0.246,0.502,0.379,0.642    c0.132,0.139,0.299,0.245,0.501,0.318c0.038,0.015,0.096,0.032,0.173,0.052c0.019,0.005,0.031,0.007,0.036,0.007l0.007,0.007    c0.221,0.069,0.332,0.187,0.332,0.352c0,0.117-0.016,0.194-0.047,0.231c-0.031,0.036-0.104,0.055-0.22,0.055    c-0.077,0-0.348-0.022-0.811-0.065c-0.464-0.045-0.886-0.066-1.266-0.066c-0.543,0-1.099,0.041-1.666,0.125    c-0.115,0.014-0.185,0.021-0.209,0.021c-0.067,0-0.124-0.029-0.17-0.088c-0.046-0.059-0.068-0.134-0.068-0.227    c0-0.098,0.111-0.203,0.332-0.315c0.019-0.01,0.034-0.017,0.043-0.022c0.264-0.102,0.445-0.218,0.541-0.348    c0.096-0.129,0.144-0.289,0.144-0.479c0-0.103-0.012-0.211-0.036-0.326c-0.024-0.114-0.06-0.226-0.108-0.333l-0.418-1.011    c-0.106-0.264-0.215-0.437-0.328-0.521c-0.113-0.082-0.342-0.124-0.689-0.124h-0.159h-1.926c-0.423,0-0.697,0.044-0.822,0.132    s-0.233,0.259-0.325,0.513l-0.404,1.143c-0.038,0.107-0.067,0.203-0.087,0.286s-0.029,0.158-0.029,0.227    c0,0.22,0.083,0.399,0.249,0.538c0.165,0.14,0.422,0.243,0.768,0.312c0.005,0.005,0.012,0.009,0.022,0.011    c0.01,0.003,0.026,0.004,0.05,0.004c0.221,0.044,0.363,0.089,0.426,0.136c0.063,0.046,0.094,0.111,0.094,0.193    c0,0.108-0.029,0.188-0.087,0.238c-0.058,0.052-0.142,0.077-0.252,0.077c-0.048,0-0.286-0.024-0.714-0.073    s-0.825-0.073-1.19-0.073c-0.284,0-0.567,0.022-0.851,0.065c-0.284,0.045-0.428,0.066-0.433,0.066    c-0.106,0-0.187-0.025-0.241-0.077c-0.056-0.051-0.083-0.125-0.083-0.224c0-0.136,0.108-0.248,0.325-0.336    c0.13-0.049,0.228-0.096,0.296-0.14c0.159-0.107,0.301-0.255,0.429-0.443C101.319,79.083,101.481,78.765,101.679,78.314z     M104.304,75.949h1.702c0.154,0,0.27-0.017,0.35-0.051c0.079-0.034,0.119-0.083,0.119-0.146c0-0.029-0.012-0.087-0.036-0.173    c-0.024-0.085-0.055-0.177-0.094-0.274l-1.053-2.541c-0.034-0.088-0.07-0.156-0.108-0.205s-0.075-0.074-0.108-0.074    c-0.043,0-0.084,0.021-0.123,0.059c-0.038,0.04-0.072,0.094-0.101,0.162l-1.111,2.644c-0.029,0.073-0.053,0.146-0.072,0.216    c-0.019,0.071-0.029,0.124-0.029,0.158c0,0.088,0.043,0.147,0.13,0.179C103.857,75.933,104.035,75.949,104.304,75.949z"/>
			<path style="fill:#020202;" d="M113.225,72.346c0-0.479-0.031-0.819-0.094-1.021c-0.063-0.203-0.171-0.377-0.325-0.523    c-0.091-0.083-0.196-0.149-0.314-0.198c-0.118-0.049-0.28-0.088-0.487-0.117h-0.007c-0.308-0.054-0.462-0.163-0.462-0.329    c0-0.098,0.033-0.175,0.097-0.231c0.065-0.056,0.155-0.084,0.271-0.084c0.038,0,0.272,0.021,0.7,0.062    c0.428,0.041,0.837,0.062,1.226,0.062c0.567,0,1.168-0.036,1.803-0.109c0.159-0.02,0.255-0.029,0.288-0.029    c0.091,0,0.161,0.025,0.209,0.077c0.048,0.051,0.072,0.12,0.072,0.208c0,0.074-0.021,0.134-0.061,0.18    c-0.041,0.047-0.131,0.097-0.271,0.15c-0.014,0.005-0.038,0.015-0.072,0.029c-0.178,0.078-0.313,0.159-0.404,0.242    c-0.149,0.131-0.254,0.288-0.314,0.469s-0.09,0.52-0.09,1.018v6.057c0,0.65,0.079,1.043,0.238,1.18s0.469,0.205,0.93,0.205    c0.495,0,0.982-0.079,1.46-0.238c0.478-0.158,0.869-0.369,1.172-0.633c0.207-0.181,0.388-0.404,0.544-0.671    c0.156-0.266,0.28-0.399,0.372-0.399c0.063,0,0.114,0.029,0.155,0.088c0.04,0.059,0.061,0.13,0.061,0.213    c0,0.195-0.055,0.459-0.166,0.791c-0.111,0.332-0.245,0.615-0.404,0.85c-0.202,0.288-0.463,0.502-0.783,0.641    c-0.32,0.14-0.715,0.209-1.186,0.209c-0.202,0-0.608-0.021-1.219-0.066c-0.611-0.043-1.12-0.065-1.529-0.065    c-0.5,0-1.011,0.022-1.533,0.065c-0.522,0.045-0.787,0.066-0.797,0.066c-0.115,0-0.207-0.023-0.274-0.069    c-0.067-0.047-0.101-0.111-0.101-0.194c0-0.098,0.024-0.176,0.072-0.234c0.048-0.059,0.159-0.127,0.332-0.205    c0.01-0.005,0.049-0.024,0.119-0.059c0.07-0.034,0.129-0.063,0.177-0.088c0.202-0.132,0.351-0.312,0.447-0.542    c0.096-0.229,0.144-0.521,0.144-0.872V72.346z"/>
			<path style="fill:#020202;" d="M126.237,72.346c0-0.479-0.031-0.819-0.094-1.021c-0.063-0.203-0.171-0.377-0.325-0.523    c-0.091-0.083-0.196-0.149-0.314-0.198c-0.118-0.049-0.28-0.088-0.487-0.117h-0.007c-0.308-0.054-0.462-0.163-0.462-0.329    c0-0.098,0.033-0.175,0.097-0.231c0.065-0.056,0.155-0.084,0.271-0.084c0.038,0,0.272,0.021,0.7,0.062    c0.428,0.041,0.837,0.062,1.226,0.062c0.567,0,1.168-0.036,1.803-0.109c0.159-0.02,0.255-0.029,0.288-0.029    c0.091,0,0.161,0.025,0.209,0.077c0.048,0.051,0.072,0.12,0.072,0.208c0,0.074-0.021,0.134-0.061,0.18    c-0.041,0.047-0.131,0.097-0.271,0.15c-0.014,0.005-0.038,0.015-0.072,0.029c-0.178,0.078-0.313,0.159-0.404,0.242    c-0.149,0.131-0.254,0.288-0.314,0.469s-0.09,0.52-0.09,1.018v6.057c0,0.65,0.079,1.043,0.238,1.18s0.469,0.205,0.93,0.205    c0.495,0,0.982-0.079,1.46-0.238c0.478-0.158,0.869-0.369,1.172-0.633c0.207-0.181,0.388-0.404,0.544-0.671    c0.156-0.266,0.28-0.399,0.372-0.399c0.063,0,0.114,0.029,0.155,0.088c0.04,0.059,0.061,0.13,0.061,0.213    c0,0.195-0.055,0.459-0.166,0.791s-0.245,0.615-0.404,0.85c-0.202,0.288-0.463,0.502-0.783,0.641    c-0.32,0.14-0.715,0.209-1.186,0.209c-0.202,0-0.608-0.021-1.219-0.066c-0.611-0.043-1.12-0.065-1.529-0.065    c-0.5,0-1.011,0.022-1.533,0.065c-0.522,0.045-0.787,0.066-0.797,0.066c-0.115,0-0.207-0.023-0.274-0.069    c-0.067-0.047-0.101-0.111-0.101-0.194c0-0.098,0.024-0.176,0.072-0.234s0.159-0.127,0.332-0.205    c0.01-0.005,0.049-0.024,0.119-0.059c0.07-0.034,0.129-0.063,0.177-0.088c0.202-0.132,0.351-0.312,0.447-0.542    s0.144-0.521,0.144-0.872V72.346z"/>
			<path style="fill:#020202;" d="M134.949,72.346c0-0.557-0.03-0.929-0.09-1.117c-0.06-0.188-0.169-0.345-0.328-0.473    c-0.159-0.111-0.402-0.199-0.728-0.264c-0.014,0-0.029-0.002-0.043-0.007c-0.202-0.02-0.335-0.054-0.401-0.103    c-0.064-0.049-0.097-0.125-0.097-0.227c0-0.098,0.033-0.175,0.097-0.231c0.065-0.056,0.155-0.084,0.271-0.084    c0.024,0,0.089,0.007,0.195,0.022c0.433,0.059,0.846,0.088,1.241,0.088c0.899,0,1.707-0.037,2.423-0.11    c0.087-0.01,0.135-0.015,0.144-0.015c0.101,0,0.178,0.024,0.231,0.073c0.053,0.049,0.079,0.12,0.079,0.212    c0,0.146-0.124,0.257-0.372,0.33s-0.419,0.159-0.515,0.256c-0.12,0.123-0.207,0.296-0.26,0.521    c-0.053,0.225-0.079,0.552-0.079,0.981v5.984c0,0.424,0.062,0.762,0.188,1.01c0.125,0.25,0.315,0.418,0.57,0.506    c0.082,0.024,0.212,0.054,0.389,0.088c0.034,0.01,0.055,0.015,0.065,0.015c0.231,0.039,0.38,0.084,0.447,0.136    c0.067,0.051,0.101,0.126,0.101,0.223c0,0.113-0.034,0.196-0.101,0.25c-0.067,0.053-0.171,0.08-0.31,0.08    c-0.111,0-0.394-0.021-0.851-0.066c-0.457-0.043-0.858-0.065-1.204-0.065c-0.351,0-0.748,0.022-1.19,0.065    c-0.442,0.045-0.704,0.066-0.786,0.066c-0.111,0-0.199-0.024-0.263-0.073c-0.065-0.049-0.098-0.112-0.098-0.19    c0-0.098,0.025-0.176,0.075-0.234c0.051-0.059,0.17-0.127,0.357-0.205c0.043-0.024,0.102-0.055,0.176-0.092    c0.075-0.036,0.124-0.06,0.148-0.069c0.168-0.093,0.297-0.259,0.386-0.498c0.089-0.239,0.134-0.539,0.134-0.901V72.346z"/>
			<path style="fill:#020202;" d="M140.394,72.346c0-0.498-0.029-0.845-0.087-1.04c-0.058-0.195-0.161-0.363-0.31-0.505    c-0.091-0.083-0.196-0.149-0.314-0.198c-0.118-0.049-0.285-0.088-0.502-0.117h-0.014c-0.303-0.054-0.454-0.163-0.454-0.329    c0-0.098,0.034-0.175,0.101-0.231c0.067-0.056,0.161-0.084,0.281-0.084c0.019,0,0.077,0.005,0.173,0.015    c0.601,0.063,1.219,0.096,1.854,0.096c0.26,0,0.683-0.019,1.269-0.056c0.587-0.036,1.039-0.055,1.356-0.055    c1.092,0,1.946,0.229,2.564,0.688s0.927,1.092,0.927,1.896c0,0.523-0.136,0.959-0.408,1.308c-0.272,0.35-0.693,0.626-1.266,0.831    c0.712,0.04,1.291,0.309,1.738,0.807c0.447,0.498,0.671,1.12,0.671,1.867c0,0.464-0.091,0.907-0.274,1.329    c-0.183,0.423-0.435,0.78-0.757,1.073c-0.341,0.303-0.733,0.52-1.176,0.652c-0.442,0.131-1.046,0.197-1.81,0.197    c-0.337,0-0.666-0.008-0.988-0.021c-0.322-0.016-0.642-0.037-0.959-0.066c-0.082-0.005-0.196-0.014-0.343-0.025    c-0.147-0.013-0.251-0.019-0.314-0.019c-0.269,0-0.623,0.022-1.06,0.065c-0.12,0.01-0.207,0.018-0.26,0.022    c-0.12,0.015-0.226,0.025-0.317,0.033c-0.091,0.007-0.171,0.011-0.238,0.011c-0.111,0-0.197-0.023-0.26-0.069    c-0.063-0.047-0.094-0.111-0.094-0.194c0-0.098,0.024-0.176,0.072-0.234s0.159-0.127,0.332-0.205    c0.024-0.015,0.067-0.038,0.13-0.069c0.062-0.032,0.111-0.058,0.144-0.077c0.207-0.132,0.357-0.312,0.451-0.542    c0.094-0.229,0.141-0.521,0.141-0.872V72.346z M142.154,73.701c0,0.332,0.092,0.547,0.277,0.645    c0.185,0.098,0.651,0.146,1.396,0.146c0.611,0,1.046-0.126,1.305-0.378c0.26-0.251,0.389-0.675,0.389-1.271    c0-0.713-0.219-1.286-0.656-1.721s-1.007-0.652-1.709-0.652c-0.375,0-0.636,0.092-0.783,0.274c-0.147,0.184-0.22,0.549-0.22,1.095    V73.701z M142.154,76.205v2.008c0,0.654,0.112,1.085,0.335,1.292c0.224,0.208,0.648,0.312,1.273,0.312    c0.736,0,1.311-0.207,1.727-0.623c0.416-0.414,0.624-0.985,0.624-1.713s-0.255-1.303-0.765-1.726    c-0.51-0.422-1.204-0.634-2.084-0.634c-0.471,0-0.774,0.056-0.909,0.165C142.222,75.396,142.154,75.703,142.154,76.205z"/>
			<path style="fill:#020202;" d="M150.398,72.346c0-0.503-0.028-0.852-0.083-1.047c-0.055-0.195-0.15-0.361-0.285-0.498    c-0.139-0.142-0.368-0.244-0.685-0.309c-0.014,0-0.026-0.002-0.036-0.007h-0.014c-0.288-0.049-0.433-0.158-0.433-0.329    c0-0.098,0.033-0.173,0.097-0.224c0.065-0.052,0.158-0.077,0.278-0.077c0.034,0,0.127,0.008,0.281,0.021    c0.587,0.059,1.132,0.088,1.637,0.088c0.255,0,0.685-0.022,1.291-0.069c0.606-0.046,1.081-0.069,1.427-0.069    c1.106,0,1.96,0.244,2.558,0.732c0.598,0.488,0.898,1.185,0.898,2.088c0,0.6-0.158,1.098-0.473,1.494    c-0.315,0.395-0.796,0.703-1.446,0.922c0.087,0.045,0.169,0.111,0.246,0.202c0.077,0.09,0.165,0.233,0.265,0.429l1.494,2.805    c0.221,0.4,0.404,0.665,0.552,0.795c0.146,0.129,0.317,0.193,0.515,0.193c0.058,0,0.129-0.004,0.215-0.014    c0.087-0.01,0.142-0.016,0.165-0.016c0.073,0,0.125,0.017,0.16,0.048c0.033,0.032,0.05,0.087,0.05,0.165    c0,0.186-0.163,0.361-0.494,0.527c-0.329,0.166-0.689,0.249-1.077,0.249c-0.442,0-0.852-0.196-1.227-0.59    c-0.375-0.393-0.802-1.09-1.283-2.091l-0.081-0.176c-0.523-1.113-0.866-1.74-1.023-1.883c-0.105-0.092-0.226-0.158-0.361-0.197    c-0.135-0.039-0.375-0.059-0.721-0.059c-0.244,0-0.409,0.037-0.493,0.109c-0.085,0.074-0.126,0.213-0.126,0.418v2.205    c0,0.4,0.053,0.721,0.159,0.963c0.106,0.241,0.272,0.421,0.497,0.538c0.067,0.034,0.175,0.071,0.325,0.11    c0.019,0.005,0.031,0.007,0.037,0.007l0.013,0.007c0.279,0.069,0.419,0.187,0.419,0.352c0,0.123-0.027,0.208-0.081,0.257    c-0.052,0.049-0.144,0.073-0.273,0.073c-0.044,0-0.262-0.021-0.656-0.066c-0.395-0.043-0.767-0.065-1.118-0.065    c-0.385,0-0.805,0.022-1.262,0.065c-0.457,0.045-0.712,0.066-0.765,0.066c-0.111,0-0.197-0.023-0.26-0.069    c-0.063-0.047-0.094-0.111-0.094-0.194c0-0.098,0.024-0.176,0.072-0.234c0.048-0.059,0.159-0.127,0.332-0.205    c0.024-0.015,0.067-0.038,0.13-0.069c0.063-0.032,0.111-0.058,0.144-0.077c0.207-0.132,0.357-0.312,0.451-0.542    c0.094-0.229,0.141-0.521,0.141-0.872V72.346z M152.215,74.074c0,0.327,0.069,0.528,0.205,0.604    c0.137,0.075,0.449,0.113,0.933,0.113c0.788,0,1.348-0.138,1.677-0.414c0.331-0.275,0.494-0.733,0.494-1.373    c0-0.791-0.213-1.413-0.642-1.868c-0.427-0.453-1.016-0.681-1.765-0.681c-0.337,0-0.571,0.079-0.703,0.238    c-0.133,0.158-0.199,0.479-0.199,0.963V74.074z"/>
			<path style="fill:#020202;" d="M161.115,78.314l3.722-8.503v-0.007c0.058-0.133,0.135-0.198,0.231-0.198    c0.053,0,0.105,0.024,0.155,0.073c0.051,0.049,0.092,0.112,0.127,0.19l3.772,8.942c0.12,0.289,0.246,0.502,0.379,0.642    c0.132,0.139,0.299,0.245,0.501,0.318c0.038,0.015,0.096,0.032,0.173,0.052c0.019,0.005,0.031,0.007,0.036,0.007l0.008,0.007    c0.221,0.069,0.332,0.187,0.332,0.352c0,0.117-0.015,0.194-0.047,0.231c-0.031,0.036-0.104,0.055-0.219,0.055    c-0.078,0-0.348-0.022-0.812-0.065c-0.464-0.045-0.887-0.066-1.266-0.066c-0.544,0-1.099,0.041-1.667,0.125    c-0.115,0.014-0.186,0.021-0.209,0.021c-0.068,0-0.124-0.029-0.17-0.088c-0.045-0.059-0.068-0.134-0.068-0.227    c0-0.098,0.111-0.203,0.332-0.315c0.019-0.01,0.034-0.017,0.043-0.022c0.264-0.102,0.444-0.218,0.54-0.348    c0.096-0.129,0.144-0.289,0.144-0.479c0-0.103-0.012-0.211-0.036-0.326c-0.024-0.114-0.061-0.226-0.109-0.333l-0.417-1.011    c-0.107-0.264-0.215-0.437-0.329-0.521c-0.113-0.082-0.342-0.124-0.689-0.124h-0.159h-1.926c-0.423,0-0.697,0.044-0.821,0.132    c-0.126,0.088-0.234,0.259-0.325,0.513l-0.404,1.143c-0.038,0.107-0.067,0.203-0.087,0.286c-0.019,0.083-0.029,0.158-0.029,0.227    c0,0.22,0.083,0.399,0.249,0.538c0.165,0.14,0.422,0.243,0.768,0.312c0.004,0.005,0.012,0.009,0.021,0.011    c0.01,0.003,0.026,0.004,0.05,0.004c0.221,0.044,0.364,0.089,0.426,0.136c0.062,0.046,0.093,0.111,0.093,0.193    c0,0.108-0.029,0.188-0.087,0.238c-0.058,0.052-0.141,0.077-0.252,0.077c-0.048,0-0.287-0.024-0.714-0.073    c-0.429-0.049-0.825-0.073-1.191-0.073c-0.284,0-0.567,0.022-0.851,0.065c-0.284,0.045-0.428,0.066-0.433,0.066    c-0.106,0-0.187-0.025-0.241-0.077c-0.056-0.051-0.083-0.125-0.083-0.224c0-0.136,0.108-0.248,0.324-0.336    c0.13-0.049,0.228-0.096,0.295-0.14c0.16-0.107,0.302-0.255,0.43-0.443C160.756,79.083,160.918,78.765,161.115,78.314z     M163.741,75.949h1.702c0.154,0,0.27-0.017,0.35-0.051c0.079-0.034,0.118-0.083,0.118-0.146c0-0.029-0.012-0.087-0.036-0.173    c-0.024-0.085-0.056-0.177-0.093-0.274l-1.054-2.541c-0.034-0.088-0.069-0.156-0.108-0.205s-0.075-0.074-0.108-0.074    c-0.044,0-0.085,0.021-0.123,0.059c-0.038,0.04-0.072,0.094-0.101,0.162l-1.111,2.644c-0.029,0.073-0.053,0.146-0.072,0.216    c-0.019,0.071-0.029,0.124-0.029,0.158c0,0.088,0.043,0.147,0.13,0.179C163.293,75.933,163.471,75.949,163.741,75.949z"/>
			<path style="fill:#020202;" d="M172.569,72.346c0-0.503-0.028-0.852-0.084-1.047c-0.055-0.195-0.15-0.361-0.285-0.498    c-0.139-0.142-0.368-0.244-0.686-0.309c-0.013,0-0.026-0.002-0.036-0.007h-0.014c-0.288-0.049-0.433-0.158-0.433-0.329    c0-0.098,0.033-0.173,0.097-0.224c0.065-0.052,0.158-0.077,0.278-0.077c0.034,0,0.127,0.008,0.281,0.021    c0.587,0.059,1.133,0.088,1.638,0.088c0.255,0,0.686-0.022,1.292-0.069c0.606-0.046,1.081-0.069,1.427-0.069    c1.106,0,1.959,0.244,2.557,0.732c0.599,0.488,0.898,1.185,0.898,2.088c0,0.6-0.158,1.098-0.472,1.494    c-0.315,0.395-0.797,0.703-1.446,0.922c0.087,0.045,0.168,0.111,0.245,0.202c0.077,0.09,0.166,0.233,0.266,0.429l1.493,2.805    c0.221,0.4,0.405,0.665,0.552,0.795c0.146,0.129,0.318,0.193,0.515,0.193c0.058,0,0.13-0.004,0.216-0.014    c0.087-0.01,0.141-0.016,0.165-0.016c0.073,0,0.125,0.017,0.16,0.048c0.033,0.032,0.05,0.087,0.05,0.165    c0,0.186-0.164,0.361-0.494,0.527c-0.329,0.166-0.689,0.249-1.078,0.249c-0.442,0-0.851-0.196-1.226-0.59    c-0.375-0.393-0.803-1.09-1.284-2.091l-0.08-0.176c-0.524-1.113-0.866-1.74-1.023-1.883c-0.107-0.092-0.227-0.158-0.362-0.197    c-0.135-0.039-0.375-0.059-0.721-0.059c-0.244,0-0.41,0.037-0.493,0.109c-0.085,0.074-0.126,0.213-0.126,0.418v2.205    c0,0.4,0.052,0.721,0.158,0.963c0.106,0.241,0.272,0.421,0.498,0.538c0.067,0.034,0.175,0.071,0.325,0.11    c0.018,0.005,0.031,0.007,0.036,0.007l0.014,0.007c0.279,0.069,0.418,0.187,0.418,0.352c0,0.123-0.027,0.208-0.08,0.257    c-0.053,0.049-0.144,0.073-0.273,0.073c-0.044,0-0.263-0.021-0.657-0.066c-0.394-0.043-0.767-0.065-1.118-0.065    c-0.385,0-0.805,0.022-1.262,0.065c-0.457,0.045-0.712,0.066-0.765,0.066c-0.111,0-0.197-0.023-0.26-0.069    c-0.062-0.047-0.093-0.111-0.093-0.194c0-0.098,0.023-0.176,0.071-0.234s0.16-0.127,0.333-0.205    c0.023-0.015,0.066-0.038,0.129-0.069c0.062-0.032,0.111-0.058,0.144-0.077c0.207-0.132,0.358-0.312,0.451-0.542    c0.094-0.229,0.141-0.521,0.141-0.872V72.346z M174.386,74.074c0,0.327,0.068,0.528,0.205,0.604    c0.138,0.075,0.448,0.113,0.934,0.113c0.789,0,1.348-0.138,1.677-0.414c0.33-0.275,0.494-0.733,0.494-1.373    c0-0.791-0.214-1.413-0.642-1.868c-0.428-0.453-1.016-0.681-1.767-0.681c-0.337,0-0.571,0.079-0.703,0.238    c-0.133,0.158-0.198,0.479-0.198,0.963V74.074z"/>
			<path style="fill:#020202;" d="M185.543,77.422v-1.07c0-0.248-0.064-0.485-0.194-0.71l-0.014-0.029l-2.142-4.014    c-0.136-0.264-0.288-0.493-0.459-0.688c-0.17-0.195-0.328-0.327-0.472-0.396c-0.072-0.029-0.186-0.059-0.339-0.088    c-0.285-0.059-0.426-0.169-0.426-0.329c0-0.093,0.033-0.162,0.097-0.205c0.065-0.045,0.164-0.066,0.3-0.066    c0.018,0,0.087,0.008,0.202,0.021c0.557,0.059,1.115,0.088,1.673,0.088c0.462,0,0.944-0.029,1.449-0.088    c0.13-0.014,0.209-0.021,0.238-0.021c0.144,0,0.239,0.019,0.286,0.055c0.045,0.037,0.068,0.104,0.068,0.201    c0,0.123-0.138,0.234-0.414,0.338c-0.277,0.102-0.414,0.266-0.414,0.49c0,0.073,0.017,0.164,0.054,0.271    c0.036,0.107,0.088,0.222,0.155,0.344l1.651,3.193c0.024,0.044,0.05,0.079,0.076,0.106c0.027,0.026,0.052,0.04,0.076,0.04    c0.034,0,0.066-0.015,0.097-0.044c0.032-0.029,0.066-0.078,0.105-0.146l1.406-2.63c0.01-0.019,0.027-0.051,0.051-0.095    c0.163-0.308,0.245-0.544,0.245-0.71c0-0.191-0.056-0.352-0.165-0.484c-0.112-0.131-0.275-0.227-0.49-0.285    c-0.092-0.024-0.214-0.044-0.368-0.059c-0.274-0.034-0.411-0.134-0.411-0.301c0-0.092,0.027-0.16,0.083-0.205    c0.055-0.043,0.14-0.065,0.256-0.065c0.034,0,0.115,0.007,0.245,0.022c0.466,0.049,0.906,0.072,1.32,0.072    c0.182,0,0.416-0.018,0.703-0.055c0.286-0.036,0.474-0.055,0.566-0.055c0.134,0,0.228,0.02,0.281,0.059    c0.053,0.039,0.079,0.105,0.079,0.197c0,0.152-0.098,0.255-0.295,0.309c-0.072,0.02-0.128,0.036-0.166,0.051    c-0.144,0.059-0.293,0.172-0.446,0.341c-0.155,0.168-0.301,0.38-0.44,0.634l-2.143,3.991c-0.058,0.107-0.098,0.206-0.122,0.297    c-0.024,0.09-0.036,0.196-0.036,0.318v0.088v1.802c0,0.571,0.035,0.963,0.104,1.176c0.07,0.212,0.196,0.382,0.379,0.509    c0.111,0.063,0.293,0.12,0.548,0.169c0.048,0.01,0.082,0.017,0.101,0.021c0.25,0.034,0.414,0.08,0.49,0.139    s0.115,0.143,0.115,0.25s-0.03,0.187-0.09,0.237c-0.06,0.052-0.153,0.077-0.278,0.077c-0.077,0-0.347-0.021-0.811-0.066    c-0.464-0.043-0.889-0.065-1.273-0.065c-0.399,0-0.864,0.024-1.392,0.073c-0.53,0.049-0.852,0.073-0.967,0.073    c-0.129,0-0.232-0.028-0.306-0.084c-0.075-0.057-0.112-0.133-0.112-0.231c0-0.165,0.165-0.285,0.497-0.358h0.007    c0.135-0.02,0.248-0.045,0.339-0.077c0.091-0.031,0.175-0.069,0.253-0.113c0.225-0.127,0.381-0.288,0.464-0.483    c0.085-0.195,0.126-0.559,0.126-1.091V77.422z"/>
			<path style="fill:#020202;" d="M197.602,78.314l3.722-8.503v-0.007c0.058-0.133,0.135-0.198,0.231-0.198    c0.053,0,0.105,0.024,0.155,0.073c0.051,0.049,0.092,0.112,0.127,0.19l3.772,8.942c0.12,0.289,0.246,0.502,0.379,0.642    c0.132,0.139,0.299,0.245,0.501,0.318c0.038,0.015,0.096,0.032,0.173,0.052c0.019,0.005,0.031,0.007,0.036,0.007l0.008,0.007    c0.221,0.069,0.332,0.187,0.332,0.352c0,0.117-0.015,0.194-0.047,0.231c-0.031,0.036-0.104,0.055-0.219,0.055    c-0.078,0-0.348-0.022-0.812-0.065c-0.464-0.045-0.887-0.066-1.266-0.066c-0.544,0-1.099,0.041-1.667,0.125    c-0.115,0.014-0.186,0.021-0.209,0.021c-0.068,0-0.124-0.029-0.17-0.088c-0.045-0.059-0.068-0.134-0.068-0.227    c0-0.098,0.111-0.203,0.332-0.315c0.019-0.01,0.034-0.017,0.043-0.022c0.264-0.102,0.444-0.218,0.54-0.348    c0.096-0.129,0.144-0.289,0.144-0.479c0-0.103-0.012-0.211-0.036-0.326c-0.024-0.114-0.061-0.226-0.109-0.333l-0.417-1.011    c-0.107-0.264-0.215-0.437-0.329-0.521c-0.113-0.082-0.342-0.124-0.689-0.124h-0.159h-1.926c-0.423,0-0.697,0.044-0.821,0.132    c-0.126,0.088-0.234,0.259-0.325,0.513l-0.404,1.143c-0.038,0.107-0.067,0.203-0.087,0.286c-0.019,0.083-0.029,0.158-0.029,0.227    c0,0.22,0.083,0.399,0.249,0.538c0.165,0.14,0.422,0.243,0.768,0.312c0.004,0.005,0.012,0.009,0.021,0.011    c0.01,0.003,0.026,0.004,0.05,0.004c0.221,0.044,0.364,0.089,0.426,0.136c0.062,0.046,0.093,0.111,0.093,0.193    c0,0.108-0.029,0.188-0.087,0.238c-0.058,0.052-0.141,0.077-0.252,0.077c-0.048,0-0.287-0.024-0.714-0.073    c-0.429-0.049-0.825-0.073-1.191-0.073c-0.284,0-0.567,0.022-0.851,0.065c-0.284,0.045-0.428,0.066-0.433,0.066    c-0.106,0-0.187-0.025-0.241-0.077c-0.056-0.051-0.083-0.125-0.083-0.224c0-0.136,0.108-0.248,0.324-0.336    c0.13-0.049,0.228-0.096,0.295-0.14c0.16-0.107,0.302-0.255,0.43-0.443C197.243,79.083,197.405,78.765,197.602,78.314z     M200.228,75.949h1.702c0.154,0,0.27-0.017,0.35-0.051c0.079-0.034,0.118-0.083,0.118-0.146c0-0.029-0.012-0.087-0.036-0.173    c-0.024-0.085-0.056-0.177-0.093-0.274l-1.054-2.541c-0.034-0.088-0.069-0.156-0.108-0.205s-0.075-0.074-0.108-0.074    c-0.044,0-0.085,0.021-0.123,0.059c-0.038,0.04-0.072,0.094-0.101,0.162l-1.111,2.644c-0.029,0.073-0.053,0.146-0.072,0.216    c-0.019,0.071-0.029,0.124-0.029,0.158c0,0.088,0.043,0.147,0.13,0.179C199.781,75.933,199.958,75.949,200.228,75.949z"/>
			<path style="fill:#020202;" d="M209.135,76.439v-3.764c0-0.484-0.037-0.873-0.108-1.169c-0.073-0.295-0.186-0.521-0.339-0.677    c-0.106-0.107-0.22-0.191-0.342-0.25c-0.123-0.059-0.281-0.095-0.472-0.109h-0.008c-0.231-0.034-0.346-0.134-0.346-0.301    c0-0.117,0.021-0.198,0.065-0.245c0.042-0.046,0.119-0.069,0.231-0.069c0.047,0,0.099,0.003,0.155,0.008    c0.055,0.005,0.136,0.012,0.241,0.021c0.115,0.024,0.211,0.042,0.285,0.051c0.075,0.011,0.143,0.016,0.206,0.016    c0.087,0,0.181-0.005,0.281-0.016c0.102-0.009,0.231-0.026,0.39-0.051c0.163-0.01,0.288-0.017,0.375-0.021    c0.087-0.005,0.161-0.008,0.223-0.008c0.264,0,0.553,0.19,0.866,0.571l0.05,0.059l5.085,6.196c0.125,0.156,0.24,0.278,0.346,0.366    s0.188,0.132,0.245,0.132c0.072,0,0.124-0.058,0.155-0.172c0.032-0.115,0.047-0.299,0.047-0.553v-3.824    c0-0.575-0.043-0.998-0.13-1.267s-0.234-0.471-0.44-0.608c-0.221-0.141-0.493-0.245-0.818-0.311    c-0.324-0.066-0.487-0.172-0.487-0.318c0-0.088,0.028-0.155,0.083-0.202c0.056-0.046,0.136-0.069,0.241-0.069    c0.082,0,0.167,0.004,0.257,0.011c0.088,0.008,0.184,0.021,0.285,0.04c0.13,0.016,0.269,0.026,0.418,0.033    c0.149,0.008,0.308,0.012,0.476,0.012c0.173,0,0.356-0.005,0.548-0.016c0.192-0.009,0.42-0.026,0.686-0.051    c0.115-0.015,0.223-0.025,0.324-0.033c0.101-0.007,0.192-0.011,0.274-0.011c0.111,0,0.188,0.021,0.231,0.062    c0.043,0.041,0.065,0.111,0.065,0.208c0,0.143-0.102,0.251-0.304,0.326c-0.202,0.076-0.351,0.153-0.446,0.23    c-0.184,0.143-0.311,0.32-0.383,0.535s-0.113,0.61-0.123,1.187L217.436,80c0,0.215-0.015,0.373-0.046,0.476    c-0.032,0.103-0.081,0.153-0.148,0.153c-0.163,0-0.394-0.181-0.692-0.541c-0.058-0.074-0.104-0.13-0.137-0.169l-6.066-7.28    c-0.067-0.083-0.137-0.152-0.21-0.209c-0.071-0.056-0.122-0.084-0.151-0.084c-0.058,0-0.101,0.053-0.13,0.157    c-0.029,0.105-0.043,0.263-0.043,0.473v3.501c0,1.089,0.036,1.824,0.109,2.205c0.071,0.381,0.196,0.664,0.375,0.85    c0.134,0.137,0.384,0.236,0.75,0.3h0.013c0.226,0.034,0.375,0.078,0.448,0.132c0.071,0.054,0.108,0.13,0.108,0.227    c0,0.128-0.023,0.212-0.068,0.253c-0.046,0.042-0.153,0.062-0.321,0.062c-0.029,0-0.216-0.024-0.563-0.073    s-0.676-0.073-0.989-0.073c-0.331,0-0.684,0.022-1.056,0.065c-0.373,0.045-0.576,0.066-0.61,0.066c-0.091,0-0.162-0.03-0.21-0.092    c-0.048-0.061-0.071-0.15-0.071-0.268s0.113-0.209,0.339-0.277l0.014-0.008c0.005,0,0.019-0.005,0.043-0.015    c0.274-0.098,0.462-0.212,0.563-0.345c0.144-0.176,0.255-0.525,0.332-1.051C209.096,77.911,209.135,77.246,209.135,76.439z"/>
			<path style="fill:#020202;" d="M221.109,72.199c0-0.483-0.046-0.825-0.138-1.025c-0.091-0.2-0.258-0.368-0.497-0.506    c-0.126-0.072-0.326-0.131-0.603-0.176c-0.276-0.043-0.414-0.146-0.414-0.307c0-0.098,0.038-0.175,0.112-0.231    c0.075-0.056,0.179-0.084,0.314-0.084c0.044,0,0.234,0.016,0.57,0.048c0.337,0.031,0.654,0.047,0.952,0.047    c0.25,0,0.514-0.007,0.79-0.021c0.277-0.015,0.621-0.039,1.035-0.073c0.024,0,0.067-0.002,0.131-0.007    c0.519-0.034,0.891-0.052,1.117-0.052c1.89,0,3.342,0.42,4.356,1.26s1.521,2.031,1.521,3.574c0,1.66-0.56,3.042-1.68,4.146    s-2.539,1.655-4.255,1.655c-0.197,0-0.509-0.015-0.934-0.044c-0.426-0.029-0.754-0.044-0.985-0.044    c-0.837,0-1.57,0.054-2.199,0.161c-0.073,0.015-0.113,0.021-0.123,0.021c-0.082,0-0.157-0.03-0.223-0.091    c-0.068-0.062-0.102-0.131-0.102-0.209c0-0.151,0.138-0.293,0.412-0.425h0.008l0.266-0.132c0.202-0.112,0.347-0.271,0.437-0.476    c0.088-0.205,0.134-0.481,0.134-0.828V72.199z M222.897,77.611c0,0.899,0.119,1.481,0.36,1.747    c0.24,0.267,0.679,0.399,1.314,0.399c1.183,0,2.132-0.406,2.848-1.22c0.716-0.812,1.075-1.9,1.075-3.263    c0-1.406-0.388-2.554-1.162-3.442s-1.779-1.333-3.015-1.333c-0.567,0-0.946,0.084-1.136,0.253    c-0.19,0.168-0.285,0.551-0.285,1.146V77.611z"/>
			<path style="fill:#020202;" d="M236.947,77.451l0.165-3.816c0-0.039,0.002-0.139,0.008-0.301c0.004-0.16,0.007-0.3,0.007-0.417    c0-0.63-0.048-1.108-0.144-1.436c-0.096-0.327-0.255-0.588-0.476-0.784c-0.125-0.106-0.293-0.192-0.505-0.256    c-0.019-0.005-0.034-0.01-0.043-0.015c-0.139-0.034-0.226-0.072-0.26-0.113c-0.034-0.042-0.05-0.104-0.05-0.187    c0-0.098,0.021-0.168,0.064-0.209c0.043-0.042,0.115-0.062,0.216-0.062c0.024,0,0.042,0.001,0.054,0.004    c0.012,0.002,0.028,0.006,0.047,0.011c0.029,0.005,0.08,0.013,0.151,0.022c0.346,0.039,0.671,0.059,0.974,0.059    c0.154,0,0.323-0.009,0.509-0.026c0.185-0.017,0.292-0.025,0.321-0.025c0.013,0,0.032-0.002,0.054-0.007    c0.021-0.005,0.041-0.008,0.062-0.008c0.1,0,0.18,0.025,0.238,0.077c0.058,0.051,0.125,0.167,0.202,0.348l3.267,7.119    c0.034,0.078,0.066,0.133,0.098,0.165c0.031,0.031,0.068,0.047,0.112,0.047c0.038,0,0.074-0.014,0.108-0.043    s0.065-0.074,0.094-0.133l3.563-7.324c0.043-0.088,0.093-0.149,0.151-0.187c0.058-0.036,0.139-0.055,0.246-0.055    c0.018,0,0.049,0.004,0.089,0.011c0.041,0.008,0.076,0.012,0.105,0.012c0.048,0.01,0.103,0.017,0.165,0.021    c0.063,0.005,0.168,0.008,0.317,0.008c0.149,0,0.287-0.004,0.412-0.012c0.125-0.007,0.238-0.018,0.339-0.033    c0.073-0.014,0.143-0.026,0.213-0.036c0.069-0.01,0.128-0.015,0.177-0.015c0.115,0,0.193,0.021,0.234,0.066    c0.041,0.043,0.062,0.127,0.062,0.248c0,0.128-0.097,0.209-0.292,0.246c-0.194,0.036-0.384,0.105-0.566,0.209    c-0.163,0.093-0.282,0.237-0.357,0.436c-0.074,0.197-0.112,0.478-0.112,0.838v0.133l0.159,6.013    c0.01,0.474,0.055,0.821,0.137,1.044c0.082,0.222,0.219,0.406,0.412,0.553c0.082,0.063,0.167,0.113,0.256,0.15    c0.089,0.036,0.193,0.06,0.314,0.069c0.01,0.005,0.019,0.007,0.029,0.007c0.173,0.045,0.26,0.133,0.26,0.264    c0,0.133-0.025,0.221-0.075,0.264c-0.051,0.045-0.153,0.066-0.307,0.066c-0.038,0-0.249-0.018-0.631-0.051    c-0.383-0.035-0.744-0.052-1.086-0.052c-0.346,0-0.71,0.02-1.089,0.059c-0.381,0.039-0.59,0.059-0.628,0.059    c-0.125,0-0.215-0.023-0.27-0.069c-0.056-0.047-0.083-0.123-0.083-0.23c0-0.122,0.098-0.223,0.295-0.301    c0.13-0.054,0.228-0.103,0.295-0.146c0.168-0.117,0.288-0.258,0.358-0.421c0.069-0.164,0.104-0.399,0.104-0.707v-0.315    l-0.194-4.665c-0.005-0.103-0.019-0.188-0.043-0.257c-0.024-0.067-0.048-0.102-0.072-0.102c-0.034,0-0.076,0.034-0.126,0.102    c-0.051,0.069-0.108,0.164-0.17,0.286l-3.116,6.401l-0.013,0.037c-0.097,0.21-0.208,0.314-0.333,0.314    c-0.111,0-0.204-0.09-0.281-0.271c-0.014-0.033-0.029-0.062-0.043-0.088l-2.878-6.452c-0.005-0.01-0.012-0.024-0.021-0.044    c-0.067-0.156-0.13-0.236-0.188-0.242c-0.034,0-0.062,0.033-0.083,0.1c-0.022,0.065-0.038,0.164-0.047,0.297l-0.13,3.721v0.277    v0.367c0,0.493,0.053,0.862,0.159,1.109c0.106,0.246,0.284,0.436,0.534,0.567c0.077,0.034,0.202,0.071,0.375,0.11    c0.014,0.005,0.026,0.007,0.036,0.007c0.163,0.024,0.271,0.062,0.321,0.113c0.051,0.052,0.076,0.128,0.076,0.231    c0,0.098-0.023,0.164-0.068,0.201c-0.046,0.036-0.14,0.055-0.285,0.055c-0.078,0-0.202-0.008-0.375-0.021    c-0.035,0-0.061-0.003-0.08-0.008c-0.019,0-0.048-0.003-0.087-0.008c-0.375-0.043-0.681-0.065-0.916-0.065    c-0.264,0-0.598,0.024-1.002,0.073c-0.082,0.01-0.137,0.015-0.165,0.015c-0.025,0.005-0.056,0.007-0.094,0.007    c-0.144,0.016-0.243,0.022-0.296,0.022s-0.102-0.03-0.147-0.092c-0.046-0.061-0.068-0.136-0.068-0.224    c0-0.117,0.134-0.229,0.404-0.336l0.007-0.008c0.014-0.005,0.038-0.015,0.072-0.029c0.202-0.093,0.346-0.178,0.433-0.256    c0.13-0.122,0.23-0.347,0.299-0.674C236.875,78.53,236.922,78.061,236.947,77.451z"/>
			<path style="fill:#020202;" d="M250.563,71.914c0-0.435-0.041-0.742-0.126-0.924c-0.084-0.18-0.259-0.316-0.522-0.41    c-0.121-0.048-0.277-0.092-0.469-0.131c-0.014,0-0.027-0.003-0.037-0.008c-0.173-0.029-0.282-0.066-0.328-0.109    c-0.045-0.045-0.068-0.112-0.068-0.205s0.029-0.159,0.087-0.198c0.058-0.039,0.156-0.059,0.296-0.059    c0.062,0,0.283,0.019,0.664,0.055c0.379,0.037,0.725,0.056,1.039,0.056c0.417,0,0.852-0.026,1.301-0.077    c0.45-0.052,0.693-0.077,0.732-0.077c0.139,0,0.242,0.021,0.307,0.066c0.065,0.043,0.097,0.112,0.097,0.205    c0,0.142-0.12,0.246-0.36,0.314h-0.008c-0.077,0.02-0.145,0.043-0.206,0.069c-0.06,0.027-0.116,0.056-0.169,0.085    c-0.178,0.102-0.301,0.295-0.367,0.578c-0.068,0.283-0.102,0.908-0.102,1.875v2.615c0,0.796,0.032,1.375,0.094,1.739    c0.063,0.363,0.168,0.677,0.317,0.94c0.25,0.445,0.582,0.787,0.995,1.025c0.414,0.24,0.88,0.359,1.399,0.359    c0.49,0,0.939-0.088,1.345-0.264c0.406-0.176,0.746-0.427,1.02-0.754c0.284-0.342,0.487-0.771,0.61-1.289    c0.122-0.518,0.184-1.27,0.184-2.256v-2.594c0-0.645-0.049-1.1-0.148-1.365c-0.098-0.267-0.27-0.451-0.515-0.553    c-0.144-0.059-0.349-0.112-0.613-0.162c-0.352-0.062-0.527-0.18-0.527-0.352c0-0.088,0.029-0.152,0.087-0.193    c0.058-0.042,0.154-0.062,0.289-0.062c0.062,0,0.185,0.008,0.367,0.021c0.044,0.006,0.077,0.008,0.102,0.008    c0.042,0.005,0.113,0.015,0.209,0.029c0.351,0.044,0.637,0.066,0.859,0.066c0.153,0,0.307-0.008,0.462-0.022    c0.153-0.015,0.343-0.044,0.569-0.088c0.019,0,0.05-0.002,0.094-0.007c0.129-0.016,0.215-0.022,0.26-0.022    c0.115,0,0.198,0.02,0.248,0.059c0.051,0.039,0.076,0.101,0.076,0.183c0,0.133-0.101,0.237-0.303,0.315    c-0.019,0.01-0.032,0.015-0.037,0.015c-0.091,0.024-0.168,0.051-0.231,0.08c-0.062,0.029-0.117,0.064-0.165,0.104    c-0.125,0.088-0.211,0.281-0.256,0.582c-0.046,0.3-0.069,1.005-0.069,2.113v1.918c0,1.803-0.375,3.153-1.125,4.055    c-0.75,0.9-1.872,1.352-3.368,1.352c-1.409,0-2.426-0.391-3.05-1.172c-0.626-0.781-0.939-2.07-0.939-3.867V71.914z"/>
			<path style="fill:#020202;" d="M262.06,79.545l-0.476-2.16c-0.014-0.059-0.028-0.114-0.039-0.168    c-0.013-0.054-0.018-0.086-0.018-0.096c0-0.137,0.022-0.229,0.064-0.278c0.044-0.049,0.12-0.073,0.231-0.073    s0.224,0.165,0.339,0.494c0.115,0.33,0.247,0.632,0.397,0.904c0.307,0.553,0.684,0.985,1.128,1.301    c0.445,0.314,0.9,0.473,1.367,0.473c0.592,0,1.077-0.184,1.458-0.55c0.379-0.366,0.569-0.845,0.569-1.436    c0-0.742-0.731-1.433-2.193-2.073l-0.231-0.102l-0.014-0.008c-1.938-0.84-2.907-1.906-2.907-3.201    c0-0.805,0.276-1.483,0.826-2.035c0.551-0.552,1.244-0.828,2.081-0.828c0.428,0,0.872,0.086,1.334,0.256    c0.462,0.172,0.755,0.257,0.881,0.257c0.138,0,0.27-0.033,0.392-0.099c0.123-0.066,0.198-0.1,0.227-0.1    c0.096,0,0.165,0.025,0.206,0.074c0.041,0.049,0.062,0.134,0.062,0.256c0,0.054-0.005,0.138-0.014,0.253    c-0.01,0.114-0.014,0.206-0.014,0.274c0,0.244,0.035,0.587,0.105,1.029c0.069,0.441,0.105,0.743,0.105,0.904    c0,0.122-0.017,0.205-0.051,0.249s-0.091,0.065-0.173,0.065c-0.149,0-0.269-0.162-0.361-0.486    c-0.091-0.325-0.221-0.634-0.389-0.927c-0.255-0.42-0.597-0.755-1.028-1.003c-0.43-0.25-0.881-0.374-1.352-0.374    c-0.476,0-0.868,0.141-1.175,0.421c-0.309,0.281-0.462,0.632-0.462,1.051c0,0.41,0.146,0.759,0.439,1.044    c0.293,0.286,0.837,0.583,1.63,0.89c0.087,0.035,0.221,0.086,0.404,0.154c0.966,0.376,1.603,0.716,1.912,1.018    c0.288,0.284,0.508,0.623,0.66,1.019c0.151,0.396,0.227,0.83,0.227,1.304c0,1.011-0.299,1.829-0.898,2.453    c-0.598,0.626-1.379,0.938-2.341,0.938c-0.394,0-0.842-0.083-1.344-0.248c-0.503-0.166-0.812-0.259-0.927-0.279    c-0.019-0.004-0.044-0.009-0.076-0.014c-0.031-0.005-0.057-0.01-0.076-0.016c-0.255-0.029-0.411-0.188-0.468-0.476    c-0.005-0.01-0.009-0.017-0.011-0.022C262.061,79.57,262.06,79.56,262.06,79.545z"/>
			<path style="fill:#020202;" d="M270.917,72.346c0-0.498-0.029-0.845-0.087-1.04s-0.162-0.363-0.311-0.505    c-0.091-0.083-0.196-0.149-0.314-0.198c-0.118-0.049-0.286-0.088-0.501-0.117h-0.015c-0.302-0.054-0.454-0.163-0.454-0.329    c0-0.098,0.034-0.175,0.101-0.231c0.067-0.056,0.161-0.084,0.282-0.084c0.018,0,0.087,0.005,0.202,0.015    c0.754,0.073,1.538,0.109,2.35,0.109c0.841,0,1.726-0.018,2.654-0.055c0.928-0.036,1.438-0.055,1.529-0.055    c0.275,0,0.441,0.032,0.502,0.096c0.06,0.063,0.09,0.207,0.09,0.432v0.314c0,0.357,0.004,0.73,0.013,1.121    c0,0.083,0,0.135,0,0.154c0,0.122-0.016,0.202-0.05,0.241s-0.096,0.059-0.188,0.059c-0.159,0-0.249-0.116-0.27-0.348    c-0.022-0.232-0.06-0.407-0.112-0.524c-0.15-0.312-0.41-0.531-0.779-0.658c-0.371-0.127-0.934-0.191-1.689-0.191    c-0.446,0-0.758,0.064-0.934,0.191c-0.175,0.127-0.263,0.352-0.263,0.674v2.344c0,0.225,0.049,0.386,0.147,0.482    c0.099,0.099,0.261,0.146,0.488,0.146h0.475c0.337,0,0.603-0.038,0.797-0.117c0.195-0.077,0.362-0.209,0.501-0.395    c0.067-0.093,0.142-0.234,0.224-0.426c0.125-0.287,0.262-0.432,0.411-0.432c0.082,0,0.142,0.024,0.181,0.073    c0.038,0.049,0.058,0.13,0.058,0.241c0,0.016-0.005,0.062-0.014,0.14c-0.029,0.332-0.043,0.667-0.043,1.003    c0,0.538,0.031,1.1,0.094,1.686c0.013,0.146,0.021,0.234,0.021,0.264c0,0.098-0.021,0.169-0.065,0.216    c-0.042,0.046-0.106,0.069-0.187,0.069c-0.16,0-0.258-0.132-0.296-0.396c-0.029-0.19-0.062-0.342-0.101-0.454    c-0.111-0.293-0.272-0.497-0.484-0.611c-0.212-0.115-0.548-0.172-1.01-0.172h-0.577c-0.24,0-0.404,0.052-0.49,0.157    c-0.087,0.104-0.129,0.333-0.129,0.685v2.336c0,0.621,0.076,1.007,0.231,1.158c0.153,0.151,0.47,0.227,0.952,0.227    c0.49,0,0.974-0.079,1.453-0.238c0.478-0.158,0.868-0.369,1.172-0.633c0.211-0.176,0.396-0.398,0.555-0.667    s0.284-0.403,0.375-0.403c0.062,0,0.113,0.028,0.151,0.085c0.038,0.056,0.058,0.128,0.058,0.216c0,0.195-0.055,0.459-0.165,0.791    s-0.248,0.615-0.412,0.85c-0.202,0.293-0.46,0.508-0.775,0.645c-0.314,0.137-0.706,0.205-1.171,0.205    c-0.202,0-0.612-0.021-1.227-0.066c-0.615-0.043-1.127-0.065-1.536-0.065c-0.5,0-1.011,0.022-1.533,0.065    c-0.521,0.045-0.79,0.066-0.804,0.066c-0.111,0-0.197-0.023-0.26-0.069c-0.062-0.047-0.093-0.111-0.093-0.194    c0-0.098,0.023-0.176,0.071-0.234c0.048-0.059,0.16-0.127,0.333-0.205c0.023-0.015,0.066-0.038,0.129-0.069    c0.062-0.032,0.111-0.058,0.144-0.077c0.207-0.132,0.358-0.312,0.451-0.542c0.094-0.229,0.141-0.521,0.141-0.872V72.346z"/>
			<path style="fill:#020202;" d="M279.765,71.914c0-0.435-0.041-0.742-0.126-0.924c-0.084-0.18-0.259-0.316-0.522-0.41    c-0.121-0.048-0.277-0.092-0.469-0.131c-0.014,0-0.027-0.003-0.037-0.008c-0.173-0.029-0.282-0.066-0.328-0.109    c-0.045-0.045-0.068-0.112-0.068-0.205s0.029-0.159,0.087-0.198s0.156-0.059,0.296-0.059c0.062,0,0.283,0.019,0.664,0.055    c0.379,0.037,0.725,0.056,1.039,0.056c0.417,0,0.852-0.026,1.301-0.077c0.45-0.052,0.693-0.077,0.732-0.077    c0.139,0,0.242,0.021,0.307,0.066c0.065,0.043,0.097,0.112,0.097,0.205c0,0.142-0.12,0.246-0.36,0.314h-0.008    c-0.077,0.02-0.145,0.043-0.206,0.069c-0.06,0.027-0.116,0.056-0.169,0.085c-0.178,0.102-0.301,0.295-0.367,0.578    c-0.068,0.283-0.102,0.908-0.102,1.875v2.615c0,0.796,0.032,1.375,0.094,1.739c0.062,0.363,0.168,0.677,0.317,0.94    c0.25,0.445,0.582,0.787,0.995,1.025c0.414,0.24,0.88,0.359,1.399,0.359c0.49,0,0.939-0.088,1.345-0.264    c0.406-0.176,0.746-0.427,1.02-0.754c0.284-0.342,0.487-0.771,0.61-1.289c0.122-0.518,0.184-1.27,0.184-2.256v-2.594    c0-0.645-0.049-1.1-0.148-1.365c-0.098-0.267-0.27-0.451-0.515-0.553c-0.144-0.059-0.349-0.112-0.613-0.162    c-0.352-0.062-0.527-0.18-0.527-0.352c0-0.088,0.029-0.152,0.087-0.193c0.058-0.042,0.154-0.062,0.289-0.062    c0.062,0,0.185,0.008,0.367,0.021c0.044,0.006,0.077,0.008,0.102,0.008c0.042,0.005,0.113,0.015,0.209,0.029    c0.351,0.044,0.637,0.066,0.859,0.066c0.153,0,0.307-0.008,0.462-0.022c0.153-0.015,0.343-0.044,0.569-0.088    c0.019,0,0.05-0.002,0.094-0.007c0.129-0.016,0.215-0.022,0.26-0.022c0.115,0,0.198,0.02,0.248,0.059    c0.051,0.039,0.076,0.101,0.076,0.183c0,0.133-0.101,0.237-0.303,0.315c-0.019,0.01-0.032,0.015-0.037,0.015    c-0.091,0.024-0.168,0.051-0.231,0.08s-0.117,0.064-0.165,0.104c-0.125,0.088-0.211,0.281-0.256,0.582    c-0.046,0.3-0.069,1.005-0.069,2.113v1.918c0,1.803-0.375,3.153-1.125,4.055c-0.75,0.9-1.872,1.352-3.368,1.352    c-1.409,0-2.426-0.391-3.05-1.172c-0.626-0.781-0.939-2.07-0.939-3.867V71.914z"/>
			<path style="fill:#020202;" d="M291.703,77.451l0.165-3.816c0-0.039,0.002-0.139,0.008-0.301c0.004-0.16,0.007-0.3,0.007-0.417    c0-0.63-0.048-1.108-0.144-1.436c-0.096-0.327-0.255-0.588-0.476-0.784c-0.125-0.106-0.293-0.192-0.505-0.256    c-0.019-0.005-0.034-0.01-0.043-0.015c-0.139-0.034-0.226-0.072-0.26-0.113c-0.034-0.042-0.05-0.104-0.05-0.187    c0-0.098,0.021-0.168,0.064-0.209c0.043-0.042,0.115-0.062,0.216-0.062c0.024,0,0.042,0.001,0.054,0.004    c0.013,0.002,0.028,0.006,0.047,0.011c0.029,0.005,0.08,0.013,0.151,0.022c0.346,0.039,0.671,0.059,0.974,0.059    c0.154,0,0.323-0.009,0.509-0.026c0.185-0.017,0.292-0.025,0.321-0.025c0.013,0,0.032-0.002,0.054-0.007    c0.021-0.005,0.041-0.008,0.062-0.008c0.1,0,0.18,0.025,0.238,0.077c0.058,0.051,0.125,0.167,0.202,0.348l3.267,7.119    c0.034,0.078,0.066,0.133,0.098,0.165c0.031,0.031,0.068,0.047,0.112,0.047c0.038,0,0.074-0.014,0.108-0.043    s0.065-0.074,0.094-0.133l3.563-7.324c0.043-0.088,0.093-0.149,0.151-0.187c0.058-0.036,0.139-0.055,0.246-0.055    c0.018,0,0.049,0.004,0.089,0.011c0.041,0.008,0.076,0.012,0.105,0.012c0.048,0.01,0.103,0.017,0.165,0.021    c0.062,0.005,0.168,0.008,0.317,0.008c0.149,0,0.287-0.004,0.412-0.012c0.125-0.007,0.238-0.018,0.339-0.033    c0.073-0.014,0.143-0.026,0.214-0.036c0.069-0.01,0.128-0.015,0.177-0.015c0.115,0,0.193,0.021,0.234,0.066    c0.041,0.043,0.062,0.127,0.062,0.248c0,0.128-0.097,0.209-0.292,0.246c-0.194,0.036-0.384,0.105-0.566,0.209    c-0.163,0.093-0.282,0.237-0.357,0.436c-0.074,0.197-0.112,0.478-0.112,0.838v0.133l0.159,6.013    c0.01,0.474,0.055,0.821,0.137,1.044c0.082,0.222,0.219,0.406,0.412,0.553c0.082,0.063,0.167,0.113,0.256,0.15    c0.089,0.036,0.193,0.06,0.314,0.069c0.01,0.005,0.019,0.007,0.029,0.007c0.173,0.045,0.26,0.133,0.26,0.264    c0,0.133-0.025,0.221-0.075,0.264c-0.051,0.045-0.153,0.066-0.307,0.066c-0.038,0-0.249-0.018-0.631-0.051    c-0.383-0.035-0.744-0.052-1.086-0.052c-0.346,0-0.71,0.02-1.089,0.059c-0.381,0.039-0.59,0.059-0.628,0.059    c-0.125,0-0.215-0.023-0.27-0.069c-0.056-0.047-0.083-0.123-0.083-0.23c0-0.122,0.098-0.223,0.295-0.301    c0.13-0.054,0.228-0.103,0.295-0.146c0.168-0.117,0.288-0.258,0.358-0.421c0.069-0.164,0.104-0.399,0.104-0.707v-0.315    l-0.194-4.665c-0.005-0.103-0.019-0.188-0.043-0.257c-0.024-0.067-0.048-0.102-0.072-0.102c-0.034,0-0.076,0.034-0.126,0.102    c-0.051,0.069-0.108,0.164-0.17,0.286l-3.116,6.401l-0.013,0.037c-0.097,0.21-0.208,0.314-0.333,0.314    c-0.111,0-0.204-0.09-0.281-0.271c-0.014-0.033-0.029-0.062-0.043-0.088l-2.878-6.452c-0.005-0.01-0.012-0.024-0.021-0.044    c-0.067-0.156-0.13-0.236-0.188-0.242c-0.034,0-0.062,0.033-0.083,0.1c-0.022,0.065-0.038,0.164-0.047,0.297l-0.13,3.721v0.277    v0.367c0,0.493,0.053,0.862,0.159,1.109c0.106,0.246,0.284,0.436,0.534,0.567c0.077,0.034,0.202,0.071,0.375,0.11    c0.014,0.005,0.026,0.007,0.036,0.007c0.163,0.024,0.271,0.062,0.321,0.113c0.051,0.052,0.076,0.128,0.076,0.231    c0,0.098-0.023,0.164-0.068,0.201c-0.046,0.036-0.14,0.055-0.285,0.055c-0.078,0-0.202-0.008-0.375-0.021    c-0.035,0-0.061-0.003-0.08-0.008c-0.019,0-0.048-0.003-0.087-0.008c-0.375-0.043-0.681-0.065-0.916-0.065    c-0.264,0-0.598,0.024-1.002,0.073c-0.082,0.01-0.137,0.015-0.165,0.015c-0.025,0.005-0.056,0.007-0.094,0.007    c-0.144,0.016-0.243,0.022-0.296,0.022s-0.102-0.03-0.147-0.092c-0.046-0.061-0.068-0.136-0.068-0.224    c0-0.117,0.134-0.229,0.404-0.336l0.007-0.008c0.014-0.005,0.038-0.015,0.072-0.029c0.202-0.093,0.346-0.178,0.433-0.256    c0.13-0.122,0.23-0.347,0.299-0.674C291.632,78.53,291.678,78.061,291.703,77.451z"/>
		</g>
	</g>
	<g>
</g>
	<g>
</g>
	<g>
</g>
	<g>
</g>
	<g>
</g>
	<g>
</g>
</svg>