<svg id="" data-name="" xmlns="http://www.w3.org/2000/svg"  viewBox="0 0 199.87 50"><defs><style>.cls-1{fill:none;}.cls-2{clip-path:url(#clip-path);}.cls-3{fill:#df0615;}</style><clipPath id="clip-path"><rect class="cls-1" width="199.87" height="50"/></clipPath></defs><g class="cls-2"><g id="JIA_logo" data-name="JIA logo"><path class="cls-3" d="M12.81.73l-1.5.19A10,10,0,0,1,9.87,1,9.73,9.73,0,0,1,8.44.92L7,.73c.13,2.63.25,5.2.34,7.73s.16,5.11.17,7.73V32.58q0,3.53-.21,6.4a17.9,17.9,0,0,1-1,5A7.12,7.12,0,0,1,4,47.17a6.33,6.33,0,0,1-4,1.17L.49,50a12,12,0,0,0,4.86-1A11.69,11.69,0,0,0,9.19,46.3a12.24,12.24,0,0,0,2.48-4,13.71,13.71,0,0,0,.88-4.91c0-1.43,0-3,0-4.72s0-3.5,0-5.34,0-3.73-.05-5.65,0-3.76,0-5.54c0-2.63,0-5.2.15-7.73s.18-5.1.26-7.71"/><path class="cls-3" d="M29.06,8.46c.11-2.53.22-5.1.34-7.73L27.89.92a10,10,0,0,1-1.44.1A9.73,9.73,0,0,1,25,.92L23.54.73c.13,2.63.24,5.2.34,7.73s.14,5.11.14,7.73V26.45q0,3.94-.14,7.76c-.1,2.55-.21,5-.34,7.52a28.89,28.89,0,0,1,5.88,0q-.2-3.7-.34-7.51c-.1-2.55-.14-5.13-.14-7.76V16.19c0-2.62,0-5.2.14-7.73"/><path class="cls-3" d="M73,38.42S71,33.65,70,31.34s-2.09-4.84-3.26-7.54l-3.45-8.19-3.4-8.15L56.78,0H55.63Q51,10.68,46.39,21T37,41.75a17.05,17.05,0,0,1,4.4,0c.52-1.82,1.3-4.13,2.33-7S45.89,29,47.17,26l3.65-.1,3.65-.05,3.93.05,3.87.1c.52,1.31,1.08,2.69,1.68,4.13l1.75,4.28c.58,1.41,1.11,2.76,1.58,4.06s.78,2.24,1,3.16h58.89V38.37Zm-15-15.13-3.33.05c-1,0-2.12,0-3.21-.07l-3.21-.07L54.83,8.05,61.45,23.2l-3.34.1"/><path class="cls-3" d="M132.52,11.94a1.58,1.58,0,0,0,.34-.29,1.16,1.16,0,0,0,.19-.44,3,3,0,0,0,.1-.66c0-.6.07-1.21.1-1.82s.05-1.33,0-2.14V4.64c0-.79,0-1.5,0-2.14s-.05-1.25-.1-1.87l.54.05H135l.53-.05c0,.63-.06,1.26-.1,1.87s0,1.33,0,2.14v2c0,.41,0,.83,0,1.27s0,.89,0,1.36a3.61,3.61,0,0,1-.8,2.55,4,4,0,0,1-2.39,1.1l-.22-.68.51-.27"/><path class="cls-3" d="M138.6,3.7a4.09,4.09,0,0,1,2.45-.15,2.31,2.31,0,0,1,.83.41,2,2,0,0,1,.56.73,2.58,2.58,0,0,1,.19,1.1c0,.61,0,1.18,0,1.7s0,1,0,1.55a2,2,0,0,0,0,.54.61.61,0,0,0,.14.29.47.47,0,0,0,.27.12h.39v.34l-.71.34a1.89,1.89,0,0,1-.63.1,1.31,1.31,0,0,1-.87-.27,1.51,1.51,0,0,1-.51-.75,2.85,2.85,0,0,1-.78.73,2.11,2.11,0,0,1-1.1.27,3,3,0,0,1-.94-.15,1.61,1.61,0,0,1-1-1,2.28,2.28,0,0,1-.13-.68,2,2,0,0,1,.15-.83,1.66,1.66,0,0,1,.44-.58,2.27,2.27,0,0,1,.68-.42,5.22,5.22,0,0,1,.87-.29l1-.24a2.2,2.2,0,0,0,.53-.22.47.47,0,0,0,.22-.24.86.86,0,0,0,.05-.32,1.19,1.19,0,0,0-.37-.9,1.35,1.35,0,0,0-1-.36l-.51.07-.48.17-.44.24a1,1,0,0,0-.29.29h-.1l-.2-.87a4.55,4.55,0,0,1,1.32-.75m2.11,3.74V6.83a3,3,0,0,1-.63.29,3.52,3.52,0,0,0-.63.27,1.38,1.38,0,0,0-.47.46,1.7,1.7,0,0,0-.17.83,1.37,1.37,0,0,0,.22.83.73.73,0,0,0,.61.29,1,1,0,0,0,.78-.37,1.63,1.63,0,0,0,.29-1.07V7.41"/><path class="cls-3" d="M144.53,6c0-.8-.05-1.6-.1-2.41l.51,0h1l.52,0-.08.58c0,.22,0,.44,0,.66h0a2.15,2.15,0,0,1,.73-1,2.06,2.06,0,0,1,1.31-.41,2.91,2.91,0,0,1,1.05.19,2.57,2.57,0,0,1,.9.63A3.27,3.27,0,0,1,151,5.35,5,5,0,0,1,151.24,7,5.18,5.18,0,0,1,151,8.73a3.4,3.4,0,0,1-.63,1.17,2.2,2.2,0,0,1-.9.63,3.15,3.15,0,0,1-1.05.2,2.42,2.42,0,0,1-1.12-.25,1.71,1.71,0,0,1-.73-.75h0v2.19c0,.34,0,.67,0,1s0,.61,0,.85a2.12,2.12,0,0,0,.05.56l-.49-.05h-1.22l-.48.05c0-.41,0-.8,0-1.19s0-.79,0-1.19,0-.82,0-1.24V8.61c0-.94,0-1.81,0-2.6m4.21-1a1.06,1.06,0,0,0-.93-.63.94.94,0,0,0-.51.17,1.42,1.42,0,0,0-.43.51,3.22,3.22,0,0,0-.32.9,6.26,6.26,0,0,0-.12,1.36,4.22,4.22,0,0,0,.34,2,1.07,1.07,0,0,0,1.41.54,1.11,1.11,0,0,0,.56-.59,5.1,5.1,0,0,0,.36-2.12A4.27,4.27,0,0,0,148.74,5"/><path class="cls-3" d="M153.85,3.7a4.09,4.09,0,0,1,2.45-.15,2.39,2.39,0,0,1,.83.41,2.1,2.1,0,0,1,.56.73,2.74,2.74,0,0,1,.19,1.1c0,.61,0,1.18,0,1.7s0,1,0,1.55a3.29,3.29,0,0,0,0,.54.73.73,0,0,0,.15.29.45.45,0,0,0,.27.12h.39v.34l-.71.27a2.24,2.24,0,0,1-.63.1,1.39,1.39,0,0,1-.88-.27,1.68,1.68,0,0,1-.51-.75,2.72,2.72,0,0,1-.78.73,2.07,2.07,0,0,1-1.09.26,2.81,2.81,0,0,1-1-.14,1.64,1.64,0,0,1-1-1,2,2,0,0,1-.12-.68,1.94,1.94,0,0,1,.15-.83,1.7,1.7,0,0,1,.43-.59,2.8,2.8,0,0,1,.68-.41,5.66,5.66,0,0,1,.88-.29l1-.24a2.55,2.55,0,0,0,.54-.22.6.6,0,0,0,.22-.25,1.06,1.06,0,0,0,0-.31,1.25,1.25,0,0,0-.37-.9,1.39,1.39,0,0,0-1-.37L154,4.5l-.49.17-.44.24a1.33,1.33,0,0,0-.29.29h-.1l-.19-.87a4.38,4.38,0,0,1,1.31-.75m2.11,3.74V6.76a3.32,3.32,0,0,1-.63.3,2.89,2.89,0,0,0-.63.26,1.35,1.35,0,0,0-.46.46,1.61,1.61,0,0,0-.17.83,1.29,1.29,0,0,0,.22.83.72.72,0,0,0,.61.29,1,1,0,0,0,.77-.36,1.73,1.73,0,0,0,.3-1.07v-1"/><path class="cls-3" d="M161.75,4.69a3.08,3.08,0,0,1,.95-1,2.43,2.43,0,0,1,1.24-.34,2.14,2.14,0,0,1,1.67.64,3,3,0,0,1,.59,2q0,.74,0,1.29c0,.37,0,.75,0,1.12s0,.64,0,1,0,.71.05,1h-2.16a17.54,17.54,0,0,0,.12-1.77c0-.68,0-1.46,0-2.34a2.22,2.22,0,0,0-.31-1.33,1.1,1.1,0,0,0-1.54-.2,1.34,1.34,0,0,0-.29.34,3.36,3.36,0,0,0-.29,1.56v.58c0,.59,0,1.14,0,1.66s0,1,.1,1.5h-2.17c.05-.48.08-1,.1-1.5s0-1.07,0-1.66V6.81c0-.58,0-1.13,0-1.65s-.05-1-.1-1.55l.51,0h1l.54,0-.05,1.09Z"/><path class="cls-3" d="M133,18.16c0-.61-.05-1.24-.1-1.87l.53.05h1.32l.53-.05c0,.63-.06,1.26-.1,1.87s0,1.33,0,2.14v2c0,.8,0,1.51,0,2.14s.05,1.24.1,1.83h-2.36c0-.6.07-1.21.1-1.83s.05-1.33,0-2.14v-2c0-.79,0-1.5,0-2.14"/><path class="cls-3" d="M139,20.35a3.15,3.15,0,0,1,.94-1,2.49,2.49,0,0,1,1.24-.34,2.15,2.15,0,0,1,1.68.64,2.9,2.9,0,0,1,.59,2q0,.73,0,1.29c0,.38,0,.75,0,1.12s0,.64,0,1,0,.71.05,1.05H141.3a17.54,17.54,0,0,0,.12-1.78c0-.68,0-1.46,0-2.33a2.24,2.24,0,0,0-.31-1.34,1.1,1.1,0,0,0-1.54-.19,1.19,1.19,0,0,0-.29.34,3.32,3.32,0,0,0-.29,1.55V23q0,.87,0,1.65c0,.52.05,1,.1,1.51H137c.05-.49.08-1,.1-1.51s0-1.07,0-1.65V22.5c0-.59,0-1.14,0-1.66s0-1-.1-1.55l.51.05h1l.54-.05,0,1.09Z"/><path class="cls-3" d="M148.86,21.81l.85-2.53.29,0h.59l.31,0-.56,1.32-.7,1.62c-.24.6-.5,1.24-.76,1.9s-.49,1.37-.7,2.1h-1.56L146,24.39l-.71-2-.66-1.8-.5-1.36.58,0h1.1l.53,0,.78,2.53.83,2.53h0c.31-.85.61-1.69.9-2.53"/><path class="cls-3" d="M153.29,23.85a2.6,2.6,0,0,0,.36.88,1.71,1.71,0,0,0,1.46.8,2.68,2.68,0,0,0,1.77-.66l.17.13-.31.8a2.88,2.88,0,0,1-.88.43,4,4,0,0,1-1.33.17,4.3,4.3,0,0,1-1.34-.19,2.83,2.83,0,0,1-1.12-.63,3.06,3.06,0,0,1-.75-1.15,4.26,4.26,0,0,1-.29-1.62,4.48,4.48,0,0,1,.24-1.63A3.23,3.23,0,0,1,152,20,3.08,3.08,0,0,1,153,19.3a3.83,3.83,0,0,1,1.34-.24,2.85,2.85,0,0,1,2.19.83,3.35,3.35,0,0,1,.75,2.36v.29a1,1,0,0,1,0,.17h-4.14a4.45,4.45,0,0,0,.13,1.09m1.84-3.42a.83.83,0,0,0-.8-.66.67.67,0,0,0-.53.22,1.53,1.53,0,0,0-.34.56,4.15,4.15,0,0,0-.2.77,8.31,8.31,0,0,0-.07.86h2.24a5.63,5.63,0,0,0-.27-1.73"/><path class="cls-3" d="M159,24.88a1.65,1.65,0,0,0,.34.36,1.52,1.52,0,0,0,.48.27,2.11,2.11,0,0,0,.66.1,1.13,1.13,0,0,0,.78-.27.79.79,0,0,0,.27-.56.67.67,0,0,0-.25-.53,2.68,2.68,0,0,0-.61-.37l-.8-.34a3.68,3.68,0,0,1-.8-.44,2.18,2.18,0,0,1-.6-.68,2,2,0,0,1-.25-1,2.36,2.36,0,0,1,.22-1.05,2.19,2.19,0,0,1,.59-.73,2.26,2.26,0,0,1,.82-.41,3.23,3.23,0,0,1,2,0,4.57,4.57,0,0,1,1,.51,3.72,3.72,0,0,0-.22.64,3.55,3.55,0,0,0-.12.65H162a2,2,0,0,0-.14-.39,1.7,1.7,0,0,0-.27-.39,1.53,1.53,0,0,0-.41-.31,1.23,1.23,0,0,0-.59-.12,1.07,1.07,0,0,0-.73.22.7.7,0,0,0-.29.6.69.69,0,0,0,.24.56,2.54,2.54,0,0,0,.64.37l.82.31a3.81,3.81,0,0,1,.83.42,2.17,2.17,0,0,1,.63.65A1.91,1.91,0,0,1,163,24a2.29,2.29,0,0,1-.24,1.09,2.11,2.11,0,0,1-.63.76,2.7,2.7,0,0,1-.9.44,4.57,4.57,0,0,1-1.05.12,3.54,3.54,0,0,1-1.16-.2,3.7,3.7,0,0,1-.83-.39,8.09,8.09,0,0,0,.22-1.38h.36a2.58,2.58,0,0,0,.22.44"/><path class="cls-3" d="M167.92,19.74a1.5,1.5,0,0,0,.05.37h-1.26c0,.23,0,.48-.05.75a8.42,8.42,0,0,0,0,.88v1.58c0,.5,0,.91,0,1.21a2.85,2.85,0,0,0,.12.71.6.6,0,0,0,.24.34.87.87,0,0,0,.42.1l.41-.05.27-.1v.58a3.94,3.94,0,0,1-.73.25,4.11,4.11,0,0,1-.85.1q-1.83,0-1.83-2.19c0-.28,0-.59,0-.95s0-.72,0-1.09,0-.74,0-1.1,0-.69,0-1h-1a1.49,1.49,0,0,0,.05-.36,2.6,2.6,0,0,0-.05-.39l1,.05c0-.29,0-.57,0-.83s0-.57,0-1l1-.43,1-.47.15.1c0,.15,0,.34-.05.54l-.05.66c0,.22,0,.46,0,.7v.68H168a1.74,1.74,0,0,0-.05.39"/><path class="cls-3" d="M171,20.35a3.15,3.15,0,0,1,.94-1,2.49,2.49,0,0,1,1.24-.34,1.86,1.86,0,0,1,1.12.37,2.19,2.19,0,0,1,.73,1,3.31,3.31,0,0,1,1-1,2.37,2.37,0,0,1,1.24-.37,2.15,2.15,0,0,1,1.68.64,2.84,2.84,0,0,1,.58,2c0,.49,0,.92,0,1.29s0,.75,0,1.12,0,.64,0,1,0,.71,0,1.05H177.4a15.06,15.06,0,0,0,.13-1.78c0-.68,0-1.46,0-2.33a2.49,2.49,0,0,0-.29-1.34,1,1,0,0,0-.85-.44,1,1,0,0,0-.56.17,1.15,1.15,0,0,0-.37.42,2,2,0,0,0-.17.53,5.29,5.29,0,0,0-.05.56V23q0,.87,0,1.65c0,.52.05,1,.1,1.51h-2.17c.05-.49.09-1,.1-1.51s0-1.07,0-1.65v-.83a3.4,3.4,0,0,0-.22-1.34.81.81,0,0,0-.83-.48,1,1,0,0,0-1,.55,3.36,3.36,0,0,0-.29,1.56v.58c0,.59,0,1.14,0,1.66s0,1,.1,1.51H169c0-.49.08-1,.1-1.51s0-1.07,0-1.66V22.5c0-.59,0-1.14,0-1.66s-.05-1-.1-1.55l.51.05h1l.53-.05L171,20.38Z"/><path class="cls-3" d="M183,23.85a2.84,2.84,0,0,0,.37.88,1.71,1.71,0,0,0,1.46.8,2.68,2.68,0,0,0,1.77-.66l.17.13-.31.8a2.88,2.88,0,0,1-.88.43,4,4,0,0,1-1.33.17,4.3,4.3,0,0,1-1.34-.19,2.83,2.83,0,0,1-1.12-.63,3.06,3.06,0,0,1-.75-1.15,4.09,4.09,0,0,1-.3-1.62,4.71,4.71,0,0,1,.25-1.63,3.23,3.23,0,0,1,.7-1.17,3.08,3.08,0,0,1,1.07-.71,3.83,3.83,0,0,1,1.34-.24,2.85,2.85,0,0,1,2.19.83,3.35,3.35,0,0,1,.75,2.36v.29a1,1,0,0,1,0,.17h-4.14A4.45,4.45,0,0,0,183,23.8m1.84-3.47a.83.83,0,0,0-.8-.66.71.71,0,0,0-.53.22,1.53,1.53,0,0,0-.34.56,4.06,4.06,0,0,0-.2.78,8.54,8.54,0,0,0-.1.9h2.24a5.63,5.63,0,0,0-.27-1.73"/><path class="cls-3" d="M190.29,20.35a3.31,3.31,0,0,1,1-1,2.43,2.43,0,0,1,1.24-.34,2.15,2.15,0,0,1,1.68.64,2.84,2.84,0,0,1,.58,2c0,.49,0,.92,0,1.29s0,.75,0,1.12,0,.64,0,1,0,.71.05,1.05h-2.19a17.54,17.54,0,0,0,.12-1.78c0-.68,0-1.46,0-2.33a2.32,2.32,0,0,0-.32-1.34,1.09,1.09,0,0,0-1.53-.19,1.05,1.05,0,0,0-.29.34,3.33,3.33,0,0,0-.3,1.55V23q0,.87,0,1.65c0,.52.05,1,.1,1.51h-2.17c.05-.49.08-1,.1-1.51s0-1.07,0-1.65V22.5c0-.59,0-1.14,0-1.66s0-1-.1-1.55l.51.05h1l.54-.05,0,1.09Z"/><path class="cls-3" d="M199.75,19.74a1.5,1.5,0,0,0,.05.37h-1.26c0,.23,0,.48,0,.75s0,.57,0,.88v1.58c0,.5,0,.91,0,1.21a2.85,2.85,0,0,0,.12.71.6.6,0,0,0,.24.34.87.87,0,0,0,.42.1l.41-.05.27-.1v.58a3.94,3.94,0,0,1-.73.25,4.11,4.11,0,0,1-.85.1q-1.83,0-1.83-2.19c0-.28,0-.59,0-.95s0-.72,0-1.09,0-.74,0-1.1,0-.69,0-1h-1a1.49,1.49,0,0,0,0-.36,2.6,2.6,0,0,0,0-.39l1,.05c0-.29,0-.57,0-.83s0-.57,0-1l1-.43,1-.47.14.1c0,.15,0,.34,0,.54l0,.66c0,.22,0,.46,0,.7v.68h1.27a1.74,1.74,0,0,0-.05.39"/><path class="cls-3" d="M141.37,41.87h-2.5l-.49-1.43c-.16-.49-.33-1-.51-1.49h-3.35c-.2.49-.38,1-.54,1.49s-.31,1-.44,1.43h-1.41l.46-1,.63-1.5.76-1.8.8-2,.78-1.94.7-1.78.27,0h.56l.26,0,1,2.63,1.07,2.75,1.05,2.55c.34.81.65,1.49.92,2m-5.1-7.22c-.25.58-.48,1.15-.71,1.7s-.44,1.12-.65,1.72h2.65l-.64-1.72-.65-1.7"/><path class="cls-3" d="M148.45,39.54c0,.79.05,1.58.1,2.36H146.5a.69.69,0,0,0,0-.2V41a1.8,1.8,0,0,1,0-.22h0a2.35,2.35,0,0,1-.76,1,2.16,2.16,0,0,1-1.31.37,2.62,2.62,0,0,1-1.26-.29,2.48,2.48,0,0,1-.86-.78,3.72,3.72,0,0,1-.48-1.19,6.54,6.54,0,0,1-.17-1.46,4.7,4.7,0,0,1,.22-1.44,3.72,3.72,0,0,1,.58-1.14,2.72,2.72,0,0,1,.9-.75,2.33,2.33,0,0,1,1.1-.27,2.25,2.25,0,0,1,1.16.29,2,2,0,0,1,.76.78h0c0-.86,0-1.68,0-2.46s0-1.57-.1-2.38l.48,0H148l.48,0-.09,2.41c0,.79-.05,1.66,0,2.6v1c0,.94,0,1.8,0,2.6m-4.48.29a3,3,0,0,0,.27.82,1.1,1.1,0,0,0,.39.44,1,1,0,0,0,.46.15,1.14,1.14,0,0,0,1-.68,4.79,4.79,0,0,0,.39-2.24,4,4,0,0,0-.36-2,1.08,1.08,0,0,0-.93-.61.93.93,0,0,0-.46.12,1.16,1.16,0,0,0-.41.47,3,3,0,0,0-.32.87,7.74,7.74,0,0,0,0,2.63"/><path class="cls-3" d="M154.28,37.47l.85-2.53.3.05H156l.31-.05-.55,1.31-.71,1.63-.75,1.9c-.26.67-.5,1.37-.71,2.09H152l-.63-1.82-.71-2-.65-1.8-.51-1.36.58,0h1.1l.53,0,.78,2.53.83,2.53h0c.31-.85.61-1.69.9-2.53"/><path class="cls-3" d="M157.44,31.39a1.15,1.15,0,1,1,0,1.62,1.18,1.18,0,0,1-.33-.82,1.1,1.1,0,0,1,.34-.8m-.17,5.08c0-.52-.05-1-.1-1.55l.49,0h.61a6.67,6.67,0,0,0,1.09-.08c-.05.52-.08,1-.1,1.56s0,1.07,0,1.65v.59c0,.58,0,1.13,0,1.65s.05,1,.1,1.51H157.2c.05-.49.08-1,.1-1.51s0-1.07,0-1.65V38.1q0-.87,0-1.65"/><path class="cls-3" d="M161.48,40.53a1.5,1.5,0,0,0,.34.37,1.47,1.47,0,0,0,.49.27,2.05,2.05,0,0,0,.65.1,1.1,1.1,0,0,0,.78-.27.79.79,0,0,0,.27-.56.71.71,0,0,0-.25-.54,2.81,2.81,0,0,0-.6-.36l-.8-.34a3.27,3.27,0,0,1-.8-.44,2.09,2.09,0,0,1-.61-.68,1.91,1.91,0,0,1-.24-1,2.1,2.1,0,0,1,.8-1.77,2.34,2.34,0,0,1,.82-.41,3.23,3.23,0,0,1,2,0,4.57,4.57,0,0,1,1,.51,3.94,3.94,0,0,0-.22.63,3.82,3.82,0,0,0-.12.66h-.42a2,2,0,0,0-.14-.39,1.7,1.7,0,0,0-.27-.39,1.53,1.53,0,0,0-.41-.31,1.37,1.37,0,0,0-.59-.13,1.22,1.22,0,0,0-.73.25.72.72,0,0,0-.29.61.67.67,0,0,0,.24.55,2.42,2.42,0,0,0,.64.37l.82.32a3.56,3.56,0,0,1,.83.41,1.91,1.91,0,0,1,.88,1.7,2.61,2.61,0,0,1-.22,1.1,2.19,2.19,0,0,1-.64.75,2.44,2.44,0,0,1-.9.44,4.55,4.55,0,0,1-1,.12,3.35,3.35,0,0,1-1.17-.2,3.66,3.66,0,0,1-.83-.38,7.32,7.32,0,0,0,.22-1.39h.37a2,2,0,0,0,.22.44"/><path class="cls-3" d="M168.6,39.51a2.84,2.84,0,0,0,.37.88,1.71,1.71,0,0,0,1.46.8,2.68,2.68,0,0,0,1.77-.66l.17.13-.31.8a2.88,2.88,0,0,1-.88.43,4,4,0,0,1-1.33.17,4.3,4.3,0,0,1-1.34-.19,2.83,2.83,0,0,1-1.12-.63,3.06,3.06,0,0,1-.75-1.15,4.1,4.1,0,0,1-.3-1.63,4.69,4.69,0,0,1,.25-1.62,3.23,3.23,0,0,1,.7-1.17,3.08,3.08,0,0,1,1.07-.71,3.83,3.83,0,0,1,1.34-.24,2.85,2.85,0,0,1,2.19.83,3.35,3.35,0,0,1,.75,2.36v.29a1,1,0,0,1,0,.17h-4.11a5,5,0,0,0,.12,1.09M170.48,36a.85.85,0,0,0-.8-.66.73.73,0,0,0-.54.22,1.68,1.68,0,0,0-.34.56,4.13,4.13,0,0,0-.19.77,6.23,6.23,0,0,0-.07.86h2.23A5.63,5.63,0,0,0,170.5,36"/><path class="cls-3" d="M176,36.72a3.46,3.46,0,0,1,.9-1.46,1.89,1.89,0,0,1,1.26-.47h.24c0,.16,0,.31-.07.47a5,5,0,0,0,0,.58v.71a1.94,1.94,0,0,0,0,.24l-.12.12-.32-.15-.41,0a1.28,1.28,0,0,0-1,.43,1.55,1.55,0,0,0-.37,1v.59q0,.87,0,1.65c0,.52.05,1,.1,1.51H174a12.43,12.43,0,0,0,.07-1.51c0-.52,0-1.07,0-1.65v-.59q0-.87,0-1.65c0-.52,0-1-.07-1.55l.49,0h1l.48,0-.05,1.77Z"/></g></g></svg>