<svg xmlns="http://www.w3.org/2000/svg" id="Ebene_1" viewBox="0 0 300 129">
  <style>
    .st0,.st1{fill-rule:evenodd;clip-rule:evenodd;fill:#f39200}.st1{fill:#004e86}
  </style>
  <g id="Logo_ohne_Icons">
    <path d="M100.8 47.3c-1.7-.1-3.3-.2-5-.3-1-.1-2-.6-2.7-1.3-.7-1.2-1.7-2.2-2.6-3.3-.8-1-1.6-2-2.5-3-.4-.5-.5-1.5-.1-2 .7-.9 1.5-1.7 2.3-2.6.7-.8 1.4-1.6 2.2-2.4.5-.5 1.6-.8 2.3-.7 1.5.1 2.9.2 4.4.3 1.5.1 2.9.3 4.4.4.9.1 1.8.5 2.4 1.1.8 1 1.8 1.8 2.7 2.7.9 1 1.8 1.9 2.7 2.9.4.5.8 1.4.4 2l-1.8 2.7-1.9 2.9c-.5.7-1.6 1-2.4.9-1.5-.1-3.1-.2-4.8-.3m-1.3-3.2c-1.2-.1-2.4-.1-3.6-.2-.7-.1-1.5-.4-2-.9-.5-.9-1.3-1.6-1.9-2.4-.6-.7-1.2-1.5-1.8-2.2-.3-.4-.4-1.1-.1-1.5.5-.6 1.1-1.3 1.6-1.9.5-.6 1-1.2 1.6-1.7.4-.4 1.2-.6 1.7-.5 1.1.1 2.2.1 3.2.2 1.1.1 2.1.2 3.2.3.6.1 1.3.4 1.8.8.6.7 1.3 1.3 1.9 2 .7.7 1.3 1.4 1.9 2.1.3.4.6 1 .3 1.5-.4.7-.9 1.3-1.3 1.9l-1.4 2.1c-.3.5-1.2.7-1.8.7-1-.2-2.2-.3-3.3-.3m-27 3.1c-1.6.1-3.3.2-4.9.3-.9 0-1.9-.3-2.4-1-.5-1.1-1.3-2-2-3l-1.8-2.7c-.4-.6-.1-1.5.3-2 .9-1 1.8-1.9 2.7-2.9.9-.9 1.7-1.8 2.6-2.7.6-.6 1.6-1 2.5-1.1 1.5-.1 2.9-.3 4.4-.4l4.5-.3c.8 0 1.7.2 2.3.7.6.9 1.5 1.6 2.2 2.4.8.9 1.5 1.7 2.3 2.6.4.5.5 1.5 0 2-.8 1-1.7 2-2.5 3-.9 1.1-1.7 2.2-2.6 3.3-.6.7-1.8 1.3-2.7 1.3-1.5.3-3.2.4-4.9.5m-.4-3.2c-1.2.1-2.4.1-3.6.2-.6 0-1.3-.2-1.8-.7-.3-.8-1-1.4-1.4-2.1L64 39.5c-.3-.4-.1-1.1.2-1.5.6-.7 1.3-1.4 2-2.1.6-.7 1.3-1.3 1.9-2 .4-.4 1.2-.7 1.8-.8 1.1-.1 2.1-.2 3.2-.3 1.1-.1 2.2-.1 3.3-.2.6 0 1.3.1 1.7.5.4.6 1.1 1.2 1.6 1.8.6.6 1.1 1.3 1.6 1.9.3.4.3 1.1 0 1.5-.6.7-1.2 1.5-1.8 2.2-.6.8-1.3 1.6-1.9 2.3-.4.5-1.3.9-2 .9-1.1.1-2.3.2-3.5.3m-25.6 6.2c-1.4.3-2.7.5-4 .8-.6.1-1.4-.1-1.8-.7-.2-.9-.7-1.7-1.1-2.6-.3-.8-.6-1.5-.9-2.3-.2-.6.2-1.4.6-1.9.9-1 1.7-2 2.6-3 .9-1 1.8-1.9 2.6-2.9.6-.6 1.4-1.1 2.2-1.3 1.2-.3 2.4-.6 3.7-.9l3.9-.9c.6-.1 1.4-.1 1.9.4.3.7 1 1.4 1.4 2l1.5 2.2c.3.6 0 1.5-.4 2-.9 1.1-1.8 2.2-2.8 3.3-.9 1.1-1.9 2.3-2.8 3.5-.6.7-1.6 1.4-2.5 1.5-1.2.3-2.6.5-4.1.8m.3-2.8c-1 .2-2 .4-2.9.6-.4.1-1 0-1.3-.5-.1-.6-.5-1.2-.8-1.8l-.7-1.7c-.1-.5.2-1.1.5-1.4.6-.8 1.3-1.5 1.9-2.2.6-.7 1.3-1.4 1.9-2.1.4-.4 1-.8 1.6-1 .9-.2 1.8-.5 2.7-.7.9-.2 1.9-.4 2.8-.6.4-.1 1-.1 1.3.3.2.5.7 1 1 1.5l1.1 1.6c.2.4 0 1.1-.3 1.5-.7.8-1.3 1.6-2 2.4-.7.8-1.4 1.7-2 2.5-.4.5-1.2 1-1.8 1.1-.9.1-2 .3-3 .5m-20.1 8.1c-.9.3-1.8.7-2.8 1.1-.4.1-.9 0-1-.4 0-.7-.2-1.5-.2-2.2-.1-.7-.1-1.3-.1-2 0-.6.4-1.3.8-1.8.7-1 1.5-2 2.2-3 .8-1 1.5-1.9 2.3-2.9.5-.5 1.1-1.1 1.7-1.4.9-.4 1.7-.9 2.6-1.3.9-.4 1.9-.8 2.8-1.2.3-.1 1-.3 1.2.1 0 .6.4 1.2.6 1.7.2.6.4 1.3.7 1.9.2.6-.3 1.4-.7 1.9-.9 1.1-1.7 2.2-2.6 3.3-.9 1.1-1.7 2.3-2.5 3.4-.5.6-1.2 1.4-2 1.6-1.1.4-2.1.8-3 1.2m.4-1.7c-.8.3-1.5.6-2.2.9-.3.1-.7 0-.8-.3 0-.6-.1-1.2-.2-1.7 0-.5-.1-1.1-.1-1.6s.3-1 .6-1.4l1.8-2.4c.6-.8 1.2-1.6 1.9-2.3.4-.4.9-.9 1.4-1.2.7-.3 1.4-.7 2.1-1 .8-.3 1.5-.7 2.3-1 .3-.1.8-.2 1 .1 0 .5.3 1 .4 1.4.2.5.3 1 .5 1.5.1.5-.2 1.2-.5 1.5L33.2 49c-.7.9-1.4 1.8-2 2.8-.4.5-1 1.1-1.6 1.3-.9.1-1.7.4-2.5.7M14 61.7c-.5.4-1 .7-1.6 1.1-.3.2-.4 0-.4-.3.1-.6.2-1.3.3-1.9.1-.6.2-1.1.4-1.7.2-.6.5-1.1.8-1.6.6-.9 1.1-1.9 1.7-2.8l1.8-2.7c.3-.5.7-1 1.2-1.4.5-.5 1-.9 1.6-1.3.6-.5 1.2-.9 1.8-1.3.1-.1.6-.3.6 0-.1.5-.1 1-.1 1.5s-.1 1.1-.1 1.6c0 .6-.4 1.3-.8 1.8-.7 1-1.4 2.1-2.1 3.1-.7 1.1-1.4 2.1-2 3.2-.3.5-.8 1.2-1.4 1.6-.6.3-1.1.7-1.7 1.1m.5-1.5c-.4.3-.8.6-1.3.9-.2.1-.3 0-.3-.2l.3-1.5c.1-.5.2-.9.3-1.4.1-.5.4-.9.6-1.3.5-.8.9-1.5 1.4-2.2.5-.7 1-1.5 1.5-2.2.3-.4.6-.8 1-1.1.4-.4.8-.7 1.3-1.1.5-.4.9-.7 1.4-1.1.1-.1.5-.2.5 0-.1.4-.1.8-.1 1.2 0 .4-.1.9-.1 1.3 0 .5-.4 1-.6 1.4-.6.8-1.1 1.7-1.7 2.5-.6.9-1.1 1.7-1.6 2.6-.3.4-.6 1-1.1 1.3l-1.5.9m16.6 13.5l-3.6.6c-.7.1-1.3-.4-1.6-1-.2-1.1-.7-2.3-1-3.4-.3-1-.6-2.1-.8-3.1-.2-.8.1-1.8.5-2.5.7-1.3 1.5-2.5 2.3-3.8.8-1.2 1.6-2.5 2.4-3.7.4-.6 1.2-1.4 2-1.6 1.1-.3 2.3-.6 3.4-1l3.6-.9c.6-.1 1.4.1 1.8.7.2 1 .9 2 1.3 3 .5 1.1.9 2.1 1.4 3.2.3.8.1 2-.4 2.7-.9 1.4-1.8 2.8-2.6 4.2-.9 1.4-1.7 2.8-2.6 4.3-.4.7-1.4 1.6-2.3 1.7-1.3.2-2.5.4-3.8.6m.2-2.3c-1 .2-1.9.3-2.9.5-.5.1-1.1-.3-1.3-.8-.2-.9-.6-1.8-.8-2.7-.2-.8-.5-1.7-.7-2.5-.1-.6.1-1.4.4-2 .6-1 1.2-2.1 1.9-3.1.6-1 1.3-2 1.9-3 .4-.5 1-1.2 1.6-1.3.9-.2 1.8-.5 2.7-.8 1-.3 2-.5 2.9-.7.5-.1 1.1.1 1.4.6.2.8.7 1.7 1 2.4.4.9.7 1.7 1.1 2.6.2.7 0 1.6-.3 2.2-.7 1.1-1.4 2.2-2.1 3.4-.7 1.1-1.4 2.3-2.1 3.4-.4.6-1.1 1.3-1.9 1.4-.8 0-1.8.2-2.8.4m-16.8 5.9c-.7.2-1.4.4-2.1.7-.5.1-.7-.4-.8-.8 0-1-.2-1.9-.3-2.9-.1-.9-.1-1.8-.1-2.6 0-.7.2-1.5.6-2.2.5-1.1 1.1-2.3 1.7-3.4.6-1.1 1.2-2.3 1.8-3.4.3-.5.8-1.3 1.4-1.6.7-.4 1.4-.7 2.1-1.1.8-.4 1.5-.7 2.3-1.1.4-.1.9.1 1 .5 0 .9.3 1.8.4 2.6.2.9.4 1.8.6 2.8.1.8-.1 1.8-.5 2.4l-2.1 3.9c-.7 1.3-1.3 2.6-2 3.9-.3.6-.9 1.5-1.6 1.6-.9.2-1.7.4-2.4.7m.3-2.1c-.6.2-1.1.4-1.7.6-.4.1-.6-.3-.7-.6 0-.8-.1-1.5-.2-2.3-.1-.7-.1-1.4-.1-2.1 0-.6.2-1.2.5-1.8.4-.9.9-1.8 1.4-2.8l1.5-2.7c.3-.4.6-1 1.1-1.3.6-.3 1.1-.6 1.7-.9.6-.3 1.2-.6 1.9-.9.3-.1.7 0 .8.4 0 .7.2 1.4.3 2.1.1.7.3 1.5.4 2.2.1.6-.1 1.4-.4 2-.6 1-1.1 2.1-1.7 3.1-.5 1-1.1 2.1-1.6 3.1-.2.5-.7 1.2-1.3 1.3-.7.2-1.3.4-1.9.6M5.5 81l-.9.6c-.2.1-.3-.5-.2-.7.1-.8.1-1.6.2-2.4.1-.7.2-1.5.3-2.2.1-.6.3-1.3.5-1.9.4-1 .7-2 1.1-3 .4-1 .8-2 1.2-2.9.2-.5.4-1 .8-1.4l1-1c.4-.4.8-.7 1.2-1.1.3-.2.4.1.4.4-.1.7-.1 1.5-.2 2.2 0 .8-.1 1.6-.1 2.3 0 .7-.3 1.5-.6 2.1-.5 1.1-1 2.3-1.4 3.4-.5 1.1-.9 2.3-1.3 3.4-.2.4-.4 1.3-.9 1.4-.4.3-.8.5-1.1.8m.3-1.8c-.3.2-.5.3-.8.5-.2.1-.2-.4-.2-.5.1-.6.2-1.2.2-1.9.1-.6.1-1.2.2-1.8.1-.5.2-1 .4-1.5l.9-2.4c.3-.8.7-1.6 1-2.4.3-.4.5-.9.8-1.2.3-.3.5-.6.8-.8.3-.3.6-.6 1-.8.2-.2.3.1.3.3-.1.6-.1 1.2-.2 1.8 0 .6-.1 1.3-.1 1.9 0 .6-.2 1.2-.4 1.7l-1.2 2.7c-.4.9-.7 1.8-1.1 2.7-.1.3-.4 1-.7 1.2-.3.1-.6.3-.9.5m1.7 19.5l-1.5.1c-.4-.1-.6-.8-.7-1.1-.1-1.1-.3-2.1-.5-3.2l-.3-3c-.1-.7 0-1.5.2-2.3.3-1.1.6-2.2 1-3.3.3-1.1.7-2.3 1.1-3.4.1-.4.4-1.3.9-1.4l1.5-.6c.6-.2 1.1-.4 1.7-.6.5-.1.7.5.8.9.1 1.1.3 2.2.5 3.2.2 1.1.4 2.2.7 3.3.2.8.1 1.8-.2 2.6-.4 1.3-.9 2.5-1.3 3.8-.4 1.2-.8 2.5-1.1 3.7-.1.4-.5 1.3-1 1.3H7.5m0-2.1l-1.2.1c-.3 0-.5-.6-.5-.9-.1-.9-.3-1.7-.4-2.6-.1-.8-.2-1.6-.3-2.5 0-.6 0-1.3.2-1.8.2-.9.5-1.8.8-2.7.3-.9.6-1.8.9-2.8.1-.3.4-1 .7-1.2.4-.2.8-.3 1.2-.5.5-.2.9-.3 1.4-.5.4-.1.6.4.6.7.1.9.3 1.7.4 2.6.2.9.3 1.8.5 2.7.1.7 0 1.5-.2 2.1-.4 1-.7 2-1 3.1l-.9 3c-.1.3-.4 1.1-.8 1.1-.5 0-.9.1-1.4.1m-5.9 2.5l-.5.1c-.2-.1-.2-.7-.2-.9 0-.9-.1-1.8-.1-2.7v-2.5c0-.6.1-1.3.2-1.9.1-.9.3-1.9.5-2.8.2-1 .4-1.9.6-2.9.1-.3.1-1 .4-1.2.2-.2.4-.4.6-.5.2-.2.5-.4.7-.6.2-.1.2.6.2.7-.1.9 0 1.8 0 2.7 0 .9.1 1.9.1 2.8 0 .7 0 1.5-.2 2.2-.2 1.1-.5 2.1-.7 3.2-.2 1-.4 2.1-.6 3.1 0 .2-.2 1.1-.4 1.1s-.4.1-.6.1m.1-1.8l-.4.1c-.2-.1-.2-.6-.2-.7v-4.2c0-.5.1-1 .2-1.5.1-.8.3-1.5.4-2.3.1-.8.3-1.5.5-2.3.1-.3.1-.8.3-1 .2-.1.3-.3.5-.4.2-.2.4-.3.6-.4.2-.1.2.5.2.6v2.2c0 .7 0 1.5.1 2.2 0 .6 0 1.2-.2 1.8-.4.7-.5 1.6-.7 2.4-.2.8-.3 1.7-.5 2.5 0 .2-.2.9-.3.9-.2.1-.4.1-.5.1m84.2-66.8c-1.5 0-3 0-4.5.1-.8 0-1.7-.2-2.3-.7-.5-.7-1.3-1.3-2-1.9-.6-.6-1.2-1.1-1.8-1.7-.3-.3-.2-.9.2-1.2.7-.6 1.5-1.1 2.3-1.7.7-.5 1.4-1 2.2-1.5.6-.4 1.4-.5 2.1-.5 1.3 0 2.6-.1 3.9-.1 1.3 0 2.6 0 3.9.1.7 0 1.5.2 2.1.5.7.6 1.5 1 2.2 1.5.8.5 1.5 1.1 2.2 1.6.3.3.6.9.2 1.2-.6.6-1.2 1.1-1.9 1.7-.7.6-1.3 1.3-2 1.9-.5.5-1.6.7-2.3.7h-4.5m-.2-1.2h-3.6c-.6 0-1.3-.1-1.8-.5-.4-.6-1.1-1-1.6-1.5s-1-.9-1.5-1.3c-.3-.3-.2-.7.1-1 .6-.5 1.2-.9 1.8-1.3.6-.4 1.2-.8 1.7-1.2.5-.3 1.2-.4 1.7-.4h6.4c.6 0 1.2.1 1.7.4.5.4 1.2.8 1.7 1.2.6.4 1.2.9 1.8 1.3.3.2.5.7.2 1-.5.5-1 .9-1.5 1.3-.5.5-1.1 1-1.6 1.5-.4.4-1.3.6-1.9.5h-3.6m-24.3 3.1c-1.4.2-2.7.5-4.1.7-.6.1-1.4.1-1.8-.3-.2-.6-.8-1.1-1.2-1.6-.3-.5-.7-.9-1-1.4-.2-.4.3-1 .6-1.2.8-.7 1.7-1.3 2.5-2 .8-.6 1.6-1.2 2.5-1.8.6-.4 1.4-.7 2.1-.9 1.2-.2 2.4-.5 3.6-.7 1.2-.2 2.5-.4 3.7-.6.6-.1 1.3-.1 1.8.2.4.5 1 .8 1.5 1.1.5.4 1.1.9 1.6 1.3.4.3.1.9-.2 1.2-.8.7-1.6 1.3-2.4 2-.8.7-1.7 1.5-2.5 2.2-.6.5-1.6.9-2.4 1-1.6.3-2.9.5-4.3.8m.1-1.2l-3.3.6c-.5.1-1.1.1-1.5-.3-.2-.5-.7-.9-1-1.3l-.9-1.1c-.2-.3.2-.8.4-1 .7-.5 1.4-1.1 2-1.6.7-.5 1.3-1 2-1.5.5-.3 1.1-.6 1.7-.7 1-.2 1.9-.4 2.9-.6 1-.2 2-.3 3-.5.5-.1 1-.1 1.5.1.3.4.8.6 1.2.9.4.3.9.7 1.3 1 .3.3.1.8-.2 1-.7.5-1.3 1.1-2 1.6-.7.6-1.4 1.2-2 1.8-.5.4-1.3.8-1.9.8-.9.5-2.1.6-3.2.8m-21 6.3c-1.1.4-2.1.8-3.1 1.2-.3.1-1 .3-1.2-.1 0-.4-.2-.9-.4-1.3-.1-.4-.2-.8-.3-1.1 0-.4.5-.9.8-1.2.8-.7 1.6-1.5 2.4-2.2.8-.7 1.6-1.4 2.4-2 .5-.4 1.2-.8 1.8-1.1.9-.4 1.9-.8 2.8-1.2 1-.4 2-.8 3-1.1.4-.1 1-.3 1.3-.1.1.3.5.6.7.9.3.3.6.7.8 1 .2.4-.3 1-.6 1.2-.9.8-1.7 1.5-2.6 2.3-.9.8-1.8 1.6-2.6 2.5-.6.6-1.4 1.1-2.2 1.3-.8.2-1.9.6-3 1m.5-1.1c-.8.3-1.7.6-2.5.9-.2.1-.8.2-1-.1 0-.3-.2-.7-.3-1.1-.1-.3-.2-.6-.2-.9 0-.3.4-.8.6-1 .6-.6 1.3-1.2 2-1.8.6-.6 1.3-1.1 2-1.7.4-.4 1-.7 1.5-.9.8-.3 1.5-.6 2.3-.9l2.4-.9c.3-.1.8-.3 1.1-.1.1.2.4.5.6.7l.6.8c.2.3-.3.8-.5 1l-2.1 1.8c-.7.7-1.4 1.3-2.1 2-.5.4-1.1.9-1.7 1-1 .6-1.8.9-2.7 1.2m-15.6 8.2c-.7.4-1.4.9-2.1 1.3-.1.1-.6.3-.6 0l.3-1.2c.1-.4.2-.7.3-1 .2-.4.5-.8.9-1.2.7-.8 1.4-1.5 2.1-2.2l2.1-2.1c.4-.4.9-.9 1.4-1.2.7-.5 1.3-.9 2-1.4.7-.5 1.4-.9 2.2-1.4.1-.1.7-.4.8-.2-.1.2 0 .5 0 .8 0 .3.1.6.1.9 0 .4-.5.9-.8 1.2l-2.4 2.4c-.8.8-1.6 1.7-2.4 2.6-.5.5-1 1.1-1.7 1.4-.7.4-1.5.8-2.2 1.3m.6-1.1c-.6.4-1.1.7-1.7 1.1-.1.1-.5.3-.5 0 .1-.3.1-.6.2-.9.1-.3.2-.6.2-.8.1-.4.4-.7.7-1 .6-.6 1.1-1.2 1.7-1.8.6-.6 1.1-1.2 1.7-1.7.4-.4.7-.7 1.2-1 .5-.4 1.1-.7 1.6-1.1.6-.4 1.2-.7 1.7-1.1.1-.1.6-.3.6-.2-.1.2 0 .4 0 .6 0 .2 0 .5.1.7 0 .3-.4.7-.7 1-.6.6-1.3 1.3-1.9 2-.6.7-1.3 1.4-1.9 2.1-.4.4-.8.9-1.3 1.1-.5.3-1.1.7-1.7 1m71.3-22.1c-1.3-.1-2.5-.2-3.8-.3-.7-.1-1.4-.2-2.1-.5-.6-.4-1.3-.8-2-1.1-.6-.3-1.2-.6-1.9-.9-.2-.1-.4-.4-.1-.6.5-.2 1.1-.4 1.7-.6.5-.2 1-.3 1.6-.5.5-.1 1.1-.1 1.7-.1 1.1.1 2.2.2 3.2.3 1.1.1 2.2.2 3.2.4.6.1 1.2.2 1.8.4.7.3 1.4.5 2.1.8.7.3 1.4.6 2.1 1 .1.1.7.4.4.6l-1.2.6c-.4.2-.9.5-1.3.8-.5.3-1.3.2-1.8.1-1.1-.1-2.3-.3-3.6-.4m-.4-.6c-1-.1-2-.2-3-.2-.6 0-1.2-.2-1.7-.4-.5-.4-1.1-.6-1.6-.9-.5-.3-1-.5-1.5-.7-.2-.1-.3-.3-.1-.4.4-.2.9-.3 1.3-.5.4-.1.8-.3 1.3-.4.4-.1.9-.1 1.4-.1.9.1 1.8.1 2.6.2.9.1 1.8.2 2.6.3l1.5.3c.5.2 1.1.4 1.7.7.6.2 1.1.5 1.7.8.1.1.6.3.3.5s-.7.3-1 .5c-.4.2-.7.4-1.1.6-.4.2-1 .2-1.5.1-.9-.2-1.9-.3-2.9-.4m-21.1.5c-1.3.1-2.5.2-3.8.4-.6.1-1.3.1-1.8-.2-.3-.3-.9-.5-1.4-.8l-1.2-.6c-.3-.2.2-.5.3-.6.7-.3 1.4-.7 2.1-1 .7-.3 1.4-.6 2-.8.6-.2 1.2-.3 1.8-.4 1.1-.1 2.1-.2 3.2-.3 1.1-.1 2.2-.2 3.3-.2.6 0 1.1 0 1.7.1.5.2 1.1.3 1.6.5.6.2 1.1.4 1.7.6.3.1.3.4 0 .5-.6.3-1.2.6-1.9.9-.7.3-1.3.7-2 1.1-.6.3-1.4.5-2.1.5-1 .1-2.2.2-3.5.3m0-.6l-3 .3c-.5 0-1 .1-1.5-.1-.3-.3-.8-.4-1.1-.6-.3-.2-.7-.3-1-.5-.2-.1.1-.4.3-.5.6-.3 1.1-.5 1.7-.8.5-.2 1.1-.4 1.6-.7.5-.2 1-.3 1.5-.3.9-.1 1.7-.2 2.6-.3.9-.1 1.8-.1 2.7-.2.5 0 .9 0 1.4.1.4.2.9.3 1.3.4.5.2.9.3 1.3.5.2.1.2.3 0 .4-.5.2-1 .5-1.5.7-.5.3-1.1.5-1.6.8-.5.3-1.1.4-1.7.4-1 .2-2 .3-3 .4m10.1-4.2h-3.3c-.6 0-1.1 0-1.7-.1-.5-.1-1-.2-1.4-.3-.4-.1-.9-.1-1.3-.2-.3 0 0-.1.1-.2.5-.1 1.1-.2 1.6-.3.5-.1 1-.1 1.6-.2.4 0 .8-.1 1.2-.1.1 0 .2-.1.3 0h5.6c.1 0 .2 0 .3.1.4 0 .8 0 1.2.1.5.1 1.1.1 1.6.2s1.1.2 1.6.3c.1 0 .4.1.2.2-.4 0-.9.1-1.3.2-.5.1-.9.2-1.4.3-.5.1-1.1.1-1.7.1-1-.1-2.1-.1-3.2-.1m-.1-.2h-2.6c-.4 0-.9 0-1.3-.1s-.8-.1-1.2-.2c-.4-.1-.7-.1-1.1-.1-.2 0 0-.1.1-.1.4-.1.9-.2 1.3-.2.4-.1.8-.1 1.3-.2.4 0 .8-.1 1.2-.1h4.6c.4 0 .8 0 1.2.1.4.1.8.1 1.3.2.4.1.9.1 1.3.2.1 0 .3.1.1.1-.4 0-.7.1-1.1.1-.4.1-.8.1-1.2.2-.4.1-.9.1-1.4.1h-2.5m-30.2 8.5c-1.1.3-2.2.6-3.2.9-.4.1-1 .3-1.3.1-.1-.2-.4-.4-.6-.6-.2-.2-.3-.3-.5-.4-.1-.2.5-.6.6-.6.7-.4 1.5-.9 2.3-1.3.7-.4 1.5-.8 2.2-1.2.6-.3 1.2-.5 1.8-.7.9-.3 1.9-.6 2.8-.8 1-.3 2-.5 3-.8.4-.1.9-.2 1.4-.2.3.2.7.2 1 .3.4.1.7.2 1 .4.3.1-.3.5-.4.6-.8.4-1.5.8-2.3 1.2-.8.5-1.6.9-2.3 1.4-.6.4-1.4.7-2.1.8-1.1.3-2.3.6-3.4.9m.3-.6c-.9.2-1.7.5-2.6.8-.3.1-.8.2-1.1.1-.1-.2-.4-.3-.5-.4-.1-.1-.3-.2-.4-.3-.1-.1.4-.4.5-.5.6-.4 1.2-.7 1.8-1l1.8-.9c.5-.2.9-.4 1.4-.6.8-.2 1.5-.5 2.3-.7l2.4-.6c.4-.1.8-.2 1.1-.2.2.1.5.1.8.2.3.1.6.2.8.3.2.1-.2.4-.3.5-.6.3-1.2.7-1.8 1-.6.4-1.3.7-1.9 1.1-.5.3-1.1.5-1.7.7-.8 0-1.7.3-2.6.5M39.2 31c-.8.4-1.6.8-2.4 1.3-.1.1-.7.4-.8.3.1-.1 0-.4 0-.5 0-.1 0-.3.1-.4.1-.3.6-.5.8-.7.7-.5 1.4-1 2.1-1.6.7-.5 1.4-1 2.1-1.4l1.5-.9c.7-.4 1.5-.8 2.3-1.2.8-.4 1.6-.8 2.4-1.1.3-.1.7-.4 1-.3l.3.2c.1.1.3.2.4.3.1.1-.6.6-.7.6-.8.5-1.6 1-2.3 1.6-.8.6-1.6 1.1-2.4 1.7-.6.4-1.2.8-1.8 1.1-.9.2-1.8.6-2.6 1m.5-.6c-.7.3-1.3.7-2 1-.1.1-.6.3-.7.2v-.7c.1-.2.5-.4.6-.6.6-.4 1.2-.8 1.7-1.3.6-.4 1.2-.8 1.7-1.2.4-.3.8-.5 1.2-.7.6-.3 1.2-.6 1.8-1 .6-.3 1.3-.6 1.9-.9.2-.1.5-.3.8-.3 0 0 .2.1.2.2.1.1.2.1.3.2.1.1-.5.5-.6.5-.6.4-1.3.8-1.9 1.3-.6.4-1.3.9-1.9 1.4-.4.3-.9.6-1.4.9-.3.3-1 .7-1.7 1M1.3 83.1c0 .3-.1.7-.2 1 0 .2-.1.6 0 .5.1-.2.2-.3.3-.5.1-.2.2-.4.3-.5.2-.3.3-.8.4-1.1.2-.9.5-1.8.7-2.6.3-.9.5-1.8.8-2.6.2-.5.3-1.1.4-1.6.1-.6.2-1.2.4-1.8.1-.6.3-1.2.4-1.7 0-.1.1-.4 0-.3-.2.3-.3.5-.4.8-.1.1-.1.4-.3.5l.1-.3c.1 0 .3-.5.3-.6.2-.3.3-.6.5-.9.1-.2 0 .2 0 .3-.2.6-.3 1.3-.5 1.9-.2.7-.3 1.3-.4 2-.1.6-.3 1.2-.5 1.8-.3 1-.6 1.9-.9 2.9-.3 1-.6 1.9-.8 2.9-.1.4-.2.9-.4 1.2-.1.2-.3.4-.4.5 0 .2-.1.4-.1.5-.1.2 0-.4 0-.6.1-.3.2-.7.2-1.1l.1-.6zm6-17.6c-.2.4-.3.8-.5 1.2-.2.5-.3 1-.5 1.5 0 .1-.1.4 0 .2l.6-.9c.2-.3.5-.6.7-.9.3-.4.5-.8.7-1.3.4-.9.9-1.7 1.3-2.6.5-.9.9-1.7 1.4-2.6.3-.5.5-.9.7-1.4.1-.4.3-.9.5-1.3s.3-.8.5-1.3c.1-.2 0-.1-.1 0-.3.4-.6.7-.9 1.1-.3.4-.5.7-.8 1.1-.1.1-.2.3-.3.4.1-.2.2-.5.4-.6l.9-1.2c.3-.4.6-.8 1-1.3.1-.1.3-.2.2 0-.2.4-.4.9-.5 1.4-.2.5-.3 1-.5 1.5-.2.6-.5 1.1-.7 1.6-.5.9-1.1 1.9-1.6 2.9s-1 1.9-1.5 2.9c-.2.5-.5 1-.8 1.4-.3.3-.6.7-.8 1-.2.3-.5.7-.7 1-.1.2 0-.2 0-.3.2-.6.4-1.1.6-1.7l.6-1.5c0-.1.1-.2.1-.3m8.2-14.1c-.1.3-.3.6-.5.9-.2.3-.4.7-.5 1-.1.2.1 0 .2 0 .3-.4.7-.8 1.1-1.2l1.2-1.2c.4-.4.7-.8 1.1-1.3.6-.8 1.2-1.5 1.7-2.3.6-.7 1.2-1.5 1.8-2.2.3-.3.6-.7.8-1.1.1-.3.2-.5.4-.8.1-.2.2-.5.4-.7 0-.1-.3.2-.3.2-.4.4-.8.8-1.3 1.2 0 0-.1 0-.1.1.1 0 .3-.3.3-.3l1.4-1.4c.1-.1.4-.3.4-.2-.2.2-.3.5-.4.8-.1.3-.3.6-.4.8-.2.4-.6.8-.9 1.2-.7.8-1.3 1.6-2 2.4-.7.8-1.3 1.7-1.9 2.5-.4.5-.7 1-1.2 1.4l-1.3 1.3c-.4.4-.8.9-1.2 1.3-.1.1-.3.3-.2 0 .2-.4.4-.8.6-1.1.2-.3.4-.6.5-.9l.3-.4zm19.8-19.7c0 .1-.1.1-.1.2-.1.1-.1.2-.1.3-.2.3-.6.5-.8.7-.7.6-1.4 1.2-2.2 1.8-.7.6-1.4 1.3-2.1 1.9-.5.4-.9.8-1.4 1.2-.6.4-1.2.9-1.8 1.4-.6.5-1.1.9-1.6 1.4-.1.1-.4.3-.4.3.1-.1.2-.3.3-.5l.4-.4c-.1.1-.2.3-.3.4 0 0 .3-.2.4-.3.5-.4 1-.8 1.5-1.3.5-.4 1.1-.8 1.6-1.3.4-.3.9-.7 1.3-1.1.6-.6 1.3-1.1 1.9-1.7.6-.5 1.3-1.1 1.9-1.6.2-.2.6-.4.7-.7 0-.1.1-.2.1-.3 0 0 .1-.1.1-.2l.6-.2z" class="st0"/>
    <path d="M0 98.6s0-.1 0 0c.1 0 .2-.8.2-.9.1-.8.1-1.6.2-2.4l.3-2.4c.1-.6.1-1.1.2-1.7 0-.7.1-1.4.2-2.1.1-.7.1-1.4.2-2 0-.2.1-.7 0-.6 0 0 0 .1-.1.1l.1-.4c.1 0 .1-.1.1-.2.1-.2 0 .4 0 .6-.2.9-.3 1.6-.4 2.4-.1.8-.1 1.6-.2 2.3 0 .6-.1 1.2-.2 1.9l-.3 2.7c-.1.9-.1 1.7-.2 2.6 0 .3.2 1-.1.9v-.8zM60.3 19c.1.1.4 0 .5 0 0 0-.4.2-.5.2-.7.3-1.4.5-2 .8l-2.1.9c-.6.3-1.1.5-1.7.7-.9.3-1.8.6-2.6 1-.9.3-1.7.7-2.5 1-.3.1-.6.3-1 .3h-.3l.5-.3h.3c.3 0 .6-.2.9-.3.8-.3 1.5-.6 2.3-.9l2.4-.9c.5-.2 1-.4 1.6-.6.6-.3 1.3-.6 1.9-.8.6-.3 1.2-.5 1.9-.7.2-.1.6-.2.4-.2-.1 0-.3.1-.4 0l.4-.2zm14-3s.1 0 0 0h2.4c.3 0-.1.1-.2.2-.6.1-1.2.3-1.8.5-.6.2-1.3.4-1.9.6-.6.2-1.2.3-1.8.4-1 .2-2.1.3-3.1.5l-3 .6c-.4.1-.9.2-1.4.2-.2-.1-.6-.1-.8-.1H62c-.1 0 .4-.2.4-.2.6-.2 1.3-.4 1.9-.6.1 0 .5-.1.6-.2l.4-.1c-.1.1-.5.2-.7.2-.6.2-1.2.4-1.7.5-.1 0-.4.2-.4.2h.7c.2 0 .5 0 .8.1.4 0 .8-.1 1.2-.2l2.7-.6c.9-.2 1.9-.3 2.8-.5.5-.1 1.1-.2 1.6-.4.6-.2 1.1-.3 1.7-.5.5-.1 1.1-.3 1.6-.4.1 0 .4-.1.2-.1h-2.2l.7-.1zm32.7 1.9c.1.1.4.2.5.2.6.2 1.3.4 1.9.6.1 0 .5.2.5.2h-.7c-.3 0-.5 0-.8.1-.4 0-.9-.1-1.4-.2l-3-.6c-1-.2-2.1-.4-3.1-.5-.6-.1-1.2-.2-1.8-.4-.6-.2-1.3-.4-1.9-.6-.6-.2-1.2-.3-1.8-.5-.1 0-.5-.2-.2-.2h2.3l.1-.1.4.1h-2.2c-.2 0 .1.1.2.2.5.1 1.1.3 1.6.4.6.2 1.2.3 1.7.5s1.1.3 1.6.4c.9.1 1.9.3 2.8.5l2.7.6c.4.1.8.2 1.2.2.3 0 .5 0 .8-.1h.7s-.3-.2-.4-.2c-.6-.2-1.1-.4-1.7-.5-.2 0-.4-.1-.5-.1h.5z" class="st0"/>
    <path d="M56.2 69.4h-5.8V103c0 3.3-1.8 5.4-4.4 6.4l4.4 4.3c3.9-2.1 5.8-4.9 5.8-11.2V69.4zm22.2 4.7c5.8 0 10 4.1 10 9.8 0 6.3-3.9 10.2-10 10.2-5.6 0-9.5-4.1-9.5-10.3 0-5.6 4-9.7 9.5-9.7m.1-5.3c-8.7 0-15.5 6.5-15.5 14.9 0 9 6.5 15.5 15.5 15.5 9.4 0 15.9-6.3 15.9-15.5-.1-8.6-6.7-14.9-15.9-14.9m27.8 8.3c2.5-2.2 4.2-3 6.7-3 4.9 0 8.2 4 8.2 10.2 0 5.5-3.7 9.5-8.9 9.5-1.7 0-4.2-.4-5.9-.9V77.1zm0-22.9h-5.8v42.9c2.9 1.4 7.1 2.2 10.9 2.2 9.8 0 15.7-5.9 15.7-15.9 0-8.4-5.4-14.6-12.7-14.6-2.9 0-5.5.8-8.1 2.7V54.2z" class="st1"/>
    <path d="M142.7 99.3h2l12.9-29.9h-6.2l-7.7 18-7.9-18h-6.3zm22.5-18.2c.8-4.6 3.5-7.2 7.9-7.2 4.1 0 6.7 2.8 6.9 7.2h-14.8zm20 9.1c-3.4 2.2-6.7 3.5-10.2 3.5-5.6 0-8.9-3-9.9-8.8h20.6c0-10.8-5-16.1-12.7-16.1-8.1 0-13.7 6-13.7 14.9 0 8.1 5.1 15.6 14.2 15.6 5 0 8.2-1.1 11.7-3.5v-5.6zm28.2-19.3c-2.8-1.2-5.1-2-8.5-2-8.9 0-14.5 6.1-14.5 15.8 0 8.6 6.1 14.7 14.9 14.7 3.1 0 6.8-.8 8.7-1.7V92c-2.9 1.3-5.3 2-7.8 2-6 0-9.9-3.7-9.9-9.7 0-5.9 3.7-9.9 8.9-9.9 2.5 0 4.8.7 8.1 2.9v-6.4zm13.9-7.5L216.4 74v.7h5.1v15.5c0 5.3 3.2 9.2 9.5 9.2 1.9 0 5-.8 7-2V92c-2.3 1.4-4.5 2.2-6.6 2.2-1.7 0-4.2-1-4.2-4.4v-15h9.3v-5.2h-9.3v-6.2zm28.5 10.7c5.8 0 10 4.1 10 9.8 0 6.3-3.9 10.2-10 10.2-5.6 0-9.5-4.1-9.5-10.3.1-5.6 4.1-9.7 9.5-9.7m.1-5.3c-8.7 0-15.5 6.5-15.5 14.9 0 9 6.5 15.5 15.5 15.5 9.4 0 15.9-6.3 15.9-15.5 0-8.6-6.7-14.9-15.9-14.9m22.7.6v29.3h5.8V83.4c0-5 3.1-9 7.1-9 1.4 0 3.7 1.2 5.4 2.9l3.1-5c-2.4-2.3-4.6-3.4-7-3.4-2.7 0-5.5 2.2-8.5 7.3h-.1v-6.7h-5.8z" class="st0"/>
    <path d="M53.2 57c1 0 1.8.3 2.5 1s1 1.5 1 2.4c0 1-.3 1.8-1 2.5-.6.7-1.4 1-2.4 1-.9 0-1.7-.3-2.4-1s-1.1-1.5-1.1-2.4c0-.9.3-1.7 1-2.4s1.5-1.1 2.4-1.1" class="st1"/>
  </g>
</svg>
