<?xml version="1.0" encoding="UTF-8"?>
<!-- Generator: Adobe Illustrator 24.1.3, SVG Export Plug-In . SVG Version: 6.00 Build 0)  -->
<svg version="1.1" baseProfile="tiny" id="Layer_1" xmlns="http://www.w3.org/2000/svg"  x="0px" y="0px" viewBox="0 0 300 56" overflow="visible" xml:space="preserve">
<g>
	<g>
		<g>
			<path fill="#FF0000" d="M56,8c10.5-3,21.4,3,24.5,13.5c3,10.4-2.9,21.2-13.2,24.4l-0.8-2.8c8.9-2.7,13.9-12.1,11.2-21     c-2.7-8.8-12-13.8-20.8-11.3L56,8z"/>
			<path fill="#1B5E8C" d="M74.9,6.1c11.5,7.4,14.9,22.7,7.5,34.3c-4.8,7.5-13.3,11.9-22.2,11.4l0.2-4.4c11.3,0.6,20.9-8,21.5-19.3     c0.4-7.3-3.2-14.3-9.4-18.3L74.9,6.1z"/>
			<path fill="#0A405E" d="M78.6,33.2c-3.4,9.4-13.8,14.3-23.2,10.9c-0.5-0.2-0.9-0.4-1.4-0.6l0.7-1.5c8.3,3.8,18,0.1,21.8-8.2     c0.2-0.4,0.4-0.8,0.5-1.3L78.6,33.2z"/>
			<path fill="#428AE2" d="M58.4,48.9c-11.9-1.7-20.3-12.6-18.8-24.6l5.1,0.6c-1.1,9.2,5.3,17.6,14.5,18.9L58.4,48.9z"/>
			<path d="M46.6,40.8c-7.1-7.7-7.2-19.6-0.2-27.4l0.5,0.5c-6.8,7.5-6.7,19,0.2,26.4L46.6,40.8z"/>
			<path fill="#084466" d="M37.2,19c3.5-10.3,13.2-17.2,24-17.3l0,2.5c-9.8,0.1-18.5,6.3-21.7,15.6L37.2,19z"/>
			<path fill="#83C1FF" d="M81.2,18.6c1.7,4.1,2.2,8.6,1.2,12.9l-4-0.9c0.8-3.5,0.4-7.2-1-10.5L81.2,18.6z"/>
		</g>
		<path d="M109.6,5.5c-10.8,0-19.7,8.6-20.5,19.4c0,0.6-0.1,1.2-0.1,1.8s0,1.2,0.1,1.8c0.2,2.3,0.7,4.5,1.6,6.5    c3.1,7.6,10.5,12.9,19,12.9c8.5,0,15.8-5.3,19-12.9H124c-2.9,5.6-7.7,9-14.4,9C100.9,44,93,36.3,93,28.5l37.2,0    c0-0.6,0.1-1.2,0.1-1.8C130.2,15,121,5.5,109.6,5.5z M93,24.9c0.9-8,7.7-15.5,16.6-15.5c8.9,0,15.2,7.5,16.3,15.5H93z"/>
		<path d="M33.3,5.8l-18,0l-1.8,3.6h15.8c0,0,0,22.1,0,24.5c0,3.5-3.1,9.9-12.4,9.9c-7.1,0-10.7-3.9-12.4-9.2H0    c2.7,8.4,7.9,12.8,16.9,12.9c11.2,0.2,16.4-6.8,16.4-13.9L33.3,5.8z"/>
	</g>
	<g>
		<path fill="#1B5E8C" d="M147.2,30.3l-7-2.2c-2.5-0.8-4.3-2-5.4-3.6c-1.1-1.6-1.6-3.7-1.6-6.4c0-3.8,0.9-6.3,2.6-7.5    c1.8-1.2,4.8-1.8,9.2-1.8c4.2,0,7.9,0.4,10.9,1.2l-0.4,4.5c-3.8-0.1-7.2-0.2-10.3-0.2c-2.3,0-3.8,0.2-4.6,0.7    c-0.8,0.5-1.2,1.5-1.2,3.3c0,1.4,0.3,2.4,0.8,3c0.6,0.6,1.6,1.1,3,1.6l6.7,2.1c2.6,0.8,4.5,2.1,5.5,3.7c1.1,1.6,1.6,3.7,1.6,6.4    c0,3.8-0.9,6.4-2.7,7.7c-1.8,1.3-5,2-9.6,2c-3.8,0-7.5-0.4-11.2-1.1l0.4-4.6c5.8,0.1,9.5,0.2,11,0.2c2.3,0,3.8-0.3,4.6-0.8    c0.8-0.5,1.2-1.7,1.2-3.4c0-1.5-0.3-2.5-0.8-3.1C149.5,31.2,148.6,30.7,147.2,30.3z"/>
		<path fill="#1B5E8C" d="M175.2,34.3h-10c0.2,2.1,0.8,3.6,1.8,4.3c1,0.7,2.6,1.1,4.8,1.1c2.5,0,5.4-0.2,8.8-0.6l0.5,3.9    c-2.3,1.1-5.7,1.7-10.1,1.7c-4.4,0-7.6-1-9.5-3c-1.9-2-2.8-5.3-2.8-10c0-4.8,0.9-8.1,2.8-10c1.8-1.9,4.9-2.9,9.1-2.9    c3.9,0,6.7,0.7,8.5,2.1c1.8,1.4,2.7,3.5,2.7,6.4C181.7,31.9,179.5,34.3,175.2,34.3z M165.1,30h8.4c1.5,0,2.2-1,2.2-2.9    c0-1.3-0.4-2.3-1.1-2.8c-0.7-0.5-2-0.8-3.8-0.8c-2.1,0-3.6,0.4-4.4,1.3C165.6,25.8,165.1,27.5,165.1,30z"/>
		<path fill="#1B5E8C" d="M203.6,39.1l0.5,4c-2.4,1-5.4,1.5-9,1.5c-4.4,0-7.5-1-9.3-2.9c-1.8-1.9-2.7-5.3-2.7-10    c0-4.7,0.9-8.1,2.7-10c1.8-1.9,4.9-2.9,9.3-2.9c3.4,0,6.3,0.5,8.6,1.4L203,24c-1.6-0.1-3.9-0.1-6.8-0.1c-2.5,0-4.3,0.6-5.3,1.7    c-1,1.1-1.5,3.2-1.5,6.2c0,3,0.5,5.1,1.5,6.2c1,1.1,2.7,1.7,5.3,1.7C198.9,39.6,201.4,39.4,203.6,39.1z"/>
		<path fill="#1B5E8C" d="M228.4,19.5V44h-4.8l-0.4-3.3c-3.5,2.6-6.9,4-10.3,4c-4.5,0-6.8-2.3-6.8-6.8V19.5h6.1V36    c0,1.3,0.2,2.2,0.6,2.7c0.4,0.5,1.2,0.7,2.4,0.7c1.7,0,4.1-0.9,7.2-2.7V19.5H228.4z"/>
		<path fill="#1B5E8C" d="M248.8,18.8l-0.6,5.7h-1.8c-1.7,0-4.4,0.7-8.1,2.2V44h-6.1V19.5h4.8l0.5,3.6c3.5-2.9,6.9-4.3,10.1-4.3    H248.8z"/>
		<path fill="#1B5E8C" d="M251.7,8.8h2.8c1.2,0,1.8,0.6,1.8,1.8v2.8c0,1.2-0.6,1.8-1.8,1.8h-2.8c-1.2,0-1.8-0.6-1.8-1.8v-2.8    C250,9.4,250.6,8.8,251.7,8.8z M256.2,44h-6.1V19.5h6.1V44z"/>
		<path fill="#1B5E8C" d="M300,19.5l-9.1,25.3c-1,2.8-2.4,5.1-4.5,6.9c-2,1.8-4.6,2.7-7.9,2.5l-0.5-3.9c1.9-0.5,3.5-1.3,4.6-2.2    c1.1-0.9,2-2.1,2.6-3.6l0.3-0.6h-1.2c-1.1,0-1.8-0.5-2-1.5l-6.7-18.6h-7.1v12.5c0,1.1,0.2,1.8,0.7,2.2c0.4,0.4,1.2,0.6,2.3,0.6    h3.4l0.6,4.5c-1.8,0.6-3.9,0.8-6.3,0.8c-2.1,0-3.8-0.6-4.9-1.9c-1.1-1.2-1.7-3-1.7-5.3V23.9h-4.5v-4.1l4.4-0.3v-7.1h6.1v7.1h12    l5.3,16.9c0.3,1,0.6,2.1,0.8,3.2h0.7c0.1-0.4,0.3-1,0.5-1.7c0.2-0.7,0.4-1.3,0.5-1.6l5.2-16.9H300z"/>
	</g>
</g>
<g>
</g>
<g>
</g>
<g>
</g>
<g>
</g>
<g>
</g>
<g>
</g>
<g>
</g>
<g>
</g>
<g>
</g>
<g>
</g>
<g>
</g>
<g>
</g>
<g>
</g>
<g>
</g>
<g>
</g>
</svg>