<?xml version="1.0" ?>
<svg xmlns="http://www.w3.org/2000/svg" viewBox="0 0 1552 259">
	<style>.a{fill:#0090d3}</style>
	<path fill-rule="evenodd" class="a" d="m1310.1 4.6h72.8l94.9 137.8v-137.8h73.4v249.1h-73.4l-94.4-136.7v136.7h-73.3zm-279.8 124.8c0-40.7 11.4-72.4 34.3-94.9q34.5-34.1 95.8-34.1c41.9 0 74.1 11.2 96.9 33.5 22.6 22.1 34 53.3 34 93.5 0 29-5 53-14.9 71.5q-14.9 28-43 43.5c-18.7 10.4-42 15.7-70 15.7-28.4 0-51.9-4.6-70.5-13.5-18.6-9.1-33.7-23.2-45.2-42.6q-17.4-29-17.4-72.6zm77.8 0.2c0 25.2 4.7 43.3 14.1 54.4q14.3 16.4 38.7 16.4c16.6 0 29.7-5.3 38.8-16.2 9.1-10.7 13.8-30 13.8-57.9 0-23.4-4.8-40.6-14.5-51.3q-14.2-16.3-38.9-16.3-23.5 0-37.7 16.5c-9.6 11-14.3 29.1-14.3 54.4zm-337.3-124.9h77.7v87.1h85.1v-87.1h78.2v249h-78.2v-100.7h-85.1v100.7h-77.7zm-269.5-0.1h72.7l94.8 137.8v-137.8h73.4v249.1h-73.4l-94.3-136.8v136.8h-73.2zm-280 124.7c0-40.6 11.5-72.3 34.4-94.9 23-22.7 54.8-34 95.7-34 41.9 0 74.3 11.1 96.9 33.4 22.7 22.3 34.1 53.5 34.1 93.5 0 29.1-5 53.1-14.9 71.6q-14.9 28-42.9 43.5c-18.7 10.4-42 15.6-70 15.6q-42.6 0-70.6-13.4c-18.6-9-33.7-23.1-45.3-42.5-11.6-19.4-17.4-43.6-17.4-72.8zm78 0.4c0 25.1 4.6 43.2 14.1 54.2 9.4 10.9 22.3 16.5 38.5 16.5q25.1 0 38.9-16.2 13.7-16.1 13.7-57.9c0-23.5-4.8-40.6-14.3-51.4-9.6-10.8-22.5-16.2-38.9-16.2q-23.5 0-37.8 16.5c-9.5 10.9-14.2 29.2-14.2 54.5zm-174.5-125.1h77.9v135.4c0 28.5-2.5 50.1-7.6 65-5.1 14.8-15.3 27.4-30.7 37.7-15.5 10.3-35.1 15.5-59.2 15.5-25.4 0-45.1-3.5-59.1-10.2q-21-10.2-32.3-29.9c-7.8-13-12.2-29.2-13.6-48.4l74.4-10q0.2 16.3 2.9 24.4 2.8 8 9.3 12.9c3 2.2 7.2 3.3 12.8 3.3q13 0 19.2-9.7 6-9.6 6-32.4z"/>
</svg>