<?xml version="1.0" encoding="UTF-8"?>
<svg viewBox="0 0 248 192" xmlns="http://www.w3.org/2000/svg" >
    <view id="logo-no-text-colored" viewBox="124 0 124 34" /><svg viewBox="-2 -2 124 34" width="124" height="34" x="124">
        <g fill-rule="evenodd" clip-rule="evenodd">
            <path fill="#000001" d="M95.487 2.963C93.67 1.133 91.25 0 88.483 0c-2.594 0-5.232 1.176-7.005 2.963-1.816 1.83-2.767 4.27-2.767 6.928 0 2.79.996 5.273 2.768 7.06 1.816 1.83 4.41 2.962 7.005 2.962 1.816 0 3.414-.48 4.885-1.307v-4.27c-1.298 1.307-3.113 2.135-4.885 2.135-1.816 0-3.416-.654-4.584-1.96-1.168-1.133-1.817-2.79-1.817-4.62 0-1.654.65-3.31 1.816-4.617 1.124-1.133 2.766-1.83 4.583-1.83 1.816 0 3.414.654 4.583 1.83C94.19 6.58 95.01 8.236 95.01 9.89v9.543h3.417V9.89c0-2.658-1.125-5.14-2.94-6.927zM117.06 2.963C115.244 1.133 112.823 0 110.057 0c-2.594 0-5.232 1.176-7.004 2.963-1.817 1.83-2.767 4.27-2.767 6.928 0 2.79.994 5.273 2.767 7.06 1.816 1.83 4.41 2.962 7.004 2.962.995 0 1.816-.174 2.594-.348.823-.174 1.472-.48 2.293-1.003v-4.27c-.65.655-1.296 1.133-2.118 1.482-.822.48-1.816.654-2.767.654-1.816 0-3.416-.654-4.583-1.96-1.125-1.133-1.816-2.79-1.816-4.618 0-1.657.646-3.312 1.815-4.62 1.123-1.132 2.767-1.83 4.583-1.83 1.816 0 3.416.654 4.582 1.83 1.125 1.308 1.945 2.963 1.945 4.62v10.37c0 1.132-.475 2.483-1.123 3.616-.822 1.003-1.773 1.83-3.113 2.31-1.124.478-2.465.478-3.762.348-1.47-.174-3.113-.654-4.756-1.308l-1.125 3.268c1.816.654 3.76 1.308 5.707 1.482 1.643.173 3.285 0 4.885-.48 1.944-.653 3.587-1.83 4.755-3.442 1.123-1.655 1.945-3.617 1.945-5.577V9.89c0-2.658-1.167-5.14-2.94-6.927z" />
            <path fill="#EF5655" d="M7.393 19.912c2.118 0 3.934-.654 5.23-1.83 1.168-1.132 1.946-2.788 1.946-4.793V.434h-1.644c-.994 0-1.816.654-1.816 1.83v10.72a4.005 4.005 0 0 1-1.123 2.788c-.65.654-1.643 1.133-2.594 1.133-1.125 0-2.12-.35-2.94-1.133-1.168-1.133-1.168-2.31-1.168-3.964H0c0 2.482 0 4.443 1.945 6.098 1.557 1.524 3.675 2.004 5.448 2.004z" />
            <path fill="#000001" d="M58.09 0c-1.945 0-3.762.654-5.058 1.83-1.167 1.133-1.945 2.614-1.945 4.618v13.028H54.5V6.796c0-1 .477-1.96 1.126-2.613.822-.828 1.816-1.132 2.767-1.132.994 0 1.945.35 2.767 1.133.648.654 1.167 1.655 1.167 2.614v12.68h3.286V6.796c0-1.002.476-1.96 1.123-2.614.822-.828 1.817-1.132 2.767-1.132.995 0 1.945.35 2.767 1.133.65.654 1.124 1.655 1.124 2.614v12.68h3.416V6.446c0-1.96-.822-3.44-1.945-4.617C73.567.654 71.752 0 69.807 0c-3.113 0-5.058 1.48-5.88 2.79C63.147 1.48 61.203 0 58.09 0z" />
            <path fill="#EF5655" d="M27.002 0c-3.362 0-6.715 1.607-8.378 4.252 1.912-1.942 4.344-2.85 6.767-2.846 4.212.007 7.336 2.66 8.82 6.575.61-3.355 3.292-5.206 6.075-5.206 3.398 0 6.148 2.778 6.148 6.2 0 3.352-2.772 6.174-6.154 6.167-2.855 0-4.41-1.706-5.448-3.897-.48-1.01-.77-2.094-1.2-3.124-1.506-3.665-4.18-6.128-8.257-6.128-4.913 0-8.904 4.045-8.904 8.94 0 4.962 3.984 8.98 8.9 8.98 2.52 0 4.79-1.064 6.41-2.763 1.474 1.524 3.53 2.76 6.872 2.76 3.362 0 6.716-1.606 8.38-4.252-1.914 1.942-4.345 2.85-6.768 2.847-4.213-.007-7.335-2.66-8.818-6.574-.61 3.356-3.294 5.208-6.076 5.208-3.4 0-6.148-2.78-6.148-6.2 0-3.352 2.77-6.173 6.154-6.167 2.854 0 4.41 1.708 5.447 3.9.48 1.008.77 2.093 1.2 3.123 1.506 3.665 4.18 6.127 8.257 6.127 4.913 0 8.904-4.046 8.904-8.94 0-4.962-3.983-8.978-8.898-8.978a8.83 8.83 0 0 0-6.412 2.76C32.4 1.238 30.344.003 27.002.003z" />
        </g>
    </svg>
</svg>