<?xml version="1.0" ?>
<svg xmlns="http://www.w3.org/2000/svg" viewBox="0 0 1551 171">
	<defs>
		<clipPath clipPathUnits="userSpaceOnUse" id="cp1">
			<path d="m-2626-398h4634v6550h-4634z"/>
		</clipPath>
		<clipPath clipPathUnits="userSpaceOnUse" id="cp2">
			<path d="m1550.38 0.04v170.83h-1546.24v-170.83z"/>
		</clipPath>
	</defs>
	<style>.a{fill:#0b9744}.b{fill:#9b9c9f}.c{fill:none;stroke:#0b9744;stroke-width:6.9}</style>
	<g clip-path="url(#cp1)">
		<path fill-rule="evenodd" class="a" d="m316.5 148.3l-2.9-14.3h4.8q9.5 0 13.2-5 3.8-5.1 3.8-14.8v-107.7h15.3v110.2q0 14.8-7.2 23.4-7.2 8.6-22.4 8.6-2.6 0-4.6-0.4zm55.4-105.1h13.9v44q0 15.6 14.5 15.6 9.3 0 16.9-9.6v-50h13.9v69.7h-13.9v-8.3q-2.1 2.7-8.3 6.3-6.3 3.5-12.6 3.5-11.2 0-17.8-7.3-6.6-7.3-6.6-20.2zm126.2 1.6v-38.3h13.9v106.4h-29.5q-16.2 0-25.4-9.9-9.2-9.8-9.2-26.5 0-15.8 10.1-25.2 10.1-9.6 25.1-9.6 7.3 0 15 3.1zm-36.1 33.2q0 22.3 21.4 22.3h14.7v-43.5q-6.7-2.5-13-2.5-11.3 0-17.2 6.7-5.9 6.6-5.9 17zm75.9 30q-6.4-4.3-6.4-8.6 0-3.3 3.3-6.2 3.3-3 8.9-3.9-16.6-6.5-16.6-22 0-11.3 8.3-17.7 8.2-6.4 21.9-6.4h29.8v10.8h-14.2q7.2 7.2 7.2 14.8 0 8.8-5.5 14.7-5.4 5.8-20.7 8.3-9.3 2.4-9.3 6.1 0 3.1 6.2 5.1 6.3 1.9 16.2 4 20.5 4.4 20.5 19.4 0 10.6-9.3 16.3-9.2 5.7-24.3 5.7-14.4 0-23.8-5.8-9.3-5.8-9.3-15.3 0-15.3 17.1-19.3zm-3.8 18.8q0 10.5 20.2 10.5 19.9 0 19.9-9.8 0-5.5-6.9-8.4-6.8-2.9-16.8-2.9-8.2 0-12.4 3.1-4 3.1-4 7.5zm5.6-59.2q0 5.4 3.7 9 3.8 3.6 10.7 3.6 5.7 0 9.5-3.6 3.9-3.6 3.9-9.4 0-4.8-4-8.4-4.1-3.6-9.8-3.6-5.8 0-9.9 3.7-4.1 3.7-4.1 8.7zm115.6 24.7v13.6q-5.4 3.6-11.8 6-6.2 2.5-15.3 2.5-15.4 0-24.8-10.7-9.4-10.7-9.4-26.5 0-15.5 8.9-25.5 9-10 23.6-10 14.7 0 22.4 10.1 7.7 10.1 7.7 28.4h-48.9q3.9 21.5 23.2 21.5 11.6 0 24.4-9.4zm-12.4-21.3q0-6.9-4.3-11.8-4.4-4.9-12-4.9-16 0-18.7 16.7zm26 21.3q13.4 9.4 23 9.4 4.7 0 7.7-2.2 3-2.2 3-5.7 0-3.6-8.7-8.8-12.8-7.4-18.6-12.6-5.7-5.2-5.7-12 0-8.7 6.2-13.6 6.2-5.1 16.7-5.1 10.4 0 21 5.8v13.8q-10.3-7-20-7-9.8 0-9.8 6.1 0 2.6 4.8 6.2 1.5 1 10.9 7.1 9.5 6.1 11.7 8.1 5.7 5.4 5.7 12.5 0 8.5-6.6 14.3-6.5 5.8-16.6 5.8-13 0-24.7-6.8z"/>
		<path fill-rule="evenodd" class="b" d="m778.3 85.3q11.6 15.6 27.6 15.6 7.3 0 12.1-3.7 4.9-3.7 4.9-9.9 0-5.6-3.3-9.8-3.3-4.2-15.7-11.8-11.3-7.1-19.1-13.9-7.7-6.9-7.7-18.3 0-13.4 9-21 8.9-7.7 23.6-7.7 13.2 0 23.7 7.6v16.9q-4.1-4.1-10.8-7.4-6.6-3.3-14.4-3.3-7.5 0-12.3 3.7-4.6 3.8-4.6 9 0 5.8 4.3 10 4.4 4.1 14.9 10.2 15.8 9.8 21.1 16.9 5.5 6.9 5.5 17.2 0 12.7-8.4 20.9-8.3 8.1-21.2 8.1-17.2 0-29.2-9.8zm126.7 11.7v13.5q-9.6 3.9-20.3 3.9-15.6 0-25.7-9.8-10.1-9.8-10.1-25.4 0-16.8 9.1-27.1 9.1-10.4 25.7-10.4 5.5 0 9.8 1.3 4.4 1.1 10 3.6v14.6q-2.7-1.6-7.5-4.2-4.8-2.6-11.7-2.6-9.9 0-15.6 6.8-5.6 6.7-5.6 16.9 0 10.9 6.4 17.3 6.4 6.4 17 6.4 8.2 0 18.5-4.8zm30.4-53.8v69.7h-14v-69.7zm-15.2-21.8q0-3.4 2.2-5.8 2.3-2.5 6.2-2.5 3.3 0 5.7 2.3 2.4 2.3 2.4 6.1 0 3.4-2.4 5.9-2.4 2.3-5.9 2.3-3.4 0-5.8-2.3-2.4-2.5-2.4-6zm93.1 71v13.6q-5.4 3.5-11.8 5.9-6.2 2.5-15.3 2.5-15.4 0-24.8-10.6-9.4-10.8-9.4-26.6 0-15.5 8.9-25.4 9-10.1 23.6-10.1 14.7 0 22.4 10.1 7.7 10.1 7.7 28.4h-48.9q3.9 21.6 23.2 21.6 11.6 0 24.4-9.4zm-12.4-21.4q0-6.9-4.3-11.7-4.4-4.9-12-4.9-16 0-18.7 16.6zm29.3 41.9v-69.7h13.9v9.6q8-11.1 21.6-11.1 11 0 17.3 7.7 6.4 7.6 6.4 20.7v42.8h-13.9v-42.9q0-8-3.5-12.6-3.6-4.6-10.1-4.6-9.2 0-17.8 10.1v50zm68.8-58.6l26.1-25.7v14.6h22v12.6h-22v35.2q0 10.8 9.8 10.8 8.3 0 15.9-4.9v12.9q-7.4 4.6-17.1 4.6-10.4 0-16.5-5.6-6.1-5.7-6.1-14.4v-38.6h-12.1zm76.4-11.1v69.8h-13.9v-69.8zm-15.2-21.7q0-3.4 2.2-5.9 2.3-2.4 6.1-2.4 3.4 0 5.7 2.3 2.5 2.3 2.5 6 0 3.5-2.5 5.9-2.4 2.4-5.9 2.4-3.4 0-5.8-2.4-2.3-2.4-2.3-5.9zm26.6 21.7h9.8v-5.4q0-16.1 7.3-24.4 7.3-8.2 17.9-8.2 6.7 0 9.5 1.6v12.3q-2.5-1.3-6.1-1.3-14.7 0-14.7 18v7.4h12.2v12.3h-12.2v57.5h-13.9v-57.5h-9.8zm62.1 0v69.7h-13.9v-69.7zm-15.3-21.8q0-3.4 2.3-5.8 2.3-2.5 6.1-2.5 3.3 0 5.7 2.3 2.5 2.3 2.5 6.1 0 3.4-2.5 5.9-2.4 2.3-5.9 2.3-3.4 0-5.8-2.3-2.4-2.5-2.4-6zm87.9 75.6v13.5q-9.6 3.9-20.4 3.9-15.5 0-25.6-9.8-10.1-9.8-10.1-25.4 0-16.8 9-27.1 9.1-10.4 25.7-10.4 5.5 0 9.9 1.3 4.3 1.1 9.9 3.6v14.6q-2.6-1.7-7.5-4.3-4.8-2.6-11.6-2.6-9.9 0-15.6 6.9-5.7 6.7-5.7 16.9 0 10.9 6.5 17.3 6.4 6.4 16.9 6.4 8.3 0 18.6-4.8zm87.2-53.8q19.6 0 29.7 9.3 10.1 9.3 10.1 26 0 15.8-9.9 25.9-9.9 10-25.4 10-6.6 0-14.9-3.2v37.2h-13.9v-105.2zm-10.4 12.6v42.9q7.8 3.1 12.9 3.1 9.9 0 16.5-6.5 6.6-6.6 6.6-16.7 0-22.8-23.1-22.8zm79.6-49.3v106.4h-13.9v-106.4zm72.6 90.5v13.5q-9.6 3.9-20.4 3.9-15.5 0-25.6-9.8-10.1-9.8-10.1-25.4 0-16.8 9-27.1 9.1-10.4 25.8-10.4 5.5 0 9.8 1.3 4.4 1.1 10 3.6v14.6q-2.7-1.7-7.5-4.3-4.9-2.6-11.7-2.6-9.9 0-15.6 6.9-5.6 6.7-5.6 16.9 0 10.9 6.4 17.3 6.4 6.4 17 6.4 8.2 0 18.5-4.8zm-425.4-68.4v-0.1z"/>
		<g clip-path="url(#cp2)">
			<path class="c" d="m4.1 82.7h272.5"/>
		</g>
		<path fill-rule="evenodd" class="a" d="m60.5 170.9l79.7-79.8 79.8 79.8zm-6-96.7c-20.5 0-37.1-16.6-37.1-37.1 0-20.5 16.6-37.1 37.1-37.1 20.5 0 37 16.6 37 37.1 0 20.5-16.5 37.1-37 37.1z"/>
		<path class="b" d="m264.4 0v74.2h-74.2v-74.2z"/>
	</g>
</svg>