<?xml version="1.0" ?>
<svg xmlns="http://www.w3.org/2000/svg" viewBox="0 0 512 512" version="1.2" baseProfile="tiny-ps">
	<path d="M0 0h512v512H0z" fill="#e11f1d"/>
	<path d="M36.85 0h299.4a36.85 36.85 0 0 1 36.85 36.85v75.982a36.85 36.85 0 0 1-36.85 36.85H36.851A36.851 36.851 0 0 1 0 112.831V36.85A36.85 36.85 0 0 1 36.85 0z" transform="translate(69.752 180.329)" fill="#fff"/>
	<path d="M34.027.993H350.65a32.92 32.92 0 0 1 32.921 32.919v90.166A32.92 32.92 0 0 1 350.65 157H34.027a32.919 32.919 0 0 1-32.92-32.919V33.912A32.919 32.919 0 0 1 34.027.993m0 8.778H350.65a24.14 24.14 0 0 1 24.142 24.141v90.166a24.141 24.141 0 0 1-24.142 24.141H34.027a24.141 24.141 0 0 1-24.141-24.141V33.912A24.141 24.141 0 0 1 34.027 9.771" transform="translate(63.75 176.775)" fill-rule="evenodd" fill="#e11f1d"/>
	<path d="M350.311 157.541H33.688A33.725 33.725 0 0 1 0 123.853V33.688A33.725 33.725 0 0 1 33.688 0h316.623A33.726 33.726 0 0 1 384 33.688v90.165a33.726 33.726 0 0 1-33.689 33.688M33.688 1.537A32.188 32.188 0 0 0 1.536 33.688v90.165A32.188 32.188 0 0 0 33.688 156h316.623a32.188 32.188 0 0 0 32.152-32.152v-90.16a32.188 32.188 0 0 0-32.152-32.151zm316.623 147.226H33.688a24.938 24.938 0 0 1-24.909-24.91V33.688A24.937 24.937 0 0 1 33.688 8.779h316.623a24.936 24.936 0 0 1 24.909 24.909v90.165a24.937 24.937 0 0 1-24.909 24.91M33.688 10.315a23.4 23.4 0 0 0-23.373 23.373v90.165a23.4 23.4 0 0 0 23.373 23.374h316.623a23.4 23.4 0 0 0 23.373-23.374V33.688a23.4 23.4 0 0 0-23.373-23.373z" transform="translate(64 177)" fill="#091408"/>
	<path d="M227.719 43.528c1.759.689 3.991 2.363 4.379 3.305 1 2.435.612 4.505-.24 6.932-.789 2.115-2.524 2.75-4.355 3.1-1.757.388-3.6.852-4.761 2.693-1.6 2.538-2.406 19.616-2.577 20.943l-1.129 8.766c-3.527 27.391-13.33 40.932-36.65 42.488a118.508 118.508 0 0 1-14.323 0c-11.56-.384-30.928-7.385-30.765-20.36l.087-6.835 4.355-37.55c.194-3.581.788-3.913 0-7.355-.317-1.384-1.693-1.631-3.1-1.925-1.624-.34-3.287-.744-3.4-3.046 0 0-.066-4.787 1-6.916.728-1.789 2.244-3.383 5.965-4.475a49.639 49.639 0 0 1 12.237-1.474 133.529 133.529 0 0 1 13.956.2c5.741.23 16.546.825 16.546 8.174 0 10.832-11.462-.02-13.157 23.724-.8 11.164-2.738 22.736-2.74 23.693 0 0-.122 2.861-.075 5.216 0 .256.052 1.472.1 1.841.5 3.914 4.71 8.9 9.194 9.753.442.084 1.606.231 2.033.268a25.6 25.6 0 0 0 3.193.022c.454-.027 2.21-.258 2.451-.3 8.1-1.444 15.461-15.7 16.477-36.173.5-10.373 1.565-17.016.194-18.775-2.71-2.226-9.871-2.872-9.871-10.452 0-6.124 8.062-6.991 13.536-6.991h13.158a37.9 37.9 0 0 1 8.283 1.514" transform="translate(33.465 167.579)" fill-rule="evenodd" fill="#e11f1d"/>
	<path d="M176.014 132.517c-1.878 0-3.633-.062-5.856-.142l-2.343-.081c-10.73-.356-31.686-7.12-31.508-21.137l.091-6.914 4.355-37.55c.058-1.1.162-1.935.245-2.607a10.273 10.273 0 0 0-.231-4.488c-.179-.781-.862-1-2.38-1.318l-.128-.026c-1.54-.322-3.866-.809-4.009-3.761 0-.229-.056-5.026 1.078-7.3.928-2.29 2.982-3.855 6.437-4.868a50.57 50.57 0 0 1 12.435-1.503 234.79 234.79 0 0 1 5.824-.088c2.628 0 4.078.08 5.612.164.77.043 1.571.087 2.568.124 5.174.207 17.287.692 17.287 8.941 0 4.913-2.3 5.9-4.728 6.949-3.323 1.432-7.46 3.213-8.432 16.829-.566 7.926-1.709 16.078-2.323 20.458-.222 1.582-.413 2.949-.416 3.183 0 .059-.121 2.9-.075 5.2.005.286.053 1.449.092 1.758.444 3.468 4.367 8.3 8.576 9.1.4.075 1.538.222 1.955.258a25.136 25.136 0 0 0 3.082.022c.413-.026 2.134-.251 2.362-.291 7.061-1.258 14.771-13.841 15.844-35.454.142-2.964.33-5.614.5-7.951.361-5.09.647-9.13-.1-10.251a14.528 14.528 0 0 0-2.608-1.419c-3.153-1.472-7.47-3.489-7.47-9.567 0-5.149 4.812-7.76 14.3-7.76h13.158a38.049 38.049 0 0 1 8.5 1.547c1.867.728 4.361 2.51 4.871 3.748 1.076 2.612.688 4.878-.225 7.479-.941 2.526-3.024 3.235-4.937 3.6-1.813.4-3.3.83-4.254 2.347-1.19 1.885-1.989 13.8-2.289 18.282-.087 1.291-.139 2.071-.175 2.349l-1.129 8.766c-3.751 29.132-14.575 41.636-37.361 43.156a90.398 90.398 0 0 1-6.2.224m-38.085-28.136-.086 6.8c-.164 12.967 19.8 19.242 30.023 19.582l2.347.081c2.207.078 3.95.14 5.8.14a88.21 88.21 0 0 0 6.1-.221c21.89-1.46 32.3-13.577 35.939-41.819l1.129-8.766c.029-.232.09-1.126.166-2.256.585-8.718 1.3-17.053 2.523-19 1.377-2.18 3.613-2.673 5.245-3.033 1.834-.348 3.17-.922 3.8-2.615.814-2.32 1.144-4.2.25-6.37a9.536 9.536 0 0 0-3.949-2.882 37.476 37.476 0 0 0-8-1.461h-13.157c-8.472 0-12.768 2.093-12.768 6.223 0 5.1 3.511 6.707 6.584 8.175a18.494 18.494 0 0 1 3.125 1.8c1.034.766.914 5 .462 11.366-.166 2.33-.352 4.97-.494 7.918-.982 19.785-8.178 35.3-17.11 36.892-.28.049-2.055.283-2.54.311a26.728 26.728 0 0 1-3.3-.024 31.279 31.279 0 0 1-2.111-.279c-4.976-.944-9.284-6.275-9.813-10.41-.053-.415-.1-1.675-.1-1.924-.046-2.351.075-5.234.076-5.263 0-.29.124-1.185.429-3.362.612-4.362 1.751-12.48 2.313-20.353 1.039-14.548 5.846-16.619 9.357-18.131 2.287-.986 3.8-1.637 3.8-5.539 0-5.969-7.991-7.093-15.81-7.407-1-.036-1.815-.081-2.593-.124a86.367 86.367 0 0 0-5.528-.163c-1.573 0-3.465.029-5.784.088A49.1 49.1 0 0 0 142.2 43.8c-3.859 1.132-4.95 2.747-5.471 4.027-.828 1.661-.958 5.336-.941 6.616.077 1.565.95 1.92 2.788 2.3l.127.026c1.4.292 3.146.655 3.564 2.478a11.75 11.75 0 0 1 .259 5.021 33.436 33.436 0 0 0-.24 2.547z" transform="translate(33.689 167.803)" fill="#091408"/>
	<path d="M104.826 44.586a8.591 8.591 0 0 1 4.189 2.738c1.258 2.419 1 4.7.1 7.258-.787 2.116-2.517 2.3-4.35 2.642a7.278 7.278 0 0 0-3.093 1.158c-1.315.929-2.155 4.506-2.778 8.484-.993 6.61-1.242 15.788-4.312 34.153-3.758 22.469-26.193 30.986-40.34 30.986a55.461 55.461 0 0 1-7.162 0c-10.355-.387-25.567-6.959-25.567-19.475 0-10.68 9.018-16.332 16.47-16.429a15 15 0 0 1 4.258.29c6.678 1.065 10.354 6.767 9.973 10.955-.4 4.385-3.735 5.621-2.635 7.706 1.081 2.049 3.833 2.164 4.549 2.032 4.885-.909 7.737-6.846 10.646-24.491.995-5.972 2.338-20.525 2.338-22.719s1.082-7.629.194-10.549c-1.161-.968-4.59-.593-6.121-.822a4.348 4.348 0 0 1-3.283-3.84 14.969 14.969 0 0 1 .21-3.854c.143-5.279 6.953-8.148 21.614-8.454l14.774.035a29.016 29.016 0 0 1 10.328 2.2" transform="translate(59.143 167.437)" fill-rule="evenodd" fill="#e11f1d"/>
	<path d="M49.741 132.679a25.519 25.519 0 0 1-2.985-.135c-10.542-.391-26.24-7.1-26.24-20.237 0-10.625 8.759-17.087 17.229-17.2a14.534 14.534 0 0 1 3.871.217l.516.082c6.893 1.1 11.055 6.981 10.618 11.784a10.317 10.317 0 0 1-2.014 5.084c-.787 1.179-1.015 1.608-.707 2.193.852 1.613 3.1 1.661 3.35 1.661a2.352 2.352 0 0 0 .38-.025c4.583-.853 7.3-7.319 10.028-23.861.982-5.893 2.328-20.348 2.328-22.595 0-.707.1-1.685.218-2.817.235-2.272.553-5.344.078-7.257a10.421 10.421 0 0 0-3.582-.433 16.677 16.677 0 0 1-1.987-.106 5.1 5.1 0 0 1-3.939-4.589 15.662 15.662 0 0 1 .214-3.969c.227-5.825 7.543-8.808 22.363-9.117l14.792.034a29.793 29.793 0 0 1 10.606 2.25 9.3 9.3 0 0 1 4.5 2.969l.086.131c1.528 2.939.928 5.626.139 7.868-.892 2.4-2.849 2.758-4.576 3.075l-.355.066a6.628 6.628 0 0 0-2.781 1.022c-.634.448-1.566 2.188-2.474 7.984-.335 2.237-.582 4.739-.894 7.906-.588 5.971-1.394 14.146-3.42 26.256-3.88 23.2-26.7 31.627-41.1 31.627.025 0-2.152.129-4.272.129M39.06 96.609c-.346 0-.752.012-1.27.036-6.548.085-15.736 5-15.736 15.662 0 12.129 14.815 18.333 24.827 18.707a24.737 24.737 0 0 0 2.861.129c2.073 0 4.2-.126 4.226-.128 13.387 0 35.931-8.239 39.628-30.345 2.017-12.058 2.82-20.2 3.406-26.152.314-3.189.563-5.708.905-7.988.842-5.37 1.766-8.06 3.095-9a8.041 8.041 0 0 1 3.393-1.284l.362-.067c1.805-.331 2.854-.592 3.41-2.088.959-2.727.955-4.64-.023-6.566a7.91 7.91 0 0 0-3.822-2.447 28.39 28.39 0 0 0-10.092-2.146L79.5 42.9c-13.694.286-20.713 2.879-20.844 7.707l-.022.166a14.225 14.225 0 0 0-.19 3.609v.1a3.6 3.6 0 0 0 2.642 3.041 16.317 16.317 0 0 0 1.775.087c1.739.032 3.709.067 4.712.9l.176.147.067.22c.663 2.181.323 5.47.05 8.114-.113 1.089-.21 2.031-.21 2.659 0 2.28-1.359 16.9-2.35 22.846-2.891 17.538-5.838 24.111-11.263 25.12a3.773 3.773 0 0 1-.66.05 5.24 5.24 0 0 1-4.709-2.479c-.761-1.443.026-2.623.788-3.763a8.756 8.756 0 0 0 1.761-4.371c.366-4.028-3.375-9.178-9.329-10.128l-.52-.083a12.359 12.359 0 0 0-2.312-.234" transform="translate(59.367 167.661)" fill="#091408"/>
	<path d="M374.117 75.1c3.051-1.13 6.743 11.555 6.743 15.306 0 5.7-5.226 4.768-7.7 4.753-.123 0-.549-.02-.629-.019-2.394.051-7.383-.64-7.025-3.879.681-6.177 5.337-14.95 8.613-16.162m-108.31-32.565a44.9 44.9 0 0 1 4.606-.372c8.5-.307 16.2-.459 26.116 0 8.727.421 10.44 4.053 10.4 8.341-.078 9.792-8.613 3.07-11.613 9.871-1.153 2.618-2.38 16.278-2.38 16.278-.229 3.9-2.563 23.172-2.846 29.015a36.677 36.677 0 0 0-.1 4.936c.386 3.484 4.35 4.485 8.924 4.925 18.173 1.753 11.822-15.749 25.717-15.749 7.312 0 7.167 8.018 5.811 16.728l26.807-44.518c9.378-14.661 2.235-30.485 21.872-30.485 17.723 0 21.36 18.642 25.84 37.84 2.032 8.71 6.1 25.356 6.1 25.356 4.276 20.823 11.341 9.4 11.709 19.355.238 6.349-6.911 8.053-13.839 8.323-8.19.305-17.032.132-22.162-.1-1.837-.077-11.709-.493-11.709-6.387 0-7.809 10.063-5.489 8.129-11.613-.581-1.839-2.178-3.177-6.582-3.29-4.9-.115-7.452 0-12.968 0-2.421 0-10.162-.484-10.549 4.839-.313 4.315 8.129.962 8.129 9 0 6.469-13.7 7.871-16.839 7.839l-9.194-.1c-6.352-.068-9.483-1.258-11.613-2.419-1.108-.6-1.627 1.371-3.659 1.952a14.7 14.7 0 0 1-3.88.019c-1.148 0-4.326-1.15-5.358-1.15h-50.522c-.491 0-14.1 2.606-13.887-5.685a17.735 17.735 0 0 1 .417-5.176c1.109-4.506 7.163-1.463 10.893-10.863a59.313 59.313 0 0 0 3.679-16.355c1.063-9.678 2.436-21.759 2.9-24.969.1-2.226 1.469-6.273-.1-8.42a10.914 10.914 0 0 0-3.465-1.822c-2.3-.962-3.307-1.137-3.419-3.439 0 0-.065-4.787 1-6.916.687-1.692 1.929-3.13 5.2-4.233a23.9 23.9 0 0 1 2.429-.56" transform="translate(8.404 167.629)" fill-rule="evenodd" fill="#e11f1d"/>
	<path d="m344.276 133.212-9.308-.1c-6.657-.072-9.9-1.381-11.972-2.513-.149 0-.465.3-.671.493a5.713 5.713 0 0 1-2.409 1.523l-.112.022a16.721 16.721 0 0 1-2.169.141 13.735 13.735 0 0 1-1.874-.116 15.475 15.475 0 0 1-2.954-.625 14.572 14.572 0 0 0-2.34-.524h-50.529c-.016 0-.121.019-.272.039a33.826 33.826 0 0 1-4.609.349c-3.83 0-6.587-.835-8.192-2.481a5.81 5.81 0 0 1-1.583-4.381 22.405 22.405 0 0 1 .446-5.366c.548-2.231 2.172-2.921 3.892-3.652 2.216-.941 4.973-2.114 7.026-7.285a58.15 58.15 0 0 0 3.607-15.957s3.077-26.553 3.208-27.351c.312-1.925.7-4.312-.189-5.631a10.467 10.467 0 0 0-3.156-1.622l-.638-.262c-1.9-.774-3.16-1.285-3.285-3.863 0-.229-.056-5.026 1.078-7.3.886-2.188 2.581-3.585 5.644-4.617a24.047 24.047 0 0 1 2.566-.592 45.883 45.883 0 0 1 4.689-.379c3.983-.143 8.738-.29 13.79-.29 4.113 0 8.165.1 12.387.291 7.752.374 11.187 3.185 11.138 9.114-.05 6.078-3.31 6.53-6.186 6.928-2.224.308-4.325.6-5.493 3.246-.9 2.052-1.98 12.272-2.317 16.036-.1 1.66-.572 6.06-1.121 11.155-.732 6.8-1.562 14.5-1.723 17.828a15.046 15.046 0 0 1-.091 1.761 15.866 15.866 0 0 0-.005 3.092c.268 2.407 2.73 3.677 8.231 4.206.825.079 1.62.119 2.363.119 7.4 0 9.6-3.864 11.935-7.956 2.217-3.892 4.509-7.916 11.345-7.916a6.55 6.55 0 0 1 5.243 2.145c2.2 2.573 2.318 7.112 1.821 11.78l24.9-41.345c3.273-5.117 4.5-10.412 5.592-15.086 1.969-8.463 3.669-15.772 16.938-15.772 17.672 0 21.759 17.627 26.089 36.289 0 0 6.553 27.327 6.594 27.493 2.415 11.759 5.617 12.838 7.955 13.627 2.176.733 3.614 1.538 3.775 5.882.211 5.667-4.693 8.735-14.577 9.119-2.927.108-6.124.165-9.505.165-4.352 0-8.988-.1-12.72-.262-8.024-.338-12.444-2.878-12.444-7.155 0-4.466 2.977-5.985 5.368-7.2s3.513-1.908 2.8-4.178c-.386-1.222-1.4-2.639-5.869-2.754-3.115-.073-14.08-.011-14.4-.011-5.481 0-8.129 1.315-8.334 4.138-.082 1.126.58 1.432 2.492 2.021 2.38.733 5.639 1.738 5.639 6.923 0 7.145-13.8 8.607-17.5 8.607m-21.321-4.166a1.615 1.615 0 0 1 .776.207c1.921 1.048 4.935 2.258 11.253 2.326l9.292.1c4.092 0 15.965-1.741 15.965-7.071 0-4.051-2.316-4.765-4.556-5.454-1.757-.542-3.75-1.156-3.572-3.6.4-5.563 7.526-5.563 9.867-5.563.324 0 .622 0 .889.006h.56c1.992 0 3.6-.015 5.066-.029 2.6-.024 4.782-.043 7.92.029 4.188.108 6.5 1.324 7.3 3.828 1.14 3.61-1.36 4.885-3.565 6.009-2.227 1.136-4.529 2.31-4.529 5.836 0 4.656 7.674 5.481 10.974 5.619 3.713.166 8.324.26 12.654.26 3.362 0 6.541-.055 9.447-.163 8.866-.345 13.274-2.877 13.1-7.526-.133-3.609-1.056-3.921-2.73-4.484-2.691-.907-6.378-2.151-8.964-14.746-.035-.139-4.082-16.722-6.092-25.336l-.5-2.147c-4.187-18.05-8.142-35.1-24.592-35.1-12.05 0-13.473 6.116-15.443 14.582-1.115 4.794-2.379 10.227-5.783 15.548l-26.8 44.5-1.417-.514c.8-5.159 1.418-11.438-.975-14.233a5.03 5.03 0 0 0-4.076-1.608c-5.944 0-7.828 3.309-10.011 7.141-2.331 4.092-4.974 8.732-13.269 8.732-.792 0-1.638-.043-2.511-.127-4.494-.432-9.15-1.436-9.613-5.6a17.5 17.5 0 0 1 .008-3.379 13.642 13.642 0 0 0 .084-1.641c.163-3.412 1-11.139 1.731-17.956.547-5.076 1.019-9.459 1.116-11.1.053-.586 1.253-13.841 2.443-16.542 1.515-3.432 4.384-3.829 6.688-4.148 2.8-.388 4.823-.668 4.861-5.42.031-3.687-1.12-7.155-9.675-7.568-4.2-.194-8.225-.289-12.314-.289-5.028 0-9.765.146-13.736.29a44 44 0 0 0-4.525.365c-.2.028-1.72.334-2.294.526-3.253 1.1-4.2 2.472-4.735 3.794-.828 1.661-.959 5.336-.942 6.616.077 1.572.509 1.747 2.329 2.488a20.9 20.9 0 0 1 4.288 2.2l.118.129c1.331 1.822.877 4.611.513 6.852-.125.768-3.2 27.273-3.2 27.273a59.585 59.585 0 0 1-3.707 16.357c-2.289 5.766-5.505 7.134-7.854 8.132-1.732.736-2.652 1.187-3.008 2.631a21.53 21.53 0 0 0-.395 5.012 4.279 4.279 0 0 0 1.147 3.268c1.288 1.32 3.739 2.018 7.093 2.018a32.326 32.326 0 0 0 4.4-.335c.261-.036.427-.053.479-.053h50.527a13.439 13.439 0 0 1 2.74.577 15.061 15.061 0 0 0 2.611.572l.131.01a11.653 11.653 0 0 0 1.686.106 15.241 15.241 0 0 0 1.911-.12 4.354 4.354 0 0 0 1.725-1.147 2.546 2.546 0 0 1 1.685-.933m52.237-33.277c-.48 0-3.126-.081-3.126-.081-.8 0-4.9-.1-6.722-2.132a3.261 3.261 0 0 1-.823-2.6c.66-5.984 5.286-15.384 9.11-16.8a1.882 1.882 0 0 1 .657-.118c3.921 0 7.12 12.981 7.12 16.146 0 5.585-4.68 5.585-6.218 5.585m0-1.536c2.432 0 4.682-.491 4.682-4.049 0-3.834-3.526-14.609-5.584-14.609a.35.35 0 0 0-.124.023c-2.758 1.02-7.421 9.222-8.117 15.525a1.719 1.719 0 0 0 .441 1.408c1 1.12 3.523 1.621 5.577 1.621 0 0 2.668.081 3.126.081" transform="translate(8.621 167.854)" fill="#091408"/>
</svg>