<?xml version="1.0" ?>
<svg xmlns="http://www.w3.org/2000/svg" viewBox="0 0 756 756">
	<path d="M 164.591,586.667 L 591.258,586.614 L 591.258,756.0 L 164.591,756.0 L 164.591,586.667" fill="#52b0ff"/>
	<path d="M 334.591,595.263 C 285.801,588.695 248.104,571.706 220.411,543.805 C 191.801,514.981 173.021,472.56 165.486,419.741 L 164.783,414.816 L 171.687,413.436 C 191.944,409.383 304.47,388.0 305.532,388.0 C 306.217,388.0 307.49,393.345 308.359,399.879 C 315.782,455.626 346.412,486.469 388.29,480.365 C 414.268,476.579 431.718,463.318 439.466,441.475 L 442.591,432.667 L 442.948,216.333 L 443.305,0.0 L 591.409,0.0 L 590.882,209.667 C 590.313,435.728 590.433,431.747 583.214,464.221 C 565.087,545.767 515.3,586.101 420.591,595.967 C 402.655,597.837 350.531,597.409 334.591,595.263 L 334.591,595.263" fill="#050000"/>
</svg>