<?xml version="1.0" ?>
<svg xmlns="http://www.w3.org/2000/svg" fill="none" viewBox="0 0 44 44">
	<path d="M 39.0,22.0 A 17.0,17.0 0.0 1,0 5.0,22.0 A 17.0,17.0 0.0 0,0 39.0,22.0" fill="#5C40F4"/>
	<path d="M 11.97,17.44 L 10.85,25.61 A 3.93,3.93 0.0 0,0 14.85,30.19 L 27.46,30.19 A 5.14,5.14 0.0 0,0 32.56,24.35 L 31.36,15.68 A 4.0,4.0 0.0 0,0 26.96,12.27 L 15.94,13.55 A 4.54,4.54 0.0 0,0 11.97,17.45 L 11.97,17.44" fill="#7373FF"/>
	<path opacity=".3" d="M 28.11,15.99 L 19.41,16.77 A 3.58,3.58 0.0 0,0 16.15,19.99 L 15.5,26.59 A 3.22,3.22 0.0 0,0 18.76,30.19 L 27.65,30.19 A 4.98,4.98 0.0 0,0 32.58,24.54 L 31.81,18.94 A 3.43,3.43 0.0 0,0 28.11,15.99 L 28.11,15.99" fill="#fff"/>
	<path d="M 29.64,19.45 L 22.69,19.93 A 2.67,2.67 0.0 0,0 20.21,22.43 L 19.88,27.59 A 2.42,2.42 0.0 0,0 22.32,30.19 L 28.05,30.19 A 4.5,4.5 0.0 0,0 32.63,24.94 L 32.16,21.5 A 2.38,2.38 0.0 0,0 29.64,19.45 L 29.64,19.45" fill="#F7F7FF"/>
</svg>