<svg xmlns="http://www.w3.org/2000/svg" id="Layer_1" x="0" y="0" version="1.1" viewBox="0 0 359.5 147.4" xml:space="preserve"><style>.st0{fill:#36454f}</style><path d="M69.2 49.6c-1.8 0-3.3 1.5-3.3 3.3v20.7c0 1.3-.3 2.6-.8 3.8-.7 1.7-2 3.2-3.5 4.3-1.6 1-3.4 1.7-5.4 1.7-1.3 0-2.6-.3-3.8-.8-1.7-.7-3.2-2-4.3-3.5-1-1.6-1.7-3.4-1.7-5.4V52.8c0-1.8-1.5-3.3-3.3-3.3s-3.3 1.5-3.3 3.3v20.7c0 2.2.5 4.4 1.3 6.3 1.2 2.9 3.3 5.4 5.9 7.1 2.6 1.7 5.7 2.8 9.1 2.8 2.2 0 4.4-.5 6.3-1.3 1.2-.5 2.3-1.2 3.4-1.9v4.6c0 1.3-.3 2.6-.8 3.8-.7 1.7-2 3.2-3.5 4.3-1.6 1-3.4 1.7-5.4 1.7s-3.7-.3-5-.6c-2.1-.5-3.5-1.3-4.3-2-.4-.3-.7-.6-.9-.7l-.2-.2c-1.2-1.3-3.2-1.5-4.5-.4-1.4 1.1-1.6 3.2-.4 4.6.2.2 1.5 1.7 4 3.1 1.3.7 2.9 1.4 4.8 1.9s4.1.8 6.7.8c2.2 0 4.4-.5 6.3-1.3 2.9-1.2 5.4-3.3 7.1-5.9 1.7-2.6 2.8-5.7 2.8-9.1V52.8c0-1.8-1.5-3.2-3.3-3.2zM277.2 59.5c-1.2-2.9-3.3-5.4-5.9-7.1-2.6-1.7-5.7-2.8-9.1-2.8-2.2 0-4.4.5-6.3 1.3-1.2.5-2.3 1.2-3.4 1.9 0-1.8-1.5-3.2-3.3-3.2s-3.3 1.5-3.3 3.3v33.7c0 1.8 1.5 3.3 3.3 3.3s3.3-1.5 3.3-3.3V65.8c0-1.3.3-2.6.8-3.8.7-1.7 2-3.2 3.5-4.3 1.6-1 3.4-1.7 5.4-1.7 1.3 0 2.6.3 3.8.8 1.7.7 3.2 2 4.3 3.5 1 1.6 1.7 3.4 1.7 5.4v20.7c0 1.8 1.5 3.3 3.3 3.3s3.3-1.5 3.3-3.3V65.7c-.1-2.1-.5-4.3-1.4-6.2zM318.6 70.8c.6-.7.9-1.5.9-2.4-.1-2.1-.5-4-1.2-5.9-1.3-3.7-3.7-6.9-6.7-9.3-1.5-1.2-3.2-2.1-5-2.7-1.8-.6-3.8-1-5.8-1-2.6 0-5.1.6-7.4 1.6-3.4 1.6-6.2 4.1-8.2 7.3s-3.1 7-3.1 11.1c0 2.6.5 5.1 1.4 7.4 1.3 3.5 3.6 6.6 6.6 8.9 1.5 1.1 3.2 2.1 5 2.7s3.8 1 5.8 1.1h.5c2.5 0 5-.3 7.4-1.2 2.4-.8 4.7-2.2 6.7-4 1.3-1.2 1.4-3.3.2-4.6-1.2-1.3-3.3-1.4-4.6-.2-1.3 1.2-2.8 2.1-4.3 2.6-1.6.6-3.4.8-5.3.8h-.4c-1.8 0-3.4-.4-4.9-1.1-1.1-.5-2.1-1.2-3-2.1-1.4-1.3-2.5-2.9-3.2-4.6-.5-1.1-.8-2.3-1-3.5h27.5c.6.2 1.5-.2 2.1-.9zm-22.5-13.7c1.4-.7 3-1 4.7-1 1.3 0 2.5.2 3.6.6 1.7.6 3.3 1.6 4.6 3 1.3 1.4 2.4 3.1 3.1 5 .1.2.1.4.2.6h-23.2c.6-2.1 1.7-3.9 3-5.4 1.3-1.1 2.6-2.1 4-2.8zM142.5 51.2c-2.3-1-4.8-1.6-7.4-1.6-2.6 0-5.1.6-7.4 1.6-1.8.8-3.4 1.9-4.8 3.2v-1.6c0-1.8-1.5-3.3-3.3-3.3s-3.3 1.5-3.3 3.3v51.3c0 1.8 1.5 3.3 3.3 3.3s3.3-1.5 3.3-3.3V84.9c1.4 1.3 3.1 2.4 4.8 3.2 2.3 1 4.8 1.6 7.4 1.6s5.1-.6 7.4-1.6c3.4-1.6 6.2-4.1 8.2-7.3 2-3.2 3.1-7 3.1-11.1 0-5.5-2-10.5-5.4-14.1-1.6-1.9-3.6-3.4-5.9-4.4zm1.2 28.2c-1.1 1.2-2.4 2.2-3.9 2.9-1.4.7-3 1-4.7 1s-3.2-.4-4.7-1c-2.2-1-4.1-2.7-5.4-4.9-1.3-2.2-2.2-4.8-2.2-7.7 0-3.8 1.4-7.3 3.7-9.7 1.1-1.2 2.4-2.2 3.9-2.9 1.4-.7 3-1 4.7-1s3.2.4 4.7 1c2.2 1 4.1 2.7 5.4 4.9 1.3 2.2 2.2 4.8 2.2 7.7 0 3.8-1.5 7.2-3.7 9.7zM109.8 49.6c-1.8 0-3.3 1.5-3.3 3.3v1.6c-1.4-1.3-3.1-2.4-4.8-3.2-2.3-1-4.8-1.6-7.4-1.6s-5.1.6-7.4 1.6c-3.4 1.6-6.2 4.1-8.2 7.3s-3.1 7-3.1 11.1c0 5.5 2 10.5 5.4 14.1 1.7 1.8 3.7 3.3 6 4.4 2.3 1 4.8 1.6 7.4 1.6s5.1-.6 7.4-1.6c1.8-.8 3.4-1.9 4.8-3.2v1.6c0 1.8 1.5 3.3 3.3 3.3s3.3-1.5 3.3-3.3V52.8c-.2-1.8-1.6-3.2-3.4-3.2zm-7 29.8c-1.1 1.2-2.4 2.2-3.9 2.9-1.4.7-3 1-4.7 1s-3.2-.4-4.7-1c-2.2-1-4.1-2.7-5.4-4.9-1.3-2.2-2.2-4.8-2.2-7.7 0-3.8 1.4-7.3 3.7-9.7 1.1-1.2 2.4-2.2 3.9-2.9 1.4-.7 3-1 4.7-1s3.2.4 4.7 1c2.2 1 4.1 2.7 5.4 4.9s2.2 4.8 2.2 7.7c0 3.8-1.4 7.2-3.7 9.7zM183.4 75.7c-.2-.8-.6-1.7-1.2-2.6-.9-1.3-2.2-2.7-4-3.8-1.8-1.1-4.1-2-7-2.6l-1.4-.3h-.1c-2.1-.4-3.5-1-4.6-1.6-.8-.4-1.3-.9-1.7-1.3-.6-.6-.8-1.1-1-1.5-.6-1.6.2-3.7 1.6-4.7.9-.6 2-.9 3.1-1.1 2-.3 4.3-.1 6.3.5 1.7.5 2.8 1.3 3.6 1.8.4.3.6.5.8.7.1.1.1.1.1.2 1.1 1.4 3.1 1.7 4.5.7 1.5-1 1.8-3.1.7-4.5-.1-.1-.4-.6-1-1.1-.9-.9-2.3-2.1-4.5-3.1-2.1-1-5-1.8-8.4-1.8-1.2 0-2.3 0-3.5.2-1.9.3-3.8 1-5.4 2.1-.6.4-1.2.9-1.7 1.5-.8.9-1.5 1.9-2 3.2-.9 2.2-1.1 4.9-.4 7.2.2.8.6 1.7 1.2 2.6.9 1.3 2.2 2.7 4 3.8 1.8 1.1 4.1 2 7 2.6l1.4.3h.1c2.1.4 3.5 1 4.6 1.6.8.4 1.3.9 1.7 1.3.6.6.8 1.1 1 1.5.3.8.2 1.9-.1 2.7-.1.4-.3.7-.4.9-.5.8-1.3 1.3-2.2 1.7-.6.2-1.3.4-1.9.5-2 .3-4.3.1-6.3-.5-1.7-.5-2.8-1.3-3.6-1.8-.4-.3-.6-.5-.8-.7-.1-.1-.1-.1-.1-.2-1.1-1.4-3.1-1.7-4.5-.7-1.5 1-1.8 3.1-.7 4.5.1.1.4.6 1 1.1.9.9 2.3 2.1 4.5 3.1 3.5 1.6 8.1 2.2 11.9 1.5.9-.2 1.9-.4 3-.8.8-.3 1.6-.7 2.4-1.3.6-.4 1.2-.9 1.7-1.5.8-.9 1.5-1.9 2-3.2.7-2.2 1-4.9.3-7.1zM200.4 83.3h-2.6c-.5 0-1-.1-1.4-.3-.7-.3-1.2-.8-1.6-1.3-.4-.6-.6-1.3-.6-2.1V56.1h6.3c1.8 0 3.3-1.5 3.3-3.3s-1.5-3.3-3.3-3.3h-6.3v-6.3c0-1.8-1.5-3.3-3.3-3.3s-3.3 1.5-3.3 3.3v36.2c0 1.4.3 2.8.8 4 .8 1.8 2.1 3.4 3.7 4.5s3.6 1.7 5.7 1.7h2.6c1.8 0 3.3-1.5 3.3-3.3-.1-1.6-1.5-3-3.3-3z" class="st0"/><path d="M222.3 49.6c-11.1 0-20 9-20 20s9 20 20 20c11.1 0 20-9 20-20s-8.9-20-20-20zm0 23.3c-1.8 0-3.3-1.5-3.3-3.3s1.5-3.3 3.3-3.3 3.3 1.5 3.3 3.3c0 1.9-1.5 3.3-3.3 3.3z" class="st0"/></svg>