<?xml version="1.0" encoding="UTF-8" standalone="no"?>

<svg viewBox="0 0 837 226" version="1.1" xmlns="http://www.w3.org/2000/svg"  xml:space="preserve" xmlns:serif="http://www.serif.com/" style="fill-rule:evenodd;clip-rule:evenodd;stroke-linejoin:round;stroke-miterlimit:2;">
    <g transform="matrix(4.92151,0,0,4.92151,-1105.55,-3605.93)">
        <path d="M253.653,736.738C252.106,736.193 251.945,736.134 250.736,735.838C250.395,735.767 249.937,735.666 249.591,735.607C248.158,735.363 246.498,735.324 244.751,735.482L244.496,736.326L244.803,736.838C249.25,736.242 253.426,736.56 256.078,737.873C254.705,737.154 254.604,737.113 253.653,736.738" style="fill:rgb(247,144,38);fill-rule:nonzero;"/>
    </g>
    <g transform="matrix(4.92151,0,0,4.92151,-1105.55,-3605.93)">
        <path d="M256.755,738.248C256.652,738.182 256.547,738.117 256.437,738.059C255.453,737.508 255.351,737.465 253.653,736.738C252.457,736.293 252.23,736.23 250.735,735.838C250.395,735.752 249.933,735.674 249.589,735.607C250.796,735.812 251.833,736.162 252.629,736.666C255.838,738.684 253.841,742.361 248.178,744.887C242.567,747.393 235.454,747.814 232.208,745.859C232.208,745.855 232.208,745.855 232.212,745.855C229.891,744.391 230.213,742.021 232.743,739.879C232.399,740.154 232.049,740.447 231.753,740.689C230.755,741.609 230.614,741.771 229.518,743.014C229.153,743.465 228.696,744.096 228.35,744.562C226.822,746.771 227.067,748.928 229.413,750.412L229.406,750.412C229.416,750.416 229.422,750.42 229.424,750.424L229.427,750.424C233.721,753.08 243.307,752.553 250.829,749.203C258.371,745.842 261.03,740.937 256.755,738.248" style="fill:rgb(247,144,37);fill-rule:nonzero;"/>
    </g>
    <g transform="matrix(4.92151,0,0,4.92151,-1105.55,-3605.93)">
        <path d="M247.921,763.357C240.094,765.115 231.484,764.558 227.353,761.99L227.34,761.974C225.613,760.894 224.755,759.525 224.664,758.039C224.59,755.666 224.632,754.666 225.145,751.894C224.98,753.787 225.521,755.531 227.716,756.882C227.729,756.896 227.762,756.912 227.775,756.927C231.651,759.211 238.621,759.556 245.714,757.949L247.861,760.337L247.921,763.357Z" style="fill:rgb(50,186,149);fill-rule:nonzero;"/>
    </g>
    <g transform="matrix(4.92151,0,0,4.92151,-1105.55,-3605.93)">
        <path d="M266.851,762.318L266.6,763.127C265.708,765.814 262.317,768.679 256.942,770.834C247.758,774.519 236.26,774.736 231.265,771.326C230.309,770.17 229.507,768.834 228.893,767.351C234.336,771.068 246.863,770.83 256.873,766.816C263.656,764.091 267.542,760.339 267.651,757.041C267.556,758.56 267.443,760.267 266.851,762.318" style="fill:rgb(236,15,109);fill-rule:nonzero;"/>
    </g>
    <g transform="matrix(4.92151,0,0,4.92151,-1105.55,-3605.93)">
        <path d="M252.196,776.693L252.158,777.267C245.858,778.664 242.448,777.703 241.093,777.404C236.082,776.062 235.092,774.847 234.778,774.548C239.359,776.832 245.851,777.295 251.698,775.912L252.196,776.693Z" style="fill:rgb(137,45,135);fill-rule:nonzero;"/>
    </g>
    <g transform="matrix(4.92151,0,0,4.92151,-1105.55,-3605.93)">
        <path d="M257.824,764.888L255.948,765.722L256.512,759.07C256.512,759.07 256.665,757.675 255.519,758.083C254.377,758.501 251.503,759.607 251.503,759.607L250.566,762.349L249.155,762.976L249.135,759.73L246.732,757.644L248.094,757.038L250.809,758.052C250.809,758.052 253.557,756.656 254.628,756.085C255.702,755.509 254.563,754.689 254.563,754.689L249.241,750.656L251.116,749.822L259.854,753.534C259.854,753.534 261.539,752.849 262.831,752.464C264.122,752.075 265.244,752.558 265.244,752.558C265.244,752.558 264.851,753.718 263.7,754.417C262.549,755.118 260.912,755.913 260.912,755.913L257.824,764.888Z" style="fill:rgb(55,186,149);fill-rule:nonzero;"/>
    </g>
    <g transform="matrix(4.92151,0,0,4.92151,-1105.55,-3605.93)">
        <path d="M241.595,740.773L242.582,740.625L240.615,738.041C240.615,738.041 240.187,737.507 240.762,737.38C241.341,737.252 242.809,736.953 242.809,736.953L243.911,737.834L244.654,737.724L243.812,736.386L244.256,734.902L243.538,735.007L242.687,736.136C242.687,736.136 241.195,736.277 240.607,736.326C240.016,736.371 240.269,735.736 240.269,735.736L241.402,732.689L240.411,732.836L237.796,736.642C237.796,736.642 236.924,736.802 236.294,736.98C235.661,737.158 235.328,737.648 235.328,737.648C235.328,737.648 235.792,738.023 236.446,738.009C237.104,737.996 237.981,737.894 237.981,737.894L241.595,740.773Z" style="fill:rgb(247,144,38);fill-rule:nonzero;"/>
    </g>
    <g transform="matrix(4.92151,0,0,4.92151,-1105.55,-3605.93)">
        <path d="M255.02,777.976L254.481,778.163L254.787,776.333C254.787,776.333 254.86,775.951 254.535,776.04C254.207,776.128 253.385,776.372 253.385,776.372L253.082,777.06L252.677,777.201L252.729,776.353L252.185,775.773L252.574,775.634L253.228,775.925C253.228,775.925 254.02,775.599 254.331,775.466C254.642,775.331 254.346,775.08 254.346,775.08L252.961,773.841L253.499,773.654L255.838,774.876C255.838,774.876 256.316,774.722 256.685,774.644C257.052,774.564 257.349,774.726 257.349,774.726C257.349,774.726 257.217,775.037 256.882,775.206C256.547,775.374 256.079,775.558 256.079,775.558L255.02,777.976Z" style="fill:rgb(137,45,135);fill-rule:nonzero;"/>
    </g>
    <g transform="matrix(4.92151,0,0,4.92151,-1105.55,-3605.93)">
        <g transform="matrix(19.5247,0,0,19.5247,272.905,764.284)">
            <path d="M0.012,-0.698L0.151,-0.698L0.348,-0.362L0.532,-0.698L0.667,-0.698L0.41,-0.244L0.41,0L0.28,0L0.28,-0.244L0.012,-0.698Z" style="fill:rgb(146,50,145);fill-rule:nonzero;"/>
        </g>
        <g transform="matrix(19.5247,0,0,19.5247,283.869,764.284)">
            <path d="M0.166,-0.258C0.166,-0.151 0.208,-0.098 0.291,-0.098C0.374,-0.098 0.415,-0.151 0.415,-0.258C0.415,-0.363 0.374,-0.415 0.291,-0.415C0.208,-0.415 0.166,-0.363 0.166,-0.258ZM0.037,-0.256C0.037,-0.428 0.121,-0.514 0.291,-0.514C0.46,-0.514 0.544,-0.428 0.544,-0.256C0.544,-0.085 0.46,0.001 0.291,0.001C0.122,0.001 0.037,-0.085 0.037,-0.256Z" style="fill:rgb(146,50,145);fill-rule:nonzero;"/>
        </g>
        <g transform="matrix(19.5247,0,0,19.5247,295.214,764.284)">
            <path d="M0.522,-0.513L0.522,0L0.421,0L0.406,-0.065C0.347,-0.022 0.284,0 0.218,0C0.113,0 0.061,-0.062 0.061,-0.186L0.061,-0.513L0.19,-0.513L0.19,-0.189C0.19,-0.133 0.215,-0.104 0.265,-0.104C0.307,-0.104 0.349,-0.121 0.393,-0.155L0.393,-0.513L0.522,-0.513Z" style="fill:rgb(146,50,145);fill-rule:nonzero;"/>
        </g>
        <g transform="matrix(19.5247,0,0,19.5247,306.606,764.284)">
            <path d="M0.061,0L0.061,-0.513L0.161,-0.513L0.177,-0.447C0.222,-0.491 0.27,-0.513 0.32,-0.513L0.32,-0.408C0.272,-0.408 0.229,-0.388 0.19,-0.348L0.19,0L0.061,0Z" style="fill:rgb(146,50,145);fill-rule:nonzero;"/>
        </g>
        <g transform="matrix(19.5247,0,0,19.5247,313.089,764.284)">
            <path d="M0.53,-0.698L0.53,-0.586L0.33,-0.586L0.33,0L0.2,0L0.2,-0.586L0,-0.586L0,-0.698L0.53,-0.698Z" style="fill:rgb(236,18,100);fill-rule:nonzero;"/>
        </g>
        <g transform="matrix(19.5247,0,0,19.5247,322.003,764.284)">
            <path d="M0.061,0L0.061,-0.513L0.161,-0.513L0.177,-0.447C0.222,-0.491 0.27,-0.513 0.32,-0.513L0.32,-0.408C0.272,-0.408 0.229,-0.388 0.19,-0.348L0.19,0L0.061,0Z" style="fill:rgb(236,18,100);fill-rule:nonzero;"/>
        </g>
        <g transform="matrix(19.5247,0,0,19.5247,328.486,764.284)">
            <path d="M0.037,-0.16C0.037,-0.262 0.111,-0.313 0.259,-0.313C0.294,-0.313 0.329,-0.309 0.364,-0.303L0.364,-0.341C0.364,-0.387 0.331,-0.41 0.265,-0.41C0.209,-0.41 0.146,-0.402 0.078,-0.386L0.078,-0.488C0.146,-0.505 0.209,-0.513 0.265,-0.513C0.417,-0.513 0.493,-0.456 0.493,-0.344L0.493,0L0.418,0L0.372,-0.046C0.327,-0.015 0.278,0 0.225,0C0.099,0 0.037,-0.053 0.037,-0.16ZM0.364,-0.215C0.331,-0.221 0.296,-0.225 0.259,-0.225C0.197,-0.225 0.166,-0.203 0.166,-0.161C0.166,-0.116 0.192,-0.093 0.244,-0.093C0.287,-0.093 0.327,-0.106 0.364,-0.133L0.364,-0.215Z" style="fill:rgb(236,18,100);fill-rule:nonzero;"/>
        </g>
        <g transform="matrix(19.5247,0,0,19.5247,339.306,764.284)">
            <path d="M0,-0.513L0.137,-0.513L0.261,-0.154L0.391,-0.513L0.527,-0.513L0.319,0L0.196,0L0,-0.513Z" style="fill:rgb(236,18,100);fill-rule:nonzero;"/>
        </g>
        <g transform="matrix(19.5247,0,0,19.5247,349.603,764.284)">
            <path d="M0.277,-0.513C0.433,-0.513 0.511,-0.433 0.511,-0.274C0.511,-0.253 0.509,-0.232 0.506,-0.211L0.166,-0.211C0.166,-0.139 0.219,-0.103 0.325,-0.103C0.377,-0.103 0.429,-0.107 0.48,-0.117L0.48,-0.015C0.435,-0.005 0.38,0 0.315,0C0.13,0 0.037,-0.087 0.037,-0.262C0.037,-0.429 0.117,-0.513 0.277,-0.513ZM0.166,-0.301L0.385,-0.301L0.385,-0.305C0.385,-0.376 0.349,-0.411 0.277,-0.411C0.209,-0.411 0.172,-0.374 0.166,-0.301Z" style="fill:rgb(236,18,100);fill-rule:nonzero;"/>
        </g>
        <g transform="matrix(19.5247,0,0,19.5247,360.28,764.284)">
            <rect x="0.061" y="-0.698" width="0.129" height="0.698" style="fill:rgb(236,18,100);fill-rule:nonzero;"/>
        </g>
        <g transform="matrix(19.5247,0,0,19.5247,365.19,764.284)">
            <rect x="0.049" y="-0.12" width="0.129" height="0.12" style="fill:rgb(55,186,149);fill-rule:nonzero;"/>
        </g>
        <g transform="matrix(19.5247,0,0,19.5247,369.623,764.284)">
            <path d="M0.53,-0.698L0.53,-0.586L0.33,-0.586L0.33,0L0.2,0L0.2,-0.586L0,-0.586L0,-0.698L0.53,-0.698Z" style="fill:rgb(247,144,37);fill-rule:nonzero;"/>
        </g>
        <g transform="matrix(19.5247,0,0,19.5247,379.967,764.284)">
            <path d="M0.738,-0.698L0.432,0L0.293,0L0,-0.698L0.154,-0.698L0.37,-0.164L0.586,-0.698L0.738,-0.698Z" style="fill:rgb(247,144,37);fill-rule:nonzero;"/>
        </g>
    </g>
</svg>