<?xml version="1.0" encoding="UTF-8" standalone="no"?>
<!-- Created with Inkscape (http://www.inkscape.org/) -->
<svg viewBox="0 0 374.20715 43.368637" version="1.1" id="svg5" inkscape:version="1.1.2 (b8e25be833, 2022-02-05)" sodipodi:docname="YouTube Creator Academy 2019.svg" xmlns:inkscape="http://www.inkscape.org/namespaces/inkscape" xmlns:sodipodi="http://sodipodi.sourceforge.net/DTD/sodipodi-0.dtd" xmlns:xlink="http://www.w3.org/1999/xlink" xmlns="http://www.w3.org/2000/svg" xmlns:svg="http://www.w3.org/2000/svg">
  <sodipodi:namedview id="namedview7" pagecolor="#ffffff" bordercolor="#666666" borderopacity="1.0" inkscape:pageshadow="2" inkscape:pageopacity="0.0" inkscape:pagecheckerboard="0" inkscape:document-units="mm" showgrid="false" inkscape:zoom="0.64052329" inkscape:cx="737.6781" inkscape:cy="170.17336" inkscape:window-width="1920" inkscape:window-height="1017" inkscape:window-x="-8" inkscape:window-y="-8" inkscape:window-maximized="1" inkscape:current-layer="layer1"/>
  <defs id="defs2">
    <polygon id="path-1" points="34.458688,0.26818605 34.458688,24 0.00011345787,24 0.00011345787,0.26818605 "/>
  </defs>
  <g inkscape:label="Layer 1" inkscape:groupmode="layer" id="layer1" transform="translate(90.031256,-103.3876)">
    <g id="LOGO+product" style="fill:none;fill-rule:evenodd;stroke:none;stroke-width:1" transform="matrix(1.4969251,0,0,1.4969251,-90.031426,102.98615)">
      <path d="M 41.792,16.472 38.024,2.864 h 3.288 l 1.32,6.168 c 0.336002,1.520008 0.583999,2.815995 0.744,3.888 h 0.096 c 0.112001,-0.768004 0.359998,-2.055991 0.744,-3.864 l 1.368,-6.192 h 3.288 l -3.816,13.608 v 6.552 h -3.264 z m 10.84,6.768 c -1.168006,0 -2.083997,-0.223998 -2.748,-0.672 -0.664003,-0.448002 -1.135999,-1.143995 -1.416,-2.088 -0.280001,-0.944005 -0.42,-2.199992 -0.42,-3.768 v -2.136 c 0,-1.584008 0.159998,-2.855995 0.48,-3.816 0.320002,-0.9600048 0.819997,-1.6599978 1.5,-2.1 C 50.708003,8.2199978 51.599994,8 52.704,8 c 1.088005,0 1.959997,0.2239978 2.616,0.672 0.656003,0.4480022 1.135998,1.1479952 1.44,2.1 0.304002,0.952005 0.456,2.219992 0.456,3.804 v 2.136 c 0,1.568008 -0.147999,2.827995 -0.444,3.78 -0.296001,0.952005 -0.775997,1.647998 -1.44,2.088 -0.664003,0.440002 -1.563994,0.66 -2.7,0.66 z m 0,-2.256 c 0.464002,0 0.787999,-0.239998 0.972,-0.72 0.184001,-0.480002 0.276,-1.263995 0.276,-2.352 v -4.584 c 0,-1.056005 -0.092,-1.827998 -0.276,-2.316 -0.184001,-0.488002 -0.507998,-0.732 -0.972,-0.732 -0.448002,0 -0.763999,0.243998 -0.948,0.732 -0.184001,0.488002 -0.276,1.259995 -0.276,2.316 v 4.584 c 0,1.088005 0.088,1.871998 0.264,2.352 0.176001,0.480002 0.495998,0.72 0.96,0.72 z M 67.984,8.288 V 23 h -2.592 l -0.288,-1.8 h -0.072 c -0.704004,1.360007 -1.759993,2.04 -3.168,2.04 -0.976005,0 -1.695998,-0.319997 -2.16,-0.96 -0.464002,-0.640003 -0.696,-1.639993 -0.696,-3 V 8.288 h 3.312 v 10.8 c 0,0.656003 0.072,1.123999 0.216,1.404 0.144001,0.280001 0.383998,0.42 0.72,0.42 0.288001,0 0.563999,-0.088 0.828,-0.264 0.264001,-0.176001 0.459999,-0.399999 0.588,-0.672 V 8.288 Z M 77.12,5.528 H 73.832 V 23 h -3.24 V 5.528 H 67.304 V 2.864 h 9.816 z m 8.32,2.76 V 23 H 82.848 L 82.56,21.2 h -0.072 c -0.704004,1.360007 -1.759993,2.04 -3.168,2.04 -0.976005,0 -1.695998,-0.319997 -2.16,-0.96 -0.464002,-0.640003 -0.696,-1.639993 -0.696,-3 V 8.288 h 3.312 v 10.8 c 0,0.656003 0.072,1.123999 0.216,1.404 0.144001,0.280001 0.383998,0.42 0.72,0.42 0.288001,0 0.563999,-0.088 0.828,-0.264 0.264001,-0.176001 0.459999,-0.399999 0.588,-0.672 V 8.288 Z M 93.784,8 c 0.784004,0 1.399998,0.2079979 1.848,0.624 0.448002,0.4160021 0.771999,1.0879954 0.972,2.016 0.200001,0.928005 0.3,2.215992 0.3,3.864 v 2.328 c 0,2.192011 -0.263997,3.803995 -0.792,4.836 -0.528003,1.032005 -1.351994,1.548 -2.472,1.548 -0.624003,0 -1.191998,-0.143999 -1.704,-0.432 -0.512003,-0.288001 -0.895999,-0.679998 -1.152,-1.176 H 90.712 L 90.376,23 H 87.64 V 2.12 h 3.192 v 5.328 c 0,1.0240051 -0.024,1.831997 -0.072,2.424 h 0.096 C 91.144001,9.3119972 91.551997,8.8600017 92.08,8.516 92.608003,8.1719983 93.175997,8 93.784,8 Z m -0.216,6.744 c 0,-1.152006 -0.036,-2.039997 -0.108,-2.664 -0.072,-0.624003 -0.199999,-1.067999 -0.384,-1.332 -0.184001,-0.264001 -0.443998,-0.396 -0.78,-0.396 -0.320002,0 -0.615999,0.127999 -0.888,0.384 -0.272001,0.256001 -0.463999,0.583998 -0.576,0.984 v 8.352 c 0.144001,0.256001 0.331999,0.447999 0.564,0.576 0.232001,0.128001 0.483999,0.192 0.756,0.192 0.352002,0 0.631999,-0.127999 0.84,-0.384 0.208001,-0.256001 0.355999,-0.687997 0.444,-1.296 0.088,-0.608003 0.132,-1.447995 0.132,-2.52 z m 8.224,2.016 v 0.744 c 0,0.944005 0.028,1.651998 0.084,2.124 0.056,0.472002 0.172,0.815999 0.348,1.032 0.176,0.216001 0.448,0.324 0.816,0.324 0.496,0 0.836,-0.191998 1.02,-0.576 0.184,-0.384002 0.284,-1.023996 0.3,-1.92 l 2.856,0.168 c 0.016,0.128001 0.024,0.303999 0.024,0.528 0,1.360007 -0.372,2.375997 -1.116,3.048 -0.744,0.672003 -1.79599,1.008 -3.156,1.008 -1.63201,0 -2.776,-0.511995 -3.432,-1.536 -0.656003,-1.024005 -0.984,-2.607989 -0.984,-4.752 v -2.568 c 0,-2.208011 0.339997,-3.819995 1.02,-4.836 0.68,-1.0160051 1.84399,-1.524 3.492,-1.524 1.13601,0 2.008,0.2079979 2.616,0.624 0.608,0.4160021 1.036,1.0639956 1.284,1.944 0.248,0.880004 0.372,2.095992 0.372,3.648 v 2.52 z m 1.2,-6.504 c -0.352,0 -0.612,0.103999 -0.78,0.312 -0.168,0.208001 -0.28,0.547998 -0.336,1.02 -0.056,0.472002 -0.084,1.187995 -0.084,2.148 v 1.056 h 2.424 v -1.056 c 0,-0.944005 -0.032,-1.659998 -0.096,-2.148 -0.064,-0.488002 -0.18,-0.831999 -0.348,-1.032 -0.168,-0.200001 -0.428,-0.3 -0.78,-0.3 z m 13.472,13.032 c -1.088,0 -1.94,-0.235998 -2.556,-0.708 -0.616,-0.472002 -1.056,-1.223995 -1.32,-2.256 -0.264,-1.032005 -0.396,-2.419991 -0.396,-4.164 V 9.776 c 0,-1.7440087 0.148,-3.1359948 0.444,-4.176 0.296,-1.0400052 0.768,-1.7959976 1.416,-2.268 0.648,-0.4720024 1.52399,-0.708 2.628,-0.708 1.42401,0 2.468,0.403996 3.132,1.212 0.664,0.808004 0.996,2.115991 0.996,3.924 0,0.5440027 -0.024,1.1279969 -0.072,1.752 l -2.28,0.144 V 8.768 c 0,-1.5360077 -0.136,-2.6199968 -0.408,-3.252 -0.272,-0.6320032 -0.72,-0.948 -1.344,-0.948 -0.48,0 -0.86,0.1559984 -1.14,0.468 -0.28,0.3120016 -0.484,0.8199965 -0.612,1.524 -0.128,0.7040035 -0.192,1.6639939 -0.192,2.88 v 7.296 c 0,1.152006 0.056,2.059997 0.168,2.724 0.112,0.664003 0.3,1.147998 0.564,1.452 0.264,0.304001 0.628,0.456 1.092,0.456 0.512,0 0.9,-0.151999 1.164,-0.456 0.264,-0.304002 0.448,-0.819996 0.552,-1.548 0.104,-0.728004 0.156,-1.771993 0.156,-3.132 l 2.28,0.144 c 0.016,0.256001 0.024,0.615998 0.024,1.08 0,1.424007 -0.14,2.555996 -0.42,3.396 -0.28,0.840004 -0.732,1.455998 -1.356,1.848 -0.624,0.392002 -1.464,0.588 -2.52,0.588 z M 128.024,8.12 c 0.176,0 0.392,0.032 0.648,0.096 L 128.48,11 c -0.24,-0.064 -0.504,-0.096 -0.792,-0.096 -0.512,0 -0.972,0.135999 -1.38,0.408 -0.408,0.272001 -0.716,0.639998 -0.924,1.104 V 23 h -2.4 V 8.408 h 1.848 l 0.264,2.736 h 0.048 c 0.224,-0.976005 0.604,-1.7239974 1.14,-2.244 0.536,-0.5200026 1.116,-0.78 1.74,-0.78 z m 3.904,8.448 V 17.6 c 0,0.960005 0.04,1.711997 0.12,2.256 0.08,0.544003 0.232,0.947999 0.456,1.212 0.224,0.264001 0.56,0.396 1.008,0.396 0.608,0 1.024,-0.227998 1.248,-0.684 0.224,-0.456002 0.328,-1.195995 0.312,-2.22 l 2.184,0.144 c 0.064,1.520008 -0.216,2.655996 -0.84,3.408 -0.624,0.752004 -1.60799,1.128 -2.952,1.128 -1.00801,0 -1.796,-0.215998 -2.364,-0.648 -0.568,-0.432002 -0.976,-1.091996 -1.224,-1.98 -0.248,-0.888004 -0.372,-2.059993 -0.372,-3.516 v -2.904 c 0,-2.08001 0.304,-3.603995 0.912,-4.572 0.608,-0.9680048 1.64799,-1.452 3.12,-1.452 1.008,0 1.788,0.203998 2.34,0.612 0.552,0.408002 0.94,1.0439957 1.164,1.908 0.224,0.864004 0.336,2.047993 0.336,3.552 v 2.328 z m 1.56,-6.624 c -0.416,0 -0.736,0.119999 -0.96,0.36 -0.224,0.240001 -0.38,0.627997 -0.468,1.164 -0.088,0.536003 -0.132,1.275995 -0.132,2.22 v 1.296 h 3.096 v -1.32 c 0,-0.960005 -0.044,-1.703997 -0.132,-2.232 -0.088,-0.528003 -0.244,-0.907999 -0.468,-1.14 -0.224,-0.232001 -0.536,-0.348 -0.936,-0.348 z m 9.736,-1.776 c 1.34401,0 2.3,0.3879961 2.868,1.164 0.568,0.776004 0.852,2.003992 0.852,3.684 V 23 h -1.848 l -0.264,-1.656 c -0.608,1.280006 -1.56799,1.92 -2.88,1.92 -0.91201,0 -1.644,-0.299997 -2.196,-0.9 -0.552,-0.600003 -0.828,-1.435995 -0.828,-2.508 0,-1.392007 0.45599,-2.535996 1.368,-3.432 0.91201,-0.896005 2.32799,-1.591997 4.248,-2.088 V 13.04 c 0,-1.136006 -0.096,-1.935998 -0.288,-2.4 -0.192,-0.464002 -0.568,-0.696 -1.128,-0.696 -0.624,0 -1.06,0.239998 -1.308,0.72 -0.248,0.480002 -0.364,1.287994 -0.348,2.424 l -2.208,-0.168 c -0.016,-0.192001 -0.024,-0.455998 -0.024,-0.792 0,-1.344007 0.328,-2.3399968 0.984,-2.988 0.656,-0.6480032 1.65599,-0.972 3,-0.972 z m -0.408,13.296 c 0.656,0 1.232,-0.375996 1.728,-1.128 v -4.56 c -2.08001,0.624003 -3.12,1.847991 -3.12,3.672 0,1.344007 0.46399,2.016 1.392,2.016 z m 11.824,1.128 c -0.336,0.176001 -0.744,0.315999 -1.224,0.42 -0.48,0.104 -0.92,0.156 -1.32,0.156 -0.608,0 -1.08,-0.103999 -1.416,-0.312 -0.336,-0.208001 -0.572,-0.547998 -0.708,-1.02 -0.136,-0.472002 -0.204,-1.139996 -0.204,-2.004 v -9.48 h -1.344 V 8.408 h 1.44 l 0.36,-4.176 h 1.872 v 4.176 h 2.376 v 1.944 h -2.304 v 9.144 c 0,0.704003 0.056,1.167999 0.168,1.392 0.112,0.224001 0.336,0.336 0.672,0.336 0.336,0 0.76,-0.072 1.272,-0.216 z m 5.224,0.648 c -1.02401,0 -1.832,-0.207998 -2.424,-0.624 -0.592,-0.416002 -1.02,-1.071996 -1.284,-1.968 -0.264,-0.896005 -0.396,-2.095993 -0.396,-3.6 v -2.592 c 0,-1.520008 0.14,-2.735995 0.42,-3.648 0.28,-0.9120046 0.72,-1.5799979 1.32,-2.004 0.6,-0.4240021 1.39599,-0.636 2.388,-0.636 0.992,0 1.784,0.2119979 2.376,0.636 0.592,0.4240021 1.024,1.0919954 1.296,2.004 0.272,0.912005 0.408,2.127992 0.408,3.648 v 2.616 c 0,1.504007 -0.136,2.703995 -0.408,3.6 -0.272,0.896004 -0.704,1.547998 -1.296,1.956 -0.592,0.408002 -1.392,0.612 -2.4,0.612 z m 0.024,-1.776 c 0.576,0 0.984,-0.279997 1.224,-0.84 0.24,-0.560003 0.36,-1.487994 0.36,-2.784 v -4.272 c 0,-1.264006 -0.124,-2.179997 -0.372,-2.748 -0.248,-0.568003 -0.66,-0.852 -1.236,-0.852 -0.576,0 -0.984,0.283997 -1.224,0.852 -0.24,0.568003 -0.36,1.483994 -0.36,2.748 v 4.224 c 0,1.312007 0.12,2.251997 0.36,2.82 0.24,0.568003 0.656,0.852 1.248,0.852 z M 171.184,8.12 c 0.176,0 0.392,0.032 0.648,0.096 L 171.64,11 c -0.24,-0.064 -0.504,-0.096 -0.792,-0.096 -0.512,0 -0.972,0.135999 -1.38,0.408 -0.408,0.272001 -0.716,0.639998 -0.924,1.104 V 23 h -2.4 V 8.408 h 1.848 l 0.264,2.736 h 0.048 c 0.224,-0.976005 0.604,-1.7239974 1.14,-2.244 0.536,-0.5200026 1.116,-0.78 1.74,-0.78 z m 10.832,10.464 h -3.624 l -0.6,4.416 h -2.448 l 3.024,-20.136 h 3.624 L 185.088,23 h -2.472 z m -0.24,-1.872 -0.936,-7.032 c -0.112,-0.800004 -0.288,-2.3519885 -0.528,-4.656 h -0.24 c -0.16,1.7760089 -0.328,3.3279934 -0.504,4.656 l -0.936,7.032 z m 8.68,6.528 c -0.99201,0 -1.768,-0.195998 -2.328,-0.588 -0.56,-0.392002 -0.964,-1.035996 -1.212,-1.932 -0.248,-0.896005 -0.372,-2.135992 -0.372,-3.72 v -2.736 c 0,-1.488007 0.136,-2.675996 0.408,-3.564 0.272,-0.8880044 0.7,-1.531998 1.284,-1.932 0.584,-0.400002 1.36399,-0.6 2.34,-0.6 1.26401,0 2.184,0.3439966 2.76,1.032 0.592,0.6560033 0.888,1.735992 0.888,3.24 0,0.208001 -0.016,0.567997 -0.048,1.08 l -2.208,0.192 c 0,-0.976005 -0.04,-1.731997 -0.12,-2.268 -0.08,-0.536003 -0.224,-0.919999 -0.432,-1.152 -0.208,-0.232001 -0.496,-0.348 -0.864,-0.348 -0.4,0 -0.708,0.127999 -0.924,0.384 -0.216,0.256001 -0.372,0.675997 -0.468,1.26 -0.096,0.584003 -0.144,1.387995 -0.144,2.412 v 3.216 c 0,1.120006 0.04,1.979997 0.12,2.58 0.08,0.600003 0.228,1.027999 0.444,1.284 0.216,0.256001 0.524,0.384 0.924,0.384 0.592,0 0.996,-0.267997 1.212,-0.804 0.216,-0.536003 0.324,-1.491993 0.324,-2.868 l 2.208,0.12 c 0.08,2.208011 -0.288,3.695996 -1.104,4.464 -0.624,0.576003 -1.51999,0.864 -2.688,0.864 z m 9.472,-15.072 c 1.34401,0 2.3,0.3879961 2.868,1.164 0.568,0.776004 0.852,2.003992 0.852,3.684 V 23 H 201.8 l -0.264,-1.656 c -0.608,1.280006 -1.56799,1.92 -2.88,1.92 -0.91201,0 -1.644,-0.299997 -2.196,-0.9 -0.552,-0.600003 -0.828,-1.435995 -0.828,-2.508 0,-1.392007 0.45599,-2.535996 1.368,-3.432 0.912,-0.896005 2.32799,-1.591997 4.248,-2.088 V 13.04 c 0,-1.136006 -0.096,-1.935998 -0.288,-2.4 -0.192,-0.464002 -0.568,-0.696 -1.128,-0.696 -0.624,0 -1.06,0.239998 -1.308,0.72 -0.248,0.480002 -0.364,1.287994 -0.348,2.424 l -2.208,-0.168 c -0.016,-0.192001 -0.024,-0.455998 -0.024,-0.792 0,-1.344007 0.328,-2.3399968 0.984,-2.988 0.656,-0.6480032 1.65599,-0.972 3,-0.972 z m -0.408,13.296 c 0.656,0 1.232,-0.375996 1.728,-1.128 v -4.56 c -2.08001,0.624003 -3.12,1.847991 -3.12,3.672 0,1.344007 0.46399,2.016 1.392,2.016 z M 214.056,2.12 V 23 h -1.872 l -0.312,-1.896 H 211.8 c -0.256,0.640003 -0.652,1.155998 -1.188,1.548 -0.536,0.392002 -1.132,0.588 -1.788,0.588 -1.07201,0 -1.84,-0.463995 -2.304,-1.392 -0.464,-0.928005 -0.696,-2.471989 -0.696,-4.632 v -2.808 c 0,-2.144011 0.26,-3.719995 0.78,-4.728 0.52,-1.008005 1.32399,-1.512 2.412,-1.512 0.576,0 1.104,0.1279987 1.584,0.384 0.48,0.2560013 0.848,0.6159977 1.104,1.08 h 0.096 c -0.096,-1.1360057 -0.144,-2.1359957 -0.144,-3 V 2.12 Z m -4.176,19.248 c 0.368,0 0.704,-0.135999 1.008,-0.408 0.304,-0.272001 0.56,-0.655998 0.768,-1.152 v -8.76 c -0.192,-0.320002 -0.436,-0.567999 -0.732,-0.744 -0.296,-0.176001 -0.612,-0.264 -0.948,-0.264 -0.416,0 -0.744,0.143999 -0.984,0.432 -0.24,0.288001 -0.412,0.763997 -0.516,1.428 -0.104,0.664003 -0.156,1.579994 -0.156,2.748 v 2.328 c 0,1.136006 0.048,2.015997 0.144,2.64 0.096,0.624003 0.256,1.071999 0.48,1.344 0.224,0.272001 0.536,0.408 0.936,0.408 z m 8.776,-4.8 V 17.6 c 0,0.960005 0.04,1.711997 0.12,2.256 0.08,0.544003 0.232,0.947999 0.456,1.212 0.224,0.264001 0.56,0.396 1.008,0.396 0.608,0 1.024,-0.227998 1.248,-0.684 0.224,-0.456002 0.328,-1.195995 0.312,-2.22 l 2.184,0.144 c 0.064,1.520008 -0.216,2.655996 -0.84,3.408 -0.624,0.752004 -1.60799,1.128 -2.952,1.128 -1.00801,0 -1.796,-0.215998 -2.364,-0.648 -0.568,-0.432002 -0.976,-1.091996 -1.224,-1.98 -0.248,-0.888004 -0.372,-2.059993 -0.372,-3.516 v -2.904 c 0,-2.08001 0.304,-3.603995 0.912,-4.572 0.608,-0.9680048 1.64799,-1.452 3.12,-1.452 1.008,0 1.788,0.203998 2.34,0.612 0.552,0.408002 0.94,1.0439957 1.164,1.908 0.224,0.864004 0.336,2.047993 0.336,3.552 v 2.328 z m 1.56,-6.624 c -0.416,0 -0.736,0.119999 -0.96,0.36 -0.224,0.240001 -0.38,0.627997 -0.468,1.164 -0.088,0.536003 -0.132,1.275995 -0.132,2.22 v 1.296 h 3.096 v -1.32 c 0,-0.960005 -0.044,-1.703997 -0.132,-2.232 -0.088,-0.528003 -0.244,-0.907999 -0.468,-1.14 -0.224,-0.232001 -0.536,-0.348 -0.936,-0.348 z m 17.032,-1.8 c 0.944,0 1.632,0.3239968 2.064,0.972 0.432,0.6480032 0.648,1.603994 0.648,2.868 V 23 h -2.472 V 12.224 c 0,-0.768004 -0.104,-1.331998 -0.312,-1.692 -0.208,-0.360002 -0.536,-0.54 -0.984,-0.54 -0.72,0 -1.344,0.399996 -1.872,1.2 0.016,0.160001 0.024,0.415998 0.024,0.768 V 23 h -2.448 V 12.224 c 0,-0.784004 -0.1,-1.351998 -0.3,-1.704 -0.2,-0.352002 -0.532,-0.528 -0.996,-0.528 -0.352,0 -0.688,0.099999 -1.008,0.3 -0.32,0.200001 -0.6,0.483998 -0.84,0.852 V 23 H 226.28 V 8.408 h 1.896 l 0.264,1.752 h 0.024 c 0.384,-0.6400032 0.844,-1.1359982 1.38,-1.488 0.536,-0.3520018 1.14,-0.528 1.812,-0.528 0.672,0 1.204,0.1559984 1.596,0.468 0.392,0.3120016 0.684,0.7799969 0.876,1.404 0.368,-0.592003 0.816,-1.0519984 1.344,-1.38 0.528,-0.3280016 1.12,-0.492 1.776,-0.492 z m 12.736,0.264 -3.456,17.208 c -0.256,1.312007 -0.632,2.243997 -1.128,2.796 -0.496,0.552003 -1.192,0.828 -2.088,0.828 -0.464,0 -0.968,-0.056 -1.512,-0.168 l 0.288,-1.824 c 0.336,0.048 0.624,0.072 0.864,0.072 0.4,0 0.696,-0.111999 0.888,-0.336 0.192,-0.224001 0.352,-0.639997 0.48,-1.248 l 0.288,-1.464 -3.48,-15.864 h 2.448 l 1.488,8.424 0.552,4.44 h 0.12 l 0.48,-4.464 1.344,-8.4 z" id="YouTubeCreatorAcademy" fill="#2b2b2b" fill-rule="nonzero"/>
      <g id="lozenge">
        <mask id="mask-2" fill="#ffffff">
          <use xlink:href="#path-1" id="use832" x="0" y="0" width="100%" height="100%"/>
        </mask>
        
        <path d="M 33.738514,3.9738139 C 33.342262,2.5151163 32.174497,1.3664651 30.691886,0.97660465 28.004636,0.26804651 17.229259,0.26804651 17.229259,0.26804651 c 0,0 -10.7753781,0 -13.4626278,0.70855814 C 2.2840204,1.3664651 1.1162553,2.5151163 0.72000366,3.9738139 1.1345787e-4,6.6177209 1.1345787e-4,12.134093 1.1345787e-4,12.134093 c 0,0 0,5.516372 0.71989020213,8.16 0.39625164,1.458698 1.56401674,2.607628 3.04662754,2.997488 2.6872497,0.708558 13.4626278,0.708558 13.4626278,0.708558 0,0 10.775377,0 13.462627,-0.708558 1.482611,-0.38986 2.650376,-1.53879 3.046628,-2.997488 0.720174,-2.643628 0.720174,-8.16 0.720174,-8.16 0,0 0,-5.5163721 -0.720174,-8.1602791" id="Fill-1" fill="#ff0000" mask="url(#mask-2)"/>
        <polygon id="Fill-4" fill="#ffffff" mask="url(#mask-2)" points="13.783401,7.0485488 13.783401,17.219526 22.735795,12.134037 "/>
      </g>
    </g>
  </g>
</svg>