<?xml version="1.0" ?>
<svg xmlns="http://www.w3.org/2000/svg" version="1.2" viewBox="0 0 1557 173">
	<defs>
		<clipPath clipPathUnits="userSpaceOnUse" id="cp1">
			<path d="m-444.97-546.77h2447.99v3268.46h-2447.99z"/>
		</clipPath>
		<linearGradient id="g1" x2="1" gradientUnits="userSpaceOnUse" gradientTransform="matrix(230.068,112.213,-108.909,223.295,4.054,16.511)">
			<stop offset="0" stop-color="#ff9a2a"/>
			<stop offset="1" stop-color="#ff601e"/>
		</linearGradient>
	</defs>
	<style>
		.s0 { fill: #2c2e35 } 
		.s1 { fill: url(#g1) } 
	</style>
	<g id="Clip-Path: Page 1" clip-path="url(#cp1)">
		<g id="Page 1">
			<path id="Path 9" fill-rule="evenodd" class="s0" d="m414 14.9l7.6-5q0.4 0.4 0.8 0.8 3.3 3.3 8.2 10.5l-6.5 3.7h7.8v11h-18.7q0.4 9.2 1.6 16.6 0.4-1.2 1.7-3.7 1.2-2.4 3.7-9.6l9.6 3.7q-5.3 13.6-11.7 24.9 0.4 0.4 1.2 1.6 0.4 1.3 0.9 2.1 1 2.5 2.2 2.5 1.2 0 1.7-2.5 1.2-5.2 1.2-11.3 4.5 2 8.8 4.5-0.4 4.7-1.8 13-0.4 1.8-0.4 2.7-2.9 7.4-9.1 7.4-7.6 0-12.1-8.7-4.3 5.8-9.3 10.5-3.7-3.9-8.8-7.6 7.6-6.4 13.8-15-2.9-11.8-4.1-31.1h-7.2v23q1.2-1.4 4.3-3.9 0.3-0.3 0.6-0.6 0.5-0.4 1.4-1 0 6.4 1.3 12.9-9.3 6.8-15.4 12.8l-6.4-7.6q2.5-2.5 2.5-7.2v-39.4h18.5q-0.5-7.2-0.5-15h11.4v15h8q-0.4-0.8-1.1-2-1.6-3.1-5.7-8zm-33.5 27.6v11.7h-9.3v10.9h8.9v11.7h-8.9v12.4q2.3 0.8 16.1 0.8 12.9 0.4 46 0-2.3 6.6-3.5 12.2-30.4 0-53.4-0.8-17.7 0-25.1-10.5-1.9 7.8-4.3 12.9-1.3-1.2-4.5-3.9-3.3-3.3-4.8-4.9 5.2-11.4 5.2-36.9h10.9q0 8.2-0.4 15.5 2 5.9 6.1 10v-29.4h-21.2v-11.7h16.3v-9.5h-13.4v-11.8h13.4v-11.3h12.5v11.3h12.2v11.8h-12.2v9.5zm19.6 11.9q-0.6 0.4-0.7 0.6-0.4 0.2 0.9-0.8-0.1 0.1-0.2 0.2zm70.2-40q42.8 0 79.2-2l2 10.1q-16.2 0.4-33.9 1.2v7h38.7v9.7h-27.4q13.8 6.8 30.6 9.3-3.6 6.3-6.3 12.5-20.8-5.3-35.6-18.7v13h-12.1v-12.6q-10.1 8.6-21.8 13.8h53.2l-2.4 14.6h17q-0.4 9.7-1.2 18.1-1.2 11-16.2 11.8h-15.7q-0.4-2.3-1.6-6.4-0.8-3.7-1.2-5.4 8 0.5 14.6 0.5 6.3 0 6.7-4.4 0.5-3.3 0.5-4.5h-17.9l3.3-14.6h-17.7q-2.5 25.9-30.4 37.3-2.7-4-8.9-10.6-0.4-0.4-0.4-0.8 24.3-6.8 26.7-25.9h-14.6v-6.8q-2 0.8-5.9 2.5-1.3 0.4-1.7 0.4-3.7-6.2-6.5-11.8 15.8-3.3 31.2-11.3h-27.5v-9.7h38.4v-6.2h-16.2q-10.9 0.4-16.7 0.4-0.4-4.7-2.3-10.5zm173.7 18.2v-23.1h13v20l22.2-5q0 7.7-0.4 19.8-0.4 7.8-0.4 16.3-0.5 10.9-7.7 13-4.9 0.4-10 1.2-1.3-6.6-3.3-12.6h6.2q3-0.4 3-4.1 0.4-6 0.4-18.5l-10 2.4v43.3h-13v-40.2l-8.8 2.1v38.5q0.4 4.7 6.6 5.2h18.5q8.4 0 9.2-4.4 1.2-5.3 1.7-11.3 3.2 1.7 8.4 3.5 3.3 1.2 4.9 2.1-2.4 9.6-4.1 12.9-3.7 7.7-13.4 7.7h-28.1q-16.2 0-16.7-14v-36.9l-5.9 1.6-0.8-3.3h-4.6v29.1q4.6-1 8.5-2.3-0.4 3.9 0 13.2-3.5 1.2-10.5 3.7-11.7 3.3-17.7 5.8l-2.5-13.8q5-1.3 9.3-2.5v-33.2h-7.2v-13.3h7.2v-26h12.9v26h5.8v3.7l5.5-1.7v-19.3h13v16.4zm293.1 0.4h6.2q-1.7 8.3-2.5 11.8h-10.1q-9.4 0-9.4-10.1v-9.3h-14q0 4.6-0.8 8.1-1.3 9.2-9.5 15.4-0.6-0.8-3.1-2.9-3.7-3.3-6.1-5.1 5.3-3.3 6.5-7.9 1.3-4.7 1.7-19.3h36.6v15.4q0 3.5 4.5 3.9zm-48.1 17.1h49.7v11.4q-4.5 11.3-14.6 22.6 8.5 5.2 18.7 8-3.7 4.6-6.9 11.4-10.1-2.9-21.4-10.9-8.9 6.3-21.8 11.3-2.5-4.1-7.6-10.9-0.4 7.2-7.8 8.8-4.1 0.9-12.1 0.9-0.5-4.8-3.7-12.2 2.8 0.4 6.5 0.4 5.4 0 5.2-5.1v-10.9h-10.1q0 15.2-7.2 29.4-1.2-1.6-3.7-4.9-3.5-4.4-5.1-6 3-7.2 3.9-16.7 1.2-9.7 1.2-30.7v-32.3h32.9v78.9q10.1-2.5 19.7-8.5-7.8-7.4-12.9-15.8l9.6-6q5.4 7.6 13 14.4 6.8-6.4 10.5-14.8h-36zm-25.1-11.4h9.3v-12.9h-9.3zm0 24.5h9.3v-12.8h-9.3zm171.4-48.6l12.6-2.9q6.1 19 19.7 31.1-0.8 2.1-1.8 5.8-0.9 2.5-3.7 9.3-1.7-2.5-4.2-4.2-0.4 20.8-1.2 32.8 0 14.2-14.2 15-5.1 0.4-13.1 0.4-0.8-3.3-0.4-2-1.7-7.6-2.9-11.4 1.2 0 3.7 0.5 3.5 0.4 7.2 0.4 6.4 0 6.4-6.8 0-5.4 0.4-19.2 0.4-2.7 0.4-4.3h-14.8q0 31.1-22 44.5-2.7-4.1-9.7-10.1 18.3-9.3 17.9-34.4h-6.2v-5.8q-2.4 2.9-4.7 5.4-2.5-6.2-6.2-13.8 13.4-12.6 20-33.6l12.3 3.3q-5.1 18.1-16 32.8h37.6q-12.1-14.7-17.1-32.8zm-44.8-4.5l13.8 3.7q-3.7 10.9-7.8 21.4v68h-13.4v-42.5q-1 1.7-3.1 4.8-2.4 3.7-3.7 5.3-1.2-6.1-4.1-17.5 11.8-18.9 18.3-43.2zm137.1 74.5v18.6h-13.7v-41.2q-6.6 5.9-13.8 12.1-0.4-2.4-1.7-7-0.8-5.1-1.6-8 14.2-12.2 23-27.6h-22.2v-12.2h28.4q2.2-4.7 3.9-10.5l15.4 2.5q-0.8 1.7-2.5 5-0.8 2.2-1.2 3h49.7v12.2h-55.7q-1.6 3.7-4.1 7h51v52.1q0 12.6-13.8 12.6-2.8 0-8.4 0.4h-8.8q-1.3-6.8-3.7-12.6 8.4 0.4 15.4 0.4 5.1 0 5.1-5.3v-1.5zm0-27.6h40.9v-7.2h-40.9zm0 17.5h40.9v-7.4h-40.9zm185.2 15.9q-2.5 2.9-6.2 10.5-0.8 1.2-1.2 2-14.4-6.3-21.8-15.8-0.4 6.2-0.4 9.9-18.9 4.7-25.1 7.2l-5.1-10.1q3.3-2.5 3.3-9.3v-70.8h50.3v49.6h-2.4l8.2 10.3q-7.8 3.9-15 8.9 5.8 4.7 15.4 7.6zm-40.1-26.8h-4.5v24.7q3.7-0.8 11.1-2.3 1.9-0.4 2.7-0.8-5.6-9-9.3-21.6zm-4.5-11.7h25.9v-8.1h-25.9zm0-18.5h25.9v-8.2h-25.9zm22 40.7q1.4-1.2 4.7-3.7 2.1-1.6 8.3-7h-18.3q2.4 5.8 5.3 10.7zm-45.4-25.5q9.4 10.5 9.4 24.7 0 7.2-3.7 10.9-4.9 4.4-15 4.4-1.2-8.1-2.6-14.9 8.4 1.5 8.8-4.1 0-9.7-8.6-19.4 2-5.7 4.9-17 1.6-5.6 2.5-8.5h-8.1v79.3h-11.7v-90.6h32.3v9.2q-1.2 4.2-4.1 13-2.9 8.5-4.1 13zm151.7-31.5l12.5-6.2q10.9 22.3 28.2 36.5-7.2 6.8-11.3 11.7-16.9-16.3-29.4-42zm-2.1 50l11.3-7.2q15 18.1 27.2 35.2l-12.6 8.9q-0.4-0.4-1.2-2.1-1.3-1.6-4.1-5.9-42.8 1.8-49.6 2.2h-0.8q-4.1 0.4-9.4 1.7l-6-12.2q3.7-2.2 7.2-5.9 13.8-16.7 26.3-40.2l14.2 6.2q-16.3 25.5-26.7 37.3 18.9-0.9 36.3-1.3-5.9-8.2-12.1-16.7zm-25.9-55l13.4 5.6q-10.9 23.9-30.2 42.2-0.9-0.8-2.5-2.9-4.1-4.9-7.2-8.4 16.9-15 26.5-36.5zm186.4 1.3v71.6q0 16.5-17 17.3-5.6 0.5-15.4 0.5-0.2-6.8-3.5-12.6 7.6 0.4 13.7 0.4 8.5 0 8.5-8.8v-56.3h-70.3v-12.1zm-80.4 39.1h52v35.2h-38.2v5.4h-13.8zm13.8 23h24.9v-10.9h-24.9zm-22-42.4h69.3v11.7h-69.3z"/>
			<path id="Path 10" fill-rule="evenodd" class="s0" d="m729.9 104.4l-11.9-8.4q9.2-10.9 9.2-34.8v-16.9h10.1l-3.1-8.4q2.5 0 6.4 0 11.1 0 18.9-1.1-4.3-0.8-9.5-1.8-5.7-1-10-1.9l4.7-5.9h-17.9v-9.9h33.9q-1.2-1.9-4.5-5.2l14.4-0.8q2.5 2.7 4.3 6h33.7v9.9h-14.2q-2.2 3.9-6.7 7.4 9.2 1.6 18.5 4.3l-4.6 7.4h9.7v9.9h-27.5v7.6h23.4v9.9h-23.4v5.4h20.3v9.4h-20.3v5.6h28.3v10.7h-72.5v-10.7h31.4v-5.6h-19.7v-9.4h19.7v-5.4h-17.5q-2.2 6.2-6.5 11.5l-8.1-6.6q-2.4 17.1-9 27.8zm46.3-65.2q-11.8 4.7-32.9 5.1h53.6q-18.3-5.1-20.7-5.1zm-17.1 18.3l-1.4 4.3h13.3v-7.6h-31.4v8.6q0 10.5-0.4 10.8 1.4-0.5 4.9-7.5 3.5-6.8 4.3-11.1zm-7.8-32.3q16.6 3.1 23.4 4.5 3.1-1.8 5.2-4.5zm-396.5 116.3h0.2l6.8-18.7h10.4l-12.5 29.5v19.1h-9.7v-19.1l-12.5-29.5h10.9zm37.2 15q0 1.9 0.2 3.3 0.2 1.7 0.8 2.7 0.6 1.2 1.9 1.9 1 0.6 2.7 0.6 1.8 0 2.8-0.6 1.3-0.7 1.9-1.9 0.6-1 0.8-2.7 0.2-1.4 0.2-3.3v-33.7h9.9v33.7q0 4.8-1.5 7.7-1.2 3.1-3.3 4.9-2.2 1.7-4.9 2.3-2.9 0.6-5.9 0.6-2.9 0-5.8-0.6-2.7-0.4-4.9-2.1-2.1-1.6-3.5-4.7-1.3-3.1-1.3-8.1v-33.7h9.9zm61.3-26h-17.3v11.5h16.2v8.1h-16.2v13h17.9v8h-27.8v-48.6h27.2zm21.1-8l6.2 15.8 6.2-15.8h10.6l-11.3 24 12.2 24.6h-10.9l-7-16.5-7 16.5h-10.7l12.1-24.6-11.3-24zm35.2 0h9.6v48.6h-9.6zm33.1 33.7q0 1.9 0.2 3.5 0.2 1.5 0.8 2.7 0.6 1 1.8 1.7 1.1 0.6 2.7 0.6 1.9 0 2.9-0.6 1-0.7 1.8-1.7 0.7-1.2 0.9-2.7 0.2-1.6 0.2-3.5v-33.7h9.8v33.7q0 4.8-1.4 7.9-1.2 2.8-3.5 4.7-2 1.6-4.9 2.3-2.7 0.6-5.8 0.6-2.9 0-5.7-0.4-2.7-0.7-5-2.3-2-1.6-3.5-4.7-1.2-3.1-1.2-8.1v-33.7h9.9z"/>
			<path id="Path 11" fill-rule="evenodd" class="s0" d="m617.1 122.8q3.7 0 6.1 1.2 2.5 1.2 4.1 3.3 1.7 2.1 2.3 4.5 0.6 2.7 0.6 5.4 0 3.7-1 6.6-1.2 2.9-3.1 4.5-2.1 1.9-4.9 2.7-2.9 0.8-6.4 0.8h-5.1v19.4h-9.9v-48.4zm-2.9 21.8q2.9 0 4.7-1.6 1.9-1.9 1.9-5.6 0-3.7-1.6-5.6-1.7-1.8-5.2-1.8h-4.1v14.6zm46-21.8q6 0 9.5 3.1 3.3 3.1 3.3 9.2 0 5-1.9 8.1-2 3.1-6.1 3.9v0.2q3.7 0.6 5.3 2.5 1.7 1.8 2.1 5.7 0.2 1.5 0.2 3.1 0.2 1.7 0.2 3.5 0.2 3.9 0.4 6 0.4 2 1.8 2.7v0.4h-10.6q-0.9-1.1-1.1-2.3-0.2-1.2-0.2-2.7l-0.2-9.4q-0.2-2.9-1.4-4.4-1.3-1.6-4.3-1.6h-5.4v20.4h-9.6v-48.4zm-4.4 21.2q3.5 0 5.6-1.7 1.8-1.8 1.8-5.7 0-6.6-6.7-6.6h-4.8v14zm30.4-7.2q0.5-4.5 2.1-8 1.9-3.3 5.1-5.2 3.3-1.9 8.7-1.9 5.5 0 8.8 1.9 3.3 1.9 4.9 5.2 1.9 3.5 2.3 8 0.6 4.7 0.6 10.1 0 5.7-0.6 10.3-0.4 4.5-2.3 8-1.6 3.3-4.9 4.9-3.3 1.9-8.8 1.9-5.4 0-8.7-1.9-3.2-1.6-5.1-4.9-1.6-3.5-2.1-8-0.6-4.6-0.6-10.3 0-5.4 0.6-10.1zm9.5 18.5q0.2 3.5 0.8 5.6 0.8 2 2.1 3.1 1.4 1 3.5 1 2.2 0 3.5-1 1.4-1.1 2-3.1 0.8-2.1 1.1-5.6 0.2-3.5 0.2-8.4 0-4.8-0.2-8.3-0.3-3.3-1.1-5.5-0.6-2.1-2-3.1-1.3-1-3.5-1-2.1 0-3.5 1-1.3 1-2.1 3.1-0.6 2.2-0.8 5.5-0.2 3.5-0.2 8.3 0 4.9 0.2 8.4zm52.6-32.5q3.7 0 6.4 1.2 2.5 1.2 4.1 3.3 1.4 2.1 2.3 4.5 0.6 2.7 0.6 5.4 0 3.7-1.3 6.6-1 2.9-3 4.5-1.9 1.9-4.8 2.7-2.8 0.8-6.3 0.8h-5.4v19.4h-9.6v-48.4zm-3.1 21.8q3.1 0 4.7-1.6 1.9-1.9 1.9-5.6 0-3.7-1.5-5.6-1.6-1.8-5.3-1.8h-4.1v14.6zm55-13.8h-17.2v11.3h16.2v8.1h-16.2v12.9h17.9v8.1h-27.8v-48.4h27.1zm30.5-8.1q6.1 0 9.6 3.1 3.3 3.1 3.3 9.3 0 4.9-1.8 8-2.1 3.1-6.2 4.2 3.7 0.6 5.3 2.4 1.7 1.9 2.1 5.8 0.2 1.4 0.2 3.1 0 1.6 0.2 3.5 0 3.9 0.4 6 0.4 2 1.7 2.6v0.4h-10.5q-0.8-1-1-2.2-0.2-1.3-0.2-2.7l-0.3-9.5q-0.2-2.9-1.4-4.3-1.4-1.6-4.3-1.6h-5.4v20.3h-9.6v-48.4zm-4.3 21.3q3.5 0 5.5-1.7 1.9-1.8 1.9-5.8 0-6.5-6.8-6.5h-4.7v14zm57.9-13.2h-10.7v40.3h-9.6v-40.3h-10.7v-8.1h31zm25.3 10.8l6.8-18.8h10.7l-12.6 29.5v18.9h-9.8v-18.9l-12.6-29.5h11.1zm70.5-10.1q-1.2-2.4-4.5-2.4-1.8 0-3.1 1-1.2 0.8-1.8 3.1-0.6 2.2-1.1 5.7-0.2 3.7-0.2 8.9 0 5.3 0.5 8.8 0.4 3.3 1 5.4 0.8 1.9 2 2.5 1.3 0.6 2.7 0.6 1.4 0 2.5-0.4 1-0.4 1.8-1.9 0.8-1.2 1.5-3.7 0.4-2.5 0.4-6.4h9.8q0 3.9-0.6 7.4-0.6 3.8-2.4 6.2-1.7 2.7-4.6 4.4-3 1.4-7.8 1.4-5.5 0-8.8-1.9-3.3-1.6-4.9-4.9-1.9-3.5-2.3-8-0.6-4.8-0.6-10.3 0-5.4 0.6-10.1 0.4-4.8 2.3-8.1 1.6-3.3 4.9-5.1 3.3-1.9 8.8-1.9 5.2 0 8.2 1.7 2.9 1.6 4.6 4.3 1.4 2.7 1.8 5.6 0.4 3.1 0.4 5.7h-9.8q0-5.3-1.3-7.6zm23.3 5.4q0.6-4.8 2.2-8.1 1.9-3.3 5.2-5.1 3.2-1.9 8.6-1.9 5.5 0 8.8 1.9 3.3 1.8 5 5.1 1.8 3.3 2.2 8.1 0.4 4.7 0.4 10.1 0 5.5-0.4 10.3-0.4 4.5-2.2 7.8-1.7 3.5-5 5.1-3.3 1.9-8.8 1.9-5.4 0-8.6-1.9-3.3-1.6-5.2-5.1-1.6-3.3-2.2-7.8-0.5-4.8-0.5-10.3 0-5.4 0.5-10.1zm9.6 18.5q0.2 3.3 0.8 5.6 0.9 2 2.1 3.1 1.4 1 3.5 1 2.3 0 3.5-1 1.4-1.1 2-3.1 0.9-2.3 1.1-5.6 0.2-3.5 0.2-8.4 0-4.8-0.2-8.3-0.2-3.3-1.1-5.5-0.6-2.3-2-3.1-1.2-1-3.5-1-2.1 0-3.5 1-1.2 0.8-2.1 3.1-0.6 2.2-0.8 5.5-0.2 3.5-0.2 8.3 0 4.9 0.2 8.4zm50.4-32.7l6.8 34.4h0.2l7-34.4h14.3v48.6h-8.8v-38.7h-0.2l-8.6 38.7h-7.6l-8.7-38.7h-0.2v38.7h-8.8v-48.6zm59.4 0q3.7 0 6.4 1.4 2.4 1.2 4.1 3.3 1.4 2.1 2.2 4.5 0.6 2.7 0.6 5.4 0 3.7-1.2 6.6-1 2.7-3.1 4.5-2 1.9-4.7 2.7-2.9 0.8-6.4 0.8h-5.3v19.4h-9.7v-48.6zm-3.1 22q3.1 0 4.8-1.6 1.8-1.9 1.8-5.6 0-3.7-1.6-5.6-1.5-2-5.2-2h-4.1v14.8zm47.1-22l12.7 48.6h-10l-2.3-10.3h-12.9l-2.3 10.3h-10.3l13-48.6zm-1.3 30.2l-4.7-21.8h-0.2l-4.7 21.8zm47.5 3.1h0.2v-33.3h8.8v48.6h-11.1l-11.9-34v34h-9.1v-48.6h11.3zm36.8-14.5h0.2l6.8-18.7h10.7l-12.7 29.5v19.1h-9.7v-19.1l-12.5-29.5h10.9zm51.1-18.7h9.7v40.5h17.5v8.1h-27.2zm38.9 0h9.6v48.4h-9.6zm38.4 0l7 34.4h0.2l7-34.4h14.4v48.6h-9.1v-38.7l-8.6 38.7h-7.6l-8.6-38.7h-0.2v38.7h-8.9v-48.6zm42.8 0h9.8v48.6h-9.8zm52.2 8h-10.5v40.6h-9.9v-40.6h-10.4v-8h30.8zm38.2 0h-17.2v11.5h16.2v8h-16.2v13h17.8v8h-27.7v-48.6h27.1zm29-8q4.9 0 8 1.7 3.3 1.6 5 4.7 1.8 3.1 2.2 7.6 0.6 4.3 0.6 9.7 0 6.4-0.6 11.1-0.8 4.8-2.7 7.8-2 2.9-5.1 4.6-3.3 1.4-8 1.4h-15.4v-48.6zm-2.1 41.4q2.7 0 4.3-0.8 1.5-1 2.5-3.1 0.8-1.9 1.2-5.4 0.2-3.3 0.2-8.2 0-4.1-0.2-7.2-0.4-3.1-1.2-5.4-0.8-2-2.5-3.1-1.6-1-4.5-1h-4.1v34.2z"/>
			<path id="Path 11" class="s1" d="m153 0c-3.7 0-7.4 1.1-10.7 3.1-3.3 2.1-5.8 5-7.4 8.3l-24.5 50.4h-5.1c-1.3 0-2.7-0.2-3.7-1-1.3-0.6-2.1-1.7-2.9-2.7l-29.4-44.9c-4.7-7.2-11.1-13.2-22.4-13.2h-42.1l-4.2 8.9c2.3 0 7.2 0.2 12.2 8.2l55.1 84.1c1 2 2.8 3.9 5.1 5.1 2.3 1.2 4.7 1.9 7 1.9h7.8 0.2l-23 47.7c-1.7 2.9-1.5 6.6 0.4 9.7 1.8 3.1 5.1 4.8 8.4 4.8h125.6c2.1 0 4.1-0.7 6-1.9 1.8-1 3.3-2.7 4.1-4.5l19.5-40.4h-90.6l7.4-15.2h83.4c2.1 0 4.1-0.5 6-1.7 1.8-1.2 3.3-2.9 4.3-4.7l19.5-40.2h-90.4l7.4-15.2h83.2c2.1 0 4.1-0.4 6-1.7 1.8-1.2 3.3-2.9 4.3-4.7l19.3-40.2z"/>
		</g>
	</g>
</svg>