<?xml version="1.0" ?>
<svg xmlns="http://www.w3.org/2000/svg" viewBox="0 0 70.298 70.298">
	<path fill="#ff4747" fill-rule="evenodd" d="M 54.902,45.869 L 51.83,40.966 L 42.864,40.966 L 45.94,36.055 L 48.772,36.055 L 45.348,30.587 L 35.796,45.869 L 10.313,45.869 L 16.448,36.055 L 11.943,36.055 L 15.006,31.143 L 34.704,31.143 L 31.64,36.055 L 22.245,36.055 L 19.174,40.966 L 33.072,40.966 L 45.348,21.318 L 60.691,45.87 L 54.902,45.869 M 21.144,21.319 L 41.35,21.319 L 38.279,26.232 L 18.075,26.232 L 21.144,21.319 M 35.148,0.0 C 15.738,0.0 0.0,15.738 0.0,35.15 C 0.0,54.567 15.737,70.298 35.148,70.298 C 54.558,70.298 70.298,54.567 70.298,35.15 C 70.298,15.738 54.558,0.0 35.148,0.0"/>
</svg>