<?xml version="1.0" ?>
<svg xmlns="http://www.w3.org/2000/svg" viewBox="1.9 159.7 52.5 52.5">
	<path d="M 49.4,187.7 L 25.2,187.7 C 24.1,187.7 23.6,188.2 23.6,189.1 C 23.6,191.3 24.8,193.4 27.2,195.4 C 29.6,197.4 32.2,198.4 35.0,198.4 C 36.6,198.4 38.5,198.1 40.5,197.5 C 42.5,196.9 44.2,196.1 45.5,195.2 C 46.7,194.4 47.6,194.0 48.3,194.0 C 49.2,194.0 50.1,194.5 50.9,195.6 C 51.8,196.7 52.2,197.8 52.2,199.0 C 52.2,201.5 50.7,203.8 47.6,206.1 C 42.2,210.2 35.9,212.2 28.8,212.2 C 21.6,212.2 15.6,210.1 10.7,205.9 C 8.3,203.8 6.4,201.4 4.9,198.5 C 2.9,194.6 1.9,190.6 1.9,186.3 C 1.9,180.6 3.6,175.4 7.1,170.8 C 10.1,166.8 13.9,163.9 18.6,161.9 C 22.1,160.4 25.9,159.7 29.9,159.7 C 36.4,159.7 41.9,161.5 46.5,165.2 C 48.8,167.0 50.6,169.2 52.0,171.8 C 53.6,174.7 54.4,177.5 54.4,180.2 C 54.4,182.4 53.9,184.2 53.0,185.7 C 52.0,187.0 50.8,187.7 49.4,187.7 M 26.6,178.1 L 31.8,178.1 C 34.0,178.1 35.1,177.1 35.1,175.1 C 35.1,173.3 34.6,171.7 33.5,170.6 C 32.4,169.4 31.1,168.9 29.3,168.9 C 27.4,168.9 25.9,169.7 24.8,171.2 C 23.8,172.6 23.3,174.0 23.3,175.5 C 23.3,176.5 23.5,177.2 24.0,177.7 C 24.5,177.9 25.3,178.1 26.6,178.1 L 26.6,178.1" fill="#f60"/>
</svg>