<?xml version="1.0" ?>
<svg xmlns="http://www.w3.org/2000/svg" viewBox="0 0 130 25" fill="none">
	<path d="M13.4474 13.3406H7.24867C6.97645 13.3406 6.8387 13.4584 6.8387 13.697C6.8387 14.266 7.15028 14.8022 7.77015 15.3057C8.39002 15.8092 9.05581 16.061 9.7708 16.061C10.1939 16.061 10.6596 15.9793 11.1745 15.819C11.6894 15.6556 12.1125 15.4594 12.4471 15.2207C12.7455 15.0114 12.9849 14.9068 13.1588 14.9068C13.3884 14.9068 13.6114 15.0474 13.8311 15.3286C14.0509 15.6098 14.1624 15.8975 14.1624 16.1951C14.1624 16.8261 13.7655 17.4343 12.9751 18.0228C11.5779 19.0658 9.96102 19.5857 8.13092 19.5857C6.28443 19.5857 4.73639 19.0527 3.4868 17.9836C2.88005 17.4571 2.37825 16.8228 1.9814 16.0773C1.4632 15.0866 1.2041 14.0436 1.2041 12.9483C1.2041 11.4769 1.65343 10.156 2.5488 8.97893C3.32282 7.96207 4.30674 7.20678 5.50385 6.70652C6.39922 6.33051 7.3733 6.14087 8.41954 6.14087C10.0922 6.14087 11.5123 6.61497 12.6799 7.5599C13.2703 8.034 13.7426 8.59311 14.1033 9.2405C14.5166 9.97617 14.7232 10.6955 14.7232 11.3952C14.7232 11.9641 14.6051 12.4317 14.3657 12.7946C14.1361 13.1608 13.8278 13.3406 13.4474 13.3406ZM7.58976 10.8851H8.92134C9.48546 10.8851 9.76752 10.6268 9.76752 10.1102C9.76752 9.63613 9.62977 9.25358 9.35755 8.95277C9.08533 8.65523 8.72784 8.50483 8.28835 8.50483C7.79639 8.50483 7.40938 8.69774 7.12732 9.08356C6.86494 9.44322 6.73047 9.80615 6.73047 10.1756C6.73047 10.4372 6.79279 10.6203 6.9207 10.7282C7.05189 10.8328 7.27491 10.8851 7.58976 10.8851Z" fill="#ff6600"/>
	<path d="M23.1193 6.12793C24.6509 6.12793 25.9464 6.51375 27.0123 7.28539C27.5765 7.69736 27.97 8.16819 28.1931 8.69788C28.4161 9.22756 28.5309 9.95669 28.5309 10.8853L28.5046 12.8438C28.5046 14.2007 28.5997 15.0802 28.7965 15.4857C28.8916 15.6786 28.9868 15.8028 29.072 15.8552C29.1606 15.9075 29.3442 15.9565 29.6263 15.999C29.9084 16.0415 30.0494 16.2279 30.0494 16.5516C30.0494 16.9734 29.8788 17.4115 29.541 17.866C29.2032 18.3205 28.7637 18.703 28.2291 19.0104C27.5699 19.3962 26.8779 19.5891 26.1563 19.5891C25.2314 19.5891 24.5033 19.2752 23.9655 18.6442C23.7818 18.4153 23.608 18.3041 23.4505 18.3041C23.2734 18.3041 23.0406 18.412 22.752 18.6311C21.873 19.2719 20.8727 19.5891 19.7576 19.5891C18.6064 19.5891 17.6716 19.3439 16.9599 18.8534C16.4942 18.5297 16.1236 18.1079 15.8514 17.5848C15.5792 17.0649 15.4414 16.5189 15.4414 15.95C15.4414 15.0377 15.812 14.2334 16.55 13.5337C17.7012 12.4286 19.4263 11.8727 21.7221 11.8629C22.2305 11.8629 22.5519 11.8139 22.6864 11.7125C22.8176 11.6111 22.8831 11.3757 22.8831 11.0095C22.8831 10.0809 22.7848 9.41066 22.5913 8.99215C22.3977 8.5769 22.0829 8.36764 21.6401 8.36764C21.3777 8.36764 21.1416 8.44611 20.935 8.60306C20.7284 8.76 20.4725 9.051 20.1642 9.46952C19.3804 10.5812 18.5637 11.137 17.711 11.137C17.2813 11.137 16.9271 11.0095 16.6549 10.7545C16.3827 10.4995 16.2449 10.1692 16.2449 9.75725C16.2449 9.33546 16.4155 8.91694 16.7533 8.49516C17.0911 8.07337 17.5503 7.70717 18.1308 7.39002C19.7248 6.54972 21.3876 6.12793 23.1193 6.12793ZM22.237 13.7364C21.85 13.7364 21.5122 13.8934 21.2269 14.2105C20.9415 14.5244 20.7972 14.9037 20.7972 15.3418C20.7972 15.7636 20.8989 16.1036 21.1022 16.3619C21.3056 16.6202 21.5712 16.751 21.9058 16.751C22.6109 16.751 22.9619 16.1592 22.9619 14.9756C22.9619 14.495 22.9127 14.168 22.811 14.0045C22.7093 13.8312 22.5191 13.7462 22.237 13.7364Z" fill="#ff6600"/>
	<path d="M36.1827 6.14091C36.6222 6.14091 37.3405 6.23573 38.3342 6.43191C38.5376 6.46788 38.7048 6.48423 38.836 6.48423C38.9869 6.48423 39.2755 6.40575 39.7084 6.24881C39.9118 6.17034 40.0823 6.1311 40.2234 6.1311C40.6268 6.1311 41.0367 6.38941 41.45 6.90601C41.7845 7.31799 42.0567 7.7692 42.2699 8.25965C42.4798 8.7501 42.5881 9.17515 42.5881 9.53481C42.5881 9.88467 42.4634 10.1757 42.2174 10.4078C41.9715 10.64 41.6632 10.7577 41.2926 10.7577C40.9843 10.7577 40.7088 10.6825 40.4661 10.5353C40.2234 10.3849 39.8364 10.058 39.2985 9.55116C38.7344 9.0084 38.2686 8.73702 37.9013 8.73702C37.6553 8.73702 37.4421 8.8253 37.2618 9.00513C37.0814 9.18496 36.9928 9.39749 36.9928 9.64271C36.9928 10.071 37.4061 10.4765 38.2326 10.8525C39.7183 11.5195 40.8596 12.2454 41.65 13.0333C42.3191 13.7004 42.6537 14.5145 42.6537 15.4758C42.6537 16.6921 42.1158 17.7089 41.0433 18.5231C40.1184 19.2326 38.9902 19.5857 37.652 19.5857C37.3077 19.5857 36.6845 19.5269 35.7793 19.4157C34.9266 19.3176 34.4477 19.2718 34.3428 19.2718C34.228 19.2718 34.0968 19.2849 33.9459 19.3111C33.6901 19.347 33.5064 19.3634 33.3917 19.3634C32.9784 19.3634 32.6537 19.2588 32.4143 19.0495C32.0535 18.7258 31.719 18.2157 31.4107 17.5193C31.1024 16.8229 30.9482 16.2245 30.9482 15.7243C30.9482 14.9199 31.2664 14.5145 31.8994 14.5145C32.1453 14.5145 32.3717 14.5962 32.5783 14.7565C32.7849 14.9167 33.2178 15.3483 33.8771 16.0512C34.2378 16.4371 34.5363 16.7019 34.7724 16.8458C35.0086 16.9896 35.2644 17.0616 35.5366 17.0616C35.8285 17.0616 36.0614 16.9864 36.2352 16.8327C36.4123 16.679 36.5009 16.4763 36.5009 16.2213C36.5009 15.8256 36.163 15.4692 35.4841 15.1423C34.0673 14.4491 33.044 13.7363 32.4176 13.0006C31.7879 12.265 31.473 11.4149 31.473 10.4503C31.473 9.4073 31.7944 8.51141 32.4372 7.75612C33.3523 6.68041 34.6019 6.14091 36.1827 6.14091Z" fill="#ff6600"/>
	<path d="M56.3599 12.6051L54.6184 17.3755C54.1854 18.5592 53.7525 19.5237 53.3196 20.2725C52.8834 21.0212 52.3881 21.6588 51.8338 22.1819C50.6925 23.2675 49.315 23.8102 47.7047 23.8102C46.4026 23.8102 45.3465 23.4702 44.5364 22.7868C43.9133 22.2604 43.5984 21.5901 43.5984 20.776C43.5984 20.1024 43.8149 19.5335 44.2511 19.0758C44.6873 18.6147 45.2219 18.3859 45.8549 18.3859C46.4879 18.3859 46.9995 18.5951 47.3865 19.0169C47.5702 19.2098 47.6948 19.3798 47.7571 19.5302C47.8194 19.6806 47.9113 20.0076 48.0326 20.5144C48.131 20.9002 48.3508 21.0931 48.6919 21.0931C48.9641 21.0931 49.1937 20.9754 49.3773 20.7367C49.561 20.5013 49.6528 20.2071 49.6528 19.8572C49.6528 19.4452 49.4232 18.7586 48.9674 17.7941L45.786 11.0553C45.4515 10.3556 45.2022 9.91746 45.0349 9.7409C44.8677 9.56434 44.4971 9.35181 43.9264 9.09678C43.7493 9.02811 43.5984 8.88752 43.4705 8.68153C43.3426 8.47554 43.2803 8.27609 43.2803 8.08318C43.2803 7.30501 44.0576 6.77532 45.6155 6.49413C46.6519 6.31103 47.8358 6.21948 49.1641 6.21948C50.0956 6.21948 50.8302 6.3143 51.3681 6.50721C52.0897 6.76224 52.4504 7.19384 52.4504 7.80853C52.4504 8.0276 52.3488 8.2859 52.1454 8.58344C51.9519 8.86463 51.8568 9.11313 51.8568 9.33219C51.8568 9.54145 51.9027 9.76052 51.9946 9.98939C52.0864 10.2183 52.2832 10.6008 52.5816 11.1469C52.9162 11.7615 53.2113 12.0656 53.4672 12.0656C53.7394 12.0656 54.0214 11.7975 54.3133 11.258C54.602 10.7185 54.7495 10.2019 54.7495 9.70166C54.7495 9.2995 54.638 8.96926 54.4183 8.71423C54.0838 8.32187 53.9165 7.98183 53.9165 7.7039C53.9165 7.25596 54.2149 6.89957 54.8151 6.63473C55.4121 6.36662 56.2123 6.23256 57.2159 6.23256C59.0821 6.23256 60.0135 6.6805 60.0135 7.57312C60.0135 7.89681 59.9184 8.15839 59.7282 8.35457C59.538 8.55075 59.1936 8.73712 58.6918 8.91368C58.2687 9.07062 57.9342 9.33219 57.6882 9.70166C57.3045 10.2902 56.8617 11.258 56.3599 12.6051Z" fill="#ff6600"/>
	<path d="M68.511 0.925781C69.4162 0.925781 70.6035 1.14812 72.0728 1.59606C72.2499 1.64837 72.3877 1.67453 72.4959 1.67453C72.5844 1.67453 72.8468 1.59606 73.2896 1.43912C73.4306 1.3868 73.5782 1.36065 73.7389 1.36065C74.3293 1.36065 74.9491 1.82494 75.6051 2.75352C76.261 3.6821 76.589 4.56818 76.589 5.40848C76.589 5.89892 76.4414 6.31417 76.1462 6.65095C75.8511 6.98772 75.4936 7.15774 75.0705 7.15774C74.7196 7.15774 74.4342 7.08908 74.2145 6.94848C73.9947 6.80789 73.5126 6.39264 72.7648 5.69948C71.7088 4.71858 70.6724 4.22813 69.6491 4.22813C69.1571 4.22813 68.7635 4.34584 68.4684 4.58125C68.1732 4.81667 68.0256 5.12729 68.0256 5.51311C68.0256 6.27493 68.6979 6.84712 70.0459 7.23294C71.8662 7.7659 73.0305 8.15826 73.5421 8.40348C75.7855 9.48901 76.9072 11.0879 76.9072 13.2001C76.9072 15.067 76.143 16.5907 74.6113 17.7743C73.0469 18.9841 71.0003 19.589 68.4749 19.589C67.35 19.589 66.1627 19.4549 64.9131 19.1868C63.6635 18.9187 62.7616 18.6081 62.2073 18.2484C61.7842 17.9672 61.4038 17.3558 61.066 16.4141C60.7282 15.4725 60.5576 14.5537 60.5576 13.6611C60.5576 13.2328 60.6462 12.9091 60.8233 12.69C61.043 12.4088 61.3185 12.2682 61.6563 12.2682C61.9909 12.2682 62.3123 12.4382 62.6206 12.7815C62.8042 12.9745 63.2405 13.5924 63.9259 14.6354C64.2506 15.1259 64.7688 15.5346 65.4772 15.8583C66.1857 16.182 66.917 16.3455 67.6747 16.3455C68.3241 16.3455 68.8521 16.2245 69.2588 15.9858C69.6622 15.7439 69.8655 15.4365 69.8655 15.0605C69.8655 14.7106 69.7081 14.4066 69.39 14.1548C69.0751 13.8998 68.5602 13.6644 67.8452 13.4453C66.5858 13.0497 65.6281 12.69 64.9689 12.3598C64.3096 12.0328 63.6931 11.6175 63.1224 11.1173C61.7318 9.89117 61.0365 8.4983 61.0365 6.93867C61.0365 6.16704 61.2168 5.41829 61.5776 4.68588C61.9384 3.95348 62.4468 3.32244 63.1093 2.78948C64.5786 1.54375 66.3824 0.925781 68.511 0.925781Z" fill="#ff6600"/>
	<path d="M85.1756 6.88962V14.0109C85.1756 15.5346 85.6807 16.2964 86.6942 16.2964C86.95 16.2964 87.1992 16.2245 87.4452 16.0806C87.6912 15.9368 87.865 15.7602 87.9601 15.5477C88.1536 15.1259 88.252 14.1908 88.252 12.7358C88.252 11.3004 88.2028 10.3195 88.1077 9.79308C88.0717 9.57401 88.0093 9.41379 87.9241 9.31571C87.8355 9.21435 87.6682 9.09991 87.4223 8.96585C86.9205 8.70428 86.6679 8.37078 86.6679 7.96861C86.6679 7.42585 87.1008 7.04984 87.9601 6.83731C89.5967 6.43514 91.2104 6.23242 92.8043 6.23242C93.6931 6.23242 94.1359 6.69998 94.1359 7.63837C94.1359 7.73319 94.1326 7.93264 94.1228 8.23018C94.1064 8.65197 94.0933 9.16203 94.0834 9.76692V15.5607C94.0834 15.8583 94.3392 16.1297 94.8476 16.3749C95.2805 16.5841 95.4937 16.8915 95.4937 17.2937C95.4937 18.0816 94.5557 18.6898 92.683 19.1214C91.5843 19.3764 90.5183 19.5039 89.4885 19.5039C89.0654 19.5039 88.7768 19.4549 88.6227 19.3601C88.4685 19.2653 88.3799 19.0756 88.3537 18.7944C88.3111 18.2517 88.1438 17.9803 87.8519 17.9803C87.747 17.9803 87.6486 18.0032 87.5633 18.0522C87.4747 18.1013 87.2058 18.2778 86.7565 18.5852C85.8677 19.1901 84.9133 19.4909 83.8933 19.4909C82.2042 19.4909 81.0136 19.0037 80.3183 18.0326C79.728 17.2185 79.4361 15.8452 79.4361 13.9194C79.4361 13.2001 79.4394 12.5886 79.4492 12.0786V11.4737C79.4492 10.7217 79.3803 10.1658 79.2459 9.81269C79.1114 9.4563 78.8621 9.18165 78.5014 8.97893C78.157 8.80564 77.9405 8.66504 77.8487 8.56042C77.7569 8.45579 77.7109 8.31192 77.7109 8.12555C77.7109 7.46181 78.216 7.01714 79.2295 6.79807C80.9546 6.42206 82.6765 6.23242 84.4016 6.23242C84.9165 6.23242 85.1756 6.45149 85.1756 6.88962Z" fill="#ff6600"/>
	<path d="M102.424 6.21948C102.889 6.21948 103.175 6.28488 103.273 6.41566C103.375 6.54645 103.463 6.96823 103.545 7.67775C103.588 8.06357 103.726 8.25648 103.955 8.25648C104.132 8.25648 104.3 8.12896 104.457 7.87393C105.162 6.77859 106.08 6.23256 107.215 6.23256C108.016 6.23256 108.671 6.49086 109.18 7.00747C109.426 7.2625 109.629 7.58947 109.787 7.9851C109.944 8.38399 110.026 8.76654 110.026 9.13601C110.026 9.54799 109.928 9.96977 109.734 10.4046C109.541 10.8395 109.288 11.1959 108.983 11.4738C108.419 12.0068 107.73 12.2749 106.91 12.2749C106.461 12.2749 106.084 12.1964 105.782 12.0395C105.477 11.8825 105.08 11.5621 104.588 11.0815C104.405 10.8984 104.231 10.8068 104.073 10.8068C103.827 10.8068 103.667 10.9441 103.591 11.2188C103.516 11.4967 103.48 12.0754 103.48 12.9582C103.48 14.2824 103.529 15.1849 103.624 15.6655C103.686 15.9271 103.772 16.1102 103.88 16.2115C103.988 16.3129 104.224 16.4143 104.585 16.5189C105.375 16.7543 105.772 17.1663 105.772 17.7548C105.772 18.1145 105.644 18.4284 105.388 18.6932C105.133 18.9613 104.795 19.1379 104.372 19.2262C103.529 19.4027 102.286 19.4877 100.652 19.4877C99.0946 19.4877 97.9139 19.3504 97.1038 19.079C96.3823 18.8338 96.0215 18.4088 96.0215 17.8039C96.0215 17.3494 96.2871 16.9407 96.8119 16.581C97.0677 16.4143 97.2415 16.2639 97.3399 16.1265C97.4383 15.9925 97.5039 15.8061 97.54 15.5674C97.681 14.7696 97.7499 13.295 97.7499 11.1403C97.7499 10.748 97.7073 10.4635 97.6187 10.2935C97.5302 10.1234 97.3563 9.98612 97.0907 9.87822C96.4675 9.633 96.1527 9.27988 96.1527 8.81559C96.1527 8.3938 96.3691 8.03414 96.7988 7.73006C97.2284 7.42925 97.95 7.12845 98.9634 6.83091C100.318 6.43528 101.472 6.22929 102.424 6.21948Z" fill="#ff6600"/>
	<path d="M122.611 13.3406H116.409C116.137 13.3406 115.999 13.4583 115.999 13.6969C115.999 14.2659 116.31 14.8021 116.93 15.3056C117.55 15.8091 118.216 16.0609 118.928 16.0609C119.351 16.0609 119.82 15.9792 120.335 15.8189C120.85 15.6555 121.273 15.4593 121.607 15.2206C121.906 15.0113 122.145 14.9067 122.319 14.9067C122.549 14.9067 122.772 15.0473 122.991 15.3285C123.211 15.6097 123.323 15.8974 123.323 16.195C123.323 16.826 122.926 17.4342 122.135 18.0227C120.738 19.0657 119.121 19.5856 117.291 19.5856C115.445 19.5856 113.897 19.0526 112.647 17.9835C112.04 17.457 111.538 16.8227 111.142 16.0773C110.623 15.0865 110.364 14.0468 110.364 12.9515C110.364 11.4801 110.814 10.1592 111.709 8.9821C112.483 7.96524 113.467 7.20995 114.664 6.70969C115.563 6.33368 116.533 6.14404 117.58 6.14404C119.252 6.14404 120.673 6.61814 121.843 7.56307C122.434 8.03717 122.906 8.59628 123.267 9.24367C123.68 9.97935 123.887 10.6987 123.887 11.3984C123.887 11.9673 123.769 12.4349 123.529 12.7978C123.296 13.1607 122.988 13.3406 122.611 13.3406ZM116.753 10.885H118.085C118.649 10.885 118.928 10.6267 118.928 10.1101C118.928 9.63603 118.793 9.25348 118.518 8.95268C118.242 8.65187 117.888 8.50473 117.449 8.50473C116.957 8.50473 116.57 8.69764 116.287 9.08346C116.025 9.44312 115.891 9.80606 115.891 10.1755C115.891 10.4371 115.953 10.6202 116.081 10.7281C116.212 10.8327 116.435 10.885 116.753 10.885Z" fill="#ff6600"/>
	<path d="M126.169 4.96049H125.713V1.98511H126.392C126.713 1.98511 126.953 2.00799 127.136 2.14859C127.317 2.29245 127.425 2.5246 127.425 2.80579C127.425 3.28643 127.189 3.55454 126.739 3.61013L127.766 4.96376H127.218L126.225 3.63301H126.172V4.96049H126.169ZM126.287 3.25373C126.713 3.25373 126.926 3.20142 126.926 2.84503C126.926 2.47556 126.723 2.40035 126.287 2.40035H126.198V3.25373H126.287Z" fill="#ff6600"/>
	<path d="M128.363 1.69415C128.852 2.1846 129.114 2.83526 129.114 3.53497C129.114 4.24775 128.852 4.88533 128.356 5.36597C127.841 5.86623 127.185 6.14415 126.5 6.14415C125.808 6.14415 125.159 5.86296 124.657 5.36597C124.162 4.87225 123.893 4.22486 123.893 3.53497C123.893 2.84834 124.168 2.1846 124.68 1.67453C125.162 1.18735 125.795 0.925781 126.5 0.925781C127.212 0.925781 127.861 1.19389 128.363 1.69415ZM128.146 1.91322C127.7 1.46854 127.133 1.23967 126.5 1.23967C125.88 1.23967 125.319 1.46527 124.896 1.89033C124.444 2.34154 124.204 2.92027 124.204 3.5317C124.204 4.13331 124.444 4.69896 124.88 5.14363C125.316 5.58831 125.893 5.82045 126.49 5.82045C127.11 5.82045 127.684 5.58831 128.137 5.14363C128.566 4.72185 128.806 4.16601 128.806 3.54477C128.809 2.92354 128.576 2.34154 128.146 1.91322Z" fill="#ff6600"/>
</svg>