<svg id="Layer_1" data-name="Layer 1" xmlns="http://www.w3.org/2000/svg" viewBox="0 0 353 103"><defs><style>.cls-1{fill:#0062ff;}</style></defs><path class="cls-1" d="M146.08,35.06a31.49,31.49,0,0,0-10.4-6.8A31,31,0,0,0,123.5,26c-10.08-.11-18.76,2.93-24.92,11.55a1.14,1.14,0,0,1-.58.36,1.13,1.13,0,0,1-.68,0,1.13,1.13,0,0,1-.76-1.07V3A3,3,0,0,0,95.71.87,2.94,2.94,0,0,0,93.64,0H83.75a2.92,2.92,0,0,0-2.06.86A3,3,0,0,0,80.83,3V98a3,3,0,0,0,.86,2.09,2.91,2.91,0,0,0,2.06.87h8.87a2.91,2.91,0,0,0,1.93-.73,3,3,0,0,0,1-1.83c.34-2.44.69-4.88,1-7.33a.76.76,0,0,1,.18-.37.87.87,0,0,1,.35-.22.85.85,0,0,1,.42,0,.71.71,0,0,1,.34.23l1,1.25a27,27,0,0,0,15.81,10.13,38.12,38.12,0,0,0,12,.73A31.19,31.19,0,0,0,143.86,96a31.69,31.69,0,0,0,10.4-15.36A52.52,52.52,0,0,0,155.58,53,34.52,34.52,0,0,0,146.08,35.06Zm-8,42.1c-3.37,7.8-9.5,11.79-17.84,12.4h-1.9C106,89.72,98,81.41,96.51,69.16a32.6,32.6,0,0,1,2-16.95C102,44.07,108.19,40,116.9,39.46a21.75,21.75,0,0,1,14.4,3.76A21.25,21.25,0,0,1,137,49.48a21.67,21.67,0,0,1,2.84,8A32.78,32.78,0,0,1,138.09,77.16Z"/><path class="cls-1" d="M229.5,35.06a31.45,31.45,0,0,0-10.39-6.8A31.06,31.06,0,0,0,206.92,26C196.82,25.91,188.15,29,182,37.57a1.12,1.12,0,0,1-.57.36,1.16,1.16,0,0,1-.69,0,1.2,1.2,0,0,1-.54-.41,1.18,1.18,0,0,1-.21-.66V3A3,3,0,0,0,179.1.87,2.92,2.92,0,0,0,177,0h-9.87A2.87,2.87,0,0,0,166,.23a2.8,2.8,0,0,0-.95.64,2.9,2.9,0,0,0-.64,1A3,3,0,0,0,164.22,3V98a3,3,0,0,0,.86,2.09,2.93,2.93,0,0,0,2.08.87H176a2.91,2.91,0,0,0,1.92-.73,3,3,0,0,0,1-1.83q.53-3.66,1-7.33a.85.85,0,0,1,.18-.37.87.87,0,0,1,.35-.22.85.85,0,0,1,.42,0,.71.71,0,0,1,.34.23c.34.4.63.76,1,1.25a27,27,0,0,0,15.81,10.13,38.12,38.12,0,0,0,12,.73A31.08,31.08,0,0,0,227.25,96a31.62,31.62,0,0,0,10.4-15.36A52.52,52.52,0,0,0,239,53,34.33,34.33,0,0,0,229.5,35.06Zm-8.06,42.1c-3.37,7.8-9.5,11.79-17.84,12.4h-1.91c-12.32.16-20.38-8.15-21.84-20.4a32.52,32.52,0,0,1,2.07-16.95c3.47-8.14,9.68-12.22,18.39-12.75a21.75,21.75,0,0,1,14.4,3.76,21.25,21.25,0,0,1,5.68,6.26,21.67,21.67,0,0,1,2.84,8,32.86,32.86,0,0,1-1.73,19.69Z"/><path class="cls-1" d="M51,28.15A42.88,42.88,0,0,0,24,28a31.38,31.38,0,0,0-12.41,6.78A31.89,31.89,0,0,0,3.35,46.39,44.14,44.14,0,0,0,0,64.05,45.22,45.22,0,0,0,3.46,82.58a32,32,0,0,0,8.31,11.66,31.68,31.68,0,0,0,12.51,6.83,45.77,45.77,0,0,0,20.21,1.38A32.25,32.25,0,0,0,64.22,92.31a28.44,28.44,0,0,0,4.92-7.56,2.27,2.27,0,0,0,.21-1.12A2.32,2.32,0,0,0,69,82.55a2.39,2.39,0,0,0-.83-.78,2.3,2.3,0,0,0-1.09-.28H57.53a4.56,4.56,0,0,0-2.41.47,4.51,4.51,0,0,0-1.82,1.67c-.23.27-.47.62-.74.89A20.42,20.42,0,0,1,36.11,90.6C23.48,90,16.4,79.82,16,68.64H70.87a2.17,2.17,0,0,0,1.51-.58,2.26,2.26,0,0,0,.73-1.47A45.17,45.17,0,0,0,71,48.67a31.1,31.1,0,0,0-7.52-12.76A30.61,30.61,0,0,0,51,28.15ZM16.33,57.47c.76-6.4,3.32-11.73,8.48-15.34A20.2,20.2,0,0,1,47,40.81c6.45,3.35,9.68,10.73,9.81,16.71Z"/><path class="cls-1" d="M287.34,26c-23.11,0-41.85,17.2-41.85,38.44s18.74,38.42,41.85,38.42,41.94-17.2,41.94-38.42S310.49,26,287.34,26Zm0,63.52c-15.45,0-28-13.41-28-29.94v-.09c0-4.58,4-7.76,7.72-6.19a51.94,51.94,0,0,0,20.26,4.12,51.86,51.86,0,0,0,20.26-4.12c3.71-1.63,7.71,1.63,7.73,6.17v.18c.05,16.51-12.49,30-28,30Z"/><path class="cls-1" d="M332.54,27.29h3.11v8.26h2.26V27.29H341v-2.1h-8.48Z"/><path class="cls-1" d="M350.57,25.19l-2.69,4.38-2.7-4.38h-2.41V35.55H345V28.82l2.86,4.38h.05l2.89-4.41v6.76H353V25.19Z"/></svg>