<?xml version="1.0" ?>
<svg xmlns="http://www.w3.org/2000/svg" viewBox="0 0 32 32">
	<g fill="none" fill-rule="evenodd">
		<circle cx="16" cy="16" fill="#1693d4" fill-rule="nonzero" r="16"/>
		<path d="M 9.928,16.574 A 8.07,8.07 0.0 0,1 9.923,15.494 L 7.123,15.494 L 4.0,12.996 L 10.494,12.996 A 8.049,8.049 0.0 0,1 17.954,8.0 C 22.398,8.0 26.0,11.582 26.0,16.0 C 26.0,20.418 22.398,24.0 17.954,24.0 A 8.05,8.05 0.0 0,1 10.522,19.072 L 4.0,19.072 L 7.123,16.574 L 9.928,16.574 M 22.537,16.149 C 22.537,15.319 22.425,14.595 22.2,13.977 C 21.975,13.359 21.663,12.841 21.265,12.427 C 20.866,12.012 20.394,11.699 19.847,11.489 C 19.3,11.279 18.707,11.173 18.064,11.173 C 17.37,11.173 16.724,11.291 16.126,11.527 C 15.528,11.763 15.011,12.095 14.574,12.522 C 14.137,12.95 13.794,13.466 13.543,14.072 C 13.292,14.678 13.167,15.352 13.167,16.092 C 13.167,16.844 13.292,17.517 13.543,18.11 C 13.793,18.703 14.14,19.204 14.583,19.612 C 15.027,20.021 15.551,20.336 16.155,20.56 A 5.688,5.688 0.0 0,0 18.141,20.895 C 19.876,20.895 21.201,20.282 22.113,19.057 L 20.57,17.833 C 20.313,18.203 19.986,18.493 19.587,18.703 C 19.189,18.913 18.7,19.019 18.122,19.019 C 17.788,19.019 17.466,18.962 17.158,18.847 C 16.85,18.732 16.573,18.576 16.328,18.378 A 2.262,2.262 0.0 0,1 15.48,16.761 L 22.518,16.761 C 22.531,16.659 22.537,16.557 22.537,16.455 L 22.537,16.149 M 20.223,15.115 L 15.48,15.115 C 15.532,14.465 15.798,13.932 16.28,13.517 C 16.763,13.103 17.35,12.895 18.045,12.895 C 18.417,12.895 18.742,12.955 19.018,13.077 C 19.294,13.199 19.523,13.361 19.703,13.565 C 19.883,13.769 20.014,14.005 20.098,14.273 A 2.8,2.8 0.0 0,1 20.223,15.115" fill="#fff"/>
	</g>
</svg>