<?xml version="1.0" encoding="UTF-8"?>
<!-- Generator: Adobe Illustrator 27.6.1, SVG Export Plug-In . SVG Version: 6.00 Build 0)  -->
<svg version="1.1" id="Layer_1" xmlns="http://www.w3.org/2000/svg"  x="0px" y="0px" viewBox="8 10 478 92" style="enable-background:new 8 10 478 92;" xml:space="preserve">
<style type="text/css">
	.st0{fill:#096571;}
	.st1{fill:#002E3A;}
</style>
<g>
	<g>
		<path class="st0" d="M118.3,85.6h-4.4v-2.2h11.4v2.2h-4.4v12h-2.6V85.6z"/>
		<path class="st0" d="M129.9,83.4h2.6v5.7h6.7v-5.7h2.6v14.2h-2.6v-6.3h-6.7v6.3h-2.6V83.4z"/>
		<path class="st0" d="M148,83.4h9.5v2.2h-7v3.6h6.6v2.1h-6.6v4h7.3v2.2H148V83.4z"/>
		<path class="st0" d="M171.6,83.4h5c0.7,0,1.3,0.1,2,0.2c0.6,0.1,1.2,0.4,1.7,0.7c0.5,0.3,0.9,0.7,1.2,1.3c0.3,0.5,0.4,1.2,0.4,1.9    c0,1-0.3,1.9-0.9,2.5c-0.6,0.6-1.4,1.1-2.4,1.3l3.8,6.3h-3.1l-3.3-6h-1.9v6h-2.6V83.4z M176.2,89.5c0.4,0,0.7,0,1.1-0.1    c0.4-0.1,0.7-0.2,1-0.3c0.3-0.1,0.5-0.4,0.7-0.6c0.2-0.3,0.3-0.6,0.3-1c0-0.4-0.1-0.7-0.3-1c-0.2-0.2-0.4-0.4-0.7-0.6    c-0.3-0.1-0.6-0.2-0.9-0.3c-0.3-0.1-0.7-0.1-1-0.1h-2.3v4H176.2z"/>
		<path class="st0" d="M187.4,83.4h3.4l6.7,10.6h0V83.4h2.6v14.2h-3.3L190,86.6h0v10.9h-2.6V83.4z"/>
		<path class="st0" d="M210.8,83.4h2.2l6.2,14.2h-2.9l-1.3-3.2h-6.2l-1.3,3.2h-2.9L210.8,83.4z M214.1,92.1l-2.2-5.8l-2.3,5.8H214.1    z"/>
		<path class="st0" d="M238.8,86.3c-0.3-0.3-0.7-0.6-1.1-0.9c-0.5-0.2-1-0.3-1.5-0.3c-0.3,0-0.6,0-0.9,0.1c-0.3,0.1-0.6,0.2-0.8,0.3    c-0.2,0.2-0.4,0.4-0.6,0.6c-0.2,0.2-0.2,0.5-0.2,0.9c0,0.3,0.1,0.6,0.2,0.8c0.1,0.2,0.3,0.4,0.6,0.6c0.2,0.2,0.5,0.3,0.9,0.4    c0.3,0.1,0.7,0.2,1.1,0.4c0.5,0.1,0.9,0.3,1.4,0.5c0.5,0.2,0.9,0.4,1.4,0.7c0.4,0.3,0.8,0.7,1,1.2c0.3,0.5,0.4,1,0.4,1.7    c0,0.8-0.1,1.4-0.4,2c-0.3,0.6-0.7,1-1.1,1.4c-0.5,0.4-1,0.7-1.7,0.8s-1.3,0.3-2,0.3c-0.9,0-1.8-0.2-2.7-0.5    c-0.9-0.3-1.6-0.8-2.2-1.5l1.8-1.7c0.4,0.5,0.8,0.9,1.4,1.1c0.6,0.3,1.2,0.4,1.7,0.4c0.3,0,0.6,0,0.9-0.1c0.3-0.1,0.6-0.2,0.8-0.4    c0.3-0.2,0.5-0.4,0.6-0.7c0.2-0.3,0.2-0.6,0.2-1c0-0.4-0.1-0.7-0.3-0.9c-0.2-0.2-0.4-0.5-0.7-0.6c-0.3-0.2-0.7-0.3-1.1-0.5    c-0.4-0.1-0.8-0.3-1.3-0.4c-0.4-0.1-0.9-0.3-1.3-0.5c-0.4-0.2-0.8-0.4-1.2-0.7s-0.6-0.7-0.8-1.1c-0.2-0.4-0.3-1-0.3-1.7    c0-0.7,0.2-1.3,0.5-1.9c0.3-0.5,0.7-1,1.2-1.3c0.5-0.3,1.1-0.6,1.7-0.8c0.6-0.2,1.3-0.2,1.9-0.2c0.7,0,1.5,0.1,2.2,0.4    c0.8,0.3,1.4,0.6,2,1.1L238.8,86.3z"/>
		<path class="st0" d="M257.6,92.3c0,0.9-0.1,1.6-0.4,2.3c-0.3,0.7-0.7,1.3-1.2,1.8c-0.5,0.5-1.1,0.8-1.8,1.1    c-0.7,0.3-1.5,0.4-2.3,0.4c-0.8,0-1.6-0.1-2.3-0.4c-0.7-0.3-1.3-0.6-1.8-1.1c-0.5-0.5-0.9-1.1-1.2-1.8c-0.3-0.7-0.4-1.5-0.4-2.3    v-9h2.6v8.9c0,0.4,0.1,0.8,0.2,1.2c0.1,0.4,0.3,0.8,0.5,1.1c0.3,0.3,0.6,0.6,1,0.8c0.4,0.2,0.9,0.3,1.5,0.3s1.1-0.1,1.5-0.3    c0.4-0.2,0.7-0.5,1-0.8c0.3-0.3,0.4-0.7,0.5-1.1c0.1-0.4,0.2-0.8,0.2-1.2v-8.9h2.6V92.3z"/>
		<path class="st0" d="M274.1,86.7c-0.4-0.5-0.9-0.9-1.5-1.1c-0.6-0.2-1.2-0.3-1.8-0.3c-0.7,0-1.4,0.1-2,0.4    c-0.6,0.3-1.1,0.6-1.6,1.1s-0.8,1-1,1.6c-0.2,0.6-0.4,1.3-0.4,2c0,0.8,0.1,1.5,0.3,2.1c0.2,0.6,0.6,1.2,1,1.7    c0.4,0.5,0.9,0.8,1.5,1.1c0.6,0.3,1.3,0.4,2,0.4c0.8,0,1.5-0.1,2.1-0.4c0.6-0.3,1.1-0.7,1.4-1.2l2.1,1.4c-0.6,0.8-1.4,1.4-2.3,1.8    c-0.9,0.4-2,0.7-3.2,0.7c-1.1,0-2.2-0.2-3.1-0.6c-0.9-0.4-1.8-0.9-2.4-1.5c-0.7-0.7-1.2-1.4-1.6-2.4s-0.6-1.9-0.6-3    c0-1.1,0.2-2.2,0.6-3.1c0.4-0.9,0.9-1.7,1.6-2.3c0.7-0.6,1.5-1.1,2.5-1.5c0.9-0.3,2-0.5,3.1-0.5c0.5,0,0.9,0,1.4,0.1    c0.5,0.1,1,0.2,1.4,0.4c0.5,0.2,0.9,0.4,1.3,0.7c0.4,0.3,0.8,0.6,1,1L274.1,86.7z"/>
		<path class="st0" d="M291,86.7c-0.4-0.5-0.9-0.9-1.5-1.1c-0.6-0.2-1.2-0.3-1.8-0.3c-0.7,0-1.4,0.1-2,0.4c-0.6,0.3-1.1,0.6-1.6,1.1    c-0.4,0.5-0.8,1-1,1.6c-0.2,0.6-0.4,1.3-0.4,2c0,0.8,0.1,1.5,0.3,2.1c0.2,0.6,0.6,1.2,1,1.7c0.4,0.5,0.9,0.8,1.5,1.1    c0.6,0.3,1.3,0.4,2,0.4c0.8,0,1.5-0.1,2.1-0.4c0.6-0.3,1.1-0.7,1.4-1.2l2.1,1.4c-0.6,0.8-1.4,1.4-2.3,1.8c-0.9,0.4-2,0.7-3.2,0.7    c-1.1,0-2.2-0.2-3.1-0.6c-0.9-0.4-1.8-0.9-2.4-1.5c-0.7-0.7-1.2-1.4-1.6-2.4s-0.6-1.9-0.6-3c0-1.1,0.2-2.2,0.6-3.1    c0.4-0.9,0.9-1.7,1.6-2.3c0.7-0.6,1.5-1.1,2.5-1.5c0.9-0.3,2-0.5,3.1-0.5c0.5,0,0.9,0,1.4,0.1s1,0.2,1.4,0.4    c0.5,0.2,0.9,0.4,1.3,0.7c0.4,0.3,0.8,0.6,1,1L291,86.7z"/>
		<path class="st0" d="M297.8,83.4h9.5v2.2h-7v3.6h6.6v2.1h-6.6v4h7.3v2.2h-9.9V83.4z"/>
		<path class="st0" d="M320.6,86.3c-0.3-0.3-0.7-0.6-1.1-0.9c-0.5-0.2-1-0.3-1.5-0.3c-0.3,0-0.6,0-0.9,0.1s-0.6,0.2-0.8,0.3    s-0.4,0.4-0.6,0.6c-0.2,0.2-0.2,0.5-0.2,0.9c0,0.3,0.1,0.6,0.2,0.8c0.1,0.2,0.3,0.4,0.6,0.6c0.2,0.2,0.5,0.3,0.9,0.4    c0.3,0.1,0.7,0.2,1.1,0.4c0.5,0.1,0.9,0.3,1.4,0.5c0.5,0.2,0.9,0.4,1.4,0.7c0.4,0.3,0.8,0.7,1,1.2c0.3,0.5,0.4,1,0.4,1.7    c0,0.8-0.1,1.4-0.4,2c-0.3,0.6-0.7,1-1.1,1.4c-0.5,0.4-1,0.7-1.7,0.8c-0.6,0.2-1.3,0.3-2,0.3c-0.9,0-1.8-0.2-2.7-0.5    c-0.9-0.3-1.6-0.8-2.2-1.5l1.8-1.7c0.4,0.5,0.8,0.9,1.4,1.1c0.6,0.3,1.2,0.4,1.7,0.4c0.3,0,0.6,0,0.9-0.1s0.6-0.2,0.8-0.4    c0.3-0.2,0.5-0.4,0.6-0.7c0.2-0.3,0.2-0.6,0.2-1c0-0.4-0.1-0.7-0.3-0.9c-0.2-0.2-0.4-0.5-0.7-0.6c-0.3-0.2-0.7-0.3-1.1-0.5    c-0.4-0.1-0.8-0.3-1.3-0.4c-0.4-0.1-0.9-0.3-1.3-0.5c-0.4-0.2-0.8-0.4-1.2-0.7c-0.3-0.3-0.6-0.7-0.8-1.1c-0.2-0.4-0.3-1-0.3-1.7    c0-0.7,0.2-1.3,0.5-1.9c0.3-0.5,0.7-1,1.2-1.3c0.5-0.3,1.1-0.6,1.7-0.8c0.6-0.2,1.3-0.2,1.9-0.2c0.7,0,1.5,0.1,2.2,0.4    c0.8,0.3,1.4,0.6,2,1.1L320.6,86.3z"/>
		<path class="st0" d="M335.3,86.3c-0.3-0.3-0.7-0.6-1.1-0.9c-0.5-0.2-1-0.3-1.5-0.3c-0.3,0-0.6,0-0.9,0.1s-0.6,0.2-0.8,0.3    s-0.4,0.4-0.6,0.6c-0.2,0.2-0.2,0.5-0.2,0.9c0,0.3,0.1,0.6,0.2,0.8s0.3,0.4,0.6,0.6c0.2,0.2,0.5,0.3,0.9,0.4    c0.3,0.1,0.7,0.2,1.1,0.4c0.5,0.1,0.9,0.3,1.4,0.5c0.5,0.2,0.9,0.4,1.4,0.7c0.4,0.3,0.8,0.7,1,1.2c0.3,0.5,0.4,1,0.4,1.7    c0,0.8-0.1,1.4-0.4,2c-0.3,0.6-0.7,1-1.1,1.4c-0.5,0.4-1,0.7-1.7,0.8c-0.6,0.2-1.3,0.3-2,0.3c-0.9,0-1.8-0.2-2.7-0.5    c-0.9-0.3-1.6-0.8-2.2-1.5l1.8-1.7c0.4,0.5,0.8,0.9,1.4,1.1c0.6,0.3,1.2,0.4,1.7,0.4c0.3,0,0.6,0,0.9-0.1s0.6-0.2,0.8-0.4    c0.3-0.2,0.5-0.4,0.6-0.7c0.2-0.3,0.2-0.6,0.2-1c0-0.4-0.1-0.7-0.3-0.9c-0.2-0.2-0.4-0.5-0.7-0.6c-0.3-0.2-0.7-0.3-1.1-0.5    c-0.4-0.1-0.8-0.3-1.3-0.4c-0.4-0.1-0.9-0.3-1.3-0.5c-0.4-0.2-0.8-0.4-1.2-0.7c-0.3-0.3-0.6-0.7-0.8-1.1c-0.2-0.4-0.3-1-0.3-1.7    c0-0.7,0.2-1.3,0.5-1.9c0.3-0.5,0.7-1,1.2-1.3c0.5-0.3,1.1-0.6,1.7-0.8c0.6-0.2,1.3-0.2,1.9-0.2c0.7,0,1.5,0.1,2.2,0.4    c0.8,0.3,1.4,0.6,2,1.1L335.3,86.3z"/>
		<path class="st0" d="M361.2,86.7c-0.4-0.5-0.9-0.9-1.5-1.1c-0.6-0.2-1.2-0.3-1.8-0.3c-0.7,0-1.4,0.1-2,0.4    c-0.6,0.3-1.1,0.6-1.6,1.1s-0.8,1-1,1.6c-0.2,0.6-0.4,1.3-0.4,2c0,0.8,0.1,1.5,0.3,2.1c0.2,0.6,0.6,1.2,1,1.7    c0.4,0.5,0.9,0.8,1.5,1.1c0.6,0.3,1.3,0.4,2,0.4c0.8,0,1.5-0.1,2.1-0.4c0.6-0.3,1.1-0.7,1.4-1.2l2.1,1.4c-0.6,0.8-1.4,1.4-2.3,1.8    c-0.9,0.4-2,0.7-3.2,0.7c-1.1,0-2.2-0.2-3.1-0.6c-0.9-0.4-1.8-0.9-2.4-1.5c-0.7-0.7-1.2-1.4-1.6-2.4s-0.6-1.9-0.6-3    c0-1.1,0.2-2.2,0.6-3.1c0.4-0.9,0.9-1.7,1.6-2.3c0.7-0.6,1.5-1.1,2.5-1.5c0.9-0.3,2-0.5,3.1-0.5c0.5,0,0.9,0,1.4,0.1    c0.5,0.1,1,0.2,1.4,0.4c0.5,0.2,0.9,0.4,1.3,0.7c0.4,0.3,0.8,0.6,1,1L361.2,86.7z"/>
		<path class="st0" d="M367.1,90.4c0-1.1,0.2-2.2,0.6-3.1c0.4-0.9,0.9-1.7,1.6-2.3c0.7-0.6,1.5-1.1,2.4-1.5c0.9-0.3,2-0.5,3.1-0.5    c1.1,0,2.2,0.2,3.1,0.5c0.9,0.3,1.8,0.8,2.5,1.5c0.7,0.6,1.2,1.4,1.6,2.3c0.4,0.9,0.6,1.9,0.6,3.1c0,1.1-0.2,2.1-0.6,3    s-0.9,1.7-1.6,2.4c-0.7,0.7-1.5,1.2-2.5,1.5c-0.9,0.4-2,0.6-3.1,0.6c-1.1,0-2.1-0.2-3.1-0.6c-0.9-0.4-1.8-0.9-2.4-1.5    c-0.7-0.7-1.2-1.4-1.6-2.4C367.3,92.5,367.1,91.5,367.1,90.4z M369.9,90.4c0,0.8,0.1,1.5,0.4,2.1c0.2,0.6,0.6,1.2,1,1.7    c0.4,0.5,1,0.8,1.6,1.1c0.6,0.3,1.3,0.4,2,0.4c0.7,0,1.4-0.1,2-0.4c0.6-0.3,1.1-0.6,1.6-1.1s0.8-1,1-1.7c0.2-0.6,0.4-1.3,0.4-2.1    c0-0.7-0.1-1.4-0.4-2c-0.2-0.6-0.6-1.2-1-1.6c-0.4-0.5-1-0.8-1.6-1.1c-0.6-0.3-1.3-0.4-2-0.4c-0.7,0-1.4,0.1-2,0.4    c-0.6,0.3-1.1,0.6-1.6,1.1c-0.4,0.5-0.8,1-1,1.6C370,89,369.9,89.7,369.9,90.4z"/>
		<path class="st0" d="M388.1,83.4h4l3.7,10.1h0.1l3.7-10.1h4v14.2h-2.5V86.2h0l-4.4,11.4h-1.8l-4.3-11.4h0v11.4h-2.4V83.4z"/>
		<path class="st0" d="M409.8,83.4h4.7c0.8,0,1.6,0.1,2.2,0.2c0.7,0.1,1.2,0.4,1.7,0.7c0.5,0.3,0.8,0.8,1.1,1.3    c0.3,0.5,0.4,1.1,0.4,1.9c0,0.8-0.1,1.4-0.4,2c-0.3,0.5-0.7,1-1.2,1.3c-0.5,0.3-1.1,0.6-1.8,0.7c-0.7,0.1-1.4,0.2-2.2,0.2h-2v5.9    h-2.6V83.4z M414.2,89.6c0.4,0,0.8,0,1.2-0.1c0.4-0.1,0.7-0.2,1-0.3c0.3-0.2,0.5-0.4,0.7-0.6s0.3-0.6,0.3-1c0-0.4-0.1-0.8-0.3-1    c-0.2-0.3-0.4-0.5-0.7-0.6c-0.3-0.1-0.6-0.2-1-0.3c-0.4,0-0.8-0.1-1.1-0.1h-1.9v4.1H414.2z"/>
		<path class="st0" d="M428.6,83.4h2.2l6.2,14.2H434l-1.3-3.2h-6.2l-1.3,3.2h-2.9L428.6,83.4z M431.8,92.1l-2.2-5.8l-2.3,5.8H431.8z    "/>
		<path class="st0" d="M441.4,83.4h3.4l6.7,10.6h0V83.4h2.6v14.2h-3.3L444,86.6h0v10.9h-2.6V83.4z"/>
		<path class="st0" d="M463.8,91.4l-5.4-8h3.1l3.6,6l3.7-6h3l-5.4,8v6.1h-2.6V91.4z"/>
	</g>
	<g>
		<path class="st0" d="M26.6,33.1C36.8,20.2,53,15,68.1,18.3c-16.1-12-38.9-9-51.4,6.8C4,41,6.3,63.9,21.6,77    C14.9,63,16.4,45.9,26.6,33.1z"/>
		<path class="st1" d="M85.2,26.4c-5.2-4.1-11-6.8-17.1-8.1c0.4,0.3,0.7,0.5,1.1,0.8c3.5,2.8,6.4,6.2,8.6,9.8    c0.1,0.9,0.2,1.8,0.3,2.6l-5.9-5.9c-0.1,1.2-1.1,2.1-2.3,2.3l8,8c-0.1,1.3-0.4,2.4-0.7,3.4L65.6,27.7c-0.1,1.2-1.1,2.1-2.3,2.3    l12.6,12.6c-1.1,0.4-2.2,0.6-3.4,0.6L65,35.7c-0.1,1.2-1.1,2.1-2.3,2.3l4.6,4.6c-0.7-0.2-1.5-0.4-2.2-0.5c-1.3-0.3-2.6-0.7-4-0.9    c-7.4-1.2-12.4-1.3-15.2-1.1c-0.8,0-1.6,0.2-2.3,0.6L35,49.3c-0.8,2-1.1,6.4,0.9,15.5l-2.4-2.4c-0.1,1.2-1.1,2.1-2.3,2.3l5.8,5.8    c0.2,1.6,0.3,3,0.3,4.3l-9.7-9.7c-0.1,1.2-1.1,2.1-2.3,2.3L36.9,79c-0.2,1.2-0.5,2.2-0.9,3.2l-9.7-9.7c-0.1,1.2-1.1,2.1-2.3,2.3    l8.8,8.8c-3.5-1.3-6.9-3.2-10.1-5.7c-0.4-0.3-0.7-0.6-1.1-0.9c2.6,5.6,6.6,10.7,11.7,14.8c18,14.3,44.1,11.3,58.4-6.6    C106.1,66.9,103.2,40.7,85.2,26.4z M75.2,71.6c-9.4,11.8-24.4,16.3-38.1,13l5.2-5.2c0.4-0.8,0.6-1.6,0.7-2.4    c0.1-2.9,0-7.8-1.1-15.2l0,0c-0.3-1.4-0.6-2.7-1-4c-0.1-0.4-0.2-0.8-0.3-1.1l3.4,3.4c0.1-1.2,1.1-2.1,2.3-2.3l-6.6-6.6    c-0.1-1.2,0.1-2.4,0.4-3.6l12,12c0.1-1.2,1.1-2.1,2.3-2.3L43.5,46.4c1.1-0.2,2.2-0.4,3.5-0.5l6.6,6.6c0.1-1.2,1.1-2.1,2.3-2.3    L51.7,46c1.4,0.1,2.9,0.4,4.6,0.8c12.5,3,17.2,1.2,18.7,0.3l7.4-7.4C84.9,50.3,82.7,62.2,75.2,71.6z"/>
		<path class="st0" d="M63,29.2c1,0,1.8-0.8,1.8-1.8S64,25.6,63,25.6c-1,0-1.8,0.8-1.8,1.8C61.2,28.4,62,29.2,63,29.2z"/>
		<path class="st0" d="M62.4,37.2c1,0,1.8-0.8,1.8-1.8s-0.8-1.8-1.8-1.8s-1.8,0.8-1.8,1.8C60.6,36.4,61.4,37.2,62.4,37.2z"/>
		<path class="st0" d="M56.1,51c-1,0-1.8,0.8-1.8,1.8s0.8,1.8,1.8,1.8s1.8-0.8,1.8-1.8C57.9,51.8,57.1,51,56.1,51z"/>
		<path class="st0" d="M54.6,58.1c-1,0-1.8,0.8-1.8,1.8s0.8,1.8,1.8,1.8c1,0,1.8-0.8,1.8-1.8C56.4,58.9,55.6,58.1,54.6,58.1z"/>
		<path class="st0" d="M46.5,58.6c-1,0-1.8,0.8-1.8,1.8c0,1,0.8,1.8,1.8,1.8s1.8-0.8,1.8-1.8C48.3,59.4,47.5,58.6,46.5,58.6z"/>
		<path class="st0" d="M30.9,63.9c1,0,1.8-0.8,1.8-1.8s-0.8-1.8-1.8-1.8s-1.8,0.8-1.8,1.8C29.1,63.2,29.9,63.9,30.9,63.9z"/>
		<path class="st0" d="M25,66.6c1,0,1.8-0.8,1.8-1.8c0-1-0.8-1.8-1.8-1.8s-1.8,0.8-1.8,1.8C23.2,65.8,24,66.6,25,66.6z"/>
		<path class="st0" d="M23.7,74c1,0,1.8-0.8,1.8-1.8s-0.8-1.8-1.8-1.8s-1.8,0.8-1.8,1.8C21.9,73.2,22.7,74,23.7,74z"/>
		<path class="st0" d="M69.6,27.1c1,0,1.8-0.8,1.8-1.8s-0.8-1.8-1.8-1.8c-1,0-1.8,0.8-1.8,1.8C67.8,26.3,68.6,27.1,69.6,27.1z"/>
	</g>
	<g>
		<path class="st0" d="M113.9,23.5h33.2v7.8h-24.3V44h23v7.5h-23v14.2h25.5v7.9h-34.5V23.5H113.9z"/>
		<path class="st0" d="M190,35.3c-1.3-1.8-3-3.1-5.2-3.9s-4.2-1.2-6.2-1.2c-2.6,0-5,0.5-7.1,1.4s-4,2.2-5.5,3.9    c-1.5,1.7-2.7,3.6-3.5,5.8c-0.8,2.2-1.2,4.6-1.2,7.2c0,2.7,0.4,5.2,1.2,7.5s1.9,4.2,3.4,5.8c1.5,1.6,3.3,2.9,5.3,3.8    c2.1,0.9,4.4,1.3,7,1.3c2.7,0,5.1-0.5,7.1-1.6c2.1-1.1,3.7-2.5,5-4.2l7.1,5c-2.2,2.8-4.9,4.9-8.1,6.5c-3.2,1.5-7,2.3-11.2,2.3    c-3.9,0-7.5-0.6-10.8-1.9s-6.1-3.1-8.5-5.4s-4.2-5.1-5.5-8.3c-1.3-3.2-2-6.8-2-10.7c0-4,0.7-7.6,2.1-10.9c1.4-3.2,3.3-6,5.7-8.2    c2.4-2.3,5.3-4,8.6-5.2s6.9-1.8,10.8-1.8c1.6,0,3.3,0.2,5,0.5s3.4,0.8,5,1.4s3.1,1.4,4.5,2.4c1.4,0.9,2.6,2.1,3.6,3.4L190,35.3z"/>
		<path class="st0" d="M202.8,23.5h8.9v42.2H233v7.9h-30.2L202.8,23.5L202.8,23.5z"/>
		<path class="st0" d="M238.6,23.5h8.9v50.1h-8.9V23.5z"/>
		<path class="st0" d="M254.6,23.5h16.3c2.9,0,5.5,0.3,7.8,0.8s4.3,1.4,5.9,2.5c1.7,1.2,2.9,2.7,3.8,4.5s1.3,4.1,1.3,6.7    c0,2.8-0.5,5.1-1.6,7c-1,1.9-2.4,3.4-4.2,4.6c-1.8,1.2-3.8,2-6.2,2.5c-2.4,0.5-4.9,0.8-7.5,0.8h-6.9v20.7h-8.9V23.5H254.6z     M269.8,45.4c1.5,0,2.9-0.1,4.2-0.3c1.3-0.2,2.5-0.6,3.5-1.1s1.9-1.3,2.5-2.2c0.6-0.9,0.9-2.2,0.9-3.7s-0.3-2.7-0.9-3.6    s-1.4-1.6-2.4-2.2c-1-0.5-2.2-0.9-3.5-1c-1.3-0.2-2.6-0.2-4-0.2h-6.5v14.4L269.8,45.4L269.8,45.4z"/>
		<path class="st0" d="M322.3,34c-0.9-1.2-2.3-2.3-4-3.1c-1.7-0.8-3.5-1.2-5.2-1.2c-1,0-2.1,0.1-3.1,0.4s-2,0.7-2.8,1.2    s-1.5,1.2-2.1,2.1c-0.5,0.9-0.8,1.9-0.8,3.1c0,1.1,0.2,2.1,0.7,2.9s1.1,1.5,1.9,2.1s1.8,1.1,3,1.5s2.5,0.8,3.9,1.3    c1.6,0.5,3.3,1.1,5,1.8c1.7,0.7,3.3,1.5,4.7,2.6c1.4,1.1,2.6,2.5,3.5,4.1c0.9,1.7,1.4,3.7,1.4,6.2c0,2.7-0.5,5-1.5,7s-2.3,3.7-4,5    s-3.6,2.3-5.8,3s-4.6,1-7,1c-3.3,0-6.4-0.6-9.6-1.8c-3.1-1.2-5.7-3-7.6-5.3l6.4-5.9c1.2,1.7,2.9,3,4.9,4c2.1,1,4.1,1.5,6,1.5    c1,0,2.1-0.1,3.2-0.4s2.1-0.7,2.9-1.3c0.9-0.6,1.6-1.4,2.1-2.3s0.8-2.1,0.8-3.4s-0.3-2.4-0.9-3.3s-1.4-1.6-2.5-2.3    s-2.3-1.2-3.7-1.7c-1.4-0.5-2.9-1-4.5-1.5c-1.5-0.5-3-1-4.5-1.7s-2.9-1.5-4.1-2.6s-2.2-2.4-2.9-4c-0.8-1.6-1.1-3.5-1.1-5.9    c0-2.5,0.5-4.7,1.6-6.6c1.1-1.8,2.5-3.4,4.2-4.6s3.7-2.1,5.9-2.7s4.4-0.9,6.7-0.9c2.5,0,5.1,0.4,7.7,1.3s4.9,2.2,6.8,4L322.3,34z"/>
		<path class="st0" d="M334.1,23.5h33.2v7.8h-24.2V44h23v7.5h-23v14.2h25.5v7.9h-34.5V23.5z"/>
		<path class="st1" d="M375.7,23.5h19.5c1.9,0,3.7,0.2,5.6,0.7c1.8,0.4,3.5,1.2,4.9,2.2s2.6,2.3,3.5,3.9s1.3,3.5,1.3,5.8    c0,2.8-0.8,5.2-2.4,7s-3.7,3.2-6.3,4v0.1c3.2,0.4,5.8,1.7,7.8,3.7s3,4.7,3,8.1c0,2.7-0.5,5-1.6,6.9s-2.5,3.4-4.3,4.5    s-3.8,1.9-6.1,2.4c-2.3,0.5-4.6,0.7-7,0.7h-18v-50H375.7z M384.7,43.9h7.9c3,0,5.2-0.6,6.8-1.8c1.6-1.2,2.3-2.9,2.3-5    c0-2.3-0.8-3.9-2.4-4.8s-4.1-1.4-7.5-1.4h-7.1L384.7,43.9L384.7,43.9z M384.7,66.1h8c1.1,0,2.4-0.1,3.7-0.2c1.3-0.2,2.5-0.5,3.6-1    s2-1.3,2.8-2.3c0.7-1,1.1-2.3,1.1-4c0-2.6-0.9-4.5-2.7-5.5c-1.8-1-4.5-1.6-8.1-1.6h-8.3v14.6H384.7z"/>
		<path class="st1" d="M417.6,23.5h8.9v50.1h-8.9V23.5z"/>
		<path class="st1" d="M431.3,48.4c0-4,0.7-7.6,2-10.9c1.3-3.2,3.2-6,5.6-8.2c2.4-2.3,5.2-4,8.5-5.2s6.9-1.8,10.7-1.8    c3.9,0,7.5,0.6,10.8,1.8c3.3,1.2,6.2,3,8.6,5.2c2.4,2.3,4.3,5,5.6,8.2s2,6.9,2,10.9c0,3.9-0.7,7.5-2,10.7s-3.2,6-5.6,8.3    c-2.4,2.3-5.3,4.2-8.6,5.4c-3.3,1.3-6.9,1.9-10.8,1.9c-3.9,0-7.4-0.6-10.7-1.9c-3.3-1.3-6.1-3.1-8.5-5.4s-4.2-5.1-5.6-8.3    C431.9,55.9,431.3,52.3,431.3,48.4z M441,48.4c0,2.7,0.4,5.2,1.2,7.4c0.8,2.2,2,4.2,3.5,5.8c1.5,1.7,3.3,2.9,5.4,3.9    c2.1,0.9,4.4,1.4,7,1.4s4.9-0.5,7-1.4s4-2.2,5.5-3.9c1.5-1.7,2.7-3.6,3.5-5.8s1.2-4.7,1.2-7.4c0-2.6-0.4-5-1.2-7.2s-2-4.1-3.5-5.8    c-1.5-1.7-3.3-2.9-5.4-3.9c-2.1-0.9-4.5-1.4-7.1-1.4s-4.9,0.5-7,1.4c-2.1,0.9-3.9,2.2-5.4,3.9c-1.5,1.7-2.7,3.6-3.5,5.8    C441.4,43.4,441,45.8,441,48.4z"/>
	</g>
</g>
</svg>