<svg xmlns="http://www.w3.org/2000/svg" fill="none" viewBox="0 0 220 304">
<g>
<path fill="#000" d="M205.27 169.907c-27.74 31.439-64.265 39.529-90.386 39.529-71.893 0-111.191-46.695-111.191-103.793C3.693 46.696 48.308 0 110.723 0c53.63 0 105.18 38.374 105.18 118.357H59.635c1.156 24.966 23.579 43.459 59.41 43.459 20.111 0 39.991-10.633 53.63-23.81l32.595 31.901ZM60.79 82.989h97.091c-3.699-25.891-29.127-35.6-48.083-35.6-18.031 0-42.072 8.553-49.007 35.6Z"/>
<path fill="#8849FF" d="M107.261 304.203c-38.142 0-74.435-9.247-107.261-27.74l24.041-42.997c26.122 14.564 55.018 21.961 85.532 21.499h.462c30.514.231 59.179-6.935 85.531-21.499l24.042 42.766c-33.751 18.956-70.506 28.202-109.804 27.74-.925.231-1.618.231-2.543.231Z"/>
</g>
<defs>
</defs>
</svg>