<svg xmlns="http://www.w3.org/2000/svg" viewBox="0 0 111 32" fill="none"><path d="M19.2 5.12012H0L19.2 24.3201V5.12012Z" fill="url(#paint0_linear_2710_984)"></path><path d="M36.7759 18.9605L40.0225 19.3484C39.5105 21.1815 38.5621 22.6041 37.1774 23.6162C35.7927 24.6284 34.0239 25.1344 31.8712 25.1344C29.1599 25.1344 27.0071 24.3303 25.4129 22.7222C23.8303 21.1028 23.0391 18.8368 23.0391 15.9241C23.0391 12.9102 23.842 10.5711 25.4478 8.9067C27.0536 7.24231 29.1366 6.41012 31.6966 6.41012C34.1752 6.41012 36.1999 7.22544 37.7709 8.85609C39.3418 10.4867 40.1272 12.7809 40.1272 15.7385C40.1272 15.9185 40.1214 16.1884 40.1098 16.5482H26.2856C26.402 18.5163 26.978 20.0232 28.0137 21.0691C29.0493 22.1149 30.341 22.6379 31.8886 22.6379C33.0406 22.6379 34.0239 22.3455 34.8385 21.7607C35.653 21.1759 36.2988 20.2425 36.7759 18.9605ZM26.4602 14.0517H36.8108C36.6712 12.5447 36.2756 11.4145 35.6239 10.661C34.6232 9.49148 33.3257 8.9067 31.7315 8.9067C30.2886 8.9067 29.0726 9.3734 28.0835 10.3068C27.106 11.2402 26.5649 12.4885 26.4602 14.0517Z" fill="#343434"></path><path d="M54.9386 24.7296V22.4692C53.7633 24.246 52.0353 25.1344 49.7546 25.1344C48.2767 25.1344 46.9153 24.7408 45.6702 23.9536C44.4367 23.1664 43.4767 22.0699 42.7901 20.6642C42.1152 19.2472 41.7778 17.6222 41.7778 15.7891C41.7778 14.0011 42.0861 12.3817 42.7029 10.9309C43.3196 9.46899 44.2447 8.35003 45.4782 7.57407C46.7116 6.7981 48.0906 6.41012 49.6149 6.41012C50.732 6.41012 51.727 6.64066 52.5997 7.10174C53.4724 7.55157 54.1823 8.14198 54.7292 8.87296V0H57.8536V24.7296H54.9386ZM45.0069 15.7891C45.0069 18.0833 45.5073 19.7983 46.508 20.9341C47.5087 22.0699 48.6898 22.6379 50.0513 22.6379C51.4244 22.6379 52.5881 22.0981 53.5423 21.0185C54.5081 19.9276 54.991 18.2688 54.991 16.0422C54.991 13.5906 54.5023 11.7912 53.5248 10.6442C52.5473 9.4971 51.343 8.92356 49.9117 8.92356C48.5153 8.92356 47.3458 9.47461 46.4033 10.5767C45.4723 11.6788 45.0069 13.4163 45.0069 15.7891Z" fill="#343434"></path><path d="M61.1623 26.214L64.2169 26.6526C64.3449 27.5635 64.6998 28.227 65.2816 28.6431C66.0612 29.2054 67.126 29.4866 68.4758 29.4866C69.9304 29.4866 71.0533 29.2054 71.8446 28.6431C72.6359 28.0808 73.1711 27.2936 73.4504 26.2815C73.6133 25.663 73.689 24.3641 73.6773 22.3848C72.3042 23.948 70.5937 24.7296 68.5456 24.7296C65.9972 24.7296 64.0249 23.8412 62.6285 22.0643C61.2321 20.2875 60.5339 18.1564 60.5339 15.6711C60.5339 13.9617 60.8539 12.3873 61.4939 10.9478C62.1339 9.4971 63.059 8.37814 64.2692 7.59093C65.4911 6.80373 66.9223 6.41012 68.5631 6.41012C70.7508 6.41012 72.5544 7.2648 73.9741 8.97417V6.81497H76.8715V22.3005C76.8715 25.0894 76.5748 27.0631 75.9814 28.2214C75.3995 29.391 74.4686 30.3131 73.1886 30.9879C71.9202 31.6626 70.3551 32 68.4933 32C66.2823 32 64.4961 31.5164 63.1347 30.5493C61.7732 29.5934 61.1157 28.1483 61.1623 26.214ZM63.763 15.4518C63.763 17.8021 64.246 19.5171 65.2118 20.5967C66.1776 21.6763 67.3878 22.2161 68.8424 22.2161C70.2853 22.2161 71.4955 21.682 72.4729 20.6136C73.4504 19.534 73.9391 17.8471 73.9391 15.553C73.9391 13.36 73.433 11.7069 72.4206 10.5936C71.4198 9.48023 70.2097 8.92356 68.79 8.92356C67.3936 8.92356 66.2067 9.47461 65.2292 10.5767C64.2518 11.6675 63.763 13.2926 63.763 15.4518Z" fill="#343434"></path><path d="M93.2539 18.9605L96.5004 19.3484C95.9884 21.1815 95.0401 22.6041 93.6553 23.6162C92.2706 24.6284 90.5018 25.1344 88.3491 25.1344C85.6378 25.1344 83.485 24.3303 81.8908 22.7222C80.3083 21.1028 79.517 18.8368 79.517 15.9241C79.517 12.9102 80.3199 10.5711 81.9257 8.9067C83.5316 7.24231 85.6145 6.41012 88.1745 6.41012C90.6531 6.41012 92.6778 7.22544 94.2488 8.85609C95.8197 10.4867 96.6052 12.7809 96.6052 15.7385C96.6052 15.9185 96.5993 16.1884 96.5877 16.5482H82.7636C82.8799 18.5163 83.4559 20.0232 84.4916 21.0691C85.5272 22.1149 86.8189 22.6379 88.3665 22.6379C89.5185 22.6379 90.5018 22.3455 91.3164 21.7607C92.1309 21.1759 92.7768 20.2425 93.2539 18.9605ZM82.9381 14.0517H93.2888C93.1491 12.5447 92.7535 11.4145 92.1018 10.661C91.1011 9.49148 89.8036 8.9067 88.2094 8.9067C86.7665 8.9067 85.5505 9.3734 84.5614 10.3068C83.5839 11.2402 83.0428 12.4885 82.9381 14.0517Z" fill="#343434"></path><path d="M102.662 12.6788H101.064V6.84871C101.668 6.91184 102.24 7.10125 102.779 7.41692C103.322 7.73259 104.04 8.35604 104.935 9.28728C105.657 10.037 106.147 10.4967 106.404 10.6664C106.76 10.8952 107.111 11.0097 107.458 11.0097C107.842 11.0097 108.136 10.909 108.34 10.7078C108.548 10.5105 108.652 10.2363 108.652 9.88508C108.652 9.53784 108.544 9.26163 108.327 9.05644C108.111 8.85125 107.752 8.73288 107.25 8.70131L107.421 7.04403C108.368 7.14268 109.048 7.45243 109.46 7.97329C109.873 8.49415 110.079 9.14523 110.079 9.92651C110.079 10.7828 109.84 11.4556 109.363 11.9448C108.885 12.4341 108.291 12.6788 107.58 12.6788C107.176 12.6788 106.79 12.6078 106.423 12.4657C106.059 12.3276 105.678 12.1066 105.277 11.8028C105.012 11.6016 104.63 11.2385 104.132 10.7137C103.634 10.1889 103.303 9.85549 103.14 9.71344C102.977 9.57533 102.817 9.46287 102.662 9.37606V12.6788Z" fill="#343434"></path><path d="M102.662 19.0626H101.064V13.2325C101.668 13.2957 102.24 13.4851 102.779 13.8008C103.322 14.1164 104.04 14.7399 104.935 15.6711C105.657 16.4208 106.147 16.8805 106.404 17.0502C106.76 17.2791 107.111 17.3935 107.458 17.3935C107.842 17.3935 108.136 17.2929 108.34 17.0916C108.548 16.8944 108.652 16.6201 108.652 16.2689C108.652 15.9217 108.544 15.6455 108.327 15.4403C108.111 15.2351 107.752 15.1167 107.25 15.0852L107.421 13.4279C108.368 13.5265 109.048 13.8363 109.46 14.3571C109.873 14.878 110.079 15.5291 110.079 16.3104C110.079 17.1666 109.84 17.8394 109.363 18.3287C108.885 18.818 108.291 19.0626 107.58 19.0626C107.176 19.0626 106.79 18.9916 106.423 18.8495C106.059 18.7114 105.678 18.4905 105.277 18.1866C105.012 17.9854 104.63 17.6224 104.132 17.0976C103.634 16.5728 103.303 16.2393 103.14 16.0973C102.977 15.9592 102.817 15.8467 102.662 15.7599V19.0626Z" fill="#343434"></path><path d="M107.844 25.4642L107.66 23.8543C108.003 23.8148 108.256 23.7122 108.419 23.5465C108.583 23.3808 108.664 23.1657 108.664 22.9014C108.664 22.5502 108.501 22.2523 108.174 22.0076C107.848 21.7669 107.168 21.615 106.135 21.5519C106.641 21.9662 106.894 22.4811 106.894 23.0967C106.894 23.7912 106.621 24.385 106.074 24.8783C105.527 25.3754 104.82 25.624 103.955 25.624C103.036 25.624 102.299 25.3636 101.744 24.8427C101.188 24.3219 100.911 23.6531 100.911 22.8362C100.911 21.9603 101.262 21.2401 101.964 20.6759C102.67 20.1116 103.826 19.8295 105.431 19.8295C107.076 19.8295 108.262 20.1234 108.989 20.7114C109.716 21.2993 110.079 22.0629 110.079 23.002C110.079 23.6609 109.887 24.2055 109.503 24.6356C109.124 25.0696 108.57 25.3458 107.844 25.4642ZM104.089 21.6939C103.53 21.6939 103.097 21.8182 102.791 22.0668C102.489 22.3154 102.338 22.5995 102.338 22.9191C102.338 23.2269 102.462 23.4834 102.711 23.6886C102.96 23.8938 103.369 23.9963 103.936 23.9963C104.52 23.9963 104.947 23.8859 105.216 23.6649C105.49 23.4439 105.627 23.1677 105.627 22.8362C105.627 22.5166 105.496 22.2463 105.235 22.0254C104.977 21.8044 104.596 21.6939 104.089 21.6939Z" fill="#343434"></path><defs><linearGradient id="paint0_linear_2710_984" x1="-1.41934e-08" y1="5" x2="19" y2="24" gradientUnits="userSpaceOnUse"><stop offset="0.0160672" stop-color="#4158D0"></stop><stop offset="0.538647" stop-color="#C850C0"></stop><stop offset="1" stop-color="#FFCC70"></stop></linearGradient></defs></svg>