<?xml version="1.0" encoding="UTF-8"?>
<!-- Generator: Adobe Illustrator 22.0.1, SVG Export Plug-In . SVG Version: 6.00 Build 0)  -->
<svg version="1.1" id="Layer_1" xmlns="http://www.w3.org/2000/svg"  x="0px" y="0px" viewBox="0 0 220 75" style="enable-background:new 0 0 220 75;" xml:space="preserve">
<style type="text/css">
	.st0{fill:#FF5B35;}
	.st1{fill:#333E48;}
</style>
<g id="Layer_2_1_">
	<g id="bkgrnd">
		<path class="st0" d="M80.4,16.3h8.2v7.8h-8.2V16.3z"/>
		<path class="st1" d="M98.9,11.7c-3.6,1.7-4.9,5.1-5.1,9.6v2.9h8.1v7.3h-8.1v24.1h8.1V31.5h8.8v-7.4h-8.8v-1.1    c0.1-3.7,0.9-6.1,5.4-5.9c1.3,0,2.6,0.1,3.9,0.3V11C103.1,9.4,98.9,11.7,98.9,11.7 M32.7,37.2H19.2c0.4-4.6,2.7-7,7-7    C30.8,30.2,33,32.5,32.7,37.2 M27.1,23.8C16.4,23.8,11,29.1,11,39.6c0,11,5.9,16.5,17.6,16.5c3.7,0.1,7.4-0.2,11-0.9v-6.4    c-3.2,0.6-6.5,0.9-9.8,0.9c-7.1,0-10.7-2.2-10.7-6.5h21.2C42.3,30.2,37.8,23.8,27.1,23.8 M144.5,39.3c0,11.2,6,16.8,17.9,16.8    c3,0,6-0.3,8.9-0.9v-6.5c-2.7,0.6-5.5,0.9-8.3,0.9c-6.9,0-10.3-3.4-10.3-10.3c0-6.1,3.4-9.1,10.3-9.1c2.8,0,5.6,0.3,8.3,0.9v-6.5    c-2.9-0.6-5.9-1-8.9-0.9C150.4,23.8,144.5,29,144.5,39.3 M66.9,48c-2.4,0.8-5,1.2-7.6,1c-4.8-0.3-7.6-3.1-7.6-9.9    c0-5.7,2.5-8.2,7.6-8.2c2.6-0.1,5.2,0.5,7.6,1.6V48z M66.9,25.3c-2.4-1-5-1.6-7.6-1.5c-10.4,0-15.7,5.2-15.7,15.5    c0,11.2,5.7,16.8,16.3,16.8c1.6,0,5.9,0.5,15.1-2.3V11.7h-8.2V25.3z M133.8,37.2h-13.5c0.4-4.6,2.7-7,7-7    C132,30.2,134.1,32.5,133.8,37.2 M128.3,23.8c-10.7,0-16.1,5.3-16.1,15.8c0,11,5.9,16.5,17.6,16.5c3.7,0.1,7.4-0.2,11-0.9v-6.4    c-3.2,0.6-6.5,0.9-9.8,0.9c-7.1,0-10.7-2.2-10.7-6.5h21.2C143.4,30.2,139,23.8,128.3,23.8 M80.4,31.4h8.2v24.2h-8.2V31.4z     M191.6,36.8l-6-0.8c-2-0.3-3.2-1.2-3.2-2.5c0-2.3,2.2-3.4,6.6-3.4c4-0.1,7.9,0.5,11.7,1.8v-6.8c-3.7-1.1-7.6-1.7-11.5-1.6    c-9.6,0-14.7,3.2-14.7,9.9c0,6.6,3.5,8.7,10.5,9.9l6.1,0.8c1.9,0.3,3.2,1.2,3.2,2.5c0,2.3-2.2,3.4-6.6,3.4    c-4,0.1-7.9-0.5-11.7-1.8V55c3.7,1.1,7.6,1.7,11.5,1.6c9.6,0,14.7-3.2,14.7-9.9C202.2,40.1,198.6,37.9,191.6,36.8 M204.4,28.5    v-1.2h0.7c0.6,0,0.8,0.3,0.8,0.6c0,0.3-0.2,0.6-0.8,0.6L204.4,28.5z M206.3,27.9c0-0.5-0.3-0.8-1.1-0.8h-1v3.1h0.3v-1.4h0.7l1,1.4    h0.3l-1-1.4C205.9,28.8,206.3,28.4,206.3,27.9C206.3,27.9,206.3,27.9,206.3,27.9"/>
		<path class="st1" d="M205.2,31.2c-1.4,0-2.6-1.1-2.6-2.6c0-1.4,1.1-2.6,2.6-2.6s2.6,1.1,2.6,2.6c0,0,0,0,0,0    C207.7,30,206.6,31.2,205.2,31.2 M205.2,25.8c-1.5,0-2.8,1.3-2.8,2.8c0,1.5,1.3,2.8,2.8,2.8c1.5,0,2.8-1.3,2.8-2.8    C208,27.1,206.8,25.8,205.2,25.8C205.2,25.8,205.2,25.8,205.2,25.8"/>
	</g>
</g>
</svg>