<?xml version="1.0" ?>
<svg xmlns="http://www.w3.org/2000/svg" viewBox="0 0 40 40" fill="none" version="1.2" baseProfile="tiny-ps">
	<desc>
      Logo icon with effective brand identity
    </desc>
	<rect width="40" height="40" fill="white"/>
	<path d="M28.6119 23.5639C30.5783 18.8205 28.3239 13.3825 23.5766 11.4177C18.8292 9.45297 13.3866 11.7055 11.4201 16.4488C9.45372 21.1922 11.7081 26.6302 16.4555 28.595C21.2029 30.5598 26.6455 28.3073 28.6119 23.5639Z" fill="#6F5ABD"/>
	<path d="M21.2655 0.538786C9.91861 -0.165659 0.5 8.81752 0.5 20.0043C0.5 21.7143 0.722961 23.376 1.13875 24.9535C1.19901 25.1703 1.44608 25.2847 1.65096 25.1883L3.33221 24.3876C3.48889 24.3153 3.56722 24.1467 3.52504 23.9781C3.05502 22.0394 2.92245 19.9742 3.18759 17.8368C4.15175 10.1361 10.4067 3.98876 18.132 3.15185C28.328 2.04401 36.9813 10.0337 36.9813 19.9983C36.9813 25.4954 34.3479 30.3844 30.2744 33.4851C30.1418 33.5875 30.0936 33.7681 30.1659 33.9247L30.9674 35.6165C31.0638 35.8212 31.3289 35.8935 31.5097 35.755C36.5293 32.0883 39.7352 26.0915 39.5182 19.3601C39.1989 9.40756 31.2024 1.15292 21.2535 0.538786H21.2655Z" fill="#453387"/>
	<path d="M24.4111 36.6762C24.3388 36.5196 24.1701 36.4414 24.0013 36.4835C22.7238 36.7906 21.3921 36.9531 20.0182 36.9531C14.5164 36.9531 9.62335 34.322 6.51997 30.2519C6.41753 30.1194 6.23675 30.0713 6.08007 30.1435L4.3928 30.9443C4.18792 31.0406 4.1156 31.3055 4.2542 31.4862C7.8035 36.345 13.5463 39.5 20.0242 39.5C21.7356 39.5 23.3987 39.2772 24.9776 38.8618C25.1945 38.8016 25.309 38.5547 25.2126 38.35L24.4111 36.6702V36.6762Z" fill="#453387"/>
	<path d="M21.2656 5.66258C20.8558 5.62645 20.44 5.60839 20.0182 5.60839C11.7566 5.60839 5.11593 12.5565 5.63416 20.9256C6.08008 28.0964 11.9193 33.9307 19.0962 34.3762C27.4723 34.894 34.4263 28.265 34.4263 20.0044C34.4263 15.0552 31.9255 10.696 28.1231 8.10706C27.9303 7.9746 27.6591 8.06492 27.5808 8.28769L26.936 10.0879C26.8818 10.2385 26.936 10.401 27.0625 10.4974C30.2443 12.8576 32.2148 16.7711 31.817 21.1122C31.3109 26.6394 26.8878 31.1671 21.362 31.7812C14.2212 32.576 8.15302 26.9886 8.15302 20.0104C8.15302 13.4777 13.474 8.16125 20.0122 8.16125C20.1929 8.16125 20.3737 8.17329 20.5545 8.18534C20.7172 8.19738 20.8678 8.10104 20.9221 7.9445L21.5608 6.15027C21.6392 5.9275 21.4885 5.68666 21.2535 5.6686L21.2656 5.66258Z" fill="#453387"/>
</svg>