<?xml version="1.0" ?>
<svg xmlns="http://www.w3.org/2000/svg" version="1.2" viewBox="0 0 1505 1362">
	<style>
		.s0 { fill: #0076c3 } 
		.s1 { fill: #bdbfc1 } 
	</style>
	<path id="path3734" class="s0" d="m303.1 1135.3q-136.3-0.5-272.6-1c-9.3 0-18.6 0-30.5 0 6.1-40.1 11.8-78.3 17.8-116.4 23.8-151.2 47.5-302.4 71.6-453.5 15.7-98.1 24.4-198.1 49.9-293.6 39.7-148.9 143-236.9 294.9-266.8 2.3-0.4 4.4-2.2 6.6-3.3q398 0 796.1 0c-7.4 50.2-14.7 100.3-22.2 150.5-3.7 25.1-7.6 50.2-11.4 75.3-186.5 0.1-373.1 2.4-559.6-0.5-139.7-2.1-220.7 116.8-232.1 227.7 250.4 0 500.6 0 754.3 0-3.9 17.6-6.5 32.6-10.8 47.1-28.5 97.4-103.2 184.7-233.9 179.5-118.3-4.7-237-2.2-355.5-0.1-29.5 0.5-60.5 7.5-87.7 18.9-66.6 27.9-102.9 83.9-125.7 149.6-6.3 18.4-9.6 37.9-15.1 60 255.2 0 505.5 0 756 0-16 117.8-101.2 231.7-247.3 225.2-172-7.7-344.7-1.9-517.1-1.7-8.6 0-17.1 2-25.7 3.1z"/>
	<path id="path3736" class="s1" d="m303.1 1135.3c8.6-1.1 17.1-3.1 25.7-3.1 172.4-0.2 345.1-6 517.1 1.7 146.1 6.5 231.3-107.4 247.3-225.2-250.5 0-500.8 0-756 0 5.5-22.1 8.8-41.6 15.1-60 22.8-65.7 59.1-121.7 125.7-149.6 27.2-11.4 58.2-18.4 87.7-18.9 118.5-2.1 237.2-4.6 355.5 0.1 130.7 5.2 205.4-82.1 233.9-179.5 4.3-14.5 6.9-29.5 10.8-47.1-253.7 0-503.9 0-754.3 0 11.4-110.9 92.4-229.8 232.1-227.7 186.5 2.9 373.1 0.6 559.6 0.5 99.5 0 198.9 0 301.2 0-3.6 26.4-6.5 50-10.2 73.6-22.5 143.6-45.3 287.1-67.9 430.7-17.7 111.8-33.8 223.9-53.2 335.3-25.4 145.4-152.8 268-299 290.7-17.1 2.6-34.7 4-52 4-244.4 0.3-488.7 0.2-733 0.2-6.5 0-13.1 0-23 0 12.6-77 24.7-151.3 36.9-225.7z"/>
</svg>