<?xml version="1.0" encoding="UTF-8"?>
<svg xmlns="http://www.w3.org/2000/svg"  id="LOGO" viewBox="0 0 324.686 78.283">
  <defs>
    <clipPath id="clip-path">
      <rect id="Rectangle_1005" data-name="Rectangle 1005" width="324.686" height="78.283" fill="none"></rect>
    </clipPath>
  </defs>
  <g id="ekspert_logo" data-name="ekspert logo" clip-path="url(#clip-path)">
    <path id="Tracé_765" data-name="Tracé 765" d="M244.285,73.673a25.135,25.135,0,0,1-14.45-4.448c-.463-.3-.714-.531-.38-1.136.979-1.779,1.923-3.578,2.811-5.4.349-.716.644-.5,1.08-.156a24.092,24.092,0,0,0,5.878,3.661,12.582,12.582,0,0,0,8.583.575,7.917,7.917,0,0,0,5.51-9.241,6.209,6.209,0,0,0-2.785-3.854,47.048,47.048,0,0,0-6.377-3.562,48.429,48.429,0,0,1-9.289-5.55c-4.284-3.507-5.607-8.06-4.648-13.309a12.856,12.856,0,0,1,9.132-10.344,21.752,21.752,0,0,1,17.672,1.74c2.282,1.213,2.269,1.238,1.384,3.644-.476,1.3-.984,2.58-1.418,3.89-.242.734-.509.724-1.086.3a19.784,19.784,0,0,0-7.4-3.863,12.443,12.443,0,0,0-6.5.059,6.218,6.218,0,0,0-4.529,4.944,6.33,6.33,0,0,0,2.307,6.411,19.773,19.773,0,0,0,4.246,2.609c3.119,1.572,6.269,3.084,9.371,4.69,10.562,5.467,9.375,17.357,4.344,22.886-3.409,3.745-7.752,5.336-12.722,5.457-.244.006-.488,0-.732,0" transform="translate(-99.118 -8.547)" fill="#808184"></path>
    <path id="Tracé_766" data-name="Tracé 766" d="M549.586,54.374c0,2.542-.006,4.9.005,7.255a.793.793,0,0,1-.493.865c-4.661,2-9.415,3.166-14.439,1.47a9.594,9.594,0,0,1-6.995-9.652c-.089-10.126-.045-20.254-.054-30.381,0-1.994,0-1.994-1.986-1.994-1.465,0-2.931-.024-4.395.011-.678.017-.948-.2-.923-.906.044-1.259.053-2.524,0-3.782-.035-.784.194-1.066,1.016-1.04,1.83.06,3.663-.014,5.493.034.748.019.987-.215.972-.964-.043-2.114.013-4.23-.03-6.344a2.1,2.1,0,0,1,.732-1.7C530.757,5.089,533,2.905,535.257.733c.117-.114.236-.225.348-.342a1.053,1.053,0,0,1,1.23-.266c.437.186.255.642.257.98q.018,6.163.008,12.324c0,2.811,0,2.811,2.867,2.811,1.424,0,2.849.03,4.273-.011.693-.02,1.046.107,1,.919-.066,1.3-.049,2.6-.006,3.9.024.706-.246.909-.922.9-2.2-.032-4.4.019-6.592-.027-.811-.016-1.134.167-1.132,1.065.03,9.965.007,19.929.027,29.895.006,2.943,1.675,4.487,4.65,4.33a17.31,17.31,0,0,0,6.707-2.066c.469-.231.942-.452,1.611-.773" transform="translate(-224.905 -0.013)" fill="#808184"></path>
    <path id="Tracé_767" data-name="Tracé 767" d="M460.408,47.1c0-7.891.012-15.783-.019-23.672a1.341,1.341,0,0,1,.994-1.524q3.2-1.185,6.327-2.555c.973-.425,1.05-.054,1.046.785-.026,4.962-.015,9.925-.009,14.887,0,.514-.147,1.133.412,1.44.711.391,1.19.041,1.6-.6a73.918,73.918,0,0,1,5.13-7.563c2.916-3.548,6.138-6.73,10.343-8.752,1.38-.664,1.4-.646,1.4.827,0,4.027-.016,8.054.015,12.08.006.8-.124,1.2-1.063,1.067-5.734-.833-10.126,1.7-14.068,5.526a9.125,9.125,0,0,0-3.036,7.386c.244,8.087.062,16.186.106,24.28.006,1.057-.242,1.412-1.344,1.368-2.235-.089-4.477-.074-6.714,0-.948.03-1.143-.292-1.14-1.179.033-7.931.019-15.863.019-23.794" transform="translate(-199.008 -8.267)" fill="#808284"></path>
    <path id="Tracé_768" data-name="Tracé 768" d="M200.766,21.257c-1.487,1.988-2.81,3.767-4.143,5.537-4.649,6.168-9.284,12.346-13.975,18.482a1.26,1.26,0,0,0,.032,1.851Q191.712,58.948,200.7,70.8c.222.291.462.572.653.882.527.855.314,1.273-.671,1.278-2.889.013-5.778-.026-8.666.026a1.627,1.627,0,0,1-1.457-.872q-6.8-9.3-13.62-18.592c-1.441-1.967-2.85-3.959-4.335-5.892a1.154,1.154,0,0,1-.039-1.668q8.732-11.893,17.394-23.836a1.822,1.822,0,0,1,1.691-.891c2.949.051,5.9.02,9.113.02" transform="translate(-74.448 -9.18)" fill="#808184"></path>
    <path id="Tracé_769" data-name="Tracé 769" d="M162.349,31.975c0,10.127-.021,20.254.028,30.381.006,1.2-.343,1.512-1.5,1.459-2.071-.1-4.15-.058-6.224-.011-.807.019-1.055-.248-1.036-1.047.049-1.992.016-3.986.016-5.978q0-24.037-.02-48.073a2.951,2.951,0,0,1,.962-2.346c1.87-1.808,3.663-3.7,5.487-5.554.143-.144.3-.28.433-.429a1.392,1.392,0,0,1,1.48-.288c.615.157.365.742.365,1.14q.021,15.374.011,30.748" transform="translate(-66.4 0)" fill="#808285"></path>
    <path id="Tracé_770" data-name="Tracé 770" d="M333.919,29.116a18.017,18.017,0,0,0-5.421-8.1c-5.27-4.363-14.24-4.835-19.073,2.823a36.947,36.947,0,0,0-2.261,4.311c-.266.578-.5,1.39-1.293,1.243-.851-.159-.635-1.012-.638-1.629-.015-3.131-.028-6.263.007-9.393.01-.853-.149-1.091-1-.689q-2.813,1.32-5.69,2.5a1.631,1.631,0,0,0-1.2,1.783c.049,10.369.03,20.738.03,31.106,0,10.491.013,20.982-.022,31.473,0,.991.217,1.342,1.263,1.3,2.072-.085,4.151-.074,6.223,0,.97.034,1.229-.271,1.222-1.227-.04-6.425-.023-12.85-.016-19.274,0-.525.067-1.051.115-1.575.026-.282.034-.623.354-.719.359-.107.622.157.813.418.526.722,1.035,1.457,1.534,2.2,4.751,7.05,13.486,8.433,19.794,3.091a18.815,18.815,0,0,0,5.6-8.58,46.391,46.391,0,0,0-.344-31.051M326,57.095a18.529,18.529,0,0,1-.857,2.144c-2.73,5.647-8.785,6.871-13.585,2.771a15.537,15.537,0,0,1-4.942-9.144c-1.4-6.917-1.166-13.717,1.822-20.246a15.192,15.192,0,0,1,3.746-5.2,7.849,7.849,0,0,1,12.073,1.464,19.583,19.583,0,0,1,2.885,8.2,47.239,47.239,0,0,1,.542,7.78A41.47,41.47,0,0,1,326,57.095" transform="translate(-128.533 -7.559)" fill="#808184"></path>
    <path id="Tracé_771" data-name="Tracé 771" d="M415.207,32.5c-2.912-8.417-9.473-13.467-17.727-13.257-7.892.2-13.647,4.067-16.912,11.2-3.84,8.387-4.081,17.227-2.3,26.14a21.639,21.639,0,0,0,6.554,11.994c3.9,3.593,8.571,4.9,13.784,4.8a22.365,22.365,0,0,0,15.389-6.065c.409-.381.385-.59,0-.932-.912-.809-1.795-1.652-2.695-2.476-.628-.575-1.207-1.493-1.916-1.612-.736-.123-1.322.907-1.983,1.418-7.461,5.766-17.3,2.553-19.85-6.486a37.511,37.511,0,0,1-1.168-8.911c-.032-.879.211-1.095,1.064-1.088,4.72.038,9.44.018,14.161.018h12.818c2.526,0,2.5,0,2.528-2.5A35.84,35.84,0,0,0,415.207,32.5m-8.1,8.655c-3.254-.031-6.509-.014-9.763-.014-3.213,0-6.427-.027-9.64.019-.81.012-.982-.216-.932-1a21.752,21.752,0,0,1,2.313-9.132,9.68,9.68,0,0,1,11.812-4.78c2.772.975,4.409,3.081,5.54,5.663a24.3,24.3,0,0,1,1.659,8.314c.052.8-.282.94-.99.933" transform="translate(-163.049 -8.313)" fill="#808184"></path>
    <path id="Tracé_772" data-name="Tracé 772" d="M98.773,46.9A26.725,26.725,0,1,1,72.048,20.174,26.725,26.725,0,0,1,98.773,46.9" transform="translate(-19.591 -8.72)" fill="#fbcf92"></path>
    <path id="Tracé_773" data-name="Tracé 773" d="M53.451,45.3A26.725,26.725,0,1,1,26.726,18.579,26.725,26.725,0,0,1,53.451,45.3" transform="translate(0 -8.031)" fill="#f6b96f"></path>
    <path id="Tracé_774" data-name="Tracé 774" d="M99.6,67.05A17.969,17.969,0,0,1,81.824,85.2a17.4,17.4,0,0,1-5.774-.98,26.813,26.813,0,0,1-7.845,5.983,26.842,26.842,0,0,0,40.421-23.151Z" transform="translate(-29.482 -28.983)" fill="#808184"></path>
    <path id="Tracé_775" data-name="Tracé 775" d="M78.057,29.139a17.51,17.51,0,0,1,18.509,5.933L83.293,39.938a26.835,26.835,0,0,1,.666,5.952q0,.974-.07,1.932l16.146-5.869c.012.048.027.1.039.144a1.3,1.3,0,0,0-.037-.145l3.434-1.248,5.042-1.833h0a26.856,26.856,0,0,0-37.935-16.14,26.851,26.851,0,0,1,7.479,6.409" transform="translate(-30.508 -8.552)" fill="#808184"></path>
    <path id="Tracé_776" data-name="Tracé 776" d="M65.957,66.034a17.982,17.982,0,0,1-10.429-9.7L72.77,50.064q.069-.957.07-1.932a26.839,26.839,0,0,0-.666-5.952L53.951,48.861a18.1,18.1,0,0,1,12.986-17.48,26.851,26.851,0,0,0-7.479-6.409,26.847,26.847,0,0,0-1.347,47.046,26.82,26.82,0,0,0,7.845-5.983" transform="translate(-19.389 -10.794)" fill="#7d695c"></path>
  </g>
</svg>
