<svg viewBox="0 0 128 128" fill="none" xmlns="http://www.w3.org/2000/svg">
<path d="M56.1143 64.0003L23.5657 8.96032C18.08 -0.182533 4 3.65746 4 14.2632V113.555C4 124.16 18.08 128 23.5657 118.857L56.1143 64.0003Z" fill="#FF3A99"/>
<path d="M70.0147 64L66.3576 70.0343L33.9919 125.074C33.4433 126.171 32.7119 127.086 31.9805 128H68.7347C78.4262 128 87.3862 123.063 92.5062 114.834L124.14 64H70.0147Z" fill="#FA744E"/>
<path d="M92.3233 13.1657C87.2033 4.93714 78.2433 0 68.5519 0H31.9805C32.7119 0.914286 33.4433 1.82857 33.9919 2.92571L66.5405 57.9657L70.1976 64H124.323L92.3233 13.1657Z" fill="#343741"/>
</svg>