<?xml version="1.0" ?>
<svg xmlns="http://www.w3.org/2000/svg" fill="none" viewBox="0 0 112 112">
	<g fill-rule="evenodd" clip-rule="evenodd">
		<path d="M 56.0,112.0 C 86.928,112.0 112.0,86.928 112.0,56.0 C 112.0,25.072 86.928,0.0 56.0,0.0 C 25.072,0.0 0.0,25.072 0.0,56.0 C 0.0,86.928 25.072,112.0 56.0,112.0" fill="#0dbd8b"/>
		<path d="M45.761 26.093A4.097 4.097 0 0149.864 22C65.215 22 77.66 34.42 77.66 49.74a4.097 4.097 0 01-4.101 4.093 4.097 4.097 0 01-4.102-4.092c0-10.8-8.773-19.555-19.595-19.555a4.097 4.097 0 01-4.101-4.093z" fill="#fff"/>
		<path d="M85.899 45.648a4.097 4.097 0 014.1 4.093c0 15.32-12.445 27.74-27.797 27.74a4.097 4.097 0 01-4.102-4.093 4.097 4.097 0 014.102-4.093c10.822 0 19.595-8.755 19.595-19.554a4.097 4.097 0 014.102-4.093z" fill="#fff"/>
		<path d="M66.303 85.907A4.097 4.097 0 0162.202 90c-15.353 0-27.798-12.42-27.798-27.74a4.097 4.097 0 014.1-4.093 4.097 4.097 0 014.102 4.092c0 10.8 8.773 19.555 19.596 19.555a4.097 4.097 0 014.101 4.093z" fill="#fff"/>
		<path d="M26.101 66.352a4.097 4.097 0 01-4.1-4.093C22 46.94 34.445 34.52 49.797 34.52a4.097 4.097 0 014.102 4.093 4.097 4.097 0 01-4.102 4.093c-10.822 0-19.595 8.755-19.595 19.554a4.097 4.097 0 01-4.102 4.093z" fill="#fff"/>
	</g>
</svg>