<?xml version="1.0" ?>
<svg xmlns="http://www.w3.org/2000/svg" viewBox="0 0 1820.5 517.7">
	<style>.st0{fill:#000}</style>
	<path class="st0" d="M 764.2,287.4 L 759.4,287.4 C 758.8,298.7 759.1,312.3 747.7,328.6 C 739.1,341.0 726.8,349.7 701.5,349.7 C 676.2,349.7 666.1,338.3 659.1,328.8 C 646.7,312.3 644.1,285.6 644.1,251.5 L 806.3,251.5 C 805.6,198.2 808.8,147.9 784.7,115.4 C 765.1,88.9 737.7,80.6 701.4,80.6 C 665.2,80.6 641.1,87.9 619.4,115.7 C 594.6,147.6 596.1,201.0 596.1,210.4 C 596.1,217.9 596.0,249.0 596.0,266.7 C 596.0,315.6 603.0,337.2 618.0,356.1 C 639.4,383.1 670.0,390.4 701.3,390.4 C 732.6,390.4 766.6,383.0 785.7,356.2 C 798.8,337.8 805.8,315.9 806.3,287.2 L 764.2,287.2 L 764.2,287.4 M 652.4,146.8 C 661.2,129.2 675.0,121.4 701.1,121.4 C 727.2,121.4 741.0,129.2 749.8,146.8 C 758.8,164.8 758.6,200.5 758.6,210.2 L 643.9,210.2 C 643.9,200.6 643.4,164.8 652.4,146.8 M 1820.5,210.5 C 1820.5,201.1 1822.1,147.6 1797.4,115.7 C 1775.9,87.9 1744.4,80.5 1715.7,80.5 C 1686.9,80.5 1656.4,87.8 1634.9,115.7 C 1610.3,147.6 1611.8,201.0 1611.8,210.5 L 1611.8,260.7 C 1611.8,270.1 1610.2,323.6 1634.9,355.5 C 1656.4,383.3 1686.9,390.7 1715.7,390.7 C 1744.5,390.7 1775.9,383.4 1797.4,355.5 C 1822.0,323.6 1820.5,270.2 1820.5,260.7 L 1820.5,210.5 M 1772.7,260.8 C 1772.7,270.5 1771.0,303.9 1762.5,321.9 C 1754.1,339.5 1741.9,349.6 1716.3,349.6 C 1690.7,349.6 1678.3,339.5 1669.9,321.9 C 1661.3,303.9 1659.7,270.5 1659.7,260.8 L 1659.7,210.2 C 1659.7,200.5 1661.4,167.1 1669.9,149.1 C 1678.3,131.5 1690.6,121.4 1716.3,121.4 C 1741.9,121.4 1754.1,131.5 1762.5,149.1 C 1771.1,167.1 1772.7,200.5 1772.7,210.2 L 1772.7,260.8 M 856.5,12.2 L 856.5,389.4 L 904.1,362.0 L 904.1,12.2 L 856.5,12.2 M 1532.7,300.4 L 1532.7,127.9 L 1589.3,127.9 L 1589.3,86.5 L 1532.7,86.5 L 1532.7,0.0 L 1485.1,27.4 L 1485.1,86.5 L 1437.6,86.5 L 1437.6,127.9 L 1485.1,127.9 L 1485.1,300.4 L 1485.0,320.6 C 1485.0,379.1 1517.3,386.9 1550.8,386.9 C 1565.3,386.9 1589.3,381.2 1589.3,381.2 L 1589.3,340.5 C 1589.3,340.5 1567.2,343.2 1555.9,344.2 C 1542.2,345.5 1532.6,338.7 1532.6,325.3 L 1532.6,302.3 L 1532.7,300.4 L 1532.7,300.4 M 1159.5,399.0 L 1159.5,86.3 L 1114.3,86.3 L 1114.3,107.4 C 1095.0,88.4 1069.4,80.4 1049.5,80.4 C 1025.9,80.4 996.0,87.6 976.1,114.9 C 953.2,146.2 954.6,198.6 954.6,207.9 C 954.6,215.3 954.5,245.8 954.5,263.2 C 954.5,311.2 960.9,332.4 974.8,351.0 C 994.6,377.5 1021.6,384.7 1049.5,384.7 C 1071.1,384.7 1093.2,378.2 1111.8,361.5 L 1111.8,397.0 C 1112.2,421.7 1111.5,440.5 1102.6,452.6 C 1093.6,464.8 1077.0,473.5 1061.6,473.5 C 1046.2,473.5 1030.6,465.8 1021.9,453.5 C 1014.4,442.9 1012.2,433.4 1010.7,414.1 L 963.6,414.1 C 963.6,442.8 970.6,464.7 983.7,483.1 C 1002.8,509.9 1037.7,517.6 1061.8,517.6 C 1085.9,517.6 1110.6,513.9 1134.3,488.8 C 1157.3,464.6 1159.5,441.0 1159.5,399.0 L 1159.5,399.0 M 1102.9,312.2 C 1095.0,331.1 1078.7,343.6 1056.6,343.6 C 1033.8,343.6 1020.7,336.6 1011.8,314.2 C 1002.7,291.4 1002.0,269.0 1002.0,234.6 L 1002.0,230.3 C 1002.0,195.9 1001.1,176.1 1010.3,153.3 C 1019.3,130.9 1033.9,121.3 1056.6,121.3 C 1080.7,121.3 1096.1,136.0 1104.0,154.9 C 1113.5,177.6 1111.6,217.9 1111.6,230.3 L 1111.6,234.6 C 1111.6,247.1 1112.4,289.5 1102.9,312.2 M 1398.6,114.8 C 1377.0,84.5 1346.6,80.5 1315.3,80.5 C 1284.0,80.5 1252.1,87.9 1230.9,114.7 C 1219.1,129.6 1215.0,145.3 1213.6,170.2 L 1261.7,170.2 C 1262.4,158.4 1264.4,147.5 1270.0,139.3 C 1278.4,126.8 1294.4,121.4 1312.8,121.4 C 1338.1,121.4 1351.3,128.4 1358.3,146.7 C 1364.8,163.6 1363.4,189.9 1363.4,200.1 C 1363.4,200.1 1341.8,200.3 1334.1,200.4 C 1314.1,200.7 1205.7,199.0 1205.7,296.6 C 1205.7,359.6 1241.6,390.6 1290.8,390.6 C 1327.1,390.6 1351.0,375.8 1365.8,361.2 L 1365.8,384.7 L 1411.1,384.7 L 1411.1,187.8 C 1411.3,150.3 1410.9,132.1 1398.6,114.8 L 1398.6,114.8 M 1299.8,349.7 C 1265.9,349.7 1255.1,323.3 1255.1,297.7 C 1255.1,243.0 1311.1,242.9 1320.4,242.7 C 1338.2,242.2 1363.3,241.5 1363.3,241.5 C 1363.3,241.5 1363.7,260.0 1363.7,284.4 C 1363.6,308.4 1342.6,349.7 1299.8,349.7 M 514.0,302.3 C 493.3,424.5 386.9,517.6 258.8,517.6 C 115.9,517.7 0.0,401.8 0.0,258.8 C 0.0,115.9 115.9,0.0 258.9,0.0 C 374.8,0.0 472.9,76.2 505.9,181.2 L 457.4,206.6 C 434.3,118.6 354.2,53.7 259.0,53.7 C 145.7,53.7 53.8,145.6 53.8,258.9 C 53.8,372.2 145.7,464.0 259.0,464.0 C 350.2,464.0 427.5,404.4 454.2,322.1 L 206.0,178.5 L 206.0,329.2 L 291.2,280.9 L 333.0,307.1 L 204.4,383.3 L 158.5,353.8 L 159.3,152.3 L 207.7,126.1 L 463.6,273.3 L 514.0,302.3 L 514.0,302.3"/>
</svg>