<?xml version="1.0" ?>
<svg xmlns="http://www.w3.org/2000/svg" viewBox="0 0 233 52" fill="none">
	<path d="M207.379 51.2569H223.631C223.495 45.5742 221.999 40.0267 219.211 35.0881H196.024C202.552 37.7266 207.107 43.9505 207.379 51.2569Z" fill="#FBC167"/>
	<path d="M232.619 17.5442H220.107C218.203 20.7238 215.755 23.6328 212.967 26.1359C208.955 29.6538 204.195 32.2246 199.095 33.7129H232.619V17.5442Z" fill="#FBD394"/>
	<path d="M219.12 16.507C222.044 11.5008 223.608 5.81804 223.744 0H207.492C207.152 9.47123 199.468 17.1835 189.88 17.5218V33.6905C198.04 33.5552 205.928 30.5109 212.048 25.0988C214.836 22.5957 217.216 19.6866 219.12 16.507Z" fill="#FBB03B"/>
	<path d="M0 30.167C0 22.7175 5.13452 16.8643 12.5154 16.8643C20.6451 16.8643 25.0308 23.0368 25.0308 32.0826H6.63209C7.16694 36.0202 9.30633 38.3615 13.1572 38.3615C15.8315 38.3615 17.329 37.1909 18.0778 35.2753H24.7099C23.7472 39.745 19.7893 43.5762 13.2642 43.5762C4.70666 43.5762 0 37.723 0 30.167ZM6.73907 27.5065H18.0778C17.8639 24.3138 15.7245 22.079 12.7294 22.079C9.0924 22.079 7.38088 24.2074 6.73907 27.5065Z" fill="#050038"/>
	<path d="M28.0996 17.5029H34.6248V20.9083H34.7317C36.1223 18.5671 38.5826 16.8643 42.1126 16.8643C45.3217 16.8643 47.8889 18.6735 49.1726 21.334H49.2796C50.9911 18.5671 53.6653 16.8643 56.8744 16.8643C62.2228 16.8643 65.218 20.2698 65.218 25.8038V42.8312H58.4789V26.9744C58.4789 24.101 57.0883 22.6111 54.521 22.6111C51.7398 22.6111 49.9214 24.7395 49.9214 28.145V42.8312H43.1823V26.9744C43.1823 24.101 41.7917 22.6111 39.2244 22.6111C36.5502 22.6111 34.6248 24.7395 34.6248 28.145V42.8312H28.0996V17.5029Z" fill="#050038"/>
	<path d="M76.1438 39.6632L76.0368 42.8558H69.5117V4.11832C69.5117 2.52199 70.7953 1.24493 72.3998 1.24493H76.2508V20.6137H76.3577C77.7483 18.4852 79.8877 16.8889 83.4177 16.8889C89.8359 16.8889 94.3286 22.3164 94.3286 30.1916C94.3286 38.3861 89.9428 43.4943 83.6316 43.4943C80.2086 43.6008 77.6413 42.1109 76.1438 39.6632ZM87.6965 30.1916C87.6965 25.5091 85.771 22.21 82.0271 22.21C77.7483 22.21 76.1438 25.6155 76.1438 30.2981C76.1438 34.9806 78.4971 37.854 82.241 37.854C85.771 37.9604 87.6965 35.087 87.6965 30.1916Z" fill="#050038"/>
	<path d="M96.3613 30.167C96.3613 22.7175 101.496 16.8643 108.877 16.8643C117.006 16.8643 121.392 23.0368 121.392 32.0826H102.993C103.528 36.0202 105.668 38.3615 109.519 38.3615C112.193 38.3615 113.69 37.1909 114.439 35.2753H121.071C120.108 39.745 116.151 43.5762 109.625 43.5762C101.175 43.5762 96.3613 37.723 96.3613 30.167ZM103.1 27.5065H114.439C114.225 24.3138 112.086 22.079 109.091 22.079C105.454 22.079 103.742 24.2074 103.1 27.5065Z" fill="#050038"/>
	<path d="M130.988 21.5681H131.095C132.592 18.6947 134.411 17.2048 137.299 17.2048C138.048 17.2048 138.476 17.2048 138.904 17.4177V23.2709H138.797C134.411 22.8452 131.202 25.1864 131.202 30.5075V42.8525H124.463V17.5241H130.988V21.5681Z" fill="#050038"/>
	<path d="M140.156 37.4658H134.701V42.7869H140.156V37.4658Z" fill="#FBB03B"/>
	<path d="M146.684 1.24493H150.535V42.8558H143.689V4.11832C143.689 2.52199 145.079 1.24493 146.684 1.24493Z" fill="#050038"/>
	<path d="M154.796 45.746H157.363C160.037 45.746 161.107 44.3625 161.107 42.3405C161.107 40.957 160.572 39.3607 159.182 35.5295L152.336 17.5442H159.396L163.139 28.9313C163.888 31.2726 164.744 34.4653 164.744 34.4653H164.851C164.851 34.4653 165.493 31.2726 166.349 28.9313L169.879 17.5442H176.618L167.739 43.5111C165.814 49.1515 163.888 51.1735 158.754 51.1735H154.796V45.746Z" fill="#050038"/>
</svg>