<?xml version="1.0" ?>
<svg xmlns="http://www.w3.org/2000/svg" viewBox="0 0 1024 330">
	<defs>
		<style>.cls-1{fill:#21abb0}.cls-2{fill:#2a3141}</style>
	</defs>
	<path d="M 198.0,174.41 L 165.0,174.41 A 7.75,7.75 0.0 0,1 165.0,158.92 L 198.0,158.92 A 7.75,7.75 0.0 1,1 198.0,174.41 M 256.79,174.41 L 223.79,174.41 A 7.75,7.75 0.0 0,1 223.79,158.92 L 256.79,158.92 A 7.75,7.75 0.0 0,1 256.79,174.41 M 138.7,174.41 L 105.7,174.41 A 7.75,7.75 0.0 0,1 105.7,158.92 L 138.7,158.92 A 7.75,7.75 0.0 1,1 138.7,174.41 M 256.79,113.3 L 223.79,113.3 A 7.75,7.75 0.0 0,1 223.79,97.81 L 256.79,97.81 A 7.75,7.75 0.0 0,1 256.79,113.3 M 197.49,113.3 L 164.49,113.3 A 7.75,7.75 0.0 0,1 164.49,97.81 L 197.49,97.81 A 7.75,7.75 0.0 0,1 197.49,113.3 M 108.8,113.3 L 105.74,113.3 A 7.75,7.75 0.0 0,1 105.74,97.81 L 108.8,97.81 A 7.75,7.75 0.0 0,1 108.8,113.3 M 168.1,143.86 L 165.0,143.86 A 7.75,7.75 0.0 0,1 165.0,128.37 L 168.06,128.37 A 7.75,7.75 0.0 0,1 168.06,143.86 L 168.1,143.86 M 197.49,143.86 L 194.44,143.86 A 7.75,7.75 0.0 1,1 194.44,128.37 L 197.49,128.37 A 7.75,7.75 0.0 0,1 197.49,143.86 M 226.88,143.86 L 223.88,143.86 A 7.75,7.75 0.0 0,1 223.88,128.37 L 226.88,128.37 A 7.75,7.75 0.0 1,1 226.88,143.86 M 138.7,143.86 L 105.7,143.86 A 7.75,7.75 0.0 0,1 105.7,128.37 L 138.7,128.37 A 7.75,7.75 0.0 1,1 138.7,143.86 M 168.1,232.24 L 165.0,232.24 A 7.75,7.75 0.0 0,1 165.0,216.75 L 168.06,216.75 A 7.75,7.75 0.0 0,1 168.06,232.24 L 168.1,232.24 M 197.49,232.24 L 194.44,232.24 A 7.75,7.75 0.0 1,1 194.44,216.75 L 197.49,216.75 A 7.75,7.75 0.0 0,1 197.49,232.24 M 138.7,232.24 L 105.7,232.24 A 7.75,7.75 0.0 0,1 105.7,216.75 L 138.7,216.75 A 7.75,7.75 0.0 1,1 138.7,232.24 M 108.8,201.68 L 105.74,201.68 A 7.75,7.75 0.0 0,1 105.74,186.19 L 108.8,186.19 A 7.75,7.75 0.0 0,1 108.8,201.68 M 197.49,201.68 L 194.44,201.68 A 7.75,7.75 0.0 1,1 194.44,186.19 L 197.49,186.19 A 7.75,7.75 0.0 0,1 197.49,201.68 M 226.88,201.68 L 223.88,201.68 A 7.75,7.75 0.0 0,1 223.88,186.19 L 226.88,186.19 A 7.75,7.75 0.0 1,1 226.88,201.68 M 168.1,201.68 L 135.1,201.68 A 7.75,7.75 0.0 1,1 135.1,186.19 L 168.1,186.19 A 7.75,7.75 0.0 0,1 168.1,201.68" class="cls-1"/>
	<path d="M 387.25,193.29 L 321.49,193.29 C 324.19,201.78 331.71,206.79 342.49,206.79 C 350.98,206.79 358.13,202.43 359.27,199.04 L 386.27,199.04 C 383.95,212.61 368.06,231.67 340.41,231.67 C 312.06,231.67 291.81,212.58 291.81,185.19 C 291.81,155.87 314.57,137.75 340.41,137.75 C 366.06,137.75 387.85,155.68 387.85,183.07 C 387.83,185.58 387.64,188.85 387.25,193.29 L 387.25,193.29 M 359.25,176.51 C 359.06,167.64 351.15,161.85 340.93,161.85 C 332.25,161.85 324.15,165.71 321.26,176.51 L 359.25,176.51 M 547.14,181.53 L 547.14,227.08 A 2.86,2.86 0.0 0,1 544.28,229.93 L 521.45,229.93 A 2.86,2.86 0.0 0,1 518.59,227.08 L 518.59,183.84 C 518.59,169.95 511.65,165.71 504.32,165.71 C 495.64,165.71 489.09,170.34 488.89,184.61 L 488.89,227.08 A 2.86,2.86 0.0 0,1 486.04,229.93 L 463.21,229.93 A 2.86,2.86 0.0 0,1 460.35,227.08 L 460.35,183.84 C 460.35,169.95 453.41,165.71 446.27,165.71 C 438.56,165.71 430.65,168.8 430.65,183.84 L 430.65,227.08 A 2.86,2.86 0.0 0,1 427.79,229.93 L 405.0,229.93 A 2.86,2.86 0.0 0,1 402.15,227.08 L 402.15,142.92 A 2.86,2.86 0.0 0,1 405.0,140.06 L 427.83,140.06 A 2.86,2.86 0.0 0,1 430.69,142.92 L 430.69,156.65 C 433.0,143.53 445.93,137.75 454.99,137.75 C 468.3,137.75 478.33,143.92 483.53,154.75 C 489.7,142.6 503.59,137.75 513.04,137.75 C 535.57,137.75 547.14,154.0 547.14,181.53 L 547.14,181.53 M 663.28,184.8 C 663.28,213.93 642.07,231.67 619.5,231.67 C 610.24,231.67 598.29,228.2 591.73,219.91 L 591.73,227.08 A 2.86,2.86 0.0 0,1 588.87,229.93 L 566.0,229.93 A 2.86,2.86 0.0 0,1 563.15,227.08 L 563.15,101.19 A 2.86,2.86 0.0 0,1 566.0,98.33 L 588.83,98.33 A 2.86,2.86 0.0 0,1 591.69,101.19 L 591.69,149.7 C 598.25,141.41 610.2,137.94 619.46,137.94 C 642.07,137.94 663.28,155.68 663.28,184.8 L 663.28,184.8 M 634.35,184.8 C 634.35,173.43 624.71,164.55 613.52,164.55 C 602.72,164.55 592.69,173.23 592.69,184.8 C 592.69,196.37 602.53,205.05 613.52,205.05 C 624.71,205.05 634.35,196.18 634.35,184.8 M 672.93,184.8 C 672.93,156.26 696.07,137.75 721.72,137.75 C 747.37,137.75 770.72,156.26 770.72,184.8 C 770.72,213.15 747.38,231.67 721.72,231.67 C 696.06,231.67 672.93,213.15 672.93,184.8 M 741.59,184.8 C 741.59,172.46 732.72,164.17 721.72,164.17 C 710.72,164.17 701.86,172.46 701.86,184.8 C 701.86,197.14 710.73,205.25 721.72,205.25 C 732.71,205.25 741.59,197.15 741.59,184.8 M 786.8,98.33 L 809.63,98.33 A 2.86,2.86 0.0 0,1 812.48,101.19 L 812.48,227.08 A 2.86,2.86 0.0 0,1 809.63,229.93 L 786.8,229.93 A 2.86,2.86 0.0 0,1 783.94,227.08 L 783.94,101.19 A 2.86,2.86 0.0 0,1 786.8,98.33 M 926.0,101.19 L 926.0,227.08 A 2.86,2.86 0.0 0,1 923.14,229.93 L 900.51,229.93 A 2.86,2.86 0.0 0,1 897.65,227.08 L 897.65,219.71 C 891.09,228.2 878.94,231.71 869.65,231.71 C 847.28,231.71 826.07,213.97 826.07,184.84 C 826.07,155.71 847.28,137.98 869.65,137.98 C 878.91,137.98 891.06,141.45 897.65,149.98 L 897.65,101.19 A 2.86,2.86 0.0 0,1 900.51,98.33 L 923.14,98.33 A 2.86,2.86 0.0 0,1 926.0,101.19 L 926.0,101.19 M 896.49,184.8 C 896.49,173.23 886.66,164.55 875.86,164.55 C 864.67,164.55 855.03,173.43 855.03,184.8 C 855.03,196.17 864.67,205.05 875.86,205.05 C 886.85,205.05 896.49,196.38 896.49,184.8" class="cls-2"/>
</svg>