<?xml version="1.0" ?>
<svg xmlns="http://www.w3.org/2000/svg" viewBox="0 0 1081 960" preserveAspectRatio="xMidYMid meet">
	<g>
		<g transform="matrix(1,0,0,1,269,330)" opacity="1">
			<g opacity="1" transform="matrix(1,0,0,1,0,0)">
				<path fill="rgb(102,114,255)" d="M0 0 M165.662,29.702 C165.689,20.9740 167.022,11.751 170.961,1.952 C171.075,1.677 171.095,1.315 171.175,1.014 C175.321,-11.867 177.652,-25.584 177.652,-39.885 C177.652,-40.273 177.612,-40.615 177.605,-40.99 C177.605,-41.057 177.639,-41.144 177.632,-41.204 C177.592,-41.814 177.544,-42.4160 177.511,-43.026 C177.504,-43.039 177.505,-43.06 177.505,-43.06 C168.931,-140.99 125.845,-164.232 76.697,-170.104 C57.924,-171.864 44.057,-172.261 35.852,-171.223 C-4.2360,-169.49 -25.8190,-157.864 -33.313,-152.139 C-50.708,-136.867 -57.46,-89.753 -65.357,-81.059 C-80.2,-64.709 -147.162,-12.108 -162.923,4.51 C-175.073,17.317 -177.652,31.6780 -120.517,88.686 C-101.434,107.166 -74.668,101.125 -74.668,101.125 C-74.668,101.125 9.488,82.691 9.488,82.691 C15.282,81.264 19.6360,85.29 18.216,91.392 C15.9310,124.51 169.181,172.26 165.662,29.702z"/>
			</g>
		</g>
		<g transform="matrix(1,0,0,1,285.753,146.239)" opacity="1">
			<g opacity="1" transform="matrix(1,0,0,1,0,0)">
				<path fill="rgb(102,114,255)" d="M0 0 M18.417,12.707 C3.3660000000000014,-22.083 -15.771,-48.44 -38.94,-77.544 C-41.666,-80.973 -47.145,-78.897 -47.145,-74.463 C-47.145,-74.463 -49.978,29.137 -49.978,29.137 C-53.337,78.94 53.338,80.974 18.417,12.707z"/>
			</g>
		</g>
		<g transform="matrix(1,0,0,1,394.5,200)" opacity="1">
			<g opacity="1" transform="matrix(1,0,0,1,0,0)">
				<path fill="rgb(102,114,255)" d="M0 0 M-49.804,-39.963 C-49.804,-39.963 -49.482,-158.245 -49.482,-158.245 C-49.482,-162.679 -44.003,-164.756 -41.27,-161.32 C7.105,-100.551 39.372,-20.435 48.871,62.573 C49.8030,70.72 -34.5380,164.756 -49.804,-39.963z"/>
			</g>
		</g>
		<g/>
		<g transform="matrix(1,0,0,1,495.75,599.25)" opacity="1">
			<g opacity="1" transform="matrix(1,0,0,1,0,0)">
				<path fill="rgb(102,114,255)" d="M0 0 M165.157,-45.83 C165.157,-45.83 91.551,-96.535 35.313,-135.197 C0.57000,-159.083 -28.447,-179.645 -31.863,-181.869 C-49.091,-192.532 -57.9190,-206.358 -60.029,-222.534 C-60.029,-222.547 -60.029,-222.568 -60.029,-222.581 C-74.270,-314.197 -205.02,-313.947 -208.735,-177.315 C-209.224,-175.058 -209.96,-172.466 -210.851,-169.592 C-213.182,-162.304 -229.138,-117.842 -241.268,-84.137 C-241.268,-84.137 -241.275,-84.123 -241.275,-84.123 C-259.36,-39.265 -273.733,-12.581 -268.596,41.286 C-268.596,41.286 -252.114,186.791 -252.114,186.791 C-252.114,186.791 -238.488,307.076 -238.488,307.076 C-238.488,307.076 -234.924,314.196 -231.2,314.196 C-231.2,314.196 -205.332,314.196 -205.332,314.196 C-201.42,314.196 -198.206,310.566 -198.065,306.547 C-197.124,278.923 -195.727,228.432 -194.306,185.765 C-193.715,168.024 -193.121,151.635 -192.552,138.805 C-190.683,102.447 -177.487,78.736 -140.527,85.18 C-115.69,91.758 -88.496,99.862 -88.496,138.497 C-88.496,138.497 -86.191,220.706 -86.191,220.706 C-86.191,220.706 -83.787,306.46 -83.787,306.46 C-83.646,310.526 -80.405,314.196 -76.446,314.196 C-76.446,314.196 -38.126,314.196 -38.126,314.196 C-34.643,314.196 -31.656,311.222 -30.939,307.726 C-26.6120,286.211 -20.905,262.922 -15.145,239.465 C5.653,169.670 19.901,131.752 122.329,163.381 C122.329,163.381 201.554,191.914 195.258,260.075 C194.374,269.727 192.94,282.682 191.219,305.73 C190.897,310.057 194.2,314.196 198.44,314.196 C198.44,314.196 231.462,314.196 231.462,314.196 C234.784,314.196 237.657,311.457 238.481,308.141 C242.674,291.281 247.165,272.118 250.513,257.26 C251.952,250.874 253.179,245.283 254.081,241.012 C273.734,147.968 271.952,32.7390 165.157,-45.83z"/>
			</g>
		</g>
		<g transform="matrix(1,0,0,1,595,847.75)" opacity="1">
			<g opacity="1" transform="matrix(1,0,0,1,0,0)">
				<path fill="rgb(102,114,255)" d="M0 0 M-8.688,-63.19 C-15.721,-65.112 -22.854,-61.502 -23.209,-54.047 C-23.209,-54.047 -26.873,57.343 -26.873,57.343 C-26.9930,61.59 -23.671,65.113 -19.532,65.113 C-19.532,65.113 4.414,65.113 4.414,65.113 C8.024,65.113 11.092,62.461 11.655,58.797 C17.616,20.349 26.417,-28.701 26.759,-35.674 C26.9930,-40.523 25.56,-45.199 22.72,-48.669 C18.025,-54.409 4.159,-59.673 -8.688,-63.19z"/>
			</g>
		</g>
		<g transform="matrix(1,-0.0017,0.0017,1,755.1151,468.711)" opacity="1">
			<g opacity="1" transform="matrix(1,0,0,1,0,0)">
				<path fill="rgb(102,114,255)" d="M0 0 M-15.865,129.465 C-13.018,132.894 -7.64,132.031 -5.992,127.851 C7.639,93.309 50.233,-33.8760 -16.876,-130.571 C-18.484,-132.895 -22.1,-131.508 -21.792,-128.655 C-17.914,-93.195 -8.6170,24.7870 -48.27,81.641 C-50.2330,84.461 -50.052,88.279 -47.855,90.918 C-47.855,90.918 -15.865,129.465 -15.865,129.465z"/>
			</g>
		</g>
	</g>
</svg>