<?xml version="1.0" ?>
<svg xmlns="http://www.w3.org/2000/svg" fill="none" viewBox="0 0 127 37">
	<path d="M111.763 8.91c2.712 7.447 12.304 8.01 13.506 7.574.818-.307 1.176-1.356.256-2.251-1.075-1.075-5.577-1.178-6.114-3.839-.511-2.533 2.226-3.89 1.075-7.267-.691-2.047-3.172-3.301-5.551-2.431-2.635.972-4.604 4.299-3.172 8.214Zm3.121-4.35c.128-.793.895-1.305 1.688-1.177.793.128 1.304.895 1.177 1.689-.128.793-.896 1.305-1.689 1.177a1.47 1.47 0 0 1-1.176-1.69Z" fill="#fbba00"/>
	<path d="M111.354 24.444c-2.404.87-4.886-.358-5.576-2.406-1.151-3.378 1.586-4.734 1.074-7.267-.511-2.661-5.039-2.79-6.113-3.839-.921-.92-.563-1.97.256-2.251 1.202-.46 10.794.128 13.505 7.574 1.433 3.89-.511 7.216-3.146 8.189Z" fill="#fbba00"/>
	<path d="M65.106 28.282c0 1.254-.23 2.61-.741 3.813-.793 1.97-2.43 3.224-4.349 3.864-2.276.844-4.91.742-6.957-.154-2.737-1.202-4.195-3.198-4.502-6.167a17.491 17.491 0 0 1-.128-2.021v-10.85c0-.46.41-1.228 1.228-1.228.844 0 1.228.767 1.228 1.228 0 .23-.026 7.344.025 11.464.026.972.205 1.817.486 2.738.486 1.407 1.688 2.38 3.325 2.815 1.56.358 2.584.384 4.144-.051 1.688-.589 3.018-1.638 3.479-3.557.153-.691.205-1.356.23-2.047.026-4.095 0-11.106 0-11.362 0-.46.384-1.228 1.254-1.228s1.253.767 1.227 1.228c.051.256.051 7.37.051 11.515ZM44.721 36.215c-.818 0-1.227-.743-1.227-1.254 0-.205.025-7.55 0-11.797 0-1.689-.537-2.917-1.356-3.813-1.586-1.689-3.325-1.893-4.962-1.459-2.123.64-3.095 1.817-3.556 3.762a8.236 8.236 0 0 0-.204 1.945c-.026 4.094.025 11.285.025 11.285 0 .512-.409 1.28-1.304 1.28-.921 0-1.305-.794-1.305-1.28 0-.282.026-7.754-.05-12.104-.052-2.021-.922-3.506-2.814-4.58-2.814-1.382-5.91.281-6.779 2.66-.256.845-.41 1.562-.435 2.457-.05 4.197-.025 11.362-.025 11.644 0 .537-.41 1.28-1.203 1.28-.87 0-1.253-.717-1.253-1.204V23.061c0-1.458.256-2.866.921-4.196 1.177-2.303 3.146-3.352 5.627-3.583 1.586-.153 3.326.077 4.732.82 1.816.895 2.482 2.405 2.584 2.507.025-.077.179-.307.205-.384 1.176-1.74 2.455-2.43 4.63-2.866 1.918-.384 3.81-.153 5.575.793 2.123 1.152 3.019 3.097 3.351 5.4.077.614.128 1.254.128 1.868.026 4.145-.026 11.285-.026 11.54-.025.487-.358 1.255-1.279 1.255ZM3.284 25.39c.512-.333.64-.333 1.126-.512.588-.205.742-.154 1.381-.18 1.432-.025 2.865 0 4.297-.025 2.072-.025 3.12-1.228 3.326-3.173.127-1.612-.589-3.557-2.942-3.736a11.355 11.355 0 0 0-2.635.077c-2.532.358-3.964 1.919-4.322 4.069-.23 1.51-.154 2.021-.23 3.48ZM13.567 35.6c-2.89 1.382-5.832 1.407-8.722 0-2.251-1.126-3.633-3.378-3.812-5.809-.204-2.866-.307-5.271.026-8.112.41-3.557 2.967-5.757 6.523-6.27 1.432-.204 2.864-.28 4.271.154 2.635.82 4.246 3.173 4.016 6.014-.23 2.79-2.149 5.169-4.911 5.476-1.612.153-3.3.077-4.937.128a7.458 7.458 0 0 0-1.688.23c-.895.256-1.125.538-.998 1.868.154 1.254.538 2.431 1.638 3.48.818.691 1.764 1.126 3.12 1.28 1.74.153 2.967.153 4.553-.845.486-.307 1.023-.818 1.51-1.253.28-.359 1.15-.333 1.534.076.537.538.384 1.305.128 1.638-.588.896-1.202 1.33-2.251 1.945ZM80.275 35.447c-2.865 1.51-5.96 1.535-8.902.128-2.302-1.126-3.607-3.097-3.785-5.604-.18-2.662-.256-5.349 0-8.01.306-3.608 2.89-6.013 6.548-6.55 2.737-.41 5.115.127 7.213 1.765.204.153.41.358.588.537.154.154.282.307.46.512.435.486.461 1.254-.127 1.714-.793.64-1.51.18-1.79-.204-.078-.102-.154-.154-.231-.256-2.456-2.405-6.65-2.252-8.85-.077-1.075 1.152-1.407 2.406-1.433 3.762-.025 2.021-.076 4.017.052 6.013.358 2.994 2.071 4.683 5.013 4.94 1.458.076 2.686.025 4.041-.769.589-.358.998-.716 1.637-1.202.358-.307.921-.717 1.663-.128.614.486.41 1.254.153 1.586-.665.717-1.458 1.408-2.25 1.843ZM97.824 26.49c-.512.333-.64.333-1.126.487-.588.205-.741.153-1.381.179-1.432.026-2.865 0-4.297.026-2.072.025-3.12 1.228-3.325 3.173-.128 1.612.588 3.557 2.941 3.736.92.076 1.714.05 2.635-.077 2.532-.358 3.964-1.92 4.323-4.069.23-1.484.153-1.97.23-3.454ZM87.54 16.307c2.89-1.382 5.832-1.407 8.722 0 2.251 1.126 3.633 3.378 3.812 5.834.204 2.866.307 5.272-.026 8.112-.41 3.557-2.967 5.758-6.523 6.27-1.432.205-2.864.281-4.271-.154-2.635-.819-4.246-3.173-4.016-6.013.23-2.79 2.174-5.17 4.911-5.476 1.612-.154 3.3-.077 4.937-.128a7.457 7.457 0 0 0 1.688-.23c.895-.257 1.125-.538.998-1.869-.154-1.254-.538-2.43-1.638-3.48-.818-.69-1.764-1.126-3.12-1.28-1.74-.153-2.967-.153-4.553.845-.512.307-1.023.819-1.51 1.254-.28.358-1.15.333-1.534-.077-.537-.537-.384-1.305-.128-1.638.563-.92 1.202-1.356 2.251-1.97Z" fill="#3d3935"/>
</svg>