<?xml version="1.0" ?>
<svg xmlns="http://www.w3.org/2000/svg" viewBox="0 0 500 500" fill="none" version="1.2" baseProfile="tiny-ps">
	<rect width="500" height="500" rx="50" fill="url(#paint0_linear_1_534)"/>
	<path fill-rule="evenodd" d="M211.513 272.969V225.433L284.216 226.232V279.361C283.417 286.551 282.218 292.943 277.025 297.736C271.433 302.131 265.041 304.927 257.851 304.128L233.084 302.131C219.502 300.133 210.714 288.149 211.513 272.969ZM230.687 343.675C230.687 359.254 253.457 400 253.457 400L287.012 373.635C278.623 361.651 275.028 348.868 274.229 343.675C286.213 340.879 296.999 336.485 306.186 328.096C318.969 317.31 328.157 301.731 328.157 284.554V226.232H332.551C344.535 226.232 353.324 217.044 353.324 205.459C353.324 193.875 344.136 184.687 332.551 184.687H302.591V116.378C302.591 107.19 292.605 100.799 280.621 100.799C268.637 100.799 258.65 107.989 258.65 116.378V183.489H236.679V116.378C236.679 107.19 227.491 100 215.907 100C203.923 100 193.936 107.19 193.936 115.579V183.089H166.772C154.788 183.089 146 192.277 146 203.862C146 215.446 155.188 224.634 166.772 224.634H168.77V288.549C168.77 290.546 168.77 292.144 169.569 292.943C175.161 322.104 200.727 342.077 230.687 343.675Z" fill="#FFD125"/>
	<path fill-rule="evenodd" d="M212.312 272.969V225.433L285.015 226.232V279.361C284.216 286.551 283.017 292.943 277.824 297.736C272.232 302.13 265.84 304.927 258.65 304.128L233.883 302.13C219.502 300.133 210.714 288.149 212.312 272.969ZM230.687 343.675C249.861 345.672 259.848 346.471 273.43 344.474C285.414 341.678 295.401 337.284 305.387 328.895C318.17 318.109 327.358 302.53 327.358 285.353V227.43H331.752C343.736 227.43 352.525 218.242 352.525 206.658C352.525 195.073 343.337 185.885 331.752 185.885H301.792V117.177C301.792 107.989 291.806 101.598 281.02 101.598C269.036 101.598 259.049 108.788 259.049 117.177V184.687H237.079V117.177C237.079 107.989 227.891 101.598 216.306 101.598C204.322 99.6004 195.534 107.19 195.534 115.18V182.69H167.571C155.587 182.69 146.799 191.877 146.799 203.462C146.799 215.046 155.987 224.234 167.571 224.234H169.569V288.149C169.569 290.146 170.367 291.744 170.367 292.543C175.96 322.104 201.526 342.077 230.687 343.675Z" fill="#FFD125"/>
	<path fill-rule="evenodd" d="M212.312 241.811V216.245H169.569V234.62L212.312 241.811Z" fill="#FFC41B"/>
	<path fill-rule="evenodd" d="M326.959 249.001V215.446H284.216V241.811L326.959 249.001Z" fill="#FFC41B"/>
	<path fill-rule="evenodd" d="M230.687 343.675C230.687 347.27 231.486 352.064 233.483 356.458L283.417 368.442C277.824 358.455 274.229 346.471 273.43 343.675C271.433 334.887 225.894 335.686 230.687 343.675Z" fill="#FFC41B"/>
	<path fill-rule="evenodd" d="M326.959 226.232H331.353C343.337 226.232 352.125 217.044 352.125 205.46C352.125 193.875 342.937 184.687 331.353 184.687L166.772 182.69C154.788 182.69 146 191.878 146 203.462C146 215.047 155.188 224.235 166.772 224.235H168.77L326.959 226.232Z" fill="#FFD125"/>
	<defs>
		<linearGradient id="paint0_linear_1_534" x1="250" y1="0" x2="250" y2="500" gradientUnits="userSpaceOnUse">
			<stop stop-color="#51E756"/>
			<stop offset="1" stop-color="#45AF49"/>
		</linearGradient>
	</defs>
</svg>