<?xml version="1.0" encoding="UTF-8"?>

<svg viewBox="0 0 2661 1349" xmlns="http://www.w3.org/2000/svg" version="1.1" style="shape-rendering:geometricPrecision; text-rendering:geometricPrecision; image-rendering:optimizeQuality; fill-rule:evenodd; clip-rule:evenodd" >
<g><path style="opacity:0.993" fill="#00a9ff" d="M 1302.5,-0.5 C 1320.5,-0.5 1338.5,-0.5 1356.5,-0.5C 1631.69,2.08683 1899.69,47.5868 2160.5,136C 2336.96,196.402 2502.63,277.736 2657.5,380C 2659.4,381.065 2659.56,381.898 2658,382.5C 2457.83,316.334 2253.33,268.5 2044.5,239C 1807.3,206.362 1568.96,190.529 1329.5,191.5C 1141.33,191.192 953.664,200.692 766.5,220C 504.953,246.806 249.286,300.973 -0.5,382.5C -0.5,382.167 -0.5,381.833 -0.5,381.5C 209.597,243.649 436.93,143.482 681.5,81C 885.381,28.9741 1092.38,1.80747 1302.5,-0.5 Z"/></g>
<g><path style="opacity:0.99" fill="#00a9ff" d="M 320.5,494.5 C 370.889,493.398 419.556,501.898 466.5,520C 513.511,539.349 548.677,571.516 572,616.5C 585.129,644.602 589.129,673.936 584,704.5C 579.038,728.463 564.538,742.629 540.5,747C 454.828,747.831 369.161,747.498 283.5,746C 257.098,741.288 245.931,725.788 250,699.5C 253.344,688.823 260.177,681.323 270.5,677C 280.161,673.39 290.161,671.723 300.5,672C 348.188,670.468 395.854,668.468 443.5,666C 453.809,665.429 462.309,661.262 469,653.5C 472.616,647.471 473.283,641.138 471,634.5C 466.703,624.867 460.203,617.034 451.5,611C 424.273,593.036 394.273,583.036 361.5,581C 310.99,575.309 262.99,583.642 217.5,606C 158.08,641.022 137.58,691.856 156,758.5C 169.006,785.173 188.506,805.673 214.5,820C 244.044,835.848 275.377,846.515 308.5,852C 383.259,863.794 457.592,861.461 531.5,845C 562.591,841.759 576.757,855.592 574,886.5C 569.639,896.862 562.473,904.696 552.5,910C 502.529,928.862 450.862,940.195 397.5,944C 322.217,950.539 248.884,941.539 177.5,917C 135.141,901.944 98.6407,878.11 68,845.5C 32.7639,803.591 18.4305,755.258 25,700.5C 32.6717,637.952 62.1717,588.785 113.5,553C 154.492,525.663 199.492,508.329 248.5,501C 272.53,497.423 296.53,495.256 320.5,494.5 Z"/></g>
<g><path style="opacity:0.99" fill="#00a9ff" d="M 1544.5,494.5 C 1606.89,493.562 1668.22,501.062 1728.5,517C 1736.89,519.695 1744.56,523.695 1751.5,529C 1760.5,537.675 1763.67,548.175 1761,560.5C 1758.43,571.405 1751.93,578.905 1741.5,583C 1734.66,585.064 1727.66,586.23 1720.5,586.5C 1687.61,582.145 1654.61,578.978 1621.5,577C 1568.32,573.471 1515.98,578.471 1464.5,592C 1435.59,600.45 1409.59,614.117 1386.5,633C 1344.27,673.545 1336.1,720.045 1362,772.5C 1377.8,796.965 1398.63,815.799 1424.5,829C 1483.23,858.55 1544.89,866.883 1609.5,854C 1647.01,847.738 1680.67,833.071 1710.5,810C 1721.33,801.004 1728.33,789.671 1731.5,776C 1730.13,767.629 1725.46,761.963 1717.5,759C 1712.32,757.039 1706.99,755.706 1701.5,755C 1644.49,752.1 1587.49,749.1 1530.5,746C 1500,742.098 1487.83,725.265 1494,695.5C 1500.5,681.981 1511.33,674.481 1526.5,673C 1613.83,671.643 1701.16,670.976 1788.5,671C 1823.62,671.46 1843.78,688.96 1849,723.5C 1851.96,760.318 1843.63,794.318 1824,825.5C 1802.64,856.93 1775.48,882.097 1742.5,901C 1690.61,928.472 1635.28,943.139 1576.5,945C 1509.25,948.885 1443.58,940.552 1379.5,920C 1337.22,906.127 1300.72,883.293 1270,851.5C 1228.81,802.734 1214.14,746.734 1226,683.5C 1235.58,641.602 1256.42,606.435 1288.5,578C 1333.29,541.444 1384.29,517.444 1441.5,506C 1475.64,499.006 1509.97,495.173 1544.5,494.5 Z"/></g>
<g><path style="opacity:0.984" fill="#00a9ff" d="M 1956.5,494.5 C 2001.7,495.753 2025.37,518.92 2027.5,564C 2027.52,569.555 2027.02,575.055 2026,580.5C 2025.17,581.333 2024.33,582.167 2023.5,583C 1982.35,589.887 1941.18,596.72 1900,603.5C 1893.42,602.232 1890.75,598.232 1892,591.5C 1891.67,581.491 1891.17,571.491 1890.5,561.5C 1893.14,519.856 1915.14,497.523 1956.5,494.5 Z"/></g>
<g><path style="opacity:0.99" fill="#00a9ff" d="M 2369.5,494.5 C 2412.08,493.941 2453.75,499.774 2494.5,512C 2542.11,526.693 2580.28,554.193 2609,594.5C 2630.55,626.706 2638.88,662.039 2634,700.5C 2630.02,726.474 2615.19,741.974 2589.5,747C 2504.16,747.83 2418.83,747.497 2333.5,746C 2307.64,742.152 2296.14,727.318 2299,701.5C 2304.55,684.295 2316.38,674.795 2334.5,673C 2387.51,670.864 2440.51,668.531 2493.5,666C 2502.02,665.153 2509.52,661.986 2516,656.5C 2522.97,647.114 2523.3,637.448 2517,627.5C 2503.05,610.595 2485.55,598.762 2464.5,592C 2407.29,574.888 2350.29,575.555 2293.5,594C 2265.25,604.201 2241.42,620.701 2222,643.5C 2198.51,676.791 2192.17,713.125 2203,752.5C 2209.98,770.956 2220.81,786.789 2235.5,800C 2262.39,821.61 2292.72,836.61 2326.5,845C 2393.56,860.842 2461.23,863.842 2529.5,854C 2546.59,851.54 2563.59,848.54 2580.5,845C 2606.98,840.551 2621.65,851.551 2624.5,878C 2623.1,892.08 2616.1,902.413 2603.5,909C 2556.85,927.331 2508.52,938.664 2458.5,943C 2380.31,951.201 2303.98,942.868 2229.5,918C 2184.31,902.341 2145.81,876.841 2114,841.5C 2080.11,798.634 2067.11,749.968 2075,695.5C 2085.53,629.23 2119.37,578.73 2176.5,544C 2223.93,517.053 2274.93,501.386 2329.5,497C 2342.99,496.153 2356.32,495.319 2369.5,494.5 Z"/></g>
<g><path style="opacity:0.991" fill="#00a9ff" d="M 699.5,505.5 C 718.079,503.562 735.079,507.728 750.5,518C 831.833,587.333 913.167,656.667 994.5,726C 1002.03,732.517 1010.36,737.85 1019.5,742C 1036.42,748.699 1048.59,743.866 1056,727.5C 1065.46,667.583 1074.46,607.583 1083,547.5C 1085.38,533.903 1091.55,522.403 1101.5,513C 1117.82,503.041 1134.16,503.041 1150.5,513C 1159.17,520.165 1164.33,529.331 1166,540.5C 1166.67,655.5 1166.67,770.5 1166,885.5C 1159.56,927.832 1135.06,945.332 1092.5,938C 1080.38,934.944 1069.72,929.277 1060.5,921C 982.799,850.297 904.799,779.963 826.5,710C 818.079,703.037 808.912,697.203 799,692.5C 776.54,686.065 761.874,694.065 755,716.5C 744.127,778.071 733.794,839.738 724,901.5C 717.974,930.932 700.141,943.099 670.5,938C 652.972,931.784 643.805,919.284 643,900.5C 642.027,787.819 642.36,675.152 644,562.5C 648.932,530.07 667.432,511.07 699.5,505.5 Z"/></g>
<g><path style="opacity:0.99" fill="#00a9ff" d="M 2014.5,625.5 C 2020.52,624.852 2023.85,627.518 2024.5,633.5C 2019.7,723.025 2012.54,812.358 2003,901.5C 1995.42,931.715 1976.25,943.881 1945.5,938C 1931.52,934.023 1922.02,925.19 1917,911.5C 1915.26,906.946 1913.93,902.279 1913,897.5C 1903.17,814.762 1897.17,731.762 1895,648.5C 1896.85,645.323 1899.68,643.823 1903.5,644C 1940.71,638.236 1977.71,632.069 2014.5,625.5 Z"/></g>
<g><path style="opacity:0.956" fill="#00a9ff" d="M 2109.5,1076.5 C 2128.91,1074.08 2137.41,1082.41 2135,1101.5C 2132.99,1106.84 2129.16,1110 2123.5,1111C 2115.64,1112.09 2107.97,1111.42 2100.5,1109C 2099,1107.5 2097.5,1106 2096,1104.5C 2090.74,1090.02 2095.24,1080.69 2109.5,1076.5 Z"/></g>
<g><path style="opacity:0.971" fill="#00a9ff" d="M 1460.5,1348.5 C 1451.5,1348.5 1442.5,1348.5 1433.5,1348.5C 1412.73,1346.58 1393.06,1340.58 1374.5,1330.5C 1374.51,1319.74 1375.85,1309.08 1378.5,1298.5C 1378.83,1298.17 1379.17,1297.83 1379.5,1297.5C 1408.08,1315.1 1438.75,1320.26 1471.5,1313C 1493.8,1303.86 1502.3,1287.36 1497,1263.5C 1493.61,1255.44 1488.11,1249.28 1480.5,1245C 1475.83,1242.67 1471.17,1240.33 1466.5,1238C 1449.61,1232.22 1432.95,1225.89 1416.5,1219C 1378.82,1200.35 1366.66,1170.85 1380,1130.5C 1389.52,1109.99 1405.35,1097.15 1427.5,1092C 1460.46,1085.69 1492.46,1088.86 1523.5,1101.5C 1523.83,1102.33 1524.17,1103.17 1524.5,1104C 1522.84,1113.14 1521.34,1122.31 1520,1131.5C 1519.44,1132.02 1518.77,1132.36 1518,1132.5C 1492.37,1121.74 1465.87,1118.58 1438.5,1123C 1412.45,1131.26 1404.28,1148.1 1414,1173.5C 1422.42,1182.63 1432.59,1189.13 1444.5,1193C 1464.14,1199.1 1483.14,1206.77 1501.5,1216C 1526.74,1232.33 1536.9,1255.49 1532,1285.5C 1528.69,1311.97 1514.86,1330.47 1490.5,1341C 1480.64,1344.6 1470.64,1347.1 1460.5,1348.5 Z"/></g>
<g><path style="opacity:0.982" fill="#00a9ff" d="M 379.5,1092.5 C 391.167,1092.5 402.833,1092.5 414.5,1092.5C 414.5,1127.5 414.5,1162.5 414.5,1197.5C 453.5,1197.5 492.5,1197.5 531.5,1197.5C 531.5,1162.5 531.5,1127.5 531.5,1092.5C 543.167,1092.5 554.833,1092.5 566.5,1092.5C 566.5,1176.17 566.5,1259.83 566.5,1343.5C 554.833,1343.5 543.167,1343.5 531.5,1343.5C 531.5,1305.83 531.5,1268.17 531.5,1230.5C 492.5,1230.5 453.5,1230.5 414.5,1230.5C 414.5,1268.17 414.5,1305.83 414.5,1343.5C 402.833,1343.5 391.167,1343.5 379.5,1343.5C 379.5,1259.83 379.5,1176.17 379.5,1092.5 Z"/></g>
<g><path style="opacity:0.972" fill="#00a9ff" d="M 700.5,1348.5 C 694.5,1348.5 688.5,1348.5 682.5,1348.5C 641.328,1346.83 616.495,1325.83 608,1285.5C 602.828,1255.35 603.495,1225.35 610,1195.5C 617.829,1166.67 636.329,1149.17 665.5,1143C 685.975,1139.31 706.308,1139.97 726.5,1145C 746.024,1151.19 759.857,1163.69 768,1182.5C 773.301,1196.34 776.301,1210.67 777,1225.5C 779.292,1251.29 776.958,1276.62 770,1301.5C 762.407,1322.76 747.907,1336.93 726.5,1344C 717.783,1346.06 709.116,1347.56 700.5,1348.5 Z M 685.5,1168.5 C 700.493,1167.16 714.159,1170.66 726.5,1179C 736.868,1190.42 742.368,1203.92 743,1219.5C 746.014,1244.18 744.347,1268.51 738,1292.5C 731.422,1309.04 719.255,1318.21 701.5,1320C 661.034,1323.88 640.201,1305.38 639,1264.5C 637.918,1246.09 638.585,1227.76 641,1209.5C 645.243,1184.08 660.076,1170.42 685.5,1168.5 Z"/></g>
<g><path style="opacity:0.977" fill="#00a9ff" d="M 996.5,1140.5 C 1037.12,1138.03 1060.95,1156.7 1068,1196.5C 1068.5,1245.5 1068.67,1294.5 1068.5,1343.5C 1057.83,1343.5 1047.17,1343.5 1036.5,1343.5C 1036.98,1295.13 1036.48,1246.79 1035,1198.5C 1029.29,1179.65 1016.45,1170.65 996.5,1171.5C 977.218,1170.87 964.385,1179.54 958,1197.5C 956.529,1246.13 956.029,1294.8 956.5,1343.5C 945.833,1343.5 935.167,1343.5 924.5,1343.5C 924.976,1294.46 924.476,1245.46 923,1196.5C 920.009,1184.84 912.842,1177.01 901.5,1173C 878.348,1167.16 859.515,1173.66 845,1192.5C 844.5,1242.83 844.333,1293.17 844.5,1343.5C 833.5,1343.5 822.5,1343.5 811.5,1343.5C 811.5,1277.17 811.5,1210.83 811.5,1144.5C 819.499,1143.9 827.499,1143.73 835.5,1144C 837.574,1150.46 839.574,1156.96 841.5,1163.5C 863.696,1142.02 889.696,1135.86 919.5,1145C 931.883,1150.05 941.05,1158.55 947,1170.5C 958.634,1152.35 975.134,1142.35 996.5,1140.5 Z"/></g>
<g><path style="opacity:0.975" fill="#00a9ff" d="M 1175.5,1140.5 C 1230.53,1139.36 1259.36,1166.36 1262,1221.5C 1262.72,1230.53 1262.55,1239.53 1261.5,1248.5C 1219.17,1248.5 1176.83,1248.5 1134.5,1248.5C 1133.98,1266.4 1138.14,1283.07 1147,1298.5C 1153.42,1306.62 1161.59,1312.12 1171.5,1315C 1199.25,1321.12 1225.92,1317.96 1251.5,1305.5C 1253.65,1314.74 1254.82,1324.07 1255,1333.5C 1225.88,1347.68 1195.38,1351.52 1163.5,1345C 1138.79,1339.62 1121.29,1325.45 1111,1302.5C 1101.15,1272.48 1098.49,1241.81 1103,1210.5C 1109.46,1168.53 1133.63,1145.2 1175.5,1140.5 Z M 1172.5,1169.5 C 1205.51,1165.06 1225.01,1179.06 1231,1211.5C 1231.75,1216.48 1232.25,1221.48 1232.5,1226.5C 1199.5,1226.5 1166.5,1226.5 1133.5,1226.5C 1133.76,1211.79 1137.59,1198.12 1145,1185.5C 1152.37,1176.9 1161.54,1171.57 1172.5,1169.5 Z"/></g>
<g><path style="opacity:0.976" fill="#00a9ff" d="M 1631.5,1140.5 C 1684.63,1138.8 1713.47,1164.46 1718,1217.5C 1718.67,1227.5 1718.67,1237.5 1718,1247.5C 1675.57,1248.5 1633.07,1248.83 1590.5,1248.5C 1590.17,1266.84 1594.67,1283.84 1604,1299.5C 1610.27,1307.05 1618.11,1312.22 1627.5,1315C 1655.26,1321.12 1681.92,1317.96 1707.5,1305.5C 1709.84,1314.7 1711,1324.03 1711,1333.5C 1686.25,1345.8 1660.08,1350.3 1632.5,1347C 1590.66,1341.83 1566.5,1318.33 1560,1276.5C 1557.12,1254.88 1556.78,1233.21 1559,1211.5C 1565.04,1168.95 1589.21,1145.29 1631.5,1140.5 Z M 1628.5,1169.5 C 1644.17,1167.13 1658.51,1170.3 1671.5,1179C 1683.58,1192.41 1689.25,1208.25 1688.5,1226.5C 1655.49,1226.83 1622.49,1226.5 1589.5,1225.5C 1590.14,1210.74 1594.31,1197.07 1602,1184.5C 1609.22,1176.48 1618.05,1171.48 1628.5,1169.5 Z"/></g>
<g><path style="opacity:0.974" fill="#00a9ff" d="M 2401.5,1140.5 C 2422.56,1138.81 2441.89,1143.64 2459.5,1155C 2472.46,1166.08 2480.96,1179.92 2485,1196.5C 2488.57,1213.7 2489.74,1231.03 2488.5,1248.5C 2445.83,1248.33 2403.17,1248.5 2360.5,1249C 2360.87,1266.17 2365.03,1282.34 2373,1297.5C 2379.49,1306.17 2387.99,1312 2398.5,1315C 2425.95,1321.16 2452.28,1317.99 2477.5,1305.5C 2478.19,1306.03 2478.69,1306.69 2479,1307.5C 2479.93,1315.54 2481.1,1323.54 2482.5,1331.5C 2478.19,1335.33 2473.19,1338.16 2467.5,1340C 2368.66,1365.51 2322.16,1327.34 2328,1225.5C 2328.4,1199.28 2337.57,1176.78 2355.5,1158C 2369.12,1147.52 2384.46,1141.68 2401.5,1140.5 Z M 2399.5,1169.5 C 2439.69,1167.02 2459.36,1186.02 2458.5,1226.5C 2425.83,1226.5 2393.17,1226.5 2360.5,1226.5C 2360.18,1208.96 2365.51,1193.46 2376.5,1180C 2383.4,1174.65 2391.07,1171.15 2399.5,1169.5 Z"/></g>
<g><path style="opacity:0.967" fill="#00a9ff" d="M 2568.5,1140.5 C 2590.09,1139.56 2610.76,1143.39 2630.5,1152C 2630.83,1152.33 2631.17,1152.67 2631.5,1153C 2630.14,1161.75 2629.14,1170.58 2628.5,1179.5C 2618.41,1175.89 2608.08,1173.06 2597.5,1171C 2586.87,1169.52 2576.21,1169.19 2565.5,1170C 2544.87,1172.92 2536.37,1184.42 2540,1204.5C 2544.91,1212.2 2551.74,1217.37 2560.5,1220C 2573.1,1224.53 2585.77,1228.87 2598.5,1233C 2634.01,1246.45 2646.51,1271.61 2636,1308.5C 2626.88,1331.84 2609.72,1344.67 2584.5,1347C 2559.26,1350.06 2535.26,1346.06 2512.5,1335C 2509,1333.68 2507.34,1331.18 2507.5,1327.5C 2508.46,1319.1 2509.8,1310.77 2511.5,1302.5C 2536.89,1319.79 2564.22,1323.95 2593.5,1315C 2608.85,1304.27 2612.35,1290.43 2604,1273.5C 2598.93,1267.77 2592.76,1263.6 2585.5,1261C 2567.11,1254.98 2549.11,1247.98 2531.5,1240C 2507.95,1223.69 2501.12,1201.85 2511,1174.5C 2516.89,1161.61 2526.39,1152.44 2539.5,1147C 2549.06,1143.72 2558.73,1141.56 2568.5,1140.5 Z"/></g>
<g><path style="opacity:0.97" fill="#00a9ff" d="M 1830.5,1141.5 C 1838.51,1141.33 1846.51,1141.5 1854.5,1142C 1860.36,1141.99 1862.69,1144.99 1861.5,1151C 1860.98,1158.83 1860.48,1166.67 1860,1174.5C 1817.73,1168.84 1792.73,1187.17 1785,1229.5C 1784.5,1267.5 1784.33,1305.5 1784.5,1343.5C 1773.5,1343.5 1762.5,1343.5 1751.5,1343.5C 1751.5,1277.5 1751.5,1211.5 1751.5,1145.5C 1760.17,1144.88 1768.84,1144.21 1777.5,1143.5C 1778.46,1157.17 1779.63,1170.84 1781,1184.5C 1790.65,1162 1807.15,1147.66 1830.5,1141.5 Z"/></g>
<g><path style="opacity:0.97" fill="#00a9ff" d="M 2266.5,1348.5 C 2261.17,1348.5 2255.83,1348.5 2250.5,1348.5C 2214.31,1346.49 2190.81,1328.15 2180,1293.5C 2171.37,1260.16 2171.37,1226.83 2180,1193.5C 2193.36,1156.54 2219.86,1139.21 2259.5,1141.5C 2276.08,1141.05 2292.08,1143.88 2307.5,1150C 2308.14,1152.41 2308.47,1154.91 2308.5,1157.5C 2308.23,1165.27 2307.4,1172.94 2306,1180.5C 2287.04,1171.58 2267.21,1169.08 2246.5,1173C 2230.93,1176.03 2220.1,1184.87 2214,1199.5C 2205.36,1228.49 2205.36,1257.49 2214,1286.5C 2220.76,1304.97 2233.93,1315.47 2253.5,1318C 2272.72,1320.63 2290.72,1317.13 2307.5,1307.5C 2309.33,1316.42 2310.16,1325.42 2310,1334.5C 2296.55,1342.71 2282.05,1347.37 2266.5,1348.5 Z"/></g>
<g><path style="opacity:0.968" fill="#00a9ff" d="M 2118.5,1143.5 C 2122.83,1143.5 2127.17,1143.5 2131.5,1143.5C 2131.5,1210.17 2131.5,1276.83 2131.5,1343.5C 2120.5,1343.5 2109.5,1343.5 2098.5,1343.5C 2098.33,1277.5 2098.5,1211.5 2099,1145.5C 2105.6,1144.85 2112.1,1144.18 2118.5,1143.5 Z"/></g>
<g><path style="opacity:0.97" fill="#00a9ff" d="M 1874.5,1144.5 C 1886.75,1144.18 1898.91,1144.51 1911,1145.5C 1930.74,1201.55 1950.57,1257.55 1970.5,1313.5C 1990.46,1257.25 2010.13,1200.92 2029.5,1144.5C 2041.84,1144.33 2054.17,1144.5 2066.5,1145C 2040.61,1210.66 2015.11,1276.49 1990,1342.5C 1983.58,1343.16 1977.08,1343.49 1970.5,1343.5C 1963.92,1343.49 1957.42,1343.16 1951,1342.5C 1925.4,1276.52 1899.9,1210.52 1874.5,1144.5 Z"/></g>
</svg>
