<?xml version="1.0" ?>
<svg xmlns="http://www.w3.org/2000/svg" viewBox="0 0 1551 1613">
	<title>ENLT_BIG</title>
	<defs>
		<linearGradient id="g1" x2="1" gradientUnits="userSpaceOnUse" gradientTransform="matrix(1550.054,-47.817,49.666,1609.994,.288,832.928)">
			<stop offset="0" stop-color="#f7942c"/>
			<stop offset=".055" stop-color="#f7942c"/>
			<stop offset="1" stop-color="#f04a2b"/>
		</linearGradient>
		<radialGradient id="g2" cx="0" cy="0" r="1" gradientUnits="userSpaceOnUse" gradientTransform="matrix(609.698,-1307.417,1307.417,609.698,408.377,1401.671)">
			<stop offset="0" stop-color="#f7942c"/>
			<stop offset=".314" stop-color="#f04a2b"/>
			<stop offset="1" stop-color="#bf2036"/>
		</radialGradient>
		<linearGradient id="g3" x2="1" gradientUnits="userSpaceOnUse" gradientTransform="matrix(200.874,1238.642,-1141.58,185.134,841.935,243.236)">
			<stop offset="0" stop-color="#eb1c2e"/>
			<stop offset=".558" stop-color="#f04a2b"/>
			<stop offset="1" stop-color="#f7942c"/>
		</linearGradient>
	</defs>
	<style>
		.s0 { fill: #ffffff } 
		.s1 { fill: url(#g1) } 
		.s2 { mix-blend-mode: overlay;fill: url(#g2) } 
		.s3 { fill: url(#g3) } 
	</style>
	<g id="Page 1">
		<path id="Path 8" class="s0" d="m1528.82 968.5c54.24-241.9 4.45-481.51-143.26-665.9-194.43-242.76-456.78-345.68-648.53-284.24-93.52 29.98-346.84 110.14-442.99 244.15-85.44 119.15-450 348.24-216.46 918.22 57.59 140.55 192.82 232.52 325.65 290.35 218.58 95.16 421.88 202.23 651.48 98.35 45.97-20.75 89.5-46.79 130.9-76.33 222.09-82.8 322.26-293.93 343.21-524.6z"/>
		<g id="&lt;Group&gt;" opacity=" .8">
			<path id="Path 10" class="s1" d="m851.18 0.99c-39.9 0.12-78.27 5.91-114.15 17.37-93.52 29.94-346.84 110.14-442.99 244.22-85.44 119.08-450 348.17-216.46 918.15 57.55 140.59 192.82 232.56 325.65 290.35 154.88 67.39 302.09 140.9 456.5 140.94h0.67c63.22 0 127.67-12.41 194.31-42.63 202.83-91.77 366.69-274.66 444.14-496.08 96.58-276.4 55.77-559.69-113.29-770.74-156.9-195.81-357.91-300.63-530.48-301.58z"/>
		</g>
		<g id="&lt;Group&gt;" opacity=" .8">
			<path id="Path 13" class="s2" d="m361.44 217.48c-22.5 14.58-49.01 26.04-66.93 47.43-64.92 77.28-126.8 131.88-175.6 218.26-53.22 94.1-49.4 198.45-32.58 304.29 47.43 298.62 208.18 637.96 488.45 716.39 192.74 53.96 438.38 44.71 617.88-71.69 158.51-102.85 274.24-278.33 313.71-475.87 49.32-246.59-16.66-482.22-181.28-640.73-159.61-153.7-345.1-233.42-536.03-233.42-142.36 0-287.75 44.27-427.62 135.34z"/>
		</g>
		<g id="&lt;Group&gt;" opacity=" .8">
			<path id="Path 16" class="s3" d="m324.37 728.37c0.04 259.66 161.5 548.87 369.64 693.74 96.98 67.52 207.91 102.7 317.1 102.93h2.36c51.01-0.12 101.63-7.84 150.24-23.51 267.7-86.27 368.11-351.64 369.52-623.43v-11.74q-0.19-35.89-2.6-71.61c-8.39-125.89-33.12-256.16-104.81-359.75-74.85-108.09-199.36-169.74-338.37-190.89-36.83-5.55-74.69-8.35-112.94-8.35-313.07 0.04-650.3 184.11-650.14 492.61z"/>
		</g>
		<path id="Path 19" class="s0" d="m822.35 925.36q-14.18 15.96-4.73 40.42 11.31 49 38.56 88.43 27.26 39.59 67.76 63.1 40.41 23.52 91.27 23.48h77.16q67.72 0 118.53-38.6 50.81-38.49 62.16-93.12h231.42q-11.27 95.99-68.7 172.21-57.43 76.18-148.66 119.47-91.27 43.29-196.68 43.29h-78.98q-126.09-0.04-228.66-62.08-102.57-62.11-162.76-175.95-60.23-113.8-60.23-253.12 0-146.73 65.86-258.76 65.86-111.91 168.43-170.32 102.5-58.26 215.47-58.3h79.02q118.53 0 216.45 61.13 97.81 61.22 153.31 166.55 55.5 105.44 55.5 231.49 0 37.62-3.7 71.54v6.53 6.62h-647.39q-26.35-0.04-40.41 15.99zm14.1-207.94q11.27 18.79 39.51 18.79h340.61q26.31 0.04 40.46-17.88 14.1-17.84 0.9-42.35-16.94-54.55-63.02-88.43-46.09-33.87-104.47-33.83h-77.13q-54.59 0-101.58 31-47.12 31.12-73.39 89.37-13.23 24.5-1.89 43.33z"/>
	</g>
</svg>