<?xml version="1.0" ?>
<svg xmlns="http://www.w3.org/2000/svg" version="1.2" viewBox="0 0 1566 380">
	<style>
		.s0 { fill: #ff5f30 } 
		.s1 { fill: #000000 } 
	</style>
	<g id="Layer">
		<path id="Layer" fill-rule="evenodd" class="s0" d="m189.5 0l-9.5 0.2-9.3 0.7-9.2 1.2-9 1.5-8.9 2-8.8 2.5-8.5 2.8-8.4 3.2-8.2 3.6-8 3.9-7.8 4.3-7.5 4.7-7.3 5-7.1 5.3-6.7 5.7-6.6 5.9-6.2 6.3-5.9 6.5-5.7 6.8-5.3 7-5 7.4-4.7 7.5-4.3 7.8-3.9 8-3.6 8.2-3.2 8.4-2.8 8.5-2.4 8.8-2 8.9-1.6 9.1-1.2 9.1-0.7 9.4-0.2 9.4 0.2 9.5 0.7 9.3 1.2 9.2 1.6 9 2 8.9 2.4 8.8 2.8 8.6 3.2 8.4 3.6 8.1 3.9 8 4.3 7.8 4.7 7.5 5 7.4 5.3 7 5.7 6.8 5.9 6.5 6.2 6.3 6.6 5.9 6.7 5.7 7.1 5.3 7.3 5 7.5 4.7 7.8 4.3 8 3.9 8.2 3.6 8.4 3.2 8.5 2.8 8.8 2.4 8.9 2 9 1.6 9.2 1.1 9.3 0.7 9.5 0.3 9.8-0.3 9.6-0.7 9.5-1.2 9.3-1.7 9.2-2.1 9-2.6 8.9-3 8.6-3.4 8.4-3.9 8.2-4.2 7.9-4.6 7.7-4.9 7.5-5.4 7.1-5.6 6.9-6 6.6-6.3 6.3-6.7 6-6.9 5.6-7.2 5.3-7.4 4.9-7.8 4.5-7.9 4.2-8.3 3.8-8.4 3.4-8.6 3-8.9 2.5-9h-32.2l-3.1 9.1-3.7 8.9-4.1 8.6-4.7 8.3-5.1 7.9-5.6 7.7-6 7.3-6.4 6.9-6.9 6.5-7.2 6.1-7.5 5.7-7.9 5.3-8.3 4.7-8.5 4.3-8.8 3.8-9.1 3.2-9.3 2.7-9.5 2.1-9.8 1.6-9.9 0.9-10.1 0.3-10.7-0.4-10.5-1-10.3-1.7-10.1-2.4-9.8-3-9.6-3.7-9.1-4.2-8.9-4.8 8.5 1.8 8.6 1.4 8.8 0.8 9 0.3 9.7-0.3 9.5-1 9.3-1.6 9.1-2.1 8.9-2.8 8.6-3.3 8.3-3.9 8-4.3 7.7-4.9 7.3-5.3 7-5.8 6.7-6.2 6.2-6.6 5.7-7 5.4-7.4 4.8-7.7 4.4-8 3.9-8.3 3.3-8.6h-33.4l-4.4 8.5-5.2 8.1-5.8 7.6-6.4 7-7 6.5-7.5 5.9-8 5.2-8.4 4.5-8.9 3.8-9.3 3-9.5 2.2-9.9 1.4-10.1 0.4-10-0.4-9.7-1.3-9.4-2.1-9.1-3-8.7-3.6-8.4-4.4 2.5 0.2 2.5 0.2 2.5 0.1h2.5l9.6-0.5 9.3-1.4 9.1-2.3 8.8-3.2 8.3-4 8-4.7 7.5-5.5 6.9-6.2 6.3-6.8 5.6-7.3 5-8h-38.6l-7.7 6.5-8.6 5.2-9.3 3.9-9.9 2.4-10.3 0.9-9.6-0.7-9.2-2.1-8.7-3.3-8-4.5-7.3-5.5-6.4-6.4-5.6-7.4-4.4-8-3.3-8.7-2.1-9.2-0.7-9.6 0.7-9.7 2.1-9.2 3.3-8.7 4.4-8 5.6-7.3 6.4-6.4 7.3-5.6 8-4.4 8.7-3.3 9.2-2.1 9.6-0.7 10.1 0.8 9.5 2.2 9 3.6 8.3 4.8 7.4 5.9 6.5 7 5.5 7.8 4.3 8.6 3 9.2h-63.6v31h96.4v-15.5l-0.4-9.2-1.3-9.1-2.1-8.7-2.9-8.4-3.7-8.1-4.3-7.6-5-7.2-5.6-6.7-6.1-6.2-6.7-5.5-7.2-5-7.6-4.3-8.1-3.7-8.4-2.9-8.7-2.1-9-1.3-9.3-0.4h-2.6l-2.5 0.1-2.5 0.1-2.4 0.3 8.3-4.4 8.8-3.7 9.1-2.9 9.4-2.1 9.7-1.3 9.9-0.5 9.6 0.4 9.3 1.2 9 2 8.8 2.7 8.4 3.4 8.2 4 7.7 4.7 7.2 5.2 6.9 5.8 6.3 6.3 5.8 6.9 5.2 7.2 4.7 7.7 4 8.1 3.4 8.5 2.7 8.8 1.9 9 1.2 9.3 0.4 9.6v3.9l-0.2 3.9-0.4 3.9-0.5 3.9h31.3l0.3-3.9 0.3-3.9 0.2-3.9v-3.9l-0.3-9.3-0.9-9.2-1.5-9-2-8.7-2.5-8.6-3.1-8.3-3.6-8.1-4-7.8-4.5-7.5-5-7.2-5.3-6.9-5.8-6.5-6.2-6.2-6.5-5.8-6.8-5.3-7.3-5-7.5-4.5-7.7-4-8.1-3.6-8.3-3.1-8.6-2.5-8.8-2-8.9-1.5-9.2-0.9-9.3-0.3-9 0.3-8.9 0.8-8.6 1.4-8.5 1.9 8.9-4.8 9.2-4.2 9.5-3.6 9.8-3.1 10.1-2.4 10.3-1.7 10.5-1.1 10.7-0.3 9.6 0.3 9.5 0.8 9.4 1.4 9.1 2 8.9 2.4 8.7 3 8.5 3.5 8.3 3.9 8 4.4 7.6 4.8 7.4 5.2 7.1 5.6 6.7 6 6.4 6.4 6 6.7 5.6 7.1 5.2 7.4 4.8 7.7 4.4 7.9 3.9 8.3 3.5 8.5 2.9 8.7 2.5 9 2 9.1 1.4 9.3 0.8 9.5 0.3 9.7v3.9l-0.1 3.9-0.3 3.9-0.3 3.8h31.1l0.2-3.8 0.3-3.9 0.1-3.9v-3.9l-0.2-9.5-0.7-9.3-1.2-9.2-1.5-9.1-2-8.9-2.4-8.7-2.8-8.6-3.2-8.4-3.6-8.2-3.9-8-4.4-7.7-4.6-7.6-5-7.3-5.4-7.1-5.6-6.8-5.9-6.5-6.3-6.2-6.5-6-6.8-5.6-7-5.4-7.3-5-7.6-4.6-7.7-4.3-8-4-8.2-3.6-8.4-3.2-8.6-2.8-8.7-2.4-8.9-2-9.1-1.6-9.2-1.1-9.3-0.7z"/>
		<path id="Layer" fill-rule="evenodd" class="s1" d="m668 299.1h-164.5v-220.9h164.1v32.1h-128.8v62.2h118.9v31.6h-118.9v62.9h129.2zm181.8 0.2h-34.6v-92.1l-0.9-10.9-2.7-9.7-4.3-8.3-5.9-6.6-7.1-5-8.5-3.1-9.5-1.1-8.5 0.6-7.8 1.9-7.2 3-6.3 4.2-5.5 5.4-4.7 6.7-3.7 8-2.8 9.2-1.7 10.4-0.5 11.8v75.6h-34.3v-163.7h34.3v20.2l6-6.4 6.7-5.5 7.4-4.6 8.2-3.6 8.8-2.6 9.4-1.6 10.1-0.6 9.6 0.6 8.9 1.7 8.3 2.8 7.7 3.8 6.9 4.7 6.1 5.7 5.4 6.5 4.4 7.4 3.6 8 2.6 8.8 1.6 9.4 0.5 9.9zm110.7 0.1h-36.6l-70.2-164.1h37.3l51.4 123.1 51.4-123.1h37.2zm112.8-232.6l6.9 4.7 4.6 6.8 1.6 8.2-1.6 8.5-4.6 6.6-6.9 4.4-8.7 1.6-8.8-1.6-7-4.4-4.6-6.6-1.7-8.5 1.7-8.2 4.6-6.8 7-4.7 8.8-1.7zm-25.8 68.8h34.3v163.6h-34.3zm198.7 124.4l-2 8.2-3.3 7.3-4.4 6.5-5.5 5.7-6.6 4.9-7.6 4-8.5 3.1-9.3 2.3-10.1 1.3-10.8 0.5-10.8-0.5-10.4-1.4-9.7-2.3-9.1-3.4-8.2-4.3-7.2-5.3-6.2-6.3-4.9-7.3-3.6-8.3-2.1-9.4h36l4.3 7.6 6.5 5.8 8.1 4 9.6 2.3 10.7 0.8 10.9-1.1 9-2.9 6.7-4.6 4.2-6 1.4-7.2-1.3-6.8-4-5.4-6.9-4.2-9.8-3.1-35.6-7.2-11.4-3.2-9.8-4.3-8.2-5.4-6.5-6.4-4.7-7.4-2.9-8.5-0.9-9.4 0.7-8.8 2.2-8.2 3.6-7.5 4.9-6.8 6.2-5.9 7.3-5 8.4-4.1 9.5-3 10.4-1.8 11.4-0.6 10.8 0.6 10 1.6 9.3 2.7 8.4 3.7 7.5 4.5 6.6 5.4 5.6 6.1 4.5 6.8 3.6 7.3 2.4 7.9h-34.7l-5.2-7.9-7.7-6.1-10-3.9-12.1-1.3-13 1.7-9.1 4.6-5.2 6.9-1.7 8.2 1.1 6.3 3.3 5.2 6.2 4 9.1 3 38.9 8.5 10.7 3 9.3 4.2 7.8 5.3 6.3 6.4 4.6 7.5 2.8 8.4 1 9.4zm130.9 37l-10 3.9-9.7 2.1-9.9 0.7-9.3-0.5-8.7-1.5-8-2.5-7.3-3.4-6.5-4.5-5.7-5.4-4.7-6.5-3.8-7.5-2.7-8.5-1.7-9.5-0.6-10.5v-79.5h-35.3v-28.3h35.3v-50.8h34.3v50.8h56v28.3h-56v77.2l1.2 11 3.6 8.5 5.7 6.1 7.5 3.6 9 1.2 6.7-0.6 7.1-1.8 7.1-2.7 6.7-3.8 10.6 28.7zm188.4 2.2h-34.3v-18.8l-6.4 5.9-7.2 5.2-7.9 4.3-8.5 3.4-9.2 2.5-9.8 1.6-10.3 0.5-8.5-0.5-8.2-1.3-8.1-2.2-7.8-3.1-7.4-3.8-7-4.6-6.5-5.3-5.9-6.1-5.4-6.7-4.7-7.4-4-8-3.2-8.5-2.3-9.1-1.5-9.7-0.5-10.1 0.5-10 1.5-9.6 2.3-9.1 3.2-8.5 4-8 4.7-7.4 5.4-6.7 5.9-6.1 6.5-5.3 7-4.6 7.4-3.9 7.8-3.1 8.1-2.2 8.2-1.4 8.5-0.4 10.3 0.5 9.8 1.5 9.2 2.5 8.5 3.5 7.9 4.3 7.2 5.1 6.4 6v63l-0.7-9.9-2.3-9.1-3.5-8.3-4.6-7.3-5.5-6.4-6.5-5.3-7-4.2-7.6-3.1-7.9-1.9-8-0.6-8.8 0.6-8.3 1.9-7.7 3.1-7 4.2-6.1 5.3-5.3 6.4-4.3 7.3-3.2 8.3-2 9.1-0.7 9.9 0.7 10 2 9.1 3.2 8.3 4.3 7.3 5.3 6.3 6.1 5.3 7 4.2 7.7 3 8.3 1.9 8.8 0.6 8-0.6 7.9-1.9 7.6-3 7-4.2 6.5-5.3 5.5-6.3 4.6-7.3 3.5-8.3 2.3-9.1 0.7-10v-81.8h34.3c0-0.1 0 163.5 0 163.5z"/>
	</g>
</svg>