<?xml version="1.0" ?>
<!-- Created with Inkscape (http://www.inkscape.org/) -->
<svg xmlns="http://www.w3.org/2000/svg" xmlns:sodipodi="http://sodipodi.sourceforge.net/DTD/sodipodi-0.dtd" xmlns:inkscape="http://www.inkscape.org/namespaces/inkscape" viewBox="0 0 29.876899 16.476382" version="1.1" id="svg1346" inkscape:version="0.92.0 r15299" sodipodi:docname="epb.svg">
	<defs id="defs1340">
		<clipPath id="clipPath1105" clipPathUnits="userSpaceOnUse">
			<path inkscape:connector-curvature="0" id="path1103" d="m 36,156.797 h 83.94 v 45.955 H 36 Z"/>
		</clipPath>
	</defs>
	<sodipodi:namedview id="base" pagecolor="#ffffff" bordercolor="#666666" borderopacity="1.0" inkscape:pageopacity="0.0" inkscape:pageshadow="2" inkscape:zoom="8.0146126" inkscape:cx="55.960284" inkscape:cy="30.636469" inkscape:document-units="mm" inkscape:current-layer="layer1" showgrid="false" fit-margin-top="0" fit-margin-left="0" fit-margin-right="0" fit-margin-bottom="0" units="px" inkscape:window-width="1280" inkscape:window-height="744" inkscape:window-x="-4" inkscape:window-y="-4" inkscape:window-maximized="1"/>
	<g inkscape:label="Layer 1" inkscape:groupmode="layer" id="layer1" transform="translate(69.990571,-17.998496)">
		<g id="g1438" transform="translate(0.13229095,-0.13229077)">
			<path d="m -50.105724,29.752768 3.53e-4,-2.514247 h 4.243564 c 0,0 0.122061,-0.0074 0.215194,0.03069 0.05644,0.02293 0.0949,0.05468 0.111831,0.128764 0.0187,0.07973 -0.01411,0.138642 -0.09349,0.19932 -0.09913,0.0762 -0.249413,0.143933 -0.249413,0.143933 z" style="fill:#231f20;fill-opacity:1;fill-rule:nonzero;stroke:none;stroke-width:0.35277778" id="path1109" inkscape:connector-curvature="0"/>
			<path d="m -40.456863,27.432196 c -0.360186,2.302933 -1.946981,4.037542 -4.471105,4.046714 h -2.54882 z" style="fill:#231f20;fill-opacity:1;fill-rule:nonzero;stroke:none;stroke-width:0.35277778" id="path1113" inkscape:connector-curvature="0"/>
			<path d="m -50.105124,26.32899 0.0018,-6.584597 3.124553,-1.481314 0.0071,4.312003 c 0.554567,-0.505531 1.562453,-0.848784 2.393245,-0.848784 2.762955,0 4.177594,2.38372 4.199819,4.605161 l 3.53e-4,0.113595 C -40.616379,26.302179 -40.96316,26.32899 -40.96316,26.32899 Z" style="fill:#2c6ebf;fill-opacity:1;fill-rule:nonzero;stroke:none;stroke-width:0.35277778" id="path1117" inkscape:connector-curvature="0"/>
			<path d="m -60.095226,26.779099 -0.0021,-2.211211 6.254397,0.12065 c 0.03881,0 0.07267,0.01129 0.07267,0.0381 0,0.02293 -0.01235,0.03492 -0.04339,0.04551 l -0.03528,0.01094 -6.046258,1.881011 c 0,0 -0.171803,0.04198 -0.200025,0.115006" style="fill:#231f20;fill-opacity:1;fill-rule:nonzero;stroke:none;stroke-width:0.35277778" id="path1121" inkscape:connector-curvature="0"/>
			<path d="m -59.775503,27.23838 h 9.235016 l 0.05786,0.0042 c -0.302331,2.40277 -1.91523,4.235803 -4.520142,4.235803 -0.74048,0 -1.464733,-0.180622 -2.06375,-0.487892 l 0.0035,2.047875 -3.025069,1.436511 -0.0067,-7.313788 c 0.07408,0.08714 0.319264,0.07726 0.319264,0.07726" style="fill:#231f20;fill-opacity:1;fill-rule:nonzero;stroke:none;stroke-width:0.35277778" id="path1125" inkscape:connector-curvature="0"/>
			<path d="m -50.43109,26.331353 -4.302125,-0.0025 c 0,0 -0.212725,0.01058 -0.263525,-0.107598 -0.05962,-0.139347 0.06385,-0.219427 0.06385,-0.219427 l 0.07796,-0.03704 4.116211,-1.379361 c 0.198614,0.561269 0.301272,1.158169 0.307622,1.743428 z" style="fill:#2c6ebf;fill-opacity:1;fill-rule:nonzero;stroke:none;stroke-width:0.35277778" id="path1129" inkscape:connector-curvature="0"/>
			<path d="m -60.097731,24.039321 -0.0021,-2.313517 c 0,0 5.008386,-0.02117 5.468761,3.53e-4 1.791759,0 3.016603,1.002595 3.662186,2.313164 z" style="fill:#2c6ebf;fill-opacity:1;fill-rule:nonzero;stroke:none;stroke-width:0.35277778" id="path1133" inkscape:connector-curvature="0"/>
			<path d="m -60.453577,27.633527 h -6.502047 c 0.222955,0.919692 0.959908,1.609019 1.982964,1.609019 0.661458,0 1.135944,-0.236713 1.474964,-0.855838 h 2.966861 c -0.49142,2.203097 -2.441223,3.203574 -4.424539,3.203574 -2.882195,0 -5.035197,-1.747308 -5.035197,-4.968874 0,-0.839259 0.144286,-1.588559 0.41028,-2.235553 l 8.809567,0.16898 c 0.208844,0.586317 0.31503,1.195917 0.353836,1.978731 0.03493,0.70485 -0.03669,1.099961 -0.03669,1.099961" style="fill:#231f20;fill-opacity:1;fill-rule:nonzero;stroke:none;stroke-width:0.35277778" id="path1137" inkscape:connector-curvature="0"/>
			<path d="m -69.420941,24.039321 c 0.783167,-1.5367 2.31775,-2.405239 4.244975,-2.405239 2.002367,0 3.444875,0.881592 4.188883,2.405239 z" style="fill:#2c6ebf;fill-opacity:1;fill-rule:nonzero;stroke:none;stroke-width:0.35277778" id="path1141" inkscape:connector-curvature="0"/>
			<path d="m -41.171627,30.813818 v -0.145344 h 0.137583 c 0.06103,0 0.126648,0 0.126648,0.06562 0,0.06421 -0.02505,0.08114 -0.09525,0.07973 z m 0,0.116769 h 0.09243 l 0.140405,0.261409 h 0.160867 l -0.154517,-0.261409 c 0.112184,-0.01376 0.173214,-0.06068 0.173214,-0.178152 0,-0.06526 -0.01693,-0.13582 -0.07479,-0.17145 -0.04692,-0.02822 -0.117122,-0.02999 -0.171802,-0.02999 h -0.306212 v 0.640997 h 0.140406 z m 0.106186,-0.473075 c 0.226836,0 0.431447,0.179564 0.431447,0.431448 0,0.249766 -0.204611,0.430741 -0.431447,0.430741 -0.229658,0 -0.431094,-0.180975 -0.431094,-0.430741 0,-0.251884 0.201436,-0.431448 0.431094,-0.431448 m 0,1.01847 c 0.322086,0 0.587728,-0.264231 0.587728,-0.587022 0,-0.323498 -0.265642,-0.587728 -0.587728,-0.587728 -0.324555,0 -0.587375,0.26423 -0.587375,0.587728 0,0.322791 0.26282,0.587022 0.587375,0.587022" style="fill:#231f20;fill-opacity:1;fill-rule:evenodd;stroke:none;stroke-width:0.35277778" id="path1145" inkscape:connector-curvature="0"/>
		</g>
	</g>
</svg>