<?xml version="1.0" encoding="utf-8"?>
<!-- Generator: Adobe Illustrator 27.7.0, SVG Export Plug-In . SVG Version: 6.00 Build 0)  -->
<svg version="1.1" xmlns="http://www.w3.org/2000/svg"  x="0px" y="0px"
	 viewBox="0 0 900 306.6" style="enable-background:new 0 0 900 306.6;" xml:space="preserve">

<g id="Isolation_Mode">
	<g>
		<g>
			<g>
				<g>
					<polygon points="170.4,169.2 177.6,128.5 103.7,128.5 59.2,128.5 52.1,169.2 96.5,169.2 					"/>
					<g>
						<path d="M338.4,128.5h-45.3c-3.2,10-13.2,16.6-25.8,16.6H246l2.9-16.6h-44.7l-7.2,40.7h116.3
							C326.2,159.3,335,145.3,338.4,128.5"/>
						<path d="M382.8,150.3l0.1-0.4c1.4-7.8,4.4-15.1,8.6-21.3h-48.7c-2.7,6.4-4.7,13.1-5.9,20.1l-0.1,0.4
							c-1.2,6.9-1.6,13.7-1.2,20.2h47.8C381.8,163.4,381.6,157,382.8,150.3"/>
						<path d="M513.4,149.8c1.3-7.3,1.7-14.5,1.2-21.3h-48.1c1.8,6,2.2,12.8,0.9,20.1l-0.1,0.4c-1.3,7.4-4.1,14.2-7.9,20.2h48.5
							c2.4-6.1,4.3-12.4,5.4-18.9L513.4,149.8z"/>
						<path d="M518.6,148.5l-0.1,0.4c-1.2,6.9-1.6,13.7-1.3,20.2h47.7c-1.4-5.8-1.6-12.2-0.4-18.9l0.1-0.4c1.4-7.8,4.4-15,8.6-21.3
							h-48.9C521.7,134.9,519.8,141.6,518.6,148.5"/>
						<polygon points="827.6,128.5 684.8,128.5 677.7,169.2 820.4,169.2 						"/>
						<polygon points="40.8,232.8 170.4,232.8 177.5,192.1 92.5,192.1 95.3,175.9 50.9,175.9 						"/>
						<polygon points="107.5,106.7 191.5,106.7 198.7,66 70.3,66 60.4,121.8 104.9,121.8 						"/>
						<path d="M185.9,232.8h44.7l8.3-47h22c15.9,0,30.2-3.5,42.1-9.9H195.9L185.9,232.8z"/>
						<path d="M252.7,107.2h22.4c7.9,0,13.6,1.9,16.6,5.5c1.9,2.3,2.7,5.3,2.5,9.2h45.2c1.7-15-1.6-28-9.8-37.8
							C319.8,72.2,303.9,66,283.5,66h-68.2l-9.8,55.8h44.7L252.7,107.2z"/>
						<path d="M416.6,193.6c-11.2,0-20.4-4-26.7-11.4c-1.6-1.9-3-4.1-4.1-6.3h-49.6c1.9,12.9,7,24.7,15.1,34.4
							c13.6,16.3,34.7,25.2,59.2,25.2c40,0,77.2-24.7,94.3-59.6h-50.6C444.7,186.8,431.1,193.6,416.6,193.6"/>
						<path d="M433.5,105.2c11.2,0,20.4,3.9,26.7,11.4c1.3,1.6,2.5,3.4,3.5,5.2h50.1c-2-12.5-7-23.8-14.9-33.2
							c-13.6-16.3-34.7-25.2-59.2-25.2c-39.5,0-76.4,24.2-93.8,58.5h51C406.3,111.5,419.5,105.2,433.5,105.2"/>
						<path d="M613.7,105.2c12.9,0,22.8,4.8,33.3,16.1l3.5,3.7l33.5-32.1l-3-3.6c-15.1-18-34-26-61.4-26
							c-39.5,0-75.3,23.8-92.2,58.5h51.2C587.7,111.6,600.4,105.2,613.7,105.2"/>
						<path d="M637.6,176.3c-14,11-25.2,17.3-41.3,17.3c-10.3,0-18.9-3.7-24.8-10.7c-1.8-2.1-3.2-4.5-4.4-7.1h-49.3
							c1.8,13.3,7,25.3,15.2,35.2c13.2,15.8,33.3,24.4,56.5,24.4c35.3,0,56.5-14.8,72.5-29.3l3.6-3.2l-24.2-29.7L637.6,176.3z"/>
						<polygon points="666.4,232.8 711.1,232.8 721.1,175.9 676.5,175.9 						"/>
						<polygon points="740.5,66 695.8,66 686,121.8 730.7,121.8 						"/>
						<polygon points="764.5,232.8 809.2,232.8 819.2,175.9 774.5,175.9 						"/>
						<polygon points="838.6,66 793.9,66 784.1,121.8 828.7,121.8 						"/>
					</g>
				</g>
			</g>
			<g>
				<g>
					<path d="M859.5,47.5c-5.6,0-10.2,4.6-10.2,10.2c0,5.6,4.6,10.2,10.2,10.2c5.6,0,10.2-4.6,10.2-10.2
						C869.7,52,865.2,47.5,859.5,47.5z M859.5,65.8c-4.5,0-8.1-3.6-8.1-8.1c0-4.5,3.6-8.1,8.1-8.1s8.1,3.6,8.1,8.1
						C867.7,62.2,864,65.8,859.5,65.8z"/>
					<g>
						<path d="M854.6,52h5.2c1.4,0,2.6,0.4,3.3,1.2c0.6,0.6,1,1.5,1,2.6v0c0,1.8-1,3-2.4,3.5l2.8,4h-2.9l-2.4-3.6h-2v3.6h-2.5V52z
							 M859.6,57.5c1.2,0,1.9-0.6,1.9-1.6v0c0-1.1-0.7-1.6-2-1.6h-2.5v3.3H859.6z"/>
					</g>
				</g>
			</g>
		</g>
	</g>
</g>
</svg>
