<svg xmlns="http://www.w3.org/2000/svg" viewBox="0 0 212 248.5">
 <g transform="matrix(1.3333 0 0 -1.3333 -566.66 624.35)">
  <g>
   <path d="m503.64 467.38c-43.069 0-77.982-37.966-77.982-84.798 0-1.7184 0.06029-3.4218 0.15088-5.1108h1.853v-86.717h-1.8604v-8.2471h157.36v8.2471h-3.019v86.717h1.3286c0.0974 1.689 0.15088 3.3924 0.15088 5.1108 0 46.832-34.907 84.798-77.978 84.798z" fill="#b8a46a"/>
   <path d="m573.43 377.47c0.13358 1.929 0.2015 3.8806 0.2015 5.8526 0 42.016-31.323 76.075-69.962 76.075-38.641 0-69.964-34.058-69.964-76.075 0-1.972 0.0679-3.9236 0.20377-5.8526h-3.4572v-85.122h146.9v85.122z" fill="#6F1931"/>
   <path d="m524.74 437.69 27.327-20.161-1.3426-17.698 0.44375-2.4633 6.0496-4.0323 0.33508-4.2587-2.3456-4.9243-4.707-26.437-1.5667-18.592-87.59-0.44828-2.7486 17.392 0.086 1.5962-7.3106 35.113-0.11094 1.012 7.3922 4.6979 0.78563 19.541 22.964 17.2 0.67016 3.1357z" fill="#fff"/>
  </g>
  <path d="m496.29 374.3h17.479v-34.497h-17.922z" fill="none" stroke="#b8a46a" stroke-width="1.1411"/>
  <path d="m484.5 440.7c-1.9519 0.0134-3.649-1.0606-3.167-5.1211l-20.432-16.381c-2.8068 0.72832-12.499 2.406-4.8149-11.801v-9.8672l-4.8193-3.7398 0.11133-1.0093 29.911 22.737 44.577 0.21973 30.913-23.295-0.8335-1.0957-0.0615 0.0879-30.243 22.849h-44.353l-28.396-22.263-0.94922 1.1499-0.56397-0.39111 6.9756-35.114-0.92871 30.409 1.957 0.51563-1.6157-48.791h-3.1392l-0.22412-4.7036h101.25v4.7036h-4.7109l-0.38672 16.597 7.0005 32.684v1e-3l-0.019 0.0264 0.0205-0.0264-0.11132 4.9321-4.7608 3.5186v9.1699c9.2925 16.335-3.8488 13.3-3.8642 13.296l-21.259 15.946c0.74165 8.204-8.0142 3.3018-8.0142 3.3018 0.42835-0.01 0.81705-0.0426 1.1719-0.0937h-32.215l-0.94336-0.10547c0.49416 0.1137 1.07 0.18432 1.7402 0.19922 0 0-2.5682 1.4393-4.8047 1.4546zm39-3.0073c0.49663-0.76369 0.53186-1.7229 0.34716-2.6777v1.1162h-38.94c0.0129 0.47484 0.10888 0.92984 0.31934 1.3389h38.229zm-38.438-2.9165h38.732c-0.12472-0.54103-0.31155-1.0742-0.52002-1.5644h-37.693c-0.20838 0.49011-0.39387 1.0236-0.51855 1.5644zm42.278-0.37646 22.494-16.419 0.15088 0.45411c0.58342-1.0118 0.73228-1.8782 0.62988-2.6118l-23.577 17.246c0.12111 0.47167 0.22078 0.9132 0.30176 1.3316zm-45.788-0.17139c0.0644-0.3177 0.1403-0.65158 0.22705-0.99902l-22.109-18.264c-0.0442 0.81791 0.0842 1.6831 0.53321 2.4888zm0.50977-2.0449c0.10163-0.35035 0.21105-0.71041 0.33398-1.0884l0.3208-0.0132-0.0864-0.10694-22.523-18.064c-0.10498 0.29418-0.20467 0.61429-0.28272 0.9624zm44.695-0.12891 23.303-16.985 0.51416 0.51416c-0.15692-0.70746-0.54843-1.2799-0.99755-1.727l-23.042 17.118-0.14062 0.11719 0.0674 3e-3c0.10808 0.332 0.20431 0.64883 0.2959 0.95947zm-39.422-2.2002h34.274v-12.97l-34.274 0.16846zm37.181-0.3252 23.174-16.91c-4e-3 -2e-3 -0.0381-0.0161-0.0381-0.0161l0.50684-0.81885v-10.906l-21.624 15.983-2.0186 0.0103zm-40.094-0.55224v-11.909l-3.1333 0.0146-20.5-15.905v9.6914l0.11279-0.28125zm2.9136-21.412h34.608v-67.767h-14.887l4.9189 0.81592v21.362h-5.5986v-22.178h-19.042zm11.424-67.767 5.6016 0.92871v21.362h-5.6016zm27.215 64.756 19.378-14.474v-50.282h-7.7842v10.644l-4.0312 2.688-0.16113-13.332h-1.686v14l-1.1821 0.84375-0.16113-14.843h-4.3726zm-42.677-0.0454v-64.711h-8.0347l0.11572 14.001-3.4732-2.0171v-11.984h-8.0976v49.956zm66.555-17.786 1.6641-0.99903 0.12452-0.0132-1.1001-28.626zm-72.602-2.0083v-27.05l1.2612 0.66943-0.085 26.38zm53.257-0.67383v-3.8628h1.1821v3.8628zm-55.166-0.84229s-3.4076-0.16124-3.6255-5.2881l-7e-3 -3e-3v-0.20801c-3.4e-4 -0.0138-1e-3 -0.0272-1e-3 -0.041h1e-3v-22.934l3.8101 2.0977 0.0527 22.428-0.62403-0.2168 0.51123 0.2168zm58.195-0.66943-0.0835-3.9463 2.7744-1.5981c-0.086 5.3771-2.6909 5.5444-2.6909 5.5444zm-3.0293-5.8799-0.0791-18.23 1.2612-0.7544v18.984zm3.1948-1.3447-0.33545-18.645 4.3726-3.5317v19.935zm-55.276-19.994-1.1763-0.84229v-14.109h1.3462zm7.1894-33.954c-4.2564 0-6.4072-2.4444-6.4072-5.3379 0-2.6172 1.9197-4.3862 4.1045-5.6133l1.251-0.70166c2.1871-1.2226 2.9692-2.5645 2.9692-4.2173 0-1.7818-1.2517-3.123-3.4614-3.123-2.8572 0-4.4267 3.1226-4.9497 4.6011-0.2332 0.20377-0.7332 0.17488-0.90527-0.11718-0.0272-1.7999 0.34618-3.8088 0.87597-4.4224 0.58186-0.35093 2.0969-1.2246 4.7798-1.2246 4.2179 0 6.7471 2.3586 6.7471 5.6777 0 2.9433-2.0947 4.7557-3.9829 5.7451l-1.8091 0.95655c-1.9199 1.0166-2.7656 2.3251-2.7656 3.5522 0 1.5441 0.96113 3.0571 3.2886 3.0571 2.4746 0 3.4916-1.9474 3.9331-3.4644 0.26263-0.20147 0.78595-0.17914 0.93311 0.0835 0 1.372-0.29387 3.2925-0.61084 3.9287-1.3675 0.27395-2.4778 0.61963-3.9902 0.61963zm-48.259-0.38086c-0.23323-0.11773-0.26009-0.63918-0.0586-0.84521l0.46582-0.0557c1.3698-0.19924 1.6333-0.28602 1.6333-3.3765v-10.837c0-3.0904-0.26355-3.175-1.6333-3.3267l-1.0781-0.11132c-0.20147-0.20376-0.17314-0.72908 0.0601-0.84229 1.3086 0.0589 3.0898 0.085 4.3667 0.085h3.3208c3.4051 0 5.9095-0.0261 7.1909-0.085 0.41206 0.7811 1.0516 3.0007 1.2305 4.2188-0.17886 0.29206-0.66821 0.38021-0.93311 0.17871-1.0233-2.3637-1.6596-3.2084-5.3613-3.145-2.4474 0-2.9435 0.23328-3.2944 0.64307-0.43473 0.48451-0.48926 1.5373-0.48926 3.0293v3.6943c0 0.72676 0.0271 0.78369 0.69727 0.78369h1.3945c2.538 0 3.029-0.0562 3.2373-1.2788l0.20507-1.1631c0.23093-0.18113 0.78301-0.18113 0.93018 0.0249-0.0272 0.93279-0.0879 1.958-0.0879 3.0674 0 1.0777 0.0607 2.1206 0.0879 2.9062-0.14717 0.23316-0.69925 0.23306-0.93018 0.0293l-0.20507-0.9917c-0.2083-1.2543-0.6993-1.2832-3.2373-1.2832h-1.3945c-0.67013 0-0.69727 0.0298-0.69727 0.78369v4.9248c0 1.6641-2.4e-4 1.7183 1.2495 1.7183h1.9526c0.78563 0 1.6596-0.0554 2.332-0.26367 0.93053-0.23093 1.364-0.96172 1.8281-2.6484 0.23546-0.1766 0.82058-0.11135 0.93604 0.11279-0.17659 1.2588-0.35115 3.5597-0.46436 4.0532-0.38036-0.0521-2.069-0.0952-3.9346-0.0952h-5.5635c-1.2769 0-2.6487 0.0431-3.7559 0.0952zm25.699 0c-2.3886 0-4.8603-0.0947-6.6987-0.2622-0.23547-0.14037-0.23599-0.61375-0.0322-0.81299l0.76318-0.0864c1.363-0.14716 1.396-0.49765 1.396-3.2915v-10.663c0-3.0904-0.26367-3.1735-1.6289-3.3501l-0.64307-0.0864c-0.26263-0.20376-0.17527-0.72908 0.0557-0.84229 1.3403 0.0589 2.6532 0.085 3.9302 0.085 1.286 0 2.596-0.0261 3.8774-0.085 0.23319 0.11321 0.26233 0.63853 0.0586 0.84229l-0.646 0.0864c-1.3652 0.17659-1.6304 0.25966-1.6304 3.3501v3.728c0 0.61356 0.0365 0.6416 0.9082 0.6416 0.95543 0 1.2796-0.11231 1.8003-0.99756 0.70412-1.123 1.5186-2.7258 2.3042-3.9507 1.7795-2.7101 3.2948-3.8496 6.0864-3.8496 1.0211 0 1.5753 0.0883 1.9263 0.17431 0.0815 0.14943 0.0813 0.46981-0.0659 0.58301-0.3464 0.0317-1.188 0.20728-2.0054 0.90235-1.3675 1.1388-2.8236 3.6158-5.1533 7.5439-0.11547 0.17886-0.17434 0.40988 0 0.49365 1.4264 0.58186 3.4907 1.9226 3.4907 4.6055 0 2.092-1.0745 3.4676-2.562 4.251-1.2837 0.69733-3.2581 0.99023-5.5312 0.99023zm32.297 0c-0.23096-0.11773-0.26236-0.63772-0.0586-0.84375l0.55811-0.0864c1.3607-0.1698 1.6245-0.25527 1.6245-3.3457v-10.838c0-3.0904-0.26382-3.1748-1.6245-3.3809l-0.41162-0.0557c-0.20373-0.14943-0.1746-0.72908 0.0586-0.84228 1.0437 0.0589 2.421 0.0835 3.7002 0.0835s2.5859-0.0246 3.9624-0.0835c0.23323 0.1132 0.26235 0.69285 0.0586 0.84228l-0.72656 0.085c-1.372 0.1766-1.6333 0.26113-1.6333 3.3516v3.6987c0 0.84449-0.0602 1.5396 0.6665 1.5396 0.25811 0 0.49271-0.2253 0.69874-0.4336 1.0845-1.1049 4.5421-5.8258 5.7715-7.3359 0.31696-0.41206 0.25759-0.70262-0.20654-0.79542l-0.78809-0.10986c-0.26267-0.14943-0.26225-0.72908 0.0615-0.84228 1.2769 0.0589 2.5904 0.0835 4.0122 0.0835 1.5441 0 2.7129-0.0246 3.7295-0.0835 0.2377 0.0838 0.26436 0.69285 0.0674 0.84228l-0.70166 0.085c-0.87619 0.11773-1.5516 0.38146-2.1606 1.106-2.092 2.4474-4.8583 5.9173-7.1631 8.9443-0.31927 0.4347-0.25998 0.6132 0.0864 0.95507 1.1388 1.1411 2.304 2.3301 3.5537 3.5889 2.0082 1.9494 2.7969 2.6475 5.5093 3.0278 0.2853 0.1449 0.22548 0.74865-0.0937 0.84375-1.0483-0.0294-1.9487-0.0952-3.2007-0.0952-1.08 0-2.0448 0.0431-3.2651 0.0952-0.23093-0.23773-0.28433-0.63772-0.0557-0.84375l0.90087-0.25634c0.35093-0.086 0.32085-0.32087-0.20214-0.98877-0.34867-0.47092-1.1928-1.4317-1.5776-1.812l-2.9663-3.2036c-0.96222-1.0483-1.6294-1.7212-2.1841-1.7212-0.4619 0-0.49219 0.53073-0.49219 1.3096v3.2402c0 3.0904 0.26129 3.1759 1.6333 3.3457l0.49072 0.0864c0.20147 0.1449 0.17687 0.72602-0.0586 0.84375-1.1411-0.0521-2.4474-0.0952-3.7266-0.0952-1.3403 0-2.6558 0.0431-3.8467 0.0952zm22.027 0c-0.23093-0.11773-0.25862-0.63918-0.0571-0.84521l0.64306-0.085c1.3675-0.1698 1.6304-0.25673 1.6304-3.3472v-10.838c0-3.0904-0.26288-3.1735-1.6304-3.3501l-0.64306-0.0864c-0.2015-0.20376-0.17381-0.72908 0.0571-0.84229 1.286 0.0589 2.6575 0.085 3.939 0.085 1.2792 0 2.5879-0.0261 3.8716-0.085 0.22643 0.11321 0.26103 0.63853 0.0527 0.84229l-0.63868 0.0864c-1.3652 0.17659-1.6289 0.25966-1.6289 3.3501v10.838c0 3.0904 0.26368 3.1774 1.6289 3.3472l0.63868 0.085c0.20826 0.20603 0.17366 0.72748-0.0527 0.84521-1.2837-0.0521-2.5924-0.0952-3.8716-0.0952-1.3403 0-2.653 0.0431-3.939 0.0952zm11.867 0c-0.29433-0.0951-0.31868-0.67248-0.11718-0.84228l0.44091-0.0894c0.40526-0.0838 1.2202-0.32331 1.544-0.58593 0.98714-0.83997 0.95508-1.307 0.95508-3.5801v-6.9009c0-2.3025 8.4e-4 -4.838-0.375-5.7436-0.20603-0.46187-0.72692-0.57758-1.2861-0.66358l-0.63134-0.14502c-0.23549-0.20603-0.18126-0.70564 0.0542-0.84375 1.0166 0.0589 1.8038 0.0835 3.0264 0.0835 1.1094 0 2.2393-0.0246 3.3237-0.0835 0.29206 0.0838 0.32202 0.63772 0.0571 0.84375l-0.64306 0.085c-0.72676 0.12-1.2273 0.29573-1.4854 0.72364-0.4981 0.88297-0.52295 3.5588-0.52295 5.7436v5.6792c0 1.5396 2.2e-4 1.8647 0.0908 1.8647 0.49583-0.43697 1.4198-1.5457 3.3193-3.6694l6.8159-7.7812c2.0897-2.384 2.9343-3.3754 3.3984-3.9844 0.35998-0.0294 0.76596 0.0835 0.99463 0.40723-0.0883 0.66563-0.0894 4.2509-0.0894 5.1226l1e-3 6.9653c0 2.298-4.4e-4 4.8338 0.41162 5.7349 0.19471 0.47318 0.69708 0.58343 1.2495 0.66943l0.66797 0.14795c0.23547 0.20376 0.17607 0.69738-0.0571 0.84228-1.0483-0.0498-1.8012-0.0952-3.0601-0.0952-1.132 0-2.2145 0.0454-3.3442 0.0952-0.2921-0.0951-0.31896-0.63852-0.0586-0.84228l0.66943-0.0894c0.72676-0.12 1.1905-0.29106 1.4531-0.72802 0.52068-0.87845 0.5625-3.5568 0.5625-5.7349v-5.6807c0-0.47092-1e-5 -0.6165-0.0996-0.6958-0.29206 0.16528-2.9976 3.2578-4.2202 4.5981l-2.9077 3.1494c-1.0256 1.098-4.1969 4.7691-4.6904 6.0234-0.69733-0.0498-1.397-0.0952-2.0083-0.0952-0.7245 0-2.3346-0.0225-3.4395 0.0952zm25.727 0c-0.23772-0.11773-0.26396-0.63918-0.0557-0.84521l0.46582-0.0557c1.372-0.19924 1.6318-0.28602 1.6318-3.3765v-10.837c0-3.0904-0.25983-3.175-1.6318-3.3267l-1.0781-0.11132c-0.20827-0.20376-0.17594-0.72908 0.0527-0.84229 1.3132 0.0589 3.0964 0.085 4.3711 0.085h3.3237c3.4029 0 5.9096-0.0261 7.1865-0.085 0.41432 0.7811 1.0531 3.0007 1.2319 4.2188-0.17886 0.29206-0.67566 0.38021-0.93603 0.17871-1.0166-2.3637-1.6589-3.2084-5.3584-3.145-2.4474 0-2.9406 0.23328-3.2915 0.64307-0.43695 0.48451-0.49365 1.5373-0.49365 3.0293v3.6943c0 0.72676 0.0308 0.78369 0.69873 0.78369h1.4004c2.5267 0 3.0246-0.0562 3.2329-1.2788l0.20069-1.1631c0.22867-0.18113 0.78074-0.18113 0.93017 0.0249-0.034 0.93279-0.0893 1.958-0.0893 3.0674 0 1.0777 0.0553 2.1206 0.0893 2.9062-0.14943 0.23316-0.7015 0.23306-0.93017 0.0293l-0.20069-0.9917c-0.20829-1.2543-0.70622-1.2832-3.2329-1.2832h-1.4004c-0.66789 0-0.69873 0.0298-0.69873 0.78369v4.9248c0 1.6641-2.4e-4 1.7183 1.2495 1.7183h1.9541c0.78788 0 1.6567-0.0554 2.3291-0.26367 0.93053-0.23093 1.3704-0.96172 1.8413-2.6484 0.22641-0.1766 0.81031-0.11135 0.92578 0.11279-0.17207 1.2588-0.35116 3.5597-0.46436 4.0532-0.38036-0.0521-2.0735-0.0952-3.9346-0.0952h-5.5635c-1.2746 0-2.6442 0.0431-3.7558 0.0952zm-91.572-1.1616c2.5357 0 4.0239-2.0152 4.0239-4.3154 0-2.7667-1.3109-4.1631-4.1704-4.1631-1.3969 0-1.3975 0.0651-1.3975 0.98877v6.0542c0 1.3426 0.0361 1.4355 1.544 1.4355z" fill="#b8a46a"/>
  <path d="m518.92 386.62c0-7.7974-6.3167-14.114-14.112-14.114-7.7952 0-14.114 6.3167-14.114 14.114 0 7.7952 6.319 14.11 14.114 14.11 7.7951 0 14.112-6.3144 14.112-14.11" fill="#fff"/>
  <g fill="none" stroke="#b8a46a">
   <path d="m518.92 386.62c0-7.7974-6.3167-14.114-14.112-14.114-7.7952 0-14.114 6.3167-14.114 14.114 0 7.7952 6.319 14.11 14.114 14.11 7.7951 0 14.112-6.3144 14.112-14.11z" stroke-miterlimit="10" stroke-width="1.1411"/>
   <g>
    <g stroke-width="1.1411">
     <path d="m518.92 386.62c0-7.7974-6.3167-14.114-14.112-14.114-7.7952 0-14.114 6.3167-14.114 14.114 0 7.7952 6.319 14.11 14.114 14.11 7.7951 0 14.112-6.3144 14.112-14.11z"/>
     <path d="m531.8 387.4s9.2985-1.7931 9.2985-17.698v-29.797"/>
     <path d="m477.14 388.08s-9.2962-1.8112-9.2962-17.884v-30.114"/>
    </g>
    <path d="m538.41 413.73s2.6897 4.4806 2.4633-2.2392l-0.22414-5.3794m-7.171 11.203s2.6897 4.4806 2.4701-2.2414l-0.22641-5.3771m-66.298 2.6897s-2.6874 4.4806-2.4633-1.5667l0.22414-5.3771m8.5153 12.095s-2.692 4.4806-2.4656-2.2392l0.22414-5.3749m8.0632 12.544s-2.6852 4.4806-2.4656-2.2392l0.22414-5.3794m48.15 6.9479s2.6874 4.4806 2.4656-2.2414l-0.22188-5.3794m-17.027 11.12c0 4.5621 3.4866 4.0232 3.4866 0l-0.26716-6.9756m-12.851 7.0283c0 4.4851 3.43 3.9553 3.43 0l-0.26263-6.8601m-12.13 6.7557c0 4.6323 3.5478 4.0866 3.5478 0l-0.27395-7.091" stroke-width=".57054"/>
    <path d="m504.8 396.92-0.22641-10.53 7.168-5.8232" stroke-width="1.1411"/>
   </g>
  </g>
 </g>
</svg>