<svg xmlns="http://www.w3.org/2000/svg" id="Layer_1" x="0" y="0" style="enable-background:new 0 0 850.4 283.5" version="1.1" viewBox="0 0 850.4 283.5" xml:space="preserve"><style>.st0{fill:#002554}.st1{fill:#316094}.st2{fill:#36b0c9}</style><path d="M365.3 150c0-5.6-4.6-10.2-10.2-10.2h-89.9c-11.2 0-20.3-8.8-20.3-20s9.1-20.3 20.3-20.3h34.1c2.7 0 4.9 2.2 4.9 4.9s-2.2 5-4.9 5h-34.1c-5.6 0-10.2 4.6-10.2 10.2s4.6 10.2 10.2 10.2h34.1c14 0 25.4-11.4 25.4-25.4 0-14-11.4-25.4-25.4-25.4h-34.1c-22.4 0-40.6 18.2-40.6 40.6 0 22.4 18.1 40.5 40.5 40.6H355c5.8 0 10.3-4.6 10.3-10.2z" class="st0"/><path d="M730.8 109.4h-34.3c-5.6 0-10.2 4.6-10.2 10.2s4.6 10.2 10.2 10.2h34.3c14 0 25.4-11.4 25.4-25.4 0-14-11.4-25.4-25.4-25.4h-34.1c-22.4 0-40.6 18.2-40.6 40.6 0 22.4 18.2 40.6 40.6 40.6H730.8c5.6 0 10.2-4.6 10.2-10.2s-4.6-10.2-10.2-10.2h-34.1c-11.2 0-20.3-8.8-20.3-20s9.1-20.3 20.3-20.3h34.1c2.7 0 4.9 2.2 4.9 4.9 0 2.8-2.2 5-4.9 5zM520.4 109.4h-34.1c-5.6 0-10.2 4.6-10.2 10.2s4.6 10.2 10.2 10.2h34.1c14 0 25.4-11.4 25.4-25.4S534.4 79 520.4 79h-34.1c-22.4 0-40.6 18.2-40.6 40.6 0 22.4 18.1 40.5 40.5 40.6h24c5.6 0 10.2-4.6 10.2-10.2s-4.6-10.2-10.2-10.2h-23.9c-11.2 0-20.3-8.8-20.3-20s9.1-20.3 20.3-20.3h34.1c2.7 0 4.9 2.2 4.9 4.9s-2.2 5-4.9 5z" class="st1"/><path d="M410.2 109.4H360c-2.7 0-4.9-2.2-4.9-4.9s2.2-4.9 4.8-5H411.2c5.6 0 10.2-4.6 10.2-10.2s-4.6-10.2-10.2-10.2H359.9c-14 .1-25.2 11.4-25.2 25.4 0 14 11.4 25.4 25.4 25.4h50.2c2.7 0 4.9 2.2 4.9 5 0 2.7-2.2 5-4.9 5h-24.4c-5.6 0-10.2 4.6-10.2 10.2s4.6 10.2 10.2 10.2H410.3c14 0 25.4-11.4 25.4-25.4-.1-14.1-11.4-25.5-25.5-25.5z" class="st0"/><path d="M580.7 129.8h25.1c5.6 0 10.2-4.6 10.2-10.2s-4.6-10.2-10.2-10.2h-25.1c-2.5 0-4.6-2.4-4.6-5V89.3c0-5.6-4.6-10.2-10.2-10.2s-10.2 4.6-10.2 10.2v15.1h.1c-.1 13.9 11.1 25.2 24.9 25.4z" class="st1"/><path d="M646.3 89.3c0-5.6-4.6-10.2-10.2-10.2s-10.2 4.6-10.2 10.2v30.3c0 11.2-9 20.1-20.2 20.1H540.5c-5.7 0-10.2 4.6-10.2 10.2 0 5.7 4.6 10.2 10.2 10.2h65.3c22.4 0 40.5-18.2 40.5-40.6V89.3z" class="st1"/><g><path d="M163.8 99.2c-5.7 0-10.2 4.6-10.3 10.2V150c0 5.7 4.6 10.2 10.3 10.2 5.7 0 10.2-4.6 10.3-10.2v-40.6c0-5.6-4.6-10.2-10.3-10.2zM133.3 119.5c-5.6 0-10.2 4.6-10.2 10.2V150c0 5.6 4.6 10.2 10.2 10.2s10.2-4.6 10.2-10.2v-20.3c.1-5.6-4.5-10.2-10.2-10.2z" class="st2"/><circle cx="102.9" cy="150" r="10.2" class="st2" transform="rotate(-67.5 102.903 149.992)"/><path d="M204.5 89.3c0-5.7-4.6-10.3-10.2-10.3s-10.2 4.6-10.2 10.2V150c0 5.6 4.6 10.2 10.2 10.2s10.2-4.6 10.2-10.2V89.3z" class="st2"/></g></svg>