<?xml version="1.0" ?>
<svg xmlns="http://www.w3.org/2000/svg" data-name="Layer 1" viewBox="0 0 437.1 81.2">
	<defs>
		<style>
      .cls-1 {
        fill: #000;
        stroke-width: 0px;
      }
    </style>
	</defs>
	<path class="cls-1" d="M341.1,8.6c-11.2-11.2-29.4-11.2-40.6,0-1.6,1.6-5,5.4-6.1,7.3,11.3-7,25.9-5.3,35.3,4.1,9.4,9.3,11.2,23.9,4.3,35.2l.4-.4c1.9-1.2,5.1-3.9,6.8-5.6,11.2-11.2,11.2-29.4,0-40.6M227.5,1.2v32.8h-39.4V1.2h-13.1v78.8h13.1v-32.8h39.4v32.8h13.1V1.2h-13.1ZM0,1.2v78.8h58.2v-13.1H13.1v-19.7h39.1v-13.1H13.1V14.3h45V1.2H0ZM83,1.2v13.1h26.3v65.7h13.1V14.3h26.3V1.2h-65.7Z"/>
	<path class="cls-1" d="M405.7,81.2c19.1,0,31.4-9.5,31.4-24.1s-9.6-18.7-25.2-22.2l-9.5-2.1c-8.6-1.9-13.2-4.1-13.2-10.3s5.9-10.4,15-10.4,16,3.2,20.7,8.7l9.9-8c-5.4-5.9-15.1-12.8-30.2-12.8s-29.5,9.7-29.5,23.1,12.5,20,23.5,22.3l10.6,2.3c8.4,1.8,13.9,4.3,13.9,10.5s-6,10.6-16.6,10.6-20.2-5.6-23.8-11.3l-10.9,7.8c5.6,7.7,17.4,15.8,33.9,15.8M292.5,57.3c-11.3-11.3-18.2-32-5.5-53.9l-5.9,5.9c-16.4,16.4-16.4,43,0,59.4,16.4,16.4,43,16.4,59.4,0l5.9-5.9c-20.9,12.1-41.7,6.8-53.9-5.5"/>
</svg>