<?xml version="1.0" ?>
<svg xmlns="http://www.w3.org/2000/svg" viewBox="0 0 32 32">
	<g fill="none">
		<circle cx="16" cy="16" r="16" fill="#00FFBA"/>
		<g fill="#FFF">
			<path d="M 10.871,10.904 A 1.707,1.707 0.0 0,0 10.677,13.052 A 1.693,1.693 0.0 0,0 12.097,13.808 A 2.1885,2.1885 0.0 0,1 12.096,18.185 A 6.086,6.086 0.0 0,1 7.819,7.767 A 6.084,6.084 0.0 0,1 16.0,7.425 A 6.085,6.085 0.0 0,0 13.818,12.098 A 2.188,2.188 0.0 0,0 15.993,14.287 A 2.188,2.188 0.0 0,1 13.805,12.098 A 1.69,1.69 0.0 0,0 13.515,11.143 A 1.727,1.727 0.0 0,0 12.761,10.521 A 1.723,1.723 0.0 0,0 11.431,10.521 A 1.714,1.714 0.0 0,0 10.871,10.904 L 10.871,10.904 M 25.511,17.532 A 6.094,6.094 0.0 0,1 24.269,24.145 A 6.084,6.084 0.0 0,1 13.819,19.902 A 2.188,2.188 0.0 1,1 18.194,19.902 A 1.7,1.7 0.0 0,0 19.239,21.479 C 19.669,21.659 20.152,21.657 20.58,21.474 A 1.721,1.721 0.0 0,0 21.485,20.556 A 1.717,1.717 0.0 0,0 20.569,18.326 A 1.694,1.694 0.0 0,0 19.904,18.192 A 2.1885,2.1885 0.0 0,1 19.904,13.815 A 6.081,6.081 0.0 0,1 25.51,17.532 L 25.511,17.532"/>
			<path d="M 15.994,17.714 C 17.202,17.714 18.182,18.694 18.182,19.902 A 6.085,6.085 0.0 0,1 7.715,24.128 A 6.087,6.087 0.0 0,1 12.096,13.815 A 2.1885,2.1885 0.0 0,1 12.096,18.192 C 11.756,18.191 11.424,18.292 11.142,18.482 A 1.726,1.726 0.0 0,0 10.52,19.237 A 1.71,1.71 0.0 0,0 10.866,21.089 L 10.866,21.091 A 1.706,1.706 0.0 0,0 13.05,21.321 A 1.7,1.7 0.0 0,0 13.805,19.901 C 13.805,18.694 14.785,17.714 15.994,17.714 L 15.994,17.714 M 25.32,9.318 A 6.09,6.09 0.0 0,1 19.903,18.186 A 2.189,2.189 0.0 0,1 19.903,13.808 A 1.71,1.71 0.0 0,0 21.48,12.763 A 1.721,1.721 0.0 0,0 21.426,11.319 A 1.705,1.705 0.0 0,0 18.949,10.679 A 1.698,1.698 0.0 0,0 18.193,12.099 A 2.188,2.188 0.0 1,1 13.818,12.098 A 6.085,6.085 0.0 0,1 23.535,7.212 L 23.539,7.215 A 6.103,6.103 0.0 0,1 25.319,9.318 L 25.32,9.318" opacity=".7"/>
		</g>
	</g>
</svg>