<?xml version="1.0" ?>
<svg xmlns="http://www.w3.org/2000/svg" viewBox="0 0 512 512" fill="none">
	

	<rect width="512" height="512" rx="8" fill="#288BE4"/>
	

	<path d="M201.752 248.567C199.609 239.777 194.203 235.389 185.682 235.389C182.293 235.316 178.998 236.501 176.442 238.713C175.37 239.81 174.532 241.112 173.983 242.541C173.433 243.969 173.182 245.493 173.245 247.021C173.241 248.717 173.616 250.392 174.342 251.926C175.069 253.461 176.129 254.816 177.447 255.895C179.907 258.088 183.439 259.135 188.21 259.135H189.716C189.57 271.84 186.159 284.297 179.807 295.327C176.208 301.292 171.722 304.15 166.516 304.15C160.356 304.15 157.276 300.976 157.276 294.629C157.276 292.302 158.202 283.822 160.055 269.188C161.907 254.554 162.828 247.127 162.817 246.905C162.817 241.455 159.123 238.73 151.735 238.73C147.834 238.704 143.961 239.38 140.303 240.724L134.578 288.281C134.461 289.727 134.411 291.189 134.411 292.618C133.54 293.316 132.653 294.014 131.732 294.712C123.852 300.993 114.084 304.479 103.979 304.615C94.2365 304.615 87.3176 302.112 83.2222 297.105C79.3449 292.64 77.1758 286.963 77.0956 281.069C77.0956 272.063 80.343 265.278 86.8378 260.714C92.4016 263.168 98.4099 264.474 104.497 264.552C109.484 264.665 114.455 263.935 119.195 262.392C123.295 260.946 125.338 258.404 125.338 254.798C125.372 253.089 124.875 251.41 123.914 249.992C122.952 248.573 121.573 247.483 119.965 246.872C114.128 244.102 105.608 243.41 94.4039 244.795C91.0059 240.21 89.2394 234.633 89.3821 228.942C89.4109 225.856 90.1355 222.815 91.5027 220.043C92.8699 217.271 94.845 214.839 97.283 212.923C101.55 208.866 107.226 206.593 113.135 206.576C119.01 206.576 123.614 208.121 126.911 211.179C130.209 214.236 131.816 218.822 131.715 224.788H147.685C147.685 215.15 144.454 207.091 138.009 201.076C131.565 195.06 122.425 192.003 110.541 192.003C99.065 191.877 87.9306 195.873 79.188 203.252C70.1712 210.653 65.6628 219.515 65.6628 229.839C65.5431 237.392 68.1296 244.742 72.9611 250.577C58.4538 257.8 51.2002 269.482 51.2002 285.622C51.2002 294.85 55.6249 302.887 64.4743 309.733C73.3237 316.579 84.1428 319.997 96.9315 319.986C111.636 320.292 125.994 315.543 137.574 306.543C138.456 308.303 139.51 309.973 140.721 311.528C144.928 317.067 151.233 319.837 159.636 319.837C167.934 319.885 175.944 316.822 182.066 311.262C188.818 305.216 193.988 297.631 197.132 289.162C200.738 280.058 202.589 270.363 202.589 260.581V257.739L209.067 256.742V247.237C206.665 247.86 204.22 248.305 201.752 248.567ZM187.708 249.963C184.36 249.963 182.82 248.982 182.82 247.088C182.82 245.98 183.607 245.426 185.18 245.426C186.754 245.426 187.925 246.722 188.712 249.946L187.708 249.963Z" fill="white"/>
	

	<path d="M431.618 254.211C445.305 248.491 452.32 238.681 452.662 224.778C452.762 214.244 448.892 206.15 441.054 200.497C433.215 194.843 423.276 192.011 411.236 192C402.029 192.039 393.007 194.593 385.15 199.387C380.985 201.874 377.552 205.417 375.199 209.656C372.677 214.269 371.402 219.458 371.501 224.712C371.501 225.954 371.6 227.727 371.833 230.029H395.05C394.318 227.421 393.977 224.72 394.039 222.012C394.123 218.531 395.473 215.198 397.836 212.638C400.357 209.673 404.254 208.05 409.528 207.818C415.813 207.95 420.606 209.805 423.923 213.449C427.122 216.835 428.902 221.316 428.898 225.971C429.043 228.949 428.532 231.923 427.4 234.682C426.268 237.441 424.543 239.918 422.347 241.938C418.307 245.418 413.269 247.534 407.952 247.984C401.095 248.642 394.21 248.957 387.322 248.928L385.979 264.331H398.267C412.529 264.331 422.065 267.478 426.891 273.988C428.808 276.728 429.807 280.004 429.744 283.346C429.809 286.013 429.32 288.666 428.307 291.135C427.294 293.604 425.778 295.835 423.856 297.69C421.813 299.643 419.394 301.164 416.746 302.16C414.098 303.157 411.277 303.608 408.45 303.487C402.115 303.487 395.636 301.245 389.013 296.762C382.612 292.389 379.461 286.675 376.891 280.96C370.506 294.807 365.58 304.828 358.035 304.828C354.585 304.828 352.877 302.277 352.877 297.176C352.877 294.393 354.149 284.577 356.691 267.727C357.218 264.814 357.556 261.871 357.703 258.915C357.758 256.197 357.202 253.5 356.077 251.024C354.952 248.548 353.286 246.354 351.202 244.604C346.879 240.828 340.909 238.945 333.292 238.956C329.66 238.901 326.054 239.58 322.691 240.952C319.328 242.324 316.278 244.361 313.723 246.94C313.391 241.507 309.51 238.774 302.114 238.774C298.505 238.965 294.931 239.582 291.467 240.613L286.824 280.364C282.843 286.522 277.807 291.933 271.948 296.348C265.127 301.825 256.669 304.868 247.918 304.994C245.262 305.056 242.622 304.561 240.169 303.543C237.715 302.524 235.502 301.004 233.672 299.081C229.902 295.161 228.017 289.17 228.017 281.11C227.826 273.74 229.891 266.488 233.938 260.323C237.852 254.526 242.412 251.627 247.619 251.627C250.027 251.618 252.382 252.34 254.369 253.698C256.426 255.089 257.454 257.695 257.454 261.515C257.454 265.342 255.795 269.317 252.379 273.408C248.963 277.499 243.855 280.298 236.972 281.69L239.294 291.495C251.19 289.397 260.549 285.681 267.371 280.348C270.618 277.957 273.242 274.823 275.023 271.209C276.803 267.594 277.688 263.605 277.603 259.578C277.62 256.589 276.884 253.644 275.465 251.013C274.045 248.383 271.986 246.15 269.477 244.522C264.159 240.811 257.221 238.956 248.664 238.956C242.908 238.874 237.194 239.967 231.876 242.168C226.558 244.37 221.746 247.634 217.735 251.76C213.639 255.599 210.376 260.238 208.151 265.39C205.925 270.542 204.785 276.096 204.8 281.706C204.8 293.124 208.244 302.509 215.132 309.863C221.566 316.621 230.339 320 241.45 320C248.197 320.007 254.887 318.772 261.185 316.356C267.197 314.124 272.8 310.917 277.769 306.865C280.173 304.811 282.379 302.874 284.403 300.803L282.247 319.271H304.734C304.944 316.533 307.056 299.97 311.069 269.582C311.569 265.211 313.243 261.056 315.912 257.557C316.953 256.097 318.325 254.904 319.916 254.075C321.507 253.246 323.272 252.805 325.066 252.787C328.681 252.787 331.252 253.764 332.811 255.768C334.388 257.925 335.184 260.553 335.066 263.221L331.07 300.323C331.153 305.18 332.91 309.86 336.045 313.573C339.361 317.781 344.469 319.889 351.368 319.901C355.873 319.975 360.341 319.095 364.48 317.319C368.619 315.543 372.334 312.912 375.382 309.598C385.017 315.958 391.783 319.95 408.715 319.95C420.517 320.163 432.119 316.89 442.066 310.543C451.706 304.271 456.527 294.852 456.527 282.286C456.679 275.519 454.207 268.956 449.628 263.967C444.86 258.827 438.531 255.398 431.618 254.211Z" fill="white"/>
	

</svg>
