<?xml version="1.0" ?>
<svg xmlns="http://www.w3.org/2000/svg" viewBox="0 0 60 60" fill="none">
	<path d="M30 60C46.5685 60 60 46.5685 60 30C60 13.4315 46.5685 0 30 0C13.4315 0 0 13.4315 0 30C0 46.5685 13.4315 60 30 60Z" fill="#333333"/>
	<path d="M30 56.25C44.4975 56.25 56.25 44.4975 56.25 30C56.25 15.5025 44.4975 3.75 30 3.75C15.5025 3.75 3.75 15.5025 3.75 30C3.75 44.4975 15.5025 56.25 30 56.25Z" fill="white" stroke="#333333" stroke-width="1.875"/>
	<path d="M30.001 33.1251C31.7269 33.1251 33.126 31.726 33.126 30.0001C33.126 28.2742 31.7269 26.8751 30.001 26.8751C28.2751 26.8751 26.876 28.2742 26.876 30.0001C26.876 31.726 28.2751 33.1251 30.001 33.1251Z" fill="#333333"/>
	<path d="M40.6055 21.2682C41.641 21.2682 42.4805 20.4287 42.4805 19.3932C42.4805 18.3577 41.641 17.5182 40.6055 17.5182C39.5699 17.5182 38.7305 18.3577 38.7305 19.3932C38.7305 20.4287 39.5699 21.2682 40.6055 21.2682Z" fill="#333333"/>
	<path d="M30.001 18.1251C31.7269 18.1251 33.126 16.726 33.126 15.0001C33.126 13.2742 31.7269 11.8751 30.001 11.8751C28.2751 11.8751 26.876 13.2742 26.876 15.0001C26.876 16.726 28.2751 18.1251 30.001 18.1251Z" fill="#333333"/>
	<path d="M45.001 33.1251C46.7269 33.1251 48.126 31.726 48.126 30.0001C48.126 28.2742 46.7269 26.8751 45.001 26.8751C43.2751 26.8751 41.876 28.2742 41.876 30.0001C41.876 31.726 43.2751 33.1251 45.001 33.1251Z" fill="#333333"/>
	<path d="M40.6064 43.7319C42.3323 43.7319 43.7314 42.3328 43.7314 40.6069C43.7314 38.881 42.3323 37.4819 40.6064 37.4819C38.8806 37.4819 37.4814 38.881 37.4814 40.6069C37.4814 42.3328 38.8806 43.7319 40.6064 43.7319Z" fill="#333333"/>
	<path d="M30.001 48.1251C31.7269 48.1251 33.126 46.726 33.126 45.0001C33.126 43.2742 31.7269 41.8751 30.001 41.8751C28.2751 41.8751 26.876 43.2742 26.876 45.0001C26.876 46.726 28.2751 48.1251 30.001 48.1251Z" fill="#333333"/>
	<path d="M19.3926 43.7319C21.1185 43.7319 22.5176 42.3328 22.5176 40.6069C22.5176 38.881 21.1185 37.4819 19.3926 37.4819C17.6667 37.4819 16.2676 38.881 16.2676 40.6069C16.2676 42.3328 17.6667 43.7319 19.3926 43.7319Z" fill="#333333"/>
	<path d="M15.001 33.1251C16.7269 33.1251 18.126 31.726 18.126 30.0001C18.126 28.2742 16.7269 26.8751 15.001 26.8751C13.2751 26.8751 11.876 28.2742 11.876 30.0001C11.876 31.726 13.2751 33.1251 15.001 33.1251Z" fill="#333333"/>
	<path d="M19.3926 22.5182C21.1185 22.5182 22.5176 21.1191 22.5176 19.3932C22.5176 17.6673 21.1185 16.2682 19.3926 16.2682C17.6667 16.2682 16.2676 17.6673 16.2676 19.3932C16.2676 21.1191 17.6667 22.5182 19.3926 22.5182Z" fill="#333333"/>
	<path d="M27.792 27.79L39.5039 18.2881L41.7139 20.4981L32.212 32.21L27.792 27.79Z" fill="#333333"/>
</svg>
