<?xml version="1.0" ?>
<svg xmlns="http://www.w3.org/2000/svg" viewBox="0 0 592 89.38558">
	<defs>
		<style>.cls-1{fill:#184621;}</style>
	</defs>
	<g id="Layer_1-2">
		<path class="cls-1" d="m200.42362,40.40898c.20977-.41839.2558-.89322.14991-1.3702-.00621-.05694-.02016-.10945-.03044-.16424-.01699-.05479-.00888-.11097-.03069-.16512-.01573-.03893-.03919-.07876-.0553-.11782-.03995-.1116-.08713-.2189-.14953-.31845-2.31466-5.34626-7.57582-11.09861-10.07704-13.64421l.52556-.67369c.67369-.86849.556-2.11339-.27191-2.83781-7.1488-6.2651-13.47376-10.01604-17.37994-12.01174.04464-.14204.07508-.29017.08928-.44236.07914-.88066-.40787-1.71466-1.21345-2.07991-8.69504-3.93661-18.18349-4.4571-23.63996-4.35056.02435-.34192-.0345-.69195-.18466-1.01662-.34699-.75384-1.10387-1.2378-1.94396-1.20736-35.17991.97705-42.35915,23.24934-42.6473,24.19697-.33279,1.09474.28409,2.24833,1.37781,2.58619,1.08967.33786,2.25442-.27597,2.59532-1.36868.17197-.5461,3.02855-9.15744,14.04079-15.25931l9.78433,29.44354-9.48503,26.52736c-8.88984-6.54639-15.27821-16.35089-18.70233-28.06231C98.01365,15.36064,77.16977.68789,54.52754.01166c-1.31098-.1442-2.26279,1.07407-2.19798,2.24732-5.67017-.12695-11.2811.4818-16.80783,1.91999-2.33318.58872-4.60497,1.45327-6.83948,2.40496-.56868.24629-1.0307.74928-1.19252,1.39696-.09956.39835-.04109.78453.08167,1.14649-2.50071,1.27509-4.86877,2.69589-7.27778,4.25063-3.54257,2.35867-6.92039,4.94626-10.11445,7.73917-.81839.71998-.94978,1.9678-.2709,2.8387,0,0,.30311.3896.54103.69563C6.35782,28.84277,2.64366,33.13386.17478,38.66439c-.00254.00596-.00596.01103-.0085.01712-.00431.00964-.00938.01852-.0137.02815-.0903.21801-.10057.41649-.12378.61801-.00355.04452-.02536.0851-.026.12999-.02181.41547.08446.77895.2837,1.09157,2.27661,5.3876,7.6216,11.22543,10.14641,13.79501l-.52454.67369c-.67572.86849-.55802,2.11339.26988,2.83882,7.14982,6.2651,13.47376,10.01604,17.37994,12.01174-.04464.14204-.07508.29017-.08928.44236-.07914.88066.40685,1.71567,1.21244,2.0789,8.69504,3.93864,18.18248,4.46826,23.64097,4.35056-.02435.34293.03551.69195.18567,1.01662.33989.73862,1.0775,1.20939,1.88714,1.20939h.05783c35.17687-.97604,42.35712-23.25036,42.64527-24.19798.3338-1.09474-.28206-2.24833-1.37578-2.58619-1.09576-.33887-2.25543.27597-2.59735,1.36868-.17058.5461-3.0269,9.15757-14.03902,15.25969l-9.78433-29.44367,9.73449-27.22375c9.52079,6.11062,16.74201,15.45691,19.37868,27.28183,1.57249,5.33104,3.83642,10.35833,6.69934,15.07897,2.8387,4.72279,6.38761,9.07386,10.60425,12.70584,8.2717,7.54602,19.52148,11.34185,30.44583,11.75416,1.33038.18288,2.3262-1.07344,2.22525-2.26279,8.07627.17654,16.14531-1.06494,23.59151-4.31061,1.07534-.40698,1.41028-1.58885,1.10907-2.55436,6.32128-3.18937,12.02366-7.35756,17.39427-11.97889.81827-.71998.94966-1.9678.27077-2.8387,0,0-.30577-.39315-.54902-.7059,1.79468-1.82563,3.49336-3.6855,5.10922-5.70238.82943-1.26469,4.2959-5.30479,5.10821-8.20132Zm-144.42138,29.98102l-11.7208-29.61361L56.58766,7.69846l10.51598,31.64495-11.1014,31.0466ZM43.11301,6.91278c3.81347-.50197,7.84088-.6364,11.69239-.38212l-11.6669,31.35808-10.50545-26.54296c.17109-.07077.35206-.165.52061-.23095.59658-.23995,1.07369-.7527,1.24161-1.42423.06988-.27965.07876-.55993.0364-.82765,2.82031-.91567,5.7299-1.57629,8.68134-1.95017Zm-10.79943,60.07124l-11.69874-27.44315,10.89721-25.38049,10.54375,26.63833-9.74222,26.18531Zm-4.54359-53.27539c.70413-.3858,1.43159-.75701,2.15639-1.12074l-10.43811,24.31035-4.63427-10.87134c.78529-1.02702.30844-2.07623-.41712-3.04821,4.1602-3.48499,8.58889-6.64975,13.33311-9.27006ZM4.36897,39.51474c1.06418-2.26114,2.5744-4.46876,4.23236-6.56427,1.45644-1.82436,3.06305-3.5815,4.70326-5.2585l5.05012,11.84636-5.05976,11.78434c-2.27205-2.32861-6.82946-7.31964-8.92599-11.80793Zm10.03506,16.49242l.44135-.56716c.5773-.74205.54395-1.74611.0085-2.48131l4.62742-10.77761,10.28947,24.13647c-3.36514-1.69817-8.97012-4.93738-15.36673-10.3104Zm20.0199,14.14542c.0142-.08218.02435-.16639.02942-.25162.02892-.52974-.16271-1.02042-.48193-1.41231l9.22745-24.8023,11.39766,28.79585c-3.57072.21002-11.95023.32442-20.1726-2.32963Zm42.79264-.37705c-4.72596,2.30071-10.7728,4.11974-18.50233,4.7895.02942-.37946-.04363-.765-.22625-1.11808-.22752-.43881-.60229-.75257-1.03704-.93761l10.7156-29.96758,9.05002,27.23377Zm-8.97773-33.60692l-10.05269-30.25116c.30324-.36107.48104-.8137.51199-1.28219,6.60283.96107,12.90914,3.15652,18.51983,6.4221l-8.97913,25.11124Zm128.05147,3.28334c-2.08054,4.32938-5.48906,8.33435-8.9218,11.85067l-5.05951-11.86703,5.05989-11.78472c2.27002,2.32671,6.82274,7.31342,8.92142,11.80108Zm-27.94246-27.46179l11.7014,27.4448-10.89784,25.37985-10.54413-26.64175,9.74058-26.1829Zm2.39494,54.3837l10.43253-24.29792,4.63782,10.87768c-.53431.72873-.57895,1.7366.00495,2.48613l.43019.55308c-4.76008,3.97681-9.95415,7.63391-15.50548,10.38104Zm15.51664-43.40583l-.44236.56716c-.57565.7423-.54141,1.74586-.00583,2.48105l-4.62818,10.77838-10.29099-24.13762c3.36565,1.6983,8.97101,4.93763,15.36737,10.31103Zm-20.0199-14.14644c-.01623.08218-.02638.16639-.03044.25162-.02828.52949.1631,1.01992.48206,1.4118l-9.22681,24.8004-11.39601-28.79421c3.57136-.2085,11.94871-.32137,20.1712,2.33039Zm-22.16474,62.45312l-10.51471-31.64318,11.10114-31.04837,11.72042,29.61247-12.30686,33.07907Zm-20.62713-62.07569c4.72558-2.30033,10.77191-4.11924,18.50055-4.78887-.02841.37743.04464.76399.22727,1.11503.22625.43868.60267.75511,1.03678.94116l-10.71484,29.9672-9.04977-27.23453Zm8.9776,33.60653l10.05408,30.25534c-.30209.3598-.48168.80837-.51364,1.27483-6.87689-1.03298-13.00185-3.45937-18.31551-6.98761l8.77507-24.54256Zm13.43242,29.63873l11.6669-31.36087,10.50608,26.54422c-.15523.06684-.30704.14382-.46278.20913-1.00178.33355-1.41827,1.3385-1.2936,2.26165-2.8335.92302-5.7578,1.58745-8.72383,1.96323-3.81258.50222-7.84278.63666-11.69278.38263Z"/>
		<path class="cls-1" d="m221.10448,71.44734V10.49393h36.39752v9.40407h-25.59978v15.06392h23.85815v9.40407h-23.85815v17.67727h26.99345v9.40407h-37.79119Z"/>
		<path class="cls-1" d="m279.00415,71.44734l-16.36969-39.00997h10.79683l10.53677,28.21222,10.62285-28.21222h10.71075l-16.2836,39.00997h-10.01392Z"/>
		<path class="cls-1" d="m318.44273,54.64179c.52285,6.70555,4.35407,10.01301,10.53677,10.01301,6.70464,0,10.01392-3.91821,10.44887-4.52715l5.83382,4.70113c-.95781,1.21968-6.00781,7.66426-16.45668,7.66426-10.97172,0-20.3758-7.1405-20.3758-20.54978,0-13.93304,10.10091-20.55159,20.11392-20.55159,13.93213,0,17.93824,11.49548,17.93824,23.25012h-28.03915Zm18.11222-6.87953c-.34796-5.83382-3.74423-9.05611-8.70724-9.05611-4.96392,0-8.44718,3.1353-9.31708,9.05611h18.02433Z"/>
		<path class="cls-1" d="m355.18187,71.44734v-39.00997h9.05611l.87081,6.00781c1.56674-3.91821,4.17919-6.35577,8.96821-6.35577,6.00871,0,8.1853,3.83122,8.1853,3.83122l-4.70204,7.22749s-2.08959-2.26357-5.57285-2.26357c-3.83122,0-6.87862,2.78552-6.87862,10.53496v20.02783h-9.92693Z"/>
		<path class="cls-1" d="m414.99987,65.96148c-1.47975,2.17658-5.65984,5.65984-12.36448,5.65984-10.36188,0-17.67636-8.27138-17.67636-19.94084,0-12.1026,7.83643-20.28881,18.2853-20.28881,7.05351,0,10.79774,3.74423,11.75555,5.92263l.87081-4.87693h9.05611v38.22705c0,12.01561-7.83733,18.72116-19.94084,18.72116-10.79683,0-17.32749-5.39887-17.32749-5.39887l4.61505-7.31448c2.17658,1.65464,7.40147,4.52715,13.2353,4.52715,4.78903,0,9.49107-2.0026,9.49107-10.53496v-4.70294Zm.17398-14.45498c0-8.01041-3.91821-12.01561-9.75204-12.01561-5.65984,0-10.36188,3.74423-10.36188,12.01561,0,8.01222,4.35317,12.01743,10.1879,12.01743,5.65984,0,9.92602-3.65724,9.92602-12.01743Z"/>
		<path class="cls-1" d="m436.23923,71.44734v-39.00997h9.05611l.87081,6.00781c1.56674-3.91821,4.17919-6.35577,8.96821-6.35577,6.00962,0,8.1862,3.83122,8.1862,3.83122l-4.70294,7.22749s-2.08959-2.26357-5.57285-2.26357c-3.83122,0-6.87862,2.78552-6.87862,10.53496v20.02783h-9.92693Z"/>
		<path class="cls-1" d="m475.9415,54.64179c.52376,6.70555,4.35498,10.01301,10.53677,10.01301,6.70555,0,10.01482-3.91821,10.44978-4.52715l5.83382,4.70113c-.95871,1.21968-6.00781,7.66426-16.45758,7.66426-10.97172,0-20.3758-7.1405-20.3758-20.54978,0-13.93304,10.10181-20.55159,20.11483-20.55159,13.93122,0,17.93824,11.49548,17.93824,23.25012h-28.04006Zm18.11222-6.87953c-.34796-5.83382-3.74423-9.05611-8.70634-9.05611-4.96392,0-8.44718,3.1353-9.31708,9.05611h18.02342Z"/>
		<path class="cls-1" d="m520.43008,54.64179c.52376,6.70555,4.35498,10.01301,10.53677,10.01301,6.70555,0,10.01482-3.91821,10.44978-4.52715l5.83382,4.70113c-.95871,1.21968-6.00781,7.66426-16.45758,7.66426-10.97172,0-20.3758-7.1405-20.3758-20.54978,0-13.93304,10.10181-20.55159,20.11483-20.55159,13.93122,0,17.93824,11.49548,17.93824,23.25012h-28.04006Zm18.11222-6.87953c-.34796-5.83382-3.74423-9.05611-8.70634-9.05611-4.96392,0-8.44718,3.1353-9.31708,9.05611h18.02342Z"/>
		<path class="cls-1" d="m582.07398,71.44734v-22.90035c0-5.92263-2.17658-8.62116-6.35758-8.62116-4.61414,0-8.61934,3.22229-8.61934,10.44978v21.07172h-9.92783v-39.00997h9.05611l.87172,5.31188c1.56584-2.43756,5.31007-6.35758,12.01561-6.35758,7.40147,0,12.88733,4.87693,12.88733,14.02003v26.03564h-9.92602Z"/>
	</g>
</svg>