<svg xmlns="http://www.w3.org/2000/svg"  viewBox="0 0 200 81.035">
  <defs>
    <clipPath id="clip-path">
      <rect id="Rectangle_835" data-name="Rectangle 835" width="200" height="81.035" fill="none"/>
    </clipPath>
    <clipPath id="clip-path-2">
      <rect id="Rectangle_830" data-name="Rectangle 830" width="200" height="82.386" fill="none"/>
    </clipPath>
    <clipPath id="clip-path-4">
      <rect id="Rectangle_834" data-name="Rectangle 834" width="162.452" height="45.044" fill="none"/>
    </clipPath>
    <clipPath id="clip-path-5">
      <rect id="Rectangle_833" data-name="Rectangle 833" width="29.03" height="37.693" fill="none"/>
    </clipPath>
    <clipPath id="clip-path-6">
      <rect id="Rectangle_832" data-name="Rectangle 832" width="29.029" height="37.693" fill="none"/>
    </clipPath>
  </defs>
  <g id="Extensiv_Logo_-_200" data-name="Extensiv Logo - 200" clip-path="url(#clip-path)">
    <g id="Group_1587" data-name="Group 1587">
      <g id="Group_1586" data-name="Group 1586" clip-path="url(#clip-path-2)">
        <g id="Group_1585" data-name="Group 1585" opacity="0">
          <g id="Group_1584" data-name="Group 1584">
            <g id="Group_1583" data-name="Group 1583" clip-path="url(#clip-path-2)">
              <rect id="Rectangle_828" data-name="Rectangle 828" width="200" height="82.386" fill="#bed730"/>
            </g>
          </g>
        </g>
      </g>
    </g>
    <path id="Path_1344" data-name="Path 1344" d="M519.011,230.808h6.073l-3.037-3.036Z" transform="translate(-474.153 -208.086)" fill="#7b004c"/>
    <path id="Path_1345" data-name="Path 1345" d="M299.276,218.77v25.266l-8.293,12.426,8.293-8.788h0l14.452-14.451Z" transform="translate(-265.833 -199.862)" fill="#7b004c"/>
    <g id="Group_1594" data-name="Group 1594" transform="translate(18.864 18.908)">
      <g id="Group_1593" data-name="Group 1593" clip-path="url(#clip-path-4)">
        <path id="Path_1346" data-name="Path 1346" d="M486.692,485.341h12.839c-.2-2.23-1.281-5.645-6.013-5.645a6.867,6.867,0,0,0-6.825,5.645m7.575,13.965c-6.367,0-10.987-4.837-10.987-11.5,0-7.781,5.181-11.264,10.316-11.264,5.464,0,9.134,3.845,9.134,9.568V488.5H486.461a7.754,7.754,0,0,0,7.806,7.657,8.518,8.518,0,0,0,5.713-2.279l.9-.945,1.83,2.739-.6.606a11.58,11.58,0,0,1-7.845,3.034" transform="translate(-460.375 -454.262)" fill="#5d7e95"/>
        <path id="Path_1347" data-name="Path 1347" d="M731.4,503.843h-3.937l-6-8.674-5.964,8.674h-3.932l7.911-11.345-7.229-10.471h3.795l5.419,7.714,5.453-7.714h3.8L723.443,492.5Z" transform="translate(-668.931 -459.273)" fill="#5d7e95"/>
        <path id="Path_1348" data-name="Path 1348" d="M971.21,446.029c-2.046,0-6.8-.813-6.8-8.344V418.57h3.154v5.484h5.169v3.154H967.56v10.359c0,1.983.469,5.308,3.611,5.308a3.724,3.724,0,0,0,.627-.059l1.245-.245v3.15l-.79.2a4.626,4.626,0,0,1-1.043.11" transform="translate(-899.917 -401.301)" fill="#5d7e95"/>
        <path id="Path_1349" data-name="Path 1349" d="M1080.975,485.341h12.839c-.2-2.23-1.28-5.645-6.014-5.645a6.867,6.867,0,0,0-6.825,5.645m7.575,13.965c-6.367,0-10.988-4.837-10.988-11.5,0-7.781,5.181-11.264,10.316-11.264,5.464,0,9.134,3.845,9.134,9.568V488.5h-16.268a7.754,7.754,0,0,0,7.806,7.657,8.46,8.46,0,0,0,5.71-2.275l.9-.958,1.832,2.748-.6.606a11.579,11.579,0,0,1-7.845,3.034" transform="translate(-1003.294 -454.262)" fill="#5d7e95"/>
        <path id="Path_1350" data-name="Path 1350" d="M1363.4,564.8v.056c.005-.019.012-.038.018-.056Z" transform="translate(-1264.425 -534.891)" fill="#fff"/>
        <path id="Path_1351" data-name="Path 1351" d="M1360.6,498.835h-3.155V485.677c0-4.415-1.213-5.979-4.637-5.979a7.17,7.17,0,0,0-7.119,5.538,8.84,8.84,0,0,0-.281,2.414v11.185h-3.154V477.018h3.154V479.6a9.779,9.779,0,0,1,7.4-3.058c5.243,0,7.792,2.91,7.792,8.9Z" transform="translate(-1245.105 -454.264)" fill="#5d7e95"/>
        <path id="Path_1352" data-name="Path 1352" d="M1586.306,499.307a10.616,10.616,0,0,1-7.607-3.153l-.6-.68,2.08-2.427.794.889a7.787,7.787,0,0,0,5.337,2.218c3.19,0,4.322-1.669,4.322-3.1,0-1.922-1.658-2.622-4.589-3.7l-.051-.018c-2.662-.956-6.683-2.4-6.683-6.743,0-3.678,2.826-6.055,7.2-6.055A10.2,10.2,0,0,1,1593,478.66l.715.634-1.951,2.639-.857-.838a6.569,6.569,0,0,0-4.4-1.4c-3.754,0-4.045,2.221-4.045,2.9,0,1.942,1.411,2.646,4.631,3.79l.043.017c3.118,1.173,6.65,2.5,6.65,6.649,0,3.681-3.075,6.253-7.476,6.253" transform="translate(-1460.566 -454.262)" fill="#5d7e95"/>
        <path id="Path_1353" data-name="Path 1353" d="M1882.462,482.022l-6.667,16.58-6.6-16.58h-3.4l8.771,21.818h2.516l8.771-21.818Z" transform="translate(-1723.406 -459.269)" fill="#5d7e95"/>
        <rect id="Rectangle_831" data-name="Rectangle 831" width="3.154" height="21.817" transform="translate(136.447 22.753)" fill="#5d7e95"/>
        <path id="Path_1354" data-name="Path 1354" d="M1797,410.829a1.865,1.865,0,1,1-1.865-1.865,1.865,1.865,0,0,1,1.865,1.865" transform="translate(-1657.14 -392.525)" fill="#5d7e95"/>
        <g id="Group_1592" data-name="Group 1592" opacity="0.5">
          <g id="Group_1591" data-name="Group 1591">
            <g id="Group_1590" data-name="Group 1590" clip-path="url(#clip-path-5)">
              <g id="Group_1589" data-name="Group 1589" transform="translate(0)">
                <g id="Group_1588" data-name="Group 1588" clip-path="url(#clip-path-6)">
                  <path id="Path_1355" data-name="Path 1355" d="M232.845,233.346V218.769H218.268Z" transform="translate(-218.268 -218.769)" fill="#ed40a9"/>
                  <path id="Path_1356" data-name="Path 1356" d="M270.774,523.527l8.293-12.426-10.2,4.7Z" transform="translate(-264.49 -485.835)" fill="#ed40a9"/>
                  <path id="Path_1357" data-name="Path 1357" d="M478.837,262.9l-3.8,3.8,6.838,6.836V262.9Z" transform="translate(-452.843 -259.084)" fill="#ed40a9"/>
                </g>
              </g>
            </g>
          </g>
        </g>
      </g>
    </g>
  </g>
</svg>