<?xml version="1.0" ?>
<svg xmlns="http://www.w3.org/2000/svg" viewBox="0 0 1200 1200" version="1.2" baseProfile="tiny-ps">
	<g id="extra-bimi-logo" stroke="none" stroke-width="1" fill="none" fill-rule="evenodd">
		<rect fill="#FFFFFF" x="0" y="0" width="1200" height="1200"/>
		<g id="extra-logo-text" transform="translate(130.000000, 528.000000)" fill="#000000" fill-rule="nonzero">
			<polygon id="Path" points="281.267764 77 265 93.6484449 318.878833 146 352 146"/>
			<g id="Group" transform="translate(0.000000, 0.000000)">
				<path d="M536.273335,91.0718722 L627.508438,91.0718722 L656.970448,145.870453 L683.065372,145.870453 L652.567335,88.9991127 C662.603844,86.4081633 669.402769,81.6796806 673.676379,77.404614 C681.705587,69.4374445 686.1087,58.4906832 686.1087,46.4427684 C686.1087,24.2901508 670.115038,0.323868678 644.408624,0.323868678 C642.725081,0.323868678 513.286492,0.259094942 513.286492,0.259094942 L513.286492,145.870453 L536.273335,145.870453 L536.273335,91.0718722 Z M536.273335,23.4480923 L639.552249,23.4480923 L644.473376,23.512866 C656.063925,23.512866 663.186609,35.4312334 663.186609,46.6370896 C663.186609,50.717835 662.215334,56.5474712 657.553213,61.1464064 C652.955845,65.6157941 645.444651,68.0771961 635.926156,68.0771961 L536.273335,68.0771961 L536.273335,23.4480923 Z" id="Shape"/>
				<path d="M780.128126,38.3460515 C785.049253,29.2777285 794.438245,23.1889973 804.798512,23.1889973 L830.31067,23.1889973 C840.670938,23.1889973 850.124681,28.8243123 855.045808,37.9574091 L879.780946,81.1614907 L771.192395,81.1614907 L758.695323,104.220941 L892.472274,104.220941 L913.840325,146 L940,146 L875.313081,26.7515528 C866.442102,10.2342502 849.153406,0 830.375422,0 L830.245919,0 L804.863264,0 C786.150031,0.129547471 768.926087,10.3637977 760.055108,26.8811003 L695.368189,146 L721.722119,146 L780.128126,38.3460515 Z" id="Path"/>
				<path d="M431.181374,24.2901508 L490.040642,24.2901508 L490.040642,0.259094942 L364.163395,0.259094942 C305.951643,0.259094942 269.755459,36.7267081 239.581181,68.595386 C212.644486,97.0310559 189.398636,122.746229 151.777916,122.746229 L36.5199421,122.746229 C29.0087484,122.746229 22.9220913,116.787045 22.9220913,109.467613 L23.0515947,83.6228926 L167.512571,83.6228926 L167.512571,60.6282165 L23.1163464,60.6282165 L23.2458497,36.6619343 C23.2458497,29.3425022 29.2030034,23.2537711 36.6494455,23.2537711 L179.556382,23.2537711 L179.556382,0.129547471 L36.4551905,0.129547471 C16.511676,0.129547471 0,16.5820763 0,36.5323869 L0,109.338066 C0,129.417924 16.317421,145.740905 36.4551905,145.740905 L151.713164,145.740905 C199.176138,145.740905 228.249638,114.066548 256.22236,84.3354037 C285.878625,52.9849157 313.916098,24.2253771 364.098643,24.2253771 L408.129779,24.2253771 L408.129779,145.805679 L431.116622,145.805679 L431.116622,24.2901508 L431.181374,24.2901508 Z" id="Path"/>
			</g>
		</g>
	</g>
</svg>