<?xml version="1.0" ?>
<svg xmlns="http://www.w3.org/2000/svg" xmlns:xlink="http://www.w3.org/1999/xlink" viewBox="0 0 74.976311 32.52422" version="1.1" id="svg8">
	<defs id="defs2">
		<pattern xlink:href="#a" id="r" patternTransform="matrix(.3771 0 0 .3771 -98.175 24.095)"/>
		<pattern xlink:href="#b" id="s" patternTransform="rotate(14.999 -131.434 -438.019) scale(.41813)"/>
		<pattern xlink:href="#c" id="q" patternTransform="rotate(14.999 -131.434 -438.019) scale(.41813)"/>
		<pattern xlink:href="#c" id="b" patternTransform="rotate(14.999 -131.434 -438.019) scale(.41813)"/>
		<pattern xlink:href="#c" id="t" patternTransform="rotate(14.999 -131.434 -438.019) scale(.41813)"/>
		<pattern xlink:href="#d" id="c" patternTransform="rotate(14.999 263.094 743.899) scale(.41813)"/>
		<pattern patternUnits="userSpaceOnUse" width="12.974" height="12.974" patternTransform="matrix(.26458 0 0 .26458 357.166 -26.888)" id="d">
			<rect ry="5.079" rx="5.079" width="11.972" height="11.972" x=".501" y=".501" fill="#f06" fill-opacity=".498" stroke="#000" stroke-width="1.002" stroke-linecap="round" stroke-linejoin="bevel" stroke-opacity="0" id="rect34"/>
		</pattern>
		<pattern xlink:href="#e" id="m" patternTransform="matrix(.41858 0 0 .41858 151.766 -77.397)"/>
		<pattern patternUnits="userSpaceOnUse" width="12.974" height="12.974" patternTransform="matrix(.26458 0 0 .26458 357.166 -1.8)" id="e">
			<rect y=".501" x=".501" height="11.972" width="11.972" rx="5.079" ry="5.079" fill="#ff0" fill-opacity=".498" stroke="#000" stroke-width="1.002" stroke-linecap="round" stroke-linejoin="bevel" stroke-opacity="0" id="rect38"/>
		</pattern>
		<pattern xlink:href="#f" id="g" patternTransform="translate(149.051 -83.212) scale(.44096)"/>
		<pattern patternUnits="userSpaceOnUse" width="12.974" height="12.974" patternTransform="matrix(.26458 0 0 .26458 381.242 -51.437)" id="f">
			<rect y=".501" x=".501" height="11.972" width="11.972" rx="5.986" ry="5.986" fill="#0ff" fill-opacity=".498" stroke="#000" stroke-width="1.002" stroke-linecap="round" stroke-linejoin="bevel" stroke-opacity="0" id="rect42"/>
		</pattern>
		<pattern xlink:href="#g" id="C" patternTransform="rotate(-30 3.467 -137.3) scale(.44096)"/>
		<pattern xlink:href="#h" id="a" patternTransform="matrix(.3771 0 0 .3771 -98.175 24.095)"/>
		<pattern patternUnits="userSpaceOnUse" width="12.974" height="12.974" patternTransform="matrix(.26458 0 0 .26458 381.242 -1.62)" id="h">
			<rect y=".501" x=".501" height="11.972" width="11.972" rx="5.986" ry="5.986" fill="#ff0" fill-opacity=".498" stroke="#000" stroke-width="1.002" stroke-linecap="round" stroke-linejoin="bevel" stroke-opacity="0" id="rect47"/>
		</pattern>
		<pattern xlink:href="#i" id="E" patternTransform="rotate(45.001 164.692 209.32) scale(.12426)"/>
		<pattern xlink:href="#j" id="i" patternTransform="rotate(45.001 164.13 208.672) scale(.12426)"/>
		<pattern patternUnits="userSpaceOnUse" width="12.974" height="12.974" patternTransform="matrix(.26458 0 0 .26458 357.166 24.808)" id="j">
			<rect ry="5.079" rx="5.079" width="11.972" height="11.972" x=".501" y=".501" fill-opacity=".498" stroke="#000" stroke-width="1.002" stroke-linecap="round" stroke-linejoin="bevel" stroke-opacity="0" id="rect52"/>
		</pattern>
		<pattern xlink:href="#k" id="F" patternTransform="rotate(-15.003 -97.404 -763.507) scale(.15427)"/>
		<pattern patternUnits="userSpaceOnUse" width="12.974" height="12.974" patternTransform="matrix(.26458 0 0 .26458 404.463 -52.898)" id="k">
			<rect ry="0" y=".501" x=".501" height="11.972" width="11.972" fill="#0ff" fill-opacity=".043" stroke="#000" stroke-width="1.002" stroke-linecap="round" stroke-linejoin="bevel" stroke-opacity="0" id="rect56"/>
			<rect y="-.338" x="3.081" height="9.473" width="9.473" rx="4.737" ry="4.737" transform="rotate(15)" fill="#0ff" fill-opacity=".498" stroke="#000" stroke-width=".793" stroke-linecap="round" stroke-linejoin="bevel" stroke-opacity="0" id="rect58"/>
		</pattern>
		<pattern xlink:href="#l" id="G" patternTransform="rotate(15.003 324.075 690.06) scale(.13462)"/>
		<pattern patternUnits="userSpaceOnUse" width="12.974" height="12.974" patternTransform="matrix(.26458 0 0 .26458 404.806 -26.709)" id="l">
			<rect y=".501" x=".501" height="11.972" width="11.972" rx="5.986" ry="5.986" fill="#f06" fill-opacity=".498" stroke="#000" stroke-width="1.002" stroke-linecap="round" stroke-linejoin="bevel" stroke-opacity="0" id="rect62"/>
		</pattern>
		<pattern xlink:href="#m" id="B" patternTransform="matrix(.41858 0 0 .41858 -167.58 -15.555)"/>
		<pattern xlink:href="#d" id="D" patternTransform="matrix(0.1283,0,0,0.1283,193.41041,129.75231)"/>
		<pattern xlink:href="#l" id="u" patternTransform="rotate(15 -301.189 -398.985) scale(.42966)"/>
		<pattern xlink:href="#n" id="v" patternTransform="scale(.27559) rotate(-15 714.443 1710.252)"/>
		<pattern patternUnits="userSpaceOnUse" width="12.974" height="12.974" patternTransform="matrix(.26458 0 0 .26458 331.244 -52.243)" id="n">
			<rect height="12.974" width="12.974" ry="3.048" fill="#0ff" fill-opacity=".498" stroke-width="3.78" id="rect69"/>
		</pattern>
		<pattern xlink:href="#o" id="w" patternTransform="matrix(.15394 0 0 .15394 201.098 218.916)"/>
		<pattern patternUnits="userSpaceOnUse" width="12.974" height="12.974" patternTransform="matrix(.26458 0 0 .26458 430.922 24.646)" id="o">
			<rect ry="0" y=".501" x=".501" height="11.972" width="11.972" fill-opacity=".004" stroke="#000" stroke-width="1.002" stroke-linecap="round" stroke-linejoin="bevel" stroke-opacity="0" id="rect73"/>
			<rect y="1.892" x="4.812" height="5.724" width="5.724" rx="2.862" ry="2.862" transform="rotate(15)" fill-opacity=".498" stroke="#000" stroke-width=".479" stroke-linecap="round" stroke-linejoin="bevel" stroke-opacity="0" id="rect75"/>
		</pattern>
		<pattern xlink:href="#o" id="A" patternTransform="scale(.47577) rotate(45 206.32 606.954)"/>
		<pattern xlink:href="#p" id="x" patternTransform="matrix(0.21106063,0.05655352,-0.05655352,0.21106063,237.9752,120.66699)"/>
		<pattern patternUnits="userSpaceOnUse" width="12.974" height="12.974" patternTransform="matrix(.26458 0 0 .26458 430.922 -32.372)" id="p">
			<rect ry="0" y=".501" x=".501" height="11.972" width="11.972" fill="#999" fill-opacity=".004" stroke="#000" stroke-width="1.002" stroke-linecap="round" stroke-linejoin="bevel" stroke-opacity="0" id="rect80"/>
			<rect y="1.892" x="4.812" height="5.724" width="5.724" rx="2.862" ry="2.862" transform="rotate(15)" fill="#f06" fill-opacity=".498" stroke="#000" stroke-width=".479" stroke-linecap="round" stroke-linejoin="bevel" stroke-opacity="0" id="rect82"/>
		</pattern>
		<pattern xlink:href="#j" id="I" patternTransform="matrix(0.03828276,0.03828276,-0.03828276,0.03828276,121.97065,202.12543)"/>
		<pattern xlink:href="#j" id="J" patternTransform="scale(.07) rotate(45 -1387.525 4142.147)"/>
	</defs>
	<g id="layer1" transform="translate(-60.025884,-15.509095)">
		<g id="g2839" transform="matrix(0.99999585,0,0,0.99999585,-70.136671,-61.397713)">
			<path id="path2807" style="fill:#000000;fill-rule:nonzero;stroke:#ffffff;stroke-width:3;stroke-linecap:butt;stroke-linejoin:miter;stroke-miterlimit:4;stroke-dasharray:none;stroke-dashoffset:0" d="m 103.1543,266.33594 c -1.65586,1.9e-4 -3.161921,1.50625 -3.162112,3.16211 v 0.23437 h -17.375 c -0.271888,-1.43853 -1.478545,-2.69513 -2.958985,-2.69531 h -2.613281 c -1.48044,1.8e-4 -2.687097,1.25678 -2.958984,2.69531 H 56.507812 c -0.271887,-1.43853 -1.478544,-2.69513 -2.958984,-2.69531 h -2.613281 c -1.48044,1.8e-4 -2.687097,1.25678 -2.958985,2.69531 H 30.390625 c -0.271887,-1.43853 -1.478545,-2.69513 -2.958984,-2.69531 h -2.605469 c -1.48044,1.8e-4 -2.687097,1.25678 -2.958984,2.69531 h -2.6875 c -1.655845,2e-4 -3.161907,1.50627 -3.16211,3.16211 v 2.61328 c 1.91e-4,1.65585 1.506258,3.16191 3.16211,3.16211 h 2.615234 c 0.184975,1.51872 1.487804,2.8631 3.03125,2.86328 h 2.605469 c 1.543444,-1.8e-4 2.846274,-1.34456 3.03125,-2.86328 h 17.441406 c 0.184975,1.51872 1.487804,2.8631 3.03125,2.86328 h 2.613281 c 1.543446,-1.8e-4 2.846275,-1.34456 3.03125,-2.86328 h 17.433594 c 0.184975,1.51872 1.487804,2.8631 3.03125,2.86328 h 2.613281 c 1.543446,-1.8e-4 2.846275,-1.34456 3.03125,-2.86328 h 17.302735 v 0.40235 c 2.03e-4,1.65584 1.506262,3.16191 3.162112,3.16211 h 2.61328 c 1.65584,-2.1e-4 3.1619,-1.50627 3.16211,-3.16211 v -0.40235 h 147.85937 c 0.18498,1.51872 1.48781,2.86309 3.03125,2.86328 h 2.61328 c 1.54345,-1.8e-4 2.84628,-1.34456 3.03125,-2.86328 h 17.4336 c 0.18497,1.51872 1.4878,2.8631 3.03125,2.86328 h 2.61328 c 1.54344,-1.9e-4 2.84627,-1.34456 3.03125,-2.86328 h 1.65625 c 1.65585,-2e-4 3.16192,-1.50626 3.16211,-3.16211 v -2.61328 c -2.1e-4,-1.65584 -1.50627,-3.1619 -3.16211,-3.16211 h -1.72852 c -0.27188,-1.43853 -1.47854,-2.69513 -2.95898,-2.69531 h -2.61328 c -1.48045,1.7e-4 -2.6871,1.25677 -2.95899,2.69531 h -17.57812 c -0.27189,-1.43854 -1.47854,-2.69514 -2.95899,-2.69531 h -2.61328 c -1.48043,1.8e-4 -2.6871,1.25678 -2.95898,2.69531 H 108.92969 v -0.23437 c -1.9e-4,-1.65585 -1.50626,-3.16191 -3.16211,-3.16211 z" transform="matrix(0.26458444,0,0,0.26458444,126.32197,34.255514)"/>
			<path style="fill:none;stroke:#000000;stroke-width:3.70419002;stroke-linecap:butt;stroke-linejoin:miter;stroke-miterlimit:4;stroke-dasharray:none" d="m 160.7468,106.79812 h 27.74654" id="path2811"/>
			<path style="fill:none;stroke:#ffffff;stroke-width:2.64583993;stroke-linecap:butt;stroke-linejoin:miter;stroke-miterlimit:4;stroke-dasharray:none" d="m 160.79232,106.77157 h 27.70102" id="path2813"/>
			<path style="fill:none;stroke:#000000;stroke-width:0.69085097px;stroke-linecap:butt;stroke-linejoin:miter" d="m 167.77819,105.03188 v 3.59105" id="path2815"/>
			<path style="fill:none;stroke:#000000;stroke-width:0.69085097px;stroke-linecap:butt;stroke-linejoin:miter" d="m 174.68673,105.03188 v 3.59105" id="path2819"/>
			<path style="fill:none;stroke:#000000;stroke-width:0.69085097px;stroke-linecap:butt;stroke-linejoin:miter" d="m 181.59527,105.03188 v 3.59105" id="path2821"/>
			<path style="fill:none;stroke:#000000;stroke-width:0.69085097px;stroke-linecap:butt;stroke-linejoin:miter" d="m 160.86966,105.03188 v 3.59105" id="path2823"/>
			<circle style="fill:#ffffff;stroke:#000000;stroke-width:0.69193703;stroke-linejoin:bevel;stroke-miterlimit:4;stroke-dasharray:none;stroke-opacity:0.99598299" id="circle2833" cx="160.83052" cy="106.7918" r="2.29371"/>
			<path style="fill:none;stroke:#000000;stroke-width:0.69085097px;stroke-linecap:butt;stroke-linejoin:miter" d="m 188.50381,105.03188 v 3.59105" id="path2835"/>
			<circle style="fill:#ffffff;stroke:#000000;stroke-width:0.69193703;stroke-linejoin:bevel;stroke-miterlimit:4;stroke-dasharray:none;stroke-opacity:0.99598299" id="circle2837" cx="188.39288" cy="106.7918" r="2.29371"/>
		</g>
		<path d="m 80.533774,33.858749 h -7.767228 q 0.1047,0.932836 0.504488,1.389724 0.561598,0.656787 1.465874,0.656787 0.571117,0 1.085125,-0.285558 0.314119,-0.18085 0.675827,-0.637748 l 3.816985,0.352189 q -0.875717,1.522983 -2.113142,2.189291 -1.237424,0.656787 -3.550465,0.656787 -2.008432,0 -3.160197,-0.561598 -1.151755,-0.571117 -1.913252,-1.799022 -0.751967,-1.237425 -0.751967,-2.903198 0,-2.37014 1.513464,-3.836014 1.522984,-1.465874 4.197733,-1.465874 2.170251,0 3.426715,0.656787 1.256465,0.656787 1.913252,1.903732 0.656788,1.246945 0.656788,3.245857 z M 76.59305,32.002617 q -0.114229,-1.123206 -0.609197,-1.608654 -0.485448,-0.485458 -1.285025,-0.485458 -0.923306,0 -1.475384,0.732937 -0.352198,0.456898 -0.447378,1.361175 z" style="stroke:#ffffff;stroke-width:0.39687499;stroke-miterlimit:4;stroke-dasharray:none" id="path2841"/>
		<path d="m 81.190561,27.842954 h 4.093023 l 2.084591,6.729702 1.932282,-6.729702 h 3.816984 l -4.007353,10.803688 q -0.685347,1.846621 -1.399244,2.493889 -1.008976,0.913786 -3.074527,0.913786 -0.837647,0 -2.58908,-0.228439 L 81.742639,39.12258 q 0.837646,0.266518 1.865662,0.266518 0.685347,0 1.104165,-0.314118 0.428339,-0.314108 0.723417,-1.123198 z" style="stroke:#ffffff;stroke-width:0.39687499;stroke-miterlimit:4;stroke-dasharray:none" id="path2843"/>
		<path d="m 94.259687,27.842954 h 3.626605 v 1.656253 q 0.523528,-1.075606 1.075615,-1.475394 0.561598,-0.409298 1.380203,-0.409298 0.85668,0 1.87517,0.533038 l -1.19934,2.760418 q -0.68535,-0.285559 -1.085137,-0.285559 -0.761487,0 -1.180305,0.628228 -0.599677,0.885236 -0.599677,3.312496 v 3.388646 h -3.893134 z" style="stroke:#ffffff;stroke-width:0.39687499;stroke-miterlimit:4;stroke-dasharray:none" id="path2845"/>
		<path d="m 102.71225,32.925923 q 0,-2.313031 1.56107,-3.807464 1.56106,-1.503944 4.21676,-1.503944 3.03646,0 4.588,1.760952 1.24694,1.418275 1.24694,3.493346 0,2.33207 -1.55154,3.826504 -1.54202,1.484904 -4.27388,1.484904 -2.43677,0 -3.94073,-1.237425 -1.84662,-1.532504 -1.84662,-4.016873 z m 3.88362,-0.01 q 0,1.351654 0.54256,1.998921 0.55208,0.647268 1.38021,0.647268 0.83764,0 1.37068,-0.637748 0.54257,-0.637757 0.54257,-2.046511 0,-1.313575 -0.54257,-1.951332 -0.54256,-0.647267 -1.34212,-0.647267 -0.84717,0 -1.39925,0.656787 -0.55208,0.647267 -0.55208,1.979882 z" style="stroke:#ffffff;stroke-width:0.39687499;stroke-miterlimit:4;stroke-dasharray:none" id="path2847"/>
		<path d="m 115.50534,35.153294 3.84553,-0.361709 q 0.23797,0.685337 0.66631,0.980416 0.42835,0.295079 1.14225,0.295079 0.78052,0 1.20886,-0.333149 0.33316,-0.247489 0.33316,-0.618717 0,-0.418819 -0.43786,-0.647268 -0.31412,-0.161819 -1.66577,-0.399778 -2.01795,-0.352199 -2.808,-0.647277 -0.78054,-0.304589 -1.3231,-1.018496 -0.53304,-0.713897 -0.53304,-1.627693 0,-0.999456 0.58063,-1.722873 0.58064,-0.723417 1.59914,-1.075606 1.01849,-0.361708 2.73186,-0.361708 1.80854,0 2.66523,0.276039 0.86619,0.276039 1.43731,0.856676 0.58064,0.580638 0.96139,1.570584 l -3.67421,0.361708 q -0.14278,-0.485458 -0.47593,-0.713907 -0.4569,-0.304589 -1.10416,-0.304589 -0.65679,0 -0.96139,0.237959 -0.29508,0.228449 -0.29508,0.561608 0,0.371228 0.38075,0.561598 0.38074,0.190369 1.65624,0.342668 1.9323,0.218929 2.87464,0.609198 0.94235,0.390268 1.43732,1.113685 0.50448,0.723417 0.50448,1.589613 0,0.875717 -0.53303,1.703843 -0.52353,0.828127 -1.66578,1.323095 -1.13271,0.485448 -3.09355,0.485448 -2.76994,0 -3.95026,-0.790047 -1.17079,-0.790047 -1.50394,-2.2464 z" style="stroke:#ffffff;stroke-width:0.39687499;stroke-miterlimit:4;stroke-dasharray:none" id="path2849"/>
		<g id="g2859" transform="matrix(1.4384835,0,0,1.4384835,-140.4615,-237.14953)">
			<path id="path2851" style="fill:#ffffff;stroke:#000000;stroke-width:0.264584px;stroke-linecap:butt;stroke-linejoin:bevel" d="m 161.72569,181.42033 -2.85011,-2.82451 -2.85012,2.82452 z"/>
			<path id="path2853" style="fill:#ffffff;stroke:#000000;stroke-width:0.264584px;stroke-linecap:butt;stroke-linejoin:bevel" d="m 155.3045,181.42033 -2.85011,-2.82451 -2.85012,2.82452 z"/>
			<path id="path2855" style="fill:#ffffff;stroke:#000000;stroke-width:0.264584px;stroke-linecap:butt;stroke-linejoin:bevel" d="m 166.34647,177.50872 v 3.85073 m -4.03152,0.0521 4.0277,-4.03067 4.03138,4.03067 -4.02888,-0.0181 z"/>
			<path style="fill:#ffffff;stroke:#000000;stroke-width:0.264584px;stroke-linecap:butt;stroke-linejoin:bevel" d="m 170.8676,181.43497 2.86258,-2.83708 2.88217,-2.86166 2.86993,2.86165 2.86258,2.83708 -5.73251,0.002 z" id="path2973"/>
			<path style="fill:#ffffff;stroke:#000000;stroke-width:0.264584px;stroke-linecap:butt;stroke-linejoin:bevel" d="m 173.75515,178.6211 2.85469,2.81101 2.84747,-2.81102" id="path2971"/>
			<path style="fill:#ffffff;stroke:#000000;stroke-width:0.264584px;stroke-linecap:butt;stroke-linejoin:bevel" d="m 176.60836,175.79949 v 5.58081" id="path2857"/>
		</g>
		<g id="g2911" transform="matrix(0.99999585,0,0,0.99999585,-70.136671,-60.868546)">
			<path d="m 131.97634,84.866318 h 5.854 v 3.00791 h -2.31304 v 11.812713 h 2.31304 v 3.007909 h -5.854 z" style="fill:#ffffff;stroke:#000000;stroke-width:0.52916902;stroke-miterlimit:4;stroke-dasharray:none" id="path2861"/>
			<path style="fill:none;stroke:#000000;stroke-width:0.264584px;stroke-linecap:butt;stroke-linejoin:miter" d="m 131.95209,87.051912 2.24054,-2.240545" id="path2863"/>
			<path style="fill:none;stroke:#000000;stroke-width:0.264584px;stroke-linecap:butt;stroke-linejoin:miter" d="m 131.95209,90.226926 2.24054,-2.240545" id="path2865"/>
			<path style="fill:none;stroke:#000000;stroke-width:0.264584px;stroke-linecap:butt;stroke-linejoin:miter" d="m 131.95209,91.285264 2.24054,-2.240545" id="path2867"/>
			<path style="fill:none;stroke:#000000;stroke-width:0.264584px;stroke-linecap:butt;stroke-linejoin:miter" d="m 131.95209,92.343602 2.24054,-2.240545" id="path2869"/>
			<path style="fill:none;stroke:#000000;stroke-width:0.264584px;stroke-linecap:butt;stroke-linejoin:miter" d="m 131.95209,93.40194 2.24054,-2.240545" id="path2871"/>
			<path style="fill:none;stroke:#000000;stroke-width:0.264584px;stroke-linecap:butt;stroke-linejoin:miter" d="m 131.95209,94.460278 2.24054,-2.240545" id="path2873"/>
			<path style="fill:none;stroke:#000000;stroke-width:0.264584px;stroke-linecap:butt;stroke-linejoin:miter" d="m 131.95209,95.518616 2.24054,-2.240545" id="path2875"/>
			<path style="fill:none;stroke:#000000;stroke-width:0.264584px;stroke-linecap:butt;stroke-linejoin:miter" d="m 131.95209,96.576954 2.24054,-2.240545" id="path2877"/>
			<path style="fill:none;stroke:#000000;stroke-width:0.264584px;stroke-linecap:butt;stroke-linejoin:miter" d="m 131.95209,97.635292 2.24054,-2.240545" id="path2879"/>
			<path style="fill:none;stroke:#000000;stroke-width:0.264584px;stroke-linecap:butt;stroke-linejoin:miter" d="m 131.95209,98.69363 2.24054,-2.240545" id="path2881"/>
			<path style="fill:none;stroke:#000000;stroke-width:0.264584px;stroke-linecap:butt;stroke-linejoin:miter" d="m 131.95209,99.751968 2.24054,-2.240545" id="path2883"/>
			<path style="fill:none;stroke:#000000;stroke-width:0.264584px;stroke-linecap:butt;stroke-linejoin:miter" d="m 131.95209,100.81031 2.24054,-2.240549" id="path2885"/>
			<path style="fill:none;stroke:#000000;stroke-width:0.264584px;stroke-linecap:butt;stroke-linejoin:miter" d="m 131.95209,101.86865 2.24054,-2.240551" id="path2887"/>
			<path style="fill:none;stroke:#000000;stroke-width:0.264584px;stroke-linecap:butt;stroke-linejoin:miter" d="m 132.13304,102.68843 2.05959,-2.00199" id="path2889"/>
			<path style="fill:none;stroke:#000000;stroke-width:0.264584px;stroke-linecap:butt;stroke-linejoin:miter" d="m 133.19138,102.68843 2.05959,-2.00199" id="path2891"/>
			<path style="fill:none;stroke:#000000;stroke-width:0.264584px;stroke-linecap:butt;stroke-linejoin:miter" d="m 134.24972,102.68843 2.05959,-2.00199" id="path2893"/>
			<path style="fill:none;stroke:#000000;stroke-width:0.264584px;stroke-linecap:butt;stroke-linejoin:miter" d="m 135.30806,102.68843 2.05959,-2.00199" id="path2895"/>
			<path style="fill:none;stroke:#000000;stroke-width:0.264584px;stroke-linecap:butt;stroke-linejoin:miter" d="m 136.3664,102.68843 1.53527,-1.46548" id="path2897"/>
			<path style="fill:none;stroke:#000000;stroke-width:0.264584px;stroke-linecap:butt;stroke-linejoin:miter" d="m 131.95209,85.993574 1.1788,-1.194988" id="path2899"/>
			<path id="path2901" style="fill:none;stroke:#000000;stroke-width:0.264584px;stroke-linecap:butt;stroke-linejoin:miter" d="m 131.95209,88.11025 3.29888,-3.298883"/>
			<path id="path2903" style="fill:none;stroke:#000000;stroke-width:0.264584px;stroke-linecap:butt;stroke-linejoin:miter" d="m 131.95209,89.168588 4.35722,-4.357221"/>
			<path style="fill:none;stroke:#000000;stroke-width:0.264584px;stroke-linecap:butt;stroke-linejoin:miter" d="m 135.12711,87.051912 2.24054,-2.240545" id="path2905"/>
			<path style="fill:none;stroke:#000000;stroke-width:0.264584px;stroke-linecap:butt;stroke-linejoin:miter" d="m 136.18545,87.051912 1.70153,-1.722111" id="path2907"/>
			<path style="fill:none;stroke:#000000;stroke-width:0.264584px;stroke-linecap:butt;stroke-linejoin:miter" d="m 137.24379,87.051912 0.65468,-0.707104" id="path2909"/>
		</g>
		<g id="g2963" transform="matrix(-0.99999585,0,0,0.99999585,264.99165,-60.868546)">
			<path d="m 131.97634,84.866318 h 5.854 v 3.00791 h -2.31304 v 11.812713 h 2.31304 v 3.007909 h -5.854 z" style="fill:#ffffff;stroke:#000000;stroke-width:0.52916902;stroke-miterlimit:4;stroke-dasharray:none" id="path2913"/>
			<path style="fill:none;stroke:#000000;stroke-width:0.264584px;stroke-linecap:butt;stroke-linejoin:miter" d="m 131.95209,87.051912 2.24054,-2.240545" id="path2915"/>
			<path style="fill:none;stroke:#000000;stroke-width:0.264584px;stroke-linecap:butt;stroke-linejoin:miter" d="m 131.95209,90.226926 2.24054,-2.240545" id="path2917"/>
			<path style="fill:none;stroke:#000000;stroke-width:0.264584px;stroke-linecap:butt;stroke-linejoin:miter" d="m 131.95209,91.285264 2.24054,-2.240545" id="path2919"/>
			<path style="fill:none;stroke:#000000;stroke-width:0.264584px;stroke-linecap:butt;stroke-linejoin:miter" d="m 131.95209,92.343602 2.24054,-2.240545" id="path2921"/>
			<path style="fill:none;stroke:#000000;stroke-width:0.264584px;stroke-linecap:butt;stroke-linejoin:miter" d="m 131.95209,93.40194 2.24054,-2.240545" id="path2923"/>
			<path style="fill:none;stroke:#000000;stroke-width:0.264584px;stroke-linecap:butt;stroke-linejoin:miter" d="m 131.95209,94.460278 2.24054,-2.240545" id="path2925"/>
			<path style="fill:none;stroke:#000000;stroke-width:0.264584px;stroke-linecap:butt;stroke-linejoin:miter" d="m 131.95209,95.518616 2.24054,-2.240545" id="path2927"/>
			<path style="fill:none;stroke:#000000;stroke-width:0.264584px;stroke-linecap:butt;stroke-linejoin:miter" d="m 131.95209,96.576954 2.24054,-2.240545" id="path2929"/>
			<path style="fill:none;stroke:#000000;stroke-width:0.264584px;stroke-linecap:butt;stroke-linejoin:miter" d="m 131.95209,97.635292 2.24054,-2.240545" id="path2931"/>
			<path style="fill:none;stroke:#000000;stroke-width:0.264584px;stroke-linecap:butt;stroke-linejoin:miter" d="m 131.95209,98.69363 2.24054,-2.240545" id="path2933"/>
			<path style="fill:none;stroke:#000000;stroke-width:0.264584px;stroke-linecap:butt;stroke-linejoin:miter" d="m 131.95209,99.751968 2.24054,-2.240545" id="path2935"/>
			<path style="fill:none;stroke:#000000;stroke-width:0.264584px;stroke-linecap:butt;stroke-linejoin:miter" d="m 131.95209,100.81031 2.24054,-2.240549" id="path2937"/>
			<path style="fill:none;stroke:#000000;stroke-width:0.264584px;stroke-linecap:butt;stroke-linejoin:miter" d="m 131.95209,101.86865 2.24054,-2.240551" id="path2939"/>
			<path style="fill:none;stroke:#000000;stroke-width:0.264584px;stroke-linecap:butt;stroke-linejoin:miter" d="m 132.13304,102.68843 2.05959,-2.00199" id="path2941"/>
			<path style="fill:none;stroke:#000000;stroke-width:0.264584px;stroke-linecap:butt;stroke-linejoin:miter" d="m 133.19138,102.68843 2.05959,-2.00199" id="path2943"/>
			<path style="fill:none;stroke:#000000;stroke-width:0.264584px;stroke-linecap:butt;stroke-linejoin:miter" d="m 134.24972,102.68843 2.05959,-2.00199" id="path2945"/>
			<path style="fill:none;stroke:#000000;stroke-width:0.264584px;stroke-linecap:butt;stroke-linejoin:miter" d="m 135.30806,102.68843 2.05959,-2.00199" id="path2947"/>
			<path style="fill:none;stroke:#000000;stroke-width:0.264584px;stroke-linecap:butt;stroke-linejoin:miter" d="m 136.3664,102.68843 1.53527,-1.46548" id="path2949"/>
			<path style="fill:none;stroke:#000000;stroke-width:0.264584px;stroke-linecap:butt;stroke-linejoin:miter" d="m 131.95209,85.993574 1.1788,-1.194988" id="path2951"/>
			<path id="path2953" style="fill:none;stroke:#000000;stroke-width:0.264584px;stroke-linecap:butt;stroke-linejoin:miter" d="m 131.95209,88.11025 3.29888,-3.298883"/>
			<path id="path2955" style="fill:none;stroke:#000000;stroke-width:0.264584px;stroke-linecap:butt;stroke-linejoin:miter" d="m 131.95209,89.168588 4.35722,-4.357221"/>
			<path style="fill:none;stroke:#000000;stroke-width:0.264584px;stroke-linecap:butt;stroke-linejoin:miter" d="m 135.12711,87.051912 2.24054,-2.240545" id="path2957"/>
			<path style="fill:none;stroke:#000000;stroke-width:0.264584px;stroke-linecap:butt;stroke-linejoin:miter" d="m 136.18545,87.051912 1.70153,-1.722111" id="path2959"/>
			<path style="fill:none;stroke:#000000;stroke-width:0.264584px;stroke-linecap:butt;stroke-linejoin:miter" d="m 137.24379,87.051912 0.65468,-0.707104" id="path2961"/>
		</g>
	</g>
</svg>