<?xml version="1.0" encoding="utf-8"?>
<!-- Generator: Adobe Illustrator 24.1.2, SVG Export Plug-In . SVG Version: 6.00 Build 0)  -->
<svg version="1.2" baseProfile="tiny" id="logos" xmlns="http://www.w3.org/2000/svg" 
	 x="0px" y="0px" viewBox="0 0 90.5 90.7" overflow="visible" xml:space="preserve">
<g id="Submark_full_color">
	<path fill="#EA961C" d="M80.8,0H9.7C4.3,0,0,4.3,0,9.7v71.1c0,5.3,4.3,9.7,9.7,9.7h11.1v-5.3H9.7c-2.4,0-4.4-2-4.4-4.4V9.7
		c0-2.4,2-4.4,4.4-4.4h71.1c2.4,0,4.4,2,4.4,4.4v71.1c0,2.4-2,4.4-4.4,4.4H69.7v5.3h11.1c5.3,0,9.7-4.3,9.7-9.7V9.7
		C90.5,4.3,86.2,0,80.8,0z"/>
	<polygon fill="#2B74B7" points="41,32 41,23.7 14.4,23.7 14.4,62.1 41.2,62.1 41.2,53.8 23.8,53.8 23.8,46.7 39.4,46.7 39.4,38.9 
		23.8,38.9 23.8,32 	"/>
	<polygon fill="#2B74B7" points="45.2,62.1 76.1,62.1 76.1,53.8 58,53.8 76.1,27.4 76.1,23.7 46,23.7 46,32 61.9,32 45.2,56.2 	"/>
	<path fill="#2B74B7" d="M28.6,76.2h-4.2v14.5h4c4.9,0,7.5-2.1,7.5-7.3C35.7,78.6,33.2,76.2,28.6,76.2z M28.6,89.1h-2.4V77.9h2.4
		c3.6,0,5.1,2,5.1,5.6C33.7,87.1,32.3,89.1,28.6,89.1z"/>
	<path fill="#2B74B7" d="M48.2,80.5c0-2.6-1.6-4.3-5.1-4.3h-4.7v14.5h1.9v-5.7h2.2c0.6,0,1,0,1.5-0.1l3,5.8H49l-3.2-6.2
		C47.4,83.7,48.2,82.4,48.2,80.5z M42.9,83.5h-2.6v-5.7h2.8c2.2,0,3.2,0.9,3.2,2.7C46.3,82.5,45.2,83.5,42.9,83.5z"/>
	<polygon fill="#2B74B7" points="63,76.2 58.8,87.9 54.8,76.2 52.7,76.2 51.2,90.7 53,90.7 54.2,79.5 58.1,90.7 59.6,90.7 
		63.5,79.5 64.7,90.7 66.5,90.7 65,76.2 	"/>
</g>
</svg>
