<svg xmlns="http://www.w3.org/2000/svg" fill="none" viewBox="0 0 2253 429"><path fill="#1A1A1C" d="M697.299 217.267c.708-5.309.708-9.202.708-15.572 0-45.653-21.588-91.307-84.228-91.307-59.102 0-88.476 41.053-88.476 98.739 0 48.13 26.189 93.076 86.706 93.076 57.332 0 77.505-36.806 83.875-59.102h-50.608c-4.955 10.971-10.971 19.465-32.205 19.465-25.127 0-36.806-22.296-36.806-45.299h121.034Zm-119.972-31.144c2.123-22.649 12.033-39.283 36.098-39.283 24.773 0 33.267 18.049 33.62 39.283h-69.718Zm149.944 111.833h148.284l6.017-39.991h-95.2l88.829-103.693v-39.637H731.517v39.991h86.352l-90.598 105.109v38.221Zm173.798-183.321 66.888 188.983c-7.078 20.173-16.28 26.543-35.037 26.543-4.246 0-9.555-.354-13.094-.708v40.699c8.848 1.062 19.111 1.416 23.711 1.416 43.884 0 58.753-15.572 76.093-68.303l61.58-188.63h-50.61c-21.59 77.151-32.562 118.203-36.455 136.606h-.354c-2.831-16.987-19.464-73.258-38.221-136.606h-54.501Zm319.091 124.22c-4.6 13.802-13.8 24.065-31.49 24.065-21.95 0-36.1-17.695-36.1-56.978 0-35.39 13.09-55.563 36.45-55.563 19.82 0 28.31 10.263 31.5 25.127h49.19c-.71-20.526-18.05-65.118-79.63-65.118-55.91 0-88.83 43.176-88.83 97.323 0 55.209 29.38 94.492 86.35 94.492 54.51 0 76.09-32.913 82.11-63.348h-49.55Zm172.33-128.467c-58.04 0-92.36 39.991-92.36 96.615 0 54.501 33.26 95.2 89.89 95.2 58.04 0 91.3-40.699 91.3-96.261 0-57.332-35.03-95.554-88.83-95.554Zm-2.12 39.991c25.48 0 39.64 18.049 39.64 56.27 0 35.037-13.8 55.917-38.93 55.917-24.42 0-39.64-20.88-39.64-56.27 0-38.576 15.57-55.917 38.93-55.917Zm294.12-35.744h-50.61v97.677c0 36.098-9.55 48.484-32.56 48.484-21.94 0-28.31-16.633-28.31-36.805V114.635h-50.61v119.619c0 45.299 23.72 67.949 60.88 67.949 23.71 0 39.63-7.078 50.6-25.481.36 6.37.71 16.279 1.42 21.234h49.54c-.35-16.279-.35-35.744-.35-53.085V114.635Zm52.72 183.321h50.96v-79.982c0-50.254 21.94-60.163 58.75-59.101v-48.485c-31.15.354-50.61 15.572-58.75 36.452 0-9.909-.71-27.958-1.42-32.205h-49.9c.36 15.572.36 31.497.36 49.9v133.421Zm133.97-55.209c4.25 32.559 26.9 59.456 82.81 59.456 55.56 0 78.92-27.604 78.92-58.04 0-26.896-8.85-47.777-70.07-61.933-29.73-7.078-35.39-11.325-35.39-20.526 0-8.14 5.66-15.572 22.3-15.572 23.71 0 28.31 12.741 30.08 19.465h48.13c-1.42-24.773-20.53-55.209-76.09-55.209-55.21 0-73.97 28.666-73.97 55.563 0 25.835 9.56 44.238 69.37 59.101 26.19 6.371 33.97 10.971 33.97 22.65 0 11.325-6.72 18.049-25.48 18.049-18.75 0-30.79-8.14-34.68-23.004h-49.9Zm364.71-25.48c.7-5.309.7-9.202.7-15.572 0-45.653-21.58-91.307-84.22-91.307-59.11 0-88.48 41.053-88.48 98.739 0 48.13 26.19 93.076 86.71 93.076 57.33 0 77.5-36.806 83.87-59.102h-50.61c-4.95 10.971-10.97 19.465-32.2 19.465-25.13 0-36.81-22.296-36.81-45.299h121.04Zm-119.98-31.144c2.13-22.649 12.04-39.283 36.1-39.283 24.77 0 33.27 18.049 33.62 39.283h-69.72Z"/><path fill="#013CA9" d="M433.158 360.838H185.61v-66.834l150.375-178.516h-88.743a29.998 29.998 0 0 1-26.115-15.236l-28.922-51.158h239.194v49.499a40 40 0 0 1-9.515 25.897L277.506 294.444h115.652c22.091 0 40 17.908 40 40v26.394Z"/><path fill="#013CA9" d="m128.952 361.228 207.87-245.47-93.07 182.022 4.942 62.596-119.742.852Z"/><path fill="#1A1A1C" d="M.783 78.97c0-16.578 13.446-30.013 30.024-30l120.552.098a40 40 0 0 1 35.531 21.69l23.029 44.73-179.102.202c-16.582.019-30.034-13.418-30.034-30v-6.72ZM.783 203.301c0-18.917 15.335-34.252 34.251-34.252H267.02l-58.984 68.503h-173c-18.917 0-34.252-15.335-34.252-34.251Z"/><path fill="#1A1A1C" d="M69.285 169.049v188.236l-19.22-.276C22.733 356.617.783 334.349.783 307.014v-97.965c0-22.091 17.908-40 40-40h28.502Z"/><path fill="#1A1A1C" d="M.783 292.335h164.355l-58.886 68.503h-65.47c-22.09 0-40-17.909-40-40v-28.503Z"/></svg>