<?xml version="1.0" ?>
<svg xmlns="http://www.w3.org/2000/svg" version="1.2" viewBox="0 0 175.7 175.7" xml:space="preserve" baseProfile="tiny-ps">
	<path class="st0" d="M89.1,67.2c0.2,0.5,0.2,0.5,0.4,1c0.1,0.1,0.5,1.5,0.5,1.6c1.9,9.2-4.4,27-4.4,27s3.2-3.6,7-17.9
	c1.4-5.2,1.3-9.3-0.1-11.5c-0.3-0.5-0.7-1.2-1-1.4C90.1,64.8,88.5,65.5,89.1,67.2z" fill="#85C446"/>
	<path class="st0" d="M90.1,60.6c0,1.5-1.3,2.7-2.9,2.7c-1.6,0-2.9-1.2-2.9-2.7c0-1.5,1.3-2.7,2.9-2.7C88.8,58,90.1,59.2,90.1,60.6z" fill="#85C446"/>
	<path class="st0" d="M113.1,70.4c-0.1,0.2-0.6,1.3-0.7,1.7c-2.2,8,3.8,24.8,3.8,24.8s-2.9-3.2-6.2-16c-1.2-4.6-1-7.6-0.3-9.5
	c0.1-0.2,0.6-1.2,0.8-1.5C111.8,68.1,113.7,68.6,113.1,70.4z" fill="#85C446"/>
	<path class="st0" d="M112.2,64.5c0,1.3,1.1,2.4,2.6,2.4c1.4,0,2.6-1.1,2.6-2.4c0-1.3-1.1-2.4-2.6-2.4
	C113.4,62.1,112.2,63.2,112.2,64.5z" fill="#85C446"/>
	<path class="st0" d="M101.4,52c0.2,0.6,0.4,1.6,0.5,2.3c2.3,13.9-6.8,41.6-6.8,41.6s4.9-5.4,10.6-27c1.4-5.4,1.8-11.3,1.3-14.4
	c-0.2-1.2-0.5-1.9-0.8-2.9C104.8,47.9,100.2,48.4,101.4,52z" fill="#85C446"/>
	<path class="st0" d="M111.5,45.1c0,2.2-1.9,4-4.3,4c-2.4,0-4.3-1.8-4.3-4c0-2.2,1.9-4,4.3-4C109.6,41.1,111.5,42.9,111.5,45.1z" fill="#85C446"/>
	<path class="st0" d="M7.4,89.9v-20H3.6v-3.2h3.8v-1.8c0-4.8,2.6-7.5,6.7-7.5c1.8,0,3.5,0.4,4.9,1.8l-1.5,2.4
	c-0.8-0.7-1.7-1.2-2.9-1.2c-2.4,0-3.6,1.6-3.6,4.6v1.8h4.7v3.2H11v20H7.4z" fill="#85C446"/>
	<path class="st0" d="M37.8,90.4v-2.7c-2,2.2-4.7,3.3-7.8,3.3c-4,0-8.3-2.7-8.3-7.8c0-5.3,4.3-7.8,8.3-7.8c3.2,0,5.9,1,7.8,3.2v-4.3
	c0-3.2-2.5-5-6-5c-2.8,0-5.1,1-7.3,3.3L22.9,70c2.5-2.6,5.6-3.9,9.5-3.9c5,0,9.2,2.3,9.2,8v16.3H37.8z M37.8,85.4v-4.5
	c-1.4-2-3.9-2.9-6.5-2.9c-3.4,0-5.8,2.2-5.8,5.2c0,3,2.4,5.1,5.8,5.1C33.9,88.3,36.4,87.3,37.8,85.4z" fill="#85C446"/>
	<path class="st0" d="M75.4,89.9V74.1c0-2.9-1.3-4.8-4.3-4.8c-2.4,0-4.9,1.7-6.1,3.6v17h-3.6V74.1c0-2.9-1.2-4.8-4.3-4.8
	c-2.4,0-4.8,1.7-6.1,3.6v16.9h-3.6V66.7H51V70c1-1.5,4.1-3.9,7.5-3.9c3.6,0,5.6,1.9,6.2,4.3c1.3-2.1,4.4-4.3,7.8-4.3
	c4.2,0,6.5,2.4,6.5,7v16.8H75.4z" fill="#85C446"/>
	<path class="st0" d="M122.9,78.4c0-6.9,4.9-12.5,11.8-12.5c7.2,0,11.5,5.6,11.5,12.8v0.9h-19.3c0.3,4.5,3.5,8.2,8.6,8.2
	c2.7,0,5.5-1.1,7.4-3l1.8,2.4c-2.4,2.4-5.6,3.7-9.5,3.7C128,91,122.9,85.9,122.9,78.4z M134.6,69c-5.1,0-7.6,4.3-7.8,8h15.7
	C142.4,73.4,140.1,69,134.6,69z" fill="#85C446"/>
	<path class="st0" d="M167.8,89.6V74.5c0-4.1-2.1-5.4-5.2-5.4c-2.8,0-5.5,1.7-6.9,3.6v16.9h-3.6V66.4h3.6v3.4
	c1.6-1.9,4.8-3.9,8.3-3.9c4.8,0,7.4,2.4,7.4,7.5v16.3H167.8z" fill="#85C446"/>
	<path d="M7.4,130.8v-32H11v32H7.4z"/>
	<path d="M16.6,119.6c0-6.9,4.9-12.5,11.8-12.5c7.2,0,11.5,5.6,11.5,12.8v0.9H20.5c0.3,4.5,3.5,8.2,8.6,8.2c2.7,0,5.5-1.1,7.4-3
	l1.8,2.4c-2.4,2.4-5.6,3.7-9.5,3.7C21.7,132.2,16.6,127.1,16.6,119.6z M28.3,110.2c-5.1,0-7.6,4.3-7.8,8h15.7
	C36.1,114.6,33.7,110.2,28.3,110.2z"/>
	<path d="M45.9,131.8v-33h3.7v12.7c1.9-2.6,4.8-4.2,8.1-4.2c6.2,0,10.6,4.9,10.6,12.6c0,7.8-4.4,12.5-10.6,12.5
	c-3.4,0-6.3-1.7-8.1-4.2v3.6H45.9z M56.7,129c4.8,0,7.7-3.9,7.7-9.2c0-5.3-2.9-9.3-7.7-9.3c-2.9,0-5.8,1.8-7.1,3.9v10.8
	C50.9,127.4,53.8,129,56.7,129z"/>
	<path d="M74,119.6c0-6.9,4.9-12.5,11.8-12.5c7.2,0,11.5,5.6,11.5,12.8v0.9H77.9c0.3,4.5,3.5,8.2,8.6,8.2c2.7,0,5.5-1.1,7.4-3
	l1.8,2.4c-2.4,2.4-5.6,3.7-9.5,3.7C79.1,132.2,74,127.1,74,119.6z M85.7,110.2c-5.1,0-7.6,4.3-7.8,8h15.7
	C93.5,114.6,91.1,110.2,85.7,110.2z"/>
	<path d="M118.5,130.8v-15.2c0-4.1-2.1-5.4-5.2-5.4c-2.8,0-5.5,1.7-6.9,3.6v16.9h-3.6v-23.2h3.6v3.4c1.6-1.9,4.8-3.9,8.3-3.9
	c4.8,0,7.4,2.4,7.4,7.5v16.3H118.5z"/>
</svg>