<svg viewBox="0 0 236 60" xmlns="http://www.w3.org/2000/svg"><path d="m69.8 14c-.6-3.5-2.2-6.7-4.6-9.1-3-3-7.2-4.9-11.8-4.9-5.3 0-10.2 2.6-13.4 6.5-3.2-3.9-8.1-6.5-13.3-6.5-4.6 0-8.8 1.9-11.8 4.9 0 0-3.6 2.7-4.7 9.1-1.6.9-3.8 2-5.4 3.8-3 3-4.9 7.2-4.9 11.8s1.8 8.9 4.9 11.8c1.8 1.6 5.1 4.8 11.8 4.9 3.6 0 7.7-1.7 11.9-4.1 3.4-1.9 6.8-4.4 9.8-6.8l-5.1-4.5c-2.3 1.8-4.8 3.6-7.3 5.1-4.6-5.6-8-11.1-9-16.4-1-5.1.9-8 2.6-9.7 1.9-1.9 4.4-2.9 7.1-2.9 6.4 0 10.1 5.6 13.3 9.4 2.7-3.9 6.2-8.5 11.8-9.3 2.4-.3 7.9.1 10.7 5.9-10.1.8-22.6 12.1-22.6 12.1s-11.1-9.9-20.3-11.9c-1.2 2.4-.8 5-.3 6.7 13 4.5 20.5 15.5 30.3 21-2.2 2.3-6.3 6.5-9.6 9.8-2.8-2.8-5.5-5.5-8.1-8.3-1.9 1.3-3.6 2.2-6 3.3 3 3.6 14.2 14.3 14.2 14.3s13.5-13 17.2-17.6c8.8-10.5 10-14.5 11.6-18.8-1.4-1.3-4.5-2.7-6.4-2.1-1.4 4.6-4.5 9.4-8.4 14.2-3-1.7-6-3.9-8.8-6.3 2.8-2.1 12.9-10.3 18.8-9.9 7.8.7 9.5 7.7 9.4 10-.1 2.7-.8 5-2.9 7.1-3.2 3.1-6.9 3-8.1 2.8-1.3 1.7-3.2 3.9-4.7 5.6 11.1 4.2 22.3-4.4 22.3-15.3.2-6.6-3.9-13.1-10.2-15.7zm-49.9 24.7c-5.9 2.1-10.6-1.4-12.2-4.8-1.6-3-1.7-8.8 2.9-12.5 1.9 7.7 5.4 11.9 9.3 17.3zm154.1-7.3c1.3.8 2.8 1.2 4.3 1.3 2.3.2 5.4-.4 7.3-1.8.3-.3.7-.6 1-.9 1.3 2.2 4.3 2.9 6.7 1.7v-3.7c-.3 0-.6 0-.9-.1-.5-.2-.9-.5-1.1-.9-.1-.3-.2-.7-.2-1.1l.1-3.9v-3.3c-.1-2.1-.7-4.2-2.2-5.8-1-1.1-2.4-1.8-3.9-2.3-1.9-.6-4-.7-6-.3-2.1.2-4.3.8-6.2 1.7l.8 4c1-.4 1.7-.6 2.6-.8 1.8-.4 3.5-.7 5.2-.4 1.3.2 3.1.7 3.7 2.1.4.7.5 1.7.5 3.1 0 1.2 0 2.4-.1 3.1v.3c-.1.8-.3 1.7-.7 2.3-.5.8-1.1 1.5-2 1.9s-2.1.5-3.1.5c-.9 0-1.8-.3-2.6-.8s-1.2-1.2-1.3-2 .2-1.7 1-2.4 2-1 3.1-1c1 0 2 .1 2.9.3l.6-3.8c-1.4-.7-3.2-.9-5-.8-1.2.1-2.4.3-3.4.8-2 .8-3.6 2.4-4.2 4.4-.6 2.1-.4 4.4.7 6.2.5.9 1.3 1.8 2.4 2.4zm-3.9-16v-4.3h-5.6v-6.8l-4.9 1.7-.5 5.1h-3.3v4.3h3s0 9.7.2 13c.1 1.8 1 3.3 3 3.9.9.3 1.9.4 2.9.3 1.6-.1 3.1-.6 4-1v-4.1c-1.1.4-2.1.7-3.3.3-.8-.2-1.2-.8-1.2-2v-10.3zm-67.8-10.9c1.1-.4 2-.6 3.6-.4l.9-3.7c-2.8-.9-7.1-.7-9.4 1.3-1 .8-1.6 1.9-2 2.9-.7 1.8-.5 4.7-.5 6.6h-3v4.3h3v17.1h5.6v-17.1l5.4-.1v-4.1h-5.5c0-.9-.1-3.3.1-4.2.1-1.2.7-2.2 1.8-2.6zm51.9 23.5c-.5-.3-.8-.8-.8-1.5v-7c0-6.5-5.1-9.8-11.4-8.7-1.9.3-3.9 1.5-5.1 2.5-.5-1.3-1.8-2-3.3-2.2-1.4-.2-2.8.2-3.8.7v3.6c.7 0 1.2.1 1.6.3.8.5.8 1.5.8 3v13.6h5.7v-12.4c0-2.3 2.7-4.6 4.8-4.6 4.4 0 5 3 5 6.7v4.3c0 1.2 0 2 .2 2.8.4 1.3 1.2 2.5 2.3 3.1 1.6.9 3.7.8 5.7-.1v-3.8c-.4.1-1.3 0-1.7-.3zm59.2-6.4c-.7-.7-1.4-1.4-2.3-1.9-1.3-.7-4.3-1-6.6-1.5-1.3-.2-3.9-.5-3.2-2.5.5-1.7 3.6-1.5 5-1.4 1.4.2 3.2.4 4.5 1.2l1.9-3.5c-2-1-4.3-1.6-6.6-1.9-3.2-.3-6.3.2-8.7 2.5-.9.9-1.6 2.2-1.7 3.6-.3 5.7 5.3 6.7 9.4 7.2 2.1.3 4.1.4 4.2 2 .1 1.5-2.5 2.4-3.7 2.5-1.3.1-4.6.2-7.7-1.8-.1-.1-2.1 3.3-2.1 3.3 1.2 1.2 2.3 1.9 4 2.4 1.7.6 4.2 1 6.4.8 3.9-.3 7.5-2.3 8.4-6.2.5-1.8-.3-3.4-1.2-4.8zm-69.4 14.1c-6.5.1-11.8 5.5-11.8 12.1 0 6.7 5.4 12.1 12.1 12.1h56.7c6.5-.1 11.8-5.5 11.8-12.1v-12.1zm17.9 19c-1.6.7-2.8.1-2.8.1-.5-.2-1.1-1-1.2-1.8-.1-.9-.1-2.4-.1-3.4 0-1.7-.3-3.2-2.4-3.2-1.1 0-2.4 1.3-2.4 2.4v6.2h-2.8v-6.3c-.2-1.3-.8-2.3-2.6-2.3-1.1 0-2.4 1.2-2.4 2.3v6.3h-2.8v-7.4c0-.4.1-1.3-1.2-1.2v-1.8c.5-.3 1.4-.4 2-.3.7.1 1.2.5 1.5 1.1.6-.5 1.6-1.1 2.6-1.3 1.9-.3 3.5.1 4.6 1.2.8-.5 2.2-1.1 3-1.2 3.1-.5 5.7 1.1 5.7 4.3v3.5c.1.8.5.9 1.2.9v1.9zm12.6-.1c-2.1.9-3.1-.6-3.2-.8-.9.9-2.7 1.5-4.4 1.3s-2.7-1.3-3.1-2c-.5-.9-.4-2.3-.1-2.9.3-.9 1.1-1.6 2-2 1.2-.5 2.7-.6 4.1 0l-.3 1.8c-.7-.2-1.6-.1-1.6-.1-.6 0-.9.1-1.3.4-.4.4-.6.8-.5 1.1 0 .4.2.7.5 1 .7.6 1.8.6 2.9.3.5-.2.9-.7 1.1-1.1.4-.6.4-2.1.3-2.8 0-.6-.1-1.2-.3-1.6-.3-.6-1.3-.9-2-.9-.9-.1-2.2.1-3.5.6l-.4-1.9c3-1.3 4.8-1 5.9-.7.7.2 1.5.6 2 1.1.8.9 1 1.7 1 2.6v1.6c0 .5 0 1.5-.1 2 0 .4.1 1.2 1.1 1.1v1.9zm7.4-8.4h-2.9v4.2c0 .5-.1 1.4.2 1.7.5.6 1.9.5 2.5.3v2.1c-.4.5-2.6.5-2.6.5-.5 0-1-.1-1.5-.2-2-.5-1.7-3.1-1.7-4.7v-3.9h-1.6v-2.2h1.8l.2-2.4 2.7-1-.1 3.4h3zm3.9 3.5c.1 1.2.6 2 1 2.3.6.5 1.3.8 2.2.8s1.8-.3 2.1-.4l.3 2.1c-1.8.8-3.6.5-4.7.2-1.3-.4-2.5-1.3-3.1-2.6-.4-.8-.5-1.5-.5-2.5 0-.8.1-1.6.4-2.3s.6-1.2 1.1-1.7 1.1-.9 1.8-1.2c1.2-.5 2.7-.7 5 .1l-.3 2c-1.1-.4-1.8-.3-2.3-.3-.9 0-1.8.5-2.2 1.1s-.8 1.1-.8 2.4zm18.3 5c-1 .5-2.3.4-2.8 0-.7-.6-1-1.5-1-2.3v-2.8c0-1.7-.3-3.1-2.3-3.1-1.1 0-2.3 1.3-2.3 2.4v6.3h-2.6v-15.6l2.6-1v6.5c3.5-2.7 7.4 0 7.2 3.4v3.3c0 .4 0 1.1 1.2 1.1zm26.3-43.7c-1.4 4.6-2.7 9-4.9 13.5-2.3-4.2-4-8.8-5.3-13.5h-5.4c1.6 6.4 4.3 13.2 8 18.6 0 0-.4 5.7-6.1 6.1v4.5c1.1 0 6.3.4 11.4-9.3 3.4-6.3 5-10.3 7.7-19.9zm-102.9 16.9c-.5-.2-.9-.5-1.1-.9-.1-.3-.2-.7-.2-1.1l.1-3.9v-3.3c-.1-2.1-.7-4.2-2.2-5.8-1-1.1-2.4-1.8-3.9-2.3-1.9-.6-4-.6-5.9-.3-2.1.3-4.3.8-6.2 1.7l.8 4c.7-.3 1.3-.5 1.9-.6 1.4-.3 3.5-.7 5.8-.6 1.3.1 3.1.7 3.7 2.1.4.7.5 1.7.5 3.1 0 1.2 0 2.4-.1 3.1v.3c-.1.8-.3 1.7-.7 2.3-.5.8-1.1 1.5-2 1.9s-2.1.5-3.1.5c-.9 0-1.8-.3-2.6-.8s-1.2-1.2-1.3-2 .2-1.7 1-2.4 2-1 3.1-1c1 0 2 .1 2.9.3l.6-3.8c-1.4-.7-3.2-.9-5-.8-1.2.1-2.4.3-3.4.8-2 .8-3.6 2.4-4.2 4.4-.6 2.1-.4 4.4.7 6.2.6.9 1.4 1.8 2.4 2.4 1.3.8 2.8 1.2 4.3 1.3 2.3.2 5.4-.4 7.3-1.8.3-.3.7-.6 1-.9 1.3 2.2 4.3 2.9 6.7 1.7v-3.7c-.3 0-.6 0-.9-.1z" fill="#d469b3"/></svg>