<?xml version="1.0" encoding="UTF-8"?>
<!-- Generator: Adobe Illustrator 25.2.1, SVG Export Plug-In . SVG Version: 6.00 Build 0)  -->
<svg version="1.1" id="Layer_1" xmlns="http://www.w3.org/2000/svg"  x="0px" y="0px" viewBox="0 0 621.2 96" style="enable-background:new 0 0 621.2 96;" xml:space="preserve">
<style type="text/css">
	.st0{fill-rule:evenodd;clip-rule:evenodd;fill:#2DBB54;}
</style>
<desc>Created with Sketch.</desc>
<g id="Page-1">
	<g id="Desktop-HD" transform="translate(-205.000000, -29.000000)">
		<g id="Group-30" transform="translate(205.000000, 29.000000)">
			<path id="Combined-Shape" class="st0" d="M54.1,33.3l38.9,34c1.3,1.1,1.5,3.2,0.3,4.5c-1.1,1.3-3.1,1.5-4.4,0.3l-7-6.1l-29.8,30     l-29.8-30l-7,6.1c-0.6,0.5-1.3,0.8-2.1,0.8c-0.9,0-1.8-0.4-2.4-1.1c-1.1-1.3-1-3.3,0.3-4.5l38.9-34     C51.2,32.2,52.9,32.2,54.1,33.3z M588.9,37.6l6,17.1l4.7,14l5.1-13.7l7.2-17.4h9.2L597,94h-9.1l7.2-16.9l-15.9-39.5H588.9z      M52.1,39.9L27,61.7l25,25.2l25-25.2L52.1,39.9z M479.2,18.4c10.6,0,17.8,3.5,21.5,10.3l0,0l-7.2,3.7c-2.4-3.2-7.7-6.2-14-6.2     c-9.5,0-12.9,4.5-12.9,8.6c0,6.1,7.1,7.4,13.7,8.2c13.5,1.7,22.5,5.3,22.5,17.7c0,13-12.1,17.7-23.4,17.7     c-12.5,0-20.2-4.1-24.1-13l0,0l7.5-3.9c2.7,5.6,8.9,8.9,16.7,8.9c8.8,0,14.2-3.7,14.2-9.6c0-5.3-4.6-8.4-14.2-9.5     c-11.4-1.4-22-4.3-22-16.7C457.7,23.5,468.5,18.5,479.2,18.4z M352.3,36.5c6.3,0,10.6,1.3,14.6,4.6l0,0l-4.4,5.3     c-2.7-2.2-5.9-3.3-10-3.3c-7.5,0-8.3,3.5-8.3,5c0,4.9,6.4,5.3,8.5,5.4c8.2,0.5,16.6,2.4,16.6,12.2c0,7.6-6.5,12.6-16.6,12.6     c-5.8,0-11.9-0.8-17.7-6.5l0,0l3.9-5.7c3.5,3.2,9.7,5.2,13.9,5.2c2.6,0,5.2-0.8,6.7-2.3c1-1,1.5-2.2,1.5-3.5c0-4.1-4.3-5-8.9-5.2     c-7.3-0.6-16-3.1-16-11.8C336,39,346.3,36.5,352.3,36.5z M438.8,36.5c5.5,0,9.5,1.6,13.5,5.2l0,0l-5.2,5.5     c-2.4-1.9-5.2-2.9-8.1-2.9c-7.3,0-12.6,5.5-12.6,13.1c0,8.9,6.3,12.9,12.5,12.9c3.5,0,6.6-1.1,8.9-3.1l0,0l5.5,5.4     c-4.2,3.9-8.7,5.6-14.4,5.6c-15.3,0-20.8-10.8-20.8-20.8S423.5,36.5,438.8,36.5z M553.3,36.6c5.2,0,10.1,2.5,12.2,6.2l0,0     l1.5,2.6l0.5-7.8h7.9v39.2h-7.8l-0.7-8.5l-1.4,3c-2.1,4.3-7.8,6.6-12.4,6.7c-5.9,0.1-11-1.8-14.5-5.3c-3.6-3.6-5.6-9-5.6-15.6     c0-6.2,1.9-11.5,5.5-15.1c3.5-3.5,8.7-5.5,14.6-5.5l0,0H553.3z M187.6,36.6c5.2,0,10.1,2.5,12.2,6.2l0,0l1.5,2.6l0.5-7.9h7.9     v39.2h-7.8l-0.7-8.5l-1.4,3c-2,4.3-7.9,6.6-12.4,6.7l0,0h-0.2c-5.9,0-10.8-1.8-14.3-5.3c-3.6-3.6-5.6-9-5.6-15.6     c0-6.2,1.9-11.5,5.5-15.1c3.6-3.6,8.7-5.5,14.6-5.5l0,0H187.6z M307.4,36.6c5.2,0,10.1,2.5,12.2,6.2l0,0l1.5,2.6l0.5-7.8h7.9     v39.2h-7.8l-0.7-8.5l-1.4,3c-2.1,4.3-7.8,6.6-12.4,6.7l0,0h-0.2c-5.9,0-10.8-1.8-14.3-5.3c-3.6-3.6-5.6-9-5.6-15.6     c0-6.2,1.9-11.5,5.5-15.1c3.6-3.6,8.7-5.5,14.6-5.5l0,0H307.4z M518.5,26.2v11.6h11.3v6.9h-11.3v18.6c0,4.2,2.3,6.7,6.2,6.7     c1.3,0,2.9-0.3,4.3-0.9l0,0l2.2,6.9c-2.5,0.9-4.6,1.3-7.3,1.4c-4.2,0.2-7.6-1-9.9-3.2c-2.5-2.4-3.8-6.1-3.8-10.9l0,0V44.6h-7.6     v-6.9h7.6V27.1L518.5,26.2z M272.6,26.2v11.6h11.3v6.9h-11.3v18.6c0,4.2,2.3,6.7,6.2,6.7c1.3,0,2.9-0.3,4.3-0.9l0,0l2.2,6.9     c-2.5,0.9-4.6,1.3-7.3,1.4c-4.2,0.2-7.6-1-9.9-3.2c-2.5-2.4-3.8-6.1-3.8-10.9l0,0V44.6h-7.6v-6.9h7.6V27.1L272.6,26.2z      M386.6,26.2v11.6h11.3v6.9h-11.3v18.6c0,4.2,2.3,6.7,6.2,6.7c1.3,0,2.9-0.3,4.3-0.9l0,0l2.2,6.9c-2.5,0.9-4.6,1.3-7.3,1.4     c-4.2,0.2-7.6-1-9.9-3.2c-2.5-2.4-3.8-6.1-3.8-10.9l0,0V44.6h-7.6v-6.9h7.6V27.1L386.6,26.2z M238.8,37c9.8,0,16.4,7.7,16.4,19.2     l0,0v20.7h-8.3V56.3c0-7.2-4.2-11.9-10.7-11.9c-6.5,0-11.3,5.3-11.3,12.4l0,0v20.1h-8.2V37.5h7.3l0.8,6.6l1.3-1.3     C230.2,38.8,234.1,37,238.8,37z M412,37.5v39.4h-8.3V37.5H412z M164,20.5v8.8h-30.7V47h29v8.3h-29v21.6h-9.1V20.5H164z      M50.5,64.3v7.3h-7.3v-7.3H50.5z M60.9,64.3v7.3h-7.3v-7.3H60.9z M554.2,43.9c-7.6,0-13,5.5-13,13.3c0,7.9,5.3,13.4,13,13.4     c4,0,7.3-1.5,9.6-4.2c2.1-2.4,3.2-5.7,3.2-9.1C567,50.6,562.6,43.9,554.2,43.9z M188.5,43.9c-7.6,0-13,5.5-13,13.3     c0,7.9,5.3,13.4,13,13.4c4,0,7.3-1.5,9.6-4.2c2.1-2.4,3.2-5.7,3.2-9.1C201.4,50.6,197,43.9,188.5,43.9z M308.3,43.9     c-7.6,0-13,5.5-13,13.3c0,7.9,5.3,13.4,13,13.4c4,0,7.3-1.5,9.6-4.2c2.1-2.4,3.2-5.7,3.2-9.1C321.1,50.6,316.7,43.9,308.3,43.9z      M50.5,54v7.3h-7.3V54H50.5z M60.9,54v7.3h-7.3V54H60.9z M30,2.1c8,0,15.6,3.1,21.2,8.9c0.3,0.3,0.5,0.6,0.8,0.8     c0.3-0.3,0.5-0.6,0.8-0.8c5.7-5.7,13.2-8.9,21.2-8.9c8,0,15.6,3.1,21.2,8.9c11.8,11.9,11.8,32.7,0,44.5l-2.9,2.9l-6.1-5.4     l3.2-3.3c8.6-8.6,8.6-24.4,0-33c-4.1-4.2-9.6-6.5-15.5-6.5c-5.9,0-11.4,2.3-15.5,6.5c-1.2,1.2-2.2,2.5-3.1,3.9l-3.4,5.5l-3.4-5.5     c-0.9-1.4-1.9-2.7-3.1-3.9c-4.1-4.2-9.6-6.5-15.5-6.5h0c-5.9,0-11.4,2.3-15.5,6.5c-4.1,4.1-6.4,10.1-6.4,16.5     c0,6.4,2.3,12.4,6.4,16.5l3.3,3.3l-6.2,5.4l-2.9-2.9C3.2,49.8,0,41.7,0,33.2c0-8.5,3.2-16.6,8.8-22.3C14.5,5.2,22,2.1,30,2.1     L30,2.1z M408.4,20.1c2.4,0,5.1,1.6,5.1,5c0,3.5-2.6,5-5.1,5c-2.4,0-5.1-1.6-5.1-5C403.4,21.7,406,20.1,408.4,20.1z"/>
		</g>
	</g>
</g>
</svg>