<?xml version="1.0" ?>
<svg xmlns="http://www.w3.org/2000/svg" data-icon="customers/fartskriver" viewBox="24.875 6.935 300.249 92.131">
	<g fill="#000">
		<path d="M267.756 29.999c10.415-.018 29.421-.018 43.525.051-3.864 8.995-4.076 9.456-6.296 14.133-13.706 0-16.918 0-26.427.019-1.059 2.101-1.419 2.889-2.476 5.141-8.968 0-10.521-.005-16.704-.045 2.844-6.415 5.705-12.814 8.378-19.299zm-17.48 21.984c16.764-1.088 36.667-1.473 50.996-1.473-.446.889-1.071 2.297-1.071 2.297s-41.555-.294-49.925-.824zm-2.145 3.693c14.923-.865 36.455-1.376 51.403-1.256-.35.904-.589 1.449-1.019 2.521-14.64-.026-26.935-.087-43.507-.857l-6.877-.408zm-.497 3.766c18.633-1.067 32.481-1.084 50.456-1.062-.334.848-.66 1.696-.985 2.544-12.662-.257-44.009-1.298-49.471-1.482zm-1.474 4.171c23.604-1.405 31.151-1.364 50.318-1.405-.206.608-.608 1.825-.814 2.433-9.328.009-42.325-.942-49.504-1.028zm6.044 2.241c6.371-.055 10.359 0 16.409 0-1.491 3.307-3.016 6.797-4.618 10.053-8.044.046-10.159.046-15.865 0 1.32-3.325 2.619-6.383 4.074-10.053zM28.757 29.244h20.189v4.849H34.475v6.782h12.263v4.89H34.475v11.672h-5.717V29.244zm33.95 28.193c-.158-.21-.289-.525-.394-.946a10.255 10.255 0 0 1-.236-1.302h-.079a7.125 7.125 0 0 1-.887 1.085 4.671 4.671 0 0 1-1.183.847 6.964 6.964 0 0 1-1.636.571c-.631.145-1.38.218-2.248.218-2.077 0-3.772-.526-5.086-1.578-1.315-1.051-1.972-2.588-1.972-4.614 0-1.103.21-2.036.631-2.799a5.438 5.438 0 0 1 1.735-1.893c.736-.499 1.597-.887 2.583-1.163s2.044-.493 3.174-.651c1.682-.237 2.918-.486 3.706-.749.788-.263 1.183-.775 1.183-1.538 0-.735-.283-1.321-.848-1.754-.566-.434-1.413-.651-2.543-.651-1.262 0-2.208.231-2.839.69-.631.46-.986 1.177-1.065 2.149h-4.771a6.49 6.49 0 0 1 .591-2.543c.368-.802.907-1.505 1.617-2.11s1.603-1.091 2.681-1.459c1.077-.368 2.352-.552 3.825-.552 3.023 0 5.198.651 6.526 1.952 1.327 1.302 1.991 3.135 1.991 5.501V54.44c0 1.525.236 2.458.709 2.799v.197h-5.165zm-5.362-3.273c.762 0 1.439-.112 2.031-.335a4.882 4.882 0 0 0 1.498-.868c.407-.355.716-.762.927-1.222.21-.459.315-.939.315-1.439v-3.037c-.473.289-1.045.52-1.715.69a91.37 91.37 0 0 1-2.031.493c-1.419.315-2.471.684-3.154 1.104-.684.421-1.025 1.104-1.025 2.05 0 .946.289 1.61.868 1.991.577.383 1.339.573 2.286.573zm18.374-13.722h.118c.604-1.157 1.288-2.024 2.05-2.603.762-.578 1.735-.868 2.918-.868.552 0 .972.053 1.262.158v4.692h-.118c-1.761-.184-3.207.197-4.338 1.143-1.131.947-1.695 2.485-1.695 4.614v9.858h-5.363V37.209h5.165v3.233zm7.688-3.233h2.8V30.9h5.244v6.309h3.47v3.549h-3.47v10.725c0 .762.184 1.288.552 1.577.368.289.854.434 1.459.434h1.025c.184 0 .368-.013.552-.04v3.944a8.562 8.562 0 0 1-.868.039c-.289.026-.644.039-1.065.039h-1.42a8.861 8.861 0 0 1-1.952-.217 4.886 4.886 0 0 1-1.755-.769c-.526-.368-.953-.868-1.282-1.498-.329-.632-.493-1.42-.493-2.366V40.758h-2.8v-3.549zm22.672 20.819c-2.944 0-5.218-.651-6.822-1.952-1.604-1.302-2.484-3.029-2.642-5.185h4.968c.184 1.183.664 2.037 1.439 2.562.775.526 1.768.789 2.977.789 1.183 0 2.096-.21 2.741-.631.644-.42.966-.985.966-1.696 0-.473-.152-.854-.453-1.144-.302-.289-.697-.525-1.183-.709a9.838 9.838 0 0 0-1.696-.453c-.645-.119-1.308-.243-1.991-.375a37.327 37.327 0 0 1-2.661-.631 7.853 7.853 0 0 1-2.287-1.026 5.114 5.114 0 0 1-1.617-1.735c-.408-.709-.611-1.616-.611-2.72s.21-2.056.631-2.859a5.72 5.72 0 0 1 1.755-2.011c.749-.539 1.622-.939 2.622-1.203a12.701 12.701 0 0 1 3.233-.394c2.681 0 4.745.605 6.19 1.814 1.446 1.21 2.273 2.839 2.484 4.89h-4.85c-.132-1.104-.526-1.873-1.183-2.307-.658-.433-1.564-.65-2.721-.65-1.052 0-1.893.191-2.523.571-.631.381-.947.94-.947 1.676 0 .448.158.796.473 1.045.315.25.729.461 1.242.632a11.05 11.05 0 0 0 1.774.414c.671.105 1.361.236 2.07.394.841.184 1.689.394 2.544.631a7.898 7.898 0 0 1 2.307 1.045 5.25 5.25 0 0 1 1.656 1.814c.42.75.631 1.716.631 2.899 0 1.025-.21 1.938-.631 2.741a5.908 5.908 0 0 1-1.755 2.03c-.749.552-1.643.98-2.681 1.282-1.037.301-2.187.452-3.449.452zm18.571-9.818-2.326 2.406v6.821h-5.323V29.244h5.323v15.614l7.176-7.649h6.427l-7.452 7.689 8.36 12.539h-6.506l-5.679-9.227zm19.045-7.768h.118c.604-1.157 1.288-2.024 2.05-2.603.762-.578 1.735-.868 2.918-.868.552 0 .972.053 1.262.158v4.692h-.118c-1.761-.184-3.207.197-4.338 1.143-1.131.947-1.695 2.485-1.695 4.614v9.858h-5.363V37.209h5.165v3.233zm8.675-11.198h5.362v4.81h-5.362v-4.81zm0 7.965h5.362v20.228h-5.362V37.209zm7.176 0h5.442l3.233 10.489c.131.499.256.94.375 1.321.118.381.217.716.295 1.006.105.315.184.617.237.907h.079c.026-.289.092-.591.197-.907l.276-1.006c.105-.381.237-.821.394-1.321l3.313-10.489h5.362l-7.058 20.228h-5.126l-7.019-20.228zm29.928 20.819c-1.682 0-3.174-.276-4.475-.828-1.302-.552-2.399-1.308-3.293-2.267-.894-.96-1.571-2.096-2.031-3.411-.46-1.314-.689-2.721-.689-4.22 0-1.498.243-2.898.729-4.199.486-1.301 1.169-2.424 2.05-3.371a9.722 9.722 0 0 1 3.154-2.247c1.223-.552 2.57-.828 4.042-.828 1.63 0 3.062.295 4.297.887a8.609 8.609 0 0 1 3.115 2.504c.841 1.078 1.479 2.36 1.912 3.845.434 1.486.651 3.135.651 4.949H184.27c.21 1.577.742 2.812 1.597 3.706.853.894 2.044 1.341 3.568 1.341 1.052 0 1.893-.223 2.524-.67.631-.447 1.091-1.052 1.38-1.814h5.284a7.963 7.963 0 0 1-1.006 2.544 7.803 7.803 0 0 1-1.893 2.109c-.775.606-1.689 1.084-2.741 1.44-1.051.353-2.221.53-3.509.53zm-.433-17.231c-1.42 0-2.498.388-3.233 1.164-.736.775-1.222 1.833-1.459 3.174h8.99c-.079-1.287-.507-2.332-1.282-3.135-.775-.801-1.781-1.203-3.016-1.203zm17.546-.355h.118c.605-1.157 1.287-2.024 2.05-2.603.762-.578 1.735-.868 2.918-.868.552 0 .972.053 1.262.158v4.692h-.118c-1.762-.184-3.207.197-4.338 1.143-1.13.947-1.696 2.485-1.696 4.614v9.858h-5.362V37.209h5.166v3.233z">
  </path>
		<path d="M279.059 99.065c-25.4 0-46.065-20.665-46.065-46.066s20.665-46.065 46.065-46.065S325.125 27.6 325.125 53s-20.666 46.065-46.066 46.065zm0-89.561c-23.983 0-43.495 19.512-43.495 43.495 0 23.984 19.512 43.496 43.495 43.496 23.984 0 43.496-19.512 43.496-43.496 0-23.983-19.512-43.495-43.496-43.495z">
  </path>
		<path d="M24.875 61.364h210.28v2.57H24.875z">
  </path>
	</g>
</svg>