<svg class="brxe-svg header__logo" xmlns="http://www.w3.org/2000/svg" data-name="Layer 1" viewBox="0 0 387.27 70.93"><path d="M111.07 6.8c-2.2-.4-5.1-.8-6.9-.8-4.4 0-5.6 1.5-5.6 5.7v7h11.9l-.6 6h-11.3v35.6h-7.2V24.7h-7.3v-6h7.3V11c0-7.3 4.1-11 11.8-11 2.7 0 5.6.3 8.5 1.2l-.6 5.6ZM147.97 60.3h-6.1l-.4-3.1c-3.7 2.6-8.5 3.9-13.5 3.9-7.8 0-11-4.6-11-12 0-8.6 4.4-11.7 12.7-11.7h11.1V31c0-5.2-2.3-7-9.1-7-4 0-9.2.7-12.5 1.4l-.8-5.7c3.9-1 9.2-1.8 13.7-1.8 11.9 0 15.8 4.6 15.8 13.5v28.9h.1Zm-7.2-16.8h-10.6c-4.4 0-6.1 1.4-6.1 5.6s.8 6 5.9 6c3.6 0 7.6-1.4 10.8-3.4v-8.2ZM172.17 61.2c-4.3 0-9.9-.9-13.2-2.2l.9-5.6c3.6 1 8.3 1.7 11.9 1.7 6.6 0 7.7-1.2 7.7-5.6s-.3-5-8.7-7c-10.3-2.6-11.3-4.7-11.3-13.3 0-7.7 3.4-11.2 14.4-11.2 4 0 8.4.5 11.8 1.5l-.5 5.9c-3.5-.7-8.1-1.2-11.5-1.2-6.2 0-7 1.5-7 5.2 0 4.6.1 5.5 7.1 7.2 12 3 12.9 4.4 12.9 12.7-.2 8-2.7 11.9-14.5 11.9ZM219.77 59.6c-2.6.9-5.6 1.5-8.7 1.5-7 0-10.3-2.6-10.3-9.5v-27h-7.3v-6h7.3V8.5l7.2-1v11.3h11.8l-.6 6h-11.2v25.8c0 3.1.4 4.6 4.3 4.6 2 0 4-.3 6.7-1l.8 5.4ZM262.57 60.3l-10-35.3-10.1 35.3h-9.2l-8.9-41.6h6.8l6.9 34.5 10.1-34.5h8.7l10.1 34.5 6.9-34.5h6.8l-8.9 41.6h-9.2ZM318.57 60.3h-6.1l-.4-3.1c-3.7 2.6-8.5 3.9-13.5 3.9-7.8 0-11-4.6-11-12 0-8.6 4.4-11.7 12.7-11.7h11.1V31c0-5.2-2.3-7-9.1-7-4 0-9.2.7-12.5 1.4l-.8-5.7c3.9-1 9.2-1.8 13.7-1.8 11.9 0 15.8 4.6 15.8 13.5v28.9h.1Zm-7.2-16.8h-10.6c-4.4 0-6.1 1.4-6.1 5.6s.8 6 5.9 6c3.6 0 7.6-1.4 10.8-3.4v-8.2ZM350.27 24.4c-3.9 1.9-8.5 4.8-11.9 7.2v28.7h-7.2V18.7h6.2l.4 5.8c3.1-2.4 7.3-5 11.5-6.7l1 6.6ZM372.47 55c4.1 0 8.6-.8 13.2-2l.9 5.7c-3.9 1.5-9.5 2.4-14.7 2.4-12.3 0-16.5-5.9-16.5-15.3V33.4c0-8.6 3.9-15.6 16.3-15.6s15.6 7.1 15.6 15.7v8.7h-24.8v3.5c.1 6.7 1.9 9.3 10 9.3Zm-9.9-18.7h17.9v-3.4c0-5.8-2-9.1-8.7-9.1s-9.1 3.2-9.1 9.1v3.4h-.1ZM68.97 21.1c-7.5.1-15.5-.2-24-.8-9.8-.7-17.2-.9-22.6-.5-6 .4-10.8 1.4-14.6 2.9-3.9 1.5-6.4 3.3-7.3 5.2-1.1 2.3-.3 4.3 2.7 5.7 3.1 1.5 8.4 2.1 15.9 1.5 5.3-.4 15.1-2.3 28.8-5.6 7.5-1.9 14.9-3.2 22.4-4.1-.7-.6-1.2-1.3-1.5-2-.2-.8-.2-1.6.2-2.3ZM74.37 17.7c-5.2-2.1-10.1-4.4-14.5-6.9-4.8-2.8-8.7-4.6-12.1-5.5-3.6-1-7-1.4-10.4-1.2-3.4.1-6.2.7-8.5 1.6-2.7 1.1-4.2 2.3-4.4 3.7-.2 1.5 1.5 2.8 5.2 4.1 2.7 1 9.4 2.2 20.3 3.6 6.6.9 13 2.1 19.1 3.6 1-1.2 2.8-2.3 5.3-3ZM49.27 34.4c-11.1 3.8-19.6 7.3-25 10.6-6.4 3.8-10.5 7.7-12 11.6-1.6 4.3-.8 7.8 2.7 10.4 4.3 3.2 10.2 4.5 17.6 3.7 7.4-.8 14.6-4 21.3-9.5 4.5-3.6 9.7-10.8 15-20.4 2.6-4.8 5.9-8.9 9.7-12.4-3.3-.5-6.1-1.5-8-2.8-5.4 2.9-12.5 5.8-21.3 8.8Z"></path></svg>