<svg xmlns="http://www.w3.org/2000/svg" viewBox="0 0 190.073 40"><defs><style>.a{fill:#00447c;}.b{fill:#fff;}.c{fill:none;stroke:#00447c;stroke-miterlimit:10;stroke-width:2px;}</style></defs><g transform="translate(-0.02 0)"><path class="a" d="M11.039.76A5.055,5.055,0,0,0,6,5.809V27.283a5.055,5.055,0,0,0,5.049,5.049H40.018a5.055,5.055,0,0,0,5.049-5.049V5.809A5.055,5.055,0,0,0,40.018.76" transform="translate(-5.98 -0.76)"/><path class="b" d="M41.058,3a3.859,3.859,0,0,1,3.854,3.854V28.327h0a3.859,3.859,0,0,1-3.854,3.864H12.079A3.864,3.864,0,0,1,8.22,28.332V6.859A3.859,3.859,0,0,1,12.079,3" transform="translate(-7.02 -1.809)"/><path class="a" d="M13.4,5.84A2.349,2.349,0,0,0,11.05,8.189V29.663A2.355,2.355,0,0,0,13.4,32.018H42.383a2.349,2.349,0,0,0,2.349-2.355V8.189A2.349,2.349,0,0,0,42.383,5.84" transform="translate(-8.346 -3.14)"/><path class="b" d="M27.695,10h.33a.324.324,0,0,1,.122.1c.027.1.053.1.08.2a.978.978,0,0,0,.048.133l1.414,4.459.074.229a.617.617,0,0,1,.048.229.314.314,0,0,1-.324.3c-.154,0-.229-.069-.377-.33s-.33-.489-.585-.85c-1.483-2.068-2.721-3.019-4.385-3.444a11.481,11.481,0,0,0-2.392-.229c-1.866,0-2.2.3-2.2,1.967v7.4l1.281.032H21.3c3.125,0,3.869-1.063,4.146-4.2h.633v9.429h-.606c-.276-3.083-1.409-4.2-4.385-4.2h-1.5v7.526c-.027,1.8.3,2.259,1.595,2.259H21.7v.819H14.088v-.85l.5.032c1.313,0,1.595-.425,1.595-2.163V12.658c0-1.409-.431-1.871-1.664-1.871H14.04V10Z" transform="translate(-9.747 -5.089)"/><path class="b" d="M50.223,10.1H50.4c2.822,0,4.412.59,5.645,2.126a4.624,4.624,0,0,1,.882,2.817c0,2.759-1.94,4.784-5.039,5.15,3.88.532,5.948,2.589,5.948,5.932,0,3.673-2.371,5.735-6.474,5.735h-8.5v-.749h.282c1.483,0,1.887-.457,1.887-2.227V12.938c0-1.51-.452-2.036-1.664-2.036H42.83v-.8ZM48.384,20.986v8.2c0,1.446.351,1.9,1.51,1.9a4.053,4.053,0,0,0,2.519-.532c1.238-.824,1.717-2.126,1.717-4.624,0-3.721-1.238-5.177-4.358-5.177a7.787,7.787,0,0,0-1.137.064h-.223a.468.468,0,0,1,0,.165Zm.1-1.249a5.847,5.847,0,0,0,.755.037c2.094,0,2.849-.3,3.455-1.313a5.333,5.333,0,0,0,.654-3.019c0-3.375-.882-4.587-3.354-4.587-1.26,0-1.637.462-1.637,1.935v6.229l.027.558v.159Z" transform="translate(-23.234 -5.136)"/><path class="a" d="M97.382,4.216h-6.7V17.159c5.8,0,9.977.356,9.977-4.534a.351.351,0,1,1,.7,0v10.63a.351.351,0,1,1-.7,0c0-5.049-4.172-4.922-9.977-4.922V28.22c0,3.333,3.067,1.722,3.067,2.913a.431.431,0,0,1-.452.457c-.834,0-1.674-.074-4.289-.074s-3.45.074-4.284.074a.431.431,0,0,1-.457-.457c0-1.191,3.067.42,3.067-2.913V6.2c0-3.338-3.067-1.727-3.067-2.913a.431.431,0,0,1,.457-.462c.834,0,1.669.08,4.284.08,6.453,0,11.656-.043,15.037-.08L105.971,9.3c.175.654-.436.675-.7.42C105.275,9.739,100.751,4.211,97.382,4.216Z" transform="translate(-42.647 -1.729)"/><path class="a" d="M128.346,34.218c0,2.413,2.785,1.265,2.785,2.3,0,.345-.191.457-.606.457-.935,0-1.8-.074-3.869-.074s-2.934.074-3.875.074c-.415,0-.6-.112-.6-.457,0-1.036,2.78.112,2.78-2.3V23.64c0-2.567-2.78-1.494-2.78-2.376,0-.691.941-.037,6.166-2.068Zm-4.061-17.732a2.068,2.068,0,1,1,4.135,0,2.068,2.068,0,1,1-4.135,0Z" transform="translate(-60.408 -7.131)"/><path class="a" d="M223.151,3h.287c4.576,0,7.154.776,9.158,2.8a5.315,5.315,0,0,1,1.43,3.721c0,3.609-3.147,6.235-8.18,6.75,6.3.734,9.652,3.4,9.652,7.787,0,4.821-3.843,7.532-10.508,7.532H211.213v-.994h.447c2.413,0,3.067-.606,3.067-2.929V6.753c0-1.977-.734-2.658-2.7-2.658h-.856V3Zm-2.987,14.3V28.051c0,1.892.574,2.5,2.456,2.5a8.046,8.046,0,0,0,4.087-.691c2-1.063,2.78-2.753,2.78-6.065,0-4.906-2-6.8-7.075-6.8a15.238,15.238,0,0,0-1.839.085h-.367C220.206,17.25,220.163,17.25,220.163,17.3Zm.165-1.637c.574.043.819.043,1.228.043,3.391,0,4.619-.388,5.6-1.722a5.863,5.863,0,0,0,1.063-3.955c0-4.433-1.43-6.022-5.437-6.022-2.041,0-2.658.6-2.658,2.535v8.154l.043.728v.218Z" transform="translate(-102.097 -1.809)"/><path class="a" d="M261.47,41.722a3.95,3.95,0,0,1-4.183-3.96c0-2.28,1.446-3.917,4.534-5.315l1.642-.686c.234-.128.824-.388,1.8-.861.532-.26.9-.473,1.137-.6.037-.043.117-.043.2-.133l.037-.34c.037-.563.037-1.063.037-1.292,0-2.126-1.015-3.226-2.971-3.226a2.6,2.6,0,0,0-2.812,2.711c0,.255.037.6.074.946A6.377,6.377,0,0,1,261.077,30a1.759,1.759,0,0,1-1.759,1.807A2.365,2.365,0,0,1,257,29.459c0-2.971,4.417-5.639,9.307-5.639,3.088,0,4.534,1.595,4.534,4.948,0,.819-.037,1.467-.154,4.646-.08,1.552-.117,3.056-.159,4.518v.175c0,1.2.239,1.674.941,1.674.351,0,.585-.17.819-.6l.159-.3c.154-.255.271-.34.5-.34s.431.255.431.6c0,1.462-1.409,2.583-3.189,2.583a4.194,4.194,0,0,1-3.8-1.983C264.441,41.158,263,41.722,261.47,41.722Zm4.731-9.833c-3.753,1.462-5.007,2.658-5.007,4.991a2.76,2.76,0,0,0,2.429,2.923c1.754,0,2.849-1.674,2.849-4.252v-.17c-.037-1.377-.037-2.413-.037-3.1v-.5Z" transform="translate(-123.568 -11.563)"/><path class="a" d="M289.326,25.93l.234-.085a31.593,31.593,0,0,0,5.065-1.935v2.658a8.483,8.483,0,0,1,5.916-2.658c3.359,0,5.172,2.45,5.172,7.011v7.314c0,1.595.356,2.02,1.818,2.126h.276v1.031H299.4v-1h.239c1.653-.09,1.929-.473,1.929-2.456V31.091c0-3.567-.983-5.507-2.881-5.507-1.419,0-2.918,1.207-3.784,3.056l.037,9.668v.218c0,1.2.436,1.632,1.818,1.85a1.244,1.244,0,0,1,.351.043v.946H288.89v-.93c.08-.043.159,0,.2-.043,1.738-.175,1.972-.473,1.972-2.238V28.513c0-1.164-.532-1.637-1.733-1.68Z" transform="translate(-138.507 -11.605)"/><path class="a" d="M326.226,5.427a16.318,16.318,0,0,0,3.157-.532c.9-.17,1.536-.345,2.009-.473a3.95,3.95,0,0,1,.532-.17c.043-.043.043,0,.08-.043.117,0,.159,0,.159.255v19.2l5.432-5.22.239-.26.627-.643a1.063,1.063,0,0,0,.239-.643c0-.431-.393-.691-1.185-.691V15.149h7.144v.9a8.72,8.72,0,0,0-5.762,2.8l-.2.17-2.052,1.935L342.767,29l.234.3c.436.532.675.856.755.946a2.44,2.44,0,0,0,.983.686,2.764,2.764,0,0,0,1.148.175v1.031h-9.323v-.9c.866-.128,1.382-.473,1.382-1.063,0-.3-.159-.532-.532-1.116l-.234-.345-3.593-4.784-1.382,1.334v3.269c0,2.062.356,2.45,2.169,2.493v1.063H325.79V31.025h.314c1.621,0,1.9-.383,1.9-2.838V9.174c0-1.807-.473-2.626-1.775-2.886Z" transform="translate(-155.794 -2.376)"/><path class="a" d="M143.88,28.058c0-2.721-2.7-1.648-2.7-2.6,0-.691,2.009-.2,5.82-1.993V27.5h.069c1.595-4.061,4.545-4.04,4.677-4.04a1.9,1.9,0,0,1,2.126,2.068,1.685,1.685,0,0,1-1.765,1.839c-1.18,0-1.063-.92-2.323-.92-1.456,0-2.806,2.53-2.806,6.708V38.47c0,2.413,2.567,1.265,2.567,2.3,0,.345-.175.457-.558.457-.866,0-1.664-.074-3.567-.074s-2.705.074-3.572.074c-.377,0-.532-.112-.532-.457,0-1.036,2.562.112,2.562-2.3Z" transform="translate(-69.309 -11.394)"/><path class="a" d="M171.879,23.46a12.879,12.879,0,0,1,5.028,1.148v4.906c0,.3-.106.42-.276.42-.282,0-.282-.345-.489-.994-.8-2.456-1.993-4.321-4.715-4.321a2.424,2.424,0,0,0-2.546,2.317c0,3.832,9.073,3.944,9.073,9.275,0,2.87-2.057,5.246-6.421,5.246A14.7,14.7,0,0,1,166,40.511V34.877c0-.457.106-.691.314-.691s.314.191.6,1.191c.941,3.333,2.9,4.933,5.374,4.933a2.955,2.955,0,0,0,3-2.785c0-3.949-9.073-3.386-9.073-9.121C166.229,25.836,168.248,23.46,171.879,23.46Z" transform="translate(-80.936 -11.394)"/><path class="a" d="M199.949,21.732h-4.842V32.464c0,2.53,1.063,3.062,2.8,3.062s2.206-1.68,2.982-1.68c.144,0,.25.112.25.3a5.259,5.259,0,0,1-5.023,3.45c-2.8,0-4.252-1.839-4.252-5.135V21.732h-2.44v-.074a58.218,58.218,0,0,0,5.6-6.458h.069v4.677h5.485Z" transform="translate(-91.908 -7.525)"/><line class="c" x2="104.003" transform="translate(41.622 35.74)"/><path class="a" d="M287.517,61.74h1.892l.787,3.721h0l1.834-3.721h1.887l-.8,5.677H291.87l.611-4.353h0l-2.126,4.353H289.4l-.824-4.353h0l-.611,4.353H286.72Z" transform="translate(-137.491 -29.328)"/><path class="a" d="M301.814,66.942a2.211,2.211,0,0,1,.282-.84,2.317,2.317,0,0,1,1.3-1.063,2.625,2.625,0,0,1,.866-.149,2.3,2.3,0,0,1,.824.149,1.738,1.738,0,0,1,.633.409,1.6,1.6,0,0,1,.372.648,1.9,1.9,0,0,1,.053.84,2.274,2.274,0,0,1-.287.845,2.478,2.478,0,0,1-.532.643,2.4,2.4,0,0,1-.749.415,2.616,2.616,0,0,1-.861.144,2.3,2.3,0,0,1-.829-.144,1.6,1.6,0,0,1-.627-.415,1.653,1.653,0,0,1-.372-.643,1.929,1.929,0,0,1-.069-.84Zm1.2,0a.893.893,0,0,0,.149.712.776.776,0,0,0,.67.276,1.063,1.063,0,0,0,.749-.276,1.191,1.191,0,0,0,.356-.712.9.9,0,0,0-.154-.712.808.808,0,0,0-.675-.271,1.063,1.063,0,0,0-.744.271A1.18,1.18,0,0,0,303.015,66.942Z" transform="translate(-144.553 -30.803)"/><path class="a" d="M312.261,65.01h1.212l-.09.622h0a1.85,1.85,0,0,1,.531-.532,1.292,1.292,0,0,1,.686-.181h.213a1.024,1.024,0,0,1,.191.032l-.154,1.1a2.151,2.151,0,0,0-.25-.064,1.935,1.935,0,0,0-.255,0,1.388,1.388,0,0,0-.532.1.84.84,0,0,0-.345.266,1.25,1.25,0,0,0-.2.415,4.341,4.341,0,0,0-.112.532l-.218,1.611h-1.2Z" transform="translate(-149.212 -30.817)"/><path class="a" d="M321.839,65.04h-1.063l-.186,1.3a1.988,1.988,0,0,0-.027.292.5.5,0,0,0,.048.229.308.308,0,0,0,.149.149.776.776,0,0,0,.3.053h.25a.489.489,0,0,0,.244-.09l-.133,1a1.945,1.945,0,0,1-.431.1,4.06,4.06,0,0,1-.431,0,2.222,2.222,0,0,1-.532-.064,1.063,1.063,0,0,1-.42-.207.765.765,0,0,1-.25-.361,1.292,1.292,0,0,1-.037-.532l.266-1.85h-.771l.138-.962h.771l.159-1.159h1.2l-.159,1.159h1.063Z" transform="translate(-152.529 -29.885)"/><path class="a" d="M329.634,68.549a2.657,2.657,0,0,1-.792,1.7,2.557,2.557,0,0,1-1.775.532,4.524,4.524,0,0,1-1.01-.117,1.972,1.972,0,0,1-.866-.452l.8-.994a2.093,2.093,0,0,0,.532.367,1.515,1.515,0,0,0,.654.138,1.212,1.212,0,0,0,.85-.271,1.111,1.111,0,0,0,.361-.686l.058-.377h0a1.4,1.4,0,0,1-.574.4,1.871,1.871,0,0,1-.6.117,1.892,1.892,0,0,1-.765-.149,1.456,1.456,0,0,1-.532-.42,1.478,1.478,0,0,1-.3-.638,2.126,2.126,0,0,1,0-.808,2.658,2.658,0,0,1,.229-.755,2.3,2.3,0,0,1,.441-.648,2.2,2.2,0,0,1,.622-.452,1.7,1.7,0,0,1,.771-.175,1.776,1.776,0,0,1,.462.058,1.648,1.648,0,0,1,.367.144,1.287,1.287,0,0,1,.26.2,1.063,1.063,0,0,1,.159.213h0l.069-.532h1.111Zm-2.8-1.642a.9.9,0,0,0,.027.361.888.888,0,0,0,.154.308.984.984,0,0,0,.271.213.851.851,0,0,0,.372.08,1,1,0,0,0,.393-.08,1.557,1.557,0,0,0,.335-.213,1.27,1.27,0,0,0,.25-.308.973.973,0,0,0,.122-.361.93.93,0,0,0,0-.367.755.755,0,0,0-.159-.3.739.739,0,0,0-.276-.213.84.84,0,0,0-.367-.08.984.984,0,0,0-.393.08,1.234,1.234,0,0,0-.335.213,1.137,1.137,0,0,0-.244.3.919.919,0,0,0-.149.367Z" transform="translate(-155.513 -30.789)"/><path class="a" d="M338.644,68.4h0a1.392,1.392,0,0,1-.6.446,1.982,1.982,0,0,1-.723.138,1.6,1.6,0,0,1-.532-.08,1.063,1.063,0,0,1-.415-.229.855.855,0,0,1-.25-.372,1.111,1.111,0,0,1-.043-.532,1.244,1.244,0,0,1,.383-.787,1.913,1.913,0,0,1,.728-.4,3.45,3.45,0,0,1,.882-.159h.834a.532.532,0,0,0-.159-.532.707.707,0,0,0-.532-.191,1.265,1.265,0,0,0-.558.128,1.738,1.738,0,0,0-.484.34l-.532-.659a2.658,2.658,0,0,1,.845-.468,2.956,2.956,0,0,1,.951-.159,2.387,2.387,0,0,1,.856.133,1.063,1.063,0,0,1,.489.393,1.27,1.27,0,0,1,.2.627,3.785,3.785,0,0,1-.043.861l-.271,1.983h-1.106Zm-.128-1.223h-.345a1.732,1.732,0,0,0-.4.064,1.164,1.164,0,0,0-.346.17.452.452,0,0,0-.17.314.3.3,0,0,0,0,.186.383.383,0,0,0,.112.133.446.446,0,0,0,.175.08.835.835,0,0,0,.2,0,1.26,1.26,0,0,0,.345-.048,1.122,1.122,0,0,0,.314-.138.8.8,0,0,0,.239-.223.7.7,0,0,0,.117-.319l.032-.26Z" transform="translate(-160.611 -30.798)"/><path class="a" d="M349.065,68.582a2.658,2.658,0,0,1-.813,1.7,2.557,2.557,0,0,1-1.775.532,4.523,4.523,0,0,1-1.01-.117,2,2,0,0,1-.866-.415l.8-.994a2.094,2.094,0,0,0,.532.367,1.536,1.536,0,0,0,.659.138,1.228,1.228,0,0,0,.85-.271,1.169,1.169,0,0,0,.361-.686l.053-.377h0a1.4,1.4,0,0,1-.574.4,1.839,1.839,0,0,1-.6.117,1.924,1.924,0,0,1-.765-.149,1.5,1.5,0,0,1-.532-.42,1.478,1.478,0,0,1-.3-.638,2.126,2.126,0,0,1,0-.808,2.859,2.859,0,0,1,.229-.755,2.407,2.407,0,0,1,.441-.648,2.275,2.275,0,0,1,.622-.452,1.712,1.712,0,0,1,.771-.175,1.775,1.775,0,0,1,.462.058,1.647,1.647,0,0,1,.367.144,1.154,1.154,0,0,1,.26.2,1.064,1.064,0,0,1,.159.213h0l.074-.532h1.106Zm-2.8-1.642a.9.9,0,0,0,.027.361.887.887,0,0,0,.117.324.936.936,0,0,0,.276.213.835.835,0,0,0,.372.08.994.994,0,0,0,.388-.08,1.333,1.333,0,0,0,.335-.213,1.27,1.27,0,0,0,.25-.308.888.888,0,0,0,.122-.361.928.928,0,0,0,0-.367.754.754,0,0,0-.159-.3.7.7,0,0,0-.276-.213.84.84,0,0,0-.367-.08.983.983,0,0,0-.393.08,1.132,1.132,0,0,0-.33.213,1.063,1.063,0,0,0-.25.3.919.919,0,0,0-.133.351Z" transform="translate(-164.606 -30.822)"/><path class="a" d="M359.485,68.217a2.328,2.328,0,0,1-.8.569,2.4,2.4,0,0,1-.946.2,2.29,2.29,0,0,1-.824-.144,1.594,1.594,0,0,1-.627-.415,1.653,1.653,0,0,1-.372-.643,2.009,2.009,0,0,1-.053-.845,2.35,2.35,0,0,1,1.584-1.9,2.626,2.626,0,0,1,.866-.149,1.77,1.77,0,0,1,.733.149,1.292,1.292,0,0,1,.532.409,1.6,1.6,0,0,1,.276.648,2.445,2.445,0,0,1,0,.84l-.058.377h-2.806a.792.792,0,0,0,.239.532.765.765,0,0,0,.563.207.957.957,0,0,0,.532-.133,1.881,1.881,0,0,0,.409-.34Zm-.776-1.717a.633.633,0,0,0-.128-.532.616.616,0,0,0-.5-.218.972.972,0,0,0-.361.064,1.306,1.306,0,0,0-.282.165,1.063,1.063,0,0,0-.2.234.946.946,0,0,0-.112.276Z" transform="translate(-169.871 -30.803)"/></g></svg>