<svg id="Logotipo_Fedefarma_Original" data-name="Logotipo Fedefarma Original" xmlns="http://www.w3.org/2000/svg" viewBox="0 0 174.158 60">
  <path id="Trazado_42" data-name="Trazado 42" d="M53.563,58.833a7.751,7.751,0,0,1-2.093.865c-.88.37-2.834,1.033-2.933,2.2-.133,1.569,4.285,1.885,5.253,2.023,1.393.2,2.813.208,4.222.289.369.021.741,0,1.357,0a8.623,8.623,0,0,0-.568-1.3c-2.376-3.551-4.707-7.135-7.209-10.595a5.444,5.444,0,0,0-2.66-1.64c-1.773-.581-2.422-1.057-2.552-2.457A3.353,3.353,0,0,1,48.5,44.515a12.713,12.713,0,0,1,3.286-.461c.3-.017.618.4.929.612-.279.363-.488.886-.855,1.049-.508.224-1.184.059-1.7.273A3.91,3.91,0,0,0,48.5,47.131c-.64.887-.32,1.871.73,2a33.072,33.072,0,0,0,4.38-.014c.442,0,.885.046,1.327.071-.278.349-.486.823-.846,1.024-1.386.773-1.448.957-.4,2.151a33.024,33.024,0,0,1,6.6,10.9c.3.847.774.985,1.569.995a107.133,107.133,0,0,0,16.112-1.138c.9-.125,1.785-.326,2.677-.476.364-.061,2.1-.5,2.038.149-.071.742-1.382.973-1.943,1.123a57.836,57.836,0,0,1-14.433,2.206c-1.367.018-2.733,0-4.1-.035-3.639-.092-7.273-.531-10.9-.925-1.413-.154-3.81-1.011-4-2.685a3.244,3.244,0,0,1,1.163-2.535A5.257,5.257,0,0,1,53.563,58.833Z" transform="translate(-46.358 -43.987)" fill="#205626"/>
  <path id="Trazado_43" data-name="Trazado 43" d="M59.409,156.453l0-.005c-.034.066,1.329,1.141,1.491,1.3,3.688,3.644,4.75,8.878,4.88,13.868.042,1.614.009,3.227.021,4.841.022,3.1-.033,6.484.932,9.466,1.391,4.3,4.952,7.219,9.105,8.694.15.053.3.113.5.19-1.372-.523-2.948-.518-4.348-1.071a11.933,11.933,0,0,1-3.746-2.363,13.635,13.635,0,0,1-4.025-8.41c-.322-2.367-.239-4.737-.386-7.113-.166-2.685-.3-5.372-.537-8.053a18.9,18.9,0,0,0-1.567-6.773,25.276,25.276,0,0,0-1.441-2.517C59.976,158.018,59.091,157.089,59.409,156.453Z" transform="translate(-56.849 -134.806)" fill="#205626"/>
  <path id="Trazado_44" data-name="Trazado 44" d="M80.157,71.1c.026.418-.708.8-1.64.862s-1.709-.231-1.735-.649.708-.8,1.639-.862S80.13,70.688,80.157,71.1Z" transform="translate(-70.941 -65.314)" fill="#205626"/>
  <ellipse id="Elipse_1" data-name="Elipse 1" cx="1.514" cy="0.896" rx="1.514" ry="0.896" transform="translate(4.074)" fill="#205626"/>
  <path id="Trazado_45" data-name="Trazado 45" d="M164.329,196.941v9.333h4.537a3.341,3.341,0,0,0,2.287-.657,4.227,4.227,0,0,0,.964-2.6h.68v8.037h-.68a4.5,4.5,0,0,0-.376-2.031,2.329,2.329,0,0,0-.992-.972,4.278,4.278,0,0,0-1.883-.324h-4.537v7.46a7.509,7.509,0,0,0,.239,2.381,1.6,1.6,0,0,0,.771.753,3.618,3.618,0,0,0,1.69.42h.9v.648H157.238v-.648h.882a2.724,2.724,0,0,0,2.241-.858,5.115,5.115,0,0,0,.441-2.7v-15.34a7.516,7.516,0,0,0-.239-2.381,1.613,1.613,0,0,0-.753-.753,3.547,3.547,0,0,0-1.69-.42h-.882v-.648h18.535l.239,5.218h-.643a7.022,7.022,0,0,0-1.111-2.443,3.64,3.64,0,0,0-1.561-1.129,8.72,8.72,0,0,0-2.875-.35Z" transform="translate(-135.954 -166.479)" fill="#1a1818"/>
  <path id="Trazado_46" data-name="Trazado 46" d="M251.178,239.76a7.983,7.983,0,0,0,1.819,5.6,5.648,5.648,0,0,0,4.317,2.031,4.84,4.84,0,0,0,2.875-.867,6.393,6.393,0,0,0,2.048-2.968l.569.35a8.2,8.2,0,0,1-2.241,4.369,6.118,6.118,0,0,1-4.648,1.97,6.934,6.934,0,0,1-5.189-2.25,8.372,8.372,0,0,1-2.159-6.05,8.88,8.88,0,0,1,2.214-6.418,7.386,7.386,0,0,1,5.557-2.3,6.17,6.17,0,0,1,6.466,6.532Zm0-1.016h7.789a6.589,6.589,0,0,0-.386-2.171,3.528,3.528,0,0,0-1.368-1.541,3.572,3.572,0,0,0-1.9-.561,3.88,3.88,0,0,0-2.728,1.129A4.794,4.794,0,0,0,251.178,238.745Z" transform="translate(-209.753 -196.849)" fill="#1a1818"/>
  <path id="Trazado_47" data-name="Trazado 47" d="M344.075,212.721a8.469,8.469,0,0,1-2.407,1.76,6.057,6.057,0,0,1-2.535.534,6.4,6.4,0,0,1-4.813-2.2,7.931,7.931,0,0,1-2.057-5.647,9.906,9.906,0,0,1,2.278-6.313,7.155,7.155,0,0,1,5.86-2.863,5.187,5.187,0,0,1,3.674,1.348v-2.959a23.088,23.088,0,0,0-.138-3.38,1.45,1.45,0,0,0-.432-.858,1.165,1.165,0,0,0-.735-.228,4.035,4.035,0,0,0-1.267.28l-.239-.613,5.015-1.961h.827v18.544a23.645,23.645,0,0,0,.138,3.441,1.5,1.5,0,0,0,.441.867,1.09,1.09,0,0,0,.707.245,4.16,4.16,0,0,0,1.323-.3l.2.613-5,1.979h-.845Zm0-1.226V203.23a5.393,5.393,0,0,0-.661-2.171,3.716,3.716,0,0,0-1.46-1.48,3.675,3.675,0,0,0-1.773-.5,3.827,3.827,0,0,0-2.884,1.383,7.612,7.612,0,0,0-1.672,5.323,8.088,8.088,0,0,0,1.617,5.42,4.7,4.7,0,0,0,3.6,1.882A4.552,4.552,0,0,0,344.075,211.5Z" transform="translate(-277.382 -161.614)" fill="#1a1818"/>
  <path id="Trazado_48" data-name="Trazado 48" d="M429.365,239.76a7.983,7.983,0,0,0,1.819,5.6A5.648,5.648,0,0,0,435.5,247.4a4.84,4.84,0,0,0,2.875-.867,6.393,6.393,0,0,0,2.048-2.968l.57.35a8.2,8.2,0,0,1-2.241,4.369,6.118,6.118,0,0,1-4.648,1.97,6.934,6.934,0,0,1-5.19-2.25,8.373,8.373,0,0,1-2.158-6.05,8.88,8.88,0,0,1,2.213-6.418,7.387,7.387,0,0,1,5.557-2.3,6.17,6.17,0,0,1,6.466,6.532Zm0-1.016h7.789a6.593,6.593,0,0,0-.386-2.171,3.529,3.529,0,0,0-1.369-1.541,3.572,3.572,0,0,0-1.9-.561,3.88,3.88,0,0,0-2.728,1.129A4.794,4.794,0,0,0,429.365,238.745Z" transform="translate(-353.737 -196.849)" fill="#1a1818"/>
  <path id="Trazado_49" data-name="Trazado 49" d="M506.751,199.892v10.541a4.946,4.946,0,0,0,.514,2.837,2.3,2.3,0,0,0,1.819.77h1.525v.63H500.56v-.63h.753a2.631,2.631,0,0,0,1.341-.35,1.847,1.847,0,0,0,.836-.946,7.565,7.565,0,0,0,.229-2.312V199.892h-3.27v-1.261h3.27v-1.051a9.233,9.233,0,0,1,.808-4.062A6.408,6.408,0,0,1,507,190.831a6.981,6.981,0,0,1,3.738-1.025A5.849,5.849,0,0,1,514.283,191a2.217,2.217,0,0,1,1.065,1.769,1.373,1.373,0,0,1-.478.989,1.458,1.458,0,0,1-1.029.464,1.706,1.706,0,0,1-.891-.289,4.693,4.693,0,0,1-1.148-1.243,4.5,4.5,0,0,0-1.249-1.287,2.467,2.467,0,0,0-1.267-.333,2.366,2.366,0,0,0-1.433.429,2.39,2.39,0,0,0-.845,1.331,23.817,23.817,0,0,0-.257,4.649v1.156h4.336v1.261Z" transform="translate(-413.285 -161.761)" fill="#1a1818"/>
  <path id="Trazado_50" data-name="Trazado 50" d="M572.959,247.521a27.78,27.78,0,0,1-3.251,2.206,5.181,5.181,0,0,1-2.113.438,3.878,3.878,0,0,1-2.875-1.138,4.064,4.064,0,0,1-1.13-2.994,3.677,3.677,0,0,1,.551-2.031,7.184,7.184,0,0,1,2.618-2.241,41.808,41.808,0,0,1,6.2-2.556v-.63a5.041,5.041,0,0,0-.8-3.292,2.956,2.956,0,0,0-2.324-.893,2.691,2.691,0,0,0-1.837.6,1.761,1.761,0,0,0-.7,1.366l.037,1.015a1.7,1.7,0,0,1-.432,1.243,1.516,1.516,0,0,1-1.13.438,1.462,1.462,0,0,1-1.111-.455,1.733,1.733,0,0,1-.432-1.243,3.541,3.541,0,0,1,1.617-2.767,7.22,7.22,0,0,1,4.537-1.261,8.2,8.2,0,0,1,3.674.718,3.364,3.364,0,0,1,1.6,1.7,9.146,9.146,0,0,1,.331,3.082v5.446a23.747,23.747,0,0,0,.092,2.811,1.154,1.154,0,0,0,.3.692.74.74,0,0,0,.487.175,1.041,1.041,0,0,0,.514-.123,11.333,11.333,0,0,0,1.488-1.278v.98q-2.058,2.627-3.931,2.627a1.827,1.827,0,0,1-1.433-.6A3.1,3.1,0,0,1,572.959,247.521Zm0-1.138v-6.111a37.239,37.239,0,0,0-3.582,1.488,6.13,6.13,0,0,0-2.076,1.611,3.015,3.015,0,0,0-.625,1.839,2.917,2.917,0,0,0,.79,2.093,2.441,2.441,0,0,0,1.819.832A6.806,6.806,0,0,0,572.959,246.383Z" transform="translate(-464.305 -196.922)" fill="#1a1818"/>
  <path id="Trazado_51" data-name="Trazado 51" d="M651.6,233.32v3.607q2.112-3.607,4.335-3.607a2.426,2.426,0,0,1,1.671.587,1.77,1.77,0,0,1,.661,1.357,1.622,1.622,0,0,1-1.616,1.628,2.487,2.487,0,0,1-1.442-.6,2.426,2.426,0,0,0-1.185-.6,1.115,1.115,0,0,0-.716.35A8.429,8.429,0,0,0,651.6,238.4v7.687a4.559,4.559,0,0,0,.349,2.014,1.86,1.86,0,0,0,.845.788,3.869,3.869,0,0,0,1.745.315v.63h-8.616v-.63a3.722,3.722,0,0,0,1.91-.385,1.5,1.5,0,0,0,.643-.893,8.6,8.6,0,0,0,.092-1.7v-6.216a24.653,24.653,0,0,0-.119-3.336,1.294,1.294,0,0,0-.441-.779,1.281,1.281,0,0,0-.8-.245,3.787,3.787,0,0,0-1.286.263l-.184-.63,5.089-1.961Z" transform="translate(-530.684 -196.922)" fill="#1a1818"/>
  <path id="Trazado_52" data-name="Trazado 52" d="M724.392,236.735q1.837-1.751,2.168-2.014a6.623,6.623,0,0,1,1.782-1.033,5.234,5.234,0,0,1,1.892-.368,4.137,4.137,0,0,1,4.243,3.415,12.3,12.3,0,0,1,3.2-2.758,5.9,5.9,0,0,1,2.682-.657,4.063,4.063,0,0,1,4.023,2.8,9.244,9.244,0,0,1,.4,3.187v6.9a6,6,0,0,0,.239,2.066,1.521,1.521,0,0,0,.68.656,3.555,3.555,0,0,0,1.616.271v.63h-8.3v-.63h.349a3.032,3.032,0,0,0,1.69-.4,1.558,1.558,0,0,0,.606-.893,10.74,10.74,0,0,0,.073-1.7v-6.9a5.6,5.6,0,0,0-.5-2.767,2.523,2.523,0,0,0-2.3-1.121,4.551,4.551,0,0,0-1.956.464,10.58,10.58,0,0,0-2.379,1.725l-.037.193.037.753v7.652a6.307,6.307,0,0,0,.193,2.049,1.526,1.526,0,0,0,.726.674,4.334,4.334,0,0,0,1.818.271v.63h-8.505v-.63a4.062,4.062,0,0,0,1.92-.315,1.645,1.645,0,0,0,.726-.946,8.9,8.9,0,0,0,.092-1.734v-6.9a5.014,5.014,0,0,0-.606-2.819,2.628,2.628,0,0,0-2.26-1.121,4.211,4.211,0,0,0-1.965.508,7.526,7.526,0,0,0-2.352,1.734v8.6a5.692,5.692,0,0,0,.229,2.049,1.534,1.534,0,0,0,.68.709,4.575,4.575,0,0,0,1.828.236v.63h-8.322v-.63a3.872,3.872,0,0,0,1.617-.236,1.541,1.541,0,0,0,.7-.753,5.532,5.532,0,0,0,.239-2v-6.129a21.159,21.159,0,0,0-.165-3.415,1.372,1.372,0,0,0-.4-.8,1.18,1.18,0,0,0-.753-.219,3.68,3.68,0,0,0-1.231.263l-.275-.63,5.07-1.961h.79Z" transform="translate(-589.504 -196.922)" fill="#1a1818"/>
  <path id="Trazado_53" data-name="Trazado 53" d="M883.389,247.521a27.781,27.781,0,0,1-3.252,2.206,5.179,5.179,0,0,1-2.113.438,3.878,3.878,0,0,1-2.875-1.138,4.064,4.064,0,0,1-1.13-2.994,3.677,3.677,0,0,1,.551-2.031,7.183,7.183,0,0,1,2.618-2.241,41.815,41.815,0,0,1,6.2-2.556v-.63a5.042,5.042,0,0,0-.8-3.292,2.956,2.956,0,0,0-2.324-.893,2.69,2.69,0,0,0-1.837.6,1.761,1.761,0,0,0-.7,1.366l.037,1.015a1.7,1.7,0,0,1-.432,1.243,1.517,1.517,0,0,1-1.13.438,1.463,1.463,0,0,1-1.111-.455,1.733,1.733,0,0,1-.431-1.243,3.542,3.542,0,0,1,1.617-2.767,7.221,7.221,0,0,1,4.537-1.261,8.2,8.2,0,0,1,3.674.718,3.365,3.365,0,0,1,1.6,1.7,9.146,9.146,0,0,1,.331,3.082v5.446a23.694,23.694,0,0,0,.092,2.811,1.15,1.15,0,0,0,.3.692.738.738,0,0,0,.486.175,1.041,1.041,0,0,0,.515-.123,11.324,11.324,0,0,0,1.488-1.278v.98q-2.058,2.627-3.931,2.627a1.827,1.827,0,0,1-1.433-.6A3.1,3.1,0,0,1,883.389,247.521Zm0-1.138v-6.111a37.286,37.286,0,0,0-3.582,1.488,6.13,6.13,0,0,0-2.076,1.611,3.014,3.014,0,0,0-.625,1.839,2.918,2.918,0,0,0,.79,2.093,2.441,2.441,0,0,0,1.819.832A6.808,6.808,0,0,0,883.389,246.383Z" transform="translate(-715.146 -196.922)" fill="#1a1818"/>
</svg>