<?xml version="1.0" ?>
<svg xmlns="http://www.w3.org/2000/svg" preserveAspectRatio="xMidYMid meet" data-bbox="85 53 1061 274.285" viewBox="0 0 1230 380" data-type="ugc" role="presentation" aria-hidden="true" aria-label="">
	<g>
		<path fill="url(#4ca631b9-6257-4c83-aa48-16e4e7d11aba_comp-ldlcspez)" d="M142.519 89.032c1.318.653-1.387 4.37-1.387 5.841l-.361 83.81v33.143a30.523 30.523 0 0 0 13.111 25.056l79.939 55.494a14.18 14.18 0 0 1-3.58 25.111l-30.075 7.908c-25.458-17.647-100.571-68.827-100.571-68.827A33.894 33.894 0 0 1 85 228.655V71.385c0-2.774-.05-6.38 2.49-5.145l55.029 22.793Z"/>
		<path fill="url(#279cdc4b-5b95-42c3-aa34-d93b6cb310ec_comp-ldlcspez)" d="M142.519 89.032c1.318.653-1.387 4.37-1.387 5.841l-.361 83.81v33.143a30.523 30.523 0 0 0 13.111 25.056l79.939 55.494a14.18 14.18 0 0 1-3.58 25.111l-30.075 7.908c-25.458-17.647-100.571-68.827-100.571-68.827A33.894 33.894 0 0 1 85 228.655V71.385c0-2.774-.05-6.38 2.49-5.145l55.029 22.793Z"/>
		<path fill="#2173D6" d="M338.308 102.23a9.545 9.545 0 0 0 5.078-8.42V64.508a9.552 9.552 0 0 0-9.018-9.522 9.543 9.543 0 0 0-4.675.934l-87.178 42.153a5.202 5.202 0 0 1-4.275.114L139.998 57a17.335 17.335 0 0 0-9.988-1.034L88.711 63.94a4.62 4.62 0 0 0-1.22 8.63l103.8 47.815a5.2 5.2 0 0 1 3.025 4.723v189.941a12.172 12.172 0 0 0 5.059 9.885 12.186 12.186 0 0 0 10.978 1.672l22.892-7.658a24.631 24.631 0 0 0 16.828-23.363V258.35a5.202 5.202 0 0 1 2.757-4.591l86.394-45.979a7.866 7.866 0 0 0 4.162-6.937v-31.909a7.88 7.88 0 0 0-11.571-6.937L257.7 201.376c-3.464 1.84-7.641-.671-7.641-4.593V151.98a5.202 5.202 0 0 1 2.772-4.599l85.477-45.151Z"/>
		<path fill="url(#87e89a14-1de5-4a95-abe7-024855953ccd_comp-ldlcspez)" d="m166.599 276.42-55.997-38.409a11.142 11.142 0 0 1-3.557-4.007 11.195 11.195 0 0 1-1.281-5.213V111.573a5.901 5.901 0 0 1 2.698-4.916 5.832 5.832 0 0 1 5.572-.408l56.858 26.765a11.102 11.102 0 0 1 4.659 4.114 11.18 11.18 0 0 1 1.73 5.986v127.607a6.897 6.897 0 0 1-.98 3.544 6.868 6.868 0 0 1-2.657 2.531 6.825 6.825 0 0 1-7.045-.376Z"/>
		<path fill="#2173D6" d="M430.172 212.792V59.613c0-1.16.46-2.274 1.279-3.094a4.367 4.367 0 0 1 3.089-1.282h77.1c1.159 0 2.27.46 3.089 1.282a4.381 4.381 0 0 1 1.279 3.094v27.208a4.38 4.38 0 0 1-1.279 3.094 4.364 4.364 0 0 1-3.089 1.282h-35.747a4.212 4.212 0 0 0-3.059 1.239 4.223 4.223 0 0 0-1.236 3.065v25.676a4.226 4.226 0 0 0 1.236 3.065 4.222 4.222 0 0 0 3.059 1.238h35.747c1.159 0 2.27.461 3.089 1.282a4.382 4.382 0 0 1 1.279 3.095v25.384a4.38 4.38 0 0 1-1.279 3.094 4.362 4.362 0 0 1-3.089 1.282h-35.747c-.57 0-1.135.114-1.661.334a4.303 4.303 0 0 0-2.634 4.043v48.798a4.322 4.322 0 0 1-1.284 3.069 4.298 4.298 0 0 1-3.085 1.235H434.54a4.301 4.301 0 0 1-4.368-4.304Z"/>
		<path fill="#2173D6" d="M546.514 212.792V59.613c0-1.16.46-2.274 1.279-3.094a4.363 4.363 0 0 1 3.089-1.282h81.945a4.29 4.29 0 0 1 3.99 2.707c.211.53.315 1.098.305 1.67v26.842c0 1.18-.468 2.312-1.3 3.146a4.438 4.438 0 0 1-3.141 1.304h-40.737a4.51 4.51 0 0 0-3.145 1.35 4.522 4.522 0 0 0-1.296 3.172v18.819c0 1.18.468 2.312 1.3 3.146a4.437 4.437 0 0 0 3.141 1.304h40.754a4.51 4.51 0 0 1 3.145 1.35 4.53 4.53 0 0 1 1.296 3.172v23.998a4.53 4.53 0 0 1-1.296 3.172 4.51 4.51 0 0 1-3.145 1.35h-40.754a4.446 4.446 0 0 0-4.441 4.45v20.424a4.44 4.44 0 0 0 4.441 4.449h40.77a4.44 4.44 0 0 1 4.441 4.45v27.28a4.463 4.463 0 0 1-1.3 3.146 4.45 4.45 0 0 1-3.141 1.304h-81.759a4.45 4.45 0 0 1-3.141-1.304 4.446 4.446 0 0 1-1.3-3.146Z"/>
		<path fill="#2173D6" d="M669.479 212.792V59.613c0-1.16.46-2.274 1.279-3.094a4.363 4.363 0 0 1 3.089-1.282h39.387a4.516 4.516 0 0 1 3.931 2.407l36.403 71.921a4.44 4.44 0 0 0 5.011 2.41 4.453 4.453 0 0 0 3.434-4.379V59.613c0-1.16.46-2.274 1.279-3.094a4.367 4.367 0 0 1 3.089-1.282h27.302a4.365 4.365 0 0 1 3.042 1.307 4.379 4.379 0 0 1 1.253 3.07v153.178a4.444 4.444 0 0 1-1.3 3.146 4.445 4.445 0 0 1-3.141 1.303h-32.689a4.432 4.432 0 0 1-4.004-2.407l-42.736-82.716a4.44 4.44 0 0 0-8.446 2.042v78.632a4.463 4.463 0 0 1-1.3 3.146 4.445 4.445 0 0 1-3.141 1.303h-27.229a4.428 4.428 0 0 1-3.187-1.277 4.457 4.457 0 0 1-1.326-3.172Z"/>
		<path fill="#2173D6" d="M826.445 212.792V59.613a4.38 4.38 0 0 1 1.28-3.094 4.363 4.363 0 0 1 3.089-1.282h32.907a4.29 4.29 0 0 1 3.99 2.707c.211.53.315 1.098.306 1.67v153.178a4.463 4.463 0 0 1-1.301 3.146 4.446 4.446 0 0 1-3.14 1.303h-32.69a4.443 4.443 0 0 1-3.14-1.303 4.464 4.464 0 0 1-1.301-3.146Z"/>
		<path fill="#2173D6" d="M964.191 220.086a70.22 70.22 0 0 1-30.34-5.062 70.339 70.339 0 0 1-25.283-17.55 87.642 87.642 0 0 1-19.73-59.886v-1.823a84.055 84.055 0 0 1 21.259-59.521 70.841 70.841 0 0 1 24.53-17.491 70.721 70.721 0 0 1 29.564-5.705 72.06 72.06 0 0 1 46.159 14.588 56.338 56.338 0 0 1 14.2 17.752 56.535 56.535 0 0 1 6.04 21.929c.07.626.01 1.26-.18 1.86-.19.6-.51 1.153-.93 1.622-.42.469-.93.843-1.51 1.098-.57.255-1.19.384-1.82.38h-31.745a5.015 5.015 0 0 1-3.089-1.057 5.034 5.034 0 0 1-1.789-2.736 23.056 23.056 0 0 0-8.878-14.582 22.974 22.974 0 0 0-16.458-4.456 27.403 27.403 0 0 0-13.56 3.069 27.47 27.47 0 0 0-10.32 9.331 59.617 59.617 0 0 0-8.664 34.356v1.824a63.56 63.56 0 0 0 7.936 33.845 27.984 27.984 0 0 0 11.084 9.835 27.922 27.922 0 0 0 14.543 2.784c9.392 0 31.889-3.283 38.51-24.363h-32.248a4.43 4.43 0 0 1-3.188-1.277 4.442 4.442 0 0 1-1.326-3.172v-23.123a4.529 4.529 0 0 1 1.347-3.151 4.509 4.509 0 0 1 3.167-1.298h58.248a4.492 4.492 0 0 1 3.16 1.298 4.51 4.51 0 0 1 1.35 3.151v15.464a74.386 74.386 0 0 1-18.27 52.08 67.36 67.36 0 0 1-23.737 15.582 67.233 67.233 0 0 1-28.032 4.405Z"/>
		<path fill="#2173D6" d="M1054.54 212.792V59.613c-.01-.57.1-1.138.31-1.669.21-.53.53-1.014.93-1.421a4.264 4.264 0 0 1 3.06-1.286h81.23a5.95 5.95 0 0 1 4.17 1.777 5.969 5.969 0 0 1 1.73 4.204v25.238c0 1.18-.47 2.312-1.3 3.146a4.462 4.462 0 0 1-3.14 1.303h-41.56a4.445 4.445 0 0 0-3.63 1.431c-.45.5-.79 1.097-.98 1.747-.19.65-.23 1.334-.12 2.001v18.82c0 1.18.47 2.311 1.3 3.146a4.429 4.429 0 0 0 3.14 1.303h41.85c.59 0 1.17.117 1.71.346.55.228 1.04.562 1.45.983.42.421.74.92.96 1.468.22.549.33 1.135.32 1.725v23.998c.01.591-.1 1.177-.32 1.726a4.374 4.374 0 0 1-.96 1.468c-.41.421-.9.755-1.45.983-.54.228-1.12.346-1.71.346h-41.56c-.58 0-1.16.115-1.7.339a4.61 4.61 0 0 0-1.44.964c-.41.413-.74.904-.96 1.444a4.514 4.514 0 0 0-.34 1.702v20.424c0 1.18.47 2.312 1.3 3.146a4.46 4.46 0 0 0 3.14 1.304h41.57c1.18 0 2.31.468 3.15 1.303.83.834 1.3 1.966 1.3 3.146v26.624c0 .584-.12 1.163-.34 1.703-.23.54-.55 1.03-.96 1.443a4.56 4.56 0 0 1-1.45.965 4.39 4.39 0 0 1-1.7.338h-82.7a4.444 4.444 0 0 1-4.3-4.449Z"/>
		<path fill="#2173D6" d="M444.505 313.971c-2.73 0-5.182-.493-7.356-1.479-2.124-1.035-3.817-2.416-5.081-4.142-1.264-1.726-1.896-3.673-1.896-5.843 0-3.501 1.466-6.262 4.398-8.284 2.933-2.071 6.825-3.476 11.679-4.216l9.479-1.405v-1.036c0-1.775-.379-3.131-1.138-4.068-.758-.936-2.148-1.405-4.17-1.405-1.416 0-2.579.271-3.489.814a5.852 5.852 0 0 0-2.047 2.219c-.455.641-1.087.961-1.896.961h-8.494c-.556 0-.985-.148-1.289-.444a1.473 1.473 0 0 1-.379-1.183c0-.888.329-1.898.986-3.033.708-1.183 1.769-2.342 3.185-3.476 1.416-1.134 3.236-2.071 5.46-2.81 2.224-.74 4.929-1.11 8.114-1.11 3.236 0 6.016.37 8.342 1.11 2.326.739 4.221 1.775 5.688 3.106a11.646 11.646 0 0 1 3.185 4.734c.707 1.775 1.061 3.747 1.061 5.917v22.485c0 .493-.202.936-.606 1.331a1.78 1.78 0 0 1-1.29.518h-8.796c-.556 0-1.011-.173-1.365-.518-.354-.395-.531-.838-.531-1.331v-2.589c-.657.937-1.542 1.8-2.654 2.589-1.113.789-2.427 1.405-3.944 1.849-1.466.493-3.185.739-5.156.739Zm3.564-8.431c1.466 0 2.78-.296 3.943-.888 1.213-.641 2.149-1.603 2.806-2.885.708-1.331 1.062-2.983 1.062-4.955v-1.036l-6.446 1.11c-2.376.394-4.121 1.011-5.233 1.849-1.061.789-1.592 1.726-1.592 2.81 0 .839.252 1.554.758 2.145.506.592 1.163 1.061 1.972 1.406a8.321 8.321 0 0 0 2.73.444Z"/>
		<path fill="#2173D6" d="M479.301 313.232c-.557 0-1.012-.173-1.365-.518-.354-.395-.531-.838-.531-1.331v-48.816c0-.543.177-.986.531-1.332.353-.345.808-.517 1.365-.517h8.948c.556 0 1.011.172 1.365.517.354.346.531.789.531 1.332v48.816c0 .493-.177.936-.531 1.331-.354.345-.809.518-1.365.518h-8.948Z"/>
		<path fill="#2173D6" d="M500.999 313.232c-.556 0-1.011-.173-1.365-.518-.354-.395-.531-.838-.531-1.331v-48.816c0-.543.177-.986.531-1.332.354-.345.809-.517 1.365-.517h8.949c.556 0 1.011.172 1.365.517.354.346.531.789.531 1.332v48.816c0 .493-.177.936-.531 1.331-.354.345-.809.518-1.365.518h-8.949Z"/>
		<path fill="#2173D6" d="M548.777 313.971c-2.73 0-5.182-.493-7.356-1.479-2.124-1.035-3.817-2.416-5.081-4.142-1.264-1.726-1.896-3.673-1.896-5.843 0-3.501 1.466-6.262 4.398-8.284 2.933-2.071 6.825-3.476 11.679-4.216l9.479-1.405v-1.036c0-1.775-.379-3.131-1.138-4.068-.758-.936-2.148-1.405-4.17-1.405-1.416 0-2.579.271-3.489.814a5.852 5.852 0 0 0-2.047 2.219c-.455.641-1.087.961-1.896.961h-8.494c-.556 0-.985-.148-1.289-.444a1.473 1.473 0 0 1-.379-1.183c0-.888.329-1.898.986-3.033.708-1.183 1.769-2.342 3.185-3.476 1.416-1.134 3.236-2.071 5.46-2.81 2.224-.74 4.929-1.11 8.114-1.11 3.236 0 6.016.37 8.342 1.11 2.326.739 4.221 1.775 5.688 3.106a11.646 11.646 0 0 1 3.185 4.734c.707 1.775 1.061 3.747 1.061 5.917v22.485c0 .493-.202.936-.606 1.331a1.78 1.78 0 0 1-1.29.518h-8.796c-.556 0-1.011-.173-1.365-.518-.354-.395-.531-.838-.531-1.331v-2.589c-.657.937-1.542 1.8-2.654 2.589-1.113.789-2.427 1.405-3.944 1.849-1.466.493-3.185.739-5.156.739Zm3.564-8.431c1.466 0 2.78-.296 3.943-.888 1.213-.641 2.149-1.603 2.806-2.885.708-1.331 1.062-2.983 1.062-4.955v-1.036l-6.446 1.11c-2.376.394-4.121 1.011-5.233 1.849-1.061.789-1.592 1.726-1.592 2.81 0 .839.252 1.554.758 2.145.506.592 1.163 1.061 1.972 1.406a8.321 8.321 0 0 0 2.73.444Z"/>
		<path fill="#2173D6" d="M605.792 313.971c-2.781 0-5.131-.468-7.053-1.405-1.921-.937-3.488-2.12-4.701-3.55v2.367c0 .493-.203.936-.607 1.331a1.78 1.78 0 0 1-1.289.518h-8.569c-.557 0-1.012-.173-1.365-.518-.354-.395-.531-.838-.531-1.331v-48.816c0-.543.177-.986.531-1.332.353-.345.808-.517 1.365-.517h9.251c.556 0 1.011.172 1.365.517.354.346.531.789.531 1.332v15.828c1.264-1.282 2.806-2.318 4.626-3.107 1.82-.838 3.969-1.257 6.446-1.257 2.528 0 4.752.419 6.673 1.257 1.972.789 3.64 1.948 5.005 3.477 1.365 1.479 2.427 3.303 3.186 5.473.758 2.12 1.188 4.487 1.289 7.101.05.986.076 1.873.076 2.662 0 .74-.026 1.603-.076 2.589-.101 2.761-.531 5.227-1.289 7.396-.759 2.121-1.846 3.945-3.261 5.474-1.365 1.479-3.008 2.613-4.93 3.402-1.921.74-4.145 1.109-6.673 1.109Zm-4.095-9.911c1.719 0 3.059-.345 4.019-1.035.961-.691 1.643-1.627 2.048-2.811.455-1.183.733-2.49.834-3.92a34.743 34.743 0 0 0 0-4.586c-.101-1.43-.379-2.736-.834-3.92-.405-1.183-1.087-2.12-2.048-2.81-.96-.691-2.3-1.036-4.019-1.036-1.567 0-2.856.345-3.868 1.036a6.018 6.018 0 0 0-2.275 2.588c-.505 1.036-.783 2.17-.834 3.403-.05.937-.076 1.849-.076 2.736 0 .888.026 1.825.076 2.811.101 1.331.379 2.564.834 3.698a6.36 6.36 0 0 0 2.2 2.811c1.011.69 2.325 1.035 3.943 1.035Z"/>
		<path fill="#2173D6" d="M648.173 313.971c-4.247 0-7.837-.665-10.769-1.997-2.882-1.331-5.106-3.229-6.673-5.695-1.517-2.515-2.376-5.498-2.579-8.949a66.368 66.368 0 0 1-.075-3.329c0-1.282.025-2.391.075-3.328.203-3.501 1.113-6.484 2.73-8.95 1.618-2.465 3.868-4.364 6.75-5.695 2.932-1.331 6.446-1.997 10.541-1.997 4.145 0 7.659.666 10.541 1.997 2.932 1.331 5.207 3.23 6.825 5.695 1.617 2.466 2.527 5.449 2.73 8.95.05.937.076 2.046.076 3.328 0 1.233-.026 2.342-.076 3.329-.203 3.451-1.087 6.434-2.654 8.949-1.517 2.466-3.742 4.364-6.674 5.695-2.882 1.332-6.471 1.997-10.768 1.997Zm0-9.023c2.275 0 3.918-.666 4.929-1.997 1.062-1.332 1.668-3.329 1.82-5.991.05-.74.076-1.726.076-2.959 0-1.232-.026-2.219-.076-2.958-.152-2.614-.758-4.586-1.82-5.917-1.011-1.381-2.654-2.071-4.929-2.071-2.174 0-3.817.69-4.93 2.071-1.061 1.331-1.643 3.303-1.744 5.917-.05.739-.076 1.726-.076 2.958 0 1.233.026 2.219.076 2.959.101 2.662.683 4.659 1.744 5.991 1.113 1.331 2.756 1.997 4.93 1.997Z"/>
		<path fill="#2173D6" d="M690.361 313.971c-2.881 0-5.46-.641-7.735-1.923-2.224-1.282-3.968-3.155-5.232-5.621-1.264-2.515-1.896-5.572-1.896-9.171V276.62c0-.543.177-.986.531-1.332.354-.345.809-.517 1.365-.517h9.479c.556 0 1.011.172 1.365.517.404.346.607.789.607 1.332v20.192c0 4.832 2.199 7.248 6.597 7.248 2.073 0 3.716-.616 4.929-1.849 1.264-1.282 1.896-3.082 1.896-5.399V276.62c0-.543.177-.986.531-1.332.354-.345.809-.517 1.365-.517h9.479c.557 0 1.012.172 1.365.517.354.346.531.789.531 1.332v34.763c0 .493-.177.936-.531 1.331-.353.345-.808.518-1.365.518h-8.796c-.506 0-.961-.173-1.365-.518-.354-.395-.531-.838-.531-1.331v-2.811c-1.315 1.775-3.034 3.131-5.157 4.068-2.073.888-4.55 1.331-7.432 1.331Z"/>
		<path fill="#2173D6" d="M744.63 313.232c-3.235 0-6.041-.493-8.417-1.48-2.326-1.035-4.121-2.613-5.385-4.733-1.264-2.17-1.896-4.956-1.896-8.358V284.46h-5.915a2.146 2.146 0 0 1-1.44-.518c-.354-.345-.531-.789-.531-1.331v-5.991c0-.543.177-.986.531-1.332a2.145 2.145 0 0 1 1.44-.517h5.915v-12.204c0-.543.177-.986.531-1.332a2.05 2.05 0 0 1 1.365-.517h8.797c.556 0 1.011.172 1.365.517.354.346.531.789.531 1.332v12.204H751c.556 0 1.011.172 1.365.517.405.346.607.789.607 1.332v5.991c0 .542-.202.986-.607 1.331-.354.345-.809.518-1.365.518h-9.479v13.165c0 1.677.329 3.008.986 3.994.657.987 1.769 1.48 3.337 1.48h5.839c.556 0 1.011.172 1.365.517.354.346.531.789.531 1.332v6.435c0 .493-.177.936-.531 1.331-.354.345-.809.518-1.365.518h-7.053Z"/>
		<path fill="#2173D6" d="M777.898 327.285c-.556 0-1.011-.197-1.365-.592a1.69 1.69 0 0 1-.531-1.257V276.62c0-.543.177-.986.531-1.332.354-.345.809-.517 1.365-.517h8.569c.506 0 .935.172 1.289.517.405.346.607.789.607 1.332v2.663c1.213-1.48 2.78-2.712 4.702-3.699 1.921-1.035 4.272-1.553 7.052-1.553 2.528 0 4.752.395 6.674 1.184a12.927 12.927 0 0 1 4.929 3.328c1.415 1.479 2.502 3.279 3.261 5.399.758 2.12 1.188 4.561 1.289 7.323.05.986.076 1.898.076 2.736 0 .838-.026 1.751-.076 2.737-.101 2.663-.531 5.054-1.289 7.174-.759 2.121-1.82 3.92-3.185 5.4-1.365 1.479-3.034 2.638-5.005 3.476-1.922.789-4.146 1.183-6.674 1.183-2.477 0-4.651-.419-6.522-1.257a12.66 12.66 0 0 1-4.55-3.698v16.42c0 .493-.177.912-.531 1.257-.353.395-.808.592-1.365.592h-9.251Zm18.124-23.225c1.719 0 3.059-.345 4.019-1.035.961-.691 1.643-1.627 2.048-2.811.455-1.183.733-2.49.834-3.92a34.743 34.743 0 0 0 0-4.586c-.101-1.43-.379-2.736-.834-3.92-.405-1.183-1.087-2.12-2.048-2.81-.96-.691-2.3-1.036-4.019-1.036-1.618 0-2.932.37-3.943 1.11a5.914 5.914 0 0 0-2.2 2.736c-.455 1.134-.733 2.367-.834 3.698-.05.937-.076 1.85-.076 2.737 0 .888.026 1.825.076 2.811a9.041 9.041 0 0 0 .834 3.476c.506 1.035 1.264 1.898 2.276 2.589 1.011.641 2.3.961 3.867.961Z"/>
		<path fill="#2173D6" d="M835.673 313.971c-2.73 0-5.182-.493-7.356-1.479-2.124-1.035-3.817-2.416-5.081-4.142-1.264-1.726-1.896-3.673-1.896-5.843 0-3.501 1.466-6.262 4.398-8.284 2.933-2.071 6.825-3.476 11.679-4.216l9.479-1.405v-1.036c0-1.775-.379-3.131-1.137-4.068-.759-.936-2.149-1.405-4.171-1.405-1.416 0-2.579.271-3.489.814a5.852 5.852 0 0 0-2.047 2.219c-.455.641-1.087.961-1.896.961h-8.493c-.557 0-.986-.148-1.29-.444a1.473 1.473 0 0 1-.379-1.183c0-.888.329-1.898.986-3.033.708-1.183 1.769-2.342 3.185-3.476 1.416-1.134 3.236-2.071 5.46-2.81 2.225-.74 4.929-1.11 8.114-1.11 3.236 0 6.017.37 8.342 1.11 2.326.739 4.222 1.775 5.688 3.106a11.636 11.636 0 0 1 3.185 4.734c.708 1.775 1.061 3.747 1.061 5.917v22.485c0 .493-.202.936-.606 1.331a1.78 1.78 0 0 1-1.289.518h-8.797c-.556 0-1.011-.173-1.365-.518-.354-.395-.531-.838-.531-1.331v-2.589c-.657.937-1.542 1.8-2.654 2.589-1.112.789-2.427 1.405-3.944 1.849-1.466.493-3.185.739-5.156.739Zm3.564-8.431c1.466 0 2.78-.296 3.943-.888 1.214-.641 2.149-1.603 2.806-2.885.708-1.331 1.062-2.983 1.062-4.955v-1.036l-6.446 1.11c-2.376.394-4.12 1.011-5.233 1.849-1.061.789-1.592 1.726-1.592 2.81 0 .839.253 1.554.758 2.145.506.592 1.163 1.061 1.972 1.406a8.321 8.321 0 0 0 2.73.444Z"/>
		<path fill="#2173D6" d="M874.67 327.285c-.455 0-.834-.148-1.138-.444a1.488 1.488 0 0 1-.455-1.109v-.444c.051-.148.127-.321.228-.518l5.915-13.905-14.56-33.579c-.152-.346-.228-.642-.228-.888.101-.444.304-.814.607-1.11a1.45 1.45 0 0 1 1.137-.517h8.645c.658 0 1.138.172 1.441.517.354.296.607.642.759 1.036l8.645 21.523 8.872-21.523a3.97 3.97 0 0 1 .759-1.036c.354-.345.859-.517 1.516-.517h8.494c.455 0 .834.172 1.137.517.354.296.531.642.531 1.036 0 .247-.076.567-.227.962l-21.461 48.446a2.526 2.526 0 0 1-.759 1.035c-.354.345-.859.518-1.516.518h-8.342Z"/>
		<path fill="#2173D6" d="M914.458 313.232c-.556 0-1.011-.173-1.365-.518-.353-.395-.53-.838-.53-1.331V276.62c0-.543.177-.986.53-1.332.354-.345.809-.517 1.365-.517h8.266c.556 0 1.012.172 1.365.517.354.346.531.789.531 1.332v2.515c1.011-1.332 2.427-2.491 4.247-3.477 1.82-1.035 3.969-1.578 6.446-1.627 5.864-.148 9.884 1.972 12.057 6.361 1.163-1.874 2.806-3.402 4.93-4.586 2.174-1.183 4.55-1.775 7.128-1.775 2.629 0 4.98.592 7.053 1.775 2.123 1.134 3.817 2.909 5.081 5.326 1.264 2.366 1.895 5.448 1.895 9.245v21.006c0 .493-.176.936-.53 1.331-.354.345-.809.518-1.365.518h-8.797a2.148 2.148 0 0 1-1.441-.518c-.354-.395-.531-.838-.531-1.331v-20.488c0-1.726-.253-3.082-.758-4.068-.506-1.036-1.188-1.775-2.048-2.219-.859-.444-1.845-.666-2.957-.666-.91 0-1.82.222-2.73.666-.86.444-1.568 1.183-2.124 2.219-.505.986-.758 2.342-.758 4.068v20.488c0 .493-.177.936-.531 1.331-.354.345-.809.518-1.365.518h-8.797c-.556 0-1.011-.173-1.365-.518-.354-.395-.53-.838-.53-1.331v-20.488c0-1.726-.279-3.082-.835-4.068-.556-1.036-1.264-1.775-2.123-2.219a6.022 6.022 0 0 0-2.806-.666c-.96 0-1.896.222-2.806.666-.859.444-1.567 1.183-2.123 2.219-.506.986-.758 2.317-.758 3.994v20.562c0 .493-.203.936-.607 1.331a1.78 1.78 0 0 1-1.289.518h-9.025Z"/>
		<path fill="#2173D6" d="M1000.23 313.971c-5.967 0-10.72-1.578-14.259-4.733-3.539-3.156-5.384-7.84-5.536-14.053v-2.589c.152-3.895 1.037-7.224 2.655-9.985 1.668-2.811 3.943-4.931 6.825-6.361 2.932-1.479 6.344-2.219 10.235-2.219 4.45 0 8.12.863 11 2.589 2.93 1.726 5.13 4.068 6.6 7.026 1.46 2.959 2.2 6.337 2.2 10.133v1.775c0 .543-.18.987-.54 1.332-.35.345-.8.518-1.36.518h-24.268v.517c.051 1.43.304 2.737.759 3.92.505 1.184 1.213 2.121 2.123 2.811.96.69 2.123 1.035 3.486 1.035 1.01 0 1.85-.147 2.5-.443.71-.346 1.29-.715 1.75-1.11.45-.444.81-.813 1.06-1.109.46-.543.81-.863 1.06-.962.31-.148.76-.222 1.37-.222h9.4c.51 0 .91.148 1.21.444.36.296.51.69.46 1.184-.05.838-.48 1.849-1.29 3.032s-2 2.367-3.56 3.55c-1.52 1.134-3.44 2.071-5.77 2.811-2.32.74-5.03 1.109-8.11 1.109Zm-6.448-23.89h12.818v-.148c0-1.627-.25-3.008-.76-4.142-.46-1.183-1.19-2.095-2.2-2.736-.96-.641-2.12-.962-3.49-.962-1.312 0-2.45.321-3.41.962-.961.641-1.694 1.553-2.199 2.736-.506 1.134-.759 2.515-.759 4.142v.148Z"/>
		<path fill="#2173D6" d="M1028.95 313.232c-.56 0-1.01-.173-1.36-.518-.36-.395-.54-.838-.54-1.331V276.62c0-.543.18-.986.54-1.332.35-.345.8-.517 1.36-.517h8.72c.56 0 1.01.172 1.37.517.4.346.6.789.6 1.332v2.81c1.27-1.528 2.96-2.81 5.08-3.846 2.13-1.035 4.63-1.553 7.51-1.553 2.93 0 5.51.641 7.74 1.923 2.27 1.282 4.04 3.156 5.3 5.621 1.32 2.466 1.98 5.523 1.98 9.172v20.636c0 .493-.18.936-.53 1.331-.36.345-.81.518-1.37.518h-9.55c-.51 0-.96-.173-1.37-.518-.35-.395-.53-.838-.53-1.331v-20.192c0-2.318-.58-4.093-1.74-5.326-1.12-1.282-2.78-1.923-5.01-1.923-2.07 0-3.74.641-5 1.923-1.22 1.233-1.82 3.008-1.82 5.326v20.192c0 .493-.21.936-.61 1.331-.36.345-.78.518-1.29.518h-9.48Z"/>
		<path fill="#2173D6" d="M1095.59 313.232c-3.24 0-6.05-.493-8.42-1.48-2.33-1.035-4.12-2.613-5.39-4.733-1.26-2.17-1.89-4.956-1.89-8.358V284.46h-5.92c-.55 0-1.03-.173-1.44-.518-.35-.345-.53-.789-.53-1.331v-5.991c0-.543.18-.986.53-1.332.41-.345.89-.517 1.44-.517h5.92v-12.204c0-.543.17-.986.53-1.332.4-.345.86-.517 1.36-.517h8.8c.56 0 1.01.172 1.37.517.35.346.53.789.53 1.332v12.204h9.48c.55 0 1.01.172 1.36.517.4.346.61.789.61 1.332v5.991c0 .542-.21.986-.61 1.331-.35.345-.81.518-1.36.518h-9.48v13.165c0 1.677.32 3.008.98 3.994.66.987 1.77 1.48 3.34 1.48h5.84c.55 0 1.01.172 1.36.517.36.346.53.789.53 1.332v6.435c0 .493-.17.936-.53 1.331-.35.345-.81.518-1.36.518h-7.05Z"/>
		<path fill="#2173D6" d="M1127.04 313.971c-3.28 0-6.09-.345-8.42-1.035-2.27-.74-4.14-1.627-5.61-2.663-1.41-1.035-2.48-2.095-3.18-3.18-.71-1.134-1.09-2.121-1.14-2.959-.05-.542.13-.986.53-1.331s.83-.518 1.29-.518h8.64c.16 0 .28.025.38.074.16.049.31.148.46.296.66.345 1.31.789 1.97 1.331.66.493 1.42.937 2.28 1.332.85.394 1.89.591 3.1.591 1.42 0 2.61-.271 3.57-.813.96-.592 1.44-1.406 1.44-2.441 0-.789-.23-1.43-.68-1.923-.46-.543-1.39-1.06-2.81-1.553-1.36-.493-3.44-.987-6.22-1.48-2.63-.591-4.93-1.356-6.9-2.292-1.97-.987-3.49-2.244-4.55-3.773-1.06-1.577-1.59-3.476-1.59-5.695 0-1.972.66-3.871 1.97-5.695 1.32-1.824 3.24-3.304 5.76-4.438 2.53-1.183 5.67-1.775 9.41-1.775 2.88 0 5.41.345 7.58 1.036 2.18.641 4 1.479 5.46 2.514 1.47 1.036 2.58 2.096 3.34 3.181.76 1.085 1.16 2.071 1.21 2.958.05.493-.1.937-.45 1.332-.36.345-.76.517-1.22.517h-7.88c-.21 0-.41-.024-.61-.074-.2-.098-.38-.197-.53-.295a9.534 9.534 0 0 1-1.82-1.184 11.32 11.32 0 0 0-2.12-1.331c-.81-.395-1.82-.592-3.04-.592-1.36 0-2.42.296-3.18.888-.76.591-1.14 1.356-1.14 2.293 0 .641.2 1.232.61 1.775.45.542 1.34 1.035 2.65 1.479 1.37.444 3.46.937 6.29 1.479 3.49.543 6.27 1.43 8.35 2.663 2.07 1.183 3.54 2.589 4.39 4.216.91 1.578 1.37 3.254 1.37 5.029 0 2.367-.73 4.463-2.2 6.287-1.47 1.825-3.61 3.255-6.45 4.29-2.78.986-6.21 1.479-10.31 1.479Z"/>
		<path stroke-linecap="round" stroke-miterlimit="10" stroke-width="6.391" stroke="url(#227f1f84-8931-468b-a0ff-3fe09504dea8_comp-ldlcspez)" d="M430.172 241.544H1146" fill="none"/>
		<defs fill="none">
			<linearGradient gradientUnits="userSpaceOnUse" y2="147.213" x2="96.274" y1="61.122" x1="85" id="4ca631b9-6257-4c83-aa48-16e4e7d11aba_comp-ldlcspez">
				<stop stop-color="#2262B0"/>
				<stop stop-color="#2173D6" offset="1"/>
			</linearGradient>
			<linearGradient gradientUnits="userSpaceOnUse" y2="267.124" x2="166.991" y1="322.468" x1="150.593" id="279cdc4b-5b95-42c3-aa34-d93b6cb310ec_comp-ldlcspez">
				<stop stop-opacity=".6" stop-color="#134B8C"/>
				<stop stop-opacity="0" stop-color="#261515" offset="1"/>
			</linearGradient>
			<linearGradient gradientUnits="userSpaceOnUse" y2="277.599" x2="141.522" y1="105.727" x1="141.522" id="87e89a14-1de5-4a95-abe7-024855953ccd_comp-ldlcspez">
				<stop stop-color="#E94600"/>
				<stop stop-color="#F19842" offset="1"/>
			</linearGradient>
			<linearGradient gradientUnits="userSpaceOnUse" y2="296.26" x2="368.269" y1="235.22" x1="1299.39" id="227f1f84-8931-468b-a0ff-3fe09504dea8_comp-ldlcspez">
				<stop stop-color="#E94600"/>
				<stop stop-color="#F19842" offset="1"/>
			</linearGradient>
		</defs>
	</g>
</svg>