<?xml version="1.0" ?>
<svg xmlns="http://www.w3.org/2000/svg" version="1.2" viewBox="0 0 992.126 992.126" baseProfile="tiny-ps">
	<rect x="0" y="0" width="992.126" height="992.126" stroke-miterlimit="10" stroke="#000000" fill="#1F3855"/>
	<path d="M-1832.948,1964.521" stroke-miterlimit="10" stroke="#000000" fill="#010202"/>
	<g>
		<rect x="92.074" y="689.969" width="54.655" height="50.15" fill="#FDFDFD"/>
		<rect x="155.274" y="689.969" width="54.655" height="50.15" fill="#FDFDFD"/>
		<rect x="92.074" y="626.771" width="54.655" height="54.591" fill="#FDFDFD"/>
		<rect x="155.274" y="626.594" width="54.655" height="54.768" fill="#FDFDFD"/>
		<rect x="92.074" y="563.542" width="54.655" height="54.588" fill="#FDFDFD"/>
		<rect x="155.274" y="563.371" width="54.655" height="54.759" fill="#FDFDFD"/>
		<rect x="92.074" y="500.144" width="54.655" height="54.592" fill="#FDFDFD"/>
		<rect x="155.274" y="499.972" width="54.655" height="54.764" fill="#FDFDFD"/>
		<rect x="92.074" y="437.26" width="54.655" height="54.592" fill="#FDFDFD"/>
		<rect x="155.274" y="437.088" width="54.655" height="54.764" fill="#FDFDFD"/>
		<rect x="92.074" y="378.347" width="54.655" height="50.276" fill="#FDFDFD"/>
		<rect x="155.014" y="378.347" width="54.656" height="50.276" fill="#FDFDFD"/>
		<rect x="408.114" y="689.969" width="50.054" height="50.15" fill="#FDFDFD"/>
		<rect x="407.75" y="626.758" width="50.616" height="54.296" fill="#FDFDFD"/>
		<rect x="407.75" y="563.447" width="50.688" height="54.754" fill="#FDFDFD"/>
		<rect x="407.825" y="500.359" width="50.613" height="54.775" fill="#FDFDFD"/>
		<rect x="407.753" y="441.193" width="50.686" height="50.674" fill="#FDFDFD"/>
		<rect x="407.825" y="378.179" width="50.615" height="50.333" fill="#FDFDFD"/>
		<rect x="407.77" y="251.775" width="50.579" height="50.577" fill="#FDFDFD"/>
		<rect x="467.221" y="689.969" width="54.078" height="50.15" fill="#FDFDFD"/>
		<rect x="466.828" y="626.758" width="54.683" height="54.296" fill="#FDFDFD"/>
		<rect x="466.828" y="563.447" width="54.763" height="54.754" fill="#FDFDFD"/>
		<rect x="466.907" y="500.359" width="54.684" height="54.775" fill="#FDFDFD"/>
		<rect x="466.831" y="441.193" width="54.76" height="50.674" fill="#FDFDFD"/>
		<rect x="466.907" y="378.179" width="54.686" height="50.333" fill="#FDFDFD"/>
		<rect x="466.85" y="251.775" width="54.643" height="50.577" fill="#FDFDFD"/>
		<rect x="597.467" y="689.801" width="50.273" height="50.526" fill="#FDFDFD"/>
		<rect x="597.357" y="626.758" width="50.553" height="54.624" fill="#FDFDFD"/>
		<rect x="597.357" y="563.447" width="50.689" height="54.754" fill="#FDFDFD"/>
		<rect x="597.43" y="500.359" width="50.616" height="54.775" fill="#FDFDFD"/>
		<rect x="597.359" y="441.193" width="50.687" height="50.674" fill="#FDFDFD"/>
		<rect x="597.43" y="378.179" width="50.618" height="50.333" fill="#FDFDFD"/>
		<rect x="597.377" y="251.775" width="50.577" height="50.577" fill="#FDFDFD"/>
		<rect x="656.262" y="689.794" width="54.714" height="50.616" fill="#FDFDFD"/>
		<rect x="656.316" y="626.758" width="54.683" height="54.843" fill="#FDFDFD"/>
		<rect x="656.277" y="563.291" width="54.761" height="54.91" fill="#FDFDFD"/>
		<rect x="656.357" y="500.359" width="54.681" height="54.775" fill="#FDFDFD"/>
		<rect x="656.282" y="441.193" width="54.76" height="50.674" fill="#FDFDFD"/>
		<rect x="656.28" y="378.179" width="54.685" height="50.408" fill="#FDFDFD"/>
		<rect x="719.431" y="378.179" width="54.686" height="50.408" fill="#FDFDFD"/>
		<rect x="782.754" y="378.179" width="54.686" height="50.408" fill="#FDFDFD"/>
		<rect x="845.982" y="378.202" width="50.708" height="50.385" fill="#FDFDFD"/>
		<rect x="845.982" y="441.481" width="50.708" height="50.386" fill="#FDFDFD"/>
		<rect x="845.982" y="500.176" width="50.708" height="54.975" fill="#FDFDFD"/>
		<rect x="845.982" y="563.455" width="50.708" height="54.975" fill="#FDFDFD"/>
		<rect x="845.982" y="626.734" width="50.708" height="54.975" fill="#FDFDFD"/>
		<rect x="909.538" y="441.481" width="50.707" height="50.386" fill="#FDFDFD"/>
		<rect x="909.538" y="500.176" width="50.707" height="54.975" fill="#FDFDFD"/>
		<rect x="909.538" y="563.455" width="50.707" height="54.975" fill="#FDFDFD"/>
		<rect x="909.538" y="626.734" width="50.707" height="54.975" fill="#FDFDFD"/>
		<rect x="845.982" y="689.89" width="50.708" height="50.513" fill="#FDFDFD"/>
		<rect x="782.703" y="689.89" width="54.78" height="50.513" fill="#FDFDFD"/>
		<rect x="719.678" y="689.89" width="54.272" height="50.513" fill="#FDFDFD"/>
		<rect x="656.457" y="251.775" width="54.64" height="50.577" fill="#FDFDFD"/>
		<rect x="597.377" y="314.927" width="50.577" height="50.581" fill="#FDFDFD"/>
		<rect x="656.457" y="314.927" width="54.64" height="50.581" fill="#FDFDFD"/>
		<rect x="218.344" y="378.347" width="54.655" height="50.276" fill="#FDFDFD"/>
		<rect x="31.881" y="378.347" width="51.323" height="50.276" fill="#FDFDFD"/>
		<rect x="92.074" y="314.907" width="54.655" height="50.661" fill="#FDFDFD"/>
		<rect x="155.301" y="314.907" width="54.653" height="50.661" fill="#FDFDFD"/>
		<rect x="155.27" y="251.716" width="54.655" height="50.665" fill="#FDFDFD"/>
		<rect x="218.475" y="251.716" width="54.653" height="50.665" fill="#FDFDFD"/>
		<rect x="281.677" y="251.716" width="54.656" height="50.665" fill="#FDFDFD"/>
	</g>
</svg>