<?xml version="1.0" ?>
<svg xmlns="http://www.w3.org/2000/svg" version="1.2" viewBox="0 0 2298 541">
	<title>Bitmap (1)-svg</title>
	<style>
		.s0 { fill: #f15930 } 
		.s1 { fill: #f58220 } 
		.s2 { fill: #000000 } 
	</style>
	<g id="#f15930ff">
		<path id="Layer" class="s0" d="m130.9 0h255.1c4.6 0.5 9.3 1.3 13.3 3.6 3.4 1.9 5.8 5 8.3 7.8 12.6 14.1 25.2 28.1 37.8 42.2 1.8 2.1 3.7 5.2 2.3 8-1.7 2.5-5.1 2.5-7.7 2.6-74.4 0.1-148.7 0-223.1 0-14.2 0.5-27 11.3-30.8 24.9-5.5 21.6-11 43.2-16.5 64.7-1.1 4.3-2.3 8.7-1.3 13.1 0.4 1.7 1.6 3.7 3.6 3.1 3.3-0.9 6.1-2.8 9.2-3.8 3.8-1.5 7.9-1.2 11.9-1.2 14.1 0 28.2 0 42.2 0-13.3 54.7-26.5 109.5-39.8 164.3-13.1 0-26.3-0.1-39.5 0-14.5 0.3-27.8 11.3-31.5 25.3-11.3 44.4-22.5 88.8-33.8 133.2-0.7 2.8-2.5 6-5.6 6.6-3.3 0.5-6-2-8-4.3-21-26.4-42.1-52.7-63.1-79.1-3.4-4.3-7.3-8.3-9.5-13.4-5-11-4.4-23.7-1.1-35q39.1-159.7 78.2-319.4c2.2-10.2 7.3-19.7 14.7-27 9.1-9.4 21.7-15.1 34.7-16.2z"/>
	</g>
	<g id="#f58220ff">
		<path id="Layer" class="s1" d="m472.1 0h3.3c2.1 0.9 4 2.3 5.3 4.2 22.8 28.5 45.7 57 68.5 85.6 8.3 10.5 9.3 25 6.5 37.6-26.7 108.8-53.4 217.6-80 326.4-4.5 17.6-18.6 32.3-35.9 37.8-7.6 2.7-15.8 3-23.8 2.9-79.4 0-158.7 0-238.1 0-8.2-0.1-17.3-0.8-23.4-7-13.9-15.4-27.7-30.9-41.7-46.3-1.8-2.2-3.8-5-2.9-7.9 1.1-2.3 3.8-3.1 6.1-3.1 72 0.1 144 0 216 0.1 6.1 0 12.4 0.1 18.2-2.1 10.9-3.7 19.4-13.4 22-24.6q8.4-33.2 16.8-66.3c0.7-3.3 1.4-6.8 0.5-10.1-0.4-1.6-1.6-3.5-3.5-2.9-5 1.5-9.5 5-15 4.9-16.1 0.1-32.2 0-48.4 0 13.4-54.7 26.6-109.4 39.9-164.2 11.5 0 23 0 34.5 0 4.8 0.1 9.8 0 14.3-1.7 11.6-3.9 20.4-14.3 22.8-26.2q16.5-65 33-130c0.6-3 2.2-5.7 5-7.1z"/>
	</g>
	<path id="Layer" fill-rule="evenodd" class="s2" d="m613.4 283.5c13.8-58.5 27.6-117 41.5-175.5q68.2 0 136.5 0-4.9 20.6-9.8 41.3c-26.2-0.1-52.5 0-78.8 0q-3.7 15.7-7.4 31.4c20.9 0.1 41.8 0 62.7 0.1-3.2 13.7-6.5 27.5-9.7 41.2q-31.4 0-62.8 0c-4.8 20.5-9.7 41-14.5 61.5-19.3 0-38.5 0-57.7 0zm186.8-175.5q25.4 0 50.9 0c-2.5 10.6-5.1 21.2-7.6 31.8-16.9-0.1-33.9 0-50.8-0.1 2.4-10.6 5-21.1 7.5-31.7zm408.3 0c19.2 0 38.5 0 57.7 0-13.8 58.5-27.7 117-41.5 175.5-19.2 0-38.5 0-57.7 0q20.7-87.7 41.5-175.5zm-113 8c16.7 0 33.4 0 50.1 0-3 13.3-6.2 26.5-9.4 39.7 8.2 0.1 16.3 0 24.4 0.1q-3.5 14.7-7 29.5c-8.1-0.1-16.2-0.1-24.3 0-3.5 14.6-6.9 29.2-10.4 43.8-0.8 4-2.2 8-1.6 12.1 0.3 2.7 2.7 4.4 5.2 5 5.3 1.1 10.7 0.7 16 0.8-2.9 12.1-5.7 24.3-8.6 36.5-16.1 0.5-32.3 2-48.4-0.2-7-1-15.1-3.7-18-10.9-3-8.2-1.1-17.1 0.4-25.4 4.6-20.6 9.7-41.1 14.5-61.7-6-0.1-12 0-18-0.1q3.5-14.7 7-29.5c6.2 0.1 12.5 0 18.7 0 3.1-13.2 6.3-26.4 9.4-39.7zm332.4 0c16.7 0 33.4 0 50.2 0-3.2 13.2-6.3 26.5-9.4 39.7q12.1 0.1 24.3 0c-2.3 9.9-4.7 19.7-7 29.5-8.1 0.1-16.2 0-24.3 0.1-3.4 14.5-6.9 29-10.3 43.6-0.9 3.9-2.2 7.8-1.9 11.8 0.3 2.6 2.2 4.6 4.6 5.2 5.5 1.6 11.2 1 16.8 1.1q-4.3 18.2-8.6 36.5c-15.2 0.5-30.4 1.7-45.5 0.1-6.3-0.8-13.1-2-17.9-6.5-3.7-3.7-4.6-9.1-4.6-14.1 0.2-7.9 1.8-15.6 3.6-23.2 4.3-18.2 8.6-36.4 12.9-54.6-5 0.1-10 0-15 0 0.6 12-3 23.5-5.6 35q-7.5 31.7-15 63.3c-17 0-34 0-50.9 0 5.4-22.6 10.7-45.3 16-68 1.4-5.9 2.6-12.6-0.5-18.1-3.1-5.1-9.9-5.6-15.2-5-6.4 0.6-12.2 4.3-15.7 9.6-4.7 7.2-6.2 15.8-8.2 24-4.5 19.2-9.1 38.3-13.5 57.5-17 0-34 0-51 0q15.2-63.9 30.2-127.7c15.6-0.1 31.1 0 46.6-0.1-1.6 6.5-3.1 13-4.6 19.5 7.2-7.3 15.3-14 24.7-18.2 9.7-4.5 20.7-5.7 31.2-4.6 7.1 0.7 14.3 2.7 20 7 5.7 4.1 9.2 10.6 10.5 17.3 1.6-7 3.4-14 4.9-21q9.4 0 18.8 0c3.1-13.2 6.3-26.5 9.4-39.7zm444.2 0q25.1 0 50.1 0c-3 13.3-6.3 26.5-9.3 39.7q12.1 0 24.3 0c-2.3 9.9-4.7 19.7-7 29.5q-12.2 0-24.4 0c-3.2 14-6.5 27.9-9.8 41.8-1 4.6-2.7 9.3-2.2 14.1 0.2 2.6 2.6 4.4 5 5 4.5 1.1 9.1 0.9 13.6 0.9 2.6-10.2 8.5-19.5 17-25.7 12-8.8 27-11.9 41.4-14 11.1-1.6 22.3-2.1 33.2-4.9 4.9-1.4 10.7-4 11.9-9.6 1.3-3.7-1.4-7.6-5-8.7-6-2-12.7-1.9-18.7 0-5.2 1.6-9.1 5.9-10.8 10.9q-24.5 0-49 0c2.1-8.6 6-16.9 12.4-23.2 13.1-13.3 32.4-17.4 50.3-19.1 14.3-1.1 28.7-1.1 42.9 1.2 8.5 1.5 17.4 4.1 23.5 10.6 3.7 3.9 5.2 9.3 6 14.5 1.5-7.8 3.6-15.5 5.4-23.3q9.3 0 18.7 0 4.7-19.8 9.4-39.7 25.1 0 50.1 0c-3 13.3-6.2 26.5-9.4 39.7q12.2 0 24.4 0-3.5 14.8-7 29.5-12.2 0-24.3 0c-3 12.3-5.8 24.5-8.7 36.7-1.2 5.7-3.1 11.3-3.6 17.2-0.3 3 1.7 6 4.7 6.8 5.4 1.5 11.2 1 16.8 1.1-2.8 12.2-5.8 24.3-8.6 36.5-14.8 0.5-29.7 1.7-44.6 0.2-6-0.6-12.3-1.7-17.3-5.3-4.2-3.1-5.9-8.4-6-13.3-0.3-9.5 2-18.8 4.1-28 4.1-17.3 8.2-34.6 12.2-51.8-5.5-0.1-11 0-16.5-0.1-0.7 10-3.4 19.6-5.6 29.3-4.2 17.8-8.5 35.7-12.6 53.6-1.5 4.5 0.2 9.4 3.6 12.6q-0.2 1.4-0.4 2.8-26.3 0-52.6 0c0.1-4.5 0.5-9 0.7-13.5-6.4 4.8-13.1 9-20.5 11.8-11.8 4.7-24.7 5.8-37.2 5-9.1-0.7-18.7-3.5-25.2-10.4-3.4-3.5-5.5-8.1-6.3-12.9-1.5 6.6-3.2 13.3-4.7 20-15.4 0.5-30.9 1.8-46.2 0.1-6.1-0.9-12.7-2.1-17.3-6.7-4.1-4.2-4.8-10.5-4.5-16.1 0.8-11 3.8-21.6 6.2-32.3q5.1-21.6 10.3-43.2c-4.9-0.1-9.8 0-14.7-0.1-0.1 2.5-0.3 4.9-0.6 7.3-15.4 0-30.8 0-46.2 0 0.3-3.6-0.3-7.6-3.3-9.9-4.7-3.5-11-2.9-16.3-1.7-4.7 1.1-9.4 5-8.9 10.2 1.1 3.5 5 4.8 8.1 6 15.8 5.1 33.2 6.2 47.8 14.9 7.4 4.3 13.1 12.2 13.1 21 0.1 15.9-9.1 31-22.3 39.7-15.4 10.4-34.4 13.7-52.6 14.3-12.6 0.3-25.5-0.4-37.4-4.8-7.6-2.8-14.9-7.7-18.8-15-4-7.2-4.2-15.8-3.1-23.7q24.2 0 48.4 0c-0.9 4-0.6 8.8 2.7 11.7 4.8 4.4 11.9 4.4 17.9 3.2 5.8-1.1 11.4-5.3 12.2-11.4 0.7-3.9-3.2-6.5-6.3-7.8-8.4-3.3-17.4-4.3-26.1-6.5-9.7-2.3-19.8-5.1-27.2-12-5-4.5-7.2-11.3-7.2-18-7.7-1.2-15.7-0.3-22.8 2.7-7.3 3.3-12.9 9.6-16.3 16.7-4.3 8.1-6 17.1-8.1 26-2.8 11.8-5.6 23.6-8.4 35.4q-25.5 0-50.9 0c4.1-17.5 8.3-35 12.4-52.5-32 0-63.9 0-95.9 0-1.2 5.5-1 11.6 2.2 16.5 2.9 4.6 8.1 7.5 13.5 8.2 9.5 1.4 19.4-3.2 24.9-11q24.4 0 48.7 0c-7 14.2-19.1 25.5-33.3 32.2-14 6.9-29.7 9.9-45.2 10.1-15.7 0.4-32.2-2.6-44.9-12.4-10-7.6-15.7-20-16.3-32.4-0.9-19.6 5.9-39.2 17.7-54.7 21.8-28.9 62.1-42.3 96.9-32.1 14.9 4.3 27.6 15.9 32.4 30.8 3.2 9.7 3.8 20.1 2.7 30.2 4.9-20.2 9.5-40.5 14.4-60.7q23.1 0 46.3 0-3 12.9-6.1 25.8c3.7-5.6 7.4-11.3 12.4-16 10.4-10.4 26.1-15.4 40.6-12.7q-2.4 10.3-4.9 20.6c13-13.8 32.2-19.5 50.5-21 14.3-0.9 29-0.4 42.5 4.4 9.1 3.1 17.2 9.9 19.9 19.3 1.6-6.7 3.2-13.6 4.8-20.4 6.3 0 12.6 0.1 18.8 0 3.1-13.2 6.3-26.5 9.4-39.7zm-325 69.3c-8.5 3.1-14.6 11-16.7 19.7 15.3 0 30.6 0 45.8 0 1.6-6.8-0.9-14.6-6.7-18.6-6.5-4.6-15.3-3.7-22.4-1.1zm425.9 51.8c-4.9 2.3-8.3 7.5-8.5 12.9 0.2 4 4 6.6 7.7 7.4 8.4 1.9 17.8-0.1 24.2-6.1 6.7-6.3 9.8-15.3 11.5-24.1-11.2 4.9-23.9 4.6-34.8 9.9zm-1053.8-81.6c8-3.1 17-4.4 25.5-2.7-2.5 10.8-5.1 21.6-7.7 32.4 5.6-12.3 16.8-21.2 29.1-26.1 18.8-7.6 39.7-8.5 59.6-5.5 10.4 1.9 21.5 5.6 28 14.5 5.1 6.9 5.6 16.1 4.5 24.4-15.4 0-30.8-0.1-46.2 0 0.6-4.1-0.9-8.7-4.6-10.8-4.8-2.5-10.5-1.9-15.6-0.6-4.2 1-8 4.5-8.5 9 0.7 4.4 5.4 6 9 7.3 15.3 4.7 32 6 46.1 14.1 7 3.8 12.8 10.4 13.8 18.5 1.2 10.3-2.4 20.6-8.1 29.1-8.4 12.1-21.9 19.6-35.8 23.5-16 4.4-32.9 5.3-49.4 3.8-12.1-1.4-25.1-4.6-33.7-13.9-7.2-7.6-8.6-19-6.9-29 16.1 0 32.2 0 48.4 0-0.9 3.9-0.7 8.4 2.3 11.4 4.2 4.1 10.5 4.6 16.1 3.9 5.1-0.6 10.4-3 12.9-7.7 1.4-2.5 2.3-6.1 0.2-8.4-2.5-3-6.5-4.1-10.1-5.3-14.6-4-30.5-5-43.7-13.1-7.1-4.4-11.9-12.3-11.6-20.7-10.9-2.5-23.2-1.9-32.7 4.6-9.4 6.7-14 17.9-16.9 28.7-3.7 15.5-7.3 31.1-11.1 46.6-16.9 0-33.9 0-50.8 0 10-42.6 20.1-85.2 30.2-127.8 15.4 0.1 30.8 0 46.3 0.1-2 8.6-4.1 17.2-6.1 25.9 6.6-10.9 15.4-21.3 27.5-26.2zm1294.6-0.4c17.7-4.5 37.2-4.6 54.2 2.8 13 5.6 23 17.3 26.7 31 3.8 13.7 2.6 28.4-0.8 42.1-32.2 0-64.5-0.1-96.7 0-1.2 5.5-1 11.6 2.1 16.4 4 6.6 12.4 9.3 19.7 8.4 7.5-0.8 14.4-5 18.8-11 16.3 0 32.5-0.1 48.8 0-6.5 12.8-17.1 23.4-29.7 30.2-18.2 10-39.6 13.2-60.2 11.7-14.6-1.3-29.9-6.4-39.7-17.9-8-9.2-11-21.8-10.3-33.8 1-16.4 6.9-32.5 16.6-45.9 12.2-16.7 30.4-28.9 50.5-34zm6.3 30.2c-8.5 3.2-14.6 11-16.7 19.7 15.3 0 30.5 0 45.8 0 1.7-7-1.2-15.1-7.4-19-6.4-4.2-14.8-3.1-21.7-0.7zm-1461.5 98.2c10-42.6 20.1-85.2 30.2-127.8q25.4 0 50.9 0c-10.1 42.6-20.2 85.2-30.3 127.8q-25.4 0-50.9 0zm389.4 40.6c13.7-7.6 29.7-9.8 45.1-9 12.4 0.8 25.3 2.9 35.9 9.8 10.3 6.6 17.2 17.9 18.9 30 0.9 5 0.5 10.1 0.6 15.1q-8.5 0-17 0c0.1-9-1.1-18.5-6.3-26.1-5-7.4-13.6-11.6-22.2-13-13.1-2.2-27-2.3-39.6 2.6-9.6 3.7-18.3 11.3-21.4 21.5-2 7.3-2.3 15.7 1.7 22.4 3.3 5.7 8.8 9.7 14.8 12 12.3 4.9 25.2 7.9 37.6 12.2 8.4 2.7 17 5.7 24.1 11.1 7.6 5.5 13 14.1 14 23.5 2 17.3-4.5 35.8-18.3 46.7-13.4 10.8-30.9 15.1-47.9 14.9-12.2 0.3-24.5-1.2-35.9-5.7-10.5-4.2-20-11.7-25.3-21.8-5.7-10.2-7.2-22.3-6.3-33.8 5.7 0 11.3 0 17 0-1 10.9 0.5 22.7 7.5 31.6 6 7.8 15.5 12.1 25 13.9 13.2 2.5 27 2.2 39.7-2.2 8.9-3 17.5-8.3 22.7-16.4 3.7-5.3 5.3-11.9 5.1-18.4 0.1-5.3-1.2-10.8-4.5-15-5.5-7.4-14.4-11.5-23-14.1-11.7-3.5-23.4-7-35.1-10.6-10.6-3.5-21-9.6-26.7-19.4-5.1-9.1-5.4-20-3.7-30.1 2.2-13.5 11.6-25.3 23.5-31.7zm-543-5.4q36 0 72 0c9.9 0.5 20.1 2.3 28.6 7.8 7.9 5 13.3 13.8 14.7 23.1 1.8 12.3-0.2 25.8-8.1 35.7-7.2 9.7-18.7 15.6-30.5 17.5 9 1.1 17.9 5.6 23 13.4 7.3 10 7.7 23.2 5.5 35-2.6 14.3-12.4 26.9-25.2 33.6-14.1 7.6-30.3 9.4-46 9.7q-37.6 0-75.2 0c13.7-58.6 27.5-117.2 41.2-175.8zm13.8 14.5c-4.9 20.8-9.6 41.6-14.5 62.3 18.9 0 37.9 0 56.8 0 11.2-0.6 22.7-3.7 31.5-10.8 7.1-5.8 11.4-14.7 11.2-23.8 0.5-8.3-2.6-17.3-9.7-22.2-7.2-5.1-16.5-5.7-25.1-5.5q-25.1 0-50.2 0zm-34.5 146.8q22.3 0 44.7 0c10-0.1 20.1 0.4 29.9-1.7 11.5-2.3 23-7.9 29.6-17.9 5.7-7.8 6.7-18.1 5.2-27.4-1.4-8.6-7.9-15.9-15.8-19.1-7.9-3.3-16.5-3.6-24.9-3.9q-26.1 0-52.2 0c-5.5 23.3-11 46.7-16.5 70zm926.6-151q7.9 0 15.8 0c-2.9 12.8-5.9 25.5-8.7 38.2q12.6 0.1 25.3 0c-1 4.4-1.8 8.9-2.8 13.3-8.6 0-17.2 0-25.7 0-6 25.2-11.8 50.5-17.6 75.7-1.4 6.5-3.8 13-3.1 19.7 0.4 3.1 2.6 6.4 6 6.5 6.7 0.4 13.4-0.3 20-1.3-0.9 4.5-2 9-2.9 13.6-8.4 0.8-16.9 1.5-25.2 0.2-5.5-0.8-10.8-4.1-12.7-9.4-2.1-5.5-1.1-11.6-0.1-17.3 6.6-29.2 13.2-58.5 19.7-87.7-7.6 0-15.2 0-22.8 0q1.5-6.6 3.2-13.2c7.6-0.1 15.2 0 22.9-0.1 2.9-12.7 5.8-25.5 8.7-38.2zm-750.6 43.6c13.5-8.6 30.3-10.2 45.8-8.1 9.9 1.2 20.3 4.6 27.1 12.3 4.2 4.6 5.5 11.2 5 17.2-0.8 10.9-3.7 21.5-6.3 32.1-2.7 9.9-4.7 20-7.3 30-1.5 6.9-3.6 13.8-4.1 20.9-0.3 1.9 0.6 4.2 2.6 4.8 3.8 1.2 7.8 0.7 11.7 0.3-0.9 4.1-1.7 8.2-2.5 12.3-6.8 1-14.5 2.7-21-0.7-6.4-4-5.7-12.5-4.7-19-9.1 14.3-25.9 22.6-42.6 23.1-9.8 0.2-20.1-0.9-28.5-6.2-7.8-4.8-12.5-13.6-13.3-22.5-0.8-9.1 0.1-18.9 5.5-26.5 5.7-8.4 15.2-13.2 24.7-16 13.5-4.1 27.6-5.4 41.7-5.1 7.8-0.5 16.4-1.4 22.4-6.9 4.8-4.5 5.5-11.5 5.9-17.7 0.5-4.8-0.7-10.1-4.4-13.5-5-4.8-12.2-6.1-18.9-6.4-10.8-0.4-22.4 1.2-31.4 7.7-6.6 5-10.5 12.8-11.9 20.8-5.2 0-10.5 0.1-15.7-0.1 1.7-13.1 8.9-25.6 20.2-32.8zm24.8 60.8c-13.7 1.1-28.8 1.6-39.8 10.9-7.3 5.6-9.1 15.9-7.1 24.5 2.1 7.7 9.1 13.2 16.7 14.8 9.6 2.1 19.8 1.4 29-2 13-4.9 22.3-16.7 26.2-29.8 2.4-8.4 4.2-17.1 6.4-25.6-8.9 6.9-20.8 6.2-31.4 7.2zm99.8-42.5c9.1-14 24-25.3 41-27 10.5-0.7 21.9 0.3 30.9 6.5 6.9 4.4 10.9 12.4 11.8 20.4 1.1 7.8-0.5 15.5-2.1 23-6.3 26.9-12.4 53.8-18.7 80.7-5.3 0-10.5 0-15.8 0 6-25.9 12.1-51.8 18.1-77.6 1.8-7.5 4-15.3 2.6-23.1-1.1-6.5-6-12.1-12.2-14.5-11.2-4.4-24.3-2.6-34.3 3.8-15.2 9.4-24.5 26-28.8 43-5.3 22.8-10.6 45.6-15.9 68.4-5.2 0-10.4 0-15.5 0 9.7-42.4 19.6-84.8 29.3-127.2q7.3-0.1 14.6 0-2.5 11.8-5 23.6zm137.2-20.8c12.2-6.6 26.6-7.6 40.1-5.5 9.9 1.6 19.9 6 26.3 14.1 6.4 7.9 8.7 18.5 8 28.6q-7.8-0.1-15.6 0c1-9.3-2.6-19.3-10.4-24.7-8.3-5.9-19.2-6.5-28.9-4.9-12.3 2-23.1 9.6-30.6 19.3-9.6 12.1-14.2 27.5-15.6 42.7-0.8 10.6 0 21.9 5.8 31.1 4.6 7.4 12.8 12.3 21.4 13.5 9.4 1.3 19.5 0.1 27.9-4.6 10.2-5.9 17.5-15.8 21.5-26.7 5.3 0 10.6 0 15.8 0-4.2 12.4-10.8 24.4-21.1 32.7-11 9-25.7 12.4-39.7 12.1-11.7 0.2-24-3-32.7-11.2-9.8-9-14.4-22.5-14.8-35.6-0.7-14.8 2.3-29.7 8.3-43.3 6.9-15.8 18.8-29.7 34.3-37.6zm358.9 8c8.7-9 21.3-13 33.4-14.2 10.3-0.6 20.9 0 30.5 4 7.4 3.1 13.7 9 16.9 16.4 3 6.4 3.5 13.5 3.4 20.4q-7.9 0.1-15.7 0c0.3-5.7-0.3-11.7-3.7-16.5-5-8-14.9-11.1-23.8-11.2-9.3-0.2-19.4 1.1-26.9 7.1-5.5 4.4-7.8 12-6 18.8 2 6.1 7.5 10.1 13 13 8.7 4.3 17.8 7.7 26.7 11.3 8.3 3.3 16.3 8 21.7 15.2 2.7 3.4 4.3 7.5 4.8 11.8 0.8 8.2-0.3 17-5 24-5 7.5-12.8 12.7-21.2 15.6-10.1 3.5-20.9 4.5-31.5 3.8-7.6-0.7-15.3-2.5-22-6.4-9.8-5.6-16.8-15.8-18.3-26.9-0.7-3.8-0.6-7.7-0.5-11.6q7.7 0 15.4 0c0 7.8 1.6 16.1 7.1 22 6.6 7.6 17.1 9.8 26.7 10.1 10.2 0.1 21.3-2.6 28.5-10.3 5.7-5.7 7-15.2 3.1-22.2-6.8-10.6-19.6-13.6-30.5-18.2-9.7-4.1-20.2-7.7-27.3-15.8-10-11-9.3-29.9 1.3-40.2zm171.7 9.8c10.5-12.7 25.6-22.1 42.1-23.8 9.7-0.9 19.8-0.7 28.9 3.1 10.6 4.1 19.4 12.8 23.4 23.5 5.4 14.2 3.7 29.8 2 44.6-33.1-0.1-66.3 0-99.4-0.1-1.6 11-1.1 22.8 4 32.9 4.6 8.9 14 14.7 23.8 16.1 9.2 1.4 19.1 0.4 27.5-4 10.6-5.6 18.2-15.7 22-27q7.9 0.1 15.8 0c-4.3 13.8-12 27.3-24.3 35.4-10.1 6.8-22.5 9.4-34.5 9.2-8.7 0.1-17.4-1.2-25.3-4.7-9.8-4.4-17.4-12.8-21.3-22.7-4.2-10.3-4.8-21.7-3.9-32.6 1.5-18 7.6-36 19.2-49.9zm26.3-4.7c-14.1 8.3-23.2 23.1-27 38.8 27.5 0 55.1 0 82.6 0 0.2-7.7 1.1-15.6-1.3-23.1-2.7-9.4-10.1-17.3-19.4-20.1-11.6-3.5-24.7-2.2-34.9 4.4zm113.7 6.8c9.9-14.6 26-26.3 44.2-26.3 8.4-0.4 17.5 1.6 23.7 7.6 5.4 5 7.5 12.4 8.1 19.5 8.8-13.6 22.8-25.1 39.3-26.8 9.1-0.7 18.7-0.4 26.8 4.2 7.8 4.5 12.3 13.3 13.4 22 1.5 10.1-1.2 20-3.4 29.8q-8.7 37.3-17.3 74.5-7.9 0-15.8 0c6.3-26.8 12.5-53.6 18.8-80.4 1.7-7.5 3.6-15.5 1.4-23.1-1.7-6.2-6.7-11.4-13-12.9-10-2.5-21.4-1.2-29.7 5.2-10.6 7.7-16.9 19.8-21.1 31.9-4.1 11.6-6.6 23.6-9.4 35.6-3.3 14.5-6.8 29.1-10.1 43.7-5.3 0-10.5 0-15.8 0 5.8-25.2 11.7-50.4 17.5-75.6 1.9-8.3 4.4-16.9 2.9-25.5-1.2-6.3-5-12.9-11.4-15.1-7.2-2.4-15.3-1.6-22.2 1.5-11.9 5.4-20.7 15.9-26.6 27.3-4.3 8.4-7.3 17.4-9.3 26.6-4.6 20.3-9.4 40.5-14 60.8-5.2 0-10.4 0-15.6 0q14.7-63.6 29.4-127.2c4.8-0.1 9.6 0 14.5-0.1-1.6 7.7-3.8 15.2-5.3 22.8zm-432.8-22.8c5.5 0.1 11 0 16.5 0.1 5.4 35.9 10.8 71.9 16.4 107.9 20.3-35.9 40.3-72 60.5-107.9q8.6-0.1 17.2 0c-28 47.1-56 94.2-84 141.4-3.8 6.1-7.2 12.6-11.3 18.6-5.7 8.2-15.3 13.1-25.1 13.7h-7.6c-3.2-0.4-6.5-0.9-9.7-1.1q1.5-6.4 3.2-12.8c5.6 0.5 11.2 1.1 16.8 0.4 6.6-1.1 11.2-6.5 15.1-11.5 4.6-7.2 8.7-14.6 13.1-21.8-7-42.4-14.1-84.7-21.1-127zm-758.6 83.4c7.6-2.1 16.1-0.2 22.1 4.9 9.2 7.6 11.1 22.4 4.2 32.1-4.4 6.5-12 10.5-19.7 10.4-7.4 0.2-14.6-3.3-19.2-9-4.6-5.8-6.4-13.9-4.5-21.1 2-8.3 8.9-15.2 17.1-17.3zm1.1 3c-9.7 2.4-16.8 12.4-15.6 22.3 0.6 6.6 4.6 12.6 10.2 16 6.5 4 15.2 4 21.6-0.1 4.9-3.1 8.5-8.2 9.6-13.9 1.5-6.9-0.9-14.3-6.1-19.1-5-5-12.8-7.1-19.7-5.2zm-3.7 6.6c5.4 0.2 11-0.5 16.4 0.7 5.4 0.9 6.8 8.8 2.9 12.1-1.7 1.6-4.1 1.7-6.2 2.2 2.8 4 5.4 8.1 8 12.3-1 0-3.1 0-4.1 0q-3.9-6.2-7.8-12.5-2.9 0-5.7 0 0 6.2 0 12.5c-0.9 0-2.7 0-3.5 0q0-13.6 0-27.3zm3.5 2.8q0 4.6 0 9.2c3.8-0.2 7.9 0.6 11.6-0.5 2.7-0.9 3.1-4.1 2.5-6.5-3.8-3.6-9.5-1.7-14.1-2.2z"/>
</svg>