<?xml version="1.0" ?>
<svg xmlns="http://www.w3.org/2000/svg" version="1.2" viewBox="0 0 1545 361">
	<defs>
		<clipPath clipPathUnits="userSpaceOnUse" id="cp1">
			<path d="m1 1h1544v359.93h-1544z"/>
		</clipPath>
	</defs>
	<style>
		.s0 { fill: #00aadb } 
		.s1 { fill: #f68935 } 
		.s2 { fill: #0aabdb } 
		.s3 { fill: #01aada } 
		.s4 { fill: #f58a22 } 
	</style>
	<g id="Clip-Path" clip-path="url(#cp1)">
		<g id="Layer">
			<path id="Layer" class="s0" d="m222.3 195.5c-7.1-10.6-14.1-21.2-16.6-33.7-1-4.8-0.3-10.2 0.7-15.1 2.7-12.2 5.9-24.4 5.1-37.1-1.1-18.2-9-32.9-23.2-44.2-12.3-9.8-26.6-14.5-42.2-12.9-25.3 2.6-43.3 15.8-52.8 39.7-5 12.7-5.7 25.8-1.3 38.7 2.6 7.3 1.4 13.6-1.8 20.1-5.6 11.2-14 20.2-22.6 29.1-1.9 1.9-3.1 2.5-4.9-0.1-3.4-5.1-7.1-10-9.9-15.6-3.8-7.5-7.5-15.1-9.4-23.3-1.4-6-2.7-12.1-3.3-18.2-0.6-5.7-0.4-11.5-0.4-17.3 0.2-11.7 3-22.9 7.4-33.8 6.3-15.6 15.3-29.4 27.5-40.9 14-13 30.4-21.7 49.1-26.2 3.9-1 8.4-0.7 11.9-2.5 3.7-2.1 7 0.4 10.6-0.6 3.6-1 7.7-0.6 11.5-0.2 5.5 0.6 11 1.4 16.4 2.7 6.9 1.6 14.1 3 20.6 5.9 7.4 3.3 14.4 8 21.3 12.4 7.7 4.8 14.2 11.1 19.9 18.1 6.5 7.9 12.2 16.4 15.9 26 2.5 6.4 4.3 13.1 6.5 19.6 2 6.3 2.1 12.7 2.7 19.2 1.6 15-1.1 29.4-5.8 43.5-1.8 5.2-4.4 9.9-6.6 14.9-1.2 2.5-2.1 5.2-3.6 7.6-1.4 2.3-3.4 4.2-5.2 6.2-5.3 5.7-10.6 11.3-15.9 16.9-0.4 0.4-1 0.7-1.6 1z"/>
			<path id="Layer" class="s1" d="m232.3 278c0-0.8-0.1-1.7 0-2.5 1-10.3-1.6-19.9-5.9-29.1-4.5-9.8-8.7-19.8-14.1-29-4.9-8.3-11-16-17.2-23.4-4.7-5.7-10.2-10.9-15.8-15.8-8-6.9-16.6-13.2-26.8-16.7-9.1-3.2-18.1-2.2-27 1.2-15.4 5.8-28.6 14.8-40.2 26.4-10.7 10.5-19.3 22.5-25.3 36.2-2.6 6.1-3.4 13.1-4.9 19.7-1.4 6.2-2.7 12.3-7.6 17-5.5 5.2-11.9 9.1-19.6 9.1-10.5-0.1-18.8-4.8-23.8-14.4-7.5-14-1.1-30.4 14.2-36.3 5.9-2.3 12.1-3.8 18-6.1 9.6-3.8 18.2-9.2 26.1-15.6 6.9-5.4 13.2-11.5 19.5-17.5 8.3-7.8 15-16.9 19.3-27.5 1.7-4.1 3.3-8.5 3.6-12.8 0.4-4.3-0.4-9-1.7-13.2-6.8-20.5 1.9-43 18.8-54.8 8.7-6.2 18.4-9.5 29.1-9.4 25.1 0.5 45.6 19 48.7 42.6 1.4 10.7-0.4 20.9-2.7 31.2-1.4 6.1-2.4 12.3-2.8 18.4-0.6 8.4 1.9 16.2 5.4 23.7 5.1 11 12 20.9 19.5 30.3 7.5 9.2 15.3 18.2 23.2 27.1 7.3 8.3 16.6 13.6 26.9 17.6 8.9 3.5 17 8.1 22.4 16.4 8.2 12.7 7.1 29.5-3.6 39.9-12.4 12.1-30.7 13.7-44.9 1-7.6-6.8-11.3-15.3-10.8-25.5 0.1-2.7 0-5.4 0-8.1z"/>
			<path id="Layer" class="s0" d="m210.9 238.5c7.5 13.5 11.5 27.4 10.1 42.6-1.5 17.1 4.1 31.1 17.8 41.6 7.1 5.5 15.4 8.2 24.5 8.5 21.4 0.8 38.7-14.4 43-31.1 4.6-18.3-0.3-36.8-18.3-48.5-5.8-3.7-12.3-6.7-18.7-9.5-7.3-3.1-13.6-7.3-18.8-13.4-2.4-2.9-5.3-5.4-7.9-8.2-1.2-1.2-1-2 0.8-2.5 9.7-2.7 19.7-3 29.5-2.1 10.6 1 20.7 4.3 29.9 10 19.4 12 30.6 29.3 34 51.6 2.5 16.6-0.3 32.4-9 47-9.6 16.1-23.2 27.3-41.2 32.9-5.8 1.8-11.7 3.1-17.9 3.4-16.3 0.9-31.1-3.1-44.7-11.9-9.4-6-16.7-14.2-22.5-23.6-2.8-4.6-4.6-10-6.7-15.1-3.1-7.7-3.9-15.9-3.5-24.2 0.4-7.9 1.8-15.6 4.7-23 3.1-8.2 7.6-15.4 12.8-22.3 0.5-0.8 1.2-1.4 2.1-2.3z"/>
			<path id="Layer" fill-rule="evenodd" class="s2" d="m548.3 190c-0.5 3.6-0.9 6.6-1.3 9.8h-25.9v-154.1h29v55.2c2.1-1.8 3.7-3 5.1-4.5 4.2-4.1 9.6-5.8 15.1-6.5 4.3-0.6 8.7-0.8 13-0.2 7 1.1 13.5 3.7 18.9 8.4 8.3 7.2 12.7 16.5 14.9 27 2 9.2 2.7 18.6 2.2 27.9-0.5 9.1-1.7 18.2-5.7 26.3-6 12-15.1 20.6-29.3 22.4-7.7 1-15.4 1.1-22.4-2.4-3.9-1.8-7.1-4.7-10.7-7.1-0.7-0.5-1.4-1.1-2.9-2.2zm1.9-44.4c0 5.6 0.2 11.2-0.1 16.8-0.4 5.2 1.8 9 5.8 12 6.3 4.6 13.3 5.6 20.7 3.1 8-2.8 10.8-9.6 12.3-17.1 1.7-8.7 1.9-17.5 0.4-26.1-0.7-4.6-2.1-9.4-4.5-13.4-5.9-9.5-19-9.9-27.4-4.9-5 2.9-7.8 7.2-7.3 13.4 0.3 5.4 0 10.8 0 16.2z"/>
			<path id="Layer" fill-rule="evenodd" class="s2" d="m752.2 202.3c-8-0.5-11.9-0.7-17.9-3.2-8.1-3.3-15-8.4-20.2-15.5-4.5-6.4-7.9-13.4-9.5-21-1-4.4-1.1-9.1-1.3-13.7-0.5-8-0.1-16.1 2.4-23.9 2.2-6.9 5.4-13.3 10.1-18.9 8.8-10.6 20.5-15.1 34-16.4 9-0.9 17.6 0.8 25.9 3.2 4.3 1.2 8 4.5 11.7 7.2 6.9 4.9 11.4 11.7 14.7 19.3 2.1 4.7 3 9.8 3.5 14.9 0.4 3.2 1 6.4 1.1 9.6 0.1 3.5-0.1 7.1-0.6 10.5-0.8 6.6-1.3 13.3-4.4 19.3-6 11.8-14.3 21.3-27.4 25.8-6.8 2.3-13.7 2.8-22.1 2.8zm-19.7-54.6c-0.6 6.2 0.7 12.9 3.9 19.2 4.4 9 13.8 13.8 23.7 11.3 8.1-2.1 12.7-7.9 15.1-15.3 3.6-11.4 3.3-23.1-0.3-34.5-3.1-9.9-10.1-15-20.5-15.6-6.4-0.4-14.3 4.3-17.5 10.7-3.7 7.4-4.7 15.2-4.4 24.2z"/>
			<path id="Layer" class="s3" d="m195.3 213c-40.4 17.6-83.6 8.3-107.8-10.7 3.5-3.4 6.8-6.9 10.4-10.1 7.3-6.7 15.5-12 24.4-16.3 6.1-2.9 12.3-5.1 18.9-5.3 5.6-0.2 11 2.1 15.9 5 14.8 8.6 26.3 20.7 36.6 34 0.7 1 1.1 2.1 1.6 3.4z"/>
			<path id="Layer" fill-rule="evenodd" class="s4" d="m1205 144.9c0.4 10.2-1 19.7-4.9 28.8-5.3 12.1-14.1 20.7-26.5 25.2-12.7 4.6-25.3 4.1-37.5-1.7-11-5.4-18.3-14.3-22.9-25.6-4-10-4.6-20.6-4.3-31.1 0.3-10.7 3.3-20.8 9.1-29.7 8.3-12.8 20.2-19.7 35.8-20.6 10.5-0.6 20 1.4 28.8 7 7.8 4.9 13.5 11.9 17.2 20.1 4 8.9 5.9 18.2 5.2 27.6zm-10.4 1.3c-0.3-4.1-0.2-8.2-0.8-12.2-1.7-10-5.2-18.9-13.4-25.7-8.7-7.3-18.6-9.9-29.5-8.1-14.3 2.4-22.8 11.9-27.8 24.6-2.7 6.7-4.3 13.5-4 21.5 0.1 3.8 0.9 8.1 1.6 12 2.9 16.2 12.3 29.2 29.5 33.1 15.9 3.6 32.6-4.4 39.7-20.5 3.5-7.9 4.9-16.1 4.7-24.7z"/>
			<path id="Layer" fill-rule="evenodd" class="s4" d="m1058.8 144.9c0.3 10.3-1.1 19.7-5 28.6-5.2 12.3-14.1 21-26.7 25.5-12.5 4.4-25.1 4-37.2-1.8-11-5.3-18.2-14.1-22.8-25.3-4.2-10-4.8-20.7-4.5-31.4 0.3-10.6 3.3-20.7 9.1-29.7q12.4-19.2 35.8-20.6c10.5-0.6 20.2 1.4 29 7 7.8 5 13.5 11.9 17.1 20.3 4 8.8 5.8 18.2 5.2 27.4zm-10.5 1.3c-0.2-4.2-0.1-8.5-0.8-12.6-1.8-9.8-5.3-18.7-13.3-25.4-8.7-7.2-18.6-9.9-29.6-8.1-14.4 2.5-22.8 12.1-28 24.8-4.4 11.1-4 22.8-1.9 34.1 3 16.5 11.9 28.3 29.3 32.4 15.8 3.6 32.6-4.4 39.6-20.5 3.6-7.9 4.9-16.1 4.7-24.7z"/>
			<path id="Layer" class="s2" d="m466.5 91.6h28.8v108.3h-28.8z"/>
			<path id="Layer" class="s4" d="m1440.7 127.8c-0.6-3.1-1.1-5.9-1.7-8.7-1.3-6.3-5.8-10.3-10.6-13.7-7.2-5.2-15.3-6-24-5.1-7.8 0.7-14.2 4-19.1 9.7-4.8 5.6-8.4 11.9-9.4 19.4-1.6 12.3-2.2 24.8 0.9 36.9 2.8 11.2 9.6 19.7 20.9 23.9 13.2 4.8 29.8 1.6 38.1-9.7 2.6-3.4 4.1-7.6 4.5-13.3h10.9c-1.3 18.3-16.8 30.6-33 33.9-11.3 2.3-22.2 0.5-32.1-5.4-8.8-5.2-14.2-13.3-17.9-22.5-4.7-11.6-5.2-23.8-4.3-35.9 0.8-10.8 3.8-21.3 10.4-30.3 7.8-10.6 18.2-15.9 31.2-16.7 5.8-0.4 11.5-0.2 17.1 1.5 16.3 4.8 25.5 15.7 28.3 32.2q0.1 0.6 0.2 1.7c0 0.9 0.1 2 0.1 2-3.1 0-7.6 0.1-10.5 0.1z"/>
			<path id="Layer" class="s2" d="m497.3 63.3c0 8.5-7.3 15.7-16.2 15.7-8.7 0-16.7-5.7-16.4-15.6 0.2-9.4 5.7-14.8 16-14.9 9.8-0.1 16.3 5.4 16.6 14.8z"/>
			<g id="Layer">
				<path id="Layer" class="s4" d="m1345.7 60c0 4.8-2.4 7.4-7 7.4-5 0-7.6-2.6-7.7-7.5 0-4.9 2.4-7.1 7.5-7.1 4.8 0 7.2 2.4 7.2 7.2z"/>
				<path id="Layer" class="s4" d="m947.4 60.2c0 4.6-2.5 7.2-7 7.2-5 0-7.7-2.6-7.7-7.4 0-5 2.3-7.2 7.5-7.2 4.8 0 7.2 2.4 7.2 7.4z"/>
				<path id="Layer" fill-rule="evenodd" class="s4" d="m1293.6 102.6c1.3 1.1 4.2 4 4.2 4v-14.7h10.1c0 1 0.1 1.9 0.1 2.7 0 32.7 0.2 65.3-0.1 98 0 7.8 0 15.8-2.9 23.4-5.2 13.5-14.7 22.1-29 25.4-12 2.8-23.5 1.2-34.4-4.5-5.5-2.9-10.6-6.6-14.4-11.7 2-2.2 4-4.4 6.1-6.7 6.3 6.8 13.6 11.7 22.5 13.7 12.7 2.8 24 0 32.9-9.7 4.6-5 7-11.1 7.5-17.9 0.3-4.6 0.3-8.3 0.3-12.9 0-1.1 0.1-4.4 0.1-5.5-1.3 0.9-2.9 2.4-3.6 3.1-5.9 6-12.9 9.9-21.1 11.5-4 0.8-8.2 1.7-12.2 1.3-7.2-0.9-14.2-3.1-20.1-7.9-10.9-8.9-15.8-20.8-17.5-34.2-0.8-5.8-1.4-11.7-1.2-17.5 0.4-13.8 3-27.1 11.7-38.4 6.6-8.5 15.3-13.2 26.1-13.8 7.4-0.4 14.5 0.2 21.3 3.2 4.8 2.1 9.7 5.7 13.6 9.1zm3.3 62.8c0-6.3-0.1-12.6-0.1-19q0.1 0 0.1 0c0-7.4-0.1-14.9 0-22.3 0.1-3.3-0.6-6.5-2.7-8.9-3.3-3.8-6.8-7.5-10.8-10.4-6.2-4.6-13.6-5.1-21.2-4.9-9.2 0.2-15.9 4.7-21.2 11.8-7.4 9.8-8.9 21.5-9.4 33.2-0.3 7.6 0.7 15.1 2.9 22.3 2.6 9.1 7.6 16.7 16 21.4 12.1 6.6 28.7 4.2 38.7-5.2 5.1-4.8 7.7-10.3 7.7-18z"/>
				<path id="Layer" class="s4" d="m1344.1 92h-3.6c-2.5 0-5.1 0-7.7 0v107.4h11.2v-2q0-49.7 0-99.4l0.1 0.1z"/>
				<path id="Layer" class="s4" d="m1544.9 169.8c-0.5-7-3.1-12.9-8.8-17.4-6.9-5.6-15.2-8.4-23.6-10.5-8.7-2.2-17.5-4.2-25.4-8.6-6.2-3.3-9.8-8.4-9-15.6 0.2-2.3 1-4.9 2-7.2 1.7-4 5.1-5.6 8.5-7.3 7.1-3.7 14.6-3.8 22.3-2.8 5.6 0.7 10.7 2.6 14.9 6.3 4.3 3.8 7.4 8.3 7.3 14.3h11.7c-0.9-10.3-5.2-18.5-13.9-24.1-8.6-5.5-18-7-28.1-6.7-9.3 0.2-17.9 2.3-25.4 8-8.6 6.7-12.2 16.7-9.9 26.9 1.8 7.7 6.8 12.6 13.4 16.2 9.3 5 19.7 6.7 29.7 9.4 7.9 2.1 14.9 5.6 20.2 12 2.6 3.1 3.2 6.8 3 10.7-0.5 8.4-6.3 13-13.3 16-6.4 2.8-13.3 3.9-20.5 2.9-9.4-1.4-23.1-6.6-25.5-20.4v-1.4h-1.4c0 0-0.3-0.1-0.4-0.1-3-0.1-6.1-0.1-9.4-0.1 0 1.4-0.1 2.4 0 3.2 2.4 12.6 10.3 20.5 22 24.9 9.8 3.7 20 4.2 30.3 2.6 7.1-1.1 13.7-3.7 19.4-8.2 7.6-5.8 10.6-13.7 9.9-23z"/>
				<path id="Layer" class="s4" d="m1089.7 181.2v18.3c-1.8 0-3.6 0.1-5.3 0.1h-5.4v-18.4z"/>
				<path id="Layer" class="s4" d="m1089.7 199.5v0.1h-5.3c1.7 0 3.5-0.1 5.3-0.1z"/>
				<path id="Layer" class="s4" d="m1089 46.1q-2.8 0-5.6 0c-0.8 0-1.4 0-1.9 0h-2.5v4 0.1 3.2 5.1c0 40.9 0.1 81.8 0 122.7h10.7v-135.1h-0.7z"/>
				<path id="Layer" class="s4" d="m934.3 92v107.4h11.5v-107.4z"/>
				<path id="Layer" fill-rule="evenodd" class="s4" d="m836.2 184.3l-0.7-0.9c0 2.3 0 13.7 0 16h-10.1v-153.2h10.6q0 6.1 0 12c0 14 0 28-0.1 42v6.8c0.9-0.6 3.7-3.2 4.3-4 7-7.9 15.7-12.2 26.2-12.7 6.5-0.4 12.8-0.2 19 2.3 7.7 3 13.5 8.4 17.9 15.3 5.2 8.2 7.2 17.3 8.1 26.7 1.2 11.9 0.8 23.7-2.3 35.2-3.1 11.1-8.8 20.5-18.9 26.7-7.8 4.8-16.4 6.1-25.5 4.9-6.4-0.9-12.4-2.7-17.7-6.4-1.9-1.4-3.5-3-5.2-4.6-2-1.9-3.9-3.9-5.6-6zm64.6-29.2c0.8-10.5 0.8-20.8-1.9-31-1.7-6.6-4.5-12.5-9.9-17.1-6.3-5.4-13.5-7.4-21.8-7.3-12 0.1-20.6 5.5-27.2 15-2.8 4-4.2 8.4-4.1 13.4 0.1 6.3 0.1 12.6 0.1 19q0 0 0 0c0 6.6 0.1 13.2 0 19.9-0.1 3.3 0.9 6.2 2.7 8.9 7.2 10.7 17.2 16.4 30.4 16.3 11.5-0.1 22.8-7.4 27.2-17.9 2.6-6.2 4-12.5 4.5-19.2z"/>
			</g>
			<path id="Layer" class="s2" d="m449.9 44.6c-8.1 0-16.2 0.2-20.8 0.3-2.9 0.1-5.8 0.5-8.5 1.5-7.4 2.7-13.2 7.5-17.3 14.7-5.3 9.4-5.2 19.6-5.3 30.2q-0.3 0-0.6 0.1h-10.4q-1.4 0-2.8-0.1-0.5 0-0.9 0.1h-1.9v21.3h4.4 3.2c2.1 0 4.2 0 6.2 0.1 0.9 0 2.2 0.7 2.5 1.4v85.7h29.9v-86.3c0.2-0.7 0.7-0.9 1.8-0.9h0.2c0.7 0 1.7 0 3 0 5.6 0 11.2 0 16.7 0v-21.4h-19.8c-1.1-0.1-2-0.6-1.9-2.1 0.1-4.3 0.3-8.8 1.2-13 0.9-3.8 3.5-6.6 7.5-7.8 4.5-1.5 9-1.3 13.5-0.6 1.8 0.2 3-0.1 3.1-2.4q0.1-8.2 0.6-16.4c0.1-2.6-0.1-4.4-3.7-4.4z"/>
			<path id="Layer" class="s2" d="m697.7 93l-0.1-3.3-3.8 0.1c-2.5-0.1-5 0-7.5 0-7.9-0.1-13.9 3.6-19 9.3l-4 5 0.1-10.3c0-0.5 0-0.9-0.1-1.3v-1.2h-27.4v108.6h29.1v-1.8q0-32.6 0-65.2c0-3.4 0.9-6.5 3.5-8.9 6.6-6.1 14.7-6.2 22.8-5.5l5.7 1.1v-3.6c0-0.3 0.1-0.6 0.1-0.9 0.1-7.4 0.2-14.7 0.5-22q0-0.1 0-0.1z"/>
		</g>
	</g>
</svg>