<?xml version="1.0" ?>
<svg xmlns="http://www.w3.org/2000/svg" class="image" data-name="a43f90a8-1108-456b-9688-8fdd44529fd3" id="b7c5c896-3957-46a0-832b-fb1498dda0a8" viewbox="0 0 2349 730.9">
	<desc>
  Fifth Wall
 </desc>
	<polygon fill="#2a2a2a" points="2349 118 2349 613 1190 613 1190 585.68 1190.1 582 2318 582 2318 149 1190 149 1190 123.07 1190.1 118 2349 118">
 </polygon>
	<path d="M1301,271.7c.5,1.6,9.1,29.6,19,62.3s21.5,70.5,25.6,84,8.9,28.9,10.5,34.2l3,9.8h38.7l1.5-4.8c11.1-37.8,44.3-144,44.7-143.4.4.4,8,24.8,17,54.2s19.1,62.5,22.5,73.5l6.1,20h38.9l3.2-10c4-12.7,54.1-176.9,54.9-180.1l.6-2.4h-16.1c-12,0-16.3.3-16.6,1.2-.2.7-10.4,35.6-22.7,77.5s-22.4,76-22.6,75.8-10.8-34.9-23.6-77.1l-23.3-76.9-18.1-.3-18-.2-3,9.7c-1.7,5.4-11.4,37.5-21.7,71.3s-19.6,64.4-20.7,67.9l-2.1,6.4-13.9-47.4c-7.6-26.1-17.8-60.9-22.6-77.4l-8.8-30-16.7-.3-16.6-.2Z" fill="#2a2a2a">
 </path>
	<path d="M1689.5,270.7c-.7,2.1-24.5,62.3-54,136.8-11.3,28.6-20.5,52.5-20.5,53.2,0,1,3.7,1.3,16,1.3h16l1.1-2.8c.5-1.5,4.8-12.7,9.6-25l8.6-22.2h86.4l9.6,24.7,9.5,24.8,16.6.3c12.9.2,16.6,0,16.6-1,0-.7-5-13.9-11.1-29.3s-22.8-57.7-37.1-94-26.2-66.6-26.5-67.3c-.4-.9-5.4-1.2-20.3-1.2C1692.1,269,1690.2,269.2,1689.5,270.7Zm36.4,72.3c8.2,21.2,14.7,38.8,14.5,39.2-.6,1-62.4,1.1-62.4.1,0-.4,7.1-18.9,15.7-41.1,11.7-30.3,15.9-40,16.5-38.6C1710.7,303.6,1717.7,321.8,1725.9,343Z" fill="#2a2a2a">
 </path>
	<path d="M1865.2,365.2l.3,96.3,68.8.3,68.7.2V432l-53.2-.2-53.3-.3-.3-81.3L1896,269h-31Z" fill="#2a2a2a">
 </path>
	<path d="M2063,365.5V462h138V432H2094V269h-31Z" fill="#2a2a2a">
 </path>
	<polygon fill="#2a2a2a" points="1160 118 1160 149 31 149 31 582 1160 582 1160 613 0 613 0 118 1160 118">
 </polygon>
	<path d="M152,365v96h30V379H282V350H232.1c-45.7,0-50-.1-50.3-1.7-.2-.9-.2-12.6,0-26l.3-24.3H288V269H152Z" fill="#f75b3b">
 </path>
	<path d="M356,365v96h30V269H356Z" fill="#f75b3b">
 </path>
	<path d="M468,365v96h30V379H598V350H498V298H604.8l.1-14.5.2-14.5H468Z" fill="#f75b3b">
 </path>
	<path d="M660.8,283.5l.3,14.5H723V458.7c0,2.3.1,2.3,15,2.3,11.5,0,15-.3,14.9-1.3-.1-.6-.1-37.3,0-81.5L753,298h62.5V269h-155Z" fill="#f75b3b">
 </path>
	<path d="M876,365v96h30V379h105v82h15c13.6,0,15-.2,15-1.8,0-.9.1-44.1.3-95.9l.2-94.3H1011v81l-52.2-.2-52.3-.3-.3-40.3L906,269H876Z" fill="#f75b3b">
 </path>
	<path d="M1160.1,0H1190V730.9h-29.9Z" fill="#f75b3b">
 </path>
</svg>