<svg viewBox="0 0 396 120" xmlns="http://www.w3.org/2000/svg"><g fill="#fff" fill-rule="evenodd"><path d="M49 73v23H37V26h48v12H49v23h21v12zm11 47c33.137 0 60-26.863 60-60S93.137 0 60 0 0 26.863 0 60s26.863 60 60 60zm13-79v32h12V41zM146.666 41.724h21.479v5.17h-15.557v9.118h14.664v4.982h-14.664V75h-5.922zm24.397 10.716h5.64V75h-5.64zm-.799-7.661c0-.909.337-1.7 1.01-2.374s1.528-1.01 2.562-1.01 1.903.321 2.608.963 1.058 1.45 1.058 2.421-.352 1.778-1.058 2.42-1.574.964-2.608.964-1.888-.337-2.562-1.01-1.01-1.465-1.01-2.374zm11.895-5.311h5.64V75h-5.64zm26.888 21.996c0-.72-.102-1.41-.305-2.068s-.525-1.238-.964-1.739-.995-.9-1.669-1.198-1.464-.447-2.373-.447c-1.692 0-3.125.51-4.3 1.528s-1.826 2.326-1.951 3.924zm5.64 2.538v.752c0 .25-.016.501-.047.752h-17.155a5.586 5.586 0 0 0 2.068 3.971c.595.486 1.269.87 2.021 1.152s1.535.423 2.35.423c1.41 0 2.6-.258 3.572-.776s1.77-1.23 2.397-2.138l3.76 3.008c-2.225 3.008-5.452 4.512-9.682 4.512-1.755 0-3.368-.274-4.841-.823s-2.75-1.323-3.83-2.326-1.927-2.232-2.539-3.69-.916-3.11-.916-4.958c0-1.817.305-3.47.916-4.958s1.45-2.758 2.515-3.807 2.326-1.865 3.783-2.444 3.032-.87 4.724-.87c1.567 0 3.016.258 4.347.775s2.484 1.285 3.455 2.303 1.731 2.288 2.28 3.807.822 3.298.822 5.335zm4.234-22.278h10.857c1.911 0 3.635.172 5.17.517s2.851.909 3.948 1.692 1.943 1.786 2.538 3.008.893 2.695.893 4.418c0 1.849-.345 3.4-1.034 4.653s-1.621 2.264-2.796 3.031-2.546 1.324-4.113 1.669-3.227.517-4.982.517h-4.559V75h-5.922zm10.058 14.523c.971 0 1.896-.07 2.773-.211s1.66-.392 2.35-.753 1.238-.853 1.645-1.48.611-1.441.611-2.444c0-.971-.204-1.762-.611-2.374s-.948-1.088-1.622-1.433-1.44-.572-2.303-.682-1.746-.164-2.655-.164h-4.324v9.541zm14.668-3.807h5.405v3.76h.094c.627-1.316 1.504-2.381 2.632-3.196s2.444-1.222 3.948-1.222c.22 0 .454.008.705.024s.47.054.658.117v5.17c-.376-.094-.697-.157-.964-.188s-.524-.047-.775-.047c-1.285 0-2.319.235-3.102.705-.783.47-1.394 1.034-1.833 1.692s-.736 1.332-.893 2.021-.235 1.238-.235 1.645V75h-5.64zm30.648 9.024c0-.72-.102-1.41-.305-2.068s-.525-1.238-.964-1.739-.995-.9-1.669-1.198-1.464-.447-2.373-.447c-1.692 0-3.125.51-4.3 1.528s-1.826 2.326-1.951 3.924zm5.64 2.538v.752c0 .25-.016.501-.047.752h-17.155a5.586 5.586 0 0 0 2.068 3.971c.595.486 1.269.87 2.021 1.152s1.535.423 2.35.423c1.41 0 2.6-.258 3.572-.776s1.77-1.23 2.397-2.138l3.76 3.008c-2.225 3.008-5.452 4.512-9.682 4.512-1.755 0-3.368-.274-4.841-.823s-2.75-1.323-3.83-2.326-1.927-2.232-2.539-3.69-.916-3.11-.916-4.958c0-1.817.305-3.47.916-4.958s1.45-2.758 2.515-3.807 2.326-1.865 3.783-2.444 3.032-.87 4.724-.87c1.567 0 3.016.258 4.347.775s2.484 1.285 3.455 2.303 1.731 2.288 2.28 3.807.822 3.298.822 5.335zm.568-11.562h6.157l5.922 16.45h.094l5.969-16.45h5.969L295.637 75h-6.016zm26.089 0h5.64V75h-5.64zm-.799-7.661c0-.909.337-1.7 1.01-2.374s1.528-1.01 2.562-1.01 1.903.321 2.608.963 1.058 1.45 1.058 2.421-.352 1.778-1.058 2.42-1.574.964-2.608.964-1.888-.337-2.562-1.01-1.01-1.465-1.01-2.374zm27.687 16.685c0-.72-.102-1.41-.305-2.068s-.525-1.238-.964-1.739-.995-.9-1.669-1.198-1.464-.447-2.373-.447c-1.692 0-3.125.51-4.3 1.528s-1.826 2.326-1.951 3.924zm5.64 2.538v.752c0 .25-.016.501-.047.752h-17.155a5.586 5.586 0 0 0 2.068 3.971c.595.486 1.269.87 2.021 1.152s1.535.423 2.35.423c1.41 0 2.6-.258 3.572-.776s1.77-1.23 2.397-2.138l3.76 3.008c-2.225 3.008-5.452 4.512-9.682 4.512-1.755 0-3.368-.274-4.841-.823s-2.75-1.323-3.83-2.326-1.927-2.232-2.538-3.69-.917-3.11-.917-4.958c0-1.817.305-3.47.916-4.958s1.45-2.758 2.515-3.807 2.326-1.865 3.784-2.444 3.031-.87 4.723-.87c1.567 0 3.016.258 4.348.775s2.483 1.285 3.454 2.303 1.731 2.288 2.28 3.807.822 3.298.822 5.335zm.756-11.562h6.11l4.7 16.168h.094l4.841-16.168h6.016l4.888 16.168h.094l4.794-16.168h5.875L369.486 75h-5.734l-5.123-15.792h-.094L353.459 75h-5.734zm51.845 6.016c-.501-.658-1.19-1.23-2.068-1.716s-1.833-.728-2.867-.728c-.909 0-1.739.188-2.491.564s-1.128 1.003-1.128 1.88.415 1.496 1.246 1.857 2.044.728 3.642 1.104c.846.188 1.7.439 2.562.752s1.644.728 2.35 1.246 1.276 1.159 1.715 1.927.658 1.7.658 2.796c0 1.379-.258 2.546-.775 3.502s-1.207 1.73-2.068 2.326-1.865 1.026-3.008 1.292-2.327.4-3.549.4c-1.755 0-3.462-.321-5.123-.964s-3.04-1.558-4.136-2.749l3.713-3.478c.627.815 1.441 1.488 2.444 2.021s2.115.799 3.337.799c.407 0 .822-.047 1.246-.141s.814-.243 1.175-.446.65-.478.869-.823.329-.768.329-1.269c0-.94-.43-1.614-1.292-2.021s-2.155-.815-3.878-1.222c-.846-.188-1.668-.43-2.467-.728s-1.512-.69-2.139-1.175-1.128-1.09-1.504-1.81-.564-1.614-.564-2.679c0-1.253.258-2.334.776-3.243s1.198-1.653 2.044-2.232 1.802-1.011 2.867-1.293 2.162-.423 3.29-.423c1.63 0 3.22.282 4.77.846s2.781 1.426 3.69 2.585z"/></g></svg>