<svg viewBox="0 0 97 40" fill="none" xmlns="http://www.w3.org/2000/svg">
<path d="M30.7295 26.5005C30.7295 23.0478 30.7295 19.595 30.7295 16.1423C30.7295 15.9752 30.7372 15.8099 30.7431 15.6436C30.7492 15.6111 30.7654 15.5815 30.7894 15.5594C30.8133 15.5372 30.8437 15.5238 30.8758 15.5211C30.9608 15.5211 31.0391 15.5106 31.1199 15.5106H35.4727C35.505 15.5106 35.5373 15.5106 35.5705 15.5106C35.6432 15.4967 35.7184 15.5094 35.7829 15.5467C35.8474 15.584 35.8972 15.6433 35.9234 15.7145C35.9753 15.8361 36.0425 15.9507 36.1037 16.0688C36.2568 16.3636 36.4073 16.6585 36.563 16.9515C36.5958 17.0084 36.6361 17.0602 36.6829 17.1055C36.6946 17.1154 36.7083 17.1225 36.7231 17.1261C36.7378 17.1298 36.7532 17.1299 36.7679 17.1265C36.8713 17.0784 36.9721 17.0247 37.0699 16.9655C37.8206 16.4931 38.6268 16.1213 39.4691 15.8588C40.1107 15.6642 40.7759 15.564 41.4448 15.5614C41.7543 15.5614 42.0648 15.5518 42.3735 15.5614C43.7299 15.598 45.0619 15.9415 46.2747 16.5675C47.5734 17.2499 48.638 18.3248 49.3254 19.6478C49.7564 20.4531 50.0511 21.3279 50.1971 22.2348C50.2857 22.7947 50.329 23.3612 50.3264 23.9285C50.3468 28.2654 50.3627 32.602 50.374 36.9384C50.374 37.0556 50.374 37.1719 50.374 37.2883C50.3771 37.313 50.3749 37.3382 50.3677 37.362C50.3605 37.3858 50.3485 37.4078 50.3324 37.4264C50.3163 37.445 50.2965 37.4599 50.2743 37.4701C50.2522 37.4802 50.2282 37.4853 50.2039 37.4851C50.1393 37.4851 50.0738 37.4851 50.0083 37.4851H44.7761C44.6911 37.4851 44.6137 37.4799 44.532 37.4764C44.5004 37.4705 44.4713 37.4544 44.4491 37.4305C44.4268 37.4067 44.4123 37.3762 44.4079 37.3434C44.3994 37.2104 44.3875 37.081 44.3858 36.9445C44.3764 35.9935 44.3628 35.0434 44.3619 34.0925C44.3585 31.09 44.3585 28.0863 44.3619 25.0815C44.3619 24.7814 44.3619 24.4814 44.3619 24.1804C44.3506 23.6098 44.1907 23.0527 43.8988 22.5672C43.607 22.0817 43.1939 21.6857 42.7026 21.4203C42.2528 21.1819 41.7657 21.027 41.2636 20.9627C41.1505 20.9478 41.0383 20.9286 40.9234 20.9155C40.8428 20.9041 40.7616 20.8982 40.6802 20.898C39.7945 20.8915 38.927 21.1565 38.1883 21.6591C37.6007 22.0602 37.1513 22.642 36.904 23.3213C36.7841 23.6499 36.7177 23.9967 36.7076 24.3475C36.7016 24.5802 36.7016 24.8147 36.7016 25.0474C36.7016 28.9171 36.7016 32.7869 36.7016 36.6566V37.0573C36.7016 37.4703 36.7016 37.486 36.3087 37.4851C34.5811 37.4851 32.8518 37.4851 31.1207 37.4851C31.0234 37.4844 30.9262 37.4771 30.8299 37.4633C30.8043 37.4633 30.7754 37.4257 30.7601 37.3985C30.7461 37.3682 30.7391 37.335 30.7397 37.3014C30.7397 37.1346 30.7397 36.9678 30.7397 36.801C30.7329 33.3704 30.7295 29.9369 30.7295 26.5005Z" fill="#FF7420"/>
<path d="M5.82989 29.273C5.82989 26.7173 5.82989 24.1613 5.82989 21.605C5.82989 20.9864 5.88432 21.0442 5.28132 21.0424C4.67833 21.0407 4.07533 21.0424 3.47234 21.0424C3.35922 21.0424 3.24525 21.0346 3.13214 21.0284C3.10046 21.0229 3.07138 21.007 3.04929 20.983C3.0272 20.959 3.01329 20.9283 3.00967 20.8955C3.00967 20.8465 3.00031 20.7957 3.00031 20.7467C3.00031 19.8509 3.00031 18.9542 3.00031 18.0574C2.99747 17.983 3.01404 17.9091 3.04828 17.8434C3.08252 17.7777 3.1332 17.7227 3.19508 17.6839C3.32775 17.5877 3.45022 17.4809 3.58205 17.3803L4.86204 16.3812C5.1461 16.159 5.42846 15.9333 5.71252 15.7111C5.75186 15.682 5.78345 15.6432 5.8044 15.5982C5.82536 15.5533 5.83499 15.5037 5.83243 15.4539C5.83243 15.3542 5.83243 15.2544 5.83243 15.1556C5.84349 14.4417 5.83753 13.7278 5.869 13.0148C5.88782 12.1178 6.03454 11.2285 6.30446 10.3754C6.64859 9.31407 7.1983 8.33554 7.92038 7.49888C8.72072 6.58927 9.73709 5.90916 10.8699 5.52521C11.7637 5.20637 12.7016 5.03769 13.6476 5.02566C14.0056 5.02566 14.3645 5.01954 14.7226 5.03442C14.9658 5.04491 15.2082 5.08342 15.4506 5.11491C16.1116 5.2016 16.7655 5.33874 17.4067 5.52521C17.5317 5.56108 17.6567 5.60132 17.7792 5.64594C17.8352 5.66043 17.8833 5.69703 17.9133 5.7478C17.9432 5.79856 17.9525 5.85939 17.9391 5.91714C17.9142 6.19768 17.8858 6.47792 17.8541 6.75787C17.7945 7.26791 17.7579 7.78058 17.684 8.28974C17.6227 8.73329 17.5912 9.17946 17.5428 9.62476C17.5309 9.73937 17.5062 9.85309 17.4832 9.96682C17.4728 9.99831 17.4531 10.0257 17.4269 10.0453C17.4007 10.0649 17.3693 10.0756 17.337 10.0762C17.2238 10.0701 17.1099 10.0631 16.9968 10.0508C16.8836 10.0386 16.7705 10.0228 16.6566 10.0018C16.176 9.90909 15.687 9.88546 15.2005 9.83822C14.5983 9.78131 13.9912 9.86104 13.4222 10.0718C13.0814 10.1869 12.7717 10.3825 12.5176 10.6428C12.2636 10.9032 12.0724 11.2212 11.9593 11.5713C11.8434 11.8817 11.7796 12.21 11.7705 12.5424C11.7632 13.4884 11.7569 14.4344 11.7518 15.3804C11.7518 15.4128 11.7603 15.446 11.7637 15.4784C11.7705 15.5105 11.7872 15.5394 11.8113 15.561C11.8353 15.5826 11.8654 15.5956 11.8972 15.5982C11.9951 15.6035 12.092 15.6096 12.1898 15.6096C12.4994 15.6096 12.809 15.6096 13.1185 15.6096H16.8828C17.0299 15.6096 17.1762 15.6096 17.3225 15.6183C17.3627 15.6211 17.4005 15.6391 17.4286 15.6688C17.4567 15.6985 17.4732 15.7379 17.4747 15.7793C17.4747 15.8791 17.4798 15.9788 17.4798 16.0785C17.4798 17.5722 17.4798 19.0661 17.4798 20.5604C17.4798 20.6759 17.473 20.7913 17.4662 20.9103C17.4612 20.9429 17.4456 20.9728 17.422 20.9952C17.3984 21.0176 17.3681 21.0311 17.3361 21.0337C17.1898 21.0389 17.0427 21.0442 16.8964 21.0442H12.3038C12.1737 21.0442 12.0435 21.0494 11.9134 21.0538C11.8733 21.0569 11.8358 21.0756 11.8086 21.1062C11.7814 21.1368 11.7666 21.1768 11.7671 21.2183C11.7671 21.2839 11.762 21.3504 11.7612 21.4169C11.7612 21.5665 11.7612 21.7161 11.7612 21.8648C11.7612 26.8602 11.7612 31.8561 11.7612 36.8527C11.7612 37.0181 11.7552 37.1843 11.7493 37.3496C11.7462 37.3827 11.7325 37.4137 11.7103 37.4378C11.6881 37.4619 11.6587 37.4777 11.6268 37.4826C11.5298 37.4879 11.432 37.494 11.3351 37.494H6.25088C6.15359 37.4962 6.0563 37.49 5.96001 37.4756C5.93817 37.4688 5.91786 37.4576 5.90033 37.4425C5.8828 37.4275 5.86838 37.409 5.85795 37.3881C5.84126 37.3414 5.83459 37.2916 5.83839 37.242C5.83839 37.0924 5.83839 36.9437 5.83839 36.7941L5.82989 29.273Z" fill="#FF7420"/>
<path d="M78.2751 26.4936C78.2751 23.0415 78.2751 19.5893 78.2751 16.1372C78.2751 15.4504 78.2087 15.5073 78.8662 15.5081C80.105 15.5081 81.3436 15.5125 82.5819 15.5213C82.8906 15.5213 83.2002 15.5475 83.5098 15.565C83.6552 15.5738 83.6969 15.6131 83.7284 15.7802C83.8271 16.3051 83.9206 16.83 84.0192 17.3549C84.0839 17.6988 84.1536 18.0399 84.2208 18.3829C84.2293 18.4249 84.2497 18.4468 84.2863 18.4363C84.3178 18.4325 84.3474 18.4191 84.3713 18.3978C84.5295 18.186 84.6792 17.9665 84.8417 17.7583C85.9349 16.2929 87.5432 15.327 89.3212 15.0681C89.9988 14.9681 90.6852 14.9464 91.3675 15.0033C92.1952 15.0745 93.0159 15.2159 93.8211 15.4259C93.8364 15.4259 93.8509 15.4399 93.8662 15.4451C93.9059 15.4551 93.9409 15.479 93.9653 15.5127C93.9897 15.5464 94.0019 15.5878 93.9997 15.6297C93.9912 15.796 93.9844 15.9631 93.9674 16.1284C93.9104 16.725 93.8517 17.3217 93.7879 17.9175C93.7412 18.3645 93.6825 18.8107 93.6348 19.2577C93.5872 19.7048 93.5498 20.1527 93.5013 20.5998C93.4992 20.6657 93.4863 20.7307 93.463 20.7922C93.4365 20.8322 93.396 20.8601 93.3499 20.8701C93.3015 20.877 93.2522 20.8732 93.2053 20.8587C93.0454 20.8229 92.8864 20.7879 92.7291 20.7459C92.3205 20.6297 91.9022 20.5535 91.4797 20.5184C91.025 20.4821 90.5684 20.4768 90.113 20.5026C89.5435 20.5374 88.9795 20.6375 88.4316 20.801C87.615 21.0393 86.8513 21.4386 86.1829 21.9768C85.1899 22.7546 84.5138 23.8848 84.2863 25.1472C84.2597 25.2945 84.2444 25.4437 84.2404 25.5934C84.2327 25.8769 84.2404 26.1603 84.2353 26.4438C84.2307 29.9128 84.2259 33.3816 84.2208 36.8501C84.2208 37.0172 84.2123 37.1834 84.2055 37.3496C84.202 37.3824 84.1881 37.4131 84.166 37.437C84.1438 37.4609 84.1147 37.4766 84.083 37.4817C83.9852 37.4879 83.8883 37.4949 83.7905 37.4949C82.0963 37.4949 80.4016 37.4949 78.7063 37.4949C78.5924 37.4933 78.4787 37.4839 78.3661 37.4669C78.351 37.4613 78.3373 37.4524 78.326 37.4408C78.3146 37.4291 78.306 37.415 78.3006 37.3995C78.286 37.3519 78.2786 37.3024 78.2785 37.2525C78.2785 37.1021 78.2785 36.9525 78.2785 36.802L78.2751 26.4936Z" fill="#777777"/>
<path d="M26.574 26.5445V36.7934C26.574 36.9605 26.574 37.1267 26.574 37.2938C26.5768 37.3184 26.5744 37.3433 26.5671 37.3669C26.5598 37.3905 26.5477 37.4123 26.5316 37.4307C26.5156 37.4492 26.4959 37.4639 26.4738 37.4739C26.4518 37.4839 26.428 37.489 26.4039 37.4889C26.3231 37.4889 26.2423 37.4889 26.1606 37.4889H21.0577C20.9607 37.4915 20.8637 37.4854 20.7677 37.4705C20.7462 37.4626 20.7265 37.4503 20.7097 37.4344C20.6928 37.4184 20.6793 37.3992 20.6699 37.3778C20.654 37.3306 20.6476 37.2806 20.6512 37.2308C20.6512 37.0812 20.6512 36.9316 20.6512 36.7811C20.6512 29.9153 20.6512 23.0492 20.6512 16.1828C20.6512 15.4225 20.5594 15.5083 21.2857 15.5074C22.8897 15.5074 24.4937 15.5074 26.0977 15.5074C26.227 15.5074 26.3529 15.517 26.4847 15.5301C26.4999 15.5353 26.5138 15.5439 26.5254 15.5552C26.537 15.5666 26.5461 15.5804 26.5519 15.5957C26.5686 15.6425 26.5772 15.692 26.5774 15.7419C26.5774 15.8915 26.5774 16.0419 26.5774 16.1915L26.574 26.5445Z" fill="#FF7420"/>
<path d="M75.0355 6.07377C75.0355 5.90755 75.0355 5.74133 75.0355 5.57599C75.039 5.52626 75.0329 5.47632 75.0177 5.42901C74.9991 5.38607 74.9653 5.35198 74.9233 5.33364C74.8599 5.3177 74.7945 5.31152 74.7293 5.31528C72.9529 5.31528 71.1763 5.31528 69.3993 5.31528C69.3356 5.31528 69.2701 5.32664 69.2063 5.33276C69.182 5.33568 69.1594 5.34666 69.1417 5.36403C69.1241 5.38139 69.1124 5.40421 69.1085 5.42901C69.0937 5.51062 69.0871 5.59358 69.0889 5.67658C69.0838 6.22512 69.0779 6.77189 69.077 7.32043C69.077 10.3422 69.077 13.3636 69.077 16.3847C69.077 16.551 69.077 16.7169 69.077 16.8825C69.0792 16.9157 69.0727 16.949 69.0583 16.9788C69.043 17.0006 68.9945 17.0251 68.9818 17.0173C68.861 16.9333 68.7431 16.8458 68.628 16.7548C67.8776 16.1628 67.0239 15.7242 66.1131 15.4627C65.1392 15.1858 64.1348 15.0388 63.1245 15.0252C62.9127 15.02 62.6992 15.0252 62.4883 15.0252C61.7726 15.0258 61.0592 15.1103 60.3621 15.2772C58.12 15.7882 56.1137 17.0689 54.6732 18.9087C53.7533 20.0752 53.058 21.4113 52.6244 22.8455C52.3459 23.7134 52.1819 24.6159 52.137 25.5287C52.0915 26.058 52.0889 26.5903 52.1294 27.12C52.1314 27.1533 52.1314 27.1866 52.1294 27.2198C52.1379 27.9341 52.2276 28.6449 52.3964 29.3378C52.6621 30.4875 53.0887 31.5914 53.6628 32.615C54.336 33.8574 55.2495 34.9447 56.3469 35.8099C57.9866 37.1316 59.9878 37.8913 62.069 37.9822C63.2255 38.0502 64.3851 37.9228 65.5016 37.6051C66.6827 37.2768 67.7856 36.7025 68.7419 35.9175C68.8049 35.865 68.8678 35.8125 68.9333 35.7618C68.9607 35.7427 68.9891 35.7252 69.0183 35.7093C69.0399 35.6999 69.0639 35.6978 69.0868 35.7031C69.1096 35.7084 69.1303 35.721 69.1459 35.7391L69.7225 36.9464C69.7863 37.0802 69.8501 37.2149 69.9173 37.3479C69.9319 37.3779 69.9537 37.4035 69.9806 37.4224C70.0076 37.4412 70.0388 37.4526 70.0712 37.4555C70.152 37.4643 70.2337 37.4669 70.3145 37.4669L74.6664 37.4958C74.7515 37.4958 74.8297 37.4905 74.9105 37.4853C74.9423 37.481 74.9717 37.4656 74.9938 37.4417C75.016 37.4179 75.0295 37.3869 75.0321 37.354C75.0372 37.1878 75.044 37.0216 75.044 36.8563C75.044 31.7098 75.044 26.563 75.044 21.416L75.0355 6.07377ZM68.8508 28.5574C68.7817 28.8305 68.6965 29.099 68.5956 29.3614C68.2708 30.2214 67.7022 30.9612 66.9636 31.4847C66.1786 32.0594 65.2665 32.4232 64.31 32.5432C63.6473 32.633 62.9746 32.6079 62.3199 32.4689C61.376 32.2646 60.5039 31.7998 59.7974 31.1242C58.7685 30.1882 58.1054 28.8995 57.9314 27.498C57.7441 26.2592 57.9128 24.9912 58.417 23.8499C58.9744 22.5749 59.9553 21.546 61.1836 20.948C61.7987 20.6369 62.4717 20.4659 63.1568 20.4467C63.9707 20.4088 64.7853 20.5084 65.5679 20.7415C66.2822 20.946 66.9371 21.327 67.4755 21.8514C68.0139 22.3758 68.4194 23.0276 68.6569 23.7501C68.9159 24.5023 69.0552 25.2925 69.0693 26.0903C69.0693 26.2225 69.0693 26.3528 69.0693 26.5278C69.0883 27.2115 69.0148 27.8945 68.8508 28.5574Z" fill="#FF7420"/>
<path d="M26.8897 6.39841C26.8802 5.60828 26.5991 4.84712 26.0962 4.24978C25.7905 3.84789 25.3972 3.52552 24.9481 3.30867C24.499 3.09182 24.0066 2.98656 23.5107 3.00137H23.4622H23.1705C22.9278 2.99836 22.6861 3.03497 22.4544 3.10985C21.6269 3.3792 20.9264 3.95547 20.4889 4.72659C20.2726 5.08101 20.1336 5.47947 20.0816 5.89451C20.0006 6.49056 20.0458 7.09758 20.2142 7.67395C20.4066 8.27416 20.6417 8.85897 20.9176 9.42365C21.6183 10.8508 22.408 12.2299 23.2819 13.5521C23.3187 13.6063 23.3628 13.6549 23.4129 13.6964C23.426 13.7035 23.4406 13.7073 23.4554 13.7073C23.4703 13.7073 23.4849 13.7035 23.498 13.6964C23.5469 13.6534 23.5898 13.6037 23.6255 13.5486C23.8994 13.1155 24.1758 12.6851 24.442 12.2477C25.0581 11.2493 25.6173 10.215 26.1166 9.14983C26.3553 8.64028 26.5588 8.11405 26.7256 7.57509C26.8441 7.19512 26.8996 6.79733 26.8897 6.39841ZM24.8553 7.68183C24.6319 7.94732 24.3457 8.14919 24.0244 8.26799C23.9487 8.29615 23.8698 8.31435 23.7897 8.32221C23.6774 8.33446 23.5634 8.33534 23.4495 8.34146C23.0163 8.34622 22.5961 8.19012 22.2658 7.90182C21.9355 7.61352 21.7175 7.21236 21.6516 6.77197C21.5939 6.44154 21.6261 6.10114 21.7447 5.78835C21.8632 5.47557 22.0635 5.20258 22.3235 4.99953C22.6515 4.7354 23.0565 4.59263 23.4731 4.59422C23.8897 4.59581 24.2936 4.74166 24.6198 5.00828C24.8083 5.1662 24.9642 5.36131 25.0784 5.58211C25.1926 5.80291 25.2628 6.04497 25.2847 6.29405C25.3067 6.54313 25.28 6.7942 25.2063 7.03252C25.1325 7.27085 25.0132 7.49161 24.8553 7.68183Z" fill="#777777"/>
</svg>
