<?xml version="1.0" ?>
<svg xmlns="http://www.w3.org/2000/svg" viewBox="0 0 172 172">
	<radialGradient id="a" cx="448.379" cy="94.3" r="68.51" gradientUnits="userSpaceOnUse">
		<stop offset=".017" stop-color="#6ca8d8"/>
		<stop offset=".293" stop-color="#4d8dc5"/>
		<stop offset=".764" stop-color="#1e63a7"/>
		<stop offset="1" stop-color="#0c539c"/>
	</radialGradient>
	<radialGradient id="b" cx="421.742" cy="85.156" r="79.154" gradientUnits="userSpaceOnUse">
		<stop offset="0" stop-color="#68c14c"/>
		<stop offset=".056" stop-color="#65bc4a"/>
		<stop offset=".686" stop-color="#478d37"/>
		<stop offset="1" stop-color="#3b7b30"/>
	</radialGradient>
	<path d="M 502.7,101.7 L 449.8,154.6 C 447.4,157.0 443.3,155.3 443.3,151.9 L 443.3,31.1 L 502.6,90.4 C 505.8,93.6 505.8,98.6 502.7,101.7 L 502.7,101.7" fill="url(#a)" transform="translate(-339.981 .4)"/>
	<path d="M 400.2,85.4 L 412.2,85.4 C 416.9,85.4 420.7,89.2 420.7,93.9 L 420.7,167.3 C 420.7,170.7 416.6,172.4 414.2,170.0 L 351.3,107.1 C 345.5,101.3 345.5,91.9 351.3,86.1 L 436.1,1.3 C 438.7,-1.3 443.2,0.5 443.2,4.3 L 443.2,31.2 L 397.0,77.5 C 394.1,80.4 396.1,85.4 400.2,85.4" fill="url(#b)" transform="translate(-339.981 .4)"/>
</svg>