<?xml version="1.0" encoding="utf-8"?>
<!-- Generator: Adobe Illustrator 28.0.0, SVG Export Plug-In . SVG Version: 6.00 Build 0) -->
<svg version="1.1" id="Layer_1" xmlns="http://www.w3.org/2000/svg"  x="0px" y="0px" viewBox="0 0 550.8 116.4" style="enable-background:new 0 0 550.8 116.4;" xml:space="preserve">
	<style type="text/css">
		.st0{fill-rule:evenodd;clip-rule:evenodd;fill:#061D33;}
		.st1{display:none;}
		.st2{display:inline;fill:#061D33;}
	</style>
	<g>
		<path class="st0" d="M550.4,35.7v8.5h-4.6v45.1h-11.1l-21.6-34h-0.2v25.6h4.8v8.4h-19.2v-8.4h4.5V44.2h-4.5v-8.5h15l22.2,35.5h0.2
		v-27h-4.8v-8.5H550.4L550.4,35.7z M550.4,35.7" />
		<path class="st0" d="M212.2,80.9V44.2h-4.5v-8.5h20v8.5h-4.5v36.7h4.5v8.4h-20v-8.4H212.2L212.2,80.9z M212.2,80.9" />
		<path class="st0" d="M449.2,44.8l-6.1,20.9H455L449.2,44.8L449.2,44.8L449.2,44.8z M456.6,35.7l14.1,45.2h4.3v8.4h-20.7v-8.4h4.9
		l-2.2-7.8h-16l-2.6,7.8h5v8.4h-20.1v-8.4h4.8l11.9-36.7h-5.2v-8.5H456.6L456.6,35.7z M456.6,35.7" />
		<path class="st0" d="M390.4,61.1h10.4c4.4,0,7.8-2.5,7.8-8.2c0-5.4-3.2-8.1-7.6-8.1h-10.6V61.1L390.4,61.1z M401.9,35.7
		c11.1,0,17.5,6.2,17.5,16.6c0,7.3-3.7,13.1-10,14.9l10.2,13.6h3.5v8.4h-20.4v-8.4h3.3l-8.4-11.8h-7.6v11.8h4.4v8.4H375v-8.4h4.4
		V44.2H375v-8.5H401.9L401.9,35.7z M401.9,35.7" />
		<path class="st0" d="M344,65.7v15.5h11c4.4,0,7.1-2.5,7.1-7.7c0-5-2.8-7.7-7.5-7.7H344L344,65.7z M354.5,44.8H344v14.5h10.5
		c4.4,0,6.8-2.8,6.8-7.3C361.3,47.8,359,44.8,354.5,44.8L354.5,44.8L354.5,44.8z M364.4,61.6c5.8,1.7,9.6,6.1,9.6,13
		c0,9.2-5.9,14.7-17,14.7h-28.5v-8.4h4.5V44.2h-4.5v-8.5h26.9c11.1,0,17,5,17,13.7c0,5.8-3.1,10.3-8,12.1V61.6L364.4,61.6z
		 M364.4,61.6" />
		<path class="st0" d="M311.5,80.9v-15h-20.4v15h4.5v8.4h-19.7v-8.4h4.5V44.2h-4.5v-8.5h19.7v8.5h-4.5v13.2h20.4V44.2h-4.5v-8.5h19.8
		v8.5h-4.5v36.7h4.5v8.4h-19.8v-8.4H311.5L311.5,80.9z M311.5,80.9" />
		<path class="st0" d="M240.1,74v5.6c5.2,1.1,9,1.5,12.2,1.5c6.3,0,9.1-2.8,9.1-6.3c0-5.1-6.3-6.3-12.8-8.1
		c-9.6-2.6-17.1-7.8-17.1-16.9c0-10.9,9.1-15.1,20.1-15.1c6.3,0,12,0.8,19.5,3V51h-8.7v-5.9c-4.8-1-7.7-1.2-10.8-1.2
		c-5.7,0-8.3,2.4-8.3,5.6c0,4.5,5.8,6.5,12.6,8.1c9.6,2.1,17.2,6.6,17.2,16c0,11.5-9.1,16.6-20.9,16.6c-6.3,0-13.4-0.8-21-2.9V74
		H240.1L240.1,74z M240.1,74" />
		<path class="st0" d="M481.3,80.9V44.2h-4.5v-8.5h20v8.5h-4.5v36.7h4.5v8.4h-20v-8.4H481.3L481.3,80.9z M481.3,80.9" />
		<path class="st0" d="M164,35.7v8.5h4.4v36.7H164v8.4h19.2v-8.4h-4.4V67.5h20.4V59h-20.4V44.2h16v4.7h8.2V35.7H164L164,35.7z
		 M164,35.7" />
		<path class="st0" d="M99.8,27.9c3.8,0.2,9.1,1,14.7,3.2c7.9,3.1,13.9,8.1,15.6,14c1.7,6,1.7,18.3-29.2,32.6c2.8,2.3,9,7.9,4.8,14.2
		c-0.8,1.1-1.7,1.4-2.3,1.4c-2.7,0-5.1-4.4-7.8-9.7c-0.3-0.6-0.6-1.2-0.9-1.7c-0.2,0.1-0.4,0.3-0.5,0.4C85,89.3,75.1,94,64.5,96.3
		c0,0.1-0.1,0.3-0.1,0.4c-0.4,1.3-3.2,7.5-4.8,7.5c-1.6,0-2.3-2.3-2.7-4.4c-0.2-0.7-0.4-1.8-0.6-2.3c-2.2,0.2-4.5,0.3-6.8,0.3
		c-7.9,0-13.7-1.3-16.1-2c-1.2,4-13.9,22.1-17.6,17.4c-2.2-2.8,0.5-13.2,0.9-15.7c-2.5-1-17.3-9.5-16.6-14
		c0.7-4.4,27.4,1.5,29.6,2.5C45.9,78.9,56.2,60,59.6,53L99.8,27.9L99.8,27.9z M97.6,24.1L92.4,0L79.6,18l-16.8-5.3l-1.3,16.7
		l-22.3,4.1l18.6,15.3L97.6,24.1L97.6,24.1z M105.8,51c3.4,0,6.1-2.7,6.1-6.1c0-3.4-2.7-6.1-6.1-6.1c-3.4,0-6.1,2.7-6.1,6.1
		C99.7,48.2,102.4,51,105.8,51L105.8,51z M105.8,51" />
		<g class="st1">
			<path class="st2" d="M183.2,114.4h-13.6v7.6h12.1v2.3h-12.1v7.8h13.7v2.3h-16.2v-22.2h16.1V114.4z" />
			<path class="st2" d="M200.6,118h2.6l-7.1,16.5H194l-7.1-16.5h2.7l5.5,13.6L200.6,118z" />
			<path class="st2" d="M214.2,132.6c2.3,0,3.8-0.9,5.2-2.3l1.5,1.4c-1.7,1.8-3.6,3.1-6.8,3.1c-4.5,0-8.2-3.5-8.2-8.6
			c0-4.8,3.3-8.6,7.9-8.6c4.9,0,7.7,3.9,7.7,8.7c0,0.2,0,0.5,0,0.8h-13C208.8,130.6,211.3,132.6,214.2,132.6z M219,125.3
			c-0.3-3-2-5.6-5.2-5.6c-2.9,0-5,2.4-5.3,5.6H219z" />
			<path class="st2" d="M229,134.4h-2.4V118h2.4v4.3c1.2-2.7,3.6-4.7,6.7-4.6v2.6h-0.2c-3.6,0-6.5,2.6-6.5,7.5V134.4z" />
			<path class="st2" d="M248.2,134.9c-1.4,3.4-3,4.6-5.5,4.6c-1.4,0-2.4-0.3-3.5-0.8l0.8-1.9c0.8,0.4,1.5,0.6,2.6,0.6
			c1.5,0,2.4-0.8,3.4-3.1l-7.5-16.3h2.7l6,13.7l5.3-13.7h2.6L248.2,134.9z" />
			<path class="st2" d="M280.6,134.8c-6.4,0-11.1-5-11.1-11.5c0-6.3,4.7-11.5,11.2-11.5c4,0,6.4,1.4,8.7,3.5l-1.7,1.8
			c-1.9-1.8-4-3-7-3c-4.9,0-8.6,4-8.6,9.1c0,5.2,3.7,9.2,8.6,9.2c3,0,5-1.2,7.2-3.2l1.7,1.6C287.2,133.2,284.6,134.8,280.6,134.8z" />
			<path class="st2" d="M295.2,121.1l-0.7-2c1.8-0.8,3.6-1.4,6-1.4c4.5,0,7,2.3,7,6.6v10h-2.4v-2.5c-1.1,1.5-3,2.8-5.9,2.8
			c-3,0-6.1-1.7-6.1-5.1c0-3.5,2.9-5.3,7-5.3c2.1,0,3.6,0.3,5,0.7v-0.6c0-3-1.8-4.5-4.9-4.5C298.3,119.9,296.7,120.4,295.2,121.1z
			 M295.5,129.5c0,2.1,1.9,3.3,4.1,3.3c3,0,5.5-1.8,5.5-4.4v-1.6c-1.2-0.3-2.8-0.7-4.8-0.7C297.2,126.1,295.5,127.4,295.5,129.5z" />
			<path class="st2" d="M316.6,129.7c0,2,1.1,2.7,2.8,2.7c0.8,0,1.5-0.2,2.4-0.6v2.1c-0.9,0.4-1.8,0.7-3,0.7c-2.6,0-4.6-1.3-4.6-4.6
			v-9.9h-2.3V118h2.3v-5h2.4v5h5.2v2.2h-5.2V129.7z" />
			<path class="st2" d="M333.8,134.8c-4.8,0-8.4-3.9-8.4-8.5c0-4.7,3.6-8.6,8.4-8.6c3.1,0,5,1.3,6.6,2.9l-1.6,1.7
			c-1.3-1.4-2.8-2.5-5-2.5c-3.3,0-5.9,2.8-5.9,6.4c0,3.6,2.6,6.4,6,6.4c2.1,0,3.7-1,5-2.4l1.6,1.5
			C338.9,133.4,336.9,134.8,333.8,134.8z" />
			<path class="st2" d="M347.8,134.4h-2.4v-23.2h2.4v9.6c1.1-1.8,2.8-3.2,5.6-3.2c4,0,6.3,2.7,6.3,6.6v10.2h-2.4v-9.6
			c0-3-1.7-5-4.5-5c-2.8,0-4.9,2.1-4.9,5.1V134.4z" />
			<path class="st2" d="M387.1,128.3h-0.1l-8.1-11.9v18h-2.4v-22.2h2.5l8.1,12.1l8.1-12.1h2.5v22.2h-2.5v-18L387.1,128.3z" />
			<path class="st2" d="M405.3,121.1l-0.7-2c1.8-0.8,3.6-1.4,6-1.4c4.5,0,7,2.3,7,6.6v10h-2.4v-2.5c-1.1,1.5-3,2.8-5.9,2.8
			c-3,0-6.1-1.7-6.1-5.1c0-3.5,2.9-5.3,7-5.3c2.1,0,3.6,0.3,5,0.7v-0.6c0-3-1.8-4.5-4.9-4.5C408.3,119.9,406.8,120.4,405.3,121.1z
			 M405.6,129.5c0,2.1,1.9,3.3,4.1,3.3c3,0,5.5-1.8,5.5-4.4v-1.6c-1.2-0.3-2.8-0.7-4.8-0.7C407.3,126.1,405.6,127.4,405.6,129.5z" />
			<path class="st2" d="M426.7,129.7c0,2,1.1,2.7,2.8,2.7c0.8,0,1.5-0.2,2.4-0.6v2.1c-0.9,0.4-1.8,0.7-3,0.7c-2.6,0-4.6-1.3-4.6-4.6
			v-9.9h-2.3V118h2.3v-5h2.4v5h5.2v2.2h-5.2V129.7z" />
			<path class="st2" d="M440.3,129.7c0,2,1.1,2.7,2.8,2.7c0.8,0,1.5-0.2,2.4-0.6v2.1c-0.9,0.4-1.8,0.7-3,0.7c-2.6,0-4.6-1.3-4.6-4.6
			v-9.9h-2.3V118h2.3v-5h2.4v5h5.2v2.2h-5.2V129.7z" />
			<path class="st2" d="M457.3,132.6c2.3,0,3.8-0.9,5.2-2.3l1.5,1.4c-1.7,1.8-3.7,3.1-6.8,3.1c-4.5,0-8.2-3.5-8.2-8.6
			c0-4.8,3.3-8.6,7.9-8.6c4.9,0,7.7,3.9,7.7,8.7c0,0.2,0,0.5,0,0.8h-13C451.9,130.6,454.5,132.6,457.3,132.6z M462.1,125.3
			c-0.3-3-2-5.6-5.2-5.6c-2.9,0-5,2.4-5.3,5.6H462.1z" />
			<path class="st2" d="M472.1,134.4h-2.4V118h2.4v4.3c1.2-2.7,3.6-4.7,6.7-4.6v2.6h-0.2c-3.6,0-6.5,2.6-6.5,7.5V134.4z" />
			<path class="st2" d="M488.8,134.7c-2.4,0-5-0.9-6.8-2.4l1.2-1.7c1.8,1.3,3.7,2.1,5.7,2.1c2,0,3.4-1,3.4-2.6V130
			c0-1.7-1.9-2.3-4.1-2.9c-2.6-0.7-5.4-1.6-5.4-4.6v-0.1c0-2.8,2.3-4.7,5.6-4.7c2,0,4.2,0.7,5.9,1.8l-1.1,1.8
			c-1.5-1-3.3-1.6-4.9-1.6c-1.9,0-3.2,1-3.2,2.4v0.1c0,1.6,2,2.2,4.2,2.8c2.5,0.8,5.3,1.7,5.3,4.7v0.1
			C494.6,132.9,492,134.7,488.8,134.7z" />
		</g>
	</g>
</svg>
