<?xml version="1.0" ?>
<svg xmlns:dc="http://purl.org/dc/elements/1.1/" xmlns:cc="http://creativecommons.org/ns#" xmlns:rdf="http://www.w3.org/1999/02/22-rdf-syntax-ns#" xmlns:svg="http://www.w3.org/2000/svg" xmlns="http://www.w3.org/2000/svg" xmlns:sodipodi="http://sodipodi.sourceforge.net/DTD/sodipodi-0.dtd" xmlns:inkscape="http://www.inkscape.org/namespaces/inkscape" version="1.2" id="svg15" xml:space="preserve" viewBox="0 0 570 570" baseProfile="tiny-ps">
	<g id="g23" transform="matrix(2.1950446,0,0,-2.1950446,-1143.4725,779.82233)">
		<g id="g25" transform="matrix(0.1,0,0,0.1,2.117476,-5.0845035)" fill="#fbbe2d" fill-opacity="1">
			<path d="m 1100.68,2056.85 h 103.39 v -32.3 c 0,-81.41 42.65,-115.01 156.36,-115.01 h 237.78 c 166.7,0 219.69,6.47 219.69,104.68 v 5.18 c 0,63.32 -18.1,98.21 -151.2,98.21 h -342.46 c -156.36,0 -214.51,50.4 -214.51,175.74 v 38.78 c 0,107.24 60.74,166.7 334.7,166.7 H 1615 c 250.71,0 285.6,-72.38 285.6,-165.41 v -34.9 h -103.39 v 6.45 c 0,100.8 -67.2,103.39 -188.66,103.39 H 1414.7 c -158.94,0 -193.83,-15.51 -193.83,-90.47 v -24.54 c 0,-54.29 18.09,-85.3 134.4,-85.3 h 293.33 c 166.71,0 280.43,-16.8 280.43,-195.12 v -2.59 c 0,-184.8 -170.58,-191.25 -306.27,-191.25 h -204.18 c -164.11,0 -317.9,0 -317.9,197.72 v 40.04 0" fill="#fbbe2d" id="path27"/>
			<path d="m 2084.18,2232.62 c 0,239.05 165.41,266.21 323.06,266.21 h 178.33 c 199.01,0 342.46,-50.4 342.46,-285.6 v -73.67 h -732.71 v -41.34 c 0,-149.9 72.36,-188.68 266.2,-188.68 h 152.49 c 139.56,0 196.42,18.09 202.88,118.89 h 111.14 v -12.92 c 0,-151.2 -125.35,-196.42 -332.11,-196.42 h -201.61 c -144.72,0 -310.13,27.14 -310.13,270.07 z m 732.71,41.34 c 0,67.2 -50.4,134.4 -231.32,134.4 h -162.82 c -175.75,0 -217.1,-28.43 -227.43,-178.33 h 621.57 v 43.93 0" fill="#fbbe2d" id="path29"/>
			<path d="m 3111.6,2488.47 h 103.39 v -95.62 h 2.58 c 41.35,85.3 125.35,105.98 201.59,105.98 h 104.67 c 208.06,0 276.55,-67.2 276.55,-228.75 v -78.83 H 3697 v 28.42 c 0,162.86 -33.59,188.69 -231.32,188.69 h -68.48 c -117.6,0 -174.46,-74.94 -174.46,-160.24 v -418.7 H 3111.6 v 659.05 0" fill="#fbbe2d" id="path31"/>
			<path d="m 4343.19,2398.03 h -144.72 v 90.44 h 144.72 v 156.38 h 111.14 v -156.38 h 440.65 v -90.44 h -440.65 v -328.26 c 0,-122.75 42.65,-160.23 164.14,-160.23 h 34.89 c 147.31,0 170.57,31.01 170.57,169.29 v 49.11 h 90.45 v -72.38 c 0,-131.81 -12.91,-236.47 -253.26,-236.47 h -60.75 c -208.08,0 -257.18,100.8 -257.18,208.05 v 370.89 0" fill="#fbbe2d" id="path33"/>
			<path d="m 3947.76,2765.01 h 111.13 v -121.45 h -111.13 z m 0,-276.54 h 111.13 v -659.05 h -111.13 v 659.05 0" fill="#fbbe2d" id="path35"/>
			<path d="m 7413.55,2512.34 c -186.5,0 -338.21,151.71 -338.21,338.19 0,186.5 151.71,338.22 338.21,338.22 186.5,0 338.21,-151.72 338.21,-338.22 0,-186.48 -151.71,-338.19 -338.21,-338.19 z m 0,503.57 c -91.2,0 -165.37,-74.19 -165.37,-165.38 0,-91.18 74.17,-165.35 165.37,-165.35 91.18,0 165.35,74.17 165.35,165.35 0,91.19 -74.17,165.38 -165.35,165.38 v 0" fill="#f36b2c" id="path37"/>
			<path d="m 6151.39,1319.6 c -488.23,0 -885.46,397.2 -885.46,885.44 0,488.25 397.23,885.47 885.46,885.47 488.25,0 885.45,-397.22 885.45,-885.47 0,-488.24 -397.2,-885.44 -885.45,-885.44 z m 0,1355.11 c -258.95,0 -469.65,-210.69 -469.65,-469.67 0,-258.96 210.7,-469.63 469.65,-469.63 258.96,0 469.64,210.67 469.64,469.63 0,258.98 -210.68,469.67 -469.64,469.67 v 0" id="path39"/>
			<path d="m 1281.57,1340.12 -16.71,-35.45 c -25.91,15.68 -51.81,22.15 -69.89,22.15 -23.52,0 -38.86,-8.86 -38.86,-24.89 0,-52.16 128.87,-24.2 128.53,-110.11 0,-42.61 -37.51,-68.85 -90,-68.85 -37.5,0 -72.96,15.33 -97.5,37.83 l 17.38,34.77 c 24.55,-22.5 55.23,-34.77 80.8,-34.77 27.95,0 44.66,10.56 44.66,28.97 0,53.2 -128.87,23.53 -128.87,108.41 0,40.92 35.12,66.48 86.93,66.48 31.03,0 61.37,-9.89 83.53,-24.54" fill="#fbbe2d" id="path41"/>
			<path d="m 1622.36,1237.17 v -112.85 h -39.2 v 101.94 c 0,27.61 -16.36,44.3 -42.96,44.3 -31.03,-1.01 -49.77,-24.88 -49.77,-56.59 v -89.65 h -39.21 v 101.94 c 0,27.61 -16.02,44.3 -42.61,44.3 -31.37,-1.01 -50.45,-24.88 -50.45,-56.59 v -89.65 h -38.87 v 181.37 h 38.87 v -35.13 c 12.6,25.58 35.79,36.49 65.79,36.49 32.39,0 54.55,-16.03 63.07,-43.64 11.59,30.35 35.8,43.64 68.86,43.64 41.59,0 66.48,-26.59 66.48,-69.88" fill="#fbbe2d" id="path43"/>
			<path d="m 1783.27,1188.06 v 16.71 h -49.09 c -25.57,0 -37.5,-6.81 -37.5,-24.2 0,-16.36 13.29,-26.93 35.12,-26.93 27.95,0 49.43,14.66 51.47,34.42 z m 0.35,-41.59 c -12.96,-16.01 -33.75,-23.86 -60,-23.86 -39.21,0 -63.76,24.21 -63.76,56.25 0,33.07 24.89,54.21 68.53,54.56 h 54.88 v 5.45 c 0,22.85 -14.65,36.47 -43.29,36.47 -17.39,0 -35.46,-6.13 -53.52,-18.4 l -16.03,27.27 c 25.23,15 43.64,22.84 78.07,22.84 46.7,0 72.95,-23.87 73.3,-63.75 l 0.33,-118.98 h -38.51 v 22.15" fill="#fbbe2d" id="path45"/>
			<path d="m 1913.84,1269.55 c 12.27,24.54 34.09,37.5 62.73,37.5 v -37.5 c -36.48,2.04 -59.66,-19.44 -62.73,-50.45 v -94.78 h -39.2 v 181.37 h 39.2 v -36.14" fill="#fbbe2d" id="path47"/>
			<path d="m 2111.57,1135.92 c -14.32,-8.53 -29.32,-13.31 -44.66,-13.31 -27.27,0 -50.79,15.69 -50.79,52.86 v 94.08 h -25.57 v 29.31 h 25.57 v 49.78 h 38.86 v -49.78 h 53.52 v -29.31 h -53.52 v -86.94 c 0,-18.75 7.16,-24.54 19.43,-24.54 8.18,0 16.71,2.73 27.27,7.85 l 9.89,-30" fill="#fbbe2d" id="path49"/>
			<path d="m 2238.04,1124.32 v 238.65 h 40.22 v -238.65 h -40.22" fill="#fbbe2d" id="path51"/>
			<path d="m 2428.26,1326.82 v -202.5 h -40.22 v 202.5 h -75.35 v 36.15 h 191.26 v -36.15 h -75.69" fill="#fbbe2d" id="path53"/>
			<path d="m 2522.77,1144.1 c 0,-13.29 -9.2,-22.84 -21.48,-22.84 -12.27,0 -21.47,9.55 -21.47,22.84 0,12.95 9.2,22.15 21.47,22.15 12.28,0 21.48,-9.2 21.48,-22.15" fill="#fbbe2d" id="path55"/>
			<path d="m 2856.17,1241.59 v -87.95 c -24.2,-18.41 -60,-31.03 -92.73,-31.03 -70.57,0 -125.45,52.86 -125.45,121.03 0,68.18 55.56,120.34 127.84,120.34 34.09,0 68.18,-12.95 91.7,-33.41 l -22.84,-29.65 c -18.41,17.04 -43.97,27.27 -68.86,27.27 -48.75,0 -86.93,-37.17 -86.93,-84.55 0,-47.73 38.52,-84.88 87.27,-84.88 17.73,0 37.84,6.13 54.89,16.35 v 66.48 h 35.11" fill="#fbbe2d" id="path57"/>
			<path d="m 2932.87,1214.67 c 0,-35.12 22.85,-58.98 55.57,-58.98 32.39,0 55.23,23.86 55.23,58.98 0,34.76 -22.84,58.63 -55.23,58.63 -32.72,0 -55.57,-23.87 -55.57,-58.63 z m 150.01,0.33 c 0,-54.54 -38.53,-92.03 -94.44,-92.03 -56.24,0 -94.77,37.49 -94.77,92.03 0,54.89 38.53,92.05 94.77,92.05 55.91,0 94.44,-37.16 94.44,-92.05" fill="#fbbe2d" id="path59"/>
			<path d="m 3257.42,1214.32 c 0,35.11 -22.84,59.66 -55.57,59.66 -32.72,0 -55.56,-24.88 -55.9,-59.66 0.34,-34.43 22.84,-58.98 55.9,-58.98 32.73,0 55.57,24.55 55.57,58.98 z m 39.21,-90 h -39.21 v 31.02 c -12.95,-21.13 -34.77,-32.73 -63.75,-32.73 -52.16,0 -86.93,37.85 -86.93,93.07 0,54.55 35.11,91.71 86.25,91.71 29.32,0 51.13,-11.92 64.43,-33.08 v 102.96 h 39.21 v -252.95" fill="#fbbe2d" id="path61"/>
			<path d="m 3499.43,1357.5 c 0,-13.64 -9.89,-23.86 -24.21,-23.86 -13.64,0 -23.86,10.22 -23.86,23.86 0,13.98 10.22,23.86 23.86,23.86 14.32,0 24.21,-9.88 24.21,-23.86 z m -4.78,-238.29 c 0,-42.95 -29.66,-62.73 -58.63,-62.73 -13.64,0 -27.28,4.44 -37.84,12.28 l 12.95,30.34 c 7.16,-5.13 15.68,-8.19 23.18,-8.19 11.94,0 21.48,7.16 21.48,24.55 v 190.23 h 38.86 v -186.48" fill="#fbbe2d" id="path63"/>
			<path d="m 3576.13,1214.67 c 0,-35.12 22.84,-58.98 55.57,-58.98 32.38,0 55.23,23.86 55.23,58.98 0,34.76 -22.85,58.63 -55.23,58.63 -32.73,0 -55.57,-23.87 -55.57,-58.63 z m 150,0.33 c 0,-54.54 -38.52,-92.03 -94.43,-92.03 -56.25,0 -94.78,37.49 -94.78,92.03 0,54.89 38.53,92.05 94.78,92.05 55.91,0 94.43,-37.16 94.43,-92.05" fill="#fbbe2d" id="path65"/>
			<path d="m 3918.41,1215.68 c 0,33.75 -22.85,58.63 -55.24,58.63 -32.38,0 -55.22,-24.54 -55.22,-58.63 0,-35.11 22.84,-59.32 55.22,-59.32 32.39,0 55.24,24.56 55.24,59.32 z m 39.54,-1.36 c 0,-54.21 -34.09,-91.35 -85.91,-91.35 -28.98,0 -50.8,11.58 -64.09,32.72 v -31.37 h -39.21 v 252.95 h 39.21 v -102.96 c 13.29,21.16 35.11,32.74 63.41,32.74 51.48,0 86.59,-37.5 86.59,-92.73" fill="#fbbe2d" id="path67"/>
			<path d="m 4162.12,1215.68 c 0,33.75 -22.84,58.63 -55.23,58.63 -32.39,0 -55.23,-24.54 -55.23,-58.63 0,-35.11 22.84,-59.32 55.23,-59.32 32.39,0 55.23,24.56 55.23,59.32 z m 39.54,-1.36 c 0,-54.21 -34.09,-91.35 -85.91,-91.35 -28.97,0 -50.79,11.58 -64.09,32.72 v -31.37 h -39.21 v 252.95 h 39.21 v -102.96 c 13.3,21.16 35.12,32.74 63.41,32.74 51.48,0 86.59,-37.5 86.59,-92.73" fill="#fbbe2d" id="path69"/>
			<path d="m 4376.2,1214.32 c 0,35.11 -22.84,59.66 -55.57,59.66 -32.72,0 -55.56,-24.88 -55.91,-59.66 0.35,-34.43 22.85,-58.98 55.91,-58.98 32.73,0 55.57,24.55 55.57,58.98 z m 39.21,-90 h -39.21 v 31.02 c -12.95,-21.13 -34.77,-32.73 -63.75,-32.73 -52.16,0 -86.93,37.85 -86.93,93.07 0,54.55 35.11,91.71 86.25,91.71 29.32,0 51.14,-11.92 64.43,-33.08 v 102.96 h 39.21 v -252.95" fill="#fbbe2d" id="path71"/>
			<path d="m 4583.48,1188.06 v 16.71 h -49.1 c -25.57,0 -37.5,-6.81 -37.5,-24.2 0,-16.36 13.3,-26.93 35.12,-26.93 27.95,0 49.42,14.66 51.48,34.42 z m 0.33,-41.59 c -12.95,-16.01 -33.75,-23.86 -60,-23.86 -39.2,0 -63.75,24.21 -63.75,56.25 0,33.07 24.88,54.21 68.52,54.56 h 54.9 v 5.45 c 0,22.85 -14.67,36.47 -43.3,36.47 -17.39,0 -35.46,-6.13 -53.53,-18.4 l -16.02,27.27 c 25.22,15 43.64,22.84 78.06,22.84 46.71,0 72.96,-23.87 73.3,-63.75 l 0.35,-118.98 h -38.53 v 22.15" fill="#fbbe2d" id="path73"/>
			<path d="m 4799.61,1219.77 c 0,32.73 -21.48,55.57 -52.17,55.57 -31.01,0 -52.5,-23.17 -52.83,-55.57 0.33,-32.72 21.49,-55.91 52.83,-55.91 30.69,0 52.17,23.19 52.17,55.91 z m 38.86,-77.72 c 0,-52.16 -37.15,-84.89 -94.09,-84.89 -28.28,0 -53.18,8.86 -75.34,23.86 l 16.71,28.3 c 17.04,-12.61 34.77,-19.77 56.94,-19.77 34.42,0 56.92,20.11 56.92,51.48 v 22.83 c -12.26,-19.76 -32.72,-30.68 -59.99,-30.68 -49.1,0 -81.82,35.46 -81.82,87.62 0,51.14 32.39,85.91 80.45,86.25 27.95,0.34 48.75,-10.91 61.36,-30.69 v 29.33 h 38.86 v -163.64" fill="#fbbe2d" id="path75"/>
			<path d="m 4934.57,1144.1 c 0,-13.29 -9.2,-22.84 -21.47,-22.84 -12.28,0 -21.48,9.55 -21.48,22.84 0,12.95 9.2,22.15 21.48,22.15 12.27,0 21.47,-9.2 21.47,-22.15" fill="#fbbe2d" id="path77"/>
		</g>
	</g>
</svg>