<?xml version="1.0" ?>
<svg xmlns="http://www.w3.org/2000/svg" role="img" viewBox="2.63 2.76 90.61 62.36">
	<defs>
		<style>.cls-1{fill:none}.cls-2{fill:#326ce5}</style>
	</defs>
	<path d="M 52.391,24.501 L 42.945,29.977 L 42.485,33.865 L 52.792,27.892 L 52.391,24.501 L 52.391,24.501" class="cls-1"/>
	<path d="M 37.80762,5.92859 L 27.66272,23.50012 L 37.80762,41.07172 L 58.09729,41.07172 L 68.24219,23.50012 L 58.09729,5.92859 L 37.80762,5.92859 M 62.68073,17.93768 L 65.8924,23.50073 L 56.9224,39.26709 L 56.13267,39.26709 A 3.13457,3.13457 0.0 0,1 54.78508,37.88422 L 54.79008,37.87872 A 1.279,1.279 0.0 0,1 54.56156,37.41949 A 1.94182,1.94182 0.0 0,1 54.87309,35.5224 A 1.16482,1.16482 0.0 0,1 56.23809,35.3291 A 1.54235,1.54235 0.0 0,0 54.48709,34.30518 L 54.48809,34.30118 L 54.47069,34.30637 A 1.57139,1.57139 0.0 0,0 53.87487,34.54587 A 7.38726,7.38726 0.0 0,0 52.06328,36.72244 A 13.13638,13.13638 0.0 0,1 49.489,39.26691 L 48.93792,39.26691 A 14.362,14.362 0.0 0,0 51.14281,37.35168 A 1.75259,1.75259 0.0 0,1 50.8286,36.72101 A 2.66736,2.66736 0.0 0,1 51.2567,34.11481 A 1.59891,1.59891 0.0 0,1 53.13231,33.84888 A 2.1207,2.1207 0.0 0,0 50.7265,32.442 L 50.72772,32.43681 C 50.71899,32.43858 50.71222,32.442 50.70349,32.44425 A 2.16334,2.16334 0.0 0,0 49.88519,32.77299 C 49.0769,33.2509 48.53638,34.1367 47.39661,35.76359 A 17.20834,17.20834 0.0 0,1 43.86169,39.26689 L 43.29828,39.26689 A 14.695,14.695 0.0 0,0 45.52828,37.33799 A 2.336,2.336 0.0 0,1 45.41988,37.0604 A 2.31028,2.31028 0.0 0,1 45.79088,34.80296 A 1.38439,1.38439 0.0 0,1 47.41558,34.57255 A 1.87622,1.87622 0.0 0,0 45.65058,33.32139 A 1.89728,1.89728 0.0 0,0 45.33158,33.35356 L 45.33238,33.3491 L 45.31181,33.35545 A 1.8701,1.8701 0.0 0,0 44.60281,33.6406 A 8.78276,8.78276 0.0 0,0 42.44693,36.23106 A 15.81818,15.81818 0.0 0,1 39.71146,39.26689 L 38.98251,39.26689 L 30.0127,23.50043 L 33.20453,17.9718 L 43.8299,15.50861 L 43.8299,15.05292 L 35.89758,13.30713 L 38.98248,7.96393 L 56.92242,7.96393 L 60.03308,13.352 L 52.2522,15.06433 L 52.2522,15.52008 L 62.68073,17.93768" class="cls-1"/>
	<path d="M 43.275,27.176 L 49.641,23.5 L 43.71,23.5 L 43.275,27.176 L 43.275,27.176 M 51.28088,14.00781 L 52.00128,14.00781 L 48.10461,10.9 L 44.20728,14.00779 L 44.92822,14.00779 L 44.92822,18.68119 L 42.46881,18.68119 A 7.80066,7.80066 0.0 0,1 43.76062,22.64799 L 52.4483,22.64799 A 7.8,7.8 0.0 0,1 53.7403,18.68119 L 51.28088,18.68119 L 51.28088,14.00781 M 47.77643,17.0094 L 45.31433,17.0094 L 45.31433,13.98511 L 47.77643,13.98511 L 47.77643,17.0094 M 50.87701,17.0094 L 48.26282,17.0094 L 48.26282,13.98511 L 50.877,13.98511 L 50.87701,17.0094 M 88.10968,55.591 A 2.22982,2.22982 0.0 0,0 87.08618,55.82019 A 2.59025,2.59025 0.0 0,0 86.30078,56.43378 A 2.86762,2.86762 0.0 0,0 85.77618,57.32678 A 3.633,3.633 0.0 0,0 85.55579,58.3905 L 90.40253,58.3905 A 3.36454,3.36454 0.0 0,0 89.78033,56.32776 A 2.01623,2.01623 0.0 0,0 88.10968,55.591 L 88.10968,55.591 M 55.63928,55.60742 A 2.40479,2.40479 0.0 0,0 53.64093,56.54877 A 4.697,4.697 0.0 0,0 53.64093,61.6004 A 2.60488,2.60488 0.0 0,0 57.63672,61.6004 A 4.69732,4.69732 0.0 0,0 57.63672,56.54877 A 2.40049,2.40049 0.0 0,0 55.63928,55.60742 M 50.573,31.2876 L 50.573,31.7782 C 50.573,31.7782 52.686,31.39502 53.60327,32.84149 L 53.23767,29.74908 L 50.573,31.2876 M 20.50122,59.586 A 4.83677,4.83677 0.0 0,0 19.85431,59.62738 A 1.70156,1.70156 0.0 0,0 19.32263,59.78238 A 0.90728,0.90728 0.0 0,0 18.96198,60.09384 A 0.86639,0.86639 0.0 0,0 18.83081,60.58463 A 0.83632,0.83632 0.0 0,0 19.21588,61.37894 A 2.129,2.129 0.0 0,0 20.27203,61.60007 L 20.95959,61.58414 L 21.48401,61.53488 L 21.48401,59.68457 A 4.33824,4.33824 0.0 0,0 21.0415,59.6189 L 20.50122,59.586" class="cls-1"/>
	<path d="M 49.68353,59.4801 A 3.44941,3.44941 0.0 0,0 48.88922,58.98956 L 47.94794,58.58966 L 47.1048,58.23126 A 3.26817,3.26817 0.0 0,1 46.48291,57.87952 A 1.30223,1.30223 0.0 0,1 46.09784,57.44531 A 1.24357,1.24357 0.0 0,1 45.9671,56.85431 A 1.08907,1.08907 0.0 0,1 46.1142,56.27222 A 1.23,1.23 0.0 0,1 46.5072,55.87822 A 1.8002,1.8002 0.0 0,1 47.0722,55.64837 A 3.00257,3.00257 0.0 0,1 47.7512,55.57437 A 4.35807,4.35807 0.0 0,1 49.11912,55.73837 A 6.49453,6.49453 0.0 0,1 49.78196,56.00015 L 50.02787,55.05075 A 4.47583,4.47583 0.0 0,0 49.23356,54.78818 A 5.83324,5.83324 0.0 0,0 47.80056,54.64108 A 3.27006,3.27006 0.0 0,0 45.66366,55.28 A 2.05808,2.05808 0.0 0,0 44.88631,56.95029 A 1.96434,1.96434 0.0 0,0 45.08242,57.86697 A 2.06106,2.06106 0.0 0,0 45.60604,58.51407 A 3.67913,3.67913 0.0 0,0 46.35915,58.98819 L 47.25972,59.3898 L 48.25063,59.8154 A 3.08646,3.08646 0.0 0,1 48.89754,60.19259 A 1.14911,1.14911 0.0 0,1 49.24965,60.63406 A 1.47464,1.47464 0.0 0,1 49.35604,61.22406 A 1.05671,1.05671 0.0 0,1 48.75814,62.24756 A 3.34731,3.34731 0.0 0,1 47.24386,62.55056 A 5.428,5.428 0.0 0,1 46.35152,62.4847 A 4.70965,4.70965 0.0 0,1 45.68862,62.32924 A 4.42514,4.42514 0.0 0,1 45.24642,62.16549 A 1.8671,1.8671 0.0 0,1 45.03365,62.0588 L 44.75515,63.02498 L 45.54183,63.31148 A 5.9056,5.9056 0.0 0,0 47.24453,63.49996 A 4.09835,4.09835 0.0 0,0 49.59371,62.91048 A 1.97006,1.97006 0.0 0,0 50.45321,61.17458 A 2.13111,2.13111 0.0 0,0 50.24074,60.16774 A 2.274,2.274 0.0 0,0 49.68353,59.4801 L 49.68353,59.4801 M 13.95972,61.0105 A 1.01413,1.01413 0.0 0,1 13.77142,60.56879 A 3.17916,3.17916 0.0 0,1 13.72211,59.979 L 13.72211,50.59668 L 11.28223,50.98968 L 11.28223,60.46978 A 5.06517,5.06517 0.0 0,0 11.42151,61.70647 A 1.97675,1.97675 0.0 0,0 11.94531,62.64 A 2.556,2.556 0.0 0,0 12.99353,63.2376 A 6.12512,6.12512 0.0 0,0 14.72083,63.46709 L 15.065,61.45281 A 2.2023,2.2023 0.0 0,1 14.36072,61.30572 A 1.00943,1.00943 0.0 0,1 13.95972,61.0105 L 13.95972,61.0105 M 6.91821,53.6264 A 1.30133,1.30133 0.0 0,1 7.16412,53.11847 A 1.14722,1.14722 0.0 0,1 7.63867,52.78259 A 1.99366,1.99366 0.0 0,1 8.38422,52.6601 A 4.24718,4.24718 0.0 0,1 9.03088,52.70892 A 2.34389,2.34389 0.0 0,1 9.61212,52.87262 L 10.03772,50.95709 A 5.38609,5.38609 0.0 0,0 9.27631,50.71118 A 4.74575,4.74575 0.0 0,0 8.13831,50.59668 A 3.69246,3.69246 0.0 0,0 5.34637,51.57947 A 3.67255,3.67255 0.0 0,0 4.40479,54.23187 L 4.40479,63.30328 L 6.84448,63.30328 L 6.84448,56.72058 L 9.85748,56.72058 L 9.85748,54.69031 L 6.84448,54.69031 L 6.84448,54.26447 A 2.61708,2.61708 0.0 0,1 6.91821,53.6264 L 6.91821,53.6264 M 58.41431,55.86108 A 3.61714,3.61714 0.0 0,0 57.19421,54.961 A 3.93948,3.93948 0.0 0,0 54.08362,54.961 A 3.58865,3.58865 0.0 0,0 52.86353,55.86108 A 4.14914,4.14914 0.0 0,0 52.06153,57.26108 A 5.90233,5.90233 0.0 0,0 52.06153,60.89608 A 4.04322,4.04322 0.0 0,0 52.86353,62.28768 A 3.64906,3.64906 0.0 0,0 54.08362,63.18062 A 3.94844,3.94844 0.0 0,0 57.19421,63.18062 A 3.65939,3.65939 0.0 0,0 58.41431,62.28768 A 4.05972,4.05972 0.0 0,0 59.21643,60.89608 A 5.89276,5.89276 0.0 0,0 59.21643,57.26108 A 4.13946,4.13946 0.0 0,0 58.41431,55.86108 M 57.63672,61.6004 A 2.60488,2.60488 0.0 0,1 53.64093,61.6004 A 4.697,4.697 0.0 0,1 53.64093,56.54877 A 2.59081,2.59081 0.0 0,1 57.63672,56.54877 A 4.69732,4.69732 0.0 0,1 57.63672,61.6004 M 32.481,55.59119 A 2.74091,2.74091 0.0 0,0 31.32658,54.78027 A 5.03894,5.03894 0.0 0,0 29.5001,54.49371 A 13.23014,13.23014 0.0 0,0 27.43717,54.6496 A 13.59917,13.59917 0.0 0,0 25.83226,54.98468 L 25.8325,54.98468 L 25.8325,63.3031 L 28.2722,63.3031 L 28.2722,56.6554 L 28.79649,56.59778 L 29.35301,56.57318 A 1.27043,1.27043 0.0 0,1 30.51591,57.065 A 3.28775,3.28775 0.0 0,1 30.82701,58.73438 L 30.82701,63.3031 L 33.26689,63.3031 L 33.26689,58.44 A 6.62069,6.62069 0.0 0,0 33.08647,56.83508 A 3.15056,3.15056 0.0 0,0 32.481,55.59119 M 23.03131,55.41046 A 2.79853,2.79853 0.0 0,0 21.8772,54.707 A 5.64672,5.64672 0.0 0,0 20.07568,54.46115 L 20.07568,54.46109 L 19.2326,54.50162 L 18.43829,54.60013 L 17.74219,54.7308 L 17.20972,54.87003 L 17.52081,56.83481 A 5.31556,5.31556 0.0 0,1 18.56903,56.58181 A 8.35071,8.35071 0.0 0,1 19.79688,56.49111 A 1.82217,1.82217 0.0 0,1 21.10699,56.86811 A 1.35,1.35 0.0 0,1 21.48399,57.86659 L 21.48399,58.09577 A 3.85462,3.85462 0.0 0,0 20.88627,57.98939 L 20.04277,57.9485 A 6.51548,6.51548 0.0 0,0 18.68351,58.08802 A 3.654,3.654 0.0 0,0 17.52079,58.53779 A 2.34351,2.34351 0.0 0,0 16.71061,59.37348 A 2.50775,2.50775 0.0 0,0 16.40761,60.65071 A 3.0218,3.0218 0.0 0,0 16.66945,61.97657 A 2.211,2.211 0.0 0,0 17.42305,62.85279 A 3.28917,3.28917 0.0 0,0 18.59353,63.33589 A 7.14663,7.14663 0.0 0,0 20.1083,63.4828 A 14.069,14.069 0.0 0,0 22.3683,63.3278 L 23.82569,63.05699 L 23.82569,57.98126 A 5.47287,5.47287 0.0 0,0 23.64569,56.52472 A 2.59071,2.59071 0.0 0,0 23.03131,55.41046 L 23.03131,55.41046 M 21.484,61.53491 L 20.95958,61.58417 L 20.27202,61.6001 A 2.129,2.129 0.0 0,1 19.21587,61.37897 A 0.83632,0.83632 0.0 0,1 18.8308,60.58466 A 0.86639,0.86639 0.0 0,1 18.96197,60.09387 A 0.90728,0.90728 0.0 0,1 19.32262,59.78241 A 1.70156,1.70156 0.0 0,1 19.8543,59.62741 A 4.83677,4.83677 0.0 0,1 20.50121,59.58603 L 21.04149,59.61893 A 4.33824,4.33824 0.0 0,1 21.484,59.6846 L 21.484,61.53491 M 41.94958,60.794 L 40.93433,59.5227 A 11.1835,11.1835 0.0 0,0 39.91852,58.46447 L 41.72833,56.594 L 43.42352,54.69032 L 40.52209,54.69032 L 39.97369,55.34132 L 39.29462,56.13099 L 38.55029,56.9698 L 37.80652,57.7826 L 37.80652,50.59668 L 35.36664,50.98968 L 35.36664,63.30292 L 37.80652,63.30292 L 37.80652,59.52771 A 6.60161,6.60161 0.0 0,1 38.63252,60.33221 L 39.4253,61.32568 L 40.136,62.35919 L 40.73225,63.3031 L 43.53825,63.3031 L 42.85038,62.1059 L 41.94958,60.794 M 67.15588,62.27148 A 3.58438,3.58438 0.0 0,1 66.4516,62.4187 A 9.09,9.09 0.0 0,1 65.14178,62.5007 A 3.30045,3.30045 0.0 0,1 64.00378,62.32895 A 1.66406,1.66406 0.0 0,1 63.24219,61.772 A 2.4736,2.4736 0.0 0,1 62.81641,60.76492 A 7.567,7.567 0.0 0,1 62.68591,59.2421 L 62.68591,54.8374 L 61.62109,54.8374 L 61.62109,59.58551 A 6.83914,6.83914 0.0 0,0 61.79291,61.17407 A 3.18256,3.18256 0.0 0,0 62.35803,62.40167 A 2.57267,2.57267 0.0 0,0 63.38953,63.18842 A 3.99408,3.99408 0.0 0,0 64.97803,63.4668 A 10.01062,10.01062 0.0 0,0 66.94281,63.30292 L 68.22,63.00867 L 68.22,54.8374 L 67.15588,54.8374 L 67.15588,62.27148 M 73.97308,54.67371 A 7.0072,7.0072 0.0 0,0 72.22058,54.86218 A 7.87091,7.87091 0.0 0,0 71.09143,55.23059 L 71.09143,63.3031 L 72.15509,63.3031 L 72.15509,55.88562 A 3.047,3.047 0.0 0,1 72.7038,55.72162 A 5.02178,5.02178 0.0 0,1 73.80933,55.62378 A 6.06438,6.06438 0.0 0,1 74.86542,55.69708 A 2.38386,2.38386 0.0 0,1 75.39758,55.83636 L 75.61078,54.91949 A 2.988,2.988 0.0 0,0 74.96368,54.75549 A 5.81508,5.81508 0.0 0,0 73.97308,54.67371 L 73.97308,54.67371 M 90.57458,55.65619 A 3.19354,3.19354 0.0 0,0 88.09369,54.64081 A 3.59385,3.59385 0.0 0,0 86.72681,54.91138 A 3.28733,3.28733 0.0 0,0 85.54749,55.73828 A 4.27937,4.27937 0.0 0,0 84.71228,57.12207 A 5.36312,5.36312 0.0 0,0 84.39313,59.06219 A 6.50893,6.50893 0.0 0,0 84.62213,60.83838 A 3.636,3.636 0.0 0,0 85.35938,62.2392 A 3.3907,3.3907 0.0 0,0 86.65259,63.15601 A 4.94253,4.94253 0.0 0,0 88.55219,63.48328 A 5.43213,5.43213 0.0 0,0 90.03412,63.30328 A 4.42431,4.42431 0.0 0,0 90.89349,62.992 L 90.6969,62.07489 L 89.96069,62.35339 A 4.639,4.639 0.0 0,1 88.58478,62.51709 A 2.87149,2.87149 0.0 0,1 86.292,61.682 A 3.74788,3.74788 0.0 0,1 85.52253,59.29137 L 91.4676,59.29137 L 91.4914,59.04546 L 91.5,58.78339 A 4.52469,4.52469 0.0 0,0 90.57458,55.65619 L 90.57458,55.65619 M 85.55579,58.3905 A 3.633,3.633 0.0 0,1 85.77618,57.32678 A 2.86762,2.86762 0.0 0,1 86.30078,56.43378 A 2.59025,2.59025 0.0 0,1 87.08618,55.82019 A 2.22982,2.22982 0.0 0,1 88.10968,55.591 A 2.01623,2.01623 0.0 0,1 89.78033,56.32776 A 3.36454,3.36454 0.0 0,1 90.40253,58.3905 L 85.55579,58.3905 M 82.15222,62.36121 A 3.68193,3.68193 0.0 0,1 80.99762,62.51648 A 3.5449,3.5449 0.0 0,1 79.58124,62.2627 A 2.47957,2.47957 0.0 0,1 78.63153,61.55908 A 2.78674,2.78674 0.0 0,1 78.09912,60.47858 A 5.494,5.494 0.0 0,1 77.9353,59.09448 A 4.02921,4.02921 0.0 0,1 78.66412,56.51556 A 2.57776,2.57776 0.0 0,1 80.80121,55.60687 A 4.88771,4.88771 0.0 0,1 81.8985,55.70538 A 3.43849,3.43849 0.0 0,1 82.63562,55.96729 L 82.91412,55.05042 A 3.22639,3.22639 0.0 0,0 81.9884,54.75531 A 6.86264,6.86264 0.0 0,0 80.7034,54.64081 A 3.96515,3.96515 0.0 0,0 79.08206,54.96039 A 3.43024,3.43024 0.0 0,0 77.85385,55.86871 A 4.10129,4.10129 0.0 0,0 77.07559,57.27728 A 6.26327,6.26327 0.0 0,0 77.06778,60.8877 A 3.992,3.992 0.0 0,0 77.82919,62.27942 A 3.268,3.268 0.0 0,0 79.08206,63.17151 A 4.51693,4.51693 0.0 0,0 80.8176,63.48297 A 5.45131,5.45131 0.0 0,0 82.13528,63.32739 A 4.02459,4.02459 0.0 0,0 83.06119,63.00818 L 82.8317,62.09058 A 4.64428,4.64428 0.0 0,1 82.15222,62.36121 L 82.15222,62.36121 M 45.314,13.985 L 47.776,13.985 L 47.776,17.009 L 45.314,17.009 L 45.314,13.985 M 48.263,13.985 L 50.877,13.985 L 50.877,17.009 L 48.263,17.009 L 48.263,13.985" class="cls-2"/>
	<path d="M 60.03308,13.352 L 56.92242,7.96393 L 38.98248,7.96393 L 35.89758,13.30713 L 43.8299,15.05292 L 43.8299,15.50861 L 33.20453,17.9718 L 30.0127,23.50043 L 38.98248,39.26691 L 39.71143,39.26691 A 15.81818,15.81818 0.0 0,0 42.4469,36.23108 A 8.78276,8.78276 0.0 0,1 44.60278,33.64062 A 1.8701,1.8701 0.0 0,1 45.31178,33.35547 L 45.33235,33.34912 L 45.33155,33.35358 A 1.89728,1.89728 0.0 0,1 45.65055,33.32141 A 1.87622,1.87622 0.0 0,1 47.41555,34.57257 A 1.38439,1.38439 0.0 0,0 45.79085,34.80298 A 2.31028,2.31028 0.0 0,0 45.41985,37.06042 A 2.336,2.336 0.0 0,0 45.52825,37.33801 A 14.695,14.695 0.0 0,1 43.29825,39.26691 L 43.86166,39.26691 A 17.20834,17.20834 0.0 0,0 47.39658,35.76361 C 48.53635,34.13672 49.07687,33.25092 49.88516,32.77301 A 2.16334,2.16334 0.0 0,1 50.70346,32.44427 C 50.71219,32.44202 50.71896,32.4386 50.72769,32.43683 L 50.72647,32.44202 A 2.1207,2.1207 0.0 0,1 53.13229,33.84888 A 1.59891,1.59891 0.0 0,0 51.25668,34.11481 A 2.66736,2.66736 0.0 0,0 50.82858,36.72101 A 1.75259,1.75259 0.0 0,0 51.14279,37.35168 A 14.362,14.362 0.0 0,1 48.9379,39.26691 L 49.489,39.26691 A 13.13638,13.13638 0.0 0,0 52.06328,36.72247 A 7.38726,7.38726 0.0 0,1 53.87487,34.5459 A 1.57139,1.57139 0.0 0,1 54.47069,34.3064 L 54.48809,34.30121 L 54.48709,34.30521 A 1.54235,1.54235 0.0 0,1 56.23809,35.32913 A 1.16482,1.16482 0.0 0,0 54.87309,35.52243 A 1.94182,1.94182 0.0 0,0 54.56156,37.41952 A 1.279,1.279 0.0 0,0 54.79008,37.87875 L 54.78508,37.88425 A 3.13457,3.13457 0.0 0,0 56.13267,39.26712 L 56.9224,39.26712 L 65.8924,23.50076 L 62.68073,17.93771 L 52.2522,15.52008 L 52.2522,15.06433 L 60.03308,13.352 M 42.4848,33.86462 L 42.94452,29.97662 L 52.391,24.5011 L 52.792,27.89203 L 42.4848,33.86462 M 43.27539,27.17562 L 43.70972,23.50045 L 49.64148,23.50045 L 43.27539,27.17562 M 50.573,31.7782 L 50.573,31.2876 L 53.23767,29.74908 L 53.60327,32.84149 C 52.686,31.395 50.573,31.7782 50.573,31.7782 M 53.7403,18.6812 A 7.8,7.8 0.0 0,0 52.4483,22.648 L 43.76062,22.648 A 7.80066,7.80066 0.0 0,0 42.46881,18.6812 L 44.92822,18.6812 L 44.92822,14.0078 L 44.20728,14.0078 L 48.10461,10.9 L 52.00128,14.00779 L 51.28088,14.00779 L 51.28088,18.68119 L 53.7403,18.6812" class="cls-2"/>
	<path d="M 36.98291,4.5 L 26.01312,23.50012 L 36.98291,42.5 L 58.9223,42.5 L 69.89178,23.50012 L 58.9223,4.5 L 36.98291,4.5 M 58.09729,41.07172 L 37.80762,41.07172 L 27.66272,23.50012 L 37.80762,5.92859 L 58.09729,5.92859 L 68.24219,23.50012 L 58.09729,41.07172" class="cls-2"/>
</svg>