<?xml version="1.0" encoding="UTF-8"?><svg id="Layer_2" xmlns="http://www.w3.org/2000/svg" viewBox="0 0 326.8 75.79"><defs><style>.cls-1{fill:#00c5b2;}.cls-2{fill:#eb286b;}.cls-3{fill:#fff;}.cls-4{fill:#414bf8;}</style></defs><g id="Layer_1-2"><circle class="cls-3" cx="37.89" cy="37.89" r="37.89"/><path class="cls-4" d="m35.27,46.14v17.67h-11.92v-29.59c3.29,0,6.27,1.33,8.43,3.49,2.16,2.16,3.49,5.14,3.49,8.43Z"/><path class="cls-2" d="m57.22,18.18s0,0,0,0l-7.87,7.84h0c-1.54-1.81-3.84-2.96-6.4-2.96-4.65,0-8.41,3.77-8.41,8.42h-11.1c0-10.78,8.74-19.51,19.51-19.51,5.63,0,10.71,2.39,14.27,6.21Z"/><circle class="cls-1" cx="42.61" cy="40.29" r="6.07"/><path class="cls-3" d="m116.85,22.3h2.9v32.04h-2.9V22.3Z"/><path class="cls-3" d="m147.66,32.4v21.95h-2.9v-4.3c-1.84,2.94-4.96,4.83-8.87,4.83-6.19,0-11.32-5-11.32-11.5s5.14-11.5,11.32-11.5c3.91,0,7.02,1.89,8.87,4.83v-4.3h2.9Zm-2.9,10.97c0-4.87-3.77-8.69-8.65-8.69s-8.65,3.82-8.65,8.69,3.77,8.69,8.65,8.69,8.65-3.82,8.65-8.69Z"/><path class="cls-3" d="m168.91,48.55c0,3.73-3.25,6.32-7.94,6.32-4.39,0-7.37-2.24-8.47-5.05l2.46-1.45c.79,2.24,3.07,3.69,6.01,3.69,2.59,0,5.05-.92,5.05-3.51,0-5.44-12.82-2.33-12.82-10.4,0-3.51,3.12-6.28,7.51-6.28,3.6,0,6.41,1.76,7.68,4.48l-2.41,1.4c-.92-2.24-3.16-3.07-5.27-3.07-2.28,0-4.61,1.1-4.61,3.47,0,5.44,12.82,2.33,12.82,10.4Z"/><path class="cls-3" d="m192.39,40.87v13.48h-2.9v-13.48c0-3.91-2.15-6.19-5.97-6.19s-7.11,2.28-7.11,8.16v11.5h-2.9v-30.73h2.9v12.2c1.71-2.77,4.26-3.95,7.37-3.95,5.35,0,8.6,3.51,8.6,9Z"/><path class="cls-3" d="m203.32,35.21v13.3c0,3.77,2.06,3.47,6.32,3.29v2.55c-5.93.88-9.22-.57-9.22-5.84v-13.3h-4.61v-2.81h4.61v-5.27l2.9-.88v6.15h6.32v2.81h-6.32Z"/><path class="cls-3" d="m234.92,32.4v21.95h-2.9v-4.3c-1.84,2.94-4.96,4.83-8.87,4.83-6.19,0-11.32-5-11.32-11.5s5.14-11.5,11.32-11.5c3.91,0,7.02,1.89,8.87,4.83v-4.3h2.9Zm-2.9,10.97c0-4.87-3.77-8.69-8.65-8.69s-8.65,3.82-8.65,8.69,3.77,8.69,8.65,8.69,8.65-3.82,8.65-8.69Z"/><path class="cls-3" d="m241.07,22.3h2.9v32.04h-2.9V22.3Z"/><path class="cls-3" d="m263.98,54.35l-10.97-10.58v10.58h-2.9v-30.73h2.9v18.48l10.45-9.7h3.95l-11.32,10.53,11.76,11.41h-3.86Z"/><path class="cls-3" d="m271.14,25.64c0-1.14.92-2.11,2.11-2.11s2.11.97,2.11,2.11-.92,2.11-2.11,2.11-2.11-.97-2.11-2.11Zm.66,6.76h2.9v21.95h-2.9v-21.95Z"/><path class="cls-3" d="m299.71,40.87v13.48h-2.9v-13.48c0-3.91-2.15-6.19-5.97-6.19s-7.11,2.28-7.11,8.16v11.5h-2.9v-21.95h2.9v3.42c1.71-2.77,4.26-3.95,7.37-3.95,5.35,0,8.6,3.51,8.6,9Z"/><path class="cls-3" d="m326.8,32.4v21.07c0,6.67-5.35,10.18-11.02,10.18-5.05,0-8.69-1.93-10.4-5.35l2.55-1.45c1.1,2.24,3.12,3.99,7.86,3.99,5.09,0,8.12-2.9,8.12-7.37v-3.42c-1.84,2.94-4.96,4.83-8.87,4.83-6.19,0-11.32-5-11.32-11.5s5.14-11.5,11.32-11.5c3.91,0,7.02,1.89,8.87,4.83v-4.3h2.9Zm-2.9,10.97c0-4.87-3.77-8.69-8.65-8.69s-8.65,3.82-8.65,8.69,3.77,8.69,8.65,8.69,8.65-3.82,8.65-8.69Z"/><path class="cls-3" d="m105.68,31.52v.88h6.32v2.81h-6.32v19.14h-2.9v-19.14h-3.73v-2.81h3.73v-.88c0-5.71,3.29-8.87,9.22-8.43v2.81c-4.26-.35-6.32,1.4-6.32,5.62Z"/></g></svg>