<?xml version="1.0" ?>
<svg xmlns="http://www.w3.org/2000/svg" viewBox="0 0 1400 419" fill="none">
	<path d="M584.067 307.5V111.136H714.081V145.366H625.583V192.156H705.452V226.385H625.583V307.5H584.067ZM742.006 307.5V111.136H783.523V273.271H867.706V307.5H742.006ZM895.2 307.5V111.136H1027.51V145.366H936.716V192.156H1020.71V226.385H936.716V273.271H1027.9V307.5H895.2ZM1060.52 307.5V111.136H1102.04V197.717H1104.63L1175.29 111.136H1225.05L1152.18 199.059L1225.92 307.5H1176.25L1122.46 226.768L1102.04 251.697V307.5H1060.52ZM1288.19 111.136V307.5H1246.67V111.136H1288.19Z" fill="black"/>
	<path d="M408 209C408 227.489 405.491 245.392 400.795 262.388L366.833 228.425C367.603 222.058 368 215.575 368 209C368 120.634 296.366 49 208 49C119.634 49 48 120.634 48 209C48 297.366 119.634 369 208 369C258.328 369 303.229 345.763 332.56 309.432L207.982 184.638L115.465 277.385C107.381 285.504 99.1241 280.658 91.0002 272.574C82.8812 264.495 77.9547 256.233 86.0387 248.114L193.269 140.614C201.348 132.495 214.496 132.455 222.615 140.539L331.446 249.565L331.425 249.586L354.733 272.895L354.733 272.894L384.669 302.83C351.051 365.996 284.547 409 208 409C97.5431 409 8 319.457 8 209C8 98.5431 97.5431 9 208 9C318.457 9 408 98.5431 408 209Z" fill="url(#paint0_linear_1315_65)"/>
	<defs>
		<linearGradient id="paint0_linear_1315_65" x1="231.5" y1="9" x2="208" y2="409" gradientUnits="userSpaceOnUse">
			<stop stop-color="#00F0FF"/>
			<stop offset="1" stop-color="#FFDD00"/>
		</linearGradient>
	</defs>
</svg>