<?xml version="1.0" ?>
<svg xmlns="http://www.w3.org/2000/svg" viewBox="0 0 118 53" fill="none">
	<g clip-path="url(#clip0_23290_76073)">
		<g clip-path="url(#clip1_23290_76073)">
			<path d="M37.8998 14.3616C37.8798 13.4916 37.7498 12.6816 37.5398 11.8916C37.3298 11.1016 36.9898 10.4316 36.5298 9.87156C36.0698 9.32156 35.3498 9.02156 34.4198 9.02156C33.2798 9.02156 32.3098 9.44156 31.4898 10.3116C30.6698 11.1816 29.9498 12.2916 29.3598 13.6316C28.7498 14.9916 28.2798 16.5016 27.9298 18.1616C27.5798 19.8216 27.2798 21.4616 27.0398 23.0616C26.8298 24.6816 26.6798 26.1516 26.6198 27.5316C26.5598 28.9116 26.5098 29.9616 26.5098 30.6716C26.5098 31.3216 26.5298 32.3316 26.5898 33.6816C26.6498 35.0416 26.7598 36.5316 26.8898 38.1516C27.0198 39.7716 27.2698 41.4516 27.5698 43.1716C27.8698 44.8916 28.2698 46.4516 28.7498 47.8416C29.2398 49.2216 29.8298 50.3916 30.5598 51.2816C31.2798 52.1716 32.1198 52.6416 33.1598 52.6416C34.1998 52.6416 35.0398 52.4016 35.6698 51.9116C36.2998 51.4216 36.7698 50.8216 37.0998 50.0916C37.4198 49.3816 37.6298 48.5916 37.7098 47.7216C37.7898 46.8716 37.8398 46.1016 37.8598 45.4116C37.8598 42.6616 37.7998 39.9316 37.6098 37.2016C37.4198 34.4716 37.3398 31.7616 37.3598 29.0516C37.3598 26.9516 37.4698 24.8616 37.6798 22.7816C37.8898 20.7016 37.9998 18.6316 37.9998 16.5516C37.9998 15.9616 37.9998 15.2116 37.9398 14.3516H37.9198L37.8998 14.3616ZM69.7298 42.1716C69.7298 41.3616 69.4098 40.7316 68.7398 40.2116C68.0598 39.7016 67.3098 39.4616 66.4598 39.4616C65.6998 39.4616 64.9598 39.6616 64.2198 40.0316C63.4798 40.4116 62.7398 40.8416 61.9798 41.3216C61.2198 41.7916 60.4398 42.2316 59.6398 42.6116C58.8398 42.9916 58.0398 43.1816 57.1898 43.1816C56.0498 43.1816 55.0798 42.9216 54.2598 42.4316C53.4398 41.9416 52.9298 41.1416 52.7798 40.0216C54.6598 39.9416 56.5098 39.5516 58.3298 38.8516C60.1398 38.1416 61.7298 37.2316 63.1198 36.0816C64.5098 34.9316 65.6098 33.5916 66.4498 32.0116C67.2898 30.4516 67.7198 28.7516 67.7198 26.9716C67.7198 25.5916 67.3998 24.3616 66.8298 23.2516C66.2398 22.1416 65.4598 21.1916 64.4898 20.3816C63.5198 19.5716 62.3998 18.9616 61.0898 18.5216C59.7798 18.0816 58.4098 17.8716 56.9998 17.8716C54.4898 17.8716 52.3198 18.4816 50.4798 19.7116C48.6398 20.9416 47.1498 22.4616 45.9398 24.2816C44.7398 26.1016 43.8498 28.1216 43.2598 30.2916C42.6698 32.4716 42.3698 34.5216 42.3698 36.4216C42.3698 38.2216 42.6898 40.0616 43.2998 41.9616C43.9098 43.8616 44.7998 45.5816 45.9798 47.1616C47.1398 48.7216 48.5998 50.0316 50.3498 51.0416C52.0798 52.0716 54.0598 52.5616 56.2998 52.5616C57.6098 52.5616 59.0398 52.2416 60.5798 51.6716C62.1198 51.1016 63.5798 50.2916 64.9498 49.3216C66.3198 48.3316 67.4398 47.2416 68.3498 46.0016C69.2598 44.7516 69.6998 43.4916 69.6998 42.1816H69.7398H69.7198L69.7298 42.1716ZM58.6998 29.9116C58.1898 30.4016 57.5598 30.8216 56.8198 31.1416C56.0798 31.4616 55.2998 31.7316 54.4798 31.9116C53.6598 32.1116 52.9398 32.2516 52.3698 32.3616C52.4098 31.7116 52.5398 31.0016 52.7698 30.2216C52.9998 29.4416 53.3398 28.7616 53.7598 28.0816C54.1798 27.4316 54.7098 26.8516 55.3398 26.4216C55.9898 25.9816 56.7498 25.7716 57.6798 25.7716C58.3098 25.7716 58.7798 26.0516 59.0698 26.5816C59.3698 27.1116 59.5098 27.6316 59.5098 28.1216C59.5098 28.8116 59.2598 29.4116 58.7298 29.9016H58.6898L58.6998 29.9116ZM99.3698 22.1716C99.3498 21.5216 99.0998 20.9216 98.6298 20.3916C98.1698 19.8616 97.5698 19.6016 96.8798 19.6216C95.7798 19.6616 94.6398 20.1316 93.4598 21.0016C92.2798 21.8916 91.1398 22.9216 90.0598 24.1016C88.9798 25.2916 88.0098 26.4716 87.1698 27.7016C86.3298 28.9116 85.6498 29.8816 85.1898 30.5916C84.7698 29.8816 84.2598 28.9916 83.5898 27.8816C82.9098 26.7716 82.1798 25.7216 81.3498 24.7016C80.5298 23.6716 79.6198 22.8016 78.6698 22.0916C77.6998 21.3816 76.7098 21.0416 75.6498 21.0816C74.6798 21.1216 73.9198 21.4216 73.3498 21.9716C72.7798 22.5216 72.5298 23.2616 72.5498 24.1316C72.5898 24.9416 72.8198 25.9316 73.2698 27.1216C73.7098 28.3116 74.2598 29.5116 74.8698 30.7416C75.4798 31.9516 76.1398 33.1116 76.8098 34.2216C77.4898 35.3316 78.0598 36.2216 78.4998 36.8916C78.0998 37.5616 77.5498 38.4716 76.8298 39.6616C76.0898 40.8316 75.3698 42.0716 74.6598 43.3616C73.9398 44.6516 73.3098 45.8916 72.7998 47.1016C72.2898 48.3116 72.0398 49.3016 72.0598 50.0516C72.0798 50.8016 72.3798 51.4716 72.8998 52.0316C73.4298 52.5816 74.1198 52.8616 75.0098 52.8216C75.7698 52.8016 76.6098 52.4416 77.5398 51.7916C78.4698 51.1416 79.4398 50.3516 80.3698 49.4216C81.2998 48.4916 82.2098 47.5616 83.0298 46.6116C83.8498 45.6616 84.5298 44.9316 85.0598 44.3616C85.5898 44.9116 86.2198 45.5916 86.9598 46.4416C87.6998 47.2916 88.5198 48.0616 89.4098 48.8116C90.2998 49.5616 91.1998 50.2116 92.1298 50.7516C93.0598 51.2816 93.9398 51.5416 94.8298 51.5216C95.6698 51.4816 96.3698 51.1416 96.9398 50.4716C97.5098 49.8016 97.7598 49.1316 97.7398 48.4316C97.7198 47.7016 97.4398 46.8316 96.9398 45.8216C96.4298 44.8116 95.8198 43.7816 95.1298 42.7516C94.4298 41.7216 93.7398 40.7516 93.0198 39.8216C92.2998 38.8916 91.7298 38.1816 91.3498 37.6416C92.1298 36.3916 92.9098 35.1116 93.6698 33.8216C94.4298 32.5316 95.2098 31.2516 95.9898 30.0016C96.2898 29.4716 96.6398 28.8516 97.0498 28.2216C97.4498 27.5716 97.8098 26.8916 98.1698 26.2016C98.5298 25.5116 98.7998 24.8216 99.0398 24.1216C99.2498 23.4316 99.3598 22.7916 99.3398 22.1816H99.3798V22.1616L99.3698 22.1716ZM112.87 32.1616C112.87 31.5116 112.87 30.5016 112.81 29.1516C112.77 27.8116 112.6 26.4416 112.3 25.0616C112 23.6816 111.56 22.4716 110.97 21.4416C110.38 20.4116 109.49 19.9016 108.4 19.9016C107.31 19.9016 106.4 20.2416 105.7 20.9316C105 21.6216 104.41 22.5316 103.97 23.6416C103.53 24.7516 103.19 25.9716 102.98 27.3016C102.75 28.6416 102.6 29.9716 102.52 31.2616C102.44 32.5716 102.39 33.7716 102.39 34.9016V39.6316C102.39 40.5816 102.43 41.6316 102.52 42.7516C102.6 43.8816 102.73 45.0416 102.9 46.2516C103.07 47.4616 103.34 48.5416 103.68 49.5116C104.04 50.4816 104.48 51.2716 105.03 51.8816C105.58 52.4916 106.23 52.7916 107.03 52.7516C108.09 52.7316 108.95 52.3716 109.65 51.7016C110.35 51.0316 110.92 50.1616 111.32 49.0916C111.72 48.0216 112.04 46.8416 112.25 45.5316C112.42 44.2216 112.57 42.9416 112.65 41.6916C112.73 40.4416 112.78 39.2616 112.78 38.1716C112.78 37.0816 112.78 36.2116 112.84 35.5616C112.88 35.0316 112.9 34.4516 112.9 33.8816V32.2016H112.86L112.88 32.1616H112.87ZM26.7798 9.71156C26.6098 9.31156 26.3398 8.98156 25.9798 8.70156C25.5998 8.42156 25.1998 8.21156 24.7398 8.05156C24.2798 7.89156 23.7898 7.77156 23.2798 7.67156C22.1998 7.45156 20.5998 7.35156 18.4898 7.35156C16.3798 7.35156 14.1898 7.47156 11.9298 7.69156C9.85977 7.89156 7.76977 8.13156 5.78977 8.76156C3.99977 9.33156 1.71977 10.3616 0.889766 12.0816C0.699766 12.5316 0.549766 13.2316 0.449766 14.1616C0.339766 15.1116 0.259766 16.1816 0.239766 17.4016C0.179766 18.5916 0.00976562 21.7116 0.00976562 23.0816C0.00976562 24.4516 0.00976562 25.7316 0.0497656 26.9616C0.0897656 28.1916 0.109766 29.3116 0.129766 30.3416C0.149766 31.3516 0.169766 32.1216 0.189766 32.6316C0.209766 33.3016 0.269766 34.2716 0.339766 35.5616C0.419766 36.8316 0.549766 38.2316 0.779766 39.7316C0.989766 41.2316 1.26977 42.7816 1.61977 44.3416C1.95977 45.9016 2.37977 47.3116 2.88977 48.5716C3.39977 49.8416 3.98977 50.8416 4.63977 51.6416C5.31977 52.4316 6.09977 52.8116 6.97977 52.7716C7.86977 52.7316 8.66977 52.3716 9.23977 51.7016C9.80976 51.0316 10.2298 50.2416 10.5098 49.3316C10.7798 48.4216 10.9498 47.4916 11.0398 46.5216C11.0998 45.5516 11.1498 44.7616 11.1698 44.1316C11.1898 42.8416 11.2098 41.5616 11.1898 40.2716C11.1898 38.9816 11.1698 38.1516 11.1098 36.8516L11.0698 35.6216C12.2698 35.3816 13.4498 35.1116 14.6098 34.7316C16.1498 34.2216 18.3198 33.4016 19.5498 32.5916C20.7498 31.7816 21.5098 30.7116 21.8098 29.4316C22.0798 28.2616 21.8698 27.3716 21.2198 26.7416C20.5698 26.1316 19.6198 25.6916 18.4098 25.4516C16.9098 25.1516 14.4898 25.2716 12.6898 25.4716C11.9098 25.5716 11.1498 25.6716 10.4298 25.8116C10.4698 24.9616 10.4898 24.3716 10.4898 23.5216C10.4898 22.7716 10.6398 20.2216 10.5998 19.5116C11.6598 19.3316 12.8398 19.1116 14.1698 18.8616C16.0298 18.5016 17.8598 17.9916 19.6398 17.3616C21.4098 16.7116 22.9698 15.9016 24.3498 14.9116C25.6998 13.9216 26.5398 12.6816 26.8798 11.1916C27.0098 10.6016 26.9898 10.1216 26.8198 9.71156L26.7998 9.73156L26.7798 9.71156Z" fill="url(#paint0_linear_23290_76073)"/>
			<path d="M108.09 16.7731C108.13 16.6931 107.89 16.1431 107.88 16.0431C107.78 15.4031 107.86 14.7331 108.07 14.1231C108.43 13.0931 109.16 12.2331 109.97 11.5231C110.88 10.7231 111.91 10.1331 112.62 9.11312C112.66 9.05312 112.7 8.99312 112.74 8.93312C114.18 6.69312 113.44 3.15312 110.38 3.03312C110.3 3.03312 110.21 3.03312 110.13 3.03312C108.49 3.08312 106.41 4.08313 105.82 5.71313C105.52 6.54313 105.68 7.58313 106.59 7.95312C107.86 8.47313 110.47 7.75312 110.69 6.19312C110.72 5.97312 110.69 5.73312 110.55 5.57312C110.02 5.01312 108.78 5.72312 108.32 6.06313C107.99 6.31313 107.56 6.89313 107.17 6.35313C106.8 5.84313 107.57 5.15313 107.93 4.87313C108.44 4.47312 109.07 4.19312 109.71 4.06312C111.72 3.64312 112.99 5.58313 112.36 7.39313C111.74 9.16313 110.15 10.4931 108.46 11.2031C106.77 11.9131 104.5 12.1531 103.22 10.5131C102.54 9.64313 102.29 8.49312 102.41 7.39313C102.81 3.42313 106.68 0.453125 110.53 0.453125C111.88 0.453125 113.28 0.633125 114.53 1.18313C115.68 1.69313 116.71 2.55312 117.24 3.69313C117.95 5.21313 117.77 7.18312 117.01 8.65312C116.25 10.1231 115 11.0831 113.68 11.9131C112.22 12.8331 109.29 14.2331 108.1 16.7731H108.09Z" fill="#5750E3"/>
		</g>
	</g>
	<defs>
		<linearGradient id="paint0_linear_23290_76073" x1="56.4498" y1="7.36156" x2="56.4498" y2="52.8116" gradientUnits="userSpaceOnUse">
			<stop stop-color="#FF7B00"/>
			<stop offset="1" stop-color="#FF7B00"/>
		</linearGradient>
		<clipPath id="clip0_23290_76073">
			<rect width="117.68" height="52.36" fill="white" transform="translate(0 0.453125)"/>
		</clipPath>
		<clipPath id="clip1_23290_76073">
			<rect width="117.68" height="52.36" fill="white" transform="translate(0 0.453125)"/>
		</clipPath>
	</defs>
</svg>