<?xml version="1.0" ?>
<svg xmlns="http://www.w3.org/2000/svg" viewBox="0 0 302 47" fill="none">
	<g clip-path="url(#clip0_15805_1291)">
		<path d="M89.2275 10.7836H72.5063C72.3208 10.7941 72.1566 10.8733 72.0241 11.0104C71.8917 11.1476 71.8228 11.3428 71.8228 11.5855V35.8946C71.8228 36.3219 72.0294 36.5646 72.4533 36.6226H77.7833C78.3184 36.6226 78.5886 36.3746 78.5886 35.8735V27.9023H86.4671C86.7002 27.9023 86.8804 27.8126 87.0181 27.6333C87.1506 27.4539 87.2194 27.264 87.2194 27.0688V22.9118C87.2194 22.6427 87.1453 22.4528 86.9916 22.3262C86.838 22.2049 86.6525 22.1416 86.43 22.1416H78.5833V16.7501H89.2063C89.4765 16.7501 89.6778 16.6604 89.8209 16.481C89.9586 16.3017 90.0275 16.1118 90.0275 15.9166V11.6118C90.0275 11.3586 89.9586 11.1529 89.8262 11.0052C89.6937 10.8522 89.4924 10.7783 89.2222 10.7783L89.2275 10.7836Z" fill="#292929"/>
		<path d="M115.507 10.7836H110.405C110.161 10.7836 109.965 10.8575 109.822 11.0104C109.673 11.1634 109.604 11.3428 109.604 11.5485V26.3144C109.604 27.0794 109.493 27.7599 109.26 28.3507C109.032 28.9416 108.725 29.4375 108.333 29.8384C107.941 30.2393 107.485 30.54 106.966 30.7458C106.447 30.9515 105.896 31.0517 105.313 31.0517C104.73 31.0517 104.211 30.9621 103.692 30.7932C103.172 30.6192 102.717 30.3448 102.325 29.965C101.933 29.5852 101.62 29.0998 101.382 28.5037C101.143 27.9076 101.021 27.1743 101.021 26.3197V11.5485C101.021 11.327 100.926 11.1476 100.735 10.9999C100.544 10.8522 100.359 10.7836 100.184 10.7836H94.9549C94.7588 10.7836 94.5946 10.8627 94.4568 11.021C94.3244 11.1793 94.2555 11.3533 94.2555 11.5538V26.2195C94.2555 28.2136 94.5575 29.9017 95.1562 31.2733C95.7549 32.6502 96.5602 33.7633 97.5775 34.6126C98.5894 35.4673 99.7657 36.0792 101.106 36.459C102.447 36.8336 103.851 37.0235 105.318 37.0235C106.786 37.0235 108.185 36.8389 109.52 36.4749C110.855 36.1109 112.026 35.5042 113.043 34.6654C114.06 33.8266 114.86 32.7135 115.464 31.3313C116.063 29.9492 116.365 28.2452 116.365 26.2142V11.5485C116.365 11.3533 116.291 11.174 116.137 11.0157C115.984 10.8575 115.777 10.7783 115.507 10.7783V10.7836Z" fill="#292929"/>
		<path d="M143.518 10.7832H138.538C138.353 10.7832 138.188 10.8412 138.051 10.9573C137.913 11.0734 137.818 11.2369 137.77 11.4426V25.3803C136.276 23.0011 134.803 20.6588 133.346 18.3534C131.889 16.0481 130.421 13.7005 128.943 11.3266C128.816 11.1314 128.662 10.9889 128.487 10.9098C128.313 10.8307 128.143 10.7885 127.979 10.7885H122.267C122.013 10.7885 121.817 10.8623 121.69 11.0153C121.563 11.1683 121.499 11.3477 121.499 11.5534V35.8784C121.499 36.0894 121.557 36.2635 121.684 36.4112C121.806 36.5589 122.002 36.6275 122.267 36.6275H127.232C127.534 36.6275 127.746 36.5642 127.862 36.4375C127.979 36.3109 128.037 36.121 128.037 35.8625V20.9173C129.595 23.4706 131.136 25.9922 132.652 28.4875C134.167 30.9828 135.698 33.5044 137.245 36.0577C137.372 36.2318 137.494 36.369 137.611 36.4745C137.727 36.58 137.86 36.6327 138.014 36.6327H143.587C143.831 36.6327 144.022 36.58 144.165 36.4692C144.303 36.3584 144.371 36.1896 144.371 35.9575V11.5481C144.371 11.3055 144.292 11.1156 144.128 10.9837C143.963 10.8518 143.762 10.7832 143.513 10.7832H143.518Z" fill="#292929"/>
		<path d="M167.334 29.3475C167.196 29.1629 167.053 29.0574 166.915 29.0363C166.778 29.0152 166.603 29.0679 166.391 29.1945C165.819 29.6219 165.188 29.9595 164.489 30.1969C163.789 30.4343 163.058 30.5556 162.285 30.5556C161.331 30.5556 160.452 30.3762 159.646 30.0175C158.841 29.6588 158.152 29.1682 157.569 28.5457C156.987 27.9232 156.531 27.2004 156.208 26.3722C155.884 25.544 155.72 24.6524 155.72 23.7028C155.72 22.7533 155.884 21.8564 156.208 21.0229C156.536 20.1894 156.987 19.4561 157.569 18.8284C158.152 18.2006 158.846 17.71 159.646 17.3512C160.452 16.9925 161.331 16.8131 162.285 16.8131C163.053 16.8131 163.784 16.9292 164.468 17.1613C165.156 17.3934 165.782 17.7258 166.354 18.1531C166.566 18.2797 166.741 18.3325 166.889 18.3008C167.037 18.2744 167.17 18.1584 167.302 17.9632L170.253 13.7851C170.38 13.5318 170.402 13.3103 170.306 13.1256C170.211 12.941 170.068 12.788 169.867 12.6719C168.77 11.9387 167.604 11.3795 166.364 10.9944C165.125 10.604 163.805 10.4141 162.407 10.4141C161.172 10.4141 159.985 10.5723 158.852 10.8941C157.718 11.2159 156.653 11.6591 155.662 12.2341C154.671 12.8091 153.771 13.5002 152.96 14.3126C152.149 15.125 151.455 16.0271 150.872 17.0189C150.29 18.0107 149.845 19.071 149.527 20.2C149.214 21.3289 149.055 22.5106 149.055 23.7398C149.055 24.9689 149.214 26.1506 149.527 27.2796C149.839 28.4085 150.29 29.4636 150.872 30.4448C151.455 31.426 152.149 32.3176 152.96 33.1247C153.771 33.9319 154.671 34.6229 155.662 35.2032C156.653 35.7835 157.718 36.2267 158.852 36.5432C159.985 36.8544 161.172 37.0127 162.407 37.0127C163.805 37.0127 165.135 36.8122 166.401 36.4113C167.668 36.0104 168.844 35.4459 169.941 34.7179C170.142 34.6018 170.285 34.4594 170.38 34.28C170.476 34.106 170.455 33.8897 170.327 33.6364L167.339 29.3581L167.334 29.3475Z" fill="#292929"/>
		<path d="M192.898 10.7832H174.095C173.861 10.7832 173.665 10.8518 173.506 10.9889C173.347 11.1261 173.273 11.3107 173.273 11.5429V15.8634C173.273 16.1536 173.353 16.3751 173.506 16.5229C173.665 16.6706 173.861 16.7497 174.095 16.7497H180.108V35.7992C180.108 36.0313 180.193 36.2265 180.368 36.3795C180.542 36.5378 180.728 36.6169 180.924 36.6169H186.047C186.291 36.6169 186.487 36.5325 186.641 36.3637C186.794 36.1949 186.869 36.005 186.869 35.7992V16.7497H192.898C193.163 16.7497 193.369 16.6547 193.518 16.4648C193.666 16.2749 193.735 16.0744 193.735 15.8687V11.5481C193.714 11.2949 193.618 11.105 193.454 10.9731C193.29 10.8465 193.105 10.7832 192.893 10.7832H192.898Z" fill="#292929"/>
		<path d="M204.501 10.9942C204.3 10.8571 204.114 10.7832 203.939 10.7832H198.8C198.546 10.7832 198.35 10.8571 198.223 11.01C198.095 11.163 198.032 11.3424 198.032 11.5481V35.8573C198.032 36.369 198.286 36.6222 198.8 36.6222H203.939C204.506 36.6222 204.798 36.369 204.798 35.8573V11.5481C204.798 11.316 204.697 11.1314 204.501 10.9889V10.9942Z" fill="#292929"/>
		<path d="M235.26 17.0492C234.683 16.0574 233.983 15.1553 233.173 14.3429C232.357 13.5305 231.451 12.8394 230.46 12.2644C229.469 11.6893 228.399 11.2462 227.26 10.9244C226.116 10.6079 224.934 10.4443 223.71 10.4443C222.486 10.4443 221.289 10.6026 220.15 10.9244C219.016 11.2462 217.951 11.6893 216.96 12.2644C215.969 12.8394 215.069 13.5305 214.258 14.3429C213.448 15.1553 212.753 16.0574 212.171 17.0492C211.588 18.0409 211.137 19.1013 210.825 20.2302C210.512 21.3592 210.353 22.5409 210.353 23.77C210.353 24.9992 210.512 26.1809 210.825 27.3098C211.137 28.4388 211.588 29.4939 212.171 30.4751C212.753 31.4563 213.453 32.3479 214.258 33.155C215.069 33.9621 215.969 34.6532 216.96 35.2335C217.951 35.8138 219.016 36.2569 220.15 36.5735C221.289 36.8847 222.47 37.043 223.71 37.043C224.95 37.043 226.116 36.8847 227.26 36.5735C228.399 36.2622 229.469 35.8138 230.46 35.2335C231.451 34.6532 232.357 33.9621 233.173 33.155C233.989 32.3479 234.683 31.4563 235.26 30.4751C235.838 29.4939 236.288 28.4388 236.606 27.3098C236.929 26.1809 237.088 24.9992 237.088 23.77C237.088 22.5409 236.929 21.3592 236.606 20.2302C236.288 19.1013 235.838 18.0357 235.26 17.0492V17.0492ZM229.835 26.4552C229.512 27.2887 229.056 28.0167 228.468 28.6392C227.88 29.2617 227.181 29.7471 226.375 30.1005C225.565 30.454 224.68 30.6334 223.715 30.6334C222.751 30.6334 221.866 30.454 221.061 30.1005C220.256 29.7471 219.562 29.2617 218.974 28.6392C218.385 28.0167 217.93 27.2887 217.601 26.4552C217.278 25.6217 217.114 24.7196 217.114 23.7595C217.114 22.7994 217.278 21.9131 217.601 21.069C217.925 20.2302 218.385 19.4969 218.974 18.8692C219.562 18.2414 220.256 17.7508 221.061 17.3921C221.866 17.0333 222.746 16.854 223.715 16.854C224.685 16.854 225.57 17.0333 226.375 17.3921C227.186 17.7508 227.88 18.2467 228.468 18.8692C229.056 19.4969 229.512 20.2302 229.835 21.069C230.163 21.9131 230.322 22.8046 230.322 23.7595C230.322 24.7143 230.158 25.6217 229.835 26.4552Z" fill="#292929"/>
		<path d="M262.305 10.7832H257.324C257.139 10.7832 256.975 10.8412 256.837 10.9573C256.699 11.0734 256.604 11.2369 256.556 11.4426V25.3803C255.062 23.0011 253.589 20.6588 252.132 18.3534C250.675 16.0481 249.207 13.7005 247.729 11.3266C247.602 11.1314 247.448 10.9889 247.274 10.9098C247.099 10.8307 246.929 10.7885 246.765 10.7885H241.048C240.794 10.7885 240.598 10.8623 240.471 11.0153C240.344 11.1683 240.28 11.3477 240.28 11.5534V35.8784C240.28 36.0894 240.338 36.2635 240.465 36.4112C240.587 36.5589 240.783 36.6275 241.048 36.6275H246.013C246.315 36.6275 246.527 36.5642 246.643 36.4375C246.76 36.3109 246.818 36.121 246.818 35.8625V20.9173C248.376 23.4706 249.917 25.9922 251.433 28.4875C252.948 30.9828 254.479 33.5044 256.026 36.0577C256.153 36.2318 256.275 36.369 256.392 36.4745C256.508 36.58 256.641 36.6327 256.795 36.6327H262.368C262.612 36.6327 262.803 36.58 262.946 36.4692C263.084 36.3584 263.152 36.1896 263.152 35.9575V11.5481C263.152 11.3055 263.073 11.1156 262.909 10.9837C262.744 10.8518 262.543 10.7832 262.294 10.7832H262.305Z" fill="#292929"/>
		<path d="M267.179 16.982H270.962V36.6224H277.834V11.2266H267.179V16.982Z" fill="#292929"/>
		<path d="M293.416 30.5977C298.873 24.3042 300.06 21.8511 300.06 18.6542C300.06 13.8852 296.325 10.5723 290.915 10.5723C285.506 10.5723 281.951 13.9644 281.951 19.1026V19.5721H288.695V19.0815C288.695 17.5516 289.569 16.5915 291 16.5915C292.309 16.5915 293.22 17.5147 293.22 18.8916C293.22 21.0703 291.805 23.017 281.543 35.0713V36.617H300.516V30.5925H293.427L293.416 30.5977Z" fill="#292929"/>
		<path d="M56.6966 28.751L53.2846 13.7372C52.7759 11.5057 51.2712 9.62236 49.1943 8.64113L33.342 1.10784C30.2267 -0.369279 26.608 -0.369279 23.4926 1.10784L7.64562 8.63586C5.56871 9.62236 4.06401 11.5004 3.55538 13.7319L0.143323 28.751C-0.423587 31.2516 0.757918 33.8207 3.03086 35.0288L23.0423 45.6587C26.4066 47.4471 30.4439 47.4471 33.8083 45.6587L53.8197 35.0288C56.0926 33.8207 57.2741 31.2516 56.7072 28.751H56.6966ZM22.2634 5.30179L29.4902 8.73081L27.6358 9.61181L22.0462 6.95827L21.0236 7.44361L19.3865 6.66813L22.2634 5.30179V5.30179ZM20.5945 12.9933L13.4419 9.72259C13.3677 9.68566 13.3306 9.65401 13.3253 9.61181C13.3253 9.57488 13.3465 9.54323 13.3942 9.51685L17.548 7.51219C17.6222 7.47526 17.7017 7.45944 17.7864 7.46471C17.8712 7.46471 17.9507 7.48582 18.0248 7.52274L18.9308 7.92895C18.9891 7.95533 19.0262 7.99225 19.0421 8.03446C19.058 8.07666 19.0262 8.11886 18.9467 8.15579L16.3453 9.45355L17.6964 10.0444L19.8898 8.97348C19.9534 8.94183 20.0223 8.926 20.1018 8.926C20.1812 8.926 20.2607 8.94183 20.3402 8.97876L21.2462 9.40079C21.3045 9.42717 21.3415 9.4641 21.3574 9.5063C21.3733 9.5485 21.3468 9.58543 21.2833 9.61708L19.1269 10.7196L22.3376 12.1546C22.486 12.2231 22.486 12.297 22.3376 12.3709L21.0025 13.0145C20.8647 13.0619 20.7322 13.0567 20.6051 12.9933H20.5945ZM31.5088 20.2787C29.5485 21.1808 27.2915 21.1808 25.3311 20.2787L22.0939 18.8069C24.2556 19.403 26.7828 19.5085 28.42 19.5085C30.1631 19.5085 32.5844 19.403 34.7461 18.8069L31.5088 20.2787V20.2787ZM30.6081 8.18745L30.1843 7.98698C29.5485 5.15408 29.3843 4.73205 28.7909 4.44718C28.4147 4.26781 27.9272 4.26254 27.5882 4.4208C27.2173 4.59489 27.2544 4.83228 27.6729 5.02747L27.8054 5.09078L26.057 5.92429L25.9298 5.86099C24.5258 5.19628 24.4728 4.33639 25.9245 3.65059C27.3285 2.98589 29.2041 2.95423 30.5075 3.57146C31.3817 3.98821 31.7473 4.45245 32.0493 5.94012L33.8877 5.0644L35.5355 5.84516L30.6134 8.18217L30.6081 8.18745Z" fill="#E76731"/>
	</g>
	<defs>
		<clipPath id="clip0_15805_1291">
			<rect width="302" height="47" fill="white"/>
		</clipPath>
	</defs>
</svg>