<?xml version="1.0" ?>
<svg xmlns="http://www.w3.org/2000/svg" xmlns:xlink="http://www.w3.org/1999/xlink" viewBox="0 0 511.347 511.347">
	
	<g id="g10458" transform="translate(-60.016 10.59)">
		<g id="g20">
			<defs id="defs5">
				<path id="SVGID_1_" d="M 282.94,62.11 L 266.29,37.86 C 265.93,37.14 265.2,37.14 264.84,37.14 C 264.12,37.14 263.39,37.5 263.03,38.59 L 183.4,257.89 L 282.94,62.11"/>
			</defs>
			<clipPath id="SVGID_2_">
				<use height="100%" width="100%" y="0" x="0" xlink:href="#SVGID_1_" id="use7" overflow="visible"/>
			</clipPath>
			<g clip-path="url(#SVGID_2_)" id="g18">
				<defs id="defs11">
					<path id="SVGID_3_" d="M -716.0,-128.0 L 2173.0,-128.0 L 2173.0,2235.0 L -716.0,2235.0 L -716.0,-128.0"/>
				</defs>
				<clipPath id="SVGID_4_">
					<use height="100%" width="100%" y="0" x="0" xlink:href="#SVGID_3_" id="use13" overflow="visible"/>
				</clipPath>
				<path clip-path="url(#SVGID_4_)" id="rect16" fill="#48c5da" d="M 178.41,32.14 L 287.94,32.14 L 287.94,262.89 L 178.41,262.89 L 178.41,32.14"/>
			</g>
		</g>
		<g id="g38">
			<defs id="defs23">
				<path id="SVGID_5_" d="M 327.8,61.75 L 314.77,38.95 C 314.41,37.86 313.32,37.86 312.96,37.86 C 312.6,37.86 311.87,37.86 311.15,38.95 L 193.51,255.35 L 327.8,61.75"/>
			</defs>
			<clipPath id="SVGID_6_">
				<use height="100%" width="100%" y="0" x="0" xlink:href="#SVGID_5_" id="use25" overflow="visible"/>
			</clipPath>
			<g clip-path="url(#SVGID_6_)" id="g36">
				<defs id="defs29">
					<path id="SVGID_7_" d="M -716.0,-128.0 L 2173.0,-128.0 L 2173.0,2235.0 L -716.0,2235.0 L -716.0,-128.0"/>
				</defs>
				<clipPath id="SVGID_8_">
					<use height="100%" width="100%" y="0" x="0" xlink:href="#SVGID_7_" id="use31" overflow="visible"/>
				</clipPath>
				<path clip-path="url(#SVGID_8_)" id="rect34" fill="#48c5da" d="M 188.51,32.86 L 332.79,32.86 L 332.79,260.35 L 188.51,260.35 L 188.51,32.86"/>
			</g>
		</g>
		<g id="g56">
			<defs id="defs41">
				<path id="SVGID_9_" d="M 367.26,39.31 C 366.9,38.22 365.81,38.22 365.45,38.22 C 365.09,38.22 364.36,38.22 363.64,39.31 L 230.95,222.47 L 380.8,64.61 L 367.26,39.31"/>
			</defs>
			<clipPath id="SVGID_10_">
				<use height="100%" width="100%" y="0" x="0" xlink:href="#SVGID_9_" id="use43" overflow="visible"/>
			</clipPath>
			<g clip-path="url(#SVGID_10_)" id="g54">
				<defs id="defs47">
					<path id="SVGID_11_" d="M -716.0,-128.0 L 2173.0,-128.0 L 2173.0,2235.0 L -716.0,2235.0 L -716.0,-128.0"/>
				</defs>
				<clipPath id="SVGID_12_">
					<use height="100%" width="100%" y="0" x="0" xlink:href="#SVGID_11_" id="use49" overflow="visible"/>
				</clipPath>
				<path clip-path="url(#SVGID_12_)" id="rect52" fill="#48c5da" d="M 225.95,33.22 L 385.8,33.22 L 385.8,227.47 L 225.95,227.47 L 225.95,33.22"/>
			</g>
		</g>
		<g id="g74">
			<defs id="defs59">
				<path id="SVGID_13_" d="M 162.94,294.13 L 230.81,63.92 C 212.35,46.55 188.46,37.14 163.13,37.14 C 153.36,37.14 143.95,38.59 134.54,41.48 C 133.82,41.84 130.92,42.57 130.92,42.57 C 128.75,43.29 126.58,44.02 124.77,45.1 C 124.41,45.46 123.68,45.46 123.32,45.82 C 120.79,46.91 118.98,47.99 117.17,48.72 L 116.45,49.08 C 114.64,50.17 112.83,50.89 111.38,51.97 L 110.66,52.33 C 107.04,54.5 103.42,57.03 100.16,59.93 L 98.71,61.02 C 97.62,62.11 96.18,63.19 95.09,64.28 L 93.64,65.37 C 92.19,66.82 90.38,68.26 88.94,70.07 C 49.49,112.41 50.57,181.53 91.11,224.23 L 160.51,297.18 C 161.01,296.35 161.6,295.55 162.3,294.82 L 162.94,294.13"/>
			</defs>
			<clipPath id="SVGID_14_">
				<use height="100%" width="100%" y="0" x="0" xlink:href="#SVGID_13_" id="use61" overflow="visible"/>
			</clipPath>
			<g clip-path="url(#SVGID_14_)" id="g72">
				<defs id="defs65">
					<path id="SVGID_15_" d="M -716.0,-128.0 L 2173.0,-128.0 L 2173.0,2235.0 L -716.0,2235.0 L -716.0,-128.0"/>
				</defs>
				<clipPath id="SVGID_16_">
					<use height="100%" width="100%" y="0" x="0" xlink:href="#SVGID_15_" id="use67" overflow="visible"/>
				</clipPath>
				<path clip-path="url(#SVGID_16_)" id="rect70" fill="#48c5da" d="M 55.0,32.14 L 235.8,32.14 L 235.8,302.18 L 55.0,302.18 L 55.0,32.14"/>
			</g>
		</g>
		<path d="M 467.863,39.385 C 439.633,39.385 412.843,50.965 392.943,71.955 L 170.343,306.455 L 304.983,447.955 C 308.243,451.215 312.223,453.025 316.923,453.025 C 321.273,453.025 325.623,451.225 328.863,447.955 L 540.963,224.675 C 560.503,204.045 571.363,176.175 571.363,146.875 C 570.643,117.925 559.423,90.425 539.513,69.795 C 520.343,50.245 495.013,39.395 467.863,39.395" id="path10391" fill="#48c5da" fill-opacity="1"/>
	</g>
</svg>