<?xml version="1.0" ?>
<svg xmlns="http://www.w3.org/2000/svg" data-name="Layer 1" viewBox="0 0 700 194.5">
	<path d="M241.9 4.9V12c0 3.7-1.1 4.9-4.8 4.9-19.7 0-26.1 6-26.1 24.9v3.7h26.5c3.5 0 4.7 1.1 4.7 4.8v7.1c0 3.6-1.2 4.8-4.7 4.8H211v82.9c0 3.7-1.2 4.9-5.1 4.9h-8.1c-3.9 0-5-1.2-5-4.9V62.2h-15.5c-3.4 0-4.6-1.2-4.6-4.8v-7.1c0-3.7 1.2-4.8 4.6-4.8h15.5v-3.7c0-28.5 12.8-41.3 42.5-41.8h1.8c3.7 0 4.8 1.3 4.8 4.9ZM296.5 42.4c29.1 0 45.5 14.8 45.5 38.9v33c0 23.9-16.4 38.7-45.5 38.7s-45.4-14.8-45.4-38.7v-33c0-24.1 16.8-38.9 45.4-38.9Zm0 16.4c-17 0-27.4 8.3-27.4 22.3v33.2c0 14 10.4 22.3 27.4 22.3s27.5-8.3 27.5-22.3V81.1c0-14-10.3-22.3-27.5-22.3ZM410.1 42.4c28.4 0 41.2 15 41.2 40.1v62.6c0 3.7-1.3 4.9-4.9 4.9h-8.5c-3.7 0-4.9-1.2-4.9-4.9v-62c0-16-7.9-24-25.3-24a72.1 72.1 0 0 0-23.5 3.6c-2.1.8-2.4 1.9-2.4 3.6v78.8c0 3.7-1.3 4.9-4.9 4.9h-8.5c-3.5 0-4.7-1.2-4.7-4.9V60.7c0-6.3 1.4-8.7 7.7-11.4 7.9-3.3 19.9-6.9 38.7-6.9ZM550.5 138.4v6.7c0 3.7-1.2 4.9-4.6 4.9h-72c-3.6 0-4.8-1.2-4.8-4.9v-6.7c0-2.4.4-3.2 1.8-5.1l55.3-71.4h-51.5c-3.4 0-4.6-1.2-4.6-4.9v-6.7c0-3.7 1.2-4.8 4.6-4.8h70.1c3.6 0 4.9 1.1 4.9 4.8V57a8.6 8.6 0 0 1-1.8 5.4l-55.7 71.2h53.7c3.4 0 4.6 1.1 4.6 4.8ZM588.8 16.9v1.6c0 7.3-2.2 9.8-9.7 9.8h-1.3c-7.3 0-9.7-2.3-9.7-9.8v-1.6c0-7.3 2.4-9.8 9.7-9.8h1.3c7.5 0 9.7 2.5 9.7 9.8Zm-1.2 33.4v94.8c0 3.7-1.3 4.9-4.9 4.9h-8.5c-3.7 0-4.8-1.2-4.8-4.9V50.3c0-3.7 1.1-4.8 4.8-4.8h8.5c3.6 0 4.9 1.1 4.9 4.8ZM657.7 42.4c28.9 0 42.3 14.8 42.3 40.7v28.6c0 26.3-13.8 41.3-43.1 41.3-11.6 0-21.1-3.6-26.4-5.5v42.2c0 3.6-1.2 4.9-4.9 4.9h-8.5c-3.4 0-4.6-1.3-4.6-4.9V59.9c0-6.8 1.4-9 7.9-11.6s19.6-5.9 37.3-5.9ZM655 59.1a74.4 74.4 0 0 0-21.5 3c-2.5 1.1-3 1.7-3 4.2v64.8c4.6 1.7 14.2 5.3 25 5.3 18.1 0 26.3-8.5 26.3-25.3V83.7c0-16.2-9-24.6-26.8-24.6Z"/>
	<path d="M113.3 96.9c-5.2 10.6-10.7 21-16.1 31.6L81.3 96.9Z" transform="translate(-5 -5.2)" opacity=".1" style=""/>
	<path opacity=".1" style="" d="M45.7 31.1h93.2l-15 29.7H60.7l-15-29.7z"/>
	<path d="m5.4 13.8.3.5 11.1 22.1h.1Z" transform="translate(-5 -5.2)" opacity=".9" style=""/>
	<path opacity=".4" style="" d="M45.7 31.1H11.8l15.1 29.7h33.8l-15-29.7zM76.4 91.5H42.5l16 31.8h33.8L76.4 91.5z"/>
	<path d="m26.9 60.8 15.6 30.8h65.8l15.6-30.8h-97zM146.2.4H4.5C1.6.8-.3 3.9 0 7.1c.1.5.2.9.3 1.5l11.5 22.5h127.1L150 9a6 6 0 0 0-1.6-7.8 5.3 5.3 0 0 0-2.2-.8ZM71.6 149.4a4.6 4.6 0 0 0 7.2.3 2.8 2.8 0 0 0 1-1.4l12.6-24.9H58.5Z"/>
</svg>