<?xml version="1.0" encoding="UTF-8" standalone="no"?>
<svg viewBox="0 0 293.51001 24" version="1.1" xmlns="http://www.w3.org/2000/svg" xmlns:svg="http://www.w3.org/2000/svg">
  <g transform="scale(3.6977685,3.7795276)">
    <path style="fill:#00aaed" d="m 153.94048,2.5230613 v 3.1495938 q 0,1.0329313 -0.74507,1.7779965 -0.74506,0.7281319 -1.77799,0.7281319 h -0.11854 l 2.6416,3.1157275 v 0.897465 h -2.70933 l -3.36973,-4.0131925 -3.48826,0.016933 q 0.0508,0 0.0508,0.1015998 -0.0339,0 -0.0508,-0.016933 V 12.191976 H 141.7485 V 0.01693288 h 9.66892 q 1.03293,0 1.77799,0.7450652 0.74507,0.72813192 0.74507,1.76106322 z m -9.56732,0.1185331 v 2.8955943 h 6.90879 V 2.6415944 Z M 140.08906,-4.196167e-7 V 2.6415944 h -8.60212 v 2.1335958 h 6.92572 V 7.416785 h -6.92572 v 2.1335958 h 8.60212 V 12.191976 H 128.82841 V -4.196167e-7 Z M 124.23951,8.1279836 V -4.196167e-7 h 2.65853 V 12.191976 h -2.70933 l -6.85799,-8.161851 v 8.161851 h -2.62466 V -4.196167e-7 h 2.70933 z M 112.8434,2.506128 v 1.1514644 h -2.65853 v -1.015998 h -6.90879 v 6.9087864 h 6.90879 V 7.7215844 h -2.6416 V 5.0799896 h 5.30013 v 4.6058576 q 0,1.0329308 -0.74507,1.7779968 -0.72813,0.728132 -1.77799,0.728132 h -7.16279 q -1.04987,0 -1.778,-0.728132 -0.72813,-0.728132 -0.72813,-1.7779968 V 2.506128 q 0,-1.0498646 0.72813,-1.77799652 0.72813,-0.7281318996167 1.778,-0.7281318996167 h 7.16279 q 1.04986,0 1.77799,0.7450651996167 0.74507,0.72813192 0.74507,1.76106322 z M 96.943043,12.191976 V -4.196167e-7 h 2.641595 V 12.191976 Z M 95.114268,2.506128 V 3.6406591 H 92.45574 V 2.6415944 h -6.908787 v 2.1335958 h 7.061186 q 1.032932,0 1.761064,0.7450652 0.745065,0.7281319 0.745065,1.7610632 v 2.4045286 q 0,1.0329308 -0.745065,1.7779968 -0.728132,0.728132 -1.761064,0.728132 H 85.42842 q -1.032931,0 -1.777996,-0.728132 -0.728132,-0.728132 -0.728132,-1.7779968 V 8.5513161 h 2.624661 V 9.5503808 H 92.45574 V 7.416785 h -7.02732 q -1.032931,0 -1.777996,-0.7281319 Q 82.922292,5.9605212 82.922292,4.9106566 V 2.506128 q 0,-1.0498646 0.728132,-1.77799652 Q 84.395489,-4.196167e-7 85.42842,-4.196167e-7 h 7.179719 q 1.032932,0 1.761064,0.7450651996167 0.745065,0.72813192 0.745065,1.76106322 z M 81.330583,-4.196167e-7 V 2.6415944 h -8.602116 v 2.1335958 h 6.925719 V 7.416785 h -6.925719 v 2.1335958 h 8.602116 V 12.191976 H 70.069939 V -4.196167e-7 Z m -25.383008,0 h 9.668914 q 1.049865,0 1.777996,0.7450651996167 0.745066,0.72813192 0.745066,1.76106322 v 7.1797192 q 0,1.0329308 -0.745066,1.7779968 -0.728131,0.728132 -1.777996,0.728132 H 55.947575 Z M 58.572236,2.6415944 v 6.9087864 h 6.908787 V 2.6415944 Z" transform="scale(0.51562135,0.52083433)"/>
    <path style="fill:#3c4251" d="M 47.040665,4.9275899 51.155457,-4.196167e-7 h 2.726261 V 12.191976 H 51.240124 V 4.0131917 L 47.040665,9.0254485 42.824273,4.030125 v 8.161851 H 40.199612 V -4.196167e-7 H 42.90894 Z M 38.404703,2.5230613 v 3.1495938 q 0,1.0329313 -0.745065,1.7779965 -0.745065,0.7281319 -1.777997,0.7281319 h -0.118533 l 2.641595,3.1157275 v 0.897465 h -2.709328 l -3.369727,-4.0131925 -3.48826,0.016933 q 0.0508,0 0.0508,0.1015998 -0.03387,0 -0.0508,-0.016933 V 12.191976 H 26.212727 V 0.01693288 h 9.668914 q 1.032932,0 1.777997,0.7450652 0.745065,0.72813192 0.745065,1.76106322 z m -9.567315,0.1185331 v 2.8955943 h 6.908787 V 2.6415944 Z M 14.681163,-4.196167e-7 h 7.17972 q 1.032931,0 1.761063,0.7450651996167 0.745065,0.72813192 0.745065,1.76106322 v 7.1797192 q 0,1.0329308 -0.745065,1.7779968 -0.728132,0.728132 -1.761063,0.728132 h -7.17972 q -1.049864,0 -1.777996,-0.728132 -0.728132,-0.728132 -0.728132,-1.7779968 V 2.506128 q 0,-1.0498646 0.728132,-1.77799652 Q 13.631299,-4.196167e-7 14.681163,-4.196167e-7 Z M 14.799697,2.6415944 v 6.9087864 h 6.908786 V 2.6415944 Z M -2.0503998e-8,-4.196167e-7 H 11.260644 V 2.6415944 H 2.6585281 V 4.7751902 H 9.5842478 V 7.416785 H 2.6585281 v 4.775191 H -2.0503998e-8 Z" transform="scale(0.51562135,0.52083433)"/>
  </g>
</svg>