<?xml version="1.0" encoding="utf-8"?>
<!-- Generator: Adobe Illustrator 26.0.2, SVG Export Plug-In . SVG Version: 6.00 Build 0)  -->
<svg version="1.1" id="_2_color_stroke" xmlns="http://www.w3.org/2000/svg"  x="0px"
	 y="0px" viewBox="0 0 192 192" style="enable-background:new 0 0 192 192;" xml:space="preserve">
<style type="text/css">
	.st0{fill:#00C8DA;}
	.st1{fill:#2CCCD3;}
</style>
<path class="st0" d="M101.8,137H90.2l-0.1-0.3c-0.3-0.8-0.5-1.5-0.7-2.2c-1.4-4.3-2.3-6.9-5.7-8.2s-6.1-0.2-10,1.7
	c-0.7,0.3-1.3,0.7-2.1,1l-0.3,0.1l-8.1-8.1l0.2-0.3c0.4-0.8,0.7-1.5,1.1-2.2c1.9-3.8,3.2-6.3,1.8-9.8s-4-4.2-8-5.6
	c-0.8-0.3-1.6-0.6-2.5-0.9l-0.3-0.1V90.7l0.3-0.1l2.6-0.9c3.9-1.3,6.5-2.2,7.9-5.6s0.2-5.8-1.7-9.6c-0.4-0.7-0.8-1.5-1.2-2.4
	l-0.2-0.3l8.1-8.1l0.3,0.1l2.3,1.1c4,1.9,6.3,3.1,9.8,1.7s4.3-4.1,5.6-8.2c0.2-0.7,0.5-1.5,0.8-2.2l0.1-0.3h11.6l0.1,0.3
	c0.3,0.8,0.5,1.5,0.7,2.2c1.4,4.1,2.3,6.8,5.8,8.3s5.9,0.1,9.8-1.8l2.2-1l0.3-0.2l8.1,8.1l-0.1,0.3c-0.4,0.8-0.7,1.5-1.1,2.2
	c-1.9,3.9-3.1,6.3-1.8,9.7s3.9,4.2,8,5.6l2.5,0.8l0.3,0.1v11.4l-0.3,0.1c-0.8,0.3-1.6,0.6-2.4,0.8c-4,1.4-6.6,2.3-8.1,5.6
	s-0.2,5.8,1.8,9.7c0.3,0.7,0.7,1.4,1.1,2.2l0.1,0.3l-8.1,8.1l-0.3-0.1c-0.8-0.4-1.6-0.8-2.3-1.1c-3.9-1.9-6.3-3.1-9.7-1.7
	c-3.5,1.4-4.3,4-5.8,8.3c-0.2,0.7-0.5,1.4-0.7,2.1L101.8,137z M90.9,136h10.1c0.2-0.6,0.4-1.2,0.6-1.8c1.4-4.3,2.4-7.3,6.3-8.9
	c3.8-1.6,6.6-0.2,10.5,1.7l2,1l7.1-7.1l-0.9-1.9c-1.9-3.9-3.3-6.7-1.8-10.6s4.6-4.8,8.7-6.2c0.6-0.2,1.3-0.5,2.1-0.7v-10
	c-0.7-0.3-1.4-0.5-2.1-0.7c-4.2-1.4-7-2.4-8.6-6.2s-0.1-6.7,1.8-10.6l0.9-1.9l-7.1-7.2l-1.8,0.9c-4,2-6.9,3.4-10.7,1.8
	s-4.9-4.7-6.3-8.9c-0.2-0.6-0.4-1.2-0.6-1.8H90.9l-0.6,1.9c-1.4,4.2-2.4,7.2-6.2,8.8s-6.7,0.2-10.6-1.7c-0.6-0.3-1.3-0.6-2-1
	l-7.1,7.1l1,2c1.9,3.8,3.3,6.6,1.7,10.4s-4.4,4.8-8.5,6.1l-2.3,0.8v10c0.7,0.3,1.4,0.5,2.1,0.7c4.1,1.4,7.1,2.4,8.6,6.2
	s0.2,6.7-1.8,10.6l-0.9,1.8l7.1,7.1l1.8-0.9c4-2,6.9-3.4,10.8-1.8s4.8,4.6,6.2,8.9C90.5,134.8,90.7,135.4,90.9,136z M96,110.3
	c-7.6,0-13.9-6.2-13.9-13.8c0-7.6,6.2-13.9,13.8-13.9c7.6,0,13.9,6.2,13.9,13.8c0,0,0,0,0,0.1C109.8,104.1,103.6,110.3,96,110.3z
	 M96,83.6c-7.1,0-12.9,5.7-12.9,12.8c0,7.1,5.7,12.9,12.8,12.9c7.1,0,12.8-5.7,12.9-12.8C108.8,89.4,103.1,83.6,96,83.6z"/>
<path class="st1" d="M96,109.8c-7.4,0-13.4-6-13.4-13.3c0-7.4,6-13.4,13.3-13.4c7.4,0,13.4,6,13.4,13.3c0,0,0,0,0,0.1
	C109.3,103.8,103.3,109.8,96,109.8z M136.1,101.8V91.1c-5.5-2-9-2.5-10.8-6.7s0.4-7.1,2.8-12.3l-7.6-7.6c-5.2,2.5-8.2,4.6-12.4,2.8
	s-4.9-5.3-6.8-10.7H90.6c-1.9,5.4-2.5,8.9-6.7,10.7s-7.1-0.4-12.5-2.8L63.8,72c2.5,5.2,4.7,8.1,2.9,12.3s-5.3,4.8-10.8,6.7v10.7
	c5.4,2,9,2.6,10.8,6.8s-0.4,7.2-2.8,12.3l7.6,7.6c5.2-2.5,8.2-4.6,12.5-2.8s4.8,5.2,6.7,10.7h10.9c1.9-5.5,2.5-9,6.8-10.7
	s7,0.3,12.4,2.8l7.6-7.6c-2.5-5.2-4.6-8.1-2.8-12.3S130.7,103.8,136.1,101.8L136.1,101.8z"/>
<g>
	<path d="M23.9,96.6c0-33.5,23.1-62.5,55.4-70.2l0.6,5.8L96,20.5l-18.2-8l0.7,6C42,26.7,15.9,59,15.9,96.6c0,2.2,1.8,4,4,4
		C22.1,100.6,23.9,98.8,23.9,96.6z"/>
	<path d="M125.5,162.2c-2.1,1-4.3,1.8-6.6,2.6c-31.8,10.6-66.6-2-84.2-30.2l5.3-2.5l-16.3-11.5L22,140.5l5.4-2.5
		C42,161.8,67.9,176.5,96,176.5c8.7,0,17.3-1.4,25.5-4.2c2.5-0.9,4.9-1.8,7.3-2.9c2-0.9,2.9-3.3,2-5.3
		C129.9,162.2,127.5,161.3,125.5,162.2z"/>
	<path d="M152.7,40c-8.7-8.8-19.4-15.4-31.1-19.4c-2.1-0.7-4.4,0.4-5.1,2.5c-0.7,2.1,0.4,4.4,2.5,5.1c10.5,3.6,20.1,9.5,28,17.4
		c23.7,23.7,27.9,60.5,10.5,88.8l-4.6-3.7l-3,19.7l18.6-7.2l-4.7-3.8C183.7,107.9,179.2,66.6,152.7,40z"/>
</g>
</svg>
