<?xml version="1.0" ?>
<svg xmlns="http://www.w3.org/2000/svg" data-name="Layer 1" viewBox="0 0 353.97 73.58">
	<defs>
		<style>
      .cls-1 {
        fill: #00b3dc;
      }
      .cls-2 {
        fill: #8b8b8b;
      }
    </style>
	</defs>
	<path class="cls-2" d="M190.78,45.68c-.1-.25-.18-.49-.27-.71-.08-.23-.16-.45-.23-.67h-2.46c-.08.22-.17.44-.25.67s-.17.47-.26.71h-.52c.19-.53.37-1.01.54-1.47s.34-.88.5-1.29c.16-.4.33-.79.49-1.17.16-.37.33-.75.51-1.12h.44c.18.37.35.75.51,1.12s.32.76.49,1.17c.16.4.33.83.5,1.29.17.45.35.94.56,1.47h-.55ZM189.05,41.2c-.18.42-.36.84-.53,1.28-.17.43-.35.9-.54,1.4h2.15c-.19-.5-.37-.97-.54-1.4-.18-.43-.36-.86-.54-1.27Z"/>
	<path class="cls-2" d="M198,43.15c0,.43-.07.81-.2,1.13s-.33.59-.57.8-.54.37-.88.48c-.34.11-.71.16-1.12.16-.2,0-.42-.01-.64-.03-.22-.02-.42-.05-.59-.1v-4.86c.17-.05.37-.08.59-.11s.44-.03.64-.03c.41,0,.78.05,1.12.16.34.11.63.27.88.48.25.21.44.48.57.8s.2.69.2,1.12ZM194.5,45.24s.1.01.22.03c.12.01.31.02.57.02.36,0,.68-.05.95-.15.27-.1.5-.24.68-.43.18-.18.32-.41.41-.67s.14-.56.14-.89-.05-.63-.14-.89c-.09-.26-.23-.49-.41-.67-.18-.18-.41-.33-.68-.43-.27-.1-.59-.15-.95-.15-.26,0-.45,0-.57.02-.12.01-.19.02-.22.03v4.17Z"/>
	<path class="cls-2" d="M199.26,40.64h.49v5.04h-.49v-5.04Z"/>
	<path class="cls-2" d="M201.18,40.64c.15.43.29.84.42,1.23.14.39.27.76.4,1.12.13.36.26.72.4,1.06.13.35.28.7.44,1.05.15-.35.29-.7.43-1.04.14-.35.27-.7.41-1.06.13-.36.27-.74.4-1.12s.27-.8.42-1.23h.52c-.22.64-.42,1.2-.6,1.68-.18.48-.34.91-.5,1.3s-.3.75-.43,1.07c-.14.33-.28.66-.43.99h-.46c-.15-.34-.29-.67-.43-1-.14-.33-.29-.69-.44-1.07-.15-.39-.32-.82-.5-1.3-.18-.48-.38-1.04-.6-1.67h.55Z"/>
	<path class="cls-2" d="M205.89,40.64h.49v5.04h-.49v-5.04Z"/>
	<path class="cls-2" d="M208.93,45.36c.39,0,.7-.07.92-.21.22-.14.33-.38.33-.7,0-.18-.04-.34-.11-.46s-.16-.23-.28-.31c-.12-.08-.25-.16-.4-.22-.15-.06-.31-.12-.47-.19-.21-.08-.4-.17-.56-.25s-.31-.18-.42-.29c-.12-.11-.21-.23-.27-.38s-.09-.31-.09-.5c0-.43.14-.76.43-.98.29-.22.68-.33,1.19-.33.14,0,.27,0,.4.03.13.02.25.04.37.08.11.03.22.07.31.11.09.04.17.08.24.12l-.17.42c-.14-.1-.31-.17-.51-.23-.2-.06-.42-.09-.65-.09-.16,0-.31.02-.44.05-.13.03-.25.08-.35.15-.1.07-.17.16-.23.27s-.08.24-.08.39.03.29.09.39c.06.11.14.2.24.28.1.08.23.15.37.21.14.06.29.13.46.2.2.08.39.17.56.25.18.08.33.18.46.29.13.11.24.25.31.41s.12.36.12.59c0,.46-.16.8-.48,1.03-.32.23-.75.34-1.29.34-.19,0-.37-.01-.53-.04-.16-.02-.3-.05-.43-.09-.13-.04-.23-.07-.32-.11s-.16-.07-.2-.1l.16-.43s.11.06.2.1.18.08.29.11c.11.04.24.07.38.09.14.02.3.04.47.04Z"/>
	<path class="cls-2" d="M211.75,40.64h.49v5.04h-.49v-5.04Z"/>
	<path class="cls-2" d="M218.23,43.15c0,.43-.06.81-.19,1.14-.13.33-.3.61-.51.83s-.47.39-.75.5c-.29.11-.59.17-.91.17s-.62-.06-.91-.17c-.29-.11-.54-.28-.75-.5-.22-.22-.39-.5-.51-.83-.13-.33-.19-.71-.19-1.14s.06-.81.19-1.14c.13-.33.3-.6.51-.82.22-.22.47-.39.75-.5s.59-.17.91-.17.62.06.91.17c.29.11.54.28.75.5s.39.5.51.82c.13.33.19.71.19,1.14ZM217.71,43.15c0-.34-.04-.64-.13-.91-.09-.27-.21-.5-.37-.69s-.35-.33-.58-.43-.48-.15-.76-.15-.53.05-.76.15-.42.24-.58.43-.28.42-.37.69c-.09.27-.13.57-.13.91s.04.64.13.91.21.5.37.69c.16.19.35.33.58.44.23.1.48.15.76.15s.54-.05.76-.15c.23-.1.42-.25.58-.44.16-.19.28-.42.37-.69s.13-.57.13-.91Z"/>
	<path class="cls-2" d="M222.92,45.68c-.09-.17-.21-.37-.35-.6-.14-.23-.3-.47-.47-.73-.17-.26-.35-.52-.54-.8-.19-.28-.38-.54-.56-.8-.19-.26-.37-.5-.55-.73-.18-.23-.34-.42-.48-.59v4.25h-.49v-5.04h.39c.25.28.51.6.8.96.28.36.56.73.83,1.11s.53.74.76,1.1c.24.36.43.67.58.94v-4.11h.49v5.04h-.42Z"/>
	<path class="cls-2" d="M231.12,43.15c0,.43-.06.81-.19,1.14-.13.33-.3.61-.51.83s-.47.39-.75.5c-.29.11-.59.17-.91.17s-.62-.06-.91-.17c-.29-.11-.54-.28-.75-.5-.22-.22-.39-.5-.51-.83-.13-.33-.19-.71-.19-1.14s.06-.81.19-1.14c.13-.33.3-.6.51-.82.22-.22.47-.39.75-.5s.59-.17.91-.17.62.06.91.17c.29.11.54.28.75.5s.39.5.51.82c.13.33.19.71.19,1.14ZM230.59,43.15c0-.34-.04-.64-.13-.91-.09-.27-.21-.5-.37-.69s-.35-.33-.58-.43-.48-.15-.76-.15-.53.05-.76.15-.42.24-.58.43-.28.42-.37.69c-.09.27-.13.57-.13.91s.04.64.13.91.21.5.37.69c.16.19.35.33.58.44.23.1.48.15.76.15s.54-.05.76-.15c.23-.1.42-.25.58-.44.16-.19.28-.42.37-.69s.13-.57.13-.91Z"/>
	<path class="cls-2" d="M232.37,45.68v-5.04h2.87v.43h-2.38v1.78h2.11v.43h-2.11v2.41h-.49Z"/>
	<path class="cls-2" d="M186.8,61.97v-10.7h6.1v.91h-5.05v3.77h4.48v.91h-4.48v5.11h-1.05Z"/>
	<path class="cls-2" d="M201.97,54.48c0,.8-.21,1.44-.63,1.9-.42.46-.98.8-1.67,1,.16.21.38.48.64.83.26.35.53.73.81,1.15s.55.85.82,1.3c.27.45.49.89.68,1.3h-1.13c-.22-.41-.45-.82-.7-1.24-.25-.41-.51-.81-.77-1.2-.26-.39-.52-.74-.76-1.07s-.46-.62-.65-.87c-.33.03-.66.05-.99.05h-1.73v4.32h-1.05v-10.5c.37-.1.81-.18,1.3-.22.5-.05.96-.07,1.38-.07,1.47,0,2.58.28,3.33.83.75.56,1.12,1.38,1.12,2.47ZM197.64,52.08c-.39,0-.73.01-1.03.04-.29.03-.54.05-.73.07v4.56h1.45c.48,0,.94-.02,1.37-.07.43-.05.81-.15,1.13-.31.32-.16.57-.39.76-.69.19-.3.28-.71.28-1.22,0-.47-.09-.87-.28-1.17-.19-.31-.43-.55-.73-.73-.3-.18-.64-.3-1.03-.37-.39-.07-.78-.1-1.2-.1Z"/>
	<path class="cls-2" d="M204.37,61.97v-10.7h6.18v.91h-5.13v3.72h4.57v.9h-4.57v4.26h5.53v.91h-6.58Z"/>
	<path class="cls-2" d="M215.24,61.29c.83,0,1.48-.15,1.95-.46.46-.3.69-.8.69-1.48,0-.39-.08-.72-.22-.98-.15-.26-.35-.48-.59-.67s-.53-.33-.85-.46-.65-.26-1-.41c-.44-.17-.84-.35-1.19-.54-.35-.18-.65-.39-.9-.62s-.44-.5-.56-.8c-.13-.3-.19-.65-.19-1.05,0-.92.3-1.61.91-2.08s1.45-.71,2.53-.71c.29,0,.57.02.85.06.28.04.54.09.78.16.24.07.46.14.66.22s.37.17.5.26l-.37.88c-.3-.21-.66-.37-1.09-.49-.43-.12-.89-.19-1.38-.19-.34,0-.65.03-.93.1-.28.07-.53.17-.73.32-.21.15-.37.34-.49.56-.12.23-.18.5-.18.82s.06.61.19.83.3.42.52.59c.22.17.48.31.78.45.3.13.62.27.97.42.42.18.82.35,1.2.53.38.17.7.38.98.62.28.24.5.53.66.87.16.34.25.76.25,1.25,0,.97-.34,1.69-1.01,2.18-.67.48-1.59.73-2.74.73-.41,0-.79-.03-1.13-.08s-.64-.12-.91-.19c-.27-.08-.49-.16-.68-.24-.19-.08-.33-.15-.43-.22l.34-.91c.1.06.24.13.42.22.17.08.38.16.62.24.24.08.5.14.8.19.3.05.63.08.99.08Z"/>
	<path class="cls-2" d="M227.78,51.27h1.05v10.7h-1.05v-5.14h-5.81v5.14h-1.05v-10.7h1.05v4.65h5.81v-4.65Z"/>
	<path class="cls-2" d="M237.43,61.29c.83,0,1.48-.15,1.95-.46.46-.3.69-.8.69-1.48,0-.39-.08-.72-.22-.98-.15-.26-.35-.48-.59-.67s-.53-.33-.85-.46-.65-.26-1-.41c-.44-.17-.84-.35-1.19-.54-.35-.18-.65-.39-.9-.62s-.44-.5-.56-.8c-.13-.3-.19-.65-.19-1.05,0-.92.3-1.61.91-2.08s1.45-.71,2.53-.71c.29,0,.57.02.85.06.28.04.54.09.78.16.24.07.46.14.66.22s.37.17.5.26l-.37.88c-.3-.21-.66-.37-1.09-.49-.43-.12-.89-.19-1.38-.19-.34,0-.65.03-.93.1-.28.07-.53.17-.73.32-.21.15-.37.34-.49.56-.12.23-.18.5-.18.82s.06.61.19.83.3.42.52.59c.22.17.48.31.78.45.3.13.62.27.97.42.42.18.82.35,1.2.53.38.17.7.38.98.62.28.24.5.53.66.87.16.34.25.76.25,1.25,0,.97-.34,1.69-1.01,2.18-.67.48-1.59.73-2.74.73-.41,0-.79-.03-1.13-.08s-.64-.12-.91-.19c-.27-.08-.49-.16-.68-.24-.19-.08-.33-.15-.43-.22l.34-.91c.1.06.24.13.42.22.17.08.38.16.62.24.24.08.5.14.8.19.3.05.63.08.99.08Z"/>
	<path class="cls-2" d="M252.72,56.61c0,.82-.11,1.55-.32,2.19-.22.64-.51,1.19-.88,1.65-.37.46-.81.83-1.31,1.11s-1.04.46-1.62.56c.04.29.17.54.39.74s.49.38.8.53c.31.14.66.26,1.04.35.38.09.75.16,1.11.21l-.22.88c-.39-.07-.81-.16-1.27-.27-.45-.11-.88-.26-1.29-.46-.41-.2-.76-.45-1.06-.75-.3-.3-.49-.69-.59-1.15-.66-.02-1.28-.15-1.87-.4-.59-.25-1.1-.6-1.54-1.07-.44-.47-.79-1.05-1.04-1.74-.26-.69-.39-1.48-.39-2.38s.13-1.72.4-2.42c.27-.7.63-1.28,1.09-1.75.46-.47.99-.82,1.6-1.06.61-.24,1.25-.36,1.93-.36s1.32.12,1.93.36c.61.24,1.14.59,1.6,1.06.46.47.82,1.05,1.09,1.75.27.69.4,1.5.4,2.42ZM251.61,56.61c0-.72-.09-1.37-.28-1.94-.19-.57-.45-1.06-.79-1.46s-.75-.71-1.23-.92-1.02-.32-1.61-.32-1.13.11-1.61.32c-.48.21-.89.52-1.23.92-.34.4-.6.89-.79,1.46-.19.57-.28,1.22-.28,1.94s.09,1.37.28,1.94c.19.57.45,1.06.79,1.46.34.4.75.71,1.23.93.48.22,1.02.32,1.61.32s1.14-.11,1.61-.32c.48-.22.89-.53,1.23-.93s.6-.89.79-1.46c.19-.57.28-1.22.28-1.94Z"/>
	<path class="cls-2" d="M258.93,62.2c-.71,0-1.31-.11-1.81-.32s-.9-.51-1.21-.9c-.31-.38-.53-.83-.67-1.34-.14-.51-.21-1.06-.21-1.64v-6.73h1.05v6.59c0,.59.07,1.09.21,1.52.14.43.33.78.58,1.06.25.28.55.48.9.62.35.13.74.2,1.17.2s.82-.07,1.17-.2.65-.34.9-.62c.25-.28.44-.63.58-1.06.14-.43.21-.93.21-1.52v-6.59h1.05v6.73c0,.59-.07,1.14-.21,1.64-.14.51-.36.96-.67,1.34-.31.38-.71.68-1.21.9-.5.22-1.1.32-1.81.32Z"/>
	<path class="cls-2" d="M265.57,61.97v-10.7h6.18v.91h-5.13v3.72h4.57v.9h-4.57v4.26h5.53v.91h-6.58Z"/>
	<path class="cls-2" d="M274.14,61.97v-10.7h6.18v.91h-5.13v3.72h4.57v.9h-4.57v4.26h5.53v.91h-6.58Z"/>
	<path class="cls-2" d="M289.19,52.22c-.25.29-.53.64-.86,1.05-.32.41-.67.86-1.04,1.35-.37.49-.75,1.01-1.13,1.56s-.77,1.11-1.14,1.67c-.38.56-.73,1.11-1.06,1.66s-.64,1.06-.9,1.54h6.3v.91h-7.44v-.79c.23-.44.5-.93.81-1.46.31-.53.65-1.08,1.01-1.64.36-.56.74-1.12,1.13-1.69.39-.57.78-1.11,1.16-1.63.38-.52.74-1,1.09-1.44.34-.44.66-.82.95-1.14h-5.85v-.91h6.99v.96Z"/>
	<path class="cls-2" d="M291.35,61.97v-10.7h6.18v.91h-5.13v3.72h4.57v.9h-4.57v4.26h5.53v.91h-6.58Z"/>
	<path class="cls-2" d="M308.42,56.61c0,.92-.14,1.71-.43,2.39s-.69,1.25-1.21,1.7c-.52.45-1.14.79-1.86,1.02-.72.23-1.51.34-2.38.34-.43,0-.89-.02-1.36-.07-.47-.05-.89-.12-1.25-.21v-10.31c.36-.1.78-.18,1.25-.22.47-.05.93-.07,1.36-.07.86,0,1.66.11,2.38.34.72.23,1.34.57,1.86,1.02.52.45.92,1.02,1.21,1.7.29.68.43,1.47.43,2.38ZM300.97,61.04c.06.01.22.03.47.06.25.03.66.05,1.21.05.77,0,1.45-.11,2.02-.32s1.06-.51,1.45-.9c.39-.39.68-.87.88-1.43.2-.56.29-1.19.29-1.89s-.1-1.33-.29-1.88c-.2-.56-.49-1.03-.88-1.42-.39-.39-.88-.69-1.45-.9s-1.25-.32-2.02-.32c-.56,0-.96.01-1.21.05-.25.03-.41.05-.47.06v8.85Z"/>
	<path class="cls-2" d="M314.28,51.27h1.05v10.7h-1.05v-10.7Z"/>
	<path class="cls-2" d="M326.6,56.61c0,.92-.14,1.71-.43,2.39s-.69,1.25-1.21,1.7c-.52.45-1.14.79-1.86,1.02-.72.23-1.51.34-2.38.34-.43,0-.89-.02-1.36-.07-.47-.05-.89-.12-1.25-.21v-10.31c.36-.1.78-.18,1.25-.22.47-.05.93-.07,1.36-.07.86,0,1.66.11,2.38.34.72.23,1.34.57,1.86,1.02.52.45.92,1.02,1.21,1.7.29.68.43,1.47.43,2.38ZM319.16,61.04c.06.01.22.03.47.06.25.03.66.05,1.21.05.77,0,1.45-.11,2.02-.32s1.06-.51,1.45-.9c.39-.39.68-.87.88-1.43.2-.56.29-1.19.29-1.89s-.1-1.33-.29-1.88c-.2-.56-.49-1.03-.88-1.42-.39-.39-.88-.69-1.45-.9s-1.25-.32-2.02-.32c-.56,0-.96.01-1.21.05-.25.03-.41.05-.47.06v8.85Z"/>
	<path class="cls-2" d="M328.95,61.97v-10.7h6.18v.91h-5.13v3.72h4.57v.9h-4.57v4.26h5.53v.91h-6.58Z"/>
	<path class="cls-2" d="M344.99,61.97c-.2-.53-.39-1.03-.56-1.52-.17-.48-.33-.96-.49-1.42h-5.23c-.18.46-.35.94-.52,1.42-.17.49-.35.99-.54,1.51h-1.1c.41-1.11.79-2.15,1.15-3.11.36-.96.72-1.87,1.06-2.73.35-.86.69-1.68,1.04-2.47.34-.79.7-1.58,1.08-2.38h.93c.38.79.74,1.58,1.07,2.38s.68,1.62,1.03,2.48c.35.86.7,1.77,1.06,2.73.36.96.75,2,1.18,3.11h-1.16ZM341.31,52.47c-.39.89-.76,1.79-1.13,2.71-.37.92-.75,1.9-1.14,2.96h4.57c-.4-1.06-.78-2.05-1.15-2.97-.37-.92-.75-1.82-1.14-2.7Z"/>
	<path class="cls-2" d="M350.23,61.29c.83,0,1.48-.15,1.95-.46.46-.3.69-.8.69-1.48,0-.39-.08-.72-.22-.98-.15-.26-.35-.48-.59-.67s-.53-.33-.85-.46-.65-.26-1-.41c-.44-.17-.84-.35-1.19-.54-.35-.18-.65-.39-.9-.62s-.44-.5-.56-.8c-.13-.3-.19-.65-.19-1.05,0-.92.3-1.61.91-2.08s1.45-.71,2.53-.71c.29,0,.57.02.85.06.28.04.54.09.78.16.24.07.46.14.66.22s.37.17.5.26l-.37.88c-.3-.21-.66-.37-1.09-.49-.43-.12-.89-.19-1.38-.19-.34,0-.65.03-.93.1-.28.07-.53.17-.73.32-.21.15-.37.34-.49.56-.12.23-.18.5-.18.82s.06.61.19.83.3.42.52.59c.22.17.48.31.78.45.3.13.62.27.97.42.42.18.82.35,1.2.53.38.17.7.38.98.62.28.24.5.53.66.87.16.34.25.76.25,1.25,0,.97-.34,1.69-1.01,2.18-.67.48-1.59.73-2.74.73-.41,0-.79-.03-1.13-.08s-.64-.12-.91-.19c-.27-.08-.49-.16-.68-.24-.19-.08-.33-.15-.43-.22l.34-.91c.1.06.24.13.42.22.17.08.38.16.62.24.24.08.5.14.8.19.3.05.63.08.99.08Z"/>
	<circle cx="104.58" cy="18.39" r="7.53" transform="translate(-1.59 16.99) rotate(-9.22)"/>
	<g>
		<path d="M97.49,72.13c.99-.47,1.99-.92,2.95-1.45,1.28-.7,2.52-1.47,3.72-2.3.34-.24.68-.48,1.02-.72.11-.08.21-.16.32-.24.47-.38.95-.76,1.41-1.16,1.1-.95,2.16-1.96,3.16-3.02.39-.41.76-.84,1.13-1.28v-29.42h-13.72v39.58Z"/>
		<circle cx="104.37" cy="18.5" r="7.52" transform="translate(-1.62 16.96) rotate(-9.22)"/>
		<path d="M88.01,38.99c-1.42-1.75-3.09-3.23-4.97-4.4-2.44-1.52-5.14-2.72-8.04-3.57-2.81-.83-5.43-1.7-7.79-2.6-2.31-.87-4.26-1.91-5.81-3.09-1.42-1.08-2.11-2.61-2.11-4.7,0-.77.1-1.49.27-2.14.14-.53.33-1.04.59-1.49.58-1.02,1.36-1.85,2.32-2.5.98-.65,2.1-1.14,3.33-1.44,1.26-.31,2.58-.46,3.93-.46,2.27,0,4.47.42,6.53,1.25,2.01.81,3.63,2.1,4.83,3.83l.55.8c.34-.3.69-.61,1.02-.92,1.15-1.11,2.24-2.29,3.25-3.53.07-.08.14-.17.22-.27.21-.27.43-.57.57-.76.4-.55.78-1.11,1.16-1.68.76-1.18,1.47-2.39,2.12-3.63.22-.43.31-.62.51-1.05,0,0,0-.01,0-.02h-.03c-2.61-2.25-5.53-3.92-8.72-4.95-6.47-2.1-13.63-2.23-20.26-.4-3.11.86-5.92,2.19-8.34,3.95-.5.36-.97.74-1.43,1.14-.85.74-1.63,1.54-2.35,2.41-.8.97-1.53,2.02-2.16,3.14-1.51,2.69-2.28,5.92-2.28,9.59,0,4.21.86,7.63,2.55,10.17.86,1.29,1.84,2.46,2.92,3.49,1.02.97,2.13,1.83,3.33,2.56,2.44,1.48,5.14,2.67,8.03,3.52,2.81.83,5.42,1.72,7.78,2.64.5.2.99.41,1.45.62,1.65.76,3.08,1.65,4.27,2.64.97,1,1.67,2.16,2.02,3.44.11.56.18,1.16.18,1.81,0,.94-.16,1.81-.45,2.61-.38.95-.96,1.84-1.71,2.61-1.87,1.6-4.33,2.8-6.94,3.23-.18.03-.36.07-.54.09-.34.03-.69.04-1.04.04-.45,0-.89-.03-1.32-.07-.41-.01-.82-.03-1.24-.07.25.04.49.09.74.13-.56-.08-1.12-.15-1.68-.23.31.04.63.07.94.1-1.05-.19-2.08-.45-3.08-.82.22.11.45.22.68.32-.5-.21-1.01-.42-1.51-.64.27.11.55.21.83.31-.57-.28-1.11-.6-1.64-.95.22.19.44.38.68.56-.43-.33-.85-.66-1.28-.99.2.15.4.29.6.42-1.03-.87-1.97-1.84-2.83-2.88.15.21.29.42.44.62-.33-.43-.66-.85-.99-1.28.18.23.36.44.54.66-1.2-1.66-2.24-3.42-3.24-5.22-1.21-2.19-2.75-4.23-4.44-6.07-.14-.15-.29-.3-.44-.45-1.44-1.44-2.92-2.71-4.43-3.83-.39-.29-.78-.56-1.17-.83-1.3-.86-2.65-1.63-4.03-2.29-3.24-1.56-6.66-2.83-10.21-3.47-3.85-.69-7.75-.81-11.66-.79-1.1,0-2.2.03-3.3.05V14.45h22.45c.36-.32.72-.63,1.06-.96,1.2-1.16,2.33-2.38,3.38-3.67.25-.31.97-1.44.22-.27.18-.28.4-.53.6-.8.41-.57.82-1.16,1.2-1.75.8-1.22,1.53-2.49,2.2-3.78.23-.45.45-.92.67-1.38H0v70.16h13.78v-26.53c2.45.12,4.67.25,6.69.44,1.5.03,3,.11,4.49.27-.28-.05-.57-.09-.85-.13l1.68.23c-.28-.04-.55-.06-.83-.09,2.26.37,4.48.99,6.62,1.82-.16-.07-.32-.16-.49-.23.5.21,1.01.42,1.51.64-.34-.14-.68-.28-1.02-.41,2.06.92,4.01,2.03,5.83,3.35-.2-.17-.4-.34-.6-.5.43.33.85.66,1.28.99-.22-.17-.45-.32-.68-.49,1.27,1.05,2.44,2.21,3.5,3.48-.12-.18-.24-.36-.37-.53.33.43.66.85.99,1.28-.2-.26-.41-.5-.62-.75,1.14,1.62,2.04,3.36,3.07,5.06,1.46,2.42,3.16,4.77,5.14,6.8,2.34,2.4,5.03,4.11,8.13,5.35.95.38,1.94.68,2.96.91,1.91.39,3.9.61,5.95.65,1.75.02,3.5-.13,5.25-.36,1.5-.23,2.96-.54,4.38-.97,1.06-.32,2.08-.69,3.06-1.12,1.9-.83,3.64-1.86,5.2-3.08,2.37-1.87,4.29-4.26,5.69-7.1,1.4-2.84,2.12-6.2,2.12-9.99,0-4.2-.86-7.64-2.55-10.22-.4-.61-.83-1.19-1.28-1.75ZM69.06,60.86c.24-.03.48-.08.72-.11.32-.03.64-.07.96-.11l-1.68.23Z"/>
		<path class="cls-1" d="M124.93,25.8c0-1.49.26-2.96.79-4.42.52-1.45,1.29-2.78,2.29-3.98,1-1.2,2.23-2.16,3.68-2.88,1.45-.72,3.11-1.08,4.97-1.08,2.21,0,4.09.51,5.65,1.52,1.56,1.01,2.72,2.31,3.49,3.89l-1.47.84c-.58-1.14-1.3-2.05-2.15-2.72-.85-.67-1.76-1.16-2.74-1.45-.98-.29-1.95-.44-2.93-.44-1.56,0-2.95.31-4.17.94-1.22.63-2.25,1.47-3.09,2.51-.84,1.05-1.47,2.21-1.9,3.49-.43,1.28-.65,2.57-.65,3.87,0,1.47.26,2.86.77,4.17.51,1.31,1.22,2.48,2.11,3.51.9,1.02,1.94,1.84,3.14,2.44,1.2.61,2.5.91,3.89.91,1,0,2.02-.17,3.05-.51,1.04-.34,2.01-.86,2.91-1.57.91-.71,1.64-1.63,2.2-2.77l1.54.73c-.54,1.23-1.34,2.28-2.41,3.14-1.07.86-2.26,1.51-3.56,1.95-1.3.44-2.59.66-3.87.66-1.68,0-3.22-.37-4.64-1.1-1.42-.73-2.65-1.71-3.68-2.93-1.04-1.22-1.83-2.59-2.39-4.12-.56-1.52-.84-3.07-.84-4.62Z"/>
		<path class="cls-1" d="M149.81,13.62l8.66,11.24,8.62-11.24h2.06l-9.7,12.57,9.42,12.22h-2.06l-8.34-10.89-8.38,10.89h-2.09l9.42-12.22-9.7-12.57h2.09Z"/>
	</g>
</svg>