<?xml version="1.0" ?>
<svg xmlns="http://www.w3.org/2000/svg" viewBox="0 0 500 76" fill="none">
	<path d="M10.1502 43.0006V41.2689C10.1502 39.8744 10.6366 38.6876 11.6225 37.7017C12.6083 36.7159 13.8017 36.223 15.2026 36.223H34.1864C38.3697 36.223 41.9499 34.7442 44.9074 31.7802C47.8584 28.8162 49.3437 25.2491 49.3437 21.0593V17.7191C49.201 16.8046 48.9675 15.8966 48.6756 15.021C45.77 6.36902 36.1581 0 24.7821 0C11.1231 0 0 9.19032 0 20.495H10.3383C10.3383 14.9821 16.9538 10.3253 24.7821 10.3253C32.6104 10.3253 39.0313 14.8329 39.2259 20.2356V21.0463C39.2259 22.4472 38.7394 23.6406 37.7536 24.6264C36.7613 25.6123 35.5744 26.1052 34.1735 26.1052H15.1896C11.0452 26.1052 7.48457 27.5839 4.5076 30.5479C1.53064 33.5054 0.0454003 37.0791 0.0454003 41.2689V43.0006V53.1054H52.7098V43.0006H10.1502Z" fill="#003399"/>
	<path d="M72.0828 20.7998C57.0553 20.7998 44.875 32.9801 44.875 48.0076C44.875 63.0351 57.0553 75.2154 72.0828 75.2154C87.1103 75.2154 99.2905 63.0351 99.2905 48.0076C99.2905 32.9801 87.1103 20.7998 72.0828 20.7998ZM72.0828 66.706C61.7574 66.706 53.3843 58.3329 53.3843 48.0076C53.3843 37.6823 61.7574 29.3092 72.0828 29.3092C82.4081 29.3092 90.7812 37.6823 90.7812 48.0076C90.7812 58.3329 82.4081 66.706 72.0828 66.706Z" fill="#003399"/>
	<path d="M72.0828 50.3165C69.3134 50.3165 67.3871 51.938 64.702 52.3855V55.0446C67.3936 54.5971 69.3134 52.9757 72.0828 52.9757C74.8523 52.9757 76.7785 54.5971 79.4636 55.0446V52.3855C76.7785 51.938 74.8523 50.3165 72.0828 50.3165ZM67.0564 45.8089L64.6956 44.9982V42.339C67.3871 41.8915 69.3069 40.2701 72.0763 40.2701C74.8458 40.2701 76.772 41.8915 79.4571 42.339V44.9982C76.7656 44.5507 74.8458 42.9292 72.0763 42.9292C70.7987 42.9292 69.6961 43.273 68.6194 43.6881L71.1035 44.5377C70.5457 44.6026 70.0204 44.7258 69.521 44.8815L67.4325 44.1615C67.0239 44.3237 66.6153 44.4793 66.1873 44.622L68.2498 45.329C68.0228 45.4198 67.7957 45.5106 67.5687 45.6014C67.3936 45.6727 67.225 45.7376 67.0564 45.8089ZM67.0564 50.8289L64.6956 50.0182V47.359C67.3871 46.9115 69.3069 45.2901 72.0763 45.2901C74.8458 45.2901 76.772 46.9115 79.4571 47.359V50.0182C76.7656 49.5707 74.8458 47.9492 72.0763 47.9492C70.7987 47.9492 69.6961 48.293 68.6194 48.7081L71.1035 49.5577C70.5457 49.6225 70.0204 49.7458 69.521 49.9014L67.4325 49.1815C67.0239 49.3437 66.6153 49.4993 66.1873 49.642L68.2498 50.3489C68.0228 50.4397 67.7957 50.5306 67.5687 50.6214C67.3936 50.6927 67.225 50.7576 67.0564 50.8289Z" fill="#003399"/>
	<path d="M57.8594 48.9999L59.0592 49.882L58.6052 48.4551L59.8246 47.573H58.3199L57.8594 46.1397L57.3924 47.5795H55.8877L57.107 48.4551L56.653 49.882L57.8594 48.9999Z" fill="#003399"/>
	<path d="M63.7289 37.6239L64.9353 36.7418L66.1416 37.6239L65.6812 36.197L66.907 35.3214H65.3958L64.9353 33.8816L64.4683 35.3214H62.9636L64.1894 36.2035L63.7289 37.6239Z" fill="#003399"/>
	<path d="M70.8051 35.7236L72.0115 34.8415L73.2178 35.7236L72.7573 34.2967L73.9831 33.4211H72.472L72.0115 31.9813L71.551 33.4211H70.0398L71.2656 34.2967L70.8051 35.7236Z" fill="#003399"/>
	<path d="M79.1003 33.8816L78.6398 35.3214H77.1287L78.3545 36.2035L77.894 37.6239L79.1003 36.7418L80.3067 37.6239L79.8462 36.2035L81.072 35.3214H79.5608L79.1003 33.8816Z" fill="#003399"/>
	<path d="M83.0629 42.793L84.2693 41.911L85.4756 42.793L85.0151 41.3727L86.2345 40.4906H84.7298L84.2693 39.0508L83.8088 40.4971L82.2976 40.4906L83.5234 41.3727L83.0629 42.793Z" fill="#003399"/>
	<path d="M88.1155 47.5601H86.6108L86.1438 46.1202L85.6833 47.5601H84.1721L85.3979 48.4357L84.9439 49.8625L86.1438 48.9805L87.3501 49.8625L86.8961 48.4357L88.1155 47.5601Z" fill="#003399"/>
	<path d="M84.7298 54.6685L84.2693 53.2286L83.8088 54.6685H82.2976L83.5234 55.5505L83.0629 56.9709L84.2693 56.0888L85.4756 56.9709L85.0151 55.5505L86.241 54.6685H84.7298Z" fill="#003399"/>
	<path d="M79.5413 59.8571L79.0808 58.4172L78.6138 59.8571H77.1091L78.3349 60.7326L77.8745 62.1595L79.0808 61.2774L80.2872 62.1595L79.8267 60.7326L81.0525 59.8571H79.5413Z" fill="#003399"/>
	<path d="M72.472 61.7315L72.0115 60.2916L71.551 61.7379H70.0398L71.2656 62.6135L70.8051 64.0404L72.0115 63.1583L73.2178 64.0339L72.7573 62.6135L73.9831 61.7315H72.472Z" fill="#003399"/>
	<path d="M65.4022 59.8571L64.9417 58.4172L64.4813 59.8571H62.9766L64.1959 60.7326L63.7419 62.1595L64.9417 61.2774L66.1481 62.1595L65.6941 60.7326L66.9134 59.8571H65.4022Z" fill="#003399"/>
	<path d="M60.2137 54.6685L59.7532 53.2286L59.2927 54.6685H57.7815L59.0073 55.5505L58.5468 56.9709L59.7532 56.0888L60.9595 56.9709L60.499 55.5505L61.7248 54.6685H60.2137Z" fill="#003399"/>
	<path d="M59.7533 39.0702L59.2928 40.51H57.7881L59.0074 41.3856L58.5534 42.8125L59.7533 41.9304L60.9596 42.8125L60.4991 41.3856L61.7249 40.51H60.2138L59.7533 39.0702Z" fill="#003399"/>
	<path d="M165.692 21.8246V32.3445H136.81V43.526H161.91V54.0589H136.81V74.4047H125.233V21.8246H165.685H165.692ZM218.479 74.4047L205.618 55.6219C212.318 53.1509 216.89 47.826 216.89 39.3362V39.174C216.89 28.3623 209.444 21.8311 197.044 21.8311H172.969V74.4047H184.552V57.5871H193.658L204.937 74.4047H218.479ZM205.164 39.9264C205.164 44.3627 201.934 47.3785 196.285 47.3785H184.552V32.2732H196.058C201.701 32.2732 205.164 34.8156 205.164 39.7837V39.9329V39.9264ZM251.764 75.2154C267.978 75.2154 279.75 63.0027 279.75 48.1244V47.9623C279.75 33.0645 268.115 21.0204 251.907 21.0204C235.718 21.0204 223.94 33.2136 223.94 48.1244V48.2541C223.94 63.1714 235.576 75.2154 251.764 75.2154ZM267.68 48.2541C267.68 57.2434 261.22 64.5658 251.907 64.5658C242.619 64.5658 236.01 57.1007 236.01 48.1244V47.9623C236.01 38.986 242.476 31.6506 251.771 31.6506C261.071 31.6506 267.687 39.1481 267.687 48.1244V48.2541H267.68ZM336.183 74.4047V21.8311H324.761V54.208L300.128 21.8311H289.466V74.4047H300.887V40.9706L326.331 74.4047H336.183ZM388.97 32.4937V21.8311H345.282V32.4937H361.309V74.4112H372.925V32.4937H388.964H388.97ZM421.302 58.5211C411.82 58.5211 407.701 62.5163 396.863 63.768V74.4047C410.639 72.9973 411.437 69.1577 421.302 69.1577C427.93 69.1577 433.917 73.4059 445.74 74.4047V63.768C434.325 62.4514 431.251 58.5211 421.308 58.5211H421.302ZM445.747 32.4937V21.8571C434.332 20.5405 431.257 16.6101 421.315 16.6101H421.308C411.826 16.6101 407.708 20.6053 396.87 21.8571V32.4937L406.916 37.5591C407.241 37.4553 407.571 37.3451 407.889 37.2413C409.018 36.8716 410.127 36.5149 411.262 36.1841L402.357 31.696C404.173 31.3457 405.684 30.9436 407.027 30.535L416.055 35.088C417.65 34.8351 419.369 34.6794 421.308 34.6794C421.659 34.6794 422.002 34.6794 422.34 34.6924L411.242 29.0952C414.116 28.0704 416.742 27.2467 421.315 27.2467C427.943 27.2467 433.93 31.4949 445.753 32.4937H445.747ZM445.747 53.4492V42.8126C434.332 41.4959 431.257 37.5656 421.315 37.5656H421.308C411.826 37.5656 407.714 41.5608 396.883 42.8061H396.87V53.4362L396.883 53.4427L406.91 58.5016C407.234 58.3978 407.565 58.2876 407.883 58.1838C409.011 57.8141 410.12 57.4574 411.255 57.1266L402.363 52.645C404.179 52.2947 405.691 51.8926 407.033 51.484L416.048 56.0305C417.644 55.7776 419.363 55.6219 421.302 55.6219C421.652 55.6219 421.996 55.6219 422.333 55.6349L411.242 50.0442C414.109 49.0194 416.736 48.2022 421.302 48.2022C427.93 48.2022 433.917 52.4504 445.74 53.4492H445.747ZM500 74.4047L481.665 47.5212L499.254 21.8311H486.101L475.665 38.7136L463.907 21.8311H450.377L467.967 47.6704L449.632 74.4047H462.785L475.549 56.3937L486.464 74.4047H499.993H500Z" fill="#003399"/>
</svg>