<?xml version="1.0" ?>
<svg xmlns="http://www.w3.org/2000/svg" viewBox="0 0 1511 145">
	<defs>
		<clipPath clipPathUnits="userSpaceOnUse" id="cp1">
			<path d="m-189.24-4713.98h3521.72v4983.27h-3521.72z"/>
		</clipPath>
		<linearGradient id="g1" x1="156.7" y1="144.7" x2="156.7" y2="58.3" gradientUnits="userSpaceOnUse">
			<stop offset="0" stop-color="#00b2ed"/>
			<stop offset=".1" stop-color="#00b2ed"/>
			<stop offset="1" stop-color="#0646a5"/>
		</linearGradient>
	</defs>
	<style>
		.s0 { fill: #2c2e35 } 
		.s1 { fill: url(#g1) } 
		.s2 { fill: #0646a5 } 
		.s3 { fill: #ff2e24 } 
	</style>
	<g id="Clip-Path: Page 1" clip-path="url(#cp1)">
		<g id="Page 1">
			<path id="Path 9" fill-rule="evenodd" class="s0" d="m411.9 90.3c0 6.5 1.5 10.6 8.6 10.6 2.6 0 5.6-0.9 7.7-2.7 1.1-1.1 2-2.6 2-5.6v-15.4c0-6.2-0.9-6.2-3.5-7.4l-1.2-0.6v-2c3.8 0 8.9-0.6 10.9-1.8l0.9 0.9c-0.3 1.8-0.3 4.7-0.3 8v16c0 7.4 0.3 10.3 3 10.3q1.8 0 3.8-0.6v2.7c-3.8 0.9-9.4 2.1-12.7 3.5l-0.9-0.6v-3.8q0-1.5-0.9-1.5c-2.9 1.8-7.3 5-13 5-8.2 0-11.5-4.1-11.5-11.8v-15.7c0-5.9 0-6.8-2.7-8l-1.1-0.6v-2c4.4 0 8.2-0.9 10.3-1.8l0.9 0.9c-0.3 1.5-0.3 3.5-0.3 8zm99.1 0c0 6.5 1.7 10.9 8.8 10.9 2.4 0 5.6-0.9 7.7-2.9 1.2-0.9 1.8-2.4 1.8-5.4v-15.3c0-6.3-0.6-6.6-3.6-7.4l-1.1-0.6v-2.1c3.8 0 9.1-0.9 11.2-1.8l0.9 0.6c-0.3 1.8-0.3 4.7-0.3 8.3v16c0 7.4 0.3 10 2.9 10q1.5 0 3.6-0.3v2.7c-3.8 0.6-9.2 2.1-12.4 3.6l-1.2-0.6v-3.9q0-1.5-0.9-1.5c-2.7 1.8-7.4 5.1-13 5.1-8.3 0-11.2-4.2-11.2-11.9v-15.7c0-5.9 0-6.8-3-7.9l-0.9-0.6v-2.1c4.2 0 8-0.9 10.1-1.8l0.9 0.6c0 1.8-0.3 3.9-0.3 8.3zm731.2 0c0 6.5 1.5 10.9 8.9 10.9 2.3 0 5.3-1.1 7.4-2.9 1.5-1.2 2-2.4 2-5.3v-15.7c0-5.9-0.5-6.2-3.5-7.4l-1.2-0.3v-2.1c3.9-0.3 9.2-0.9 11-1.8l0.8 0.6c0 1.8-0.3 4.8-0.3 8.3v16c0 7.4 0.3 10 3 10q1.8 0 3.8-0.2v2.6c-3.8 0.6-9.1 1.8-12.4 3.6l-1.2-0.9v-3.9q0-1.2-0.8-1.2c-3 1.8-7.4 4.8-13.1 4.8-8.2 0-11.5-4.2-11.5-11.6v-15.9c0-6 0-6.8-2.6-8l-1.2-0.3v-2.1c4.4-0.3 8.3-0.9 10.3-1.8l0.9 0.6c-0.3 1.8-0.3 3.6-0.3 8.3zm-786.2-38.5c0-5.6 0-5.9-3-7.7l-0.9-0.5v-1.8c2.4-0.9 6.8-2.4 10.4-4.2l0.9 0.6c0 3-0.3 7.7-0.3 11.9v31.3c0 1.2 0 1.2 1.7 1.2 2.1 0 3.9-0.9 6.2-3.5l3.9-4.2c2.6-2.9 3.5-3.8 3.5-4.4 0-1.2-0.9-1.5-2-1.8h-2.4v-2.4h17.1v2.4l-2.9 0.6c-1.8 0.3-3.3 1.2-5.9 3.3-3.6 2.9-6.8 6.2-8.6 7.6-1.2 1.2-1.2 1.8-0.6 2.4 1.5 2.1 3.3 4.2 6.2 7.7 3.9 4.2 7.1 7.7 8.9 9.5 1.5 1.2 3.2 1.8 5 2l1.2 0.3v2.4h-18.9v-2.4l1.5-0.3q2.3-0.2 2.3-0.8c0-0.6-0.3-1.2-1.5-2.7l-10-11.8c-0.9-0.9-2.1-1.2-3-1.2-1.7 0-1.7 0.3-1.7 3.2v5.1c0 6.8 0.3 7.7 3.5 8.2l2.4 0.3v2.4h-18.7v-2.4l2.1-0.3c3.6-0.2 3.6-1.4 3.6-8.2zm146.3 0c0-5.7 0-6.3-2.9-7.7l-0.9-0.6v-2.1c2.4-0.6 6.8-2.1 10-3.8l1.2 0.6c-0.3 2.6-0.3 7.3-0.3 11.5v31.7c0 1.1 0 1.1 1.5 1.1 2.1 0 3.8-0.8 6.5-3.5l3.9-4.2c2.6-2.9 3.2-3.8 3.2-4.7 0-0.9-0.6-1.2-2.1-1.5h-2v-2.3h17.1v2.3l-2.9 0.3c-1.8 0.6-3.6 1.5-6 3.6-3.5 2.6-6.8 6.2-8.5 7.7-1.2 1.2-1.2 1.5-0.6 2.3 1.5 2.1 2.9 3.9 6.2 7.4 3.5 4.5 7.1 8 8.9 9.8 1.4 1.2 3.2 1.8 5 2.1l1.2 0.3v2.3h-19.2v-2.3l1.7-0.3q2.4-0.3 2.4-0.9c0-0.6-0.3-1.5-1.5-2.7l-10-11.8c-0.9-0.9-2.1-1.2-3-1.2-1.8 0-1.8 0.3-1.8 3v5.3c0 6.8 0 7.7 3.6 8.3l2 0.3v2.3h-18.3v-2.3l2.1-0.3c3.5-0.6 3.5-1.5 3.5-8.3zm-32.9 53.5c-10.9 0-19.7-8.9-19.7-19.9 0-11.1 8.8-20 19.7-20 10.8 0 19.6 8.9 19.6 20 0 11-8.8 19.9-19.6 19.9zm-0.8-36.9c-6.2 0-10.6 5.9-10.6 16.2 0 8.6 3.8 17.8 12.1 17.8 8.3 0 10.6-8.6 10.6-16 0-8-2.9-18-12.1-18zm96.4 15.9c1.5-0.3 1.5-1.1 1.5-2.6l0.3-4.2c0-3.5-1.2-8.3-7.1-8.3-2.7 0-5.6 1.2-5.9 4.2 0 1.5-0.3 2.7-0.9 3.2-1.5 1.2-4.1 1.8-5.3 1.8q-1.5 0-1.5-1.2c0-5 10.6-11.8 17.4-11.8 6.8 0 10.1 4.1 9.8 11.2l-0.3 16.3c-0.3 4.5 0.6 8.3 4.1 8.3 0.9 0 1.8-0.3 2.4-0.6q0.9-0.6 1.2-0.9l0.9 1.5c-0.6 0.6-3.6 4.1-8 4.1-2.4 0-4.4-0.8-6.2-2.9-0.3-0.6-0.9-1.2-1.5-1.2q-0.9 0-3.5 1.8c-2.1 1.2-4.2 2.3-6.8 2.3-3 0-5.1-0.8-6.8-2-1.8-1.8-3-4.2-3-6.8 0-3.6 1.8-5.9 8-8zm-5.9 16.6c1.7 0 4.7-1.5 5.9-2.4 0.9-1.2 1.2-2.4 1.2-4.5v-5.6c0-0.9-0.3-1.2-0.9-1.2-0.6 0-2.1 0.6-3.9 1.2-5.6 1.8-8.2 3.3-8.2 6.8 0 1.8 1.1 5.7 5.9 5.7zm196.6-16.6c1.5-0.3 1.5-1.2 1.5-2.7l0.3-4.4c0-3.6-1.2-8-7.1-8-2.7 0-5.6 1.2-5.9 4.1 0 1.5-0.3 2.7-0.9 3.3-1.5 0.9-4.2 1.8-5.3 1.8q-1.5 0-1.5-1.5c0-4.8 10.6-11.6 17.4-11.6 6.8 0 10.1 3.9 10.1 11l-0.6 16.6c-0.3 4.1 0.6 8.2 4.1 8.2 0.9 0 1.8-0.2 2.4-0.5q0.9-0.6 1.2-0.9l0.9 1.4c-0.6 0.6-3.6 4.2-8 4.2-2.4 0-4.5-0.9-6.2-3-0.3-0.6-0.9-1.4-1.5-1.4-0.6 0-1.8 0.8-3.6 2-2 0.9-4.4 2.4-6.8 2.4-2.9 0-5-0.9-6.8-2.4-1.7-1.5-2.9-3.8-2.9-6.5 0-3.8 1.8-5.9 8-8zm-5.9 16.6c2 0 4.7-1.5 5.9-2.4 0.9-1.2 1.2-2.3 1.2-4.4v-5.6c0-0.9-0.3-1.2-0.9-1.2-0.6 0-2.1 0.3-3.9 0.9-5.6 2-8.3 3.2-8.3 7.1 0 1.5 1.2 5.6 6 5.6zm164.7-16.6c1.4-0.6 1.4-1.5 1.4-2.6l0.3-4.5c0-3.5-1.2-8.3-7.1-8.3-2.6 0-5.6 1.5-5.9 4.5 0 1.5-0.3 2.3-0.9 2.9-1.4 1.2-4.1 1.8-5.3 1.8q-1.5 0-1.5-1.2c0-5 10.7-11.5 17.5-11.5 6.8 0 10.3 3.8 10 10.9l-0.6 16.6c-0.3 4.1 0.6 8 4.2 8 0.9 0 1.8-0.3 2.3-0.6q0.9-0.3 1.2-0.6l0.9 1.2c-0.6 0.9-3.5 4.1-8 4.1-2.3 0-4.4-0.8-6.2-2.9-0.3-0.3-0.9-1.2-1.5-1.2-0.5 0-1.7 0.9-3.5 1.8-2.1 1.2-4.1 2.3-6.8 2.3-3 0-5-0.6-6.8-2-1.8-1.5-2.7-3.9-2.7-6.5 0-3.9 1.8-6 7.7-8zm-5.9 16.5c2.1 0 4.7-1.4 5.9-2.3 0.9-1.2 1.2-2.7 1.2-4.5v-5.6c0-1.2-0.3-1.2-0.9-1.2-0.6 0-2.1 0.3-3.8 0.9-5.6 1.8-8.3 3.3-8.3 7.1 0 1.5 1.2 5.6 5.9 5.6zm-244.5-24.2c0-3.6 0-4.2-2.4-5.9l-0.9-0.6v-1.5c2.1-0.9 7.7-3.3 9.8-4.8l0.9 0.6c0 3.3-0.3 7.7-0.3 11.6v17.1c0 6.9 0.3 7.7 3.5 8.3h2.1v2.4h-18.1v-2.4h1.8c3.6-0.6 3.6-1.4 3.6-8.3zm26.9 0c0-3.8 0-4.1-2.7-5.9l-0.9-0.6v-1.7c2.1-0.6 7.7-3 9.5-4.5 0.6 0 0.9 0 1.2 0.6-0.3 2.1-0.3 3.6-0.3 4.5 0 0.5 0.3 1.1 1.2 1.1 3.8-2.6 8.2-5 13-5 8 0 11.2 5.3 11.2 11.8v16.3c0 6.8 0 7.7 3.6 8l2 0.3v2.4h-18v-2.4l1.8-0.3c3.5-0.3 3.5-1.2 3.5-8v-14.2c0-5.3-2.4-9.2-8.9-9.2-3.5 0-6.8 1.5-7.9 3.3-1.2 1.5-1.5 3-1.5 5.6v14.5c0 6.8 0.3 7.4 3.5 8l1.8 0.3v2.4h-17.7v-2.4l1.7-0.3c3.6-0.3 3.9-1.2 3.9-8zm92.2 0c0-3.8 0-4.1-2.6-5.9l-0.9-0.6v-1.8c2.1-0.6 7.7-3.2 9.4-4.4 0.6 0 0.9 0 1.2 0.6-0.3 2.1-0.3 3.5-0.3 4.4 0 0.6 0.3 0.9 1.2 0.9 3.9-2.4 8.3-4.7 13-4.7 8 0 11.3 5.3 11.3 11.8v16c0 6.8 0 8 3.5 8.3l2.1 0.3v2.3h-18.1v-2.3l1.8-0.3c3.6-0.6 3.6-1.5 3.6-8.3v-13.9c0-5.3-2.4-9.5-8.9-9.5-3.6 0-6.8 1.8-8 3.6-1.2 1.4-1.5 2.6-1.5 5.6v14.2c0 6.8 0.3 7.7 3.6 8.3l1.8 0.3v2.3h-17.8v-2.3l1.8-0.3c3.5-0.3 3.8-1.5 3.8-8.3zm76-9.8c0.9 0.9 1.5 2.4 1.5 3.9 0 1.7-0.9 3.5-2.1 3.5q-0.9 0-1.4-0.6c-2.1-2.6-5.4-5-9.2-5-6.8 0-13 5-13 15.1 0 7.4 5 16.3 15.1 16.3 5.3 0 8.2-2.7 10.3-5.9l1.8 1.4c-3.3 6.8-10.4 9.5-15.7 9.5-5 0-9.7-1.5-13-4.7-3.3-3.3-5.3-7.7-5.3-13.9 0-10.1 7.1-21.1 22.7-21.1 2.1 0 6 0.6 8.3 1.5zm451.8 9.8c0-3.6 0-3.9-2.3-5.6l-0.9-0.6v-1.8c2.1-0.6 7.4-3.3 9.5-4.7 0.3 0 0.8 0.3 0.8 0.9q0 3.1 0 4.4 0 0.9 0.9 0.9c4.2-2.4 8.6-4.8 13.3-4.8 7.7 0 11 5.4 11 11.6v16.3c0 6.8 0.3 7.7 3.5 8.2l2.1 0.3v2.4h-18v-2.4l1.7-0.3c3.6-0.5 3.9-1.4 3.9-8.2v-13.9c0-5.4-2.7-9.5-8.9-9.5-3.5 0-6.8 1.5-8 3.2-1.5 1.8-1.5 3-1.5 5.7v14.5c0 6.8 0 7.7 3.6 8.2l1.8 0.3v2.4h-18.1v-2.4l2.1-0.3c3.5-0.5 3.5-1.4 3.5-8.2zm76.3-9.8c0.6 0.6 1.5 2.1 1.5 3.8 0 1.8-1.2 3.6-2.1 3.6q-0.8 0-1.4-0.9c-2.1-2.4-5.7-4.7-9.5-4.7-6.5 0-13 5-13 15.1 0 7.4 5 15.9 15.4 15.9 5.3 0 8.2-2.3 10.3-5.6l1.8 1.5c-3.3 6.8-10.4 9.5-16 9.5-4.7 0-9.4-1.5-12.7-4.8-3.2-3.2-5.6-7.7-5.6-13.9 0-10.3 7.1-21 22.8-21 2.3 0 5.9 0.3 8.5 1.5zm-438.8 26.3c0 6.8 0.3 7.7 3.6 8.3l2.3 0.3v2.4h-18.6v-2.4l2.1-0.3c3.5-0.6 3.5-1.5 3.5-8.3v-41.7c0-5.6 0-5.9-2.6-7.7l-1.2-0.6v-2c2.3-0.6 6.8-2.1 10.3-3.9l0.9 0.6c0 3-0.3 7.7-0.3 11.8zm91.1 0.9c0 3.6 0.6 5.9 2.4 6.5v1.2c-1.2 0-3 0.6-4.8 0.9-4.4 1.2-11.5 2.4-16.8 2.4-20.4 0-33.4-13.9-33.4-32 0-21.9 15.9-33.1 34.6-33.1 5.3 0 10 1.2 11.5 1.4 1.8 0.6 4.7 1.2 5.9 0.9 0 3.3 0.6 8 1.2 13.6l-2.4 0.3c-2.3-9.1-8.6-13.6-18.3-13.6-12.1 0-22.2 11.6-22.2 28.1 0 21.1 9.8 31.4 23.4 31.4 9.1 0 11.2-2.4 11.2-8v-3.8c0-8-0.3-8.6-5.9-9.2l-4.1-0.6v-2.4h23.3v2.4l-1.5 0.3c-3.8 0.6-4.1 3.3-4.1 8zm19.8-17.5c0-3.5 0-4.1-2.7-5.9l-0.8-0.6v-1.5c2.3-0.8 7.4-3.2 9.7-4.7q0.6 0 0.9 0.6c0 0.4 0 6.2 0 6.2 3.6-2.6 7.1-5.6 10.7-5.6 2 0 4.1 1.5 4.1 3.8 0 3.3-2.7 4.5-4.1 4.5-0.9 0-1.5-0.3-2.1-0.6-1.5-1.2-2.7-1.5-4.2-1.5-1.4 0-2.6 0.6-3.2 1.8-1.2 1.2-1.2 4.1-1.2 7.1v13c0 6.8 0 7.7 3.6 8l3.5 0.3v2.4h-19.5v-2.4l1.8-0.3c3.5-0.3 3.5-1.2 3.5-8zm45.1 28.7c-10.9 0-19.7-8.9-19.7-20 0-11 8.8-19.9 19.7-19.9 10.9 0 19.7 8.9 19.7 19.9 0 11.1-8.8 20-19.7 20zm-0.7-37c-6.2 0-10.7 5.9-10.7 16.3 0 8.6 3.9 17.8 12.1 17.8 8.3 0 11-8.6 11-16 0-8-3.3-18.1-12.4-18.1zm80.7 8.6c0-3.5 0-4.1-2.7-5.9l-0.9-0.6v-1.5c2.7-1.2 7.1-3.5 9.5-5.3q0.9 0 1.2 0.9-0.3 2.3-0.3 4.1c0 0.6 0 1.2 0.9 1.2 1.2-0.6 7.1-4.4 13-4.4 9.4 0 15.7 8 15.7 17.4 0 13-9.5 22.5-23.1 22.5-1.5 0-4.1-0.3-5-0.3-0.9 0-1.5 0.6-1.5 2.7v9.7c0 6.9 0.3 7.7 3.5 8l3.9 0.6v2.4h-19.8v-2.4l2-0.3c3.3-0.6 3.6-1.4 3.6-8.3zm6.8 17.5c0 3.3 1.2 4.1 2.9 5.6 1.8 1.5 4.8 2.1 6.8 2.1 7.7 0 12.2-7.1 12.2-16.9 0-7.4-4.2-15.1-12.7-15.1-3.9 0-6.8 1.5-8 2.7-0.9 0.9-1.2 2.4-1.2 5.3zm-931.4-38.4c0-9.8-0.3-11.3-6-11.9l-1.1-0.3v-2.3h41.1v12.7h-2.1c-0.6-4.2-1.8-7.4-6.5-8.9-2.1-0.6-5.3-0.6-9.2-0.6h-5.9c-2.7 0-2.7 0.3-2.7 3.9v19.8c0 2.7 0.3 2.7 3 2.7h6.5c3.8 0 6.8-0.3 8-0.6 0.9-0.3 1.8-0.9 2.4-3.3l0.8-3.8h2.4v18.6h-2.4l-0.8-3.6c-0.6-1.7-1.5-3.2-3.3-3.5-1.2-0.6-3.6-0.6-7.1-0.6h-6.5c-2.7 0-3 0-3 2.7v13c0 9.8 0 11.2 5.7 11.8l3.2 0.3v2.4h-23.6v-2.4l1.1-0.3c5.7-0.6 6-2 6-11.8zm356.3 0c0-10.1 0-11.3-5.7-11.8l-1.1-0.3v-2.4h41.1v12.7h-2.1c-0.6-4.1-2.1-7.7-6.5-8.9-2.4-0.6-5.3-0.6-9.2-0.6h-5.9c-2.7 0-2.7 0.3-2.7 3.9v19.8c0 2.7 0.3 2.7 3 2.7h6.5c3.9 0 6.8-0.3 8-0.6 0.9-0.6 1.8-0.9 2.4-3.6l0.8-3.5h2.4v18.6h-2.4l-0.8-3.8c-0.6-1.5-1.5-3-3.3-3.6-1.2-0.3-3.5-0.3-7.1-0.3h-6.5c-2.7 0-3 0-3 2.4v13.3c0 9.8 0 11.3 5.7 11.9h3.2v2.3h-23.6v-2.3h1.1c5.7-0.6 5.7-2.1 5.7-11.9zm50.8 1.8c-2.6 0-4.7-2.2-4.7-4.9 0-2.7 2.1-4.9 4.7-4.9 2.6 0 4.8 2.2 4.8 4.9 0 2.7-2.2 4.9-4.8 4.9zm207.6 19.2c0-3.8 0-4.1-2.4-5.9l-0.9-0.6v-1.8c2.1-0.5 7.7-3.2 9.8-4.4l0.9 0.6c0 3.3-0.3 7.7-0.3 11.5v17.2c0 6.5 0.3 7.7 3.5 8l2.1 0.3v2.4h-18v-2.4l1.8-0.3c3.5-0.3 3.5-1.5 3.5-8zm3-19.2c-2.7 0-4.8-2.2-4.8-4.9 0-2.7 2.1-4.9 4.8-4.9 2.6 0 4.7 2.2 4.7 4.9 0 2.7-2.1 4.9-4.7 4.9zm361.9 43.8c0 7.7-5.6 11.8-12.1 13.9-0.9-0.3-1.2-1.8-0.6-2.4 2.9-0.9 7.7-3.3 7.7-8.3 0-3.8-4.5-5-5.4-5.3-1.1-0.6-1.4-1.8-1.4-3 0-2 1.4-4.1 4.4-4.1 3.5 0 7.4 2.9 7.4 9.2zm42.9-45.6c0-10.1-0.3-11.5-5.7-12.1h-2.3v-2.4h23.9v2.4h-2.3c-5.7 0.6-5.9 2-5.9 12.1v33.7c0 9.8 0.2 11.3 5.9 11.9l2.3 0.3v2.3h-23.9v-2.3l2.3-0.3c5.4-0.6 5.7-2.1 5.7-11.9zm123.1 49.1c-2.8 0-5.2-2.3-5.2-5.3 0-2.9 2.4-5.3 5.2-5.3 2.9 0 5.2 2.4 5.2 5.3 0 3-2.3 5.3-5.2 5.3z"/>
			<path id="Path 12" class="s1" d="m262.6 13.9c21.6 2.1 34.6 8.6 34.6 19.8 0 40.9-107.7 72.2-199.3 77.9-45.6 2.6-69.2-6.8-69.2-26.1 0-9.4 8.9-18.9 23.3-27.5v-9.8c-30.1 14.2-51.1 32.3-51.1 54.5 0 24.8 29.6 42.9 80.4 42 91.4-1.5 231.2-53.3 231.2-107.4 0-19-18.3-27.5-49.9-29.6z"/>
			<path id="Path 13" fill-rule="evenodd" class="s2" d="m252.8 66c-6.5 2.7-16.2 4.4-24.5 4.4-24.6 0-43.8-11.5-43.8-34.6 0-22.5 18.9-35.8 43.2-35.8 6.2 0 12.7 0.9 18.6 2.4v14.5h-0.6c-3.8-3.3-10-6-17.4-6-13.9 0-22.2 9.2-22.2 22.8 0 16 9.5 26.1 22.2 26.1 1.8 0 3.2 0 4.7-0.6v-13.3c0-6.2-1.2-8.3-4.4-10.1v-0.3h24.2zm-187.2-50.3c0-7.1-0.5-11.5-5-13.3v-0.6h50.9c1.8 0 3.8 0 5-0.6h0.6v14.8h-0.6c-1.8-3.8-5.3-4.1-13.9-4.1h-15.1v18.9h18.4c1.7 0 3.2-0.3 4.4-0.6h0.6v14.2h-0.6c-1.5-3-4.1-3.5-10.4-3.5h-12.4v13c0 9.4 1.2 12.1 5.1 14.8v0.6h-32v-0.6c4.5-1.8 5-6.5 5-13.3zm63.6 0c0-7.1-0.6-11.6-4.7-13.4v-0.6h50.6c1.7 0 3.8 0 5-0.8h0.6v15.1h-0.6c-1.8-3.9-5-4.2-13.9-4.2h-15.1v18.9h18.3c1.8 0 3.3-0.2 4.5-0.5h0.6v14.2h-0.6c-1.5-3-4.2-3.6-10.4-3.6h-12.4v13c0 9.5 1.2 12.2 5.3 14.8v0.6h-31.9v-0.6c4.1-1.7 4.7-6.5 4.7-13.3z"/>
			<path id="Path 14" class="s3" d="m252.8 35.5v-9.2l-24.2 8.9v0.3z"/>
		</g>
	</g>
</svg>