<?xml version="1.0" ?>
<!-- Generator: Adobe Illustrator 27.5.0, SVG Export Plug-In . SVG Version: 6.00 Build 0)  -->
<svg xmlns="http://www.w3.org/2000/svg" version="1.2" baseProfile="tiny-ps" viewBox="0 0 741 741" xml:space="preserve">
	<path fill="#FFFFFF" d="M0,0h741v741H0V0z"/>
	<path fill-rule="evenodd" d="M269,342h13.7v-12.2c0-8.3,2.1-14,6.3-17.7c4.3-3.6,10.9-5.1,19.5-5.1c2.3,0,5.1,0.2,7.9,0.3v12.7  c-14.5-1-18.3,1.3-18.3,10.4V342h18.2v12h-18.2v76.5h-15.4v-76.5H269L269,342L269,342L269,342z M382.7,430.6v-12.4h-0.3  c-6.3,8.7-14,14.3-26.8,14.3c-18.3,0-30.1-11-30.1-29.5v-61h15.4v60.2c0,11.2,7.1,17.8,19.3,17.8c13.6,0,22.3-10.4,22.3-24.1v-53.9  h15.4v88.5L382.7,430.6L382.7,430.6L382.7,430.6z M422.2,354.6h0.5c6.5-8.9,15.2-14.7,28.1-14.7c18.5,0,29.9,10.4,29.9,28.9v61.8  h-15.2v-60c0-11.4-7.4-17.8-19.5-17.8c-13.7,0-23.6,9.7-23.6,23.9v53.9H407V342h15.2V354.6z M505.6,354.6  c6.5-8.9,15.2-14.7,28.1-14.7c18.5,0,29.9,10.4,29.9,28.9v61.8h-15.2v-60c0-11.4-7.4-17.8-19.5-17.8c-13.7,0-23.6,9.7-23.6,23.9  v53.9h-15.4V342H505v12.5H505.6L505.6,354.6z M588.7,378.9h51.4c-0.8-17-9.6-27.2-24.9-27.2C599.8,351.7,590.7,363.3,588.7,378.9  L588.7,378.9z M572.7,386.4c0-25.7,17-46.5,42.5-46.5c13.2,0,23.5,5.1,30.4,13.7c7.3,8.7,10.9,21.4,10.9,36.4h-68.1  c1.2,17.3,10.6,30.5,27.8,30.5c12.2,0,20.6-5.8,23.5-15.2h15c-4,16.5-18.2,27.7-38.7,27.7C588.7,433,572.7,412.3,572.7,386.4  L572.7,386.4L572.7,386.4z M665.6,430.6H681V307.9h-15.4V430.6L665.6,430.6z"/>
	<path fill-rule="evenodd" fill="#FB5C65" d="M153,278c-51.4,0-93,41.6-93,93s41.6,93,93,93c51.4,0,93-41.6,93-93S204.3,278,153,278z   M153,449.6c-43.4,0-78.6-35.2-78.6-78.6s35.2-78.6,78.6-78.6c43.4,0,78.6,35.2,78.6,78.6S196.4,449.6,153,449.6z"/>
	<path fill="#FB5C65" d="M118.5,394.2c12.8,0,23.2-10.4,23.2-23.2s-10.4-23.2-23.2-23.2c-12.8,0-23.2,10.4-23.2,23.2  S105.7,394.2,118.5,394.2z M164.7,388.2c9.5,0,17.2-7.7,17.2-17.2s-7.7-17.2-17.2-17.2s-17.2,7.7-17.2,17.2S155.2,388.2,164.7,388.2  z M199.2,382.5c6.4,0,11.5-5.2,11.5-11.5s-5.2-11.5-11.5-11.5c-6.4,0-11.5,5.2-11.5,11.5S192.8,382.5,199.2,382.5z"/>
</svg>