<svg xmlns="http://www.w3.org/2000/svg"  zoomAndPan="magnify" viewBox="0 0 187.5 30.750001" preserveAspectRatio="xMidYMid meet" version="1.0"><defs><clipPath id="88ee644887"><path d="M 164 5 L 183.519531 5 L 183.519531 25 L 164 25 Z M 164 5 " clip-rule="nonzero"/></clipPath><clipPath id="893e9b5716"><path d="M 0.507812 0 L 28 0 L 28 11 L 0.507812 11 Z M 0.507812 0 " clip-rule="nonzero"/></clipPath><clipPath id="9fe0f9a1a4"><path d="M 5 21 L 23 21 L 23 30.503906 L 5 30.503906 Z M 5 21 " clip-rule="nonzero"/></clipPath><clipPath id="722316a727"><path d="M 0.507812 12 L 28 12 L 28 20 L 0.507812 20 Z M 0.507812 12 " clip-rule="nonzero"/></clipPath></defs><path fill="#ffffff" d="M 33.636719 7.679688 L 33.636719 14.464844 L 41.734375 14.464844 L 41.734375 16.199219 L 33.636719 16.199219 L 33.636719 24.347656 L 31.808594 24.347656 L 31.808594 5.945312 L 42.125 5.945312 L 42.125 7.679688 Z M 33.636719 7.679688 " fill-opacity="1" fill-rule="nonzero"/><path fill="#ffffff" d="M 45 18.089844 L 45 5.945312 L 46.828125 5.945312 L 46.828125 18.089844 C 46.828125 21.007812 48.628906 22.875 51.789062 22.875 C 54.949219 22.875 56.753906 21.007812 56.753906 18.089844 L 56.753906 5.945312 L 58.582031 5.945312 L 58.582031 18.089844 C 58.582031 22.113281 55.785156 24.660156 51.789062 24.660156 C 47.792969 24.660156 45 22.109375 45 18.089844 Z M 45 18.089844 " fill-opacity="1" fill-rule="nonzero"/><path fill="#ffffff" d="M 76.078125 5.945312 L 76.078125 24.34375 L 74.511719 24.34375 L 64.328125 9.363281 L 64.328125 24.34375 L 62.5 24.34375 L 62.5 5.945312 L 64.066406 5.945312 L 74.25 20.929688 L 74.25 5.945312 Z M 76.078125 5.945312 " fill-opacity="1" fill-rule="nonzero"/><path fill="#ffffff" d="M 93.839844 5.945312 L 93.839844 24.34375 L 92.273438 24.34375 L 82.085938 9.363281 L 82.085938 24.34375 L 80.257812 24.34375 L 80.257812 5.945312 L 81.824219 5.945312 L 92.011719 20.929688 L 92.011719 5.945312 Z M 93.839844 5.945312 " fill-opacity="1" fill-rule="nonzero"/><path fill="#ffffff" d="M 108.726562 22.613281 L 108.726562 24.347656 L 98.019531 24.347656 L 98.019531 5.945312 L 108.597656 5.945312 L 108.597656 7.679688 L 99.847656 7.679688 L 99.847656 14.199219 L 107.945312 14.199219 L 107.945312 15.9375 L 99.847656 15.9375 L 99.847656 22.613281 Z M 108.726562 22.613281 " fill-opacity="1" fill-rule="nonzero"/><path fill="#ffffff" d="M 122.046875 22.613281 L 122.046875 24.347656 L 111.863281 24.347656 L 111.863281 5.945312 L 113.691406 5.945312 L 113.691406 22.613281 Z M 122.046875 22.613281 " fill-opacity="1" fill-rule="nonzero"/><path fill="#ffffff" d="M 134.167969 24.34375 L 128.316406 15.828125 L 128.316406 24.34375 L 124.136719 24.34375 L 124.136719 5.945312 L 128.316406 5.945312 L 128.316406 13.9375 L 133.902344 5.945312 L 138.65625 5.945312 L 132.496094 14.910156 L 138.917969 24.347656 L 134.167969 24.347656 Z M 134.167969 24.34375 " fill-opacity="1" fill-rule="nonzero"/><path fill="#ffffff" d="M 140.488281 5.945312 L 144.664062 5.945312 L 144.664062 24.34375 L 140.488281 24.34375 Z M 140.488281 5.945312 " fill-opacity="1" fill-rule="nonzero"/><path fill="#ffffff" d="M 162.164062 5.945312 L 162.164062 24.34375 L 159.03125 24.34375 L 151.980469 14.355469 L 151.980469 24.34375 L 147.800781 24.34375 L 147.800781 5.945312 L 150.933594 5.945312 L 157.984375 15.933594 L 157.984375 5.945312 Z M 162.164062 5.945312 " fill-opacity="1" fill-rule="nonzero"/><g clip-path="url(#88ee644887)"><path fill="#ffffff" d="M 183.398438 15.671875 C 183.398438 21.296875 179.507812 24.714844 174.386719 24.714844 C 168.640625 24.714844 164.515625 20.457031 164.515625 15.171875 C 164.515625 9.835938 168.71875 5.578125 174.101562 5.578125 C 177.597656 5.578125 180.550781 7.3125 182.09375 9.785156 L 178.539062 11.835938 C 177.78125 10.625 176.136719 9.679688 174.074219 9.679688 C 170.992188 9.679688 168.695312 11.964844 168.695312 15.199219 C 168.695312 18.328125 170.886719 20.613281 174.441406 20.613281 C 176.871094 20.613281 178.460938 19.535156 179.113281 17.777344 L 174.230469 17.777344 L 174.230469 14.097656 L 183.398438 14.097656 Z M 183.398438 15.671875 " fill-opacity="1" fill-rule="nonzero"/></g><g clip-path="url(#893e9b5716)"><path fill="#e8c50e" d="M 26.246094 0.222656 L 19.761719 4.476562 C 19.03125 4.957031 18.058594 4.808594 17.496094 4.136719 L 14.191406 0.179688 C 13.988281 -0.0625 13.617188 -0.0585938 13.417969 0.183594 L 10.203125 4.117188 C 9.644531 4.800781 8.667969 4.953125 7.929688 4.472656 L 1.410156 0.222656 C 1.074219 0.00390625 0.628906 0.246094 0.628906 0.648438 L 0.628906 8.179688 C 0.628906 9.390625 1.605469 10.371094 2.808594 10.371094 L 24.851562 10.371094 C 26.054688 10.371094 27.027344 9.390625 27.027344 8.179688 L 27.027344 0.648438 C 27.027344 0.246094 26.582031 0.00390625 26.246094 0.222656 Z M 26.246094 0.222656 " fill-opacity="1" fill-rule="nonzero"/></g><g clip-path="url(#9fe0f9a1a4)"><path fill="#e8c50e" d="M 21.164062 21.785156 C 22 21.785156 22.441406 22.777344 21.886719 23.40625 L 16.941406 29.015625 C 15.175781 31.019531 12.0625 30.992188 10.328125 28.960938 L 5.871094 23.738281 C 5.214844 22.96875 5.757812 21.785156 6.761719 21.785156 Z M 21.164062 21.785156 " fill-opacity="1" fill-rule="nonzero"/></g><g clip-path="url(#722316a727)"><path fill="#e8c50e" d="M 27.027344 14.460938 L 27.027344 15.351562 C 27.027344 16.136719 26.742188 16.898438 26.222656 17.488281 L 24.839844 19.058594 C 24.4375 19.515625 23.855469 19.777344 23.246094 19.777344 L 4.367188 19.777344 C 3.746094 19.777344 3.15625 19.503906 2.75 19.027344 L 1.410156 17.457031 C 0.921875 16.886719 0.652344 16.160156 0.640625 15.40625 L 0.628906 14.484375 C 0.609375 13.289062 1.570312 12.3125 2.757812 12.3125 L 24.898438 12.3125 C 26.074219 12.3125 27.027344 13.269531 27.027344 14.460938 Z M 27.027344 14.460938 " fill-opacity="1" fill-rule="nonzero"/></g></svg>