<?xml version="1.0" ?>
<svg xmlns="http://www.w3.org/2000/svg" viewBox="0 0 1561 689">
	<style>
		.s0 { fill: #0f6cb5 } 
		.s1 { fill: #aac52a } 
		.s2 { fill: #e31119 } 
		.s3 { fill: #ffffff } 
	</style>
	<g id="g859">
		<g id="g857">
			<g id="g876">
				<path id="path839" fill-rule="evenodd" class="s0" d="m343.8 1c139 0 264.4 83.7 317.6 212.1 53.2 128.4 23.8 276.2-74.5 374.5-98.4 98.2-246.2 127.6-374.7 74.5-128.4-53.2-212.2-178.5-212.2-317.5 0-45.1 8.9-89.8 26.2-131.5 17.3-41.7 42.6-79.5 74.5-111.5 31.9-31.9 69.8-57.2 111.5-74.4 41.7-17.3 86.4-26.2 131.6-26.2z"/>
				<path id="path841" fill-rule="evenodd" class="s1" d="m343.8 68.9c111.6 0 212.2 67.1 254.9 170.2 42.6 103 19 221.6-59.8 300.5-78.9 78.8-197.6 102.4-300.7 59.7-103.1-42.7-170.3-143.2-170.3-254.7 0-36.2 7.2-72.1 21-105.5 13.9-33.5 34.2-63.9 59.8-89.5 25.6-25.6 56-45.9 89.5-59.7 33.5-13.9 69.4-21 105.6-21z"/>
				<path id="path843" fill-rule="evenodd" class="s2" d="m236.9 315.1l103.9-98.1 104 98.1v137.8h-207.9z"/>
				<path id="path845" fill-rule="evenodd" class="s3" d="m490.2 295.7v202.5h-298.7v-202.5l14.4-13.6 103.9-98.1 31-29.3 31.1 29.3 103.9 98.1zm-45.4 19.4l-103.9-98.1-103.9 98.1v137.9h207.8z"/>
				<g id="g855">
					<path id="path847" fill-rule="evenodd" class="s0" d="m1096 88.3l-37.8 64.1h74.4c16.2 0 31.7 6.4 43.1 17.9 11.5 11.4 17.9 26.9 17.9 43.1 0 16.1-6.4 31.6-17.9 43.1-11.4 11.4-26.9 17.8-43.1 17.8h-246.1c-3 5.6-49.9 93.4-49.9 93.4l-25.9-13.7c0 0 17.3-32.3 24.2-45.2-34.5 8.7-70.6-5.9-89.3-36.2-18.7-30.2-15.6-69 7.6-95.9 23.3-26.9 61.3-35.7 93.9-21.6 32.7 14.1 52.4 47.7 48.8 83 0 0-0.3 3.6-0.7 6.9h237.3c8.5 0 16.5-3.3 22.5-9.3 6-5.9 9.3-14 9.3-22.4 0-8.4-3.3-16.5-9.3-22.5-6-5.9-14-9.3-22.5-9.3h-122.9l53.3-93.3zm-256.1 190c5.3-2.2 10-5.4 14.1-9.4 4-4 7.2-8.8 9.4-14.1 2.1-5.2 3.3-10.9 3.3-16.6 0-17.5-10.6-33.3-26.9-40-16.2-6.7-34.8-2.9-47.2 9.5-12.4 12.4-16.1 31-9.4 47.2 6.8 16.2 22.6 26.8 40.1 26.8 5.7-0.1 11.4-1.2 16.6-3.4zm719.4-125.5v121.6h-322.2v-186.1h29.3v156.6h70.5v-92h28.4v92h68.2v-92h28.8v92h67.8v-92z"/>
					<g id="g853">
						<path id="path849" fill-rule="evenodd" class="s0" d="m837.1 486.2q4.5 2.8 8.7 6.1 4.2 3.3 8 7 3.8 3.8 7.2 7.9 2.4 3.7 4.2 7.7 1.8 4.1 3 8.3 1.1 4.3 1.6 8.7 0.5 4.4 0.4 8.8c0.5 8-0.6 16.1-3.5 23.7-2.8 7.5-7.2 14.4-12.9 20.1-5.8 5.7-12.6 10.1-20.2 12.9-7.6 2.8-15.6 4-23.7 3.4q-4.6 0.1-9.2-0.5-4.5-0.6-8.9-1.8-4.4-1.3-8.6-3.3-4.2-2-8-4.6-3.8-2.8-7.2-6.1-3.4-3.3-6.2-7.1-2.9-3.8-5.2-7.9-2.2-4.2-3.9-8.6l-2.8-6.8 29.3-15.6 2.9 9.6q0.6 2.4 1.6 4.7 1 2.2 2.4 4.3 1.3 2 2.9 3.9 1.7 1.8 3.6 3.3 2 1.4 4.1 2.5 2.1 1.1 4.4 1.8 2.3 0.8 4.7 1.1 2.3 0.3 4.7 0.2 2.8 0.2 5.6-0.2 2.8-0.3 5.4-1.3 2.7-1 5-2.4 2.4-1.5 4.4-3.5 2-2.2 3.4-4.8 1.5-2.6 2.4-5.4 0.9-2.8 1.3-5.8 0.4-2.9 0.2-5.9 0.1-2.2-0.2-4.3-0.2-2.2-0.8-4.3-0.7-2.1-1.6-4.1-0.9-2-2.2-3.8-2.6-2.7-5.5-5.2-2.8-2.4-5.9-4.6-3.1-2.2-6.4-4-3.3-1.9-6.8-3.4-5.3-2.5-10.4-5.5-5.1-2.9-9.9-6.3-4.9-3.4-9.3-7.2-4.5-3.9-8.6-8.1-2.7-3.2-4.8-6.9-2-3.7-3.4-7.7-1.3-4-2-8.1-0.7-4.2-0.6-8.4-0.1-5.2 0.8-10.2 1-5.1 3-9.9 2-4.7 4.9-9 3-4.2 6.8-7.7c4.5-3.8 9.6-6.9 15-9.2 5.4-2.4 11.1-3.9 17-4.5 5.8-0.7 11.7-0.4 17.5 0.7 5.8 1.1 11.4 3 16.6 5.7q3.1 1.8 5.9 4 2.8 2.2 5.2 4.8 2.5 2.5 4.5 5.4 2.1 2.9 3.8 6l3.6 6.9-26.8 16-4-7.7q-0.7-1.3-1.5-2.5-0.8-1.2-1.8-2.2-0.9-1-2.1-1.9-1.1-0.9-2.3-1.6-1.5-0.8-3-1.4-1.6-0.5-3.2-0.9-1.6-0.4-3.3-0.5-1.6-0.2-3.3-0.1-2-0.2-4.1 0.1-2 0.3-4 1-1.9 0.6-3.7 1.7-1.8 1.1-3.3 2.5-1.4 1.5-2.5 3.2-1 1.8-1.7 3.7-0.7 1.9-1 4-0.3 2-0.1 4.1c0 11.2 14.4 21.2 26.4 27.4l8.7 4.5q4.8 2.3 9.3 5.1zm431.9-80.3q3.8 1.7 7.5 3.6 3.6 1.9 7 4.2 3.5 2.3 6.7 4.8l3.2 2.5-0.5 39.4-13.3-11.4q-2.8-2.5-5.7-4.7-3-2.2-6.1-4.1-3.1-2-6.4-3.6-3.2-1.7-6.6-3.1-3.2-1.2-6.4-2.1-3.2-0.9-6.5-1.5-3.3-0.6-6.6-0.9-3.3-0.3-6.7-0.3c-4.6-0.2-9.2 0.1-13.8 0.8-4.6 0.8-9.1 2-13.4 3.6-4.3 1.7-8.4 3.8-12.3 6.3-3.9 2.5-7.5 5.5-10.8 8.7-3.2 3.4-6.1 7.1-8.6 11.1-2.5 4-4.6 8.2-6.2 12.6-1.7 4.4-2.9 8.9-3.6 13.5-0.7 4.7-1 9.3-0.8 14q-0.1 3.7 0.2 7.4 0.3 3.6 0.9 7.3 0.6 3.6 1.5 7.2 0.9 3.5 2.2 7 1.1 3.1 2.6 6 1.5 3 3.3 5.8 1.8 2.7 3.9 5.3 2.1 2.6 4.4 4.9 2.3 2.4 4.9 4.5 2.5 2.1 5.3 3.9 2.7 1.8 5.6 3.4 2.9 1.5 6 2.8 3.2 1.2 6.4 2.2 3.3 0.9 6.6 1.5 3.4 0.6 6.7 0.9 3.4 0.3 6.8 0.3 3.5 0 6.9-0.3 3.5-0.3 6.9-0.9 3.4-0.6 6.8-1.5 3.3-0.9 6.6-2.1 3.4-1.2 6.7-2.8 3.3-1.5 6.5-3.3 3.1-1.8 6.2-3.8 3-2 5.8-4.3l13.3-10.5v40.6l-3.9 2.4q-3.5 2.1-7.1 4-3.7 1.9-7.4 3.5-3.7 1.6-7.6 3.1-3.8 1.4-7.7 2.5-3.8 1.1-7.7 2-3.8 0.9-7.8 1.4-3.9 0.6-7.8 0.9-4 0.3-7.9 0.3-5.2 0-10.3-0.4-5.1-0.5-10.1-1.4-5-0.9-9.9-2.3-5-1.4-9.7-3.3-4.7-1.8-9.1-4-4.4-2.3-8.5-5-4.2-2.6-8.1-5.7-3.8-3.1-7.4-6.6-3.5-3.5-6.6-7.3-3.2-3.8-5.9-7.9-2.7-4.1-5-8.5-2.3-4.4-4-9-1.9-4.8-3.3-9.8-1.4-4.9-2.3-10-0.9-5.1-1.3-10.2-0.5-5.2-0.4-10.3 0-5.2 0.4-10.3 0.5-5.1 1.4-10.2 0.9-5 2.3-10 1.4-4.9 3.3-9.7 1.8-4.6 4.1-9 2.3-4.3 5-8.5 2.7-4.1 5.9-7.9 3.1-3.8 6.7-7.3 3.5-3.4 7.4-6.4 3.9-3 8-5.6 4.2-2.7 8.6-4.9 4.4-2.2 9-4 4.7-1.8 9.6-3.3 4.9-1.4 9.9-2.3 5-0.9 10.1-1.4 5-0.5 10.1-0.5 4.4 0 8.7 0.3 4.3 0.3 8.6 0.9 4.3 0.7 8.5 1.7 4.2 0.9 8.3 2.3c2.7 0.8 5.3 1.8 7.8 2.8zm286.7 63.9q1.5 4.8 2.4 9.7 1 4.9 1.5 9.9 0.5 5.1 0.4 10.1 0.1 5-0.4 10-0.5 5-1.5 9.9-1 4.9-2.4 9.7-1.5 4.7-3.5 9.3-1.9 4.7-4.3 9.1-2.4 4.4-5.3 8.5-2.8 4.2-6 8-3.2 3.9-6.8 7.4-3.7 3.5-7.6 6.7-4 3.1-8.3 5.9-4.2 2.8-8.7 5.1-4.5 2.4-9.2 4.3c-12.5 5-25.9 7.6-39.4 7.6-13.5 0-26.8-2.7-39.3-7.8-12.5-5-23.9-12.5-33.6-21.9-9.6-9.4-17.4-20.6-22.8-32.9-2.6-6.2-4.5-12.6-5.9-19.1-1.3-6.6-1.9-13.3-1.9-19.9 0-6.7 0.6-13.4 1.9-19.9 1.4-6.6 3.3-13 5.9-19.2q1.9-4.6 4.3-9 2.4-4.5 5.3-8.6 2.8-4.2 6.1-8.1 3.2-3.9 6.8-7.4 3.5-3.5 7.4-6.7 3.9-3.2 8.1-5.9 4.2-2.7 8.7-5 4.4-2.4 9.1-4.2c6.3-2.5 12.9-4.3 19.6-5.6 6.6-1.2 13.4-1.9 20.2-1.9 6.8 0 13.6 0.7 20.3 1.9 6.7 1.3 13.2 3.1 19.6 5.6q4.6 1.9 9.1 4.2 4.4 2.3 8.6 5 4.2 2.8 8.1 5.9 3.9 3.1 7.5 6.7 3.6 3.6 6.8 7.4 3.2 3.9 6.1 8.1 2.8 4.1 5.2 8.6 2.5 4.4 4.4 9 2 4.7 3.5 9.5zm-29.5 36.7c0.7-7 0.4-14-1-20.8-1.3-6.8-3.6-13.4-6.9-19.6-3.2-6.2-7.4-11.8-12.2-16.8q-2.5-2.4-5.1-4.6-2.6-2.2-5.5-4.1-2.9-1.9-5.9-3.5-3-1.6-6.2-3-6.4-2.5-13.1-3.8-6.8-1.4-13.7-1.4-6.9 0-13.7 1.3-6.8 1.3-13.2 3.9-3.1 1.3-6.1 3-3 1.6-5.9 3.5-2.8 1.9-5.5 4.1-2.6 2.1-5.1 4.5-2.4 2.5-4.6 5.2-2.2 2.7-4.1 5.6-1.9 2.9-3.6 6-1.7 3.1-3 6.3-2.6 6.4-3.9 13.3-1.4 6.9-1.4 13.9 0 6.9 1.4 13.8 1.3 6.9 3.9 13.3 1.3 3.3 2.9 6.3 1.7 3.1 3.6 6 1.9 2.9 4.1 5.6 2.2 2.7 4.7 5.1c6.4 6.6 14.1 11.8 22.6 15.4 8.5 3.6 17.6 5.4 26.8 5.4 9.2 0 18.4-1.8 26.9-5.4 8.5-3.6 16.2-8.8 22.6-15.4q2.4-2.4 4.6-5.1 2.2-2.7 4.2-5.6 1.9-2.9 3.5-6 1.6-3 3-6.3c2.6-6.4 4.3-13.2 4.9-20.1z"/>
						<path id="path851" fill-rule="evenodd" class="s0" d="m1088.9 596.3h-35.5l-22.7-60.2h-61.6c-2.5 6.4-23.6 60.2-23.6 60.2h-34.3l84-198.4h13.3zm-69.8-90.6c-3.8-9.5-12.8-32.4-18.6-47.1-6 14.6-15.3 37.5-19.3 47.1z"/>
					</g>
				</g>
			</g>
		</g>
	</g>
</svg>