<?xml version="1.0" ?>
<svg xmlns="http://www.w3.org/2000/svg" version="1.2" viewBox="0 0 1528 495">
	<style>
		.s0 { fill: #3f54f5 } 
		.s1 { fill: #ff6e14 } 
		.s2 { fill: #ed9ff3 } 
		.s3 { fill: #000000 } 
	</style>
	<path id="Layer" class="s0" d="m521.3 231.9c-3.5-63.3-56.5-107-59.3-108.4 0.3 1.2 0.6 2.1 0.6 2.3 5.5 21.4 11.1 76.2 11.1 76.2 4 36.6-16.9 67.5-68.5 88.6-20.9 8.5-55.4 19.9-78.9 33.9-15.2 8.9-25.6 21.3-30.3 51.1-2.2 14.5-3.3 37.3-2.7 61.7 0.5 16.4-1.6 60.5 43.7 57.3 45.2-3.3 108.6-49.4 149.9-118.8 22.9-38.7 37.5-86.7 34.4-143.9z"/>
	<path id="Layer" class="s1" d="m462.6 125.8c0 0-1.7-6.1-2-7.2-27.2-95.3-73.7-114.7-139-118.3-87.6-5.1-179.8 59.5-239 118.3-14.2 14.3-26.6 28.1-36.4 40.6-70.1 89.2-51.1 168.7-4.3 216.3 13.5 13.8 29.4 24.8 46.2 32.7 20.1 9.2 41.6 14.1 61.5 13.1 36.9-2.1 55.5-23.8 68.4-39.4 1.8-2.1 5.2-6.4 5.2-6.4-1.8 0-5.7 0.1-5.8 0.1-56.9-0.4-98.1-40.4-101.8-109.4-1.8-28.4 6.7-56.6 23.9-79.2 27.1-36.6 77.4-60.8 149.1-66.9 68.8-5.8 114.7 9.1 142.3 25.4 23 13.4 38.9 35.4 43 56.2v0.2c-0.8-4.8-5.8-54.7-11.3-76.1z"/>
	<path id="Layer" class="s2" d="m149.6 421.3c-19.9 1.2-41.4-3.7-61.5-13.1 0 0 0 0-0.1 0 28.2 43.4 73.2 81.4 131.3 86.2 30.2 2.5 52.8-12.6 54.3-55.1 1-30.4-0.3-51.3-6.6-63.7-4.3-8.6-10.8-13-20.5-13.8-9.9-0.7-16.5 5.5-23.5 13.7 0 0-3.4 4.1-5.2 6.4-12.7 15.6-31.3 37.3-68.2 39.4z"/>
	<path id="Layer" fill-rule="evenodd" class="s3" d="m613.8 233.1l-2.2-41.5h11.3c5.8 27.8 21.4 46.8 45.8 46.8 18.2 0 30-9.3 30-25.1 0-16.5-10.3-23.8-38.2-33.1-30-9.7-47.7-23.8-47.7-52.5 0-31.2 23.8-51.9 57.9-51.9 21.1 0 39.1 5.5 51.2 14.1v36.3h-10.1c-5-25.1-18.2-40-40.9-40-15.8 0-26.2 9.4-26.2 23.8 0 16.4 9.7 22.7 34.8 31.4 32.1 10.8 52.3 23.3 52.3 55.1 0 35.2-28.5 52.3-63 52.3-23.6 0-44-6.9-55-15.7zm232.7-17.4c0 7-0.1 12.5 8.8 11.9 5.3-0.4 11.6-4.7 13.1-5.8 2.1-12.3 12-20.7 22.7-26.8-13.2-5.9-22.7-17.1-22.7-34.3 0-28.1 23.3-44.6 54.8-44.6 9.1 0 15.7 1.5 21.8 3.4l41.8-0.9v14.9h-10.3l-15.7-0.8c8.6 5.8 15.1 15.7 15.1 27.7 0 25.9-22.7 41-53.9 41-8.6-0.3-17.4-1.5-25.3-4.1-4 3.8-7.7 8.3-7.7 13.2 0 4.6 2.8 7.7 7.9 7.7h50.5c30 0 44.1 12.8 44.1 34.4 0 30.4-30 47.4-71.4 47.4-36.4 0-59-10.6-59-29.8 0-12.1 11.3-18.4 22.3-21.1-8.9-3.5-14.3-11.1-15.2-19.9-3.3 4.5-15.9 19.6-34.6 19.6-13.4 0-21.3-7.7-24.4-20.6-7.4 10.1-19.4 20.2-36.7 20.2-19.9 0-33.3-11.8-33.3-31.7 0-20.8 14.6-29.3 32.1-35.6l37.2-13.3v-22.3c0-12.5-3.9-21.1-14.9-21.1-10.2 0-14.5 8.2-14.5 19.6 0 5.1 0.7 10.1 2.2 15.6l-23 3.2c-6.7-2.3-11.3-7.8-11.3-15.9 0-20.8 21.5-31 49.3-31 31.9 0 50.4 10.9 50.4 40.6zm-38.1 6.1v-44.6l-17.1 6.7c-9.3 3.9-15.3 8.6-15.3 22.3 0 12.5 5.2 21.4 17.7 21.4 5.5 0 9.4-2.2 14.7-5.8zm79.5 31.7c-2.3 2.7-3.4 6.7-3.4 11.4 0 15.3 14.4 24.7 36.9 24.7 22.7 0 43.1-6.7 43.1-23.8 0-9-5.8-12.5-16.4-12.5zm52-93.3c0-18.7-5.8-35.1-18.3-35.1-12.1 0-16.8 12.5-16.8 31.7 0 19.4 6 35.6 18.5 35.6 12.3 0.2 16.6-12 16.6-32.2zm159.5 7.3v5.5h-77.5c-0.7 31.3 15.8 50.1 38.4 50.1 16 0 27-6.3 35.9-18.5l4 2.4c-6.2 25.1-24.2 41.9-53.2 41.9-35 0-59.8-24.6-59.8-63.3 0-41.9 27.8-69.6 61.6-69.6 33.3 0 50.6 21.6 50.6 51.5zm-77-4.5h43.1c0-22.7-5.2-37.6-19.5-37.6-14.6 0-22.3 15.6-23.6 37.6zm-410 145.5h88.4v10.7h-36.7v101.6h-11.6v-101.6h-40.1zm96.5 0h11.1v16.7c0 4-0.1 21.2-0.4 29h0.4c4.8-10 14.6-14.9 26.2-14.9 15.6 0 28.8 8.6 28.8 32.7v48.8h-11.2v-47.3c0-18-8.1-24.5-20-24.5-13.1 0-23.8 10.5-23.8 30v41.8h-11.1zm119 30.7c19.9 0 34.3 14 34.3 37.9v4.7h-59.4c0.3 18.5 10.1 31.2 25.7 31.2 12.6 0 20.2-7.2 21.8-16.4h11.2c-2.1 14.6-15.2 26-33 26-24 0-37.3-16.5-37.3-41.6 0-24.7 15.9-41.8 36.7-41.8zm-24.7 34.2h47.7c-1.2-16.6-9.9-24.5-23-24.5-12.5 0-22.3 9.4-24.7 24.5zm75.2-32.4h10.5v13.1h0.5c3.7-8.9 11.3-14.9 21.4-14.9 3.4 0 7.3 0.5 11.3 3.3l-3.6 10c-3.5-2-7-2.7-9.9-2.7-12.8 0-19.1 13.5-19.1 28.7v42.2h-11.1zm70.6 36l17.1-3c8.1-1.3 10.7-2.7 10.7-6.7-0.3-12.2-6.7-18.9-18.9-18.9-12.3 0-19.8 6.6-20.5 17.4h-10.6c0.8-15.6 12.2-26.6 31.2-26.6 19.5 0 30.1 10.6 30.1 29v52.5h-10.6v-12.8h-0.4c-4.6 9.4-14.5 14.6-27.1 14.6-16.6 0-26.1-8.8-26.1-21.9-0.2-13.1 7.4-20.7 25.1-23.6zm27.9 1c-1.8 2.1-5 3.4-9.1 4l-16.7 2.8c-11.3 1.8-16.2 6.9-16.2 14.9 0 8.2 5.6 13.7 16.8 13.7 13.6 0 25.2-8.3 25.2-26.5zm41.9 78.7h-11.1v-115.5h10.5v14.1h0.5c5-11 15.6-16.1 28.1-16.1 19.7 0 34.7 15.3 34.7 41.1 0 25.7-16 42.2-35.6 42.2-12.4 0-22-5.1-27.1-16.1h-0.4c0.3 7.9 0.4 25.6 0.4 29.8zm25.7-107.8c-13.9 0-25.1 11.3-25.5 30.5v1.4c0 20.3 11.3 32 25.5 32 14.3 0 25.6-12.6 25.6-32.7 0-19.9-11.5-31.2-25.6-31.2zm86.2-9.7c19.9 0 34.3 14 34.3 37.9v4.6h-59.4c0.3 18.6 10.1 31.2 25.7 31.2 12.6 0 20.2-7.1 21.8-16.3h11.2c-2.1 14.6-15.2 26-33 26-23.9 0-37.3-16.5-37.3-41.6 0-24.7 15.9-41.8 36.7-41.8zm-24.7 34.2h47.7c-1.2-16.6-9.9-24.5-23-24.5-12.5 0-22.3 9.3-24.7 24.5zm83.5-32.4v47.3c0 18 8.1 24.5 20 24.5 13 0 23.3-10.4 23.3-30.5v-41.3h11.1v79.7h-10.7v-13.1h-0.4c-4.9 10.1-14.4 14.9-25.6 14.9-15.6 0-28.6-8.7-28.6-32.7v-48.8zm80 9.1h-15.6v-8.9h15.6v-24.1h11.2v24.1h21.7v8.9h-21.7v47.2c0 10.1 3.8 13.7 12.8 13.7h8.9v9.7h-10.4c-14.9 0-22.3-7.2-22.3-22.9zm46.2-45.8h12v12.6h-12zm0.6 36.8h11.1v79.6h-11.1zm62.3-1.8c18.8 0 31 11.6 33.4 28.1h-11c-2.1-10.7-9.7-18.4-22.3-18.4-14.3 0-25.3 12.9-25.3 32 0 19 10.7 31.9 25.3 31.9 12.8 0 20.2-7.7 22.3-18.4h11.1c-2.3 16.5-14.5 28.1-33.4 28.1-22.4 0-36.8-16.5-36.8-41.6-0.2-25.2 15.9-41.7 36.7-41.7zm53.3 59.1c0 11 10.5 15.6 21.2 15.6 13.6 0 21.6-5.4 21.6-15 0-7.5-4.8-10.7-14.1-12.4l-15-2.7c-11-1.7-22.3-6.2-22.3-20.6 0-15 13.4-23.8 30.4-23.8 16.2 0 30.4 7 30.4 23.5h-10.6c0-10-8.6-14.9-19.8-14.9-11.1 0-19.7 4.9-19.7 14.1 0 7.3 5.2 10.6 15 12.2l15 2.7c12.6 2.2 21.8 7 21.8 21 0 16.3-13.6 24.6-32.7 24.6-18.1 0-31.8-8-31.8-24.3z"/>
	<g id="Layer">
		<path id="Layer" fill-rule="evenodd" class="s3" d="m1512.7 339.2c-8.5 0-15.3-6.9-15.3-15.4 0-8.6 6.8-15.5 15.3-15.5 8.4 0 15.3 6.9 15.3 15.5 0 8.5-6.9 15.4-15.3 15.4zm12.1-15.4c0-7-5.4-12.7-12.1-12.7-6.8 0-12.2 5.7-12.2 12.7 0 7.1 5.4 12.7 12.2 12.7 6.7 0 12.1-5.6 12.1-12.7zm-18.2-7.6h6.8c3.7 0 5.6 1.8 5.6 4.6 0 2.1-1.3 3.7-3.2 4.4l3.8 5.8h-3.4l-3.2-5.3h-3.2v5.3h-3.1zm3.1 2.6v4.3h3.6c1.8 0 2.5-0.9 2.5-2.3 0-1.3-0.9-2-2.5-2z"/>
	</g>
</svg>