<svg viewBox="0 0 48 48" fill="none" xmlns="http://www.w3.org/2000/svg">
<path d="M42.4043 0H5.59573C2.50529 0 0 2.50529 0 5.59573V42.4043C0 45.4947 2.50529 48 5.59573 48H42.4043C45.4947 48 48 45.4947 48 42.4043V5.59573C48 2.50529 45.4947 0 42.4043 0Z" fill="white"/>
<path d="M18 26.5256C19.6569 26.5256 21 25.1825 21 23.5256C21 21.8688 19.6569 20.5256 18 20.5256C16.3431 20.5256 15 21.8688 15 23.5256C15 25.1825 16.3431 26.5256 18 26.5256Z" fill="#00D639"/>
<path d="M15 17.6472V9.56695C14.9993 9.47139 15.023 9.37723 15.0688 9.29334C15.1145 9.20945 15.1809 9.13858 15.2616 9.08743C15.3423 9.03628 15.4348 9.00653 15.5302 9.00096C15.6256 8.99539 15.7208 9.0142 15.8069 9.05561L32.9187 17.1358C33.0375 17.1887 33.1343 17.2811 33.1927 17.3972C33.2511 17.5134 33.2676 17.6462 33.2391 17.7731C33.2107 17.9 33.1393 18.0131 33.0369 18.0933C32.9346 18.1735 32.8076 18.2157 32.6776 18.2129H15.5658C15.4914 18.2133 15.4176 18.1989 15.3488 18.1706C15.28 18.1423 15.2175 18.1007 15.1649 18.0481C15.1123 17.9954 15.0706 17.9329 15.0423 17.8641C15.014 17.7953 14.9996 17.7216 15 17.6472Z" fill="black"/>
<path d="M15 37.5961V29.515C14.9993 29.4194 15.023 29.3252 15.0688 29.2414C15.1145 29.1575 15.1809 29.0866 15.2616 29.0354C15.3423 28.9843 15.4348 28.9545 15.5302 28.949C15.6256 28.9434 15.7208 28.9622 15.8069 29.0036L32.9187 37.0848C33.0369 37.138 33.1332 37.2304 33.1911 37.3463C33.2491 37.4623 33.2653 37.5947 33.237 37.7212C33.2086 37.8477 33.1375 37.9605 33.0356 38.0406C32.9337 38.1208 32.8072 38.1633 32.6776 38.161H15.5658C15.4914 38.1613 15.4178 38.147 15.3491 38.1187C15.2803 38.0905 15.2178 38.0489 15.1652 37.9964C15.1126 37.9439 15.0709 37.8815 15.0426 37.8128C15.0142 37.7441 14.9998 37.6704 15 37.5961Z" fill="black"/>
</svg>
