<?xml version="1.0" ?>
<svg xmlns="http://www.w3.org/2000/svg" viewBox="188.42 345.42 1538.16 392.16">
	<title>sawmills logo.svg</title>
	<path fill="#020014" d="M701.969 642.415c-29.636 0-55.268-11.748-71.554-40.317l32.306-20.558c9.612 19.223 25.097 27.5 41.384 27.5 17.355 0 28.035-8.544 28.035-21.359 0-18.69-19.758-24.564-42.72-30.438-28.835-7.476-47.258-24.296-47.258-52.598 0-33.641 26.433-55.802 65.948-55.802 29.103 0 47.792 12.816 61.676 34.71l-32.039 19.757c-9.078-14.418-17.622-21.092-31.506-21.092-14.952 0-25.898 8.009-25.898 20.558 0 13.884 13.349 18.423 29.636 23.496 21.894 6.942 60.341 16.553 60.341 59.273 0 33.908-25.899 56.87-68.351 56.87zm149.459 0c-38.18 0-68.618-32.307-68.618-72.356 0-40.049 30.438-72.89 68.618-72.89 24.03 0 36.578 9.879 44.054 24.831v-21.894h35.778v138.838h-34.977v-22.695c-7.476 15.753-20.024 26.166-44.855 26.166zm-32.573-72.623c0 21.093 15.485 40.049 38.447 40.049 23.762 0 38.981-18.156 38.981-39.782 0-21.627-15.219-40.316-38.981-40.316-22.962 0-38.447 18.422-38.447 40.049zm165.593 69.152l-43.253-138.838h42.185l17.89 78.764c1.6 6.675 3.2 14.15 4.27 21.092 1.07-6.942 2.67-14.684 4.54-21.359l20.29-78.497h41.39l21.62 78.497c1.87 6.675 3.47 14.417 4.54 21.359 1.07-6.942 2.67-14.417 4.27-21.092l19.23-78.764h39.24l-43.25 138.838h-38.98l-22.69-79.031c-2.14-6.675-3.74-13.884-4.81-20.826-1.07 6.942-2.4 14.151-4.27 20.826l-20.83 79.031h-41.382zm186.072 0V500.106h35.51v20.292c7.21-15.486 21.09-23.496 42.45-23.496 19.49 0 36.04 9.345 45.12 26.166 9.35-16.821 22.7-26.166 46.99-26.166 29.91 0 52.87 22.161 52.87 57.137v84.905h-36.05V562.85c0-24.03-11.48-34.442-27.76-34.442-16.83 0-28.31 7.743-28.31 34.442v76.094h-36.04V562.85c0-24.03-12.02-34.442-29.9-34.442-15.22 0-28.84 10.412-28.84 34.442v76.094h-36.04zm245.67 0V500.106h36.05v138.838h-36.05zm-3.73-171.678c0-11.481 9.34-21.093 21.62-21.093 12.55 0 21.63 9.612 21.63 21.093 0 12.015-9.08 21.359-21.63 21.359-12.28 0-21.62-9.611-21.62-21.359zm63.77 171.678V444.037h36.04v194.907h-36.04zm60.03 0V444.037h36.04v194.907h-36.04zm107.55 3.471c-23.49 0-42.45-8.01-57.67-24.297l24.3-22.161c10.15 11.481 20.83 17.088 32.57 17.088 12.29 0 19.23-6.141 19.23-14.418 0-7.209-3.47-11.213-25.37-16.286-37.11-8.811-42.72-25.632-42.72-43.254 0-24.296 19.23-42.452 51.8-42.452 22.43 0 37.38 5.607 51.53 24.03l-26.16 20.024c-6.68-10.679-15.22-14.951-24.57-14.951-9.88 0-17.35 3.738-17.35 12.282 0 4.805 2.13 9.077 18.69 13.349 40.31 10.413 49.66 25.365 49.66 46.19 0 25.632-23.23 44.856-53.94 44.856z"/>
	<path fill="#C2BEF1" d="M508.197 586.663c8.22 0 14.883-21.973 14.883-49.077 0-27.105-6.663-49.078-14.883-49.078-8.219 0-14.882 21.973-14.882 49.078 0 27.104 6.663 49.077 14.882 49.077z"/>
	<path fill="#2B00B0" d="M362.68 375.831c-27.889 0-57.04 74.569-57.04 166.552 0 91.982 29.151 166.552 57.04 166.552s50.499-74.57 50.499-166.552c0-91.983-22.61-166.552-50.499-166.552zm16.418 265.09c-16.814 0-30.436-44.948-30.436-100.387s13.63-100.387 30.436-100.387c16.806 0 30.436 44.948 30.436 100.387s-13.63 100.387-30.436 100.387z"/>
	<path fill="#6459F4" d="M434.908 395.337c-24.623 0-51.122 65.838-51.122 147.046 0 81.207 26.499 147.046 51.122 147.046 24.624 0 44.583-65.839 44.583-147.046 0-81.208-19.959-147.046-44.583-147.046zm14.503 227.088c-13.678 0-24.761-36.568-24.761-81.679 0-45.112 11.091-81.68 24.761-81.68s22.707 35.835 22.707 80.947c0 45.111-9.037 82.412-22.707 82.412z"/>
	<path fill="#0D006F" d="M313.075 697.562c-55.495-24.547-94.71-84.676-94.71-154.96 0-70.283 39.215-130.412 94.71-154.959-22.922 24.547-39.12 84.676-39.12 154.959 0 70.284 16.198 130.413 39.12 154.96z"/>
</svg>