<svg xmlns="http://www.w3.org/2000/svg" id="Layer_1" data-name="Layer 1" viewBox="0 0 1870 700"><defs><style>.cls-3{fill:#383e55}</style></defs><path d="M468.16 233.42v233.41h-77.8V311.22H234.75v-77.8h233.41z" style="fill:#014dc5"/><path d="M234.75 363.09h103.74v103.75H234.75z" style="fill:#10cffc"/><path d="M692 314.37c-6.38-10.63-23.93-20.74-44.14-20.74-26.06 0-38.55 10.9-38.55 24.73 0 16.22 19.14 20.74 41.48 23.4 38.82 4.79 75 14.89 75 59.29 0 41.49-36.69 59.3-78.17 59.3-38 0-67.28-11.7-81.1-45.73l29.25-15.16C604 419.93 625.55 429 648.15 429c22.07 0 42.81-7.71 42.81-27.92 0-17.54-18.35-24.72-43.08-27.38-38-4.52-73.12-14.63-73.12-56.37 0-38.29 37.76-54 72.06-54.25 29 0 59 8.25 73.12 37zM859.41 438.81c-15.16 14.89-31.11 20.74-50.52 20.74-38 0-69.67-22.86-69.67-69.4s31.64-69.4 69.67-69.4c18.61 0 33 5.32 47.33 19.41l-20.48 21.54a39.82 39.82 0 0 0-26.32-10.37c-21.8 0-37.76 16-37.76 38.82 0 25 17 38.29 37.23 38.29 10.37 0 20.74-2.92 28.71-10.9zM971.46 324.48h31.11v131.08H972l-1.6-19.14c-7.44 15.42-27.92 22.87-42.54 23.13-38.82.27-67.54-23.66-67.54-69.66 0-45.21 30.05-68.87 68.34-68.6 17.55 0 34.3 8.24 41.74 21.27zm-78.71 65.41c0 25 17.28 39.88 38.82 39.88 51.06 0 51.06-79.5 0-79.5-21.57 0-38.82 14.62-38.82 39.62zM1059.47 269.7v185.86h-32.17V269.7zM1111.83 401.59c2.12 16.22 16.22 27.92 39.08 27.92 12 0 27.66-4.52 35.1-12.23l20.74 20.47c-13.82 14.36-36.43 21.27-56.37 21.27-45.2 0-72.06-27.92-72.06-69.93 0-39.88 27.12-68.6 69.67-68.6 43.87 0 71.26 27.12 66.21 81.1zm71.26-26.86c-2.13-17-15.43-25.52-34-25.52-17.55 0-31.91 8.5-36.69 25.52zM1330.53 455.56V387c0-19.94-10.9-35.1-31.64-35.1-20 0-33.51 16.76-33.51 36.7v67h-32.17V324.21h29l2.13 17.82c13.29-13 26.59-19.68 43.07-19.68 30.85 0 55.58 23.13 55.58 64.35v68.86zM1417.88 324.48v68.6c0 19.94 10.9 35.1 31.64 35.1 19.94 0 33.5-16.76 33.5-36.7v-67h32.18v131.35h-29l-2.11-17.83c-13.56 13.3-26.06 19.68-44.41 19.68-31.37 0-54.24-23.66-54.24-64.35v-68.85zM1584.84 287.52v37.22H1621v27.92h-36.43v56.64c0 12.49 6.91 18.61 17 18.61a37 37 0 0 0 15.69-4l9 27.66a72.62 72.62 0 0 1-26.86 5.58c-28.4 1.07-47-15.15-47-47.85v-56.64h-24.46v-27.92h24.46V291z" class="cls-3"/></svg>