<?xml version="1.0" ?>
<svg xmlns="http://www.w3.org/2000/svg" version="1.2" viewBox="0 0 864 864" xml:space="preserve" baseProfile="tiny-ps">
	<g>
		<path class="st0" d="M605.9,618.9c0,31.5-25,56.5-56.5,56.5H314.6c-31.5,0-56.5-25-56.5-56.5V245.1c0-31.5,25-56.5,56.5-56.5h235
		c31.5,0,56.5,25,56.5,56.5L605.9,618.9L605.9,618.9z" fill="#005CAB" stroke="#005CAB" stroke-width="1.9411"/>
		<g>
			<path class="st1" d="M346,315.4c31.5-11.1,47.2-45.3,37-75.8c-0.9-3.7-2.8-7.4-4.6-11.1c15.7,6.5,28.7,18.5,34.2,36.1
			c11.1,31.5-5.5,64.7-37,75.8c-26.8,9.2-56.5-1.9-71.2-25.9C316.4,320.1,331.2,320.1,346,315.4z" fill="#FFFFFF"/>
			<path class="st1" d="M589.3,324.7l-0.9,52.7l-37-54.6c0,0,4.6,29.6,6.5,50c0,0-41.6-36.1-50.9-36.1c0,0,41.6,63.8,44.4,83.2
			c0,0-77.7-60.1-84.2-60.1c0,0,27.7,39.8,32.4,52.7S446,391.3,446,391.3l48.1,59.2c0,0-67.6-40.7-80.5-40.7
			c0,0,33.3,34.2,35.1,40.7c0,0-63.8-32.4-76.8-30.5c0,0,37,26.8,43.5,31.5c0,0-56.5-10.1-81.4-13c0,0,74,29.6,93.4,33.3
			c0,0-64.7-1.9-87-1.9c0,0,60.1,18.5,70.3,30.5l-122.2-10.2l84.2,24.1l-71.2,13c0,0,61.1,8.3,74,13.9L309,564.3
			c0,0,52.7-9.2,90.7,2.8c0,0-52.7,11.1-97.1,33.3c0,0,63.8-10.1,76.8-4.6c0,0-70.3,29.6-78.6,50c0,0,43.5-24.1,74-25
			c0,0-34.2,28.7-47.2,49h20.4c15.7-10.1,35.1-21.3,42.6-25l-6.5,25h162.7c31.5,0,56.5-25,56.5-56.5V347.8L589.3,324.7z" fill="#FFFFFF"/>
		</g>
	</g>
</svg>