<?xml version="1.0" ?>
<svg xmlns="http://www.w3.org/2000/svg" viewBox="0 0 51 50" fill="none">
	<rect x="0.419434" y="0.0145874" width="49.8453" height="49.8453" rx="6.64604" fill="#335EEA"/>
	<path fill-rule="evenodd" clip-rule="evenodd" d="M18.2792 10.3682H17.6499C17.1575 10.3682 16.7584 10.8662 16.7584 11.4805V14.023C16.7584 14.6374 17.1575 15.1354 17.6499 15.1354H18.2792C18.7715 15.1354 19.1707 14.6374 19.1707 14.023V11.4805C19.1707 10.8662 18.7715 10.3682 18.2792 10.3682ZM33.0308 10.3682H32.4016C31.9092 10.3682 31.5101 10.8662 31.5101 11.4805V14.023C31.5101 14.6374 31.9092 15.1354 32.4016 15.1354H33.0308C33.5231 15.1354 33.9223 14.6374 33.9223 14.023V11.4805C33.9223 10.8662 33.5231 10.3682 33.0308 10.3682ZM20.1239 14.3872V12.2064H30.6236V14.3872H20.1239ZM12.9346 17.3166C12.9346 15.7508 14.1853 14.4815 15.7287 14.4815L15.728 12.3007C12.9986 12.3007 10.7859 14.5464 10.7859 17.3166V34.4903C10.7859 37.2605 12.9986 39.5063 15.728 39.5063H34.9565C37.6859 39.5063 39.8986 37.2605 39.8986 34.4903V17.314C39.8986 14.5452 37.687 12.3007 34.959 12.3007V14.4815C36.5003 14.4815 37.7498 15.7496 37.7498 17.314V34.4903C37.7498 36.0561 36.4992 37.3253 34.9565 37.3253H15.728C14.1853 37.3253 12.9346 36.0561 12.9346 34.4903V17.3166Z" fill="white" stroke="white" stroke-width="0.429789"/>
	<path fill-rule="evenodd" clip-rule="evenodd" d="M22.8911 21.2536C21.2796 22.0222 20.0856 23.5249 19.7417 25.3291L21.6282 25.3291C21.7905 23.8983 22.2209 22.5162 22.8911 21.2536ZM27.7943 21.2534C28.4645 22.516 28.895 23.8982 29.0572 25.3291L30.944 25.3291C30.6001 23.5248 29.4059 22.0219 27.7943 21.2534ZM26.8913 25.3291C26.691 23.8996 26.1603 22.5367 25.3427 21.349C24.5251 22.5367 23.9945 23.8996 23.7942 25.3291L26.8913 25.3291ZM23.7944 27.4781L26.891 27.4781C26.6906 28.907 26.16 30.2694 25.3427 31.4567C24.5254 30.2694 23.9948 28.907 23.7944 27.4781ZM21.6284 27.4781L19.7418 27.4781C20.0859 29.2822 21.2801 30.7847 22.8916 31.5531C22.2213 30.2907 21.7908 28.9088 21.6284 27.4781ZM27.7937 31.5533C28.4641 30.2908 28.8946 28.9088 29.0571 27.4781L30.9439 27.4781C30.5997 29.2823 29.4054 30.785 27.7937 31.5533ZM17.4917 26.4032C17.4917 22.0671 21.0068 18.5521 25.3429 18.5521C29.6789 18.5521 33.194 22.0671 33.194 26.4032C33.194 30.7393 29.6789 34.2544 25.3429 34.2544C21.0068 34.2544 17.4917 30.7393 17.4917 26.4032Z" fill="white"/>
</svg>