<?xml version="1.0" ?>
<svg xmlns="http://www.w3.org/2000/svg" viewBox="0 0 1380 153">
	<defs>
		<style>
      .cls-1 {
        fill: #00202e;
      }
      .cls-2 {
        fill: #1cb8b8;
      }
      .cls-3 {
        fill: #00212e;
      }
    </style>
	</defs>
	<polygon class="cls-2" points="112.2 40.8 132.6 61.2 61.2 61.2 61.2 40.8 112.2 40.8"/>
	<polygon class="cls-2" points="0 40.8 0 112.2 20.4 132.6 20.4 61.2 40.8 61.2 40.8 40.8 0 40.8"/>
	<polygon class="cls-2" points="173.39 20.4 193.79 40.8 193.79 112.2 173.39 112.2 81.6 112.2 61.2 91.8 173.39 91.8 173.39 20.4"/>
	<polygon class="cls-1" points="61.2 91.8 40.8 71.4 40.8 61.2 61.2 61.2 61.2 91.8"/>
	<polygon class="cls-3" points="40.8 0 40.8 40.8 61.2 40.8 61.2 20.4 173.4 20.4 153 0 40.8 0"/>
	<rect class="cls-1" x="40.8" y="40.8" width="20.4" height="20.4"/>
	<polygon class="cls-3" points="132.6 132.6 20.4 132.6 40.8 153 153 153 153 81.6 132.6 61.2 132.6 132.6"/>
	<g>
		<path class="cls-1" d="M243.43,128.76c-7.68-2.56-13.71-5.88-18.1-9.95l5.8-12.22c4.18,3.76,9.53,6.82,16.06,9.17,6.53,2.35,13.24,3.52,20.13,3.52,9.09,0,15.88-1.54,20.37-4.62,4.49-3.08,6.74-7.18,6.74-12.3,0-3.76-1.23-6.82-3.68-9.17-2.46-2.35-5.49-4.15-9.09-5.41-3.61-1.25-8.7-2.66-15.28-4.23-8.25-1.98-14.91-3.97-19.98-5.95-5.07-1.99-9.4-5.04-13.01-9.17-3.6-4.13-5.4-9.69-5.4-16.69,0-5.85,1.54-11.12,4.62-15.83,3.08-4.7,7.76-8.46,14.02-11.28s14.05-4.23,23.35-4.23c6.48,0,12.85.84,19.12,2.51,6.27,1.67,11.65,4.07,16.14,7.21l-5.17,12.53c-4.6-2.92-9.51-5.14-14.73-6.66-5.23-1.51-10.34-2.27-15.36-2.27-8.88,0-15.54,1.62-19.98,4.86-4.44,3.24-6.66,7.42-6.66,12.54,0,3.76,1.25,6.81,3.76,9.17,2.51,2.35,5.61,4.18,9.32,5.48,3.71,1.31,8.75,2.69,15.12,4.16,8.25,1.98,14.89,3.97,19.9,5.95,5.02,1.99,9.32,5.01,12.93,9.09,3.61,4.07,5.41,9.56,5.41,16.45,0,5.75-1.57,11-4.7,15.75-3.13,4.76-7.89,8.52-14.26,11.28-6.37,2.77-14.21,4.15-23.51,4.15-8.25,0-16.22-1.28-23.9-3.84"/>
		<path class="cls-1" d="M341.51,126.8c-6.64-3.66-11.83-8.7-15.59-15.12-3.76-6.43-5.64-13.71-5.64-21.86s1.88-15.44,5.64-21.86c3.76-6.42,8.96-11.44,15.59-15.04,6.63-3.6,14.18-5.4,22.64-5.4,7.52,0,14.23,1.51,20.13,4.54,5.9,3.03,10.47,7.42,13.71,13.16l-11.44,7.37c-2.61-3.97-5.85-6.95-9.72-8.93-3.87-1.98-8.15-2.98-12.85-2.98-5.43,0-10.32,1.2-14.65,3.61-4.33,2.4-7.73,5.82-10.19,10.26-2.46,4.44-3.68,9.53-3.68,15.28s1.23,10.99,3.68,15.43c2.45,4.44,5.85,7.86,10.19,10.27,4.33,2.4,9.22,3.6,14.65,3.6,4.7,0,8.98-.99,12.85-2.97,3.87-1.98,7.11-4.96,9.72-8.93l11.44,7.21c-3.24,5.75-7.81,10.16-13.71,13.24-5.9,3.08-12.61,4.62-20.13,4.62-8.46,0-16.01-1.82-22.64-5.48"/>
		<path class="cls-1" d="M438.36,51.27c5.12-2.51,11.33-3.76,18.65-3.76v14.57c-.84-.1-1.98-.16-3.45-.16-8.15,0-14.55,2.43-19.2,7.29-4.65,4.86-6.97,11.78-6.97,20.76v41.37h-15.04V48.29h14.41v13.95c2.61-4.8,6.48-8.46,11.6-10.97"/>
		<path class="cls-1" d="M490.1,63.81c-4.13,2.4-7.34,5.77-9.64,10.11-2.3,4.33-3.45,9.38-3.45,15.12v1.57l53.12-10.03c-1.36-6.06-4.39-10.97-9.09-14.73-4.7-3.76-10.34-5.64-16.92-5.64-5.23,0-9.9,1.2-14.03,3.61M531.55,109.09l8.15,9.72c-3.66,4.39-8.28,7.73-13.87,10.03-5.59,2.3-11.83,3.45-18.72,3.45-8.78,0-16.56-1.8-23.35-5.41-6.79-3.6-12.04-8.64-15.75-15.12-3.71-6.47-5.56-13.79-5.56-21.94s1.8-15.3,5.4-21.78c3.61-6.47,8.56-11.52,14.89-15.12,6.32-3.6,13.45-5.4,21.39-5.4,7.52,0,14.36,1.7,20.53,5.09,6.16,3.4,11.07,8.17,14.73,14.34,3.66,6.16,5.54,13.27,5.64,21.31l-65.97,12.85c2.09,5.75,5.61,10.19,10.58,13.32,4.96,3.13,10.94,4.7,17.94,4.7,9.92,0,17.91-3.34,23.97-10.03"/>
		<path class="cls-1" d="M582.98,63.81c-4.13,2.4-7.34,5.77-9.64,10.11-2.3,4.33-3.45,9.38-3.45,15.12v1.57l53.12-10.03c-1.36-6.06-4.39-10.97-9.09-14.73-4.7-3.76-10.34-5.64-16.92-5.64-5.23,0-9.9,1.2-14.03,3.61M624.42,109.09l8.15,9.72c-3.66,4.39-8.28,7.73-13.87,10.03-5.59,2.3-11.83,3.45-18.72,3.45-8.78,0-16.56-1.8-23.35-5.41-6.79-3.6-12.04-8.64-15.75-15.12-3.71-6.47-5.56-13.79-5.56-21.94s1.8-15.3,5.4-21.78c3.61-6.47,8.56-11.52,14.89-15.12,6.32-3.6,13.45-5.4,21.39-5.4,7.52,0,14.36,1.7,20.53,5.09,6.16,3.4,11.07,8.17,14.73,14.34,3.66,6.16,5.54,13.27,5.64,21.31l-65.97,12.85c2.09,5.75,5.61,10.19,10.58,13.32,4.96,3.13,10.94,4.7,17.94,4.7,9.92,0,17.91-3.34,23.97-10.03"/>
		<path class="cls-1" d="M723.08,56.68c6.21,6.11,9.32,15.07,9.32,26.87v47.79h-15.04v-46.07c0-8.04-1.93-14.1-5.8-18.18-3.87-4.07-9.4-6.11-16.61-6.11-8.15,0-14.57,2.38-19.27,7.13-4.7,4.75-7.05,11.57-7.05,20.45v42.78h-15.05V48.29h14.42v12.54c3.03-4.28,7.13-7.57,12.3-9.87,5.17-2.3,11.05-3.45,17.63-3.45,10.55,0,18.93,3.06,25.15,9.17"/>
		<path class="cls-1" d="M777.54,125.31c-8.83-4.86-15.75-11.54-20.76-20.06-5.01-8.52-7.52-18.1-7.52-28.76s2.51-20.24,7.52-28.75c5.02-8.51,11.96-15.2,20.84-20.06,8.88-4.86,18.8-7.29,29.77-7.29,8.56,0,16.4,1.44,23.51,4.31,7.1,2.88,13.16,7.13,18.18,12.77l-10.18,9.87c-8.26-8.67-18.55-13.01-30.87-13.01-8.15,0-15.51,1.83-22.1,5.48-6.58,3.66-11.73,8.7-15.44,15.12-3.71,6.42-5.56,13.61-5.56,21.54s1.85,15.12,5.56,21.55c3.71,6.42,8.85,11.47,15.44,15.12,6.58,3.66,13.95,5.49,22.1,5.49,12.22,0,22.51-4.39,30.87-13.16l10.18,9.87c-5.01,5.64-11.1,9.93-18.25,12.85-7.16,2.93-15.02,4.39-23.58,4.39-10.97,0-20.87-2.43-29.69-7.29"/>
		<path class="cls-1" d="M913.83,115.44c4.23-2.45,7.55-5.9,9.95-10.34,2.4-4.44,3.6-9.53,3.6-15.28s-1.2-10.84-3.6-15.28c-2.4-4.44-5.72-7.86-9.95-10.26-4.23-2.4-9.01-3.61-14.34-3.61s-10.11,1.2-14.34,3.61c-4.23,2.4-7.57,5.82-10.03,10.26-2.46,4.44-3.68,9.53-3.68,15.28s1.23,10.84,3.68,15.28c2.45,4.44,5.8,7.89,10.03,10.34,4.23,2.46,9.01,3.68,14.34,3.68s10.11-1.22,14.34-3.68M877.24,126.8c-6.58-3.66-11.73-8.7-15.43-15.12-3.71-6.43-5.56-13.71-5.56-21.86s1.85-15.44,5.56-21.86c3.71-6.42,8.85-11.44,15.43-15.04,6.58-3.6,14-5.4,22.25-5.4s15.64,1.8,22.17,5.4c6.53,3.6,11.65,8.62,15.36,15.04,3.71,6.42,5.56,13.71,5.56,21.86s-1.85,15.43-5.56,21.86c-3.71,6.42-8.83,11.47-15.36,15.12-6.53,3.66-13.92,5.48-22.17,5.48s-15.67-1.82-22.25-5.48"/>
		<path class="cls-1" d="M1028.44,56.68c6.21,6.11,9.32,15.07,9.32,26.87v47.79h-15.04v-46.07c0-8.04-1.93-14.1-5.8-18.18-3.87-4.07-9.4-6.11-16.61-6.11-8.15,0-14.57,2.38-19.27,7.13-4.7,4.75-7.05,11.57-7.05,20.45v42.78h-15.04V48.29h14.42v12.54c3.03-4.28,7.13-7.57,12.3-9.87,5.17-2.3,11.05-3.45,17.63-3.45,10.55,0,18.93,3.06,25.15,9.17"/>
		<path class="cls-1" d="M1126.22,56.68c6.21,6.11,9.32,15.07,9.32,26.87v47.79h-15.04v-46.07c0-8.04-1.94-14.1-5.8-18.18-3.87-4.07-9.4-6.11-16.61-6.11-8.15,0-14.57,2.38-19.27,7.13-4.7,4.75-7.05,11.57-7.05,20.45v42.78h-15.04V48.29h14.42v12.54c3.03-4.28,7.13-7.57,12.3-9.87,5.17-2.3,11.05-3.45,17.63-3.45,10.55,0,18.93,3.06,25.15,9.17"/>
		<path class="cls-1" d="M1178.95,63.81c-4.13,2.4-7.34,5.77-9.64,10.11-2.3,4.33-3.45,9.38-3.45,15.12v1.57l53.12-10.03c-1.36-6.06-4.39-10.97-9.09-14.73-4.7-3.76-10.34-5.64-16.92-5.64-5.23,0-9.9,1.2-14.03,3.61M1220.4,109.09l8.15,9.72c-3.66,4.39-8.28,7.73-13.87,10.03-5.59,2.3-11.83,3.45-18.72,3.45-8.78,0-16.56-1.8-23.35-5.41-6.79-3.6-12.04-8.64-15.75-15.12-3.71-6.47-5.56-13.79-5.56-21.94s1.8-15.3,5.4-21.78c3.61-6.47,8.57-11.52,14.89-15.12,6.32-3.6,13.45-5.4,21.39-5.4,7.52,0,14.36,1.7,20.53,5.09,6.16,3.4,11.07,8.17,14.73,14.34,3.66,6.16,5.54,13.27,5.64,21.31l-65.97,12.85c2.09,5.75,5.61,10.19,10.58,13.32,4.96,3.13,10.94,4.7,17.94,4.7,9.92,0,17.91-3.34,23.97-10.03"/>
		<path class="cls-1" d="M1265.41,126.8c-6.64-3.66-11.83-8.7-15.59-15.12-3.76-6.43-5.64-13.71-5.64-21.86s1.88-15.44,5.64-21.86c3.76-6.42,8.95-11.44,15.59-15.04,6.63-3.6,14.18-5.4,22.64-5.4,7.52,0,14.23,1.51,20.13,4.54,5.9,3.03,10.47,7.42,13.71,13.16l-11.44,7.37c-2.61-3.97-5.85-6.95-9.72-8.93-3.87-1.98-8.15-2.98-12.85-2.98-5.43,0-10.32,1.2-14.65,3.61-4.33,2.4-7.73,5.82-10.19,10.26-2.46,4.44-3.68,9.53-3.68,15.28s1.23,10.99,3.68,15.43c2.45,4.44,5.85,7.86,10.19,10.27,4.33,2.4,9.22,3.6,14.65,3.6,4.7,0,8.98-.99,12.85-2.97,3.87-1.98,7.11-4.96,9.72-8.93l11.44,7.21c-3.24,5.75-7.81,10.16-13.71,13.24-5.9,3.08-12.61,4.62-20.13,4.62-8.46,0-16.01-1.82-22.64-5.48"/>
		<path class="cls-1" d="M1380,126.49c-2.2,1.88-4.91,3.32-8.15,4.31-3.24.99-6.58,1.49-10.03,1.49-8.36,0-14.84-2.25-19.43-6.74-4.6-4.49-6.9-10.92-6.9-19.27V30.12h15.04v18.17h23.82v12.38h-23.82v44.97c0,4.49,1.12,7.94,3.37,10.34,2.25,2.4,5.46,3.61,9.64,3.61,4.59,0,8.51-1.31,11.75-3.92l4.7,10.81Z"/>
	</g>
</svg>