<?xml version="1.0" ?>
<svg xmlns="http://www.w3.org/2000/svg" viewBox="0 0 90 90">
	<g fill="none">
		<path fill="#272726" d="M 0.0,0.0 L 90.0,0.0 L 90.0,90.0 L 0.0,90.0 L 0.0,0.0"/>
		<path d="M 69.14,13.033 C 68.81,15.709 67.65,18.488 66.222,20.017 C 65.605,20.677 64.547,21.484 64.29,21.484 C 64.198,21.484 63.406,21.143 62.543,20.719 C 58.105,18.57 54.109,17.413 49.146,16.824 C 47.656,16.639 43.013,16.639 41.543,16.814 C 37.557,17.3 34.454,18.084 30.828,19.531 C 28.629,20.409 26.461,21.587 24.232,23.116 C 22.495,24.304 21.663,24.996 19.958,26.669 C 19.167,27.455 18.448,28.095 18.365,28.095 C 18.088,28.095 16.783,27.403 15.961,26.804 C 14.481,25.74 12.704,23.829 11.543,22.052 C 11.215,21.535 10.824,20.946 10.68,20.719 L 10.424,20.327 L 10.218,22.114 C 9.971,24.304 9.92,29.345 10.136,31.091 C 10.465,33.787 11.184,37.155 11.759,38.715 L 12.026,39.459 L 11.656,40.729 C 11.215,42.248 11.019,43.384 10.876,45.244 C 10.454,50.925 11.389,55.894 13.814,60.77 C 16.732,66.628 22.208,72.02 28.526,75.233 C 32.184,77.093 36.848,78.456 40.824,78.818 C 44.297,79.128 49.434,79.034 52.023,78.601 C 63.057,76.761 72.9,69.613 77.246,60.274 C 79.085,56.328 79.876,52.971 79.989,48.622 C 80.081,44.975 79.609,41.742 78.529,38.704 C 77.533,35.894 76.855,34.5 75.252,32.021 L 74.42,30.74 L 74.348,28.56 C 74.194,23.529 73.228,19.252 71.379,15.44 C 70.732,14.097 69.529,12.062 69.355,12.0 C 69.304,11.99 69.211,12.455 69.139,13.033 L 69.14,13.033" fill="#56903F"/>
		<path d="M 52.742,24.882 C 58.043,25.74 62.79,27.806 66.972,31.081 C 68.954,32.631 71.42,35.368 72.612,37.321 C 73.126,38.157 74.05,40.006 74.41,40.905 C 75.067,42.537 75.725,45.409 75.9,47.465 C 76.475,54.015 74.934,59.293 71.01,64.2 C 69.468,66.132 66.951,68.425 64.917,69.758 C 60.088,72.898 55.29,74.386 49.506,74.551 C 42.581,74.737 35.739,72.733 30.858,69.086 C 29.338,67.94 26.492,65.078 25.269,63.456 C 22.721,60.047 21.283,56.535 20.79,52.526 C 20.07,46.679 21.828,40.461 25.598,35.43 C 26.502,34.221 28.67,32.02 29.985,30.967 C 34.043,27.723 38.061,25.874 42.972,24.996 C 44.913,24.645 45.684,24.593 48.632,24.634 C 50.811,24.665 51.694,24.717 52.742,24.882 L 52.742,24.882" fill="#272726"/>
		<path d="M 66.201,38.601 C 64.824,39.603 61.393,41.907 60.448,42.475 C 60.108,42.671 59.656,42.868 59.43,42.899 C 58.948,42.971 58.886,43.033 59.03,43.26 C 59.112,43.384 59.256,43.425 59.554,43.405 C 59.964,43.385 59.964,43.385 60.139,43.921 C 60.396,44.727 60.725,45.244 61.403,45.925 C 62.225,46.762 62.698,47.062 63.468,47.268 C 64.845,47.62 66.139,47.248 67.321,46.163 C 68.019,45.523 68.359,44.944 68.585,44.014 C 68.739,43.364 68.739,43.167 68.625,42.372 C 68.472,41.277 68.102,40.295 67.578,39.613 C 67.043,38.901 66.992,38.633 67.321,38.27 C 67.578,37.992 67.671,37.702 67.516,37.702 C 67.465,37.702 66.879,38.116 66.201,38.602 L 66.201,38.601 M 34.608,40.915 C 34.608,40.977 34.711,41.111 34.835,41.215 C 35.102,41.421 35.102,41.545 34.968,43.642 C 34.722,47.589 36.088,50.626 38.811,52.206 C 40.671,53.281 42.551,53.363 44.461,52.444 C 46.105,51.648 47.471,49.51 47.861,47.103 C 48.088,45.677 48.119,45.595 48.643,45.337 C 49.403,44.975 49.793,44.077 49.259,43.942 C 49.126,43.911 48.704,43.962 48.314,44.056 C 46.732,44.458 45.18,44.118 37.28,41.607 C 34.752,40.801 34.608,40.76 34.608,40.915 L 34.608,40.915" fill="#56903F"/>
	</g>
</svg>