<svg viewBox="0 0 128 128" xmlns="http://www.w3.org/2000/svg">
  <path d="m19.16,17.83v32.86h19.08V5.22c-7.05,3.03-13.52,7.31-19.08,12.62Z" fill="#3a80cb"/>
  <g>
    <path d="m28.14,10.67c2.38-1.57,4.86-2.99,7.43-4.23-2.57,1.25-5.05,2.66-7.43,4.23Z" fill="#4395e6"/>
    <path d="m63.5,0c-9.81,0-19.29,2.27-27.82,6.39.84-.41,1.69-.8,2.56-1.17v22.99h0c7.27-5.11,16.05-8.04,25.26-8.04,11.74,0,22.78,4.57,31.08,12.87l14.26-14.26C96.73,6.67,80.62,0,63.5,0Z" fill="#4395e6"/>
  </g>
  <path d="m108.84,110.17v-3.79s0-22.27,0-22.27v-6.79s-19.08,0-19.08,0v22.49s0,6.58,0,6.58v16.41c7.05-3.03,13.52-7.31,19.08-12.62Z" fill="#ec9638"/>
  <g>
    <path d="m99.86,117.33c-2.38,1.57-4.86,2.99-7.43,4.23,2.57-1.25,5.05-2.66,7.43-4.23Z" fill="#f4c243"/>
    <path d="m64.5,128c9.81,0,19.29-2.27,27.82-6.39-.84.41-1.69.8-2.56,1.17v-16.41s0-6.58,0-6.58h0c-7.27,5.11-16.05,8.04-25.26,8.04-11.74,0-22.78-4.57-31.08-12.87l-14.26,14.26c12.11,12.11,28.21,18.78,45.34,18.78Z" fill="#f4c243"/>
  </g>
</svg>