<svg xmlns="http://www.w3.org/2000/svg" id="a" viewBox="0 0 400 400"><defs><clipPath id="b"><path d="M0 0h400v400H0z" style="fill:none"/></clipPath><style>.c{fill:#ff8f00}</style></defs><g style="clip-path:url(#b)"><path d="m99.97 341.94-40.11-45.77 110.57-59.66 2.57 2.57-73.03 102.86Z" class="c"/><path d="M227 150.11h-40.11c-2.06 0-3.6-1.54-3.6-3.6s1.54-3.6 3.6-3.6H227c2.06 0 3.6 1.54 3.6 3.6-.51 2.06-2.06 3.6-3.6 3.6Zm44.23 26.23H187.4c-2.06 0-3.6-1.54-3.6-3.6s1.54-3.6 3.6-3.6h83.83c2.06 0 3.6 1.54 3.6 3.6s-2.06 3.6-3.6 3.6Zm-13.37 25.71h-71.48c-2.06 0-3.6-1.54-3.6-3.6s1.54-3.6 3.6-3.6h71.48c2.06 0 3.6 1.54 3.6 3.6s-1.54 3.6-3.6 3.6Z"/><path d="M228.03 58.06c-62.74 0-114.17 51.43-114.17 114.17S164.77 286.4 228.03 286.4c46.29 0 86.4-27.77 103.88-67.37h-46.29c-13.89 16.97-34.97 28.29-58.11 28.29-41.14 0-74.57-33.43-74.57-74.57s33.43-74.57 74.57-74.57c33.43 0 62.23 22.11 71.48 52.97h41.14c-10.29-53.49-56.57-93.08-112.11-93.08Z" class="c"/></g></svg>