<?xml version="1.0" ?>
<!-- Created with Inkscape (http://www.inkscape.org/) -->
<svg xmlns="http://www.w3.org/2000/svg" xmlns:sodipodi="http://sodipodi.sourceforge.net/DTD/sodipodi-0.dtd" xmlns:inkscape="http://www.inkscape.org/namespaces/inkscape" viewBox="0 0 20.874044 4.2691418" version="1.1" id="svg15804" inkscape:version="0.92.0 r15299" sodipodi:docname="search.ch.svg">
	<sodipodi:namedview id="base" pagecolor="#ffffff" bordercolor="#666666" borderopacity="1.0" inkscape:pageopacity="0.0" inkscape:pageshadow="2" inkscape:zoom="10.296039" inkscape:cx="38.94706" inkscape:cy="7.5677203" inkscape:document-units="mm" inkscape:current-layer="layer1" showgrid="false" inkscape:window-width="1280" inkscape:window-height="744" inkscape:window-x="-4" inkscape:window-y="-4" inkscape:window-maximized="1" fit-margin-top="0" fit-margin-left="0" fit-margin-right="0" fit-margin-bottom="0" units="px"/>
	<g inkscape:label="Layer 1" inkscape:groupmode="layer" id="layer1" transform="translate(-109.8917,-176.8046)">
		<g id="g15864" transform="translate(0.13229242,-0.13228915)">
			<path inkscape:connector-curvature="0" id="path1504" style="fill:#ed192e;fill-opacity:1;fill-rule:nonzero;stroke:none;stroke-width:0.35277778" d="m 126.55957,181.01042 h 3.94159 v -3.94124 h -3.94159 z"/>
			<path inkscape:connector-curvature="0" id="path1506" style="fill:#ffffff;fill-opacity:1;fill-rule:nonzero;stroke:none;stroke-width:0.35277778" d="m 127.21115,180.57297 h -0.21308 v -0.21308 h 0.21308 z"/>
			<path d="m 127.99904,179.01892 c -0.12241,0 -0.23283,0.0212 -0.31291,0.0628 -0.0801,0.0416 -0.14429,0.0988 -0.19086,0.17004 -0.0469,0.0716 -0.0794,0.15664 -0.0967,0.25189 -0.0173,0.0953 -0.0261,0.19896 -0.0261,0.30797 0,0.10972 0.009,0.21308 0.0261,0.30798 0.0173,0.0963 0.0497,0.18062 0.0967,0.25223 0.0469,0.0716 0.11113,0.12877 0.19086,0.17004 0.0797,0.0413 0.1905,0.0628 0.31291,0.0628 0.0709,0 0.14534,-0.006 0.22225,-0.0166 0.0773,-0.0113 0.14817,-0.031 0.21202,-0.0593 l 0.005,-0.002 v -0.005 -0.18062 -0.0113 l -0.01,0.004 c -0.0557,0.0198 -0.11712,0.0367 -0.18204,0.0497 -0.0645,0.0127 -0.14887,0.0194 -0.25011,0.0194 -0.0893,0 -0.16052,-0.0169 -0.21273,-0.0501 -0.0529,-0.0335 -0.0935,-0.078 -0.12065,-0.13299 -0.0272,-0.0554 -0.0452,-0.11854 -0.0526,-0.18874 -0.008,-0.0709 -0.0117,-0.14429 -0.0117,-0.21837 0,-0.0734 0.004,-0.1464 0.0117,-0.21766 0.007,-0.0702 0.0254,-0.13406 0.0526,-0.18909 0.0272,-0.0547 0.0677,-0.0995 0.12065,-0.133 0.0522,-0.0332 0.12383,-0.0501 0.21273,-0.0501 0.10159,0 0.18591,0.007 0.25011,0.0198 0.0656,0.0131 0.12665,0.0296 0.18204,0.0497 l 0.01,0.003 v -0.19721 l -0.005,-0.002 c -0.0642,-0.0286 -0.13511,-0.0487 -0.21202,-0.0596 -0.0759,-0.0109 -0.15134,-0.0166 -0.22225,-0.0166" style="fill:#ffffff;fill-opacity:1;fill-rule:nonzero;stroke:none;stroke-width:0.35277778" id="path1510" inkscape:connector-curvature="0"/>
			<path d="m 128.74947,178.66917 v 1.90535 h 0.21872 v -1.25941 c 0.0455,-0.0307 0.0998,-0.054 0.15558,-0.0692 0.0568,-0.0162 0.13299,-0.0243 0.22648,-0.0243 0.0889,0 0.1591,0.018 0.20849,0.0533 0.0487,0.0342 0.0667,0.10019 0.0667,0.19579 v 1.10384 h 0.22436 v -1.09467 c 0,-0.14675 -0.0392,-0.26105 -0.11782,-0.34113 -0.0783,-0.0794 -0.20638,-0.11995 -0.38171,-0.11995 -0.0681,0 -0.13688,0.0102 -0.20461,0.0307 -0.0635,0.0187 -0.12524,0.048 -0.17815,0.0864 v -0.46672 z" style="fill:#ffffff;fill-opacity:1;fill-rule:nonzero;stroke:none;stroke-width:0.35277778" id="path1514" inkscape:connector-curvature="0"/>
			<path d="m 110.33267,178.85541 c 0.0187,0.0557 0.0533,0.10336 0.10336,0.14252 0.0501,0.0385 0.12206,0.0709 0.21626,0.0967 0.0935,0.0261 0.21519,0.0452 0.36547,0.0582 0.22084,0.0219 0.40323,0.0571 0.54752,0.10654 0.14393,0.0497 0.25646,0.11324 0.3376,0.19121 0.0815,0.0776 0.13794,0.16792 0.16898,0.27128 0.0314,0.10372 0.0473,0.22225 0.0473,0.3556 0,0.12524 -0.0212,0.24695 -0.0628,0.36548 -0.042,0.11853 -0.11183,0.22507 -0.2099,0.32032 -0.0977,0.0949 -0.22719,0.17039 -0.3877,0.22578 -0.16052,0.0564 -0.35948,0.0847 -0.59761,0.0847 -0.0751,0 -0.15628,-0.005 -0.24377,-0.0134 -0.0875,-0.008 -0.17427,-0.0205 -0.25964,-0.0356 -0.0854,-0.0148 -0.16546,-0.0318 -0.24095,-0.0515 -0.0748,-0.0194 -0.13758,-0.0395 -0.18768,-0.061 v -0.3884 c 0.096,0.0349 0.22014,0.0677 0.37254,0.10018 0.15204,0.0325 0.34078,0.0487 0.56585,0.0487 0.16298,0 0.29739,-0.0162 0.40358,-0.0487 0.10654,-0.0325 0.19085,-0.0766 0.25329,-0.13264 0.0628,-0.0554 0.10654,-0.11818 0.13124,-0.18732 0.0254,-0.0688 0.0377,-0.14217 0.0377,-0.21979 0,-0.0734 -0.007,-0.14146 -0.0219,-0.2039 -0.0148,-0.0621 -0.0469,-0.11748 -0.097,-0.1651 -0.0501,-0.0473 -0.12206,-0.0871 -0.2159,-0.11959 -0.0935,-0.0321 -0.21767,-0.0547 -0.37218,-0.0674 -0.22508,-0.0215 -0.40958,-0.0575 -0.55351,-0.10689 -0.14393,-0.0494 -0.25576,-0.11219 -0.33443,-0.18733 -0.0794,-0.0755 -0.13371,-0.16051 -0.16299,-0.25541 -0.0293,-0.0949 -0.0437,-0.19826 -0.0437,-0.3108 0,-0.11606 0.0198,-0.23142 0.0593,-0.34572 0.0395,-0.11395 0.10443,-0.21661 0.19403,-0.30727 0.0896,-0.0907 0.20955,-0.16404 0.35984,-0.22013 0.14993,-0.0557 0.33549,-0.084 0.55668,-0.084 0.14605,0 0.2981,0.0123 0.45685,0.036 0.15839,0.0236 0.30656,0.0656 0.44379,0.12594 v 0.3877 c -0.121,-0.0427 -0.25012,-0.0783 -0.3877,-0.10653 -0.13759,-0.0279 -0.3108,-0.042 -0.51894,-0.042 -0.15452,0 -0.28081,0.0141 -0.37888,0.042 -0.0981,0.0282 -0.17427,0.067 -0.22825,0.11641 -0.0543,0.0497 -0.0914,0.10901 -0.11218,0.1778 -0.0212,0.0692 -0.0314,0.14217 -0.0314,0.21978 0,0.0692 0.009,0.13194 0.0279,0.18768" style="fill:#231f20;fill-opacity:1;fill-rule:nonzero;stroke:none;stroke-width:0.35277778" id="path1518" inkscape:connector-curvature="0"/>
			<path d="m 117.43028,178.48682 c -0.0229,-0.0861 -0.0624,-0.15734 -0.11889,-0.21343 -0.0561,-0.0557 -0.13229,-0.097 -0.22824,-0.12277 -0.096,-0.0258 -0.21696,-0.0388 -0.36266,-0.0388 -0.21272,0 -0.39229,0.0162 -0.53798,0.0483 -0.14641,0.0325 -0.27976,0.0706 -0.40076,0.11324 v -0.38806 c 0.13794,-0.06 0.29104,-0.10442 0.45967,-0.13264 0.16933,-0.0279 0.32879,-0.042 0.47907,-0.042 0.23319,0 0.42651,0.0261 0.57856,0.078 0.15204,0.0515 0.27305,0.12594 0.36265,0.22261 0.0896,0.097 0.1524,0.21131 0.18768,0.3429 0.0353,0.13158 0.0533,0.27904 0.0533,0.44308 v 2.21157 h -0.43145 v -0.24554 c 0,0 -0.36512,0.3101 -0.8382,0.3101 -0.20461,0 -0.37747,-0.0289 -0.51929,-0.0871 -0.14181,-0.0582 -0.25647,-0.13476 -0.34431,-0.22966 -0.0875,-0.0949 -0.15028,-0.20602 -0.18768,-0.33267 -0.0377,-0.12735 -0.0564,-0.25788 -0.0564,-0.39158 0,-0.1203 0.0148,-0.23707 0.0441,-0.34925 0.0289,-0.11218 0.0833,-0.21308 0.16263,-0.30374 0.0794,-0.091 0.19015,-0.16934 0.33443,-0.22966 0.248,-0.10301 0.63677,-0.12312 0.94474,-0.12806 l 0.45367,0.004 v -0.2353 c 0,-0.11606 -0.0116,-0.21731 -0.0346,-0.30374 m -1.15746,0.96661 c -0.0804,0.043 -0.14464,0.0917 -0.1905,0.15205 -0.0462,0.0607 -0.0762,0.12735 -0.091,0.20038 -0.0145,0.0737 -0.0215,0.14852 -0.0215,0.22648 0,0.0734 0.007,0.14746 0.0215,0.22295 0.0148,0.0759 0.0459,0.14429 0.0942,0.20673 0.0476,0.0628 0.11571,0.1136 0.2032,0.1524 0.0875,0.0385 0.20638,0.0582 0.35666,0.0582 0.17074,0 0.31679,-0.0229 0.4378,-0.0681 0.121,-0.0455 0.248,-0.10865 0.3817,-0.1912 v -1.04881 l -0.44803,-0.002 c -0.27798,0.004 -0.60219,0.0166 -0.744,0.091" style="fill:#231f20;fill-opacity:1;fill-rule:nonzero;stroke:none;stroke-width:0.35277778" id="path1522" inkscape:connector-curvature="0"/>
			<path d="m 120.56496,178.73579 c 0.0378,-0.20461 0.10654,-0.38276 0.20673,-0.5334 0.0998,-0.15099 0.2353,-0.27058 0.4064,-0.35877 0.17109,-0.0885 0.3877,-0.13265 0.65052,-0.13265 0.15452,0 0.31362,0.012 0.47872,0.0353 0.16475,0.024 0.31574,0.066 0.45332,0.12629 v 0.38771 c -0.121,-0.0427 -0.25224,-0.0783 -0.39405,-0.10654 -0.14182,-0.0279 -0.32315,-0.042 -0.54399,-0.042 -0.19649,0 -0.35242,0.0367 -0.46919,0.11006 -0.11712,0.0734 -0.20567,0.17039 -0.266,0.29104 -0.0603,0.12065 -0.0995,0.25753 -0.11535,0.41064 -0.0173,0.1531 -0.0254,0.30938 -0.0254,0.46884 0,0.15945 0.008,0.31538 0.0254,0.46884 0.0159,0.15311 0.055,0.28963 0.11535,0.41063 0.0603,0.1203 0.14888,0.21732 0.266,0.29069 0.11677,0.0737 0.2727,0.11007 0.46919,0.11007 0.22084,0 0.40217,-0.0138 0.54399,-0.042 0.14181,-0.0279 0.27305,-0.0639 0.39405,-0.10689 v 0.38805 c -0.13758,0.0603 -0.28857,0.10266 -0.45332,0.12594 -0.1651,0.024 -0.3242,0.036 -0.47872,0.036 -0.26282,0 -0.47943,-0.0441 -0.65052,-0.13265 -0.1711,-0.0885 -0.30657,-0.20814 -0.4064,-0.35912 -0.10019,-0.15064 -0.16898,-0.32844 -0.20673,-0.5334 -0.0378,-0.20497 -0.0564,-0.42369 -0.0564,-0.65617 0,-0.23283 0.0187,-0.45156 0.0564,-0.65652" style="fill:#231f20;fill-opacity:1;fill-rule:nonzero;stroke:none;stroke-width:0.35277778" id="path1526" inkscape:connector-curvature="0"/>
			<path d="m 125.43343,177.96313 c -0.16722,-0.16863 -0.43815,-0.25224 -0.81351,-0.25224 -0.14605,0 -0.29174,0.0215 -0.43779,0.0646 -0.14605,0.0434 -0.28575,0.10972 -0.4191,0.20038 v -0.90664 h -0.4251 v 3.93947 h 0.4251 v -2.68993 c 0.11712,-0.0691 0.23777,-0.12065 0.36265,-0.15522 0.12524,-0.0342 0.28999,-0.0519 0.49424,-0.0519 0.19615,0 0.34925,0.0392 0.45967,0.11677 0.11078,0.0773 0.16616,0.2219 0.16616,0.43286 v 2.34738 h 0.4378 v -2.32763 c 0,-0.39723 -0.0836,-0.54963 -0.25012,-0.7179" style="fill:#231f20;fill-opacity:1;fill-rule:nonzero;stroke:none;stroke-width:0.35277778" id="path1530" inkscape:connector-curvature="0"/>
			<path d="m 120.36014,177.8139 c -0.13017,-0.0801 -0.30586,-0.091 -0.46284,-0.091 -0.40111,0 -0.63359,0.16228 -0.77365,0.25294 v -0.25752 h -0.41839 v 3.29036 h 0.4251 v -2.673 c 0.11677,-0.0836 0.37147,-0.248 0.76588,-0.24624 0.17251,0.001 0.31785,0.018 0.4639,0.0829 z" style="fill:#231f20;fill-opacity:1;fill-rule:nonzero;stroke:none;stroke-width:0.35277778" id="path1534" inkscape:connector-curvature="0"/>
			<path d="m 115.09147,179.39209 v -0.0176 c 0,-0.23354 0.002,-0.45261 -0.0233,-0.65793 -0.0251,-0.20532 -0.0783,-0.38347 -0.15981,-0.53481 -0.0815,-0.15134 -0.20073,-0.27129 -0.35737,-0.35983 -0.15663,-0.0885 -0.36865,-0.133 -0.63641,-0.133 -0.26352,0 -0.48119,0.0444 -0.65228,0.133 -0.17145,0.0885 -0.30621,0.20849 -0.40429,0.35983 -0.0984,0.15134 -0.16651,0.32949 -0.20425,0.53481 -0.0378,0.20532 -0.0561,0.42439 -0.0561,0.65793 0,0.23354 0.0183,0.45261 0.0561,0.65758 0.0377,0.20567 0.10583,0.38382 0.20425,0.53481 0.0981,0.15169 0.23284,0.27164 0.40429,0.36019 0.17109,0.0882 0.38876,0.13264 0.65228,0.13264 0.15452,0 0.32209,-0.012 0.5013,-0.0356 0.17992,-0.0236 0.35736,-0.0766 0.53305,-0.1591 v -0.38876 c -0.15487,0.0691 -0.30904,0.11677 -0.4639,0.14252 -0.15452,0.0261 -0.34502,0.0395 -0.57045,0.0395 -0.17568,0 -0.31997,-0.03 -0.43285,-0.0878 -0.11289,-0.0582 -0.20074,-0.13723 -0.26353,-0.23672 -0.0624,-0.0991 -0.1083,-0.21343 -0.13159,-0.34325 -0.0487,-0.27375 -0.0515,-0.46143 -0.0504,-0.59831 z m -1.87925,-0.95744 c 0.0624,-0.10372 0.15029,-0.18697 0.26318,-0.24941 0.11324,-0.0624 0.25929,-0.0942 0.4392,-0.0942 0.17957,0 0.31997,0.0318 0.42016,0.0942 0.10019,0.0624 0.17569,0.14569 0.22578,0.24941 0.0501,0.10372 0.0801,0.22331 0.0907,0.35948 0.007,0.0861 0.0102,0.17427 0.0127,0.26317 h -1.61713 c 0.007,-0.0914 0.0176,-0.18062 0.0339,-0.26634 0.025,-0.13371 0.0688,-0.25259 0.13158,-0.35631" style="fill:#231f20;fill-opacity:1;fill-rule:nonzero;stroke:none;stroke-width:0.35277778" id="path1538" inkscape:connector-curvature="0"/>
		</g>
	</g>
</svg>