<?xml version="1.0" ?>
<svg xmlns="http://www.w3.org/2000/svg" viewBox="0 0 299.0 299.0">
	<style type="text/css">
		.st0{fill:#1673E6;}
	</style>
	<path class="st0" d="M 51.3,60.1 C 51.3,60.1 88.8,35.5 149.5,35.5 C 210.2,35.5 247.7,60.1 247.7,60.1 L 223.1,190.5 L 75.8,190.5 L 51.3,60.1"/>
	<path class="st0" d="M 51.3,219.3 C 51.3,219.3 89.5,236.8 149.5,236.8 C 209.5,236.8 247.7,219.3 247.7,219.3 L 247.7,247.1 C 247.7,247.1 208.8,263.5 149.5,263.5 C 90.2,263.5 51.3,247.1 51.3,247.1 L 51.3,219.3"/>
	<path class="st0" d="M 49.1,201.3 L 49.1,154.9 C 49.1,147.4 43.0,141.3 35.5,141.3 L 0.0,141.3 L 0.0,165.9 L 22.9,165.9 L 22.9,201.4 L 49.1,201.4 L 49.1,201.3"/>
	<path class="st0" d="M 249.9,201.3 L 249.9,154.9 C 249.9,147.4 256.0,141.3 263.5,141.3 L 299.0,141.3 L 299.0,165.9 L 276.1,165.9 L 276.1,201.4 L 249.9,201.4 L 249.9,201.3"/>
</svg>
