<?xml version="1.0" ?>
<svg xmlns="http://www.w3.org/2000/svg" viewBox="0 0 1552 195">
	<title>SES</title>
	<defs>
		<clipPath clipPathUnits="userSpaceOnUse" id="cp1">
			<path d="m-4006.74-4021h5893.39v4551h-5893.39z"/>
		</clipPath>
	</defs>
	<style>
		.s0 { fill: #002856 } 
	</style>
	<g id="Clip-Path" clip-path="url(#cp1)">
		<g id="Layer">
			<path id="Layer" fill-rule="evenodd" class="s0" d="m58.5 132.1c0.6 13.2 2 16.4 8.9 19 4.3 1.7 20.8 2.8 39.1 2.8 67.6 0 75.7-2 75.7-17.8 0-7.8-3.8-13.5-9.9-15.5-6.3-2-6.3-2-36.4-2.3h-52.9c-35.4 0-50-2-62.5-8.3-13.7-7.2-20.1-22.4-20.1-48.6 0-34.5 9.8-49.1 37.5-55.7 15.4-4 37.8-5.5 79.8-5.5 67.4 0 82.9 1.8 96.6 10.7 13.2 8.9 17.5 20.6 17.5 49.4h-56.9c0-16.7-5.7-19-43.3-19-18.8 0-43.7 0.6-52.9 1.2-15.6 1.1-20.8 5.1-20.8 16 0 8.1 4.1 13.3 12.4 15.3 3.4 0.8 4.6 1.1 23.6 1.4h54.3c5.2 0 31 0.9 40.9 1.4 36.4 1.8 50.9 17.9 50.9 56.3 0 35.4-10.4 50.9-38.6 56.9-14.3 3.2-42.8 4.9-84.5 4.9-66.4 0-81.1-1.4-98.1-10-11.8-5.8-17.8-20.4-17.8-43.1 0-1.8 0-5.5 0.3-9.5zm423.3-130.4v43.3h-154.9v33.1h146.1v37.9h-146.1v33.9h157v43.4h-214.5v-191.6z"/>
			<path id="Layer" fill-rule="evenodd" class="s0" d="m752.9 121.2c-0.3 27.8-1.1 37.3-5.3 45.9-7.4 16.4-22.9 24.2-52.9 26.2-11.7 1.1-34.7 1.4-72.9 1.4-55.2 0-73-2.6-88.6-12.6-19-12.1-24.4-32.2-24.4-89.1 0-50.5 5.7-68.6 25.8-80.1 17.3-10.1 35.7-12.7 89.4-12.7 71.6 0 87.2 1.5 103.5 9.5 15.5 7.8 22.8 24.7 22.8 52.9v6.3h-55.9c-1.1-21-5.4-22.7-56-22.7-47.7 0-56.3 1.1-63.5 7.5-6.9 6.3-8.3 14-8.3 45.1 0 45.9 4.3 49.4 60.3 49.4 43.4 0 49.8-0.3 57.8-3.8 8.3-3.4 11.5-9.4 11.5-23.2zm88.1-119.5v94.8c0 20.9 0 21.5 0.9 26.7 2.8 21.5 12.3 25.8 56 25.8 43.8 0 55.8-1.1 63-6.6 5.8-4.3 8.7-12.6 9-27.3 0.3-4.3 0.3-4.3 0.3-25.5v-87.9h58.3v100.5c0.6 47.4-3.4 61.5-20.5 76.7-13.7 10.6-31 15.2-56 15.5-8.9 0.3-14.1 0.3-25.6 0.3l-21.9 0.3c-54-0.3-64.6-0.9-78.7-4.6-34.8-10.6-44-28.7-43.1-85.6v-103.1zm221.4 0h165.4c33.8 0 48.7 2.8 59.7 12 11.2 8.9 16.4 25.3 16.4 51.2 0 35.6-8.6 49.7-33.1 55.1 23.9 4 31.1 14.1 30.5 43.1v30.2h-59.2v-23.9c-0.3-20.7-6-25-32.2-24.4h-89.5v48.3h-58zm149.2 96.5c28.2 0 33.7-3.4 33.7-22.4 0-12.4-1.2-17.5-4.9-21.5-4.3-4.7-9.2-5.5-26.8-5.5h-93.2v49.4zm337.7-96.5v43.4h-154.9v33h146v37.9h-146v33.9h156.9v43.4h-214.4v-191.6z"/>
		</g>
	</g>
</svg>