<?xml version="1.0" ?>
<svg xmlns="http://www.w3.org/2000/svg" xmlns:xlink="http://www.w3.org/1999/xlink" viewBox="0 0 162.86 48">
	<defs>
		<style>.uuid-7c311a0e-39e6-4b95-8274-7410e1b49992{fill:url(#uuid-0b179eef-3d02-4fcb-8400-bf9d7dce482b);}.uuid-2c6d7f6f-d0f3-4ece-9684-9f9e0686cc90{fill:#fed705;}.uuid-86dc818d-5d6c-4610-9767-84581508a97e{fill:#3b8983;}.uuid-7354ac3d-7063-4734-9cca-0d587eab0ae1{fill:url(#uuid-683ee3e3-edb8-4816-b9a8-41e1bb180286);}.uuid-24d152bb-93b2-4df7-a5c9-6e155e22712b{fill:url(#uuid-bbce6a67-4c7f-4465-9e67-c2708cf5ec38);}.uuid-8b57ca49-b7a6-45fc-b980-e1aee2209f5b{fill:url(#uuid-41ba2be7-37af-4311-a1c7-e9ae1fb46920);}.uuid-ef623078-70ae-4582-937e-8b52cab07067{fill:url(#uuid-d06c6996-e04d-4680-8990-873acd13b987);}.uuid-5476df1e-f0fe-4fa1-a0dc-80aa39c31a92{fill:url(#uuid-237b7281-9191-417e-b025-b76126ad7ca1);}.uuid-cac0f0b3-23d7-4665-9aeb-f78fc0001036{fill:url(#uuid-804ad0de-e11e-4c6d-b859-517dfeeebaa7);}.uuid-05ee315e-0dfc-4ef3-b67a-59816d64c0fe{fill:url(#uuid-6e8f9e1a-1f04-4fdc-9f1d-ce6e6f504d83);}.uuid-cf04ef2f-c4bd-4c90-89c4-7d3e7355264c{fill:url(#uuid-a1bd2a1b-2317-4779-a643-750e5ebf83cf);}.uuid-98ba4725-2567-441c-b640-939fb5629217{fill:url(#uuid-b7681073-5c8a-42b5-b354-5acf31b12f3b);}.uuid-2607445c-2732-45dd-a01b-5be4908ab483{fill:url(#uuid-0e70e7a6-4c39-4060-88b5-88640d1fd97f);}.uuid-6bf145b5-ae1c-4325-9835-d712887748a0{fill:url(#uuid-1acef4f6-6c1e-46f9-a1d8-d40d5e6d567f);}</style>
		<linearGradient id="uuid-683ee3e3-edb8-4816-b9a8-41e1bb180286" x1="11.03" y1="50.99" x2="10.83" y2="7.18" gradientUnits="userSpaceOnUse">
			<stop offset="0" stop-color="#73bda0"/>
			<stop offset="1" stop-color="#429589"/>
		</linearGradient>
		<linearGradient id="uuid-b7681073-5c8a-42b5-b354-5acf31b12f3b" x1="36.51" y1="50.87" x2="36.31" y2="7.07" xlink:href="#uuid-683ee3e3-edb8-4816-b9a8-41e1bb180286"/>
		<linearGradient id="uuid-1acef4f6-6c1e-46f9-a1d8-d40d5e6d567f" x1="36.57" y1="50.87" x2="36.37" y2="7.07" xlink:href="#uuid-683ee3e3-edb8-4816-b9a8-41e1bb180286"/>
		<linearGradient id="uuid-6e8f9e1a-1f04-4fdc-9f1d-ce6e6f504d83" x1="10.96" y1="50.99" x2="10.76" y2="7.18" xlink:href="#uuid-683ee3e3-edb8-4816-b9a8-41e1bb180286"/>
		<linearGradient id="uuid-237b7281-9191-417e-b025-b76126ad7ca1" x1="23.83" y1="50.93" x2="23.64" y2="7.12" xlink:href="#uuid-683ee3e3-edb8-4816-b9a8-41e1bb180286"/>
		<linearGradient id="uuid-bbce6a67-4c7f-4465-9e67-c2708cf5ec38" x1="23.7" y1="50.93" x2="23.5" y2="7.12" xlink:href="#uuid-683ee3e3-edb8-4816-b9a8-41e1bb180286"/>
		<linearGradient id="uuid-0e70e7a6-4c39-4060-88b5-88640d1fd97f" x1="8.68" y1="51" x2="8.49" y2="7.19" xlink:href="#uuid-683ee3e3-edb8-4816-b9a8-41e1bb180286"/>
		<linearGradient id="uuid-804ad0de-e11e-4c6d-b859-517dfeeebaa7" x1="29.37" y1="50.9" x2="29.18" y2="7.1" xlink:href="#uuid-683ee3e3-edb8-4816-b9a8-41e1bb180286"/>
		<linearGradient id="uuid-0b179eef-3d02-4fcb-8400-bf9d7dce482b" x1="44.19" y1="50.84" x2="43.99" y2="7.03" xlink:href="#uuid-683ee3e3-edb8-4816-b9a8-41e1bb180286"/>
		<linearGradient id="uuid-a1bd2a1b-2317-4779-a643-750e5ebf83cf" x1="38.39" y1="50.86" x2="38.19" y2="7.06" xlink:href="#uuid-683ee3e3-edb8-4816-b9a8-41e1bb180286"/>
		<linearGradient id="uuid-d06c6996-e04d-4680-8990-873acd13b987" x1="18.29" y1="50.95" x2="18.09" y2="7.15" xlink:href="#uuid-683ee3e3-edb8-4816-b9a8-41e1bb180286"/>
		<linearGradient id="uuid-41ba2be7-37af-4311-a1c7-e9ae1fb46920" x1="3.71" y1="51.02" x2="3.51" y2="7.21" xlink:href="#uuid-683ee3e3-edb8-4816-b9a8-41e1bb180286"/>
	</defs>
	<g>
		<path class="uuid-7354ac3d-7063-4734-9cca-0d587eab0ae1" d="M3.52,22.53c1.62,0,2.99-1.1,3.4-2.59,3.3-3.25,8.77-2.71,8.77-2.71,.64,.66,1.54,1.07,2.53,1.07,1.95,0,3.52-1.58,3.52-3.52s-1.58-3.52-3.52-3.52c-1.65,0-3.03,1.13-3.42,2.66h0c-3.82,3.64-8.83,2.56-8.83,2.56-.63-.61-1.5-.99-2.45-.99-1.95,0-3.52,1.58-3.52,3.52s1.58,3.52,3.52,3.52Z"/>
		<path class="uuid-98ba4725-2567-441c-b640-939fb5629217" d="M43.77,26.05c-1.65,0-3.03,1.13-3.42,2.66h0c-3.82,3.64-8.83,2.56-8.83,2.56-.63-.61-1.5-.99-2.45-.99-1.95,0-3.52,1.58-3.52,3.52s1.58,3.52,3.52,3.52c1.62,0,2.99-1.1,3.4-2.59,3.3-3.25,8.77-2.71,8.77-2.71,.64,.66,1.54,1.07,2.53,1.07,1.95,0,3.52-1.58,3.52-3.52s-1.58-3.52-3.52-3.52Z"/>
		<path class="uuid-6bf145b5-ae1c-4325-9835-d712887748a0" d="M31.4,22.44c-1.01,1.66-.48,3.83,1.18,4.84,1.66,1.01,3.83,.48,4.84-1.18,.84-1.39,.61-3.12-.45-4.25-1.06-4.51,2.23-8.9,2.23-8.9,.9-.21,1.71-.76,2.23-1.6,1.01-1.66,.48-3.83-1.18-4.84-1.66-1.01-3.83-.48-4.84,1.18-.86,1.41-.61,3.18,.5,4.3h0c1.13,5.15-2.39,8.88-2.39,8.88-.85,.22-1.62,.76-2.12,1.58Z"/>
		<path class="uuid-05ee315e-0dfc-4ef3-b67a-59816d64c0fe" d="M15.89,26.14c1.01-1.66,.48-3.83-1.18-4.84-1.66-1.01-3.83-.48-4.84,1.18-.86,1.41-.61,3.18,.5,4.3h0c1.13,5.15-2.39,8.88-2.39,8.88-.85,.22-1.62,.76-2.12,1.58-1.01,1.66-.48,3.83,1.18,4.84,1.66,1.01,3.83,.48,4.84-1.18,.84-1.39,.61-3.12-.45-4.25-1.06-4.51,2.23-8.9,2.23-8.9,.9-.21,1.71-.76,2.23-1.6Z"/>
		<path class="uuid-5476df1e-f0fe-4fa1-a0dc-80aa39c31a92" d="M19.11,7.33h0c5.05,1.52,6.59,6.4,6.59,6.4-.22,.85-.12,1.79,.35,2.62,.96,1.69,3.11,2.28,4.81,1.32,1.69-.96,2.28-3.11,1.32-4.81-.8-1.41-2.43-2.05-3.93-1.67-4.46-1.26-6.7-6.28-6.7-6.28,.26-.88,.17-1.86-.32-2.72-.96-1.69-3.11-2.28-4.81-1.32-1.69,.96-2.28,3.11-1.32,4.81,.82,1.43,2.48,2.08,4,1.65Z"/>
		<path class="uuid-24d152bb-93b2-4df7-a5c9-6e155e22712b" d="M28.25,41.06c-4.46-1.26-6.7-6.28-6.7-6.28,.26-.88,.17-1.86-.32-2.72-.96-1.69-3.11-2.28-4.81-1.32-1.69,.96-2.28,3.11-1.32,4.81,.82,1.43,2.48,2.08,4,1.65h0c5.05,1.52,6.59,6.4,6.59,6.4-.22,.85-.12,1.79,.35,2.62,.96,1.69,3.11,2.28,4.81,1.32,1.69-.96,2.28-3.11,1.32-4.81-.8-1.41-2.43-2.05-3.93-1.67Z"/>
		<circle class="uuid-2607445c-2732-45dd-a01b-5be4908ab483" cx="8.5" cy="9.6" r="3.61"/>
		<circle class="uuid-cac0f0b3-23d7-4665-9aeb-f78fc0001036" cx="29.16" cy="3.61" r="3.61"/>
		<circle class="uuid-7c311a0e-39e6-4b95-8274-7410e1b49992" cx="44.05" cy="18.92" r="3.61"/>
		<circle class="uuid-cf04ef2f-c4bd-4c90-89c4-7d3e7355264c" cx="38.34" cy="39.14" r="3.61"/>
		<circle class="uuid-ef623078-70ae-4582-937e-8b52cab07067" cx="18.26" cy="44.39" r="3.61"/>
		<circle class="uuid-8b57ca49-b7a6-45fc-b980-e1aee2209f5b" cx="3.61" cy="29.67" r="3.61"/>
	</g>
	<circle class="uuid-2c6d7f6f-d0f3-4ece-9684-9f9e0686cc90" cx="23.64" cy="24.21" r="3.61"/>
	<path class="uuid-86dc818d-5d6c-4610-9767-84581508a97e" d="M102.76,26.77c.17,1.47,.74,2.62,1.73,3.44,.99,.82,2.19,1.23,3.59,1.23,1.24,0,2.28-.25,3.12-.76,.84-.5,1.57-1.14,2.21-1.9l3.55,2.66c-1.16,1.42-2.45,2.43-3.88,3.03-1.43,.6-2.93,.9-4.5,.9-1.49,0-2.89-.25-4.21-.74-1.32-.49-2.46-1.19-3.43-2.09-.96-.9-1.73-1.98-2.29-3.25-.56-1.27-.85-2.68-.85-4.23s.28-2.97,.85-4.23c.56-1.27,1.33-2.35,2.29-3.25,.96-.9,2.1-1.6,3.43-2.09s2.72-.74,4.21-.74c1.38,0,2.63,.24,3.78,.72,1.14,.48,2.12,1.17,2.93,2.07,.81,.9,1.44,2.01,1.9,3.33,.45,1.32,.68,2.84,.68,4.56v1.35h-15.1Zm10.69-3.68c-.03-1.45-1.01-2.58-1.89-3.42-.88-.83-2.1-1.25-3.67-1.25-1.49,0-2.66,.42-3.53,1.27-.87,.85-1.68,1.98-1.87,3.4h10.97Z"/>
	<path class="uuid-86dc818d-5d6c-4610-9767-84581508a97e" d="M79.96,26.77c.17,1.47,.74,2.62,1.73,3.44,.99,.82,2.19,1.23,3.59,1.23,1.24,0,2.28-.25,3.12-.76,.84-.5,1.57-1.14,2.21-1.9l3.55,2.66c-1.16,1.42-2.45,2.43-3.88,3.03-1.43,.6-2.93,.9-4.5,.9-1.49,0-2.89-.25-4.21-.74-1.32-.49-2.46-1.19-3.43-2.09-.96-.9-1.73-1.98-2.29-3.25-.56-1.27-.85-2.68-.85-4.23s.28-2.97,.85-4.23c.56-1.27,1.33-2.35,2.29-3.25,.96-.9,2.1-1.6,3.43-2.09s2.72-.74,4.21-.74c1.38,0,2.63,.24,3.78,.72,1.14,.48,2.12,1.17,2.93,2.07,.81,.9,1.44,2.01,1.9,3.33,.45,1.32,.68,2.84,.68,4.56v1.35h-15.1Zm10.69-3.68c-.03-1.45-1.01-2.58-1.89-3.42-.88-.83-2.1-1.25-3.67-1.25-1.49,0-2.66,.42-3.53,1.27-.87,.85-1.68,1.98-1.87,3.4h10.97Z"/>
	<path class="uuid-86dc818d-5d6c-4610-9767-84581508a97e" d="M137.44,31.97h-.08c-.72,1.19-1.68,2.05-2.89,2.59-1.21,.54-2.52,.81-3.92,.81-1.54,0-2.91-.26-4.11-.79s-2.22-1.25-3.07-2.16c-.85-.92-1.5-1.99-1.94-3.23-.44-1.24-.66-2.57-.66-4s.23-2.76,.7-4c.47-1.24,1.12-2.32,1.96-3.23,.84-.92,1.85-1.64,3.03-2.16,1.18-.53,2.48-.79,3.88-.79,.94,0,1.76,.09,2.48,.28,.72,.19,1.35,.43,1.9,.73,.55,.3,1.02,.61,1.4,.95,.38,.34,.7,.67,.95,.99h.12V6.22h4.43v28.66h-4.18v-2.91Zm-12.37-6.88c0,.78,.14,1.53,.41,2.26,.28,.73,.68,1.37,1.22,1.92,.54,.56,1.18,1,1.94,1.34,.75,.33,1.61,.5,2.57,.5s1.81-.17,2.57-.5c.75-.33,1.4-.78,1.94-1.34,.54-.56,.94-1.2,1.22-1.92,.28-.72,.41-1.48,.41-2.26s-.14-1.53-.41-2.26c-.28-.72-.68-1.37-1.22-1.92-.54-.56-1.18-1-1.94-1.34-.76-.33-1.61-.5-2.57-.5s-1.82,.17-2.57,.5c-.76,.33-1.4,.78-1.94,1.34-.54,.56-.94,1.2-1.22,1.92-.28,.73-.41,1.48-.41,2.26Z"/>
	<path class="uuid-86dc818d-5d6c-4610-9767-84581508a97e" d="M146.15,31.66l10.61-12.7v-.09h-10.11v-4.12h16.1v4.01l-10.73,12.48h10.85v4.12h-16.71v-3.7Z"/>
	<path class="uuid-86dc818d-5d6c-4610-9767-84581508a97e" d="M56.09,31.65l2.92-2.76c1.21,1.77,3.18,2.73,5.54,2.73,1.91,0,3.34-.62,3.37-2.17,0-1.88-2.33-2.71-4.81-3.62-2.87-1.07-5.9-2.3-5.9-5.55s3.06-5.55,7.11-5.55c3.32,0,6.01,1.18,7.73,2.92l-2.75,2.55c-1.29-1.39-2.78-2.09-4.86-2.09-1.69,0-2.87,.78-2.87,2.01,0,1.37,1.83,2.06,3.96,2.87,3.03,1.15,6.69,2.52,6.69,6.4s-3.51,5.98-7.81,5.98c-3.4,0-6.55-1.5-8.32-3.72Z"/>
</svg>