<svg xmlns="http://www.w3.org/2000/svg" viewBox="0 0 602 185" fill="none"><g clip-path="url(#clip0_10_64)"><path d="M106.155 84.4733C102.817 58.7682 80.6109 38.8655 53.7747 38.8655C40.7654 38.8655 28.4353 43.5209 18.9682 51.9543C17.0611 53.6416 15.2224 55.4629 13.5873 57.4196C13.1101 57.9584 12.6345 58.5665 12.1573 59.1731C6.97852 65.5143 3.57309 72.7346 2.14314 80.5599C1.80292 82.3738 2.38455 84.2383 3.69575 85.537L12.1573 93.9182L18.9682 100.664L56.673 138.011C61.8774 143.166 61.1015 152.142 53.7762 152.142C44.4444 152.142 36.5424 145.733 34.5001 137.097C33.8877 134.533 31.6387 132.643 28.9824 132.643C25.4402 132.643 22.6472 135.814 23.3963 139.187C26.5981 153.693 40.2214 164.42 56.159 163.273C65.5592 162.531 74.0052 157.201 79.5913 149.644C80.7269 148.092 80.557 145.944 79.1918 144.59L18.9682 84.8782C15.808 81.7481 14.4102 77.0795 16.4323 73.1177C17.1684 71.6754 18.0138 70.2653 18.9682 68.8874C19.8541 67.4033 20.9437 65.987 22.17 64.6368C30.0036 55.3274 41.5146 49.9961 53.7762 49.9961C74.4155 49.9961 91.5794 64.9062 94.7812 84.4718C95.19 86.6302 95.3936 88.9256 95.3936 91.2179V118.088C95.3936 119.588 95.9931 121.025 97.0586 122.081C100.606 125.595 106.633 123.082 106.633 118.088V91.2194C106.633 88.9256 106.496 86.6995 106.155 84.4733Z" fill="#3B6EF8"></path><path d="M88.5814 123.267L50.8512 85.8432C45.6225 80.6569 46.4089 71.6555 53.7734 71.6555C63.1053 71.6555 70.9388 78.1322 72.9812 86.7011C73.5936 89.3321 75.8426 91.221 78.4989 91.221C81.9727 91.221 84.8341 88.0497 84.0849 84.6766C80.6111 68.889 64.8087 57.5551 47.2345 61.1976C39.4693 62.7494 32.7937 67.5389 28.0936 73.8816C26.8035 75.6242 26.9893 78.0499 28.5298 79.5757L88.5799 139.055C91.7342 142.179 93.0819 146.841 91.0878 150.807C90.3411 152.293 89.5004 153.731 88.5799 155.112C87.6256 156.596 86.6044 158.013 85.4465 159.295C77.6129 168.538 66.1019 173.8 53.7734 173.8C33.2709 173.8 16.2422 159.159 12.7684 139.796C12.3596 137.637 12.156 135.343 12.156 133.049V105.842C12.156 104.342 11.5564 102.905 10.4908 101.849C6.94291 98.3358 0.916992 100.849 0.916992 105.842V133.051C0.916992 135.345 1.12214 137.571 1.39415 139.797C4.93634 165.3 27.0739 185 53.7749 185C69.442 185 84.1548 178.254 94.0307 166.514C96.2782 163.95 98.2537 161.116 99.8888 158.08C101.184 155.922 102.205 153.626 103.091 151.334C104.112 148.771 104.861 146.138 105.406 143.441C105.788 141.632 105.225 139.753 103.912 138.452L95.3923 130.014L88.5814 123.267Z" fill="#3B6EF8"></path><ellipse cx="54.1267" cy="112.107" rx="21.1429" ry="20.9262" fill="white"></ellipse><ellipse cx="54.1267" cy="112.107" rx="15.8571" ry="15.6946" fill="#3B6EF8"></ellipse><path fill-rule="evenodd" clip-rule="evenodd" d="M57.0284 112.824C58.2839 111.93 59.1014 110.472 59.1014 108.824C59.1014 106.105 56.8741 103.901 54.1266 103.901C51.3791 103.901 49.1519 106.105 49.1519 108.824C49.1519 110.472 49.9693 111.93 51.2245 112.824V119.463C51.2245 121.066 52.5238 122.365 54.1265 122.365C55.7292 122.365 57.0284 121.066 57.0284 119.463V112.824Z" fill="white"></path></g><path d="M19.9397 38.0882C17.1611 38.0882 14.8738 35.8255 15.247 33.0722C16.3653 24.822 20.2206 17.1059 26.2921 11.1558C33.5808 4.01287 43.4664 1.07174e-05 53.7742 0C64.082 -1.07174e-05 73.9676 4.01283 81.2563 11.1557C87.3279 17.1059 91.1831 24.822 92.3014 33.0721C92.6746 35.8254 90.3873 38.0882 87.6088 38.0882C84.8303 38.0882 82.6241 35.8174 82.1218 33.0847C81.0876 27.4572 78.3241 22.2273 74.1414 18.1283C68.7397 12.8347 61.4134 9.86071 53.7742 9.86071C46.135 9.86072 38.8087 12.8347 33.407 18.1284C29.2243 22.2274 26.4609 27.4573 25.4266 33.0847C24.9244 35.8175 22.7182 38.0882 19.9397 38.0882Z" fill="#888585"></path><path d="M178.781 166.112C187.809 166.112 194.613 164.09 199.194 160.048C203.909 155.872 206.267 150.55 206.267 144.083C206.267 138.558 204.448 133.977 200.81 130.34C197.307 126.702 191.716 123.805 184.036 121.649L166.453 116.395C160.794 114.643 155.877 112.42 151.7 109.725C147.523 106.896 144.289 103.46 141.999 99.4182C139.843 95.2415 138.765 90.391 138.765 84.867C138.765 74.4924 142.538 66.4084 150.083 60.6149C157.628 54.6866 167.666 51.7224 180.196 51.7224C187.472 51.7224 193.939 52.5308 199.598 54.1476C205.391 55.6297 209.905 57.5833 213.138 60.0085C216.507 62.4338 218.191 64.9937 218.191 67.6884C218.191 69.4399 217.719 71.0567 216.776 72.5388C215.833 73.8861 214.621 74.964 213.138 75.7724C209.77 73.0777 205.189 70.7199 199.396 68.6989C193.737 66.6779 187.539 65.6674 180.802 65.6674C172.988 65.6674 166.79 67.4189 162.209 70.922C157.628 74.2903 155.338 78.9387 155.338 84.867C155.338 89.5826 156.954 93.4226 160.188 96.3867C163.556 99.3509 168.946 101.911 176.356 104.067L188.684 107.704C199.328 110.669 207.682 114.98 213.745 120.639C219.943 126.298 223.041 134.112 223.041 144.083C223.041 154.726 219.134 163.349 211.32 169.951C203.64 176.553 192.794 179.854 178.781 179.854C170.563 179.854 163.354 178.979 157.157 177.227C151.094 175.341 146.31 173.05 142.807 170.356C139.439 167.526 137.755 164.764 137.755 162.069C137.755 159.779 138.429 157.893 139.776 156.411C141.258 154.794 142.942 153.649 144.828 152.975C147.927 155.939 152.306 158.903 157.965 161.867C163.624 164.697 170.563 166.112 178.781 166.112Z" fill="#121212"></path><path d="M254.437 140.849L253.628 128.117L314.663 119.83C314.124 112.42 311.564 106.357 306.983 101.641C302.402 96.7909 296.069 94.3657 287.985 94.3657C279.632 94.3657 272.693 97.3972 267.169 103.46C261.78 109.389 259.085 117.944 259.085 129.127V133.573C260.028 144.352 263.531 152.571 269.594 158.23C275.792 163.754 284.213 166.516 294.857 166.516C300.516 166.516 305.635 165.573 310.216 163.686C314.797 161.8 318.435 159.779 321.13 157.623C322.612 158.566 323.757 159.712 324.566 161.059C325.509 162.272 325.98 163.686 325.98 165.303C325.98 167.863 324.498 170.288 321.534 172.579C318.705 174.734 314.865 176.486 310.014 177.833C305.299 179.181 299.977 179.854 294.048 179.854C283.674 179.854 274.647 177.968 266.967 174.196C259.422 170.423 253.561 164.832 249.384 157.421C245.342 149.876 243.321 140.714 243.321 129.935C243.321 122.256 244.399 115.452 246.555 109.523C248.845 103.46 251.944 98.3404 255.851 94.1636C259.893 89.9868 264.676 86.8206 270.2 84.6649C275.725 82.3744 281.72 81.2291 288.187 81.2291C296.406 81.2291 303.614 82.9807 309.812 86.4838C316.145 89.9869 321.062 94.9046 324.566 101.237C328.203 107.435 330.022 114.576 330.022 122.66C330.022 125.624 329.349 127.78 328.001 129.127C326.654 130.34 324.768 131.081 322.342 131.35L254.437 140.849Z" fill="#121212"></path><path d="M359.237 140.849L358.428 128.117L419.463 119.83C418.924 112.42 416.364 106.357 411.783 101.641C407.202 96.7909 400.87 94.3657 392.786 94.3657C384.432 94.3657 377.493 97.3972 371.969 103.46C366.58 109.389 363.885 117.944 363.885 129.127V133.573C364.828 144.352 368.331 152.571 374.394 158.23C380.592 163.754 389.013 166.516 399.657 166.516C405.316 166.516 410.436 165.573 415.017 163.686C419.598 161.8 423.235 159.779 425.93 157.623C427.412 158.566 428.557 159.712 429.366 161.059C430.309 162.272 430.781 163.686 430.781 165.303C430.781 167.863 429.298 170.288 426.334 172.579C423.505 174.734 419.665 176.486 414.815 177.833C410.099 179.181 404.777 179.854 398.849 179.854C388.474 179.854 379.447 177.968 371.767 174.196C364.222 170.423 358.361 164.832 354.184 157.421C350.142 149.876 348.121 140.714 348.121 129.935C348.121 122.256 349.199 115.452 351.355 109.523C353.645 103.46 356.744 98.3404 360.652 94.1636C364.694 89.9868 369.477 86.8206 375.001 84.6649C380.525 82.3744 386.52 81.2291 392.988 81.2291C401.206 81.2291 408.415 82.9807 414.612 86.4838C420.945 89.9869 425.863 94.9046 429.366 101.237C433.004 107.435 434.823 114.576 434.823 122.66C434.823 125.624 434.149 127.78 432.802 129.127C431.454 130.34 429.568 131.081 427.143 131.35L359.237 140.849Z" fill="#121212"></path><path d="M474.344 101.237V133.169H458.176V102.45C458.176 99.3509 458.715 96.9257 459.793 95.1741C461.006 93.2878 462.959 91.4689 465.654 89.7174C469.157 87.4269 473.94 85.4733 480.003 83.8564C486.066 82.1049 492.803 81.2291 500.213 81.2291C510.992 81.2291 516.381 83.9238 516.381 89.3132C516.381 90.6605 516.179 91.9405 515.775 93.1531C515.371 94.231 514.832 95.1741 514.158 95.9825C512.811 95.713 511.059 95.4436 508.904 95.1741C506.748 94.9046 504.592 94.7699 502.436 94.7699C496.239 94.7699 490.782 95.4436 486.066 96.7909C481.351 98.0035 477.443 99.4856 474.344 101.237ZM458.176 123.872L474.344 126.298V176.823C473.671 177.092 472.66 177.362 471.313 177.631C469.965 178.035 468.483 178.238 466.867 178.238C464.037 178.238 461.881 177.699 460.399 176.621C458.917 175.408 458.176 173.522 458.176 170.962V123.872Z" fill="#121212"></path><path d="M601.231 152.369C601.231 160.992 598.064 167.728 591.732 172.579C585.399 177.429 576.237 179.854 564.246 179.854C554.006 179.854 545.653 178.305 539.186 175.206C532.718 171.972 529.485 168.469 529.485 164.697C529.485 163.08 529.889 161.531 530.697 160.048C531.64 158.432 532.988 157.152 534.739 156.209C538.377 158.769 542.621 161.126 547.472 163.282C552.322 165.438 557.846 166.516 564.044 166.516C578.056 166.516 585.062 161.8 585.062 152.369C585.062 148.461 583.85 145.295 581.425 142.87C579.134 140.31 575.698 138.491 571.118 137.413L554.343 132.967C546.124 130.946 540.129 127.847 536.356 123.67C532.584 119.359 530.697 114.037 530.697 107.704C530.697 100.563 533.594 94.3657 539.388 89.1111C545.181 83.8565 554.006 81.2291 565.863 81.2291C572.195 81.2291 577.719 81.9028 582.435 83.2501C587.151 84.4628 590.789 86.1469 593.349 88.3027C596.043 90.3237 597.391 92.5468 597.391 94.972C597.391 96.7235 596.919 98.273 595.976 99.6203C595.168 100.968 594.022 101.978 592.54 102.652C590.923 101.574 588.835 100.429 586.275 99.2161C583.85 97.8688 580.953 96.7909 577.585 95.9825C574.216 95.0394 570.511 94.5678 566.469 94.5678C560.541 94.5678 555.758 95.713 552.12 98.0035C548.482 100.294 546.663 103.528 546.663 107.704C546.663 110.669 547.674 113.296 549.695 115.586C551.851 117.742 555.219 119.359 559.8 120.437L573.745 123.872C582.907 126.028 589.778 129.464 594.359 134.18C598.94 138.761 601.231 144.824 601.231 152.369Z" fill="#121212"></path><defs><clipPath id="clip0_10_64"><rect width="105.714" height="146.134" fill="white" transform="translate(0.916992 38.8655)"></rect></clipPath></defs></svg>