<?xml version="1.0" ?>
<svg xmlns="http://www.w3.org/2000/svg" viewBox="0 0 239 39" fill="none">
	<path fill-rule="evenodd" clip-rule="evenodd" d="M138.008 18.0447V18.7394C138.008 18.8506 137.919 18.9406 137.811 18.9406H137.418C137.31 18.9406 137.222 18.8497 137.222 18.7394V18.0447C136.956 17.8999 136.775 17.6139 136.775 17.2838C136.775 16.8089 137.15 16.4232 137.615 16.4232C138.079 16.4232 138.455 16.808 138.455 17.2838C138.455 17.6139 138.274 17.8999 138.008 18.0447ZM137.614 21.617C138.389 20.767 139.071 19.8242 139.646 18.8021C140.221 17.7816 140.678 16.7047 141.008 15.5908C139.902 15.3277 138.765 15.1953 137.614 15.1953C136.463 15.1953 135.325 15.3286 134.218 15.5908C134.549 16.7047 135.006 17.7816 135.58 18.8021C136.156 19.8242 136.838 20.767 137.613 21.617H137.614Z" fill="#121212"/>
	<mask id="mask0_2377_334" maskUnits="userSpaceOnUse" x="134" y="15" width="8" height="7" mask-type="luminance">
		<path d="M138.008 18.0447V18.7394C138.008 18.8506 137.919 18.9406 137.811 18.9406H137.418C137.31 18.9406 137.222 18.8497 137.222 18.7394V18.0447C136.956 17.8999 136.775 17.6139 136.775 17.2838C136.775 16.8089 137.15 16.4232 137.615 16.4232C138.079 16.4232 138.455 16.808 138.455 17.2838C138.455 17.6139 138.274 17.8999 138.008 18.0447ZM137.614 21.617C138.389 20.767 139.071 19.8242 139.646 18.8021C140.221 17.7816 140.678 16.7047 141.008 15.5908C139.902 15.3277 138.765 15.1953 137.614 15.1953C136.463 15.1953 135.325 15.3286 134.218 15.5908C134.549 16.7047 135.006 17.7816 135.58 18.8021C136.156 19.8242 136.838 20.767 137.613 21.617H137.614Z" fill="white"/>
	</mask>
	<g mask="url(#mask0_2377_334)">
		<path d="M141.009 15.1953H134.219V21.617H141.009V15.1953Z" fill="#121212"/>
	</g>
	<path fill-rule="evenodd" clip-rule="evenodd" d="M151.334 9.31382C148.377 7.28359 144.967 5.89068 141.293 5.32751V7.9774C143.948 8.43288 146.498 9.38091 148.833 10.7924C148.867 14.4168 148.05 17.9714 146.451 21.2057L144.235 19.8948L142.018 18.5831C141.84 18.9592 141.647 19.329 141.442 19.6936C140.433 21.4855 139.138 23.0611 137.613 24.3658C137.03 23.8679 136.48 23.3295 135.969 22.7548L133.71 24.0903C134.849 25.4435 136.159 26.6334 137.613 27.63C139.75 26.1638 141.579 24.2792 143.008 22.0707L146.963 24.4099L147.439 24.6924C147.66 24.3419 147.873 23.9844 148.078 23.619C150.618 19.1136 151.648 14.1405 151.333 9.31294L151.334 9.31382Z" fill="#3B6EF8"/>
	<path fill-rule="evenodd" clip-rule="evenodd" d="M126.394 10.7924C129.44 8.95191 132.856 7.89796 136.387 7.69935V12.9435C136.793 12.9135 137.203 12.8994 137.614 12.8994C139.634 12.8994 141.612 13.2595 143.478 13.9604C143.348 14.7266 143.167 15.4831 142.938 16.2245L145.196 17.5601C145.771 15.8732 146.122 14.1158 146.237 12.3274C143.928 11.1631 141.423 10.4834 138.841 10.3201V5.07771C138.434 5.05741 138.025 5.04681 137.614 5.04681C132.536 5.04681 127.817 6.61892 123.894 9.31294C123.656 12.9515 124.183 16.673 125.544 20.2144L127.784 18.8894C126.841 16.3066 126.368 13.5694 126.394 10.7924Z" fill="#3B6EF8"/>
	<path fill-rule="evenodd" clip-rule="evenodd" d="M137.613 30.7019C134.533 28.9197 131.936 26.4172 130.002 23.3824L133.631 21.2366L134.436 20.7608C134.208 20.4148 133.99 20.059 133.785 19.6945C132.775 17.9017 132.09 15.9668 131.749 13.9613C132.462 13.693 133.192 13.4749 133.934 13.3081V10.637C132.22 10.9707 130.56 11.5383 128.991 12.3292C129.161 14.9596 129.839 17.523 130.992 19.8957L128.776 21.2066L128 21.6656L127.533 21.9419L126.56 22.5174C126.746 22.8881 126.942 23.2562 127.148 23.6217C129.687 28.127 133.375 31.5281 137.613 33.6616C140.808 32.0533 143.69 29.7247 146.003 26.7464L143.763 25.4215C142.051 27.5488 139.973 29.3381 137.613 30.7036V30.7019Z" fill="#3B6EF8"/>
	<path d="M228.876 15.8335V26.5944H227.07V15.8335H228.876ZM226.934 12.9792C226.934 12.6808 227.021 12.4289 227.196 12.2233C227.377 12.0178 227.643 11.915 227.992 11.915C228.335 11.915 228.597 12.0178 228.779 12.2233C228.966 12.4289 229.06 12.6808 229.06 12.9792C229.06 13.2643 228.966 13.5096 228.779 13.7152C228.597 13.9141 228.335 14.0135 227.992 14.0135C227.643 14.0135 227.377 13.9141 227.196 13.7152C227.021 13.5096 226.934 13.2643 226.934 12.9792Z" fill="black"/>
	<path d="M222.303 24.7545V19.2149C222.303 18.7906 222.219 18.4226 222.051 18.111C221.889 17.7927 221.643 17.5474 221.313 17.375C220.983 17.2026 220.575 17.1164 220.09 17.1164C219.637 17.1164 219.239 17.196 218.896 17.3551C218.56 17.5143 218.294 17.7231 218.1 17.9817C217.912 18.2403 217.819 18.5187 217.819 18.8171H216.023C216.023 18.4325 216.12 18.0513 216.314 17.6734C216.508 17.2955 216.786 16.954 217.149 16.649C217.518 16.3374 217.958 16.0921 218.469 15.9131C218.987 15.7274 219.563 15.6346 220.197 15.6346C220.961 15.6346 221.634 15.7672 222.216 16.0324C222.805 16.2976 223.265 16.6987 223.595 17.2358C223.931 17.7662 224.099 18.4325 224.099 19.2348V24.2473C224.099 24.6053 224.128 24.9866 224.187 25.391C224.251 25.7954 224.345 26.1435 224.468 26.4353V26.5944H222.595C222.504 26.3822 222.433 26.1004 222.381 25.749C222.329 25.391 222.303 25.0595 222.303 24.7545ZM222.614 20.0702L222.634 21.3631H220.818C220.307 21.3631 219.851 21.4062 219.449 21.4924C219.048 21.572 218.712 21.6946 218.44 21.8604C218.168 22.0261 217.961 22.235 217.819 22.4869C217.676 22.7323 217.605 23.0207 217.605 23.3522C217.605 23.6903 217.679 23.9986 217.828 24.2771C217.977 24.5556 218.2 24.7777 218.498 24.9435C218.802 25.1026 219.174 25.1821 219.614 25.1821C220.165 25.1821 220.65 25.0628 221.071 24.8241C221.491 24.5854 221.825 24.2937 222.07 23.9489C222.323 23.6041 222.459 23.2693 222.478 22.9444L223.245 23.8296C223.2 24.108 223.077 24.4164 222.876 24.7545C222.676 25.0926 222.407 25.4175 222.07 25.7291C221.74 26.0341 221.346 26.2894 220.886 26.4949C220.433 26.6938 219.922 26.7933 219.352 26.7933C218.64 26.7933 218.016 26.6507 217.479 26.3656C216.948 26.0805 216.534 25.6993 216.236 25.2219C215.945 24.7379 215.799 24.1976 215.799 23.6008C215.799 23.024 215.909 22.5168 216.129 22.0792C216.349 21.635 216.667 21.267 217.081 20.9753C217.495 20.6769 217.993 20.4515 218.576 20.299C219.158 20.1465 219.809 20.0702 220.527 20.0702H222.614Z" fill="black"/>
	<path d="M210.897 25.6198C210.897 25.3082 210.991 25.0463 211.178 24.8341C211.373 24.6153 211.651 24.5059 212.013 24.5059C212.376 24.5059 212.651 24.6153 212.839 24.8341C213.033 25.0463 213.13 25.3082 213.13 25.6198C213.13 25.9248 213.033 26.1834 212.839 26.3955C212.651 26.6077 212.376 26.7138 212.013 26.7138C211.651 26.7138 211.373 26.6077 211.178 26.3955C210.991 26.1834 210.897 25.9248 210.897 25.6198Z" fill="black"/>
	<path d="M206.713 23.7401C206.713 23.4749 206.655 23.2295 206.539 23.0041C206.429 22.7721 206.199 22.5632 205.849 22.3776C205.506 22.1853 204.989 22.0195 204.296 21.8803C203.714 21.7543 203.186 21.6051 202.714 21.4327C202.248 21.2604 201.85 21.0515 201.52 20.8062C201.196 20.5609 200.947 20.2724 200.772 19.9409C200.597 19.6094 200.51 19.2215 200.51 18.7773C200.51 18.353 200.601 17.9519 200.782 17.5739C200.97 17.196 201.232 16.8612 201.568 16.5694C201.911 16.2777 202.322 16.049 202.801 15.8832C203.28 15.7175 203.814 15.6346 204.403 15.6346C205.244 15.6346 205.963 15.7871 206.558 16.0921C207.153 16.3971 207.61 16.8048 207.927 17.3154C208.244 17.8193 208.402 18.3795 208.402 18.9961H206.606C206.606 18.6978 206.519 18.4093 206.344 18.1309C206.176 17.8458 205.927 17.6104 205.597 17.4248C205.273 17.2391 204.875 17.1463 204.403 17.1463C203.905 17.1463 203.5 17.2258 203.189 17.385C202.885 17.5375 202.662 17.7331 202.52 17.9717C202.384 18.2104 202.316 18.4624 202.316 18.7276C202.316 18.9265 202.348 19.1055 202.413 19.2646C202.484 19.4171 202.607 19.5597 202.782 19.6923C202.956 19.8183 203.202 19.9376 203.519 20.0503C203.837 20.163 204.241 20.2758 204.733 20.3885C205.594 20.5874 206.302 20.8261 206.859 21.1045C207.415 21.383 207.83 21.7245 208.101 22.1289C208.373 22.5334 208.509 23.024 208.509 23.6008C208.509 24.0716 208.412 24.5025 208.218 24.8937C208.03 25.2849 207.755 25.6231 207.393 25.9082C207.037 26.1866 206.61 26.4054 206.111 26.5646C205.62 26.7171 205.066 26.7933 204.451 26.7933C203.526 26.7933 202.743 26.6242 202.102 26.2861C201.461 25.9479 200.976 25.5103 200.646 24.9733C200.316 24.4362 200.151 23.8694 200.151 23.2726H201.957C201.982 23.7765 202.125 24.1777 202.384 24.476C202.643 24.7678 202.96 24.9766 203.335 25.1026C203.71 25.2219 204.082 25.2816 204.451 25.2816C204.943 25.2816 205.354 25.2153 205.684 25.0827C206.021 24.9501 206.276 24.7678 206.451 24.5357C206.626 24.3036 206.713 24.0384 206.713 23.7401Z" fill="black"/>
	<path d="M195.656 17.5242V26.5944H193.86V15.8335H195.608L195.656 17.5242ZM198.937 15.7738L198.928 17.4844C198.779 17.4513 198.637 17.4314 198.501 17.4248C198.371 17.4115 198.222 17.4049 198.054 17.4049C197.64 17.4049 197.274 17.4712 196.957 17.6038C196.64 17.7364 196.371 17.922 196.151 18.1607C195.931 18.3994 195.757 18.6845 195.627 19.016C195.504 19.3409 195.423 19.6989 195.384 20.0901L194.88 20.3885C194.88 19.7387 194.941 19.1287 195.064 18.5585C195.194 17.9883 195.391 17.4844 195.656 17.0468C195.922 16.6026 196.258 16.2578 196.666 16.0125C197.08 15.7606 197.572 15.6346 198.141 15.6346C198.271 15.6346 198.42 15.6512 198.588 15.6843C198.756 15.7108 198.873 15.7407 198.937 15.7738Z" fill="black"/>
	<path d="M187.676 26.7933C186.945 26.7933 186.282 26.6673 185.686 26.4154C185.097 26.1568 184.589 25.7954 184.162 25.3313C183.741 24.8672 183.418 24.3169 183.191 23.6804C182.965 23.0439 182.852 22.3477 182.852 21.5919V21.1742C182.852 20.299 182.978 19.5199 183.23 18.837C183.483 18.1474 183.826 17.564 184.259 17.0866C184.693 16.6092 185.185 16.2479 185.735 16.0026C186.285 15.7572 186.854 15.6346 187.443 15.6346C188.194 15.6346 188.841 15.7672 189.385 16.0324C189.935 16.2976 190.385 16.6689 190.734 17.1463C191.084 17.617 191.343 18.174 191.511 18.8171C191.679 19.4536 191.763 20.1498 191.763 20.9056V21.7311H183.919V20.2293H189.967V20.0901C189.941 19.6127 189.844 19.1486 189.676 18.6978C189.514 18.2469 189.255 17.8756 188.899 17.5839C188.543 17.2921 188.058 17.1463 187.443 17.1463C187.036 17.1463 186.66 17.2358 186.317 17.4148C185.974 17.5872 185.68 17.8458 185.434 18.1905C185.188 18.5353 184.997 18.9563 184.861 19.4536C184.725 19.9509 184.657 20.5244 184.657 21.1742V21.5919C184.657 22.1024 184.725 22.5831 184.861 23.0339C185.003 23.4782 185.207 23.8694 185.473 24.2075C185.744 24.5456 186.071 24.8109 186.453 25.0031C186.841 25.1954 187.281 25.2915 187.773 25.2915C188.408 25.2915 188.945 25.1589 189.385 24.8937C189.825 24.6285 190.21 24.2738 190.54 23.8296L191.627 24.7147C191.401 25.0661 191.113 25.4009 190.763 25.7192C190.414 26.0375 189.983 26.296 189.472 26.4949C188.967 26.6938 188.369 26.7933 187.676 26.7933Z" fill="black"/>
	<path d="M177.134 26.7933C176.402 26.7933 175.739 26.6673 175.144 26.4154C174.555 26.1568 174.047 25.7954 173.62 25.3313C173.199 24.8672 172.875 24.3169 172.649 23.6804C172.422 23.0439 172.309 22.3477 172.309 21.5919V21.1742C172.309 20.299 172.435 19.5199 172.688 18.837C172.94 18.1474 173.283 17.564 173.717 17.0866C174.15 16.6092 174.642 16.2479 175.192 16.0026C175.742 15.7572 176.312 15.6346 176.901 15.6346C177.652 15.6346 178.299 15.7672 178.842 16.0324C179.392 16.2976 179.842 16.6689 180.192 17.1463C180.541 17.617 180.8 18.174 180.968 18.8171C181.137 19.4536 181.221 20.1498 181.221 20.9056V21.7311H173.377V20.2293H179.425V20.0901C179.399 19.6127 179.302 19.1486 179.134 18.6978C178.972 18.2469 178.713 17.8756 178.357 17.5839C178.001 17.2921 177.516 17.1463 176.901 17.1463C176.493 17.1463 176.118 17.2358 175.775 17.4148C175.432 17.5872 175.137 17.8458 174.891 18.1905C174.645 18.5353 174.454 18.9563 174.319 19.4536C174.183 19.9509 174.115 20.5244 174.115 21.1742V21.5919C174.115 22.1024 174.183 22.5831 174.319 23.0339C174.461 23.4782 174.665 23.8694 174.93 24.2075C175.202 24.5456 175.529 24.8109 175.911 25.0031C176.299 25.1954 176.739 25.2915 177.231 25.2915C177.865 25.2915 178.402 25.1589 178.842 24.8937C179.282 24.6285 179.667 24.2738 179.998 23.8296L181.085 24.7147C180.858 25.0661 180.57 25.4009 180.221 25.7192C179.871 26.0375 179.441 26.296 178.93 26.4949C178.425 26.6938 177.826 26.7933 177.134 26.7933Z" fill="black"/>
	<path d="M168.776 22.9345C168.776 22.5964 168.724 22.298 168.62 22.0394C168.523 21.7742 168.348 21.5355 168.096 21.3234C167.85 21.1112 167.507 20.909 167.067 20.7167C166.633 20.5244 166.083 20.3288 165.417 20.1299C164.718 19.9178 164.087 19.6824 163.524 19.4238C162.961 19.1586 162.479 18.8569 162.077 18.5188C161.676 18.1806 161.369 17.7928 161.155 17.3552C160.942 16.9176 160.835 16.417 160.835 15.8534C160.835 15.2898 160.948 14.7694 161.175 14.292C161.401 13.8146 161.725 13.4002 162.145 13.0488C162.572 12.6908 163.08 12.4123 163.669 12.2134C164.258 12.0145 164.915 11.915 165.64 11.915C166.701 11.915 167.601 12.1239 168.339 12.5416C169.083 12.9527 169.649 13.493 170.038 14.1627C170.426 14.8257 170.62 15.5352 170.62 16.291H168.756C168.756 15.7473 168.643 15.2666 168.416 14.8489C168.19 14.4246 167.847 14.0931 167.387 13.8544C166.928 13.6091 166.345 13.4864 165.64 13.4864C164.973 13.4864 164.423 13.5892 163.99 13.7947C163.556 14.0003 163.233 14.2787 163.019 14.6301C162.812 14.9815 162.708 15.3827 162.708 15.8335C162.708 16.1385 162.77 16.417 162.893 16.6689C163.022 16.9143 163.22 17.143 163.485 17.3552C163.757 17.5673 164.1 17.7629 164.514 17.9419C164.935 18.121 165.436 18.2933 166.019 18.4591C166.821 18.6912 167.514 18.9497 168.096 19.2348C168.679 19.5199 169.157 19.8415 169.533 20.1995C169.915 20.5509 170.196 20.9521 170.377 21.4029C170.565 21.8472 170.659 22.3511 170.659 22.9146C170.659 23.5047 170.542 24.0385 170.309 24.5158C170.076 24.9932 169.743 25.401 169.31 25.7391C168.876 26.0773 168.355 26.3392 167.747 26.5248C167.145 26.7038 166.472 26.7933 165.727 26.7933C165.074 26.7933 164.43 26.7005 163.796 26.5149C163.168 26.3292 162.595 26.0507 162.077 25.6794C161.566 25.3082 161.155 24.8507 160.844 24.307C160.54 23.7567 160.388 23.1202 160.388 22.3975H162.252C162.252 22.8947 162.346 23.3224 162.534 23.6804C162.721 24.0318 162.977 24.3236 163.3 24.5556C163.631 24.7877 164.003 24.9601 164.417 25.0728C164.838 25.1789 165.274 25.2319 165.727 25.2319C166.381 25.2319 166.934 25.1391 167.387 24.9534C167.84 24.7678 168.183 24.5026 168.416 24.1578C168.656 23.813 168.776 23.4053 168.776 22.9345Z" fill="black"/>
</svg>