<?xml version="1.0" ?>
<svg xmlns="http://www.w3.org/2000/svg" viewBox="0 0 1055 299" fill="none">
	<path d="M1034.68 132.556v13.068h1.76v-9.421h.13l3.58 9.421h1.46l3.59-9.421h.12v9.421h1.76v-13.068h-2.25l-3.89 10.15h-.12l-3.89-10.15h-2.25Zm-7.72 1.702v11.366h1.83v-11.366h3.76v-1.702h-9.42v1.702h3.83Zm27.96-128.666h-29.48v2.491c0 38.23-12.88 68.132-38.712 88.675-18.902 14.708-41.815 21.394-65.58 23.278H918.9v31.605h2.248c10.758-.608 49.777-4.619 83.692-31.666 22.85-18.172 50.02-52.39 50.02-111.892V5.592h.06ZM145.259 95.968c-2.249-24.007 27.775-36.284 42.484-17.868l-42.484 17.868Zm8.691-46.191c-16.957 5.045-33.245 23.521-33.245 50.385 0 29.173 23.035 51.479 46.191 52.573 41.086 0 50.506-37.622 50.689-39.08h-25.953a24.921 24.921 0 0 1-21.636 12.581c-8.935 0-15.681-4.802-19.692-9.907l67.767-28.08c-5.592-26.863-30.268-48.561-64.121-38.472Zm369.408 46.191c-2.249-24.007 27.775-36.284 42.483-17.868l-42.483 17.868Zm8.63-46.191c-16.957 5.045-33.245 23.521-33.245 50.385 0 29.173 23.034 51.479 46.191 52.573 41.086 0 50.506-37.622 50.688-39.08H569.67a24.922 24.922 0 0 1-21.637 12.581c-8.934 0-15.68-4.802-19.692-9.907l67.768-28.08c-5.592-26.863-30.268-48.561-64.121-38.472Zm369.468 6.929c-3.282-4.741-7.475-7.901-12.581-10.15-5.105-2.249-10.696-2.735-17.017-2.735-12.095 0-23.521 7.476-28.87 16.349V0h-26.985v151.641h27.046V93.416c0-18.842 6.017-26.5 20.968-26.5 6.504 0 11.183 2.492 13.493 7.476 1.884 3.708 2.796 8.448 2.796 14.1v63.209h27.228v-60.96c0-9.663-.243-17.382-.911-21.576-.73-4.437-2.553-8.752-5.167-12.46Zm-647.83-36.467h-26.864v131.402h26.864V20.239Zm26.742 20.604v6.32h-16.532v22.914h16.532v81.077h26.803V70.077h19.57V47.164h-19.57v-3.89c0-9.603 3.647-13.371 12.642-13.371h6.928V7.233H308.63c-17.869 0-28.262 14.404-28.262 33.61Zm504.881-30.207h-26.803v35.616h-18.355v23.825h18.355v50.445c0 21.637 14.405 30.572 27.836 30.572h18.538v-29.295c-18.538 0-19.571-1.277-19.571-15.681V70.077h19.571V46.252h-19.571V10.575v.061Zm-54.092 14.405h-26.864v126.6h26.864v-126.6Zm-70.381 102.532c-3.768 5.713-10.697 7.597-19.145 7.597-3.586 0-7.111-.973-9.603-3.1-2.431-2.127-3.768-5.47-3.768-9.967 0-5.227 1.58-8.327 5.774-10.697 2.431-1.398 6.443-2.614 12.034-3.586l6.017-1.155c6.26-1.216 6.929-.729 12.277-4.011 0 8.083.912 18.476-3.586 24.919Zm17.14-73.298c-8.448-4.498-18.963-5.957-30.085-5.957-7.355 0-13.615 1.398-19.145 3.1-14.709 4.74-21.82 14.465-23.643 30.571h25.648c2.249-9.238 6.26-14.222 16.289-14.222 10.028 0 17.139 1.398 17.139 13.98 0 3.342-1.762 5.955-5.591 7.596-2.006.973-5.592 1.641-10.454 2.37l-9.117 1.156c-14.465 1.64-27.168 2.856-34.339 18.476-5.106 11.365-3.586 26.074 6.442 35.13 6.017 5.226 12.946 7.597 22.062 7.597 9.117 0 25.831-2.371 32.517-13.067v10.575h25.162V79.862c0-12.338-4.255-21.09-12.946-25.587h.061Zm-204.7-18.234c-2.006 43.821-11.791 75.182-24.129 88.432l-21.272-72.569h-25.709c0 40.843-10.089 59.38-22.366 72.569l-19.024-66.795h-25.77l26.56 93.963h22.367c4.801 0 24.311-11.609 34.947-47.833l12.095 47.833h22.366c6.746 0 42.362-33.854 45.522-115.6h-25.648.061ZM98.399 73.906c-5.348-4.194-12.094-7.172-19.327-8.934-5.349-1.216-12.581-2.735-19.753-4.68-9.056-2.492-18.172-5.714-23.278-10.636-6.26-5.714-3.95-14.587 3.282-19.814 8.145-5.713 24.19-4.437 32.577 0 6.746 3.707 7.901 9.907 8.387 18.537h28.627c.486-15.377-4.194-26.985-14.404-35.13C84.177 5.106 71.413 1.156 56.949 1.156c-17.443 0-30.45 4.193-39.506 12.885-4.68 4.68-8.144 8.934-10.454 14.1C.486 42.97 4.68 65.032 17.93 74.696 39.81 89.283 62.844 87.338 79.133 97.73c6.99 4.436 8.387 14.586 3.039 21.515-4.194 5.227-11.609 6.929-19.996 7.415-22.123 1.216-33.732-8.934-33.246-26.742H0c0 15.073 4.62 30.449 15.134 38.837 10.453 8.448 26.256 12.885 44.185 12.885 13.493 0 27.229-3.222 37.44-10.393a38.062 38.062 0 0 0 13.006-15.073c2.552-5.713 4.193-12.399 4.193-20.3 0-14.1-6.017-24.737-15.559-31.908v-.061Z" fill="url(#svg2045448610_6644_a)"/>
	<defs>
		<linearGradient id="svg2045448610_6644_a" x1="0" y1="77.036" x2="1054.92" y2="77.036" gradientUnits="userSpaceOnUse">
			<stop stop-color="#0EC126"/>
			<stop offset="1" stop-color="#42D756"/>
		</linearGradient>
	</defs>
</svg>