<?xml version="1.0" ?>
<svg xmlns="http://www.w3.org/2000/svg" viewBox="0 0 120 60">
	<path d="M 51.973,32.834 A 2.49,2.49 0.0 0,1 50.931,34.93 C 50.264,35.42 49.451,35.675 48.624,35.65 C 48.274,35.65 48.074,35.638 48.027,35.62 C 47.927,35.573 47.881,35.433 47.881,35.193 A 5.83,5.83 0.0 0,0 47.834,34.613 A 5.06,5.06 0.0 0,1 47.787,34.045 C 47.787,33.969 47.834,33.915 47.939,33.893 C 48.015,33.875 48.126,33.875 48.267,33.893 L 48.53,33.923 C 49.63,33.923 50.187,33.583 50.187,32.903 C 50.187,32.581 49.941,32.288 49.455,32.025 A 13.79,13.79 0.0 0,1 48.097,31.223 A 2.05,2.05 0.0 0,1 47.371,29.59 C 47.371,28.712 47.699,28.033 48.366,27.54 A 3.71,3.71 0.0 0,1 50.626,26.884 C 50.704,26.88 50.776,26.927 50.802,27.001 C 50.842,27.071 50.919,27.301 51.024,27.704 L 51.188,28.424 C 51.188,28.488 51.128,28.529 51.018,28.547 L 49.888,28.699 C 49.438,28.816 49.215,29.069 49.215,29.431 C 49.215,29.694 49.449,29.958 49.918,30.233 C 50.621,30.619 51.071,30.906 51.258,31.083 C 51.738,31.539 51.998,32.179 51.972,32.839 M 58.576,30.292 C 58.573,29.802 58.366,29.334 58.002,29.004 A 1.81,1.81 0.0 0,0 56.714,28.442 C 56.174,28.442 55.694,28.659 55.28,29.092 C 54.882,29.472 54.654,29.995 54.648,30.544 C 54.648,30.674 54.753,30.731 54.964,30.731 C 55.831,30.731 56.867,30.643 58.067,30.468 C 58.407,30.421 58.577,30.363 58.577,30.292 M 60.677,30.825 C 60.677,31.258 60.49,31.551 60.115,31.691 C 59.863,31.785 58.055,31.961 54.688,32.211 C 54.764,32.726 55.045,33.165 55.538,33.521 C 56.006,33.871 56.51,34.041 57.048,34.041 C 57.968,34.041 58.816,33.741 59.588,33.145 L 59.868,32.917 C 59.915,32.917 59.944,32.923 59.962,32.935 L 60.29,33.545 L 60.594,34.183 C 60.594,34.218 60.547,34.283 60.454,34.383 A 4.34,4.34 0.0 0,1 57.152,35.747 C 55.794,35.747 54.712,35.349 53.902,34.535 C 53.1,33.727 52.696,32.65 52.696,31.297 C 52.696,30.091 53.082,29.043 53.849,28.153 C 54.584,27.259 55.684,26.747 56.841,26.76 A 3.57,3.57 0.0 0,1 59.593,27.966 A 4.07,4.07 0.0 0,1 60.676,30.823 M 75.231,35.208 C 75.231,35.436 75.167,35.548 75.031,35.548 A 4.18,4.18 0.0 0,1 74.633,35.525 C 74.349,35.495 74.063,35.492 73.778,35.513 L 73.328,35.531 C 73.211,35.531 73.148,35.396 73.148,35.131 L 73.178,33.925 L 73.19,30.248 C 73.143,29.645 73.02,29.228 72.82,29.008 C 72.598,28.762 72.188,28.638 71.602,28.638 C 71.232,28.638 70.817,28.814 70.355,29.165 C 69.881,29.528 69.629,29.897 69.611,30.248 L 69.646,35.324 C 69.646,35.482 69.593,35.558 69.488,35.558 A 5.36,5.36 0.0 0,1 69.031,35.535 A 6.33,6.33 0.0 0,0 67.743,35.541 C 67.626,35.541 67.567,35.459 67.567,35.289 L 67.597,34.024 L 67.62,32.754 L 67.62,30.646 C 67.62,29.984 67.544,29.516 67.386,29.236 C 67.164,28.838 66.742,28.639 66.116,28.639 C 65.741,28.639 65.308,28.791 64.799,29.107 C 64.237,29.441 63.956,29.78 63.956,30.127 L 63.956,32.687 L 63.974,35.292 C 63.974,35.462 63.904,35.544 63.774,35.544 L 62.134,35.544 C 62.017,35.544 61.958,35.468 61.958,35.31 L 61.976,31.042 A 15.22,15.22 0.0 0,0 61.607,27.658 C 61.607,27.582 61.637,27.541 61.689,27.528 L 62.632,27.393 C 62.825,27.333 63.118,27.276 63.504,27.2 L 63.574,27.194 C 63.644,27.194 63.709,27.399 63.767,27.814 C 63.827,28.214 63.884,28.429 63.931,28.429 L 64.371,28.043 A 5.15,5.15 0.0 0,1 65.407,27.335 A 3.22,3.22 0.0 0,1 66.894,26.949 C 68.241,26.949 69.094,27.499 69.47,28.594 A 4.46,4.46 0.0 0,1 70.817,27.441 C 71.33,27.141 71.917,26.961 72.515,26.949 C 73.598,26.949 74.348,27.265 74.763,27.897 C 75.056,28.365 75.208,29.103 75.208,30.11 L 75.19,31.006 L 75.202,33.566 L 75.225,35.223 M 83.258,31.283 A 2.81,2.81 0.0 0,0 82.614,29.427 A 2.13,2.13 0.0 0,0 80.893,28.596 A 2.21,2.21 0.0 0,0 79.137,29.422 A 2.76,2.76 0.0 0,0 78.464,31.278 C 78.464,31.986 78.686,32.601 79.137,33.122 C 79.564,33.642 80.204,33.942 80.877,33.94 C 81.55,33.938 82.177,33.64 82.609,33.105 C 83.037,32.595 83.266,31.945 83.253,31.278 M 85.495,27.618 L 85.465,27.776 A 20.97,20.97 0.0 0,0 85.125,31.23 L 85.342,35.17 L 85.354,35.287 C 85.354,35.463 85.284,35.545 85.12,35.545 C 84.962,35.545 84.716,35.563 84.394,35.605 L 83.668,35.665 C 83.558,35.665 83.475,35.46 83.416,35.05 C 83.357,34.64 83.299,34.435 83.246,34.435 C 83.211,34.435 83.053,34.552 82.778,34.775 C 82.428,35.055 82.105,35.273 81.812,35.419 C 81.344,35.653 80.887,35.769 80.424,35.769 C 79.31,35.779 78.254,35.269 77.554,34.411 A 4.52,4.52 0.0 0,1 76.447,31.384 C 76.447,30.09 76.822,29.019 77.559,28.164 A 3.9,3.9 0.0 0,1 80.633,26.847 C 81.529,26.847 82.307,27.147 82.975,27.777 L 83.443,28.281 L 83.49,28.311 C 83.525,28.311 83.578,28.124 83.642,27.761 C 83.702,27.391 83.788,27.205 83.888,27.205 C 84.04,27.205 84.338,27.252 84.772,27.34 C 85.252,27.445 85.492,27.54 85.492,27.62 M 91.802,33.937 A 5.34,5.34 0.0 0,1 91.767,34.464 L 91.714,34.991 C 91.714,35.101 91.702,35.167 91.691,35.191 C 91.668,35.231 91.609,35.273 91.527,35.308 C 91.041,35.542 90.292,35.658 89.261,35.658 C 87.891,35.658 87.211,35.032 87.211,33.796 L 87.241,31.554 L 87.276,29.317 C 87.276,29.083 87.159,28.947 86.919,28.931 L 86.275,28.925 C 86.158,28.895 86.095,28.655 86.095,28.205 A 4.21,4.21 0.0 0,1 86.13,27.672 C 86.148,27.532 86.247,27.444 86.41,27.414 L 86.837,27.408 C 87.107,27.396 87.237,27.273 87.237,27.045 L 87.19,24.902 C 87.19,24.475 87.272,24.258 87.436,24.258 C 87.489,24.258 88.039,24.352 89.086,24.533 C 89.216,24.551 89.286,24.615 89.286,24.726 C 89.286,24.984 89.268,25.37 89.226,25.879 L 89.166,27.039 C 89.166,27.209 89.248,27.291 89.406,27.291 L 91.514,27.291 C 91.608,27.291 91.66,27.326 91.66,27.396 C 91.66,27.466 91.648,27.576 91.63,27.736 C 91.59,27.984 91.58,28.236 91.607,28.486 L 91.613,28.89 C 91.613,29.0 91.531,29.054 91.367,29.054 A 19.14,19.14 0.0 0,1 90.313,29.007 L 89.247,28.96 C 89.2,28.96 89.165,29.124 89.142,29.458 L 89.095,31.203 L 89.095,32.509 C 89.095,33.013 89.142,33.364 89.235,33.563 C 89.375,33.863 89.668,34.013 90.107,34.013 C 90.283,34.013 90.552,33.978 90.903,33.896 C 91.253,33.82 91.513,33.779 91.683,33.779 C 91.753,33.779 91.788,33.832 91.788,33.937 M 98.386,30.307 C 98.383,29.817 98.176,29.349 97.812,29.019 A 1.81,1.81 0.0 0,0 96.518,28.457 C 95.978,28.457 95.498,28.674 95.084,29.107 C 94.688,29.487 94.462,30.01 94.458,30.559 C 94.458,30.689 94.563,30.746 94.774,30.746 C 95.634,30.746 96.671,30.658 97.877,30.483 C 98.217,30.436 98.387,30.378 98.387,30.307 M 100.471,30.84 C 100.471,31.273 100.284,31.566 99.909,31.706 C 99.663,31.8 97.849,31.976 94.482,32.226 C 94.558,32.741 94.845,33.18 95.337,33.536 C 95.805,33.886 96.303,34.056 96.842,34.056 A 4.07,4.07 0.0 0,0 99.664,32.932 C 99.711,32.932 99.746,32.938 99.758,32.95 C 99.776,32.962 99.881,33.167 100.086,33.56 C 100.202,33.766 100.306,33.98 100.386,34.198 C 100.386,34.233 100.339,34.298 100.246,34.398 A 4.34,4.34 0.0 0,1 96.938,35.762 C 95.58,35.762 94.502,35.364 93.694,34.55 C 92.886,33.742 92.482,32.665 92.482,31.312 A 4.64,4.64 0.0 0,1 93.641,28.168 C 94.374,27.276 95.471,26.763 96.627,26.775 A 3.57,3.57 0.0 0,1 99.379,27.981 A 4.07,4.07 0.0 0,1 100.462,30.838 M 108.262,35.388 C 108.262,35.47 108.198,35.528 108.075,35.558 A 6.38,6.38 0.0 0,1 107.378,35.546 C 106.921,35.546 106.64,35.493 106.548,35.388 L 104.92,33.046 C 104.854,32.946 104.775,32.852 104.686,32.771 C 104.628,32.771 104.3,33.216 103.696,34.111 C 103.086,35.018 102.712,35.487 102.584,35.516 C 102.454,35.534 102.04,35.5465 101.344,35.5465 C 101.204,35.5465 101.134,35.493 101.134,35.3884 L 101.134,34.434 C 101.134,34.374 101.52,33.866 102.299,32.929 L 103.469,31.377 C 103.469,31.289 103.077,30.78 102.299,29.843 L 101.129,28.297 L 101.129,27.36 C 101.129,27.243 101.205,27.184 101.346,27.184 C 101.487,27.184 101.709,27.196 102.002,27.219 L 102.658,27.254 C 102.74,27.254 102.816,27.294 102.88,27.377 L 104.46,29.725 C 104.524,29.83 104.598,29.928 104.682,30.018 C 104.699,30.018 104.764,29.942 104.875,29.784 L 106.549,27.344 C 106.607,27.262 106.679,27.227 106.754,27.227 L 107.398,27.204 L 108.042,27.186 C 108.188,27.186 108.264,27.246 108.264,27.362 L 108.264,28.282 C 108.264,28.387 107.872,28.908 107.094,29.845 L 105.924,31.385 C 105.924,31.445 106.31,31.947 107.094,32.885 C 107.874,33.822 108.264,34.349 108.264,34.455 L 108.264,35.392 M 114.364,33.94 A 5.31,5.31 0.0 0,1 114.329,34.467 L 114.247,35.193 C 114.23,35.233 114.171,35.275 114.083,35.31 C 113.603,35.544 112.853,35.66 111.817,35.66 C 110.453,35.66 109.767,35.034 109.767,33.798 L 109.837,29.318 C 109.837,29.084 109.72,28.948 109.48,28.932 L 108.836,28.926 C 108.719,28.896 108.656,28.656 108.656,28.206 A 4.21,4.21 0.0 0,1 108.691,27.673 C 108.708,27.533 108.801,27.445 108.971,27.415 L 109.398,27.409 C 109.668,27.397 109.802,27.274 109.802,27.046 L 109.779,25.98 L 109.762,24.903 C 109.762,24.476 109.844,24.259 110.008,24.259 C 110.055,24.259 110.605,24.353 111.653,24.534 C 111.788,24.552 111.858,24.616 111.858,24.727 C 111.858,24.985 111.835,25.371 111.798,25.88 L 111.74,27.04 C 111.74,27.21 111.822,27.292 111.974,27.292 L 114.082,27.292 C 114.182,27.292 114.228,27.327 114.228,27.397 A 2.38,2.38 0.0 0,1 114.199,27.737 A 2.85,2.85 0.0 0,0 114.176,28.486 L 114.188,28.89 C 114.188,29.0 114.106,29.054 113.942,29.054 C 113.708,29.054 113.357,29.036 112.882,29.007 L 111.816,28.96 C 111.769,28.96 111.734,29.124 111.711,29.458 L 111.671,31.203 L 111.671,32.509 C 111.671,33.013 111.718,33.364 111.811,33.563 C 111.951,33.863 112.238,34.013 112.678,34.013 C 112.858,34.013 113.128,33.978 113.48,33.896 C 113.83,33.82 114.09,33.779 114.26,33.779 C 114.33,33.779 114.365,33.832 114.365,33.937" fill="#00202f"/>
	<g fill="#1fa0ed">
		<path d="M 28.336,15.787 C 27.298,15.781 26.573,15.882 26.573,15.882 C 19.379,15.79 18.993,25.202 18.993,25.202 C 18.658,25.202 18.239,25.244 17.946,25.452 C 16.019,26.918 17.652,28.718 17.652,28.718 A 17.89,17.89 0.0 0,0 17.242,29.08 C 17.138,28.92 17.038,28.71 16.967,28.5 C 14.873,28.458 14.037,27.914 13.867,27.034 C 13.657,25.987 14.244,24.814 15.249,24.857 C 16.715,24.899 16.003,25.82 15.794,25.82 C 15.585,25.82 15.459,25.736 15.374,25.652 C 15.248,25.526 15.08,25.612 15.08,25.778 C 15.08,26.198 15.54,26.783 16.462,26.322 C 17.3,25.902 17.342,25.232 17.09,24.689 C 16.84,24.019 16.337,23.684 15.75,23.559 L 15.708,23.434 C 15.708,23.308 15.582,23.234 15.508,23.234 L 15.088,23.192 C 14.962,23.192 14.878,23.234 14.838,23.36 L 14.798,23.57 C 14.421,23.612 14.044,23.696 13.751,23.822 L 13.551,23.654 C 13.467,23.57 13.341,23.612 13.258,23.654 L 12.965,23.906 C 12.881,23.99 12.839,24.073 12.881,24.198 L 12.965,24.366 C 12.765,24.576 12.505,24.868 12.337,25.161 L 12.212,25.121 C 12.086,25.079 12.012,25.161 11.918,25.246 L 11.75,25.623 C 11.708,25.707 11.708,25.833 11.792,25.916 L 11.917,26.084 C 11.624,27.214 11.959,28.597 13.844,29.854 A 15.89,15.89 0.0 0,0 14.514,30.273 L 14.431,30.693 C 14.389,30.819 14.473,30.986 14.599,31.028 L 15.059,31.228 C 15.174,31.266 15.289,31.264 15.404,31.168 C 14.604,32.354 14.247,33.398 12.728,35.048 C 11.89,35.968 10.928,36.388 10.048,36.388 C 8.666,36.388 7.535,35.298 7.661,33.708 C 7.745,32.535 8.625,31.823 9.588,31.656 C 9.714,31.614 9.838,31.616 9.964,31.616 C 11.011,31.616 11.514,32.496 11.094,33.333 C 11.094,33.333 10.759,34.171 10.089,34.213 L 10.047,34.213 C 9.419,34.213 9.503,33.501 9.712,33.333 C 9.754,33.291 9.838,33.291 9.88,33.291 C 10.006,33.291 10.09,33.375 10.215,33.375 C 10.257,33.375 10.298,33.375 10.34,33.333 C 10.633,33.207 10.592,32.957 10.592,32.957 C 10.55,32.622 10.298,32.497 9.962,32.497 C 9.752,32.497 9.502,32.58 9.334,32.664 C 8.706,32.999 8.539,33.921 8.958,34.507 C 9.208,34.884 9.628,35.093 10.131,35.093 C 11.011,35.093 12.099,34.465 12.518,33.208 C 12.938,31.994 12.015,29.942 9.88,29.942 A 4.17,4.17 0.0 0,0 8.372,30.235 C 3.765,31.91 5.902,39.7 9.962,39.7 A 2.76,2.76 0.0 0,0 10.549,39.658 C 11.429,39.491 12.224,39.072 12.979,38.528 L 13.063,38.611 C 13.147,38.695 13.23,38.737 13.313,38.737 C 13.396,38.737 13.48,38.695 13.563,38.653 L 13.94,38.318 C 14.066,38.234 14.107,38.068 14.066,37.898 L 13.983,37.648 C 14.276,37.398 14.527,37.104 14.779,36.852 L 14.904,36.935 C 14.988,36.977 15.03,36.977 15.104,36.977 A 0.38,0.38 0.0 0,0 15.397,36.852 L 15.691,36.475 C 15.775,36.349 15.816,36.182 15.731,36.055 L 15.606,35.855 C 15.856,35.52 16.108,35.227 16.36,34.935 L 16.444,34.977 C 16.486,35.019 16.57,35.017 16.644,35.017 C 16.77,35.017 16.854,34.975 16.937,34.849 L 17.23,34.473 C 17.314,34.347 17.356,34.18 17.272,34.053 L 17.188,33.885 C 17.648,33.34 18.026,33.005 18.318,33.005 C 18.485,33.005 18.611,33.13 18.738,33.381 C 18.822,33.548 18.905,33.758 19.073,34.011 L 19.031,34.051 C 18.863,34.177 18.821,34.386 18.948,34.554 L 19.198,34.974 A 0.38,0.38 0.0 0,0 19.533,35.142 L 19.701,35.142 L 20.246,36.062 C 20.078,36.188 20.046,36.397 20.162,36.565 L 20.414,36.985 A 0.38,0.38 0.0 0,0 20.748,37.153 L 20.832,37.153 L 20.957,37.113 C 21.125,37.406 21.334,37.699 21.544,37.993 L 21.502,38.035 C 21.376,38.161 21.334,38.37 21.46,38.538 L 21.753,38.914 C 21.837,38.998 21.921,39.082 22.047,39.082 L 22.172,39.082 L 22.255,39.042 C 24.14,41.722 26.443,44.235 28.202,44.235 L 28.285,44.235 C 31.425,44.11 31.259,37.619 29.039,37.619 C 28.913,37.619 28.789,37.619 28.662,37.659 C 27.238,38.079 27.322,39.837 27.322,39.837 C 27.322,39.837 28.034,38.832 28.452,38.832 C 28.787,38.832 28.997,39.334 28.746,41.052 C 28.662,41.68 28.411,41.974 28.118,41.974 C 26.528,41.974 22.59,34.31 22.59,32.97 C 22.59,32.844 22.674,32.802 22.79,32.802 C 22.957,32.802 23.167,32.886 23.502,33.002 L 23.418,33.294 C 23.376,33.462 23.46,33.671 23.618,33.754 L 24.078,33.922 C 24.12,33.922 24.161,33.964 24.203,33.964 C 24.287,33.964 24.403,33.922 24.497,33.838 L 24.707,33.588 C 24.917,33.714 25.167,33.838 25.419,33.965 L 25.335,34.299 C 25.293,34.467 25.377,34.676 25.535,34.759 L 25.995,34.927 C 26.037,34.927 26.078,34.969 26.12,34.969 C 26.204,34.969 26.33,34.927 26.413,34.843 L 26.613,34.633 C 26.906,34.8 27.241,34.968 27.576,35.177 L 27.492,35.47 C 27.45,35.637 27.534,35.847 27.692,35.93 L 28.152,36.098 C 28.194,36.098 28.235,36.138 28.277,36.138 C 28.361,36.138 28.477,36.098 28.571,36.013 L 28.738,35.845 C 29.073,36.012 29.408,36.222 29.702,36.389 L 29.618,36.683 C 29.576,36.851 29.66,37.06 29.818,37.143 L 30.278,37.311 C 30.32,37.311 30.361,37.353 30.403,37.353 C 30.487,37.353 30.603,37.311 30.697,37.228 L 30.864,37.06 C 32.12,37.73 33.419,38.4 34.634,38.944 C 36.224,39.656 37.859,40.074 39.241,40.074 C 41.041,40.074 42.466,39.364 42.801,37.52 C 42.801,37.478 42.801,37.394 42.843,37.352 L 43.011,37.31 C 43.178,37.268 43.345,37.1 43.345,36.975 L 43.387,36.599 C 43.471,36.431 43.387,36.347 43.262,36.305 L 43.012,36.305 C 43.012,35.845 42.928,35.468 42.844,35.091 L 42.97,34.923 C 43.096,34.756 43.096,34.546 43.012,34.463 L 42.812,34.169 C 42.77,34.127 42.562,34.086 42.352,34.086 L 42.31,34.086 A 3.17,3.17 0.0 0,0 41.431,33.29 L 41.348,32.914 C 41.306,32.747 41.18,32.579 41.013,32.537 L 40.636,32.497 C 40.552,32.497 40.343,32.664 40.216,32.831 C 39.966,32.789 39.714,32.748 39.421,32.748 C 38.039,32.748 36.741,33.46 36.615,34.8 C 36.573,35.386 36.573,36.098 37.788,36.8 A 1.99,1.99 0.0 0,0 38.835,37.094 C 39.84,37.094 40.761,36.466 40.51,35.544 C 40.342,34.832 39.84,34.581 39.337,34.581 A 1.31,1.31 0.0 0,0 38.457,34.916 C 38.164,35.336 38.373,35.836 38.657,35.836 C 38.941,35.836 38.857,35.586 38.857,35.586 C 38.689,35.293 38.899,35.166 39.191,35.166 C 39.441,35.166 39.736,35.292 39.736,35.626 C 39.778,36.086 39.192,36.254 38.982,36.296 L 38.94,36.296 C 37.6,36.296 37.642,35.04 37.893,34.746 C 38.27,34.201 38.813,33.992 39.275,33.992 C 40.489,33.992 41.621,35.29 40.867,36.839 C 40.617,37.383 40.197,37.844 39.275,37.844 C 38.73,37.844 37.977,37.676 36.972,37.216 C 33.539,35.74 28.732,33.504 27.569,31.454 C 28.299,31.654 29.391,31.897 29.769,32.024 L 29.769,32.318 C 29.769,32.444 29.853,32.568 29.969,32.611 L 30.429,32.779 C 30.555,32.821 30.722,32.779 30.806,32.653 L 30.974,32.403 C 31.309,32.487 31.686,32.529 32.064,32.571 L 32.189,32.948 C 32.231,33.074 32.357,33.158 32.483,33.158 L 32.986,33.118 C 33.111,33.118 33.236,32.993 33.279,32.868 L 33.321,32.616 C 33.741,32.574 34.158,32.532 34.577,32.416 L 34.87,32.709 C 34.954,32.793 35.12,32.835 35.246,32.793 L 35.706,32.593 C 35.832,32.551 35.906,32.383 35.874,32.258 L 35.832,31.923 C 36.125,31.797 36.376,31.63 36.67,31.42 C 40.146,29.117 38.387,27.19 37.256,26.27 C 36.166,25.35 37.424,24.47 38.764,24.47 C 39.141,24.47 39.811,24.512 40.23,24.554 C 40.314,24.554 40.356,24.428 40.272,24.386 C 39.225,23.8 38.272,23.716 37.508,23.926 L 37.424,23.842 C 37.34,23.758 37.257,23.717 37.131,23.759 L 36.754,23.927 C 36.628,23.969 36.587,24.095 36.587,24.179 L 36.587,24.304 C 36.387,24.43 36.21,24.554 36.084,24.724 L 35.916,24.641 C 35.859,24.621 35.812,24.631 35.772,24.651 C 36.572,22.346 35.252,19.591 35.252,19.591 C 34.336,16.351 30.539,15.824 28.255,15.811 L 28.336,15.787 M 35.534,25.309 A 0.23,0.23 0.0 0,0 35.576,25.37 L 35.66,25.453 C 35.534,25.746 35.492,25.998 35.492,26.249 L 35.324,26.416 C 35.24,26.5 35.241,26.616 35.284,26.71 L 35.484,27.086 C 35.526,27.17 35.651,27.254 35.777,27.212 L 35.945,27.17 C 36.322,27.59 36.783,27.84 36.657,28.552 C 36.489,29.472 35.484,30.06 32.972,30.018 C 31.652,29.983 29.872,29.233 28.942,28.752 C 29.438,28.556 30.005,28.395 30.612,28.13 C 31.344,28.028 32.445,27.745 34.164,26.68 C 34.788,26.294 35.224,25.822 35.526,25.308 L 35.534,25.309 M 24.981,26.292 A 1.591,1.591 0.0 1,1 24.981,29.474 A 1.591,1.591 0.0 1,1 24.981,26.292" stroke="#000" stroke-opacity=".17" stroke-width=".295"/>
		<path d="M 24.02,27.38 C 24.02,27.38 23.81,28.553 24.94,28.553 C 26.07,28.553 25.86,27.38 25.86,27.38 C 24.897,27.966 24.017,27.38 24.017,27.38"/>
	</g>
</svg>