<?xml version="1.0" ?>
<svg xmlns="http://www.w3.org/2000/svg" viewBox="0 0 90 90">
	<g fill="#22AB9D">
		<path d="M 49.604,84.791 C 58.224,84.04 68.14,79.628 75.201,71.461 C 83.124,62.282 86.303,51.588 84.815,39.583 C 82.365,19.868 64.075,2.207 39.867,5.123 C 19.304,7.603 2.387,26.233 5.092,49.748 C 7.515,70.88 25.3,83.678 40.358,84.733 C 40.414,84.023 40.467,83.316 40.516,82.61 C 40.674,80.519 40.839,78.434 40.978,76.346 C 41.065,75.097 41.1,73.848 41.191,72.599 C 41.304,71.099 41.475,69.601 41.584,68.101 C 41.755,65.813 41.907,63.518 42.052,61.227 C 42.22,58.731 42.392,56.236 42.565,53.74 C 42.652,52.491 42.759,51.246 42.865,49.997 C 42.924,49.271 42.955,48.564 42.145,48.173 C 42.036,48.122 41.962,47.999 41.872,47.909 A 4.234,4.234 0.0 0,1 41.304,42.678 C 42.181,41.213 44.404,40.183 46.251,40.835 C 47.991,41.448 49.01,42.652 49.268,44.446 C 49.5,46.079 48.862,47.396 47.574,48.403 L 47.054,48.796 L 49.604,84.791 M 45.086,90.0 C 32.522,89.752 21.737,85.437 12.972,76.553 C 4.001,67.443 -0.349,56.332 0.022,43.559 C 0.364,31.719 4.805,21.469 13.253,13.127 C 22.534,3.933 33.85,-0.459 46.922,0.037 C 71.249,1.004 90.364,21.197 89.995,45.54 C 89.895,57.113 85.783,67.284 77.815,75.714 C 68.941,85.101 57.904,89.719 45.115,89.99"/>
		<path d="M 55.577,67.656 C 55.29,65.361 54.99,63.099 54.783,60.804 C 60.047,57.332 63.073,52.478 63.542,46.221 A 17.833,17.833 0.0 0,0 59.117,32.883 A 18.582,18.582 0.0 0,0 31.345,32.28 C 27.375,36.553 25.768,41.697 26.543,47.476 C 27.317,53.256 30.322,57.648 35.185,60.836 C 34.92,63.096 34.652,65.355 34.385,67.614 C 25.671,63.834 18.768,53.931 19.995,42.407 C 21.203,30.322 30.888,20.836 42.995,19.879 C 55.102,18.921 66.158,26.767 69.251,38.511 C 72.343,50.256 66.585,62.529 55.577,67.659"/>
	</g>
</svg>