<svg xmlns="http://www.w3.org/2000/svg" fill="none" viewBox="0 0 24 24"><path fill="#FC4304" fill-rule="evenodd" d="M0 9.22V1.75C0 .818.821 0 1.76 0h7.451c.998 0 1.76.759 1.76 1.75v9.221h-9.21C.82 10.971 0 10.154 0 9.221Z" clip-rule="evenodd"/><path fill="#F80" fill-rule="evenodd" d="M24 9.22V1.75C24 .818 23.179 0 22.24 0h-7.451c-.998 0-1.76.759-1.76 1.75v9.221h9.21c.94 0 1.761-.817 1.761-1.75Z" clip-rule="evenodd"/><path fill="#2C86D5" fill-rule="evenodd" d="M5.084 13.029c-1.013 0-1.899.83-1.899 1.85v4.085c0 1.021.823 1.85 1.9 1.85h3.987c1.013 0 1.9-.829 1.9-1.85v-5.935H5.084ZM.669 21.257A.67.67 0 0 0 0 21.91v1.439c0 .36.29.652.669.652h1.405a.67.67 0 0 0 .669-.652v-2.09H.669Z" clip-rule="evenodd"/><path fill="#6DBC00" fill-rule="evenodd" d="M24 14.78v7.47c0 .933-.821 1.75-1.76 1.75h-7.451c-.998 0-1.76-.759-1.76-1.75v-9.221h9.21c.94 0 1.761.758 1.761 1.75Z" clip-rule="evenodd"/></svg>