<svg xmlns="http://www.w3.org/2000/svg" viewBox="0 0 150 75"><defs><style>.cls-1{fill:none;}.cls-2{fill:#03000b;}.cls-3{fill:#04000c;}.cls-4{fill:#f9ebda;}.cls-5{fill:#f18824;}.cls-6{fill:#534378;}.cls-7{fill:#d73f31;}.cls-8{fill:#4292cf;}.cls-9{fill:#dc527f;}.cls-10{fill:#4e8735;}</style></defs><g id="Layer_2" data-name="Layer 2"><g id="Layer_1-2" data-name="Layer 1"><rect class="cls-1" width="150" height="75"/><path class="cls-2" d="M110.11,35.58c0-1.87.9-2.77,2.39-2.77,1.29,0,2.25.85,2.25,2.77V44h4.58V34.21A4.89,4.89,0,0,0,114.05,29a4.68,4.68,0,0,0-4.32,2.33h-.06l-.58-1.9h-3.56V44h4.58Z"/><path class="cls-2" d="M97.52,29A7.28,7.28,0,0,0,90,36.54V37c0,4.67,3.56,7.47,7.7,7.47,3.33,0,6.33-1.67,7-5h-4.28A2.54,2.54,0,0,1,97.81,41a3.12,3.12,0,0,1-3.15-3.15h10c0-.3.06-1,.06-1.61C104.75,31.35,101.25,29,97.52,29Zm2.68,5.95H94.75a2.79,2.79,0,0,1,2.89-2.68A2.49,2.49,0,0,1,100.2,34.94Z"/><path class="cls-2" d="M80.48,38.26v-8.8H75.9V38c0,4.35,2.5,6.51,6.7,6.51s6.74-2.13,6.74-6.51V29.46H84.91v8.8c0,1.9-1.08,2.57-2.22,2.57S80.48,40.16,80.48,38.26Z"/><path class="cls-2" d="M70.27,42.76h.06v6.53h4.58V29.45H71.64l-.58,1.7H71A5.32,5.32,0,0,0,66.48,29c-4,0-7,3.41-7,7.52v.56c0,4.49,3.18,7.38,6.6,7.38A5.2,5.2,0,0,0,70.27,42.76Zm-5.92-6.07c0-2.16,1-3.91,3-3.91s3,1.78,3,4-1,3.9-3,3.9S64.35,38.91,64.35,36.69Z"/><path class="cls-2" d="M51.76,29a7.28,7.28,0,0,0-7.53,7.55V37c0,4.67,3.56,7.47,7.7,7.47,3.33,0,6.33-1.67,7-5H54.67A2.52,2.52,0,0,1,52.05,41a3.12,3.12,0,0,1-3.15-3.15h10c0-.3.06-1,.06-1.61C59,31.35,55.49,29,51.76,29Zm2.68,5.95H49a2.79,2.79,0,0,1,2.88-2.68A2.49,2.49,0,0,1,54.44,34.94Z"/><path class="cls-2" d="M31.68,33.6v.23a4,4,0,0,0,1.08,2.71c1.45,1.46,3.67,1.64,5.16,2,1.22.29,1.57.87,1.57,1.54,0,.88-.7,1.31-1.75,1.31a2,2,0,0,1-2.1-2.1H31.5v.33c.18,3.55,2.89,4.87,6.24,4.87,3,0,6.25-1.37,6.25-4.82v-.29a4,4,0,0,0-1-2.68c-1.51-1.52-3.61-1.72-5.48-2.07-.79-.15-1.31-.56-1.31-1.31s.52-1.2,1.51-1.2,1.73.58,1.73,1.55h4.14v-.33c0-3.06-2.83-4.34-6-4.34C34.89,29,31.68,30.18,31.68,33.6Z"/><path class="cls-2" d="M127.7,32.63a2.79,2.79,0,0,1,2.86,2.54h4.17v-.38c-.32-3.73-3.53-5.8-7.24-5.8a7.37,7.37,0,0,0-7.61,7.49V37a7.31,7.31,0,0,0,7.64,7.47c3.53,0,6.8-2.08,7.21-5.81v-.38h-4.17c-.38,1.69-1.26,2.54-2.86,2.54-2.16,0-3.18-1.75-3.18-4.11S125.51,32.63,127.7,32.63Z"/><path class="cls-2" d="M142.77,29a7.28,7.28,0,0,0-7.53,7.55V37c0,4.67,3.56,7.47,7.7,7.47,3.33,0,6.33-1.67,7-5h-4.29A2.53,2.53,0,0,1,143.06,41a3.12,3.12,0,0,1-3.15-3.15h10c0-.3.06-1,.06-1.61C150,31.35,146.5,29,142.77,29Zm2.68,5.95H140a2.8,2.8,0,0,1,2.89-2.68A2.49,2.49,0,0,1,145.45,34.94Z"/><circle class="cls-3" cx="11.04" cy="36.75" r="11.04"/><circle class="cls-4" cx="11.04" cy="36.75" r="1.59"/><circle class="cls-5" cx="11.04" cy="43.31" r="2.09"/><circle class="cls-6" cx="11.04" cy="30.19" r="2.09"/><circle class="cls-7" cx="16.72" cy="40.03" r="2.09"/><circle class="cls-8" cx="5.35" cy="33.47" r="2.09"/><circle class="cls-9" cx="16.72" cy="33.47" r="2.09"/><circle class="cls-10" cx="5.35" cy="40.03" r="2.09"/></g></g></svg>