<?xml version="1.0" ?>
<svg xmlns="http://www.w3.org/2000/svg" viewBox="0 0 248 45.93">
	<defs>
		<style>.uuid-e56c23d1-0dd3-4218-b418-520cab04db79{fill:#d4fc08;}</style>
	</defs>
	<path class="uuid-e56c23d1-0dd3-4218-b418-520cab04db79" d="M29.41,3.93s-.12-3.11-3.11-3.11H10.62s-4.82,.12-8.15,4.06c0,0-2.47,2.62-2.47,7.93,0,0,.25,3.5,2.28,5.99,0,0,3.47,4.11,8.2,4.11h10.23s4.09,.51,4.09,5.36-4.36,5.16-4.36,5.16H3.16s-2.76,.46-2.76,3.2,2.81,3.17,2.81,3.17H20.65s3.57-.01,6.61-2.24c0,0,2.52-1.61,3.84-5.11,0,0,2.06-3.96-.37-9.54,0,0-2.84-6.39-9.84-6.39H11.16s-4.13-.64-4.13-4.28c0,0-.32-4.23,3.79-5.06h15.56s3.06-.27,3.03-3.25Z"/>
	<path class="uuid-e56c23d1-0dd3-4218-b418-520cab04db79" d="M64.51,2.29c6.39,2.94,5.98,11.34,5.98,11.34-.15,9.95-8.99,9.25-8.99,9.25h-19.34v4.07c0,2.28,1.36,3.74,1.36,3.74,2.09,2.72,5.21,2.61,5.21,2.61h14.68s3.19,.59,3.19,3.41-2.97,3.1-2.97,3.1h-15.63c-4.37-.02-7.67-2.88-7.67-2.88-5.1-3.12-5.1-9.84-5.1-9.84V15.28c0-2.61,.81-5.03,.81-5.03,1.28-5.28,5.65-7.71,5.65-7.71C45.83-.1,53.53,.01,53.53,.01c6.09-.22,10.97,2.27,10.97,2.27Zm-10.75,4.04s-5.53,.21-8.05,1.48c0,0-3.18,1.97-3.22,5.57l-.22,3.45h18.39s2.64,.15,2.72-2.61c0,0,.55-2.24-.81-4.84,0,0-1.69-3.08-8.81-3.05Z"/>
	<path class="uuid-e56c23d1-0dd3-4218-b418-520cab04db79" d="M105.73,20.31c0,7.64-5.74,13.83-12.82,13.83s-12.82-6.19-12.82-13.83,5.74-13.83,12.82-13.83,12.82,6.19,12.82,13.83Zm1.79,19.64l-5.2-1.87c6.11-3.43,10.26-10.1,10.26-17.77C112.58,9.15,103.79,.09,92.95,.09s-19.64,9.05-19.64,20.21c0,10.3,7.48,18.79,17.15,20.05l14.96,5.39c1.6,.57,3.37-.26,3.95-1.85h0c.57-1.6-.26-3.37-1.85-3.95Z"/>
	<path class="uuid-e56c23d1-0dd3-4218-b418-520cab04db79" d="M152.37,3.43c0-1.86-1.52-3.38-3.38-3.38s-3.38,1.52-3.38,3.38V24.3s-.92,9.83-10.24,9.83-11.01-9.55-11.01-9.55h0s0-.04,0-.06V3.47c0-1.86-1.52-3.38-3.38-3.38s-3.38,1.52-3.38,3.38V24.53c0,.06,.01,.11,.02,.17h-.01s-.26,15.79,17.5,15.79c16.73,0,17.24-14.24,17.24-15.89,0-.04,.01-.07,.01-.11V3.43Z"/>
	<rect class="uuid-e56c23d1-0dd3-4218-b418-520cab04db79" x="201.43" y=".09" width="7.29" height="40.4" rx="3.64" ry="3.64"/>
	<path class="uuid-e56c23d1-0dd3-4218-b418-520cab04db79" d="M189.6,20.31c0,7.62-5.69,13.8-12.71,13.8s-12.71-6.18-12.71-13.8,5.69-13.8,12.71-13.8,12.71,6.18,12.71,13.8ZM176.94,.01c-10.89,0-19.72,9.06-19.72,20.24s8.83,20.24,19.72,20.24,19.72-9.06,19.72-20.24S187.83,.01,176.94,.01Z"/>
	<path class="uuid-e56c23d1-0dd3-4218-b418-520cab04db79" d="M218.41,.82h18.03c5.04,.32,8.22,4.06,8.22,4.06,3.38,3.87,3.33,7.71,3.33,7.71v12.53c0,2.96-.52,4.97-.52,4.97-.95,4.23-3.82,6.36-3.82,6.36-3.82,3.16-7.56,3.21-7.56,3.21h-12.6c-2.37,0-4.99-1.71-4.99-1.71,0,0-5.58-3.21-5.58-10.3s4.36-10.08,4.36-10.08c2.96-2.69,8.32-2.84,8.32-2.84h15.34c.27-2.67-.86-4.53-.86-4.53-1.44-3.11-5.06-3.01-5.06-3.01h-15.95c-3.89,0-3.87-3.08-3.87-3.08,.29-3.38,3.21-3.28,3.21-3.28Zm22.51,19.92h-15.32s-4.11,.1-5.24,3.79c0,0-.88,3.25,.2,5.75,0,0,1.35,2.91,3.94,3.03h11.23s3.38-.22,4.84-4.4c0,0,.34-1.32,.34-3.62v-4.55Z"/>
</svg>