<?xml version="1.0" ?>
<svg viewBox="0 0 1200 288.999" xmlns="http://www.w3.org/2000/svg" xmlns:v="https://vecta.io/nano" fill="none">
	<defs>
		<filter id="A" x="0" y="-10" width="60" height="70" filterUnits="userSpaceOnUse" color-interpolation-filters="sRGB">
			<feFlood flood-opacity="0"/>
			<feBlend in="SourceGraphic" result="B"/>
			<feColorMatrix in="SourceAlpha" values="0 0 0 0 0 0 0 0 0 0 0 0 0 0 0 0 0 0 127 0" result="C"/>
			<feOffset dy="-10"/>
			<feGaussianBlur stdDeviation="10"/>
			<feComposite in2="C" operator="arithmetic" k2="-1" k3="1" k1="0" k4="0"/>
			<feColorMatrix values="0 0 0 0 1 0 0 0 0 0.5 0 0 0 0 0.833333 0 0 0 0.5 0"/>
			<feBlend in2="B"/>
		</filter>
		<filter id="B" x="11.894" y="-3.46" width="46.567" height="51.567" filterUnits="userSpaceOnUse" color-interpolation-filters="sRGB">
			<feFlood flood-opacity="0"/>
			<feBlend in="SourceGraphic" result="B"/>
			<feColorMatrix in="SourceAlpha" values="0 0 0 0 0 0 0 0 0 0 0 0 0 0 0 0 0 0 127 0" result="C"/>
			<feOffset dy="-5"/>
			<feGaussianBlur stdDeviation="5"/>
			<feComposite in2="C" operator="arithmetic" k2="-1" k3="1" k1="0" k4="0"/>
			<feColorMatrix values="0 0 0 0 1 0 0 0 0 1 0 0 0 0 1 0 0 0 0.25 0"/>
			<feBlend in2="B"/>
		</filter>
		<clipPath id="C">
			<rect width="60" height="60" rx="30" fill="#fff"/>
		</clipPath>
		<clipPath id="D">
			<path fill="#fff" transform="rotate(45 30 30)" d="M0 0h60v60H0z"/>
		</clipPath>
	</defs>
	<g transform="scale(2.0554961)">
		<g clip-path="url(#C)" transform="scale(2.3432992)" filter="url(#A)">
			<rect width="60" height="60" rx="30" fill="#650aff"/>
			<rect width="60" height="60" rx="30" fill="#80bfff" fill-opacity=".4"/>
			<g clip-path="url(#D)">
				<g filter="url(#B)">
					<ellipse cx="35.177" cy="24.823" rx="25" ry="21.429" transform="rotate(45 35.177 24.823)" fill="#9500e0"/>
					<ellipse cx="35.177" cy="24.823" rx="25" ry="21.429" transform="rotate(45 35.177 24.823)" fill="#650aff"/>
					<ellipse cx="35.177" cy="24.823" rx="25" ry="21.429" transform="rotate(45 35.177 24.823)" fill="#80beff"/>
				</g>
				<ellipse cx="40.96" cy="19.04" rx="12.5" ry="10.5" transform="rotate(45 40.96 19.04)" fill="#fff"/>
			</g>
		</g>
		<path fill-rule="evenodd" d="M189.327 98.64c3.682 1.509 7.786 2.263 12.313 2.263 4.949 0 9.084-.875 12.403-2.626 3.38-1.751 5.945-4.074 7.696-6.971a17.59 17.59 0 0 0 2.716-9.506c0-3.923-.845-7.062-2.535-9.416-1.63-2.414-3.803-4.346-6.519-5.794-2.656-1.509-5.583-2.807-8.782-3.893-1.992-.604-3.833-1.207-5.523-1.811-1.63-.604-3.078-1.237-4.346-1.901-1.207-.724-2.173-1.569-2.897-2.535-.664-1.026-.996-2.203-.996-3.531 0-1.388.332-2.535.996-3.44.724-.966 1.63-1.66 2.716-2.082 1.147-.483 2.414-.694 3.803-.634 1.569 0 2.927.332 4.074.996 1.207.664 2.143 1.539 2.807 2.626.724 1.086 1.117 2.294 1.177 3.621h14.576c-.12-3.863-1.147-7.183-3.078-9.959-1.932-2.837-4.557-4.979-7.877-6.428-3.32-1.509-7.152-2.263-11.498-2.263-4.225 0-7.997.724-11.317 2.173s-5.945 3.561-7.877 6.338c-1.871 2.716-2.807 6.006-2.807 9.868 0 4.648 1.328 8.36 3.984 11.136 2.716 2.776 6.579 4.979 11.589 6.609 2.173.664 4.195 1.358 6.066 2.082 1.931.664 3.621 1.418 5.07 2.263 1.449.785 2.595 1.75 3.44 2.897.845 1.086 1.268 2.414 1.268 3.984 0 1.509-.362 2.776-1.086 3.803-.724.966-1.72 1.72-2.988 2.263-1.207.483-2.626.724-4.255.724-1.931 0-3.621-.362-5.07-1.087-1.449-.784-2.595-1.841-3.44-3.169s-1.298-2.867-1.358-4.617h-14.486c.181 4.406 1.328 8.118 3.44 11.136s4.98 5.312 8.601 6.881zm284.571-62.198v63.376h22c7.363 0 13.429-1.328 18.198-3.984 4.829-2.656 8.39-6.338 10.684-11.046 2.354-4.768 3.531-10.321 3.531-16.659 0-6.398-1.177-11.951-3.531-16.659-2.294-4.768-5.855-8.45-10.684-11.045-4.768-2.656-10.834-3.984-18.198-3.984zm21.185 51.696h-7.605V48.03h7.605c4.889 0 8.752.815 11.589 2.444 2.837 1.569 4.828 3.863 5.975 6.881 1.207 2.958 1.811 6.549 1.811 10.774 0 4.165-.604 7.756-1.811 10.774-1.147 2.957-3.139 5.251-5.975 6.881-2.837 1.569-6.7 2.354-11.589 2.354zm39.738-51.696v63.376h27.975c4.467 0 8.269-.725 11.408-2.173s5.523-3.47 7.152-6.066 2.445-5.613 2.445-9.054c0-2.776-.664-5.311-1.992-7.605a15.38 15.38 0 0 0-5.251-5.704c-1.528-.991-3.225-1.671-5.092-2.041 1.146-.338 2.24-.774 3.281-1.309 2.294-1.147 4.134-2.807 5.523-4.979s2.083-4.859 2.083-8.058c0-3.32-.815-6.187-2.445-8.601-1.569-2.475-3.863-4.376-6.881-5.704-3.018-1.388-6.73-2.082-11.136-2.082zm25.712 52.33h-12.132V72.565h11.95c3.018 0 5.372.724 7.062 2.173 1.75 1.449 2.625 3.471 2.625 6.066s-.845 4.587-2.535 5.975c-1.63 1.328-3.954 1.992-6.971 1.992zm-.996-26.256h-11.136V47.215h11.045c2.958 0 5.191.694 6.7 2.082 1.569 1.328 2.354 3.199 2.354 5.613s-.784 4.285-2.354 5.613c-1.509 1.328-3.712 1.992-6.609 1.992zm-115.185 38.387c-4.708 0-8.842-.966-12.404-2.897a22.08 22.08 0 0 1-8.42-8.239c-1.992-3.561-2.988-7.635-2.988-12.223 0-4.708.996-8.903 2.988-12.585s4.768-6.579 8.329-8.691 7.696-3.169 12.404-3.169c4.587 0 8.601.996 12.041 2.988s6.126 4.708 8.057 8.148c1.992 3.38 2.988 7.303 2.988 11.77 0 .604-.032 1.298-.091 2.082 0 .724-.06 1.479-.181 2.263H433.99c.128 1.601.504 3.05 1.128 4.346.845 1.63 2.022 2.897 3.531 3.803 1.569.905 3.41 1.358 5.523 1.358 1.992 0 3.621-.392 4.889-1.177 1.328-.845 2.354-1.901 3.078-3.169h13.852c-.845 2.897-2.294 5.523-4.346 7.877-2.052 2.294-4.557 4.134-7.514 5.523-2.957 1.328-6.217 1.992-9.778 1.992zm-9.054-31.416c-.441.882-.774 1.877-1 2.988h19.198c-.12-2.535-1.056-4.557-2.806-6.066-1.69-1.569-3.803-2.354-6.338-2.354-1.931 0-3.682.453-5.251 1.358s-2.837 2.263-3.803 4.074zm-66.714-15.301v45.63h13.58V75.462c0-2.294.423-4.255 1.268-5.885s1.992-2.867 3.44-3.712c1.509-.905 3.169-1.358 4.98-1.358 3.078 0 5.312.936 6.7 2.807 1.448 1.811 2.173 4.376 2.173 7.696v24.807h13.49V73.742c0-4.406-.694-8.118-2.082-11.136-1.328-3.078-3.29-5.432-5.885-7.062s-5.795-2.444-9.597-2.444c-3.621 0-6.699.785-9.234 2.354-2.535 1.509-4.497 3.531-5.885 6.066l-1.087-7.333zm-29.362 46.717c-4.708 0-8.842-.966-12.404-2.897a22.08 22.08 0 0 1-8.42-8.239c-1.992-3.561-2.988-7.635-2.988-12.223 0-4.708.996-8.903 2.988-12.585s4.768-6.579 8.329-8.691 7.696-3.169 12.404-3.169c4.587 0 8.601.996 12.041 2.988s6.126 4.708 8.058 8.148c1.991 3.38 2.988 7.303 2.988 11.77 0 .604-.032 1.298-.091 2.082 0 .724-.06 1.479-.181 2.263H328.86c.128 1.601.504 3.05 1.128 4.346.845 1.63 2.022 2.897 3.531 3.803 1.569.905 3.41 1.358 5.523 1.358 1.992 0 3.621-.392 4.889-1.177 1.328-.845 2.354-1.901 3.078-3.169h13.852c-.845 2.897-2.294 5.523-4.346 7.877-2.052 2.294-4.557 4.134-7.515 5.523-2.957 1.328-6.217 1.992-9.778 1.992zm-9.054-31.416c-.441.882-.774 1.877-1 2.988h19.198c-.121-2.535-1.056-4.557-2.807-6.066-1.69-1.569-3.803-2.354-6.338-2.354-1.931 0-3.682.453-5.251 1.358s-2.837 2.263-3.803 4.074zm-47.44-15.301v45.63h13.58V79.446c0-2.294.272-4.195.815-5.704.603-1.569 1.418-2.807 2.444-3.712 1.087-.905 2.354-1.539 3.803-1.901 1.509-.422 3.169-.634 4.979-.634h4.527V53.1c-2.475 0-4.798.392-6.971 1.177-2.112.785-3.983 1.871-5.613 3.259s-3.048 3.048-4.255 4.98l-1.268-8.329zm-29.362 46.717c-4.708 0-8.842-.966-12.404-2.897-3.561-1.992-6.368-4.738-8.42-8.239-1.992-3.561-2.988-7.635-2.988-12.223 0-4.708.996-8.903 2.988-12.585s4.768-6.579 8.329-8.691 7.696-3.169 12.404-3.169c4.588 0 8.601.996 12.041 2.988s6.127 4.708 8.058 8.148c1.992 3.38 2.988 7.303 2.988 11.77a27.53 27.53 0 0 1-.09 2.082c0 .724-.06 1.479-.181 2.263h-33.087c.128 1.601.504 3.05 1.128 4.346.845 1.63 2.022 2.897 3.531 3.803 1.569.905 3.411 1.358 5.523 1.358 1.992 0 3.621-.392 4.889-1.177 1.328-.845 2.354-1.901 3.078-3.169h13.852c-.845 2.897-2.294 5.523-4.346 7.877-2.052 2.294-4.557 4.134-7.514 5.523-2.957 1.328-6.217 1.992-9.778 1.992zm-9.054-31.416c-.441.882-.774 1.877-1.001 2.988h19.198c-.12-2.535-1.056-4.557-2.806-6.066-1.69-1.569-3.803-2.354-6.338-2.354-1.932 0-3.682.453-5.251 1.358s-2.837 2.263-3.802 4.074z" fill="#061033"/>
	</g>
</svg>