<?xml version="1.0" ?>
<!-- Created with Inkscape (http://www.inkscape.org/) -->
<svg xmlns="http://www.w3.org/2000/svg" xmlns:sodipodi="http://sodipodi.sourceforge.net/DTD/sodipodi-0.dtd" xmlns:inkscape="http://www.inkscape.org/namespaces/inkscape" version="1.1" id="svg2" xml:space="preserve" inkscape:version="0.48.4 r9939" sodipodi:docname="server24_logo_fb4400.svg" viewBox="0 0 169 60">
	<sodipodi:namedview pagecolor="#ffffff" bordercolor="#666666" borderopacity="1" objecttolerance="10" gridtolerance="10" guidetolerance="10" inkscape:pageopacity="0" inkscape:pageshadow="2" inkscape:window-width="1693" inkscape:window-height="837" id="namedview3027" showgrid="false" inkscape:zoom="4.3989817" inkscape:cx="69.93205" inkscape:cy="19.46919" inkscape:window-x="0" inkscape:window-y="0" inkscape:window-maximized="0" inkscape:current-layer="g3048" fit-margin-top="0" fit-margin-left="0" fit-margin-right="0" fit-margin-bottom="0" showborder="true" inkscape:showpageshadow="true" borderlayer="false"/>
	<defs id="defs6">
		<clipPath id="clipPath18">
			<path d="m 0,0 2160,0 0,764.586 -2160,0 L 0,0 z" inkscape:connector-curvature="0" id="path20"/>
		</clipPath>
	</defs>
	<g transform="matrix(1.25,0,0,-1.25,-79.999949,88.318309)" id="g10">
		<g transform="scale(0.1,0.1)" id="g12">
			<g id="g3048">
				<g transform="matrix(0.62592593,0,0,0.62592593,639.99959,226.54379)" id="g14">
					<g id="g16" clip-path="url(#clipPath18)">
						<path style="fill:#a6c3e9;fill-opacity:1;fill-rule:nonzero;stroke:none" id="path22" inkscape:connector-curvature="0" d="M 2019.35,235.461 C 1938.37,73.4688 1742.59,4.6875 1577.67,81.9805 c -52.92,24.8165 -96.29,61.7145 -128.44,105.8355 37.75,-63.988 94.46,-117.6832 166.8,-151.5933 187.72,-88.0079 410.5,-10.0977 503.3,173.8043 -9.15,-2.757 -18.84,-4.273 -28.89,-4.273 -27.82,0 -52.96,11.375 -71.09,29.707 z m -157.27,453.203 c 117.06,-54.887 187.46,-168.828 192.5,-289.648 11.15,4.285 23.21,6.738 35.86,6.738 27.26,0 51.95,-10.942 69.98,-28.629 1.88,145.426 -79.67,285.477 -219.94,351.23 C 1772.77,806.996 1577,753.203 1471,609.664 c 96.15,106.746 254.24,143.145 391.08,79"/>
						<path style="fill:#303381;fill-opacity:1;fill-rule:nonzero;stroke:none" id="path24" inkscape:connector-curvature="0" d="m 14.3984,327.961 c 13.1993,-8.399 38.3985,-18 62.4024,-18 33.5972,0 55.2032,21.594 55.2032,47.394 0,22.805 -10.203,37.207 -40.8009,54.008 C 57.5977,429.961 39,455.16 39,485.16 c 0,51 43.7969,90 105.602,90 25.796,0 49.199,-7.199 60,-14.398 l -13.801,-37.801 c -10.199,6 -28.199,13.199 -49.801,13.199 -30.602,0 -52.2031,-19.195 -52.2031,-43.801 0,-20.996 13.8051,-34.199 40.2031,-48.597 32.402,-18.602 54.004,-43.801 54.004,-76.797 0,-61.203 -49.203,-95.41 -111.0001,-95.41 C 40.8008,272.156 13.1992,281.16 0,291.355 l 14.3984,36.606"/>
						<path style="fill:#303381;fill-opacity:1;fill-rule:nonzero;stroke:none" id="path26" inkscape:connector-curvature="0" d="m 433.793,499.562 c 0,23.399 -18,36.598 -44.398,36.598 -47.403,0 -82.801,-46.199 -94.805,-91.801 78.004,-1.199 139.203,9.602 139.203,54.602 l 0,0.601 z m 10.801,-205.199 c -21.602,-12.008 -57,-22.808 -96,-22.808 -76.801,0 -110.403,52.808 -110.403,117.004 0,87.601 64.801,186.601 158.403,186.601 55.199,0 85.199,-32.996 85.199,-75 0,-76.199 -85.801,-96 -193.199,-94.199 -2.403,-12.602 -0.602,-39.606 5.996,-55.199 11.402,-26.399 34.801,-39.004 64.801,-39.004 34.203,0 60.004,10.207 78.004,19.797 l 7.199,-37.192"/>
						<path style="fill:#303381;fill-opacity:1;fill-rule:nonzero;stroke:none" id="path28" inkscape:connector-curvature="0" d="m 506.98,278.152 35.403,187.207 c 7.203,37.801 11.402,76.203 14.398,103.2 l 43.805,0 c -1.801,-20.399 -4.199,-40.2 -7.805,-62.997 l 1.805,0 c 19.199,39.598 49.801,69.598 88.797,69.598 4.801,0 10.203,-0.598 14.398,-1.199 l -9.597,-49.199 c -3.598,0.597 -8.399,1.199 -13.797,1.199 -42.606,0 -81.004,-52.199 -93.602,-119.399 l -24.004,-128.41 -49.801,0"/>
						<path style="fill:#303381;fill-opacity:1;fill-rule:nonzero;stroke:none" id="path30" inkscape:connector-curvature="0" d="m 778.105,568.559 25.2,-165.598 c 4.207,-33 8.406,-55.805 9.004,-71.406 l 1.796,0 c 6.602,15.601 14.403,34.8 31.204,67.804 l 88.203,169.2 54.597,0 -161.398,-290.407 -48.606,0 -50.402,290.407 50.402,0"/>
						<path style="fill:#303381;fill-opacity:1;fill-rule:nonzero;stroke:none" id="path32" inkscape:connector-curvature="0" d="m 1177.14,499.562 c 0,23.399 -18,36.598 -44.41,36.598 -47.39,0 -82.79,-46.199 -94.8,-91.801 78.01,-1.199 139.21,9.602 139.21,54.602 l 0,0.601 z m 10.79,-205.199 c -21.59,-12.008 -56.99,-22.808 -95.99,-22.808 -76.8,0 -110.409,52.808 -110.409,117.004 0,87.601 64.809,186.601 158.409,186.601 55.2,0 85.2,-32.996 85.2,-75 0,-76.199 -85.8,-96 -193.21,-94.199 -2.39,-12.602 -0.59,-39.606 6,-55.199 11.41,-26.399 34.8,-39.004 64.8,-39.004 34.21,0 60,10.207 78.01,19.797 l 7.19,-37.192"/>
						<path style="fill:#303381;fill-opacity:1;fill-rule:nonzero;stroke:none" id="path34" inkscape:connector-curvature="0" d="m 1250.33,278.152 35.4,187.207 c 7.2,37.801 11.4,76.203 14.39,103.2 l 43.81,0 c -1.8,-20.399 -4.2,-40.2 -7.8,-62.997 l 1.8,0 c 19.19,39.598 49.8,69.598 88.8,69.598 4.8,0 10.2,-0.598 14.4,-1.199 l -9.6,-49.199 c -3.61,0.597 -8.4,1.199 -13.8,1.199 -42.6,0 -81.01,-52.199 -93.6,-119.399 l -24.01,-128.41 -49.79,0"/>
						<path style="fill:#fb4400;fill-opacity:1;fill-rule:nonzero;stroke:none" id="path36" inkscape:connector-curvature="0" d="m 1666.13,426.957 c -22.8,-19.801 -60,-47.996 -101.41,-73.805 l -62.39,-38.992 c 14.39,1.199 41.4,2.395 62.39,2.395 l 122.4,0 -17.99,-38.403 -229.2,0 8.4,37.805 c 0,0 152.4,100.801 183.6,134.402 15.59,16.797 24.6,31.797 24.6,51.004 0,32.996 -17.4,46.797 -53.41,46.797 -27.6,0 -61.8,-15 -101.4,-42.598 l -15.59,27.598 c 52.79,39.004 93.59,55.801 137.39,55.801 54.61,0 91.2,-30.602 91.2,-74.399 0,-26.402 -16.8,-60.601 -48.59,-87.605"/>
						<path style="fill:#fb4400;fill-opacity:1;fill-rule:nonzero;stroke:none" id="path38" inkscape:connector-curvature="0" d="m 1941.38,278.164 -33.01,0 c -6.59,0 -16.19,0.598 -16.19,0.598 0,0 -1.2,-9.602 -3.01,-17.407 l -18.59,-88.789 -49.2,-13.804 20.4,95.996 c 1.8,7.207 5.4,24.004 5.4,24.004 0,0 -16.2,-0.598 -24,-0.598 l -154.81,0 7.81,37.195 195.6,270.008 52.2,0 -162,-224.398 c -15.6,-21.606 -36.6,-47.407 -36.6,-47.407 0,0 12,1.797 23.39,1.797 l 106.21,0 4.19,17.407 c 2.41,11.992 9.01,37.195 13.8,53.996 l 24.01,84 39.6,11.402 -25.8,-120.602 c -6.61,-31.203 -10.8,-46.804 -10.8,-46.804 0,0 11.4,1.211 20.4,1.211 l 29.4,0 -8.4,-37.805"/>
						<path style="fill:#a6c3e9;fill-opacity:1;fill-rule:nonzero;stroke:none" id="path40" inkscape:connector-curvature="0" d="m 2085.59,269.055 c -21.8,0 -36.33,16.133 -36.33,36.597 0,22.953 17.17,41.543 41.62,41.543 22.46,0 36.99,-16.121 36.99,-37.207 0,-22.945 -17.17,-40.933 -41.62,-40.933 l -0.66,0"/>
						<path style="fill:#303381;fill-opacity:1;fill-rule:nonzero;stroke:none" id="path42" inkscape:connector-curvature="0" d="m 2077.1,310.957 9.5,0 c 4.53,0 7.62,0.676 9.27,2.023 1.65,1.336 2.48,3.114 2.48,5.332 0,1.422 -0.4,2.696 -1.19,3.829 -0.8,1.121 -1.9,1.961 -3.31,2.515 -1.41,0.547 -4.03,0.832 -7.85,0.832 l -8.9,0 0,-14.531 z m -7.65,-26.875 0,47.813 16.43,0 c 5.62,0 9.68,-0.442 12.19,-1.321 2.52,-0.886 4.52,-2.422 6.02,-4.617 1.48,-2.195 2.23,-4.531 2.23,-7.004 0,-3.484 -1.25,-6.519 -3.75,-9.109 -2.5,-2.586 -5.82,-4.043 -9.95,-4.356 1.68,-0.715 3.05,-1.55 4.06,-2.539 1.94,-1.887 4.29,-5.051 7.08,-9.492 l 5.84,-9.375 -9.36,0 -4.29,7.551 c -3.38,5.918 -6.06,9.617 -8.08,11.133 -1.42,1.101 -3.49,1.648 -6.21,1.629 l -4.56,0 0,-20.313 -7.65,0 z m 19.48,61.563 c -6.22,0 -12.28,-1.59 -18.16,-4.786 -5.9,-3.191 -10.51,-7.746 -13.83,-13.679 -3.33,-5.93 -4.99,-12.102 -4.99,-18.52 0,-6.375 1.63,-12.5 4.9,-18.34 3.26,-5.855 7.83,-10.418 13.7,-13.679 5.88,-3.274 12,-4.903 18.38,-4.903 6.38,0 12.5,1.629 18.38,4.903 5.86,3.261 10.43,7.824 13.67,13.679 3.24,5.84 4.87,11.965 4.87,18.34 0,6.418 -1.65,12.59 -4.96,18.52 -3.31,5.933 -7.92,10.488 -13.82,13.679 -5.91,3.196 -11.96,4.786 -18.14,4.786 z m 0,7.343 c 7.44,0 14.7,-1.902 21.78,-5.722 7.09,-3.821 12.61,-9.278 16.56,-16.375 3.95,-7.114 5.93,-14.512 5.93,-22.231 0,-7.637 -1.95,-14.969 -5.84,-22.012 -3.9,-7.046 -9.36,-12.515 -16.38,-16.414 -7.03,-3.894 -14.37,-5.839 -22.05,-5.839 -7.68,0 -15.02,1.945 -22.05,5.839 -7.02,3.899 -12.49,9.368 -16.41,16.414 -3.91,7.043 -5.87,14.375 -5.87,22.012 0,7.719 1.99,15.117 5.96,22.231 3.98,7.097 9.5,12.554 16.59,16.375 7.08,3.82 14.34,5.722 21.78,5.722"/>
					</g>
				</g>
			</g>
		</g>
	</g>
</svg>