<?xml version="1.0" ?>
<svg xmlns="http://www.w3.org/2000/svg" xmlns:xlink="http://www.w3.org/1999/xlink" role="img" viewBox="37.24 8.24 975.52 120.52">
	<defs>
		<linearGradient id="linear-gradient" x1="270.86" x2="271.86" y1="732.191" y2="732.191" gradientTransform="translate(-204837.396 -554289.493) scale(757.12354)" gradientUnits="userSpaceOnUse">
			<stop offset="0" stop-color="#00a8c7"/>
			<stop offset="1" stop-color="#143659"/>
		</linearGradient>
		<linearGradient id="linear-gradient-2" x1="270.86" x2="271.86" y1="732.191" y2="732.191" xlink:href="#linear-gradient"/>
		<linearGradient id="linear-gradient-3" x1="270.86" x2="271.86" y1="732.19" y2="732.19" xlink:href="#linear-gradient"/>
		<linearGradient id="linear-gradient-9" x1="270.86" x2="271.86" y1="732.19" y2="732.19" xlink:href="#linear-gradient"/>
		<linearGradient id="linear-gradient-10" x1="270.86" x2="271.86" y1="732.204" y2="732.204" xlink:href="#linear-gradient"/>
		<linearGradient id="linear-gradient-13" x1="269.353" x2="270.353" y1="736.37" y2="736.37" gradientTransform="translate(-38117.826 -104356.077) scale(141.82527)" gradientUnits="userSpaceOnUse">
			<stop offset="0" stop-color="#00a8c8"/>
			<stop offset="1" stop-color="#00a8c8"/>
		</linearGradient>
		<linearGradient id="linear-gradient-14" x1="269.353" x2="270.353" y1="736.37" y2="736.37" gradientTransform="translate(-38144.114 -104334.519) scale(141.82527)" xlink:href="#linear-gradient-13"/>
		<linearGradient id="linear-gradient-15" x1="269.354" x2="270.353" y1="736.37" y2="736.37" gradientTransform="translate(-38135.627 -104378.913) scale(141.82527)" gradientUnits="userSpaceOnUse">
			<stop offset="0" stop-color="#f39700"/>
			<stop offset="1" stop-color="#f39700"/>
		</linearGradient>
		<linearGradient id="linear-gradient-16" x1="269.353" x2="270.353" y1="736.37" y2="736.37" gradientTransform="translate(-38116.404 -104400.503) scale(141.82527)" xlink:href="#linear-gradient-13"/>
		<style>.cls-2{fill:url(#linear-gradient)}.cls-3{fill:url(#linear-gradient-2)}</style>
	</defs>
	<path fill="none" d="M 788.36414,77.94519 L 804.48914,77.94519 L 807.27214,57.41219 L 807.86014,53.36419 L 787.43614,75.04419 Q 785.46458,77.94513 788.36414,77.94519 L 788.36414,77.94519 M 416.12421,43.95618 L 404.52421,44.07218 L 401.85621,63.21318 L 412.29721,63.21318 Q 418.21021,63.21418 420.70621,61.06618 Q 423.19921,58.92175 424.01221,52.77318 Q 424.82521,47.78566 423.08521,45.87018 Q 421.34424,43.95618 416.12421,43.95618 L 416.12421,43.95618"/>
	<path d="M 276.69519,27.71716 L 274.16681,27.71716 A 69.03414,69.03414 0.0 0,0 259.58618,29.51516 A 19.80313,19.80313 0.0 0,0 248.79718,36.12616 Q 244.90918,40.94266 243.86818,49.75716 A 22.7421,22.7421 0.0 0,0 245.66518,63.50216 Q 248.62318,69.47816 258.13618,73.88516 L 272.98318,80.61216 A 10.518,10.518 0.0 0,1 277.10118,83.04916 A 4.44992,4.44992 0.0 0,1 277.73918,86.87616 A 5.20338,5.20338 0.0 0,1 274.72418,91.34316 Q 272.16968,92.44565 265.67518,92.44516 Q 261.03565,92.44516 241.43218,91.86516 L 239.22818,91.86516 L 237.14018,107.17675 L 237.14018,107.17718 A 131.05089,131.05089 0.0 0,0 254.13318,110.01918 Q 262.07718,110.77072 266.71918,110.77218 Q 283.30618,110.77218 290.55718,105.95818 Q 297.80518,101.14763 299.19918,87.80418 Q 300.47569,79.10567 297.45918,73.36318 Q 294.4427,67.61971 284.93118,63.44518 L 271.12723,57.41218 Q 267.30068,55.90769 266.13923,54.45518 A 4.58491,4.58491 0.0 0,1 265.44323,50.56818 Q 266.02376,47.08818 268.34323,46.16018 A 21.14181,21.14181 0.0 0,1 275.65123,45.23218 Q 286.78871,45.23218 297.57623,45.46518 Q 300.1247,45.58073 302.21623,45.58118 L 304.18723,31.42818 A 73.10982,73.10982 0.0 0,0 290.38423,28.52818 A 122.56333,122.56333 0.0 0,0 276.69519,27.71716 L 276.69519,27.71716" class="cls-2"/>
	<path d="M 334.46118,28.8772 Q 325.76266,28.8772 320.71618,33.4012 A 19.80044,19.80044 0.0 0,0 314.51118,45.6972 L 308.47818,89.0802 Q 307.31718,98.36365 311.84218,103.9872 Q 316.36618,109.61367 326.34218,109.6132 L 329.12618,109.6132 A 308.57721,308.57721 0.0 0,0 363.46218,108.4532 L 363.92618,92.6772 L 335.27418,92.6772 Q 329.58918,92.6772 330.63418,87.5732 L 332.25918,75.5082 L 362.53418,75.5082 L 364.39118,60.6602 L 334.34618,60.6602 L 335.62218,51.1482 Q 335.62218,45.8142 341.88618,45.8122 L 370.65418,45.8122 L 373.20618,30.2682 A 167.92972,167.92972 0.0 0,0 354.82018,29.0502 Q 344.55421,28.87622 334.46118,28.8772 L 334.46118,28.8772" class="cls-3"/>
	<path fill="url(#linear-gradient-3)" d="M 433.75616,30.38519 A 55.26837,55.26837 0.0 0,0 418.98804,28.06419 L 416.41644,28.06419 Q 406.01431,28.06475 399.30414,28.23919 L 399.3042,28.23919 Q 392.5752,28.41313 385.3842,29.22419 L 374.1322,109.26519 L 395.3602,109.26519 L 399.6522,79.10519 L 410.4402,79.10519 A 6.11718,6.11718 0.0 0,1 414.55825,80.20619 Q 415.77782,81.31169 416.00825,84.78819 L 418.79325,109.26519 L 441.18025,109.26519 L 437.70125,84.90419 Q 436.77125,78.29219 433.81425,75.50819 A 10.748,10.748 0.0 0,0 427.60825,72.37619 L 427.72425,71.56519 Q 437.00476,70.52119 440.94825,65.47419 A 24.03307,24.03307 0.0 0,0 445.70525,53.00519 Q 446.97875,43.60913 443.84825,38.15719 A 17.41275,17.41275 0.0 0,0 433.75616,30.38519 L 433.75616,30.38519 M 424.01216,52.77319 Q 423.19916,58.92169 420.70616,61.06619 Q 418.21016,63.21419 412.29716,63.21319 L 401.85616,63.21319 L 404.52416,44.07219 L 416.12416,43.95619 Q 421.34416,43.95619 423.08516,45.87019 Q 424.82517,47.78565 424.01221,52.77319 L 424.01216,52.77319"/>
	<path d="M 524.35211,29.22418 L 505.56018,29.22418 L 485.84018,83.51318 A 74.93954,74.93954 0.0 0,0 482.94118,93.25618 L 479.92518,93.25618 Q 480.03918,88.2717 479.69318,83.28118 L 475.28518,29.22418 L 453.36118,29.22418 L 463.45318,103.00118 A 7.2169,7.2169 0.0 0,0 465.71418,107.46718 A 6.60627,6.60627 0.0 0,0 470.41218,109.26518 L 489.66918,109.26518 Q 495.23577,109.26518 497.44118,103.81218 L 528.41318,29.22418 L 524.35211,29.22418 M 524.352,109.264 L 524.352,109.265 L 546.16,109.265 L 557.412,29.224 L 535.604,29.224 L 524.352,109.264 L 524.352,109.264 M 602.072,27.83319 Q 589.19447,27.83319 581.249,31.37119 L 581.24919,31.37119 Q 573.30213,34.9097 568.89519,43.84119 Q 564.48657,52.77371 562.40019,68.43319 Q 559.03419,91.28719 566.22619,100.97019 Q 573.42013,110.65876 592.67519,110.65719 Q 609.72719,110.65719 619.47019,107.17719 L 618.65919,91.16819 Q 613.32219,91.63319 607.75519,91.86519 Q 602.18719,92.09919 593.60319,92.09619 Q 586.17973,92.09619 584.67119,87.57319 Q 583.16219,83.04765 585.13419,70.05619 Q 586.41227,59.85027 588.26619,54.74419 Q 590.12169,49.64113 593.13919,48.01619 A 16.62366,16.62366 0.0 0,1 601.02819,46.39319 Q 608.68263,46.39319 613.78719,46.45119 Q 618.8917,46.51119 624.69119,46.74119 L 627.24419,30.84919 A 79.32769,79.32769 0.0 0,0 616.33919,28.58619 A 110.28917,110.28917 0.0 0,0 602.072,27.83319 L 602.072,27.83319" class="cls-2"/>
	<path d="M 664.01538,45.81219 L 692.78338,45.81219 L 695.33411,30.27 L 695.33411,30.26811 A 167.924,167.924 0.0 0,0 676.94843,29.05011 Q 666.68243,28.87611 656.59043,28.87711 Q 647.89037,28.87711 642.84543,33.40111 L 642.84518,33.40111 A 19.80167,19.80167 0.0 0,0 636.63918,45.69711 L 630.60718,89.08011 Q 629.44463,98.36356 633.97118,103.98711 Q 638.49371,109.61358 648.47118,109.61311 L 651.25418,109.61311 A 308.59277,308.59277 0.0 0,0 685.59024,108.45311 L 686.05524,92.67711 L 657.40324,92.67711 Q 651.71818,92.67711 652.76324,87.57311 L 654.38724,75.50811 L 684.66224,75.50811 L 686.51924,60.66011 L 656.47524,60.66011 L 657.75024,51.14811 Q 657.75037,45.81415 664.01538,45.81219 L 664.01538,45.81219" class="cls-3"/>
	<path d="M 734.65717,27.71716 L 732.12878,27.71716 A 69.034,69.034 0.0 0,0 717.54816,29.51516 A 19.79661,19.79661 0.0 0,0 706.76016,36.12616 Q 702.87216,40.94266 701.83016,49.75716 A 22.74142,22.74142 0.0 0,0 703.62816,63.50216 Q 706.58467,69.47816 716.09816,73.88516 L 730.94516,80.61216 A 10.53208,10.53208 0.0 0,1 735.06416,83.04916 A 4.45013,4.45013 0.0 0,1 735.70116,86.87616 A 5.20339,5.20339 0.0 0,1 732.68616,91.34316 Q 730.13164,92.44565 723.63816,92.44516 Q 718.99716,92.44516 699.39416,91.86516 L 697.19016,91.86516 L 695.10216,107.17716 A 131.06647,131.06647 0.0 0,0 712.09616,110.01916 Q 720.03863,110.7707 724.68116,110.77216 Q 741.26969,110.77216 748.52021,105.95816 Q 755.76821,101.14761 757.16121,87.80416 Q 758.43774,79.10565 755.42221,73.36316 Q 752.40421,67.61969 742.89421,63.44516 L 729.09021,57.41216 Q 725.26221,55.90767 724.10221,54.45516 A 4.58839,4.58839 0.0 0,1 723.40521,50.56816 Q 723.98576,47.08816 726.30621,46.16016 A 21.13248,21.13248 0.0 0,1 733.61421,45.23216 Q 744.75013,45.23216 755.53821,45.46516 Q 758.08666,45.58071 760.17821,45.58116 L 762.14916,31.42857 L 762.14916,31.42814 A 73.08893,73.08893 0.0 0,0 748.34624,28.52814 A 122.54976,122.54976 0.0 0,0 734.65717,27.71716 L 734.65717,27.71716" class="cls-2"/>
	<path fill="url(#linear-gradient-9)" d="M 831.40125,29.10919 L 830.69925,29.12119 L 830.82025,28.99319 L 809.59325,28.99319 L 763.65725,79.33619 Q 761.21975,84.32674 763.59925,88.38519 Q 765.97533,92.44565 772.12425,92.44519 L 802.51725,92.44519 L 800.19725,109.26519 L 820.03325,109.26519 L 822.46925,92.44519 L 822.81625,92.44519 L 831.51725,90.35719 L 833.14018,77.94569 L 833.14018,77.9452 L 824.44126,77.9452 L 831.40125,29.10919 M 807.27216,57.41219 L 804.48916,77.94519 L 788.36416,77.94519 Q 785.46467,77.94519 787.43616,75.04419 L 807.86016,53.36419 L 807.27216,57.41219"/>
	<path fill="url(#linear-gradient-10)" d="M 841.607,85.947 L 841.607,85.948 L 875.71,85.948 L 877.566,73.188 L 843.462,73.188 L 841.607,85.947 L 841.607,85.947"/>
	<path d="M 885.338,109.264 L 885.338,109.265 L 907.146,109.265 L 918.397,29.224 L 896.59,29.224 L 885.338,109.264 L 885.338,109.264 M 926.75,29.224 L 924.431,46.044 L 947.282,46.044 L 938.35,109.265 L 960.158,109.265 L 969.09,46.044 L 991.943,46.044 L 994.263,29.224 L 926.75,29.224" class="cls-2"/>
	<path fill="url(#linear-gradient-13)" d="M 219.21515,73.87817 L 89.22015,73.87817 A 5.915,5.915 0.0 0,0 89.22015,85.70817 L 219.21515,85.70817 A 5.915,5.915 0.0 1,0 219.21515,73.87817"/>
	<path fill="url(#linear-gradient-14)" d="M 192.92719,95.4342 L 62.93219,95.4342 A 5.9155,5.9155 0.0 1,0 62.93219,107.2652 L 192.92719,107.2652 A 5.91525,5.91525 0.0 0,0 198.84219,101.35938 L 198.84219,101.34 A 5.91521,5.91521 0.0 0,0 192.92719,95.4342"/>
	<path fill="url(#linear-gradient-15)" d="M 71.41919,62.87018 L 201.41419,62.87018 A 5.915,5.915 0.0 0,0 201.41419,51.04018 L 71.41919,51.04018 A 5.915,5.915 0.0 0,0 71.41919,62.87018 L 71.41919,62.87018"/>
	<path fill="url(#linear-gradient-16)" d="M 220.63751,29.45117 L 90.64221,29.45117 A 5.9132,5.9132 0.0 0,0 84.72721,35.29712 L 84.72721,35.43005 A 5.91315,5.91315 0.0 0,0 90.63548,41.28119 L 220.63721,41.28119 A 5.91493,5.91493 0.0 0,0 226.55221,35.36993 L 226.55221,35.36273 A 5.915,5.915 0.0 0,0 220.63751,29.45117 L 220.63751,29.45117"/>
</svg>