<?xml version="1.0" ?>
<svg xmlns="http://www.w3.org/2000/svg" viewBox="0 0 279.35999 267.33334" xml:space="preserve" id="svg2" version="1.2" baseProfile="tiny-ps">
	<g transform="matrix(1.3333333,0,0,-1.3333333,0,267.33333)" id="g10">
		<g transform="scale(0.1)" id="g12">
			<path id="path14" style="fill:#ffffff;fill-opacity:1;fill-rule:nonzero;stroke:none" d="m 1395.9,14.0508 c 52.51,-19.87111 110.59,-18.60939 159.34,3.4101 43.16,19.5274 75.72,53.6172 91.67,96.0001 l 437.51,1157.489 c 7.28,19.27 10.74,39.16 10.74,58.92 0,76.27 -51.52,150.78 -133.33,181.81 -0.09,0.02 -1268.389,479.21 -1268.389,479.21 -102.98,38.95 -215.636,-5.69 -251.125,-99.5 0,0 -330.722,-877.84 -435.50741,-1155.968 C -20.6797,642.109 37.3477,536.398 139.699,496.801 L 1395.9,14.0508"/>
			<path id="path16" style="fill:#f07224;fill-opacity:1;fill-rule:nonzero;stroke:none" d="m 877.316,1102.43 c -1.519,1.95 -2.144,4.47 -1.668,6.76 l 56.993,305.31 c 0.734,3.8 4.05,6.75 7.996,6.75 h 882.743 c 2.39,0 4.69,-1.23 6.27,-3.12 1.22,-1.49 1.84,-3.33 1.84,-5.18 0,-0.45 0,-0.96 -0.15,-1.52 l -56.97,-305.21 c -0.78,-3.79 -4.05,-6.66 -7.98,-6.66 0,0 -246.99,0 -259.88,0 -2.26,-12.37 -171.9,-930.548 -191.84,-1038.4584 l 6.84,-2.6016 c 14.68,-5.5391 67.75,-25.5781 67.75,-25.5781 51.51,-19.4922 108.47,-18.2617 156.29,3.3398 42.34,19.1602 74.28,52.5977 89.92,94.1793 l 429.16,1135.379 c 7.15,18.91 10.54,38.42 10.54,57.8 0,74.82 -50.54,147.91 -130.78,178.34 -0.09,0.02 -1244.191,470.06 -1244.191,470.06 -101.008,38.21 -211.515,-5.58 -246.328,-97.59 0,0 -324.414,-861.09 -427.1991,-1133.91 C -0.289063,648.98 56.6328,545.301 157.035,506.449 l 69.676,-26.289 132.727,728.7 38.085,205.64 c 0.625,3.8 4.032,6.75 7.969,6.75 h 347.567 c 2.433,0 4.757,-1.23 6.289,-3.12 1.593,-1.87 2.152,-4.31 1.789,-6.7 L 564.586,349.828 974.777,192.199 C 1026,469.66 1139.6,1084.89 1142.37,1099.56 c -18.23,0 -258.772,0 -258.772,0 -2.383,0 -4.621,1.05 -6.282,2.87"/>
		</g>
	</g>
</svg>