<?xml version="1.0" ?>
<svg xmlns="http://www.w3.org/2000/svg" viewBox="0 0 120 30" fill="none">
	<path d="M6.29123 6.41653C6.29123 7.29368 7.53997 8.04983 10.0331 8.68069C10.9103 8.8708 11.7053 9.09981 12.4183 9.35907C13.1312 9.61832 13.8528 9.98992 14.5787 10.4695C15.3046 10.9492 15.875 11.5887 16.2855 12.3837C16.696 13.1787 16.9034 14.0991 16.9034 15.1404C16.9034 17.2533 16.1083 18.8823 14.5182 20.036C12.9281 21.1594 10.9664 21.7212 8.63748 21.7212C4.41596 21.7212 1.53392 20.0879 0 16.8256L4.60608 14.233C5.23693 16.0176 6.58073 16.9077 8.63748 16.9077C10.53 16.9077 11.4763 16.32 11.4763 15.1404C11.4763 14.2633 10.2276 13.5071 7.73441 12.8763C6.80109 12.63 6.00605 12.3837 5.34927 12.1374C4.6925 11.8911 3.97955 11.5282 3.21043 11.0485C2.44131 10.5689 1.85799 9.95103 1.46046 9.19919C1.06294 8.44736 0.86418 7.56157 0.86418 6.54616C0.86418 4.51534 1.60305 2.92525 3.08512 1.77589C4.58879 0.591963 6.45542 0 8.67636 0C10.3486 0 11.8695 0.375918 13.2436 1.13208C14.6133 1.88823 15.6978 2.96414 16.4929 4.35979L11.9689 6.82702C11.3121 5.42705 10.2146 4.72706 8.67636 4.72706C7.98934 4.72706 7.4233 4.88694 6.96961 5.19804C6.51591 5.51347 6.29123 5.91963 6.29123 6.41221V6.41653Z" fill="#122D40"/>
	<path d="M39.7566 13.0405H24.2489C24.9359 15.62 26.8673 16.9077 30.0475 16.9077C32.0783 16.9077 33.6123 16.2207 34.6536 14.8509L38.9313 17.3182C36.9005 20.2521 33.9104 21.7212 29.9654 21.7212C26.5649 21.7212 23.8341 20.6928 21.7773 18.636C19.7206 16.5793 18.6922 13.9867 18.6922 10.8627C18.6922 7.73873 19.7076 5.21532 21.7384 3.12833C23.739 1.04566 26.3445 0 29.5549 0C32.7654 0 35.0814 1.04134 36.9998 3.12833C38.9745 5.211 39.9597 7.79058 39.9597 10.8627C39.9597 11.4374 39.8905 12.1677 39.7523 13.0448L39.7566 13.0405ZM24.1668 8.92698H34.6579C34.3555 7.58318 33.7462 6.5548 32.8259 5.84186C31.9055 5.12891 30.8166 4.77027 29.5549 4.77027C28.129 4.77027 26.9494 5.13323 26.0161 5.85914C25.0828 6.58505 24.4649 7.6091 24.1668 8.92266V8.92698Z" fill="#122D40"/>
	<path d="M66.5029 14.9719L71.5195 0.574707H77.3614L69.5449 21.1422H63.4956L55.6834 0.574707H61.5253L66.5029 14.9719Z" fill="#122D40"/>
	<path d="M109.755 14.3973L114.322 0.574707H120L112.512 21.1422C111.44 24.102 110.023 26.2495 108.256 27.5803C106.488 28.9112 104.285 29.5074 101.653 29.3692V24.4347C103.053 24.4606 104.177 24.1625 105.028 23.5316C105.879 22.9008 106.549 21.8854 107.046 20.4854L98.6072 0.574707H104.406L109.755 14.3973Z" fill="#122D40"/>
	<path d="M47.9966 0.989465V4.52828C48.4632 3.24065 49.2583 2.25981 50.3817 1.58575C51.5051 0.91601 52.7928 0.578979 54.2489 0.578979V6.50293C52.6286 6.28257 51.1767 6.61095 49.8891 7.49242C48.6274 8.34363 47.9966 9.75657 47.9966 11.7312V21.1508H42.6905V0.989465H47.9966Z" fill="#122D40"/>
	<path d="M94.874 19.2971C95.1376 19.0768 95.3968 18.8434 95.6474 18.5928C97.7604 16.4799 98.8147 13.9047 98.8147 10.8584C98.8147 7.81218 97.7604 5.27582 95.6474 3.16722C93.5345 1.0543 90.9593 0 87.913 0L81.6434 3.62091L80.965 2.44995C80.6971 2.67464 80.4336 2.91229 80.1786 3.16722C78.096 5.24989 77.0503 7.81651 77.0503 10.8584C77.0503 13.9003 78.0916 16.5102 80.1786 18.5928C82.2613 20.6755 84.8409 21.7212 87.913 21.7212L94.1827 18.1002L94.874 19.2971ZM91.9012 14.933C90.8296 16.0046 89.5031 16.5361 87.913 16.5361C86.3229 16.5361 84.9921 16.0003 83.9248 14.933C82.8835 13.8355 82.3607 12.4788 82.3607 10.8584C82.3607 9.23808 82.8835 7.88132 83.9248 6.78381C84.9964 5.71223 86.3229 5.18076 87.913 5.18076C89.5031 5.18076 90.834 5.71655 91.9012 6.78381C92.9728 7.85539 93.5043 9.21216 93.5043 10.8584C93.5043 12.5047 92.9685 13.8614 91.9012 14.933Z" fill="#122D40"/>
</svg>