<?xml version="1.0" ?>
<svg xmlns="http://www.w3.org/2000/svg" viewBox="14.173 14.173 141.732 141.729">
	<radialGradient id="a" cx="156.721" cy="15.855" gradientUnits="userSpaceOnUse" r="191.073">
		<stop offset="0" stop-color="#eb212e"/>
		<stop offset=".314" stop-color="#e2232d"/>
		<stop offset=".559" stop-color="#d5252c"/>
		<stop offset=".674" stop-color="#ca242a"/>
		<stop offset=".859" stop-color="#ac2026"/>
		<stop offset="1" stop-color="#921d22"/>
	</radialGradient>
	<path d="M 14.173,14.173 L 155.905,14.173 L 155.905,155.902 L 14.173,155.902 L 14.173,14.173" fill="url(#a)"/>
	<path d="M 84.245,105.859 L 84.245,62.049 L 111.022,62.049 L 111.022,68.973 L 91.452,68.973 L 91.452,80.973 L 108.304,80.973 L 108.304,87.768 L 91.452,87.768 L 91.452,105.86 L 84.245,105.86 L 84.245,105.859 M 141.424,105.859 L 131.624,88.217 L 124.31,88.217 L 124.31,105.859 L 117.101,105.859 L 117.101,62.049 L 133.287,62.049 C 139.801,62.049 148.491,63.875 148.491,74.777 C 148.491,82.192 144.648,85.618 138.588,87.215 L 149.978,105.86 L 141.424,105.86 L 141.424,105.859 M 132.391,81.672 C 138.924,81.672 140.966,78.883 140.966,74.707 C 140.966,71.951 139.724,68.521 132.639,68.521 L 124.31,68.521 L 124.31,81.672 L 132.391,81.672 M 60.431,79.267 C 55.233,77.809 54.621,75.064 54.621,73.29 C 54.621,69.886 57.254,67.613 61.996,67.613 C 65.27,67.613 68.157,69.01 70.267,71.804 L 75.979,68.474 C 73.211,64.4 68.917,61.014 61.979,61.014 C 53.793,61.014 47.069,66.103 47.069,73.618 C 47.069,81.002 53.413,84.376 60.188,86.28 C 60.188,86.28 63.296,87.179 63.326,87.186 C 69.138,88.721 69.584,91.342 69.584,93.613 C 69.584,97.763 65.241,100.329 61.471,100.329 C 57.533,100.329 54.424,99.043 51.889,94.548 L 46.175,97.947 C 49.878,104.304 54.319,106.893 61.503,106.893 C 69.437,106.893 77.104,100.845 77.104,93.283 C 77.104,84.332 69.843,81.802 63.558,80.172 L 60.431,79.267" fill="#fff"/>
</svg>