<?xml version="1.0" ?>
<svg xmlns="http://www.w3.org/2000/svg" viewBox="20.94338607788086 21.006324768066406 505.0566101074219 413.73284912109375">
	<g fill="currentColor">
		<path d="M268.2 22.6c-1.2.8-2.8 3-3.6 4.8-2 4.7-34.3 48.8-59.1 80.6-4.5 5.8-20.3 26-35 45s-28 36-29.5 37.8l-2.7 3.3-41.4-10.6c-22.8-5.9-45.6-11.7-50.8-13.1-13-3.4-18.4-3.2-22.2.5-4.7 4.7-4.1 8.7 4 26.5 6.7 14.6 56.7 125 63 139 1.7 3.8 3.1 7.3 3.1 7.8 0 1.5-6.5 3.8-11.3 3.9-2.4.1-10.2-.6-17.4-1.6-15.6-2.2-19.6-1.4-22.5 4.5-2.3 4.6-2.5 22-.2 30.5 3.1 12.2 12.5 23.3 24.1 28.8 6.5 3 7.4 3.2 19.3 3.2 14.2 0 14.4-.1 39.4-10.2 23.8-9.6 33.2-11.4 48.6-9.3 11.8 1.6 21.5 5.6 37.6 15.7 24.3 15.1 39 20.9 60.9 24 12.7 1.8 22.7 1.3 37.9-1.8 13.7-2.7 24.8-6.7 43.9-15.5 28.5-13.2 36.3-14.1 62.4-7.3 17.9 4.7 31 5.9 40.7 3.9 8-1.6 23.2-9.6 34.1-17.8 13.8-10.3 16.9-16.6 12.4-25.2-2-3.7-3.6-5.1-9.2-8-3.7-1.9-10.2-5.9-14.5-8.8-4.2-2.9-12.5-7.7-18.4-10.5-5.9-2.9-10.7-5.7-10.8-6.4 0-1.1 23.9-51.8 54.3-114.8 20.3-42.3 20.7-43.2 20.7-48.2 0-5.8-2.5-9.9-7.5-12.3-5.1-2.5-7.2-2.5-21.5 0-22.5 4-75.6 13.2-83.5 14.4-4.4.8-8.4 1.1-9 .9-.5-.2-4.8-5.2-9.5-11.1-4.7-5.9-23.1-28.2-40.9-49.7-56.9-68.5-59.6-71.8-66.4-81-3.6-5-7.5-10-8.6-11.3-2.4-2.6-7.6-3-10.9-.6zm48.4 73.3c52.6 63.1 68.4 82.5 67.6 83.2-.4.3-7.4 1.9-15.7 3.4-8.2 1.5-16.3 3.1-18 3.6-1.6.5-13.4 2.7-26.1 4.9-12.7 2.2-26.7 4.7-31 5.5-4.4.8-8.9 1.5-10.1 1.5H281v-72.2c0-61.2.2-72 1.4-70.8.7.8 16.1 19.2 34.2 40.9zm-50.6 34v70.8l-11.2 2.2c-6.2 1.2-18.4 3.5-27.1 5.2l-15.8 3.1-10.7-2.5c-34.3-7.9-42.8-10-43.5-10.7-.5-.4 12.1-17.3 28-37.6s39.2-50.2 51.7-66.4c20.8-26.8 27.4-35 28.3-35 .2 0 .3 31.9.3 70.9zm242 46.7c0 .4-4.2 9-9.3 19.3-5.1 10.2-11.9 24.2-15.2 31.1-11.4 24.3-15.9 33.8-29.7 62.5-7.7 15.9-15.4 32.1-17.1 35.8-2.8 6.4-3.2 6.8-5.6 6.2-1.4-.3-7.5-.9-13.6-1.2-19.3-.9-33.1 2.4-56 13.7-15.5 7.6-20.4 8.8-29.1 7-11.4-2.4-20.1-7.4-38.4-21.9-29.1-23.2-50.2-33.2-77-36.8-25-3.3-53.2 2.9-74.9 16.4-7.3 4.6-13.1 9.1-30.5 23.5l-3.3 2.8-4.3-9.8c-4.3-9.8-50.1-110.8-58-128-2.4-5-4-9.5-3.6-9.9.3-.4 4.4.3 8.9 1.5 12 3.3 122.2 30.4 142.9 35.2l17.8 4.1 13.2-2.5c31.9-5.9 66.5-12.2 110.8-20.1 26.1-4.6 52.2-9.3 58-10.4 5.8-1.1 26.9-4.7 47-8.1 20.1-3.4 42.4-7.1 49.5-8.4 14.1-2.6 17.5-2.9 17.5-2zM223.1 310.9c6.4 1.5 21.5 6.9 26.9 9.6 7.8 4 22 13.9 36.5 25.4 20.9 16.6 35.4 23.1 52 23.1 10.2-.1 14.2-1.3 31.5-9.5 22.2-10.6 27.5-12 43.5-12 9.6 0 14.7.5 19.5 1.9 11.1 3.1 27.7 11.9 39.4 20.7l10.9 8.3-3.8 3.2c-2 1.9-6.2 5-9.1 7l-5.4 3.7-5.7-6.2c-6.4-6.8-19.6-15.2-27.6-17.6-14.8-4.4-30.2-2.6-48.2 5.7-22.1 10.2-35.4 13-51.4 10.9-21-2.7-35.8-10.2-66.6-33.5-19.5-14.8-36.2-21.5-55.9-22.4-17.9-.8-32.8 2.7-48 11.2-13.2 7.4-14.1 10.3-1.9 6.1 6.2-2.2 10.3-2.8 20.1-3.2 26.4-1.2 45.9 5.3 72.2 23.9 23.8 16.8 37.4 23.9 55.6 29.2 16.4 4.6 37.5 4.5 55.2-.4 3.7-1 6.8-1.7 7-1.5.8.7-16 6.5-23.8 8.1-12 2.6-40.4 2.6-51.1.1-16.3-3.8-34-12-53.3-24.7-16.4-10.8-22.7-14.1-34.4-18-11.8-3.9-23.7-5.3-34.9-4-12.3 1.4-18 3.3-31.3 10.3-20.4 10.7-22.4 11.6-28.9 13.3-4.7 1.2-9.7 1.5-19 1.2-12.4-.3-12.7-.4-19.9-4.2-6.5-3.5-16-12.1-14.8-13.4.3-.2 4.3.1 9 .8 10.8 1.7 23.5.8 30.4-1.9 7.2-2.9 14.1-7.7 30.2-21 21.1-17.5 31.5-23.6 48.7-28.6 14.1-4.1 32.9-4.8 46.4-1.6zm-24.3 65.6c9.3 2.2 16.5 5.5 35 16.2 9.2 5.3 19.9 11.1 23.9 12.9 16.6 7.6 34.2 12.4 45.5 12.4 8 0 6.2 1.7-2.5 2.4-9.9.8-24.8-.6-37.7-3.6-7.6-1.8-14.1-4.5-32-13.3-35.9-17.8-47.3-21.5-66.2-21.6-6-.1-10.8-.3-10.8-.5 0-.8 6.9-3.8 11.5-5 7-1.7 25.7-1.7 33.3.1z"/>
		<path d="M340.7 133.7c-2 1.9.1 6.1 8.8 17.4 15 19.5 15 19.6 17.2 18.3 3.8-2.3 2.2-5.8-10-21.3-11-14.1-13.8-16.6-16-14.4zM256 120.9c-1.5 2.9-1.4 56.3.2 57.9 1.8 1.8 4.6 1.4 5.8-.7.6-1.2 1-12.4 1-29.5 0-26.2-.1-27.6-1.9-28.6-2.8-1.5-3.9-1.3-5.1.9z"/>
	</g>
</svg>