<?xml version="1.0" ?>
<svg xmlns="http://www.w3.org/2000/svg" viewBox="0 0 151.1 54.8">
	<defs>
		<style>.cls-1{fill:#0a314c;}.cls-2{fill:#34b9ce;}</style>
	</defs>
	<g>
		<path class="cls-1" d="M17.9,32.6c-1,0-2-.2-3-.7-.9-.5-1.7-1.1-2.3-1.8l1.6-1.4c1.1,1.2,2.4,1.9,3.9,1.9,.8,0,1.5-.2,2-.5s.8-.8,.8-1.4c0-.4-.1-.7-.3-.9-.2-.3-.5-.5-.9-.8-.4-.2-.8-.4-1.1-.6-.3-.1-.8-.3-1.4-.6-.7-.3-1.3-.6-1.8-.8-.4-.2-.9-.5-1.4-.9s-.8-.8-1-1.2c-.2-.4-.3-1-.3-1.6,0-1.1,.5-2,1.4-2.7s2.1-1,3.6-1c2,0,3.7,.7,5,2.2l-1.6,1.3c-1-1-2.2-1.4-3.4-1.4-.8,0-1.5,.1-2,.4s-.7,.7-.7,1.2,.3,1,.8,1.3,1.3,.7,2.3,1.1c.1,0,.2,.1,.2,.1,.6,.3,1.1,.4,1.4,.6,.3,.1,.7,.3,1.2,.6,.5,.3,.9,.6,1.2,.9,.2,.3,.5,.6,.7,1.1s.3,1,.3,1.5c0,1.2-.5,2.2-1.4,2.9-.9,.8-2.2,1.2-3.8,1.2Z"/>
		<path class="cls-1" d="M26.3,32.2V13.2l2.4-1.1v7.4c.9-1.2,2.2-1.9,3.9-1.9s3,.5,3.9,1.5,1.3,2.6,1.3,4.9v8.1h-2.4v-8.4c0-1.4-.3-2.3-.9-3-.6-.6-1.4-.9-2.4-.9-2.3,0-3.5,1.3-3.5,3.9v8.5h-2.3Z"/>
		<path class="cls-1" d="M52.8,30.5c-1.2,1.3-2.8,2-4.8,2s-3.6-.7-4.8-2-1.8-3.1-1.8-5.4,.6-4.1,1.8-5.4,2.8-2,4.8-2,3.7,.7,4.8,2c1.2,1.3,1.8,3.1,1.8,5.4s-.6,4.1-1.8,5.4Zm-4.9-.1c1.3,0,2.4-.5,3.1-1.4,.7-.9,1.1-2.2,1.1-3.8s-.4-2.9-1.1-3.9c-.7-.9-1.8-1.4-3.1-1.4-1.4,0-2.4,.5-3.1,1.4s-1.1,2.2-1.1,3.9c0,1.6,.4,2.9,1.1,3.8s1.8,1.4,3.1,1.4Z"/>
		<path class="cls-1" d="M58.1,37V18.1h2.4v1.2c1.1-1,2.3-1.6,3.8-1.6,1.9,0,3.4,.7,4.5,2s1.7,3.1,1.7,5.4-.6,4.1-1.7,5.5c-1.1,1.3-2.6,2-4.4,2-1.6,0-2.9-.6-3.9-1.7v4.9l-2.4,1.2Zm5.9-6.6c1.3,0,2.2-.5,2.9-1.4,.7-.9,1-2.2,1-3.9,0-1.6-.4-2.9-1.1-3.8s-1.7-1.4-3-1.4c-1.6,0-2.7,.6-3.5,1.9v6.6c1.1,1.3,2.3,2,3.7,2Z"/>
		<path class="cls-1" d="M73.6,37V18h2.4v1.2c1.1-1,2.3-1.6,3.8-1.6,1.9,0,3.4,.7,4.5,2s1.7,3.1,1.7,5.4-.6,4.1-1.7,5.5c-1.1,1.3-2.6,2-4.4,2-1.6,0-2.9-.6-3.9-1.7v5l-2.4,1.2Zm6-6.6c1.3,0,2.2-.5,2.9-1.4,.7-.9,1-2.2,1-3.9,0-1.6-.4-2.9-1.1-3.8s-1.7-1.4-3-1.4c-1.6,0-2.7,.6-3.5,1.9v6.6c1,1.3,2.2,2,3.7,2Z"/>
		<path class="cls-1" d="M104.9,17.7c1.7,0,3,.5,3.9,1.5s1.3,2.6,1.3,4.9v8.1h-2.4v-8.4c0-1.4-.3-2.3-.9-3-.6-.6-1.4-.9-2.4-.9-2.3,0-3.5,1.3-3.5,3.9v8.5h-2.4v-14.3h2.2v1.7c1-1.3,2.4-2,4.2-2Z"/>
		<path class="cls-1" d="M119.1,37.3l-1.2-1.9c2.1-.1,3.5-.5,4.3-1.1s1.2-1.4,1.2-2.5v-.9c-.8,1.1-2.1,1.7-3.8,1.7s-3.1-.7-4.2-2-1.7-3.1-1.7-5.5,.6-4.1,1.7-5.4,2.6-2,4.4-2c1.6,0,2.8,.5,3.7,1.5v-1.2h2.4v12.7c0,2.2-.6,3.8-1.8,4.8-1.3,1.1-2.9,1.6-5,1.8Zm1-6.9c.7,0,1.3-.2,1.9-.5,.6-.4,1.1-.9,1.4-1.5v-6.5c-.4-.6-.8-1.1-1.5-1.4-.6-.3-1.2-.5-1.9-.5-1.3,0-2.3,.4-3,1.3s-1,2.2-1,3.9c0,1.6,.4,2.9,1.1,3.9,.8,.8,1.8,1.3,3,1.3Z"/>
		<path class="cls-1" d="M131,32.2c-.4,0-.7-.4-.7-.8,.1-.6,.2-1.1,.4-1.7,.3-.7,.6-1.4,1.1-1.9,.5-.6,1-1,1.5-1.4s1.1-.8,1.8-1.2c.6-.4,1.1-.7,1.5-1s.7-.6,1-1.1c.3-.4,.5-.9,.5-1.4,0-.7-.2-1.3-.8-1.7-.5-.5-1.2-.7-2-.7-1.3,0-2.2,.5-2.7,1.4-.2,.4-.7,.5-1.1,.4h-.1c-.4-.2-.6-.7-.4-1.2,.3-.5,.8-1,1.3-1.4,.8-.6,1.8-.8,3-.8,1.4,0,2.5,.4,3.3,1.1,.8,.8,1.2,1.8,1.2,3,0,.5-.1,.9-.2,1.4-.2,.4-.3,.8-.5,1.1-.2,.3-.5,.6-.9,.9s-.7,.6-1.1,.8c-.3,.2-.7,.4-1.2,.8-1,.6-1.8,1.2-2.4,1.7-.6,.6-.9,1.2-1.1,2h6.7c.5,0,.9,.4,.9,.9h0c0,.5-.4,.9-.9,.9l-8.1-.1Z"/>
		<path class="cls-1" d="M147.3,31.7v-3h-6.5c-.4,0-.8-.4-.8-.8h0c0-.2,.1-.3,.2-.5l6.9-9c.2-.3,.5-.4,.9-.4h0c.6,0,1.1,.5,1.1,1.1v8h1.2c.4,0,.8,.4,.8,.8h0c0,.4-.4,.8-.8,.8h-1.2v3c0,.5-.4,.9-.9,.9h0c-.5,0-.9-.4-.9-.9Zm.1-4.6v-6.6l-5,6.6h5Z"/>
		<polygon class="cls-1" points="92.8 30.1 92.8 18.8 90.3 20.1 90.4 20.1 90.4 30.1 87.8 30.1 87.8 32.2 95.4 32.2 95.4 30.1 92.8 30.1"/>
		<path class="cls-2" d="M91.5,17.2c-.5,0-.9-.2-1.3-.5-.3-.3-.5-.8-.5-1.3s.2-1,.5-1.3c.3-.4,.8-.5,1.3-.5s.9,.2,1.3,.5c.3,.4,.5,.8,.5,1.3s-.2,.9-.5,1.3c-.4,.3-.8,.5-1.3,.5Z"/>
		<g>
			<path class="cls-1" d="M6.7,28.8c1.1,2.8,.7,5.6-.9,6.3-1.7,.7-3.9-1-5.1-3.8C-.5,28.5,0,25.7,1.6,25c1.6-.7,3.9,1,5.1,3.8Z"/>
			<path class="cls-1" d="M20.3,1.3c-.3,1.1,1,2.4,3,2.9,1.9,.5,3.7,0,4-1.1,.3-1.1-1-2.4-3-2.9-1.9-.5-3.7,0-4,1.1Z"/>
			<path class="cls-1" d="M11.1,9.2c.6,.7,.4,1.9-.5,2.7s-2.1,.9-2.8,.2c-.6-.7-.4-1.9,.5-2.7,.9-.9,2.1-.9,2.8-.2Z"/>
			<path class="cls-1" d="M26.1,6c-.4,.4-.4,1.2,.1,1.7,.5,.6,1.3,.7,1.7,.3,.4-.4,.4-1.2-.1-1.7-.5-.6-1.3-.7-1.7-.3Z"/>
			<path class="cls-1" d="M30,4.9c-.4,.6,.2,1.8,1.5,2.6,1.2,.8,2.6,.9,3,.3,.4-.6-.2-1.8-1.5-2.6-1.2-.8-2.6-1-3-.3Z"/>
			<path class="cls-1" d="M9,6.8c.2,.5-.4,1.1-1.3,1.5-.9,.4-1.8,.3-2-.2-.2-.5,.4-1.1,1.3-1.5,.9-.3,1.8-.3,2,.2Z"/>
			<path class="cls-1" d="M5.8,10c.5,.5,.2,1.7-.8,2.7s-2.2,1.3-2.7,.8-.1-1.7,.9-2.7c.9-.9,2.1-1.3,2.6-.8Z"/>
			<path class="cls-1" d="M3.7,15.9c.9,.4,1.1,2.1,.5,3.9-.7,1.8-2,3-2.9,2.6-.9-.4-1.1-2.1-.5-3.9,.6-1.8,1.9-3,2.9-2.6Z"/>
			<path class="cls-1" d="M11.3,5.5c.2,1.6,2,2.6,4,2.4,2-.3,3.4-1.8,3.2-3.3-.2-1.6-2-2.6-4-2.4s-3.4,1.7-3.2,3.3Z"/>
		</g>
	</g>
	<g>
		<path class="cls-1" d="M48.7,44.4v6.9h-.9v-1.4c-.6,.9-1.6,1.5-2.8,1.5-1.9,0-3.6-1.6-3.6-3.6s1.6-3.6,3.6-3.6c1.2,0,2.2,.6,2.8,1.5v-1.4h.9v.1Zm-.9,3.4c0-1.5-1.2-2.7-2.7-2.7s-2.7,1.2-2.7,2.7,1.2,2.7,2.7,2.7c1.5,.1,2.7-1.1,2.7-2.7Z"/>
		<path class="cls-1" d="M64.4,47v4.3h-1.4v-4.2c0-1-.5-1.5-1.3-1.5-.9,0-1.5,.6-1.5,1.8v3.9h-1.5v-4.2c0-1-.5-1.5-1.3-1.5s-1.5,.6-1.5,1.8v3.9h-1.5v-6.9h1.5v.8c.4-.7,1.1-1,2-1s1.6,.4,2,1.1c.5-.7,1.2-1.1,2.1-1.1,1.4,0,2.4,1.1,2.4,2.8Z"/>
		<path class="cls-1" d="M69.8,44.3v1.6c-1-.1-2.1,.4-2.1,1.9v3.5h-1.5v-6.9h1.5v1.2c.4-1,1.2-1.3,2.1-1.3Z"/>
		<path class="cls-1" d="M77.7,44.4v6.6c0,2.2-1.7,3.3-3.6,3.3-1.5,0-2.7-.6-3.3-1.7l1.3-.7c.3,.6,.8,1.1,2,1.1,1.3,0,2.1-.7,2.1-1.9v-.8c-.5,.7-1.3,1.2-2.4,1.2-1.9,0-3.5-1.6-3.5-3.6s1.5-3.6,3.5-3.6c1.1,0,1.9,.5,2.4,1.2v-1h1.5v-.1Zm-1.5,3.4c0-1.2-.9-2.2-2.2-2.2s-2.2,.9-2.2,2.2,.9,2.2,2.2,2.2,2.2-1,2.2-2.2Z"/>
		<path class="cls-1" d="M83,50.1c.8,0,1.5-.4,1.8-.9l1.2,.8c-.6,.9-1.7,1.5-3,1.5-2.3,0-3.8-1.6-3.8-3.6s1.5-3.6,3.7-3.6,3.5,1.7,3.5,3.6c0,.2,0,.4-.1,.6h-5.5c.2,1.1,1.1,1.6,2.2,1.6Zm1.8-2.8c-.2-1.2-1.1-1.7-2-1.7-1.1,0-1.9,.7-2.1,1.7h4.1Z"/>
		<path class="cls-1" d="M91,47.8c0-2,1.5-3.6,3.6-3.6,1.4,0,2.5,.7,3,1.8l-.7,.4c-.4-.8-1.2-1.4-2.3-1.4-1.5,0-2.7,1.2-2.7,2.7s1.2,2.7,2.7,2.7c1.1,0,1.9-.6,2.3-1.4l.8,.4c-.6,1.1-1.7,1.8-3.1,1.8-2,.3-3.6-1.3-3.6-3.4Z"/>
		<path class="cls-1" d="M98.7,47.8c0-2,1.6-3.6,3.6-3.6s3.6,1.6,3.6,3.6-1.6,3.6-3.6,3.6c-2,.1-3.6-1.5-3.6-3.6Zm6.4,0c0-1.5-1.2-2.7-2.7-2.7s-2.7,1.2-2.7,2.7,1.2,2.7,2.7,2.7c1.5,.1,2.7-1.1,2.7-2.7Z"/>
		<path class="cls-1" d="M117.6,47v4.3h-.9v-4.3c0-1.2-.7-1.9-1.7-1.9-1.1,0-1.9,.6-1.9,2.4v3.8h-.9v-4.3c0-1.2-.6-1.9-1.6-1.9s-2,.6-2,2.4v3.8h-.9v-6.9h.9v1c.5-.8,1.3-1.2,2.1-1.2,1,0,1.7,.5,2.1,1.3,.5-.9,1.4-1.3,2.2-1.3,1.5,0,2.6,1.1,2.6,2.8Z"/>
		<path class="cls-1" d="M126.8,47.8c0,2-1.6,3.6-3.6,3.6-1.2,0-2.2-.6-2.8-1.5v4.1h-.9v-9.7h.9v1.4c.6-.9,1.6-1.5,2.8-1.5,2,0,3.6,1.6,3.6,3.6Zm-.9,0c0-1.5-1.2-2.7-2.7-2.7s-2.7,1.2-2.7,2.7,1.2,2.7,2.7,2.7,2.7-1.1,2.7-2.7Z"/>
		<path class="cls-1" d="M135.3,44.4v6.9h-.9v-1.4c-.6,.9-1.6,1.5-2.8,1.5-1.9,0-3.6-1.6-3.6-3.6s1.6-3.6,3.6-3.6c1.2,0,2.2,.6,2.8,1.5v-1.4h.9v.1Zm-.9,3.4c0-1.5-1.2-2.7-2.7-2.7s-2.7,1.2-2.7,2.7,1.2,2.7,2.7,2.7c1.5,.1,2.7-1.1,2.7-2.7Z"/>
		<path class="cls-1" d="M143.3,47.1v4.2h-.9v-4.2c0-1.2-.7-1.9-1.9-1.9s-2.2,.7-2.2,2.6v3.6h-.9v-6.9h.9v1.1c.5-.9,1.3-1.2,2.3-1.2,1.7-.2,2.7,.9,2.7,2.7Z"/>
		<path class="cls-1" d="M151,44.4l-3,7.5c-.5,1.3-1.5,2.2-2.8,2.1v-.9c.9,.1,1.5-.5,1.9-1.4l.2-.4-3.1-7h1l2.6,5.8,2.2-5.8h1v.1Z"/>
	</g>
</svg>