<?xml version="1.0" ?>
<svg xmlns="http://www.w3.org/2000/svg" id="logo" viewBox="0 0 263.51 89.33">
	<path d="M166.65,47.27c18.09-2.6,30.17-10.73,32.41-21.88,1.49-7.44-2-14.85-9-18.87C176-1.61,157.71,7,145,17.9a.72.72,0,0,0-.07,1l4.24,4.83a.71.71,0,0,0,1,.07c16-13.78,29-14.48,35.93-10.48,4,2.33,6,6.36,5.2,10.51-1.17,5.84-8.27,12.82-24.55,15.43.14-5.43.4-11.21.83-16.93a.71.71,0,0,0-.66-.77l-6.32-.5a.73.73,0,0,0-.78.67c-1.54,20.55-.9,41.81-.75,46a.7.7,0,0,0,.75.68l6.33-.26a.71.71,0,0,0,.69-.74C166.8,65.06,166.56,57.27,166.65,47.27Z" transform="translate(-2.11 -2.05)" fill="#f6c90e"/>
	<path d="M265.27,60l-1.61-1.32a.94.94,0,0,0-1.26.06c-3.45,3.69-10.4,4-10.26-1.66.06-19.8,1.35-39.58,1.65-43.93a.94.94,0,0,0-.83-1l-6-.77a.94.94,0,0,0-1.07.85c-.44,4.78-1.14,17.72-1.29,22.35a.92.92,0,0,1-1.26.83,10.85,10.85,0,0,0-3.35-.73,11.6,11.6,0,0,0-6.37,1.52,15.08,15.08,0,0,0-4.6,4.1,19.86,19.86,0,0,0-3.83,10.81c0,.07,0,.14,0,.2h0a20.85,20.85,0,0,0,.78,6.81h0a1.59,1.59,0,0,1-.25,1.46,5.11,5.11,0,0,1-3.68,1.3c-2.48,0-3.56-2-3.54-5.29V52.91c0-1.9,0-3.79.12-5.67s.13-3.74.23-5.58c.07-.91.1-1.83.19-2.72l.16-1.56a1,1,0,0,0-.71-1l-5.89-1.55a.94.94,0,0,0-1.17.71l-.15.71a.51.51,0,0,1-.76.33,12.88,12.88,0,0,0-5.87-1.89,11.64,11.64,0,0,0-6.37,1.52,15.16,15.16,0,0,0-4.59,4.1,19.78,19.78,0,0,0-3.83,10.81,19.7,19.7,0,0,0,2.59,11.31,15.21,15.21,0,0,0,4.31,4.7,12.25,12.25,0,0,0,6.56,2.19,11.85,11.85,0,0,0,6.59-1.86,13.58,13.58,0,0,0,3.73-3.58,10.77,10.77,0,0,0,2.86,2.59,9.3,9.3,0,0,0,4.72,1.18A11,11,0,0,0,229,64.15a14.15,14.15,0,0,0,3.1,3,12.25,12.25,0,0,0,6.56,2.19,11.9,11.9,0,0,0,6.59-1.86A13.6,13.6,0,0,0,248.11,65a10.24,10.24,0,0,0,4.42,2.56,9.87,9.87,0,0,0,6.1-.27,13.6,13.6,0,0,0,6.86-6.07A.93.93,0,0,0,265.27,60Zm-54.85-7.52c0,6.2-4.32,8.93-6.86,8.93a4.14,4.14,0,0,1-2.33-.78,7.14,7.14,0,0,1-2.07-2.24,13,13,0,0,1-1.7-6.93,13.44,13.44,0,0,1,2.07-7,6.56,6.56,0,0,1,5-3.27c3.82,0,5.81,4,5.81,7.67h0l.12,3.58Zm28.47,8.93a4.35,4.35,0,0,1-2.33-.78,7.24,7.24,0,0,1-2.06-2.24,13,13,0,0,1-1.71-6.93,13.54,13.54,0,0,1,2.08-7,6.56,6.56,0,0,1,5-3.27c2.23,0,5,1.25,5,6.85h0c.05,1.22.09,2.44.14,3.65C245,59.49,241,61.41,238.89,61.41Z" transform="translate(-2.11 -2.05)" fill="#f6c90e"/>
	<path d="M142.72,37.06a12.24,12.24,0,0,0-6.49-2,11.64,11.64,0,0,0-6.44,2c-.17.12-.32.25-.48.37.08-.86.17-1.71.27-2.54a.71.71,0,0,0-.92-.76l-6.23,1.91a.71.71,0,0,0-.51.61c0,.6-.14,1.75-.25,3.35a6,6,0,0,1-3.16,2.73,6.35,6.35,0,0,1-5.27-1.2c-2.58-4.35-6.74-7.2-11.45-7.2-7.82,0-14.18,7.81-14.18,17.4a20.91,20.91,0,0,0,.79,5.66h0c.43,1.87.21,2.86-.16,3.4-3.6,4.72-7.11,1.08-6.38-5.28.08-2.86.54-6,.43-9.75a14.23,14.23,0,0,0-1.54-6.37A9,9,0,0,0,78,36.37a10,10,0,0,0-3.53-1.54c-.57-.12-1.12-.2-1.66-.26l-.79,0c-.29,0-.6,0-.89,0a10.87,10.87,0,0,0-3.58.76,11,11,0,0,0-2.8,1.7c.18-8,.47-16.25.93-23.22a.7.7,0,0,0-.9-.73l-6.45,1.7a.7.7,0,0,0-.54.65C56.6,35,56.61,62.76,56.62,67.55a.73.73,0,0,0,.73.72l6.34,0a.71.71,0,0,0,.71-.72c0-2.06,0-8.4.08-16.5h0c.18-12.23,10.09-10.37,9.67-5-.2,5.78-1.61,13.46,1.32,18.43a9.79,9.79,0,0,0,2.73,2.9,10.7,10.7,0,0,0,3.37,1.55c.28.07.53.14.84.2s.62.11.93.15a11.08,11.08,0,0,0,1.91,0,10.24,10.24,0,0,0,3.52-1,13.05,13.05,0,0,0,2.73-1.8,15.75,15.75,0,0,0,1.3-1.28,12.63,12.63,0,0,0,9,4c7.81,0,14.17-7.81,14.17-17.4a21.57,21.57,0,0,0-.15-2.43,11.78,11.78,0,0,0,1.45.1,10.71,10.71,0,0,0,3.18-.48c.25-.08.49-.17.73-.27a314.47,314.47,0,0,0,.71,42,.73.73,0,0,0,.79.65L129,90.8a.71.71,0,0,0,.65-.76c-.19-2.66-.87-12.55-1.09-24.23a11.77,11.77,0,0,0,1.65,1.39,11.23,11.23,0,0,0,6,2,11.5,11.5,0,0,0,6.24-1.69,14.65,14.65,0,0,0,4.39-4.22,20.27,20.27,0,0,0,.26-21.8A14.88,14.88,0,0,0,142.72,37.06ZM101.79,61.42c-3.47,0-6.39-4.41-6.39-9.62s2.92-9.62,6.39-9.62,6.39,4.41,6.39,9.62S105.25,61.42,101.79,61.42Zm39.17-2a6.41,6.41,0,0,1-4.73,3.37c-3.81,0-7.33-3.89-7.33-9.42s2.29-10.49,7.33-10.49a4.41,4.41,0,0,1,2.34.72,7.27,7.27,0,0,1,2.13,2.15,13.15,13.15,0,0,1,2,6.75A13.34,13.34,0,0,1,141,59.41Z" transform="translate(-2.11 -2.05)" fill="#f6c90e"/>
	<path d="M30.3,2.1C16.51,1.45,6.81,7.23,6.17,16.5c-.71,10,9,14.22,20.71,18.35,9.8,3.47,17.88,6.82,17.66,12.74-.31,8.59-16.42,16-26.37,16-4.32.07-6.09-.86-6.81-1.63a2.06,2.06,0,0,1-.56-1.65C11,58,15.23,52.52,22.31,49.46a1.08,1.08,0,0,0,.28-1.81l-4-3.44A1.11,1.11,0,0,0,17.5,44C7.19,48,2.61,55,2.15,60.44a9.06,9.06,0,0,0,2.31,6.93c2.59,2.86,7.16,4.42,13.21,4.51h.59a45.11,45.11,0,0,0,22.17-6.25C48.21,61,52.72,54.7,53.11,47.93c.72-12.54-10.79-16.57-21-20.13l-2.79-1C19.29,23.15,14.85,20,15,16.69a4.39,4.39,0,0,1,1.59-3.12c2.57-2.33,8-3.67,13.62-3.31,3.72.21,9.83,2.32,15.74,6.46a1.08,1.08,0,0,0,1.65-.53l1.72-5.14A1.07,1.07,0,0,0,49,9.88,33,33,0,0,0,30.3,2.1Z" transform="translate(-2.11 -2.05)" fill="#f6c90e"/>
</svg>