<?xml version="1.0" ?>
<svg xmlns="http://www.w3.org/2000/svg" xmlns:sodipodi="http://sodipodi.sourceforge.net/DTD/sodipodi-0.dtd" xmlns:inkscape="http://www.inkscape.org/namespaces/inkscape" version="1.1" id="svg2" xml:space="preserve" viewBox="0 0 168.09332 72.346664" sodipodi:docname="Short Code Registry Stacked.eps">
	<sodipodi:namedview pagecolor="#ffffff" bordercolor="#666666" borderopacity="1" objecttolerance="10" gridtolerance="10" guidetolerance="10" inkscape:pageopacity="0" inkscape:pageshadow="2" inkscape:window-width="640" inkscape:window-height="480" id="namedview4"/>
	<g id="g10" inkscape:groupmode="layer" inkscape:label="ink_ext_XXXXXX" transform="matrix(1.3333333,0,0,-1.3333333,0,72.346667)">
		<g id="g12" transform="scale(0.1)">
			<path d="m 291.234,310.57 c -12.957,0 -27.382,3.668 -35.945,12.473 -1.465,1.223 -2.199,2.687 -2.199,4.645 0,4.156 3.426,7.335 7.582,7.335 1.711,0 3.18,-0.488 4.398,-1.464 7.094,-5.137 16.875,-9.047 26.653,-9.047 13.695,0 20.785,6.109 20.785,14.668 0,21.031 -57.949,7.336 -57.949,43.035 0,14.918 12.957,27.875 36.187,27.875 13.692,0 25.676,-4.156 33.012,-11.492 1.222,-1.223 1.711,-2.692 1.711,-4.403 0,-3.91 -3.426,-6.843 -6.848,-6.843 -1.469,0 -2.933,0.488 -4.156,1.464 -6.113,4.403 -14.672,7.336 -23.719,7.336 -11.98,0 -19.562,-5.625 -19.562,-13.449 0,-19.07 58.195,-5.867 58.195,-43.277 0.488,-15.895 -12.957,-28.856 -38.145,-28.856" style="fill:#ffffff;fill-opacity:1;fill-rule:nonzero;stroke:none" id="path14"/>
			<path d="m 425.477,311.797 c -4.649,0 -8.559,3.91 -8.559,8.555 v 54.039 c 0,15.648 -8.316,20.539 -20.539,20.539 -11.004,0 -21.031,-6.602 -26.41,-13.938 v -60.394 c 0,-4.649 -3.91,-8.559 -8.801,-8.559 -4.648,0 -8.559,3.91 -8.559,8.559 v 116.39 c 0,4.645 3.911,8.559 9.047,8.559 4.403,0 8.559,-3.914 8.559,-8.559 v -42.3 c 6.601,7.578 19.07,15.648 33.742,15.648 20.051,0 30.566,-10.027 30.566,-30.078 v -59.906 c -0.246,-4.645 -4.16,-8.555 -9.046,-8.555" style="fill:#ffffff;fill-opacity:1;fill-rule:nonzero;stroke:none" id="path16"/>
			<path d="m 504.699,394.93 c -18.828,0 -29.832,-16.137 -29.832,-34.231 0,-18.34 10.758,-34.476 29.832,-34.476 19.071,0 29.828,16.136 29.828,34.476 0,18.094 -10.757,34.231 -29.828,34.231 z m 0,-84.36 c -29.586,0 -47.926,22.743 -47.926,49.883 0,27.141 18.34,49.883 47.926,49.883 29.828,0 47.922,-22.496 47.922,-49.883 0,-27.387 -18.094,-49.883 -47.922,-49.883" style="fill:#ffffff;fill-opacity:1;fill-rule:nonzero;stroke:none" id="path18"/>
			<path d="m 616.441,392.242 c -9.046,-0.734 -17.847,-4.648 -23.718,-13.207 v -58.683 c 0,-4.645 -3.91,-8.555 -8.801,-8.555 h -0.246 c -4.645,0.242 -8.559,3.91 -8.559,8.555 v 80.449 c 0,4.644 3.914,8.554 9.051,8.554 4.398,0 8.555,-3.91 8.555,-8.554 v -7.582 c 5.379,7.336 13.937,16.136 24.699,16.136 4.398,0 7.824,-3.421 7.824,-7.824 0.242,-5.133 -3.914,-8.801 -8.805,-9.289" style="fill:#ffffff;fill-opacity:1;fill-rule:nonzero;stroke:none" id="path20"/>
			<path d="m 668.035,310.57 c -14.918,0 -22.738,8.317 -22.738,23.231 v 58.929 h -9.293 c -4.402,0 -7.582,3.422 -7.582,7.825 0,4.156 3.426,7.578 7.582,7.578 h 9.293 v 18.586 c 0,4.644 3.91,8.554 9.047,8.554 4.644,0 8.554,-3.91 8.554,-8.554 v -18.586 h 12.961 c 4.157,0 7.579,-3.422 7.579,-7.824 0,-4.157 -3.422,-7.579 -7.579,-7.579 h -12.961 v -54.773 c 0,-7.336 3.426,-11.734 9.293,-11.734 2.2,0 4.403,0.976 6.602,0.976 4.402,0 7.582,-3.179 7.582,-7.336 -0.246,-6.355 -7.824,-9.293 -18.34,-9.293" style="fill:#ffffff;fill-opacity:1;fill-rule:nonzero;stroke:none" id="path22"/>
			<path d="m 826.238,322.309 c -7.093,-6.848 -16.629,-11.493 -30.808,-11.493 -28.61,0 -48.172,21.52 -48.172,49.883 0,28.364 19.562,49.879 48.172,49.879 14.668,0 25.183,-5.133 31.785,-12.715 0.976,-1.222 1.469,-2.445 1.469,-4.156 0,-4.402 -3.668,-7.824 -8.071,-7.824 -1.957,0 -3.914,0.734 -5.625,2.203 -5.379,4.644 -11.734,6.844 -18.582,6.844 -18.828,0 -31.054,-14.426 -31.054,-34.231 0,-19.808 12.226,-34.476 31.054,-34.476 7.09,0 13.203,2.445 18.582,7.09 1.469,1.222 3.422,1.71 5.625,1.71 4.157,0 8.313,-3.179 8.313,-7.578 -0.488,-1.957 -1.223,-3.914 -2.688,-5.136" style="fill:#ffffff;fill-opacity:1;fill-rule:nonzero;stroke:none" id="path24"/>
			<path d="m 892.5,394.93 c -18.828,0 -29.828,-16.137 -29.828,-34.231 0,-18.34 10.758,-34.476 29.828,-34.476 19.074,0 29.832,16.136 29.832,34.476 0,18.094 -10.758,34.231 -29.832,34.231 z m 0,-84.36 c -29.586,0 -47.926,22.743 -47.926,49.883 0,27.141 18.34,49.883 47.926,49.883 29.832,0 47.926,-22.496 47.926,-49.883 0,-27.387 -18.094,-49.883 -47.926,-49.883" style="fill:#ffffff;fill-opacity:1;fill-rule:nonzero;stroke:none" id="path26"/>
			<path d="m 1031.14,380.75 c -4.89,7.578 -15.65,14.18 -26.65,14.18 -17.607,0 -28.607,-14.672 -28.607,-34.477 0,-19.805 11,-34.23 28.607,-34.23 11,0 21.76,6.113 26.65,13.937 z m 8.56,-68.953 c -4.65,0 -8.56,3.91 -8.56,8.555 v 6.113 c -7.33,-9.535 -18.58,-15.895 -31.296,-15.895 -24.696,0 -42.301,18.586 -42.301,49.883 0,30.567 17.605,49.883 42.301,49.883 12.466,0 23.716,-5.871 31.296,-16.141 v 42.793 c 0,4.645 3.91,8.559 9.05,8.559 4.4,0 8.56,-3.914 8.56,-8.559 V 320.352 c -0.25,-4.645 -4.16,-8.555 -9.05,-8.555" style="fill:#ffffff;fill-opacity:1;fill-rule:nonzero;stroke:none" id="path28"/>
			<path d="m 1118.43,396.152 c -18.82,0 -28.12,-15.648 -28.85,-28.851 h 58.2 c -0.25,12.715 -9.05,28.851 -29.35,28.851 z m 37.17,-41.324 h -66.02 c 1.47,-16.383 13.2,-30.074 32.52,-30.074 8.07,0 16.63,2.691 23.72,7.824 1.22,0.488 2.44,0.981 3.91,0.981 3.18,0 7.09,-2.692 7.09,-7.094 0,-10.516 -24.45,-15.895 -36.43,-15.895 -28.36,0 -48.9,20.051 -48.9,49.883 0,27.633 19.8,49.883 47.43,49.883 22.99,0 38.88,-14.43 44.26,-35.699 0.73,-3.18 1.71,-7.336 1.71,-11.004 -0.24,-4.649 -4.15,-8.805 -9.29,-8.805" style="fill:#ffffff;fill-opacity:1;fill-rule:nonzero;stroke:none" id="path30"/>
			<path d="m 297.594,212.277 c -9.047,-0.734 -17.852,-4.644 -23.719,-13.203 v -58.683 c 0,-4.649 -3.914,-8.559 -8.805,-8.559 h -0.242 c -4.644,0.242 -8.558,3.91 -8.558,8.559 v 80.445 c 0,4.644 3.914,8.559 9.046,8.559 4.403,0 8.559,-3.915 8.559,-8.559 v -7.582 c 5.379,7.336 13.938,16.141 24.695,16.141 4.403,0 7.825,-3.426 7.825,-7.829 0.246,-5.132 -3.668,-8.8 -8.801,-9.289" style="fill:#ffffff;fill-opacity:1;fill-rule:nonzero;stroke:none" id="path32"/>
			<path d="m 364.59,216.188 c -18.828,0 -28.117,-15.649 -28.852,-28.852 h 58.196 c -0.246,12.715 -9.047,28.852 -29.344,28.852 z m 37.168,-41.321 h -66.02 c 1.465,-16.383 13.203,-30.078 32.52,-30.078 8.07,0 16.629,2.691 23.719,7.824 1.222,0.492 2.445,0.981 3.91,0.981 3.179,0 7.093,-2.692 7.093,-7.09 0,-10.516 -24.453,-15.895 -36.433,-15.895 -28.363,0 -48.902,20.047 -48.902,49.879 0,27.633 19.804,49.883 47.433,49.883 22.985,0 38.879,-14.426 44.258,-35.699 0.734,-3.18 1.711,-7.336 1.711,-11.004 -0.242,-4.645 -4.399,-8.801 -9.289,-8.801" style="fill:#ffffff;fill-opacity:1;fill-rule:nonzero;stroke:none" id="path34"/>
			<path d="m 501.031,200.539 c -4.89,7.582 -15.648,14.184 -26.652,14.184 -17.606,0 -28.609,-13.696 -28.609,-33.743 0,-19.562 11.003,-33.5 28.609,-33.5 10.758,0 21.762,6.602 26.652,14.426 z M 471.688,94.4219 c -13.45,0 -26.653,2.6875 -35.946,11.4881 -1.219,1.227 -1.953,2.938 -1.953,4.891 0,4.16 3.422,7.582 7.578,7.582 1.711,0 3.18,-0.488 4.649,-1.469 7.336,-6.113 15.648,-8.312 25.918,-8.312 14.671,0 29.339,7.089 29.339,27.386 v 12.715 c -7.089,-9.535 -18.335,-16.629 -31.296,-16.629 -24.454,0 -42.055,18.094 -42.055,48.903 0,30.812 17.601,49.148 42.055,49.148 12.714,0 23.718,-5.867 31.296,-16.137 v 6.602 c 0,4.644 3.915,8.558 9.047,8.558 4.403,0 8.559,-3.914 8.559,-8.558 V 136.723 C 518.637,103.957 494.918,94.4219 471.688,94.4219" style="fill:#ffffff;fill-opacity:1;fill-rule:nonzero;stroke:none" id="path36"/>
			<path d="m 555.559,131.832 c -4.649,0 -8.559,3.91 -8.559,8.559 v 80.445 c 0,4.644 3.91,8.559 9.047,8.559 4.402,0 8.558,-3.915 8.558,-8.559 v -80.203 c -0.246,-4.891 -4.156,-8.801 -9.046,-8.801 z m 11.246,120.055 c 0,-6.114 -4.891,-11.246 -11.246,-11.246 -6.114,0 -11.25,5.132 -11.25,11.246 0,6.359 5.136,11.492 11.25,11.492 6.355,-0.242 11.246,-5.133 11.246,-11.492" style="fill:#ffffff;fill-opacity:1;fill-rule:nonzero;stroke:none" id="path38"/>
			<path d="m 623.777,130.609 c -12.961,0 -27.386,3.668 -35.941,12.469 -1.469,1.223 -2.203,2.692 -2.203,4.645 0,4.16 3.422,7.336 7.582,7.336 1.711,0 3.176,-0.489 4.398,-1.465 7.09,-5.137 16.871,-9.047 26.653,-9.047 13.695,0 20.785,6.109 20.785,14.672 0,21.027 -57.949,7.332 -57.949,43.031 0,14.918 12.957,27.875 36.187,27.875 13.691,0 25.676,-4.156 33.008,-11.492 1.223,-1.223 1.715,-2.688 1.715,-4.399 0,-3.914 -3.426,-6.847 -6.848,-6.847 -1.469,0 -2.934,0.488 -4.156,1.465 -6.113,4.402 -14.672,7.336 -23.719,7.336 -11.98,0 -19.562,-5.622 -19.562,-13.45 0,-19.07 58.195,-5.867 58.195,-43.277 0.488,-15.895 -12.715,-28.852 -38.145,-28.852" style="fill:#ffffff;fill-opacity:1;fill-rule:nonzero;stroke:none" id="path40"/>
			<path d="m 711.07,130.609 c -14.918,0 -22.742,8.313 -22.742,23.227 v 58.93 h -9.289 c -4.402,0 -7.582,3.422 -7.582,7.824 0,4.156 3.426,7.582 7.582,7.582 h 9.289 v 18.582 c 0,4.644 3.914,8.559 9.051,8.559 4.644,0 8.555,-3.915 8.555,-8.559 v -18.582 h 12.961 c 4.156,0 7.578,-3.426 7.578,-7.824 0,-4.16 -3.422,-7.582 -7.578,-7.582 h -12.961 v -54.774 c 0,-7.336 3.425,-11.734 9.293,-11.734 2.199,0 4.402,0.976 6.601,0.976 4.402,0 7.578,-3.175 7.578,-7.336 -0.242,-6.355 -7.82,-9.289 -18.336,-9.289" style="fill:#ffffff;fill-opacity:1;fill-rule:nonzero;stroke:none" id="path42"/>
			<path d="m 786.383,212.277 c -9.047,-0.734 -17.852,-4.644 -23.719,-13.203 v -58.683 c 0,-4.649 -3.914,-8.559 -8.805,-8.559 h -0.246 c -4.644,0.242 -8.554,3.91 -8.554,8.559 v 80.445 c 0,4.644 3.91,8.559 9.046,8.559 4.403,0 8.559,-3.915 8.559,-8.559 v -7.582 c 5.379,7.336 13.938,16.141 24.695,16.141 4.403,0 7.825,-3.426 7.825,-7.829 0,-5.132 -3.914,-8.8 -8.801,-9.289" style="fill:#ffffff;fill-opacity:1;fill-rule:nonzero;stroke:none" id="path44"/>
			<path d="M 890.789,217.656 848.242,114.715 c -6.113,-14.426 -16.625,-20.2931 -29.34,-20.2931 -6.113,0 -12.714,1.4648 -12.714,7.8201 0,4.649 3.667,7.828 7.824,7.828 1.465,0 3.179,-0.246 4.644,0 5.379,0 9.535,2.2 12.715,9.047 l 5.625,12.715 -35.211,85.824 c -0.488,0.977 -0.488,1.957 -0.488,2.934 0,4.402 3.422,8.558 8.801,8.558 3.425,0 6.601,-1.957 8.07,-5.625 l 28.117,-70.418 27.875,70.418 c 1.469,3.426 4.649,5.625 8.317,5.625 5.132,0 8.8,-4.156 8.8,-8.558 0.246,-0.977 0,-2.199 -0.488,-2.934" style="fill:#ffffff;fill-opacity:1;fill-rule:nonzero;stroke:none" id="path46"/>
			<path d="m 126.188,398.844 c 16.339,0 29.585,-13.246 29.585,-29.586 0,-16.34 -13.246,-29.586 -29.585,-29.586 -16.34,0 -29.5864,13.246 -29.5864,29.586 0,16.34 13.2464,29.586 29.5864,29.586" style="fill:#5ebdb4;fill-opacity:1;fill-rule:nonzero;stroke:none" id="path48"/>
			<path d="m 126.188,299.078 c 16.339,0 29.585,-13.242 29.585,-29.586 0,-16.34 -13.246,-29.586 -29.585,-29.586 -16.34,0 -29.5864,13.246 -29.5864,29.586 0,16.344 13.2464,29.586 29.5864,29.586" style="fill:#5ebdb4;fill-opacity:1;fill-rule:nonzero;stroke:none" id="path50"/>
			<path d="m 126.188,198.094 c 16.339,0 29.585,-13.246 29.585,-29.586 0,-16.34 -13.246,-29.586 -29.585,-29.586 -16.34,0 -29.5864,13.246 -29.5864,29.586 0,16.34 13.2464,29.586 29.5864,29.586" style="fill:#5ebdb4;fill-opacity:1;fill-rule:nonzero;stroke:none" id="path52"/>
			<path d="m 913.891,240.891 h -7.219 v 2.332 h 17.32 v -2.332 h -7.258 v -20.504 h -2.843 v 20.504" style="fill:#ffffff;fill-opacity:1;fill-rule:nonzero;stroke:none" id="path54"/>
			<path d="m 947.27,239.18 -7.774,-18.793 h -1.16 l -7.738,18.793 v -18.793 h -2.84 v 22.836 h 4.07 l 7.086,-17.188 7.121,17.188 h 4.074 v -22.836 h -2.839 v 18.793" style="fill:#ffffff;fill-opacity:1;fill-rule:nonzero;stroke:none" id="path56"/>
		</g>
	</g>
</svg>