<?xml version="1.0" ?>
<svg xmlns="http://www.w3.org/2000/svg" viewBox="0 0 32 32">
	<g fill="none">
		<circle cx="16" cy="16" r="16" fill="#057BC1"/>
		<path d="M 16.0,4.0 C 9.373,4.0 4.0,9.373 4.0,16.0 C 4.0,22.627 9.373,28.0 16.0,28.0 C 22.627,28.0 28.0,22.627 28.0,16.0 A 12.0,12.0 0.0 0,0 16.0,4.0 M 20.176,20.527 L 19.688,20.527 L 19.688,23.259 L 18.048,23.259 L 18.048,20.527 L 15.551,20.527 L 15.551,19.512 L 18.088,19.512 L 18.088,17.678 A 6.439,6.439 0.0 0,1 13.756,18.38 C 12.936,18.185 12.117,17.737 11.688,16.995 A 4.587,4.587 0.0 0,1 11.102,14.615 L 11.102,10.283 L 12.761,10.283 L 12.761,14.771 C 12.8,15.746 13.424,16.722 14.381,17.015 A 4.991,4.991 0.0 0,0 18.068,16.429 C 18.068,15.063 18.048,13.015 18.068,10.283 L 19.746,10.283 L 19.746,19.513 L 20.176,19.513 L 20.176,20.527" fill="#FFF"/>
	</g>
</svg>