<?xml version="1.0" ?>
<svg xmlns="http://www.w3.org/2000/svg" preserveAspectRatio="xMidYMid meet" data-bbox="0 0 124.36 124.36" viewBox="0 0 124.35 124.35" data-type="ugc" role="presentation" aria-hidden="true">
	<g>
		<path d="M105.85 35.69a3 3 0 0 0-.85.68c-.23.27-.41.58-.51.91-.11.33-.15.67-.13 1.03s.13.71.32 1.05c.18.34.42.62.7.84.28.22.59.37.92.46.33.08.67.1 1.03.06.35-.04.7-.15 1.03-.33h.02c.33-.19.62-.42.85-.69.23-.27.41-.58.51-.91.11-.33.15-.68.12-1.03a2.7 2.7 0 0 0-.31-1.05c-.19-.35-.42-.63-.7-.85s-.58-.37-.92-.45c-.33-.08-.68-.1-1.03-.06-.35.04-.7.15-1.03.33h-.02Z" fill="#ffffff"/>
		<path d="M18.93 32.7h-.02c-.37-.25-.73-.31-1.07-.19-.34.12-.64.38-.9.79l-.8 1.27 2.28 1.44.82-1.3c.26-.41.35-.8.28-1.17s-.27-.65-.59-.85Z" fill="#ffffff"/>
		<path d="m24.31 26.05-.02-.02c-.33-.29-.67-.41-1.03-.35s-.7.27-1.02.64l-1 1.12 2.02 1.79 1.02-1.15c.32-.36.48-.73.47-1.1a1.25 1.25 0 0 0-.44-.93Z" fill="#ffffff"/>
		<path d="M40.53 15.44c.13-.32.11-.65-.06-.98v-.02c-.2-.38-.46-.6-.8-.67-.33-.07-.72 0-1.15.22l-1.73.86 1.13 2.27 1.76-.88c.43-.21.71-.48.83-.8Z" fill="#ffffff"/>
		<path d="m28.9 23.4.02.02c.23.3.5.54.81.73.31.19.64.31.98.36.34.05.69.04 1.04-.04s.68-.24.99-.48a2.573 2.573 0 0 0 1.02-1.81c.03-.34 0-.68-.11-1.03-.1-.34-.27-.66-.5-.96l-.02-.02c-.23-.3-.5-.54-.81-.73a2.619 2.619 0 0 0-2.02-.31c-.35.08-.68.24-.98.48-.31.24-.55.52-.72.83-.17.31-.27.64-.3.98-.03.34 0 .68.11 1.03.1.34.27.66.5.96Z" fill="#ffffff"/>
		<path d="M62.18 2.75c-32.82 0-59.43 26.61-59.43 59.43s26.61 59.43 59.43 59.43S121.61 95 121.61 62.18 95 2.75 62.18 2.75Zm47.75 31.64c.48.39.89.89 1.21 1.49.32.6.51 1.21.57 1.83s0 1.21-.15 1.77a4.31 4.31 0 0 1-.81 1.54c-.38.46-.84.85-1.4 1.15h-.02c-.56.31-1.13.49-1.73.54s-1.18 0-1.74-.17-1.09-.45-1.57-.84c-.48-.39-.89-.89-1.21-1.49-.32-.6-.51-1.21-.57-1.83-.06-.62 0-1.21.15-1.77.16-.56.43-1.07.81-1.54.38-.46.84-.85 1.4-1.15h.02c.56-.31 1.13-.49 1.73-.54.6-.05 1.18 0 1.74.17s1.09.45 1.57.84Zm-6.6-9.39-1.52 6.66 4.17-3.49 1.23 1.47-6.77 5.67-1.06-1.27 1.56-6.88-4.31 3.6-1.23-1.47 6.77-5.67 1.15 1.37Zm-3.14-3.16-5.95 6.53-1.44-1.31 5.94-6.53 1.44 1.31Zm-6.35-5.16-4.14 5.74L93.27 25l-1.03 1.42-5.15-3.71 5.17-7.16 1.58 1.14Zm-7.23-4.26-3.23 6.3 3.92 2.01-.8 1.56-5.65-2.89 4.03-7.86 1.73.89Zm-5.89-2.48 1.82.68-3.1 8.27-1.82-.68 3.1-8.27Zm-14.93 1.22v-.02c.1-.62.3-1.19.62-1.7.31-.51.7-.94 1.18-1.29.47-.35 1-.6 1.6-.75.59-.15 1.22-.18 1.89-.07.39.06.74.14 1.05.25s.6.23.86.37.5.31.72.49c.22.19.42.39.62.62l-1.43 1.27a3.764 3.764 0 0 0-.92-.8c-.17-.1-.35-.19-.55-.26-.2-.07-.43-.13-.68-.17a2.28 2.28 0 0 0-1.01.07 2.666 2.666 0 0 0-1.56 1.24c-.18.31-.3.65-.36 1.03v.02a2.902 2.902 0 0 0 .43 2.11c.2.29.45.52.75.71s.64.31 1.03.37c.71.11 1.34.03 1.89-.25l.19-1.26-1.93-.3.26-1.66 3.79.59-.59 3.79c-.51.31-1.09.56-1.75.73-.66.17-1.39.2-2.19.08-.68-.1-1.29-.31-1.81-.62-.53-.31-.96-.7-1.3-1.16-.34-.46-.58-.98-.72-1.57-.14-.58-.16-1.2-.06-1.85ZM57.82 6.9l4.35 5.27-.21-5.43 1.92-.08.35 8.82-1.65.07-4.5-5.44.22 5.61-1.92.08-.35-8.82 1.79-.07Zm-4.44.56 1.55 8.7-1.91.34-1.55-8.69 1.91-.34Zm-3.81.63.52 1.71-2.57.78 2.04 6.74-1.86.56-2.04-6.74-2.57.78-.52-1.71 7-2.12Zm-11.68 4.27c.94-.47 1.79-.61 2.54-.41s1.33.71 1.74 1.53v.02c.33.64.44 1.24.32 1.8-.11.56-.37 1.06-.78 1.5l3.34 1.86-2.03 1.02L40.06 18l-1.37.68 1.26 2.53-1.74.87-3.95-7.9 3.61-1.81Zm-11.5 8.95c.08-.58.27-1.15.58-1.69.31-.54.73-1.02 1.27-1.44.54-.42 1.11-.7 1.71-.86s1.19-.21 1.77-.14c.58.07 1.13.25 1.65.54.52.29.97.69 1.36 1.19l.02.02c.39.5.65 1.04.8 1.62.15.58.19 1.16.11 1.75-.07.58-.27 1.15-.58 1.69-.31.54-.73 1.02-1.27 1.44s-1.11.71-1.71.86c-.6.16-1.19.21-1.77.14-.58-.07-1.13-.25-1.65-.54s-.97-.69-1.36-1.19l-.02-.02c-.39-.5-.65-1.04-.8-1.62-.15-.58-.19-1.16-.11-1.75Zm-5.34 3.74c.35-.4.72-.7 1.11-.91.39-.21.78-.34 1.17-.38s.78 0 1.17.14c.38.13.74.35 1.08.65l.02.02c.38.34.66.71.82 1.1.17.4.24.8.22 1.22-.02.42-.13.83-.32 1.24-.19.41-.45.8-.78 1.17l-.98 1.1 1.98 1.76-1.29 1.45-6.6-5.87 2.4-2.7Zm-5.51 7.2c.28-.45.6-.81.94-1.08s.71-.46 1.09-.56c.38-.1.77-.12 1.17-.05.4.07.79.22 1.18.47h.02c.43.29.77.61.99.97.23.36.37.75.41 1.16.05.41.01.84-.11 1.27-.12.44-.31.86-.58 1.28l-.79 1.25 2.24 1.42-1.04 1.64-7.47-4.72 1.93-3.05Zm1.29 19.8c-.14.66-.4 1.28-.76 1.86-.36.58-.84 1.08-1.42 1.5l-1.1-1.42c.41-.32.75-.67 1.03-1.05.28-.37.47-.81.58-1.3.09-.39.08-.72-.01-.97s-.27-.4-.53-.46h-.02a.652.652 0 0 0-.34 0c-.1.02-.21.09-.32.2a2.7 2.7 0 0 0-.36.48 9.3 9.3 0 0 0-.45.83c-.2.41-.41.78-.62 1.11-.21.33-.44.59-.68.8s-.53.34-.85.42-.69.06-1.12-.03h-.02c-.39-.09-.73-.24-1.02-.46-.28-.22-.51-.48-.68-.8-.17-.32-.28-.67-.32-1.07-.04-.4-.02-.81.08-1.26.14-.63.36-1.19.67-1.68.3-.49.68-.92 1.13-1.28l1.21 1.3c-.35.33-.64.66-.87 1-.23.34-.39.69-.47 1.06-.08.37-.07.66.03.88s.26.35.48.39h.02c.14.04.27.04.38 0 .11-.03.23-.11.34-.23.11-.12.23-.3.36-.52.13-.23.28-.51.46-.86.21-.41.42-.77.64-1.08.22-.31.45-.56.71-.75.25-.19.53-.32.82-.38.3-.06.64-.05 1.01.03h.02c.43.1.79.26 1.09.49.3.23.53.5.7.83.17.33.27.7.3 1.11.03.41 0 .85-.1 1.32Zm.36-5.17c-.86.38-1.9.33-3.11-.17L9.41 44.8l.73-1.8 4.62 1.89c.67.27 1.24.32 1.7.15.47-.17.81-.54 1.04-1.09.23-.55.24-1.05.04-1.5s-.63-.8-1.28-1.07l-4.68-1.91.73-1.8 4.61 1.88c.62.25 1.13.56 1.52.91.39.36.68.75.86 1.19.18.44.26.91.23 1.41-.03.51-.16 1.03-.38 1.58-.45 1.1-1.11 1.84-1.97 2.22Zm44.99 58.84c-24.04 0-43.53-19.49-43.53-43.53s19.49-43.54 43.53-43.54 43.53 19.49 43.53 43.53-19.49 43.53-43.53 43.53Zm43.46-60.36 8.3-3.02.66 1.83-8.3 3.02-.66-1.83Zm10.23 7.39-1.66-.65c.17-.45.29-.87.35-1.28.06-.4.05-.79-.03-1.16-.09-.37-.22-.63-.41-.78-.19-.15-.39-.2-.6-.15h-.02c-.14.04-.25.09-.34.17-.09.08-.16.2-.21.35-.05.16-.08.37-.1.63-.02.26-.03.59-.04.98-.01.46-.05.88-.11 1.25s-.17.7-.31.98c-.15.28-.34.51-.58.7-.24.18-.55.32-.93.41h-.02c-.43.11-.82.12-1.19.04-.37-.08-.7-.23-.99-.45-.29-.22-.54-.51-.75-.87-.21-.36-.37-.77-.48-1.23a6.13 6.13 0 0 1-.12-2.01c.08-.68.29-1.34.63-1.96l1.6.8c-.23.47-.39.93-.48 1.39-.09.46-.08.93.04 1.42.09.39.24.68.43.86a.7.7 0 0 0 .67.19h.02c.12-.03.23-.08.31-.15s.15-.17.2-.32c.05-.15.09-.34.12-.59s.05-.56.05-.94c0-.46.03-.88.08-1.27s.14-.72.27-1.01c.13-.29.33-.54.58-.74s.59-.35 1.02-.45h.02c.39-.1.76-.11 1.11-.04s.67.21.96.42c.29.21.54.48.75.82.21.34.37.73.47 1.17.15.63.19 1.23.13 1.8-.06.57-.22 1.12-.47 1.65Z" fill="#ffffff"/>
		<path fill="#9bcce5" d="M101.87 52.816c5.173 21.92-8.402 43.884-30.322 49.057-21.92 5.174-43.884-8.402-49.057-30.322-5.174-21.92 8.402-43.883 30.322-49.057 21.92-5.173 43.883 8.403 49.057 30.322z"/>
		<path d="M62.18 0C27.89 0 0 27.89 0 62.18s27.89 62.18 62.18 62.18 62.18-27.89 62.18-62.18S96.46 0 62.18 0Zm59.43 62.18c0 32.82-26.61 59.43-59.43 59.43S2.75 95 2.75 62.18 29.36 2.75 62.18 2.75s59.43 26.61 59.43 59.43Z" fill="#346697"/>
		<path d="M62.18 18.65c-24.04 0-43.53 19.49-43.53 43.53s19.49 43.53 43.53 43.53 43.53-19.49 43.53-43.53-19.49-43.53-43.53-43.53ZM21.4 62.18c0-22.48 18.29-40.78 40.78-40.78s40.78 18.29 40.78 40.78-18.29 40.78-40.78 40.78S21.4 84.67 21.4 62.18Z" fill="#346697"/>
		<path d="M16.63 49.61c-.17-.33-.4-.6-.7-.83-.3-.23-.66-.39-1.09-.48h-.02c-.38-.09-.72-.1-1.01-.04-.3.06-.57.19-.82.38s-.49.44-.71.75c-.22.31-.43.67-.64 1.08-.18.35-.33.64-.46.86-.13.23-.25.4-.36.52-.11.12-.23.2-.34.23a.81.81 0 0 1-.38 0h-.02c-.21-.05-.37-.18-.48-.4s-.11-.51-.03-.88.24-.72.47-1.06c.23-.34.52-.67.87-1l-1.21-1.3a5.1 5.1 0 0 0-1.13 1.28c-.31.49-.53 1.05-.67 1.68-.1.44-.12.86-.08 1.26.04.4.15.75.32 1.07.17.32.4.58.68.8.28.22.62.37 1.02.45h.02c.43.1.8.11 1.12.04s.6-.21.85-.42.48-.47.68-.8c.21-.33.41-.69.62-1.11.17-.34.32-.62.45-.83.13-.21.25-.37.36-.48.11-.11.22-.18.32-.2.1-.02.22-.02.34 0h.02c.25.06.43.21.53.46s.1.57.01.97c-.11.49-.3.93-.58 1.3-.28.37-.62.72-1.03 1.05l1.1 1.42a5.33 5.33 0 0 0 1.42-1.5c.36-.58.62-1.2.76-1.86.1-.47.14-.91.1-1.32-.04-.41-.14-.78-.3-1.11Z" fill="#010101"/>
		<path d="M19.53 43.07c.03-.51-.05-.98-.23-1.41-.18-.44-.47-.83-.86-1.19-.39-.35-.9-.66-1.52-.91l-4.61-1.88-.73 1.8 4.68 1.91c.65.27 1.08.62 1.28 1.07s.19.94-.04 1.5c-.23.55-.57.92-1.04 1.09-.47.17-1.03.12-1.7-.15l-4.62-1.89-.73 1.8 4.67 1.91c1.21.49 2.24.55 3.11.17.87-.38 1.52-1.12 1.97-2.22.22-.54.35-1.07.38-1.58Z" fill="#010101"/>
		<path d="m22.11 38.36-2.24-1.42.79-1.25c.26-.42.46-.85.58-1.28.12-.44.16-.86.11-1.27-.05-.41-.19-.8-.41-1.16-.23-.36-.56-.68-.99-.96h-.02c-.38-.26-.78-.41-1.18-.48-.4-.07-.79-.05-1.17.05-.38.1-.75.29-1.09.56s-.66.63-.94 1.08l-1.93 3.05L21.09 40l1.04-1.64Zm-2.88-3.64-.82 1.3-2.28-1.44.8-1.27c.26-.41.56-.68.9-.79.34-.12.7-.06 1.07.17h.02c.32.22.52.5.59.86s-.02.75-.28 1.17Z" fill="#010101"/>
		<path d="m26.54 32.15-1.98-1.76.98-1.1c.33-.37.59-.76.78-1.17.19-.41.3-.82.32-1.24.02-.42-.05-.82-.22-1.22-.17-.4-.44-.76-.82-1.1l-.02-.02c-.34-.3-.7-.52-1.08-.65-.38-.13-.77-.18-1.17-.14s-.78.16-1.17.38c-.39.21-.76.52-1.11.91l-2.4 2.7 6.6 5.87 1.29-1.45Zm-3.27-2.91-2.02-1.79 1-1.12c.32-.36.66-.58 1.02-.64.36-.06.7.06 1.03.35l.02.02c.28.25.43.56.44.93.01.37-.14.74-.47 1.1l-1.02 1.15Z" fill="#010101"/>
		<path d="m27.31 24.67.02.02c.39.5.84.9 1.36 1.19s1.07.48 1.65.54c.58.07 1.17.02 1.77-.14.6-.16 1.17-.45 1.71-.86s.96-.9 1.27-1.44c.31-.54.5-1.1.58-1.69.08-.58.04-1.17-.11-1.75-.15-.58-.42-1.12-.8-1.62l-.02-.02c-.39-.5-.84-.9-1.36-1.19-.52-.29-1.07-.48-1.65-.54-.58-.07-1.17-.02-1.77.14s-1.17.45-1.71.86c-.54.42-.96.9-1.27 1.44-.31.54-.5 1.1-.58 1.69-.07.58-.04 1.17.11 1.75.15.58.42 1.12.8 1.62Zm1.28-4.23c.17-.31.41-.59.72-.83s.63-.4.98-.48c.35-.08.7-.1 1.04-.05.34.05.67.17.98.36.31.19.58.43.81.73l.02.02c.23.3.4.62.5.96.1.34.14.68.11 1.03-.03.34-.13.67-.3.98-.17.31-.41.59-.72.83s-.64.4-.99.48-.69.1-1.04.04a2.59 2.59 0 0 1-.98-.36c-.31-.19-.58-.43-.81-.73l-.02-.02c-.23-.3-.4-.62-.5-.96-.1-.34-.14-.68-.11-1.03.03-.34.13-.67.3-.98Z" fill="#010101"/>
		<path d="m39.97 21.19-1.26-2.53 1.37-.68 2.96 1.68 2.03-1.02-3.34-1.86c.41-.44.67-.94.78-1.5.11-.56 0-1.16-.31-1.8v-.02c-.42-.82-1-1.33-1.76-1.53s-1.6-.06-2.54.41l-3.61 1.81 3.95 7.9 1.74-.87Zm-3.17-6.33 1.73-.86c.43-.21.81-.29 1.15-.22.33.07.6.29.78.67v.02c.18.34.2.67.07.98s-.41.58-.83.8l-1.76.88-1.13-2.27Z" fill="#010101"/>
		<path fill="#010101" d="m45.66 11.14 2.04 6.73 1.86-.56-2.04-6.74 2.57-.78-.52-1.71-7 2.12.52 1.72 2.57-.78z"/>
		<path fill="#010101" d="m53.375 7.454 1.546 8.694-1.91.34-1.546-8.694 1.91-.34z"/>
		<path fill="#010101" d="m58.3 15.71-.23-5.61 4.5 5.44 1.65-.07-.35-8.82-1.91.07.21 5.44-4.35-5.27-1.79.07.35 8.82 1.92-.07z"/>
		<path d="M66.57 14.56c.34.46.78.85 1.3 1.16.53.31 1.13.52 1.81.62.8.12 1.53.1 2.19-.08.66-.17 1.25-.42 1.75-.73l.59-3.79-3.79-.59-.26 1.66 1.93.3-.19 1.26c-.54.28-1.17.36-1.89.25a2.583 2.583 0 0 1-1.78-1.08c-.2-.29-.34-.61-.41-.97-.08-.36-.08-.74-.02-1.14v-.02c.06-.38.18-.72.36-1.03.18-.31.4-.57.67-.78s.56-.37.89-.46c.33-.1.66-.12 1.01-.07a3.382 3.382 0 0 1 1.23.43 3.764 3.764 0 0 1 .92.8l1.43-1.27c-.19-.23-.4-.43-.62-.62-.22-.19-.46-.35-.72-.49s-.54-.26-.86-.37-.66-.19-1.05-.25c-.67-.1-1.29-.08-1.89.07-.59.15-1.13.4-1.6.75a4.7 4.7 0 0 0-1.18 1.29c-.31.51-.52 1.08-.61 1.7v.02c-.1.65-.08 1.26.06 1.85.14.58.38 1.11.72 1.57Z" fill="#010101"/>
		<path fill="#010101" d="m80.713 9.934 1.816.68-3.1 8.269-1.816-.68 3.1-8.27z"/>
		<path fill="#010101" d="m86.5 22.28.8-1.56-3.92-2 3.23-6.3-1.73-.89-4.03 7.86 5.65 2.89z"/>
		<path fill="#010101" d="M92.24 26.42 93.26 25l-3.57-2.58 4.14-5.74-1.57-1.14-5.17 7.17 5.15 3.71z"/>
		<path fill="#010101" d="m98.75 20.53 1.435 1.307-5.943 6.53-1.435-1.306 5.944-6.53z"/>
		<path fill="#010101" d="m96.63 30.76 4.31-3.6-1.56 6.88 1.06 1.27 6.77-5.67-1.23-1.47-4.17 3.49 1.52-6.66-1.15-1.37-6.78 5.66 1.23 1.47z"/>
		<path d="M104.88 33.9h-.02c-.56.31-1.02.69-1.4 1.16-.38.46-.64.98-.81 1.54a4.73 4.73 0 0 0-.15 1.77c.06.62.25 1.23.57 1.83.32.6.73 1.1 1.21 1.49.48.39 1.01.67 1.57.84.56.17 1.14.23 1.74.17s1.17-.23 1.73-.53h.02c.56-.31 1.02-.69 1.4-1.16.38-.46.64-.98.81-1.54.16-.56.21-1.15.15-1.77s-.25-1.23-.57-1.83c-.32-.6-.73-1.1-1.21-1.49s-1.01-.67-1.57-.84-1.14-.23-1.74-.17c-.6.05-1.17.23-1.73.53Zm3.05 1.51c.33.08.64.23.92.45s.51.5.7.85c.18.34.29.69.31 1.05.03.36-.02.7-.12 1.03-.11.33-.28.63-.51.91a3 3 0 0 1-.85.68h-.02c-.33.19-.68.3-1.03.35-.35.04-.7.02-1.03-.06-.33-.08-.64-.24-.92-.46-.28-.22-.51-.5-.7-.84-.19-.35-.29-.7-.32-1.05s.02-.7.13-1.03c.11-.33.28-.63.51-.91a3 3 0 0 1 .85-.68h.02c.33-.19.68-.3 1.03-.35.35-.04.7-.02 1.03.06Z" fill="#010101"/>
		<path fill="#010101" d="m113.936 42.331.663 1.823-8.299 3.017-.663-1.823 8.299-3.017z"/>
		<path d="M116.21 49.28c-.1-.44-.26-.83-.47-1.17a2.83 2.83 0 0 0-.75-.82c-.29-.21-.61-.35-.96-.42s-.72-.06-1.11.03h-.02c-.43.11-.77.26-1.02.46s-.45.45-.58.74c-.13.29-.23.63-.27 1.01s-.07.81-.08 1.27c0 .38-.02.7-.05.94s-.07.44-.12.59c-.05.15-.12.25-.2.32s-.19.12-.31.14h-.02c-.25.07-.48 0-.67-.18-.19-.18-.34-.47-.43-.86-.12-.49-.13-.97-.04-1.42.09-.46.25-.92.48-1.39l-1.6-.8c-.35.63-.56 1.28-.63 1.96-.08.68-.04 1.35.12 2.01.11.47.27.88.48 1.23.21.36.46.65.75.87.29.22.62.37.99.45.37.08.77.06 1.19-.04h.02c.38-.09.69-.23.93-.41.24-.18.44-.41.58-.7.15-.28.25-.61.31-.98s.1-.79.11-1.25c.01-.39.03-.72.04-.98.02-.26.05-.47.1-.63.05-.16.12-.28.21-.35.09-.08.2-.13.34-.17h.02c.21-.06.41 0 .6.15s.32.41.41.78c.09.37.1.75.03 1.16-.06.4-.18.83-.35 1.28l1.66.65c.25-.52.4-1.07.47-1.65.06-.57.02-1.17-.13-1.8Z" fill="#010101"/>
		<path d="M80.77 76.87c-.1-.15-.05-.33-.1-.49-.04-.14-.27-.08-.26-.2.02-.12.1-.24.08-.39-.02-.18.24-.21.27-.37.03-.14.04-.3.04-.44 0-.13-.01-.32-.17-.35-.16-.02-.32-.07-.47-.14-.14-.07-.13-.27-.04-.39.1-.13.01-.26 0-.4-.02-.13.02-.3-.12-.38-.11-.06-.31-.06-.3-.23 0-.13-.04-.27-.19-.24-.06 0-.3 0-.2-.05.11-.06.13-.15.03-.22-.15-.1-.01-.26.06-.36.07-.09.08-.23.17-.31.1-.09.24-.13.34-.23.1-.1.31-.16.28-.33-.02-.15.05-.37-.12-.44-.13-.05-.29-.1-.24-.27.05-.15 0-.29-.08-.42-.1-.15.08-.29.17-.4.1-.12.22-.23.38-.21.1.02.25-.03.25-.19L80.72 38v-.72l-3.17-9.94c-10.58 0-21.17-.16-31.76-.12 0 .07 0 .13.02.19 0 .18.12.29.26.39.15.11.41.08.47.25.05.15.15.29.32.31.17.02.27.28.47.29.21 0 .33.18.46.32.14.14.37.19.45.39.09.25.18.52.16.79-.01.24 0 .5.19.68.15.15.29.32.49.39.22.08.33.32.56.39.32.09.68.1.93.33.13.12.19.32.39.32.19 0 .26.2.26.36 0 .2-.11.42 0 .59.11.17.21.35.26.54.06.22.05.44-.03.65-.11.33-.34.65-.29 1.01.02.17.04.37-.07.52-.11.14-.07.31-.12.47-.06.2-.28.21-.44.28-.19.08-.31.3-.52.35-.17.04-.28.18-.41.28-.15.12-.18.3-.18.48 0 .19-.08.37-.15.55-.08.21-.05.45-.1.67 0 .04-.01.09-.01.13l-.27.54c-.17.05-.38.02-.53.14-.2.16-.23.45-.43.62-.15.13-.35.06-.52.03-.17-.03-.34-.02-.5-.01-.26.01-.5.13-.71.28-.33.24-.63.56-1.05.63-.19.03-.38-.02-.57.03-.18.05-.37.04-.56.05-.17 0-.27-.12-.45-.04-.17.08-.31.21-.49.24-.22.05-.46.07-.68.07-.2 0-.37-.22-.58-.15-.22.06-.44.19-.55.39-.11.19-.07.42-.04.63.02.16.06.35-.07.48-.13.14-.14.36-.18.54-.04.18-.19.34-.18.54 0 .18.1.34.2.49.1.14.2.28.28.43.08.14.16.36.35.33.18-.03.42.05.45.25.03.2.21.32.31.47.12.18-.04.39-.05.58-.01.26.03.52.13.77.12.29-.04.61-.16.88-.13.29-.49.36-.66.62-.18.27-.55.35-.69.66-.09.21-.03.44-.04.66 0 .18.06.38-.08.53-.12.13-.21.29-.18.47.03.2.01.42-.15.57-.12.11-.28.15-.43.21-.47.18-.98.2-1.45.38-.31.12-.62.24-.9.42-.14.09-.35.14-.4.32-.04.14-.13.33 0 .45.11.1.37.05.4.24.03.13 0 .28.06.41.08.18.02.37-.08.53-.1.16-.1.38.02.52.16.19-.07.32-.23.37-.24.07-.5.15-.65.38-.14.21-.18.47-.29.7-.13.27-.2.59-.16.89.02.15 0 .3-.06.44-.06.15-.08.31-.07.47.01.21-.02.43.02.64.04.2.16.37.2.57.05.25.22.48.2.76-.02.24-.06.54.14.72.12.11.24.23.25.41 0 .14.11.33-.02.43-.17.12-.29.33-.2.53.08.17.21.31.34.44.13.12.32.13.44.26.14.14.08.34.09.51 0 .23-.03.47.01.7.04.18.28.18.42.27.2.12.39.28.5.49.08.15.23.24.36.34.13.1.21.28.39.32.21.05.4.22.41.44 0 .17.12.32.25.43.16.13.37.09.55.13.18.04.35.17.39.36.05.26.07.54.26.74.17.18.39.29.59.44.2.14.36.35.6.44.16.06.31.15.44.26.18.15.44.18.61.34.16.15.31.32.49.44.13.09.18.25.31.34.12.08.22.18.29.31.14.27.34.53.41.84.04.19-.02.39-.01.57 0 .24.26.39.25.65 0 .18.03.38-.09.53-.12.16-.05.39-.04.58.01.2.23.34.22.56 0 .21.17.37.18.58.01.21.2.36.26.55.06.17.18.34.37.39.23.05.46.05.69.06.17 0 .36-.02.45-.18.09-.16.14-.35.26-.5.11-.14.19-.32.32-.43.01 0 .02-.02.03-.02 0 .01.01.03.01.04l.02-.06c.13-.06.3-.05.45-.04.25 0 .39.28.62.34.24.06.48.1.71.17.17.05.37-.03.52.09.14.1.19.31.36.36.14.04.27.08.39.16s.25.12.38.15c.17.04.3.19.33.37.03.18.03.4-.14.51-.14.1-.27.21-.36.36-.08.14-.31.19-.32.37 0 .24-.13.45-.1.69.03.33.1.65.11.98 0 .25-.21.44-.4.59-.16.13-.34.25-.42.45-.13.32-.04.69-.18 1.01-.11.26-.19.57-.45.73-.18.11-.15.35-.3.48-.17.14-.23.36-.31.56-.09.24-.09.51-.07.76.02.19.07.38.15.56.08.18.04.4.12.58.08.17.34.11.48.24.13.13.22.29.4.37.19.09.26.31.38.47.16.22.4.35.65.46.19.08.38.16.56.26.19.1.14.42.36.51.17.07.37.08.49.24.14.18.4.21.53.39.1.14.3.25.45.13.13-.11.36-.2.49-.06.18.18.3.42.47.61.24.25.58.36.85.57.18.14.42.2.59.35.2.17.36.38.56.54.13.1.33.18.32.37 0 .16-.11.35 0 .49.19.23.55.19.73.44.11.15.37.03.47.19.1.17.33.13.46.23.14.11.09.32.08.48 0 .15.02.31.07.45.07.19-.1.35-.15.53-.06.23-.02.49.13.68.11.14.07.35.12.51.05.18.23.27.36.39.33.3.53.76.5 1.21-.01.17-.13.33-.3.38-.29.08-.61.22-.74.51-.09.21-.09.52.11.67.14.1.37-.03.48.11.16.19.06.45.03.67-.03.19-.01.43.17.54.15.09.29.21.43.32.13.1.21.25.25.41.05.21.09.43.04.65-.05.19.21.28.35.36.16.1.38.08.51.21.09.09.21.21.35.14.18-.1.16-.36.01-.49-.12-.1-.33-.09-.38-.25-.03-.11.01-.25.12-.32.13-.08.27 0 .33.12.08.14.16.28.28.38.15.12.38.16.48.34.07.13.28.24.31.04.03-.18.06-.36.06-.54 0-.15-.02-.32.14-.41.15-.08.29-.19.43-.29.17-.12.24-.35.29-.55.05-.18.17-.3.33-.38.18-.09.27-.28.4-.42.15-.16.39-.09.58-.07.16.02.33.04.49 0a.71.71 0 0 1 .43.04c.2.09.4.17.61.25.13.05.27.05.38.15.1.09.12.24.24.32.21.14.46.15.68.24.15.06.27.19.43.2.23.02.39.2.6.29.16.06.29.18.45.23.12.04.23.13.35.16.13.03.21.13.35.14.14 0 .31.01.43-.06.11-.07.21-.14.3-.24.1-.11.17-.24.27-.34.12-.12.06-.31.07-.46a.416.416 0 0 0-.1-.31c-.12-.14-.18-.32-.22-.49a.483.483 0 0 0-.23-.34c-.09-.05-.18-.1-.24-.19-.13-.17-.16-.39-.15-.6 0-.12 0-.26.09-.35.11-.1.12-.26.19-.38.08-.12.12-.26.09-.39-.04-.15.05-.31.2-.35.13-.03.25-.11.31-.23.07-.17.22 0 .34-.02.15-.04.2.19.34.21.15.03.27-.11.35-.2.09-.1.17-.27.31-.31.13-.05.29-.02.39-.14.1-.11.28-.1.42-.11.21-.01.44.02.64-.07.09-.04.19-.1.29-.09.19 0 .38-.02.57-.02.16 0 .34-.1.35-.26.01-.14 0-.3-.06-.43-.1-.2-.28-.33-.46-.44-.14-.08-.2-.24-.19-.4.02-.16-.16-.25-.21-.4-.07-.19-.17-.39-.1-.59.06-.16.21-.27.33-.4.1-.12.25-.19.34-.32.1-.14.27-.19.42-.26.11-.05.03-.28.14-.33.12-.06.09-.23.18-.26.13-.04.18-.23.06-.3-.13-.07-.29-.04-.44-.06-.13-.02-.26-.09-.26-.25 0-.15.15-.22.26-.12.07.07.18.06.28.07.11 0 .33-.03.21-.17-.11-.14-.33-.04-.44-.19-.08-.11-.08-.28-.21-.36-.1-.07-.27-.28-.1-.34.15-.06.25.14.39.17.12.03.25-.01.37-.04.17-.04.09-.22.05-.33-.04-.11-.09-.21-.13-.32-.03-.09-.06-.26.06-.28.19-.03.16-.21.05-.31-.12-.1-.07-.26.03-.36.12-.12-.09-.15-.18-.16-.14-.02-.21-.31-.04-.33.13-.02.27.05.42.01.15-.04.3-.07.43-.16.12-.08.19-.3.04-.37-.13-.06-.25.09-.38.12-.14.03-.31-.14-.17-.23.12-.07.27-.1.4-.15.11-.05.2-.11.29-.19.11-.1-.04-.15 0-.26.03-.08.25-.16.1-.21-.07-.02-.06 0-.03-.08.07-.16-.18-.15-.27-.22-.12-.1-.09-.28-.17-.41-.08-.14.03-.24.03-.37 0-.22.22-.03.33-.05.12-.02.13-.23.16-.35.03-.11 0-.28.13-.33.17-.07.15.17.16.28.01.15.25.06.27-.06.03-.12 0-.28.1-.35.13-.09.18.1.17.21-.01.1.06.22.18.21.13-.02.22-.13.22-.25 0-.19-.02-.39.02-.57.03-.14.09-.32.24-.37.15-.04.25-.18.38-.23.15-.06.27-.19.27-.34 0-.16.13-.28.15-.44.02-.15-.13-.14-.23-.18-.13-.05-.09-.24.02-.3.12-.06.25-.08.38-.09.13 0 .3 0 .35-.15.04-.1.16-.12.25-.11.13.02.2-.11.15-.23-.05-.13-.26-.18-.22-.32.03-.09.15-.15.17-.26.03-.13.08-.25.19-.34.08-.06.15-.16.11-.27-.04-.11.01-.24.02-.36 0-.15.15-.21.27-.27.13-.07.19-.24.34-.27.13-.03.26-.03.38-.12.07-.06.15-.11.19-.2.04-.1-.05-.19 0-.28.06-.11.23-.18.18-.32-.04-.14-.06-.29.01-.43.07-.15-.1-.28-.17-.4Z" fill="#040404" opacity=".1"/>
		<path d="M11.55 82.43c-.34-.06-.64-.19-.93-.4-.28-.21-.53-.5-.75-.86s-.41-.77-.56-1.24l-1.28-3.99 8.41-2.7 1.25 3.9c.28.86.3 1.6.06 2.22-.23.62-.68 1.03-1.35 1.25h-.02c-.24.08-.46.12-.67.12a2.051 2.051 0 0 1-1.08-.3c-.15-.1-.3-.21-.42-.33-.03.54-.15 1.01-.38 1.39-.23.38-.62.66-1.18.84h-.02c-.38.13-.74.17-1.08.11Zm.75-2.01a.82.82 0 0 0 .56-.54c.09-.27.06-.64-.09-1.12l-.69-2.14-1.85.6.71 2.2c.13.41.31.7.53.89.22.18.49.23.8.13h.02Zm3.21-1.55c.28-.09.46-.26.54-.52s.06-.58-.07-.97l-.59-1.83-1.78.57.55 1.71c.13.41.31.71.52.91.22.2.48.24.79.14h.02Z" fill="#010101"/>
		<path d="m13.71 89.8 1.62-2.99-.71-1.35-2.5 1.32-.91-1.72 7.81-4.12 1.88 3.57c.49.93.65 1.77.46 2.53-.18.76-.68 1.35-1.49 1.78h-.02c-.63.35-1.23.46-1.79.36-.56-.1-1.07-.35-1.51-.75l-1.78 3.38-1.06-2.01Zm5.16-2.68c.37-.2.59-.46.65-.8.06-.34-.02-.72-.25-1.14l-.9-1.71-2.24 1.18.92 1.74c.22.42.5.7.82.82.32.12.65.09.98-.08h.02Z" fill="#010101"/>
		<path d="M23.38 98.69c-.58.16-1.16.21-1.74.14-.59-.07-1.15-.25-1.7-.55-.55-.3-1.03-.72-1.46-1.25s-.72-1.1-.89-1.69c-.17-.6-.23-1.18-.17-1.76.06-.58.23-1.13.52-1.66.29-.52.68-.98 1.17-1.38l.02-.02c.49-.39 1.03-.67 1.61-.83.58-.16 1.16-.21 1.74-.14.59.07 1.15.25 1.7.55.55.3 1.03.72 1.46 1.25s.72 1.1.89 1.69c.17.6.23 1.18.17 1.76-.06.58-.23 1.13-.52 1.66-.29.52-.68.98-1.17 1.38l-.02.02c-.49.39-1.03.67-1.61.83Zm.34-2.42c.3-.24.53-.51.72-.82.18-.31.3-.64.34-.99s.03-.69-.06-1.04c-.09-.35-.26-.67-.5-.98-.25-.31-.53-.54-.84-.71s-.64-.26-.98-.28-.68.02-1.02.12c-.34.11-.66.28-.96.51l-.02.02c-.3.24-.53.51-.72.82-.18.31-.3.64-.34.99s-.03.69.06 1.03c.09.34.25.67.5.98.24.3.52.54.84.7s.65.26.99.29c.34.02.68-.02 1.02-.12s.66-.28.96-.51l.02-.02Z" fill="#010101"/>
		<path d="m30.87 99.5-4.63 5.3-1.46-1.28 4.63-5.3-2.02-1.77 1.18-1.35 5.51 4.82-1.18 1.35-2.02-1.77Z" fill="#010101"/>
		<path d="m34.58 110.66 1.85-3.02-3.05-1.88-1.85 3.02-1.66-1.02 4.62-7.53 1.66 1.02-1.83 2.98 3.05 1.87 1.83-2.98 1.66 1.02-4.62 7.53-1.66-1.02Z" fill="#010101"/>
		<path d="m38.64 112.82 3.26-8.21 6.18 2.46-.64 1.61-4.4-1.75-.66 1.67 3.87 1.54-.64 1.61-3.87-1.54-.69 1.72 4.45 1.77-.64 1.61-6.24-2.48Z" fill="#010101"/>
		<path d="m52.27 117.07-1.26-3.16-1.49-.32-.59 2.76-1.9-.41 1.85-8.64 3.95.84c1.03.22 1.77.64 2.24 1.27.46.62.6 1.38.41 2.28v.02c-.15.7-.45 1.23-.88 1.6-.44.37-.95.59-1.55.68l1.45 3.54-2.22-.48Zm1.25-5.68c.09-.41.02-.75-.2-1.01s-.56-.44-1.03-.54l-1.89-.4-.53 2.48 1.92.41c.47.1.85.07 1.15-.1.3-.17.49-.44.57-.81v-.02Z" fill="#010101"/>
		<path d="M62.68 116.56c-.18.33-.41.61-.71.83s-.64.38-1.04.48c-.4.1-.84.14-1.32.12-.67-.03-1.33-.18-1.96-.44-.64-.26-1.21-.65-1.71-1.15l1.21-1.32c.39.35.79.63 1.2.84.42.21.87.33 1.38.36.4.02.72-.04.95-.17.23-.14.35-.33.36-.6v-.03c0-.13-.01-.24-.05-.34-.04-.1-.13-.19-.25-.28-.13-.09-.3-.18-.53-.28-.23-.09-.52-.2-.89-.31-.44-.13-.84-.27-1.2-.42-.36-.15-.66-.33-.9-.54-.24-.21-.43-.46-.55-.77s-.18-.67-.16-1.11v-.03c.02-.4.11-.76.28-1.08.17-.32.39-.58.67-.81.28-.22.62-.39 1-.49.38-.11.8-.15 1.25-.13.65.03 1.24.16 1.77.38s1.02.52 1.45.9l-1.08 1.41a6.02 6.02 0 0 0-1.13-.69c-.37-.17-.75-.27-1.12-.29-.38-.02-.67.04-.86.18-.2.14-.3.32-.31.54v.02c0 .14.01.27.06.38s.14.21.28.3.33.18.58.27c.24.09.55.19.93.31.44.14.83.29 1.17.45.34.16.63.36.86.57.23.22.4.47.51.75.11.28.15.62.14 1v.02c-.02.44-.12.82-.3 1.15Z" fill="#010101"/>
		<path d="m74.54 116.79-1.19-.84c-.3.35-.65.66-1.04.91s-.83.42-1.34.51c-.41.07-.81.08-1.19.03-.38-.05-.71-.17-1.01-.34-.3-.17-.55-.4-.76-.69-.2-.29-.34-.62-.41-1.01-.1-.56-.04-1.07.18-1.51.22-.44.58-.84 1.08-1.18-.27-.27-.48-.53-.62-.79s-.24-.54-.3-.85c-.05-.3-.05-.6.02-.89.07-.3.19-.57.38-.82s.43-.47.74-.66c.3-.19.67-.32 1.09-.39.37-.07.72-.07 1.04 0 .32.06.6.17.85.33s.46.37.62.61c.16.25.27.53.33.83.1.59.02 1.09-.26 1.52-.28.42-.66.79-1.17 1.09l1.36.95c.1-.25.2-.51.3-.79s.19-.56.29-.85l1.54.52c-.11.34-.23.68-.37 1.03s-.28.69-.45 1.01l1.51 1.05-1.23 1.23Zm-4.41-3.14c-.26.2-.44.41-.53.64-.09.23-.11.45-.08.66.06.32.21.55.47.69.26.15.57.19.93.12.22-.04.42-.12.62-.24s.38-.28.55-.48l-1.96-1.4Zm.91-3.79a.89.89 0 0 0-.63-.11c-.26.04-.45.16-.57.36-.12.19-.16.42-.12.69.04.2.11.37.21.52.11.15.27.31.49.48.36-.21.62-.42.78-.63s.22-.46.17-.74c-.05-.26-.16-.45-.34-.57Z" fill="#010101"/>
		<path d="M86.34 110.92c-.01.38-.1.73-.27 1.05-.17.32-.41.62-.73.89-.31.27-.69.49-1.13.68-.62.26-1.27.42-1.96.46s-1.37-.06-2.04-.29l.52-1.72c.5.14.98.22 1.45.23.47.01.93-.08 1.4-.28.37-.16.63-.35.78-.57s.17-.45.07-.69v-.02a.765.765 0 0 0-.21-.28.757.757 0 0 0-.35-.15c-.15-.03-.35-.03-.6-.02-.25.01-.56.05-.94.11-.45.08-.87.12-1.26.14-.39.02-.73-.01-1.04-.1-.31-.08-.59-.23-.83-.45s-.45-.53-.62-.93v-.02c-.17-.37-.24-.74-.23-1.09.01-.36.1-.7.25-1.02s.39-.62.68-.88.66-.48 1.07-.66c.6-.25 1.18-.4 1.76-.43.57-.03 1.14.03 1.7.18l-.36 1.74c-.47-.09-.91-.14-1.32-.13s-.79.08-1.14.23c-.35.15-.58.33-.7.54-.12.21-.13.42-.05.62v.02c.07.13.14.24.23.31.09.08.22.12.38.14s.38.02.64 0c.26-.03.58-.07.97-.13.46-.07.88-.1 1.26-.1s.72.05 1.02.14c.3.09.56.25.78.45.22.21.41.49.56.84v.02c.18.4.26.79.25 1.17Z" fill="#010101"/>
		<path d="m88.86 111.14-4.37-7.68 1.69-.96 4.37 7.68-1.69.96Z" fill="#010101"/>
		<path d="M96.73 104.18c.07.37.06.73-.03 1.08-.09.35-.26.7-.51 1.03-.25.33-.56.64-.95.92-.54.4-1.14.69-1.8.89-.66.2-1.34.26-2.06.18l.12-1.79c.52.03 1.01 0 1.46-.1.46-.09.89-.29 1.3-.59.33-.24.54-.48.63-.73a.71.71 0 0 0-.09-.69v-.02a.947.947 0 0 0-.27-.23.687.687 0 0 0-.37-.06c-.16 0-.35.05-.59.12-.24.07-.53.17-.89.32-.43.18-.82.32-1.2.42-.37.11-.72.15-1.04.14-.32-.01-.62-.09-.91-.25-.29-.16-.56-.41-.82-.76v-.02c-.25-.33-.41-.66-.48-1.01s-.06-.7.02-1.05c.08-.35.24-.69.47-1.01s.53-.62.9-.89c.52-.38 1.06-.66 1.61-.82.55-.16 1.12-.23 1.7-.21l.05 1.78c-.48.02-.92.07-1.31.17s-.75.26-1.05.48c-.31.22-.49.45-.56.68-.07.23-.03.43.09.61v.02c.1.12.19.2.3.25s.24.07.41.05c.17-.02.37-.07.62-.15s.55-.2.92-.34c.43-.17.83-.3 1.2-.38.37-.09.71-.12 1.03-.09.32.02.6.11.87.26s.51.38.74.7v.02c.27.35.44.71.51 1.08Z" fill="#010101"/>
		<path d="m97.23 96.01 4.97 4.99-1.38 1.37-4.97-4.99-1.9 1.9-1.26-1.27 5.19-5.16 1.26 1.27-1.9 1.9Z" fill="#010101"/>
		<path d="m105.32 97.61-7.13-5.21 3.93-5.37 1.4 1.02-2.79 3.82 1.45 1.06 2.46-3.36 1.4 1.02-2.46 3.36 1.5 1.09 2.83-3.87 1.4 1.02-3.96 5.42Z" fill="#010101"/>
		<path d="m112.87 85.48-3.38.42-.68 1.36 2.53 1.27-.87 1.74-7.89-3.96 1.81-3.61c.47-.94 1.07-1.56 1.79-1.85s1.49-.23 2.31.18h.02c.64.33 1.08.75 1.33 1.26s.34 1.07.27 1.67l3.79-.51-1.02 2.03Zm-5.18-2.64c-.38-.19-.72-.21-1.03-.06s-.57.43-.79.86l-.87 1.73 2.27 1.14.88-1.76c.21-.43.28-.81.19-1.14s-.3-.58-.64-.75h-.02Z" fill="#010101"/>
		<path d="M114.97 75.3c.28.25.49.55.62.89.14.34.2.72.2 1.13 0 .41-.07.85-.21 1.31-.2.64-.51 1.24-.92 1.79-.41.55-.93 1.01-1.54 1.37l-.97-1.5c.43-.29.81-.61 1.12-.95.31-.35.54-.76.69-1.25.12-.39.14-.71.07-.96a.694.694 0 0 0-.48-.5h-.02c-.12-.04-.23-.06-.34-.04-.11.02-.22.07-.34.17-.12.1-.25.25-.4.44-.15.2-.32.46-.52.79-.24.39-.47.74-.71 1.05-.24.31-.49.55-.75.73-.26.18-.56.3-.88.34-.32.05-.69 0-1.11-.13h-.02c-.39-.13-.71-.31-.98-.55-.26-.24-.47-.52-.61-.85-.14-.33-.22-.69-.23-1.09 0-.4.05-.81.19-1.25.19-.62.46-1.16.81-1.62.35-.46.76-.85 1.24-1.18l1.1 1.4c-.37.3-.69.6-.95.92-.26.31-.45.65-.56 1.01s-.13.65-.04.88.23.37.44.43h.02c.14.05.26.06.38.04s.24-.09.36-.2c.12-.11.26-.28.4-.49.15-.22.32-.49.53-.82.25-.39.49-.73.73-1.02s.5-.52.77-.69c.27-.17.55-.27.85-.3s.64 0 1.01.12h.02c.42.14.77.33 1.04.58Z" fill="#010101"/>
		<path fill="#e3ca20" d="M14.01 64.27a3.3 3.3 0 1 1-6.6 0 3.3 3.3 0 0 1 6.6 0z"/>
		<path fill="#e3ca20" d="M116.94 64.27a3.3 3.3 0 1 1-6.6 0 3.3 3.3 0 0 1 6.6 0z"/>
		<path d="m68.31 63.85-.5 1.99v-.01c.34-.41.54-.92.62-1.56.02-.21.01-.33 0-.4-.03 0-.07-.02-.13-.02Z" fill="none"/>
		<path d="M99.99 67.77c-.34-.43-.97-.93-2.06-.93-.6 0-1.14.15-1.64.42.32-.78.54-1.61.64-2.49.19-1.63-.05-3-.7-4.08-.62-1.03-1.63-1.95-3.01-2.71-1.37-.75-1.79-1.11-1.91-1.23-.09-.09-.13-.17-.11-.34.02-.2.11-.34.28-.48.19-.16.5-.24.9-.24.85 0 1.54.36 2.18 1.13l.76.92 4.7-4.38-.56-.8a7.433 7.433 0 0 0-2.85-2.47c-1.12-.55-2.48-.82-4.05-.82s-3.1.32-4.47.96a8.993 8.993 0 0 0-3.43 2.79c-.9 1.21-1.44 2.63-1.63 4.22-.18 1.55.05 2.85.67 3.87.6.98 1.59 1.83 3.03 2.6 1.23.66 1.67 1.06 1.83 1.24.1.11.21.3.17.69-.04.37-.18.65-.43.86-.25.22-.59.33-1.04.33-.54 0-1-.1-1.38-.31-.44-.23-.9-.61-1.37-1.13l-.74-.81-4.16 3.6c-.07-.14-.16-.28-.26-.4-.34-.43-.97-.93-2.06-.93-.53 0-1.01.12-1.46.33.28-.7.47-1.46.57-2.28.21-1.79-.32-3.21-1.5-4.17.44-.28.86-.61 1.24-.97 1.08-1.03 1.72-2.37 1.9-3.97.22-1.94-.48-3.51-2.03-4.54-1.4-.93-3.31-1.39-5.82-1.39h-6.37l-4.8 18.8c-.09-.32-.24-.61-.44-.87-.34-.43-.97-.93-2.06-.93-.91 0-1.72.32-2.39.95-.22.2-.39.43-.55.66l4.75-18.6h-8.06l-4.92 19.24c-.06-.49-.23-.94-.53-1.32-.34-.43-.97-.93-2.06-.93-.75 0-1.43.23-2.02.66a9.2 9.2 0 0 0 .75-2.73c.19-1.62-.05-3-.7-4.08-.62-1.03-1.63-1.95-3.01-2.71-1.37-.75-1.79-1.11-1.91-1.23-.09-.09-.13-.17-.11-.34.02-.2.11-.34.28-.48.19-.16.5-.24.9-.24.85 0 1.54.36 2.18 1.13l.76.92 4.7-4.38-.56-.8a7.433 7.433 0 0 0-2.85-2.47c-1.12-.55-2.48-.82-4.05-.82s-3.1.32-4.47.96a8.993 8.993 0 0 0-3.43 2.79c-.9 1.21-1.44 2.63-1.63 4.22-.18 1.55.05 2.85.67 3.87.6.98 1.59 1.83 3.02 2.6 1.23.66 1.67 1.06 1.83 1.23.1.11.21.3.17.69-.04.37-.18.65-.43.87-.25.22-.59.33-1.04.33-.54 0-1-.1-1.38-.31-.44-.23-.9-.61-1.37-1.13l-.74-.81-4.97 4.3.57.83c1.62 2.37 4.11 3.57 7.41 3.57 1.72 0 3.34-.36 4.8-1.07 1.23-.6 2.27-1.41 3.13-2.4-.02.1-.05.19-.06.28-.09.78.1 1.5.55 2.06.34.43.96.94 2.06.94.9 0 1.72-.32 2.38-.93.2-.18.36-.38.51-.59l-.29 1.13h8.06l.49-1.91c.06.51.23.98.54 1.37.34.43.97.93 2.06.93.9 0 1.72-.32 2.38-.93.08-.07.14-.16.22-.24l-.2.77h7.69c2.85 0 5.28-.64 7.21-1.9.32-.21.61-.44.88-.67-.08.77.11 1.47.55 2.03.34.43.97.93 2.06.93.9 0 1.72-.32 2.38-.93.55-.51.9-1.14 1.07-1.86 1.61 1.98 3.95 2.99 6.96 2.99 1.72 0 3.34-.36 4.8-1.07 1.07-.52 2.01-1.2 2.8-2.03-.06.74.12 1.42.55 1.97.34.43.97.94 2.06.94.91 0 1.71-.31 2.38-.93.66-.61 1.05-1.38 1.15-2.29.09-.8-.1-1.52-.55-2.09Zm-31.56-3.5c-.07.63-.27 1.14-.62 1.55s0 0 0 .01l.5-1.99c.06 0 .1.01.13.02.01.07.02.19 0 .4Z" fill="#254967"/>
		<path d="M39.84 61.26c-.52-.87-1.39-1.64-2.59-2.31-1.11-.61-1.84-1.09-2.17-1.43-.33-.34-.47-.76-.42-1.26.06-.49.29-.9.69-1.23.4-.33.94-.49 1.61-.49 1.18 0 2.2.51 3.05 1.54l3.11-2.9a6.176 6.176 0 0 0-2.42-2.1c-.97-.47-2.16-.71-3.56-.71s-2.77.29-3.99.86a7.79 7.79 0 0 0-3 2.44c-.78 1.06-1.25 2.28-1.41 3.68-.15 1.3.02 2.35.51 3.15.49.8 1.36 1.53 2.6 2.2 1.06.57 1.77 1.06 2.14 1.48.37.41.51.94.44 1.57-.07.65-.34 1.18-.8 1.58-.46.4-1.06.61-1.78.61s-1.37-.15-1.92-.44c-.55-.3-1.1-.75-1.66-1.36l-3.38 2.93c1.4 2.05 3.56 3.08 6.48 3.08 1.56 0 2.99-.32 4.31-.96a8.557 8.557 0 0 0 3.22-2.66c.83-1.13 1.33-2.43 1.5-3.89.16-1.38-.02-2.5-.54-3.37Z" fill="#ffffff"/>
		<path d="M42.77 67.96a2.3 2.3 0 0 0-1.62.65c-.46.43-.73.96-.8 1.6-.06.49.05.9.31 1.24.27.34.66.51 1.17.51.62 0 1.16-.21 1.62-.63.46-.42.73-.95.8-1.59.06-.5-.05-.92-.31-1.26-.27-.34-.66-.51-1.17-.51Z" fill="#ffffff"/>
		<path fill="#ffffff" d="m51.15 50.97-5.26 20.58h5.74l5.26-20.58h-5.74z"/>
		<path d="M56.52 67.96a2.3 2.3 0 0 0-1.62.65c-.46.43-.73.96-.8 1.6-.06.49.05.9.31 1.24.27.34.66.51 1.17.51.62 0 1.16-.21 1.62-.63.46-.42.73-.95.8-1.59.06-.5-.05-.92-.31-1.26-.27-.34-.66-.51-1.17-.51Z" fill="#ffffff"/>
		<path d="M72.16 60.67c1.26-.32 2.33-.9 3.22-1.74s1.41-1.94 1.56-3.28c.17-1.52-.34-2.68-1.54-3.47-1.2-.8-2.93-1.2-5.2-1.2h-5.5l-5.26 20.58h6.24c2.64 0 4.84-.57 6.6-1.72 1.76-1.14 2.77-2.84 3.02-5.09.25-2.19-.8-3.55-3.14-4.08Zm-3.48 5.87c-.48.58-1.12.87-1.93.87h-.5l1.19-4.7h.62c.61 0 1.03.14 1.25.41.22.28.3.7.24 1.27-.1.85-.39 1.56-.87 2.14Zm1.64-8.28c-.38.48-.93.72-1.64.72h-.33l1.02-3.99h.38c.95 0 1.37.44 1.27 1.33-.09.81-.33 1.45-.71 1.94Z" fill="#ffffff"/>
		<path d="M77.32 67.96a2.3 2.3 0 0 0-1.62.65c-.46.43-.73.96-.8 1.6-.06.49.05.9.31 1.24.27.34.66.51 1.17.51.62 0 1.16-.21 1.62-.63.46-.42.73-.95.8-1.59.06-.5-.05-.92-.31-1.26-.27-.34-.66-.51-1.17-.51Z" fill="#ffffff"/>
		<path d="M95.27 61.26c-.52-.87-1.39-1.64-2.59-2.31-1.11-.61-1.84-1.09-2.17-1.43-.33-.34-.47-.76-.42-1.26.06-.49.29-.9.69-1.23.4-.33.94-.49 1.61-.49 1.18 0 2.2.51 3.05 1.54l3.11-2.9a6.176 6.176 0 0 0-2.42-2.1c-.97-.47-2.16-.71-3.56-.71s-2.77.29-3.99.86a7.79 7.79 0 0 0-3 2.44c-.78 1.06-1.25 2.28-1.41 3.68-.15 1.3.02 2.35.51 3.15.49.8 1.36 1.53 2.6 2.2 1.06.57 1.77 1.06 2.14 1.48.37.41.51.94.44 1.57-.07.65-.34 1.18-.8 1.58-.46.4-1.06.61-1.78.61s-1.37-.15-1.92-.44c-.55-.3-1.1-.75-1.66-1.36l-3.38 2.93c1.4 2.05 3.56 3.08 6.48 3.08 1.56 0 2.99-.32 4.31-.96a8.557 8.557 0 0 0 3.22-2.66c.83-1.13 1.33-2.43 1.5-3.89.16-1.38-.02-2.5-.54-3.37Z" fill="#ffffff"/>
		<path d="M99.11 68.46c-.27-.34-.66-.51-1.17-.51a2.3 2.3 0 0 0-1.62.65c-.46.43-.73.96-.8 1.6-.06.49.05.9.31 1.24.27.34.66.51 1.17.51.62 0 1.16-.21 1.62-.63.46-.42.73-.95.8-1.59.06-.5-.05-.92-.31-1.26Z" fill="#ffffff"/>
	</g>
</svg>