<?xml version="1.0" ?>
<svg xmlns="http://www.w3.org/2000/svg" viewBox="0, 0, 400,400">
	<title>bimi-svg-tiny-12-ps</title>
	<g id="svgg">
		<path id="path0" d="M181.583 42.174 C 171.651 42.918,164.534 49.017,161.075 59.750 C 160.543 61.400,159.262 65.235,158.229 68.271 C 157.195 71.308,156.301 74.008,156.240 74.271 C 156.180 74.535,155.280 77.235,154.240 80.271 C 153.201 83.308,152.301 86.008,152.240 86.271 C 152.180 86.535,151.280 89.235,150.240 92.271 C 149.201 95.308,148.301 98.008,148.240 98.271 C 148.180 98.535,147.280 101.235,146.240 104.271 C 145.201 107.308,144.301 110.008,144.240 110.271 C 144.180 110.535,143.280 113.235,142.240 116.271 C 141.201 119.308,140.301 122.008,140.240 122.271 C 140.180 122.535,139.280 125.235,138.240 128.271 C 137.201 131.308,136.301 134.008,136.240 134.271 C 136.180 134.535,135.280 137.235,134.240 140.271 C 133.201 143.308,132.301 146.008,132.240 146.271 C 132.180 146.535,131.276 149.245,130.232 152.295 C 129.188 155.345,128.270 158.120,128.192 158.462 C 128.114 158.804,127.409 160.927,126.625 163.181 C 125.841 165.435,125.047 167.835,124.861 168.514 C 122.040 178.807,127.192 189.889,137.052 194.738 C 141.102 196.730,142.166 196.845,155.991 196.793 L 167.398 196.750 167.720 195.667 C 168.019 194.661,170.148 188.272,173.245 179.083 C 173.955 176.975,174.877 174.200,175.293 172.917 C 176.057 170.557,178.876 162.112,181.245 155.083 C 181.955 152.975,182.877 150.200,183.293 148.917 C 184.057 146.557,186.876 138.112,189.245 131.083 C 189.955 128.975,190.877 126.200,191.293 124.917 C 192.057 122.557,194.876 114.112,197.245 107.083 C 197.955 104.975,198.877 102.200,199.293 100.917 C 200.057 98.557,202.876 90.112,205.245 83.083 C 205.955 80.975,206.877 78.200,207.293 76.917 C 208.057 74.557,210.876 66.112,213.245 59.083 C 213.955 56.975,214.876 54.200,215.291 52.917 C 215.706 51.633,216.673 48.737,217.440 46.480 C 218.206 44.223,218.833 42.292,218.833 42.188 C 218.833 41.972,184.466 41.958,181.583 42.174 M286.041 46.500 C 285.207 48.929,284.397 51.367,284.240 51.917 C 284.084 52.467,283.188 55.167,282.250 57.917 C 281.312 60.667,280.131 64.192,279.625 65.750 C 278.661 68.716,277.341 72.672,274.341 81.583 C 273.354 84.517,272.132 88.192,271.626 89.750 C 271.119 91.308,270.134 94.255,269.436 96.299 C 268.738 98.343,268.167 100.086,268.167 100.174 C 268.167 100.275,277.709 100.333,294.059 100.333 L 319.951 100.333 321.637 95.447 C 323.771 89.258,323.923 88.680,324.568 84.333 C 326.659 70.239,319.818 55.463,307.667 47.828 C 305.783 46.645,302.142 44.805,301.000 44.460 C 300.496 44.307,299.483 43.997,298.750 43.771 C 295.610 42.803,292.234 42.226,289.153 42.132 L 287.556 42.083 286.041 46.500 M79.815 299.458 C 79.296 300.810,76.454 309.182,76.322 309.750 C 72.568 325.924,77.155 339.732,89.583 349.672 C 92.533 352.031,98.687 355.134,101.750 355.807 C 102.208 355.907,103.221 356.138,104.000 356.319 C 106.097 356.806,109.391 357.190,110.989 357.133 L 112.395 357.083 114.173 351.833 C 117.239 342.785,118.681 338.488,119.376 336.333 C 120.063 334.202,122.869 325.797,125.328 318.500 C 126.084 316.254,127.006 313.479,127.375 312.333 C 127.744 311.188,128.799 308.037,129.719 305.333 C 130.638 302.629,131.487 300.098,131.604 299.708 L 131.817 299.000 105.905 299.000 L 79.992 299.000 79.815 299.458 " stroke="none" fill="#fc5444" fill-rule="evenodd"/>
		<path id="path1" d="M227.191 42.375 C 227.117 42.581,226.393 44.737,225.582 47.167 C 221.703 58.793,220.091 63.612,218.671 67.833 C 217.824 70.354,216.901 73.129,216.622 74.000 C 216.090 75.656,213.302 84.011,210.671 91.833 C 209.824 94.354,208.901 97.129,208.622 98.000 C 208.090 99.656,205.302 108.011,202.671 115.833 C 201.824 118.354,200.901 121.129,200.622 122.000 C 200.090 123.656,197.302 132.011,194.671 139.833 C 193.824 142.354,192.901 145.129,192.622 146.000 C 192.090 147.656,189.302 156.011,186.671 163.833 C 185.824 166.354,184.901 169.129,184.622 170.000 C 184.342 170.871,183.225 174.208,182.139 177.417 C 181.053 180.625,180.165 183.321,180.166 183.408 C 180.166 183.495,179.305 186.083,178.251 189.158 C 176.635 193.875,175.833 196.396,175.833 196.758 C 175.833 196.799,187.484 196.833,201.723 196.833 L 227.613 196.833 227.822 196.125 C 227.937 195.735,228.857 192.979,229.866 190.000 C 230.876 187.021,231.764 184.358,231.841 184.083 C 231.917 183.808,232.817 181.108,233.841 178.083 C 234.864 175.058,235.764 172.358,235.841 172.083 C 235.917 171.808,236.817 169.108,237.841 166.083 C 238.864 163.058,239.764 160.358,239.841 160.083 C 239.917 159.808,240.817 157.108,241.841 154.083 C 242.864 151.058,243.764 148.358,243.841 148.083 C 243.917 147.808,244.817 145.108,245.841 142.083 C 246.864 139.058,247.764 136.358,247.841 136.083 C 247.917 135.808,248.817 133.108,249.841 130.083 C 250.864 127.058,251.764 124.358,251.841 124.083 C 251.917 123.808,252.817 121.108,253.841 118.083 C 254.864 115.058,255.764 112.358,255.841 112.083 C 255.917 111.808,256.817 109.108,257.841 106.083 C 258.864 103.058,259.764 100.358,259.841 100.083 C 259.917 99.808,260.817 97.108,261.841 94.083 C 262.864 91.058,263.764 88.358,263.841 88.083 C 263.917 87.808,264.817 85.108,265.841 82.083 C 266.864 79.058,267.764 76.358,267.841 76.083 C 267.917 75.808,268.817 73.108,269.841 70.083 C 270.864 67.058,271.764 64.358,271.841 64.083 C 271.917 63.808,272.817 61.108,273.841 58.083 C 274.864 55.058,275.764 52.358,275.841 52.083 C 275.918 51.808,276.692 49.487,277.562 46.924 C 278.433 44.362,279.108 42.206,279.062 42.133 C 279.017 42.060,267.358 42.000,253.153 42.000 L 227.325 42.000 227.191 42.375 M172.341 203.958 C 172.158 204.675,170.872 208.544,166.841 220.500 C 166.083 222.746,165.162 225.521,164.793 226.667 C 164.105 228.800,161.296 237.218,158.841 244.500 C 158.083 246.746,157.162 249.521,156.793 250.667 C 156.105 252.800,153.296 261.218,150.841 268.500 C 150.083 270.746,149.162 273.521,148.793 274.667 C 148.105 276.800,145.296 285.218,142.841 292.500 C 142.083 294.746,141.162 297.521,140.793 298.667 C 140.105 300.800,137.296 309.218,134.841 316.500 C 134.083 318.746,133.162 321.521,132.793 322.667 C 132.105 324.800,129.296 333.218,126.841 340.500 C 126.083 342.746,125.162 345.521,124.793 346.667 C 124.210 348.478,121.271 357.202,121.045 357.789 C 120.980 357.960,125.950 357.993,146.924 357.959 L 172.884 357.917 174.249 353.974 C 175.000 351.806,175.712 349.668,175.831 349.224 C 175.949 348.780,176.855 346.054,177.843 343.167 C 178.831 340.279,179.732 337.579,179.846 337.167 C 179.959 336.754,180.859 334.054,181.846 331.167 C 182.832 328.279,183.732 325.579,183.846 325.167 C 183.959 324.754,184.859 322.054,185.846 319.167 C 186.832 316.279,187.732 313.579,187.846 313.167 C 187.959 312.754,188.859 310.054,189.846 307.167 C 190.832 304.279,191.732 301.579,191.846 301.167 C 191.959 300.754,192.859 298.054,193.846 295.167 C 194.832 292.279,195.732 289.579,195.846 289.167 C 195.959 288.754,196.859 286.054,197.846 283.167 C 198.832 280.279,199.732 277.579,199.846 277.167 C 199.959 276.754,200.859 274.054,201.846 271.167 C 202.832 268.279,203.732 265.579,203.846 265.167 C 203.959 264.754,204.859 262.054,205.846 259.167 C 206.832 256.279,207.732 253.579,207.846 253.167 C 207.959 252.754,208.859 250.054,209.846 247.167 C 210.832 244.279,211.732 241.579,211.846 241.167 C 211.959 240.754,212.859 238.054,213.846 235.167 C 214.832 232.279,215.732 229.579,215.846 229.167 C 215.959 228.754,216.859 226.054,217.846 223.167 C 218.832 220.279,219.732 217.579,219.846 217.167 C 219.959 216.754,220.862 214.054,221.851 211.167 C 223.459 206.476,224.006 204.762,224.286 203.542 L 224.372 203.167 198.458 203.167 L 172.543 203.167 172.341 203.958 M232.650 203.625 C 232.554 203.877,232.368 204.496,232.237 205.000 C 232.106 205.504,231.147 208.429,230.106 211.500 C 227.033 220.567,225.676 224.607,224.874 227.083 C 224.109 229.443,221.291 237.888,218.922 244.917 C 218.211 247.025,217.290 249.800,216.874 251.083 C 216.109 253.443,213.291 261.888,210.922 268.917 C 210.211 271.025,209.290 273.800,208.874 275.083 C 208.109 277.443,205.291 285.888,202.922 292.917 C 202.211 295.025,201.290 297.800,200.874 299.083 C 200.109 301.443,197.291 309.888,194.922 316.917 C 194.211 319.025,193.290 321.800,192.874 323.083 C 192.109 325.443,189.291 333.888,186.922 340.917 C 186.211 343.025,185.290 345.800,184.875 347.083 C 184.460 348.367,183.494 351.263,182.727 353.520 C 181.961 355.777,181.333 357.710,181.333 357.817 C 181.333 357.963,186.046 357.998,200.625 357.958 L 219.917 357.905 221.667 357.462 C 231.256 355.036,236.950 348.852,239.893 337.667 C 240.026 337.162,240.927 334.455,241.896 331.650 C 242.865 328.845,243.765 326.145,243.896 325.650 C 244.027 325.155,244.927 322.455,245.896 319.650 C 246.865 316.845,247.765 314.145,247.896 313.650 C 248.027 313.155,248.927 310.455,249.896 307.650 C 250.865 304.845,251.765 302.145,251.896 301.650 C 252.027 301.155,252.927 298.455,253.896 295.650 C 254.865 292.845,255.765 290.145,255.896 289.650 C 256.027 289.155,256.927 286.455,257.896 283.650 C 258.865 280.845,259.765 278.145,259.896 277.650 C 260.027 277.155,260.927 274.455,261.896 271.650 C 262.865 268.845,263.765 266.145,263.896 265.650 C 264.027 265.155,264.927 262.455,265.896 259.650 C 266.865 256.845,267.765 254.145,267.896 253.650 C 268.027 253.155,268.927 250.455,269.896 247.650 C 270.865 244.845,271.767 242.145,271.901 241.650 C 272.034 241.155,272.895 238.537,273.813 235.833 C 275.625 230.500,276.000 228.785,276.000 225.833 C 276.000 215.650,268.642 206.129,259.076 203.936 C 255.933 203.215,254.954 203.167,243.625 203.167 L 232.825 203.167 232.650 203.625 " stroke="none" fill="#143464" fill-rule="evenodd"/>
		<path id="path2" d="" stroke="none" fill="#1004854" fill-rule="evenodd"/>
		<path id="path3" d="" stroke="none" fill="#504854" fill-rule="evenodd"/>
		<path id="path4" d="" stroke="none" fill="#144c54" fill-rule="evenodd"/>
	</g>
</svg>