<?xml version="1.0" ?>
<svg xmlns="http://www.w3.org/2000/svg" fill="none" viewBox="0 0 71 42">
	<g fill="#1E1E1E" clip-path="url(#clip0_96:21456)">
		<path d="M8.594 36.034c-1.972 0-3.71-.528-5.214-1.583-.796-.553-1.436-1.167-1.92-1.842-.536-.813-.822-1.617-.856-2.412.225-1.038.683-1.557 1.375-1.557.034 0 .242.017.622.052.398.017.986.346 1.764.986a6.7 6.7 0 0 0 1.038 1.141l.156.13c.225.19.458.346.7.467.779.45 1.54.674 2.283.674.71 0 1.34-.25 1.894-.752l.13-.493c.017-.086.026-.181.026-.285 0-.329-.173-.735-.52-1.22-.259-.363-.7-.786-1.322-1.27l-.26-.234-.726-.545-.986-.7-.389-.234a15.424 15.424 0 0 0-.778-.467c-.208-.104-.614-.363-1.22-.778l-.13-.104c-.38-.26-.752-.545-1.115-.856A8.348 8.348 0 0 1 1.2 21.687a6.692 6.692 0 0 1-.7-3.035c0-1.124.303-2.23.908-3.32.588-1.02 1.332-1.816 2.231-2.387.917-.588 1.998-.882 3.243-.882 1.228 0 2.317.337 3.269 1.011a4.83 4.83 0 0 1 1.427 1.868c.259.554.389 1.107.389 1.66 0 .762-.251 1.445-.753 2.05-.536.467-.994.7-1.375.7-.017 0-.13-.008-.337-.025-.207-.018-.58-.355-1.115-1.012a.446.446 0 0 1-.104-.285v-.727c0-.155-.009-.242-.026-.26a1.01 1.01 0 0 0-.104-.18.302.302 0 0 0-.052-.079l-.052-.051c-.346-.364-.666-.545-.96-.545-.605 0-1.08.337-1.426 1.011-.208.45-.312.865-.312 1.246 0 .224.052.458.156.7.173.502.648 1.047 1.427 1.634.12.122.467.355 1.037.7.139.07.269.148.39.234l1.219.727c1.055.692 1.73 1.159 2.023 1.4.883.692 1.6 1.376 2.154 2.05 1.09 1.384 1.634 2.871 1.634 4.462 0 .433-.052.865-.156 1.297-.467 1.938-1.72 3.26-3.761 3.97a9.91 9.91 0 0 1-2.88.415ZM17.752 12.115c-.035 0-.294-.009-.778-.026-.485-.018-.84-.52-1.064-1.505v-1.53c0-.312.008-.537.026-.675v-.182c.173-1.487.839-2.23 1.997-2.23.45 0 .848.138 1.194.414.467.398.7 1.047.7 1.946.052.363.078.7.078 1.012.052.38.078.795.078 1.245 0 .19-.026.38-.078.57-.57.64-1.289.96-2.153.96Zm1.79 23.4c-.83 0-1.514-.554-2.05-1.66-.432-1.436-.752-3.71-.96-6.823l-.077-.83c-.07-1.142-.113-1.73-.13-1.765-.121-2.04-.173-3.493-.156-4.358 0-1.107.018-1.963.052-2.568.104-.969.39-1.67.856-2.102.415-.363.874-.544 1.375-.544.64 0 1.168.259 1.583.778.328.398.493.916.493 1.556l-.026.364.026 1.375.078 1.608c.017.363.043.718.077 1.064l.104 1.712c.07.657.121 1.314.156 1.972l.467 4.799c.173 1.418.26 2.508.26 3.269-.278 1.435-.987 2.153-2.128 2.153ZM25.275 33.128a3.68 3.68 0 0 1-1.063-.156c-1.004-.45-1.531-1.228-1.583-2.334.017-.64.268-1.306.752-1.998l.13-.207.441-.623.649-1.012c.467-.64.752-1.063.856-1.271l.804-1.245c.744-1.21 1.271-2.076 1.582-2.595.139-.31.294-.605.467-.882l1.194-2.282c.173-.433.337-.805.493-1.116l.207-.597-1.53-.077c-.38 0-.761.017-1.142.051l-.311.026-.753.078h-.233c-.553 0-1.254-.182-2.101-.545-.83-.363-1.427-.83-1.79-1.4a.804.804 0 0 1-.156-.442c0-.691 1.107-1.323 3.32-1.893 1.073-.242 1.972-.407 2.699-.493a20.631 20.631 0 0 1 1.945-.078c.882 0 1.66.06 2.335.181 1.21.243 2.127.865 2.75 1.868a4.36 4.36 0 0 1 .597 2.257c0 .398-.035.787-.104 1.168-.156.934-.493 1.859-1.012 2.776a37.917 37.917 0 0 1-1.894 3.268 41.856 41.856 0 0 1-1.037 1.583l-1.038 1.479-.934 1.27c.121 0 .234-.008.337-.025 1.124-.087 1.92-.13 2.387-.13 2.923 0 4.384.856 4.384 2.568 0 .398-.173.857-.519 1.375-.328.52-1.046.779-2.153.779-.536.051-1.08.086-1.634.103l-.778.026-2.932.182a7.43 7.43 0 0 1-.804.052c-.208 0-.424.017-.649.052h-.233l-.415.026-.467.077a3.861 3.861 0 0 1-1.064.156ZM40.53 33.128c-.364 0-.718-.052-1.064-.156-1.003-.45-1.53-1.228-1.583-2.334.017-.64.268-1.306.752-1.998l.13-.207.441-.623.649-1.012c.467-.64.752-1.063.856-1.271l.804-1.245c.744-1.21 1.271-2.076 1.583-2.595.138-.31.294-.605.467-.882l1.193-2.282c.173-.433.337-.805.493-1.116l.207-.597-1.53-.077c-.38 0-.761.017-1.142.051l-.311.026-.752.078h-.234c-.553 0-1.254-.182-2.101-.545-.83-.363-1.427-.83-1.79-1.4a.804.804 0 0 1-.156-.442c0-.691 1.107-1.323 3.32-1.893 1.073-.242 1.972-.407 2.699-.493a20.628 20.628 0 0 1 1.946-.078c.882 0 1.66.06 2.334.181 1.211.243 2.128.865 2.75 1.868a4.36 4.36 0 0 1 .597 2.257c0 .398-.035.787-.104 1.168-.156.934-.493 1.859-1.012 2.776a37.917 37.917 0 0 1-1.893 3.268 41.856 41.856 0 0 1-1.038 1.583l-1.038 1.479-.934 1.27c.121 0 .234-.008.338-.025 1.124-.087 1.92-.13 2.386-.13 2.923 0 4.385.856 4.385 2.568 0 .398-.173.857-.52 1.375-.328.52-1.046.779-2.153.779-.536.051-1.08.086-1.634.103l-.778.026-2.932.182a7.43 7.43 0 0 1-.804.052c-.207 0-.424.017-.648.052h-.234l-.415.026-.467.077a3.86 3.86 0 0 1-1.064.156ZM60.312 33.938c-1.003 0-2.006-.217-3.01-.649a6.736 6.736 0 0 1-2.723-2.205c-1.159-1.678-1.738-3.822-1.738-6.434 0-1.574.19-3.113.57-4.617.381-1.401.865-2.62 1.453-3.658a13.54 13.54 0 0 1 2.231-2.854c.9-.882 1.842-1.583 2.828-2.101 1.003-.52 1.989-.84 2.957-.96h1.453a5.65 5.65 0 0 1 1.401.233c1.903.71 3.122 2.024 3.658 3.943a6.88 6.88 0 0 1 .26 1.946c0 1.194-.26 2.344-.779 3.45-.363.848-.925 1.73-1.686 2.647-.156.242-.519.63-1.09 1.167-1.885 1.643-3.753 2.785-5.603 3.424-.934.312-1.79.485-2.569.52a.282.282 0 0 1 .052.103c.018.052.035.113.052.182.139.294.32.57.545.83.588.657 1.22.986 1.894.986.657 0 1.297-.182 1.92-.545.363-.19.709-.39 1.037-.597.536-.346.848-.562.934-.648a8.081 8.081 0 0 1 1.609-1.142l.181-.104a4.36 4.36 0 0 1 .805-.078c.363 0 .752.078 1.167.234.432.138.692.605.778 1.4a3.672 3.672 0 0 1-.545 1.22c-.242.38-.536.727-.882 1.038a14.004 14.004 0 0 1-5.5 3.087 7.747 7.747 0 0 1-1.66.182Zm-2.931-9.184c.034 0 .06-.009.078-.026.172 0 .544-.104 1.115-.311 1.4-.588 2.854-1.591 4.358-3.01.623-.64 1.116-1.245 1.48-1.816.553-1.003.838-1.937.855-2.801 0-.52-.155-1.064-.467-1.635-.155-.242-.337-.389-.544-.44h.103-.493.364c-.156-.053-.48-.035-.667-.03-.187.007-.25 0-.457.052-.207.05-.203.056-.447.165-.245.109-.15.08-.998.617a9.125 9.125 0 0 0-3.346 4.098c-.623 1.47-.934 3.183-.934 5.137Z"/>
	</g>
	<defs>
		<clipPath id="clip0_96:21456">
			<path fill="#fff" d="M.5 0h70v42H.5z"/>
		</clipPath>
	</defs>
</svg>