<?xml version="1.0" ?>
<svg xmlns="http://www.w3.org/2000/svg" fill="none" viewBox="0 0 200 200">
	<g clip-path="url(#clip0_7_56)">
		<path fill="#231F20" d="M75.322 179.537a82.86 82.86 0 0 1-2.846-.979 1.74 1.74 0 0 0-2.162 2.374c.194.417.544.741.975.9a85.83 85.83 0 0 0 2.962 1.018 1.744 1.744 0 0 0 1.35-.082 1.738 1.738 0 0 0 .962-1.71 1.744 1.744 0 0 0-1.24-1.521Z"/>
		<path fill="#fff" d="M144.763 144.06c24.192-24.209 24.192-63.46 0-87.67-24.192-24.209-63.414-24.208-87.606 0-24.192 24.21-24.192 63.461 0 87.67 24.192 24.209 63.414 24.209 87.606 0Z"/>
		<path fill="#010101" d="M92.457 94.985a1.619 1.619 0 0 1 2.08-.948l3.868 1.45.572-1.524-5.518-2.066a1.616 1.616 0 0 1-.673-2.658 1.618 1.618 0 0 1 1.806-.369l5.514 2.067.569-1.525-6.787-2.542a1.614 1.614 0 0 1 1.13-3.027l6.79 2.543.557-1.49a1.61 1.61 0 0 1 2.076-.948 1.616 1.616 0 0 1 .948 2.078l-.557 1.49 6.265 2.345a1.614 1.614 0 1 1-1.13 3.026l-6.268-2.345-.569 1.525 4.993 1.869a1.616 1.616 0 0 1-1.129 3.026l-4.993-1.869-.572 1.525 3.353 1.254a1.615 1.615 0 0 1 1.017 2.107 1.603 1.603 0 0 1-.878.92 1.62 1.62 0 0 1-1.272-.001l-3.349-1.254-1.006 2.69a1.618 1.618 0 0 1-2.116 1.084 1.61 1.61 0 0 1-1.05-1.557c.006-.224.058-.444.154-.646l1.005-2.69-3.867-1.45a1.618 1.618 0 0 1-.963-2.09Z"/>
		<path fill="#010101" d="M91.01 114.423c.394.536.894.985 1.47 1.316.621.36 1.325.552 2.042.557.48 0 .954-.089 1.4-.263.38-.15.738-.355 1.06-.608a3.883 3.883 0 0 0 1.83.449 4.296 4.296 0 0 0 1.217-.182 5.015 5.015 0 0 0 1.056-.456 5.641 5.641 0 0 0 1.589-1.37c.275-.341.53-.658.774-.945.242-.281.5-.548.773-.801.259-.232.541-.487.824-.774a6.68 6.68 0 0 0 .839-1.013c.187-.28.338-.584.448-.902.115-.334.173-.684.171-1.037a3.409 3.409 0 0 0-.209-1.161 3.978 3.978 0 0 0-.557-1.022 4.97 4.97 0 0 0-1.825-1.466 7.681 7.681 0 0 0-3.396-.798 7.436 7.436 0 0 0-1.272.113h-.027c-.33.066-.653.161-.967.282l-.626.248c-.109.038-.19.062-.26.081a.91.91 0 0 1-.243.031c-.12-.003-.24-.02-.356-.05a1.08 1.08 0 0 1-.294-.144c-.139-.089-.336-.24-.618-.429a5.33 5.33 0 0 0-.662-.387 6.887 6.887 0 0 0-3.07-.747 5.696 5.696 0 0 0-2.073.387h-.035c-.431.18-.83.431-1.18.743-.332.3-.617.648-.846 1.033a4.876 4.876 0 0 0-.67 2.481c.002.375.043.748.125 1.114.177.719.476 1.402.881 2.02.346.524.725 1.026 1.133 1.502.557.654 1.033 1.37 1.601 2.175l-.046.023Zm2.607-1.908c-.514-.727-1.04-1.528-1.748-2.364a11.396 11.396 0 0 1-.893-1.181 3.262 3.262 0 0 1-.46-1.01 1.707 1.707 0 0 1 .085-1.037 1.23 1.23 0 0 1 .313-.456.995.995 0 0 1 .255-.163c.281-.105.579-.157.878-.155a3.738 3.738 0 0 1 1.648.418c.162.085.318.184.464.294.27.204.552.389.847.554a4 4 0 0 0 .87.34c.378.101.768.153 1.16.155.26-.002.518-.028.773-.077.22-.042.438-.101.65-.175.387-.131.661-.259.885-.336a2.49 2.49 0 0 1 .387-.116 3.79 3.79 0 0 1 .681-.058 4.482 4.482 0 0 1 1.972.464h.031c.206.096.395.227.557.387.092.086.164.19.213.306v.062a.904.904 0 0 1-.093.17 2.815 2.815 0 0 1-.248.317c-.22.244-.541.538-.901.863v.02c-.351.33-.684.681-.997 1.048-.298.349-.569.689-.84 1.022-.138.175-.3.329-.483.457a1.94 1.94 0 0 1-.56.286 1.012 1.012 0 0 1-.295.05.713.713 0 0 1-.36-.108 3.597 3.597 0 0 0-.42-.244 2.813 2.813 0 0 0-.604-.217 2.265 2.265 0 0 0-1.094.028 2.59 2.59 0 0 0-.503.193 3.925 3.925 0 0 0-.716.495h-.023a1.097 1.097 0 0 1-.32.209.679.679 0 0 1-.237.043.91.91 0 0 1-.444-.132 1.514 1.514 0 0 1-.43-.352ZM116.518 101.749a1.618 1.618 0 0 1 1.825-.733 1.614 1.614 0 0 1 1.176 1.577l4.339-.863a1.615 1.615 0 0 1 2.578-1.498c.34.26.563.644.62 1.068l.549 3.398a1.614 1.614 0 1 1-3.186.519l-.047-.302-6.783 1.35-.054.093a1.61 1.61 0 0 1-2.212.565 1.612 1.612 0 0 1-.564-2.213l1.759-2.961ZM111.711 105.085a1.61 1.61 0 0 1-.56-2.214l.386-.669-2.084-6.734a1.622 1.622 0 0 1 1.069-2.026 1.619 1.619 0 0 1 2.025 1.07l1.434 4.644a1.62 1.62 0 0 1 1.725 2.407l-1.759 2.965a1.622 1.622 0 0 1-1.001.748 1.609 1.609 0 0 1-1.235-.191ZM83.188 82.66a1.616 1.616 0 0 1 1.388-1.816l3.41-.453a1.612 1.612 0 0 1 1.196 2.883l3.561 3.046a1.614 1.614 0 0 1-2.096 2.454l-5.545-4.741h-.104a1.616 1.616 0 0 1-1.81-1.374ZM84.344 76.696c.018-.078.044-.153.077-.225l2.742-6.4-.209-.059a1.615 1.615 0 0 1 .843-3.119l3.322.902a1.614 1.614 0 0 1-.808 3.127l-2.285 5.332a1.612 1.612 0 0 1 1.046 2.661 1.613 1.613 0 0 1-1.008.544l-3.414.453a1.612 1.612 0 0 1-1.49-2.583c.26-.34.644-.562 1.068-.618l.116-.015ZM103.007 136.953h.8l1.709-6.76a1.615 1.615 0 0 1 .109-3.228h3.929a1.622 1.622 0 0 1 1.537 1.616 1.617 1.617 0 0 1-1.537 1.616h-.7l-1.71 6.753h4.119a1.613 1.613 0 0 1 1.537 1.615 1.617 1.617 0 0 1-1.537 1.616h-8.245a1.606 1.606 0 0 1-1.564-.979 1.603 1.603 0 0 1 0-1.274 1.608 1.608 0 0 1 1.564-.978l-.011.003ZM81.2 137.665h.75l2.147-8.982-.507-.189a1.615 1.615 0 0 1 .485-3.135c.213-.007.425.029.625.105l3.685 1.35a1.615 1.615 0 0 1-.484 3.135 1.608 1.608 0 0 1-.626-.105l-.123-.046-1.876 7.837 4.169-.035a1.615 1.615 0 0 1 1.167 2.744c-.3.305-.709.479-1.136.483l-8.249.074a1.63 1.63 0 0 1-1.144-.463 1.622 1.622 0 0 1-.482-1.138 1.613 1.613 0 0 1 1.6-1.627v-.008ZM104.36 113.637a1.62 1.62 0 0 1 1.234.065c.386.185.684.515.827.918l2.877 8.127v.062h.256a1.613 1.613 0 0 1 1.537 1.616 1.62 1.62 0 0 1-1.537 1.615h-3.929a1.618 1.618 0 1 1 0-3.231h.243l-2.509-7.09a1.618 1.618 0 0 1 1.001-2.082ZM90.55 124.914a1.605 1.605 0 0 1-2.068.96l-3.69-1.351a1.609 1.609 0 0 1-.909-.837 1.611 1.611 0 0 1 .276-1.773 1.613 1.613 0 0 1 1.743-.424l.233.086.054-7.523a1.62 1.62 0 0 1 1.625-1.528 1.619 1.619 0 0 1 1.604 1.551l-.062 8.614v.066l.24.085a1.617 1.617 0 0 1 .955 2.074ZM120.068 69.985c0-.388-.028-.776-.085-1.16v-.032a8.345 8.345 0 0 0-1.879-4.257 9.899 9.899 0 0 0-3.744-2.708l-.054-.024a12.16 12.16 0 0 0-4.397-.805 14.496 14.496 0 0 0-3.979.58c-.974.26-1.887.71-2.687 1.324l-.066.055a9.288 9.288 0 0 0-2.506 3.215 9.184 9.184 0 0 0-.843 3.87c0 .45.03.9.089 1.347.091.674.294 1.328.599 1.935.267.538.545.975.774 1.362.144.231.274.472.386.72.027.062.051.104.082.166v.031a.854.854 0 0 1-.024.174 2.814 2.814 0 0 1-.089.337c-.085.275-.224.635-.344 1.091-.092.346-.14.703-.143 1.06 0 .122.008.244.023.365.005.186.031.372.078.553.052.207.125.408.22.6.183.356.422.68.708.96.747.719 1.56 1.367 2.428 1.934.847.573 1.706 1.08 2.479 1.548.387.24.905.58 1.466.921.602.378 1.242.69 1.91.933.511.18 1.048.274 1.59.279a3.927 3.927 0 0 0 1.577-.322 4.405 4.405 0 0 0 1.42-1.002 1.971 1.971 0 0 1 .695-2.809c.318-.176.678-.26 1.041-.244l.804-1.548a1.621 1.621 0 0 0-.332-1.935 1.61 1.61 0 0 0 1.978-1.656 1.617 1.617 0 0 0-.346-.918 1.33 1.33 0 0 1-.124-.177c.147-.589.332-1.185.53-1.808.246-.746.448-1.506.607-2.275a9.463 9.463 0 0 0 .158-1.68Zm-3.229 0c-.002.378-.04.755-.112 1.126a12 12 0 0 1-.313 1.239c-.255.87-.6 1.846-.859 2.968a1.616 1.616 0 0 0-.042.36c-.003.339.044.677.139 1.002.088.302.218.59.387.855.095.153.2.3.313.442.052.065.109.126.17.181a1.62 1.62 0 0 0-1.802.82l-.804 1.549a1.322 1.322 0 0 1-.273 2.29c-.291.12-.616.13-.914.032-.109.12-.24.218-.387.286a.677.677 0 0 1-.298.058 1.55 1.55 0 0 1-.387-.058 3.666 3.666 0 0 1-.549-.201c-.472-.23-.929-.488-1.369-.774-.325-.21-.661-.426-1.013-.635a48.054 48.054 0 0 1-2.32-1.436 13.574 13.574 0 0 1-1.957-1.547l-.073-.082v-.111a.754.754 0 0 1 .023-.171 2.62 2.62 0 0 1 .089-.337c.085-.278.228-.634.344-1.091.092-.347.14-.705.143-1.064a3.258 3.258 0 0 0-.383-1.548c-.229-.493-.487-.971-.773-1.432a7.803 7.803 0 0 1-.546-1.049 2.58 2.58 0 0 1-.154-.611 7.035 7.035 0 0 1-.062-.93 5.87 5.87 0 0 1 .541-2.515c.38-.802.932-1.51 1.617-2.074a4.386 4.386 0 0 1 1.547-.774h.05a11.27 11.27 0 0 1 3.094-.453 8.939 8.939 0 0 1 3.209.577 7.12 7.12 0 0 1 1.999 1.273c.539.49.97 1.085 1.269 1.75a5.1 5.1 0 0 1 .387 1.439v.03c.038.204.061.41.069.616Z"/>
		<path fill="#010101" d="M99.92 71.394v.004l.005.008-.004-.012ZM111.878 77.45a1.603 1.603 0 0 1 .947-.791 1.613 1.613 0 0 1 1.911 2.289l-.805 1.548a1.605 1.605 0 0 1-.949.791 1.613 1.613 0 0 1-1.909-2.293l.805-1.544ZM111.209 75.237a1.62 1.62 0 0 1 .677 2.182l-.805 1.548a1.603 1.603 0 0 1-.947.792 1.615 1.615 0 0 1-2.021-1.059 1.619 1.619 0 0 1 .11-1.23l.805-1.548a1.613 1.613 0 0 1 2.181-.685ZM113.85 72.578a3.035 3.035 0 0 1-3.378.017 3.036 3.036 0 0 1-.841-.837 2.983 2.983 0 0 1-.518-1.7 3.029 3.029 0 0 1 2.74-3.026 3.036 3.036 0 0 1 2.813 1.324 3.034 3.034 0 0 1 .467 2.28 3.045 3.045 0 0 1-1.283 1.942ZM127.543 97.659a4.65 4.65 0 0 1 .998-1.072c.356-.28.746-.513 1.16-.693.355-.16.722-.29 1.098-.387a5.28 5.28 0 0 1 1.296-.166c.296-.003.592.028.882.093a1.603 1.603 0 0 1 1.013.705 1.613 1.613 0 0 1-1.702 2.448.821.821 0 0 0-.193-.019 2.127 2.127 0 0 0-.511.074 4.073 4.073 0 0 0-.599.205 2.368 2.368 0 0 0-.468.275c-.115.09-.216.196-.298.317a1.623 1.623 0 0 1-2.246.46 1.623 1.623 0 0 1-.461-2.248l.031.008ZM129.57 104.926c.291-.059.588-.089.885-.089a5.26 5.26 0 0 1 1.899.387 6.72 6.72 0 0 1 1.365.72c.505.336.938.771 1.272 1.277a1.616 1.616 0 1 1-2.707 1.746 1.366 1.366 0 0 0-.386-.364 3.698 3.698 0 0 0-.72-.387 1.994 1.994 0 0 0-.715-.151 1.218 1.218 0 0 0-.248.023 1.611 1.611 0 0 1-1.9-1.263 1.611 1.611 0 0 1 1.262-1.902l-.007.003ZM133.533 104.276a1.833 1.833 0 0 0-.641-.336 4.62 4.62 0 0 0-.987-.198h-.282a2.183 2.183 0 0 0-.986.213 1.622 1.622 0 0 1-1.229.111 1.622 1.622 0 0 1-.948-.792 1.622 1.622 0 0 1-.111-1.231c.063-.202.166-.39.302-.552.135-.163.302-.298.489-.396a5.334 5.334 0 0 1 2.483-.584c.197 0 .387 0 .584.027.58.051 1.152.167 1.705.348a5.089 5.089 0 0 1 1.748.968 1.623 1.623 0 0 1 .114 2.247 1.615 1.615 0 0 1-2.241.187v-.012ZM87.677 61.236a1.384 1.384 0 0 0-.204.487 3.756 3.756 0 0 0-.097.805v.043c0 .173.02.346.062.514.032.137.085.267.158.387a1.617 1.617 0 0 1-1.103 2.449 1.613 1.613 0 0 1-1.635-.738 4.622 4.622 0 0 1-.549-1.3 5.319 5.319 0 0 1-.162-1.312v-.097a6.97 6.97 0 0 1 .19-1.548c.139-.591.394-1.149.75-1.64a1.616 1.616 0 0 1 2.587 1.934l.003.016ZM97.094 65.543a.854.854 0 0 0-.205.054 2.32 2.32 0 0 0-.445.248 4.591 4.591 0 0 0-.48.386c-.13.127-.244.268-.34.422-.074.12-.131.25-.17.387a1.615 1.615 0 1 1-3.144-.727c.11-.478.299-.934.557-1.35.238-.392.525-.751.855-1.069a6.81 6.81 0 0 1 1.218-.948c.246-.152.505-.281.773-.387.294-.117.6-.2.913-.248a1.616 1.616 0 0 1 1.495 2.556c-.246.341-.617.572-1.031.645l.004.03ZM93.354 62.458a1.869 1.869 0 0 0-.553.445 4.32 4.32 0 0 0-.587.817 2.938 2.938 0 0 0-.26.596 1.97 1.97 0 0 0-.085.553v.093a1.618 1.618 0 0 1-1.529 1.632 1.615 1.615 0 0 1-1.696-1.458v-.267c.001-.495.073-.988.213-1.462.135-.45.32-.882.553-1.29a7.94 7.94 0 0 1 1.02-1.412 5.132 5.132 0 0 1 1.606-1.192 1.613 1.613 0 0 1 2.178 2.039c-.15.4-.454.725-.844.903l-.016.003Z"/>
		<path fill="#231F20" d="M116.592 18.346a83.287 83.287 0 0 1 43.031 22.55 83.384 83.384 0 0 1 23.146 42.734c.302 1.487.56 2.971.774 4.455a1.729 1.729 0 0 0 .673 1.172 1.743 1.743 0 0 0 2.464-.366 1.736 1.736 0 0 0 .304-1.317 81.8 81.8 0 0 0-.816-4.644 86.862 86.862 0 0 0-24.109-44.518 86.768 86.768 0 0 0-44.821-23.495 1.74 1.74 0 0 0-2.035 1.39 1.744 1.744 0 0 0 1.389 2.036v.003ZM88.88 182.715a83.391 83.391 0 0 1-48.416-25.402 83.494 83.494 0 0 1-22.297-49.949 1.747 1.747 0 1 0-3.48.302 87.384 87.384 0 0 0 1.434 9.926 86.871 86.871 0 0 0 25.308 45.674 86.768 86.768 0 0 0 46.906 22.893 1.74 1.74 0 0 0 1.675-2.765 1.743 1.743 0 0 0-1.16-.679h.03ZM20.808 83.414c-.704.4-1.305.96-1.756 1.633a13.458 13.458 0 0 0-1.512 2.964 57.872 57.872 0 0 1-.986 2.434 4.52 4.52 0 0 1-.87 1.366 1.271 1.271 0 0 1-1.125.387 1.387 1.387 0 0 1-1.08-.886 3.396 3.396 0 0 1-.235-1.904c.046-.596.248-1.17.584-1.664a3.747 3.747 0 0 1 1.098-.971 7.131 7.131 0 0 0 1.21-.87 1.65 1.65 0 0 0 .5-1.027 1.897 1.897 0 0 0-.28-1.4 1.548 1.548 0 0 0-1.09-.62 2.407 2.407 0 0 0-1.376.271 4.392 4.392 0 0 0-1.396 1.13 7.217 7.217 0 0 0-1.16 1.997c-.35.905-.586 1.85-.7 2.814a8.407 8.407 0 0 0 .204 3.54c.255.92.763 1.748 1.466 2.392.62.563 1.397.925 2.227 1.037a3.51 3.51 0 0 0 2.425-.495 5.68 5.68 0 0 0 1.794-1.935 22.633 22.633 0 0 0 1.547-3.297c.308-.913.743-1.778 1.292-2.57a1.72 1.72 0 0 1 1.678-.611 1.547 1.547 0 0 1 1.16.948c.31.65.41 1.38.287 2.09a4.61 4.61 0 0 1-.847 2.322 4.555 4.555 0 0 1-1.83 1.296c-.35.127-.679.311-.97.546-.262.248-.42.587-.441.948a1.654 1.654 0 0 0 .321 1.277 1.586 1.586 0 0 0 1.09.627 3.424 3.424 0 0 0 2.127-.484 5.528 5.528 0 0 0 1.988-2.105 9.651 9.651 0 0 0 1.16-3.692 11.08 11.08 0 0 0-.116-4.002 4.796 4.796 0 0 0-4.304-3.87 3.39 3.39 0 0 0-2.084.384ZM32.363 70.384a1.59 1.59 0 0 0 .773-.956 1.85 1.85 0 0 0-.054-1.52 2.15 2.15 0 0 0-1.272-1.034 1.61 1.61 0 0 0-.774-.058c-.29.042-.719.124-1.288.251l-7.687 1.719-1.16-2.744c-.568-1.393-1.136-2.193-1.706-2.4a1.622 1.622 0 0 0-1.33.063 1.957 1.957 0 0 0-.963 2.194c.197.57.438 1.123.72 1.656l2.996 6.021-9.404-3.401a2.86 2.86 0 0 0-1.992-.128 1.9 1.9 0 0 0-1.125 1.2 1.758 1.758 0 0 0 .162 1.668 3.48 3.48 0 0 0 1.787 1.207l16.535 5.983c.61.269 1.295.313 1.934.124a1.86 1.86 0 0 0 1.106-1.192 1.963 1.963 0 0 0-.112-1.575 2.528 2.528 0 0 0-1.512-1.215l-3.094-1.115-1.226-2.825 6.86-1.39a9.957 9.957 0 0 0 1.826-.533ZM25.982 55.752a3.31 3.31 0 0 1 .448-2.709 3.41 3.41 0 0 1 2.274-1.649c.944-.185 2.04.055 3.287.72l-3.979 6.335c-1.1-.861-1.777-1.76-2.03-2.697Zm9.25-5.263c.058-.666-.356-1.277-1.234-1.827a6.918 6.918 0 0 0-3.244-1.025 6.694 6.694 0 0 0-3.612.774 8.065 8.065 0 0 0-3.07 2.968 9.312 9.312 0 0 0-1.296 3.185 6.851 6.851 0 0 0 .085 3.096 7.47 7.47 0 0 0 1.423 2.774 10.31 10.31 0 0 0 2.584 2.268c2.188 1.378 4.314 1.846 6.376 1.405 2.063-.441 3.8-1.783 5.21-4.025a9.681 9.681 0 0 0 1.252-2.848 7.61 7.61 0 0 0 .217-2.488 5.185 5.185 0 0 0-.51-1.885 2.71 2.71 0 0 0-.875-1.064 1.24 1.24 0 0 0-1.04-.194 1.52 1.52 0 0 0-.843.685 1.37 1.37 0 0 0-.251.914c.135.692.236 1.25.305 1.675.068.436.104.875.108 1.316.006.438-.051.875-.17 1.297a4.982 4.982 0 0 1-.572 1.238 3.81 3.81 0 0 1-3.685 1.8 5.477 5.477 0 0 1-2.398-.844l4.296-6.83a5.594 5.594 0 0 0 .944-2.365ZM44.324 51.104a1.854 1.854 0 0 0 1.47-.658 1.97 1.97 0 0 0 .54-1.548 2.682 2.682 0 0 0-1.009-1.69L32.038 35.21a2.706 2.706 0 0 0-1.783-.832 1.932 1.932 0 0 0-1.477.7 1.885 1.885 0 0 0-.526 1.548c.13.66.494 1.251 1.025 1.664l13.287 11.997a2.73 2.73 0 0 0 1.76.816ZM45.236 33.105a3.29 3.29 0 0 1 1.33-2.403 3.416 3.416 0 0 1 2.707-.774c.952.143 1.9.74 2.85 1.784l-5.877 4.625c-.75-1.18-1.087-2.256-1.01-3.232Zm10.476-1.838c.279-.607.097-1.323-.545-2.14a6.896 6.896 0 0 0-2.707-2.055 6.681 6.681 0 0 0-3.666-.472 8.04 8.04 0 0 0-3.89 1.761 9.283 9.283 0 0 0-2.294 2.562 6.942 6.942 0 0 0-.959 2.937 7.56 7.56 0 0 0 .41 3.096c.385 1.087.95 2.102 1.67 3.003 1.6 2.035 3.444 3.197 5.535 3.483 2.09.286 4.176-.392 6.257-2.036a9.592 9.592 0 0 0 2.134-2.26 7.436 7.436 0 0 0 1.04-2.267c.173-.63.226-1.286.155-1.935a2.667 2.667 0 0 0-.464-1.3 1.246 1.246 0 0 0-.916-.53 1.488 1.488 0 0 0-1.021.363 1.35 1.35 0 0 0-.545.774 53.819 53.819 0 0 1-.275 1.68c-.084.433-.199.86-.344 1.277a4.33 4.33 0 0 1-.596 1.16c-.27.368-.592.695-.955.972a3.78 3.78 0 0 1-4.072.453 5.45 5.45 0 0 1-1.976-1.599l6.342-4.988a5.534 5.534 0 0 0 1.69-1.927l-.008-.012ZM55.333 22.115a1.331 1.331 0 0 0 .058 1.16 1.38 1.38 0 0 0 .913.736c.482.093.981.002 1.4-.255l.483-.252 3.662 7.02a12.386 12.386 0 0 0 1.698 2.578c.513.57 1.224.923 1.988.986.773.078 1.755-.181 2.9-.774a7.408 7.408 0 0 0 2.525-1.934c.48-.65.566-1.27.26-1.858a1.343 1.343 0 0 0-.813-.693 1.238 1.238 0 0 0-.982.062c-.284.16-.553.349-.8.561-.251.215-.522.406-.809.57a1.244 1.244 0 0 1-1.001.154 1.508 1.508 0 0 1-.697-.553 12.004 12.004 0 0 1-.75-1.29l-3.511-6.725.68-.356a4.255 4.255 0 0 0 1.517-1.161 1.192 1.192 0 0 0 .042-1.335 1.38 1.38 0 0 0-.901-.732 1.933 1.933 0 0 0-1.377.252l-1.342.7-1.318-2.511a8.464 8.464 0 0 0-.847-1.374 1.751 1.751 0 0 0-.917-.603 2.056 2.056 0 0 0-1.547.135 1.96 1.96 0 0 0-.773.704c-.18.279-.283.601-.298.933-.011.343.054.684.19.998.143.352.386.825.68 1.413l1.16 2.198-.386.209a2.17 2.17 0 0 0-1.087 1.037ZM81.316 23.744a3.606 3.606 0 0 1-2.452 2.214 3.652 3.652 0 0 1-2.246 0 4.031 4.031 0 0 1-1.88-1.37 8.444 8.444 0 0 1-1.628-5.445c.053-.793.34-1.551.828-2.179a3.69 3.69 0 0 1 1.86-1.215 3.618 3.618 0 0 1 3.264.484c.977.683 1.708 1.831 2.192 3.444.485 1.612.506 2.968.062 4.067Zm2.382-8.347a7.29 7.29 0 0 0-5.352-2.968 9.81 9.81 0 0 0-6.481 1.935 7.305 7.305 0 0 0-2 2.376c-.479.939-.755 1.969-.811 3.022a9.91 9.91 0 0 0 .44 3.452 9.736 9.736 0 0 0 1.516 3.096 7.453 7.453 0 0 0 5.337 2.984 8.953 8.953 0 0 0 3.4-.387 9.113 9.113 0 0 0 3.093-1.548 7.324 7.324 0 0 0 1.991-2.392 7.53 7.53 0 0 0 .824-3.042 9.858 9.858 0 0 0-.43-3.42 9.745 9.745 0 0 0-1.527-3.108ZM92.504 10.339a1.868 1.868 0 0 0-.743-.731 1.933 1.933 0 0 0-.998-.206 1.781 1.781 0 0 0-1.369.658 2.603 2.603 0 0 0-.417 1.788l.642 11.908a2.71 2.71 0 0 0 .673 1.826 1.866 1.866 0 0 0 1.5.57 1.934 1.934 0 0 0 1.466-.709 2.676 2.676 0 0 0 .48-1.908l-.28-5.162c-.092-1.684-.053-2.833.117-3.46.211-.735.64-1.39 1.23-1.877a3.348 3.348 0 0 1 1.968-.774c1.13-.062 1.899.256 2.32.956.422.7.661 1.73.731 3.096l.387 6.865a2.704 2.704 0 0 0 .677 1.827 2.032 2.032 0 0 0 2.962-.143 2.715 2.715 0 0 0 .464-1.904l-.414-7.667c-.03-.747-.11-1.492-.24-2.229a4.787 4.787 0 0 0-.615-1.602 4.51 4.51 0 0 0-2.026-1.904 5.944 5.944 0 0 0-2.95-.553 6.393 6.393 0 0 0-2.928.832 7.257 7.257 0 0 0-2.262 2.237l-.023-.5a2.791 2.791 0 0 0-.352-1.234ZM181.907 115.166a5.188 5.188 0 0 0 1.717-1.672 13.64 13.64 0 0 0 1.438-3.003 75.44 75.44 0 0 1 .929-2.457 4.5 4.5 0 0 1 .835-1.386 1.282 1.282 0 0 1 1.117-.429 1.383 1.383 0 0 1 1.103.863c.273.592.37 1.25.278 1.896a3.494 3.494 0 0 1-.541 1.676 3.696 3.696 0 0 1-1.075.998 6.93 6.93 0 0 0-1.192.902 1.638 1.638 0 0 0-.471 1.033c-.085.487.027.988.309 1.393a1.545 1.545 0 0 0 1.106.596c.476.037.952-.068 1.369-.302a4.408 4.408 0 0 0 1.369-1.161c.477-.61.85-1.295 1.106-2.027.332-.911.545-1.86.634-2.825a8.346 8.346 0 0 0-.29-3.537 5.046 5.046 0 0 0-1.52-2.357 4.143 4.143 0 0 0-2.25-.983 3.515 3.515 0 0 0-2.413.553 5.635 5.635 0 0 0-1.748 1.966 22.527 22.527 0 0 0-1.47 3.332 10.197 10.197 0 0 1-1.23 2.601 1.72 1.72 0 0 1-1.662.654 1.547 1.547 0 0 1-1.161-.921 3.509 3.509 0 0 1-.336-2.082 4.624 4.624 0 0 1 .773-2.342 4.545 4.545 0 0 1 1.799-1.335c.346-.137.669-.329.955-.569.256-.255.407-.598.421-.959a1.669 1.669 0 0 0-.845-1.684 1.613 1.613 0 0 0-.616-.189 3.425 3.425 0 0 0-2.112.538 5.534 5.534 0 0 0-1.933 2.151 9.68 9.68 0 0 0-1.075 3.719 10.937 10.937 0 0 0 .212 3.998 4.786 4.786 0 0 0 4.393 3.769 3.403 3.403 0 0 0 2.077-.418ZM170.94 119.848a1.957 1.957 0 0 1-.468-.924c-.039-.383.012-.77.147-1.13a3.5 3.5 0 0 1 .298-.62c.123-.181.221-.379.29-.588.175-.426.186-.901.031-1.335a1.396 1.396 0 0 0-.905-.751 1.442 1.442 0 0 0-.892-.063 1.443 1.443 0 0 0-.756.477 7.212 7.212 0 0 0-1.218 2.466 6.479 6.479 0 0 0-.387 2.983c.128.803.471 1.557.994 2.179a16.422 16.422 0 0 0 2.348 2.202l11.701 9.504c.294.234.6.452.917.654.305.194.541.341.711.438.297.098.614.118.921.058a1.82 1.82 0 0 0 1.361-1.2 1.87 1.87 0 0 0 .101-1.025 2.102 2.102 0 0 0-.627-.914 15.796 15.796 0 0 0-1.485-1.234l-7.939-6.091 10.731-.151a5.206 5.206 0 0 0 1.795-.256 1.614 1.614 0 0 0 .955-1.103 1.94 1.94 0 0 0 .05-1.025 2.028 2.028 0 0 0-.456-.937 1.844 1.844 0 0 0-.847-.565 4.718 4.718 0 0 0-1.667-.054l-13.724.84-.774-.646a11.67 11.67 0 0 1-1.206-1.189ZM168.79 146.88a5.22 5.22 0 0 0 2.25-.825 13.537 13.537 0 0 0 2.537-2.155 69.527 69.527 0 0 1 1.849-1.866 4.463 4.463 0 0 1 1.326-.924 1.274 1.274 0 0 1 1.195.062 1.393 1.393 0 0 1 .657 1.238 3.36 3.36 0 0 1-.522 1.846 3.433 3.433 0 0 1-1.16 1.308 3.697 3.697 0 0 1-1.388.472 7.07 7.07 0 0 0-1.45.337 1.645 1.645 0 0 0-.855.774 1.869 1.869 0 0 0-.286 1.397 1.544 1.544 0 0 0 .773.998c.42.227.898.324 1.373.279a4.404 4.404 0 0 0 1.721-.503 7.211 7.211 0 0 0 1.841-1.401 11.435 11.435 0 0 0 1.728-2.322 8.4 8.4 0 0 0 1.161-3.344 5.081 5.081 0 0 0-.434-2.771 4.101 4.101 0 0 0-1.655-1.815 3.475 3.475 0 0 0-2.424-.479 5.68 5.68 0 0 0-2.398 1.079 22.58 22.58 0 0 0-2.707 2.446 10.272 10.272 0 0 1-2.181 1.873 1.722 1.722 0 0 1-1.787-.081 1.553 1.553 0 0 1-.692-1.32 3.491 3.491 0 0 1 .561-2.043 4.596 4.596 0 0 1 1.678-1.815 4.54 4.54 0 0 1 2.185-.492c.373.02.747-.023 1.106-.127.338-.128.614-.38.774-.705a1.632 1.632 0 0 0 .193-1.3 1.577 1.577 0 0 0-.773-1.002 3.418 3.418 0 0 0-2.151-.387 5.497 5.497 0 0 0-2.645 1.161 9.645 9.645 0 0 0-2.494 2.956 10.94 10.94 0 0 0-1.435 3.735 4.78 4.78 0 0 0 2.479 5.236 3.398 3.398 0 0 0 2.05.48ZM173.167 155.242a1.334 1.334 0 0 0-.495-1.064 1.407 1.407 0 0 0-.523-.292 1.407 1.407 0 0 0-.598-.045 1.976 1.976 0 0 0-1.203.774l-.352.418-6.04-5.127a12.21 12.21 0 0 0-2.541-1.745 3.011 3.011 0 0 0-2.216-.163c-.773.228-1.546.832-2.39 1.819a7.356 7.356 0 0 0-1.616 2.709c-.197.774-.046 1.389.464 1.819a1.343 1.343 0 0 0 1.013.332 1.24 1.24 0 0 0 .886-.425c.201-.257.377-.534.526-.825.151-.294.331-.573.537-.832a1.217 1.217 0 0 1 .866-.522c.316-.006.625.089.882.271.404.28.792.583 1.16.909l5.801 4.903-.499.589a4.341 4.341 0 0 0-.94 1.679 1.196 1.196 0 0 0 .464 1.254 1.355 1.355 0 0 0 1.11.337 1.939 1.939 0 0 0 1.184-.751l.974-1.161 2.146 1.815c.403.357.838.676 1.3.952a1.72 1.72 0 0 0 1.079.213 2.04 2.04 0 0 0 1.365-.705c.234-.267.391-.593.452-.944a1.88 1.88 0 0 0-.073-.975 2.361 2.361 0 0 0-.553-.855 18.893 18.893 0 0 0-1.16-1.049l-1.891-1.602.293-.348c.351-.371.56-.853.588-1.363ZM158.066 166.581a3.306 3.306 0 0 1-1.295 2.423 3.428 3.428 0 0 1-2.684.824c-.954-.129-1.913-.71-2.877-1.741l5.801-4.71c.763 1.169 1.115 2.237 1.055 3.204Zm-10.441 1.993c-.267.612-.077 1.324.576 2.129a6.949 6.949 0 0 0 2.742 2.02 6.72 6.72 0 0 0 3.674.418 8.038 8.038 0 0 0 3.867-1.819 9.241 9.241 0 0 0 2.254-2.597 6.88 6.88 0 0 0 .917-2.949 7.51 7.51 0 0 0-.456-3.096 10.299 10.299 0 0 0-1.71-2.98c-1.632-2.012-3.493-3.143-5.584-3.393-2.091-.251-4.167.459-6.23 2.128a9.673 9.673 0 0 0-2.103 2.291 7.608 7.608 0 0 0-1.006 2.287 5.11 5.11 0 0 0-.123 1.935c.045.465.21.91.479 1.293a1.249 1.249 0 0 0 .924.514c.376.004.739-.134 1.017-.387a1.35 1.35 0 0 0 .534-.774c.097-.7.178-1.261.251-1.683.077-.434.184-.862.321-1.281.136-.413.332-.804.58-1.161.269-.37.587-.702.944-.987a3.774 3.774 0 0 1 4.064-.511 5.49 5.49 0 0 1 2 1.568l-6.296 5.096a5.535 5.535 0 0 0-1.644 1.939h.008ZM131.755 180.981a3.336 3.336 0 0 1-.553 1.641 2.787 2.787 0 0 1-1.246 1.041 1.976 1.976 0 0 1-1.604.077 2.456 2.456 0 0 1-1.079-1.01c-.351-.624-.66-1.27-.925-1.935l-2.66-6.408a2.776 2.776 0 0 0-1.296-1.548 1.967 1.967 0 0 0-1.666-.02 2.009 2.009 0 0 0-1.188 1.196 2.829 2.829 0 0 0 .205 2.028l3.094 7.442c.614 1.478 1.227 2.494 1.841 3.049a4.23 4.23 0 0 0 2.417 1.057 6.01 6.01 0 0 0 2.946-.503 5.725 5.725 0 0 0 2.209-1.583 7.18 7.18 0 0 0 1.341-2.597 4.865 4.865 0 0 0 2.421 1.026 5.505 5.505 0 0 0 2.707-.453 6.073 6.073 0 0 0 2.278-1.602 7.18 7.18 0 0 0 1.396-2.628l.151.364a2.122 2.122 0 0 0 1.125 1.227 1.943 1.943 0 0 0 1.52-.02 1.777 1.777 0 0 0 1.071-1.103 2.573 2.573 0 0 0-.182-1.838l-4.524-10.901a2.79 2.79 0 0 0-1.296-1.548 2.117 2.117 0 0 0-2.834 1.161 2.845 2.845 0 0 0 .209 2.016l2.138 5.151c.665 1.602.978 2.912.94 3.932-.039 1.019-.683 1.793-1.934 2.321a1.852 1.852 0 0 1-1.581.058 2.636 2.636 0 0 1-1.072-1.087 21.054 21.054 0 0 1-1.024-2.19l-2.522-6.076a2.84 2.84 0 0 0-1.284-1.575 1.93 1.93 0 0 0-1.651 0 1.998 1.998 0 0 0-1.187 1.2 2.816 2.816 0 0 0 .205 2.027l2.104 5.066c.67 1.607 1 2.789.99 3.545ZM104.078 182.386a5.234 5.234 0 0 0 2.003 1.315c1.044.391 2.133.651 3.241.774 1.1.14 1.967.269 2.598.387a4.492 4.492 0 0 1 1.547.519 1.288 1.288 0 0 1 .661.998 1.38 1.38 0 0 1-.603 1.262 3.336 3.336 0 0 1-1.79.681 3.486 3.486 0 0 1-1.756-.166 3.752 3.752 0 0 1-1.203-.836 7.099 7.099 0 0 0-1.137-.968 1.668 1.668 0 0 0-1.113-.24 1.883 1.883 0 0 0-1.292.604 1.558 1.558 0 0 0-.34 1.211c.066.474.272.918.591 1.274.398.455.885.824 1.431 1.083a7.15 7.15 0 0 0 2.216.646c.962.123 1.935.123 2.897 0a8.416 8.416 0 0 0 3.387-1.045 5.09 5.09 0 0 0 1.968-1.996 4.115 4.115 0 0 0 .472-2.411 3.536 3.536 0 0 0-1.055-2.241 5.725 5.725 0 0 0-2.297-1.281 22.26 22.26 0 0 0-3.57-.716c-.96-.08-1.903-.295-2.803-.638a1.736 1.736 0 0 1-.998-1.486 1.55 1.55 0 0 1 .65-1.343 3.476 3.476 0 0 1 1.956-.774 3.964 3.964 0 0 1 4.146 1.734c.211.311.472.586.773.812.305.196.672.269 1.029.205a1.667 1.667 0 0 0 1.458-1.189c.06-.208.077-.426.05-.641a3.431 3.431 0 0 0-.978-1.935 5.572 5.572 0 0 0-2.518-1.428 9.684 9.684 0 0 0-3.867-.244 10.96 10.96 0 0 0-3.867 1.068 4.79 4.79 0 0 0-2.73 5.108c.078.705.373 1.367.843 1.897Z"/>
	</g>
	<defs>
		<clipPath id="clip0_7_56">
			<path fill="#fff" d="M8 9h184v182H8z"/>
		</clipPath>
	</defs>
</svg>