<?xml version="1.0" ?>
<svg xmlns="http://www.w3.org/2000/svg" viewBox="0 0 341.84 255.213">
	<path d="M33.987 43.748c6.393 0 12.129 1.481 17.206 4.443 5.076 2.961 9.072 6.748 11.987 11.352L55 65.608c-2.445-3.76-5.524-6.65-9.237-8.673a24.55 24.55 0 00-11.917-3.032c-2.163 0-4.254.281-6.275.845-2.023.565-3.808 1.41-5.36 2.539a12.22 12.22 0 00-3.666 4.23c-.894 1.692-1.34 3.667-1.34 5.924 0 2.164.4 3.998 1.2 5.5a14.357 14.357 0 003.173 4.019c1.315 1.177 2.89 2.235 4.724 3.173 1.833.942 3.83 1.928 5.993 2.962L42.59 88.03c3.385 1.6 6.417 3.268 9.096 5.006 2.68 1.74 4.959 3.644 6.84 5.712 1.88 2.07 3.315 4.35 4.302 6.84.987 2.492 1.48 5.288 1.48 8.391 0 3.948-.776 7.521-2.327 10.718s-3.666 5.923-6.346 8.179c-2.68 2.256-5.853 3.998-9.52 5.218-3.666 1.221-7.614 1.833-11.846 1.833-7.428 0-14.102-1.784-20.025-5.358C8.321 130.998 3.572 126.108 0 119.903l8.18-6.064a49.296 49.296 0 004.724 6.134 32.84 32.84 0 005.782 5.077c2.116 1.459 4.465 2.61 7.051 3.455 2.585.847 5.382 1.27 8.391 1.27 5.452 0 9.943-1.387 13.468-4.16 3.526-2.773 5.289-6.559 5.289-11.354 0-2.161-.377-4.018-1.128-5.57-.754-1.551-1.833-2.938-3.244-4.16-1.41-1.22-3.056-2.35-4.935-3.384a183.076 183.076 0 00-6.206-3.244l-10.436-4.936a104.114 104.114 0 01-7.897-4.231c-2.539-1.503-4.795-3.244-6.77-5.219a23.376 23.376 0 01-4.724-6.768c-1.176-2.538-1.763-5.452-1.763-8.745 0-3.667.752-7.003 2.257-10.012a23.228 23.228 0 016.134-7.685c2.585-2.116 5.593-3.738 9.026-4.866 3.431-1.128 7.027-1.693 10.788-1.693M112.257 88.453l45.551 49.924h-13.961L98.014 88.453 139.899 45.3H154zm-15.513 49.924h-11V45.3h11v93.077M311.201 138.377h-11V71.39l-29.897 40.616h-3.808L236.457 71.25v67.128h-11V43.748h3.95l38.922 53.872 38.923-53.872h3.95v94.63M191.536 138.377h-11V68.751h11v69.626" fill="#000"/>
	<path d="M224.824 15.087l-.653-.615c-1.328-1.281-2.67-2.175-4.171-3.353-5.276-4.144-14.061-7.994-20.585-9.499-13.735-3.168-25.583-1.604-37.916 3.912-2.528 1.13-7.16 3.833-9.44 5.605-1.182.918-3.091 2.396-4.812 3.895l5.797 5.797c3.603-3.141 8.47-6.328 11.885-7.836 3.076-1.361 5.904-2.545 9.519-3.385 11.523-2.676 22.316-1.5 32.717 3.33 3.866 1.795 8.362 4.773 11.892 7.915l5.767-5.766" fill="#000" fill-rule="evenodd"/>
	<path d="M164.775 32.56l1.578-1.356c1.439-1.088 3.574-2.468 5.423-3.297 13.092-5.87 26.021-3.484 35.585 4.642l5.84-5.84a45.792 45.792 0 00-2.558-2.069c-12.015-8.948-28.822-10.917-42.462-4.092-2.558 1.281-4.768 2.568-6.845 4.165a68.64 68.64 0 00-2.43 1.978l5.869 5.869" fill="#000" fill-rule="evenodd"/>
	<path d="M195.928 43.983l5.588-5.587-.173-.155c-.568-.516-1.431-1.03-2.038-1.452-.652-.452-1.352-.765-2.148-1.225-6.034-3.487-16.061-3.523-22.27.003-1.367.776-2.96 1.708-4.338 2.768l5.627 5.626c2.568-1.717 6.039-2.772 9.86-2.772 3.836 0 7.321 1.064 9.892 2.794M186.036 60.107c3.885 0 7.053-3.168 7.053-7.054 0-3.885-3.168-7.054-7.053-7.054s-7.055 3.169-7.055 7.054c0 3.886 3.17 7.054 7.055 7.054M330.59 155.397a8.189 8.189 0 10.002 16.377 8.189 8.189 0 00-.001-16.377zm0-3.054c6.21 0 11.243 5.034 11.243 11.244 0 6.208-5.033 11.242-11.242 11.242-6.21 0-11.243-5.034-11.243-11.242 0-6.21 5.033-11.244 11.243-11.244" fill="#000" fill-rule="evenodd"/>
	<path d="M328.245 163.261h1.77c1.146 0 1.862-.048 2.149-.145.285-.097.51-.264.67-.5.162-.238.243-.534.243-.89 0-.398-.106-.72-.32-.966-.213-.245-.512-.4-.9-.464-.194-.026-.776-.04-1.746-.04h-1.866zm-2.392 6.836v-11.846h5.034c1.265 0 2.186.106 2.758.32a2.732 2.732 0 011.38 1.136c.343.542.516 1.165.516 1.865 0 .89-.261 1.623-.784 2.203-.522.578-1.304.944-2.342 1.095.516.302.944.633 1.28.993.336.362.79 1.002 1.361 1.922l1.447 2.312h-2.862l-1.728-2.577c-.613-.921-1.034-1.503-1.261-1.742a1.846 1.846 0 00-.719-.493c-.253-.089-.654-.133-1.204-.133h-.484v4.945h-2.392" fill="#000"/>
	<path d="M45.247 159.033c6.393 0 12.128 1.48 17.206 4.443 5.076 2.961 9.072 6.748 11.987 11.352l-8.18 6.066c-2.445-3.76-5.524-6.653-9.237-8.674a24.553 24.553 0 00-11.917-3.033c-2.163 0-4.254.283-6.275.846-2.023.564-3.808 1.411-5.36 2.54a12.208 12.208 0 00-3.666 4.23c-.895 1.692-1.34 3.667-1.34 5.924 0 2.163.399 3.997 1.199 5.5a14.386 14.386 0 003.173 4.018c1.316 1.176 2.891 2.235 4.724 3.172 1.834.942 3.83 1.928 5.994 2.963l10.294 4.936c3.385 1.599 6.418 3.267 9.097 5.007 2.68 1.74 4.958 3.643 6.84 5.71 1.88 2.07 3.315 4.351 4.3 6.84.989 2.492 1.482 5.29 1.482 8.39 0 3.95-.776 7.524-2.327 10.72-1.551 3.195-3.666 5.923-6.346 8.18-2.68 2.256-5.853 3.997-9.52 5.217-3.666 1.221-7.615 1.833-11.846 1.833-7.428 0-14.102-1.785-20.025-5.36-5.923-3.57-10.672-8.46-14.244-14.666l8.18-6.064a49.197 49.197 0 004.724 6.136 32.975 32.975 0 005.782 5.077c2.115 1.458 4.464 2.608 7.051 3.453 2.585.847 5.381 1.271 8.391 1.271 5.452 0 9.943-1.388 13.468-4.161 3.526-2.772 5.289-6.558 5.289-11.352 0-2.162-.377-4.02-1.128-5.571-.754-1.552-1.833-2.937-3.244-4.16-1.41-1.221-3.056-2.35-4.936-3.385a184.733 184.733 0 00-6.205-3.244l-10.436-4.935a104.516 104.516 0 01-7.898-4.232c-2.538-1.503-4.794-3.243-6.769-5.217a23.371 23.371 0 01-4.724-6.77c-1.177-2.537-1.763-5.451-1.763-8.744 0-3.666.752-7.002 2.256-10.012a23.254 23.254 0 016.135-7.687c2.585-2.114 5.592-3.737 9.026-4.863 3.431-1.13 7.027-1.694 10.788-1.694M107.018 224.894h37.233l-18.478-45.554zm61.206 28.769h-11.847l-8.038-18.9h-45.41l-7.898 18.9H83.325l40.474-94.63h3.951l40.474 94.63M239.017 170.456h-47.244v32.014h39.206v10.013h-39.206v41.18h-11v-93.079h58.244v9.872M309.81 170.456h-48.653v28.488h37.231v9.872h-37.23v34.973h50.346v9.874h-61.347v-93.079h59.654v9.872" fill="#c21e24"/>
</svg>
