<svg xmlns="http://www.w3.org/2000/svg"  viewBox="0 0 1000 133.42"><defs><style>.cls-1{fill:url(#linear-gradient);}.cls-2{fill:#000;}</style><linearGradient id="linear-gradient" x1="26.3" y1="115.95" x2="92.79" y2="20.21" gradientUnits="userSpaceOnUse"><stop offset="0" stop-color="#c3c"/><stop offset="0.15" stop-color="#b141da"/><stop offset="0.48" stop-color="#6c63fc"/><stop offset="0.5" stop-color="#66f"/><stop offset="0.99" stop-color="#69f"/></linearGradient></defs><g id="Layer_2" data-name="Layer 2"><g id="Layer_1-2" data-name="Layer 1"><path class="cls-1" d="M50.34,2.72,10.15,25.92A20.31,20.31,0,0,0,0,43.51v46.4A20.31,20.31,0,0,0,10.15,107.5l40.19,23.2a20.28,20.28,0,0,0,20.3,0l40.19-23.2A20.3,20.3,0,0,0,121,89.91V43.51a20.3,20.3,0,0,0-10.16-17.59L70.64,2.72A20.28,20.28,0,0,0,50.34,2.72ZM15.15,90.6V42.84a4.06,4.06,0,0,1,2-3.52L58.45,15.49a4.07,4.07,0,0,1,4.08,0l13.08,7.64L45.55,40.49h0V92.94l-15.2,8.78-13.17-7.6A4.06,4.06,0,0,1,15.15,90.6Zm88.66,3.5L62.53,117.93a4.06,4.06,0,0,1-4.07,0l-13.08-7.64L75.44,92.93h0V40.48l15.2-8.78,13.17,7.6a4.09,4.09,0,0,1,2,3.52V90.58A4.09,4.09,0,0,1,103.81,94.1Z"/><path class="cls-2" d="M645.07,49H634.63c-.54-10.12-7.76-14.54-18.31-14.54S599,38.77,599,47.06s6.89,11.1,14.65,12.44l9.8,1.72c11.36,2,22.4,7.17,22.4,21.81s-12.28,23-28.32,23-30.7-8.3-31.24-26.93h10.45c.75,12.6,9.37,17.77,20.79,17.77s18-5.22,18-13.73S628,71.78,619.87,70.33l-9.8-1.73c-10.33-1.83-21.42-7-21.42-21.43s12.6-21.91,27.67-21.91S644.43,32.8,645.07,49Z"/><path class="cls-2" d="M708.28,86.64c-1.62,8.51-8.94,19.39-26.71,19.39-18.52,0-28.43-11.31-28.43-29.62s11-29.61,28.22-29.61c17.44,0,26.7,11.3,26.7,26.92V79.1H662.78c.65,12.6,8.4,18.53,18.79,18.53s15-4.64,16.59-11ZM663.05,71h35.32c-.43-10.33-6.78-15.82-17-15.82C672.1,55.2,664.66,60.47,663.05,71Z"/><path class="cls-2" d="M771.45,82.33c-.86,13.46-10.34,23.7-27.14,23.7s-28.75-10.56-28.75-29.62,12-29.61,28.75-29.61S770.37,57,771,68.87H761c-1-7.86-5.92-13.46-16.69-13.46-11.31,0-18.95,7.54-18.95,21s7.64,21,18.95,21c10.88,0,16.37-6.25,17.12-15.08Z"/><path class="cls-2" d="M832.38,48.41v56H822.8V98.16c0-.53-.22-.75-.76-.75s-.75.32-1.18.86C817.09,103,811.49,106,803.3,106c-14,0-22.61-8.08-22.61-22.62v-35h9.69V81.79c0,10.24,5.39,15.62,15.08,15.62,10.77,0,17.23-6.46,17.23-19.92V48.41Z"/><path class="cls-2" d="M845.5,104.41v-56h9.69V56c0,.54.22.75.75.75s.87-.32,1.08-.86c2.48-5.38,6.36-7.64,14-7.64h6.25v9.47h-7.76c-9.37,0-14.32,4.2-14.32,15v31.77Z"/><path class="cls-2" d="M882.52,26.87h14V39.8h-14Zm2.15,21.54h9.7v56h-9.7Z"/><path class="cls-2" d="M901.77,57V48.41h12.92V33.33h9.69V48.41h16.15V57H924.38V94.18A1.49,1.49,0,0,0,926,95.79h14.53v8.62h-9.69c-10.93,0-16.15-5.22-16.15-16.15V57Z"/><path class="cls-2" d="M946.16,50.56V48.41H956l16,47.06c.22.65.43.86,1.08.86s.86-.21,1.08-.86l16-47.06h9.8v2.15l-21,60.31c-3.66,10.56-9,14-20.89,14h-9.05v-8.61h16.05a2.06,2.06,0,0,0,2.26-1.35l3-8.13c.33-.86.44-1.4.11-1.83s-.53-.54-1.4-.54h0a5.91,5.91,0,0,1-5.58-4Z"/><path class="cls-2" d="M217.79,49H207.37c-.54-10.09-7.73-14.5-18.26-14.5s-17.29,4.35-17.29,12.62,6.87,11.07,14.6,12.41l9.78,1.72c11.33,2,22.34,7.14,22.34,21.75s-12.24,22.93-28.25,22.93S159.68,97.61,159.14,79h10.42c.75,12.56,9.35,17.72,20.73,17.72s17.94-5.21,17.94-13.69-7.47-11.34-15.58-12.79l-9.77-1.72c-10.31-1.82-21.37-7-21.37-21.37s12.56-21.86,27.6-21.86S217.14,32.84,217.79,49Z"/><path class="cls-2" d="M280.15,48.42v2.14L255.88,71.35l24.27,30.77v2.15H269.57l-20.84-26.8-10.47,9v17.83H228.6V26.93h9.66V74.41l29.49-26Z"/><path class="cls-2" d="M285.63,50.56V48.42h9.78l16,46.93c.22.65.43.86,1.07.86s.86-.21,1.08-.86l16-46.93h9.78v2.14l-20.95,60.15c-3.65,10.53-9,14-20.84,14h-9v-8.6h16a2.05,2.05,0,0,0,2.25-1.34l3-8.11c.32-.86.43-1.39.11-1.82s-.54-.54-1.4-.54h0a5.88,5.88,0,0,1-5.56-4Z"/><path class="cls-2" d="M346.56,104.27V26.93h9.66V54.54c0,.53.22.75.75.75s.76-.32,1.19-.86c3.54-4.73,9.23-7.63,17.4-7.63,14,0,22.55,8.06,22.55,22.56v34.91h-9.66V71c0-10.2-5.37-15.57-15-15.57-10.74,0-17.19,6.44-17.19,19.87v29Z"/><path class="cls-2" d="M408.16,26.93h14V39.82h-14Zm2.14,21.49H420v55.85H410.3Z"/><path class="cls-2" d="M440.29,106.09c1.13,7,7,11.61,17.3,11.61,11.65,0,18.36-6.88,18.36-18.8V95a.56.56,0,0,0-.64-.64,1,1,0,0,0-1,.53c-4.29,5.59-10.63,7.74-18.26,7.74-14.07,0-27-9.67-27-27.93S442,46.8,456.08,46.8c7.63,0,13.75,2.37,18.37,7.85.75,1,1.18,1.18,1.72,1.18s.75-.33,1-1l2.05-6.44h6.44V98.36c0,17.72-10.53,27.93-28.14,27.93-17.29,0-26.8-8.38-27.93-20.2Zm17.4-12c10.21,0,18.8-7,18.8-19.33S467.9,55.4,457.69,55.4s-18.79,7-18.79,19.33S447.49,94.06,457.69,94.06Z"/><path class="cls-2" d="M498.35,104.27V26.93H508V54.54c0,.53.21.75.75.75s.75-.32,1.18-.86c3.54-4.73,9.24-7.63,17.4-7.63,14,0,22.56,8.06,22.56,22.56v34.91h-9.67V71c0-10.2-5.37-15.57-15-15.57C514.46,55.4,508,61.84,508,75.27v29Z"/></g></g></svg>