<svg xmlns="http://www.w3.org/2000/svg" viewBox="0 0 0 0 196 0 45"><path d="M8.668 0h2.881c2.534.064 5.338.064 7.878 0h2.098a6.499 6.499 0 0 1 5.133 2.477c.179.206.346.469.526.713.262.261.456.583.565.937.429 3.041.282 6.898.301 10.659-4.029 0-8.109 0-12.004-.116 0-.994.148-2.226-.192-3.074a1.777 1.777 0 0 0-1.2-1.052c-.226.01-.445.074-.642.186-.423.161-.564.218-.673.565a5.907 5.907 0 0 0-.154 2.439c.041.685.384 1.318.937 1.726A15.918 15.918 0 0 0 17.913 17c.678.235 1.368.434 2.066.597 1.508.314 3.176.423 4.388.937a6.99 6.99 0 0 1 1.649 1.014 5.628 5.628 0 0 1 2.137 3.209c.261 1.676.349 3.375.263 5.069a16.291 16.291 0 0 1-.526 4.801 7.84 7.84 0 0 1-2.098 3.208 7.437 7.437 0 0 1-3.394 2.028c-1.611.352-3.261.49-4.908.411-3.208-.077-7.256.109-10.265-.334-3.26-.487-5.069-1.867-6.153-4.492a8.808 8.808 0 0 1-.597-2.066 19.325 19.325 0 0 1-.038-2.625c0-1.592 0-3.395.038-5.288 4.074-.09 8.341 0 12.453-.039.052 1.136-.327 3.607.411 4.165.646.277 1.394.16 1.925-.301.378-.758.231-1.881.115-2.85a2.991 2.991 0 0 0-.898-1.989 5.513 5.513 0 0 0-.975-.417 31.496 31.496 0 0 0-1.053-.372c-3.535-1.245-8.507-1.021-10.611-3.614a7.508 7.508 0 0 1-1.649-4.049 29.17 29.17 0 0 1-.115-5.48C.347 4.974 1.726 2.567 3.985 1.02A4.295 4.295 0 0 1 5.967.154C6.763.058 7.61.058 8.668 0z" fill="#FFF"/><path d="M82.462 0h13.274c.09 9.106 0 18.373.038 27.544 3.516 0 7.128-.051 10.58.038v10.621c-7.84 0-15.783.052-23.559-.038 0-8.831.052-17.757-.038-26.524q-2.271 16.718-4.69 33.32c-25.862-.051-51.704.109-77.502 0 0-1.393 0-2.971.077-4.126h67.75c.353-3.755.68-7.528 1.014-11.295h-9.868c-.853-7.464-1.629-15.011-2.515-22.461a545.302 545.302 0 0 1-2.136 9.157q-5.197 1.387-10.316 2.85c3.207.924 6.505 1.797 9.681 2.778 1.084 5.404 2.22 10.962 3.208 16.32H44.834c-.777-3.85-1.463-7.816-2.252-11.667 0 3.902 0 7.817-.039 11.667h-13.03V.045h12.992c0 .038 0 .045.038.077 0 3.928-.045 7.951.039 11.815 1.373-3.472 2.72-7.008 4.086-10.429.227-.472.416-.961.565-1.463h21.871c.43 5.134.789 10.39 1.238 15.537.591-4.768 1.219-9.8 1.803-14.6a5.36 5.36 0 0 1 .109-.937 5.295 5.295 0 0 1 1.283 0c3.035 0 6.083.032 8.925-.045zm79.26 0h24.835c.032.051.058.039.077.116.022.185.022.372 0 .558 0 3.632.032 7.483-.039 10.91H174.63v2.4c3.984 0 8.077-.052 12.004.038v10.936c-2.567.09-5.274 0-7.802.077q-2.04-3.703-4.164-7.316c0-.064-.044-.096-.038 0v9.626c3.984 0 8.077-.045 12.004.039 0 3.593.051 7.283-.039 10.807-8.276 0-16.681.051-24.873-.039zm-53.565.045h12.831c0 3.729.051 7.553 0 11.218h-12.831V.154c-.045-.051-.045-.103 0-.109zm15.115 0h20.107l2.566 20.536c.084-6.79 0-13.733-.038-20.536 4.35-.09 8.866 0 13.28-.039v38.197h-19.523q-1.527-9.626-3.002-19.252c-.109 6.34.038 12.944-.071 19.285h-13.357V.154c0-.051-.007-.103.038-.109zm-14.968 13.323c4.164 0 8.431-.052 12.53.032v24.765c-4.112.09-8.392 0-12.568.038V13.477c.083-.052-.045-.09.038-.109zm83.578 24.386a3.625 3.625 0 0 1 2.816.751 3.74 3.74 0 0 1 1.283 3.209 3.664 3.664 0 0 1-2.438 3.042 4.042 4.042 0 0 1-2.566-.116 3.662 3.662 0 0 1-2.136-3.85 3.845 3.845 0 0 1 1.238-2.253 3.416 3.416 0 0 1 1.803-.783zm-1.046.713a3.35 3.35 0 0 0-1.431 4.094 3.318 3.318 0 0 0 2.932 1.925 3.209 3.209 0 0 0 3.26-3.305 3.122 3.122 0 0 0-3.452-3.074 2.763 2.763 0 0 0-1.309.36z" fill="#FFF"/><path d="M190.945 39.179l.039-.039c.898.103 2.014-.186 2.739.231a1.105 1.105 0 0 1-.487 2.022c.275.642.641 1.283.898 1.925h-.642c-.25-.642-.584-1.219-.866-1.835h-1.007v1.803c-.135.077-.411 0-.603.032-.058-1.347.019-2.823-.071-4.139zm2.438 1.726a.828.828 0 0 0 .154-.975c-.289-.488-1.283-.295-1.925-.334v1.476c.655-.109 1.335.167 1.771-.167zm-111.184-.224h104.576v4.28H81.48c.205-1.444.507-2.978.719-4.28z" fill="#FFF"/></svg>