<?xml version="1.0" ?>
<svg xmlns="http://www.w3.org/2000/svg" viewBox="0.0 0.0 2381.8 386.8" fill-rule="evenodd" stroke="none">
	<style>.cls0 {
    fill: rgb(19, 49, 86)
    }</style>
	<path d="M 69.6,175.9 L 52.1,171.4 C 35.5,167.4 30.7,164.0 30.7,155.3 C 30.7,143.4 44.7,140.4 52.9,140.4 C 63.5,140.4 71.2,145.2 76.5,155.3 C 77.0,156.1 77.8,156.6 78.6,157.1 C 79.4,157.6 80.4,157.1 81.2,156.6 L 96.6,146.5 C 97.9,145.7 98.4,143.9 97.9,142.6 C 90.5,127.2 74.6,119.0 54.2,119.0 C 29.4,118.5 4.8,130.9 4.8,158.4 C 4.8,170.6 10.6,187.0 38.4,193.4 L 55.0,197.3 C 68.3,200.5 75.9,204.2 75.9,214.0 C 75.9,225.9 63.2,231.2 50.0,231.2 C 34.7,231.2 25.4,221.9 20.6,214.5 C 20.1,213.7 19.3,213.2 18.5,213.2 C 17.7,213.2 16.7,213.2 15.9,213.7 L 1.1,223.8 C -0.3,224.6 -0.8,226.9 0.3,228.3 C 11.6,244.9 28.3,253.7 50.3,253.7 C 73.8,253.7 101.1,243.1 101.1,212.9 C 102.1,194.7 88.9,180.7 69.6,175.9 L 69.6,175.9 M 180.4,46.3 L 163.0,46.3 C 161.1,46.3 159.8,47.6 159.8,49.5 L 159.8,246.8 C 159.8,248.6 161.1,250.0 163.0,250.0 L 180.4,250.0 C 182.3,250.0 183.6,248.6 183.6,246.8 L 183.6,50.0 C 183.4,48.1 182.0,46.3 180.4,46.3 L 180.4,46.3 M 302.1,118.5 C 264.8,118.5 237.1,147.3 237.1,185.9 C 237.1,224.6 265.6,253.4 303.5,253.4 C 325.7,253.4 344.5,244.1 358.5,226.1 C 359.3,224.8 359.3,222.7 358.0,221.7 L 344.5,210.8 C 344.5,210.0 343.7,210.0 342.6,210.0 C 341.8,210.0 340.8,210.8 340.5,211.3 C 334.7,220.9 321.7,230.9 303.7,230.9 C 282.8,230.9 265.6,215.0 262.7,193.6 C 269.6,193.6 361.1,193.6 361.1,193.6 C 363.0,193.6 364.3,192.3 364.3,190.4 L 364.3,182.5 C 364.3,145.2 338.9,118.5 302.1,118.5 L 302.1,118.5 M 263.0,173.2 C 265.1,156.1 283.1,140.4 302.4,140.4 C 323.8,140.4 337.3,153.1 338.7,173.2 L 263.0,173.2 L 263.0,173.2 M 484.4,118.5 C 447.1,118.5 419.4,147.3 419.4,185.9 C 419.4,224.6 447.9,253.4 485.8,253.4 C 508.0,253.4 526.8,244.1 540.8,226.1 C 541.6,224.8 541.6,222.7 540.3,221.7 L 526.8,210.8 C 526.0,210.3 524.9,210.0 524.1,210.0 C 523.3,210.0 522.3,210.8 522.0,211.3 C 516.2,220.9 503.7,230.9 485.2,230.9 C 464.3,230.9 447.1,215.0 444.2,193.6 C 451.1,193.6 542.6,193.6 542.6,193.6 C 544.5,193.6 545.8,192.3 545.8,190.4 L 545.8,182.5 C 546.6,145.2 521.2,118.5 484.4,118.5 L 484.4,118.5 M 445.3,173.2 C 447.4,156.1 465.4,140.4 484.7,140.4 C 506.1,140.4 519.6,153.1 520.9,173.2 L 445.3,173.2 L 445.3,173.2 M 671.8,118.5 C 658.3,118.5 639.7,123.3 626.8,136.7 C 626.8,130.9 626.8,124.8 626.8,124.8 C 626.8,123.0 625.5,121.7 623.6,121.7 L 606.1,121.7 C 604.3,121.7 603.0,123.0 603.0,124.8 L 603.0,322.2 C 603.0,324.0 604.3,325.3 606.1,325.3 L 623.6,325.3 C 625.5,325.3 626.8,324.0 626.8,322.2 C 626.8,322.2 626.8,249.2 626.8,235.1 C 640.0,248.6 658.3,253.4 671.8,253.4 C 711.7,253.4 740.0,224.8 740.0,185.9 C 740.0,147.1 711.2,118.5 671.8,118.5 L 671.8,118.5 M 671.8,230.9 C 645.6,230.9 625.7,211.3 625.7,185.4 C 625.7,159.5 645.3,139.9 671.8,139.9 C 697.2,139.9 715.1,158.7 715.1,185.4 C 714.9,212.7 697.2,230.9 671.8,230.9 L 671.8,230.9 M 1400.4,118.5 C 1385.8,118.5 1371.0,125.4 1361.8,135.7 C 1361.8,132.3 1361.2,128.3 1361.0,124.3 C 1361.0,122.5 1359.1,121.7 1357.8,121.7 L 1339.8,121.7 C 1339.0,121.7 1338.0,122.2 1337.7,122.5 C 1337.2,123.0 1336.9,123.8 1336.9,124.6 L 1337.4,129.3 C 1338.0,137.3 1338.2,146.0 1338.2,151.3 L 1338.2,246.8 C 1338.2,248.6 1339.5,250.0 1341.4,250.0 L 1358.9,250.0 C 1360.7,250.0 1362.0,248.6 1362.0,246.8 L 1362.0,184.1 C 1362.0,140.7 1394.8,140.4 1396.2,140.4 C 1417.6,140.4 1426.3,151.3 1426.3,179.3 L 1426.3,246.8 C 1426.3,248.6 1427.6,250.0 1429.5,250.0 L 1447.0,250.0 C 1448.8,250.0 1450.1,248.6 1450.1,246.8 L 1450.1,169.3 C 1449.6,136.5 1432.1,118.5 1400.4,118.5 L 1400.4,118.5 M 1598.3,247.0 C 1598.3,248.9 1600.1,249.7 1601.5,249.7 L 1619.5,249.7 C 1620.3,249.7 1621.3,249.2 1621.6,248.9 C 1622.1,248.4 1622.4,247.6 1622.4,246.8 L 1621.8,242.0 C 1621.3,234.1 1621.0,225.4 1621.0,220.1 L 1621.0,124.6 C 1621.0,122.7 1619.7,121.4 1617.9,121.4 L 1600.4,121.4 C 1598.6,121.4 1597.2,122.7 1597.2,124.6 L 1597.2,187.3 C 1597.2,230.6 1564.4,230.9 1563.1,230.9 C 1541.7,230.9 1532.9,220.1 1532.9,192.0 L 1532.9,124.6 C 1532.9,122.7 1531.6,121.4 1529.8,121.4 L 1512.3,121.4 C 1510.5,121.4 1509.1,122.7 1509.1,124.6 L 1509.1,202.1 C 1509.1,234.9 1526.6,252.9 1558.6,252.9 C 1573.2,252.9 1588.0,246.0 1597.2,235.7 C 1597.8,239.6 1597.8,243.6 1598.3,247.0 L 1598.3,247.0 M 1871.1,246.8 L 1871.1,169.3 C 1871.1,136.5 1853.6,118.5 1821.6,118.5 C 1805.5,118.5 1790.1,126.7 1781.4,139.9 C 1771.9,122.5 1755.2,118.5 1742.0,118.5 C 1727.9,118.5 1714.4,124.6 1705.2,134.6 C 1705.2,129.9 1705.2,125.1 1705.2,125.1 C 1705.2,123.3 1703.9,121.9 1702.0,121.9 L 1683.2,121.9 C 1682.4,121.9 1681.4,122.5 1681.1,122.7 C 1680.6,123.3 1680.3,124.1 1680.3,124.8 L 1680.8,131.7 C 1681.4,138.6 1681.6,144.9 1681.6,151.3 L 1681.6,246.3 C 1681.6,248.1 1683.0,249.4 1684.8,249.4 L 1702.3,249.4 C 1704.1,249.4 1705.4,248.1 1705.4,246.3 L 1705.4,183.6 C 1705.4,141.2 1733.5,139.9 1736.9,139.9 C 1757.0,139.9 1764.4,149.4 1764.4,174.8 L 1764.4,246.3 C 1764.4,248.1 1765.8,249.4 1767.6,249.4 L 1785.1,249.4 C 1786.9,249.4 1788.3,248.1 1788.3,246.3 L 1788.3,181.4 C 1788.3,169.3 1791.4,139.9 1819.7,139.9 C 1839.9,139.9 1847.3,149.4 1847.3,174.8 L 1847.3,246.3 C 1847.3,248.1 1848.6,249.4 1850.4,249.4 L 1867.9,249.4 C 1869.2,250.2 1871.1,248.9 1871.1,246.8 L 1871.1,246.8 M 2069.2,185.9 C 2069.2,147.1 2040.4,118.5 2001.0,118.5 C 1987.5,118.5 1969.0,123.3 1956.0,136.7 C 1956.0,122.7 1956.0,49.7 1956.0,49.7 C 1956.0,47.9 1954.7,46.6 1952.8,46.6 L 1935.4,46.6 C 1933.5,46.6 1932.2,47.9 1932.2,49.7 L 1932.2,247.0 C 1932.2,248.9 1933.5,250.2 1935.4,250.2 L 1952.8,250.2 C 1954.7,250.2 1956.0,248.9 1956.0,247.0 C 1956.0,247.0 1956.0,241.0 1956.0,235.1 C 1969.2,248.6 1987.5,253.4 2001.0,253.4 C 2040.4,253.4 2069.2,224.8 2069.2,185.9 L 2069.2,185.9 M 2001.0,230.9 C 1974.8,230.9 1954.9,211.3 1954.9,185.4 C 1954.9,159.5 1974.5,139.9 2001.0,139.9 C 2026.4,139.9 2044.4,158.7 2044.4,185.4 C 2043.8,212.7 2026.4,230.9 2001.0,230.9 L 2001.0,230.9 M 2215.0,210.8 C 2214.2,210.3 2213.2,210.0 2212.4,210.0 C 2211.6,210.0 2210.5,210.8 2210.3,211.3 C 2204.4,220.9 2191.5,230.9 2173.5,230.9 C 2152.6,230.9 2135.4,215.0 2132.5,193.6 C 2139.3,193.6 2230.9,193.6 2230.9,193.6 C 2232.7,193.6 2234.1,192.3 2234.1,190.4 L 2234.1,182.5 C 2234.1,144.9 2208.7,118.8 2172.4,118.2 C 2135.1,118.2 2107.3,147.1 2107.3,185.7 C 2107.3,224.3 2135.9,253.1 2173.7,253.1 C 2196.0,253.1 2214.8,243.9 2228.8,225.9 C 2229.6,224.6 2229.6,222.4 2228.2,221.4 L 2215.0,210.8 L 2215.0,210.8 M 2172.2,140.4 C 2193.6,140.4 2207.1,153.1 2208.4,173.2 L 2132.7,173.2 C 2134.3,156.1 2152.8,140.4 2172.2,140.4 L 2172.2,140.4 M 2292.0,162.7 L 2292.0,246.8 C 2292.0,248.6 2293.3,250.0 2295.2,250.0 L 2312.6,250.0 C 2314.5,250.0 2315.8,248.6 2315.8,246.8 L 2315.8,178.0 C 2315.8,163.2 2326.7,142.0 2350.5,142.0 C 2354.4,142.0 2357.4,142.6 2359.2,143.4 C 2360.0,143.9 2361.1,143.9 2361.9,143.4 C 2362.7,142.8 2363.2,142.0 2363.7,141.2 L 2367.1,124.1 C 2367.7,122.2 2366.4,120.9 2365.0,120.1 C 2361.1,118.8 2356.8,118.2 2351.5,118.2 C 2334.1,118.2 2322.2,126.2 2314.8,135.7 C 2314.8,129.9 2314.8,124.3 2314.8,124.3 C 2314.8,122.5 2313.4,121.1 2311.6,121.1 L 2294.4,121.1 C 2293.6,121.1 2292.5,121.7 2292.3,121.9 C 2291.7,122.5 2291.5,123.3 2291.5,124.1 L 2292.0,139.4 L 2292.0,162.7 L 2292.0,162.7" class="cls0"/>
	<path d="M 2357.6,244.9 L 2360.8,244.9 L 2360.8,236.2 L 2364.2,236.2 L 2370.1,244.9 L 2373.5,244.9 L 2367.7,235.7 C 2370.9,235.1 2373.0,233.8 2373.0,229.9 C 2373.0,225.9 2370.9,224.0 2366.1,224.0 L 2358.7,224.0 L 2358.7,244.7 L 2357.6,244.7 L 2357.6,244.9 M 2360.8,226.9 L 2364.8,226.9 C 2366.9,226.9 2369.3,227.5 2369.3,230.1 C 2369.3,233.3 2366.6,233.6 2364.0,233.6 L 2360.8,233.6 L 2360.8,226.9 L 2360.8,226.9 M 2346.8,234.9 C 2346.8,244.9 2354.7,252.3 2364.2,252.3 C 2373.8,252.3 2381.7,244.9 2381.7,234.9 C 2381.7,224.8 2373.8,217.4 2364.2,217.4 C 2354.4,217.4 2346.8,224.8 2346.8,234.9 L 2346.8,234.9 M 2349.7,234.9 C 2349.7,226.7 2355.8,220.1 2364.2,220.1 C 2372.2,220.1 2378.8,226.7 2378.8,234.9 C 2378.8,243.1 2372.7,249.7 2364.2,249.7 C 2356.3,249.7 2349.7,243.3 2349.7,234.9 L 2349.7,234.9" class="cls0"/>
	<path d="M 1048.8,0.0 C 942.4,0.0 856.2,86.8 856.2,193.4 C 856.2,299.9 942.4,386.7 1048.8,386.7 C 1155.1,386.7 1241.4,299.9 1241.4,193.4 C 1240.9,86.5 1155.1,0.0 1048.8,0.0 L 1048.8,0.0 M 1107.2,224.0 L 1053.5,328.5 C 1053.5,328.5 1051.7,332.5 1047.7,332.5 C 1043.7,332.5 1042.4,328.5 1042.4,328.5 C 1042.4,328.5 989.5,225.6 989.0,224.0 C 988.2,222.2 988.2,218.7 989.8,215.8 C 991.9,212.4 996.4,211.9 996.4,211.9 C 996.4,211.9 1097.5,211.9 1101.4,211.9 C 1105.4,211.9 1107.2,213.2 1108.3,216.4 C 1109.9,220.1 1107.2,224.0 1107.2,224.0 L 1107.2,224.0 M 1108.3,170.6 C 1107.0,173.8 1105.1,175.1 1101.4,175.1 C 1097.5,175.1 996.4,175.1 996.4,175.1 C 996.4,175.1 991.9,175.1 989.8,171.1 C 987.9,168.0 988.5,164.5 989.0,162.9 C 989.8,161.1 1042.7,58.7 1042.7,58.7 C 1042.7,58.7 1044.0,54.8 1048.0,54.8 C 1051.4,54.8 1053.8,58.7 1053.8,58.7 L 1107.5,163.2 C 1107.2,162.7 1109.9,167.2 1108.3,170.6 L 1108.3,170.6" class="cls0"/>
</svg>
