<?xml version="1.0" ?>
<svg xmlns="http://www.w3.org/2000/svg" viewBox="0 0 64 42" fill="none">
	<path d="M9.62203 22.5701L9.47072 22.1425C9.43705 22.0475 9.45169 21.9416 9.5099 21.8595L16.0597 12.6158C16.4641 12.045 17.0493 11.631 17.7183 11.442L57.8334 0.113727C58.4712 -0.066389 59.1497 -0.0318263 59.7663 0.212191L63.8709 1.83642C63.9488 1.86726 64 1.94314 64 2.02766V2.38673C64 2.42898 63.9871 2.4702 63.9631 2.50478L57.4629 11.8551C57.0563 12.4398 56.4613 12.8637 55.7794 13.054L15.6719 24.2472C15.0737 24.4142 14.4394 24.3927 13.8537 24.1858L9.80854 22.7573C9.7216 22.7265 9.65305 22.6577 9.62203 22.5701Z" fill="#DEFF00"/>
	<path d="M0.169126 40.2117L0.0178064 39.7842C-0.0158646 39.689 -0.00122415 39.5833 0.0569867 39.501L6.60679 30.2573C7.01118 29.6867 7.59634 29.2725 8.26541 29.0836L48.3805 17.7553C49.0182 17.5752 49.6968 17.6097 50.3134 17.8538L54.4179 19.478C54.4958 19.5088 54.5471 19.5848 54.5471 19.6692V20.0283C54.5471 20.0706 54.5342 20.1117 54.5102 20.1464L48.0099 29.4966C47.6034 30.0815 47.0083 30.5052 46.3265 30.6955L6.21896 41.8887C5.62084 42.0557 4.98654 42.0343 4.40077 41.8275L0.355628 40.3988C0.268686 40.3681 0.200137 40.2993 0.169126 40.2117Z" fill="#DEFF00"/>
</svg>