<?xml version="1.0" ?>

<svg xmlns="http://www.w3.org/2000/svg" viewBox="0 0 515 515" version="1.1" xmlnsXlink="http://www.w3.org/1999/xlink" xmlSpace="preserve" xmlnsSerif="http://www.serif.com/" style="fill-rule:evenodd;clip-rule:evenodd;stroke-linejoin:round;stroke-miterlimit:2;">
	
    
	<g transform="matrix(2.66667,0,0,2.66667,458.56,443.557)">
		
        
		<path d="M0,-69.533L-31.654,-95.497L-164.659,8.986C-171.757,14.562 -167.814,25.964 -158.788,25.964L-34.155,25.964C16.425,25.964 39.108,-37.455 0,-69.533" style="fill:rgb(77,186,211);fill-rule:nonzero;"/>
		
    
	</g>
	
    
	<g transform="matrix(2.66667,0,0,2.66667,56.4397,71.4432)">
		
        
		<path d="M0,69.533L31.654,95.497L164.659,-8.986C171.757,-14.562 167.814,-25.964 158.788,-25.964L34.155,-25.964C-16.425,-25.964 -39.108,37.455 0,69.533" style="fill:rgb(248,148,32);fill-rule:nonzero;"/>
		
    
	</g>
	
    
	<g transform="matrix(2.66667,0,0,2.66667,199.494,188.899)">
		
        
		<path d="M0,51.451L95.344,24.483L65.496,0L0,51.451Z" style="fill:rgb(148,50,126);fill-rule:nonzero;"/>
		
    
	</g>
	

</svg>
