<svg viewBox="0 0 512 95" fill="none" xmlns="http://www.w3.org/2000/svg">
<g clip-path="url(#clip0_1_25)">
<path d="M22.9884 69.8624C18.8157 69.8624 15.0725 69.126 11.7589 67.6533C8.44529 66.119 5.80664 64.0636 3.84304 61.4863C1.94077 58.909 0.897591 56.0557 0.713501 52.9261H13.6918C13.9373 54.8896 14.8884 56.5159 16.5452 57.8045C18.2634 59.0931 20.3804 59.7375 22.8963 59.7375C25.3509 59.7375 27.2531 59.2464 28.6031 58.2647C30.0144 57.2827 30.72 56.0249 30.72 54.4909C30.72 52.8341 29.8611 51.6067 28.1429 50.8091C26.4861 49.9499 23.8168 49.0295 20.135 48.0477C16.3305 47.1273 13.2009 46.1761 10.7464 45.1944C8.35324 44.2123 6.26687 42.7091 4.48735 40.6841C2.76917 38.6592 1.91009 35.9283 1.91009 32.4921C1.91009 29.6692 2.70781 27.0921 4.30326 24.7603C5.96007 22.4285 8.29186 20.5876 11.2987 19.2376C14.3668 17.8876 17.9566 17.2126 22.0679 17.2126C28.1429 17.2126 32.9907 18.7467 36.6109 21.8148C40.2314 24.8216 42.2256 28.9024 42.5938 34.0569H30.2598C30.0757 32.0319 29.2168 30.4364 27.6827 29.2706C26.21 28.0432 24.2156 27.4296 21.6998 27.4296C19.3679 27.4296 17.5577 27.8591 16.2691 28.7182C15.0418 29.5772 14.4282 30.7738 14.4282 32.3081C14.4282 34.0261 15.2873 35.3455 17.0055 36.266C18.7236 37.1249 21.3929 38.0148 25.0134 38.9353C28.6952 39.8557 31.7325 40.8067 34.1257 41.7887C36.5189 42.7704 38.5746 44.3044 40.2927 46.3909C42.0723 48.4159 42.9928 51.1157 43.054 54.4909C43.054 57.4363 42.2256 60.0749 40.5688 62.4068C38.9736 64.7384 36.6417 66.5793 33.5734 67.9295C30.5667 69.2181 27.0384 69.8624 22.9884 69.8624Z" fill="white"/>
<path d="M116.959 17.3047C123.218 17.3047 128.25 19.2376 132.054 23.1035C135.92 26.908 137.853 32.2465 137.853 39.1194V69.034H124.967V40.8682C124.967 36.8795 123.954 33.8421 121.929 31.7558C119.904 29.608 117.143 28.5341 113.645 28.5341C110.148 28.5341 107.356 29.608 105.269 31.7558C103.244 33.8421 102.232 36.8795 102.232 40.8682V69.034H89.3454V40.8682C89.3454 36.8795 88.3329 33.8421 86.3079 31.7558C84.283 29.608 81.5216 28.5341 78.0239 28.5341C74.4649 28.5341 71.6423 29.608 69.5558 31.7558C67.5308 33.8421 66.5183 36.8795 66.5183 40.8682V69.034H53.632V18.041H66.5183V24.208C68.1751 22.0603 70.2921 20.3728 72.8694 19.1456C75.5082 17.9183 78.3921 17.3047 81.5216 17.3047C85.5103 17.3047 89.0693 18.1637 92.1988 19.8819C95.3284 21.5387 97.7523 23.9319 99.4704 27.0614C101.127 24.116 103.52 21.7535 106.65 19.974C109.841 18.1944 113.277 17.3047 116.959 17.3047Z" fill="white"/>
<path d="M146.768 43.3535C146.768 38.1989 147.78 33.6272 149.805 29.6388C151.892 25.65 154.684 22.5819 158.182 20.4342C161.74 18.2864 165.698 17.2126 170.055 17.2126C173.86 17.2126 177.174 17.9796 179.996 19.5137C182.88 21.0478 185.181 22.9807 186.9 25.3126V18.041H199.878V69.034H186.9V61.5784C185.243 63.9715 182.942 65.9657 179.996 67.5613C177.112 69.0953 173.768 69.8624 169.963 69.8624C165.668 69.8624 161.74 68.7579 158.182 66.5488C154.684 64.3397 151.892 61.2407 149.805 57.2522C147.78 53.2023 146.768 48.5692 146.768 43.3535ZM186.9 43.5375C186.9 40.408 186.286 37.7387 185.059 35.5296C183.831 33.259 182.174 31.5409 180.088 30.3751C178.002 29.1478 175.762 28.5341 173.369 28.5341C170.976 28.5341 168.767 29.117 166.742 30.2831C164.717 31.4489 163.06 33.167 161.771 35.4376C160.544 37.6467 159.93 40.2852 159.93 43.3535C159.93 46.4214 160.544 49.1215 161.771 51.4534C163.06 53.7238 164.717 55.4726 166.742 56.7C168.828 57.927 171.037 58.5409 173.369 58.5409C175.762 58.5409 178.002 57.9578 180.088 56.792C182.174 55.5647 183.831 53.8466 185.059 51.6375C186.286 49.3669 186.9 46.6671 186.9 43.5375Z" fill="white"/>
<path d="M225.35 25.9569C227.007 23.2569 229.155 21.1399 231.793 19.6058C234.493 18.0717 237.561 17.3047 240.998 17.3047V30.8354H237.592C233.542 30.8354 230.474 31.7863 228.387 33.6887C226.362 35.5909 225.35 38.9045 225.35 43.6296V69.034H212.464V18.041H225.35V25.9569Z" fill="white"/>
<path d="M264.68 28.6262V53.2943C264.68 55.0124 265.079 56.2702 265.877 57.0681C266.736 57.8045 268.147 58.1727 270.111 58.1727H276.094V69.034H267.994C257.133 69.034 251.702 63.7567 251.702 53.2023V28.6262H245.627V18.041H251.702V5.43085H264.68V18.041H276.094V28.6262H264.68Z" fill="white"/>
<path d="M298.249 0.920639V69.034H285.362V0.920639H298.249Z" fill="white"/>
<path d="M333.623 69.8624C328.715 69.8624 324.297 68.7883 320.368 66.6408C316.442 64.4317 313.344 61.3327 311.072 57.3443C308.863 53.3556 307.758 48.7533 307.758 43.5375C307.758 38.3215 308.894 33.7192 311.164 29.7308C313.496 25.7421 316.658 22.6739 320.644 20.5262C324.634 18.3171 329.084 17.2126 333.991 17.2126C338.901 17.2126 343.351 18.3171 347.337 20.5262C351.327 22.6739 354.456 25.7421 356.726 29.7308C359.059 33.7192 360.224 38.3215 360.224 43.5375C360.224 48.7533 359.027 53.3556 356.634 57.3443C354.304 61.3327 351.111 64.4317 347.061 66.6408C343.075 68.7883 338.593 69.8624 333.623 69.8624ZM333.623 58.6329C335.955 58.6329 338.133 58.0806 340.158 56.9761C342.246 55.81 343.903 54.0919 345.128 51.8216C346.356 49.551 346.969 46.7896 346.969 43.5375C346.969 38.6896 345.681 34.9774 343.103 32.4001C340.589 29.7613 337.489 28.4421 333.807 28.4421C330.125 28.4421 327.027 29.7613 324.51 32.4001C322.057 34.9774 320.828 38.6896 320.828 43.5375C320.828 48.3851 322.025 52.1282 324.418 54.767C326.875 57.3443 329.941 58.6329 333.623 58.6329Z" fill="white"/>
<path d="M392.321 69.8624C387.411 69.8624 382.993 68.7883 379.067 66.6408C375.138 64.4317 372.04 61.3327 369.77 57.3443C367.561 53.3556 366.457 48.7533 366.457 43.5375C366.457 38.3215 367.59 33.7192 369.862 29.7308C372.192 25.7421 375.354 22.6739 379.343 20.5262C383.33 18.3171 387.78 17.2126 392.69 17.2126C397.597 17.2126 402.047 18.3171 406.036 20.5262C410.023 22.6739 413.152 25.7421 415.425 29.7308C417.755 33.7192 418.922 38.3215 418.922 43.5375C418.922 48.7533 417.726 53.3556 415.333 57.3443C413 61.3327 409.81 64.4317 405.76 66.6408C401.77 68.7883 397.292 69.8624 392.321 69.8624ZM392.321 58.6329C394.651 58.6329 396.832 58.0806 398.857 56.9761C400.942 55.81 402.599 54.0919 403.827 51.8216C405.052 49.551 405.668 46.7896 405.668 43.5375C405.668 38.6896 404.379 34.9774 401.802 32.4001C399.285 29.7613 396.187 28.4421 392.506 28.4421C388.824 28.4421 385.723 29.7613 383.209 32.4001C380.753 34.9774 379.527 38.6896 379.527 43.5375C379.527 48.3851 380.724 52.1282 383.117 54.767C385.571 57.3443 388.64 58.6329 392.321 58.6329Z" fill="white"/>
<path d="M441.261 25.4046C442.917 23.0728 445.187 21.1398 448.072 19.6058C451.017 18.0103 454.36 17.2126 458.105 17.2126C462.46 17.2126 466.389 18.2864 469.887 20.4342C473.445 22.5819 476.238 25.65 478.263 29.6388C480.348 33.5659 481.392 38.1374 481.392 43.3535C481.392 48.5692 480.348 53.2023 478.263 57.2522C476.238 61.2407 473.445 64.3397 469.887 66.5488C466.389 68.7579 462.46 69.8624 458.105 69.8624C454.36 69.8624 451.046 69.0953 448.164 67.5613C445.339 66.027 443.038 64.0941 441.261 61.7624V93.3339H428.374V18.041H441.261V25.4046ZM468.23 43.3535C468.23 40.2852 467.585 37.6467 466.297 35.4376C465.069 33.167 463.412 31.4489 461.326 30.2831C459.301 29.117 457.092 28.5341 454.699 28.5341C452.366 28.5341 450.157 29.1478 448.072 30.3751C446.047 31.5409 444.39 33.259 443.101 35.5296C441.873 37.8 441.261 40.4693 441.261 43.5375C441.261 46.6055 441.873 49.2748 443.101 51.5454C444.39 53.8158 446.047 55.5647 448.072 56.792C450.157 57.9578 452.366 58.5409 454.699 58.5409C457.092 58.5409 459.301 57.927 461.326 56.7C463.412 55.4726 465.069 53.7238 466.297 51.4534C467.585 49.1828 468.23 46.483 468.23 43.3535Z" fill="white"/>
<path d="M512 63.2812C512 69.6355 506.848 74.7868 500.494 74.7868C494.14 74.7868 488.989 69.6355 488.989 63.2812C488.989 56.9266 494.14 51.7756 500.494 51.7756C506.848 51.7756 512 56.9266 512 63.2812Z" fill="#FF3478"/>
</g>
<defs>
<clipPath id="clip0_1_25">
<rect width="512" height="94.9213" fill="white"/>
</clipPath>
</defs>
</svg>