<?xml version="1.0" encoding="UTF-8"?>
<!-- Generator: Adobe Illustrator 23.1.1, SVG Export Plug-In . SVG Version: 6.00 Build 0)  -->
<svg version="1.1" baseProfile="tiny" xmlns="http://www.w3.org/2000/svg"  x="0px" y="0px" viewBox="0 0 737.4 360.3" xml:space="preserve">

<g id="Layer_1">
	<g>
		<g>
			<polygon fill="#80BC00" points="377.7,83.5 369.6,18.4 393.8,18.4 385.7,83.5    "/>
			<polygon fill="#80BC00" points="347.4,102.7 303.8,70.5 320.9,53.5 353,96.9    "/>
			<polygon fill="#80BC00" points="416.1,102.7 459.7,70.5 442.6,53.5 410.5,96.9    "/>
		</g>
		<g>
			<g>
				<path fill="#007CBA" d="M51.6,239.1c-10.9,0-20.7-3.4-27.8-9.6l0,0c-7.1-6.3-11.4-15.6-11.4-27.1l0,0c0-2.6,1-5.1,2.6-6.9l0,0      c1.6-1.9,4.1-3.3,6.9-3.3l0,0c2.5,0,4.6,0.8,6,2.3l0,0c1.5,1.4,2.2,3.2,2.8,4.9l0,0c1,3.4,1.1,7.2,1.8,9.3l0,0      c1.5,4.5,4,7.4,7.3,9.3l0,0c3.3,2,7.4,2.9,12.1,2.9l0,0c4.5,0,9-1.9,12.3-5l0,0c3.3-3.1,5.4-7.3,5.4-11.9l0,0      c0-3.7-1.4-6.2-4-8.7l0,0c-2.6-2.5-6.5-4.5-11-6.5l0,0c-9-4-20.2-7.5-28.1-14.9l0,0c-5.3-4.9-8.9-11.8-8.9-21l0,0      c0-9,3.9-16.8,10-22.3l0,0c6-5.5,14.2-8.7,22.9-8.7l0,0c6.9,0,14.1,1.4,20.2,4.7l0,0c6.1,3.3,11.2,8.5,13.7,15.8l0,0      c1,2.7,1.8,5.8,1.8,9l0,0c0,2.7-1.1,5.1-2.9,6.7l0,0c-1.9,1.6-4.2,2-6.6,2l0,0c-2.5,0-4.7-1.1-6.1-2.7l0,0      c-1.5-1.6-2.3-3.4-3.2-5.3l0,0c-1.7-3.8-3.3-7.6-6.5-10l0,0c-2.1-1.6-5-2.7-9.7-2.8l0,0c-3.5,0-7.2,1.5-10,3.9l0,0      c-2.8,2.5-4.5,5.6-4.5,9.2l0,0c0,3.8,1.5,6.5,4,8.9l0,0c2.6,2.4,6.5,4.4,11,6.3l0,0c9,3.8,20.3,7.1,28.3,14.5l0,0      c5.3,4.9,9,11.9,8.9,21.4l0,0c0,10.5-4.2,19.5-11,25.7l0,0C71,235.6,61.7,239.1,51.6,239.1L51.6,239.1"/>
				<g>
					<path fill="#007CBA" d="M204.4,237c-5.1,0-9.4-4.2-9.4-9.5l0,0v-34.7c0-5.9-1-11-3.3-14.5l0,0c-2.4-3.4-5.7-5.6-12.1-5.6l0,0       c-6.4,0.1-9.8,2.1-12.2,5.6l0,0c-2.4,3.4-3.4,8.6-3.4,14.5l0,0v34.8c-0.1,5.3-4.4,9.5-9.6,9.5l0,0c-5.1,0-9.5-4.2-9.6-9.5l0,0       v-34.7c0-5.6-0.9-11-3.1-14.5l0,0c-2.2-3.5-5.4-5.6-11.5-5.7l0,0c-6.5,0.1-10.1,2-12.6,5.4l0,0c-2.5,3.4-3.6,8.5-3.6,14.6l0,0       v34.8c-0.1,5.3-4.4,9.5-9.6,9.5l0,0c-5.2,0-9.5-4.2-9.6-9.5l0,0v-63.6c0-5,4.2-8.9,9.1-8.9l0,0c4.1,0,7.8,2.9,8.8,6.9l0,0       c5.4-4.7,11.4-6.9,19.4-6.9l0,0c8.3,0,18.1,3.3,23.5,10.6l0,0c6.2-7.5,15-10.7,24.7-10.6l0,0c10.5,0,18.9,3.4,24.6,9.5l0,0       c5.7,6.1,8.5,14.7,8.5,24.8l0,0v38.3C213.9,232.8,209.6,237,204.4,237L204.4,237"/>
				</g>
				<g>
					<path fill="#007CBA" d="M403.5,175H391v52.5c0,5.2-4.2,9.5-9.4,9.5l0,0c-5.3-0.1-9.4-4.4-9.6-9.5l0,0v-86.2       c0-5.3,4.4-9.5,9.6-9.6l0,0c2.7,0,5.1,1.1,6.8,2.9l0,0c1.6,1.7,2.6,4.2,2.6,6.7l0,0v15.7h12.5c5.1,0,8.9,4.2,8.9,9.1l0,0       C412.3,170.7,408.6,175,403.5,175L403.5,175"/>
				</g>
				<g>
					<path fill="#007CBA" d="M450.7,239.1c-10.9,0-20.7-3.4-27.8-9.6l0,0c-7.1-6.3-11.4-15.6-11.4-27.1l0,0c0-2.6,1-5.1,2.6-6.9l0,0       c1.6-1.9,4.1-3.3,6.9-3.3l0,0c2.5,0,4.6,0.8,6,2.3l0,0c1.5,1.4,2.2,3.2,2.8,4.9l0,0c1,3.4,1.1,7.2,1.8,9.3l0,0       c1.5,4.5,4,7.4,7.3,9.3l0,0c3.3,2,7.4,2.9,12.1,2.9l0,0c4.5,0,9-1.9,12.3-5l0,0c3.3-3.1,5.4-7.3,5.4-11.9l0,0       c0-3.7-1.4-6.2-4-8.7l0,0c-2.6-2.5-6.5-4.5-11-6.5l0,0c-9-4-20.2-7.5-28.1-14.9l0,0c-5.3-4.9-8.9-11.8-8.9-21l0,0       c0-9,3.9-16.8,10-22.3l0,0c6-5.5,14.2-8.7,23-8.7l0,0c6.9,0,14.1,1.4,20.1,4.7l0,0c6,3.3,11.1,8.5,13.7,15.8l0,0       c1,2.7,1.8,5.8,1.8,9l0,0c0,2.8-1.1,5.2-2.9,6.7l0,0c-1.9,1.6-4.2,2-6.6,2l0,0c-2.5,0-4.7-1.1-6.1-2.7l0,0       c-1.5-1.6-2.3-3.4-3.2-5.3l0,0c-1.7-3.8-3.3-7.6-6.5-10l0,0c-2.1-1.6-5-2.7-9.7-2.8l0,0c-3.5,0-7.2,1.5-10,3.9l0,0       c-2.8,2.5-4.5,5.6-4.5,9.2l0,0c0,3.8,1.5,6.5,4,8.9l0,0c2.6,2.4,6.5,4.4,11,6.3l0,0c9,3.8,20.3,7.1,28.2,14.5l0,0       c5.3,4.9,9,11.9,8.9,21.4l0,0c0,10.5-4.2,19.5-11,25.7l0,0C470.1,235.6,460.8,239.1,450.7,239.1L450.7,239.1"/>
				</g>
				<g>
					<path fill="#007CBA" d="M537,175h-12.5v52.5c0,5.2-4.2,9.5-9.4,9.5l0,0c-5.3-0.1-9.4-4.4-9.6-9.5l0,0V175h-7.5       c-5,0-9.1-4.1-9.1-9.1l0,0c0-5.1,4.2-9.1,9.1-9.1l0,0h7.5v-15.7c0-5.3,4.4-9.5,9.6-9.6l0,0c2.7,0,5.1,1.1,6.8,2.9l0,0       c1.6,1.7,2.6,4.2,2.6,6.7l0,0v15.7H537c5.1,0,8.9,4.2,8.9,9.1l0,0C546,170.7,542.1,175,537,175L537,175"/>
				</g>
				<g>
					<path fill="#007CBA" d="M676.6,239c-8.5,0-16.3-2.4-23.2-6.9l0,0v27.5c0,5.3-4.4,9.5-9.6,9.5l0,0c-5.2,0-9.6-4.2-9.6-9.5l0,0       v-62.8c0-11.8,4.7-22.2,12.3-29.8l0,0c7.7-7.5,18.2-12.2,29.9-12.2l0,0c11.7,0,22.1,4.6,29.7,12.2l0,0       c7.6,7.5,12.3,18.1,12.3,29.8l0,0c0,11.7-4.7,22.2-12.2,29.8l0,0C698.8,234.3,688.2,239,676.6,239L676.6,239 M676.6,172.6       c-13.2,0-23.2,11.2-23.2,24.3l0,0c0,13.1,10.1,24.3,23.2,24.3l0,0c13.2,0,23.2-11.2,23.2-24.3l0,0       C699.8,183.8,689.7,172.6,676.6,172.6L676.6,172.6"/>
				</g>
				<g>
					<path fill="#007CBA" d="M261.7,239c-11.7,0-22.1-4.7-29.7-12.3l0,0c-7.6-7.6-12.3-18.1-12.3-29.8l0,0       c0-11.8,4.7-22.2,12.3-29.8l0,0c7.6-7.5,18.1-12.2,29.7-12.2l0,0c11.7,0,22.2,4.6,29.9,12.2l0,0c7.7,7.5,12.3,18.1,12.3,29.8       l0,0v31.1c0,5.2-4.2,9.5-9.6,9.5l0,0c-3.9,0-7.4-2.5-8.8-5.9l0,0C278.5,236.4,270.5,239,261.7,239L261.7,239L261.7,239       L261.7,239z M261.7,221.2c13.2,0,23.2-11.2,23.2-24.3l0,0c0-13.1-10.1-24.3-23.2-24.3l0,0c-13.2,0-23.2,11.1-23.2,24.3l0,0       C238.5,210,248.5,221.1,261.7,221.2L261.7,221.2z"/>
				</g>
				<g>
					<path fill="#007CBA" d="M313,227.5v-33.7c0-10.8,2.2-20.4,7.7-27.5l0,0c5.5-7.1,14.2-11.3,26.2-11.3l0,0       c0.5,0,13.7,0.1,13.7,0.1l0,0h2.5v15.1v2.5h-2.5c0,0-11.9,0-12.2,0l0,0c-6.6,0.1-10.3,2.3-12.7,5.9l0,0       c-2.5,3.6-3.5,9.1-3.5,15.2l0,0v33.7c-0.1,5.3-4.4,9.5-9.6,9.5l0,0C317.2,237,313,232.8,313,227.5L313,227.5z"/>
				</g>
			</g>
		</g>
		<path fill="#007CBA" d="M277.5,269.5L277.5,269.5L277.5,269.5L277.5,269.5L277.5,269.5z"/>
		<path fill="#007CBA" d="M150.6,281.6c0-4.9,4.8-8.7,9.5-8.7c11.5,0,8.7,11.6,14.4,11.6c2.3,0,4-1.1,4-3.6c0-1.6-0.4-3.2-0.9-4.6    c-2.6-7.6-10.3-10.6-17.7-10.6c-9.1,0-17.2,6.7-17.2,16.1c0,19.5,29.3,15.4,29.3,28.8c0,6-5.5,10.9-11.3,10.9    c-5.6,0-10.4-2.2-12.3-7.8c-0.9-2.9-0.2-8.3-4.7-8.3c-2.3,0-4,2.2-4,4.4c0,12.2,8.9,19.3,20.7,19.3c10.8,0,19.6-7.4,19.6-18.6    C180,290.3,150.6,295.4,150.6,281.6z"/>
		<path fill="#007CBA" d="M227.9,307.9c0-0.1,0-0.1,0-0.2c0-0.6,0-1.1,0-1.7c0-12-9.5-21.7-21.5-21.7c-12.5,0-21.7,10-21.7,22.3    c0,11.9,9.5,22.4,21.6,22.4c7.5,0,15.6-4.3,19-11.3c0.2-0.3,0.2-0.7,0.2-1.1c0-2-1.7-3.7-3.8-3.7c-1.6,0-2.5,0.9-3.4,2    c-3.2,4.2-6.5,6.7-11.9,6.7c-6.9,0-12.3-4.9-13.9-11.5h33.3C226.4,310,227.8,309.8,227.9,307.9z M192.6,304    c0.3-7,6.7-12.4,13.7-12.4c6.9,0,13.2,5.4,13.7,12.4H192.6z"/>
		<path fill="#007CBA" d="M589.4,307.9c0-0.1,0-0.1,0-0.2c0-0.6,0-1.1,0-1.7c0-12-9.6-21.7-21.5-21.7c-12.5,0-21.7,10-21.7,22.3    c0,11.9,9.4,22.4,21.6,22.4c7.5,0,15.7-4.3,19-11.3c0.2-0.3,0.2-0.7,0.2-1.1c0-2-1.7-3.7-3.8-3.7c-1.6,0-2.5,0.9-3.4,2    c-3.1,4.2-6.5,6.7-11.9,6.7c-6.9,0-12.3-4.9-13.9-11.5h33.3C588,310,589.4,309.8,589.4,307.9z M554.2,304    c0.3-7,6.7-12.4,13.7-12.4c6.9,0,13.2,5.4,13.7,12.4H554.2z"/>
		<path fill="#007CBA" d="M238.7,267.3c-2.2,0-4,1.9-4,4v52.6c0,2.1,1.8,4,4,4c2.1,0,4-1.9,4-4v-52.6    C242.7,269.1,240.9,267.3,238.7,267.3z"/>
		<path fill="#007CBA" d="M271.5,277.3c0.7-0.7,1.1-1.6,1.1-2.6c0-2-1.6-3.6-3.7-3.6c-1.5,0-3.2,0-4.6,0.3s-2.9,1.2-4.1,2    c-3.6,2.3-5.1,5.7-5.1,9.9v2.1h-2.8c-2,0-3.8,1.6-3.8,3.6s1.6,3.8,3.8,3.8h2.7v31c0,2.2,1.9,4,4.1,4s4-1.8,4-4v-31h5.7    c2,0,3.8-1.8,3.8-3.8s-1.7-3.6-3.8-3.6l-2.6-0.1c-1,0-2,0.1-3.1,0.1v-2.1C263.3,276.2,268.9,280,271.5,277.3z"/>
		<path fill="#007CBA" d="M311.2,281.6c0-4.9,4.8-8.7,9.5-8.7c11.5,0,8.7,11.6,14.4,11.6c2.3,0,4-1.1,4-3.6c0-1.6-0.4-3.2-0.9-4.6    c-2.6-7.6-10.3-10.6-17.8-10.6c-9.1,0-17.2,6.7-17.2,16.1c0,19.5,29.3,15.4,29.3,28.8c0,6-5.5,10.9-11.3,10.9    c-5.6,0-10.4-2.2-12.3-7.8c-0.9-2.9-0.2-8.3-4.7-8.3c-2.3,0-4,2.2-4,4.4c0,12.2,8.9,19.3,20.7,19.3c10.8,0,19.6-7.4,19.6-18.6    C340.6,290.3,311.2,295.4,311.2,281.6z"/>
		<path fill="#007CBA" d="M364.8,285.4h-5.7v-10.2c0-2.2-1.6-4-3.9-4c-2.1,0-4,1.8-4,4v10.2h-5.6c-2,0-3.8,1.6-3.8,3.8    c0,2,1.7,3.8,3.8,3.8h5.6v31c0,2,1.9,4,4,4c2.1,0,3.9-1.8,3.9-4v-31h5.7c2,0,3.7-1.8,3.7-3.8C368.4,287.1,366.9,285.4,364.8,285.4    z"/>
		<path fill="#007CBA" d="M392.2,284.3c-12.3,0-22.9,9.5-22.9,22c0,12.7,10.4,22.6,22.9,22.6c12.4,0,22.9-9.9,22.9-22.5    C415,293.8,404.6,284.3,392.2,284.3z M392.2,321.6c-8.3,0-14.9-6.8-14.9-15c0-8.3,6.5-15,14.9-15c8.3,0,15,6.6,15,15    C407.2,314.7,400.6,321.6,392.2,321.6z"/>
		<path fill="#007CBA" d="M438.6,284.3c-12.8,0-17.7,8.7-17.7,20.5v19c0,2.2,1.8,4,4,4c2.1,0,4-1.8,4-4v-19    c0-7.3,2.4-13.2,10.5-13.2c2,0,3.6-1.6,3.6-3.6C443.1,285.2,441.2,284.3,438.6,284.3z"/>
		<path fill="#007CBA" d="M484.1,285.4c-2.1,0-3.9,1.8-3.9,4v2c-3.4-5.1-8.7-7.1-14.5-7.1c-12.9,0-22.6,9.5-22.6,22.6    c0,12.7,9.8,22.1,22.6,22.1c6.1,0,11.3-2.3,14.5-7.7v2.5c0,2.2,1.8,4,3.9,4c2.2,0,4-1.8,4-4v-34.4    C488.1,287.2,486.3,285.4,484.1,285.4z M465.5,321.6c-8.3,0-14.5-6.9-14.5-14.9c0-8.3,6.1-15.2,14.5-15.2    c8.7,0,14.6,6.5,14.6,15.2C480.2,315,473.9,321.6,465.5,321.6z"/>
		<path fill="#007CBA" d="M517.6,284.3c-12.4,0-22.7,9.7-22.7,22.3S505,329,517.5,329c5.7,0,10.6-2.3,14.8-6    c-0.2,9.6-5.5,14.2-14.9,14.2c-9.6,0-11.4-7.4-14.9-7.4c-2.1,0-3.9,1.8-3.9,3.9c0,1.1,0.5,2,1.2,2.7c4,5.6,10.9,7.9,17.5,7.9    c14.1,0,23-8.1,23-22.4v-15.4C540.3,294.1,530,284.3,517.6,284.3z M517.4,321.6c-8.2,0-14.5-6.9-14.5-15c0-8.3,6.3-15,14.6-15    c8.7,0,14.8,6.5,14.8,15.1C532.3,314.8,525.6,321.6,517.4,321.6z"/>
	</g>
	<path fill="#007CBA" d="M615.8,166.8c-7.8-7.5-18.6-11.9-30.2-11.9c-23.1,0-42.9,17.8-42.9,41.4c0,23.8,19.5,42.4,42.9,42.5   c23.3,0,42.9-18.5,42.9-42.2C628.5,184.7,623.6,174.2,615.8,166.8z M616.8,201.7l-14.4,11.5c-0.8,0.6-1.1,1.7-0.7,2.7l0.8,1.8   c0.2,0.3-0.1,0.7-0.4,0.8l-14.2,2.8c-0.8,0.1-1.3,0.8-1.3,1.6l0.1,3.1c0,0.7-0.5,1.2-1.2,1.2c-0.7,0-1.2-0.6-1.2-1.2l0.1-3.1   c0-0.8-0.5-1.5-1.3-1.6l-14.2-2.8c-0.4-0.1-0.6-0.5-0.4-0.8l0.8-1.8c0.4-0.9,0.1-2-0.7-2.7l-14.4-11.5c-0.3-0.3-0.3-0.8,0.1-1   l2.2-1.1c0.8-0.4,1.2-1.4,1-2.2l-2.4-8.5c-0.1-0.4,0.3-0.8,0.7-0.7l7.4,1.6c0.9,0.2,1.8-0.3,2.1-1.2l0.9-2.6c0.1-0.4,0.7-0.5,1-0.2   l9.7,10.9l-3.8-20.2c-0.1-0.5,0.4-0.9,0.9-0.6l3.3,1.7c1,0.5,2.2,0.1,2.7-0.8l4.9-9.1c0.2-0.4,0.8-0.4,1,0l4.9,9.1   c0.5,1,1.7,1.3,2.7,0.8l3.3-1.7c0.4-0.2,0.9,0.2,0.9,0.6l-3.8,20.2l9.7-10.9c0.3-0.3,0.9-0.2,1,0.2l0.9,2.6   c0.3,0.9,1.2,1.4,2.1,1.2l7.4-1.6c0.4-0.1,0.8,0.3,0.7,0.7l-2.4,8.5c-0.3,0.9,0.2,1.8,1,2.2l2.2,1.1   C617.1,200.9,617.1,201.4,616.8,201.7z"/>
	<g>
		<path fill="#007CBA" d="M706.5,155.3c0-4.4,3.5-7.9,7.9-7.9c4.4,0,7.9,3.5,7.9,7.9c0,4.4-3.5,7.9-7.9,7.9    C710,163.2,706.5,159.7,706.5,155.3z M707.5,155.3c0,3.8,3.1,6.8,6.8,6.8c3.8,0,6.8-3.1,6.8-6.8c0-3.8-3.1-6.8-6.8-6.8    C710.6,148.5,707.5,151.5,707.5,155.3z M714.2,156.3h-1.6v3.6h-1.2v-9h3.7c1.6,0,2.9,1.1,2.9,2.8c0,2-1.8,2.7-2.3,2.7l2.4,3.6    h-1.5L714.2,156.3z M712.5,151.8v3.3h2.5c0.9,0,1.6-0.7,1.6-1.6c0-1-0.7-1.7-1.6-1.7H712.5z"/>
	</g>
</g>
</svg>