<?xml version="1.0" ?>
<svg xmlns="http://www.w3.org/2000/svg" viewBox="0 0 269 269">
	<path class="st1" d="M 199.358,0.1 L 197.158,5.6 L 181.958,43.2 C 181.758,43.1 181.558,42.9 181.358,42.7 C 175.858,38.7 169.458,35.4 162.658,33.0 L 176.058,0.0 L 199.358,0.0 L 199.358,0.1 M 102.958,239.1 L 90.858,269.0 L 67.558,269.0 L 69.758,263.5 L 84.258,227.6 C 89.658,232.2 95.958,236.1 102.958,239.1 L 102.958,239.1" fill="#00b073"/>
	<path class="st0" d="M 71.358,94.3 C 71.358,60.2 103.058,39.9 133.558,39.9 C 168.158,39.9 192.958,60.7 195.358,91.6 C 195.558,93.9 195.558,98.4 195.558,98.4 L 166.658,98.4 C 166.658,98.4 166.658,95.0 166.158,92.2 C 166.158,92.2 165.858,90.7 165.858,90.6 C 165.758,90.2 165.658,89.7 165.558,89.3 C 165.458,88.8 165.358,88.4 165.158,87.9 C 165.058,87.4 164.858,87.0 164.758,86.6 C 162.958,81.7 159.858,77.6 155.658,74.5 C 155.258,74.2 154.858,73.9 154.458,73.7 C 154.058,73.5 153.758,73.2 153.358,73.0 C 153.058,72.8 152.758,72.6 152.458,72.5 C 152.258,72.4 151.958,72.2 151.758,72.1 C 151.158,71.8 150.458,71.5 149.858,71.2 C 149.258,70.9 148.558,70.6 147.858,70.4 C 144.858,69.3 141.558,68.5 137.958,68.2 C 136.458,68.0 134.858,68.0 133.158,68.0 C 116.958,68.0 100.258,77.8 100.258,94.2 C 100.258,98.2 100.258,109.6 118.558,116.3 L 108.158,142.1 C 83.758,133.0 71.358,117.0 71.358,94.3 L 71.358,94.3 M 200.958,184.5 C 197.358,214.6 171.558,234.9 136.858,234.9 C 119.458,234.9 103.058,229.2 90.658,218.8 C 78.758,208.9 71.058,195.0 69.958,181.4 C 69.658,178.0 69.958,174.4 69.958,174.4 L 98.258,174.4 C 98.258,174.4 98.358,176.7 98.758,179.0 C 99.158,180.9 99.758,183.2 100.158,184.2 C 100.258,184.4 100.358,184.6 100.358,184.9 C 100.658,185.8 101.058,186.7 101.558,187.6 C 101.658,187.8 101.758,188.0 101.858,188.3 C 101.958,188.5 102.058,188.7 102.258,189.0 C 102.758,189.8 103.258,190.7 103.858,191.5 C 104.058,191.9 104.358,192.2 104.658,192.6 C 106.558,195.1 108.958,197.5 111.658,199.5 C 111.858,199.7 112.058,199.8 112.358,200.0 C 112.558,200.2 112.758,200.3 113.058,200.5 C 116.558,202.9 120.658,204.8 125.258,206.1 C 128.858,207.1 132.658,207.6 136.758,207.6 C 152.058,207.6 169.458,200.9 172.358,182.0 C 173.758,163.8 158.758,155.7 146.958,152.1 L 157.358,126.3 C 171.558,130.9 182.558,137.6 189.958,146.0 C 199.158,156.4 202.858,169.4 200.958,184.5 L 200.958,184.5"/>
	<path class="st1" d="M 157.058,105.8 L 154.658,111.6 L 135.658,158.6 L 122.658,190.8 C 122.058,190.5 121.558,190.1 121.058,189.8 C 121.058,189.8 120.758,189.6 120.658,189.6 L 120.058,189.1 C 108.458,180.9 110.158,165.8 110.658,162.9 C 110.658,162.6 110.758,162.3 110.858,162.0 L 114.058,154.1 L 132.958,107.3 L 144.358,79.2 L 146.558,80.2 C 157.958,86.2 157.058,105.8 157.058,105.8 L 157.058,105.8" fill="#00b073"/>
</svg>