<?xml version="1.0" ?>
<svg xmlns="http://www.w3.org/2000/svg"  id="Layer_1" data-name="Layer 1" viewBox="0 0 1399.17 266.161">
	<defs>
		<clipPath id="clip-path">
			<path id="Path_121" data-name="Path 121" d="M89.019,0A156.124,156.124,0,0,0,18.683,16.678a8.426,8.426,0,0,0,3.8,15.977,8.326,8.326,0,0,0,3.8-.9A139.621,139.621,0,0,1,213.813,218.708a8.451,8.451,0,1,0,15,7.5A156.6,156.6,0,0,0,89.019,0" transform="translate(-13.995 0)" fill="none"/>
		</clipPath>
		<clipPath id="clip-path-2">
			<path id="Path_122" data-name="Path 122" d="M72.647,43.5A48.332,48.332,0,1,0,121,91.841,48.332,48.332,0,0,0,72.647,43.5m0,79.787A31.455,31.455,0,1,1,104.1,91.832a31.455,31.455,0,0,1-31.455,31.455" transform="translate(-24.34 -43.5)" fill="none"/>
		</clipPath>
		<clipPath id="clip-path-3">
			<path id="Path_123" data-name="Path 123" d="M94.48,29A84.613,84.613,0,0,0,13.693,139.017a8.526,8.526,0,0,0,8.126,6,9.175,9.175,0,0,0,2.5-.4,8.576,8.576,0,0,0,5.6-10.7,67.327,67.327,0,1,1,44.307,44.457,8.077,8.077,0,0,0-2.5-.4,8.526,8.526,0,0,0-2.5,16.678A84.663,84.663,0,1,0,94.48,29" transform="translate(-9.789 -29)" fill="none"/>
		</clipPath>
		<clipPath id="clip-path-4">
			<path id="Path_124" data-name="Path 124" d="M109.171,14.27A121.018,121.018,0,0,0,.929,80.58,8.5,8.5,0,0,0,4.655,92.032a8.376,8.376,0,0,0,3.876.95,8.6,8.6,0,0,0,7.626-4.651,104.366,104.366,0,1,1,140.621,140.3,8.532,8.532,0,1,0,7.8,15.177A121.444,121.444,0,0,0,109.171,14.27" transform="translate(0.003 -14.27)" fill="none"/>
		</clipPath>
	</defs>
	<path id="Path_120" data-name="Path 120" d="M51.611,57.61a13.252,13.252,0,1,0,9.351,3.876,13.252,13.252,0,0,0-9.351-3.876" transform="translate(57.537 86.437)" fill="#f06d65"/>
	<g id="Group_2210" data-name="Group 2210" transform="translate(34.999 0)" clip-path="url(#clip-path)">
		<rect id="Rectangle_36" data-name="Rectangle 36" width="453.994" height="223.634" transform="translate(-130.682 -91.214)" fill="#f06d65"/>
		<rect id="Rectangle_37" data-name="Rectangle 37" width="453.994" height="230.36" transform="translate(-130.682 132.42)" fill="#f06d65"/>
	</g>
	<g id="Group_2211" data-name="Group 2211" transform="translate(60.866 108.767)" clip-path="url(#clip-path-2)">
		<rect id="Rectangle_38" data-name="Rectangle 38" width="453.994" height="223.634" transform="translate(-156.549 -199.981)" fill="#f06d65"/>
		<rect id="Rectangle_39" data-name="Rectangle 39" width="453.994" height="230.36" transform="translate(-156.549 23.654)" fill="#f06d65"/>
	</g>
	<g id="Group_2212" data-name="Group 2212" transform="translate(24.481 72.511)" clip-path="url(#clip-path-3)">
		<rect id="Rectangle_40" data-name="Rectangle 40" width="453.994" height="223.634" transform="translate(-120.165 -163.725)" fill="#f06d65"/>
		<rect id="Rectangle_41" data-name="Rectangle 41" width="453.994" height="230.36" transform="translate(-120.165 59.909)" fill="#f06d65"/>
	</g>
	<g id="Group_2213" data-name="Group 2213" transform="translate(0 35.68)" clip-path="url(#clip-path-4)">
		<rect id="Rectangle_42" data-name="Rectangle 42" width="453.994" height="223.634" transform="translate(-95.683 -126.894)" fill="#f06d65"/>
		<rect id="Rectangle_43" data-name="Rectangle 43" width="453.994" height="230.36" transform="translate(-95.683 96.74)" fill="#f06d65"/>
	</g>
	<path id="Path_125" data-name="Path 125" d="M181.482,25.9a89.814,89.814,0,0,1,42.507,10.152V62.309a69.536,69.536,0,0,0-40.506-11.652c-14.277.2-21.4,4.151-21.4,12.2,0,22.7,71.861,14.277,71.861,60.984,0,29.429-23.629,38.631-51.233,38.631a100.616,100.616,0,0,1-48.582-11.8V123.843a84.314,84.314,0,0,0,46.532,13.877c15.177,0,24.579-3.2,24.579-12.5,0-24.6-71.836-15.4-71.836-61.909,0-25.329,22.128-37.356,48.007-37.356" transform="translate(200.157 38.856)" fill="#595d5e"/>
	<path id="Path_126" data-name="Path 126" d="M321.692,26.95V158.27H293.562V77.408l-34.705,52.733h-16.3L207.849,77.233V158.27H179.72V26.95h26.054l45.032,68.285L295.638,26.95Z" transform="translate(269.655 40.435)" fill="#595d5e"/>
	<path id="Path_127" data-name="Path 127" d="M288.907,110.363h42.507l-18.5-47.082a57.8,57.8,0,0,1-2.825-10.3,43.355,43.355,0,0,1-2.976,10.3ZM241.4,158.22,294.933,27h30.48l53.458,131.32H349.717l-9.576-24.579H280.131L270.4,158.22Z" transform="translate(362.199 40.51)" fill="#595d5e"/>
	<path id="Path_128" data-name="Path 128" d="M329.319,88.784h27.2c11.8,0,22.128-5.226,22.128-18.553s-10.327-18.578-22.128-18.578h-27.2ZM301.19,158.22V27h54.033c25.5,0,52.133,9.576,52.133,42.757,0,22.5-12.752,33.955-28.7,39.031l39.231,49.533H385.378l-35.43-46.057H329.319V158.22Z" transform="translate(451.906 40.51)" fill="#595d5e"/>
	<path id="Path_129" data-name="Path 129" d="M456.677,26.95V52.3H416.37V158.27H388.416V52.3H348.06V26.95Z" transform="translate(522.229 40.435)" fill="#595d5e"/>
	<path id="Path_130" data-name="Path 130" d="M424.814,26.95V132.941h63.01V158.27H396.66V26.95Z" transform="translate(595.148 40.435)" fill="#595d5e"/>
	<rect id="Rectangle_44" data-name="Rectangle 44" width="28.154" height="131.32" transform="translate(1101.55 67.41)" fill="#595d5e"/>
	<path id="Path_131" data-name="Path 131" d="M461,158.22V27h26.454l61.059,85.613c-.35-5.451-.55-12-.55-18V27h28.129V158.22H549.714L488.5,72.457c.4,5.476.575,12.027.575,18.028V158.22Z" transform="translate(691.683 40.51)" fill="#595d5e"/>
	<path id="Path_132" data-name="Path 132" d="M585.076,25.9a100.445,100.445,0,0,1,40.335,8.453l0,26.8a67.512,67.512,0,0,0-36.581-10c-23.453,0-46.507,12.377-46.507,43.132,0,34.88,25.7,43.707,45.007,43.707a40.129,40.129,0,0,0,14.427-2.5V88.66h26.829v65.01a110.49,110.49,0,0,1-42.781,8.8c-36.756,0-72.211-20-72.211-68.285,0-47.632,35.455-68.285,71.461-68.285" transform="translate(770.588 38.86)" fill="#595d5e"/>
</svg>
