<?xml version="1.0" ?>
<svg xmlns="http://www.w3.org/2000/svg" role="img" viewBox="54.61 54.61 488.28 125.28">
	<path fill="#0096FF" fill-rule="evenodd" d="M 179.505,64.0 L 64.0,130.686 L 64.0,157.361 L 87.1003,170.698 L 202.605,104.012 L 202.605,77.3365 L 179.505,64.0" clip-rule="evenodd"/>
	<path fill="#25C764" fill-rule="evenodd" d="M 87.1011,64.0 L 64.0,77.3365 L 64.0,104.012 L 84.2132,115.681 L 130.415,89.0073 L 87.1011,64.0 M 136.191,145.691 L 179.505,170.698 L 202.605,157.36 L 202.605,130.687 L 182.392,119.016 L 136.191,145.691 L 136.191,145.691" clip-rule="evenodd"/>
	<path fill="#212934" fill-rule="evenodd" d="M 250.047,94.5353 C 250.047,96.972 252.305,98.3256 256.638,98.4166 C 265.393,98.6879 275.954,100.492 276.043,112.768 C 276.134,119.989 270.718,127.752 256.547,127.752 C 249.958,127.752 243.188,126.489 235.605,120.169 L 241.202,110.963 C 246.709,115.476 252.034,116.468 256.727,116.559 C 260.519,116.649 263.497,115.115 263.408,112.768 C 263.408,110.692 261.872,108.978 255.824,108.798 C 247.521,108.435 237.14,105.006 237.14,94.5353 C 237.14,84.4263 246.709,80.1827 256.367,80.1827 C 263.227,80.1827 268.733,81.8979 273.426,85.9595 L 267.017,94.0836 C 263.677,91.7363 260.519,90.8352 256.456,90.8352 C 252.214,90.8352 250.047,92.3684 250.047,94.5353 L 250.047,94.5353 M 319.015,88.7584 C 322.987,82.7102 327.228,80.3629 333.817,80.3629 C 343.115,80.3629 351.599,85.0583 351.599,101.666 L 351.599,126.037 L 338.51,126.037 L 338.51,101.937 C 338.51,96.3405 336.977,92.6396 331.741,92.6396 C 326.596,92.6396 323.527,97.0612 323.527,102.117 L 323.527,126.037 L 310.71,126.037 L 310.71,102.117 C 310.71,96.2495 308.364,92.3683 303.037,92.3683 C 297.892,92.3683 295.004,97.153 295.004,102.207 L 295.004,126.037 L 282.006,126.037 L 282.006,81.4468 L 295.004,81.4468 L 295.004,85.4629 C 297.9,81.4891 302.521,80.4539 306.016,80.4539 C 310.89,80.4539 316.126,82.2585 319.015,88.7584 L 319.015,88.7584 M 425.45,81.5377 L 425.45,86.3575 C 428.427,82.2049 432.491,80.4538 437.455,80.4538 C 441.699,80.4538 445.219,81.7181 448.377,84.5155 L 442.96,94.8048 C 440.795,93.2716 438.539,92.5485 435.831,92.5485 C 430.234,92.5485 425.45,96.16 425.45,102.839 L 425.45,126.037 L 412.452,126.037 L 412.452,81.5377 L 425.45,81.5377 L 425.45,81.5377 M 471.038,109.338 C 471.038,114.031 473.655,115.296 476.092,115.296 C 477.628,115.296 480.064,114.935 481.508,114.212 L 484.488,125.045 C 481.239,126.309 478.62,126.849 475.099,127.029 C 465.442,127.481 458.131,123.24 458.131,109.338 L 458.131,92.5483 L 450.188,92.5483 L 450.188,81.7178 L 458.131,81.7178 L 458.131,76.7599 L 471.129,69.2608 L 471.129,81.7178 L 482.412,81.7178 L 482.412,92.5483 L 471.038,92.5483 L 471.038,109.338 L 471.038,109.338 M 368.85,103.742 C 368.85,111.143 374.084,115.476 380.584,115.476 C 387.894,115.476 392.408,109.79 392.408,104.194 C 392.408,97.7847 388.346,91.9169 380.584,91.9169 C 374.084,91.9169 368.85,96.3401 368.85,103.742 M 392.408,86.5919 L 392.408,81.4464 L 405.045,81.4464 L 405.045,126.037 L 392.408,126.037 L 392.408,120.672 C 389.364,125.181 383.124,126.942 378.868,127.029 C 365.51,127.12 355.852,118.455 355.852,103.742 C 355.852,88.9391 366.051,80.2739 379.229,80.4543 C 384.825,80.4543 390.062,82.6196 392.408,86.5919 L 392.408,86.5919 M 518.001,103.239 L 533.955,126.037 L 518.431,126.037 L 510.251,114.347 L 502.094,126.037 L 486.479,126.037 L 502.455,103.206 L 487.292,81.5376 L 502.815,81.5376 L 510.217,92.1154 L 517.62,81.5376 L 533.143,81.5376 L 518.001,103.239 L 518.001,103.239 M 254.727,141.286 L 250.146,147.054 L 249.552,147.054 L 245.122,141.245 L 245.122,151.612 L 241.813,151.612 L 241.813,136.77 L 245.608,136.77 L 249.935,142.474 L 254.282,136.77 L 258.034,136.77 L 258.034,151.612 L 254.727,151.612 L 254.727,141.286 L 254.727,141.286 M 274.424,146.12 L 276.988,140.1 L 279.533,146.12 L 274.424,146.12 L 274.424,146.12 M 273.171,149.046 L 280.784,149.046 L 281.865,151.592 L 285.449,151.592 L 278.791,136.748 L 275.187,136.748 L 268.529,151.592 L 272.09,151.592 L 273.171,149.046 M 308.197,136.832 L 302.175,143.959 L 308.728,151.4 L 308.728,151.592 L 304.74,151.592 L 299.248,145.252 L 299.248,151.592 L 295.94,151.592 L 295.94,136.748 L 299.248,136.748 L 299.248,142.878 L 304.19,136.748 L 308.197,136.748 L 308.197,136.832 L 308.197,136.832 M 319.132,151.592 L 330.435,151.592 L 330.435,148.538 L 322.377,148.538 L 322.377,145.549 L 329.693,145.549 L 329.693,142.643 L 322.377,142.643 L 322.377,139.781 L 330.139,139.781 L 330.139,136.748 L 319.132,136.748 L 319.132,151.592 M 355.905,136.748 L 359.191,136.748 L 359.191,151.592 L 355.905,151.592 L 355.905,136.748 M 370.122,139.697 L 374.639,139.697 L 374.639,151.592 L 377.925,151.592 L 377.925,139.697 L 382.442,139.697 L 382.442,136.748 L 370.122,136.748 L 370.122,139.697 M 415.524,140.332 C 414.697,139.462 413.254,139.082 412.088,139.082 C 410.626,139.082 409.437,139.697 409.437,140.714 C 409.437,142.071 410.731,142.324 412.639,142.495 C 415.565,142.75 418.343,143.872 418.343,147.308 C 418.343,150.617 415.289,152.058 412.088,152.079 C 409.522,152.101 406.851,151.104 405.599,149.026 L 407.573,146.969 C 408.716,148.431 410.603,149.069 412.109,149.069 C 413.869,149.069 415.078,148.367 415.078,147.308 C 415.098,146.056 414.103,145.485 412.088,145.316 C 408.951,145.018 406.152,144.235 406.193,140.735 C 406.215,137.788 409.014,136.218 412.067,136.218 C 414.358,136.218 416.075,136.728 417.601,138.508 L 415.524,140.332 L 415.524,140.332 M 432.819,136.748 L 429.531,136.748 L 429.531,151.592 L 432.819,151.592 L 432.819,136.748 M 457.957,141.286 L 453.376,147.054 L 452.782,147.054 L 448.351,141.245 L 448.351,151.612 L 445.043,151.612 L 445.043,136.77 L 448.837,136.77 L 453.164,142.474 L 457.51,136.77 L 461.263,136.77 L 461.263,151.612 L 457.957,151.612 L 457.957,141.286 L 457.957,141.286 M 480.493,144.36 L 476.804,144.36 L 476.804,139.887 L 480.493,139.887 C 482.064,139.887 482.87,140.947 482.87,142.135 C 482.87,143.322 482.084,144.36 480.493,144.36 L 480.493,144.36 M 476.804,151.592 L 476.804,147.393 L 480.493,147.393 C 484.268,147.351 486.176,145.038 486.176,142.071 C 486.176,139.209 484.289,136.748 480.493,136.748 L 473.496,136.748 L 473.496,151.592 L 476.804,151.592 L 476.804,151.592 M 500.547,136.748 L 500.547,148.559 L 507.968,148.559 L 507.968,151.592 L 497.239,151.592 L 497.239,136.748 L 500.547,136.748 M 518.882,151.592 L 530.185,151.592 L 530.185,148.538 L 522.128,148.538 L 522.128,145.549 L 529.443,145.549 L 529.443,142.643 L 522.128,142.643 L 522.128,139.781 L 529.889,139.781 L 529.889,136.748 L 518.882,136.748 L 518.882,151.592" clip-rule="evenodd"/>
</svg>