<svg xmlns="http://www.w3.org/2000/svg" id="Layer_1" viewBox="0 0 92.15 100"><defs><style>.cls-1{fill:#1269c1}</style></defs><path d="M.03 81.75h6.18c.84 0 1.65.09 2.44.26s1.49.46 2.1.87c.61.4 1.1.93 1.47 1.58s.55 1.45.55 2.39c0 1.29-.36 2.34-1.09 3.15-.73.81-1.72 1.36-2.98 1.65l4.75 7.89H9.63L5.51 92H3.19v7.54H.03V81.75Zm5.75 7.67c.45 0 .9-.03 1.36-.1.45-.07.86-.19 1.22-.38s.66-.45.89-.79c.23-.34.35-.78.35-1.32 0-.49-.11-.88-.33-1.19-.22-.31-.49-.56-.83-.74-.34-.18-.72-.31-1.14-.38-.43-.07-.84-.1-1.24-.1H3.19v5h2.59ZM26.99 81.75h2.74l7.66 17.79h-3.62l-1.66-4.07H24.4l-1.61 4.07h-3.54l7.74-17.79Zm4.02 11.01-2.74-7.24-2.79 7.24h5.53ZM45.39 81.75h3.17v17.79h-3.17V81.75ZM68.08 85.47c-.34-.43-.81-.8-1.42-1.09-.61-.29-1.23-.44-1.85-.44-.37 0-.74.05-1.11.14-.37.09-.7.24-1.01.43-.3.19-.55.44-.74.75-.19.31-.29.68-.29 1.12 0 .4.08.75.25 1.03s.4.53.69.73c.29.2.65.38 1.07.53.42.15.88.3 1.38.45.57.18 1.16.39 1.77.63.61.24 1.17.54 1.68.93s.93.87 1.26 1.46c.33.59.49 1.32.49 2.19 0 .95-.18 1.79-.53 2.5-.35.71-.82 1.3-1.41 1.77s-1.27.82-2.06 1.06c-.79.23-1.62.35-2.49.35-1.16 0-2.29-.21-3.39-.64s-2.01-1.06-2.71-1.9l2.26-2.11c.44.6 1.02 1.08 1.75 1.43.73.35 1.44.53 2.15.53.37 0 .75-.05 1.13-.14.39-.09.73-.25 1.04-.46.31-.22.56-.49.75-.82.19-.33.29-.73.29-1.22s-.11-.86-.33-1.17c-.22-.31-.51-.58-.88-.8-.37-.23-.8-.42-1.31-.59-.5-.17-1.03-.34-1.58-.53-.54-.17-1.07-.37-1.61-.6-.54-.23-1.02-.54-1.45-.93s-.77-.86-1.04-1.42c-.27-.56-.4-1.26-.4-2.1 0-.9.19-1.68.57-2.34s.87-1.19 1.48-1.62c.61-.43 1.31-.75 2.09-.96.78-.21 1.57-.31 2.38-.31.9 0 1.82.16 2.75.48.93.32 1.74.8 2.43 1.43l-2.06 2.26ZM79.92 81.75h11.79v2.76h-8.62v4.52h8.17v2.66h-8.17v5.03h9.07v2.81H79.92V81.74ZM40.63 39.25c0-.54-.25-1.1-.64-1.47l-9.55-8.32s-2.39-1.98-2.39-5.8c.02-4.58 3.78-8.31 8.44-8.37h33.76L83.62 2.43c.92-.88.29-2.43-.98-2.43h-47.2C34 0 32.61.56 31.57 1.56L5.39 26.76c-6.74 6.49-3.69 17.22 4.25 20.03l29.64-5.64c.99-.39 1.33-.95 1.35-1.9Z" class="cls-1"/><path d="M51.52 27.83c0 .54.25 1.1.64 1.47l9.55 8.32s2.39 1.98 2.39 5.8c-.02 4.58-3.78 8.31-8.44 8.37H21.89L8.52 64.65c-.92.88-.29 2.43.98 2.43h47.21c1.44 0 2.83-.56 3.87-1.56l26.18-25.2c6.74-6.49 3.69-17.22-4.25-20.03l-29.64 5.64c-.99.39-1.33.95-1.35 1.9Z" class="cls-1"/></svg>