<?xml version="1.0" ?>
<svg xmlns="http://www.w3.org/2000/svg" viewBox="0 0 340.46 150.4">
	<defs>
		<style>.cls-1{fill:#f16167}</style>
	</defs>
	<g id="Layer_2">
		<g id="Layer_1-2">
			<path d="m42.47 61.67-10.91-2.32c-9.16-1.9-15.27-3.64-15.27-10 0-6.55 5.67-10.62 14-10.62 8 0 13.39 2.33 17.9 6.69l9.3-6.69c-6-7.27-15-10.18-26.76-10.18-15.85 0-27.34 9-27.34 22.69 0 10.76 8 16.58 20.5 18.91l8.88 1.74c10 1.89 14.69 3.93 14.69 11.2 0 8-8.44 11.79-16.73 11.79-9 0-16.14-3.2-21.53-9.17L0 92.8c7.13 9.31 18.47 12.66 31 12.66 14.4 0 30.11-8 30.11-24.3C61.09 70.25 54 64 42.47 61.67zm58.26-32.87c-16.43 0-31.41 10.33-31.41 30V77c0 18.76 14 28.65 31.85 28.65 16.58 0 31.42-10.62 31.42-30.11v-17c0-18.69-13.82-29.74-31.86-29.74zm18.48 47.56c0 12.37-7.42 18-18 18-11.64 0-18.62-7-18.62-17.6V57.89C82.55 46 90.26 40 100.73 40c11.79 0 18.48 7 18.48 17.31zm72.08-35.78h-.44c-3.34-7.13-11.64-11.93-20.36-11.93-15.13 0-28.8 9-28.8 28.8v21c0 17.16 11.63 27.2 27.49 27.2 7.27 0 17.45-4.51 22.25-13.24h.15v11.35h12.8V0h-13.09zm0 34c0 12.94-9.75 19.49-18.48 19.49-10.76 0-17.89-6.55-17.89-16V56.58c0-11.93 9.17-16.87 17.46-16.87 10.33 0 18.91 7.13 18.91 18.62zM228.56 49c0-7.13 7.71-10 16-10 10 0 16.44 3.64 16.44 13.24v4.93h13.09v-6.26c0-17-13.82-22.26-29.24-22.26-13.67 0-28.21 5.39-28.21 20.81v2h11.92z" class="cls-1"/>
			<path d="m322.42 71-15.08 15.07 6.57 6.57 26.55-26.55-26.32-26.31-6.57 6.57 14.89 14.89h-82c-13.24 0-27.2 7-27.2 22.4 0 13.67 10.62 21.67 24.87 21.67 9.17 0 16.88-1.75 23.13-10.76h.29c.15 1.6.44 7.27.73 9.16h12.94c-.58-2.47-1.16-13.38-1.16-17.16V75H261v1.8c0 10.33-4.95 18-19.35 18-8.72 0-15.41-3.93-15.41-11.93 0-9.46 7.56-11.93 16.29-11.93zM5 123.54h12.1c5.92 0 9.33 3.64 9.33 8.58 0 4.39-2.7 8.88-9.22 8.88h-5.5v9.25H5zm11 12.33c2.4 0 3.9-1.42 3.9-3.56s-1.54-3.52-3.93-3.52h-4.22v7.08zm15.71-12.33h11.16c6 0 10.9 3.19 10.9 9.41v7.53c0 6.63-5.24 9.77-10.86 9.77h-11.2zm10.79 21.24c2.43 0 4.57-1.53 4.57-4.27v-7.34c0-2.58-2.1-4.16-4.76-4.16h-3.89v15.77zm17.04-21.24h19.37V129H66.25v5.39H76.7v5.43H66.25v10.45h-6.71z" class="cls-1"/>
			<path fill="#303030" d="M103.82 123.47h2.8l9.86 26.78h-3.19l-2.73-7.75h-10.9l-2.81 7.75h-3zM109.7 140l-4.54-12.85-4.64 12.85zm12.58-16.49h3L139.1 145h.08v-21.5h2.88v26.74h-3l-13.9-21.8h-.07v21.8h-2.85zm34.01 15.62-8.65-15.59H151l6.86 12.67 6.78-12.67h3.3l-8.7 15.63v11.08h-2.92zm15.13-15.59h3.11l5.29 22.07 5.7-22.07h2.69l5.59 22.07h.07l5.36-22.07h3l-6.93 26.86h-2.84l-5.58-22.14h-.08l-5.58 22.14h-2.92zm36.58 0h3v11.58h13.52v-11.58h3v26.71h-3v-12.47H211v12.47h-3zm27.36-.03h17.16v2.69H238.4v8.92h11.87v2.66H238.4v9.78h14.2v2.69h-17.24zm24.16 0H269c5.1 0 8.73 2.92 8.73 8a7.51 7.51 0 0 1-6.52 7.71l7.79 11.03h-3.38l-7.53-10.79h-5.5v10.79h-3zm8.81 13.49c4 0 6.4-1.75 6.4-5.5s-2.54-5.4-6.48-5.4h-5.69V137zm16.48-13.49H302v2.69h-14.16v8.92h11.88v2.66h-11.88v9.78H302v2.69h-17.19z"/>
		</g>
	</g>
</svg>