<?xml version="1.0" ?>
<svg xmlns="http://www.w3.org/2000/svg" xml:space="preserve" version="1.1" style="shape-rendering:geometricPrecision; text-rendering:geometricPrecision; image-rendering:optimizeQuality; fill-rule:evenodd; clip-rule:evenodd" viewBox="0 0 15308.8 2431.09">
	<defs>
		<style type="text/css">
        .fil3 {
            fill: #FEFEFE
        }
        .fil2 {
            fill: #38B6FF
        }
        .fil0 {
            fill: #013870;
            fill-rule: nonzero
        }
        .fil1 {
            fill: #38B6FF;
            fill-rule: nonzero
        }
        </style>
	</defs>
	<g id="Layer_x0020_1">
		<g id="_2103978469344">
			<g>
				<path class="fil0" d="M3422.08 1854.15c141.03,0 253.54,-34.86 337.52,-104.58 83.99,-71.31 126.77,-160.05 126.77,-269.39 0,-141.03 -74.47,-244.02 -223.43,-307.41 -30.1,-12.67 -76.06,-30.11 -134.69,-50.71l-103 -38.03c-61.8,-23.76 -93.49,-52.29 -93.49,-87.15 0,-42.78 44.37,-76.06 125.19,-76.06 88.73,0 204.41,39.62 274.13,96.66l137.86 -225.01c-118.84,-98.25 -256.7,-147.37 -416.75,-147.37 -128.35,0 -232.93,34.86 -313.75,103 -80.81,68.14 -122.01,155.29 -122.01,258.29 0,134.69 64.97,236.1 193.32,304.24 33.27,17.43 83.98,36.45 148.95,60.22l104.58 34.86c63.39,23.77 95.08,53.87 95.08,90.32 0,55.46 -60.21,85.57 -131.52,85.57 -123.6,0 -234.52,-49.12 -332.77,-147.37l-148.95 217.09c122.01,134.69 282.06,202.83 476.96,202.83z"/>
				<path class="fil0" d="M4461.6 1857.32c141.03,0 256.7,-44.37 343.86,-133.11 88.73,-88.73 133.1,-198.07 133.1,-328.01 0,-129.94 -44.37,-239.27 -133.1,-328.01 -87.16,-90.32 -202.83,-134.69 -343.86,-134.69 -141.03,0 -255.12,44.37 -343.86,134.69 -87.15,88.74 -131.52,198.07 -131.52,328.01 0,129.94 44.37,239.28 131.52,328.01 88.74,88.74 202.83,133.11 343.86,133.11zm0 -261.46c-55.46,0 -101.42,-19.02 -139.45,-57.05 -38.03,-39.61 -57.04,-87.15 -57.04,-144.19 0,-55.47 19.01,-101.42 57.04,-139.45 38.03,-39.61 83.99,-58.63 139.45,-58.63 55.46,0 101.41,19.02 139.44,57.05 39.62,38.03 58.63,85.56 58.63,141.03 0,57.04 -19.01,104.58 -57.04,144.19 -38.03,38.03 -85.57,57.05 -141.03,57.05z"/>
				<path class="fil0" d="M5473.72 816.23c41.2,0 91.91,14.26 150.54,42.78l93.49 -209.16c-99.83,-50.71 -196.49,-76.07 -289.98,-76.07 -110.93,0 -201.25,31.69 -270.97,93.5 -69.73,61.8 -104.58,153.7 -104.58,272.55l0 19.02 0 231.35 0 643.35 278.88 0 0 -643.35 267.8 0 0 -231.35 -267.8 0 0 -12.68c0,-82.4 53.89,-129.94 142.62,-129.94z"/>
				<path class="fil0" d="M6293.97 1560.99c-50.71,26.94 -96.66,39.62 -137.86,39.62 -74.48,0 -110.93,-45.95 -110.93,-139.45l0 -270.96 274.15 0 0 -231.35 -274.15 0 0 -310.6 -277.3 112.12c0,401.45 -3.16,321.8 -3.16,734.07 0,240.86 107.75,361.29 324.84,361.29 104.59,0 198.07,-23.76 278.88,-71.31l-74.47 -223.43z"/>
				<polygon class="fil0" points="6927.81,1833.55 7091.02,1368.47 7255.82,1833.55 7504.6,1833.55 7802.51,958.85 7507.77,958.85 7358.82,1468.3 7189.27,958.85 6992.78,958.85 6826.4,1468.3 6675.86,958.85 6381.12,958.85 6679.03,1833.55 "/>
				<path class="fil0" d="M8510.83 1038.08c-71.3,-68.14 -156.87,-101.41 -258.29,-101.41 -123.59,0 -226.59,42.78 -307.41,129.93 -80.81,85.57 -120.43,194.91 -120.43,326.43 0,131.52 39.62,240.86 120.43,329.6 80.82,88.74 182.23,133.1 307.41,133.1 101.42,0 186.99,-33.27 258.29,-98.24l0 76.06 263.05 0 0 -874.7 -263.05 0 0 79.23zm-3.16 356.54c0,57.04 -19.02,106.16 -58.64,145.78 -39.61,39.61 -87.15,60.21 -144.19,60.21 -57.05,0 -104.59,-20.6 -144.2,-60.21 -38.03,-39.62 -57.05,-88.74 -57.05,-145.78 0,-55.47 19.02,-103 57.05,-142.62 38.03,-39.61 85.57,-60.21 144.2,-60.21 57.04,0 104.58,20.6 144.19,60.21 39.62,39.62 58.64,87.15 58.64,142.62z"/>
				<path class="fil0" d="M9230.25 1833.55l0 -377.13c0,-167.97 64.97,-251.96 193.32,-251.96 36.44,0 74.47,6.34 115.67,20.6l22.19 -266.21c-34.86,-15.85 -71.31,-23.77 -109.34,-23.77 -99.83,0 -177.47,44.37 -232.94,131.52l0 -107.75 -267.79 0 0 874.7 278.89 0z"/>
				<path class="fil0" d="M10512.19 1374.02c0,-134.69 -42.78,-242.45 -126.77,-320.09 -83.98,-77.65 -191.73,-117.26 -321.67,-117.26 -137.86,0 -250.37,44.37 -337.52,131.52 -87.15,87.15 -129.94,196.49 -129.94,328.01 0,128.35 41.2,236.11 125.19,324.84 83.98,87.16 202.82,131.53 358.12,131.53 145.78,0 274.13,-39.62 386.64,-120.43l-109.34 -188.57c-80.81,53.87 -167.97,80.81 -264.63,80.81 -110.92,0 -182.23,-45.95 -213.92,-137.86l624.33 0c6.34,-39.61 9.51,-76.06 9.51,-112.5zm-448.44 -213.92c93.49,0 158.46,50.7 182.23,134.69l-370.8 0c30.11,-90.33 91.91,-134.69 188.57,-134.69z"/>
			</g>
			<g>
				<polygon class="fil1" points="11133.36,1833.55 11336.19,1152.17 11539.01,1833.55 11822.66,1833.55 12199.79,662.53 11871.78,662.53 11673.71,1394.62 11440.77,662.53 11230.02,662.53 10998.67,1394.62 10799.01,662.53 10470.99,662.53 10848.13,1833.55 "/>
				<path class="fil1" d="M12629.23 1857.32c141.03,0 256.7,-44.37 343.86,-133.11 88.73,-88.73 133.1,-198.07 133.1,-328.01 0,-129.94 -44.37,-239.27 -133.1,-328.01 -87.16,-90.32 -202.83,-134.69 -343.86,-134.69 -141.03,0 -255.12,44.37 -343.86,134.69 -87.15,88.74 -131.52,198.07 -131.52,328.01 0,129.94 44.37,239.28 131.52,328.01 88.74,88.74 202.83,133.11 343.86,133.11zm0 -261.46c-55.46,0 -101.42,-19.02 -139.45,-57.05 -38.03,-39.61 -57.04,-87.15 -57.04,-144.19 0,-55.47 19.01,-101.42 57.04,-139.45 38.03,-39.61 83.99,-58.63 139.45,-58.63 55.46,0 101.41,19.02 139.44,57.05 39.62,38.03 58.63,85.56 58.63,141.03 0,57.04 -19.01,104.58 -57.04,144.19 -38.03,38.03 -85.57,57.05 -141.03,57.05z"/>
				<path class="fil1" d="M13521.37 1833.55l0 -377.13c0,-167.97 64.97,-251.96 193.32,-251.96 36.44,0 74.47,6.34 115.67,20.6l22.19 -266.21c-34.86,-15.85 -71.31,-23.77 -109.34,-23.77 -99.83,0 -177.47,44.37 -232.94,131.52l0 -107.75 -267.79 0 0 874.7 278.89 0z"/>
				<polygon class="fil1" points="14228.11,624.49 13949.21,736.6 13949.21,1833.55 14228.11,1833.55 "/>
				<path class="fil1" d="M15028.32 1026.98c-63.37,-60.22 -142.61,-90.32 -236.1,-90.32 -122.01,0 -223.43,44.36 -305.83,131.52 -80.81,87.15 -122.01,196.49 -122.01,328.01 0,133.11 41.2,242.45 122.01,329.61 80.82,87.15 183.82,129.93 305.83,129.93 96.66,0 179.06,-33.27 244.03,-98.24l0 76.06 272.55 0 0 -1209.06 -280.48 112.11 0 290.38zm-188.56 573.63c-57.05,0 -104.59,-19.02 -142.61,-58.63 -38.04,-39.62 -57.06,-88.74 -57.06,-147.37 0,-55.46 19.02,-103 57.06,-142.62 38.02,-39.6 85.56,-60.21 142.61,-60.21 115.68,0 199.66,88.74 199.66,202.83 0,115.68 -83.98,206 -199.66,206z"/>
			</g>
			<g>
				<path class="fil2" d="M301.56 0l1827.97 0c165.86,0 301.56,135.69 301.56,301.55l0 1827.98c0,165.86 -135.7,301.56 -301.56,301.56l-1827.97 0c-165.86,0 -301.56,-135.7 -301.56,-301.56l0 -1827.98c0,-165.86 135.7,-301.55 301.56,-301.55z"/>
				<g>
					<path class="fil3" d="M449.5 1365.72c21.38,36.05 107.74,110.81 138.46,142.09l543.5 -208.96c-11.21,55.99 -150.96,320.31 -192.37,403.48 -20,40.15 -52.38,93.64 -66.55,136.28 9.76,19.07 121.8,153.26 142.55,163.66 35.41,-43.05 521.94,-909.71 527.99,-935.18l-107.92 -113.77c-39.66,2.07 -248.4,89.21 -298.08,108.06l-295.61 110.16c10.33,-41.44 119.38,-213.41 151.72,-268.36 25.73,-43.71 147.12,-236.99 154.51,-270.54 -32.02,-39.04 -155.61,-189.24 -186.48,-203.81l-511.72 936.89z"/>
					<path class="fil3" d="M1219.12 1890.25c45.13,-9.65 746.63,-293.6 762.47,-306.31 -11.1,-23.72 -148.32,-183.79 -164.69,-197.61 -35.99,4.19 -336.19,137.55 -389.66,160.26 -51.06,21.68 -68.95,83.17 -113.31,163.65 -16.96,30.79 -86.21,147.42 -94.81,180.01z"/>
				</g>
			</g>
		</g>
	</g>
</svg>