<?xml version="1.0" encoding="UTF-8"?>
<svg xmlns="http://www.w3.org/2000/svg" viewBox="0 0 118 26" fill="none"><path fill-rule="evenodd" clip-rule="evenodd" d="M34.7861 19.1322L34.7851 19.1316C33.5044 18.259 32.8571 16.9586 32.8296 15.2803L32.8242 14.95H36.2915L36.3067 15.259C36.3407 15.9502 36.6317 16.4486 37.1868 16.7928C37.7679 17.153 38.5725 17.3485 39.6286 17.3485H39.9406C41.0329 17.3485 41.7479 17.1977 42.148 16.949C42.5642 16.6903 42.7161 16.4113 42.7161 16.1135C42.7161 15.7868 42.5807 15.5249 42.2697 15.3073L42.2676 15.3058L42.2655 15.3042C41.953 15.078 41.3797 14.8792 40.4939 14.7379L40.4921 14.7377L38.3662 14.3866C36.7827 14.1227 35.5716 13.674 34.7787 13.0084L34.7776 13.0075L34.7765 13.0066C33.9704 12.3178 33.5901 11.3122 33.5901 10.049C33.5901 9.28058 33.8118 8.56227 34.2483 7.90056C34.6939 7.22495 35.38 6.69587 36.2785 6.30078C37.1923 5.88586 38.3403 5.6875 39.7066 5.6875C41.6466 5.6875 43.2175 6.09897 44.3836 6.9593C45.5536 7.80931 46.2099 8.98741 46.3482 10.4673L46.3814 10.8225H42.9129L42.875 10.5409C42.7971 9.96206 42.515 9.52683 42.0114 9.21344C41.4945 8.89181 40.7869 8.7165 39.8626 8.7165H39.5506C38.6271 8.7165 37.9645 8.85689 37.5278 9.10269C37.0934 9.35464 36.9506 9.61532 36.9506 9.8735C36.9506 10.2636 37.0856 10.5111 37.3324 10.6756C37.6269 10.8719 38.1192 11.0442 38.844 11.1715L41.0263 11.5222C42.6562 11.7872 43.9202 12.2837 44.7775 13.0427C45.6445 13.8101 46.0766 14.8108 46.0766 16.016C46.0766 17.4176 45.5147 18.5215 44.3945 19.2873L44.3937 19.2878C43.3032 20.0288 41.759 20.3775 39.8041 20.3775C37.7253 20.3775 36.0422 19.9742 34.7871 19.1329L34.7861 19.1322Z" fill="black"/><path fill-rule="evenodd" clip-rule="evenodd" d="M48.0458 17.8489L48.0441 17.8461C47.5265 17.0207 47.2729 16.0622 47.2729 14.9825C47.2729 13.903 47.5264 12.9498 48.0455 12.1362L48.0462 12.135C48.574 11.3156 49.2965 10.6849 50.2057 10.2441C51.1153 9.803 52.1599 9.5875 53.3309 9.5875C54.502 9.5875 55.5466 9.803 56.4562 10.2441C57.365 10.6847 58.0815 11.3155 58.5966 12.1356C59.1287 12.949 59.3889 13.9025 59.3889 14.9825C59.3889 16.0635 59.1283 17.023 58.5967 17.8487C58.0812 18.6566 57.3644 19.2806 56.4562 19.7209C55.5466 20.162 54.502 20.3775 53.3309 20.3775C52.1599 20.3775 51.1153 20.162 50.2057 19.7209C49.2979 19.2808 48.5757 18.6576 48.0476 17.8516L48.0458 17.8489ZM54.8348 12.6559L54.8299 12.6532C54.4424 12.4366 53.9913 12.324 53.4674 12.324H53.1944C52.6708 12.324 52.2116 12.4366 51.809 12.6551L51.8075 12.6559L51.806 12.6567C51.4186 12.8618 51.1114 13.1568 50.8811 13.5483C50.6562 13.9305 50.5359 14.4039 50.5359 14.9825C50.5359 15.5456 50.6552 16.0206 50.8821 16.4185C51.1122 16.8089 51.4195 17.1106 51.8076 17.3286C52.2102 17.5345 52.6701 17.641 53.1944 17.641H53.4674C53.9934 17.641 54.4464 17.5339 54.8349 17.3286C55.2372 17.1098 55.5504 16.8077 55.7798 16.4185C56.0067 16.0206 56.1259 15.5456 56.1259 14.9825C56.1259 14.4039 56.0057 13.9305 55.7808 13.5483C55.5519 13.1592 55.24 12.8643 54.8398 12.6585L54.8348 12.6559Z" fill="black"/><path fill-rule="evenodd" clip-rule="evenodd" d="M60.8703 20.1825V5.8825H64.1138V20.1825H60.8703Z" fill="black"/><path fill-rule="evenodd" clip-rule="evenodd" d="M66.0455 10.1075H69.289V20.1825H66.0455V10.1075Z" fill="black"/><path fill-rule="evenodd" clip-rule="evenodd" d="M73.3269 19.7367L73.3249 19.7357C72.5045 19.3046 71.8499 18.6843 71.3648 17.8804L71.3642 17.8793L71.3636 17.8783C70.8738 17.0527 70.6356 16.0832 70.6356 14.9825C70.6356 13.8219 70.8717 12.8298 71.3654 12.0251C71.8513 11.2203 72.5079 10.6115 73.3318 10.2063C74.1592 9.79276 75.0605 9.5875 76.0306 9.5875C76.9836 9.5875 77.7957 9.73462 78.451 10.0477C78.7984 10.2104 79.1064 10.3959 79.3716 10.6059V5.8825H82.6151V20.1825H79.3716V19.4096C79.0802 19.6357 78.7408 19.8262 78.3569 19.9829L78.3542 19.9839L78.3516 19.985C77.671 20.2489 76.9087 20.3775 76.0696 20.3775C75.073 20.3775 74.1567 20.1654 73.3269 19.7367ZM79.0077 16.4545L79.0084 16.4533C79.2455 16.0581 79.3716 15.5725 79.3716 14.9825C79.3716 14.3778 79.2448 13.8945 79.0106 13.5153L79.0087 13.5123L79.0069 13.5093C78.7789 13.1217 78.4691 12.835 78.0726 12.6423L78.0675 12.6399L78.0625 12.6372C77.6737 12.4314 77.2202 12.324 76.6936 12.324H76.4206C75.6625 12.324 75.065 12.558 74.6 13.0116L74.5986 13.0131L74.5971 13.0145C74.1468 13.4428 73.8986 14.0808 73.8986 14.9825C73.8986 15.8827 74.1461 16.5291 74.5985 16.9714C75.0629 17.4124 75.6609 17.641 76.4206 17.641H76.6936C77.2223 17.641 77.6777 17.5392 78.0676 17.3446C78.4669 17.1389 78.7784 16.8443 79.0069 16.4557L79.0077 16.4545Z" fill="black"/><path d="M88.4306 19.8575L84.4331 6.2075H85.9151L89.562 18.5568L93.2861 6.2075H95.1776L98.8047 18.6515L102.451 6.2075H103.933L99.7991 19.8575H97.6736L94.1631 7.80212L90.5561 19.8575H88.4306Z" fill="black"/><path fill-rule="evenodd" clip-rule="evenodd" d="M106.352 6.2075V19.8575H107.776V14.261H113.197C114.081 14.261 114.867 14.105 115.556 13.793C116.258 13.481 116.804 13.026 117.194 12.428C117.597 11.817 117.799 11.0825 117.799 10.2245C117.799 9.3795 117.597 8.658 117.194 8.06C116.804 7.462 116.258 7.007 115.556 6.695C114.867 6.37 114.081 6.2075 113.197 6.2075H106.352ZM112.904 12.9545H107.776V7.514H112.904C114.035 7.514 114.893 7.748 115.478 8.216C116.063 8.671 116.356 9.3405 116.356 10.2245C116.356 11.1085 116.063 11.7845 115.478 12.2525C114.893 12.7205 114.035 12.9545 112.904 12.9545Z" fill="black"/><path fill-rule="evenodd" clip-rule="evenodd" d="M67.6106 9.09619C66.5202 9.09619 65.7679 8.34392 65.7679 7.41594C65.7679 6.48797 66.5202 5.73569 67.6106 5.73569H67.6886C68.7791 5.73569 69.5314 6.48797 69.5314 7.41594C69.5314 8.34392 68.7791 9.09619 67.6886 9.09619H67.6106Z" fill="black"/><circle cx="13" cy="13" r="13" fill="#6817C5"/><g filter="url(#filter0_ii_4048_35419)"><path d="M9.50391 11.9803C9.50391 11.8197 9.63413 11.6895 9.79476 11.6895H14.3354C15.5669 11.6895 16.5653 12.6878 16.5653 13.9194H11.443C10.372 13.9194 9.50391 13.0512 9.50391 11.9803Z" fill="#E6E6E6"/></g><path d="M9.30658 13.7715H16.4423C16.5094 13.7715 16.5638 13.8259 16.5638 13.893C16.5638 16.1248 14.7546 17.934 12.5229 17.934H5.38716C5.32004 17.934 5.26562 17.8796 5.26562 17.8124C5.26562 15.5807 7.07482 13.7715 9.30658 13.7715Z" fill="white"/><path d="M13.5449 8.125H20.6806C20.7477 8.125 20.8021 8.17941 20.8021 8.24653C20.8021 10.4783 18.9929 12.2875 16.7611 12.2875H9.62544C9.55832 12.2875 9.50391 12.2331 9.50391 12.166C9.50391 9.9342 11.3131 8.125 13.5449 8.125Z" fill="white"/><defs><filter id="filter0_ii_4048_35419" x="9.50391" y="9.68945" width="7.0625" height="8.23047" filterUnits="userSpaceOnUse" color-interpolation-filters="sRGB"><feFlood flood-opacity="0" result="BackgroundImageFix"/><feBlend mode="normal" in="SourceGraphic" in2="BackgroundImageFix" result="shape"/><feColorMatrix in="SourceAlpha" type="matrix" values="0 0 0 0 0 0 0 0 0 0 0 0 0 0 0 0 0 0 127 0" result="hardAlpha"/><feOffset dy="-2"/><feGaussianBlur stdDeviation="2"/><feComposite in2="hardAlpha" operator="arithmetic" k2="-1" k3="1"/><feColorMatrix type="matrix" values="0 0 0 0 0.113725 0 0 0 0 0.0117647 0 0 0 0 0.235294 0 0 0 0.12 0"/><feBlend mode="normal" in2="shape" result="effect1_innerShadow_4048_35419"/><feColorMatrix in="SourceAlpha" type="matrix" values="0 0 0 0 0 0 0 0 0 0 0 0 0 0 0 0 0 0 127 0" result="hardAlpha"/><feOffset dy="4"/><feGaussianBlur stdDeviation="2"/><feComposite in2="hardAlpha" operator="arithmetic" k2="-1" k3="1"/><feColorMatrix type="matrix" values="0 0 0 0 0.113725 0 0 0 0 0.0117647 0 0 0 0 0.235294 0 0 0 0.12 0"/><feBlend mode="normal" in2="effect1_innerShadow_4048_35419" result="effect2_innerShadow_4048_35419"/></filter></defs></svg>