<?xml version="1.0" encoding="UTF-8" standalone="no"?>

<svg viewBox="0 0 13 13" version="1.1" xmlns="http://www.w3.org/2000/svg"  xml:space="preserve" xmlns:serif="http://www.serif.com/" style="fill-rule:evenodd;clip-rule:evenodd;stroke-linejoin:round;stroke-miterlimit:2;">
    <g transform="matrix(0.219367,0,0,0.372462,-140.283,-315.433)">
        <path d="M639.488,875.454L639.488,853.221C639.488,849.725 644.417,846.886 650.489,846.886L687.748,846.886C693.819,846.886 698.749,849.725 698.749,853.221L698.749,875.454C698.749,878.951 693.819,881.789 687.748,881.789L650.489,881.789C644.417,881.789 639.488,878.951 639.488,875.454ZM685.082,872.795C682.086,871.05 682.11,871.05 682.11,871.05L658.067,871.05L658.067,870.809L683.921,859.097C685.218,858.49 685.073,857.715 685.073,856.948L685.073,855.967C685.073,855.695 684.885,855.434 684.551,855.241C684.216,855.049 683.763,854.941 683.29,854.941L654.891,854.941C654.433,854.941 653.993,855.045 653.669,855.232C653.345,855.419 653.163,855.623 653.163,855.887L656.145,857.64L679.757,857.625L679.757,857.813L654.318,869.498C653.053,870.116 653.163,870.881 653.163,871.648L653.163,872.712C653.163,873.277 653.958,873.734 654.939,873.734L683.472,873.734C684.814,873.738 685.071,873.331 685.082,872.795ZM686.009,849.571L651.597,849.601C647.427,849.601 644.046,851.512 644.046,853.913L644.046,860.008C644.046,862.572 647.595,863.531 650.138,863.782L658.045,864.651C661.518,865.06 662.601,862.389 658.644,861.966L651.676,861.219C649.869,861.088 648.631,860.518 648.605,859.45L648.605,854.167C648.605,852.867 650.435,852.256 652.693,852.256L685.073,852.256C688.498,852.279 689.632,853.63 689.632,855.276L689.632,856.954C689.632,858.968 694.19,858.968 694.19,856.954L694.19,854.689C693.968,852.477 693.381,851.698 692.415,851.043C691.443,850.383 689.885,849.654 686.009,849.571ZM652.24,879.104L686.64,879.074C690.81,879.074 694.19,877.127 694.19,874.726L694.092,868.986C694.135,866.797 691.242,865.492 685.89,864.981L679.895,864.322C675.681,863.635 675.099,866.368 677.919,866.836L685.493,867.669C688.808,868.042 689.367,868.497 689.533,869.544L689.632,874.035C689.632,874.659 689.201,875.258 688.434,875.7C687.668,876.141 686.628,876.389 685.544,876.389L653.138,876.419C650.28,876.419 648.605,875.522 648.605,873.876L648.605,872.392C648.605,870.365 644.059,870.365 644.059,872.392L644.059,874.393C644.059,875.643 644.921,876.841 646.455,877.724C647.989,878.608 650.07,879.104 652.24,879.104Z" style="fill:rgb(199,10,14);"/>
    </g>
</svg>
