<?xml version="1.0" ?>
<svg xmlns="http://www.w3.org/2000/svg" viewBox="0 0 159 44">
	<path fill-rule="evenodd" d="M18.198 0c3.618 0 7.114 1.063 10.112 3.075l.6.405v7.535c4.534 3.323 7.487 8.69 7.487 14.738C36.397 35.815 28.233 44 18.198 44a18.074 18.074 0 01-10.11-3.075l-.602-.403v-7.536C2.953 29.664 0 24.296 0 18.247 0 8.186 8.164 0 18.198 0zm10.713 14.553v18.462l-.601.404a18.081 18.081 0 01-10.112 3.075c-2.869 0-5.585-.671-8.001-1.863v4.419a15.414 15.414 0 008.001 2.233c8.54 0 15.488-6.967 15.488-15.53 0-4.397-1.836-8.371-4.775-11.2zm-10.713-4.329c-2.83 0-5.592.77-8.001 2.232V31.54a15.365 15.365 0 008.001 2.237c2.832 0 5.594-.77 8.002-2.23V12.46a15.368 15.368 0 00-8.002-2.237zm32.648 1.442c2.65 0 4.845.859 6.398 2.094l-1.447 2.256c-1.257-1.047-2.918-1.826-4.979-1.826-2.142 0-3.694.967-3.694 3.087 0 1.746 1.125 2.417 4.444 3.115 4.792 1.046 6.559 2.684 6.559 5.717 0 3.57-2.703 5.986-7.015 5.986-2.918 0-5.354-.912-7.2-2.523l1.525-2.281c1.393 1.396 3.614 2.28 5.756 2.28 2.464 0 4.203-1.126 4.203-3.247 0-1.719-1.285-2.578-4.604-3.275-4.793-1.047-6.4-2.712-6.4-5.664 0-3.463 2.57-5.72 6.454-5.72zm59.217 0c2.65 0 4.845.859 6.398 2.094l-1.445 2.256c-1.26-1.047-2.918-1.826-4.98-1.826-2.142 0-3.695.967-3.695 3.087 0 1.746 1.125 2.417 4.445 3.115 4.792 1.046 6.56 2.684 6.56 5.717 0 3.57-2.705 5.986-7.015 5.986-2.918 0-5.355-.912-7.202-2.523l1.525-2.281c1.393 1.396 3.616 2.28 5.756 2.28 2.464 0 4.204-1.126 4.204-3.247 0-1.719-1.285-2.578-4.605-3.275-4.793-1.047-6.398-2.712-6.398-5.664 0-3.463 2.57-5.72 6.452-5.72zm-43.636 6.336c3.989 0 6.907 2.98 6.907 7.033 0 4.054-2.918 6.98-6.907 6.98s-6.88-2.926-6.88-6.98c0-4.053 2.891-7.033 6.88-7.033zm28.964 0c3.99 0 6.907 2.98 6.907 7.033 0 4.054-2.918 6.98-6.907 6.98s-6.88-2.926-6.88-6.98c0-4.053 2.891-7.033 6.88-7.033zm26.398.269v7.892c0 1.987 1.072 3.355 2.838 3.355 1.687 0 2.678-.992 3.507-2.147v-9.1h2.624v13.476h-2.383l-.106-1.639c-.804 1.022-2.143 1.906-4.312 1.906-3.078 0-4.791-2.28-4.791-5.717v-8.026h2.623zm20.023-4.565v4.565h4.23v2.254h-4.23v6.685c0 1.556.938 2.415 2.303 2.415.91 0 1.527-.187 1.927-.43l.75 2.069c-.643.402-1.579.75-2.89.75-2.866 0-4.714-1.663-4.714-4.778v-13.53h2.624zm11.11 4.296c4.018 0 6.078 3.114 6.078 6.9v1.047h-9.852c.08 2.469 1.527 3.81 4.07 3.81 1.767 0 2.972-.777 3.641-1.717l1.82 1.53c-1.285 1.585-3.026 2.442-5.46 2.442-4.15 0-6.72-2.925-6.72-6.98 0-4.052 2.649-7.032 6.424-7.032zm-71.346 0c3.24 0 5.087 2.31 5.087 5.772v7.973h-2.624v-7.811c0-2.041-1.204-3.437-3.104-3.437-1.581 0-2.651.966-3.481 2.148v9.1H74.83V18.27h2.382l.108 1.637c.776-.994 2.195-1.906 4.256-1.906zm54.847.269v13.476h-2.624V18.27h2.624zm-69.996 2.066c-2.463 0-4.23 1.988-4.23 4.698 0 2.685 1.767 4.644 4.23 4.644 2.463 0 4.257-1.959 4.257-4.644 0-2.71-1.794-4.698-4.257-4.698zm28.964 0c-2.464 0-4.23 1.988-4.23 4.698 0 2.685 1.766 4.644 4.23 4.644 2.463 0 4.256-1.959 4.256-4.644 0-2.71-1.793-4.698-4.256-4.698zM18.198 2.717c-8.54 0-15.487 6.968-15.487 15.53 0 4.399 1.836 8.372 4.775 11.2V10.985l.602-.403a18.077 18.077 0 0110.11-3.076c2.87 0 5.585.672 8.002 1.863V4.95a15.412 15.412 0 00-8.002-2.232zm134.725 17.54c-2.168 0-3.641 1.396-3.775 3.543h7.256c-.08-2.12-1.312-3.544-3.481-3.544zm-17.784-6.898c.964 0 1.714.752 1.714 1.72 0 .993-.75 1.718-1.714 1.718-.99 0-1.714-.725-1.714-1.719 0-.967.723-1.719 1.714-1.719z" fill="#e30086"/>
</svg>