<svg viewBox="0 0 424 106" fill="none" xmlns="http://www.w3.org/2000/svg">
<path fill-rule="evenodd" clip-rule="evenodd" d="M44.8083 0.66214C37.6439 1.77065 30.7401 4.17928 24.5891 7.99838C-22.4586 37.2094 6.59945 111.191 60.8151 103.535C68.2415 102.486 75.5187 100.03 81.8768 96.0828C129.362 66.6 99.3141 -7.77134 44.8083 0.66214ZM25.4315 17.6226C-10.9334 44.4622 18.3141 103.685 61.6576 94.8835C68.9458 93.4038 76.0199 90.4126 81.8759 85.8265C116.893 58.4035 87.7446 0.351838 44.8083 9.07125C37.9098 10.4721 31.0717 13.4598 25.4315 17.6226Z" fill="#1F2937"/>
<path fill-rule="evenodd" clip-rule="evenodd" d="M83.097 54.3629L76.5267 53.2323C75.9952 53.1409 74.9324 52.958 74.9324 52.958C67.1406 85.6512 27.511 68.2221 27.511 68.2221C40.9912 90.0087 81.9079 81.1406 83.097 54.3629Z" fill="#1F2937"/>
<path fill-rule="evenodd" clip-rule="evenodd" d="M222.267 85.3294C235.945 85.3294 247.034 74.2409 247.034 60.5626C247.034 46.8842 235.945 35.7957 222.267 35.7957C208.588 35.7957 197.5 46.8842 197.5 60.5626C197.5 74.2409 208.588 85.3294 222.267 85.3294ZM222.267 76.3294C213.559 76.3294 206.5 69.2704 206.5 60.5626C206.5 51.8548 213.559 44.7957 222.267 44.7957C230.975 44.7957 238.034 51.8548 238.034 60.5626C238.034 69.2704 230.975 76.3294 222.267 76.3294Z" fill="#1F2937"/>
<path fill-rule="evenodd" clip-rule="evenodd" d="M149.346 81.8187V71.9974C152.243 73.3591 155.321 74.431 158.58 75.2132C161.84 75.9955 164.874 76.3866 167.685 76.3866C171.799 76.3866 174.833 75.6043 176.789 74.0399C178.744 72.4754 179.722 70.375 179.722 67.7386C179.722 65.363 178.824 63.3495 177.028 61.6981C175.232 60.0467 171.523 58.0912 165.903 55.8314C160.109 53.4847 156.024 50.8049 153.648 47.7918C151.272 44.7788 150.084 41.1574 150.084 36.9276C150.084 31.6258 151.968 27.454 155.734 24.412C159.5 21.3699 164.556 19.849 170.9 19.849C176.984 19.849 183.039 21.1816 189.065 23.847L185.763 32.3211C180.113 29.9455 175.072 28.7577 170.64 28.7577C167.279 28.7577 164.73 29.4892 162.991 30.9522C161.253 32.4153 160.384 34.3491 160.384 36.7538C160.384 38.4051 160.731 39.8175 161.427 40.9908C162.122 42.1642 163.266 43.2723 164.86 44.3153C166.453 45.3583 169.321 46.7344 173.464 48.4437C178.129 50.3848 181.547 52.1955 183.72 53.8758C185.893 55.5562 187.486 57.4538 188.5 59.5687C189.514 61.6836 190.021 64.1751 190.021 67.0433C190.021 72.6927 187.979 77.1253 183.894 80.3412C179.809 83.557 174.174 85.1649 166.989 85.1649C159.804 85.1649 153.923 84.0495 149.346 81.8187ZM255.591 84.2957V36.2323H263.587L264.934 44.7064H265.456C267.049 41.8382 269.128 39.564 271.692 37.8836C274.256 36.2033 277.015 35.3631 279.97 35.3631C282.027 35.3631 283.722 35.508 285.055 35.7977L284.055 45.3148C282.607 44.9671 281.1 44.7933 279.536 44.7933C275.451 44.7933 272.141 46.126 269.606 48.7914C267.071 51.4567 265.803 54.9188 265.803 59.1776V84.2957H255.591ZM293.963 84.2957V36.2323H301.959L303.307 44.7064H303.828C305.422 41.8382 307.5 39.564 310.064 37.8836C312.628 36.2033 315.388 35.3631 318.343 35.3631C320.4 35.3631 322.095 35.508 323.427 35.7977L322.428 45.3148C320.979 44.9671 319.473 44.7933 317.908 44.7933C313.823 44.7933 310.513 46.126 307.978 48.7914C305.443 51.4567 304.176 54.9188 304.176 59.1776V84.2957H293.963ZM329.035 36.2323H340.16L349.938 63.4798C351.416 67.362 352.401 71.0124 352.893 74.431H353.241C353.501 72.8376 353.979 70.9037 354.675 68.6295C355.37 66.3552 359.049 55.5563 365.713 36.2323H376.751L356.196 90.6839C352.458 100.679 346.23 105.677 337.509 105.677C335.249 105.677 333.048 105.43 330.904 104.938V96.8548C332.439 97.2025 334.192 97.3763 336.162 97.3763C341.087 97.3763 344.549 94.5227 346.548 88.8153L348.33 84.2957L329.035 36.2323Z" fill="#1F2937"/>
<path fill-rule="evenodd" clip-rule="evenodd" d="M390.34 38.5653V36.1629H403.219V38.5653H398.18V53.2957H395.379V38.5653H390.34ZM405.844 53.2957V36.1629H409.793L414.551 49.7918H414.621L419.52 36.1629H423.48V53.2957H420.785V44.8231C420.785 43.9715 420.807 42.8622 420.85 41.495C420.893 40.1278 420.93 39.2997 420.961 39.0106H420.867L415.723 53.2957H413.25L408.281 38.9872H408.188C408.32 41.1122 408.387 43.1043 408.387 44.9637V53.2957H405.844Z" fill="#1F2937"/>
</svg>