<svg viewBox="0 0 128 128" xmlns="http://www.w3.org/2000/svg">
    <path d="M17.52 71.93A6.25 6.25 0 0115 77.34c-1.69 1.24-4.12 1.85-7.28 1.85a21.45 21.45 0 01-4.23-.35A15.81 15.81 0 010 77.76v-4.65a22.84 22.84 0 003.89 1.39 15.25 15.25 0 004 .56 5.92 5.92 0 003.26-.69 2.19 2.19 0 001-1.87 2.08 2.08 0 00-.39-1.24 5.16 5.16 0 00-1.53-1.2 32.42 32.42 0 00-3.43-1.6A26 26 0 013 66.63a6.56 6.56 0 01-2.24-2.17A6.22 6.22 0 010 61.2a5.34 5.34 0 012.52-4.8 12.06 12.06 0 016.65-1.63 18.71 18.71 0 014.11.43 20.91 20.91 0 013.89 1.3l-1.74 4a31.72 31.72 0 00-3.22-1.18A10.85 10.85 0 009 58.89c-2.41 0-3.61.69-3.61 2a1.83 1.83 0 00.46 1.26 5.43 5.43 0 001.6 1.11c.77.39 1.87.86 3.29 1.41a25.34 25.34 0 013.6 1.72 6.68 6.68 0 012.35 2.17 6 6 0 01.83 3.37zM41.64 66.94q0 5.86-3 9.06a10.88 10.88 0 01-8.26 3.19 11.45 11.45 0 01-5.74-1.43 10.1 10.1 0 01-4-4.17 14.29 14.29 0 01-1.43-6.65q0-5.88 3-9a10.87 10.87 0 018.24-3.15 11.64 11.64 0 015.78 1.41 9.85 9.85 0 014 4.13 14 14 0 011.41 6.61zm-16.82 0a10.66 10.66 0 001.32 5.78 4.73 4.73 0 004.28 2 4.72 4.72 0 004.26-2A10.47 10.47 0 0036 66.94a10.21 10.21 0 00-1.35-5.74 4.81 4.81 0 00-4.3-2 4.71 4.71 0 00-4.26 2 10.49 10.49 0 00-1.27 5.74zM56.59 54.77q.57 0 1.26.06c.46 0 .84.1 1.13.15l-.48 5.09a10 10 0 00-1.06-.15 9.18 9.18 0 00-1.07-.07 7.54 7.54 0 00-3.26.72 5.81 5.81 0 00-2.45 2.19 6.92 6.92 0 00-.94 3.78v12.22h-5.47V55.2h4.21l.78 4.09h.26a10 10 0 012.87-3.2 7 7 0 014.22-1.32zM72 74.8a10.14 10.14 0 002-.19 18.1 18.1 0 001.8-.46v4.09a8.54 8.54 0 01-2.26.69 15.29 15.29 0 01-2.91.26 9.88 9.88 0 01-3.63-.65 5.15 5.15 0 01-2.59-2.3 9.32 9.32 0 01-1-4.65V59.33h-3.17v-2.39L63.72 55l1.74-5h3.43v5.2h6.69v4.13h-6.69v12.21a3.18 3.18 0 00.89 2.46 3.23 3.23 0 002.22.8zM89.62 79.19A8.22 8.22 0 0183 76.13c-1.69-2-2.54-5.08-2.54-9.11s.85-7.11 2.56-9.17a8.33 8.33 0 016.74-3.08 8.19 8.19 0 014.28 1 8.41 8.41 0 012.68 2.43H97a16.56 16.56 0 01-.26-1.85 21.7 21.7 0 01-.16-2.35v-8.27h5.47v33h-4.26l-1-3.09h-.21a8.52 8.52 0 01-2.66 2.5 8.07 8.07 0 01-4.3 1.05zm1.65-4.43q3 0 4.28-1.74a9.26 9.26 0 001.29-5.26v-.69a11.49 11.49 0 00-1.2-5.81c-.8-1.34-2.28-2-4.45-2a4.29 4.29 0 00-3.85 2.07A10.73 10.73 0 0086 67.11a10 10 0 001.35 5.69 4.44 4.44 0 003.92 1.96zM111.92 45.73v7.82c0 .93 0 1.82-.09 2.69s-.11 1.55-.17 2h.26a7.66 7.66 0 016.91-3.52 8.18 8.18 0 016.63 3.08q2.54 3.14 2.54 9.14c0 4-.86 7.11-2.56 9.17a8.36 8.36 0 01-6.74 3.08 8.25 8.25 0 01-4.24-1 9 9 0 01-2.54-2.19h-.39l-1 2.74h-4.09v-33zm5.34 13.47c-2 0-3.34.59-4.12 1.78a10.28 10.28 0 00-1.22 5.48v.48a11.75 11.75 0 001.15 5.78q1.16 2 4.28 2a4.2 4.2 0 003.74-2 10.7 10.7 0 001.3-5.8 10.25 10.25 0 00-1.32-5.78 4.37 4.37 0 00-3.81-1.94z"/>
</svg>