<?xml version="1.0" encoding="UTF-8" standalone="no"?>
<svg xmlns:rdf="http://www.w3.org/1999/02/22-rdf-syntax-ns#" xmlns="http://www.w3.org/2000/svg" xml:space="preserve" viewBox="0 0 193.05421 73.436836" version="1.1" xmlns:cc="http://creativecommons.org/ns#" xmlns:dc="http://purl.org/dc/elements/1.1/"><g transform="matrix(1.25 0 0 -1.25 -286.69 532.38)"><g><path d="m278.63 393.23-0.002 23.412c0 1.8132-1.4764 3.2895-3.2892 3.2895h-20.748c0.0787 0.69357-0.002 1.6634-0.46952 2.6666-0.90567 1.94-4.0186 2.485-4.0186 2.485s-1.3774-2.0452 1.158-5.1516h-18.05c-1.8135 0-3.2899-1.4763-3.2899-3.2895v-23.322l-0.001-0.1287c0-1.0362-0.32558-6.4108 5.4612-12.185 0 0 5.8187-6.3256 17.178-12.698 0.40933-0.2295 1.1859-0.37525 1.6634-0.37525 0.48075 0 0.95934 0.10405 1.3857 0.30165 7.2059 3.3047 16.602 11.994 16.999 12.362l-0.002 0.003c0.0507 0.046 0.0961 0.0899 0.13595 0.1298 5.6063 5.9521 5.8902 11.447 5.8902 12.5" fill="#fff"/><path d="m234.56 415.68c-0.26068 0-0.47241-0.20955-0.47241-0.47168v-21.735l-0.003-0.124c0-0.79 0.23095-4.9823 4.7608-9.7927 0.0943-0.0914 8.6753-8.146 15.08-11.085 0.12544-0.058 0.28751-0.058 0.4144 0 6.3136 2.8968 15.067 10.98 15.155 11.062 4.9587 5.2633 4.7908 9.775 4.7803 9.9653l0.002 21.709c0 0.26213-0.21317 0.47168-0.47312 0.47168h-39.243m135.73-27.523h2.9654l2.8116-4.7502 2.7957 4.7502h2.949l-4.4638-7.411v-4.615h-2.6449v4.681l-4.4131 7.3451m-9.9374-2.2236v2.2236h9.8529v-2.2236h-3.6038v-9.8025h-2.6452v9.8025h-3.6038m-4.0259-9.8025h2.6442v12.026h-2.6442v-12.026zm-8.9095 2.9636c0.14575-0.28135 0.33862-0.50795 0.58117-0.68125 0.24038-0.17438 0.52463-0.30345 0.84948-0.3872 0.32595-0.0856 0.6624-0.12728 1.0108-0.12728 0.23603 0 0.4891 0.0199 0.7581 0.0595 0.27013 0.0381 0.5221 0.11492 0.75813 0.22767 0.2353 0.11133 0.43252 0.26505 0.59025 0.463 0.15552 0.1947 0.2342 0.44558 0.2342 0.74905 0 0.3252-0.10295 0.59025-0.31107 0.79218-0.20703 0.20122-0.47931 0.3709-0.81686 0.5047-0.33645 0.13487-0.71785 0.25305-1.1453 0.3535-0.42673 0.10187-0.85925 0.2128-1.2962 0.33717-0.44993 0.1113-0.8868 0.24943-1.3146 0.41185-0.42637 0.16388-0.80777 0.37345-1.145 0.63305-0.3368 0.25813-0.60983 0.58008-0.8172 0.96765-0.20775 0.38795-0.31218 0.856-0.31218 1.4064 0 0.61745 0.13198 1.1533 0.3963 1.609 0.26393 0.45392 0.60873 0.83387 1.0354 1.1362 0.4271 0.30382 0.91075 0.52825 1.4484 0.674 0.53985 0.14682 1.0786 0.22007 1.6178 0.22007 0.62867 0 1.232-0.0711 1.8102-0.21102 0.57827-0.14103 1.0928-0.36763 1.5412-0.68305 0.44957-0.31325 0.80597-0.7157 1.0703-1.204 0.2643-0.4891 0.3959-1.0801 0.3959-1.7769h-2.56c-0.0225 0.35965-0.0997 0.65623-0.22768 0.8926-0.13017 0.23567-0.30165 0.42057-0.51447 0.5558-0.21283 0.1356-0.45755 0.23097-0.73238 0.2868-0.27482 0.0555-0.5761 0.0841-0.90132 0.0841-0.21283 0-0.426-0.0232-0.63993-0.0674-0.21352-0.0453-0.40677-0.12362-0.58045-0.2364-0.17547-0.11237-0.31795-0.25197-0.42962-0.41982-0.11203-0.16933-0.16933-0.38142-0.16933-0.64065 0-0.2353 0.0453-0.42673 0.13488-0.57358 0.0896-0.14537 0.2683-0.28062 0.53115-0.4028 0.26322-0.12327 0.6276-0.24724 1.0949-0.3709 0.46518-0.12362 1.0754-0.28135 1.8262-0.47277 0.2255-0.0442 0.53695-0.12618 0.93612-0.24328 0.39845-0.1182 0.79435-0.30635 1.1866-0.56415 0.39375-0.25885 0.73418-0.60365 1.0199-1.0362 0.28642-0.43218 0.43-0.98435 0.43-1.658 0-0.5518-0.10768-1.0623-0.3205-1.5344-0.2139-0.47095-0.53153-0.87813-0.95208-1.22-0.42095-0.34373-0.94302-0.60983-1.5663-0.80128-0.6236-0.19032-1.3447-0.28567-2.1648-0.28567-0.66132 0-1.306 0.0808-1.9284 0.24362-0.62397 0.16316-1.1729 0.41875-1.65 0.76683-0.47785 0.34877-0.85745 0.79182-1.1381 1.3302-0.27952 0.5402-0.41512 1.1783-0.40387 1.9208h2.56c0-0.40425 0.074-0.74723 0.22008-1.0278m-7.6986 9.0625c0.53985 0 1.0238-0.0877 1.4575-0.2614 0.43145-0.17329 0.80235-0.41185 1.1116-0.71532 0.30962-0.30345 0.54495-0.6555 0.70737-1.0536 0.1617-0.39808 0.24363-0.82773 0.24363-1.2885 0-0.707-0.149-1.3201-0.44558-1.8364-0.29767-0.51555-0.78312-0.90893-1.4564-1.1776v-0.0344c0.32413-0.0899 0.59388-0.2266 0.80705-0.41187 0.21463-0.18528 0.38685-0.4057 0.52318-0.65733 0.13415-0.25342 0.23385-0.53042 0.29402-0.83387 0.0617-0.30383 0.10408-0.6073 0.12655-0.90968 0.0112-0.19105 0.0217-0.41585 0.0337-0.67397 0.0109-0.25925 0.0305-0.5221 0.0591-0.7922 0.0276-0.2683 0.0729-0.52463 0.13415-0.7661 0.0631-0.2411 0.15445-0.4474 0.2781-0.6138h-2.6431c-0.14683 0.38033-0.23675 0.83497-0.2701 1.364-0.0337 0.52607-0.0852 1.0329-0.153 1.5155-0.0896 0.62903-0.2788 1.0902-0.5714 1.381-0.29295 0.2926-0.76935 0.43835-1.4321 0.43835h-2.6438v-4.6988h-2.6442v12.026h6.4836m-0.94337-5.4413c0.60617 0 1.0616 0.13415 1.3639 0.40425 0.3042 0.26975 0.45503 0.70735 0.45503 1.3146 0 0.5837-0.15083 1.0083-0.45503 1.2722-0.30237 0.26215-0.75775 0.3952-1.3639 0.3952h-2.8961v-3.3863h2.8961zm-7.4608 5.4413v-2.2236h-6.351v-2.5767h5.8274v-2.055h-5.8274v-2.9472h6.4854v-2.2236h-9.1292v12.026h8.9948m-16.996-12.026-3.8921 12.026h2.7134l2.6764-8.4549h0.0341l2.7126 8.4549h2.7294l-3.9928-12.026h-2.981m-7.58 0h2.6431v12.026h-2.6431v-12.026zm-9.854 12.026 5.0196-8.0673h0.0344v8.0673h2.4756v-12.026h-2.6441l-5.0026 8.0492h-0.0337v-8.0492h-2.4763v12.026h2.6271m-6.2654-11.109c-0.9093-0.7922-2.167-1.1874-3.7732-1.1874-1.6286 0-2.8885 0.39337-3.7815 1.179-0.89263 0.7853-1.3386 1.9984-1.3386 3.639v7.4781h2.6445v-7.4781c0-0.32705 0.0276-0.64645 0.0838-0.9608 0.0566-0.31433 0.17404-0.59205 0.35387-0.8328 0.17982-0.24328 0.42963-0.4394 0.7494-0.59095 0.32015-0.15083 0.74942-0.22588 1.2886-0.22588 0.94337 0 1.5938 0.20883 1.9542 0.63085 0.35857 0.42055 0.53877 1.0797 0.53877 1.9796v7.4781h2.6445v-7.4781c0-1.6286-0.45465-2.8392-1.3643-3.6307m84.081 16.083c0.16025-0.27953 0.37345-0.50723 0.6381-0.6816 0.26612-0.1744 0.5772-0.30238 0.93615-0.38758 0.35782-0.0845 0.72837-0.1269 1.112-0.1269 0.25997 0 0.53695 0.0206 0.8328 0.0591 0.29767 0.0402 0.57575 0.11528 0.83425 0.22768 0.26032 0.1113 0.47605 0.26612 0.64862 0.46335 0.17258 0.19577 0.25923 0.44595 0.25923 0.74977 0 0.32523-0.1142 0.58915-0.3419 0.79148-0.22985 0.20192-0.52933 0.37125-0.8995 0.5054-0.3698 0.13595-0.78965 0.25307-1.2595 0.3535-0.47025 0.10077-0.9452 0.21317-1.4263 0.33717-0.4949 0.1113-0.97565 0.24945-1.4466 0.41188-0.46805 0.16277-0.889 0.37342-1.2584 0.63302-0.37163 0.25705-0.6711 0.57938-0.8995 0.96658-0.22805 0.3883-0.3419 0.85637-0.3419 1.4074 0 0.61672 0.14357 1.153 0.43545 1.608 0.28967 0.45537 0.6689 0.8339 1.1399 1.1374 0.46843 0.30347 0.99923 0.52825 1.592 0.674 0.59315 0.14612 1.1874 0.219 1.7794 0.219 0.69175 0 1.3552-0.07 1.9904-0.21103 0.63593-0.13995 1.203-0.36762 1.6964-0.68197 0.49345-0.31433 0.88573-0.71533 1.1758-1.204 0.29077-0.4891 0.43617-1.0812 0.43617-1.778h-2.8153c-0.0265 0.36075-0.1095 0.65732-0.25053 0.893-0.14285 0.23637-0.3321 0.42165-0.56525 0.5576-0.23492 0.13415-0.50395 0.22877-0.80632 0.2857-0.30383 0.0555-0.63303 0.083-0.99123 0.083-0.23495 0-0.46915-0.0217-0.70482-0.0671-0.23565-0.0453-0.4474-0.12435-0.63848-0.23675-0.1925-0.11203-0.34877-0.25087-0.47312-0.41948-0.12328-0.16967-0.18528-0.3825-0.18528-0.64065 0-0.2353 0.0489-0.42672 0.14865-0.57357 0.0986-0.14393 0.29295-0.27988 0.58373-0.40315 0.28967-0.12328 0.69175-0.24728 1.2052-0.36945 0.5123-0.12435 1.1816-0.28208 2.0104-0.47315 0.24655-0.0453 0.58918-0.12615 1.0268-0.24435 0.4398-0.11713 0.87412-0.30528 1.3067-0.56378 0.43253-0.25815 0.80595-0.60402 1.1207-1.0355 0.31505-0.4329 0.47312-0.98435 0.47312-1.6587 0-0.5518-0.11747-1.0623-0.35204-1.5332-0.23531-0.47205-0.58298-0.8792-1.0464-1.2208-0.46443-0.3437-1.0391-0.61055-1.7236-0.80052-0.68705-0.19035-1.4792-0.28678-2.3809-0.28678-0.72875 0-1.4361 0.0805-2.1217 0.24435-0.68633 0.16173-1.2914 0.41878-1.8157 0.76573-0.52497 0.3488-0.94227 0.7922-1.2501 1.3313-0.30963 0.53913-0.45827 1.1798-0.44557 1.9198h2.8164c0-0.40315 0.0808-0.74577 0.24182-1.0271m-8.3189 9.0608 4.9464-12.025h-3.0187l-1.0021 2.6782h-4.9471l-1.0369-2.6782h-2.9276l5.003 12.025h2.9831m0.1657-7.3763-1.6674 4.4127h-0.0366l-1.7229-4.4127h3.4269zm-16.563-1.6844c0.1606-0.27953 0.37343-0.50723 0.63883-0.6816 0.26612-0.1744 0.5772-0.30238 0.93612-0.38758 0.35675-0.0845 0.72803-0.1269 1.1116-0.1269 0.26033 0 0.53695 0.0206 0.8328 0.0591 0.2973 0.0402 0.5754 0.11528 0.83463 0.22768 0.2603 0.1113 0.47602 0.26612 0.6486 0.46335 0.17222 0.19577 0.25888 0.44595 0.25888 0.74977 0 0.32523-0.11421 0.58915-0.3419 0.79148-0.22841 0.20192-0.52898 0.37125-0.89841 0.5054-0.37199 0.13595-0.79075 0.25307-1.261 0.3535-0.46988 0.10077-0.94483 0.21317-1.426 0.33717-0.49453 0.1113-0.97528 0.24945-1.4466 0.41188-0.46808 0.16277-0.88863 0.37342-1.2592 0.63302-0.3698 0.25705-0.67037 0.57938-0.89878 0.96658-0.22769 0.3883-0.34189 0.85637-0.34189 1.4074 0 0.61672 0.14467 1.153 0.43544 1.608 0.29003 0.45537 0.66928 0.8339 1.1399 1.1374 0.46807 0.30347 0.99957 0.52825 1.5916 0.674 0.59387 0.14612 1.1867 0.219 1.7798 0.219 0.69175 0 1.3552-0.07 1.9908-0.21103 0.63557-0.13995 1.2022-0.36762 1.696-0.68197 0.4938-0.31433 0.8861-0.71533 1.1765-1.204 0.2897-0.4891 0.43507-1.0812 0.43507-1.778h-2.8146c-0.0257 0.36075-0.10985 0.65732-0.25087 0.893-0.1425 0.23637-0.33102 0.42165-0.56633 0.5576-0.23384 0.13415-0.50177 0.22877-0.80525 0.2857-0.30345 0.0555-0.63264 0.083-0.99122 0.083-0.23495 0-0.46952-0.0217-0.70482-0.0671-0.23421-0.0453-0.4474-0.12435-0.63848-0.23675-0.19215-0.11203-0.34878-0.25087-0.47312-0.41948-0.12218-0.16967-0.18528-0.3825-0.18528-0.64065 0-0.2353 0.0493-0.42672 0.14865-0.57357 0.0986-0.14393 0.29257-0.27988 0.5848-0.40315 0.2886-0.12328 0.6914-0.24728 1.2041-0.36945 0.51229-0.12435 1.1816-0.28208 2.0104-0.47315 0.24655-0.0453 0.58918-0.12615 1.0279-0.24435 0.43832-0.11713 0.87412-0.30528 1.3059-0.56378 0.43253-0.25815 0.80598-0.60402 1.121-1.0355 0.31473-0.4329 0.47208-0.98435 0.47208-1.6587 0-0.5518-0.11712-1.0623-0.35132-1.5332-0.23603-0.47205-0.58373-0.8792-1.0474-1.2208-0.46371-0.3437-1.038-0.61055-1.7232-0.80052-0.6867-0.19035-1.4789-0.28678-2.3809-0.28678-0.72768 0-1.4358 0.0805-2.1214 0.24435-0.68487 0.16173-1.2911 0.41878-1.8153 0.76573-0.525 0.3488-0.9423 0.7922-1.2505 1.3313-0.3089 0.53913-0.45863 1.1798-0.44485 1.9198h2.816c0-0.40315 0.0805-0.74577 0.2411-1.0271m-13.063 9.0608 5.5207-8.0659h0.0377v8.0659h2.7236v-12.025h-2.9092l-5.5026 8.051h-0.0377v-8.051h-2.7228v12.025h2.8903m-8.9874 0 4.9489-12.025h-3.0201l-1.0018 2.6782h-4.9468l-1.038-2.6782h-2.927l5.0026 12.025h2.982m0.1664-7.3763-1.666 4.4127h-0.037l-1.7236-4.4127h3.4266zm-17.23 7.3763v-4.9845l5.1697 4.9845h3.631l-5.1694-4.7481 5.6704-7.2766h-3.6502l-3.9842 5.4061-1.6674-1.5326v-3.8736h-2.9084v12.025h2.9084m-9.1524 0c0.59242 0 1.1265-0.0867 1.6025-0.25922 0.47495-0.1744 0.88175-0.41298 1.2218-0.71643 0.34007-0.30347 0.5993-0.65442 0.77877-1.0525 0.1791-0.39918 0.26865-0.8277 0.26865-1.2889 0-0.70772-0.16422-1.3197-0.49162-1.836-0.32703-0.5163-0.86108-0.9093-1.6022-1.1787v-0.0333c0.35857-0.0899 0.65515-0.22767 0.889-0.41295 0.2353-0.18527 0.42637-0.40425 0.57537-0.6566 0.14755-0.2527 0.25598-0.53077 0.32413-0.8346 0.0682-0.3013 0.1142-0.60585 0.13887-0.90967 0.0119-0.19108 0.0247-0.41548 0.0366-0.6729 0.0127-0.25815 0.0337-0.5221 0.0653-0.79255 0.0315-0.26868 0.0797-0.5239 0.14755-0.76538 0.0689-0.24255 0.1704-0.4463 0.30637-0.6149h-2.9088c-0.16098 0.38215-0.2596 0.83643-0.29693 1.364-0.0373 0.52788-0.0917 1.0326-0.16642 1.5162-0.0986 0.62905-0.30963 1.0891-0.62975 1.381-0.32125 0.2926-0.8466 0.43943-1.5757 0.43943h-2.9084v-4.7006h-2.9084v12.025h7.1334m-1.0384-5.4399c0.66672 0 1.1685 0.13488 1.5017 0.40498 0.3332 0.26902 0.50035 0.70662 0.50035 1.3136 0 0.58372-0.16715 1.0083-0.50035 1.2722-0.33318 0.26323-0.83498 0.3952-1.5017 0.3952h-3.1866v-3.3859h3.1866zm-12.191 5.4398 4.9471-12.025h-3.0201l-1.0006 2.6782h-4.9471l-1.0373-2.6782h-2.9277l5.0026 12.025h2.9831m0.16643-7.3763-1.6674 4.4127h-0.037l-1.7232-4.4127h3.4276zm84.147 21.414 5.3702-8.0673h0.0355v8.0673h2.6496v-12.026h-2.829l-5.3543 8.0502h-0.0355v-8.0502h-2.6481v12.026h2.8116m-8.8856 0c0.57648 0 1.0968-0.087 1.5598-0.2603 0.46153-0.17475 0.85925-0.41295 1.1899-0.71677 0.32993-0.30238 0.5812-0.65408 0.75558-1.0532 0.1744-0.39808 0.26105-0.82663 0.26105-1.2882 0-0.70662-0.15953-1.3194-0.47678-1.836-0.31867-0.51627-0.83895-0.90857-1.5594-1.1783v-0.0337c0.34913-0.0895 0.637-0.2277 0.86543-0.41188 0.22877-0.186 0.41477-0.40497 0.5576-0.6584 0.14503-0.25235 0.24945-0.53007 0.31545-0.8339 0.0667-0.30127 0.11202-0.60582 0.1363-0.9082 0.0116-0.19142 0.0232-0.41585 0.0363-0.67435 0.012-0.25815 0.0323-0.5221 0.0631-0.79219 0.0286-0.26793 0.0776-0.52428 0.14465-0.76573 0.0653-0.24148 0.1639-0.44633 0.29657-0.6149h-2.8301c-0.15445 0.38105-0.25125 0.83677-0.2875 1.364-0.0359 0.52787-0.0906 1.0336-0.16172 1.5166-0.0979 0.62868-0.30201 1.0898-0.61308 1.3806-0.31325 0.29295-0.8241 0.4387-1.5314 0.4387h-2.8312v-4.6998h-2.8283v12.026h6.9379m-1.0105-5.4402c0.65043 0 1.1363 0.13415 1.4618 0.4039 0.32375 0.2701 0.48583 0.70773 0.48583 1.3146 0 0.5837-0.16208 1.0072-0.48583 1.2715-0.32557 0.26395-0.81142 0.3963-1.4618 0.3963h-3.0992v-3.3863h3.0992zm-7.9832 5.4402v-2.2236h-6.7947v-2.577h6.236v-2.0546h-6.236v-2.9476h6.9383v-2.2232h-9.768v12.026h9.6245m-20.149 0v-4.6143h5.2082v4.6143h2.8305v-12.026h-2.8305v5.1886h-5.2082v-5.1886h-2.8294v12.026h2.8294m-14.851-2.2236v2.2236h10.544v-2.2236h-3.8584v-9.8025h-2.829v9.8025h-3.8562m-2.8838-8.8842c-0.97273-0.79218-2.3189-1.1884-4.0374-1.1884-1.7424 0-3.0912 0.39337-4.0465 1.1794-0.95498 0.78565-1.4325 1.9988-1.4325 3.6386v7.4781h2.829v-7.4781c0-0.32595 0.0304-0.64645 0.0903-0.9597 0.0613-0.3158 0.18672-0.59353 0.37887-0.8339 0.19145-0.24255 0.4601-0.43943 0.802-0.5895 0.34115-0.15155 0.80232-0.2277 1.3788-0.2277 1.009 0 1.7058 0.21027 2.0902 0.63195 0.38432 0.42092 0.57828 1.08 0.57828 1.9788v7.4781h2.8287v-7.4781c0-1.6283-0.4862-2.8381-1.4597-3.6296m-23.61 7.546c0.2886 0.76862 0.70335 1.4397 1.2432 2.0122 0.54095 0.5725 1.2044 1.0221 1.9916 1.348 0.7871 0.32557 1.6732 0.4891 2.659 0.4891 0.99667 0 1.886-0.16353 2.6674-0.4891 0.7806-0.32593 1.4416-0.7755 1.9825-1.348 0.5413-0.57248 0.95498-1.2436 1.2428-2.0122 0.2886-0.7697 0.43363-1.6025 0.43363-2.5013 0-0.87703-0.14503-1.6928-0.43363-2.4516-0.28787-0.75702-0.70155-1.4172-1.2428-1.9788-0.54092-0.56195-1.2019-1.0014-1.9825-1.3226-0.78133-0.31942-1.6707-0.48002-2.6674-0.48002-0.9858 0-1.8719 0.1606-2.659 0.48002-0.78713 0.32123-1.4506 0.76065-1.9916 1.3226-0.53985 0.56163-0.9546 1.2218-1.2432 1.9788-0.2886 0.75885-0.43218 1.5746-0.43218 2.4516 0 0.8988 0.14358 1.7316 0.43218 2.5013m2.5865-3.9754c0.12615-0.47713 0.32665-0.90678 0.60327-1.2893 0.27665-0.38105 0.6374-0.68777 1.0819-0.91727 0.44375-0.2295 0.98505-0.34515 1.6221-0.34515 0.6363 0 1.1772 0.11565 1.6217 0.34515s0.80525 0.53622 1.0819 0.91727c0.27592 0.3825 0.47712 0.81215 0.6033 1.2893 0.12617 0.47675 0.18927 0.96875 0.18927 1.4742 0 0.52645-0.0631 1.0376-0.18927 1.5314-0.12618 0.4949-0.32738 0.9354-0.6033 1.3237-0.27663 0.38722-0.63738 0.69577-1.0819 0.92635-0.4445 0.2295-0.98542 0.34587-1.6217 0.34587-0.63703 0-1.1783-0.11637-1.6221-0.34587-0.4445-0.23058-0.80525-0.53913-1.0819-0.92635-0.27662-0.3883-0.47712-0.8288-0.60327-1.3237-0.12618-0.4938-0.18963-1.005-0.18963-1.5314 0-0.5054 0.0634-0.9974 0.18963-1.4742zm-11.994-1.5235c0.1559-0.28207 0.36292-0.50867 0.6218-0.68307 0.25812-0.17438 0.5616-0.30238 0.91002-0.3872 0.34805-0.0849 0.7088-0.12618 1.0808-0.12618 0.25307 0 0.52317 0.0196 0.81142 0.0591 0.2893 0.0395 0.5587 0.1142 0.81103 0.2266 0.2527 0.1124 0.4619 0.26613 0.63122 0.46298 0.16788 0.19725 0.25198 0.44777 0.25198 0.75015 0 0.3252-0.1113 0.58915-0.33282 0.79145-0.22226 0.20195-0.51448 0.37017-0.87486 0.50542-0.36002 0.13523-0.769 0.25343-1.2251 0.35385-0.45682 0.10043-0.91907 0.21283-1.3879 0.33718-0.48075 0.1113-0.94955 0.25017-1.406 0.41187-0.45648 0.16243-0.86508 0.37453-1.2254 0.63268-0.36075 0.25812-0.65188 0.57935-0.8745 0.96765-0.22188 0.38722-0.33318 0.85527-0.33318 1.4064 0 0.61818 0.14103 1.154 0.42383 1.609 0.28243 0.45465 0.65153 0.83388 1.108 1.1377 0.45683 0.30345 0.97348 0.52608 1.5503 0.6729 0.57683 0.14685 1.154 0.21973 1.7298 0.21973 0.6729 0 1.319-0.0711 1.9375-0.21103 0.61888-0.13992 1.1685-0.3687 1.6493-0.6816 0.48075-0.31542 0.86217-0.7157 1.1446-1.2048 0.28242-0.48838 0.4231-1.0819 0.4231-1.7776h-2.7391c-0.0239 0.35965-0.10478 0.65658-0.24328 0.89298-0.1385 0.2353-0.32122 0.42057-0.55 0.5558-0.22805 0.13487-0.4891 0.23057-0.78388 0.28677-0.29402 0.0562-0.61562 0.0837-0.96402 0.0837-0.22843 0-0.45648-0.0225-0.68453-0.0671-0.22877-0.0453-0.4358-0.12435-0.62214-0.23638-0.18673-0.1124-0.33936-0.25235-0.45973-0.41985-0.12-0.16967-0.1802-0.3825-0.1802-0.64065 0-0.23637 0.0479-0.4278 0.14395-0.57355 0.0965-0.14575 0.2857-0.281 0.5685-0.4039 0.2817-0.12327 0.67217-0.24655 1.1714-0.3698 0.49815-0.124 1.1504-0.28172 1.9556-0.47277 0.23928-0.0446 0.57283-0.12545 0.99958-0.24365 0.42635-0.1182 0.8502-0.30638 1.2708-0.56378 0.42022-0.25922 0.7835-0.60512 1.0906-1.0366 0.3071-0.43182 0.45974-0.98545 0.45974-1.6587 0-0.55073-0.11385-1.0623-0.343-1.5332-0.22767-0.47205-0.56702-0.87813-1.0173-1.2211-0.45103-0.343-1.0097-0.6102-1.6768-0.80018-0.66638-0.19107-1.439-0.28677-2.3156-0.28677-0.70882 0-1.397 0.0819-2.064 0.24435-0.6664 0.1628-1.2552 0.41912-1.766 0.76682-0.51047 0.34805-0.91618 0.79145-1.2167 1.3306-0.3002 0.53877-0.4445 1.1794-0.43217 1.9205h2.7395c0-0.40387 0.0779-0.74685 0.2342-1.0268" fill="#003087"/><path d="m26.758 2.3652c-0.624 1.4063 2.658 5.0039 2.658 5.0039-2.345 10.002-12.036 12.034-12.35 26.881-0.78-0.468-1.252-6.869-1.252-6.869-1.563 0.155-9.0267 27.567 13.727 32.496l1.281-24.063 1.643 24.063c4.944 0.614 20.22-6.388 15.758-24.01l-1.77 5.106c1.769-12.033-9.749-23.942-10.217-27.694 0 0-1.82 6.124-3.07 5.498-1.249-1.094 0.315-7.659-3.127-10.941 0-0.0001 1.409-4.2186-3.281-5.4708zm-22.057 6.336c-1.5033 0-2.7266 1.2237-2.7266 2.7268v29.162c-0.0009 0.063-0.0019 0.15-0.0019 0.15 0 1.224 0.3367 7.567 6.957 14.598 0 0 12.078 11.3 20.884 15.34 0.723 0.333 1.585 0.333 2.305 0 8.79-4.032 20.986-15.311 20.986-15.311 6.65-7.057 6.987-13.451 6.987-14.662l-0.002-0.152h0.002l-0.004-29.125c0-1.5031-1.221-2.7268-2.725-2.7268h-25.379c0.399 0.7613 0.674 1.5728 0.868 2.3948h24.511c0.185 0 0.332 0.147 0.332 0.332v29.119c0.002 0.051 0.002 0.158 0.002 0.158 0 1.054-0.306 6.621-6.316 13.004-0.484 0.447-11.815 10.919-20.264 14.795-0.093 0.043-0.213 0.042-0.305 0-8.454-3.878-19.656-14.352-20.128-14.795-6.0125-6.384-6.3168-11.904-6.3168-12.947v-0.194-29.14c0-0.185 0.1495-0.332 0.334-0.332h22c0.417-0.753 0.788-1.5446 1.1-2.3948h-23.1z" fill-rule="evenodd" transform="matrix(.8 0 0 -.8 229.35 425.9)" fill="#daaa00"/></g></g></svg>
