<?xml version="1.0" ?>
<svg xmlns="http://www.w3.org/2000/svg" version="1.2" viewBox="0 0 1069 1540">
	<style>
		.s0 { fill: #fcb315 } 
		.s1 { fill: #fcd00c } 
	</style>
	<g id="#fcb315ff">
		<path id="Layer" class="s0" d="m405.9 0.3c134.9 95.8 269.3 192.2 404.1 288-0.4 94.2 0.1 188.3-0.3 282.5 0.2 6.4-0.1 13.1 2.1 19.3 4.1 5.2 9.8 9.1 15.1 13.1 39.6 27.4 78.1 56.3 117.4 84.1 24.4 18.2 50.4 34.4 73.3 54.5 22.1 19.8 36.4 46.1 50.9 71.4 1 46.5 0 93.2 0.4 139.7 0.5 27.6-6.9 55.3-20.9 79.1-24 41.4-64.1 70.2-105.7 92-42 21.7-86.9 36.7-132.5 48.6 0-193.2 0.2-386.4-0.1-579.7-48.3-34.3-96.5-69-144.7-103.5-0.4 90.7 0.1 181.5-0.3 272.2-70.5-37.8-141.2-75.5-211.8-113.2-15.9-8.8-32.4-16.4-47.6-26.3 85.5-44.9 171.4-89.1 256.9-133.9-48.8-37.2-99.9-71.3-149.1-107.9-36-25.1-71-51.4-107.3-76 0.1-101.3-0.1-202.7 0.1-304z"/>
		<path id="Layer" class="s0" d="m92.8 437.4c51-33.7 109.3-54 167.8-70 0.8 193.4-0.7 386.8 0.8 580.1-0.6-0.2-1.9-0.5-2.6-0.7-62.8-45-126-89.6-188.5-134.9-29.2-20.4-49.5-50.6-65.5-81.9-0.5 70.8-0.2 141.5-0.2 212.3-0.2 19.2 2 38.7-3.5 57.4l-1.1-1.1v-410.9c3.5-18.3 4.5-37.3 11.4-54.8 14.7-40.3 46.2-72.2 81.4-95.5z"/>
		<path id="Layer" class="s0" d="m405.8 777.5c86.3 46.6 172.9 92.6 259.1 139.5v2.3c-24 12-47.9 24.1-71.7 36.2-61 32.8-123.5 62.8-184.1 96.1 74.3 54.9 150.2 107.7 225 161.9 9.9 7.4 20.1 14.2 30.7 20.6-0.3 102 0.8 204-0.6 305.9h-1.4c-3.4-3.2-6.8-6.2-10.3-9.1-130.7-93.6-261.6-186.9-392.1-280.7 0.1-86.1-0.4-172.2 0.1-258.3-0.6-15.2-1.8-30.7 3-45.4 46.2 36.1 95.2 68.5 142.4 103.3-0.2-90.8-0.1-181.6-0.1-272.3z"/>
	</g>
	<g id="#fcd00cff">
		<path id="Layer" class="s1" d="m810 288.3c62.3 44.9 124.9 89.5 187.3 134.3 19.9 13.8 38.5 30 51.5 50.6 14.8 22.5 20.6 49.8 20.1 76.4-0.3 87.9 0.5 175.8-0.4 263.6-14.5-25.3-28.8-51.6-50.9-71.4-22.9-20.1-48.9-36.3-73.3-54.5-39.3-27.8-77.8-56.7-117.4-84.1-5.3-4-11-7.9-15.1-13.1-2.2-6.2-1.9-12.9-2.1-19.3 0.4-94.2-0.1-188.3 0.3-282.5z"/>
		<path id="Layer" class="s1" d="m405.8 304.3c36.3 24.6 71.3 50.9 107.3 76 49.2 36.6 100.3 70.7 149.1 107.9-85.5 44.8-171.4 89-256.9 133.9 1.2-105.9 0.2-211.9 0.5-317.8z"/>
		<path id="Layer" class="s1" d="m4.8 730c16 31.3 36.3 61.5 65.5 81.9 62.5 45.3 125.7 89.9 188.5 134.9 2 81 0.3 162.1 0.8 243.2-0.3 19.9 1.5 39.9-0.6 59.7-54.6-40-110.1-78.9-165-118.5-23-16.7-47.7-32-65.1-55-9-10.8-13.3-24.3-20-36.4-6.4-12.5-3.9-26.9-7.8-40.1 5.5-18.7 3.3-38.2 3.5-57.4 0-70.8-0.3-141.5 0.2-212.3z"/>
		<path id="Layer" class="s1" d="m593.2 955.5c23.8-12.1 47.7-24.2 71.7-36.2-0.1 105 0 209.9-0.1 314.8-10.6-6.4-20.8-13.2-30.7-20.6-74.8-54.2-150.7-107-225-161.9 60.6-33.3 123.1-63.3 184.1-96.1z"/>
	</g>
</svg>