<svg xmlns="http://www.w3.org/2000/svg" viewBox="0 0 502.005 89.281"><linearGradient id="a" gradientUnits="userSpaceOnUse" x1="50.405" y1="-13.6037" x2="50.405" y2="98.9167"><stop offset=".0579" stop-color="#66caf9" stop-opacity="0"/><stop offset=".0864" stop-color="#66caf9" stop-opacity=".03"/><stop offset=".1179" stop-color="#66caf9" stop-opacity=".1"/><stop offset=".1508" stop-color="#66caf9" stop-opacity=".17"/><stop offset=".1854" stop-color="#66caf9" stop-opacity=".25"/><stop offset=".2196" stop-color="#66caf9" stop-opacity=".33"/><stop offset=".2619" stop-color="#66caf9" stop-opacity=".42"/><stop offset=".3056" stop-color="#66caf9" stop-opacity=".52"/><stop offset=".3552" stop-color="#66caf9" stop-opacity=".63"/><stop offset=".4162" stop-color="#66caf9" stop-opacity=".76"/><stop offset=".521" stop-color="#66caf9"/><stop offset=".5821" stop-color="#66caf9" stop-opacity=".87"/><stop offset=".6423" stop-color="#66caf9" stop-opacity=".75"/><stop offset=".7023" stop-color="#66caf9" stop-opacity=".62"/><stop offset=".7621" stop-color="#66caf9" stop-opacity=".5"/><stop offset=".8207" stop-color="#66caf9" stop-opacity=".37"/><stop offset=".8815" stop-color="#66caf9" stop-opacity=".25"/><stop offset=".9407" stop-color="#66caf9" stop-opacity=".12"/><stop offset=".9986" stop-color="#66caf9" stop-opacity="0"/><stop offset=".999" stop-color="#66caf9" stop-opacity="0"/></linearGradient><path d="M68.555 49.34c-1.4 6.1-10.7 9.1-20.7 6.7-10-2.4-16.9-9.2-15.5-15.2 1.4-6 10.7-9.1 20.7-6.7 10 2.3 16.9 9.1 15.5 15.2zm-19.6-20.5c6.9 1.7 13.1.6 13.8-2.3.7-3-4.3-6.7-11.3-8.3-6.9-1.7-13.1-.6-13.8 2.3-.7 3 4.4 6.7 11.3 8.3zm.4-17.8c5.8 1.4 10.9 1.1 11.3-.7.4-1.7-4-4.3-9.8-5.7-5.8-1.4-10.9-1.1-11.3.7-.4 1.8 4 4.3 9.8 5.7zm2.1 50c-6.9-1.7-13.1-.6-13.8 2.3-.7 3 4.4 6.7 11.3 8.3 6.9 1.7 13.1.6 13.8-2.3.7-2.9-4.3-6.6-11.3-8.3zm-.6 16.6c-5.8-1.4-10.9-1.1-11.3.7-.4 1.8 4 4.3 9.8 5.7 5.8 1.4 10.9 1.1 11.3-.7.4-1.8-4-4.3-9.8-5.7zm-33.2-31.3c-8.5-2-16.3.6-17.5 5.7-1.2 5.1 4.7 10.9 13.1 12.9 8.5 2 16.3-.6 17.5-5.7 1.2-5.1-4.6-10.9-13.1-12.9zm-3.3-4.4c5.8 1.4 11 .5 11.6-2 .5-2.5-3.7-5.6-9.5-7-5.8-1.4-11-.5-11.6 2-.6 2.5 3.7 5.6 9.5 7zm.2-15.1c5 1.2 9.2.9 9.6-.6.3-1.5-3.3-3.6-8.3-4.8s-9.2-.9-9.6.6c-.3 1.5 3.4 3.6 8.3 4.8zm1.9 42.3c-5.8-1.4-11-.5-11.6 2-.6 2.5 3.7 5.6 9.5 7s11 .5 11.6-2c.5-2.4-3.7-5.6-9.5-7zm-.6 14c-5-1.2-9.2-.9-9.6.6-.3 1.5 3.4 3.6 8.3 4.8 5 1.2 9.2.9 9.6-.6.3-1.5-3.4-3.6-8.3-4.8zm71.7-57.6c-8.5-2-16.3.6-17.5 5.7-1.2 5.1 4.7 10.9 13.1 12.9 8.5 2 16.3-.6 17.5-5.7 1.2-5.1-4.7-10.9-13.1-12.9zm-3.4-4.4c5.8 1.4 11 .5 11.6-2 .6-2.5-3.7-5.6-9.5-7s-11-.5-11.6 2c-.6 2.5 3.7 5.6 9.5 7zm.2-15c5 1.2 9.2.9 9.6-.6s-3.3-3.6-8.3-4.8c-5-1.2-9.2-.9-9.6.6-.3 1.5 3.4 3.6 8.3 4.8zm1.9 42.3c-5.8-1.4-11-.5-11.6 2-.6 2.5 3.7 5.6 9.5 7 5.8 1.4 11 .5 11.6-2 .6-2.5-3.7-5.6-9.5-7zm-.6 14c-5-1.2-9.2-.9-9.6.6-.3 1.5 3.4 3.6 8.3 4.8 5 1.2 9.2.9 9.6-.6s-3.3-3.7-8.3-4.8z" fill="url(#a)"/><path d="M173.505 44.74c1.9 2.4 2.9 5.4 2.9 9 0 4.8-1.6 8.7-4.8 11.8-3.2 3.1-7.2 4.7-11.9 4.7-4.5 0-8.2-1.3-11.1-4-2.9-2.7-4.7-6.4-5.4-11.2l7.9-1.7c.4 3 1 5.1 1.9 6.3 1.6 2.2 4 3.4 7 3.4 2.4 0 4.5-.8 6.1-2.4 1.6-1.6 2.4-3.7 2.4-6.2 0-1-.1-1.9-.4-2.8-.3-.8-.7-1.6-1.3-2.3-.6-.7-1.4-1.4-2.3-2-.9-.6-2.1-1.2-3.4-1.8l-5-2.1c-7.1-3-10.6-7.4-10.6-13.1 0-3.9 1.5-7.1 4.5-9.8 3-2.6 6.7-4 11.1-4 5.9 0 10.6 2.9 13.9 8.7l-6.3 3.8c-1.2-2.1-2.3-3.4-3.4-4-1.1-.7-2.6-1.1-4.3-1.1-2.2 0-4 .6-5.4 1.8-1.4 1.2-2.1 2.7-2.1 4.6 0 2.5 1.9 4.6 5.6 6.1l5.2 2.1c4.2 1.7 7.3 3.8 9.2 6.2zm47.6-22.9c3 2.9 4.5 6.6 4.5 11 0 4.7-1.6 8.5-4.8 11.3s-7.5 4.2-12.8 4.2h-3.6v20.9h-7.8v-51.7h8.8c4.3 0 7.6.3 9.8.9 2.2.6 4.2 1.7 5.9 3.4zm-3 10.9c0-5.3-3.7-8-11.1-8h-2.6v16.3h2.9c7.2 0 10.8-2.8 10.8-8.3zm16.6 36.5h8.4l5.8-12.6 3.3-7.3 8-17.6 7.7 17.6 3.2 7.3 5.4 12.6h8.5l-24.7-55-25.6 55zm85.1-22l16 22.1h-9.6l-14.8-21.2h-1.4v21.2h-7.8v-51.8h9.2c6.8 0 11.8 1.3 14.8 3.9 3.4 2.9 5 6.6 5 11.3 0 3.7-1.1 6.8-3.2 9.5-2 2.5-4.8 4.2-8.2 5zm-7.2-6c7.4 0 11.1-2.8 11.1-8.5 0-5.3-3.6-7.9-10.8-7.9h-2.8v16.4h2.5zm35.8-16.4h11.9v44.4h7.8v-44.4h11.9v-7.3h-31.6v7.3zm40.5 44.4h8.4l5.8-12.6 3.3-7.3 8-17.6 7.7 17.6 3.2 7.3 5.4 12.6h8.5l-24.7-55-25.6 55zm105.3-51.8v36l-37.7-39.5v55.3l7.8-.1v-36.2l37.7 39.4v-54.9h-7.8z" fill="#000"/></svg>