<?xml version="1.0" ?>
<svg xmlns="http://www.w3.org/2000/svg" id="Livello_1" data-name="Livello 1" viewBox="0 0 1000 437">
	<circle cx="757.75" cy="184.99" r="19.65"/>
	<circle cx="817.36" cy="184.99" r="19.65"/>
	<circle cx="876.96" cy="184.99" r="19.65"/>
	<path d="M747.38,236c-5.11-4.18-11.5-2.21-16.82,1.7-6.77,5-21.24,8.61-36,6.77a57.68,57.68,0,0,0,18.8-43.3,12,12,0,0,0-12.08-11.83c-6.6.07-11,5.53-11.83,12.08-1,8.53-2.83,16.25-8,22.41s-11.58,8.22-18.63,9.47c-6.15,1.08-11.31,4.91-11.78,11,0,.35,0,.71,0,1.06h0v.06q0,.57.07,1.14l0,.11c0,.36.1.72.17,1.07v.05a11.9,11.9,0,0,0,4.12,6.73c10.46,8.54,28,13.93,46.91,14.4q1.3,0,2.58,0c19.78,0,35.82-5.83,44.26-16.17A12,12,0,0,0,747.38,236Z"/>
	<path d="M104.87,243.57h20.33a1.46,1.46,0,0,1,1.42,1.22,16.9,16.9,0,0,0,6.74,10.79q6,4.45,15.86,4.44,8.53,0,14.06-3.64a11.35,11.35,0,0,0,5.53-10,10.37,10.37,0,0,0-4.44-8.54,28.82,28.82,0,0,0-11.31-5l-15.27-3.67q-17.64-4.73-25-13.79t-6.33-23q1.07-12.43,13.11-21.13a46.52,46.52,0,0,1,28-8.7,54.68,54.68,0,0,1,14.6,1.89,44,44,0,0,1,12.67,5.74,29,29,0,0,1,9.44,10.48,34.78,34.78,0,0,1,4,13.81,1.47,1.47,0,0,1-1.47,1.58H166.49a1.47,1.47,0,0,1-1.43-1.23,12,12,0,0,0-5.3-8.06,20,20,0,0,0-11.28-3.14,27.72,27.72,0,0,0-9.77,1.8q-4.82,1.8-6.51,4.68a12.13,12.13,0,0,0-1.14,10.33q1.75,5.4,13.67,8.77l17.53,4.34a50,50,0,0,1,14.93,6,28.46,28.46,0,0,1,9.16,8.66,35.49,35.49,0,0,1,4.28,9.26,33.92,33.92,0,0,1,1.25,9.2q0,15.91-12.45,24.93t-32.28,9a51.68,51.68,0,0,1-20.66-4.2,40.29,40.29,0,0,1-16.35-12.84,33,33,0,0,1-6.76-18.47A1.47,1.47,0,0,1,104.87,243.57Z"/>
	<path d="M209.19,331.13V167.26a2.18,2.18,0,0,1,2.18-2.18H232a2.18,2.18,0,0,1,2.18,2.18v14.42q6.21-10.78,20.54-16a50.73,50.73,0,0,1,17.85-3,56.2,56.2,0,0,1,27.67,7.26,54.06,54.06,0,0,1,20.57,20.83q7.73,13.57,7.73,30.93A64.62,64.62,0,0,1,324,246.07a54,54,0,0,1-12.25,18.7,55.24,55.24,0,0,1-18,11.7,57.23,57.23,0,0,1-21.76,4.16,52.75,52.75,0,0,1-22.5-4.84,32.5,32.5,0,0,1-15.39-13.93v69.27a2.18,2.18,0,0,1-2.18,2.18H211.37A2.18,2.18,0,0,1,209.19,331.13Zm25.22-109a34.14,34.14,0,0,0,5.09,18.68,32,32,0,0,0,12.79,11.88,36.61,36.61,0,0,0,16.57,3.84q14.44,0,24.21-9.51t9.77-24.88q0-15.6-9.77-25.47a32.71,32.71,0,0,0-24.21-9.87,33.82,33.82,0,0,0-24.45,9.69Q234.4,206.12,234.4,222.08Z"/>
	<path d="M347.33,252.47a59.81,59.81,0,0,1-8.13-31.1q0-17.37,8.13-31a54.79,54.79,0,0,1,21.49-20.71,65,65,0,0,1,59.14,0,54.45,54.45,0,0,1,21.53,20.71q8.1,13.59,8.1,31a60,60,0,0,1-8.1,31.1,54.76,54.76,0,0,1-21.58,20.94,63.94,63.94,0,0,1-59,0A55.09,55.09,0,0,1,347.33,252.47Zm16.85-31.1q0,15.6,9.87,25.35a33.22,33.22,0,0,0,24.29,9.75q14.54,0,24.41-9.75t9.87-25.35q0-15.25-9.87-24.7t-24.41-9.46q-14.42,0-24.29,9.46T364.18,221.37Z"/>
	<path d="M475.36,274.62v-169a2.18,2.18,0,0,1,2.18-2.18h20.61a2.18,2.18,0,0,1,2.18,2.18v96.79l34.8-36.18a3.64,3.64,0,0,1,2.62-1.12h28.49a1.46,1.46,0,0,1,1,2.48l-45.76,46.66,56.82,61.61a1.46,1.46,0,0,1-1.07,2.44h-27a3.64,3.64,0,0,1-2.68-1.18l-47.22-51.39v48.93a3.64,3.64,0,0,1-3.64,3.64H479A3.64,3.64,0,0,1,475.36,274.62Z"/>
	<path d="M588.08,276.07V167.26a2.18,2.18,0,0,1,2.18-2.18h20.61a2.18,2.18,0,0,1,2.18,2.18V276.07a2.18,2.18,0,0,1-2.18,2.18H590.26A2.18,2.18,0,0,1,588.08,276.07Z"/>
</svg>