<?xml version="1.0" ?>
<svg xmlns="http://www.w3.org/2000/svg" viewBox="0 0 65.5 23.9" xml:space="preserve">
	<style type="text/css">
	.st0{fill:url(#SVGID_1_);}
	.st1{fill:#6700E8;}
	.st2{fill:url(#SVGID_2_);}
	.st3{fill:url(#SVGID_3_);}
	.st4{fill:url(#SVGID_4_);}
	.st5{fill:url(#SVGID_5_);}
	.st6{fill:url(#SVGID_6_);}
	.st7{fill:url(#SVGID_7_);}
	.st8{fill:url(#SVGID_8_);}
	.st9{fill:url(#SVGID_9_);}
	.st10{fill:url(#SVGID_10_);}
	.st11{fill:url(#SVGID_11_);}
	.st12{fill:#200045;}
	.st13{fill:url(#SVGID_12_);}
	.st14{fill:url(#SVGID_13_);}
	.st15{fill:url(#SVGID_14_);}
	.st16{fill:url(#SVGID_15_);}
	.st17{fill:url(#SVGID_16_);}
	.st18{fill:url(#SVGID_17_);}
	.st19{fill:url(#SVGID_18_);}
	.st20{fill:url(#SVGID_19_);}
	.st21{fill:url(#SVGID_20_);}
	.st22{fill:url(#SVGID_21_);}
	.st23{fill:url(#SVGID_22_);}
	.st24{fill:url(#SVGID_23_);}
	.st25{fill:url(#SVGID_24_);}
	.st26{fill:#53546A;}
</style>
	<g transform="translate(1009.8 -337.49)">
		<g transform="matrix(.5 0 0 .5 -379.18 197.8)">
			<g>
				<linearGradient id="SVGID_1_" gradientUnits="userSpaceOnUse" x1="4017.2861" y1="-8858.166" x2="4023.3896" y2="-8824.5059" gradientTransform="matrix(0.3049 0 0 -0.3049 -2361.2344 -2398.0696)">
					<stop offset="0" style="stop-color:#210045"/>
					<stop offset="0.5942" style="stop-color:#430085"/>
					<stop offset="1" style="stop-color:#5000B2"/>
				</linearGradient>
				<path class="st0" d="M-1132.8,280.2c1,0.2,1.7,0.8,1.7,1.8c0,0.3-0.1,0.8-0.2,1.2c-0.7,2.9-3.3,13.3-4.3,20.2l-1-1l3.2-21.2     L-1132.8,280.2z"/>
				<path class="st1" d="M-1197.4,283.1c-1.3,0.3-2.7,0.3-3.9,0l2.1,2.1L-1197.4,283.1z"/>
				<path class="st1" d="M-1217.9,283.1c1.3,0.3,2.7,0.3,3.9,0l-2.1,2.1L-1217.9,283.1z"/>
				<linearGradient id="SVGID_2_" gradientUnits="userSpaceOnUse" x1="3705.8289" y1="-8795.9453" x2="3723.9053" y2="-8832.8252" gradientTransform="matrix(0.3049 0 0 -0.3049 -2361.2344 -2398.0696)">
					<stop offset="0" style="stop-color:#5500BD"/>
					<stop offset="1" style="stop-color:#5000AC"/>
				</linearGradient>
				<path class="st2" d="M-1229.5,283c3,7.7,7.8,19.2,10.2,23.7l-3.5-1.1l-8.7-21.7L-1229.5,283z"/>
				<path class="st1" d="M-1232.3,283c1,0.3,1.8,0.3,2.7,0l-2,1.2L-1232.3,283z"/>
				<linearGradient id="SVGID_3_" gradientUnits="userSpaceOnUse" x1="3717.428" y1="-8833.499" x2="3719.7827" y2="-8832.5938" gradientTransform="matrix(0.3049 0 0 -0.3049 -2361.2344 -2398.0696)">
					<stop offset="0" style="stop-color:#2A005A"/>
					<stop offset="1" style="stop-color:#210046"/>
				</linearGradient>
				<path class="st3" d="M-1230.9,283.9l8.9,21.7c-0.5,0.6-0.8,0.9-1.3,1.1c-2.6-6.6-5.3-13.2-7.7-19.7l-1.2-2L-1230.9,283.9z"/>
				<linearGradient id="SVGID_4_" gradientUnits="userSpaceOnUse" x1="3677.9138" y1="-8868.5732" x2="3690.3525" y2="-8836.4258" gradientTransform="matrix(0.3049 0 0 -0.3049 -2361.2344 -2398.0696)">
					<stop offset="0" style="stop-color:#21004E"/>
					<stop offset="1" style="stop-color:#39007F"/>
				</linearGradient>
				<path class="st4" d="M-1238.5,306.7l-2.6-0.9l9.2-21.6l1-0.3v3.2C-1232.3,291.2-1235.9,300.3-1238.5,306.7L-1238.5,306.7z"/>
				<path class="st1" d="M-1240.7,279.9l0.9,2l2.2-1l0.9-0.9C-1238.1,280.2-1239.4,280.2-1240.7,279.9L-1240.7,279.9z"/>
				<linearGradient id="SVGID_5_" gradientUnits="userSpaceOnUse" x1="3665.1089" y1="-8809.21" x2="3667.5334" y2="-8810.6445" gradientTransform="matrix(0.3049 0 0 -0.3049 -2361.2344 -2398.0696)">
					<stop offset="0" style="stop-color:#1B0041"/>
					<stop offset="1" style="stop-color:#21004F"/>
				</linearGradient>
				<path class="st5" d="M-1246.9,297.1l-1.5,0.6l-0.9-1.7l9.4-15l0.7-0.2c0.9-0.2,1.9-0.4,2.6-0.9     C-1238.2,281.9-1243.6,291.3-1246.9,297.1L-1246.9,297.1z"/>
				<linearGradient id="SVGID_6_" gradientUnits="userSpaceOnUse" x1="3675.0559" y1="-8782.251" x2="3662.1052" y2="-8809.3291" gradientTransform="matrix(0.3049 0 0 -0.3049 -2361.2344 -2398.0696)">
					<stop offset="0" style="stop-color:#5500BD"/>
					<stop offset="1" style="stop-color:#47008D"/>
				</linearGradient>
				<path class="st6" d="M-1248.9,296.9l0.4-0.4l9.3-15.7l-1.4-0.9c-1.1,2.1-5.3,8.8-7.9,13.2l-1.3,2.4L-1248.9,296.9z"/>
				<linearGradient id="SVGID_7_" gradientUnits="userSpaceOnUse" x1="3622.3276" y1="-8783.1094" x2="3635.2087" y2="-8809.9932" gradientTransform="matrix(0.3049 0 0 -0.3049 -2361.2344 -2398.0696)">
					<stop offset="0" style="stop-color:#5100B2"/>
					<stop offset="1" style="stop-color:#5500BD"/>
				</linearGradient>
				<path class="st7" d="M-1256.4,279.9c2.1,3.6,5.2,8.8,7.9,13.2v3.4l-0.6,0.6l-9.2-16.4L-1256.4,279.9z"/>
				<path class="st1" d="M-1257.9,280.9l1.5-1c-1.6,0.3-2.3,0.4-3.9,0l0.6,0.7L-1257.9,280.9z"/>
				<linearGradient id="SVGID_8_" gradientUnits="userSpaceOnUse" x1="3626.8374" y1="-8812.167" x2="3629.165" y2="-8810.6152" gradientTransform="matrix(0.3049 0 0 -0.3049 -2361.2344 -2398.0696)">
					<stop offset="0" style="stop-color:#27005D;stop-opacity:0.9804"/>
					<stop offset="0.3177" style="stop-color:#2B005D"/>
					<stop offset="0.5976" style="stop-color:#280055"/>
					<stop offset="0.8088" style="stop-color:#24004D"/>
					<stop offset="1" style="stop-color:#230049"/>
				</linearGradient>
				<path class="st8" d="M-1248.5,296.5l-0.7,1l-0.9-0.4c-1.8-3-6.9-12.3-10.2-17.2c0.7,0.5,1.5,0.7,2.6,0.9L-1248.5,296.5z"/>
				<linearGradient id="SVGID_9_" gradientUnits="userSpaceOnUse" x1="3647.8193" y1="-8836.5576" x2="3650.6111" y2="-8858.5537" gradientTransform="matrix(0.3049 0 0 -0.3049 -2361.2344 -2398.0696)">
					<stop offset="0" style="stop-color:#5500BD"/>
					<stop offset="1" style="stop-color:#5300B5"/>
				</linearGradient>
				<path class="st9" d="M-1246.6,309.8l-2.7-1.3l0.2-11.2l0.6-0.9l1.7,0.6L-1246.6,309.8z"/>
				<linearGradient id="SVGID_10_" gradientUnits="userSpaceOnUse" x1="3645.9094" y1="-8836.7793" x2="3645.9094" y2="-8858.5303" gradientTransform="matrix(0.3049 0 0 -0.3049 -2361.2344 -2398.0696)">
					<stop offset="0" style="stop-color:#210045"/>
					<stop offset="0.25" style="stop-color:#25004D"/>
					<stop offset="0.5" style="stop-color:#2B005C"/>
					<stop offset="0.7485" style="stop-color:#340071"/>
					<stop offset="1" style="stop-color:#3E0088"/>
				</linearGradient>
				<path class="st10" d="M-1248.5,308.9l-1.9,0.9l0.2-12.7l1.7-0.6L-1248.5,308.9z"/>
				<linearGradient id="SVGID_11_" gradientUnits="userSpaceOnUse" x1="3670.1658" y1="-8869.5762" x2="3688.6782" y2="-8832.5146" gradientTransform="matrix(0.3049 0 0 -0.3049 -2361.2344 -2398.0696)">
					<stop offset="0" style="stop-color:#4D00A1"/>
					<stop offset="1" style="stop-color:#5200B4"/>
				</linearGradient>
				<path class="st11" d="M-1242.4,306.7c3.3-6.7,6.9-15.7,10.1-23.7l1.4,0.8l-9,22l-1.8,0.6L-1242.4,306.7z"/>
				<path class="st12" d="M-1222.1,305.5l2.8,1.2c-1.1-0.3-2.5-0.4-3.9,0l0.5-1.3L-1222.1,305.5z"/>
				<linearGradient id="SVGID_12_" gradientUnits="userSpaceOnUse" x1="3686.8804" y1="-8844.0723" x2="3706.9314" y2="-8844.0723" gradientTransform="matrix(0.3049 0 0 -0.3049 -2361.2344 -2398.0696)">
					<stop offset="0" style="stop-color:#6700E8"/>
					<stop offset="0.506" style="stop-color:#6700E8"/>
					<stop offset="1" style="stop-color:#6700E8"/>
				</linearGradient>
				<path class="st13" d="M-1237,299l1.9-0.8c2.8,0.1,5.6,0.1,8.4,0l2,0.9l-1.8,0.4h-9.1L-1237,299z"/>
				<path class="st12" d="M-1235.7,299.8l-1.3-0.8c4.1-0.1,8.2-0.1,12.3,0l-1.3,0.8C-1229.3,299.7-1232.5,299.7-1235.7,299.8     L-1235.7,299.8z"/>
				<linearGradient id="SVGID_13_" gradientUnits="userSpaceOnUse" x1="3755.7527" y1="-8831.3936" x2="3759.0103" y2="-8831.3936" gradientTransform="matrix(0.3049 0 0 -0.3049 -2361.2344 -2398.0696)">
					<stop offset="0" style="stop-color:#5A00C9"/>
					<stop offset="1" style="stop-color:#4F00A8"/>
				</linearGradient>
				<path class="st14" d="M-1214,306.7l-2.8-0.9v-21.2l0.8-0.4l2-1.1C-1214.4,290.9-1214.4,298.8-1214,306.7L-1214,306.7z"/>
				<linearGradient id="SVGID_14_" gradientUnits="userSpaceOnUse" x1="3749.4346" y1="-8831.3906" x2="3752.6675" y2="-8831.3906" gradientTransform="matrix(0.3049 0 0 -0.3049 -2361.2344 -2398.0696)">
					<stop offset="0" style="stop-color:#390080"/>
					<stop offset="0.5" style="stop-color:#31006E"/>
					<stop offset="1" style="stop-color:#250056"/>
				</linearGradient>
				<path class="st15" d="M-1216,305.6v0.6l-2,0.6c0.3-7.9,0.3-15.8,0-23.7l2,1.1V305.6z"/>
				<linearGradient id="SVGID_15_" gradientUnits="userSpaceOnUse" x1="3803.5471" y1="-8831.3936" x2="3806.8962" y2="-8831.3936" gradientTransform="matrix(0.3049 0 0 -0.3049 -2361.2344 -2398.0696)">
					<stop offset="0" style="stop-color:#3F008B"/>
					<stop offset="1" style="stop-color:#220050"/>
				</linearGradient>
				<path class="st16" d="M-1201.4,306.7l2.8-0.9v-21.2l-0.8-0.4l-2-1.1C-1201,290.9-1201,298.8-1201.4,306.7L-1201.4,306.7z"/>
				<linearGradient id="SVGID_16_" gradientUnits="userSpaceOnUse" x1="3755.8674" y1="-8830.8242" x2="3782.998" y2="-8830.8242" gradientTransform="matrix(0.3049 0 0 -0.3049 -2361.2344 -2398.0696)">
					<stop offset="0" style="stop-color:#6700E8"/>
					<stop offset="0.5" style="stop-color:#6700E8"/>
					<stop offset="1" style="stop-color:#6700E8"/>
				</linearGradient>
				<path class="st17" d="M-1216,294.8l1.7-0.7c4.4,0.1,8.8,0.1,13.2,0l1.7,0.7l-2.1,0.5h-12.8L-1216,294.8z"/>
			</g>
			<linearGradient id="SVGID_17_" gradientUnits="userSpaceOnUse" x1="3882.8086" y1="-8800.9248" x2="3862.0022" y2="-8831.5723" gradientTransform="matrix(0.3049 0 0 -0.3049 -2361.2344 -2398.0696)">
				<stop offset="0" style="stop-color:#1C0044"/>
				<stop offset="0.1001" style="stop-color:#2F0065"/>
				<stop offset="0.2048" style="stop-color:#34006D"/>
				<stop offset="0.3" style="stop-color:#3B007A"/>
				<stop offset="0.4" style="stop-color:#3C007A"/>
				<stop offset="0.5" style="stop-color:#490096"/>
				<stop offset="0.6" style="stop-color:#5000AB"/>
				<stop offset="0.7003" style="stop-color:#5400BA"/>
				<stop offset="0.8031" style="stop-color:#5500BC"/>
				<stop offset="0.9" style="stop-color:#5700C2"/>
				<stop offset="1" style="stop-color:#5C00CE"/>
			</linearGradient>
			<path class="st18" d="M-1183.5,283c-7.7,0-11.6,4.8-11.6,11.9c0,8.8,5.8,11.9,11.5,11.9c6.7,0,11.5-3.8,11.5-11.9    C-1172.1,287.2-1176.6,283-1183.5,283L-1183.5,283z M-1183.8,284.2c0.1,0,0.1,0,0.2,0c5.1,0,8.9,3.5,8.9,10.8    c0,7.3-3.8,10.8-8.9,10.8c-5.6,0-8.9-4-8.9-10.7C-1192.4,287.3-1188.3,284.3-1183.8,284.2L-1183.8,284.2z"/>
			<linearGradient id="SVGID_18_" gradientUnits="userSpaceOnUse" x1="3835.9565" y1="-8864.4971" x2="3862.0107" y2="-8831.8711" gradientTransform="matrix(0.3049 0 0 -0.3049 -2361.2344 -2398.0696)">
				<stop offset="0" style="stop-color:#1B0041"/>
				<stop offset="0.1001" style="stop-color:#1B0041"/>
				<stop offset="0.2048" style="stop-color:#1B0041"/>
				<stop offset="0.3" style="stop-color:#240052"/>
				<stop offset="0.4" style="stop-color:#32006A"/>
				<stop offset="0.5" style="stop-color:#3D007D"/>
				<stop offset="0.6" style="stop-color:#490098"/>
				<stop offset="0.7003" style="stop-color:#4F00A8"/>
				<stop offset="0.8031" style="stop-color:#5500BC"/>
				<stop offset="0.9" style="stop-color:#5700C2"/>
				<stop offset="1" style="stop-color:#6000DA"/>
			</linearGradient>
			<path class="st19" d="M-1183.5,282.7c-8.4,0-12.8,5.3-12.8,12.2c0,7.5,4.8,12.1,12.7,12.1c8.6,0,12.8-5.2,12.8-12    C-1170.8,287.3-1175.8,282.7-1183.5,282.7L-1183.5,282.7z M-1183.5,283.5c6.6,0,11,4,11,11.4c0,7.7-4.6,11.4-11.1,11.4    c-5.4,0-11.1-2.9-11.1-11.4C-1194.7,288.2-1191,283.5-1183.5,283.5z"/>
			<linearGradient id="SVGID_19_" gradientUnits="userSpaceOnUse" x1="3976.2661" y1="-8795.1982" x2="3956.7849" y2="-8831.9883" gradientTransform="matrix(0.3049 0 0 -0.3049 -2361.2344 -2398.0696)">
				<stop offset="0" style="stop-color:#1E0046"/>
				<stop offset="0.1001" style="stop-color:#2D0061"/>
				<stop offset="0.2048" style="stop-color:#33006B"/>
				<stop offset="0.3" style="stop-color:#400082"/>
				<stop offset="0.4" style="stop-color:#490096"/>
				<stop offset="0.5" style="stop-color:#5000AC"/>
				<stop offset="0.6" style="stop-color:#5500BD"/>
				<stop offset="0.7003" style="stop-color:#4F00A8"/>
				<stop offset="0.8031" style="stop-color:#5500BC"/>
				<stop offset="0.9" style="stop-color:#5700C2"/>
				<stop offset="1" style="stop-color:#6000DA"/>
			</linearGradient>
			<path class="st20" d="M-1154.6,281.8c-7.9,0-13.2,4.4-13.2,13.1c0,8.5,5,13.2,13.3,13.2c6.3,0,13.1-3.2,13.1-13.1    C-1141.5,284.4-1149,281.8-1154.6,281.8L-1154.6,281.8z M-1154.7,282.8c6.3,0,10.9,3.8,10.9,12.2c0,9.1-5.6,12.1-10.9,12.1    c-5.6,0-10.8-3.3-10.8-12.2C-1165.4,285.5-1159.7,282.8-1154.7,282.8z"/>
			<linearGradient id="SVGID_20_" gradientUnits="userSpaceOnUse" x1="3932.0188" y1="-8871.457" x2="3956.7214" y2="-8832.1074" gradientTransform="matrix(0.3049 0 0 -0.3049 -2361.2344 -2398.0696)">
				<stop offset="0" style="stop-color:#1B0041"/>
				<stop offset="0.1001" style="stop-color:#1B0041"/>
				<stop offset="0.2048" style="stop-color:#1B0041"/>
				<stop offset="0.3" style="stop-color:#240052"/>
				<stop offset="0.4" style="stop-color:#32006A"/>
				<stop offset="0.5" style="stop-color:#3D007D"/>
				<stop offset="0.6" style="stop-color:#490098"/>
				<stop offset="0.7003" style="stop-color:#4F00A8"/>
				<stop offset="0.8031" style="stop-color:#5500BC"/>
				<stop offset="0.9" style="stop-color:#5700C2"/>
				<stop offset="1" style="stop-color:#6000DA"/>
			</linearGradient>
			<path class="st21" d="M-1154.7,281.3c-8.3,0-14.7,4.7-14.7,13.5c0,7.2,4.2,13.6,14.8,13.6c8.9,0,14.7-4.9,14.7-13.5    C-1139.9,286.9-1145.3,281.3-1154.7,281.3L-1154.7,281.3z M-1154.6,282.2c5.5,0,12.8,2.5,12.8,12.9c0,9.6-6.7,12.8-12.8,12.8    c-8,0-12.9-4.6-12.9-12.9C-1167.5,286.5-1162.3,282.2-1154.6,282.2z"/>
			<radialGradient id="SVGID_21_" cx="3173.8623" cy="4367.3789" r="3.2261" gradientTransform="matrix(-0.1096 0.3724 0.3911 0.1151 -2497.1833 -1377.8563)" gradientUnits="userSpaceOnUse">
				<stop offset="0" style="stop-color:#6000D8"/>
				<stop offset="0.2089" style="stop-color:#5C00CD"/>
				<stop offset="0.3742" style="stop-color:#5500BE"/>
				<stop offset="0.721" style="stop-color:#2D0062"/>
				<stop offset="1" style="stop-color:#210045"/>
			</radialGradient>
			<path class="st22" d="M-1139.2,308.1c0-1,0.6-2,1.9-2c1.2,0,2.1,0.7,2.1,1.8c0,1.4-0.9,1.9-1.8,1.9    C-1138.3,309.9-1139.2,309.3-1139.2,308.1L-1139.2,308.1z"/>
			<linearGradient id="SVGID_22_" gradientUnits="userSpaceOnUse" x1="4014.2412" y1="-8858.5645" x2="4019.0776" y2="-8825.1113" gradientTransform="matrix(0.3049 0 0 -0.3049 -2361.2344 -2398.0696)">
				<stop offset="0" style="stop-color:#47008D"/>
				<stop offset="1" style="stop-color:#5100B3"/>
			</linearGradient>
			<path class="st23" d="M-1137.2,303.2c1-6.8,1.5-13.9,2.1-21.1c0-1.4,0.9-2,1.9-2c0.2,0,0.4,0,0.4,0l-0.3,1.7l-3.4,21.1    L-1137.2,303.2z"/>
			<g>
				<path class="st12" d="M-1250.4,309.8l1.9-1.4l1.9,1.4c0,0-1-0.2-1.9-0.2C-1249.3,309.6-1250.4,309.8-1250.4,309.8L-1250.4,309.8z     "/>
				<path class="st12" d="M-1242.4,306.7l2.6-1.1c0.4,0.5,0.8,0.9,1.3,1.1C-1239.4,306.5-1240.9,306.3-1242.4,306.7L-1242.4,306.7z"/>
				<path class="st12" d="M-1217.9,306.7c1.3-0.3,2.6-0.3,3.9,0l-2-1.1L-1217.9,306.7z"/>
				<path class="st12" d="M-1214.3,295.7l-1.7-0.9c5.5,0.1,11,0.1,16.5,0l-1.7,0.9C-1205.5,295.6-1209.9,295.7-1214.3,295.7     L-1214.3,295.7z"/>
			</g>
			<g>
				<linearGradient id="SVGID_23_" gradientUnits="userSpaceOnUse" x1="3810.0928" y1="-8831.3906" x2="3813.3308" y2="-8831.3906" gradientTransform="matrix(0.3049 0 0 -0.3049 -2361.2344 -2398.0696)">
					<stop offset="0" style="stop-color:#5500BD"/>
					<stop offset="1" style="stop-color:#5200B2"/>
				</linearGradient>
				<path class="st24" d="M-1199.4,305.6v0.6l2,0.6c-0.3-7.9-0.3-15.8,0-23.7l-2,1.1V305.6z"/>
				<path class="st12" d="M-1197.4,306.7c-1.3-0.3-2.6-0.3-3.9,0l2-1.1L-1197.4,306.7z"/>
				<path class="st12" d="M-1136.4,302.5l-0.9,0.8c0.6-0.1,1,0,1.5,0.2L-1136.4,302.5z"/>
				<radialGradient id="SVGID_24_" cx="-6318.8179" cy="6994.0864" r="2.9089" gradientTransform="matrix(-0.404 -7.232940e-02 -5.167839e-02 0.2887 -3324.4136 -2194.7483)" gradientUnits="userSpaceOnUse">
					<stop offset="0" style="stop-color:#6700E8"/>
					<stop offset="0.3994" style="stop-color:#5C00CE"/>
					<stop offset="0.7012" style="stop-color:#5600BF;stop-opacity:4.504500e-02"/>
					<stop offset="1" style="stop-color:#220047;stop-opacity:0"/>
				</radialGradient>
				<ellipse class="st25" cx="-1133.2" cy="281.9" rx="1.9" ry="1.7"/>
			</g>
		</g>
	</g>
	<g>
		<path class="st26" d="M18.3,22.9c-0.3,0-0.6,0-0.9-0.1c-0.3-0.1-0.5-0.2-0.6-0.3c-0.2-0.1-0.3-0.3-0.4-0.5s-0.2-0.4-0.2-0.6h1   c0,0.1,0.1,0.3,0.1,0.4s0.1,0.2,0.2,0.3s0.2,0.2,0.3,0.2c0.1,0.1,0.3,0.1,0.5,0.1c0.1,0,0.2,0,0.3,0c0.1,0,0.2-0.1,0.3-0.1   c0.1-0.1,0.2-0.1,0.2-0.2s0.1-0.2,0.1-0.3c0-0.2,0-0.3-0.1-0.4c-0.1-0.1-0.2-0.2-0.3-0.4c-0.1-0.1-0.3-0.2-0.5-0.3   c-0.2-0.1-0.4-0.2-0.6-0.3s-0.4-0.2-0.6-0.3c-0.2-0.1-0.3-0.2-0.5-0.3c-0.1-0.1-0.3-0.3-0.3-0.4c-0.1-0.2-0.1-0.3-0.1-0.5   c0-0.2,0-0.4,0.1-0.6s0.2-0.4,0.4-0.5s0.4-0.2,0.7-0.3s0.6-0.1,0.9-0.1c0.3,0,0.5,0,0.8,0.1s0.4,0.2,0.6,0.3   c0.2,0.1,0.3,0.3,0.4,0.5c0.1,0.2,0.2,0.4,0.3,0.6h-0.9c0-0.1-0.1-0.3-0.2-0.4s-0.1-0.2-0.2-0.3c-0.1-0.1-0.2-0.2-0.4-0.2   c-0.1-0.1-0.3-0.1-0.5-0.1c-0.2,0-0.3,0-0.5,0.1s-0.2,0.1-0.3,0.2s-0.1,0.2-0.2,0.2s0,0.2,0,0.3c0,0.2,0,0.3,0.1,0.4   c0.1,0.1,0.2,0.2,0.4,0.3c0.1,0.1,0.3,0.2,0.5,0.3c0.2,0.1,0.4,0.2,0.6,0.3s0.4,0.2,0.6,0.3s0.4,0.2,0.5,0.4   c0.1,0.1,0.3,0.3,0.4,0.4s0.1,0.3,0.1,0.5c0,0.2,0,0.4-0.1,0.6s-0.2,0.4-0.4,0.5c-0.2,0.1-0.4,0.3-0.7,0.3   C19,22.8,18.7,22.9,18.3,22.9z"/>
		<path class="st26" d="M22,17.1h2c0.3,0,0.6,0,0.9,0.1s0.5,0.2,0.7,0.3c0.2,0.1,0.4,0.3,0.5,0.5c0.1,0.2,0.2,0.4,0.2,0.7   c0,0.3-0.1,0.5-0.2,0.7c-0.1,0.2-0.3,0.4-0.5,0.5s-0.4,0.2-0.6,0.3c-0.2,0.1-0.5,0.1-0.7,0.1h-0.8v2.5H22V17.1z M23.4,19.8h0.5   c0.2,0,0.3,0,0.4-0.1s0.2-0.1,0.3-0.2c0.1-0.1,0.1-0.2,0.2-0.3c0-0.1,0.1-0.3,0.1-0.4c0-0.2,0-0.3-0.1-0.4   c-0.1-0.1-0.1-0.2-0.2-0.3c-0.1-0.1-0.2-0.2-0.3-0.2s-0.2-0.1-0.4-0.1h-0.4V19.8z"/>
		<path class="st26" d="M30.7,22.9c-0.5,0-0.9-0.1-1.3-0.2s-0.7-0.4-1-0.6c-0.3-0.3-0.5-0.6-0.7-0.9c-0.2-0.4-0.2-0.8-0.2-1.2   c0-0.4,0.1-0.8,0.2-1.2s0.4-0.7,0.7-0.9c0.3-0.3,0.6-0.5,1-0.6c0.4-0.1,0.8-0.2,1.3-0.2s0.9,0.1,1.3,0.2s0.7,0.3,1,0.6   c0.3,0.3,0.5,0.6,0.7,0.9c0.2,0.4,0.2,0.7,0.2,1.2c0,0.3,0,0.6-0.1,0.8c-0.1,0.3-0.2,0.5-0.3,0.7c-0.1,0.2-0.3,0.4-0.5,0.6   s-0.4,0.3-0.6,0.4c-0.2,0.1-0.5,0.2-0.8,0.3C31.3,22.9,31,22.9,30.7,22.9z M30.7,22.4c0.3,0,0.5-0.1,0.7-0.2   c0.2-0.1,0.4-0.3,0.5-0.5c0.1-0.2,0.2-0.5,0.3-0.8s0.1-0.6,0.1-1c0-0.4,0-0.7-0.1-1s-0.2-0.6-0.3-0.8s-0.3-0.4-0.5-0.5   c-0.2-0.1-0.5-0.2-0.7-0.2c-0.3,0-0.5,0.1-0.7,0.2s-0.4,0.3-0.5,0.5c-0.1,0.2-0.2,0.5-0.3,0.8s-0.1,0.6-0.1,1c0,0.4,0,0.7,0.1,1   s0.2,0.6,0.3,0.8c0.1,0.2,0.3,0.4,0.5,0.5S30.5,22.4,30.7,22.4z"/>
		<path class="st26" d="M35.5,17.1h2.1c0.4,0,0.7,0,1,0.1s0.5,0.2,0.7,0.3c0.2,0.1,0.3,0.3,0.4,0.5c0.1,0.2,0.1,0.4,0.1,0.6   c0,0.2,0,0.3-0.1,0.5c-0.1,0.1-0.1,0.3-0.3,0.4c-0.1,0.1-0.2,0.2-0.4,0.3s-0.3,0.2-0.5,0.2l2,2.7H39l-1.9-2.5h-0.2v2.5h-1.4V17.1z    M36.9,19.7h0.3c0.2,0,0.3,0,0.5-0.1c0.1,0,0.3-0.1,0.4-0.2c0.1-0.1,0.2-0.2,0.2-0.3c0.1-0.1,0.1-0.3,0.1-0.4c0-0.1,0-0.3-0.1-0.4   c0-0.1-0.1-0.2-0.2-0.3s-0.2-0.2-0.3-0.2c-0.1,0-0.2-0.1-0.4-0.1h-0.6V19.7z"/>
		<path class="st26" d="M45.7,17.1v0.5h-1.9v5.1h-1.4v-5.1h-2v-0.5H45.7z"/>
		<path class="st26" d="M48.9,22.9c-0.3,0-0.6,0-0.9-0.1s-0.5-0.2-0.6-0.3c-0.2-0.1-0.3-0.3-0.4-0.5c-0.1-0.2-0.2-0.4-0.2-0.6h1   c0,0.1,0.1,0.3,0.1,0.4s0.1,0.2,0.2,0.3c0.1,0.1,0.2,0.2,0.3,0.2c0.1,0.1,0.3,0.1,0.5,0.1c0.1,0,0.2,0,0.3,0c0.1,0,0.2-0.1,0.3-0.1   c0.1-0.1,0.2-0.1,0.2-0.2c0.1-0.1,0.1-0.2,0.1-0.3c0-0.2,0-0.3-0.1-0.4s-0.2-0.2-0.3-0.4c-0.1-0.1-0.3-0.2-0.5-0.3   c-0.2-0.1-0.4-0.2-0.6-0.3S48,20,47.8,19.9s-0.3-0.2-0.5-0.3c-0.1-0.1-0.3-0.3-0.3-0.4s-0.1-0.3-0.1-0.5c0-0.2,0-0.4,0.1-0.6   c0.1-0.2,0.2-0.4,0.4-0.5s0.4-0.2,0.7-0.3S48.7,17,49,17c0.3,0,0.5,0,0.8,0.1c0.2,0.1,0.4,0.2,0.6,0.3c0.2,0.1,0.3,0.3,0.4,0.5   c0.1,0.2,0.2,0.4,0.3,0.6h-0.9c0-0.1-0.1-0.3-0.2-0.4s-0.1-0.2-0.2-0.3c-0.1-0.1-0.2-0.2-0.4-0.2c-0.1-0.1-0.3-0.1-0.5-0.1   c-0.2,0-0.3,0-0.5,0.1s-0.2,0.1-0.3,0.2c-0.1,0.1-0.1,0.2-0.2,0.2s0,0.2,0,0.3c0,0.2,0,0.3,0.1,0.4c0.1,0.1,0.2,0.2,0.4,0.3   c0.1,0.1,0.3,0.2,0.5,0.3c0.2,0.1,0.4,0.2,0.6,0.3s0.4,0.2,0.6,0.3s0.4,0.2,0.5,0.4c0.1,0.1,0.3,0.3,0.4,0.4s0.1,0.3,0.1,0.5   c0,0.2,0,0.4-0.1,0.6c-0.1,0.2-0.2,0.4-0.4,0.5s-0.4,0.3-0.7,0.3C49.6,22.8,49.3,22.9,48.9,22.9z"/>
	</g>
</svg>