<?xml version="1.0" ?>
<!--Generator: Adobe Illustrator 24.0.3, SVG Export Plug-In . SVG Version: 6.00 Build 0)-->
<svg xmlns="http://www.w3.org/2000/svg" version="1.2" id="Isolation_Mode" baseProfile="tiny-ps" viewBox="0 0 62.36 62.36" xml:space="preserve">
	<g id="XMLID_6_">
		<g id="XMLID_365_">
			<path id="XMLID_366_" fill="#DA451B" d="M44.73,12.23h-27.6c-9.7,0.9-10,10-10,10s0,7.5,0,17.4s10,10.5,10,10.5s18,0,27.6,0    s10.5-9.6,10.5-9.6v-18.9C54.33,12.23,44.73,12.23,44.73,12.23z M43.43,15.83c0.9,0,1.6,0.7,1.6,1.6s-0.7,1.6-1.6,1.6    c-0.9,0-1.6-0.7-1.6-1.6S42.63,15.83,43.43,15.83z M39.63,15.83c0.9,0,1.6,0.7,1.6,1.6s-0.7,1.6-1.6,1.6c-0.9,0-1.6-0.7-1.6-1.6    C38.03,16.53,38.73,15.83,39.63,15.83z M39.53,31.83c0.9,0,1.6,0.7,1.6,1.6c0,0.9-0.7,1.6-1.6,1.6c-0.9,0-1.6-0.7-1.6-1.6    S38.63,31.83,39.53,31.83z M37.93,25.33c0-0.9,0.7-1.6,1.6-1.6c0.9,0,1.6,0.7,1.6,1.6s-0.7,1.6-1.6,1.6S37.93,26.23,37.93,25.33z     M35.63,19.83c0.9,0,1.6,0.7,1.6,1.6s-0.7,1.6-1.6,1.6s-1.6-0.7-1.6-1.6C34.03,20.53,34.73,19.83,35.63,19.83z M27.83,19.83    c0.9,0,1.6,0.7,1.6,1.6s-0.7,1.6-1.6,1.6c-0.9,0-1.6-0.7-1.6-1.6C26.23,20.53,26.93,19.83,27.83,19.83z M23.93,15.83    c0.9,0,1.6,0.7,1.6,1.6s-0.7,1.6-1.6,1.6c-0.9,0-1.6-0.7-1.6-1.6S23.03,15.83,23.93,15.83z M25.53,25.33c0,0.9-0.7,1.6-1.6,1.6    c-0.9,0-1.6-0.7-1.6-1.6s0.7-1.6,1.6-1.6C24.83,23.73,25.53,24.43,25.53,25.33z M19.93,15.73c0.9,0,1.6,0.7,1.6,1.6    s-0.7,1.6-1.6,1.6c-0.9,0-1.6-0.7-1.6-1.6S19.03,15.73,19.93,15.73z M21.53,21.43c0,0.9-0.7,1.6-1.6,1.6c-0.9,0-1.6-0.7-1.6-1.6    s0.7-1.6,1.6-1.6C20.83,19.83,21.53,20.53,21.53,21.43z M16.03,46.73c-0.9,0-1.6-0.7-1.6-1.6c0-0.9,0.7-1.6,1.6-1.6    c0.9,0,1.6,0.7,1.6,1.6C17.63,46.03,16.93,46.73,16.03,46.73z M14.43,41.23c0-0.9,0.7-1.6,1.6-1.6c0.9,0,1.6,0.7,1.6,1.6    c0,0.9-0.7,1.6-1.6,1.6S14.43,42.13,14.43,41.23z M16.13,18.93c-0.9,0-1.6-0.7-1.6-1.6s0.7-1.6,1.6-1.6c0.9,0,1.6,0.7,1.6,1.6    S16.93,18.93,16.13,18.93z M19.83,39.63c0.9,0,1.6,0.7,1.6,1.6c0,0.9-0.7,1.6-1.6,1.6c-0.9,0-1.6-0.7-1.6-1.6    C18.23,40.33,18.93,39.63,19.83,39.63z M19.83,46.73c-0.9,0-1.6-0.7-1.6-1.6c0-0.9,0.7-1.6,1.6-1.6c0.9,0,1.6,0.7,1.6,1.6    S20.73,46.73,19.83,46.73z M20.03,38.83c-0.9,0-1.6-0.7-1.6-1.6c0-0.9,0.7-1.6,1.6-1.6c0.9,0,1.6,0.7,1.6,1.6    C21.53,38.13,20.83,38.83,20.03,38.83z M23.83,19.83c0.9,0,1.6,0.7,1.6,1.6s-0.7,1.6-1.6,1.6c-0.9,0-1.6-0.7-1.6-1.6    C22.23,20.53,22.93,19.83,23.83,19.83z M23.83,35.73c0.9,0,1.6,0.7,1.6,1.6c0,0.9-0.7,1.6-1.6,1.6c-0.9,0-1.6-0.7-1.6-1.6    C22.23,36.43,22.93,35.73,23.83,35.73z M23.83,39.63c0.9,0,1.6,0.7,1.6,1.6c0,0.9-0.7,1.6-1.6,1.6c-0.9,0-1.6-0.7-1.6-1.6    C22.23,40.33,22.93,39.63,23.83,39.63z M23.83,46.73c-0.9,0-1.6-0.7-1.6-1.6c0-0.9,0.7-1.6,1.6-1.6c0.9,0,1.6,0.7,1.6,1.6    S24.73,46.73,23.83,46.73z M23.93,35.03c-0.9,0-1.6-0.7-1.6-1.6c0-0.9,0.7-1.6,1.6-1.6c0.9,0,1.6,0.7,1.6,1.6    C25.53,34.23,24.83,35.03,23.93,35.03z M27.73,23.73c0.9,0,1.6,0.7,1.6,1.6s-0.7,1.6-1.6,1.6c-0.9,0-1.6-0.7-1.6-1.6    C26.23,24.43,26.93,23.73,27.73,23.73z M27.83,38.83c-0.9,0-1.6-0.7-1.6-1.6c0-0.9,0.7-1.6,1.6-1.6c0.9,0,1.6,0.7,1.6,1.6    S28.73,38.83,27.83,38.83z M26.23,33.43c0-0.9,0.7-1.6,1.6-1.6s1.6,0.7,1.6,1.6c0,0.9-0.7,1.6-1.6,1.6S26.23,34.23,26.23,33.43z     M27.93,30.83c-0.9,0-1.6-0.7-1.6-1.6c0-0.9,0.7-1.6,1.6-1.6c0.9,0,1.6,0.7,1.6,1.6C29.43,30.13,28.73,30.83,27.93,30.83z     M31.73,23.63c0.9,0,1.6,0.7,1.6,1.6s-0.7,1.6-1.6,1.6c-0.9,0-1.6-0.7-1.6-1.6C30.13,24.43,30.83,23.63,31.73,23.63z M31.73,34.93    c-0.9,0-1.6-0.7-1.6-1.6c0-0.9,0.7-1.6,1.6-1.6c0.9,0,1.6,0.7,1.6,1.6C33.33,34.23,32.53,34.93,31.73,34.93z M31.73,30.83    c-0.9,0-1.6-0.7-1.6-1.6c0-0.9,0.7-1.6,1.6-1.6c0.9,0,1.6,0.7,1.6,1.6C33.33,30.13,32.63,30.83,31.73,30.83z M35.53,23.63    c0.9,0,1.6,0.7,1.6,1.6s-0.7,1.6-1.6,1.6c-0.9,0-1.6-0.7-1.6-1.6C33.93,24.43,34.63,23.63,35.53,23.63z M35.63,38.83    c-0.9,0-1.6-0.7-1.6-1.6c0-0.9,0.7-1.6,1.6-1.6c0.9,0,1.6,0.7,1.6,1.6S36.53,38.83,35.63,38.83z M33.93,33.33    c0-0.9,0.7-1.6,1.6-1.6c0.9,0,1.6,0.7,1.6,1.6c0,0.9-0.7,1.6-1.6,1.6S33.93,34.23,33.93,33.33z M35.73,30.83    c-0.9,0-1.6-0.7-1.6-1.6c0-0.9,0.7-1.6,1.6-1.6c0.9,0,1.6,0.7,1.6,1.6C37.33,30.13,36.63,30.83,35.73,30.83z M39.43,19.83    c0.9,0,1.6,0.7,1.6,1.6s-0.7,1.6-1.6,1.6c-0.9,0-1.6-0.7-1.6-1.6S38.53,19.83,39.43,19.83z M39.43,35.73c0.9,0,1.6,0.7,1.6,1.6    c0,0.9-0.7,1.6-1.6,1.6c-0.9,0-1.6-0.7-1.6-1.6C37.83,36.43,38.53,35.73,39.43,35.73z M39.63,39.63c0.9,0,1.6,0.7,1.6,1.6    c0,0.9-0.7,1.6-1.6,1.6c-0.9,0-1.6-0.7-1.6-1.6C38.03,40.33,38.73,39.63,39.63,39.63z M39.63,46.73c-0.9,0-1.6-0.7-1.6-1.6    c0-0.9,0.7-1.6,1.6-1.6c0.9,0,1.6,0.7,1.6,1.6S40.53,46.73,39.63,46.73z M43.43,19.93c0.9,0,1.6,0.7,1.6,1.6s-0.7,1.6-1.6,1.6    c-0.9,0-1.6-0.7-1.6-1.6C41.83,20.63,42.53,19.93,43.43,19.93z M43.43,35.73c0.9,0,1.6,0.7,1.6,1.6c0,0.9-0.7,1.6-1.6,1.6    c-0.9,0-1.6-0.7-1.6-1.6C41.83,36.53,42.53,35.73,43.43,35.73z M43.43,39.63c0.9,0,1.6,0.7,1.6,1.6c0,0.9-0.7,1.6-1.6,1.6    c-0.9,0-1.6-0.7-1.6-1.6C41.93,40.33,42.63,39.63,43.43,39.63z M43.43,46.73c-0.9,0-1.6-0.7-1.6-1.6c0-0.9,0.7-1.6,1.6-1.6    c0.9,0,1.6,0.7,1.6,1.6S44.33,46.73,43.43,46.73z M47.43,15.83c0.9,0,1.6,0.7,1.6,1.6s-0.7,1.6-1.6,1.6c-0.9,0-1.6-0.7-1.6-1.6    S46.63,15.83,47.43,15.83z M47.43,39.73c0.9,0,1.6,0.7,1.6,1.6c0,0.9-0.7,1.6-1.6,1.6c-0.9,0-1.6-0.7-1.6-1.6    C45.93,40.43,46.63,39.73,47.43,39.73z M47.43,46.83c-0.9,0-1.6-0.7-1.6-1.6c0-0.9,0.7-1.6,1.6-1.6c0.9,0,1.6,0.7,1.6,1.6    S48.33,46.83,47.43,46.83z"/>
		</g>
	</g>
</svg>