<?xml version="1.0" ?>
<svg xmlns="http://www.w3.org/2000/svg" xmlns:xlink="http://www.w3.org/1999/xlink" viewBox="0 0 128 128">
	<style>
		.cls0 { fill: url(#a); }
		.cls1 { fill: url(#b); }
	</style>
	<defs>
		<linearGradient id="a" x1s="-243.808" y1="117.443" x2="-243.512" y2="117.915" gradientTransform="matrix(212.311 0 0 -191.693 51771.961 22609.902)" gradientUnits="userSpaceOnUse">
			<stop offset="0" stop-color="#1f92ff"/>
			<stop offset=".202" stop-color="#1b7ff1"/>
			<stop offset="1" stop-color="#000395"/>
		</linearGradient>
		<linearGradient id="b" x1="-245.542" y1="116.995" x2="-245.16" y2="117.431" gradientTransform="matrix(-212.311 0 0 191.693 -52002.961 -22385.902)" xlink:href="#a"/>
	</defs>
	<path d="M 75.276,4.728 A 66.058,66.058 0.0 0,1 82.068,6.241 C 97.841,10.594 113.947,25.512 100.54,22.529 C 80.1,16.341 66.753,28.6 60.1,43.053 Q 59.838,43.622 59.572,44.213 C 51.65,66.145 47.66,103.719 19.957,98.156 C -8.09,89.234 -1.291,48.3 8.6,32.967 C 19.242,16.486 31.516,7.386 49.916,4.442 A 69.341,69.341 0.0 0,1 75.276,4.728" class="cls0"/>
	<path d="M 52.724,123.272 A 66.058,66.058 0.0 0,1 45.932,121.759 C 30.159,117.406 14.053,102.488 27.46,105.471 C 47.905,111.659 61.247,99.4 67.9,84.947 Q 68.162,84.378 68.428,83.787 C 76.35,61.855 80.34,24.281 108.043,29.844 C 136.09,38.766 129.291,79.705 119.397,95.033 C 108.758,111.514 96.484,120.614 78.084,123.558 A 69.341,69.341 0.0 0,1 52.724,123.272 L 52.724,123.272" class="cls1"/>
</svg>