<?xml version="1.0" encoding="UTF-8"?>
<!-- Generator: Adobe Illustrator 25.2.3, SVG Export Plug-In . SVG Version: 6.00 Build 0) -->
<svg xmlns="http://www.w3.org/2000/svg"  version="1.1" id="Layer_1" x="0px" y="0px" viewBox="0 0 210 48" style="enable-background:new 0 0 210 48;" xml:space="preserve"> <style type="text/css"> .st0{fill-rule:evenodd;clip-rule:evenodd;fill:#FA6219;} .st1{fill:#002B41;} </style> <g id="Group_170" transform="translate(-155 -200)"> <path id="Path_390" class="st0" d="M184.6,215.6v-8.1c3.6-0.2,7.2,0,10.7,0.8c2,0.5,3.9,1.3,5.6,2.4l0,0 C196.6,213.8,191.8,214.8,184.6,215.6z M170.1,222.8c-1.3,0.3-2.6,0.8-3.8,1.4c-1.3,0.5-2.5,1.3-3.4,2.4c-0.9,1.1-1.6,2.4-1.8,3.9 c-0.1,1.2,0,2.5,0.9,2.9c2.8-2,5.4-2.9,9.5-4.1c1.6-0.4,3.3-0.8,4.9-1c0.4-0.1,0.8-0.1,1.2-0.2c1.4-0.3,2.9-0.5,4.4-0.6l2.5-0.3 c1-0.1,2.1-0.3,3.1-0.4c3.1-0.4,6.2-0.8,8.9-1.3c1.3-0.3,2.6-0.8,3.8-1.4c1.3-0.5,2.5-1.3,3.4-2.4c0.9-1.1,1.6-2.4,1.8-3.9 c0.1-1.2,0-2.5-0.9-2.9c-2.8,2-5.4,2.9-9.5,4.1c-1.6,0.4-3.3,0.8-4.9,1c-0.4,0.1-0.8,0.1-1.2,0.2c-1.4,0.3-2.9,0.5-4.4,0.6L182,221 c-1,0.1-2.1,0.3-3.1,0.4C175.8,221.8,172.8,222.2,170.1,222.8L170.1,222.8z M165.8,237.2L165.8,237.2c1.7,1.2,3.5,2,5.5,2.4 c3.5,0.8,7.1,1,10.7,0.8v-8.1C174.8,233.3,170,234.2,165.8,237.2L165.8,237.2z M183.3,202.1h0.1c6.1,0,12.3,0.8,16.9,2.9 c0.4,0.2,0.8,0.4,1.1,0.5c0.5,0.3,1.1,0.6,1.6,0.9c3.8,2,6.2,6,6.2,10.3c0,7.7-4.8,11.3-11.9,13.2c-3.9,1-7.9,1.6-12,2l-0.4,0.1 v13.8h-1.7c-6.1,0-12.3-0.8-16.9-2.9c-0.4-0.2-0.8-0.4-1.1-0.5c-0.5-0.3-1.1-0.6-1.6-0.9c-3.8-2-6.2-6-6.2-10.3 c0-7.7,4.8-11.3,11.9-13.2c3.9-1,7.9-1.6,12-2l0.4-0.1v-13.8H183.3z"/> <path id="Path_391" class="st1" d="M234.8,240c-1.8,0-3.5-0.2-5.2-0.7c-1.4-0.4-2.8-1-4-1.9l1.8-4c1.1,0.8,2.2,1.3,3.5,1.7 c1.3,0.4,2.7,0.6,4,0.7c1.1,0.1,2.3-0.1,3.3-0.7c0.7-0.4,1.1-1,1.1-1.8c0-0.5-0.2-1-0.6-1.3c-0.5-0.4-1-0.7-1.6-0.9 c-0.7-0.2-1.5-0.5-2.7-0.7c-1.4-0.3-2.9-0.7-4.3-1.2c-1.1-0.4-2.1-1.1-2.9-2c-0.8-1-1.2-2.3-1.2-3.6c0-1.3,0.4-2.5,1.1-3.6 c0.8-1.2,1.9-2,3.2-2.6c1.7-0.7,3.5-1,5.3-0.9c1.4,0,2.9,0.2,4.3,0.5c1.3,0.3,2.5,0.8,3.6,1.5l-1.6,4c-1.9-1.1-4.1-1.8-6.3-1.8 c-1.1-0.1-2.3,0.2-3.3,0.7c-0.7,0.4-1,1.1-1,1.9c0,0.8,0.5,1.5,1.2,1.8c1.2,0.5,2.5,0.9,3.7,1.1c1.4,0.3,2.9,0.7,4.3,1.2 c1.1,0.4,2.1,1.1,2.8,2c0.8,1,1.3,2.3,1.2,3.6c0,1.3-0.4,2.5-1.1,3.6c-0.8,1.1-1.9,2-3.3,2.5C238.4,239.7,236.6,240,234.8,240 L234.8,240z"/> <path id="Path_392" class="st1" d="M248,220.8v1.7h-2.7v3.9h2.7v7.2c-0.1,1.7,0.5,3.4,1.7,4.7c1.4,1.1,3.1,1.7,4.8,1.6 c0.8,0,1.5-0.1,2.3-0.3c0.7-0.2,1.3-0.4,1.9-0.8l-1.4-3.6c-0.6,0.4-1.3,0.7-2,0.6c-0.6,0-1.2-0.2-1.6-0.6c-0.4-0.5-0.6-1.1-0.6-1.7 v-7.1h4.4v-3.9h-4.4v-4.4L248,220.8z"/> <path id="Path_393" class="st1" d="M268.1,236.4c0.8,0,1.6-0.2,2.3-0.6c0.7-0.4,1.2-1,1.4-1.8v-1.8h-3.5c-2.1,0-3.1,0.7-3.1,2 c0,0.6,0.3,1.2,0.7,1.6C266.6,236.3,267.4,236.5,268.1,236.4L268.1,236.4z M268.5,221.8c2.3-0.2,4.5,0.5,6.2,2 c1.5,1.3,2.2,3.2,2.2,5.8v10h-4.7v-2.2c-1,1.6-2.7,2.4-5.3,2.4c-1.2,0-2.4-0.2-3.5-0.7c-0.9-0.4-1.7-1.1-2.2-1.9 c-0.5-0.8-0.8-1.8-0.8-2.7c-0.1-1.5,0.6-2.9,1.8-3.8c1.2-0.9,3.1-1.4,5.7-1.4h4c0.1-1-0.3-1.9-1-2.5c-0.9-0.7-1.9-1-3-0.9 c-0.9,0-1.9,0.2-2.8,0.5c-0.8,0.2-1.6,0.6-2.3,1.2l-1.8-3.5c1-0.7,2.2-1.2,3.4-1.6C265.7,222,267.1,221.8,268.5,221.8L268.5,221.8z "/> <path id="Path_394" class="st1" d="M295.4,224.4c0.6-0.9,1.5-1.5,2.4-1.9c1.1-0.5,2.2-0.7,3.4-0.6v4.7c-0.6,0-0.7-0.1-0.9-0.1 c-1.3-0.1-2.5,0.4-3.4,1.2c-0.9,1-1.3,2.3-1.2,3.6v8.3h-5.1v-17.5h4.8L295.4,224.4z"/> <path id="Rectangle_168" class="st1" d="M281.1,222.1h5.1v17.5h-5.1V222.1z"/> <path id="Path_395" class="st1" d="M280.3,219.1L280.3,219.1l6.1,0v-3.2L280.3,219.1z"/> <path id="Path_396" class="st1" d="M336.8,225.7c-1.1,0-2.1,0.3-2.9,1c-0.8,0.7-1.3,1.6-1.4,2.7h8.6c-0.1-1-0.6-2-1.4-2.6 C338.8,226,337.8,225.6,336.8,225.7z M345.8,230.9c0,0.1,0,0.5-0.1,1.4h-13.2c0.2,1,0.8,2,1.7,2.6c1,0.7,2.1,1,3.3,0.9 c0.8,0,1.6-0.1,2.4-0.4c0.7-0.3,1.4-0.7,2-1.3l2.7,2.9c-1.6,1.9-4.1,2.8-7.2,2.8c-1.8,0-3.6-0.4-5.2-1.1c-1.5-0.7-2.7-1.8-3.5-3.2 c-0.8-1.4-1.3-3-1.2-4.6c0-1.6,0.4-3.2,1.2-4.6c0.8-1.4,2-2.5,3.3-3.2c2.9-1.5,6.5-1.6,9.4-0.1c1.4,0.7,2.5,1.8,3.3,3.2 C345.5,227.6,345.9,229.2,345.8,230.9L345.8,230.9z"/> <path id="Path_397" class="st1" d="M348.5,219.9v19.9h5.1v-22.6L348.5,219.9z"/> <path id="Path_398" class="st1" d="M357.5,218v21.7h5.1v-24.4L357.5,218z"/> <path id="Path_399" class="st1" d="M314.9,230.3l3.1,9.3h4.7l3.7-17.5h-4.8l-1.3,10.8l-3.1-10.8h-4.2l-3.3,10.8l-1.4-10.8h-4.8 l3.6,17.5h4.8C312.2,238.5,314.9,230.3,314.9,230.3L314.9,230.3z"/> </g> </svg>