<?xml version="1.0" ?>
<!-- Generator: Adobe Illustrator 14.0.0, SVG Export Plug-In . SVG Version: 6.00 Build 43363)  -->
<svg xmlns="http://www.w3.org/2000/svg" xmlns:sodipodi="http://sodipodi.sourceforge.net/DTD/sodipodi-0.dtd" xmlns:inkscape="http://www.inkscape.org/namespaces/inkscape" viewBox="0 0 334.99999 334.99998" inkscape:version="0.48.2 r9819" sodipodi:docname="stanbol-icon-white.svg" inkscape:export-filename="/home/fchrist/Coding/Apache/Stanbol/site/trunk/content/stanbol/images/stanbol-logo/stanbol-icon-white-64x64.png" inkscape:export-xdpi="17.190001" inkscape:export-ydpi="17.190001">
	<sodipodi:namedview pagecolor="#ffffff" bordercolor="#666666" borderopacity="1" objecttolerance="10" gridtolerance="10" guidetolerance="10" inkscape:pageopacity="0" inkscape:pageshadow="2" inkscape:window-width="640" inkscape:window-height="480" id="namedview109" showgrid="false" fit-margin-top="0" fit-margin-left="2.7755576e-17" fit-margin-right="0" fit-margin-bottom="0" inkscape:zoom="0.39645207" inkscape:cx="355.53877" inkscape:cy="166.75446" inkscape:window-x="0" inkscape:window-y="25" inkscape:window-maximized="0" inkscape:current-layer="Calque_1"/>
	<g id="g19" transform="translate(-53.406235,-129.39449)">
		<path d="M 254.634,311.465 C 264.012,306.204 273.993,303.004 284.057,301.708 L 284.142,294.165 C 261.336,291.625 239.882,279.562 226.073,259.742 L 221.906,262.08 C 231.853,284.731 230.675,309.984 220.281,331.08 L 227.765,335.746 C 234.575,326.025 243.61,317.649 254.634,311.465 L 254.634,311.465" id="path21" inkscape:connector-curvature="0" style="fill:none"/>
		<radialGradient id="SVGID_1_" cx="259.3848" cy="286.6265" r="29.839899" gradientTransform="matrix(1,0.0075,-0.0075,1,-1.9207,-25.0264)" gradientUnits="userSpaceOnUse">
			<stop offset="0.1411" style="stop-color:#B13287" id="stop24"/>
			<stop offset="1" style="stop-color:#9D0F5E" id="stop26"/>
		</radialGradient>
		<path d="M 284.143,294.165 L 284.759,240.081 C 280.493,238.774 276.535,236.471 273.261,233.276 L 226.073,259.742 C 239.883,279.562 261.337,291.625 284.143,294.165" id="path28" inkscape:connector-curvature="0" style="fill:url(#SVGID_1_);fill-opacity:0.8"/>
		<radialGradient id="SVGID_2_" cx="296.75781" cy="235.61909" r="81.5867" gradientTransform="matrix(1,0.0075,-0.0075,1,-1.9207,-25.0264)" gradientUnits="userSpaceOnUse">
			<stop offset="0.1411" style="stop-color:#B13287" id="stop31"/>
			<stop offset="1" style="stop-color:#9D0F5E" id="stop33"/>
		</radialGradient>
		<path d="M 279.197,188.262 C 292.832,180.614 310.151,185.485 317.798,199.122 C 325.446,212.758 320.575,230.076 306.939,237.722 C 304.944,238.842 302.869,239.685 300.759,240.281 L 300.143,294.375 C 311.374,293.415 322.578,290.105 333.031,284.243 C 372.319,262.207 386.355,212.318 364.318,173.03 C 342.282,133.743 292.392,119.707 253.106,141.743 C 216.174,162.459 201.56,207.79 218.247,245.786 L 265.434,219.321 C 262.705,207.378 267.982,194.552 279.197,188.262 L 279.197,188.262" id="path35" inkscape:connector-curvature="0" style="opacity:0.18999999;fill:url(#SVGID_2_);fill-opacity:0.8"/>
		<radialGradient id="SVGID_3_" cx="260.39551" cy="355.80081" r="29.6658" gradientTransform="matrix(1,0.0075,-0.0075,1,-1.9207,-25.0264)" gradientUnits="userSpaceOnUse">
			<stop offset="0.0824" style="stop-color:#8FBE44" id="stop38"/>
			<stop offset="0.3242" style="stop-color:#8BBD44" id="stop40"/>
			<stop offset="0.5489" style="stop-color:#7EB847" id="stop42"/>
			<stop offset="0.7663" style="stop-color:#66B14A" id="stop44"/>
			<stop offset="0.9121" style="stop-color:#4AAB4C" id="stop46"/>
		</radialGradient>
		<path d="M 280.728,357.985 C 281.615,357.487 282.518,357.045 283.433,356.653 L 284.058,301.708 C 273.994,303.004 264.013,306.204 254.635,311.465 C 243.611,317.65 234.576,326.026 227.766,335.746 L 273.225,364.087 C 275.302,361.7 277.812,359.619 280.728,357.985 L 280.728,357.985" id="path48" inkscape:connector-curvature="0" style="opacity:0.81000001;fill:url(#SVGID_3_)"/>
		<radialGradient id="SVGID_4_" cx="299.56049" cy="405.57419" r="81.634499" gradientTransform="matrix(1,0.0075,-0.0075,1,-1.9207,-25.0264)" gradientUnits="userSpaceOnUse">
			<stop offset="0.0824" style="stop-color:#8FBE44" id="stop51"/>
			<stop offset="0.3242" style="stop-color:#8BBD44" id="stop53"/>
			<stop offset="0.5489" style="stop-color:#7EB847" id="stop55"/>
			<stop offset="0.7663" style="stop-color:#66B14A" id="stop57"/>
			<stop offset="0.9121" style="stop-color:#4AAB4C" id="stop59"/>
		</radialGradient>
		<path d="M 365.848,342.752 C 351.863,317.818 326.658,303.061 300.064,301.234 L 299.456,354.795 C 307.565,356.214 314.998,361.121 319.329,368.845 C 326.978,382.482 322.105,399.797 308.47,407.446 C 294.833,415.094 277.517,410.222 269.869,396.587 C 266.714,390.962 265.693,384.714 266.536,378.775 L 219.91,349.707 C 209.903,372.423 210.298,399.411 223.35,422.68 C 245.386,461.967 295.275,476.002 334.563,453.967 C 373.848,431.929 387.885,382.039 365.848,342.752 L 365.848,342.752" id="path61" inkscape:connector-curvature="0" style="opacity:0.2;fill:url(#SVGID_4_)"/>
		<radialGradient id="SVGID_5_" cx="205.9102" cy="319.91599" r="31.048" gradientTransform="matrix(1,0.0075,-0.0075,1,-1.9207,-25.0264)" gradientUnits="userSpaceOnUse">
			<stop offset="0.0824" style="stop-color:#F7AF3E" id="stop64"/>
			<stop offset="0.371" style="stop-color:#F7AC3B" id="stop66"/>
			<stop offset="0.6393" style="stop-color:#F5A333" id="stop68"/>
			<stop offset="0.8988" style="stop-color:#F29425" id="stop70"/>
			<stop offset="0.9121" style="stop-color:#F29324" id="stop72"/>
		</radialGradient>
		<path d="M 221.906,262.081 L 174.72,288.547 C 175.783,293.199 175.635,297.986 174.388,302.469 L 220.281,331.08 C 230.675,309.984 231.854,284.731 221.906,262.081" id="path74" inkscape:connector-curvature="0" style="opacity:0.86000001;fill:url(#SVGID_5_)"/>
		<radialGradient id="SVGID_6_" cx="143.8779" cy="318.76559" r="78.006104" gradientTransform="matrix(1,0.0075,-0.0075,1,-1.9207,-25.0264)" gradientUnits="userSpaceOnUse">
			<stop offset="0.0824" style="stop-color:#F7AF3E" id="stop77"/>
			<stop offset="0.371" style="stop-color:#F7AC3B" id="stop79"/>
			<stop offset="0.6393" style="stop-color:#F5A333" id="stop81"/>
			<stop offset="0.8988" style="stop-color:#F29425" id="stop83"/>
			<stop offset="0.9121" style="stop-color:#F29324" id="stop85"/>
		</radialGradient>
		<path d="M 160.956,319.604 C 147.319,327.252 130.003,322.382 122.355,308.747 C 114.706,295.11 119.576,277.793 133.213,270.143 C 144.427,263.853 158.124,266.036 166.892,274.592 L 214.079,248.125 C 190.355,214.074 144.055,202.909 107.122,223.625 C 67.833,245.66 53.798,295.55 75.835,334.836 C 97.87,374.125 147.76,388.16 187.046,366.123 C 196.985,360.551 205.306,353.188 211.837,344.672 L 165.932,316.053 C 164.433,317.386 162.776,318.583 160.956,319.604" id="path87" inkscape:connector-curvature="0" style="opacity:0.25;fill:url(#SVGID_6_)"/>
	</g>
</svg>