<?xml version="1.0" ?>
<svg xmlns="http://www.w3.org/2000/svg" viewBox="0 0 128 128">
	<style>
		.cls0 { fill: #efefef; }
		.cls1 { fill: #007fa4; }
		.cls2 { fill: #ccc; }
		.cls3 { fill: #cbdb2f; }
		.cls4 { fill: #003146; }
		.cls5 { fill: #f26a36; }
		.cls6 { fill: #fff; }
		.cls7 { fill: #ff0; }
	</style>
	<path d="M 101.392,25.04 C 98.871,24.2 91.729,21.959 89.492,20.279 C 89.772,22.239 91.733,22.939 92.013,24.2 C 92.573,25.46 92.013,27.421 92.293,28.961 C 93.833,27.141 97.474,27.561 99.015,25.74 L 101.392,25.04" class="cls0"/>
	<path d="M 97.751,26.861 C 94.81,25.74 86.827,23.5 84.306,21.539 C 84.586,23.78 86.687,24.48 87.106,25.88 C 87.666,27.421 85.846,29.662 86.126,31.342 C 87.806,29.381 93.268,29.802 94.949,27.701 L 97.751,26.861 M 3.641,62.572 C 0.28,61.732 0.0,57.67 0.0,55.29 C 0.0,52.069 0.42,49.828 3.221,47.727 C 0.7,50.527 4.061,55.99 8.263,56.827 M 31.93,36.8 C 35.991,34.839 42.573,31.2 46.915,33.019 A 149.311,149.311 0.0 0,0 67.781,39.181 C 65.961,42.262 56.158,40.861 52.797,40.301 C 50.416,39.881 45.514,38.06 43.834,38.201 C 40.053,36.941 35.571,35.961 31.934,36.801 L 31.93,36.8" class="cls1"/>
	<path d="M 31.93,36.8 L 37.812,35.539 C 34.312,37.78 30.95,39.881 27.449,42.121 C 30.53,42.542 35.149,41.001 35.711,44.362 C 36.972,51.784 34.591,60.747 27.869,64.669 C 24.508,63.269 28.569,60.747 29.969,57.946 A 24.829,24.829 0.0 0,0 32.63,48.563 L 32.63,44.226 A 46.339,46.339 0.0 0,0 24.93,44.926 A 33.3,33.3 0.0 0,0 15.267,47.726 A 68.482,68.482 0.0 0,1 31.93,36.8" class="cls1"/>
	<path d="M 39.912,64.813 C 35.712,67.473 32.35,68.034 28.149,64.392 C 33.19,59.211 36.972,52.492 35.711,45.066 C 35.151,41.705 30.53,42.546 27.449,42.125 C 30.53,40.165 35.431,35.403 39.072,35.543 C 41.872,35.823 43.133,35.823 45.372,37.084 C 51.672,40.584 57.272,41.425 64.418,39.465 C 62.598,43.665 62.878,47.587 64.978,51.788 C 65.959,53.749 68.619,55.288 70.16,56.83 C 72.401,59.211 72.681,62.292 74.36,65.093 C 75.341,66.493 76.321,68.734 77.721,69.574 C 79.821,70.834 77.301,72.655 76.601,74.756 A 34.409,34.409 0.0 0,1 69.601,85.956 C 63.02,93.1 55.6,97.863 45.234,101.084 C 42.713,101.924 40.613,104.584 37.534,106.266 C 34.593,107.946 28.011,108.926 26.47,104.866 C 34.733,105.286 39.07,101.505 46.076,98.424 A 31.9,31.9 0.0 0,0 60.359,86.239 C 62.74,82.458 66.241,75.6 64.84,71.255 C 63.72,67.473 62.46,63.692 61.199,60.055 C 60.499,63.696 59.519,67.477 58.538,71.255 C 54.2,63.272 47.755,60.471 39.912,64.813 L 39.912,64.813" class="cls1"/>
	<path d="M 35.991,65.233 C 38.512,64.813 42.153,62.433 44.534,61.451 C 48.875,59.631 52.797,62.432 56.158,65.513 C 60.499,69.574 61.899,61.872 63.44,66.773 C 64.981,71.674 67.361,77.697 63.16,80.918 C 54.2,88.2 52.236,77.7 36.271,69.434 C 32.63,67.473 32.63,68.314 25.488,65.373 C 27.028,64.112 27.729,63.273 29.409,64.673 C 31.23,66.213 31.93,65.933 34.309,65.653 C 34.731,65.513 35.991,65.233 35.991,65.233 L 35.991,65.233 M 25.628,98.983 C 26.888,96.322 30.67,98.283 31.228,100.383 C 29.407,99.402 27.728,99.683 25.906,100.803 A 2.8,2.8 0.0 0,1 25.626,98.982 L 25.628,98.983" class="cls0"/>
	<path d="M 31.23,100.384 C 32.91,101.084 36.551,99.543 38.372,97.863 C 39.212,97.303 38.932,96.602 40.472,97.723 C 42.292,99.123 45.233,96.042 46.914,94.223 C 55.314,85.26 57.977,71.676 61.198,59.912 C 62.598,63.973 65.259,68.175 66.52,72.096 C 68.2,77.277 60.638,86.52 57.42,90.302 A 33.0,33.0 0.0 0,1 49.3,96.743 C 45.659,98.703 42.018,100.943 38.377,102.764 A 18.623,18.623 0.0 0,1 25.913,104.864 C 23.387,100.524 28.009,98.563 31.23,100.384 L 31.23,100.384" class="cls1"/>
	<path d="M 31.93,100.8 C 31.23,100.52 31.09,100.52 30.95,99.819 C 31.65,99.539 39.492,95.619 39.492,97.299 C 39.912,99.123 32.91,100.8 31.93,100.8 L 31.93,100.8" class="cls0"/>
	<path d="M 38.372,97.023 C 39.212,97.443 38.792,97.163 38.372,97.023" class="cls2"/>
	<path d="M 42.853,102.064 A 20.0,20.0 0.0 0,1 39.632,104.864 C 43.832,99.402 50.416,98.842 56.578,95.621 C 63.3,92.121 69.602,87.221 73.663,80.636 A 36.283,36.283 0.0 0,0 77.584,71.674 C 78.144,69.713 72.543,64.952 71.422,62.151 C 69.6,57.95 65.681,55.29 64.0,50.808 C 62.46,46.747 62.319,41.425 65.12,38.484 C 64.42,45.346 66.381,51.929 71.702,56.55 C 72.683,57.39 75.202,58.23 74.363,59.491 C 73.523,60.891 76.184,63.412 76.884,64.532 C 79.545,68.174 81.646,69.294 80.665,73.775 C 76.6,92.121 60.359,100.524 42.853,102.064 L 42.853,102.064 M 75.9,39.465 C 78.284,37.644 84.166,28.4 86.827,28.4 C 84.586,32.041 73.243,48.006 85.287,44.785 A 76.5,76.5 0.0 0,0 80.105,51.367 C 78.144,48.987 71.842,42.267 75.905,39.884 L 75.9,39.465" class="cls1"/>
	<path d="M 76.184,36.944 C 77.444,38.344 77.164,39.744 75.484,40.585 C 75.484,40.165 75.624,39.605 75.624,39.185 A 15.412,15.412 0.0 0,0 76.184,43.526 C 77.024,47.167 82.766,53.189 80.525,56.27 C 78.0,59.911 75.9,60.191 71.7,56.69 A 20.044,20.044 0.0 0,1 65.679,47.59 C 64.838,44.369 62.738,37.79 66.939,37.507 C 70.022,37.364 73.1,37.084 76.184,36.944" class="cls3"/>
	<path d="M 80.105,51.368 A 114.677,114.677 0.0 0,1 88.368,41.145 C 82.486,49.128 79.825,60.191 86.687,68.454 A 23.344,23.344 0.0 0,0 91.309,72.935 A 50.242,50.242 0.0 0,1 121.698,75.035 C 117.637,80.635 112.875,74.615 107.414,73.635 C 101.672,72.515 95.65,73.775 90.328,76.156 C 86.967,77.556 86.267,75.456 83.886,72.935 C 81.926,70.835 80.105,68.735 78.286,66.493 C 77.306,65.093 72.825,60.611 73.805,59.071 C 75.626,56.271 78.146,54.029 80.105,51.371 L 80.105,51.368" class="cls1"/>
	<path d="M 95.23,27.141 A 2.929,2.929 0.0 0,1 94.67,26.301 C 94.67,26.02 100.691,25.18 101.252,25.04 C 101.532,24.9 102.652,28.821 103.072,29.522 C 104.613,32.462 106.293,34.422 109.514,35.403 C 105.314,36.103 106.993,36.944 103.072,32.462 C 102.232,31.482 100.551,29.101 99.711,29.101 C 98.311,29.241 96.49,27.141 95.23,27.141 L 95.23,27.141 M 122.538,63.552 A 9.25,9.25 0.0 0,0 118.617,63.552 A 11.652,11.652 0.0 0,0 118.337,55.71 A 8.852,8.852 0.0 0,1 122.538,63.552 L 122.538,63.552 M 109.514,57.25 A 16.186,16.186 0.0 0,1 115.396,65.233 L 113.716,66.073 A 16.628,16.628 0.0 0,0 111.055,68.873 A 40.782,40.782 0.0 0,0 109.514,57.25 L 109.514,57.25 M 114.836,56.83 A 25.791,25.791 0.0 0,0 115.256,46.467 A 37.0,37.0 0.0 0,1 120.718,49.688 A 13.519,13.519 0.0 0,1 114.836,56.83 L 114.836,56.83 M 113.435,45.907 C 113.575,45.487 110.074,52.769 108.814,54.029 L 106.853,55.71 A 37.24,37.24 0.0 0,0 105.453,44.086 A 47.317,47.317 0.0 0,1 113.435,45.907 L 113.435,45.907 M 98.311,44.226 L 98.171,43.946 L 102.092,43.946 A 19.969,19.969 0.0 0,1 100.832,50.946 A 32.93,32.93 0.0 0,0 98.311,44.226 M 106.013,61.451 A 11.87,11.87 0.0 0,0 108.954,70.974 C 101.954,75.174 103.632,64.813 106.013,61.451 L 106.013,61.451 M 79.825,68.314 C 79.965,67.894 81.365,69.994 81.925,70.694 C 84.725,74.055 89.625,76.716 86.406,80.357 C 73.106,95.342 72.406,91.281 69.041,92.681 C 71.701,88.481 79.964,77.281 80.804,72.375 C 80.945,72.375 79.825,68.314 79.825,68.314" class="cls0"/>
	<path d="M 94.389,26.441 A 0.517,0.517 0.0 0,1 94.81,26.301 L 95.23,26.02 L 99.711,27.0 C 101.672,31.481 104.333,34.282 107.554,35.4 L 109.514,35.4 C 110.074,35.54 110.214,37.081 110.354,37.361 A 7.147,7.147 0.0 0,1 110.354,40.861 L 105.454,39.881 C 104.334,39.321 105.454,38.62 104.334,38.06 C 100.692,35.819 104.754,42.26 102.373,39.321 A 9.125,9.125 0.0 0,0 105.873,40.301 L 103.212,39.881 L 103.772,40.021 C 104.053,40.581 113.015,41.421 103.212,40.301 C 101.812,40.161 106.153,40.441 107.834,39.881 L 110.495,39.04 L 113.295,37.64 L 112.595,39.74 C 112.315,40.72 112.035,41.56 111.895,42.12 L 110.074,42.401 A 4.213,4.213 0.0 0,1 107.834,42.541 L 106.573,41.98 C 105.453,41.56 103.632,41.7 101.252,42.401 A 10.33,10.33 0.0 0,1 96.21,42.541 A 2.469,2.469 0.0 0,1 94.249,40.441 L 94.389,39.461 A 1.055,1.055 0.0 0,0 94.53,38.9 C 94.109,38.34 93.689,37.78 93.13,36.94 A 3.971,3.971 0.0 0,0 90.33,35.259 A 24.035,24.035 0.0 0,1 86.969,34.559 C 86.829,34.419 86.549,34.419 86.409,34.279 C 86.549,32.879 87.809,31.198 90.33,29.237" class="cls1"/>
	<path d="M 85.287,44.786 C 78.004,46.747 79.125,41.425 81.787,36.944 C 82.627,35.403 85.568,24.9 90.329,29.244 C 83.329,35.686 92.429,33.866 95.091,37.507 C 95.791,38.487 95.371,40.728 94.25,40.448 C 94.95,44.229 101.25,42.269 103.493,41.848 C 107.415,41.288 111.893,42.689 116.093,42.128 C 120.575,41.428 122.393,38.347 125.476,42.689 A 36.543,36.543 0.0 0,1 126.316,53.752 A 44.869,44.869 0.0 0,0 102.509,44.369 C 101.249,44.229 98.309,43.669 97.187,44.369 C 93.687,48.01 91.866,53.192 93.826,57.813 C 96.067,62.995 102.789,74.619 109.511,69.577 C 112.032,67.616 113.292,64.956 116.373,63.835 C 120.295,62.435 124.636,63.415 127.997,65.376 C 126.877,66.076 124.776,66.076 124.497,67.336 C 123.517,71.678 122.956,73.636 121.697,75.036 C 113.715,71.955 105.872,70.836 97.75,73.775 C 91.027,76.296 86.686,74.475 84.725,69.575 A 28.18,28.18 0.0 0,1 82.765,62.433 C 81.504,53.75 84.165,46.888 88.365,41.146 C 87.244,42.267 86.404,43.667 85.284,44.787 L 85.287,44.786" class="cls0"/>
	<path d="M 118.337,38.064 C 119.737,38.344 122.537,40.025 123.799,40.725 C 120.578,42.546 113.575,42.825 111.615,42.125 C 112.175,34.983 115.676,37.784 118.197,38.344 C 120.158,38.764 118.337,38.064 118.337,38.064" class="cls1"/>
	<path d="M 122.258,40.165 C 118.758,38.904 116.516,38.624 113.716,37.365 C 115.956,36.105 119.316,32.183 121.278,34.424 A 18.582,18.582 0.0 0,1 125.478,42.687 A 5.72,5.72 0.0 0,0 122.678,40.446 A 1.733,1.733 0.0 0,1 122.258,40.165" class="cls4"/>
	<path d="M 94.109,58.511 C 105.453,53.611 114.416,82.038 99.009,81.338 C 93.967,81.198 88.226,71.115 95.368,71.115 C 100.689,71.115 102.93,66.215 97.468,65.093 L 94.109,58.511" class="cls5"/>
	<path d="M 97.33,65.093 C 98.171,62.712 99.571,62.012 101.672,60.893 C 100.972,64.114 100.691,68.176 100.551,68.456 C 98.871,67.195 98.451,67.056 97.33,64.956 L 97.33,65.093" class="cls0"/>
	<path d="M 107.554,38.764 C 107.554,41.005 106.433,42.826 105.033,42.826 C 103.492,42.826 102.372,41.005 102.372,38.764 C 102.372,36.664 103.492,34.843 105.033,34.843 C 106.433,34.843 107.554,36.664 107.554,38.764" class="cls6"/>
	<path d="M 107.554,38.764 C 107.554,40.025 106.993,41.005 106.293,41.005 C 105.593,41.005 105.033,40.025 105.033,38.764 C 105.033,37.644 105.593,36.664 106.293,36.664 C 106.993,36.664 107.554,37.644 107.554,38.764" class="cls4"/>
	<path d="M 101.672,34.143 C 103.352,36.243 105.872,38.064 107.834,39.885 C 108.394,35.123 105.593,33.3 101.672,34.143" class="cls0"/>
	<path d="M 32.63,44.226 C 35.291,47.726 33.611,53.189 31.51,58.09 C 28.289,65.513 19.326,69.574 15.545,69.574 C 20.867,62.574 31.51,56.274 28.429,47.307 C 20.867,45.627 14.0,54.589 9.8,52.909 C 19.606,43.386 27.449,41.985 32.63,44.226 L 32.63,44.226" class="cls1"/>
	<path d="M 22.827,55.71 C 23.387,53.749 24.088,51.788 24.648,49.968 C 14.565,55.009 8.263,64.252 5.882,75.036 C 3.082,74.195 1.54,72.236 0.982,68.314 C 4.203,69.714 2.803,70.134 3.363,66.633 A 26.219,26.219 0.0 0,1 6.863,55.99 C 12.185,47.307 27.029,44.366 28.99,47.867 C 32.771,52.629 28.71,62.572 22.268,66.073 C 17.086,68.734 16.526,68.454 13.725,70.414 C 11.625,71.955 8.125,75.176 7.003,77.557 C 3.921,72.935 19.046,58.511 22.827,55.71 L 22.827,55.71" class="cls1"/>
	<path d="M 12.6,65.793 A 45.713,45.713 0.0 0,0 6.862,76.016 C 5.882,78.677 7.842,73.075 5.882,75.036 C 4.902,69.574 6.022,70.694 8.682,65.373 A 38.976,38.976 0.0 0,1 25.908,48.007 C 25.348,50.107 25.488,53.469 24.228,55.29" class="cls1"/>
	<path d="M 3.081,59.911 C 6.442,52.629 10.923,48.427 18.486,46.467 A 30.625,30.625 0.0 0,0 6.582,58.09 C 3.641,62.712 8.4,73.915 0.98,68.314 C 1.68,72.935 3.08,73.635 5.88,74.476 C 7.7,76.156 5.18,76.156 3.78,74.336 C 0.28,69.436 -0.981,62.012 3.08,59.911 C 2.1,62.152 1.12,63.552 0.7,66.073 C 1.12,63.692 2.1,62.152 3.081,59.911 L 3.081,59.911 M 19.186,67.333 C 21.147,67.193 25.068,67.473 26.186,69.433 C 26.746,70.273 26.046,75.175 24.786,75.175 C 24.366,66.492 13.022,73.075 7.7,76.155 C 9.8,73.494 13.022,67.332 19.184,67.332 L 19.186,67.333" class="cls1"/>
	<path d="M 8.123,78.257 C 9.663,73.215 12.464,71.115 17.365,69.714 C 21.987,68.454 24.508,70.414 24.788,75.176 C 18.066,74.756 11.9,78.4 7.0,82.878 C 6.86,80.778 6.16,76.716 5.88,74.478 C 6.16,74.758 6.72,74.338 7.0,74.618 C 7.7,73.218 8.961,74.478 10.361,73.777 A 16.8,16.8 0.0 0,0 8.121,78.259 L 8.123,78.257" class="cls1"/>
	<path d="M 7.142,83.438 C 6.022,83.158 9.803,79.238 11.063,78.677 C 14.284,77.136 21.987,74.195 25.068,75.177 C 23.247,78.818 11.204,84.977 7.142,83.439 L 7.142,83.438" class="cls0"/>
	<path d="M 76.324,43.946 C 72.543,44.926 72.543,47.446 74.363,50.528 C 71.982,48.147 69.463,48.147 66.941,50.528 C 68.201,48.147 68.902,44.928 65.12,43.666 C 68.201,44.366 70.72,43.666 70.72,40.025 C 71.28,41.285 71.28,42.546 71.98,43.946 L 76.324,43.946" class="cls7"/>
</svg>