<?xml version="1.0" encoding="UTF-8"?>
<svg xmlns="http://www.w3.org/2000/svg" id="Layer_1" viewBox="0 0 823.19 130.1"><defs><style>.cls-1{fill:#fff}</style></defs><path d="M190.77 100.58c-5.83-1.85-10.32-4.45-13.46-7.81l5.87-9.12c2.72 3.14 6.71 5.55 11.94 7.23 5.24 1.68 10.48 2.52 15.72 2.52 3.42 0 6.65-.47 9.69-1.42s5.46-2.25 7.28-3.93c1.82-1.68 2.72-3.6 2.72-5.76 0-2.58-1-4.64-2.99-6.18-1.99-1.54-4.49-2.74-7.49-3.62-3-.87-7.12-1.8-12.36-2.78-6.64-1.26-12.05-2.53-16.24-3.83-4.19-1.29-7.75-3.33-10.69-6.13-2.93-2.79-4.4-6.6-4.4-11.42s1.4-8.5 4.19-11.68c2.79-3.18 6.46-5.55 11-7.12 4.54-1.57 9.5-2.36 14.88-2.36 7.05 0 13.34.93 18.86 2.78 5.52 1.85 9.85 4.45 12.99 7.81l-5.76 8.91c-2.79-3.14-6.64-5.52-11.53-7.12-4.89-1.61-9.92-2.41-15.09-2.41s-9.9.98-13.57 2.93c-3.67 1.96-5.5 4.58-5.5 7.86 0 2.59 1 4.66 2.99 6.23 1.99 1.57 4.51 2.79 7.54 3.67 3.04.87 7.14 1.8 12.31 2.78 6.71 1.33 12.14 2.66 16.29 3.98 4.16 1.33 7.7 3.41 10.64 6.23 2.93 2.83 4.4 6.65 4.4 11.47s-1.43 8.51-4.3 11.68c-2.87 3.18-6.64 5.54-11.32 7.07-4.68 1.54-9.71 2.31-15.09 2.31-7.2 0-13.71-.93-19.54-2.78Zm80.15-62.39H246.3v-9.43h60.77v9.43h-24.62v63.92h-11.53V38.19Zm44.29-9.43h59.2v9.43h-47.67v22.53h40.76v9.43h-40.76v22.53h47.67v9.43h-59.2V28.76Zm70.69 0H421c9.85 0 17.29 2.03 22.32 6.08 5.03 4.05 7.54 9.68 7.54 16.87s-2.51 12.85-7.54 16.97c-5.03 4.12-12.47 6.18-22.32 6.18h-23.58v27.24h-11.53V28.76ZM421 65.43c12.22 0 18.34-4.57 18.34-13.73 0-4.47-1.48-7.84-4.45-10.11-2.97-2.27-7.6-3.41-13.88-3.41h-23.58v27.24h23.58Zm52.47 35.15c-5.83-1.85-10.32-4.45-13.46-7.81l5.87-9.12c2.72 3.14 6.71 5.55 11.95 7.23 5.24 1.68 10.48 2.52 15.72 2.52 3.42 0 6.65-.47 9.69-1.42s5.46-2.25 7.28-3.93c1.82-1.68 2.72-3.6 2.72-5.76 0-2.58-1-4.64-2.99-6.18-1.99-1.54-4.49-2.74-7.49-3.62-3-.87-7.12-1.8-12.36-2.78-6.64-1.26-12.05-2.53-16.24-3.83-4.19-1.29-7.75-3.33-10.69-6.13-2.93-2.79-4.4-6.6-4.4-11.42s1.4-8.5 4.19-11.68c2.79-3.18 6.46-5.55 11-7.12 4.54-1.57 9.5-2.36 14.88-2.36 7.05 0 13.34.93 18.86 2.78 5.52 1.85 9.85 4.45 12.99 7.81l-5.76 8.91c-2.79-3.14-6.64-5.52-11.53-7.12-4.89-1.61-9.92-2.41-15.09-2.41s-9.9.98-13.57 2.93c-3.67 1.96-5.5 4.58-5.5 7.86 0 2.59 1 4.66 2.99 6.23 1.99 1.57 4.5 2.79 7.54 3.67 3.04.87 7.14 1.8 12.31 2.78 6.71 1.33 12.14 2.66 16.29 3.98 4.16 1.33 7.7 3.41 10.64 6.23 2.93 2.83 4.4 6.65 4.4 11.47s-1.43 8.51-4.3 11.68c-2.87 3.18-6.64 5.54-11.32 7.07-4.68 1.54-9.71 2.31-15.09 2.31-7.2 0-13.71-.93-19.54-2.78Zm80.16-62.39h-24.62v-9.43h60.77v9.43h-24.62v63.92h-11.53V38.19Zm56.62 60.04c-5.83-3.42-10.46-8.05-13.88-13.88s-5.13-12.17-5.13-19.02 1.71-13.29 5.13-19.12c3.42-5.83 8.05-10.46 13.88-13.88s12.21-5.13 19.12-5.13 13.29 1.71 19.12 5.13c5.83 3.42 10.44 8.05 13.83 13.88 3.39 5.83 5.08 12.21 5.08 19.12s-1.69 13.19-5.08 19.02-8 10.46-13.83 13.88-12.21 5.13-19.12 5.13-13.29-1.71-19.12-5.13Zm32.8-8.7c4.23-2.58 7.6-6.04 10.11-10.37 2.51-4.33 3.77-8.94 3.77-13.83s-1.26-9.5-3.77-13.83-5.89-7.81-10.11-10.43c-4.23-2.62-8.79-3.93-13.67-3.93s-9.47 1.31-13.73 3.93-7.65 6.1-10.16 10.43-3.77 8.94-3.77 13.83 1.26 9.5 3.77 13.83 5.9 7.79 10.16 10.37c4.26 2.58 8.84 3.88 13.73 3.88s9.45-1.29 13.67-3.88Zm36.05-60.77h13.62l44.53 58.26V28.76h11.53v73.34h-13.2l-44.95-58.36v58.36H679.1V28.76Zm84.89 0h59.2v9.43h-47.67v22.53h40.76v9.43h-40.76v22.53h47.67v9.43h-59.2V28.76Z" class="cls-1"/><path d="M190.77 100.58c-5.83-1.85-10.32-4.45-13.46-7.81l5.87-9.12c2.72 3.14 6.71 5.55 11.94 7.23 5.24 1.68 10.48 2.52 15.72 2.52 3.42 0 6.65-.47 9.69-1.42s5.46-2.25 7.28-3.93c1.82-1.68 2.72-3.6 2.72-5.76 0-2.58-1-4.64-2.99-6.18-1.99-1.54-4.49-2.74-7.49-3.62-3-.87-7.12-1.8-12.36-2.78-6.64-1.26-12.05-2.53-16.24-3.83-4.19-1.29-7.75-3.33-10.69-6.13-2.93-2.79-4.4-6.6-4.4-11.42s1.4-8.5 4.19-11.68c2.79-3.18 6.46-5.55 11-7.12 4.54-1.57 9.5-2.36 14.88-2.36 7.05 0 13.34.93 18.86 2.78 5.52 1.85 9.85 4.45 12.99 7.81l-5.76 8.91c-2.79-3.14-6.64-5.52-11.53-7.12-4.89-1.61-9.92-2.41-15.09-2.41s-9.9.98-13.57 2.93c-3.67 1.96-5.5 4.58-5.5 7.86 0 2.59 1 4.66 2.99 6.23 1.99 1.57 4.51 2.79 7.54 3.67 3.04.87 7.14 1.8 12.31 2.78 6.71 1.33 12.14 2.66 16.29 3.98 4.16 1.33 7.7 3.41 10.64 6.23 2.93 2.83 4.4 6.65 4.4 11.47s-1.43 8.51-4.3 11.68c-2.87 3.18-6.64 5.54-11.32 7.07-4.68 1.54-9.71 2.31-15.09 2.31-7.2 0-13.71-.93-19.54-2.78Zm80.15-62.39H246.3v-9.43h60.77v9.43h-24.62v63.92h-11.53V38.19Zm44.29-9.43h59.2v9.43h-47.67v22.53h40.76v9.43h-40.76v22.53h47.67v9.43h-59.2V28.76Zm70.69 0H421c9.85 0 17.29 2.03 22.32 6.08 5.03 4.05 7.54 9.68 7.54 16.87s-2.51 12.85-7.54 16.97c-5.03 4.12-12.47 6.18-22.32 6.18h-23.58v27.24h-11.53V28.76ZM421 65.43c12.22 0 18.34-4.57 18.34-13.73 0-4.47-1.48-7.84-4.45-10.11-2.97-2.27-7.6-3.41-13.88-3.41h-23.58v27.24h23.58Zm52.47 35.15c-5.83-1.85-10.32-4.45-13.46-7.81l5.87-9.12c2.72 3.14 6.71 5.55 11.95 7.23 5.24 1.68 10.48 2.52 15.72 2.52 3.42 0 6.65-.47 9.69-1.42s5.46-2.25 7.28-3.93c1.82-1.68 2.72-3.6 2.72-5.76 0-2.58-1-4.64-2.99-6.18-1.99-1.54-4.49-2.74-7.49-3.62-3-.87-7.12-1.8-12.36-2.78-6.64-1.26-12.05-2.53-16.24-3.83-4.19-1.29-7.75-3.33-10.69-6.13-2.93-2.79-4.4-6.6-4.4-11.42s1.4-8.5 4.19-11.68c2.79-3.18 6.46-5.55 11-7.12 4.54-1.57 9.5-2.36 14.88-2.36 7.05 0 13.34.93 18.86 2.78 5.52 1.85 9.85 4.45 12.99 7.81l-5.76 8.91c-2.79-3.14-6.64-5.52-11.53-7.12-4.89-1.61-9.92-2.41-15.09-2.41s-9.9.98-13.57 2.93c-3.67 1.96-5.5 4.58-5.5 7.86 0 2.59 1 4.66 2.99 6.23 1.99 1.57 4.5 2.79 7.54 3.67 3.04.87 7.14 1.8 12.31 2.78 6.71 1.33 12.14 2.66 16.29 3.98 4.16 1.33 7.7 3.41 10.64 6.23 2.93 2.83 4.4 6.65 4.4 11.47s-1.43 8.51-4.3 11.68c-2.87 3.18-6.64 5.54-11.32 7.07-4.68 1.54-9.71 2.31-15.09 2.31-7.2 0-13.71-.93-19.54-2.78Zm80.16-62.39h-24.62v-9.43h60.77v9.43h-24.62v63.92h-11.53V38.19Zm56.62 60.04c-5.83-3.42-10.46-8.05-13.88-13.88s-5.13-12.17-5.13-19.02 1.71-13.29 5.13-19.12c3.42-5.83 8.05-10.46 13.88-13.88s12.21-5.13 19.12-5.13 13.29 1.71 19.12 5.13c5.83 3.42 10.44 8.05 13.83 13.88 3.39 5.83 5.08 12.21 5.08 19.12s-1.69 13.19-5.08 19.02-8 10.46-13.83 13.88-12.21 5.13-19.12 5.13-13.29-1.71-19.12-5.13Zm32.8-8.7c4.23-2.58 7.6-6.04 10.11-10.37 2.51-4.33 3.77-8.94 3.77-13.83s-1.26-9.5-3.77-13.83-5.89-7.81-10.11-10.43c-4.23-2.62-8.79-3.93-13.67-3.93s-9.47 1.31-13.73 3.93-7.65 6.1-10.16 10.43-3.77 8.94-3.77 13.83 1.26 9.5 3.77 13.83 5.9 7.79 10.16 10.37c4.26 2.58 8.84 3.88 13.73 3.88s9.45-1.29 13.67-3.88Zm36.05-60.77h13.62l44.53 58.26V28.76h11.53v73.34h-13.2l-44.95-58.36v58.36H679.1V28.76Zm84.89 0h59.2v9.43h-47.67v22.53h40.76v9.43h-40.76v22.53h47.67v9.43h-59.2V28.76ZM110.02 81.17c.03-.24-.31-.33-.42-.11C89.5 122.22 25.95 128.95.42 85.99c-.13-.22-.49-.08-.4.16 22.31 61.8 101.25 56.86 110.01-4.99Z" class="cls-1"/><path d="M49.58 110.48c.19 0 .25-.24.08-.32C23.84 97.94 6.61 62.73 18.31 33.3c.06-.16-.12-.31-.26-.2-40.91 29.79-2.05 76.94 31.52 77.38Z" class="cls-1"/><path d="M19.69 50.72c0 .17.22.22.3.08 6.08-12.13 17.16-24.24 30.45-30.26.15-.07.1-.3-.07-.3-8.3-.15-15.26 2.12-20.43 6.33-6.53 5.31-10.23 13.69-10.25 24.16Z" class="cls-1"/><path d="M.56 44.43C26.22 1.35 90.49 9.05 109.84 50.12c.12.26.51.16.49-.12C105.89-14.55 20.32-16.74.09 44.24c-.09.28.32.45.47.19Z" class="cls-1"/><path d="M85.71 1.67c-.14-.08-.05-.32.11-.27 27.17 8.69 39.12 30.91 43.04 42.08.07.2-.21.33-.32.15-2.8-4.37-9.11-13.28-21.53-20.3-.8-.78-6.59-13.04-21.3-21.66Zm46.63 60.61c-2.69-10.56-9.6-23.36-21.37-31.63a.17.17 0 0 0-.26.2c4.52 10.88 6.03 23.09 3.9 34.92 1.27 7.84 3.36 43.03-28.55 63.04-.19.12-.06.43.15.35 50.08-18.48 46.12-66.87 46.12-66.88Z" class="cls-1"/></svg>