<?xml version="1.0" ?>
<svg xmlns="http://www.w3.org/2000/svg" viewBox="0 0 22.8 22.8">
	<defs>
		<linearGradient id="a" x1="0" x2="22.8" y1="11.4" y2="11.4" gradientUnits="userSpaceOnUse">
			<stop offset="0" stop-color="#12303b"/>
			<stop offset="1" stop-color="#345065"/>
		</linearGradient>
	</defs>
	<circle cx="11.4" cy="11.4" r="11.4" fill="url(#a)"/>
	<path fill="#fff" d="M 4.52,5.68 L 4.52,13.98 L 6.02,13.98 L 6.02,10.18 L 7.52,10.18 L 7.52,9.18 L 6.02,9.18 L 6.02,6.78 L 7.92,6.78 L 7.92,5.68 L 4.52,5.68 M 10.721,5.68 C 10.021,5.68 9.519,5.78 9.119,6.18 C 8.719,6.48 8.519,6.98 8.519,7.68 C 8.519,8.08 8.62,8.48 8.82,8.78 C 9.02,9.08 9.22,9.38 9.52,9.58 L 10.52,10.48 C 10.82,10.68 11.121,10.98 11.221,11.18 C 11.321,11.38 11.42,11.68 11.42,12.08 C 11.42,12.38 11.321,12.58 11.221,12.68 C 11.121,12.78 10.921,12.881 10.721,12.881 C 10.521,12.881 10.321,12.78 10.221,12.68 L 9.92,12.08 C 9.92,11.88 9.82,11.579 9.82,11.279 L 8.52,11.58 C 8.52,12.18 8.62,12.58 8.82,12.98 C 9.02,13.28 9.32,13.579 9.62,13.779 C 9.92,13.979 10.32,14.08 10.82,14.08 C 11.22,14.08 11.62,13.979 11.92,13.779 C 12.22,13.579 12.419,13.38 12.619,13.08 C 12.819,12.68 12.92,12.38 12.92,11.98 C 12.92,11.38 12.72,10.98 12.52,10.58 C 12.22,10.18 11.919,9.88 11.619,9.58 L 10.619,8.68 C 10.419,8.48 10.219,8.28 10.119,8.08 C 10.019,7.88 9.919,7.68 9.919,7.38 C 9.919,7.18 10.019,6.98 10.119,6.88 C 10.219,6.78 10.419,6.68 10.619,6.68 C 10.819,6.68 11.019,6.78 11.119,6.88 C 11.219,6.98 11.32,7.18 11.32,7.38 C 11.42,7.58 11.42,7.78 11.42,8.08 L 12.721,7.88 C 12.721,7.68 12.719,7.38 12.619,7.08 C 12.619,6.88 12.52,6.58 12.32,6.38 C 12.22,6.18 12.021,5.98 11.721,5.88 C 11.421,5.78 11.121,5.68 10.721,5.68 M 15.02,5.68 L 13.32,13.98 L 14.92,13.98 L 15.221,12.08 L 16.619,12.08 L 16.92,13.98 L 18.32,13.98 L 16.619,5.68 L 15.02,5.68 M 15.721,7.58 L 16.32,11.08 L 15.221,11.08 L 15.721,7.58"/>
	<path fill="#43b02a" d="M 4.52,16.08 L 18.32,16.08 L 18.32,17.18 L 4.52,17.18 L 4.52,16.08"/>
</svg>