<?xml version="1.0" ?>
<svg xmlns="http://www.w3.org/2000/svg" viewBox="0 0 32 32">
	<g fill="none">
		<circle cx="16" cy="16" r="16" fill="#E53431"/>
		<path fill="#FFF" d="M 12.117,5.314 A 0.24,0.24 0.0 0,1 12.267,5.264 A 0.25,0.25 0.0 0,1 12.417,5.314 L 13.674,6.256 A 0.2503,0.2503 0.0 1,1 13.373,6.656 L 12.267,5.829 L 8.67,8.526 L 24.47,20.38 A 0.252,0.252 0.0 0,1 24.47,20.783 L 23.309,21.653 A 0.2508,0.2508 0.0 0,1 23.009,21.251 L 23.902,20.581 L 8.101,8.729 A 0.248,0.248 0.0 0,1 8.101,8.329 L 12.117,5.315 L 12.117,5.314 M 16.134,5.314 A 0.247,0.247 0.0 0,1 16.434,5.312 L 24.469,11.339 A 0.246,0.246 0.0 0,1 24.555,11.618 A 0.249,0.249 0.0 0,1 24.318,11.79 L 20.301,11.79 A 0.255,0.255 0.0 0,1 20.151,11.74 L 14.878,7.786 A 0.2511,0.2511 0.0 1,1 15.179,7.384 L 20.386,11.288 L 23.565,11.288 L 16.285,5.828 L 11.245,9.608 A 0.2511,0.2511 0.0 1,1 10.944,9.206 L 16.134,5.314 L 16.134,5.314 M 9.21,10.509 A 0.252,0.252 0.0 0,1 9.51,10.911 L 8.669,11.541 L 24.47,23.395 A 0.25,0.25 0.0 0,1 24.47,23.797 L 20.453,26.81 A 0.253,0.253 0.0 0,1 20.153,26.81 L 18.99,25.938 A 0.2517,0.2517 0.0 0,1 19.293,25.536 L 20.303,26.293 L 23.903,23.593 L 8.098,11.742 A 0.253,0.253 0.0 0,1 8.098,11.34 L 9.208,10.51 L 9.21,10.509 M 8.251,20.328 L 8.251,20.33 L 12.266,20.33 A 0.24,0.24 0.0 0,1 12.416,20.38 L 17.632,24.291 A 0.2508,0.2508 0.0 1,1 17.332,24.693 L 12.186,20.832 L 9.005,20.832 L 16.286,26.292 L 21.316,22.52 A 0.2514,0.2514 0.0 0,1 21.618,22.922 L 16.437,26.806 A 0.25,0.25 0.0 0,1 16.287,26.856 A 0.246,0.246 0.0 0,1 16.136,26.806 L 8.099,20.781 A 0.251,0.251 0.0 1,1 8.251,20.328 L 8.251,20.328"/>
	</g>
</svg>