<?xml version="1.0" ?>
<svg xmlns="http://www.w3.org/2000/svg" version="1.2" viewBox="0 0 144 144" xml:space="preserve" baseProfile="tiny-ps">
	<rect class="st0" width="144" height="144" fill="#FFFFFF"/>
	<path class="st1" d="M98.7,14.1v20.5c0,0.8-0.4,1.5-1.1,1.8L22.8,77.8V53.7c0-0.9,0.5-1.7,1.3-2.1l71.2-39.4
	c1.1-0.6,2.5-0.3,3.1,0.8C98.6,13.4,98.7,13.8,98.7,14.1z" fill="#DB0B4B"/>
	<path class="st2" d="M67.3,80.3L27,55l0,0c0,0-2-1-2-2.3c0-0.8,0.4-1.6,1-2.1l-2,1.1c-0.5,0.3-0.8,0.6-1.1,1.1
	c-0.1,0.3-0.2,0.6-0.2,0.9l0,0v27.1c0,0.8,0.4,1.5,1.1,1.9L44,95.3c0.8,0.5,1.7,0.5,2.5,0.1L67.2,84c1-0.5,1.4-1.8,0.9-2.8
	C67.9,80.8,67.7,80.5,67.3,80.3z" fill="#FF0055"/>
	<path class="st1" d="M45.3,129.9v-20.5c0-0.8,0.4-1.5,1.1-1.8l74.8-41.3v24.1c0,0.9-0.5,1.7-1.3,2.1l-71.2,39.4
	c-1.1,0.6-2.5,0.3-3.1-0.8C45.4,130.6,45.3,130.2,45.3,129.9z" fill="#DB0B4B"/>
	<path class="st2" d="M76.7,63.7L117,89l0,0c0,0,2,1,2,2.3c0,0.8-0.4,1.6-1,2.1l2-1.1c0.5-0.3,0.8-0.6,1.1-1.1
	c0.1-0.3,0.2-0.6,0.2-0.9l0,0V63.2c0-0.8-0.4-1.5-1.1-1.9L100,48.7c-0.8-0.5-1.7-0.5-2.5-0.1L76.8,60.1c-1,0.7-1.3,2-0.6,3.1
	C76.3,63.4,76.4,63.6,76.7,63.7z" fill="#FF0055"/>
</svg>