<svg xmlns="http://www.w3.org/2000/svg" viewBox="0 0 195 35">
                <g fill="#0A5E58" fill-rule="evenodd" class="suo-logo" >
                    <path d="M42.51 26.84L44.68 23.8C46 25.18 48.06 26.33 50.65 26.33 52.85 26.33 53.92 25.32 53.92 24.25 53.92 20.93 43.11 23.21 43.11 16.14 43.11 13.01 45.81 10.42 50.23 10.42 53.21 10.42 55.69 11.32 57.55 13.04L55.33 15.97C53.81 14.56 51.78 13.91 49.87 13.91 48.15 13.91 47.19 14.67 47.19 15.8 47.19 18.79 57.98 16.79 57.98 23.8 57.98 27.24 55.53 29.83 50.46 29.83 46.84 29.83 44.25 28.62 42.51 26.84zM68.64 29.49L68.64 27.77C67.71 28.81 66.08 29.83 63.85 29.83 60.86 29.83 59.46 28.2 59.46 25.55L59.46 15.89 63.04 15.89 63.04 24.14C63.04 26.03 64.03 26.65 65.55 26.65 66.93 26.65 68.03 25.89 68.65 25.1L68.65 15.89 72.23 15.89 72.23 29.49 68.64 29.49z"></path>
                    <path fill-rule="nonzero" d="M77.82 27.74L77.82 34.67 74.24 34.67 74.24 15.89 77.82 15.89 77.82 17.61C78.86 16.29 80.35 15.55 82.02 15.55 85.51 15.55 88.05 18.14 88.05 22.67 88.05 27.2 85.52 29.82 82.02 29.82 80.41 29.83 78.92 29.15 77.82 27.74zM84.33 22.68C84.33 20.34 82.95 18.74 80.89 18.74 79.74 18.74 78.41 19.42 77.82 20.29L77.82 25.11C78.41 25.95 79.74 26.66 80.89 26.66 82.95 26.65 84.33 25.04 84.33 22.68zM89.35 22.68C89.35 18.74 92.25 15.56 96.39 15.56 100.44 15.56 103.2 18.6 103.2 23.05L103.2 23.84 93.09 23.84C93.32 25.56 94.7 26.99 97 26.99 98.15 26.99 99.76 26.48 100.63 25.64L102.21 27.95C100.86 29.19 98.72 29.84 96.61 29.84 92.47 29.83 89.35 27.04 89.35 22.68zM96.39 18.4C94.17 18.4 93.21 20.06 93.04 21.41L99.74 21.41C99.65 20.11 98.75 18.4 96.39 18.4z"></path>
                    <path d="M104.91,29.49 L104.91,15.89 L108.49,15.89 L108.49,17.75 C109.45,16.54 111.14,15.55 112.83,15.55 L112.83,19.04 C112.58,18.98 112.24,18.96 111.84,18.96 C110.66,18.96 109.08,19.64 108.49,20.51 L108.49,29.49 L104.91,29.49 Z"></path>
                    <path fill-rule="nonzero" d="M114.81 20.11C114.81 14.45 118.95 10.39 124.61 10.39 130.3 10.39 134.44 14.44 134.44 20.11 134.44 25.77 130.3 29.82 124.61 29.82 118.95 29.83 114.81 25.77 114.81 20.11zM130.33 20.11C130.33 16.59 128.08 13.94 124.61 13.94 121.15 13.94 118.92 16.59 118.92 20.11 118.92 23.6 121.15 26.28 124.61 26.28 128.08 26.28 130.33 23.6 130.33 20.11zM137.75 29.49L137.75 19.01 135.5 19.01 135.5 15.88 137.75 15.88 137.75 15.15C137.75 12.25 139.61 10.42 142.34 10.42 143.64 10.42 145.02 10.76 145.89 11.69L144.54 13.8C144.17 13.43 143.7 13.24 143.05 13.24 142.06 13.24 141.36 13.89 141.36 15.16L141.36 15.89 144.12 15.89 144.12 19.02 141.36 19.02 141.36 29.5 137.75 29.5 137.75 29.49zM146.96 29.49L146.96 19.01 144.71 19.01 144.71 15.88 146.96 15.88 146.96 15.15C146.96 12.19 148.87 10.42 151.55 10.42 152.56 10.42 153.49 10.65 154.14 10.98L153.41 13.57C153.13 13.37 152.73 13.23 152.26 13.23 151.25 13.23 150.57 13.91 150.57 15.15L150.57 15.88 153.33 15.88 153.33 19.01 150.57 19.01 150.57 29.49 146.96 29.49zM155.04 12.28C155.04 11.1 156.03 10.17 157.18 10.17 158.36 10.17 159.32 11.1 159.32 12.28 159.32 13.46 158.36 14.42 157.18 14.42 156.03 14.42 155.04 13.47 155.04 12.28zM155.41 29.49L155.41 15.89 158.99 15.89 158.99 29.49 155.41 29.49z"></path>
                    <path d="M160.74,22.68 C160.74,18.51 163.75,15.56 167.95,15.56 C170.74,15.56 172.43,16.77 173.33,18.01 L170.99,20.21 C170.34,19.25 169.36,18.75 168.12,18.75 C165.95,18.75 164.43,20.33 164.43,22.69 C164.43,25.06 165.95,26.66 168.12,26.66 C169.36,26.66 170.35,26.1 170.99,25.2 L173.33,27.37 C172.43,28.64 170.74,29.85 167.95,29.85 C163.75,29.83 160.74,26.87 160.74,22.68 Z"></path>
                    <path fill-rule="nonzero" d="M173.79 22.68C173.79 18.74 176.69 15.56 180.83 15.56 184.89 15.56 187.64 18.6 187.64 23.05L187.64 23.84 177.53 23.84C177.76 25.56 179.14 26.99 181.44 26.99 182.59 26.99 184.2 26.48 185.07 25.64L186.65 27.95C185.3 29.19 183.16 29.84 181.05 29.84 176.91 29.83 173.79 27.04 173.79 22.68zM180.83 18.4C178.61 18.4 177.65 20.06 177.48 21.41L184.18 21.41C184.09 20.11 183.19 18.4 180.83 18.4zM192.48 29.5C191.29 29.5 190.33 28.53 190.33 27.35 190.33 26.15 191.3 25.2 192.48 25.2 193.68 25.2 194.63 26.16 194.63 27.35 194.63 28.54 193.68 29.5 192.48 29.5zM192.48 25.49C191.44 25.49 190.61 26.31 190.61 27.35 190.61 28.38 191.44 29.22 192.48 29.22 193.51 29.22 194.34 28.38 194.34 27.35 194.34 26.31 193.5 25.49 192.48 25.49zM193.07 28.59L192.43 27.61 191.98 27.61 191.98 28.59 191.65 28.59 191.65 26.12 192.66 26.12C193.08 26.12 193.44 26.41 193.44 26.87 193.44 27.42 192.95 27.6 192.81 27.6L193.47 28.59 193.07 28.59zM192.66 26.4L191.98 26.4 191.98 27.31 192.66 27.31C192.87 27.31 193.11 27.12 193.11 26.86 193.11 26.6 192.87 26.4 192.66 26.4z"></path>
                    <path d="M22.44,14.58 C22.12,17.73 20.76,20.44 18.84,22.13 C19.17,22.67 19.85,23.77 20.43,24.63 C21.79,26.64 24.19,29.83 24.19,29.83 C26.74,26.94 28.04,21.86 27.07,19.68 C26.35,18.01 23.91,15.51 22.44,14.58 Z"></path>
                    <path class="suo-logo-pos" d="M21.41,15.72 C21.41,15.72 23.73,4.94 13.98,2.61 C9.55,1.55 9.92,3.73 0.25,0.37 C0.25,0.37 2.96,6.37 7.75,7.43 C8.7,7.64 9.75,7.67 10.82,7.67 C10.82,7.67 10.83,7.67 10.83,7.67 C10.84,7.67 10.85,7.67 10.86,7.67 C11.02,7.67 11.19,7.67 11.35,7.67 C11.52,7.67 11.68,7.67 11.85,7.67 C11.86,7.67 11.88,7.67 11.89,7.67 C12.1,7.67 12.31,7.67 12.51,7.67 C12.52,7.67 12.54,7.67 12.55,7.67 C12.97,7.68 13.39,7.69 13.81,7.73 C13.82,7.73 13.83,7.73 13.85,7.73 C14.06,7.75 14.26,7.77 14.46,7.8 C14.46,7.8 14.46,7.8 14.46,7.8 C14.48,7.8 14.5,7.8 14.51,7.8 C15.41,7.93 16.26,8.18 17.02,8.66 C18.57,9.86 19.57,12.17 19.46,14.78 C19.37,16.89 18.57,18.74 17.39,19.93 C17.78,19.18 18.03,18.29 18.08,17.32 C18.2,14.61 16.67,12.34 14.67,12.25 C14.33,12.24 14,12.28 13.69,12.39 C13.83,13.48 13.97,14.67 13.96,14.82 C13.95,14.99 13.04,14.11 12.27,13.32 C11.46,14.19 10.9,15.5 10.84,16.99 C10.79,18.16 11.05,19.25 11.52,20.12 C10.18,18.86 9.35,16.72 9.46,14.33 C9.58,11.55 10.93,9.21 12.76,8.25 C12.47,8.24 12.18,8.24 11.88,8.24 C11.7,8.24 11.53,8.24 11.35,8.24 C11.17,8.24 11,8.24 10.82,8.24 C10.22,8.24 9.57,8.23 8.92,8.18 C7.83,9.7 7.12,11.66 7.03,13.83 C6.8,18.82 9.86,23.01 13.87,23.18 C17.54,23.34 20.71,20.09 21.41,15.72 Z"></path>
                    <path class="suo-logo-pos" d="M28.94,7.72 C29.15,7.68 29.37,7.65 29.61,7.63 C32.22,7.47 32.55,8.29 35.46,6.72 C38.37,5.15 39.39,1.42 39.39,1.42 C39.39,1.42 36.74,2.7 34.75,2.96 C32.08,3.32 29.72,2.49 26.5,4.68 C23.09,7 23.27,13.48 23.31,14.3 C24.08,14.87 25,15.72 25.81,16.63 C25.83,16.65 25.84,16.67 25.86,16.69 C25.94,16.77 26.01,16.86 26.08,16.95 C26.11,16.99 26.15,17.03 26.18,17.07 C26.24,17.14 26.3,17.22 26.37,17.3 C26.41,17.35 26.45,17.4 26.49,17.45 C26.54,17.52 26.6,17.59 26.65,17.66 C26.69,17.72 26.74,17.77 26.78,17.83 C26.83,17.89 26.87,17.96 26.92,18.02 C26.96,18.08 27.01,18.14 27.05,18.21 C27.09,18.27 27.13,18.33 27.17,18.38 C27.21,18.45 27.26,18.51 27.3,18.58 C27.33,18.63 27.37,18.68 27.4,18.73 C27.44,18.8 27.48,18.88 27.52,18.95 C27.54,18.99 27.57,19.03 27.59,19.07 C27.65,19.18 27.7,19.29 27.75,19.4 C27.8,19.52 27.85,19.65 27.89,19.78 C27.9,19.82 27.91,19.86 27.92,19.9 C27.95,20 27.97,20.09 27.99,20.19 C28.05,20.46 28.08,20.74 28.1,21.04 C28.59,21.19 29.11,21.27 29.64,21.26 C33.06,21.22 35.78,17.68 35.71,13.37 C35.68,11.3 35.01,9.43 33.95,8.05 C33.33,8.25 32.83,8.31 32.35,8.31 C32.07,8.31 31.79,8.29 31.51,8.27 C32.84,9.24 33.73,11.23 33.7,13.52 C33.67,15.64 32.85,17.48 31.66,18.5 C32.07,17.79 32.35,16.91 32.41,15.96 C32.58,13.4 31.19,11.23 29.3,11.1 C28.78,11.07 28.29,11.19 27.83,11.44 C27.94,12.33 28.1,13.62 28.1,13.76 C28.09,13.9 27.26,13.08 26.66,12.47 C26.15,13.13 25.79,13.99 25.64,14.96 C25.56,14.48 25.51,13.98 25.52,13.46 C25.56,10.57 27.03,8.21 28.94,7.72 Z"></path>
                </g>
            </svg>