<svg xmlns="http://www.w3.org/2000/svg" viewBox="0 0 150 75"><defs><style>.cls-1{fill:none;}.cls-2{fill:#323c4e;}.cls-2,.cls-3{fill-rule:evenodd;}.cls-3{fill:#fe4a49;}</style></defs><g id="Layer_2" data-name="Layer 2"><g id="Layer_1-2" data-name="Layer 1"><rect class="cls-1" width="150" height="75"/><g id="Layer_2-2" data-name="Layer 2"><g id="Layer_1-2-2" data-name="Layer 1-2"><path class="cls-2" d="M93.26,28.53A1.26,1.26,0,0,0,92,29.77a1.25,1.25,0,1,0,2.5,0A1.25,1.25,0,0,0,93.26,28.53Zm1.08,3.91h-2.2v9.32h2.2ZM29.68,40l1.3-1.6A5.9,5.9,0,0,0,35.06,40c1.53,0,2.32-.75,2.32-1.63S36.5,37,34.52,36.55c-2.57-.6-4.35-1.33-4.35-3.66,0-2.17,1.84-3.75,4.45-3.75a6.85,6.85,0,0,1,4.69,1.73l-1.22,1.66a5.51,5.51,0,0,0-3.55-1.46c-1.25,0-2.09.76-2.09,1.62,0,1,.92,1.37,2.88,1.82,2.58.57,4.31,1.4,4.31,3.66S38,42,35,42A7.57,7.57,0,0,1,29.68,40Zm19.88-7.51v9.32h-2.2V40.51A3.44,3.44,0,0,1,44.48,42,3.39,3.39,0,0,1,41,38.37V32.45h2.12v5.49a2,2,0,0,0,2,2.16,2.2,2.2,0,0,0,2.25-1.76v-5.9ZM56.75,42C59.22,42,61,40,61,37.09s-1.8-4.86-4.27-4.87a3.82,3.82,0,0,0-3.24,1.7V32.44h-2.2V44.85h2.2V40.28A3.81,3.81,0,0,0,56.75,42Zm-.6-7.87a2.74,2.74,0,0,1,2.69,3,2.76,2.76,0,0,1-2.69,3,2.73,2.73,0,0,1-2.63-3,2.71,2.71,0,0,1,2.63-3Zm13.11,5,1.39,1.44A5.68,5.68,0,0,1,66.86,42,4.8,4.8,0,0,1,62,37.07a4.7,4.7,0,0,1,4.74-4.85c2.88,0,4.56,2.18,4.56,5.62h-7A2.59,2.59,0,0,0,66.84,40a3.69,3.69,0,0,0,2.42-.93Zm-5-2.92h4.9a2.31,2.31,0,0,0-2.36-2,2.57,2.57,0,0,0-2.54,2ZM78,34.1V32.23a3.57,3.57,0,0,0-3.34,2v-1.8h-2.2v9.32h2.2V37.05c0-1.76,1.34-2.95,3.34-2.95Zm1.56-4.72h4.36c4.1,0,7,2.55,7,6.18s-2.88,6.2-7,6.2H79.58Zm4.59,10.34a4.16,4.16,0,1,0,0-8.31H81.83v8.31Zm11.65.85,1-1.54a5.25,5.25,0,0,0,3.11,1.08c.89,0,1.5-.37,1.5-1s-.81-1-1.88-1.24c-2-.53-3.3-1.1-3.31-2.76s1.44-2.94,3.51-2.94a6.7,6.7,0,0,1,3.57,1.12l-.92,1.6a5.21,5.21,0,0,0-2.65-.85c-.77,0-1.37.31-1.37.83s.49.78,1.91,1.19,3.27,1,3.27,2.92c0,1.78-1.48,2.94-3.66,2.94A6.76,6.76,0,0,1,95.82,40.57ZM110.37,42c2.47,0,4.27-2,4.27-4.88s-1.8-4.86-4.27-4.87a3.83,3.83,0,0,0-3.24,1.7V32.44h-2.2V44.85h2.2V40.28A3.82,3.82,0,0,0,110.37,42Zm-.6-7.87a2.74,2.74,0,0,1,2.69,3,2.76,2.76,0,0,1-2.69,3,2.73,2.73,0,0,1-2.63-3A2.71,2.71,0,0,1,109.77,34.1Zm14.15,2v5.61h-2.14V40.64A3.85,3.85,0,0,1,118.84,42c-2,0-3.48-1.17-3.48-3s1.71-3.09,3.8-3.09a7.6,7.6,0,0,1,2.62.5v-.25A2,2,0,0,0,119.49,34a5.66,5.66,0,0,0-2.53.71l-.76-1.54a8.38,8.38,0,0,1,3.72-1,3.72,3.72,0,0,1,4,3.93Zm-2.14,2.68v-1a6.9,6.9,0,0,0-2.29-.36c-1.11,0-2,.61-2,1.5s.77,1.44,1.82,1.44A2.43,2.43,0,0,0,121.78,38.83ZM128.89,42a3.16,3.16,0,0,0,2-.74l-.63-1.48a1.33,1.33,0,0,1-.92.35,1,1,0,0,1-.92-1.08V34.26h2.11V32.44h-2.11V29.88h-2.15v2.56h-1.35v1.82h1.35v5A2.55,2.55,0,0,0,128.89,42Zm2.49-4.88a5,5,0,0,1,5-4.87,4.9,4.9,0,0,1,3.53,1.51L138.45,35a2.9,2.9,0,0,0-2.08-.93,3,3,0,0,0,0,6,2.88,2.88,0,0,0,2.13-1L140,40.41A4.94,4.94,0,0,1,136.35,42a5,5,0,0,1-5-4.89ZM150,41.76V35.83a3.49,3.49,0,0,0-6.36-2.11V29.16h-2.2v12.6h2.2V36.12a2.16,2.16,0,0,1,2.27-2,2,2,0,0,1,2,2.16v5.5Z"/><path class="cls-3" d="M.91,30a12.36,12.36,0,0,1,11.15-7.38A12.26,12.26,0,0,1,23.21,30c2.09,4.93.3,9.87-2.67,14a45.6,45.6,0,0,1-7.87,8.32.1.1,0,0,1-.14,0h0c-.26-.29-.51-.59-.76-.9s-.31-.37-.47-.56a.11.11,0,0,1,0-.14h0a47.65,47.65,0,0,0,7-7.22C20.31,41,22,38,22,34.72a10.14,10.14,0,0,0-10-10,10.09,10.09,0,0,0-10,10c0,1.66.7,4.44,4.06,8.29a34.65,34.65,0,0,0,3.5,3.46,47.9,47.9,0,0,0,3.75-3.79c2.77-3.18,4.23-5.93,4.23-8a5.57,5.57,0,0,0-11.13,0c0,2.75,2.42,4.93,4.32,6.65l.24.21a.11.11,0,0,1,0,.15L9.75,43.14a.1.1,0,0,1-.14,0c-2.43-2.2-5.25-4.88-5.25-8.42a7.9,7.9,0,0,1,7.69-7.67,7.8,7.8,0,0,1,7.68,7.67c0,2.59-1.6,5.74-4.77,9.36a45.63,45.63,0,0,1-5.23,5.08.11.11,0,0,1-.13,0,38.79,38.79,0,0,1-5.06-4.78A23.27,23.27,0,0,1,1.43,40,11.34,11.34,0,0,1,.91,30Zm11.15,1.43a3.28,3.28,0,1,1-3.29,3.27A3.27,3.27,0,0,1,12.06,31.45Zm-1.44,3.27a1.44,1.44,0,1,0,1.44-1.43h0a1.44,1.44,0,0,0-1.44,1.43Z"/></g></g></g></g></svg>