<svg viewBox="0 0 202 34" fill="none" xmlns="http://www.w3.org/2000/svg">
<g clip-path="url(#clip0_20_244)">
<path d="M49.7902 27.2322C47.3335 27.2322 44.1124 26.4803 42.693 24.9226C42.4746 24.654 42.3108 24.3318 42.3108 23.9558C42.3108 23.0427 43.1297 22.2907 44.0578 22.2907C44.3308 22.2907 44.713 22.3444 44.9313 22.5592C46.2962 23.4724 48.207 24.1706 49.8994 24.1706C52.247 24.1706 53.4481 23.1501 53.4481 21.8073C53.4481 18.316 42.5292 20.8404 42.5292 13.9652C42.5292 11.0648 45.0951 8.54028 49.7357 8.54028C52.1924 8.54028 54.9221 9.29226 56.1232 10.6888C56.3416 10.9573 56.4508 11.2259 56.4508 11.5482C56.4508 12.4076 55.6865 13.0521 54.813 13.0521C54.54 13.0521 54.267 12.9984 53.994 12.8373C52.8475 12.0853 51.3189 11.6019 49.6811 11.6019C47.6611 11.6019 46.4054 12.5687 46.4054 13.7504C46.4054 16.8657 57.3243 14.5024 57.3243 21.5924C57.3243 24.8152 54.7038 27.2322 49.7902 27.2322Z" fill="#1A81E8"/>
<path d="M73.3207 27.0174C72.1742 27.0174 71.3553 26.158 71.3553 25.0837V24.4392C70.045 25.8894 67.8066 27.2322 64.9677 27.2322C61.0915 27.2322 59.1807 25.1912 59.1807 21.5924V10.6888C59.1807 9.66825 60.0542 8.75513 61.2553 8.75513C62.2926 8.75513 63.2207 9.61453 63.2207 10.6888V20.1422C63.2207 22.8815 64.6401 23.7409 66.8239 23.7409C68.7893 23.7409 70.4817 22.613 71.4099 21.4313V10.6888C71.4099 9.66825 72.2834 8.75513 73.4845 8.75513C74.5217 8.75513 75.4499 9.61453 75.4499 10.6888V25.0837C75.3953 26.1043 74.4672 27.0174 73.3207 27.0174Z" fill="#1A81E8"/>
<path d="M87.8427 27.2322C85.6044 27.2322 83.5298 26.2117 82.0557 24.3318V31.8515C82.0557 32.872 81.1822 33.7851 80.0357 33.7851C78.8892 33.7851 78.0703 32.9258 78.0703 31.8515V10.6888C78.0703 9.66825 78.9438 8.75513 80.1449 8.75513C81.1822 8.75513 82.1103 9.61453 82.1103 10.6888V11.387C83.4752 9.61453 85.5498 8.54028 87.8973 8.54028C92.5925 8.54028 95.9227 12.0316 95.9227 17.8863C95.9227 23.7409 92.5379 27.2322 87.8427 27.2322ZM86.6417 12.0316C84.84 12.0316 82.9292 13.1058 82.0557 14.3949V21.3776C82.9292 22.613 84.84 23.7409 86.6417 23.7409C89.699 23.7409 91.719 21.3239 91.719 17.8863C91.719 14.4487 89.7536 12.0316 86.6417 12.0316Z" fill="#1A81E8"/>
<path d="M107.661 27.2322C105.422 27.2322 103.348 26.2117 101.874 24.3318V31.8515C101.874 32.872 101 33.7851 99.8536 33.7851C98.7071 33.7851 97.8882 32.9258 97.8882 31.8515V10.6888C97.8882 9.66825 98.7617 8.75513 99.9628 8.75513C101 8.75513 101.928 9.61453 101.928 10.6888V11.387C103.293 9.61453 105.368 8.54028 107.715 8.54028C112.41 8.54028 115.741 12.0316 115.741 17.8863C115.741 23.7409 112.356 27.2322 107.661 27.2322ZM106.46 12.0316C104.658 12.0316 102.747 13.1058 101.874 14.3949V21.3776C102.747 22.613 104.658 23.7409 106.46 23.7409C109.517 23.7409 111.537 21.3239 111.537 17.8863C111.482 14.4487 109.517 12.0316 106.46 12.0316Z" fill="#1A81E8"/>
<path d="M119.398 27.0174C118.252 27.0174 117.433 26.158 117.433 25.0837V3.8673C117.433 2.84676 118.306 1.93365 119.507 1.93365C120.545 1.93365 121.473 2.79305 121.473 3.8673V25.03C121.418 26.1043 120.49 27.0174 119.398 27.0174Z" fill="#1A81E8"/>
<path d="M140.199 11.4408L132.501 29.9716C131.3 32.872 129.171 34.0537 126.605 34.0537C125.24 34.0537 123.93 33.5166 123.93 32.2812C123.93 31.3144 124.694 30.5087 125.786 30.5087C126.059 30.5087 126.277 30.5624 126.55 30.5087C127.424 30.455 128.188 30.0253 128.625 29.0585L129.498 27.0711L123.002 11.4408C122.947 11.2259 122.892 11.0111 122.892 10.7962C122.892 9.82939 123.657 8.86256 124.912 8.86256C125.677 8.86256 126.441 9.34597 126.769 10.1517L131.573 22.3444L136.377 10.1517C136.65 9.39968 137.414 8.86256 138.288 8.86256C139.434 8.86256 140.253 9.82939 140.253 10.7962C140.363 10.9573 140.308 11.1722 140.199 11.4408Z" fill="#1A81E8"/>
<path d="M151.773 27.2322C149.535 27.2322 147.46 26.2117 145.986 24.3318V31.8515C145.986 32.872 145.112 33.7851 143.966 33.7851C142.819 33.7851 142 32.9258 142 31.8515V10.6888C142 9.66825 142.874 8.75513 144.075 8.75513C145.112 8.75513 146.04 9.61453 146.04 10.6888V11.387C147.405 9.61453 149.48 8.54028 151.828 8.54028C156.523 8.54028 159.853 12.0316 159.853 17.8863C159.853 23.7409 156.468 27.2322 151.773 27.2322ZM150.572 12.0316C148.77 12.0316 146.859 13.1058 145.986 14.3949V21.3776C146.859 22.613 148.77 23.7409 150.572 23.7409C153.629 23.7409 155.649 21.3239 155.649 17.8863C155.649 14.4487 153.629 12.0316 150.572 12.0316Z" fill="#1A81E8"/>
<path d="M163.948 27.0174C162.801 27.0174 161.982 26.158 161.982 25.0837V10.6888C161.982 9.66825 162.856 8.75513 164.057 8.75513C165.094 8.75513 166.022 9.61453 166.022 10.6888V25.0837C165.968 26.1043 165.039 27.0174 163.948 27.0174Z" fill="#1A81E8"/>
<path d="M163.948 2.09479C162.637 2.09479 161.6 3.11532 161.6 4.35071C161.6 5.5861 162.637 6.66035 163.948 6.66035C165.258 6.66035 166.295 5.63981 166.295 4.35071C166.295 3.11532 165.258 2.09479 163.948 2.09479Z" fill="#1A81E8"/>
<path d="M181.8 27.0174C181.145 27.0174 180.544 26.7488 180.162 26.2117L175.139 19.4976L172.683 22.0221V25.03C172.683 26.1043 171.809 26.9637 170.663 26.9637C169.516 26.9637 168.697 26.1043 168.697 25.03V3.8673C168.697 2.84676 169.571 1.93365 170.772 1.93365C171.809 1.93365 172.737 2.79305 172.737 3.8673V17.4566L180.162 9.29226C180.49 8.91627 180.981 8.70142 181.472 8.70142C182.51 8.70142 183.383 9.56082 183.383 10.5814C183.383 11.0111 183.219 11.4408 182.946 11.763L177.978 17.0269L183.383 23.9021C183.602 24.2243 183.765 24.654 183.765 25.03C183.765 25.9968 183.001 27.0174 181.8 27.0174Z" fill="#1A81E8"/>
<path d="M200.035 19.1754H188.133C188.406 21.8073 190.48 24.0632 193.811 24.0632C195.121 24.0632 196.595 23.6335 197.851 22.8815C198.124 22.7204 198.397 22.6667 198.67 22.6667C199.489 22.6667 200.362 23.3112 200.362 24.278C200.362 26.3191 195.722 27.2322 193.374 27.2322C187.915 27.2322 183.875 23.5261 183.875 17.8863C183.875 12.7299 187.696 8.54028 193.046 8.54028C197.305 8.54028 200.362 11.0648 201.454 14.8784C201.672 15.6303 201.891 16.4897 201.891 17.2417C202 18.2622 201.126 19.1754 200.035 19.1754ZM193.101 11.7093C189.825 11.7093 188.242 14.2875 188.078 16.436H198.124C198.069 14.3412 196.65 11.7093 193.101 11.7093Z" fill="#1A81E8"/>
<path fill-rule="evenodd" clip-rule="evenodd" d="M19.1627 0H19.4357C21.8379 0.0537125 24.0217 1.07425 25.6595 2.79305C27.0244 4.24329 27.8979 6.12322 28.0071 8.1643C27.8433 8.1643 27.6795 8.1643 27.5703 8.21801H27.4611C27.2427 8.21801 27.079 8.27172 26.8606 8.27172H26.7514C26.6968 8.27172 26.6422 8.27172 26.5876 8.32543C26.2055 8.37915 25.8779 8.48657 25.5503 8.594C25.4411 8.64771 25.2773 8.64771 25.1682 8.70142H25.1136C24.9498 8.75513 24.8406 8.80885 24.6768 8.86256L24.513 8.91627L24.1854 9.07741C24.24 7.7346 23.7487 6.39179 22.8206 5.37125C21.8925 4.40442 20.6368 3.81359 19.2719 3.81359C17.9071 3.75987 16.6514 4.24329 15.6687 5.1564C13.6487 7.03634 13.5395 10.0442 15.3411 12.139L17.5249 14.4487L14.686 17.0806L12.5568 14.8246C11.1373 13.267 10.2638 11.2796 10.2092 9.13112V8.11059C10.373 5.90837 11.3557 3.81359 12.9936 2.30964C14.686 0.8594 16.8698 0 19.1627 0ZM30.6822 26.3728C31.2827 27.0174 32.2654 27.1785 33.0298 26.7488C33.6303 26.4265 34.34 25.9968 34.886 25.4597C35.2136 25.1374 35.5411 24.7615 35.8687 24.3855L35.9233 24.278C35.9779 24.1706 36.0325 24.1706 36.0325 24.1169L36.0871 24.0632C38.4892 20.6256 38.1071 15.9526 35.2682 12.9447C34.4492 12.0853 33.4665 11.387 32.3746 10.9036C32.1017 10.7962 31.8833 10.6888 31.6103 10.5814L31.5011 10.5276C31.2827 10.4739 31.119 10.4202 30.846 10.3665C30.7368 10.3665 30.6822 10.3128 30.573 10.3128C30.4638 10.3128 30.3546 10.2591 30.2455 10.2591H30.1909C29.9725 10.2054 29.7541 10.2054 29.4811 10.1517H29.3173C28.6076 10.0979 27.8979 10.1517 27.1882 10.2591C25.4957 10.5814 23.9125 11.3333 22.6568 12.4613L12.393 22.0221C10.373 23.9021 7.15194 23.7946 5.24113 21.8073C3.16653 19.6051 3.4395 16.06 6.00545 14.2338C6.22383 14.0727 6.4968 13.9115 6.76977 13.8041C7.97085 13.267 8.29842 11.763 7.42491 10.7962L7.31572 10.7425C6.76977 10.1517 5.89626 9.99052 5.13194 10.3128C4.42221 10.6351 3.60329 11.1185 2.83896 11.8705L2.72977 11.9779C0.709774 13.9115 -0.272929 16.7046 0.0546385 19.4439C0.273017 21.3239 1.09194 23.0427 2.40221 24.4392C2.56599 24.654 2.78437 24.8152 3.00275 25.03L3.05734 25.0837C3.27572 25.2986 3.4941 25.4597 3.71248 25.6209C3.93085 25.782 4.14923 25.8894 4.42221 26.0506L4.4768 26.1043C4.69518 26.2117 4.91356 26.3728 5.18653 26.4265L5.29572 26.4803C5.5141 26.5877 5.73248 26.6414 6.00545 26.7488L6.11464 26.8025C6.33302 26.8562 6.5514 26.91 6.82437 27.0174L6.98815 27.0711C7.20653 27.1248 7.42491 27.1248 7.58869 27.1785C7.69788 27.1785 7.80707 27.2322 7.91626 27.2322C8.08004 27.2322 8.24383 27.2859 8.40761 27.2859H9.06275C9.33572 27.2859 9.5541 27.2859 9.71788 27.2322L9.99085 27.1785C10.1546 27.1785 10.2638 27.1248 10.4276 27.1248C12.12 26.8025 13.7033 26.0506 14.959 24.8689L18.6714 21.4313L25.1682 15.3618C27.2973 13.4281 30.5184 13.5355 32.4292 15.5766C33.3573 16.5434 33.8487 17.8325 33.7941 19.1754C33.7395 20.5182 33.1936 21.7536 32.2109 22.6667C31.9379 22.9352 31.6103 23.1501 31.2282 23.3112C30.0817 23.9021 29.7541 25.406 30.6822 26.3728Z" fill="#1A81E8"/>
</g>
<defs>
<clipPath id="clip0_20_244">
<rect width="202" height="34" fill="white"/>
</clipPath>
</defs>
</svg>
