<svg xmlns="http://www.w3.org/2000/svg" fill="none" viewBox="0 0 300 300">
<g>
<path fill="#EB1162" d="m257.14 21.292 3.003 9.554-135.942 144.677s-50.774-18.835-69.882-55.687l-6.551-20.473s19.381 35.76 68.244 50.5L257.14 21.292Z"/>
<path fill="#F8971C" d="m266.971 51.865 3.276 10.1L139.219 221.11s-51.593-25.387-69.609-55.141l-5.186-16.106s19.108 29.208 66.879 46.679L266.971 51.865Z"/>
<path fill="#3CBA90" d="M28.115 38.763c23.203 71.246 80.255 87.624 80.255 87.624L250.044 0 28.115 38.763ZM100.726 101S62.783 88.717 41.764 47.225L233.119 8.189l-132.393 92.812Z"/>
<path fill="#444" d="M31.12 253.867c-.82-.546-1.912-1.092-3.55-1.638a15.456 15.456 0 0 0-4.913-.819c-.819 0-1.91 0-2.73.273l-2.457.819c-.819.273-1.364.819-1.637 1.638-.273.546-.546 1.365-.546 2.457 0 1.091.273 2.183 1.091 3.002.82.819 1.638 1.638 2.73 2.184 1.092.819 2.184 1.365 3.549 2.184 1.365.819 2.457 1.638 3.549 2.457 1.092 1.092 1.91 2.183 2.73 3.548.818 1.365 1.091 3.003 1.091 4.914 0 2.457-.546 4.367-1.365 6.278-.819 1.911-1.91 3.276-3.548 4.368-1.638 1.092-3.276 1.911-5.46 2.457-2.184.546-4.64.819-7.097.819-1.365 0-2.73 0-4.095-.273-1.365-.273-2.457-.273-3.548-.546-1.092-.273-2.184-.546-3.003-.819-.82-.273-1.365-.546-1.911-.819l4.095-7.097c.273.272.819.545 1.638.818.545.273 1.364.546 2.183.819.82.273 1.638.546 2.73.546s1.91.273 3.003.273c1.092 0 2.184 0 3.275-.273a34.364 34.364 0 0 0 2.73-.819c.82-.546 1.365-1.092 1.638-1.637.546-.546.546-1.365.546-2.457 0-1.092-.273-1.911-1.092-2.73-.819-.819-1.638-1.638-2.73-2.184-1.092-.819-2.183-1.365-3.548-2.184-1.365-.819-2.457-1.637-3.549-2.729s-1.91-2.184-2.73-3.822c-.819-1.365-1.092-3.276-1.092-5.187 0-2.456.546-4.367 1.365-6.005.82-1.638 1.911-3.003 3.276-4.095 1.365-1.092 3.003-1.91 4.913-2.183 1.911-.546 4.095-.819 6.279-.819 1.092 0 2.457 0 3.549.273 1.091 0 2.183.273 3.275.546s1.911.545 3.003.818c.819.273 1.638.546 2.184 1.092l-3.822 6.552ZM47.773 257.689l-4.095 18.835c-.272 1.092-.272 2.184-.272 3.003s.273 1.365.546 1.911c.272.546.818.546 1.637.546.82 0 1.365-.273 2.184-.546.819-.273 1.365-.819 2.184-1.365.546-.546 1.365-1.092 1.91-1.911.547-.819 1.093-1.365 1.366-1.911l3.822-18.835h7.643l-3.822 18.289c-.273.819-.273 1.638-.546 3.003-.273 1.092-.273 2.184-.273 3.276 0 1.092-.273 2.184-.273 3.275v2.73h-6.005l-.274-5.459h-.273c-.545.819-1.364 1.638-1.91 2.184-.819.818-1.638 1.364-2.457 1.91-.819.546-1.91 1.092-3.003 1.365-1.092.273-2.184.546-3.548.546-1.911 0-3.55-.546-4.641-1.365-1.092-.819-1.638-2.729-1.638-5.186 0-1.638.273-3.276.546-4.914l4.095-19.654h7.097v.273ZM78.891 257.689v5.459h.273c.819-1.637 1.91-3.002 3.276-4.094 1.365-1.092 3.002-1.638 4.913-1.638.82 0 1.911.273 3.003.546l-1.91 6.551c-.274 0-.82-.273-1.093-.273h-1.092a7.413 7.413 0 0 0-4.64 1.638c-1.365 1.092-2.457 2.184-3.276 3.822l-4.094 18.835h-7.644l6.552-30.573h5.732v-.273ZM101.004 273.522v4.64h.273l1.911-4.913 8.462-15.833h8.462l-18.835 30.846h-4.64l-6.006-30.846h8.189l2.184 16.106ZM140.581 285.26c-1.364 1.091-3.002 1.91-4.913 2.729-1.911.819-4.368 1.092-6.824 1.092-3.276 0-6.006-1.092-7.917-3.003-1.911-1.91-2.73-4.64-2.73-8.189 0-3.276.546-6.278 1.638-8.735 1.092-2.73 2.457-4.914 4.095-6.551 1.638-1.911 3.549-3.276 5.459-4.368 2.184-1.092 4.095-1.365 6.279-1.365 1.638 0 3.003.273 4.368.546 1.364.273 2.183 1.092 3.002 1.638.819.819 1.365 1.638 1.638 2.73.273 1.092.546 1.91.546 3.002 0 1.638-.546 3.003-1.365 4.368-.819 1.365-1.911 2.184-3.549 3.276-1.637.819-3.275 1.365-5.459 1.91-2.184.546-4.641.546-7.097.546h-1.638c0 .546-.273.819-.273 1.365v1.092c0 1.911.546 3.276 1.365 4.095 1.092.819 2.183 1.365 4.094 1.365 1.911 0 3.276-.273 4.914-.819 1.365-.546 2.457-1.092 3.276-1.638l1.091 4.914Zm-13.648-15.287h3.548c1.092 0 2.457-.273 3.549-.546s1.911-.819 2.73-1.365 1.092-1.365 1.092-2.457c0-.546-.273-1.092-.546-1.911-.273-.818-1.365-.818-2.73-.818-1.911 0-3.276.545-4.641 1.91-1.637 1.638-2.456 3.276-3.002 5.187ZM159.146 274.614v4.64h.273l1.638-4.913 8.189-17.198h8.462l-14.741 27.298c-1.092 2.184-2.456 4.367-3.548 6.278-1.092 1.911-2.184 3.549-3.276 4.914-1.092 1.365-2.184 2.457-3.549 3.275-1.092.819-2.457 1.092-3.821 1.092-1.911 0-3.003-.273-4.095-.819l1.911-6.005c.273 0 .546.273.819.273h.819c1.092 0 1.91-.546 3.002-1.365 1.092-.819 1.911-2.457 3.003-4.368l-5.732-30.3h8.735l1.911 17.198ZM204.731 286.351c-2.73 1.638-6.006 2.73-10.1 2.73-2.73 0-4.914-.546-7.098-1.365-1.911-.819-3.548-2.184-4.913-3.822-1.365-1.637-2.184-3.548-3.003-5.459-.546-2.184-1.092-4.368-1.092-6.824 0-4.914.546-9.009 1.911-12.285s3.003-6.278 5.186-8.462c2.184-2.184 4.641-3.821 7.644-4.913 2.73-1.092 5.732-1.639 8.735-1.639 2.184 0 4.368.273 6.005.546 1.638.273 3.003.82 3.822 1.093l-3.003 7.097c-.819-.546-1.91-.819-3.002-1.092-1.092-.273-2.457-.273-4.368-.273-2.184 0-4.095.546-5.732 1.365-1.911.819-3.276 2.184-4.641 3.549-1.365 1.638-2.457 3.549-3.003 5.732-.819 2.184-1.092 4.913-1.092 7.643 0 3.549.819 6.279 2.73 8.19 1.638 1.911 4.095 3.002 6.825 3.002 1.91 0 3.275-.273 4.64-.546a9.11 9.11 0 0 0 3.276-1.364l.273 7.097ZM234.756 275.978c-.273 1.638-.546 3.003-.819 4.641-.273 1.638-.273 3.003-.273 4.641v3.002h-5.459l-.819-5.186h-.273c-.546.819-1.092 1.365-1.638 2.184-.546.818-1.365 1.364-2.457 1.91-.819.546-1.638 1.092-2.73 1.365-1.092.273-1.91.546-3.002.546-2.73 0-4.641-.819-6.006-2.73-1.365-1.91-1.911-4.094-1.911-7.097s.273-5.732 1.092-8.462c.819-2.73 1.911-5.187 3.549-7.098 1.638-2.183 3.549-3.821 6.005-4.913 2.457-1.092 5.187-1.911 8.736-1.911 1.364 0 3.002 0 4.64.273s3.276.546 4.914 1.092l-3.549 17.743Zm-14.468 6.825c.819 0 1.365-.273 2.184-.546.546-.273 1.365-.819 1.911-1.092.546-.546 1.092-1.092 1.365-1.638.546-.546.819-1.092 1.092-1.638l3.003-14.195c-.546-.273-1.092-.273-1.638-.545-.546 0-1.092-.273-1.638-.273-1.365 0-2.73.545-3.822 1.364-1.092.819-2.184 1.911-3.003 3.549-.818 1.365-1.364 3.003-1.91 4.914-.273 1.91-.546 3.548-.546 5.459 0 1.365.273 2.457.546 3.276.546.819 1.364 1.365 2.456 1.365ZM253.318 275.432h-2.457l-2.73 12.557h-7.643l9.008-42.857h7.644l-5.46 25.114 2.184-.819 8.735-12.284h8.462l-9.008 12.284-3.549 2.184 2.73 2.183 4.641 13.649h-8.19l-4.367-12.011ZM292.628 285.26c-1.365 1.091-3.002 1.91-4.913 2.729-1.911.819-4.368 1.092-6.825 1.092-3.275 0-6.005-1.092-7.916-3.003-1.911-1.91-2.73-4.64-2.73-8.189 0-3.276.546-6.278 1.638-8.735 1.092-2.73 2.457-4.914 4.095-6.551 1.638-1.911 3.549-3.276 5.459-4.368 2.184-1.092 4.095-1.365 6.279-1.365 1.638 0 3.003.273 4.367.546 1.365.273 2.184 1.092 3.003 1.638.819.819 1.365 1.638 1.638 2.73.273 1.092.546 1.91.546 3.002 0 1.638-.546 3.003-1.365 4.368-.819 1.365-1.911 2.184-3.549 3.276-1.637.819-3.275 1.365-5.459 1.91-2.184.546-4.641.546-7.097.546h-1.638c0 .546-.273.819-.273 1.365v1.092c0 1.911.546 3.276 1.365 4.095 1.091.819 2.183 1.365 4.094 1.365 1.911 0 3.276-.273 4.914-.819 1.365-.546 2.457-1.092 3.275-1.638l1.092 4.914Zm-13.921-15.287h3.548c1.092 0 2.457-.273 3.549-.546s1.911-.819 2.73-1.365 1.092-1.365 1.092-2.457c0-.546-.273-1.092-.546-1.911-.273-.818-1.365-.818-2.73-.818-1.911 0-3.276.545-4.641 1.91-1.365 1.638-2.456 3.276-3.002 5.187Z"/>
</g>
<defs>
</defs>
</svg>