<?xml version="1.0" ?>
<svg xmlns="http://www.w3.org/2000/svg" viewBox="0 0 1600 352">
	<style>
		.s0 { fill: #ed3338 } 
	</style>
	<path id="Layer" fill-rule="evenodd" class="s0" d="m1335.7 299.2c0 8 3.8 8.8 9.4 13.1 6.4 4.8 11.4 8.8 11.4 16.2 0 8.3-5 13.4-11.4 13.4h-64.8c-10.4 0-16.5-5.1-16.5-13.4 0-11.4 13.3-14.6 18.9-21.6 6.2-8 18.7-52.8 47.7-132.2 24-66.7 44.8-112.3 58.6-137.4 13.1-24 18.7-36.5 42.1-36.5 16.5 0 25 2.7 34.6 16.5 7.8 10.4 34.1 60.6 68.8 151.5 31.9 83.7 42.1 130.4 45.8 135.5 5.6 8 18.9 10.1 18.9 23.2 0 9.8-7.5 14.4-21.3 14.4h-86.9c-10.9 0-17-5.1-17-14.4 0-15.8 16.5-14.4 16.5-26.4 0-6.4-5.6-29.1-18.4-66.2h-118.5c-11.2 33.6-17.6 55-17.9 64.3zm122-105.9c-19.7-57.3-35.4-95.2-44.7-113.3-18.1 38.9-32.8 76.8-45.8 113.3zm-445.7-131.2c-10.4-18.9-28.5-20.2-28.5-34.1 0-12 9.1-19.7 23.4-19.7h80.8c15.1 0 23.4 6.6 23.4 17.6 0 12.8-16.5 17.8-16.5 24 0 6.1 20.8 49.3 72.4 114.9 44.8-58.1 63.7-97.6 63.7-110.7 0-9-6.1-10.6-13.8-15.2-6.2-3.7-9.4-6.9-9.4-13.8 0-10.4 7.2-16.6 22.1-16.6h55.5c14.3 0 21.3 5.6 21.3 16.6 0 14.4-15 18.6-19.5 25-6.6 9.1-31.4 64-96.1 152.3v80.3c0 11.2 0 18.9 6.9 23.2 8.8 5.6 19.4 5.6 19.4 20.8 0 10.1-6.9 15.2-22.1 15.2h-90c-15.2 0-22.1-4.6-22.1-15.2 0-13.1 6.4-14.7 18.9-20.8 6.1-3 7.4-10.7 7.4-23.2v-72.6c-61.5-74.4-86.3-127.4-97.2-148zm-39.7 24.6c0 37.3-20.8 66.4-61.8 82.9 45.8 77.6 54.9 128.5 62.3 136.8 5.6 6.7 20.8 6.9 20.8 21.3 0 13.1-7.4 14.4-22.1 14.4h-89.2c-12 0-18.1-5.3-18.1-13 0-7.5 2.9-11.5 9.3-15.2 5-2.7 8.8-2.4 8.8-12 0-12-12.8-51.5-49.8-107.8-17.6 3.8-36.5 5.6-56.8 6.2v97.6c0 9.6 1.9 11.4 11.5 15.2 8.8 3.2 12.5 6.4 12.5 14.6 0 12-6.1 14.4-21.3 14.4h-91.4c-11.7 0-18.1-4.5-18.1-13.8 0-9.9 4.3-12.6 12-16.3 13-6.1 13-12 13-30.1v-216.8c0-16.3-1-20.3-13-25.9-8.3-3.7-12-7.5-12-16.3 0-10.1 5.9-14.4 18.4-14.4h171.3c76.4 0 113.4 24.3 113.7 78.2zm-81.8 5c0-36.2-23.1-50.1-71.1-50.1-33.3 0-43.9 3.2-43.9 25.3v92.6c77.5-2.7 114.8-24 115-67.8zm-471.7-83.2c20.7 0 30.3 4.6 30.3 19.2 0 15.8-14.1 15.2-21.6 22.7-7.9 8-15.7 57.3-15.7 144.5 0 81.1 23.2 119.5 81.8 119.5 59.7 0 85-35.2 85-109.9 0-91.4-8.3-144.5-12.5-152.8-6.4-12.5-27.2-11.7-27.2-27.7 0-11.2 7.5-15.7 22.6-15.7h55.5c15.9 0 23.4 4.2 23.4 15.7 0 7.5-2.7 10.7-9.6 15.2-6.9 4.8-13 5.1-13 19.5 0 28.8 9.5 79.4 9.5 151.4 0 94.4-49.8 141.4-149.9 141.4-100.7 0-148.7-44.3-148.7-135.8 0-65.6 9.3-115.4 9.3-147.7 0-13.3-2.4-19.5-11.9-24-8.3-4-12.6-8.8-12.6-17.1 0-11.4 8.8-18.4 24.5-18.4zm-386.2 311.2c-20.8-16.8-32-37.8-32-50.9 0-13.9 12-25.9 27.2-25.9 18.4 0 20.8 16.8 30.4 32 15.4 24.3 43.9 39 78.5 39 46.1 0 71.2-20.3 71.2-51.2 0-32.6-27.2-38.4-80.8-47.8-33.3-5.3-61.8-8.2-86.8-30.4-20.2-17.8-29.6-41-29.6-72 0-63.2 53.6-111.7 135.4-111.7 33.8 0 63.9 5.9 89.2 18.9 15.7 8 20.2 18.7 20.2 40.3 0 20.3-3.2 28.5-16.5 28.5-15.4 0-18.6-13-26.9-25-13.8-20-34.6-30.2-62.3-30.2-39.7 0-63.7 20-63.7 51 0 32.5 28.3 38.4 79.9 47.7 32.8 5.6 60.5 10.7 82.1 28.3 22.6 18.1 33.3 41.6 33.3 73.6 0 69.8-54.1 117.3-143.6 117.3-43.4 0-78.3-9.6-105.2-31.5z"/>
	<g id="Layer">
	</g>
</svg>