<svg viewBox="0 0 130 31" version="1.1" xmlns="http://www.w3.org/2000/svg" xmlns:xlink="http://www.w3.org/1999/xlink">
  <defs>
    <polygon id="path-1" points="0 31 130 31 130 1.42108547e-14 0 1.42108547e-14"/>
  </defs>
  <g id="Symbols" stroke="none" stroke-width="1" fill="none" fill-rule="evenodd">
    <g id="brand/logo/dark">
      <polygon id="Fill-1" fill="#000000" points="116.415517 11 116.268116 11.2287537 113.483368 15.5407458 110.732189 11.3310994 110.515818 11 109 11 109 20 110.732189 20 110.732189 14.611935 113.516937 18.8074647 116.268116 14.5015685 116.268116 20 118 20 118 11"/>
      <path d="M97.9996717,18.2780926 C96.3554359,18.2780926 95.0227153,17.0342026 95.0227153,15.5 C95.0227153,13.9657974 96.3554359,12.7225218 97.9996717,12.7225218 C99.6439076,12.7225218 100.976956,13.9657974 100.976956,15.5 C100.976956,17.0342026 99.6439076,18.2780926 97.9996717,18.2780926 M98,11 C95.2383797,11 93,13.014985 93,15.5 C93,17.9853222 95.2383797,20 98,20 C100.761292,20 103,17.9853222 103,15.5 C103,13.014985 100.761292,11 98,11" id="Fill-2" fill="#000000"/>
      <path d="M82.5500915,18.2780926 C81.0538068,18.2780926 79.8410067,17.0342026 79.8410067,15.5 C79.8410067,13.9657974 81.0538068,12.7225218 82.5500915,12.7225218 C83.3897913,12.7225218 84.140174,13.1142135 84.6369441,13.7289391 L85.9062022,12.4620085 C85.0745678,11.5637288 83.8787947,11 82.5500915,11 C80.0372652,11 78,13.014985 78,15.5 C78,17.9853222 80.0372652,20 82.5500915,20 C83.9301744,20 85.1653784,19.392033 86,18.432926 L84.7373138,17.13466 C84.2447257,17.8264951 83.4498338,18.2780926 82.5500915,18.2780926" id="Fill-4" fill="#000000"/>
      <path d="M59.1044024,14.6516708 L59.1044024,16.4297368 L61.4314253,16.4297368 L61.4314253,17.4947947 C60.9445129,17.979247 60.2819536,18.2778441 59.5503902,18.2778441 C58.0538068,18.2778441 56.8410067,17.0339967 56.8410067,15.4998464 C56.8410067,13.9660033 58.0538068,12.7224631 59.5503902,12.7224631 C60.39009,12.7224631 61.140174,13.1141414 61.6369441,13.7291532 L62.9065009,12.4619586 C62.0745678,11.5637096 60.8790934,11 59.5503902,11 C57.0372652,11 55,13.0149162 55,15.4998464 C55,17.9850838 57.0372652,20 59.5503902,20 C60.9301744,20 62.1656772,19.3917466 63,18.4326723 L63,14.6516708 L59.1044024,14.6516708 Z" id="Fill-6" fill="#000000"/>
      <path d="M70.9998423,18 C70.4474224,18 70,18.4477377 70,19.0001577 C70,19.5522623 70.4474224,20 70.9998423,20 C71.551947,20 72,19.5522623 72,19.0001577 C72,18.4477377 71.551947,18 70.9998423,18" id="Fill-8" fill="#000000"/>
      <path d="M43.2616708,16.9693059 L44.5,13.8089908 L45.7380133,16.9693059 L43.2616708,16.9693059 Z M46.9257985,20 L49,20 L45.3962092,11 L44.5,11 L43.6034749,11 L40,20 L42.0742015,20 L42.6532468,18.5221917 L46.3467532,18.5221917 L46.9257985,20 Z" id="Fill-10" fill="#000000"/>
      <polygon id="Fill-12" fill="#000000" points="33.9418003 11 32.3719764 16.4512691 30.8372603 11 30 11 29.1627397 11 27.6277102 16.4512691 26.0581997 11 24 11 26.7732093 20 28.44773 20 30 14.7553472 31.55227 20 33.2267907 20 36 11"/>
      <path d="M15.4720693,14.3760349 C13.6274919,13.7541938 14.4955092,12.665739 15.4902681,12.665739 C16.484702,12.665739 17.1899052,13.3720238 17.1899052,13.3720238 L18.4647955,12.242589 C18.1121939,11.7589003 17.2620504,11.093906 15.7794989,11.007289 C14.2966224,10.9209826 12.7776733,11.5949801 12.4884425,13.3568115 C12.1992118,15.1189534 14.1702058,15.9829493 15.1828385,16.2418687 C16.1954713,16.5010985 17.0452898,16.8118638 17.0452898,17.3644735 C17.0452898,17.7273953 16.756384,18.3402332 15.4902681,18.2800049 C14.0252654,18.211084 13.2657909,17.1577106 13.2657909,17.1577106 L12,18.4703138 C12,18.4703138 12.8319447,19.7661524 15.0382231,19.9729154 C17.388792,20.1806097 18.938614,19.180945 18.9980851,17.4163195 C19.0660056,15.3996046 17.3163218,14.997876 15.4720693,14.3760349" id="Fill-14" fill="#000000"/>
      <mask id="mask-2" fill="white">
        <use xlink:href="#path-1"/>
      </mask>
      
      <path d="M2.22296593,28.7987421 L127.777034,28.7987421 L127.777034,2.20125786 L2.22296593,2.20125786 L2.22296593,28.7987421 Z M0,31 L130,31 L130,1.42108547e-14 L0,1.42108547e-14 L0,31 Z" id="Fill-16" fill="#000000" mask="url(#mask-2)"/>
    </g>
  </g>
</svg>