<?xml version="1.0" encoding="UTF-8"?>
<!-- Generator: Adobe Illustrator 18.0.0, SVG Export Plug-In . SVG Version: 6.00 Build 0)  -->

<svg version="1.1" id="Layer_1" xmlns="http://www.w3.org/2000/svg"  x="0px" y="0px" viewBox="0 0 369 207.4" enable-background="new 0 0 369 207.4" xml:space="preserve">

<path fill="#F06E1C" d="M182.7,54.7c-1.8-4.1-2.8-8.5-2.9-12.9c-2.9,4.5-5.1,9.1-6.6,12.4c-0.1,0.2-0.1,0.3-0.2,0.5   c-0.5,1.3-1,2.3-1.3,3.2c-0.4,1,0.1,2.2,1.2,2.6c0.8,0.3,1.9,0.7,3.2,1.2c0.2,0.1,0.3,0.1,0.5,0.2c3.5,1.2,8.3,2.5,13.5,3.4   C187,62.3,184.5,58.7,182.7,54.7"/>

<path fill="#FFA61C" d="M189.7,21.8c-10.2-20.9-33-20.2-36.6-10.8c-2.8,7.2,9.3,24.3,37.1,11.9c0,0,0,0,0,0   C190.1,22.8,189.8,22,189.7,21.8"/>

<path fill="#FFA61C" d="M194.5,20.4c-5.7-14.1,4.3-22.2,9.7-20.1c4.1,1.6,6.3,13.7-9.4,20.7c0,0,0,0,0,0   C194.8,20.9,194.6,20.5,194.5,20.4"/>

<path fill="#F06E1C" d="M223.7,36.3c-2.4-5.3-6.7-9.2-11.8-11c-0.5-0.2-1-0.3-1.6-0.3c-2.6,0-5.2,2.2-5.4,4.9   c-0.4,4.6,0.5,9.2,2.5,13.7c2,4.4,4.8,8.1,8.3,10.9c0.9,0.7,2.1,1,3.2,1c2.1,0,4.1-1.1,4.9-3C226,47.6,226.1,41.7,223.7,36.3"/>

<path fill="#F06E1C" d="M211.8,59.8c-4.4-3.4-7.9-7.9-10.3-13.4c-2.5-5.6-3.5-11.3-3-16.9c0.1-1.6,0.6-3.1,1.3-4.4   c-0.1,0-0.3,0.1-0.4,0.1c0,0,0,0,0,0c-0.2,0.1-0.5,0.1-0.7,0.2c-1.5,0.4-3,1.1-4.3,1.8c-0.7,0.4-1.3,0.8-2,1.2   c-3.4,2.3-6.2,6.3-6.6,10.5c-0.4,4.5,0.4,9.1,2.3,13.5c1.9,4.3,4.7,7.8,8.1,10.5c2.1,1.7,5.8,2.7,8.9,2.7c3.4,0,7-1.3,9.9-3.1   c0,0,0.1,0,0.1-0.1c0.2-0.1,0.4-0.3,0.6-0.4c0.1-0.1,0.2-0.2,0.3-0.2C214.4,61.4,213,60.7,211.8,59.8"/>

<path fill="#FFA61C" d="M115.2,110.6c-11.1-10.8,1.1-23.9,11.6-12.5c5.4,5.8,6,16.4,6.1,19.1C122.8,116.4,117.6,113,115.2,110.6    M45.8,163.6c2.5,7.6-2,15.9-10.4,19.2c-5.2,2.1-12.6,1-15.3-4.3c-2.1-4.1-2.3-8.2-0.6-12.5c2.3-5.9,7.9-11.7,15.3-17.1   C38.1,151.6,43.8,157.3,45.8,163.6 M367.3,171.2c-2.2-2.1-5.7-2.1-7.8,0.1c-3.8,3.9-9.9,7.3-15.2,6.1c-4.4-1-6.2-5.1-6-8.8   c0.2-3.9,1.4-7.8,2.6-11.9c0.6-1.9,1.1-3.8,1.6-5.7c1.2-4.6,3.6-14-2.9-20.6c-5.1-5.1-12.9-6.1-19-2.4c-0.7,0.4-1.3,0.9-2,1.3   c-1.2-12.4-8.2-15.8-11.3-16.7c-6.7-2-14.4,1.3-20.3,8.6c0-0.2-0.5-2.2-0.7-3c-0.9-4.2-1.9-6.6-2-6.9c-0.1-0.4-0.3-0.7-0.5-1   c0-0.1-0.1-0.1-0.1-0.1l0,0c-1.4-2.1-4.2-2.9-6.6-1.9c-1.8,0.7-2.9,2.3-3.3,4c-0.1,0.4-0.1,0.8-0.1,1.3c0,0.7,0.1,1.5,0.4,2.2   c0.8,2,1.2,4.1,1.6,6.2c1,5.2,1.9,10.5,1,15.8c-1.5,8.7-7.6,21-17.9,21.1c-7.7,0-7.9-7.2-6.3-11.5c2.4-6.4,8-11.3,6.9-17.4   c-1.6-8.7-15.5-13-26.1-16.4c-2.8-19.9-14-16.8-17.4-13.7c-4.8,4.4-7.1,16,6.5,21.6c0.2,0.1,0,3.3,0,3.3   c-0.7,16.7-5.7,32.2-10.8,33.8c-6,1.9-11-6.4-9.7-28.4c0.2-3-1.7-5.7-4.7-6.1c-3-0.4-5.7,1.6-6.2,4.5c-5,30.3-23.8,35.4-27.8,27.2   c-4.2-8.8,4.6-43,32.2-37.9c3,0.5,5.9-1.2,6.6-4.1c0.7-3-1.2-5.9-4.1-6.6c-7.3-1.6-14.9-0.7-26.6,3.4c-15.3,5.4-27.5,6.4-27.5,6.3   c-0.4-8.2-2-16.5-6.3-22.9c-18.6-27.6-54.3,0.6-30,24.3c7.1,7,17.3,9.2,25.1,9.7c-0.7,7.6-2.3,15.8-4.8,24   c-4.8,15.9-10.7,23.8-12.9,24.7c-0.7,0-1.3-0.2-2-1.1c-4.6-5.3-4.4-23.4-2.9-34.6c0.4-2.9-1.5-5.6-4.3-6.1c-2.8-0.6-5.6,1.2-6.4,4   c-5.8,21.7-12.3,26.6-13.6,26.6c-3.2-1.5-7.6-20.9,2.9-43.6c1-2.1,1.2-11.4-12.9-6.2c-7.6,2.9-20.6,7.5-40.2,19.2   c-6.2-5.1-14.2-11.7-19.5-18.3c-16.2-20,11.4-49.2,32.9-36.2c2.6,1.6,6,0.7,7.5-1.9c1.6-2.6,0.7-6-1.9-7.5   C23,52.1-16.7,93.8,7.4,123.7c5.4,6.6,12.6,12.9,18.7,18c-8.5,6.6-14.1,13.4-16.8,20.3c-6.1,15.5,3.1,32.9,20.7,32.9   c16.2,0,32-16.4,26.1-34.5c-2.4-7.3-7.6-13.5-11.9-17.7c9.3-5.5,20-10.5,30.3-14.5c-7,23.3-2.6,37.9,1.4,43.3   c4.5,6.1,14,9.1,22.8-3.3c2.1,14.1,8.5,19.7,16.3,19.7c15.6,0,26.8-38,28.5-59.8c4.7-0.4,9.8-1.2,15.1-2.3   c-4.8,7.9-10.9,23.4-5.2,35c4.9,10.1,25.2,18.8,39.6-5.3c1.1,3.3,5.8,14.9,18,14.9c15.6,0,20.6-23.7,22.3-37.1c0,0,0.6-4.3,0.6-8.1   c5.6,1.8,11.1,4,14.7,6.8c-2.9,5-8.5,12.6-7.9,21.5c1.2,16.4,19,20.5,31.6,11.4c-0.1,0.2-0.1,0.4-0.2,0.6c-1.1,3.6,1.3,7.6,5.2,7.6   c2.2,0,4.2-1.4,5.1-3.4c0,0,0,0,0,0.1c-0.1-0.1,2.2-6.3,2.3-6.9c1.8-6.4,3-13,3.4-19.6c0.3-4.8,2.8-9.3,5.5-13.1c2.2-3,6-8.3,10.4-7   c1.9,0.6,3.2,3.6,3.5,7.9c0.5,7.7-1.7,15.3-4,23.3c-1.2,4.2-2.5,8.5-3.3,12.9c-0.6,3,1.4,5.9,4.3,6.4c0.4,0.1,0.7,0.1,1.1,0.1   c2.6,0,4.9-1.8,5.4-4.4c0.5-2.7,5.6-25.9,15.1-32c1.7-1.1,3.9-0.8,5.5,0.8c1.8,1.9,1.1,6.1,0,10.1c-0.4,1.7-0.9,3.4-1.5,5.3   c-1.4,4.6-2.8,9.4-3,14.6c-0.5,9.8,5.6,18.1,14.6,20.1c1.5,0.3,3,0.5,4.5,0.5c3.2,0,6.5-0.7,9.8-2.1c4-1.7,7.9-4.4,11.1-7.6   C369.6,176.8,369.5,173.3,367.3,171.2"/>

<path fill="#FFA61C" d="M141.5,199.2c-0.1-0.3-0.2-0.6-0.4-0.9c-0.2-0.3-0.4-0.5-0.7-0.6c-0.3-0.2-0.6-0.2-1-0.2   c-0.4,0-0.8,0.1-1.1,0.2c-0.3,0.2-0.5,0.4-0.7,0.6c-0.2,0.3-0.3,0.6-0.4,0.9c-0.1,0.3-0.1,0.7-0.1,1c0,0.4,0,0.7,0.1,1.1   c0.1,0.3,0.2,0.7,0.4,0.9c0.2,0.3,0.4,0.5,0.7,0.6c0.3,0.2,0.7,0.2,1.1,0.2c0.4,0,0.8-0.1,1.1-0.2c0.3-0.2,0.5-0.4,0.7-0.7   c0.2-0.3,0.3-0.6,0.4-0.9c0.1-0.4,0.1-0.7,0.1-1.1C141.6,199.8,141.6,199.5,141.5,199.2 M137,193.6v3.9h0c0.2-0.4,0.5-0.7,1-0.9   c0.4-0.2,0.9-0.3,1.4-0.3c0.6,0,1.1,0.1,1.5,0.3c0.4,0.2,0.8,0.5,1.1,0.9c0.3,0.4,0.5,0.8,0.7,1.3c0.1,0.5,0.2,1,0.2,1.5   s-0.1,1-0.2,1.5c-0.1,0.5-0.4,0.9-0.6,1.3c-0.3,0.4-0.6,0.6-1.1,0.8c-0.4,0.2-0.9,0.3-1.5,0.3c-0.2,0-0.4,0-0.6-0.1   c-0.2,0-0.5-0.1-0.7-0.2c-0.2-0.1-0.4-0.2-0.6-0.4c-0.2-0.2-0.4-0.3-0.5-0.6h0v1h-1.2v-10.4H137z"/>

<path fill="#FFA61C" d="M147,206c-0.1,0.3-0.3,0.5-0.5,0.6c-0.2,0.2-0.4,0.3-0.6,0.4c-0.2,0.1-0.4,0.1-0.7,0.1c-0.1,0-0.3,0-0.4,0   c-0.1,0-0.3-0.1-0.4-0.1v-1.1c0.1,0,0.2,0.1,0.4,0.1c0.1,0,0.2,0.1,0.4,0.1c0.3,0,0.5-0.1,0.6-0.2c0.2-0.1,0.3-0.3,0.4-0.5l0.5-1.3   l-3-7.5h1.4l2.2,6.2h0l2.1-6.2h1.3l-3.3,8.6C147.2,205.4,147.1,205.7,147,206"/>

<path fill="#FFA61C" d="M203.7,186.8h-4c-0.3,0-0.5,0.2-0.5,0.5v10.3c0,1.7-0.7,2.6-2.2,2.6c-1.5,0-2.2-0.9-2.2-2.6v-10.3   c0-0.3-0.2-0.5-0.5-0.5h-4c-0.3,0-0.5,0.2-0.5,0.5v11.3c0,3.5,2.5,6.3,7.2,6.3c4.7,0,7.3-2.8,7.3-6.3v-11.3   C204.2,187,204,186.8,203.7,186.8"/>

<path fill="#FFA61C" d="M232.8,194l-2.9-1c-0.9-0.3-1-0.8-1-1.1c0-0.5,0.4-0.9,1.3-0.9c0.9,0,2.3,0.3,3.6,1.3   c0.2,0.1,0.4,0.1,0.6-0.1l2.3-2.8c0.1-0.2,0.1-0.5-0.1-0.6c-1.9-1.6-4.3-2.2-6.4-2.2c-4.2,0-6.7,2.6-6.7,5.4c0,2.2,1.3,4.3,4,5.2   l2.6,0.9c1.3,0.4,1.5,0.8,1.5,1.3c0,0.5-0.5,1-1.5,1c-1.4,0-3.1-0.9-4.2-1.8c-0.2-0.2-0.4-0.1-0.6,0.1l-2.3,3   c-0.1,0.2-0.1,0.5,0.1,0.6c1.7,1.4,4.2,2.5,7.3,2.5c3.9,0,6.8-2.3,6.8-5.7C237,196.8,235.6,194.9,232.8,194"/>

<path fill="#FFA61C" d="M214.4,194.3h-2.6v-3.1h2.6c1.5,0,2,0.7,2,1.5C216.5,193.7,215.9,194.3,214.4,194.3 M218.4,197.9   c2.1-1.1,3.2-2.7,3.2-5.2c0-3.1-2.5-5.9-6.8-5.9h-7.7c-0.3,0-0.5,0.3-0.5,0.5V204c0,0.3,0.2,0.5,0.5,0.5h4.2c0.3,0,0.5-0.2,0.5-0.5   v-5.4h1.6l2.9,5.5c0.1,0.2,0.4,0.4,0.7,0.4h4.8c0.3,0,0.4-0.2,0.2-0.4L218.4,197.9z"/>

<path fill="#FFA61C" d="M168.2,186.8h-12.1c-0.4,0-0.6,0.3-0.6,0.5V204c0,0.3,0.2,0.5,0.5,0.5h4.1c0.3,0,0.5-0.3,0.5-0.5v-5.4h5.2   c0.2,0,0.5-0.2,0.5-0.4l0.8-3.7c0-0.2-0.1-0.5-0.4-0.5h-6.1v-2.7h6.8c0.3,0,0.5-0.2,0.5-0.4l0.7-3.5   C168.8,187.1,168.6,186.8,168.2,186.8"/>

<path fill="#FFA61C" d="M322,191.3c0.3,0,0.5-0.2,0.5-0.4l0.7-3.5c0.1-0.3,0-0.6-0.4-0.6h-12.1c-0.3,0-0.5,0.3-0.5,0.5V204   c0,0.3,0.2,0.5,0.5,0.5h11c0.3,0,0.5-0.2,0.5-0.4l0.7-3.5c0.1-0.3,0-0.6-0.4-0.6h-7.3v-2h5.1c0.3,0,0.5-0.2,0.5-0.4l0.8-3.7   c0-0.2-0.1-0.5-0.4-0.5h-6.1v-2H322z"/>

<path fill="#FFA61C" d="M282.6,196.8H281l1.6-5.4l1.6,5.4H282.6z M285.9,187.2c-0.1-0.2-0.3-0.4-0.5-0.4h-5.5   c-0.2,0-0.5,0.2-0.5,0.4l-5.1,16.9c-0.1,0.2,0.1,0.4,0.3,0.4h4.5c0.2,0,0.5-0.2,0.5-0.4l0.7-2.5h4.5l0.8,2.5   c0.1,0.2,0.3,0.4,0.5,0.4h4.5c0.2,0,0.4-0.2,0.3-0.4L285.9,187.2z"/>

<path fill="#FFA61C" d="M272.8,186.8h-4c-0.3,0-0.5,0.2-0.5,0.5v10.3c0,1.7-0.7,2.6-2.2,2.6c-1.5,0-2.2-0.9-2.2-2.6v-10.3   c0-0.3-0.2-0.5-0.5-0.5h-4c-0.3,0-0.5,0.2-0.5,0.5v11.3c0,3.5,2.5,6.3,7.2,6.3c4.7,0,7.3-2.8,7.3-6.3v-11.3   C273.3,187,273.1,186.8,272.8,186.8"/>

<path fill="#FFA61C" d="M300.5,194.3h-2.6v-3.1h2.6c1.5,0,2,0.7,2,1.5C302.5,193.7,302,194.3,300.5,194.3 M304.5,197.9   c2.1-1.1,3.3-2.7,3.3-5.2c0-3.1-2.5-5.9-6.8-5.9h-7.7c-0.3,0-0.5,0.3-0.5,0.5V204c0,0.3,0.2,0.5,0.5,0.5h4.2c0.3,0,0.5-0.2,0.5-0.5   v-5.4h1.6l2.9,5.5c0.1,0.2,0.4,0.4,0.7,0.4h4.8c0.3,0,0.4-0.2,0.2-0.4L304.5,197.9z"/>

<path fill="#FFA61C" d="M247.5,200.2c-2.3,0-3.9-2-3.9-4.5c0-2.5,1.6-4.5,3.9-4.5c2.3,0,3.9,2,3.9,4.5   C251.4,198.2,249.9,200.2,247.5,200.2 M256.7,202.3c-0.6,0.2-1.6,0.5-2.8,0.2c0,0,0,0,0,0c0.2-0.2,0.4-0.3,0.5-0.5   c2.4-2.5,3.1-6.3,1.9-9.5c-1.2-3.3-4.4-5.6-8-5.9c-3.6-0.3-7.2,1.5-9,4.6c-1.8,3.3-1.5,7.6,1,10.5c2.1,2.5,5.5,3.5,8.6,3.1   c0,0,0.1,0.1,0.1,0.1c1.7,1.6,4.6,2.6,7,2.6l1-4.8C257.1,202.4,257,202.2,256.7,202.3"/>

<path fill="#FFA61C" d="M178.4,200.2c-2.3,0-3.9-2-3.9-4.5c0-2.5,1.6-4.5,3.9-4.5s3.9,2,3.9,4.5   C182.3,198.2,180.8,200.2,178.4,200.2 M179.2,186.6c-3.6-0.3-7.2,1.5-9,4.6c-1.8,3.3-1.5,7.6,1,10.5c3.5,4.1,10.3,4.3,14.1,0.4   c2.4-2.5,3.1-6.3,1.9-9.5C186,189.2,182.8,186.9,179.2,186.6"/>

</svg>