<?xml version="1.0" ?>
<svg xmlns="http://www.w3.org/2000/svg" viewBox="0 0 1817.376 375.062">
	<defs>
		<style>
      .cls-1 {
        fill: #595959;
      }
      .cls-2 {
        fill: url(#linear-gradient);
      }
    </style>
		<linearGradient id="linear-gradient" x1="-1.33" y1="138.43" x2="498.186" y2="239.172" gradientUnits="userSpaceOnUse">
			<stop offset="0" stop-color="#529bf8"/>
			<stop offset=".931" stop-color="#83d299"/>
		</linearGradient>
	</defs>
	<g>
		<g id="Layer_1">
			<path class="cls-1" d="M1670.061,371.245c0-4.857.13-7.888.119-12.178-.007-2.928.715-4.377,3.909-3.996,1.807.216,3.673-.104,5.49.061,14.562,1.325,24.483-5.801,31.704-17.561,6.289-10.241,10.064-21.688,15.13-32.518,1.088-2.326-.488-4.188-1.295-6.107-19.952-47.487-39.946-94.956-59.925-142.431-2.943-6.993-5.843-14.005-8.991-21.556,8.24,0,15.721.09,23.198-.045,2.906-.053,2.996,2.162,3.693,3.888,10.903,26.953,21.851,53.889,32.628,80.893,7.434,18.63,15.66,36.949,22.193,56.151,4.175-13.462,9.753-26.254,14.859-39.225,12.782-32.465,25.701-64.875,38.409-97.369,1.284-3.283,2.847-4.567,6.439-4.389,6.471.32,12.97.09,19.478.09.832,1.975-.431,3.315-1.004,4.72-26.951,66.164-53.978,132.297-80.888,198.478-5.697,14.01-13.954,25.667-27.763,32.722-.34.174-4.259,2.166-10.172,3.133s-27.213,2.731-27.213-2.761Z"/>
			<path class="cls-1" d="M854.266,173.151c-5.14,16.097-10.291,32.191-15.418,48.292-8.419,26.439-16.88,52.865-25.161,79.348-1.018,3.257-2.423,4.471-5.903,4.255-5.477-.34-11.003-.316-16.483-.006-3.302.187-4.544-1.067-5.478-4.079-13.926-44.911-27.974-89.784-41.989-134.668-2.823-9.04-5.525-18.12-8.5-27.11-1.053-3.183-.81-4.505,3.001-4.299,5.149.279,10.344.337,15.484-.021,3.688-.257,5.078,1.139,6.116,4.546,12.544,41.166,25.245,82.284,37.915,123.412.758,2.459,1.597,4.893,2.54,7.77,1.741-1.729,1.893-3.593,2.413-5.245,13.117-41.682,26.265-83.354,39.213-125.088,1.217-3.922,2.989-5.289,7-4.924,4.131.376,8.338.304,12.483.016,3.531-.245,5.224.85,6.334,4.423,13.214,42.523,26.61,84.988,39.961,127.468.447,1.422.924,2.834,1.814,5.556,1.825-6.474,3.376-11.803,4.829-17.158,10.489-38.648,21.007-77.289,31.355-115.975.984-3.679,2.447-5.127,6.375-4.808,4.966.403,10.003.333,14.982.024,4.059-.252,4.224,1.241,3.255,4.581-9.123,31.436-18.117,62.91-27.154,94.371-6.423,22.359-12.945,44.69-19.184,67.1-.901,3.238-2.203,4.238-5.419,4.093-5.487-.247-11.01-.331-16.484.026-3.564.232-4.782-1.15-5.805-4.363-13.058-41.004-26.276-81.957-39.458-122.921-.498-1.549-1.047-3.081-1.572-4.621-.354.002-.708.005-1.062.007Z"/>
			<path class="cls-1" d="M1466.276,69.027c-11.517,14.967-22.355,29.054-33.194,43.139-17.263,22.433-34.463,44.915-51.873,67.234-2.206,2.828-2.012,4.37.155,7.047,30.284,37.404,60.435,74.915,90.616,112.402,1.419,1.763,2.811,3.547,4.805,6.064-9.447,0-17.876-.017-26.305.009-2.904.009-3.772-2.5-5.154-4.213-27.391-33.961-54.827-67.887-81.956-102.056-3.608-4.544-7.179-6.389-12.918-6.095-9.519.488-9.537.133-9.537,9.897,0,32.479-.084,64.958.103,97.435.024,4.194-1.063,5.485-5.225,5.154-4.802-.381-9.66-.195-14.488-.046-2.49.077-3.837-.553-3.464-3.301.111-.818.016-1.663.016-2.496,0-77.116.04-154.232-.101-231.348-.008-4.521,1.026-6.226,5.71-5.682,3.95.458,8.007.433,11.98.135,4.249-.319,5.62.909,5.589,5.461-.222,32.81-.159,65.623-.089,98.435.017,7.719-1.617,6.399,7.202,7.213,7.663.708,12.268-2.048,16.874-8.154,23.46-31.106,47.481-61.788,71.179-92.716,2.061-2.689,4.171-3.696,7.479-3.59,7.143.229,14.298.071,22.598.071Z"/>
			<path class="cls-1" d="M651.338,308.049c-26.412-.493-49.855-8.89-70.081-26.082-3.373-2.867-4.925-5.161-1.034-8.985,3.178-3.123,5.776-6.893,8.302-10.6,1.719-2.522,2.793-2.199,4.9-.364,15.905,13.853,34.192,22.246,55.459,23.486,10.49.611,20.603-.981,29.989-5.903,24.147-12.665,28.765-43.684,9.394-62.845-7.579-7.497-16.836-12.429-26.372-16.839-11.616-5.372-23.36-10.468-35.005-15.777-6.67-3.041-12.966-6.76-19.104-10.778-36.665-24.003-32.134-70.526-3.62-93.708,12.977-10.551,27.968-16.007,44.459-17.091,24.621-1.619,47.147,4.413,67.022,19.486,2.941,2.23,3.654,4.022,1.366,7.228-2.598,3.641-4.836,7.586-6.829,11.598-1.664,3.351-2.789,3.754-6.048,1.256-18.269-14.002-38.771-20.683-61.756-15.94-17.625,3.637-30.893,13.238-35.639,31.574-3.002,11.597-.074,22.082,8.071,30.973,6.771,7.392,15.31,12.252,24.267,16.36,13.294,6.098,26.752,11.838,40.058,17.912,7.122,3.251,13.738,7.407,20.177,11.893,37.647,26.228,31.649,85.088-9.746,104.996-12.092,5.815-24.868,8.261-38.229,8.151Z"/>
			<path class="cls-1" d="M1571.862,221.061c-19.654,0-39.308,0-58.962,0-6.755,0-6.68-.007-5.94,6.919,5.882,55.041,57.563,70.918,95.879,53.586,6.697-3.029,13.025-6.72,18.558-11.592,2.054-1.809,3.195-2.24,4.673.647,2.116,4.136,4.631,8.078,7.124,12.008,1.141,1.8,1.414,2.951-.545,4.54-43.624,35.373-108.895,26.691-136.695-18.578-21.739-35.399-16.327-87.799,13.116-115.282,24.537-22.904,53.84-28.478,85.261-17.322,24.145,8.573,36.006,28.3,41.339,52.415,2.062,9.325,2.329,18.786,1.892,28.31-.155,3.37-1.263,4.457-4.739,4.428-20.319-.166-40.64-.082-60.96-.081ZM1560.774,202.061c16.475,0,32.951.02,49.426-.029,1.752-.005,4.158.927,3.955-2.616-1.156-20.174-10.92-41.598-35.231-47.693-24.729-6.2-61.217,4.505-70.371,45.456-.871,3.895-.52,5.046,3.795,4.98,16.139-.246,32.284-.098,48.426-.099Z"/>
			<path class="cls-1" d="M1118.664,229.465c0,23.643-.093,47.287.094,70.928.03,3.805-1.022,4.923-4.736,4.64-4.306-.328-8.68-.365-12.979.005-4.247.365-5.598-.735-5.563-5.329.24-30.967.125-61.937.125-92.906,0-15.984-.105-31.969.081-47.951.042-3.587-.669-5.124-4.608-4.802-4.468.365-8.993-.044-13.483.133-2.617.103-3.537-.79-3.432-3.405.168-4.156.169-8.328,0-12.484-.108-2.642.871-3.525,3.462-3.384,3.321.18,6.66.043,9.992.043,7.983,0,8.003,0,7.983-7.759-.022-8.165.255-16.28,2.091-24.307,5.167-22.59,20.765-36.821,43.782-39.73,5.624-.711,11.27-.909,16.938-1.033,3.228-.071,3.987,1.135,3.863,4.048-.183,4.321-.205,8.664.006,12.982.147,3.024-.797,4.161-3.937,3.936-4.997-.359-9.988.092-14.872,1.293-14.784,3.636-23.621,15.422-24.619,33.007-.264,4.649.005,9.328-.239,13.979-.151,2.873.869,3.674,3.685,3.641,11.824-.139,23.654.06,35.477-.133,3.384-.055,4.842.717,4.52,4.356-.307,3.469-.278,7.004-.006,10.479.267,3.413-.757,4.579-4.358,4.508-11.655-.231-23.32.059-34.976-.173-3.593-.071-4.385,1.081-4.364,4.488.142,23.642.075,47.285.075,70.928Z"/>
			<path class="cls-1" d="M1214.912,205.129c0-17.213-.237-31.375.131-45.522.126-4.84-1.537-5.892-5.87-5.548-4.305.342-8.661-.035-12.988.117-2.437.085-3.673-.416-3.508-3.233.3-5.12-1.572-11.664.94-14.986,2.419-3.199,9.329-.843,14.258-.958,7.592-.177,7.595-.047,7.595-7.761,0-20.151.106-40.304-.093-60.453-.038-3.842,1.114-4.904,4.793-4.647,4.477.312,9.007.306,13.485.001,3.601-.245,4.418,1.096,4.395,4.502-.144,21.15.037,42.302-.168,63.45-.039,4.022,1.158,5.037,5.042,4.95,11.157-.25,22.327.063,33.484-.174,3.604-.077,4.623,1.061,4.347,4.501-.291,3.641-.284,7.34,0,10.981.251,3.207-.995,3.888-3.967,3.848-11.494-.154-22.994.08-34.485-.146-3.589-.071-4.417,1.084-4.4,4.512.134,26.979.017,53.959.115,80.938.026,7.165.841,14.272,3.275,21.108,5.308,14.908,16.898,23.236,33.582,23.364,4.67.036,6.823,1.006,5.957,5.969-.282,1.616-.044,3.323-.044,4.988q0,10.303-10.115,9.955c-32.195-1.106-52.236-20.213-55.062-52.383-1.475-16.798-.21-33.624-.701-47.373Z"/>
			<path class="cls-1" d="M1009.319,220.082c0-26.46.151-52.921-.133-79.378-.054-5.013,1.434-6.342,6.113-5.83,3.619.396,7.35.389,10.971.003,4.846-.517,6.421.798,6.385,6.095-.269,39.438-.146,78.879-.146,118.32,0,13.646-.115,27.294.078,40.937.05,3.557-.629,5.154-4.594,4.812-4.296-.371-8.674-.368-12.972-.005-4.399.371-5.873-.818-5.826-5.575.258-26.457.124-52.919.124-79.378Z"/>
			<path class="cls-1" d="M1032.507,78.116c0,4.156-.094,8.315.036,12.466.075,2.383-.359,3.695-3.217,3.597-5.648-.193-11.309-.163-16.959-.008-2.479.068-3.11-.896-3.084-3.195.095-8.477.116-16.957-.009-25.433-.038-2.61.834-3.465,3.441-3.384,5.483.17,10.978.171,16.461.002,2.689-.083,3.467.949,3.373,3.488-.155,4.15-.042,8.31-.041,12.466Z"/>
			<path class="cls-2" d="M396.721,336.796c1.283,3.339.699,4.816-2.874,6.064-19.988,6.983-40.416,12.243-61.234,15.951-37.305,6.644-74.987,8.724-112.813,8.829-1.982.005-4.009.271-5.921-.554-15.627.371-31.221-.522-46.788-1.632-11.762-.839-23.481-2.283-35.217-3.478-1.588-.162-3.862.093-3.684-2.253.177-2.327,2.459-1.763,4.013-1.733,21.315.411,42.582-.662,63.835-2.081,8.955-.598,17.894-1.421,26.84-2.142,13.14-1.936,26.315-3.659,39.412-5.846,41.641-6.955,82.321-17.324,120.833-35.048,3.3-1.519,4.773-1.534,5.959,2.299,2.259,7.298,4.896,14.49,7.638,21.625ZM438.831,133.124c-14.966-18.398-33.379-32.597-53.908-44.219-9.173-5.9-18.885-10.787-28.833-15.212-15.772-7.015-31.74-13.514-48.47-17.962-23.787-7.937-48.246-13.122-72.869-17.602-29.006-5.278-58.271-8.555-87.659-10.608-28.085-1.962-56.218-2.898-84.381-2.117-1.844.051-4.748-.573-4.845,2.107-.102,2.798,2.866,2.209,4.68,2.323,10.471.655,20.876,1.895,31.288,3.133,42.021,4.995,83.429,13.096,124.252,24.219,22.634,6.167,44.751,13.903,66.748,22.002,6.512,2.88,13.008,5.799,19.54,8.633,19.25,8.352,37.436,18.693,55.377,29.499,18.566,12.738,36.156,26.655,51.826,42.889,1.249,1.552,2.436,3.158,3.756,4.647,13.917,15.693,25.117,33.103,33.294,52.437,9.454,22.355,13.641,45.773,14.216,69.934.045,1.89-.449,4.59,2.332,4.727,2.372.116,2.241-2.477,2.663-4.153,7.269-28.872,9.865-57.981,3.964-87.431-5.067-25.289-15.903-47.808-32.971-67.246M314.706,173.118c16.56,13.508,32.611,27.562,47.097,43.331,2.223,2.42,3.765,5.496,6.749,7.205.049.16.058.353.156.472,25.461,30.996,44.513,65.246,53.268,104.734.284,1.28.699,2.826,2.428,2.61,1.383-.173,1.511-1.576,1.713-2.736.171-.982.452-1.95.551-2.938,2.388-23.799,2.077-47.463-3.835-70.803-5.52-21.789-14.321-42.077-27.942-60.114-10.504-16.049-24.349-29.027-38.546-41.649-3.822-3.398-7.684-6.837-12.236-9.32-6.853-4.797-13.228-10.271-20.535-14.425-2.676-1.521-5.334-3.074-7.978-4.65-13.754-8.198-27.723-15.97-42.774-21.601-2.941-1.408-5.856-2.872-8.827-4.214-12.36-5.578-25.192-9.951-38.021-14.24C155.033,61.065,81.872,49.151,7.419,44.362c-2.395-.154-6.712-2.144-7.094,1.639-.33,3.27,4.213,2.353,6.509,2.772,62.852,11.492,123.77,29.461,182.753,54.018,19.8,8.243,39.02,17.702,58.159,27.34,23.086,13.137,45.629,27.12,66.961,42.986M180.863,295.964c.823-.089,1.674-.07,2.464-.282,28.625-7.694,56.771-16.79,84.046-28.477,22.546-9.661,44.255-20.863,64.617-34.591,1.756-1.184,4.049-1.924,1.324-4.697-8.62-8.769-18.175-16.403-27.939-23.816-1.643-1.248-2.859-.999-4.427.121-24.999,17.845-51.791,32.64-79.206,46.367-25.366,11.518-50.924,22.557-77.296,31.635-18.826,6.481-37.735,12.669-56.977,17.82-10.88,2.913-21.722,5.972-32.58,8.965-17.427,3.403-34.659,7.776-52.219,10.527-1.24.194-2.994.457-2.618,2.299.471,2.306,2.529,1.724,4.095,1.628,14.93-.921,29.865-1.79,44.709-3.74.496.033,1,.141,1.487.088,27.052-2.999,53.98-6.874,80.674-12.186,16.737-3.33,33.506-6.6,49.846-11.661ZM209.685,333.419c12.457-1.783,24.95-3.431,37.188-6.496,11.231-1.447,22.162-4.336,33.112-7.064,31.398-7.824,61.857-18.269,90.813-32.886,3.184-1.607,4.108-2.823,2.044-6.195-4.952-8.093-9.936-16.148-15.277-23.999-2.164-3.182-3.834-3.111-6.813-1.295-9.626,5.87-19.49,11.33-29.558,16.422-14.114,7.14-28.811,12.952-43.325,19.181-6.556,2.312-13.103,4.65-19.669,6.933-30.573,10.629-61.921,18.408-93.489,25.379-5.036.894-10.083,1.733-15.107,2.691-29.083,5.544-58.395,9.376-87.892,11.854-1.576.132-3.882-.337-3.837,2.025.053,2.752,2.618,1.942,4.256,2.021,16.969.813,33.942.223,50.904-.185,13.288-.32,26.58-.95,39.809-2.425,19.057-.929,37.972-3.262,56.839-5.962ZM507.771,149.477c-2.648-17.517-7.379-34.362-16.827-49.59-2.489-4.85-5.22-9.586-8.638-13.816-6.649-8.229-13.487-16.189-21.714-23.089-7.285-6.11-14.505-12.115-22.788-16.789-12.21-8.435-25.786-14.182-39.476-19.58-17.309-6.824-35.227-11.693-53.49-15.266-1.478-.165-3.001-.154-4.426-.522-19.165-4.944-38.813-6.727-58.417-8.447-33.724-2.959-67.526-2.956-101.321-1.092-16.121.889-32.21,2.236-48.238,4.201-1.602.196-4.374-.203-4.317,2.288.059,2.576,2.633,1.93,4.358,1.928,17.487-.023,34.961.198,52.427,1.309,29.749,1.894,59.299,5.296,88.641,10.592,17.52,3.163,34.743,7.581,52.036,11.716,9.576,3.196,19.206,6.242,28.718,9.62,21.473,7.626,42.069,17.149,61.527,29.059,21.006,13.162,39.314,29.335,54.595,48.886.201.455.331.962.615,1.359,21.132,29.478,30.006,62.551,28.959,98.541-.029.996-.058,2.001.034,2.99.097,1.042.537,1.971,1.713,2.121,1.225.156,1.768-.687,2.048-1.72.305-1.122.614-2.246.833-3.387,4.534-23.617,6.77-47.348,3.147-71.312Z"/>
		</g>
	</g>
</svg>