<?xml version="1.0" ?>

<!-- Creator: CorelDRAW 2019 (64-Bit) -->
<svg xmlns="http://www.w3.org/2000/svg"  xmlns:xodm="http://www.corel.com/coreldraw/odm/2003" xml:space="preserve" style="shape-rendering:geometricPrecision; text-rendering:geometricPrecision; image-rendering:optimizeQuality; fill-rule:evenodd; clip-rule:evenodd" viewBox="0 0 3129 1079.92">
	<defs>
		<style type="text/css">
    .fil0 {fill:#BD2D31}
    .fil1 {fill:#222222}
</style>
	</defs>
	<g id="Layer_x0020_1">
		<path class="fil0" d="M816.69 635.88c20.51,-1.38 47.78,-0.01 78.96,15.53l-16.18 38.18c-19.74,-11.32 -38.37,-15.12 -64.07,-11.65 -15.73,2.13 -34.14,17.78 -33.66,33.66 0.52,16.83 9.47,25.98 20.71,31.71 49.9,25.43 103.41,36.78 101.29,109.05 -1.03,34.8 -26.22,65.32 -59.55,75.4 -28.9,8.73 -77.55,9.05 -125.22,-10.36l16.82 -39.48c22.54,10.03 43.85,15.18 66.66,15.54 31.81,0.49 47.64,-17.06 49.19,-36.89 1.98,-25.41 -21.3,-43.98 -52.42,-55.66 -44.01,-16.52 -68.56,-44.14 -70.87,-79.93 -2.38,-36.87 34.21,-81.48 88.34,-85.1zm1530.65 -0.41c75.36,0 136.45,66.71 136.45,149 0,82.29 -61.09,149.01 -136.45,149.01 -75.36,0 -136.44,-66.72 -136.44,-149.01 0,-82.29 61.08,-149 136.44,-149zm0 44.98c39.48,0 71.47,46.58 71.47,104.02 0,57.45 -31.99,104.02 -71.47,104.02 -39.47,0 -71.47,-46.57 -71.47,-104.02 0,-57.44 32,-104.02 71.47,-104.02zm-228.71 -44.98c22.82,0 44.48,4.76 63.98,13.31l-17.75 45.53c-13.94,-6.65 -29.63,-10.39 -46.23,-10.39 -57.63,0 -92.61,45.02 -92.61,100.55 0,55.54 34.98,100.56 92.61,100.56 19.24,0 37.26,-5.02 52.74,-13.78l3.67 52c-17.47,6.6 -36.5,10.23 -56.41,10.23 -85.4,0 -154.63,-44.24 -154.63,-149.01 0,-104.76 69.23,-149 154.63,-149zm-731.02 0l59.75 0 0 298.01 -59.75 0 0 -298.01zm29.88 -108.67c19.48,0 35.28,15.8 35.28,35.28 0,19.48 -15.8,35.28 -35.28,35.28 -19.48,0 -35.28,-15.8 -35.28,-35.28 0,-19.48 15.8,-35.28 35.28,-35.28zm1160.5 108.67l-64.9 0 85.88 298.01 50.85 0 64.78 -211.53 64.77 211.53 50.86 0 85.88 -298.01 -64.91 0 -51.49 223.15 -61.65 -223.15 -46.92 0 -61.66 223.15 -51.49 -223.15zm-1577.5 0l-64.9 0 85.88 298.01 50.85 0 64.78 -211.53 64.77 211.53 50.85 0 85.89 -298.01 -64.91 0 -51.49 223.15 -61.66 -223.15 -46.91 0 -61.66 223.15 -51.49 -223.15zm833.21 0.4c20.51,-1.37 47.78,0 78.95,15.53l-16.18 38.19c-19.74,-11.33 -38.37,-15.13 -64.07,-11.65 -15.72,2.12 -34.14,17.77 -33.65,33.65 0.51,16.83 9.46,25.98 20.71,31.71 49.89,25.44 103.41,36.78 101.28,109.05 -1.02,34.8 -26.22,65.33 -59.54,75.4 -28.91,8.74 -77.55,9.06 -125.23,-10.35l16.83 -39.48c22.54,10.03 43.85,15.18 66.66,15.53 31.8,0.49 47.63,-17.06 49.18,-36.89 1.98,-25.41 -21.3,-43.98 -52.42,-55.66 -44.01,-16.51 -68.56,-44.14 -70.87,-79.92 -2.38,-36.88 34.21,-81.48 88.35,-85.11zm1208.19 0c20.51,-1.37 47.79,0 78.96,15.53l-16.18 38.19c-19.74,-11.33 -38.37,-15.13 -64.07,-11.65 -15.73,2.12 -34.14,17.77 -33.66,33.65 0.52,16.83 9.47,25.98 20.71,31.71 49.9,25.44 103.41,36.78 101.29,109.05 -1.03,34.8 -26.22,65.33 -59.55,75.4 -28.9,8.74 -77.55,9.06 -125.22,-10.35l16.82 -39.48c22.55,10.03 43.85,15.18 66.66,15.53 31.81,0.49 47.64,-17.06 49.19,-36.89 1.98,-25.41 -21.3,-43.98 -52.42,-55.66 -44.01,-16.51 -68.56,-44.14 -70.87,-79.92 -2.38,-36.88 34.21,-81.48 88.34,-85.11zm-1436.12 0c20.51,-1.37 47.78,0 78.96,15.53l-16.19 38.19c-19.73,-11.33 -38.36,-15.13 -64.07,-11.65 -15.72,2.12 -34.13,17.77 -33.65,33.65 0.52,16.83 9.47,25.98 20.71,31.71 49.9,25.44 103.41,36.78 101.29,109.05 -1.03,34.8 -26.22,65.33 -59.55,75.4 -28.9,8.74 -77.55,9.06 -125.23,-10.35l16.83 -39.48c22.54,10.03 43.85,15.18 66.66,15.53 31.8,0.49 47.64,-17.06 49.19,-36.89 1.98,-25.41 -21.3,-43.98 -52.42,-55.66 -44.01,-16.51 -68.56,-44.14 -70.87,-79.92 -2.38,-36.88 34.21,-81.48 88.34,-85.11z"/>
		<path class="fil1" d="M329.42 1065.26l-46.6 14.66c4.8,-18.27 -1.28,-33.75 5.18,-46.37 5.21,-10.17 4.46,-38.82 -1.94,-86.07 -3.89,-28.71 -8.99,-60.59 -27.18,-89.31 -7.31,-11.53 -4.84,-10.69 0.64,-22.01 14.9,-30.76 24.6,-72.7 23.95,-121.67 -39.78,-52.58 -70.19,-97.23 -91.25,-133.97 -59.36,5.16 -93.74,-12.78 -107.44,-52.42 -16.39,-47.47 -21.44,-96.94 -9.06,-149.5 5.27,-22.33 -0.38,-34.74 -17.47,-41.42 -15.08,-5.89 -27.22,-3.66 -42.07,3.24 -14.35,6.67 -21.89,-4.6 -11,-21.36 24.13,-37.13 40.29,-37.91 57.6,-30.42 32.31,13.99 39.73,35.27 38.18,52.43 -1.53,17.08 -10.93,40.64 -11.65,67.95 -0.73,27.92 5.34,82.69 29.78,112.61 24.93,30.54 59.3,33.56 102.25,4.53 8.85,-5.98 13.45,-13.85 14.24,-20.71 1.14,-9.96 8.82,-14.83 20.06,-22.02 33.65,-21.51 80.43,-47.52 147.56,-71.82 60.42,-82.34 96.88,-120.6 110.02,-119.73 10.26,0.68 16.84,-9.17 23.94,-22.65 26.14,-49.59 46.25,-93.08 56.31,-132.67 -5.68,-3.77 -10.35,-2.07 -15.53,3.88 -11.43,13.12 -21.22,9.02 -33.01,-7.77 -14.56,-20.72 -10.6,-33.75 16.18,-44 9.91,-3.8 20.96,-5.3 33.65,-3.24 -8,-43.88 11.42,-72.36 58.25,-85.43 -25.11,27.08 -35.18,49.74 -27.18,66.66 3.21,6.81 7.34,3.81 14.24,-3.88 15.14,-16.88 32.78,-15.92 49.83,-2.59 6.21,4.85 15.16,7.63 25.89,9.06 5.19,0.7 9.99,0.1 14.23,-1.3 47.6,-15.67 75.06,-21.43 82.2,-22.65 16.78,-2.86 23.2,7.67 11.65,33.66 -2.54,5.69 -10.58,7.28 -16.83,10.35 -8.32,4.09 -8.62,7.57 -0.65,11.01 6.79,-3.89 13.79,-4.02 21.36,-1.3 10.6,3.81 4.59,9.57 -7.77,16.18 -11.22,6 -19.53,13.82 -24.59,25.24 -10.34,23.32 -33.01,46.3 -67.31,69.25 3.07,6.3 4.37,13.2 3.88,20.71 27.72,2.45 57.71,0.72 89.96,-5.18 4.67,-1.86 7.69,-5.1 9.06,-9.71 -2.74,-39.66 9.12,-62.96 35.6,-69.89 16.56,16.68 31.66,30.91 45.3,42.71 -0.71,12.65 -10.99,23.1 -29.12,34.3 -15.83,9.78 -30.31,12.02 -45.3,3.88 -13.06,24.72 -47.57,48.45 -103.55,71.2 14.31,13.28 21,27.21 23.3,41.42 1.13,7 7.42,10.26 15.53,9.06 21.58,-3.22 40.56,-5.79 56.95,-3.89 7.64,0.89 14.48,2.1 18.12,-1.94 4.66,-5.17 9.58,-2.25 22.65,2.59 58.48,21.67 115.83,36.1 168.92,52.42 -16.05,7.6 -30.72,14.93 -44.01,22.01 -15.68,-8.82 -28.99,-15.29 -40.13,-18.77 -7.65,-2.39 -16.37,-4.38 -24.59,-1.3 -32.53,12.19 -61.4,11.29 -88.66,-7.76 -3.66,8.23 -7.76,14.27 -12.3,18.12 5.94,6.95 19.48,15.61 42.07,19.41 11.44,1.93 19.15,5.31 22.65,16.83 13.65,25.68 28.64,51.27 47.89,74.43 7.18,8.64 11.37,17.89 14.89,29.12 4.97,15.85 14.8,32.29 24.59,51.13 -19.27,-5.26 -35.45,-8.06 -48.54,-8.42 -3.86,-9.76 -3.97,-19.6 -3.88,-29.77 0.05,-7.1 -4.72,-12.72 -9.71,-18.12 -8.74,-9.46 -16.8,-20.34 -25.24,-31.71 -23.32,-5.18 -43.16,-15.11 -59.54,-29.77 -20.67,8.95 -44.66,13.79 -71.84,16.18 -9.1,0.8 -13.14,8.56 -17.47,20.06 -23.13,61.39 -80.26,101.79 -164.39,129.44 -13.12,4.31 -15.35,14.68 -6.47,22 22.77,18.79 28.97,31.62 15.53,30.42 -23.21,-2.07 -26.69,-0.7 -14.9,13.62 16.95,20.58 13.9,25.79 -5.81,18.09 -13.87,-5.42 -22.82,-1.94 -19.41,9.06 8.38,27.04 7.91,28.88 -12.95,13.59 -11.38,-8.34 -17.83,-2.68 -16.18,11.01 2.93,24.25 -8.58,27.82 -17.47,2.58 -4.9,-13.9 -4.77,-17.49 -18.12,-8.41 -6.94,31.59 -21.3,53.65 -40.77,69.25 -5.29,4.24 -1.68,9.5 7.12,14.89 6.9,4.22 14.05,6.97 22.65,6.47 47.98,4.42 71.71,10.9 71.19,19.41 7.53,9.79 15.08,16.91 22.65,21.36 -17.14,7.02 -29.65,15.64 -37.54,25.89 -10.26,-4.41 -16.98,-11.87 -18.12,-22.65 -0.8,-7.61 -4.87,-16.15 -16.18,-17.48 -41.72,-4.92 -71.93,-1.34 -89.96,2.59 -12.11,-22.19 -18.8,-42.47 -20.06,-60.83 -7.51,-7.21 -12.91,-7 -16.18,0.64 -10.09,15.21 -22.17,25.78 -36.24,31.71 4.18,43.2 -1.64,92.39 -17.48,147.56 -2.25,12.38 -1.17,21.87 3.24,28.48 2.18,15.33 5.42,27.84 9.71,37.53zm407.73 -788.84c-7.48,-10.09 -8.55,-20.01 -3.23,-29.77 16.87,-0.88 33.48,-0.01 49.83,2.59 -8.47,14.85 -24,23.91 -46.6,27.18z"/>
	</g>
</svg>