<?xml version="1.0" ?>
<!-- Generator: Adobe Illustrator 27.1.1, SVG Export Plug-In . SVG Version: 6.00 Build 0)  -->
<svg xmlns="http://www.w3.org/2000/svg" viewBox="0 0 141.7 38.8" enable-background="new 0 0 141.7 38.8">
	<style type="text/css">
	.st0{fill:#3D117A;}
</style>
	<path class="st0" d="M130.9,9c-2.5,0-5.2,0.9-6.9,2.5l0.3-2H115l-0.7,4.8c-1.4-5-6.5-8.2-13.3-8.2c-3.4,0-6.5,0.8-8.9,2.2  C90.9,3.3,85.8,0,78.9,0c-7.5,0-13.1,3.9-14.5,9.5h-4.7l-6.2,11.4L52,9.5h-8.6l-5.9,11.4L35.6,9.5h-9.9l0.3,1.5  c-2.8-1.3-6.6-2-10.5-2c-8.3,0-13,3.5-13,8.2c0,4.8,5.1,5.8,9.5,6.4c4.1,0.5,5.3,0.5,5.3,1.3c0,0.6-0.9,0.9-3.2,0.9  c-4,0-8.4-1.3-10.8-3.2L0,29c3.2,2,8.5,3.2,13.8,3.2c8.4,0,13.4-3.5,13.4-8.6c0-4.7-5.9-6-10.3-6.4c-3.3-0.3-4.5-0.5-4.5-1.1  c0-0.6,0.8-0.8,2.6-0.8c2.9,0,6.4,0.9,9,2.4l2.9-3.6l3.9,17.7h9.2L46,19.9l1.9,11.8h8.8L65.3,17c2.1,3.8,6.6,6.2,12.4,6.2  c3.4,0,6.5-0.8,8.9-2.2c1.3,5.2,6.4,8.4,13.3,8.4c6,0,10.8-2.5,13.1-6.4l-2.2,15.8h9.4l1.3-9.1c1.8,1.5,4.3,2.5,7.3,2.5  c8,0,12.9-6,12.9-12.5C141.7,13.8,137.8,9,130.9,9z M78,15.9c-2.7,0-4.7-1.4-4.7-3.9c0-2.5,1.9-4.7,5.2-4.7c2.7,0,4.7,1.4,4.7,3.9  C83.3,13.7,81.3,15.9,78,15.9z M100.2,22.1c-2.7,0-4.7-1.4-4.7-3.9c0-2.5,1.9-4.7,5.2-4.7c2.7,0,4.7,1.4,4.7,3.9  C105.4,19.9,103.5,22.1,100.2,22.1z M127.2,24.9c-2.7,0-4.7-1.4-4.7-3.9s2-4.7,5.3-4.7c2.7,0,4.7,1.4,4.7,3.9  C132.5,22.7,130.5,24.9,127.2,24.9z"/>
</svg>