<?xml version="1.0" ?>
<svg xmlns="http://www.w3.org/2000/svg" viewBox="0.0 0.0 9.38 9.38">
	<g transform=" translate(11.755 -0.3)">
		<g id="g2206" transform="matrix(1.539770 0.000000 0.000000 1.539770 -2.699 -2.699 )">
			<g id="g2200">
				<path id="path14" style="fill:#fda10c;fill-opacity:1.0000000;stroke:#fda10c;stroke-width:0.0;stroke-linecap:butt;stroke-linejoin:miter;stroke-miterlimit:10.433000;stroke-dashoffset:0.0000000;stroke-opacity:1.0000000" transform="matrix(8.888889e-3 0.000000 0.000000 8.888889e-3 -8.611 0.0 )" d="M 621.96,249.645 C 601.573,251.284 583.783,254.246 564.544,258.992 C 562.807,259.421 557.039,261.11 555.312,261.562 C 549.778,263.014 543.487,264.84 538.069,266.534 C 473.238,288.966 427.312,345.469 427.188,412.188 C 427.057,468.102 463.368,527.206 517.188,551.562 C 517.504,551.705 517.808,551.733 518.125,551.875 L 525.625,548.438 L 533.125,545.312 L 540.625,542.5 L 548.438,539.688 L 556.562,536.875 L 564.688,534.688 L 572.812,532.188 L 581.25,530.312 L 597.5,525.938 L 605.625,524.062 L 613.75,522.188 L 621.875,520.0 L 629.688,518.125 L 637.188,515.938 L 644.688,513.75 C 644.389,513.615 644.049,513.572 643.75,513.438 C 582.466,485.808 510.0,454.071 510.0,374.062 C 510.0,313.336 562.276,260.467 621.96,249.645"/>
				<path id="path40" style="fill:#000000;fill-opacity:1.0000000;stroke:#000000;stroke-width:0.0;stroke-linecap:butt;stroke-linejoin:miter;stroke-miterlimit:10.433000;stroke-dashoffset:0.0000000;stroke-opacity:1.0000000" d="M -2.443,7.774 L -2.075,7.704 C -1.383,7.571 -0.855,7.013 -0.854,6.344 C -0.853,5.847 -1.174,5.321 -1.653,5.104 C -2.087,4.909 -2.48,4.749 -2.89,4.564 C -3.435,4.319 -4.079,4.036 -4.079,3.325 C -4.079,2.708 -3.529,2.204 -2.855,2.204 L -2.646,2.214 C -1.061,2.303 0.214,3.536 0.214,4.999 C 0.214,6.399 -0.93,7.6 -2.443,7.774"/>
				<path id="path42" style="fill:#fade0a;fill-opacity:1.0000000;stroke:#fade0a;stroke-width:0.0;stroke-linecap:butt;stroke-linejoin:miter;stroke-miterlimit:10.433000;stroke-dashoffset:0.0000000;stroke-opacity:1.0000000" d="M -2.813,7.796 L -2.75,7.795 L -2.689,7.791 L -2.627,7.784 L -2.568,7.774 L -2.508,7.761 L -2.45,7.746 L -2.393,7.729 L -2.337,7.709 L -2.284,7.687 L -2.231,7.663 L -2.18,7.636 L -2.13,7.607 L -2.082,7.575 L -2.036,7.543 L -1.991,7.508 L -1.948,7.47 L -1.908,7.432 L -1.869,7.393 L -1.833,7.349 L -1.798,7.306 L -1.767,7.261 L -1.738,7.215 L -1.71,7.167 L -1.685,7.117 L -1.663,7.067 L -1.645,7.014 L -1.628,6.962 L -1.614,6.907 L -1.604,6.853 L -1.596,6.797 L -1.591,6.74 L -1.589,6.683 C -1.589,5.971 -2.233,5.69 -2.778,5.443 C -3.188,5.258 -3.58,5.098 -4.014,4.903 C -4.493,4.686 -4.814,4.16 -4.813,3.663 C -4.812,3.038 -4.352,2.51 -3.727,2.335 C -3.551,2.286 -3.363,2.252 -3.182,2.226 C -4.708,2.378 -5.888,3.58 -5.888,4.999 C -5.888,6.54 -4.517,7.796 -2.837,7.796 C -2.837,7.796 -2.813,7.796 -2.813,7.796"/>
				<path id="path46" style="fill:#547070;fill-opacity:1.0000000;stroke:#547070;stroke-width:0.0;stroke-linecap:butt;stroke-linejoin:miter;stroke-miterlimit:10.433000;stroke-dashoffset:0.0000000;stroke-opacity:1.0000000" d="M -2.42,7.77 L -2.464,7.775 L -2.507,7.78 L -2.551,7.784 L -2.595,7.787 L -2.64,7.791 L -2.684,7.793 L -2.729,7.794 L -2.774,7.795 C -2.118,7.777 -1.589,7.288 -1.589,6.683 C -1.589,5.971 -2.233,5.69 -2.778,5.443 C -2.782,5.442 -2.784,5.439 -2.788,5.438 C -2.378,5.292 -2.05,5.308 -1.648,5.108 C -1.172,5.325 -0.853,5.849 -0.854,6.344 C -0.855,7.013 -1.383,7.571 -2.075,7.704 L -2.42,7.77"/>
			</g>
		</g>
	</g>
</svg>
