<?xml version="1.0" ?>
<svg xmlns="http://www.w3.org/2000/svg" viewBox="0 0 64 64">
	<g transform="matrix(2.409464 0 0 2.409464 -17.555509 -34.096333)">
		<circle r="13.281" cy="27.432" cx="20.567" fill="#1a171b"/>
		<path d="M 26.373,19.065 C 25.023,19.112 23.846,19.855 22.97,20.885 C 22.0,22.013 21.354,23.35 20.888,24.715 C 20.056,24.033 19.414,23.15 18.088,22.765 A 3.43,3.43 0.0 0,0 14.975,23.334 C 14.503,23.687 14.177,24.22 14.023,24.721 C 13.623,26.024 14.443,27.183 14.817,27.599 L 15.633,28.473 C 15.801,28.643 16.206,29.093 16.008,29.733 C 15.794,30.43 14.953,30.883 14.091,30.616 C 13.706,30.499 13.153,30.212 13.277,29.808 C 13.327,29.643 13.447,29.518 13.51,29.376 C 13.568,29.253 13.596,29.161 13.614,29.106 C 13.772,28.592 13.556,27.923 13.006,27.753 C 12.492,27.595 11.966,27.72 11.762,28.383 C 11.532,29.135 11.89,30.499 13.817,31.083 C 16.075,31.777 17.984,30.547 18.255,28.943 C 18.425,27.939 17.972,27.193 17.142,26.243 L 16.465,25.495 C 16.065,25.095 15.915,24.387 16.339,23.851 C 16.697,23.398 17.207,23.205 18.042,23.431 C 19.262,23.761 19.804,24.608 20.712,25.291 C 20.338,26.519 20.092,27.751 19.872,28.857 L 19.737,29.681 C 19.089,33.081 18.594,34.948 17.307,36.019 C 17.047,36.203 16.677,36.479 16.119,36.499 C 15.826,36.509 15.732,36.307 15.729,36.219 C 15.722,36.014 15.895,35.919 16.009,35.827 C 16.181,35.733 16.441,35.577 16.423,35.08 C 16.403,34.492 15.917,33.98 15.213,34.005 C 14.685,34.023 13.881,34.52 13.911,35.429 C 13.943,36.369 14.818,37.072 16.138,37.027 C 16.843,37.003 18.418,36.717 19.971,34.87 C 21.778,32.754 22.283,30.33 22.664,28.554 L 23.088,26.21 L 23.85,26.264 C 26.1,26.311 27.226,25.146 27.243,24.298 C 27.253,23.785 26.906,23.28 26.419,23.291 C 26.069,23.301 25.632,23.533 25.527,24.015 C 25.424,24.488 26.243,24.915 25.603,25.329 C 25.148,25.623 24.333,25.831 23.185,25.662 L 23.395,24.508 C 23.821,22.32 24.345,19.628 26.34,19.564 C 26.485,19.557 27.017,19.571 27.03,19.922 C 27.034,20.039 27.005,20.069 26.867,20.338 C 26.727,20.538 26.674,20.726 26.681,20.931 C 26.701,21.491 27.125,21.857 27.739,21.835 C 28.562,21.808 28.799,21.008 28.785,20.595 C 28.752,19.629 27.733,19.018 26.385,19.063 L 26.373,19.065" fill="#fff"/>
	</g>
</svg>