<?xml version="1.0" ?>
<svg xmlns="http://www.w3.org/2000/svg" version="1.2" viewBox="0 0 1538 1428">
	<style>
		.s0 { fill: #8b9298 } 
		.s1 { fill: #5c6670 } 
		.s2 { fill: #ff8c44 } 
		.s3 { fill: #ff5000 } 
		.s4 { fill: #ee666c } 
		.s5 { fill: #d70036 } 
		.s6 { fill: #43b6c2 } 
		.s7 { fill: #0096a9 } 
		.s8 { fill: #ffc25c } 
		.s9 { fill: #f7a800 } 
		.s10 { fill: #508898 } 
		.s11 { fill: #00586f } 
	</style>
	<g id="Layer">
		<path id="Layer" class="s0" d="m1046 252.4l64.1 83.9 210.3 100.2 205.4-9.8-479.8-174.3z"/>
		<path id="Layer" class="s1" d="m1100.2 727.5l47.7-123.3 180.7-136.4 208.7-11.5-437.1 271.2z"/>
		<path id="Layer" class="s2" d="m659.9 106.1l36.1 64.1 147.9 74 159.4-14.8-343.4-123.3z"/>
		<path id="Layer" class="s3" d="m628.7 469.4l54.2-93.7 161-108.5 161-14.8-376.2 217z"/>
		<path id="Layer" class="s4" d="m625.4 497.3l44.3 98.7 180.8 128.2 198.8-1.7-423.9-225.2z"/>
		<path id="Layer" class="s5" d="m577.7 1054.6l70.7-143 202.1-151.2 202.1-1.7-474.9 295.9z"/>
		<path id="Layer" class="s6" d="m370.7 0.9l21.4 51 108.4 55.9 128.2-14.8-258-92.1z"/>
		<path id="Layer" class="s7" d="m295.1 293.5l57.5-75.6 144.6-92 129.8-13.2-331.9 180.8z"/>
		<path id="Layer" class="s8" d="m290.2 314.9l19.7 75.6 124.9 92.1 154.4-8.3-299-159.4z"/>
		<path id="Layer" class="s9" d="m180.1 735.7l73.9-106.8 175.8-118.4 156.1-8.2-405.8 233.4z"/>
		<path id="Layer" class="s10" d="m171.9 768.6l19.7 120 144.6 162.7 192.2 8.2-356.5-290.9z"/>
		<path id="Layer" class="s11" d="m1 1427.7l100.2-166 226.8-167.7 195.5 9.9-522.5 323.8z"/>
	</g>
</svg>