<?xml version="1.0" ?>
<!-- Generator: Adobe Illustrator 24.0.0, SVG Export Plug-In . SVG Version: 6.00 Build 0)  -->
<svg xmlns="http://www.w3.org/2000/svg"  viewBox="0 0 28.4 28.1">
	<style type="text/css">
	.st0{fill-rule:evenodd;clip-rule:evenodd;fill:#050505;}
</style>
	<path class="st0" d="M 26.0,10.0 C 24.5,9.2 22.7,9.2 21.3,10.0 L 14.2,14.1 L 21.3,18.2 C 22.8,19.0 24.6,19.0 26.0,18.2 C 27.5,17.4 28.4,15.8 28.4,14.1 C 28.4,12.4 27.5,10.8 26.0,10.0"/>
	<path class="st0" d="M 2.4,10.0 C 0.9,10.8 0.0,12.4 0.0,14.1 C 0.0,15.8 0.9,17.3 2.4,18.2 C 3.9,19.0 5.7,19.0 7.1,18.2 L 14.2,14.1 L 7.1,10.0 C 5.6,9.2 3.8,9.2 2.4,10.0"/>
	<path class="st0" d="M 10.1,25.8 C 10.9,27.3 12.5,28.1 14.2,28.1 C 15.9,28.1 17.5,27.2 18.3,25.8 C 19.1,24.3 19.1,22.6 18.3,21.1 L 14.2,14.1 L 10.1,21.1 C 9.3,22.6 9.3,24.3 10.1,25.8"/>
	<path class="st0" d="M 18.3,2.3 C 17.5,0.9 15.9,0.0 14.2,0.0 C 12.5,0.0 10.9,0.9 10.1,2.3 C 9.3,3.8 9.3,5.5 10.1,7.0 L 14.2,14.0 L 18.3,7.0 C 19.1,5.6 19.1,3.8 18.3,2.3"/>
</svg>