<?xml version="1.0" ?>
<svg xmlns="http://www.w3.org/2000/svg" viewBox="0 0 150 31.6">
	<style>
		.cls0 { fill: #5b862f; }
		.cls1 { fill: #91b623; }
		.cls2 { fill: #b7cb00; }
		.cls3 { fill: #3e3d3f; }
	</style>
	<g>
		<g name="icon">
			<path d="M 0.0,0.0 L 1.7,16.5 L 19.8,11.6 L 21.0,0.0 L 0.0,0.0" class="cls0"/>
			<path d="M 3.2,3.0 L 5.3,23.3 L 27.5,17.3 L 28.9,3.0 L 3.2,3.0" class="cls1"/>
			<path d="M 7.5,6.2 L 10.0,31.6 L 35.9,23.9 L 37.5,6.2 L 7.5,6.2" class="cls2"/>
		</g>
		<g>
			<path d="M 44.1,19.6 A 10.059,10.059 0.0 0,0 48.7,20.7 C 50.6,20.7 51.6,19.9 51.6,18.7 C 51.6,17.6 50.7,16.9 48.5,16.1 C 45.5,15.0 43.5,13.3 43.5,10.7 C 43.5,7.6 46.1,5.2 50.4,5.2 A 11.154,11.154 0.0 0,1 55.1,6.1 L 54.2,9.4 A 7.759,7.759 0.0 0,0 50.4,8.5 C 48.6,8.5 47.7,9.3 47.7,10.3 C 47.7,11.5 48.7,12.0 51.1,12.9 C 54.3,14.1 55.8,15.8 55.8,18.4 C 55.8,21.5 53.5,24.1 48.4,24.1 A 13.455,13.455 0.0 0,1 43.2,23.0 L 44.1,19.6" class="cls3"/>
			<path d="M 60.7,10.6 L 62.7,17.1 C 62.9,17.9 63.2,18.9 63.4,19.6 L 63.5,19.6 C 63.7,18.9 63.9,17.9 64.1,17.1 L 65.7,10.6 L 70.0,10.6 L 66.9,19.3 C 65.0,24.6 63.7,26.7 62.2,28.0 A 7.346,7.346 0.0 0,1 58.2,29.8 L 57.3,26.3 A 8.274,8.274 0.0 0,0 59.1,25.6 A 4.612,4.612 0.0 0,0 60.8,23.9 A 1.421,1.421 0.0 0,0 61.0,23.3 A 1.078,1.078 0.0 0,0 60.8,22.6 L 55.9,10.4 L 60.7,10.4 L 60.7,10.6" class="cls3"/>
			<path d="M 70.8,20.3 A 7.639,7.639 0.0 0,0 74.4,21.3 C 75.6,21.3 76.2,20.9 76.2,20.2 C 76.2,19.5 75.8,19.2 74.3,18.7 C 71.5,17.8 70.5,16.3 70.5,14.7 C 70.5,12.2 72.6,10.3 75.9,10.3 A 8.843,8.843 0.0 0,1 79.6,11.1 L 78.9,13.9 A 7.254,7.254 0.0 0,0 76.0,13.2 C 75.0,13.2 74.4,13.6 74.4,14.3 C 74.4,14.9 74.9,15.3 76.5,15.8 C 79.0,16.7 80.1,17.9 80.1,19.9 C 80.1,22.4 78.2,24.2 74.4,24.2 A 10.187,10.187 0.0 0,1 70.1,23.3 L 70.8,20.3" class="cls3"/>
			<path d="M 86.6,7.0 L 86.6,10.6 L 89.6,10.6 L 89.6,13.6 L 86.6,13.6 L 86.6,18.4 C 86.6,20.0 87.0,20.7 88.2,20.7 A 4.121,4.121 0.0 0,0 89.4,20.6 L 89.4,23.7 A 5.11,5.11 0.0 0,1 86.8,24.2 A 4.821,4.821 0.0 0,1 83.7,23.1 C 82.9,22.3 82.6,21.0 82.6,19.2 L 82.6,13.8 L 80.8,13.8 L 80.8,10.8 L 82.6,10.8 L 82.6,8.1 L 86.6,7.0" class="cls3"/>
			<path d="M 102.5,20.7 A 25.837,25.837 0.0 0,0 102.7,23.9 L 99.0,23.9 L 98.8,22.6 L 98.7,22.6 A 4.643,4.643 0.0 0,1 94.9,24.2 A 4.1,4.1 0.0 0,1 90.6,20.1 C 90.6,16.7 93.7,15.0 98.4,15.0 L 98.4,14.8 C 98.4,14.1 98.0,13.1 96.0,13.1 A 8.064,8.064 0.0 0,0 92.3,14.1 L 91.5,11.5 A 10.918,10.918 0.0 0,1 96.7,10.3 C 101.1,10.3 102.5,12.9 102.5,16.0 L 102.5,20.7 M 98.5,17.6 C 96.3,17.6 94.6,18.1 94.6,19.7 A 1.47,1.47 0.0 0,0 96.2,21.3 A 2.194,2.194 0.0 0,0 98.3,19.8 A 1.7,1.7 0.0 0,0 98.4,19.1 L 98.4,17.6 L 98.5,17.6" class="cls3"/>
			<path d="M 105.2,14.9 C 105.2,13.2 105.1,11.9 105.1,10.7 L 108.7,10.7 L 108.9,12.5 L 109.0,12.5 A 4.657,4.657 0.0 0,1 113.1,10.4 C 115.8,10.4 117.8,12.2 117.8,16.1 L 117.8,23.9 L 113.7,23.9 L 113.7,16.5 C 113.7,14.8 113.1,13.6 111.6,13.6 A 2.331,2.331 0.0 0,0 109.5,15.1 A 3.4,3.4 0.0 0,0 109.4,16.1 L 109.4,23.7 L 105.3,23.7 L 105.3,14.9 L 105.2,14.9" class="cls3"/>
			<path d="M 130.5,23.6 A 8.561,8.561 0.0 0,1 126.8,24.2 C 122.5,24.2 119.8,21.6 119.8,17.4 C 119.8,13.5 122.5,10.4 127.4,10.4 A 9.587,9.587 0.0 0,1 130.5,10.9 L 129.8,14.0 A 5.925,5.925 0.0 0,0 127.5,13.6 A 3.439,3.439 0.0 0,0 123.9,17.3 A 3.437,3.437 0.0 0,0 127.5,21.0 A 8.0,8.0 0.0 0,0 129.9,20.6 L 130.5,23.6" class="cls3"/>
			<rect width="4.1" height="2.8" class="cls3" x="132.2" y="10.6"/>
			<rect width="4.1" height="9.5" class="cls3" x="132.2" y="14.6"/>
			<path d="M 149.8,20.7 A 25.835,25.835 0.0 0,0 150.0,23.9 L 146.3,23.9 L 146.1,22.6 L 146.0,22.6 A 4.643,4.643 0.0 0,1 142.2,24.2 A 4.1,4.1 0.0 0,1 137.9,20.1 C 137.9,16.7 141.0,15.0 145.7,15.0 L 145.7,14.8 C 145.7,14.1 145.3,13.1 143.3,13.1 A 8.064,8.064 0.0 0,0 139.6,14.1 L 138.8,11.5 A 10.918,10.918 0.0 0,1 144.0,10.3 C 148.4,10.3 149.8,12.9 149.8,16.0 L 149.8,20.7 M 145.8,17.6 C 143.6,17.6 141.9,18.1 141.9,19.7 A 1.47,1.47 0.0 0,0 143.5,21.3 A 2.194,2.194 0.0 0,0 145.6,19.8 A 1.7,1.7 0.0 0,0 145.7,19.1 L 145.7,17.6 L 145.8,17.6" class="cls3"/>
		</g>
	</g>
</svg>
