<?xml version="1.0" ?>
<svg xmlns="http://www.w3.org/2000/svg" viewBox="0 0 188 188" version="1.2" baseProfile="tiny-ps">
	<g id="Gruppe_1" transform="translate(-112 -214)">
		<rect id="Rechteck_1" width="188" height="188" transform="translate(112 214)" fill="#fff"/>
		<g id="g10" transform="translate(124.927 549.411)">
			<g id="g12" transform="translate(0 -311.226)">
				<path id="path14" d="M99.537-209.919a45.423,45.423,0,0,1-13.831,55.7A45.409,45.409,0,0,1,22.134-163.3a45.408,45.408,0,0,1,9.083-63.571,45.41,45.41,0,0,1,48.156-3.991c-18.015-10.7-41.149-10.344-58.607,2.749C-2.5-210.66-6.877-177.193,11-153.36s51.227,29.007,74.5,11.555c21.18-15.883,26.7-45.034,14.042-68.114" transform="translate(0 271.099)" fill="#f46f1b"/>
				<path id="path16" d="M276.271-285.64c-3.455-.591-24.9-3.717-43.63,6.225s-22.685,26.547-23.215,29.254l66.846-35.479" transform="translate(-115.467 297.632)" fill="#424a52"/>
				<path id="path18" d="M212.417-243.382c2.539,1.078,18.509,7.11,37.239-2.832s28.162-29.456,29.607-32.647l-66.846,35.479" transform="translate(-117.117 293.381)" fill="#424a52"/>
				<path id="path20" d="M185.227-311.125c-1.842,2.6-8.114,12.316-7.894,23.788a25.964,25.964,0,0,0,8.722,19.431l-.827-43.219" transform="translate(-97.77 311.17)" fill="#424a52"/>
				<path id="path22" d="M200.991-268.006a25.966,25.966,0,0,0,7.973-19.75c-.22-11.475-6.86-20.943-8.8-23.469l.826,43.219" transform="translate(-110.362 311.226)" fill="#424a52"/>
				<path id="path24" d="M125.011-142.335H90.594q-4.124,0-6.274-1.748a5.94,5.94,0,0,1-2.151-4.884,6.511,6.511,0,0,1,.314-2.151,5.083,5.083,0,0,1,1.031-1.7,19.207,19.207,0,0,1,1.748-1.7q1.029-.893,2.554-2.061l22.048-17.3a22.739,22.739,0,0,0,4.705-5.2,12.567,12.567,0,0,0,2.106-7.17,12.278,12.278,0,0,0-.941-4.884,11.187,11.187,0,0,0-2.6-3.764,12.136,12.136,0,0,0-3.944-2.465,13.28,13.28,0,0,0-4.884-.9q-6.1,0-9.411,3.674A13.77,13.77,0,0,0,91.58-185a10.235,10.235,0,0,0,.986,4.481,12.161,12.161,0,0,0,2.644,3.63,13.341,13.341,0,0,0,3.764,2.51,15.021,15.021,0,0,0,4.436,1.21l-7.349,5.825a19.37,19.37,0,0,1-9.77-7.171,20.1,20.1,0,0,1-3.316-11.65,18.384,18.384,0,0,1,1.837-8.336,19.5,19.5,0,0,1,4.93-6.274,22.305,22.305,0,0,1,7.08-3.988,25.31,25.31,0,0,1,8.38-1.389,20.171,20.171,0,0,1,7.8,1.524,19.945,19.945,0,0,1,6.408,4.212,19.781,19.781,0,0,1,4.3,6.319,19.345,19.345,0,0,1,1.568,7.753,21.9,21.9,0,0,1-1.031,6.946,21.623,21.623,0,0,1-2.913,5.736,29.33,29.33,0,0,1-4.526,4.975q-2.645,2.33-5.871,4.66L93.462-150.4v.179h31.548v7.887" transform="translate(-45.304 253.29)" fill="#f46f1b"/>
			</g>
		</g>
	</g>
</svg>