<?xml version="1.0" encoding="UTF-8"?>
<!-- Generator: Adobe Illustrator 24.1.0, SVG Export Plug-In . SVG Version: 6.00 Build 0)  -->
<svg version="1.1" id="Layer_1" xmlns="http://www.w3.org/2000/svg"  x="0px" y="0px" viewBox="0 0 300 300" style="enable-background:new 0 0 300 300;" xml:space="preserve">
<style type="text/css">
	.st0{fill:#373737;}
	.st1{fill:#0895D3;}
	.st2{fill:#FFFFFF;}
</style>
<g>
	<rect class="st0" width="300" height="300"/>
</g>
<g>
	<path class="st1" d="M52.0405884,141.1765137c2.2876816-0.1756287,4.4241829-0.6816406,6.4023628-1.5197144   c1.9818611-0.8380737,3.6106796-2.0539551,4.8862228-3.6404877c1.2738686-1.5918121,1.9132423-3.7107544,1.9132423-6.3584137   c0-3.9725876-1.3159409-7.0155792-3.9530678-9.1380768c-2.6337776-2.1189041-5.6644363-3.1783524-9.0871468-3.1783524   c-4.7456245,0-8.327919,1.5637817-10.7402077,4.6875305c-2.4194565,3.1239471-3.5807304,7.0665817-3.4930458,11.8156967H20.09375   c0.1773167-4.749115,1.0365829-9.0853653,2.5739841-12.9980774c1.5408058-3.9093094,3.7001743-7.2649841,6.4779415-10.0657272   c2.7724953-2.8005524,6.100029-4.9616241,9.974144-6.4971313c3.8742218-1.5321579,8.1928787-2.298111,12.9490166-2.298111   c3.6982803,0,7.3985634,0.5515518,11.0968437,1.6514664c3.7019577,1.1016235,7.0243149,2.7531128,9.9778214,4.9546509   c2.9518051,2.201561,5.3517532,4.8844528,7.200058,8.0575333c1.8482895,3.1694946,2.7777634,6.8222275,2.7777634,10.9582138   c0,4.4924774-1.0770645,8.4545288-3.2240067,11.889267c-2.1488419,3.4349518-5.367569,5.7663727-9.6598816,6.9980774v0.2652283   c5.0883179,1.1456757,9.0782928,3.6105652,11.9773865,7.3986664c2.8954163,3.7880859,4.3415375,8.3227539,4.3415375,13.6042023   c0,4.8456421-0.9471664,9.1608429-2.8429108,12.9489136c-1.897522,3.7897797-4.429245,6.9557037-7.6024246,9.5138702   c-3.1713028,2.5511169-6.8310013,4.4908142-10.9756165,5.8085327c-4.1429291,1.3159485-8.4633675,1.9800873-12.9541779,1.9800873   c-5.2023849,0-9.9373589-0.7501526-14.2157402-2.2454071c-4.2745934-1.503891-7.9132175-3.6860352-10.9088745-6.5570068   c-2.9992542-2.8673706-5.3096943-6.368927-6.9402161-10.5101776c-1.6339798-4.1393433-2.4033127-8.8901215-2.3137074-14.2577972   h17.8753376c0.0861168,2.4651031,0.4832191,4.8175964,1.1928978,7.0613251   c0.7064095,2.2437134,1.7236938,4.1815033,3.0482559,5.808548c1.3249207,1.6269989,2.9782829,2.9289093,4.9671135,3.8968658   c1.987133,0.9645691,4.3501701,1.4478302,7.0858803,1.4478302c4.2393723,0,7.8185349-1.2930756,10.7314491-3.8829803   c2.9165001-2.5896912,4.3731651-6.1229095,4.3731651-10.6014709c0-3.515686-0.7029266-6.1950073-2.1049881-8.0381317   c-1.4055328-1.8465118-3.1606331-3.1819458-5.2743759-4.0200195c-2.1136322-0.8328094-4.4257736-1.3158264-6.9330482-1.4459076   c-2.5089531-0.1334686-4.9072151-0.2019958-7.1910782-0.2019958v-13.2915192   C47.5954323,141.3521423,49.7512321,141.3521423,52.0405884,141.1765137L52.0405884,141.1765137z"/>
	<path class="st2" d="M140.9643097,113.9697876c10.4539032,0,20.8076477,4.2291641,28.4049225,11.6048279l2.0276031,1.9660492   v-15.8654175l-0.5079041-0.35672c-8.6881256-6.0931702-18.2689514-9.0535202-29.2904205-9.0535202   c-28.2062912,0-51.1541214,21.5912933-51.1541214,48.1303177c0,26.1453705,22.9478302,47.4152527,51.1541214,47.4152527   c10.2940826,0,20.6882935-3.2117767,29.2765045-9.0413971l0.5218201-0.3566284v-15.8161774l-2.0134735,1.8905487   c-7.8589172,7.3845367-18.1266479,11.6187744-28.1643524,11.6187744c-20.4387665,0-37.7062454-16.517334-37.7062454-36.0687866   C103.512764,130.4871063,120.6624832,113.9697876,140.9643097,113.9697876L140.9643097,113.9697876z"/>
	<polygon class="st1" points="171.5600128,131.9330292 171.5600128,168.8082733 187.6925659,149.6029968 171.5600128,131.9330292     "/>
	<polygon class="st2" points="269.245697,197.1798706 231.288208,150.8205719 269.2387085,104.5842056 249.1074677,104.5842056    221.2718201,138.5815277 193.437851,104.5842056 173.3082733,104.5842056 211.2587738,150.8205719 173.2996368,197.1798706    193.2322845,197.1798706 221.2718201,163.0244141 249.3146973,197.1798706 269.245697,197.1798706  "/>
	<path class="st2" d="M271.7801514,191.9528046c0-2.8848572,2.3008423-5.1856079,5.2120667-5.1856079   c2.9120789,0,5.2120972,2.3007507,5.2120972,5.1856079c0,2.8849792-2.3000183,5.18573-5.2120972,5.18573   C274.0809937,197.1385345,271.7801514,194.8377838,271.7801514,191.9528046L271.7801514,191.9528046z M281.4065247,191.9528046   c0-2.4465485-2.0345764-4.3880157-4.4143066-4.3880157c-2.3798828,0-4.4144897,1.9414673-4.4144897,4.3880157   c0,2.4466705,2.0346069,4.388031,4.4144897,4.388031C279.3719482,196.3408356,281.4065247,194.3994751,281.4065247,191.9528046   L281.4065247,191.9528046z M279.4651184,194.7587128h-0.956543l-1.7025146-2.6196289h-0.9567871v2.6196289h-0.7984314v-5.6775818   h2.4737244c1.023407,0,2.0204773,0.2783966,2.0204773,1.5022125c0,1.1164703-0.7845154,1.5293732-1.7946472,1.5557404   L279.4651184,194.7587128L279.4651184,194.7587128z M276.8060608,191.3413849c0.7044067,0,1.9413757,0.1327362,1.9413757-0.771225   c0-0.5850677-0.7712402-0.691452-1.3826599-0.691452h-1.5155029v1.462677H276.8060608L276.8060608,191.3413849z"/>
</g>
</svg>