<?xml version="1.0" ?>
<svg xmlns="http://www.w3.org/2000/svg" viewBox="0 0 1243.892 348.872">
	<defs>
		<style>      .st0 {        fill: url(#linear-gradient);      }      .st1 {        fill: #000;      }    </style>
		<linearGradient id="linear-gradient" x1="605.301" y1="52.451" x2="581.528" y2="208.292" gradientUnits="userSpaceOnUse">
			<stop offset="0" stop-color="#00a4e4"/>
			<stop offset="1" stop-color="#0079c1"/>
		</linearGradient>
	</defs>
	<g>
		<path class="st0" d="M525.342,179.63c24.057-16.33,53.099-25.915,84.373-25.915,13.816,0,27.191,1.899,39.873,5.397V29.766l-124.246,149.863Z"/>
		<g>
			<polygon class="st1" points="1200.027 43.709 1195.619 43.709 1195.619 41.916 1206.454 41.916 1206.454 43.709 1202.059 43.709 1202.059 56.089 1200.027 56.089 1200.027 43.709"/>
			<polygon class="st1" points="1209.693 41.916 1213.032 41.916 1217.481 53.686 1221.84 41.916 1225.182 41.916 1225.182 56.089 1223.156 56.089 1223.156 43.824 1223.121 43.824 1218.431 56.089 1216.438 56.089 1211.759 43.824 1211.706 43.824 1211.706 56.089 1209.693 56.089 1209.693 41.916"/>
			<polygon class="st1" points="239.098 153.563 172.34 153.563 172.34 43.624 237.581 43.624 237.581 58.484 189.69 58.484 189.69 90.129 229.302 90.129 229.302 104.989 189.69 104.989 189.69 138.728 239.098 138.728 239.098 153.563"/>
			<path class="st1" d="M332.294,155.672c-7.502,0-14.713-1.286-20.903-3.684-4.211-1.639-7.027-3.197-14.428-8.044l-1.602-1.03,9.036-13.603,1.568,1.007c6.004,3.961,8.533,5.329,12.251,6.741,4.701,1.731,9.783,2.618,15.074,2.618,11.979,0,18.819-5.189,18.819-14.228,0-2.809-.448-5.068-1.369-6.573-1.761-3.081-4.72-5.832-8.597-8.009-.475-.255-1.322-.677-2.516-1.332-3.112-1.537-8.278-4.21-15.673-8.173-17.091-8.852-24.373-17.66-24.373-29.459,0-17.955,15.277-30.036,38.006-30.036,6.872,0,13.419.912,18.963,2.656,4.543,1.448,7.192,2.71,13.646,6.434l1.62.95-8.165,14.196-1.64-.917c-5.584-3.214-7.778-4.266-11.064-5.351-3.903-1.196-10.305-2.146-14.517-2.146-11.368,0-18.981,5.253-18.981,13.089,0,6.485,3.215,9.959,25.985,21.655,7.965,4.108,13.711,7.711,17.614,11.023,5.68,4.633,9.072,12.423,9.072,20.697,0,19.175-14.831,31.521-37.827,31.521"/>
			<path class="st1" d="M484.921,155.672c-34.256,0-58.202-23.669-58.202-57.538,0-32.18,24.462-56.442,56.869-56.442,7.128,0,14.256,1.228,21.188,3.648,4.969,1.833,7.38,3.017,13.039,6.813l1.566,1.058-8.923,13.087-1.545-1.051c-8.006-5.426-15.702-7.734-25.824-7.734-22.29,0-37.874,16.368-37.874,39.834,0,25.686,15.89,42.33,40.549,42.33,8.947,0,15.833-1.344,24.483-4.853l1.805-.747,5.099,13.818-1.663.712c-6.553,2.849-9.332,3.88-15.053,5.241-5.41,1.262-10.064,1.824-15.515,1.824"/>
			<g>
				<path class="st1" d="M63.851,43.622H25.514v109.941h38.189c19.744,0,31.439-4.498,41.805-16.029,9.72-10.736,15.25-25.121,15.25-39.396,0-31.578-23.943-54.516-56.908-54.516ZM89.89,129.606c-6.672,6.649-14.333,9.122-28.168,9.122h-18.864V58.49h18.864c23.392,0,41.012,16.97,41.012,39.451,0,11-5.153,23.743-12.844,31.664Z"/>
				<path class="st1" d="M760.615,105.44c6.764-1.699,10.58-3.798,14.75-7.867,6.526-5.968,10.233-14.507,10.233-23.431,0-8.419-3.44-16.714-9.221-22.141-6.637-6.235-13.492-8.374-27.148-8.374h-35.185v109.942h17.379v-45.542h11.704l30.124,45.542h20.17l-32.806-48.129ZM731.423,93.166v-34.679h15.838c9.886,0,12.039.564,14.75,2.652,3.573,2.71,5.236,7.001,5.236,13.169,0,12.685-6.539,18.858-19.986,18.858h-15.838Z"/>
			</g>
			<polygon class="st1" points="891.311 153.563 874.003 153.563 874.003 58.484 837.543 58.484 837.543 43.624 927.813 43.624 927.813 58.484 891.311 58.484 891.311 153.563"/>
			<polygon class="st1" points="1056.721 153.563 989.985 153.563 989.985 43.624 1055.222 43.624 1055.222 58.484 1007.354 58.484 1007.354 90.129 1046.934 90.129 1046.934 104.989 1007.354 104.989 1007.354 138.728 1056.721 138.728 1056.721 153.563"/>
			<path class="st1" d="M1151.254,155.672c-7.441,0-14.685-1.286-20.882-3.684-4.193-1.639-7.019-3.197-14.402-8.044l-1.616-1.03,9.034-13.603,1.575,1.007c6.006,3.961,8.525,5.329,12.249,6.741,4.695,1.731,9.758,2.618,15.067,2.618,11.972,0,18.839-5.189,18.839-14.228,0-2.809-.486-5.068-1.414-6.573-1.735-3.081-4.691-5.832-8.542-8.009-.497-.255-1.336-.677-2.542-1.332-3.108-1.537-8.269-4.21-15.669-8.173-17.078-8.852-24.392-17.66-24.392-29.459,0-17.955,15.276-30.036,38.023-30.036,6.868,0,13.412.912,18.971,2.656,4.517,1.448,7.215,2.71,13.608,6.434l1.64.95-8.189,14.196-1.604-.917c-5.594-3.214-7.783-4.266-11.095-5.351-3.887-1.196-10.274-2.146-14.495-2.146-11.362,0-18.978,5.253-18.978,13.089,0,6.485,3.207,9.959,25.972,21.655,7.94,4.108,13.731,7.711,17.611,11.023,5.699,4.633,9.103,12.423,9.103,20.697,0,19.175-14.859,31.521-37.874,31.521"/>
		</g>
	</g>
	<g>
		<path class="st1" d="M37.639,248.674h8.744c11.242,0,27.013-3.903,27.013-17.801,0-12.491-9.993-17.176-21.392-17.176-9.837,0-17.644,2.655-24.202,5.934l-.937-13.896c7.183-2.654,18.113-4.841,27.325-4.841,19.206,0,35.757,9.057,35.757,29.668,0,13.74-10.93,22.484-23.421,24.826v.312c14.521,2.967,24.358,11.555,24.358,27.013,0,24.983-21.392,30.917-42.939,30.917-8.744,0-18.113-2.187-24.983-4.216l.937-14.521c5.621,2.811,14.521,5.934,23.89,5.934,11.867,0,26.544-4.685,26.544-18.581,0-16.239-13.116-20.768-27.169-20.768h-9.525v-12.804Z"/>
		<path class="st1" d="M198.467,222.13c-7.651-4.997-15.927-7.495-29.979-7.495-25.139,0-41.847,18.269-41.847,42.627,0,25.607,18.425,42.627,41.066,42.627,10.774,0,13.584-1.093,17.488-1.873v-33.103h-22.953v-12.804h38.567v56.68c-5.933,2.03-16.239,4.841-33.258,4.841-34.508,0-57.461-22.173-57.461-56.837,0-33.57,24.358-55.899,57.617-55.899,15.926,0,22.953,2.343,32.009,5.466l-1.249,15.771Z"/>
		<path class="st1" d="M293.556,216.508h-33.883v-13.74h83.38v13.74h-33.883v95.248h-15.614v-95.248Z"/>
		<path class="st1" d="M358.824,202.768h25.764l34.195,90.563,33.571-90.563h25.764v108.988h-15.614v-94.311h-.312l-36.069,94.311h-15.302l-36.069-94.311h-.312v94.311h-15.614v-108.988Z"/>
		<path class="st1" d="M555.562,219.164c-7.963-3.123-12.335-4.528-20.455-4.528-8.744,0-19.049,3.123-19.049,14.521,0,20.923,46.843,16.082,46.843,51.995,0,23.266-17.957,32.479-39.816,32.479-7.651,0-15.146-2.187-22.329-4.528l1.562-14.521c5.309,2.186,14.677,5.309,22.641,5.309,8.9,0,21.392-4.996,21.392-17.8,0-24.358-46.843-17.645-46.843-51.527,0-19.362,15.302-29.668,34.976-29.668,7.183,0,15.771,1.25,23.265,3.904l-2.186,14.365Z"/>
	</g>
</svg>