<?xml version="1.0" ?>
<svg xmlns="http://www.w3.org/2000/svg" data-name="Layer 1" viewBox="0 0 157 157">
	<defs>
		<style>
      .cls-1 {
        fill: #1c479a;
      }
      .cls-1, .cls-2 {
        stroke-width: 0px;
      }
      .cls-2 {
        fill: #d66227;
      }
    </style>
	</defs>
	<path class="cls-2" d="M141.8,51.3c4.9,1,9.2.1,13.4-2.8.1,2.3.3,4.1.3,6,0,8.9.5,17.8,0,26.6-1.8,26.9-14.5,47.3-38.6,59.7-33.8,17.4-75.3,4.3-93.5-29.1-.4-.7-.7-1.5-1.2-2.6,2.9,0,5.5.1,8.1,0,1.7-.1,3.3-.4,4.9-.9,1.4-.5,2-.1,2.8,1.1,10.1,14.8,24.2,23.4,42,25,18.3,1.7,34-4.3,46.6-17.7,10.2-10.8,15.1-23.9,15.3-38.7.1-8,0-16.1-.1-24.1,0-.9.1-1.6.1-2.6h0Z"/>
	<path class="cls-2" d="M120.9,85.2h-34.6c-4.6,0-7.7-2.6-7.7-6.7,0-3.9,2.8-6.8,6.8-6.9h42.4c5.3,0,7.9,2.8,7.7,8-.9,25.1-19.3,45-44.3,48.1-18.9,2.3-38.9-7.2-47.9-22.6l9.9-9.4c11.3,16.6,26.5,23.2,46.3,16,11.5-4.3,21.3-16.9,21.5-26.6h0Z"/>
	<path class="cls-1" d="M0,78.1c-.4-13.7,11.3-26.6,26.4-26.5,15,0,26.5,11.6,26.7,26.7.2,11.9-9.3,26.4-26.7,26.2-17.5-.1-27-14.6-26.4-26.5H0ZM30.4,72.8c1.2-1.4,2.3-2.6,3.1-3.9.6-.9,1.2-2.4.9-3.2-.4-.9-2-1.4-3-1.5-3.6-.2-7.2-.1-10.9-.1s-3.6.9-3.4,2.5c.2,2,1.6,2.4,3.3,2.4h6.8c-.9,1.2-1.5,1.9-2.1,2.6-2.5,3.1-2,4.5,1.8,5.3,1,.2,2,.7,2.8,1.4.7.7,1.2,1.7,1.4,2.7.5,2.2-.4,4-2.1,5.3-2.2,1.6-5.2,1.1-7.2-1.2-1-1.2-2.2-1.8-3.6-.7-1.5,1.2-1.2,2.5-.1,3.8,1.2,1.6,2.9,2.8,4.9,3.4,1.9.6,4,.6,5.9.1,2-.6,3.8-1.8,5.2-3.4,1.3-1.6,2.1-3.7,2.1-5.8.2-4.3-1.8-7.4-5.6-9.8h-.1Z"/>
	<path class="cls-2" d="M131.5,42.1h-44.8c-14.3,0-25.3,6-32.8,18.2-.1.2-.3.5-.5.7-3.2-3.2-6.5-6.4-9.9-9.8.2-.3.5-.9.9-1.4,10.2-13.8,23.7-21,40.9-21.2,14.9-.2,29.7,0,44.6,0h2.8c-2.4,4.3-2.9,8.7-1.2,13.6h0Z"/>
	<path class="cls-2" d="M22.6,46.4c3.6-7,8.3-13.4,14.1-18.8,11.8-11.1,25.9-17.2,41.9-19,2.3-.2,4.6-.2,6.9-.1,1.7,0,3.2.6,4.4,1.8,1.2,1.1,1.9,2.6,2,4.3.3,3.5-2,6.7-5.5,7.2-3.6.5-7.2.5-10.7,1-15.8,2.8-28.2,10.8-37.3,23.9-.9,1.4-1.7,1.6-3.3,1.3-4-.8-8.2-1.1-12.4-1.6Z"/>
	<path class="cls-1" d="M145.7,46.8c-1.3,0-2.7-.2-4-.8-1.2-.5-2.4-1.2-3.4-2.2-1-.9-1.7-2.1-2.2-3.3-.5-1.2-.8-2.6-.7-4,0-2.7,1.1-5.4,3-7.3,2-1.9,4.5-3,7.3-3s2.8.2,4,.7c1.3.6,2.5,1.3,3.4,2.3,1,1,1.7,2.1,2.3,3.4.5,1.2.7,2.6.7,4,0,5.8-4.5,10.2-10.4,10.2Z"/>
</svg>