<?xml version="1.0" ?>
<svg xmlns="http://www.w3.org/2000/svg" viewBox="0 0 26 26" fill="none">
	<path d="M0 6.21947C0 3.23382 2.46768 0.811035 5.50866 0.811035C8.54964 0.811035 11.0173 3.23382 11.0173 6.21947C11.0173 9.20513 8.54964 11.6279 5.50866 11.6279C2.46768 11.6279 0 9.20513 0 6.21947Z" fill="#F47920"/>
	<path d="M14.9805 6.21947C14.9805 3.23382 17.4481 0.811035 20.4891 0.811035C23.5301 0.811035 25.9978 3.23382 25.9978 6.21947C25.9978 9.20513 23.5301 11.6279 20.4891 11.6279C17.4481 11.6279 14.9805 9.20513 14.9805 6.21947Z" fill="#F47920"/>
	<path d="M0 20.4869C0 17.5013 2.46768 15.0785 5.50866 15.0785C8.54964 15.0785 11.0173 17.5013 11.0173 20.4869C11.0173 23.4726 8.54964 25.8954 5.50866 25.8954C2.46768 25.8954 0 23.4726 0 20.4869Z" fill="#D24600"/>
	<path d="M14.9805 20.4869C14.9805 17.5013 17.4481 15.0785 20.4891 15.0785C23.5301 15.0785 25.9978 17.5013 25.9978 20.4869C25.9978 23.4726 23.5301 25.8954 20.4891 25.8954C17.4481 25.8954 14.9805 23.4726 14.9805 20.4869Z" fill="#F47920"/>
</svg>