<svg xmlns="http://www.w3.org/2000/svg" fill="none" viewBox="0 0 4048 1167"><path fill="#1E4761" d="M0 0h4048v1166.22H0z"/><g clip-path="url(#a)"><path fill="#5CDB94" d="m759.245 335-218.4 490h-35.7l-218.4-490h39.2l198.1 443.8 198.1-443.8h37.1Z"/><path fill="#fff" d="M1321.01 650.7h-314.3c.93 28.467 8.17 53.9 21.7 76.3 13.53 21.933 31.73 38.967 54.6 51.1 23.33 12.133 49.47 18.2 78.4 18.2 23.8 0 45.73-4.2 65.8-12.6 20.53-8.867 37.57-21.7 51.1-38.5l20.3 23.1c-15.87 19.133-35.93 33.833-60.2 44.1-23.8 10.267-49.7 15.4-77.7 15.4-36.4 0-68.83-7.933-97.3-23.8s-50.87-37.8-67.199-65.8c-15.866-28-23.8-59.967-23.8-95.9 0-35.467 7.467-67.2 22.4-95.2 15.399-28.467 36.399-50.633 62.999-66.5 26.6-15.867 56.47-23.8 89.6-23.8 33.13 0 62.77 7.933 88.9 23.8 26.6 15.4 47.37 37.1 62.3 65.1 15.4 28 23.1 59.733 23.1 95.2l-.7 9.8Zm-173.6-163.1c-25.67 0-48.77 5.833-69.3 17.5-20.53 11.2-37.1 27.3-49.7 48.3-12.13 20.533-19.13 43.867-21 70h280c-1.4-26.133-8.4-49.467-21-70s-29.17-36.633-49.7-48.3c-20.53-11.667-43.63-17.5-69.3-17.5Zm766.28 163.1h-314.3c.93 28.467 8.16 53.9 21.7 76.3 13.53 21.933 31.73 38.967 54.6 51.1 23.33 12.133 49.46 18.2 78.4 18.2 23.8 0 45.73-4.2 65.8-12.6 20.53-8.867 37.56-21.7 51.1-38.5l20.3 23.1c-15.87 19.133-35.94 33.833-60.2 44.1-23.8 10.267-49.7 15.4-77.7 15.4-36.4 0-68.84-7.933-97.3-23.8-28.47-15.867-50.87-37.8-67.2-65.8-15.87-28-23.8-59.967-23.8-95.9 0-35.467 7.46-67.2 22.4-95.2 15.4-28.467 36.4-50.633 63-66.5 26.6-15.867 56.46-23.8 89.6-23.8 33.13 0 62.76 7.933 88.9 23.8 26.6 15.4 47.36 37.1 62.3 65.1 15.4 28 23.1 59.733 23.1 95.2l-.7 9.8Zm-173.6-163.1c-25.67 0-48.77 5.833-69.3 17.5-20.54 11.2-37.1 27.3-49.7 48.3-12.14 20.533-19.14 43.867-21 70h280c-1.4-26.133-8.4-49.467-21-70s-29.17-36.633-49.7-48.3c-20.54-11.667-43.64-17.5-69.3-17.5Zm491.17 51.8c11.2-26.6 28.7-46.9 52.5-60.9 23.8-14.467 52.74-21.7 86.8-21.7v34.3l-8.4-.7c-40.6 0-72.33 12.833-95.2 38.5-22.86 25.2-34.3 60.433-34.3 105.7V825h-35V459.6h33.6v79.8Zm608.45 262.5c-8.87 8.4-20.07 14.933-33.6 19.6-13.07 4.2-26.84 6.3-41.3 6.3-31.74 0-56.24-8.633-73.5-25.9-17.27-17.733-25.9-42.233-25.9-73.5V489.7h-67.2v-30.1h67.2v-79.8h35v79.8h116.2v30.1h-116.2v235.2c0 23.8 5.6 42 16.8 54.6 11.66 12.133 28.7 18.2 51.1 18.2 22.86 0 41.76-6.767 56.7-20.3l14.7 24.5Zm272.6-496.3h35V825h-35V305.6Zm650.82 154-187.6 415.1c-14 32.2-30.33 55.067-49 68.6-18.2 13.533-39.9 20.3-65.1 20.3-16.8 0-32.67-2.8-47.6-8.4-14.47-5.6-26.83-13.767-37.1-24.5l17.5-26.6c18.67 19.133 41.3 28.7 67.9 28.7 17.73 0 32.9-4.9 45.5-14.7 12.6-9.8 24.27-26.6 35-50.4l19.6-44.1-164.5-364h37.1l146.3 326.9 146.3-326.9h35.7Z"/></g><defs><clipPath id="a"><path fill="#fff" d="M0 0h4048v1166H0z"/></clipPath></defs></svg>