<svg viewBox="0 0 329 313" fill="none" xmlns="http://www.w3.org/2000/svg"><path d="M211.707 98.6101H68.2544L50.304 67.5088H174.768C180.544 67.508 186.218 69.0284 191.221 71.9171C196.223 74.8059 200.379 78.9614 203.27 83.9664L211.707 98.6101Z"></path><path d="M184.81 145.243H95.133L77.2014 114.142H147.871C153.644 114.14 159.315 115.661 164.315 118.55C169.315 121.439 173.467 125.595 176.354 130.599L184.81 145.243Z"></path><path d="M157.894 191.876H122.03L104.099 160.794H120.973C126.749 160.793 132.423 162.313 137.426 165.202C142.429 168.091 146.584 172.246 149.475 177.251L157.894 191.876Z"></path><path d="M278.696 67.5088L164.5 265.491L141.019 224.81L231.753 67.5088H278.696Z"></path></svg>