<?xml version="1.0" ?>
<svg xmlns="http://www.w3.org/2000/svg" data-name="Layer 1" viewBox="0 0 421.473 96.051">
	<defs>
		<style>
      .cls-1 {
        fill: #fed363;
      }
      .cls-1, .cls-2, .cls-3, .cls-4 {
        stroke-width: 0px;
      }
      .cls-2 {
        fill: #000;
      }
      .cls-3 {
        fill: #0c0f13;
      }
      .cls-4 {
        fill: #fcfcfc;
      }
    </style>
	</defs>
	<path class="cls-2" d="M406.529,43.042c-1.976-.005-3.933.384-5.758,1.145-1.824.76-3.479,1.877-4.867,3.284-.024.031-.052.06-.084.084l-.091.091c-.024.032-.052.059-.084.083l-.09.091c-.024.031-.053.06-.084.084l-.091.091c-.026.03-.054.057-.084.083l-.091.091-.083.091-.091.084c-.026.03-.054.057-.084.083l-.091.091c-.026.03-.054.058-.083.084l-.091.091-.084.091-.091.083-.083.091-.092.084-.083.091-.091.083-.083.091-.092.084-.083.091-.091.083-.084.091-.091.084-.083.091-.091.083-.084.091-.091.084-.083.091-.091.083-.084.091-.091.084-.083.091-.091.083-.084.091-.091.084-.084.091-.091.083-.083.091-.091.084-.084.091-.091.083-.083.091-.091.084-.084.091-.091.084-.083.09-.091.084-.084.091-.091.084-.084.09-.091.084-.083.091-.091.084-.084.09-.091.084-.083.091-.091.084-.084.091-.091.083-.083.091-.091.084-.084.091-.091.083-.083.091-.092.084-.083.091-.091.083-.084.091-.091.084-.083.091-.091.083-.091.091-.084.084-.091.091c-.026.03-.054.057-.083.083l-.091.091c-.026.03-.054.058-.084.084l-.091.091c-.026.03-.054.057-.083.083l-.092.091-.083.084-.091.091c-.024.031-.052.059-.084.083l-.091.091c-.024.032-.052.06-.083.084l-.091.091c-.024.031-.052.059-.084.083l-.091.091c-.024.031-.052.06-.083.084l-.091.091c-.024.031-.052.059-.084.083l-.091.091c-.024.031-.052.06-.083.084l-.091.091c-.024.032-.052.06-.084.084l-.091.09c-.026.03-.054.058-.084.084l-.091.091c-.024.032-.052.06-.083.084l-.091.09c-.024.031-.052.06-.084.084l-.091.091c-.024.032-.052.06-.083.084l-.091.09c-.024.032-.052.06-.084.084l-.091.091-.083.084-.091.091-.084.09-.091.084-.084.091-.091.084-.083.09-.091.084-.084.091-.091.084-.083.09-.091.084-.084.091-.091.084-.083.091-.091.083-.084.091-.091.084-.083.091-.092.083-.083.091-.091.084-.084.091-.091.083-.083.091-.091.084-.084.091-.091.083-.083.091-.091.084-.084.091-.091.083-.083.091-.091.084-.084.091-.091.083-.084.091-.091.084-.083.091-.091.083-.084.091c-1.406,1.389-2.522,3.045-3.282,4.872-.76,1.826-1.148,3.785-1.142,5.763v9.632c.004,3.964,1.579,7.763,4.379,10.566,2.8,2.803,6.597,4.379,10.557,4.383,1.976.005,3.934-.384,5.758-1.145,1.824-.76,3.479-1.877,4.868-3.284l.091-.084.083-.091.091-.083.084-.091.091-.084.083-.091.091-.083.084-.091.091-.091.084-.084.091-.09.083-.084.091-.091.084-.084.091-.091.083-.083.091-.091.084-.084.091-.091.083-.083.091-.091.084-.084.091-.091.084-.083.091-.091.083-.084.091-.091.084-.083.091-.091.083-.084.091-.091.084-.083.091-.091.083-.084.091-.091.084-.083.091-.091c.03-.026.057-.054.083-.084l.092-.091c.029-.026.057-.053.083-.083l.091-.091.083-.084.092-.091.083-.083.091-.091.084-.084.091-.091.083-.083.091-.091.084-.084.091-.091.083-.084.091-.09.084-.084.091-.091.083-.084.091-.09.084-.084.091-.091.084-.084.091-.09.083-.084.091-.091.084-.084.091-.091.083-.083.091-.091c.03-.026.058-.054.084-.084l.091-.091.083-.083.091-.091.084-.084.091-.091.084-.083.091-.091c.029-.026.057-.054.083-.084l.091-.091c.03-.026.058-.053.084-.083l.091-.091.083-.084.091-.091.084-.083.091-.091.083-.084.091-.091.084-.083.091-.091.083-.084.092-.091.083-.083.091-.091.084-.084.091-.091.083-.083.091-.091.084-.084.091-.091.083-.083.091-.091.084-.084.091-.091.083-.084.091-.09.084-.091.091-.084.084-.084.091-.09.091-.084.083-.091.091-.084.084-.09.091-.084.083-.091.091-.091.084-.084.091-.09.083-.084.091-.091.084-.084.091-.09.084-.084.091-.091.083-.084.091-.09.084-.084.091-.091.083-.084.091-.091.084-.083.091-.091.083-.084.091-.091.084-.083.091-.091.083-.084.092-.091.083-.083.091-.091.084-.084.091-.091c.029-.026.057-.053.083-.083l.091-.091c.03-.026.058-.054.084-.084l.091-.091c.029-.026.057-.053.083-.083l.091-.091c.03-.026.058-.054.084-.084l.091-.091.083-.083.092-.091c1.405-1.39,2.52-3.046,3.28-4.872.759-1.826,1.148-3.785,1.144-5.762v-9.632c-.004-3.965-1.58-7.766-4.382-10.569-2.802-2.803-6.6-4.378-10.562-4.38Z"/>
	<path class="cls-3" d="M393.664,41.819c0-8.143-1.639-15.435-4.88-21.671-3.21-6.275-8.204-11.458-14.352-14.896-5.837-3.289-12.698-5.029-20.378-5.15h-.175c-7.681.122-14.542,1.861-20.378,5.15-3.054,1.712-5.841,3.862-8.273,6.381l-.084.083-.083.084c-.03.026-.058.054-.084.084-.029.026-.057.053-.083.083l-.084.084-.083.084c-.026.03-.054.057-.084.083-.025.03-.053.058-.083.084l-.084.083-.083.084-.076.084-.083.076-.084.084-.083.083c-.03.026-.058.054-.084.084l-.084.084-.083.083-.083.084c-.026.03-.054.058-.084.084l-.083.083-.084.084-.083.084-.076.076-.084.084-.083.083-.084.084-.083.084-.084.083-.083.084-.084.083c-.025.03-.053.058-.083.084l-.084.084-.083.083-.084.084-.075.076-.084.084-.083.084c-.03.026-.058.053-.084.083-.03.026-.057.054-.083.084l-.084.084-.083.083-.084.084c-.026.03-.054.058-.083.084l-.084.083-.083.084-.084.083-.076.076-.083.083-.084.084-.083.084c-.03.026-.058.053-.084.083l-.083.084-.084.084-.083.083-.084.084-.083.084-.084.083-.075.084-.084.076-.083.084-.084.084c-.03.026-.057.053-.083.083l-.084.084-.084.083-.083.084-.083.084c-.026.03-.054.057-.084.083l-.083.084-.084.084-.076.083-.083.076-.084.083-.083.084c-.03.026-.058.054-.084.084l-.083.083-.084.084-.083.084c-.026.03-.054.057-.084.083-.025.03-.053.058-.083.084l-.084.083-.083.084-.076.084-.083.076-.084.084-.083.083c-.03.026-.058.054-.084.084-.03.026-.058.054-.084.084l-.083.083-.083.084c-.026.03-.054.058-.084.084l-.083.083-.084.084-.083.084-.084.083-.076.076-.083.083-.084.084-.083.084-.084.083-.083.084-.084.083c-.025.03-.053.058-.083.084l-.084.084-.083.083-.084.084-.083.084-.076.076V6.437c0-1.41-.56-2.763-1.556-3.76-.996-.997-2.348-1.557-3.757-1.557h-17.122c-.708,0-1.407.143-2.059.418-.652.275-1.242.677-1.736,1.184l-.083.084-.076.083c-.032.024-.06.052-.084.084-.031.024-.06.052-.083.084-.032.024-.06.052-.084.083-.031.024-.059.052-.083.084l-.084.076c-.026.03-.054.058-.083.084-.026.03-.054.058-.084.084-.026.03-.054.057-.083.083l-.084.084c-.026.03-.054.058-.083.084l-.076.083c-.03.026-.058.054-.084.084-.029.026-.057.054-.083.084-.032.024-.06.052-.084.083-.031.024-.059.052-.083.084l-.084.076c-.026.03-.053.058-.083.084-.026.03-.054.058-.084.084-.025.03-.053.057-.083.083-.026.03-.054.058-.084.084-.025.03-.053.057-.083.083-.026.03-.054.058-.083.084-.026.03-.054.058-.084.084l-.076.083c-.031.024-.06.052-.083.084-.032.024-.06.052-.084.084-.031.024-.059.052-.083.083-.032.024-.06.052-.084.084l-.083.076c-.026.03-.054.058-.084.084-.026.03-.054.058-.083.084l-.084.083c-.026.03-.054.058-.083.084-.026.03-.054.058-.084.084-.026.03-.053.057-.083.083l-.076.084c-.032.024-.06.052-.084.083-.031.024-.059.052-.083.084-.032.024-.06.052-.084.084-.029.026-.057.053-.083.083l-.084.076c-.026.03-.053.057-.083.083-.026.03-.054.058-.084.084l-.083.084-.084.083c-.025.03-.053.058-.083.084-.026.03-.054.058-.083.084l-.076.083c-.032.024-.06.052-.084.084-.031.024-.06.052-.083.084-.032.024-.06.052-.084.083-.029.026-.057.054-.083.084l-.084.076c-.026.03-.054.058-.083.084-.026.03-.054.057-.084.083-.026.03-.054.058-.083.084l-.084.084-.083.083-.076.084c-.032.024-.06.052-.084.084-.031.024-.059.052-.083.083-.032.024-.06.052-.084.084-.031.024-.059.052-.083.084l-.084.076c-.026.03-.053.058-.083.084-.026.03-.054.057-.084.083-.025.03-.053.058-.083.084-.026.03-.054.058-.084.084-.025.03-.053.057-.083.083l-.083.084-.076.083c-.032.024-.06.052-.084.084-.031.024-.06.052-.083.084-.032.024-.06.052-.084.083-.031.024-.059.052-.083.084l-.084.076c-.026.03-.054.058-.083.084-.026.03-.054.058-.084.084-.026.03-.054.057-.083.083l-.084.084c-.026.03-.054.058-.083.084-.026.03-.054.057-.084.083l-.076.084c-.031.024-.059.052-.083.084-.032.024-.06.052-.084.083-.031.024-.059.052-.083.084-.032.024-.06.052-.084.083l-.083.076c-.026.03-.054.058-.084.084-.025.03-.053.057-.083.083l-.084.084c-.025.03-.053.057-.083.083-.026.03-.054.058-.084.084-.025.03-.053.058-.083.084l-.076.083c-.031.024-.06.052-.083.084-.032.024-.06.052-.084.084-.031.024-.059.052-.083.083-.032.024-.06.052-.084.084l-.083.076c-.026.03-.054.058-.084.084-.026.03-.054.058-.083.084l-.084.083c-.026.03-.054.058-.083.084-.026.03-.054.058-.084.084l-.076.083-.083.084c-.032.024-.06.052-.084.083-.031.024-.059.052-.083.084-.032.024-.06.052-.084.084-.029.026-.057.053-.083.083l-.084.076c-.026.03-.053.057-.083.083-.026.03-.054.058-.084.084l-.083.084-.084.083c-.025.03-.053.058-.083.084l-.076.084c-.031.024-.06.052-.083.083-.032.024-.06.052-.084.084-.031.024-.06.052-.083.084-.032.024-.06.052-.084.083l-.083.076c-.026.03-.054.057-.084.083-.026.03-.054.058-.083.084-.026.03-.054.057-.084.083l-.083.084-.084.084-.083.083-.076.084c-.032.024-.06.052-.084.084-.031.024-.059.052-.083.083-.032.024-.06.052-.084.084-.031.024-.059.052-.083.084l-.084.076c-.026.03-.053.058-.083.084-.026.03-.054.057-.084.083-.025.03-.053.058-.083.084-.026.03-.054.058-.084.084-.025.03-.053.057-.083.083l-.084.084-.075.083c-.032.024-.06.052-.084.084-.031.024-.06.052-.083.084-.032.024-.06.052-.084.083-.031.024-.059.052-.083.084l-.084.076c-.026.03-.054.058-.083.084-.506.494-.909,1.085-1.184,1.737-.275.652-.417,1.353-.418,2.061v37.35c-2.519-.416-4.808-1.712-6.461-3.66-1.653-1.948-2.561-4.419-2.563-6.974V6.421c0-1.41-.56-2.762-1.556-3.76-.996-.997-2.348-1.558-3.757-1.558h-17.077c-.707,0-1.407.143-2.059.418-.651.275-1.241.678-1.735,1.185l-.084.083-.083.084c-.03.026-.058.054-.084.084l-.083.083-.084.084-.083.084-.076.076-.084.084-.083.083-.084.084c-.029.026-.057.054-.083.084l-.084.083-.083.084-.084.083-.083.084-.084.084-.083.083-.076.076-.083.083-.084.084-.083.084-.084.083-.083.084-.084.084-.083.083-.084.084c-.03.026-.057.054-.083.084l-.084.083-.083.084-.076.083-.084.076-.083.083-.084.084c-.029.026-.057.054-.083.084l-.084.083-.083.084-.084.084-.083.083c-.03.026-.058.054-.084.084l-.083.084-.084.083-.076.084-.083.076-.083.084-.084.084c-.03.026-.058.053-.083.083l-.084.084-.083.083-.084.084-.083.084-.084.083-.083.084-.084.084-.083.083-.076.076-.084.083-.083.084-.084.084-.083.083-.084.084-.083.084c-.03.026-.058.053-.084.083l-.083.084-.084.083-.083.084-.076.076-.083.083-.084.084-.083.083-.084.084-.083.084-.084.083-.083.084c-.03.026-.058.054-.084.084l-.083.083-.084.084-.083.084-.076.076-.084.084-.083.083-.084.084c-.029.026-.057.054-.083.084l-.084.083-.083.084-.084.083c-.029.026-.057.054-.083.084l-.084.084-.083.083-.084.084-.076.076-.083.084-.083.084-.084.083c-.03.026-.058.054-.083.084l-.084.084-.083.083-.084.084c-.03.026-.057.054-.083.084l-.084.083-.083.084-.084.083c-.44-.577-.888-1.139-1.366-1.679C225.583,3.17,217.993.002,208.604.002c-6.55-.089-12.908,2.218-17.881,6.487l-.622.532v-.631c0-1.41-.56-2.762-1.556-3.759-.997-.997-2.348-1.558-3.757-1.558h-17.122c-.708,0-1.408.143-2.059.418-.652.275-1.242.678-1.736,1.185-.03.026-.058.053-.084.083l-.083.084c-.032.024-.06.052-.084.084-.031.024-.059.052-.083.083-.03.026-.058.054-.084.084-.029.026-.057.054-.083.084l-.084.076c-.026.03-.054.058-.083.084-.024.032-.052.059-.084.083-.023.032-.052.06-.083.084l-.084.084-.076.083c-.029.026-.057.054-.083.084-.03.026-.058.053-.083.083-.03.026-.058.054-.084.084-.032.024-.06.052-.083.084-.03.026-.058.053-.084.083l-.083.076c-.026.03-.054.057-.084.083-.026.03-.054.058-.083.084-.024.032-.052.06-.084.084-.024.032-.052.059-.083.083l-.076.084c-.03.026-.058.054-.084.084l-.083.083c-.03.026-.058.054-.084.084-.031.024-.059.052-.083.084-.03.026-.058.053-.084.083-.029.026-.057.054-.083.084-.03.026-.058.053-.084.083l-.083.076c-.026.03-.054.058-.084.084-.023.032-.052.059-.083.083-.026.03-.054.058-.084.084-.025.03-.053.057-.083.083l-.076.084c-.03.026-.058.054-.083.084l-.084.083c-.032.024-.06.052-.083.084-.03.026-.058.054-.084.084-.03.026-.057.053-.083.083-.03.026-.058.054-.084.084l-.083.076c-.026.03-.054.058-.084.084-.024.032-.052.06-.083.084-.026.03-.054.057-.084.083l-.076.084-.083.084c-.03.026-.058.053-.084.083l-.083.084c-.032.024-.06.052-.084.083-.029.026-.057.054-.083.084-.03.026-.058.054-.084.084-.029.026-.057.053-.083.083l-.084.076c-.024.032-.052.059-.083.083-.024.032-.052.06-.084.084-.025.03-.053.058-.083.084l-.084.083-.076.084c-.029.026-.057.054-.083.084-.031.024-.06.052-.083.083-.032.024-.06.052-.084.084-.03.026-.058.054-.083.084-.03.026-.058.053-.084.083l-.083.076c-.026.03-.054.057-.084.083-.024.032-.052.06-.083.084-.024.032-.052.059-.084.083l-.083.084-.076.084c-.03.026-.058.053-.084.083l-.083.084c-.032.024-.06.052-.084.084-.031.024-.059.052-.083.083-.03.026-.058.054-.084.084-.029.026-.057.054-.083.084l-.084.076c-.026.03-.054.058-.083.084-.024.032-.052.059-.084.083-.023.032-.052.06-.083.084l-.084.084-.076.083c-.029.026-.057.054-.083.084-.03.026-.058.053-.083.083-.032.024-.06.052-.084.084-.032.024-.06.052-.083.084-.03.026-.058.053-.084.083-.03.026-.057.054-.083.084l-.084.076c-.026.03-.054.058-.083.084-.024.031-.052.06-.084.084-.026.03-.054.057-.083.083-.026.03-.054.058-.084.084l-.076.084-.083.083c-.03.026-.058.054-.084.084-.031.024-.059.052-.083.084-.032.024-.06.052-.084.083-.029.026-.057.054-.083.084-.03.026-.058.053-.084.083l-.083.076c-.026.03-.054.058-.084.084-.024.031-.052.059-.083.083-.026.03-.054.058-.084.084-.025.03-.053.057-.083.083l-.076.084c-.03.026-.058.054-.083.084l-.084.083c-.032.024-.06.052-.083.084-.03.026-.058.054-.084.084-.03.026-.058.053-.083.083-.03.026-.058.054-.084.084l-.083.076c-.026.03-.054.058-.084.084-.024.031-.052.06-.083.084-2.579-2.837-5.595-5.243-8.933-7.126C139.478,1.879,132.616.14,124.936.018h-.175c-7.681.122-14.534,1.861-20.378,5.15-2.724,1.531-5.235,3.413-7.469,5.598l-.083.084c-.03.026-.058.054-.083.084-.03.026-.058.053-.084.083-.03.026-.058.054-.083.084-.03.026-.058.054-.084.084l-.084.083-.083.076c-.024.031-.052.059-.084.083-.023.032-.051.06-.083.084l-.076.084c-.03.026-.057.053-.083.083l-.084.084-.083.083c-.03.026-.058.054-.084.084-.029.026-.057.054-.083.084-.03.026-.058.053-.084.083-.029.026-.057.054-.083.084l-.084.076c-.024.031-.052.06-.083.084-.024.032-.052.06-.084.084l-.076.083-.083.084c-.03.026-.058.054-.084.084-.029.026-.057.053-.083.083l-.083.084c-.03.026-.058.054-.084.084-.03.026-.058.053-.083.083-.03.026-.058.054-.084.084-.03.026-.058.053-.084.083l-.083.076c-.024.032-.052.059-.084.083-.023.031-.051.06-.083.084l-.076.084-.083.083-.084.084c-.03.026-.058.054-.083.084l-.084.083c-.029.026-.057.054-.083.084-.03.026-.058.054-.084.084-.029.026-.057.053-.083.083l2.041-5.993c.272-.801.349-1.655.225-2.491-.124-.836-.446-1.63-.938-2.317-.491-.688-1.139-1.249-1.89-1.636-.751-.387-1.584-.589-2.429-.59h-18.215c-.71.006-1.412.154-2.063.435-.652.282-1.241.691-1.732,1.205l-.083.076-.076.084-.084.083-.083.084c-.03.026-.058.053-.084.083-.029.026-.057.054-.083.084l-.084.084-.083.083c-.03.026-.058.054-.084.084-.029.026-.057.054-.083.084l-.083.083-.084.084-.083.076-.076.084-.084.084-.083.083-.084.084c-.03.026-.057.054-.083.084l-.084.083-.083.084c-.03.026-.058.053-.084.083-.03.026-.057.054-.083.084l-.084.084-.083.083-.084.076-.076.083-.083.084c-.03.026-.058.054-.084.084l-.083.083-.084.084-.083.084-.084.083c-.029.026-.057.054-.083.084-.03.026-.058.054-.083.084l-.084.083-.083.076c-.024.032-.052.059-.084.083l-.076.084-.083.083c-.03.026-.058.054-.084.084-.03.026-.057.054-.083.084-.03.026-.058.053-.084.083l-.083.084-.084.084c-.03.026-.057.053-.083.083l-.084.084-.083.084-.084.076c-.024.032-.052.06-.083.084l-.076.083c-.03.026-.058.054-.084.084-.029.026-.057.054-.083.084-.03.026-.058.053-.084.083l-.083.084-.084.083-.083.084c-.03.026-.058.054-.084.084l-.083.083-.083.084-.084.076-.076.084-.083.084c-.03.026-.058.053-.084.083-.03.026-.057.054-.083.084l-.084.084-.083.083-.084.084-.083.084c-.03.026-.058.053-.084.083l-.083.084-.084.083-.083.076-.076.084-.084.083-.083.084c-.03.026-.058.053-.084.083-.029.026-.057.054-.083.084l-.084.084-.083.083-.084.084c-.029.026-.057.054-.083.084l-.083.083-.084.084-.083.076-.076.084-.084.084-.083.083-.084.084c-.03.026-.057.054-.083.084l-.084.083-.083.084-.084.083c-.03.026-.057.054-.083.084l-.084.084-.083.076c-.024.031-.052.06-.084.084l-.076.083-.083.084c-.03.026-.058.054-.084.084l-.083.083-.084.084-.083.084-.084.083c-.029.026-.057.054-.083.084-.03.026-.058.054-.083.084l-.084.083-.083.084-.084.076-.076.084-.083.083c-.03.026-.058.054-.084.084-.03.026-.057.054-.083.084-.03.026-.058.053-.084.083l-.083.084-.084.084c-.03.026-.057.053-.083.083-.03.026-.058.054-.084.084l-.083.084-.084.076c-.024.032-.052.06-.083.084l-.076.083-.084.084c-.029.026-.057.054-.083.084-.03.026-.058.053-.084.083l-.083.084-.084.083-.083.084c-.03.026-.058.054-.084.084l-.083.083-.083.084-.084.076-.076.084-.083.084c-.03.026-.058.053-.084.083-.03.026-.057.054-.083.084l-.084.084-.083.083-.084.084-.083.084c-.03.026-.058.053-.084.083l-.083.084-.084.083-.083.076-.076.084-.084.083-.083.084c-.03.026-.058.053-.084.083-.029.026-.057.054-.083.084l-.084.084-.083.083c-.623.621-1.084,1.385-1.343,2.226l-4.956,16.377-8.751-28.865c-.327-1.096-.998-2.058-1.914-2.742s-2.028-1.054-3.171-1.056h-18.216c-.739,0-1.47.156-2.145.455-.676.3-1.281.737-1.779,1.284l-.083.084-.084.083c-.03.026-.058.054-.083.084l-.084.084-.084.083c-.026.03-.054.058-.083.084l-.084.084-.083.083-.084.076-.076.083c-.03.026-.058.054-.084.084l-.083.084c-.03.026-.058.053-.083.083-.03.026-.058.054-.084.084l-.083.083-.084.084c-.026.03-.054.058-.083.084l-.084.083-.083.084-.084.084-.083.076-.076.084c-.03.026-.058.053-.084.083-.03.026-.058.054-.083.084-.03.026-.058.054-.083.084-.03.026-.058.053-.083.083-.03.026-.058.054-.084.084l-.083.084c-.026.03-.054.057-.083.083-.026.03-.054.058-.084.084l-.083.083-.084.076-.076.083-.084.084c-.03.026-.057.054-.083.084-.03.026-.058.053-.084.083l-.083.084c-.03.026-.058.054-.083.084-.03.026-.058.053-.084.083l-.083.084c-.026.03-.054.058-.083.084l-.083.083-.084.084-.083.076-.076.084-.084.084-.083.083c-.03.026-.058.054-.083.084-.03.026-.058.053-.083.083l-.084.084-.083.084-.083.083-.084.084-.083.084-.084.083-.083.076-.076.083c-.03.026-.057.054-.083.084l-.084.084-.083.083c-.03.026-.058.054-.083.084-.03.026-.058.054-.084.084l-.083.083-.083.084-.083.083-.084.084-.083.084-.076.076-.084.084-.083.083c-.03.026-.058.054-.084.084l-.083.084-.084.083c-.03.026-.057.054-.083.084l-.084.084c-.026.03-.054.057-.083.083-.026.03-.054.058-.083.084l-.084.084-.083.083-.083.076-.076.083c-.03.026-.058.054-.084.084l-.083.084c-.03.026-.058.053-.084.083-.03.026-.058.054-.084.084l-.083.083-.084.084c-.026.03-.054.058-.083.084l-.084.083-.083.084-.084.084-.084.076-.076.084c-.03.026-.058.053-.084.083-.03.026-.057.054-.083.084-.03.026-.058.054-.084.084-.03.026-.057.053-.083.083-.03.026-.058.054-.084.084l-.083.084c-.026.03-.054.057-.084.083l-.084.084-.083.083-.084.076c-.024.031-.052.059-.083.083l-.076.084c-.03.026-.058.054-.083.084-.03.026-.058.053-.084.083l-.084.084c-.03.026-.057.054-.083.084l-.084.083-.083.084c-.026.03-.054.058-.084.084l-.083.083-.084.084-.083.076c-.024.032-.052.06-.084.084l-.076.084-.083.083c-.03.026-.058.054-.084.084-.03.026-.058.053-.083.083l-.084.084-.083.084-.084.083-.083.084-.083.084-.084.083-.083.084-.076.076c-.03.026-.058.054-.083.084l-.084.084-.084.083c-.03.026-.057.054-.083.084-.03.026-.058.054-.084.084l-.083.083-.084.084-.083.083-.084.084-.083.084-.084.076-.076.084-.083.083c-.03.026-.058.054-.084.084l-.083.084-.083.083c-.03.026-.058.054-.083.084l-.084.084-.084.083c-.026.03-.054.058-.083.084l-.084.084-.083.083c-.169.177-.326.365-.471.562-.492.687-.814,1.481-.938,2.317-.124.836-.047,1.691.224,2.491l24.082,70.705c.359,1.051,1.036,1.963,1.939,2.609.902.646,1.984.993,3.094.992h24.62c.699,0,1.39-.14,2.034-.409.645-.268,1.231-.661,1.723-1.156.03-.026.058-.054.084-.084.03-.026.057-.053.083-.083l.084-.076c.026-.03.054-.057.083-.083.024-.032.052-.06.084-.084.024-.032.052-.059.083-.083l.084-.084.076-.084c.029-.026.057-.053.083-.083.03-.026.058-.054.084-.084.031-.024.059-.052.083-.084.03-.026.058-.053.084-.083.029-.026.057-.054.083-.084.03-.026.058-.054.084-.084l.083-.076c.026-.03.054-.058.084-.084.023-.032.052-.059.083-.083.024-.031.052-.06.083-.084.026-.03.054-.058.084-.084l.076-.083c.03-.026.058-.054.083-.084.032-.024.06-.051.084-.083.03-.026.057-.054.083-.084.03-.026.058-.054.084-.084.03-.026.057-.053.083-.083.03-.026.058-.054.084-.084l.083-.076c.026-.03.054-.058.084-.084.024-.032.052-.06.083-.084.024-.032.052-.059.084-.083.026-.03.053-.058.083-.084l.076-.084c.03-.026.058-.053.084-.083.029-.026.057-.054.083-.084.032-.024.06-.052.084-.084.029-.026.057-.053.083-.083.03-.026.058-.054.084-.084.029-.026.057-.053.083-.083l.084-.076c.025-.03.053-.058.083-.084.024-.032.052-.059.084-.083.023-.032.052-.06.083-.084l.076-.083.083-.084c.03-.026.058-.054.084-.084.03-.026.057-.053.083-.083.03-.026.058-.054.084-.084.03-.026.057-.054.083-.084.03-.026.058-.053.084-.083l.083-.076c.026-.03.054-.057.084-.083.026-.03.054-.058.083-.084.024-.031.052-.06.084-.084.024-.032.052-.059.083-.083l.076-.084.084-.084.083-.083c.032-.024.06-.052.084-.084.029-.026.057-.053.083-.083.03-.026.058-.054.084-.084.029-.026.057-.054.083-.084l.084-.076c.025-.03.053-.058.083-.084.026-.03.054-.057.084-.083.023-.032.052-.06.083-.084l.083-.084.076-.083c.03-.026.058-.054.084-.084l.083-.084c.032-.024.06-.052.084-.083.029-.026.057-.054.083-.084.03-.026.058-.054.084-.084.03-.026.057-.053.083-.083l.084-.076c.026-.03.054-.057.083-.083.024-.032.052-.06.084-.084.024-.032.052-.059.083-.083l.084-.084.076-.084c.029-.026.057-.053.083-.083.03-.026.058-.054.084-.084.031-.024.059-.052.083-.084.03-.026.058-.053.084-.083.029-.026.057-.054.083-.084.03-.026.058-.054.084-.084.029-.026.057-.053.083-.083l.084-.076c.023-.032.052-.059.083-.083.024-.032.052-.06.084-.084.025-.03.053-.058.083-.084l.076-.083c.03-.026.058-.054.083-.084.032-.024.06-.051.084-.083.03-.026.057-.054.083-.084.03-.026.058-.054.084-.084.03-.026.057-.053.083-.083.03-.026.058-.054.084-.084l.083-.076c.026-.03.054-.058.084-.084.024-.032.052-.06.083-.084.024-.032.052-.059.084-.083l.076-.084c.029-.026.057-.054.083-.084.03-.026.058-.053.084-.083.029-.026.057-.054.083-.084.032-.024.06-.052.084-.084.029-.026.057-.053.083-.083.03-.026.058-.054.084-.084.029-.026.057-.053.083-.083l.084-.076c.025-.03.053-.058.083-.084.024-.032.052-.059.084-.083.023-.032.052-.06.083-.084l.076-.083.083-.084c.03-.026.058-.054.084-.084.03-.026.058-.053.083-.083.032-.024.06-.052.084-.084.03-.026.057-.054.083-.084.03-.026.058-.053.084-.083.03-.026.057-.054.083-.084l.084-.076c.024-.032.052-.06.083-.084.024-.032.052-.06.084-.084.024-.032.052-.059.083-.083l.076-.084.084-.084.083-.083c.032-.024.06-.052.084-.084.029-.026.057-.053.083-.083.03-.026.058-.054.084-.084.029-.026.057-.054.083-.084l.084-.076c.026-.03.053-.058.083-.084.024-.032.052-.059.084-.083.023-.032.052-.06.083-.084l.076-.084.083-.083c.03-.026.058-.054.084-.084l.083-.084c.032-.024.06-.052.084-.083.03-.026.057-.054.083-.084.03-.026.058-.054.084-.084.03-.026.057-.053.083-.083l.084-.076c.026-.03.054-.057.083-.083.024-.032.052-.06.084-.084.024-.032.052-.059.083-.083l.084-.084.076-.084c.616-.587,1.081-1.314,1.358-2.119l3.279-9.639c.671,2.164,1.516,4.27,2.527,6.297,3.163,6.331,8.117,11.591,14.246,15.124,5.837,3.411,12.774,5.218,20.629,5.377h.22c7.856-.16,14.792-1.967,20.629-5.377,3.051-1.77,5.833-3.97,8.258-6.533l.083-.084.084-.083c.025-.03.053-.058.083-.084l.084-.083c.025-.03.053-.058.083-.084l.083-.084.076-.083c.032-.024.06-.052.084-.084.031-.024.06-.052.083-.084l.084-.076.083-.084.084-.083.083-.084c.026-.03.054-.058.084-.084.026-.03.054-.057.083-.083.026-.03.054-.058.084-.084l.083-.084.084-.083.076-.084.083-.076.083-.084.084-.083.084-.084c.029-.026.057-.054.083-.084l.084-.083c.025-.03.053-.058.083-.084.026-.03.054-.058.084-.084.025-.03.053-.057.083-.083.026-.03.054-.058.083-.084l.076-.084c.032-.024.06-.052.084-.083l.083-.076.084-.083.083-.084c.03-.026.058-.054.084-.084l.083-.083.084-.084c.026-.03.054-.057.083-.083l.084-.084c.026-.03.054-.058.083-.084.026-.03.054-.057.084-.083l.076-.084c.031-.024.059-.052.083-.084.032-.024.06-.052.084-.083l.083-.076.084-.083.083-.084.084-.084.083-.083.084-.084c.025-.03.053-.058.083-.084l.084-.083.083-.084.083-.083.076-.084.084-.076.083-.083.084-.084.083-.083.084-.084.083-.084.084-.083.083-.084c.026-.03.054-.058.084-.084l.076-.083c.031-.024.059-.052.083-.084.032-.024.06-.052.084-.084l.083-.076.084-.084.083-.083c.03-.026.058-.054.084-.084l.083-.084c.026-.03.054-.057.084-.083.025-.03.053-.058.083-.084l.084-.083c.025-.03.053-.058.083-.084.026-.03.054-.058.083-.084l.076-.083c.032-.024.06-.052.084-.084l.083-.076.084-.084.083-.084.084-.083.083-.084c.026-.03.054-.058.084-.084.026-.03.054-.057.083-.083.026-.03.054-.058.084-.084l.083-.084.084-.083.076-.084c.031-.024.059-.052.083-.083l.084-.076.083-.083.084-.084.083-.084.084-.083c.026-.03.053-.058.083-.084.026-.03.054-.058.084-.084.025-.03.053-.057.083-.083.026-.03.054-.058.084-.084l.083-.084.076-.083.053-.053v14.068c0,1.41.56,2.762,1.556,3.76.996.997,2.348,1.558,3.757,1.558h17.13c.707,0,1.406-.141,2.058-.415.651-.274,1.242-.675,1.737-1.18l.083-.083.084-.084.083-.084c.026-.03.054-.057.084-.083.025-.03.053-.058.083-.084l.084-.084.075-.083c.032-.024.06-.052.084-.084.031-.024.06-.052.083-.084l.084-.076c.026-.03.054-.058.083-.084.026-.03.054-.057.084-.083.026-.03.054-.058.083-.084l.084-.084.083-.083.084-.084.083-.083.084-.084.076-.084c.031-.024.059-.051.083-.083l.084-.076.083-.083c.026-.03.054-.058.084-.084.025-.03.053-.058.083-.084l.084-.083.083-.084c.026-.03.054-.058.084-.084l.083-.083.084-.084.075-.084c.032-.024.06-.051.084-.083.031-.024.06-.052.083-.084l.084-.076.083-.084c.026-.03.054-.058.084-.084.026-.03.054-.057.083-.083l.084-.084.083-.083c.026-.03.054-.058.084-.084.026-.03.054-.058.083-.084l.084-.083.076-.084c.031-.024.059-.052.083-.084.032-.024.06-.052.084-.083l.083-.076.084-.083c.025-.03.053-.058.083-.084.026-.03.054-.058.084-.084l.083-.083.084-.084.083-.084c.026-.03.054-.057.084-.083l.083-.084.076-.083c.031-.024.06-.052.083-.084.032-.024.06-.052.084-.084l.083-.076.084-.084c.026-.03.054-.057.083-.083l.084-.084.083-.084.084-.083c.026-.03.054-.058.083-.084.026-.03.054-.058.084-.084l.076-.083c.031-.024.059-.052.083-.084.032-.024.06-.052.084-.084.031-.024.059-.052.083-.083l.084-.076c.025-.03.053-.057.083-.083.026-.03.054-.058.084-.084l.083-.083.084-.084.083-.084c.026-.03.054-.057.084-.083.026-.03.053-.058.083-.084l.076-.084c.031-.024.059-.052.083-.083.032-.024.06-.052.084-.084.031-.024.06-.052.083-.084l.084-.076c.026-.03.054-.058.083-.084.026-.03.054-.057.084-.083l.083-.084.084-.084.083-.083.084-.084.083-.083.084-.084.076-.084c.031-.024.059-.051.083-.083l.084-.076.083-.083c.026-.03.054-.058.084-.084.025-.03.053-.058.083-.084.026-.03.054-.057.084-.083l.083-.084c.026-.03.054-.058.084-.084l.083-.083.084-.084.083-.084.076-.083c.031-.024.06-.052.084-.084l.083-.076.083-.084c.026-.03.054-.058.084-.084.026-.03.054-.057.083-.083l.084-.084.083-.083c.026-.03.054-.058.084-.084.026-.03.054-.058.083-.084l.084-.083.076-.084c.031-.024.059-.052.083-.084.032-.024.06-.052.084-.083l.083-.076.084-.083c.025-.03.053-.058.083-.084.026-.03.054-.058.084-.084l.083-.083.084-.084.083-.084c.026-.03.054-.057.084-.083l.083-.084.076-.083c.031-.024.06-.052.084-.084.031-.024.059-.052.083-.084l.083-.076.084-.084c.026-.03.054-.057.083-.083.026-.03.054-.058.084-.084l.083-.084.084-.083c.026-.03.054-.058.083-.084.026-.03.054-.058.084-.084l.083-.083.076-.084c.032-.024.06-.052.084-.084.031-.024.059-.052.083-.083l.084-.076.083-.083c.026-.03.054-.058.084-.084l.083-.083.084-.084.083-.084c.026-.03.054-.057.084-.083.026-.03.053-.058.083-.084l.084-.084.075-.083c.032-.024.06-.052.084-.084.506-.494.908-1.085,1.183-1.737.275-.652.418-1.353.418-2.061v-37.35c2.521.413,4.814,1.708,6.468,3.656,1.655,1.948,2.563,4.422,2.564,6.978v39.249c0,1.41.56,2.763,1.556,3.76.997.997,2.348,1.557,3.757,1.557h17.069c.707,0,1.407-.141,2.058-.415.652-.274,1.242-.675,1.737-1.18.03-.026.058-.054.084-.084.029-.026.057-.054.083-.084.03-.026.058-.053.083-.083.03-.026.058-.054.084-.084l.083-.084c.03-.026.058-.053.084-.083.03-.026.057-.054.083-.084.03-.026.058-.053.084-.083.03-.026.057-.054.083-.084l.084-.076c.024-.032.052-.059.083-.083l.076-.084.084-.083c.029-.026.057-.054.083-.084.03-.026.058-.054.084-.084.029-.026.057-.053.083-.083.03-.026.058-.054.084-.084.029-.026.057-.054.083-.084.03-.026.058-.053.084-.083.029-.026.057-.054.083-.084l.084-.076c.024-.032.051-.06.083-.084.024-.032.052-.06.084-.084.023-.032.052-.059.083-.083l.076-.084.083-.084c.03-.026.058-.053.084-.083.03-.026.058-.054.083-.084l.084-.083c.03-.026.058-.054.083-.084.03-.026.058-.054.084-.084.029-.026.057-.053.083-.083l.084-.076c.024-.032.052-.059.083-.083.024-.032.052-.06.084-.084l.076-.084c.029-.026.057-.053.083-.083.03-.026.058-.054.084-.084l.083-.084c.03-.026.058-.053.084-.083.029-.026.057-.054.083-.084.03-.026.058-.054.084-.084.029-.026.057-.053.083-.083.03-.026.058-.054.084-.084l.083-.076c.024-.031.052-.06.084-.084.023-.031.051-.059.083-.083l.076-.084.084-.084c.029-.026.057-.053.083-.083l.083-.084.084-.084c.03-.026.058-.053.083-.083.03-.026.058-.054.084-.084.03-.026.057-.054.083-.084.03-.026.058-.053.084-.083l.083-.076c.024-.032.052-.059.084-.083.024-.032.052-.06.083-.084l.076-.084.084-.083.083-.084c.03-.026.058-.053.084-.083l.083-.084c.03-.026.058-.054.084-.084.029-.026.057-.053.083-.083.03-.026.058-.054.084-.084.029-.026.057-.054.083-.084l.084-.076c.023-.032.051-.06.083-.084.024-.032.052-.059.084-.083l.076-.084c.029-.026.057-.054.083-.084.03-.026.058-.053.084-.083.029-.026.057-.054.083-.084.03-.026.058-.054.083-.084.03-.026.058-.053.084-.083.03-.026.058-.054.083-.084.03-.026.058-.053.084-.083.03-.026.057-.054.083-.084l.084-.077c.024-.031.052-.059.083-.083l.076-.084c.03-.026.058-.053.084-.083.029-.026.057-.054.083-.084.03-.026.058-.054.084-.084.029-.026.057-.053.083-.083.03-.026.058-.054.084-.084.029-.026.057-.054.083-.084.03-.026.058-.053.084-.083.029-.026.057-.054.083-.084l.084-.076c.024-.032.052-.06.083-.084.024-.032.052-.06.084-.084l.076-.083.083-.084.084-.084c.029-.026.057-.053.083-.083.03-.026.058-.054.083-.084l.084-.083c.03-.026.058-.054.083-.084.441.577.888,1.139,1.367,1.679,5.586,6.237,13.168,9.396,22.556,9.396,6.552.09,12.912-2.214,17.889-6.48l.615-.532v.623c0,1.41.56,2.763,1.556,3.76s2.348,1.557,3.757,1.557h17.13c.706,0,1.406-.141,2.058-.415.651-.274,1.242-.675,1.736-1.18l.084-.084.083-.084c.026-.03.054-.057.084-.083l.076-.084c.029-.026.057-.054.083-.084.032-.024.06-.052.084-.083.031-.024.059-.052.083-.084.032-.024.06-.052.084-.084.029-.026.057-.053.083-.083l.084-.076c.026-.03.053-.057.083-.083.026-.03.054-.058.084-.084.026-.03.053-.057.083-.083.026-.03.054-.058.084-.084l.083-.084.076-.083c.032-.024.06-.052.084-.084.031-.024.059-.052.083-.084.031-.024.06-.052.084-.083.031-.024.059-.052.083-.084l.083-.076c.026-.03.054-.058.084-.084.026-.03.054-.058.083-.084.026-.03.054-.057.084-.083l.083-.084.084-.084c.026-.03.054-.057.083-.083l.076-.084.084-.083c.031-.024.059-.052.083-.084.032-.024.06-.052.084-.084.031-.024.059-.051.083-.083l.084-.076c.026-.03.053-.057.083-.083.026-.03.054-.058.084-.084.026-.03.053-.058.083-.084.026-.03.054-.057.084-.083l.083-.084c.026-.03.054-.058.084-.084l.076-.083c.031-.024.059-.052.083-.084.031-.024.06-.052.084-.084.031-.024.059-.051.083-.083.031-.024.06-.052.083-.084l.084-.076c.026-.03.054-.058.083-.084.026-.03.054-.058.084-.084.026-.03.054-.057.083-.083.026-.03.054-.058.084-.084.026-.03.054-.057.083-.083l.084-.084.076-.084c.031-.024.059-.052.083-.083.032-.024.06-.052.084-.084.031-.024.059-.052.083-.084.032-.024.06-.052.084-.083l.083-.076c.026-.03.054-.057.084-.083.026-.03.053-.058.083-.084l.084-.084.083-.083c.026-.03.054-.058.084-.084l.076-.084c.029-.026.057-.053.083-.083.032-.024.06-.052.084-.084.031-.024.059-.052.083-.083.031-.024.06-.052.084-.084.029-.026.057-.054.083-.084l.083-.076c.026-.03.054-.058.084-.084.026-.03.054-.057.083-.083l.084-.084.083-.084c.026-.03.054-.057.084-.083l.076-.084c.029-.026.057-.054.083-.084.032-.024.06-.052.084-.083.031-.024.059-.052.083-.084.032-.024.06-.052.084-.084.03-.026.057-.053.083-.083l.084-.076c.026-.03.053-.057.083-.083.026-.03.054-.058.084-.084l.083-.083c.026-.03.054-.058.084-.084l.083-.084.076-.083c.032-.024.06-.052.084-.084.031-.024.059-.052.083-.084.031-.024.06-.052.084-.083.031-.024.059-.052.083-.084l.084-.076c.025-.03.053-.058.083-.084.026-.03.054-.058.083-.084.026-.03.054-.057.084-.083.024-.032.052-.06.083-.084l.084-.084c.026-.03.054-.057.083-.083l.076-.084.084-.083c.031-.024.059-.052.083-.084.032-.024.06-.052.084-.084.031-.024.059-.051.083-.083l.084-.076c.026-.03.053-.057.083-.083.026-.03.054-.058.084-.084.026-.03.053-.058.083-.084.026-.03.054-.057.084-.083l.083-.084c.026-.03.054-.058.084-.084l.076-.083c.029-.026.057-.054.083-.084.032-.024.06-.052.084-.084.031-.024.059-.051.083-.083.031-.024.06-.052.084-.084l.083-.076c.026-.03.054-.058.083-.084l.046-.045c2.516,2.763,5.439,5.124,8.667,7.003,5.837,3.411,12.781,5.219,20.629,5.378h.228c7.855-.16,14.792-1.967,20.629-5.378,3.051-1.77,5.832-3.969,8.257-6.532l.084-.084.076-.084c.029-.026.057-.053.083-.083l.084-.084.083-.084c.032-.024.06-.051.084-.083.031-.024.059-.052.083-.084.03-.026.058-.054.084-.084l.083-.076c.024-.032.052-.06.084-.084l.083-.083c.026-.03.054-.058.084-.084.026-.03.053-.058.083-.084l.076-.083.083-.084c.03-.026.058-.053.084-.083l.083-.084c.032-.024.06-.052.084-.084.031-.024.06-.051.083-.083l.084-.076c.024-.032.052-.059.083-.083.024-.032.052-.06.084-.084.024-.032.052-.06.083-.084l.084-.083c.026-.03.054-.058.083-.084l.076-.084c.03-.026.058-.053.084-.083l.083-.084c.03-.026.058-.054.084-.084.031-.024.059-.052.083-.083.03-.026.058-.054.084-.084l.083-.076c.024-.032.052-.06.084-.084.023-.032.052-.059.083-.083.026-.03.054-.058.084-.084l.083-.084c.026-.03.054-.057.084-.083l.075-.084c.03-.026.058-.054.084-.084.03-.026.057-.053.083-.083.03-.026.058-.054.084-.084.031-.024.06-.052.083-.084.03-.026.058-.053.084-.083.03-.026.058-.054.083-.084l.084-.076c.024-.031.052-.06.083-.084l.084-.084c.026-.03.054-.057.083-.083l.084-.084.076-.083c.029-.026.057-.054.083-.084.03-.026.058-.054.084-.084l.083-.083c.032-.024.06-.052.084-.084.029-.026.057-.054.083-.084l.084-.076c.023-.032.052-.06.083-.084.024-.032.052-.059.084-.083.024-.032.052-.06.083-.084.026-.03.054-.058.084-.084.026-.03.053-.057.083-.083l.076-.084.083-.084c.03-.026.058-.053.084-.083.03-.026.058-.054.084-.084.031-.024.059-.052.083-.083.03-.026.058-.054.083-.084l.084-.076c.024-.032.052-.059.083-.083.024-.032.052-.06.084-.084.026-.03.054-.057.083-.083l.076-.084.084-.084c.029-.026.057-.053.083-.083l.084-.084.083-.084c.03-.026.058-.053.084-.083.031-.024.059-.052.083-.084.03-.026.058-.054.084-.084l.083-.076c.024-.031.052-.06.084-.084.024-.032.052-.059.083-.083.026-.03.054-.058.084-.084.026-.03.053-.058.083-.084l.076-.083.083-.084c.03-.026.058-.053.084-.083l.083-.084c.032-.024.06-.052.084-.084.031-.024.06-.051.083-.083.03-.026.058-.054.084-.084l.083-.076c.024-.032.052-.06.084-.084.024-.032.052-.06.083-.084l.084-.083c.026-.03.054-.058.083-.084l.076-.084c.03-.026.058-.053.084-.083l.083-.084c.03-.026.058-.054.084-.084.031-.024.059-.052.083-.083.03-.026.058-.054.084-.084l.083-.076c.024-.032.052-.06.084-.084.023-.032.052-.059.083-.083.024-.032.052-.06.084-.084l.083-.084c.026-.03.054-.057.084-.083l.075-.084c.03-.026.058-.054.084-.084.03-.026.057-.053.083-.083.03-.026.058-.054.084-.084.031-.024.06-.052.083-.084.03-.026.058-.053.084-.083l.083-.076c.024-.032.052-.059.084-.083.024-.032.052-.06.083-.084l.084-.084c.026-.03.054-.057.083-.083l.084-.084.076-.083c.029-.026.057-.054.083-.084.03-.026.058-.054.084-.084l.083-.083c.032-.024.06-.052.084-.084.029-.026.057-.054.083-.084l.084-.076c.023-.032.052-.06.083-.084.024-.032.052-.059.084-.083.026-.03.053-.058.083-.084.026-.03.054-.058.084-.084l.075-.083c.03-.026.058-.054.084-.084l.083-.084c.03-.026.058-.053.084-.083.03-.026.058-.054.084-.084.031-.024.059-.051.083-.083.03-.026.058-.054.083-.084l.084-.076c.024-.032.052-.059.083-.083.024-.032.052-.06.084-.084.026-.03.054-.057.083-.083l.084-.084.076-.084c.029-.026.057-.053.083-.083l.084-.084.083-.084c.032-.024.06-.051.084-.083.031-.024.059-.052.083-.084.03-.026.058-.054.084-.084,2.435-2.577,4.481-5.497,6.071-8.667,1.468-2.945,2.591-6.05,3.348-9.253.31-1.284.131-2.638-.502-3.798.955-.899,1.545-2.118,1.655-3.426.129-1.641.167-3.191.167-4.702Z"/>
	<path class="cls-4" d="M293.898,29.625v16.089c0,4.269-1.694,8.363-4.71,11.382s-7.107,4.714-11.372,4.714c-2.113,0-4.204-.415-6.156-1.223-1.952-.809-3.725-1.994-5.219-3.489-1.493-1.495-2.678-3.27-3.486-5.223-.808-1.953-1.223-4.047-1.222-6.161V6.465h-17.077v41.779c0,9.824,2.277,17.281,6.831,22.37,4.554,5.089,10.755,7.622,18.602,7.596,5.282.081,10.412-1.776,14.421-5.219,3.885-3.192,6.999-7.222,9.107-11.789.448-1.071.98-1.603,1.609-1.603h.403c.16.011.317.055.459.13.143.075.269.178.369.303.101.126.175.271.216.427.042.156.05.319.026.478-.114.743-.34,1.465-.668,2.142-.678,1.418-1.217,2.899-1.609,4.421-.389,1.714-.57,3.469-.539,5.226v4.413h17.13V6.434h-17.122l.007,23.19Z"/>
	<path class="cls-4" d="M72.339,6.466l-15.657,51.692c-.683,2.529-.998,5.144-.934,7.763,0,1.344-.539,2.013-1.609,2.013s-1.601-.669-1.601-2.013c.065-2.62-.252-5.235-.941-7.763L35.947,6.466h-18.216l24.082,70.704h24.621L90.516,6.466h-18.177Z"/>
	<path class="cls-4" d="M368.581,46.104h19.566c.122-1.398.198-2.819.198-4.285,0-7.318-1.427-13.724-4.281-19.218-2.733-5.358-6.994-9.783-12.242-12.715-5.105-2.876-11.061-4.366-17.866-4.467-6.79.106-12.743,1.596-17.859,4.467-5.248,2.932-9.509,7.357-12.242,12.715-2.854,5.495-4.281,11.901-4.281,19.218-.121,6.511,1.299,12.959,4.144,18.816,2.688,5.408,6.913,9.901,12.144,12.913,5.095,2.968,11.116,4.52,18.063,4.656,6.945-.144,12.979-1.686,18.064-4.656,5.244-3.008,9.482-7.501,12.181-12.913,1.283-2.577,2.263-5.295,2.922-8.098h-19.088c-.858,3.076-2.699,5.787-5.241,7.718-2.542,1.931-5.646,2.977-8.838,2.977-3.878,0-7.599-1.542-10.341-4.287-2.743-2.745-4.284-6.468-4.284-10.351v-2.492h29.281ZM339.33,33.95c0-1.922.379-3.825,1.114-5.601.735-1.776,1.812-3.39,3.17-4.749,1.358-1.359,2.971-2.438,4.745-3.174,1.774-.736,3.676-1.114,5.597-1.114,1.921,0,3.823.378,5.598,1.113,1.775.735,3.387,1.813,4.746,3.173,1.358,1.359,2.435,2.973,3.17,4.75.735,1.776,1.112,3.68,1.111,5.603v.357h-29.251v-.357Z"/>
	<path class="cls-4" d="M142.643,9.885c-5.1-2.879-11.066-4.361-17.859-4.467-6.8.106-12.756,1.596-17.866,4.467-5.248,2.932-9.509,7.357-12.242,12.715-2.854,5.495-4.281,11.901-4.281,19.218-.123,6.512,1.3,12.961,4.152,18.816,2.686,5.41,6.911,9.903,12.143,12.913,5.085,2.97,11.119,4.512,18.064,4.656,6.942-.142,12.963-1.694,18.063-4.656,5.233-3.011,9.458-7.504,12.144-12.913,1.285-2.577,2.268-5.294,2.929-8.098h-19.095c-.857,3.076-2.697,5.786-5.237,7.718-2.541,1.931-5.644,2.977-8.835,2.978-3.878,0-7.598-1.542-10.341-4.287-2.743-2.745-4.284-6.468-4.284-10.351v-2.492h48.817c.122-1.398.19-2.819.19-4.285,0-7.318-1.427-13.724-4.281-19.218-2.716-5.35-6.955-9.774-12.181-12.715ZM139.41,34.322h-29.251v-.358c0-3.882,1.541-7.605,4.284-10.351,2.742-2.745,6.462-4.287,10.341-4.287s7.599,1.542,10.342,4.287,4.284,6.468,4.284,10.351v.358Z"/>
	<path class="cls-4" d="M208.536,5.394c-5.283-.078-10.412,1.78-14.42,5.226-3.883,3.191-6.996,7.219-9.108,11.781-.44,1.071-.979,1.611-1.601,1.611h-.403c-.16-.012-.317-.057-.46-.132-.143-.075-.268-.179-.369-.306-.1-.126-.174-.272-.215-.428-.042-.156-.05-.32-.026-.479.111-.744.336-1.467.668-2.142.678-1.415,1.217-2.894,1.609-4.414.386-1.714.564-3.469.531-5.226v-4.42h-17.122v70.704h17.122v-39.249c0-4.269,1.695-8.363,4.711-11.382,3.016-3.019,7.107-4.714,11.372-4.714s8.356,1.696,11.372,4.714c3.016,3.019,4.711,7.113,4.711,11.382v39.249h17.076v-41.779c0-9.824-2.277-17.278-6.83-22.363-4.554-5.084-10.76-7.629-18.618-7.634Z"/>
	<path class="cls-1" d="M406.529,48.358c2.553,0,5,1.015,6.805,2.821s2.819,4.256,2.819,6.811v9.632c0,2.554-1.014,5.004-2.819,6.811-1.805,1.806-4.252,2.821-6.805,2.821s-5-1.015-6.805-2.821c-1.805-1.806-2.819-4.256-2.819-6.811v-9.632c0-2.555,1.014-5.004,2.819-6.811s4.253-2.821,6.805-2.821Z"/>
</svg>