<?xml version="1.0" ?>
<svg xmlns="http://www.w3.org/2000/svg" data-name="Layer 1" viewBox="0 0 144 38.89">
	<defs>
		<linearGradient id="a" x1="329.44" x2="359.92" y1="296.61" y2="322.96" gradientUnits="userSpaceOnUse">
			<stop offset="0" stop-color="#862d90"/>
			<stop offset="1" stop-color="#b86bab"/>
		</linearGradient>
	</defs>
	<path fill="url(#a)" d="m354.38 300.63-14.08-14.07-2.05 2-12 12a7.6 7.6 0 0 0 0 10.74l14.08 14.07 14.08-14.07a7.6 7.6 0 0 0-.03-10.67Zm.29 5.37a5.66 5.66 0 0 1-1 3.2l-3.43-3.43 3.23-3.22a5.55 5.55 0 0 1 1.2 3.45Zm-9.56 5.51-.3-.3 4.08-4.07 3.49 3.49L347 316a6.47 6.47 0 0 0-1.89-4.49Zm-9.34 6.66-4.37-4.36 6.64-6.64 4 4-5.38 5.38a3.66 3.66 0 0 0-.89 1.62Zm3.64-12.37 4.07-4.07 4 4-4.07 4.08Zm-1.19-9.33 3.89 3.89-4.11 4.08-6.41-6.44 5-5a5.45 5.45 0 0 0 1.63 3.47Zm8.7-.56 5.23 5.23-3.26 3.27-4.05-4.05.28-.27a6.15 6.15 0 0 0 1.8-4.18Zm-3.17-3.17a4.22 4.22 0 0 1 0 6l-.27.28-3.89-3.89a3.61 3.61 0 0 1-.07-5l.78-.78ZM325.93 306a5.62 5.62 0 0 1 1.66-4l2.64-2.64 6.44 6.44-6.67 6.64-2.41-2.44a5.62 5.62 0 0 1-1.66-4ZM338 320.39a1.8 1.8 0 0 1 .09-2.43l5.38-5.38.29.29a4.56 4.56 0 0 1 .42 6l-3.86 3.86Z" transform="translate(-324 -286.56)"/>
	<path fill="#075c63" d="M46.23 30.15 37.6 8.88h4.77l6.5 16.8 6.66-16.8h4.55l-8.75 21.27ZM73.42 28.17a10.34 10.34 0 0 1-3 1.74 10.23 10.23 0 0 1-3.42.53 9 9 0 0 1-3.36-.63 8.59 8.59 0 0 1-2.7-1.74 7.85 7.85 0 0 1-1.79-2.59 8 8 0 0 1-.66-3.24 8.28 8.28 0 0 1 .63-3.21 8 8 0 0 1 1.71-2.61 8.1 8.1 0 0 1 2.6-1.75 8.2 8.2 0 0 1 3.21-.63 7.38 7.38 0 0 1 3.11.65 7.82 7.82 0 0 1 2.49 1.78 7.94 7.94 0 0 1 1.64 2.69 9.35 9.35 0 0 1 .59 3.38v1.1H62.7a4.44 4.44 0 0 0 1.64 2.4 4.6 4.6 0 0 0 2.85.91 5.7 5.7 0 0 0 1.95-.33 4.59 4.59 0 0 0 1.55-.95Zm-6.87-10.73a3.7 3.7 0 0 0-2.46.87 4.45 4.45 0 0 0-1.42 2.32h7.74a4.51 4.51 0 0 0-1.44-2.29 3.6 3.6 0 0 0-2.42-.9ZM77.28 30.15V14.32h4.16v1.73a5 5 0 0 1 1.84-1.56 5.24 5.24 0 0 1 2.39-.53 8 8 0 0 1 1 .1 2.19 2.19 0 0 1 .72.26v3.65a4 4 0 0 0-1-.32 5.83 5.83 0 0 0-1.12-.11 4.23 4.23 0 0 0-2.23.61 4.15 4.15 0 0 0-1.6 1.76v10.24ZM94.35 30.44a6.27 6.27 0 0 1-4.16-1.35 4.37 4.37 0 0 1-1.61-3.51 4.13 4.13 0 0 1 1.73-3.52 7.92 7.92 0 0 1 4.77-1.28 12.81 12.81 0 0 1 1.95.15 12.64 12.64 0 0 1 1.91.46v-1.15a2.5 2.5 0 0 0-.85-2.06 3.83 3.83 0 0 0-2.49-.7 8.38 8.38 0 0 0-2.17.32 17.64 17.64 0 0 0-2.66 1l-1.52-3.07a20.55 20.55 0 0 1 3.6-1.28 14.73 14.73 0 0 1 3.45-.42 7.39 7.39 0 0 1 5 1.53 5.42 5.42 0 0 1 1.77 4.33v10.27h-4.1v-1.09a7.5 7.5 0 0 1-2.11 1 8.66 8.66 0 0 1-2.51.37Zm-1.79-5a1.66 1.66 0 0 0 .79 1.44 3.67 3.67 0 0 0 2.1.54 6.71 6.71 0 0 0 1.9-.26 5.66 5.66 0 0 0 1.59-.75v-2.37a7.62 7.62 0 0 0-1.59-.44 11 11 0 0 0-1.75-.13 4 4 0 0 0-2.23.53 1.63 1.63 0 0 0-.81 1.44ZM107.21 30.15V8.88h2.34v9.56h12.36V8.93h2.34V30.2h-2.34v-9.66h-12.36v9.66ZM127.71 30.15V8.88h9.12a7.25 7.25 0 0 1 5 1.69 5.6 5.6 0 0 1 1.92 4.42 5.54 5.54 0 0 1-1.23 3.61 6.22 6.22 0 0 1-3.3 2.1l4.77 9.45h-2.58L136.85 21h-6.81v9.15Zm9-19.17h-6.63v8h6.63a5.11 5.11 0 0 0 3.43-1.11 3.67 3.67 0 0 0 1.31-2.93 3.62 3.62 0 0 0-1.31-2.92 5.15 5.15 0 0 0-3.46-1.04Z"/>
</svg>