<svg xmlns="http://www.w3.org/2000/svg" role="img" viewBox="-4.60 78.40 408.20 92.70"><path fill="#b1181e" d="M142.86184 107.21423a5.26557 5.26557 0 0 1 5.26683-5.26585l22.82164.001a8.77625 8.77625 0 0 1 3.14582 16.97l-17.681 6.51829a12.29033 12.29033 0 0 0-.99721 22.84631l33.08719 15.01862v-11.52229l-28.94377-12.79842a2.106 2.106 0 0 1 .17-3.91541l18.13722-6.31066a19.31236 19.31236 0 0 0-6.91825-37.34013h-22.82164a15.799 15.799 0 0 0-15.799 15.79854v54.42067h10.53317zM200.895 91.416h10.535v70.219h-10.535zm-145.31142-.00031L36.72972 149.886a1.75424 1.75424 0 0 1-3.33727.001L14.53713 91.41569H3.462l19.91065 61.72561a12.28727 12.28727 0 0 0 23.37393 0l19.91163-61.72561zm219.14359 70.21921l18.85383-58.47125a1.75528 1.75528 0 0 1 3.33816-.001L315.774 161.6349h11.07462l-19.911-61.72756a12.2871 12.2871 0 0 0-23.373.00195l-19.912 61.72561zM88.17971 101.94935h33.35344V91.41569H88.17971a17.55539 17.55539 0 0 0-17.5548 17.5548v35.1096a17.55415 17.55415 0 0 0 17.5548 17.55481h33.35344v-10.53172H88.17971a7.02257 7.02257 0 0 1-7.02163-7.02026v-12.37847h33.35432v-10.35831H81.15808v-12.37565a7.02151 7.02151 0 0 1 7.02163-7.02114zM271.465 91.416h-51.259v10.533h20.364v59.686h10.532v-59.686h20.363V91.416zm94.50286 70.2189a20.18822 20.18822 0 1 0 0-40.37644h-17.5548a9.65456 9.65456 0 1 1 0-19.30911h34.22962V91.41569h-34.22962a20.18822 20.18822 0 1 0 0 40.37643l17.5548.001a9.65407 9.65407 0 0 1 0 19.30813l-34.23333.001v10.53265zm22.62355-70.21921h-.91431v-4.28113h-1.521v-.85716h3.97536v.85716h-1.54005zm4.83255-1.25624l.32379-.91236 1.161-2.96969h1.06577v5.13829h-.87518v-2.51151l.019-.87618-.28576.72385-1.02666 2.66384h-.762l-1.02852-2.66384-.28478-.72385.018.87618v2.51151h-.87432V86.2774h1.06479l1.16106 2.96969z"/></svg>