<?xml version="1.0" ?>
<svg xmlns="http://www.w3.org/2000/svg" class="image" data-name="Layer 1" viewBox="0 0 205.26 41.24">
	<path d="M49.36,81.79a20.54,20.54,0,0,1-18,20.49c-.77.09-1.8.46-2.25-.15s.38-1.29.68-1.93a245.2,245.2,0,0,1,14-26.06c.62-1,1.28-1.93,1.9-2.91.34-.52.56-.41.83.06a21,21,0,0,1,2.58,6.93A19.39,19.39,0,0,1,49.36,81.79Z" fill="#5c6d7c" transform="translate(-8.07 -61.23)">
 </path>
	<path d="M8.07,80.51a19.88,19.88,0,0,1,6.57-13.75,1.55,1.55,0,0,1,.27-.24c.61-.5.73-.49.91.31.47,2.1.93,4.21,1.32,6.33,1.5,8.17,2.54,16.41,3.58,24.65.08.64.16,1.27.22,1.91,0,.34.22.78-.11,1s-.6-.1-.88-.23a19.8,19.8,0,0,1-4.26-2.67C10.86,93.91,8.07,88.05,8.07,80.51Z" fill="#5c6d7c" transform="translate(-8.07 -61.23)">
 </path>
	<path d="M28.14,88.86c-.14-1.63-.27-3.09-.4-4.55A148.75,148.75,0,0,0,24.51,63c-.05-.2-.09-.39-.15-.58-.17-.57.06-.79.62-.88a20.77,20.77,0,0,1,15.93,3.62c.8.57.79.59.33,1.57-1.69,3.58-3.67,7-5.69,10.42s-4.27,7-6.42,10.55A2.68,2.68,0,0,1,28.14,88.86Z" fill="#5c6d7c" transform="translate(-8.07 -61.23)">
 </path>
	<path d="M188.07,83.43a2.53,2.53,0,0,0,.16-1.38c0-5,0-10.07,0-15.1,0-.43-.18-1,.27-1.22a3,3,0,0,1,1.88,0c.22,0,.28.27.29.47s0,.64,0,1V86.79c-.09.48.25,1.09-.4,1.37a2.1,2.1,0,0,1-2.18-.53c-1.3-1.63-2.58-3.26-3.86-4.89l-9.2-11.68a2.47,2.47,0,0,0-.85-.85,2.65,2.65,0,0,0-.12,1.3c0,5.08,0,10.15,0,15.23,0,.46.21,1.08-.26,1.34a3.14,3.14,0,0,1-2,.07.42.42,0,0,1-.32-.45q0-.48,0-1,0-9.83,0-19.66c0-.48-.25-1.09.35-1.4a2.79,2.79,0,0,1,2.54.48q1.78,2.25,3.56,4.51l9.78,12.44A3.19,3.19,0,0,0,188.07,83.43Z" fill="#7e7f82" transform="translate(-8.07 -61.23)">
 </path>
	<path d="M82.66,76.88c0-3.36,0-6.71,0-10.07,0-1.18,0-1.2,1.21-1.2,4.72,0,9.44,0,14.16,0,.37,0,.88-.18,1,.33a2.38,2.38,0,0,1,0,1.76c-.21.42-.71.28-1.1.28-3.07,0-6.15,0-9.23,0-.84,0-1.68,0-2.52,0-.59,0-.89.19-.88.83,0,2,0,4,0,6,0,.83.47.86,1.09.86,3,0,6,0,9,0,.36,0,.72,0,1.08,0,1.1,0,1.13,0,1.13,1.17s0,1.2-1.22,1.2H86.54c-1.21,0-1.23,0-1.24,1.19,0,1.88,0,3.76,0,5.64,0,1,0,1.06,1.1,1.07,3.64,0,7.28,0,10.92,0h.72a1.26,1.26,0,0,1,1.13,1.94.57.57,0,0,1-.48.3c-.24,0-.48,0-.72,0q-7,0-14,0c-1.26,0-1.27,0-1.27-1.26Q82.66,81.92,82.66,76.88Z" fill="#7e7f82" transform="translate(-8.07 -61.23)">
 </path>
	<path d="M135,65.34a11.09,11.09,0,0,1,6.79,2c.9.61.91.67.25,1.56-.14.2-.31.37-.44.57-.28.44-.6.46-1,.15a8.8,8.8,0,0,0-2.29-1.3,8.46,8.46,0,0,0-5.27-.56,4.19,4.19,0,0,0-2.67,1.7,3.2,3.2,0,0,0,.89,4.53A8.54,8.54,0,0,0,134,75.21c1.31.34,2.64.64,3.95,1a10,10,0,0,1,3.24,1.52c3.32,2.37,2.67,7.61-.64,9.58a9.83,9.83,0,0,1-5.87,1.29,13.32,13.32,0,0,1-7.31-2.72c-1.12-.85-1.13-.93-.18-2,.11-.12.22-.23.32-.35.3-.36.59-.34.92,0a10.14,10.14,0,0,0,2.05,1.45A9.58,9.58,0,0,0,137.67,86a3.79,3.79,0,0,0,3.07-3.54,3.15,3.15,0,0,0-1.8-3,14.27,14.27,0,0,0-4-1.32,20.28,20.28,0,0,1-4.23-1.3,5.33,5.33,0,0,1-3.49-5.35,5.84,5.84,0,0,1,3.58-5.37A8.17,8.17,0,0,1,135,65.34Z" fill="#7e7f82" transform="translate(-8.07 -61.23)">
 </path>
	<path d="M68.94,84.7l2.6-6.22Q74,72.61,76.42,66.74c.17-.39.21-.93.7-1a5.32,5.32,0,0,1,2.14,0c.25,0,.24.28.17.48-.19.49-.38,1-.58,1.45q-4.23,9.87-8.46,19.73c-.16.39-.2.94-.72,1a3.78,3.78,0,0,1-1.89-.05c-.44-.16-.51-.69-.68-1.09Q64.85,82,62.61,76.76q-2.05-4.79-4.1-9.59c-.14-.33-.28-.66-.4-1s0-.54.38-.54c.59,0,1.19,0,1.79,0s.69.47.85.87q2,4.77,3.95,9.53,1.67,4.05,3.35,8.09A.91.91,0,0,0,68.94,84.7Z" fill="#7e7f82" transform="translate(-8.07 -61.23)">
 </path>
	<path d="M205.77,78.16c0,2.92,0,5.84,0,8.75,0,.44.24,1.08-.39,1.24a3.45,3.45,0,0,1-2-.06c-.19-.07-.21-.32-.21-.52,0-.36,0-.72,0-1.08V69.35c0-1.33,0-1.33-1.31-1.34h-5.27c-1,0-1-.05-1.07-1-.06-1.35,0-1.41,1.36-1.41,5,0,10.07,0,15.1,0,.42,0,1-.2,1.21.26a2.53,2.53,0,0,1,0,1.76c-.11.47-.57.36-.91.36-1.75,0-3.51,0-5.27,0-1.24,0-1.24,0-1.25,1.29Z" fill="#7e7f82" transform="translate(-8.07 -61.23)">
 </path>
	<path d="M122.72,87.66a7.76,7.76,0,0,0-.49-.68q-2.6-3.45-5.18-6.89c-.74-1-.73-1,.38-1.36a10.87,10.87,0,0,0,1.54-.64,5.91,5.91,0,0,0,3.36-5.28,6.15,6.15,0,0,0-3.14-6,9.11,9.11,0,0,0-4.6-1.17c-3,0-6,0-9,0-1.25,0-1.26,0-1.26,1.27q0,5,0,10.07c0,3.35,0,6.71,0,10.06,0,.38-.16.91.28,1.09a2.9,2.9,0,0,0,2,0c.53-.18.33-.76.33-1.17,0-2.08,0-4.15,0-6.23,0-1.16,0-1.18,1.23-1.19s2.64,0,4,0a2.16,2.16,0,0,1,2.1,1c1.67,2.33,3.43,4.61,5.15,6.91.26.36.5.75,1,.75.68,0,1.36,0,2,0C122.84,88.2,122.93,88,122.72,87.66ZM108,77.14c-1,0-1-.06-1-1,0-1.2,0-2.4,0-3.6s0-2.39,0-3.59c0-.64.2-1,.89-.94,2.32,0,4.64,0,7,0a6.74,6.74,0,0,1,1.65.3,4,4,0,0,1,3.24,3.79,4.19,4.19,0,0,1-2.88,4.48,7.07,7.07,0,0,1-2.45.52C112.23,77.15,110.12,77.15,108,77.14Z" fill="#7e7f82" transform="translate(-8.07 -61.23)">
 </path>
	<path d="M167.5,87.43c-.06-.15-.13-.3-.19-.44L161,73l-3.09-6.77c-.16-.36-.29-.71-.78-.81-1.43-.28-2,0-2.62,1.34q-4.14,9.12-8.27,18.25c-.38.83-.77,1.67-1.14,2.51-.09.2-.25.52.06.61a4.91,4.91,0,0,0,2,0c.47-.07.56-.53.72-.89.63-1.38,1.27-2.76,1.86-4.16a1.3,1.3,0,0,1,1.37-.89q5.16,0,10.32,0a1.34,1.34,0,0,1,1.42,1c.52,1.26,1.13,2.48,1.63,3.74.37.93.85,1.55,1.8,1.26.36,0,.56,0,.76,0C167.75,88.17,167.78,88.12,167.5,87.43ZM160.23,80c-2.67,0-5.35,0-8,0-.93,0-1-.14-.63-1q2.13-4.75,4.27-9.5c.1-.22.24-.41.43-.74a13.78,13.78,0,0,1,1.19,2.42q1.75,3.87,3.48,7.76C161.38,79.93,161.34,80,160.23,80Z" fill="#7e7f82" transform="translate(-8.07 -61.23)">
 </path>
	<g>
		<path d="M150.27,101.1l2.66-5.92h.92l-3.17,7h-.84l-3.17-7h.94Z" fill="#7e7f82" transform="translate(-8.07 -61.23)">
  </path>
		<path d="M155.12,99a2.72,2.72,0,0,0,2.78,2.56,2.82,2.82,0,0,0,2.4-1.17l.66.48a3.67,3.67,0,0,1-3.06,1.46,3.57,3.57,0,0,1-3.62-3.68A3.5,3.5,0,0,1,157.75,95a3.34,3.34,0,0,1,3.48,3.44c0,.15,0,.35,0,.58Zm5.27-.71a2.48,2.48,0,0,0-.75-1.85,2.56,2.56,0,0,0-1.88-.7,2.65,2.65,0,0,0-2.64,2.55Z" fill="#7e7f82" transform="translate(-8.07 -61.23)">
  </path>
		<path d="M169.45,102.16h-.86V98.32c0-1.62-.72-2.55-2.26-2.55a2.53,2.53,0,0,0-2.44,2.61v3.78H163v-7h.86V96.6A2.69,2.69,0,0,1,166.46,95c1.93,0,3,1.2,3,3.28Z" fill="#7e7f82" transform="translate(-8.07 -61.23)">
  </path>
		<path d="M176.44,101.88a2.9,2.9,0,0,1-1.59.46c-1.53,0-2.28-1-2.28-2.89V96h-1.66v-.77h1.66v-2h.86v2h2.82V96h-2.82v3.47c0,1.42.47,2.13,1.43,2.13a2.3,2.3,0,0,0,1.3-.37Z" fill="#7e7f82" transform="translate(-8.07 -61.23)">
  </path>
		<path d="M184.36,95.18v7h-.85v-1.44a2.67,2.67,0,0,1-2.56,1.62c-1.94,0-3-1.22-3-3.29V95.18h.85V99c0,1.63.73,2.58,2.26,2.58a2.53,2.53,0,0,0,2.45-2.63V95.18Z" fill="#7e7f82" transform="translate(-8.07 -61.23)">
  </path>
		<path d="M190.56,95.91a3.14,3.14,0,0,0-.69-.06,2.45,2.45,0,0,0-2.31,2.61v3.7h-.86v-7h.86v1.5A2.44,2.44,0,0,1,189.91,95a2.2,2.2,0,0,1,.65.08Z" fill="#7e7f82" transform="translate(-8.07 -61.23)">
  </path>
		<path d="M192.46,99a2.72,2.72,0,0,0,2.77,2.56,2.81,2.81,0,0,0,2.4-1.17l.66.48a3.67,3.67,0,0,1-3.06,1.46,3.56,3.56,0,0,1-3.61-3.68A3.49,3.49,0,0,1,195.09,95a3.34,3.34,0,0,1,3.48,3.44c0,.15,0,.35,0,.58Zm5.27-.71a2.56,2.56,0,0,0-.75-1.85,2.59,2.59,0,0,0-1.88-.7,2.65,2.65,0,0,0-2.64,2.55Z" fill="#7e7f82" transform="translate(-8.07 -61.23)">
  </path>
		<path d="M200.42,100.39a3,3,0,0,0,2.52,1.19,3.28,3.28,0,0,0,1.54-.33,1,1,0,0,0,.63-.89c0-.64-.44-.94-1.65-1.2l-1.28-.3c-1.46-.32-2.11-.87-2.11-1.85,0-1.22,1.22-2,2.79-2a3.82,3.82,0,0,1,1.75.4,2.82,2.82,0,0,1,1.18,1l-.67.43a2.71,2.71,0,0,0-2.27-1.07,2.75,2.75,0,0,0-1.39.33,1,1,0,0,0-.57.89c0,.63.44.91,1.63,1.18l1.28.29c1.47.34,2.14.9,2.14,1.88,0,1.22-1.31,2-3,2a4.14,4.14,0,0,1-1.92-.44,3.06,3.06,0,0,1-1.27-1.08Z" fill="#7e7f82" transform="translate(-8.07 -61.23)">
  </path>
	</g>
</svg>