<?xml version="1.0" ?>
<svg xmlns:inkscape="http://www.inkscape.org/namespaces/inkscape" xmlns:sodipodi="http://sodipodi.sourceforge.net/DTD/sodipodi-0.dtd" xmlns="http://www.w3.org/2000/svg" viewBox="0 0 2196.8495 460.63081" id="svg4148" version="1.1" inkscape:version="1.1 (c68e22c387, 2021-05-23)" sodipodi:docname="logo-name-blue.svg">
	<defs id="defs4150">
		<inkscape:path-effect lpeversion="1" is_visible="true" id="path-effect906" effect="spiro"/>
	</defs>
	<sodipodi:namedview id="base" pagecolor="#ffffff" bordercolor="#666666" borderopacity="1.0" inkscape:pageopacity="0.0" inkscape:pageshadow="2" inkscape:zoom="0.7" inkscape:cx="256.42857" inkscape:cy="430.71429" inkscape:document-units="px" inkscape:current-layer="layer1" showgrid="false" units="px" inkscape:window-width="5120" inkscape:window-height="1369" inkscape:window-x="-8" inkscape:window-y="-8" inkscape:window-maximized="1" inkscape:document-rotation="0" inkscape:pagecheckerboard="0"/>
	<g inkscape:label="Ebene 1" inkscape:groupmode="layer" id="layer1" transform="translate(0,-591.73138)">
		<g style="font-style:normal;font-weight:normal;font-size:40px;line-height:125%;font-family:sans-serif;letter-spacing:0px;word-spacing:0px;fill:#003964;fill-opacity:1;stroke:none;stroke-width:1px;stroke-linecap:butt;stroke-linejoin:miter;stroke-opacity:1" id="text4136">
			<path d="m 814.26172,744.61646 q 0,1.12915 -0.22583,2.70996 0,1.58081 -0.45166,3.61328 -0.22583,1.80664 -0.90332,4.29077 -0.45166,2.48413 -1.35498,5.64575 l -60.52246,182.24487 q -1.12915,3.83912 -3.16162,6.32325 -1.80664,2.2583 -6.32325,3.61328 -4.29077,1.35498 -11.96899,1.80664 -7.45239,0.45166 -19.64722,0.45166 -11.96899,0 -19.64721,-0.67749 -7.4524,-0.45166 -11.74317,-1.80664 -4.29077,-1.35498 -6.32324,-3.61328 -1.80664,-2.48414 -2.93579,-6.09742 L 608.53052,760.87622 q -1.35498,-4.5166 -2.2583,-8.12988 -0.67749,-3.61328 -0.90332,-5.19409 0,-1.58081 0,-2.93579 0,-2.25831 1.12915,-3.83912 1.35498,-1.80664 4.5166,-2.93579 3.16162,-1.12915 8.58154,-1.58081 5.64575,-0.45166 14.00147,-0.45166 9.25903,0 14.90478,0.67749 5.64575,0.45166 8.80737,1.58081 3.38746,0.90332 4.74244,2.93579 1.35498,1.80664 2.2583,4.51661 l 45.8435,147.9187 1.35498,5.64575 1.35498,-5.64575 45.16602,-147.9187 q 0.67749,-2.70997 2.03247,-4.51661 1.58081,-2.03247 4.74243,-2.93579 3.16162,-1.12915 8.35571,-1.58081 5.41993,-0.67749 14.00147,-0.67749 8.35571,0 13.5498,0.45166 5.41993,0.45166 8.35572,1.58081 2.93579,1.12915 4.06494,2.93579 1.12915,1.58081 1.12915,3.83912 z" style="font-style:normal;font-variant:normal;font-weight:bold;font-stretch:normal;font-size:462.5px;font-family:Calibri;-inkscape-font-specification:'Calibri Bold';stroke:none;fill:#003964;fill-opacity:1" id="path4138"/>
			<path d="m 1029.0261,839.69092 q 0,10.38818 -4.7424,15.35644 -4.5166,4.96826 -12.6465,4.96826 H 889.01147 q 0,12.87232 2.9358,23.48633 3.16162,10.38819 9.71069,17.84058 6.7749,7.22656 17.16308,11.06567 10.61402,3.83911 25.29297,3.83911 14.90479,0 26.19629,-2.03247 11.29151,-2.2583 19.42139,-4.74243 8.35571,-2.70996 13.77561,-4.74243 5.4199,-2.2583 8.8074,-2.2583 2.0325,0 3.3874,0.90332 1.355,0.67749 2.2583,2.70996 0.9034,2.03247 1.1292,5.87158 0.4517,3.61328 0.4517,9.25904 0,4.96826 -0.2259,8.58154 -0.2258,3.38745 -0.6775,5.87158 -0.4516,2.48413 -1.3549,4.29077 -0.9034,1.58081 -2.4842,3.16162 -1.355,1.58081 -7.904,4.29078 -6.5491,2.70996 -16.71145,5.41992 -10.16235,2.48413 -23.2605,4.29077 -13.09814,2.03247 -28.00293,2.03247 -26.87378,0 -47.19848,-6.7749 -20.09888,-6.77491 -33.64869,-20.55054 -13.5498,-13.77563 -20.3247,-34.77783 -6.54908,-21.0022 -6.54908,-49.23096 0,-26.87378 7.00074,-48.32764 7.00073,-21.67968 20.3247,-36.58447 13.32398,-15.13061 32.29371,-23.03467 19.19555,-7.90405 43.13354,-7.90405 25.29297,0 43.13355,7.45239 18.0664,7.4524 29.58369,20.77637 11.5174,13.09814 16.9373,31.16455 5.4199,18.06641 5.4199,39.29443 z m -55.10252,-16.25977 q 0.67749,-23.93799 -9.71069,-37.48779 -10.16235,-13.77564 -31.61621,-13.77564 -10.83984,0 -18.96973,4.06495 -7.90405,4.06494 -13.32397,11.06567 -5.19409,6.7749 -8.12988,16.25977 -2.70997,9.25903 -3.16163,19.87304 z" style="font-style:normal;font-variant:normal;font-weight:bold;font-stretch:normal;font-size:462.5px;font-family:Calibri;-inkscape-font-specification:'Calibri Bold';stroke:none;fill:#003964;fill-opacity:1" id="path4140"/>
			<path d="m 1205.3994,763.58618 q 0,8.12988 -0.4516,13.32398 -0.4517,5.19409 -1.355,8.12988 -0.9033,2.93579 -2.4842,4.06494 -1.3549,1.12915 -3.6132,1.12915 -1.8067,0 -4.065,-0.67749 -2.2583,-0.90332 -5.1941,-1.80664 -2.7099,-0.90332 -6.0974,-1.58081 -3.3874,-0.90332 -7.4524,-0.90332 -4.7424,0 -9.4848,2.03247 -4.7425,1.80664 -9.9366,5.87158 -4.9682,4.06494 -10.614,10.83985 -5.4199,6.7749 -11.7431,16.71142 v 125.56152 q 0,2.25831 -1.355,4.06495 -1.355,1.58081 -4.7425,2.70996 -3.1616,1.12915 -8.5815,1.58081 -5.4199,0.67749 -13.7756,0.67749 -8.3557,0 -13.7757,-0.67749 -5.4199,-0.45166 -8.8073,-1.58081 -3.1617,-1.12915 -4.5166,-2.70996 -1.355,-1.80664 -1.355,-4.06495 V 744.84229 q 0,-2.25831 1.1291,-3.83912 1.1292,-1.80664 4.065,-2.93579 2.9358,-1.12915 7.4524,-1.58081 4.7424,-0.67749 11.7431,-0.67749 7.2266,0 11.969,0.67749 4.7425,0.45166 7.2266,1.58081 2.7099,1.12915 3.8391,2.93579 1.1291,1.58081 1.1291,3.83912 v 25.06713 q 7.9041,-11.2915 14.9048,-18.51806 7.0008,-7.4524 13.324,-11.74317 6.3232,-4.29077 12.6465,-5.87158 6.3232,-1.80664 12.6465,-1.80664 2.9358,0 6.3232,0.45166 3.3875,0.22583 7.0007,1.12915 3.6133,0.67749 6.3233,1.80664 2.71,0.90332 3.8391,2.03247 1.355,1.12915 1.8066,2.48413 0.6775,1.35498 1.1292,3.83911 0.4517,2.25831 0.6775,7.00074 0.2258,4.74243 0.2258,12.87231 z" style="font-style:normal;font-variant:normal;font-weight:bold;font-stretch:normal;font-size:462.5px;font-family:Calibri;-inkscape-font-specification:'Calibri Bold';stroke:none;fill:#003964;fill-opacity:1" id="path4142"/>
			<path d="m 1376.8044,889.37354 q 0,17.16308 -6.549,30.26123 -6.3233,13.09814 -18.0664,21.90551 -11.7432,8.80738 -27.7771,13.09815 -16.034,4.5166 -34.7779,4.5166 -11.2915,0 -21.6797,-1.80664 -10.1623,-1.58081 -18.2922,-4.06494 -8.1299,-2.70996 -13.5498,-5.41992 -5.4199,-2.70997 -7.904,-4.96827 -2.4842,-2.48413 -3.8392,-7.45239 -1.3549,-5.19409 -1.3549,-15.13061 0,-6.54908 0.4516,-10.38819 0.4517,-4.06494 1.355,-6.32324 0.9033,-2.48413 2.2583,-3.16162 1.355,-0.90332 3.3875,-0.90332 2.4841,0 7.2265,2.93579 4.9683,2.70996 12.1948,6.09741 7.2266,3.38745 16.7115,6.32324 9.7107,2.93579 21.9055,2.93579 7.6782,0 13.5498,-1.58081 6.0974,-1.58081 10.3882,-4.5166 4.5166,-2.93579 6.7749,-7.45239 2.2583,-4.5166 2.2583,-10.38818 0,-6.77491 -4.2908,-11.51734 -4.0649,-4.96826 -11.0657,-8.58154 -6.7749,-3.61328 -15.5822,-6.7749 -8.5816,-3.16162 -17.8406,-7.00074 -9.0332,-3.83911 -17.8406,-8.80737 -8.5815,-4.96826 -15.5823,-12.19482 -6.7749,-7.22656 -11.0656,-17.38892 -4.065,-10.16235 -4.065,-24.38965 0,-14.45312 5.6458,-26.42212 5.6457,-12.19482 16.2597,-20.77636 10.614,-8.58155 25.7447,-13.32398 15.3564,-4.74243 34.3261,-4.74243 9.4849,0 18.2923,1.35498 9.0332,1.35498 16.2597,3.38745 7.2266,2.03247 12.1949,4.5166 4.9682,2.2583 7.0007,4.06495 2.2583,1.58081 3.1616,3.38745 0.9033,1.58081 1.355,4.06494 0.4516,2.2583 0.6775,5.87158 0.4516,3.38745 0.4516,8.58154 0,6.09741 -0.4516,9.93653 -0.2259,3.83911 -1.1292,6.09741 -0.6775,2.2583 -2.0324,3.16162 -1.355,0.67749 -3.1617,0.67749 -2.0324,0 -6.3232,-2.2583 -4.2908,-2.48413 -10.8398,-5.19409 -6.3233,-2.70996 -14.9048,-4.96826 -8.3557,-2.48414 -19.1956,-2.48414 -7.6782,0 -13.324,1.58082 -5.6457,1.58081 -9.259,4.5166 -3.6133,2.93579 -5.4199,7.00073 -1.8067,3.83911 -1.8067,8.35571 0,7.00073 4.2908,11.74317 4.2908,4.74243 11.2915,8.35571 7.0007,3.61328 15.8081,6.7749 9.0332,3.16162 18.0664,7.00073 9.2591,3.61328 18.0664,8.58155 9.0332,4.96826 16.034,12.19482 7.0007,7.22656 11.2915,17.38892 4.2907,9.93652 4.2907,23.71216 z" style="font-style:normal;font-variant:normal;font-weight:bold;font-stretch:normal;font-size:462.5px;font-family:Calibri;-inkscape-font-specification:'Calibri Bold';stroke:none;fill:#003964;fill-opacity:1" id="path4144"/>
			<path d="m 1476.1697,946.28271 q 0,2.25831 -1.355,4.06495 -1.355,1.58081 -4.7424,2.70996 -3.1617,1.12915 -8.5816,1.58081 -5.4199,0.67749 -13.7756,0.67749 -8.3557,0 -13.7756,-0.67749 -5.42,-0.45166 -8.8074,-1.58081 -3.1616,-1.12915 -4.5166,-2.70996 -1.355,-1.80664 -1.355,-4.06495 V 745.29395 q 0,-2.25831 1.355,-3.83912 1.355,-1.80664 4.5166,-2.93579 3.3874,-1.35498 8.8074,-2.03247 5.4199,-0.67749 13.7756,-0.67749 8.3557,0 13.7756,0.67749 5.4199,0.67749 8.5816,2.03247 3.3874,1.12915 4.7424,2.93579 1.355,1.58081 1.355,3.83912 z m 4.2907,-269.64111 q 0,17.16309 -7.0007,23.71216 -7.0007,6.54907 -25.9704,6.54907 -19.1956,0 -25.9705,-6.32324 -6.5491,-6.32324 -6.5491,-22.80884 0,-17.16308 6.7749,-23.71216 7.0008,-6.7749 26.1963,-6.7749 18.9697,0 25.7446,6.54907 6.7749,6.32325 6.7749,22.80884 z" style="font-style:normal;font-variant:normal;font-weight:bold;font-stretch:normal;font-size:462.5px;font-family:Calibri;-inkscape-font-specification:'Calibri Bold';stroke:none;fill:#003964;fill-opacity:1" id="path4146"/>
			<path d="m 1736.7776,843.53003 q 0,25.74463 -6.7749,46.97266 -6.7749,21.22802 -20.5506,36.58447 -13.7756,15.35644 -34.552,23.71216 -20.7763,8.35571 -48.5534,8.35571 -26.8738,0 -46.7468,-7.45239 -19.8731,-7.4524 -32.9712,-21.67969 -13.0982,-14.2273 -19.4214,-35.00366 -6.3233,-20.77637 -6.3233,-47.42432 0,-25.74463 6.7749,-46.97266 7.0008,-21.45385 20.7764,-36.58447 13.7756,-15.35644 34.3262,-23.71216 20.7763,-8.35571 48.5534,-8.35571 27.0997,0 46.9727,7.45239 19.873,7.22657 32.7454,21.45386 13.0981,14.2273 19.4213,35.00366 6.3233,20.77637 6.3233,47.65015 z m -58.49,2.2583 q 0,-14.90479 -2.4841,-27.32544 -2.2583,-12.64648 -7.9041,-21.90552 -5.6457,-9.25903 -15.1306,-14.45312 -9.259,-5.19409 -23.4863,-5.19409 -12.6465,0 -22.1314,4.74243 -9.4848,4.5166 -15.5823,13.5498 -6.0974,8.80738 -9.259,21.45386 -2.9358,12.42065 -2.9358,28.45459 0,14.90478 2.4842,27.55127 2.4841,12.42065 7.904,21.67969 5.6458,9.25903 15.1306,14.45312 9.4849,4.96826 23.4864,4.96826 12.8723,0 22.3571,-4.5166 9.4849,-4.74243 15.5823,-13.5498 6.0974,-8.80738 9.0332,-21.22803 2.9358,-12.64648 2.9358,-28.68042 z" style="font-style:normal;font-variant:normal;font-weight:bold;font-stretch:normal;font-size:462.5px;font-family:Calibri;-inkscape-font-specification:'Calibri Bold';stroke:none;fill:#003964;fill-opacity:1" id="path4148"/>
			<path d="m 1828.9163,933.63623 q 0,13.32398 -4.2908,17.61475 -4.2908,4.29077 -15.3565,4.29077 -10.614,0 -14.9047,-4.06494 -4.065,-4.29077 -4.065,-17.38892 0,-13.32397 4.2908,-17.61475 4.2908,-4.29077 15.3564,-4.29077 10.614,0 14.679,4.29077 4.2908,4.06495 4.2908,17.16309 z" style="font-style:normal;font-variant:normal;font-weight:300;font-stretch:normal;font-size:462.5px;font-family:Calibri;-inkscape-font-specification:'Calibri Light';stroke:none;fill:#003964;fill-opacity:1" id="path4150"/>
			<path d="m 1930.5398,949.44434 q 0,1.35498 -0.6775,2.48413 -0.6775,1.12915 -2.2583,1.80664 -1.355,0.67749 -4.0649,1.12915 -2.4842,0.45166 -6.5491,0.45166 -3.8391,0 -6.5491,-0.45166 -2.4841,-0.45166 -4.0649,-1.12915 -1.5808,-0.67749 -2.2583,-1.80664 -0.4517,-1.12915 -0.4517,-2.48413 V 745.06812 q 0,-1.35499 0.4517,-2.48414 0.6775,-1.12915 2.2583,-1.80664 1.5808,-0.90332 4.0649,-1.12915 2.71,-0.45166 6.5491,-0.45166 4.0649,0 6.5491,0.45166 2.7099,0.22583 4.0649,1.12915 1.5808,0.67749 2.2583,1.80664 0.6775,1.12915 0.6775,2.48414 z m 4.0649,-273.2544 q 0,10.83985 -3.8391,14.67896 -3.8391,3.83911 -14.0014,3.83911 -9.9366,0 -13.7757,-3.61328 -3.6133,-3.83911 -3.6133,-14.67896 0,-10.83984 3.8392,-14.67895 3.8391,-3.83911 14.0014,-3.83911 9.9365,0 13.5498,3.83911 3.8391,3.61328 3.8391,14.45312 z" style="font-style:normal;font-variant:normal;font-weight:300;font-stretch:normal;font-size:462.5px;font-family:Calibri;-inkscape-font-specification:'Calibri Light';stroke:none;fill:#003964;fill-opacity:1" id="path4152"/>
			<path d="m 2186.6311,845.11084 q 0,24.38965 -6.3232,44.94019 -6.3233,20.55053 -18.9698,35.68115 -12.4206,15.13061 -31.1645,23.71216 -18.7439,8.35571 -43.5852,8.35571 -23.938,0 -42.0044,-7.45239 -17.8406,-7.67823 -30.0354,-21.67969 -11.969,-14.2273 -18.0664,-34.32617 -5.8716,-20.09888 -5.8716,-45.39185 0,-24.38965 6.0974,-44.94018 6.3233,-20.55054 18.7439,-35.45533 12.6465,-15.13061 31.3904,-23.48632 18.7439,-8.35572 43.811,-8.35572 23.938,0 41.7786,7.45239 18.0664,7.4524 30.0354,21.67969 11.969,14.00147 18.0664,34.10034 6.0974,20.09888 6.0974,45.16602 z m -28.4546,2.48413 q 0,-17.38892 -3.3874,-33.19702 -3.3875,-15.80811 -11.2915,-27.7771 -7.9041,-12.19482 -21.2281,-19.19556 -13.3239,-7.22656 -33.197,-7.22656 -18.2922,0 -31.6162,6.54907 -13.324,6.54907 -21.9055,18.29224 -8.3557,11.51733 -12.4207,27.32544 -4.0649,15.8081 -4.0649,34.10034 0,17.61475 3.3874,33.64868 3.3875,15.80811 11.2915,27.7771 7.9041,11.969 21.2281,18.96973 13.3239,7.00073 33.197,7.00073 18.2922,0 31.6162,-6.54907 13.324,-6.54907 21.6797,-18.06641 8.5815,-11.51733 12.6465,-27.32544 4.0649,-15.8081 4.0649,-34.32617 z" style="font-style:normal;font-variant:normal;font-weight:300;font-stretch:normal;font-size:462.5px;font-family:Calibri;-inkscape-font-specification:'Calibri Light';stroke:none;fill:#003964;fill-opacity:1" id="path4154"/>
		</g>
		<path sodipodi:nodetypes="sssssssssssssssssssssssssscccccccsaaasccccsssssccccsssscccsaassssssssssssssssssssssssssssssss" inkscape:original-d="m 190.61571,654.05153 c -1.16767,0.249 -27.43413,10.3014 -45.7268,16.467 -18.29267,6.1657 -5.26041,3.419 -7.42808,4.7513 -2.16767,1.3324 -10.249,7.4177 -15.375,11.125 -5.126,3.7074 -12.249,10.9177 -18.37501,16.375 -6.126003,5.4574 -17.577283,23.0553 -26.411613,34.471 -8.83433,11.4157 -12.00405,31.28 -17.96339,47.029 -5.95933,15.749 1.58434,55.3344 2.375,83 0.79067,27.6657 24.16767,45.1677 36.25,67.75 12.082343,22.5824 35.501013,28.001 53.250013,42 17.749,13.999 27.08433,10.001 40.625,15 13.54067,4.99897 54.91767,-0.4156 82.37501,-0.625 27.45729,-0.2093 35.00099,-15.6656 52.49999,-23.5 17.499,-7.8343 31.251,-31.4156 46.875,-47.125 15.624,-15.7093 14.3343,-29.249 21.5,-43.875 7.16565,-14.626 5.91765,-27.8323 8.875,-41.75 2.9573,-13.9176 0.0843,-12.749 0.125,-19.125 0.0405,-6.376 -2.4157,-18.249 -3.625,-27.375 -1.20935,-9.126 -9.6657,-28.5823 -14.5,-42.875 -4.83435,-14.2926 -2.58235,-4.999 -3.875,-7.5 -1.2927,-2.501 -7.58235,-10.999 -11.375,-16.5 -3.7927,-5.501 -5.749,-4.8323 -8.625,-7.25 -2.876,-2.4176 -6.624,-1.5406 -10.5,-2.375 -3.73555,-0.8041 -14.60155,5.4231 -9.44715,2.5299 5.8907,-3.3065 -4.4736,3.3766 -6.05285,4.9701 -1.6011,1.6156 -2.41035,3.6011 -3.25,6 l -2.625,7.5 -5.75,16.125 -7.375,21.375 -5.625,16.375 -17.875,51.625 -38.66143,109.3327 c -0.55796,2.1787 -2.36622,4.028 -3.37706,5.5228 -1.03669,1.5605 -2.64799,2.8889 -4.18791,3.9405 -4.31952,2.9496 -8.59135,4.8584 -13.35723,5.7273 -4.14307,0.7554 -8.55672,0.5403 -12.62164,-0.5606 -4.16408,-1.1278 -8.24714,-3.1414 -11.45222,-6.0292 -3.66501,-3.3021 -7.76243,-10.9578 -8.21751,-12.3085 l -15.625,-46.375 -11.75,-34.25 -20.5,-60.25 -9.625,-28 -11.85723,-34.9252 c -0.4538,-1.3367 -0.93375,-2.449 -0.94826,-3.6927 -0.12987,-11.1332 14.99406,-18.7196 19.1909,-24.155 4.66567,-6.0427 -7.5477,-17.2587 7.18997,-0.2929 4.51326,5.1956 20.12416,15.0555 22.19606,22.4257 l 2.03033,7.2222 4.57323,15.3018 13.5,46.625 21.25,71.3661 2.875,9.875 c 0.95799,3.2905 3.14499,3.1879 4.18566,4.6036 1.04067,1.4157 1.52367,-0.1026 2.81434,0.021 1.29067,0.124 3.64107,-2.6217 4.25,-4.625 l 8.625,-28.375 9.875,-31.75 22.75,-75.75 11.75,-38.875 c 0.71165,-2.3546 0.1545,-0.422 0.25,-0.625 1.6117,-3.4273 2.9073,-7.157 5.43375,-9.9785 12.35185,-13.7945 29.2197,-27.1949 45.56625,-31.7715 16.374,-4.5844 46.79265,9.751 59.625,15.125 12.8323,5.374 19.3343,24.0843 29,36.125 9.66565,12.0406 10.001,26.751 15,40.125 4.999,13.374 5.751,38.5843 8.625,57.875 2.874,19.2906 -3.749,41.0843 -5.625,61.625 -1.876,20.5406 -13.83235,35.0843 -20.75,52.625 -6.9177,17.5406 -27.4157,34.5843 -41.125,51.875 -13.70935,17.29057 -10.749,9.5843 -16.125,14.37497 -5.376,4.7906 -43.1657,24.5843 -64.75,36.875 -21.58435,12.2906 -59.83233,8.751 -89.75,13.125 -29.91767,4.374 -44.83233,-10.499 -67.25,-15.75 -22.41767,-5.251 -41.16567,-25.5824 -61.750013,-38.37497 -20.58433,-12.7927 -16.83233,-16.999 -25.25,-25.5 -8.41766,-8.501 -28.91566,-51.499 -43.375,-77.25 -14.4593299,-25.751 -7.249,-54.4157 -10.8749999,-81.625 -3.626,-27.2094 15.4176699,-57.3324 23.1249999,-86 7.70734,-28.6677 26.001,-37.0824 39,-55.625 12.999,-18.5427 42.584343,-31.749 63.875013,-47.625 21.29067,-15.876 29.8135,-10.2282 44.6875,-15.4375 14.874,-5.2094 20.39683,-3.8115 34.0625,-6.0625 13.66567,-2.251 16.79267,-0.2907 21.75,0 4.95733,0.2906 6.33433,2.5843 9.5,3.875 3.16567,1.2906 7.251,7.251 10.875,10.875 3.624,3.624 1.91767,9.001 2.875,13.5 0.95733,4.499 -4.04067,9.2093 -6,13.875 -1.95933,4.6656 -7.374,4.5426 -11.125,6.75 -3.751,2.2073 -3.08233,0.5843 -4.625,0.875 -1.54267,0.2906 -4.41567,0.501 -6.625,0.75 -2.20933,0.249 -5.66567,0.501 -8.5,0.75 -2.83433,0.249 -10.58233,1.501 -15.875,2.25 -5.29267,0.749 -10.55244,1.7826 -11.72012,2.0316 z" inkscape:path-effect="#path-effect906" id="path904" d="m 190.61571,654.05153 c -16.11926,2.44552 -31.74927,8.07415 -45.7268,16.467 -2.52012,1.51321 -4.98631,3.11466 -7.42808,4.7513 -5.25601,3.52295 -10.40279,7.2117 -15.375,11.125 -6.45119,5.07731 -12.60753,10.53264 -18.37501,16.375 -10.197547,10.32994 -19.180438,21.88498 -26.411613,34.471 -8.392955,14.60812 -14.394593,30.56381 -17.96339,47.029 -5.920528,27.31527 -5.08376,56.06409 2.375,83 6.890813,24.88488 19.400325,48.18399 36.25,67.75 14.842953,17.23579 33.032003,31.57802 53.250013,42 12.86295,6.63059 26.53864,11.68418 40.625,15 26.98812,6.3528 55.51053,6.23185 82.37501,-0.625 18.66848,-4.76492 36.51146,-12.74902 52.49999,-23.5 18.50312,-12.44183 34.49301,-28.58178 46.875,-47.125 9.06947,-13.58241 16.20746,-28.42424 21.5,-43.875 4.62347,-13.49751 7.85535,-27.51906 8.875,-41.75 0.45591,-6.36302 0.46946,-12.75498 0.125,-19.125 -0.49749,-9.20007 -1.74171,-18.35602 -3.625,-27.375 -3.09153,-14.8052 -7.91497,-29.25924 -14.5,-42.875 -1.22532,-2.53358 -2.51134,-5.03812 -3.875,-7.5 -3.24338,-5.85544 -6.94014,-11.48625 -11.375,-16.5 -2.50228,-2.82891 -5.28302,-5.49065 -8.625,-7.25 -3.21085,-1.69031 -6.87323,-2.49014 -10.5,-2.375 -3.28811,0.10439 -6.55732,0.95782 -9.44715,2.5299 -2.30666,1.25483 -4.36336,2.9599 -6.05285,4.9701 -1.47376,1.75351 -2.5011,3.83531 -3.25,6 -0.86599,2.50314 -1.741,5.00316 -2.625,7.5 -1.90454,5.37931 -3.85081,10.7438 -5.75,16.125 -2.50847,7.10754 -4.93464,14.24379 -7.375,21.375 -1.86864,5.46052 -3.74563,10.91817 -5.625,16.375 -5.93003,17.21812 -11.88369,34.42811 -17.875,51.625 -12.71775,36.50384 -25.60507,72.9486 -38.66143,109.3327 -0.84598,1.9936 -1.98802,3.86127 -3.37706,5.5228 -1.23207,1.47376 -2.65496,2.7829 -4.18791,3.9405 -3.90311,2.94742 -8.53537,4.90802 -13.35723,5.7273 -4.18508,0.71108 -8.52879,0.56594 -12.62164,-0.5606 -4.18831,-1.15281 -8.06166,-3.3135 -11.45222,-6.0292 -1.95996,-1.56985 -3.76496,-3.36038 -5.14933,-5.45547 -1.38436,-2.09509 -2.27677,-4.46985 -3.06818,-6.85303 -5.14092,-15.48094 -10.34932,-30.93947 -15.625,-46.375 -3.90361,-11.42114 -7.84404,-22.82966 -11.75,-34.25 -6.86515,-20.07249 -13.62374,-40.18132 -20.5,-60.25 -3.19903,-9.33653 -6.42351,-18.66431 -9.625,-28 -3.98813,-11.62957 -7.94056,-23.27137 -11.85723,-34.9252 -0.40547,-1.20645 -0.75871,-2.43413 -0.94826,-3.6927 -0.84784,-5.62939 0.99675,-11.53669 4.63115,-15.91847 3.6344,-4.38178 8.95331,-7.24828 14.55975,-8.23653 2.36927,-0.41763 4.7945,-0.51551 7.18997,-0.2929 5.65273,0.52531 11.16182,3.01665 15.01198,7.18864 1.92509,2.086 3.42924,4.5404 4.55764,7.14502 1.1284,2.60462 1.87924,5.35361 2.62644,8.09204 0.65828,2.41255 1.33508,4.82004 2.03033,7.2222 1.48003,5.11368 3.04352,10.20276 4.57323,15.3018 4.64931,15.49776 8.98641,31.08717 13.5,46.625 6.92402,23.83564 14.26304,47.54883 21.25,71.3661 0.96506,3.2897 1.92339,6.58138 2.875,9.875 0.30488,1.05522 0.68023,2.12042 1.39715,2.95256 0.71692,0.83214 1.72036,1.39516 2.78851,1.65104 0.92036,0.22048 1.89142,0.23049 2.81434,0.021 1.08119,-0.24541 2.09528,-0.81452 2.8211,-1.6526 0.72582,-0.83808 1.11159,-1.91009 1.4289,-2.9724 2.82933,-9.47214 5.70437,-18.93062 8.625,-28.375 3.27449,-10.58866 6.60627,-21.15956 9.875,-31.75 7.77538,-25.19164 15.1934,-50.49187 22.75,-75.75 3.8801,-12.96935 7.79679,-25.92775 11.75,-38.875 0.0656,-0.21493 0.1513,-0.42311 0.25,-0.625 1.66426,-3.40405 3.42292,-6.76697 5.43375,-9.9785 10.10561,-16.13985 26.87988,-28.10576 45.56625,-31.7715 20.74197,-4.06899 42.89349,2.20824 59.625,15.125 12.31977,9.51089 21.81359,22.3196 29,36.125 6.60691,12.69216 11.36343,26.28601 15,40.125 4.96699,18.90192 7.87666,38.3457 8.625,57.875 0.79225,20.67536 -0.84799,41.49348 -5.625,61.625 -4.36838,18.40948 -11.35776,36.20009 -20.75,52.625 -10.99038,19.21971 -25.20876,36.48477 -41.125,51.875 -5.17806,5.00694 -10.54144,9.82463 -16.125,14.37497 -19.34258,15.7633 -41.32766,28.2721 -64.75,36.875 -28.58938,10.5007 -59.36079,15.1533 -89.75,13.125 -23.07387,-1.5401 -45.88049,-6.9115 -67.25,-15.75 -22.49162,-9.3026 -43.36315,-22.4271 -61.750013,-38.37497 -9.045249,-7.84541 -17.499272,-16.37349 -25.25,-25.5 -19.235607,-22.65001 -34.089952,-49.02201 -43.375,-77.25 -8.6270303,-26.22751 -12.4432497,-54.05965 -10.8749999,-81.625 1.6978843,-29.84395 9.7158439,-59.28411 23.1249999,-86 10.193224,-20.30859 23.466625,-39.04022 39,-55.625 18.26064,-19.49665 39.772123,-36.10889 63.875013,-47.625 14.24705,-6.8071 29.32074,-11.80737 44.6875,-15.4375 11.22867,-2.65258 22.62048,-4.57944 34.0625,-6.0625 7.23137,-0.9373 14.65639,-1.68879 21.75,0 3.33962,0.79507 6.54709,2.12413 9.5,3.875 4.46299,2.64624 8.38854,6.32106 10.875,10.875 2.23621,4.09562 3.25506,8.84917 2.875,13.5 -0.41791,5.11392 -2.54219,10.08418 -6,13.875 -2.96305,3.24841 -6.8776,5.61361 -11.125,6.75 -1.51668,0.40579 -3.07007,0.65782 -4.625,0.875 -2.20128,0.30745 -4.4117,0.54636 -6.625,0.75 -2.83241,0.2606 -5.67009,0.46351 -8.5,0.75 -5.31832,0.53841 -10.60221,1.3713 -15.875,2.25 -3.91106,0.65177 -7.81788,1.32899 -11.72012,2.0316 z" style="fill:#003964;fill-opacity:1;stroke:none;stroke-width:1.3;stroke-linecap:butt;stroke-linejoin:miter;stroke-miterlimit:4;stroke-dasharray:none;stroke-opacity:1"/>
	</g>
</svg>