<?xml version="1.0" ?>
<!-- Generator: Adobe Illustrator 27.5.0, SVG Export Plug-In . SVG Version: 6.00 Build 0)  -->
<svg xmlns="http://www.w3.org/2000/svg" version="1.2" baseProfile="tiny-ps" id="Calque_1" viewBox="0 0 500 500" xml:space="preserve">
	<rect fill="#FFFFFF" width="500" height="500"/>
	<path fill="#91BF4E" d="M210.53,149.84c0,16.68-13.52,30.2-30.2,30.2c-16.68,0-30.2-13.52-30.2-30.2c0-16.68,13.52-30.2,30.2-30.2  C197.01,119.64,210.53,133.16,210.53,149.84z"/>
	<path fill="#009345" d="M279.81,149.84c0,16.68-13.52,30.2-30.2,30.2c-16.68,0-30.2-13.52-30.2-30.2c0-16.67,13.52-30.2,30.2-30.2  C266.29,119.64,279.81,133.17,279.81,149.84z"/>
	<path fill="#37B34A" d="M349.09,149.84c0,16.68-13.52,30.2-30.2,30.2c-16.68,0-30.2-13.52-30.2-30.2c0-16.67,13.52-30.2,30.2-30.2  C335.57,119.64,349.09,133.17,349.09,149.84z"/>
	<path fill="#37B34A" d="M175.89,210.24c0,16.68-13.52,30.2-30.2,30.2c-16.68,0-30.2-13.52-30.2-30.2c0-16.67,13.52-30.2,30.2-30.2  C162.37,180.04,175.89,193.57,175.89,210.24z"/>
	<path fill="#D6DE23" d="M245.17,210.24c0,16.68-13.53,30.2-30.21,30.2c-16.67,0-30.2-13.52-30.2-30.2c0-16.67,13.53-30.2,30.2-30.2  C231.65,180.04,245.17,193.57,245.17,210.24z"/>
	<path fill="#37B34A" d="M314.45,210.24c0,16.68-13.52,30.2-30.2,30.2c-16.68,0-30.21-13.52-30.21-30.2  c0-16.67,13.53-30.2,30.21-30.2C300.93,180.04,314.45,193.57,314.45,210.24z"/>
	<path fill="#91BF4E" d="M383.73,210.24c0,16.68-13.51,30.2-30.2,30.2c-16.68,0-30.2-13.52-30.2-30.2c0-16.67,13.52-30.2,30.2-30.2  C370.21,180.04,383.73,193.57,383.73,210.24z"/>
	<path fill="#009345" d="M210.53,270.64c0,16.69-13.52,30.2-30.2,30.2c-16.68,0-30.2-13.51-30.2-30.2c0-16.68,13.52-30.2,30.2-30.2  C197.01,240.44,210.53,253.97,210.53,270.64z"/>
	<path fill="#91BF4E" d="M279.81,270.64c0,16.69-13.52,30.2-30.2,30.2c-16.68,0-30.2-13.51-30.2-30.2c0-16.68,13.52-30.2,30.2-30.2  C266.29,240.44,279.81,253.97,279.81,270.64z"/>
	<path fill="#D6DE23" d="M349.09,270.64c0,16.69-13.52,30.2-30.2,30.2c-16.68,0-30.2-13.51-30.2-30.2c0-16.68,13.52-30.2,30.2-30.2  C335.57,240.44,349.09,253.97,349.09,270.64z"/>
	<path fill="#37B34A" d="M244.26,331.04c0,16.69-13.52,30.21-30.2,30.21c-16.68,0-30.2-13.52-30.2-30.21  c0-16.67,13.52-30.19,30.2-30.19C230.75,300.85,244.26,314.37,244.26,331.04z"/>
	<path fill="#009345" d="M313.55,331.04c0,16.69-13.53,30.21-30.21,30.21c-16.67,0-30.2-13.52-30.2-30.21  c0-16.67,13.53-30.19,30.2-30.19C300.02,300.85,313.55,314.37,313.55,331.04z"/>
	<path fill="#91BF4E" d="M279.81,391.45c0,16.68-13.52,30.21-30.2,30.21c-16.68,0-30.2-13.53-30.2-30.21  c0-16.67,13.52-30.2,30.2-30.2C266.29,361.26,279.81,374.78,279.81,391.45z"/>
	<path fill="#009345" d="M307.36,23.31v-0.04c-0.04,0-0.09,0-0.14,0c-0.01,0-0.03-0.01-0.04-0.01v0.01  c-35.91,0.12-65.1,35.62-65.1,79.24h15.04c0-34.64,21.59-62.88,48.46-64.09c95.15,25.28,161.43,111.34,161.43,210.11  c0,119.89-97.53,217.42-217.41,217.42c-119.88,0-217.42-97.53-217.42-217.42c0-102.1,72.37-191.54,172.09-212.69l-3.12-14.72  C94.54,43.74,17.15,139.38,17.15,248.53C17.15,376.72,121.43,481,249.61,481c128.17,0,232.45-104.28,232.45-232.47  C482.07,142.2,410.24,49.62,307.36,23.31z"/>
</svg>