<?xml version="1.0" ?>
<svg xmlns="http://www.w3.org/2000/svg"  viewBox="0 0 193 193">
	
	

	
	<g id="surface1">
		
		

		
		<path style=" stroke:none;fill-rule:evenodd;fill:rgb(100%,100%,100%);fill-opacity:1;" d="M 0 0.242188 L 192.757813 0.242188 L 192.757813 193 L 0 193 L 0 0.242188 "/>
		
		

		
		<path style=" stroke:none;fill-rule:evenodd;fill:rgb(13.699341%,12.199402%,12.5%);fill-opacity:1;" d="M 90.601563 52.914063 L 59.710938 78.546875 L 69.042969 104.445313 L 82.648438 113.117188 C 93.164063 110.554688 103.484375 107.335938 113.867188 102.800781 C 121.953125 86.699219 122.019531 71.976563 104.46875 60.40625 L 90.601563 52.914063 "/>
		
		

		
		<path style=" stroke:none;fill-rule:evenodd;fill:rgb(100%,94.898987%,0%);fill-opacity:1;" d="M 90.734375 46.078125 L 81.925781 52.191406 L 74.828125 58.042969 L 69.175781 63.496094 L 64.640625 68.6875 L 60.039063 74.867188 L 56.554688 79.863281 L 58.726563 87.09375 L 61.683594 94.320313 L 66.546875 103.328125 L 71.933594 107.730469 L 81.398438 114.761719 L 86.722656 118.574219 L 93.625 116.863281 L 101.511719 113.84375 L 108.148438 110.03125 L 113.800781 105.363281 L 118.535156 99.382813 L 119.125 98.460938 L 120.507813 92.742188 L 120.964844 85.121094 L 120.570313 80.714844 L 118.730469 73.027344 L 116.695313 68.558594 L 113.867188 64.8125 L 108.871094 61.921875 L 104.273438 59.949219 L 103.8125 59.683594 L 99.738281 54.359375 L 93.757813 48.578125 Z M 90.273438 54.164063 L 81.859375 60.011719 L 75.289063 65.601563 L 71.082031 69.804688 L 67.136719 74.210938 L 61.8125 80.847656 L 64.046875 88.011719 L 67.730469 96.621094 L 69.898438 100.632813 L 79.097656 107.925781 L 87.445313 114.5 L 93.953125 112.921875 L 100.261719 110.621094 L 106.640625 107.203125 L 111.238281 103.71875 L 114.394531 100.5 L 117.089844 96.753906 L 118.339844 91.296875 L 118.796875 84.066406 L 117.878906 76.574219 L 116.234375 71.582031 L 114.132813 67.636719 L 113.078125 66.324219 L 109.726563 64.089844 L 105.71875 62.445313 L 109.398438 69.148438 L 111.765625 75.195313 L 113.40625 80.847656 L 114.722656 86.632813 L 108.871094 91.429688 L 101.117188 96.359375 L 95.332031 99.054688 L 88.761719 101.289063 L 80.941406 103.128906 L 76.273438 96.097656 L 74.171875 91.824219 L 71.933594 85.910156 L 70.226563 78.152344 L 69.765625 75.0625 L 74.828125 70.726563 L 81.398438 65.929688 L 86.855469 62.839844 L 91.71875 60.933594 L 95.597656 59.949219 L 93.230469 57.054688 L 91.128906 56.203125 L 89.484375 56.792969 L 76.863281 66.191406 L 69.832031 71.582031 L 77.195313 65.46875 L 81.269531 61.984375 L 86.527344 57.84375 L 89.089844 56.070313 L 90.734375 55.28125 L 91.585938 55.347656 Z M 96.582031 63.957031 L 90.074219 66.191406 L 84.6875 69.148438 L 79.230469 73.15625 L 74.695313 76.96875 L 76.339844 83.871094 L 77.195313 86.304688 L 78.902344 90.113281 L 82.910156 96.6875 L 91.585938 94.058594 L 87.316406 93.992188 L 83.503906 87.222656 L 81.53125 83.082031 L 79.296875 77.300781 L 82.847656 74.933594 L 85.148438 73.75 L 87.578125 72.765625 L 91.0625 71.910156 L 93.953125 71.449219 L 96.714844 71.316406 L 97.042969 72.632813 L 98.421875 78.285156 L 100 84.332031 L 95.070313 88.671875 L 90.667969 88.011719 L 86.65625 79.535156 L 86.527344 79.203125 L 94.941406 75.984375 L 96.453125 82.492188 L 92.902344 84.132813 L 96.320313 82.425781 L 94.675781 76.445313 L 87.382813 79.601563 L 91.191406 87.222656 L 94.941406 87.550781 L 98.75 83.9375 L 95.597656 72.894531 L 91.0625 73.617188 L 88.105469 74.539063 L 85.410156 75.785156 L 81.664063 78.089844 L 84.949219 85.316406 L 88.5625 91.429688 L 94.941406 90.902344 L 98.949219 90.246094 L 103.089844 87.617188 L 99.082031 72.894531 Z M 101.578125 68.621094 L 103.222656 75.460938 L 104.796875 81.835938 L 105.71875 85.515625 L 107.753906 84.066406 L 106.640625 80.257813 L 105.585938 77.167969 L 104.273438 74.210938 L 103.285156 71.910156 L 102.105469 69.804688 L 101.578125 68.621094 "/>
		
		

		
		<path style=" stroke:none;fill-rule:evenodd;fill:rgb(95.698547%,47.499084%,24.699402%);fill-opacity:1;" d="M 65.101563 64.941406 L 64.046875 69.476563 L 62.667969 77.429688 L 62.011719 83.214844 L 61.75 88.996094 L 62.011719 93.335938 L 62.40625 95.570313 L 63.65625 99.90625 L 65.296875 102.867188 L 67.335938 105.296875 L 70.820313 108.648438 L 74.695313 111.410156 L 78.835938 113.84375 L 81.730469 115.023438 L 86.132813 115.289063 L 89.484375 115.15625 L 93.886719 114.761719 L 97.371094 114.039063 L 100.984375 112.722656 L 103.613281 110.882813 L 104.863281 109.570313 L 105.785156 108.125 L 106.835938 106.019531 L 107.558594 104.046875 L 107.691406 103.589844 L 116.5625 101.878906 L 117.21875 92.085938 L 117.21875 84.792969 L 116.824219 76.050781 L 115.90625 68.03125 L 114.65625 60.078125 L 113.738281 55.214844 L 107.425781 53.242188 L 101.839844 52.125 L 95.597656 51.339844 L 91.0625 51.339844 L 85.277344 51.929688 L 81.464844 53.570313 L 76.207031 56.464844 L 71.214844 59.617188 L 67.53125 62.3125 Z M 85.34375 56.136719 L 79.824219 58.699219 L 74.367188 61.722656 L 70.03125 64.546875 L 67.792969 66.453125 L 66.480469 71.382813 L 65.296875 77.429688 L 64.3125 84.003906 L 63.984375 89.0625 L 64.113281 93.007813 L 64.773438 97.015625 L 65.625 99.644531 L 66.675781 101.683594 L 68.914063 104.640625 L 71.148438 106.742188 L 75.023438 109.898438 L 78.96875 112.394531 L 82.320313 114.039063 L 86.988281 114.300781 L 95.070313 113.777344 L 98.75 113.054688 L 101.183594 112 L 103.417969 110.554688 L 104.863281 109.175781 L 106.113281 107.136719 L 106.96875 105.296875 L 107.625 103.589844 L 99.015625 104.773438 L 93.097656 105.035156 L 86.65625 104.507813 L 80.414063 102.929688 L 75.089844 100.960938 L 74.5 90.511719 L 74.367188 84.265625 L 75.089844 77.890625 L 76.078125 74.078125 L 77.457031 70.859375 L 79.757813 67.175781 L 81.203125 65.402344 L 83.242188 63.957031 L 87.777344 62.640625 L 92.640625 62.117188 L 96.910156 62.378906 L 101.578125 63.761719 L 104.140625 65.074219 L 106.375 67.046875 L 107.359375 68.359375 L 108.609375 76.773438 L 108.9375 85.121094 L 108.9375 90.3125 L 108.742188 94.714844 L 108.675781 96.554688 L 111.171875 96.160156 L 111.699219 87.945313 L 111.699219 80.320313 L 111.238281 71.976563 L 110.777344 66.78125 L 109.726563 59.160156 L 104.667969 57.648438 L 99.867188 56.464844 L 94.214844 55.742188 L 89.746094 55.675781 L 86.921875 55.871094 Z M 80.21875 81.769531 L 82.320313 78.089844 L 84.421875 75.589844 L 87.445313 73.882813 L 99.277344 74.996094 L 99.34375 82.621094 L 98.949219 87.816406 L 97.898438 92.679688 L 95.203125 93.664063 L 91.71875 94.058594 L 88.957031 93.402344 L 87.710938 92.613281 L 86.722656 91.691406 L 85.933594 90.707031 L 85.277344 89.0625 L 85.148438 86.699219 L 85.410156 84.921875 L 86.328125 83.675781 L 87.777344 82.425781 L 89.550781 81.636719 L 91.128906 81.570313 L 92.574219 82.097656 L 91.457031 81.769531 L 90.535156 81.703125 L 89.550781 81.769531 L 88.761719 82.03125 L 87.445313 82.886719 L 86.394531 84.003906 L 85.605469 85.1875 L 85.539063 88.144531 L 86 89.917969 L 87.25 91.429688 L 89.15625 92.742188 L 91.390625 93.269531 L 94.214844 92.875 L 97.171875 91.953125 L 98.027344 86.960938 L 98.09375 79.863281 L 97.898438 76.378906 L 96.714844 76.445313 L 87.578125 75.917969 L 86.066406 76.773438 L 84.03125 79.203125 L 82.453125 82.425781 L 81.464844 84.988281 L 82.386719 95.042969 L 85.804688 96.949219 L 89.550781 97.476563 L 97.503906 97.671875 L 101.710938 96.226563 L 105.128906 95.375 L 104.929688 81.835938 L 103.417969 70.660156 L 101.25 69.019531 L 97.964844 67.835938 L 94.808594 67.507813 L 90.46875 67.769531 L 86.59375 68.753906 L 84.816406 69.609375 L 82.847656 72.5 L 81.203125 76.3125 L 80.21875 81.769531 "/>
		
		

		
		<path style=" stroke:none;fill-rule:evenodd;fill:rgb(98.799133%,69.398499%,19.198608%);fill-opacity:1;" d="M 87.316406 60.277344 C 85.410156 58.960938 83.699219 58.105469 81.335938 58.042969 C 77.324219 57.910156 73.316406 58.105469 69.371094 58.171875 C 69.175781 58.960938 68.914063 59.488281 68.714844 60.472656 C 68.191406 62.90625 67.992188 65.335938 67.992188 67.835938 C 67.992188 68.6875 67.792969 68.296875 68.058594 69.410156 C 68.386719 70.464844 68.976563 72.371094 69.636719 74.144531 C 71.277344 79.007813 73.183594 84.265625 75.945313 88.671875 C 77.257813 90.839844 79.492188 92.875 81.398438 94.519531 C 82.78125 95.832031 84.621094 97.082031 85.738281 97.9375 C 86.789063 98.789063 87.183594 99.121094 87.972656 99.578125 C 91.128906 101.289063 94.347656 101.089844 97.765625 100.960938 C 98.09375 100.960938 98.09375 100.960938 98.683594 100.300781 C 99.277344 99.644531 103.023438 94.914063 104.339844 93.203125 C 105.652344 91.496094 105.851563 91.496094 106.574219 90.113281 C 107.296875 88.734375 108.085938 86.566406 108.675781 84.921875 C 110.648438 79.335938 111.632813 72.765625 110.84375 66.78125 C 110.582031 65.007813 110.449219 62.707031 109.070313 61.460938 C 105.191406 57.84375 98.488281 57.054688 93.820313 59.289063 L 89.417969 61.394531 C 90.46875 65.207031 91.457031 68.953125 92.507813 72.765625 L 88.828125 61.789063 C 83.371094 65.007813 79.429688 70.464844 78.507813 76.839844 C 78.179688 78.8125 78.113281 80.847656 78.179688 82.820313 C 78.246094 83.871094 78.96875 87.550781 78.507813 86.304688 C 78.046875 85.054688 77.917969 83.28125 77.785156 81.769531 C 77.257813 75.589844 78.835938 69.476563 82.714844 64.679688 C 84.160156 62.90625 85.605469 61.65625 87.316406 60.277344 Z M 67.664063 55.542969 C 71.015625 55.742188 75.617188 56.070313 77.652344 56.203125 C 80.609375 56.398438 83.042969 56.464844 85.804688 57.84375 C 86.65625 58.304688 87.445313 59.027344 88.234375 59.683594 C 92.308594 57.121094 96.386719 54.492188 101.445313 54.886719 C 105.585938 55.148438 108.808594 56.332031 111.960938 58.960938 C 113.34375 60.144531 114.132813 62.839844 114.523438 64.480469 C 116.367188 72.5 115.445313 81.046875 113.144531 88.867188 C 112.488281 91.101563 112.09375 92.941406 110.910156 94.585938 L 101.511719 108.058594 C 99.472656 108.125 97.238281 108.386719 95.269531 108.253906 C 92.375 108.058594 88.628906 107.203125 86.066406 105.824219 C 84.882813 105.230469 84.226563 104.445313 83.175781 103.523438 C 79.363281 100.300781 76.207031 97.015625 73.183594 93.007813 C 72.332031 91.890625 72.527344 92.285156 71.871094 90.96875 C 69.042969 85.121094 67.269531 79.074219 65.625 72.828125 C 65.230469 71.253906 64.96875 70.988281 64.902344 69.675781 C 64.835938 68.359375 65.035156 66.519531 65.230469 64.941406 C 65.429688 63.363281 65.625 61.65625 66.152344 60.144531 L 67.664063 55.542969 "/>
		
		

		
		<path style=" stroke:none;fill-rule:evenodd;fill:rgb(13.699341%,12.199402%,12.5%);fill-opacity:1;" d="M 18.304688 135.859375 C 18.699219 136.253906 19.222656 135.859375 19.816406 136.1875 C 20.144531 140.460938 18.433594 146.375 24.941406 146.046875 C 24.679688 140.722656 23.167969 133.757813 28.097656 130.074219 L 36.511719 139.34375 L 47.75 126 C 49.390625 126.789063 49.917969 126.789063 50.378906 131.390625 C 41.042969 138.355469 52.21875 145.191406 57.871094 153.933594 C 56.886719 141.050781 49.851563 122.1875 52.480469 118.507813 C 42.425781 118.246094 46.039063 130.535156 36.179688 134.152344 C 30.921875 129.550781 33.617188 126.265625 26.453125 121.792969 C 22.578125 123.371094 18.433594 127.578125 18.304688 135.859375 Z M 161.386719 170.167969 L 162.964844 169.773438 L 163.226563 171.417969 Z M 178.804688 163.59375 C 179.460938 166.488281 177.6875 169.839844 177.488281 172.273438 C 177.03125 175.164063 177.292969 176.542969 177.621094 177.792969 C 179.199219 181.605469 180.972656 179.371094 182.878906 177.464844 C 182.289063 177.726563 179.066406 176.28125 179.394531 174.636719 C 179.527344 171.351563 180.511719 170.035156 181.039063 167.011719 C 180.972656 164.382813 180.445313 164.84375 180.578125 163.003906 C 180.382813 163.925781 179.132813 164.382813 178.804688 163.59375 Z M 160.664063 165.238281 C 162.242188 168.261719 153.105469 176.214844 155.800781 180.09375 C 157.179688 179.433594 158.230469 176.675781 159.480469 175.492188 C 160.269531 175.03125 161.253906 174.113281 163.886719 174.375 C 165.855469 176.214844 165.59375 179.632813 169.601563 180.945313 C 169.078125 177.988281 168.746094 173.125 163.425781 163.859375 C 163.097656 164.910156 160.335938 165.765625 160.664063 165.238281 Z M 135.820313 178.910156 C 146.730469 168.917969 148.046875 167.078125 145.351563 161.558594 C 144.628906 167.144531 140.75 172.402344 138.449219 175.097656 C 138.382813 171.480469 137.332031 167.011719 137.003906 165.632813 C 135.558594 169.707031 136.082031 175.492188 135.820313 178.910156 Z M 125.894531 161.03125 C 121.753906 163.265625 123.59375 163.464844 124.382813 169.90625 C 125.039063 172.664063 123.53125 176.742188 121.621094 181.605469 C 133.191406 169.050781 124.316406 166.816406 125.894531 161.03125 Z M 88.628906 163.203125 C 96.648438 162.476563 103.484375 158.335938 110.449219 157.8125 L 111.171875 158.730469 C 109.53125 158.796875 103.550781 161.097656 101.773438 162.609375 C 101.972656 162.609375 101.773438 162.609375 103.222656 162.609375 C 107.230469 170.5625 102.167969 178.382813 100.789063 180.488281 C 100.59375 180.488281 99.804688 180.882813 99.472656 180.882813 C 99.34375 174.769531 104.339844 170.628906 99.933594 162.414063 C 95.992188 163.265625 91.457031 166.488281 87.25 166.554688 C 86.855469 165.304688 88.695313 165.042969 88.628906 163.203125 Z M 73.316406 174.902344 C 72.59375 179.765625 71.871094 182 67.136719 184.496094 C 78.3125 183.445313 75.683594 174.375 77.457031 171.679688 C 73.449219 172.007813 71.214844 168 71.738281 165.960938 C 76.929688 163.792969 76.207031 161.953125 79.824219 161.492188 C 75.945313 160.441406 73.316406 164.976563 68.191406 165.105469 C 66.21875 168.128906 67.007813 170.035156 69.503906 171.878906 C 70.359375 172.074219 72.789063 172.007813 73.316406 174.902344 Z M 58.199219 166.882813 C 52.414063 168.128906 49.128906 165.765625 44.921875 171.417969 C 42.6875 174.441406 43.214844 176.609375 43.609375 179.039063 C 47.289063 180.550781 45.25 183.707031 52.546875 183.511719 C 49.71875 182 47.816406 178.382813 46.761719 177.136719 C 48.539063 174.902344 51.824219 177.003906 53.46875 174.242188 C 51.757813 175.097656 49.917969 175.097656 47.15625 174.375 C 46.828125 165.832031 55.703125 172.140625 58.199219 166.882813 Z M 18.371094 166.949219 C 14.820313 167.933594 16.921875 173.390625 15.019531 173.78125 C 15.804688 175.492188 15.609375 176.347656 14.425781 177.859375 C 13.507813 179.039063 12.058594 179.960938 11.796875 182.722656 C 13.308594 181.210938 16.464844 179.5 18.894531 174.308594 C 20.933594 174.242188 23.757813 173.390625 25.402344 171.546875 C 23.101563 173.324219 19.554688 174.046875 19.488281 172.207031 C 20.539063 167.011719 22.378906 167.539063 30.199219 164.515625 Z M 30.792969 64.941406 C 23.101563 68.097656 27.636719 79.992188 23.429688 80.980469 C 25.207031 84.988281 24.679688 87.09375 22.183594 90.113281 C 20.011719 92.613281 16.464844 94.847656 16.003906 101.550781 C 19.554688 97.542969 27.046875 94.058594 31.777344 82.097656 C 36.445313 82.03125 43.148438 80.257813 46.566406 75.722656 C 41.503906 79.730469 33.945313 81.375 33.617188 77.363281 C 35.394531 65.664063 39.402344 66.519531 58.066406 59.816406 Z M 134.636719 66.257813 C 135.492188 72.105469 132.203125 77.957031 131.480469 83.015625 C 130.824219 88.734375 131.152344 91.953125 132.335938 93.992188 C 134.898438 101.550781 138.449219 96.886719 142.917969 92.875 C 141.339844 93.597656 135.230469 90.445313 135.230469 87.222656 C 135.6875 80.980469 137.988281 78.875 138.449219 72.960938 C 139.039063 67.570313 137.527344 68.953125 138.253906 65.140625 C 137.464844 65.992188 134.769531 65.992188 134.636719 66.257813 Z M 157.050781 62.578125 C 157.507813 69.28125 154.355469 75.328125 153.171875 77.691406 C 151.398438 81.308594 145.21875 88.40625 152.644531 95.109375 C 152.910156 90.511719 156.261719 83.410156 156.65625 81.503906 C 165.003906 82.425781 160.730469 94.980469 172.230469 97.871094 C 170.457031 90.246094 164.277344 85.054688 160.859375 80.847656 C 184.257813 71.582031 181.894531 72.894531 183.273438 66.71875 L 158.363281 79.796875 C 154.15625 70.527344 161.453125 71.054688 161.78125 61.460938 Z M 9.695313 45.027344 C 24.285156 25.375 26.585938 21.761719 22.640625 9.734375 C 21 21.433594 16.203125 31.621094 12.914063 37.011719 C 12.785156 30.304688 11.402344 20.972656 10.679688 18.804688 C 9.039063 26.101563 9.496094 37.074219 9.695313 45.027344 Z M 40.453125 9.140625 C 35.195313 12.953125 37.363281 13.28125 38.746094 24.785156 C 39.335938 29.121094 37.5625 36.550781 34.867188 44.765625 C 49.523438 23.074219 38.808594 18.671875 40.453125 9.140625 Z M 57.542969 12.296875 C 58.199219 17.949219 56.292969 23.601563 55.503906 28.269531 C 55.042969 33.722656 55.4375 36.550781 56.097656 38.980469 C 58.066406 46.015625 60.367188 41.546875 63.128906 37.796875 C 62.144531 38.257813 58.066406 35.496094 58.332031 32.738281 C 58.398438 26.558594 59.644531 24.71875 60.367188 18.476563 C 60.761719 13.414063 59.382813 14.664063 59.90625 11.246094 C 59.316406 12.492188 57.871094 13.480469 57.542969 12.296875 Z M 74.433594 19.59375 C 71.277344 21.171875 69.964844 22.089844 72.265625 27.941406 C 75.484375 39.441406 70.621094 51.273438 65.757813 62.117188 C 73.054688 52.980469 78.902344 39.703125 75.15625 26.035156 C 74.960938 25.113281 74.039063 20.710938 74.433594 19.59375 Z M 177.359375 11.246094 C 171.96875 15.058594 174.070313 15.320313 175.585938 26.820313 C 176.042969 31.09375 174.597656 38.652344 171.574219 46.867188 C 185.902344 24.785156 175.453125 20.839844 177.359375 11.246094 Z M 154.878906 15.910156 C 154.816406 21.105469 155.078125 24.257813 153.695313 31.488281 L 157.378906 22.945313 C 157.839844 19.328125 157.574219 18.671875 157.773438 15.320313 C 157.507813 15.320313 155.734375 15.648438 154.878906 15.910156 Z M 150.609375 8.746094 C 156.390625 10.457031 157.640625 11.246094 162.308594 16.371094 C 161.585938 18.210938 160.664063 23.074219 159.480469 25.441406 C 158.628906 27.152344 153.304688 34.183594 150.738281 41.871094 C 150.542969 42.398438 148.964844 39.902344 148.964844 40.953125 C 153.039063 23.207031 150.804688 14.859375 151.660156 12.492188 C 149.492188 12.558594 147.652344 13.28125 145.089844 14.464844 C 145.089844 14.859375 148.570313 9.011719 150.609375 8.746094 Z M 117.484375 43.582031 C 116.695313 40.886719 117.21875 33.261719 120.046875 28.597656 C 121.164063 30.765625 126.027344 35.496094 133.453125 39.375 C 128.328125 31.421875 136.9375 24.324219 132.535156 15.058594 L 130.363281 34.839844 C 123.59375 32.078125 122.214844 26.691406 121.425781 19.65625 C 119.324219 20.25 117.746094 17.160156 115.445313 20.316406 C 117.21875 20.054688 116.367188 25.3125 115.90625 30.832031 C 114.921875 36.613281 112.488281 42.003906 117.484375 43.582031 Z M 93.363281 24.324219 L 95.070313 24.324219 L 95.597656 26.492188 Z M 92.835938 16.242188 C 94.480469 20.710938 84.359375 32.804688 87.382813 39.574219 C 88.894531 37.996094 90.207031 33.722656 91.390625 32.476563 C 92.507813 31.292969 93.492188 29.976563 96.515625 30.503906 C 98.75 33.328125 98.554688 38.785156 102.761719 40.757813 C 101.90625 35.957031 101.710938 28.660156 95.859375 14.269531 C 95.597656 15.78125 92.507813 17.09375 92.835938 16.242188 Z M 63.785156 132.640625 C 66.085938 138.488281 57.738281 147.820313 68.78125 152.949219 C 75.15625 152.816406 79.890625 149.859375 83.503906 148.875 C 83.765625 135.726563 87.117188 131.390625 85.933594 124.359375 C 79.691406 131.523438 85.671875 147.363281 74.105469 150.515625 C 72.265625 149.398438 66.28125 147.363281 67.007813 144.339844 C 71.738281 141.710938 67.464844 135.792969 63.785156 132.640625 Z M 104.140625 138.355469 C 102.828125 145.851563 101.710938 149.464844 94.214844 153.277344 C 111.765625 152.160156 107.558594 137.109375 110.582031 133.363281 C 104.140625 133.492188 100.921875 127.117188 101.445313 123.636719 C 109.792969 120.480469 108.609375 117.523438 114.394531 116.929688 C 108.28125 115.417969 103.878906 122.1875 96.253906 122.320313 C 92.375 127.25 94.085938 130.535156 97.632813 133.035156 C 99.472656 133.558594 102.5625 133.492188 104.140625 138.355469 Z M 134.835938 113.511719 C 126.75 117.71875 129.90625 117.652344 132.269531 129.878906 C 133.257813 134.546875 130.496094 142.234375 126.355469 150.84375 C 147.714844 127.839844 132.46875 123.503906 134.835938 113.511719 Z M 175.847656 116.800781 C 171.707031 118.773438 157.179688 123.636719 151.003906 130.796875 C 151.132813 136.648438 150.9375 139.34375 152.578125 145.71875 C 157.574219 148.414063 168.746094 148.9375 172.035156 147.03125 C 168.683594 147.097656 168.421875 148.808594 157.902344 144.140625 C 155.144531 136.84375 157.574219 128.5 168.15625 122.386719 C 171.113281 119.363281 174.203125 124.09375 175.847656 116.800781 "/>
		
		

	
	</g>
	
	


</svg>
