<?xml version="1.0" ?>
<svg xmlns="http://www.w3.org/2000/svg" viewBox="0 0 45.95541 45.95541">
	<defs id="defs10894">
		<style type="text/css">
			.st0{fill:#15234A;}
			.st1{fill:#BBBDBF;}
			.st2{fill:#314C81;}
			.st3{fill:#77797C;}
		</style>
	</defs>
	<g transform="translate(-.28 6.89781)">
		<g id="layer1" transform="translate(368.44132,-263.78704)">
			<g id="g11154" transform="matrix(0.26458333,0,0,0.26458333,-368.2032,263.91933)">
				<g id="g11108" name="logo">
					<path id="path11088" d="M 65.2,120.2 C 65.2,120.2 106.9,3.3 107.1,2.6 C 107.9,0.9 108.7,0.5 110.4,0.5 L 136.7,0.5 L 92.0,120.2 L 65.2,120.2" class="st0" style="fill:#15234a"/>
					<path id="path11094" d="M 4.1,52.0 C 3.6,52.2 0.6,53.2 0.1,53.4 L 1.5,55.2 C 1.5,55.2 10.5,66.7 10.7,67.0 C 12.9,69.8 16.2,70.2 20.2,68.6 C 38.4,61.3 98.0,36.4 173.9,46.2 C 173.9,46.2 101.9,14.3 4.1,52.0 L 4.1,52.0" class="st1" style="fill:#bbbdbf"/>
					<path id="path11098" d="M 92.1,120.2 L 65.3,120.2 L 20.5,0.5 L 46.8,0.5 C 48.6,0.5 49.3,0.9 50.1,2.6 C 50.4,3.3 92.1,120.2 92.1,120.2" class="st2" style="fill:#314c81"/>
				</g>
			</g>
		</g>
	</g>
</svg>