<?xml version="1.0" ?>
<!-- Created with Inkscape (http://www.inkscape.org/) -->
<svg xmlns="http://www.w3.org/2000/svg" xmlns:xlink="http://www.w3.org/1999/xlink" viewBox="0 0 56.867743 15.563767">
	<defs id="defs9627">
		<linearGradient id="linearGradient9036" spreadMethod="pad" gradientTransform="matrix(11.85254,0,0,11.85254,133.48947,172.33456)" gradientUnits="userSpaceOnUse" y2="0" x2="1" y1="0" x1="0">
			<stop id="stop9028" offset="0" stop-opacity="1" stop-color="#702090"/>
			<stop id="stop9030" offset="0.07" stop-opacity="1" stop-color="#702090"/>
			<stop id="stop9032" offset="0.75" stop-opacity="1" stop-color="#f36717"/>
			<stop id="stop9034" offset="1" stop-opacity="1" stop-color="#f36717"/>
		</linearGradient>
		<linearGradient xlink:href="#linearGradient9036" id="linearGradient9668" gradientUnits="userSpaceOnUse" gradientTransform="matrix(11.85254,0,0,11.85254,133.48947,172.33456)" x1="0" y1="0" x2="1" y2="0" spreadMethod="pad"/>
		<linearGradient xlink:href="#linearGradient9036" id="linearGradient9670" gradientUnits="userSpaceOnUse" gradientTransform="matrix(11.85254,0,0,11.85254,133.48947,172.33456)" x1="0" y1="0" x2="1" y2="0" spreadMethod="pad"/>
	</defs>
	<g id="layer1" transform="translate(-89.003331,-166.48924)">
		<g id="g9658" transform="translate(0.26458505,-0.26458739)">
			<path d="m 133.96777,167.02891 c -0.23778,0.0194 -0.46285,0.20002 -0.47731,0.43815 v 0 0.0727 c 0.0123,0.19896 0.12735,0.36159 0.32491,0.41134 v 0 c 0.14287,0.11006 1.1684,1.05727 1.61219,5.79155 v 0 l 0.0254,0.27834 c 0.0727,0.80116 0.14781,1.62948 0.375,2.29658 v 0 c 0.37183,1.0915 1.0467,1.33315 1.57092,1.33315 v 0 c 0.0215,0 0.043,-3.4e-4 0.0639,-0.001 v 0 c 0.64487,-0.0236 1.14793,-0.44168 1.60549,-1.07209 v 0 c 0.42192,0.18838 0.82973,0.22401 1.21532,0.10478 v 0 c 1.01952,-0.31609 1.60161,-1.59915 2.27577,-3.08469 v 0 c 0.629,-1.38713 1.34055,-2.95558 2.43134,-3.60292 v 0 c 0.22401,-0.0617 0.37606,-0.28011 0.34784,-0.51859 v 0 c -0.0307,-0.26317 -0.26811,-0.4512 -0.53234,-0.42051 v 0 c -2.96757,0.3482 -4.37304,3.03777 -5.50192,5.19854 v 0 c -0.14147,0.27093 -0.28117,0.53869 -0.41981,0.79163 v 0 c -0.18803,-0.52564 -0.24236,-1.3141 -0.29951,-2.13325 v 0 c -0.1143,-1.65558 -0.24412,-3.53201 -1.50565,-4.64079 v 0 c -0.94756,-0.83255 -1.90606,-1.25342 -2.85221,-1.25342 v 0 c -0.0868,0 -0.17286,0.004 -0.25929,0.0106 m 2.44122,6.90527 -0.0257,-0.28117 c -0.22579,-2.40841 -0.62796,-4.22028 -1.19523,-5.38621 v 0 c -0.018,-0.0374 -0.0363,-0.0741 -0.0543,-0.10936 v 0 c 0.42792,0.1651 0.86642,0.4438 1.31162,0.83538 v 0 c 0.96485,0.84808 1.08056,2.5153 1.18216,3.98603 v 0 c 0.0822,1.18569 0.16052,2.31811 0.68051,3.01555 v 0 c -0.29563,0.41451 -0.58773,0.68509 -0.88053,0.69603 v 0 c -0.008,3.5e-4 -0.0148,3.5e-4 -0.0226,3.5e-4 v 0 c -0.69109,0 -0.85443,-1.19591 -0.99589,-2.7566 m 3.18135,1.8168 c 0.18697,-0.32949 0.37288,-0.68474 0.5648,-1.05198 v 0 c 0.73095,-1.39912 1.52752,-2.92418 2.73297,-3.85128 v 0 c -0.4692,0.73555 -0.84808,1.57092 -1.20298,2.35338 v 0 c -0.52987,1.16805 -1.07773,2.37596 -1.68592,2.56435 v 0 c -0.03,0.01 -0.0854,0.0261 -0.16863,0.0261 v 0 c -0.0635,0 -0.14323,-0.01 -0.24024,-0.0406" id="path9038" fill="url(#linearGradient9668)" stroke="none" stroke-width="0.35277778"/>
			<path id="path9050" d="m 136.00118,181.85309 0.078,-0.82656 c 0.003,-0.0346 0.0229,-0.0536 0.0579,-0.0536 h 0.0847 c 0.0321,0 0.0522,0.0134 0.0656,0.0444 l 0.266,0.64206 0.26493,-0.64206 c 0.0134,-0.031 0.0335,-0.0444 0.066,-0.0444 h 0.0843 c 0.0349,0 0.055,0.019 0.0579,0.0536 l 0.078,0.82656 c 0.004,0.0388 -0.0173,0.0603 -0.055,0.0603 h -0.0631 c -0.0349,0 -0.0565,-0.0187 -0.0593,-0.0536 l -0.0512,-0.59654 -0.24307,0.59513 c -0.012,0.0296 -0.0321,0.0445 -0.0656,0.0445 h -0.0286 c -0.0335,0 -0.0536,-0.0148 -0.0656,-0.0445 l -0.24341,-0.59513 -0.0508,0.59654 c -0.003,0.0349 -0.0243,0.0536 -0.0593,0.0536 h -0.0632 c -0.0377,0 -0.0589,-0.0215 -0.055,-0.0603 m -0.79763,-0.12241 c -0.0148,-0.0349 0.004,-0.0603 0.0402,-0.0684 l 0.0469,-0.012 c 0.0349,-0.008 0.0526,0.005 0.0713,0.0374 0.031,0.054 0.0967,0.0928 0.18274,0.0928 0.10759,0 0.17356,-0.0497 0.17356,-0.121 0,-0.0589 -0.0473,-0.0991 -0.121,-0.1263 l -0.13053,-0.0455 c -0.14499,-0.0469 -0.23495,-0.14252 -0.23495,-0.25788 0,-0.16792 0.14499,-0.27164 0.31821,-0.27164 0.14675,0 0.25153,0.0684 0.29845,0.17463 0.0162,0.0339 0,0.0621 -0.0363,0.0713 l -0.043,0.012 c -0.0335,0.0109 -0.055,-0.002 -0.0723,-0.0335 -0.0272,-0.0508 -0.0765,-0.0751 -0.14534,-0.0751 -0.0765,0 -0.14358,0.0402 -0.14358,0.11289 0,0.0363 0.0148,0.0804 0.10865,0.11536 l 0.13194,0.0487 c 0.17075,0.055 0.24166,0.15698 0.24307,0.26599 0,0.17604 -0.145,0.27834 -0.34396,0.27834 -0.1718,0 -0.29422,-0.0794 -0.34396,-0.1979" fill="#712090" fill-opacity="1" fill-rule="nonzero" stroke="none" stroke-width="0.35277778"/>
			<path id="path9054" d="m 130.70041,179.89824 v -3.3207 h -0.77117 c -0.1644,0 -0.25294,-0.1016 -0.25294,-0.26599 v -0.4946 c 0,-0.16474 0.0885,-0.25329 0.25294,-0.25329 h 0.79657 l 0.22754,-1.45768 c 0.0377,-0.24095 0.1771,-0.36759 0.40464,-0.36759 h 0.26529 c 0.24024,0 0.37959,0.15204 0.37959,0.39299 v 1.43228 h 1.73213 c 0.1644,0 0.25259,0.0885 0.25259,0.25329 v 0.4946 c 0,0.16439 -0.0882,0.26599 -0.25259,0.26599 h -1.73213 v 3.3969 c 0,0.68439 0.32843,0.95074 0.73307,0.95074 0.39193,0 0.74612,-0.22825 0.74612,-0.68475 0,-0.0504 0,-0.13934 -0.0254,-0.24059 -0.0254,-0.17745 0.0505,-0.29175 0.22754,-0.29175 h 0.58173 c 0.1517,0 0.26529,0.0635 0.29069,0.22825 0.0504,0.21555 0.0504,0.45614 0.0504,0.46884 0,0.95074 -0.68227,1.64783 -1.89653,1.64783 -1.01142,0 -2.01013,-0.51965 -2.01013,-2.15477 m -7.43585,1.55892 v -5.43736 c 0,-0.29139 0.17709,-0.45614 0.46778,-0.45614 h 0.37959 c 0.29069,0 0.45509,0.16475 0.45509,0.45614 v 0.78599 c 0.27798,-0.88724 1.08726,-1.38148 2.11137,-1.38148 1.40335,0 2.42746,0.91229 2.42746,2.90231 v 3.13054 c 0,0.29175 -0.17674,0.4565 -0.46778,0.4565 h -0.37923 c -0.29069,0 -0.45509,-0.16475 -0.45509,-0.4565 v -3.11784 c 0,-1.30564 -0.59443,-1.77448 -1.26435,-1.77448 -0.65758,0 -1.97238,0.4438 -1.97238,2.37032 v 2.522 c 0,0.29175 -0.1644,0.4565 -0.45509,0.4565 h -0.37959 c -0.29069,0 -0.46778,-0.16475 -0.46778,-0.4565 m -2.94393,-2.72485 c -0.0123,-1.25483 -0.85972,-2.18017 -2.11138,-2.18017 -1.27705,0 -2.01048,1.00154 -2.01048,2.18017 0,1.19133 0.73343,2.18017 2.01048,2.18017 1.25166,0 2.09903,-0.92569 2.11138,-2.18017 m -5.42396,0 c 0,-1.82527 1.25166,-3.308 3.13549,-3.308 0.84702,0 1.66899,0.2914 2.26307,1.14053 v -0.54504 c 0,-0.29139 0.17745,-0.45614 0.46814,-0.45614 h 0.37923 c 0.29069,0 0.45509,0.16475 0.45509,0.45614 v 5.43736 c 0,0.29175 -0.1644,0.4565 -0.45509,0.4565 h -0.37923 c -0.29069,0 -0.46814,-0.16475 -0.46814,-0.4565 v -0.54468 c -0.59408,0.84878 -1.41605,1.14053 -2.26307,1.14053 -1.88383,0 -3.13549,-1.49578 -3.13549,-3.3207 m -2.60703,2.72485 v -8.25111 c 0,-0.2914 0.1771,-0.45615 0.46779,-0.45615 h 0.37959 c 0.29068,0 0.45508,0.16475 0.45508,0.45615 v 8.25111 c 0,0.29175 -0.1644,0.4565 -0.45508,0.4565 h -0.37959 c -0.29069,0 -0.46779,-0.16475 -0.46779,-0.4565 m -2.94393,-2.72485 c -0.0123,-1.25483 -0.85972,-2.18017 -2.11137,-2.18017 -1.27706,0 -2.01013,1.00154 -2.01013,2.18017 0,1.19133 0.73307,2.18017 2.01013,2.18017 1.25165,0 2.09903,-0.92569 2.11137,-2.18017 m -5.42395,0 c 0,-1.82527 1.25165,-3.308 3.13548,-3.308 0.84738,0 1.669,0.2914 2.26343,1.14053 v -0.54504 c 0,-0.29139 0.17674,-0.45614 0.46778,-0.45614 h 0.37924 c 0.29068,0 0.45508,0.16475 0.45508,0.45614 v 5.43736 c 0,0.29175 -0.1644,0.4565 -0.45508,0.4565 h -0.37924 c -0.29104,0 -0.46778,-0.16475 -0.46778,-0.4565 v -0.54468 c -0.59443,0.84878 -1.41605,1.14053 -2.26343,1.14053 -1.88383,0 -3.13548,-1.49578 -3.13548,-3.3207 m -4.595291,1.16593 v -3.3207 h -0.77117 c -0.16439,0 -0.25294,-0.1016 -0.25294,-0.26599 v -0.4946 c 0,-0.16474 0.0886,-0.25329 0.25294,-0.25329 h 0.79657 l 0.227539,-1.45768 c 0.0381,-0.24095 0.177101,-0.36759 0.40464,-0.36759 h 0.265292 c 0.24024,0 0.37959,0.15204 0.37959,0.39299 v 1.43228 h 1.73214 c 0.16439,0 0.25294,0.0885 0.25294,0.25329 v 0.4946 c 0,0.16439 -0.0885,0.26599 -0.25294,0.26599 h -1.73214 v 3.3969 c 0,0.68439 0.32879,0.95074 0.73307,0.95074 0.39194,0 0.74612,-0.22825 0.74612,-0.68475 0,-0.0504 0,-0.13934 -0.0254,-0.24059 -0.025,-0.17745 0.0508,-0.29175 0.22755,-0.29175 h 0.58173 c 0.15169,0 0.26564,0.0635 0.29069,0.22825 0.0508,0.21555 0.0508,0.45614 0.0508,0.46884 0,0.95074 -0.68298,1.64783 -1.89654,1.64783 -1.01176,0 -2.010481,-0.51965 -2.010481,-2.15477 m -3.33163,1.55892 v -5.43736 c 0,-0.29139 0.17709,-0.45614 0.46778,-0.45614 h 0.37959 c 0.29069,0 0.45508,0.16475 0.45508,0.45614 v 5.43736 c 0,0.29175 -0.16439,0.4565 -0.45508,0.4565 h -0.37959 c -0.29069,0 -0.46778,-0.16475 -0.46778,-0.4565 m -0.22754,-7.90892 c 0,-0.49424 0.36653,-0.88724 0.87242,-0.88724 0.51858,0 0.89782,0.393 0.89782,0.88724 0,0.48154 -0.39194,0.86184 -0.89782,0.86184 -0.50589,0 -0.87242,-0.3803 -0.87242,-0.86184 m -4.611514,7.99782 -2.111728,-5.46276 c -0.113594,-0.31715 0.0127,-0.51964 0.354189,-0.51964 h 0.417336 c 0.265289,0 0.429683,0.11395 0.530931,0.36759 l 1.681691,4.55013 1.681339,-4.55013 c 0.101247,-0.25364 0.265646,-0.36759 0.531286,-0.36759 h 0.41698 c 0.34149,0 0.46778,0.20249 0.35419,0.51964 l -2.111728,5.46276 c -0.100894,0.24095 -0.277989,0.3676 -0.543631,0.3676 h -0.657225 c -0.265641,0 -0.442736,-0.12665 -0.54363,-0.3676" fill="#712090" fill-opacity="1" fill-rule="nonzero" stroke="none" stroke-width="0.35277778"/>
		</g>
		<g id="g9666" transform="translate(0.26458505,-0.26458739)">
			<path id="path9660" d="m 133.96777,167.02891 c -0.23778,0.0194 -0.46285,0.20002 -0.47731,0.43815 v 0 0.0727 c 0.0123,0.19896 0.12735,0.36159 0.32491,0.41134 v 0 c 0.14287,0.11006 1.1684,1.05727 1.61219,5.79155 v 0 l 0.0254,0.27834 c 0.0727,0.80116 0.14781,1.62948 0.375,2.29658 v 0 c 0.37183,1.0915 1.0467,1.33315 1.57092,1.33315 v 0 c 0.0215,0 0.043,-3.4e-4 0.0639,-0.001 v 0 c 0.64487,-0.0236 1.14793,-0.44168 1.60549,-1.07209 v 0 c 0.42192,0.18838 0.82973,0.22401 1.21532,0.10478 v 0 c 1.01952,-0.31609 1.60161,-1.59915 2.27577,-3.08469 v 0 c 0.629,-1.38713 1.34055,-2.95558 2.43134,-3.60292 v 0 c 0.22401,-0.0617 0.37606,-0.28011 0.34784,-0.51859 v 0 c -0.0307,-0.26317 -0.26811,-0.4512 -0.53234,-0.42051 v 0 c -2.96757,0.3482 -4.37304,3.03777 -5.50192,5.19854 v 0 c -0.14147,0.27093 -0.28117,0.53869 -0.41981,0.79163 v 0 c -0.18803,-0.52564 -0.24236,-1.3141 -0.29951,-2.13325 v 0 c -0.1143,-1.65558 -0.24412,-3.53201 -1.50565,-4.64079 v 0 c -0.94756,-0.83255 -1.90606,-1.25342 -2.85221,-1.25342 v 0 c -0.0868,0 -0.17286,0.004 -0.25929,0.0106 m 2.44122,6.90527 -0.0257,-0.28117 c -0.22579,-2.40841 -0.62796,-4.22028 -1.19523,-5.38621 v 0 c -0.018,-0.0374 -0.0363,-0.0741 -0.0543,-0.10936 v 0 c 0.42792,0.1651 0.86642,0.4438 1.31162,0.83538 v 0 c 0.96485,0.84808 1.08056,2.5153 1.18216,3.98603 v 0 c 0.0822,1.18569 0.16052,2.31811 0.68051,3.01555 v 0 c -0.29563,0.41451 -0.58773,0.68509 -0.88053,0.69603 v 0 c -0.008,3.5e-4 -0.0148,3.5e-4 -0.0226,3.5e-4 v 0 c -0.69109,0 -0.85443,-1.19591 -0.99589,-2.7566 m 3.18135,1.8168 c 0.18697,-0.32949 0.37288,-0.68474 0.5648,-1.05198 v 0 c 0.73095,-1.39912 1.52752,-2.92418 2.73297,-3.85128 v 0 c -0.4692,0.73555 -0.84808,1.57092 -1.20298,2.35338 v 0 c -0.52987,1.16805 -1.07773,2.37596 -1.68592,2.56435 v 0 c -0.03,0.01 -0.0854,0.0261 -0.16863,0.0261 v 0 c -0.0635,0 -0.14323,-0.01 -0.24024,-0.0406" fill="url(#linearGradient9670)" stroke="none" stroke-width="0.35277778"/>
			<path d="m 136.00118,181.85309 0.078,-0.82656 c 0.003,-0.0346 0.0229,-0.0536 0.0579,-0.0536 h 0.0847 c 0.0321,0 0.0522,0.0134 0.0656,0.0444 l 0.266,0.64206 0.26493,-0.64206 c 0.0134,-0.031 0.0335,-0.0444 0.066,-0.0444 h 0.0843 c 0.0349,0 0.055,0.019 0.0579,0.0536 l 0.078,0.82656 c 0.004,0.0388 -0.0173,0.0603 -0.055,0.0603 h -0.0631 c -0.0349,0 -0.0565,-0.0187 -0.0593,-0.0536 l -0.0512,-0.59654 -0.24307,0.59513 c -0.012,0.0296 -0.0321,0.0445 -0.0656,0.0445 h -0.0286 c -0.0335,0 -0.0536,-0.0148 -0.0656,-0.0445 l -0.24341,-0.59513 -0.0508,0.59654 c -0.003,0.0349 -0.0243,0.0536 -0.0593,0.0536 h -0.0632 c -0.0377,0 -0.0589,-0.0215 -0.055,-0.0603 m -0.79763,-0.12241 c -0.0148,-0.0349 0.004,-0.0603 0.0402,-0.0684 l 0.0469,-0.012 c 0.0349,-0.008 0.0526,0.005 0.0713,0.0374 0.031,0.054 0.0967,0.0928 0.18274,0.0928 0.10759,0 0.17356,-0.0497 0.17356,-0.121 0,-0.0589 -0.0473,-0.0991 -0.121,-0.1263 l -0.13053,-0.0455 c -0.14499,-0.0469 -0.23495,-0.14252 -0.23495,-0.25788 0,-0.16792 0.14499,-0.27164 0.31821,-0.27164 0.14675,0 0.25153,0.0684 0.29845,0.17463 0.0162,0.0339 0,0.0621 -0.0363,0.0713 l -0.043,0.012 c -0.0335,0.0109 -0.055,-0.002 -0.0723,-0.0335 -0.0272,-0.0508 -0.0765,-0.0751 -0.14534,-0.0751 -0.0765,0 -0.14358,0.0402 -0.14358,0.11289 0,0.0363 0.0148,0.0804 0.10865,0.11536 l 0.13194,0.0487 c 0.17075,0.055 0.24166,0.15698 0.24307,0.26599 0,0.17604 -0.145,0.27834 -0.34396,0.27834 -0.1718,0 -0.29422,-0.0794 -0.34396,-0.1979" id="path9662" fill="#712090" fill-opacity="1" fill-rule="nonzero" stroke="none" stroke-width="0.35277778"/>
			<path d="m 130.70041,179.89824 v -3.3207 h -0.77117 c -0.1644,0 -0.25294,-0.1016 -0.25294,-0.26599 v -0.4946 c 0,-0.16474 0.0885,-0.25329 0.25294,-0.25329 h 0.79657 l 0.22754,-1.45768 c 0.0377,-0.24095 0.1771,-0.36759 0.40464,-0.36759 h 0.26529 c 0.24024,0 0.37959,0.15204 0.37959,0.39299 v 1.43228 h 1.73213 c 0.1644,0 0.25259,0.0885 0.25259,0.25329 v 0.4946 c 0,0.16439 -0.0882,0.26599 -0.25259,0.26599 h -1.73213 v 3.3969 c 0,0.68439 0.32843,0.95074 0.73307,0.95074 0.39193,0 0.74612,-0.22825 0.74612,-0.68475 0,-0.0504 0,-0.13934 -0.0254,-0.24059 -0.0254,-0.17745 0.0505,-0.29175 0.22754,-0.29175 h 0.58173 c 0.1517,0 0.26529,0.0635 0.29069,0.22825 0.0504,0.21555 0.0504,0.45614 0.0504,0.46884 0,0.95074 -0.68227,1.64783 -1.89653,1.64783 -1.01142,0 -2.01013,-0.51965 -2.01013,-2.15477 m -7.43585,1.55892 v -5.43736 c 0,-0.29139 0.17709,-0.45614 0.46778,-0.45614 h 0.37959 c 0.29069,0 0.45509,0.16475 0.45509,0.45614 v 0.78599 c 0.27798,-0.88724 1.08726,-1.38148 2.11137,-1.38148 1.40335,0 2.42746,0.91229 2.42746,2.90231 v 3.13054 c 0,0.29175 -0.17674,0.4565 -0.46778,0.4565 h -0.37923 c -0.29069,0 -0.45509,-0.16475 -0.45509,-0.4565 v -3.11784 c 0,-1.30564 -0.59443,-1.77448 -1.26435,-1.77448 -0.65758,0 -1.97238,0.4438 -1.97238,2.37032 v 2.522 c 0,0.29175 -0.1644,0.4565 -0.45509,0.4565 h -0.37959 c -0.29069,0 -0.46778,-0.16475 -0.46778,-0.4565 m -2.94393,-2.72485 c -0.0123,-1.25483 -0.85972,-2.18017 -2.11138,-2.18017 -1.27705,0 -2.01048,1.00154 -2.01048,2.18017 0,1.19133 0.73343,2.18017 2.01048,2.18017 1.25166,0 2.09903,-0.92569 2.11138,-2.18017 m -5.42396,0 c 0,-1.82527 1.25166,-3.308 3.13549,-3.308 0.84702,0 1.66899,0.2914 2.26307,1.14053 v -0.54504 c 0,-0.29139 0.17745,-0.45614 0.46814,-0.45614 h 0.37923 c 0.29069,0 0.45509,0.16475 0.45509,0.45614 v 5.43736 c 0,0.29175 -0.1644,0.4565 -0.45509,0.4565 h -0.37923 c -0.29069,0 -0.46814,-0.16475 -0.46814,-0.4565 v -0.54468 c -0.59408,0.84878 -1.41605,1.14053 -2.26307,1.14053 -1.88383,0 -3.13549,-1.49578 -3.13549,-3.3207 m -2.60703,2.72485 v -8.25111 c 0,-0.2914 0.1771,-0.45615 0.46779,-0.45615 h 0.37959 c 0.29068,0 0.45508,0.16475 0.45508,0.45615 v 8.25111 c 0,0.29175 -0.1644,0.4565 -0.45508,0.4565 h -0.37959 c -0.29069,0 -0.46779,-0.16475 -0.46779,-0.4565 m -2.94393,-2.72485 c -0.0123,-1.25483 -0.85972,-2.18017 -2.11137,-2.18017 -1.27706,0 -2.01013,1.00154 -2.01013,2.18017 0,1.19133 0.73307,2.18017 2.01013,2.18017 1.25165,0 2.09903,-0.92569 2.11137,-2.18017 m -5.42395,0 c 0,-1.82527 1.25165,-3.308 3.13548,-3.308 0.84738,0 1.669,0.2914 2.26343,1.14053 v -0.54504 c 0,-0.29139 0.17674,-0.45614 0.46778,-0.45614 h 0.37924 c 0.29068,0 0.45508,0.16475 0.45508,0.45614 v 5.43736 c 0,0.29175 -0.1644,0.4565 -0.45508,0.4565 h -0.37924 c -0.29104,0 -0.46778,-0.16475 -0.46778,-0.4565 v -0.54468 c -0.59443,0.84878 -1.41605,1.14053 -2.26343,1.14053 -1.88383,0 -3.13548,-1.49578 -3.13548,-3.3207 m -4.595291,1.16593 v -3.3207 h -0.77117 c -0.16439,0 -0.25294,-0.1016 -0.25294,-0.26599 v -0.4946 c 0,-0.16474 0.0886,-0.25329 0.25294,-0.25329 h 0.79657 l 0.227539,-1.45768 c 0.0381,-0.24095 0.177101,-0.36759 0.40464,-0.36759 h 0.265292 c 0.24024,0 0.37959,0.15204 0.37959,0.39299 v 1.43228 h 1.73214 c 0.16439,0 0.25294,0.0885 0.25294,0.25329 v 0.4946 c 0,0.16439 -0.0885,0.26599 -0.25294,0.26599 h -1.73214 v 3.3969 c 0,0.68439 0.32879,0.95074 0.73307,0.95074 0.39194,0 0.74612,-0.22825 0.74612,-0.68475 0,-0.0504 0,-0.13934 -0.0254,-0.24059 -0.025,-0.17745 0.0508,-0.29175 0.22755,-0.29175 h 0.58173 c 0.15169,0 0.26564,0.0635 0.29069,0.22825 0.0508,0.21555 0.0508,0.45614 0.0508,0.46884 0,0.95074 -0.68298,1.64783 -1.89654,1.64783 -1.01176,0 -2.010481,-0.51965 -2.010481,-2.15477 m -3.33163,1.55892 v -5.43736 c 0,-0.29139 0.17709,-0.45614 0.46778,-0.45614 h 0.37959 c 0.29069,0 0.45508,0.16475 0.45508,0.45614 v 5.43736 c 0,0.29175 -0.16439,0.4565 -0.45508,0.4565 h -0.37959 c -0.29069,0 -0.46778,-0.16475 -0.46778,-0.4565 m -0.22754,-7.90892 c 0,-0.49424 0.36653,-0.88724 0.87242,-0.88724 0.51858,0 0.89782,0.393 0.89782,0.88724 0,0.48154 -0.39194,0.86184 -0.89782,0.86184 -0.50589,0 -0.87242,-0.3803 -0.87242,-0.86184 m -4.611514,7.99782 -2.111728,-5.46276 c -0.113594,-0.31715 0.0127,-0.51964 0.354189,-0.51964 h 0.417336 c 0.265289,0 0.429683,0.11395 0.530931,0.36759 l 1.681691,4.55013 1.681339,-4.55013 c 0.101247,-0.25364 0.265646,-0.36759 0.531286,-0.36759 h 0.41698 c 0.34149,0 0.46778,0.20249 0.35419,0.51964 l -2.111728,5.46276 c -0.100894,0.24095 -0.277989,0.3676 -0.543631,0.3676 h -0.657225 c -0.265641,0 -0.442736,-0.12665 -0.54363,-0.3676" id="path9664" fill="#712090" fill-opacity="1" fill-rule="nonzero" stroke="none" stroke-width="0.35277778"/>
		</g>
	</g>
</svg>