<?xml version="1.0" ?>
<svg xmlns="http://www.w3.org/2000/svg" viewBox="0 0 36 36">
	<g fill="none" fill-rule="evenodd">
		<path fill="#4986CC" d="M 12.48,0.0 L 23.52,0.0 C 33.6,0.0 36.0,2.4 36.0,12.48 L 36.0,23.52 C 36.0,33.6 33.6,36.0 23.52,36.0 L 12.48,36.0 C 2.4,36.0 0.0,33.6 0.0,23.52 L 0.0,12.48 C 0.0,2.4 2.4,0.0 12.48,0.0"/>
		<path fill="#FFF" d="M 29.45,11.948 C 29.616,11.402 29.45,11.0 28.655,11.0 L 26.03,11.0 C 25.362,11.0 25.054,11.347 24.887,11.73 C 24.887,11.73 23.552,14.926 21.661,17.003 C 21.049,17.603 20.771,17.795 20.437,17.795 C 20.27,17.795 20.028,17.604 20.028,17.057 L 20.028,11.948 C 20.028,11.292 19.834,11.0 19.278,11.0 L 15.152,11.0 C 14.735,11.0 14.484,11.304 14.484,11.593 C 14.484,12.214 15.43,12.358 15.527,14.106 L 15.527,17.904 C 15.527,18.737 15.374,18.888 15.04,18.888 C 14.15,18.888 11.985,15.677 10.7,12.003 C 10.45,11.288 10.197,11.0 9.526,11.0 L 6.9,11.0 C 6.15,11.0 6.0,11.347 6.0,11.73 C 6.0,12.412 6.89,15.8 10.145,20.281 C 12.315,23.341 15.37,25.0 18.153,25.0 C 19.822,25.0 20.028,24.632 20.028,23.997 L 20.028,21.684 C 20.028,20.947 20.186,20.8 20.715,20.8 C 21.105,20.8 21.772,20.992 23.33,22.467 C 25.11,24.216 25.403,25.0 26.405,25.0 L 29.03,25.0 C 29.78,25.0 30.156,24.632 29.94,23.905 C 29.702,23.18 28.852,22.129 27.725,20.882 C 27.113,20.172 26.195,19.407 25.917,19.024 C 25.527,18.533 25.638,18.314 25.917,17.877 C 25.917,17.877 29.115,13.451 29.449,11.948 L 29.45,11.948"/>
	</g>
</svg>