<?xml version="1.0" ?>
<svg xmlns="http://www.w3.org/2000/svg" viewBox="0 0 400 400">
	<polygon points="24.123 178.93 24.123 198.702 176.576 321.933 176.576 301.359 24.514 178.446 24.123 178.93" fill="#0091da"/>
	<path d="M200,53.654l58.589,47.406H233.153L200,74.235,166.836,101.06H141.4Zm-23.424,191.56L49.057,142.339,199.986,20.581,350.052,142.339l-80.6,65.4h25.394l80.6-65.4L200.014,0,23.574,142.339l153,123.431Z" fill="#78be20"/>
	<path d="M176.576,381.078,24.123,257.847V238.075l.391-.484L176.576,360.5Zm223.067-63.3h-78.91v53.745h78.91Zm-62.91,16h46.91v21.745h-46.91Zm-40.262-16H217.562v53.745h78.909Zm-62.909,16h46.909v21.745H233.562Zm114.5-94.008h-78.91v53.746h78.91Zm-62.91,16h46.91v21.746h-46.91Z" fill="#1d428a"/>
</svg>