<svg viewBox="0 0 36 36" fill="none" xmlns="http://www.w3.org/2000/svg">
<g>
<path d="M27.3479 31.1737C27.1779 31.1737 27.0134 31.1137 26.8835 31.0042C26.7535 30.8946 26.6665 30.7427 26.6378 30.5751C26.6092 30.4076 26.6407 30.2353 26.7268 30.0888C26.8129 29.9423 26.9481 29.831 27.1084 29.7745C29.2818 29.0097 31.1649 27.5906 32.4992 25.7123C33.8335 23.834 34.5534 21.5886 34.5601 19.2846C34.5636 17.0054 33.8596 14.7814 32.5452 12.9194C31.2648 11.0934 29.4671 9.69226 27.3837 8.89641C27.2053 8.82815 27.0613 8.69182 26.9834 8.5174C26.9055 8.34298 26.9001 8.14476 26.9684 7.96635C27.0366 7.78793 27.173 7.64394 27.3474 7.56605C27.5218 7.48816 27.72 7.48274 27.8984 7.551C30.2495 8.44907 32.2781 10.0302 33.7231 12.0909C35.2084 14.1952 36.004 16.7088 36.0001 19.2846C35.9931 21.8865 35.1806 24.4223 33.6743 26.5438C32.1679 28.6653 30.0416 30.2683 27.5874 31.1325C27.5105 31.1597 27.4295 31.1736 27.3479 31.1737Z" fill="#0091DA"/>
<path d="M0.721628 12.2148C0.677493 12.2148 0.633452 12.2107 0.590048 12.2027C0.49706 12.1856 0.408363 12.1503 0.329022 12.0988C0.249681 12.0474 0.18125 11.9808 0.127638 11.9029C0.0740247 11.825 0.0362799 11.7373 0.0165584 11.6449C-0.00316305 11.5524 -0.00447493 11.4569 0.0126977 11.3639C1.22851 4.7789 6.99211 -0.000100619 13.7173 -0.000100619C15.8552 -0.00311351 17.965 0.486461 19.8832 1.43064C21.8013 2.37482 23.4761 3.74821 24.7776 5.44427C24.892 5.59586 24.9419 5.7865 24.9163 5.97468C24.8908 6.16286 24.792 6.33333 24.6414 6.44898C24.4908 6.56464 24.3005 6.6161 24.1122 6.59217C23.9238 6.56825 23.7525 6.47086 23.6355 6.32123C22.4684 4.80034 20.9665 3.56883 19.2465 2.72229C17.5264 1.87575 15.6344 1.43693 13.7173 1.4399C7.68664 1.4399 2.51848 5.7239 1.42885 11.6254C1.39835 11.7907 1.31093 11.9402 1.18175 12.0479C1.05257 12.1555 0.889786 12.2146 0.721628 12.2148Z" fill="#00C1D5"/>
<path d="M23.2279 11.1975C23.1367 11.1975 23.0445 11.1992 22.9513 11.2027C22.376 9.28901 21.1992 7.61176 19.5955 6.41967C17.9917 5.22757 16.0465 4.58413 14.0482 4.58478C8.92327 4.58478 4.75384 8.748 4.75384 13.8642C4.75384 13.8951 4.75402 13.9261 4.75438 13.9574C3.24574 14.4553 1.9607 15.4688 1.12481 16.8198C0.288922 18.1708 -0.0443956 19.7731 0.183364 21.3454C0.411123 22.9177 1.1854 24.3595 2.3703 25.4178C3.5552 26.4761 5.07499 27.0832 6.66292 27.1326V25.6926C5.37658 25.6417 4.15234 25.126 3.21721 24.2412C2.28208 23.3565 1.69951 22.1626 1.57753 20.8811C1.45556 19.5995 1.80244 18.3172 2.55387 17.2719C3.3053 16.2266 4.41028 15.4893 5.66392 15.1966L6.26278 15.0564L6.21778 14.443C6.20158 14.2214 6.19402 14.0374 6.19402 13.8642C6.19846 11.7839 7.02788 9.79026 8.50035 8.32068C9.97281 6.8511 11.9681 6.02558 14.0484 6.02523C15.8445 6.01762 17.5877 6.63247 18.9815 7.7652C20.3519 8.87234 21.3112 10.4072 21.7059 12.1242L21.8485 12.7521L22.4883 12.6801C22.7339 12.6522 22.9808 12.6379 23.2279 12.6374C24.6549 12.6342 26.0436 13.0987 27.1815 13.9597C28.3195 14.8207 29.144 16.0308 29.529 17.4049C29.914 18.7789 29.8382 20.2413 29.3132 21.5682C28.7882 22.8951 27.8429 24.0135 26.622 24.7522C26.541 24.8013 26.459 24.8487 26.3777 24.8934C25.9676 25.1182 25.5344 25.298 25.0857 25.4298V26.919C25.7786 26.7547 26.4463 26.498 27.0708 26.1558C27.1698 26.1014 27.2702 26.0435 27.3689 25.9836C28.8584 25.0819 30.0116 23.7171 30.6521 22.0979C31.2926 20.4787 31.3851 18.6943 30.9155 17.0176C30.4459 15.3409 29.4401 13.8641 28.0518 12.8131C26.6635 11.7621 24.9692 11.1948 23.228 11.1978L23.2279 11.1975Z" fill="#3C7AD7"/>
<path d="M23.754 33.9272L21.6399 36.0548L19.5762 33.9209C19.5104 33.8529 19.4587 33.7727 19.4239 33.6847C19.3892 33.5968 19.3721 33.5028 19.3736 33.4083C19.3752 33.3137 19.3953 33.2204 19.4329 33.1336C19.4706 33.0468 19.5249 32.9683 19.5929 32.9026C19.6608 32.8368 19.7411 32.785 19.829 32.7503C19.917 32.7155 20.0109 32.6984 20.1055 32.7C20.2 32.7015 20.2934 32.7217 20.3801 32.7593C20.4669 32.7969 20.5454 32.8512 20.6112 32.9192L20.9614 33.281V21.024H14.2327L13.0618 19.584H22.4014V33.246L22.7325 32.913C22.8682 32.7831 23.0492 32.7114 23.237 32.7131C23.4248 32.7148 23.6044 32.7899 23.7377 32.9222C23.871 33.0545 23.9473 33.2337 23.9503 33.4214C23.9533 33.6092 23.8829 33.7907 23.754 33.9273V33.9272Z" fill="#0091DA"/>
<path d="M9.43146 35.9927V22.445L9.15786 22.7366C9.02729 22.876 8.8467 22.9578 8.65581 22.9641C8.46491 22.9703 8.27936 22.9005 8.13996 22.7699C8.00056 22.6393 7.91874 22.4587 7.91249 22.2678C7.90625 22.077 7.97609 21.8914 8.10666 21.752L10.1164 19.6091L12.2855 21.7295C12.4169 21.864 12.4906 22.0446 12.4906 22.2328C12.4906 22.4209 12.417 22.6015 12.2855 22.736C12.154 22.8706 11.9751 22.9483 11.7871 22.9526C11.599 22.9569 11.4168 22.8875 11.2793 22.7591L10.8716 22.3604V34.5527H17.384L18.5549 35.9927H9.43146Z" fill="#0091DA"/>
<path d="M18.0836 23.5998C18.1339 23.5242 18.1694 23.4398 18.1882 23.351H16.5187L13.2722 28.22H16.0352L12.8429 32.409C12.8017 32.4634 12.7684 32.5233 12.7439 32.587H14.5178L18.9431 26.7802H15.9632L18.0836 23.5998Z" fill="#AD48F1"/>
</g>
</svg>