<svg id="_400px" data-name="400px" xmlns="http://www.w3.org/2000/svg" viewBox="0 0 400 400"><defs><style>.cls-1{fill:#0091da;}.cls-2{fill:#78be20;}.cls-3{fill:#00c1d5;}.cls-4{fill:#1d428a;}</style></defs><g id="outlined"><path class="cls-1" d="M331.46,71.26a182.791,182.791,0,0,1,50.851,103.76h16.137A198.422,198.422,0,0,0,348.37,65.9l.12-.12-5.6-5.71-5.6-5.72-.11.11A200,200,0,0,0,68.806,49.041L80.142,60.377A184.023,184.023,0,0,1,331.46,71.26Z"/><path class="cls-2" d="M173.269,382.075A184.014,184.014,0,0,1,62.334,77.925L51,66.591a200.015,200.015,0,0,0,122.269,331.63Z"/><path class="cls-3" d="M200,48C116.185,48,48,116.188,48,200c0,74.7,54.161,136.974,125.271,149.641V333.348C111.036,320.894,64,265.844,64,200c0-74.99,61.01-136,136-136C266.457,64,321.926,111.92,333.69,175.02h16.244C337.983,103.052,275.3,48,200,48Z"/><path class="cls-4" d="M219.269,306.239h-16V222.423a16.956,16.956,0,0,1,16.9-16.915H383.105a16.955,16.955,0,0,1,16.916,16.9v50.974h-16V222.418a.935.935,0,0,0-.926-.91H220.18a.936.936,0,0,0-.911.926Zm0,36.71h-16V400h16Zm60.62-48.527h-16V400h16Zm59.1-39.544h-16V400h16Zm61.1,52.187h-16V400h16Z"/></g></svg>