<?xml version="1.0" ?>
<svg xmlns="http://www.w3.org/2000/svg" viewBox="0 0 400 236">
	<g fill="none" stroke-width="2">
		<path stroke="#b8b7ba" d="m53.7 56.44-7.13-16.72Q45.41 37 42.3 37.78c-4.08 1.01-4.49 3.95-2.88 7.49q4.33 9.57 8.8 19.1c3.18 6.79 9 7.98 12.51.55q4.19-8.88 8.28-17.83c.99-2.17 2.52-.5 2.5.96q-.13 11.68.09 16.75c.3 7.02 9.11 6.65 9.11.19.01-3.72-.84-13.94.66-16.9 2.25-4.45 8.67-2.38 8.66 2.66q-.03 6.86-.02 13.71c.02 7.66 9.06 7.09 9.2.1.06-3.37-.81-14.45.62-16.86 1.53-2.59 5.97-2.59 7.55-.21 2.98 4.47-2.54 21.77 4.7 22.45 7.7.73 5.46-13.8 5.41-18.61-.06-5.82-1.15-10.9-6.75-12.86q-6.93-2.43-13.06 2.53a1 .99 44.2 0 1-1.24.01q-8.59-6.72-16.97.14a1 1 0 0 1-1.25.02q-8.18-6.38-14.58-.83-2.09 1.81-3.79 5.96-2.11 5.12-4.31 10.14-.93 2.12-1.84 0M220.36 55.75l20.39-.01q2.23 0 2.2-2.19-.21-11.57-9.49-14.87c-17.02-6.04-25.91 18.27-13.05 28.3 5.46 4.25 14.92 3.98 20.11-1.43 1.32-1.38 1.59-3.41-.84-3.77a1.02.95 31.7 0 0-.69.14c-5.82 3.75-11.26 6.16-17.07.43q-2.23-2.19-2.55-5.5a1 1 0 0 1 .99-1.1M185.76 50.91q-6.82-1.48-12.75-.39c-11.62 2.13-11.43 16.99.53 19.18q6.48 1.19 11.94-3.13 1.37-1.08 1.61.64l.18 1.24a1.03 1.03 0 0 0 .55.76q3.66 1.8 3.89-2.02c.26-4.35.97-18.15-1.21-22.92-3.59-7.86-14.03-6.98-21.23-4.93a.98.97 4.7 0 0-.62.52c-1.58 3.14.23 4.37 2.76 3.43q4.6-1.71 9.02-.92 6.44 1.15 6.55 7.55a1.01 1 5.7 0 1-1.22.99M250.4 41.83a3.82 3.82 0 0 0-3.82-3.82 3.82 3.82 0 0 0-3.82 3.82 3.82 3.82 0 0 0 3.82 3.82 3.82 3.82 0 0 0 3.82-3.82M141.07 48q.76-2.23 1.52 0 3.39 10.02 7.01 19.95c1.17 3.19 4.25 2.32 5.3-.48q5.01-13.26 9.59-26.7a1.07 1.07 0 0 0 0-.64q-1-3.02-3.94-1.28a.98.97 84.8 0 0-.43.52l-7.06 20.09q-.95 2.7-1.89 0l-6.97-20.08a1.04.99 8.4 0 0-.39-.5c-2.68-1.8-3.98-.2-4.83 2.29q-3.16 9.15-6.38 18.28-.95 2.7-1.89 0l-7-20.22a1.02 1 88.7 0 0-.65-.63c-4.99-1.53-3.81 2.64-2.88 5.19q4.16 11.4 8.17 22.77c2.03 5.77 5.14 3.42 6.49-.47q3.21-9.23 6.23-18.09" vector-effect="non-scaling-stroke"/>
		<path stroke="#b8b7ba" d="m201.68 44.32.1-4.15a.98.98 0 0 0-.25-.68c-2.7-3.04-4.54-.51-4.54 2.33q.01 12.81.28 25.62.08 3.63 3.94 1.89a.99.98 77.1 0 0 .58-.93c-.25-10.23-2.02-22.99 11.24-25.47a1.02 1-73.4 0 0 .56-.31c2.88-3.16-.33-4.94-3.22-4.14q-5.24 1.45-8.15 6.15a.27.26-72.6 0 1-.22.12l-.25.01a.44.08-88.7 0 1-.07-.44" vector-effect="non-scaling-stroke"/>
		<path stroke="#a0d3ed" d="M169.46 96.75q-4.88 9.02-3.46 19.29" vector-effect="non-scaling-stroke"/>
		<path stroke="#95a59c" d="M166 116.04q.25 9.38 6.5 16.25" vector-effect="non-scaling-stroke"/>
		<path stroke="#95aeb4" d="M172.5 132.29c6.81 7.46 19.2 11.5 28.86 13.66" vector-effect="non-scaling-stroke"/>
		<path stroke="#9c9cb4" d="M201.36 145.95c9.07 2.04 23.87 4.83 28.18 14.3" vector-effect="non-scaling-stroke"/>
		<path stroke="#b4d1e8" d="M229.54 160.25q2.25 10.03-6.33 16" vector-effect="non-scaling-stroke"/>
		<path stroke="#a8c0dd" d="M223.21 176.25q-7.1 3.08-15.62 3.02" vector-effect="non-scaling-stroke"/>
		<path stroke="#a0d3ed" d="m207.59 179.27-5.8-.52" vector-effect="non-scaling-stroke"/>
		<path stroke="#bde1f5" d="m201.79 178.75-3.79-.71" vector-effect="non-scaling-stroke"/>
		<path stroke="#a0d3ed" d="m198 178.04-7.74-2.47" vector-effect="non-scaling-stroke"/>
		<path stroke="#97c1db" d="M190.26 175.57q-6.45-3.42-12.18-7.5c-7.93-5.64-15.69-1.4-16.3 8.19" vector-effect="non-scaling-stroke"/>
		<path stroke="#a0d3ed" d="M161.78 176.26c2.02 7.16 11.28 11.52 16.72 13.78" vector-effect="non-scaling-stroke"/>
		<path stroke="#bde1f5" d="M178.5 190.04q10.97 5.52 23.25 6.67" vector-effect="non-scaling-stroke"/>
		<path stroke="#a0d3ed" d="M201.75 196.71q14.39 1.83 28.14-3.67" vector-effect="non-scaling-stroke"/>
		<path stroke="#a8c0dd" d="M229.89 193.04q11.81-4.48 17.32-16.29" vector-effect="non-scaling-stroke"/>
		<path stroke="#b4d1e8" d="M247.21 176.75q5.78-13.58.29-27.29" vector-effect="non-scaling-stroke"/>
		<path stroke="#9c9cb4" d="M247.5 149.46c-7.23-15.87-30.25-19.99-45.25-23.67" vector-effect="non-scaling-stroke"/>
		<path stroke="#95aeb4" d="M202.25 125.79q-6-2-11.15-4.81" vector-effect="non-scaling-stroke"/>
		<path stroke="#95a59c" d="M191.1 120.98q-3.18-2.49-4.63-5.3" vector-effect="non-scaling-stroke"/>
		<path stroke="#a0d3ed" d="M186.47 115.68q-.92-5-.14-9.36" vector-effect="non-scaling-stroke"/>
		<path stroke="#90b1c5" d="M186.33 106.32q4.32-8.65 14.3-9.62" vector-effect="non-scaling-stroke"/>
		<path stroke="#a0d3ed" d="M200.63 96.7q13.18-1.15 25.12 5.26" vector-effect="non-scaling-stroke"/>
		<path stroke="#95d2d2" d="M225.75 101.96c2.67 1.53 5.67 3.71 8.43 4.32 9.34 2.06 15.38-8.35 9.13-15.58" vector-effect="non-scaling-stroke"/>
		<path stroke="#a0d3ed" d="M243.31 90.7Q224.22 77.1 201 78.79" vector-effect="non-scaling-stroke"/>
		<path stroke="#90b1c5" d="M201 78.79c-12.67.62-25.39 6.62-31.54 17.96" vector-effect="non-scaling-stroke"/>
		<path stroke="#3184b2" d="m201 78.79-.37 17.91M186.33 106.32q-8.67-4.15-16.87-9.57" vector-effect="non-scaling-stroke"/>
		<path stroke="#367989" d="m186.47 115.68-20.47.36" vector-effect="non-scaling-stroke"/>
		<path stroke="#36a5c0" d="m243.31 90.7-17.56 11.26" vector-effect="non-scaling-stroke"/>
		<path stroke="#2b5450" d="m191.1 120.98-18.6 11.31" vector-effect="non-scaling-stroke"/>
		<path stroke="#324b69" d="m202.25 125.79-.89 20.16" vector-effect="non-scaling-stroke"/>
		<path stroke="#516e9d" d="m247.5 149.46-17.96 10.79" vector-effect="non-scaling-stroke"/>
		<path stroke="#5c92c6" d="M247.21 176.75q-12.02 1-24-.5" vector-effect="non-scaling-stroke"/>
		<path stroke="#4994cb" d="M229.89 193.04q-10.82-7.45-22.3-13.77" vector-effect="non-scaling-stroke"/>
		<path stroke="#5eb5e3" d="M201.79 178.75q.55 8.98-.04 17.96M198 178.04c-1.05 2.03-16.42 10.07-19.5 12" vector-effect="non-scaling-stroke"/>
		<path stroke="#3894c8" d="m190.26 175.57-28.48.69" vector-effect="non-scaling-stroke"/>
		<path stroke="#a0d3ed" d="m119.04 102.5.25 13.25" vector-effect="non-scaling-stroke"/>
		<path stroke="#95a59c" d="m119.29 115.75-.25 13" vector-effect="non-scaling-stroke"/>
		<path stroke="#b8bdc2" d="m119.04 128.75-.03 28.37q-.01 2.91-1.8.61l-19.99-25.8" vector-effect="non-scaling-stroke"/>
		<path stroke="#c1cacf" d="M97.22 131.93 88.04 120" vector-effect="non-scaling-stroke"/>
		<path stroke="#90b1c5" d="m88.04 120-3.54-4.54" vector-effect="non-scaling-stroke"/>
		<path stroke="#d3eaf5" d="M84.5 115.46q-5.32-7.61-11.36-14.24" vector-effect="non-scaling-stroke"/>
		<path stroke="#bde1f5" d="M73.14 101.22q-5.92-8.75-12.51-16.64c-5.56-6.66-18.7-7.61-21.61 2.4" vector-effect="non-scaling-stroke"/>
		<path stroke="#d3eaf5" d="M39.02 86.98q-.91 14.2-.48 28.52" vector-effect="non-scaling-stroke"/>
		<path stroke="#90b1c5" d="M38.54 115.5V142" vector-effect="non-scaling-stroke"/>
		<path stroke="#97c1db" d="m38.54 142-.25 7.25" vector-effect="non-scaling-stroke"/>
		<path stroke="#d3eaf5" d="M38.29 149.25q-.32 26.95.29 37.18c.76 12.73 18.7 13.12 19.58.58q.73-10.44.1-32.91" vector-effect="non-scaling-stroke"/>
		<path stroke="#c1cacf" d="m58.26 154.1-.3-16.35" vector-effect="non-scaling-stroke"/>
		<path stroke="#90b1c5" d="m57.96 137.75.25-22.25" vector-effect="non-scaling-stroke"/>
		<path stroke="#d3eaf5" d="M58.21 115.5q.67-2.49 2.04.04" vector-effect="non-scaling-stroke"/>
		<path stroke="#90b1c5" d="m60.25 115.54 11 14.25" vector-effect="non-scaling-stroke"/>
		<path stroke="#c1cacf" d="m71.25 129.79 24.5 31.5" vector-effect="non-scaling-stroke"/>
		<path stroke="#b8bdc2" d="m95.75 161.29 8.46 10.96" vector-effect="non-scaling-stroke"/>
		<path stroke="#97c1db" d="m104.21 172.25 3.26 4.14" vector-effect="non-scaling-stroke"/>
		<path stroke="#a0d3ed" d="M107.47 176.39q4.52 6.66 9.57 12.29" vector-effect="non-scaling-stroke"/>
		<path stroke="#bde1f5" d="M117.04 188.68q3.74 6.91 11.51 7.31" vector-effect="non-scaling-stroke"/>
		<path stroke="#a0d3ed" d="M128.55 195.99c12.23-.14 10.52-11.46 10.41-19.99" vector-effect="non-scaling-stroke"/>
		<path stroke="#97c1db" d="M138.96 176v-23.75" vector-effect="non-scaling-stroke"/>
		<path stroke="#b8bdc2" d="M138.96 152.25v-12.5" vector-effect="non-scaling-stroke"/>
		<path stroke="#95a59c" d="m138.96 139.75.25-24" vector-effect="non-scaling-stroke"/>
		<path stroke="#a0d3ed" d="M139.21 115.75v-24.5" vector-effect="non-scaling-stroke"/>
		<path stroke="#bde1f5" d="M139.21 91.25c-.13-15.36-19.8-15.7-20.13-1.25q-.13 6.25-.04 12.5" vector-effect="non-scaling-stroke"/>
		<path stroke="#5eb5e3" d="m139.21 91.25-20.17 11.25" vector-effect="non-scaling-stroke"/>
		<path stroke="#367989" d="M139.21 115.75q-9.96.62-19.92 0" vector-effect="non-scaling-stroke"/>
		<path stroke="#4e635e" d="m138.96 139.75-19.92-11" vector-effect="non-scaling-stroke"/>
		<path stroke="#507f9d" d="m138.96 152.25-34.75 20" vector-effect="non-scaling-stroke"/>
		<path stroke="#7a8891" d="M97.22 131.93q-.32 4.57-.4 9.07-.18 9.75.21 19.5.04 1.02-1.28.79" vector-effect="non-scaling-stroke"/>
		<path stroke="#3894c8" d="M138.96 176c-10.26.94-19.55-.37-31.49.39" vector-effect="non-scaling-stroke"/>
		<path stroke="#527b94" d="m88.04 120-16.79 9.79" vector-effect="non-scaling-stroke"/>
		<path stroke="#5eb5e3" d="M128.55 195.99q-5.1-4.81-11.51-7.31" vector-effect="non-scaling-stroke"/>
		<path stroke="#649bbb" d="m84.5 115.46-24.25.08M58.21 115.5H38.54" vector-effect="non-scaling-stroke"/>
		<path stroke="#91cceb" d="M73.14 101.22q-13.86-7.4-27.43-15.21c-2.84-1.64-4.33-.78-6.69.97" vector-effect="non-scaling-stroke"/>
		<path stroke="#527b94" d="m57.96 137.75-14.21 7.79" vector-effect="non-scaling-stroke"/>
		<path stroke="#2872a0" d="M43.75 145.54q-3.42-.63-5.21-3.54" vector-effect="non-scaling-stroke"/>
		<path stroke="#95b4c5" d="m58.26 154.1-14.72-7.85" vector-effect="non-scaling-stroke"/>
		<path stroke="#598baa" d="m43.54 146.25.21-.71" vector-effect="non-scaling-stroke"/>
		<path stroke="#6babd1" d="m43.54 146.25-5.25 3" vector-effect="non-scaling-stroke"/>
		<path stroke="#aed7ad" d="m271.75 97.04 14.97 18.63" vector-effect="non-scaling-stroke"/>
		<path stroke="#8dccad" d="m286.72 115.67 16.32 20.5a1 1 0 0 1 .04 1.19l-1.12 1.64" vector-effect="non-scaling-stroke"/>
		<path stroke="#a7c5a9" d="m301.96 139-6.5 8" vector-effect="non-scaling-stroke"/>
		<path stroke="#95d2d2" d="m295.46 147-23 28.5" vector-effect="non-scaling-stroke"/>
		<path stroke="#94c8c9" d="M272.46 175.5c-4.98 5.45-10.29 16.17-.3 20.08 6 2.35 10.03-.96 13.91-5.76q5.04-6.24 9.68-12.78" vector-effect="non-scaling-stroke"/>
		<path stroke="#95d2d2" d="m295.75 177.04 15.96-20.54" vector-effect="non-scaling-stroke"/>
		<path stroke="#a7c5a9" d="m311.71 156.5 3.5-4.29a1 1 0 0 1 1.56.01l11.49 14.48" vector-effect="non-scaling-stroke"/>
		<path stroke="#95d2d2" d="m328.26 166.7 9.78 12.8" vector-effect="non-scaling-stroke"/>
		<path stroke="#cae1a8" d="m338.04 179.5 6.51 8.28" vector-effect="non-scaling-stroke"/>
		<path stroke="#c2e3dd" d="M344.55 187.78c2.5 4.6 6.11 8.55 11.4 8.39q8.76-.24 10.01-8.67" vector-effect="non-scaling-stroke"/>
		<path stroke="#a7c5a9" d="M365.96 187.5c.83-4.73-2.78-9.08-5.42-12" vector-effect="non-scaling-stroke"/>
		<path stroke="#95a59c" d="m360.54 175.5-5-6.25" vector-effect="non-scaling-stroke"/>
		<path stroke="#95aeb4" d="m355.54 169.25-10.25-12.57" vector-effect="non-scaling-stroke"/>
		<path stroke="#a7c5a9" d="m345.29 156.68-15.54-19.56a1 .99 44.8 0 1-.01-1.24L345.48 116" vector-effect="non-scaling-stroke"/>
		<path stroke="#cae1a8" d="M345.48 116q8.38-10.13 16.16-20.1 2.67-3.44 2.86-6.4c.5-7.71-8.2-12.93-14.68-8.69q-2.54 1.67-5.28 5.44" vector-effect="non-scaling-stroke"/>
		<path stroke="#a7c5a9" d="m344.54 86.25-14.66 19.23" vector-effect="non-scaling-stroke"/>
		<path stroke="#aed7ad" d="m329.88 105.48-7.38 9.73" vector-effect="non-scaling-stroke"/>
		<path stroke="#8dccad" d="m322.5 115.21-5.17 6.54a1 1 0 0 1-1.58 0l-5.25-6.79" vector-effect="non-scaling-stroke"/>
		<path stroke="#aed7ad" d="m310.5 114.96-21.03-27.87" vector-effect="non-scaling-stroke"/>
		<path stroke="#95a59c" d="M289.47 87.09c-3.17-4.98-6.97-8.54-12.8-7.56-9.04 1.52-10.67 10.74-4.92 17.51" vector-effect="non-scaling-stroke"/>
		<path stroke="#447d49" d="M289.47 87.09q-9.37 4.11-17.72 9.95" vector-effect="non-scaling-stroke"/>
		<path stroke="#3ca45a" d="m310.5 114.96-23.78.71" vector-effect="non-scaling-stroke"/>
		<path stroke="#3d745d" d="m345.29 156.68-.29 19.03" vector-effect="non-scaling-stroke"/>
		<path stroke="#71a752" d="m345 175.71-.96-.21" vector-effect="non-scaling-stroke"/>
		<path stroke="#3c987c" d="M344.04 175.5q-7.37-5.27-15.78-8.8M311.71 156.5l-16.25-9.5" vector-effect="non-scaling-stroke"/>
		<path stroke="#349256" d="M301.96 139c1.35.86 1.91-.37 2.83-.92q18.68-11.04 37.6-21.69c.47-.27 1.53-1.32-.14-1.18" vector-effect="non-scaling-stroke"/>
		<path stroke="#569d56" d="M342.25 115.21q.4.03.71-.02 2.35-.39.24-1.5-6.86-3.6-13.32-8.21" vector-effect="non-scaling-stroke"/>
		<path stroke="#3ca45a" d="M342.25 115.21H322.5" vector-effect="non-scaling-stroke"/>
		<path stroke="#8cc586" d="m345.5 175.96-.32.02a.33.33 0 0 0-.3.32l-.33 11.48" vector-effect="non-scaling-stroke"/>
		<path stroke="#71a752" d="M345.48 116q-1.12-14.81-.94-29.75" vector-effect="non-scaling-stroke"/>
		<path stroke="#5fb47b" d="m344.04 175.5-.03.28a.79.78 78.3 0 1-.4.61l-5.57 3.11" vector-effect="non-scaling-stroke"/>
		<path stroke="#2a9b9c" d="M295.75 177.04q-.75-.31-1.29-.9a1 .97-20.6 0 0-.73-.32l-21.27-.32" vector-effect="non-scaling-stroke"/>
		<path stroke="#2b5450" d="M355.54 169.25q-5.17 2.85-9.54 6.79" vector-effect="non-scaling-stroke"/>
		<path stroke="#589291" d="m346 176.04-.5-.08" vector-effect="non-scaling-stroke"/>
		<path stroke="#60905d" d="m345.5 175.96-.5-.25" vector-effect="non-scaling-stroke"/>
		<path stroke="#3c6b45" d="M360.54 175.5c-1.9.18-13.26-.31-14.29.79" vector-effect="non-scaling-stroke"/>
		<path stroke="#578979" d="m346.25 176.29-.25-.25" vector-effect="non-scaling-stroke"/>
		<path stroke="#69a986" d="m365.96 187.5-19.71-11.21" vector-effect="non-scaling-stroke"/>
		<path stroke="#b8b7ba" d="M233.56 43.44q-5.65-3.62-10.89.99-2.65 2.33-3.44 6.38a1 .99 5.7 0 0 .98 1.19H237a1.01 1.01 0 0 0 1-1.13q-.64-5-4.44-7.43M186.16 54.76c-5.97-1.22-11.19-2.25-16 2.03a1.09 1.02-15.1 0 0-.31.5c-3.22 12.81 19.25 11.07 17.1-1.72a1.01 1.01 0 0 0-.79-.81M249.55 41.85a2.94 2.94 0 0 0-2.94-2.94 2.94 2.94 0 0 0-2.94 2.94 2.94 2.94 0 0 0 2.94 2.94 2.94 2.94 0 0 0 2.94-2.94" vector-effect="non-scaling-stroke"/>
		<path stroke="#cae1a8" d="m246.29 42.75.71-.04" vector-effect="non-scaling-stroke"/>
		<path stroke="#b8b7ba" d="M247 42.71q.07.24.17.44.52 1.09.62-.12l.15-1.82a1.01 1 8.8 0 0-.79-1.07q-2.84-.59-2.07 2.86.2.87.85.26.21-.2.36-.51" vector-effect="non-scaling-stroke"/>
		<path stroke="#839963" d="M247 42.71q-.71-4.02-.71.04" vector-effect="non-scaling-stroke"/>
	</g>
	<path fill="#fff" d="M0 0h400v236H0V0Zm53.7 56.44-7.13-16.72Q45.41 37 42.3 37.78c-4.08 1.01-4.49 3.95-2.88 7.49q4.33 9.57 8.8 19.1c3.18 6.79 9 7.98 12.51.55q4.19-8.88 8.28-17.83c.99-2.17 2.52-.5 2.5.96q-.13 11.68.09 16.75c.3 7.02 9.11 6.65 9.11.19.01-3.72-.84-13.94.66-16.9 2.25-4.45 8.67-2.38 8.66 2.66q-.03 6.86-.02 13.71c.02 7.66 9.06 7.09 9.2.1.06-3.37-.81-14.45.62-16.86 1.53-2.59 5.97-2.59 7.55-.21 2.98 4.47-2.54 21.77 4.7 22.45 7.7.73 5.46-13.8 5.41-18.61-.06-5.82-1.15-10.9-6.75-12.86q-6.93-2.43-13.06 2.53a1 .99 44.2 0 1-1.24.01q-8.59-6.72-16.97.14a1 1 0 0 1-1.25.02q-8.18-6.38-14.58-.83-2.09 1.81-3.79 5.96-2.11 5.12-4.31 10.14-.93 2.12-1.84 0Zm166.66-.69 20.39-.01q2.23 0 2.2-2.19-.21-11.57-9.49-14.87c-17.02-6.04-25.91 18.27-13.05 28.3 5.46 4.25 14.92 3.98 20.11-1.43 1.32-1.38 1.59-3.41-.84-3.77a1.02.95 31.7 0 0-.69.14c-5.82 3.75-11.26 6.16-17.07.43q-2.23-2.19-2.55-5.5a1 1 0 0 1 .99-1.1Zm-34.6-4.84q-6.82-1.48-12.75-.39c-11.62 2.13-11.43 16.99.53 19.18q6.48 1.19 11.94-3.13 1.37-1.08 1.61.64l.18 1.24a1.03 1.03 0 0 0 .55.76q3.66 1.8 3.89-2.02c.26-4.35.97-18.15-1.21-22.92-3.59-7.86-14.03-6.98-21.23-4.93a.98.97 4.7 0 0-.62.52c-1.58 3.14.23 4.37 2.76 3.43q4.6-1.71 9.02-.92 6.44 1.15 6.55 7.55a1.01 1 5.7 0 1-1.22.99Zm64.64-9.08a3.82 3.82 0 0 0-3.82-3.82 3.82 3.82 0 0 0-3.82 3.82 3.82 3.82 0 0 0 3.82 3.82 3.82 3.82 0 0 0 3.82-3.82ZM141.07 48q.76-2.23 1.52 0 3.39 10.02 7.01 19.95c1.17 3.19 4.25 2.32 5.3-.48q5.01-13.26 9.59-26.7a1.07 1.07 0 0 0 0-.64q-1-3.02-3.94-1.28a.98.97 84.8 0 0-.43.52l-7.06 20.09q-.95 2.7-1.89 0l-6.97-20.08a1.04.99 8.4 0 0-.39-.5c-2.68-1.8-3.98-.2-4.83 2.29q-3.16 9.15-6.38 18.28-.95 2.7-1.89 0l-7-20.22a1.02 1 88.7 0 0-.65-.63c-4.99-1.53-3.81 2.64-2.88 5.19q4.16 11.4 8.17 22.77c2.03 5.77 5.14 3.42 6.49-.47q3.21-9.23 6.23-18.09Zm60.61-3.68.1-4.15a.98.98 0 0 0-.25-.68c-2.7-3.04-4.54-.51-4.54 2.33q.01 12.81.28 25.62.08 3.63 3.94 1.89a.99.98 77.1 0 0 .58-.93c-.25-10.23-2.02-22.99 11.24-25.47a1.02 1-73.4 0 0 .56-.31c2.88-3.16-.33-4.94-3.22-4.14q-5.24 1.45-8.15 6.15a.27.26-72.6 0 1-.22.12l-.25.01a.44.08-88.7 0 1-.07-.44Zm-32.22 52.43q-4.88 9.02-3.46 19.29.25 9.38 6.5 16.25c6.81 7.46 19.2 11.5 28.86 13.66 9.07 2.04 23.87 4.83 28.18 14.3q2.25 10.03-6.33 16-7.1 3.08-15.62 3.02l-5.8-.52-3.79-.71-7.74-2.47q-6.45-3.42-12.18-7.5c-7.93-5.64-15.69-1.4-16.3 8.19 2.02 7.16 11.28 11.52 16.72 13.78q10.97 5.52 23.25 6.67 14.39 1.83 28.14-3.67 11.81-4.48 17.32-16.29 5.78-13.58.29-27.29c-7.23-15.87-30.25-19.99-45.25-23.67q-6-2-11.15-4.81-3.18-2.49-4.63-5.3-.92-5-.14-9.36 4.32-8.65 14.3-9.62 13.18-1.15 25.12 5.26c2.67 1.53 5.67 3.71 8.43 4.32 9.34 2.06 15.38-8.35 9.13-15.58Q224.22 77.1 201 78.79c-12.67.62-25.39 6.62-31.54 17.96Zm-50.42 5.75.25 13.25-.25 13-.03 28.37q-.01 2.91-1.8.61l-19.99-25.8L88.04 120l-3.54-4.54q-5.32-7.61-11.36-14.24-5.92-8.75-12.51-16.64c-5.56-6.66-18.7-7.61-21.61 2.4q-.91 14.2-.48 28.52V142l-.25 7.25q-.32 26.95.29 37.18c.76 12.73 18.7 13.12 19.58.58q.73-10.44.1-32.91l-.3-16.35.25-22.25q.67-2.49 2.04.04l11 14.25 24.5 31.5 8.46 10.96 3.26 4.14q4.52 6.66 9.57 12.29 3.74 6.91 11.51 7.31c12.23-.14 10.52-11.46 10.41-19.99v-36.25l.25-24v-24.5c-.13-15.36-19.8-15.7-20.13-1.25q-.13 6.25-.04 12.5Zm152.71-5.46 14.97 18.63 16.32 20.5a1 1 0 0 1 .04 1.19l-1.12 1.64-6.5 8-23 28.5c-4.98 5.45-10.29 16.17-.3 20.08 6 2.35 10.03-.96 13.91-5.76q5.04-6.24 9.68-12.78l15.96-20.54 3.5-4.29a1 1 0 0 1 1.56.01l11.49 14.48 9.78 12.8 6.51 8.28c2.5 4.6 6.11 8.55 11.4 8.39q8.76-.24 10.01-8.67c.83-4.73-2.78-9.08-5.42-12l-5-6.25-10.25-12.57-15.54-19.56a1 .99 44.8 0 1-.01-1.24L345.48 116q8.38-10.13 16.16-20.1 2.67-3.44 2.86-6.4c.5-7.71-8.2-12.93-14.68-8.69q-2.54 1.67-5.28 5.44l-14.66 19.23-7.38 9.73-5.17 6.54a1 1 0 0 1-1.58 0l-5.25-6.79-21.03-27.87c-3.17-4.98-6.97-8.54-12.8-7.56-9.04 1.52-10.67 10.74-4.92 17.51Z"/>
	<path fill="#716f74" d="M53.7 56.44q.91 2.12 1.84 0 2.2-5.02 4.31-10.14 1.7-4.15 3.79-5.96 6.4-5.55 14.58.83a1 1 0 0 0 1.25-.02q8.38-6.86 16.97-.14a1 .99 44.2 0 0 1.24-.01q6.13-4.96 13.06-2.53c5.6 1.96 6.69 7.04 6.75 12.86.05 4.81 2.29 19.34-5.41 18.61-7.24-.68-1.72-17.98-4.7-22.45-1.58-2.38-6.02-2.38-7.55.21-1.43 2.41-.56 13.49-.62 16.86-.14 6.99-9.18 7.56-9.2-.1q-.01-6.85.02-13.71c.01-5.04-6.41-7.11-8.66-2.66-1.5 2.96-.65 13.18-.66 16.9 0 6.46-8.81 6.83-9.11-.19q-.22-5.07-.09-16.75c.02-1.46-1.51-3.13-2.5-.96q-4.09 8.95-8.28 17.83c-3.51 7.43-9.33 6.24-12.51-.55q-4.47-9.53-8.8-19.1c-1.61-3.54-1.2-6.48 2.88-7.49q3.11-.78 4.27 1.94l7.13 16.72ZM219.37 56.85q.32 3.31 2.55 5.5c5.81 5.73 11.25 3.32 17.07-.43a1.02.95 31.7 0 1 .69-.14c2.43.36 2.16 2.39.84 3.77-5.19 5.41-14.65 5.68-20.11 1.43-12.86-10.03-3.97-34.34 13.05-28.3q9.28 3.3 9.49 14.87.03 2.19-2.2 2.19l-20.39.01a1 1 0 0 0-.99 1.1Zm14.19-13.41q-5.65-3.62-10.89.99-2.65 2.33-3.44 6.38a1 .99 5.7 0 0 .98 1.19H237a1.01 1.01 0 0 0 1-1.13q-.64-5-4.44-7.43ZM186.98 49.92q-.11-6.4-6.55-7.55-4.42-.79-9.02.92c-2.53.94-4.34-.29-2.76-3.43a.98.97 4.7 0 1 .62-.52c7.2-2.05 17.64-2.93 21.23 4.93 2.18 4.77 1.47 18.57 1.21 22.92q-.23 3.82-3.89 2.02a1.03 1.03 0 0 1-.55-.76l-.18-1.24q-.24-1.72-1.61-.64-5.46 4.32-11.94 3.13c-11.96-2.19-12.15-17.05-.53-19.18q5.93-1.09 12.75.39a1.01 1 5.7 0 0 1.22-.99Zm-.82 4.84c-5.97-1.22-11.19-2.25-16 2.03a1.09 1.02-15.1 0 0-.31.5c-3.22 12.81 19.25 11.07 17.1-1.72a1.01 1.01 0 0 0-.79-.81ZM250.4 41.83a3.82 3.82 0 0 1-3.82 3.82 3.82 3.82 0 0 1-3.82-3.82 3.82 3.82 0 0 1 3.82-3.82 3.82 3.82 0 0 1 3.82 3.82Zm-.85.02a2.94 2.94 0 0 0-2.94-2.94 2.94 2.94 0 0 0-2.94 2.94 2.94 2.94 0 0 0 2.94 2.94 2.94 2.94 0 0 0 2.94-2.94ZM141.07 48q-3.02 8.86-6.23 18.09c-1.35 3.89-4.46 6.24-6.49.47q-4.01-11.37-8.17-22.77c-.93-2.55-2.11-6.72 2.88-5.19a1.02 1 88.7 0 1 .65.63l7 20.22q.94 2.7 1.89 0 3.22-9.13 6.38-18.28c.85-2.49 2.15-4.09 4.83-2.29a1.04.99 8.4 0 1 .39.5l6.97 20.08q.94 2.7 1.89 0l7.06-20.09a.98.97 84.8 0 1 .43-.52q2.94-1.74 3.94 1.28a1.07 1.07 0 0 1 0 .64q-4.58 13.44-9.59 26.7c-1.05 2.8-4.13 3.67-5.3.48q-3.62-9.93-7.01-19.95-.76-2.23-1.52 0Z"/>
	<path fill="#716f74" d="m201.75 44.76.25-.01a.27.26-72.6 0 0 .22-.12q2.91-4.7 8.15-6.15c2.89-.8 6.1.98 3.22 4.14a1.02 1-73.4 0 1-.56.31c-13.26 2.48-11.49 15.24-11.24 25.47a.99.98 77.1 0 1-.58.93q-3.86 1.74-3.94-1.89-.27-12.81-.28-25.62c0-2.84 1.84-5.37 4.54-2.33a.98.98 0 0 1 .25.68l-.1 4.15a.44.08-88.7 0 0 .07.44Z"/>
	<path fill="#fff" d="M249.55 41.85a2.94 2.94 0 0 1-2.94 2.94 2.94 2.94 0 0 1-2.94-2.94 2.94 2.94 0 0 1 2.94-2.94 2.94 2.94 0 0 1 2.94 2.94Zm-3.26.9.71-.04q.07.24.17.44.52 1.09.62-.12l.15-1.82a1.01 1 8.8 0 0-.79-1.07q-2.84-.59-2.07 2.86.2.87.85.26.21-.2.36-.51Z"/>
	<path fill="#716f74" d="M247 42.71q-.71-4.02-.71.04-.15.31-.36.51-.65.61-.85-.26-.77-3.45 2.07-2.86a1.01 1 8.8 0 1 .79 1.07l-.15 1.82q-.1 1.21-.62.12-.1-.2-.17-.44Z"/>
	<path fill="#94c351" d="m247 42.71-.71.04q0-4.06.71-.04Z"/>
	<path fill="#fff" d="M233.56 43.44q3.8 2.43 4.44 7.43a1.01 1.01 0 0 1-1 1.13h-16.79a1 .99 5.7 0 1-.98-1.19q.79-4.05 3.44-6.38 5.24-4.61 10.89-.99ZM170.16 56.79c4.81-4.28 10.03-3.25 16-2.03a1.01 1.01 0 0 1 .79.81c2.15 12.79-20.32 14.53-17.1 1.72a1.09 1.02-15.1 0 1 .31-.5Z"/>
	<path fill="#21628a" d="m201 78.79-.37 17.91q-9.98.97-14.3 9.62-8.67-4.15-16.87-9.57c6.15-11.34 18.87-17.34 31.54-17.96Z"/>
	<path fill="#41a6da" d="M201 78.79q23.22-1.69 42.31 11.91l-17.56 11.26q-11.94-6.41-25.12-5.26l.37-17.91Z"/>
	<path fill="#7bc3eb" d="m139.21 91.25-20.17 11.25q-.09-6.25.04-12.5c.33-14.45 20-14.11 20.13 1.25Z"/>
	<path fill="#2a4b38" d="M289.47 87.09q-9.37 4.11-17.72 9.95c-5.75-6.77-4.12-15.99 4.92-17.51 5.83-.98 9.63 2.58 12.8 7.56Z"/>
	<path fill="#94c351" d="M345.48 116q-1.12-14.81-.94-29.75 2.74-3.77 5.28-5.44c6.48-4.24 15.18.98 14.68 8.69q-.19 2.96-2.86 6.4-7.78 9.97-16.16 20.1Z"/>
	<path fill="#7bc3eb" d="M73.14 101.22q-13.86-7.4-27.43-15.21c-2.84-1.64-4.33-.78-6.69.97 2.91-10.01 16.05-9.06 21.61-2.4q6.59 7.89 12.51 16.64Z"/>
	<path fill="#a6d4eb" d="M73.14 101.22q6.04 6.63 11.36 14.24l-24.25.08q-1.37-2.53-2.04-.04H38.54q-.43-14.32.48-28.52c2.36-1.75 3.85-2.61 6.69-.97q13.57 7.81 27.43 15.21Z"/>
	<path fill="#4e8b52" d="M344.54 86.25q-.18 14.94.94 29.75l-15.74 19.88a1 .99 44.8 0 0 .01 1.24l15.54 19.56-.29 19.03-.96-.21q-7.37-5.27-15.78-8.8l-11.49-14.48a1 1 0 0 0-1.56-.01l-3.5 4.29-16.25-9.5 6.5-8c1.35.86 1.91-.37 2.83-.92q18.68-11.04 37.6-21.69c.47-.27 1.53-1.32-.14-1.18q.4.03.71-.02 2.35-.39.24-1.5-6.86-3.6-13.32-8.21l14.66-19.23Z"/>
	<path fill="#5daf5a" d="m289.47 87.09 21.03 27.87-23.78.71-14.97-18.63q8.35-5.84 17.72-9.95Z"/>
	<path fill="#2aa4a5" d="M243.31 90.7c6.25 7.23.21 17.64-9.13 15.58-2.76-.61-5.76-2.79-8.43-4.32l17.56-11.26Z"/>
	<path fill="#41a6da" d="M139.21 91.25v24.5q-9.96.62-19.92 0l-.25-13.25 20.17-11.25ZM169.46 96.75q8.2 5.42 16.87 9.57-.78 4.36.14 9.36l-20.47.36q-1.42-10.27 3.46-19.29Z"/>
	<path fill="#5daf5a" d="M329.88 105.48q6.46 4.61 13.32 8.21 2.11 1.11-.24 1.5-.31.05-.71.02H322.5l7.38-9.73Z"/>
	<path fill="#1a995a" d="m310.5 114.96 5.25 6.79a1 1 0 0 0 1.58 0l5.17-6.54h19.75c1.67-.14.61.91.14 1.18q-18.92 10.65-37.6 21.69c-.92.55-1.48 1.78-2.83.92l1.12-1.64a1 1 0 0 0-.04-1.19l-16.32-20.5 23.78-.71Z"/>
	<path fill="#21628a" d="M38.54 115.5h19.67l-.25 22.25-14.21 7.79q-3.42-.63-5.21-3.54v-26.5ZM60.25 115.54l24.25-.08 3.54 4.54-16.79 9.79-11-14.25Z"/>
	<path fill="#2a4b38" d="M186.47 115.68q1.45 2.81 4.63 5.3l-18.6 11.31q-6.25-6.87-6.5-16.25l20.47-.36ZM119.29 115.75q9.96.62 19.92 0l-.25 24-19.92-11 .25-13Z"/>
	<path fill="#83949e" d="m88.04 120 9.18 11.93q-.32 4.57-.4 9.07-.18 9.75.21 19.5.04 1.02-1.28.79l-24.5-31.5L88.04 120Z"/>
	<path fill="#2b5d68" d="M191.1 120.98q5.15 2.81 11.15 4.81l-.89 20.16c-9.66-2.16-22.05-6.2-28.86-13.66l18.6-11.31Z"/>
	<path fill="#393969" d="M202.25 125.79c15 3.68 38.02 7.8 45.25 23.67l-17.96 10.79c-4.31-9.47-19.11-12.26-28.18-14.3l.89-20.16Z"/>
	<path fill="#717b84" d="m119.04 128.75 19.92 11v12.5l-34.75 20-8.46-10.96q1.32.23 1.28-.79-.39-9.75-.21-19.5.08-4.5.4-9.07l19.99 25.8q1.79 2.3 1.8-.61l.03-28.37Z"/>
	<path fill="#83949e" d="m57.96 137.75.3 16.35-14.72-7.85.21-.71 14.21-7.79Z"/>
	<path fill="#2f82b6" d="M38.54 142q1.79 2.91 5.21 3.54l-.21.71-5.25 3 .25-7.25Z"/>
	<path fill="#a6d4eb" d="m43.54 146.25 14.72 7.85q.63 22.47-.1 32.91c-.88 12.54-18.82 12.15-19.58-.58q-.61-10.23-.29-37.18l5.25-3Z"/>
	<path fill="#2aa4a5" d="m295.46 147 16.25 9.5-15.96 20.54q-.75-.31-1.29-.9a1 .97-20.6 0 0-.73-.32l-21.27-.32 23-28.5Z"/>
	<path fill="#68a2d0" d="M247.5 149.46q5.49 13.71-.29 27.29-12.02 1-24-.5 8.58-5.97 6.33-16l17.96-10.79Z"/>
	<path fill="#2f82b6" d="M138.96 152.25V176c-10.26.94-19.55-.37-31.49.39l-3.26-4.14 34.75-20Z"/>
	<path fill="#2b5d68" d="m345.29 156.68 10.25 12.57q-5.17 2.85-9.54 6.79l-.5-.08-.5-.25.29-19.03Z"/>
	<path fill="#2f82b6" d="m190.26 175.57-28.48.69c.61-9.59 8.37-13.83 16.3-8.19q5.73 4.08 12.18 7.5Z"/>
	<path fill="#2aa4a5" d="M328.26 166.7q8.41 3.53 15.78 8.8l-.03.28a.79.78 78.3 0 1-.4.61l-5.57 3.11-9.78-12.8Z"/>
	<path fill="#2a4b38" d="m355.54 169.25 5 6.25c-1.9.18-13.26-.31-14.29.79l-.25-.25q4.37-3.94 9.54-6.79Z"/>
	<path fill="#41a6da" d="m190.26 175.57 7.74 2.47c-1.05 2.03-16.42 10.07-19.5 12-5.44-2.26-14.7-6.62-16.72-13.78l28.48-.69Z"/>
	<path fill="#299192" d="m272.46 175.5 21.27.32a1 .97-20.6 0 1 .73.32q.54.59 1.29.9-4.64 6.54-9.68 12.78c-3.88 4.8-7.91 8.11-13.91 5.76-9.99-3.91-4.68-14.63.3-20.08Z"/>
	<path fill="#94c351" d="m344.04 175.5.96.21.5.25-.32.02a.33.33 0 0 0-.3.32l-.33 11.48-6.51-8.28 5.57-3.11a.79.78 78.3 0 0 .4-.61l.03-.28Z"/>
	<path fill="#4e8b52" d="M360.54 175.5c2.64 2.92 6.25 7.27 5.42 12l-19.71-11.21c1.03-1.1 12.39-.61 14.29-.79Z"/>
	<path fill="#41a6da" d="M138.96 176c.11 8.53 1.82 19.85-10.41 19.99q-5.1-4.81-11.51-7.31-5.05-5.63-9.57-12.29c11.94-.76 21.23.55 31.49-.39Z"/>
	<path fill="#5081bb" d="M223.21 176.25q11.98 1.5 24 .5-5.51 11.81-17.32 16.29-10.82-7.45-22.3-13.77 8.52.06 15.62-3.02Z"/>
	<path fill="#84c6ba" d="m345.5 175.96.5.08.25.25 19.71 11.21q-1.25 8.43-10.01 8.67c-5.29.16-8.9-3.79-11.4-8.39l.33-11.48a.33.33 0 0 1 .3-.32l.32-.02Z"/>
	<path fill="#7bc3eb" d="m198 178.04 3.79.71q.55 8.98-.04 17.96-12.28-1.15-23.25-6.67c3.08-1.93 18.45-9.97 19.5-12Z"/>
	<path fill="#41a6da" d="m201.79 178.75 5.8.52q11.48 6.32 22.3 13.77-13.75 5.5-28.14 3.67.59-8.98.04-17.96Z"/>
	<path fill="#7bc3eb" d="M117.04 188.68q6.41 2.5 11.51 7.31-7.77-.4-11.51-7.31Z"/>
</svg>