<?xml version="1.0" encoding="UTF-8"?>
<!-- Generator: Adobe Illustrator 24.3.0, SVG Export Plug-In . SVG Version: 6.00 Build 0)  -->
<svg version="1.1" id="Layer_1" xmlns="http://www.w3.org/2000/svg"  x="0px" y="0px" viewBox="0 0 400 400" style="enable-background:new 0 0 400 400;" xml:space="preserve">
<style type="text/css">
	.st0{fill:#EC7700;}
	.st1{fill:#78BE20;}
	.st2{fill:#00C1D5;}
	.st3{fill:#1D428A;}
</style>
<polygon class="st0" points="160.8,358.9 51.2,295.8 35.2,304.9 160.8,377.4 "/>
<polygon class="st1" points="187.5,0 187.5,18.5 39.5,103.8 39.5,273.7 23.5,282.8 23.5,94.6 "/>
<polygon class="st2" points="360.5,193 376.5,193 376.5,94.6 212.5,0 212.5,18.5 360.5,103.8 "/>
<path class="st3" d="M314.4,130.4L212.5,71.6V53.2l117.9,68V193h-16V130.4z M160.8,305.7l-63.2-36.5l-16.1,9.2l79.3,45.7  L160.8,305.7L160.8,305.7z M85.6,130.4l101.9-58.8V53.2l-117.9,68v135.3l16-9.1V130.4z"/>
<path class="st1" d="M295.2,400.7H183.7v-16h1.1l-0.4-0.5l32.3-28.7V220.7h174.1v27.6h-16v-11.6H232.7v111h63v16h-64.1l-23.6,21  h87.3L295.2,400.7L295.2,400.7z M389.5,399.8H325c-5.7,0-10.4-4.6-10.4-10.4V271.9c0-5.7,4.6-10.4,10.4-10.4h64.5  c5.7,0,10.4,4.6,10.4,10.4v117.6C399.9,395.2,395.3,399.8,389.5,399.8z M330.7,383.8h53.2V277.6h-53.2V383.8z M357.1,363.4  c3.7,0,6.7,3,6.7,6.7s-3,6.7-6.7,6.7s-6.7-3-6.7-6.7S353.4,363.4,357.1,363.4z"/>
</svg>