<?xml version="1.0" ?>
<svg xmlns="http://www.w3.org/2000/svg" viewBox="0 0 50 50" fill="none">
	<path d="M21.196 41.2285C21.3863 41.0217 21.697 41.025 21.8836 41.2356C22.0636 41.4388 22.0607 41.7598 21.8772 41.9592L21.242 42.6497L21.1637 42.7325C19.5316 44.4185 16.9566 44.4231 15.3194 42.7429L15.2408 42.6603C15.219 42.6368 15.1976 42.6129 15.1764 42.589C15.0032 42.3938 15.0313 42.086 15.2186 41.9066L15.2467 41.8795C15.4399 41.6944 15.7371 41.7301 15.9197 41.9273C17.2021 43.312 19.2825 43.3082 20.5607 41.919L21.196 41.2285Z" fill="#26B999"/>
	<path d="M24.446 34.7742C24.6421 34.5655 24.96 34.5772 25.1425 34.7997C25.3115 35.006 25.3018 35.3191 25.1202 35.5125L19.8943 41.0751L19.8036 41.1667C18.8488 42.0809 17.3735 41.9843 16.5299 40.9278C15.769 39.9747 15.7897 38.5649 16.5615 37.6389L16.6384 37.5508L17.0845 37.0646C17.2758 36.8561 17.5892 36.8605 17.7754 37.0742C17.9525 37.2775 17.9487 37.5959 17.7667 37.7943L17.3206 38.2805C16.8266 38.8188 16.799 39.677 17.2573 40.251C17.7654 40.8872 18.666 40.9266 19.2201 40.3368L24.446 34.7742Z" fill="#26B999"/>
	<path d="M19.4458 31.6508C19.6414 31.4396 19.9613 31.4503 20.1447 31.6738C20.3129 31.879 20.3042 32.19 20.1247 32.3838L15.9197 36.9243C15.0754 37.8361 14.7883 39.1217 15.0584 40.2877C15.1173 40.5416 15.0308 40.818 14.8203 40.9478C14.5675 41.1037 14.2429 40.9876 14.163 40.6853C13.7639 39.1755 14.0977 37.4876 15.1644 36.2759L15.2408 36.1913L19.4458 31.6508Z" fill="#26B999"/>
	<path d="M23.0477 39.2163C23.2427 39.0043 23.5627 39.0137 23.7467 39.2368C23.9155 39.4414 23.9078 39.7526 23.7289 39.947L23.3766 40.3297C23.1813 40.542 22.8604 40.5322 22.6766 40.3082C22.5086 40.1035 22.5168 39.793 22.6954 39.599L23.0477 39.2163Z" fill="#26B999"/>
	<path d="M20.5345 36.3204C20.7207 36.1167 21.0247 36.1146 21.2134 36.3156C21.402 36.5166 21.404 36.8446 21.2178 37.0484L19.4053 39.032C19.2191 39.2357 18.9154 39.238 18.7266 39.0371C18.5379 38.836 18.5357 38.5078 18.722 38.304L20.5345 36.3204Z" fill="#26B999"/>
	<path d="M26.4597 35.5077C26.6432 35.3082 26.9405 35.3031 27.1299 35.496C27.3262 35.6961 27.3312 36.0316 27.1409 36.2384L25.0459 38.5154C24.8506 38.7277 24.5297 38.7179 24.3459 38.4939C24.1779 38.2892 24.1861 37.9787 24.3647 37.7847L26.4597 35.5077Z" fill="#26B999"/>
	<path d="M21.9281 31.7867C22.118 31.5798 22.4285 31.5825 22.6154 31.7925C22.7959 31.9953 22.7936 32.3166 22.6103 32.5164L19.225 36.2052C19.0279 36.42 18.7029 36.4078 18.5201 36.1787C18.3567 35.9738 18.3667 35.6676 18.5429 35.4755L21.9281 31.7867Z" fill="#26B999"/>
	<path d="M22.7845 33.8581C22.9706 33.6544 23.2746 33.6521 23.4633 33.8531C23.6521 34.0541 23.6542 34.3825 23.468 34.5863L22.5261 35.6173C22.3399 35.8211 22.0358 35.8232 21.847 35.6221C21.6583 35.421 21.6563 35.0929 21.8426 34.8891L22.7845 33.8581Z" fill="#26B999"/>
	<path d="M30.224 31.4164C30.411 31.2132 30.7153 31.2128 30.9029 31.4154C31.0895 31.6169 31.09 31.9433 30.904 32.1456L28.734 34.5066C28.5418 34.7157 28.2271 34.7099 28.0415 34.494C27.8665 34.2901 27.8714 33.9733 28.0528 33.7761L30.224 31.4164Z" fill="#26B999"/>
	<path d="M25.6043 15.6194C25.7878 15.4016 26.1023 15.3925 26.2965 15.5992L33.1549 22.8994C34.2039 24.016 34.2039 25.8438 33.1549 26.9603L26.4895 34.0548C26.3226 34.2324 26.0638 34.2526 25.876 34.1095L25.8394 34.0789C25.6266 33.8812 25.6156 33.5293 25.8155 33.3165L32.4808 26.222C33.1483 25.5115 33.1485 24.3483 32.481 23.6378L25.6223 16.3375C25.4389 16.1422 25.4309 15.8252 25.6043 15.6194Z" fill="#26B999"/>
	<path d="M25.3277 31.0752C25.5139 30.8714 25.8178 30.8691 26.0065 31.0701C26.1952 31.2712 26.1972 31.5994 26.011 31.8031L24.6865 33.253C24.5003 33.4568 24.1962 33.4588 24.0074 33.2578C23.8187 33.0567 23.8167 32.7285 24.003 32.5248L25.3277 31.0752Z" fill="#26B999"/>
	<path d="M26.0687 27.275C26.2607 27.0658 26.5753 27.0713 26.7611 27.2869C26.9365 27.4904 26.932 27.8072 26.7508 28.0047L24.0815 30.9132C23.8955 31.1159 23.5926 31.1182 23.404 30.9183C23.2143 30.717 23.2124 30.3874 23.3996 30.1835L26.0687 27.275Z" fill="#26B999"/>
	<path d="M31.5025 19.1104C31.6851 18.8836 32.0076 18.8713 32.2044 19.0838L34.8751 21.968C36.3715 23.5837 36.3755 26.202 34.884 27.823L32.3474 30.5798C32.1601 30.7834 31.8553 30.784 31.6673 30.5811C31.4802 30.3791 31.4797 30.0518 31.6661 29.8491L34.2028 27.0922C35.3214 25.8765 35.3185 23.9128 34.1962 22.701L31.5255 19.8168C31.3472 19.6243 31.3372 19.3158 31.5025 19.1104Z" fill="#26B999"/>
	<path d="M23.1666 27.6334C23.3622 27.4222 23.6823 27.4327 23.8656 27.6564C24.0337 27.8616 24.0249 28.1727 23.8454 28.3664L21.9042 30.4627C21.7163 30.6655 21.4114 30.6649 21.2242 30.4614C21.0377 30.2588 21.0383 29.9316 21.2253 29.7296L23.1666 27.6334Z" fill="#26B999"/>
	<path d="M26.9292 29.3224C27.1154 29.1186 27.4194 29.1164 27.6081 29.3173C27.7969 29.5184 27.799 29.8468 27.6128 30.0506L27.3395 30.3493C27.1533 30.553 26.8495 30.5553 26.6608 30.3543C26.4721 30.1533 26.47 29.8251 26.6561 29.6213L26.9292 29.3224Z" fill="#26B999"/>
	<path d="M27.8374 23.7803C28.0253 23.5765 28.3308 23.5768 28.5184 23.781L28.7357 24.0177C28.8512 24.1436 28.9379 24.2887 28.9959 24.4434C29.2183 25.0374 28.4954 25.2138 28.0699 24.7671L28.0537 24.7474L27.8367 24.5107C27.6509 24.3084 27.6512 23.9822 27.8374 23.7803Z" fill="#26B999"/>
	<path d="M27.1812 20.1737C27.3688 19.9712 27.6728 19.9712 27.8603 20.1737L31.3288 23.9192C31.5163 24.1216 31.5163 24.4498 31.3288 24.6522C31.1413 24.8546 30.8374 24.8546 30.6499 24.6522L27.1812 20.9069C26.9937 20.7045 26.9937 20.3762 27.1812 20.1737Z" fill="#26B999"/>
	<path d="M22.6909 18.2161C22.8749 17.992 23.1959 17.9824 23.3911 18.1951L26.8427 21.9553C27.0344 22.1642 27.027 22.5034 26.8263 22.7023C26.6363 22.8905 26.3424 22.8828 26.1608 22.685L22.7092 18.9248C22.5311 18.7308 22.5231 18.4206 22.6909 18.2161Z" fill="#26B999"/>
	<path d="M19.1071 17.0285C19.2947 16.8269 19.5981 16.8272 19.7853 17.0293L21.8257 19.2323C22.0128 19.4344 22.0131 19.762 21.8264 19.9646C21.639 20.1678 21.3346 20.1681 21.1468 19.9654L19.1064 17.7623C18.9186 17.5595 18.9189 17.2308 19.1071 17.0285Z" fill="#26B999"/>
	<path d="M24.7276 17.5246C24.915 17.3222 25.219 17.3222 25.4064 17.5246L26.3586 18.5527C26.5461 18.7552 26.5461 19.0833 26.3586 19.2858C26.1712 19.4881 25.8672 19.4881 25.6798 19.2858L24.7276 18.2576C24.5401 18.0552 24.5402 17.727 24.7276 17.5246Z" fill="#26B999"/>
	<path d="M29.7069 17.1029C29.8955 16.9086 30.1934 16.9125 30.3778 17.1115L30.7838 17.5499C30.9572 17.7372 30.972 18.0357 30.818 18.2419C30.6389 18.4817 30.3067 18.5008 30.1049 18.2829L29.6987 17.8445C29.5081 17.6388 29.5119 17.3038 29.7069 17.1029Z" fill="#26B999"/>
	<path d="M18.6697 13.791C18.8577 13.5879 19.163 13.5888 19.3502 13.7927L22.0123 16.6929C22.1948 16.8918 22.198 17.2114 22.0195 17.4145C21.8331 17.6267 21.521 17.6303 21.3303 17.4226L18.6683 14.5225C18.4823 14.3198 18.4828 13.9927 18.6697 13.791Z" fill="#26B999"/>
	<path d="M22.0871 14.6736C22.2745 14.4711 22.5785 14.4711 22.7659 14.6736L24.2475 16.2732C24.4349 16.4756 24.4349 16.8038 24.2475 17.0062C24.06 17.2086 23.756 17.2086 23.5686 17.0062L22.0871 15.4066C21.8996 15.2042 21.8996 14.876 22.0871 14.6736Z" fill="#26B999"/>
	<path d="M26.2365 13.4067C26.421 13.1882 26.7372 13.1804 26.9309 13.3895L29.0479 15.6754C29.2434 15.8865 29.2336 16.2319 29.0266 16.4299C28.8366 16.6116 28.5485 16.6022 28.369 16.4084L26.2518 14.1225C26.0704 13.9267 26.0638 13.6114 26.2365 13.4067Z" fill="#26B999"/>
	<path d="M14.2795 9.41264C14.3393 9.15846 14.585 9.02102 14.8203 9.08612C15.0969 9.16269 15.2453 9.48496 15.1846 9.78623C14.958 10.9103 15.2492 12.1317 16.0585 13.0056L17.9062 15.0003C18.094 15.2031 18.0935 15.5321 17.9052 15.7343C17.7176 15.9359 17.4144 15.9354 17.2273 15.7333L15.3796 13.7386C14.2937 12.5661 13.927 10.911 14.2795 9.41264Z" fill="#26B999"/>
	<path d="M16.521 8.66368C17.4165 7.69674 18.867 7.69104 19.7689 8.65103L24.9524 14.1683C25.1411 14.3692 25.1432 14.6972 24.9573 14.9011C24.7712 15.1052 24.4671 15.1078 24.2782 14.9067L19.0947 9.38935C18.5685 8.82935 17.7223 8.8326 17.1999 9.39669C16.6765 9.96188 16.6746 10.8777 17.1957 11.4454L18.0016 12.3234C18.1875 12.5261 18.1868 12.8529 17.9999 13.0547C17.8119 13.2577 17.5069 13.257 17.3197 13.0531L16.5137 12.1751C15.6484 11.2324 15.6245 9.7298 16.4397 8.75607L16.521 8.66368Z" fill="#26B999"/>
	<path d="M20.4067 12.8593C20.5942 12.6568 20.8981 12.6568 21.0856 12.8593L21.607 13.4222C21.7944 13.6246 21.7944 13.9528 21.607 14.1552C21.4195 14.3575 21.1155 14.3576 20.9281 14.1552L20.4067 13.5923C20.2193 13.3899 20.2193 13.0617 20.4067 12.8593Z" fill="#26B999"/>
	<path d="M22.5064 9.3896C22.6898 9.166 23.0099 9.15564 23.2055 9.36682L25.4029 11.7395C25.5813 11.9321 25.5911 12.241 25.4254 12.4464C25.2428 12.6729 24.9207 12.6849 24.724 12.4725L22.5266 10.0998C22.3471 9.90606 22.3382 9.59478 22.5064 9.3896Z" fill="#26B999"/>
	<path d="M18.4864 10.7858C18.6738 10.5834 18.9778 10.5834 19.1652 10.7858L19.9266 11.6079C20.1141 11.8103 20.1141 12.1385 19.9266 12.3409C19.7392 12.5432 19.4352 12.5433 19.2478 12.3409L18.4864 11.5188C18.2989 11.3164 18.299 10.9882 18.4864 10.7858Z" fill="#26B999"/>
	<path d="M15.3796 7.32776C17.0192 5.55742 19.6774 5.5574 21.317 7.32776L21.8022 7.8517C21.9807 8.04436 21.9905 8.35322 21.8247 8.55864C21.6421 8.78502 21.32 8.79703 21.1234 8.58471L20.6381 8.06077C19.3735 6.69529 17.3231 6.69531 16.0585 8.06077C15.9067 8.22455 15.6592 8.24754 15.502 8.08988L15.3276 7.91472C15.1933 7.78009 15.1777 7.55496 15.3039 7.41154L15.3796 7.32776Z" fill="#26B999"/>
</svg>