<svg xmlns="http://www.w3.org/2000/svg" fill="none" viewBox="0 0 191 231"><path fill="#06F" d="M170.02 230.343H20.608c-5.465 0-10.707-2.11-14.572-5.867C2.171 220.72 0 215.625 0 210.313V20.03C0 14.718 2.171 9.623 6.036 5.867 9.901 2.11 15.143 0 20.608 0h89.349a21.004 21.004 0 0 1 7.895 1.515 20.534 20.534 0 0 1 6.685 4.354l60.053 58.367c3.849 3.766 6.018 8.853 6.039 14.16v131.917c0 5.312-2.172 10.407-6.037 14.163-3.864 3.757-9.106 5.867-14.572 5.867ZM61.825 172.256a7.01 7.01 0 0 0-4.896 1.92 6.618 6.618 0 0 0-2.07 4.72 6.704 6.704 0 0 0 2.111 4.666 7.09 7.09 0 0 0 4.855 1.924h58.446a7.123 7.123 0 0 0 4.894-1.93 6.73 6.73 0 0 0 2.123-4.7 6.65 6.65 0 0 0-2.096-4.729 7.045 7.045 0 0 0-4.921-1.911H97.612V161.34c11.796-.893 22.847-5.952 31.067-14.221 8.096-8.686 12.433-20.072 12.108-31.787v-11.648a6.395 6.395 0 0 0-.534-2.536 6.557 6.557 0 0 0-1.506-2.136 6.753 6.753 0 0 0-2.24-1.401 6.9 6.9 0 0 0-2.624-.446 6.95 6.95 0 0 0-4.864 1.862 6.562 6.562 0 0 0-2.091 4.657v11.227a32.452 32.452 0 0 1-2.383 13.366 33.216 33.216 0 0 1-7.674 11.331c-7.029 6.275-16.315 9.613-25.854 9.294A34.462 34.462 0 0 1 77.111 147a33.703 33.703 0 0 1-11.888-7.267 32.558 32.558 0 0 1-7.786-11.36 31.788 31.788 0 0 1-2.32-13.462v-11.227a6.685 6.685 0 0 0-2.13-4.618 7.073 7.073 0 0 0-4.83-1.891 7.073 7.073 0 0 0-4.83 1.891 6.685 6.685 0 0 0-2.13 4.618v11.658c-.32 11.713 4.02 23.095 12.117 31.777 8.224 8.272 19.279 13.331 31.078 14.221v10.916H61.826ZM91.029 50.075a23.24 23.24 0 0 0-9.032 1.711 22.7 22.7 0 0 0-7.588 5.06 21.955 21.955 0 0 0-4.893 7.573 21.47 21.47 0 0 0-1.394 8.84v40.39a21.67 21.67 0 0 0 1.493 8.756 22.161 22.161 0 0 0 4.897 7.491 22.9 22.9 0 0 0 7.522 5.032 23.446 23.446 0 0 0 8.948 1.771c3.075 0 6.118-.602 8.948-1.771a22.902 22.902 0 0 0 7.522-5.032 22.163 22.163 0 0 0 4.898-7.491 21.668 21.668 0 0 0 1.492-8.756v-40.39a21.366 21.366 0 0 0-1.357-8.833 21.858 21.858 0 0 0-4.867-7.576 22.61 22.61 0 0 0-7.57-5.064 23.147 23.147 0 0 0-9.02-1.711Z"/></svg>