<?xml version="1.0" encoding="UTF-8"?>
<svg xmlns="http://www.w3.org/2000/svg" viewBox="0 0 168 61" fill="none"><path d="M49.1169 25.2272L46.726 34.9159H46.6546L44.1745 25.2272H39L43.4964 39.3766H49.3667L53.9524 25.2272H49.1169Z" fill="black"/><path d="M80.3058 35.0765C80.3058 32.5963 79.2174 31.7577 77.4331 31.0975L75.8094 30.4909C74.5961 30.0805 74.15 29.7593 74.15 29.2419C74.15 28.4746 74.9529 28.2248 75.8986 28.2248C77.1833 28.2248 78.5215 28.6709 79.4137 29.0813L79.6099 25.5662C78.5572 25.1915 77.0941 24.8882 75.631 24.8882C71.2595 24.8882 69.6357 27.0293 69.6357 29.5452C69.6357 31.3295 70.3138 32.7034 72.5977 33.5242L74.0965 34.0595C75.3098 34.4698 75.6845 34.7553 75.6845 35.2371C75.6845 35.9151 75.0065 36.2541 73.6504 36.2541C71.9196 36.2541 70.6885 35.6118 69.9212 35.2371L69.7963 39.0376C70.5993 39.3231 72.5977 39.68 74.2035 39.68C78.4145 39.6978 80.3058 37.9849 80.3058 35.0765Z" fill="black"/><path d="M91.8859 35.0765C91.8859 32.5963 90.7975 31.7577 89.0132 31.0975L87.3538 30.4909C86.1762 30.0805 85.6944 29.7593 85.6944 29.2419C85.6944 28.4746 86.4973 28.2248 87.4787 28.2248C88.7277 28.2248 90.1016 28.6709 90.9937 29.0813L91.1543 25.5662C90.1016 25.1915 88.6742 24.8882 87.1754 24.8882C82.8395 24.8882 81.2158 27.0293 81.2158 29.5452C81.2158 31.3295 81.8939 32.7034 84.1421 33.5242L85.6766 34.0595C86.8899 34.4698 87.2646 34.7553 87.2646 35.2371C87.2646 35.9151 86.5687 36.2541 85.2305 36.2541C83.4819 36.2541 82.2686 35.6118 81.4656 35.2371L81.3764 39.0376C82.1793 39.3231 84.1777 39.68 85.7479 39.68C89.9767 39.6978 91.8859 37.9849 91.8859 35.0765Z" fill="black"/><path d="M97.9347 19H92.9922V39.3766H97.9347V19Z" fill="black"/><path d="M129 39.3766V29.456C129 26.3334 127.091 24.8882 124.629 24.8882C122.969 24.8882 121.702 25.5662 120.864 27.0293H120.775C120.846 26.494 120.9 25.8517 120.9 25.2807V19H115.957V39.3766H120.9V31.5971C120.9 30.134 121.435 28.8493 122.684 28.8493C123.612 28.8493 124.022 29.5273 124.022 30.8656V39.3766H129Z" fill="black"/><path d="M53.2207 32.2931C53.2207 29.01 55.2548 26.1729 58.1632 25.0132L60.7861 29.8843L57.7171 35.594H61.6783L64.7472 29.92L61.8388 24.5135C65.8 24.8883 68.8868 28.2427 68.8868 32.2931C68.8868 36.6289 65.3717 40.144 61.0716 40.144C56.7358 40.144 53.2207 36.6467 53.2207 32.2931Z" fill="#3EAB36"/><path d="M99.1309 32.2394C99.1309 27.9036 102.646 24.3885 106.946 24.3885C111.282 24.3885 114.797 27.9036 114.797 32.2394C114.797 36.2898 111.674 39.6443 107.713 40.019L110.622 34.6304L107.553 28.9563H103.627L106.696 34.6304L104.056 39.5015C101.165 38.3596 99.1309 35.5225 99.1309 32.2394Z" fill="black"/></svg>