<?xml version="1.0" ?>
<svg xmlns="http://www.w3.org/2000/svg" viewBox="0.007147848606109619 0.002117156982421875 144.6669921875 132.6300048828125">
	<g>
		<path d="M41.4 36.29c-2.35 4.06-4.66 8.25-6.97 12.45-2.59 4.69-5.43 10.34-8.33 16.43 1.47 5.13 3.32 10.24 5.61 15.09.2.44.44.93.69 1.47 5-7.88 10.46-15.99 16.34-24 .7-.96 1.47-2 2.28-3.1-1.18-2.13-2.36-4.26-3.54-6.4-1.14-2.07-3.36-6.81-6.08-11.95z" fill="url(#logo_svg__a)"/>
		<path d="M.16 126.68c-.44 1.41.08 2.98 1.43 3.67 1.46.74 3.24.16 3.98-1.29 2.88-5.63 6.54-12.61 10.89-20.43-1.85-3.16-3.57-6.59-5.14-10.28C5.74 111.6 1.38 122.79.16 126.68z" fill="url(#logo_svg__c)"/>
		<path d="M83.24.05C69.3.81 59.11 9.89 50.29 22.25c5.27 7.83 9.06 15.31 10.5 17.77.25.42.48.84.73 1.27 7.4-8.67 15.69-16.46 21.92-16.22 4.46.17 8.66 3.58 12.7 8.86.34-.74.7-1.46 1.04-2.2 2.89-6.28 5.7-12.67 8.21-18.9.44-1.08.97-2.09 1.56-3.05C100.55 3.43 92.78-.48 83.24.05z" fill="url(#logo_svg__d)"/>
		<path d="M131.76 1.62c-9.3-3.75-19.72-.09-24.8 8.16-.59.96-1.13 1.97-1.56 3.05-2.51 6.23-5.32 12.62-8.21 18.9-.34.74-.7 1.47-1.04 2.2-2.59 5.54-5.26 11.05-8.02 16.48-3.36 6.58-6.87 13.09-10.56 19.36-2.95 5.02-6.02 9.88-9.23 14.49-.25.36-.49.73-.74 1.08-1.88 2.63-13.15 17.98-17.62 17.45-7.77-.93-14.46-14.46-17.58-21.06-.25-.54-.49-1.04-.69-1.47-2.28-4.85-4.13-9.97-5.61-15.09-5.06 10.61-10.31 22.55-14.78 33.18 1.57 3.69 3.29 7.12 5.14 10.28 8.94 15.28 21.02 24.16 34.93 24 17.95-.21 31.1-14.95 34.04-17.88.65-.65 1.28-1.3 1.91-1.95 2.21-2.3 4.29-4.63 6.29-6.97 1.2-1.41 2.37-2.83 3.52-4.25 3.75-4.64 7.25-9.35 10.61-14.1 2.94-4.17 5.76-8.37 8.5-12.6 1.34-2.07 2.67-4.14 3.97-6.22 3.2-5.09 6.26-10.24 9.24-15.44.73-1.27 1.45-2.53 2.17-3.8 3.66-6.51 8.25-14.78 11.34-21.43 4.71-10.15-.84-22.19-11.22-26.37z" fill="#1eee6b"/>
		<path d="M61.52 41.29c-.25-.42-.48-.85-.73-1.27-1.44-2.46-5.23-9.94-10.5-17.77C42.11 10.08 30.37-2.92 18.34.75-7.06 8.52.15 65.48 7.85 89.09c1.06 3.24 2.21 6.32 3.46 9.26 5.03-9.96 10.32-21.86 14.78-33.18-6.14-21.35-5.71-42.89-2.16-46.42 4.63-4.59 12.03 7.27 17.46 17.54 2.72 5.14 4.95 9.88 6.08 11.95a798.1 798.1 0 003.54 6.4c5.53 9.94 11.19 19.77 17.32 29.63 3.2-4.61 6.27-9.47 9.23-14.49-5.27-9.43-10.51-18.98-16.05-28.49z" fill="url(#logo_svg__e)"/>
		<path d="M116.25 74.88c5.88 20.6 5.83 41.7.69 44.02-4.46 2-12.5-7.08-19.79-17.32-1.15 1.42-2.32 2.84-3.52 4.25-2.01 2.34-4.08 4.67-6.29 6.97 9.74 12.01 21.95 22.58 33.36 19.06 23.13-7.12 16.7-53.23 8.77-78.64-2.98 5.19-6.05 10.34-9.24 15.44-1.3 2.08-2.63 4.15-3.97 6.22z" fill="#b3f73e"/>
	</g>
</svg>