<?xml version="1.0" ?>
<svg xmlns="http://www.w3.org/2000/svg" viewBox="0 0 206 37" fill="none">
	<g clip-path="url(#clip0_1_552)">
		<rect y="0.5" width="30" height="30" rx="2" fill="#335EEA"/>
		<path d="M51.6707 14.3333L45.5994 30.5001H42.5289L36.4344 14.3333H39.2723L44.0642 27.7785L48.8793 14.3333H51.6707ZM58.4011 30.7094C57.1915 30.7094 56.0982 30.438 55.1212 29.8953C54.1442 29.337 53.3766 28.5616 52.8183 27.5691C52.26 26.5611 51.9809 25.398 51.9809 24.0799C51.9809 22.7772 52.2678 21.6219 52.8416 20.6139C53.4153 19.6059 54.1985 18.8305 55.191 18.2878C56.1835 17.745 57.2923 17.4736 58.5174 17.4736C59.7425 17.4736 60.8513 17.745 61.8438 18.2878C62.8362 18.8305 63.6194 19.6059 64.1932 20.6139C64.767 21.6219 65.0538 22.7772 65.0538 24.0799C65.0538 25.3825 64.7592 26.5379 64.1699 27.5459C63.5806 28.5538 62.7742 29.337 61.7507 29.8953C60.7427 30.438 59.6262 30.7094 58.4011 30.7094ZM58.4011 28.4065C59.0834 28.4065 59.7192 28.2437 60.3085 27.918C60.9133 27.5924 61.4018 27.1039 61.774 26.4526C62.1462 25.8012 62.3322 25.0104 62.3322 24.0799C62.3322 23.1494 62.1539 22.3663 61.7972 21.7305C61.4406 21.0792 60.9676 20.5907 60.3783 20.265C59.789 19.9393 59.1532 19.7765 58.4708 19.7765C57.7885 19.7765 57.1527 19.9393 56.5634 20.265C55.9896 20.5907 55.5321 21.0792 55.191 21.7305C54.8498 22.3663 54.6792 23.1494 54.6792 24.0799C54.6792 25.4601 55.0281 26.5301 55.726 27.29C56.4393 28.0343 57.331 28.4065 58.4011 28.4065ZM72.1182 24.0101L76.2588 30.5001H73.2581L70.4899 26.1502L67.8847 30.5001H65.1165L69.2571 24.1962L65.1165 17.683H68.1173L70.8854 22.0329L73.4907 17.683H76.2588L72.1182 24.0101ZM82.4702 14.3333C84.1915 14.3333 85.6957 14.6667 86.9829 15.3336C88.2855 15.9849 89.2858 16.9309 89.9836 18.1715C90.697 19.3966 91.0536 20.831 91.0536 22.4748C91.0536 24.1187 90.697 25.5454 89.9836 26.755C89.2858 27.9646 88.2855 28.895 86.9829 29.5463C85.6957 30.1822 84.1915 30.5001 82.4702 30.5001H77.1898V14.3333H82.4702ZM82.4702 28.3367C84.3621 28.3367 85.8121 27.825 86.8201 26.8015C87.828 25.778 88.332 24.3358 88.332 22.4748C88.332 20.5984 87.828 19.1329 86.8201 18.0784C85.8121 17.0239 84.3621 16.4966 82.4702 16.4966H79.8416V28.3367H82.4702ZM104.382 23.7775C104.382 24.2582 104.351 24.6924 104.289 25.0801H94.496C94.5735 26.1036 94.9535 26.9255 95.6358 27.5459C96.3181 28.1662 97.1555 28.4763 98.148 28.4763C99.5747 28.4763 100.583 27.8793 101.172 26.6852H104.033C103.645 27.8638 102.94 28.833 101.916 29.5929C100.908 30.3372 99.6523 30.7094 98.148 30.7094C96.9229 30.7094 95.8219 30.438 94.8449 29.8953C93.8834 29.337 93.1235 28.5616 92.5653 27.5691C92.0225 26.5611 91.7511 25.398 91.7511 24.0799C91.7511 22.7617 92.0148 21.6064 92.542 20.6139C93.0848 19.6059 93.8369 18.8305 94.7984 18.2878C95.7754 17.745 96.8919 17.4736 98.148 17.4736C99.3576 17.4736 100.435 17.7373 101.381 18.2645C102.327 18.7918 103.064 19.5361 103.591 20.4976C104.118 21.4436 104.382 22.5369 104.382 23.7775ZM101.614 22.9401C101.598 21.9631 101.25 21.18 100.567 20.5907C99.8849 20.0014 99.0397 19.7067 98.0317 19.7067C97.1168 19.7067 96.3336 20.0014 95.6823 20.5907C95.031 21.1645 94.6433 21.9476 94.5192 22.9401H101.614ZM110.597 30.7094C109.589 30.7094 108.682 30.5311 107.876 30.1744C107.085 29.8022 106.457 29.306 105.992 28.6857C105.526 28.0499 105.278 27.3443 105.247 26.5689H107.992C108.039 27.1116 108.294 27.5691 108.76 27.9413C109.24 28.298 109.837 28.4763 110.551 28.4763C111.295 28.4763 111.869 28.3367 112.272 28.0576C112.691 27.763 112.9 27.3908 112.9 26.9411C112.9 26.4603 112.668 26.1036 112.202 25.871C111.753 25.6384 111.032 25.3825 110.039 25.1034C109.078 24.8398 108.294 24.5839 107.69 24.3358C107.085 24.0876 106.558 23.7077 106.108 23.196C105.674 22.6842 105.456 22.0096 105.456 21.1722C105.456 20.4899 105.658 19.8696 106.061 19.3113C106.464 18.7375 107.038 18.2878 107.783 17.9621C108.543 17.6365 109.411 17.4736 110.388 17.4736C111.846 17.4736 113.016 17.8458 113.9 18.5902C114.8 19.319 115.281 20.3193 115.343 21.5909H112.691C112.644 21.0171 112.412 20.5597 111.993 20.2185C111.574 19.8773 111.008 19.7067 110.295 19.7067C109.597 19.7067 109.062 19.8385 108.69 20.1022C108.318 20.3658 108.132 20.7147 108.132 21.1489C108.132 21.4901 108.256 21.777 108.504 22.0096C108.752 22.2422 109.054 22.4283 109.411 22.5679C109.768 22.692 110.295 22.8548 110.993 23.0564C111.923 23.3045 112.683 23.5604 113.272 23.824C113.877 24.0721 114.397 24.4443 114.831 24.9406C115.265 25.4368 115.49 26.0959 115.505 26.9178C115.505 27.6467 115.304 28.298 114.901 28.8718C114.497 29.4455 113.924 29.8953 113.179 30.2209C112.45 30.5466 111.59 30.7094 110.597 30.7094ZM122.395 24.1032L128.303 30.5001H124.721L119.976 24.9871V30.5001H117.324V13.2866H119.976V23.289L124.628 17.683H128.303L122.395 24.1032Z" fill="#335EEA"/>
		<path d="M37.415 4.06012L36.7463 3.88845L37.0761 0.613127H40.4508V1.38565H37.7854L37.5866 3.17465C37.7071 3.10538 37.8592 3.04063 38.0429 2.98039C38.2297 2.92016 38.4435 2.89004 38.6844 2.89004C38.9886 2.89004 39.2612 2.94274 39.5021 3.04816C39.7431 3.15056 39.9479 3.29814 40.1165 3.49089C40.2882 3.68364 40.4192 3.91555 40.5096 4.18661C40.5999 4.45767 40.6451 4.76036 40.6451 5.09467C40.6451 5.4109 40.6014 5.70154 40.5141 5.96658C40.4298 6.23162 40.3018 6.46352 40.1301 6.6623C39.9584 6.85807 39.7416 7.01016 39.4795 7.11859C39.2205 7.22701 38.9148 7.28122 38.5625 7.28122C38.2974 7.28122 38.0459 7.24508 37.808 7.1728C37.5731 7.09751 37.3623 6.98456 37.1755 6.83397C36.9918 6.68037 36.8412 6.49063 36.7238 6.26475C36.6093 6.03585 36.537 5.7678 36.5069 5.4606H37.302C37.3382 5.70757 37.4104 5.91538 37.5189 6.08404C37.6273 6.2527 37.7688 6.3807 37.9435 6.46804C38.1212 6.55237 38.3275 6.59454 38.5625 6.59454C38.7612 6.59454 38.9374 6.5599 39.091 6.49063C39.2446 6.42136 39.3741 6.32197 39.4795 6.19246C39.585 6.06296 39.6648 5.90634 39.719 5.72262C39.7762 5.53891 39.8048 5.3326 39.8048 5.1037C39.8048 4.89589 39.7762 4.70313 39.719 4.52544C39.6618 4.34774 39.5759 4.19264 39.4615 4.06012C39.35 3.9276 39.213 3.8252 39.0504 3.75292C38.8877 3.67762 38.701 3.63997 38.4902 3.63997C38.2101 3.63997 37.9977 3.67762 37.8532 3.75292C37.7116 3.82821 37.5656 3.93061 37.415 4.06012ZM45.6914 3.37795V4.38087C45.6914 4.91998 45.6432 5.37476 45.5468 5.74521C45.4504 6.11566 45.3119 6.41383 45.1312 6.63971C44.9505 6.8656 44.7321 7.02974 44.4761 7.13214C44.2231 7.23153 43.937 7.28122 43.6177 7.28122C43.3648 7.28122 43.1313 7.2496 42.9175 7.18635C42.7037 7.12311 42.5109 7.02221 42.3392 6.88367C42.1706 6.74211 42.026 6.5584 41.9055 6.33251C41.7851 6.10663 41.6932 5.83256 41.63 5.51029C41.5667 5.18803 41.5351 4.81156 41.5351 4.38087V3.37795C41.5351 2.83884 41.5833 2.38707 41.6797 2.02264C41.779 1.65822 41.9191 1.36607 42.0998 1.14621C42.2805 0.923341 42.4974 0.763716 42.7503 0.667339C43.0063 0.570962 43.2925 0.522773 43.6087 0.522773C43.8647 0.522773 44.0996 0.554397 44.3135 0.617645C44.5303 0.677881 44.7231 0.775764 44.8917 0.911294C45.0604 1.04381 45.2034 1.22151 45.3209 1.44438C45.4414 1.66424 45.5332 1.9338 45.5965 2.25305C45.6597 2.57229 45.6914 2.94726 45.6914 3.37795ZM44.8511 4.5164V3.2379C44.8511 2.94274 44.833 2.68373 44.7969 2.46086C44.7637 2.23497 44.714 2.04222 44.6478 1.8826C44.5815 1.72297 44.4972 1.59346 44.3948 1.49407C44.2954 1.39469 44.1794 1.3224 44.0469 1.27723C43.9174 1.22904 43.7713 1.20494 43.6087 1.20494C43.4099 1.20494 43.2337 1.24259 43.0801 1.31789C42.9265 1.39017 42.797 1.50612 42.6916 1.66575C42.5892 1.82537 42.5109 2.03469 42.4567 2.2937C42.4025 2.55272 42.3754 2.86745 42.3754 3.2379V4.5164C42.3754 4.81156 42.3919 5.07208 42.4251 5.29796C42.4612 5.52385 42.5139 5.71961 42.5832 5.88526C42.6525 6.0479 42.7368 6.18192 42.8362 6.28733C42.9356 6.39275 43.05 6.47105 43.1795 6.52225C43.312 6.57044 43.4581 6.59454 43.6177 6.59454C43.8225 6.59454 44.0017 6.55538 44.1553 6.47708C44.3089 6.39877 44.4369 6.27679 44.5393 6.11115C44.6448 5.94249 44.7231 5.72714 44.7743 5.46512C44.8255 5.20008 44.8511 4.88384 44.8511 4.5164ZM50.8957 3.37795V4.38087C50.8957 4.91998 50.8475 5.37476 50.7512 5.74521C50.6548 6.11566 50.5162 6.41383 50.3355 6.63971C50.1548 6.8656 49.9365 7.02974 49.6805 7.13214C49.4275 7.23153 49.1414 7.28122 48.8221 7.28122C48.5691 7.28122 48.3357 7.2496 48.1219 7.18635C47.908 7.12311 47.7153 7.02221 47.5436 6.88367C47.3749 6.74211 47.2304 6.5584 47.1099 6.33251C46.9894 6.10663 46.8976 5.83256 46.8343 5.51029C46.7711 5.18803 46.7395 4.81156 46.7395 4.38087V3.37795C46.7395 2.83884 46.7876 2.38707 46.884 2.02264C46.9834 1.65822 47.1235 1.36607 47.3042 1.14621C47.4849 0.923341 47.7017 0.763716 47.9547 0.667339C48.2107 0.570962 48.4968 0.522773 48.8131 0.522773C49.0691 0.522773 49.304 0.554397 49.5178 0.617645C49.7347 0.677881 49.9274 0.775764 50.0961 0.911294C50.2648 1.04381 50.4078 1.22151 50.5253 1.44438C50.6457 1.66424 50.7376 1.9338 50.8009 2.25305C50.8641 2.57229 50.8957 2.94726 50.8957 3.37795ZM50.0554 4.5164V3.2379C50.0554 2.94274 50.0374 2.68373 50.0012 2.46086C49.9681 2.23497 49.9184 2.04222 49.8521 1.8826C49.7859 1.72297 49.7016 1.59346 49.5992 1.49407C49.4998 1.39469 49.3838 1.3224 49.2513 1.27723C49.1218 1.22904 48.9757 1.20494 48.8131 1.20494C48.6143 1.20494 48.4381 1.24259 48.2845 1.31789C48.1309 1.39017 48.0014 1.50612 47.896 1.66575C47.7936 1.82537 47.7153 2.03469 47.6611 2.2937C47.6069 2.55272 47.5797 2.86745 47.5797 3.2379V4.5164C47.5797 4.81156 47.5963 5.07208 47.6294 5.29796C47.6656 5.52385 47.7183 5.71961 47.7876 5.88526C47.8568 6.0479 47.9412 6.18192 48.0406 6.28733C48.1399 6.39275 48.2544 6.47105 48.3839 6.52225C48.5164 6.57044 48.6625 6.59454 48.8221 6.59454C49.0269 6.59454 49.2061 6.55538 49.3597 6.47708C49.5133 6.39877 49.6413 6.27679 49.7437 6.11115C49.8491 5.94249 49.9274 5.72714 49.9786 5.46512C50.0298 5.20008 50.0554 4.88384 50.0554 4.5164ZM54.9436 6.3551V3.83875C54.9436 3.646 54.9044 3.47884 54.8261 3.33729C54.7508 3.19272 54.6364 3.08129 54.4828 3.00298C54.3292 2.92467 54.1394 2.88552 53.9135 2.88552C53.7027 2.88552 53.5175 2.92166 53.3579 2.99395C53.2013 3.06623 53.0778 3.1611 52.9874 3.27856C52.9001 3.39602 52.8564 3.52251 52.8564 3.65804H52.0206C52.0206 3.48336 52.0658 3.31018 52.1562 3.13851C52.2465 2.96684 52.376 2.81173 52.5447 2.67319C52.7164 2.53164 52.9212 2.4202 53.1591 2.33888C53.4 2.25455 53.6681 2.21239 53.9632 2.21239C54.3186 2.21239 54.6318 2.27262 54.9029 2.39309C55.177 2.51357 55.3908 2.69578 55.5444 2.93973C55.701 3.18068 55.7793 3.48336 55.7793 3.84779V6.1247C55.7793 6.28733 55.7929 6.46051 55.82 6.64423C55.8501 6.82795 55.8938 6.98607 55.951 7.11859V7.19087H55.0791C55.0369 7.09449 55.0038 6.96649 54.9797 6.80687C54.9556 6.64423 54.9436 6.49364 54.9436 6.3551ZM55.0881 4.22727L55.0972 4.81457H54.2524C54.0144 4.81457 53.8021 4.83415 53.6154 4.8733C53.4286 4.90944 53.272 4.96516 53.1455 5.04045C53.019 5.11575 52.9227 5.21062 52.8564 5.32507C52.7901 5.4365 52.757 5.56752 52.757 5.71811C52.757 5.87171 52.7916 6.01176 52.8609 6.13825C52.9302 6.26475 53.0341 6.36564 53.1726 6.44094C53.3142 6.51322 53.4874 6.54936 53.6922 6.54936C53.9482 6.54936 54.1741 6.49515 54.3698 6.38672C54.5656 6.2783 54.7207 6.14578 54.8351 5.98917C54.9526 5.83256 55.0159 5.68046 55.0249 5.53288L55.3818 5.93496C55.3607 6.06145 55.3035 6.2015 55.2101 6.3551C55.1167 6.5087 54.9918 6.65628 54.8351 6.79783C54.6815 6.93638 54.4978 7.05233 54.284 7.14569C54.0732 7.23605 53.8352 7.28122 53.5702 7.28122C53.2389 7.28122 52.9483 7.21647 52.6983 7.08696C52.4513 6.95746 52.2586 6.78428 52.12 6.56743C51.9845 6.34757 51.9167 6.10211 51.9167 5.83105C51.9167 5.56902 51.9679 5.33862 52.0703 5.13984C52.1727 4.93805 52.3203 4.7709 52.5131 4.63838C52.7058 4.50285 52.9377 4.40045 53.2088 4.33118C53.4798 4.26191 53.7825 4.22727 54.1168 4.22727H55.0881ZM57.9298 3.24242V9.07023H57.0895V2.30274H57.8575L57.9298 3.24242ZM61.2231 4.70615V4.80102C61.2231 5.15641 61.181 5.4862 61.0967 5.79039C61.0123 6.09157 60.8888 6.35359 60.7262 6.57647C60.5666 6.79934 60.3693 6.97252 60.1344 7.096C59.8995 7.21948 59.6299 7.28122 59.3257 7.28122C59.0155 7.28122 58.7414 7.23002 58.5035 7.12762C58.2656 7.02522 58.0638 6.87614 57.8981 6.68037C57.7325 6.48461 57.6 6.24969 57.5006 5.97561C57.4042 5.70154 57.3379 5.39283 57.3018 5.04949V4.54351C57.3379 4.1821 57.4057 3.85833 57.5051 3.57221C57.6045 3.28609 57.7355 3.04213 57.8981 2.84034C58.0638 2.63554 58.2641 2.48044 58.499 2.37502C58.7339 2.2666 59.005 2.21239 59.3122 2.21239C59.6194 2.21239 59.8919 2.27262 60.1299 2.39309C60.3678 2.51055 60.5681 2.67921 60.7307 2.89907C60.8934 3.11893 61.0153 3.38247 61.0967 3.68967C61.181 3.99386 61.2231 4.33268 61.2231 4.70615ZM60.3829 4.80102V4.70615C60.3829 4.46219 60.3573 4.2333 60.3061 4.01946C60.2549 3.80261 60.175 3.61287 60.0666 3.45023C59.9612 3.28458 59.8257 3.15508 59.66 3.06171C59.4944 2.96533 59.2971 2.91714 59.0682 2.91714C58.8574 2.91714 58.6737 2.95329 58.5171 3.02557C58.3635 3.09785 58.2324 3.19573 58.124 3.31922C58.0156 3.43969 57.9267 3.57823 57.8575 3.73484C57.7912 3.88845 57.7415 4.04807 57.7084 4.21372V5.3838C57.7686 5.59462 57.853 5.7934 57.9614 5.98013C58.0698 6.16385 58.2144 6.31294 58.3951 6.42738C58.5758 6.53882 58.8032 6.59454 59.0772 6.59454C59.3031 6.59454 59.4974 6.54785 59.66 6.45449C59.8257 6.35811 59.9612 6.2271 60.0666 6.06145C60.175 5.8958 60.2549 5.70606 60.3061 5.49222C60.3573 5.27537 60.3829 5.04497 60.3829 4.80102ZM63.1251 3.24242V9.07023H62.2848V2.30274H63.0528L63.1251 3.24242ZM66.4185 4.70615V4.80102C66.4185 5.15641 66.3763 5.4862 66.292 5.79039C66.2077 6.09157 66.0842 6.35359 65.9215 6.57647C65.7619 6.79934 65.5646 6.97252 65.3297 7.096C65.0948 7.21948 64.8252 7.28122 64.5211 7.28122C64.2108 7.28122 63.9368 7.23002 63.6988 7.12762C63.4609 7.02522 63.2591 6.87614 63.0935 6.68037C62.9278 6.48461 62.7953 6.24969 62.6959 5.97561C62.5995 5.70154 62.5333 5.39283 62.4971 5.04949V4.54351C62.5333 4.1821 62.601 3.85833 62.7004 3.57221C62.7998 3.28609 62.9308 3.04213 63.0935 2.84034C63.2591 2.63554 63.4594 2.48044 63.6943 2.37502C63.9292 2.2666 64.2003 2.21239 64.5075 2.21239C64.8147 2.21239 65.0873 2.27262 65.3252 2.39309C65.5631 2.51055 65.7634 2.67921 65.9261 2.89907C66.0887 3.11893 66.2107 3.38247 66.292 3.68967C66.3763 3.99386 66.4185 4.33268 66.4185 4.70615ZM65.5782 4.80102V4.70615C65.5782 4.46219 65.5526 4.2333 65.5014 4.01946C65.4502 3.80261 65.3704 3.61287 65.262 3.45023C65.1565 3.28458 65.021 3.15508 64.8554 3.06171C64.6897 2.96533 64.4924 2.91714 64.2635 2.91714C64.0527 2.91714 63.869 2.95329 63.7124 3.02557C63.5588 3.09785 63.4278 3.19573 63.3193 3.31922C63.2109 3.43969 63.1221 3.57823 63.0528 3.73484C62.9865 3.88845 62.9369 4.04807 62.9037 4.21372V5.3838C62.964 5.59462 63.0483 5.7934 63.1567 5.98013C63.2651 6.16385 63.4097 6.31294 63.5904 6.42738C63.7711 6.53882 63.9985 6.59454 64.2726 6.59454C64.4985 6.59454 64.6927 6.54785 64.8554 6.45449C65.021 6.35811 65.1565 6.2271 65.262 6.06145C65.3704 5.8958 65.4502 5.70606 65.5014 5.49222C65.5526 5.27537 65.5782 5.04497 65.5782 4.80102ZM70.3308 5.8943C70.3308 5.77383 70.3037 5.66239 70.2495 5.55999C70.1983 5.45458 70.0914 5.3597 69.9287 5.27537C69.7691 5.18803 69.5282 5.11274 69.2059 5.04949C68.9348 4.99227 68.6894 4.9245 68.4695 4.84619C68.2527 4.76789 68.0674 4.67302 67.9138 4.56158C67.7632 4.45014 67.6473 4.31913 67.566 4.16854C67.4847 4.01795 67.444 3.84176 67.444 3.63997C67.444 3.44722 67.4862 3.26501 67.5705 3.09333C67.6578 2.92166 67.7798 2.76957 67.9364 2.63705C68.096 2.50453 68.2873 2.40062 68.5102 2.32533C68.733 2.25003 68.9815 2.21239 69.2556 2.21239C69.6471 2.21239 69.9814 2.28166 70.2585 2.4202C70.5356 2.55874 70.7479 2.74397 70.8955 2.97587C71.0431 3.20477 71.1169 3.45927 71.1169 3.73936H70.2811C70.2811 3.60383 70.2404 3.47282 70.1591 3.34632C70.0808 3.21682 69.9649 3.1099 69.8113 3.02557C69.6607 2.94124 69.4754 2.89907 69.2556 2.89907C69.0237 2.89907 68.8354 2.93522 68.6909 3.0075C68.5493 3.07677 68.4454 3.16562 68.3792 3.27404C68.3159 3.38247 68.2843 3.49691 68.2843 3.61739C68.2843 3.70774 68.2993 3.78906 68.3295 3.86134C68.3626 3.93061 68.4198 3.99536 68.5011 4.0556C68.5824 4.11282 68.6969 4.16704 68.8445 4.21824C68.9921 4.26944 69.1803 4.32064 69.4092 4.37184C69.8098 4.46219 70.1395 4.57062 70.3986 4.69711C70.6576 4.82361 70.8503 4.97871 70.9768 5.16243C71.1033 5.34615 71.1666 5.56902 71.1666 5.83105C71.1666 6.04489 71.1214 6.24065 71.031 6.41835C70.9437 6.59604 70.8157 6.74964 70.647 6.87915C70.4814 7.00565 70.2826 7.10504 70.0507 7.17732C69.8218 7.24659 69.5643 7.28122 69.2782 7.28122C68.8475 7.28122 68.4831 7.20442 68.1849 7.05082C67.8867 6.89722 67.6608 6.69844 67.5072 6.45449C67.3536 6.21053 67.2768 5.95303 67.2768 5.68197H68.1171C68.1292 5.91086 68.1954 6.09307 68.3159 6.22861C68.4364 6.36112 68.584 6.456 68.7586 6.51322C68.9333 6.56743 69.1065 6.59454 69.2782 6.59454C69.5071 6.59454 69.6983 6.56442 69.8519 6.50418C70.0085 6.44395 70.1275 6.36112 70.2088 6.25571C70.2901 6.1503 70.3308 6.02983 70.3308 5.8943Z" fill="#868686"/>
		<path d="M16.5527 16.385V17.2649C16.5531 17.3466 16.5362 17.4274 16.5031 17.5023C16.4701 17.5771 16.4216 17.6443 16.3608 17.6995C16.3 17.7548 16.2282 17.7968 16.15 17.823C16.0719 17.8491 15.9891 17.8589 15.9069 17.8515C14.9952 17.7534 14.1195 17.445 13.3501 16.9511C12.6343 16.5008 12.0274 15.8999 11.5725 15.1913C11.0718 14.4261 10.7603 13.5549 10.663 12.6483C10.6556 12.5672 10.6653 12.4855 10.6916 12.4083C10.7178 12.3311 10.7601 12.2602 10.8155 12.2001C10.871 12.1399 10.9385 12.0919 11.0137 12.0589C11.089 12.026 11.1703 12.009 11.2526 12.0089H12.1414C12.2851 12.0075 12.4245 12.0579 12.5335 12.1508C12.6426 12.2436 12.7138 12.3725 12.7339 12.5134C12.7714 12.795 12.841 13.0715 12.9413 13.3376C12.9811 13.4426 12.9898 13.5567 12.9661 13.6663C12.9425 13.776 12.8876 13.8767 12.808 13.9565L12.4317 14.3289C12.8535 15.0632 13.4676 15.6712 14.2093 16.0888L14.5855 15.7163C14.6661 15.6374 14.7678 15.5831 14.8786 15.5597C14.9894 15.5363 15.1046 15.5448 15.2107 15.5843C15.4795 15.6836 15.7587 15.7525 16.0432 15.7896C16.1871 15.8097 16.3185 15.8815 16.4125 15.9912C16.5064 16.101 16.5563 16.2412 16.5527 16.385Z" fill="white"/>
		<path d="M22.1208 10.731V13.2867H19.5392" stroke="white" stroke-width="1.82857" stroke-linecap="square"/>
		<path d="M5.09268 19.1483V16.3523H7.91692" stroke="white" stroke-width="1.82857" stroke-linecap="square"/>
		<path d="M7.03552 12.5208C7.42807 11.4226 8.09524 10.4407 8.97476 9.66681C9.85429 8.8929 10.9175 8.35217 12.0652 8.09508C13.2129 7.838 14.4077 7.87293 15.5381 8.19662C16.6685 8.52032 17.6976 9.12223 18.5295 9.94618L21.5245 12.8398M5.56355 16.7496L8.68415 19.6931C9.51601 20.517 10.5451 21.1189 11.6755 21.4426C12.8059 21.7663 14.0007 21.8012 15.1484 21.5442C16.2961 21.2871 17.3593 20.7463 18.2389 19.9724C19.1184 19.1985 19.7856 18.2166 20.1781 17.1184" stroke="white" stroke-width="1.82857" stroke-linecap="square" stroke-linejoin="round"/>
	</g>
	<defs>
		<clipPath id="clip0_1_552">
			<rect width="206" height="36" fill="white" transform="translate(0 0.5)"/>
		</clipPath>
	</defs>
</svg>