<?xml version="1.0" ?>
<svg xmlns="http://www.w3.org/2000/svg" xmlns:xlink="http://www.w3.org/1999/xlink" data-name="\u56FE\u5C42 2" viewBox="0 0 627.24 132.63">
	<defs>
		<linearGradient id="logo_svg__a" x1="34.46" y1="69.4" x2="7.57" y2="131.6" gradientUnits="userSpaceOnUse">
			<stop offset="0" stop-color="#b3f73e"/>
			<stop offset="1" stop-color="#1eee6b"/>
		</linearGradient>
		<linearGradient id="logo_svg__c" x1="29.54" y1="67.27" x2="2.65" y2="129.47" xlink:href="#logo_svg__a"/>
		<linearGradient id="logo_svg__d" x1="52.23" y1="77.08" x2="25.35" y2="139.28" xlink:href="#logo_svg__a"/>
		<radialGradient id="logo_svg__b" cx="235.66" cy="26.27" fx="235.66" fy="26.27" r="29.79" gradientUnits="userSpaceOnUse">
			<stop offset="0" stop-color="#b3f73e"/>
			<stop offset="1" stop-color="#1eee6b"/>
		</radialGradient>
		<radialGradient id="logo_svg__e" cx="73.05" cy="76.15" fx="73.05" fy="76.15" r="57.8" gradientTransform="rotate(-55.17 90.087 67.253) scale(1 .77)" xlink:href="#logo_svg__b"/>
	</defs>
	<path fill="currentColor" d="M472.16 99.17c11.13 0 15.59-6.41 16.66-7.64l7.38 6.63c-3.17 3.89-9.71 10.65-24.03 10.65S442.74 99 442.74 78.59s14.63-30.22 29.34-30.22 27.34 11.96 27.34 27.42c.06 2.35.06 4.45-.18 6.63h-45.77c0 5.11 5.61 16.75 18.7 16.75zm14.42-34.11c-1.57-2.44-3.6-4.29-6.08-5.53-2.48-1.24-5.29-1.86-8.43-1.86-3.5 0-6.57.66-9.2 1.97-2.63 1.31-4.73 3.18-6.3 5.58-1.57 2.41-2.57 5.26-3.01 8.54h35.6c-.37-3.36-1.02-6.26-2.59-8.7zM254.92 104.75c-4.64-2.7-8.23-6.37-10.78-11-2.56-4.63-3.83-9.73-3.83-15.27s1.28-10.62 3.83-15.22c2.55-4.6 6.13-8.23 10.73-10.89 4.6-2.66 9.89-4 15.88-4s11.51 1.33 16.15 4c4.63 2.67 8.19 6.3 10.68 10.89 2.48 4.6 3.72 9.67 3.72 15.22s-1.24 10.75-3.72 15.38c-2.48 4.64-6.04 8.29-10.68 10.95-4.64 2.67-10.02 4-16.15 4s-11.19-1.35-15.82-4.05zm26.83-8.16c3.03-1.71 5.33-4.12 6.9-7.23 1.57-3.1 2.35-6.73 2.35-10.89s-.79-7.66-2.35-10.73c-1.57-3.07-3.87-5.46-6.9-7.17-3.03-1.71-6.7-2.57-11-2.57s-7.85.86-10.84 2.57c-2.99 1.72-5.29 4.11-6.9 7.17-1.61 3.07-2.41 6.64-2.41 10.73s.8 7.79 2.41 10.89c1.6 3.1 3.92 5.51 6.95 7.23 3.03 1.72 6.62 2.57 10.78 2.57s7.97-.86 11-2.57zM577.52 76.68l30.89-27.11h15l-30.66 27.15 34.49 30.88h-14.89l-34.83-30.93zM577.52 107.6h-10.29V24.61h10.29v82.99zM551.94 93.79c-3.23 3.65-7.96 5.91-14.17 5.91-12.77 0-19.32-9.48-19.32-21.17s4.72-21.17 19.32-21.17c6.87 0 11.54 2.12 14.57 5.56l7.6-6.51c-4.91-5.18-12.23-8.36-22.17-8.36-20.61 0-29.95 13.64-29.95 30.47s10.15 30.47 29.95 30.47c9.65 0 16.99-3.24 22-8.51l-7.83-6.7zM214.48 107.6l-30.6-81.04h-10.77l29.97 81.04h11.4z"/>
	<path d="M235.91 26.56l-19.52 52.02h11.07c8.38-22.75 18.69-50.77 19.13-52.02h-10.67z" fill="url(#logo_svg__b)"/>
	<g fill="currentColor">
		<path d="M342.54 74.22l19.41-24.65h-12.92l-13.02 16.42 6.53 8.23zM349.35 90.26l-16.3-20.54-15.99-20.15h-13.03l22.56 28.36-23.55 29.67h13.03l16.98-21.35 17.08 21.35h12.92l-13.7-17.34z"/>
	</g>
	<path fill="currentColor" d="M370.68 97.31v10.29h24.16c22.38 0 40.52-14.9 40.52-40.52 0-25.1-18.14-40.52-40.52-40.52h-24.16v66.1h10.55v-55.6l13.61-.1c16.64 0 30.12 11.41 30.12 30.12 0 18.33-13.49 30.12-30.12 30.12l-24.16.1z"/>
	<g>
		<path d="M41.4 36.29c-2.35 4.06-4.66 8.25-6.97 12.45-2.59 4.69-5.43 10.34-8.33 16.43 1.47 5.13 3.32 10.24 5.61 15.09.2.44.44.93.69 1.47 5-7.88 10.46-15.99 16.34-24 .7-.96 1.47-2 2.28-3.1-1.18-2.13-2.36-4.26-3.54-6.4-1.14-2.07-3.36-6.81-6.08-11.95z" fill="url(#logo_svg__a)"/>
		<path d="M.16 126.68c-.44 1.41.08 2.98 1.43 3.67 1.46.74 3.24.16 3.98-1.29 2.88-5.63 6.54-12.61 10.89-20.43-1.85-3.16-3.57-6.59-5.14-10.28C5.74 111.6 1.38 122.79.16 126.68z" fill="url(#logo_svg__c)"/>
		<path d="M83.24.05C69.3.81 59.11 9.89 50.29 22.25c5.27 7.83 9.06 15.31 10.5 17.77.25.42.48.84.73 1.27 7.4-8.67 15.69-16.46 21.92-16.22 4.46.17 8.66 3.58 12.7 8.86.34-.74.7-1.46 1.04-2.2 2.89-6.28 5.7-12.67 8.21-18.9.44-1.08.97-2.09 1.56-3.05C100.55 3.43 92.78-.48 83.24.05z" fill="url(#logo_svg__d)"/>
		<path d="M131.76 1.62c-9.3-3.75-19.72-.09-24.8 8.16-.59.96-1.13 1.97-1.56 3.05-2.51 6.23-5.32 12.62-8.21 18.9-.34.74-.7 1.47-1.04 2.2-2.59 5.54-5.26 11.05-8.02 16.48-3.36 6.58-6.87 13.09-10.56 19.36-2.95 5.02-6.02 9.88-9.23 14.49-.25.36-.49.73-.74 1.08-1.88 2.63-13.15 17.98-17.62 17.45-7.77-.93-14.46-14.46-17.58-21.06-.25-.54-.49-1.04-.69-1.47-2.28-4.85-4.13-9.97-5.61-15.09-5.06 10.61-10.31 22.55-14.78 33.18 1.57 3.69 3.29 7.12 5.14 10.28 8.94 15.28 21.02 24.16 34.93 24 17.95-.21 31.1-14.95 34.04-17.88.65-.65 1.28-1.3 1.91-1.95 2.21-2.3 4.29-4.63 6.29-6.97 1.2-1.41 2.37-2.83 3.52-4.25 3.75-4.64 7.25-9.35 10.61-14.1 2.94-4.17 5.76-8.37 8.5-12.6 1.34-2.07 2.67-4.14 3.97-6.22 3.2-5.09 6.26-10.24 9.24-15.44.73-1.27 1.45-2.53 2.17-3.8 3.66-6.51 8.25-14.78 11.34-21.43 4.71-10.15-.84-22.19-11.22-26.37z" fill="#1eee6b"/>
		<path d="M61.52 41.29c-.25-.42-.48-.85-.73-1.27-1.44-2.46-5.23-9.94-10.5-17.77C42.11 10.08 30.37-2.92 18.34.75-7.06 8.52.15 65.48 7.85 89.09c1.06 3.24 2.21 6.32 3.46 9.26 5.03-9.96 10.32-21.86 14.78-33.18-6.14-21.35-5.71-42.89-2.16-46.42 4.63-4.59 12.03 7.27 17.46 17.54 2.72 5.14 4.95 9.88 6.08 11.95a798.1 798.1 0 003.54 6.4c5.53 9.94 11.19 19.77 17.32 29.63 3.2-4.61 6.27-9.47 9.23-14.49-5.27-9.43-10.51-18.98-16.05-28.49z" fill="url(#logo_svg__e)"/>
		<path d="M116.25 74.88c5.88 20.6 5.83 41.7.69 44.02-4.46 2-12.5-7.08-19.79-17.32-1.15 1.42-2.32 2.84-3.52 4.25-2.01 2.34-4.08 4.67-6.29 6.97 9.74 12.01 21.95 22.58 33.36 19.06 23.13-7.12 16.7-53.23 8.77-78.64-2.98 5.19-6.05 10.34-9.24 15.44-1.3 2.08-2.63 4.15-3.97 6.22z" fill="#b3f73e"/>
	</g>
</svg>