<?xml version="1.0" ?>
<svg xmlns="http://www.w3.org/2000/svg" xmlns:xlink="http://www.w3.org/1999/xlink" xmlns:v="https://vecta.io/nano" viewBox="0 0 351.381 285.345">
	<style>.B{overflow:visible}.C{stroke:none}.D{fill:#7f7f7f}.E{fill-rule:evenodd}.F{stroke:#7f7f7f}.G{stroke-width:3.346}.H{stroke-linecap:round}.I{stroke-linejoin:round}.J{stroke-miterlimit:10}</style>
	<defs>
		<symbol id="A" class="B">
			<path d="M 28.656,0.0 L 43.875,-44.109 L 31.766,-44.109 L 22.844,-11.843 L 13.266,-44.109 L 1.141,-44.109 L 16.625,0.0 L 28.656,0.0" class="C"/>
		</symbol>
		<symbol id="B" class="B">
			<path d="M 32.25,-44.109 L 23.078,-12.0 L 13.344,-44.109 L 0.734,-44.109 L 17.188,1.797 C 17.188,6.375 14.329,9.469 10.063,9.469 C 9.172,9.469 8.438,9.313 7.047,8.985 L 7.047,17.563 C 8.766,17.797 9.735,17.891 11.141,17.891 C 14.079,17.891 17.36,17.313 19.407,16.5 C 22.595,15.188 23.985,13.391 25.876,8.078 L 44.048,-44.109 L 32.25,-44.109" class="C"/>
		</symbol>
		<symbol id="C" class="B">
			<path d="M 5.484,-59.531 L 5.484,0.0 L 16.937,0.0 L 16.937,-26.469 C 16.937,-31.531 20.625,-35.125 25.781,-35.125 C 28.328,-35.125 30.203,-34.219 31.515,-32.422 C 32.578,-30.953 32.828,-29.734 32.828,-26.953 L 32.828,0.0 L 44.281,0.0 L 44.281,-29.562 C 44.281,-35.031 42.812,-38.953 39.781,-41.484 C 37.25,-43.609 33.562,-44.843 29.875,-44.843 C 24.234,-44.843 20.141,-42.624 16.938,-37.734 L 16.938,-59.531 L 5.484,-59.531" class="C"/>
		</symbol>
		<symbol id="D" class="B">
			<path d="M 24.641,-44.844 C 11.141,-44.844 2.86,-35.938 2.86,-21.485 C 2.86,-6.938 11.141,1.874 24.719,1.874 C 38.235,1.874 46.578,-6.938 46.578,-21.157 C 46.578,-36.094 38.469,-44.844 24.641,-44.844 L 24.641,-44.844 M 24.719,-35.61 C 31.032,-35.61 35.125,-29.969 35.125,-21.313 C 35.125,-13.063 30.859,-7.344 24.719,-7.344 C 18.5,-7.344 14.328,-12.985 14.328,-21.485 C 14.328,-29.969 18.5,-35.61 24.719,-35.61 L 24.719,-35.61" class="C"/>
		</symbol>
		<symbol id="E" class="B">
			<path d="M 33.156,0.0 L 44.609,0.0 L 44.609,-59.531 L 33.156,-59.531 L 33.156,-38.39 C 30.281,-42.796 26.515,-44.843 20.953,-44.843 C 10.391,-44.843 2.375,-34.702 2.375,-21.39 C 2.375,-15.437 4.172,-9.39 7.125,-5.14 C 10.156,-0.812 15.547,1.876 20.953,1.876 C 26.516,1.876 30.281,-0.077 33.156,-4.483 L 33.156,0.0 M 23.5,-35.281 C 29.313,-35.281 33.156,-29.734 33.156,-21.234 C 33.156,-13.234 29.219,-7.671 23.5,-7.671 C 17.766,-7.671 13.828,-13.312 13.828,-21.39 C 13.828,-29.64 17.766,-35.281 23.5,-35.281" class="C"/>
		</symbol>
		<symbol id="F" class="B">
			<path d="M 4.828,-59.531 L 4.828,0.0 L 16.297,0.0 L 16.297,-4.484 C 19.078,-0.156 22.922,1.875 28.485,1.875 C 39.048,1.875 47.063,-8.172 47.063,-21.484 C 47.063,-27.437 45.266,-33.484 42.329,-37.734 C 39.298,-42.062 33.892,-44.843 28.485,-44.843 C 22.923,-44.843 19.079,-42.796 16.298,-38.39 L 16.298,-59.531 L 4.828,-59.531 M 25.953,-35.281 C 31.594,-35.281 35.609,-29.562 35.609,-21.39 C 35.609,-13.312 31.672,-7.671 25.953,-7.671 C 20.141,-7.671 16.297,-13.155 16.297,-21.64 C 16.297,-29.734 20.219,-35.281 25.953,-35.281 L 25.953,-35.281" class="C"/>
		</symbol>
	</defs>
	<g transform="matrix(1.215817 0 0 1.216162 -.439282 -.439407)">
		<g class="D">
			<use y="217.098" x="1.242" xlink:href="#A"/>
			<use y="217.098" x="46.769" xlink:href="#B"/>
			<use y="217.098" x="92.296" xlink:href="#C"/>
			<use y="217.098" x="142.299" xlink:href="#D"/>
			<use y="217.098" x="192.303" xlink:href="#E"/>
			<use y="217.098" x="242.307" xlink:href="#F"/>
		</g>
		<path d="M 2.034,157.308 L 76.46,157.308 L 76.46,100.847 L 2.034,100.847 L 2.034,157.308 M 100.085,58.495 L 174.511,58.495 L 174.511,2.034 L 100.085,2.034 L 100.085,58.495 M 100.085,157.308 L 174.511,157.308 L 174.511,100.847 L 100.085,100.847 L 100.085,157.308 M 201.112,157.308 L 275.538,157.308 L 275.538,100.847 L 201.112,100.847 L 201.112,157.308" fill="#e6eef5" class="E F G H I J"/>
		<path d="M 39.249,100.843 L 39.249,88.046 L 111.405,88.046 L 111.405,76.573" fill="none" class="F G H I J"/>
		<path d="M 104.815,78.214 L 111.405,58.495 L 117.995,78.214 L 104.815,78.214" class="D E"/>
		<path d="M 137.304,100.843 L 137.304,76.573" fill="none" class="F G H I J"/>
		<path d="M 130.714,78.214 L 137.304,58.495 L 143.89,78.214 L 130.714,78.214" class="D E"/>
		<path d="M 238.319,100.843 L 238.319,88.425 L 162.339,88.425 L 162.339,76.573" fill="none" class="F G H I J"/>
		<path d="M 155.749,78.214 L 162.339,58.495 L 168.929,78.214 L 155.749,78.214" class="D E"/>
	</g>
</svg>