<?xml version="1.0" ?>
<!-- Generator: Adobe Illustrator 24.1.3, SVG Export Plug-In . SVG Version: 6.00 Build 0)  -->
<svg xmlns="http://www.w3.org/2000/svg" version="1.2" baseProfile="tiny-ps" id="Camada_1" viewBox="0 0 40 40" xml:space="preserve">
	<g>
		<path fill="#1AC2BC" d="M15.5,28.2c0.2-0.2,0.4-0.4,0.6-0.6c0.2,0.8,0.5,0.8-0.2,1.4c-0.4,0.3-0.8,0.5-1.2,0.7l0,0   c-1.3,0.6-2.8,0.5-4.1,0l0,0c-0.5-0.3-1.1-0.6-1.5-1l0,0c-0.3-0.2-0.5-0.5-0.7-0.7l0,0c-0.2-0.2-0.5-0.8-0.7-0.8   c-0.8,0.1-1.7,0.1-2.5,0l0,0c-0.1,0-0.2-0.1-0.3-0.1c-1.1-0.3-2-1-2.6-2c-0.7-1.1,0.6-2.6,1-1.4C3.4,25,4.4,26,5.7,26.2   c0.5,0.1,1,0.1,1.5,0C7.1,26,7,25.8,6.9,25.6c-0.2-0.5-0.3-1-0.5-1.5c0-0.1,0-0.1-0.1-0.1c-0.1,0-0.2,0-0.3-0.1l0,0   c-0.1,0-0.1,0-0.2-0.1c-0.1,0-0.1,0-0.2-0.1c-1.5-0.5-2.2-2.2-2.4-3.7c-0.2-2.6,0.9-5.2,2.5-7.2c2.5-3.3,6.9-4.4,10.9-4.3   c1.7,0.1,3.3,0.4,4.9,1c1.7,0.5,3.4,1.4,5.2,1.5c0.9,0.2,2.1-0.6,1.6-1.5c-0.1-0.2-0.1-0.4,0-0.6c-0.2-0.3-0.8-0.9-1.1-1   c0.2,0.1,0.9,0.5,0.6,0.7c-0.4,0.2-0.7,0-1-0.3c-0.1-0.2-0.9-0.6-0.5-0.7c0.5-0.2,1,0,1.4,0.2c0.2,0.2,0.4,0.4,0.6,0.6l0,0   c0.2,0.5,0.6,1,0.9,1.5c-0.1,0.7-0.5,1.4-1.1,1.7c-1.9,1-4.1,0.3-6.1-0.2c-0.2,0-0.6-0.3-0.7-0.1c-0.8,1.2-1.3,2.6-2,3.9   c-1.9,4.3-4.4,8.8-8.9,10.8c-0.4,0.2-0.8,0.3-1.2,0.5c-0.1,0-0.1,0-0.1,0.1c0.5,0.8,1.2,1.5,2.1,1.9l0,0   C12.6,29.4,14.3,29.2,15.5,28.2z M8.6,26c6.6-2,7.1-10.2,11.2-14.7c-2.9-1-6.9-2.1-9.8-0.1c-3.1,1.9-6.5,8.2-3.9,11.4   c-0.3-3.7,1.2-7.7,4.2-10.1c1.2-1,3.2-1.7,4.3-0.3c2.2,3.8-2.3,10.9-6.4,11.6C7.8,24.3,8.5,25.4,8.6,26z M7.9,22.9   c3.5-0.5,7.4-6.5,6.2-9.8c-1.1-1.4-2.9,0.8-3.6,1.6C8.8,17.1,7.8,20,7.9,22.9L7.9,22.9z"/>
		<path fill="#DB8F9F" d="M16.3,28.5c-1-2.7,0.3-5.7,2.2-7.6c2.6-2.5,6.6-2.7,10-2.1c0.7,0.1,1.4,0.4,2.1,0.5   c0.5-0.3,1.5-0.3,1.6,0.5c0,0.1,0,0.5-0.1,0.4c-1.3-0.4-0.9-0.4-1.8,0.9c-2,3.3-5.9,14.4,0.4,4.9c1.5-2,2.5-4.3,4.2-6.2   c0.6-0.6,1.5-1.2,2.5-0.9c0.2,0.1,0.9,0.5,0.6,0.7c-0.3-0.5-0.8-0.8-1.4-0.3c-0.9,0.8-1.4,2-1.9,3.1c-0.5,1.1-1.1,2.2-1.6,3.3   l-1,2.2c-0.1,0.4-1.2,2-0.1,1.7c0.8-0.3,1.4-0.9,1.9-1.6c0.3-0.4,0.6-0.8,0.8-1.2c0.6-0.6-0.4,1.1-0.5,1.2c-0.6,0.9-2.4,2.8-3.5,2   c-0.4-0.7,0-1.6,0.3-2.3c0.9-1.9,1.9-3.8,2.8-5.8c-0.8,1-5.6,9.9-6.8,7.9c-0.6-0.9-0.3-2.1-0.1-3c0.3-1.5,1-2.8,1.6-4.1   c-2.3,3.2-4.6,8-8.2,9.7c-0.5,0.1,0.4,0.9,0.5,1.1c1,1.1,2.6,1.5,3.9,0.9c0.5-0.2,0.9-0.5,1.2-0.9c0.1-0.3,0.5-0.4,0.2,0   c-0.5,0.6-1.1,1.1-1.9,1.3c-1.9,0.6-3.8-0.5-4.8-2.1c-1.6,0.4-3.9-0.2-4.4-2c0-0.3,0.2-0.7,0.5-0.6c0,0.2,0.1,0.3,0.2,0.5   c0.3,0.9,1,1.5,1.9,1.8c0.6,0.2,1.2,0.2,1.7,0c-0.4-0.7-0.7-1.4-0.8-2.2C17.5,29.9,16.7,29.3,16.3,28.5z M33.8,21.6   C33.8,21.5,33.8,21.6,33.8,21.6L33.8,21.6z M30.3,19.6c-3.3-1.1-7.5-1.4-10.3,1.1c-2,1.7-4.3,6.6-2,8.7c0,0,0.3,0.2,0.3,0.1   c-0.1-0.3-0.1-0.6-0.1-0.9c0-0.5,0-1,0.1-1.6c0.4-2.6,2.2-6.1,5.2-6.4c2.7,0.5,1.1,4.5,0.2,6c-0.9,1.7-2.5,2.9-4.4,3.4   c0.1,0.7,0.3,1.4,0.6,2.1c0.4-0.1,0.7-0.3,1-0.5C25.2,28.7,26.8,23.2,30.3,19.6L30.3,19.6z M19.3,29.6c2.3-0.3,3.9-2.3,4.8-4.4   c0.5-1.2,1.1-2.7,0.3-3.9c-1-1-2.3,0.5-3,1.3C19.9,24.6,19.1,27.1,19.3,29.6z"/>
		<path fill="#DB90A1" d="M29.2,10.1c-0.3-0.5-0.7-0.9-0.9-1.5l0,0c-0.3-0.8-0.4-1.7-0.1-2.5c0.2-0.2,0.3,0.6,0.5,0.7   c0.3,0.4,0.4,0.9,0.4,1.4c-0.1,0.8-0.3,0.8-0.5,0.1c0.1,0.5,0.4,1,0.8,1.5c0-1.1-0.4-4.1,1-4.5c0.2,0,0.5-0.1,0.6,0.1   c0.1,0.1,0.7,0.6,0.4,0.6c-0.9-0.9-1.6,0-1.8,1c-0.1,1.1-0.4,2.4,0.1,3.3c0.5,0.5,1.1,0.9,1.7,1.2c0.5,0.2,2,0.7,1.9-0.3   c-0.4,0.2-0.9,0.5-1.4,0.4c-0.4,0-1.5-0.8-0.6-0.8c0.9-0.2-0.4-0.2-0.2-0.5c0.7-0.9,1.8-0.3,2.3,0.5c0.6-1-0.6-1.6-1.5-1.5   c-0.4,0-0.7,0.2-1.1,0.3c-0.1-0.2,0.6-0.3,0.8-0.4c0.8-0.2,2-0.2,2.3,0.7c0.1,0.4-0.1,0.9-0.4,1.2c0.1,0.3,0.1,0.5,0.1,0.8   c-0.2,0.8-1.4,0.4-1.9,0.3c-0.7-0.3-1.4-0.7-2-1.3c-0.1,0,0,0.2,0,0.3c0,0.3,0.1,0.5,0.2,0.7c-0.1-0.3-0.1-0.5,0.3-0.3   c0.2,0.1,0.5,0.2,0.6,0.4c0.1,0.3,0.1,0.6,0.2,0.9c0.1,0.2,0.2,0.5,0.3,0.7c-0.3,0-0.5-0.3-0.8-0.4c-0.4-0.3-0.7-0.8-0.9-1.2   C29.3,11.2,29.4,10.6,29.2,10.1z M31.9,11.2c0.2,0.2,1.5-0.1,1.2-0.6c-0.2-0.3-0.5-0.4-0.8-0.5c-0.1,0.2-0.2,0.4-0.4,0.4   C32.3,10.9,32.5,11.4,31.9,11.2L31.9,11.2z M28.4,8.1C28.4,8.2,28.4,8.2,28.4,8.1L28.4,8.1z"/>
		<path fill="#20C4BE" d="M31.2,5.9C32.5,5.8,32.7,7,32.1,8c-0.3,0.4-0.8,1.1-1.3,1.2c0.4-0.4,0.9-0.8,1.1-1.3   c0.2-0.4,0.3-1.4-0.3-1.5c-0.2,0-0.2-0.2-0.4-0.1c-0.5,0.1-0.9,0.3-1.1,0.8c0.1,0,0.2-0.2,0.3-0.1c0.1,0.2,0.1,0.4,0.1,0.6   c0,0.2-0.1,0.4-0.3,0.4c-0.2,0.1-0.3,0.3-0.6,0.4C29.3,7.1,30.2,6.1,31.2,5.9z"/>
		<path fill="#20C4BE" d="M29.1,9.7C29,9.4,28.8,9.2,28.7,9C29,9.1,29.1,9.4,29.1,9.7z"/>
	</g>
</svg>