<svg viewBox="0 0 343 110"  xmlns="http://www.w3.org/2000/svg" fill="none"><path d="M178.97 31.3h-19.25c-.67 0-1.21.54-1.21 1.21v58.66c0 .67-.54 1.21-1.21 1.21h-12.42c-.67 0-1.21-.54-1.21-1.21V32.51c0-.67-.54-1.21-1.21-1.21H123.2c-.67 0-1.21-.54-1.21-1.21V19.48c0-.67.54-1.21 1.21-1.21h55.78c.67 0 1.21.54 1.21 1.21v10.61c-.01.67-.55 1.21-1.22 1.21zm163.12 7.84v11.49c0 .66-.52 1.17-1.18 1.2-10.87.52-17.94 8.22-17.94 17.29v22.05c0 .67-.54 1.21-1.21 1.21H310.3c-.67 0-1.21-.54-1.21-1.21V40.84c0-.67.54-1.21 1.21-1.21h11.46c.67 0 1.21.54 1.21 1.21v3.63c0 .46.59.66.87.29 4.26-5.63 9.47-6.74 17.02-6.83.68-.01 1.23.54 1.23 1.21z" fill="#343A43"/><path d="M207.56 39.77v2.01c-5.08-3.29-11.31-4.96-17.95-4.25-12.69 1.36-22.92 11.56-24.31 24.25-1.81 16.58 11.13 30.6 27.33 30.6 5.5 0 10.63-1.62 14.93-4.41v3.2c0 .67.54 1.21 1.21 1.21h11.57c.67 0 1.21-.54 1.21-1.21v-51.4c0-.67-.54-1.21-1.21-1.21h-11.57c-.67 0-1.21.54-1.21 1.21zm-12.99 39.91c-9.76 1.23-17.98-6.98-16.74-16.75.84-6.65 6.21-12.03 12.86-12.86 9.76-1.23 17.97 6.98 16.74 16.75-.83 6.65-6.21 12.02-12.86 12.86zm108.37 12.7h-11.5c-.67 0-1.21-.54-1.21-1.21V63.33c0-4.81-.35-7.18-.65-8.33-.3-1.15-.94-2.08-2-2.92-2.06-1.61-6.55-1.88-10.08.85-1.85 1.42-3.08 3.16-3.75 5.33-.81 2.55-1.21 6.64-1.21 12.17v20.74c0 .67-.54 1.21-1.21 1.21h-11.24c-.67 0-1.21-.54-1.21-1.21V64.88c0-5.69-.36-8.35-.67-9.58-.31-1.27-.97-2.26-2.09-3.15-2.24-1.77-6.12-1.77-9.28.35-1.7 1.15-3.02 2.7-4.03 4.76-.71 1.44-1.55 4.64-1.55 11.69v22.21c0 .67-.54 1.21-1.21 1.21H228.7c-.67 0-1.21-.54-1.21-1.21V39.72c0-.67.54-1.21 1.21-1.21h11.33c.67 0 1.21.54 1.21 1.21v1.09c6.85-4.59 16.43-4.8 23.28.13 1.45 1.04 2.7 2.27 3.75 3.67 1.36-1.49 2.86-2.76 4.51-3.82 7.35-4.76 17.95-5.1 25.47 2.05l.01.01c3.96 3.78 5.89 10.49 5.89 20.48v27.84c0 .67-.55 1.21-1.21 1.21z" fill="#343A43"/><path d="M67.78 54.91c0 9.64-11.12 16.67-21.23 8.97-7.69-10.1-.65-21.22 8.98-21.22 6.76 0 12.25 5.49 12.25 12.25z" fill="#0859C5"/><path d="M26.4 61.05c-4.83 0-8.36-5.57-4.5-10.64 5.07-3.86 10.64-.33 10.64 4.5 0 3.39-2.75 6.14-6.14 6.14zm58.27 0c4.83 0 8.36-5.57 4.5-10.64-5.07-3.86-10.64-.33-10.64 4.5-.01 3.39 2.74 6.14 6.14 6.14zm-23 23c0 4.83-5.57 8.36-10.64 4.5-3.86-5.07-.33-10.64 4.5-10.64 3.39 0 6.14 2.75 6.14 6.14zm0-58.27c0-4.83-5.57-8.35-10.64-4.5-3.86 5.07-.33 10.65 4.5 10.65 3.39 0 6.14-2.75 6.14-6.15zm-22.4 54.08c-3.42 3.42-9.85 1.97-10.71-4.34.86-6.31 7.29-7.76 10.71-4.34 2.4 2.39 2.4 6.28 0 8.68zm41.2-41.2c3.42-3.42 1.97-9.85-4.34-10.71-6.31.85-7.76 7.29-4.34 10.71 2.4 2.39 6.29 2.39 8.68 0zm0 32.52c3.42 3.42 1.97 9.85-4.34 10.71-6.31-.85-7.76-7.29-4.34-10.71 2.4-2.4 6.29-2.4 8.68 0zm-41.2-41.21c-3.42-3.42-9.85-1.97-10.71 4.34.85 6.31 7.29 7.76 10.71 4.34 2.4-2.39 2.4-6.28 0-8.68z" fill="#089EFF"/><path d="M6.77 61.05c-4.83 0-8.36-5.58-4.49-10.64 5.06-3.84 10.63-.32 10.63 4.51 0 3.38-2.75 6.13-6.14 6.13zm97.52 0c4.83 0 8.36-5.58 4.49-10.64-5.06-3.84-10.63-.32-10.63 4.51 0 3.38 2.75 6.13 6.14 6.13zm-42.62 42.63c0 4.83-5.58 8.36-10.64 4.49-3.84-5.06-.32-10.63 4.51-10.63 3.38 0 6.13 2.75 6.13 6.14zm0-97.52c0-4.83-5.58-8.36-10.64-4.49-3.84 5.06-.32 10.63 4.51 10.63 3.38 0 6.13-2.75 6.13-6.14zM25.39 93.73c-3.41 3.41-9.85 1.97-10.7-4.34.85-6.31 7.29-7.75 10.7-4.34 2.4 2.4 2.4 6.29 0 8.68zm68.96-68.96c3.41-3.41 1.97-9.85-4.34-10.7-6.31.85-7.76 7.29-4.34 10.7 2.4 2.4 6.28 2.4 8.68 0zm0 60.29c3.41 3.41 1.97 9.85-4.34 10.7-6.31-.85-7.76-7.29-4.34-10.7 2.4-2.4 6.28-2.4 8.68 0zM25.39 16.1c-3.41-3.41-9.85-1.97-10.7 4.34.85 6.31 7.29 7.75 10.7 4.34 2.4-2.4 2.4-6.29 0-8.68z" fill="#00CBFF"/></svg>