<?xml version="1.0" ?>
<svg xmlns="http://www.w3.org/2000/svg" viewBox="0 0 112.227 48">
	<g transform="translate(-48 -24)">
		<path d="M133.458,101.332v2.99h6.064v17.69h3.856v-17.69h6.037v-2.99Z" transform="translate(-49.477 -50.013)" fill="currentColor"/>
		<path d="M198.516,101.668h.056l3.521,12.352h-7.126Zm-3.27-.336-6.428,20.681h3.857l1.425-5h8.831l1.425,5h4.108l-6.4-20.681Z" transform="translate(-89.912 -50.013)" fill="currentColor"/>
		<path d="M285.668,118.265v2.99H275.356c-6.036,0-9.614-3.913-9.614-10.48s3.577-10.48,9.614-10.48c5.981,0,9.558,3.828,9.558,9.446,0,5.338-2.85,8.5-7.6,8.5v.056Zm-10.312.112c3.493,0,5.561-2.823,5.561-7.546,0-4.667-2.068-7.462-5.561-7.462-3.549,0-5.617,2.795-5.617,7.462,0,4.723,2.068,7.546,5.617,7.546" transform="translate(-146.098 -49.256)" fill="currentColor"/>
		<path d="M357.506,117.01h-8.831l-1.425,5h-3.857l6.428-20.681h6.819l6.4,20.681h-4.108Zm-.838-2.99-3.521-12.352h-.056l-3.549,12.352Z" transform="translate(-202.813 -50.013)" fill="currentColor"/>
		<path d="M0,0H34.631L25.969,8.654H10.533A4.536,4.536,0,0,1,7.325,7.325Z" transform="translate(48 24)" fill="#ff6720"/>
		<path d="M72.879,66.482V32.1l-7.833,7.84a2.805,2.805,0,0,0-.821,1.982V55.95a4.536,4.536,0,0,0,1.329,3.207Z" transform="translate(1.09 0.555)" fill="currentColor"/>
		<path d="M64.267,41.677a1.058,1.058,0,0,1,1.072-.924h33.54l-7.325-7.325A4.536,4.536,0,0,0,88.346,32.1H72.91l-7.833,7.84a2.8,2.8,0,0,0-.809,1.737" transform="translate(1.061 0.555)" fill="#00bfb2"/>
		<rect width="112.226" height="48" transform="translate(48 24)" fill="none"/>
	</g>
</svg>