<?xml version="1.0" ?>
<!-- Generator: Adobe Illustrator 16.0.0, SVG Export Plug-In . SVG Version: 6.00 Build 0)  -->
<svg xmlns="http://www.w3.org/2000/svg" version="1.2" baseProfile="tiny-ps" id="Layer_1" viewBox="0 0 1080 1080" xml:space="preserve">
	<g>
		<path fill="#D61E4A" d="M394.671,618.25c0,0,2.554-8.004,6.801-8.176h0.322c4.266,0.172,6.792,8.176,6.792,8.176l18.913,53.714   c-8.204,2.086-16.924,3.187-26.026,3.187c-8.968,0-17.608-1.072-25.742-3.114L394.671,618.25z M492.294,747.029L433.97,598.728   c0,0-7.419-21.9-32.873-21.735c-25.422-0.165-32.842,21.735-32.842,21.735l-58.367,148.302h39.416l15.427-43.776   c11.421,2.767,23.801,4.353,36.742,4.353c13.042,0,25.526-1.586,37.021-4.421l15.464,43.845H492.294z"/>
		<path fill="#D61E4A" d="M671.771,618.25c0,0,2.497-8.004,6.787-8.176h0.298c4.274,0.172,6.816,8.176,6.816,8.176l18.884,53.714   c-8.204,2.086-16.91,3.187-25.998,3.187c-8.957,0-17.65-1.072-25.786-3.114L671.771,618.25z M769.35,747.029l-58.296-148.302   c0,0-7.434-21.9-32.869-21.735c-25.449-0.165-32.874,21.735-32.874,21.735l-58.349,148.302h39.371l15.482-43.776   c11.448,2.767,23.792,4.353,36.742,4.353c13.056,0,25.497-1.586,37.026-4.421l15.446,43.845H769.35z"/>
		<g>
			<rect x="521.123" y="577.016" fill="#D61E4A" width="37.099" height="170.018"/>
			<path fill="#0274BB" d="M175.724,334.847v49.407l51.924,0.685v119.954h72.454V384.254h50.817v-49.407H175.724z M401.747,334.847    l-69.192,170.046h70.271l38.198-101.143l35.698,101.143h71.738l-71.393-170.046H401.747z M532.207,334.847v49.407l50.844,0.685    v119.954h73.18V384.254h50.846v-49.407H532.207z M757.168,334.847l-69.896,170.046h70.273l38.211-101.143l36.031,101.143h71.725    l-71.359-170.046H757.168z"/>
		</g>
	</g>
</svg>