<?xml version="1.0" ?>
<svg xmlns="http://www.w3.org/2000/svg" viewBox="0 0 1548 292">
	<defs>
		<clipPath clipPathUnits="userSpaceOnUse" id="cp1">
			<path d="m-1863-420h5278v6819h-5278z"/>
		</clipPath>
	</defs>
	<style>.a{fill:#506a8e}.b{fill:#f04757}</style>
	<g clip-path="url(#cp1)">
		<path class="a" d="m280 89.4h155.8v23.7h-61.4v114.4h-26.8v-114.4h-54.3z"/>
		<path fill-rule="evenodd" class="a" d="m312.4 227.5h-29.5l-16.2-29.2h-99.1l-16 29.2h-27.8l76.3-138.1h35.9zm-58.8-53.1l-36.2-65.5-36.5 65.5zm230.8-31h93.1v23.7h-93.1v36.5h101.1v23.9h-128v-138h123.1v23.7h-96.2zm549.7 60.2h88.7v23.9h-115.5v-138.1h26.8zm150.9-40.2l49.8-73.9h29l-66.1 96v42h-26.8v-42l-66.3-96h30.3zm125.5 40.2h88.4v23.9h-115.3v-138.1h26.9zm136.1-60.2h93.4v23.7h-93.4v36.5h101.4v24h-128.2v-138.1h123v23.7h-96.2zm-1303.8-30.2h-54.3v114.3h-26.8v-114.3h-61.4v-23.7h155.6zm-19.1 114.3l76.4-138"/>
		<path class="b" d="m937 89h-43.4c-4.9 38.8-15.9 73.3-32.5 100.1l-86-148.5h116.1l-23.2-39.8h-167.5l129.9 224c-18.9 15.1-41 23.7-66.6 23.7-39.3 0-69-27.1-69-62.7 0-26.7 17-48.6 43.8-61.9l-20.6-35.3c-39.8 17.2-66.2 53.1-66.2 97.2 0 61.1 47.1 105.2 112 105.2 33 0 62.7-10.6 87.9-29.4l12.2 21h51.2l-30.9-53.3c27.6-35.5 46.3-84.1 52.8-140.3z"/>
	</g>
</svg>