<?xml version="1.0" ?>
<svg xmlns="http://www.w3.org/2000/svg" overflow="visible" viewBox="0 0 387.2300109863281 69.12999725341797">
	<g transform="translate(1, 1)">
		<defs>
			<style>
            .cls-1_1615379674505 {
                fill: #174e6a;
            }
            </style>
		</defs>
		<circle cx="37" cy="43.7" r="18" fill="#00d7e1"/>
		<g id="Warstwa_2_1615379674505">
			<g id="Layer_1_1615379674505">
				<path d="M95,21.15H88.58a1.83,1.83,0,0,1-1.94-1.94v-1a1.83,1.83,0,0,1,1.94-1.94h18.67a1.8,1.8,0,0,1,1.9,1.94v1a1.8,1.8,0,0,1-1.9,1.94h-6.46V48.23a1.8,1.8,0,0,1-1.9,2h-2a1.84,1.84,0,0,1-1.94-2Z" class="cls-1_1615379674505" vector-effect="non-scaling-stroke"/>
				<path d="M107.79,34.81c0-5.44,3.74-10.45,10.35-10.45a10.2,10.2,0,0,1,10.41,10.45v3.26a1.18,1.18,0,0,1-1.12,1.17h-14v1.12c0,2.38.82,5.64,5.39,5.64a24.56,24.56,0,0,0,5.4-.73c1.22-.29,2.09,0,2.43,1.21l.2.93a1.77,1.77,0,0,1-1.36,2.33,23.27,23.27,0,0,1-6.67,1.07c-7.68,0-11-5.15-11-10.45Zm15.12.44v-.83c0-2.57-1.17-5.25-4.72-5.25s-4.76,2.73-4.76,5.25v.83Z" class="cls-1_1615379674505" vector-effect="non-scaling-stroke"/>
				<path d="M142.9,35.15h2.92V34c0-3.16-1.07-4.87-4.52-4.87a17.84,17.84,0,0,0-5,.68A1.7,1.7,0,0,1,134,28.59l-.25-.92a1.82,1.82,0,0,1,1.46-2.39,20.12,20.12,0,0,1,6.13-.92c6.71,0,10.16,3.94,10.16,9.33V48.23a1.73,1.73,0,0,1-1.8,2h-1.12c-1.16,0-1.79-.34-1.94-1.61l-.15-.77a8.34,8.34,0,0,1-6.56,3c-5.06,0-8.32-3-8.32-8C131.57,37.2,136.49,35.15,142.9,35.15Zm-2,10.85a6.92,6.92,0,0,0,5-2.24V39.29h-2.53c-3.3,0-6,.58-6,3.55C137.31,44.78,138.48,46,140.86,46Z" class="cls-1_1615379674505" vector-effect="non-scaling-stroke"/>
				<path d="M157.3,26.94a1.83,1.83,0,0,1,1.94-2h1a1.76,1.76,0,0,1,2,1.56l.09.78a10.17,10.17,0,0,1,6.61-3c3.31,0,5.6,1.21,6.86,3.31,2-1.71,4.38-3.31,7.29-3.31,5.3,0,8.22,3.21,8.22,8.56V48.23a1.84,1.84,0,0,1-1.94,2h-1.75a1.84,1.84,0,0,1-1.95-2V33.69c0-3.11-1-4.52-3.69-4.52a7.55,7.55,0,0,0-5,2.43,13.39,13.39,0,0,1,.14,1.46V48.23a1.83,1.83,0,0,1-1.94,2h-1.8a1.8,1.8,0,0,1-1.9-2V33.69c0-3.11-1-4.52-3.64-4.52-1.9,0-3.41,1.17-4.91,2.53V48.23a1.8,1.8,0,0,1-1.9,2h-1.8a1.83,1.83,0,0,1-1.94-2Z" class="cls-1_1615379674505" vector-effect="non-scaling-stroke"/>
				<path d="M197.85,18.18a1.83,1.83,0,0,1,1.94-1.94h7.68c7.69,0,11.92,5.06,11.92,10.94s-4.23,10.89-11.92,10.89h-3.84V48.23a1.8,1.8,0,0,1-1.89,2h-2a1.83,1.83,0,0,1-1.94-2Zm9.43,15c4.18,0,6-3,6-6,0-3.21-1.85-6-6-6h-3.65V33.21Z" class="cls-1_1615379674505" vector-effect="non-scaling-stroke"/>
				<path d="M231.87,35.15h2.92V34c0-3.16-1.07-4.87-4.53-4.87a17.81,17.81,0,0,0-5,.68,1.71,1.71,0,0,1-2.34-1.26l-.24-.92a1.82,1.82,0,0,1,1.46-2.39,20.1,20.1,0,0,1,6.12-.92c6.71,0,10.17,3.94,10.17,9.33V48.23a1.73,1.73,0,0,1-1.8,2h-1.12c-1.17,0-1.8-.34-1.95-1.61l-.14-.77a8.35,8.35,0,0,1-6.57,3c-5,0-8.31-3-8.31-8C220.54,37.2,225.45,35.15,231.87,35.15Zm-2,10.85a6.93,6.93,0,0,0,5-2.24V39.29h-2.53c-3.31,0-6,.58-6,3.55C226.28,44.78,227.44,46,229.83,46Z" class="cls-1_1615379674505" vector-effect="non-scaling-stroke"/>
				<path d="M245.48,47.36l.25-.93A1.53,1.53,0,0,1,248,45.22a16.57,16.57,0,0,0,4.72.78c2.67,0,3.6-1.12,3.6-2.87,0-4.38-10.7-2.48-10.7-11.38,0-4.57,4-7.39,9.09-7.39a16.75,16.75,0,0,1,4.77.68,1.73,1.73,0,0,1,1.21,2.38l-.24.83a1.77,1.77,0,0,1-2.33,1.31,13.11,13.11,0,0,0-3.26-.44c-2.24,0-3.31,1.07-3.31,2.63,0,4,10.7,2.82,10.7,11.38,0,4.67-3.89,7.68-9.39,7.68a20.78,20.78,0,0,1-6.17-1A1.91,1.91,0,0,1,245.48,47.36Z" class="cls-1_1615379674505" vector-effect="non-scaling-stroke"/>
				<path d="M266.34,47.36l.24-.93a1.54,1.54,0,0,1,2.24-1.21,16.5,16.5,0,0,0,4.72.78c2.67,0,3.6-1.12,3.6-2.87,0-4.38-10.7-2.48-10.7-11.38,0-4.57,4-7.39,9.09-7.39a16.75,16.75,0,0,1,4.77.68,1.74,1.74,0,0,1,1.21,2.38l-.24.83a1.77,1.77,0,0,1-2.34,1.31,13,13,0,0,0-3.25-.44c-2.24,0-3.31,1.07-3.31,2.63,0,4,10.7,2.82,10.7,11.38,0,4.67-3.89,7.68-9.39,7.68a20.78,20.78,0,0,1-6.17-1A1.91,1.91,0,0,1,266.34,47.36Z" class="cls-1_1615379674505" vector-effect="non-scaling-stroke"/>
				<path d="M286.23,27.08a1.52,1.52,0,0,1,1.5-2.09h2a2.17,2.17,0,0,1,2.28,1.8l2.09,9.29c.44,2,.93,4.86,1.36,7.44.49-2.58,1.12-5.4,1.66-7.44l2.18-7.83a2.47,2.47,0,0,1,2.44-1.85h2.13a2.53,2.53,0,0,1,2.44,1.85l2.18,7.83c.54,2,1.12,4.86,1.66,7.44.44-2.58,1-5.4,1.36-7.44l2.09-9.29A2.21,2.21,0,0,1,316,25h2a1.52,1.52,0,0,1,1.45,2.14l-5.54,21.05a2.47,2.47,0,0,1-2.48,2h-2.33a2.4,2.4,0,0,1-2.34-1.9l-3.93-14.49L299,48.28a2.51,2.51,0,0,1-2.39,1.9h-2.33a2.42,2.42,0,0,1-2.43-2Z" class="cls-1_1615379674505" vector-effect="non-scaling-stroke"/>
				<path d="M322.79,35.64c0-6.76,3.94-11.28,10.79-11.28s10.8,4.52,10.8,11.28v3.84c0,7-4,11.33-10.8,11.33s-10.79-4.38-10.79-11.33ZM333.58,46c3.89,0,5.11-2.53,5.11-6.91v-3c0-4.28-1.22-6.91-5.11-6.91s-5.05,2.63-5.05,6.91v3C328.53,43.47,329.69,46,333.58,46Z" class="cls-1_1615379674505" vector-effect="non-scaling-stroke"/>
				<path d="M348.68,26.94a1.84,1.84,0,0,1,1.95-2h1c1.17,0,1.75.78,2,1.9l.19,1.36c1.46-2.09,3.94-3.89,6.37-3.89.87,0,2.43.14,2,2.67-.34,2.34-1.17,2.19-2.33,2.19-2.09,0-4.23,2-5.55,3.6V48.23a1.8,1.8,0,0,1-1.89,2h-1.8a1.84,1.84,0,0,1-1.95-2Z" class="cls-1_1615379674505" vector-effect="non-scaling-stroke"/>
				<path d="M364.37,34.72c0-6.57,3.5-10.36,9.19-10.36a9.08,9.08,0,0,1,6,2.43v-10a1.83,1.83,0,0,1,1.94-1.94h1.8a1.8,1.8,0,0,1,1.9,1.94V48.23a1.73,1.73,0,0,1-1.8,2h-1.17c-1.17,0-1.85-.29-2-1.46l-.1-.78c-2.19,1.9-4.23,2.87-6.61,2.87-5.69,0-9.19-3.84-9.19-10.36Zm15.22,8.85V31.7a7.93,7.93,0,0,0-5.16-2.53c-3.11,0-4.32,2-4.32,6.32v4.19c0,4.32,1.21,6.32,4.32,6.32C376.38,46,378,44.88,379.59,43.57Z" class="cls-1_1615379674505" vector-effect="non-scaling-stroke"/>
				<path d="M50.51,25.53V14.64a14.64,14.64,0,0,0-29.28,0V25.7a23.35,23.35,0,1,0,29.28-.17ZM27.86,14.64a8,8,0,1,1,16,0v7.18a23.49,23.49,0,0,0-16,.08ZM36,61.14A17.35,17.35,0,1,1,53.33,43.79,17.37,17.37,0,0,1,36,61.14Z" class="cls-1_1615379674505" vector-effect="non-scaling-stroke"/>
				<path d="M43.72,49.13a1.38,1.38,0,0,0-1.93.26,7.28,7.28,0,0,1-11.61,0A1.37,1.37,0,0,0,28,51.05a10,10,0,0,0,16,0A1.37,1.37,0,0,0,43.72,49.13Z" class="cls-1_1615379674505" vector-effect="non-scaling-stroke"/>
				<path d="M6.47,12.12l8.39,7.45a1.37,1.37,0,0,0,.91.34,1.41,1.41,0,0,0,1-.46,1.38,1.38,0,0,0-.12-1.94l-8.4-7.44a1.37,1.37,0,1,0-1.81,2Z" class="cls-1_1615379674505" vector-effect="non-scaling-stroke"/>
				<path d="M14,26.71a1.37,1.37,0,0,0-1.33-1.4L1.41,25a1.37,1.37,0,1,0-.07,2.74l11.27.28h0A1.36,1.36,0,0,0,14,26.71Z" class="cls-1_1615379674505" vector-effect="non-scaling-stroke"/>
			</g>
		</g>
	</g>
</svg>