<?xml version="1.0" ?>
<svg xmlns="http://www.w3.org/2000/svg" viewBox="0 0 800 144.77">
	<path d="M 173.8,27.88 L 139.28,27.88 L 139.28,4.88 L 233.28,4.88 L 233.28,27.88 L 198.77,27.88 L 198.77,118.38 L 173.77,118.38 L 173.77,27.88 L 173.8,27.88"/>
	<path d="M 207.52,75.38 L 207.52,75.06 C 207.52,50.26 225.19,29.83 250.52,29.83 C 279.52,29.83 292.83,52.36 292.83,77.0 C 292.83,78.95 292.67,81.21 292.51,83.48 L 232.0,83.48 C 234.43,94.67 242.21,100.48 253.24,100.48 C 261.51,100.48 267.51,97.89 274.31,91.56 L 288.41,104.04 C 280.3,114.09 268.63,120.25 252.91,120.25 C 226.81,120.28 207.52,101.97 207.52,75.38 L 207.52,75.38 M 268.8,68.08 C 267.34,57.08 260.86,49.6 250.48,49.6 C 240.27,49.6 233.62,56.9 231.68,68.08 L 268.8,68.08 M 294.41,93.38 L 294.41,93.06 C 294.41,74.06 308.84,65.34 329.41,65.34 A 61.72,61.72 0.0 0,1 350.65,68.91 L 350.65,67.45 C 350.65,57.24 344.33,51.56 332.01,51.56 C 322.61,51.56 316.01,53.34 308.01,56.26 L 301.85,37.46 C 311.41,33.25 320.85,30.46 335.57,30.46 C 349.03,30.46 358.75,34.03 364.91,40.19 C 371.39,46.67 374.31,56.19 374.31,67.91 L 374.31,118.38 L 350.5,118.38 L 350.5,108.98 C 344.5,115.63 336.23,119.98 324.24,119.98 C 307.86,119.96 294.41,110.56 294.41,93.38 M 351.0,87.7 L 351.0,83.32 A 38.21,38.21 0.0 0,0 335.28,80.08 C 324.74,80.08 318.28,84.29 318.28,92.08 L 318.28,92.38 C 318.28,99.03 323.79,102.92 331.74,102.92 C 343.2,102.94 351.0,96.62 351.0,87.7 L 351.0,87.7 M 379.34,31.45 L 404.0,31.45 L 404.0,43.77 C 409.67,36.47 417.13,29.83 429.61,29.83 C 440.96,29.83 449.55,34.83 454.09,43.61 C 461.71,34.69 470.79,29.83 482.62,29.83 C 500.94,29.83 511.96,40.83 511.96,61.77 L 511.96,118.38 L 487.31,118.38 L 487.31,69.87 C 487.31,58.2 482.12,52.2 472.88,52.2 C 463.64,52.2 457.97,58.2 457.97,69.87 L 457.97,118.38 L 433.33,118.38 L 433.33,69.87 C 433.33,58.2 428.14,52.2 418.9,52.2 C 409.66,52.2 403.99,58.2 403.99,69.87 L 403.99,118.38 L 379.34,118.38 L 379.34,31.45 M 514.7,61.92 L 514.7,61.6 C 514.7,29.34 539.02,2.92 573.87,2.92 C 595.27,2.92 608.08,10.05 618.61,20.43 L 602.72,38.75 C 593.97,30.81 585.05,25.94 573.72,25.94 C 554.59,25.94 540.81,41.83 540.81,61.28 L 540.81,61.6 C 540.81,81.05 554.27,97.26 573.72,97.26 C 586.72,97.26 594.63,92.07 603.55,83.97 L 619.44,99.97 C 607.77,112.45 594.8,120.23 572.91,120.23 C 539.5,120.28 514.7,94.51 514.7,61.92 M 622.0,0.0 L 647.94,0.0 L 647.94,21.88 L 622.0,21.88 L 622.0,0.0 M 622.65,31.45 L 647.3,31.45 L 647.3,118.38 L 622.66,118.38 L 622.66,31.45 L 622.65,31.45 M 661.89,93.7 L 661.89,52.52 L 651.51,52.52 L 651.51,31.45 L 661.89,31.45 L 661.89,9.24 L 686.53,9.24 L 686.53,31.45 L 707.0,31.45 L 707.0,52.52 L 686.53,52.52 L 686.53,89.64 C 686.53,95.31 688.96,98.07 694.47,98.07 A 25.05,25.05 0.0 0,0 706.63,94.99 L 706.63,114.77 C 701.44,117.85 695.44,119.77 687.18,119.77 C 672.1,119.8 661.89,113.8 661.89,93.7 L 661.89,93.7 M 774.39,31.45 L 800.0,31.45 L 766.6,120.45 C 759.95,138.12 752.82,144.77 738.07,144.77 A 40.79,40.79 0.0 0,1 716.18,138.77 L 724.45,120.94 C 727.69,122.89 731.75,124.34 734.99,124.34 C 739.2,124.34 741.47,123.04 743.58,118.67 L 709.58,31.45 L 735.68,31.45 L 755.46,90.62 L 774.39,31.45"/>
	<g>
		<path d="M 0.0,4.89 L 113.46,4.89 L 113.46,118.35 L 0.0,118.35 L 0.0,4.89"/>
		<path fill="#fff" d="M 19.18,24.8 L 10.55,24.8 L 10.55,19.05 L 34.04,19.05 L 34.04,24.8 L 25.41,24.8 L 25.41,47.4 L 19.18,47.4 L 19.18,24.8 L 19.18,24.8 M 34.4,33.3 L 34.4,33.22 A 14.41,14.41 0.0 0,1 49.18,18.56 C 54.53,18.56 57.73,20.34 60.36,22.93 L 56.36,27.51 C 54.17,25.51 51.95,24.31 49.11,24.31 C 44.33,24.31 40.89,28.31 40.89,33.14 L 40.89,33.22 C 40.89,38.08 44.25,42.13 49.11,42.13 C 52.35,42.13 54.34,40.83 56.56,38.81 L 60.56,42.81 A 14.5,14.5 0.0 0,1 48.93,47.87 A 14.31,14.31 0.0 0,1 34.4,33.3 M 10.55,97.09 L 53.1,97.09 L 53.1,104.18 L 10.55,104.18 L 10.55,97.09"/>
	</g>
</svg>