<svg xmlns="http://www.w3.org/2000/svg" viewBox="0 0 164 43.42"><g fill="#575757"><path d="M11.817 16.292v16.75c0 .893-.25 1.637-.75 2.233-.5.597-1.194.895-2.081.895-.869 0-1.559-.302-2.071-.903-.512-.603-.769-1.344-.769-2.225v-16.75H2.804c-.791 0-1.456-.224-1.995-.67C.27 15.175 0 14.566 0 13.793c0-.785.268-1.405.804-1.86.536-.455 1.203-.683 2-.683h12.257c.803 0 1.469.225 2 .674s.795 1.072.795 1.869c0 .761-.27 1.367-.809 1.82-.54.452-1.201.679-1.986.679h-3.244zM21.233 28.261c.378 1.081.917 1.864 1.618 2.347a4.127 4.127 0 0 0 2.543.853 6.764 6.764 0 0 0 3.055-.735l1.546-.771c.257-.132.602-.218 1.033-.261.383 0 .758.103 1.124.307.365.203.656.479.872.826.215.347.323.705.323 1.077 0 1.012-.725 1.931-2.174 2.757-1.768 1.006-3.792 1.509-6.075 1.509-1.498 0-2.913-.294-4.246-.881s-2.47-1.447-3.41-2.579c-1.348-1.636-2.022-3.747-2.022-6.336 0-1.725.409-3.324 1.227-4.799a9.324 9.324 0 0 1 3.37-3.509c1.429-.866 3-1.298 4.713-1.298 1.642 0 3.148.407 4.52 1.223s2.447 1.918 3.226 3.31a9.054 9.054 0 0 1 1.168 4.497c0 .857-.178 1.481-.535 1.875-.356.393-.951.589-1.784.589H21.233zm7.109-3.684c-.575-2.258-1.803-3.388-3.685-3.388-1.659 0-2.86 1.13-3.604 3.388h7.289zM40.67 18.678c1.366-1.25 2.975-1.875 4.826-1.875 1.401 0 2.603.296 3.604.889.539.299 1.042.789 1.51 1.471.952-.783 1.881-1.373 2.785-1.768s1.902-.592 2.992-.592c1.156 0 2.228.27 3.213.809a6.072 6.072 0 0 1 2.337 2.238c.571.952.858 2.013.858 3.182v10.01c0 .875-.235 1.597-.706 2.166-.47.568-1.13.854-1.981.854-.557 0-1.039-.137-1.447-.409a2.588 2.588 0 0 1-.925-1.101 3.61 3.61 0 0 1-.314-1.512v-8.803c0-.839-.267-1.515-.8-2.027s-1.223-.77-2.066-.77c-.797 0-1.458.271-1.982.81-.523.54-.786 1.202-.786 1.987v8.803c0 .869-.239 1.59-.719 2.163-.479.572-1.136.858-1.968.858-.833 0-1.495-.292-1.986-.877-.491-.584-.736-1.299-.736-2.145v-8.254c0-.983-.229-1.787-.688-2.41-.459-.623-1.161-.936-2.108-.936-.779 0-1.439.269-1.981.805-.542.537-.813 1.201-.813 1.992v8.803c0 .864-.241 1.583-.724 2.158-.482.576-1.149.863-2 .863-.821 0-1.474-.292-1.959-.876s-.728-1.298-.728-2.144V20.012c0-.81.222-1.518.665-2.126s1.055-.931 1.833-.966c1.041 0 1.973.586 2.794 1.758zM70.857 18.974c1.293-1.447 2.779-2.171 4.457-2.171 2.156 0 3.959.689 5.41 2.066a9.461 9.461 0 0 1 2.184 3.299c.509 1.276.763 2.582.763 3.918 0 1.737-.323 3.375-.97 4.915s-1.609 2.786-2.885 3.738c-1.276.952-2.789 1.43-4.538 1.43-1.45 0-2.86-.527-4.233-1.581v5.813c0 .862-.24 1.581-.723 2.156s-1.148.862-2 .862c-.82 0-1.473-.291-1.959-.876-.484-.584-.728-1.299-.728-2.143V20.12c0-.898.214-1.656.643-2.273s1.071-.926 1.928-.926c.683 0 1.222.172 1.617.516s.74.855 1.034 1.537zm0 7.513c0 .785.147 1.537.445 2.258a4.142 4.142 0 0 0 1.322 1.749c.584.446 1.285.67 2.101.67.726 0 1.358-.235 1.898-.706s.948-1.067 1.224-1.79.414-1.45.414-2.181c0-.727-.139-1.453-.414-2.182s-.684-1.326-1.224-1.795a2.807 2.807 0 0 0-1.898-.701c-.815 0-1.517.223-2.101.67a4.136 4.136 0 0 0-1.322 1.745 5.85 5.85 0 0 0-.445 2.263zM90.925 11.798v21.244c0 .863-.241 1.582-.724 2.157-.481.575-1.148.862-1.999.862-.821 0-1.474-.292-1.959-.876s-.728-1.298-.728-2.144V11.798c0-.533.104-1.03.314-1.492.209-.461.52-.824.93-1.087s.891-.396 1.442-.396c.839 0 1.502.285 1.991.854.489.569.733 1.276.733 2.121zM105.754 33.922c-.653.791-1.322 1.363-2.008 1.717-.687.354-1.527.53-2.521.53-1.959 0-3.727-.687-5.302-2.059-2.133-1.899-3.199-4.451-3.199-7.656 0-2.96.944-5.364 2.831-7.216 1.647-1.647 3.501-2.471 5.562-2.471.988 0 1.83.167 2.525.502.695.334 1.41.879 2.146 1.633.552-1.322 1.424-1.982 2.616-1.982.772 0 1.426.267 1.959.8s.8 1.187.8 1.959v13.174c0 .886-.254 1.644-.76 2.269-.506.627-1.184.939-2.035.939-1.239 0-2.111-.713-2.614-2.139zm-7.621-7.552c0 1.271.299 2.382.895 3.332.597.951 1.488 1.426 2.674 1.426.797 0 1.493-.213 2.09-.639.596-.426 1.048-.982 1.356-1.673s.462-1.419.462-2.187c0-1.396-.319-2.55-.961-3.458-.641-.908-1.623-1.362-2.947-1.362-1.114 0-1.987.469-2.619 1.408-.634.938-.95 1.989-.95 3.153zM121.293 22.222v10.819c0 .863-.238 1.582-.714 2.157-.478.575-1.134.862-1.974.862-.832 0-1.494-.292-1.985-.876s-.737-1.298-.737-2.144V22.222h-.772c-.772 0-1.421-.218-1.946-.651-.523-.435-.785-1.041-.785-1.82 0-.748.262-1.34.785-1.774.525-.435 1.174-.651 1.946-.651h.772v-2.687c0-1.761.6-3.172 1.798-4.232 1.072-.959 2.349-1.438 3.828-1.438 2.259 0 3.388.809 3.388 2.426 0 .665-.186 1.221-.557 1.667-.372.446-.885.69-1.537.732-.539.036-.926.156-1.159.359s-.351.572-.351 1.105v2.067h1.51c.773 0 1.42.214 1.941.643.521.428.781 1.023.781 1.783 0 .762-.264 1.363-.791 1.807s-1.171.665-1.932.665h-1.509zM135.053 27.659l3.172-7.714c.312-.767.655-1.374 1.029-1.821s.864-.672 1.469-.672c.479 0 .965.095 1.456.283.491.189.893.461 1.204.814.312.355.468.762.468 1.221 0 .61-.099 1.156-.297 1.639l-8.716 20.137c-.516 1.237-1.276 1.856-2.283 1.856a3.481 3.481 0 0 1-2.026-.632c-.608-.422-.938-.972-.993-1.652 0-.488.11-1.023.332-1.604l2.354-5.353-5.562-12.787a4.307 4.307 0 0 1-.334-1.639c0-.681.322-1.231.967-1.652s1.355-.632 2.135-.632c.617 0 1.104.221 1.464.662.359.442.692 1.041.998 1.797l3.163 7.749z"/></g><path fill="#0078FF" d="M158.288 0H152.324a5.714 5.714 0 0 0-5.713 5.713v11.928h11.677A5.712 5.712 0 0 0 164 11.929V0h-5.712z"/><path fill="#FFF" d="M156.201 6.21v5.863c0 .312-.087.573-.263.782-.175.208-.417.312-.728.312-.304 0-.546-.105-.726-.316a1.16 1.16 0 0 1-.269-.778V6.21h-1.17c-.276 0-.51-.078-.698-.234a.789.789 0 0 1-.283-.64c0-.275.094-.492.281-.651s.422-.239.7-.239h4.29c.281 0 .514.078.699.236.187.157.279.375.279.654a.792.792 0 0 1-.283.637 1.046 1.046 0 0 1-.695.237h-1.134z"/></svg>