<svg xmlns="http://www.w3.org/2000/svg" viewBox="0 0 367.93 115">
<defs>
<style>
.cls-1{fill:#41a647;}.cls-2{fill:#3f4444;stroke:#3f4444;stroke-miterlimit:10;}</style>
</defs>
<g>
<g>
<path class="cls-1" d="M52.07,113.1A55.89,55.89,0,0,1,1.9,62.92v0L0,63.06v0A57.79,57.79,0,0,0,51.89,115h0l.18-1.85v0Z"/>
<path class="cls-1" d="M113.15,62.88h-.05v0A55.88,55.88,0,0,1,62.93,113.1h0l.18,1.84v0h0A57.81,57.81,0,0,0,115,63.11v0Z"/>
<path class="cls-1" d="M51.94.05V0h0A57.79,57.79,0,0,0,0,51.89v0l1.85.18h0v0A55.89,55.89,0,0,1,52.07,1.9h0Z"/>
<path class="cls-1" d="M115,51.89A57.81,57.81,0,0,0,63.11,0h0l-.17,1.85v0h0A55.88,55.88,0,0,1,113.1,52.07v0l1.9-.18Z"/>
<path class="cls-1" d="M100.47,39.19l0,0-1.71.73,0,0,0,0a44.67,44.67,0,0,1-14.3,53.37l0,0,1.11,1.49,0,0,0,0A46.57,46.57,0,0,0,100.47,39.19Z"/>
<path class="cls-1" d="M94.84,29.44A46.56,46.56,0,0,0,57.55,10.76,46.47,46.47,0,0,0,39.2,14.53l-.05,0,.75,1.75,0,0a44.7,44.7,0,0,1,53.38,14.3l0,0,1.49-1.11,0,0Z"/>
<path class="cls-1" d="M75.1,98.7l0,0a44.7,44.7,0,0,1-53.38-14.3l0,0-1.49,1.11,0,0,0,0a46.57,46.57,0,0,0,55.65,14.91l0,0Z"/>
<path class="cls-1" d="M29.51,20.17l0,0,0,0A46.57,46.57,0,0,0,14.53,75.81l0,0,1.71-.73,0,0,0,0a44.69,44.69,0,0,1,14.3-53.38l0,0Z"/>
<path class="cls-1" d="M36.19,83.68A33.67,33.67,0,0,1,26,45.48l0,0-1.74-.67h0l0,0A35.59,35.59,0,0,0,35,85.16l0,0,1.17-1.44,0,0Z"/>
<path class="cls-1" d="M83.75,78.81l0,0,0,0a33.66,33.66,0,0,1-38.2,10.24l0,0-.67,1.74v0l0,0A35.59,35.59,0,0,0,85.16,80l0,0Z"/>
<path class="cls-1" d="M80,29.84l0,0-1.17,1.44,0,0,0,0a33.67,33.67,0,0,1,10.24,38.2l0,0,1.74.67h0l0,0A35.57,35.57,0,0,0,80,29.84Z"/>
<path class="cls-1" d="M70.2,24.17A35.59,35.59,0,0,0,29.84,35l0,0,1.44,1.17,0,0,0,0A33.71,33.71,0,0,1,69.52,26l0,0,.67-1.74v0Z"/>
<path class="cls-2" d="M141.38,78.9h-8.49V25.37h8.49Z"/>
<path class="cls-2" d="M186.36,53.82V78.9h-7.88V54.58c0-6.73-3.44-9.94-9-9.94-7.88,0-11.24,6.5-11.24,12.85V78.9h-7.88V39.13h6.88l.54,6.73c2.83-4.59,7.11-7.34,14.07-7.34C180.24,38.52,186.36,42.35,186.36,53.82Z"/>
<path class="cls-2" d="M232.75,78.9H226l-.76-6.42c-2.76,4.51-7.81,7.11-14.53,7.11-12.32,0-18.21-9.33-18.21-20.49,0-11.4,6.2-20.65,18.21-20.65,7.64,0,11.93,3.36,14.14,6.73V22.92h7.88ZM200.63,59.1c0,8.94,4.51,14.3,12.24,14.3,6.42,0,12.16-4.82,12.16-14.3,0-9.64-5.74-14.46-12.16-14.46C205.06,44.64,200.63,50,200.63,59.1Z"/>
<path class="cls-2" d="M247.45,61.85c.15,7.72,5.88,11.39,14.07,11.39a33,33,0,0,0,13.38-3.06l1.46,5.89a37.22,37.22,0,0,1-15.61,3.45c-14,0-21.56-7.73-21.56-20.2s7.64-20.8,20.26-20.8c11.93,0,18.59,7.57,18.59,19.2a31,31,0,0,1-.23,4.13Zm.23-5.66h22.79c0-6.5-3.06-11.47-10.79-11.47C253.18,44.72,248.75,47.78,247.68,56.19Z"/>
<path class="cls-2" d="M308.74,39.13H322.2v5.36l-6.27.07a9.93,9.93,0,0,1,3.75,8.19c0,7.34-5.89,12.31-17.44,12.31a28.88,28.88,0,0,1-8.95-1.22,3.89,3.89,0,0,0-2.06,3.44c.08,3.29,4.13,3.82,10.25,3.82h6c7.88,0,13.84,2.3,13.84,9.72,0,9.4-9.56,11.62-19.42,11.62-9.18,0-18.59-1.91-18.59-9.94a9.19,9.19,0,0,1,4.44-7.8,6.8,6.8,0,0,1-3.37-6.2,8.53,8.53,0,0,1,4.06-7.34c-2.38-2.06-3.75-5.12-3.75-9.25,0-9,6.58-13.39,17.67-13.39A29.13,29.13,0,0,1,308.74,39.13ZM293.91,76.84c-1.69,1.07-2.83,2.45-2.83,4.44,0,4.2,5,4.89,11.09,4.89,5.73,0,11.16-.61,11.16-5,0-3-2.44-3.82-6.57-3.82h-4.67A51.6,51.6,0,0,1,293.91,76.84Zm-1.15-25c0,5,4.05,7,9.41,7,6,0,9.4-2.52,9.4-7,0-4.74-3.74-7-9.33-7S292.76,47.09,292.76,51.83Z"/>
<path class="cls-2" d="M351.06,81.35c-3.59,9.41-7.8,10.86-13.23,10.86a42.65,42.65,0,0,1-7.95-.69l.23-6a37.7,37.7,0,0,0,5.89.61c3.51,0,5.43-2,6.88-5.66l.61-1.53L326.67,39.13h8.79l12.24,31,11.32-31h8.18Z"/>
</g>
</g>
</svg>
