<?xml version="1.0" ?>
<svg xmlns="http://www.w3.org/2000/svg" viewBox="0 0 248.00053 61.50784">
	<defs>
		<style>.cls-1{fill:#65c179;}.cls-2{fill:#163a46;}</style>
	</defs>
	<g>
		<g id="logo">
			<rect class="cls-1" x="211.10433" y="47.57303" width="11.85403" height="11.85403" rx=".90357" ry=".90357" transform="translate(332.66544 244.79463) rotate(-135)"/>
			<rect class="cls-1" x="222.58503" y="36.09234" width="11.85403" height="11.85403" rx=".90357" ry=".90357" transform="translate(360.38229 233.31394) rotate(-135)"/>
			<rect class="cls-1" x="234.06572" y="24.61164" width="11.85403" height="11.85403" rx=".90357" ry=".90357" transform="translate(388.09913 221.83324) rotate(-135)"/>
			<rect class="cls-1" x="211.31959" y="24.82691" width="11.85403" height="11.85403" rx=".90357" ry=".90357" transform="translate(349.11685 206.11678) rotate(-135)"/>
			<rect class="cls-1" x="222.80029" y="13.34621" width="11.85403" height="11.85403" rx=".90357" ry=".90357" transform="translate(376.8337 194.63609) rotate(-135)"/>
			<rect class="cls-1" x="211.53486" y="2.08078" width="11.85403" height="11.85403" rx=".90357" ry=".90357" transform="translate(365.56827 167.43893) rotate(-135)"/>
		</g>
		<g>
			<g id="text">
				<path class="cls-2" d="M 22.47607,14.94557 L 22.47607,52.88551 L 14.4624,52.88551 L 14.4624,14.94557 L 0.0,14.94557 L 0.0,7.93385 L 36.93799,7.93385 L 36.93799,14.94557 L 22.47608,14.94557 L 22.47607,14.94557"/>
				<path class="cls-2" d="M 26.85352,36.48268 C 26.85352,26.84108 33.36426,19.39088 42.50489,19.39088 C 52.02149,19.39088 57.09229,26.59059 57.09229,35.60621 L 57.09229,38.11012 L 34.05323,38.11012 C 34.61671,43.74489 37.99708,47.18824 42.81788,47.18824 C 46.51173,47.18824 49.4546,45.31031 50.45606,41.92945 L 56.90479,44.37086 C 54.5879,50.13063 49.39161,53.57398 42.81788,53.57398 C 33.42726,53.57398 26.85352,46.62476 26.85352,36.48267 L 26.85352,36.48268 M 34.42872,32.47584 L 49.5171,32.47584 C 49.4546,28.84449 47.20069,25.71412 42.44239,25.71412 C 38.56055,25.71412 35.55567,28.03053 34.42872,32.47584 L 34.42872,32.47584"/>
				<path class="cls-2" d="M 63.01514,42.11696 C 64.95606,45.31032 68.71241,47.43874 72.53174,47.43874 C 75.72461,47.43874 78.66699,46.31179 78.66699,43.3694 C 78.66699,40.55202 75.91211,40.23903 70.71582,39.17458 C 65.51953,38.11013 59.57178,36.79567 59.57178,29.78347 C 59.57178,23.77322 64.83106,19.39089 72.40625,19.39089 C 78.16602,19.39089 83.2998,21.95778 85.6792,25.58913 L 80.60791,30.15944 C 78.72949,27.21657 75.59912,25.52614 71.96826,25.52614 C 68.90039,25.52614 66.89697,26.90358 66.89697,29.09499 C 66.89697,31.4739 69.27588,31.91237 73.4082,32.78884 C 78.97998,33.97829 85.99218,35.16775 85.99218,42.68044 C 85.99218,49.31716 79.91894,53.57399 72.46874,53.57399 C 66.39599,53.57399 60.32323,51.13258 57.38085,46.62477 L 63.01513,42.11696 L 63.01514,42.11696"/>
				<path class="cls-2" d="M 90.87549,26.4026 L 86.30518,26.4026 L 86.30518,20.01686 L 90.87549,20.01686 L 90.87549,10.37526 L 98.26319,10.37526 L 98.26319,20.01686 L 105.14991,20.01686 L 105.14991,26.4026 L 98.26319,26.4026 L 98.26319,43.4319 C 98.26319,46.37428 99.95362,46.68727 102.64551,46.68727 C 103.89795,46.68727 104.58643,46.62477 105.71338,46.49977 L 105.71338,52.82301 C 104.33594,53.0735 102.45801,53.261 100.51709,53.261 C 94.25635,53.261 90.87549,51.32057 90.87549,44.62135 L 90.87549,26.4026"/>
				<path class="cls-2" d="M 116.83252,52.88551 L 108.81885,52.88551 L 108.81885,7.93385 L 126.78711,7.93385 C 136.8042,7.93385 143.06494,12.62916 143.06494,21.70729 C 143.06494,28.782 139.1831,33.28981 132.60937,34.85475 L 144.1914,52.88551 L 135.05126,52.88551 L 124.09472,35.48072 L 116.83251,35.48072 L 116.83251,52.88551 L 116.83252,52.88551 M 126.34863,28.59401 C 132.1084,28.59401 135.17627,26.08962 135.17627,21.70729 C 135.17627,17.26247 132.1084,14.82057 126.34863,14.82057 L 116.83252,14.82057 L 116.83252,28.59401 L 126.34863,28.59401 L 126.34863,28.59401"/>
				<path class="cls-2" d="M 144.02295,43.74489 C 144.02295,37.48415 148.71875,34.72975 155.04199,33.41481 L 164.12011,31.53639 L 164.12011,30.97291 C 164.12011,27.84254 162.49218,25.90211 158.48534,25.90211 C 154.91698,25.90211 153.03856,27.52955 152.1621,30.72291 L 145.08739,29.09498 C 146.71532,23.6482 151.53612,19.39088 158.79833,19.39088 C 166.687,19.39088 171.44481,23.14723 171.44481,30.72291 L 171.44481,44.87184 C 171.44481,46.75026 172.25877,47.31373 174.32469,47.06325 L 174.32469,52.88552 C 168.87791,53.5115 165.99803,52.44704 164.87108,49.75515 C 162.80516,52.07156 159.3618,53.449 155.10448,53.449 C 148.84374,53.449 144.02294,49.63015 144.02294,43.7449 L 144.02295,43.74489 M 164.12012,37.29665 L 157.04541,38.79909 C 153.85254,39.48757 151.47363,40.48952 151.47363,43.4319 C 151.47363,45.99879 153.35156,47.43874 156.23144,47.43874 C 160.23828,47.43874 164.12011,45.31032 164.12011,41.30349 L 164.12011,37.29665 L 164.12012,37.29665"/>
				<path class="cls-2" d="M 184.53613,52.88551 L 177.02343,52.88551 L 177.02343,20.01686 L 184.53613,20.01686 L 184.53613,52.88551"/>
				<path class="cls-2" d="M 197.01367,52.88551 L 189.50097,52.88551 L 189.50097,7.93385 L 197.01367,7.93385 L 197.01367,52.88551"/>
				<rect class="cls-2" x="176.89819" y="7.93385" width="7.76318" height="7.70068"/>
			</g>
		</g>
	</g>
</svg>