<svg xmlns="http://www.w3.org/2000/svg" role="img" viewBox="41.45 24.20 366.86 91.11"><style>svg {enable-background:new 0 0 450 140}</style><path d="M153.6 86.6h-1.9c-.9 0-1.7-.4-2.3-1.2-.7-.8-1-1.9-1-3.2v-13h3.8c1 0 1.9-.3 2.6-.9.7-.6 1.1-1.5 1.1-2.4 0-1-.4-1.9-1.1-2.5-.7-.6-1.5-.9-2.6-.9h-3.8v-7.2c0-1.1-.4-2-1.1-2.7-.7-.7-1.6-1.1-2.7-1.1s-2 .4-2.7 1.1-1.1 1.6-1.1 2.7v7.2h-1.6c-1 0-1.9.3-2.6.9-.7.6-1.1 1.5-1.1 2.5 0 .9.4 1.8 1.1 2.4.7.6 1.5.9 2.6.9h1.6v13c0 2.2.5 4.3 1.4 6.1.9 1.8 2.3 3.3 3.9 4.3 1.7 1.1 3.6 1.6 5.6 1.6h1c1.2 0 2.2-.3 3-1 .8-.7 1.3-1.7 1.3-2.8 0-1.1-.3-2-1-2.7-.6-.7-1.4-1.1-2.4-1.1zm33.5-23.4c-2.3-1.4-5-2.1-8.1-2.1-3.1 0-6 .7-8.4 2.1-2.4 1.4-4.4 3.4-5.8 5.9-1.4 2.5-2.1 5.4-2.1 8.6 0 3.2.7 6.1 2.2 8.6 1.5 2.5 3.5 4.5 6.1 5.9 2.6 1.4 5.5 2.1 8.8 2.1 1.8 0 3.8-.3 5.8-1s3.7-1.6 5.1-2.6c1.1-.9 1.3-1.9 1.3-2.6-.1-.9-.5-1.8-1.4-2.6-.7-.6-1.5-.9-2.4-.8-.9 0-1.7.3-2.4.8s-1.6 1-2.7 1.4c-1.1.4-2.2.6-3.3.6-2 0-3.7-.4-5.2-1.3-1.5-.8-2.7-2-3.5-3.5-.4-.6-.7-1.3-.9-2.1h20.3c1 0 1.9-.3 2.5-1 .7-.7 1-1.5 1-2.5 0-3.1-.6-5.9-1.8-8.3-1.1-2.3-2.8-4.2-5.1-5.6zm-8.1 4.7c1.7 0 3.1.4 4.3 1.1 1.2.8 2.1 1.8 2.7 3.1.3.6.5 1.3.7 2.1h-16.4c.2-.6.4-1.1.6-1.6.7-1.5 1.7-2.6 3.1-3.5 1.4-.8 3.1-1.2 5-1.2zm42.9 8.4c-1.7-.9-4.1-1.7-7-2.2-2-.4-3.5-.8-4.5-1.2-1.1-.5-1.5-.9-1.7-1.1-.3-.4-.4-.8-.4-1.3s.1-1.1 1.2-1.6c1-.5 2.3-.7 3.8-.7 1.3 0 2.5.2 3.5.5.9.3 1.8.8 2.7 1.6.7.7 1.6 1.1 2.6 1.3 1.1.2 2.1 0 2.9-.6.8-.6 1.3-1.5 1.4-2.4.1-.9-.3-1.8-1-2.6-1.2-1.5-2.9-2.7-5-3.6-2-.8-4.4-1.3-7-1.3-2 0-4 .3-5.9 1-1.9.7-3.5 1.7-4.8 3.1-1.3 1.4-1.9 3.3-1.9 5.4 0 2.5 1 4.6 2.9 6.3 1.9 1.6 4.7 2.8 8.8 3.6 3.5.6 5 1.4 5.7 1.9 1.1.8 1.2 1.6 1.2 2.1s-.2 1.3-1.3 2c-1 .6-2.5.9-4.5.9-1.6 0-3-.3-4.3-.8-1.3-.6-2.2-1.2-2.8-1.8-.7-.7-1.5-1.2-2.5-1.3-1-.1-2 .2-3 1-.9.7-1.4 1.5-1.5 2.6-.1 1.1.2 2 1 2.9 1.3 1.3 3.2 2.5 5.6 3.3 2.3.8 4.9 1.3 7.7 1.3s5.2-.4 7.1-1.3c1.9-.9 3.5-2.1 4.5-3.7s1.5-3.3 1.5-5.2c0-1.7-.4-3.2-1.2-4.5-.7-1.5-2-2.7-3.8-3.6zm26.9 10.3h-1.9c-.9 0-1.7-.4-2.3-1.2-.7-.8-1-1.9-1-3.2v-13h3.8c1 0 1.9-.3 2.6-.9.7-.6 1.1-1.5 1.1-2.4 0-1-.4-1.9-1.1-2.5-.7-.6-1.5-.9-2.6-.9h-3.8v-7.2c0-1.1-.4-2-1.1-2.7-.7-.7-1.6-1.1-2.7-1.1s-2 .4-2.7 1.1-1.1 1.6-1.1 2.7v7.2h-1.6c-1 0-1.9.3-2.6.9-.7.6-1.1 1.5-1.1 2.5 0 .9.4 1.8 1.1 2.4.7.6 1.5.9 2.6.9h1.6v13c0 2.2.5 4.3 1.4 6.1.9 1.8 2.3 3.3 3.9 4.3 1.7 1.1 3.6 1.6 5.6 1.6h1c1.2 0 2.2-.3 3-1 .8-.7 1.3-1.7 1.3-2.8 0-1.1-.3-2-1-2.7-.6-.7-1.5-1.1-2.4-1.1zm25.4-10.8l9.7-8.6c.8-.7 1.2-1.5 1.2-2.5.1-1-.3-1.8-1-2.6s-1.5-1.2-2.5-1.2c-1-.1-1.9.3-2.6 1l-12 10.7V51.8c0-1.1-.4-2-1.1-2.7-.7-.7-1.6-1.1-2.7-1.1s-2 .4-2.7 1.1c-.7.7-1.1 1.6-1.1 2.7v38.6c0 1.1.4 2 1.1 2.7.7.7 1.6 1.1 2.7 1.1s2-.4 2.7-1.1c.7-.7 1.1-1.6 1.1-2.7v-8.2l1.7-1.5 10.1 12.5c.7.8 1.5 1.3 2.5 1.4h.3c.9 0 1.7-.3 2.4-.9.9-.7 1.3-1.5 1.4-2.5.1-1-.2-1.8-.9-2.6l-10.3-12.8zm45.2-14.5c-1.1 0-2 .4-2.7 1.1-.7.7-1.1 1.7-1.1 2.8v15.9c0 1.2-.3 2.2-1 3.1-.7 1-1.6 1.7-2.7 2.3-1.1.6-2.4.9-3.9.9s-2.9-.3-4.2-.9c-1.2-.6-2.1-1.4-2.8-2.7-.7-1.2-1.1-2.8-1.1-4.7v-14c0-1.1-.4-2-1.1-2.8-.7-.7-1.7-1.1-2.8-1.1-1.1 0-2 .4-2.8 1.1-.7.7-1.1 1.7-1.1 2.8V79c0 3.3.6 6.1 1.9 8.4 1.3 2.3 3 4.1 5.3 5.3 2.2 1.2 4.7 1.8 7.5 1.8 2.7 0 5.1-.6 7.2-1.8.6-.3 1.1-.7 1.6-1 .2.5.5 1 .9 1.4.7.7 1.7 1.1 2.8 1.1 1.1 0 2.1-.4 2.8-1.1.7-.7 1.1-1.7 1.1-2.7V65.1c0-1.1-.4-2.1-1.1-2.8-.6-.7-1.6-1-2.7-1zm36.9 2c-2.3-1.5-5-2.2-7.9-2.2-2.4 0-4.6.5-6.6 1.5-1.2.6-2.3 1.4-3.4 2.2V51.9c0-1.1-.4-2.1-1.1-2.8-.7-.7-1.7-1.1-2.8-1.1-1.1 0-2 .4-2.7 1.1-.7.7-1.1 1.7-1.1 2.8v25.8c0 3.1.8 6 2.2 8.5 1.4 2.5 3.4 4.5 5.9 6 2.5 1.5 5.3 2.2 8.4 2.2 3.1 0 6-.7 8.5-2.2 2.5-1.5 4.5-3.5 5.9-6 1.5-2.5 2.2-5.4 2.2-8.5 0-3.1-.7-6-2-8.5-1.3-2.4-3.1-4.4-5.5-5.9zm-9 24.1c-1.7 0-3.2-.4-4.6-1.2-1.4-.8-2.5-2-3.2-3.4-.8-1.5-1.2-3.1-1.2-5s.4-3.5 1.2-5c.8-1.4 1.9-2.6 3.2-3.4 1.4-.8 2.9-1.2 4.6-1.2 1.7 0 3.3.4 4.6 1.2 1.4.8 2.4 2 3.2 3.4.8 1.4 1.2 3.1 1.2 4.9 0 1.8-.4 3.5-1.2 5-.8 1.5-1.9 2.6-3.2 3.4-1.3.9-2.9 1.3-4.6 1.3zm53.1-7.6c.7-.7 1-1.5 1-2.5 0-3.1-.6-5.9-1.8-8.3-1.2-2.4-2.9-4.4-5.2-5.8-2.3-1.4-5-2.1-8.1-2.1-3.1 0-6 .7-8.4 2.1-2.4 1.4-4.4 3.4-5.8 5.9-1.4 2.5-2.1 5.4-2.1 8.6 0 3.2.7 6.1 2.2 8.6 1.5 2.5 3.5 4.5 6.1 5.9 2.6 1.4 5.5 2.1 8.8 2.1 1.8 0 3.8-.3 5.8-1s3.7-1.6 5.1-2.6c1.1-.9 1.3-1.9 1.3-2.6-.1-.9-.5-1.8-1.4-2.6-.7-.6-1.5-.9-2.4-.8-.9 0-1.7.3-2.4.8s-1.6 1-2.7 1.4c-1.1.4-2.2.6-3.3.6-2 0-3.7-.4-5.2-1.3-1.5-.8-2.7-2-3.5-3.5-.4-.6-.7-1.3-.9-2.1h20.3c1.1.1 1.9-.2 2.6-.8zm-14-11.9c1.7 0 3.1.4 4.3 1.1 1.2.8 2.1 1.8 2.7 3.1.3.6.5 1.3.7 2.1h-16.4c.2-.6.4-1.1.6-1.6.7-1.5 1.7-2.6 3.1-3.5 1.4-.8 3-1.2 5-1.2z"/><linearGradient id="SVGID_1_" x1="59.944" x2="100.123" y1="90.04" y2="49.861" gradientUnits="userSpaceOnUse"><stop offset="0" stop-color="#aeb5d9"/><stop offset=".142" stop-color="#9b9ad5"/><stop offset=".417" stop-color="#7b6dce"/><stop offset=".661" stop-color="#644cc8"/><stop offset=".864" stop-color="#5637c5"/><stop offset="1" stop-color="#5130c4"/></linearGradient><path fill="url(#SVGID_1_)" d="M110.4 60.1L82.6 32.4c-1.4-1.4-3.8-1.4-5.2 0L49.7 60.1c-.7.7-1.1 1.6-1.1 2.6v14.4c0 1 .4 1.9 1.1 2.6l27.7 27.7c1.4 1.4 3.8 1.4 5.2 0l27.7-27.7c.7-.7 1.1-1.6 1.1-2.6V62.7c.1-.9-.3-1.9-1-2.6zm-2.3 15.2l-5.4-5.4 5.4-5.4v10.8zm-7.7-7.7L81.7 48.9V36l25.2 25.2-6.5 6.4zM62 69.9l18-18L98.1 70 80 88 62 69.9zM78.4 36v12.9L59.7 67.6l-6.4-6.4L78.4 36zm1.6 69.5V92.6l20.4-20.4 6.4 6.4L80 105.5z"/></svg>