<svg xmlns="http://www.w3.org/2000/svg" viewBox="0 0 150 75"><defs><style>.cls-1{fill:none;}.cls-2{fill:#0190fe;}</style></defs><g id="Layer_2" data-name="Layer 2"><g id="Layer_1-2" data-name="Layer 1"><rect class="cls-1" width="150" height="75"/><path class="cls-2" d="M8.94,41.79c.15-.51.15-1,.25-1.57a16.07,16.07,0,0,1,5.47-9.36,18.54,18.54,0,0,1,3.65-2.49.31.31,0,0,0,.22-.41c-.73-3.89-1.43-7.78-2.15-11.67l0-.31a.58.58,0,0,1,.36.12c2.79,1.35,5.59,2.69,8.37,4a.39.39,0,0,0,.59-.13q1.89-2.4,3.8-4.78c.26-.32.26-.32.52,0q1.92,2.4,3.83,4.81a.33.33,0,0,0,.5.11l8.4-4.06.42-.18-.46,2.5q-.87,4.76-1.75,9.51c0,.26.07.35.27.46a18,18,0,0,1,6.95,6.34A15.11,15.11,0,0,1,50.47,44,12.48,12.48,0,0,1,48,50.35a26.08,26.08,0,0,1-6.51,6.15,35,35,0,0,1-6,3.38,1.43,1.43,0,0,0-.21.12h-.13c0-.14-.16-.19-.25-.26C33.26,58.36,31.61,57,30,55.61c-.21-.17-.32-.15-.51,0-.88.75-1.77,1.49-2.66,2.23L24.28,60h-.14a9,9,0,0,0-1.25-.61,33.05,33.05,0,0,1-10.2-7.49,14.74,14.74,0,0,1-3.44-6.25c-.12-.5-.21-1-.31-1.52ZM29.45,29.07a16.46,16.46,0,0,0-1.69.08,21.25,21.25,0,0,0-5.17,1c-.18.06-.24.12-.2.33.45,2.43.89,4.86,1.34,7.29.58,3.17,1.15,6.34,1.73,9.51a.56.56,0,0,0,.17.33l3.93,3.28a.23.23,0,0,0,.35,0c1.29-1.09,2.59-2.17,3.9-3.26a.5.5,0,0,0,.18-.35c.32-1.72.63-3.44.95-5.16.7-3.82,1.39-7.64,2.1-11.46.06-.32,0-.46-.32-.56A23.58,23.58,0,0,0,29.45,29.07Zm10.8,2.65-.31,1.68Q38.52,41.2,37.09,49a.79.79,0,0,1-.31.54C35.37,50.69,34,51.88,32.56,53c-.19.16-.18.23,0,.38,1,.81,2,1.63,2.95,2.46a.36.36,0,0,0,.48,0c.9-.49,1.8-1,2.66-1.56a25.94,25.94,0,0,0,6-5.16,9.71,9.71,0,0,0,2.21-8.77,13,13,0,0,0-4.52-7.22A13.76,13.76,0,0,0,40.25,31.72ZM27.12,53.23,26.81,53c-1.38-1.15-2.75-2.31-4.14-3.46a.79.79,0,0,1-.3-.51c-.18-1-.37-2.06-.56-3.1L19.26,32c0-.22-.09-.24-.27-.13A13.73,13.73,0,0,0,13,39a10.46,10.46,0,0,0-.51,5.54,10.56,10.56,0,0,0,2.46,4.73,27.93,27.93,0,0,0,8.16,6.41c.64.36.65.35,1.21-.12ZM20.83,21.81c0,.13,0,.2,0,.27.27,1.52.56,3,.82,4.55,0,.26.15.26.37.19a25.3,25.3,0,0,1,6.52-1.11,25.85,25.85,0,0,1,8.91,1.13c.22.07.27,0,.3-.2.15-.83.31-1.66.46-2.49s.28-1.55.42-2.35l-.32.14c-1.63.79-3.28,1.58-4.9,2.38-.29.15-.42.1-.61-.14-.94-1.21-1.91-2.4-2.86-3.61-.18-.22-.26-.27-.46,0-1,1.25-2,2.47-2.94,3.72a.29.29,0,0,1-.42.09c-1.13-.56-2.27-1.1-3.4-1.65Z"/><path class="cls-2" d="M79,41.21H74c-.28,0-.39,0-.36.36a6.84,6.84,0,0,0,.45,2,3.51,3.51,0,0,0,3.41,2.28,6.64,6.64,0,0,0,1.33-.11,2.63,2.63,0,0,0,2.16-2,.34.34,0,0,1,.4-.3h2.58c.27,0,.3.08.25.32a5.49,5.49,0,0,1-5.09,4.55,11.15,11.15,0,0,1-3.69-.15A5.84,5.84,0,0,1,71,44.44a10.35,10.35,0,0,1,.23-8.34,6.38,6.38,0,0,1,5.23-3.66,8.44,8.44,0,0,1,3.57.23,5.88,5.88,0,0,1,4.19,4.73A16.63,16.63,0,0,1,84.42,41c0,.28-.18.21-.33.21Zm-1.59-2.3h2.71c.35,0,.85.16,1-.07s0-.73,0-1.1A3.08,3.08,0,0,0,78.69,35,5.66,5.66,0,0,0,77,34.92a3.26,3.26,0,0,0-2.58,1.55,5.37,5.37,0,0,0-.71,2.13c0,.24,0,.31.28.31Z"/><path class="cls-2" d="M126.07,40.58a9.33,9.33,0,0,1,1-4.67,6.63,6.63,0,0,1,5.19-3.46,8.49,8.49,0,0,1,4,.32,6.26,6.26,0,0,1,4.08,3.85,9.93,9.93,0,0,1-.27,8.06,6.43,6.43,0,0,1-5.14,3.63,9.1,9.1,0,0,1-4.21-.3,6.38,6.38,0,0,1-4.35-4.85A10.45,10.45,0,0,1,126.07,40.58Zm3.44-.2a7.72,7.72,0,0,0,.57,3.22,3.34,3.34,0,0,0,1.35,1.64,3.89,3.89,0,0,0,5.73-2.07,8.74,8.74,0,0,0,0-5.47,3.34,3.34,0,0,0-2.94-2.61c-2.1-.24-3.69.41-4.41,2.72A8.3,8.3,0,0,0,129.51,40.38Z"/><path class="cls-2" d="M87.78,43.32h1.34c.16,0,.25,0,.28.21a2.55,2.55,0,0,0,2.41,2.21,7.26,7.26,0,0,0,3-.11A1.8,1.8,0,0,0,96,43.1a1.68,1.68,0,0,0-1-1,18.37,18.37,0,0,0-2.55-.55,19.76,19.76,0,0,1-3.29-.81,3.56,3.56,0,0,1-2.54-2.88,4.17,4.17,0,0,1,1.65-4.24,6.63,6.63,0,0,1,3.48-1.23,10.59,10.59,0,0,1,4.19.36,4.8,4.8,0,0,1,3.32,3.73c0,.17,0,.23-.17.25l-2.55.35a.21.21,0,0,1-.27-.18c0-.14-.11-.28-.17-.41A2.48,2.48,0,0,0,94,35a6.31,6.31,0,0,0-3.05.21,1.62,1.62,0,0,0-1.2,2,1.17,1.17,0,0,0,.77,1,10.24,10.24,0,0,0,2.23.55,20.45,20.45,0,0,1,3.94.9,3.75,3.75,0,0,1,2.51,2.39,5.35,5.35,0,0,1,.15,2.75,4.09,4.09,0,0,1-2.93,3.13,10.7,10.7,0,0,1-7.15-.18,4.56,4.56,0,0,1-3.07-4.17c0-.2,0-.27.23-.26Z"/><path class="cls-2" d="M61.87,39.91c0-1.39,0-2.77,0-4.16,0-.24-.07-.31-.31-.3-.61,0-1.21,0-1.82,0-.2,0-.26-.06-.25-.25,0-.71,0-1.42,0-2.13,0-.2.08-.25.26-.25.6,0,1.2,0,1.79,0,.29,0,.34-.09.34-.35,0-1.12,0-2.24,0-3.36,0-.32.09-.39.39-.38.83,0,1.67,0,2.51,0,.3,0,.41.06.4.39,0,1.11,0,2.22,0,3.33,0,.32.1.38.39.37h3.1c.21,0,.3,0,.29.29,0,.68,0,1.37,0,2.06,0,.23-.07.29-.29.29H65.5c-.26,0-.36,0-.36.33,0,2.53,0,5.06,0,7.59a4.76,4.76,0,0,0,.07.75,1.61,1.61,0,0,0,1.65,1.44,5.47,5.47,0,0,0,1.71-.17c.21-.06.32-.06.36.21.11.64.26,1.28.39,1.92,0,.15,0,.27-.17.33a9.07,9.07,0,0,1-4.42.22,3.43,3.43,0,0,1-2.69-3,14.2,14.2,0,0,1-.19-2.91C61.87,41.4,61.87,40.65,61.87,39.91Z"/><path class="cls-2" d="M103,39.79c0-1.34,0-2.68,0-4,0-.25-.05-.33-.32-.33-.61,0-1.21,0-1.82,0-.19,0-.26,0-.26-.24q0-1.07,0-2.13c0-.21.08-.25.26-.25.56,0,1.13,0,1.69,0s.45.05.45-.43c0-1.11,0-2.22,0-3.33,0-.25.06-.33.32-.33.88,0,1.77,0,2.65,0,.29,0,.34.1.33.35,0,1.15,0,2.29,0,3.44,0,.24.07.31.31.31h3.1c.25,0,.36,0,.35.33,0,.68,0,1.35,0,2,0,.21-.06.27-.27.27h-3.16c-.24,0-.32,0-.32.3q0,3.82,0,7.66c0,.15,0,.3,0,.44a1.69,1.69,0,0,0,1.84,1.72,5.68,5.68,0,0,0,1.59-.19c.19-.06.28-.06.32.17.12.68.26,1.35.4,2,0,.16,0,.23-.15.27a8.84,8.84,0,0,1-4.62.19,3.35,3.35,0,0,1-2.47-2.79,7.92,7.92,0,0,1-.22-1.88V39.79Z"/><path class="cls-2" d="M112.8,37.56c0-3.34,0-6.69,0-10,0-.28.07-.37.36-.36.88,0,1.76,0,2.65,0,.23,0,.31,0,.31.3q0,10.11,0,20.2c0,.23-.07.3-.29.29-.91,0-1.81,0-2.72,0-.27,0-.31-.1-.31-.34Z"/><path class="cls-2" d="M123.07,40.39c0,2.41,0,4.81,0,7.22,0,.28-.07.36-.36.36-.88,0-1.76,0-2.64,0-.23,0-.32,0-.32-.29q0-7.28,0-14.54c0-.24.07-.3.31-.3.9,0,1.81,0,2.71,0,.26,0,.3.08.3.31C123.06,35.56,123.07,38,123.07,40.39Z"/><path class="cls-2" d="M121.42,27.18c.48,0,1,0,1.44,0,.2,0,.28,0,.27.27,0,.92,0,1.85,0,2.77,0,.2,0,.26-.25.26h-2.95c-.21,0-.24-.08-.24-.26,0-.93,0-1.86,0-2.78,0-.19,0-.26.25-.26C120.43,27.19,120.92,27.18,121.42,27.18Z"/></g></g></svg>