<?xml version="1.0" ?>
<svg xmlns="http://www.w3.org/2000/svg" viewBox="0 0 130 37" version="1.1">
	<g id="Home-Page-" stroke="none" stroke-width="1" fill="none" fill-rule="evenodd">
		<g id="Home-Page---Sauce-Labs" transform="translate(-390.000000, -22.000000)" fill="#FFFFFF" fill-rule="nonzero">
			<g id="SL-TF-logo-white-v1-Copy" transform="translate(390.000000, 22.000000)">
				<path d="M9.89434954,30.4312746 L11.4318003,30.4312746 L12.1885677,35.8977661 L10.8509855,35.8977661 L10.7365309,34.7498029 L9.0282523,34.7498029 L8.47647832,35.8977661 L7.04664915,35.8977661 L9.89434954,30.4312746 Z M10.6289093,33.6855453 L10.5229961,32.6281209 C10.492247,32.2864652 10.4768725,31.6868594 10.4768725,31.6868594 L10.461498,31.6868594 C10.461498,31.6868594 10.2394218,32.2762155 10.0788436,32.6281209 L9.55781866,33.6923784 L10.6289093,33.6855453 Z" id="Shape"/>
				<path d="M16.0680683,34.2663601 C16.4251094,34.5825255 16.8843499,34.7590632 17.3612352,34.7634691 C17.6226018,34.7634691 18.0189225,34.6490145 18.0189225,34.2817346 C18.0189225,33.707753 15.9689882,33.5625493 15.9689882,32.0473062 C15.9689882,30.9676741 16.9939553,30.3390276 18.0052562,30.3390276 C19.29159,30.3390276 19.8724047,30.9762155 19.8724047,30.9762155 L19.1532194,31.9618922 C18.8133268,31.7132046 18.4041795,31.5770213 17.9830486,31.5724047 C17.7148489,31.5724047 17.2997372,31.7107753 17.2997372,32.0473062 C17.2997372,32.6520368 19.3496715,32.7442838 19.3496715,34.2817346 C19.3496715,35.2229961 18.4955322,35.9900131 17.3151117,35.9900131 C15.9143233,35.9900131 15.2480946,35.2093298 15.2480946,35.2093298 L16.0680683,34.2663601 Z" id="Path"/>
				<path d="M22.6415243,30.4312746 L24.178975,30.4312746 L24.9374507,35.8977661 L23.5981603,35.8977661 L23.4837057,34.7498029 L21.7754271,34.7498029 L21.2236531,35.8977661 L19.7938239,35.8977661 L22.6415243,30.4312746 Z M23.3760841,33.6855453 L23.2684625,32.6212878 C23.2377135,32.2796321 23.222339,31.6800263 23.222339,31.6800263 L23.2069645,31.6800263 C23.2069645,31.6800263 22.9848883,32.2762155 22.817477,32.6212878 L22.3049934,33.6855453 L23.3760841,33.6855453 Z" id="Shape"/>
				<path d="M26.251117,33.8529566 L26.9173456,30.4363995 L28.256636,30.4363995 L27.581866,33.8973719 C27.568076,33.9677403 27.5606435,34.0392065 27.5596583,34.1109067 C27.5596583,34.5465177 27.8654402,34.7771353 28.3642576,34.7771353 C28.9536137,34.7771353 29.3670171,34.4713535 29.4814717,33.8973719 L30.1545335,30.4363995 L31.4938239,30.4363995 L30.8105125,33.934954 C30.5645204,35.1666229 29.630092,36.0019711 28.3147175,36.0019711 C27.1735874,36.0019711 26.2015769,35.412615 26.2015769,34.3022339 C26.20292,34.1511887 26.2195176,34.0006656 26.251117,33.8529566 Z" id="Path"/>
				<path d="M35.4416557,30.3390276 C36.9022339,30.3390276 37.553088,31.1282523 37.553088,31.1282523 L36.7963206,32.0473062 C36.4249371,31.7470577 35.965165,31.5771941 35.4877792,31.5638633 C34.2697766,31.5638633 33.6086728,32.6127464 33.6086728,33.4788436 C33.6086728,34.1826544 34.0135348,34.7720105 34.8796321,34.7720105 C35.7047306,34.7720105 36.4785808,34.1211564 36.4785808,34.1211564 L36.9996058,35.1854139 C36.3791152,35.6947284 35.6053451,35.98053 34.8027595,35.9968463 C33.2021025,35.9968463 32.2232589,34.9940867 32.2232589,33.5693824 C32.2316086,31.7934322 33.6657487,30.3539635 35.4416557,30.3390276 L35.4416557,30.3390276 Z" id="Path"/>
				<polygon id="Path" points="39.1503285 30.4312746 42.5668857 30.4312746 42.3448095 31.5809461 40.2607096 31.5809461 40.0693824 32.5751643 41.7298292 32.5751643 41.5009198 33.7231275 39.8404731 33.7231275 39.6406045 34.756636 41.8374507 34.756636 41.6153745 35.9045992 38.0792378 35.9045992"/>
				<polygon id="Path" points="46.3575558 30.4312746 47.6968463 30.4312746 46.8546649 34.756636 49.0908016 34.756636 48.8567674 35.9045992 45.2932983 35.9045992"/>
				<path d="M52.4714849,30.4312746 L54.0089356,30.4312746 L54.7674113,35.8977661 L53.4281209,35.8977661 L53.3136662,34.7498029 L51.6053876,34.7498029 L51.0553219,35.8977661 L49.6237845,35.8977661 L52.4714849,30.4312746 Z M53.2060447,33.6855453 L53.0984231,32.6212878 C53.0676741,32.2796321 53.0522996,31.6800263 53.0522996,31.6800263 L53.0369251,31.6800263 C53.0369251,31.6800263 52.8148489,32.2762155 52.6474376,32.6212878 L52.1264126,33.6855453 L53.2060447,33.6855453 Z" id="Shape"/>
				<path d="M56.9010512,30.4312746 L58.6605782,30.4312746 C58.9839938,30.4206143 59.3070139,30.4621454 59.6172142,30.5542707 C60.1384158,30.7072963 60.4930009,31.1898678 60.4833114,31.7329829 C60.4613658,32.2893792 60.1323043,32.7875783 59.6291721,33.0261498 L59.6291721,33.0415243 C60.1040736,33.2123522 60.2885677,33.6547963 60.2885677,34.0904074 C60.2885677,34.9633377 59.7060447,35.5441524 58.947569,35.7816032 C58.6656438,35.8690895 58.371473,35.9106195 58.0763469,35.9045992 L55.8367937,35.9045992 L56.9010512,30.4312746 Z M58.2010512,34.756636 C58.3908691,34.7648016 58.5755166,34.6935683 58.71067,34.5600355 C58.8458234,34.4265026 58.9192788,34.2427277 58.9134034,34.0528252 C58.9134034,33.8068331 58.7596583,33.6240473 58.4316689,33.6240473 L57.6202365,33.6240473 L57.3981603,34.756636 L58.2010512,34.756636 Z M58.5153745,32.5512484 C58.6746878,32.5508316 58.8271274,32.4863046 58.9383238,32.3722158 C59.0495203,32.2581269 59.1101124,32.104081 59.1064389,31.9448095 C59.1064389,31.7381078 58.9919842,31.586071 58.6844941,31.586071 L58.0199737,31.586071 L57.8286465,32.5563732 L58.5153745,32.5512484 Z" id="Shape"/>
				<path d="M61.9268068,34.2663601 C62.2836034,34.5829278 62.7430005,34.7595256 63.2199737,34.7634691 C63.4796321,34.7634691 63.877661,34.6490145 63.877661,34.2817346 C63.877661,33.707753 61.8277267,33.5625493 61.8277267,32.0473062 C61.8277267,30.9676741 62.8526938,30.3390276 63.8639947,30.3390276 C65.1503285,30.3390276 65.7311432,30.9762155 65.7311432,30.9762155 L65.011958,31.9618922 C64.6715392,31.7129695 64.2617758,31.57678 63.8400788,31.5724047 C63.5735874,31.5724047 63.1670171,31.7107753 63.1670171,32.0473062 C63.1670171,32.6520368 65.2254928,32.7442838 65.2254928,34.2817346 C65.2254928,35.2229961 64.3713535,35.9900131 63.190933,35.9900131 C61.7884363,35.9900131 61.1239159,35.2093298 61.1239159,35.2093298 L61.9268068,34.2663601 Z" id="Path"/>
				<path d="M71.8894875,30.3390276 C73.351774,30.3390276 74.0009198,31.1282523 74.0009198,31.1282523 L73.2441524,32.0473062 C72.8722443,31.7468186 72.4118538,31.5769483 71.9339028,31.5638633 C70.7176084,31.5638633 70.0547963,32.6127464 70.0547963,33.4788436 C70.0547963,34.1826544 70.4596583,34.7720105 71.3257556,34.7720105 C72.1525624,34.7720105 72.9247043,34.1211564 72.9247043,34.1211564 L73.455979,35.1905388 C72.8354884,35.6998533 72.0617183,35.9856548 71.2591327,36.0019711 C69.6584757,36.0019711 68.6796321,34.9992116 68.6796321,33.5745072 C68.685128,31.799852 70.1149321,30.3586338 71.8894875,30.3390276 L71.8894875,30.3390276 Z" id="Path"/>
				<path d="M77.8172142,30.3390276 C79.3802891,30.3390276 80.3984231,31.3434954 80.3984231,32.7306176 C80.3984231,34.4986859 78.8353482,35.9985545 77.1834428,35.9985545 C75.6135348,35.9985545 74.6107753,34.9735874 74.6107753,33.5557162 C74.6107753,31.8166886 76.1413929,30.3390276 77.8172142,30.3390276 Z M77.1988173,34.7805519 C78.0939553,34.7805519 79.0130092,33.9264126 79.0130092,32.8211564 C79.0130092,32.0712221 78.5141919,31.5724047 77.803548,31.5724047 C76.8844941,31.5724047 75.9893561,32.4145861 75.9893561,33.487385 C75.9893561,34.2509855 76.4864652,34.7720105 77.1988173,34.7720105 L77.1988173,34.7805519 Z" id="Shape"/>
				<path d="M82.4842313,30.4312746 L83.9465177,30.4312746 L84.3052562,32.7442838 C84.3599212,33.0961892 84.3975033,33.6462549 84.3975033,33.6462549 L84.4128778,33.6462549 C84.4128778,33.6462549 84.6810775,33.1030223 84.8724047,32.7442838 L86.1194481,30.4312746 L87.590276,30.4312746 L86.9701708,35.8977661 L85.653088,35.8977661 L85.9674113,33.4327201 C86.0203679,33.0193167 86.1382392,32.5153745 86.1382392,32.5153745 L86.1228647,32.5153745 C86.1228647,32.5153745 85.8324573,33.0961892 85.6411301,33.4327201 L84.7528252,35.0180026 L83.5894875,35.0180026 L83.3127464,33.4327201 C83.2529566,33.0910644 83.1982917,32.5 83.1982917,32.5 L83.1931669,32.5 C83.1523842,32.8136504 83.095365,33.1249751 83.022339,33.4327201 L82.3800263,35.8977661 L81.0321945,35.8977661 L82.4842313,30.4312746 Z" id="Path"/>
				<path d="M89.607753,30.4312746 L91.6969777,30.4312746 C91.9842272,30.424144 92.2693246,30.4825656 92.5306176,30.6021025 C93.0431012,30.8463863 93.3266754,31.3520368 93.3266754,31.9875164 C93.3422576,32.8568154 92.8525493,33.6563392 92.0710907,34.0374507 C91.8079365,34.160088 91.5209428,34.2230866 91.2306176,34.2219448 L90.2056505,34.2219448 L89.8759527,35.9131406 L88.5366623,35.9131406 L89.607753,30.4312746 Z M91.0837057,33.0654402 C91.242099,33.0732628 91.3991972,33.0333931 91.5346912,32.9509855 C91.804774,32.7569864 91.9604399,32.4411703 91.9498029,32.1088042 C91.9498029,31.7859396 91.7653088,31.5809461 91.3980289,31.5809461 L90.7249671,31.5809461 L90.4345598,33.0654402 L91.0837057,33.0654402 Z" id="Shape"/>
				<path d="M95.9950066,30.4312746 L97.5324573,30.4312746 L98.290933,35.8977661 L96.9516426,35.8977661 L96.8354796,34.7498029 L95.1272011,34.7498029 L94.5771353,35.8977661 L93.1455979,35.8977661 L95.9950066,30.4312746 Z M96.7312746,33.6855453 L96.6236531,32.6212878 C96.5929041,32.2796321 96.5775296,31.6800263 96.5775296,31.6800263 L96.5621551,31.6800263 C96.5621551,31.6800263 96.346912,32.2762155 96.1760841,32.6281209 L95.6550591,33.6923784 L96.7312746,33.6855453 Z" id="Shape"/>
				<path d="M100.424573,30.4312746 L101.726281,30.4312746 L102.751248,32.9936925 C102.862484,33.2984947 102.954344,33.6100223 103.026281,33.9264126 L103.041656,33.9264126 C103.041656,33.9264126 103.096321,33.3370565 103.164652,32.9936925 L103.661761,30.4312746 L105.001051,30.4312746 L103.936794,35.8977661 L102.643627,35.8977661 L101.61866,33.3490145 C101.506228,33.043256 101.411546,32.7312606 101.335085,32.4145861 L101.319711,32.4145861 C101.319711,32.4145861 101.273587,33.0039422 101.205256,33.3490145 L100.708147,35.8977661 L99.3688568,35.8977661 L100.424573,30.4312746 Z" id="Path"/>
				<path d="M107.16544,33.6616294 L106.026018,30.4312746 L107.47293,30.4312746 L107.84021,31.7483574 C107.93929,32.1241787 108.011038,32.5375821 108.011038,32.5375821 L108.026413,32.5375821 C108.026413,32.5375821 108.262155,32.1310118 108.508147,31.7483574 L109.341787,30.4312746 L110.949277,30.4312746 L108.48594,33.7162943 L108.063995,35.9045992 L106.724704,35.9045992 L107.16544,33.6616294 Z" id="Path"/>
				<g id="_4">
					<path d="M76.6282523,15.8237845 L66.0881735,15.8237845 L66.0881735,26.8763469 L61.5441524,26.8763469 L61.5441524,0.705519054 L78.1827858,0.705519054 L78.1827858,4.378318 L66.1103811,4.378318 L66.1103811,12.1680683 L76.6333771,12.1680683 L76.6282523,15.8237845 Z M90.1578187,26.8934297 C89.908456,26.3161019 89.7416831,25.7065183 89.6624179,25.0826544 C88.3474276,26.5015631 86.4888297,27.291001 84.5546649,27.2521682 C82.6072273,27.2521682 81.0014455,26.6884363 79.7714849,25.5780552 C78.5752915,24.5407751 77.8997632,23.0270912 77.926544,21.444021 C77.926544,19.3770039 78.6952694,17.7712221 80.2327201,16.6779238 C81.7701708,15.5846255 83.9738502,15.0208936 86.8437582,15.0208936 L89.5257556,15.0208936 L89.5257556,13.7396846 C89.5257556,12.7318003 89.252431,11.9289093 88.6886991,11.313929 C88.1249671,10.6989488 87.2708279,10.4085414 86.1091984,10.4085414 C85.1183968,10.4085414 84.2984231,10.6647832 83.6663601,11.160184 C83.0594404,11.6002153 82.70299,12.3067509 82.709724,13.0563732 L78.3365309,13.0563732 C78.3469219,11.9697558 78.7196557,10.9176845 79.3956636,10.0668857 C80.153772,9.10170466 81.1481772,8.34854564 82.2826544,7.88028909 C83.5690221,7.3402021 84.9533812,7.0726369 86.3483574,7.09448095 C88.6203679,7.09448095 90.448226,7.67529566 91.7977661,8.81984231 C93.1473062,9.96438896 93.8477004,11.5701708 93.881866,13.6542707 L93.881866,22.4348226 C93.881866,24.1772668 94.121025,25.5780552 94.6164258,26.6201051 L94.6164258,26.9275953 L90.1578187,26.9275953 L90.1578187,26.8934297 Z M85.3575558,23.7450723 C86.2129659,23.7505681 87.0549974,23.5326999 87.8003942,23.1130092 C88.5243634,22.7244484 89.1227946,22.1378674 89.5257556,21.4218134 L89.5257556,17.7490145 L87.1683311,17.7490145 C85.5454665,17.7490145 84.3325887,18.022339 83.512615,18.586071 C82.7116646,19.1124764 82.244962,20.0199535 82.2826544,20.977661 C82.2826544,21.8147175 82.555979,22.4809461 83.1197109,22.9763469 C83.6834428,23.4717477 84.4180026,23.7450723 85.3575558,23.7450723 Z M96.2563732,2.35742444 C96.2348574,1.73224543 96.4621621,1.12405178 96.8884363,0.666228647 C97.3155059,0.20499343 97.9304862,-7.28282962e-15 98.7162943,-7.28282962e-15 C99.5021025,-7.28282962e-15 100.117083,0.222076216 100.544152,0.666228647 C100.978119,1.12038555 101.211936,1.72954046 101.193298,2.35742444 C101.208686,2.974612 100.974676,3.57195374 100.544152,4.01445466 C100.117083,4.4586071 99.5021025,4.68068331 98.7162943,4.68068331 C97.9304862,4.68068331 97.3155059,4.4586071 96.8884363,4.01445466 C96.4710324,3.56691305 96.2443252,2.97441062 96.2563732,2.36254928 L96.2563732,2.35742444 Z M100.902891,26.8883049 L96.5296978,26.8883049 L96.5296978,7.43613666 L100.902891,7.43613666 L100.902891,26.8883049 Z M113.629566,11.4283837 C113.042536,11.3306629 112.448027,11.2849314 111.852957,11.2917214 C109.854271,11.2917214 108.504731,12.0604468 107.804336,13.5978975 L107.804336,26.9053876 L103.431143,26.9053876 L103.431143,7.43101183 L107.599343,7.43101183 L107.70184,9.60052562 C108.760972,7.90932983 110.213009,7.07227332 112.092116,7.07227332 C112.621986,7.05638419 113.14991,7.14340459 113.646649,7.32851511 L113.629566,11.4283837 Z M121.31682,20.6360053 L125.280026,7.43101183 L129.926544,7.43101183 L122.188042,29.8436268 C121.00933,33.1235217 118.993561,34.7463863 116.140736,34.7463863 C115.42859,34.737225 114.72127,34.6279642 114.039553,34.4218134 L114.039553,31.022339 L114.859527,31.0735874 C115.969908,31.0735874 116.789882,30.868594 117.353614,30.4756899 C117.917346,30.0827858 118.344415,29.3994744 118.668988,28.4599212 L119.301051,26.7858081 L112.467937,7.43101183 L117.187911,7.43101183 L121.31682,20.6360053 Z M20.2379763,2.58462549 L11.2746386,2.58462549 L11.2746386,26.8934297 L9.06583443,26.8934297 L9.06583443,2.58462549 L0.0973718791,2.58462549 L0.0973718791,0.72260184 L20.2379763,0.72260184 L20.2379763,2.58462549 Z M24.086728,27.2521682 C20.8695643,27.2973506 17.9098525,25.4989607 16.4678055,22.6227332 C15.7161629,21.1706965 15.3574244,19.530749 15.3574244,17.7199737 L15.3574244,16.9512484 C15.3287878,15.2041604 15.7028882,13.4739461 16.4507227,11.8947438 C17.1164053,10.4617903 18.1621903,9.23875368 19.4743758,8.3586071 C20.7159008,7.52169734 22.1794774,7.07548495 23.6767411,7.07739203 C26.0341656,7.07739203 27.913272,7.88028909 29.2969777,9.50315375 C30.6806833,11.1260184 31.3810775,13.312615 31.3810775,16.1141919 L31.3810775,17.3270696 L17.4927727,17.3270696 L17.4927727,17.7370565 C17.4927727,19.9407359 18.1248357,21.7856767 19.3889619,23.2547963 C20.653088,24.7239159 22.2417871,25.4584757 24.1550591,25.4584757 C25.2036223,25.4829378 26.2438397,25.2667128 27.195795,24.8264126 C28.1420661,24.3472153 28.9660206,23.6576647 29.6044678,22.8106439 L30.9540079,23.835611 C29.3960578,26.1076216 27.1069645,27.2464739 24.086728,27.2521682 Z M23.6938239,8.90525624 C22.1395918,8.87706063 20.6497513,9.52535943 19.6110381,10.681866 C18.500657,11.8605782 17.8344284,13.4663601 17.5952694,15.465046 L29.2628121,15.465046 L29.2628121,15.225887 C29.1944809,13.3638633 28.6649146,11.8264126 27.6570302,10.6647832 C26.6491459,9.50315375 25.3286465,8.90525624 23.6886991,8.90525624 L23.6938239,8.90525624 Z M45.0302234,21.9394218 C45.0532505,20.9212328 44.574227,19.956799 43.7490145,19.3599212 C42.8948752,18.7107753 41.5965834,18.1982917 39.8712221,17.8395532 C38.1458607,17.4808147 36.8134034,17.0537451 35.8567674,16.5754271 C34.9001314,16.0971091 34.1997372,15.5162943 33.738502,14.8329829 C33.2584685,14.0978007 33.0141294,13.2336748 33.0381078,12.355979 C33.0381078,10.8185283 33.6872536,9.5544021 34.9684625,8.54651774 C36.2496715,7.53863338 37.8896189,7.04323259 39.8883049,7.04323259 C42.0578187,7.04323259 43.8002628,7.57279895 45.1156373,8.64901445 C46.4310118,9.72522996 47.0801577,11.1260184 47.0801577,12.8513798 L44.9277267,12.8513798 C44.9277267,11.7068331 44.4494087,10.7672799 43.4927727,10.0156373 C42.5361367,9.26399474 41.3403417,8.88304862 39.88318,8.88304862 C38.4653088,8.88304862 37.3378449,9.19053876 36.4837057,9.82260184 C35.6295664,10.4546649 35.2024967,11.2746386 35.2024967,12.282523 C35.2024967,13.2562418 35.5612352,14.0078844 36.2787122,14.5374507 C36.9961892,15.0670171 38.2944809,15.5624179 40.1735874,16.0065703 C42.0526938,16.4507227 43.470565,16.9290407 44.4101183,17.4244415 C45.2524398,17.8405312 45.9753968,18.4635673 46.5113009,19.2352168 C46.9725361,19.935611 47.1946124,20.8068331 47.1946124,21.8147175 C47.1946124,23.4546649 46.5283837,24.7700394 45.2130092,25.760841 C43.8976347,26.7516426 42.1551905,27.2299606 40.0198423,27.2299606 C37.7478318,27.2299606 35.9199737,26.6833114 34.5021025,25.5900131 C33.0842313,24.4967148 32.3838371,23.1130092 32.3838371,21.4218134 L34.5362681,21.4218134 C34.621682,22.6859396 35.1512484,23.6596583 36.1249671,24.3600526 C37.0986859,25.0604468 38.3969777,25.4191853 40.0027595,25.4191853 C41.5060447,25.4191853 42.7189225,25.0946124 43.6413929,24.4283837 C44.5638633,23.7621551 45.0250986,22.9473062 45.0250986,21.9394218 L45.0302234,21.9394218 Z M53.1616294,2.44796321 L53.1616294,7.43613666 L57.1931669,7.43613666 L57.1931669,9.1956636 L53.1616294,9.1956636 L53.1616294,22.1785808 C53.1616294,23.2547963 53.3495401,24.0576873 53.7424442,24.5872536 C54.1353482,25.11682 54.7844941,25.3730618 55.6898817,25.3730618 C56.2740836,25.3473066 56.8560653,25.2845439 57.4323259,25.1851511 L57.5177398,26.9275953 C56.9540079,27.1325887 56.1852825,27.2350854 55.2115637,27.2350854 C53.7424442,27.2350854 52.6662286,26.8080158 52,25.9538765 C51.3337714,25.0997372 50.9921156,23.835611 50.9921156,22.161498 L50.9921156,9.17858081 L47.4047306,9.17858081 L47.4047306,7.41905388 L50.9921156,7.41905388 L50.9921156,2.43088042 L53.1616294,2.43088042 L53.1616294,2.44796321 Z" id="Shape"/>
				</g>
			</g>
		</g>
	</g>
</svg>