<?xml version="1.0" ?>
<svg xmlns="http://www.w3.org/2000/svg" viewBox="0 0 4931 640">
	<g fill="#012d4a">
		<path d="m1279.98 113.15h-206.21v384.64h-77.57v-384.64h-204.93v-67.87h488.71z"/>
		<path d="m1475.18 451.89c65.29 0 106.01-16.81 144.8-51.07l43.95 47.19c-48.48 43.31-109.89 63.35-192.64 63.35-141.57 0-223.03-73.69-223.03-190.05s81.46-191.35 217.86-191.35c127.34 0 210.09 66.59 210.09 190.71 0 8.4-.65 12.93-1.93 16.8h-351.67c7.11 76.93 63.34 114.43 152.56 114.43zm-149.33-168.08 277.33-.65c-16.16-64.64-66.58-93.73-136.4-93.73-74.34 0-126.71 31.67-140.93 94.38z"/>
		<path d="m2126.73 393.71c0 65.94-64.64 117.65-189.4 117.65-86.63 0-162.26-28.44-213.33-73.04l40.73-44.61c41.37 35.56 98.9 58.83 174.53 58.83 65.3 0 115.72-16.81 115.72-52.37s-45.9-46.54-129.3-53.01c-96.32-7.11-188.11-29.74-188.11-105.37 0-69.17 71.1-111.84 190.05-111.84 72.41 0 140.28 25.87 181.65 56.24l-39.43 49.13c-34.27-26.5-81.46-45.89-146.1-46.54-47.84 0-114.43 9.69-114.43 48.48 0 36.2 56.24 42.67 128.65 47.19 108.6 7.76 188.76 37.49 188.76 109.25z"/>
		<path d="m2453.79 477.75c-29.09 19.39-68.52 32.97-109.25 32.97-69.17 0-124.12-36.85-124.12-110.54v-196.52h-68.52v-60.13h68.52v-82.1h75.63v82.1h154.5v60.13h-154.5v184.23c0 39.43 30.39 58.82 67.23 58.82 26.5 0 49.13-9.69 70.46-21.32l20.04 52.36z"/>
		<path d="m2938.58 429.26v68.52h-411.13v-452.5h77.58v383.98h333.56z"/>
		<path d="m2971.51 321.31c0-117.65 83.39-191.35 220.44-191.35s220.44 73.7 220.44 191.35-82.74 190.05-220.44 190.05-220.44-73.04-220.44-190.05zm367.18 0c0-85.98-62.71-128-146.75-128s-146.1 42.02-146.1 128 62.71 126.7 146.1 126.7 146.75-42.02 146.75-126.7z"/>
		<path d="m3827.35 206.88v-187.47h75.63v478.38h-75.63v-62.71c-30.39 43.96-87.28 75.63-162.91 75.63-115.06 0-191.34-74.99-191.34-189.4s76.28-190.71 191.34-190.71c75.63 0 132.52 31.68 162.91 76.28zm0 166.78v-106.02c-33.61-52.36-84.69-72.4-143.51-72.4-87.92 0-137.05 44.6-137.05 126.06s49.13 125.4 137.05 125.4c58.82 0 109.89-20.69 143.51-73.04z"/>
		<path d="m4418.15 451.89c0 135.75-104.73 188.11-216.56 188.11-63.35 0-137.69-18.1-177.77-45.25l27.15-56.24c33.61 21.98 82.74 38.78 142.86 38.78 96.32 0 148.69-37.49 148.69-114.42v-32.97c-32.97 47.19-96.32 75.63-163.56 75.63-117.01 0-191.34-73.05-191.34-186.82s74.34-188.12 191.34-188.12c72.41 0 130.59 28.44 163.56 76.28v-63.35h75.63zm-75.63-84.04v-98.91c-34.91-54.95-84.04-76.28-143.51-76.28-87.92 0-137.05 45.9-137.05 126.06s49.13 125.41 137.05 125.41c59.47 0 108.6-21.33 143.51-76.28z"/>
		<path d="m4729.67 451.89c65.3 0 106.02-16.81 144.8-51.07l43.96 47.19c-48.48 43.31-109.89 63.35-192.64 63.35-141.58 0-223.03-73.69-223.03-190.05s81.45-191.35 217.86-191.35c127.34 0 210.09 66.59 210.09 190.71 0 8.4-.65 12.93-1.94 16.8h-351.67c7.11 76.93 63.35 114.43 152.56 114.43zm-149.33-168.08 277.33-.65c-16.16-64.64-66.59-93.73-136.4-93.73-74.35 0-126.71 31.67-140.93 94.38z"/>
	</g>
	<path d="m403.75 288.11-13.4 210.87h54.23l15.91-171.51 146.44-70.77-14.31-53.41z" fill="#60a945"/>
	<path d="m303.39 104.72 248.8-52.33-14-52.24-234.8 43.42-235.65-43.57-13.99 52.22z" fill="#60a945"/>
	<path d="m580.81 159.23-14.03-52.37-263.39 65.36-264.23-65.57-14.03 52.36 246.55 66.91v273.06h60.13v-272.17z" fill="#60a945"/>
	<path d="m197.7 281.57-183.39-82.18-14.31 53.41 140.96 68.12 16.45 178.06h53.97z" fill="#60a945"/>
</svg>