<?xml version="1.0" ?>
<!-- Generator: Adobe Illustrator 28.1.0, SVG Export Plug-In . SVG Version: 6.00 Build 0)  -->
<svg xmlns="http://www.w3.org/2000/svg" viewBox="0 0 180 75.7" enable-background="new 0 0 180 75.7">
	<style type="text/css">
	.st0{fill:#353535;}
	.st1{fill:#ED2738;}
</style>
	<polygon class="st0" points="83.6,30.1 86.2,30.1 86.2,20.8 89.7,20.8 89.7,18.6 80.1,18.6 80.1,20.8 83.6,20.8 "/>
	<polygon class="st0" points="93.7,25.6 98.9,25.6 98.9,30.1 101.5,30.1 101.5,18.6 98.9,18.6 98.9,23.4 93.7,23.4 93.7,18.6   91.1,18.6 91.1,30.1 93.7,30.1 "/>
	<polygon class="st0" points="112.9,28 106.6,28 106.6,25.4 112.1,25.4 112.1,23.3 106.6,23.3 106.6,20.8 112.7,20.8 112.7,18.6   104,18.6 104,30.1 112.9,30.1 "/>
	<path class="st0" d="M90.7,36c0-2.5-1.7-4-4.6-4h-4.9v11.4h2.6v-3.3h2.3C89,40.2,90.7,38.6,90.7,36z M86,38h-2.2v-3.9H86  c1.4,0,2.3,0.6,2.3,1.9S87.4,38,86,38z"/>
	<path class="st0" d="M102.3,43.5l-2.4-3.8c1.4-0.7,2.2-2.1,2.1-3.7c0-2.5-1.7-4-4.7-4h-5v11.4h2.6v-3.3h2.6l1.8,3.3L102.3,43.5z   M97.3,38h-2.4v-3.9h2.4c1.4,0,2.2,0.6,2.2,1.9S98.8,38,97.3,38L97.3,38z"/>
	<polygon class="st0" points="113,34.1 113,32 104.2,32 104.2,43.5 113.2,43.5 113.2,41.3 106.8,41.3 106.8,38.8 112.4,38.8   112.4,36.6 106.8,36.6 106.8,34.1 "/>
	<path class="st0" d="M126.1,37.7c0-3.4-2.5-5.7-6-5.7h-4.9v11.5h4.8C123.6,43.5,126.1,41.1,126.1,37.7z M117.8,34.1h2.2  c1.9,0,3.4,1.5,3.5,3.3c0,0.1,0,0.2,0,0.3c0.1,1.8-1.2,3.4-3.1,3.5c-0.1,0-0.2,0-0.3,0h-2.4L117.8,34.1z"/>
	<rect x="127.8" y="32" class="st0" width="2.6" height="11.5"/>
	<path class="st0" d="M138.3,41.2c-2,0.1-3.6-1.4-3.7-3.3c-0.1-2,1.4-3.6,3.3-3.7c0.1,0,0.3,0,0.4,0c1.2,0.1,2.3,0.6,3,1.5l1.5-1.8  c-1.2-1.2-2.8-1.9-4.5-1.9c-3.2-0.2-6,2.3-6.1,5.6s2.3,6,5.6,6.1c0.2,0,0.3,0,0.5,0c1.7,0,3.4-0.8,4.6-2l-1.5-1.7  C140.5,40.7,139.4,41.2,138.3,41.2z"/>
	<polygon class="st0" points="143.2,34.2 146.7,34.2 146.7,43.5 149.3,43.5 149.3,34.2 152.8,34.2 152.8,32 143.2,32 "/>
	<rect x="154.2" y="32" class="st0" width="2.6" height="11.5"/>
	<polygon class="st0" points="164,40.6 160.9,32 158.1,32 162.6,43.5 165.2,43.5 169.8,32 167.1,32 "/>
	<polygon class="st0" points="173.7,41.3 173.7,38.8 179.2,38.8 179.2,36.6 173.7,36.6 173.7,34.1 179.8,34.1 179.8,32 171.1,32   171.1,43.5 180,43.5 180,41.3 "/>
	<rect x="81.2" y="45.3" class="st0" width="2.6" height="11.5"/>
	<polygon class="st0" points="94.3,52.7 88.7,45.3 86.3,45.3 86.3,56.8 88.8,56.8 88.8,49.4 94.4,56.8 96.8,56.8 96.8,45.3   94.3,45.3 "/>
	<path class="st0" d="M104.2,45.3h-4.9v11.5h4.8c3.6,0,6.1-2.4,6.1-5.7S107.7,45.3,104.2,45.3z M104.2,54.6h-2.3v-7.1h2.2  c1.9,0,3.4,1.5,3.5,3.3c0,0.1,0,0.2,0,0.2c0.1,1.8-1.2,3.4-3,3.5C104.4,54.6,104.3,54.6,104.2,54.6z"/>
	<polygon class="st0" points="114.5,52.1 120,52.1 120,49.9 114.5,49.9 114.5,47.4 120.7,47.4 120.7,45.3 111.9,45.3 111.9,56.8   120.8,56.8 120.8,54.6 114.5,54.6 "/>
	<polygon class="st0" points="132.9,45.3 129.8,45.3 127.4,48.8 125,45.3 122,45.3 125.8,50.9 121.7,56.8 124.8,56.8 127.4,53   130.1,56.8 133.2,56.8 129.1,50.8 "/>
	<g>
		<path class="st1" d="M37.8,0C16.9,0,0,16.9,0,37.8c0,20.9,16.9,37.8,37.8,37.8c20.9,0,37.8-16.9,37.8-37.8C75.7,16.9,58.7,0,37.8,0   z M46.7,19.1l0.2-0.3h13.6l0.4,3.2l-0.5,0.2c-1.3,0.4-2.6,0.7-4,0.9v9.8c-1.8-1.1-4-1-5.8,0.1V23l-4-0.8l-0.1-0.3   c-0.1-0.4-0.2-0.8-0.1-1.3C46.3,20.1,46.5,19.6,46.7,19.1z M57.2,37.5c0,2-1.6,3.7-3.7,3.7c-2,0-3.7-1.6-3.7-3.7s1.6-3.7,3.7-3.7   C55.6,33.9,57.2,35.5,57.2,37.5z M30.3,44.1c-1.9,0-3.8-0.2-5.7-0.5v9.1l1.6,0.2c1.4,0.1,3,0.3,3.8,0.4l0.4,0.1l0.1,0.4   c0.1,0.8,0.1,1.7,0,2.5l-0.1,0.5H14.7l-0.2-3.6l0.5-0.1c0.9-0.2,1.9-0.3,2.8-0.4l0.9-0.1V22.9c-1.2-0.2-2.4-0.3-3.6-0.6l-0.5-0.1   v-0.5c0-0.8,0.1-1.7,0.3-2.5l0.1-0.4h15.7c4.5,0,7.6,0.8,9.7,2.5c2.3,1.9,3.5,5,3.5,9.3C44,40.2,40,44.1,30.3,44.1z M60.8,56.6   l-0.2,0.3H46.3L46,53.6l0.5-0.2c1.4-0.4,2.8-0.7,4.2-0.8V42.2c1.8,1.1,4,1.2,5.8,0.1v10.4l4.5,0.8l0.1,0.3c0.1,0.3,0.1,0.7,0.1,1   C61.2,55.4,61,56,60.8,56.6z M63.8,57c-0.8,0-1.5-0.6-1.5-1.5s0.6-1.5,1.5-1.5c0,0,0,0,0,0c0.8,0,1.5,0.7,1.5,1.5   C65.2,56.3,64.6,57,63.8,57z"/>
		<path class="st1" d="M28.2,23.2h-0.9h-2.7v16.6L28,40c0.5,0,1,0,1.4,0c3.4,0,5.6-0.8,6.9-2.5v0c1.1-1.5,1.6-3.6,1.6-7.2   C37.8,25.5,36.9,23.2,28.2,23.2z"/>
		<path class="st1" d="M63.6,55c-0.1,0-0.1,0-0.2,0v0.5h0.2h0c0.2,0,0.3-0.1,0.3-0.2S63.8,55,63.6,55z"/>
		<path class="st1" d="M63.6,54.3c-0.7,0-1.2,0.6-1.1,1.3c0,0.7,0.6,1.2,1.3,1.1h0c0,0,0,0,0,0c0.6,0,1.1-0.6,1.1-1.2v-0.1   C64.8,54.8,64.2,54.3,63.6,54.3z M64,56.3c-0.1-0.1-0.1-0.2-0.1-0.4c0,0,0,0,0,0c0-0.1-0.2-0.2-0.3-0.2h-0.2v0.6h-0.3v-1.5   c0.2,0,0.4,0,0.6,0c0.2,0,0.4,0,0.5,0.1c0.1,0.1,0.2,0.2,0.2,0.3c0,0.2-0.1,0.3-0.3,0.3c0.1,0.1,0.3,0.2,0.3,0.3   c0,0.1,0,0.3,0.1,0.4H64z"/>
	</g>
</svg>