<?xml version="1.0" ?>
<svg xmlns="http://www.w3.org/2000/svg" version="1.2" viewBox="0 0 1583 454">
	<style>
		.s0 { fill: #050708 } 
		.s1 { fill: none;stroke: #f26f21;stroke-width: 27.8 } 
	</style>
	<g id="Layer">
		<path id="Layer" fill-rule="evenodd" class="s0" d="m166.1 160.3q6.7 1.5 13.2 4 6.5 2.4 12.5 5.8 6.1 3.4 11.5 7.6 5.5 4.3 10.3 9.3 4.2 4.4 7.5 9.6 3.2 5.1 5.4 10.8 2.3 5.7 3.4 11.7 1 6 1 12.1c0.2 4.7-0.2 9.4-1.1 14.1-0.9 4.6-2.3 9.1-4.2 13.4-2 4.3-4.4 8.4-7.3 12.1-2.9 3.8-6.2 7.1-9.8 10.1q-6.5 4.9-13.8 8.5-7.2 3.7-15 6-7.8 2.3-15.8 3.3-8.1 1-16.2 0.5h-36.5v68.4q-0.3 3.5-0.2 7 0.2 3.5 0.9 6.9 0.6 3.5 1.8 6.7 1.2 3.3 2.9 6.4 2.3 1.9 5 3.3 2.6 1.4 5.5 2.3 2.9 0.8 5.9 1 3.1 0.2 6-0.2h2.5v9.9h-93.4v-9.9h2.6q3 0.4 6 0.2 3-0.2 5.9-1.1 2.9-0.8 5.5-2.2 2.7-1.4 5-3.3 1.7-3.1 2.9-6.4 1.1-3.2 1.8-6.7 0.4-2.1 0.6-4.3v-9.2q0-0.2 0-0.4v-166.4q0-0.2 0-0.4v-9.2q-0.2-2.1-0.6-4.3-0.7-3.4-1.8-6.7-1.2-3.3-2.9-6.4-2.3-1.9-5-3.3-2.6-1.4-5.5-2.2-2.9-0.8-5.9-1.1-3-0.2-6 0.2h-2.6v-9.8h30.3v-111.8h3l55.7 0.1q5.5-0.1 11.1-0.1 5.6 0.1 11.1 0.3 5.6 0.3 11.2 0.7 5.5 0.4 11 1.1 3 0.4 5.8 1.2 2.9 0.7 5.7 1.8 2.7 1 5.4 2.4 2.6 1.4 5.1 3c2.9 2 5.6 4.3 8 6.9 2.4 2.7 4.4 5.6 6 8.8 1.6 3.2 2.8 6.5 3.6 10 0.8 3.5 1.1 7 0.9 10.6q0.1 5.2-0.8 10.4-0.9 5.2-2.6 10.2-1.8 4.9-4.5 9.5-2.6 4.5-6 8.6-4.3 4.7-9.1 9-4.9 4.2-10.2 7.8-5.3 3.6-11 6.6-5.7 2.9-11.7 5.2zm-54.7-104.1v101.7h30.4q15.9 0 33.6-18.7 3.7-3.8 6.5-8.3 2.8-4.5 4.7-9.4 1.9-4.9 2.8-10.2 0.9-5.2 0.8-10.5c0.2-3.1 0-6.3-0.6-9.5-0.5-3.1-1.5-6.2-2.8-9.1-1.3-2.9-3-5.6-5-8.1-2-2.5-4.2-4.8-6.8-6.7q-5.1-3.2-10.6-5.5-5.5-2.3-11.3-3.7-5.8-1.4-11.7-1.9-6-0.5-11.9-0.1zm0 199.6q0 33.5 43.1 33.5 4.7 0.1 9.2-0.7 4.6-0.9 8.8-2.7 4.3-1.9 8.1-4.5 3.8-2.7 6.9-6.2 3.3-3.6 5.8-7.7 2.5-4.2 4.2-8.7 1.7-4.6 2.5-9.4 0.8-4.8 0.6-9.6c0-4.9-0.5-9.8-1.5-14.6-1.1-4.8-2.6-9.4-4.7-13.8-2.1-4.5-4.7-8.6-7.7-12.5-3.1-3.8-6.5-7.3-10.3-10.4-4.1-3.4-8.5-6.5-13.2-9.1-4.6-2.7-9.5-4.9-14.6-6.7-5-1.7-10.2-3-15.5-3.9q-0.8-0.1-1.7-0.2c-9.3 0.1-11.9 2.1-14.8 5.7q-1.7 3.1-2.9 6.4-1.2 3.2-1.9 6.7-0.3 1.2-0.4 2.4z"/>
	</g>
	<path id="Layer" fill-rule="evenodd" class="s0" d="m347.2 46.3h136l3.4 65.6h-9.5q-0.6-4.2-1.4-8.4-0.8-4.1-1.9-8.3-1.1-4.1-2.5-8.1-1.3-4-2.9-8-1-2.4-2.3-4.7-1.2-2.3-2.8-4.4-1.5-2.2-3.3-4.1-1.8-1.9-3.9-3.5-1.6-1.2-3.4-2.2-1.8-0.9-3.7-1.5-2-0.7-4-1-2-0.3-4-0.3-0.9-0.1-1.8 0-1 0.1-1.9 0.4-0.9 0.3-1.7 0.7-0.8 0.5-1.5 1.1-0.6 0.6-1 1.3-0.5 0.8-0.8 1.6-0.2 0.8-0.4 1.6-0.1 0.9 0 1.7v133.6q-0.1 0.9 0.1 1.7 0.1 0.9 0.4 1.7 0.2 0.8 0.7 1.5 0.4 0.8 0.9 1.4 0.5 0.6 1.1 1 0.6 0.5 1.3 0.8 0.6 0.3 1.4 0.5 0.7 0.2 1.4 0.2h17.7v10.8h-83.2v-10.8h16.9q0.8 0 1.6-0.1 0.8-0.2 1.6-0.5 0.8-0.3 1.5-0.8 0.7-0.4 1.3-1 0.5-0.7 1-1.4 0.4-0.8 0.7-1.6 0.3-0.8 0.4-1.7 0.1-0.8 0.1-1.7v-132.9q0-0.9-0.1-1.9-0.1-0.9-0.4-1.8-0.3-0.9-0.7-1.7-0.5-0.8-1.1-1.5-0.7-0.6-1.6-1-0.8-0.5-1.7-0.8-1-0.3-1.9-0.4-1-0.1-1.9 0-26.8 0-36.3 54.6h-9.2zm139.7 0l46.5-2.6v85q1.9-2.9 4.1-5.6 2.2-2.7 4.7-5.2 2.5-2.5 5.2-4.8 2.7-2.2 5.5-4.2 2.2-1.3 4.6-2.3 2.4-1 4.9-1.7 2.4-0.7 5-1 2.5-0.3 5.1-0.3 3.2-0.2 6.4 0.4 3.1 0.5 6.1 1.8 2.9 1.3 5.4 3.3 2.6 1.9 4.6 4.4 2.4 3.6 4.2 7.4 1.8 3.9 2.9 8.1 1.1 4.1 1.6 8.3 0.4 4.3 0.1 8.6v51.8q-0.1 1.1 0 2.1 0.1 1.1 0.4 2.1 0.3 1 0.8 1.9 0.4 1 1 1.8 0.6 0.7 1.4 1.2 0.7 0.5 1.5 0.8 0.8 0.3 1.7 0.5 0.9 0.1 1.8 0h6.7v10.9h-59.2v-10.9h6.4q0.9 0.1 1.9 0.1 1-0.1 1.9-0.4 1-0.3 1.8-0.8 0.9-0.4 1.6-1.1 0.7-0.8 1.2-1.8 0.6-1 0.9-2 0.3-1.1 0.5-2.2 0.1-1.1 0-2.2v-50.9q0.2-2.3-0.1-4.6-0.3-2.3-1-4.6-0.7-2.2-1.7-4.3-1.1-2.1-2.5-3.9-1.1-1.6-2.6-2.8-1.5-1.2-3.2-2.1-1.8-0.8-3.7-1.2-1.8-0.4-3.8-0.4-2.5 0-4.9 0.7-2.5 0.6-4.7 1.8-2.2 1.2-4.1 2.9-1.8 1.7-3.3 3.8-1.9 2.7-3.3 5.7-1.4 3.1-2.3 6.3-1 3.2-1.3 6.5-0.4 3.3-0.2 6.6v40.5q-0.1 1.1 0 2.1 0.1 1.1 0.4 2.1 0.3 1 0.8 1.9 0.4 0.9 1.1 1.8 0.6 0.6 1.3 1.1 0.8 0.5 1.6 0.9 0.8 0.3 1.7 0.4 0.9 0.2 1.8 0.1h7.2v10.9h-61.2v-10.9h8.5q1 0.1 1.9-0.1 0.9-0.1 1.8-0.4 0.9-0.4 1.7-0.9 0.8-0.6 1.4-1.3 0.7-0.8 1.1-1.7 0.5-0.9 0.8-1.9 0.3-1 0.4-2 0.1-1 0.1-2.1v-128.6q0-1.2-0.2-2.4-0.1-1.2-0.5-2.3-0.5-1.1-1.1-2.2-0.6-1-1.5-1.9-0.8-0.8-1.8-1.4-1-0.6-2.1-1.1-1.1-0.4-2.3-0.5-1.1-0.2-2.3-0.2h-7.1zm239 118.8h-68.9q-0.3 4.4 0.1 8.9 0.4 4.4 1.5 8.7 1 4.3 2.7 8.4 1.7 4.1 4 7.9 1.7 2.6 4 4.6 2.2 2.1 4.9 3.5 2.7 1.4 5.7 2.1 3 0.8 6 0.7 2.3 0 4.6-0.3 2.2-0.4 4.4-1.1 2.2-0.7 4.2-1.8 2.1-1 3.9-2.4 2.6-2 5-4.4 2.3-2.3 4.4-4.9 2.1-2.5 3.9-5.3 1.8-2.7 3.3-5.7l7.7 5.3q-1.7 3.7-3.9 7.2-2.1 3.4-4.7 6.6-2.6 3.2-5.6 6-2.9 2.8-6.2 5.2c-5.3 3.1-11 5.3-17 6.5-6 1.2-12.1 1.4-18.2 0.6-6-0.8-11.9-2.6-17.3-5.3-5.5-2.7-10.5-6.3-14.8-10.6q-3.8-4.3-6.7-9.2-2.9-4.9-4.8-10.3-1.9-5.4-2.8-11.1-0.8-5.6-0.6-11.3-0.2-5.8 0.7-11.6 0.9-5.7 2.8-11.2 1.9-5.5 4.8-10.5 2.9-5.1 6.7-9.5c3.8-4.3 8.3-8 13.4-10.8 5-2.8 10.5-4.8 16.2-5.7 5.7-0.9 11.5-0.9 17.2 0.2 5.7 1.1 11.2 3.1 16.1 6.1q2.8 1.8 5.3 4 2.5 2.2 4.7 4.8 2.1 2.5 3.9 5.4 1.7 2.8 3 5.9 1.7 4.1 2.9 8.3 1.3 4.2 2.1 8.6 0.8 4.3 1.2 8.7 0.3 4.4 0.2 8.8zm-68.9-10.6h32.8q0.9 0.1 1.8-0.1 0.9-0.1 1.8-0.4 0.8-0.3 1.6-0.9 0.8-0.5 1.4-1.2 0.6-1 1-2.2 0.4-1.1 0.7-2.3 0.3-1.2 0.3-2.4 0.1-1.2 0-2.4 0.1-2.8-0.1-5.5-0.3-2.8-1-5.4-0.7-2.7-1.8-5.2-1.2-2.6-2.7-4.9c-1.7-2.5-4.1-4.5-6.8-5.8-2.7-1.3-5.8-1.8-8.8-1.5-3 0.2-5.9 1.3-8.4 3.1-2.5 1.7-4.5 4.1-5.7 6.8q-1.6 3.6-2.8 7.3-1.1 3.7-1.9 7.5-0.8 3.8-1.2 7.7-0.3 3.9-0.2 7.8zm125.4-108.2h94.3q4.7-0.2 9.4 0.4 4.6 0.6 9 2.1 4.5 1.5 8.6 3.8 4.1 2.3 7.6 5.3 3.1 2.7 5.5 6 2.4 3.3 4 7.1 1.6 3.7 2.4 7.7 0.8 4 0.7 8.1 0.1 3.6-0.5 7.1-0.6 3.4-1.9 6.8-1.3 3.3-3.2 6.2-1.9 3-4.4 5.6-3.2 3-6.7 5.5-3.5 2.6-7.3 4.6-3.8 2.1-7.9 3.6-4 1.6-8.2 2.6 5.2 0.6 10.2 1.9 5.1 1.4 9.9 3.4 4.8 2.1 9.2 4.8 4.5 2.8 8.5 6.2 2.7 2.8 4.9 6.1 2.1 3.3 3.6 6.9 1.4 3.7 2.1 7.6 0.7 3.8 0.6 7.8 0.1 3.4-0.4 6.9-0.5 3.4-1.5 6.7-1 3.3-2.6 6.4-1.5 3.1-3.5 5.9-2 2.3-4.3 4.4-2.2 2-4.7 3.8-2.5 1.7-5.3 3.1-2.7 1.4-5.5 2.4-4 1.6-8.1 2.7-4.1 1.2-8.3 1.9-4.2 0.8-8.5 1.1-4.2 0.3-8.5 0.2h-89.2v-10.8h14.3q0.8 0 1.6-0.1 0.8-0.1 1.5-0.5 0.7-0.3 1.3-0.8 0.7-0.4 1.2-1.1 0.6-0.8 1.1-1.8 0.5-1 0.8-2 0.3-1 0.5-2.1 0.1-1 0.1-2.1v-133.7q0-0.8-0.1-1.5-0.2-0.7-0.5-1.3-0.3-0.6-0.8-1.2-0.4-0.5-1-0.9-0.9-0.6-1.8-1-1-0.4-2-0.6-1-0.3-2.1-0.3-1-0.1-2 0h-12.1zm55.8 78.1h17.5q3.5 0.4 7 0 3.5-0.4 6.8-1.5 3.4-1.1 6.4-2.8 3-1.8 5.7-4.1 2.2-2.9 3.8-6.3 1.6-3.3 2.6-6.8 1-3.6 1.4-7.3 0.3-3.7 0-7.3 0.3-3.2-0.1-6.4-0.3-3.3-1.2-6.3-1-3.1-2.6-5.9-1.5-2.9-3.6-5.3-3.1-2.1-6.5-3.7-3.4-1.5-7.1-2.4-3.6-1-7.3-1.2-3.8-0.3-7.5 0.2-1.6-0.2-3.2-0.2-1.7 0.1-3.3 0.3-1.6 0.3-3.1 0.7-1.6 0.5-3.1 1.1-0.7 0.7-1.3 1.6-0.5 0.8-0.9 1.7-0.3 1-0.4 2-0.2 1 0 2zm0 10.8v62.9q-0.1 0.9 0 1.9 0.1 1 0.3 1.9 0.3 1 0.6 1.9 0.4 0.9 0.9 1.7 0.5 0.6 1.1 1.1 0.5 0.5 1.2 0.8 0.7 0.4 1.4 0.5 0.8 0.2 1.5 0.2h20.2q3.2 0.1 6.4-0.4 3.2-0.5 6.2-1.6 3-1.2 5.7-3 2.7-1.7 5-4 2.2-2.8 4-5.9 1.7-3.1 2.7-6.5 1.1-3.4 1.6-6.9 0.4-3.6 0.1-7.1 0.3-3.8-0.2-7.5-0.4-3.8-1.6-7.3-1.2-3.6-3-6.9-1.8-3.3-4.2-6.2-2.6-2.5-5.7-4.4-3-2-6.4-3.2-3.4-1.3-7-1.8-3.6-0.5-7.2-0.2zm213.4 70.2l4.4 8.4q-1.3 1.1-2.6 2-1.4 1-2.9 1.8-1.4 0.9-2.9 1.6-1.5 0.7-3.1 1.4-1.3 0.4-2.7 0.8-1.4 0.4-2.8 0.6-1.4 0.2-2.8 0.3-1.4 0.1-2.9 0.1-1.9 0.1-3.8-0.1-2-0.2-3.8-0.8-1.9-0.5-3.6-1.3-1.8-0.9-3.4-2-1.8-1.6-3.3-3.5-1.5-1.8-2.8-3.8-1.3-2.1-2.3-4.3-1.1-2.1-1.8-4.4-2 2.4-4.2 4.6-2.3 2.2-4.7 4.2-2.4 2.1-5 3.9-2.6 1.8-5.3 3.3-2.3 1.1-4.6 1.9-2.4 0.8-4.8 1.4-2.4 0.5-4.9 0.7-2.5 0.3-5 0.2-3.1 0.2-6.2-0.2-3.1-0.4-6.1-1.4-2.9-0.9-5.7-2.5-2.7-1.5-5.1-3.5-2-1.8-3.6-4-1.6-2.2-2.7-4.7-1-2.5-1.6-5.2-0.5-2.6-0.4-5.3c0-2.8 0.3-5.6 0.9-8.4 0.7-2.7 1.7-5.3 3.1-7.8 1.3-2.4 3-4.7 4.9-6.8 1.9-2 4.1-3.8 6.4-5.3q12.4-8.4 54-16.8v-15.8q0.1-2.1-0.3-4.1-0.3-2.1-1-4-0.7-2-1.8-3.8-1.1-1.8-2.5-3.3-1.4-1.5-3.2-2.6-1.7-1.2-3.6-1.9-2-0.8-4-1.2-2-0.3-4.1-0.2-1.7 0-3.3 0.2-1.7 0.2-3.3 0.6-1.6 0.4-3.1 1.1-1.5 0.6-2.9 1.5-3.7 2.2-3.7 4.4 0 0.5 0.2 0.9 0.1 0.5 0.3 1 0.1 0.4 0.4 0.8 0.2 0.4 0.5 0.8 0.6 1.2 1.2 2.5 0.5 1.2 0.9 2.5 0.4 1.3 0.6 2.7 0.2 1.4 0.2 2.7 0.1 1.5-0.2 2.9-0.2 1.4-0.7 2.8-0.5 1.4-1.2 2.6-0.8 1.2-1.8 2.3-1 1-2.2 1.8-1.2 0.8-2.6 1.3-1.3 0.5-2.7 0.8-1.5 0.2-2.9 0.1-1.5 0.1-3.1-0.2-1.5-0.2-2.9-0.8-1.5-0.6-2.8-1.4-1.3-0.9-2.3-2-1.1-1.1-1.9-2.4-0.8-1.3-1.4-2.8-0.5-1.4-0.8-3-0.2-1.5-0.2-3 0.1-3 0.9-5.9 0.8-2.8 2.2-5.5 1.5-2.6 3.5-4.8 2-2.1 4.5-3.8 3.6-2.8 7.7-4.8 4.1-2.1 8.5-3.5 4.4-1.4 8.9-2 4.6-0.6 9.1-0.4 3.6-0.1 7.1 0.2 3.5 0.3 7 1 3.4 0.7 6.8 1.7 3.3 1 6.6 2.4 2 0.9 3.8 2.2 1.8 1.2 3.4 2.7 1.6 1.5 2.9 3.3 1.3 1.7 2.3 3.6 1.3 2.4 2.2 5 1 2.5 1.6 5.2 0.6 2.6 0.9 5.3 0.2 2.7 0.1 5.4v55.5q-0.1 1.2 0 2.3 0.1 1.2 0.4 2.4 0.2 1.1 0.7 2.2 0.4 1.2 1 2.2 0.5 0.7 1.2 1.2 0.6 0.5 1.4 0.9 0.7 0.4 1.6 0.5 0.8 0.2 1.6 0.2 1.1-0.2 2.2-0.5 1.1-0.3 2.1-0.7 1-0.5 1.9-1.1 1-0.6 1.8-1.3zm-43.7-44.8q-4.1 0.3-8.1 1.1-4 0.8-7.8 2.1-3.9 1.3-7.5 3.2-3.6 1.8-7 4.1-2 1.7-3.5 3.8-1.5 2.2-2.6 4.6-1 2.4-1.5 5-0.5 2.6-0.4 5.2-0.1 1.7 0.1 3.3 0.2 1.7 0.7 3.3 0.5 1.6 1.2 3.1 0.8 1.5 1.8 2.8 0.9 1.1 2.1 2 1.2 0.9 2.6 1.4 1.4 0.6 2.8 0.9 1.5 0.2 2.9 0.1 2.5 0.1 5-0.5 2.4-0.5 4.7-1.6 2.2-1.1 4.2-2.6 1.9-1.6 3.4-3.6 1.9-2.4 3.2-5.1 1.4-2.7 2.3-5.6 0.9-2.9 1.2-5.9 0.4-3 0.2-6zm180.2 47.4v10.9h-59.2v-10.9h6.2q1 0.1 2.1-0.1 1-0.1 1.9-0.5 1-0.3 1.8-0.9 0.9-0.6 1.6-1.3 0.6-0.9 1.1-1.8 0.5-1 0.8-2.1 0.3-1 0.5-2.1 0.1-1.1 0-2.2v-47.4q0.2-2.4-0.1-4.9-0.2-2.4-0.9-4.8-0.6-2.4-1.6-4.6-1-2.3-2.4-4.3-1.1-1.5-2.5-2.8-1.5-1.2-3.2-2.1-1.7-0.8-3.5-1.2-1.9-0.4-3.8-0.4-2.6 0-5.2 0.6-2.5 0.6-4.9 1.8-2.3 1.2-4.3 2.9-2 1.7-3.5 3.9-1.9 2.9-3.3 6.2-1.4 3.2-2.3 6.6-0.9 3.4-1.2 7-0.3 3.5-0.1 7v36.5q-0.1 1.1 0.1 2.2 0.1 1.1 0.4 2.2 0.3 1 0.8 2 0.5 0.9 1.2 1.8 0.6 0.7 1.3 1.2 0.7 0.6 1.6 0.9 0.8 0.4 1.7 0.6 0.8 0.1 1.7 0.1h7.5v10.9h-61.5v-10.9h8q1 0.1 1.9-0.1 1-0.1 1.9-0.5 0.9-0.3 1.7-0.9 0.8-0.6 1.5-1.3 0.6-0.9 1.1-1.8 0.5-1 0.8-2.1 0.3-1 0.4-2.1 0.1-1.1 0.1-2.2v-65q0-1.2-0.2-2.4-0.2-1.3-0.6-2.4-0.5-1.2-1.1-2.2-0.7-1-1.6-1.9-0.9-0.9-1.9-1.5-1.1-0.7-2.2-1.1-1.2-0.4-2.4-0.6-1.2-0.2-2.5-0.2h-4.2v-10.1l41.1-2.4q0.7 2.9 1.2 5.9 0.5 3 0.9 6 0.4 3 0.8 6 0.3 3 0.5 6 1.8-2.9 3.8-5.5 2.1-2.7 4.4-5.1 2.3-2.5 4.9-4.7 2.5-2.2 5.3-4.1 2.2-1.6 4.7-2.8 2.4-1.2 5-2 2.7-0.8 5.4-1.2 2.7-0.4 5.4-0.4 3.3-0.2 6.6 0.5 3.3 0.6 6.3 2.1 3 1.4 5.6 3.5 2.6 2.1 4.7 4.7 2.2 3.3 3.9 7 1.7 3.6 2.8 7.4 1.1 3.9 1.5 7.9 0.4 4 0.2 8v50.6q-0.1 1.2 0 2.3 0.1 1.1 0.4 2.2 0.3 1.1 0.8 2.1 0.5 1 1.2 1.9 0.8 0.7 1.7 1.2 0.9 0.5 1.8 0.8 1 0.4 2.1 0.5 1 0.1 2.1 0zm-1-162.9l46.6-1.5v119.9l29.1-26q7-6.3 7-10.6-0.1-0.7-0.3-1.4-0.2-0.7-0.5-1.3-0.4-0.6-0.9-1.1-0.5-0.5-1.1-0.9-1.1-0.6-2.2-1-1.1-0.5-2.2-0.7-1.2-0.3-2.4-0.3-1.2-0.1-2.3 0h-3.5v-10.6h57.3v10.6q-1.8 0-3.7 0.2-1.8 0.1-3.6 0.4-1.8 0.4-3.6 0.8-1.7 0.5-3.5 1.1-1.8 0.8-3.6 1.8-1.8 0.9-3.4 2-1.7 1.2-3.3 2.4-1.6 1.3-3 2.6l-16.6 15.4 36.3 54.7q0.8 1.4 1.9 2.6 1.2 1.2 2.6 2 1.4 0.8 2.9 1.3 1.6 0.5 3.2 0.5h5.3v10.9h-61.8v-10.9h6q0.8 0.1 1.6 0 0.8 0 1.6-0.1 0.8-0.2 1.5-0.4 0.8-0.3 1.5-0.6 0.4-0.2 0.7-0.4 0.3-0.3 0.6-0.6 0.2-0.3 0.3-0.7 0.2-0.4 0.2-0.8 0-0.4-0.1-0.8-0.1-0.3-0.2-0.7-0.1-0.3-0.3-0.7-0.2-0.3-0.4-0.6l-23.6-36.5-13.5 11.7v21.7q-0.1 1 0 1.9 0 1 0.3 1.9 0.2 1 0.6 1.8 0.4 0.9 1 1.7 0.6 0.6 1.3 1.1 0.7 0.4 1.5 0.7 0.8 0.3 1.7 0.4 0.8 0.1 1.7 0h6.8v10.8h-60.3v-10.8h7.4q1.1 0.1 2.2 0 1-0.2 2.1-0.5 1-0.4 1.9-1 0.9-0.6 1.7-1.3 0.6-1 1.1-2 0.5-1.1 0.9-2.2 0.3-1.1 0.4-2.2 0.1-1.2 0-2.3v-131.7q0.1-0.9-0.1-1.8-0.1-0.9-0.4-1.8-0.3-0.9-0.8-1.7-0.5-0.8-1.2-1.4-0.7-0.6-1.5-1.1-0.8-0.5-1.8-0.8-0.9-0.3-1.8-0.4-0.9-0.1-1.9-0.1h-9.4zm-785.7 251.3q4 0 7.9 0.5 4 0.5 7.8 1.5 3.9 1 7.5 2.5 3.7 1.5 7.2 3.5 3.2 1.7 6.2 4 2.9 2.2 5.5 4.8 2.6 2.7 4.9 5.6 2.2 3 3.9 6.3 1.8 3.6 3.1 7.3 1.3 3.8 2.2 7.7 0.8 3.8 1.2 7.8 0.4 4 0.3 8c0.2 4 0 8.1-0.6 12.2-0.7 4-1.8 8-3.3 11.8-1.5 3.8-3.4 7.4-5.7 10.8-2.4 3.4-5 6.5-8 9.2q-4.1 3.7-8.8 6.6-4.6 2.9-9.8 4.9-5.1 1.9-10.5 2.9-5.4 1-10.8 1-3.8 0-7.6-0.4-3.8-0.5-7.4-1.5-3.7-1-7.2-2.5-3.5-1.5-6.7-3.5-3.2-1.9-6.1-4.2-2.9-2.3-5.5-5-2.5-2.7-4.7-5.7-2.1-3-3.8-6.3-1.8-3.5-3.2-7.2-1.3-3.7-2.2-7.5-0.9-3.8-1.3-7.7-0.4-3.9-0.4-7.8-0.2-5.9 0.8-11.6 1-5.8 3-11.2 2.1-5.5 5.1-10.4 3.1-5 7.1-9.3c2.5-2.7 5.3-5.2 8.3-7.4 3.1-2.2 6.3-4 9.8-5.5 3.4-1.4 7-2.5 10.7-3.2 3.6-0.8 7.4-1.1 11.1-1zm0.7 11.1q-2.7 0-5.3 0.8-2.6 0.7-4.9 2.1-2.3 1.4-4.2 3.4-1.8 2-3 4.4-2 4.4-3.4 9-1.4 4.6-2.2 9.4-0.8 4.7-1.1 9.5-0.2 4.8 0.2 9.6-0.4 5-0.2 9.9 0.2 4.9 1 9.8 0.8 4.9 2.2 9.6 1.4 4.7 3.4 9.2 1.2 2.4 3.1 4.4 1.8 2 4.1 3.4 2.3 1.4 4.9 2.1 2.6 0.7 5.3 0.7 2.7 0 5.4-0.8 2.7-0.7 5-2.1 2.4-1.5 4.3-3.5 1.9-2 3.2-4.4 2.1-4.4 3.5-9 1.5-4.6 2.4-9.3 0.8-4.8 1.1-9.6 0.2-4.8-0.1-9.6 0.3-4.9 0.1-9.8-0.2-4.9-1.1-9.7-0.8-4.9-2.3-9.5-1.5-4.7-3.5-9.2-1.3-2.4-3.2-4.4-1.9-2-4.3-3.5-2.3-1.4-5-2.1-2.7-0.8-5.4-0.8zm107.5-5h25.3v12.6h-25.3v77.8q-0.1 0.8 0 1.6 0.1 0.9 0.3 1.7 0.2 0.8 0.5 1.5 0.3 0.8 0.8 1.5 0.6 0.5 1.3 0.9 0.6 0.3 1.4 0.6 0.7 0.2 1.5 0.3 0.7 0 1.5-0.1h17.3v10.9h-71v-10.9h10.2c1.1 0.3 2.2 0.3 3.3 0 1.1-0.3 2.1-0.9 3-1.7 0.8-0.8 1.4-1.8 1.7-2.9 0.3-1.1 0.4-2.3 0.2-3.4v-77.8h-16.9v-12.6h16.9v-4.4q-0.2-4.6 0.1-9.2 0.3-4.5 1-9 0.7-4.6 1.9-9 1.1-4.4 2.7-8.7 1.1-3.1 2.8-6 1.6-2.9 3.6-5.6 2.1-2.6 4.5-4.9 2.4-2.3 5.1-4.2 2.9-1.7 6-3.1 3-1.3 6.3-2.1 3.2-0.9 6.6-1.3 3.3-0.4 6.6-0.2 3-0.2 5.9 0.2 3 0.4 5.8 1.4 2.8 0.9 5.4 2.5 2.5 1.5 4.7 3.5 1.9 1.8 3.4 4 1.5 2.2 2.5 4.6 1 2.5 1.5 5 0.4 2.6 0.4 5.3 0.1 2-0.2 3.9-0.3 2-0.9 3.9-0.6 1.9-1.5 3.6-1 1.8-2.2 3.3-1 1.4-2.2 2.4-1.3 1.1-2.8 1.9-1.5 0.7-3.1 1.1-1.6 0.4-3.3 0.4-1.5 0-2.9-0.2-1.4-0.3-2.8-0.9-1.3-0.6-2.5-1.5-1.2-0.8-2.2-1.9-1-1.1-1.9-2.4-0.8-1.3-1.3-2.8-0.6-1.4-0.8-2.9-0.3-1.6-0.2-3.1 0-1.8 0.4-3.5 0.5-1.7 1.3-3.3 0.8-1.5 2-2.9 1.1-1.3 2.6-2.4c2-1.6 3-3.2 3-4.4q0-0.4-0.1-0.8-0.1-0.4-0.3-0.8-0.2-0.3-0.5-0.6-0.3-0.3-0.6-0.5-0.8-0.4-1.5-0.8-0.8-0.3-1.6-0.5-0.8-0.2-1.7-0.3-0.8-0.1-1.7 0-1.3 0-2.6 0.2-1.3 0.2-2.5 0.7-1.3 0.5-2.4 1.1-1.2 0.7-2.2 1.6-1.2 1-2.2 2.1-1 1.2-1.8 2.5-0.9 1.2-1.5 2.6-0.6 1.4-1.1 2.9-0.7 2.5-1.3 5-0.6 2.6-1 5.2-0.4 2.5-0.5 5.2-0.2 2.6-0.2 5.2zm78.7-63.5h91q5.1-0.2 10.2 0.6 5 0.8 9.8 2.6 4.8 1.7 9.2 4.4 4.3 2.7 8 6.2 3.5 3.3 6.1 7.2 2.7 3.9 4.5 8.2 1.8 4.4 2.7 9 0.9 4.7 0.8 9.4 0.1 3.5-0.4 7-0.5 3.6-1.5 6.9-1.1 3.4-2.6 6.6-1.6 3.2-3.6 6.1-2.1 2.8-4.5 5.3-2.4 2.5-5.2 4.6-2.8 2.1-5.8 3.8-3.1 1.6-6.4 2.8-3.2 1.2-6.6 2.2-3.3 1-6.8 1.6-3.4 0.6-6.8 1-3.5 0.3-7 0.3h-28.8v56.3q0 1 0.1 2 0.1 1 0.4 1.9 0.3 0.9 0.8 1.8 0.5 0.8 1.1 1.6 0.6 0.6 1.3 1.1 0.8 0.5 1.6 0.8 0.8 0.3 1.6 0.5 0.9 0.1 1.7 0.1h17.9v10.9h-82.8v-10.9h13.9q0.9 0.1 1.9 0 0.9-0.2 1.8-0.5 0.9-0.3 1.8-0.8 0.8-0.5 1.5-1.2 0.6-0.8 1.1-1.6 0.4-0.9 0.7-1.8 0.3-0.9 0.5-1.9 0.1-1 0-2v-131.6q0.1-1-0.1-1.9-0.1-1-0.4-1.9-0.3-0.9-0.8-1.7-0.5-0.8-1.1-1.5-0.6-0.6-1.2-1.1-0.7-0.5-1.5-0.8-0.7-0.4-1.6-0.5-0.8-0.2-1.6-0.2h-14.9zm56.3 85.2h19.2q2.4 0 4.7-0.3 2.4-0.2 4.6-0.9 2.3-0.6 4.5-1.5 2.1-0.9 4.2-2.1 1.7-1 3.3-2.3 1.7-1.2 3.1-2.7 1.4-1.5 2.6-3.1 1.2-1.7 2.1-3.5 1-2.7 1.7-5.4 0.7-2.7 1.1-5.5 0.4-2.8 0.5-5.6 0.2-2.8 0-5.7 0.4-4 0-8-0.5-4.1-1.8-7.9-1.3-3.9-3.4-7.3-2.1-3.5-5-6.4-2.8-1.8-5.8-3.1-3.1-1.3-6.4-2.1-3.2-0.8-6.5-1.1-3.4-0.2-6.7 0.1-1.7-0.2-3.4-0.1-1.6 0-3.3 0.3-1.7 0.2-3.3 0.6-1.6 0.5-3.2 1.1-0.7 0.6-1.3 1.4-0.6 0.7-0.9 1.6-0.4 0.8-0.5 1.8-0.2 0.9-0.1 1.8zm158.7 76.8v10.8h-68.8v-10.8h8.5q1.1 0 2.1-0.1 1-0.1 2-0.4 1-0.3 1.9-0.7 0.9-0.5 1.7-1.1 0.6-0.6 1.1-1.3 0.5-0.7 0.8-1.5 0.3-0.8 0.4-1.7 0.2-0.8 0.1-1.7v-64.7q0.2-1.5 0-3-0.1-1.5-0.5-3-0.4-1.4-1.1-2.8-0.7-1.4-1.6-2.6-0.8-0.9-1.9-1.6-1-0.7-2.2-1.2-1.1-0.5-2.4-0.7-1.2-0.2-2.5-0.1h-5.5v-10.3l42-2.5v35.7q0.6-3.8 1.7-7.5 1.2-3.7 2.8-7.2 1.6-3.4 3.7-6.7 2.1-3.2 4.6-6.1 2-2.2 4.3-4 2.4-1.7 5-3 2.7-1.2 5.6-1.9 2.8-0.6 5.8-0.7 2.1-0.1 4.2 0.3 2.1 0.3 4.1 1 2 0.8 3.8 1.9 1.8 1.1 3.3 2.6 1.4 1.5 2.5 3.2 1.1 1.8 1.9 3.7 0.7 1.9 1 3.9 0.4 2.1 0.3 4.1 0.1 1.7-0.2 3.4-0.2 1.7-0.7 3.3-0.5 1.6-1.3 3.1-0.7 1.5-1.8 2.9-0.8 1.1-1.9 2-1 0.9-2.3 1.6-1.3 0.6-2.6 0.9-1.4 0.3-2.8 0.3-1.2 0-2.5-0.3-1.2-0.2-2.3-0.8-1.1-0.5-2.1-1.3-1-0.8-1.8-1.8-0.9-1.1-1.6-2.4-0.7-1.2-1.2-2.6-0.4-1.4-0.6-2.8-0.3-1.5-0.2-2.9 0-1 0.1-2 0.1-1 0.4-1.9 0.2-1 0.5-1.9 0.3-0.9 0.7-1.8 0.2-0.4 0.3-0.8 0.2-0.4 0.3-0.8 0.1-0.4 0.2-0.8 0.1-0.4 0.1-0.8 0-0.3 0-0.6 0-0.3-0.1-0.6-0.1-0.4-0.2-0.6-0.2-0.3-0.4-0.6-0.2-0.2-0.4-0.3-0.3-0.2-0.6-0.3-0.2-0.1-0.5-0.1-0.3-0.1-0.6 0-1.3 0.1-2.4 0.5-1.2 0.4-2.3 1.1-1 0.6-1.9 1.4-1 0.9-1.7 1.9-2.1 2.6-3.9 5.4-1.7 2.8-3.2 5.8-1.5 2.9-2.6 6.1-1.1 3.1-1.9 6.3-1.2 4-2.1 8-0.9 4-1.4 8-0.6 4.1-0.9 8.2-0.3 4.1-0.3 8.2v23.7q-0.1 0.8 0 1.6 0.1 0.9 0.4 1.7 0.2 0.8 0.6 1.5 0.4 0.8 1 1.4 0.5 0.6 1.2 1 0.6 0.4 1.3 0.7 0.7 0.3 1.5 0.4 0.8 0.1 1.5 0.1zm33-98.5l43.7-2.2v92.9q-0.1 0.8 0.1 1.6 0.1 0.8 0.4 1.5 0.2 0.8 0.7 1.4 0.4 0.7 0.9 1.3 0.7 0.5 1.5 0.9 0.8 0.5 1.6 0.7 0.9 0.3 1.8 0.4 0.8 0.1 1.7 0h6.6v10.9h-59v-10.9h6.5q1 0.1 2 0 1-0.2 2-0.5 1-0.4 1.8-0.9 0.9-0.6 1.6-1.3 0.6-1.1 1.1-2.2 0.4-1.1 0.7-2.3 0.3-1.2 0.4-2.4 0.1-1.2-0.1-2.5v-63.3q0.1-1.2 0-2.5-0.2-1.2-0.6-2.4-0.4-1.2-1-2.3-0.6-1.1-1.5-2-0.8-0.8-1.8-1.5-1-0.6-2.1-1.1-1.1-0.4-2.3-0.6-1.1-0.2-2.3-0.1h-4.4zm27-63.1q1.7 0 3.4 0.4 1.7 0.4 3.2 1.1 1.6 0.7 3 1.7 1.4 1.1 2.5 2.4c1.6 1.9 2.9 4 3.7 6.3 0.9 2.3 1.3 4.7 1.3 7.2 0 2.4-0.4 4.9-1.3 7.2-0.8 2.3-2.1 4.4-3.7 6.3-1.5 1.7-3.4 3.1-5.5 4.1-2.1 0.9-4.4 1.4-6.7 1.4-2.3 0-4.6-0.5-6.7-1.5-2.1-0.9-3.9-2.3-5.4-4.1-1.6-1.8-2.9-4-3.8-6.3-0.8-2.3-1.3-4.7-1.3-7.1 0-2.5 0.5-4.9 1.3-7.2 0.9-2.3 2.2-4.5 3.8-6.3q1.1-1.3 2.5-2.4 1.4-1 3-1.7 1.5-0.7 3.2-1.1 1.7-0.4 3.5-0.4zm169.3 161.6v10.8h-59.2v-10.8h6.2q1 0 2-0.1 1-0.1 2-0.5 0.9-0.4 1.8-0.9 0.8-0.6 1.5-1.3 0.7-0.9 1.2-1.9 0.5-1 0.8-2 0.3-1.1 0.4-2.1 0.1-1.1 0-2.2v-47.4q0.2-2.5 0-4.9-0.3-2.5-0.9-4.8-0.6-2.4-1.7-4.7-1-2.2-2.3-4.3-1.1-1.5-2.6-2.7-1.4-1.3-3.1-2.1-1.7-0.9-3.6-1.3-1.8-0.4-3.8-0.4-2.6 0-5.1 0.6-2.6 0.6-4.9 1.8-2.4 1.2-4.4 2.9-1.9 1.7-3.4 3.9-2 3-3.4 6.2-1.4 3.2-2.3 6.6-0.8 3.5-1.2 7-0.3 3.5-0.1 7v36.5q0 1.1 0.1 2.2 0.1 1.1 0.4 2.2 0.3 1 0.9 2 0.5 1 1.1 1.8 0.6 0.7 1.3 1.2 0.8 0.6 1.6 0.9 0.8 0.4 1.7 0.6 0.9 0.2 1.8 0.1h7.5v10.9h-61.5v-10.8h8q1 0 1.9-0.1 1-0.2 1.9-0.5 0.9-0.4 1.7-1 0.8-0.5 1.5-1.2 0.6-0.9 1.1-1.9 0.5-1 0.8-2 0.3-1.1 0.4-2.1 0.1-1.1 0-2.2v-65q0.1-1.3-0.1-2.5-0.2-1.2-0.6-2.4-0.5-1.1-1.1-2.2-0.7-1-1.5-1.9-0.9-0.8-2-1.5-1-0.6-2.2-1-1.2-0.5-2.4-0.7-1.2-0.2-2.4-0.1h-4.3v-10.1l41.2-2.5q0.6 3 1.1 5.9 0.5 3 0.9 6 0.5 3 0.8 6 0.3 3 0.5 6.1 1.8-2.9 3.9-5.6 2-2.6 4.3-5.1 2.3-2.4 4.9-4.6 2.5-2.2 5.3-4.2 2.2-1.5 4.7-2.7 2.5-1.2 5.1-2 2.6-0.8 5.3-1.3 2.7-0.4 5.4-0.4 3.4-0.1 6.6 0.5 3.3 0.7 6.3 2.1 3.1 1.4 5.7 3.5 2.6 2.1 4.6 4.8 2.3 3.3 3.9 6.9 1.7 3.6 2.8 7.5 1.1 3.9 1.5 7.8 0.4 4 0.2 8v50.7q-0.1 1.1 0 2.2 0.1 1.1 0.4 2.2 0.3 1.1 0.8 2.1 0.5 1 1.2 1.9 0.8 0.7 1.7 1.2 0.9 0.6 1.9 0.9 1 0.3 2 0.4 1 0.2 2.1 0.1zm99.1-28.7l8.2 4.3q-1.3 4.2-3.2 8.2-2 4-4.5 7.6-2.5 3.7-5.5 6.9-3.1 3.2-6.5 5.9-3.4 2.6-7.2 4.5-3.8 2-7.9 3.3-4 1.3-8.2 1.9-4.2 0.6-8.5 0.5-5.4 0.3-10.7-0.6-5.3-0.8-10.4-2.8-5-1.9-9.5-4.9-4.5-3-8.3-6.9-3.6-4.1-6.4-8.9-2.7-4.8-4.5-10-1.8-5.3-2.6-10.8-0.8-5.4-0.5-11-0.2-6.2 0.8-12.3 0.9-6.1 3.1-11.9 2.1-5.9 5.3-11.2 3.2-5.3 7.4-9.9c2.8-2.9 5.9-5.6 9.3-7.9 3.3-2.2 6.9-4.2 10.7-5.7 3.8-1.5 7.7-2.6 11.7-3.3 4.1-0.7 8.1-1 12.2-0.8q4-0.3 8 0.2 4 0.4 7.8 1.5 3.9 1.2 7.5 2.9 3.6 1.8 6.8 4.2 2.4 1.9 4.4 4.3 1.9 2.4 3.2 5.2 1.4 2.7 2.1 5.7 0.7 3 0.7 6.1 0.1 2-0.2 3.9-0.2 1.9-0.8 3.8-0.6 1.8-1.5 3.5-0.9 1.7-2.1 3.3-1.1 1.3-2.5 2.3-1.3 1-2.9 1.7-1.6 0.7-3.2 1-1.7 0.3-3.4 0.3-1.5 0-2.9-0.2-1.4-0.2-2.8-0.8-1.3-0.5-2.5-1.3-1.2-0.8-2.2-1.9-1-1.1-1.7-2.4-0.8-1.2-1.3-2.6-0.4-1.4-0.7-2.9-0.2-1.4-0.1-2.9 0.1-1.7 0.4-3.5 0.3-1.7 0.9-3.4 0.5-1.7 1.2-3.3 0.8-1.6 1.7-3.1 0.3-0.5 0.6-1 0.3-0.6 0.5-1.1 0.3-0.6 0.4-1.2 0.2-0.5 0.3-1.1 0-2.4-3.3-4.3-1.4-0.7-2.8-1.3-1.5-0.6-3-1-1.6-0.3-3.1-0.5-1.6-0.1-3.2-0.1-2.9-0.2-5.8 0.3-2.9 0.6-5.6 1.9-2.7 1.3-4.9 3.2-2.2 2-3.8 4.4-2.4 4.5-4.1 9.3-1.8 4.8-2.8 9.8-1.1 5-1.4 10-0.4 5.1-0.1 10.2 0 26.2 8.3 36.9 1.8 2.6 4.2 4.6 2.4 2 5.2 3.4 2.8 1.4 5.8 2.1 3 0.7 6.1 0.6 2.7 0 5.3-0.5 2.7-0.6 5.2-1.5 2.4-1 4.7-2.4 2.3-1.4 4.3-3.2 2.5-2.4 4.8-5.1 2.2-2.7 4.1-5.6 1.9-2.9 3.4-6.1 1.5-3.2 2.5-6.5zm113-14.4h-69q-0.3 4.4 0.1 8.8 0.4 4.4 1.5 8.8 1.1 4.3 2.7 8.4 1.7 4.1 4 7.9 1.7 2.5 4 4.6 2.3 2 5 3.5 2.7 1.4 5.6 2.1 3 0.7 6.1 0.7 2.2 0 4.5-0.4 2.3-0.3 4.4-1.1 2.2-0.7 4.3-1.7 2-1.1 3.9-2.4 2.5-2.1 4.9-4.4 2.3-2.3 4.4-4.9 2.1-2.5 3.9-5.3 1.8-2.8 3.4-5.7l7.6 5.2q-1.7 3.8-3.8 7.2-2.2 3.5-4.8 6.7-2.6 3.2-5.5 6-3 2.8-6.3 5.2c-5.3 3.1-11 5.2-17 6.4-6 1.2-12.1 1.4-18.1 0.7-6.1-0.8-12-2.6-17.4-5.3-5.5-2.7-10.5-6.3-14.8-10.6q-3.7-4.3-6.6-9.2-3-5-4.9-10.4-1.9-5.3-2.8-11-0.8-5.6-0.6-11.4-0.2-5.8 0.7-11.5 0.9-5.8 2.8-11.2 1.9-5.5 4.9-10.6 2.9-5 6.6-9.4c3.8-4.4 8.4-8 13.4-10.9 5-2.8 10.5-4.7 16.3-5.6 5.7-0.9 11.5-0.9 17.2 0.2 5.6 1 11.1 3.1 16.1 6q2.8 1.9 5.3 4.1 2.5 2.2 4.6 4.7 2.2 2.6 3.9 5.4 1.8 2.9 3.1 6 1.6 4 2.9 8.3 1.2 4.2 2 8.5 0.8 4.4 1.2 8.8 0.3 4.4 0.3 8.8zm-69-10.7h32.8q0.9 0.1 1.8 0 1-0.1 1.8-0.4 0.9-0.4 1.6-0.9 0.8-0.5 1.4-1.2 0.6-1.1 1.1-2.2 0.4-1.1 0.6-2.3 0.3-1.2 0.4-2.4 0-1.2-0.1-2.4 0.2-2.8-0.1-5.5-0.3-2.8-1-5.5-0.7-2.6-1.8-5.2-1.1-2.5-2.6-4.8c-1.8-2.5-4.1-4.5-6.9-5.8-2.7-1.3-5.8-1.8-8.8-1.6-3 0.3-5.9 1.4-8.4 3.1-2.5 1.8-4.4 4.2-5.7 6.9q-1.6 3.6-2.7 7.3-1.2 3.7-2 7.5-0.8 3.8-1.1 7.7-0.4 3.8-0.3 7.7zm108.3-89.7h9.3v45h32.5v12.6h-32.5v69.5q0 1.4 0.1 2.8 0.2 1.5 0.6 2.8 0.4 1.4 1 2.7 0.7 1.2 1.5 2.4 0.8 0.9 1.7 1.6 1 0.8 2 1.3 1.1 0.5 2.3 0.7 1.2 0.2 2.4 0.2 14.7 0 15.6-30.5h9.3q0.1 3.3-0.2 6.7-0.2 3.3-0.8 6.6-0.6 3.3-1.5 6.5-0.9 3.2-2.1 6.3-0.9 2.3-2.2 4.4-1.3 2.2-2.9 4.1-1.5 1.9-3.4 3.6-1.8 1.7-3.8 3.1-2 1.3-4.2 2.4-2.2 1-4.5 1.7-2.3 0.7-4.7 1-2.4 0.3-4.8 0.3-2 0-4-0.2-2-0.2-3.9-0.7-2-0.5-3.8-1.3-1.9-0.8-3.6-1.8-1.7-1.1-3.2-2.4-1.5-1.3-2.8-2.8-1.3-1.5-2.4-3.1-1.1-1.7-1.9-3.5-0.9-2-1.7-4.1-0.7-2.1-1.2-4.2-0.5-2.2-0.7-4.4-0.2-2.2-0.2-4.4v-67.3h-17.5v-10.7q3.7-0.4 7.2-1.5 3.5-1.1 6.7-2.9 3.2-1.7 6-4.1 2.8-2.3 5.1-5.2 2.5-3.6 4.5-7.6 2-4 3.4-8.2 1.5-4.2 2.3-8.6 0.8-4.3 1-8.8zm102.8 38.9q4 0 7.9 0.5 4 0.5 7.8 1.5 3.9 1 7.5 2.5 3.7 1.5 7.2 3.5 3.2 1.8 6.2 4 2.9 2.2 5.5 4.8 2.6 2.7 4.9 5.7 2.2 2.9 3.9 6.2 1.8 3.6 3.1 7.3 1.3 3.8 2.2 7.7 0.8 3.9 1.2 7.8 0.4 4 0.3 8c0.2 4.1 0 8.2-0.6 12.2-0.7 4-1.7 8-3.3 11.8-1.5 3.8-3.4 7.4-5.7 10.8-2.4 3.4-5 6.5-8 9.3q-4.1 3.6-8.8 6.5-4.6 2.9-9.8 4.9-5.1 1.9-10.5 2.9-5.4 1-10.8 1-3.8 0.1-7.6-0.4-3.8-0.5-7.4-1.5-3.7-1-7.2-2.5-3.5-1.5-6.7-3.5-3.2-1.9-6.1-4.2-2.9-2.3-5.5-5-2.5-2.7-4.7-5.7-2.1-3-3.8-6.3-1.8-3.5-3.2-7.2-1.3-3.7-2.2-7.5-0.9-3.8-1.3-7.7-0.4-3.9-0.4-7.8-0.1-5.8 0.8-11.6 1-5.7 3-11.2 2.1-5.5 5.1-10.4 3.1-5 7.1-9.3c2.5-2.7 5.3-5.2 8.3-7.4 3.1-2.2 6.3-4 9.8-5.5 3.4-1.4 7-2.5 10.7-3.2 3.7-0.7 7.4-1.1 11.1-1zm0.7 11.1q-2.7 0-5.3 0.8-2.6 0.7-4.9 2.1-2.3 1.4-4.2 3.4-1.8 2-3 4.4-2 4.4-3.4 9-1.4 4.6-2.2 9.4-0.8 4.7-1.1 9.5-0.2 4.9 0.2 9.7-0.4 4.9-0.2 9.8 0.2 4.9 1.1 9.8 0.8 4.9 2.2 9.6 1.4 4.7 3.3 9.3 1.3 2.3 3.1 4.3 1.8 2 4.1 3.4 2.3 1.4 4.9 2.1 2.6 0.7 5.3 0.7 2.8 0 5.4-0.7 2.7-0.8 5.1-2.2 2.3-1.5 4.3-3.5 1.9-2 3.2-4.4 2-4.4 3.5-9 1.5-4.6 2.3-9.3 0.9-4.8 1.1-9.6 0.3-4.8-0.1-9.6 0.4-4.9 0.2-9.8-0.3-4.9-1.1-9.7-0.9-4.8-2.3-9.5-1.5-4.7-3.5-9.1-1.3-2.5-3.3-4.5-1.9-2-4.2-3.5-2.4-1.4-5.1-2.1-2.7-0.8-5.4-0.8zm194.6 93.5v10.8h-59.2v-10.8h6.2q1 0 2-0.1 1-0.2 2-0.5 0.9-0.4 1.8-0.9 0.8-0.6 1.5-1.3 0.7-0.9 1.2-1.9 0.5-1 0.8-2 0.3-1.1 0.4-2.2 0.1-1 0-2.1v-47.4q0.2-2.5 0-4.9-0.3-2.5-0.9-4.9-0.6-2.3-1.6-4.6-1.1-2.2-2.4-4.3-1.1-1.5-2.6-2.7-1.4-1.3-3.1-2.1-1.7-0.9-3.6-1.3-1.8-0.4-3.7-0.3-2.7-0.1-5.2 0.5-2.6 0.6-4.9 1.8-2.4 1.2-4.4 2.9-1.9 1.8-3.4 3.9-1.9 3-3.4 6.2-1.4 3.3-2.2 6.7-0.9 3.4-1.3 6.9-0.3 3.5 0 7v36.6q-0.1 1.1 0 2.2 0.1 1 0.4 2.1 0.4 1 0.9 2 0.5 1 1.1 1.9 0.6 0.6 1.3 1.2 0.8 0.5 1.6 0.9 0.8 0.3 1.7 0.5 0.9 0.2 1.8 0.2h7.5v10.8h-61.6v-10.8h8q1 0 2-0.1 0.9-0.2 1.9-0.5 0.9-0.4 1.7-1 0.8-0.5 1.4-1.2 0.7-0.9 1.2-1.9 0.4-1 0.7-2 0.3-1.1 0.5-2.2 0.1-1 0-2.1v-65.1q0.1-1.2-0.1-2.4-0.2-1.2-0.7-2.4-0.4-1.1-1.1-2.2-0.7-1-1.5-1.9-0.9-0.8-2-1.5-1-0.6-2.2-1.1-1.1-0.4-2.4-0.6-1.2-0.2-2.4-0.1h-4.2v-10.1l41.1-2.5q0.6 3 1.1 5.9 0.5 3 1 6 0.4 3 0.7 6 0.3 3 0.6 6 1.7-2.8 3.8-5.5 2-2.6 4.4-5.1 2.3-2.4 4.8-4.6 2.6-2.2 5.3-4.2 2.3-1.5 4.7-2.7 2.5-1.2 5.1-2 2.6-0.8 5.3-1.3 2.7-0.4 5.5-0.4 3.3-0.1 6.6 0.5 3.2 0.7 6.3 2.1 3 1.4 5.6 3.5 2.6 2.1 4.6 4.8 2.3 3.3 4 6.9 1.7 3.6 2.7 7.5 1.1 3.8 1.5 7.8 0.4 4 0.2 8v50.7q-0.1 1.1 0 2.2 0.1 1.1 0.4 2.2 0.3 1.1 0.8 2.1 0.5 1 1.2 1.9 0.8 0.7 1.7 1.2 0.9 0.6 1.9 0.9 1 0.3 2 0.4 1.1 0.1 2.1 0z"/>
	<path id="Layer" class="s1" d="m13.9 13.9h251.6v425.9h-251.6z"/>
</svg>