<?xml version="1.0" ?>
<svg xmlns="http://www.w3.org/2000/svg" id="Layer_1" data-name="Layer 1" viewBox="0 0 200 200">
	<defs>
		<style>.cls-1{fill:#e42127;}.cls-2{fill:#2e2f2f;}</style>
	</defs>
	<path class="cls-1" d="M85.8,30.18V171.51H29.86a71.68,71.68,0,0,1,55.75-55.85l-.21-1.41H30.12l-.8.79A100,100,0,0,0,0,185.73L0,200H114V114.24h0v-1L114,100V30h.24v-.05h55.94a71.14,71.14,0,0,1-19.53,36.32,71.08,71.08,0,0,1-25,16.26v3.26h45.65A100,100,0,0,0,200,15.69l0-14.27H85.8Z"/>
	<path class="cls-2" d="M85.4,114.24h.4V30.18l-.89-.91A99.56,99.56,0,0,0,53.2,7.86,98.9,98.9,0,0,0,14.37,0H0V114.24H85.4Zm-57-28.49V29.87A71.69,71.69,0,0,1,84.37,85.75Z"/>
	<path class="cls-2" d="M125.66,114.24h44.5v55.89a71.73,71.73,0,0,1-44.5-29.21V181a99.35,99.35,0,0,0,58.55,19h14.34V85.75H125.66Z"/>
</svg>