<svg viewBox="0 0 112 32" fill="none" xmlns="http://www.w3.org/2000/svg">
<g clip-path="url(#clip0_3775_27103)">
<mask id="mask0_3775_27103" style="mask-type:luminance" maskUnits="userSpaceOnUse" x="-107" y="-96" width="326" height="224">
<path d="M218.849 -95.3672H-106.854V127.367H218.849V-95.3672Z" fill="white"/>
</mask>
<g mask="url(#mask0_3775_27103)">
<mask id="mask1_3775_27103" style="mask-type:luminance" maskUnits="userSpaceOnUse" x="-107" y="-96" width="326" height="224">
<path d="M218.849 -95.3672H-106.854V127.367H218.849V-95.3672Z" fill="white"/>
</mask>
<g mask="url(#mask1_3775_27103)">
<path d="M53.778 8.85837V8.73999H43.6823L43.6557 8.85321C43.6308 8.99047 43.6095 9.13975 43.5918 9.30103C43.5918 9.45545 43.5918 9.60986 43.5918 9.76427C43.5918 9.91869 43.5918 10.0731 43.5918 10.2327C43.6034 10.3865 43.6248 10.5395 43.6557 10.6908L43.6823 10.8091H47.5141V23.3683H47.6471C48.0091 23.4109 48.3735 23.4315 48.7381 23.43C49.0939 23.432 49.4495 23.4114 49.8025 23.3683H49.9302V10.8091H53.7673V10.6908C53.8015 10.5365 53.8228 10.3799 53.8312 10.2224C53.8312 10.0525 53.8312 9.89295 53.8312 9.74368C53.839 9.59279 53.839 9.44161 53.8312 9.29073C53.8215 9.14523 53.8001 9.00067 53.7673 8.85837" fill="white"/>
<path d="M61.0637 12.6107C60.6501 12.6071 60.2386 12.6679 59.845 12.7909C59.5017 12.8952 59.1768 13.0497 58.8817 13.249C58.6181 13.423 58.3785 13.6289 58.1686 13.8615L57.9717 14.0982V8.48268H57.8493C57.6736 8.44976 57.4958 8.4291 57.3171 8.4209C57.1149 8.4209 56.9446 8.4209 56.7849 8.4209C56.6252 8.4209 56.4603 8.4209 56.2527 8.4209C56.074 8.4286 55.8961 8.44926 55.7205 8.48268H55.5928V23.3632H55.7205C55.8748 23.3889 56.0505 23.4095 56.2527 23.4249C56.4549 23.4404 56.6146 23.4249 56.7583 23.4249C56.902 23.4249 57.0829 23.4249 57.2905 23.4249C57.498 23.4249 57.663 23.3889 57.8227 23.3632H57.9451V17.9895C57.934 17.4669 58.0077 16.9459 58.1633 16.4453C58.2805 16.0648 58.4821 15.7135 58.754 15.4159C58.9892 15.1677 59.2806 14.9757 59.6055 14.8549C59.9303 14.7358 60.2747 14.6748 60.622 14.6747C60.8821 14.6564 61.1428 14.7025 61.3794 14.8088C61.6159 14.9151 61.8205 15.078 61.9738 15.2821C62.3254 15.8919 62.4845 16.588 62.4315 17.2843V23.358H62.5592C62.7135 23.3838 62.8891 23.4043 63.0914 23.4198C63.2936 23.4352 63.4533 23.4198 63.6236 23.4198C63.7939 23.4198 63.9482 23.4198 64.1558 23.4198C64.3633 23.4198 64.523 23.3838 64.6879 23.358H64.8104V16.749C64.8914 15.6482 64.5692 14.5549 63.9003 13.6607C63.5435 13.2924 63.1058 13.0059 62.6196 12.8225C62.1334 12.639 61.6108 12.5631 61.0903 12.6004" fill="white"/>
<path d="M75.5024 14.0107C75.1067 13.5705 74.6163 13.2191 74.0655 12.9813C73.4394 12.726 72.7651 12.5997 72.0858 12.6107C71.3003 12.5934 70.5206 12.7446 69.8026 13.0534C69.1855 13.3344 68.6403 13.7439 68.2061 14.2527C67.7704 14.7753 67.4482 15.3775 67.2588 16.0233C67.0519 16.728 66.9497 17.4577 66.9554 18.1902C66.9484 18.9236 67.0542 19.6539 67.2694 20.3572C67.4684 21.0117 67.8227 21.6122 68.3041 22.1108C68.7855 22.6095 69.3806 22.9925 70.0421 23.2293C70.8544 23.51 71.713 23.6443 72.5754 23.6257C73.1903 23.6298 73.8046 23.5833 74.4114 23.4867C74.9355 23.3975 75.4477 23.2525 75.9388 23.0543L76.0346 23.0131V22.9153C76.0231 22.6202 75.9803 22.327 75.9069 22.0403C75.849 21.7736 75.7541 21.5156 75.6248 21.2734L75.561 21.1602L75.4386 21.2065C74.5663 21.5332 73.6385 21.699 72.7031 21.6955C71.8283 21.7584 70.9619 21.495 70.2816 20.9594C69.7148 20.359 69.4114 19.5691 69.4354 18.7564H76.62V18.6226C76.62 18.4733 76.6466 18.2983 76.6626 18.1079C76.6786 17.9174 76.6626 17.6961 76.6626 17.5108C76.6693 16.8566 76.5706 16.2054 76.3699 15.5806C76.187 15.0142 75.8884 14.4891 75.4918 14.0365M72.0112 14.51C72.3694 14.5012 72.7248 14.5734 73.049 14.721C73.3267 14.8571 73.5701 15.0503 73.7622 15.2872C73.9573 15.5405 74.1016 15.8268 74.1879 16.1314C74.2762 16.4174 74.3263 16.7132 74.3369 17.0115H69.4408C69.5034 16.3474 69.7661 15.7157 70.1965 15.1946C70.4291 14.9595 70.7121 14.7765 71.0256 14.6582C71.3391 14.54 71.6754 14.4894 72.0112 14.51Z" fill="white"/>
<path d="M84.5116 12.6112C84.0963 12.608 83.6831 12.6688 83.2876 12.7913C82.9387 12.8962 82.6072 13.0487 82.303 13.2443C81.8941 13.5041 81.5341 13.8296 81.2386 14.2068C81.2386 14.0781 81.212 13.9392 81.1961 13.7899C81.1535 13.4502 81.1109 13.1722 81.0683 12.9715V12.8737H80.9672L80.5361 12.8119C80.2369 12.7862 79.936 12.7862 79.6367 12.8119L79.1791 12.8737H79.0566V23.3636H79.1791C79.3334 23.3894 79.5143 23.41 79.7112 23.4254C79.9082 23.4408 80.0838 23.4254 80.2434 23.4254C80.4031 23.4254 80.5681 23.4254 80.7756 23.4254C80.9832 23.4254 81.1428 23.3894 81.3078 23.3636H81.4355V18.062C81.4239 17.5387 81.5012 17.017 81.6644 16.5179C81.7894 16.1394 81.9921 15.7893 82.2605 15.4885C82.4952 15.2326 82.7887 15.0334 83.1173 14.9068C83.4459 14.781 83.7962 14.7164 84.1497 14.7164C84.405 14.6963 84.6612 14.7414 84.8928 14.847C85.1244 14.9527 85.3233 15.1153 85.4696 15.3186C85.8032 15.9361 85.9524 16.6311 85.9006 17.326V23.3997H86.0231C86.1774 23.4254 86.353 23.446 86.5553 23.4614C86.7575 23.4769 86.9225 23.4614 87.0874 23.4614C87.2524 23.4614 87.4174 23.4614 87.6196 23.4614C87.8219 23.4614 87.9975 23.4254 88.1518 23.3997H88.2796V16.7495C88.3594 15.6496 88.0394 14.5572 87.3748 13.6612C87.0212 13.2916 86.5857 13.0041 86.1009 12.8205C85.6161 12.6369 85.0946 12.5618 84.5755 12.6009" fill="white"/>
<path d="M98.9136 14.0107C98.5178 13.5705 98.0274 13.2191 97.4766 12.9813C96.8504 12.7264 96.1762 12.6002 95.4969 12.6107C94.7114 12.5934 93.9317 12.7446 93.2138 13.0534C92.5966 13.3344 92.0514 13.7439 91.6172 14.2527C91.1796 14.774 90.8572 15.3766 90.6699 16.0233C90.463 16.728 90.3608 17.4577 90.3665 18.1902C90.3595 18.9236 90.4654 19.6539 90.6805 20.3572C90.8795 21.0117 91.2338 21.6122 91.7152 22.1108C92.1966 22.6095 92.7918 22.9925 93.4533 23.2293C94.2656 23.51 95.1242 23.6443 95.9865 23.6257C96.5997 23.63 97.2122 23.5835 97.8172 23.4867C98.343 23.3975 98.857 23.2525 99.35 23.0543L99.4458 23.0131V22.9153C99.429 22.6207 99.3863 22.328 99.318 22.0403C99.2601 21.7736 99.1653 21.5156 99.036 21.2734L98.9721 21.1602L98.8497 21.2065C97.9773 21.5327 97.0496 21.6985 96.1142 21.6955C95.2395 21.7584 94.373 21.495 93.6927 20.9594C93.1215 20.3616 92.8174 19.5699 92.8466 18.7564H100.031V18.6226C100.031 18.4733 100.063 18.2983 100.074 18.1079C100.084 17.9174 100.074 17.6961 100.074 17.5108C100.08 16.8566 99.9817 16.2054 99.781 15.5806C99.5961 15.0151 99.2977 14.4904 98.9029 14.0365M95.4224 14.51C95.7805 14.5017 96.1358 14.574 96.4602 14.721C96.7378 14.8571 96.9812 15.0503 97.1733 15.2872C97.3684 15.5405 97.5128 15.8268 97.5991 16.1314C97.6848 16.418 97.7348 16.7135 97.7481 17.0115H92.8466C92.9086 16.3463 93.1734 15.714 93.6076 15.1946C93.8403 14.9595 94.1233 14.7765 94.4367 14.6582C94.7502 14.54 95.0866 14.4894 95.4224 14.51Z" fill="white"/>
<path d="M111.691 15.9715C111.502 15.332 111.179 14.7365 110.744 14.2214C110.308 13.7192 109.763 13.3166 109.147 13.0427C108.441 12.7573 107.683 12.6104 106.917 12.6104C106.152 12.6104 105.394 12.7573 104.688 13.0427C104.072 13.3166 103.527 13.7192 103.091 14.2214C102.654 14.7352 102.331 15.3311 102.144 15.9715C101.732 17.3817 101.732 18.8746 102.144 20.2848C102.331 20.9252 102.654 21.521 103.091 22.0348C103.524 22.537 104.07 22.9366 104.688 23.2032C106.117 23.7663 107.718 23.7663 109.147 23.2032C109.765 22.9366 110.311 22.537 110.744 22.0348C111.182 21.5217 111.505 20.9256 111.691 20.2848C112.096 18.8736 112.096 17.3826 111.691 15.9715ZM106.902 21.7569C106.517 21.7861 106.132 21.7151 105.785 21.5512C105.439 21.3874 105.144 21.1367 104.932 20.8252C104.509 19.987 104.289 19.0663 104.289 18.1333C104.289 17.2003 104.509 16.2795 104.932 15.4413C105.147 15.1329 105.442 14.8852 105.788 14.7233C106.134 14.5614 106.518 14.4912 106.902 14.52C107.287 14.4921 107.673 14.5631 108.02 14.7258C108.368 14.8885 108.665 15.1371 108.881 15.4465C109.365 16.2596 109.592 17.1917 109.536 18.1281C109.591 19.0694 109.363 20.0059 108.881 20.8252C108.666 21.136 108.369 21.3859 108.021 21.5495C107.674 21.7132 107.287 21.7847 106.902 21.7569Z" fill="white"/>
<path d="M13.8741 6.73821C13.8741 8.06163 13.4684 9.35533 12.7081 10.4557C11.9479 11.5561 10.8674 12.4137 9.60322 12.9202C8.33903 13.4266 6.94795 13.5592 5.60589 13.301C4.26383 13.0428 3.03106 12.4055 2.06349 11.4697C1.09592 10.5339 0.437002 9.34161 0.170049 8.04361C-0.0969027 6.74562 0.0401078 5.40023 0.563753 4.17754C1.0874 2.95486 1.97416 1.90982 3.11191 1.17456C4.24965 0.439311 5.58727 0.046875 6.95562 0.046875C8.79052 0.046875 10.5503 0.751855 11.8477 2.00672C13.1452 3.26159 13.8741 4.96355 13.8741 6.73821Z" fill="#ABADD7"/>
<path d="M33.1134 25.2939C33.1134 26.6173 32.7076 27.911 31.9474 29.0114C31.1872 30.1118 30.1067 30.9694 28.8425 31.4759C27.5783 31.9823 26.1872 32.1148 24.8451 31.8566C23.5031 31.5984 22.2703 30.9612 21.3028 30.0254C20.3352 29.0896 19.6763 27.8973 19.4093 26.5993C19.1424 25.3013 19.2794 23.9559 19.803 22.7332C20.3267 21.5105 21.2134 20.4655 22.3512 19.7302C23.4889 18.995 24.8265 18.6025 26.1949 18.6025C28.0298 18.6025 29.7895 19.3075 31.087 20.5624C32.3845 21.8173 33.1134 23.5192 33.1134 25.2939Z" fill="#ABADD7"/>
<path d="M26.1465 0.000170592C24.3116 0.000170592 22.5518 0.705151 21.2544 1.96002C19.9569 3.21489 19.228 4.91685 19.228 6.6915C19.228 9.86216 18.5787 12.7961 15.9231 15.3645C13.5761 17.6344 10.7235 18.5609 6.95562 18.5609C5.58727 18.5609 4.24965 18.9533 3.11191 19.6886C1.97416 20.4238 1.0874 21.4689 0.563753 22.6916C0.0401078 23.9142 -0.0969028 25.2596 0.170049 26.5576C0.437002 27.8556 1.09592 29.0479 2.06349 29.9837C3.03106 30.9195 4.26383 31.5568 5.60589 31.815C6.94795 32.0732 8.33903 31.9407 9.60322 31.4342C10.8674 30.9278 11.9479 30.0701 12.7081 28.9697C13.4684 27.8693 13.8741 26.5756 13.8741 25.2522C13.8741 21.4742 14.8268 18.8543 17.179 16.5792C19.5313 14.3042 22.3679 13.3828 26.1465 13.3828C27.987 13.3828 29.7522 12.6757 31.0537 11.417C32.3551 10.1582 33.0863 8.45102 33.0863 6.67091C33.0863 4.8908 32.3551 3.18359 31.0537 1.92486C29.7522 0.666135 27.987 -0.0410156 26.1465 -0.0410156" fill="#F16E25"/>
</g>
</g>
</g>
<defs>
<clipPath id="clip0_3775_27103">
<rect width="112" height="32" fill="white"/>
</clipPath>
</defs>
</svg>