<?xml version="1.0" ?>
<svg xmlns="http://www.w3.org/2000/svg" viewBox="0 0 175 72">
	<path d="M52.9329 57.7213C52.8685 57.6957 52.7972 57.6935 52.7313 57.7151 52.6655 57.7367 52.6093 57.7807 52.5726 57.8394 52.0833 58.7416 49.099 60.5781 46.7976 60.5781 45.9211 60.5781 45.0661 60.4653 44.7273 59.6598 44.6897 59.5471 44.6574 59.4236 44.6359 59.3377L45.0661 59.2034C45.3941 59.1067 45.7813 58.994 46.1415 58.8866 47.6095 58.4355 48.3354 57.63 48.1795 56.6205 48.1369 56.4271 48.0516 56.2458 47.9297 56.0897 47.8078 55.9335 47.6525 55.8067 47.4751 55.7183 47.2587 55.6009 47.0182 55.5345 46.7722 55.5243 46.5261 55.5141 46.2809 55.5602 46.0555 55.6592 45.3681 55.9319 44.7833 56.4126 44.3832 57.0339 44.0319 57.5565 43.8022 58.151 43.7111 58.7738L43.6519 58.806 43.5175 58.8919C41.9314 59.6315 40.2166 60.0565 38.4683 60.1431 37.5058 60.1754 36.9896 59.7672 36.2906 59.2141 37.1455 59.139 39.1942 58.8544 39.9363 57.8287 40.0746 57.6372 40.1653 57.4155 40.2008 57.1821 40.2363 56.9487 40.2157 56.7101 40.1406 56.4862 40.08 56.2553 39.9376 56.0541 39.7399 55.9198 39.5422 55.7856 39.3025 55.7273 39.0652 55.7559V55.7559C37.9898 55.6968 36.8767 56.5614 36.0056 57.3293 36.029 57.2976 36.0542 57.2671 36.0809 57.238 37.2796 55.7237 38.4013 54.1501 39.4416 52.5232 39.9793 51.7607 41.9796 48.4152 41.7484 47.1533 41.716 46.9731 41.6281 46.8075 41.497 46.6795 41.366 46.5515 41.1982 46.4674 41.0171 46.4391 40.6837 46.4391 40.2804 46.6807 39.7857 47.2392 38.1242 49.1294 35.5485 54.4564 34.2311 57.8448L33.8224 58.3066C33.2099 59.133 32.4102 59.8028 31.4888 60.2613 31.3737 60.3308 31.2456 60.3757 31.1123 60.3933 30.979 60.4108 30.8436 60.4006 30.7144 60.3633 30.6045 60.2777 30.513 60.1708 30.4456 60.049 30.3781 59.9272 30.336 59.793 30.3219 59.6545 30.2585 58.989 30.3354 58.3177 30.5478 57.6837 30.6274 57.465 30.6692 57.2344 30.6714 57.0017 30.6587 56.9056 30.6108 56.8176 30.537 56.7547 30.6338 56.7225 30.6768 56.6473 30.7306 56.556V56.5184C30.7453 56.3803 30.7299 56.2405 30.6853 56.1089 30.6407 55.9772 30.5681 55.8568 30.4725 55.7559 30.2605 55.4992 29.9956 55.2911 29.6959 55.1456 29.3963 55.0001 29.0688 54.9207 28.7356 54.9128 26.9558 54.9128 25.5739 56.5936 24.9286 58.0328 24.8404 58.2738 24.7721 58.5216 24.7243 58.7738 24.7243 58.7738 24.6974 58.7738 24.6866 58.806 23.9338 60.0733 21.9389 62.377 20.5193 62.2267 20.275 62.2231 20.035 62.1625 19.8183 62.0497 19.6017 61.9369 19.4145 61.775 19.2718 61.5769 18.3738 60.3096 19.1374 57.5119 19.5461 56.0029L19.616 55.7398C19.9493 54.5477 20.2397 53.7529 20.5247 52.985 20.729 52.448 20.9387 51.8734 21.1592 51.1754 21.4227 50.343 21.8314 48.7804 21.6109 47.6849 21.5796 47.4824 21.4756 47.2983 21.3182 47.1669 21.1609 47.0354 20.961 46.9657 20.7559 46.9707 19.9225 46.9707 18.8578 48.093 18.2986 48.7589L18.2609 48.8018C17.6372 49.5053 16.4649 50.8209 15.7336 51.7714 15.8519 51.4063 16.0079 50.9928 16.1154 50.6974 16.1692 50.5578 16.2122 50.445 16.2391 50.3591 16.407 49.8793 16.4368 49.3621 16.3251 48.8663 16.2598 48.6468 16.126 48.4539 15.9432 48.3158 15.7603 48.1777 15.5381 48.1015 15.3088 48.0984 14.4055 48.0984 13.2225 49.1724 12.0825 50.3376 11.362 51.1002 10.6899 51.9003 10.1468 52.5501 9.87253 52.8776 9.63593 53.1622 9.44236 53.377 9.41009 53.42 9.33481 53.5166 9.2434 53.624 9.86715 52.0131 10.749 49.1455 10.2489 46.9761 9.88328 45.4564 8.93153 44.6777 7.42054 44.6777 6.34511 44.6777 5.21052 45.2469 3.97378 46.4122 2.98438 47.3466-.381732 51.2452.0376869 53.1032.172116 53.6992.537764 54.0751.96256 54.0751 1.09496 54.0758 1.22506 54.0405 1.33896 53.9731 1.46606 53.8821 1.56682 53.7592 1.63103 53.6168 1.69524 53.4744 1.72062 53.3176 1.70461 53.1622 1.69432 53.0619 1.65144 52.9677 1.5825 52.894 1.51356 52.8203 1.42236 52.7712 1.32283 52.7541 1.26531 52.7442 1.21299 52.7147 1.17477 52.6707 1.13654 52.6266 1.11476 52.5707 1.11312 52.5125 1.79602 49.8275 5.04383 45.5316 7.60337 45.5316 8.41532 45.5316 8.96379 46.2995 9.14661 47.0566 9.75961 49.7416 7.5012 55.4713 6.21606 57.7965 6.09238 58.0166 5.87729 58.3818 5.61381 58.8221 5.24816 59.4289 4.80186 60.1861 4.37706 60.9218 3.35002 62.7583 2.98975 63.6067 3.09192 64.0149 3.1203 64.135 3.18927 64.2417 3.28721 64.317 3.38515 64.3923 3.50607 64.4316 3.62964 64.4283 3.69228 64.4322 3.75486 64.4199 3.81136 64.3927 3.86787 64.3654 3.91639 64.324 3.95227 64.2726L4.06519 64.1599C4.11194 64.1196 4.14719 64.0677 4.16735 64.0095 4.9023 62.9613 5.49027 61.8176 5.91493 60.6103 5.98484 60.4707 6.04399 60.3365 6.10313 60.2022 6.2146 59.9385 6.34581 59.6836 6.49567 59.4397 8.10882 56.6956 12.5181 50.7189 15.1906 49.1079 15.2196 49.0892 15.2529 49.0781 15.2873 49.0757H15.3196V49.1831C15.6261 50.198 11.9642 58.1777 11.0179 59.4988L10.9749 59.5471C10.89 59.6391 10.8274 59.7493 10.792 59.8693 10.7701 59.9112 10.7504 59.9542 10.7329 59.9982 10.7033 60.0686 10.6654 60.1353 10.62 60.1968 10.5853 60.2968 10.5725 60.403 10.5823 60.5083V60.5513C10.6202 60.6656 10.6918 60.7657 10.7878 60.8386 10.8838 60.9114 10.9996 60.9535 11.12 60.9594 11.2041 60.9559 11.2847 60.9252 11.3497 60.8719 11.4147 60.8186 11.4605 60.7456 11.4803 60.664 11.4803 60.664 11.4803 60.6264 11.4803 60.6264L11.5072 60.5888C11.5878 60.4331 11.6793 60.2828 11.776 60.127L11.8943 59.923C13.201 56.8836 15.5938 53.2428 18.4437 49.9403 19.0976 49.1666 19.8372 48.4694 20.6484 47.8621V47.8621C20.7047 48.1258 20.7047 48.3985 20.6484 48.6622 20.628 48.8154 20.5938 48.9663 20.5462 49.1133 20.5462 49.2046 20.4924 49.3066 20.4709 49.4086 20.229 50.2786 19.9332 51.2881 19.6321 52.2118 19.4708 52.7487 19.3256 53.1515 19.1912 53.5489 18.9277 54.3114 18.7072 54.9719 18.4061 56.1318L18.2986 56.5453C17.8845 58.1187 17.5242 59.4773 17.9114 61.1581 18.0776 61.7246 18.4176 62.2247 18.8836 62.5879 19.3496 62.9511 19.9179 63.1591 20.5086 63.1825 22.1486 63.1825 23.837 61.4856 24.8533 60.1109 24.9335 60.3629 25.0857 60.5861 25.291 60.753 25.4964 60.9199 25.746 61.0234 26.0094 61.0507 27.1763 61.2601 28.3539 60.6909 29.2357 59.5256 29.3164 60.7499 29.7734 61.2547 30.8166 61.2547 31.8283 61.1813 32.7741 60.7263 33.4622 59.982 33.3761 60.3203 33.0804 61.6575 33.0589 61.8723 33.0374 62.0871 33.0589 62.2213 33.1234 62.3126 33.1879 62.4039 33.7364 62.6133 33.93 62.2374 34.0483 62.0065 34.3709 60.6801 34.672 59.8746 34.7513 59.6462 34.8429 59.4221 34.9463 59.2034L35.0646 59.3269C35.7905 60.068 36.6777 60.9916 38.2909 60.9379H38.506C40.3218 60.8915 42.1085 60.471 43.7541 59.7028 43.7565 59.7296 43.7565 59.7566 43.7541 59.7834 44.1681 60.8573 45.1575 61.4319 46.6255 61.4319 49.0936 61.4319 52.5404 59.6867 52.9867 58.21 53.1104 57.8878 53.0243 57.7696 52.9329 57.7213ZM44.6306 58.3925C44.7736 57.7149 45.1551 57.1109 45.706 56.6903 45.9641 56.4841 46.2842 56.3706 46.6147 56.3681 46.7338 56.3671 46.8521 56.3871 46.9642 56.4271 47.0401 56.4522 47.1072 56.4983 47.1577 56.5602 47.2082 56.622 47.24 56.6969 47.2492 56.7762 47.303 57.2595 46.9212 57.6085 45.9157 57.9683 45.5017 58.124 44.9478 58.3013 44.6306 58.3925ZM39.006 57.3186C37.979 57.881 36.8648 58.2676 35.7098 58.4624L36.2476 58.0811C37.1455 57.4689 38.2371 56.7225 38.8609 56.7225 38.9161 56.7143 38.9723 56.7143 39.0275 56.7225 39.0691 56.7399 39.1054 56.768 39.1328 56.8038 39.1601 56.8396 39.1776 56.8819 39.1835 56.9266 39.199 57 39.1925 57.0763 39.1647 57.146 39.137 57.2158 39.0893 57.2758 39.0275 57.3186H39.006ZM36.1938 55.568C36.4626 54.9934 36.7315 54.4188 36.9573 53.855 37.9682 51.5459 38.9254 49.3603 40.759 47.6205 40.6084 49.1938 37.9575 52.9904 36.9251 54.5047L36.6132 54.9504 36.3605 55.3209 36.1938 55.568ZM29.9831 56.6419C29.9287 56.6687 29.8795 56.7051 29.838 56.7493L29.4508 57.3884C29.055 58.1461 28.5393 58.8352 27.9237 59.4289 27.0902 60.1378 26.6708 60.1968 26.2514 60.0626 25.832 59.9283 25.4233 59.6437 25.7728 58.4516 25.9453 57.7436 26.3481 57.1128 26.9182 56.6581 27.1362 56.4221 27.4005 56.2336 27.6947 56.1043 27.9889 55.9749 28.3067 55.9075 28.6281 55.9063 28.7888 55.9067 28.9491 55.9229 29.1067 55.9546 29.2549 55.9753 29.3966 56.029 29.5214 56.1117 29.6461 56.1945 29.7506 56.3041 29.8272 56.4325 29.875 56.5128 29.9349 56.5852 30.0047 56.6473L29.9831 56.6419ZM91.1592 57.1846C89.1911 59.5581 86.0401 61.1047 85.5723 60.7664 85.3357 60.5677 85.169 59.5689 85.4916 58.6613 85.5884 58.3929 85.7927 58.0331 85.8304 57.8451 85.8713 57.7075 85.8775 57.562 85.8484 57.4215 85.8193 57.2809 85.7559 57.1497 85.6637 57.0396 85.4363 56.8338 85.1368 56.7258 84.8302 56.7389 84.7264 56.7331 84.6222 56.7331 84.5184 56.7389 84.9589 56.1719 85.2242 55.4889 85.2819 54.7735 85.282 54.677 85.2625 54.5814 85.2246 54.4926 85.1866 54.4037 85.131 54.3235 85.0612 54.2568 84.9913 54.19 84.9086 54.1381 84.8181 54.1042 84.7276 54.0702 84.6311 54.055 84.5345 54.0593 84.3418 54.0541 84.1502 54.0897 83.9722 54.1637 83.7943 54.2378 83.6341 54.3486 83.5021 54.4889 82.9644 55.0581 82.9644 56.0999 82.9966 56.9752 82.9267 57.0396 81.4534 59.4776 80.5554 59.7246 80.4399 59.7728 80.3158 59.7971 80.1907 59.796 80.0655 59.7949 79.9419 59.7685 79.8273 59.7182 79.7126 59.668 79.6094 59.5951 79.5238 59.5039 79.4383 59.4127 79.3721 59.3051 79.3294 59.1876 79.1784 58.5762 79.2102 57.9339 79.4208 57.3403 79.5528 56.9986 79.5918 56.628 79.5337 56.2664 79.4919 56.1426 79.4146 56.0338 79.3113 55.9536 79.208 55.8734 79.0834 55.8253 78.953 55.8153 78.668 55.8153 78.0926 56.3523 77.0979 57.335 76.259 58.1512 75.1191 59.2628 74.6728 59.3433 74.5706 58.6989 75.9364 56.9483 76.6784 55.9925 77.3398 55.144 77.442 54.9991 77.4097 54.8863 77.3775 54.65 77.0871 54.5265 76.872 54.5265 76.7575 54.5277 76.6464 54.5653 76.5548 54.6339 75.3814 55.4127 74.1056 56.0253 72.7639 56.4543 72.3127 56.5583 71.8438 56.5583 71.3927 56.4543 71.3937 55.9979 71.2316 55.5562 70.9356 55.2085 70.8295 55.1166 70.7054 55.0476 70.5711 55.006 70.4369 54.9645 70.2956 54.9511 70.1559 54.9668 69.3858 55.0417 68.6683 55.3904 68.1341 55.9495 67.8259 56.2711 67.5619 56.6323 67.3491 57.0235 66.4081 57.6464 65.1982 58.5486 64.4884 59.1715 64.9132 57.4424 65.0906 56.4597 65.0261 56.1751 65.0047 56.0279 64.9275 55.8945 64.8104 55.8025 64.6933 55.7106 64.5453 55.6671 64.397 55.681H64.2249 64.1927C63.6576 56.1064 63.204 56.6249 62.8537 57.2115 62.2893 58.1115 61.5596 58.8968 60.7029 59.5259L60.6599 59.5581C60.5471 59.6499 60.4114 59.7093 60.2673 59.73V59.73C60.2673 59.73 60.2673 59.73 60.2673 59.6602 60.1168 58.8547 61.1384 56.3147 61.6385 55.8207L61.6761 55.7777V55.724C61.6761 55.3427 61.4826 55.1172 61.1384 55.1172 61.0225 55.1288 60.9106 55.1661 60.8111 55.2265 60.7115 55.2869 60.6268 55.3688 60.5631 55.4662 59.7726 56.4114 59.079 59.0641 59.2188 59.7998 59.2448 60.0801 59.3799 60.3389 59.5951 60.5207 59.8103 60.7025 60.0884 60.7926 60.3695 60.7717 61.4449 60.7717 62.687 59.1608 63.5044 58.1405L63.6603 57.9418C63.5259 58.5432 63.1226 59.9662 63.0312 60.2777 62.8177 60.7785 62.5007 61.2287 62.1009 61.5987 62.0203 61.6792 61.9504 61.7598 61.8805 61.835 59.8264 63.9829 57.5787 66.4907 56.6861 68.8481 56.5194 69.2938 56.2076 70.8189 56.7345 71.576 56.833 71.7197 56.9668 71.8357 57.1231 71.9128 57.2795 71.9899 57.453 72.0256 57.6271 72.0164 59.5306 72.0164 61.8213 66.786 62.7139 64.536 62.9236 64.0313 63.0957 63.505 63.2517 62.9949 63.3807 62.6082 63.5098 62.2055 63.6603 61.8135 64.0541 61.01 64.6194 60.3025 65.3165 59.7407 65.5638 59.5366 65.9886 59.2037 66.4403 58.8654L66.7361 58.6399C66.6661 59.1461 66.7704 59.6611 67.0318 60.1005 67.1535 60.3186 67.3338 60.4984 67.5523 60.6199 67.7707 60.7413 68.0188 60.7995 68.2686 60.7878 68.4502 60.7846 68.6307 60.7594 68.8063 60.7127 69.4631 60.4421 70.0352 60.0004 70.4627 59.4336 70.8903 58.8669 71.1576 58.1959 71.2367 57.4907 72.0522 57.5281 72.8663 57.3908 73.6242 57.088L74.0598 56.9322C74.337 56.8404 74.6066 56.7273 74.8663 56.5939 74.3286 57.3296 73.4253 58.8063 73.6995 59.6924 73.7508 59.8848 73.8648 60.0547 74.0235 60.1752 74.1822 60.2958 74.3766 60.3602 74.576 60.3582 75.5385 60.3582 77.2646 58.6023 78.1787 57.6733L78.254 57.5981V57.7807C78.1647 58.2513 78.1943 58.7367 78.34 59.193 78.5712 60.0146 78.8777 60.4979 79.8241 60.6375 81.8459 60.9436 82.803 58.7204 83.5881 57.7324 83.7312 57.7139 83.873 57.687 84.0129 57.6518 84.2495 57.5927 84.6689 57.4961 84.7711 57.582 85.0453 57.8183 84.7012 58.0814 84.5291 58.656 84.2972 59.3115 84.258 60.0195 84.4162 60.6966 84.4692 61.0183 84.6424 61.308 84.9008 61.5073 85.1593 61.7066 85.4838 61.8007 85.8089 61.7705 86.0549 61.7686 86.2981 61.7174 86.524 61.6202 88.479 60.7748 90.2259 59.514 91.6431 57.9257 91.6897 57.8873 91.7278 57.8395 91.7547 57.7855 91.7816 57.7315 91.7968 57.6724 91.7994 57.6121 91.8019 57.5519 91.7917 57.4917 91.7694 57.4356 91.7471 57.3796 91.7132 57.3288 91.67 57.2866 91.6434 57.2462 91.609 57.2114 91.5688 57.1843 91.5287 57.1572 91.4835 57.1384 91.436 57.1289 91.3884 57.1194 91.3395 57.1194 91.292 57.129 91.2444 57.1386 91.1993 57.1575 91.1592 57.1846V57.1846ZM83.8086 56.1106C84.0075 55.2192 84.2172 54.9991 84.3463 54.9561 84.2406 55.3628 84.0581 55.7455 83.8086 56.0838V56.1106ZM67.6771 58.5003C67.8905 57.7966 68.2578 57.1492 68.7525 56.6047 68.9104 56.3999 69.1088 56.2298 69.3355 56.105 69.5622 55.9803 69.8122 55.9036 70.0699 55.8797 70.1181 55.8739 70.1669 55.8739 70.2151 55.8797 70.2742 55.8839 70.3308 55.9048 70.3784 55.94 70.4261 55.9752 70.4627 56.0232 70.4839 56.0784 70.6231 56.5831 70.5675 57.1217 70.328 57.5874 70.2796 57.7162 70.242 57.829 70.2043 57.9364 70.0772 58.3721 69.8571 58.7752 69.5591 59.1178 69.2096 59.5581 68.5267 60.0522 68.0911 59.7676 67.894 59.623 67.747 59.4206 67.6709 59.1885 67.5947 58.9565 67.5931 58.7064 67.6663 58.4734L67.6771 58.5003ZM62.2999 62.866C61.617 64.7347 59.2295 70.3839 57.6648 71.082 56.5893 69.0575 60.59 64.7723 62.2999 62.9358V62.866ZM131.165 51.1486 130.837 51.111C130.3 51.0681 129.762 51.0251 129.224 51.0037 128.799 51.0037 128.337 50.9499 127.891 50.9177L127.229 50.864H126.659 126.342C126.979 50.0323 127.52 49.1316 127.955 48.1791 128.137 47.7924 128.21 47.3635 128.165 46.9386 128.123 46.7725 128.031 46.6234 127.901 46.5118 127.771 46.4002 127.61 46.3317 127.439 46.3157 126.31 46.3157 124.369 49.0812 123.282 50.7781 121.6 50.7611 119.92 50.9213 118.271 51.256H118.19C117.934 51.3013 117.684 51.3808 117.448 51.4923 117.38 51.5207 117.32 51.5647 117.273 51.6207 117.225 51.6766 117.191 51.743 117.174 51.8145V51.9273C117.145 52.0301 117.148 52.1392 117.181 52.2405 117.215 52.3419 117.278 52.431 117.362 52.4965 117.513 52.5943 117.684 52.6579 117.862 52.6829 118.041 52.708 118.222 52.6938 118.395 52.6415 118.545 52.5878 118.642 52.3891 118.744 52.1743 118.776 52.1023 118.811 52.0323 118.852 51.9649 120.133 51.7395 121.433 51.6299 122.734 51.6373 121.928 52.9128 121.244 54.2612 120.691 55.6647 120.646 55.7916 120.609 55.9206 120.578 56.0514 120.537 56.2238 120.477 56.3912 120.4 56.5508 119.389 57.5442 118.142 58.7686 116.873 58.9565 116.873 58.8115 116.873 58.6719 116.873 58.5215 116.862 57.4192 116.653 56.3278 116.255 55.2996 116.247 55.1777 116.211 55.0593 116.15 54.9539 116.088 54.8485 116.002 54.7591 115.9 54.6928 115.824 54.6505 115.739 54.6282 115.652 54.6282 115.566 54.6282 115.48 54.6505 115.405 54.6928L115.362 54.725 115.324 54.768C113.41 58.0758 109.818 60.0305 108.409 60.3044 107.904 60.401 107.189 60.4977 106.834 60.256 106.778 60.217 106.731 60.1667 106.696 60.1084 106.661 60.0502 106.638 59.9852 106.629 59.9177 106.574 59.7644 106.547 59.6026 106.549 59.4398 108.162 59.0263 110.071 57.2381 109.92 55.8366 109.848 55.5327 109.663 55.2676 109.402 55.0951 109.142 54.9226 108.825 54.8555 108.517 54.9076 107.135 55.0204 105.855 57.0556 105.618 58.8169L105.377 58.9619C104.789 59.3545 104.116 59.6029 103.414 59.6868 102.75 59.8064 102.065 59.7202 101.451 59.4398 102.156 58.7041 102.876 57.9362 102.763 56.2984 102.742 55.8317 102.538 55.3919 102.195 55.0744 101.852 54.7568 101.397 54.5869 100.93 54.6015 100.467 54.66 100.029 54.846 99.666 55.1385L100.075 54.5585C100.833 53.4846 101.489 52.5287 101.688 52.2011 102.225 51.3366 104.344 47.5293 104 46.0633 103.972 45.9042 103.895 45.7579 103.779 45.6445 103.604 45.4495 103.359 45.3301 103.097 45.3115 101.118 45.3115 98.6819 51.8575 96.9881 57.3563L96.9397 57.5066C96.7623 57.9362 95.9987 60.3044 96.0525 60.6373 96.092 60.7672 96.1725 60.8808 96.2821 60.9611 96.3916 61.0415 96.5242 61.0842 96.6601 61.083 96.8376 61.083 97.0742 61.083 97.1441 60.8682 97.214 60.6534 97.2677 60.5943 97.3269 60.4494 97.4729 60.6126 97.6508 60.7444 97.8496 60.8368 98.0483 60.9291 98.2639 60.98 98.483 60.9863 98.8677 61.0272 99.2567 60.9835 99.6227 60.8583 99.9887 60.733 100.323 60.5293 100.602 60.2614L100.731 60.1594 100.849 60.1862C101.545 60.4056 102.27 60.5196 103 60.5245 103.904 60.4477 104.778 60.1687 105.559 59.7083 105.561 60.1182 105.722 60.5115 106.009 60.8043 106.297 61.0972 106.687 61.2665 107.097 61.2763 108.758 61.2667 110.376 60.7474 111.732 59.7888 111.695 59.879 111.677 59.9759 111.679 60.0735 111.683 60.2192 111.718 60.3624 111.78 60.4944 111.842 60.6264 111.93 60.7445 112.039 60.8414 112.532 61.148 113.103 61.3082 113.684 61.3032 115.238 61.3837 116.185 60.9541 116.577 59.9929 117.878 59.7867 119.087 59.1977 120.051 58.3014 120.067 58.9175 120.229 59.5211 120.524 60.0627 121.185 61.1367 122.481 61.3784 123.213 61.4159H123.605C126.428 61.4159 129.063 59.5204 130.192 58.194 130.536 57.7698 130.644 57.4368 130.52 57.2167 130.46 57.1333 130.378 57.0688 130.283 57.0308 130.187 56.9927 130.083 56.9827 129.982 57.0019H129.923L129.891 57.0502C128.677 58.4548 127.132 59.5361 125.396 60.197 124.825 60.3851 124.228 60.4812 123.627 60.4816 123.089 60.4816 122.051 60.3849 121.54 59.7244 121.305 59.3959 121.15 59.0167 121.089 58.6175 121.027 58.2183 121.06 57.8102 121.185 57.4261 123.046 55.2298 124.508 53.3933 125.783 51.6534H126.057C126.173 51.6639 126.29 51.6639 126.407 51.6534 126.826 51.6534 127.278 51.7071 127.692 51.6964 128.873 51.8084 130.06 51.8514 131.246 51.8252L131.402 51.7662V51.7286C131.402 51.691 131.445 51.6642 131.461 51.6319L131.515 51.546 131.547 51.4547 131.504 51.3849C131.422 51.2691 131.303 51.1855 131.165 51.1486ZM127.138 47.4917C126.637 48.6634 125.99 49.7675 125.213 50.7781H124.492C125.213 49.5624 126.104 48.4557 127.138 47.4917V47.4917ZM124.573 51.6749C123.697 52.8939 122.772 54.0645 122.159 54.8163L122.191 54.7519C122.261 54.6176 122.32 54.4995 122.347 54.4297 122.605 53.8927 123.148 52.91 123.906 51.6588 124.132 51.6749 124.353 51.6749 124.573 51.6749ZM112.555 60.1433C112.555 60.0896 112.646 60.0305 112.706 60.009 112.756 60.002 112.806 60.002 112.856 60.009 113.065 60.0193 113.274 60.0426 113.48 60.0788 113.657 60.1146 113.837 60.1379 114.018 60.1486 114.519 60.192 115.022 60.192 115.523 60.1486 115.206 60.4225 114.641 60.5245 113.792 60.4708H113.636C113.222 60.4708 112.754 60.4225 112.598 60.2453 112.544 60.1862 112.55 60.1433 112.555 60.1433ZM115.491 56.2017C115.852 57.1664 115.993 58.1991 115.905 59.225 115.544 59.3831 115.145 59.4389 114.754 59.3861 114.125 59.327 113.727 59.2733 113.276 59.2089H113.125C113.028 59.204 112.931 59.204 112.835 59.2089 112.763 59.2034 112.691 59.2034 112.62 59.2089 113.715 58.3519 114.682 57.3429 115.491 56.2125V56.2017ZM108.963 55.9655C108.92 56.8461 107.484 58.151 106.646 58.4464 106.653 58.29 106.678 58.1351 106.721 57.9846 106.819 57.5375 107.01 57.1158 107.28 56.7461 107.55 56.3763 107.895 56.0666 108.291 55.8366 108.365 55.7758 108.454 55.7357 108.548 55.7206 108.643 55.7055 108.739 55.7159 108.829 55.7507 108.873 55.7673 108.911 55.7988 108.936 55.8398 108.96 55.8808 108.97 55.9289 108.963 55.9762V55.9655ZM99.5047 56.2017C100.354 55.4553 101 55.305 101.295 55.3963 101.779 55.5573 101.871 56.2715 101.881 56.685 101.908 57.7053 101.198 58.4732 100.446 59.1767L100.214 59.1069C99.6427 58.9192 99.0469 58.8143 98.4453 58.7954H98.2303C98.129 58.7997 98.0283 58.8122 97.9291 58.833 98.2321 57.8441 98.7731 56.9444 99.5047 56.2125V56.2017ZM98.7035 59.5633C99.0843 59.6294 99.4599 59.7227 99.8273 59.8426 99.3811 60.1232 98.8438 60.2213 98.3271 60.1164 98.0797 60.0359 97.9614 59.8748 97.9829 59.7674 98.0044 59.66 98.241 59.5365 98.7035 59.5741V59.5633ZM98.4346 55.2298C100.827 49.441 102.398 46.4338 103.097 46.2889 103.139 46.4414 103.147 46.6014 103.12 46.7574 103.093 46.9133 103.032 47.0614 102.941 47.191 102.898 47.2715 102.86 47.3521 102.822 47.438 101.747 50.2894 100.064 52.8079 98.44 55.1922L98.4346 55.2298ZM174.871 57.6465C174.807 57.6204 174.736 57.6174 174.671 57.638 174.605 57.6586 174.548 57.7015 174.511 57.7592 174.016 58.6614 171.037 60.4979 168.736 60.4979 167.881 60.4979 166.95 60.3583 166.585 59.3326L166.542 59.1662C166.655 59.1071 166.838 59.0265 167.02 58.946 167.203 58.8654 167.558 58.7151 167.714 58.6238 169.392 57.7915 169.601 56.8249 169.483 56.159 169.423 55.9032 169.271 55.6784 169.056 55.5269 168.841 55.3755 168.578 55.3081 168.316 55.3374 167.569 55.3374 166.929 56.0409 166.397 56.7228 165.937 57.2763 165.662 57.96 165.612 58.6775 164.936 59.1443 164.167 59.4611 163.359 59.6065 162.874 59.6586 162.385 59.5471 161.971 59.2897 161.907 59.2363 161.854 59.17 161.817 59.095 161.78 59.0201 161.759 58.9382 161.756 58.8547 161.855 58.0214 162.07 57.2062 162.396 56.4329 162.508 56.1571 162.6 55.8735 162.67 55.5844 162.697 55.3481 162.762 54.795 162.342 54.6178 162.052 54.4995 161.733 54.4751 161.428 54.548H161.369C161.17 54.5856 160.944 54.6339 159.992 55.4824 159.289 56.1449 158.679 56.9 158.18 57.727L157.906 58.1513C158.306 57.2955 158.599 56.3937 158.777 55.4663 158.804 55.2711 158.77 55.0725 158.68 54.8971 158.563 54.7086 158.398 54.5548 158.202 54.4514 157.897 54.3698 157.575 54.377 157.274 54.4722 156.973 54.5673 156.705 54.7464 156.503 54.9884 156.293 55.1978 155.567 56.014 154.798 56.8786 154.314 57.4156 153.825 57.9526 153.427 58.409 153.916 57.3726 154.561 55.8529 154.411 54.9561 154.375 54.603 154.206 54.2769 153.937 54.045 153.667 53.8132 153.319 53.6934 152.964 53.7103 151.776 53.7103 150.421 54.4567 149.432 54.9991L149.276 55.085C148.999 54.8819 148.654 54.7934 148.313 54.838 147.071 54.9293 146.189 55.6489 145.366 57.2437V57.2813C145.216 57.6894 145.055 58.1298 144.942 58.5647 144.651 59.0512 144.262 59.4716 143.799 59.799 143.336 60.1263 142.809 60.3534 142.253 60.4657 141.715 60.5409 141.323 60.3261 141.447 59.6119 141.508 59.1215 141.621 58.639 141.785 58.1727 142.05 57.5403 142.231 56.876 142.323 56.1966 142.286 55.9685 142.169 55.761 141.992 55.6114 141.816 55.4619 141.592 55.3799 141.361 55.3804 140.613 55.3267 140.242 55.5629 139.559 55.9818 138.755 56.5821 138.032 57.2843 137.408 58.0707 137.486 57.9384 137.552 57.8001 137.607 57.6572 137.675 57.462 137.777 57.2803 137.908 57.1202 139.231 55.665 140.439 54.1103 141.522 52.4699 141.641 52.3254 141.733 52.1596 141.791 51.9812 141.972 51.64 142.172 51.3084 142.388 50.9878L142.441 50.9072 142.511 50.8696V50.8106C142.531 50.7411 142.566 50.677 142.613 50.6226L142.651 50.585V50.5152C143.081 50.0104 143.979 47.6262 143.802 46.9818 143.762 46.8075 143.664 46.6517 143.525 46.5397 143.385 46.4276 143.212 46.3658 143.033 46.3643V46.3643C142.603 46.3643 142.076 46.8314 141.468 47.739V47.7873C141.468 47.7873 141.436 47.8195 141.409 47.841 141.352 47.8796 141.302 47.9288 141.264 47.986 140.554 49.0358 139.935 50.1442 139.414 51.2992 139.263 51.6053 139.118 51.9114 138.968 52.2121L138.935 52.2712C138.774 52.6793 137.371 55.622 137.172 56.0301 136.973 56.4382 136.591 57.2545 136.392 57.7646 136.378 57.8168 136.358 57.8672 136.333 57.915 136.316 57.933 136.303 57.9541 136.295 57.9772 136.287 58.0002 136.283 58.0247 136.284 58.0492 135.784 59.2682 135.483 60.5731 135.596 60.9973 135.597 61.0565 135.611 61.1147 135.636 61.1684 135.661 61.222 135.697 61.2698 135.741 61.3088L135.79 61.3786C135.816 61.4292 135.857 61.4712 135.906 61.4997 135.956 61.5282 136.012 61.5421 136.069 61.5397 136.266 61.5211 136.452 61.4465 136.607 61.3249 136.983 60.9651 137.263 60.0522 137.532 59.6334 137.857 58.9225 138.289 58.2652 138.812 57.6841 139.419 57.0826 140.102 56.4436 140.807 56.3094 141.511 56.1751 141.387 56.6208 141.135 57.4317 140.904 58.099 140.724 58.783 140.597 59.4776 140.463 60.3637 140.882 61.2765 141.672 61.3034 142.28 61.334 142.887 61.225 143.447 60.9848 144.006 60.7446 144.503 60.3797 144.899 59.918 144.966 60.2232 145.128 60.4995 145.361 60.7073 145.721 61.0428 146.192 61.2339 146.684 61.2443 147.03 61.2435 147.37 61.1509 147.668 60.9758 148.412 60.5416 149.002 59.8865 149.356 59.1017 149.822 58.0901 150.073 56.9931 150.093 55.8798 150.921 55.2102 151.934 54.8109 152.997 54.736 153.115 54.7279 153.233 54.7279 153.352 54.736L153.432 54.8434C153.577 55.7133 152.975 57.0987 152.443 58.3231 152.207 58.8337 152.001 59.3572 151.824 59.8911V59.8911L151.873 60.2616C151.875 60.3259 151.888 60.3894 151.911 60.4496V60.5033C151.956 60.5739 152.017 60.6336 152.089 60.6782 152.16 60.7227 152.241 60.751 152.325 60.761H152.362 152.4L152.841 60.5731C153.368 60.1158 153.836 59.5944 154.233 59.0212 154.411 58.7956 154.561 58.6077 154.653 58.4842L154.717 58.3983C157.116 55.4878 157.691 55.23 157.815 55.332 158.057 55.5254 157.175 57.6357 156.847 58.4251 156.668 58.797 156.52 59.1832 156.406 59.5796 156.357 60.0146 156.438 60.2509 156.685 60.4013L156.755 60.4388 156.696 60.5999 156.788 60.4549C156.941 60.509 157.108 60.509 157.261 60.4549 157.686 60.3314 158.256 59.4991 158.917 58.5325 159.229 58.0761 159.551 57.6035 159.847 57.2384 160.455 56.4812 161.288 55.4448 161.632 55.5629 161.651 55.8718 161.58 56.1794 161.428 56.449 161.385 56.5832 161.31 56.7819 161.224 56.986 160.939 57.5742 160.775 58.2131 160.74 58.8655 160.944 59.9717 161.977 60.557 163.514 60.4388 164.164 60.3465 164.788 60.1177 165.343 59.7676L165.628 59.6065 165.751 59.5474C165.751 59.585 165.751 59.6119 165.751 59.6226 166.165 60.6966 167.155 61.2712 168.623 61.2712 171.091 61.2712 174.538 59.526 174.984 58.0492 175.048 57.8129 174.957 57.6894 174.871 57.6465ZM166.579 58.2318C166.8 57.484 167.234 56.8163 167.827 56.3094 167.953 56.2025 168.109 56.1369 168.273 56.1214H168.327C168.499 56.1536 168.601 56.2288 168.628 56.3523 168.693 56.6155 168.461 57.0987 167.891 57.5176 167.471 57.7853 167.033 58.024 166.579 58.2318V58.2318ZM146.684 56.9913C146.917 56.5535 147.26 56.1834 147.679 55.9174 147.881 55.795 148.114 55.7335 148.351 55.7402V55.7777C148.404 55.952 148.524 56.0985 148.684 56.1859 148.757 56.221 148.837 56.2393 148.918 56.2393 148.999 56.2393 149.079 56.221 149.152 56.1859 149.187 56.6083 149.13 57.0333 148.985 57.4317 148.683 58.4141 148.138 59.3044 147.399 60.02 147.24 60.1584 147.048 60.2526 146.841 60.2931 146.635 60.3337 146.421 60.3191 146.221 60.2509 146.096 60.2072 145.986 60.1291 145.903 60.0256 145.82 59.922 145.769 59.7972 145.754 59.6656 145.662 58.8386 146.168 57.7378 146.673 56.9913H146.684ZM138.758 54.7736C138.758 54.736 138.796 54.693 138.817 54.6554 139.027 54.2366 139.156 53.9788 139.172 53.9251 140.136 51.7112 141.352 49.6156 142.796 47.6799 142.742 47.8839 142.656 48.131 142.613 48.2545 142.57 48.378 142.56 48.4209 142.549 48.4585 141.699 50.6548 139.946 53.1196 138.758 54.7736ZM43.4531 39.4905C41.7452 39.4557 40.0901 38.8928 38.7158 37.8795H38.5437L37.2962 39.0824H37.1026L37.0112 32.37H37.2263C37.764 36.0699 40.7591 38.9911 43.4746 38.9911 45.4964 38.9911 46.5772 38.3037 46.5772 35.7691 46.5772 34.0508 44.8081 32.8479 42.055 31.6021 39.3019 30.3563 37.1026 28.9064 37.1026 25.679 37.1187 24.9787 37.2728 24.2884 37.556 23.6476 37.8393 23.0068 38.2463 22.428 38.7536 21.9443 39.2609 21.4605 39.8587 21.0814 40.5129 20.8285 41.167 20.5755 41.8646 20.4538 42.5658 20.4702H42.7863C44.1965 20.4427 45.5706 20.9166 46.6632 21.8073H46.7923L47.9108 20.7763H48.0022L48.1742 26.0657H47.9591C47.7068 24.6537 47.0121 23.3581 45.975 22.3658 45.1081 21.523 43.9578 21.0329 42.7487 20.9911 42.4078 20.9782 42.0678 21.0326 41.748 21.1512 41.4282 21.2698 41.1351 21.4502 40.8853 21.6822 40.6355 21.9142 40.434 22.1931 40.2924 22.503 40.1508 22.8129 40.0719 23.1477 40.0601 23.4881 40.0494 23.615 40.0494 23.7425 40.0601 23.8694 40.0601 26.0657 41.7378 27.0054 44.1091 27.9989 47.1633 29.2876 49.5347 30.7107 49.5347 33.7608 49.5669 37.6862 46.8138 39.4905 43.4531 39.4905ZM61.3 39.4905C60.4572 39.5493 59.6114 39.4306 58.8175 39.142 58.0237 38.8533 57.2994 38.4013 56.6918 37.8151H56.5627V42.648C56.507 43.7965 56.5646 44.9476 56.7348 46.0848 56.7707 46.4998 56.9357 46.8933 57.2066 47.2101 57.4775 47.5269 57.8409 47.7511 58.2458 47.8515 58.5391 47.9437 58.8423 48.0014 59.1491 48.0233V48.2381H50.3413V48.0233C50.6481 48.0014 50.9513 47.9437 51.2447 47.8515 51.6499 47.7519 52.0137 47.5278 52.2848 47.2109 52.5558 46.8939 52.7205 46.5001 52.7557 46.0848 52.9258 44.9476 52.9834 43.7965 52.9277 42.648V26.114C52.9277 25.3354 52.9277 23.8318 52.8363 23.1444 52.8257 22.8585 52.7505 22.5786 52.6164 22.3257 52.4824 22.0728 52.2928 21.8534 52.062 21.6838 51.4776 21.3135 50.811 21.0923 50.1208 21.0394V20.8676H56.1971C56.3691 20.8676 56.5412 20.9535 56.5412 21.2542L56.4498 24.0466H56.7079C57.1409 23.0229 57.8568 22.1434 58.7719 21.511 59.687 20.8787 60.7634 20.5195 61.8753 20.4756 65.7953 20.4756 69.1991 23.4022 69.1991 29.9804 69.2044 36.0054 65.8867 39.4905 61.3 39.4905ZM61.1279 21.2327C58.805 21.2327 56.5627 23.8586 56.5627 27.3437V32.7566C56.4972 34.4022 56.9504 36.0269 57.8586 37.4016 58.2376 37.88 58.722 38.2645 59.2741 38.5253 59.8262 38.7861 60.4312 38.9161 61.0419 38.9052 63.3702 38.9052 65.0909 36.8002 65.0909 29.9213 65.0909 23.0424 63.3272 21.2274 61.1279 21.2274V21.2327ZM82.2709 24.9971C81.822 24.9582 81.3959 24.783 81.0498 24.495 80.7037 24.207 80.4543 23.82 80.3351 23.3861 80.0339 22.6987 79.7974 22.4786 79.3457 22.4786 78.5283 22.4786 76.8507 24.6265 76.5495 27.9452 76.5065 28.2888 76.4581 29.4541 76.4581 30.5281V33.4923C76.3996 34.6711 76.4573 35.8528 76.6302 37.0203 76.6567 37.4257 76.8133 37.8117 77.0768 38.1212 77.3402 38.4307 77.6965 38.6473 78.0928 38.7387 78.4126 38.8502 78.7449 38.9223 79.0822 38.9535V39.1254H70.1884V38.932C70.5248 38.8957 70.8565 38.8237 71.1778 38.7172 71.5684 38.6212 71.9174 38.4014 72.1723 38.0906 72.4273 37.7798 72.5745 37.3949 72.592 36.9935 72.7648 35.8277 72.8224 34.6478 72.764 33.4708V26.3127C72.764 25.5394 72.764 23.5633 72.678 22.8759 72.6593 22.6014 72.5809 22.3341 72.448 22.093 72.3152 21.8518 72.1313 21.6425 71.909 21.4798 71.467 21.2175 70.9605 21.0836 70.4465 21.0931V20.8783H76.2592C76.326 20.8833 76.3888 20.912 76.4362 20.9594 76.4835 21.0067 76.5123 21.0694 76.5173 21.1361L76.4743 25.6092H76.5173C76.9096 24.0661 77.7296 22.6646 78.8832 21.5657 79.6817 20.8954 80.685 20.5167 81.7278 20.4917 82.4583 20.4971 83.1675 20.7382 83.7496 21.179 83.9589 21.4276 84.1147 21.7166 84.2073 22.0279 84.2998 22.3393 84.327 22.6664 84.2873 22.9887 84.3018 23.2394 84.2668 23.4905 84.1841 23.7277 84.1014 23.9649 83.9728 24.1835 83.8055 24.371 83.6382 24.5585 83.4356 24.7112 83.2092 24.8205 82.9828 24.9298 82.737 24.9934 82.4859 25.0078 82.4141 25.0096 82.3422 25.006 82.2709 24.9971V24.9971ZM98.268 39.2328C98.2171 39.2261 98.1708 39.2 98.1388 39.16 98.1067 39.12 98.0914 39.0691 98.096 39.018 98.096 38.7603 98.139 38.2018 98.139 37.8528V35.5759H98.0099C97.6187 36.6604 96.9516 37.6246 96.0742 38.3736 95.0859 39.1267 93.8701 39.5207 92.6274 39.4906 91.8612 39.5504 91.0913 39.4365 90.3753 39.1576 89.6593 38.8786 89.0156 38.4418 88.4923 37.8796 87.7437 36.7123 87.3548 35.3511 87.3739 33.9649V25.7758C87.3739 25.0025 87.3739 23.7567 87.2879 23.064 87.2916 22.7448 87.224 22.4288 87.09 22.139 86.9561 21.8492 86.7592 21.5928 86.5135 21.3886 86.0055 21.1635 85.4562 21.0464 84.9004 21.0449V20.873H90.9336C91.0626 20.873 91.1917 20.916 91.1917 21.2167 91.1917 22.0759 91.1487 24.4387 91.1487 26.2913V34.5073C91.0828 35.5499 91.3061 36.5904 91.7939 37.5145 92.0606 37.8836 92.4191 38.1769 92.8341 38.3652 93.249 38.5536 93.706 38.6305 94.1599 38.5884 95.929 38.5884 97.6927 36.3921 97.9938 33.5568 98.1065 32.6 98.1497 31.6362 98.1229 30.6732V25.7758C98.1399 24.871 98.1111 23.9659 98.0368 23.064 98.0478 22.7524 97.9826 22.4428 97.8467 22.1621 97.7109 21.8813 97.5085 21.638 97.2571 21.453 96.7555 21.1984 96.2059 21.052 95.644 21.0234V20.8516H101.586C101.758 20.8516 101.887 20.9429 101.887 21.1952 101.887 22.0544 101.844 24.4172 101.844 26.2698V34.2012C101.844 34.9745 101.887 36.1773 101.935 36.8862 101.949 37.2156 102.037 37.5375 102.194 37.8278 102.35 38.118 102.571 38.369 102.839 38.5616 103.341 38.8078 103.892 38.9399 104.452 38.9482V39.1201C103.651 39.104 98.4831 39.2328 98.268 39.2328ZM113.383 39.4905C111.234 39.5192 109.16 38.6989 107.613 37.2083 105.844 35.404 105.156 32.8694 105.156 29.7763 105.156 23.9231 109.592 20.4863 113.426 20.4863 116.056 20.4863 118.034 21.469 118.803 22.4195 119.326 22.9553 119.645 23.6558 119.707 24.401 119.746 24.8502 119.604 25.2965 119.314 25.6418 119.024 25.9871 118.608 26.2033 118.158 26.2429H117.986C116.475 26.2429 116.002 25.3407 115.787 23.9607 115.443 21.8127 114.969 20.9535 113.249 20.9535 112.365 20.9751 111.515 21.2928 110.834 21.8557 109.802 22.8437 109.221 25.6844 109.221 29.0353 109.221 32.864 109.867 35.6188 110.899 37.2083 111.171 37.677 111.57 38.059 112.051 38.3099 112.532 38.5609 113.074 38.6705 113.614 38.6259 117.378 38.6259 118.739 35.361 119.384 33.1218L119.922 33.2936C119.196 36.6928 116.959 39.4905 113.383 39.4905ZM137.925 28.8258H126.364C126.364 32.8694 127.095 35.6188 128.342 37.0364 128.741 37.479 129.236 37.8253 129.788 38.0495 130.34 38.2737 130.936 38.3698 131.531 38.3306 135.193 38.3306 136.44 36.0054 137.258 33.1701L137.731 33.299C137 37.0579 134.376 39.4905 130.8 39.4905 129.685 39.5556 128.569 39.3945 127.518 39.0171 126.467 38.6396 125.504 38.0535 124.686 37.2942 122.96 35.4469 122.272 33.2131 122.272 30.1146 122.272 24.3527 125.675 20.481 130.241 20.481 135.532 20.481 137.946 24.052 137.946 27.4028 137.968 27.7518 137.968 28.3962 137.925 28.8258ZM132.671 21.904C132.03 21.3067 131.182 20.9813 130.305 20.9965 129.896 20.981 129.487 21.054 129.109 21.2107 128.73 21.3673 128.39 21.6038 128.111 21.904 127.165 22.8061 126.498 25.083 126.391 28.2244H132.418C133.623 28.2244 134.031 27.7948 134.031 26.3288 134.01 24.1647 133.494 22.7202 132.671 21.904ZM43.4746 16.0292C42.751 16.1018 42.028 15.8856 41.4635 15.4277 41.2389 15.2118 41.068 14.9463 40.9643 14.6526 40.8607 14.3589 40.8273 14.0451 40.8667 13.7362 40.8667 13.2744 40.9366 7.49098 40.9581 6.35793 40.5871 6.31497 39.9364 6.35793 39.5923 6.28812V6.17535C41.0495 5.89612 42.0228 4.99397 42.8186 1.94385H42.9853V6.01425H45.276V6.38478H42.9692L42.8724 13.994C42.8724 14.8263 43.2004 15.3311 44.1252 15.3311 44.4442 15.3352 44.7591 15.2591 45.041 15.1099 45.3229 14.9607 45.5627 14.7432 45.7384 14.4773L45.8352 14.5471C45.6039 14.9771 45.2647 15.3397 44.8509 15.5995 44.4371 15.8593 43.9629 16.0073 43.4746 16.0292ZM46.7816 15.7285C46.9654 15.7139 47.1464 15.6742 47.3193 15.6104 47.5322 15.5612 47.7236 15.4448 47.865 15.2784 48.0064 15.112 48.0904 14.9045 48.1044 14.6868 48.1904 14.0588 48.2227 13.4246 48.2012 12.7912V2.63663C48.2128 2.14157 48.1894 1.64631 48.1313 1.15453 48.115.997471 48.0585.847251 47.9671.718381 47.8757.589512 47.7526.486348 47.6097.418854 47.3248.257541 47.0102.155264 46.6848.118138V0H50.0455C50.137 0 50.18.0483294 50.18.182578 50.18.622912 50.137 1.91706 50.137 2.91587V8.2858H50.18C50.4265 7.50517 50.9356 6.83361 51.6211 6.38485 52.1872 6.03559 52.833 5.83601 53.4977 5.80489 53.9055 5.75727 54.3189 5.801 54.7077 5.93291 55.0965 6.06481 55.4509 6.28156 55.7453 6.56742 56.1764 7.23326 56.3784 8.02127 56.3207 8.81205V12.7912C56.2984 13.4182 56.3381 14.046 56.439 14.6653 56.4527 14.8855 56.5362 15.0958 56.6773 15.2656 56.8184 15.4355 57.0098 15.5562 57.2241 15.6104 57.3896 15.6681 57.5608 15.7077 57.7349 15.7285V15.8198H52.917V15.7285C53.0998 15.7081 53.2801 15.6685 53.4547 15.6104 53.9386 15.401 54.0784 15.2882 54.2182 14.6653 54.3201 14.0461 54.3579 13.4181 54.3311 12.7912V8.86038C54.4185 8.22196 54.2979 7.57241 53.987 7.00776 53.8382 6.81134 53.6414 6.65636 53.4154 6.55764 53.1895 6.45892 52.9419 6.41976 52.6965 6.44391 52.0251 6.54362 51.4105 6.87675 50.961 7.38463 50.5114 7.8925 50.2558 8.54252 50.2391 9.22017 50.1961 9.75716 50.1262 10.2942 50.1262 11.003V12.8073C50.0948 13.4406 50.1254 14.0755 50.2176 14.7029 50.3574 15.3258 50.5402 15.4171 51.0296 15.6265 51.1931 15.6847 51.3626 15.7244 51.535 15.7446V15.8359H46.7816V15.7285ZM67.0427 10.2886H60.832C60.832 12.4634 61.2299 13.9455 61.9075 14.708 62.1202 14.9467 62.3851 15.1333 62.6816 15.2534 62.9781 15.3736 63.2983 15.424 63.6174 15.4007 65.5855 15.4007 66.2576 14.1549 66.6985 12.6299L66.9513 12.6943C66.8472 13.6096 66.4102 14.4548 65.7232 15.0695 65.0363 15.6843 64.1473 16.0257 63.2249 16.029 62.6251 16.0626 62.0246 15.9753 61.4592 15.7723 60.8939 15.5694 60.3752 15.2549 59.9341 14.8476 59.4685 14.3236 59.1119 13.7125 58.8848 13.0497 58.6577 12.3869 58.5648 11.6856 58.6113 10.9867 58.6113 7.88822 60.4395 5.80469 62.913 5.80469 65.7629 5.80469 67.0588 7.72175 67.0588 9.52605 67.0642 9.714 67.0642 10.0577 67.0427 10.2886ZM64.2143 6.56722C63.8693 6.24562 63.4117 6.07209 62.9399 6.08392 62.7201 6.07332 62.5007 6.11111 62.2972 6.19463 62.0937 6.27815 61.9111 6.40535 61.7623 6.56722 61.2246 7.05588 60.9019 8.28022 60.832 9.96638H64.0583C64.709 9.96638 64.9187 9.73547 64.9187 8.95147 65.0044 8.09537 64.7516 7.23975 64.2143 6.56722V6.56722Z"/>
</svg>