<?xml version="1.0" ?>
<svg xmlns:xodm="http://www.corel.com/coreldraw/odm/2003" xmlns="http://www.w3.org/2000/svg" image-rendering="optimizeQuality" text-rendering="geometricPrecision" shape-rendering="geometricPrecision" viewBox="0 0 247 45" xml:space="preserve">
	<style type="text/css">
	.st0{fill:#FFFFFF;}
</style>
	<g id="Layer_x0020_1">
		<path class="st0" d="M232.2,28.8V5.5h14.6V0h-34.6v5.5h14.6v23.3H232.2z M206.7,0h-26.5c-4.4,0-8.1,3.6-8.1,8.1v0   c0,4.1,3.1,7.6,7.3,8l19.5,2c1.3,0.1,2.4,1.2,2.3,2.6v0c0,1.4-1.2,2.6-2.6,2.6h-26.5v5.5h26.5c4.4,0,8-3.6,8-8.1v0   c0-4.1-3.1-7.6-7.3-8l-19.5-2c-1.3-0.1-2.4-1.2-2.3-2.6v0c0-1.4,1.2-2.6,2.6-2.6h26.5L206.7,0L206.7,0z M131.3,0v28.8h5.5V17.1h8.5   c2.3-0.1,4.4,0.9,5.9,2.6l8.1,9h7.3l-11.4-12.7c-0.6-0.6-1.2-1.2-1.8-1.7c0.7-0.5,1.3-1.1,1.8-1.7L166.7,0h-7.3l-8.1,9   c-1.5,1.7-3.6,2.7-5.9,2.6h-8.5V0C136.8,0,131.3,0,131.3,0z M96.7,28.8V5.5h0.2c2.6-0.1,4.9,1.4,6,3.7l6.4,12.9   c2,4.1,6.2,6.8,10.9,6.7h5.6V0h-5.5v23.3h-0.2c-2.6,0.1-4.9-1.4-6-3.7l-6.5-12.9c-2-4.1-6.2-6.8-10.9-6.7h-5.6v28.8   C91.3,28.8,96.7,28.8,96.7,28.8z M85.8,28.8V0h-5.5v28.8H85.8z M45.8,0h-5.5v28.8h5.5V17.1h23.7v11.7h5.5V0h-5.5v11.7H45.8   C45.8,11.7,45.8,0,45.8,0z M20.3,28.8V5.5h14.6V0H0.3v5.5h14.6v23.3C14.8,28.8,20.3,28.8,20.3,28.8z M16.4,45l1.1-2.2h5.1l1.1,2.2   h1.6l-3-6c-0.4-0.9-1.3-1.4-2.2-1.4h0c-0.9,0-1.8,0.5-2.2,1.4l-3,6C14.8,45,16.4,45,16.4,45z M18.2,41.4l0.9-1.7   c0.2-0.4,0.6-0.6,1-0.6h0c0.4,0,0.8,0.2,1,0.6l0.9,1.7H18.2z M30.8,37.6V45h1.4v-2.2h4.9c1.4,0,2.6-1.2,2.6-2.6s-1.2-2.6-2.6-2.6   H30.8z M38.3,40.2c0,0.6-0.5,1.2-1.2,1.2h-4.9V39h4.9C37.8,39,38.3,39.5,38.3,40.2z M45.4,37.6V45h1.4v-2.2h4.9   c1.4,0,2.6-1.2,2.6-2.6s-1.2-2.6-2.6-2.6H45.4z M52.9,40.2c0,0.6-0.5,1.2-1.2,1.2h-4.9V39h4.9C52.4,39,52.9,39.5,52.9,40.2z    M68.1,43.6h-5.2c-0.9,0-1.5-0.7-1.5-1.5v-4.4H60v4.4c0,1.6,1.3,2.9,2.9,2.9h5.2V43.6z M75.1,45v-7.4h-1.4V45H75.1z M89.8,43.6H84   c-0.7,0-1.2-0.6-1.5-1.3c0-0.1-0.1-0.2-0.1-0.3h7.4v-1.4h-7.4c0-0.1,0-0.2,0.1-0.3c0.2-0.7,0.7-1.3,1.5-1.3h5.9v-1.4H84   c-1.5,0-2.4,1-2.8,2.3c-0.3,0.9-0.3,1.9,0,2.9C81.6,44,82.5,45,84,45h5.9C89.8,45,89.8,43.6,89.8,43.6z M102.5,39   c0.7,0,1.2,0.6,1.5,1.3c0.2,0.7,0.2,1.4,0,2c-0.2,0.7-0.7,1.3-1.5,1.3h-5.2V39H102.5z M95.9,37.6V45h6.6c1.5,0,2.4-1,2.8-2.3   c0.3-0.9,0.3-1.9,0-2.9c-0.4-1.3-1.3-2.3-2.8-2.3C102.5,37.6,95.9,37.6,95.9,37.6z M120,37.6V45h1.4v-2.2h4.9   c0.6,0,1.2,0.5,1.2,1.2V45h1.4v-1.1c0-0.7-0.3-1.3-0.8-1.8c0,0,0,0-0.1,0c0,0,0,0,0.1-0.1c0.7-0.7,1-1.8,0.6-2.8   c-0.4-1-1.3-1.6-2.4-1.6H120L120,37.6z M127.5,40.2c0,0.6-0.5,1.2-1.2,1.2h-4.9V39h4.9C127,39,127.5,39.5,127.5,40.2z M143.5,43.6   h-5.9c-0.7,0-1.2-0.6-1.5-1.3c0-0.1-0.1-0.2-0.1-0.3h7.4v-1.4h-7.4c0-0.1,0-0.2,0.1-0.3c0.2-0.7,0.7-1.3,1.5-1.3h5.9v-1.4h-5.9   c-1.5,0-2.4,1-2.8,2.3c-0.3,0.9-0.3,1.9,0,2.9c0.4,1.3,1.3,2.3,2.8,2.3h5.9C143.5,45,143.5,43.6,143.5,43.6z M158.2,37.6h-6.8   c-1.1,0-2.1,0.9-2.1,2.1v0c0,1.1,0.8,1.9,1.9,2.1l5,0.5c0.3,0,0.6,0.3,0.6,0.7v0c0,0.4-0.3,0.7-0.7,0.7h-6.8V45h6.8   c1.1,0,2.1-0.9,2.1-2.1v0c0-1.1-0.8-2-1.9-2.1l-5-0.5c-0.3,0-0.6-0.3-0.6-0.7v0c0-0.4,0.3-0.7,0.7-0.7h6.8   C158.2,39,158.2,37.6,158.2,37.6z M172.7,43.6h-5.9c-0.8,0-1.2-0.6-1.5-1.3c0-0.1-0.1-0.2-0.1-0.3h7.4v-1.4h-7.4   c0-0.1,0-0.2,0.1-0.3c0.2-0.7,0.7-1.3,1.5-1.3h5.9v-1.4h-5.9c-1.5,0-2.4,1-2.8,2.3c-0.3,0.9-0.3,1.9,0,2.9c0.4,1.3,1.3,2.3,2.8,2.3   h5.9C172.7,45,172.7,43.6,172.7,43.6z M179.6,45l1.1-2.2h5.1L187,45h1.6l-3-6c-0.4-0.9-1.3-1.4-2.2-1.4h0c-0.9,0-1.8,0.5-2.2,1.4   l-3,6H179.6L179.6,45z M181.4,41.4l0.9-1.7c0.2-0.4,0.6-0.6,1-0.6h0c0.4,0,0.8,0.2,1,0.6l0.9,1.7H181.4L181.4,41.4z M194,37.6V45   h1.4v-2.2h4.9c0.6,0,1.2,0.5,1.2,1.2V45h1.4v-1.1c0-0.7-0.3-1.3-0.8-1.8c0,0,0,0-0.1,0c0,0,0,0,0.1-0.1c0.7-0.7,1-1.8,0.6-2.8   c-0.4-1-1.3-1.6-2.4-1.6H194z M201.5,40.2c0,0.6-0.5,1.2-1.2,1.2h-4.9V39h4.9C201,39,201.5,39.5,201.5,40.2z M217.5,43.6h-5.9   c-0.8,0-1.2-0.6-1.5-1.3c-0.2-0.7-0.2-1.4,0-2c0.2-0.7,0.7-1.3,1.5-1.3h5.9v-1.4h-5.9c-1.5,0-2.4,1-2.8,2.3c-0.3,0.9-0.3,1.9,0,2.9   c0.4,1.3,1.3,2.3,2.8,2.3h5.9C217.5,45,217.5,43.6,217.5,43.6z M224.7,37.6h-1.4V45h1.4v-3h6.1v3h1.4v-7.4h-1.4v3h-6.1V37.6z"/>
	</g>
</svg>