<svg xmlns="http://www.w3.org/2000/svg"  viewBox="0 0 450.73 75.3"><defs><style>.cls-1{fill:url(#New_Gradient_Swatch);}</style><linearGradient id="New_Gradient_Swatch" y1="37.65" x2="450.73" y2="37.65" gradientUnits="userSpaceOnUse"><stop offset="0" stop-color="#24a9df"/><stop offset="0.5" stop-color="#27b3ca"/><stop offset="1" stop-color="#2bc79d"/></linearGradient></defs><g id="Layer_2" data-name="Layer 2"><g id="Layer_1-2" data-name="Layer 1"><path class="cls-1" d="M31.23,24.25H21.12V10.12A1.14,1.14,0,0,0,20,9H8a1.14,1.14,0,0,0-1.15,1.15V24.25H1.15A1.16,1.16,0,0,0,0,25.4V35.5a1.16,1.16,0,0,0,1.15,1.16H6.77V58.07a14.8,14.8,0,0,0,5,11.37,18.23,18.23,0,0,0,12.43,4.49h7.06a1.15,1.15,0,0,0,1.16-1.15v-11a1.16,1.16,0,0,0-1.16-1.16H26.56a5.17,5.17,0,0,1-5.45-5.25V36.67H31.23a1.15,1.15,0,0,0,1.16-1.15V25.4A1.16,1.16,0,0,0,31.23,24.25ZM69,23a17.33,17.33,0,0,0-14,6.31V10.12A1.14,1.14,0,0,0,53.92,9h-12a1.15,1.15,0,0,0-1.16,1.15V72.78a1.15,1.15,0,0,0,1.16,1.15h12a1.15,1.15,0,0,0,1.16-1.15V45.85A9.47,9.47,0,0,1,74,45.38v27.4a1.14,1.14,0,0,0,1.15,1.15H87a1.14,1.14,0,0,0,1.15-1.15V42a18.07,18.07,0,0,0-5.54-13.57A18.75,18.75,0,0,0,69,23ZM98.6,24.25h12a1.17,1.17,0,0,1,1.17,1.17V72.79A1.18,1.18,0,0,1,110.6,74h-12a1.17,1.17,0,0,1-1.17-1.17V25.42A1.17,1.17,0,0,1,98.6,24.25ZM149.25,23c-6.17.25-10.82,2.35-14,6.39v-4a1.16,1.16,0,0,0-1.16-1.15h-12A1.16,1.16,0,0,0,121,25.4V72.75a1.16,1.16,0,0,0,1.16,1.15h12a1.16,1.16,0,0,0,1.15-1.15V47.19a9.91,9.91,0,0,1,10-10.23,10.71,10.71,0,0,1,3.64.57,1.16,1.16,0,0,0,1.48-.7,1.14,1.14,0,0,0,.07-.41V24.2A1.19,1.19,0,0,0,149.3,23ZM203.71,9H191.82a1.16,1.16,0,0,0-1.16,1.15V27.59A22.52,22.52,0,0,0,176.89,23a21.78,21.78,0,0,0-16.82,7.46c-4.49,5-6.69,11.18-6.69,18.64s2.2,13.58,6.69,18.64a22.64,22.64,0,0,0,30.6,2.77v2.27a1.14,1.14,0,0,0,1.15,1.15h11.9a1.15,1.15,0,0,0,1.15-1.15V10.12A1.15,1.15,0,0,0,203.73,9Zm-24.35,52.1c-6.21,0-11.09-5.16-11.09-12,0-6.59,4.88-11.85,11.09-11.85a10.41,10.41,0,0,1,7.84,3.47A11.63,11.63,0,0,1,190.45,49c0,6.86-5,12-11.09,12Zm81.33-36.8H248.42a1.15,1.15,0,0,0-1.1.75L235.66,56.08,224,25a1.16,1.16,0,0,0-1.1-.75H210.63a1.15,1.15,0,0,0-1.18,1.13,1.27,1.27,0,0,0,.09.47L228.48,73.2a1.16,1.16,0,0,0,1.09.73h12.18a1.18,1.18,0,0,0,1.09-.73l18.94-47.35a1.15,1.15,0,0,0-.61-1.51A1.11,1.11,0,0,0,260.69,24.25ZM348,23c-6.19.25-10.81,2.35-14,6.39v-4a1.16,1.16,0,0,0-1.15-1.15h-12a1.16,1.16,0,0,0-1.16,1.15V72.75a1.16,1.16,0,0,0,1.16,1.15h12A1.15,1.15,0,0,0,334,72.75V47.19A10,10,0,0,1,344.05,37a10.55,10.55,0,0,1,3.61.58,1.16,1.16,0,0,0,1.48-.7,1.14,1.14,0,0,0,.07-.41V24.2A1.19,1.19,0,0,0,348,23ZM104.68,0a9,9,0,1,1-9,9A8.95,8.95,0,0,1,104.68,0ZM287.56,23a25.48,25.48,0,0,0-18.84,7.55,24.91,24.91,0,0,0-7.55,18.52,24.83,24.83,0,0,0,7.74,18.65c5.17,5,11.67,7.46,19.41,7.46,9,0,16.62-3.72,21.47-9.92,1-1.26.44-2.31-1.15-2.31H288a12.3,12.3,0,0,1-11.76-8.66h36.06a1.21,1.21,0,0,0,1.16-1,23.18,23.18,0,0,0,.34-4.24,25,25,0,0,0-7.55-18.54A25.44,25.44,0,0,0,287.56,23ZM276.37,43.65a11.81,11.81,0,0,1,11.19-8.43,12.31,12.31,0,0,1,11.66,8.41Zm109.81,2.61A63.71,63.71,0,0,0,374.52,42c-2.95-.81-4.48-2-4.48-3.59s1.88-2.78,4.48-2.78a20.32,20.32,0,0,1,10.75,3.47,1.45,1.45,0,0,0,2-.44l5.3-8.08a1.45,1.45,0,0,0-.36-2A28.29,28.29,0,0,0,374.79,23c-6.18,0-11.2,1.43-14.87,4.4a13.67,13.67,0,0,0-5.56,11.29c0,6.09,3,10.58,9.23,13.44,1.16.54,3.5,1.34,6.81,2.51s5.2,1.73,5.47,1.8c1.79.71,2.69,1.61,2.69,2.77,0,2.06-1.79,3.14-5.29,3.14q-7,0-13.57-5.2a1.45,1.45,0,0,0-2,.23l-.08.1-5.5,8.3a1.45,1.45,0,0,0,.26,1.89,30.8,30.8,0,0,0,21,7.66c6.54,0,11.65-1.53,15.5-4.58a14.61,14.61,0,0,0,5.74-11.91C394.6,53.07,392.18,49.22,386.18,46.26Zm57-15.66a27.13,27.13,0,0,0-37.56,0,24.92,24.92,0,0,0-7.56,18.54,24.84,24.84,0,0,0,7.75,18.65c5.16,5,11.66,7.45,19.41,7.45,9,0,16.62-3.71,21.47-9.91,1-1.26.44-2.31-1.16-2.31h-20.6a12.31,12.31,0,0,1-11.76-8.66h36a1.16,1.16,0,0,0,1.15-1,22.74,22.74,0,0,0,.37-4.19A24.9,24.9,0,0,0,443.17,30.6ZM413.26,43.68a11.81,11.81,0,0,1,11.18-8.42,12.32,12.32,0,0,1,11.66,8.42Z"/></g></g></svg>