<svg xmlns="http://www.w3.org/2000/svg" fill="none" viewBox="0 0 1200 1200"><path fill="#363636" d="M589.827 386.528c-19.827-2.288-37.549-11.565-50.668-25.286-9.425 4.577-42.18 19.532-86.718 29.52-46.043 56.769-94.816 123.757-114.317 150.801l146.147-19.961c21.248-32.025 71.454-100.944 98.485-127.852 2.546-2.515 4.803-4.894 7.071-7.222ZM660.116 360.672c-12.371 13.235-29.005 22.383-47.72 25.326 2.425 2.51 4.887 5.062 7.615 7.754 27.02 26.908 77.192 95.827 98.472 127.85l146.153 19.956c-19.443-26.954-67.902-93.542-113.848-150.193-47.985-10.422-82.857-26.828-90.672-30.693ZM370.774 387.237c75.467 0 141.471-27.887 159.915-36.425-9.185-13.365-14.604-29.55-14.604-46.97 0-17.189 5.246-33.109 14.177-46.399C516.465 243.332 464.786 196 390.349 196c-63.498 0-74.221 9.365-75.759 11.175.137.66.171 1.322.101 2.027L295.5 375.005c3.548 2.95 19.054 12.232 75.274 12.232ZM668.481 350.287c16.669 7.785 84.054 36.95 161.177 36.95 58.202 0 72.442-11.743 75.314-14.991L885.74 209.201a8.522 8.522 0 0 1 .032-2.027c-1.433-1.805-12.257-11.17-75.649-11.17-76.61 0-129.04 50.019-140.959 62.5 8.535 13.056 13.557 28.591 13.557 45.342 0 17.161-5.257 33.167-14.24 46.441Z"/><path fill="#363636" d="M569.133 269.108c2.921.081 18.322.303 31.039.303 11.749 0 27.732-.222 31.015-.303v17.766h-3.283c-.616-7.608-1.846-13.685-12.327-13.685h-11.102v53.18c0 8.003.99 9.233 6.216 9.233h2.252v2.939c-3.685-.081-7.889-.301-12.771-.301-4.889 0-9.113.22-12.816.301v-2.939h2.253c5.302 0 6.29-1.23 6.29-9.233v-53.18H584.72c-10.413 0-11.693 6.077-12.257 13.685h-3.33v-17.766Zm30.251 105.016c38.8 0 70.363-31.529 70.363-70.282 0-38.754-31.563-70.272-70.363-70.272-38.776 0-70.3 31.518-70.3 70.272 0 38.753 31.524 70.282 70.3 70.282ZM0 646.92v79.22h14.806c2.6-33.932 8.28-60.939 54.877-60.939h49.633v237.233c0 35.699-4.336 41.335-27.857 41.335H81.43v13.076c16.535-.443 35.28-1.302 57.049-1.302 21.776 0 40.494.859 57.018 1.302v-13.076h-10.004c-23.513 0-27.857-5.636-27.857-41.335V665.201h49.622c46.598 0 52.258 27.007 54.888 60.939h14.806v-79.22c-14.806.427-86.23 1.312-138.473 1.312-56.614 0-125.397-.885-138.478-1.312ZM354.43 646.92v13.057h7.855c20.013 0 28.716 7.417 28.716 35.688v212.416c0 28.304-8.703 35.688-28.716 35.688h-7.855v13.076c15.242-.443 36.147-1.302 55.736-1.302 19.177 0 37.46.859 55.736 1.302v-13.076h-7.836c-20.043 0-28.723-7.384-28.723-35.688V695.665c0-28.271 8.68-35.688 28.723-35.688h7.836V646.92c-18.276.427-36.559 1.312-55.736 1.312-19.589 0-40.494-.885-55.736-1.312ZM694.917 940.285c-49.651 0-63.576-5.647-63.576-39.591V665.201c18.734-1.71 37.01-3.488 55.309-3.488 107.975 0 147.615 84.871 147.615 148.44 0 97.077-63.133 130.132-139.348 130.132Zm22.219-293.365c-34.834 0-70.107 1.312-104.922 1.312-19.604 0-40.518-.885-55.763-1.312v13.061h7.848c20.039 0 28.746 7.413 28.746 35.687v212.413c0 28.304-8.707 35.688-28.746 35.688h-7.848v13.076c15.245-.443 36.159-1.302 55.763-1.302 30.887 0 62.263 1.302 88.807 1.302 133.244 0 175.075-94.449 175.075-158.01 0-56.162-41.407-151.915-158.96-151.915ZM1156.9 648.232c-13.49 0-25.25-.885-43.1-1.312v13.061h8.26c11.77 0 16.99 2.621 16.99 10.02 0 7.818-8.27 24.351-11.75 30.899l-60.1 114.896-64.45-116.209c-4.346-7.833-9.564-19.589-9.564-25.668 0-10.871 6.954-13.938 16.114-13.938h7.82V646.92c-18.273.427-36.992 1.312-55.287 1.312-17.871 0-36.128-.885-54.851-1.312v13.061h3.883c21.371 0 27.009 3.915 43.991 34.371l83.614 149.752v68.766c0 22.626-4.79 30.899-26.56 30.899h-10.48v13.076c16.14-.443 36.17-1.302 55.3-1.302 18.32 0 37.03.859 55.33 1.302v-13.076h-8.74c-16.95 0-26.54-5.194-26.54-30.899v-77.912l77.09-144.063c13.5-25.252 17.4-30.914 35.25-30.914H1200V646.92c-13.93.427-28.73 1.312-43.1 1.312Z"/></svg>