<?xml version="1.0" ?>
<svg xmlns="http://www.w3.org/2000/svg" viewBox="0 0 243 20" fill="none">
	<path d="M15.3998 2.00005V2.10005V2.20005V2.30005C15.2998 2.90005 14.9998 3.50005 14.3998 4.10005C13.8998 4.60005 13.2998 4.90005 12.6998 5.00005H12.5998H12.4998H12.3998H12.2998C12.1998 5.00005 12.0998 5.00005 11.9998 5.00005H11.6998C11.6998 5.00005 11.6998 5.00005 11.5998 5.00005H11.3998V14.9001H11.4998C11.9998 15.0001 12.5998 14.8 13.1998 14.3C13.7998 13.8 14.1998 13.4 14.5998 13L15.0998 12.4001C15.2998 12.2001 15.3998 12 15.4998 11.8H15.6998V12.1C15.6998 13.4 14.9998 14.6 13.5998 15.8C13.4998 15.9 13.3998 16 13.1998 16.1C12.7998 16.5 12.2998 16.7001 11.6998 16.9001C11.5998 16.9001 11.1998 17.0001 10.5998 17.2001C9.8998 17.3001 9.4998 17.3 9.2998 17.3C7.5998 17.3 5.9998 16.8 4.5998 15.8C3.0998 14.7 2.29981 13.4 1.99981 11.6V11.5C1.99981 11.5 1.99981 11.5001 1.99981 11.4001V11.3C1.99981 11.3 1.99981 11.3001 1.99981 11.2001V11.1V11C1.99981 11 1.99981 11.0001 1.99981 10.9001V10.5V10.4001C1.99981 10.3001 1.99981 10.3 1.99981 10.3V10.2001C1.99981 10.2001 1.99981 10.2 1.99981 10.1V10C1.99981 10 1.99981 9.90005 1.99981 9.80005C1.99981 9.70005 1.99981 9.60005 1.99981 9.50005C2.59981 7.10005 3.89981 5.30005 5.89981 4.10005H5.7998H5.69981H5.5998H4.99981C4.89981 4.10005 4.8998 4.10005 4.7998 4.10005H4.5998C4.4998 4.10005 4.49981 4.10005 4.39981 4.10005H4.2998C2.5998 4.10005 1.39981 4.80005 0.499805 6.10005L0.299805 6.00005C0.299805 4.90005 0.699806 4.00005 1.59981 3.30005C2.49981 2.50005 3.49981 2.10005 4.49981 1.90005C4.59981 1.90005 4.7998 1.90005 5.0998 1.80005C5.0998 1.80005 5.1998 1.80005 5.2998 1.80005C5.3998 1.80005 5.39981 1.80005 5.49981 1.80005C5.59981 1.80005 5.6998 1.80005 5.7998 1.80005H6.0998H6.19981H6.39981H6.49981H6.69981L12.6998 2.80005C12.6998 2.80005 12.6998 2.80005 12.7998 2.90005C12.7998 2.90005 12.7998 2.90005 12.8998 2.90005H13.0998H13.4998H13.5998C13.6998 2.90005 13.6998 2.90005 13.6998 2.90005C13.6998 2.90005 13.7998 2.90005 13.8998 2.80005L14.0998 2.70005C14.0998 2.70005 14.1998 2.60005 14.2998 2.60005C14.3998 2.50005 14.3998 2.50005 14.4998 2.50005C14.5998 2.50005 14.5998 2.40005 14.5998 2.40005C14.5998 2.40005 14.6998 2.30005 14.6998 2.20005C14.6998 2.10005 14.7998 2.10005 14.7998 2.00005C14.7998 2.00005 14.8998 1.90005 14.8998 1.80005V2.00005H15.3998ZM6.0998 4.30005C5.7998 4.50005 5.59981 4.70005 5.39981 4.90005C5.09981 5.30005 4.7998 5.80005 4.5998 6.30005C4.5998 6.30005 4.49981 6.50005 4.39981 6.80005C4.29981 7.00005 4.1998 7.30005 4.0998 7.60005C4.0998 7.80005 3.99981 8.10005 3.89981 8.50005C3.89981 8.60005 3.8998 8.80005 3.7998 9.10005C3.7998 9.20005 3.7998 9.40005 3.7998 9.70005C3.7998 10.2001 3.89981 10.6 3.99981 11.1C4.19981 11.7 4.3998 12.2 4.5998 12.5V12.6C4.5998 12.6 4.59981 12.6001 4.69981 12.7001L4.7998 12.8C4.7998 12.8 4.7998 12.8001 4.7998 12.9001C4.7998 12.9001 4.8998 13.1001 5.0998 13.4001C5.1998 13.5001 5.29981 13.6 5.49981 13.8C5.49981 13.8 5.5998 13.8001 5.5998 13.9001C5.5998 14.0001 5.59981 14 5.69981 14C5.69981 14 5.6998 14 5.7998 14C5.7998 14 5.79981 14 5.89981 14L5.99981 13.9001C5.99981 13.9001 5.9998 13.9001 6.0998 13.9001C6.0998 13.9001 6.09981 13.9 6.19981 13.8L6.2998 13.7001C6.2998 13.7001 6.29981 13.6 6.39981 13.6C6.39981 13.7 6.4998 13.5 6.5998 13L6.69981 12.7001C6.69981 12.6001 6.7998 12.4 6.7998 12.1V4.80005V4.70005L6.0998 4.30005ZM9.19981 4.90005V10.3C9.19981 11.1 8.89981 11.8 8.39981 12.5C7.89981 13.2 7.29981 13.7 6.69981 14.1H6.5998C6.5998 14.1 6.49981 14.2001 6.39981 14.2001L6.2998 14.3C6.7998 14.7 7.29981 15.0001 7.89981 15.2001C8.49981 15.4001 8.9998 15.5 9.5998 15.5H9.7998C9.7998 15.5 9.8998 15.5 10.0998 15.5H10.1998H10.2998H10.3998H10.4998V5.10005L9.19981 4.90005Z" fill="#005A96"/>
	<path d="M20.5996 1.70007H21.0996C20.6996 2.10007 20.3996 2.50007 20.1996 2.80007C19.9996 3.20007 19.8996 3.60007 19.8996 4.20007V8.20007L22.9996 5.60007C23.4996 6.00007 23.7996 6.30007 24.0996 6.70007C24.3996 7.10007 24.5996 7.50007 24.6996 8.00007V15.1001C24.3996 16.5001 23.6996 17.5001 22.4996 18.3001C21.3996 19.0001 20.0996 19.6001 18.7996 19.8001H18.6996C18.6996 19.8001 18.6996 19.8001 18.5996 19.8001C18.4996 19.8001 18.4996 19.8001 18.4996 19.7001L18.5996 19.4001C20.6996 18.7001 21.9996 17.6001 22.5996 16.0001V8.40007L21.6996 7.60007L19.9996 9.00007V14.8001L20.6996 15.7001L18.8996 17.3001L17.0996 15.7001L17.7996 14.8001V7.40007H16.5996V6.00007H17.8996V4.10007C17.6996 3.20007 17.2996 2.50007 16.7996 2.10007H16.9996C16.9996 2.10007 17.0996 2.20007 17.1996 2.20007H17.2996C17.2996 2.20007 17.2996 2.20007 17.3996 2.20007C17.4996 2.20007 17.6996 2.30007 17.9996 2.50007C18.2996 2.60007 18.3996 2.80007 18.4996 2.90007V3.00007L18.5996 3.10007C19.0996 2.30007 19.7996 1.90007 20.5996 1.70007Z" fill="#005A96"/>
	<path d="M30.3 5.6001L33.3 8.7001L29.3 12.2001V14.5001L31.2 15.4001L32.6 14.3001L32.9 14.7001L29.8 17.1001H29.7C29.6 17.1001 29.5 17.1001 29.4 17.0001C29.3 17.0001 29.2 16.9001 29.1 16.9001C29.1 16.9001 28.9 16.8001 28.6 16.5001L28.5 16.4001C28.5 16.4001 28.5 16.4001 28.4 16.3001L28.3 16.2001C28.3 16.2001 28.2 16.1001 28.1 16.1001C28 16.0001 27.8 16.0001 27.7 16.0001H27.5C27.5 16.0001 27.4 16.0001 27.3 16.0001C27.2 16.0001 27.2 16.0001 27.1 16.0001C27 16.0001 27 16.0001 26.9 15.9001C26.8 15.9001 26.7 15.8001 26.5 15.8001C27 15.3001 27.3 14.7001 27.3 14.0001V7.6001C27.8 7.4001 28.4 7.1001 28.9 6.7001C29.3 6.4001 29.8 6.1001 30.3 5.6001ZM29.3 7.6001V11.2001C29.4 11.2001 29.5 11.1001 29.6 11.0001L29.9 10.7001C29.9 10.7001 30 10.7001 30 10.6001C30 10.5001 30 10.6001 30.1 10.6001C30.2 10.6001 30.1 10.6001 30.2 10.6001C30.2 10.6001 30.2 10.6001 30.3 10.6001C30.3 10.6001 30.3 10.6001 30.4 10.5001C30.5 10.5001 30.5 10.4001 30.5 10.4001C30.6 10.3001 30.8 10.2001 30.9 10.1001C31.1 10.0001 31.2 9.9001 31.3 9.7001L29.3 7.6001Z" fill="#005A96"/>
	<path d="M57.8998 2.00005V2.10005V2.20005V2.30005C57.7998 2.90005 57.4998 3.50005 56.8998 4.10005C56.3998 4.60005 55.7998 4.90005 55.1998 5.00005H55.0998H54.9998H54.8998H54.7998C54.6998 5.00005 54.5998 5.00005 54.4998 5.00005H54.1998C54.1998 5.00005 54.1998 5.00005 54.0998 5.00005H53.8998V14.9001H53.9998C54.4998 15.0001 55.0998 14.8 55.6998 14.3C56.2998 13.8 56.6998 13.4 57.0998 13L57.5998 12.4001C57.7998 12.2001 57.8998 12 57.9998 11.8H58.1998V12.1C58.1998 13.4 57.4998 14.6 56.0998 15.8C55.9998 15.9 55.8998 16 55.6998 16.1C55.2998 16.5 54.7998 16.7001 54.1998 16.9001C54.0998 16.9001 53.6998 17.0001 53.0998 17.2001C52.3998 17.3001 51.9998 17.3 51.7998 17.3C50.0998 17.3 48.4998 16.8 47.0998 15.8C45.5998 14.7 44.7998 13.4 44.4998 11.6V11.5C44.4998 11.5 44.4998 11.5001 44.4998 11.4001V11.3C44.4998 11.3 44.4998 11.3001 44.4998 11.2001V11.1V11C44.4998 11 44.4998 11.0001 44.4998 10.9001V10.5V10.4001C44.4998 10.3001 44.4998 10.3 44.4998 10.3V10.2001C44.4998 10.2001 44.4998 10.2 44.4998 10.1V10C44.4998 10 44.4998 9.90005 44.4998 9.80005C44.4998 9.70005 44.4998 9.60005 44.4998 9.50005C45.0998 7.10005 46.3998 5.30005 48.3998 4.10005H48.2998H48.1998H48.0998H47.9998C47.8998 4.10005 47.8998 4.10005 47.7998 4.10005H47.5998C47.4998 4.10005 47.4998 4.10005 47.3998 4.10005H47.2998C45.5998 4.10005 44.3998 4.80005 43.4998 6.10005L43.2998 6.00005C43.2998 4.90005 43.6998 4.00005 44.5998 3.30005C45.4998 2.50005 46.4998 2.10005 47.4998 1.90005C47.5998 1.90005 47.7998 1.90005 48.0998 1.80005C48.0998 1.80005 48.1998 1.80005 48.2998 1.80005C48.3998 1.80005 48.3998 1.80005 48.4998 1.80005C48.5998 1.80005 48.6998 1.80005 48.7998 1.80005H49.0998H49.1998H48.9998H49.0998H49.2998L55.2998 2.80005C55.2998 2.80005 55.2998 2.80005 55.3998 2.90005C55.3998 2.90005 55.3998 2.90005 55.4998 2.90005H55.6998H55.9998H56.0998C56.1998 2.90005 56.1998 2.90005 56.1998 2.90005C56.1998 2.90005 56.2998 2.90005 56.3998 2.80005L56.5998 2.70005C56.5998 2.70005 56.6998 2.60005 56.7998 2.60005C56.8998 2.50005 56.8998 2.50005 56.9998 2.50005C57.0998 2.50005 57.0998 2.40005 57.0998 2.40005C57.0998 2.40005 57.1998 2.30005 57.1998 2.20005C57.1998 2.10005 57.2998 2.10005 57.2998 2.00005C57.2998 2.00005 57.3998 1.90005 57.3998 1.80005V2.00005H57.8998ZM48.5998 4.30005C48.2998 4.50005 48.0998 4.70005 47.8998 4.90005C47.5998 5.30005 47.2998 5.80005 47.0998 6.30005C47.0998 6.30005 46.9998 6.50005 46.8998 6.80005C46.7998 7.00005 46.6998 7.30005 46.5998 7.60005C46.5998 7.80005 46.4998 8.10005 46.3998 8.50005C46.3998 8.60005 46.3998 8.80005 46.2998 9.10005C46.2998 9.20005 46.2998 9.40005 46.2998 9.70005C46.2998 10.2001 46.3998 10.6 46.4998 11.1C46.6998 11.7 46.8998 12.2 47.0998 12.5V12.6C47.0998 12.6 47.0998 12.6001 47.1998 12.7001L47.2998 12.8C47.2998 12.8 47.2998 12.8001 47.2998 12.9001C47.2998 12.9001 47.3998 13.1001 47.5998 13.4001C47.6998 13.5001 47.7998 13.6 47.9998 13.8C47.9998 13.8 48.0998 13.8001 48.0998 13.9001C48.0998 14.0001 48.0998 14 48.1998 14C48.1998 14 48.1998 14 48.2998 14C48.2998 14 48.2998 14 48.3998 14L48.4998 13.9001C48.4998 13.9001 48.4998 13.9001 48.5998 13.9001C48.5998 13.9001 48.5998 13.9 48.6998 13.8L48.7998 13.7001C48.7998 13.7001 48.7998 13.6 48.8998 13.6C48.8998 13.7 48.9998 13.5 49.0998 13L49.1998 12.7001C49.1998 12.6001 49.2998 12.4 49.2998 12.1V4.80005V4.70005L48.5998 4.30005ZM51.5998 4.90005V10.3C51.5998 11.1 51.2998 11.8 50.7998 12.5C50.2998 13.2 49.6998 13.7 49.0998 14.1H48.9998C48.9998 14.1 48.8998 14.2001 48.7998 14.2001L48.6998 14.3C49.1998 14.7 49.6998 15.0001 50.2998 15.2001C50.8998 15.4001 51.3998 15.5 51.9998 15.5H52.1998C52.1998 15.5 52.2998 15.5 52.4998 15.5H52.5998H52.6998H52.7998H52.9998V5.10005L51.5998 4.90005Z" fill="#005A96"/>
	<path d="M61.0994 5.7L62.7994 7.2L62.0994 8.1V14.6C62.0994 14.8 62.0994 15 62.1994 15.2C62.2994 15.4 62.3994 15.5 62.5994 15.6L63.0994 15.2L63.3994 15.5L61.3994 17.2C60.9994 17.2 60.6994 17.1 60.4994 16.8C60.0994 16.4 59.9994 16.1 59.8994 15.6C59.8994 15.5 59.8994 15.4 59.8994 15.3V8L59.3994 7.1L61.0994 5.7ZM61.7994 2H63.1994L61.3994 4.5L61.7994 2Z" fill="#005A96"/>
	<path d="M66.2996 5.6001C67.1996 6.3001 67.6996 7.1001 67.7996 8.2001V8.3001L70.6996 5.6001C70.7996 5.6001 70.9996 5.7001 71.0996 5.8001C71.5996 6.2001 71.8996 6.6001 71.9996 6.9001C72.1996 7.3001 72.3996 7.7001 72.5996 8.3001L75.2996 5.6001L76.8996 7.3001L77.8996 6.3001L78.1996 6.6001C77.7996 7.2001 77.4996 7.7001 77.2996 8.3001V14.3001C77.2996 14.4001 77.2996 14.4001 77.2996 14.5001C77.2996 14.5001 77.2996 14.5001 77.3996 14.7001C77.3996 14.7001 77.3996 14.8001 77.4996 14.9001C77.5996 15.0001 77.5996 15.0001 77.5996 15.1001L77.6996 15.2001C77.7996 15.3001 77.7996 15.3001 77.8996 15.3001H77.9996L78.3996 15.0001L78.6996 15.3001L76.7996 17.1001C76.1996 17.0001 75.6996 16.7001 75.4996 16.3001C75.1996 15.7001 75.0996 15.2001 75.0996 14.8001V8.9001C74.8996 8.3001 74.5996 7.9001 74.0996 7.7001L72.5996 9.1001V14.8001L73.3996 15.7001V15.9001L71.5996 17.2001H71.2996L69.5996 15.8001C69.8996 15.7001 70.1996 15.4001 70.3996 14.9001V9.0001C70.3996 9.0001 70.3996 9.0001 70.3996 8.9001V8.8001C70.3996 8.8001 70.3996 8.8001 70.3996 8.7001C70.3996 8.6001 70.2996 8.4001 70.1996 8.1001C70.1996 8.0001 70.0996 8.0001 70.0996 7.9001C70.0996 7.9001 70.0996 7.8001 69.9996 7.8001L69.8996 7.7001C69.8996 7.7001 69.7996 7.7001 69.6996 7.6001C69.6996 7.6001 69.6996 7.6001 69.5996 7.6001H69.4996L67.8996 9.1001V14.5001C67.9996 14.6001 68.0996 14.7001 68.1996 15.0001C68.2996 15.2001 68.3996 15.3001 68.4996 15.4001C68.4996 15.4001 68.5996 15.4001 68.5996 15.5001C68.5996 15.6001 68.5996 15.6001 68.6996 15.6001C68.6996 15.6001 68.6996 15.6001 68.7996 15.7001L66.8996 17.3001L65.0996 15.7001L65.7996 14.9001V8.1001L65.3996 7.6001L64.7996 7.9001L64.5996 7.6001L66.2996 5.6001Z" fill="#005A96"/>
	<path d="M83.5998 5.6001L86.5998 8.7001L82.5998 12.2001V14.5001L84.4998 15.4001L85.8998 14.3001L86.1998 14.7001L83.0998 17.1001H82.9998C82.8998 17.1001 82.7998 17.1001 82.6998 17.0001C82.5998 17.0001 82.4998 16.9001 82.3998 16.9001C82.3998 16.9001 82.1998 16.8001 81.8998 16.5001L81.7998 16.4001C81.7998 16.4001 81.7998 16.4001 81.6998 16.3001L81.5998 16.2001C81.5998 16.2001 81.4998 16.1001 81.3998 16.1001C81.2998 16.0001 81.0998 16.0001 80.9998 16.0001L80.7998 15.9001C80.7998 15.9001 80.6998 15.9001 80.5998 15.9001C80.4998 15.9001 80.4998 15.9001 80.3998 15.9001C80.2998 15.9001 80.2998 15.9001 80.1998 15.8001C80.0998 15.8001 79.9998 15.7001 79.7998 15.7001C80.2998 15.2001 80.5998 14.6001 80.5998 13.9001V7.5001C81.0998 7.3001 81.6998 7.0001 82.1998 6.6001C82.5998 6.4001 83.0998 6.1001 83.5998 5.6001ZM82.6998 7.6001V11.2001C82.7998 11.2001 82.8998 11.1001 82.9998 11.0001L83.2998 10.7001C83.2998 10.7001 83.3998 10.7001 83.3998 10.6001C83.3998 10.5001 83.3998 10.6001 83.4998 10.6001C83.5998 10.6001 83.4998 10.6001 83.5998 10.6001C83.5998 10.6001 83.5998 10.6001 83.6998 10.6001C83.6998 10.6001 83.6998 10.6001 83.7998 10.5001C83.8998 10.5001 83.8998 10.4001 83.8998 10.4001C83.9998 10.3001 84.1998 10.2001 84.2998 10.1001C84.4998 10.0001 84.5998 9.9001 84.6998 9.7001L82.6998 7.6001Z" fill="#005A96"/>
	<path d="M95.4002 4.1001H95.6002C95.8002 4.2001 96.0002 4.3001 96.0002 4.4001C96.1002 4.6001 96.2002 4.8001 96.2002 5.0001C96.2002 5.0001 96.2002 5.0001 96.2002 5.1001V5.5001C96.2002 5.5001 96.2002 5.6001 96.2002 5.7001L96.1002 6.0001V6.1001L93.6002 9.7001L95.7002 11.0001V15.4001C95.0002 15.7001 94.6002 15.9001 94.3002 16.1001C93.8002 16.4001 93.3002 16.7001 93.0002 17.0001C93.0002 17.0001 93.0002 17.0001 92.9002 17.0001H92.8002C92.8002 17.0001 92.8002 17.0001 92.7002 17.0001C92.7002 17.0001 92.7002 17.0001 92.6002 17.0001C92.6002 17.0001 92.6002 17.0001 92.5002 17.0001C92.3002 16.9001 92.1002 16.8001 91.7002 16.6001C91.5002 16.5001 91.2002 16.4001 90.9002 16.3001C90.9002 16.3001 90.8002 16.3001 90.7002 16.3001H90.6002H90.5002C90.4002 16.3001 90.3002 16.3001 90.3002 16.3001H89.9002C89.9002 16.3001 89.8002 16.3001 89.7002 16.3001C89.5002 16.3001 89.1002 16.4001 88.6002 16.6001C88.5002 16.6001 88.3002 16.8001 88.0002 16.9001L87.7002 16.7001L90.4002 12.7001L88.3002 11.4001V7.5001C89.0002 7.3001 89.8002 6.7001 90.7002 5.8001L90.8002 5.7001C90.8002 5.7001 90.8002 5.7001 90.9002 5.6001L91.0002 5.5001L93.4002 6.4001C93.5002 6.5001 93.5002 6.5001 93.5002 6.5001H93.6002C93.6002 6.5001 93.6002 6.5001 93.7002 6.5001C93.8002 6.5001 93.9002 6.6001 93.9002 6.6001H94.0002C94.1002 6.6001 94.2002 6.6001 94.3002 6.6001C94.4002 6.6001 94.6002 6.5001 94.9002 6.4001C95.0002 6.3001 95.1002 6.3001 95.2002 6.2001C95.3002 6.2001 95.3002 6.0001 95.4002 5.8001V5.4001L95.3002 5.3001C95.3002 5.3001 95.3002 5.2001 95.2002 5.1001C95.2002 5.0001 95.2002 5.0001 95.1002 5.0001C95.0002 5.0001 95.0002 5.0001 95.0002 4.9001L94.9002 4.8001C94.9002 4.8001 94.9002 4.8001 94.9002 4.7001V4.6001C94.9002 4.6001 94.9002 4.6001 94.9002 4.5001C94.9002 4.5001 94.9002 4.4001 95.0002 4.3001C95.2002 4.3001 95.3002 4.2001 95.4002 4.1001ZM92.4002 11.5001L90.2002 14.7001H90.3002C90.3002 14.7001 90.3002 14.7001 90.4002 14.7001H90.5002C90.7002 14.7001 90.9002 14.7001 90.9002 14.7001C90.9002 14.7001 91.0002 14.7001 91.1002 14.7001H91.4002C91.4002 14.7001 91.5002 14.7001 91.6002 14.7001H91.8002C91.8002 14.7001 91.9002 14.7001 92.0002 14.7001C92.1002 14.7001 92.3002 14.7001 92.5002 14.8001C92.6002 14.8001 92.8002 14.9001 93.0002 15.0001C93.3002 15.1001 93.6002 15.3001 93.9002 15.5001V12.5001L92.4002 11.5001ZM90.7002 10.3001L92.0002 11.1001L94.0002 8.2001C93.9002 8.3001 93.9002 8.3001 93.8002 8.3001H93.7002H93.6002H93.5002H93.4002H93.2002C93.2002 8.3001 92.8002 8.2001 92.0002 8.1001C91.7002 8.0001 91.3002 7.9001 90.8002 7.7001V10.3001H90.7002Z" fill="#005A96"/>
	<path d="M110.4 5.6001C110.8 6.0001 111.3 6.3001 111.9 6.6001C112.5 6.9001 113 7.1001 113.4 7.2001L114.2 7.4001V15.3001L110.7 17.1001L107.8 15.6001L106.6 15.3001L107.1 14.6001L107.2 13.8001V7.5001C107.8 7.4001 108.4 7.2001 108.9 6.8001C109.4 6.5001 109.9 6.1001 110.4 5.6001ZM109.3 7.6001V14.2001L111.8 15.3001V8.7001L109.3 7.6001Z" fill="#005A96"/>
	<path d="M119.4 1.70007L121.7 2.30007L121.2 4.10007L119.3 3.70007V6.00007H121.1L120.8 7.30007H119.3V13.9001C119.3 13.9001 119.3 14.1001 119.4 14.3001C119.4 14.3001 119.5 14.4001 119.5 14.5001C119.5 14.6001 119.6 14.6001 119.6 14.7001C119.6 14.8001 119.7 14.8001 119.8 14.9001C119.9 15.0001 120 15.1001 120 15.1001C120.2 15.2001 120.4 15.3001 120.6 15.4001L121.5 14.6001C121.5 14.6001 121.5 14.6001 121.6 14.6001C121.6 14.6001 121.6 14.6001 121.7 14.7001C121.7 14.7001 121.8 14.8001 121.8 14.9001L119.2 17.2001C118.3 16.3001 117.3 15.7001 116.3 15.3001C116.9 14.8001 117.2 14.2001 117.2 13.6001V7.30007L116 7.20007L116.3 6.00007H117.3V3.60007L119.4 1.70007Z" fill="#005A96"/>
	<path d="M144.2 2.8C144.3 2.8 144.3 2.8 144.2 2.8H144.4L142.3 5L139.1 3.9V15.1C139.2 15.2 139.2 15.2 139.3 15.2H139.4H139.5H139.6H139.7H139.9C141.5 15.2 143.1 14.5 144.8 13L144.6 13.7C143.3 15.8 141.6 17 139.4 17.2L136.6 17.1C134.9 16.8 133.5 15.9 132.5 14.6C131.5 13.3 131 11.7 131 10V9.9V9.7V9.6L131.7 7.1C132.7 5.2 134 3.8 135.7 3H136C136 3 135.9 3.1 135.9 3.2C135.8 3.3 135.8 3.3 135.7 3.3C135.5 3.5 135.2 3.8 135 4C134.8 4.3 134.5 4.6 134.2 4.9C133.7 5.5 133.4 6.1 133.2 6.8V7V7.1C133.2 7.3 133.2 7.3 133.2 7.3V7.4V7.5C133.2 7.6 133.2 7.7 133.1 7.7C133.1 7.8 133.1 7.9 133.1 8C133.1 8.1 133.1 8.2 133.1 8.3C133.1 8.4 133.1 8.5 133.1 8.5C133.1 9.3 133.2 10 133.4 10.7C133.6 11.3 134 12 134.5 12.7C134.5 12.7 134.5 12.6 134.6 12.6C134.6 12.7 134.6 12.6 134.7 12.3V12.1V5.5L139.4 1.5C141.1 2.3 142.6 2.8 144.2 2.8ZM137.5 4.3V9.3C137.5 9.9 137.3 10.4 137 10.9C136.8 11.2 136.4 11.7 135.9 12.3L135.8 12.4L135.7 12.5L135.5 12.7C135.4 12.8 135.3 12.9 135.1 13.1C135.3 13.3 135.6 13.5 135.8 13.8C136.1 14 136.4 14.3 136.8 14.5C137.3 14.8 137.9 15 138.4 15V3.5L137.5 4.3Z" fill="#005A96"/>
	<path d="M149.699 5.6001L152.699 8.7001L148.699 12.2001V14.5001L150.599 15.4001L151.999 14.3001L152.299 14.7001L149.199 17.1001H149.099C148.999 17.1001 148.899 17.1001 148.799 17.0001C148.699 17.0001 148.599 16.9001 148.499 16.9001C148.399 16.9001 148.299 16.8001 147.999 16.5001L147.899 16.4001C147.899 16.4001 147.899 16.4001 147.799 16.3001L147.699 16.2001C147.699 16.2001 147.599 16.1001 147.499 16.1001C147.399 16.0001 147.199 16.0001 147.099 16.0001L146.899 15.9001C146.899 15.9001 146.799 15.9001 146.699 15.9001C146.599 15.9001 146.599 15.9001 146.499 15.9001C146.399 15.9001 146.399 15.9001 146.299 15.8001C146.199 15.8001 146.099 15.7001 145.899 15.7001C146.399 15.2001 146.699 14.6001 146.699 13.9001V7.5001C147.199 7.3001 147.799 7.0001 148.299 6.6001C148.699 6.4001 149.199 6.1001 149.699 5.6001ZM148.799 7.6001V11.2001C148.899 11.2001 148.999 11.1001 149.099 11.0001L149.399 10.7001C149.399 10.7001 149.499 10.7001 149.499 10.6001C149.499 10.6001 149.499 10.6001 149.599 10.6001C149.699 10.6001 149.599 10.6001 149.699 10.6001C149.699 10.6001 149.699 10.6001 149.799 10.6001C149.799 10.6001 149.799 10.6001 149.899 10.5001C149.999 10.5001 149.999 10.4001 149.999 10.4001C150.099 10.3001 150.299 10.2001 150.399 10.1001C150.599 10.0001 150.699 9.9001 150.799 9.7001L148.799 7.6001Z" fill="#005A96"/>
	<path d="M155.7 5.6001C156.1 6.0001 156.5 6.4001 156.8 6.8001C157.1 7.2001 157.2 7.7001 157.3 8.2001L160.2 5.6001L161.8 7.2001L162.7 6.4001L163 6.7001V6.8001C162.6 7.2001 162.3 7.7001 162.1 8.3001V14.5001C162.1 14.7001 162.2 14.7001 162.2 14.8001C162.2 14.8001 162.2 14.9001 162.3 15.0001C162.3 15.0001 162.3 15.0001 162.4 15.1001L162.5 15.2001L162.6 15.3001C162.7 15.4001 162.7 15.4001 162.8 15.4001L163.3 15.0001L163.7 15.4001L161.6 17.2001C161.3 17.1001 161 16.9001 160.7 16.6001C160.4 16.2001 160.3 15.9001 160.2 15.7001V8.8001C160.2 8.8001 160.2 8.8001 160.2 8.7001C160.2 8.6001 160.1 8.5001 160.1 8.4001C160 8.2001 159.9 8.1001 159.8 8.0001C159.7 7.8001 159.5 7.8001 159.4 7.7001H159.2L157.8 9.1001V14.6001C157.8 14.7001 157.9 14.9001 158 15.1001C158.1 15.3001 158.2 15.4001 158.3 15.5001C158.3 15.5001 158.4 15.5001 158.4 15.6001C158.4 15.7001 158.4 15.7001 158.5 15.7001C158.5 15.7001 158.5 15.7001 158.6 15.8001C157.9 16.6001 157.3 17.1001 156.8 17.3001L155.1 15.7001L155.8 15.0001V8.6001C155.8 8.5001 155.8 8.4001 155.7 8.3001C155.7 8.2001 155.6 8.1001 155.5 8.0001C155.4 8.0001 155.4 7.9001 155.4 7.9001L154.9 8.1001L154.7 7.8001L155.7 5.6001Z" fill="#005A96"/>
	<path d="M167.7 2.6001V6.0001H170.1V7.1001H167.7V14.3001L168.8 15.2001L169.6 14.6001L169.9 15.0001L167.4 17.1001C166.9 16.6001 166.5 16.3001 166.2 16.1001C165.7 15.7001 165.2 15.5001 164.8 15.3001C165 15.0001 165.1 14.7001 165.2 14.5001C165.4 14.0001 165.4 13.7001 165.4 13.6001V7.2001L164.5 7.1001L164.6 6.7001L167.7 2.6001Z" fill="#005A96"/>
	<path d="M173 5.6001C173.1 5.6001 173.1 5.7001 173.2 5.7001C173.2 5.7001 173.2 5.7001 173.3 5.7001C173.4 5.8001 173.5 5.8001 173.5 5.9001C173.5 6.0001 173.6 5.9001 173.6 6.0001C173.6 6.0001 173.6 6.1001 173.7 6.1001C173.7 6.1001 173.7 6.1001 173.8 6.2001C173.8 6.2001 173.8 6.2001 173.9 6.3001C173.9 6.3001 173.9 6.3001 173.9 6.4001V6.5001C173.9 6.5001 173.9 6.5001 174 6.6001C174 6.6001 174.1 6.7001 174.1 6.8001L174.2 6.9001V7.0001V7.1001V7.2001V7.3001C174.2 7.3001 174.2 7.3001 174.2 7.4001C174.2 7.5001 174.2 7.5001 174.2 7.5001C174.2 7.5001 174.2 7.5001 174.2 7.6001C174.2 7.6001 174.2 7.6001 174.2 7.7001L176.4 5.7001L177.9 7.4001V7.6001L176.4 9.0001L175.1 7.6001L174.2 8.4001V14.4001C174.5 14.8001 174.9 15.1001 175.3 15.3001L176.1 14.6001L176.5 15.0001L173.8 17.3001C173 16.5001 172.2 15.8001 171.2 15.4001C171.5 15.2001 171.7 14.9001 171.7 14.6001C171.9 14.3001 172 14.0001 172 13.7001V8.6001C172 8.6001 172 8.6001 172 8.5001V8.4001C172 8.4001 172 8.4001 172 8.3001C172 8.2001 171.9 8.1001 171.8 7.9001C171.7 7.8001 171.6 7.7001 171.5 7.6001L171 7.9001L170.8 7.6001L173 5.6001Z" fill="#005A96"/>
	<path d="M183.1 5.6001L186.2 6.8001C186.2 6.8001 186.3 6.7001 186.4 6.6001C186.5 6.5001 186.6 6.4001 186.7 6.4001C186.7 6.4001 186.7 6.4001 186.8 6.4001H186.9C186.9 6.4001 186.9 6.4001 187 6.4001H187.1H187.2C187.1 6.5001 187.1 6.7001 186.9 6.8001C186.8 6.9001 186.8 7.0001 186.7 7.2001C186.6 7.4001 186.5 7.7001 186.3 8.1001V14.6001C186.3 14.7001 186.3 14.7001 186.3 14.7001C186.3 14.7001 186.3 14.7001 186.3 14.8001V14.9001C186.3 14.9001 186.3 14.9001 186.3 15.0001C186.3 15.0001 186.4 15.1001 186.5 15.2001C186.5 15.2001 186.6 15.3001 186.7 15.4001L187.1 15.1001L187.4 15.4001L185.4 17.1001H185.3C185 17.1001 184.8 17.0001 184.6 16.8001C184.4 16.5001 184.2 16.2001 184.2 16.0001C184.2 15.9001 184.1 15.7001 184 15.5001C183.9 15.3001 183.9 15.1001 183.9 15.1001V14.9001V14.8001C183.9 14.8001 183.9 14.8001 183.9 14.7001V14.6001L180.9 17.2001C180.3 16.9001 179.9 16.5001 179.6 15.9001C179.3 15.4001 179.1 14.8001 179.1 14.2001V14.0001C179.1 14.0001 179.1 14.0001 179.1 13.9001V13.7001C179.1 13.7001 179.1 13.7001 179.1 13.6001C179.1 13.6001 179.2 13.3001 179.3 12.9001C179.6 11.7001 180.3 10.6001 181.3 9.9001L180.2 6.7001C180.2 6.7001 180.2 6.8001 180.3 6.8001H180.4H180.7H180.8H180.9C181.2 6.8001 181.6 6.6001 182 6.5001C182.5 6.2001 182.8 6.0001 183.1 5.6001ZM180.9 7.1001L181.8 9.6001L184 10.9001V8.2001L181.1 7.1001H180.9ZM181.8 10.3001C181.5 10.7001 181.3 11.0001 181.2 11.3001C181.1 11.6001 181.1 11.9001 181.1 12.3001V12.6001C181.1 12.7001 181.1 12.8001 181.1 12.9001C181.2 13.7001 181.6 14.5001 182.2 15.4001L182.5 15.3001L184.1 13.9001V11.6001L181.8 10.3001Z" fill="#005A96"/>
	<path d="M192.5 1.70007H193.2C192.8 2.10007 192.5 2.50007 192.3 2.80007C192.1 3.20007 192 3.70007 192 4.10007V14.3001L193.2 15.2001L193.6 14.9001L193.9 15.3001L191.7 17.2001C191.2 16.7001 190.8 16.4001 190.4 16.1001C189.9 15.8001 189.4 15.5001 188.8 15.3001C189.4 14.9001 189.7 14.4001 189.7 13.7001V3.60007C189.5 3.00007 189.2 2.50007 188.7 2.10007H188.8C188.8 2.10007 188.9 2.20007 189 2.20007C189.1 2.20007 189.2 2.20007 189.3 2.30007C189.4 2.40007 189.5 2.40007 189.6 2.40007C189.7 2.40007 189.7 2.50007 189.9 2.50007C190 2.60007 190.2 2.70007 190.4 2.90007L190.5 3.00007C190.5 3.10007 190.5 3.10007 190.6 3.10007C190.9 2.70007 191.2 2.50007 191.4 2.30007C191.7 2.00007 192.1 1.80007 192.5 1.70007Z" fill="#005A96"/>
	<path d="M217.1 1.10005H217.5C217.3 1.30005 216.9 1.70005 216.5 2.30005C216.2 2.70005 216 3.10005 215.9 3.60005V14C216 14.4 216.2 14.8001 216.6 15.2001L217.4 14.6L217.8 15.1L215.2 17.4001H215.1C214.9 17.4001 214.8 17.3 214.8 17.3C214.7 17.3 214.6 17.2001 214.5 17.2001C213.9 16.5001 213.5 15.7 213.3 14.8L209.7 17.4001L205.7 15.2001H205.5C205.5 15.2001 205.5 15.2001 205.4 15.2001H205.3C205.2 15.2001 205.1 15.3 205 15.3C204.9 15.3 204.9 15.4 204.8 15.5V15.6V15.7001V15.9001V16V16.1C204.8 16.2 204.8 16.3001 204.9 16.4001C204.9 16.5001 204.9 16.6001 204.9 16.7001C204.9 16.7001 204.9 16.7 204.9 16.8C204.9 16.8 204.9 16.8001 204.8 16.9001C204.8 16.9001 204.8 16.9001 204.7 16.9001C204.7 16.9001 204.7 16.9001 204.6 16.9001C204.5 16.9001 204.5 16.9001 204.5 16.9001H204.4C204.2 16.9001 204.1 16.8 204 16.6C203.9 16.5 203.8 16.3 203.8 16C203.9 15.8 204 15.5001 204.1 15.2001C204.2 15.0001 204.3 14.7001 204.4 14.4001L206.7 11C205.9 10.4 205.3 9.70005 204.9 8.90005C204.4 8.00005 204.1 7.10005 204.1 6.20005C204.1 6.00005 204.1 5.90005 204.2 5.60005C204.2 5.30005 204.3 5.10005 204.3 5.00005C204.3 5.00005 204.3 4.90005 204.3 4.80005C204.3 4.80005 204.3 4.70005 204.4 4.40005C204.4 4.40005 204.4 4.30005 204.4 4.20005C204.8 3.10005 205.6 2.20005 206.5 1.70005C207.5 1.10005 208.5 0.800049 209.6 0.800049H209.7H210.3C210.3 0.800049 210.4 0.800049 210.5 0.800049H210.8C210.8 0.800049 210.9 0.800049 211.1 0.800049C211.2 0.800049 211.3 0.800049 211.4 0.800049C211.5 0.800049 211.6 0.800051 211.7 0.900051C211.9 0.900051 212.1 1.00005 212.3 1.00005L214.6 2.10005C214.6 2.10005 214.6 2.10005 214.7 2.10005L214.8 2.00005C215.2 1.60005 215.6 1.30005 215.9 1.10005C216.2 1.50005 216.6 1.30005 217.1 1.10005ZM209 3.30005C207.9 3.40005 206.8 3.90005 206 4.60005C205.1 5.40005 204.7 6.30005 204.7 7.50005V7.70005V7.80005C204.7 7.80005 204.7 7.80005 204.7 7.90005V8.00005C204.7 8.00005 204.7 8.00005 204.7 8.10005V8.00005C204.9 9.20005 205.6 10.2 206.7 11L209.9 6.30005C209.8 6.30005 209.8 6.30005 209.7 6.20005C209.7 6.20005 209.7 6.20005 209.6 6.10005C209.5 6.10005 209.4 6.00005 209.4 6.00005C209.4 6.00005 209.3 6.00005 209.2 5.90005C209.1 5.80005 209 5.90005 209 5.90005C209 5.90005 208.9 5.90005 208.8 5.90005H208.7C207.9 5.90005 207.4 6.20005 207 6.90005V6.80005C207 6.80005 207 6.70005 207 6.60005C207 6.60005 207 6.60005 207 6.50005V6.40005C207 5.60005 207.6 5.00005 208.8 4.50005C208.9 4.50005 209.1 4.40005 209.3 4.40005C209.5 4.40005 209.7 4.30005 209.7 4.30005C209.7 4.30005 210 4.30005 210.6 4.40005H210.7H210.8C210.9 4.40005 211 4.40005 211 4.40005H211.1C211.1 4.40005 211.1 4.40005 211.2 4.40005L211.8 3.60005C211.4 3.40005 211 3.20005 210.5 3.10005C210 3.00005 209.6 2.90005 209.2 2.90005L209 3.30005ZM206.9 12.2001L206.2 13.3L210.9 15.5H211.1L213 13.9001V12.1H206.9V12.2001ZM212.3 4.40005L208.2 10.3H212.9L212.7 5.20005L212.4 4.40005H212.3Z" fill="#005A96"/>
	<path d="M226.7 4.1001H226.9C227.1 4.2001 227.3 4.3001 227.3 4.4001C227.4 4.6001 227.5 4.8001 227.5 5.0001C227.5 5.0001 227.5 5.0001 227.5 5.1001V5.5001C227.5 5.5001 227.5 5.6001 227.5 5.7001L227.4 6.0001V6.1001L224.9 9.7001L227 11.0001V15.4001C226.3 15.7001 225.9 15.9001 225.6 16.1001C225.1 16.4001 224.6 16.7001 224.3 17.0001C224.3 17.0001 224.3 17.0001 224.2 17.0001H224.1C224.1 17.0001 224.1 17.0001 224 17.0001C224 17.0001 224 17.0001 223.9 17.0001C223.9 17.0001 223.9 17.0001 223.8 17.0001C223.6 16.9001 223.4 16.8001 223 16.6001C222.8 16.5001 222.5 16.4001 222.2 16.3001C222.2 16.3001 222.1 16.3001 222 16.3001H221.9H221.8C221.7 16.3001 221.6 16.3001 221.6 16.3001H221.2C221.2 16.3001 221.1 16.3001 221 16.3001C220.8 16.3001 220.4 16.4001 219.9 16.6001C219.8 16.6001 219.6 16.8001 219.3 16.9001L219 16.7001L221.7 12.7001L219.6 11.4001V7.5001C220.3 7.3001 221.1 6.7001 222 5.8001L222.1 5.7001C222.1 5.7001 222.1 5.7001 222.2 5.6001L222.3 5.5001L224.7 6.4001C224.8 6.5001 224.8 6.5001 224.8 6.5001H224.9C224.9 6.5001 224.9 6.5001 225 6.5001C225.1 6.5001 225.2 6.6001 225.2 6.6001H225.3C225.4 6.6001 225.5 6.6001 225.6 6.6001C225.7 6.6001 225.9 6.5001 226.2 6.4001C226.3 6.3001 226.4 6.3001 226.5 6.2001C226.6 6.2001 226.6 6.0001 226.7 5.8001V5.4001L226.6 5.3001C226.6 5.3001 226.6 5.2001 226.5 5.1001C226.5 5.0001 226.5 5.0001 226.4 5.0001C226.3 5.0001 226.3 5.0001 226.3 4.9001L226.2 4.8001C226.2 4.8001 226.2 4.8001 226.2 4.7001V4.6001C226.2 4.6001 226.2 4.6001 226.2 4.5001C226.2 4.5001 226.2 4.4001 226.3 4.3001C226.5 4.3001 226.6 4.2001 226.7 4.1001ZM223.7 11.5001L221.5 14.7001H221.6C221.6 14.7001 221.6 14.7001 221.7 14.7001H221.8C222 14.7001 222.2 14.7001 222.2 14.7001C222.2 14.7001 222.3 14.7001 222.4 14.7001H222.7C222.7 14.7001 222.8 14.7001 222.9 14.7001H223.1C223.1 14.7001 223.2 14.7001 223.3 14.7001C223.4 14.7001 223.6 14.7001 223.8 14.8001C223.9 14.8001 224.1 14.9001 224.3 15.0001C224.6 15.1001 224.9 15.3001 225.2 15.5001V12.5001L223.7 11.5001ZM222 10.3001L223.3 11.1001L225.3 8.2001C225.2 8.3001 225.2 8.3001 225.1 8.3001H225H224.9H224.8H224.7H224.5C224.5 8.3001 224.1 8.2001 223.3 8.1001C223 8.0001 222.6 7.9001 222.1 7.7001V10.3001H222Z" fill="#005A96"/>
	<path d="M231.2 5.7L232.9 7.2L232.2 8.1V14.6C232.2 14.8 232.2 15 232.3 15.2C232.4 15.4 232.5 15.5 232.7 15.6L233.2 15.2L233.5 15.5L231.5 17.2C231.1 17.2 230.8 17.1 230.6 16.8C230.2 16.4 230.1 16.1 230 15.6C230 15.5 230 15.4 230 15.3V8L229.5 7.1L231.2 5.7ZM231.9 2H233.3L231.5 4.5L231.9 2Z" fill="#005A96"/>
	<path d="M238.399 5.6001L241.499 6.8001C241.499 6.8001 241.599 6.7001 241.699 6.6001C241.799 6.5001 241.899 6.4001 241.999 6.4001C241.999 6.4001 241.999 6.4001 242.099 6.4001H242.199C242.199 6.4001 242.199 6.4001 242.299 6.4001H242.399H242.499C242.399 6.5001 242.399 6.7001 242.199 6.8001C242.099 6.9001 242.099 7.0001 241.999 7.2001C241.899 7.4001 241.799 7.7001 241.599 8.1001V14.6001C241.599 14.7001 241.599 14.7001 241.599 14.7001C241.599 14.7001 241.599 14.7001 241.599 14.8001V14.9001C241.599 14.9001 241.599 14.9001 241.599 15.0001C241.599 15.0001 241.699 15.1001 241.799 15.2001C241.799 15.2001 241.899 15.3001 241.999 15.4001L242.399 15.1001L242.699 15.4001L240.699 17.1001H240.599C240.299 17.1001 240.099 17.0001 239.899 16.8001C239.699 16.5001 239.499 16.2001 239.499 16.0001C239.499 15.9001 239.399 15.7001 239.299 15.5001C239.199 15.3001 239.199 15.1001 239.199 15.1001V14.9001V14.8001C239.199 14.8001 239.199 14.8001 239.199 14.7001V14.6001L236.199 17.2001C235.599 16.9001 235.199 16.5001 234.899 15.9001C234.599 15.4001 234.399 14.8001 234.399 14.2001V14.0001C234.399 14.0001 234.399 14.0001 234.399 13.9001V13.7001C234.399 13.7001 234.399 13.7001 234.399 13.6001C234.399 13.6001 234.499 13.3001 234.599 12.9001C234.899 11.7001 235.599 10.6001 236.599 9.9001L235.499 6.7001C235.499 6.7001 235.499 6.8001 235.599 6.8001H235.699H235.999H236.099H236.199C236.499 6.8001 236.899 6.6001 237.299 6.5001C237.799 6.2001 238.099 6.0001 238.399 5.6001ZM236.299 7.1001L237.199 9.6001L239.399 10.9001V8.2001L236.499 7.1001H236.299ZM237.199 10.3001C236.899 10.7001 236.699 11.0001 236.599 11.3001C236.499 11.6001 236.499 11.9001 236.499 12.3001V12.6001C236.499 12.7001 236.499 12.8001 236.499 12.9001C236.599 13.7001 236.999 14.5001 237.599 15.4001L237.899 15.3001L239.499 13.9001V11.6001L237.199 10.3001Z" fill="#005A96"/>
</svg>