<?xml version="1.0" ?>
<svg xmlns="http://www.w3.org/2000/svg" viewBox="0 0 1510.45 329.12">
	<defs>
		<style>
      .cls-1 {
        fill: #071d23;
      }
      .cls-2 {
        fill: #2b7bbb;
      }
      .cls-3 {
        fill: #fff;
      }
      .cls-4 {
        fill: #19315a;
      }
      .cls-5 {
        fill: #1a355a;
      }
    </style>
	</defs>
	<g>
		<g id="Layer_1">
			<g id="Layer_1-2">
				<g>
					<g>
						<path d="M425.18,247.14V104.37h-48.53v-25.16h126.85v25.16h-48.53v142.77h-29.79Z" class="cls-1"/>
						<path d="M539.95,98.98c-5.31,0-9.67-1.54-13.1-4.62s-5.14-7.1-5.14-12.07,1.71-9.03,5.14-12.2c3.42-3.17,7.79-4.75,13.1-4.75s9.67,1.58,13.1,4.75c3.42,3.17,5.14,7.23,5.14,12.2s-1.71,8.99-5.14,12.07-7.79,4.62-13.1,4.62ZM525.06,247.14v-126.08h29.53v126.08h-29.53Z" class="cls-1"/>
						<path d="M588.48,247.14v-126.08h24.39l2.05,17.2h1.03c5.3-5.65,11.08-10.44,17.33-14.38s13.31-5.91,21.18-5.91c9.24,0,16.65,1.97,22.21,5.91s9.8,9.5,12.71,16.69c5.99-6.5,12.24-11.9,18.74-16.18,6.5-4.27,13.78-6.42,21.83-6.42,13.35,0,23.19,4.33,29.53,12.97,6.33,8.65,9.5,21.02,9.5,37.11v79.09h-29.79v-75.23c0-10.44-1.58-17.8-4.75-22.08s-8-6.42-14.51-6.42c-7.88,0-16.69,5.22-26.45,15.66v88.07h-29.53v-75.23c0-10.44-1.59-17.8-4.75-22.08-3.17-4.28-8.09-6.42-14.76-6.42-7.88,0-16.69,5.22-26.45,15.66v88.07h-29.53.02Z" class="cls-1"/>
						<path d="M855.02,250.22c-8.73,0-16.86-1.5-24.39-4.49-7.54-2.99-14.12-7.32-19.77-12.97s-10.06-12.54-13.22-20.67c-3.17-8.13-4.75-17.42-4.75-27.86s1.62-19.52,4.88-27.73c3.25-8.22,7.58-15.15,12.97-20.8,5.39-5.65,11.59-10.01,18.62-13.09,7.02-3.08,14.21-4.62,21.57-4.62,8.56,0,16.09,1.46,22.6,4.37,6.5,2.91,11.94,7.02,16.3,12.33,4.37,5.31,7.66,11.64,9.89,19,2.22,7.36,3.34,15.41,3.34,24.14,0,2.91-.13,5.65-.38,8.22-.26,2.57-.56,4.62-.9,6.16h-80.12c1.37,11.3,5.35,19.99,11.94,26.06,6.59,6.08,15.02,9.12,25.29,9.12,5.48,0,10.57-.81,15.28-2.44s9.37-3.89,13.99-6.81l10.02,18.49c-5.99,3.94-12.67,7.19-20.03,9.76-7.36,2.57-15.06,3.85-23.11,3.85l-.02-.02ZM821.38,172.16h55.98c0-9.76-2.1-17.42-6.29-22.98-4.2-5.56-10.66-8.34-19.39-8.34-7.53,0-14.12,2.66-19.77,7.96-5.65,5.31-9.16,13.09-10.53,23.37h0Z" class="cls-1"/>
						<path d="M968.77,302.86c-7.53,0-14.51-.69-20.93-2.05-6.42-1.37-11.94-3.43-16.56-6.16-4.62-2.74-8.26-6.16-10.91-10.27-2.66-4.11-3.98-8.9-3.98-14.38s1.54-10.23,4.62-14.76c3.08-4.54,7.53-8.6,13.35-12.2v-1.03c-3.25-2.06-5.95-4.79-8.09-8.22-2.14-3.42-3.21-7.7-3.21-12.84s1.41-9.46,4.24-13.48c2.83-4.02,6.03-7.32,9.63-9.88v-1.03c-4.28-3.25-8.09-7.74-11.43-13.48-3.34-5.73-5.01-12.37-5.01-19.9s1.37-13.61,4.11-19.26,6.38-10.4,10.91-14.25c4.53-3.85,9.8-6.76,15.79-8.73s12.32-2.95,19-2.95c3.42,0,6.72.3,9.89.9,3.16.6,6.03,1.33,8.6,2.18h45.19v21.83h-23.11c2.05,2.4,3.76,5.44,5.14,9.12,1.37,3.68,2.05,7.75,2.05,12.2,0,7.02-1.24,13.19-3.72,18.49-2.48,5.31-5.87,9.76-10.14,13.35-4.28,3.59-9.33,6.33-15.15,8.22-5.82,1.89-12.07,2.83-18.74,2.83-2.74,0-5.56-.26-8.47-.77-2.91-.51-5.82-1.37-8.73-2.57-1.88,1.71-3.38,3.43-4.49,5.14-1.12,1.71-1.67,4.02-1.67,6.93,0,3.59,1.5,6.42,4.49,8.47s8.35,3.08,16.05,3.08h22.34c15.23,0,26.74,2.44,34.54,7.32,7.79,4.88,11.68,12.8,11.68,23.75,0,6.16-1.58,11.98-4.75,17.46-3.17,5.48-7.66,10.18-13.48,14.12s-12.88,7.06-21.18,9.37c-8.31,2.31-17.59,3.47-27.86,3.47v-.02ZM973.39,283.6c10.27,0,18.53-2.02,24.78-6.03,6.25-4.02,9.37-8.77,9.37-14.25,0-4.97-1.92-8.31-5.78-10.02-3.85-1.71-9.37-2.57-16.56-2.57h-17.2c-6.85,0-12.58-.6-17.2-1.8-6.51,4.96-9.76,10.53-9.76,16.69,0,5.65,2.86,10.06,8.6,13.23,5.73,3.16,13.65,4.75,23.75,4.75h0ZM970.31,188.6c5.99,0,11.13-2.18,15.41-6.55,4.28-4.37,6.42-10.66,6.42-18.87s-2.1-13.99-6.29-18.36c-4.2-4.37-9.37-6.55-15.54-6.55s-11.39,2.14-15.66,6.42c-4.28,4.28-6.42,10.44-6.42,18.49s2.14,14.51,6.42,18.87c4.28,4.37,9.5,6.55,15.66,6.55h0Z" class="cls-1"/>
						<path d="M1080.47,250.22c-11.13,0-20.12-3.38-26.96-10.14-6.85-6.76-10.27-15.7-10.27-26.83,0-6.67,1.41-12.62,4.24-17.84,2.82-5.22,7.27-9.72,13.35-13.48,6.07-3.76,13.78-6.93,23.11-9.5s20.5-4.54,33.51-5.91c-.17-3.25-.64-6.38-1.41-9.37-.77-2.99-2.05-5.65-3.85-7.96-1.8-2.31-4.15-4.11-7.06-5.39s-6.51-1.92-10.79-1.92c-6.16,0-12.2,1.2-18.1,3.59-5.91,2.4-11.68,5.31-17.33,8.73l-10.79-19.77c7.02-4.45,14.89-8.3,23.62-11.56,8.73-3.25,18.14-4.88,28.25-4.88,15.75,0,27.52,4.67,35.31,13.99,7.79,9.33,11.69,22.81,11.69,40.44v74.72h-24.4l-2.05-13.87h-1.03c-5.65,4.8-11.68,8.82-18.1,12.07-6.42,3.25-13.4,4.88-20.93,4.88h0ZM1089.97,227.11c5.13,0,9.8-1.19,13.99-3.59s8.69-5.82,13.48-10.27v-28.25c-8.56,1.03-15.75,2.4-21.57,4.11s-10.53,3.64-14.12,5.78-6.16,4.58-7.7,7.32c-1.54,2.74-2.31,5.65-2.31,8.73,0,5.65,1.71,9.76,5.14,12.33,3.42,2.57,7.79,3.85,13.09,3.85h0Z" class="cls-1"/>
						<path d="M1218.87,250.22c-7.36,0-13.57-1.12-18.62-3.34s-9.16-5.35-12.33-9.37c-3.17-4.02-5.48-8.81-6.93-14.38-1.46-5.56-2.18-11.77-2.18-18.62v-60.09h-17.98v-22.08l19.52-1.28,3.59-34.41h24.65v34.41h32.1v23.37h-32.1v60.09c0,14.72,5.91,22.08,17.72,22.08,2.22,0,4.49-.26,6.8-.77,2.31-.51,4.41-1.2,6.29-2.05l5.13,21.83c-3.43,1.2-7.32,2.27-11.68,3.21-4.37.94-9.03,1.41-13.99,1.41h.01Z" class="cls-1"/>
						<path d="M1313.1,250.22c-8.73,0-16.86-1.5-24.39-4.49s-14.12-7.32-19.77-12.97-10.06-12.54-13.23-20.67c-3.17-8.13-4.75-17.42-4.75-27.86s1.63-19.52,4.88-27.73c3.25-8.22,7.58-15.15,12.97-20.8,5.39-5.65,11.59-10.01,18.62-13.09,7.02-3.08,14.21-4.62,21.57-4.62,8.56,0,16.09,1.46,22.6,4.37,6.5,2.91,11.94,7.02,16.3,12.33,4.37,5.31,7.66,11.64,9.89,19,2.22,7.36,3.34,15.41,3.34,24.14,0,2.91-.13,5.65-.38,8.22-.26,2.57-.56,4.62-.9,6.16h-80.11c1.37,11.3,5.35,19.99,11.94,26.06,6.59,6.08,15.02,9.12,25.29,9.12,5.48,0,10.57-.81,15.28-2.44,4.71-1.63,9.37-3.89,13.99-6.81l10.02,18.49c-5.99,3.94-12.67,7.19-20.03,9.76s-15.06,3.85-23.11,3.85l-.02-.02ZM1279.47,172.16h55.98c0-9.76-2.1-17.42-6.29-22.98-4.2-5.56-10.66-8.34-19.39-8.34-7.53,0-14.12,2.66-19.77,7.96-5.65,5.31-9.16,13.09-10.53,23.37h0Z" class="cls-1"/>
					</g>
					<g>
						<g id="w-circle">
							<g id="circle">
								<circle r="164.56" cy="164.56" cx="164.56" class="cls-4"/>
							</g>
						</g>
						<g>
							<g>
								<g>
									<path d="M89.85,222.39V83.64h-47.23v-24.4h123.2v24.4h-47.23v138.75h-28.74Z" class="cls-3"/>
									<path d="M188.25,276.51c-7.28,0-14.17-.59-20.27-1.97-6.3-1.38-11.61-3.35-16.14-5.9-4.53-2.76-8.07-5.9-10.63-10.04-2.56-3.94-3.94-8.66-3.94-13.97s1.57-10.04,4.53-14.37c2.95-4.33,7.28-8.27,12.99-11.81v-.98c-3.15-1.97-5.71-4.72-7.87-8.07-2.16-3.35-3.15-7.48-3.15-12.4s1.38-9.25,4.13-13.19c2.76-3.94,5.9-7.08,9.45-9.64v-.98c-4.13-3.15-7.87-7.48-11.02-13.19-3.15-5.51-4.92-12.01-4.92-19.29,0-6.89,1.38-13.19,3.94-18.7,2.76-5.51,6.1-10.04,10.63-13.78,4.33-3.74,9.45-6.49,15.35-8.46,5.9-1.97,12.01-2.95,18.5-2.95,3.35,0,6.49.2,9.64.79s5.9,1.38,8.27,2.16h43.89v21.25h-22.44c1.97,2.36,3.74,5.31,4.92,8.86,1.38,3.54,1.97,7.48,1.97,11.81,0,6.89-1.18,12.79-3.54,17.91-2.36,5.12-5.71,9.45-9.84,12.99-4.13,3.54-9.05,6.1-14.76,8.07-5.71,1.77-11.81,2.76-18.3,2.76-2.76,0-5.31-.2-8.27-.79-2.76-.59-5.71-1.38-8.46-2.56-1.77,1.57-3.35,3.35-4.33,4.92-1.18,1.57-1.57,3.94-1.57,6.69,0,3.54,1.38,6.3,4.33,8.27s8.07,2.95,15.55,2.95h21.65c14.76,0,25.98,2.36,33.65,7.08,7.48,4.72,11.41,12.4,11.41,23.03,0,5.9-1.57,11.61-4.53,16.93-3.15,5.31-7.48,9.84-13.19,13.78-5.71,3.74-12.6,6.89-20.66,9.05-7.87,2.76-16.93,3.74-26.96,3.74h-.01ZM192.78,257.82c10.04,0,17.91-1.97,24.01-5.9,6.1-3.94,9.05-8.46,9.05-13.78,0-4.92-1.97-8.07-5.71-9.64-3.74-1.57-9.05-2.56-16.14-2.56h-16.73c-6.69,0-12.2-.59-16.73-1.77-6.3,4.92-9.45,10.23-9.45,16.14,0,5.51,2.76,9.84,8.27,12.79,5.9,3.15,13.58,4.72,23.42,4.72h0ZM189.83,165.51c5.9,0,10.82-2.16,14.96-6.3,4.13-4.33,6.3-10.43,6.3-18.3s-1.97-13.58-6.1-17.91-9.05-6.3-15.15-6.3-11.02,2.16-15.15,6.3c-4.13,4.13-6.3,10.23-6.3,17.91,0,8.07,2.16,14.17,6.3,18.3,4.13,4.13,9.05,6.3,15.15,6.3h-.01Z" class="cls-3"/>
								</g>
								<path d="M147.91,58.65h16.73v26.18h-37.98l21.25-26.18Z" class="cls-5"/>
								<path d="M151.65,59.24h14.37v24.4h-34.05l19.68-24.4h0Z" class="cls-3"/>
							</g>
							<path d="M308.42,159.81h-23.15v23.76h-16.17v-23.76h-23.15v-14.94h23.15v-23.76h16.17v23.76h23.15v14.94Z" class="cls-3"/>
						</g>
					</g>
					<path d="M1434.43,195.48h-52.26v-23.37h52.26v-53.57h23.63v53.57h52.39v23.37h-52.39v53.31h-23.63v-53.31h0Z" class="cls-2"/>
				</g>
			</g>
		</g>
	</g>
</svg>