<?xml version="1.0" ?>
<svg xmlns="http://www.w3.org/2000/svg" viewBox="0 0 116 45" fill="none">
	<g clip-path="url(#clip0_5629_995)">
		<path d="M68.3973 29.6083C62.9302 29.6083 62.5004 25.2251 63.2405 22.0305L64.2432 17.3501C65.4846 11.9514 67.9675 9.40078 73.1004 9.40078H83.6048C83.6907 9.39791 83.776 9.41593 83.8539 9.45341C83.9318 9.49088 84.0002 9.54674 84.0536 9.61654C84.1069 9.68635 84.1438 9.76814 84.1612 9.85542C84.1786 9.94259 84.1762 10.0329 84.1539 10.119L83.1034 14.5765C83.0567 14.7732 82.9502 14.9491 82.7998 15.0785C82.6493 15.2077 82.4629 15.2835 82.2679 15.2947H73.4346C71.5725 15.2947 70.0445 15.4928 69.5193 17.3005L68.6598 21.4609C68.3973 22.6496 68.445 23.7144 69.8296 23.7144H80.5728C80.6587 23.7116 80.744 23.7296 80.8219 23.7671C80.8998 23.8045 80.9682 23.8604 81.0216 23.9303C81.0749 24 81.1118 24.0818 81.1293 24.169C81.1467 24.2563 81.1442 24.3465 81.1219 24.4326L80.2386 28.8654C80.1918 29.0621 80.0854 29.238 79.9349 29.3673C79.7845 29.4967 79.5981 29.5724 79.403 29.5835L68.3973 29.6083ZM36.3586 29.6083H43.6879C48.8207 29.6083 50.7784 27.429 52.0199 22.0305L53.0226 17.3501C53.7626 14.1555 53.4284 9.40078 47.9613 9.40078H40.6321C35.4992 9.40078 33.0163 11.9514 31.7749 17.3501L27.9789 35.0069C27.9545 35.0897 27.9496 35.1774 27.965 35.2626C27.9802 35.3478 28.0151 35.4279 28.0667 35.496C28.1184 35.5641 28.1851 35.6183 28.2613 35.6539C28.3375 35.6894 28.4208 35.7054 28.5042 35.7003H33.0402C33.23 35.693 33.4123 35.6211 33.559 35.4958C33.7056 35.3705 33.8085 35.1987 33.8519 35.0069L35.0217 29.5093C35.464 29.58 35.9111 29.6132 36.3586 29.6083ZM37.1942 17.3501C37.7194 15.5175 39.2235 15.2947 41.1096 15.2947H46.3379C47.5793 15.2947 48.0329 16.0623 47.7464 17.251L46.887 21.0894C46.4095 23.1696 45.6217 23.7639 43.664 23.7639H37.4807C36.0961 23.7639 36.0244 22.6991 36.3109 21.5104L37.1942 17.3501ZM90.0746 17.3501C90.5999 15.5175 92.1516 15.2947 94.0376 15.2947H99.2187C100.46 15.2947 100.913 16.0623 100.627 17.251L99.7675 21.0894C99.2903 23.1696 98.5019 23.7639 96.5441 23.7639H90.3611C88.9764 23.7639 88.9049 22.6991 89.1913 21.5104L90.0746 17.3501ZM96.6403 29.6083C101.773 29.6083 103.73 27.429 104.972 22.0305L105.975 17.3501C106.714 14.1555 106.38 9.40078 100.913 9.40078H93.5841C88.4512 9.40078 85.9684 11.9514 84.7269 17.3501L83.7242 22.0305C82.9841 25.225 83.4377 29.6083 88.8809 29.6083H96.6403ZM20.3155 28.9149C20.2909 28.9977 20.2861 29.0855 20.3014 29.1707C20.3167 29.2558 20.3517 29.3359 20.4033 29.404C20.4549 29.4722 20.5216 29.5264 20.5978 29.5619C20.674 29.5975 20.7573 29.6134 20.8407 29.6083H25.3767C25.5666 29.6009 25.7489 29.5291 25.8955 29.4038C26.0422 29.2786 26.1451 29.1068 26.1885 28.9149L30.2231 10.0694C30.2476 9.98661 30.2524 9.89886 30.2371 9.81365C30.2219 9.72845 30.1869 9.64838 30.1353 9.58024C30.0837 9.5121 30.0169 9.45795 29.9407 9.42238C29.8646 9.38682 29.7813 9.37091 29.6979 9.37601H25.1618C24.972 9.38334 24.7897 9.45517 24.643 9.58045C24.4964 9.70573 24.3935 9.87753 24.3501 10.0694L20.3155 28.9149ZM53.0464 28.9149C53.0219 28.9977 53.0171 29.0855 53.0324 29.1707C53.0476 29.2558 53.0826 29.3359 53.1342 29.404C53.1858 29.4722 53.2526 29.5264 53.3287 29.5619C53.4049 29.5975 53.4883 29.6134 53.5716 29.6083H58.1076C58.2975 29.6009 58.4797 29.5291 58.6264 29.4038C58.773 29.2786 58.876 29.1068 58.9193 28.9149L62.954 10.0694C62.9785 9.98661 62.9834 9.89886 62.968 9.81365C62.9527 9.72845 62.9178 9.64838 62.8662 9.58024C62.8146 9.5121 62.7479 9.45795 62.6717 9.42238C62.5955 9.38682 62.5122 9.37091 62.4287 9.37601H57.8928C57.7029 9.38334 57.5206 9.45517 57.374 9.58045C57.2273 9.70573 57.1244 9.87753 57.0811 10.0694L53.0464 28.9149ZM0.022777 14.6013C-0.0017315 14.6841 -0.00654624 14.7719 0.00874461 14.857C0.0240355 14.9422 0.0589789 15.0223 0.110587 15.0904C0.162194 15.1586 0.228935 15.2127 0.305106 15.2483C0.381278 15.2838 0.464615 15.2997 0.548002 15.2947H5.15563L3.72321 22.0552C2.98312 25.2498 3.81871 29.633 9.2858 29.633L16.1376 29.6579C16.3214 29.6513 16.498 29.5823 16.6403 29.4615C16.7827 29.3407 16.8829 29.1748 16.9254 28.9892L17.7372 25.2251C17.7577 25.1445 17.7604 25.0599 17.7452 24.9781C17.7298 24.8962 17.6968 24.819 17.6485 24.7523C17.6002 24.6856 17.5381 24.631 17.4666 24.5928C17.3951 24.5546 17.3162 24.5336 17.2357 24.5317H10.957C9.45287 24.5317 9.38129 23.3678 9.6678 22.0552L11.1241 15.2947H19.2172C19.4072 15.2873 19.5894 15.2155 19.736 15.0902C19.8828 14.9649 19.9857 14.7931 20.029 14.6013L20.9839 10.0942C21.0084 10.0114 21.0133 9.92361 20.998 9.8384C20.9827 9.75322 20.9477 9.67315 20.8961 9.60501C20.8445 9.53687 20.7778 9.48272 20.7016 9.44716C20.6255 9.41159 20.5421 9.39568 20.4587 9.40078H1.81331C1.62344 9.40812 1.44116 9.47994 1.2945 9.60522C1.14785 9.7305 1.04493 9.90228 1.00159 10.0942L0.022777 14.6013ZM13.607 4.12603C13.607 3.43542 13.4095 2.76033 13.0396 2.18611C12.6697 1.6119 12.1441 1.16435 11.529 0.900073C10.9138 0.635791 10.237 0.566642 9.58405 0.701371C8.93107 0.836101 8.33126 1.16866 7.86049 1.65699C7.38972 2.14532 7.06912 2.76749 6.93923 3.44481C6.80934 4.12215 6.87601 4.82422 7.13079 5.46225C7.38557 6.10028 7.81702 6.64561 8.37059 7.0293C8.92416 7.41297 9.575 7.61776 10.2407 7.61776C10.6829 7.6183 11.1209 7.52834 11.5296 7.35305C11.9382 7.17777 12.3095 6.92058 12.6221 6.59624C12.9348 6.27189 13.1828 5.88676 13.3518 5.46288C13.5208 5.039 13.6075 4.58471 13.607 4.12603Z" fill="black"/>
		<path d="M40.0754 44.3647C39.5531 44.3753 39.0354 44.261 38.5626 44.0308C38.1399 43.8227 37.7732 43.5096 37.495 43.1194L38.273 42.375C38.5044 42.7036 38.8078 42.9704 39.1581 43.1534C39.5085 43.3365 39.8958 43.4305 40.288 43.4276C40.7587 43.4468 41.2236 43.3145 41.6189 43.0489C41.955 42.8191 42.191 42.462 42.2768 42.0541C42.3221 41.8756 42.3261 41.6887 42.2885 41.5084C42.2532 41.3645 42.1837 41.232 42.0861 41.1232C41.9791 41.0085 41.856 40.9111 41.7209 40.8345C41.574 40.7491 41.4158 40.6591 41.2462 40.5647L40.1954 40.0387C40.0166 39.9487 39.8442 39.8457 39.6796 39.7305C39.5095 39.6132 39.361 39.4654 39.2409 39.2941C39.116 39.1115 39.0296 38.9038 38.9873 38.6842C38.9395 38.4137 38.9484 38.1358 39.0133 37.8692C39.0817 37.5504 39.2113 37.2492 39.3943 36.9834C39.5823 36.7079 39.8137 36.4669 40.0787 36.2709C40.3548 36.0666 40.6601 35.9085 40.9834 35.8024C41.325 35.6897 41.6816 35.6334 42.04 35.6354C42.485 35.6259 42.9258 35.7248 43.3272 35.9243C43.6769 36.0986 43.9822 36.3559 44.2186 36.6752L43.5133 37.3686C43.3237 37.1242 43.0856 36.9249 42.8153 36.7844C42.5106 36.6355 42.1765 36.5629 41.8398 36.5725C41.4288 36.5602 41.0234 36.6741 40.6745 36.8998C40.5197 37.0005 40.3859 37.1324 40.2814 37.288C40.177 37.4434 40.1038 37.6192 40.0664 37.8048C40.0205 37.962 40.0189 38.1296 40.0618 38.2877C40.1048 38.4459 40.1905 38.588 40.3089 38.6971C40.4215 38.8069 40.5467 38.9017 40.6817 38.9796C40.8211 39.0609 40.9659 39.1358 41.1163 39.2042L42.1575 39.7176C42.361 39.817 42.5552 39.9351 42.7381 40.0708C42.9087 40.1958 43.0556 40.3525 43.1715 40.5329C43.2865 40.7196 43.3619 40.9296 43.3925 41.149C43.4269 41.4212 43.4119 41.6977 43.3481 41.9642C43.2761 42.2996 43.143 42.6176 42.956 42.9012C42.762 43.1964 42.5204 43.4547 42.242 43.6651C41.9452 43.8891 41.6156 44.0624 41.2659 44.1785C40.8811 44.3057 40.4792 44.3685 40.0754 44.3647Z" fill="black"/>
		<path d="M45.0834 44.2104L46.8832 35.7895H49.1973C49.6061 35.7845 50.0141 35.8275 50.4136 35.9176C50.7311 35.984 51.0291 36.127 51.2834 36.3348C51.5096 36.5328 51.6692 36.8004 51.7392 37.0987C51.8191 37.4848 51.8099 37.8851 51.7122 38.2668C51.6302 38.679 51.473 39.0713 51.2488 39.4222C51.04 39.742 50.7732 40.0167 50.4632 40.2309C50.1413 40.4504 49.7867 40.6132 49.4136 40.7124C49.0042 40.8219 48.5829 40.8758 48.1602 40.8728H46.8237L46.1105 44.2104H45.0834ZM47.0103 39.9997H48.223C48.9325 39.9997 49.4883 39.8607 49.8901 39.5825C50.0996 39.4282 50.2776 39.2325 50.414 39.0068C50.5504 38.7811 50.6425 38.5296 50.685 38.2668C50.8149 37.6594 50.7255 37.238 50.4169 37.0024C50.1082 36.767 49.5992 36.6493 48.8897 36.6493H47.7264L47.0103 39.9997Z" fill="black"/>
		<path d="M55.6686 44.3644C55.2048 44.3757 54.7453 44.27 54.3297 44.0561C53.9542 43.8564 53.6399 43.5518 53.4222 43.1768C53.185 42.753 53.0432 42.2791 53.0072 41.7905C52.9589 41.1771 53.0052 40.5596 53.1442 39.9612C53.2738 39.3271 53.4899 38.7155 53.7862 38.1448C54.0482 37.6386 54.3866 37.1793 54.7886 36.784C55.1603 36.4205 55.5936 36.1311 56.0665 35.9304C56.5324 35.7337 57.031 35.6334 57.5342 35.6351C57.9975 35.6241 58.4568 35.7275 58.8741 35.9369C59.2496 36.1318 59.5668 36.4291 59.7918 36.7968C60.0347 37.2096 60.1809 37.6757 60.2186 38.1577C60.2688 38.7623 60.2243 39.3713 60.087 39.9612C59.9559 40.5993 59.7388 41.2152 59.4422 41.7905C59.1778 42.3058 58.8355 42.7738 58.4283 43.1769C58.0526 43.5474 57.6159 43.8453 57.1389 44.0561C56.6739 44.2609 56.1737 44.3657 55.6686 44.3644ZM55.8688 43.4273C56.2274 43.4283 56.5817 43.3448 56.9048 43.1833C57.2456 43.0106 57.5523 42.7733 57.8091 42.4839C58.0991 42.158 58.3422 41.7905 58.531 41.3926C58.7476 40.938 58.9086 40.4572 59.0102 39.9612C59.1166 39.4992 59.1599 39.0239 59.1388 38.5493C59.1253 38.1789 59.0363 37.8158 58.8778 37.4837C58.7395 37.2038 58.5277 36.9702 58.267 36.8097C57.9823 36.6446 57.6599 36.5626 57.3339 36.572C56.9763 36.5709 56.6229 36.652 56.2992 36.8097C55.9624 36.9755 55.6578 37.204 55.4004 37.4837C55.1109 37.7993 54.8693 38.1586 54.6837 38.5493C54.4687 38.9973 54.3091 39.4717 54.2087 39.9612C54.1007 40.4297 54.056 40.9114 54.0759 41.3926C54.0898 41.7704 54.1768 42.1416 54.3316 42.4839C54.464 42.7728 54.6743 43.0158 54.937 43.1833C55.2197 43.3527 55.5424 43.4372 55.8688 43.4273Z" fill="black"/>
		<path d="M61.5425 44.2103L63.3423 35.7893H65.8791C66.2553 35.7852 66.6307 35.8261 66.9979 35.911C67.2976 35.9758 67.5778 36.1145 67.815 36.3154C68.0283 36.5072 68.179 36.7628 68.2464 37.0471C68.3218 37.4121 68.3131 37.7904 68.2209 38.1512C68.1095 38.7549 67.8182 39.3072 67.3883 39.7301C66.9613 40.1308 66.4411 40.4095 65.879 40.5388L67.161 44.2103H65.9976L64.8022 40.6544H63.3295L62.5697 44.2103H61.5425ZM63.5161 39.7814H64.8776C65.4201 39.8067 65.958 39.6661 66.4243 39.3771C66.6249 39.2364 66.7963 39.0555 66.9284 38.8449C67.0606 38.6344 67.1507 38.3985 67.1934 38.1513C67.3124 37.5949 67.2264 37.2055 66.9358 36.9831C66.645 36.7607 66.1822 36.6493 65.547 36.6492H64.1855L63.5161 39.7814Z" fill="black"/>
		<path d="M70.7127 44.2105L72.3205 36.688H69.8702L70.0622 35.7896H76.0025L75.8105 36.688H73.3601L71.7523 44.2105H70.7127Z" fill="black"/>
		<path d="M78.0187 44.3647C77.4965 44.3753 76.9788 44.261 76.5059 44.0308C76.0833 43.8227 75.7167 43.5096 75.4384 43.1194L76.2164 42.3749C76.4412 42.6951 76.7348 42.9566 77.074 43.1387C77.4308 43.3329 77.8285 43.4321 78.2315 43.4276C78.7021 43.4468 79.167 43.3145 79.5623 43.0489C79.8983 42.819 80.1344 42.462 80.2203 42.0541C80.2655 41.8756 80.2694 41.6887 80.2319 41.5084C80.1966 41.3645 80.127 41.232 80.0295 41.1232C79.9226 41.0084 79.7994 40.9111 79.6642 40.8344C79.5174 40.7491 79.3592 40.6591 79.1897 40.5647L78.1388 40.0386C77.9601 39.9487 77.7877 39.8457 77.6229 39.7305C77.453 39.6131 77.3044 39.4653 77.1843 39.294C77.0593 39.1115 76.9729 38.9038 76.9308 38.6842C76.8829 38.4137 76.8918 38.1357 76.9566 37.8692C77.025 37.5503 77.1547 37.2491 77.3376 36.9834C77.5257 36.7078 77.757 36.4669 78.022 36.2709C78.2982 36.0666 78.6034 35.9085 78.9266 35.8024C79.2682 35.6897 79.6249 35.6334 79.9835 35.6354C80.4284 35.6259 80.8693 35.7248 81.2707 35.9243C81.6204 36.0987 81.9257 36.3559 82.162 36.6752L81.4568 37.3686C81.2671 37.1242 81.0291 36.9249 80.7587 36.7844C80.454 36.6355 80.1199 36.5629 79.7832 36.5724C79.3722 36.5601 78.9668 36.6741 78.618 36.8998C78.463 37.0005 78.3293 37.1324 78.2248 37.2879C78.1203 37.4434 78.0472 37.6192 78.0098 37.8048C77.9639 37.962 77.9623 38.1296 78.0053 38.2877C78.0483 38.4458 78.134 38.588 78.2523 38.6971C78.3649 38.8068 78.4901 38.9017 78.6251 38.9796C78.7644 39.0609 78.9093 39.1358 79.0597 39.2042L80.1008 39.7176C80.3042 39.8169 80.4986 39.9351 80.6815 40.0708C80.8521 40.1958 80.999 40.3525 81.1148 40.5329C81.23 40.7195 81.3052 40.9295 81.3357 41.1489C81.3704 41.4211 81.3555 41.6977 81.2915 41.9642C81.2195 42.2996 81.0864 42.6176 80.8994 42.9012C80.7053 43.1964 80.4639 43.4547 80.1854 43.6651C79.8885 43.8891 79.559 44.0624 79.2093 44.1785C78.8245 44.3057 78.4227 44.3685 78.0187 44.3647Z" fill="black"/>
		<path d="M83.0266 44.2104L84.8264 35.7894H87.2394C87.6118 35.785 87.9833 35.8237 88.3473 35.9048C88.6359 35.9649 88.9091 36.0873 89.149 36.2642C89.3549 36.4228 89.5067 36.6454 89.5824 36.8995C89.6635 37.2084 89.6645 37.5339 89.5852 37.8433C89.4954 38.2625 89.3079 38.6526 89.0391 38.9793C88.7692 39.3142 88.409 39.5578 88.0048 39.679L87.9937 39.7302C88.4154 39.7919 88.7969 40.0221 89.0569 40.3719C89.2907 40.7057 89.3454 41.1637 89.2212 41.7455C89.1432 42.1334 88.989 42.5006 88.7682 42.8241C88.5537 43.132 88.2833 43.3935 87.9723 43.5942C87.6396 43.8067 87.2761 43.9628 86.8958 44.0562C86.4758 44.1612 86.045 44.213 85.613 44.2104H83.0266ZM84.2347 43.3632H85.6455C86.2432 43.3886 86.8368 43.249 87.3655 42.9587C87.5855 42.8257 87.7753 42.6451 87.9218 42.4291C88.0684 42.2131 88.1684 41.9669 88.2148 41.7072C88.3262 41.1854 88.2184 40.8024 87.8909 40.5582C87.5637 40.3142 87.0411 40.1922 86.3233 40.1923H84.9124L84.2347 43.3632ZM85.088 39.3707H86.2884C86.9814 39.3707 87.5071 39.2466 87.8655 38.9985C88.0371 38.8842 88.1852 38.7357 88.301 38.5617C88.4168 38.3876 88.4981 38.1913 88.5401 37.9843C88.6444 37.4965 88.5597 37.1499 88.2858 36.9446C88.012 36.7391 87.5574 36.6364 86.9223 36.6366H85.6723L85.088 39.3707Z" fill="black"/>
		<path d="M93.8843 44.3644C93.4204 44.3757 92.961 44.27 92.5454 44.0561C92.1699 43.8564 91.8557 43.5518 91.638 43.1768C91.4007 42.753 91.2589 42.2791 91.2229 41.7905C91.1746 41.1771 91.2209 40.5596 91.3599 39.9612C91.4895 39.3271 91.7056 38.7155 92.0019 38.1448C92.2639 37.6386 92.6023 37.1793 93.0043 36.784C93.376 36.4205 93.8093 36.1311 94.2822 35.9304C94.7484 35.7337 95.2464 35.6334 95.75 35.6351C96.213 35.6241 96.6723 35.7275 97.0901 35.9369C97.4655 36.1318 97.7823 36.4291 98.0077 36.7968C98.2501 37.2096 98.3963 37.6757 98.434 38.1577C98.4849 38.7623 98.4397 39.3713 98.3029 39.9612C98.1718 40.5993 97.9549 41.2152 97.6578 41.7905C97.3938 42.3058 97.0514 42.7738 96.644 43.1769C96.2687 43.5474 95.832 43.8453 95.3548 44.0561C94.8899 44.2609 94.3891 44.3657 93.8843 44.3644ZM94.0845 43.4273C94.4429 43.4283 94.7975 43.3448 95.1209 43.1833C95.4614 43.0106 95.7679 42.7733 96.0244 42.4839C96.3149 42.158 96.5582 41.7905 96.7468 41.3926C96.9637 40.938 97.1241 40.4572 97.2259 39.9612C97.3325 39.4992 97.3759 39.0239 97.3542 38.5493C97.341 38.1789 97.2523 37.8158 97.0939 37.4837C96.9552 37.2038 96.743 36.9702 96.4828 36.8097C96.1979 36.6446 95.8754 36.5626 95.55 36.572C95.1917 36.5709 94.839 36.652 94.5145 36.8097C94.1781 36.9755 93.8735 37.204 93.616 37.4837C93.3266 37.7993 93.085 38.1586 92.8994 38.5493C92.6844 38.9973 92.5248 39.4717 92.4244 39.9612C92.3164 40.4297 92.2717 40.9114 92.2917 41.3926C92.3055 41.7704 92.3925 42.1416 92.5473 42.4839C92.6798 42.7728 92.89 43.0158 93.1527 43.1833C93.4354 43.3527 93.7581 43.4372 94.0845 43.4273Z" fill="black"/>
		<path d="M102.72 44.3644C102.256 44.3757 101.797 44.27 101.381 44.0561C101.006 43.8564 100.692 43.5518 100.474 43.1768C100.236 42.753 100.095 42.2791 100.059 41.7905C100.011 41.1771 100.057 40.5596 100.196 39.9612C100.326 39.3271 100.542 38.7155 100.838 38.1448C101.1 37.6386 101.439 37.1793 101.84 36.784C102.212 36.4205 102.645 36.1311 103.118 35.9304C103.584 35.7337 104.083 35.6334 104.586 35.6351C105.049 35.6241 105.508 35.7275 105.926 35.9369C106.301 36.1318 106.618 36.4291 106.844 36.7968C107.086 37.2096 107.232 37.6757 107.271 38.1577C107.321 38.7623 107.276 39.3713 107.139 39.9612C107.008 40.5993 106.791 41.2152 106.494 41.7905C106.23 42.3058 105.887 42.7738 105.48 43.1769C105.104 43.5474 104.668 43.8453 104.191 44.0561C103.726 44.2609 103.225 44.3657 102.72 44.3644ZM102.92 43.4273C103.28 43.4283 103.633 43.3448 103.957 43.1833C104.297 43.0106 104.604 42.7733 104.861 42.4839C105.151 42.158 105.394 41.7905 105.583 41.3926C105.8 40.938 105.96 40.4572 106.062 39.9612C106.168 39.4992 106.212 39.0239 106.191 38.5493C106.177 38.1789 106.088 37.8158 105.93 37.4837C105.791 37.2038 105.58 36.9702 105.319 36.8097C105.034 36.6446 104.711 36.5626 104.386 36.572C104.028 36.5709 103.675 36.652 103.351 36.8097C103.014 36.9755 102.709 37.204 102.452 37.4837C102.163 37.7993 101.921 38.1586 101.736 38.5493C101.521 38.9973 101.36 39.4717 101.26 39.9612C101.152 40.4297 101.108 40.9114 101.127 41.3926C101.142 41.7704 101.228 42.1416 101.383 42.4839C101.516 42.7728 101.726 43.0158 101.989 43.1833C102.271 43.3527 102.594 43.4372 102.92 43.4273Z" fill="black"/>
		<path d="M108.594 44.2105L110.394 35.7896H111.421L110.519 40.0127H110.555L114.836 35.7896H116L112.777 38.9986L114.597 44.2105H113.445L111.955 39.8329L110.192 41.5404L109.622 44.2105H108.594Z" fill="black"/>
	</g>
	<defs>
		<clipPath id="clip0_5629_995">
			<rect width="116" height="45" fill="white"/>
		</clipPath>
	</defs>
</svg>