<?xml version="1.0" ?>
<svg xmlns="http://www.w3.org/2000/svg" viewBox="0 0 115 25" fill="none">
	

	<g clip-path="url(#clip0)">
		

		<path fill-rule="evenodd" clip-rule="evenodd" d="M45.724 0.0185547V19.0229H41.385V16.8767C40.3383 18.4398 38.7079 19.3293 36.5847 19.3293C32.6774 19.3293 29.5687 15.8045 29.5687 11.4824C29.5687 7.16042 32.6774 3.66694 36.5847 3.66694C38.7079 3.66694 40.3383 4.55641 41.385 6.11951V0.0185547H45.724ZM41.385 11.4824C41.385 9.39888 39.7232 7.77312 37.6 7.77312C35.5083 7.77312 33.815 9.42848 33.815 11.4824C33.815 13.566 35.5083 15.1917 37.6 15.1917C39.7232 15.1917 41.385 13.5973 41.385 11.4824ZM28.494 11.5138C28.494 15.989 25.0777 19.3293 20.6479 19.3293C16.1866 19.3293 12.8017 15.989 12.8017 11.5138C12.8017 7.03857 16.1866 3.66695 20.6479 3.66695C25.0777 3.66695 28.494 7.03857 28.494 11.5138ZM17.0463 11.5138C17.0463 13.5973 18.5841 15.1917 20.6461 15.1917C22.6767 15.1917 24.2459 13.5973 24.2459 11.5138C24.2459 9.36756 22.6767 7.80446 20.6461 7.80446C18.5858 7.80446 17.0463 9.36756 17.0463 11.5138ZM63.0763 19.0229V3.9733H58.7373V6.11951C57.6906 4.55642 56.0602 3.66695 53.9371 3.66695C50.0297 3.66695 46.921 7.16042 46.921 11.4824C46.921 15.8045 50.0297 19.3293 53.9371 19.3293C56.0602 19.3293 57.6906 18.4398 58.7373 16.8767V19.0229H63.0763ZM54.9523 7.77313C57.0755 7.77313 58.7373 9.39889 58.7373 11.4824C58.7373 13.5973 57.0755 15.1917 54.9523 15.1917C52.8606 15.1917 51.1673 13.566 51.1673 11.4824C51.1673 9.42848 52.8606 7.77313 54.9523 7.77313ZM75.686 3.9733L72.3326 12.7705L68.9775 3.9733H64.3013L70.1168 17.7975L67.3156 24.0186H71.9622L80.364 3.9733H75.686ZM97.4577 19.0229V3.9733H93.1187V19.0229H97.4577ZM108.933 11.237L114.412 19.0229H109.18L106.317 14.9463L103.455 19.0229H98.286L103.733 11.2683L98.625 3.9733H103.857L106.349 7.52943L108.933 11.237ZM91.7802 3.97155V8.07947H88.0546V12.8314C88.0546 14.4555 89.1625 15.1604 90.6705 15.1604C91.0392 15.1604 91.4394 15.1308 91.7784 15.0386V19.0246C91.1947 19.1778 90.3018 19.2701 89.6867 19.2701C86.1184 19.2701 83.7173 16.9394 83.7173 12.8941V8.08121H80.1228L81.8441 3.97329H83.7173V0.056846H88.0563V3.97155H91.7802ZM11.6764 8.09166V3.98374H7.95253V0.0672916H3.61358V3.98374H1.7403L0.019043 8.09166H3.61358V12.9045C3.61358 16.9498 6.01459 19.2805 9.58292 19.2805C10.198 19.2805 11.091 19.1883 11.6746 19.0351V15.0508C11.3356 15.143 10.9355 15.1726 10.5667 15.1726C9.05868 15.1726 7.95079 14.4676 7.95079 12.8436V8.09166H11.6764ZM110.151 8.38061C111.596 8.38061 112.797 7.18652 112.797 5.74527C112.797 4.33535 111.596 3.13953 110.151 3.13953C108.706 3.13953 107.506 4.33535 107.506 5.74527C107.506 7.18478 108.704 8.38061 110.151 8.38061Z" fill="url(#paint0_linear)"/>
		

	</g>
	

	<defs>
		

		<linearGradient id="paint0_linear" x1="0.0190423" y1="13.5186" x2="71.1071" y2="69.0022" gradientUnits="userSpaceOnUse">
			

			<stop stop-color="#FF1368"/>
			

			<stop offset="1" stop-color="#FF1226"/>
			

		</linearGradient>
		

		<clipPath id="clip0">
			

			<rect width="114.393" height="24" fill="white" transform="translate(0.019043 0.0185547)"/>
			

		</clipPath>
		

	</defs>
	

</svg>
