<?xml version="1.0" encoding="utf-8"?>
<svg xmlns="http://www.w3.org/2000/svg" viewBox="0 0 250 213">
<path fill="#002A85" d="M1.32,142.58L1,142.31c0.68-1.73,1.36-4.05,1.64-5.5h23.93c0.27,1.45,0.96,3.73,1.59,5.5l-0.27,0.23c-3.05-2.55-6.96-3.78-9.78-3.78H17.7v12.97c0,7.05,0.05,11.42,0.09,12.88c0.05,1.09,0.5,1.55,1.46,1.91l-0.09,0.27c-1.27-0.09-3.28-0.14-4.55-0.14c-1.27,0-3.23,0.04-4.55,0.14l-0.09-0.27c1-0.41,1.41-0.82,1.46-1.91c0.05-1.46,0.09-5.82,0.09-12.88v-12.97h-0.36C8.33,138.76,4.37,140.04,1.32,142.58z M35.49,151.73c0,8.37,3.59,13.33,9.83,13.33c6.28,0,9.87-4.96,9.87-13.33c0-8.42-3.59-13.33-9.87-13.33C39.09,138.4,35.49,143.31,35.49,151.73z M28.44,151.73c0-9.51,7.51-15.7,16.88-15.7c9.42,0,16.93,6.19,16.93,15.7c0,9.51-7.51,15.7-16.93,15.7C35.95,167.43,28.44,161.24,28.44,151.73z M65.62,138.85c0.04,1.46,0.09,7.01,0.09,16.15c0,9.1,6.51,12.42,13.7,12.42c7.28,0,12.01-4.32,12.01-12.79c0-9.69,0.14-13.06,0.27-15.61c0.04-1.32,0.46-1.68,1.46-2.09l-0.09-0.27c-1.05,0.09-2.14,0.14-2.96,0.14c-0.82,0-1.96-0.05-2.87-0.14l-0.09,0.27c0.91,0.41,1.41,0.82,1.55,2.14c0.18,2.64,0.45,8.46,0.45,15.34c0,6.01-2.59,9.74-8.55,9.74c-5.64,0-8.65-2.91-8.65-8.87c0-9.42,0.04-14.97,0.09-16.43c0.04-1.09,0.45-1.55,1.41-1.91l-0.04-0.27c-1.32,0.09-3.32,0.14-4.55,0.14c-1.32,0-3.28-0.05-4.6-0.14l-0.04,0.27C65.16,137.35,65.57,137.76,65.62,138.85z M113.44,138.44c5.32,0,9.06,2.82,11.38,7.96l0.32-0.09l-0.18-6.01c-2.78-2.82-7.46-4.28-11.97-4.28c-10.06,0-17.88,6.14-17.88,15.7c0,9.46,7.83,15.7,17.75,15.7c5.59,0,10.42-2.46,13.29-6.23c0-1.86,0.05-3.82,0.09-5.37c0.05-1.09,0.5-1.55,1.46-1.91l-0.09-0.27c-1.41,0.09-3.23,0.14-4.55,0.14c-1.27,0-3.09-0.05-4.55-0.14l-0.09,0.27c1,0.41,1.41,0.82,1.46,1.91c0.05,1.55,0.09,5.6,0.09,7.51c-1.96,1.05-4.09,1.64-6.69,1.64c-6.28,0-11.19-5.41-11.19-13.24C102.07,143.68,107.16,138.44,113.44,138.44z M134.88,156.55h10.06c-1.78-3.96-3.82-8.46-5.23-11.51C138.33,148.18,136.47,152.64,134.88,156.55z M128.46,164.06c3.87-7.51,9.78-20.2,12.97-27.76h0.77c2.96,6.64,9.78,21.3,13.01,27.67c0.68,1.32,1.77,2.28,2.69,2.55l-0.05,0.27c-1.18-0.09-3.73-0.14-4.91-0.14c-1.18,0-4.51,0.04-5.6,0.14l-0.04-0.27c1.27-0.5,1.55-1.05,1.09-2.14c-0.41-1-1.32-3-2.41-5.46h-12.06c-0.86,2.14-1.59,3.91-2,5.05c-0.54,1.59-0.09,2.09,1.23,2.55l-0.05,0.27c-1.05-0.09-2.87-0.14-3.87-0.14c-1.05,0-2.37,0.04-3.32,0.14l-0.09-0.27C126.73,166.25,127.64,165.61,128.46,164.06z M158.04,166.52l0.04,0.27c1.32-0.09,3.32-0.14,6.96-0.14h12.56c0.59-1.64,1.59-3.96,2.27-5.37l-0.27-0.27c-3.28,2.55-7.28,3.64-12.24,3.64h-1.5c-0.04-2.28-0.09-5.87-0.09-12.92c0-6.42,0.05-11.42,0.09-12.88c0.05-1.09,0.46-1.55,1.41-1.91l-0.05-0.27c-1.27,0.09-3.32,0.14-4.5,0.14c-1.32,0-3.32-0.04-4.64-0.14l-0.04,0.27c1,0.41,1.36,0.82,1.41,1.91c0.04,1.46,0.09,5.78,0.09,12.88c0,7.05-0.05,11.42-0.09,12.88C159.4,165.7,159.04,166.11,158.04,166.52z M185.98,151.73c0,8.37,3.59,13.33,9.83,13.33c6.28,0,9.87-4.96,9.87-13.33c0-8.42-3.59-13.33-9.87-13.33C189.57,138.4,185.98,143.31,185.98,151.73z M178.92,151.73c0-9.51,7.51-15.7,16.88-15.7c9.42,0,16.93,6.19,16.93,15.7c0,9.51-7.51,15.7-16.93,15.7C186.43,167.43,178.92,161.24,178.92,151.73z M222.24,151.73c0,8.37,3.59,13.33,9.83,13.33c6.28,0,9.87-4.96,9.87-13.33c0-8.42-3.6-13.33-9.87-13.33C225.84,138.4,222.24,143.31,222.24,151.73z M215.19,151.73c0-9.51,7.51-15.7,16.88-15.7c9.42,0,16.93,6.19,16.93,15.7c0,9.51-7.51,15.7-16.93,15.7C222.7,167.43,215.19,161.24,215.19,151.73z M32.26,202.41c0,4.95,3.37,8.27,7.43,8.27c3.48,0,5.52-1.06,7.05-3.26l0.16,0.05l-0.05,1.74c-1.66,1.69-4.46,2.58-7.16,2.58c-5.61,0-10.48-3.7-10.48-9.39c0-5.71,4.87-9.39,10.48-9.39c2.69,0,5.5,0.87,7.16,2.56l0.11,2.88l-0.19,0.05c-1.28-2.69-3.59-4.38-7.07-4.38C35.63,194.14,32.26,197.43,32.26,202.41z M70.38,194.14c-4.35,0-6.91,3.1-6.91,8.27c0,5.14,2.56,8.27,6.91,8.27c4.35,0,6.91-3.13,6.91-8.27C77.3,197.24,74.74,194.14,70.38,194.14z M70.38,193.02c5.31,0,9.96,3.67,9.96,9.39c0,5.69-4.65,9.39-9.96,9.39c-5.3,0-9.96-3.7-9.96-9.39C60.43,196.69,65.08,193.02,70.38,193.02z M94.77,211.28l0.03,0.14c0.68-0.05,1.55-0.08,3.21-0.08h8c0.3-0.74,0.84-1.93,1.14-2.53l-0.14-0.11c-1.99,1.42-4.06,1.8-7.35,1.8H98.5c-0.03-1.77-0.05-3.87-0.05-8.08c0-4.24,0.03-6.88,0.05-7.75c0.03-0.65,0.3-0.87,0.84-1.12l-0.03-0.14c-0.65,0.06-1.58,0.08-2.23,0.08c-0.74,0-1.61-0.03-2.29-0.08l-0.03,0.14c0.57,0.27,0.82,0.46,0.84,1.12c0.03,0.87,0.05,3.51,0.05,7.75c0,4.22-0.03,6.89-0.05,7.76C95.59,210.84,95.34,211.01,94.77,211.28z M120.08,211.28l0.03,0.14c0.68-0.05,1.55-0.08,3.21-0.08h8c0.3-0.74,0.84-1.93,1.14-2.53l-0.14-0.11c-1.99,1.42-4.05,1.8-7.35,1.8h-1.17c-0.03-1.77-0.05-3.87-0.05-8.08c0-4.24,0.03-6.88,0.05-7.75c0.03-0.65,0.3-0.87,0.84-1.12l-0.03-0.14c-0.65,0.06-1.58,0.08-2.23,0.08c-0.74,0-1.61-0.03-2.29-0.08l-0.03,0.14c0.57,0.27,0.82,0.46,0.84,1.12c0.03,0.87,0.05,3.51,0.05,7.75c0,4.22-0.03,6.89-0.05,7.76C120.9,210.84,120.66,211.01,120.08,211.28z M145.4,211.28l0.03,0.14c0.68-0.05,1.55-0.08,2.26-0.08h9.99c0.3-0.74,0.85-1.93,1.14-2.53l-0.14-0.11c-1.99,1.42-5.14,1.8-8.46,1.8h-1.09c-0.03-0.9-0.06-4.08-0.06-7.86c5.39,0.05,6.07,0.22,6.37,1.41l0.14-0.03c-0.08-0.63-0.11-1.09-0.11-1.88c0-0.76,0.03-1.22,0.11-1.88l-0.14-0.03c-0.3,1.12-0.98,1.39-6.37,1.44c0-3.56,0.03-6.2,0.06-7.29c0.65-0.05,1.31-0.05,1.9-0.05c2.5,0,4.63,0.33,6.4,1.91l0.19-0.14c-0.35-0.76-0.68-1.85-0.87-2.61h-9.06c-0.71,0-1.58-0.03-2.26-0.08l-0.03,0.14c0.57,0.27,0.82,0.46,0.84,1.12c0.03,0.87,0.05,3.51,0.05,7.75c0,4.22-0.03,6.89-0.05,7.76C146.21,210.82,145.97,211.01,145.4,211.28z M182.49,194.14c3.48,0,5.82,1.69,7.1,4.38l0.16-0.05l-0.11-2.89c-1.66-1.69-4.46-2.56-7.16-2.56c-5.61,0-10.48,3.67-10.48,9.39c0,5.69,4.87,9.39,10.48,9.39c3.26,0,6.12-1.47,7.84-3.94c0-1.09,0.03-2.2,0.05-3.05c0.03-0.65,0.3-0.87,0.84-1.12l-0.03-0.14c-0.65,0.06-1.58,0.08-2.26,0.08c-0.71,0-1.58-0.03-2.26-0.08l-0.03,0.14c0.57,0.27,0.82,0.46,0.84,1.12c0.03,0.84,0.06,3.4,0.06,4.57c-1.55,0.87-3.16,1.31-5.06,1.31c-3.97,0-7.43-3.37-7.43-8.27C175.06,197.43,178.57,194.14,182.49,194.14z M204.7,193.4l-0.03,0.14c0.57,0.27,0.82,0.46,0.84,1.11c0.03,0.87,0.05,3.51,0.05,7.76c0,4.22-0.03,6.88-0.05,7.75c-0.03,0.65-0.27,0.84-0.84,1.12l0.03,0.14c0.68-0.05,1.55-0.08,2.26-0.08h9.99c0.3-0.73,0.84-1.93,1.14-2.53l-0.14-0.11c-1.99,1.42-5.14,1.8-8.46,1.8h-1.09c-0.03-0.9-0.05-4.08-0.05-7.86c5.39,0.05,6.07,0.22,6.37,1.41l0.14-0.03c-0.08-0.63-0.11-1.09-0.11-1.88c0-0.76,0.03-1.22,0.11-1.88l-0.14-0.03c-0.3,1.12-0.98,1.39-6.37,1.44c0-3.56,0.03-6.2,0.05-7.29c0.65-0.05,1.31-0.05,1.9-0.05c2.5,0,4.63,0.33,6.4,1.91l0.19-0.14c-0.35-0.76-0.68-1.85-0.87-2.61h-9.06C206.25,193.48,205.38,193.46,204.7,193.4z"/>
<path fill="#AD1D20" d="M115.68,183.51c0.14,0.17,0.4,0.27,0.79,0.29c0.05,0.17,0.07,0.37,0.07,0.62c-0.56-0.03-1.13-0.04-1.72-0.04c-0.63,0-1.2,0.01-1.72,0.04c0-0.25,0.02-0.46,0.07-0.62c0.37-0.02,0.63-0.12,0.78-0.29c0.15-0.17,0.22-0.5,0.22-0.97v-3.56c0-0.47-0.07-0.8-0.2-0.97c-0.14-0.17-0.4-0.27-0.8-0.29c-0.05-0.19-0.07-0.4-0.07-0.62c0.46,0.03,1.04,0.04,1.72,0.04c0.69,0,1.26-0.01,1.72-0.04c0,0.22-0.02,0.43-0.07,0.62c-0.39,0.02-0.65,0.12-0.79,0.29c-0.14,0.17-0.21,0.5-0.21,0.97v3.56C115.47,183.01,115.54,183.33,115.68,183.51z M123.95,182.59c0,1.63-1.44,2.26-2.88,2.26c-1.31,0-2.71-0.54-2.71-2.06c0-1.33,0.87-2.04,1.93-2.67c-0.75-0.5-1.56-1.15-1.56-2.14c0-1.39,1.09-1.99,2.36-1.99c1.16,0,2.5,0.44,2.5,1.82c0,1.03-0.74,1.59-1.59,2.06C122.97,180.53,123.95,181.3,123.95,182.59z M121.48,179.55c0.61-0.39,0.86-0.82,0.86-1.55c0-0.74-0.39-1.38-1.19-1.38c-0.69,0-1.14,0.44-1.14,1.14C120.01,178.68,120.77,179.11,121.48,179.55z M122.64,182.86c0-1.11-1.03-1.85-1.86-2.41c-0.85,0.63-1.19,1.16-1.19,2.23c0,1,0.7,1.55,1.66,1.55C122.09,184.23,122.64,183.73,122.64,182.86z M131.02,181.82c0,1.68-1.17,3.03-2.89,3.03c-2.14,0-3.02-1.42-3.02-3.41c0-2.27,0.94-3.98,2.74-4.86c0.78-0.36,1.57-0.56,2.38-0.6c0.05,0.05,0.08,0.11,0.1,0.17c0.02,0.06,0.03,0.14,0.03,0.25c-1.16,0.24-2.05,0.63-2.67,1.18c-0.62,0.55-1.01,1.36-1.18,2.44c0.61-0.4,1.19-0.71,1.93-0.71C130.04,179.31,131.02,180.22,131.02,181.82z M129.8,182.33c0-0.79-0.2-1.35-0.6-1.69c-0.4-0.34-0.85-0.51-1.36-0.51c-0.53,0-0.94,0.16-1.39,0.44c-0.02,0.35-0.03,0.62-0.03,0.82c0,0.69,0.1,1.24,0.3,1.66c0.29,0.61,0.79,1.15,1.52,1.15C129.34,184.19,129.8,183.26,129.8,182.33z M137.68,179.45c0,2.01-1.12,3.65-2.86,4.6c-0.8,0.44-1.57,0.7-2.3,0.8c-0.05-0.07-0.09-0.14-0.1-0.21c-0.02-0.07-0.03-0.16-0.03-0.26c1.14-0.43,2.04-0.94,2.69-1.53c0.65-0.59,1.07-1.3,1.26-2.12c-0.53,0.45-1.1,0.68-1.8,0.68c-1.46,0-2.69-0.98-2.69-2.49c0-1.75,1.18-2.92,2.92-2.92C137,175.99,137.68,177.45,137.68,179.45z M136.48,179.54c0-1.25-0.27-2.97-1.87-2.97c-1.01,0-1.52,0.99-1.52,1.89c0,0.81,0.21,1.37,0.62,1.67c0.41,0.3,0.91,0.45,1.47,0.45c0.51,0,0.93-0.16,1.27-0.47C136.47,179.86,136.48,179.68,136.48,179.54z M104.52,180.43H30v-0.33h74.52V180.43z M218.09,180.1h-71.3v0.33h71.3V180.1z M108.9,75.16l5.71,1.14v6.28l-5.71-0.86V75.16z M110.11,67.12l1.36-1.36v-2.55L110.11,67.12z M108.13,65.75c-0.27-2.49,0.96-4.67,2.74-4.86c1.78-0.19,3.43,1.68,3.7,4.17c0.27,2.49-0.96,4.67-2.74,4.86C110.05,70.11,108.4,68.24,108.13,65.75z M103.83,56.69l-7.01,1.54l7.01-2.42c0,0,14.4,3.58,14.4,3.58l2.51,32.18c-0.81-0.27-1.62-0.55-2.45-0.85c-4.33-1.57-9.27-3.68-14.46-6.51V56.69z M88.77,56.53v-2.46l2.95-1.17l-0.03,2.43L88.77,56.53z M96.62,49.82c0-0.96,0.68-1.78,1.53-1.78c0.86,0,1.54,0.71,1.54,0.71v3.28l-3.03,1.11C96.66,53.14,96.62,50.78,96.62,49.82z M96.12,36.3l7.07-5.05V14.71l13.85,22.48l-13.85-3.5C103.19,33.69,96.12,36.3,96.12,36.3z M118.47,55.41l-6.55-1.53c0.01-0.76,0.02-2.46,0.02-4.76c0-3.16-1.77-4.66-2.68-4.66c-0.91,0-2.43,0.27-2.43,3.99v1.15c0.33-1.61,1.64-2.26,2.94-2.06c0,0,0.88,0.51,0.88,2.03v4.01l-7.25-1.7V38.04l10.71,2.21l0.03,11.52l4.36,0.88L118.47,55.41z M121.98,53.35v-3.49l-4.57-0.94v-7.34l4.39-3.32L103.95,9.93l-0.03-3.41l1.8,0.63l-0.04-1.76l-1.78-0.68l-0.03-2.57l-1.82-0.94V4l-2.03-0.78l-0.05,1.92l2.08,0.73v4.15L85.76,39.78l4.9,2.99v6.84l-4.93,1.86v3.32l-5.94,2.15l6.96,4.4l-3.04,59.08h19.38l0.67-27.6l16.99,8.54l1.9,19.06h3.35l-4.33-60.29l6.12-5.58L121.98,53.35z M75.17,88.64H65.6v-7.89L75.17,88.64z M76.43,79.56v7.57l-9.18-7.57H76.43z M76.43,99.82h-9.48L76.43,92V99.82z M76.43,109.74l-9.65-7.96h9.65V109.74z M65.6,110.94v-7.58l9.19,7.58H65.6z M65.6,90.74h9.27l-9.27,7.64V90.74z M60.45,74.09v45.86h23.28l0.26-5.01H65.6v-2.03l15.4,0.03V75.6c0-4.63,1.4-9.09,4.07-12.93c-1.3-0.72-2.65-1.46-3.94-2.26c-3.08,4.52-4.7,9.76-4.7,15.19v2H65.6v-3.51c0-14.27,8.15-27.23,20.99-33.8l2.49-6.56C71.88,40.07,60.45,56.07,60.45,74.09z M163.3,70.82h-1.4c-4.51,0-8.98,1.32-12.77,3.75v-0.48c0-18.7-12.48-35.29-30.6-41.05l2.07,6.15c14.09,6.07,23.38,19.74,23.38,34.9v3.51h-10.82v-2c0-6.22-2.2-12.29-6.19-17.17c-1.14,0.98-2.3,1.95-3.46,2.91c3.28,4.07,5.08,9.12,5.08,14.27v37.31l15.4-0.01v2.04h-18.38l0.36,5.01l61.21,0V94.68C187.16,81.52,176.45,70.82,163.3,70.82z M133.14,79.56h9.46l-9.46,7.8V79.56z M133.14,92.06l9.4,7.76h-9.4V92.06z M133.14,101.78h9.57l-9.57,7.89V101.78z M143.96,110.94h-9.27l9.27-7.65V110.94z M143.96,98.44l-9.35-7.71h9.35V98.44z M143.96,88.64h-9.29l9.29-7.66V88.64z M182.51,115.29h-33.39V80.35c3.52-3.11,8.07-4.89,12.77-4.89h1.4c10.6,0,19.21,8.62,19.21,19.21V115.29z M154.83,93.88c0-0.81,0.51-1.52,1.25-1.73c3.29-0.94,6.42-3.3,8.04-4.67c1.55,1.4,4.54,3.75,7.99,4.69c0.8,0.22,1.38,1.01,1.38,1.89v20.59h-18.66V93.88z M176.51,94.05c0-2.09-1.45-3.94-3.54-4.51c-4.05-1.1-7.62-4.87-7.66-4.91l-1.1-1.18l-1.16,1.13c-0.04,0.04-3.98,3.84-7.89,4.96c-1.98,0.56-3.36,2.35-3.36,4.33v23.49h24.7V94.05z M165.47,86.25h-2.64v28.99h2.64V86.25z M159.95,88.8h-1.96v27.88h1.96V88.8z M170.22,88.8h-1.96v27.88h1.96V88.8z M153.32,104.22h22.08v-1.77h-22.08V104.22z M190.41,116.7v-0.87h3.12v0.87h-1.04v2.98h-1.04v-2.98H190.41z M197.94,117.04l-0.88,2.64h-0.93l-0.88-2.64h-0.02v2.64h-0.99v-3.85h1.57l0.77,2.32h0.02l0.77-2.32h1.57v3.85h-0.99v-2.64H197.94z"/>
</svg>