<?xml version="1.0" ?>
<svg xmlns="http://www.w3.org/2000/svg" fill="none" viewBox="0 0 337 72">
	<path fill="#E9892E" d="M95.743 56.486c-2.229.428-4.543-.086-6.514-1.286a8.967 8.967 0 0 1-4.029-7.457.86.86 0 0 1 .857-.857c.429 0 .857.428.857.857 0 .6.086 1.114.172 1.714.514 2.229 2.143 4.114 4.371 4.972 3.943-13.886-4.2-28.372-18.086-32.229-13.885-3.857-28.285 4.029-32.228 18-3.429 12.429 2.657 25.543 14.4 30.857.257.172.686 0 .771-.257a.547.547 0 0 0 0-.514C54 65.4 56.057 59.57 60.943 57.343c4.886-2.229 10.714-.257 12.943 4.628.6 1.286.943 2.743.943 4.2 0 1.629-.343 3.172-1.115 4.543-.085.172 0 .343.086.429a.26.26 0 0 0 .343 0c4.371-3.686 7.286-8.914 8.228-14.572-1.2-1.2-2.142-2.657-2.657-4.285C72 56.57 62.143 53.829 57.771 46.029 53.83 39 55.63 30.086 62.057 25.2c.343-.343.943-.257 1.286.086.343.343.257.943-.086 1.285-1.8 1.543-3.514 3.258-4.371 5.4-4.286 10.372 3.343 20.4 13.2 20.4a13.98 13.98 0 0 0 7.2-1.971h.085c-.085-.6-.171-1.286-.171-1.971a1.902 1.902 0 0 0-1.886-1.886.859.859 0 0 1-.857-.857.86.86 0 0 1 .857-.857A3.658 3.658 0 0 1 81 48.514c0 5.315 4.286 9.6 9.514 9.6 1.8-.085 3.686-.6 5.229-1.628ZM81.17 41.229c-1.2 0-2.142-.943-2.142-2.057 0-1.115.942-2.143 2.057-2.143 1.2 0 2.143.942 2.143 2.057.085 1.2-.858 2.143-2.058 2.143Z"/>
	<path fill="#E9892E" d="M82.543 62.743c-1.286 3.086-3.172 5.914-5.572 8.228-.085.086 0 .172.086.172 5.229-2.314 9.514-6.343 12.257-11.4-1.885-.172-3.771-.857-5.314-1.972-.343 1.715-.857 3.343-1.457 4.972Z"/>
	<path fill="#1E2935" d="M18.943 13.371h-17.4A1.536 1.536 0 0 1 0 11.828v-.342A10.572 10.572 0 0 1 10.629.857h39.685c1.2 0 2.143.943 2.143 2.143v8.314c0 1.2-.943 2.143-2.143 2.143H33.43c-.515 0-.858.343-.858.857V69c0 1.2-.942 2.143-2.057 2.143h-8.571c-1.2 0-2.143-.943-2.143-2.143V14.228c0-.428-.343-.77-.857-.857Zm75.771 7.715h9.943c.857 0 1.629.514 1.972 1.371l12 30.857c.085.257.342.343.514.343.257 0 .428-.171.514-.343l9.943-25.2c1.629-4.2 5.743-6.943 10.2-6.943h3.771c1.2 0 2.143.943 2.143 2.143 0 .257-.085.6-.171.857L126 69.857a2.165 2.165 0 0 1-1.971 1.286h-9.943a2.167 2.167 0 0 1-1.972-1.286L92.743 24.086c-.429-1.115.086-2.315 1.114-2.743.343-.172.6-.257.857-.257Zm149.057-8.572c-1.371-1.371-2.228-3.257-2.142-5.228 0-1.972.771-3.772 2.142-5.143A7.395 7.395 0 0 1 249 0c1.971 0 3.771.771 5.143 2.143 1.371 1.371 2.143 3.171 2.143 5.143a7.394 7.394 0 0 1-2.143 5.228c-1.372 1.372-3.172 2.229-5.143 2.143a6.743 6.743 0 0 1-5.229-2.143Zm.858 8.572h8.571c1.2 0 2.143.943 2.143 2.143V69c0 1.2-.943 2.143-2.143 2.143h-8.571c-1.2 0-2.143-.943-2.143-2.143V23.229c0-1.115.943-2.143 2.143-2.143Zm-17.058 38.057c-2.142 0-3.771-.514-4.628-1.543-1.114-1.114-1.629-2.914-1.629-5.486V32.486c0-.172.172-.343.343-.343h2.4c5.229 0 9.514-4.286 9.514-9.514 0-.772-.685-1.458-1.457-1.458h-10.8V18a10.937 10.937 0 0 0-10.971-10.971 1.902 1.902 0 0 0-1.886 1.885v45.6c0 5.4 1.543 9.6 4.629 12.515 1.457 1.371 3.171 2.485 5.057 3.085 2.228.772 4.543 1.115 6.857 1.115h6.771c1.2 0 2.143-.943 2.143-2.143v-7.8c0-1.2-.943-2.143-2.143-2.143h-4.2ZM174.857 72c-12.6-.343-22.543-11.057-22.543-23.743V23.143a1.94 1.94 0 0 1 1.972-1.972h8.914c1.029 0 1.886.858 1.886 1.886v25.457C165 54 169.114 58.63 174.514 59.23c5.743.514 10.886-3.686 11.4-9.429 0-.343.086-.686.086-1.029v-16.8c0-6 4.886-10.885 10.886-10.885 1.028 0 1.885.857 1.885 1.885v25.8C198.771 61.63 188.314 72 175.543 72h-.686Zm92.62-1h14.868v-2.148h-12.477V44.818h-2.391V71Zm20.25-26.182V71h2.25V49.868h.205L299.016 71h2.173l8.834-21.132h.204V71h2.25V44.818h-2.761l-9.499 22.807h-.23l-9.498-22.807h-2.762Zm45.927 6.546h2.314c-.179-3.976-3.618-6.917-8.489-6.917-4.832 0-8.552 2.902-8.552 7.121 0 3.362 2.378 5.472 6.481 6.686l3.132.92c3.248.947 5.472 2.161 5.472 4.833 0 3.145-2.851 5.254-6.763 5.254-3.528 0-6.289-1.7-6.545-4.806h-2.455c.282 4.142 3.657 6.993 9 6.993 5.676 0 9.077-3.21 9.077-7.402 0-4.347-3.784-6.086-7.108-7.019l-2.761-.793c-2.544-.715-5.216-2.007-5.216-4.768 0-2.813 2.518-4.87 6.174-4.87 3.465 0 5.945 1.853 6.239 4.768Z"/>
</svg>