<?xml version="1.0" ?>
<svg xmlns="http://www.w3.org/2000/svg" viewBox="0 0 1549 532">
	<style>.a{fill:#102d50}</style>
	<path fill-rule="evenodd" class="a" d="m574.3 492.8v2.4h-45.9v-2.4c10.7-0.7 15.3-3.1 15.3-12.7v-93.6h-13.8c-15.1 0-23.8 9-27.6 25.6h-2.4l4.4-30.3h94.1l4.4 30.3h-2.4c-3.9-16.6-12.6-25.6-27.7-25.6h-13.7v93.6c0 9.6 4.4 12 15.3 12.7zm80.8 0v2.4h-42.8v-2.4c6.8-1.2 12.2-2.9 12.2-10.4v-56.7c0-5.7-2.7-8.5-9-8.8h-3.9v-2.4l24.7-6.9h2.3v23.6c5.8-15.3 14.7-23.6 24.3-23.6 2.2 0 4.6 0.3 7 1.5l-0.8 13.6c-2.6-1.6-5.7-2.2-9.1-2.2-8.1 0-16.3 5.2-21.4 15.6v46.3c0 7.5 5.1 9.2 16.5 10.4zm24.1-16.6c0-16.9 11.4-24.8 37.9-30.3l13.3-2.7v-5.4c0-15.8-7.5-25.5-19.9-25.5-13.9 0-20.7 13.9-15.1 26l-12.6 4.2c-9-17.8 7.3-34.9 30.8-34.9 19 0 30.9 11.7 30.9 30.5v41.3c0 6.1 2.9 8.5 8.8 8.8l4.1 0.2v2.4l-24.1 6.9h-2.4l-0.5-22.9c-2.8 13.1-15.1 22.9-28.2 22.9-13.4 0-23-9-23-21.5zm29.9 12.2c9.2 0 21.3-10 21.3-24.1v-16.2l-12.8 2.6c-16.1 3.2-23.8 10.2-23.8 21.9 0 9.2 6.3 15.8 15.3 15.8zm55.2-33c0-31.5 18.6-47.8 38.9-47.8 9.4 0 17.9 4.4 22.6 11v-25.1c0-6-2.8-8.5-8.8-8.8h-4.1v-2.4l24.7-7h2.3v104.1c0 6.1 2.9 8.5 8.9 8.8l4 0.2v2.4l-24.1 6.9h-2.4l-0.5-21c-4.6 12.9-15.4 21-27.1 21-20.9 0-34.4-19-34.4-42.3zm40 32.5c9.5 0 18-6.6 21.5-16.7v-31.7c0-12.6-7.3-26.3-22.9-26.3-13.6 0-23.4 16.1-23.4 35.8 0 18.3 7.3 38.9 24.8 38.9zm55.5-33.5c0-27.8 16.3-46.8 40.4-46.8 20.8 0 32.3 15.4 32.5 37.1h-58.3c-0.1 1.1-0.1 2.3-0.1 3.3-0.9 23.1 12.2 37.5 31.7 37.5 12.1 0 20-6.8 24.8-14.4l1.9 0.8c-3.9 14.4-16.5 25.6-34 25.6-24.3 0-38.9-18.8-38.9-43.1zm57.4-14.4c-0.3-13.9-7.4-27.7-19.5-27.7-12.2 0-20.4 11.7-22.8 27.7zm43.7 50.8c-6.3-3.1-8.7-8-8.7-12.6 0-6.6 4.1-12.9 11.4-17-8.3-4.9-13.9-13.2-13.9-24.1 0-17 13.6-29.5 34.3-29.5q8.1 0 14.8 2.5h26.4v4.8h-17.8c6.8 5.2 10.9 13.1 10.9 22.2 0 16.8-13.8 29.2-34.3 29.2-6.6 0-12.9-1.3-18.2-4.1-3.4 2.9-5.3 6.6-5.3 9.7 0 3.8 3.6 8.8 12.1 9.4l26.8 1.8c15.7 1.2 26.5 7.2 26.5 21.2 0 16.5-18.6 26.9-45 26.9-22.2 0-36.7-8.3-36.7-20.2 0-11.4 8.9-17.7 16.7-20.2zm25 36c16.9 0 30.5-7 30.5-17 0-7-4.6-13.1-18.8-14.3l-25.3-1.9c-3.3-0.3-6.2-0.8-8.5-1.5-2.9 2.7-7.3 6.8-7.3 13.6 0 13.1 12.5 21.1 29.4 21.1zm-21.3-92.4c0 16 8.5 27 20.6 27 10.8 0 18.1-8.8 18.1-21.7 0-15.8-8.3-27.2-20.5-27.2-10.7 0-18.2 9-18.2 21.9zm75.3 41.8c0-16.9 11.3-24.8 37.8-30.3l13.3-2.7v-5.4c0-15.8-7.5-25.5-19.9-25.5-13.9 0-20.7 13.9-15.1 26l-12.6 4.2c-9-17.8 7.3-34.9 30.8-34.9 19 0 30.9 11.7 30.9 30.5v41.3c0 6.1 2.9 8.5 8.8 8.8l4.1 0.2v2.4l-24.1 6.9h-2.4l-0.5-22.9c-2.7 13.1-15.1 22.9-28.2 22.9-13.4 0-22.9-9-22.9-21.5zm29.9 12.2c9.1 0 21.2-10 21.2-24.1v-16.2l-12.8 2.6c-16.1 3.2-23.7 10.2-23.7 21.9 0 9.2 6.2 15.8 15.3 15.8zm78.4-78.3h25.2v4.8h-25.2v59.6c0 9.3 4.6 15.2 13.3 15.2 5.9 0 8.7-2.5 11-4.5l1.2 0.8c-2.2 4.8-8 11.7-19.5 11.7-12.4 0-20.1-8.3-20.1-22.9v-59.9h-9.3v-2.4l21.1-20h2.3zm33.5 44.3c0-27.9 16.3-46.9 40.4-46.9 20.7 0 32.3 15.5 32.5 37.2h-58.3c-0.2 1-0.2 2.2-0.2 3.2-0.8 23.1 12.3 37.6 31.8 37.6 12.1 0 20-6.9 24.8-14.5l1.9 0.9c-3.9 14.4-16.5 25.6-34 25.6-24.3 0-38.9-18.9-38.9-43.1zm57.4-14.5c-0.3-13.9-7.5-27.6-19.5-27.6-12.2 0-20.4 11.7-22.8 27.6zm189.2 52.8v2.4h-43.6v-2.4c11.5-0.8 13.4-3.9 8.8-14.1l-9-20.8h-48.6l-8.8 20.8c-4.4 10.2-2.4 13.3 9.3 14.1v2.4h-31.4v-2.4c8.8-0.8 12.6-3.9 17-14.1l42.5-99.4h2.7l43.5 99.4c4.6 10.2 8.3 13.3 17.6 14.1zm-45.8-39.7l-22.4-52.6-22.1 52.6zm50.1-11.9c0-36.5 22.2-61.9 57.6-61.9 21.2 0 38.7 9.8 43.3 24.9l-15 4.8c-3.7-14.8-15.9-25.2-30.9-25.2-22.4 0-38.5 21.8-38.4 52.7 0.2 30.7 18.7 56.2 44.2 56.2 8.3 0 17.8-2.4 23.9-8.3v-29.6c0-9.2-3.7-13.7-16.1-14.4v-2.4h46.9v2.4c-11.1 0.7-15.3 5.7-15.3 14.4v22.6c-8 11-24.1 20.4-44.8 20.4-32.7 0-55.4-25-55.4-56.6z"/>
	<path class="a" d="m261.3 340.7c-12 0-15.5-12-23.4-20.4 7.9 4.9 11.4 11.4 21.4 14.9h11.9c-3.5 1.5-5.9 5.5-9.9 5.5zm307.9-337.2c0 0-35.1 51.1-114.7 60.3-14.5-18.4-2-38.1-2-36.8 48.7 13.8 116.7-23.5 116.7-23.5zm-122.6 23.7l-118.6 0.3 57.3-11zm-1.5 38l-64.6 27.2-44.8-24.1 46.3 6.4zm-122.1 1.5l23 17.4-13.1 40.3c0 0-6.7 11.1 27.7 28.3 0.7 0-18.8 18.4 25.5 92.6l-17 14.4 7.7 22.7-4.4 8.4-14.3-29.3 11.5-15.8c0 0-27.9-56.5-20.1-90.7-6.1-3.9-29.4-10-34.4-23.9l19.1-34.4zm156.1 49.2l-1.7 12.5h27.4l-31.1 16.9 12.7 16-13.9 9.2-11.8-5.9-6.6 9.2-2.6-15.8zm22.2-51.7c0 0 22.7-5.1 36.5-1.7 13 3.2 12.3 13.1 30 16.9-0.6-0.7-17.2 29-53.3 30.2 0-0.6 31.1-9.6 38.3-26.7 0.7-0.7-7.7-2.8-19.9-12.1-10-7.6-31.6-6.6-31.6-6.6zm35.5-52c0 0-54.9-12.5-79.7 5.9-9.9-11.2-53.5-4.5-53.5-4.5 26.3-8.3 49.6-4.7 49.6-4.1 42.5-22.8 83.6 2.7 83.6 2.7zm22.1 17.3c0 0 36.3 2.1 53.9 71.4 0.9 0 33.1 7.4 48.5 63.9-0.9-0.9-21.8-57.3-65.4-57.3-6.6-61.7-37-78-37-78zm17.4 114.9l-6.6 6c0 0-7.4 52.4-32.1 85.9l12.5 3-47.8 19.8-17.2-17.5 46.7-17.5c0 0 14.4-18 22.7-71.8zm-80.9 119.2c0 0 1.9 13.8-9.9 20.4 0 0-7.9-4-7.3-3.3-17.1 33.5-44.1 29.6-44.1 29.6 41.5-9.2 36.9-49.4 36.9-49.4l6.4-0.3 0.2-13.5zm-44.1 34.9c0 0-11.1 1.9-11.1 2.6-33.6 26.3-64-4.6-64-4.6l10.6-9.2c0 0 19.3 4 18.7 4 17.5-6.3 6.5-31.6 6.5-31.6l17.8 19.7-5.3 0.7-7.2 15.8 3.1 6.5 13.8-1.9 5.2-5.3zm-127.3-210.6c0 0-20.4 1.1-40.8-23.3l7.9 1.6c5.9 7.8 32.9 21.7 32.9 21.7zm-109.4-77.7c0 0 59.9 32.3 108.6 18.5-7.9 9.2-10 21-1.9 36.8-79.7-9.2-106.7-55.3-106.7-55.3zm-28.5 218.7c-11.7-42.1 62.3-62.1 71.5 0l73.2 48.3 1.1 23.2-10.7-14.3-19.4 0.5-49.6-54.3-14.6-4.8c-7.7-41.1-45.9-35.2-51.5 1.4zm83.9 64.9l29.8 18.4 2.3 8.3 24.9-21 1.9 7.3c0 0 22.5 1.6 27.6 20 0.7 0.1 19.4 5.2 28.4 22.1-0.5-1.2 7.7 4.1 7.7 4.1v6.4l-10.6 11.8-6.7 34.9c-13.2-7.3-24.4 0.8-24.4 0.8 0 0-18.9-22.2-51.4-24 0 0 14-7.8 57.6 1.6 0.2-0.7 11.3-28.6 11.3-28.6 0 0-26.4-34.6-46.3-37.8-6.1-1-14 1.8-19.5 4.2-4.1 1.9-1.9-0.5-1.9-0.5l-4.7-2.7-11.5 4.7-5.7-3.2 3.2-9.8-24.5-1.6 17.3-8zm23.4 91.4l-40 65.7-3-20.7zm-44.9 25.2c0 0-10.4 23.3-10.5 23.3l0.1 27.9-15.1-30.6zm-23.2 4.6c0 0-10.4 23.3-10.5 23.3l0.1 27.9-15.1-30.6zm-25.6 5.5l-10.4 23.3v27.9l-15.1-30.6zm-32.4-0.8l-10.2 20.6 5 26.8-12.6-14.7 0.2-53.5zm118.8-181.6l-6.8-17.2-18.7 0.6c0 0 12-20.8 30.2-13zm-153 24.7l-16.4 55.5 20.5 45.8c-20 31.1 3.1 74.7 0.5 86.2-36.8-54.2-18.2-82-18.2-82l-16.9-35.4zm204 172.1l-4.9 6c0 0-15.6-0.7-15.2 0.8-7.5-4.6-12.5-7.8-20.8-6.2-10.2 1.9-22.6-7.4-22.6-7.4 20.6-18.7 35.6-23.9 35.6-23.9l5.4 13.8 16.9 7zm-109.7-216.9l-4.5-1c-2 11.4-18.4 22.4-26.9 27.8 4-8.9 5.5-34.3 18.5-34.3 5.4 0 8.4 5 12.9 7.5zm-37.7-29.5c-68.6-43.4-82.1-52-189.1-4.7 0 0 50.4-39.5 105.6-43.6 47.4-3.6 83.5 48.3 83.5 48.3z"/>
</svg>