<?xml version="1.0" ?>
<svg xmlns="http://www.w3.org/2000/svg" viewBox="0 0 128 128">
	<style>
		.cls0 { fill: #e9000d; }
		.cls1 { fill: #ffd100; }
		.cls2 { fill: #00a434; }
		.cls3 { fill: #4a4942; }
	</style>
	<path d="M72.28 19.91a17.71 17.71 0 11-35.42.09v-.08a17.71 17.71 0 1135.42-.09z" fill-rule="evenodd" class="cls0"/>
	<path d="M72.28 64a17.71 17.71 0 11-35.42.08V64a17.71 17.71 0 1135.42 0z" fill-rule="evenodd" class="cls1"/>
	<path d="M72.28 108.09a17.71 17.71 0 10-35.42-.09v.08a17.71 17.71 0 1035.42.09z" fill-rule="evenodd" class="cls2"/>
	<path d="M22.13 87.21a7.46 7.46 0 01-3.3-.59A3.68 3.68 0 0117.17 85a12.31 12.31 0 01-.51-4.52V52.14h9.7v-6.4h-9.7V28.8l-9.59 4.93v12H0v6.4h7.07V80c0 4.93.4 8.17 1.18 9.7a8.63 8.63 0 004.07 3.73 19 19 0 008.15 1.41 41.35 41.35 0 007.28-.73l-1.39-7.26a37.4 37.4 0 01-4.23.36z"/>
	<path d="M123.59 69.29q-4.47-3.35-15.73-5.64t-13.17-3.57a2.73 2.73 0 01-1.4-2.3 3 3 0 011.6-2.58q2.42-1.39 8-1.4a12.86 12.86 0 016.79 1.49 7.48 7.48 0 013.24 4.29l13.29-2.21a16.52 16.52 0 00-7.32-9.48q-5.33-3.21-16.25-3.21-11.49 0-17 4.25T80.19 59.4q0 6.92 6.32 10.79 4.58 2.81 21.62 6.19 3.68.77 4.72 1.67a3.14 3.14 0 011 2.39 3.92 3.92 0 01-1.85 3.39q-2.76 1.82-8.23 1.81-5 0-7.73-1.92a9.23 9.23 0 01-3.66-5.62L78.24 80a18.42 18.42 0 008.3 10.79q6.34 4 17.23 4 12 0 18.11-4.74T128 78.73a11.24 11.24 0 00-4.41-9.44z" class="cls3"/>
</svg>