<?xml version="1.0" ?>
<!-- Generator: Adobe Illustrator 28.2.0, SVG Export Plug-In . SVG Version: 6.00 Build 0)  -->
<svg xmlns="http://www.w3.org/2000/svg" version="1.2" baseProfile="tiny-ps" id="Layer_1" viewBox="0 0 330 330" xml:space="preserve">
	<path fill="#00558C" d="M83.1,142.2H77v-3.1h15.5v3.1h-6.1v16H83L83.1,142.2L83.1,142.2z M112.4,139h8.5c2.4,0,4.3,0.7,5.5,1.9  c1,1,1.6,2.5,1.6,4.1v0.1c0,3.1-1.9,5-4.6,5.8l5.2,7.3h-4l-4.6-6.7h-4.2v6.7h-3.4V139z M120.7,148.5c2.4,0,3.9-1.3,3.9-3.2v-0.1  c0-2.1-1.5-3.2-4-3.2h-4.9v6.5H120.7z M155.2,138.9h3.1l8.4,19.3h-3.6l-1.9-4.6h-9.1l-2,4.6h-3.4L155.2,138.9z M160,150.6l-3.3-7.7  l-3.3,7.7H160z M186.5,139h3.4v19.2h-3.4V139z M211.2,139h3.1l10.3,13.2V139h3.3v19.2H225l-10.6-13.6v13.6h-3.3V139H211.2z   M249.2,139h3.4v19.2h-3.4V139z M273.9,139h3.1l10.3,13.2V139h3.3v19.2h-2.8l-10.6-13.6v13.6h-3.3V139z M310.9,148.7  c0-5.4,4.1-10,9.9-10c3.3,0,5.4,0.9,7.4,2.6l-2.1,2.5c-1.5-1.3-2.9-2.1-5.4-2.1c-3.5,0-6.2,3.1-6.2,6.8v0.1c0,3.9,2.6,6.8,6.5,6.8  c1.8,0,3.4-0.6,4.6-1.5v-3.6h-4.9v-2.8h8.2v8c-1.9,1.6-4.6,3-8,3C314.8,158.5,310.9,154.3,310.9,148.7z"/>
	<path fill="#81C341" d="M78.9,171.9H81v19.2h-2.2L78.9,171.9L78.9,171.9z M102.3,171.9h2l12.1,15.4v-15.4h2.1v19.2h-1.7l-12.4-15.7  v15.7h-2.1V171.9z M139.5,171.9h6.6c6,0,10.2,4.1,10.2,9.5v0.1c0,5.4-4.2,9.6-10.2,9.6h-6.6V171.9z M146.2,189.1  c4.8,0,7.9-3.3,7.9-7.5v-0.1c0-4.2-3.1-7.6-7.9-7.6h-4.5v15.2H146.2z M176.3,183v-11.1h2.2v11c0,4.1,2.2,6.5,5.9,6.5  c3.5,0,5.8-2.1,5.8-6.3v-11.2h2.2v11c0,5.6-3.2,8.5-8,8.5C179.5,191.4,176.3,188.5,176.3,183L176.3,183z M211.7,188.3l1.3-1.6  c2,1.8,3.9,2.7,6.6,2.7c2.6,0,4.3-1.4,4.3-3.3V186c0-1.8-1-2.8-5-3.6c-4.4-1-6.4-2.4-6.4-5.5v-0.1c0-3,2.7-5.2,6.3-5.2  c2.8,0,4.8,0.8,6.7,2.4l-1.3,1.7c-1.8-1.4-3.6-2.1-5.5-2.1c-2.5,0-4.1,1.4-4.1,3.1v0.1c0,1.8,1,2.8,5.2,3.7c4.3,0.9,6.2,2.5,6.2,5.4  v0.1c0,3.3-2.7,5.4-6.5,5.4C216.5,191.3,214,190.3,211.7,188.3L211.7,188.3z M250.8,173.9h-6.4v-2h15v2H253v17.2h-2.2V173.9z   M279.1,171.9h8.2c2.4,0,4.2,0.7,5.4,1.9c0.9,0.9,1.5,2.3,1.5,3.8v0.1c0,3.2-2.2,5-5.2,5.6l5.9,7.8h-2.7l-5.6-7.4h-5.5v7.4h-2.2  v-19.2H279.1z M287.2,181.7c2.9,0,4.9-1.5,4.9-3.9v-0.1c0-2.4-1.8-3.8-4.9-3.8h-5.9v7.8H287.2z M319.8,183.5l-8-11.6h2.6l6.6,9.6  l6.5-9.6h2.5l-8,11.5v7.6h-2.2V183.5z"/>
	<path fill="#00558C" d="M48.2,151.3c-1-1-2.8-0.9-3.8,0.2c-0.5,0.5-0.7,1.2-0.7,1.9c0,0.7,0.3,1.4,0.9,1.8c6.6,6,9.2,15.1,6.8,23.7  c-1.7,6-5.6,11.1-11.1,14.2c-5.4,3.1-11.9,3.9-17.8,2.2c-12.4-3.5-19.8-16.5-16.3-28.9c1.2-4.2,3.5-8,6.7-11  c0.5-0.5,0.8-1.1,0.9-1.9c0-0.7-0.2-1.4-0.7-1.9c-1-1-2.7-1.1-3.8-0.1c-4,3.6-6.8,8.3-8.3,13.4c-4.2,15.3,4.8,31.2,20.1,35.5  c2.5,0.7,5.1,1.1,7.7,1.1c4.9,0,9.8-1.3,14.2-3.8c6.7-3.8,11.5-10,13.6-17.4C59.5,169.8,56.3,158.7,48.2,151.3"/>
	<path fill="#81C341" d="M6.5,145.4H23v17.7c0,1.4,1.2,2.6,2.6,2.6s2.6-1.2,2.6-2.6v-22.9h-2.3c-0.1,0-0.1,0-0.2,0H6.5  c-1.4,0-2.5,1.2-2.5,2.6C4.1,144.2,5.2,145.4,6.5,145.4 M31.9,140.2h-2.3V163c0,1.4,1.2,2.6,2.6,2.6c1.4,0,2.6-1.2,2.6-2.6v-17.6  h16.5c1.4,0,2.5-1.2,2.5-2.6c0-1.4-1.1-2.6-2.5-2.6H32.1C32,140.2,32,140.2,31.9,140.2 M28.8,136.7c2.3,0,4.1-1.8,4.1-4.1  c0-2.3-1.8-4.1-4.1-4.1s-4.1,1.8-4.1,4.1C24.8,134.9,26.6,136.7,28.8,136.7"/>
</svg>