<svg xmlns="http://www.w3.org/2000/svg" fill="none" viewBox="0 0 170 201"><path fill="#39D9A9" d="M98.335 60.4c8.889 6.186 19.678 9.824 31.305 9.824-19.47 0-35.31 15.84-35.31 35.309 0-11.627-3.64-22.415-9.823-31.305A55.47 55.47 0 0 1 98.335 60.4Zm-27.656 0c-8.89 6.186-19.679 9.824-31.306 9.824 19.47 0 35.31 15.84 35.31 35.309 0-11.627 3.64-22.415 9.824-31.305A55.47 55.47 0 0 0 70.679 60.4Zm13.828-13.828c-6.186-8.89-9.824-19.678-9.824-31.305 0 19.47-15.84 35.309-35.31 35.309C51 50.576 61.79 54.214 70.68 60.4a55.47 55.47 0 0 0 13.828-13.828ZM98.335 60.4c8.889-6.186 19.678-9.824 31.305-9.824-19.47 0-35.31-15.84-35.31-35.31 0 11.628-3.64 22.416-9.823 31.306A55.47 55.47 0 0 0 98.335 60.4Z" opacity=".2"/><path fill="#39D9A9" d="M39.37 50.576c-5.424 0-9.823 4.397-9.823 9.824s4.4 9.824 9.824 9.824c11.627 0 22.415-3.638 31.305-9.824-8.89-6.186-19.676-9.824-31.305-9.824ZM74.683 105.536c0 5.425 4.396 9.824 9.824 9.824 5.427 0 9.824-4.399 9.824-9.824 0-11.627-3.641-22.415-9.824-31.305-6.186 8.89-9.825 19.675-9.825 31.305ZM129.643 50.576c-11.627 0-22.416 3.638-31.306 9.824 8.89 6.186 19.679 9.824 31.306 9.824 5.424 0 9.824-4.397 9.824-9.824s-4.4-9.824-9.824-9.824ZM94.33 15.264c0-5.424-4.396-9.824-9.823-9.824-5.428 0-9.825 4.4-9.825 9.824 0 11.627 3.642 22.416 9.825 31.305 6.185-8.89 9.824-19.675 9.824-31.305Z"/><path fill="#000" d="M8.12 182.843c-2.33 0-3.495-1.165-3.495-3.495v-39.769c0-2.33 1.143-3.496 3.43-3.496 2.286 0 3.429 1.166 3.429 3.496v37.395h20.445c2.022 0 3.034.967 3.034 2.902 0 1.978-1.012 2.967-3.034 2.967H8.12ZM55.07 183.437c-5.276 0-9.431-1.473-12.465-4.419-3.034-2.99-4.55-7.057-4.55-12.201 0-3.297.659-6.199 1.978-8.706 1.363-2.55 3.231-4.528 5.606-5.935 2.374-1.407 5.1-2.111 8.178-2.111 4.44 0 7.936 1.429 10.486 4.287 2.55 2.814 3.825 6.705 3.825 11.674 0 1.495-.88 2.242-2.638 2.242H44.518c.483 6.683 4.023 10.025 10.618 10.025 1.319 0 2.704-.154 4.155-.462 1.45-.352 2.858-.967 4.22-1.847.924-.527 1.715-.703 2.375-.527.703.132 1.209.505 1.517 1.121.308.572.352 1.231.132 1.979-.176.703-.682 1.319-1.517 1.846-1.495 1.012-3.254 1.781-5.276 2.309-1.979.483-3.87.725-5.672.725Zm-.99-28.689c-2.77 0-4.968.857-6.595 2.572-1.627 1.715-2.616 4.001-2.968 6.859h18.005c-.131-2.99-.923-5.298-2.374-6.925-1.45-1.671-3.473-2.506-6.068-2.506ZM85.679 183.437c-2.243 0-4.243-.44-6.002-1.319-1.759-.879-3.166-2.067-4.22-3.561-1.012-1.495-1.518-3.188-1.518-5.079 0-2.374.594-4.243 1.781-5.606 1.231-1.363 3.232-2.352 6.002-2.967 2.814-.616 6.595-.924 11.343-.924h2.243v-1.715c0-2.506-.528-4.308-1.583-5.408-1.055-1.099-2.792-1.648-5.21-1.648-1.407 0-2.88.175-4.42.527-1.494.352-3.055.946-4.682 1.781-.923.44-1.692.506-2.308.198-.572-.308-.967-.792-1.187-1.451-.22-.66-.198-1.341.066-2.045.264-.703.813-1.231 1.649-1.583 1.934-.879 3.847-1.516 5.737-1.912 1.891-.44 3.672-.66 5.343-.66 4.396 0 7.65 1.056 9.76 3.166 2.111 2.067 3.166 5.32 3.166 9.761v16.95c0 2.242-1.033 3.363-3.1 3.363-2.11 0-3.165-1.121-3.165-3.363v-2.441c-.792 1.847-2.023 3.298-3.694 4.353-1.67 1.055-3.671 1.583-6.001 1.583Zm1.319-4.749c2.374 0 4.353-.835 5.935-2.506 1.583-1.67 2.375-3.781 2.375-6.331v-1.781H93.13c-3.21 0-5.737.154-7.584.462-1.803.308-3.1.835-3.891 1.583-.748.703-1.122 1.692-1.122 2.968 0 1.67.572 3.033 1.715 4.089 1.143 1.011 2.726 1.516 4.749 1.516ZM114.177 183.305c-2.242 0-3.363-1.121-3.363-3.363v-26.381c0-2.243 1.077-3.364 3.231-3.364 2.155 0 3.232 1.121 3.232 3.364v2.836c.879-1.979 2.198-3.496 3.957-4.551 1.803-1.055 3.979-1.671 6.529-1.847 1.627-.132 2.506.748 2.638 2.638.176 1.935-.769 2.99-2.836 3.166l-1.253.132c-5.847.572-8.771 3.583-8.771 9.035v14.972c0 2.242-1.121 3.363-3.364 3.363ZM138.714 183.305c-2.198 0-3.297-1.121-3.297-3.363v-26.381c0-2.243 1.077-3.364 3.231-3.364 2.155 0 3.232 1.121 3.232 3.364v2.44c1.099-1.935 2.594-3.408 4.485-4.419 1.934-1.011 4.089-1.517 6.463-1.517 7.607 0 11.41 4.309 11.41 12.927v16.95c0 2.242-1.099 3.363-3.298 3.363-2.242 0-3.363-1.121-3.363-3.363v-16.554c0-2.77-.55-4.793-1.649-6.068-1.055-1.275-2.726-1.913-5.012-1.913-2.683 0-4.837.858-6.464 2.573-1.583 1.67-2.374 3.891-2.374 6.661v15.301c0 2.242-1.121 3.363-3.364 3.363Z"/></svg>