<?xml version="1.0" ?>
<svg xmlns="http://www.w3.org/2000/svg" viewBox="0 0 341.003 72.06">
	<path fill="#7d00ff" d="M114.587 27.708h-8.837v-4.575h22.735v4.575h-8.88v24.43h-5.018v-24.43Zm13.126 4.003h4.719v3.636a6.022 6.022 0 0 1 5.662-3.84 9.661 9.661 0 0 1 1.845.163v4.616a7.692 7.692 0 0 0-2.36-.368c-2.7 0-5.147 2.165-5.147 6.251v9.968h-4.72V31.711Zm23.806-.407a8.71 8.71 0 0 1 6.863 3.146v-2.738h4.719v20.426h-4.72v-2.737a8.708 8.708 0 0 1-6.862 3.146c-5.866-.15-10.5-5.028-10.349-10.894a10.625 10.625 0 0 1 10.349-10.349Zm.858 4.085a6.25 6.25 0 0 0-6.391 6.536 6.393 6.393 0 1 0 12.783 0 6.25 6.25 0 0 0-6.392-6.537v.001Zm14.108-3.677h4.719v2.778a7.491 7.491 0 0 1 6.52-3.187c4.976 0 8.193 3.35 8.193 8.538v12.3h-4.72V40.577c0-3.228-1.715-5.189-4.46-5.189-3.131 0-5.534 2.33-5.534 6.7v10.05h-4.718V31.712Zm30.5 20.834c-5.02 0-8.922-2.533-9.18-6.618h4.89c.386 2.206 2.316 3.023 4.418 3.023 2.059 0 3.475-.776 3.475-2.165s-.944-2.165-3.174-2.7l-3.518-.9c-3.69-.9-5.491-3.187-5.491-6.169 0-3.43 3.174-5.719 7.979-5.719 4.633 0 7.85 2.451 8.193 6.128h-4.72a3.352 3.352 0 0 0-3.516-2.533c-1.8 0-3.131.776-3.131 2.083s1.072 2 2.874 2.451l3.6.9c3.86.94 5.7 3.064 5.7 6.17 0 3.962-3.6 6.045-8.407 6.045l.008.004Zm20.285-21.242a8.71 8.71 0 0 1 6.864 3.146v-2.738h4.719v20.426h-4.72v-2.737a8.708 8.708 0 0 1-6.862 3.146c-5.866-.15-10.5-5.028-10.349-10.894a10.625 10.625 0 0 1 10.349-10.349Zm.859 4.085a6.25 6.25 0 0 0-6.391 6.536 6.393 6.393 0 1 0 12.783 0 6.25 6.25 0 0 0-6.392-6.537v.001Zm23.806 17.157c-6.52 0-11.24-4.739-11.24-10.622s4.72-10.62 11.24-10.62c5.662 0 9.737 3.35 10.9 7.883h-4.976a6.057 6.057 0 0 0-5.92-3.8 6.216 6.216 0 0 0-6.433 6.536 6.216 6.216 0 0 0 6.434 6.536 6.056 6.056 0 0 0 5.919-3.8h4.976c-1.158 4.535-5.233 7.884-10.9 7.884v.003Zm23.378-.205c-4.118 0-7.335-2.165-7.335-6.782v-9.844h-4.461v-4h4.46v-5.682h4.719v5.678h6.134v4h-6.134v9.116c0 2.533 1.158 3.472 3.6 3.472a7.971 7.971 0 0 0 2.53-.408v4a11.966 11.966 0 0 1-3.513.45Zm28.354-19.731c0 5.352-4.29 9.477-10.552 9.477h-4.676v10.05h-5.02v-29h9.695c6.263 0 10.552 4.126 10.552 9.477v-.004Zm-4.933 0c0-2.818-2.1-4.984-5.662-4.984h-4.633v9.968h4.633c3.56 0 5.662-2.165 5.662-4.984Zm15.143-1.306a8.71 8.71 0 0 1 6.863 3.146v-2.738h4.714v20.426h-4.72v-2.737a8.708 8.708 0 0 1-6.862 3.146c-5.866-.15-10.5-5.028-10.349-10.894a10.625 10.625 0 0 1 10.349-10.349h.005Zm.858 4.085a6.25 6.25 0 0 0-6.391 6.536 6.393 6.393 0 1 0 12.783 0 6.25 6.25 0 0 0-6.393-6.537v.001Zm17.305 25.286 4.59-9.64-9.221-19.323h5.19l6.606 14.462 6.565-14.463h5.233L327.23 60.675h-5.19Z"/>
	<g fill="#7d00ff">
		<path d="M47.3 10.4a39.725 39.725 0 0 1 10.5 4.028c-1.74-1-4.68-2.646-6.494-3.58C25.635-2.38 2.768-3.692.23 7.912-1.117 14.074 3.538 22.64 12.044 31.3 16.89 16.477 31.969 7.538 47.3 10.4Zm10.5 4.021c14.656 8.957 19.277 28.098 10.32 42.754a31.099 31.099 0 0 1-3.382 4.546c15.312 3.936 26.706 2.073 28.454-5.92C95.51 45.2 80.058 27.49 57.8 14.42Z"/>
		<path d="M12.044 31.297c-5.341 16.32 3.559 33.879 19.878 39.22a31.091 31.091 0 0 0 32.815-8.789 110.107 110.107 0 0 1-22.621-8.858 120.054 120.054 0 0 1-30.072-21.573Z"/>
	</g>
</svg>