<?xml version="1.0" ?>
<svg xmlns="http://www.w3.org/2000/svg" viewBox="0 0 593 128" fill="none">
	<g clip-path="url(#clip0_1844_1165)">
		<g clip-path="url(#clip1_1844_1165)">
			<path fill-rule="evenodd" clip-rule="evenodd" d="M467.348 41.0269C467.348 25.7314 478.784 14 494.555 14C504.047 14 512.419 18.6777 516.978 26.0284L506.663 31.9685C504.346 27.9588 499.862 25.5837 494.555 25.5837C485.287 25.5837 479.307 31.7461 479.307 41.0278C479.307 50.3095 485.287 56.4716 494.555 56.4716C499.863 56.4716 504.421 54.0956 506.663 50.0869L516.978 56.0269C512.493 63.3776 504.122 68.0553 494.555 68.0553C478.784 68.0537 467.348 56.3223 467.348 41.0269ZM191.163 26.4738H177.709V67.0144H165.75V26.4738H152.296V15.0384H191.163V26.4738ZM240.196 49.9369H234.515V67.0144H222.556V15.0393H243.484C245.842 15.0337 248.177 15.4908 250.356 16.3843C252.535 17.2778 254.515 18.5902 256.182 20.2461C257.848 21.902 259.17 23.8687 260.069 26.0333C260.969 28.1979 261.429 30.5177 261.423 32.8595C261.423 39.2442 257.536 45.0362 251.781 47.9322L262.918 67.0144H250.063L240.196 49.9369ZM234.515 39.5419H243.485C246.773 39.5419 249.464 36.6459 249.464 32.8595C249.464 29.0731 246.773 26.1768 243.485 26.1768H234.515V39.5419ZM326.078 67.0151V55.5797H305.149V46.3726H323.835V35.0868H305.149V26.4747H325.703V15.0393H293.19V67.0151H326.078ZM392.602 55.5797V67.0151H361.957V15.0393H373.916V55.5797H392.602ZM435.955 67.0144V15.0393H423.995V67.0144H435.955ZM558.462 58.847H577.896L580.514 67.0147H593.592L575.803 15.0397H560.555L542.766 67.0147H555.846L558.462 58.847ZM568.179 28.6271L574.308 47.7099L562.05 47.7096L568.179 28.6271Z" fill="black"/>
		</g>
		<path d="M157.856 90.12V102.051C159.209 99.14 161.669 97.623 164.744 97.623C170.197 97.623 173.846 102.256 173.846 108.037C173.846 113.859 170.197 118.492 164.744 118.492C161.669 118.492 159.209 117.016 157.815 114.31V118H154.617V90.12H157.856ZM164.211 115.704C167.901 115.704 170.443 112.752 170.443 108.037C170.443 103.363 167.86 100.411 164.211 100.411C160.48 100.411 157.897 103.363 157.897 108.037C157.897 112.752 160.48 115.704 164.211 115.704ZM183.875 126.2H180.759L183.957 117.959L175.88 98.115H179.365L185.474 113.982L191.624 98.115H194.781L183.875 126.2ZM209.897 118V97.992H205.961V93.277C208.544 93.277 210.389 92.58 211.25 90.981H215.76V118H209.897ZM221.239 118V91.35H231.653C237.844 91.35 241.411 95.04 241.411 100.165C241.411 105.495 237.844 109.267 231.653 109.267H227.143V118H221.239ZM231.653 96.393H227.143V104.183H231.653C233.744 104.183 235.466 102.994 235.466 100.288C235.466 97.541 233.744 96.393 231.653 96.393ZM261.533 118H256.285V115.13C254.932 117.467 252.513 118.492 250.012 118.492C245.871 118.492 242.919 116.032 242.919 112.178C242.919 108.611 245.502 106.438 249.766 106.438H254.891C255.629 106.438 255.834 106.192 255.834 105.577V105.249C255.834 103.035 254.522 101.805 252.636 101.805C250.75 101.805 249.602 102.912 248.946 104.757L243.698 103.486C244.969 99.591 248.29 97.213 252.636 97.213C258.335 97.213 261.533 100.452 261.533 106.028V118ZM251.365 114.228C253.825 114.228 255.834 112.752 255.834 110.374V109.964H251.078C249.315 109.964 248.577 110.825 248.577 112.055C248.577 113.408 249.643 114.228 251.365 114.228ZM273.302 114.351C275.352 114.351 276.418 113.531 276.418 112.301C276.418 109.103 264.528 111.358 264.528 103.65C264.528 100.042 267.439 97.213 272.81 97.213C277.935 97.213 280.723 99.632 281.584 103.117L276.541 104.019C276.008 102.297 274.737 101.19 272.81 101.19C270.965 101.19 269.899 101.928 269.899 103.199C269.899 106.889 281.789 104.347 281.789 111.809C281.789 115.622 278.632 118.492 273.056 118.492C268.587 118.492 265.02 116.688 264.118 112.916L268.956 111.686C269.612 113.449 271.17 114.351 273.302 114.351ZM292.621 114.351C294.671 114.351 295.737 113.531 295.737 112.301C295.737 109.103 283.847 111.358 283.847 103.65C283.847 100.042 286.758 97.213 292.129 97.213C297.254 97.213 300.042 99.632 300.903 103.117L295.86 104.019C295.327 102.297 294.056 101.19 292.129 101.19C290.284 101.19 289.218 101.928 289.218 103.199C289.218 106.889 301.108 104.347 301.108 111.809C301.108 115.622 297.951 118.492 292.375 118.492C287.906 118.492 284.339 116.688 283.437 112.916L288.275 111.686C288.931 113.449 290.489 114.351 292.621 114.351ZM314.196 118H307.185L302.224 97.705H307.636L310.916 113.449L314.688 97.705H320.346L324.446 113.49L327.685 97.705H333.056L328.095 118H320.838L317.517 103.896L314.196 118ZM344.667 118.492C338.517 118.492 334.294 113.736 334.294 107.832C334.294 101.969 338.517 97.213 344.667 97.213C350.817 97.213 355.04 101.969 355.04 107.832C355.04 113.736 350.817 118.492 344.667 118.492ZM344.667 113.613C347.209 113.613 349.177 111.44 349.177 107.832C349.177 104.224 347.209 102.092 344.667 102.092C342.125 102.092 340.157 104.224 340.157 107.832C340.157 111.44 342.125 113.613 344.667 113.613ZM363.495 97.705V101.928C364.561 98.771 366.652 97.213 369.399 97.213C370.26 97.213 370.916 97.377 371.449 97.623L370.506 103.158C369.809 103.035 369.071 102.953 368.415 102.953C365.709 102.953 363.987 103.732 363.987 107.258V118H358.247V97.705H363.495ZM393.278 90.12V118H387.825V114.351C386.636 117.344 384.463 118.492 381.593 118.492C376.304 118.492 372.655 113.941 372.655 107.832C372.655 101.764 376.304 97.213 381.593 97.213C384.299 97.213 386.39 98.156 387.702 100.534V90.12H393.278ZM382.987 113.736C385.939 113.736 387.538 111.276 387.538 107.832C387.538 104.429 385.939 101.969 382.987 101.969C380.076 101.969 378.477 104.429 378.477 107.832C378.477 111.276 380.076 113.736 382.987 113.736Z" fill="black"/>
		<path d="M118 83.8594V69.7177H69.7178V118H83.8595L93.8591 128L103.859 118H118V103.859L128 93.859L118 83.8594ZM93.8591 108.233L79.4855 93.859L93.8591 79.4854L108.233 93.859L93.8591 108.233Z" fill="#FFBB30"/>
		<path fill-rule="evenodd" clip-rule="evenodd" d="M8.53525 93.859L32.6766 69.7177H9.99961V83.8594L0 93.859L9.99961 103.859V118H24.1414L34.141 128L44.1406 118H58.2823V95.3234L34.141 119.465L8.53525 93.859ZM34.1409 79.4826L19.7645 93.8591L34.1409 108.233L48.5149 93.8591L34.1409 79.4826ZM35.6053 69.7177H43.0351H58.2823V92.3947L35.6053 69.7177Z" fill="#6554C0"/>
		<path fill-rule="evenodd" clip-rule="evenodd" d="M118 9.9996V24.1414L128 34.1409L118 44.1405V58.2823H95.3235L119.465 34.1409L93.8591 8.53524L69.7178 32.6766V9.9996H83.8595L93.8591 0L103.859 9.9996H118ZM93.9401 19.7657L79.5648 34.141L93.9401 48.5162L108.315 34.141L93.9401 19.7657ZM69.7178 58.2823H92.3948L69.7178 35.6053V58.2823Z" fill="#C03540"/>
		<path d="M44.1406 9.9996L34.141 0L24.1414 9.9996H9.99961V24.1414L0 34.1409L9.99961 44.1405V58.2823H58.2823V9.9996H44.1406ZM34.141 48.5146L19.7673 34.1409L34.141 19.7673L48.5146 34.1409L34.141 48.5146Z" fill="#21C4BC"/>
	</g>
	<defs>
		<clipPath id="clip0_1844_1165">
			<rect width="593" height="128" fill="white"/>
		</clipPath>
		<clipPath id="clip1_1844_1165">
			<rect width="441.296" height="54.0553" fill="white" transform="translate(152.296 14)"/>
		</clipPath>
	</defs>
</svg>