<?xml version="1.0" ?>
<svg xmlns:inkscape="http://www.inkscape.org/namespaces/inkscape" xmlns:sodipodi="http://sodipodi.sourceforge.net/DTD/sodipodi-0.dtd" xmlns="http://www.w3.org/2000/svg" xmlns:svg="http://www.w3.org/2000/svg" version="1.2" baseProfile="tiny-ps" id="svg9" xml:space="preserve" viewBox="0 0 400 400">
	<g id="g15" transform="matrix(1.3333333,0,0,-1.3333333,0,1228.12)">
		<g id="g17" transform="translate(-339.00042,297.26353)">
			<g id="g25" transform="translate(398.7168,417.0968)">
				<path d="M 0,0 H 0.023 C 9.52,0 17.268,-7.747 17.268,-17.246 v -27.196 c 0,-9.498 -7.748,-17.246 -17.245,-17.246 H 0 c -9.497,0 -17.245,7.748 -17.245,17.246 v 27.196 C -17.245,-7.747 -9.497,0 0,0" fill="#00a0e8" id="path27"/>
			</g>
			<g id="g29" transform="translate(460.8398,471.1764)">
				<path d="M 0,0 H 0.021 C 9.52,0 17.267,-7.747 17.267,-17.246 v -81.276 c 0,-9.498 -7.747,-17.245 -17.246,-17.245 H 0 c -9.5,0 -17.246,7.747 -17.246,17.245 v 81.276 C -17.246,-7.747 -9.5,0 0,0" fill="#00a0e8" id="path31"/>
			</g>
			<g id="g33" transform="translate(398.7285,487.0832)">
				<path d="m 0,0 c 3.612,0 7.002,-0.947 9.939,-2.604 l 33.045,27.609 c -0.723,2.081 -1.117,4.315 -1.117,6.641 0,11.187 9.069,20.255 20.255,20.255 11.187,0 20.255,-9.068 20.255,-20.255 0,-0.581 -0.026,-1.157 -0.073,-1.726 l 27.939,-13.372 c 3.637,3.48 8.568,5.619 14.001,5.619 2.145,0 4.213,-0.335 6.154,-0.954 l 45.945,58.165 -13.951,11.711 20.407,5.072 20.406,5.072 -1.463,-20.975 -1.457,-20.976 -12.977,10.892 -45.692,-57.843 c 1.83,-3.043 2.882,-6.609 2.882,-10.418 0,-11.186 -9.067,-20.255 -20.254,-20.255 -11.186,0 -20.255,9.069 -20.255,20.255 0,0.581 0.027,1.158 0.074,1.725 l -27.94,13.373 c -3.637,-3.48 -8.569,-5.619 -14.001,-5.619 -3.611,0 -7.002,0.947 -9.938,2.604 L 19.138,-13.612 c 0.721,-2.081 1.116,-4.317 1.116,-6.643 0,-11.187 -9.067,-20.255 -20.254,-20.255 -11.187,0 -20.256,9.068 -20.256,20.255 C -20.256,-9.069 -11.187,0 0,0" fill="#00a0e8" id="path35"/>
			</g>
			<g id="g37" transform="translate(587.9678,517.6457)">
				<path d="m 0,0 h 0.023 c 9.498,0 17.246,-7.747 17.246,-17.246 v -127.745 c 0,-9.498 -7.748,-17.245 -17.246,-17.245 H 0 c -9.497,0 -17.244,7.747 -17.244,17.245 V -17.246 C -17.244,-7.747 -9.497,0 0,0" fill="#00a0e8" id="path39"/>
			</g>
			<g id="g41" transform="translate(522.9604,440.7589)">
				<path d="m 0,0 h 0.022 c 9.499,0 17.246,-7.748 17.246,-17.246 v -50.858 c 0,-9.499 -7.747,-17.246 -17.246,-17.246 H 0 c -9.498,0 -17.246,7.747 -17.246,17.246 v 50.858 C -17.246,-7.748 -9.498,0 0,0" fill="#00a0e8" id="path43"/>
			</g>
		</g>
	</g>
</svg>