<?xml version="1.0" encoding="UTF-8"?>
<!-- Generator: Adobe Illustrator 27.2.0, SVG Export Plug-In . SVG Version: 6.00 Build 0)  -->
<svg version="1.1" id="Layer_1" xmlns="http://www.w3.org/2000/svg"  x="0px" y="0px" viewBox="0 0 283.9 66.1" style="enable-background:new 0 0 283.9 66.1;" xml:space="preserve">
<style type="text/css">
	.st0{fill:#0062ff;}
</style>
<g>
	<path class="st0" d="M20.7,62.5V16.1H2.4V3.4h53.1v12.7H37.2v46.3H20.7z"/>
	<path class="st0" d="M51.4,39.8c0-12.4,6.6-16.1,19-16.1h9.4v10.1h-5.3c-6.6,0-8.8,3.7-8.8,10.2v18.4H51.4V39.8z"/>
	<rect x="88.4" y="7.3" class="st0" width="14.3" height="9.3"/>
	<rect x="88.4" y="23.7" class="st0" width="14.3" height="38.7"/>
	<path class="st0" d="M113.3,3.4h14.3v59.1h-14.3V3.4z"/>
	<path class="st0" d="M138.2,3.4h14.3v59.1h-14.3V3.4z"/>
	<rect x="163.1" y="7.3" class="st0" width="14.3" height="9.3"/>
	<rect x="163.1" y="23.7" class="st0" width="14.3" height="38.7"/>
	<path class="st0" d="M230.9,43.1c0,16.1-6.3,19.8-22.4,19.8c-16.1,0-22.4-3.7-22.4-19.8c0-16.1,6.3-19.8,22.4-19.8   C224.6,23.3,230.9,27,230.9,43.1z M208.5,52.7c6.6,0,7.7-3.7,7.7-9.6c0-5.8-1.2-9.6-7.7-9.6s-7.7,3.7-7.7,9.6   C200.8,48.9,201.9,52.7,208.5,52.7z"/>
	<path class="st0" d="M239.6,31.8c0-5.8,2.9-8,8-8h18c9.5,0,15.3,5.1,15.3,14.6v24.1h-14.3V42c0-5.8-2.2-8-8-8h-1.8   c-2.2,0-2.9,0.7-2.9,2.9v25.6h-14.3V31.8z"/>
</g>
</svg>