<?xml version="1.0" ?>
<svg xmlns="http://www.w3.org/2000/svg" xmlns:sodipodi="http://sodipodi.sourceforge.net/DTD/sodipodi-0.dtd" xmlns:inkscape="http://www.inkscape.org/namespaces/inkscape" id="Layer_1" data-name="Layer 1" viewBox="0 0 214.71526 79.070082" version="1.1" sodipodi:docname="trino.svg" inkscape:version="0.92.5 (2060ec1f9f, 2020-04-08)">
	<sodipodi:namedview pagecolor="#ffffff" bordercolor="#666666" borderopacity="1" objecttolerance="10" gridtolerance="10" guidetolerance="10" inkscape:pageopacity="0" inkscape:pageshadow="2" inkscape:window-width="2460" inkscape:window-height="1409" id="namedview1029" showgrid="false" inkscape:zoom="3.7790232" inkscape:cx="95.721846" inkscape:cy="41.134449" inkscape:window-x="0" inkscape:window-y="0" inkscape:window-maximized="1" inkscape:current-layer="Layer_1" fit-margin-top="0" fit-margin-left="0" fit-margin-right="0" fit-margin-bottom="0"/>
	<defs id="defs988">
		<style id="style986">.cls-1{fill:#fff;}.cls-2{fill:#dd00a1;}.cls-3{fill:#f9d8d2;}.cls-4{fill:#10110e;}.cls-5{fill:#e5e5e5;}.cls-6{fill:#8accce;opacity:0.2;isolation:isolate;}.cls-7{fill:#515151;}</style>
	</defs>
	<rect style="fill:#000033;fill-opacity:1;stroke:none;stroke-width:6.30198574;stroke-miterlimit:4;stroke-dasharray:none;stroke-opacity:1" id="rect1612" width="214.71526" height="79.070084" x="0" y="0"/>
	<g id="g1663" transform="translate(25.139898,6.7631354)">
		<g id="g1633">
			<path class="cls-1" d="m 14.24,55.36 c 0.92,-0.61 -1.49,-0.38 -1.69,-0.79 A 15,15 0 0 1 9.73,54.06 C 8,53.62 3.9,50.85 3.47,48.25 3.04,45.65 3.47,40.6 5.3,37.64 A 17,17 0 0 1 9.73,33 C 9.73,33 6.16,24.51 5.85,18.1 5.54,11.69 6,0.21 10.24,0 c 4.24,-0.21 3.49,10.48 2.82,17.43 a 89.47,89.47 0 0 0 -0.21,13.89 19.45,19.45 0 0 1 5.51,-0.92 21.2,21.2 0 0 1 4.9,0.46 c 0,0 1.32,-9.86 5.74,-16 4.42,-6.14 9,-12.46 12,-10.67 3,1.79 -0.81,8.19 -3.46,11.52 -2.65,3.33 -7.25,8.33 -8.78,11 a 47.26,47.26 0 0 0 -2.65,5.51 15,15 0 0 1 6.4,6.32 c 2.07,4.28 2.27,9.59 1.15,11.83 a 8.1,8.1 0 0 1 -5.61,4 c -1.32,0.1 -6.91,1.48 -6.91,1.48 z" id="path990" inkscape:connector-curvature="0" style="fill:#ffffff"/>
			<path class="cls-2" d="m 24,30.94 c 0,0 3.33,-8.7 6.32,-13.6 2.99,-4.9 7,-8.59 8.26,-7.84 1.26,0.75 -2.58,5.35 -5.92,9.82 a 112.3,112.3 0 0 0 -7.44,12.37 z" id="path992" inkscape:connector-curvature="0" style="fill:#dd00a1"/>
			<path class="cls-2" d="m 10.64,32.44 0.95,-0.75 c 0,0 -0.13,-8.7 0,-14 C 11.72,12.39 12,5.78 10.23,5.85 8.46,5.92 7.23,11 7.92,18.23 a 86.92,86.92 0 0 0 2.72,14.21 z" id="path994" inkscape:connector-curvature="0" style="fill:#dd00a1"/>
			<circle class="cls-3" cx="7.6500001" cy="49.169998" r="1.9400001" id="circle996" style="fill:#f9d8d2"/>
			<circle class="cls-3" cx="30.57" cy="49.169998" r="1.9400001" id="circle998" style="fill:#f9d8d2"/>
			<path class="cls-4" d="m 22.33,49 a 0.19,0.19 0 0 0 -0.25,0 v 0 c 0,0 -0.57,1 -1.41,1.06 a 2.11,2.11 0 0 1 -1.5,-0.7 V 48 c 0.54,-0.29 1.41,-1.19 1.41,-1.5 a 1.4,1.4 0 0 0 -1.5,-1.09 c -1,0 -1.7,0.65 -1.7,1.19 0,0.54 1.1,1.23 1.41,1.44 v 1.45 a 1.77,1.77 0 0 1 -1.3,0.7 c -0.8,0 -1.4,-1.08 -1.4,-1.09 a 0.19,0.19 0 0 0 -0.25,-0.08 v 0 a 0.18,0.18 0 0 0 -0.08,0.23 v 0 c 0,0.06 0.71,1.29 1.73,1.29 a 2.07,2.07 0 0 0 1.5,-0.72 2.46,2.46 0 0 0 1.59,0.73 h 0.14 a 2.47,2.47 0 0 0 1.71,-1.25 0.18,0.18 0 0 0 0,-0.25 0.24,0.24 0 0 0 -0.1,-0.05 z" id="path1000" inkscape:connector-curvature="0" style="fill:#10110e"/>
			<path class="cls-5" d="M 9.73,33 C 9.73,33 7,26 6.42,22.29 5.84,18.58 5.42,12.51 6.12,8.44 A 46.3,46.3 0 0 1 7.31,2.85 C 7.31,2.85 6,12.34 6.49,16.49 6.98,20.64 9.73,33 9.73,33 Z" id="path1002" inkscape:connector-curvature="0" style="fill:#e5e5e5"/>
			<path class="cls-5" d="m 23.26,30.85 c 0,0 2,-10.59 4.91,-14.76 2.91,-4.17 6.56,-9.19 8.35,-10.47 l 1.82,-1.28 c 0,0 -7.34,7.66 -10.17,14 -2.83,6.34 -4.91,12.51 -4.91,12.51 z" id="path1004" inkscape:connector-curvature="0" style="fill:#e5e5e5"/>
			<path class="cls-4" d="m 11.6,42.85 a 1.52,1.52 0 1 0 1.52,1.52 v 0 a 1.52,1.52 0 0 0 -1.5,-1.52 z m 0.4,1.41 a 0.42,0.42 0 1 1 0.42,-0.42 v 0 a 0.42,0.42 0 0 1 -0.41,0.43 v 0 z" id="path1006" inkscape:connector-curvature="0" style="fill:#10110e"/>
			<path class="cls-4" d="m 26.55,42.85 a 1.52,1.52 0 1 0 1.51,1.53 v 0 A 1.52,1.52 0 0 0 26.55,42.85 Z M 27,44.26 a 0.42,0.42 0 0 1 -0.43,-0.41 v 0 a 0.43,0.43 0 0 1 0.41,-0.43 0.42,0.42 0 0 1 0.43,0.41 v 0 a 0.41,0.41 0 0 1 -0.4,0.42 v 0 z" id="path1008" inkscape:connector-curvature="0" style="fill:#10110e"/>
			<ellipse class="cls-6" cx="19.360001" cy="44.950001" rx="14.1" ry="10.16" id="ellipse1010" style="opacity:0.2;fill:#8accce"/>
			<path class="cls-1" d="m 36.43,39.3 v -6.72 a 2.46,2.46 0 0 0 1.91,-2.29 2.65,2.65 0 0 0 -5.27,0 2.48,2.48 0 0 0 1.93,2.29 v 6.55 h -0.2 c -2,-6.94 -7.91,-11.28 -15.63,-11.28 -7.72,0 -13.66,4.3 -15.62,11.28 H 2.88 A 2.76,2.76 0 0 0 0,41.71 v 5.14 a 2.75,2.75 0 0 0 2.88,2.59 h 0.91 a 13,13 0 0 0 3.59,5.11 L 6.09,55.72 A 0.78,0.78 0 0 0 6,56.82 v 0 0 c 2.93,3.53 7.72,5.6 13.13,5.6 5.41,0 10.21,-2 13.14,-5.6 a 0.79,0.79 0 0 0 -0.09,-1.11 v 0 l -1.3,-1.19 a 13,13 0 0 0 3.59,-5.08 h 1 a 2.74,2.74 0 0 0 2.87,-2.6 V 41.71 A 2.58,2.58 0 0 0 36.43,39.3 Z m -17.26,-4 c 7.14,0 12.94,4.7 12.94,10.47 0,6.25 -6.51,9 -12.94,9 C 12.74,54.77 6.23,52 6.23,45.72 6.23,40 12,35.25 19.17,35.25 Z" id="path1012" inkscape:connector-curvature="0" style="fill:#ffffff"/>
			<path class="cls-7" d="M 36.91,45.16 H 35 v -1 a 18.61,18.61 0 0 0 -0.39,-3.79 h 0.82 a 1.35,1.35 0 0 1 1.44,1.25 v 0 z" id="path1014" inkscape:connector-curvature="0" style="fill:#515151"/>
			<path class="cls-7" d="m 35.47,48.18 h -1 A 16.13,16.13 0 0 0 34.89,46 h 2 v 0.85 a 1.34,1.34 0 0 1 -1.36,1.32 h -0.06 z" id="path1016" inkscape:connector-curvature="0" style="fill:#515151"/>
			<path class="cls-7" d="m 19.17,61.1 c -4.79,0 -9.06,-1.72 -11.74,-4.78 l 1.3,-1.21 a 17.87,17.87 0 0 0 10.4,3 17.73,17.73 0 0 0 10.4,-3 l 1.35,1.21 C 28.23,59.38 24,61.1 19.17,61.1 Z" id="path1018" inkscape:connector-curvature="0" style="fill:#515151"/>
			<path class="cls-7" d="m 2.88,40.42 h 0.85 a 19.33,19.33 0 0 0 -0.38,3.79 8.34,8.34 0 0 0 0,1 H 1.49 v -3.5 a 1.27,1.27 0 0 1 1.24,-1.29 z" id="path1020" inkscape:connector-curvature="0" style="fill:#515151"/>
			<path d="m 19.17,34.39 a 17.66,17.66 0 0 0 -4.79,0.69 v -5.23 a 17.23,17.23 0 0 1 4.79,-0.64 17.3,17.3 0 0 1 4.8,0.64 v 5.26 a 15.91,15.91 0 0 0 -4.8,-0.72 z" id="path1022" inkscape:connector-curvature="0"/>
			<path class="cls-7" d="m 1.44,46 h 2 a 17.56,17.56 0 0 0 0.43,2.16 h -1 A 1.35,1.35 0 0 1 1.43,46.91 v 0 V 46 Z" id="path1024" inkscape:connector-curvature="0" style="fill:#515151"/>
			<ellipse class="cls-7" cx="35.709999" cy="30.290001" rx="1.2" ry="1.08" id="ellipse1026" style="fill:#515151"/>
		</g>
		<g data-name="Layer 2" id="Layer_2" transform="matrix(1.3382912,0,0,1.3382912,54.427179,20.116978)">
			<g data-name="Layer 3" id="Layer_3">
				<path style="fill:#ffffff" id="path881" d="M 11.73,6.7 H 5.91 V 1.4 A 1.4,1.4 0 0 0 4.51,0 V 0 A 1.4,1.4 0 0 0 3.11,1.4 V 6.7 H 1.36 A 1.36,1.36 0 0 0 0,8.06 v 0 a 1.36,1.36 0 0 0 1.36,1.38 h 1.7 v 12.67 a 6.52,6.52 0 0 0 1.55,4.61 5.8,5.8 0 0 0 4.45,1.69 7.88,7.88 0 0 0 3.39,-0.73 A 1,1 0 0 0 13,26.79 V 25.94 A 1,1 0 0 0 11.55,25.05 5.53,5.53 0 0 1 9.06,25.64 2.93,2.93 0 0 1 6.7,24.79 4.19,4.19 0 0 1 5.91,22 V 9.44 h 5.82 A 1.36,1.36 0 0 0 13.08,8.09 V 8 A 1.35,1.35 0 0 0 11.73,6.7 Z" class="cls-1" inkscape:connector-curvature="0"/>
				<path style="fill:#ffffff" id="path883" d="m 26.27,6.23 a 8.39,8.39 0 0 0 -3.33,0.67 9.05,9.05 0 0 0 -2.6,1.72 9.91,9.91 0 0 0 -1,1.12 V 8.11 A 1.41,1.41 0 0 0 17.9,6.7 v 0 a 1.41,1.41 0 0 0 -1.41,1.41 v 18.54 a 1.41,1.41 0 0 0 1.41,1.41 v 0 a 1.41,1.41 0 0 0 1.41,-1.41 V 17 A 8.46,8.46 0 0 1 19.8,14.34 9.7,9.7 0 0 1 21.2,11.7 7.9,7.9 0 0 1 23.37,9.7 5,5 0 0 1 26.1,9 h 0.19 a 1,1 0 0 0 1,-1 V 7.23 a 1,1 0 0 0 -1.02,-1 z" class="cls-1" inkscape:connector-curvature="0"/>
				<path style="fill:#ffffff" id="path885" d="m 32.1,6.7 v 0 a 1.43,1.43 0 0 0 -1.42,1.42 v 18.55 a 1.39,1.39 0 0 0 1.39,1.39 h 0.08 a 1.39,1.39 0 0 0 1.39,-1.39 V 8.12 A 1.43,1.43 0 0 0 32.1,6.7 Z" class="cls-1" inkscape:connector-curvature="0"/>
				<path style="fill:#ffffff" id="path887" d="M 54.29,9 A 8.07,8.07 0 0 0 51.4,7 10,10 0 0 0 47.53,6.28 a 8.87,8.87 0 0 0 -6,2.26 8.15,8.15 0 0 0 -0.72,0.72 V 8.1 A 1.41,1.41 0 0 0 39.4,6.7 v 0 a 1.41,1.41 0 0 0 -1.41,1.4 v 18.57 a 1.4,1.4 0 0 0 1.4,1.39 h 0.06 a 1.4,1.4 0 0 0 1.4,-1.39 V 16.34 a 7.78,7.78 0 0 1 0.52,-2.89 7.61,7.61 0 0 1 1.45,-2.35 6.45,6.45 0 0 1 2.1,-1.54 6,6 0 0 1 2.51,-0.56 6.89,6.89 0 0 1 2.8,0.52 5.52,5.52 0 0 1 2,1.4 6,6 0 0 1 1.18,2.21 10.34,10.34 0 0 1 0.42,3 v 10.56 a 1.37,1.37 0 0 0 1.38,1.37 h 0.1 a 1.37,1.37 0 0 0 1.37,-1.37 V 16.1 a 12.6,12.6 0 0 0 -0.59,-4 9,9 0 0 0 -1.8,-3.1 z" class="cls-1" inkscape:connector-curvature="0"/>
				<path style="fill:#ffffff" id="path889" d="m 81.42,13.09 a 10.63,10.63 0 0 0 -2.27,-3.55 11,11 0 0 0 -3.51,-2.41 11.28,11.28 0 0 0 -4.51,-0.9 11.11,11.11 0 0 0 -4.55,0.92 11,11 0 0 0 -3.49,2.46 10.7,10.7 0 0 0 -2.24,3.56 11.91,11.91 0 0 0 0,8.53 10.6,10.6 0 0 0 2.27,3.52 10.89,10.89 0 0 0 3.49,2.41 11,11 0 0 0 4.52,0.9 11.2,11.2 0 0 0 4.55,-0.9 10.6,10.6 0 0 0 3.5,-2.44 10.92,10.92 0 0 0 2.24,-3.55 11.83,11.83 0 0 0 0.78,-4.34 11.6,11.6 0 0 0 -0.78,-4.21 z M 71.17,25.75 A 8.31,8.31 0 0 1 67.84,25.1 8,8 0 0 1 63.52,20.65 8.86,8.86 0 0 1 62.92,17.34 9,9 0 0 1 63.51,14.1 8,8 0 0 1 65.18,11.45 7.9,7.9 0 0 1 67.76,9.66 8.33,8.33 0 0 1 71.1,9 a 8.44,8.44 0 0 1 3.32,0.65 8.16,8.16 0 0 1 2.58,1.81 8,8 0 0 1 1.7,2.65 8.67,8.67 0 0 1 0.61,3.31 9,9 0 0 1 -0.59,3.24 7.91,7.91 0 0 1 -1.67,2.65 7.81,7.81 0 0 1 -2.58,1.79 8.33,8.33 0 0 1 -3.3,0.65 z" class="cls-1" inkscape:connector-curvature="0"/>
				<circle style="fill:#ffffff" id="circle891" r="1.62" cy="2.1600001" cx="32.119999" class="cls-1"/>
			</g>
		</g>
	</g>
</svg>