<?xml version="1.0" ?>
<svg xmlns="http://www.w3.org/2000/svg" viewBox="0 0 1425 1512">
	<style>
		.s0 { fill: #2d3fa1 } 
		.s1 { fill: #339bf3 }
		.s2 { fill: #10d0fa }
	</style>
	<g id="#ff5c82ff">
		<path id="Layer" class="s1" d="M 253.4,50.2 C 348.8,1.1 461.8,-11.9 566.3,12.4 C 692.2,41.0 803.1,125.9 865.4,238.6 C 841.7,243.6 818.2,250.1 795.3,258.2 C 744.1,174.7 661.3,110.9 566.7,84.8 C 486.5,62.0 398.9,66.2 321.2,96.5 C 243.8,126.2 176.6,181.3 132.0,251.2 C 84.1,325.1 62.7,415.8 72.4,503.3 C 81.7,592.1 122.7,677.1 186.7,739.4 C 258.5,811.9 360.1,853.3 462.1,853.1 C 467.6,876.3 474.4,899.2 482.7,921.5 C 395.4,927.5 306.7,904.7 231.1,861.1 C 129.6,802.7 51.7,704.5 19.0,591.9 C -8.9,497.4 -5.5,393.9 29.0,301.4 C 68.6,193.5 150.5,101.8 253.4,50.2 L 253.4,50.2"/>
		<path class="s2" d="M 789.8,315.4 C 880.2,278.4 982.4,271.5 1077.1,295.5 C 1185.7,322.6 1282.9,391.3 1345.5,484.0 C 1405.5,571.6 1433.1,680.5 1422.8,786.1 C 1413.4,889.7 1367.4,989.9 1294.2,1063.8 C 1206.4,1155.3 1078.9,1208.3 952.0,1203.0 C 959.0,1180.2 964.0,1156.9 968.1,1133.4 C 1048.6,1133.5 1128.3,1106.0 1193.4,1058.9 C 1255.4,1013.7 1304.1,950.2 1330.6,878.1 C 1360.2,799.2 1363.0,710.7 1338.4,630.2 C 1312.4,542.8 1254.4,465.7 1178.3,415.8 C 1097.1,361.7 995.2,340.2 899.1,356.7 C 779.9,375.8 673.0,454.3 617.2,561.0 C 594.4,553.9 571.2,548.5 547.8,544.3 C 596.2,441.5 684.5,358.2 789.8,315.4 L 789.8,315.4"/>
		<path class="s1" d="M 851.3,423.0 C 873.4,415.3 896.2,409.9 919.5,406.8 C 931.8,503.7 911.4,604.3 862.9,689.1 C 815.3,772.6 741.1,840.4 653.8,880.6 C 644.2,859.0 637.1,836.3 631.7,813.3 C 711.6,774.9 777.5,708.3 815.5,628.3 C 845.7,564.8 858.4,493.0 851.3,423.0 L 851.3,423.0"/>
		<path class="s0" d="M 196.7,673.2 C 282.1,612.7 388.5,582.7 492.8,590.3 C 576.4,595.7 658.1,624.8 726.5,673.1 C 711.7,691.7 694.9,708.6 676.8,723.7 C 602.5,675.0 511.5,651.4 423.0,661.0 C 360.2,667.1 299.3,689.3 246.5,723.8 C 228.1,708.7 211.7,691.6 196.7,673.2 L 196.7,673.2"/>
		<path class="s2" d="M 504.2,713.9 C 527.5,717.6 550.7,722.3 572.9,730.5 C 568.7,810.2 592.8,890.5 636.6,956.9 C 676.1,1016.8 732.4,1065.6 797.4,1096.2 C 794.0,1119.9 788.5,1143.3 780.1,1165.8 C 670.7,1118.4 581.1,1027.4 536.3,916.9 C 510.6,852.9 497.7,782.8 504.2,713.9 L 504.2,713.9"/>
		<path class="s0" d="M 75.3,798.8 C 91.2,816.9 108.6,833.5 126.2,849.9 C 83.4,921.1 63.3,1006.1 72.1,1088.8 C 80.8,1179.8 123.1,1267.0 188.8,1330.4 C 250.3,1390.9 332.5,1429.9 418.3,1439.2 C 506.3,1449.6 597.6,1428.0 672.1,1380.0 C 754.8,1327.4 816.4,1242.9 840.7,1147.9 C 867.4,1047.8 850.5,937.9 797.0,849.4 C 815.0,833.6 831.9,816.5 847.8,798.7 C 903.5,883.1 929.8,986.3 921.5,1087.0 C 913.0,1202.9 857.9,1314.4 771.4,1391.9 C 700.1,1457.1 607.8,1498.8 511.7,1508.8 C 422.4,1518.7 330.2,1501.9 250.5,1460.3 C 143.2,1405.6 59.3,1307.0 22.6,1192.3 C -20.2,1062.0 -0.6,913.1 75.3,798.8 L 75.3,798.8"/>
	</g>
</svg>