<?xml version="1.0" ?>
<svg xmlns="http://www.w3.org/2000/svg" viewBox="0 0 1551 1363">
	<style>.a{fill:#ff6400}.b{fill:#003c4d}</style>
	<path class="a" d="m450.7 647.4c-37.7 0-53.3-26.8-34.4-59.5l325-563.1c18.8-32.7 49.6-32.7 68.8 0l324.6 563.1c18.9 32.7 3.3 59.5-34.4 59.5z"/>
	<path fill-rule="evenodd" class="b" d="m692.6 1363c37.7 0 53.3-26.8 34.4-59.5l-324.9-563.1c-18.9-32.8-49.7-32.8-68.9 0l-324.6 563.1c-18.9 32.7-3.3 59.5 34.4 59.5zm815.4 0c37.7 0 53.3-26.8 34.4-59.5l-324.6-563.1c-19.2-32.8-50-32.8-68.8 0l-325 563.1c-18.9 32.7-3.3 59.5 34.4 59.5z"/>
</svg>