<?xml version="1.0" ?>
<svg xmlns="http://www.w3.org/2000/svg" viewBox="0 0 1555 245">
	<title>trbrd-svg</title>
	<defs>
		<clipPath clipPathUnits="userSpaceOnUse" id="cp1">
			<path d="m0-60.11h1554.46v304.59h-1554.46z"/>
		</clipPath>
	</defs>
	<style>
		.s0 { fill: #000000 } 
		.s1 { fill: #00bd52 } 
	</style>
	<g id="Clip-Path" clip-path="url(#cp1)">
		<g id="Layer">
			<path id="Layer" class="s0" d="m528.3 38.8v144.1h-43.9v-144.1h-51.3v-37.4h146.5v37.4z"/>
			<path id="Layer" class="s0" d="m728.1 182.9v-17.7c0 0-7 10.3-15.3 14.9-3.4 1.9-7 3.4-11 4.6-4.1 1.2-8.3 1.8-12.7 1.8-8.6 0-15.8-1.5-21.7-4.6q-8.9-4.6-14.4-11.9c-3.7-4.9-6.3-10.4-7.9-16.7q-2.5-9.3-2.5-19.1v-79h42.4v69.3q0 5.4 0.7 10.2 0.8 4.9 3 8.8c1.4 2.5 3.3 4.5 5.8 6 2.4 1.4 5.5 2.2 9.4 2.2q11.1 0 16.8-8.2 5.8-8.3 5.8-19.3v-69h42.1v127.7z"/>
			<path id="Layer" fill-rule="evenodd" class="s0" d="m927.8 130.1q0 14.9-5.9 25-5.9 10.1-15.6 16.3-9.8 6.1-22.2 8.8c-8.4 1.9-16.8 2.7-25.6 2.7h-72.4v-181.5h72.4q10.5-0.1 21.6 2.1 11 2.2 20 7.5c6 3.5 10.8 8.2 14.6 14.2q5.7 9 5.7 22.8 0 15.1-8.2 25c-5.5 6.6-12.7 11.4-21.6 14.2v0.5c5.1 0.9 10 2.5 14.5 4.8 4.5 2.2 8.5 5.2 11.8 8.8q5 5.4 7.9 12.6c2 4.8 3 10.2 3 16.1zm-49.8-76.1q0-9.3-7.1-13.5c-4.7-2.8-11.7-4.2-20.9-4.2h-21.6v37.5h23.6q12.4-0.1 19.1-5.1c4.6-3.3 6.8-8.2 6.8-14.7zm5.9 72.1q0-11.3-8.4-15.7-8.5-4.3-22.6-4.3h-24.4v41.5h24.6q5.2 0 10.7-0.9c3.6-0.6 7-1.7 10-3.2q4.5-2.3 7.3-6.5 2.8-4.3 2.8-10.9z"/>
			<path id="Layer" class="s0" d="m1036.7 55.2h42.1v127.7h-42.1z"/>
			<path id="Layer" fill-rule="evenodd" class="s0" d="m1194.4 182.9v-16.6h-0.5q-6.1 9.7-17.6 15c-7.6 3.5-15.7 5.3-24.3 5.3-9.5 0-18.1-1.9-25.6-5.7q-11.3-5.6-19.2-15-7.8-9.4-11.9-21.7c-2.7-8.2-4.1-16.7-4.1-25.6 0-8.9 1.4-17.4 4.2-25.5 2.9-8.2 6.9-15.3 12.1-21.5 5.2-6.1 11.6-11 19-14.6q11.2-5.4 25-5.4c28.4 0 39.5 13.4 39.5 13.4v-64.2h42.1v182.1zm-1.5-64.1c0-4.1-0.8-8.1-2.2-12q-2.2-5.9-6.2-10.5-4-4.7-9.6-7.5c-3.8-1.9-8.1-2.8-12.9-2.8-4.7 0-9.3 0.9-13 2.8-3.8 1.9-7 4.3-9.5 7.3q-3.9 4.5-5.8 10.4c-1.3 3.9-2 7.9-2 12.1q0 6.2 2 12.2 1.9 6 5.8 10.6 3.8 4.6 9.5 7.4c3.7 1.9 8.1 2.8 13 2.8 5 0 9.1-0.9 12.9-2.8 3.7-1.9 6.9-4.3 9.6-7.4 2.7-3.1 4.7-6.6 6.2-10.5 1.4-3.9 2.2-7.9 2.2-12.1z"/>
			<path id="Layer" fill-rule="evenodd" class="s0" d="m1533.2 120.6v5.1c0 1.8-0.1 3.4-0.3 4.9h-92.6q0.5 5.4 3.2 9.8c1.8 2.9 4.1 5.4 6.9 7.5 2.8 2.2 6 3.8 9.5 5 3.5 1.2 7.1 1.9 10.9 1.9q10 0 16.9-3.7c4.6-2.5 8.4-5.7 11.3-9.7l29.3 18.5q-9 13.1-23.7 20.1c-9.9 4.7-21.3 7.1-34.3 7.1-9.6 0-18.7-1.5-27.2-4.5-8.6-3-16-7.3-22.5-13.1q-9.6-8.6-15.1-21.1-5.5-12.6-5.5-28.8c0-10.7 1.8-19.8 5.4-28.3q5.4-12.7 14.6-21.6c6.2-5.9 13.4-10.4 21.8-13.7q12.6-4.9 27.3-4.9c9.7 0 18 1.6 25.9 4.8 7.8 3.1 14.6 7.7 20.2 13.7 5.7 5.9 10.1 13.2 13.2 21.8q4.8 12.8 4.8 29.2zm-38.8-16.2c0-6.6-2.1-12.4-6.3-17.1q-6.2-7.2-18.8-7.2c-4.1 0-7.9 0.6-11.3 1.9q-5.2 2-9 5.3c-2.6 2.3-4.6 4.9-6.2 7.8q-2.3 4.5-2.6 9.4h54.2z"/>
			<path id="Layer" class="s0" d="m621.6 55.3c-25.8 0-34.7 21.4-34.7 21.4v-21.4h-40.5v127.6h42.1v-61.9c0-2.6 0.5-5.5 1.5-8.9q1.5-5.2 5-9.5c2.3-2.9 5.4-5.3 9.3-7.4 3.8-2 8.6-3.1 14.2-3.1h10v-36.8z"/>
			<path id="Layer" class="s0" d="m1081.8 23.9q0.1 4.9-1.9 9.1c-1.3 2.8-3 5.3-5.1 7.3-2.2 2.1-4.7 3.7-7.7 4.9-3 1.2-6.2 1.8-9.4 1.8q-10.3 0-17.2-6.8c-4.6-4.5-6.9-10-6.9-16.3q0-4.6 1.8-8.8 1.8-4.3 5.2-7.3c2.2-2.1 4.7-3.7 7.6-5.1 3-1.2 6.1-1.9 9.5-1.9q4.9 0 9.4 1.8 4.5 1.8 7.7 4.9c2.1 2.1 3.8 4.5 5.1 7.3q2 4.2 2 9.1z"/>
			<path id="Layer" fill-rule="evenodd" class="s0" d="m1387.5 55.2v115.8q0 18.7-5.4 32.5c-3.6 9.3-8.7 16.9-15.2 23-6.5 6-14.4 10.6-23.7 13.6-9.3 2.9-19.6 4.4-30.9 4.4-11.4 0-22.9-1.7-34.8-5.1q-9-2.6-16.7-6.3l15.4-32.2c3.7 2.3 7.7 4.3 11.8 5.8 7.5 2.6 14.8 4 22 4q18.5 0 27.3-9.8 8.9-9.7 8.9-25.9v-7.7h-0.8q-5.9 7.7-15.9 12.4-10 4.6-22.8 4.5c-9.8 0-18.4-1.7-25.9-5.2q-11.3-5.3-19.1-14.2c-5.3-6-9.3-13-12-21-2.7-7.9-4.1-16.3-4.1-25.2 0-8.9 1.4-17.4 4.1-25.4 2.7-8.1 6.7-15.2 12-21.3q7.8-9.3 19.1-14.8c7.5-3.7 16.1-5.5 25.6-5.5 8 0 15.8 1.6 23.1 4.9q11.1 4.9 17.7 15.1h0.5v-16.4zm-39.9 63.1c0-4.2-0.8-8.4-2.2-12.3-1.5-3.9-3.6-7.4-6.3-10.4-2.7-3-6-5.3-9.8-7q-5.6-2.6-12.8-2.6c-4.8 0-9 0.9-12.7 2.6q-5.5 2.5-9.4 6.9-3.8 4.4-5.9 10.3c-1.4 3.9-2 8.3-2 12.5 0 4.3 0.7 8.4 2 12.3 1.4 4 3.4 7.4 5.9 10.4 2.6 3 5.7 5.4 9.4 7.2 3.7 1.8 7.9 2.7 12.7 2.7 4.8 0 9.1-0.9 13-2.7q5.7-2.7 9.7-7.1 4-4.3 6.2-10.2c1.5-3.9 2.2-8.3 2.2-12.6z"/>
			<path id="Layer" class="s0" d="m1015.5 55.3c-25.9 0-34.7 21.4-34.7 21.4v-21.4h-40.6v127.6h42.1v-61.9c0-2.6 0.5-5.5 1.5-8.9q1.6-5.2 5.1-9.5c2.3-2.9 5.4-5.3 9.2-7.4 3.8-2 8.6-3.1 14.3-3.1h10v-36.8z"/>
			<path id="Layer" fill-rule="evenodd" class="s0" d="m1554.7 45.1q0 3.8-1.5 7.1-1.4 3.3-3.9 5.7c-1.6 1.6-3.5 2.8-5.7 3.8q-3.4 1.4-7.2 1.4c-2.5 0-4.9-0.5-7.2-1.4-2.2-0.9-4.2-2.2-5.8-3.8-1.7-1.6-3-3.5-3.9-5.7q-1.5-3.3-1.5-7.1c0-2.5 0.5-4.9 1.5-7.1 0.9-2.3 2.2-4.2 3.9-5.8 1.6-1.7 3.6-3 5.8-3.9q3.4-1.4 7.2-1.4 3.8 0 7.2 1.4c2.2 1 4.1 2.3 5.7 3.9 1.7 1.6 3 3.6 3.9 5.8 1 2.2 1.5 4.6 1.5 7.1zm-3.5 0q0-3.1-1.2-5.9-1.1-2.7-3.1-4.7c-1.4-1.4-3-2.5-4.7-3.2-1.8-0.8-3.7-1.2-5.8-1.2q-3.1 0-5.8 1.2c-1.9 0.7-3.5 1.8-4.8 3.2-1.4 1.3-2.5 2.9-3.2 4.7-0.8 1.8-1.2 3.8-1.2 5.9 0 2 0.4 3.9 1.2 5.7 0.7 1.8 1.8 3.4 3.2 4.7q2 2 4.8 3.2c1.8 0.7 3.7 1.2 5.8 1.2q3.1 0 5.8-1.2 2.6-1.2 4.7-3.2 2-2 3.1-4.7c0.8-1.8 1.2-3.7 1.2-5.7z"/>
			<path id="Layer" fill-rule="evenodd" class="s0" d="m1541.2 46.3l4.8 7.7h-6l-3.6-6.9h-2v6.9h-5.1v-18.6h8c0.9 0 1.8 0.1 2.7 0.2 0.9 0.3 1.7 0.6 2.5 1q1 0.7 1.7 1.8 0.7 1.2 0.7 2.8c0 1.2-0.4 2.3-1.1 3.2q-1 1.3-2.6 1.9zm-2.6-3.6c0.5-0.3 0.8-0.9 0.8-1.5 0-0.6-0.3-1-0.8-1.3-0.6-0.3-1.1-0.5-1.7-0.5h-2.7v3.9h2.7q1 0 1.8-0.6z"/>
			<path id="Layer" class="s1" d="m383.8 1.4h-383.8v181.5h44.7c12.2-70.2 73.4-123.6 147.2-123.6 73.7 0 135 53.4 147.2 123.6h44.7v-181.5z"/>
		</g>
	</g>
</svg>