<?xml version="1.0" ?>
<svg xmlns="http://www.w3.org/2000/svg" class="image" data-name="Layer 1" viewBox="0 0 345.53 54.3">
	<g>
		<path d="M340.79,119.79c-1.73.77-3.44,2.08-5.21,2.18-2.08.11-6-4.27-5.65-6.2a102.84,102.84,0,0,1,2.5-10.33,21.31,21.31,0,0,1,1.49-3.18l-.63-.59c-5,4.32-10,8.69-15.07,12.94a59.28,59.28,0,0,1-6.73,5,4.8,4.8,0,0,1-6.47-1.27c-1.25-1.64-1.42-4.14-1.9-6.3-.14-.63.28-1.38.61-2.83-3.48,2.55-6.3,4.85-9.34,6.79-3.61,2.29-7.23,4.78-11.18,6.28-5,1.9-10.12,2-12.86-3.52-3.65,1.44-6.94,3.07-10.42,4-2.84.75-6,1-8-2.14-.34-.54-.65-1.52-.4-1.92s1.57-.89,1.87-.65c3.61,2.92,6.52-.31,9.61-1.13a18.62,18.62,0,0,0,5.29-3,4.67,4.67,0,0,0,1.45-2.08c1.81-4.31,3.25-8.85,7.72-11.37a5.27,5.27,0,0,1,5.93.26,4.24,4.24,0,0,1,1.39,3.31,6.74,6.74,0,0,1-1.79,3.64c-2.26,2.43-4.74,4.65-7.13,7-1,.93-2.95,1.33-1.82,3.4a3.22,3.22,0,0,0,4.34,1.39,55.62,55.62,0,0,0,10.35-5.18c6.42-4.46,12.46-9.45,18.82-14,.93-.66,3-.41,4.19.15s1.37,1.76.33,3.35c-1.58,2.41-2.48,5.29-3.55,8a22.53,22.53,0,0,0-.78,3.41l.6.55c1.9-1.29,3.89-2.46,5.68-3.89,6.06-4.84,12-9.89,18.12-14.59a15.17,15.17,0,0,1,6.1-2.23,2.74,2.74,0,0,1,2.84,3.91c-1.43,3-3.39,5.87-4.65,9a47.62,47.62,0,0,0-2.22,8.56c-.42,2.15.91,2.78,2.83,2.53l3.27-.43Z" transform="translate(-128.44 -77.73)">
  </path>
		<path d="M382.76,102.29c-3.58,4.77-6.71,9.58-7.45,15.93a28.18,28.18,0,0,0,4.52-3c3.33-3.21,6.31-6.77,9.69-9.9a56.94,56.94,0,0,1,7.56-5.45c.56-.37,1.57-.06,2.37-.06l.16.9c-4.26,4.64-8.72,9.1-12.69,14A39.68,39.68,0,0,1,379,122c-3.65,2.63-8.35-.89-8-4.36.35-3.84,1.62-7.6,2.45-11.24-4.07,1-8.69,2-13.27,3.22-.5.13-.81,1.12-1.13,1.75-2,3.95-3.95,7.93-5.94,11.88-1.25,2.46-1.26,2.46-4.4.16l4.88-12.34a23.12,23.12,0,0,1-5.12-.55c-1-.33-1.76-1.64-2.62-2.51a15.89,15.89,0,0,1,3.12-1.25c2-.34,4.07-.28,6.05-.69a3.88,3.88,0,0,0,2.28-1.71c4.05-7.26,7.95-14.61,12.07-21.84.36-.62,2.05-.74,3.07-.63.47.06,1.34,1.43,1.16,1.84a84.71,84.71,0,0,1-4,8.26c-2.29,4.11-4.77,8.13-7.17,12.18l.5.73c4.29-1.26,8.6-2.47,12.87-3.81C379.51,99.91,379.49,99.84,382.76,102.29Z" transform="translate(-128.44 -77.73)">
  </path>
		<path d="M237.84,117c4.7-2.91,7.43-7.22,10.4-11.21a99,99,0,0,1,25.48-24.53c3.28-2.13,6.68-4.56,12-3.07-1.8,1.3-3.11,2.37-4.53,3.24-2.36,1.46-5.15,2.43-7.15,4.26-4.64,4.24-8.87,8.93-13.35,13.36-5.93,5.85-9.84,13.28-15.35,19.43a33.36,33.36,0,0,1-6.73,5.41c-1.65,1.07-5.08-1.08-5.22-3.47a54.47,54.47,0,0,1,.24-12c1.46-8.7,3.47-17.3,5.25-25.94.06-.27,0-.56,0-.84.21-1.3-.87-3.41,2-3.06s4.58,2,4.13,4.24c-.6,3-1.52,6-2.2,9q-2.37,10.64-4.63,21.3A31.47,31.47,0,0,0,237.84,117Zm7.73-4.66.75.92c1.41-1.42,2.84-2.82,4.19-4.3.08-.09-.5-.77-.95-1.44ZM259,96.83l-.78-.67-5.24,6.14.72.61Z" transform="translate(-128.44 -77.73)">
  </path>
		<path d="M462.38,130.07c3.06-.87,5.78-2.13,6.26-5.7a5.74,5.74,0,0,0-.12-2.55c-1.67-4.8-2.36-10.06-6.27-13.86-4.64,6.15-10.41,10.56-17.84,12.37-1.78.44-3.84-.37-5.77-.53a7.87,7.87,0,0,0-3.06,0c-3.29,1.14-6.35,3.1-10.05,2.58a5.17,5.17,0,0,1-2.57-.72,11.16,11.16,0,0,1-1.73-2.81,23.15,23.15,0,0,1,2.61-.92c3.3-.72,6.61-1.36,9.9-2-1-5.06.12-8.86,3.51-11.76a5,5,0,0,1,7.2.16c2,1.91,1.38,4.29.43,6.41a53.55,53.55,0,0,1-3.4,5.6,18.1,18.1,0,0,0,10.25-4.44c3.8-3.49,7.35-7.24,11-10.88,1.53-1.52,3.4-1.35,4.05.53,2.28,6.6,4.61,13.2,6.61,19.89,1.52,5.12-.08,8.47-4.23,10.13A6,6,0,0,1,462.38,130.07Z" transform="translate(-128.44 -77.73)">
  </path>
		<path d="M219.68,117.14c-.93,4.74-6.91,8.7-11.93,8-11-1.54-13.72-8-12.55-15.66,1.1-7.11,6.27-11.58,15.57-10.52,5,.56,10.77,4.74,9.39,14.37H202.55a4.6,4.6,0,0,0,2.44,5.05,6.75,6.75,0,0,0,7.22-.05C215.69,116.23,215.64,116.13,219.68,117.14Zm-6.45-7.78c-.72-3.52-2.64-5.48-5.31-5.43s-4.95,2.35-5.43,5.43Z" transform="translate(-128.44 -77.73)">
  </path>
		<path d="M168.68,99.55H176c0,5-.05,9.89,0,14.8,0,3.35,2.37,5.39,5.38,4.64,2.63-.65,3.54-2.76,3.57-5.25.06-4.65,0-9.31,0-14.13h7.16v24.27h-7l-.3-2.68c-2.54,2.86-5.23,4.31-8.89,3.5-4.61-1-7.11-3.61-7.21-8.32C168.59,110.88,168.68,105.37,168.68,99.55Z" transform="translate(-128.44 -77.73)">
  </path>
		<path d="M138.83,92.87v6.44h6.07v5.62h-6c0,4.42-.12,8.67.14,12.89,0,.59,1.9,1.38,3,1.49s2.05-.59,3.08-.94c1.28,4.08.84,5.71-4.34,6.22a14.72,14.72,0,0,1-5.45-.47c-2.59-.75-3.69-2.87-3.71-5.51,0-4.44,0-8.89,0-13.44l-3.17-.23v-4.62c3.95-.75,4.47-1.51,5-7.45Z" transform="translate(-128.44 -77.73)">
  </path>
		<path d="M429.11,104.24c-8,.55-13.62,5.4-19.19,10.36-2.94,2.63-5.77,5.38-8.78,7.93a2.46,2.46,0,0,1-2.4-.21c-1-1-2.24-2.11-1.1-4,3.64-6,7.15-12.19,10.71-18.28,4.29.89,4.52,2.24,1.69,7.41,3.88-1.95,8.11-4.38,12.58-6.23C426.49,99.63,427.13,100.16,429.11,104.24Z" transform="translate(-128.44 -77.73)">
  </path>
		<path d="M156.32,124h-7.14V99.58h7l.22,3.21c2.21-3.69,5.37-5,8.7-3.57s0,4.38.84,6.91c-1.32-.21-2.34-.45-3.36-.52-4-.25-6.24,1.8-6.29,5.84S156.32,119.62,156.32,124Z" transform="translate(-128.44 -77.73)">
  </path>
	</g>
</svg>