<svg xmlns="http://www.w3.org/2000/svg" viewBox="0 0 208 27" fill="none"><path fill-rule="evenodd" clip-rule="evenodd" d="M56.0134 4.61337V1.35001H38.4348V4.61337H45.3768V23.7463H49.0719V4.61337H56.0134ZM64.4632 10.5967H66.0057V7.36497H65.2349C63.9705 7.36497 62.9636 7.5837 62.2139 8.02118C61.4641 8.45819 60.8531 9.06087 60.3824 9.82878L59.9968 7.36497H56.9117V23.7465H60.3824V15.5234C60.3824 14.0946 60.7031 12.9162 61.3463 11.9882C61.989 11.0602 63.0281 10.5967 64.4632 10.5967ZM83.1968 23.7464H80.1439L79.7588 21.6666C78.5158 23.181 76.8232 23.9382 74.681 23.9382C72.7532 23.9382 71.1887 23.3411 69.9893 22.1464C68.7898 20.9522 68.1896 19.0324 68.1896 16.3875V7.36488H71.6604V16.0357C71.6604 17.6357 71.9815 18.8514 72.6247 19.683C73.2669 20.5147 74.2201 20.9308 75.484 20.9308C76.813 20.9308 77.8511 20.4458 78.6014 19.475C79.3516 18.5046 79.726 17.1769 79.726 15.4917V7.36488H83.1968V23.7464ZM93.6712 7.17325C92.1076 7.17325 90.7203 7.51951 89.5096 8.21295C88.2994 8.9064 87.3566 9.88745 86.682 11.1566C86.0071 12.4257 85.6696 13.9024 85.6696 15.5881C85.6696 17.2514 86.0178 18.7128 86.7138 19.9708C87.4108 21.2297 88.3957 22.2051 89.6709 22.8986C90.9451 23.592 92.4395 23.9383 94.1531 23.9383C96.1243 23.9383 97.7688 23.4054 99.0856 22.3387C100.403 21.272 101.212 19.907 101.512 18.2437H98.0413C97.8062 19.1605 97.3238 19.8698 96.5955 20.371C95.8673 20.8722 94.9674 21.1226 93.8961 21.1226C92.5466 21.1226 91.4644 20.707 90.6506 19.8754C89.8363 19.0432 89.3862 17.9128 89.3006 16.4835V16.2918H101.705C101.769 15.8436 101.801 15.4061 101.801 14.9798C101.78 13.4017 101.421 12.026 100.725 10.8527C100.029 9.67942 99.0753 8.77283 97.8646 8.1329C96.6549 7.49298 95.2568 7.17325 93.6712 7.17325ZM93.7998 9.95681C95.0207 9.95681 96.0332 10.2928 96.8367 10.9644C97.6398 11.6364 98.1166 12.5695 98.2666 13.7642H89.4292C89.5578 12.6124 90.0345 11.6899 90.8591 10.9965C91.6841 10.3031 92.6648 9.95681 93.7998 9.95681ZM113.176 1.35001H117.578L125.965 23.7463H122.013L119.892 18.2114H110.669L108.581 23.7463H104.756L113.176 1.35001ZM118.864 15.076L115.264 5.31753L111.698 15.076H118.864ZM130.463 22.8986C131.705 23.5921 133.141 23.9383 134.769 23.9383C136.847 23.9383 138.55 23.3999 139.879 22.3225C141.207 21.2455 142.032 19.7577 142.353 17.8593H138.818C138.604 18.819 138.144 19.5817 137.436 20.1467C136.729 20.7122 135.84 20.9947 134.769 20.9947C133.377 20.9947 132.257 20.4883 131.411 19.4752C130.564 18.462 130.142 17.1449 130.142 15.5235C130.142 13.9239 130.564 12.6231 131.411 11.6206C132.257 10.6177 133.377 10.117 134.769 10.117C135.797 10.117 136.665 10.3939 137.372 10.9481C138.079 11.5029 138.55 12.2494 138.786 13.1881H142.353C142.032 11.3326 141.218 9.8661 139.91 8.78917C138.604 7.71131 136.922 7.17331 134.866 7.17331C133.216 7.17331 131.764 7.51957 130.511 8.21301C129.258 8.90598 128.288 9.88192 127.603 11.1404C126.917 12.3988 126.574 13.8601 126.574 15.5235C126.574 17.1873 126.912 18.6593 127.587 19.9392C128.261 21.219 129.22 22.2052 130.463 22.8986ZM152.442 23.9383C150.814 23.9383 149.379 23.5921 148.136 22.8986C146.893 22.2052 145.934 21.219 145.26 19.9392C144.585 18.6593 144.247 17.1873 144.247 15.5235C144.247 13.8601 144.591 12.3988 145.276 11.1404C145.962 9.88192 146.931 8.90598 148.184 8.21301C149.437 7.51957 150.889 7.17331 152.539 7.17331C154.595 7.17331 156.277 7.71131 157.584 8.78917C158.891 9.8661 159.705 11.3326 160.025 13.1881H156.459C156.223 12.2494 155.752 11.5029 155.045 10.9481C154.338 10.3939 153.47 10.117 152.442 10.117C151.05 10.117 149.93 10.6177 149.084 11.6206C148.238 12.6231 147.815 13.9239 147.815 15.5235C147.815 17.1449 148.238 18.462 149.084 19.4752C149.93 20.4883 151.05 20.9947 152.442 20.9947C153.513 20.9947 154.402 20.7122 155.109 20.1467C155.817 19.5817 156.277 18.819 156.491 17.8593H160.025C159.705 19.7577 158.88 21.2455 157.551 22.3225C156.223 23.3999 154.52 23.9383 152.442 23.9383ZM161.921 15.5556C161.921 17.2194 162.269 18.6859 162.965 19.955C163.661 21.2242 164.646 22.2052 165.922 22.8987C167.196 23.5916 168.658 23.9384 170.307 23.9384C171.957 23.9384 173.42 23.5916 174.694 22.8987C175.969 22.2052 176.954 21.2242 177.651 19.955C178.347 18.6859 178.695 17.2194 178.695 15.5556C178.695 13.9132 178.347 12.4575 177.651 11.1883C176.954 9.91918 175.969 8.93301 174.694 8.22886C173.42 7.52518 171.957 7.17334 170.307 7.17334C168.658 7.17334 167.196 7.52518 165.922 8.22886C164.646 8.93301 163.661 9.91918 162.965 11.1883C162.269 12.4575 161.921 13.9132 161.921 15.5556ZM173.827 11.6365C174.716 12.6497 175.16 13.9561 175.16 15.5556C175.16 17.1557 174.716 18.462 173.827 19.4752C172.938 20.4884 171.765 20.9947 170.307 20.9947C168.851 20.9947 167.684 20.4884 166.805 19.4752C165.927 18.462 165.488 17.1557 165.488 15.5556C165.488 13.9561 165.927 12.6497 166.805 11.6365C167.684 10.6233 168.851 10.1165 170.307 10.1165C171.765 10.1165 172.938 10.6233 173.827 11.6365ZM190.583 10.5966H189.041C187.606 10.5966 186.567 11.0602 185.924 11.9882C185.281 12.9162 184.96 14.0946 184.96 15.5233V23.7464H181.489V7.36491H184.574L184.96 9.82873C185.431 9.06082 186.041 8.45813 186.791 8.02112C187.541 7.58365 188.548 7.36491 189.812 7.36491H190.583V10.5966ZM204.979 23.7464H208V1.35009H204.529V9.63696C203.972 8.86905 203.244 8.26636 202.344 7.82889C201.445 7.39188 200.395 7.17314 199.195 7.17314C197.717 7.17314 196.389 7.5194 195.21 8.21284C194.032 8.90628 193.105 9.88734 192.431 11.1565C191.756 12.4256 191.418 13.8921 191.418 15.5559C191.418 17.262 191.75 18.7499 192.414 20.019C193.078 21.2882 194 22.2585 195.178 22.9306C196.357 23.6026 197.695 23.9382 199.195 23.9382C201.466 23.9382 203.255 23.053 204.562 21.2826L204.979 23.7464ZM203.244 11.6363C204.122 12.6495 204.562 13.9773 204.562 15.6197C204.562 17.2197 204.122 18.5209 203.244 19.5229C202.366 20.5254 201.209 21.0266 199.774 21.0266C198.339 21.0266 197.181 20.5203 196.303 19.5071C195.424 18.494 194.986 17.1769 194.986 15.5559C194.986 13.9559 195.424 12.6495 196.303 11.6363C197.181 10.6231 198.339 10.1168 199.774 10.1168C201.209 10.1168 202.366 10.6231 203.244 11.6363Z" fill="black"></path><path fill-rule="evenodd" clip-rule="evenodd" d="M18.0869 27H9.04346V18H18.0869V9H27.1304V18C27.1304 22.9318 23.0428 27 18.0869 27Z" fill="#003D98"></path><path fill-rule="evenodd" clip-rule="evenodd" d="M9.04348 18H0V9C0 4.06833 4.08738 0 9.04348 0H18.087V9H9.04348V18Z" fill="#00A881"></path></svg>