<?xml version="1.0" ?>
<svg xmlns="http://www.w3.org/2000/svg" viewBox="0 0 146 20" fill="none" color=" white">
	<path d="M41.6101 3.22847V5.17653H37.3171V16.5618H35.0567V5.17425H30.7637V3.2262H41.6124L41.6101 3.22847Z" fill="currentColor"/>
	<path d="M42.6973 9.40295C43.066 7.98122 44.0107 6.89441 45.834 6.89441V9.05208H45.2376C43.5372 9.05208 42.7132 9.61257 42.7132 11.2621V16.5595H40.5234V7.10402H42.6973V9.40295Z" fill="currentColor"/>
	<path d="M53.0461 7.10409H55.2358V16.5595H53.062V14.6821C52.6409 15.8054 51.7486 16.7692 50.1165 16.7692C47.9609 16.7692 46.9434 15.1378 46.9434 13.0325V7.10409H49.1331V12.6293C49.1331 14.4019 49.8524 15.1902 51.0953 15.1902C52.3381 15.1902 53.0415 14.3654 53.0415 12.5928V7.10181L53.0461 7.10409Z" fill="currentColor"/>
	<path d="M66.0386 12.472H59.0641C59.2394 14.297 60.1681 15.2266 61.4997 15.2266C62.7084 15.2266 63.323 14.6821 63.6553 13.7707H65.8815C65.2852 15.7871 63.6917 16.7714 61.4815 16.7714C58.5906 16.7714 56.8379 14.7003 56.8379 11.8249C56.8379 8.94955 58.643 6.89441 61.4815 6.89441C64.32 6.89441 66.0909 8.82423 66.0909 11.7702C66.0909 11.9798 66.0727 12.2259 66.0386 12.472ZM59.08 10.9454H63.8465C63.7418 9.43713 62.829 8.4369 61.4815 8.4369C60.2022 8.4369 59.3077 9.24346 59.08 10.9454Z" fill="currentColor"/>
	<path d="M82.1824 16.5595L80.9031 12.7341H74.682L73.4028 16.5595H71.0195L75.629 3.2262H79.9585L84.5679 16.5595H82.1846H82.1824ZM75.3285 10.8065H80.2544L77.8006 3.50872L75.3285 10.8065Z" fill="currentColor"/>
	<path d="M94.0154 10.6128V16.5595H91.8256V11.0343C91.8256 9.24574 91.0721 8.45513 89.827 8.45513C88.5819 8.45513 87.8284 9.26169 87.8284 11.0685V16.5595H85.6387V7.10402H87.8125V9.03385C88.2496 7.87641 89.1806 6.89441 90.8104 6.89441C92.9842 6.89441 94.0176 8.50753 94.0176 10.6128H94.0154Z" fill="currentColor"/>
	<path d="M95.5352 11.8249C95.5352 8.91309 97.3744 6.89441 100.286 6.89441C103.197 6.89441 105.052 8.91081 105.052 11.8249C105.052 14.739 103.213 16.7714 100.286 16.7714C97.3585 16.7714 95.5352 14.755 95.5352 11.8249ZM102.808 11.8249C102.808 9.75383 101.913 8.43918 100.283 8.43918C98.6537 8.43918 97.7591 9.75383 97.7591 11.8249C97.7591 13.896 98.6696 15.2289 100.283 15.2289C101.897 15.2289 102.808 13.9142 102.808 11.8249Z" fill="currentColor"/>
	<path d="M120.688 10.6128V16.5595H118.498V11.0343C118.498 9.26169 117.868 8.45513 116.641 8.45513C115.414 8.45513 114.765 9.26169 114.765 11.0685V16.5595H112.575V11.0343C112.575 9.26169 111.945 8.45513 110.718 8.45513C109.491 8.45513 108.842 9.26169 108.842 11.0685V16.5595H106.652V7.10402H108.826V9.05208C109.247 7.91286 110.105 6.89441 111.701 6.89441C113.297 6.89441 114.278 8.01767 114.628 9.22751C115.013 8.07008 115.926 6.89441 117.608 6.89441C119.711 6.89441 120.692 8.45513 120.692 10.6128H120.688Z" fill="currentColor"/>
	<path d="M130.831 10.5263V16.5618H128.657V14.6844C128.061 15.9307 127.255 16.7714 125.45 16.7714C123.645 16.7714 122.225 15.4909 122.225 13.7024C122.225 11.5105 124.346 11.0366 126.133 10.8612L128.639 10.5992V10.442C128.639 9.33692 128.009 8.4415 126.693 8.4415C125.518 8.4415 124.87 9.14325 124.747 9.93159H122.539C122.766 8.07239 124.378 6.89673 126.693 6.89673C129.602 6.89673 130.829 8.59871 130.829 10.5285L130.831 10.5263ZM128.641 12.5427V11.9822L126.941 12.1576C125.748 12.2989 124.453 12.4743 124.453 13.7024C124.453 14.7732 125.295 15.3861 126.292 15.3861C127.852 15.3861 128.641 14.1239 128.641 12.5449V12.5427Z" fill="currentColor"/>
	<path d="M132.885 16.5596V3.22852H135.075V16.5619H132.885V16.5596Z" fill="currentColor"/>
	<path d="M143.703 7.10409H146L141.95 19.9977H139.69L141.074 15.5411H139.128L136.096 7.10181H138.304L141.179 15.2244L143.703 7.10181V7.10409Z" fill="currentColor"/>
	<path d="M12.9707 0C12.9844 0.00911369 12.9958 0.0182274 13.0094 0.0273411C14.25 0.767829 15.5201 2.08704 16.5035 3.79357C16.5035 3.79585 16.508 3.80041 16.508 3.80269C16.508 3.80725 16.5126 3.80952 16.5149 3.81408C17.4891 5.51151 17.9944 7.25906 18.0149 8.69902C18.0149 8.71725 18.0195 8.73547 18.0217 8.7537L23.0728 0H12.973H12.9707Z" fill="currentColor"/>
	<path d="M10.093 7.50057C8.36075 4.49989 8.10125 1.33516 9.38052 0H0L11.5361 20L16.2253 11.8683C14.4338 12.3103 11.823 10.5013 10.093 7.50057Z" fill="currentColor"/>
</svg>