<?xml version="1.0" ?>
<svg xmlns="http://www.w3.org/2000/svg" viewBox="0 0 24 24">
	<path fill="#54b6d1" d="M 11.312,17.254 A 0.764,0.764 0.0 0,1 11.598,17.904 C 11.524,18.984 11.352,21.484 11.269,22.624 A 0.693,0.693 0.0 0,1 10.666,23.264 C 8.768,23.491 7.772,24.056 6.69,23.537 C 5.609,23.017 5.428,21.887 4.42,20.264 A 0.693,0.693 0.0 0,1 4.542,19.393 C 5.382,18.617 7.228,16.92 8.026,16.187 A 0.765,0.765 0.0 0,1 8.715,16.005 A 4.793,4.793 0.0 0,0 11.312,17.254 L 11.312,17.254 M 15.287,16.0 A 0.765,0.765 0.0 0,1 15.977,16.181 C 16.775,16.913 18.624,18.607 19.464,19.382 A 0.693,0.693 0.0 0,1 19.588,20.252 C 18.582,21.877 18.402,23.008 17.321,23.529 C 16.241,24.049 15.243,23.486 13.345,23.262 A 0.693,0.693 0.0 0,1 12.741,22.622 C 12.657,21.483 12.482,18.982 12.406,17.902 A 0.764,0.764 0.0 0,1 12.692,17.252 A 4.793,4.793 0.0 0,0 15.287,16.0 M 7.85,14.926 C 7.85,15.174 7.73,15.411 7.52,15.556 C 6.629,16.172 4.566,17.597 3.623,18.244 A 0.694,0.694 0.0 0,1 2.746,18.171 C 1.387,16.83 0.323,16.404 0.055,15.235 C -0.213,14.065 0.558,13.219 1.198,11.419 A 0.693,0.693 0.0 0,1 1.956,10.972 C 3.086,11.143 5.565,11.528 6.636,11.695 C 6.887,11.734 7.099,11.895 7.206,12.118 A 4.777,4.777 0.0 0,0 7.85,14.926 L 7.85,14.926 M 16.789,12.111 A 0.764,0.764 0.0 0,1 17.359,11.688 C 18.429,11.52 20.908,11.132 22.038,10.958 A 0.693,0.693 0.0 0,1 22.796,11.405 C 23.439,13.204 24.212,14.049 23.945,15.219 C 23.678,16.389 22.615,16.816 21.256,18.159 A 0.694,0.694 0.0 0,1 20.38,18.233 A 1659.96,1659.96 0.0 0,1 16.48,15.55 A 0.764,0.764 0.0 0,1 16.149,14.92 A 4.778,4.778 0.0 0,0 16.789,12.111 L 16.789,12.111 M 7.511,10.772 A 0.764,0.764 0.0 0,1 6.814,10.907 C 5.776,10.594 3.374,9.871 2.281,9.537 A 0.693,0.693 0.0 0,1 1.791,8.807 C 1.991,6.907 1.661,5.811 2.409,4.872 C 3.156,3.934 4.299,4.009 6.106,3.386 A 0.693,0.693 0.0 0,1 6.928,3.7 C 7.499,4.69 8.744,6.866 9.281,7.806 A 0.764,0.764 0.0 0,1 9.306,8.518 A 4.825,4.825 0.0 0,0 7.511,10.772 L 7.511,10.772 M 14.684,8.514 A 0.763,0.763 0.0 0,1 14.708,7.803 C 15.244,6.863 16.486,4.683 17.055,3.693 A 0.694,0.694 0.0 0,1 17.877,3.378 C 19.685,3.998 20.828,3.922 21.577,4.86 C 22.325,5.797 21.996,6.894 22.199,8.794 A 0.693,0.693 0.0 0,1 21.71,9.524 C 20.617,9.86 18.216,10.586 17.18,10.9 A 0.765,0.765 0.0 0,1 16.482,10.766 A 4.825,4.825 0.0 0,0 14.684,8.514 L 14.684,8.514 M 10.554,7.914 A 0.764,0.764 0.0 0,1 10.016,7.452 A 1812.89,1812.89 0.0 0,1 8.266,3.055 A 0.693,0.693 0.0 0,1 8.532,2.217 C 10.145,1.19 10.799,0.25 11.999,0.25 C 13.199,0.25 13.852,1.191 15.464,2.217 C 15.741,2.397 15.853,2.747 15.73,3.055 C 15.31,4.118 14.382,6.447 13.98,7.452 A 0.764,0.764 0.0 0,1 13.441,7.914 A 4.8,4.8 0.0 0,0 12.0,7.694 A 4.8,4.8 0.0 0,0 10.557,7.914 L 10.554,7.914"/>
	<path fill="#9c9c9c" d="M 11.997,8.744 A 3.762,3.762 0.0 0,1 15.757,12.504 A 3.762,3.762 0.0 0,1 11.997,16.264 A 3.762,3.762 0.0 0,1 8.237,12.504 A 3.762,3.762 0.0 0,1 11.997,8.744"/>
</svg>