<svg class="navbrand" version="1.1" id="Layer_1" xmlns:sketch="http://www.bohemiancoding.com/sketch/ns" xmlns="http://www.w3.org/2000/svg"  x="0px" y="0px" viewBox="0 0 192.2 32.9" style="enable-background:new 0 0 192.2 32.9;" xml:space="preserve">
  <style>
    .nb0 { fill: #9ce5b1;}
    .nb1 { fill: #6fce7f;}
    .nb2 { fill: #bff789;}
    .nb3 { fill: #caff43;}
  </style>
          <g id="Page-1" sketch:type="MSPage">
            <g id="turbine" sketch:type="MSArtboardGroup">
              <path id="back-circle" sketch:type="MSShapeGroup" class="nb0" d="M15.6,31.5c8.3,0,15-6.7,15-15s-6.7-15-15-15s-15,6.7-15,15
      			S7.3,31.5,15.6,31.5z"></path>
              <path id="mid-colour-half-circle" sketch:type="MSShapeGroup" class="nb1" d="M26.6,6.3c-2.7-3-6.7-4.9-11.1-4.9
      			c-8.3,0-15,6.7-15,15c0,1.8,0.3,3.5,0.9,5.1l1.2,2.1L16,16.6L26.6,6.3z"></path>
              <path id="Path-104" sketch:type="MSShapeGroup" class="nb2" d="M15.9,16.7c0,0-1.1-3.8,0.2-7.5s3.6-4.5,4.6-4.9s3.2-0.3,4.4,0.6
      			s2.9,2.7,4,5s1.3,4.2,1.3,4.2s-0.3,0.2-0.8,0.2c-0.6,0.1-1.4,0-2.7,0c-2.5,0-4.3,0-7.2,0.8S15.9,16.7,15.9,16.7z"></path>
              <path id="Path-104_1_" sketch:type="MSShapeGroup" class="nb3" d="M15.9,16.7c0,0-3.1,1.6-6.7,2.1s-6.9,0-7.6,0.3S1,19.9,1,19.9
      			s0.1,1.8,2.3,5s4.6,4.8,7.4,4.3s4.6-3.5,5-4.8s0.7-2.7,0.7-4.1S15.9,16.7,15.9,16.7z"></path>
            </g>
          </g>
          <path class="nb4" d="M187.1,9.9L187.1,9.9c0.6-0.2,1.1-0.6,1.1-1.2c0-0.8-0.6-1.2-1.8-1.2h-1.7v4h0.8V10h0.7
      	c0.2,0.1,1.1,1.3,1.4,1.4h0.9v-0.1C188.3,11.3,187.4,10.1,187.1,9.9z M186.2,9.5h-0.8V8.1h0.8c0.7,0,1,0.3,1,0.7
      	C187.3,9.2,187,9.5,186.2,9.5z M186.6,4.5c-2.8,0-5,2.2-5,5s2.2,5,5,5s5-2.2,5-5S189.4,4.5,186.6,4.5z M186.6,13.5c-2.2,0-4-1.8-4-4
      	c0-2.2,1.8-4,4-4c2.2,0,4,1.8,4,4C190.6,11.7,188.8,13.5,186.6,13.5z M57.3,26.2h2.9V8h6.6V5.5H50.6V8h6.7V26.2z M69.8,17
      	c0,7,2.9,9.5,8.5,9.5c5.5,0,8.5-2.5,8.5-9.5V5.5H84v11.3c0,5.7-1.8,7.3-5.6,7.3c-3.9,0-5.6-1.6-5.6-7.3V5.5h-2.8V17z M101,18v-0.2
      	c2.9-0.6,4.7-3,4.7-6c0-4-2.8-6.3-7.6-6.3h-6.6v20.7h2.9v-7.8h3.4c1,0.5,5.2,7.4,6.4,7.8h3.3v-0.4C106.5,25.5,102.2,19,101,18z
      	 M98,16h-3.6v-8H98c3.2,0,4.7,1.7,4.7,3.9C102.7,14.2,101.5,16,98,16z M122.5,15.7v-0.2c1.5-0.4,3.5-2,3.5-4.7
      	c0-3.7-2.3-5.4-7.1-5.4h-7.3v20.7h7.2c4.9,0,7.5-1.9,7.5-5.6C126.3,17.2,124,16.1,122.5,15.7z M114.4,7.9h4.1c3.2,0,4.4,1.2,4.4,3.2
      	c0,2.2-1,3.5-4.7,3.5h-3.7V7.9z M118.5,23.8h-4.1v-6.9h4c3.6,0,4.9,1.2,4.9,3.3C123.2,22.8,121.9,23.8,118.5,23.8z M130.6,26.2h2.9
      	V5.5h-2.9V26.2z M138.9,26.2h2.9V14.4c0-1.5-0.1-3.5-0.3-4.8h0.3c0.8,1.5,1.5,2.7,2.4,4.1l8.8,12.5h2.8V5.5h-2.9v12.1
      	c0,1.1,0.1,2.8,0.3,4.5h-0.2c-0.6-1.3-1.6-2.9-2.3-3.9l-8.9-12.8h-2.8V26.2z M160.7,26.2h13.6v-2.5h-10.7v-6.8h9.3v-2.5h-9.3V7.9
      	h10.7V5.5h-13.6V26.2z"></path>
</svg>