<?xml version="1.0" ?>
<svg xmlns="http://www.w3.org/2000/svg" aria-label="TutaMailWithName" viewBox="0 0 1408 309" fill="none">
	<path d="M305.76 89.504h-40.93c-.511 0-.965.17-1.363.567l-101.731 98.552c-.965.908-2.611.625-3.122-.624l-29.577-97.417c-.284-.738-.965-1.192-1.76-1.192H85.381c-.851 0-1.59.568-1.873 1.363l-65.91 215.44c-.397 1.249.568 2.441 1.874 2.441h42.975c.851 0 1.59-.568 1.873-1.363l41.725-136.246c.568-1.703 2.896-1.874 3.634-.171l28.498 65.228c.284.682.965 1.193 1.76 1.193h23.219c.51 0 .965-.171 1.362-.568l68.748-67.442c1.419-1.42 3.747.057 3.179 1.93l-41.328 135.054a1.914 1.914 0 0 0 1.873 2.441h43.031c.852 0 1.59-.567 1.874-1.362l65.909-215.383a1.915 1.915 0 0 0-1.873-2.441z" fill="#850122"/>
	<path d="M52.91 75.482 3.18 25.979c-.625-.568-1.363-.511-1.42-.511-.965 0-1.76.795-1.76 1.76v217.654c0 .965.795 1.76 1.76 1.76.738 0 1.42-.511 1.646-1.193.057-.056.057-.17.114-.283 0-.057.113-.511.113-.568L53.817 80.023c.625-1.76.625-3.008-.908-4.541M24.525 4.35l52.341 52.966c1.249 1.248 2.441 1.532 4.315 1.532h224.807c1.532 0 2.384-1.987.908-3.406L254.952 2.874C252.681.66 252.511 1 250.013 1H25.717c-.965 0-1.76.795-1.76 1.76 0 .057-.057.852.624 1.533-.056-.057-.056 0 0 0z" fill="#F22"/>
	<path d="M753.387 179.767c0-27.079 20.38-59.381 55.123-59.381h25.547l-9.14 29.52c-10.673 35.368-27.704 57.224-48.425 57.224-14.93 0-23.162-10.446-23.162-27.363zm-130.002-14.76c-12.773 41.555 6.699 70.167 50.866 70.167 6.415 0 14.93-.624 17.371-1.249 1.192-.284 1.817-.908 2.441-2.441l7.607-25.83c.284-1.533 0-2.782-2.157-2.441-6.699.624-12.773 1.249-18.28 1.249-22.197 0-31.336-11.979-24.638-33.551l15.498-50.468h45.075c1.192 0 2.158-.624 2.725-2.157l7.891-26.17c.284-1.534-.284-2.442-2.157-2.442H681.46l5.791-19.075c.284-1.249 0-2.157-.909-3.065l-23.445-21.516c-1.192-1.249-2.725-.908-3.35.909l-36.219 118.137zm-155.264.908c-13.114 42.18 7.891 69.827 40.817 69.827 18.904 0 33.778-9.254 44.45-24.298l-.283 19.359c0 1.873.908 2.441 2.441 2.441h21.004c1.533 0 2.158-.625 2.725-2.157l42.294-138.745c.624-1.873-.284-2.782-1.817-2.782h-30.145c-1.532 0-2.441.625-2.725 2.158l-17.939 58.472c-11.24 36.333-28.895 56.94-47.516 56.94s-26.511-14.76-19.472-37.525l23.73-77.206c.624-1.874-.284-2.782-1.817-2.782h-30.144c-1.533 0-2.157.625-2.725 2.157l-22.821 74.141zm-102.583-.908c-12.773 41.555 6.699 70.167 50.866 70.167 6.415 0 14.93-.624 17.371-1.249 1.192-.284 1.817-.908 2.441-2.441l7.607-25.83c.284-1.533 0-2.782-2.157-2.441-6.699.624-12.773 1.249-18.28 1.249-22.196 0-31.336-11.979-24.638-33.551l15.499-50.468h45.075c1.192 0 2.441-.624 2.724-2.157l7.891-26.17c.284-1.534-.283-2.442-2.157-2.442h-44.45l5.79-19.075c.284-1.249 0-2.157-.908-3.065l-23.446-21.516c-1.192-1.249-2.725-.908-3.349.909l-35.935 118.137zm400.055 70.792c17.655 0 32.245-8.005 43.258-24.298v19.359c0 1.532.908 2.441 2.441 2.441h21.005c1.532 0 2.157-.625 2.725-2.158l42.634-139.085c.283-1.533-.284-2.781-1.817-2.781h-66.364c-64.83 0-90.093 56.939-90.093 93.839 0 32.302 19.813 52.626 46.267 52.626z" fill="#000"/>
	<path d="M953.935 233.068h-25.464c-1 0-1.824-.823-1.824-1.823V91.159c0-1 .824-1.823 1.824-1.823h20.113a1.86 1.86 0 0 1 1.646 1l4.352 8.88c.588 1.176 2.059 1.353 2.941.412 3.234-3.411 6.94-6.352 11.115-8.998 4.999-3.117 11.115-4.646 18.29-4.646 2.823 0 5.94.353 9.469 1.058s7.113 1.882 10.823 3.588c3.7 1.705 7.23 3.999 10.64 6.88 2.71 2.294 5.12 5.176 7.18 8.587.7 1.176 2.35 1.235 3.11 0 3.36-5.117 7.94-9.586 13.88-13.409 6.88-4.528 14.29-6.763 22.06-6.763 5.17 0 10.7.764 16.52 2.411 5.77 1.588 11.24 4.587 16.18 8.998 4.99 4.411 9.11 10.527 12.29 18.29 3.17 7.763 4.82 17.878 4.82 30.287v85.217a1.83 1.83 0 0 1-1.82 1.823h-23.65c-1 0-1.82-.824-1.82-1.823v-85.511c0-12.409-2.59-21.054-7.64-25.935-5.12-4.881-11.82-7.351-20.23-7.351-6.41 0-12 2.705-16.82 8.116-4.83 5.41-7.24 13.938-7.24 25.523v85.216c0 1-.82 1.824-1.82 1.824h-23.64c-1 0-1.83-.824-1.83-1.824v-85.51c0-12.409-2.58-21.054-7.641-25.935-5.117-4.881-11.821-7.351-20.231-7.351-5.999 0-11.233 2.293-15.761 6.939-4.529 4.587-7.175 11.821-7.94 21.584v90.332c0 1-.823 1.823-1.823 1.823zM1284.39 91.16v140.086a1.83 1.83 0 0 1-1.82 1.823h-21.41c-.82 0-1.53-.53-1.76-1.353l-3.18-11.762c-.41-1.412-2.18-1.764-3.18-.647-4.64 5.293-10.29 9.351-16.99 12.291-7.82 3.411-15.7 5.117-23.7 5.117q-15 0-28.05-5.822c-8.71-3.882-16.29-9.234-22.82-16.056s-11.65-14.82-15.47-23.994c-3.82-9.233-5.7-18.996-5.7-29.405s1.88-20.172 5.7-29.406 8.94-17.231 15.47-23.994 14.11-12.174 22.82-16.055q13.05-5.823 28.05-5.823c8 0 15.7 1.53 23.11 4.646q9.705 4.059 17.64 12.174c1 1 2.65.647 3.06-.706l3.24-11.526c.23-.765.94-1.353 1.76-1.353h21.41c1 0 1.82.823 1.82 1.823zm-72.04 119.737c5.76 0 11.29-1.294 16.52-3.881 5.18-2.588 9.71-6.175 13.53-10.645 3.76-4.47 6.76-9.763 9-15.761 2.17-5.999 3.29-12.409 3.29-19.231s-1.12-13.174-3.29-19.231c-2.18-5.999-5.18-11.233-9-15.761-3.82-4.47-8.29-8.057-13.53-10.645-5.23-2.588-10.7-3.881-16.52-3.881s-11.29 1.293-16.53 3.881c-5.23 2.588-9.7 6.175-13.52 10.645-3.83 4.528-6.83 9.762-9 15.761-2.18 5.998-3.3 12.409-3.3 19.231s1.12 13.232 3.3 19.231c2.17 5.998 5.17 11.233 9 15.761 3.76 4.528 8.29 8.057 13.52 10.645 5.24 2.587 10.71 3.881 16.53 3.881M1329.67 58.108c-5.76 0-10.52-2.235-14.34-6.763-2.42-2.882-3.95-6.587-4.18-10.351-.47-5.999 1.35-10.939 5.35-14.938 3.59-3.587 8-5.41 13.23-5.41 5.24 0 9.59 1.823 13.24 5.41 4 4 5.76 8.998 5.35 14.938-.3 3.764-1.77 7.469-4.18 10.35-3.82 4.529-8.58 6.764-14.35 6.764zm13.18 174.961h-25.76c-1 0-1.82-.824-1.82-1.824V91.159c0-1 .82-1.823 1.82-1.823h25.46c1 0 1.83.823 1.83 1.823l.29 140.086c0 1-.82 1.824-1.82 1.824M1407.72 15.823v215.422c0 1-.83 1.824-1.83 1.824h-25.46c-1 0-1.83-.824-1.83-1.824V15.823c0-1 .83-1.823 1.83-1.823h25.46c1 0 1.83.823 1.83 1.823" fill="#850122"/>
</svg>