<?xml version="1.0" ?>
<svg xmlns="http://www.w3.org/2000/svg" viewBox="0 0 138 30" fill="none">
	<path d="M50.85 20.382c.46.03.797.145 1.012.343.215.199.322.489.322.87 0 .443-.176.779-.53 1.008-.352.23-.859.32-1.519.275l-.644-.046c-2.685-.214-4.028-1.61-4.028-4.19v-4.535h-.92c-.507 0-.89-.107-1.152-.32-.26-.23-.391-.55-.391-.963 0-.427.13-.748.391-.961.261-.23.645-.344 1.151-.344h.92V9.733c0-.504.154-.9.461-1.191.322-.29.752-.435 1.29-.435.536 0 .958.145 1.265.435.307.29.46.687.46 1.19v1.787h1.612c1.043 0 1.565.435 1.565 1.305 0 .413-.13.733-.391.962-.261.214-.652.32-1.174.32h-1.611v4.787c0 .458.107.81.322 1.054.215.229.53.358.944.389l.644.046zM68.883 12.298c.138-.32.33-.565.576-.733.245-.168.506-.252.782-.252.43 0 .814.145 1.151.435.338.29.507.649.507 1.076 0 .184-.047.39-.139.619l-3.775 8.427c-.138.336-.36.596-.667.779a2.03 2.03 0 01-1.956 0 1.62 1.62 0 01-.645-.779l-2.463-5.702-2.37 5.702a1.62 1.62 0 01-.645.779 1.947 1.947 0 01-.99.252 2.03 2.03 0 01-.99-.252 1.585 1.585 0 01-.667-.779l-3.752-8.427a1.56 1.56 0 01-.138-.619c0-.427.176-.786.529-1.076.368-.29.783-.435 1.243-.435.307 0 .583.084.829.252.26.168.46.412.598.733l2.463 6.16 2.509-6.114c.138-.321.338-.565.598-.733.277-.184.576-.275.898-.275.322 0 .622.084.898.252.276.168.483.42.621.756l2.555 6.114 2.44-6.16zM82.406 19.42c.307 0 .553.122.737.366.2.244.3.557.3.94 0 .259-.078.503-.23.732a1.915 1.915 0 01-.645.55 8.675 8.675 0 01-1.819.687 8.13 8.13 0 01-1.91.252c-1.228 0-2.302-.237-3.223-.71a5.019 5.019 0 01-2.094-2.016c-.492-.885-.737-1.923-.737-3.114 0-1.145.238-2.16.714-3.046A5.137 5.137 0 0175.479 12c.843-.504 1.802-.756 2.876-.756 1.028 0 1.926.23 2.693.687.783.443 1.39 1.084 1.819 1.924.43.824.644 1.794.644 2.908 0 .336-.084.596-.253.779-.153.168-.376.252-.667.252h-6.445c.107.9.383 1.557.828 1.97.445.396 1.082.595 1.91.595a4.13 4.13 0 001.198-.16c.353-.107.744-.252 1.174-.436.214-.091.422-.168.621-.229.2-.076.376-.114.53-.114zm-3.959-5.794c-.66 0-1.189.214-1.588.641-.399.412-.637 1.015-.713 1.81h4.442c-.046-.81-.253-1.42-.621-1.833-.353-.412-.86-.618-1.52-.618zM94.68 19.42c.306 0 .552.122.736.366.2.244.3.557.3.94 0 .259-.077.503-.23.732a1.913 1.913 0 01-.645.55 8.67 8.67 0 01-1.819.687 8.129 8.129 0 01-1.91.252c-1.228 0-2.302-.237-3.223-.71a5.019 5.019 0 01-2.094-2.016c-.491-.885-.737-1.923-.737-3.114 0-1.145.238-2.16.714-3.046A5.137 5.137 0 0187.752 12c.843-.504 1.802-.756 2.877-.756 1.028 0 1.925.23 2.693.687.782.443 1.388 1.084 1.818 1.924.43.824.644 1.794.644 2.908 0 .336-.084.596-.253.779-.153.168-.376.252-.667.252h-6.445c.107.9.383 1.557.828 1.97.445.396 1.082.595 1.91.595a4.13 4.13 0 001.198-.16c.353-.107.744-.252 1.174-.436.215-.091.422-.168.621-.229.2-.076.376-.114.53-.114zm-3.96-5.794c-.66 0-1.189.214-1.588.641-.399.412-.636 1.015-.713 1.81h4.442c-.046-.81-.253-1.42-.621-1.833-.353-.412-.86-.618-1.52-.618zM103.943 20.382c.46.03.798.145 1.013.343.214.199.322.489.322.87 0 .443-.177.779-.53 1.008-.352.23-.859.32-1.519.275l-.644-.046c-2.686-.214-4.028-1.61-4.028-4.19v-4.535h-.921c-.506 0-.89-.107-1.15-.32-.262-.23-.392-.55-.392-.963 0-.427.13-.748.391-.961.26-.23.645-.344 1.151-.344h.92V9.733c0-.504.154-.9.461-1.191.322-.29.752-.435 1.289-.435.537 0 .959.145 1.266.435.307.29.46.687.46 1.19v1.787h1.612c1.043 0 1.565.435 1.565 1.305 0 .413-.131.733-.391.962-.261.214-.653.32-1.174.32h-1.612v4.787c0 .458.108.81.323 1.054.214.229.529.358.943.389l.645.046zM113.558 11.244c.967 0 1.826.252 2.578.756.767.489 1.358 1.183 1.772 2.084.43.886.645 1.908.645 3.069 0 1.16-.215 2.183-.645 3.068-.414.87-.997 1.542-1.749 2.016-.752.473-1.619.71-2.601.71-.767 0-1.466-.153-2.095-.458a3.522 3.522 0 01-1.427-1.329v4.329c0 .458-.153.824-.46 1.099-.307.275-.714.412-1.22.412-.537 0-.975-.145-1.312-.435-.322-.29-.484-.672-.484-1.145V12.916c0-.489.154-.878.461-1.168.322-.305.744-.458 1.266-.458.521 0 .936.153 1.243.458.307.29.46.68.46 1.168v.183c.338-.58.821-1.03 1.45-1.35.629-.337 1.335-.505 2.118-.505zm-1.013 9.069c.813 0 1.442-.267 1.887-.802.445-.55.668-1.335.668-2.358 0-1.038-.223-1.84-.668-2.405-.445-.58-1.074-.87-1.887-.87s-1.442.282-1.887.847c-.445.55-.668 1.344-.668 2.382 0 1.023.223 1.817.668 2.382.445.55 1.074.824 1.887.824zM122.426 22.9c-.506 0-.928-.137-1.266-.411-.322-.275-.483-.68-.483-1.214v-8.359c0-.534.169-.939.506-1.214.338-.274.752-.412 1.243-.412.491 0 .898.138 1.22.412.338.275.506.68.506 1.214v8.359c0 .534-.168.939-.506 1.214-.322.274-.729.412-1.22.412zm0-13.442c-.614 0-1.097-.153-1.45-.458-.353-.32-.529-.748-.529-1.282 0-.535.176-.955.529-1.26.353-.305.836-.458 1.45-.458.599 0 1.074.16 1.427.48.369.306.553.718.553 1.238 0 .534-.177.961-.53 1.282-.353.305-.836.458-1.45.458zM137.471 20.084c.353.336.529.718.529 1.145 0 .428-.161.81-.483 1.145-.307.336-.668.504-1.082.504-.399 0-.767-.16-1.105-.481l-5.041-4.649v3.504c0 .534-.169.939-.506 1.214-.323.274-.729.412-1.22.412-.507 0-.929-.137-1.266-.412-.323-.275-.484-.68-.484-1.214V8.13c0-.535.161-.94.484-1.214.337-.275.759-.412 1.266-.412.491 0 .897.137 1.22.412.337.275.506.68.506 1.214v8.198l4.604-4.511c.337-.336.713-.504 1.127-.504.43 0 .806.16 1.128.48.323.306.484.673.484 1.1 0 .397-.177.771-.53 1.122l-3.061 2.909 3.43 3.16z" fill="#2C5282"/>
	<path d="M0 6.154A6.154 6.154 0 016.154 0h17.692A6.154 6.154 0 0130 6.154v17.692A6.154 6.154 0 0123.846 30H6.154A6.154 6.154 0 010 23.846V6.154z" fill="#fff"/>
	<path fill-rule="evenodd" clip-rule="evenodd" d="M23.846 1.748H6.154a4.406 4.406 0 00-4.405 4.406v17.692a4.406 4.406 0 004.405 4.406h17.692a4.406 4.406 0 004.405-4.406V6.154a4.406 4.406 0 00-4.405-4.406zM6.154 0A6.154 6.154 0 000 6.154v17.692A6.154 6.154 0 006.154 30h17.692A6.154 6.154 0 0030 23.846V6.154A6.154 6.154 0 0023.846 0H6.154z" fill="#0F2262"/>
	<path d="M4 7.429C4 5.535 5.517 4 7.387 4h15.226C24.483 4 26 5.535 26 7.429V24.57C26 26.465 24.483 28 22.613 28H7.387C5.517 28 4 26.465 4 24.571V7.43z" fill="#CAF0F8"/>
	<path d="M18 15c0 2.761-1.343 5-3 5s-3-2.239-3-5 1.343-5 3-5 3 2.239 3 5z" fill="#FBEC60"/>
	<path fill-rule="evenodd" clip-rule="evenodd" d="M16.17 17.86c.405-.677.693-1.684.693-2.86s-.288-2.184-.694-2.86c-.412-.687-.85-.904-1.169-.904-.319 0-.757.217-1.17.904-.405.676-.693 1.684-.693 2.86s.288 2.183.694 2.86c.412.687.85.904 1.169.904.319 0 .757-.217 1.17-.904zM15 20c1.657 0 3-2.239 3-5s-1.343-5-3-5-3 2.239-3 5 1.343 5 3 5z" fill="#0F2262"/>
	<path fill-rule="evenodd" clip-rule="evenodd" d="M15.26 15.936l1.697-2.152c.065-.083.068-.16.056-.203-.27-.91-.64-1.61-1.034-2.062-.396-.455-.736-.58-.978-.58-.243 0-.583.126-.98.58-.394.454-.765 1.155-1.034 2.066-.012.043-.009.12.056.202l1.695 2.15c.13.165.39.165.522 0zm2.48-1.587c.232-.293.321-.67.217-1.024C17.369 11.338 16.265 10 15 10s-2.37 1.34-2.957 3.329c-.104.353-.015.73.217 1.024l1.694 2.15a1.344 1.344 0 002.089 0l1.697-2.154zM8 12.033c.391 0 .71-.238.71-.533 0-.295-.319-.533-.71-.533-.391 0-.71.238-.71.533 0 .295.319.533.71.533zM8 13c1.105 0 2-.672 2-1.5S9.105 10 8 10s-2 .672-2 1.5.895 1.5 2 1.5zM22 12.033c.391 0 .71-.238.71-.533 0-.295-.319-.533-.71-.533-.391 0-.71.238-.71.533 0 .295.319.533.71.533zM22 13c1.105 0 2-.672 2-1.5s-.895-1.5-2-1.5-2 .672-2 1.5.895 1.5 2 1.5zM4.087 27.987a6.577 6.577 0 001.255-3.893c0-2.641-1.52-4.907-3.684-5.875v5.76c0 1.776.995 3.31 2.429 4.008zM0 23.978c0 2.953 1.966 5.42 4.59 6.022C6.075 28.519 7 26.42 7 24.094c0-3.622-2.243-6.69-5.342-7.74-.53-.18-1.085-.3-1.658-.354v7.978zM25.913 27.987a6.577 6.577 0 01-1.255-3.893c0-2.641 1.52-4.907 3.684-5.875v5.76c0 1.776-.995 3.31-2.429 4.008zM30 23.978c0 2.953-1.966 5.42-4.59 6.022-1.484-1.481-2.41-3.58-2.41-5.906 0-3.622 2.243-6.69 5.342-7.74A7.3 7.3 0 0130 16v7.978z" fill="#0F2262"/>
</svg>