<svg viewBox="0 0 210 36" fill="none" xmlns="http://www.w3.org/2000/svg">
<rect width="65" height="36" fill="#1EC95B"></rect><path fill-rule="evenodd" clip-rule="evenodd" d="M32.2301 24.1657C32.2301 24.0847 32.1761 24.0307 32.0951 24.0307H24.5351C24.4001 24.0307 24.3731 23.8687 24.4541 23.7877L29.5841 19.0357C30.5561 18.1447 32.2571 16.4437 32.2571 13.6627C32.2571 10.3417 29.9351 7.72266 26.0471 7.72266C22.4561 7.72266 19.8911 10.3147 19.8911 13.6627C19.8911 13.7437 19.9451 13.7977 20.0261 13.7977H22.9691C23.0501 13.7977 23.1041 13.7437 23.1041 13.6627C23.1041 12.2587 24.2381 10.7197 26.0471 10.7197C28.1531 10.7197 28.9901 12.3937 29.0171 13.6627C29.0441 15.1477 27.7211 16.4167 27.2621 16.8487L20.0261 24.0307C19.9451 24.1117 19.8911 24.2197 19.8911 24.3817V26.8657C19.8911 26.9467 19.9451 27.0007 20.0261 27.0007H32.0951C32.1761 27.0007 32.2301 26.9467 32.2301 26.8657V24.1657ZM34.2541 13.6627C34.2541 13.7437 34.3081 13.7977 34.3891 13.7977H37.3321C37.4131 13.7977 37.4671 13.7437 37.4671 13.6627C37.4671 12.2587 38.5741 10.6927 40.2481 10.6927C41.9491 10.6927 43.0561 12.0697 43.0561 13.3387C43.0561 15.1477 41.6521 15.9037 40.2481 15.9037H39.3571C39.2761 15.9037 39.2221 15.9577 39.2221 16.0387V18.7387C39.2221 18.8197 39.2761 18.8737 39.3571 18.8737H40.2481C41.8411 18.9007 43.2991 19.7377 43.2991 21.7627C43.2991 23.0047 42.0571 24.3007 40.2481 24.3007C38.1691 24.3007 37.3591 22.4647 37.3591 21.4927C37.3591 21.4117 37.3051 21.3577 37.2241 21.3577H34.2541C34.1731 21.3577 34.1191 21.4117 34.1191 21.4927C34.1191 24.5437 36.1171 27.2707 40.2481 27.2707C44.5141 27.2437 46.5391 24.6787 46.5391 21.7627C46.5391 19.5217 45.0271 18.0097 44.0551 17.5237C43.9471 17.4697 43.9201 17.3347 44.0551 17.2537C45.0271 16.6597 46.2961 15.4177 46.2961 13.3387C46.2961 10.2607 43.8661 7.72266 40.2481 7.72266C36.6571 7.72266 34.2541 10.3147 34.2541 13.6627Z" fill="white"></path><path d="M88.2168 23.89C88.2168 23.956 88.2608 24 88.3268 24H90.1968C90.2628 24 90.3068 23.956 90.3068 23.89V10.492C90.3068 10.426 90.3508 10.382 90.4168 10.382H94.6628C94.7288 10.382 94.7728 10.338 94.7728 10.272V8.622C94.7728 8.556 94.7288 8.512 94.6628 8.512H83.8608C83.7948 8.512 83.7508 8.556 83.7508 8.622V10.272C83.7508 10.338 83.7948 10.382 83.8608 10.382H88.1068C88.1508 10.382 88.1948 10.426 88.2168 10.47V23.89ZM105.84 24C105.906 24 105.95 23.956 105.972 23.89L108.59 12.978C108.612 12.89 108.524 12.868 108.458 12.868H106.588C106.522 12.868 106.5 12.912 106.478 12.978L104.564 21.822C104.542 21.932 104.366 21.932 104.344 21.822L102.166 12.978C102.144 12.912 102.122 12.868 102.056 12.868H99.3504C99.2844 12.868 99.2624 12.912 99.2404 12.978L97.0624 21.822C97.0404 21.932 96.8644 21.932 96.8424 21.822L94.9284 12.978C94.9064 12.912 94.8844 12.868 94.8184 12.868H92.9484C92.8824 12.868 92.7944 12.89 92.8164 12.978L95.4344 23.89C95.4564 23.956 95.5004 24 95.5664 24H98.3604C98.4264 24 98.4484 23.956 98.4704 23.89L100.582 15.112C100.604 15.002 100.78 15.002 100.802 15.112L102.936 23.89C102.958 23.956 102.98 24 103.046 24H105.84ZM112.095 19.182H120.301C120.367 19.182 120.389 19.138 120.411 19.072C120.455 18.896 120.477 18.654 120.477 18.434C120.477 15.002 118.541 12.648 115.109 12.648C111.699 12.648 109.763 14.98 109.763 18.434C109.763 21.866 111.809 24.22 115.109 24.22C117.595 24.22 119.553 22.966 120.125 20.81C120.147 20.722 120.081 20.7 120.015 20.7H118.057C117.991 20.7 117.947 20.722 117.903 20.81C117.441 21.69 116.671 22.35 115.109 22.35C113.151 22.35 111.985 20.898 111.985 19.292C111.985 19.226 112.029 19.182 112.095 19.182ZM118.189 17.422C118.189 17.488 118.145 17.532 118.079 17.532H112.095C112.051 17.532 111.985 17.488 111.985 17.422C111.985 16.388 112.975 14.518 115.109 14.518C117.287 14.518 118.189 16.168 118.189 17.422ZM122.772 12.868C122.706 12.868 122.662 12.912 122.662 12.978V23.89C122.662 23.956 122.706 24 122.772 24H124.642C124.708 24 124.752 23.956 124.752 23.89V17.84C124.752 16.124 125.808 14.518 127.656 14.518C129.834 14.518 130.582 16.168 130.582 17.84V23.89C130.582 23.956 130.626 24 130.692 24H132.562C132.628 24 132.672 23.956 132.672 23.89V17.84C132.672 14.98 131.066 12.648 127.876 12.648C126.402 12.648 125.456 13.352 124.994 13.99C124.95 14.056 124.796 14.1 124.752 13.968L124.532 12.978C124.51 12.912 124.488 12.868 124.422 12.868H122.772ZM141.125 22.24C141.125 22.174 141.081 22.13 141.015 22.13H139.717C138.837 22.13 138.529 21.712 138.529 21.03V14.628C138.529 14.562 138.573 14.518 138.639 14.518H141.015C141.081 14.518 141.125 14.474 141.125 14.408V12.978C141.125 12.912 141.081 12.868 141.015 12.868H138.639C138.573 12.868 138.529 12.824 138.529 12.758V9.788C138.529 9.722 138.485 9.678 138.419 9.678H136.549C136.483 9.678 136.439 9.722 136.439 9.788V12.758C136.439 12.824 136.395 12.868 136.329 12.868H134.371C134.305 12.868 134.261 12.912 134.261 12.978V14.408C134.261 14.474 134.305 14.518 134.371 14.518H136.329C136.395 14.518 136.439 14.562 136.439 14.628V21.404C136.439 23.208 137.495 24.044 139.321 24H141.015C141.081 24 141.125 23.956 141.125 23.89V22.24ZM142.587 26.596V28.246C142.587 28.312 142.631 28.356 142.697 28.356H145.557C147.339 28.356 147.999 27.696 148.637 25.914L149.275 24L153.037 12.978C153.059 12.912 152.993 12.868 152.927 12.868H150.925C150.859 12.868 150.837 12.912 150.815 12.978L147.911 21.822C147.867 21.932 147.735 21.932 147.691 21.822L144.809 12.978C144.787 12.912 144.765 12.868 144.699 12.868H142.697C142.631 12.868 142.543 12.89 142.565 12.978L146.283 23.89L146.481 24.484C146.877 25.65 146.481 26.486 145.183 26.486H142.697C142.631 26.486 142.587 26.53 142.587 26.596ZM156.881 23.89C156.881 23.956 156.925 24 156.991 24H158.861C158.927 24 158.971 23.956 158.971 23.89V10.492C158.971 10.426 159.015 10.382 159.081 10.382H163.327C163.393 10.382 163.437 10.338 163.437 10.272V8.622C163.437 8.556 163.393 8.512 163.327 8.512H152.525C152.459 8.512 152.415 8.556 152.415 8.622V10.272C152.415 10.338 152.459 10.382 152.525 10.382H156.771C156.815 10.382 156.859 10.426 156.881 10.47V23.89ZM165.483 8.512C165.417 8.512 165.373 8.556 165.373 8.622V23.89C165.373 23.956 165.417 24 165.483 24H167.353C167.419 24 167.463 23.956 167.463 23.89V17.84C167.463 16.124 168.519 14.518 170.367 14.518C172.545 14.518 173.293 16.168 173.293 17.84V23.89C173.293 23.956 173.337 24 173.403 24H175.273C175.339 24 175.383 23.956 175.383 23.89V17.84C175.383 14.98 173.997 12.648 170.587 12.648C169.443 12.648 168.365 13.154 167.705 13.99C167.617 14.1 167.463 14.056 167.463 13.946V8.622C167.463 8.556 167.419 8.512 167.353 8.512H165.483ZM184.059 14.518C184.125 14.518 184.169 14.474 184.169 14.408V12.758C184.169 12.692 184.125 12.648 184.059 12.648H182.937C181.837 12.648 181.023 13.242 180.275 13.99C180.209 14.056 180.077 14.1 180.033 13.968L179.813 12.978C179.791 12.912 179.769 12.868 179.703 12.868H178.053C177.987 12.868 177.943 12.912 177.943 12.978V23.89C177.943 23.956 177.987 24 178.053 24H179.923C179.989 24 180.033 23.956 180.033 23.89V17.84C180.033 16.124 181.089 14.518 182.937 14.518H184.059ZM187.312 19.182H195.518C195.584 19.182 195.606 19.138 195.628 19.072C195.672 18.896 195.694 18.654 195.694 18.434C195.694 15.002 193.758 12.648 190.326 12.648C186.916 12.648 184.98 14.98 184.98 18.434C184.98 21.866 187.026 24.22 190.326 24.22C192.812 24.22 194.77 22.966 195.342 20.81C195.364 20.722 195.298 20.7 195.232 20.7H193.274C193.208 20.7 193.164 20.722 193.12 20.81C192.658 21.69 191.888 22.35 190.326 22.35C188.368 22.35 187.202 20.898 187.202 19.292C187.202 19.226 187.246 19.182 187.312 19.182ZM193.406 17.422C193.406 17.488 193.362 17.532 193.296 17.532H187.312C187.268 17.532 187.202 17.488 187.202 17.422C187.202 16.388 188.192 14.518 190.326 14.518C192.504 14.518 193.406 16.168 193.406 17.422ZM200.073 19.182H208.279C208.345 19.182 208.367 19.138 208.389 19.072C208.433 18.896 208.455 18.654 208.455 18.434C208.455 15.002 206.519 12.648 203.087 12.648C199.677 12.648 197.741 14.98 197.741 18.434C197.741 21.866 199.787 24.22 203.087 24.22C205.573 24.22 207.531 22.966 208.103 20.81C208.125 20.722 208.059 20.7 207.993 20.7H206.035C205.969 20.7 205.925 20.722 205.881 20.81C205.419 21.69 204.649 22.35 203.087 22.35C201.129 22.35 199.963 20.898 199.963 19.292C199.963 19.226 200.007 19.182 200.073 19.182ZM206.167 17.422C206.167 17.488 206.123 17.532 206.057 17.532H200.073C200.029 17.532 199.963 17.488 199.963 17.422C199.963 16.388 200.953 14.518 203.087 14.518C205.265 14.518 206.167 16.168 206.167 17.422Z" fill="#043623"></path>
</svg>