<svg xmlns="http://www.w3.org/2000/svg" id="Layer_1" viewBox="0 0 400 400"><defs><style>.cls-1,.cls-2{fill:#231f20;stroke-width:0}.cls-1{fill-rule:evenodd}</style></defs><path d="M18.28 258.63v-22.37h7.33c2.36 0 4.42.48 6.17 1.43s3.11 2.27 4.07 3.95 1.44 3.61 1.44 5.8-.48 4.12-1.44 5.81c-.96 1.69-2.32 3.01-4.07 3.96-1.75.95-3.81 1.43-6.17 1.43h-7.33Zm4.12-3.6h3.3c1.52 0 2.84-.32 3.95-.95s1.98-1.51 2.6-2.64c.62-1.13.93-2.47.93-4.01s-.31-2.88-.93-4.01a6.58 6.58 0 0 0-2.6-2.63c-1.11-.62-2.43-.93-3.95-.93h-3.3v15.17ZM40.18 240.46v-4.2h3.96v4.2h-3.96Zm0 18.17v-16.34h3.96v16.34h-3.96ZM55.7 265.24c-1.22 0-2.35-.2-3.39-.6s-1.94-.96-2.69-1.67-1.3-1.55-1.64-2.51l3.66-1.38c.24.76.72 1.38 1.43 1.85.71.47 1.58.71 2.6.71.8 0 1.51-.15 2.12-.45.61-.3 1.09-.74 1.44-1.31s.53-1.26.53-2.06v-3.72l.72.9c-.56.98-1.31 1.72-2.24 2.22-.93.5-2.01.75-3.23.75-1.5 0-2.85-.35-4.05-1.05-1.2-.7-2.15-1.66-2.84-2.88s-1.04-2.59-1.04-4.11.35-2.91 1.04-4.11c.69-1.2 1.63-2.15 2.81-2.84 1.18-.69 2.52-1.04 4.02-1.04 1.22 0 2.29.25 3.21.77.92.51 1.69 1.25 2.31 2.21l-.51.99v-3.6h3.72v15.53c0 1.42-.35 2.69-1.04 3.81-.69 1.12-1.63 2-2.82 2.64-1.19.64-2.57.96-4.13.96Zm-.18-10.91c.84 0 1.58-.19 2.21-.56.63-.37 1.13-.89 1.49-1.55.36-.66.54-1.42.54-2.28s-.19-1.59-.56-2.25c-.37-.66-.87-1.18-1.5-1.56-.63-.38-1.36-.57-2.18-.57s-1.56.19-2.22.57c-.66.38-1.18.9-1.55 1.56-.37.66-.56 1.41-.56 2.25s.18 1.59.56 2.25c.37.66.88 1.18 1.53 1.56.65.38 1.4.57 2.24.57ZM67.29 240.46v-4.2h3.96v4.2h-3.96Zm0 18.17v-16.34h3.96v16.34h-3.96ZM82.34 258.81c-1.84 0-3.27-.51-4.29-1.52s-1.53-2.44-1.53-4.28v-7.21h-2.79v-3.51h.3c.8 0 1.42-.21 1.85-.63.43-.42.65-1.03.65-1.83v-1.26h3.96v3.72h3.75v3.51h-3.75v7c0 .54.09 1 .29 1.38.19.38.49.67.9.87.41.2.94.3 1.58.3.14 0 .31 0 .5-.03l.56-.06v3.36c-.28.04-.6.08-.96.12s-.69.06-.99.06ZM92.19 258.99c-1.14 0-2.14-.19-2.99-.57-.85-.38-1.51-.93-1.97-1.64-.46-.71-.69-1.54-.69-2.48s.21-1.71.62-2.42c.41-.71 1.04-1.31 1.88-1.79s1.9-.82 3.18-1.02l5.32-.87v3l-4.56.81c-.78.14-1.36.39-1.74.74-.38.35-.57.82-.57 1.4s.21 1.01.65 1.34c.43.33.97.5 1.61.5.82 0 1.55-.17 2.18-.53.63-.35 1.12-.84 1.46-1.46.34-.62.51-1.29.51-2.01v-4.23c0-.7-.27-1.29-.81-1.76s-1.26-.71-2.16-.71c-.84 0-1.59.23-2.24.69-.65.46-1.13 1.05-1.43 1.77l-3.21-1.56c.32-.86.83-1.61 1.52-2.24.69-.63 1.51-1.13 2.45-1.49s1.96-.54 3.06-.54c1.34 0 2.52.25 3.54.74s1.82 1.18 2.39 2.06c.57.88.86 1.89.86 3.03v10.87h-3.72v-2.79l.84-.03c-.42.68-.93 1.26-1.52 1.74s-1.25.84-1.98 1.08c-.73.24-1.55.36-2.45.36ZM104.62 258.63V235.9h3.96v22.73h-3.96ZM116.06 258.63l7.72-22.37h5.29l7.72 22.37h-4.44l-1.59-4.77h-8.65l-1.62 4.77h-4.41Zm7.21-8.41h6.28l-3.69-11.11H127l-3.72 11.11ZM145.16 258.99c-1.74 0-3.26-.42-4.55-1.25s-2.19-1.96-2.69-3.38l2.97-1.41c.42.92 1.01 1.64 1.76 2.16.75.52 1.59.78 2.51.78.7 0 1.26-.16 1.68-.48s.63-.74.63-1.26c0-.32-.09-.59-.26-.8-.17-.21-.4-.39-.68-.54-.28-.15-.6-.28-.96-.38l-2.67-.75c-1.36-.38-2.4-.99-3.11-1.82-.71-.83-1.07-1.81-1.07-2.93 0-1 .26-1.88.77-2.63s1.22-1.34 2.13-1.76c.91-.42 1.96-.63 3.14-.63 1.54 0 2.9.37 4.08 1.11 1.18.74 2.02 1.78 2.52 3.12l-3 1.41c-.28-.74-.75-1.33-1.41-1.76s-1.4-.65-2.22-.65c-.66 0-1.18.15-1.56.44s-.57.69-.57 1.19c0 .28.08.53.24.75.16.22.39.4.68.54.29.14.63.27 1.01.39l2.61.78c1.34.4 2.38 1 3.11 1.8s1.1 1.78 1.1 2.94c0 .98-.26 1.85-.78 2.6s-1.24 1.34-2.16 1.76c-.92.42-2 .63-3.24.63ZM160.59 258.99c-1.74 0-3.26-.42-4.55-1.25s-2.19-1.96-2.69-3.38l2.97-1.41c.42.92 1.01 1.64 1.76 2.16.75.52 1.59.78 2.51.78.7 0 1.26-.16 1.68-.48s.63-.74.63-1.26c0-.32-.09-.59-.26-.8-.17-.21-.4-.39-.68-.54-.28-.15-.6-.28-.96-.38l-2.67-.75c-1.36-.38-2.4-.99-3.11-1.82-.71-.83-1.07-1.81-1.07-2.93 0-1 .26-1.88.77-2.63s1.22-1.34 2.13-1.76c.91-.42 1.96-.63 3.14-.63 1.54 0 2.9.37 4.08 1.11 1.18.74 2.02 1.78 2.52 3.12l-3 1.41c-.28-.74-.75-1.33-1.41-1.76s-1.4-.65-2.22-.65c-.66 0-1.18.15-1.56.44s-.57.69-.57 1.19c0 .28.08.53.24.75.16.22.39.4.68.54.29.14.63.27 1.01.39l2.61.78c1.34.4 2.38 1 3.11 1.8s1.1 1.78 1.1 2.94c0 .98-.26 1.85-.78 2.6s-1.24 1.34-2.16 1.76c-.92.42-2 .63-3.24.63ZM169.78 240.46v-4.2h3.96v4.2h-3.96Zm0 18.17v-16.34h3.96v16.34h-3.96ZM183.6 258.99c-1.74 0-3.26-.42-4.55-1.25s-2.19-1.96-2.69-3.38l2.97-1.41c.42.92 1.01 1.64 1.76 2.16.75.52 1.59.78 2.51.78.7 0 1.26-.16 1.68-.48s.63-.74.63-1.26c0-.32-.09-.59-.26-.8-.17-.21-.4-.39-.68-.54-.28-.15-.6-.28-.96-.38l-2.67-.75c-1.36-.38-2.4-.99-3.11-1.82-.71-.83-1.07-1.81-1.07-2.93 0-1 .26-1.88.77-2.63s1.22-1.34 2.13-1.76c.91-.42 1.96-.63 3.14-.63 1.54 0 2.9.37 4.08 1.11 1.18.74 2.02 1.78 2.52 3.12l-3 1.41c-.28-.74-.75-1.33-1.41-1.76s-1.4-.65-2.22-.65c-.66 0-1.18.15-1.56.44s-.57.69-.57 1.19c0 .28.08.53.24.75.16.22.39.4.68.54.29.14.63.27 1.01.39l2.61.78c1.34.4 2.38 1 3.11 1.8s1.1 1.78 1.1 2.94c0 .98-.26 1.85-.78 2.6s-1.24 1.34-2.16 1.76c-.92.42-2 .63-3.24.63ZM200.26 258.81c-1.84 0-3.27-.51-4.29-1.52s-1.53-2.44-1.53-4.28v-7.21h-2.79v-3.51h.3c.8 0 1.42-.21 1.85-.63.43-.42.65-1.03.65-1.83v-1.26h3.96v3.72h3.75v3.51h-3.75v7c0 .54.09 1 .29 1.38.19.38.49.67.9.87.41.2.94.3 1.58.3.14 0 .3 0 .5-.03l.56-.06v3.36c-.28.04-.6.08-.96.12s-.69.06-.99.06ZM210.11 258.99c-1.14 0-2.14-.19-2.99-.57-.85-.38-1.51-.93-1.97-1.64-.46-.71-.69-1.54-.69-2.48s.21-1.71.62-2.42c.41-.71 1.04-1.31 1.88-1.79s1.9-.82 3.18-1.02l5.32-.87v3l-4.56.81c-.78.14-1.36.39-1.74.74-.38.35-.57.82-.57 1.4s.21 1.01.65 1.34c.43.33.97.5 1.61.5.82 0 1.55-.17 2.18-.53s1.12-.84 1.46-1.46c.34-.62.51-1.29.51-2.01v-4.23c0-.7-.27-1.29-.81-1.76s-1.26-.71-2.16-.71c-.84 0-1.59.23-2.24.69-.65.46-1.13 1.05-1.43 1.77l-3.21-1.56c.32-.86.83-1.61 1.52-2.24.69-.63 1.51-1.13 2.45-1.49.94-.36 1.96-.54 3.06-.54 1.34 0 2.52.25 3.54.74s1.82 1.18 2.39 2.06c.57.88.86 1.89.86 3.03v10.87h-3.72v-2.79l.84-.03c-.42.68-.93 1.26-1.52 1.74s-1.25.84-1.98 1.08c-.73.24-1.55.36-2.45.36ZM222.54 258.63v-16.34h3.72v3.21l-.3-.57c.38-.98 1.01-1.73 1.88-2.24.87-.51 1.89-.77 3.05-.77s2.27.26 3.2.78c.93.52 1.66 1.25 2.18 2.18.52.93.78 2.01.78 3.23v10.51h-3.93v-9.58c0-.72-.14-1.34-.42-1.86-.28-.52-.67-.92-1.17-1.2-.5-.28-1.07-.42-1.71-.42s-1.21.14-1.71.42c-.5.28-.89.68-1.17 1.2-.28.52-.42 1.14-.42 1.86v9.58h-3.96ZM247.83 258.81c-1.84 0-3.27-.51-4.29-1.52s-1.53-2.44-1.53-4.28v-7.21h-2.79v-3.51h.3c.8 0 1.42-.21 1.85-.63.43-.42.65-1.03.65-1.83v-1.26h3.96v3.72h3.75v3.51h-3.75v7c0 .54.1 1 .29 1.38.19.38.49.67.9.87s.94.3 1.58.3c.14 0 .3 0 .5-.03l.56-.06v3.36c-.28.04-.6.08-.96.12s-.69.06-.99.06ZM258.43 258.63v-22.37h8.38c1.52 0 2.87.28 4.04.83 1.17.55 2.09 1.35 2.75 2.4.66 1.05.99 2.34.99 3.86s-.33 2.75-1.01 3.8-1.59 1.85-2.75 2.4-2.5.83-4.02.83h-4.26v8.26h-4.11Zm4.11-11.86h4.32c.72 0 1.35-.14 1.89-.43.54-.29.96-.7 1.28-1.22s.47-1.12.47-1.8-.16-1.31-.47-1.82c-.31-.51-.74-.91-1.28-1.2-.54-.29-1.17-.44-1.89-.44h-4.32v6.91ZM277.56 258.63V235.9h3.96v22.73h-3.96ZM290.11 258.99c-1.14 0-2.14-.19-2.99-.57-.85-.38-1.51-.93-1.97-1.64-.46-.71-.69-1.54-.69-2.48s.21-1.71.62-2.42c.41-.71 1.04-1.31 1.88-1.79s1.9-.82 3.18-1.02l5.32-.87v3l-4.56.81c-.78.14-1.36.39-1.74.74-.38.35-.57.82-.57 1.4s.21 1.01.65 1.34c.43.33.96.5 1.61.5.82 0 1.55-.17 2.18-.53s1.12-.84 1.46-1.46c.34-.62.51-1.29.51-2.01v-4.23c0-.7-.27-1.29-.81-1.76s-1.26-.71-2.16-.71c-.84 0-1.59.23-2.24.69-.65.46-1.13 1.05-1.43 1.77l-3.21-1.56c.32-.86.83-1.61 1.52-2.24s1.51-1.13 2.45-1.49 1.96-.54 3.06-.54c1.34 0 2.52.25 3.54.74s1.82 1.18 2.39 2.06c.57.88.86 1.89.86 3.03v10.87h-3.72v-2.79l.84-.03c-.42.68-.93 1.26-1.52 1.74s-1.25.84-1.98 1.08c-.73.24-1.55.36-2.45.36ZM309.72 258.81c-1.84 0-3.27-.51-4.29-1.52s-1.53-2.44-1.53-4.28v-7.21h-2.79v-3.51h.3c.8 0 1.42-.21 1.85-.63.43-.42.65-1.03.65-1.83v-1.26h3.96v3.72h3.75v3.51h-3.75v7c0 .54.1 1 .29 1.38.19.38.49.67.9.87s.94.3 1.58.3c.14 0 .3 0 .5-.03l.56-.06v3.36c-.28.04-.6.08-.96.12s-.69.06-.99.06ZM316.57 258.63v-12.82h-2.88v-3.51h2.88v-.51c0-1.26.25-2.33.75-3.2.5-.87 1.22-1.54 2.15-2 .93-.46 2.03-.69 3.29-.69.24 0 .5.01.8.04.29.03.54.07.74.1v3.39c-.2-.04-.39-.06-.56-.08-.17 0-.33-.01-.46-.01-.88 0-1.56.2-2.04.59-.48.39-.72 1.01-.72 1.85v.51h3.63v3.51h-3.63v12.82h-3.93ZM334.38 258.99c-1.58 0-3.03-.37-4.34-1.11a8.53 8.53 0 0 1-3.14-3.03c-.78-1.28-1.17-2.74-1.17-4.38s.39-3.1 1.17-4.38a8.551 8.551 0 0 1 3.12-3.03c1.3-.74 2.75-1.11 4.35-1.11s3.08.37 4.38 1.11c1.3.74 2.34 1.75 3.11 3.02s1.16 2.74 1.16 4.4-.39 3.1-1.17 4.38a8.551 8.551 0 0 1-3.12 3.03c-1.3.74-2.75 1.11-4.35 1.11Zm0-3.6c.9 0 1.69-.21 2.36-.63.67-.42 1.2-1.01 1.59-1.76.39-.75.59-1.6.59-2.54s-.2-1.78-.59-2.52a4.46 4.46 0 0 0-1.59-1.74c-.67-.42-1.46-.63-2.36-.63s-1.66.21-2.34.63c-.68.42-1.22 1-1.61 1.74s-.59 1.58-.59 2.52.2 1.79.59 2.54.93 1.34 1.61 1.76c.68.42 1.46.63 2.34.63ZM345.97 258.63v-16.34h3.72v3.63l-.3-.54c.38-1.22.98-2.07 1.79-2.55s1.79-.72 2.93-.72h.96v3.51h-1.41c-1.12 0-2.02.34-2.7 1.02-.68.68-1.02 1.64-1.02 2.88v9.1h-3.96ZM357.2 258.63v-16.34h3.72v3.78l-.42-.6c.3-1.2.9-2.09 1.8-2.67.9-.58 1.96-.87 3.18-.87 1.34 0 2.52.35 3.54 1.05 1.02.7 1.68 1.62 1.98 2.76l-1.11.09c.5-1.3 1.25-2.28 2.25-2.93s2.15-.98 3.45-.98c1.16 0 2.2.26 3.11.78s1.63 1.25 2.15 2.18c.52.93.78 2.01.78 3.23v10.51h-3.93v-9.58c0-.72-.13-1.34-.39-1.86s-.63-.92-1.1-1.2c-.47-.28-1.03-.42-1.67-.42s-1.17.14-1.65.42-.85.68-1.11 1.2c-.26.52-.39 1.14-.39 1.86v9.58h-3.93v-9.58c0-.72-.13-1.34-.39-1.86s-.63-.92-1.1-1.2c-.47-.28-1.03-.42-1.67-.42s-1.17.14-1.65.42-.85.68-1.11 1.2c-.26.52-.39 1.14-.39 1.86v9.58h-3.96Z" class="cls-2"/><path d="m363.18 164.65-1.43-8.74h-17.81v57.71h21.75v-25.69c0-6.41 1.75-11.07 6.48-12.81 3.3-1.22 9.43-.22 12.58.8l7-18.25c-4.65-2.14-10.92-3.74-16.98-2.04-4.16 1.16-8.22 3.88-11.6 9.01M244.14 183.57l20.32-27.66h-24.04l-9.18 15.3h-.43l-9.19-15.3h-25.59l20.01 27.1-22.18 30.62h24.15l11.04-18.16h.44l10.93 18.16h25.36M186.09 213.63v-57.72h-21.75v57.72M135.81 213.63l21.21-57.72h-21.21l-8.86 34.11h-.76l-8.75-34.11H95.8l-9.07 34.11h-.77l-8.75-34.11H53.82l21.1 57.72h21.21l9.07-32.15h.44l8.97 32.15M175.16 124.46c5.9 0 10.71 4.81 10.71 10.71s-4.82 10.7-10.71 10.7-10.71-4.81-10.71-10.7 4.81-10.71 10.71-10.71M38.08 155.91v-17.5H17.2v17.5H8.23v14.75h8.1v28.86c0 7.38 3.21 11.56 8.48 13.66 8.12 3.22 19.67 1.83 27.69-.88l-4.24-13.12c-2.17.53-5.47 1.93-7.58.76-1.96-1.07-2.59-3.92-2.59-7.3v-21.98h12.25v-14.75" class="cls-1"/><path d="M300.95 170.62c9.88 0 16.32 5 16.32 15.16 0 5.76-2.09 9.87-5.68 12.34l-.12 5.33c-.01.55-.54.7-1.17.3l-4.76-3.22c-1.43.27-2.96.41-4.58.41-9.89 0-16.36-5-16.36-15.16s6.48-15.16 16.36-15.16m-.09-16.02c-19.67 0-32.46 9.95-32.46 30.18 0 11.48 4.12 19.66 11.3 24.57.09 3.54.16 7.08.24 10.61.03 1.09 1.1 1.39 2.32.59l9.49-6.41c2.84.55 5.89.82 9.11.82 19.68 0 32.57-9.97 32.57-30.19s-12.89-30.18-32.57-30.18Z" style="fill:#207dac;fill-rule:evenodd;stroke-width:0"/></svg>