<svg xmlns="http://www.w3.org/2000/svg" viewBox="0 0 536.2 94"><defs><style>.cls-1{fill:#2c8ab3}</style></defs><g id="Layer_2" data-name="Layer 2"><g id="Layer_1-2" data-name="Layer 1"><path class="cls-1" d="M0 21.18h13.5l17.87 25.68 17.87-25.68h13.9v.4l-24.75 35.6 24.22 36.41V94H48.84L31.37 67 14 94H.53v-.79l23.83-36L0 22.24zM129.32 70.42H91.73l-9 23.43H68.3L105.49 0h9.8l37.2 93.85h-14.3zM96.63 57.85h27.79l-13.9-36.54zM194 1.19c20 0 30.05 15.49 30.05 31S214 63 194 63h-20.34v30.85h-13.5V1.19zm0 48.58c11.25 0 16.81-8.74 16.81-17.47S205.29 14.69 194 14.69h-20.34v35.08zM233.49 94V1.19h13.37V94zM270.41 85a8.33 8.33 0 0 1-8.33 8.07c-4.37 0-7.95-4.1-7.95-8.07a7.87 7.87 0 0 1 7.95-8.21c4.92 0 8.33 3.31 8.33 8.21zM378.56 94c-19.2 0-38.39-12.44-38.39-37.06S359.5 19.87 379 19.87s38.39 12.45 38.39 37.07S398 94 378.56 94zm0-11.65c13 .13 25.94-8.47 25.94-25.41S391.66 31.39 379 31.39c-13 0-25.81 8.47-25.81 25.55-.05 16.81 12.66 25.28 25.37 25.41zM440.5 19.87v10.06c4.9-7.14 11.78-10.06 20.12-10.06 10.06 0 19.06 2.39 24.36 12.45 4.36-7.95 12.44-12.31 22.9-12.45 19.72 0 28.32 13.9 28.32 32v40.81h-13V52c0-10.06-2.51-20.12-15-20.12-12.7 0-19.06 8.74-19.06 20.38v40.42h-13V52.44c0-10.06-3.84-20.52-15.75-20.52-11.39 0-20 7.81-20 21.84v38.92h-13V19.87zM327.42 75.12a23.21 23.21 0 0 1-17.3 7.36c-12.31 0-24.48-8.34-24.48-25.55S298 31.52 310 31.52a23.49 23.49 0 0 1 17.44 7.41l8.83-8.83c-7-6.73-16.7-10.1-26.4-10.1-18.66 0-37.2 12.18-37.2 36.93s18.8 37.2 37.46 36.94c9.57-.08 19.11-3.39 26.06-10z"/></g></g></svg>