<?xml version="1.0" ?>

<!-- Creator: CorelDRAW X8 -->
<svg xmlns="http://www.w3.org/2000/svg"  xml:space="preserve" version="1.1" shape-rendering="geometricPrecision" text-rendering="geometricPrecision" image-rendering="optimizeQuality" fill-rule="evenodd" clip-rule="evenodd" viewBox="0 0 345 345">
	<g id="Слой_x0020_1">
		<circle fill="#FEFEFE" cx="173" cy="173" r="173"/>
		<g id="_1761169740384">
			<path fill="#65331D" d="M181 161l1 1 0 1 1 0 1 1 0 0 1 2 1 0 0 2c2,2 4,7 4,9 2,4 3,7 4,10 -3,0 -3,-1 -7,0 -7,1 -20,1 -25,-2 -7,-4 -14,-21 -14,-23 7,0 27,-9 33,-1zm16 -12c-6,-3 -9,-7 -18,-11 -8,-4 -12,-4 -24,-4l3 2c2,1 3,1 5,2 2,1 6,3 7,5 -4,-1 -12,-1 -17,-1 -17,0 -33,8 -39,19 4,-1 5,-3 12,-3 0,0 -3,3 -7,8 -13,16 -12,47 -7,51 0,-3 2,-8 4,-10 1,-3 3,-7 6,-7 0,23 16,40 34,52 0,-1 1,-6 1,-7 1,-3 2,-5 3,-8 10,-29 39,-40 68,-43 4,-1 15,-2 18,-1 -1,-4 -3,-6 -6,-9 -3,-3 -4,-4 -7,-8 8,1 18,14 23,20 3,4 3,2 13,1 3,0 4,1 8,1 -1,-10 -5,-5 -5,-26 2,1 2,1 2,3 2,3 5,10 5,13l12 0c-2,-4 -3,-4 -4,-7 -7,-9 -6,-10 -6,-20 0,-4 1,-14 5,-14 2,0 2,2 3,3 0,-13 -4,-19 -5,-24 -2,0 -5,3 -6,4 -1,1 -1,1 -2,1l-2 2c-2,2 -5,6 -7,9l-4 6c-1,1 0,1 -1,1 0,-6 1,-17 3,-22 -14,4 -12,30 -27,30 -13,0 -17,-7 -28,-16 -2,-2 -4,-3 -6,-5 -6,-4 -14,-10 -22,-10 2,5 14,13 15,23z"/>
			<path fill="#C1A67B" d="M42 105c0,18 1,29 9,45 1,3 5,8 6,9 0,-4 -3,-23 -2,-31 1,-4 1,-11 1,-16 2,-15 7,-24 17,-34 19,-18 42,-10 62,0 -1,-5 -14,-14 -18,-17 -4,-2 -9,-3 -13,-5 -19,-5 -39,-2 -51,14 -6,8 -11,22 -11,35z"/>
			<path fill="#C1A67B" d="M261 288l-12 3c-29,6 -64,1 -92,-10 -10,-4 -20,-8 -30,-14l-18 -11c-4,-3 -6,-5 -9,-7 -3,-2 -5,-4 -8,-6l-8 -8c4,0 7,3 12,3l-8 -9c-2,-2 -3,-3 -5,-5 -10,-11 -11,-13 -19,-25 7,0 11,2 17,2 0,-1 -9,-17 -11,-19l0 11c-5,0 -9,-1 -12,-3 -4,-3 -8,-6 -10,-6 1,3 3,9 5,13l16 25c1,2 1,2 -1,2 -3,1 -7,0 -9,0 0,2 6,7 8,9 13,13 18,17 33,27 13,9 27,16 42,21 4,2 8,3 12,5 5,1 9,2 15,3 10,3 18,4 30,5 7,1 25,2 33,1 3,0 6,-1 8,-1l15 -3c2,-1 4,-1 6,-3z"/>
			<path fill="#65331D" d="M128 57c10,2 22,6 30,10 17,9 12,7 26,16 -1,-3 -5,-8 -7,-10l-7 -10c6,0 21,9 26,12 3,2 6,4 9,5 0,-3 -1,-6 -2,-8 -1,-3 -3,-5 -3,-8 6,1 24,19 28,20 -1,-7 -9,-17 -13,-23 -2,-3 -6,-4 -8,-5 -22,-9 -53,-11 -75,-2 -2,1 -3,1 -4,3z"/>
			<path fill="#020101" d="M284 238l1 0c0,0 -1,0 -1,0zm-31 -19c1,4 3,5 5,7l2 -2c4,-2 6,-3 10,1 7,6 1,10 -5,10 1,6 11,14 14,15 1,-2 2,-3 3,-5 1,-3 1,-4 3,-6 1,3 -1,8 -1,12l5 -3c4,-2 10,-8 10,-14 -4,0 -5,-2 -7,-5 1,-4 3,-6 6,-8 3,1 2,2 6,2 3,-6 -1,-8 -6,-10 -11,-5 -39,-3 -45,6z"/>
			<path fill="#65331D" d="M113 104c-6,0 -8,0 -12,-2l-10 -4c0,9 3,10 3,16 -6,0 -4,-3 -12,-8 -1,3 -3,5 -3,8 -1,3 -2,6 -3,8 -2,7 -4,26 -2,33l1 3 4 -21c1,-8 3,-14 6,-20 4,3 20,10 25,10 -1,-3 -6,-12 -7,-15 7,0 18,2 23,0 -1,-4 -7,-7 -8,-12 5,0 8,1 12,0 2,0 4,0 5,0 2,-1 2,-1 3,-1 0,0 0,0 0,0l2 -2c-3,0 -9,0 -11,-1 -18,-4 -22,-10 -26,-11 2,4 1,4 4,10 2,3 5,7 6,9z"/>
			<path fill="#C1A67B" d="M227 60c2,2 4,3 6,4 7,4 12,6 19,11 13,10 18,19 20,21 0,-12 -3,-21 -8,-28 -10,-19 -30,-17 -37,-8z"/>
			<path fill="#683722" d="M183 230l0 0c0,0 0,0 0,0zm-17 23c3,0 9,-3 14,-4 6,-1 9,-2 16,-2 0,-2 0,-2 -3,-3 -4,0 -11,1 -16,0 1,-7 6,-6 11,-7l22 -1c4,0 4,1 7,1l-15 -5c-6,0 -13,0 -18,-1 1,-12 27,-8 32,-8 -1,-4 -5,-3 -10,-4 -4,0 -9,0 -13,-1 4,-5 8,-3 10,-8 -2,1 -5,1 -7,2 -8,4 -11,7 -17,13 -5,5 -13,19 -13,28z"/>
			<path fill="#683722" d="M288 269c-5,0 -9,-6 -12,-6 -3,0 -8,3 -11,4 -5,2 -8,3 -13,4 -7,2 -17,5 -26,5l0 0c9,0 14,0 22,-1 3,-1 6,-1 10,-2 21,-3 11,0 28,0 4,0 7,-3 10,-4 10,-7 13,-16 13,-29 0,0 0,0 0,0l0 1c-3,8 -5,16 -13,23 -1,1 -7,5 -8,5z"/>
			<path fill="#040404" d="M288 156c1,4 0,7 -4,6 0,5 1,12 4,15 6,-2 7,-18 1,-22 -1,1 -1,0 -1,1z"/>
			<path fill="#72422B" d="M288 156c0,-1 0,0 1,-1l-1 -1c-2,-1 -2,-1 -3,2 2,0 2,0 3,0z"/>
			<polygon fill="#C1A67B" points="261,288 262,288 "/>
			<path fill="#020101" d="M184 166l0 0zm-5 -3c3,0 5,2 5,5 0,2 -2,4 -5,4 -2,0 -5,-2 -5,-4 0,-3 3,-5 5,-5zm7 5l0 -2 -1 0 -1 0 0 -2 0 0 -1 -1 -1 0 0 -1 -1 -1c-3,0 -10,-6 -18,2 -12,12 3,29 16,22 10,-6 7,-14 7,-17z"/>
		</g>
	</g>
</svg>