<?xml version="1.0" ?>
<svg xmlns="http://www.w3.org/2000/svg" viewBox="0 0 128 128">
	<path d="M 447.83376,669.09921 C 367.20257,612.06806 367.20257,612.06806 367.20257,469.49018 C 401.7588,469.49018 413.27754,469.49018 447.83376,440.9746 M 447.83376,669.09921 C 528.46496,612.06806 528.46496,612.06806 528.46496,469.49018 C 493.90873,469.49018 482.38999,469.49018 447.83376,440.9746" fill="#800000" stroke="#fff" stroke-linecap="round" stroke-linejoin="round" stroke-width="1.601912" transform="matrix(-.6945203 0 0 .56109687 375.02964 -247.42947)"/>
	<ellipse cx="102.12254" cy="81.325356" fill="none" rx="11.999999" ry="12" stroke="#fff" stroke-width="6" transform="matrix(1.3333335 0 0 1.3333334 -60.16341 -48.433811)"/>
	<path d="M 81.72523,81.47195 C 81.72523,92.49177 76.73423,97.50079 65.75402,97.50079 C 54.77381,97.50079 49.78281,92.49177 49.78281,81.47195 L 49.78281,57.42868 L 57.76841,57.42868 L 57.76841,81.47195 C 57.76841,88.48456 58.76661,89.48637 65.75402,89.48637 C 72.74142,89.48637 73.73962,88.48456 73.73962,81.47195 L 73.73962,57.42868 L 81.72523,57.42868 L 81.72523,81.47195" fill="#fff" transform="matrix(1.0018026 0 0 .99820067 -17.872548 -17.32535)"/>
</svg>