<?xml version="1.0" ?>
<svg xmlns="http://www.w3.org/2000/svg" viewBox="0 0 227 50">
	<style type="text/css">.st0{fill:#003D86;}</style>
	<path class="st0" d="M14.092 38.571c-.124.125-.269.187-.434.187h-2.852c-.166 0-.31-.062-.434-.187-.124-.123-.186-.268-.186-.434v-.713c-.806.537-1.571.93-2.294 1.178-.724.248-1.581.372-2.573.372-.786 0-1.503-.104-2.154-.31-.651-.207-1.204-.537-1.659-.992-.579-.578-.982-1.338-1.209-2.278-.228-.94-.341-2.062-.341-3.364v-10.106c0-.165.062-.315.186-.45.124-.134.268-.201.434-.201h2.852c.166 0 .31.067.434.201.124.135.186.285.186.45v10.106c0 .786.046 1.411.14 1.876.093.465.284.832.573 1.101.228.186.485.326.775.418.289.094.671.141 1.147.141.289 0 .594-.042.915-.125.32-.082.635-.186.945-.31s.604-.259.883-.403l.76-.402v-12.4c0-.165.062-.315.186-.45.124-.134.268-.201.434-.201h2.852c.166 0 .31.067.434.201.124.135.186.285.186.45v16.213c0 .164-.062.309-.186.432zM32.785 37.362c0 .229-.052.398-.155.512-.104.114-.331.223-.682.326-.972.248-2.005.444-3.1.588-1.096.145-2.139.218-3.131.218-2.501 0-4.361-.687-5.58-2.062-1.22-1.374-1.829-3.281-1.829-5.72v-2.387c0-2.438.609-4.345 1.829-5.72 1.219-1.374 3.079-2.062 5.58-2.062.372 0 .816.016 1.333.047.516.031 1.064.088 1.643.17v-5.487c0-.165.062-.31.186-.434s.269-.186.434-.186h2.852c.165 0 .31.062.434.186s.186.269.186.434v21.577zm-4.092-12.741c-.434-.062-.945-.113-1.534-.155-.589-.041-1.07-.062-1.441-.062-.662 0-1.209.114-1.643.341-.434.228-.775.538-1.023.93-.248.393-.418.858-.512 1.396-.093.537-.14 1.126-.14 1.767v2.387c0 .642.047 1.229.14 1.767.093.538.264 1.004.512 1.396.248.394.589.703 1.023.931.434.227.981.34 1.643.34.558 0 1.121-.02 1.689-.062.568-.041.997-.093 1.286-.155v-10.821zM116.655 23.565c-1.426 0-2.729.372-4.279 1.302v12.991c0 .311-.279.621-.62.621h-1.52c-.31 0-.589-.279-.589-.621v-15.812c0-.341.248-.62.589-.62h1.458c.341 0 .589.279.589.62v.651c1.55-1.085 2.977-1.488 4.372-1.488.434 0 .651.186.651.558v1.271c0 .341-.217.527-.651.527zM132.684 30.82h-10.387v.435c0 3.689 1.458 5.054 4.31 5.054 1.798 0 4.093-.124 5.518-.341h.155c.248 0 .496.124.496.434v1.055c0 .402-.124.62-.62.713-1.767.341-3.472.527-5.549.527-3.566 0-7.039-1.675-7.039-7.441v-2.791c0-4.434 2.45-7.255 6.883-7.255 4.527 0 6.821 2.853 6.821 7.255v1.675c0 .402-.216.68-.588.68zm-2.171-2.356c0-3.503-1.333-4.868-4.062-4.868-2.667 0-4.155 1.519-4.155 4.868v.279h8.216v-.279zM142.602 38.696c-1.146 0-3.379-.094-4.898-.465-.403-.094-.651-.279-.651-.621v-1.085c0-.278.248-.465.559-.465h.124c1.488.187 3.751.341 4.867.341 2.016 0 3.07-.527 3.07-2.201 0-.93-.559-1.52-2.326-2.573l-3.131-1.86c-1.892-1.147-3.163-2.48-3.163-4.434 0-3.225 2.419-4.124 5.612-4.124 1.736 0 3.38.155 4.837.403.403.062.589.279.589.62v1.023c0 .372-.217.527-.527.527h-.093c-1.085-.093-3.069-.248-4.806-.248s-2.884.217-2.884 1.798c0 .93.713 1.519 2.14 2.356l3.069 1.83c2.573 1.52 3.411 2.853 3.411 4.682-.001 3.162-2.327 4.496-5.799 4.496zM165.232 30.82h-10.387v.435c0 3.689 1.457 5.054 4.31 5.054 1.799 0 4.093-.124 5.52-.341h.155c.248 0 .496.124.496.434v1.055c0 .402-.124.62-.62.713-1.768.341-3.473.527-5.551.527-3.565 0-7.038-1.675-7.038-7.441v-2.791c0-4.434 2.449-7.255 6.884-7.255 4.526 0 6.821 2.853 6.821 7.255v1.675c0 .402-.218.68-.59.68zm-2.17-2.356c0-3.503-1.333-4.868-4.062-4.868-2.667 0-4.155 1.519-4.155 4.868v.279h8.217v-.279zM172.64 38.479h-1.612c-.31 0-.558-.279-.558-.621v-22.106c0-.311.217-.589.558-.589h1.612c.311 0 .559.248.559.589v22.106c-.001.311-.219.621-.559.621zM180.823 38.479h-1.612c-.31 0-.558-.279-.558-.621v-22.106c0-.311.217-.589.558-.589h1.612c.311 0 .559.248.559.589v22.106c0 .311-.218.621-.559.621zM189.038 18.697h-1.581c-.342 0-.62-.279-.62-.62v-2.48c0-.341.278-.62.62-.62h1.581c.341 0 .62.279.62.62v2.48c0 .341-.279.62-.62.62zm-.062 19.782h-1.488c-.341 0-.62-.279-.62-.621v-15.812c0-.341.279-.62.62-.62h1.488c.342 0 .62.279.62.62v15.813c0 .341-.279.62-.62.62zM207.236 38.479h-1.488c-.342 0-.62-.279-.62-.621v-10.2c0-3.132-1.055-4.093-3.411-4.093-1.302 0-2.76.496-4.186 1.209v13.084c0 .311-.279.621-.62.621h-1.52c-.31 0-.589-.279-.589-.621v-15.812c0-.341.248-.62.589-.62h1.551c.341 0 .589.279.589.62v.589c1.705-.961 3.101-1.426 4.93-1.426 3.721 0 5.396 2.325 5.396 6.449v10.2c-.001.342-.28.621-.621.621zM226.24 23.503l-1.116.217c.558.589 1.054 1.519 1.054 3.194v.248c0 3.41-2.108 5.302-6.883 5.302-1.644 0-2.697-.248-3.597-.62-.527.248-.775.589-.775 1.054 0 .527.248.807.961.992l4.62 1.179c3.039.775 5.953 1.644 5.953 4.558v.248c0 2.977-1.984 4.807-7.069 4.807-4.899 0-7.132-1.892-7.132-4.931v-.278c0-1.736.931-3.163 1.954-3.938l-.218-.093c-.992-.434-1.426-1.457-1.426-2.418v-.031c0-.838.403-1.736 1.271-2.232-.961-.899-1.427-2.016-1.427-3.597v-.248c0-2.76 1.551-5.488 6.884-5.488h6.79c.372 0 .713.31.713.682v.806c.001.401-.216.525-.557.587zm-2.511 16.123c0-1.209-.992-1.705-3.783-2.418l-3.503-.899c-.899.775-1.52 1.55-1.52 3.163v.278c0 1.736 1.023 2.821 4.465 2.821 3.534 0 4.341-.992 4.341-2.697v-.248zm-.249-12.712c0-1.86-.837-3.318-4.186-3.318-3.473 0-4.186 1.582-4.186 3.318v.248c0 1.364.619 3.162 4.186 3.162 3.349 0 4.186-1.302 4.186-3.162v-.248zM71.204 49.875c-13.754 0-24.945-11.19-24.945-24.945s11.191-24.946 24.945-24.946c13.755 0 24.945 11.19 24.945 24.945s-11.19 24.946-24.945 24.946zm0-48.19c-12.817 0-23.244 10.427-23.244 23.244s10.427 23.244 23.244 23.244 23.244-10.427 23.244-23.244-10.427-23.244-23.244-23.244zM54.798 7.779l1.252-1.151 32.306 35.142-1.252 1.151zM65.043 48.382c-.116 0-.232-.023-.343-.072-.304-.134-.502-.433-.507-.766l-.43-28.258-14.889 13.329-1.135-1.268 16.019-14.34c.042-.162.131-.309.259-.422l.149-.106 8.967-15.756c.13-.229.359-.385.62-.421.262-.038.524.049.713.233l20.69 20.163c.263.256.332.652.17.982-.051.104-.121.194-.205.267l-29.513 26.221c-.159.14-.361.214-.565.214zm.404-30.185l.418 27.466 26.75-23.763-27.168-3.703zm.627-1.63l26.048 3.549-18.055-17.595-7.993 14.046z"/>
</svg>