<?xml version="1.0" ?>
<svg xmlns="http://www.w3.org/2000/svg" version="1.2" baseProfile="tiny-ps" viewBox="0 0 5120 5120" fill-rule="evenodd">
	<path fill="#fff" d="M0 0h5120v5120H0z"/>
	<path d="M4473 799l193 157c92 76 106 211 33 304L2282 4329c-21 26-52 41-86 41h-56c-27 0-53-10-73-28L427 2853c-72-64-69-177 4-238l213-157c69-57 172-46 227 25l1169 1554c26 35 68 56 112 56 51 0 97-26 123-70L4148 857a218 218 0 01325-58z" fill="#fb9800" fill-rule="nonzero"/>
	<path d="M1369 2659l735 1213 20 35c8 8 18 13 28 12 11 0 21-5 28-15 15-21 977-2320 977-2320l-64-47c-71-51-171-18-198 65 0 0-613 1958-721 2222-15 36-24 56-57 1-115-196-563-1130-563-1130-33-66-116-86-175-44l-10 8z" fill="#fcce09" fill-rule="nonzero"/>
	<path d="M1662 2772l455 982c35 72 55-14 60-29l541-1749c-73-53-177-13-196 75l-377 1646-325-877c-23-64-103-89-158-48z" fill="#f2e864" fill-rule="nonzero"/>
	<path d="M3824 1205l-116-84a232 232 0 00-349 97S2222 3896 2189 3960a42 42 0 01-72 3l-884-1426a152 152 0 00-224-47l-35 25 1137 1513c10 14 27 23 44 23h6c20 0 38-11 48-28l1615-2818z" fill="#f3be00" fill-rule="nonzero"/>
</svg>