<svg xmlns="http://www.w3.org/2000/svg" viewBox="0 0 494 81"><g fill="none" fill-rule="evenodd"><path fill="#000" d="m203.136 28.328-14.832 2.88c-1.368-6.552-5.184-9.792-11.376-9.792-8.784 0-13.896 6.912-13.896 18.792 0 11.736 5.328 18.864 14.256 18.864 3.96 0 7.344-1.656 9.432-4.536 1.224-1.728 1.728-3.168 2.16-6.192l14.976 2.232c-1.368 6.12-2.952 9.648-5.976 13.176-4.464 5.112-11.448 7.848-20.16 7.848-8.784 0-16.2-2.736-21.312-7.92-5.328-5.4-8.352-13.824-8.352-23.472 0-9.792 3.024-18.072 8.712-23.688 4.968-4.824 12.24-7.488 20.664-7.488 9.288 0 16.56 3.168 21.24 9.432 2.304 2.952 3.528 5.616 4.464 9.864Zm28.728 43.56c-14.472 0-23.688-9.216-23.688-23.688 0-14.4 9.216-23.544 23.76-23.544 14.544 0 23.76 9.144 23.76 23.4 0 14.328-9.504 23.832-23.832 23.832Zm.144-36.432c-6.336 0-10.08 4.752-10.08 12.672 0 7.992 3.744 12.816 10.008 12.816 6.264 0 9.864-4.68 9.864-12.672 0-8.064-3.672-12.816-9.792-12.816Zm44.424 34.776h-14.904c.432-3.384.576-6.408.576-10.872V37.184c0-4.968-.144-7.992-.576-10.872h14.328v3.024c0 .432-.072 1.512-.072 2.016 4.536-4.32 8.928-6.12 14.832-6.12 4.968 0 8.928 1.368 11.592 4.032 2.88 2.88 4.104 6.408 4.104 12.096v18.072c0 4.176.216 7.776.576 10.8h-14.976c.432-3.456.576-6.48.576-10.872V44.6c0-2.88-.288-4.104-1.152-5.328-.936-1.296-2.592-2.016-4.752-2.016-4.032 0-7.632 2.52-10.728 7.56V59.36c0 4.104.144 7.128.576 10.872Zm36.288-13.104 14.256-1.584c.72 3.744 3.168 5.4 7.992 5.4 4.32 0 6.768-1.224 6.768-3.456 0-1.08-.576-2.016-1.584-2.592-1.008-.576-1.944-.864-5.904-1.656-5.472-1.08-8.28-1.8-10.656-2.592-3.456-1.296-5.832-2.952-7.2-5.112-1.152-1.944-1.8-4.392-1.8-6.84 0-8.64 7.272-13.896 19.296-13.896 6.84 0 11.952 1.512 15.336 4.608 2.376 2.088 3.528 4.176 4.68 8.208l-13.896 1.512c-.36-2.952-2.16-4.248-6.048-4.248-3.744 0-6.048 1.224-6.048 3.096 0 1.944 1.512 2.664 8.64 4.248 7.056 1.512 9.288 2.16 11.808 3.456 4.68 2.304 6.912 5.832 6.912 11.016 0 3.816-1.296 7.272-3.672 9.576-3.456 3.456-9.36 5.256-17.064 5.256-9.072 0-15.48-2.448-18.936-7.2-1.44-2.016-2.16-3.744-2.88-7.2Zm92.52-4.824h-32.4c.72 5.832 4.104 8.928 9.792 8.928 2.88 0 5.4-.936 7.272-2.664 1.08-1.008 1.584-1.8 2.16-3.672l12.528 3.528c-1.656 3.744-2.736 5.4-4.752 7.416-4.104 4.032-9.864 6.12-16.992 6.12-7.056 0-12.6-2.016-16.704-6.12-4.248-4.32-6.552-10.44-6.552-17.568 0-14.256 9.144-23.688 22.896-23.688 11.232 0 19.08 6.12 21.6 16.848.576 2.304.864 5.328 1.08 9.432 0 .288 0 .72.072 1.44Zm-32.184-9.936h18.504c-1.008-4.608-4.104-7.056-9.072-7.056-5.112 0-8.208 2.304-9.432 7.056Zm52.848 27.864H411c.432-3.384.576-6.408.576-10.872V37.184c0-4.968-.144-7.992-.576-10.872h14.328v3.024c0 .432-.072 1.512-.072 2.016 4.536-4.32 8.928-6.12 14.832-6.12 4.968 0 8.928 1.368 11.592 4.032 2.88 2.88 4.104 6.408 4.104 12.096v18.072c0 4.176.216 7.776.576 10.8h-14.976c.432-3.456.576-6.48.576-10.872V44.6c0-2.88-.288-4.104-1.152-5.328-.936-1.296-2.592-2.016-4.752-2.016-4.032 0-7.632 2.52-10.728 7.56V59.36c0 4.104.144 7.128.576 10.872Zm43.632-43.92V24.8c0-3.6-.144-6.48-.576-9.864h14.688c-.36 2.952-.576 6.408-.576 9.864v1.512h2.592c3.168 0 4.824-.072 7.056-.36v11.952c-2.16-.288-4.032-.432-6.624-.432h-3.024v18.432c0 2.016.36 3.024 1.296 3.672.792.504 1.944.792 3.312.792 1.872 0 3.24-.36 5.04-1.296l1.08 10.944c-3.24 1.008-6.048 1.44-9.936 1.44-4.896 0-8.28-.792-10.584-2.52-2.736-2.088-3.744-4.536-3.744-9.432V37.472H466.8c-2.304 0-4.176.144-6.264.432V25.88c2.088.288 3.888.432 6.408.432h2.592Z"/><path fill="#556080" d="M88.584 70.232H73.68c.432-3.384.576-6.408.576-10.872V37.184c0-4.968-.144-7.992-.576-10.872h14.328v3.024c0 .432-.072 1.512-.072 2.016 4.536-4.32 8.928-6.12 14.832-6.12 4.968 0 8.928 1.368 11.592 4.032 2.88 2.88 4.104 6.408 4.104 12.096v18.072c0 4.176.216 7.776.576 10.8h-14.976c.432-3.456.576-6.48.576-10.872V44.6c0-2.88-.288-4.104-1.152-5.328-.936-1.296-2.592-2.016-4.752-2.016-4.032 0-7.632 2.52-10.728 7.56V59.36c0 4.104.144 7.128.576 10.872ZM126.744 10.328h14.616v10.8h-14.616zM126.528 26.312h15.048c-.432 2.952-.576 5.832-.576 10.872V59.36c0 3.888.216 7.776.576 10.872h-15.048c.432-3.528.576-6.264.576-10.872V37.184c0-4.68-.144-7.632-.576-10.872ZM49.992 10.328h15.552c-.432 3.096-.576 5.688-.576 10.872v24.768c0 16.416-9.864 25.704-27.216 25.704-8.928 0-16.2-2.52-20.52-7.056-4.176-4.464-6.336-10.728-6.336-18.792V21.2c0-4.968-.144-8.136-.576-10.872h15.552c-.432 2.664-.576 5.544-.576 10.872v24.768c0 9.072 4.104 13.392 12.528 13.392 8.64 0 12.744-4.32 12.744-13.392V21.2c0-5.4-.144-7.632-.576-10.872Z"/><g fill-rule="nonzero"><path fill="#556080" d="M34 0S23.696 11.172 0 11.172v26.654c0 13.918 6.689 27.34 18.799 35.94C23.084 76.81 28.139 79.429 34 81c5.86-1.571 10.914-4.19 15.201-7.234C61.311 65.166 68 51.744 68 37.826V11.172C44.304 11.172 34 0 34 0Z"/><path fill="#4FBA6F" d="M33.5 72c-3.25-1.16-6.398-2.818-9.384-4.952C14.65 60.288 9 49.353 9 37.798V19.068C20.317 17.757 28.353 14.18 33.5 11c5.147 3.179 13.183 6.757 24.5 8.07v18.727c0 11.556-5.65 22.49-15.115 29.251-2.987 2.134-6.134 3.793-9.385 4.952Z"/><path fill="#FFF" d="M52.475 28.357c-.642-.525-1.615-.463-2.176.136l-20.5 21.95-11.167-10.465a1.614 1.614 0 0 0-2.18 0 1.38 1.38 0 0 0 0 2.043l12.333 11.556c.29.271.682.423 1.09.423h.051a1.583 1.583 0 0 0 1.109-.493l21.583-23.111c.561-.601.496-1.514-.143-2.039Z"/></g></g></svg>