<?xml version="1.0" ?>
<svg xmlns="http://www.w3.org/2000/svg" viewBox="0 0 40 40" fill="none">
	<path d="M37.3223 0H2.67769C1.19884 0 0 1.19884 0 2.67769V37.3223C0 38.8012 1.19884 40 2.67769 40H37.3223C38.8012 40 40 38.8012 40 37.3223V2.67769C40 1.19884 38.8012 0 37.3223 0Z" fill="#335EEA"/>
	<path d="M20.1829 23.0112C22.4581 23.0112 24.3025 21.1668 24.3025 18.8916C24.3025 16.6163 22.4581 14.7719 20.1829 14.7719C17.9077 14.7719 16.0632 16.6163 16.0632 18.8916C16.0632 21.1668 17.9077 23.0112 20.1829 23.0112Z" fill="white"/>
	<path d="M9.74299 21.2452C10.7686 21.2149 11.5755 20.3588 11.5451 19.3331C11.5147 18.3075 10.6586 17.5007 9.63297 17.5311C8.60733 17.5614 7.80051 18.4175 7.83089 19.4432C7.86127 20.4688 8.71735 21.2756 9.74299 21.2452Z" fill="white"/>
	<path d="M30.9779 21.2452C32.0035 21.2149 32.8103 20.3588 32.7799 19.3331C32.7496 18.3075 31.8935 17.5007 30.8678 17.5311C29.8422 17.5614 29.0354 18.4175 29.0658 19.4432C29.0961 20.4688 29.9522 21.2756 30.9779 21.2452Z" fill="white"/>
	<path d="M18.3245 8.27501C18.3246 9.3011 19.1564 10.1329 20.1825 10.1328C21.2086 10.1328 22.0404 9.30098 22.0403 8.27488C22.0403 7.24879 21.2085 6.417 20.1824 6.41704C19.1563 6.41707 18.3245 7.24891 18.3245 8.27501Z" fill="white"/>
	<path d="M18.3253 29.5082C18.3253 30.5343 19.1571 31.3661 20.1832 31.366C21.2093 31.366 22.0411 30.5342 22.0411 29.5081C22.041 28.482 21.2092 27.6502 20.1831 27.6502C19.157 27.6503 18.3252 28.4821 18.3253 29.5082Z" fill="white"/>
	<path d="M29.5047 31.7094C30.4277 32.7173 31.993 32.7861 33.0009 31.8631C34.0088 30.9401 34.0777 29.3748 33.1547 28.3669C32.2316 27.359 30.6663 27.2902 29.6584 28.2132C28.6505 29.1362 28.5817 30.7015 29.5047 31.7094Z" stroke="white" stroke-width="1.31871"/>
	<path d="M7.14121 10.5228C8.06421 11.5307 9.62952 11.5996 10.6374 10.6766C11.6453 9.75355 11.7141 8.18824 10.7911 7.18034C9.86812 6.17244 8.30281 6.10362 7.29491 7.02663C6.28701 7.94964 6.2182 9.51495 7.14121 10.5228Z" stroke="white" stroke-width="1.31871"/>
	<path d="M20.4773 8.00954V29.7736" stroke="white" stroke-width="1.31871"/>
	<path d="M30.7992 19.7743H9.03516" stroke="white" stroke-width="1.31871"/>
	<path d="M30.1877 28.896L10.3325 10.1388" stroke="white" stroke-width="1.31871"/>
	<path d="M7.28747 27.9646C6.22036 28.8185 6.04751 30.3757 6.90138 31.4428C7.75525 32.51 9.3125 32.6828 10.3796 31.8289C11.4467 30.9751 11.6196 29.4178 10.7657 28.3507C9.91183 27.2836 8.35457 27.1107 7.28747 27.9646Z" stroke="white" stroke-width="1.31871"/>
	<path d="M29.9154 7.06075C28.8483 7.91462 28.6754 9.47188 29.5293 10.539C30.3832 11.6061 31.9404 11.7789 33.0075 10.9251C34.0746 10.0712 34.2475 8.51394 33.3936 7.44684C32.5398 6.37973 30.9825 6.20688 29.9154 7.06075Z" stroke="white" stroke-width="1.31871"/>
	<path d="M10.0491 28.8332L30.0861 10.2705" stroke="white" stroke-width="1.31871"/>
</svg>