<?xml version="1.0" ?>
<svg xmlns="http://www.w3.org/2000/svg" role="img" viewBox="-37.96 -37.96 1973.92 485.92">
	<path fill="#fbb51c" d="M 0.0,215.0 L 0.0,11.35 L 106.0,11.35 L 106.0,283.08 C 106.0,295.19 112.81,302.0 124.93,302.0 L 278.52,302.0 C 290.63,302.0 297.44,295.19 297.44,283.08 L 297.44,11.35 L 404.18,11.35 L 404.18,215.0 C 404.18,326.26 313.36,411.0 202.09,411.0 C 90.82,411.0 0.0,326.22 0.0,215.0 M 846.96,196.0 L 846.96,389.81 L 740.96,389.81 L 740.96,118.08 C 740.96,105.97 734.15,99.15 722.03,99.15 L 567.67,99.15 C 555.55,99.15 548.74,105.97 548.74,118.08 L 548.74,389.81 L 442.74,389.81 L 442.74,196.0 C 442.74,84.73 533.57,0.0 644.83,0.0 C 756.09,0.0 846.96,84.77 846.96,196.0 M 1002.88,389.81 L 896.88,389.81 L 896.88,11.35 L 1002.88,11.35 L 1002.88,389.81 M 1456.78,204.36 C 1456.78,320.17 1367.46,411.0 1253.93,411.0 C 1140.4,411.0 1052.59,320.17 1052.59,204.36 C 1052.59,89.36 1140.39,0.0 1253.93,0.0 C 1367.47,0.0 1456.78,89.32 1456.78,204.36 M 1157.04,283.84 A 18.74,18.74 0.0 0,0 1175.97,302.76 L 1331.89,302.76 A 18.73,18.73 0.0 0,0 1350.81,283.84 L 1350.81,127.16 A 18.73,18.73 0.0 0,0 1331.89,108.24 L 1175.97,108.24 A 18.74,18.74 0.0 0,0 1157.04,127.16 L 1157.04,283.84 M 1898.04,196.0 L 1898.04,389.81 L 1792.04,389.81 L 1792.04,118.08 C 1792.04,105.97 1785.23,99.15 1773.11,99.15 L 1618.71,99.15 C 1606.59,99.15 1599.78,105.97 1599.78,118.08 L 1599.78,389.81 L 1493.78,389.81 L 1493.78,196.0 C 1493.78,84.73 1584.61,0.0 1695.87,0.0 C 1807.13,0.0 1898.04,84.77 1898.04,196.0 L 1898.04,196.0"/>
</svg>