<?xml version="1.0" ?>
<svg xmlns="http://www.w3.org/2000/svg" overflow="visible" viewBox="-85.2618 -142.1265 738.9356 852.759">
	
	
	
	
	
	
	
	
	<path d="M14.2 284.22c0-149.119 120.88-270 270-270s270 120.881 270 270c0 149.118-120.88 270-270 270s-270-120.882-270-270z" stroke="#009DDC" fill="#009DDC"/>
	
	
	
	
	
	
	
	
	<path d="M172.745 202.842l-52.667 52.575-28.887-28.755 51.144-51.05h-.663c11.5-10.12 37.999-37.87 44.126-43.994v.397l51.643-51.644 28.888 28.887-54.094 54.095" fill="#0C2566"/>
	
	
	
	
	
	
	
	
	<path d="M107.67 132.492c0-20.297 16.455-36.75 36.75-36.75 20.298 0 36.75 16.453 36.75 36.75 0 20.296-16.452 36.75-36.75 36.75-20.295 0-36.75-16.454-36.75-36.75zm36.5 16.75c9.25 0 16.75-7.499 16.75-16.75 0-9.25-7.498-16.75-16.75-16.75-9.25 0-16.75 7.5-16.75 16.75 0 9.251 7.5 16.75 16.75 16.75z" fill="#0C2566"/>
	
	
	
	
	
	
	
	
	<path d="M176.044 142.92s-19.518-17.445-29.123-9.178c-8.02 6.901 2.348 26.335 6.5 32 5.5-5.25 22.623-22.823 22.623-22.823z" stroke-width="1.726" stroke="#0C2566" fill="#929DBA"/>
	
	
	
	
	
	
	
	
	<path stroke-width="2.017" stroke="#0C2566" fill="#929DBA" d="M109.75 206.233l-6.821 6.485 29.383 30.978 6.82-6.486zm12.664-12.341l-6.822 6.483 29.957 31.134 6.822-6.485zm91.293-93.346l-6.984 6.311 31.714 33.147 6.115-6.346zm12.508-12.78l-6.983 6.308 32.189 32.156 5.537-6.37z"/>
	
	
	
	
	
	
	
	
	<path d="M424.354 366.992s67.544-38.273 73.709-44.824c-15.96-29.426-65.625-42.378-70.23-36.839 12.646 17.913 13.77 53.163-3.48 81.663z" stroke-width="2.25" stroke="#0C2566" fill="#929DBA"/>
	
	
	
	
	
	
	
	
	<path d="M212.234 163.354s209.87 210.014 214.37 214.14c4.5 4.124 11.625 3 15.375-3.75s14.25-18.376 12-44.25c-1.641-18.862-7.5-28.126-3.375-27.376s23.625 23.25 25.5 42 .75 31.875-12.75 57.375c-7.5 15-9.958 38.57-6.104 47.223-14.521-3.723-36.271-2.973-51.271 6.402s-42 17.25-61.125 12.375c-4.875-.75-5.625-1.875-5.625-1.875l18.75-28.5s21-.75 29.25-15.375c3.375-4.875-4.5-9.375-8.625-13.5s-205.86-205.4-205.86-205.4z" fill="#0C2566"/>
	
	
	
	
	
	
	
	
	<path d="M375.979 414.617s-39.706 67.025-45.541 73.45c-19.71-13.825-38.546-46.693-36.44-70.759 14.48 8.56 48.23 19.434 81.98-2.69z" stroke-width="2.25" stroke="#0C2566" fill="#929DBA"/>
	
	
	
	
	
	
	
	
	<path d="M339.229 439.742s-2.25 14.625-13.5 19.875c-7.5.375-19.793-9.336-15.75-18 5.25-11.25 19.125-1.875 29.25-1.875z" fill="#0C2566"/>
	
	
	
	
	
	
	
	
	<path d="M144.046 366.992s-67.544-38.273-73.71-44.824c15.96-29.426 65.626-42.378 70.23-36.839-12.645 17.913-13.77 53.163 3.48 81.663z" stroke-width="2.25" stroke="#0C2566" fill="#929DBA"/>
	
	
	
	
	
	
	
	
	<path d="M356.284 163.354s-209.988 210.014-214.488 214.14c-4.5 4.124-11.625 3-15.375-3.75s-14.25-18.376-12-44.25c1.64-18.862 7.5-28.126 3.375-27.376s-23.625 23.25-25.5 42-.75 31.875 12.75 57.375c7.5 15 9.958 38.57 6.104 47.223 14.52-3.723 36.27-2.973 51.27 6.402s42 17.25 61.126 12.375c4.875-.75 5.625-1.875 5.625-1.875l-18.75-28.5s-21-.75-29.25-15.375c-3.375-4.875 4.5-9.375 8.625-13.5s205.978-205.4 205.978-205.4z" fill="#0C2566"/>
	
	
	
	
	
	
	
	
	<path d="M192.42 414.617s39.707 67.025 45.542 73.45c19.709-13.825 38.546-46.693 36.44-70.759-14.481 8.56-48.231 19.434-81.981-2.69z" stroke-width="2.25" stroke="#0C2566" fill="#929DBA"/>
	
	
	
	
	
	
	
	
	<path d="M229.17 439.742s2.25 14.625 13.5 19.875c7.5.375 19.794-9.336 15.75-18-5.25-11.25-19.124-1.875-29.25-1.875zm166.603-236.9l52.667 52.575 28.887-28.755-51.144-51.05h.664c-11.501-10.12-38-37.87-44.127-43.994v.397l-51.643-51.644-28.888 28.887 54.094 54.095" fill="#0C2566"/>
	
	
	
	
	
	
	
	
	<path d="M424.096 169.242c-20.296 0-36.75-16.454-36.75-36.75 0-20.297 16.454-36.75 36.75-36.75 20.297 0 36.75 16.453 36.75 36.75 0 20.296-16.453 36.75-36.75 36.75zm17-36.75c0-9.25-7.498-16.75-16.75-16.75-9.25 0-16.75 7.5-16.75 16.75 0 9.251 7.5 16.75 16.75 16.75 9.252 0 16.75-7.499 16.75-16.75z" fill="#0C2566"/>
	
	
	
	
	
	
	
	
	<path d="M392.473 142.92s19.519-17.445 29.124-9.178c8.02 6.901-2.348 26.335-6.5 32-5.5-5.25-22.624-22.823-22.624-22.823z" stroke-width="1.726" stroke="#0C2566" fill="#929DBA"/>
	
	
	
	
	
	
	
	
	<path stroke-width="2.017" stroke="#0C2566" fill="#929DBA" d="M458.767 206.233l6.822 6.485-29.383 30.978-6.818-6.486zm-12.663-12.341l6.822 6.483-29.956 31.134-6.823-6.485zm-91.294-93.346l6.984 6.311-31.713 33.147-6.115-6.346zm-12.506-12.78l6.982 6.308-32.188 32.156-5.537-6.37z"/>
	
	
	
	
	
	
	
	
	<g stroke="#0C2566" fill="#FFF" transform="translate(-3.8 -3.78)">
		
		
		
		
		
		
		
		
		<circle r="135" cy="276.299" cx="288" stroke-width="6.75"/>
		
		
		
		
		
		
		
		
		<circle r="90" cy="276.299" cx="288" stroke-width="4.5"/>
		
		
		
		
	
	
	
	
	</g>
	
	
	
	
	
	
	
	
	<g transform="translate(-3.8 -3.78)">
		
		
		
		
		
		
		
		
		<circle r="90" cy="276.3" cx="288" fill="none"/>
		
		
		
		
		
		
		
		
		<path d="M196.285 354.199l-5.625-7.141-4.116 1.649-5.047-6.408 26.251-8.32 5.385 6.837-14.238 23.572-5.167-6.561zm3.342-4.762l5.512-7.974-9.033 3.504zm33.344 8.959l6.404 4.728-9.126 12.362a12.929 12.929 0 01-3.138 3.049 9.329 9.329 0 01-3.909 1.529c-1.419.212-2.699.152-3.84-.18-1.588-.459-3.256-1.333-5.003-2.623a34.97 34.97 0 01-3.151-2.654c-1.091-1.023-1.882-2.042-2.375-3.054-.493-1.013-.787-2.151-.882-3.416-.095-1.265.038-2.397.398-3.399.578-1.613 1.243-2.93 1.995-3.947l9.127-12.363 6.404 4.729-9.346 12.659c-.835 1.132-1.174 2.247-1.016 3.348.158 1.101.794 2.062 1.909 2.885 1.104.815 2.203 1.142 3.294.979 1.091-.163 2.062-.82 2.911-1.971zm8.583 6.047l8.246 3.033 1.56 9.02 6.901-5.906 8.164 3.002-11.844 8.939 3.658 15.504-8.411-3.095-1.918-9.526-7.65 6.006-8.361-3.075 12.998-9.526zm26.839 8.717l7.897 1.254-4.043 25.457-7.897-1.254zm11.524 2.01l7.977-.129.314 19.424 12.449-.202.103 6.346-20.426.331zm22.183-1.063l7.862-1.457 4.696 25.345-7.863 1.457zm34.48 12.304l-8.448 3.357.409 4.417-7.58 3.012-.5-27.542 8.088-3.214 18.543 20.371-7.762 3.085zm-3.614-4.562l-6.075-7.558.787 9.659zm21.386.413l-15.605-20.513 10.582-8.05c1.962-1.492 3.589-2.466 4.882-2.919 1.292-.453 2.603-.467 3.93-.04 1.327.426 2.487 1.292 3.481 2.598.865 1.139 1.369 2.305 1.512 3.5a7.141 7.141 0 01-.477 3.532c-.294.739-.831 1.575-1.611 2.507.948-.324 1.691-.491 2.229-.502.361-.01.974.092 1.836.304.862.213 1.482.412 1.858.597l7.594 3.611-7.176 5.459-8.161-3.688c-1.047-.484-1.831-.72-2.352-.706a3.357 3.357 0 00-1.918.707l-.561.427 6.334 8.325zm-2.906-17.053l2.677-2.037c.289-.22.779-.739 1.469-1.559a2.11 2.11 0 00.541-1.428 2.373 2.373 0 00-.506-1.492c-.504-.662-1.101-1.012-1.791-1.046-.689-.034-1.614.389-2.772 1.271l-2.789 2.121zm5.494-16.869l5.483-6.962 10.063 1.287-3.609-9.48 5.451-6.92 5.552 17.156 8.479 6.679-4.949 6.283-8.479-6.679z" fill="#0C2566"/>
		
		
		
		
	
	
	
	
	</g>
	
	
	
	
	
	
	
	
	<g transform="translate(-3.8 -3.78)">
		
		
		
		
		
		
		
		
		<circle r="90" cy="276.3" cx="288" fill="none"/>
		
		
		
		
		
		
		
		
		<path d="M163.158 274.634l-.173-7.959 15.363-.334a12.936 12.936 0 014.331.619 9.329 9.329 0 013.6 2.159c1.036.993 1.771 2.043 2.205 3.149.608 1.537.936 3.392.983 5.563a35.352 35.352 0 01-.174 4.118c-.143 1.489-.464 2.738-.965 3.747-.5 1.009-1.221 1.938-2.164 2.787-.942.848-1.92 1.436-2.934 1.764-1.63.529-3.078.807-4.343.834l-15.363.335-.173-7.959 15.732-.342c1.406-.03 2.497-.445 3.271-1.243s1.146-1.889 1.116-3.274c-.029-1.374-.442-2.442-1.239-3.206-.796-.764-1.909-1.13-3.339-1.099zm19.252-10.167l1.119-7.58 7.097 1.047-1.119 7.58zm-.453-9.629l1.853-7.378c1.223.217 2.218.183 2.986-.103 1.244-.466 2.098-1.427 2.561-2.882.346-1.085.358-2.002.037-2.752-.321-.749-.816-1.23-1.486-1.444-.637-.203-1.295-.104-1.977.294-.681.399-1.569 1.546-2.665 3.44-1.811 3.096-3.563 5.157-5.255 6.184-1.696 1.037-3.505 1.25-5.427.637-1.262-.402-2.337-1.148-3.227-2.239-.889-1.091-1.42-2.474-1.593-4.15-.173-1.676.148-3.795.965-6.358 1.002-3.144 2.35-5.355 4.043-6.634 1.694-1.278 3.863-1.668 6.51-1.17l-1.866 7.301c-1.166-.162-2.098-.019-2.795.431-.697.45-1.216 1.211-1.559 2.286-.281.884-.307 1.61-.075 2.176.231.567.615.936 1.151 1.106.391.125.802.052 1.232-.218.438-.255 1.011-1.009 1.718-2.263 1.774-3.095 3.256-5.245 4.446-6.45s2.431-1.962 3.723-2.271c1.292-.309 2.608-.25 3.949.177a8.157 8.157 0 013.938 2.697c1.051 1.296 1.67 2.837 1.858 4.623.188 1.786-.098 3.87-.858 6.253-1.334 4.185-3.062 6.827-5.184 7.926-2.121 1.099-4.455 1.36-7.003.781zm9.648-23.264l3.479-6.83 6.394 3.256-3.479 6.83zm18.359-32.348l6.223-3.826c1.15 1.65 1.881 3.29 2.19 4.916a9.613 9.613 0 01-.278 4.785c-.496 1.563-1.512 3.209-3.048 4.939-1.865 2.098-3.692 3.542-5.483 4.331-1.79.789-3.881.986-6.272.589-2.391-.396-4.782-1.657-7.173-3.782-3.188-2.833-4.883-5.86-5.086-9.081-.202-3.22 1.077-6.384 3.839-9.492 2.161-2.432 4.351-3.907 6.567-4.427 2.218-.52 4.643-.215 7.275.915l-3.512 6.307c-.75-.337-1.351-.525-1.802-.564a4.586 4.586 0 00-2.139.29c-.674.265-1.276.696-1.808 1.293-1.201 1.352-1.579 2.871-1.132 4.556.322 1.26 1.346 2.657 3.071 4.19 2.137 1.899 3.89 2.876 5.26 2.931 1.37.055 2.578-.506 3.623-1.682 1.015-1.141 1.461-2.288 1.341-3.44-.121-1.154-.673-2.403-1.656-3.748zm6.228-9.741c-2.28-3.535-3.068-6.923-2.364-10.166.704-3.243 2.816-5.999 6.339-8.271 3.611-2.328 7.018-3.155 10.22-2.48 3.201.675 5.926 2.756 8.174 6.241 1.632 2.531 2.543 4.881 2.734 7.052.191 2.171-.23 4.226-1.262 6.167-1.032 1.941-2.752 3.688-5.16 5.241-2.447 1.578-4.724 2.495-6.828 2.751-2.105.256-4.199-.137-6.281-1.178-2.083-1.04-3.94-2.826-5.572-5.357zm6.724-4.294c1.41 2.186 2.829 3.495 4.259 3.924 1.43.431 2.845.194 4.247-.71 1.44-.929 2.254-2.115 2.44-3.56.186-1.444-.502-3.378-2.063-5.8-1.314-2.038-2.688-3.262-4.117-3.671-1.431-.409-2.851-.159-4.262.751-1.353.872-2.13 2.049-2.333 3.532-.203 1.484.407 3.328 1.829 5.534zm37.564-8.536l-8.645 2.796.119 4.432-7.757 2.509 1.303-27.502 8.276-2.677 17.16 21.532-7.941 2.568zm-3.306-4.786l-5.564-7.936.153 9.686zm12.398-2.17l7.547-.939c.239 1.218.631 2.134 1.174 2.746.884.991 2.088 1.439 3.612 1.346 1.137-.069 1.996-.389 2.579-.959.583-.57.852-1.206.809-1.908-.041-.667-.371-1.246-.989-1.736s-2.008-.904-4.169-1.241c-3.541-.569-6.095-1.458-7.663-2.665-1.58-1.207-2.432-2.816-2.555-4.829-.082-1.322.226-2.594.921-3.817.695-1.223 1.793-2.217 3.293-2.985 1.5-.767 3.591-1.233 6.275-1.398 3.293-.202 5.841.255 7.645 1.372 1.803 1.116 2.952 2.998 3.444 5.645l-7.479.899c-.271-1.146-.741-1.962-1.412-2.449-.671-.487-1.569-.696-2.694-.627-.926.057-1.611.295-2.056.716-.445.421-.65.912-.615 1.473.025.41.241.766.648 1.07.396.316 1.306.578 2.73.784 3.526.535 6.066 1.14 7.619 1.813 1.552.674 2.707 1.557 3.462 2.649.755 1.093 1.176 2.341 1.262 3.745a8.15 8.15 0 01-1.091 4.646c-.829 1.448-2.041 2.583-3.638 3.403-1.597.82-3.643 1.307-6.139 1.46-4.383.269-7.47-.387-9.261-1.968-1.791-1.581-2.877-3.662-3.259-6.246zm28.342-18.37l23.891 4.243-1.112 6.264-8.016-1.424-3.394 19.103-7.859-1.396 3.394-19.103-8.015-1.423zm44.648 31.361l2.678-4.645 10.682 6.158-5.487 9.518c-2.847.212-5.201.116-7.063-.287-1.861-.404-3.87-1.228-6.026-2.471-2.655-1.53-4.56-3.23-5.712-5.098-1.152-1.868-1.674-3.961-1.564-6.279.109-2.317.832-4.633 2.166-6.948 1.405-2.437 3.131-4.266 5.176-5.487 2.047-1.221 4.311-1.739 6.792-1.553 1.931.153 4.179.969 6.741 2.446 2.473 1.426 4.192 2.715 5.16 3.868.969 1.153 1.586 2.433 1.854 3.838.268 1.405.189 2.946-.234 4.622l-7.354-2.656c.211-1.001.117-1.914-.281-2.739s-1.106-1.531-2.123-2.117c-1.516-.874-3.027-1.045-4.533-.513-1.506.532-2.914 1.935-4.226 4.208-1.394 2.417-1.933 4.405-1.619 5.965.313 1.56 1.284 2.81 2.911 3.748a8.379 8.379 0 002.406.94c.83.181 1.854.264 3.069.248l1.212-2.102zm38.494 10.37l5.516 5.742-11.082 10.646a12.994 12.994 0 01-3.607 2.476 9.339 9.339 0 01-4.111.847c-1.434-.03-2.687-.305-3.755-.826-1.488-.72-2.984-1.863-4.489-3.43a35.149 35.149 0 01-2.659-3.148c-.902-1.193-1.511-2.331-1.826-3.411-.315-1.082-.413-2.254-.293-3.517.119-1.263.441-2.357.965-3.284.842-1.492 1.719-2.677 2.633-3.554l11.082-10.646 5.515 5.742-11.349 10.901c-1.014.975-1.536 2.017-1.566 3.129-.029 1.111.436 2.166 1.396 3.166.951.991 1.979 1.498 3.082 1.521 1.103.023 2.17-.46 3.201-1.451zm-.556 37.092l-4.414-7.944-4.325.973-3.96-7.128 27.238-4.031 4.226 7.605-17.813 20.998-4.054-7.298zm4.059-4.169l6.712-6.993-9.476 2.02zm-3.202 15.413l25.01-6.217 3.207 12.903c.595 2.393.844 4.272.75 5.639-.096 1.366-.602 2.574-1.518 3.625-.916 1.05-2.17 1.773-3.762 2.169-1.389.345-2.659.346-3.813.004a7.178 7.178 0 01-3.056-1.835c-.563-.562-1.117-1.386-1.665-2.471-.078.999-.217 1.748-.42 2.246-.134.335-.469.857-1.006 1.565-.536.708-.964 1.198-1.282 1.471l-6.319 5.545-2.176-8.75 6.615-6.036c.859-.77 1.385-1.397 1.579-1.88a3.358 3.358 0 00.108-2.042l-.17-.684-10.15 2.523zm16.81 4.078l.812 3.264c.088.353.371 1.008.851 1.966.229.487.595.841 1.097 1.061.502.22 1.025.262 1.571.126.808-.201 1.364-.611 1.669-1.231.305-.62.281-1.637-.07-3.049l-.846-3.401zm14.778 21.674l-.199 11.851c-.04 2.336-.389 4.217-1.045 5.646-.658 1.427-1.586 2.601-2.785 3.52-1.199.918-2.588 1.576-4.165 1.972-1.577.396-3.245.58-5.003.551-2.754-.047-4.885-.396-6.391-1.051-1.508-.653-2.765-1.546-3.771-2.678-1.006-1.133-1.668-2.342-1.986-3.627-.439-1.757-.647-3.346-.623-4.766l.199-11.851zm-5.97 7.879l-14.08-.237-.033 1.955c-.027 1.667.137 2.855.494 3.566.357.71.992 1.272 1.906 1.688.912.415 2.4.639 4.463.674 2.73.046 4.607-.369 5.631-1.244 1.021-.875 1.551-2.346 1.586-4.412z" fill="#0C2566"/>
		
		
		
		
	
	
	
	
	</g>
	
	
	
	
	
	
	
	
	<g clip-rule="evenodd" fill-rule="evenodd">
		
		
		
		
		
		
		
		
		<path d="M284.209 335.875l.76-1.08c11.462-11.283 55.358-1.787 52.653-51.769-.178-3.166-.656-7.235-1.061-11.938l-.266-3.714v-.088H232.104v.088l-.265 3.714c-.407 4.703-.885 8.772-1.062 11.938-2.741 50.528 41.987 40.431 52.936 52.067z" fill="#FFF"/>
		
		
		
		
		
		
		
		
		<path d="M246.555 321.775l-.198-.1c-3.111-1.852-5.991-4.169-8.473-7.15l-.728-.924v-46.499h9.398v54.673zm16.946-54.673h-9.4v58.247l2.02.76c1.656.598 3.376 1.093 4.997 1.56l2.384.657v-61.224zm16.944 0h-9.432v63.144l1.787.498c2.813.796 5.294 1.654 7.249 2.777l.396.234zm8.242 66.224c1.984-1.06 4.5-1.919 7.313-2.684l1.389-.397v-63.144h-9.432v66.653zm16.513-5.064c2.417-.662 4.93-1.39 7.414-2.25l1.72-.663v-58.247H304.9v61.224zm17.077-6.72c3.078-1.885 5.924-4.202 8.375-7.182l.63-.794v-46.465h-9.436v54.673z" fill="#EF3E42"/>
		
		
		
		
		
		
		
		
		<path d="M283.784 340.19l-.247-.62a8.392 8.392 0 00-.78-1.397l-.034-.035-.354-.548c-7.87-11.09-57.091-1.292-54.208-54.703.178-3.219.673-7.447 1.063-11.99l.265-3.698.247-3.52c.584-12.45-.602-25.628-8.88-32.578l-.176-.142-1.627-2.707h130.295l-1.63 2.707-.173.142c-8.278 6.95-9.463 20.127-8.88 32.578l.246 3.52.249 3.697c.407 4.544.902 8.772 1.076 11.991 2.903 53.854-47.148 43.242-54.4 54.967l-.212.391-.247.264a8.047 8.047 0 00-.69 1.364l-.106.317h-.797zm.425-4.315l.76-1.08c11.462-11.283 55.358-1.787 52.653-51.769-.178-3.166-.656-7.235-1.061-11.938l-.266-3.714v-.088H232.104v.088l-.265 3.714c-.407 4.703-.885 8.772-1.062 11.938-2.741 50.528 41.987 40.431 52.936 52.067z" fill="#0C2566"/>
		
		
		
		
	
	
	
	
	</g>
	
	
	
	
	
	
	
	
	<g stroke="#0C2566" fill="#B0B1B3">
		
		
		
		
		
		
		
		
		<path d="M65.414 111.863c-3.547-14.883 17.86-20.52 17.86-20.52l24.643-.785c-3.262 13.15-17.774 17.904-17.774 17.904z"/>
		
		
		
		
		
		
		
		
		<path d="M50.803 132.24c-4.862-14.504 15.036-20.793 15.036-20.793l24.183-2.966c-2.073 13.39-14.891 18.162-14.891 18.162z"/>
		
		
		
		
		
		
		
		
		<path d="M38.073 153.845c-6.142-14.012 13.116-22.058 13.116-22.058l23.819-5.117c-.866 13.521-13.206 19.421-13.206 19.421z"/>
		
		
		
		
		
		
		
		
		<path d="M27.32 176.503c-7.364-13.406 11.094-23.145 11.094-23.145l23.268-7.229c.344 13.545-11.42 20.525-11.42 20.525z"/>
		
		
		
		
		
		
		
		
		<path d="M18.639 200.033c-8.534-12.693 8.98-24.044 8.98-24.044l22.527-9.282c1.555 13.46-9.54 21.466-9.54 21.466z"/>
		
		
		
		
		
		
		
		
		<path d="M12.186 224.141c-9.631-11.878 6.8-24.75 6.8-24.75l21.606-11.26c2.749 13.265-7.584 22.23-7.584 22.23z"/>
		
		
		
		
		
		
		
		
		<path d="M7.917 248.73c-10.657-10.967 4.559-25.259 4.559-25.259l20.515-13.15c3.922 12.968-5.568 22.823-5.568 22.823z"/>
		
		
		
		
		
		
		
		
		<path d="M5.859 273.602c-11.594-9.969 2.284-25.565 2.284-25.565l19.26-14.934c5.064 12.564-3.508 23.23-3.508 23.23z"/>
		
		
		
		
		
		
		
		
		<path d="M6.03 298.562c-12.437-8.894-.007-25.668-.007-25.668l17.847-16.599c6.169 12.06-1.417 23.45-1.417 23.45z"/>
		
		
		
		
		
		
		
		
		<path d="M8.43 323.404c-13.18-7.745-2.298-25.565-2.298-25.565l16.292-18.13c7.22 11.461.683 23.483.683 23.483z"/>
		
		
		
		
		
		
		
		
		<path d="M13.042 347.926c-13.82-6.53-4.576-25.255-4.576-25.255l14.61-19.51c8.213 10.768 2.776 23.324 2.776 23.324z"/>
		
		
		
		
		
		
		
		
		<path d="M19.826 371.947c-14.348-5.273-6.813-24.745-6.813-24.745l12.806-20.746c9.144 9.992 4.85 22.986 4.85 22.986z"/>
		
		
		
		
		
		
		
		
		<path d="M28.73 395.26c-14.763-3.967-9-24.037-9-24.037l10.903-21.81c10 9.133 6.884 22.462 6.884 22.462z"/>
		
		
		
		
		
		
		
		
		<path d="M39.678 417.68c-15.057-2.627-11.11-23.134-11.11-23.134l8.91-22.696c10.775 8.202 8.863 21.751 8.863 21.751z"/>
		
		
		
		
		
		
		
		
		<path d="M52.584 439.032c-15.23-1.27-13.13-22.048-13.13-22.048l6.847-23.4c11.466 7.203 10.77 20.87 10.77 20.87z"/>
		
		
		
		
		
		
		
		
		<path d="M67.347 459.143c-15.281.1-15.047-20.784-15.047-20.784l4.73-23.917c12.063 6.146 12.592 19.822 12.592 19.822z"/>
		
		
		
		
		
		
		
		
		<path d="M83.849 477.853C68.635 479.32 67.003 458.5 67.003 458.5l2.576-24.25c12.56 5.045 14.31 18.618 14.31 18.618z"/>
		
		
		
		
		
		
		
		
		<path d="M101.953 495.011c-15.02 2.82-18.503-17.77-18.503-17.77l.398-24.38c12.962 3.898 15.917 17.264 15.917 17.264z"/>
		
		
		
		
		
		
		
		
		<path d="M121.518 510.477c-14.707 4.156-20.017-16.04-20.017-16.04l-1.782-24.318c13.259 2.722 17.395 15.77 17.395 15.77z"/>
		
		
		
		
		
		
		
		
		<path d="M142.388 524.131c-14.28 5.456-21.371-14.183-21.371-14.183l-3.948-24.063c13.449 1.526 18.736 14.15 18.736 14.15z"/>
		
		
		
		
		
		
		
		
		<path d="M164.393 535.862c-13.732 6.715-22.551-12.21-22.551-12.21l-6.082-23.615c13.53.316 19.926 12.416 19.926 12.416z"/>
		
		
		
		
		
		
		
		
		<path d="M187.359 545.58c-13.081 7.914-23.553-10.149-23.553-10.149l-8.165-22.97c13.504-.899 20.95 10.58 20.95 10.58z"/>
		
		
		
		
		
		
		
		
		<path d="M211.098 553.2c-12.322 9.053-24.365-7.997-24.365-7.997l-10.185-22.15c13.37-2.103 21.813 8.664 21.813 8.664z"/>
		
		
		
		
		
		
		
		
		<path d="M235.423 558.667c-11.46 10.117-24.98-5.788-24.98-5.788l-12.123-21.146c13.132-3.289 22.5 6.678 22.5 6.678z"/>
		
		
		
		
		
		
		
		
		<path d="M260.14 561.935c-10.511 11.102-25.397-3.53-25.397-3.53l-13.963-19.977c12.785-4.45 23.005 4.638 23.005 4.638z"/>
		
		
		
		
		
		
		
		
		<path d="M285.05 562.977c-9.477 11.997-25.611-1.242-25.611-1.242l-15.693-18.648c12.334-5.579 23.33 2.561 23.33 2.561z"/>
		
		
		
		
		
		
		
		
		<path d="M309.95 561.784c-8.368 12.8-25.617 1.057-25.617 1.057l-17.296-17.169c11.788-6.659 23.463.457 23.463.457z"/>
		
		
		
		
		
		
		
		
		<path d="M334.649 558.364c-7.19 13.5-25.422 3.35-25.422 3.35l-18.76-15.553c11.143-7.687 23.41-1.64 23.41-1.64z"/>
		
		
		
		
		
		
		
		
		<path d="M358.938 552.756c-5.952 14.086-25.02 5.604-25.02 5.604l-20.073-13.81c10.414-8.653 23.17-3.73 23.17-3.73z"/>
		
		
		
		
		
		
		
		
		<path d="M382.633 544.991c-4.674 14.563-24.42 7.825-24.42 7.825l-21.226-11.962c9.596-9.55 22.746-5.786 22.746-5.786z"/>
		
		
		
		
		
		
		
		
		<path d="M405.538 535.137c-3.354 14.922-23.622 9.981-23.622 9.981l-22.212-10.016c8.709-10.373 22.138-7.798 22.138-7.798z"/>
		
		
		
		
		
		
		
		
		<path d="M427.47 523.272c-2.01 15.166-22.637 12.054-22.637 12.054l-23.012-7.984c7.74-11.108 21.344-9.75 21.344-9.75z"/>
		
		
		
		
		
		
		
		
		<path d="M448.253 509.491c-.646 15.284-21.47 14.032-21.47 14.032l-23.634-5.893c6.717-11.758 20.388-11.62 20.388-11.62z"/>
		
		
		
		
		
		
		
		
		<path d="M467.723 493.908c.724 15.28-20.132 15.896-20.132 15.896l-24.067-3.753c5.646-12.313 19.274-13.403 19.274-13.403z"/>
		
		
		
		
		
		
		
		
		<path d="M485.723 476.644c2.082 15.153-18.63 17.635-18.63 17.635l-24.308-1.587c4.523-12.767 18-15.069 18-15.069z"/>
		
		
		
		
		
		
		
		
		<path d="M502.106 457.836c3.43 14.906-16.98 19.232-16.98 19.232l-24.347.598c3.362-13.12 16.579-16.62 16.579-16.62z"/>
		
		
		
		
		
		
		
		
		<path d="M516.745 437.641c4.749 14.54-15.191 20.675-15.191 20.675l-24.2 2.771c2.179-13.368 15.028-18.039 15.028-18.039z"/>
		
		
		
		
		
		
		
		
		<path d="M529.52 416.217c6.03 14.052-13.285 21.947-13.285 21.947l-23.851 4.93c.97-13.51 13.354-19.313 13.354-19.313z"/>
		
		
		
		
		
		
		
		
		<path d="M540.33 393.73c7.263 13.46-11.266 23.051-11.266 23.051l-23.318 7.044c-.238-13.543 11.578-20.429 11.578-20.429z"/>
		
		
		
		
		
		
		
		
		<path d="M549.093 370.37c8.433 12.753-9.168 23.965-9.168 23.965l-22.596 9.102c-1.445-13.466 9.707-21.38 9.707-21.38z"/>
		
		
		
		
		
		
		
		
		<path d="M555.728 346.318c9.539 11.951-6.987 24.692-6.987 24.692L527.05 382.1c-2.645-13.286 7.757-22.169 7.757-22.169z"/>
		
		
		
		
		
		
		
		
		<path d="M560.19 321.768c10.568 11.05-4.753 25.218-4.753 25.218l-20.614 12.986c-3.82-12.994 5.744-22.77 5.744-22.77z"/>
		
		
		
		
		
		
		
		
		<path d="M562.44 296.922c11.514 10.056-2.482 25.542-2.482 25.542l-19.37 14.775c-4.963-12.6 3.69-23.194 3.69-23.194z"/>
		
		
		
		
		
		
		
		
		<path d="M562.464 271.968c12.365 8.99-.188 25.663-.188 25.663l-17.974 16.451c-6.071-12.104 1.596-23.432 1.596-23.432z"/>
		
		
		
		
		
		
		
		
		<path d="M560.255 247.115c13.118 7.846 2.104 25.575 2.104 25.575l-16.432 17.996c-7.128-11.513-.5-23.48-.5-23.48z"/>
		
		
		
		
		
		
		
		
		<path d="M555.84 222.56c13.764 6.64 4.376 25.284 4.376 25.284L545.46 267.24c-8.13-10.83-2.593-23.344-2.593-23.344z"/>
		
		
		
		
		
		
		
		
		<path d="M549.243 198.498c14.305 5.38 6.622 24.791 6.622 24.791l-12.967 20.637c-9.063-10.059-4.668-23.016-4.668-23.016z"/>
		
		
		
		
		
		
		
		
		<path d="M540.526 175.122c14.727 4.08 8.81 24.1 8.81 24.1l-11.071 21.714c-9.923-9.206-6.707-22.507-6.707-22.507z"/>
		
		
		
		
		
		
		
		
		<path d="M529.757 152.622c15.029 2.743 10.923 23.213 10.923 23.213l-9.084 22.62c-10.707-8.28-8.69-21.817-8.69-21.817z"/>
		
		
		
		
		
		
		
		
		<path d="M517.019 131.174c15.218 1.388 12.955 22.144 12.955 22.144l-7.027 23.34c-11.407-7.29-10.607-20.949-10.607-20.949z"/>
		
		
		
		
		
		
		
		
		<path d="M502.414 110.953c15.284.021 14.882 20.896 14.882 20.896l-4.912 23.876c-12.011-6.24-12.434-19.918-12.434-19.918z"/>
		
		
		
		
		
		
		
		
		<path d="M486.064 92.121c15.223-1.348 16.69 19.48 16.69 19.48l-2.762 24.22c-12.521-5.14-14.161-18.726-14.161-18.726z"/>
		
		
		
		
		
		
		
		
		<path d="M468.1 74.828c15.039-2.705 18.359 17.907 18.359 17.907l-.587 24.37c-12.93-3.999-15.78-17.382-15.78-17.382z"/>
		
		
		
		
		
		
		
		
		<path d="M448.66 59.211c14.737-4.04 19.89 16.193 19.89 16.193l1.588 24.323c-13.233-2.825-17.268-15.9-17.268-15.9z"/>
		
		
		
		
		
		
		
		
		<path d="M427.905 45.396c14.315-5.343 21.253 14.351 21.253 14.351l3.758 24.083c-13.433-1.63-18.62-14.29-18.62-14.29z"/>
		
		
		
		
		
		
		
		
		<path d="M405.999 33.496c13.78-6.603 22.449 12.39 22.449 12.39l5.895 23.65c-13.523-.42-19.82-12.567-19.82-12.567z"/>
		
		
		
		
		
		
		
		
		<path d="M383.114 23.605c13.14-7.81 23.466 10.327 23.466 10.327l7.986 23.03c-13.511.79-20.865-10.742-20.865-10.742z"/>
		
		
		
		
		
		
		
		
		<path d="M359.44 15.8c12.387-8.954 24.294 8.186 24.294 8.186l10.01 22.221c-13.382 1.997-21.74-8.832-21.74-8.832z"/>
		
		
		
		
		
		
		
		
		<path d="M335.163 10.144c11.539-10.023 24.93 5.98 24.93 5.98l11.953 21.238c-13.148 3.186-22.44-6.85-22.44-6.85z"/>
		
		
		
		
		
		
		
		
		<path d="M310.478 6.684c10.597-11.016 25.36 3.727 25.36 3.727l13.807 20.08c-12.813 4.353-22.961-4.813-22.961-4.813z"/>
		
		
		
		
		
		
		
		
		<path d="M285.59 5.45c9.564-11.922 25.59 1.44 25.59 1.44l15.544 18.765c-12.376 5.48-23.3-2.739-23.3-2.739z"/>
		
		
		
		
		
		
		
		
		<path d="M260.68 6.45c8.468-12.735 25.623-.859 25.623-.859l17.155 17.3c-11.833 6.564-23.455-.644-23.455-.644z"/>
		
		
		
		
		
		
		
		
		<path d="M235.965 9.67c7.294-13.438 25.442-3.146 25.442-3.146l18.63 15.693c-11.198 7.6-23.416 1.458-23.416 1.458z"/>
		
		
		
		
		
		
		
		
		<path d="M211.639 15.09c6.065-14.035 25.055-5.41 25.055-5.41l19.96 13.965c-10.478 8.57-23.191 3.55-23.191 3.55z"/>
		
		
		
		
		
		
		
		
		<path d="M187.89 22.67c4.787-14.524 24.473-7.634 24.473-7.634l21.129 12.123c-9.67 9.473-22.783 5.608-22.783 5.608z"/>
		
		
		
		
		
		
		
		
		<path d="M164.917 32.341c3.467-14.894 23.693-9.792 23.693-9.792l22.127 10.182c-8.785 10.301-22.191 7.626-22.191 7.626z"/>
		
		
		
		
		
		
		
		
		<path d="M142.9 44.03c2.125-15.145 22.724-11.873 22.724-11.873l22.944 8.16C180.74 51.364 167.15 49.9 167.15 49.9z"/>
		
		
		
		
		
		
		
		
		<path d="M122.013 57.641c.764-15.273 21.573-13.858 21.573-13.858l23.582 6.074c-6.811 11.702-20.476 11.46-20.476 11.46z"/>
		
		
		
		
		
		
		
		
		<path d="M102.427 73.071c-.604-15.279 20.249-15.734 20.249-15.734l24.03 3.938c-5.735 12.267-19.37 13.248-19.37 13.248z"/>
		
		
		
		
		
		
		
		
		<path d="M83.275 91.342c-1.97-15.165 19.785-18.635 19.785-18.635l24.287 1.771c-4.62 12.732-19.43 16.08-19.43 16.08z"/>
		
		
		
		
	
	
	
	
	</g>
	
	
	
	




</svg>
