<?xml version="1.0" encoding="utf-8"?>
<!-- Generator: Adobe Illustrator 22.0.1, SVG Export Plug-In . SVG Version: 6.00 Build 0)  -->
<svg version="1.1" id="Layer_1" xmlns="http://www.w3.org/2000/svg"  x="0px" y="0px"
	 viewBox="0 0 250.1 135.42" enable-background="new 0 0 250.1 135.42" xml:space="preserve">
<g>
	<path fill="#888B8D" d="M126.13,5.44c-23.56,0-42.66,19.1-42.66,42.66c0,9.89,3.36,19,9.01,26.23h67.28
		c5.65-7.24,9.02-16.34,9.02-26.23C168.79,24.54,149.69,5.44,126.13,5.44 M126.13,19.04c21.11,0,26.01,14.53,26.01,14.53
		s-8.35-2.15-26.01-2.15c-17.66,0-26.01,2.15-26.01,2.15S105.02,19.04,126.13,19.04 M94.99,37.28c0,0,2.15-4.26,31.15-4.26
		c28.99,0,31.14,4.26,31.14,4.26v1.78c0,0-2.15-4.26-31.14-4.26c-29,0-31.15,4.26-31.15,4.26V37.28z M94.99,40.14
		c0,0,2.15-4.25,31.15-4.25c28.99,0,31.14,4.25,31.14,4.25v1.78c0,0-2.15-4.26-31.14-4.26c-29,0-31.15,4.26-31.15,4.26V40.14z
		 M155.47,43.46v23.28c0,0-4.72-1.66-29.33-1.66c-24.61,0-29.34,1.66-29.34,1.66V43.46c0,0,6.22-3.35,29.34-3.35
		C149.25,40.11,155.47,43.46,155.47,43.46 M157.75,71.02c0,0-23.17-0.56-31.62-0.56c-8.46,0-31.62,0.56-31.62,0.56v-1.7
		c0,0,3.33-2.08,31.62-2.08c28.28,0,31.62,2.08,31.62,2.08V71.02z M103.66,48.87h0.78v2.83h-0.78V48.87z M103.66,52.16h0.78v2.83
		h-0.78V52.16z M103.66,45.34h0.78v3.06h-0.78V45.34z M104.91,45.34h0.79v3.06h-0.79V45.34z M104.91,48.87h0.79v2.83h-0.79V48.87z
		 M103.66,55.45h0.78v2.83h-0.78V55.45z M104.91,52.16h0.79v2.83h-0.79V52.16z M104.91,55.45h0.79v2.83h-0.79V55.45z M104.91,58.75
		h0.79v3.06h-0.79V58.75z M103.66,58.75h0.78v3.06h-0.78V58.75z M112.77,58.26h1.2v3.05h-1.2V58.26z M112.77,54.98h1.2v2.82h-1.2
		V54.98z M112.77,51.7h1.2v2.82h-1.2V51.7z M112.77,44.91h1.2v3.05h-1.2V44.91z M112.77,48.42h1.2v2.82h-1.2V48.42z M114.43,44.91
		h1.2v3.05h-1.2V44.91z M114.43,51.7h1.2v2.82h-1.2V51.7z M114.43,48.42h1.2v2.82h-1.2V48.42z M114.43,54.98h1.2v2.82h-1.2V54.98z
		 M114.43,58.26h1.2v3.05h-1.2V58.26z M147.81,48.87h0.8v2.83h-0.8V48.87z M147.81,52.16h0.8v2.83h-0.8V52.16z M147.81,45.34h0.8
		v3.06h-0.8V45.34z M146.57,45.34h0.79v3.06h-0.79V45.34z M146.57,48.87h0.79v2.83h-0.79V48.87z M147.81,55.45h0.8v2.83h-0.8V55.45z
		 M146.57,52.16h0.79v2.83h-0.79V52.16z M146.57,55.45h0.79v2.83h-0.79V55.45z M146.57,58.75h0.79v3.06h-0.79V58.75z M147.81,58.75
		h0.8v3.06h-0.8V58.75z M138.3,58.26h1.2v3.05h-1.2V58.26z M138.3,54.98h1.2v2.82h-1.2V54.98z M138.3,51.7h1.2v2.82h-1.2V51.7z
		 M138.3,44.91h1.2v3.05h-1.2V44.91z M138.3,48.42h1.2v2.82h-1.2V48.42z M136.64,44.91h1.2v3.05h-1.2V44.91z M136.64,51.7h1.2v2.82
		h-1.2V51.7z M136.64,48.42h1.2v2.82h-1.2V48.42z M136.64,54.98h1.2v2.82h-1.2V54.98z M136.64,58.26h1.2v3.05h-1.2V58.26z
		 M124.32,54.58h1.59v2.81h-1.59V54.58z M124.32,48.03h1.59v2.81h-1.59V48.03z M124.32,57.85h1.59v3.04h-1.59V57.85z M124.32,44.53
		h1.59v3.04h-1.59V44.53z M126.36,44.53h1.58v3.04h-1.58V44.53z M124.32,51.31h1.59v2.81h-1.59V51.31z M126.36,57.85h1.58v3.04
		h-1.58V57.85z M126.36,48.03h1.58v2.81h-1.58V48.03z M126.36,51.31h1.58v2.81h-1.58V51.31z M126.36,54.58h1.58v2.81h-1.58V54.58z"
		/>
	<path fill="#862633" d="M87.74,73.62c-5.05-7.57-7.72-16.4-7.72-25.53c0-25.42,20.68-46.1,46.1-46.1
		c25.42,0,46.11,20.68,46.11,46.1c0,9.13-2.67,17.96-7.72,25.53l-1.02,1.53h86.1v-1.97H167.1c4.63-7.55,7.11-16.18,7.11-25.09
		c0-26.5-21.57-48.07-48.07-48.07c-26.51,0-48.07,21.56-48.07,48.07c0,8.92,2.47,17.54,7.1,25.09H1.02v1.97h87.74L87.74,73.62z"/>
	<rect x="1.7" y="133.43" fill="#862633" width="248.14" height="1.97"/>
	<path fill="#862633" d="M1.86,84.99c-0.03-0.21-0.07-0.34-0.13-0.41c-0.06-0.07-0.18-0.13-0.34-0.17
		c-0.17-0.05-0.59-0.08-1.26-0.11l-0.08-0.06v-0.46l0.08-0.06c1.56,0.04,2.45,0.06,2.69,0.06c0.21,0,1.11-0.02,2.7-0.06l0.07,0.06
		v0.46L5.52,84.3c-0.43,0.02-0.77,0.03-1,0.06C4.28,84.38,4.1,84.43,4,84.5c-0.11,0.07-0.18,0.23-0.22,0.48
		c-0.03,0.25-0.05,0.6-0.05,1.05l-0.02,2.15v2.97c0,0.98,0.02,1.7,0.06,2.16c0.04,0.46,0.13,0.84,0.26,1.16
		c0.14,0.31,0.34,0.59,0.61,0.82c0.28,0.23,0.67,0.41,1.18,0.56c0.52,0.14,1.09,0.21,1.74,0.21c0.69,0,1.33-0.1,1.93-0.29
		c0.6-0.19,1.05-0.47,1.37-0.83c0.31-0.36,0.51-0.84,0.61-1.42c0.1-0.59,0.14-1.41,0.14-2.46v-2.88c0-0.48-0.01-1.16-0.02-2.01
		c-0.01-0.85-0.05-1.34-0.11-1.47c-0.06-0.13-0.17-0.23-0.33-0.29c-0.16-0.07-0.61-0.1-1.33-0.12l-0.08-0.07v-0.43l0.08-0.08
		c0.93,0.04,1.67,0.06,2.23,0.06c0.48,0,1.22-0.02,2.22-0.06l0.08,0.07v0.44l-0.08,0.07c-0.59,0.02-0.98,0.04-1.16,0.07
		c-0.18,0.03-0.31,0.09-0.38,0.15c-0.07,0.07-0.12,0.18-0.16,0.32c-0.03,0.14-0.06,0.55-0.07,1.23l-0.03,2.11v2.84
		c0,1.14-0.04,2.03-0.13,2.68c-0.09,0.65-0.28,1.19-0.59,1.61c-0.3,0.42-0.66,0.77-1.07,1.06c-0.42,0.28-0.95,0.5-1.6,0.65
		c-0.66,0.15-1.33,0.23-2.03,0.23c-0.88,0-1.64-0.1-2.32-0.29c-0.67-0.19-1.2-0.45-1.59-0.76c-0.39-0.32-0.67-0.65-0.83-1.01
		C2.16,94.85,2.05,94.43,2,93.96c-0.05-0.47-0.08-1.2-0.08-2.18v-3.59l-0.02-1.82C1.9,85.65,1.89,85.2,1.86,84.99 M16.83,94.41
		c-0.02,0.68-0.05,1.12-0.07,1.31c-0.02,0.19-0.06,0.34-0.13,0.42c-0.06,0.09-0.21,0.15-0.43,0.18c-0.23,0.04-0.53,0.06-0.91,0.07
		l-0.08,0.07v0.43l0.08,0.08c0.7-0.04,1.52-0.06,2.45-0.06c0.72,0,1.25,0.02,1.57,0.06l0.08-0.07v-0.44l-0.08-0.07
		c-0.52-0.01-0.86-0.04-1.03-0.09c-0.17-0.05-0.28-0.1-0.33-0.16c-0.05-0.06-0.08-0.16-0.12-0.32c-0.03-0.15-0.06-0.6-0.08-1.34
		c-0.02-0.74-0.03-1.25-0.03-1.54v-7.18l6.35,7.93l1.99,2.44l0.67,0.78c0.77,0.16,1.32,0.29,1.63,0.4c-0.01-0.85-0.02-1.7-0.04-2.54
		l-0.01-2.57v-4.45c0-0.3,0.01-0.79,0.03-1.47c0.03-0.68,0.05-1.11,0.07-1.29c0.02-0.18,0.06-0.32,0.11-0.41
		c0.06-0.1,0.2-0.16,0.42-0.2c0.22-0.04,0.54-0.07,0.95-0.07l0.07-0.07v-0.43l-0.08-0.09c-0.39,0.04-1.01,0.06-1.86,0.06
		c-0.94,0-1.66-0.02-2.16-0.06l-0.07,0.09v0.43l0.07,0.07c0.37,0.01,0.66,0.03,0.88,0.06c0.21,0.04,0.36,0.09,0.43,0.16
		c0.08,0.07,0.14,0.2,0.16,0.4c0.03,0.2,0.06,0.66,0.08,1.4c0.02,0.73,0.03,1.21,0.03,1.43V95c-0.55-0.6-1.09-1.23-1.62-1.9
		l-4.39-5.5l-2.98-3.88c-0.4,0.04-0.92,0.06-1.55,0.06c-0.27,0-0.83-0.02-1.69-0.06l-0.07,0.09v0.43l0.07,0.07
		c0.48,0.01,0.81,0.03,1.01,0.07c0.2,0.04,0.35,0.14,0.47,0.29c0.12,0.15,0.17,0.39,0.17,0.71v7.57
		C16.86,93.25,16.86,93.73,16.83,94.41 M32.93,94.49c-0.01,0.67-0.03,1.1-0.07,1.29c-0.04,0.19-0.09,0.31-0.16,0.38
		c-0.06,0.06-0.19,0.11-0.39,0.14c-0.2,0.04-0.59,0.07-1.17,0.1l-0.08,0.05v0.46l0.08,0.07c1.6-0.04,2.49-0.06,2.69-0.06
		c0.25,0,0.6,0.01,1.04,0.01c1.07,0.03,1.62,0.05,1.66,0.05l0.07-0.07v-0.46l-0.07-0.05c-0.67-0.03-1.09-0.06-1.26-0.11
		c-0.17-0.04-0.28-0.1-0.35-0.18c-0.06-0.07-0.1-0.2-0.14-0.41c-0.03-0.2-0.05-0.66-0.06-1.36l-0.01-1.82v-4.33l0.02-2.15
		c0-0.45,0.02-0.8,0.05-1.05c0.04-0.25,0.11-0.42,0.22-0.48c0.11-0.07,0.28-0.12,0.52-0.14c0.23-0.03,0.57-0.04,1-0.06l0.07-0.06
		v-0.46l-0.07-0.06c-1.59,0.04-2.49,0.06-2.7,0.06c-0.24,0-0.75-0.01-1.52-0.03l-1.17-0.03l-0.08,0.06v0.46l0.08,0.06
		c0.67,0.03,1.08,0.06,1.26,0.11c0.16,0.04,0.28,0.1,0.35,0.17c0.06,0.07,0.1,0.2,0.13,0.41c0.03,0.21,0.05,0.66,0.05,1.37
		l0.02,1.82v4.33L32.93,94.49z M43.52,97.08h0.94c0.28-0.89,0.74-2.13,1.4-3.73l2.92-7.18c0.37-0.84,0.59-1.33,0.66-1.47
		c0.07-0.15,0.15-0.24,0.25-0.29c0.09-0.05,0.36-0.09,0.81-0.11l0.08-0.07v-0.44l-0.08-0.07c-1.01,0.04-1.64,0.06-1.89,0.06
		c-0.3,0-0.99-0.02-2.08-0.06l-0.09,0.07v0.44l0.09,0.07c0.76,0.07,1.22,0.12,1.37,0.16c0.15,0.04,0.23,0.14,0.23,0.3
		c0,0.19-0.16,0.74-0.48,1.68c-0.33,0.93-0.57,1.6-0.74,2.01l-2.45,6.13l-2.93-7.39c-0.16-0.4-0.34-0.9-0.54-1.48
		c-0.19-0.58-0.3-0.91-0.3-0.98c0-0.13,0.07-0.22,0.22-0.27c0.15-0.04,0.6-0.07,1.36-0.07l0.07-0.07V83.8l-0.07-0.07
		c-1.03,0.04-1.86,0.06-2.48,0.06c-0.67,0-1.48-0.02-2.44-0.06l-0.08,0.08v0.42l0.08,0.08c0.66,0.05,1.03,0.13,1.12,0.25
		c0.09,0.12,0.32,0.64,0.68,1.53l3.18,7.86C43.03,95.76,43.42,96.8,43.52,97.08 M61.57,96.91c0-0.47,0.03-1.03,0.08-1.7
		c0.05-0.66,0.11-1.12,0.17-1.39l-0.07-0.06h-0.43l-0.08,0.06c-0.02,0.13-0.1,0.46-0.22,0.98c-0.13,0.52-0.22,0.85-0.28,0.99
		c-0.35,0.14-0.72,0.23-1.1,0.27c-0.39,0.04-1.35,0.05-2.88,0.05h-1.74c-0.02-0.62-0.03-1.59-0.03-2.9c0-1.23,0.01-2.1,0.03-2.63
		c0.76-0.03,1.31-0.05,1.68-0.05c0.66,0,1.18,0.02,1.56,0.06c0.38,0.04,0.61,0.09,0.7,0.15c0.09,0.06,0.15,0.14,0.18,0.22
		c0.02,0.08,0.06,0.34,0.12,0.78l0.06,0.56l0.08,0.07h0.43l0.08-0.07l-0.06-2.09c0.02-0.68,0.05-1.36,0.06-2.04l-0.08-0.07H59.4
		l-0.08,0.07l-0.04,0.57c-0.02,0.29-0.06,0.49-0.09,0.61c-0.03,0.11-0.09,0.19-0.15,0.23c-0.07,0.04-0.3,0.08-0.69,0.11
		c-0.39,0.04-0.88,0.06-1.46,0.06c-0.57,0-1.2-0.02-1.89-0.06l0.03-1.89l0.03-1.7l0.03-1.49c0.78-0.07,1.42-0.1,1.91-0.1
		c0.35,0,0.88,0.03,1.58,0.09c0.7,0.05,1.26,0.16,1.65,0.33c0.08,0.47,0.12,0.97,0.12,1.49c0,0.04,0,0.09-0.01,0.15l0.08,0.07h0.45
		l0.05-0.07c0.07-1.28,0.19-2.22,0.34-2.81l-0.05-0.06c-1.6,0.04-3.43,0.06-5.48,0.06c-0.61,0-1.98-0.01-4.12-0.06l-0.08,0.06v0.46
		l0.08,0.06l0.71,0.06c0.23,0.02,0.38,0.06,0.47,0.09c0.1,0.03,0.15,0.07,0.2,0.13c0.04,0.05,0.08,0.14,0.11,0.26
		c0.03,0.13,0.05,0.33,0.07,0.62c0.01,0.29,0.02,0.67,0.02,1.13l0.01,2.12v3.42c0,0.55-0.01,1.35-0.05,2.39
		c-0.03,1.04-0.08,1.58-0.13,1.63c-0.05,0.05-0.27,0.16-0.63,0.35l-0.08,0.1v0.32l0.08,0.07c0.65-0.04,1.26-0.06,1.85-0.06
		l2.56,0.01c1.93,0,3.49,0.02,4.68,0.05L61.57,96.91z M64.84,94.49c0,0.67-0.03,1.1-0.07,1.29c-0.04,0.19-0.1,0.31-0.16,0.38
		c-0.07,0.06-0.2,0.11-0.39,0.14c-0.19,0.04-0.58,0.07-1.17,0.1l-0.08,0.05v0.46l0.08,0.07c1.6-0.04,2.49-0.06,2.69-0.06
		c0.25,0,0.6,0.01,1.05,0.01c1.07,0.03,1.62,0.05,1.65,0.05l0.08-0.07v-0.46l-0.08-0.05c-0.66-0.03-1.08-0.06-1.25-0.11
		c-0.17-0.04-0.28-0.1-0.35-0.17c-0.06-0.07-0.1-0.21-0.14-0.41c-0.03-0.21-0.05-0.66-0.05-1.36l-0.01-1.82V88.2
		c0-2.2,0.05-3.36,0.14-3.5c0.58-0.19,1.2-0.28,1.85-0.28c0.94,0,1.69,0.22,2.23,0.63c0.55,0.42,0.82,1.04,0.82,1.86
		c0,0.91-0.3,1.63-0.92,2.14c-0.61,0.51-1.46,0.77-2.54,0.77c-0.18,0-0.43-0.01-0.75-0.03l-0.1,0.28c1.13,1.28,2.23,2.67,3.3,4.17
		c0.92,1.29,1.6,2.19,2.03,2.72c0.53-0.04,1.01-0.06,1.45-0.06c0.41,0,0.77,0.02,1.07,0.06l0.09-0.08v-0.44l-0.08-0.07
		c-0.23,0-0.39-0.01-0.49-0.03c-0.11-0.02-0.23-0.07-0.37-0.16c-0.14-0.09-0.47-0.45-0.96-1.1c-0.49-0.65-0.96-1.26-1.38-1.84
		l-1.33-1.76c-0.45-0.6-0.77-1.02-0.94-1.26c0.94-0.18,1.68-0.45,2.22-0.81c0.53-0.36,0.94-0.79,1.22-1.3
		c0.27-0.5,0.41-1.01,0.41-1.54c0-0.78-0.28-1.46-0.84-2.03c-0.56-0.57-1.63-0.86-3.21-0.86c-0.19,0-0.52,0.01-0.96,0.01
		c-1.2,0.04-2.15,0.05-2.86,0.05c-0.64,0-1.53-0.02-2.67-0.06l-0.08,0.06v0.46l0.08,0.06c0.67,0.03,1.09,0.06,1.25,0.11
		c0.17,0.04,0.28,0.1,0.35,0.17c0.06,0.07,0.1,0.2,0.13,0.41c0.03,0.21,0.04,0.66,0.05,1.37l0.02,1.82v4.33L64.84,94.49z
		 M81.74,96.03c-0.52,0.24-1.12,0.37-1.78,0.37c-0.48,0-0.95-0.06-1.42-0.19c-0.47-0.13-0.85-0.28-1.13-0.48
		c-0.28-0.2-0.45-0.39-0.51-0.57c-0.05-0.18-0.1-0.66-0.12-1.47l-0.08-0.07h-0.49l-0.08,0.07c-0.03,1.44-0.08,2.36-0.15,2.75
		l0.06,0.12c0.98,0.46,2.11,0.69,3.4,0.69c1.53,0,2.86-0.44,3.93-1.33c1.09-0.88,1.63-1.99,1.63-3.31c0-0.68-0.15-1.26-0.45-1.74
		c-0.31-0.48-0.7-0.83-1.21-1.05c-0.5-0.22-1.31-0.41-2.41-0.57c-0.81-0.12-1.36-0.22-1.65-0.3c-0.31-0.07-0.57-0.2-0.8-0.37
		c-0.23-0.17-0.41-0.39-0.56-0.67c-0.14-0.28-0.21-0.61-0.21-0.97c0-0.48,0.12-0.94,0.35-1.4c0.24-0.45,0.59-0.78,1.05-1
		c0.47-0.21,0.96-0.31,1.49-0.31c0.64,0,1.23,0.14,1.77,0.43c0.54,0.29,0.83,0.53,0.85,0.72c0.03,0.2,0.05,0.67,0.06,1.42l0.07,0.07
		h0.49l0.09-0.07c0.03-1.07,0.11-1.89,0.24-2.47l-0.06-0.12c-0.52-0.26-1.11-0.45-1.75-0.59c-0.64-0.14-1.23-0.2-1.77-0.2
		c-1.36,0-2.45,0.37-3.26,1.11c-0.81,0.74-1.22,1.7-1.22,2.86c0,0.43,0.07,0.84,0.21,1.21c0.14,0.38,0.33,0.69,0.56,0.95
		c0.24,0.26,0.53,0.47,0.88,0.64c0.35,0.17,0.7,0.29,1.05,0.37c0.35,0.08,0.84,0.17,1.47,0.27c0.65,0.1,1.13,0.21,1.46,0.29
		c0.33,0.09,0.61,0.23,0.86,0.41c0.26,0.18,0.45,0.43,0.6,0.73c0.14,0.3,0.21,0.66,0.21,1.07c0,0.59-0.15,1.11-0.43,1.59
		C82.67,95.43,82.26,95.79,81.74,96.03 M87.79,94.49c0,0.67-0.03,1.1-0.07,1.29c-0.04,0.19-0.1,0.31-0.16,0.38
		c-0.06,0.06-0.2,0.11-0.39,0.14c-0.2,0.04-0.59,0.07-1.17,0.1l-0.08,0.05v0.46L86,96.98c1.6-0.04,2.49-0.06,2.69-0.06
		c0.25,0,0.6,0.01,1.04,0.01c1.07,0.03,1.63,0.05,1.66,0.05l0.07-0.07v-0.46l-0.07-0.05c-0.67-0.03-1.09-0.06-1.26-0.11
		c-0.17-0.04-0.28-0.1-0.35-0.18c-0.06-0.07-0.11-0.2-0.14-0.41c-0.03-0.2-0.05-0.66-0.06-1.36l-0.01-1.82v-4.33l0.02-2.15
		c0-0.45,0.01-0.8,0.05-1.05c0.04-0.25,0.1-0.42,0.21-0.48c0.1-0.07,0.28-0.12,0.52-0.14c0.23-0.03,0.57-0.04,1-0.06l0.07-0.06
		v-0.46l-0.07-0.06c-1.59,0.04-2.49,0.06-2.7,0.06c-0.24,0-0.75-0.01-1.52-0.03L86,83.72l-0.08,0.06v0.46L86,84.3
		c0.67,0.03,1.09,0.06,1.25,0.11c0.17,0.04,0.28,0.1,0.35,0.17c0.06,0.07,0.1,0.2,0.13,0.41c0.02,0.21,0.04,0.66,0.05,1.37
		l0.02,1.82v4.33L87.79,94.49z M96.88,94.49c0,0.67-0.03,1.1-0.07,1.29c-0.04,0.19-0.1,0.31-0.16,0.38
		c-0.07,0.06-0.19,0.11-0.38,0.14c-0.2,0.04-0.58,0.07-1.17,0.1l-0.08,0.05v0.46l0.08,0.07c1.6-0.04,2.49-0.06,2.69-0.06
		c0.19,0,1.09,0.02,2.7,0.06l0.07-0.07v-0.46l-0.07-0.05c-0.67-0.03-1.09-0.06-1.26-0.11c-0.17-0.04-0.28-0.1-0.35-0.17
		c-0.05-0.06-0.1-0.21-0.13-0.41c-0.03-0.21-0.05-0.67-0.05-1.37l-0.02-1.82v-5.45c0-0.22,0.03-1.04,0.08-2.45h1.78
		c0.42,0,0.81,0.02,1.15,0.05c0.34,0.03,0.54,0.07,0.61,0.11c0.06,0.05,0.11,0.13,0.14,0.23c0.03,0.1,0.07,0.39,0.12,0.85l0.1,0.86
		l0.07,0.08h0.44l0.07-0.07c0-1.39,0.03-2.36,0.09-2.92l-0.08-0.08c-1.05,0.04-2.87,0.06-5.46,0.06c-2.54,0-4.36-0.02-5.45-0.06
		l-0.09,0.08c0.05,0.45,0.08,1.43,0.09,2.92l0.08,0.07h0.42l0.08-0.08l0.09-0.86c0.06-0.57,0.12-0.91,0.19-1.01
		c0.06-0.1,0.31-0.17,0.73-0.19c0.41-0.02,0.91-0.04,1.49-0.04h1.4c0.05,1.53,0.07,2.35,0.07,2.45v5.45L96.88,94.49z M116.09,83.76
		l-0.07-0.07c-0.3,0.02-0.52,0.03-0.66,0.03c-0.24,0-0.47-0.01-0.72-0.03l-1.97,3.4l-1.07,1.8l-0.94,1.52
		c-0.5-0.98-1.01-1.96-1.55-2.94c-0.54-0.98-0.98-1.74-1.32-2.29c-0.34-0.55-0.6-0.92-0.78-1.12c-0.18-0.2-0.36-0.37-0.55-0.5
		L103.8,84l-0.08,0.09v0.41l0.08,0.09c0.52,0,0.84,0.02,0.96,0.05c0.12,0.03,0.28,0.15,0.51,0.36c0.22,0.2,0.52,0.59,0.92,1.15
		c0.4,0.57,0.73,1.06,0.99,1.49l0.83,1.34c0.78,1.27,1.24,2.08,1.37,2.42v1.78l-0.02,1.6c-0.01,0.53-0.03,0.88-0.07,1.05
		c-0.04,0.17-0.09,0.28-0.15,0.35c-0.07,0.06-0.19,0.11-0.38,0.14c-0.19,0.04-0.58,0.07-1.18,0.09l-0.08,0.05v0.45l0.08,0.07
		c1.59-0.04,2.49-0.06,2.69-0.06c0.25,0,0.6,0.01,1.04,0.01c1.07,0.03,1.62,0.05,1.66,0.05l0.07-0.07v-0.45l-0.08-0.05
		c-0.67-0.03-1.08-0.06-1.25-0.1c-0.16-0.05-0.28-0.1-0.34-0.17c-0.06-0.06-0.11-0.2-0.14-0.42c-0.03-0.21-0.05-0.59-0.06-1.14
		l-0.01-1.4v-1.38c0-0.21,0.02-0.4,0.06-0.55c0.05-0.16,0.3-0.62,0.77-1.4c0.47-0.77,0.86-1.41,1.18-1.92
		c0.32-0.51,0.81-1.21,1.47-2.12c0.66-0.9,1.14-1.53,1.45-1.87V83.76z M149.33,95.36c-0.01,0.34-0.05,0.57-0.12,0.68
		c-0.07,0.12-0.19,0.2-0.35,0.25c-0.17,0.05-0.6,0.08-1.28,0.1l-0.07,0.07v0.44l0.08,0.07c1.23-0.04,2.1-0.06,2.62-0.06
		c0.76,0,1.64,0.02,2.66,0.06l0.08-0.07v-0.45l-0.07-0.06c-0.73-0.02-1.18-0.06-1.33-0.12c-0.15-0.06-0.27-0.15-0.32-0.28
		c-0.06-0.13-0.1-0.58-0.12-1.37c-0.02-0.79-0.03-1.49-0.03-2.12v-4.32c0.03-1.57,0.04-2.52,0.05-2.85
		c0.01-0.34,0.05-0.57,0.12-0.69c0.06-0.11,0.18-0.2,0.34-0.24c0.17-0.05,0.6-0.09,1.29-0.11l0.07-0.06v-0.45l-0.08-0.07
		c-0.71,0.04-1.33,0.06-1.85,0.06c-0.58,0-1.17-0.02-1.77-0.06c-0.3,0.79-0.89,2.09-1.76,3.9l-3.2,6.68l-3.54-7.28
		c-0.48-0.98-0.99-2.07-1.51-3.29c-0.51,0.04-1.12,0.06-1.81,0.06c-0.74,0-1.32-0.02-1.75-0.06l-0.08,0.08v0.43l0.07,0.07
		c0.73,0.02,1.18,0.05,1.34,0.11c0.16,0.07,0.27,0.16,0.33,0.29c0.06,0.13,0.1,0.6,0.12,1.42c0.01,0.81,0.02,1.51,0.02,2.08v4.3
		c-0.02,1.6-0.03,2.56-0.04,2.88c-0.01,0.32-0.06,0.55-0.13,0.66c-0.07,0.12-0.19,0.21-0.35,0.26c-0.17,0.05-0.59,0.08-1.28,0.1
		l-0.07,0.08v0.43l0.07,0.07c1.3-0.04,2.05-0.06,2.25-0.06c0.45,0,0.98,0.01,1.6,0.04l0.61,0.02l0.08-0.08v-0.43l-0.07-0.07
		c-0.74-0.02-1.18-0.06-1.33-0.11c-0.16-0.06-0.27-0.16-0.33-0.28c-0.06-0.13-0.1-0.59-0.12-1.38c-0.01-0.79-0.02-1.5-0.02-2.11
		v-6.55l4.47,9.31c0.23,0.48,0.51,1.12,0.86,1.93h0.36c0.61-1.49,1.32-3.09,2.13-4.78l3.23-6.77v6.87
		C149.36,94.07,149.34,95.02,149.33,95.36 M164.18,96.31c0.18-0.05,0.26-0.16,0.26-0.33c0-0.14-0.04-0.32-0.13-0.54l-1.2-2.89h-5.38
		l-1.02,2.43c-0.19,0.43-0.27,0.75-0.27,0.95c0,0.16,0.09,0.27,0.26,0.35c0.17,0.08,0.59,0.12,1.27,0.13l0.08,0.07v0.45l-0.07,0.07
		c-0.8-0.04-1.51-0.06-2.11-0.06c-0.68,0-1.37,0.02-2.07,0.06l-0.09-0.07v-0.45l0.09-0.07c0.45-0.01,0.75-0.03,0.88-0.07
		c0.13-0.04,0.25-0.13,0.35-0.25c0.1-0.12,0.31-0.52,0.62-1.2l0.99-2.14l2.54-5.78c0.48-1.14,0.96-2.27,1.43-3.4h0.61l4,9.42
		l0.53,1.26c0.15,0.36,0.33,0.75,0.54,1.17c0.2,0.42,0.34,0.67,0.42,0.74c0.08,0.08,0.18,0.13,0.29,0.18
		c0.12,0.03,0.37,0.06,0.77,0.07l0.08,0.07v0.45l-0.08,0.07c-0.66-0.04-1.26-0.06-1.78-0.06c-1.04,0.02-2.07,0.04-3.11,0.06
		l-0.08-0.07v-0.45l0.08-0.07C163.56,96.39,164.01,96.36,164.18,96.31 M162.79,91.79l-2.36-5.67l-2.38,5.67H162.79z M170.51,94.49
		c-0.01,0.67-0.03,1.1-0.07,1.29c-0.04,0.19-0.1,0.31-0.16,0.38c-0.07,0.06-0.2,0.11-0.39,0.14c-0.2,0.04-0.59,0.07-1.17,0.1
		l-0.08,0.05v0.46l0.08,0.07c1.6-0.04,2.49-0.06,2.69-0.06c0.25,0,0.6,0.01,1.04,0.01c1.07,0.03,1.62,0.05,1.65,0.05l0.07-0.07
		v-0.46l-0.07-0.05c-0.66-0.03-1.09-0.06-1.25-0.11c-0.18-0.04-0.28-0.1-0.35-0.17c-0.06-0.07-0.1-0.21-0.14-0.41
		c-0.03-0.21-0.05-0.66-0.05-1.36l-0.01-1.82V88.2c0-2.2,0.05-3.36,0.14-3.5c0.58-0.19,1.2-0.28,1.86-0.28
		c0.94,0,1.68,0.22,2.23,0.63c0.55,0.42,0.82,1.04,0.82,1.86c0,0.91-0.3,1.63-0.91,2.14c-0.61,0.51-1.46,0.77-2.54,0.77
		c-0.18,0-0.43-0.01-0.75-0.03l-0.1,0.28c1.12,1.28,2.22,2.67,3.3,4.17c0.92,1.29,1.6,2.19,2.03,2.72c0.52-0.04,1-0.06,1.45-0.06
		c0.41,0,0.77,0.02,1.07,0.06l0.08-0.08v-0.44l-0.07-0.07c-0.23,0-0.4-0.01-0.5-0.03c-0.1-0.02-0.23-0.07-0.37-0.16
		c-0.15-0.09-0.47-0.45-0.96-1.1c-0.49-0.65-0.95-1.26-1.38-1.84l-1.33-1.76c-0.46-0.6-0.77-1.02-0.95-1.26
		c0.94-0.18,1.68-0.45,2.22-0.81c0.53-0.36,0.94-0.79,1.21-1.3c0.28-0.5,0.42-1.01,0.42-1.54c0-0.78-0.28-1.46-0.85-2.03
		c-0.56-0.57-1.63-0.86-3.21-0.86c-0.19,0-0.52,0.01-0.97,0.01c-1.19,0.04-2.15,0.05-2.85,0.05c-0.64,0-1.52-0.02-2.67-0.06
		l-0.08,0.06v0.46l0.08,0.06c0.67,0.03,1.09,0.06,1.26,0.11c0.17,0.04,0.28,0.1,0.35,0.17c0.06,0.07,0.1,0.2,0.13,0.41
		c0.03,0.21,0.05,0.66,0.05,1.37l0.02,1.82v4.33L170.51,94.49z M190.02,96.98l0.07-0.07v-0.46l-0.07-0.05
		c-0.67-0.03-1.08-0.06-1.25-0.1c-0.17-0.05-0.28-0.1-0.34-0.17c-0.06-0.06-0.1-0.2-0.14-0.42c-0.04-0.21-0.06-0.59-0.06-1.14
		l-0.01-1.4v-1.38c0-0.21,0.02-0.4,0.07-0.55c0.04-0.16,0.29-0.62,0.76-1.39c0.47-0.77,0.86-1.41,1.18-1.92
		c0.32-0.51,0.81-1.21,1.47-2.12c0.65-0.9,1.13-1.52,1.45-1.87v-0.18l-0.07-0.07c-0.3,0.02-0.51,0.03-0.66,0.03
		c-0.23,0-0.47-0.01-0.71-0.03l-1.97,3.4l-1.07,1.8l-0.95,1.52c-0.49-0.98-1.01-1.96-1.55-2.94c-0.54-0.98-0.98-1.74-1.32-2.29
		c-0.34-0.55-0.6-0.92-0.78-1.12c-0.17-0.2-0.36-0.37-0.55-0.5L180.85,84l-0.08,0.09v0.41l0.08,0.09c0.52,0,0.84,0.02,0.95,0.05
		c0.12,0.03,0.29,0.15,0.51,0.36c0.22,0.2,0.52,0.59,0.92,1.15c0.4,0.57,0.73,1.06,0.99,1.48l0.82,1.34
		c0.78,1.27,1.24,2.08,1.39,2.42v1.78l-0.02,1.6c-0.01,0.53-0.03,0.88-0.07,1.05c-0.04,0.17-0.09,0.28-0.15,0.35
		c-0.07,0.06-0.2,0.11-0.39,0.14c-0.19,0.04-0.58,0.07-1.18,0.1l-0.07,0.05v0.46l0.07,0.07c1.59-0.04,2.49-0.06,2.69-0.06
		c0.25,0,0.6,0.01,1.04,0.01C189.43,96.97,189.98,96.98,190.02,96.98 M197.5,86.04c0-0.45,0.02-0.81,0.05-1.06
		c0.03-0.25,0.1-0.42,0.21-0.48c0.11-0.07,0.28-0.12,0.52-0.14c0.23-0.02,0.57-0.04,1-0.06l0.08-0.06v-0.46l-0.08-0.06
		c-1.59,0.04-2.49,0.06-2.7,0.06c-0.24,0-1.13-0.02-2.69-0.06l-0.08,0.06v0.46l0.08,0.06c0.67,0.03,1.08,0.06,1.25,0.11
		c0.17,0.04,0.28,0.09,0.34,0.17c0.06,0.06,0.1,0.2,0.13,0.41c0.03,0.2,0.05,0.66,0.06,1.37l0.01,1.82v4c0,1.07-0.02,1.98-0.06,2.74
		c-0.04,0.76-0.08,1.16-0.12,1.21c-0.03,0.04-0.25,0.16-0.64,0.36l-0.08,0.1v0.32l0.08,0.07c0.65-0.04,1.28-0.06,1.91-0.06
		l2.73,0.01c1.92,0,3.48,0.02,4.66,0.05l0.08-0.07c0-0.44,0.03-1.02,0.09-1.73c0.05-0.72,0.11-1.19,0.16-1.44l-0.07-0.08H204
		l-0.08,0.08c-0.01,0.09-0.08,0.41-0.2,0.98c-0.13,0.56-0.23,0.93-0.29,1.08c-0.35,0.15-0.72,0.24-1.1,0.28
		c-0.38,0.04-1.33,0.06-2.86,0.06h-1.92l-0.05-1.62c-0.01-0.41-0.02-1.13-0.02-2.17v-4.14L197.5,86.04z M208.53,94.98
		c-0.18,0.43-0.28,0.75-0.28,0.95c0,0.16,0.09,0.27,0.26,0.35c0.17,0.08,0.6,0.12,1.27,0.13l0.09,0.07v0.45l-0.07,0.07
		c-0.81-0.04-1.51-0.06-2.11-0.06c-0.68,0-1.37,0.02-2.07,0.06l-0.08-0.07v-0.45l0.08-0.07c0.46-0.01,0.75-0.03,0.88-0.07
		c0.14-0.04,0.25-0.12,0.35-0.25c0.1-0.12,0.31-0.52,0.62-1.2l0.99-2.14l2.54-5.78c0.48-1.14,0.96-2.27,1.43-3.4h0.6l4,9.42
		l0.53,1.26c0.16,0.36,0.33,0.74,0.54,1.16c0.2,0.42,0.35,0.67,0.42,0.74c0.08,0.08,0.18,0.13,0.29,0.18
		c0.12,0.03,0.37,0.06,0.77,0.07l0.08,0.07v0.45l-0.08,0.07c-0.66-0.04-1.25-0.06-1.79-0.06c-1.03,0.02-2.07,0.04-3.11,0.06
		l-0.07-0.07v-0.45l0.07-0.07c0.7-0.02,1.14-0.04,1.32-0.09c0.18-0.05,0.26-0.16,0.26-0.32c0-0.14-0.05-0.32-0.13-0.54l-1.2-2.89
		h-5.38L208.53,94.98z M209.87,91.79h4.74l-2.35-5.67L209.87,91.79z M233.77,97.32c-0.01-0.85-0.02-1.7-0.03-2.54l-0.01-2.57v-4.46
		c0-0.3,0.01-0.79,0.03-1.47c0.02-0.68,0.05-1.11,0.06-1.29c0.02-0.18,0.06-0.32,0.12-0.41c0.05-0.1,0.2-0.16,0.42-0.2
		c0.22-0.04,0.54-0.07,0.95-0.07l0.08-0.07v-0.43l-0.08-0.08c-0.39,0.04-1.01,0.06-1.87,0.06c-0.94,0-1.66-0.02-2.17-0.06
		l-0.07,0.08v0.43l0.07,0.07c0.37,0.01,0.66,0.03,0.88,0.06c0.22,0.04,0.36,0.09,0.44,0.15c0.08,0.07,0.13,0.2,0.16,0.4
		c0.03,0.2,0.06,0.66,0.08,1.4c0.02,0.73,0.03,1.21,0.03,1.43V95c-0.55-0.6-1.09-1.23-1.62-1.9l-4.39-5.5l-2.98-3.87
		c-0.41,0.04-0.92,0.06-1.55,0.06c-0.27,0-0.83-0.02-1.69-0.06l-0.08,0.08v0.43l0.08,0.07c0.47,0.01,0.81,0.03,1.01,0.07
		c0.2,0.04,0.35,0.14,0.47,0.29c0.11,0.15,0.17,0.39,0.17,0.71v7.57c0,0.3-0.01,0.78-0.03,1.47c-0.03,0.68-0.05,1.12-0.07,1.31
		c-0.02,0.19-0.07,0.34-0.13,0.42c-0.06,0.09-0.21,0.15-0.44,0.19c-0.23,0.04-0.53,0.06-0.91,0.07l-0.08,0.07v0.43l0.08,0.08
		c0.7-0.04,1.51-0.06,2.45-0.06c0.72,0,1.25,0.02,1.57,0.06l0.08-0.07v-0.44l-0.08-0.07c-0.52-0.01-0.86-0.04-1.03-0.09
		c-0.16-0.05-0.27-0.1-0.32-0.16c-0.05-0.06-0.09-0.16-0.12-0.32c-0.03-0.15-0.06-0.6-0.08-1.34c-0.02-0.74-0.03-1.25-0.03-1.54
		v-7.18l6.35,7.93l1.99,2.44l0.66,0.79C232.92,97.08,233.46,97.21,233.77,97.32 M250.05,89.73c0,0.84-0.14,1.67-0.44,2.49
		c-0.29,0.82-0.7,1.56-1.25,2.2c-0.54,0.65-1.15,1.17-1.84,1.57c-0.69,0.4-1.38,0.66-2.08,0.8c-0.69,0.13-1.39,0.2-2.12,0.2
		c-0.48,0-1.4-0.02-2.75-0.05c-0.44-0.01-0.73-0.01-0.88-0.01c-0.43,0-0.95,0.02-1.56,0.06l-0.08-0.07v-0.32l0.08-0.1
		c0.37-0.18,0.58-0.3,0.63-0.35c0.05-0.05,0.09-0.59,0.14-1.63c0.03-1.04,0.05-1.84,0.05-2.39V88.7l-0.01-2.12
		c0-0.46-0.01-0.83-0.02-1.13c-0.01-0.29-0.03-0.49-0.07-0.62c-0.03-0.12-0.07-0.21-0.11-0.26c-0.04-0.05-0.1-0.1-0.19-0.13
		c-0.09-0.04-0.24-0.07-0.47-0.09l-0.72-0.06l-0.08-0.06v-0.46l0.07-0.06c1.09,0.04,1.82,0.06,2.21,0.06l4.38-0.06
		c1.25,0,2.27,0.12,3.07,0.35c0.8,0.23,1.51,0.64,2.13,1.21c0.62,0.57,1.09,1.24,1.41,2C249.89,88.05,250.05,88.86,250.05,89.73
		 M247.44,93.3c0.43-0.95,0.64-2.03,0.64-3.22c0-1.76-0.47-3.13-1.41-4.1c-0.94-0.97-2.42-1.46-4.44-1.46
		c-0.84,0-1.64,0.06-2.41,0.19c-0.05,1.02-0.08,2.18-0.08,3.45v2.93l0.02,2.74c0,0.53,0.02,1.25,0.06,2.15
		c0.64,0.13,1.37,0.19,2.19,0.19c1.45,0,2.61-0.24,3.48-0.73C246.36,94.97,247.01,94.25,247.44,93.3 M3.38,103.51
		c0.14,0.05,0.24,0.12,0.31,0.2c0.06,0.08,0.12,0.21,0.17,0.41c0.05,0.2,0.08,0.52,0.1,0.98c0.02,0.46,0.03,1.05,0.03,1.77L4,110.2
		v5.4c0,0.86-0.03,2.11-0.08,3.75c-0.05,1.64-0.12,2.5-0.21,2.57c-0.08,0.07-0.42,0.26-0.99,0.55l-0.11,0.14v0.49l0.11,0.12
		c1.01-0.08,1.98-0.12,2.91-0.12l4,0.03c3.03,0,5.47,0.04,7.35,0.09l0.1-0.12c0-0.74,0.04-1.64,0.13-2.69
		c0.08-1.05,0.16-1.79,0.25-2.2l-0.12-0.1h-0.7l-0.14,0.1c-0.03,0.2-0.15,0.72-0.35,1.53c-0.2,0.82-0.34,1.34-0.43,1.56
		c-0.54,0.23-1.11,0.37-1.7,0.43c-0.6,0.06-2.09,0.08-4.47,0.08H6.84c-0.05-0.97-0.07-2.48-0.07-4.54c0-1.92,0.03-3.29,0.07-4.12
		c1.17-0.05,2.03-0.07,2.6-0.07c1.03,0,1.84,0.04,2.42,0.09c0.59,0.05,0.95,0.13,1.1,0.23c0.14,0.1,0.23,0.22,0.27,0.35
		c0.04,0.13,0.1,0.54,0.19,1.23l0.11,0.88l0.11,0.12h0.68l0.12-0.12l-0.08-3.31c0.03-1.07,0.05-2.15,0.08-3.22l-0.12-0.11h-0.68
		l-0.11,0.11l-0.06,0.91c-0.04,0.46-0.09,0.78-0.14,0.96c-0.06,0.18-0.13,0.3-0.23,0.36c-0.1,0.07-0.46,0.13-1.07,0.19
		c-0.61,0.06-1.36,0.09-2.26,0.09c-0.89,0-1.87-0.03-2.93-0.09l0.05-2.98l0.05-2.69l0.06-2.35c1.2-0.11,2.19-0.16,2.97-0.16
		c0.55,0,1.37,0.04,2.46,0.12c1.1,0.09,1.94,0.26,2.56,0.54c0.13,0.76,0.19,1.55,0.19,2.38c0,0.07-0.01,0.14-0.02,0.24l0.13,0.12
		h0.72l0.09-0.12c0.12-2.01,0.3-3.48,0.54-4.42l-0.07-0.1c-2.51,0.06-5.37,0.09-8.58,0.09c-0.94,0-3.09-0.03-6.45-0.09l-0.12,0.1
		v0.73l0.12,0.1l1.12,0.09C2.99,103.41,3.24,103.46,3.38,103.51 M35.68,122.1c0.27-0.07,0.41-0.24,0.41-0.5
		c0-0.22-0.07-0.5-0.21-0.86l-1.8-4.48h-8.51l-1.6,3.76c-0.28,0.68-0.42,1.17-0.42,1.48c0,0.25,0.13,0.43,0.39,0.55
		c0.27,0.12,0.93,0.18,2,0.19l0.14,0.11v0.76l-0.12,0.12c-1.27-0.07-2.37-0.12-3.32-0.12c-1.08,0-2.17,0.05-3.26,0.12l-0.14-0.12
		v-0.76l0.14-0.11c0.71-0.01,1.18-0.05,1.38-0.11c0.21-0.07,0.39-0.2,0.55-0.39c0.16-0.19,0.49-0.81,0.98-1.87l1.54-3.36l4-9.05
		c0.75-1.77,1.5-3.54,2.25-5.32h0.95l6.27,14.75l0.84,1.97c0.25,0.56,0.53,1.16,0.85,1.82c0.31,0.65,0.54,1.04,0.66,1.16
		c0.12,0.12,0.27,0.2,0.45,0.27c0.19,0.06,0.59,0.1,1.22,0.11l0.12,0.11v0.76l-0.12,0.12c-1.04-0.09-1.97-0.13-2.81-0.13
		c-1.63,0.05-3.25,0.09-4.88,0.13l-0.12-0.12v-0.76l0.12-0.11C34.72,122.23,35.41,122.18,35.68,122.1 M33.5,115l-3.69-8.86
		L26.07,115H33.5z M52.06,121.72c-0.83,0.38-1.76,0.57-2.8,0.57c-0.76,0-1.5-0.09-2.24-0.29c-0.74-0.2-1.33-0.45-1.78-0.76
		c-0.44-0.31-0.71-0.61-0.8-0.88c-0.08-0.28-0.15-1.05-0.2-2.3l-0.11-0.11h-0.72l-0.12,0.11c-0.05,2.27-0.12,3.71-0.22,4.32
		l0.09,0.19c1.53,0.73,3.3,1.09,5.33,1.09c2.42,0,4.48-0.7,6.18-2.09c1.7-1.39,2.55-3.13,2.55-5.22c0-1.07-0.24-1.98-0.71-2.73
		c-0.47-0.76-1.11-1.31-1.89-1.65c-0.79-0.35-2.05-0.65-3.78-0.89c-1.27-0.19-2.14-0.34-2.61-0.47c-0.47-0.13-0.9-0.32-1.25-0.58
		c-0.36-0.26-0.65-0.61-0.87-1.06c-0.23-0.45-0.34-0.96-0.34-1.53c0-0.74,0.19-1.48,0.56-2.19c0.37-0.71,0.92-1.24,1.65-1.57
		c0.72-0.34,1.51-0.5,2.34-0.5c1,0,1.93,0.22,2.78,0.68c0.85,0.45,1.3,0.82,1.33,1.13c0.04,0.3,0.07,1.04,0.09,2.22l0.12,0.1h0.76
		l0.13-0.11c0.05-1.67,0.19-2.95,0.4-3.85l-0.1-0.18c-0.82-0.42-1.74-0.72-2.74-0.93c-1-0.21-1.93-0.32-2.78-0.32
		c-2.14,0-3.85,0.59-5.13,1.76c-1.27,1.17-1.91,2.68-1.91,4.51c0,0.68,0.11,1.31,0.33,1.9c0.22,0.59,0.52,1.09,0.88,1.5
		c0.37,0.4,0.83,0.74,1.37,1c0.55,0.27,1.1,0.47,1.65,0.59c0.56,0.13,1.32,0.27,2.3,0.43c1.01,0.17,1.77,0.32,2.28,0.47
		c0.51,0.14,0.96,0.36,1.36,0.64c0.4,0.29,0.7,0.68,0.93,1.15c0.22,0.48,0.34,1.04,0.34,1.69c0,0.92-0.24,1.75-0.69,2.49
		C53.53,120.78,52.89,121.34,52.06,121.72 M68.63,103.79h2.78c0.66,0,1.26,0.02,1.81,0.07c0.53,0.05,0.86,0.11,0.95,0.18
		c0.09,0.08,0.17,0.2,0.21,0.35c0.04,0.16,0.11,0.61,0.18,1.33l0.16,1.35l0.12,0.13h0.69l0.12-0.12c0-2.19,0.04-3.73,0.13-4.61
		l-0.13-0.13c-1.64,0.08-4.48,0.12-8.52,0.12c-3.97,0-6.8-0.04-8.51-0.12l-0.13,0.13c0.07,0.71,0.11,2.25,0.13,4.61l0.12,0.12h0.67
		l0.14-0.13l0.14-1.35c0.09-0.89,0.18-1.41,0.28-1.58c0.11-0.16,0.49-0.26,1.14-0.3c0.66-0.04,1.44-0.06,2.34-0.06h2.19
		c0.07,2.4,0.12,3.67,0.12,3.83v8.57l-0.03,3.1c0,1.05-0.03,1.72-0.11,2.02c-0.07,0.3-0.15,0.5-0.26,0.6
		c-0.1,0.09-0.31,0.17-0.6,0.23c-0.3,0.06-0.91,0.11-1.83,0.15l-0.12,0.09v0.74l0.12,0.12c2.48-0.08,3.87-0.12,4.19-0.12
		c0.29,0,1.7,0.04,4.2,0.12l0.1-0.12v-0.74l-0.1-0.09c-1.05-0.04-1.71-0.1-1.97-0.17c-0.26-0.07-0.44-0.16-0.54-0.26
		c-0.09-0.1-0.16-0.32-0.21-0.65c-0.04-0.33-0.07-1.05-0.08-2.15l-0.02-2.87v-8.57C68.52,107.27,68.55,106,68.63,103.79
		 M79.92,119.35c-0.05,1.64-0.12,2.5-0.2,2.57c-0.09,0.07-0.41,0.26-0.99,0.55l-0.12,0.14v0.49l0.12,0.12
		c1.01-0.08,1.98-0.12,2.91-0.12l4,0.03c3.02,0,5.47,0.03,7.35,0.09l0.1-0.12c0-0.74,0.04-1.64,0.12-2.69
		c0.08-1.05,0.17-1.79,0.26-2.2l-0.12-0.1h-0.7l-0.15,0.1c-0.03,0.21-0.14,0.72-0.35,1.53c-0.2,0.82-0.34,1.34-0.43,1.56
		c-0.53,0.23-1.1,0.37-1.7,0.43c-0.6,0.05-2.09,0.08-4.47,0.08h-2.7c-0.05-0.97-0.07-2.48-0.07-4.54c0-1.92,0.02-3.29,0.07-4.12
		c1.16-0.05,2.03-0.07,2.6-0.07c1.03,0,1.84,0.04,2.42,0.09c0.59,0.05,0.95,0.13,1.1,0.23c0.14,0.1,0.23,0.21,0.27,0.35
		c0.04,0.13,0.1,0.54,0.19,1.23l0.1,0.88l0.12,0.12h0.67l0.12-0.12l-0.08-3.31c0.03-1.07,0.05-2.15,0.08-3.22l-0.12-0.12h-0.67
		l-0.12,0.12l-0.06,0.91c-0.03,0.46-0.08,0.78-0.14,0.96c-0.05,0.18-0.14,0.3-0.24,0.36c-0.1,0.07-0.46,0.13-1.06,0.19
		c-0.61,0.06-1.36,0.09-2.26,0.09c-0.89,0-1.87-0.03-2.92-0.09l0.04-2.98l0.04-2.69l0.06-2.35c1.21-0.11,2.2-0.16,2.97-0.16
		c0.54,0,1.37,0.04,2.46,0.12c1.09,0.09,1.94,0.26,2.56,0.54c0.13,0.75,0.19,1.55,0.19,2.38c0,0.07,0,0.14-0.01,0.23l0.14,0.12h0.72
		l0.08-0.12c0.12-2.01,0.3-3.48,0.55-4.42l-0.08-0.1c-2.51,0.06-5.37,0.09-8.58,0.09c-0.94,0-3.09-0.03-6.45-0.09l-0.11,0.1v0.73
		l0.11,0.1l1.12,0.09c0.35,0.04,0.59,0.09,0.73,0.14c0.14,0.05,0.24,0.12,0.31,0.2c0.07,0.08,0.12,0.21,0.17,0.41
		c0.05,0.2,0.09,0.52,0.1,0.98c0.02,0.46,0.03,1.05,0.03,1.77L80,110.2v5.4C80,116.46,79.98,117.71,79.92,119.35 M107.54,110.76
		c-0.96,0.81-2.28,1.22-3.98,1.22c-0.28,0-0.68-0.01-1.19-0.04l-0.15,0.45c1.76,2.01,3.49,4.19,5.17,6.54
		c1.45,2.03,2.51,3.45,3.19,4.27c0.82-0.06,1.58-0.09,2.27-0.09c0.65,0,1.21,0.03,1.67,0.09l0.14-0.13v-0.69l-0.12-0.12
		c-0.35,0-0.61-0.02-0.77-0.04c-0.16-0.03-0.36-0.11-0.58-0.24c-0.23-0.13-0.72-0.71-1.5-1.72c-0.77-1.01-1.5-1.98-2.17-2.89
		l-2.09-2.76c-0.71-0.94-1.21-1.6-1.49-1.99c1.48-0.28,2.64-0.71,3.49-1.27c0.84-0.56,1.48-1.24,1.91-2.04
		c0.43-0.79,0.65-1.6,0.65-2.42c0-1.23-0.44-2.3-1.32-3.2c-0.88-0.9-2.56-1.36-5.04-1.36c-0.31,0-0.82,0.01-1.51,0.03
		c-1.88,0.06-3.38,0.1-4.48,0.1c-1,0-2.4-0.04-4.19-0.12l-0.12,0.1v0.74l0.12,0.1c1.04,0.05,1.69,0.1,1.95,0.17s0.44,0.16,0.53,0.27
		c0.09,0.11,0.16,0.32,0.21,0.65c0.05,0.32,0.07,1.04,0.08,2.16l0.03,2.87v6.8l-0.02,3.1c-0.01,1.05-0.05,1.73-0.11,2.03
		c-0.06,0.31-0.15,0.5-0.25,0.6c-0.1,0.09-0.3,0.17-0.61,0.23c-0.3,0.06-0.91,0.11-1.82,0.15l-0.12,0.09v0.73l0.12,0.12
		c2.5-0.08,3.9-0.12,4.2-0.12c0.39,0,0.94,0.01,1.63,0.03c1.67,0.06,2.53,0.09,2.58,0.09l0.12-0.12v-0.73l-0.12-0.09
		c-1.04-0.04-1.69-0.1-1.96-0.17c-0.26-0.07-0.44-0.16-0.53-0.27c-0.09-0.11-0.16-0.32-0.21-0.65c-0.05-0.32-0.08-1.04-0.09-2.14
		l-0.01-2.87v-6.8c0-3.46,0.07-5.3,0.22-5.51c0.91-0.28,1.88-0.42,2.91-0.42c1.47,0,2.64,0.33,3.5,0.99
		c0.86,0.66,1.29,1.64,1.29,2.93C108.99,108.82,108.5,109.95,107.54,110.76 M136.25,106.43c0.04-1.07,0.07-1.75,0.11-2.03
		c0.03-0.28,0.09-0.49,0.18-0.64c0.09-0.15,0.31-0.26,0.66-0.32c0.36-0.06,0.85-0.1,1.5-0.11l0.11-0.12v-0.68l-0.13-0.13
		c-0.6,0.05-1.58,0.07-2.92,0.07c-1.47,0-2.6-0.02-3.4-0.07l-0.11,0.13v0.68l0.11,0.12c0.58,0.01,1.04,0.04,1.37,0.09
		c0.34,0.05,0.57,0.14,0.69,0.24c0.12,0.11,0.21,0.31,0.26,0.63c0.05,0.31,0.09,1.04,0.13,2.19c0.03,1.15,0.05,1.9,0.05,2.26v11.37
		c-0.86-0.94-1.71-1.93-2.54-2.98l-6.89-8.65l-4.69-6.08c-0.64,0.05-1.45,0.07-2.44,0.07c-0.42,0-1.31-0.02-2.66-0.07l-0.12,0.13
		v0.69l0.12,0.12c0.75,0.01,1.29,0.05,1.6,0.11c0.31,0.06,0.56,0.22,0.74,0.45c0.18,0.24,0.27,0.61,0.27,1.11v11.87
		c0,0.46-0.02,1.23-0.05,2.3c-0.04,1.07-0.07,1.75-0.1,2.06c-0.04,0.3-0.11,0.52-0.21,0.66c-0.1,0.14-0.34,0.24-0.69,0.3
		c-0.36,0.06-0.84,0.09-1.43,0.1l-0.13,0.12v0.68l0.13,0.14c1.1-0.07,2.38-0.1,3.84-0.1c1.13,0,1.96,0.03,2.46,0.1l0.12-0.12v-0.69
		l-0.12-0.12c-0.81-0.01-1.35-0.05-1.61-0.13c-0.26-0.08-0.43-0.17-0.51-0.26c-0.08-0.1-0.14-0.26-0.19-0.51
		c-0.05-0.24-0.09-0.95-0.12-2.1c-0.03-1.15-0.05-1.96-0.05-2.41v-11.27l9.97,12.45l3.13,3.82l1.05,1.24
		c1.2,0.24,2.05,0.45,2.54,0.61c-0.02-1.33-0.04-2.66-0.06-3.98l-0.01-4.04v-6.98C136.2,108.27,136.21,107.5,136.25,106.43
		 M157.28,121.72c-0.83,0.38-1.76,0.57-2.8,0.57c-0.75,0-1.5-0.09-2.24-0.29c-0.74-0.2-1.33-0.45-1.78-0.76
		c-0.45-0.31-0.71-0.61-0.8-0.88c-0.08-0.28-0.15-1.05-0.2-2.3l-0.12-0.11h-0.72l-0.11,0.11c-0.05,2.27-0.12,3.71-0.22,4.32
		l0.09,0.19c1.53,0.73,3.31,1.09,5.34,1.09c2.42,0,4.48-0.7,6.18-2.09c1.7-1.39,2.55-3.13,2.55-5.22c0-1.07-0.24-1.98-0.72-2.73
		c-0.47-0.76-1.1-1.31-1.89-1.65c-0.79-0.35-2.05-0.65-3.78-0.89c-1.27-0.19-2.13-0.34-2.61-0.47c-0.47-0.13-0.89-0.32-1.25-0.58
		c-0.36-0.26-0.65-0.61-0.87-1.06c-0.23-0.45-0.34-0.96-0.34-1.53c0-0.74,0.18-1.48,0.56-2.19c0.37-0.71,0.92-1.24,1.65-1.57
		c0.72-0.34,1.51-0.5,2.34-0.5c0.99,0,1.92,0.22,2.77,0.68c0.85,0.45,1.3,0.82,1.34,1.13c0.04,0.3,0.06,1.04,0.08,2.22l0.12,0.1
		h0.76l0.13-0.11c0.05-1.67,0.19-2.95,0.4-3.85l-0.1-0.18c-0.82-0.42-1.74-0.72-2.74-0.93c-1.01-0.21-1.93-0.32-2.79-0.32
		c-2.14,0-3.85,0.59-5.13,1.76c-1.27,1.17-1.91,2.68-1.91,4.51c0,0.68,0.11,1.31,0.33,1.9c0.22,0.59,0.51,1.09,0.88,1.5
		c0.37,0.4,0.83,0.74,1.38,1c0.55,0.27,1.1,0.47,1.65,0.59c0.55,0.13,1.32,0.27,2.3,0.43c1,0.17,1.77,0.32,2.27,0.47
		c0.51,0.14,0.97,0.36,1.36,0.64c0.39,0.29,0.7,0.68,0.92,1.15c0.22,0.48,0.33,1.04,0.33,1.69c0,0.92-0.23,1.75-0.69,2.49
		C158.75,120.78,158.11,121.34,157.28,121.72 M184.52,106c0.01-0.7,0.04-1.26,0.09-1.65c0.05-0.39,0.15-0.65,0.32-0.75
		c0.16-0.11,0.43-0.19,0.8-0.23c0.37-0.04,0.89-0.07,1.58-0.09l0.11-0.1v-0.73l-0.11-0.1c-2.48,0.08-3.89,0.12-4.22,0.12
		c-0.31,0-1.71-0.04-4.23-0.12l-0.1,0.1v0.73l0.1,0.1c1.05,0.04,1.71,0.09,1.97,0.16c0.26,0.07,0.44,0.16,0.53,0.27
		c0.08,0.11,0.16,0.32,0.21,0.65c0.05,0.32,0.08,1.04,0.08,2.16l0.03,2.86v2.06c-1.37,0.06-3.37,0.08-6,0.08
		c-1.92,0-3.95-0.03-6.1-0.08v-2.06l0.03-3.38c0-0.7,0.03-1.26,0.08-1.65c0.05-0.39,0.16-0.65,0.33-0.75
		c0.17-0.11,0.43-0.19,0.81-0.23c0.36-0.04,0.89-0.07,1.56-0.09l0.12-0.1v-0.73l-0.12-0.1c-2.49,0.08-3.89,0.12-4.21,0.12
		c-0.3,0-1.7-0.04-4.2-0.12l-0.12,0.1v0.73l0.12,0.1c1.04,0.04,1.69,0.09,1.95,0.16c0.26,0.07,0.45,0.16,0.54,0.27
		c0.09,0.11,0.16,0.32,0.2,0.65c0.04,0.32,0.08,1.04,0.08,2.16l0.03,2.86v6.8l-0.02,3.1c-0.01,1.05-0.04,1.72-0.11,2.02
		c-0.06,0.3-0.15,0.51-0.25,0.6c-0.1,0.1-0.31,0.17-0.6,0.23c-0.31,0.06-0.92,0.11-1.83,0.14l-0.12,0.09v0.74l0.12,0.12
		c2.5-0.08,3.9-0.12,4.2-0.12c0.31,0,1.72,0.04,4.21,0.12l0.12-0.12v-0.74l-0.12-0.09c-1.03-0.04-1.68-0.1-1.95-0.17
		c-0.27-0.07-0.44-0.16-0.53-0.27c-0.09-0.11-0.17-0.32-0.22-0.65c-0.05-0.32-0.07-1.04-0.08-2.14l-0.02-2.87v-3.35
		c2.8-0.06,4.8-0.09,5.99-0.09c1.17,0,3.2,0.03,6.1,0.09v3.35l-0.03,3.1c0,1.05-0.03,1.72-0.1,2.02c-0.07,0.3-0.15,0.51-0.25,0.6
		c-0.1,0.1-0.3,0.17-0.6,0.23c-0.3,0.06-0.92,0.11-1.84,0.14l-0.1,0.09v0.74l0.1,0.12c2.5-0.08,3.91-0.12,4.23-0.12
		c0.3,0,1.71,0.04,4.22,0.12l0.11-0.12v-0.74l-0.11-0.09c-1.06-0.04-1.71-0.1-1.96-0.17c-0.26-0.07-0.44-0.16-0.53-0.27
		c-0.09-0.11-0.16-0.32-0.21-0.65c-0.05-0.32-0.08-1.04-0.09-2.14l-0.03-2.87v-6.8L184.52,106z M191.56,120.47
		c-0.94-1.06-1.63-2.28-2.05-3.68c-0.43-1.39-0.64-2.66-0.64-3.8c0-1.47,0.21-2.84,0.63-4.12c0.42-1.27,1.14-2.45,2.15-3.53
		c1.01-1.09,2.23-1.92,3.67-2.52c1.43-0.59,3.04-0.89,4.85-0.89c3.34,0,6.01,0.91,7.98,2.73c1.97,1.82,2.97,4.3,2.97,7.45
		c0,2.21-0.48,4.2-1.45,5.96c-0.97,1.77-2.36,3.13-4.16,4.12c-1.81,0.97-3.85,1.47-6.1,1.47c-1.59,0-3.07-0.27-4.41-0.8
		C193.65,122.33,192.51,121.53,191.56,120.47 M193.98,105.43c-1.37,1.48-2.06,3.69-2.06,6.6c0,1.19,0.2,2.48,0.58,3.86
		c0.39,1.38,0.97,2.55,1.73,3.54c0.77,0.98,1.66,1.71,2.66,2.2c1.01,0.48,2.15,0.71,3.43,0.71c1.52,0,2.87-0.34,4.05-1.04
		c1.18-0.7,2.09-1.78,2.7-3.24c0.62-1.46,0.93-3.11,0.93-4.93c0-1.98-0.35-3.77-1.06-5.36c-0.71-1.6-1.71-2.76-3.01-3.49
		c-1.31-0.72-2.75-1.09-4.34-1.09C197.23,103.19,195.36,103.94,193.98,105.43 M224.64,110.76c-0.96,0.81-2.28,1.22-3.97,1.22
		c-0.29,0-0.68-0.01-1.19-0.04l-0.15,0.45c1.76,2.01,3.49,4.19,5.18,6.54c1.44,2.03,2.51,3.45,3.19,4.27
		c0.82-0.06,1.58-0.09,2.27-0.09c0.65,0,1.2,0.03,1.68,0.09l0.13-0.13v-0.69l-0.12-0.12c-0.35,0-0.6-0.02-0.77-0.04
		c-0.16-0.03-0.35-0.11-0.58-0.24c-0.23-0.13-0.72-0.71-1.5-1.72c-0.78-1.01-1.5-1.98-2.18-2.89l-2.08-2.76
		c-0.71-0.94-1.21-1.6-1.49-1.99c1.48-0.28,2.64-0.71,3.49-1.27c0.84-0.56,1.48-1.24,1.91-2.04c0.43-0.79,0.65-1.6,0.65-2.42
		c0-1.23-0.45-2.3-1.33-3.2c-0.88-0.9-2.56-1.36-5.04-1.36c-0.31,0-0.82,0.01-1.51,0.03c-1.89,0.06-3.38,0.1-4.48,0.1
		c-1,0-2.4-0.04-4.19-0.12l-0.12,0.1v0.74l0.12,0.1c1.04,0.05,1.69,0.1,1.95,0.17c0.26,0.07,0.45,0.16,0.53,0.27
		c0.09,0.11,0.16,0.32,0.21,0.65c0.04,0.32,0.07,1.04,0.08,2.16l0.03,2.87v6.8l-0.01,3.1c-0.01,1.05-0.05,1.73-0.11,2.03
		c-0.06,0.31-0.15,0.5-0.24,0.6c-0.1,0.09-0.31,0.17-0.61,0.23c-0.31,0.06-0.91,0.11-1.82,0.15l-0.12,0.09v0.73l0.12,0.12
		c2.5-0.08,3.9-0.12,4.2-0.12c0.39,0,0.94,0.01,1.63,0.03c1.67,0.06,2.53,0.09,2.59,0.09l0.11-0.12v-0.73l-0.11-0.09
		c-1.04-0.04-1.7-0.1-1.96-0.17c-0.26-0.07-0.44-0.16-0.53-0.27c-0.09-0.11-0.16-0.32-0.21-0.65c-0.05-0.32-0.08-1.04-0.09-2.14
		l-0.01-2.87v-6.8c0-3.46,0.07-5.3,0.22-5.51c0.91-0.28,1.88-0.42,2.91-0.42c1.47,0,2.64,0.33,3.49,0.99
		c0.87,0.66,1.3,1.64,1.3,2.93C226.08,108.82,225.6,109.95,224.64,110.76 M235.49,119.35c-0.05,1.64-0.12,2.5-0.21,2.57
		c-0.08,0.07-0.41,0.26-0.99,0.55l-0.12,0.14v0.49l0.12,0.12c1.01-0.08,1.98-0.12,2.91-0.12l3.99,0.03c3.03,0,5.48,0.03,7.35,0.09
		l0.1-0.12c0-0.74,0.05-1.64,0.13-2.69c0.08-1.05,0.17-1.79,0.26-2.2l-0.12-0.1h-0.7l-0.14,0.1c-0.03,0.21-0.14,0.72-0.35,1.53
		c-0.2,0.82-0.35,1.34-0.43,1.56c-0.54,0.23-1.11,0.37-1.7,0.43c-0.6,0.05-2.09,0.08-4.47,0.08h-2.7c-0.05-0.97-0.07-2.48-0.07-4.54
		c0-1.92,0.02-3.29,0.07-4.12c1.17-0.05,2.03-0.07,2.6-0.07c1.03,0,1.83,0.04,2.42,0.09c0.59,0.05,0.95,0.13,1.09,0.23
		c0.15,0.1,0.24,0.21,0.28,0.35c0.04,0.13,0.1,0.54,0.19,1.23l0.1,0.88l0.12,0.12h0.67l0.12-0.12l-0.08-3.31
		c0.03-1.07,0.05-2.15,0.08-3.22l-0.12-0.12h-0.67l-0.12,0.12l-0.06,0.91c-0.03,0.46-0.08,0.78-0.14,0.96s-0.14,0.3-0.24,0.36
		c-0.1,0.07-0.45,0.13-1.07,0.19c-0.61,0.06-1.36,0.09-2.26,0.09c-0.89,0-1.86-0.03-2.93-0.09l0.04-2.98l0.05-2.69l0.06-2.35
		c1.21-0.11,2.2-0.16,2.97-0.16c0.55,0,1.37,0.04,2.46,0.12c1.09,0.09,1.94,0.26,2.57,0.54c0.13,0.75,0.19,1.55,0.19,2.38
		c0,0.07,0,0.14-0.02,0.23l0.14,0.12h0.72l0.09-0.12c0.12-2.01,0.3-3.48,0.54-4.42l-0.07-0.1c-2.51,0.06-5.37,0.09-8.58,0.09
		c-0.94,0-3.09-0.03-6.46-0.09l-0.11,0.1v0.73l0.11,0.1l1.12,0.09c0.34,0.04,0.58,0.09,0.72,0.14c0.14,0.05,0.25,0.12,0.31,0.2
		c0.06,0.08,0.12,0.21,0.17,0.41c0.05,0.2,0.08,0.52,0.1,0.98c0.02,0.46,0.03,1.05,0.03,1.77l0.01,3.33v5.4
		C235.57,116.46,235.54,117.71,235.49,119.35 M123.14,91.23c0.57,0,1.04,0.16,1.4,0.49c0.36,0.33,0.54,0.82,0.54,1.48
		c0,0.6-0.11,1.2-0.34,1.82c-0.22,0.62-0.52,1.07-0.89,1.36c-0.37,0.29-0.76,0.53-1.17,0.74c-0.41,0.2-0.87,0.31-1.39,0.31
		c-0.49,0-0.88-0.1-1.15-0.29c-0.28-0.19-0.47-0.44-0.58-0.74c-0.11-0.3-0.16-0.61-0.16-0.94c0-0.38,0.06-0.85,0.19-1.42
		c0.13-0.57,0.35-1.05,0.66-1.43c0.31-0.38,0.73-0.71,1.26-0.98C122.04,91.36,122.58,91.23,123.14,91.23 M123.48,94.62
		c0.1-0.51,0.15-0.98,0.15-1.4c0-0.53-0.11-0.9-0.31-1.11c-0.21-0.21-0.46-0.32-0.76-0.32c-0.31,0-0.58,0.12-0.82,0.36
		c-0.24,0.23-0.44,0.7-0.63,1.4c-0.18,0.7-0.27,1.32-0.27,1.88c0,0.5,0.09,0.85,0.28,1.08c0.19,0.22,0.45,0.33,0.8,0.33
		c0.24,0,0.46-0.06,0.64-0.2c0.19-0.13,0.36-0.37,0.52-0.72C123.25,95.57,123.38,95.13,123.48,94.62 M126.56,96.96
		c-0.14,0.77-0.27,1.35-0.37,1.76c-0.1,0.4-0.19,0.65-0.26,0.75c-0.07,0.1-0.14,0.16-0.22,0.21c-0.08,0.05-0.16,0.07-0.25,0.07
		c-0.24,0-0.45-0.19-0.6-0.56l-0.2,0.04c-0.07,0.4-0.21,0.85-0.4,1.35c0.16,0.08,0.31,0.11,0.46,0.11c0.17,0,0.34-0.04,0.52-0.12
		c0.3-0.14,0.62-0.39,0.99-0.76c0.37-0.36,0.67-0.78,0.9-1.24c0.24-0.46,0.48-1.13,0.72-2.03c0.19-0.67,0.38-1.43,0.57-2.3
		l0.48-2.11c0.09-0.01,0.31-0.01,0.65-0.01c0.42,0,0.7,0,0.84,0.01l0.07-0.06c0.03-0.16,0.09-0.35,0.17-0.58l-0.06-0.1
		c-0.11,0.03-0.36,0.05-0.73,0.07c-0.37,0.02-0.6,0.03-0.68,0.03h-0.14c0.07-0.4,0.15-0.81,0.26-1.22c0.1-0.42,0.18-0.69,0.23-0.81
		c0.06-0.12,0.13-0.22,0.24-0.28c0.1-0.07,0.2-0.11,0.32-0.11c0.31,0,0.62,0.24,0.93,0.72l0.19-0.04c0.07-0.51,0.18-1.03,0.35-1.57
		c-0.18-0.07-0.36-0.1-0.55-0.1c-0.18,0-0.34,0.03-0.49,0.09c-0.15,0.06-0.37,0.19-0.67,0.4c-0.3,0.2-0.62,0.46-0.96,0.75
		c-0.34,0.29-0.58,0.52-0.71,0.68c-0.13,0.16-0.22,0.3-0.27,0.44c-0.06,0.13-0.11,0.35-0.19,0.64c-0.03,0.19-0.06,0.31-0.08,0.33
		c-0.15,0.07-0.36,0.15-0.64,0.23c-0.28,0.08-0.46,0.14-0.55,0.17l-0.07,0.06l-0.04,0.22l0.04,0.05c0.17-0.01,0.35-0.01,0.56-0.01
		c0.14,0,0.32,0,0.55,0.01l-0.47,2.49L126.56,96.96z"/>
</g>
</svg>
