<?xml version="1.0" ?>
<svg xmlns:rdf="http://www.w3.org/1999/02/22-rdf-syntax-ns#" xmlns="http://www.w3.org/2000/svg" xmlns:cc="http://creativecommons.org/ns#" xmlns:dc="http://purl.org/dc/elements/1.1/" xml:space="preserve" viewBox="0 0 378.98999 156.59125" version="1.1">
	<defs>
		<clipPath id="a" clipPathUnits="userSpaceOnUse">
			<path d="m0 125.33h312.7v-125.27h-312.7v125.27z"/>
		</clipPath>
	</defs>
	<g transform="matrix(1.25 0 0 -1.25 0 156.67)">
		<g style="">
			<g fill="#4f2d7f">
				<path d="m137.51 77.626-0.119-4.335c-1.854-1.017-3.917-1.435-6.039-1.435-6.039 0-10.137 4.305-10.137 10.464 0 6.04 4.307 10.435 10.107 10.435 1.645 0 3.767-0.269 5.77-1.435l0.12-4.335h-1.854l-0.597 3.527c-1.017 0.538-2.033 0.748-3.051 0.748-4.006 0-7.235-3.11-7.235-8.94 0-5.86 2.93-8.969 7.026-8.969 1.136 0 2.393 0.239 3.558 0.807l0.599 3.468h1.852"/>
				<path d="m161.74 77.626-0.209-5.322h-15.489v1.226l2.751 0.329c0.06 2.511 0.06 5.113 0.06 7.713v1.465c0 2.572 0 5.143-0.06 7.715l-2.751 0.328v1.227h14.891l0.209-5.293h-1.705l-0.657 3.798h-7.027c-0.06-2.482-0.06-5.024-0.06-7.595h4.396l0.418 2.841h1.376v-7.056h-1.376l-0.388 2.81h-4.426c0-2.84 0-5.442 0.06-8.013h7.624l0.659 3.827h1.704"/>
				<path d="m189.72 91.08-2.542-0.389v-18.686h-1.046l-11.96 16.385v-14.442l3.17-0.418v-1.226h-7.236v1.226l2.542 0.359v16.594l-0.269 0.358-2.124 0.239v1.227h4.605l10.793-14.8v13.184l-3.139 0.389v1.227h7.206v-1.227"/>
				<path d="m207.8 90.812c-0.059-2.542-0.059-5.143-0.059-7.775v-1.465c0-2.57 0-5.141 0.059-7.713l3.05-0.329v-1.226h-9.029v1.226l3.049 0.329c0.06 2.542 0.06 5.113 0.06 7.713v1.465c0 2.572 0 5.173-0.06 7.775h-4.575l-0.658-3.827h-1.733l0.239 5.322h16.384l0.239-5.322h-1.734l-0.657 3.827h-4.575"/>
				<path d="m230.94 82.918c3.228 0 4.724 1.735 4.724 4.246 0 2.392-1.317 3.767-4.396 3.767h-2.572c-0.06-2.571-0.06-5.083-0.06-8.013h2.304zm9.776-9.388v-1.226c-0.599-0.179-1.315-0.299-2.242-0.299-1.943 0-2.991 0.478-3.349 1.913l-1.166 4.784c-0.599 2.422-1.615 2.87-4.006 2.87h-1.317c0-2.69 0-5.232 0.06-7.713l2.751-0.329v-1.226h-8.462v1.226l2.751 0.329c0.06 2.511 0.06 5.113 0.06 7.713v1.465c0 2.572 0 5.143-0.06 7.715l-2.751 0.328v1.227h8.372c4.575 0 7.267-1.944 7.267-5.113 0-2.512-1.436-4.635-4.844-5.263 1.524-0.418 2.451-1.524 3.079-3.707l1.285-4.395 2.572-0.299"/>
				<path d="m260.4 80.197-2.959 8.761-2.99-8.761h5.949zm7.324-6.667v-1.226h-8.131v1.226l2.93 0.359-1.645 4.904h-6.906l-1.675-4.875 2.9-0.388v-1.226h-6.846v1.226l2.542 0.388 6.337 18.389h1.884l6.369-18.508 2.241-0.269"/>
				<path d="m291.1 77.925-0.298-5.621h-14.89v1.226l2.75 0.329c0.06 2.572 0.06 5.143 0.06 7.713v1.465c0 2.602 0 5.203-0.06 7.715l-2.75 0.328v1.227h8.461v-1.227l-2.751-0.328c-0.059-2.572-0.059-5.143-0.059-7.715v-2.032c0-2.153 0-4.665 0.059-7.206h6.787l0.867 4.126h1.824"/>
				<path d="m120.04 50.287-2.96 8.761-2.99-8.761h5.95zm7.324-6.667v-1.226h-8.132v1.226l2.93 0.358-1.645 4.904h-6.906l-1.675-4.874 2.901-0.388v-1.226h-6.847v1.226l2.542 0.388 6.337 18.388h1.884l6.369-18.507 2.242-0.269"/>
				<path d="m143.49 53.008c3.228 0 4.724 1.734 4.724 4.245 0 2.392-1.317 3.768-4.396 3.768h-2.572c-0.059-2.571-0.059-5.083-0.059-8.013h2.303zm9.776-9.388v-1.226c-0.598-0.179-1.314-0.3-2.241-0.3-1.944 0-2.992 0.479-3.35 1.914l-1.166 4.784c-0.598 2.422-1.615 2.87-4.006 2.87h-1.316c0-2.69 0-5.232 0.059-7.714l2.751-0.328v-1.226h-8.461v1.226l2.751 0.328c0.059 2.512 0.059 5.113 0.059 7.714v1.465c0 2.572 0 5.143-0.059 7.715l-2.751 0.328v1.226h8.372c4.575 0 7.266-1.943 7.266-5.113 0-2.511-1.436-4.634-4.844-5.262 1.524-0.419 2.451-1.525 3.08-3.708l1.285-4.394 2.571-0.299"/>
				<path d="m179.96 43.62v-1.226h-7.683v1.226l2.42 0.299-4.843 8.73-2.84-3.409c0-1.614 0-3.438 0.059-5.292l2.841-0.328v-1.226h-8.432v1.226l2.751 0.328c0.06 2.512 0.06 5.113 0.06 7.714v1.465c0 2.572 0 5.143-0.06 7.715l-2.751 0.328v1.226h8.432v-1.226l-2.841-0.328c-0.059-2.542-0.059-5.113-0.059-7.715v-1.884l7.833 9.599-2.212 0.328v1.226h6.876v-1.226l-2.9-0.389-5.112-6.158 6.128-10.704 2.333-0.299"/>
				<path d="m199.52 50.287-2.96 8.761-2.99-8.761h5.95zm7.324-6.667v-1.226h-8.132v1.226l2.93 0.358-1.645 4.904h-6.906l-1.675-4.874 2.9-0.388v-1.226h-6.846v1.226l2.542 0.388 6.337 18.388h1.884l6.369-18.507 2.242-0.269"/>
				<path d="m234.56 61.17-2.542-0.389v-18.687h-1.046l-11.96 16.386v-14.442l3.17-0.418v-1.226h-7.236v1.226l2.542 0.358v16.594l-0.269 0.359-2.124 0.239v1.226h4.605l10.793-14.8v13.185l-3.139 0.389v1.226h7.206v-1.226"/>
				<path d="m249.96 53.666c3.916-1.526 5.442-3.2 5.442-5.98 0-3.558-2.93-5.741-7.087-5.741-2.242 0-4.454 0.688-5.83 1.585l0.179 4.186h1.854l0.598-3.528c0.927-0.508 1.824-0.748 3.109-0.748 2.811 0 4.635 1.346 4.635 3.678 0 1.854-1.136 2.66-3.678 3.648l-1.166 0.477c-3.079 1.227-5.142 2.931-5.142 5.951 0 3.498 2.9 5.651 6.727 5.651 2.004 0 3.617-0.598 4.904-1.555l-0.179-3.917h-1.824l-0.629 3.378c-0.778 0.419-1.555 0.599-2.452 0.599-2.272 0-4.036-1.197-4.036-3.499 0-1.884 1.227-2.9 3.379-3.707l1.196-0.478"/>
				<path d="m274.83 50.287-2.96 8.761-2.989-8.761h5.949zm7.324-6.667v-1.226h-8.131v1.226l2.93 0.358-1.645 4.904h-6.906l-1.675-4.874 2.9-0.388v-1.226h-6.847v1.226l2.542 0.388 6.338 18.388h1.883l6.369-18.507 2.242-0.269"/>
				<path d="m297.75 53.666c3.917-1.526 5.442-3.2 5.442-5.98 0-3.558-2.93-5.741-7.087-5.741-2.241 0-4.453 0.688-5.83 1.585l0.179 4.186h1.854l0.599-3.528c0.927-0.508 1.824-0.748 3.109-0.748 2.81 0 4.634 1.346 4.634 3.678 0 1.854-1.135 2.66-3.677 3.648l-1.166 0.477c-3.079 1.227-5.142 2.931-5.142 5.951 0 3.498 2.9 5.651 6.727 5.651 2.003 0 3.617-0.598 4.903-1.555l-0.179-3.917h-1.824l-0.628 3.378c-0.778 0.419-1.556 0.599-2.451 0.599-2.273 0-4.038-1.197-4.038-3.499 0-1.884 1.228-2.9 3.38-3.707l1.195-0.478"/>
				<path d="m128.31 111.26h1.584v-5.134c0-1.939 0.737-2.58 1.816-2.58 1.092 0 1.843 0.641 1.843 2.58v5.134h1.53v-5.011c0-2.936-1.311-4.082-3.373-4.082-2.075 0-3.4 1.146-3.4 4.082v5.011"/>
				<path d="m142.83 111.26h1.625l2.772-5.024 0.928-1.898h0.055c-0.082 0.914-0.205 2.048-0.205 3.044v3.878h1.502v-8.93h-1.625l-2.771 5.025-0.929 1.898h-0.055c0.082-0.942 0.205-2.021 0.205-3.017v-3.906h-1.502v8.93"/>
				<path d="m157.32 111.26h1.584v-8.93h-1.584v8.93z"/>
				<path d="m165.66 111.26h1.68l1.256-4.492c0.286-1.011 0.478-1.885 0.778-2.908h0.055c0.3 1.023 0.505 1.897 0.792 2.908l1.242 4.492h1.611l-2.758-8.93h-1.884l-2.772 8.93"/>
				<path d="m179.85 111.26h5.366v-1.338h-3.782v-2.28h3.209v-1.338h-3.209v-2.636h3.919v-1.338h-5.503v8.93"/>
				<path d="m194.24 107.08h1.256c1.229 0 1.884 0.518 1.884 1.529 0 1.024-0.655 1.379-1.884 1.379h-1.256v-2.908zm3.277-4.752-1.925 3.496h-1.352v-3.496h-1.584v8.93h3.004c1.857 0 3.291-0.655 3.291-2.649 0-1.366-0.711-2.185-1.789-2.553l2.13-3.728h-1.775"/>
				<path d="m206.64 104.56c0.642-0.601 1.502-1.01 2.335-1.01 0.996 0 1.557 0.45 1.557 1.146 0 0.738-0.574 0.97-1.393 1.311l-1.215 0.533c-0.888 0.368-1.803 1.064-1.803 2.375 0 1.42 1.257 2.513 2.99 2.513 1.052 0 2.062-0.437 2.758-1.134l-0.819-1.01c-0.56 0.478-1.174 0.765-1.939 0.765-0.846 0-1.392-0.396-1.392-1.052 0-0.696 0.683-0.956 1.42-1.256l1.201-0.505c1.065-0.451 1.803-1.12 1.803-2.417 0-1.447-1.202-2.648-3.209-2.648-1.202 0-2.362 0.477-3.209 1.31l0.915 1.079"/>
				<path d="m219.34 111.26h1.584v-8.93h-1.584v8.93z"/>
				<path d="m230.46 109.92h-2.58v1.338h6.731v-1.338h-2.567v-7.592h-1.584v7.592"/>
				<path d="m243.67 105.65-2.69 5.612h1.693l0.969-2.281c0.26-0.668 0.52-1.283 0.792-1.966h0.055c0.287 0.683 0.574 1.298 0.833 1.966l0.97 2.281h1.651l-2.689-5.612v-3.318h-1.584v3.318"/>
				<path d="m268.48 106.84c0 1.993-0.915 3.209-2.308 3.209-1.406 0-2.321-1.216-2.321-3.209 0-2.007 0.915-3.29 2.321-3.29 1.393 0 2.308 1.283 2.308 3.29zm-6.254 0c0 2.881 1.611 4.588 3.946 4.588 2.321 0 3.932-1.707 3.932-4.588 0-2.895-1.611-4.669-3.932-4.669-2.335 0-3.946 1.774-3.946 4.669"/>
			</g>
			<g style="" clip-path="url(#a)" fill="#4f2d7f">
				<path d="m277.48 111.26h5.393v-1.338h-3.809v-2.526h3.236v-1.338h-3.236v-3.728h-1.584v8.93"/>
				<path d="m87.962 118.53c-5.316-1.621-10.254-2.262-14.735-2.262-16.861 0-27.282 9.064-27.282 9.064s-10.423-9.064-27.282-9.064c-4.482 0-9.417 0.64-14.734 2.262 0 0-14.814-63.099 42.016-94.723 56.831 31.624 42.017 94.723 42.017 94.723"/>
			</g>
			<path d="m42.223 113.32c-7.282-3.501-15.429-5.352-23.56-5.352-2.583 0-5.186 0.183-7.793 0.546-0.536-6.036-0.722-13.907 1.036-23.721 0.649-3.626 1.521-7.133 2.602-10.515 0.312 17.07 14.293 30.862 31.437 30.862 1.291 0 2.563-0.08 3.813-0.232-1.432 0.623-2.931 0.918-3.813 1.049v9.342c-1.091-0.639-2.335-1.312-3.722-1.979" fill="#818a8f"/>
			<g fill="#fff">
				<path d="m64.251 60.318-1.704-1.208v8.649l-2.582 3.009v-10.45h-11.187l-1.703-1.208v8.649l-2.583 3.009v-10.45h-10.789l-1.704-1.208v8.649l-2.582 3.009v-10.45h-5.386l1.504-2.582h41.582l-1.505 2.582h-1.361"/>
				<path d="m79.985 84.794c-1.496-8.356-4.153-16.098-7.917-23.086l0.912 5.201v6.787c0 14.907-12.128 27.035-27.035 27.035s-27.035-12.128-27.035-27.035v-8.216l0.634-3.241c-3.614 6.85-6.18 14.409-7.638 22.555-1.758 9.814-1.572 17.685-1.036 23.721 2.607-0.363 5.21-0.546 7.793-0.546 8.131 0 16.278 1.851 23.56 5.352 1.387 0.667 2.631 1.34 3.722 1.979 1.091-0.639 2.334-1.312 3.722-1.979 7.281-3.501 15.428-5.352 23.56-5.352 2.583 0 5.186 0.183 7.793 0.546 0.536-6.036 0.722-13.907-1.035-23.721zm-17.391-36.562v4.845l-2.582 3.009v-10.45h-11.2l0.014-0.014-1.704-1.208v8.663l-2.582 3.009v-10.45h-12.541v7.441l-2.582 3.009v-7.99c-2.522 2.802-4.803 5.772-6.823 8.91-0.376 0.585-0.742 1.178-1.101 1.775v14.915c0 10.973 7.227 20.258 17.181 23.353 2.297 0.715 4.739 1.1 7.271 1.1s4.975-0.385 7.272-1.1c9.953-3.095 17.181-12.38 17.181-23.353v-14.915c-0.36-0.597-0.725-1.19-1.102-1.775-1.987-3.088-4.228-6.012-6.702-8.774zm-18.086-6.79v-6.194c-3.643 2.388-7.011 4.992-10.089 7.806h23.052c-3.159-2.888-6.625-5.554-10.38-7.993v3.372l-2.583 3.009zm38.957 70.28c-3.426-0.655-6.851-0.986-10.238-0.986-12.854 0-22.403 4.716-27.282 7.807-4.879-3.091-14.429-7.807-27.282-7.807-3.384 0-6.806 0.33-10.228 0.985-0.74-6.124-1.374-15.714 0.711-27.656 1.887-10.805 5.609-20.631 11.062-29.204 6.281-9.874 14.93-18.159 25.737-24.66 10.88 6.545 19.57 14.895 25.862 24.857 5.45 8.629 9.152 18.517 11.003 29.39 2.017 11.848 1.391 21.24 0.655 27.274"/>
				<path d="m44.492 76.615-7.341 7.341c2.047 1.671 4.571 2.772 7.341 3.065v-10.406zm19.649-1.627 0.004-0.01-1.704-1.208s0.066 0.463-0.036 1.388c-0.067 0.543-0.165 1.075-0.283 1.601-0.042 0.185-0.089 0.377-0.143 0.579-0.494 1.878-1.293 3.631-2.367 5.185l-1.865-1.865c1.078-1.679 1.802-3.601 2.079-5.67h-10.331l13.008 12.989c-0.571 0.663-1.182 1.288-1.827 1.878l-4.032-4.067c-2.186 1.841-4.854 3.116-7.788 3.631v-1.778l0.006-0.838c2.224-0.466 4.251-1.459 5.95-2.846l-5.89-5.89v-0.02l-1.847-3.914v2.086 19.338c-0.374 0.019-0.751 0.031-1.13 0.031-0.489 0-0.972-0.022-1.453-0.054v-5.925c-3.48-0.311-6.647-1.694-9.172-3.822l-4.103 4.07c-0.623-0.569-1.216-1.171-1.769-1.808l13.02-13.061h-8.631l0.007-0.01-1.704-1.208s-0.071 0.457-0.001 1.218v0.001c0.043 0.479 0.142 1.076 0.351 1.761l0.007-0.01c0.385 1.444 0.984 2.8 1.783 4.02l-1.857 1.857c-1.551-2.21-2.576-4.81-2.894-7.629h-4.746l1.439-2.583h40.895l-1.505 2.583h-1.471"/>
			</g>
			<path d="m28.841 14.596c-4.522 0.084-8.277-2.444-8.277-2.444s3.576-2.703 8.098-2.802c3.793-0.083 6.891 1.413 7.842 1.988 3.033-1.018 5.489-2.408 7.445-3.852-4.769-3.407-7.693-6.758-7.693-6.758s1.615-1.481 5.326-0.219c0 0 1.289 2.55 4.366 5.342 3.077-2.792 4.364-5.342 4.364-5.342 3.71-1.262 5.325 0.219 5.325 0.219s-11.833 13.592-26.796 13.868zm9.101-0.784s0.506 3.556-1.837 7.079c-2.343 3.524-6.697 5.005-6.697 5.005s-0.555-4.232 1.789-7.756c2.343-3.523 6.745-4.328 6.745-4.328zm9.295-4.172c0.69-0.415 1.353-0.839 1.989-1.267 1.718 1.116 3.759 2.158 6.163 2.965 0.951-0.575 4.049-2.071 7.842-1.988 4.522 0.099 8.099 2.802 8.099 2.802s-3.755 2.528-8.278 2.444c-5.95-0.11-11.402-2.327-15.815-4.956zm-37.362 24.495s1.674 4.392 0.189 8.541-5.567 6.483-5.567 6.483-1.674-4.392-0.189-8.541 5.567-6.483 5.567-6.483zm8.865-0.366c-0.164 4.136-3.161 7.341-3.161 7.341s-2.731-3.501-2.568-7.636c0.163-4.136 3.16-7.341 3.16-7.341s2.732 3.5 2.569 7.636zm-4.696-7.771s-1.672 3.948-5.55 6.003c-3.878 2.056-8.494 1.442-8.494 1.442s1.671-3.947 5.549-6.003 8.495-1.442 8.495-1.442zm12.495-8.091s1.643 3.966 0.294 7.933-5.18 6.433-5.18 6.433-1.644-3.965-0.295-7.932c1.35-3.967 5.181-6.434 5.181-6.434zm-9.337 4.431c-4.356 1.168-8.659-0.404-8.659-0.404s2.758-3.465 7.114-4.633c4.356-1.167 8.659 0.404 8.659 0.404s-2.758 3.465-7.114 4.633zm43.495-4.198c2.343 3.524 1.789 7.756 1.789 7.756s-4.354-1.481-6.697-5.005c-2.344-3.523-1.838-7.079-1.838-7.079s4.403 0.805 6.746 4.328zm26.888 22.478c1.485 4.149-0.189 8.541-0.189 8.541s-4.081-2.334-5.566-6.483 0.189-8.541 0.189-8.541 4.081 2.334 5.566 6.483zm-8.703-7.144c0.164 4.135-2.568 7.636-2.568 7.636s-2.997-3.205-3.16-7.341 2.568-7.636 2.568-7.636 2.997 3.205 3.16 7.341zm4.517-1.473c-3.878-2.055-5.549-6.003-5.549-6.003s4.616-0.614 8.494 1.442 5.55 6.003 5.55 6.003-4.617 0.614-8.495-1.442zm-12.864-7.66c1.349 3.967-0.294 7.932-0.294 7.932s-3.831-2.466-5.181-6.433c-1.349-3.967 0.295-7.933 0.295-7.933s3.831 2.467 5.18 6.434zm12.816-2.407s-2.759-3.465-7.115-4.633c-4.355-1.167-8.659 0.404-8.659 0.404s2.759 3.465 7.115 4.633c4.355 1.168 8.659-0.404 8.659-0.404" fill="#818a8f"/>
		</g>
	</g>
</svg>