<?xml version="1.0" ?>
<svg xmlns="http://www.w3.org/2000/svg" viewBox="0 0 32 32">
	<rect height="32" rx="5" width="32" y="0.098"/>
	<path d="M5.333 20.27h.875l3.585 4.172V20.27h1.243v6.402h-.875L6.576 22.5v4.172H5.333V20.27ZM14.85 20.177c1.988 0 3.357 1.474 3.357 3.294s-1.37 3.294-3.357 3.294-3.356-1.473-3.356-3.294c0-1.82 1.37-3.294 3.357-3.294Zm0 5.49c1.215 0 2.115-.988 2.115-2.196 0-1.208-.902-2.196-2.114-2.196-1.213 0-2.115.988-2.115 2.196 0 1.208.902 2.196 2.114 2.196ZM17.793 20.27h1.251l1.333 3.997 1.416-3.997h.874l1.416 3.997 1.332-3.997h1.252l-2.133 6.402h-.875l-1.434-4.053-1.425 4.053h-.874l-2.133-6.402Z" fill="#fff"/>
	<path d="M14.496 5.431v8.737c.438 0 2.878.062 4.946-.122.52-.053 1.03-.12 1.515-.203 1.192-.223 2.193-.575 2.543-.865V6.301c-.907-.67-4.722-.87-9.001-.87h-.003Z" fill="#38af78"/>
	<path d="M23.5 13.09v-.11c-.347.29-1.351.643-2.543.866-.485.083-.994.15-1.515.202-2.068.184-4.508.122-4.946.122v.15c0 .348.005.644.014.983 0 .09.005.182.007.278.012.424.033.845.058 1.252.058.866.153 1.676.303 2.353.169.757.407 1.344.743 1.657l.016.016a7.538 7.538 0 0 0 6.5-3.19c.49-.698.865-1.609 1.097-2.562.17-.64.263-1.31.263-2.002v-.01l.003-.004Z" fill="#0026e0"/>
	<path d="M15.623 20.838c-.335-.313-.574-.9-.743-1.657-.15-.677-.245-1.487-.303-2.352a30.94 30.94 0 0 1-.064-1.53c-.01-.337-.012-.636-.014-.984v-.15c-1.985 0-3.704-.149-4.525-.296-.865-.157-1.441-.472-1.54-.633 0 .736.106 1.576.305 2.248a7.538 7.538 0 0 0 6.9 5.367l-.016-.015v.002Z" fill="#de0016"/>
	<path d="M8.725 5.949a.293.293 0 0 0-.294.292v7c.1.158.675.476 1.54.632.135.023.29.049.468.072.918.122 2.394.225 4.057.225V8.782C12.62 6.38 9.717 5.95 8.725 5.95Z" fill="#bb22a4"/>
</svg>