<?xml version="1.0" ?>
<!-- Generator: Adobe Illustrator 24.2.3, SVG Export Plug-In . SVG Version: 6.00 Build 0)  -->
<svg xmlns:inkscape="http://www.inkscape.org/namespaces/inkscape" xmlns:sodipodi="http://sodipodi.sourceforge.net/DTD/sodipodi-0.dtd" xmlns="http://www.w3.org/2000/svg" xmlns:svg="http://www.w3.org/2000/svg" version="1.1" id="Layer_1" x="0px" y="0px" viewBox="0 0 129.57378 134.96001" xml:space="preserve" fill="#000000" sodipodi:docname="unumdb.svg" inkscape:version="1.1.2 (0a00cf5339, 2022-02-04)">
	<sodipodi:namedview id="namedview866" pagecolor="#505050" bordercolor="#ffffff" borderopacity="1" inkscape:pageshadow="0" inkscape:pageopacity="0" inkscape:pagecheckerboard="1" showgrid="false" fit-margin-top="0" fit-margin-left="0" fit-margin-right="0" fit-margin-bottom="0" inkscape:zoom="4.4212329" inkscape:cx="67.062742" inkscape:cy="81.764524" inkscape:window-width="2460" inkscape:window-height="1563" inkscape:window-x="0" inkscape:window-y="0" inkscape:window-maximized="1" inkscape:current-layer="Layer_1"/>
	<path d="m 128.4,121.48 -8.12,-8.12 c 0.28,-0.52 0.58,-1.03 0.84,-1.58 3.86,-7.86 5.8,-17.93 5.8,-30.23 V 4.37 c 0,-1.39 -0.38,-2.47 -1.14,-3.23 C 125.02,0.38 124,0 122.74,0 h -1.13 -2.3 H 93.72 91.21 90.3 C 89.03,0 87.99,0.38 87.16,1.14 86.33,1.9 85.93,2.98 85.93,4.37 v 77.75 c 0,14.19 -3.33,24.65 -9.98,31.37 -1.8,1.82 -3.79,3.37 -5.94,4.7 2.54,0.41 5.22,0.62 8.05,0.62 3.79,0 7.3,-0.41 10.57,-1.17 1.28,-1.81 2.44,-3.76 3.47,-5.86 3.86,-7.86 5.8,-17.93 5.8,-30.23 V 8.4 h 17.04 v 73.72 c 0,14.19 -3.33,24.65 -9.98,31.37 -6.65,6.72 -15.62,10.08 -26.9,10.08 -11.41,0 -20.43,-3.36 -27.09,-10.08 -6.65,-6.72 -9.98,-17.17 -9.98,-31.37 V 9.42 4.59 4.37 C 40.99,2.98 40.61,1.9 39.85,1.14 39.09,0.38 38.01,0 36.62,0 H 35.68 33.19 7.6 5.28 4.18 C 2.91,0 1.9,0.38 1.14,1.14 0.38,1.9 0,2.98 0,4.37 v 0.22 4.83 72.12 c 0,12.29 1.96,22.37 5.89,30.23 3.93,7.86 9.53,13.69 16.82,17.49 7.27,3.79 16.02,5.69 26.25,5.7 -0.67,-0.31 -1.34,-0.61 -1.99,-0.95 -6,-3.13 -10.84,-7.66 -14.57,-13.54 -3.96,-1.66 -7.46,-3.97 -10.46,-6.99 -6.65,-6.72 -9.98,-17.17 -9.98,-31.37 V 9.41 8.38 H 29 v 1.03 72.12 c 0,12.29 1.96,22.37 5.89,30.23 3.93,7.86 9.53,13.69 16.82,17.49 7.29,3.8 16.06,5.7 26.33,5.7 10.39,0 19.2,-1.9 26.42,-5.7 1.53,-0.81 2.98,-1.73 4.36,-2.72 l 7.24,7.24 c 1.57,1.57 4.12,1.57 5.69,0 l 6.62,-6.62 c 1.6,-1.55 1.6,-4.1 0.03,-5.67 z" id="path863"/>
</svg>