<?xml version="1.0" ?>
<svg xmlns="http://www.w3.org/2000/svg" data-name="Component 49 – 1" viewBox="0 0 138.193 74.621">
	<g id="Group_7" transform="translate(-190.055 -294.892)">
		<path id="Subtraction_11" fill="#1b155b" stroke="rgba(0,0,0,0)" stroke-width="1" d="M8.354 22.961A8.106 8.106 0 0 1 2.485 20.6 9.585 9.585 0 0 1 0 13.714V6.932l6.7-3.869v9.669A4.109 4.109 0 0 0 7.84 15.8a3.886 3.886 0 0 0 2.747.994 4 4 0 0 0 3-1.111 4.839 4.839 0 0 0 1.156-3.49V0h6.7v22.335h-6.7v-2.1c-1.265 1.733-3.594 2.726-6.389 2.726Z" transform="translate(213.564 341.831)"/>
		<g id="Group_5" transform="translate(190.056 294.893)">
			<path id="Union_7" fill="#815afd" d="M3.1 46.3c-4.159-4.587-4.188-11.411.241-16.487a3.851 3.851 0 0 1 .449-.539l.983-.983c5.757-6.006 11.728-11.81 17.633-17.681.238-.236.484-.465.743-.7L26.6 6.462c-2.684-2.11-4.926-3.868-7.16-5.625L20.108 0h19v19.027l-.932.712c-1.96-2.327-3.921-4.648-5.83-6.917C24.514 20.5 16.995 27.795 9.57 35.2c-1.762 1.755-2.085 3.767-.059 5.786 2.078 2.064 4.054 1.5 5.772-.227 2.5-2.5 4.781-5.215 7.182-7.865 2.291 2.372 4.323 4.07 6.173 5.994-2.71 2.754-5.681 6.24-8.986 8.8a12.442 12.442 0 0 1-7.636 2.743A12.012 12.012 0 0 1 3.1 46.3Z" transform="rotate(14.98 6.503 49.536)"/>
			<path id="Path_11" fill="#3ac3ec" d="M4.095 8.9a4.129 4.129 0 0 1-3.012-1.062A4 4 0 0 1 0 4.84V0h8.189v4.84a4 4 0 0 1-1.083 3A4.129 4.129 0 0 1 4.095 8.9Z" transform="rotate(-30 80.03 -39.636)"/>
		</g>
		<path id="Path_15" fill="#1b155b" d="M20.571-87.492a7.912 7.912 0 0 0-6.277 2.57V-86.9H7.975v29.49h6.319v-10.408a7.912 7.912 0 0 0 6.277 2.57c5.519 0 10.069-4.845 10.069-11.122s-4.55-11.122-10.069-11.122ZM19.307-71.23a4.81 4.81 0 0 1-5.013-5.14 4.81 4.81 0 0 1 5.013-5.14 4.81 4.81 0 0 1 5.013 5.14 4.81 4.81 0 0 1-5.013 5.14Zm25.024 5.982a10.754 10.754 0 0 0 9.521-5.435l-5.519-3.16a4.319 4.319 0 0 1-4.086 2.359 4.636 4.636 0 0 1-4.76-4.887 4.636 4.636 0 0 1 4.76-4.887 4.362 4.362 0 0 1 4.087 2.358l5.519-3.2a10.853 10.853 0 0 0-9.521-5.392A10.913 10.913 0 0 0 33.168-76.37a10.913 10.913 0 0 0 11.164 11.122ZM71.252-86.9v1.98a7.912 7.912 0 0 0-6.277-2.57c-5.519 0-10.069 4.845-10.069 11.122s4.55 11.122 10.069 11.122a7.912 7.912 0 0 0 6.277-2.57v1.98h6.319V-86.9Zm-5.014 15.67a4.81 4.81 0 0 1-5.013-5.14 4.81 4.81 0 0 1 5.013-5.14 4.81 4.81 0 0 1 5.013 5.14 4.81 4.81 0 0 1-5.013 5.14Zm28.31-9.605V-86.9h-4.339v-5.9l-6.319 1.9v4h-3.37v6.066h3.37v7.457c0 5.9 2.4 8.384 10.658 7.541v-5.729c-2.78.169-4.339 0-4.339-1.812v-7.457Z" transform="translate(233.7 426.926)"/>
	</g>
</svg>