<?xml version="1.0" encoding="UTF-8"?>
<!-- Generator: Adobe Illustrator 21.1.0, SVG Export Plug-In . SVG Version: 6.00 Build 0)  -->
<svg version="1.1" id="Layer_1" xmlns="http://www.w3.org/2000/svg" xmlns:xlink="http://www.w3.org/1999/xlink" x="0px" y="0px" viewBox="0 0 1950.1 540.4" style="enable-background:new 0 0 1950.1 540.4;" xml:space="preserve">
<style type="text/css">
	.st0{fill:#C22228;}
	.st1{clip-path:url(#SVGID_2_);}
</style>
<rect x="96.4" y="496.5" transform="matrix(0.9994 -3.489950e-02 3.489950e-02 0.9994 -17.5609 5.8126)" class="st0" width="122.6" height="18.9"/>
<g>
	<path d="M397.2,483.5h-21v51.9h-7.8v-51.9h-21v-7h49.9V483.5z"/>
	<path d="M482.6,535.4h-7.8v-28.8h-29.4v28.8h-7.8v-58.9h7.8v23.1h29.4v-23.1h7.8V535.4z"/>
	<path d="M569.6,535.4h-38.8v-58.9h38.8v7h-31v16.1h31v7h-31v21.9h31V535.4z"/>
	<path d="M720.8,531.1c-1.5,0.6-2.8,1.2-3.9,1.8c-1.2,0.6-2.7,1.1-4.6,1.7c-1.6,0.5-3.4,0.9-5.2,1.3c-1.9,0.4-4,0.5-6.2,0.5   c-4.3,0-8.2-0.6-11.6-1.8c-3.5-1.2-6.5-3.1-9.1-5.6c-2.5-2.5-4.5-5.7-5.9-9.6s-2.1-8.4-2.1-13.5c0-4.9,0.7-9.2,2.1-13   c1.4-3.8,3.3-7.1,5.9-9.7c2.5-2.6,5.5-4.5,9.1-5.9c3.5-1.3,7.5-2,11.8-2c3.2,0,6.3,0.4,9.5,1.1c3.2,0.8,6.7,2.1,10.5,4v9.3h-0.6   c-3.2-2.7-6.5-4.7-9.7-5.9c-3.2-1.2-6.6-1.9-10.2-1.9c-3,0-5.7,0.5-8,1.4s-4.5,2.5-6.4,4.5c-1.8,2-3.2,4.5-4.3,7.5   c-1,3-1.5,6.5-1.5,10.5c0,4.1,0.6,7.7,1.7,10.7c1.1,3,2.6,5.4,4.3,7.3c1.8,2,4,3.4,6.5,4.3c2.5,0.9,5.1,1.4,7.8,1.4   c3.8,0,7.3-0.6,10.6-1.9c3.3-1.3,6.4-3.2,9.3-5.8h0.6V531.1z"/>
	<path d="M808.6,511.7c0,4.3-0.5,8-1.4,11.2c-0.9,3.2-2.5,5.8-4.6,7.9c-2,2-4.4,3.5-7.1,4.4c-2.7,0.9-5.9,1.4-9.5,1.4   c-3.7,0-6.9-0.5-9.7-1.5c-2.7-1-5-2.4-6.9-4.3c-2.1-2.2-3.7-4.8-4.6-7.8c-0.9-3.1-1.4-6.8-1.4-11.3v-35.2h7.8v35.6   c0,3.2,0.2,5.7,0.7,7.6c0.4,1.8,1.2,3.5,2.2,5c1.2,1.7,2.7,3,4.7,3.9c2,0.9,4.4,1.3,7.2,1.3c2.8,0,5.2-0.4,7.2-1.3   c2-0.9,3.6-2.2,4.7-3.9c1-1.5,1.8-3.2,2.2-5.2c0.4-1.9,0.7-4.3,0.7-7.2v-35.8h7.8V511.7z"/>
	<path d="M893.2,535.4h-37.3v-58.9h7.8v51.9h29.4V535.4z"/>
	<path d="M968.7,483.5h-21v51.9h-7.8v-51.9h-21v-7h49.9V483.5z"/>
	<path d="M1053.3,511.7c0,4.3-0.5,8-1.4,11.2c-0.9,3.2-2.5,5.8-4.6,7.9c-2,2-4.4,3.5-7.1,4.4c-2.7,0.9-5.9,1.4-9.5,1.4   c-3.7,0-6.9-0.5-9.7-1.5c-2.7-1-5-2.4-6.9-4.3c-2.1-2.2-3.7-4.8-4.6-7.8c-0.9-3.1-1.4-6.8-1.4-11.3v-35.2h7.8v35.6   c0,3.2,0.2,5.7,0.7,7.6c0.4,1.8,1.2,3.5,2.2,5c1.2,1.7,2.7,3,4.7,3.9c2,0.9,4.4,1.3,7.2,1.3c2.8,0,5.2-0.4,7.2-1.3   c2-0.9,3.6-2.2,4.7-3.9c1-1.5,1.8-3.2,2.2-5.2c0.4-1.9,0.7-4.3,0.7-7.2v-35.8h7.8V511.7z"/>
	<path d="M1149.4,535.4h-10.2l-19.7-23.4h-11v23.4h-7.8v-58.9h16.5c3.6,0,6.5,0.2,8.9,0.7c2.4,0.5,4.5,1.3,6.4,2.5   c2.1,1.3,3.8,3,5,5.1s1.8,4.6,1.8,7.8c0,4.2-1.1,7.8-3.2,10.7c-2.1,2.9-5.1,5-8.8,6.5L1149.4,535.4z M1131.1,493.1   c0-1.7-0.3-3.2-0.9-4.5c-0.6-1.3-1.6-2.4-2.9-3.3c-1.1-0.8-2.5-1.3-4-1.6c-1.6-0.3-3.4-0.5-5.5-0.5h-9.2v22.2h7.9   c2.5,0,4.6-0.2,6.5-0.7c1.8-0.4,3.4-1.2,4.7-2.4c1.2-1.1,2.1-2.4,2.6-3.8C1130.8,497.1,1131.1,495.3,1131.1,493.1z"/>
	<path d="M1228.2,535.4h-38.8v-58.9h38.8v7h-31v16.1h31v7h-31v21.9h31V535.4z"/>
	<path d="M1377.8,483.3c2.4,2.6,4.2,5.9,5.5,9.7c1.3,3.8,1.9,8.2,1.9,13s-0.7,9.2-2,13c-1.3,3.8-3.1,7-5.5,9.6   c-2.4,2.7-5.3,4.7-8.6,6s-7.1,2-11.3,2c-4.1,0-7.9-0.7-11.3-2.1c-3.4-1.4-6.3-3.4-8.6-6s-4.2-5.8-5.5-9.6c-1.3-3.8-1.9-8.1-1.9-13   c0-4.8,0.6-9.1,1.9-12.9s3.1-7.1,5.5-9.8c2.3-2.6,5.2-4.6,8.6-5.9c3.4-1.4,7.2-2.1,11.3-2.1c4.2,0,8,0.7,11.4,2.1   C1372.6,478.7,1375.5,480.7,1377.8,483.3z M1377.1,506c0-7.6-1.7-13.5-5.1-17.7c-3.4-4.2-8.1-6.2-14-6.2c-6,0-10.7,2.1-14.1,6.2   c-3.4,4.2-5.1,10.1-5.1,17.7c0,7.7,1.7,13.6,5.2,17.7c3.5,4.1,8.1,6.2,14,6.2s10.5-2,14-6.2C1375.4,519.6,1377.1,513.7,1377.1,506z   "/>
	<path d="M1467.7,483.5h-29.8v16.6h25.6v7h-25.6v28.4h-7.8v-58.9h37.6V483.5z"/>
	<path d="M1614.8,535.4h-9.7l-27.9-52.7v52.7h-7.3v-58.9h12.1l25.5,48.1v-48.1h7.3V535.4z"/>
	<path d="M1706.8,483.3c2.4,2.6,4.2,5.9,5.5,9.7c1.3,3.8,1.9,8.2,1.9,13s-0.7,9.2-2,13c-1.3,3.8-3.1,7-5.5,9.6   c-2.4,2.7-5.3,4.7-8.6,6s-7.1,2-11.3,2c-4.1,0-7.9-0.7-11.3-2.1c-3.4-1.4-6.3-3.4-8.6-6s-4.2-5.8-5.5-9.6c-1.3-3.8-1.9-8.1-1.9-13   c0-4.8,0.6-9.1,1.9-12.9s3.1-7.1,5.5-9.8c2.3-2.6,5.2-4.6,8.6-5.9c3.4-1.4,7.2-2.1,11.3-2.1c4.2,0,8,0.7,11.4,2.1   C1701.6,478.7,1704.4,480.7,1706.8,483.3z M1706.1,506c0-7.6-1.7-13.5-5.1-17.7c-3.4-4.2-8.1-6.2-14-6.2c-6,0-10.7,2.1-14.1,6.2   c-3.4,4.2-5.1,10.1-5.1,17.7c0,7.7,1.7,13.6,5.2,17.7c3.5,4.1,8.1,6.2,14,6.2s10.5-2,14-6.2C1704.3,519.6,1706.1,513.7,1706.1,506z   "/>
	<path d="M1827.6,476.5l-15.3,58.9h-8.8l-12.4-48.9l-12.1,48.9h-8.6l-15.6-58.9h8l12.4,49l12.2-49h7.9l12.3,49.4l12.3-49.4H1827.6z"/>
</g>
<g>
	<g>
		<defs>
			<rect id="SVGID_1_" x="0.1" y="1" width="1939.9" height="390.7"/>
		</defs>
		<clipPath id="SVGID_2_">
			<use xlink:href="#SVGID_1_" style="overflow:visible;"/>
		</clipPath>
		<path class="st1" d="M6.7,227.6c0.4,0.2,2.5-1.3,3-1.5c0.2-0.9,0.4-1.2,0.7-1.9c-0.5-0.2-1-0.5-1.5-0.7c-1,1.1-2,2.2-3,3.4    C6.2,227.1,6.5,227.4,6.7,227.6L6.7,227.6z M5.2,234.4c0.1,0.8,0.1,0.7,0.4,1.1v0.7c2.2-1,3.4-2.5,5.2-3.7v-1.1    c-1.6,0.2-2.1,0.2-3.7,0v-1.9H6c-0.1,0.1-0.2,0.3-0.4,0.4c0.3,1.2,0.6,1.6,1.5,2.2c-0.1,1.4-0.3,1.4-0.7,2.2H5.2L5.2,234.4z     M268.5,293.5h-0.4v-0.8h0.4V293.5L268.5,293.5z M198.1,369.2c-0.8-0.1-0.7-0.1-1.1-0.4h-0.7v-1.1h1.1c0.2,0.2,0.5,0.5,0.7,0.7    V369.2L198.1,369.2z M193.6,371.1h-0.7c0.1-0.4,0.2-0.8,0.4-1.1c0.5,0.2,0.3,0.1,0.4,0.4V371.1L193.6,371.1z M170.4,338.1H170    v-0.8h0.4V338.1L170.4,338.1z M110.9,329.5c-1.1,0.3-1.3,0.4-1.9,1.1c-0.8-0.1-0.7-0.1-1.1-0.4h-0.7c0.1-0.1,0.2-0.2,0.4-0.4    c0.5-1.4,1.5-1.8,3.4-1.9V329.5L110.9,329.5z M105.6,377c0.1-0.9,0.1-1.1,0.4-1.5c0.2-0.7,0.1-0.4,0.4-0.8    c0.2,0.6,0.3,1.2,0.4,2.2H105.6L105.6,377z M105.2,370.3h1.1c-0.3,0.9-0.4,0.8-0.8,1.5h-0.7C105,370.9,105,370.9,105.2,370.3    L105.2,370.3z M106,366.6c-0.6,0.3-0.5,0.3-1.1,0H106L106,366.6z M104.5,346.7c0.9-0.3,0.6-0.1,1.1-0.8h0.8v1.5    c-0.6,0.1-1.3,0.2-1.9,0.4V346.7L104.5,346.7z M103.7,359.1c-0.8-0.1-0.7-0.1-1.1-0.4h-0.8c0.1-1,0.3-2,0.8-2.6    c0.1-0.1,0.2-0.2,0.4-0.4v0.4c0.4,0.1,0.7,0.2,1.1,0.4C104,357.3,103.9,358.2,103.7,359.1L103.7,359.1z M104.1,363.2h-0.4    c-0.1-0.4-0.2-0.7-0.4-1.1h0.8V363.2L104.1,363.2z M82,98c-0.7-0.2-0.4-0.1-0.8-0.4c-1.1-0.4-0.7,0-1.1-1.1c1,0.3,0.9,0.5,1.9,0.7    V98L82,98z M77.5,313.8h-0.8c0.1-0.4,0.2-0.8,0.4-1.1c0.5,0.2,0.3,0.1,0.4,0.4V313.8L77.5,313.8z M74.5,278.2h-1.1v-0.8h1.1V278.2    L74.5,278.2z M72.3,195h-1.1v-0.7h1.1V195L72.3,195z M71.2,174.4c0.2,0.1,0.5,0.2,0.7,0.4c-0.2,0.4-0.5,0.7-0.7,1.1h-0.8    C70.7,175.1,70.8,175.1,71.2,174.4L71.2,174.4z M70.8,51.2c0.6,0.2,0.4,0.1,0.7,0.4c-0.5,0.5-1,1-1.5,1.5    C68.9,52.5,70.2,52.1,70.8,51.2L70.8,51.2z M69.3,7.8h-0.8V7h0.8V7.8L69.3,7.8z M68.9,237.7v0.8c-0.1-0.1-0.2-0.2-0.4-0.4h-0.7    c0.1-0.4,0.2-0.8,0.4-1.1c0.4,0.1,0.8,0.2,1.1,0.4L68.9,237.7L68.9,237.7z M68.5,193.5v0.8h-0.7c-0.1-0.4-0.2-0.8-0.4-1.1    C67.8,193.3,68.2,193.4,68.5,193.5L68.5,193.5z M66.7,9.3c-0.8-0.2-1.4-0.3-1.9-0.7H64c0.1-0.4,0.2-0.8,0.4-1.1    c0.7,0.4,1.5,0.8,2.2,1.1V9.3L66.7,9.3z M66.7,57.6h-0.4c-0.1-0.4-0.3-0.7-0.4-1.1c0.2,0.1,0.5,0.3,0.8,0.4V57.6L66.7,57.6z     M65.9,231.7c-0.2,0.1-0.5,0.2-0.7,0.4c-0.2-0.6-0.3-0.6-0.4-1.5h1.1c0.1,0.1,0.2,0.2,0.4,0.4C66.2,231.2,66,231.5,65.9,231.7    L65.9,231.7z M65.9,242.2c-0.8-0.2-1.4-0.3-1.9-0.7c-0.4-0.7-0.1-0.7,0-1.9c0.6,0.4,1.3,0.8,1.9,1.1V242.2L65.9,242.2z M65.5,249    h-0.7v-0.7h0.7V249L65.5,249z M64.8,272.6c-0.3-0.1-0.2,0.1-0.8-0.7c0.5,0.2,0.8,0.4,1.1,0.7H64.8L64.8,272.6z M63.7,58h-0.7    c0.2-1.2,0.3-1.1,0.7-1.9h1.1c0.1,0.1,0.2,0.2,0.4,0.4c-0.5,0.7-0.5,0.8-1.5,1.1V58L63.7,58z M63.7,223.9    c-1.3-0.2-3.1,0.2-4.1-0.4h-0.8c0.4-1.2,0.9-1.4,1.5-2.2h1.5c0.5,1.1,0.6,1.4,1.9,1.9V223.9L63.7,223.9z M63.7,264.3    c-0.9-0.1-1-0.1-1.5-0.4h-0.8v-0.4c0.2-0.2,0.5-0.5,0.8-0.7h1.5V264.3L63.7,264.3z M59.2,235.1v-0.7h1.5c0.1,0.8,0.1,0.7,0.4,1.1    v0.4C59.9,235.6,60,235.5,59.2,235.1L59.2,235.1z M59.2,277.8c-1-1.2-0.7-3.2-0.4-4.9h1.5c0.3,1.1,0.4,1.3,1.1,1.9    C60.7,275.8,59.9,276.8,59.2,277.8L59.2,277.8z M61.4,299.1h-0.7v-0.7h0.7V299.1L61.4,299.1z M59.6,352c-0.2,0.6-0.1,0.4-0.4,0.7    c-0.2-0.6-0.3-0.6-0.4-1.5c0.4,0.1,0.8,0.2,1.1,0.4C59.8,351.7,59.7,351.8,59.6,352L59.6,352z M60.7,101v0.7    c-1.5-0.4-2-0.6-2.2-2.2C59.3,100,59.9,100.5,60.7,101L60.7,101z M58.4,187.2c-0.5-0.3-0.8-0.4-1.1-0.8c-0.3-0.4-0.2-0.4-0.4-1.1    c0.5,0.2,1,0.5,1.5,0.7V187.2L58.4,187.2z M58.4,244.8c-0.7-0.1-1.5-0.3-2.2-0.4c0.1-0.5,0.2-1,0.4-1.5c0.6,0.4,1.3,0.7,1.9,1.1    V244.8L58.4,244.8z M57.7,337.7h-1.1c-0.1-0.1-0.2-0.3-0.4-0.4c0.1-1.4,0.3-1.4,0.7-2.2h0.8V337.7L57.7,337.7z M57.3,364.3h-1.1    c0-1,0-1.4,0.4-1.9v-0.8c0.1,0.1,0.2,0.2,0.4,0.4C58,362.8,57.5,362.8,57.3,364.3L57.3,364.3z M55.4,236.6    c0.2-0.8,0.3-1.4,0.7-1.9V234h1.9v1.1l-1.5,1.5H55.4L55.4,236.6z M55.8,226.5c0.4,0.1,0.7,0.2,1.1,0.4c-0.1,0.1-0.2,0.3-0.4,0.4    c-0.3,0.9-0.4,0.8-0.7,1.5h-0.7C55.2,227.6,55.4,227.3,55.8,226.5L55.8,226.5z M54.7,259.1c-0.4,0.3-0.1,0.1-0.7,0.4v-0.4    c-0.3-0.7-0.1-0.3,0-1.1c0.4,0.3,0.7,0.5,1.1,0.8C54.9,258.8,54.8,258.9,54.7,259.1L54.7,259.1z M55.1,334.4    c-0.1-0.1-0.3-0.2-0.4-0.4c-1.4-1.2-0.8-1.3,0-2.6h0.4V334.4L55.1,334.4z M54.7,277.8v0.8c-0.2,0.2-0.5,0.5-0.7,0.7    c-0.4-0.9-0.7-1.2-0.7-2.6C53.7,277,54.2,277.4,54.7,277.8L54.7,277.8z M53.2,246c0.5,0.2,0.3,0.1,0.4,0.4v0.8h-0.8    C52.9,246.7,53.1,246.3,53.2,246L53.2,246z M53.6,250.5c0.2,0.1,0.5,0.2,0.7,0.4v0.4C53.3,251,53.7,251.4,53.6,250.5L53.6,250.5z     M52.4,239.2c-0.2-0.8-0.3-1-0.7-1.5v-0.4h3c-0.1,0.9-0.2,1.8-0.4,2.6C53.4,239.7,53.1,239.5,52.4,239.2L52.4,239.2z M52.4,308.1    h-0.4c-0.1-0.4-0.2-0.7-0.4-1.1h0.7V308.1L52.4,308.1z M51.3,209.6c0.1-0.1,0.2-0.2,0.4-0.4c1.4,0.2,1.7,0.6,2.6,1.1    c-0.1,0.4-0.2,0.7-0.4,1.1c-1.2,0.3-1.7,0.6-3,0.7C51.1,211.4,51.2,210.5,51.3,209.6L51.3,209.6z M49.8,293.5v0.4h-0.7    c0.4-0.6,0.7-1.3,1.1-1.9c0.6,0.2,0.4,0.1,0.7,0.4C50.6,292.8,50.2,293.2,49.8,293.5L49.8,293.5z M49.8,316.4v0.4h-0.7    c-0.1-0.7-0.2-1.5-0.4-2.2h1.1c0.1,0.8,0.1,0.7,0.4,1.1C50,316.3,50.1,316,49.8,316.4L49.8,316.4z M47.6,305.5h1.1v0.7h-1.1V305.5    L47.6,305.5z M46.4,298.8c0.6,0.1,1.3,0.2,1.9,0.4c-0.2,0.6-0.1,0.4-0.4,0.7c-0.4,0.3-0.1,0.1-0.7,0.4    C46.9,299.8,46.7,299.3,46.4,298.8L46.4,298.8z M46.4,329.5h-0.7V328c0.2,0.1,0.5,0.2,0.7,0.4V329.5L46.4,329.5z M45.7,214.9    c0.2,0.1,0.5,0.2,0.7,0.4v0.8c-0.3,0.4-0.1,0.1-0.4,0.7h-0.7C45.4,216.1,45.6,215.5,45.7,214.9L45.7,214.9z M45.3,222.4H45    c-0.1-0.4-0.2-0.7-0.4-1.1c0.2,0.1,0.5,0.2,0.7,0.4V222.4L45.3,222.4z M45.3,268.8c-0.7,0.5-1.1,1.2-1.5,1.9h-1.1    c0.5-0.9,1-1.4,1.5-2.2h1.1V268.8L45.3,268.8z M43.4,316.4c-0.7,0.6-1.5,1.2-2.2,1.9c-0.1,0.1-0.2,0.2-0.4,0.4    c-0.1-0.1-0.2-0.2-0.4-0.4c0.6-0.9-0.1-0.4,1.1-0.8c0.1-0.9,0.2-1.7,0.4-2.6h1.5V316.4L43.4,316.4z M42.3,342.2h-0.4    c-0.4,0.3-0.3,0.2-1.1,0.4c0.1-0.8,0.2-1.5,0.4-2.2h1.1V342.2L42.3,342.2z M39.7,347.8v0.7h-0.4v-4.5c0.4,0.1,0.8,0.3,1.1,0.4    C40.5,346.1,40.6,347.1,39.7,347.8L39.7,347.8z M39,165.8h-0.4v-0.7H39V165.8L39,165.8z M38.6,233.6c-0.2,0.6-0.1,0.4-0.4,0.7    c-0.1-0.4-0.2-0.7-0.4-1.1H39C38.8,233.4,38.7,233.5,38.6,233.6L38.6,233.6z M39,307.8h-0.7V307c0.2,0.1,0.5,0.2,0.7,0.4V307.8    L39,307.8z M37.8,302.9h-0.4v-0.8h0.4V302.9L37.8,302.9z M37.1,317.9h-0.7c0.2-0.6,0.5-1.3,0.7-1.9c0.2,0.1,0.5,0.2,0.8,0.4    C37.5,317,37.4,317,37.1,317.9L37.1,317.9z M37.1,335.1c-0.7,0.4-1,0.5-1.5,1.1h-0.8c0.2-3.5,0.9-6.7,2.2-9h0.8    C37.5,329.8,37,332,37.1,335.1L37.1,335.1z M35.2,295v0.4h-0.4c0.1-0.4,0.2-0.7,0.4-1.1h0.4C35.7,295,35.4,294.8,35.2,295    L35.2,295z M34.5,286.4h-0.4c0.2-0.2,0.5-0.5,0.7-0.7c0.2,0.1,0.5,0.2,0.8,0.4v1.1C34.7,286.8,35,287,34.5,286.4L34.5,286.4z     M32.6,255c0.2-1.5,0.5-3,0.7-4.4c0,0,0,0,0-0.1h0.7c-0.1,1.5-0.2,3-0.4,4.5H32.6L32.6,255z M32.2,332.1c-0.2,0.6-0.1,0.4-0.4,0.7    c-0.4,0.3-0.4,0.2-1.1,0.4c0.2-3.1,2-5.9,0-7.5c0.6-0.9-0.1-0.4,1.1-0.7C32.2,327.2,34,329.9,32.2,332.1L32.2,332.1z M31.6,338    c0,0.2-0.1,0.3-0.1,0.5h-1.1c0.2-0.9,0.3-1.1,0.5-1.4c0.1-0.1,0.1-0.2,0.2-0.4h0.7C31.8,337.1,31.7,337.5,31.6,338L31.6,338z     M30,290.9c0.1-0.1,0.2-0.2,0.4-0.4h1.5c-0.2,0.8-0.3,1-0.7,1.5c-0.4,0.3-0.4,0.2-1.1,0.4V290.9L30,290.9z M29.6,300.3h-0.8v-1.5    H30C29.8,299.3,29.7,299.8,29.6,300.3L29.6,300.3z M27.3,289v-1.9c0.2-0.2,0.5-0.5,0.7-0.8h0.7c0,1,0,1.7-0.4,2.2    C28.1,289,28.1,288.9,27.3,289L27.3,289z M28.1,297.6H27c0.2-0.5,0.4-0.8,0.7-1.1v-0.4h0.4V297.6L28.1,297.6z M26.2,314.5h-0.4    c-0.2-0.5-0.4-0.8-0.7-1.1c0.1-1.9,0.4-1.9,1.1-3H27C26.7,311.8,26.5,313.1,26.2,314.5L26.2,314.5z M26.2,330.6h-0.4    c-0.1-0.4-0.2-0.7-0.4-1.1c0.1,0.1,0.2,0.1,0.3,0.2l0.4,0.2V330.6L26.2,330.6z M24.7,301v0.7h-0.4l-0.7-0.7c0.3-1.7,0.8-1.9,1.5-3    C25.8,299,25.4,300.3,24.7,301L24.7,301z M24,304.4v0.4h-0.7c0.1-1,0.2-1.3,0.4-1.9h0.7C24.3,303.8,24.3,303.9,24,304.4L24,304.4z     M24,326.9c-0.3-0.4-0.2-0.3-0.4-1.1H24V326.9L24,326.9z M22.5,316.4c-0.2,0-0.5-0.1-0.7-0.1c-0.4-0.1-0.8-0.1-1.2-0.2    c0.1-0.6,0.2-1.3,0.4-1.9h1.1c0.1,0.4,0.2,0.7,0.4,1.1h0.4C22.7,315.6,22.6,316,22.5,316.4L22.5,316.4z M22.5,323.9h-1.1v-0.7h1.1    V323.9L22.5,323.9z M20.6,317.5c0,1-1.8,2.5-1.9,5.3c-0.5-0.4-1-0.8-1.5-1.1c0.4-2.1,1.4-2.9,1.9-4.9h1.5V317.5L20.6,317.5z     M14.6,311.9h-1.1c0-2.9,0.6-4.6,0.7-7.1c0,0,0,0,0.1,0c2.5-1,3.4-2,4.4-4.5c1,0.1,1.3,0.2,1.9,0.4c-1,3.5-3.8,4.9-5.2,7.9    C15,309.4,14.7,310.5,14.6,311.9L14.6,311.9z M12,296.9c0.2-0.6,0.1-0.4,0.4-0.7c0.2-0.2,0.3-0.4,0.5-0.5c1.1-0.8,2.8-0.2,4-2.5    h0.7v0.8c-0.7,1-1.5,2-2.2,3H12L12,296.9z M10.5,293.2c0.4-0.7,0.7-1.4,1.1-2.2l0-0.1c1,0.1,2,0.3,3,0.4v1.5    c-0.4,0.4-0.7,0.8-1.1,1.1c-0.2,0-0.6-0.2-1.2-0.5C11.8,293.3,11.2,293.2,10.5,293.2L10.5,293.2z M10.5,285.1c0,0.1,0,0.1,0,0.2    c-0.7,0.4-1,0.5-1.5,1.1H7.9c0-1.4-0.2-3.3,0.4-4.1c0.1-1.4,0.3-1.4,0.8-2.2c0.2,0,0.4,0,0.5,0c0.5,0,0.6,0.1,1,0.3h0.8    C11,282,10.8,283.6,10.5,285.1L10.5,285.1z M14.2,280.8H15c-0.1,0.7-0.2,1.5-0.4,2.2h-0.7C14,282.3,14.1,281.5,14.2,280.8    L14.2,280.8z M9,276.7H8.4c0-0.1-0.1-0.2-0.1-0.2c0.7-2.3,2.3-3,3.3-5c0.9,0.1,1.1,0.1,1.5,0.4c0.1,0.1,0.2,0.2,0.4,0.4h-0.4    C12.3,274.4,10.2,274.9,9,276.7L9,276.7z M13.5,275.2h0.7c-0.7,2.8-2.2,2.7-4.1,4.1H9.3c-0.1-0.3-0.2-0.5-0.2-0.8    C10.4,277.5,12.4,276.5,13.5,275.2L13.5,275.2z M10.9,259.1c-0.1-1,0.1-1.6-0.4-2.2H9.7c-0.6-1.1,0.8-9.3,1.1-9.7v-0.8    c0.8,0.1,0.7,0.1,1.1,0.4h0.7c-1.6-0.7,1.3-2.8,1.5-3.7H15c-1.2,2.9-0.9,6.2-3.4,7.9c0,2.1,0.1,5.5,1.5,6.4    c-0.2,3.2-1.6,4.8-3.7,6v1.9c2.9-0.4,4.2-2.8,6.4-4.1c-0.3-1.5-0.5-3-0.8-4.5c0.6-0.6,1.3-1.3,1.9-1.9H18c-0.6,5.1-2,11-4.5,14.6    c-1.2,1.7-3.7,2.4-4.9,4.1H7.9c1.2-2.7,3.1-3.5,4.5-5.6c0.6-0.8,0.5-1.9,1.1-2.6v-0.4c-0.4-0.1-0.8-0.2-1.1-0.4    c-1.1,1.5-2.2,3-3.4,4.5c-0.4,0.3-0.1,0.1-0.8,0.4c-0.1-0.1-0.2-0.3-0.4-0.4C7.8,264.4,8.2,260.8,10.9,259.1L10.9,259.1z     M7.9,243.7H6.8c1.2-2,2.9-3.3,4.1-5.2c0.1,0.1,0.3,0.1,0.4,0.2c1.1,0.5,2.2,1.1,3.3,1.6c-1.1,1-2.7,1.5-4.3,2    C9.4,242.7,8.5,243.1,7.9,243.7L7.9,243.7z M13.1,235.8h1.5c0.1,0.3,0.2,0.5,0.4,0.8c0.1,0.1,0.2,0.2,0.4,0.4H15    c-0.1,0.4-0.2,0.7-0.4,1.1c-0.9-0.1-0.9-0.2-1.5-0.4V235.8L13.1,235.8z M16.1,250.1c0,0.9,0,1.4-0.4,1.9v0.7H15    c0.1-0.9,0.2-1.8,0.4-2.6H16.1L16.1,250.1z M16.9,234h1.5c0.7,1.2,1.5,1.6,2.2,2.6c2.3-0.1,3.2-0.8,4.1-2.2H27    c-0.8,2.3-3.3,3-4.5,5.2c-2.9-0.3-3.7-2.8-5.6-4.1V234L16.9,234z M17.2,230.2h1.1c0.4,0.9,0.8,1.2,1.1,2.2    c0.1,0.1,0.2,0.2,0.4,0.4c-0.1,0.1-0.2,0.2-0.4,0.4c-1.6-0.3-1.3-0.7-2.2-1.5V230.2L17.2,230.2z M23.2,232.5    c-0.1,0.9-0.2,0.9-0.4,1.5h-1.1c0.2-0.5,0.5-1,0.8-1.5H23.2L23.2,232.5z M21.7,227.2h1.1c0.6,1.2,1.2,2.5,1.9,3.7    c-1.4-0.5-3.4-0.1-4.5-0.7c-0.3-0.4-0.1-0.1-0.4-0.7C20.5,228.7,21.1,228,21.7,227.2L21.7,227.2z M21.4,213.4h1.1    c0.4,0.7,0.5,1,1.1,1.5v1.5h-0.7C22.5,215,21.9,214.5,21.4,213.4L21.4,213.4z M21.4,162.8c0.2-0.6,0.1-0.4,0.4-0.7    c0.3,1.1,0.6,1,0.8,2.2H21C21.1,163.4,21,163.3,21.4,162.8L21.4,162.8z M20.2,187.9h-0.8c0.2-1.7,0.6-2.2,1.1-3.4H21    C20.9,186.4,20.6,186.7,20.2,187.9L20.2,187.9z M20.2,214.9v1.5c-0.6-0.5-1.3-1-1.9-1.5c0.1-0.7,0.2-1.5,0.4-2.2h1.1    C20.1,213.7,20.5,214.4,20.2,214.9L20.2,214.9z M17.6,198.4c-1.1-0.4-0.7-0.1-1.1-1.1h3c0.1,0.1,0.2,0.2,0.4,0.4    c-0.1,0.4-0.2,0.8-0.4,1.1C18.5,198.7,18.1,198.7,17.6,198.4L17.6,198.4z M17.6,218.3h-1.8c0-0.1,0-0.1,0-0.2v-0.9    c0.1-0.1,0.2-0.2,0.4-0.4c0.6,0.1,1.2,0.2,1.9,0.4C17.9,217.5,17.7,217.9,17.6,218.3L17.6,218.3z M15.4,203.6    c0.3-1.4,0.5-1.3,1.1-2.2c0.2,0.1,0.5,0.2,0.7,0.4c-0.3,1.4-0.4,1.1-1.1,1.9H15.4L15.4,203.6z M14.6,177.8    c0.2-0.9,0.4-1.2,0.8-1.9c0.5,0.3,1,0.5,1.5,0.8c-0.1,0.4-0.2,0.7-0.4,1.1H14.6L14.6,177.8z M13.9,164.3c0-0.2,0-0.5,0-0.7    c0.5-0.2,1-0.3,1.8-0.4v1.5C14.8,164.7,14.4,164.6,13.9,164.3L13.9,164.3z M14.6,81.6H15c-0.1,0.1-0.2,0.2-0.4,0.4v0.4    c-0.9-0.6-0.4,0.1-0.7-1.1C14.5,81.4,14.2,81.2,14.6,81.6L14.6,81.6z M12,76.7h-0.7v-0.4c-0.3-0.4-0.1-0.1-0.4-0.7    c0.1-0.1,0.3-0.3,0.4-0.4c0.5-0.6,0.9-1.3,1.1-2.2h1.9v1.9C12.7,75.1,12.6,75.6,12,76.7L12,76.7z M13.1,79.3v0.7    c-0.1-0.1-0.2-0.2-0.4-0.4H12v-1.5c0.5,0.2,0.8,0.4,1.1,0.8c0.1,0.1,0.2,0.2,0.4,0.4H13.1L13.1,79.3z M13.5,104.8h-1.1    c0.1-1.3,0.1-1.6,0.7-2.2v-0.4h0.4V104.8L13.5,104.8z M11.6,100.3c0-0.9,0-1.4,0.4-1.9v-0.7h0.4c0.2,0.2,0.5,0.5,0.7,0.7    c0,0,0,0,0,0c0,0.1,0,0.1,0,0.2c-0.1,0.7-0.1,0.9-0.4,1.3C12.3,100.2,12.4,100.1,11.6,100.3L11.6,100.3z M12.4,110.8h-0.7    c0.1-1,0.2-1.3,0.4-1.9c0.4,0.1,0.7,0.2,1.1,0.4C12.8,110.1,12.7,110.1,12.4,110.8L12.4,110.8z M11.6,118.6v0.7h-0.8v-1.5    c0.4,0.1,0.8,0.2,1.1,0.4C11.9,118.4,11.7,118.5,11.6,118.6L11.6,118.6z M9.7,62.8c-0.4-0.9,0.3-1,0.7-2.2    c0.4,0.1,0.6,0.1,0.9,0.2c0.8,0.3,0.9,0.7,1.4,1.7h1.5v2.6H12c-0.2-0.2-0.5-0.4-0.7-0.6C10.6,64.1,10.1,63.9,9.7,62.8L9.7,62.8z     M10.1,67.7v0.4H9.4v-1.9c0.4,0.2,0.7,0.5,1.1,0.7C10.3,67.6,10.4,67.3,10.1,67.7L10.1,67.7z M7.1,82.3c-0.3,0.2-0.2,0.2-0.5,0.3    c-0.1,0-0.2,0.1-0.3,0.1c-0.4-0.3-0.1-0.1-0.7-0.4v-0.4c0.2-0.1,0.4-0.2,0.6-0.4c0.9-0.6,1.9-1.4,2.4-2.2c0.2,0.1,0.5,0.2,0.8,0.4    C8.8,80.7,8.1,81.6,7.1,82.3L7.1,82.3z M8.6,98H7.5c0.2-1.1,0.2-1.3,0.7-1.9c0.2-0.3,0-0.1,0.4,0h0.8C9.2,97.3,9,97.2,8.6,98    L8.6,98z M4.5,60.2v-1.9h0.7l0.4,0.4v1.5H4.5L4.5,60.2z M5.6,44.5c1.2,0.1,1.2,0.3,1.9,0h0.7v2.2H7.1c-0.5-0.9-0.7-1.3-1.5-1.9    V44.5L5.6,44.5z M7.5,41.1v1.5H6.8C6.5,42,6.5,42,6.4,41.1H7.5L7.5,41.1z M6,20.9v-1.5c1,0.1,2.3,0.3,3,0.7h3.7v0.4    c-1.3,0.9-1.7,2.5-3,3.4c-0.1,0.1-0.2,0.2-0.4,0.4C8.5,22.5,7.7,21.7,6,20.9L6,20.9z M7.1,30.6c-0.2,0.1-0.5,0.2-0.8,0.4v0.4H5.6    c-0.1-0.4-0.2-0.7-0.4-1.1C5.5,30,5.7,29.7,6,29.5h1.1V30.6L7.1,30.6z M9,9.3C9.1,9.1,9.2,9,9.4,8.9C9.7,9.3,9.5,9,9.7,9.6    C9.7,9.6,8.3,9.6,9,9.3L9,9.3z M12.4,55.7h1.1v1.1h-1.1V55.7L12.4,55.7z M10.1,50.5c0.4-0.2,0.7-0.5,1.1-0.8    c0.2-0.3,0.1-0.1,0.3,0c0,0,0.1,0,0.1,0c1,0.4,0.8,0.5,1.5,1.1v0.7c-0.5,0.1-1.1,0.1-1.6,0.2c-0.5,0.1-0.9,0.1-1.4,0.2V50.5    L10.1,50.5z M8.6,36.2v-1.5c1.3,0.4,1.8,1,3,1.4c0.1,0,0.2,0.1,0.4,0.1v1.9c-0.2,0-0.3-0.1-0.4-0.1C10,37.7,9.8,37,8.6,36.2    L8.6,36.2z M12.4,29.9c-0.2,0.7-0.1,0.4-0.4,0.8c-0.2,0.4-0.1,0.4-0.2,0.5c0,0-0.1,0.1-0.2,0.2c-0.2-0.6-0.3-0.6-0.4-1.5H12.4    L12.4,29.9z M12.1,27c-0.6,0.4-1.2,0.8-1.6,1.4c-1,0-1.7,0-2.2-0.4H7.5v-1.9c0.9,0.1,1.1,0.1,1.5,0.4h3.4v0.4    C12.3,26.9,12.2,27,12.1,27L12.1,27z M7.5,55.7c-0.2,0.5-0.4,0.8-0.7,1.1v0.4H6v-1.5H7.5L7.5,55.7z M7.1,52.3H6.4    C6.2,52.2,6.1,52.1,6,52c0.3-1.9,1-1.8,1.9-3H9C8.4,50.3,7.8,51.2,7.1,52.3L7.1,52.3z M7.5,53.5h1.1c-0.1,0.1-0.2,0.2-0.4,0.4    c-0.2,0.6-0.1,0.4-0.4,0.8C7.7,54.2,7.6,53.8,7.5,53.5L7.5,53.5z M9,60.2H8.6l-0.4,0.4c-0.1-0.4-0.2-0.7-0.4-1.1    C8.3,59.7,8.6,59.9,9,60.2L9,60.2z M13.1,14.1c0.9,0.1,1.8,0.3,2.6,0.6c1,0.4,1.7,1.2,1.9,2.4c-1.2-0.2-1.9-0.5-2.8-0.7    c-0.7-0.2-1.4-0.4-2.5-0.4C12.6,14.8,12.7,14.9,13.1,14.1L13.1,14.1z M17.2,6.3h1.1C18.2,7,18,7.6,17.6,8.1    c-0.2,0.3-0.5,0.6-0.8,0.8v0.4c-0.9-0.5-0.3,0.2-0.7-0.7C16,8.4,16,8.2,16,8.1C16,7.4,16.7,7.1,17.2,6.3L17.2,6.3z M20.6,10.8    c0.3,0.6,0.3,0.5,0,1.1c-0.3,0.9-0.4,0.8-0.7,1.5h-0.8C19.6,12.5,20.1,11.6,20.6,10.8L20.6,10.8z M19.9,8.5c0.3,0.2,0.6,0.4,1,0.7    c0,0,0.1,0.1,0.1,0.1v0.4h-1.5C19.6,9.3,19.7,8.9,19.9,8.5L19.9,8.5z M22.1,31.7c0.2,0.1,0.5,0.2,0.7,0.4    c-0.2,0.4-0.5,0.8-0.7,1.1h-0.8C21.6,32.4,21.7,32.4,22.1,31.7L22.1,31.7z M21.7,26.9c0.2,0.1,0.5,0.2,0.8,0.4    c-0.1,0.1-0.2,0.2-0.4,0.4V28h-0.8C21.5,27.6,21.6,27.2,21.7,26.9L21.7,26.9z M23.6,23.9h-0.4c-0.3-1-0.5-0.9-0.7-1.9    C23.1,22.6,23.3,23,23.6,23.9L23.6,23.9z M26.2,40.4H27c-0.1,0.1-0.2,0.2-0.4,0.4v1.9c-0.1-0.1-0.3-0.2-0.4-0.4    c-0.2-0.1-0.5-0.2-0.7-0.4C25.8,41,25.9,41,26.2,40.4L26.2,40.4z M26.2,35.9c0.6,0.4,1.3,0.7,1.9,1.1c-0.1,0.7-0.2,1.5-0.4,2.2    c-0.9-0.5-1.2-0.9-1.9-1.5C26,37.1,26.1,36.5,26.2,35.9L26.2,35.9z M25.8,20.5c0.7,0.2,0.4,0.1,0.8,0.4h-0.4    c-0.1,0.1-0.2,0.2-0.4,0.4V20.5L25.8,20.5z M28.1,5.9c0.1,0.1,0.2,0.2,0.4,0.4c-0.2,0.5-0.1,0.4-0.3,0.6c0,0-0.1,0.1-0.1,0.1    c-0.4,0.3-0.1,0.1-0.7,0.4c-0.1-0.2-0.1-0.3-0.2-0.5c-0.1-0.2-0.1-0.5-0.2-1H28.1L28.1,5.9z M27.3,29.9c0.4,0.1,0.7,0.2,1.1,0.4    V31C27.6,30.6,27.8,30.6,27.3,29.9L27.3,29.9z M29.2,34h-0.8v-0.7h0.8V34L29.2,34z M29.6,46.3c-0.3,0.3-0.8,0.5-1.1,0.7    c-1.2-0.3-0.6,0.2-1.1-0.7c-0.4-0.9,0.2-0.9,0.7-1.9h1.1l0.7,0.7C29.8,46,29.9,45.9,29.6,46.3L29.6,46.3z M31.5,47.5    c0.1,0.2,0.2,0.5,0.4,0.8l0.4,0.4h-0.4c-0.4,1.1-0.9,1.3-1.9,1.9c-0.6,0.3-0.9,0-1.5-0.8c-0.1-0.1-0.2-0.2-0.4-0.4    c0.9-0.5,1.7-1,2.2-1.9H31.5L31.5,47.5z M32.2,21.3H33c-0.2,1.4-0.2,1.1-0.8,1.9h-0.7C31.7,21.9,31.8,22,32.2,21.3L32.2,21.3z     M32.2,17.1c0.2,0.1,0.5,0.2,0.8,0.4v0.7c-0.3,0.4-0.1,0.1-0.4,0.7h-0.7C31.9,18,32,17.7,32.2,17.1L32.2,17.1z M31.8,37.7    c0.1-0.4,0.2-0.7,0.4-1.1c0.2-0.1,0.5-0.2,0.8-0.4c0.2,0.6,0.3,0.6,0.4,1.5H31.8L31.8,37.7z M33.7,75.6h-0.4    c-0.1-0.4-0.3-0.7-0.4-1.1c0.2,0.1,0.5,0.2,0.7,0.4V75.6L33.7,75.6z M33.3,83.4c-0.2,0.3,0,0.1-0.4,0c-0.4-0.1-0.8-0.3-1.1-0.4    v-2.2h1.5c0.2,0.3,0.5,0.5,0.7,0.8C33.9,82.7,33.9,82.8,33.3,83.4L33.3,83.4z M32.2,214.9v-1.1l0.4-0.4h1.5v1.5H32.2L32.2,214.9z     M31.1,263.9c0.2,0.1,0.5,0.2,0.7,0.4c-0.1,0.9-0.1,1.1-0.4,1.5v0.7h-0.8C30.8,265.7,31,264.8,31.1,263.9L31.1,263.9z M30,255.3    c0.5,0.2,1,0.5,1.5,0.8v0.7h-0.8l-0.7-0.7V255.3L30,255.3z M32.2,252.3c-0.4,0.3-0.4,0.2-1.1,0.4v-1.5h0.4    C31.7,251.7,31.9,252,32.2,252.3L32.2,252.3z M30,241.1c0.4-0.3,0.1-0.1,0.7-0.4c0.2,0.2,0.5,0.5,0.8,0.7    c-0.2,0.4-0.5,0.7-0.8,1.1h-1.1c-0.1-0.8-0.1-0.7-0.4-1.1C29.6,241.2,29.3,241.3,30,241.1L30,241.1z M28.8,225.7v-2.2    c1.2,0.7,1.6,2.9,1.5,4.9c-0.8-0.1-0.7-0.1-1.1-0.4h-0.8C28.5,227,28.5,226.3,28.8,225.7L28.8,225.7z M27.7,192.4    c0.1-0.4,0.2-0.7,0.4-1.1H30v0.4c-0.1,0.1-0.3,0.1-0.4,0.2c-0.3,0.2-0.5,0.3-0.7,0.5H27.7L27.7,192.4z M26.2,218.6h1.5v0.4    c-0.6,0.2-0.6,0.3-1.5,0.4V218.6L26.2,218.6z M25.1,223.5c0.2,0.1,0.5,0.2,0.7,0.4c-0.1,0.8-0.1,0.7-0.4,1.1v0.4h-0.7    C24.9,224.7,25,224.1,25.1,223.5L25.1,223.5z M24,217.5c0.1,0.1,0.2,0.2,0.4,0.4c0.1,0.1,0.3,0.2,0.4,0.4h-0.4v0.7h-0.7    C23.7,218.1,23.8,218.1,24,217.5L24,217.5z M24,196.2c-0.1,0.8-0.1,0.7-0.4,1.1c-0.2,0.3,0,0.1-0.4,0c-0.9-0.6-1.2-1-1.5-2.2    C22.8,195.3,23.2,195.7,24,196.2L24,196.2z M23.6,154.6v1.1h-0.7c-0.1-0.9-0.2-1.7-0.4-2.6C23,153.5,23.1,154.1,23.6,154.6    L23.6,154.6z M22.9,147.1h0.7c-0.1,0.5-0.1,0.7-0.2,0.9c0,0.2-0.1,0.3-0.2,0.6h-1.1C22.4,148.1,22.6,147.6,22.9,147.1L22.9,147.1z     M21.7,140.3c0.1-0.4,0.2-0.7,0.4-1.1c0.4,0.1,0.7,0.2,1.1,0.4v0.7H21.7L21.7,140.3z M20.2,156.8c0.9,0.1,1,0.1,1.5,0.4    c0.1,0.1,0.2,0.2,0.4,0.4h-0.4v0.7c-0.1-0.1-0.2-0.2-0.4-0.4C20.3,157.5,20.7,157.9,20.2,156.8L20.2,156.8z M19.5,171.1h1.1    c-0.1,0.5-0.2,1-0.4,1.5h-0.8V171.1L19.5,171.1z M19.9,144.8c0,0.9-0.1,1.4-0.4,1.9c-0.2,0.6-0.1,0.4-0.4,0.8    c-0.1-0.9-0.2-1.8-0.4-2.6H19.9L19.9,144.8z M17.6,103.6c-0.1-0.4-0.2-0.8-0.4-1.1c0.5-0.2,1-0.5,1.5-0.7c0.5-0.3,2,0.2,3.4,0.4    v1.1c-0.8,0.1-2.1,0.4-2.6,0.7C18.5,103.9,18.2,103.9,17.6,103.6L17.6,103.6z M17.2,122.4c-0.1-0.1-0.1-0.1-0.2-0.1    c-0.1-0.1-0.1,0-0.6-0.2c-0.2-1-0.6-1.9-1.1-2.6c0-1.4,0.2-2.3,0.4-3.4h1.1c0.3,1.8,0.5,4.1,1.5,5.3c-0.2,0.6-0.1,0.4-0.4,0.7    C17.6,122.3,17.9,122.1,17.2,122.4L17.2,122.4z M18,192.8v1.1c-0.7-0.2-0.4-0.1-0.8-0.4c-0.6-0.2-0.4-0.1-0.7-0.4    C17.1,193,17.1,192.9,18,192.8L18,192.8z M16.9,169.2h0.7v0.8h-0.7V169.2L16.9,169.2z M15.4,159.8c0.7,0.2,1.5,0.5,2.2,0.7v0.4    l-0.7,0.7c-0.9-0.1-0.9-0.2-1.5-0.4V159.8L15.4,159.8z M15,145.6c0.4,0.1,0.8,0.2,1.1,0.4v0.7c-0.3,0.4-0.1,0.1-0.4,0.8h-1.5    C14.5,146.6,14.7,146.3,15,145.6L15,145.6z M16.1,141.1v0.7h-0.4v-0.7H16.1L16.1,141.1z M15.4,132.5v-0.8h0.4    c0.2,0.3,0.5,0.5,0.7,0.8c-0.1,1.8-0.5,1.9-0.7,3.4c-0.8-0.1-0.7-0.1-1.1-0.4C14.2,134.8,14.7,133.2,15.4,132.5L15.4,132.5z     M15.7,109.3c-0.9-0.3-0.6-0.1-1.1-0.7C15.1,108.8,15.4,108.9,15.7,109.3L15.7,109.3z M15.7,90.9c0.2,0.1,0.5,0.2,0.7,0.4    c-0.1,0.8-0.1,0.7-0.4,1.1v0.7h-0.7C15.5,92.4,15.6,91.7,15.7,90.9L15.7,90.9z M15.4,38.5h1.9v0.4c-0.7,0.3-1.4,0.6-1.9,1.1h-0.8    C14.9,39.1,15,39.1,15.4,38.5L15.4,38.5z M19.9,22.4c-0.2,0.6-0.1,0.4-0.4,0.7v0.4c-1.1-0.5-1.4-1.2-1.9-2.2    C18.4,21.6,19.1,22,19.9,22.4L19.9,22.4z M21,16c-0.7,0.6-1.6,1.2-2.2,1.9h-0.4v-0.7c0.6-0.8,1.3-1.5,1.9-2.2    c0.2,0.1,0.5,0.2,0.7,0.4V16L21,16z M21,53.8c-0.2,0.6-0.1,0.4-0.4,0.8c-0.7-1.7-0.7-3.2-0.4-5.3c0.5,0.2,1,0.5,1.5,0.8    C21.8,51.8,21.8,53,21,53.8L21,53.8z M21.7,60.6l-0.4,0.4c-0.4-0.7-0.5-1-1.1-1.5c0.1-1.4,0.3-1.4,0.7-2.2c0.5,0.2,1,0.5,1.5,0.7    C22.4,59.4,22.4,59.9,21.7,60.6L21.7,60.6z M20.6,85.7c0.4,0.1,0.7,0.2,1.1,0.4c-0.1,0.9-0.2,0.9-0.4,1.5    c-0.8-0.1-0.7-0.1-1.1-0.4h-0.4C20.1,86.3,20.2,86.3,20.6,85.7L20.6,85.7z M20.2,63.2H21v1.1h-0.4C20.5,63.9,20.4,63.6,20.2,63.2    L20.2,63.2z M19.9,75.2c0.7,0.1,1.5,0.2,2.2,0.4v1.5h-2.6c-0.1-0.4-0.2-0.8-0.4-1.1C19.4,75.7,19.6,75.4,19.9,75.2L19.9,75.2z     M18.7,41.5c-0.9-0.1-0.9-0.2-1.5-0.4v-1.9h2.2c-0.1,0.6-0.2,1.2-0.4,1.9C19,41.2,18.9,41.4,18.7,41.5L18.7,41.5z M17.2,79.3v-1.1    c0.1-0.1,0.3-0.2,0.4-0.4h1.5v1.5H17.2L17.2,79.3z M16.5,85.3c0.4-0.9,0.9-1.5,1.1-2.6h0.8c-0.2,0.9-0.5,1.8-0.8,2.6H16.5    L16.5,85.3z M17.2,60.6c-0.1,0.1-0.2,0.2-0.4,0.4h-1.5v-0.7h1.9V60.6L17.2,60.6z M18,74.8v0.7h-0.8c0.1-0.4,0.3-0.7,0.4-1.1    C18.1,74.6,17.9,74.6,18,74.8L18,74.8z M18.7,69.2c0.2,0.7-0.2,0.5-0.4,0.7v0.4H18c0.1-0.4,0.2-0.8,0.4-1.1H18.7L18.7,69.2z     M18.4,65.1c-0.5,0.3-0.8,0.4-1.1,0.8h-0.4c-0.1-0.4-0.2-0.8-0.4-1.1c0.2-0.2,0.5-0.5,0.7-0.7h1.1V65.1L18.4,65.1z M17.2,96.2    h-1.5c0.1-0.9,0.2-0.9,0.4-1.5c0.2-0.1,0.5-0.2,0.7-0.4C17.1,94.9,17.2,95.2,17.2,96.2L17.2,96.2z M16.1,89.4h-0.7v-1.5    c0.7,0.2,1.5,0.5,2.2,0.7c-0.1,0.4-0.2,0.7-0.4,1.1C16.5,89.6,16.5,89.7,16.1,89.4L16.1,89.4z M22.9,80.4    c-0.3,1.4-0.6,1.3-1.1,2.2c-0.9-0.5-0.9-0.8-1.1-1.9c0.3-0.4,0.1-0.1,0.4-0.7h1.5C22.6,80.2,22.7,80.3,22.9,80.4L22.9,80.4z     M28.5,57.2c-2.4,0-4.6,0-6-0.8c1.2-0.8,4.3-1.4,5.2-1.1c0.1-0.9,0.2-1.7,0.4-2.6h1.1c0.2,0.8,0.3,1,0.7,1.5    C29.8,56.1,29.2,56,28.5,57.2L28.5,57.2z M30,75.6c-0.4,1.2-0.9,1.4-1.5,2.2c-1-0.1-1.3-0.2-1.9-0.4c-0.1-0.2-0.3-0.5-0.4-0.7    c1.1-0.5,2.6-0.8,3.4-1.5h0.7L30,75.6L30,75.6z M31.8,87.9c-0.4,1.2,0.6,1.6,0,2.6v0.4c-1-0.4-1.1-0.6-1.9-1.1    c0.4-2.4,1.7-3.3,2.6-5.2c0.4,0.1,0.8,0.2,1.1,0.4C33.4,86.8,32.2,86.8,31.8,87.9L31.8,87.9z M31.5,201.8    c-0.1-1.4-0.2-0.7,0.4-1.9c0.5,0.1,1,0.2,1.5,0.4c-0.1,0.6-0.3,1.3-0.4,1.9C32.1,202,32,202,31.5,201.8L31.5,201.8z M31.5,212.3    c0.1-1.4,0.3-1.4,0.7-2.2H33c-0.1,1.5-0.2,1.4-0.8,2.2H31.5L31.5,212.3z M32.2,235.8v0.4c-1.1,0.3-1.3,0.4-1.9,1.1h-0.7    c0.3-0.9,0.4-0.8,0.7-1.5H32.2L32.2,235.8z M31.1,179.3c-0.2,0.8-0.1,0.7-0.4,1.1c-0.1,0.1-0.2,0.3-0.4,0.4    c-0.2-0.6-0.3-0.9-0.4-1.9C30.3,179.1,30.7,179.2,31.1,179.3L31.1,179.3z M31.1,155.3v-0.7h0.7v0.7H31.1L31.1,155.3z M31.5,190.2    v0.7h-0.4v-0.7H31.5L31.5,190.2z M30,163.6c0.4,0.2,0.7,0.5,1.1,0.7c-0.3,1.4-0.6,1.3-1.1,2.2h-0.7    C29.5,165.4,29.8,164.9,30,163.6L30,163.6z M30,138.1c0.3,0.4,0.3,0.6,0.4,1.5C30,139.2,30,139,30,138.1L30,138.1z M28.1,157.2H30    c0.2,0.2,0.5,0.5,0.7,0.7c-0.2,0.4-0.5,0.8-0.7,1.1c-0.7-0.1-1.5-0.2-2.2-0.4C27.8,157.8,27.9,157.8,28.1,157.2L28.1,157.2z     M29.2,125.4c0.2,0.6,0.3,0.6,0.4,1.5h-1.1c-0.2-0.6-0.1-0.4-0.4-0.7v-0.4C28.5,125.6,28.8,125.5,29.2,125.4L29.2,125.4z M27,81.9    h0.4c0.4-0.3,0.1-0.1,0.7-0.4c0.2,0.5,0.4,0.8,0.7,1.1c-0.2,0.7-0.1,0.4-0.4,0.8c-0.4,0.3-0.3,0.2-1.1,0.4    C27.2,83.2,27.1,82.5,27,81.9L27,81.9z M27,109.3v-0.7h0.4v0.7H27L27,109.3z M26.2,201.8v-1.5c0.2-0.1,0.5-0.2,0.8-0.4    c0.2-0.3,0-0.1,0.4,0h0.7c-0.2,1.2-0.3,1.1-0.7,1.9H26.2L26.2,201.8z M25.5,202.9c0.4,0.4,0.7,0.7,1.1,1.1l0.4,0.4h-0.4    c-0.5,1.2-1.2,1.3-1.9,2.2H24C24.5,205.4,25,204.1,25.5,202.9L25.5,202.9z M24.3,184.5h0.8c-0.2,1.1-0.2,1.3-0.8,1.9v0.4h-0.7    C23.8,186,24.1,185.3,24.3,184.5L24.3,184.5z M24.7,178.9h1.1v0.4c-0.5,0.5-1,1-1.5,1.5C22.6,180.2,24,180.1,24.7,178.9    L24.7,178.9z M24,172.2v0.7h-0.4c-0.1-0.4-0.2-0.7-0.4-1.1C23.5,171.9,23.7,172.1,24,172.2L24,172.2z M24.7,158.7    c-0.1,0.4-0.2,0.7-0.4,1.1h-1.1c0.1-0.4,0.2-0.7,0.4-1.1H24.7L24.7,158.7z M23.6,144.5H24v0.7h-0.4V144.5L23.6,144.5z M25.5,98.8    c-0.1,0.9-0.2,0.9-0.4,1.5c-0.8-0.1-0.7-0.1-1.1-0.4h-0.7V98C24,98.3,24.7,98.5,25.5,98.8L25.5,98.8z M25.1,83.4    c0.1,0.1,0.2,0.2,0.4,0.4v1.5c-0.5-0.2-1.1-0.5-1.5-0.8h-0.7c0.1-0.4,0.2-0.7,0.4-1.1H25.1L25.1,83.4z M25.5,79.3v0.7h-0.7v-1.5    c0.4,0.1,0.7,0.3,1.1,0.4C25.7,79.1,25.6,79.2,25.5,79.3L25.5,79.3z M26.2,193.5c-0.1,0.8-0.1,0.7-0.4,1.1v0.7h-0.4v-1.9H26.2    L26.2,193.5z M25.8,115.3c0.2-0.9,0.4-1.2,0.8-1.9c0.3,0.7,0.2,0.8-0.4,1.5v0.4H25.8L25.8,115.3z M25.1,177.4v1.1    c-0.5-0.3-0.8-0.4-1.1-0.8c-0.3-0.4-0.2-0.3-0.4-1.1C24.1,176.9,24.6,177.2,25.1,177.4L25.1,177.4z M24.7,150.8    c0.1-0.4,0.2-0.7,0.4-1.1c0.2,0.1,0.5,0.2,0.7,0.4c-0.1,0.1-0.2,0.2-0.4,0.4v0.4H24.7L24.7,150.8z M26.2,88.7    c-0.4,0.8-0.8,1.6-1.5,2.2v0.4H24c0.3-1.1,0.7-1.7,1.1-2.6H26.2L26.2,88.7z M29.2,70.7c-0.9,0-1.4,0-1.9-0.4h-0.7v-0.8    c0.6-0.4,0.3-0.4,1.1-0.7c0.4-0.3,0.1-0.1,0.7-0.4C28.8,69.3,29.1,69.5,29.2,70.7L29.2,70.7z M27,63.9h-1.1c0.3-1.9,1-2.9,2.2-3.7    v-0.4h0.7C28.6,61.9,27.8,62.6,27,63.9L27,63.9z M21.4,126.1v-0.7c1.1,0.3,1.4,0.6,2.2,1.1v0.7C22.2,127,22.3,126.7,21.4,126.1    L21.4,126.1z M21.7,115.6v-0.4c0.8,0.4,0.6,0.5,1.1,1.1v0.8h-1.5C21.4,116.3,21.4,116.1,21.7,115.6L21.7,115.6z M20.2,111.5    c-0.2-0.6-0.1-0.4-0.4-0.7v-0.4c0.4-0.1,0.7-0.2,1.1-0.4c0.2,0.6,0.3,0.6,0.4,1.5H20.2L20.2,111.5z M18.7,118.2v-0.7h1.1v0.7H18.7    L18.7,118.2z M19.9,130.2c-0.1-0.9-0.2-0.9-0.4-1.5c0.1-0.1,0.2-0.2,0.4-0.4c0.8,0.1,0.7,0.1,1.1,0.4h0.7    c-0.1,0.9-0.2,0.9-0.4,1.5H19.9L19.9,130.2z M20.2,139.6c-0.2,0.2-0.5,0.5-0.8,0.7h-0.7v-1.5C19.2,139.1,19.7,139.4,20.2,139.6    L20.2,139.6z M20.2,137.4c0.1-0.1,0.2-0.2,0.3-0.3c0,0,0.1-0.1,0.1-0.1c0.3,0.4,0.1,0.1,0.4,0.7c0,0-0.1,0-0.3,0    C20.3,137.7,19.7,137.6,20.2,137.4L20.2,137.4z M32.6,111.1v-0.7c0.6-0.2,0.6-0.3,1.5-0.4v1.1H32.6L32.6,111.1z M34.8,165.1    c0.2-0.3,0-0.1,0.4,0H36c-0.1,0.9-0.1,1.1-0.4,1.5v0.7h-1.5v-1.9C34.3,165.3,34.6,165.2,34.8,165.1L34.8,165.1z M36.3,150.1v0.7    c-0.6-0.5-1.3-1-1.9-1.5v-1.1C35.1,148.8,35.7,149.5,36.3,150.1L36.3,150.1z M37.1,135.1v0.7c-1.3-0.3-0.9-0.2-1.5-1.1h1.1    L37.1,135.1L37.1,135.1z M36,131.7h-0.8c0.2-0.8,0.3-1.3,0.8-1.9v-0.4h0.7c0.1,0.9,0.2,1.8,0.4,2.6C36.3,132,36.4,132,36,131.7    L36,131.7z M13.5,22.4h1.1l-0.4,0.4c-0.2,0.6-0.1,0.4-0.4,0.8C13.7,23.1,13.6,22.7,13.5,22.4L13.5,22.4z M14.6,53.8    c-0.1,0.1-0.2,0.2-0.4,0.4V55h-0.7v-1.5C13.9,53.6,14.2,53.7,14.6,53.8L14.6,53.8z M13.5,34c1.7-2.5,2-2.8,2.6-6.7    c-1-0.3-0.7-0.2-1.9,0v-0.7c0.6-0.5,1.1-1.2,1.5-1.9c1.3,0.8,0.6,1.5,2.6,1.9c-0.5,0.5-1,1-1.5,1.5c0.1,1.1,0.2,2.2,0.4,3.4    c-0.5,0.9-1,1.8-1.5,2.6H13.5L13.5,34z M25.5,211.9v-2.2c0.6,0.2,0.6,0.3,1.5,0.4v-1.9h0.4c0.5,1.3,0.6,6.5,0,7.5v0.8    c-0.9-0.1-0.9-0.2-1.5-0.4C25.9,214.6,26,212.7,25.5,211.9L25.5,211.9z M27.3,228.4h1.1c-0.1,0.8-0.1,0.7-0.4,1.1l-0.4,0.4    C27.5,229.3,27.5,229.2,27.3,228.4L27.3,228.4z M27,263.9h-0.8c0.2-1.2,0.3-1.1,0.8-1.9h0.7C27.5,263.3,27.4,263.2,27,263.9    L27,263.9z M27.3,269.2c-0.1,0.1-0.2,0.2-0.4,0.4c-0.1-0.4-0.2-0.8-0.4-1.1h1.1C27.5,269.1,27.7,268.8,27.3,269.2L27.3,269.2z     M27,275.2c0.2,0.1,0.5,0.2,0.7,0.4c-0.2,0.8-0.3,1.4-0.7,1.9c-0.1,0.2-0.2,0.5-0.4,0.8c-0.7-0.2-0.4-0.1-0.8-0.4    C25.5,277.2,26.5,276.1,27,275.2L27,275.2z M24.3,282.3c0.1-0.7,0.3-1.5,0.4-2.2c0.4,0.1,0.7,0.2,1.1,0.4c-0.2,0.8-0.3,1-0.7,1.5    v0.4H24.3L24.3,282.3z M22.5,250.5c-0.9,0.6-1.7,1.7-2.2,2.6h-1.1c0.1-0.9,0.1-1.1,0.4-1.5c0.5-1.2,1.2-1.3,1.9-2.2h1.1V250.5    L22.5,250.5z M21,260.6c-0.3,0.9-0.4,0.8-0.7,1.5h-0.8c0.1-0.6,0.2-1.2,0.4-1.9C20.2,260.3,20.6,260.5,21,260.6L21,260.6z     M21.4,257.9h-0.7c0.9-2,2-3.2,3-4.9h1.1C23.6,254.7,22.5,256.3,21.4,257.9L21.4,257.9z M24.7,261.7c0-1.6,0-3.4,0.4-4.5h1.5    c0.1,0.1,0.2,0.2,0.4,0.4c-0.2,2-0.8,2.5-1.5,3.7c-0.1,0.1-0.2,0.2-0.4,0.4H24.7L24.7,261.7z M23.2,266.6c0.1-0.8,0.1-0.7,0.4-1.1    v-0.4c0.9,0.3,0.8,0.4,1.5,0.7v0.7H23.2L23.2,266.6z M23.2,285.3c0.2-0.3,0-0.1,0.4,0h0.7c-0.4,1.2-0.7,2.5-1.1,3.7h-1.1    C22.2,287.5,22.5,286.2,23.2,285.3L23.2,285.3z M23.2,275.2c-0.1,0.9-0.2,0.9-0.4,1.5c-0.9-0.1-0.9-0.2-1.5-0.4    c0-2.1,0.2-4,0.4-5.6h1.1C22.5,272.8,21.7,274,23.2,275.2L23.2,275.2z M18.7,263.9c0.4,0.1,0.7,0.2,1.1,0.4    c-0.6,2-2.1,3.5-2.6,5.3c-0.6,2.1,0.9,3.5,1.1,5.2c-1-0.4-1.1-0.6-1.9-1.1C16.4,267.8,16.5,267.7,18.7,263.9L18.7,263.9z     M17.2,240.4c0.1-0.4,0.3-0.8,0.4-1.1c0.3,0.1,0.5,0.2,0.8,0.4v0.8H17.2L17.2,240.4z M18,246c0.5,0.2,0.3,0.1,0.4,0.4v0.8h-0.8    C17.7,246.7,17.9,246.3,18,246L18,246z M19.1,286c-0.3,0.9-0.4,0.8-0.7,1.5h-0.8c0.5-3.9,1.6-7.4,3-10.5c0.4,0.1,0.7,0.2,1.1,0.4    c-0.3,2.2-0.9,3.7-1.9,5.3c-0.4,0.2-0.8,0.5-1.1,0.7C18.5,284.6,19.8,284.7,19.1,286L19.1,286z M22.1,306.3    c-0.3,1.5-0.3,4.3-1.1,5.3v0.4h-0.7c0-1.9-0.1-4.3,0.4-5.6H22.1L22.1,306.3z M21.4,298.8c0.1-3.7,1.5-2.5,2.2-4.5    c0.4-0.9,0-1.7,0.4-2.2c0.4-0.3,0.4-0.2,1.1-0.4c-0.5,3.2-2.5,4.4-3,7.1H21.4L21.4,298.8z M31.5,314.1v1.9h-0.8    c-0.1-0.9-0.2-1.8-0.4-2.6C30.7,313.6,31.1,313.9,31.5,314.1L31.5,314.1z M31.1,311.1V310h1.1c0.1,0.1,0.2,0.2,0.4,0.4v1.9    C32.1,311.9,31.6,311.5,31.1,311.1L31.1,311.1z M36,195.8c-0.9,0-1.4,0-1.9-0.4h-0.7v-1.5c1.4,0,2.3-0.2,3.4-0.4    c0.2,0.3,0.5,0.5,0.8,0.8C37,194.8,36.5,195.3,36,195.8L36,195.8z M36,244.5v-0.7h1.1v0.7H36L36,244.5z M36,283.8h0.4v0.8H36    V283.8L36,283.8z M37.5,321.6c-0.2,0.8-0.3,1-0.8,1.5c-0.3-0.7-0.5-1-0.7-1.9C36.5,321.4,37,321.5,37.5,321.6L37.5,321.6z     M35.6,202.1c0.4,0.1,0.7,0.2,1.1,0.4v0.8C35.8,202.9,36,202.9,35.6,202.1L35.6,202.1z M34.1,206.3c0.1-0.9,0.2-0.9,0.4-1.5    c0.2,0.1,0.5,0.3,0.7,0.4v1.9C34.8,206.8,34.5,206.5,34.1,206.3L34.1,206.3z M35.2,207.4c0.4,0.1,0.8,0.2,1.1,0.4v0.4h-1.1V207.4    L35.2,207.4z M38.6,137v0.7h-1.1c0.1-0.4,0.2-0.7,0.4-1.1C38.1,136.7,38.3,136.9,38.6,137L38.6,137z M38.2,119v0.7h-1.1    c-0.8-1.6-1.6-2.8-3-3.7c0.3-0.8,0.3-0.5,0.7-1.1C36.3,115.9,37,117.7,38.2,119L38.2,119z M36.7,105.1v1.1    c-0.2,0.1-0.5,0.2-0.7,0.4v0.4c-0.3-0.4-0.1-0.1-0.4-0.7c-0.3-0.4-0.1-0.1-0.4-0.7C35.8,105.3,35.8,105.3,36.7,105.1L36.7,105.1z     M35.6,57.2h3.7c-0.2,0.5-0.5,1-0.7,1.5c-1.2-0.2-1.7-0.5-2.6,0C34.4,58.4,34.8,58.5,35.6,57.2L35.6,57.2z M39.3,11.9H39    c-0.1,0.1-0.2,0.2-0.4,0.4c-0.1-0.4-0.2-0.7-0.4-1.1C38.7,11.4,39,11.5,39.3,11.9L39.3,11.9z M41.6,46.7c-0.2,0.6-0.1,0.4-0.4,0.7    c-0.1,0.1-0.2,0.2-0.4,0.4c-0.5-0.9-1-1.4-1.5-2.2c-0.3-0.5,0-0.7,0.4-1.5C40.4,44.6,42,46.3,41.6,46.7L41.6,46.7z M41.2,37.4    c0.4,0.1,0.7,0.2,1.1,0.4c-0.1,0.1-0.2,0.2-0.4,0.4c-0.1,0.4-0.2,0.8-0.4,1.1h-1.5C40.5,38.6,40.8,38,41.2,37.4L41.2,37.4z     M41.9,134.7c-0.1,0.1-0.2,0.2-0.4,0.4c0-1.5,0-1,0.8-2.2C42.8,133.7,42.6,134,41.9,134.7L41.9,134.7z M43.1,161    c-1.2-0.2-1.1-0.3-1.9-0.8v-1.5h1.1c0.2,0.5,0.5,1.1,0.7,1.5V161L43.1,161z M44.2,241.8c-0.5-0.2-1-0.5-1.5-0.7    c0.1-0.6,0.2-1.3,0.4-1.9c0.4,0.1,0.7,0.2,1.1,0.4V241.8L44.2,241.8z M40.1,122.7c0.2,0.1,0.5,0.2,0.7,0.4    c-0.1,0.1-0.2,0.2-0.4,0.4v0.4h-0.8C39.8,123.5,40,123.1,40.1,122.7L40.1,122.7z M41.9,187.5v-1.1h1.1v1.1H41.9L41.9,187.5z     M42.7,250.5c-0.1,0.8-0.1,0.7-0.4,1.1v0.7h-0.8c0.1-0.6,0.2-1.3,0.4-1.9H42.7L42.7,250.5z M42.3,192c-0.1-0.4-0.2-0.8-0.4-1.1    h1.1c-0.1,0.1-0.2,0.2-0.4,0.4C42.5,191.9,42.6,191.7,42.3,192L42.3,192z M41.2,176.3h1.1c-0.2,0.6-0.3,0.9-0.4,1.9h-1.5    C40.7,177.3,40.9,177,41.2,176.3L41.2,176.3z M41.6,82.3V83h-0.7v-0.7H41.6L41.6,82.3z M40.8,56.8v-1.1h1.5v1.1H40.8L40.8,56.8z     M41.2,71.4v0.8h-0.4v-0.8H41.2L41.2,71.4z M39.3,84.9c0.5,0.2,0.8,0.4,1.1,0.8L40.1,86C39.1,85.5,39.6,86.1,39.3,84.9L39.3,84.9z     M40.5,89c0.2,0.6,0.1,0.4,0.4,0.7v0.8h-1.1c-0.1-0.5-0.2-1-0.4-1.5H40.5L40.5,89z M41.9,299.9h1.1c0,0.9,0,1.4-0.4,1.9v0.4h-0.8    V299.9L41.9,299.9z M41.6,266.9v0.4c-0.9-0.3-0.6-0.1-1.1-0.8l-0.4-0.4c1.3-0.9,2.5-2.4,3.4-3.7h1.1    C43.8,264.1,42.8,265.7,41.6,266.9L41.6,266.9z M45,210.8v1.1c-0.9-0.6-0.4,0.1-0.7-1.1H45L45,210.8z M45.3,22.7v1.1H45    c-0.1-0.4-0.2-0.8-0.4-1.1H45.3L45.3,22.7z M46.8,43.3c-0.2,0.8-0.1,0.7-0.4,1.1c-0.4,0.3-0.3,0.2-1.1,0.4V43h1.1    C46.6,43.1,46.7,43.2,46.8,43.3L46.8,43.3z M48.3,56.8c0.6,0.4,1.3,0.7,1.9,1.1c-0.3,0.9-0.4,0.8-0.7,1.5h-0.7    c-0.1-0.1-0.3-0.2-0.4-0.4V56.8L48.3,56.8z M48.7,52.3c0.1-0.1,0.2-0.3,0.4-0.4h0.7v1.1c-0.1-0.1-0.2-0.2-0.4-0.4    C49.4,52.7,48,52.6,48.7,52.3L48.7,52.3z M49.4,5.9c0.2-0.3,0.5-0.5,0.7-0.8h1.1v1.5c-0.8-0.1-0.7-0.1-1.1-0.4h-0.7V5.9L49.4,5.9z     M50.9,46.3c0.1-0.4,0.3-0.7,0.4-1.1c0.2,0.1,0.5,0.2,0.7,0.4v0.7H50.9L50.9,46.3z M50.2,26.9v-0.7h0.4v0.7H50.2L50.2,26.9z     M49.4,244.8c0.1-0.4,0.2-0.8,0.4-1.1c0.2,0.1,0.5,0.2,0.7,0.4v0.8H49.4L49.4,244.8z M49.4,247.8c0.5,0.2,0.8,0.4,1.1,0.7    c-0.1,0.1-0.2,0.2-0.4,0.4h-1.1C49.2,248.6,49.3,248.2,49.4,247.8L49.4,247.8z M48.3,195.4v0.4c-0.7,0.4-0.6,0.5-1.5,0.8    c-0.6-0.7-0.7-0.5-1.1-1.5C46.6,195.2,47.4,195.3,48.3,195.4L48.3,195.4z M46.8,158.3c0.1,0.1,0.2,0.3,0.4,0.4h-0.4    c-0.2,0.6-0.1,0.4-0.4,0.7v0.4c-0.4-0.5-0.6-1.1-0.7-1.9C46.5,158.1,46.4,158.1,46.8,158.3L46.8,158.3z M46.1,74.8v1.1    c-0.3-0.4-0.2-0.3-0.4-1.1H46.1L46.1,74.8z M48.7,81.6v1.1h-0.4c-0.1-0.4-0.2-0.7-0.4-1.1H48.7L48.7,81.6z M46.8,71.1    c-0.4-0.7-0.5-1-1.1-1.5v-1.5c1.1,0.2,2.3,0.5,3,1.1c0.1,0.1,0.2,0.2,0.4,0.4h-0.4C48.2,70.5,47.8,70.6,46.8,71.1L46.8,71.1z     M47.2,226.9h-1.1c0-0.9,0.1-1.4,0.4-1.9v-0.8h2.6v0.4C48.3,225.2,47.7,226.1,47.2,226.9L47.2,226.9z M47.2,267.3    c0.1-0.5,0.2-1,0.4-1.5c0.1,0.1,0.2,0.2,0.4,0.4c0.1,0.1,0.2,0.2,0.4,0.4h-0.4v0.8H47.2L47.2,267.3z M46.1,289.8h1.9    c-0.1,0.4-0.2,0.7-0.4,1.1h-1.5V289.8L46.1,289.8z M46.4,274.1v1.1h-0.4c-0.1-0.4-0.2-0.7-0.4-1.1H46.4L46.4,274.1z M46.1,251.2    v-1.5h1.1c-0.1,0.4-0.2,0.7-0.4,1.1c-0.1,0.1-0.2,0.2-0.4,0.4H46.1L46.1,251.2z M47.6,263.6v1.5c-0.5-0.1-1-0.2-1.5-0.4v-1.1H47.6    L47.6,263.6z M51.3,202.5v0.8h-0.4v-0.8H51.3L51.3,202.5z M50.6,126.5c0.3-0.7,0.5-1,0.8-1.9h0.7c-0.1,0.6-0.2,1.3-0.4,1.9H50.6    L50.6,126.5z M54.3,192.8l0.4,0.4v0.4c-1.1-0.2-1.3-0.2-1.9-0.7H54.3L54.3,192.8z M53.6,112.3c-0.1-0.4-0.2-0.8-0.4-1.1h0.7v1.1    H53.6L53.6,112.3z M55.4,214.9v0.7h-0.4c-0.1-0.4-0.3-0.7-0.4-1.1C54.9,214.6,55.2,214.8,55.4,214.9L55.4,214.9z M55.1,127.2h-1.1    c0.1-0.4,0.2-0.7,0.4-1.1h1.1C55.3,126.5,55.2,126.9,55.1,127.2L55.1,127.2z M57.3,219.4c-0.1,0.8-0.1,0.7-0.4,1.1v0.7h-0.7    c0.1-0.7,0.2-1.5,0.4-2.2C56.8,219.1,57.1,219.2,57.3,219.4L57.3,219.4z M55.4,99.9c0.4,0.1,0.7,0.2,1.1,0.4    c-0.1,0.1-0.2,0.2-0.4,0.4c-0.3,0.9-0.4,0.8-0.7,1.5c-0.9,0-1.4,0-1.9-0.4c-0.7-0.2-0.4-0.1-0.8-0.4    C54.2,101.1,54.8,100.9,55.4,99.9L55.4,99.9z M52.8,71.8h0.8v0.8h-0.8V71.8L52.8,71.8z M61.8,181.5c-0.2,0.6-0.1,0.4-0.4,0.7    c-0.2-0.6-0.3-0.9-0.4-1.9C61.9,181,61.7,181.1,61.8,181.5L61.8,181.5z M59.2,55c1.3,0.2,1.6,0.4,2.2,1.1c0.6,0.2,0.4,0.1,0.8,0.4    c-0.7,0.6-1.4,1.5-1.9,2.2h-1.1C59.4,57.2,59.3,56.7,59.2,55L59.2,55z M63.3,19.4c0.4,0.1,0.7,0.2,1.1,0.4v0.7h-1.5    C63.1,20.1,63.2,19.8,63.3,19.4L63.3,19.4z M14.2,191.7c-0.5,1.3-1.2,1.6-1.9,2.6h-1.9c0.5-1,1.2-1.1,2.2-1.5v-2.2h1.1    c0.1,0.2,0.2,0.5,0.4,0.7c0.1,0.1,0.2,0.2,0.4,0.4H14.2L14.2,191.7z M13.1,155c-0.6,0.1-1.2,0.2-1.9,0.4v-1.1    c0.1-0.1,0.2-0.2,0.4-0.4h1.5V155L13.1,155z M8.6,149.3c-0.1,0.1-0.2,0.3-0.4,0.4c-1.6-0.3-1.7-0.7-2.2-1.9    c0.2-0.2,0.5-0.5,0.8-0.8h1.9V149.3L8.6,149.3z M6.4,122.4H5.3c0.3-0.9,0.4-0.8,0.7-1.5h0.8C6.6,121.7,6.6,121.8,6.4,122.4    L6.4,122.4z M196.9,4.2v247.3c0,11.8-2.1,21.9-6.3,30.3c-4.2,8.4-10.3,14.8-18.2,19.2c-4.3,2.4-9,4.2-14.1,5.2    c-2.2,0.5-4.5,0.8-6.8,1.1c-2.1,0.2-4.2,0.3-6.3,0.3c-15.9,0-28.3-5-37.4-14.9c-6.2-6.8-10.3-15.3-12.2-25.7c0,0,0-0.1,0-0.1    c0-0.1,0-0.1,0-0.1s0,0,0,0c-0.1,0-2.3-0.6-3.6-0.7v-1.1c1.2-0.1,1-0.1,2.6,0c0.1-0.1,0.5-0.8,0.5-0.8c0-0.1,0-0.2-0.1-0.4    c-0.6-3.9-0.8-8.1-0.8-12.5V4.2H6.6c-3.5,1-3.2,3.1-4.3,6.6c-0.7,2.4-2.8,4.3,0.4,6C2.2,18.3,1.2,20,0,20.9v1.5    c0.3-0.2,0.5-0.5,0.8-0.7c2.2,0.3,3.5,1.8,4.5,3.4c0.1,0.1,0.2,0.2,0.4,0.4H5.3c-0.5,1.8-1.5,2.6-3,3.4c0,1.9,0.4,2.4,0.7,3.7    c-0.7,0.8-1,1.6-1.9,2.2c0.2,1.9,0.8,2.9,1.5,4.1c0.9-0.1,0.9-0.2,1.5-0.4c0.4-1,0.7-1.7,0.7-3.1c0-0.1,0-0.1,0-0.2H6    c-0.2,0.6-0.3,0.6-0.4,1.5c0.9-0.1,0.9-0.2,1.5-0.4c0.1,0.7,0.4,0.1,0,0.8c-0.3,0.7-0.6,1.2-1,1.6C5.7,39,5.3,39.4,4.9,40    C4,39.7,4,39.6,3.4,39.2c-0.8,2.3-0.4,6.6-1.9,8.2C2,48.8,2.4,49,3.7,49.3c-3.2,6.4-3.4,12.5,1.9,16.9c-0.2,2.7-2.3,5.5-4.1,6.7    c0.2,2.6,1.4,4.2,1.9,6.4c0.9,3.8-1.7,5.8-2.2,8.2c-0.5,2.1,1.2,2.7,1.5,4.1c-0.1,1.4-0.2,2.8-0.4,4.1c0.4,0.9,1.4,1,1.9,2.2    c0.4,0.8,0,2.5,0,3.7h1.1c1.1,1.8,2.4,4.5,3,6.7c-0.5,0.4-0.8,0.8-1.5,1.1c0.2,1.7,0.7,2.8,1.1,4.1c-1.9,2.4-2.2,4.4-4.9,6    c0.3,1.5,1.3,1.8,1.5,2.6c0.2,0.8-0.6,2-0.8,3c2.4-0.6,4.8-1.9,6.4-3.4h0.4c0.3,1.6,0.5,2.1-0.7,3c0.5,1.4,1.1,1.9,2.6,2.2    c-2.2,1.3-3-0.8-4.1-1.1c-0.9-0.2-2,0.8-2.6,1.1v2.6c1-0.2,1.1-0.5,1.9,0c0.4,0.1,0.7,0.2,1.1,0.4c-0.1,0.8-0.1,0.7-0.4,1.1v0.8    c-1-0.1-2-0.2-3-0.4v1.9c0.9,0.1,1.7,0.2,2.6,0.4c0.9-0.9,1.7-2.1,2.6-3c0.4-0.3,0.4-0.2,1.1-0.4c-0.1,2.3-0.7,3.7-1.9,4.9    c0.2,0.6,0.1,0.4,0.4,0.8c0.9,0.6,2.8,1,3.7,1.5v0.7c-1.3,0.1-2.5,0.3-3.7,0.4c0.5,3.3,1.6,1.4-0.4,4.5c0.3,0.4,0.1,0.1,0.4,0.7    c0.6,0.1,1.3,0.2,1.9,0.4c0.2,1.4,1.1,3.1,0.7,3.7c-0.1,0.1-0.2,0.2-0.4,0.4c-1.2-1.7-3-3.1-3.7-5.2c-0.6-0.9-0.1-1.6,0-3    c-1,0.1-2,0.3-2.6,0.8c-0.1,0.1-0.8,8.5-0.7,8.6c0.1,0.4,0.2,0.7,0.4,1.1c2.6-0.1,2.4-0.9,4.1-1.5c0.3,0.4,0.7,0.5,1.1,0.8    c-0.6,0.6-1.2,1.2-1.9,1.9c0.3,2.8,1.9,4.4,3.7,5.6v0.7c-1-0.3-1.6-0.5-2.2-1.1c-0.8,0.1-0.7,0.1-1.1,0.4    c-0.6,0.7-0.9,1.8-0.4,2.6c0.3,0.9,0.4,0.8,0.7,1.5c1.3-0.5,1.4-1.1,2.2-1.9c0.4-0.3,0.1-0.1,0.7-0.4l0.4,0.4c-0.8,4-2,6.7-4.5,9    c0.2,0.6,0.1,0.4,0.4,0.8c0.9,0.6,3.7,0.7,4.9,0.7v0.7c-0.8-0.2-1.5-0.5-2.2-0.7c-0.1,0.1-0.2,0.2-0.4,0.4    c0.3,3.2,2.1,2.8,2.6,5.2c-1.3-0.1-1.9-0.2-2.6-0.7c-0.9-0.3-0.8-0.4-1.5-0.7c0.1-0.8,0.2-1.5,0.4-2.2c-0.7-0.9-1.5-1.8-2.2-2.6    c-0.8,0.1-0.7,0.1-1.1,0.4c-0.4,0.1-0.8,0.2-1.1,0.4c0.1,1,0.2,1.3,0.4,1.9h1.9v2.2l-0.4,0.4H5.6c0,0.9,0,1.4-0.4,1.9v1.5    c0.6,0.1,1.2,0.3,1.9,0.4c0.2-1.1,0.5-2.2,0.7-3.4H9c0.7,1.8,1.1,4.3,1.1,6.7c0.9-0.1,0.9-0.2,1.5-0.4c0.2-0.7,0.5-2.3,0.7-3h1.9    c0.2,0.6,0.1,0.4,0.4,0.7c-0.3,1.9-0.9,1.2-1.9,2.2c3,2.1-2.3,5.6-4.1,6c0.1,2.7,0.4,4-1.5,5.2c0.1,0.8,0.1,0.7,0.4,1.1    c1,1.5,3.7,1.1,4.5,3c1.5,3.4-1.1,5.5,2.6,7.5c-0.4,1.2-1.4,2.2-2.2,3v2.2c1.2-0.3,2.2-0.8,3-1.5h0.4c-0.2,0.8-0.1,0.7-0.4,1.1    c-1.5,2.7-3.8,0.2-4.1,5.6c-0.8-0.1-0.7-0.1-1.1-0.4H9.4c0.1-0.8,0.2-1.5,0.4-2.2c-1.1,0-2,0-2.6-0.4c-1.1-0.5-1.7-2-2.2-3H4.1    c0.1,4,2.5,3.4,4.1,5.6c0.6,0.9,0.8,1.9,1.5,2.6v0.4c1.3-0.5,1.5-0.9,1.9-2.2h1.5c-0.1,1.6-0.3,2.5-1.1,3.4    c0.1,0.4,0.2,0.7,0.4,1.1c1.1-0.2,1.3-0.2,1.9-0.7h0.4c0,0.9,0.2,2.1-0.4,3c-0.5,1.3-1.3,1.4-2.6,1.9v7.1c2-0.6,0.7-1.5,1.9-2.6    c0.9-0.8,2.2-1.6,3.4-2.2c1-0.5,2.1-1,2.9-1.5c0-1.9-0.1-2.1-1.5-2.6c0.7-1.4,1.5-2.5,1.9-4.1c0.9,0.3,0.8,0.4,1.5,0.8    c-0.4,1.4-1.1,1.7-1.5,3c0.6,0.6,1.2,1.3,1.9,1.9c-0.7,2.2-3,3.9-5.5,4.6c-0.6,0.2-1.1,0.3-1.7,0.3c0.1,1.6,0.9,3.3,0.8,3.4    c-0.9,1.7-2.7,1.2-4.1,2.2c-0.7,0.5-0.9,1.7-1.5,2.2c-0.5,0.3-0.8-0.1-1.9-0.4c-0.9,2.5-1.5,3.5-3,5.3c0,1.7,0.2,2.3,1.1,3    c-0.3,1-0.4,1-1.1,1.5c0.1,0.9,0.1,1.1,0.4,1.5c0.2,0.6,0.1,0.4,0.4,0.7c0.4-0.6,0.8-1.3,1.1-1.9h0.7c-0.1,2.1-0.6,3.6-1.9,4.5    c0.3,1.9,0.8,2.3,2.2,3c-0.4,4.3-2.1,7.4-3,10.9c-0.2,1.1,0,1.7,0.3,2.2c0.5,0.8,1.1,1.4,0.8,2.6c-0.1,0.3-0.2,0.7-0.3,1.1    c-0.4,1.5-0.9,3.7-0.5,5.7c0.2,1,0.7,3.3,0.4,4.9c-0.6,2.5-0.7,5.5-0.4,8.2l0.4,0.4c2.4-0.4,2.9-1.9,4.5-3    c0.1,0.2,0.2,0.4,0.3,0.6c0.1,0.3,0.3,0.7,0.5,0.9c0,0.2-0.1,0.5-0.2,0.7c-0.8,2.1-3.5,3-5.4,3.8c-0.2,0.7-0.3,1.2-0.6,1.7    c0.4,1.4,0.8,2.8,1.3,4.1c0,0.1,0.1,0.3,0.1,0.4c0.2,0.5,0.3,1,0.5,1.6c0.6-0.4,1.1-0.7,1.7-1c0-1.4,0-1.6-0.7-2.2v-1.1    c1.3,0.6,2.2,1.2,3.4,1.9c-1,1.7-2,3.4-3.7,4.4c0.4,1.1,0.8,2.1,1.2,3.2c0.1,0.1,0.2,0.2,0.3,0.3c0.1,0.1,0.2,0.2,0.4,0.4    c1.1-1.8,2.3-5.2,4.5-6c0,0,0,0,0,0v-0.4h0.7c-0.1,0.7-0.3,1.3-0.6,2c-0.9,2.2-2.7,4.1-4.3,5.2c0.1,0.7,0.2,1.3,0.3,1.9    c0.4,0.9,0.8,1.9,1.2,2.8c0.9,1.5,2.1,2.7,3,4.3c0.4,0.8,0.2,1.3,0,1.9c1.1,2.1,2.3,4.2,3.5,6.3h1.7c0,1.4,0.1,2.5,0.4,3.5    c1.6,2.5,3.2,4.9,4.9,7.2c0.4-0.1,0.3-0.1,0.7-0.6c0.5,0.6,0.5,1.5,0.7,2.4c1.2,1.6,2.4,3.1,3.7,4.6c0.6,0.5,1.1,1,1.7,1.6    c0.4,0.5,0.7,1.1,1,1.6c0.6,0.7,1.3,1.5,2,2.2c0.5,0.6,1,1.1,1.5,1.6c0.4,0.4,0.7,0.8,1.1,1.2c1.8,1.8,3.6,3.6,5.5,5.3    c1.2,1.1,2.4,2.1,3.6,3.2c1.2,1,2.4,2,3.7,3c0.1,0.1,0.2,0.1,0.2,0.2c0.8,0.6,1.6,1.2,2.4,1.8c0.6,0.5,1.2,0.9,1.9,1.3    c0.5,0.4,1,0.7,1.5,1.1c1.3,0.9,2.7,1.8,4.1,2.7c0.7,0.5,1.4,0.9,2.1,1.3c3.2,2,6.5,3.9,9.9,5.6c22.4,11.4,46.7,17.1,72.9,17.1    c15,0,29.4-1.8,43.3-5.5c4.4-1.2,8.8-2.6,13.1-4.1c0.1,0,0.2-0.1,0.2-0.1c17.7-6.4,33.2-15.7,46.7-28    c13.5-12.3,24.1-27.1,31.6-44.3c7.6-17.2,11.3-36,11.3-56.2V4.2H196.9L196.9,4.2z M9.4,222c0.9,0,1.4,0,1.9-0.4H12    c-0.3-1.6-0.7-1.6-2.2-1.9c-0.1-0.7-0.2-1.5-0.4-2.2c-1.1,0-1.6,0.2-2.2,0.4c0,2,0,2.1,1.9,2.2C9.1,220.7,9.2,221.4,9.4,222    L9.4,222z M3.8,134.4c-0.1,0.1-0.3,0.2-0.4,0.4c0.9,1.2,1.7,2.5,2.6,3.7h2.6c-0.9-1.4-2.2-2.3-3.7-3V134    C4.1,134.1,4.2,134.1,3.8,134.4L3.8,134.4z"/>
		<path class="st1" d="M943.8,359.1h-0.4v-0.7h0.4V359.1L943.8,359.1z M935.9,358.3v0.7h-0.8c-0.4-0.3-0.1-0.1-0.7-0.4l0.4-0.4    c0.4-0.8,0.5-0.6,1.1-1.1C936.3,357.8,936.3,357.7,935.9,358.3L935.9,358.3z M857.3,261.7h-1.5v-0.7h1.1l0.4,0.4V261.7    L857.3,261.7z M852.1,305.9h-0.8c-0.2-0.6-0.3-0.6-0.4-1.5h1.1V305.9L852.1,305.9z M849,166.9h-1.1c0.1-0.4,0.2-0.7,0.4-1.1    c0.2,0.1,0.5,0.2,0.7,0.4V166.9L849,166.9z M847.5,169.9h-0.7c-0.1-0.8-0.2-1.5-0.4-2.2c0.4,0.1,0.7,0.2,1.1,0.4V169.9    L847.5,169.9z M845.9,132.4c-0.6,5.2-2.1,10-4.7,14.6c-3,5.4-7.3,9.8-12.8,13.3c-2.4,1.5-5,2.7-7.7,3.8c0,0-0.1,0-0.1,0    c-4.5,1.6-9.3,2.4-14.6,2.5c-0.3,0-0.5,0-0.8,0h-27.2c-0.9-0.1-1.8-0.1-2.6,0h-23.9V89.1h53.7c2.2,0,4.3,0.1,6.4,0.4    c2.6,0.3,5.1,0.8,7.5,1.6c2.8,0.9,5.4,2,7.9,3.4c5.7,3.3,10.2,7.5,13.4,12.7c0.3,0.5,0.6,1,0.9,1.6c1.7,3,2.9,6.2,3.7,9.5    c0.8,3.1,1.2,6.3,1.2,9.7C846.1,129.4,846,130.9,845.9,132.4L845.9,132.4z M838.6,171.8v0.4h-0.8c-0.1-1.4-0.2-0.7,0.4-1.9h1.1    C839.1,171.1,839,171.3,838.6,171.8L838.6,171.8z M815.3,227.2c-1.6-0.1-1.9-0.2-2.6-1.1c0.9,0.2,1.8,0.5,2.6,0.7V227.2    L815.3,227.2z M812.7,80.8h-0.4c-0.1,0.1-0.3,0.3-0.4,0.4c-0.1-0.4-0.3-0.8-0.4-1.1C812.1,80.3,812.4,80.5,812.7,80.8L812.7,80.8z     M856.2,243h0.8v0.7h-0.8V243L856.2,243z M700.4,228c-0.6,0.2-0.2,0.5-0.7,0c-0.4-0.6,0,0,0-1.1c0.5,0.3,1,0.5,1.5,0.8    C700.7,227.9,701,227.8,700.4,228L700.4,228z M957.6,382.5l-49-94.7l-2.8-5.3l-20.6-39.8l-5.8-11.1c-0.5-0.7-1-1.4-1.3-2.3    c0,0,0,0,0.1,0l-0.4-0.8c0.9-0.5,1.8-0.9,2.7-1.4c0.8-0.4,1.6-0.8,2.3-1.3c8.2-4.6,15.9-10.3,22.9-16.9    c5.8-5.5,11.1-11.7,16.1-18.6c0.1-0.1,0.2-0.3,0.3-0.4c12.2-17.1,18.3-37.7,18.3-61.8c0-0.6,0-1.3,0-1.9c0-0.7,0-1.4,0-2.2    c0-0.7,0-1.5-0.1-2.2c-0.1-0.5-0.2-1-0.3-1.5c0-1.6-0.1-3.2-0.1-4.8c-0.1-0.6-0.1-1.2-0.2-1.8c0-0.5-0.1-0.9-0.1-1.4    c-0.1-1-0.3-2.1-0.4-3.1c-0.1-1-0.3-2.1-0.5-3.1c-0.2-1-0.4-2.1-0.6-3.1c-0.2-0.9-0.4-1.8-0.6-2.7c0-0.2-0.1-0.4-0.1-0.7    c-0.4-1.9-0.9-3.9-1.4-5.8c-0.3-1-0.6-2-0.9-3c-2.5-8.2-5.8-16.2-10-23.9c-0.8-1.5-1.7-3.1-2.6-4.6c0,0,0,0,0-0.1    c-4.9-8-10.6-15.3-17.3-21.9c-2.8-2.8-5.8-5.5-9-8c-4.9-4-10.3-7.6-16-11c-12.4-7.3-26.4-12.3-42-14.9c-1-0.2-2-0.3-2.9-0.5v0    c-0.6-0.1-1.3-0.2-1.9-0.3c-0.8-0.1-1.7-0.2-2.6-0.3c-3,0-6.1,0.2-8.2-0.8c-1.2-0.1-2.5-0.2-3.8-0.2c-3.1-0.2-6.3-0.2-9.5-0.2    H657.1v384.4h94.4V245.4h12.3c0.2-0.6,0-1.6-0.1-2.8c1.2,0.7,2,1.6,2.7,2.8h17.1l0.3,0.7l1.9,4l65.9,138.4h109.2L960,387    L957.6,382.5L957.6,382.5z M1206,142.6c-0.6-0.2-0.4-0.1-0.7-0.4c0.4-0.1,0.7-0.2,1.1-0.4c0.4-0.3,0.1-0.1,0.7-0.4    c0.2,0.6,0.3,0.6,0.4,1.5C1206.6,142.9,1206.4,142.9,1206,142.6L1206,142.6z M1188,202.1c-0.8-0.1-0.7-0.1-1.1-0.4h-0.7    c0.2-0.5,0.5-1,0.7-1.5h1.5c0.1,0.1,0.2,0.3,0.4,0.4C1188.5,201.5,1188.4,201.5,1188,202.1L1188,202.1z M1188,151.6v0.8    c-0.9-0.4-0.7-0.4-1.1-1.1C1187.2,151.3,1187.6,151.5,1188,151.6L1188,151.6z M1170,242.3c0,0.1,0,0.3,0,0.4    c-0.4,6.2-0.9,11.4-1.5,15.6c-0.2,1.6-0.5,3-0.7,4.3c-0.6,2.9-1.2,5.6-1.9,8.1c0,0.2-0.1,0.3-0.1,0.5c-0.5,1.8-1,3.5-1.6,5.1    c0,0.1,0,0.1-0.1,0.2c-1.9,5.3-4.2,9.8-6.9,13.6c-5,6.5-11.1,11.1-18.4,14c-0.1,0-0.1,0-0.2,0.1c-1.4,0.6-2.9,1-4.4,1.5    c-4.6,1.3-9.5,1.9-14.9,1.9c-2.2,0-4.4-0.1-6.5-0.3c-0.4,0-0.9-0.1-1.3-0.1c-0.6-0.1-1.1-0.1-1.7-0.2c-6.1-1-11.6-3-16.5-6    c0,0-0.1,0-0.1-0.1c-2-1.2-4-2.7-5.8-4.3c-0.7-0.5-1.3-1.1-2-1.6c-1-0.8-1.8-2-2.6-3.2c-0.4-0.5-0.9-1.1-1.3-1.6    c-0.9-1.1-1.7-2.3-2.5-3.6c0,0,0,0,0-0.1c-1.5-2-3-4.2-4-6.5c-2.4-5.6-3.4-13.3-4.9-19.5v-3.1c-0.1-0.6-0.2-1.3-0.2-2    c-0.2-2-0.5-4.1-0.6-6.3c0,0,0,0,0-0.1c0-0.2,0-0.4-0.1-0.7c-0.2-2.3-0.4-4.8-0.5-7.4V241c-0.3-4.3-0.5-9-0.6-14.2    c-0.1-4.5-0.2-9.3-0.3-14.4V212c-0.1-4.9-0.1-10.1-0.1-15.7c0-8.6,0.1-16.5,0.2-23.6c0-0.5,0-1,0-1.4c0.2-10.4,0.7-19.1,1.2-26.1    c0-0.1,0-0.1,0-0.2c0-0.3,0.1-0.7,0.1-1c0.5-5.5,1.1-10.3,1.7-14.5c0-0.3,0.1-0.6,0.2-1c0-0.3,0.1-0.6,0.2-0.9    c0.1-0.4,0.1-0.8,0.2-1.2c0.4-2,0.8-3.8,1.2-5.5c0.1-0.2,0.1-0.5,0.2-0.7c0.1-0.3,0.2-0.7,0.3-1c0.1-0.4,0.2-0.8,0.4-1.2    c0.1-0.4,0.2-0.8,0.4-1.1c0.1-0.3,0.2-0.6,0.3-0.8c1.4-4.1,3.2-7.6,5.2-10.8c0,0,0-0.1,0-0.1c0.2-0.4,0.5-0.7,0.8-1.1v-0.1    c0.5-0.7,1-1.4,1.5-2.1c2.7-3.4,5.9-6.3,9.6-8.8c0.1-0.1,0.3-0.2,0.5-0.3c1.8-1.2,3.7-2.2,5.7-3.2c0.8-0.4,1.5-0.7,2.3-1    c2.8-1.1,5.7-2,8.7-2.6c0.3-0.1,0.6-0.1,0.9-0.2c3.2-0.6,6.4-0.8,9.9-0.8c8.3,0,15.8,1.6,22.5,4.7c3.3,1.5,6.2,3.3,8.7,5.3    c0.5,0.4,1.1,0.8,1.6,1.3c0,0,0.1,0.1,0.1,0.1c0.2,0.2,0.4,0.3,0.6,0.5c0.3,0.3,0.6,0.6,0.9,0.9c1,0.7,1.9,1.4,2.5,2.4    c0.9,1.2,1.7,2.4,2.4,3.7c0.3,0.4,0.5,0.8,0.8,1.2c0.3,0.4,0.5,0.8,0.7,1.2c0.2,0.4,0.5,0.8,0.7,1.2c0.4,0.8,0.9,1.6,1.3,2.5    c0.2,0.4,0.3,0.7,0.5,1.1c0.2,0.4,0.3,0.8,0.5,1.2h0c2,4.9,3.6,10.5,4.8,17.1c0.5,2.8,1,6.2,1.4,10.2c0.1,1.2,0.2,2.4,0.3,3.6    c0,0.1,0,0.3,0,0.4c0.1,1.2,0.2,2.3,0.3,3.6c0,0.2,0,0.3,0,0.5c0.4,5.8,0.7,12.6,0.9,20.2c0,0.5,0,0.9,0,1.4    c0.1,5.7,0.2,11.9,0.3,18.6c0,2.7,0,5.5,0,8.4C1171.1,215.2,1170.7,230.5,1170,242.3L1170,242.3z M1071.5,345.2h-0.8v-0.7h0.8    V345.2L1071.5,345.2z M1073.8,79.7h1.1v1.1h-1.1V79.7L1073.8,79.7z M1108.2,12.6h0.4c0.2,0.7-0.2,0.5-0.4,0.7v0.4h-0.4    C1108,13.4,1108.1,13,1108.2,12.6L1108.2,12.6z M1132.9,42.6h0.8v0.7h-0.8V42.6L1132.9,42.6z M1046.8,354.6    c-0.5,0.9,0.2,0.3-0.8,0.7c-0.4,0.3-0.1,0.1-0.7,0.4c-0.1-0.1-0.2-0.2-0.4-0.4c0.1-0.9,0.2-0.9,0.4-1.5c0.9,0.1,1.1,0.1,1.5,0.4    c0.1,0.1,0.2,0.2,0.4,0.4H1046.8L1046.8,354.6z M1038.2,287.9c-0.3,0.4-0.1,0.1-0.4,0.7c-0.1-0.1-0.2-0.2-0.4-0.4    c-0.4-0.1-0.7-0.2-1.1-0.4c0.1-0.9,0.2-0.9,0.4-1.5c0.5,0.2,1,0.5,1.5,0.8V287.9L1038.2,287.9z M1037.1,336.6    c-0.2,0.6-0.1,0.4-0.4,0.7c-0.1-0.4-0.2-0.7-0.4-1.1h1.1L1037.1,336.6L1037.1,336.6z M1035.9,90.5c0.1-0.4,0.2-0.8,0.4-1.1h0.4    c0.2,0.7-0.2,0.5-0.4,0.8v0.4H1035.9L1035.9,90.5z M1019.5,128.4h-1.1v-0.7h1.1V128.4L1019.5,128.4z M1006,125    c-0.2,0.1-0.5,0.3-0.7,0.4c-0.5-1.1-0.9-1.6-1.1-3c0.8,0.5,1.3,1.1,2.2,1.5L1006,125L1006,125z M998.9,217.5h1.1    C999.3,217.8,999.5,217.8,998.9,217.5L998.9,217.5z M988,159.5c-0.3-0.1-0.2,0.1-0.7-0.7c0.5,0.2,0.8,0.4,1.1,0.7H988L988,159.5z     M1258.5,291c0.2-0.9,0.4-1.8,0.7-2.7c0.3-1.2,0.7-2.4,1-3.6c0,0,0,0,0-0.1c0.2-0.9,0.4-1.7,0.5-2.6c0.2-0.9,0.3-1.7,0.5-2.6    c0.9-4.8,1.6-9.8,2.1-14.7c1.5-15.5,2.2-33.9,2.2-55.4v-25.8c0-1.3,0-2.5,0-3.8v-0.2c-0.1-12.9-0.4-24.7-1-35.3    c-0.1-2.3-0.3-4.5-0.4-6.7c-0.1-1.6-0.2-3.2-0.4-4.8c-0.1-0.7-0.2-1.4-0.4-2.1v-2.4c0,0,0-0.1,0-0.1c-0.1-0.8-0.2-1.6-0.3-2.4    c0-0.4-0.1-0.8-0.1-1.2c-0.2-1.7-0.4-3.4-0.7-5v0c-1.4-9.5-3.6-18.7-6.6-27.8c0,0,0,0,0,0c-0.9-2.8-1.9-5.6-3-8.4    c-5.6-14.5-14.2-27.6-25.8-39.2c-10.6-10.6-21.8-19.2-33.8-25.8c0,0,0,0,0,0c-3.1-1.7-6.2-3.3-9.4-4.7c-1.3-0.6-2.6-1.2-4-1.7    c-16.5-6.9-35.8-10.4-58-10.7c0,0,0,0,0,0c-0.7,0-1.5,0-2.2,0h-0.1c-1.1,0-2.2,0-3.3,0v0h-0.1c-0.1,0-0.1,0-0.2,0    c-1.2,0-2.3,0-3.5,0.1c-1,0.5-2.4,0.3-3.8,0.2c-1.1,0-2.2,0.1-3.3,0.2c-0.5,0.2-1.6,0.9-2,1h-8.5c-0.8,0.1-1.7,0.2-2.5,0.3    c-0.6,0.1-1.2,0.2-1.9,0.3c0,0,0,0,0,0c-0.8,0.1-1.7,0.2-2.5,0.4c-3,0.5-5.9,1.1-8.8,1.8c-6.9,1.6-13.4,3.7-19.4,6.2    c-16.9,7-32.7,17.8-47.3,32.4c-4,4-7.7,8.2-11,12.4c-5.1,6.6-9.4,13.5-12.8,20.7c-3,6.3-5.4,12.9-7.2,19.7    c-0.4,1.6-0.8,3.2-1.1,4.8c-1,4.7-1.9,9.7-2.7,15c0,0.1,0,0.3-0.1,0.4c-0.5,3.3-0.9,6.6-1.3,10.1c0,0.2-0.1,0.5-0.1,0.7    c-1,8.7-1.7,18-2.1,28c-0.1,1.5-0.1,2.9-0.2,4.4h0c-0.1,1.4-0.1,2.8-0.1,4.2c-0.1,2.9-0.2,5.9-0.2,8.9c0.1,1.9,0.2,3.8,0.2,5.6    c-0.1,1.5-0.2,3-0.3,4.5v26.6c0,5.6,0.1,11.1,0.2,16.3c0.2,8.2,0.6,15.9,1.1,23.3c0,0,0,0,0,0c0.1,0.8,0.3,1.5,0.4,2.2v3.4    c0.3,3.8,0.7,7.4,1.1,11c0.6,4.9,1.2,9.7,2,14.2c0,0,0,0,0,0.1c0.6,3.6,1.3,7.1,2,10.5c2.2,10.2,5.8,20,10.8,29.2    c3.1,5.8,6.9,11.4,11.1,16.8c0,0,0,0,0.1,0.1c3.1,3.9,6.5,7.7,10.2,11.4c7.7,7.9,15.8,14.6,24.2,20.3c0.1,0,0.1,0.1,0.2,0.1    c1.9,1.3,3.8,2.5,5.7,3.6c7.4,4.4,15.3,8.1,23.7,11c0,0,0.1,0,0.1,0c3.6,1.3,7.2,2.4,11,3.3c12.6,3.3,26.6,4.9,42.3,4.9    c23.2,0,43.3-3.6,60.4-10.9c17.1-7.3,32.8-18.1,47-32.3c11.6-11.6,20.2-24.6,25.8-39c2-5.1,3.7-10.3,5.2-15.5    C1258,293,1258.2,292,1258.5,291L1258.5,291z M529.5,134.4c-0.7,4.4-2.2,8.6-4.4,12.6c-1.4,2.5-3.1,4.8-5,6.9    c-2.6,2.8-5.7,5.2-9.2,7.3c-6.3,3.6-13.5,5.4-21.8,5.4h-7.4c-0.8,0-1.7,0-2.5,0h-43.7V89.1H489c2.2,0,4.3,0.1,6.4,0.4    c2.7,0.3,5.4,0.9,7.8,1.7c2.7,0.8,5.2,2,7.6,3.3c6.2,3.6,11,8.4,14.3,14.3c2.3,4.3,3.9,8.8,4.5,13.6c0.3,1.8,0.4,3.7,0.4,5.6    C530,130.1,529.8,132.3,529.5,134.4L529.5,134.4z M467,193.5h-0.8c0.1-0.4,0.2-0.7,0.4-1.1c0.5,0.2,0.3,0.1,0.4,0.4V193.5    L467,193.5z M431.5,23.9c-1.1-0.1-2.2-0.2-3.4-0.4c-0.1-0.1-0.2-0.3-0.4-0.4c0.1-0.8,0.1-0.7,0.4-1.1c0.1-1.4,0.3-1.4,0.7-2.2h4.1    c0.2,0.2,0.5,0.5,0.7,0.7C433.4,22.6,432.5,22.6,431.5,23.9L431.5,23.9z M394.4,95H394v-0.8h0.4V95L394.4,95z M374.9,207.8    c-0.4-0.1-0.2,0.1-0.4-0.4c-0.4-0.7-0.1-0.3,0-1.1c0.2,0.1,0.5,0.2,0.7,0.4C375.1,207.4,375.2,207.4,374.9,207.8L374.9,207.8z     M367.8,22.4H367v-1.5h0.8V22.4L367.8,22.4z M622.1,105.1c-0.2-1.5-0.4-3-0.6-4.6c-2.5-11.7-6.7-22.9-12.6-33.6    c-2.5-4.6-5.3-9-8.4-13.1c-0.9-0.9-1.9-1.7-2.8-2.6c-4.7-6.3-10-12.1-16-17.3c-5.4-4.5-11.3-8.7-17.8-12.5    c-5.9-3.5-12.2-6.4-18.8-8.8c-0.2-0.1-0.4-0.1-0.5-0.2c-0.2-0.1-0.4-0.1-0.5-0.2c-4.7-1.6-9.7-2.9-14.5-4.2c-3-0.7-6-1.3-9.1-1.8    h-5.3c-2.4-0.6-7-0.9-9.4-1.5c-1.1-0.3-2.2,0.1-2.9-0.4c0,0,0,0,0,0h-0.3c-3.1-0.2-6.3-0.2-9.5-0.2H340.9v8.6    c0.2,1.5,0.3,3.1,0.3,4.8c-0.1,0.6-0.2,1.3-0.3,1.9v369.2h94.3v-15.1h0.1V251.5h57.7c27.6,0,51.2-5.8,70.9-17.4    c0.6-0.4,1.2-0.7,1.8-1.1c0,0,0,0,0.1,0c16.3-9.9,29.2-22.4,38.8-37.3c0,0,0-0.1,0-0.1c0-0.1,0-0.2,0-0.2c3.1-4.9,5.9-10.2,8.5-16    c0.9-2,1.9-4.1,3-6.3c3.1-8.2,5.4-16.6,6.7-25.2v-2.9c0.4-1.8,0.8-3.7,1-5.6c0.3-3.7,0.5-7.6,0.5-11.4c0-5.4-0.3-10.6-0.9-15.8    C623.1,109.6,622.6,107.3,622.1,105.1L622.1,105.1z M1932.9,386.8c-0.6,0.2-0.4,0.1-0.7,0.4h-0.8c0.3-1.2,0.2-0.8,0.8-1.5h0.7    V386.8L1932.9,386.8z M1929.9,378.9c0.5,0.1,1,0.2,1.5,0.4c0.2,1.8,1.1,3,0.4,4.1v0.8c-0.6-0.1-1.3-0.3-1.9-0.4    C1929.1,382.1,1929.1,380.6,1929.9,378.9L1929.9,378.9z M1928.1,360.9c0.7,0.2,1.5,0.5,2.2,0.7c-0.2,0.7-0.1,0.4-0.4,0.8v0.4    C1928.7,362.4,1928.6,362,1928.1,360.9L1928.1,360.9z M1925.1,360.2c-0.4,1.2-1,1.5-2.2,1.9c-0.7,0.4-0.3,0.2-1.1,0    c-0.1-0.2-0.2-0.5-0.4-0.7c0.6-0.2,0.9-0.3,1.9-0.4v-1.5c0.2-0.2,0.5-0.5,0.7-0.7c0.9,0.1,0.9,0.2,1.5,0.4    C1925.3,359.8,1925.3,359.8,1925.1,360.2L1925.1,360.2z M1922.1,365.8c-0.1,0-0.2-0.1-0.2-0.1c-0.3-0.1-0.2,0-0.5-0.3    c0.1,0,0.2-0.1,0.2-0.1c0.4-0.2,0.8-0.4,1.3-0.6c0.2,0.6,0.3,0.6,0.4,1.5C1922.4,366,1922.5,366.1,1922.1,365.8L1922.1,365.8z     M1919.1,351.2c1.8,1.3,2.7,3,4.9,4.1c-0.1,0.6-0.2,1.3-0.4,1.9c-0.6,0.1-1.3,0.2-1.9,0.4v-1.9c-0.9-0.8-1.8-1.5-2.6-2.2V351.2    L1919.1,351.2z M1918.3,346.3c1.2,0.3,1.8,0.7,2.6,1.1c0.2,0.6,0.1,0.4,0.4,0.7v1.5c-1.3-0.7-2.2-1.5-3.7-1.9    C1917.8,347.3,1918.1,346.8,1918.3,346.3L1918.3,346.3z M1902.6,368.8h-0.4c-0.1-0.4-0.2-0.8-0.4-1.1h0.7V368.8L1902.6,368.8z     M1900,320.1c-1.3-0.4-2-0.9-3-1.5c-0.1-0.7-0.2-1.5-0.4-2.2c1.9,0.7,2,2.2,3.4,3.4V320.1L1900,320.1z M1896.2,323.9h-1.1    c0.5-1.1,0.8-1.9,0.7-3.7h1.1c0.2,0.2,0.5,0.5,0.7,0.7C1897.7,323.2,1897.3,322.8,1896.2,323.9L1896.2,323.9z M1894.7,353.8h-0.8    v-0.8c0.3,0.1,0.5,0.3,0.8,0.4V353.8L1894.7,353.8z M1888,375.2v0.4h-0.8c0.1-0.4,0.2-0.8,0.4-1.1c0.2,0.1,0.5,0.2,0.7,0.4    C1888.2,374.9,1888.1,375,1888,375.2L1888,375.2z M1879.7,367.3h-0.7c-0.1-0.4-0.3-0.7-0.4-1.1c0.4,0.1,0.8,0.3,1.1,0.4V367.3    L1879.7,367.3z M1877.9,278.9h-0.7v-0.7h0.7V278.9L1877.9,278.9z M1877.5,356.5h-2.6v-0.7c0.7-0.3,1.4-0.6,1.9-1.1h0.7V356.5    L1877.5,356.5z M1872.3,340.7h-0.8c0.3-0.9,0.4-0.8,0.8-1.5c0.2,0.1,0.5,0.2,0.7,0.4C1872.8,340,1872.5,340.3,1872.3,340.7    L1872.3,340.7z M1870.4,334.4h1.1c0.2,0.2,0.5,0.5,0.8,0.7c-0.2,0.8-0.1,0.7-0.4,1.1v0.7h-0.7    C1870.9,336.1,1870.6,335.2,1870.4,334.4L1870.4,334.4z M1870.8,329.9c0.9,0.6,0.4-0.1,0.7,1.1h-1.1    C1870.5,330.6,1870.6,330.2,1870.8,329.9L1870.8,329.9z M1876.7,325.7v0.7c-0.5-0.2-0.8-0.4-1.1-0.7H1876.7L1876.7,325.7z     M1865.1,260.2c-0.2,0.1-0.5,0.3-0.7,0.4c-0.2-0.6-0.3-0.6-0.4-1.5h1.5C1865.4,259.4,1865.3,259.8,1865.1,260.2L1865.1,260.2z     M1864.8,338.1h-1.5V337h1.1c0.1,0.1,0.2,0.2,0.4,0.4V338.1L1864.8,338.1z M1862.9,354.2c-1.1-0.2-1.3-0.2-1.9-0.7h-0.4v-0.8    c0.8,0.1,1.5,0.2,2.2,0.4V354.2L1862.9,354.2z M1860.3,339.2c0.4,0.1,0.8,0.2,1.1,0.4c-0.1,0.8-0.1,0.7-0.4,1.1v0.7h-0.8V339.2    L1860.3,339.2z M1861.4,287.5v2.2h-0.8c-0.1-0.9-0.2-1.8-0.4-2.6C1860.6,287.3,1861,287.4,1861.4,287.5L1861.4,287.5z     M1860.3,253.8c0.4-0.3,0.1-0.1,0.8-0.4c0.1,0.1,0.2,0.3,0.4,0.4v1.5h-1.1c-0.2-0.5-0.4-0.8-0.7-1.1    C1859.9,253.9,1859.6,254.1,1860.3,253.8L1860.3,253.8z M1855.8,246c-0.8-0.1-0.7-0.1-1.1-0.4h-0.8v-1.5c0.8,0.2,1.5,0.5,2.2,0.8    C1856,245.2,1855.9,245.6,1855.8,246L1855.8,246z M1856.1,261.7l-0.4,0.4h-1.9v-1.5h2.2V261.7L1856.1,261.7z M1854.3,341.1h-1.5    V340h1.5V341.1L1854.3,341.1z M1852,259.4h1.1c0.1,0.1,0.2,0.2,0.4,0.4v0.8C1852.2,260.3,1852.6,260.4,1852,259.4L1852,259.4z     M1852,341.5c-2.5,0.1-4.2,0.8-5.2,2.2h-1.9c1.3-2.7,3.6-3.8,7.1-3.4V341.5L1852,341.5z M1847.9,233.6c0.5,0.1,1,0.2,1.5,0.4    c-0.2,0.8-0.3,1-0.7,1.5c-0.2,0.3,0,0.1-0.4,0h-0.8C1847.6,234.5,1847.7,234.2,1847.9,233.6L1847.9,233.6z M1850.2,310.4h1.1v0.7    h-1.1V310.4L1850.2,310.4z M1861.8,266.9h0.7v0.7h-0.7V266.9L1861.8,266.9z M1843.8,334.7h-1.5v-1.1h1.5V334.7L1843.8,334.7z     M1841.5,246.3l0.7,0.4v0.4h-0.7V246.3L1841.5,246.3z M1839.7,309.6h-1.1c0.1-0.9,0.1-1.1,0.4-1.5v-0.4h0.7V309.6L1839.7,309.6z     M1838.2,257.6h0.8v0.8h-0.8V257.6L1838.2,257.6z M1837,251.6h1.1c0.1,0.1,0.2,0.2,0.4,0.4v0.7    C1837.3,252.4,1837.6,252.5,1837,251.6L1837,251.6z M1836.3,240.4h1.5c0.5,0.5,1,1,1.5,1.5v0.7c-1-0.1-1.5,0.1-2.2-0.4    c-0.4-0.1-0.8-0.2-1.1-0.4C1836,241,1836.1,240.9,1836.3,240.4L1836.3,240.4z M1835.2,222.4c0.5,0.3,1,0.5,1.5,0.8v0.7h-0.8    l-0.7-0.7V222.4L1835.2,222.4z M1834,330.8c-0.1-0.2-0.2-0.5-0.4-0.7c0.1,0.1,0.2,0.1,0.4,0.2V330.8L1834,330.8z M1833.3,296.9    v0.7h-0.4c0.1-0.4,0.2-0.7,0.4-1.1c0.1,0.1,0.2,0.2,0.4,0.4H1833.3L1833.3,296.9z M1833.3,318.6h-0.7v-0.7h0.7V318.6L1833.3,318.6    z M1828.1,87.9c0.4,0.1,0.7,0.2,1.1,0.4v1.5h-0.4C1828.5,89.1,1828.3,88.8,1828.1,87.9L1828.1,87.9z M1825.1,112.6h-0.7    c-0.2-1-0.4-1.9-0.4-3.4c0.4,0.2,0.7,0.5,1.1,0.8V112.6L1825.1,112.6z M1819.1,117.5h-0.4c-0.2-0.6-0.3-0.6-0.4-1.5    c0.2,0.1,0.5,0.2,0.8,0.4V117.5L1819.1,117.5z M1832.9,33.6c0.2,0.1,0.5,0.2,0.7,0.4v0.4h-0.7V33.6L1832.9,33.6z M1834.4,72.6h1.1    l-0.4,1.1h-1.1C1834.2,73.3,1834.3,72.9,1834.4,72.6L1834.4,72.6z M1836.3,21.6v0.7c-0.8-0.1-0.7-0.1-1.1-0.4    c-0.3-0.4-0.2-0.4-0.4-1.1C1835.3,21.1,1835.8,21.4,1836.3,21.6L1836.3,21.6z M1835.9,43.3h0.8C1836.3,44,1836.5,43.8,1835.9,43.3    L1835.9,43.3z M1838.5,35.5c0.1-0.1,0.3-0.2,0.4-0.4h0.4v3.7h-1.5C1837.8,37.1,1838.1,36.5,1838.5,35.5L1838.5,35.5z     M1840.8,103.3c-0.1,0.4-0.2,0.7-0.4,1.1h-1.1c0.1-0.4,0.2-0.7,0.4-1.1H1840.8L1840.8,103.3z M1842.7,131.4h1.5v0.4    c-0.2,0.3-0.5,0.5-0.7,0.8h-1.1C1842.4,132.1,1842.5,131.7,1842.7,131.4L1842.7,131.4z M1842.7,14.5h1.1c-0.1,0.4-0.2,0.8-0.4,1.1    h-1.1C1842.4,15.3,1842.5,14.9,1842.7,14.5L1842.7,14.5z M1845.3,157.6c0.3,0.1,0.5,0.2,0.8,0.4c-0.3,0.9-0.4,0.8-0.8,1.5h-0.7    C1844.8,158.6,1845,158.3,1845.3,157.6L1845.3,157.6z M1846.4,140.3h0.4v0.8h-0.4V140.3L1846.4,140.3z M1846.8,109.3l0.1,0.1    c0,0,0-0.1,0-0.1h1.7c0.1,0.1,0.2,0.2,0.4,0.4c-0.1,1-0.2,1.3-0.4,1.9c-1.2-0.2-1.1-0.3-1.9-0.7V109.3L1846.8,109.3z M1848.3,25.4    h1.5v1.5h-1.1c-0.2-0.6-0.1-0.4-0.4-0.7V25.4L1848.3,25.4z M1850.9,58.7c-0.6-0.2-0.4-0.1-0.7-0.4c-0.7-0.2-0.4-0.1-0.8-0.4    c0.6-0.2,0.6-0.3,1.5-0.4V58.7L1850.9,58.7z M1852,27.6h0.8v0.8h-0.8V27.6L1852,27.6z M1854.3,66.9c-0.1,0.6-0.3,1.3-0.4,1.9    c-0.8-0.1-0.7-0.1-1.1-0.4c-0.3-0.4-0.1-0.1-0.4-0.7c0.3-0.4,0.5-0.7,0.7-1.1C1853.5,66.7,1853.9,66.8,1854.3,66.9L1854.3,66.9z     M1853.9,144.8h-0.7c0-1.4-0.2-2.3-0.4-3.4c1.1,0.4,1,0.9,1.9,1.5C1854.4,144.2,1854.3,144.1,1853.9,144.8L1853.9,144.8z     M1855.8,16.4h0.7c0.2,1,0.6,1.9,1.1,2.6v0.8c-0.9-0.2-1.2-0.4-1.9-0.8V16.4L1855.8,16.4z M1860.3,127.6c0.5,0.1,1,0.2,1.5,0.4    c-0.1,0.9-0.2,0.9-0.4,1.5h-2.2C1859.5,128.9,1859.9,128.2,1860.3,127.6L1860.3,127.6z M1860.6,111.9c0.4,0.1,0.8,0.3,1.1,0.4v0.4    h-1.1V111.9L1860.6,111.9z M1863.3,122.7c-0.1,0.1-0.2,0.2-0.4,0.4h-1.1c0.1-0.4,0.2-0.8,0.4-1.1    C1862.6,122.2,1862.9,122.4,1863.3,122.7L1863.3,122.7z M1864.4,81.2h0.7v0.7c-0.6,0.5-1.1,1.2-1.5,1.9h-0.8    C1863.4,82.9,1863.9,82,1864.4,81.2L1864.4,81.2z M1866.3,36.2v0.6c-0.2,0-0.3-0.1-0.5-0.1c-0.1-0.3-0.2-0.5-0.3-0.8    C1865.8,36,1866,36.1,1866.3,36.2L1866.3,36.2z M1853.1,148.2c-0.5-0.2-1-0.5-1.5-0.7c0.1-0.9,0.2-0.9,0.4-1.5    c0.4,0.1,0.8,0.2,1.1,0.4V148.2L1853.1,148.2z M1850.9,141.1v-1.5c0.5,0.2,1,0.5,1.5,0.7v1.1    C1851.9,141.4,1851.4,141.2,1850.9,141.1L1850.9,141.1z M1848.3,153.1c-0.1,0.1-0.2,0.2-0.4,0.4h-0.8v-0.7h1.1V153.1L1848.3,153.1    z M1816.1,81.2c-1.3-0.3-1.1,0.2-0.7-1.1c0.6,0.2,0.4,0.1,0.7,0.4h0.4C1816.3,80.7,1816.2,80.9,1816.1,81.2L1816.1,81.2z     M1813.4,55.3h-0.7v-0.7h0.7V55.3L1813.4,55.3z M1813.4,153.5h-0.4c-0.1-0.4-0.2-0.7-0.4-1.1c0.2,0.1,0.5,0.2,0.7,0.4V153.5    L1813.4,153.5z M1811.6,106.3c-0.8-0.1-0.7-0.1-1.1-0.4c-0.3-0.4-0.2-0.4-0.4-1.1h1.5l0.4,0.4    C1811.8,105.5,1811.7,105.9,1811.6,106.3L1811.6,106.3z M1810.8,171.8c-0.2,0.2-0.5,0.5-0.7,0.7h-1.1c0.2-0.5,0.5-1,0.7-1.5    c0.4,0.1,0.8,0.2,1.1,0.4V171.8L1810.8,171.8z M1806.3,204.4c-0.3-0.1-0.2,0.1-0.8-0.7c0.5,0.2,0.8,0.4,1.1,0.7H1806.3    L1806.3,204.4z M1803.7,116h-0.8v-0.7c0.2,0.1,0.5,0.2,0.8,0.4V116L1803.7,116z M1802.6,290.9c-0.9-0.1-1.1-0.1-1.5-0.4    c-0.4-0.5-0.6-1.1-0.7-1.9c1.1,0.2,1.3,0.2,1.9,0.8h0.7C1802.8,290.3,1802.8,290.3,1802.6,290.9L1802.6,290.9z M1800,246.3    c0.4,0.1,0.7,0.2,1.1,0.4v0.4h-1.1V246.3L1800,246.3z M1799.2,108.5c-1.3-0.5-0.8-0.1-0.8-1.1h0.8V108.5L1799.2,108.5z     M1801.1,180.8h0.8c-0.1,1-0.3,2-0.8,2.6v0.7h-0.7C1800.4,182.7,1800.7,181.9,1801.1,180.8L1801.1,180.8z M1797,246.7v0.4    c-0.9-0.6-0.4,0.1-0.8-1.1c0.7,0.2,0.4,0.1,0.8,0.4h0.4C1797.2,246.5,1797.1,246.6,1797,246.7L1797,246.7z M1795.5,290.2V289    c0.6,0.2,0.4,0.1,0.7,0.4c0.7,0.2,0.4,0.1,0.8,0.4C1796.4,290,1796.3,290,1795.5,290.2L1795.5,290.2z M1794,180.8h1.5    c0.1,0.1,0.2,0.2,0.4,0.4v0.7h-1.9V180.8L1794,180.8z M1789.9,228.7c-0.4-0.2-0.7-0.5-1.1-0.7c0.1-0.2,0.2-0.5,0.4-0.7l0.7,0.4    V228.7L1789.9,228.7z M1787.2,240.4h-0.7v-0.8h0.7V240.4L1787.2,240.4z M1785,199.9c0.1-0.9,0.2-0.9,0.4-1.5    c1.4,0.8,2,1.7,4.1,1.9c-0.2,1.4-0.2,1.5,0,3C1787.2,202.6,1786.7,201,1785,199.9L1785,199.9z M1782.7,199.9h-0.7v-0.7    c0.2,0.1,0.5,0.2,0.7,0.4V199.9L1782.7,199.9z M1780.1,183c-0.2,0.6-0.1,0.4-0.4,0.7c-0.1-0.4-0.2-0.7-0.4-1.1h1.1    C1780.4,182.8,1780.2,182.9,1780.1,183L1780.1,183z M1780.5,213c-1-0.3-0.6,0.2-0.7-0.7l0.7,0.4V213L1780.5,213z M1778.2,186.4    h-1.9c0.2-0.5,0.4-0.8,0.8-1.1c0.4-0.3,0.3-0.2,1.1-0.4V186.4L1778.2,186.4z M1774.1,178.6c-0.6,0.1-1.2,0.2-1.9,0.4v-1.1    c0.3-0.2,0.5-0.5,0.8-0.7c1,0.1,1.3,0.2,1.9,0.4C1774.6,177.8,1774.4,178.2,1774.1,178.6L1774.1,178.6z M1774.9,185.3    c-0.8-0.2-1-0.3-1.5-0.8h1.5V185.3L1774.9,185.3z M1771.5,223.1c-0.6,0.2-0.6,0.3-1.5,0.4v-0.7h1.5V223.1L1771.5,223.1z     M1764.4,191.7c-0.4,0.3-0.1,0.1-0.7,0.4c-0.7-1.2-0.5-0.1,0-1.5c0.4,0.1,0.7,0.2,1.1,0.4C1764.5,191.6,1764.7,191.3,1764.4,191.7    L1764.4,191.7z M1739.3,221.6c-0.3,1-0.5,0.9-0.7,1.9h-0.7c0.4-1.2,0.9-1.4,1.5-2.2c0.1,0.1,0.3,0.2,0.4,0.4H1739.3L1739.3,221.6z     M1736.3,308.5h-0.4c-0.1-0.4-0.2-0.7-0.4-1.1c0.2,0.1,0.5,0.2,0.7,0.4V308.5L1736.3,308.5z M1735.9,334c-0.3-0.1-0.2,0.1-0.7-0.8    c0.5,0.3,0.8,0.4,1.1,0.8H1735.9L1735.9,334z M1734.4,65.8h0.8v1.1h-0.4C1734.7,66.6,1734.5,66.2,1734.4,65.8L1734.4,65.8z     M1734,243.3v0.4h-0.7c0.1-0.4,0.2-0.7,0.4-1.1c0.2,0.1,0.5,0.3,0.7,0.4L1734,243.3L1734,243.3z M1729.9,227.6    c0.1-0.9,0.2-0.9,0.4-1.5c0.3-0.1,0.5-0.2,0.8-0.4c0.2,0.6,0.3,0.9,0.4,1.9H1729.9L1729.9,227.6z M1729.9,202.5    c0.3,0.4,0.1,0.1,0.4,0.8C1729.5,202.9,1730.1,203.4,1729.9,202.5L1729.9,202.5z M1785.7,167.7c0.5,0.2,0.8,0.4,1.1,0.7    c0.3,0.4,0.2,0.4,0.4,1.1h-1.1c-0.1-0.1-0.2-0.3-0.4-0.4V167.7L1785.7,167.7z M1717.9,334.4h-1.5v-1.9c0.9,0.3,0.8,0.4,1.5,0.7    V334.4L1717.9,334.4z M1713.5,218.6h-0.8v-0.8c0.2,0.1,0.5,0.2,0.8,0.4V218.6L1713.5,218.6z M1709,368.4h-0.8v-0.7h0.8V368.4    L1709,368.4z M1703,302.1v-1.5h0.8c0.2,0.6,0.3,0.6,0.4,1.5H1703L1703,302.1z M1701.1,352.3v0.7h-0.4c0-1.7,0.3-2.3,0.7-3.4    c0.8,0.1,0.7,0.1,1.1,0.4c0.6,0.2,0.4,0.1,0.7,0.4C1702.6,351.1,1701.8,351.7,1701.1,352.3L1701.1,352.3z M1699.6,348.2    c0.9,0.3,0.8,0.4,1.5,0.8v0.7C1699.3,349.4,1699.6,349.3,1699.6,348.2L1699.6,348.2z M1699.2,295.8h-0.4c-0.2-0.6-0.3-0.6-0.4-1.5    l0.7,0.4V295.8L1699.2,295.8z M1694.3,379.3c-0.9-0.1-0.9-0.2-1.5-0.4v-1.5h1.5c0.1,0.1,0.2,0.2,0.4,0.4    C1694.6,378.7,1694.6,378.7,1694.3,379.3L1694.3,379.3z M1691.7,315.2h-0.4l-0.4-1.1h0.7V315.2L1691.7,315.2z M1691.7,323.5h-1.5    v-0.7h1.1c0.1,0.1,0.2,0.2,0.4,0.4V323.5L1691.7,323.5z M1686.5,363.9h-1.1v-1.1h1.1V363.9L1686.5,363.9z M1670.8,321.6    c-0.3,1.1-0.7,1.7-1.5,2.2c-0.2,0.3,0,0.1-0.4,0c-0.9-0.5-0.9-0.8-1.5-1.5c0.7-0.6,2.2-0.6,3-1.1h0.8    C1671,321.4,1670.9,321.5,1670.8,321.6L1670.8,321.6z M1670.4,368.8c-0.9-0.3-0.6-0.1-1.1-0.8h-0.4c0.2-0.2,0.5-0.5,0.7-0.7    c0.2,0.1,0.5,0.2,0.7,0.4V368.8L1670.4,368.8z M1668.5,351.2c-1.6-0.4-1.5-1.4-2.6-2.2v-0.8h1.1c0.5,0.9,0.7,1.3,1.5,1.9V351.2    L1668.5,351.2z M1665.5,375.9v0.4c-0.9-0.6-0.4,0.1-0.7-1.1c0.6,0.2,0.4,0.1,0.7,0.4h0.4C1665.8,375.7,1665.6,375.8,1665.5,375.9    L1665.5,375.9z M1663.6,334.7h-0.4c-0.1-0.4-0.2-0.7-0.4-1.1h0.7V334.7L1663.6,334.7z M1662.9,362.4h-1.5v-1.5h1.5V362.4    L1662.9,362.4z M1656.9,330.6c-0.4,0.3-0.3,0.2-1.1,0.4c0.3-1.8,1-2.4,1.1-4.5h0.8c0.1,0.1,0.2,0.3,0.4,0.4    C1657.8,328.1,1657.6,329.8,1656.9,330.6L1656.9,330.6z M1665.5,362.8v0.7h-0.4c-0.1-0.4-0.2-0.7-0.4-1.1    C1665,362.6,1665.3,362.7,1665.5,362.8L1665.5,362.8z M1694.3,335.5v1.5c-0.9-0.5-0.9-0.8-1.1-1.9    C1693.6,335.2,1694,335.3,1694.3,335.5L1694.3,335.5z M1655,380c-0.8-0.2-0.7-0.1-1.1-0.4h-0.7v-0.7l0.7-0.7h0.7l0.4,0.4V380    L1655,380z M1636.3,385.7h-1.5v-1.1h1.9C1636.5,384.9,1636.4,385.3,1636.3,385.7L1636.3,385.7z M1622.8,373.3    c-0.1,0.1-0.2,0.2-0.4,0.4c-1.2-0.3-0.8-0.2-1.5-0.8v-1.1c0.6,0.1,1.3,0.2,1.9,0.4V373.3L1622.8,373.3z M1619.1,374.4    c-0.6-0.1-1.3-0.2-1.9-0.4c0.4-0.8,0.3-0.5,0.8-1.1c0.4,0.1,0.7,0.3,1.1,0.4V374.4L1619.1,374.4z M1713.1,162.1h-1.5    c-0.1-0.4-0.2-0.7-0.4-1.1c0.2-0.2,0.5-0.5,0.7-0.8h0.7c0.1,0.1,0.2,0.2,0.4,0.4V162.1L1713.1,162.1z M1696.6,22.4    c-0.2,0.6-0.1,0.4-0.4,0.7c-0.2-0.6-0.3-0.6-0.4-1.5c0.4,0.1,0.7,0.2,1.1,0.4L1696.6,22.4L1696.6,22.4z M1680.1,34.4h-0.8v-0.7    h0.8V34.4L1680.1,34.4z M1671.5,84.5c-0.1,0.1-0.2,0.2-0.4,0.4c-0.1-0.4-0.2-0.7-0.4-1.1c0.5,0.2,0.8,0.4,1.1,0.7H1671.5    L1671.5,84.5z M1711.6,134.4h0.4v0.7h-0.4V134.4L1711.6,134.4z M1885.7,42.6c0.8-0.1,0.7-0.1,1.1-0.4h0.4    c-0.1,0.8-0.1,0.7-0.4,1.1c-0.4,0.3-0.3,0.2-1.1,0.4V42.6L1885.7,42.6z M1898.8,55h1.1v1.1h-1.1V55L1898.8,55z M1907.1,50.1    c0.2,0.6,0.1,0.4,0.4,0.7v0.7h-1.1l-0.4-1.5H1907.1L1907.1,50.1z M1931.8,16.8v0.7c-0.5-0.2-0.8-0.4-1.1-0.7H1931.8L1931.8,16.8z     M1935.9,377c0.1-0.1,0.3-0.2,0.4-0.4c1.3,0.2,1.5,0.5,2.6,0.8c0.4-0.4,0.6-0.5,1.1-0.8c-0.1-1-0.2-1.3-0.4-1.9    c-1.4,0-1.9,0.1-2.6,0.8h-0.8c0.1-1.3,0.3-2.5,0.4-3.7c-0.9-0.1-1.8-0.2-2.6-0.4c-0.1,0.9-0.1,1.1-0.4,1.5    c-0.5,0.3-0.5,0.1-1.1-0.4c0,0,1.4-4,2.2-4.5c-0.1-1.4-0.3-1.4-0.7-2.2c-1.8,0.3-2.3,1.3-3,2.6h-0.7c0.4-2.1,0.6-3.2,2.6-3.7    c-0.3-1.9-1.8-4.8-2.7-6.4l-0.2-0.3l-0.5-0.8c-0.8-0.4-1.6-0.1-2.3,0.7h-1.5c0.5-1,0.9-1.6,1.9-2.2c-0.2-1.5-0.4-1.5-0.8-2.6    c-1.1,0.6-0.5,0.5-0.4,1.9h-0.7c-0.1-0.1-0.2-0.2-0.4-0.4c0.1-1.4,0.3-1.4,0.7-2.2c-0.7-0.3-1.4-0.6-1.9-1.1    c-0.6-0.2-0.4-0.1-0.7-0.4c0.6-0.2,0.8-0.6,1.7-0.7l-4.3-6.8c0,0-1.6,0.7-2.3,1.9c-1.4-0.3-1.3-0.6-2.2-1.1v-1.5    c1.1-0.1,3.9-0.6,3.9-0.6l-0.1-0.1l-16.4-27.1c0,0-0.5-0.1-0.9-0.3c-0.2,0.5-0.5,1-0.7,1.5h-2.2c0.7-0.8,2.6-3.3,2.6-3.3l0,0    l-36.8-60.6l-3-5c-0.3-0.4-0.7-0.8-1-1.2c-0.4-0.4-0.9,0-1.5,0.4h-0.4c-0.2-0.6-0.1-0.4-0.4-0.7c0.4-0.3,0.6-1.3,1.5-1.4    l-7.6-12.4c0,0-1.6-1.6-2.4-2.3c-0.9-1.7-1.2-3.7-1.2-3.7s-0.9-1.5-1.9-3.3l-0.5-0.8l-0.3-0.5l-0.4-0.6c-0.7-1.2-1.4-2.4-2-3.4    l-0.2-0.4l-0.4-0.6c-2-0.4-4.6-0.9-6.6-1.3v-1.5c1.4,0.4,2.7,0.8,4.1,1.1c0.2,0,1.1-0.5,1.1-0.5l-13.7-22.6l31.4-52.4l1-1.6    c-0.2-1.5-0.7-2.5-1.4-3.4v-0.7c1.1,0.2,2.2,0.5,3.4,0.7l40-66.5l1.5-2.5c0-0.4-0.1-0.7-0.3-1c-0.7-1.8-2-1.6-3.4-2.6h-0.8v-0.8    c2.2,0.3,3.8,1.1,5.6,1.5c0.7-0.7,1.3-1.4,1.9-2.2l0,0l3.7-6.2l5.4-9l15.3-25.5l1.4-2.3c-0.3-1.9-1.1-1.9-1.8-3.5    c1.5-0.7,3-1.5,4.5-2.2c-0.3-3.6-2.5-4.4-4-6.6c0-0.1,0-0.3,0.1-0.4h-98.7l-0.1,0.2l-0.4,0.9l-16.6,32.1l-8.6,16.7    c0,0,1.7,1.1,2.2,1.3v0.7c-1.6-0.3-2.9-0.9-2.9-0.9l-9.8,18.9l0,0l0,0.1l-19.9,38.3l-41.3-79.7c-0.6-1.6-1.2-3.3-2.2-4.9    c-0.9-1.4-1.7-2.9-2.6-4.4l-10.1-19.5H1614l12.8,21.4l5.6,9.3l93.9,156.5l-70.8,116.4l-19.4,31.9l-29.8,49h108.1l2.1-4l0.6-1    l60.4-113.4l34.4,64.4l1.6,2.9l27.3,51.1h96.6c0.4-0.2,0.7-0.3,0.7-0.3v-0.4c-0.3-0.2-0.6-0.4-0.9-0.5c0,0-0.1-0.1-0.1-0.1    c-0.3-0.2-0.7-0.4-1.2-0.5c0.2-1.7,0.7-2.3,1.9-3v-1.9c-1.9-0.5-2.1-0.5-4.5-0.4c0.4-0.5,0.8-1,1.1-1.5c2.1,0.1,2.9,0.6,3.7,1.9    c1.3-0.3,1-0.2,1.5-1.1c0.1-0.1,0.2-0.2,0.4-0.4c-1.2-0.8-2.6-1.7-3.7-2.6C1936,377.4,1936.2,377.7,1935.9,377L1935.9,377z     M1558.8,366.9h-0.7v-0.8h0.7V366.9L1558.8,366.9z M1503,386c-0.5-0.2-0.8-0.4-1.1-0.7c-0.3-0.4-0.2-0.4-0.4-1.1    c0.5,0.4,1,0.7,1.5,1.1V386L1503,386z M1474.1,226.5c-0.9-0.1-0.9-0.2-1.5-0.4c0.1-0.6,0.2-1.3,0.4-1.9c0.5,0.4,1,0.8,1.5,1.1    C1474.4,225.7,1474.3,226.1,1474.1,226.5L1474.1,226.5z M1465.5,95c-0.4,1-0.5,0.8-1.1,1.5h-0.7c0.2-1.2,0.4-1.4,0.7-2.3    c0.8,0.2,0.7,0.1,1.1,0.4c0.1,0.1,0.2,0.2,0.4,0.4H1465.5L1465.5,95z M1444.5,246.3c-0.9-0.1-0.9-0.2-1.5-0.4    c-0.1-0.2-0.2-0.5-0.4-0.7c0.6-0.2,0.9-0.3,1.9-0.4V246.3L1444.5,246.3z M1440.4,226.1c0.2-1.2,0.3-1.1,0.7-1.9h1.1    c0.1,0.1,0.2,0.2,0.4,0.4c-0.1,0.6-0.2,1.3-0.4,1.9C1441.7,226.4,1441.1,226.2,1440.4,226.1L1440.4,226.1z M1427.3,141.5h-0.4    c-0.1-0.4-0.2-0.8-0.4-1.1c0.2,0.1,0.5,0.2,0.8,0.4V141.5L1427.3,141.5z M1413.5,98c-0.3,0.4-0.5,0.7-0.7,1.1h-1.1    c0.2-1,0.4-1.7,0.4-3c0.5,0.4,1,0.8,1.5,1.1V98L1413.5,98z M1409.3,138.1c-2.1-0.2-3.2-1.2-4.1-2.6c1.8,0.5,2.6,1.5,4.1,2.2V138.1    L1409.3,138.1z M1394.4,187.9c-0.4,0.3-0.1,0.1-0.8,0.4c-0.8-0.8-2.1-1.1-3-1.9c-0.3-0.4-0.1-0.1-0.4-0.7c0.4-0.4,0.7-0.8,1.1-1.1    c1.1,0.8,2.2,1.5,3.4,2.2C1394.6,187.6,1394.6,187.5,1394.4,187.9L1394.4,187.9z M1389.9,178.6v-1.5h2.6l0.7,0.7    c0,1.4-0.1,1.9-0.7,2.6c-0.2,0.3,0,0.1-0.4,0C1390.8,179.9,1390.8,179.3,1389.9,178.6L1389.9,178.6z M1386.9,179.3    c-0.4,0.3-0.1,0.1-0.7,0.4c-0.4-0.3-0.1-0.1-0.7-0.4v-1.1c0.6,0.1,1.2,0.3,1.9,0.4C1387,179.2,1387.2,178.9,1386.9,179.3    L1386.9,179.3z M1386.5,175.6v0.4h-1.1v-0.7C1385.7,175.3,1386.1,175.4,1386.5,175.6L1386.5,175.6z M1384.2,58.3    c-1.9-2-3.9-3.4-4.1-7.1c3,0.9,3,4.7,5.3,6.4c-0.1,0.1-0.3,0.2-0.4,0.4C1384.6,58.3,1384.9,58.1,1384.2,58.3L1384.2,58.3z     M1383.1,174.1h-1.5c0.2-0.5,0.5-1,0.7-1.5c0.4,0.2,0.8,0.5,1.1,0.7C1383.4,173.6,1383.3,173.8,1383.1,174.1L1383.1,174.1z     M1377.1,37.4c-0.1,0.1-0.2,0.2-0.4,0.4c-0.6-0.1-1.3-0.2-1.9-0.4c0.3-1.6,0.8-1.6,1.5-2.6c0.4,0.1,0.7,0.2,1.1,0.4    C1377.4,35.9,1377.3,36.6,1377.1,37.4L1377.1,37.4z M1375.6,171.8v0.7h-0.4c-0.2-0.2-0.5-0.5-0.7-0.7v-1.9h1.1l0.4,0.4    C1375.9,171.2,1375.9,171.4,1375.6,171.8L1375.6,171.8z M1364,357.6h-1.5v-1.1h1.1c0.1,0.1,0.2,0.2,0.4,0.4V357.6L1364,357.6z     M1273.8,376.3c-0.3,0.4-0.1,0.1-0.4,0.7c-0.6,0.2-0.4,0.1-0.7,0.4h-0.4c0.2-0.9,0.4-1.2,0.7-1.9h0.7V376.3L1273.8,376.3z     M1370.4,27.6c-0.7-0.2-0.4-0.1-0.8-0.4c0.5-0.2,1-0.5,1.5-0.7c0.2,0.6,0.3,0.6,0.4,1.5C1370.7,27.8,1370.8,27.9,1370.4,27.6    L1370.4,27.6z M1362.9,155.7v0.4c-0.9-0.5-0.4,0.1-0.7-1.1c0.6,0.2,0.4,0.1,0.7,0.4h0.4C1363.2,155.5,1363,155.6,1362.9,155.7    L1362.9,155.7z M1361.7,157.5c-0.8-1.1-1.4-2.4-1.6-3.7c1.1,1.7,2,3.5,3,5.3C1362.5,158.5,1362.1,158,1361.7,157.5L1361.7,157.5z     M1329.9,36.2v0.4h-0.7c0.7-2.5,2.2-4,3.4-6h1.1C1332.7,32.7,1331.8,35,1329.9,36.2L1329.9,36.2z M1524.7,92.8    c0.4,0.1,0.7,0.2,1.1,0.4l-0.4,0.4v0.7h-0.7V92.8L1524.7,92.8z M1540.4,14.9c-0.1,0.4-0.2,0.7-0.4,1.1c-0.3,0.1-0.5,0.2-0.8,0.4    c-0.2-0.6-0.3-0.6-0.4-1.5H1540.4L1540.4,14.9z M1565.9,29.1c0.2,0.1,0.5,0.2,0.7,0.4v0.8h-1.1    C1565.6,29.9,1565.8,29.5,1565.9,29.1L1565.9,29.1z M1595.8,383.8l-1.8-3c-0.5-0.6-1-1.1-1.5-1.5c-0.5-0.3-0.5-0.1-1.1,0.4    c-1.3-0.9-0.3-2-0.8-3.7c-0.1-0.6-0.3-1.1-0.6-1.7l-2.1-3.4l-2.3-3.8l-54.1-89.2l-13.2-21.8l-13.6-22.4l0,0l-8.5-14l-10.8-17.8    l-3-4.9l-1.9-3.2c-0.3-0.4-0.7-0.7-1.1-0.9c0-0.2,0.1-0.5,0.1-0.7l-0.4-0.7l0.9-1.6l0.3-0.5c0.9-2.4,2.4-4.5,3.9-6.5l10.1-16.8    l4.8-8l22.2-37l13.8-23l51.4-85.6l3.3-5.5l1.6-2.7l0.1-0.2h-107.6l-0.2,0.4l-2.1,4l-32.6,63l-4.1,7.8l-13.4,25.9l-3,5.9    c-0.1,0.4-0.2,0.8-0.3,1.1h-0.3l-0.1,0.3l-9.7-18.6L1407.2,73l-0.1-0.2l-2.9-5.5l0-0.1l-8.8-16.9l-18.8-36.2l-0.9-1.8l-3.5-6.8    l-0.5-1l-0.1-0.2h-107.3l0.3,0.4l1.5,2.5l0.3,0.6l4.5,7.5c0.8,1,1.5,2,2.2,3.1c0.8,1.2,1.3,2.5,1.9,3.7l0,0l9.1,15.2l9.6,15.9    l0,0.1l16.3,27.2l59.6,99.3l6.1,10.2l0.4,0.6l0.5,0.9l-1,1.6l-6.5,10.7l-34.7,57l-48.4,79.6l-23,37.7l-1,1.7l-5,8.3l-0.4,0.6    h108.1l4.1-7.7l0,0l24.5-46l17.8-33.4l7.2-13.5l0-0.1l4.7-8.9l2.2-4.2l2.5-4.6l21.1,39.6l20,37.5l0.1,0.2l0.2,0.5    c1.2,2.3,2.5,4.5,3.8,6.7c0.6,1,1,2,1.4,3l1.4,2.6l15.2,28.4h107.8l-0.4-0.7L1595.8,383.8L1595.8,383.8z"/>
	</g>
</g>
</svg>