<?xml version="1.0" ?>
<!-- Generator: Adobe Illustrator 28.5.0, SVG Export Plug-In . SVG Version: 9.03 Build 54727)  -->
<svg xmlns="http://www.w3.org/2000/svg" viewBox="0 0 526.597 148.179" enable-background="new 0 0 526.597 148.179">
	<path d="M167.006,3.157c3.601,0,7.267,0,11.299,0c0,1.046,0,1.985,0,2.923c0,11.049-0.036,22.098,0.014,33.146  c0.032,7.11,4.071,11.037,11.069,10.927c6.261-0.098,10.176-4.249,10.214-11.05c0.061-10.96,0.017-21.921,0.017-32.881  c0-0.956,0-1.912,0-3.039c3.956,0,7.699,0,11.58,0c0.067,0.601,0.174,1.107,0.174,1.613c0,11.932,0.101,23.866-0.06,35.797  c-0.107,7.957-3.122,14.565-10.575,18.226c-7.654,3.76-15.612,3.716-23.298,0.149c-6.543-3.037-10.325-8.671-10.565-15.72  c-0.447-13.152-0.154-26.328-0.158-39.495C166.716,3.602,166.858,3.451,167.006,3.157z"/>
	<path d="M339.798,22.225c0.111-1.286,0.212-2.462,0.329-3.814c3.388,0,6.695,0,10.238,0c0,13.874,0,27.765,0,41.876  c-3.27,0-6.578,0-10.164,0c-0.134-1.141-0.281-2.388-0.481-4.085c-5.137,4.785-11.014,6.038-17.399,4.874  c-4.76-0.867-8.716-3.298-11.745-7.121c-6.754-8.525-6.597-22.008,0.334-29.942C318.218,15.649,327.99,14.993,339.798,22.225z   M328.498,27.25c-6.745-0.039-11.771,5.053-11.809,11.966c-0.038,6.86,5.01,12.167,11.638,12.236  c6.517,0.068,11.811-5.309,11.872-12.058C340.261,32.59,335.153,27.289,328.498,27.25z"/>
	<path d="M274.177,88.892c2.425,0,4.621,0,7.1,0c0.081,1.575,0.16,3.12,0.268,5.222c3.507-4.382,7.681-6.668,13.089-6.395  c5.361,0.27,9.446,2.58,12.38,7.3c3.962-5.047,9.094-7.377,15.401-7.293c8.979,0.118,15.677,5.892,16.115,14.926  c0.44,9.079,0.097,18.196,0.097,27.509c-2.36,0-4.694,0-7.404,0c0-0.871,0-1.807,0-2.743c-0.001-6.987,0.051-13.974-0.018-20.96  c-0.058-5.801-2.386-9.712-6.45-11.165c-6.555-2.344-13.521,2.014-14.202,9.292c-0.476,5.087-0.234,10.243-0.281,15.369  c-0.031,3.347-0.006,6.695-0.006,10.23c-2.565,0-4.899,0-7.611,0c0-0.951,0-1.89,0-2.829c-0.003-7.34,0.105-14.683-0.051-22.02  c-0.089-4.19-1.583-7.878-5.705-9.728c-3.884-1.743-7.642-1.101-10.963,1.492c-2.655,2.073-4.015,4.986-4.098,8.298  c-0.18,7.158-0.165,14.32-0.227,21.48c-0.009,1.047-0.001,2.094-0.001,3.318c-2.58,0-4.916,0-7.432,0  C274.177,116.493,274.177,102.837,274.177,88.892z"/>
	<path d="M359.91,18.328c3.583,0,6.918,0,10.552,0c0.069,1.46,0.136,2.886,0.232,4.921c3.294-3.917,7.071-5.869,11.672-6.231  c9.627-0.757,17.444,5.624,17.797,15.15c0.338,9.096,0.097,18.214,0.098,27.323c0,0.246-0.138,0.492-0.251,0.871  c-3.412,0-6.83,0-10.543,0c-0.048-0.98-0.131-1.915-0.133-2.85c-0.012-6.191,0.002-12.382-0.014-18.572  c-0.003-1.058-0.057-2.12-0.172-3.171c-0.618-5.678-3.831-8.656-9.15-8.517c-4.992,0.131-8.882,3.968-9.003,9.276  c-0.157,6.895-0.051,13.795-0.059,20.694c-0.001,0.964,0,1.929,0,3.089c-3.754,0-7.33,0-11.027,0  C359.91,46.335,359.91,32.477,359.91,18.328z"/>
	<path d="M354.49,94.124c10.846-8.413,21.682-8.334,29.489,0.045c7.733,8.299,7.875,22.061,0.314,30.539  c-7.638,8.565-18.556,8.844-29.901,0.475c0,7.515,0,14.767,0,22.181c-2.711,0-5.046,0-7.538,0c0-19.458,0-38.782,0-58.333  c2.343,0,4.671,0,7.279,0C354.246,90.623,354.363,92.304,354.49,94.124z M382.253,109.751c0.089-8.502-5.779-14.914-13.746-15.02  c-8.218-0.109-14.355,5.952-14.464,14.286c-0.117,8.95,5.648,15.372,13.854,15.431C376.144,124.507,382.163,118.345,382.253,109.751  z"/>
	<path d="M218.814,84.787c-1.932,1.611-3.755,3.131-5.579,4.651c-10.849-13.43-26.469-11.223-34.132-3.719  c-8.353,8.179-8.859,22.915-0.958,31.258c9.24,9.758,22.567,8.757,35.453-2.817c1.766,1.488,3.559,2.999,5.329,4.491  c-5.863,9.937-21.035,15.04-33.712,11.471c-12.667-3.566-21.083-14.977-20.88-28.31c0.212-13.959,8.751-25.319,21.597-28.73  C198.581,69.722,213.073,74.792,218.814,84.787z"/>
	<path d="M430.598,93.973c0.085-1.809,0.155-3.288,0.234-4.964c2.328,0,4.56,0,6.971,0c0,13.665,0,27.314,0,41.164  c-2.238,0-4.482,0-6.905,0c-0.116-1.502-0.234-3.02-0.361-4.666c-11.723,8.056-22.332,7.671-29.724-0.912  c-7.402-8.595-7.363-22.27,0.086-30.394C408.516,85.893,419.459,85.714,430.598,93.973z M431.188,109.255  c-0.268-8.777-6.394-14.764-14.859-14.522c-7.846,0.225-13.685,6.972-13.375,15.454c0.316,8.622,6.436,14.508,14.827,14.26  C425.489,124.219,431.439,117.476,431.188,109.255z"/>
	<path d="M245.648,131.43c-12.568,0.079-22.036-9.305-22.062-21.865c-0.026-12.288,9.299-21.731,21.545-21.821  c12.719-0.093,22.167,9.037,22.325,21.574C267.614,121.842,258.236,131.351,245.648,131.43z M231.372,109.604  c0.016,8.209,6.276,14.812,14.073,14.844c7.947,0.032,14.372-6.612,14.391-14.878c0.018-8.218-6.473-14.898-14.418-14.838  C237.606,94.79,231.356,101.408,231.372,109.604z"/>
	<path d="M507.202,119.594c3.303-9.198,6.428-17.904,9.556-26.609c1.502-4.181,1.504-4.18,5.99-4.18c1.142,0,2.284,0,3.849,0  c-1.131,3.032-2.15,5.791-3.189,8.544c-4.796,12.705-9.552,25.424-14.434,38.096c-0.943,2.447-2.149,4.864-3.638,7.016  c-3.501,5.059-9.083,6.797-14.962,5.075c-1.666-0.488-2.646-1.162-2.137-3.134c0.37-1.434,0.467-2.939,0.7-4.512  c1.006,0.32,1.822,0.643,2.668,0.837c3.178,0.726,6.128,0.262,8.008-2.596c1.489-2.262,2.633-4.779,3.675-7.288  c0.29-0.698-0.189-1.834-0.551-2.668c-5.294-12.218-10.63-24.417-15.948-36.625c-0.345-0.792-0.622-1.614-1.05-2.735  c2.697,0,5.157-0.157,7.575,0.097c0.711,0.074,1.555,1.203,1.905,2.031c3.737,8.855,7.387,17.748,11.064,26.628  C506.483,118.054,506.715,118.524,507.202,119.594z"/>
	<path d="M483.039,130.272c-2.253,0-4.53,0-7.084,0c-0.045-1.014-0.121-1.951-0.123-2.888c-0.011-6.985,0.087-13.972-0.032-20.955  c-0.156-9.224-7.778-14.425-15.439-10.566c-4.725,2.38-6.363,6.669-6.44,11.636c-0.101,6.542-0.025,13.086-0.025,19.629  c0,0.959,0,1.919,0,3.059c-2.527,0-4.859,0-7.355,0c0-13.678,0-27.338,0-41.191c2.328,0,4.651,0,7.249,0c0,1.478,0,2.916,0,5.073  c3.959-4.921,8.636-6.569,14.152-6.342c7.898,0.324,14.457,5.542,14.954,13.404C483.5,110.706,483.039,120.348,483.039,130.272z"/>
	<path d="M220.95,18.336c3.533,0,6.857,0,10.377,0c0.079,1.436,0.154,2.797,0.255,4.626c2.624-3.357,5.568-5.569,9.59-5.878  c0.352-0.027,0.703-0.074,1.055-0.09c5.425-0.237,6.119,0.477,5.562,5.758c-0.193,1.829-0.414,3.655-0.634,5.587  c-0.928-0.171-1.695-0.334-2.468-0.451c-7.419-1.126-12.259,2.616-12.634,10.203c-0.305,6.171-0.121,12.367-0.151,18.552  c-0.006,1.143-0.001,2.285-0.001,3.645c-3.719,0-7.282,0-10.952,0C220.95,46.347,220.95,32.497,220.95,18.336z"/>
	<path d="M133.542,20.921c-0.041-13.215-7.8-20.917-20.956-20.917c-31.043-0.001-62.085-0.01-93.128,0.005  C8.447,0.014,0.198,8.159,0.013,19.201c-0.052,3.093,0.07,6.189,0.071,9.283c0.006,28.743-0.008,57.486,0.01,86.229  c0.007,10.367,8.371,18.747,18.687,18.751c31.927,0.012,63.854,0.034,95.781-0.02c6.749-0.012,12.059-3.003,15.855-8.592  c2.654-3.907,3.136-8.364,3.136-12.927c0-15.035,0-30.07,0-45.105C133.553,51.521,133.59,36.221,133.542,20.921z M62.172,58.601  c-0.014,4.331-0.004,8.663-0.095,12.993c-0.185,8.782-5.462,15.059-14.043,16.781c-6.019,1.208-11.935,1.111-17.652-1.439  c-5.552-2.475-9.15-6.704-9.379-12.753c-0.371-9.787-0.1-19.597-0.1-29.589c3.641,0,7.293,0,11.292,0  c0,1.155-0.007,2.19,0.001,3.224c0.058,7.6,0.001,15.203,0.216,22.799c0.158,5.569,3.511,8.31,9.489,8.192  c5.318-0.105,8.548-3.305,8.587-8.673c0.054-7.514,0.014-15.029,0.014-22.544c0-0.954,0-1.908,0-3.063c4.027,0,7.623,0,11.674,0  C62.175,49.299,62.187,53.95,62.172,58.601z M82.907,69.379c0.934,5.175,5.164,9.202,10.253,9.626  c4.694,0.391,7.903-1.924,10.247-6.187c3.213,1.551,6.211,2.997,9.185,4.432c-2.409,8.016-11.945,12.944-22.123,11.576  c-10.849-1.458-18.622-9.97-19.003-20.808c-0.417-11.876,6.418-20.874,17.528-23.077c10.696-2.121,20.241,2.298,23.677,11.18  c-2.634,1.307-5.262,2.707-7.988,3.88c-0.508,0.218-1.641-0.269-2.09-0.779c-4.288-4.875-8.338-6.04-13.26-3.678  C84.368,57.926,81.827,63.397,82.907,69.379z"/>
	<path d="M296.272,26.261c-3.364-5.073-8.105-8.049-14.084-8.98c-6.06-0.943-11.434,0.633-16.151,5.512c0-6.856,0-12.943,0-19.439  c-3.698,0-7.181,0-10.742,0c0,19.1,0,38.032,0,56.926c3.622,0,7.015,0,10.466,0c0.077-1.495,0.143-2.77,0.216-4.161  c10.063,7.106,19.958,6.938,27.454-0.332C301.077,48.372,302.33,35.397,296.272,26.261z M277.306,51.301  c-6.695,0.045-11.634-5.084-11.613-12.06c0.021-6.795,4.948-11.945,11.464-11.983c6.562-0.038,11.545,5.037,11.612,11.825  C288.838,46.092,283.993,51.256,277.306,51.301z"/>
</svg>