<?xml version="1.0" ?>
<svg xmlns="http://www.w3.org/2000/svg" viewBox="0 0 1000 1000">
	<polygon fill="#39449D" stroke="#000000" stroke-width="1.5" stroke-miterlimit="10" points="649.55,82.601 762.55,17.3773   875.55,82.601 875.55,213.048 762.55,278.2717 649.55,213.048 "/>
	<polygon fill="#8E396B" stroke="#000000" stroke-width="1.5" stroke-miterlimit="10" points="762.55,278.6521 875.55,213.4287   988.55,278.6521 988.55,409.0993 875.55,474.3229 762.55,409.0993 "/>
	<polygon fill="#E74865" stroke="#000000" stroke-width="1.5" stroke-miterlimit="10" points="536.55,278.6521 649.55,213.4287   762.55,278.6521 762.55,409.0993 649.55,474.3229 536.55,409.0993 "/>
	<polygon fill="#F0433A" stroke="#000000" stroke-width="1.5" stroke-miterlimit="10" points="423.45,83.0585 536.50,17.835   649.55,83.0585 649.55,213.5056 536.50,278.7292 423.45,213.5056 "/>
	<polygon fill="#FF5222" stroke="#000000" stroke-width="1.5" stroke-miterlimit="10" points="197.45,83.0585 310.45,17.835   423.45,83.0585 423.45,213.5056 310.45,278.7292 197.45,213.5056 "/>
	<polygon fill="#FD5C1E" stroke="#000000" stroke-width="1.5" stroke-miterlimit="10" points="310.55,278.6521 423.55,213.4287   536.55,278.6521 536.55,409.0993 423.55,474.3229 310.55,409.0993 "/>
	<polygon fill="#FDB513" stroke="#000000" stroke-width="1.5" stroke-miterlimit="10" points="84.45,278.6521 197.50,213.4287   310.55,278.6521 310.55,409.0993 197.50,474.3229 84.45,409.0993 "/>
	<polygon fill="#FC9912" stroke="#000000" stroke-width="1.5" stroke-miterlimit="10" points="197.45,474.4745 310.45,409.2509   423.45,474.4745 423.45,604.9216 310.45,670.1453 197.45,604.9216 "/>
	<polygon fill="#FF6F1D" stroke="#000000" stroke-width="1.5" stroke-miterlimit="10" points="423.45,474.4745 536.50,409.2509   649.55,474.4745 649.55,604.9216 536.50,670.1453 423.45,604.9216 "/>
	<polygon fill="#C44676" stroke="#000000" stroke-width="1.5" stroke-miterlimit="10" points="649.55,474.4745 762.55,409.2509   875.55,474.4745 875.55,604.9216 762.55,670.1453 649.55,604.9216 "/>
	<polygon fill="#FF721E" stroke="#000000" stroke-width="1.5" stroke-miterlimit="10" points="310.5301,670.1314 -367.6081,1062.0051   -480.572,996.6299 197.507,604.908 "/>
	<polygon fill="#FD9B26" stroke="#000000" stroke-width="1.5" stroke-miterlimit="10" points="197.4479,474.4852 -480.6903,866.3588   -593.6542,800.9835 84.4249,409.2616 "/>
	<polygon fill="#FB551C" stroke="#000000" stroke-width="1.5" stroke-miterlimit="10" points="536.5762,670.1314 -141.562,1062.0051   -254.5259,996.6299 423.5531,604.908 "/>
	<polygon fill="#39449D" stroke="#000000" stroke-width="1.5" stroke-miterlimit="10" points="762.504,670.1314 84.3657,1062.0051   -28.5981,996.6299 649.481,604.908 "/>
	<polygon fill="#FF721E" stroke="#000000" stroke-width="1.5" stroke-miterlimit="10" points="-480.6312,996.674 197.3888,605.1943   197.4479,474.3668 -480.6903,866.251 "/>
	<polygon fill="#FD9B26" stroke="#000000" stroke-width="1.5" stroke-miterlimit="10" points="-593.5951,800.9092 84.4249,409.4298   84.484,278.6021 -593.6542,670.4863 "/>
	<polygon fill="#FF4847" stroke="#000000" stroke-width="1.5" stroke-miterlimit="10" points="-480.6312,605.3811 197.3888,213.9018   197.4479,83.0742 -480.6903,474.9583 "/>
</svg>