<?xml version="1.0" ?>
<svg xmlns="http://www.w3.org/2000/svg" fill="none" viewBox="0 0 400 400">
	<path fill="#161E35" d="M 0.0,0.0 L 400.0,0.0 L 400.0,400.0 L 0.0,400.0 L 0.0,0.0"/>
	<path fill="#5D97FF" d="M 308.249,140.007 L 267.943,180.314 L 286.794,199.165 L 327.101,158.859 L 308.249,140.007 L 308.249,140.007"/>
	<path fill="#5D97FF" d="M 286.794,199.163 L 267.943,218.015 L 308.249,258.321 L 327.1,239.469 L 286.794,199.163"/>
	<path fill="#fff" d="M 267.941,180.304 L 227.624,140.0 L 208.772,158.853 L 249.088,199.157 L 208.772,239.473 L 227.624,258.325 L 267.941,218.009 L 286.793,199.157 L 267.941,180.304 L 267.941,180.304 M 192.665,142.574 L 166.067,142.574 L 166.067,199.587 A 33.741,33.741 0.0 0,1 98.586,199.587 L 98.586,142.574 L 72.0,142.574 L 72.0,199.661 A 60.3385,60.3385 0.0 1,0 192.677,199.661 L 192.677,199.366 L 192.665,142.574 L 192.665,142.574"/>
</svg>