<?xml version="1.0" ?>
<svg xmlns="http://www.w3.org/2000/svg" viewBox="0 0 143.8 23.3" enable-background="new 0 0 143.8 23.3">
	<path d="M12.6.2h-.5c-1.1 0-1.5.4-1.5 1.5v14.8c0 1.9-1.6 3.5-3.5 3.5s-3.5-1.6-3.5-3.5V1.7C3.6.6 3.2.2 2.1.2h-.5C.4.2 0 .6 0 1.7v14.8c-.1 1.9.6 3.7 2 4.9 1.4 1.3 3.2 1.9 5.1 1.9 1.9.1 3.7-.6 5.1-1.9 1.3-1.3 2-3.1 2-4.9V1.7C14.1.6 13.7.2 12.6.2m21.1 19.6h-8.2l8.2-13.6c.6-.9.9-1.9.9-3V1.9C34.6.6 34.2.2 33 .2h-8.9c-1.1 0-1.5.4-1.5 1.5V2c0 1.1.4 1.5 1.5 1.5h7.1l-8.1 13.6c-.6.9-1 2-1 3.1v1.2c0 1.3.4 1.7 1.7 1.7h9.9c1.1 0 1.5-.4 1.5-1.5v-.3c.1-1.1-.3-1.5-1.5-1.5m19.4-18C52.8.5 52.3.2 51 .2h-2.5c-1.3 0-1.8.4-2.1 1.6L42 21.6c-.3 1.1.1 1.5 1.2 1.5h.6c1.2 0 1.6-.3 1.9-1.5l.8-3.5h6.6l.8 3.5c.2 1.2.7 1.5 1.9 1.5h.6c1.1 0 1.5-.4 1.2-1.5L53.1 1.8zm-5.9 13.1.7-3c.8-3.7 1.4-7.1 1.9-10.2.3 2 1 5.4 2 10.3l.7 3-5.3-.1zM76 11.4c1.9-.5 3.2-2 3.2-4.7v-.8c0-3.4-2.4-5.7-6.8-5.7H67c-1.3 0-1.7.4-1.7 1.7v19.6c0 1.3.4 1.7 1.7 1.7h5.7c4.5 0 7.1-2.4 7.1-6.1v-.8c.1-3-1.4-4.6-3.8-4.9zm-7-8h3.4c2.2 0 3.4 1 3.4 2.7v.7c0 2-.9 3.1-3.7 3.1H69V3.4zm7.3 13.4c0 1.9-1.3 3.1-3.9 3.1H69v-6.8h3.5c2.6 0 3.8 1 3.8 3.1v.6zm21.9-15C97.9.5 97.4.2 96.1.2h-2.5c-1.3 0-1.8.4-2.1 1.6L87 21.6c-.3 1.1.1 1.5 1.2 1.5h.6c1.2 0 1.6-.3 1.9-1.5l.8-3.5h6.6l.8 3.5c.2 1.2.7 1.5 1.9 1.5h.6c1.1 0 1.5-.4 1.2-1.5L98.2 1.8zm-5.9 13.1.6-3c.8-3.7 1.4-7.1 1.9-10.2.3 2 1 5.4 2 10.3l.7 3-5.2-.1zM117 9.8c-2-.9-3.6-2.1-3.6-3.8 0-1.8 1.2-2.8 3.1-2.8 1.7-.2 3.2 1 3.4 2.7v.3c.1 1 .5 1.2 1.6 1.2h.5c1.1 0 1.4-.4 1.4-1.3.1-1.7-.7-3.3-1.9-4.4-2.9-2.3-7-2.3-9.9 0-1.3 1.1-2 2.7-1.9 4.4-.1 4.2 3.8 5.9 6.7 7.1 2.1.9 3.7 2.1 3.7 3.8 0 1.9-1.3 3-3.4 3-2.3 0-3.7-1.4-3.8-3.2-.1-1-.5-1.3-1.6-1.3h-.5c-1 0-1.5.4-1.5 1.2-.1 1.8.7 3.5 2.1 4.7 1.5 1.2 3.4 1.9 5.3 1.8 1.9.1 3.7-.5 5.1-1.8 1.3-1.2 2-2.9 1.9-4.6 0-4-3.8-5.8-6.7-7zm25.3-6.3c1.1 0 1.5-.4 1.5-1.5v-.3c0-1.1-.4-1.5-1.5-1.5h-8.5c-1.3 0-1.7.4-1.7 1.7v19.6c0 1.3.4 1.7 1.7 1.7h8.5c1.1 0 1.5-.4 1.5-1.5v-.3c0-1.1-.4-1.5-1.5-1.5h-6.6v-6.5h5.9c1.1 0 1.5-.3 1.5-1.5v-.3c0-1.1-.3-1.5-1.5-1.5h-5.9V3.5h6.6z"/>
</svg>