<?xml version="1.0" ?>
<svg xmlns="http://www.w3.org/2000/svg" viewBox="0 0 40.731364 40.774411" data-note="fix">
    <defs id="defs414">
        <linearGradient y2="174.70815" x2="146.52715" y1="131.02763" x1="123.64119" id="w" gradientTransform="matrix(0.28890068,0,0,0.24231282,-120.19642,241.14881)" gradientUnits="userSpaceOnUse">
            <stop id="stop629" offset="0" stop-color="#eff7fc" />
            <stop id="stop631" offset="1" stop-color="#fff" />
        </linearGradient>
    </defs>
    <g id="layer1" transform="translate(-18.396824,-64.18378)">
        <g id="g1447" transform="translate(-138.04598,-7.9452146)">
            <g id="g1395" transform="translate(-8.1301138,87.969836)">
                <g id="g1404" transform="translate(201.29915,-91.467636)">
                    <g id="g1414" transform="translate(-86.103911,-11.995006)">
                        <g id="g1438" transform="translate(-69.177822,-3.984044)">
                            <g id="g1384" transform="translate(-5.6910645,77.248537)">
                                <g id="g1454" transform="translate(132.33961,-176.14747)">
                                    <g id="g1469" transform="translate(-54.446811,-0.10687671)">
                                        <g id="g1486" transform="translate(-145.1656,9.8421202)">
                                            <g transform="translate(189.58978,-91.352839)" id="g5690">
                                                <g transform="translate(-76.461264,-44.944461)" id="g5728">
                                                    <g transform="translate(-86.916253,-6.6227536)" id="g5704">
                                                        <g transform="translate(-70.071412,-2.6693375)" id="g5697">
                                                            <g id="g1546" transform="translate(147.82019,-82.162895)">
                                                                <path id="path1271" d="m 104.00022,408.67133 13.39659,40.00842 c 6.30101,-1.91503 10.89288,-8.10207 10.89288,-15.48434 v -8.42326 c 0,-8.91976 -6.70132,-16.10082 -15.02492,-16.10082 z m -7.276047,39.36349 c 0.44968,0.20315 0.910275,0.38368 1.38131,0.54002 -0.470882,-0.1563 -0.931767,-0.33695 -1.38131,-0.54002 z m 1.381828,0.54002 c 0.470887,0.15628 0.952022,0.28848 1.441773,0.39533 -0.489918,-0.10688 -0.97073,-0.23899 -1.441773,-0.39533 z m 19.286169,0.10646 c -0.45896,0.13932 -0.92728,0.25486 -1.40302,0.3483 0.47608,-0.0928 0.94397,-0.20896 1.40302,-0.3483 z m -1.58647,0.38292 c -0.12737,0.0233 -0.25499,0.0458 -0.38344,0.0656 0.12855,-0.0197 0.25598,-0.0425 0.38344,-0.0656 z m -15.51637,0.047 c 0.74763,0.12175 1.51358,0.18501 2.29392,0.18501 -0.78034,0 -1.54628,-0.0633 -2.29392,-0.18501 z m 14.56707,0.0951 c -0.0765,0.009 -0.15363,0.0143 -0.23047,0.0217 0.0768,-0.007 0.15401,-0.0131 0.23047,-0.0217 z m -0.68574,0.0589 c -0.0791,0.005 -0.15829,0.01 -0.23772,0.0134 0.0795,-0.004 0.1586,-0.008 0.23772,-0.0134 z" style="fill:#eeedee;fill-rule:nonzero" />
                                                                <path id="path1273" d="m 102.58325,408.67117 c -8.323605,0 -15.024925,7.18106 -15.024925,16.10082 v 8.42378 c 0,8.91977 6.70132,16.10031 15.024925,16.10031 h 10.68152 c 1.43475,0 2.81973,-0.21765 4.13205,-0.6165 l -13.3966,-40.00841 z" style="fill:#29bb5b;fill-rule:nonzero" />
                                                                <path id="path1277" d="m 103.95009,408.52182 0.0181,0.0534 0.10438,-0.0534 z m 0.0501,0.14996 13.34647,40.02295 c 6.301,-1.9229 10.89288,-8.13536 10.89288,-15.54799 v -0.5713 z m 11.75535,40.40901 c -0.12736,0.0234 -0.25499,0.046 -0.38344,0.0659 0.12855,-0.0198 0.25598,-0.0427 0.38344,-0.0659 z m -0.94929,0.14269 c -0.0765,0.009 -0.15363,0.0144 -0.23048,0.0218 0.0768,-0.007 0.15401,-0.0131 0.23048,-0.0218 z m -0.68575,0.0591 c -0.0791,0.005 -0.15828,0.01 -0.23771,0.0135 0.0794,-0.004 0.15859,-0.008 0.23771,-0.0135 z" style="opacity:0.35;fill:#bfbfbf;fill-rule:nonzero" />
                                                                <path id="path1250" d="m 106.14198,429.17989 v 0 c -0.0204,-1.32066 -0.12191,-2.50925 -0.29461,-2.80387 -0.14222,-0.24381 -0.86352,-0.76191 -1.75749,-1.33081 l -2.39752,-1.39177 c -0.90414,-0.47748 -1.66606,-0.81272 -1.940354,-0.81272 -0.335247,0 -1.42225,0.50794 -2.580368,1.15812 -0.883826,0.48763 -1.808289,1.04637 -2.499097,1.51368 -0.528265,0.36572 -0.924463,0.68064 -1.026052,0.8635 -0.101589,0.18287 -0.182861,0.69082 -0.223497,1.37147 v 0 c -0.06096,0.85334 -0.08127,1.96067 -0.06096,2.97656 0.03048,1.29019 0.121908,2.42798 0.28445,2.71243 0.406358,0.69081 5.302966,3.52515 6.105519,3.52515 0.335249,0 1.371459,-0.48762 2.499109,-1.10732 0.89398,-0.48763 1.83877,-1.06669 2.54989,-1.54416 v 0 c 0.54858,-0.37588 0.94478,-0.6908 1.05653,-0.87367 0.11175,-0.18286 0.18286,-0.68064 0.22349,-1.34098 v 0 c 0.061,-0.83303 0.0812,-1.92003 0.061,-2.91561 z m -3.51499,3.69785 -0.98542,0.89399 c -0.0304,0.0406 -0.0711,0.061 -0.12191,0.061 -0.0508,0 -0.10158,-0.0204 -0.13206,-0.061 l -0.92446,-0.89399 c -0.0711,-0.0406 -0.0914,-0.13206 -0.0508,-0.20317 0.0304,-0.0508 0.0812,-0.0711 0.13206,-0.0711 h 0.26413 v -2.00131 h -2.102903 v 2.20448 c 0,0.0813 -0.07111,0.15239 -0.152384,0.15239 h -1.178436 c -0.08127,0 -0.152384,-0.0711 -0.152384,-0.15239 0,0 0,0 0,0 v -5.60773 h -0.274291 c -0.08127,0 -0.152384,-0.0711 -0.152384,-0.15238 0,-0.0508 0.03047,-0.10159 0.07112,-0.13206 l 0.985417,-0.89399 c 0.03047,-0.0406 0.07112,-0.061 0.121906,-0.061 0.0508,0 0.10159,0.0204 0.132066,0.061 l 0.924465,0.89399 c 0.07113,0.0406 0.09143,0.13206 0.05079,0.20318 -0.03044,0.0508 -0.08128,0.0711 -0.132067,0.0711 H 98.68531 v 1.92004 h 2.1029 v -2.13338 c 0,-0.0813 0.0711,-0.15239 0.15238,-0.15239 h 1.17844 c 0.0812,0 0.15238,0.0711 0.15238,0.15239 0,0 0,0 0,0 v 5.60773 h 0.27429 c 0.0813,0 0.1524,0.0711 0.1524,0.15238 0,0.0711 -0.0203,0.12191 -0.0711,0.14222 z" class="st1" style="fill:#eeedee;stroke-width:0.10158934" />
                                                                <path style="fill:#64808e;stroke-width:0.62681055" id="path1213-3" d="m 117.52728,432.7845 -2.88333,-2.88332 2.88333,-2.88332 -0.87753,-0.87754 -3.76087,3.76086 3.76087,3.76085 z m 3.25942,0 2.88332,-2.88332 -2.88332,-2.88332 0.87753,-0.87754 3.76086,3.76086 -3.76086,3.76085 z" />
                                                            </g>
                                                        </g>
                                                    </g>
                                                </g>
                                            </g>
                                        </g>
                                    </g>
                                </g>
                            </g>
                        </g>
                    </g>
                </g>
            </g>
        </g>
    </g>
</svg>