<?xml version="1.0" ?>
<svg xmlns="http://www.w3.org/2000/svg" viewBox="-1 -1 582 486.999">
	<path d="M -1.0,-1.0 L 581.0,-1.0 L 581.0,401.0 L -1.0,401.0 L -1.0,-1.0" fill="none"/>
	<path d="M 454.843,141.001 C 441.824,118.584 282.011,26.001 255.984,26.001 C 229.965,26.001 70.089,118.352 57.144,141.001 C 44.197,163.65 44.125,348.359 57.144,371.01 C 70.162,393.649 229.983,485.999 255.984,485.999 C 281.984,485.999 441.825,393.533 454.835,371.0 C 467.842,348.467 467.851,163.417 454.843,141.001 M 309.862,398.15 C 306.303,398.15 273.106,366.013 275.721,363.388 C 276.502,362.608 281.346,362.06 291.489,361.744 C 291.489,338.18 292.019,300.122 292.333,284.191 C 292.371,282.377 291.938,281.11 291.938,278.935 L 220.126,278.935 C 220.126,285.314 219.714,311.458 221.358,344.414 C 221.563,348.492 219.938,349.767 216.2,349.749 C 207.098,349.724 197.989,349.65 188.879,349.678 C 185.196,349.687 183.605,348.304 183.722,344.19 C 184.548,314.147 186.382,268.702 183.588,153.12 L 183.588,150.271 C 174.9,149.957 168.871,149.409 168.08,148.619 C 165.456,145.995 199.112,113.859 202.661,113.859 C 206.219,113.859 239.65,146.004 237.044,148.619 C 236.262,149.4 229.946,149.957 221.977,150.271 L 221.977,153.111 C 219.803,176.246 220.154,224.617 219.615,247.797 L 291.722,247.797 C 291.722,243.708 292.073,216.585 290.645,172.652 C 290.554,169.605 291.498,168.006 294.426,167.98 C 304.371,167.908 314.326,167.863 324.281,167.925 C 327.389,167.944 328.386,169.471 328.324,172.759 C 325.044,344.62 327.73,332.626 327.73,361.734 C 335.7,362.049 342.842,362.598 343.625,363.389 C 346.213,366.004 313.42,398.15 309.862,398.15 L 309.862,398.15" fill="#2ec866"/>
</svg>