<?xml version="1.0" ?>
<!-- Created with Inkscape (http://www.inkscape.org/) -->
<svg xmlns="http://www.w3.org/2000/svg" xmlns:sodipodi="http://sodipodi.sourceforge.net/DTD/sodipodi-0.dtd" xmlns:inkscape="http://www.inkscape.org/namespaces/inkscape" inkscape:version="0.48.0 r9654" sodipodi:docname="Hanthana Logo-1.svg" viewBox="0 0 769.8786 215.22496">
	<defs id="defs3043">
</defs>
	<sodipodi:namedview pagecolor="#ffffff" bordercolor="#666666" borderopacity="1" objecttolerance="10" gridtolerance="10" guidetolerance="10" inkscape:pageopacity="0" inkscape:pageshadow="2" inkscape:window-width="1152" inkscape:window-height="833" id="namedview3041" showgrid="false" inkscape:zoom="1" inkscape:cx="385.56998" inkscape:cy="1.576185" inkscape:window-x="0" inkscape:window-y="1" inkscape:window-maximized="1" inkscape:current-layer="g3047" fit-margin-top="10" fit-margin-left="10" fit-margin-bottom="10" fit-margin-right="10"/>
	<g id="g3047" inkscape:groupmode="layer" inkscape:label="ink_ext_XXXXXX" transform="matrix(1.25,0,0,-1.25,3.0699815,992.62367)">
		<g id="g3099" transform="matrix(3.7145024,0,0,3.7145024,-674.74488,-1536.5757)">
			<g id="text3053" transform="matrix(1,0,0,-1,200.649,603.613)">
				<path inkscape:connector-curvature="0" id="path2994" style="font-size:25.23559952px;font-variant:normal;font-weight:bold;writing-mode:lr-tb;fill:#231f20;fill-opacity:1;fill-rule:nonzero;stroke:none;font-family:Corbel;-inkscape-font-specification:Corbel-Bold" d="M 4.64542,-12.97514 C 4.64542,-12.35902 4.63309,-11.84971 4.60845,-11.4472 C 4.59202,-11.05289 4.55916,-10.69555 4.50988,-10.37518 L 4.55917,-10.37518 C 4.73167,-10.60518 4.94114,-10.8352 5.18759,-11.06522 C 5.44224,-11.29522 5.71743,-11.49237 6.01317,-11.65668 C 6.31711,-11.82917 6.65802,-11.96882 7.0359,-12.07563 C 7.42199,-12.18241 7.84504,-12.2358 8.30507,-12.23582 C 8.69937,-12.2358 9.08136,-12.19473 9.45103,-12.1126 C 9.82889,-12.03865 10.17802,-11.91954 10.4984,-11.75526 C 10.82698,-11.59095 11.12271,-11.37737 11.38559,-11.11451 C 11.65667,-10.85163 11.88257,-10.53947 12.06331,-10.17803 C 12.21937,-9.86586 12.33438,-9.51263 12.40832,-9.11833 C 12.48224,-8.72402 12.51921,-8.24346 12.51922,-7.67665 L 12.51922,0.0 L 9.59889,0.0 L 9.59889,-7.28234 C 9.59888,-7.652 9.58245,-7.95183 9.5496,-8.18185 C 9.51674,-8.42007 9.45923,-8.62544 9.3771,-8.79796 C 9.20458,-9.1594 8.95814,-9.41405 8.63777,-9.56193 C 8.31739,-9.70978 7.95183,-9.78371 7.54111,-9.78372 C 6.97428,-9.7755 6.44854,-9.63996 5.96388,-9.3771 C 5.48742,-9.11422 5.04794,-8.72812 4.64542,-8.21882 L 4.64542,0.0 L 1.72509,0.0 L 1.72509,-17.84236 L 4.64542,-17.84236 L 4.64542,-12.97514"/>
				<path inkscape:connector-curvature="0" id="path2996" style="font-size:25.23559952px;font-variant:normal;font-weight:bold;writing-mode:lr-tb;fill:#231f20;fill-opacity:1;fill-rule:nonzero;stroke:none;font-family:Corbel;-inkscape-font-specification:Corbel-Bold" d="M 21.89615,-1.26917 L 21.84686,-1.26917 C 21.68256,-1.09666 21.48541,-0.92005 21.2554,-0.73932 C 21.02538,-0.5586 20.76251,-0.38609 20.46679,-0.2218 C 20.17106,-0.06572 19.84247,0.06161 19.48103,0.16019 C 19.11957,0.25876 18.72937,0.30805 18.31043,0.30805 C 17.74361,0.30805 17.21376,0.21769 16.72088,0.03697 C 16.228,-0.13554 15.80494,-0.38609 15.45171,-0.71468 C 15.09848,-1.05148 14.81917,-1.454 14.61381,-1.92224 C 14.41666,-2.39869 14.31808,-2.92854 14.31808,-3.51179 C 14.31808,-4.15253 14.43308,-4.72756 14.6631,-5.23688 C 14.90132,-5.74619 15.22991,-6.17746 15.64886,-6.5307 C 16.06781,-6.88392 16.56891,-7.1509 17.15216,-7.33163 C 17.7354,-7.52056 18.38025,-7.61503 19.08672,-7.61504 C 19.60424,-7.61503 20.08069,-7.58217 20.51608,-7.51646 C 20.95145,-7.45074 21.33344,-7.3727 21.66203,-7.28234 L 21.66203,-7.7629 C 21.66202,-8.0422 21.61273,-8.30917 21.51417,-8.56384 C 21.4238,-8.8267 21.27183,-9.05671 21.05825,-9.25387 C 20.85288,-9.45923 20.58179,-9.61942 20.24499,-9.73443 C 19.90818,-9.85765 19.49745,-9.91926 19.01279,-9.91927 C 18.42132,-9.91926 17.82987,-9.85354 17.23841,-9.72211 C 16.64695,-9.59067 16.0062,-9.39352 15.31617,-9.13065 L 15.31617,-11.41024 C 15.91584,-11.6731 16.55248,-11.87436 17.22609,-12.01402 C 17.89969,-12.15366 18.60615,-12.22759 19.34548,-12.23582 C 20.21624,-12.2358 20.9761,-12.12901 21.62507,-11.91544 C 22.28223,-11.70185 22.82851,-11.40612 23.2639,-11.02825 C 23.70749,-10.65858 24.03607,-10.21909 24.24967,-9.70979 C 24.47145,-9.20047 24.58235,-8.64598 24.58236,-8.04631 L 24.58236,-3.54876 C 24.58235,-2.76014 24.59056,-2.08243 24.607,-1.51561 C 24.62342,-0.9488 24.63985,-0.44359 24.65629,4.0e-07 L 22.01937,4.0e-07 L 21.89615,-1.26917 M 21.66203,-5.08901 C 21.38272,-5.15473 21.06235,-5.21223 20.70091,-5.26152 C 20.33946,-5.31902 19.9739,-5.34777 19.60424,-5.34778 C 18.88956,-5.34777 18.32274,-5.20401 17.9038,-4.91651 C 17.49306,-4.6372 17.28769,-4.20593 17.2877,-3.62269 C 17.28769,-3.3516 17.33288,-3.11337 17.42324,-2.90801 C 17.52181,-2.71085 17.64914,-2.54656 17.80522,-2.41512 C 17.96951,-2.28369 18.15845,-2.18511 18.37204,-2.1194 C 18.58561,-2.05368 18.81152,-2.02082 19.04975,-2.02082 C 19.34548,-2.02082 19.62478,-2.05778 19.88765,-2.13172 C 20.15052,-2.21386 20.39285,-2.31244 20.61465,-2.42745 C 20.83644,-2.55066 21.0336,-2.68621 21.20611,-2.83407 C 21.38683,-2.98194 21.5388,-3.12569 21.66203,-3.26535 L 21.66203,-5.08901"/>
				<path inkscape:connector-curvature="0" id="path2998" style="font-size:25.23559952px;font-variant:normal;font-weight:bold;writing-mode:lr-tb;fill:#231f20;fill-opacity:1;fill-rule:nonzero;stroke:none;font-family:Corbel;-inkscape-font-specification:Corbel-Bold" d="M 29.69784,-10.27661 L 29.74713,-10.27661 C 29.91964,-10.52304 30.13733,-10.76537 30.4002,-11.00361 C 30.66307,-11.24182 30.96291,-11.4513 31.29971,-11.63203 C 31.63651,-11.81275 32.00617,-11.9565 32.4087,-12.06331 C 32.81943,-12.1783 33.25481,-12.2358 33.71484,-12.23582 C 34.15021,-12.2358 34.56916,-12.18652 34.97169,-12.08795 C 35.38242,-11.98936 35.75619,-11.83328 36.093,-11.61971 C 36.42979,-11.41433 36.72552,-11.14325 36.98019,-10.80645 C 37.24305,-10.47786 37.44842,-10.08355 37.59629,-9.62354 C 37.67843,-9.36887 37.73182,-9.08957 37.75648,-8.78564 C 37.78933,-8.4899 37.80576,-8.14488 37.80577,-7.75058 L 37.80577,3.55271e-15 L 34.88544,3.55271e-15 L 34.88544,-7.29467 C 34.88543,-7.61503 34.87311,-7.89022 34.84847,-8.12024 C 34.82382,-8.35025 34.77864,-8.55151 34.71293,-8.72403 C 34.56505,-9.10189 34.33915,-9.37298 34.03521,-9.53728 C 33.73947,-9.70157 33.37803,-9.78371 32.95087,-9.78372 C 32.38405,-9.78371 31.83777,-9.64817 31.31204,-9.3771 C 30.7945,-9.11422 30.33448,-8.72812 29.93196,-8.21882 L 29.93196,1.77636e-15 L 27.01163,1.77636e-15 L 27.01163,-11.94009 L 29.42676,-11.94009 L 29.69784000000003,-10.27661"/>
				<path inkscape:connector-curvature="0" id="path3000" style="font-size:25.23559952px;font-variant:normal;font-weight:bold;writing-mode:lr-tb;fill:#231f20;fill-opacity:1;fill-rule:nonzero;stroke:none;font-family:Corbel;-inkscape-font-specification:Corbel-Bold" d="M 47.45473,-0.01232 C 47.12613,0.08625 46.73183,0.16429 46.27181,0.2218 C 45.82,0.2793 45.39694,0.30805 45.00264,0.30805 C 44.00044,0.30805 43.17897,0.14786 42.53823,-0.17251 C 41.90569,-0.5011 41.45799,-0.96934 41.19512,-1.57723 C 41.00618,-2.0126 40.91171,-2.60406 40.91171,-3.3516 L 40.91171,-9.53728 L 38.68142,-9.53728 L 38.68142,-11.94009 L 40.91171,-11.94009 L 40.91171,-15.27937 L 43.83204,-15.27937 L 43.83204,-11.94009 L 47.28222,-11.94009 L 47.28222,-9.53728 L 43.83204,-9.53728 L 43.83204,-3.73359 C 43.83204,-3.27356 43.90186,-2.93265 44.04152,-2.71086 C 44.28795,-2.33298 44.77673,-2.14404 45.50784,-2.14404 C 45.84464,-2.14404 46.17734,-2.16868 46.50593,-2.21797 C 46.84273,-2.27547 47.15899,-2.3453 47.45473,-2.42745 L 47.45473,-0.01232"/>
				<path inkscape:connector-curvature="0" id="path3002" style="font-size:25.23559952px;font-variant:normal;font-weight:bold;writing-mode:lr-tb;fill:#231f20;fill-opacity:1;fill-rule:nonzero;stroke:none;font-family:Corbel;-inkscape-font-specification:Corbel-Bold" d="M 51.92785,-12.97514 C 51.92785,-12.35902 51.91552,-11.84971 51.89088,-11.4472 C 51.87445,-11.05289 51.84159,-10.69555 51.7923,-10.37518 L 51.84159,-10.37518 C 52.01409,-10.60518 52.22357,-10.8352 52.47001,-11.06522 C 52.72467,-11.29522 52.99986,-11.49237 53.29559,-11.65668 C 53.59953,-11.82917 53.94044,-11.96882 54.31833,-12.07563 C 54.70441,-12.18241 55.12747,-12.2358 55.5875,-12.23582 C 55.9818,-12.2358 56.36378,-12.19473 56.73345,-12.1126 C 57.11132,-12.03865 57.46044,-11.91954 57.78083,-11.75526 C 58.1094,-11.59095 58.40513,-11.37737 58.66802,-11.11451 C 58.93909,-10.85163 59.16499,-10.53947 59.34573,-10.17803 C 59.5018,-9.86586 59.6168,-9.51263 59.69075,-9.11833 C 59.76467,-8.72402 59.80163,-8.24346 59.80165,-7.67665 L 59.80165,0.0 L 56.88132,0.0 L 56.88132,-7.28234 C 56.88131,-7.652 56.86488,-7.95183 56.83203,-8.18185 C 56.79916,-8.42007 56.74166,-8.62544 56.65952,-8.79796 C 56.487,-9.1594 56.24056,-9.41405 55.92019,-9.56193 C 55.59981,-9.70978 55.23426,-9.78371 54.82353,-9.78372 C 54.25671,-9.7755 53.73096,-9.63996 53.2463,-9.3771 C 52.76984,-9.11422 52.33036,-8.72812 51.92784,-8.21882 L 51.92784,1.77636e-15 L 49.00751,1.77636e-15 L 49.00751,-17.84236 L 51.92784,-17.84236 L 51.92784,-12.97514"/>
				<path inkscape:connector-curvature="0" id="path3004" style="font-size:25.23559952px;font-variant:normal;font-weight:bold;writing-mode:lr-tb;fill:#231f20;fill-opacity:1;fill-rule:nonzero;stroke:none;font-family:Corbel;-inkscape-font-specification:Corbel-Bold" d="M 69.17858,-1.26917 L 69.12929,-1.26917 C 68.96499,-1.09666 68.76783,-0.92005 68.53783,-0.73932 C 68.30781,-0.5586 68.04494,-0.38609 67.74922,-0.2218 C 67.45348,-0.06572 67.12489,0.06161 66.76345,0.16019 C 66.402,0.25876 66.0118,0.30805 65.59286,0.30805 C 65.02604,0.30805 64.49619,0.21769 64.00331,0.03697 C 63.51042,-0.13554 63.08737,-0.38609 62.73414,-0.71468 C 62.3809,-1.05148 62.1016,-1.454 61.89623,-1.92224 C 61.69908,-2.39869 61.6005,-2.92854 61.6005,-3.51179 C 61.6005,-4.15253 61.71551,-4.72756 61.94552,-5.23688 C 62.18375,-5.74619 62.51234,-6.17746 62.93129,-6.5307 C 63.35024,-6.88392 63.85133,-7.1509 64.43458,-7.33163 C 65.01782,-7.52056 65.66268,-7.61503 66.36915,-7.61504 C 66.88667,-7.61503 67.36312,-7.58217 67.79851,-7.51646 C 68.23388,-7.45074 68.61586,-7.3727 68.94446,-7.28234 L 68.94446,-7.7629 C 68.94445,-8.0422 68.89516,-8.30917 68.79659,-8.56384 C 68.70622,-8.8267 68.55425,-9.05671 68.34068,-9.25387 C 68.1353,-9.45923 67.86422,-9.61942 67.52742,-9.73443 C 67.19061,-9.85765 66.77988,-9.91926 66.29521,-9.91927 C 65.70375,-9.91926 65.11229,-9.85354 64.52084,-9.72211 C 63.92937,-9.59067 63.28863,-9.39352 62.59859,-9.13065 L 62.59859,-11.41024 C 63.19826,-11.6731 63.8349,-11.87436 64.50851,-12.01402 C 65.18212,-12.15366 65.88858,-12.22759 66.62791,-12.23582 C 67.49866,-12.2358 68.25852,-12.12901 68.90749,-11.91544 C 69.56466,-11.70185 70.11094,-11.40612 70.54633,-11.02825 C 70.98991,-10.65858 71.3185,-10.21909 71.53209,-9.70979 C 71.75388,-9.20047 71.86478,-8.64598 71.86479,-8.04631 L 71.86479,-3.54876 C 71.86478,-2.76014 71.87299,-2.08243 71.88944,-1.51561 C 71.90586,-0.9488 71.92229,-0.44359 71.93873,4.0e-07 L 69.3018,0.0 L 69.17858,-1.26917 M 68.94446,-5.08901 C 68.66515,-5.15473 68.34478,-5.21223 67.98334,-5.26152 C 67.62188,-5.31902 67.25633,-5.34777 66.88667,-5.34778 C 66.17199,-5.34777 65.60517,-5.20402 65.18623,-4.91651 C 64.77549,-4.6372 64.57012,-4.20593 64.57013,-3.62269 C 64.57012,-3.3516 64.61531,-3.11337 64.70567,-2.90801 C 64.80424,-2.71085 64.93157,-2.54656 65.08765,-2.41513 C 65.25194,-2.28369 65.44088,-2.18511 65.65447,-2.1194 C 65.86804,-2.05368 66.09395,-2.02082 66.33218,-2.02082 C 66.62791,-2.02082 66.90721,-2.05778 67.17008,-2.13172 C 67.43295,-2.21386 67.67528,-2.31244 67.89708,-2.42745 C 68.11887,-2.55067 68.31603,-2.68621 68.48854,-2.83408 C 68.66926,-2.98194 68.82123,-3.12569 68.94446,-3.26535 L 68.94446,-5.08901"/>
				<path inkscape:connector-curvature="0" id="path3006" style="font-size:25.23559952px;font-variant:normal;font-weight:bold;writing-mode:lr-tb;fill:#231f20;fill-opacity:1;fill-rule:nonzero;stroke:none;font-family:Corbel;-inkscape-font-specification:Corbel-Bold" d="M 76.98027,-10.27661 L 77.02956,-10.27661 C 77.20207,-10.52304 77.41976,-10.76537 77.68263,-11.00361 C 77.9455,-11.24182 78.24533,-11.4513 78.58214,-11.63203 C 78.91894,-11.81275 79.2886,-11.9565 79.69113,-12.06331 C 80.10186,-12.1783 80.53724,-12.2358 80.99727,-12.23582 C 81.43264,-12.2358 81.85159,-12.18652 82.25412,-12.08795 C 82.66484,-11.98936 83.03861,-11.83328 83.37543,-11.61971 C 83.71222,-11.41433 84.00795,-11.14325 84.26262,-10.80645 C 84.52548,-10.47786 84.73084,-10.08355 84.87872,-9.62354 C 84.96085,-9.36887 85.01425,-9.08957 85.03891,-8.78564 C 85.07176,-8.4899 85.08819,-8.14488 85.0882,-7.75058 L 85.0882,3.55271e-15 L 82.16787,3.55271e-15 L 82.16787,-7.29467 C 82.16786,-7.61503 82.15554,-7.89022 82.1309,-8.12024 C 82.10625,-8.35025 82.06107,-8.55151 81.99535,-8.72403 C 81.84748,-9.10189 81.62157,-9.37298 81.31764,-9.53728 C 81.0219,-9.70157 80.66045,-9.78371 80.2333,-9.78372 C 79.66647,-9.78371 79.1202,-9.64817 78.59446,-9.3771 C 78.07693,-9.11422 77.61691,-8.72812 77.21439,-8.21882 L 77.21439,1.77636e-15 L 74.29406,1.77636e-15 L 74.29406,-11.94009 L 76.70918,-11.94009 L 76.98027,-10.27661"/>
				<path inkscape:connector-curvature="0" id="path3008" style="font-size:25.23559952px;font-variant:normal;font-weight:bold;writing-mode:lr-tb;fill:#231f20;fill-opacity:1;fill-rule:nonzero;stroke:none;font-family:Corbel;-inkscape-font-specification:Corbel-Bold" d="M 94.46647,-1.26917 L 94.41718,-1.26917 C 94.25288,-1.09666 94.05572,-0.92005 93.82572,-0.73932 C 93.5957,-0.5586 93.33283,-0.38609 93.03711,-0.2218 C 92.74137,-0.06572 92.41278,0.06161 92.05134,0.16019 C 91.68989,0.25876 91.29969,0.30805 90.88074,0.30805 C 90.31393,0.30805 89.78408,0.21769 89.2912,0.03697 C 88.79831,-0.13554 88.37525,-0.38609 88.02202,-0.71468 C 87.66879,-1.05148 87.38949,-1.454 87.18412,-1.92224 C 86.98697,-2.39869 86.88839,-2.92854 86.88839,-3.51179 C 86.8883900000001,-4.15253 87.0034,-4.72756 87.23341,-5.23688 C 87.47164,-5.74619 87.80022,-6.17746 88.21918,-6.5307 C 88.63813,-6.88392 89.13922,-7.1509 89.72247,-7.33163 C 90.30571,-7.52056 90.95056,-7.61503 91.65704,-7.61504 C 92.17456,-7.61503 92.65101,-7.58217 93.0864,-7.51646 C 93.52177,-7.45074 93.90375,-7.3727 94.23235,-7.28234 L 94.23235,-7.7629 C 94.23234,-8.0422 94.18305,-8.30917 94.08448,-8.56384 C 93.99411,-8.8267 93.84214,-9.05671 93.62857,-9.25387 C 93.42319,-9.45923 93.15211,-9.61942 92.81531,-9.73443 C 92.4785,-9.85765 92.06776,-9.91926 91.5831,-9.91927 C 90.99164,-9.91926 90.40018,-9.85354 89.80872,-9.72211 C 89.21726,-9.59067 88.57651,-9.39352 87.88648,-9.13065 L 87.88648,-11.41024 C 88.48615,-11.6731 89.12279,-11.87436 89.7964,-12.01402 C 90.47,-12.15366 91.17647,-12.22759 91.9158,-12.23582 C 92.78655,-12.2358 93.54641,-12.12901 94.19538,-11.91544 C 94.85255,-11.70185 95.39883,-11.40612 95.83422,-11.02825 C 96.2778,-10.65858 96.60639,-10.21909 96.81998,-9.70979 C 97.04177,-9.20047 97.15267,-8.64598 97.15268,-8.04631 L 97.15268,-3.54876 C 97.15267,-2.76014 97.16088,-2.08243 97.17732,-1.51561 C 97.19374,-0.9488 97.21017,-0.44359 97.22661,4.0e-07 L 94.58969,4.0e-07 L 94.46647,-1.26917 M 94.23235,-5.08901 C 93.95304,-5.15473 93.63266,-5.21223 93.27122,-5.26152 C 92.90977,-5.31902 92.54422,-5.34777 92.17456,-5.34778 C 91.45987,-5.34777 90.89306,-5.20401 90.47411,-4.91651 C 90.06337,-4.6372 89.85801,-4.20593 89.85801,-3.62269 C 89.85801,-3.3516 89.90319,-3.11337 89.99355,-2.90801 C 90.09212,-2.71085 90.21945,-2.54656 90.37554,-2.41512 C 90.53983,-2.28369 90.72877,-2.18511 90.94235,-2.1194 C 91.15593,-2.05368 91.38183,-2.02082 91.62007,-2.02082 C 91.91579,-2.02082 92.19509,-2.05778 92.45797,-2.13172 C 92.72083,-2.21386 92.96317,-2.31244 93.18497,-2.42745 C 93.40676,-2.55066 93.60391,-2.68621 93.77643,-2.83407 C 93.95714,-2.98194 94.10912,-3.12569 94.23235,-3.26535 L 94.23235,-5.08901"/>
			</g>
			<g id="text3057" transform="matrix(1,0,0,-1,298.6291,603.613)">
				<path inkscape:connector-curvature="0" id="path3011" style="font-size:25.23559952px;font-variant:normal;font-weight:normal;writing-mode:lr-tb;fill:#231f20;fill-opacity:1;fill-rule:nonzero;stroke:none;font-family:Corbel;-inkscape-font-specification:Corbel" d="M 1.97153,0.0 L 1.97153,-17.84236 L 3.88145,-17.84236 L 3.88145,0.0 L 1.97153,0.0"/>
				<path inkscape:connector-curvature="0" id="path3013" style="font-size:25.23559952px;font-variant:normal;font-weight:normal;writing-mode:lr-tb;fill:#231f20;fill-opacity:1;fill-rule:nonzero;stroke:none;font-family:Corbel;-inkscape-font-specification:Corbel" d="M 7.0016,0.0 L 7.0016,-11.70597 L 8.91153,-11.70597 L 8.91153,0.0 L 7.0016,0.0 M 6.95232,-14.42914 L 6.95232,-16.56086 L 8.96081,-16.56086 L 8.96081,-14.42914 L 6.9523200000001,-14.42914"/>
				<path inkscape:connector-curvature="0" id="path3015" style="font-size:25.23559952px;font-variant:normal;font-weight:normal;writing-mode:lr-tb;fill:#231f20;fill-opacity:1;fill-rule:nonzero;stroke:none;font-family:Corbel;-inkscape-font-specification:Corbel" d="M 13.75677,-10.07945 L 13.79374,-10.07945 C 14.00732,-10.35053 14.24143,-10.60108 14.4961,-10.8311 C 14.75896,-11.06932 15.05058,-11.27468 15.37096,-11.4472 C 15.69133,-11.62792 16.04046,-11.76757 16.41834,-11.86615 C 16.80442,-11.96471 17.22337,-12.01401 17.67519,-12.01402 C 18.20914,-12.01401 18.71023,-11.94008 19.17848,-11.79222 C 19.64671,-11.64435 20.05334,-11.40612 20.39837,-11.07754 C 20.74337,-10.74894 21.01446,-10.31767 21.21162,-9.78372 C 21.41698,-9.25797 21.51966,-8.60901 21.51967,-7.83684 L 21.51967,-1.77636e-15 L 19.60975,-1.77636e-15 L 19.60975,-7.52878 C 19.60974,-8.53919 19.41259,-9.26619 19.01829,-9.70979 C 18.63219,-10.15338 18.06538,-10.37517 17.31785,-10.37518 C 16.66066,-10.37517 16.02402,-10.19034 15.40793,-9.82069 C 14.79182,-9.45923 14.26197,-8.95814 13.81838,-8.3174 L 13.81838,-1.77636e-15 L 11.90846,-1.77636e-15 L 11.90846,-11.70597 L 13.38711,-11.70597 L 13.75677,-10.07945"/>
				<path inkscape:connector-curvature="0" id="path3017" style="font-size:25.23559952px;font-variant:normal;font-weight:normal;writing-mode:lr-tb;fill:#231f20;fill-opacity:1;fill-rule:nonzero;stroke:none;font-family:Corbel;-inkscape-font-specification:Corbel" d="M 29.03671,0.30805 C 28.42881,0.30805 27.88253,0.24233 27.39787,0.1109 C 26.9132,-0.02054 26.48603,-0.20537 26.11638,-0.44359 C 25.75492,-0.68182 25.44687,-0.96523 25.19222,-1.29382 C 24.93756,-1.63062 24.7363,-1.99617 24.58844,-2.39048 C 24.47343,-2.68621 24.39128,-3.01069 24.342,-3.36393 C 24.29271,-3.71715 24.26807,-4.10325 24.26807,-4.5222 L 24.26807,-11.70597 L 26.17799,-11.70597 L 26.17799,-4.53452 C 26.17799,-3.88556 26.26424,-3.34339 26.43675,-2.90801 C 26.6339,-2.41512 26.95017,-2.02492 27.38555,-1.73741 C 27.82914,-1.45811 28.39185,-1.31846 29.07368,-1.31846 C 29.79656,-1.31846 30.3757,-1.47454 30.81109,-1.7867 C 31.25467,-2.09886 31.57094,-2.51781 31.75989,-3.04355 C 31.89953,-3.44607 31.96935,-3.94306 31.96936,-4.53452 L 31.96936,-11.70597 L 33.87928,-11.70597 L 33.87928,-4.50988 C 33.87927,-4.11557 33.85462,-3.74591 33.80535,-3.40089 C 33.76427,-3.06409 33.69444,-2.75193 33.59588,-2.46441 C 33.448,-2.06189 33.24263,-1.68812 32.97977,-1.34311 C 32.72511,-1.0063 32.40884,-0.71468 32.03097,-0.46824 C 31.65309,-0.2218 31.2136,-0.03286 30.71251,0.09858 C 30.21962,0.23823 29.66102,0.30805 29.03671,0.30805"/>
				<path inkscape:connector-curvature="0" id="path3019" style="font-size:25.23559952px;font-variant:normal;font-weight:normal;writing-mode:lr-tb;fill:#231f20;fill-opacity:1;fill-rule:nonzero;stroke:none;font-family:Corbel;-inkscape-font-specification:Corbel" d="M 40.56911,-7.19609 L 43.7482,-11.70597 L 45.85528,-11.70597 L 41.57952,-5.91459 L 46.01546,0.0 L 43.94536,0.0 L 40.51982,-4.68239 L 40.47053,-4.68239 L 37.09429,0.0 L 35.02418,0.0 L 39.46012,-5.96388 L 35.18436,-11.70597 L 37.29144,-11.70597 L 40.51982,-7.19609 L 40.56911,-7.19609"/>
			</g>
			<g id="g3061">
				<g transform="matrix(1,0,0,-1,254.411,590.945)" id="text3063">
					<path d="M 4.89378,-8.34001 C 4.72113,-8.38427 4.54185,-8.41968 4.35593,-8.44625 C 4.17443,-8.47723 4.00179,-8.49273 3.838,-8.49273 C 3.66092,-8.49273 3.50378,-8.47059 3.36655,-8.42633 C 3.22932,-8.38648 3.11201,-8.31787 3.01462,-8.22049 C 2.92166,-8.12309 2.85083,-7.99693 2.80214,-7.842 C 2.75344,-7.68706 2.72909,-7.49892 2.7291,-7.27759 L 2.7291,-6.43429 L 4.51529,-6.43429 L 4.51529,-5.13947 L 2.7291000000004,-5.13947 L 2.7291000000004,-3.0e-07 L 1.15538,-3.0e-07 L 1.15538,-5.13947 L 0.0664,-5.13947 L 0.0664,-6.43429 L 1.15538,-6.43429 L 1.15538,-7.19791 C 1.15538,-7.64943 1.21736,-8.03677 1.34131,-8.35993 C 1.46968,-8.6875 1.64675,-8.95532 1.87252,-9.16339 C 2.09828,-9.37586 2.36389,-9.5308 2.66934,-9.6282 C 2.97478,-9.73 3.30679,-9.78091 3.66536,-9.78092 C 3.88669,-9.78091 4.10581,-9.76099 4.32273,-9.72116 C 4.54406,-9.68574 4.73441,-9.64147 4.89378,-9.58836 L 4.89378,-8.34001" style="font-size:13.59899998px;font-variant:normal;font-weight:bold;writing-mode:lr-tb;fill:#0994dc;fill-opacity:1;fill-rule:nonzero;stroke:none;font-family:Corbel;-inkscape-font-specification:Corbel-Bold" id="path3022" inkscape:connector-curvature="0"/>
					<path d="M 8.18211,-1.10226 C 8.48755,-1.10226 8.80628,-1.13325 9.13829,-1.19522 C 9.47029,-1.2572 9.80673,-1.34573 10.14759,-1.46083 L 10.14759,-0.20584 C 9.94396,-0.11731 9.63187,-0.0332 9.21133,0.04648 C 8.79079,0.12616 8.35475,0.166 7.90323,0.166 C 7.44727,0.166 7.01345,0.10846 6.60176,-0.00664 C 6.1945,-0.12616 5.83814,-0.31651 5.5327,-0.57769 C 5.22725,-0.83887 4.98378,-1.17752 4.80228,-1.59363 C 4.62521,-2.00975 4.53668,-2.5144 4.53668,-3.10758 C 4.53668,-3.69191 4.62079,-4.2032 4.789,-4.64146 C 4.95722,-5.0797 5.18298,-5.44269 5.4663,-5.73044 C 5.74961,-6.01817 6.07276,-6.23287 6.43576,-6.37453 C 6.80318,-6.52061 7.18166,-6.59365 7.57122,-6.59366 C 7.97848,-6.59365 8.35254,-6.53167 8.6934,-6.40773 C 9.03869,-6.28378 9.33528,-6.089 9.58318,-5.8234 C 9.8355,-5.55779 10.03028,-5.21472 10.16751,-4.79418 C 10.30916,-4.37806 10.37999,-3.88448 10.38,-3.31343 C 10.3756,-3.09209 10.36893,-2.90395 10.36008,-2.74902 L 6.14359,-2.74902 C 6.16572,-2.45242 6.23212,-2.19788 6.3428,-1.9854 C 6.45346,-1.77734 6.59733,-1.60691 6.7744,-1.47411 C 6.9559,-1.34573 7.16617,-1.25056 7.40522,-1.18858 C 7.64426,-1.13104 7.90322,-1.10226 8.18211,-1.10226 M 7.5513,-5.36523 C 7.35209,-5.36522 7.17502,-5.3276 7.02009,-5.25235 C 6.86515,-5.18151 6.73013,-5.08191 6.61504,-4.95354 C 6.50437,-4.82959 6.41583,-4.6835 6.34944,-4.51529 C 6.28303,-4.34707 6.23876,-4.16779 6.21663,-3.97744 L 8.74652,-3.97744 C 8.74652,-4.16779 8.71996,-4.34707 8.66684,-4.51529 C 8.61814,-4.68351 8.54289,-4.82959 8.44108,-4.95354 C 8.34369,-5.08191 8.21974,-5.18151 8.06923,-5.25235 C 7.92314,-5.3276 7.7505,-5.36523 7.5513,-5.36523" style="font-size:13.59899998px;font-variant:normal;font-weight:bold;writing-mode:lr-tb;fill:#0994dc;fill-opacity:1;fill-rule:nonzero;stroke:none;font-family:Corbel;-inkscape-font-specification:Corbel-Bold" id="path3024" inkscape:connector-curvature="0"/>
					<path d="M 14.69656,-1.10226 C 15.002,-1.10226 15.32073,-1.13325 15.65274,-1.19522 C 15.98474,-1.2572 16.32117,-1.34573 16.66204,-1.46083 L 16.66204,-0.20584 C 16.4584,-0.11731 16.14632,-0.0332 15.72578,0.04648 C 15.30523,0.12616 14.8692,0.166 14.41767,0.166 C 13.96171,0.166 13.52789,0.10846 13.11621,-0.00664 C 12.70894,-0.12616 12.35259,-0.31651 12.04714,-0.57769 C 11.7417,-0.83887 11.49822,-1.17752 11.31673,-1.59363 C 11.13966,-2.00975 11.05112,-2.5144 11.05112,-3.10758 C 11.05112,-3.69191 11.13523,-4.2032 11.30345,-4.64146 C 11.47166,-5.0797 11.69743,-5.44269 11.98074,-5.73044 C 12.26405,-6.01817 12.58721,-6.23287 12.9502,-6.37453 C 13.31762,-6.52061 13.69611,-6.59365 14.08567,-6.59366 C 14.49292,-6.59365 14.86698,-6.53167 15.20785,-6.40773 C 15.55313,-6.28378 15.84972,-6.089 16.09763,-5.8234 C 16.34995,-5.55779 16.54472,-5.21472 16.68196,-4.79418 C 16.82361,-4.37806 16.89444,-3.88448 16.89444,-3.31343 C 16.89004,-3.09209 16.88337,-2.90395 16.87452,-2.74902 L 12.65804,-2.74902 C 12.68017,-2.45242 12.74657,-2.19788 12.85724,-1.9854 C 12.96791,-1.77734 13.11178,-1.60691 13.28885,-1.47411 C 13.47034,-1.34573 13.68061,-1.25056 13.91966,-1.18858 C 14.1587,-1.13104 14.41767,-1.10226 14.69656,-1.10226 M 14.06575,-5.36523 C 13.86654,-5.36522 13.68947,-5.3276 13.53453,-5.25235 C 13.37959,-5.18151 13.24458,-5.08191 13.12949,-4.95354 C 13.01881,-4.82959 12.93028,-4.6835 12.86388,-4.51529 C 12.79748,-4.34707 12.75321,-4.16779 12.73108,-3.97744 L 15.26097,-3.97744 C 15.26097,-4.16779 15.23441,-4.34707 15.18129,-4.51529 C 15.13259,-4.6835 15.05734,-4.82959 14.95552,-4.95354 C 14.85813,-5.08191 14.73418,-5.18151 14.58368,-5.25235 C 14.43759,-5.3276 14.26495,-5.36522 14.06575,-5.36523" style="font-size:13.59899998px;font-variant:normal;font-weight:bold;writing-mode:lr-tb;fill:#0994dc;fill-opacity:1;fill-rule:nonzero;stroke:none;font-family:Corbel;-inkscape-font-specification:Corbel-Bold" id="path3026" inkscape:connector-curvature="0"/>
					<path d="M 17.96398,0.0 L 17.96398,-9.61492 L 19.53769,-9.61492 L 19.53769,0.0 L 17.96398,0.0" style="font-size:13.59899998px;font-variant:normal;font-weight:bold;writing-mode:lr-tb;fill:#0994dc;fill-opacity:1;fill-rule:nonzero;stroke:none;font-family:Corbel;-inkscape-font-specification:Corbel-Bold" id="path3028" inkscape:connector-curvature="0"/>
					<path d="M 27.60666,-0.00664 C 27.42958,0.04648 27.2171,0.08854 26.9692,0.11952 C 26.72573,0.15051 26.49775,0.166 26.28527,0.166 C 25.7452,0.166 25.30253,0.07968 24.95724,-0.09296 C 24.61638,-0.27003 24.37512,-0.52236 24.23347,-0.84994 C 24.13165,-1.08455 24.08074,-1.40328 24.08075,-1.80612 L 24.08075,-5.13947 L 22.87888,-5.13947 L 22.87888,-6.43429 L 24.08075,-6.43429 L 24.08075,-8.23377 L 25.65446,-8.23377 L 25.65446,-6.43429 L 27.5137,-6.43429 L 27.5137,-5.13947 L 25.65446,-5.13947 L 25.65446,-2.01196 C 25.65446,-1.76406 25.69208,-1.58035 25.76734,-1.46083 C 25.90014,-1.2572 26.16353,-1.15538 26.55752,-1.15538 C 26.73901,-1.15538 26.91829,-1.16866 27.09537,-1.19522 C 27.27686,-1.22621 27.44729,-1.26384 27.60666,-1.30811 L 27.60666,-0.00664" style="font-size:13.59899998px;font-variant:normal;font-weight:bold;writing-mode:lr-tb;fill:#0994dc;fill-opacity:1;fill-rule:nonzero;stroke:none;font-family:Corbel;-inkscape-font-specification:Corbel-Bold" id="path3030" inkscape:connector-curvature="0"/>
					<path d="M 30.01737,-6.99206 C 30.01736,-6.66005 30.01077,-6.38559 29.99745,-6.16869 C 29.98855,-5.9562 29.97089,-5.76363 29.94433,-5.591 L 29.97089,-5.591 C 30.06385,-5.71494 30.17673,-5.83889 30.30953,-5.96284 C 30.44676,-6.08679 30.59506,-6.19303 30.75442,-6.28157 C 30.91821,-6.37453 31.10192,-6.44978 31.30555,-6.50733 C 31.51361,-6.56488 31.74159,-6.59365 31.98949,-6.59366 C 32.20197,-6.59365 32.40781,-6.57152 32.60702,-6.52726 C 32.81065,-6.48741 32.99878,-6.42322 33.17143,-6.33469 C 33.3485,-6.24615 33.50786,-6.13105 33.64952,-5.9894 C 33.7956,-5.84774 33.91733,-5.67953 34.01473,-5.48475 C 34.09883,-5.31653 34.16081,-5.12618 34.20065,-4.9137 C 34.24048,-4.70121 34.2604,-4.44225 34.26041,-4.13681 L 34.26041,-6.0e-07 L 32.6867,-6.0e-07 L 32.6867,-3.92432 C 32.6867,-4.12352 32.6778,-4.2851 32.66014,-4.40905 C 32.64243,-4.53742 32.61144,-4.64809 32.56718,-4.74106 C 32.47421,-4.93583 32.34141,-5.07306 32.16877,-5.15275 C 31.99612,-5.23242 31.79913,-5.27226 31.5778,-5.27227 C 31.27235,-5.26784 30.98904,-5.1948 30.72786,-5.05314 C 30.47111,-4.91148 30.23428,-4.70343 30.01737,-4.42897 L 30.01737,-6.0e-07 L 28.44366,-6.0e-07 L 28.44366,-9.61492 L 30.01737,-9.61492 L 30.01737,-6.99206599999999" style="font-size:13.59899998px;font-variant:normal;font-weight:bold;writing-mode:lr-tb;fill:#0994dc;fill-opacity:1;fill-rule:nonzero;stroke:none;font-family:Corbel;-inkscape-font-specification:Corbel-Bold" id="path3032" inkscape:connector-curvature="0"/>
					<path d="M 38.84186,-1.10226 C 39.1473,-1.10226 39.46603,-1.13325 39.79804,-1.19522 C 40.13004,-1.2572 40.46648,-1.34573 40.80734,-1.46083 L 40.80734,-0.20584 C 40.6037,-0.11731 40.29162,-0.0332 39.87108,0.04648 C 39.45054,0.12616 39.0145,0.166 38.56298,0.166 C 38.10702,0.166 37.67319,0.10846 37.26151,-0.00664 C 36.85424,-0.12616 36.49789,-0.31651 36.19245,-0.57769 C 35.887,-0.83887 35.64353,-1.17752 35.46203,-1.59363 C 35.28496,-2.00975 35.19642,-2.5144 35.19642,-3.10758 C 35.19642,-3.69191 35.28054,-4.2032 35.44875,-4.64146 C 35.61697,-5.0797 35.84273,-5.44269 36.12604,-5.73044 C 36.40935,-6.01817 36.73251,-6.23287 37.0955,-6.37453 C 37.46292,-6.52061 37.84141,-6.59365 38.23097,-6.59366 C 38.63823,-6.59365 39.01229,-6.53167 39.35315,-6.40773 C 39.69843,-6.28378 39.99503,-6.089 40.24293,-5.8234 C 40.49525,-5.55779 40.69003,-5.21472 40.82726,-4.79418 C 40.96891,-4.37806 41.03974,-3.88448 41.03975,-3.31343 C 41.03535,-3.09209 41.02868,-2.90395 41.01983,-2.74902 L 36.80334,-2.74902 C 36.82547,-2.45242 36.89187,-2.19788 37.00254,-1.9854 C 37.11321,-1.77734 37.25708,-1.60691 37.43415,-1.47411 C 37.61565,-1.34573 37.82592,-1.25056 38.06497,-1.18858 C 38.30401,-1.13104 38.56297,-1.10226 38.84186,-1.10226 M 38.21105,-5.36523 C 38.01184,-5.36522 37.83477,-5.3276 37.67984,-5.25235 C 37.5249,-5.18151 37.38988,-5.08191 37.27479,-4.95354 C 37.16412,-4.82959 37.07558,-4.6835 37.00918,-4.51529 C 36.94278,-4.34707 36.89851,-4.16779 36.87638,-3.97744 L 39.40627,-3.97744 C 39.40627,-4.16779 39.37971,-4.34707 39.32659,-4.51529 C 39.27789,-4.6835 39.20264,-4.82959 39.10083,-4.95354 C 39.00344,-5.08191 38.87949,-5.18151 38.72898,-5.25235 C 38.58289,-5.3276 38.41025,-5.36522 38.21105,-5.36523" style="font-size:13.59899998px;font-variant:normal;font-weight:bold;writing-mode:lr-tb;fill:#0994dc;fill-opacity:1;fill-rule:nonzero;stroke:none;font-family:Corbel;-inkscape-font-specification:Corbel-Bold" id="path3034" inkscape:connector-curvature="0"/>
					<path d="M 48.87501,-8.34001 C 48.70236,-8.38427 48.52307,-8.41968 48.33715,-8.44625 C 48.15565,-8.47723 47.98301,-8.49273 47.81922,-8.49273 C 47.64215,-8.49273 47.485,-8.47059 47.34777,-8.42633 C 47.21054,-8.38648 47.09323,-8.31787 46.99585,-8.22049 C 46.90289,-8.12309 46.83205,-7.99693 46.78336,-7.842 C 46.73466,-7.68706 46.71032,-7.49892 46.71032,-7.27759 L 46.71032,-6.43429 L 48.49652,-6.43429 L 48.49652,-5.13947 L 46.71032,-5.13947 L 46.71032,-4.0e-07 L 45.13661,-4.0e-07 L 45.13661,-5.13947 L 44.04763,-5.13947 L 44.04763,-6.43429 L 45.13661,-6.43429 L 45.13661,-7.19791 C 45.13661,-7.64943 45.19858,-8.03677 45.32253,-8.35993 C 45.45091,-8.6875 45.62798,-8.95532 45.85374,-9.16339 C 46.07951,-9.37586 46.34511,-9.5308 46.65056,-9.6282 C 46.956,-9.73 47.28801,-9.78091 47.64658,-9.78092 C 47.86792,-9.78091 48.08704,-9.76099 48.30395,-9.72116 C 48.52529,-9.68574 48.71564,-9.64147 48.87501,-9.58836 L 48.87501,-8.34001" style="font-size:13.59899998px;font-variant:normal;font-weight:bold;writing-mode:lr-tb;fill:#0994dc;fill-opacity:1;fill-rule:nonzero;stroke:none;font-family:Corbel;-inkscape-font-specification:Corbel-Bold" id="path3036" inkscape:connector-curvature="0"/>
					<path d="M 52.67463,-5.18595 L 52.54182,-5.18595 C 52.0593,-5.18594 51.63434,-5.1129 51.26692,-4.96682 C 50.90392,-4.82516 50.62282,-4.60604 50.42362,-4.30945 L 50.42362,0.0 L 48.84991,0.0 L 48.84991,-6.43429 L 50.15138,-6.43429 L 50.29746,-5.53787 L 50.32402,-5.53787 C 50.50994,-5.86545 50.76448,-6.1222 51.08763,-6.30813 C 51.41521,-6.49847 51.80698,-6.59365 52.26294,-6.59366 C 52.4223,-6.59365 52.55953,-6.5848 52.67463,-6.56709 L 52.67463,-5.18595" style="font-size:13.59899998px;font-variant:normal;font-weight:bold;writing-mode:lr-tb;fill:#0994dc;fill-opacity:1;fill-rule:nonzero;stroke:none;font-family:Corbel;-inkscape-font-specification:Corbel-Bold" id="path3038" inkscape:connector-curvature="0"/>
					<path d="M 56.46139,-1.10226 C 56.76683,-1.10226 57.08556,-1.13325 57.41757,-1.19522 C 57.74957,-1.2572 58.08601,-1.34573 58.42687,-1.46083 L 58.42687,-0.20584 C 58.22323,-0.11731 57.91115,-0.0332 57.49061,0.04648 C 57.07007,0.12616 56.63403,0.166 56.18251,0.166 C 55.72655,0.166 55.29272,0.10846 54.88104,-0.00664 C 54.47377,-0.12616 54.11742,-0.31651 53.81198,-0.57769 C 53.50653,-0.83887 53.26306,-1.17752 53.08156,-1.59363 C 52.90449,-2.00975 52.81596,-2.5144 52.81596,-3.10758 C 52.81596,-3.69191 52.90007,-4.2032 53.06828,-4.64146 C 53.2365,-5.0797 53.46226,-5.44269 53.74557,-5.73044 C 54.02889,-6.01817 54.35204,-6.23287 54.71503,-6.37453 C 55.08245,-6.52061 55.46094,-6.59365 55.8505,-6.59366 C 56.25776,-6.59365 56.63182,-6.53167 56.97268,-6.40773 C 57.31796,-6.28378 57.61456,-6.089 57.86246,-5.8234 C 58.11478,-5.55779 58.30956,-5.21472 58.44679,-4.79418 C 58.58844,-4.37806 58.65927,-3.88448 58.65928,-3.31343 C 58.65488,-3.09209 58.64821,-2.90395 58.63936,-2.74902 L 54.42287,-2.74902 C 54.445,-2.45242 54.5114,-2.19788 54.62207,-1.9854 C 54.73274,-1.77734 54.87661,-1.60691 55.05368,-1.47411 C 55.23518,-1.34573 55.44545,-1.25056 55.6845,-1.18858 C 55.92354,-1.13104 56.1825,-1.10226 56.46139,-1.10226 M 55.83058,-5.36523 C 55.63137,-5.36522 55.4543,-5.3276 55.29937,-5.25235 C 55.14443,-5.18151 55.00941,-5.08191 54.89432,-4.95354 C 54.78365,-4.82959 54.69511,-4.6835 54.62871,-4.51529 C 54.56231,-4.34707 54.51804,-4.16779 54.49591,-3.97744 L 57.0258,-3.97744 C 57.0258,-4.16779 56.99924,-4.34707 56.94612,-4.51529 C 56.89742,-4.6835 56.82217,-4.82959 56.72036,-4.95354 C 56.62297,-5.08191 56.49902,-5.18151 56.34851,-5.25235 C 56.20242,-5.3276 56.02978,-5.36522 55.83058,-5.36523" style="font-size:13.59899998px;font-variant:normal;font-weight:bold;writing-mode:lr-tb;fill:#0994dc;fill-opacity:1;fill-rule:nonzero;stroke:none;font-family:Corbel;-inkscape-font-specification:Corbel-Bold" id="path3040" inkscape:connector-curvature="0"/>
					<path d="M 62.97584,-1.10226 C 63.28128,-1.10226 63.6,-1.13325 63.93202,-1.19522 C 64.26402,-1.2572 64.60045,-1.34573 64.94132,-1.46083 L 64.94132,-0.20584 C 64.73768,-0.11731 64.42559,-0.0332 64.00506,0.04648 C 63.58451,0.12616 63.14848,0.166 62.69695,0.166 C 62.24099,0.166 61.80717,0.10846 61.39548,-0.00664 C 60.98822,-0.12616 60.63187,-0.31651 60.32642,-0.57769 C 60.02097,-0.83887 59.7775,-1.17752 59.59601,-1.59363 C 59.41894,-2.00975 59.3304,-2.5144 59.3304,-3.10758 C 59.3304,-3.69191 59.41451,-4.2032 59.58273,-4.64146 C 59.75094,-5.0797 59.97671,-5.44269 60.26002,-5.73044 C 60.54333,-6.01817 60.86648,-6.23287 61.22948,-6.37453 C 61.5969,-6.52061 61.97539,-6.59365 62.36494,-6.59366 C 62.7722,-6.59365 63.14626,-6.53167 63.48713,-6.40773 C 63.83241,-6.28378 64.129,-6.089 64.37691,-5.8234 C 64.62923,-5.55779 64.824,-5.21472 64.96124,-4.79418 C 65.10289,-4.37806 65.17372,-3.88448 65.17372,-3.31343 C 65.16932,-3.09209 65.16265,-2.90395 65.1538,-2.74902 L 60.93732,-2.74902 C 60.95945,-2.45242 61.02585,-2.19788 61.13652,-1.9854 C 61.24719,-1.77734 61.39106,-1.60691 61.56813,-1.47411 C 61.74962,-1.34573 61.95989,-1.25056 62.19894,-1.18858 C 62.43798,-1.13104 62.69695,-1.10226 62.97584,-1.10226 M 62.34503,-5.36523 C 62.14582,-5.36522 61.96875,-5.3276 61.81381,-5.25235 C 61.65887,-5.18151 61.52386,-5.08191 61.40877,-4.95354 C 61.29809,-4.82959 61.20956,-4.6835 61.14316,-4.51529 C 61.07676,-4.34707 61.03249,-4.16779 61.01036,-3.97744 L 63.54025,-3.97744 C 63.54024,-4.16779 63.51369,-4.34707 63.46057,-4.51529 C 63.41187,-4.6835 63.33662,-4.82959 63.23481,-4.95354 C 63.13742,-5.08191 63.01346,-5.18151 62.86296,-5.25235 C 62.71687,-5.3276 62.54423,-5.36522 62.34503,-5.36523" style="font-size:13.59899998px;font-variant:normal;font-weight:bold;writing-mode:lr-tb;fill:#0994dc;fill-opacity:1;fill-rule:nonzero;stroke:none;font-family:Corbel;-inkscape-font-specification:Corbel-Bold" id="path3042" inkscape:connector-curvature="0"/>
					<path d="M 68.94579,-1.08898 C 69.10072,-1.08898 69.24681,-1.1089 69.38404,-1.14874 C 69.52569,-1.18858 69.6585,-1.2417 69.78245,-1.30811 C 69.90639,-1.37451 70.01485,-1.44755 70.10782,-1.52723 C 70.2052,-1.60691 70.28709,-1.68438 70.3535,-1.75964 L 70.3535,-4.8141 C 70.16757,-4.9646 69.95951,-5.08855 69.72933,-5.18595 C 69.49913,-5.28776 69.25566,-5.33866 68.99891,-5.33867 C 68.83512,-5.33866000000005 68.66248,-5.30546 68.48098,-5.23907 C 68.30391,-5.17266 68.14012,-5.05978 67.98961,-4.90042 C 67.84353,-4.74105 67.71958,-4.51971 67.61776,-4.23641 C 67.52037,-3.95309 67.47168,-3.59231 67.47168,-3.15406 C 67.47168,-2.50776 67.59563,-2.00311 67.84353,-1.64011 C 68.09585,-1.27712 68.46327,-1.09341 68.94579,-1.08898 M 65.84485,-3.08766 C 65.84485,-3.64986 65.92232,-4.15008 66.07725,-4.58833 C 66.23219,-5.031 66.44246,-5.40064 66.70807,-5.69724 C 66.9781,-5.99825 67.28576,-6.2218 67.63104,-6.36789 C 67.97633,-6.51839 68.3349,-6.59365 68.70675,-6.59366 C 68.87939,-6.59365 69.04318,-6.57816 69.19812,-6.54717 C 69.35305,-6.51618 69.4991300000002,-6.47413 69.63637,-6.42101 C 69.77359,-6.36788 69.90197,-6.30812 70.02149,-6.24173 C 70.14101,-6.17532 70.25168,-6.10671 70.3535,-6.03588 L 70.36678,-6.03588 C 70.36238,-6.12441 70.35788,-6.24836 70.3535,-6.40773 C 70.3535,-6.57152 70.3535,-6.74859 70.3535,-6.93894 L 70.3535,-9.61492 L 71.92721,-9.61492 L 71.92721,-1.91236 C 71.92721,-1.48739 71.93161,-1.12218 71.94049,-0.81674 C 71.94929,-0.51129 71.95819,-0.23904 71.96705,3.0e-07 L 70.54606,3.0e-07 L 70.47966,-0.68393 L 70.4531,-0.68393 C 70.36013,-0.57326 70.24725,-0.46481 70.11446,-0.35857 C 69.98608,-0.25232 69.84221,-0.15936 69.68285,-0.07968 C 69.52791,-0.00443 69.35526,0.05533 69.16492,0.0996 C 68.97899,0.14387 68.77536,0.166 68.55402,0.166 C 68.20431,0.1662 67.86787,0.10403 67.54472,-0.01992 C 67.22599,-0.14387 66.93825,-0.33422 66.68151,-0.59097 C 66.42918,-0.85215 66.22555,-1.1908 66.07061,-1.60691 C 65.9201,-2.02745 65.84485,-2.52104 65.84485,-3.08766" style="font-size:13.59899998px;font-variant:normal;font-weight:bold;writing-mode:lr-tb;fill:#0994dc;fill-opacity:1;fill-rule:nonzero;stroke:none;font-family:Corbel;-inkscape-font-specification:Corbel-Bold" id="path3044" inkscape:connector-curvature="0"/>
					<path d="M 77.81208,-3.21383 C 77.81207,-3.55468 77.77223,-3.8557 77.69256,-4.11688 C 77.61287,-4.37806 77.5022,-4.59718 77.36055,-4.77426 C 77.21889,-4.95132 77.04846,-5.08413 76.84926,-5.17267 C 76.65005,-5.2612 76.43314,-5.30546 76.19853,-5.30547 C 75.96833,-5.30546 75.75363,-5.2612 75.55443,-5.17267 C 75.35965,-5.08413 75.19144,-4.95132 75.04978,-4.77426 C 74.90812,-4.59718 74.79745,-4.37806 74.71777,-4.11688 C 74.63809,-3.8557 74.59825,-3.55468 74.59825,-3.21383 C 74.59825,-2.87296 74.63809,-2.57194 74.71777,-2.31077 C 74.79745,-2.04959 74.90812,-1.83046 75.04978,-1.65339 C 75.19586,-1.48075 75.36629,-1.34795 75.56107,-1.25499 C 75.76027,-1.16645 75.97718,-1.12218 76.21181,-1.12218 C 76.44642,-1.12218 76.66112,-1.16645 76.8559,-1.25499 C 77.05067,-1.34795 77.21889,-1.48075 77.36055,-1.65339 C 77.5022,-1.83046 77.61287,-2.04959 77.69256,-2.31077 C 77.77224,-2.57194 77.81207,-2.87296 77.81208,-3.21383 M 79.43891,-3.21383 C 79.43891,-2.70917 79.36365,-2.24879 79.21315,-1.83268 C 79.06263,-1.41656 78.84572,-1.06021 78.56241,-0.76362 C 78.28352,-0.46702 77.94488,-0.23683 77.54647,-0.07304 C 77.14806,0.08632 76.70317,0.166 76.2118100000001,0.166 C 75.70715,0.166 75.25341,0.08632 74.85058,-0.07304 C 74.45217,-0.23683 74.11352,-0.46702 73.83464,-0.76362 C 73.55575,-1.06021 73.34105,-1.41656 73.19054,-1.83268 C 73.04446,-2.24879 72.97142,-2.70917 72.97142,-3.21383 C 72.97142,-3.71847 73.04667,-4.17886 73.19718,-4.59497 C 73.34769,-5.01108 73.56239,-5.36744 73.84128,-5.66404 C 74.12459,-5.96062 74.46545,-6.1886 74.86386,-6.34797 C 75.26226,-6.51175 75.70715,-6.59365 76.19853,-6.59366 C 76.70317,-6.59365 77.1547,-6.51175 77.55311,-6.34797 C 77.95594,-6.1886 78.2968,-5.96062 78.5757,-5.66404 C 78.85457,-5.36744 79.06706,-5.01108 79.21315,-4.59497 C 79.36365,-4.17886 79.43891,-3.71847 79.43891,-3.21383" style="font-size:13.59899998px;font-variant:normal;font-weight:bold;writing-mode:lr-tb;fill:#0994dc;fill-opacity:1;fill-rule:nonzero;stroke:none;font-family:Corbel;-inkscape-font-specification:Corbel-Bold" id="path3046" inkscape:connector-curvature="0"/>
					<path d="M 88.6622,-3.91768 C 88.66219,-4.05491 88.6578,-4.18328 88.64892,-4.30281 C 88.64002,-4.42233 88.62456,-4.52636 88.60244,-4.61489 C 88.55374,-4.80967 88.45856,-4.96682 88.31691,-5.08634 C 88.17525,-5.20586 87.97605,-5.26784 87.7193,-5.27227 C 87.58207,-5.27226 87.44041,-5.25234 87.29433,-5.21251 C 87.14824,-5.17266 87.00216,-5.11511 86.85608,-5.03986 C 86.71442,-4.96903 86.57719,-4.8805 86.4444,-4.77426 C 86.31601,-4.67244 86.19871,-4.55734 86.09247,-4.42897 L 86.09247,-2.0e-07 L 84.51876,-2.0e-07 L 84.51876,-3.91768 C 84.51875,-4.05491 84.51436,-4.18328 84.50548,-4.30281 C 84.49658,-4.42233 84.48113,-4.52636 84.459,-4.614891999999985 C 84.4103,-4.80967 84.31512,-4.96682 84.17347,-5.08634 C 84.03624,-5.205861999999986 83.83703,-5.26784 83.57586,-5.27227 C 83.43863,-5.27226 83.29697,-5.25234 83.15089,-5.21251 C 83.0048,-5.17266 82.85872,-5.11511 82.71264,-5.039861999999985 C 82.57098,-4.96903 82.43375,-4.8805 82.30095,-4.77426 C 82.17257,-4.67244 82.05526,-4.55734 81.94903,-4.42897 L 81.94903,-4.0e-07 L 80.37531,-4.0e-07 L 80.37531,-6.43429 L 81.67678,-6.43429 L 81.82286,-5.53787 L 81.84942,-5.53787 C 81.94238,-5.67067 82.05969,-5.80126 82.20135,-5.92964 C 82.343,-6.05801 82.50237,-6.17089 82.67944,-6.26829 C 82.86093,-6.36567 83.05792,-6.44314 83.27041,-6.50069 C 83.48732,-6.56266 83.7153,-6.59365 83.95435,-6.59366 C 84.37931,-6.59365 84.76001,-6.49847 85.09645,-6.30813 C 85.4373,-6.1222 85.69627,-5.83003 85.87335,-5.43163 L 85.89991,-5.43163 C 86.02385,-5.60427 86.16108,-5.76142 86.31159,-5.90308 C 86.46652,-6.04473 86.63695,-6.16647 86.82288,-6.26829 C 87.0088,-6.3701 87.208,-6.44978 87.4205,-6.50733 C 87.6374,-6.56488 87.86759,-6.59365 88.11107,-6.59366 C 88.57144,-6.58923 88.95657,-6.49183 89.26645,-6.30149 C 89.58074,-6.11556 89.822,-5.85881 89.99023,-5.53123 C 90.03449,-5.44712 90.07211,-5.35416 90.10311,-5.25235 C 90.13409,-5.15495 90.15843,-5.04429 90.17615,-4.92034 C 90.19827,-4.79639 90.21377,-4.65916 90.22263,-4.50865 C 90.23143,-4.35814 90.2359,-4.1855 90.23591,-3.99072 L 90.23591,-6.0e-07 L 88.6622,-6.0e-07 L 88.6622,-3.91768" style="font-size:13.59899998px;font-variant:normal;font-weight:bold;writing-mode:lr-tb;fill:#0994dc;fill-opacity:1;fill-rule:nonzero;stroke:none;font-family:Corbel;-inkscape-font-specification:Corbel-Bold" id="path3048" inkscape:connector-curvature="0"/>
				</g>
			</g>
			<path d="M 183.186,614.913 C 187.888,604.513 193.623,605.492 195.882,601.072 C 199.748,593.509 193.94,588.745 188.821,583.253 C 192.686,587.986 196.512,591.027 195.429,596.465 C 194.821,599.513 191.017,601.103 188.727,602.594 C 183.459,606.024 182.964,609.193 183.186,614.913" style="fill:#99def9;fill-opacity:1;fill-rule:evenodd;stroke:none" id="path3067" inkscape:connector-curvature="0"/>
			<path d="M 195.723,625.299 C 192.666,613.013 186.765,611.867 185.204,606.548 C 182.533,597.447 189.106,594.787 195.104,591.13 C 190.483,594.485 186.271,596.166 186.493,602.078 C 186.617,605.392 190.211,608.236 192.129,610.756 C 196.49,616.484 196.854,619.588 195.723,625.299" style="fill:#6e87cd;fill-opacity:1;fill-rule:evenodd;stroke:none" id="path3069" inkscape:connector-curvature="0"/>
		</g>
	</g>
</svg>