<?xml version="1.0" ?>
<svg xmlns="http://www.w3.org/2000/svg" viewBox="0 0 320 124.6">
    <g transform="translate(0 -97.7)">
        <path d="M183.24,180.315 C167.04,180.535 150.83,180.435 134.63,180.335 C126.73,180.285 118.84,179.935 110.94,179.705 C102.12,179.445 100.01,179.725 91.01,179.455 L82.35,216.665 C137.17,219.425 178.91,219.465 233.49,216.785 L224.98,179.535 C209.58,180.065 198.64,180.105 183.24,180.315 z M121.93,209.045 C120.01,210.345 117.49,210.895 114.37,210.695 C108.67,210.315 105.16,207.865 103.83,203.525 C106.05,203.285 108.27,203.035 110.49,202.765 C111.05,204.525 112.49,205.475 114.81,205.585 C116.61,205.675 117.52,205.265 117.52,204.365 C117.52,203.895 117.31,203.515 116.9,203.235 C116.48,202.955 115.74,202.695 114.67,202.445 C110.57,201.545 107.94,200.495 106.77,199.295 C105.61,198.095 105.02,196.735 105.02,195.185 C105.02,193.195 105.86,191.555 107.53,190.225 C109.2,188.905 111.61,188.225 114.75,188.225 C119.51,188.225 122.66,190.025 124.19,193.705 C122.21,194.255 120.22,194.795 118.24,195.325 C117.62,193.845 116.37,193.095 114.49,193.065 C112.92,193.045 112.14,193.485 112.14,194.375 C112.14,194.775 112.32,195.095 112.67,195.325 C113.02,195.555 113.71,195.785 114.73,196.005 C117.53,196.615 119.52,197.155 120.69,197.615 C121.87,198.075 122.85,198.835 123.64,199.905 C124.43,200.975 124.82,202.235 124.82,203.665 C124.81,205.935 123.85,207.735 121.93,209.045 z M146.22,193.915 C142.7,193.895 139.18,193.875 135.66,193.845 C135.66,194.945 135.66,196.045 135.66,197.145 C138.51,197.185 141.35,197.215 144.2,197.235 C144.2,198.935 144.2,200.645 144.2,202.345 C141.35,202.305 138.51,202.265 135.66,202.205 C135.66,203.445 135.66,204.685 135.66,205.925 C139.18,206.015 142.7,206.085 146.22,206.135 C146.22,207.975 146.22,209.805 146.22,211.645 C140.35,211.535 134.48,211.355 128.61,211.105 C128.62,203.595 128.62,196.085 128.63,188.585 C134.5,188.595 140.36,188.595 146.23,188.595 C146.22,190.365 146.22,192.145 146.22,193.915 z M150.11,211.705 C150.11,203.995 150.11,196.295 150.12,188.585 C155.99,188.585 161.85,188.585 167.72,188.585 C167.72,190.365 167.72,192.145 167.72,193.925 C164.2,193.935 160.68,193.935 157.16,193.935 C157.16,195.055 157.16,196.175 157.16,197.295 C160.01,197.295 162.85,197.295 165.7,197.285 C165.7,198.995 165.7,200.705 165.7,202.425 C162.85,202.445 160.01,202.445 157.16,202.435 C157.16,203.695 157.16,204.965 157.16,206.225 C160.68,206.235 164.2,206.225 167.72,206.195 C167.72,208.035 167.72,209.875 167.72,211.715 C161.85,211.785 155.98,211.785 150.11,211.705 z M189.29,207.985 C187.2,210.175 184.47,211.345 181.12,211.445 C177.95,211.545 174.79,211.615 171.62,211.665 C171.62,203.975 171.61,196.285 171.61,188.595 C174.63,188.595 177.64,188.595 180.66,188.595 C184.59,188.595 187.53,189.725 189.49,191.965 C191.45,194.195 192.42,196.765 192.43,199.695 C192.43,203.045 191.39,205.795 189.29,207.985 z M212.21,208.155 C210.29,209.615 207.78,210.485 204.66,210.685 C198.96,211.055 195.44,208.965 194.1,204.465 C196.32,204.005 198.54,203.545 200.76,203.085 C201.32,204.835 202.76,205.655 205.08,205.535 C206.88,205.445 207.79,204.955 207.79,204.065 C207.79,203.605 207.58,203.255 207.17,203.005 C206.75,202.765 206.01,202.565 204.93,202.415 C200.83,201.855 198.19,200.955 197.03,199.785 C195.86,198.615 195.28,197.205 195.28,195.565 C195.28,193.465 196.11,191.705 197.79,190.315 C199.46,188.915 201.87,188.235 205.01,188.235 C209.77,188.245 212.92,189.995 214.45,193.415 C212.47,193.995 210.49,194.585 208.5,195.175 C207.88,193.745 206.63,193.045 204.75,193.065 C203.18,193.085 202.4,193.555 202.4,194.465 C202.4,194.875 202.58,195.185 202.93,195.405 C203.28,195.625 203.97,195.825 204.99,196.005 C207.79,196.495 209.78,196.915 210.95,197.295 C212.13,197.675 213.11,198.355 213.9,199.315 C214.69,200.285 215.08,201.435 215.08,202.785 C215.09,204.905 214.13,206.695 212.21,208.155 z" fill="#65090A" />
        <path d="M180.67,193.785 C180.05,193.785 179.42,193.795 178.8,193.795 C178.8,197.945 178.8,202.085 178.81,206.235 C179.43,206.225 180.06,206.205 180.68,206.195 C181.87,206.165 182.87,205.575 183.69,204.435 C184.51,203.295 184.91,201.755 184.91,199.825 C184.91,198.175 184.55,196.745 183.82,195.555 C183.09,194.365 182.04,193.775 180.67,193.785 z" fill="#65090A" />
        <path d="M298.75,172.845 C263.78,173.525 233.67,174.115 207.91,174.625 C205.7,174.665 205.65,178.005 207.86,178.055 C208.37,178.065 208.89,178.025 209.44,177.945 C211.66,177.585 213.96,177.655 216.23,177.635 C221.69,177.595 221.57,177.625 227.25,177.625 C229.86,189.325 232.55,201.425 235.14,213.045 L301.53,211.375 L289.06,192.585 L298.75,172.845 z" fill="#65090A" />
        <path d="M20,211.295 L80.32,212.965 C82.96,201.175 85.65,189.135 88.43,176.705 C95.11,177.445 103.5,177.255 111.12,176.765 C112.69,176.665 112.64,174.325 111.06,174.305 C87.92,173.895 50.21,173.235 22.96,172.755 C23.08,173.115 32.53,192.565 32.53,192.565 L20,211.295 L20,211.295 z" fill="#65090A" />
        <path d="M120.69,197.625 C119.51,197.165 117.53,196.635 114.73,196.015 C113.71,195.795 113.03,195.565 112.67,195.335 C112.32,195.105 112.14,194.785 112.14,194.385 C112.14,193.485 112.92,193.055 114.49,193.075 C116.37,193.095 117.62,193.845 118.24,195.335 C120.22,194.805 122.21,194.265 124.19,193.715 C122.66,190.045 119.51,188.235 114.75,188.235 C111.61,188.235 109.2,188.915 107.53,190.235 C105.86,191.555 105.02,193.195 105.02,195.195 C105.02,196.745 105.6,198.105 106.77,199.305 C107.93,200.505 110.57,201.555 114.67,202.455 C115.74,202.705 116.49,202.965 116.9,203.245 C117.32,203.525 117.52,203.905 117.52,204.375 C117.52,205.275 116.62,205.685 114.81,205.595 C112.49,205.485 111.05,204.535 110.49,202.775 C108.27,203.045 106.05,203.295 103.83,203.535 C105.17,207.875 108.68,210.325 114.37,210.705 C117.49,210.905 120.01,210.355 121.93,209.055 C123.85,207.755 124.81,205.955 124.81,203.695 C124.81,202.265 124.42,201.005 123.63,199.935 C122.85,198.845 121.87,198.085 120.69,197.625 z" fill="#FFFFFF" />
        <path d="M128.6,211.105 C134.47,211.355 140.34,211.535 146.21,211.645 C146.21,209.805 146.21,207.975 146.21,206.135 C142.69,206.085 139.17,206.015 135.65,205.925 C135.65,204.685 135.65,203.445 135.65,202.205 C138.5,202.265 141.34,202.305 144.19,202.345 C144.19,200.645 144.19,198.935 144.19,197.235 C141.34,197.215 138.5,197.185 135.65,197.145 C135.65,196.045 135.65,194.945 135.65,193.845 C139.17,193.875 142.69,193.895 146.21,193.915 C146.21,192.145 146.21,190.365 146.21,188.595 C140.34,188.595 134.48,188.595 128.61,188.585 C128.61,196.095 128.61,203.605 128.6,211.105 z" fill="#FFFFFF" />
        <path d="M157.16,206.235 C157.16,204.975 157.16,203.715 157.16,202.445 C160.01,202.455 162.85,202.445 165.7,202.435 C165.7,200.725 165.7,199.015 165.7,197.295 C162.86,197.305 160.01,197.305 157.16,197.305 C157.16,196.185 157.16,195.065 157.16,193.945 C160.68,193.945 164.2,193.945 167.72,193.935 C167.72,192.155 167.72,190.375 167.72,188.595 C161.85,188.595 155.99,188.595 150.12,188.595 C150.12,196.305 150.12,204.005 150.11,211.715 C155.98,211.795 161.85,211.795 167.73,211.725 C167.73,209.885 167.73,208.045 167.73,206.205 C164.2,206.225 160.68,206.245 157.16,206.235 z" fill="#FFFFFF" />
        <path d="M180.67,188.595 C177.65,188.595 174.64,188.595 171.62,188.595 C171.62,196.285 171.62,203.975 171.63,211.665 C174.8,211.615 177.96,211.535 181.13,211.445 C184.48,211.345 187.2,210.175 189.3,207.985 C191.39,205.795 192.44,203.045 192.44,199.695 C192.44,196.755 191.46,194.195 189.5,191.965 C187.54,189.725 184.6,188.595 180.67,188.595 z M183.69,204.435 C182.87,205.575 181.87,206.165 180.68,206.195 C180.06,206.205 179.43,206.225 178.81,206.235 C178.81,202.085 178.81,197.945 178.8,193.795 C179.42,193.795 180.05,193.785 180.67,193.785 C182.04,193.775 183.09,194.365 183.82,195.565 C184.55,196.755 184.91,198.175 184.91,199.835 C184.91,201.765 184.5,203.295 183.69,204.435 z" fill="#FFFFFF" />
        <path d="M210.96,197.295 C209.78,196.915 207.8,196.495 205,196.005 C203.98,195.825 203.3,195.625 202.94,195.405 C202.59,195.185 202.41,194.875 202.41,194.465 C202.41,193.555 203.19,193.095 204.76,193.065 C206.64,193.035 207.9,193.745 208.51,195.175 C210.49,194.585 212.47,193.995 214.46,193.415 C212.93,189.995 209.78,188.245 205.02,188.235 C201.88,188.235 199.47,188.915 197.8,190.315 C196.13,191.705 195.29,193.465 195.29,195.565 C195.29,197.205 195.87,198.615 197.04,199.785 C198.2,200.955 200.84,201.855 204.94,202.415 C206.01,202.575 206.76,202.775 207.18,203.005 C207.6,203.245 207.8,203.595 207.8,204.065 C207.8,204.945 206.9,205.445 205.09,205.535 C202.77,205.655 201.33,204.835 200.77,203.085 C198.55,203.545 196.33,204.005 194.11,204.465 C195.45,208.965 198.97,211.055 204.67,210.685 C207.79,210.485 210.3,209.625 212.22,208.155 C214.14,206.685 215.1,204.905 215.1,202.775 C215.1,201.425 214.71,200.275 213.92,199.305 C213.12,198.345 212.14,197.675 210.96,197.295 z" fill="#FFFFFF" />
        <path d="M38.17,114.315 C33.35,115.675 28.55,117.125 23.78,118.655 C23.78,135.835 23.78,153.005 23.78,170.175 C28.68,170.155 33.58,170.195 38.47,170.175 C38.43,162.935 38.39,155.635 38.35,148.405 C42.35,147.955 46.35,147.535 50.36,147.135 C50.42,154.775 50.48,162.535 50.54,170.175 C55.44,170.155 60.34,170.195 65.24,170.175 C65.04,149.405 64.85,128.475 64.65,107.705 C59.78,108.765 54.92,109.905 50.07,111.125 C50.13,118.355 50.19,125.575 50.24,132.795 C46.24,133.435 42.25,134.115 38.27,134.825 C38.24,127.995 38.2,121.155 38.17,114.315 z" fill="#0F133B" />
        <path d="M100.13,156.465 C101.14,160.925 102.15,165.665 103.16,170.175 C108.54,170.165 113.92,170.185 119.3,170.175 C113.77,146.715 108.18,123.455 102.58,101.275 C96.97,101.995 91.38,102.825 85.79,103.755 C80.69,126.715 75.61,149.065 70.51,170.175 C74.79,170.165 79.07,170.185 83.35,170.175 C84.34,165.855 85.33,161.285 86.32,156.905 C90.92,156.735 95.53,156.595 100.13,156.465 z M92.87,122.465 C94.32,128.825 95.77,135.245 97.22,141.725 C94.44,141.895 91.65,142.075 88.87,142.265 C90.2,135.725 91.54,129.125 92.87,122.465 z" fill="#0F133B" />
        <path d="M167.41,130.005 C168.63,126.835 169.25,123.175 169.25,119.015 C169.26,112.645 167.61,107.475 164.29,103.545 C160.97,99.615 156.3,97.645 150.29,97.765 C141.59,97.945 132.89,98.375 124.2,99.065 C124.33,122.665 124.46,146.565 124.59,170.165 C129.49,170.155 134.39,170.165 139.29,170.165 C139.26,161.025 139.23,151.565 139.2,142.425 C140.87,142.395 142.54,142.365 144.21,142.345 C146.75,151.475 149.29,160.965 151.81,170.165 C157.66,170.165 163.5,170.165 169.35,170.165 C166.26,159.695 163.15,148.875 160.03,138.385 C163.73,135.965 166.19,133.175 167.41,130.005 z M150.8,125.125 C149.59,126.305 147.98,126.905 145.97,126.945 C143.7,126.985 141.43,127.035 139.17,127.105 C139.15,122.535 139.14,117.965 139.12,113.395 C141.57,113.305 144.02,113.235 146.47,113.175 C150.56,113.085 152.61,115.375 152.61,119.985 C152.62,122.235 152.01,123.945 150.8,125.125 z" fill="#0F133B" />
        <path d="M219.91,132.325 C221.15,129.415 221.78,126.025 221.82,122.115 C221.87,116.135 220.27,111.115 217,107.015 C213.73,102.925 209.1,100.465 203.11,99.865 C194.44,98.995 185.75,98.395 177.05,98.045 C176.98,121.985 176.91,146.235 176.84,170.175 C181.74,170.175 186.64,170.165 191.54,170.175 C191.59,161.125 191.63,151.775 191.68,142.725 C193.35,142.775 195.02,142.825 196.69,142.885 C199.16,151.965 201.61,161.255 204.06,170.175 C209.91,170.185 215.75,170.165 221.6,170.175 C218.58,160.325 215.55,150.035 212.51,139.845 C216.2,137.725 218.67,135.235 219.91,132.325 z M203.38,126.465 C202.16,127.515 200.55,127.985 198.55,127.875 C196.29,127.755 194.02,127.645 191.75,127.535 C191.77,123.015 191.8,118.485 191.82,113.965 C194.27,114.105 196.72,114.265 199.16,114.445 C203.24,114.745 205.26,117.165 205.23,121.615 C205.22,123.805 204.61,125.415 203.38,126.465 z" fill="#0F133B" />
        <path d="M244.32,170.175 C244.53,148.835 244.73,127.305 244.94,105.965 C240.05,105.005 235.15,104.125 230.24,103.335 C230.03,125.535 229.83,147.965 229.62,170.175 C234.52,170.185 239.42,170.155 244.32,170.175 z" fill="#0F133B" />
        <path d="M272.82,157.385 C267.73,157.095 264.58,154.525 263.4,149.575 C258.51,150.195 253.62,150.895 248.72,151.675 C251.54,164.785 259.23,171.045 271.79,170.965 C278.66,170.955 284.22,169.165 288.45,165.935 C292.68,162.685 294.78,158.645 294.78,153.445 C294.78,150.145 293.92,147.185 292.21,144.445 C290.5,141.715 288.37,139.565 285.81,138.055 C283.25,136.555 278.93,134.535 272.83,132.005 C270.61,131.085 269.12,130.255 268.35,129.515 C267.58,128.775 267.2,127.855 267.21,126.755 C267.23,124.295 268.95,123.395 272.36,124.115 C276.47,124.985 279.17,127.495 280.5,131.475 C284.82,130.895 289.13,130.455 293.41,130.165 C290.1,120.925 283.36,114.245 273.01,111.405 C266.18,109.565 260.91,110.175 257.21,113.275 C253.51,116.365 251.62,121.015 251.57,126.925 C251.53,131.525 252.77,135.705 255.29,139.345 C257.81,142.995 263.58,146.245 272.55,149.065 C274.9,149.835 276.53,150.595 277.44,151.355 C278.35,152.115 278.8,153.095 278.79,154.305 C278.77,156.595 276.78,157.625 272.82,157.385 z" fill="#0F133B" />
        <g name="tm">
            <path d="M292.09,135.115 L290.85,135.115 L290.85,134.245 L294.37,134.245 L294.37,135.115 L293.12,135.115 L293.12,138.825 L292.09,138.825 L292.09,135.115 z" fill="#0F133B" />
            <path d="M298.76,137.065 C298.74,136.515 298.72,135.855 298.72,135.185 L298.71,135.185 C298.56,135.765 298.37,136.425 298.19,136.955 L297.63,138.745 L296.82,138.745 L296.33,136.975 C296.18,136.435 296.03,135.775 295.92,135.185 L295.91,135.185 C295.89,135.805 295.86,136.505 295.83,137.075 L295.74,138.815 L294.78,138.815 L295.07,134.235 L296.45,134.235 L296.9,135.765 C297.05,136.295 297.19,136.865 297.29,137.405 L297.32,137.405 C297.44,136.875 297.6,136.275 297.75,135.765 L298.23,134.245 L299.59,134.245 L299.83,138.825 L298.83,138.825 L298.76,137.065 z" fill="#0F133B" />
        </g>
        <g>
            <g name="est">
                <path d="M38.85,200.055 L38.85,184.115 L49.77,184.115 L49.77,186.575 L41.65,186.575 L41.65,190.705 L49.61,190.705 L49.61,193.165 L41.65,193.165 L41.65,197.585 L49.77,197.585 L49.77,200.045 L38.85,200.045 z" fill="#FFFFFF" />
                <path d="M51.6,197.805 L53.15,195.655 C54.25,196.825 55.97,197.855 58.19,197.855 C60.48,197.855 61.39,196.735 61.39,195.685 C61.39,192.345 52.09,194.415 52.09,188.545 C52.09,185.915 54.41,183.885 57.9,183.885 C60.38,183.885 62.39,184.675 63.87,186.105 L62.27,188.185 C61.03,186.945 59.33,186.365 57.66,186.365 C56.01,186.365 54.96,187.155 54.96,188.345 C54.96,191.305 64.23,189.465 64.23,195.415 C64.23,198.065 62.37,200.335 58.06,200.335 C55.14,200.345 53.01,199.315 51.6,197.805 z" fill="#FFFFFF" />
                <path d="M70.38,200.055 L70.38,186.575 L65.55,186.575 L65.55,184.115 L78,184.115 L78,186.575 L73.17,186.575 L73.17,200.055 L70.38,200.055 z" fill="#FFFFFF" />
            </g>
            <path d="M239.95,200.055 L239.95,187.745 L237.35,190.445 L235.73,188.745 L240.32,184.105 L242.76,184.105 L242.76,200.045 L239.95,200.045 z" fill="#FFFFFF" />
            <path d="M245.45,195.965 C245.45,193.935 247.1,192.475 249.04,191.835 C247.25,191.265 245.72,190.095 245.72,188.055 C245.72,185.115 248.73,183.875 251.57,183.875 C254.37,183.875 257.42,185.115 257.42,188.055 C257.42,190.085 255.87,191.255 254.07,191.835 C256.01,192.475 257.65,193.935 257.65,195.965 C257.65,198.805 254.81,200.335 251.56,200.335 C248.29,200.345 245.45,198.835 245.45,195.965 z M254.84,195.615 C254.84,193.965 252.55,193.225 251.57,193.105 C250.57,193.225 248.27,193.965 248.27,195.615 C248.27,197.005 249.75,197.865 251.57,197.865 C253.33,197.855 254.84,196.995 254.84,195.615 z M254.57,188.485 C254.57,187.145 253.26,186.355 251.56,186.355 C249.82,186.355 248.53,187.145 248.53,188.485 C248.53,189.995 250.58,190.565 251.56,190.735 C252.54,190.565 254.57,189.995 254.57,188.485 z" fill="#FFFFFF" />
            <path d="M260.55,200.055 L266.57,186.575 L258.3,186.575 L258.3,184.115 L269.79,184.115 L269.79,186.055 L263.6,200.055 L260.55,200.055 z" fill="#FFFFFF" />
            <path d="M271.13,198.545 L272.42,196.445 C273.26,197.305 274.19,197.835 275.69,197.835 C278.58,197.835 279.9,195.205 279.9,192.605 C279.9,192.435 279.9,192.295 279.9,192.125 C279.16,193.205 277.49,194.375 275.62,194.375 C272.75,194.375 270.27,192.605 270.27,189.215 C270.27,186.275 272.59,183.865 276.15,183.865 C280.83,183.865 282.72,187.665 282.72,192.105 C282.72,196.695 280.31,200.325 275.69,200.325 C273.74,200.315 272.21,199.625 271.13,198.545 z M279.86,190.095 C279.72,188.375 278.76,186.345 276.3,186.345 C274.22,186.345 273.12,187.845 273.12,189.115 C273.12,191.075 274.65,191.955 276.37,191.955 C277.73,191.955 279.07,191.235 279.86,190.095 z" fill="#FFFFFF" />
        </g>
    </g>
</svg>