<?xml version="1.0" ?>
<svg xmlns="http://www.w3.org/2000/svg" viewBox="0 0 600 424">
	<g fill="none" stroke-width="2">
		<path stroke="#8e5176" d="M 360.99,27.98 Q 358.08,30.95 353.18,28.77 A 0.11,0.11 0.0 0,0 353.06,28.94 L 353.31,29.18 Q 353.54,29.41 353.32,29.66 Q 351.75,31.39 351.35,32.09 Q 337.44,56.81 323.22,80.74 A 0.85,0.85 0.0 0,0 324.44,81.88 Q 328.05,79.38 329.59,82.07" vector-effect="non-scaling-stroke"/>
		<path stroke="#7c4974" d="M 428.85,73.38 Q 428.65,74.05 428.84,74.86 Q 429.05,75.77 428.37,75.13 L 426.14,73.03 A 0.68,0.67 36.2 0,0 425.09,73.19 Q 410.17,99.66 395.03,125.23 C 394.24,126.56 394.43,128.01 393.21,129.24 Q 392.87,129.58 392.87,130.06 L 392.82,132.74 Q 392.82,133.1 392.62,132.8 Q 392.5,132.62 392.42,132.46 Q 392.34,132.31 392.21,132.42 Q 392.09,132.5 391.97,132.57" vector-effect="non-scaling-stroke"/>
		<path stroke="#674470" d="M 445.77,114.72 Q 444.29,115.29 444.19,114.18 Q 444.05,112.73 443.77,111.21 Q 443.67,110.69 443.25,110.39 Q 442.58,109.9 442.76,109.02 A 1.06,1.03 -52.9 0,0 442.68,108.39 L 442.34,107.68 Q 442.0,106.97 442.0,107.75 L 442.0,108.33 Q 442.0,108.82 441.77,109.26 Q 439.98,112.7 438.04,116.05 Q 418.91,149.13 399.8,182.22 C 396.34,188.21 393.69,192.21 393.5,197.25 Q 393.19,205.22 392.74,213.19 Q 392.72,213.6 392.53,213.29 Q 392.47,213.18 392.46,213.0 Q 392.3,199.75 392.06,186.49 M 205.74,90.47 Q 204.94,91.73 205.26,93.64 Q 205.27,93.69 205.22,93.69 L 205.15,93.69 Q 205.0,93.68 205.0,93.5 L 205.0,91.74 A 0.2,0.2 0.0 0,0 204.61,91.71 L 203.79,97.01 Q 203.72,97.49 203.29,97.74 Q 179.87,111.36 156.38,124.88 C 154.01,126.25 152.3,126.78 152.77,130.12 Q 152.77,130.16 152.74,130.17 L 152.5,130.25 A 0.21,0.2 -9.4 0,1 152.23,130.06 Q 151.89,112.23 151.99,94.4 C 152.02,87.82 150.82,80.13 151.0,72.87 Q 151.0,72.81 150.94,72.81 L 150.87,72.81 Q 150.74,72.81 150.74,72.95 L 150.29,97.76" vector-effect="non-scaling-stroke"/>
		<path stroke="#7c4974" d="M 205.74,139.55 Q 205.13,139.58 205.42,137.75 A 0.4,0.4 0.0 0,0 204.66,137.52 L 204.44,137.98 Q 204.34,138.19 204.23,137.99 Q 203.84,137.24 204.04,136.36 A 0.17,0.17 0.0 0,0 203.76,136.2 L 203.49,136.46 Q 203.22,136.74 203.0,136.42 Q 202.31,135.44 200.96,136.22 Q 166.02,156.39 155.21,162.48 Q 154.04,163.14 153.38,164.02 Q 153.07,164.43 153.1,164.93 Q 153.18,166.44 152.63,167.81 Q 152.3,168.63 152.26,167.75 L 151.43,147.74 A 0.37,0.37 0.0 0,0 150.7,147.75 L 150.33,171.26" vector-effect="non-scaling-stroke"/>
		<path stroke="#8e5176" d="M 180.88,244.53 Q 180.93,244.35 180.99,244.23 Q 181.18,243.88 181.45,244.17 L 184.35,247.28 Q 184.7,247.65 184.92,247.2 Q 185.1,246.85 184.8,246.69 A 0.35,0.34 -22.1 0,1 185.07,246.06 Q 186.01,246.34 186.33,245.43 Q 186.53,244.87 187.04,244.58 L 231.66,218.87 A 0.9,0.9 0.0 0,0 231.59,217.27 Q 226.94,215.14 226.3,211.67 M 366.88,125.99 Q 365.0,133.06 365.74,141.0 Q 365.99,143.63 365.0,146.61 Q 364.92,146.87 364.69,146.73 L 364.25,146.47 Q 363.94,146.28 363.63,146.46 L 315.48,174.13 A 0.87,0.85 -57.0 0,1 314.99,174.24 Q 314.19,174.17 313.83,174.84 Q 313.54,175.39 313.35,174.8 C 312.06,170.88 312.54,167.19 312.47,163.13 Q 312.47,163.06 312.42,163.06 L 312.35,163.06 A 0.12,0.09 -86.6 0,0 312.26,163.17 L 311.77,173.5" vector-effect="non-scaling-stroke"/>
	</g>
	<path fill="#955476" d="M 360.99,27.98 Q 358.08,30.95 353.18,28.77 A 0.11,0.11 0.0 0,0 353.06,28.94 L 353.31,29.18 Q 353.54,29.41 353.32,29.66 Q 351.75,31.39 351.35,32.09 Q 337.44,56.81 323.22,80.74 A 0.85,0.85 0.0 0,0 324.44,81.88 Q 328.05,79.38 329.59,82.07 C 308.67,86.22 292.21,101.63 287.38,122.29 Q 286.03,128.08 286.04,140.45 Q 286.05,156.06 285.87,171.66 Q 285.77,179.12 284.35,183.14 C 275.35,208.45 239.61,207.08 231.74,181.74 Q 230.46,177.62 230.48,170.64 C 230.52,154.59 229.4,136.59 231.44,121.56 C 239.95,58.97 298.03,15.43 360.99,27.98 L 360.99,27.98"/>
	<path fill="#874d76" d="M 360.99,27.98 Q 403.57,37.37 428.85,73.38 Q 428.65,74.05 428.84,74.86 Q 429.05,75.77 428.37,75.13 L 426.14,73.03 A 0.68,0.67 36.2 0,0 425.09,73.19 Q 410.17,99.66 395.03,125.23 C 394.24,126.56 394.43,128.01 393.21,129.24 Q 392.87,129.58 392.87,130.06 L 392.82,132.74 Q 392.82,133.1 392.62,132.8 Q 392.5,132.62 392.42,132.46 Q 392.34,132.31 392.21,132.42 Q 392.09,132.5 391.97,132.57 C 389.62,99.89 362.34,77.08 329.59,82.07 Q 328.05,79.38 324.44,81.88 A 0.85,0.85 0.0 0,1 323.22,80.74 Q 337.44,56.81 351.35,32.09 Q 351.75,31.39 353.32,29.66 Q 353.54,29.41 353.31,29.18 L 353.06,28.94 A 0.11,0.11 0.0 0,1 353.18,28.77 Q 358.08,30.95 360.99,27.98 L 360.99,27.98"/>
	<path fill="#5e426e" d="M 205.74,90.47 Q 204.94,91.73 205.26,93.64 Q 205.27,93.69 205.22,93.69 L 205.15,93.69 Q 205.0,93.68 205.0,93.5 L 205.0,91.74 A 0.2,0.2 0.0 0,0 204.61,91.71 L 203.79,97.01 Q 203.72,97.49 203.29,97.74 Q 179.87,111.36 156.38,124.88 C 154.01,126.25 152.3,126.78 152.77,130.12 Q 152.77,130.16 152.74,130.17 L 152.5,130.25 A 0.21,0.2 -9.4 0,1 152.23,130.06 Q 151.89,112.23 151.99,94.4 C 152.02,87.82 150.82,80.13 151.0,72.87 Q 151.0,72.81 150.94,72.81 L 150.87,72.81 Q 150.74,72.81 150.74,72.95 L 150.29,97.76 L 150.26,31.62 Q 150.26,30.89 150.99,30.83 C 177.6,28.91 200.09,47.19 205.07,73.3 C 206.09,78.63 205.76,84.79 205.74,90.47 L 205.74,90.47"/>
	<path fill="#704572" d="M 205.74,90.47 L 205.74,139.55 Q 205.13,139.58 205.42,137.75 A 0.4,0.4 0.0 0,0 204.66,137.52 L 204.44,137.98 Q 204.34,138.19 204.23,137.99 Q 203.84,137.24 204.04,136.36 A 0.17,0.17 0.0 0,0 203.76,136.2 L 203.49,136.46 Q 203.22,136.74 203.0,136.42 Q 202.31,135.44 200.96,136.22 Q 166.02,156.39 155.21,162.48 Q 154.04,163.14 153.38,164.02 Q 153.07,164.43 153.1,164.93 Q 153.18,166.44 152.63,167.81 Q 152.3,168.63 152.26,167.75 L 151.43,147.74 A 0.37,0.37 0.0 0,0 150.7,147.75 L 150.33,171.26 L 150.29,97.76 L 150.74,72.95 Q 150.74,72.81 150.87,72.81 L 150.94,72.81 Q 151.0,72.81 151.0,72.87 C 150.82,80.13 152.02,87.82 151.99,94.4 Q 151.89,112.23 152.23,130.06 A 0.21,0.2 -9.4 0,0 152.5,130.25 L 152.74,130.17 Q 152.77,130.16 152.77,130.12 C 152.3,126.78 154.01,126.25 156.38,124.88 Q 179.87,111.36 203.29,97.74 Q 203.72,97.49 203.79,97.01 L 204.61,91.71 A 0.2,0.2 0.0 0,1 205.0,91.74 L 205.0,93.5 Q 205.0,93.68 205.15,93.69 L 205.22,93.69 Q 205.27,93.69 205.26,93.64 Q 204.94,91.73 205.74,90.47 L 205.74,90.47 M 428.85,73.38 Q 441.64,92.29 445.77,114.72 Q 444.29,115.29 444.19,114.18 Q 444.05,112.73 443.77,111.21 Q 443.67,110.69 443.25,110.39 Q 442.58,109.9 442.76,109.02 A 1.06,1.03 -52.9 0,0 442.68,108.39 L 442.34,107.68 Q 442.0,106.97 442.0,107.75 L 442.0,108.33 Q 442.0,108.82 441.77,109.26 Q 439.98,112.7 438.04,116.05 Q 418.91,149.13 399.8,182.22 C 396.34,188.21 393.69,192.21 393.5,197.25 Q 393.19,205.22 392.74,213.19 Q 392.72,213.6 392.53,213.29 Q 392.47,213.18 392.46,213.0 Q 392.3,199.75 392.06,186.49 L 391.97,132.57 Q 392.09,132.5 392.21,132.42 Q 392.34,132.31 392.42,132.46 Q 392.5,132.62 392.62,132.8 Q 392.82,133.1 392.82,132.74 L 392.87,130.06 Q 392.87,129.58 393.21,129.24 C 394.43,128.01 394.24,126.56 395.03,125.23 Q 410.17,99.66 425.09,73.19 A 0.68,0.67 36.2 0,1 426.14,73.03 L 428.37,75.13 Q 429.05,75.77 428.84,74.86 Q 428.65,74.05 428.85,73.38 L 428.85,73.38"/>
	<path fill="#874d76" d="M 366.88,125.99 Q 365.0,133.06 365.74,141.0 Q 365.99,143.63 365.0,146.61 Q 364.92,146.87 364.69,146.73 L 364.25,146.47 Q 363.94,146.28 363.63,146.46 L 315.48,174.13 A 0.87,0.85 -57.0 0,1 314.99,174.24 Q 314.19,174.17 313.83,174.84 Q 313.54,175.39 313.35,174.8 C 312.06,170.88 312.54,167.19 312.47,163.13 Q 312.47,163.06 312.42,163.06 L 312.35,163.06 A 0.12,0.09 -86.6 0,0 312.26,163.17 L 311.77,173.5 Q 311.74,157.6 311.75,141.76 Q 311.75,126.96 313.24,121.9 C 318.37,104.53 339.63,96.94 355.27,107.46 Q 365.17,114.13 366.88,125.99 L 366.88,125.99"/>
	<path fill="#5e426e" d="M 445.77,114.72 Q 447.47,124.78 447.47,128.82 Q 447.54,200.98 447.49,273.22 Q 447.49,273.7 447.01,273.72 C 421.89,274.83 399.35,259.56 393.47,234.81 Q 392.05,228.88 392.0,214.93 Q 391.95,200.72 392.06,186.49 Q 392.3,199.75 392.46,213.0 Q 392.47,213.18 392.53,213.29 Q 392.72,213.6 392.74,213.19 Q 393.19,205.22 393.5,197.25 C 393.69,192.21 396.34,188.21 399.8,182.22 Q 418.91,149.13 438.04,116.05 Q 439.98,112.7 441.77,109.26 Q 442.0,108.82 442.0,108.33 L 442.0,107.75 Q 442.0,106.97 442.34,107.68 L 442.68,108.39 A 1.06,1.03 -52.9 0,1 442.76,109.02 Q 442.58,109.9 443.25,110.39 Q 443.67,110.69 443.77,111.21 Q 444.05,112.73 444.19,114.18 Q 444.29,115.29 445.77,114.72 L 445.77,114.72"/>
	<path fill="#955476" d="M 366.88,125.99 C 367.93,135.33 367.26,146.9 367.34,153.41 C 367.47,163.74 367.8,174.84 366.4,184.5 C 353.44,274.18 244.47,310.32 180.88,244.53 Q 180.93,244.35 180.99,244.23 Q 181.18,243.88 181.45,244.17 L 184.35,247.28 Q 184.7,247.65 184.92,247.2 Q 185.1,246.85 184.8,246.69 A 0.35,0.34 -22.1 0,1 185.07,246.06 Q 186.01,246.34 186.33,245.43 Q 186.53,244.87 187.04,244.58 L 231.66,218.87 A 0.9,0.9 0.0 0,0 231.59,217.27 Q 226.94,215.14 226.3,211.67 C 261.09,237.67 306.96,215.72 311.77,173.5 L 312.26,163.17 A 0.12,0.09 -86.6 0,1 312.35,163.06 L 312.42,163.06 Q 312.47,163.06 312.47,163.13 C 312.54,167.19 312.06,170.88 313.35,174.8 Q 313.54,175.39 313.83,174.84 Q 314.19,174.17 314.99,174.24 A 0.87,0.85 -57.0 0,0 315.48,174.13 L 363.63,146.46 Q 363.94,146.28 364.25,146.47 L 364.69,146.73 Q 364.92,146.87 365.0,146.61 Q 365.99,143.63 365.74,141.0 Q 365.0,133.06 366.88,125.99 L 366.88,125.99"/>
	<path fill="#874d76" d="M 205.74,139.55 Q 205.76,153.96 205.88,168.5 Q 206.1,195.22 226.3,211.67 Q 226.94,215.14 231.59,217.27 A 0.9,0.9 0.0 0,1 231.66,218.87 L 187.04,244.58 Q 186.53,244.87 186.33,245.43 Q 186.01,246.34 185.07,246.06 A 0.35,0.34 -22.1 0,0 184.8,246.69 Q 185.1,246.85 184.92,247.2 Q 184.7,247.65 184.35,247.28 L 181.45,244.17 Q 181.18,243.88 180.99,244.23 Q 180.93,244.35 180.88,244.53 Q 152.13,213.77 150.33,171.26 L 150.7,147.75 A 0.37,0.37 0.0 0,1 151.43,147.74 L 152.26,167.75 Q 152.3,168.63 152.63,167.81 Q 153.18,166.44 153.1,164.93 Q 153.07,164.43 153.38,164.02 Q 154.04,163.14 155.21,162.48 Q 166.02,156.39 200.96,136.22 Q 202.31,135.44 203.0,136.42 Q 203.22,136.74 203.49,136.46 L 203.76,136.2 A 0.17,0.17 0.0 0,1 204.04,136.36 Q 203.84,137.24 204.23,137.99 Q 204.34,138.19 204.44,137.98 L 204.66,137.52 A 0.4,0.4 0.0 0,1 205.42,137.75 Q 205.13,139.58 205.74,139.55 L 205.74,139.55"/>
	<path fill="#343333" d="M 187.68,325.09 C 173.72,324.31 162.3,333.25 157.08,345.79 Q 155.98,348.42 155.99,351.9 Q 156.02,374.44 155.99,396.71 A 0.66,0.65 -89.2 0,1 155.32,397.37 L 148.84,397.19 A 0.6,0.6 0.0 0,1 148.25,396.59 L 148.25,288.25 Q 148.25,287.75 148.75,287.75 L 155.37,287.75 A 0.63,0.63 0.0 0,1 156.0,288.38 L 155.82,336.99 A 0.25,0.25 0.0 0,0 156.29,337.11 Q 162.53,326.09 173.89,320.99 C 187.91,314.7 203.22,317.62 209.1,333.02 Q 212.04,340.73 212.13,349.2 Q 212.39,373.04 212.2,396.91 Q 212.19,397.3 211.8,397.3 L 205.19,397.3 Q 204.78,397.3 204.78,396.89 Q 204.7,377.42 204.75,358.0 C 204.78,346.15 203.84,325.99 187.68,325.09 L 187.68,325.09 M 286.16,385.38 A 0.44,0.44 0.0 0,0 285.38,385.04 C 277.27,395.07 263.68,399.8 251.25,398.71 C 240.54,397.77 230.0,389.51 228.59,378.24 C 226.61,362.31 240.23,353.7 254.02,352.15 Q 269.69,350.37 284.55,355.56 Q 285.06,355.74 285.07,355.19 C 285.09,344.0 285.09,332.97 274.2,327.03 C 262.24,320.5 247.87,325.59 237.53,332.8 A 0.94,0.93 -31.9 0,1 236.18,332.49 L 234.12,328.8 A 0.76,0.76 0.0 0,1 234.36,327.79 C 243.36,321.77 253.33,317.67 264.27,318.04 C 280.97,318.61 292.27,329.71 292.61,346.95 Q 292.92,362.17 292.72,386.94 C 292.7,388.95 293.34,390.27 295.36,390.53 Q 296.0,390.61 296.0,391.25 L 296.0,396.74 Q 296.0,397.3 295.45,397.41 C 287.02,399.16 285.29,391.84 286.16,385.38 L 286.16,385.38 M 284.56,360.8 Q 270.89,355.94 256.94,357.2 C 246.97,358.09 235.51,363.04 235.62,374.72 C 235.88,402.36 283.68,394.53 285.01,374.44 Q 285.44,367.91 285.19,361.66 Q 285.17,361.02 284.56,360.8 M 442.01,385.26 A 0.33,0.33 0.0 0,0 441.43,385.02 C 430.71,397.26 408.85,404.2 394.74,394.28 C 384.47,387.05 380.45,373.23 388.46,362.68 C 399.17,348.57 424.99,350.11 439.91,355.46 Q 440.99,355.85 441.01,354.7 C 441.1,349.84 441.16,344.27 439.94,339.89 C 437.05,329.56 428.49,324.08 418.05,324.02 C 409.14,323.96 400.45,327.98 393.08,332.94 Q 392.54,333.31 392.22,332.74 L 389.97,328.77 Q 389.7,328.29 390.15,327.96 C 400.23,320.68 413.11,316.28 425.39,318.58 C 435.99,320.57 444.03,327.26 447.09,337.57 Q 448.39,341.93 448.46,352.93 Q 448.58,369.96 448.52,387.0 Q 448.51,389.95 451.18,390.56 Q 451.75,390.69 451.75,391.27 L 451.75,396.73 Q 451.75,397.34 451.16,397.45 C 442.44,399.09 441.62,391.63 442.01,385.26 L 442.01,385.26 M 398.63,388.63 C 410.14,397.48 433.49,391.45 439.94,378.32 C 441.97,374.2 440.97,366.29 441.01,361.57 A 0.75,0.74 10.1 0,0 440.52,360.87 C 428.52,356.44 407.03,353.73 396.55,363.27 C 388.58,370.54 390.61,382.46 398.63,388.63 L 398.63,388.63 M 341.78,389.02 L 370.34,319.47 A 0.35,0.35 0.0 0,1 370.66,319.25 L 377.33,319.25 A 0.35,0.35 0.0 0,1 377.66,319.73 L 345.33,397.12 A 0.35,0.35 0.0 0,1 345.0,397.34 L 337.54,397.2 A 0.35,0.35 0.0 0,1 337.22,396.99 L 304.97,319.73 A 0.35,0.35 0.0 0,1 305.3,319.25 L 312.4,319.25 A 0.35,0.35 0.0 0,1 312.73,319.47 L 341.14,389.02 A 0.35,0.35 0.0 0,0 341.78,389.02 L 341.78,389.02"/>
</svg>