<svg xmlns="http://www.w3.org/2000/svg" viewBox="0 0 554 300"><g fill="none" fill-rule="evenodd"><path fill="#B7272B" d="M53.793 299.062c0-10.622.073-20.268-.048-30.356-.034-2.88-.29-5.845-1.029-8.615-2.66-9.982-11.913-16.207-21.736-14.888-11.459 1.54-19.234 10.271-19.223 21.657.01 9.235.08 18.467.12 27.7.007 1.381.003 2.762.003 4.502H0v-97.714h11.732v40.45c4.92-4.506 8.734-6.03 13.065-7.414 20.991-6.702 42.269 12.312 41.084 32.127v32.55H53.793m354.16-39.592c-1.058-8.29-12.665-17.504-24.484-14.844-9.38 2.109-15.426 9.087-15.284 14.844h39.768Zm10.417 16.213c-4.094 17.981-25.276 28.167-43.224 21.14-15.057-5.896-24.109-23.189-20.08-38.363 4.314-16.25 20.213-27.383 35.986-25.199 17.018 2.36 29.302 16.413 29.205 33.197v4.54h-54.231s.63 2.7 2.376 5.653c7.27 12.29 25.24 14.888 34.405 4.1 0 0 1.858-2.49 2.582-5.068h12.981Zm-286.287-8.524c-.064-12.954-8.684-22.158-20.61-22.008-11.677.149-21.165 9.43-21.06 20.636.09 9.579 7.687 21.79 22.156 21.156 8.92-.388 20.161-7.71 19.514-19.784Zm-.04 25.604c-3.712 1.602-7.081 3.436-10.676 4.54-13.286 4.077-25.12 1.09-34.242-9.246-9.447-10.708-11.675-23.376-5.44-36.468 5.695-11.957 15.996-18.991 31.347-18.584 17.036.452 29.678 13.9 31.265 30.902.067.726.086 1.46.086 2.188v32.968H132.04l.004-6.3Zm147.46-59.126h-11.741c0 11.03.031 21.86-.023 32.604-.055 10.837-7.742 19.968-17.575 21.005-12.84 1.355-22.127-4.942-24.398-16.808-.612-3.193-.643-6.525-.674-9.796-.086-8.945-.03-17.89-.03-27.005h-11.946c0 10.795-.113 21.392.033 31.987.138 9.898-7.171 22.412-23.288 21.816-10.434-.388-19.388-9.995-19.419-21.739-.023-9.362-.004-18.726-.004-28.088v-3.976h-11.9c0 12.466-.005 24.736.02 36.941.002.019.067 1.12.373 2.514.004.019 0 .025.004.042.015.068.036.137.048.206 4.177 21.006 30.07 34.897 51.298 20.977 3.331-2.184 6.235-5.019 9.59-7.762 2.603 2.397 4.818 4.858 7.434 6.77 9.29 6.785 19.231 8.502 30.427 4.674 10.658-3.644 20.693-15.08 21.167-26.24.45-10.61.421-21.242.588-31.864.034-2.09.017-4.264.017-6.258m40.858 29.214 28.863-29.863h-18.46l-25.779 25.274c.059-12.956.042-41.9.223-55.582l-14.105.002c.004 25.936.002 65.835.002 91.77v4.61h13.857v-20.238l5.84-6.028c6.616 6.437 20.246 19.867 26.9 26.267h18.374l-35.715-36.212"/><path fill="#B7272B" d="M200.918 128.754c-.196-.169-.43-.384-.678-.582-.87-.7-1.762-1.377-2.61-2.105-.485-.417-.955-.878-1.339-1.391-.88-1.17-.534-2.161.9-2.49.863-.199 1.766-.282 2.655-.314 1.49-.052 2.981.01 4.47-.037 1.016-.034 2.026-.17 3.038-.27.133-.012.263-.085.413-.273-.188-.073-.37-.167-.564-.215-1.612-.402-3.23-.78-4.84-1.199-1.322-.344-2.607-.803-3.806-1.475-.989-.55-1.857-1.243-2.533-2.157a4.824 4.824 0 0 1-.567-.957c-.37-.872-.102-1.502.776-1.857.359-.144.743-.225 1.204-.36-.165-.19-.28-.334-.407-.468-.807-.84-1.644-1.656-2.416-2.528-.354-.403-.634-.893-.863-1.383-.386-.826-.255-1.344.465-1.892.39-.299.824-.555 1.27-.768 1.554-.745 3.21-1.17 4.898-1.485.305-.059.61-.123 1.06-.213-.271-.217-.413-.338-.563-.446-1.302-.956-2.62-1.886-3.897-2.873a7.14 7.14 0 0 1-1.354-1.37c-.955-1.285-.715-2.435.647-3.267 1.051-.643 2.221-.974 3.42-1.21 2.225-.44 4.482-.55 6.743-.622.307-.008.613-.06.92-.091.008-.061.015-.121.02-.182-.193-.069-.381-.165-.581-.2-1.928-.346-3.851-.73-5.789-1.012-2.97-.432-5.976-.657-8.87-1.514-1.16-.345-2.276-.841-3.406-1.281a2.351 2.351 0 0 1-.58-.33c-.574-.438-.557-1.093.067-1.45.926-.527 1.856-1.057 2.824-1.504 3.576-1.643 7.305-2.824 11.165-3.6 2.14-.43 4.297-.793 6.368-1.506.695-.24 1.367-.551 2.186-.885-.258-.212-.384-.348-.536-.438-1.168-.694-2.474-1.018-3.773-1.335-2.441-.594-4.928-.916-7.416-1.224-2.954-.367-5.918-.693-8.858-1.164-3.98-.639-7.307-2.593-10.163-5.39-.55-.539-1.051-1.125-1.57-1.692-.063-.07-.094-.167-.19-.343.505-.164.955-.38 1.429-.454 1.47-.23 2.94-.488 4.422-.589 3.3-.22 6.604-.114 9.904.073 2.308.132 4.615.213 6.924.284.983.03 1.965-.05 2.981-.319-.159-.328-.44-.37-.678-.45-2.697-.927-5.388-1.874-8.096-2.763-3.49-1.145-6.999-2.225-10.35-3.744-2.202-1-4.327-2.136-6.186-3.692-.949-.793-1.8-1.707-2.682-2.576-.165-.163-.278-.38-.489-.68.595-.055 1.054-.12 1.515-.138 2.887-.11 5.76.046 8.628.365 5.386.596 10.674 1.738 15.977 2.804 2.336.47 4.672.93 7.009 1.387.254.05.517.06.776.09l.075-.174c-.205-.152-.395-.325-.614-.45-2.684-1.554-5.344-3.156-8.066-4.64-3.945-2.146-7.963-4.165-11.903-6.318-3.69-2.015-7.203-4.31-10.389-7.074-2.282-1.978-4.318-4.176-6.018-6.68a7.569 7.569 0 0 1-.346-.571c-.019-.031.015-.09.04-.209.25.073.504.136.75.22 5.704 1.89 11.248 4.192 16.783 6.518a5188.979 5188.979 0 0 0 20.25 8.482c1.697.703 3.434 1.3 5.155 1.942.224.084.455.144.728.23.017-.41-.283-.43-.469-.53-1.817-.972-3.644-1.926-5.455-2.904-5.29-2.86-10.482-5.88-15.378-9.383-4.869-3.484-9.345-7.397-13.16-12.034a52.12 52.12 0 0 1-4.77-6.836c-.135-.234-.262-.472-.406-.728.354-.171.575.044.79.169 2.727 1.581 5.518 3.064 8.155 4.785 4.637 3.025 9.189 6.181 13.761 9.306 4.51 3.083 9.064 6.1 13.87 8.713.248.136.505.255.822.413.031-.434-.223-.59-.386-.78-1.934-2.244-4.018-4.345-6.283-6.248-3.215-2.699-6.481-5.334-9.746-7.972-3.46-2.798-6.89-5.626-9.963-8.856-3.066-3.222-5.69-6.76-7.633-10.78-.169-.35-.323-.712-.504-1.114.381-.11.573.131.784.26 3.267 1.995 6.394 4.196 9.458 6.484 5.634 4.21 11.04 8.705 16.47 13.171a1457.4 1457.4 0 0 0 3.919 3.21c.181.147.373.276.561.414l.152-.136c-.142-.206-.27-.421-.427-.617a102.22 102.22 0 0 0-7.792-8.72c-2.088-2.09-4.21-4.15-6.291-6.248-1.487-1.502-2.843-3.12-3.976-4.914C190.415 6.06 189.512 3.5 189 .793c-.041-.213-.039-.434-.068-.793.332.18.563.294.786.428 7.898 4.737 15.76 9.537 23.706 14.197 6.337 3.715 12.034 8.253 17.475 13.14 9.126 8.198 17.524 17.103 25.545 26.372 4.846 5.599 9.536 11.323 13.841 17.353.634.891 1.222 1.813 1.852 2.706 1.582 2.238 2.62 4.706 3.284 7.366a93.984 93.984 0 0 1 2.096 11.187c.514 4.164.966 8.334 1.494 12.495.559 4.412 1.316 8.787 2.804 13.003 1.107 3.137 2.586 6.078 4.679 8.678.68.844 1.451 1.641 2.292 2.326 1.752 1.424 3.742 1.704 5.79.725 1.499-.713 2.948-1.537 4.365-2.4 1.631-.996 3.185-2.118 4.806-3.132 1.072-.67 2.193-1.262 3.306-1.858 1.434-.766 2.944-.824 4.485-.393 3.328.935 6.221 2.608 8.549 5.176 1.884 2.08 2.904 4.602 3.471 7.316.309 1.466.407 2.945.182 4.44-.178 1.186-.603 2.245-1.346 3.186a11 11 0 0 1-2.524 2.36c-.133-.24-.246-.424-.344-.616-1.469-2.868-4.003-4.099-7.257-3.525-5.236.922-9.61 5.169-10.91 10.505-.357 1.469-.62 2.962-.958 4.437-.813 3.548-2.374 6.784-4.237 9.884-1.606 2.674-3.525 5.112-5.797 7.253-.882.83-1.84 1.593-2.818 2.309-1.241.91-2.528 1.756-3.817 2.597-.403.263-.566.572-.57 1.039-.008.914.213 1.77.545 2.607.949 2.387 2.405 4.446 4.126 6.332 1.326 1.451 2.785 2.764 4.33 3.978 1.181.926 2.516 1.59 3.868 2.22 1.393.648 2.8 1.276 4.184 1.945 1.098.532 2.13 1.177 3.03 2.013 1.138 1.06 1.83 2.328 1.914 3.908.096 1.794.065 3.575-.377 5.327-.568 2.251-1.828 4-3.822 5.2-.236.145-.509.443-.797.163-.308-.3.04-.54.194-.763.695-1.012 1.294-2.071 1.523-3.288a6.026 6.026 0 0 0 .09-1.698c-.094-.911-.574-1.593-1.554-2.048 0 .273-.027.432.004.578.765 3.692-1.519 5.868-3.699 7.094-.144.082-.419.11-.523.027-.096-.077-.107-.363-.048-.515.42-1.095.79-2.207.815-3.385a5.699 5.699 0 0 0-.227-1.753c-.115-.377-.43-.72-.724-1.005-.354-.34-.813-.365-1.243-.115-.63.367-1.175.837-1.542 1.48-.383.67-.43 1.36-.098 2.068.094.203.224.468-.033.589-.154.073-.438.006-.6-.096-1.131-.712-1.13-1.692-1.267-2.996-.088-.815.342-1.896.398-2.732.025-.347-.525-1.008-.525-1.008s.73.19.945.002c-.985-.693-1.999-1.191-3.157-1.268-1.161-.075-2.332-.121-3.492-.063-2.645.132-5.21-.125-7.616-1.318-2.549-1.266-4.418-3.194-5.448-5.862-.553-1.435-.985-2.914-1.509-4.362a94.475 94.475 0 0 0-1.383-3.532c-.423-1.034-1.274-1.472-2.34-1.568-1.402-.13-2.772.123-4.14.375-3.107.574-6.232.966-9.398.918-3.386-.05-6.745-.342-10.055-1.074-.749-.167-1.425-.098-2.05.359-.562.41-1.138.8-1.686 1.226-7.602 5.885-15.162 11.822-22.813 17.64-3.655 2.778-7.478 5.334-11.227 7.99-.851.602-1.681 1.242-2.568 1.785-.716.436-1.477.828-2.265 1.1-.912.314-1.817.183-2.577-.5-.867-.784-1.026-1.919-.377-2.889a9.45 9.45 0 0 1 2.144-2.263 35.668 35.668 0 0 1 2.556-1.802c2.686-1.705 5.306-3.498 7.739-5.557.217-.184.404-.403.536-.716-.27.104-.543.198-.807.31-2.716 1.159-5.428 2.323-8.146 3.478-.956.407-1.945.582-2.981.367-1.652-.342-2.462-1.82-1.849-3.394.347-.89.993-1.529 1.776-2.048.204-.134.417-.259.671-.417-.87-1.175-1.322-2.508-1.748-3.847-.573-1.794-.13-3.154 1.448-4.201.718-.474 1.52-.839 2.318-1.17 2.223-.92 4.466-1.794 6.698-2.69.236-.095.459-.22.644-.437-.204.066-.41.123-.61.198-1.745.647-3.482 1.308-5.233 1.938-.675.244-1.366.459-2.067.607-.478.102-.987.094-1.479.081a.864.864 0 0 1-.843-.624c-.133-.406-.087-.828.267-1.086.416-.303.866-.584 1.344-.768 2.153-.828 4.318-1.63 6.483-2.424 4.61-1.696 9.243-3.331 13.73-5.34a67.99 67.99 0 0 0 11.73-6.746c3.617-2.583 6.415-5.835 8.21-9.92.777-1.76 1.33-3.575 1.478-5.509.22-2.858-.586-5.34-2.595-7.416-1.686-1.737-3.705-2.983-5.879-3.999-2.958-1.38-6.072-2.307-9.228-3.095-3.707-.926-7.43-1.775-11.136-2.712a51.828 51.828 0 0 1-7.54-2.535c-1.352-.573-2.666-1.239-3.783-2.202a12.191 12.191 0 0 1-1.73-1.832c-.556-.728-.696-1.581-.31-2.464.365-.838.735-1.675 1.162-2.65"/><path fill="#1E1F1C" fill-rule="nonzero" d="M492.292 260.043 474.66 215.4l-17.703 44.643h35.336Zm15.534 39.604-11.265-28.689h-43.874l-11.405 28.69h-13.645l41.074-103.561h14.555l40.444 103.56h-15.884Zm30.789 0v-103.56h14.694v103.56z"/></g></svg>