<svg viewBox="0 0 225 225" class="js-logo-svg" version="1.1" style="display: inherit" xmlns="http://www.w3.org/2000/svg"  id="el_E4dDPv-BE">
    <style>
        #el_y1U6tXj76Y {
            stroke: none;
            stroke-width: 1;
            fill: none;
        }
        #el_JmWtiMFPZ- {
            transform: translate(6px, 6px);
        }

        #el_ZDNvWaKnhq {
            stroke: rgb(0, 0, 0);
            stroke-width: 11;
        }
    </style>
    <g id="el_y1U6tXj76Y" fill-rule="evenodd">
        <g id="el_JmWtiMFPZ-">
            <path d="M7.11132812,0 L207.111328,0 C211.16862,0.45703125 213.197266,2.17122396 213.197266,5.14257813 C213.197266,8.11393229 213.197266,75.4472656 213.197266,207.142578 C213.339193,211.07487 211.310547,213.041016 207.111328,213.041016 C202.912109,213.041016 136.245443,213.041016 7.11132812,213.041016 C2.37044271,212.525391 2.0937077e-16,210.559245 0,207.142578 C0,203.725911 0,136.392578 0,5.14257813 C0.773288766,0.710269039 3.82262748,0.151455473 7.11132812,0 Z" id="el_ZDNvWaKnhq" stroke-linecap="round"></path>
        </g>
    </g>
    <g transform="translate(6, 6)">
        <path d="M58.40625,74.3125 L44.71875,74.3125 L44.71875,83.59375 L45.71875,83.59375 C47.2604244,83.59375 48.3593717,83.890622 49.015625,84.484375 C49.6718783,85.078128 50,85.8541619 50,86.8125 C50,87.7500047 49.6718783,88.515622 49.015625,89.109375 C48.3593717,89.703128 47.2604244,90 45.71875,90 L37.875,90 C36.3333256,90 35.2343783,89.703128 34.578125,89.109375 C33.9218717,88.515622 33.59375,87.7395881 33.59375,86.78125 C33.59375,85.6145775 34.1041616,84.7083366 35.125,84.0625 C35.6250025,83.729165 36.6874919,83.5729166 38.3125,83.59375 L38.3125,58.53125 C37.1874944,58.4270828 36.3385445,58.0833363 35.765625,57.5 C35.1927055,56.9166637 34.90625,56.1875044 34.90625,55.3125 C34.90625,54.3541619 35.2343717,53.578128 35.890625,52.984375 C36.5468783,52.390622 37.6458256,52.09375 39.1875,52.09375 L45.71875,52.125 C47.2604244,52.125 48.3593717,52.4166637 49.015625,53 C49.6718783,53.5833363 50,54.3541619 50,55.3125 C50,56.2708381 49.6718783,57.046872 49.015625,57.640625 C48.3593717,58.234378 47.2604244,58.53125 45.71875,58.53125 L44.71875,58.53125 L44.71875,67.90625 L58.40625,67.90625 L58.40625,58.53125 L57.40625,58.53125 C55.8645756,58.53125 54.7656283,58.234378 54.109375,57.640625 C53.4531217,57.046872 53.125,56.2708381 53.125,55.3125 C53.125,54.3541619 53.4531217,53.578128 54.109375,52.984375 C54.7656283,52.390622 55.8645756,52.09375 57.40625,52.09375 L63.9375,52.125 C65.4791744,52.125 66.5781217,52.4166637 67.234375,53 C67.8906283,53.5833363 68.21875,54.3541619 68.21875,55.3125 C68.21875,56.1875044 67.9322945,56.9166637 67.359375,57.5 C66.7864555,58.0833363 65.9375056,58.4270828 64.8125,58.53125 L64.8125,83.59375 C66.4583416,83.59375 67.5208309,83.7499984 68,84.0625 C69.0208384,84.7083366 69.53125,85.6249941 69.53125,86.8125 C69.53125,87.7500047 69.2031283,88.515622 68.546875,89.109375 C67.8906217,89.703128 66.7916744,90 65.25,90 L57.40625,90 C55.8645756,90 54.7656283,89.703128 54.109375,89.109375 C53.4531217,88.515622 53.125,87.7395881 53.125,86.78125 C53.125,85.8437453 53.45833,85.078128 54.125,84.484375 C54.79167,83.890622 55.8854091,83.59375 57.40625,83.59375 L58.40625,83.59375 L58.40625,74.3125 Z M99.84375,53.75 C100.239585,53.2083306 100.671873,52.8020847 101.140625,52.53125 C101.609377,52.2604153 102.114581,52.125 102.65625,52.125 C103.593755,52.125 104.359372,52.4479134 104.953125,53.09375 C105.546878,53.7395866 105.84375,54.8333256 105.84375,56.375 L105.84375,61.8125 C105.84375,63.3541744 105.546878,64.4531217 104.953125,65.109375 C104.359372,65.7656283 103.593755,66.09375 102.65625,66.09375 C101.802079,66.09375 101.114586,65.8541691 100.59375,65.375 C100.072914,64.8958309 99.6875012,64.0000066 99.4375,62.6875 C99.2916659,61.8124956 99.0000022,61.1354191 98.5625,60.65625 C97.7083291,59.7187453 96.5156327,58.9687528 94.984375,58.40625 C93.4531173,57.8437472 91.9166744,57.5625 90.375,57.5625 C88.4583238,57.5625 86.6979247,57.9791625 85.09375,58.8125 C83.4895753,59.6458375 82.0729228,60.9999906 80.84375,62.875 C79.6145772,64.7500094 79,66.9791537 79,69.5625 L79,73.71875 C79,76.8020987 80.1197805,79.3749897 82.359375,81.4375 C84.5989695,83.5000103 87.7083134,84.53125 91.6875,84.53125 C94.0625119,84.53125 96.0729084,84.2083366 97.71875,83.5625 C98.6770881,83.1874981 99.6979113,82.4479222 100.78125,81.34375 C101.44792,80.67708 101.968748,80.2447927 102.34375,80.046875 C102.718752,79.8489573 103.145831,79.75 103.625,79.75 C104.479171,79.75 105.229163,80.0729134 105.875,80.71875 C106.520837,81.3645866 106.84375,82.1249956 106.84375,83 C106.84375,83.8750044 106.406254,84.812495 105.53125,85.8125 C104.26041,87.2708406 102.62501,88.4166625 100.625,89.25 C97.9374866,90.3750056 94.9687663,90.9375 91.71875,90.9375 C87.9270644,90.9375 84.5104319,90.1562578 81.46875,88.59375 C79.0104044,87.3437438 76.9166753,85.3698052 75.1875,82.671875 C73.4583247,79.9739448 72.59375,77.0312659 72.59375,73.84375 L72.59375,69.5 C72.59375,66.16665 73.3697839,63.0573061 74.921875,60.171875 C76.4739661,57.2864439 78.6249863,55.0625078 81.375,53.5 C84.1250137,51.9374922 87.0416513,51.15625 90.125,51.15625 C91.9791759,51.15625 93.7135336,51.3697895 95.328125,51.796875 C96.9427164,52.2239605 98.4479097,52.8749956 99.84375,53.75 Z M131.3125,58.53125 L131.3125,83.59375 L135.625,83.59375 C137.166674,83.59375 138.265622,83.890622 138.921875,84.484375 C139.578128,85.078128 139.90625,85.8541619 139.90625,86.8125 C139.90625,87.7500047 139.578128,88.515622 138.921875,89.109375 C138.265622,89.703128 137.166674,90 135.625,90 L120.625,90 C119.083326,90 117.984378,89.703128 117.328125,89.109375 C116.671872,88.515622 116.34375,87.7395881 116.34375,86.78125 C116.34375,85.8437453 116.671872,85.078128 117.328125,84.484375 C117.984378,83.890622 119.083326,83.59375 120.625,83.59375 L124.90625,83.59375 L124.90625,58.53125 L117.96875,58.53125 L117.96875,64.59375 C117.96875,66.1354244 117.671878,67.2343717 117.078125,67.890625 C116.484372,68.5468783 115.708338,68.875 114.75,68.875 C113.812495,68.875 113.046878,68.5468783 112.453125,67.890625 C111.859372,67.2343717 111.5625,66.1354244 111.5625,64.59375 L111.5625,52.09375 L144.75,52.125 L144.75,64.59375 C144.75,66.1354244 144.453128,67.2343717 143.859375,67.890625 C143.265622,68.5468783 142.489588,68.875 141.53125,68.875 C140.593745,68.875 139.828128,68.5468783 139.234375,67.890625 C138.640622,67.2343717 138.34375,66.1354244 138.34375,64.59375 L138.34375,58.53125 L131.3125,58.53125 Z M169.8125,58.53125 L169.8125,83.59375 L176.28125,83.59375 C177.822924,83.59375 178.921872,83.890622 179.578125,84.484375 C180.234378,85.078128 180.5625,85.8541619 180.5625,86.8125 C180.5625,87.7500047 180.234378,88.515622 179.578125,89.109375 C178.921872,89.703128 177.822924,90 176.28125,90 L156.9375,90 C155.395826,90 154.296878,89.703128 153.640625,89.109375 C152.984372,88.515622 152.65625,87.7395881 152.65625,86.78125 C152.65625,85.8437453 152.984372,85.078128 153.640625,84.484375 C154.296878,83.890622 155.395826,83.59375 156.9375,83.59375 L163.40625,83.59375 L163.40625,58.53125 L156.9375,58.53125 C155.395826,58.53125 154.296878,58.234378 153.640625,57.640625 C152.984372,57.046872 152.65625,56.2708381 152.65625,55.3125 C152.65625,54.3541619 152.984372,53.578128 153.640625,52.984375 C154.296878,52.390622 155.395826,52.09375 156.9375,52.09375 L176.28125,52.125 C177.822924,52.125 178.921872,52.4166637 179.578125,53 C180.234378,53.5833363 180.5625,54.3541619 180.5625,55.3125 C180.5625,56.2708381 180.234378,57.046872 179.578125,57.640625 C178.921872,58.234378 177.822924,58.53125 176.28125,58.53125 L169.8125,58.53125 Z" fill="green"></path>
        <path d="M68.3884277,148.303711 L47.7194824,148.303711 L45.6442871,153.491699 L47.7194824,153.491699 C49.7670187,153.491699 51.2265581,153.885982 52.0981445,154.674561 C52.9697309,155.463139 53.4055176,156.493809 53.4055176,157.766602 C53.4055176,159.011725 52.9697309,160.028561 52.0981445,160.817139 C51.2265581,161.605717 49.7670187,162 47.7194824,162 L36.2644043,162 C34.216868,162 32.7573285,161.605717 31.8857422,160.817139 C31.0141558,160.028561 30.5783691,158.99789 30.5783691,157.725098 C30.5783691,156.452305 31.0349075,155.414718 31.947998,154.612305 C32.8610885,153.809892 34.3690487,153.43636 36.4719238,153.491699 L49.8361816,120.205566 L44.2746582,120.205566 C42.2271219,120.205566 40.7675825,119.811283 39.8959961,119.022705 C39.0244097,118.234127 38.588623,117.203457 38.588623,115.930664 C38.588623,114.657871 39.0244097,113.627201 39.8959961,112.838623 C40.7675825,112.050045 42.2271219,111.655762 44.2746582,111.655762 L62.6608886,111.697266 L79.5944824,153.491699 C81.5866799,153.491699 82.9009571,153.713051 83.5373535,154.155762 C84.8101463,155.068852 85.4465332,156.272453 85.4465332,157.766602 C85.4465332,159.011725 85.0176638,160.028561 84.1599121,160.817139 C83.3021604,161.605717 81.8495382,162 79.8020019,162 L68.3469238,162 C66.2993875,162 64.8398481,161.605717 63.9682617,160.817139 C63.0966753,160.028561 62.6608886,158.99789 62.6608886,157.725098 C62.6608886,156.479974 63.0966753,155.463139 63.9682617,154.674561 C64.8398481,153.885982 66.2993875,153.491699 68.3469238,153.491699 L70.4221191,153.491699 L68.3884277,148.303711 Z M64.8605957,139.79541 L58.0124511,122.944824 L51.1228027,139.79541 L64.8605957,139.79541 Z M104.081787,144.734375 L104.081787,153.491699 L112.673096,153.491699 C114.720632,153.491699 116.180171,153.885982 117.051758,154.674561 C117.923344,155.463139 118.359131,156.493809 118.359131,157.766602 C118.359131,159.011725 117.923344,160.028561 117.051758,160.817139 C116.180171,161.605717 114.720632,162 112.673096,162 L94.2453613,162 C92.197825,162 90.7382856,161.605717 89.8666992,160.817139 C88.9951128,160.028561 88.5593261,158.99789 88.5593261,157.725098 C88.5593261,156.479974 89.0020301,155.463139 89.8874511,154.674561 C90.7728722,153.885982 92.2254944,153.491699 94.2453613,153.491699 L95.5734863,153.491699 L95.5734863,120.205566 L94.2453613,120.205566 C92.197825,120.205566 90.7382856,119.811283 89.8666992,119.022705 C88.9951128,118.234127 88.5593261,117.203457 88.5593261,115.930664 C88.5593261,114.657871 88.9951128,113.627201 89.8666992,112.838623 C90.7382856,112.050045 92.197825,111.655762 94.2453613,111.655762 L113.835205,111.697266 C119.590442,111.697266 124.148909,113.267481 127.510742,116.407959 C130.872575,119.548437 132.553467,123.373675 132.553467,127.883789 C132.553467,130.374036 131.986252,132.7259 130.851807,134.939453 C129.994055,136.599618 128.562184,138.239006 126.556152,139.857666 C124.55012,141.476326 122.502615,142.693762 120.413574,143.51001 C118.324534,144.326257 115.564552,144.734375 112.133545,144.734375 L104.081787,144.734375 Z M104.081787,136.226074 L111.967529,136.226074 C115.67523,136.226074 118.615061,135.389087 120.787109,133.715088 C122.959158,132.041089 124.045166,130.028169 124.045166,127.67627 C124.045166,125.684072 123.166675,123.940925 121.409668,122.446777 C119.65266,120.952629 117.141699,120.205566 113.876709,120.205566 L104.081787,120.205566 L104.081787,136.226074 Z M164.262451,120.205566 L164.262451,153.491699 L172.85376,153.491699 C174.901296,153.491699 176.360835,153.885982 177.232422,154.674561 C178.104008,155.463139 178.539795,156.493809 178.539795,157.766602 C178.539795,159.011725 178.104008,160.028561 177.232422,160.817139 C176.360835,161.605717 174.901296,162 172.85376,162 L147.162842,162 C145.115305,162 143.655766,161.605717 142.78418,160.817139 C141.912593,160.028561 141.476807,158.99789 141.476807,157.725098 C141.476807,156.479974 141.912593,155.463139 142.78418,154.674561 C143.655766,153.885982 145.115305,153.491699 147.162842,153.491699 L155.75415,153.491699 L155.75415,120.205566 L147.162842,120.205566 C145.115305,120.205566 143.655766,119.811283 142.78418,119.022705 C141.912593,118.234127 141.476807,117.203457 141.476807,115.930664 C141.476807,114.657871 141.912593,113.627201 142.78418,112.838623 C143.655766,112.050045 145.115305,111.655762 147.162842,111.655762 L172.85376,111.697266 C174.901296,111.697266 176.360835,112.084632 177.232422,112.859375 C178.104008,113.634118 178.539795,114.657871 178.539795,115.930664 C178.539795,117.203457 178.104008,118.234127 177.232422,119.022705 C176.360835,119.811283 174.901296,120.205566 172.85376,120.205566 L164.262451,120.205566 Z" fill="green"></path>
    </g>

</svg>