<?xml version="1.0" encoding="utf-8"?>
<!-- Generator: Adobe Illustrator 22.0.1, SVG Export Plug-In . SVG Version: 6.00 Build 0)  -->
<svg version="1.1" id="Layer_1" xmlns="http://www.w3.org/2000/svg" xmlns:xlink="http://www.w3.org/1999/xlink" x="0px" y="0px"
	 viewBox="0 0 850.4 850.4" style="enable-background:new 0 0 850.4 850.4;" xml:space="preserve">
<style type="text/css">
	.st0{clip-path:url(#SVGID_2_);}
	.st1{fill:#008EBE;}
</style>
<g>
	<defs>
		<rect id="SVGID_1_" width="850.4" height="850.4"/>
	</defs>
	<clipPath id="SVGID_2_">
		<use xlink:href="#SVGID_1_"  style="overflow:visible;"/>
	</clipPath>
	<path class="st0" d="M807.4,835.8v-80.1h12.5c12.2,0,19,6.8,19,20v39.9c0,13.4-6.9,20.2-19,20.2H807.4z M795.3,847.3h24.6
		c19.4,0,31.1-11.5,31.1-31.2v-40.7c0-19.7-11.5-31.2-31.2-31.2h-24.5V847.3z M716.6,848.8c17.5,0,29.3-11.5,29.3-32.7v-71.9h-12.2
		v71.9c0,14.3-6.8,20.9-17.1,20.9c-10.2,0-16.9-6.6-16.9-20.9v-71.9h-12.4v71.9C687.3,837.3,699.1,848.8,716.6,848.8 M610.3,837.4
		c-12.1,0-18.3-8.1-18.3-22.5v-38.4c0-14.3,6.2-22.4,18.3-22.4c11.9,0,18.1,8.1,18.1,22.4v38.4C628.4,829.3,622.2,837.4,610.3,837.4
		 M610.3,849.2c19.2,0,30.5-13.1,30.5-34.3v-38.4c0-21.1-11.3-34.2-30.5-34.2c-19.1,0-30.6,13.1-30.6,34.2v38.4
		C579.6,836.1,591.1,849.2,610.3,849.2 M505.1,835.8v-91.6H493v103.1h48v-11.5H505.1z M418.2,849.1c18,0,28.9-11,30.1-30.6h-11.9
		c-1.2,13-7.2,19.3-18.1,19.3c-10,0-16.9-6.5-16.9-20.2V774c0-13.8,6.6-20.3,16.5-20.3c10.8,0,16.9,6.2,17.8,19.4h11.9
		c-1-19.9-11.9-30.8-29.6-30.8c-17.2,0-28.7,11.3-28.7,31.7v43.6C389.2,837.9,400.8,849.1,418.2,849.1 M307.1,836v-35.5h34.6v-11
		h-34.6v-34h37.3v-11.2H295v103.1h51V836H307.1z M217.7,835.8v-91.6h-12.1v103.1h48v-11.5H217.7z M120.8,836v-35.5h34.6v-11h-34.6
		v-34H158v-11.2h-49.3v103.1h51V836H120.8z M45.5,744.2v45.1H12.8v-45.1H0.6v103.1h12.2v-46.7h32.7v46.7h12.2V744.2H45.5z"/>
</g>
<path class="st1" d="M0.6,636.8h212.6V424.2H0.6V636.8z M0.6,211.6h212.6V0H0.6V211.6z M425.8,0v211.6v212.6v212.6h212.6h212V424.2
	h-212V211.6h212V0H425.8z"/>
</svg>
