<svg viewBox="0 0 210 44" version="1.1" xmlns="http://www.w3.org/2000/svg" >
          <g id="Symbols" stroke="none" stroke-width="1" fill-rule="evenodd">
            <g id="Header/white">
              <g id="Group-12">
                <g id="Logo/white">
                  <g id="logo-color-copy-2">
                    <path d="M81.1353709,43.5134615 L21.7764919,43.5134615 C11.4192711,43.5105019 2.49696135,36.2189163 0.438842571,26.0756788 C-1.61927621,15.9324413 3.75623916,5.74399728 13.2943548,1.71007692 C15.9766111,0.575596492 18.8604779,-0.00604988043 21.7731048,-4.67139006e-05 L59.358871,-4.67139006e-05 C65.1355596,-0.00584400718 70.6773805,2.28443605 74.762436,6.36586388 C78.8474915,10.4472917 81.1403126,15.9846964 81.1353709,21.7571538 L81.1353709,43.5126154 L81.1353709,43.5134615 Z M66.9197177,17.9232308 C64.801825,17.8818531 62.7488566,18.6545219 61.1845161,20.0817692 C60.4382045,20.7880736 59.8490577,21.6434693 59.4554032,22.5923077 C59.0271999,23.6367389 58.8118665,24.7560545 58.8220161,25.8846923 C58.8128185,27.0181791 59.0280785,28.1422897 59.4554032,29.1923077 C59.8506615,30.1486423 60.4396607,31.0129121 61.1853629,31.7307692 C64.4468288,34.6755427 69.4095422,34.6755427 72.6710081,31.7307692 C73.4206388,31.0139241 74.0134315,30.1495878 74.4119758,29.1923077 C74.8427735,28.1431591 75.0598303,27.0186851 75.0504435,25.8846923 C75.0607931,24.7555446 74.843661,23.6358604 74.4119758,22.5923077 C74.0139826,21.6431544 73.4205126,20.7883418 72.6701613,20.0834615 C71.0994341,18.6565133 69.0421656,17.883673 66.9197177,17.9232308 Z M54.6237097,9.66546493 C54.033646,9.66464826 53.4635719,9.87920985 53.0207661,10.2689231 C52.5923694,10.6301184 52.3345001,11.1537617 52.3094758,11.7133077 L52.3094758,31.7612308 C52.3345001,32.3207768 52.5923694,32.84442 53.0207661,33.2056154 C53.463818,33.5948182 54.0337987,33.8090437 54.6237097,33.8081967 C55.2200644,33.8139523 55.7983149,33.6035055 56.2512097,33.2157692 C56.682649,32.8541188 56.9334127,32.3214043 56.9370968,31.7586923 L56.9370968,11.7133077 C56.9332023,11.1504032 56.6825013,10.6175126 56.2512097,10.2553846 C55.7979502,9.86856504 55.2197379,9.65903397 54.6237097,9.66546493 Z M47.2864113,9.66547844 C46.6963051,9.66441355 46.1261505,9.87900541 45.6834677,10.2689231 C45.2548209,10.6299229 44.9968942,11.1536829 44.9721774,11.7133077 L44.9721774,31.7612308 C44.9968942,32.3208555 45.2548209,32.8446155 45.6834677,33.2056154 C46.1263971,33.5950221 46.6964579,33.8092778 47.2864113,33.8081847 C47.8827132,33.8136447 48.460859,33.603236 48.9139113,33.2157692 C49.3453506,32.8541188 49.5961143,32.3214043 49.5997984,31.7586923 L49.5997984,11.7133077 C49.5959039,11.1504032 49.3452029,10.6175126 48.9139113,10.2553846 C48.4604949,9.86883443 47.8823872,9.65934127 47.2864113,9.66547844 L47.2864113,9.66547844 Z M18.3326613,22.3816154 C19.1206643,22.3844483 19.8725497,22.7121913 20.4106844,23.287415 C20.9488192,23.8626388 21.2254715,24.6343218 21.1752823,25.4201538 L21.1752823,31.7612308 C21.1999906,32.3206705 21.4575615,32.8443312 21.8857258,33.2056154 C22.3290781,33.5948753 22.8993418,33.8090941 23.4895161,33.8081847 C24.0858181,33.8136447 24.6639639,33.603236 25.1170161,33.2157692 C25.5482693,32.8539755 25.79899,32.3213523 25.8029032,31.7586923 L25.8029032,25.2517692 C25.8029032,20.5234615 23.5962097,17.9198462 19.5884274,17.9198462 C18.7312236,17.9354867 17.8898356,18.1532176 17.1327823,18.5553077 C16.2710111,18.9774365 15.6104888,19.7219938 15.2944355,20.6275385 L15.2944355,11.7133077 C15.290541,11.1504032 15.03984,10.6175126 14.6085484,10.2553846 C14.1554961,9.86791785 13.5773503,9.65750913 12.9810484,9.66296919 C12.3909422,9.66187509 11.8207876,9.87646695 11.3781048,10.2663846 C10.949458,10.6273845 10.6915313,11.1511445 10.6668145,11.7107692 L10.6668145,31.7612308 C10.6915313,32.3208555 10.949458,32.8446155 11.3781048,33.2056154 C11.8210342,33.5950221 12.391095,33.8092778 12.9810484,33.8081847 C13.5773503,33.8136447 14.1554961,33.603236 14.6085484,33.2157692 C15.0399877,32.8541188 15.2907514,32.3214043 15.2944355,31.7586923 L15.2944355,25.4853077 C15.284753,24.980774 15.3769096,24.4794637 15.5654032,24.0113077 C15.7207828,23.6408861 15.9622977,23.3128172 16.2699194,23.0543077 C16.5574066,22.8178655 16.8898032,22.6420028 17.2470968,22.5373077 C17.5992015,22.4318064 17.9650754,22.3793325 18.3326613,22.3816154 Z M35.2029435,18.1626919 C33.9792573,18.1679263 32.7744988,18.464979 31.6888306,19.0291538 C29.8955295,19.9036492 28.5068791,21.4330444 27.8097581,23.3013846 C27.1347465,25.2561774 27.3145558,27.4046301 28.305121,29.2202308 C28.944625,30.5230046 29.9352414,31.6216132 31.1655242,32.3924615 C32.3035607,33.0897924 33.6131109,33.4574399 34.9480645,33.4544035 L34.9522984,33.4544035 C36.2172899,33.4452768 37.4623529,33.1385872 38.5866532,32.5591538 C40.1882869,31.8000583 41.5396642,30.5996815 42.4818145,29.0992308 C42.8179749,28.5948314 42.9111357,27.9667669 42.7358468,27.3866154 C42.5686315,26.8642141 42.1734764,26.4457001 41.6612903,26.2485385 C41.4385617,26.1583634 41.2004767,26.112103 40.9601613,26.1123077 C40.1685745,26.1345024 39.4545037,26.5932582 39.1057258,27.3036923 C38.6753878,28.0955373 37.9887008,28.7178763 37.1581452,29.0687692 C36.501454,29.4089453 35.7748578,29.5925609 35.0352823,29.6052308 C34.1769232,29.6478209 33.3554479,29.2528333 32.8531452,28.556 L41.2548387,24.2778462 C41.9159068,23.9388047 42.1803468,23.1309662 41.8475806,22.4670769 C41.20327,21.1537336 40.2114043,20.0417381 38.9795565,19.2516923 C37.8487636,18.5398085 36.5394368,18.1622593 35.2029435,18.1626919 L35.2029435,18.1626919 Z M66.9197177,29.4825385 C66.0033083,29.4878262 65.1232634,29.124662 64.477621,28.4747692 C63.8036679,27.7814276 63.4334965,26.8486095 63.4487903,25.8821538 C63.4545761,24.4790673 64.2952591,23.2139624 65.5871376,22.6642538 C66.8790161,22.1145452 68.3743346,22.3856558 69.3906048,23.3538462 C69.715177,23.6671931 69.972214,24.0435398 70.1459274,24.4597692 C70.3327128,24.9114714 70.4271477,25.3959588 70.4236694,25.8846923 C70.4393396,26.8520281 70.0673898,27.7854864 69.3906048,28.4773077 C68.734301,29.1285711 67.8446162,29.4905215 66.9197177,29.4825385 L66.9197177,29.4825385 Z M31.6718952,26.0979231 L31.6718952,26.0979231 C31.1345897,24.5696717 31.8751483,22.886875 33.3654435,22.2496154 C33.8482032,21.9914298 34.3853691,21.8513644 34.9328226,21.8409231 C35.9120962,21.8611503 36.8113664,22.3856603 37.3105645,23.2277692 L31.6693548,26.1004615 L31.6718952,26.0979231 Z" id="Shape" fill-rule="nonzero"></path>
                    <path d="M91.6455242,26.0530769 L91.6455242,25.9591538 C91.6602237,25.0401023 92.0490973,24.1667252 92.7224346,23.5405045 C93.3957718,22.9142838 94.2954179,22.589305 95.2138306,22.6405385 C95.9702255,22.6450239 96.7134478,22.8387659 97.3756452,23.2040769 C98.2618229,23.7661287 99.4075139,23.7032247 100.226734,23.0475385 C100.646706,22.6015979 100.856103,21.9976597 100.802241,21.3876723 C100.748379,20.7776849 100.436386,20.219718 99.9447581,19.8541538 C98.5555372,18.8953663 96.9020318,18.3926099 95.2138306,18.4156923 C91.0155242,18.4156923 87.1931855,21.3586154 87.1931855,25.9608462 L87.1931855,26.0547692 C87.1965726,30.6553077 91.0189113,33.5982308 95.2138306,33.5982308 C96.9020318,33.6213132 98.5555372,33.1185568 99.9447581,32.1597692 C100.436386,31.7942051 100.748379,31.2362382 100.802241,30.6262508 C100.856103,30.0162634 100.646706,29.4123252 100.226734,28.9663846 C99.4075139,28.3106983 98.2618229,28.2477944 97.3756452,28.8098462 C96.7134478,29.1751572 95.9702255,29.3688992 95.2138306,29.3733846 C94.2951288,29.424627 93.3952217,29.0994206 92.7218321,28.4728319 C92.0484426,27.8462432 91.6597677,26.9724246 91.6455242,26.0530769 Z M111.916452,31.5319231 C111.988166,32.6718944 112.968479,33.5395351 114.109597,33.473 C115.23879,33.5059074 116.199061,32.6560042 116.302742,31.5319231 L116.302742,20.4803077 C116.199061,19.3562265 115.23879,18.5063234 114.109597,18.5392308 C112.968479,18.4726956 111.988166,19.3403363 111.916452,20.4803077 L111.916452,26.4287692 C111.916452,28.6516154 110.757218,29.3716923 109.222016,29.3716923 C107.404839,29.3716923 106.681694,28.4324615 106.681694,26.4947692 L106.681694,20.4870769 C106.578013,19.3629958 105.617741,18.5130926 104.488548,18.546 C103.34743,18.4794649 102.367118,19.3471056 102.295403,20.4870769 L102.295403,27.8130769 C102.295403,31.977 104.394556,33.6051433 107.684274,33.6051433 C109.426088,33.618346 111.041645,32.6984764 111.918145,31.1943077 L111.916452,31.5319231 Z M118.088589,30.4987692 C118.838831,32.659 121.597621,33.6295385 123.947419,33.6295385 C127.017823,33.6295385 130.27621,32.1580769 130.27621,29.0603077 C130.27621,28.1210769 129.837581,25.8356154 126.296371,24.6772308 L124.072742,23.9241538 C123.195484,23.6423846 122.819516,23.3606154 122.819516,22.891 C122.819516,22.3274615 123.47746,22.0143846 124.417379,22.0143846 C125.059553,22.0302091 125.677653,22.2618266 126.171895,22.6718462 C126.920733,23.3947105 128.057893,23.5351554 128.960323,23.0162308 C129.31304,22.7775046 129.552902,22.4052009 129.624363,21.9855363 C129.695824,21.5658717 129.592685,21.135247 129.338831,20.7933846 C128.33625,19.0401538 126.174435,18.3826923 124.075282,18.3826923 C121.004879,18.3826923 118.401895,20.3863846 118.401895,22.5466154 C118.401895,23.8928462 118.370565,25.9591538 122.756855,27.4306154 L124.417379,28.0229231 C125.482621,28.3673077 125.856895,28.5864615 125.856895,29.2126154 C125.856895,29.964 124.948306,30.1205385 123.977056,30.1205385 C122.916215,30.1080906 121.911925,29.6405252 121.21996,28.8369231 C120.648795,28.1464434 119.683443,27.9277906 118.870161,28.3046923 C118.090939,28.7325237 117.755151,29.6751673 118.088589,30.4987692 Z M131.999395,18.6957692 C131.091675,18.7405007 130.391171,19.5104908 130.432863,20.4176923 C130.414603,21.3162842 131.102478,22.0723923 131.999395,22.1396154 L133.18996,22.1396154 L133.18996,31.5319231 C133.29364,32.6560042 134.253912,33.5059074 135.383105,33.473 C136.524223,33.5395351 137.504535,32.6718944 137.57625,31.5319231 L137.57625,22.1396154 L139.236774,22.1396154 C140.133691,22.0723923 140.821566,21.3162842 140.803306,20.4176923 C140.844999,19.5104908 140.144495,18.7405007 139.236774,18.6957692 L137.57625,18.6957692 L137.57625,14.8762308 C137.504535,13.7362594 136.524223,12.8686187 135.383105,12.9351538 C134.253912,12.9022465 133.29364,13.7521496 133.18996,14.8762308 L133.18996,18.6957692 L131.999395,18.6957692 Z M148.416653,33.5982308 C150.471604,33.6727328 152.465753,32.8939212 153.925542,31.4467429 C155.385331,29.9995646 156.180529,28.0131263 156.122298,25.9591538 C156.122298,21.3569231 152.675927,18.414 148.416653,18.414 C144.157379,18.414 140.740645,21.3569231 140.740645,25.9591538 C140.675292,28.0099735 141.464073,29.9960224 142.918987,31.4439359 C144.3739,32.8918493 146.364615,33.6719232 148.416653,33.5982308 L148.416653,33.5982308 Z M148.416653,29.3674615 C147.523136,29.3645469 146.668935,28.9999566 146.049038,28.3569157 C145.42914,27.7138747 145.096459,26.8472706 145.126935,25.9549231 C145.104205,25.0734592 145.442453,24.220904 146.063442,23.5944601 C146.684431,22.9680162 147.534367,22.6219494 148.416653,22.6363077 C149.303748,22.6152319 150.160779,22.9580985 150.788227,23.5850866 C151.415675,24.2120748 151.758793,25.0684785 151.737702,25.9549231 C151.769556,26.8534296 151.433161,27.7260256 150.806294,28.3709603 C150.179427,29.015895 149.316365,29.3773276 148.416653,29.3717572 L148.416653,29.3674615 Z M180.875202,25.0241538 C180.843871,20.6097692 178.619395,18.3869231 175.141694,18.3869231 C173.298589,18.4041412 171.63433,19.4924538 170.880726,21.1733077 C169.909476,19.1696154 168.374274,18.4182308 166.054113,18.4182308 C164.417995,18.4061937 162.924856,19.3478945 162.231774,20.8289231 L162.231774,20.4845385 C162.16006,19.3445671 161.179747,18.4769264 160.038629,18.5434615 C158.909436,18.5105541 157.949164,19.3604573 157.845484,20.4845385 L157.845484,31.5319231 C157.9492,32.6566742 158.910485,33.5068185 160.040323,33.473 C161.181441,33.5395351 162.161753,32.6718944 162.233468,31.5319231 L162.233468,25.5834615 C162.233468,23.3606154 163.455363,22.6092308 164.77379,22.6092308 C166.027016,22.6092308 167.18625,23.5797692 167.18625,25.4269231 L167.18625,31.5319231 C167.289876,32.6550004 168.248628,33.5045427 169.376855,33.473 C170.517973,33.5395351 171.498285,32.6718944 171.57,31.5319231 L171.57,25.5834615 C171.57,23.4545385 172.666573,22.6092308 174.045121,22.6092308 C175.329677,22.6092308 176.488911,23.6110769 176.488911,25.5208462 L176.488911,31.5285385 C176.592592,32.6526196 177.552863,33.5025228 178.682056,33.4696154 C179.823175,33.5361505 180.803487,32.6685098 180.875202,31.5285385 L180.875202,25.0241538 Z M186.887298,24.7110769 C187.097888,23.1023448 188.526071,21.935935 190.145685,22.0499231 C190.907586,21.9889722 191.662035,22.2365452 192.239442,22.7369908 C192.816849,23.2374363 193.168767,23.9487643 193.216089,24.7110769 L186.887298,24.7110769 Z M195.725927,29.3716923 C195.004508,28.5917717 193.804567,28.4963918 192.968831,29.1525385 C192.225233,29.6644518 191.329062,29.9074346 190.428508,29.8413077 C188.893306,29.8413077 187.041411,29.1212308 186.825484,27.4306154 L196.256008,27.4306154 C196.998324,27.4264545 197.599062,26.826157 197.603226,26.0843846 C197.696006,24.055863 196.943317,22.0796336 195.524307,20.6260664 C194.105298,19.1724992 192.146887,18.3716022 190.115202,18.414 C188.079703,18.3305737 186.100928,19.0954816 184.65152,20.5260199 C183.202112,21.9565581 182.412224,23.9242703 182.470524,25.9591538 C182.40862,28.0039438 183.194497,29.9835137 184.642344,31.4298197 C186.090191,32.8761257 188.071474,33.660769 190.117742,33.5982308 C191.890736,33.6539975 193.642183,33.197433 195.161976,32.2833077 C195.673631,32.0156158 196.03552,31.529743 196.145265,30.9631387 C196.255011,30.3965345 196.100679,29.8108211 195.725927,29.3716923 L195.725927,29.3716923 Z M207.224274,18.414 C205.720403,18.414 204.185202,19.3532308 203.370605,22.077 L203.370605,20.4803077 C203.29889,19.3403363 202.318578,18.4726956 201.17746,18.5392308 C200.048267,18.5063234 199.087995,19.3562265 198.984315,20.4803077 L198.984315,31.5319231 C199.087995,32.6560042 200.048267,33.5059074 201.17746,33.473 C202.318578,33.5395351 203.29889,32.6718944 203.370605,31.5319231 L203.370605,27.9315385 C203.433266,24.2685385 204.247863,22.3900769 206.691653,22.3900769 C206.973629,22.3900769 207.443589,22.4213846 207.756895,22.4213846 C208.77881,22.515313 209.708742,21.8284754 209.91871,20.8246923 C210.200685,18.7626154 208.665484,18.414 207.224274,18.414 Z" id="Shape" fill-rule="nonzero"></path>
                  </g>
                </g>
              </g>
            </g>
          </g>
        </svg>