<?xml version="1.0" ?>
<svg xmlns="http://www.w3.org/2000/svg" viewBox="0 0 1547 1410">
	<style>.a{fill:#0065ae}.b{fill:#dc2311}</style>
	<path fill-rule="evenodd" class="a" d="m536.9 1130.1q12-0.8 20-0.8c5.1 0 12.1 0.4 21 1q13.4 1.1 36 3.4l-9.9-81.6h-211.9c0 0 9 184.8-13.8 357.7h218l14.6-80-120.4-7.5 5.1-54.1q8.5-0.5 22-1.3c9-0.5 14.6-0.7 16.9-0.7q11 0 25.2 1.4c5.7 0.5 18.1 1.3 29.7 2.2l8.2-85q-37.8 3.7-49.8 3.7c-7.3 0-15.4-0.3-24.2-0.7q-13.2-0.6-30-2.1l3.9-52.5q27.2-2.3 39.4-3.1zm917-78l-10.3 24c-15.8 36.3-28.2 64.6-37.2 85-6.2-16.5-12.7-34.2-19.4-53.1-6.1-17.1-12.6-35.8-19.4-55.9h-109.1l93.2 219.8-61.7 137.9h118c21.4-53.1 43.7-109.5 66.8-169.1q34.2-88.2 72.1-188.6zm57.8 287.4q-14.6 0-24.8 10.2-10.3 10.3-10.3 24.8 0 14.7 10.2 25 10.2 10.3 24.9 10.3c9.7 0 18-3.5 24.9-10.3q10.3-10.4 10.3-25 0-14.5-10.3-24.8-10.4-10.2-24.9-10.2zm21.4 56.6q-8.8 8.9-21.5 8.9-12.6 0-21.5-8.9-8.7-8.9-8.7-21.5 0-12.6 8.8-21.4 8.9-8.9 21.4-8.9 12.6 0 21.5 8.9 8.8 8.8 8.9 21.4-0.1 12.6-8.9 21.5zm-5.5-29.8c0-4.8-2-8-6-9.7q-3.3-1.4-10.6-1.4h-13.5v38.5h6.8v-15.2h5.4q5.4 0 7.6 1.3 3.6 2.1 3.6 8.8v3.1l0.2 1.2q0 0.2 0.1 0.4 0 0.2 0.1 0.4h6.3l-0.2-0.5q-0.3-0.5-0.4-2-0.1-1.5-0.1-2.8v-2.9q0-2.9-2-5.9-2.1-3.1-6.6-3.8c2.4-0.4 4.2-1 5.6-1.9q3.7-2.4 3.7-7.6zm-10.6 6.6q-2.1 0.9-6.5 0.9h-6.2v-13.8h5.9q5.7 0 8.3 1.4 2.6 1.4 2.6 5.6 0 4.4-4.1 5.9zm-346.9-241q34.9 3.2 71.2 9.3l-5-89.1h-246c-0.5 34.3-1.1 64.4-1.7 90.2q-1 41.3-2 67.3c-1 26.8-2.6 56.9-4.7 90q-3.1 49.2-7.8 110.2h116.9l1.5-126.9 130.2 7.1-12.2-97-112.5 2.6 3.1-66.9c22.7 0 45.7 1.1 69 3.2zm-240.8 81.1c12.5-16.7 19-32.1 19.5-46.1 0.4-10.8-4.6-24.9-15.1-42.3-10.4-17.3-24-34-40.8-49.9q-15.7-14.9-32.8-21.1-2.2-0.8-4.5-1.5h-204.7c2.7 52.9 4.3 98.1 5 135.7q1 57.6-0.7 102.8-0.9 23-2.4 53.3c-1.1 19.8-2.1 41.7-3.4 65.9h94.2l6.7-112 17.7 1.6q14.1 31.4 32.5 60.2c11 17.2 23.5 33.9 37.2 50.2h98.3c-15.5-21.3-32.3-51.7-42.8-72.3q-15.8-31-25.3-63 42.7-36.4 61.4-61.5zm-124.1 7.8c-14.2 14-32.3 25.5-54.2 34.6l-1.8-124.9q35.9 5.4 57.3 19.8c14.3 9.6 21.2 20 20.8 31.3-0.5 12.2-7.9 25.3-22.1 39.2zm-557.4-125.5q-0.4 20.1-1 35.5l-1.7 41.7c-3.2 0.1-122.3 3.4-131.4 2.9q-0.7-29.3-1.1-60.1c-0.2-18.9-0.3-41.9-0.2-63.2h-111.8c0.7 106.4 1 338.7 0 357.7h98c0.2-3 0.4-6.6 0.7-11q4.5-75.4 7.5-116.5c21.5-0.6 128.6-5.5 131.5-5.4q-3.2 53.3-5.2 82.1c-1.1 17.3-2.3 36-3.4 50.8h110.4c-0.3-35.1-0.1-75.9 0.6-116.2 0.8-42.1 2.2-88.2 4.1-138.5 0.6-13.5 1.3-29 2.3-46.3 0.9-15.7 2-38.1 3.2-56.7h-101.8c-0.2 15.2-0.4 32.2-0.7 43.2z"/>
	<path fill-rule="evenodd" class="b" d="m1381.7 759.6c-39.7 83.8-199.1 120-608 120-429.4 0-582.8-38.4-612.4-131.5-2.8-8.8-5.4-18.9-7.4-28.9 108.9 34.5 254.6 48.3 408.2 39.2 198.7-11.7 321.1-38.1 510.7-43.5 179-5.1 296.5 39.9 308.9 44.7zm13.1-46.4c-66.1-22.6-143.1-37.1-227.3-40.3-180.6-6.9-386.7 14.1-444.1 22.9-276.4 42.3-494.7-1.8-576.5-22.8-5.3-50.5-4.7-103.1-3.1-132.5 1.5-13.4 3.3-25.9 5.7-38.9 23 8.8 100.9 36.1 229.1 45 42.8-189.6 204.1-318 394.8-318 178.8 0 330.8 113.6 384.8 274.1q23.6 1.5 47.7 4c-1.9-6.4-3.9-12.8-6-19-38.5-113.7-121.1-205.9-225.9-258.2-60.8-30.3-129.1-47.3-200.6-47.3-71.6 0-139.9 17-200.7 47.3-75.8 37.8-139.9 99.1-184.2 171.7 0 0-92.3-4.5-197.5-36.3 97.1-220.1 321.8-364.7 582.7-364.7 325.5 0 594.2 224.1 630 540.3 2 37.3 2.4 112.2-8.9 172.7zm-442.5-208.3c-38.5-58-104.1-96.1-178.9-96.1-87.1 0-170.1 46-200.3 138.1 17.3-1.1 35.1-2.3 53.5-4 85.2-7.5 197.9-28.6 325.7-38z"/>
</svg>