<svg viewBox="0 0 1056 816" xmlns="http://www.w3.org/2000/svg">
    <defs>
        <clipPath clipPathUnits="userSpaceOnUse" id="clipPath16">
            <path d="M 0,612 H 792 V 0 H 0 Z" id="path14" />
        </clipPath>
        <clipPath clipPathUnits="userSpaceOnUse" id="clipPath132">
            <path d="M 0,612 H 792 V 0 H 0 Z" id="path130" />
        </clipPath>
        <clipPath clipPathUnits="userSpaceOnUse" id="clipPath324">
            <path d="M 0,612 H 792 V 0 H 0 Z" id="path322" />
        </clipPath>
    </defs>
    <g id="g8" transform="matrix(1.3333333,0,0,-1.3333333,0,816)">
        <g id="g318">
            <g id="g320" clip-path="url(#clipPath324)">
                <g id="g326" transform="translate(230.0967,376.6216)">
                    <path d="m 0,0 c 7.384,10.19 20.072,16.523 33.104,16.523 13.043,0 25.724,-6.333 33.104,-16.523 4.451,-6.141 6.458,-13.037 7.702,-19.729 h 10.15 v 6.797 3.024 31.086 3.019 c 0,3.756 -3.047,6.805 -6.801,6.805 h -88.302 c -3.762,0 -6.806,-3.049 -6.806,-6.805 v -3.019 -31.086 -3.024 -6.797 H -7.697 C -6.464,-13.037 -4.447,-6.141 0,0" style="fill:#386274;fill-opacity:1;fill-rule:nonzero;stroke:none" id="path328" />
                </g>
                <g id="g330" transform="translate(302.7256,324.5352)">
                    <path d="m 0,0 c -1.318,4.74 -1.937,9.839 -2.984,15.839 -0.961,5.487 -1.478,11.182 -2.591,16.663 -0.848,4.142 -2.045,8.165 -4.035,11.905 -0.682,1.319 -1.452,2.603 -2.354,3.838 -3.1,4.291 -7.368,7.714 -12.169,10.077 -4.803,2.35 -10.142,3.634 -15.394,3.634 -5.249,0 -10.585,-1.284 -15.39,-3.634 -4.803,-2.363 -9.074,-5.786 -12.175,-10.077 -0.893,-1.235 -1.671,-2.51 -2.349,-3.825 -1.996,-3.741 -3.19,-7.776 -4.03,-11.918 -1.12,-5.481 -1.631,-11.176 -2.592,-16.663 -1.052,-6 -1.669,-11.099 -2.988,-15.839 -2.469,-8.87 -8.495,-14.672 -15.085,-20.654 v -9.821 H 15.09 v 9.821 C 8.276,-14.622 2.514,-9.039 0,0" style="fill:#386274;fill-opacity:1;fill-rule:nonzero;stroke:none" id="path332" />
                </g>
                <g id="g334" transform="translate(250.5708,249.4902)">
                    <path d="m 0,0 -3.196,-14.194 c -0.267,-1.176 -0.993,-1.902 -1.593,-2.387 -1.765,-1.438 -1.264,-2.359 -1.099,-2.659 0.249,-0.459 0.859,-0.678 1.868,-0.678 h 8.565 c 0.81,0 1.526,0.034 2.086,0.399 0.483,0.324 0.844,0.969 0.9,1.62 0.029,0.334 -0.011,0.801 -0.382,1.144 -0.115,0.115 -0.245,0.22 -0.377,0.312 -0.33,0.262 -0.7,0.553 -0.943,1.003 -0.389,0.724 -0.293,1.571 -0.211,2.239 0.084,0.781 0.214,1.443 0.345,2.106 l 0.823,3.724 3.809,17.039 c 0.439,2.239 0.298,2.632 0.009,3.136 -0.151,0.264 -0.435,0.566 -1.363,0.566 L 9.018,13.361 c 0,0 -3.507,-0.397 -6.854,-1.835 C 1.18,11.105 0.2,10.613 -0.139,9.67 -0.244,9.365 -0.286,8.927 0.344,8.262 1.712,6.81 1.347,5.481 0.797,3.473 L 0.677,3.041 Z" style="fill:#386274;fill-opacity:1;fill-rule:nonzero;stroke:none" id="path336" />
                </g>
                <g id="g338" transform="translate(272.3062,262.3613)">
                    <path d="m 0,0 c -1.646,0 -2.659,-0.348 -2.964,-2.155 -0.182,-0.838 -0.144,-1.409 0.103,-1.717 0.372,-0.462 1.355,-0.462 2.215,-0.462 h 2.387 l -5.226,-24.741 c -0.229,-1.763 -0.15,-2.727 0.266,-3.201 0.304,-0.341 0.89,-0.503 1.847,-0.503 h 5.737 c 0.81,0 1.528,0.033 2.086,0.406 0.484,0.32 0.845,0.966 0.903,1.611 0.029,0.332 -0.013,0.8 -0.38,1.15 -0.12,0.115 -0.249,0.215 -0.379,0.311 -0.331,0.258 -0.702,0.556 -0.947,1.003 -0.391,0.727 -0.289,1.569 -0.208,2.237 l 0.6,3.224 4.008,18.503 h 3.95 c 1.646,0 2.657,0.352 2.963,2.148 0.183,0.843 0.147,1.418 -0.104,1.721 C 16.481,0 15.503,0 14.641,0 h -3.639 l 0.15,0.683 c 1.369,6.211 1.369,6.211 1.399,6.28 0.727,3.434 0.603,3.863 0.264,4.477 -0.225,0.384 -0.616,0.551 -1.326,0.551 l -0.217,-0.009 c -0.039,0 -0.963,-0.07 -4.11,-1.449 C 6.449,10.217 5.823,9.919 5.41,9.449 5.012,9.004 4.86,8.372 4.736,7.708 4.539,6.701 4.338,5.696 4.137,4.694 3.912,3.583 3.694,2.471 3.474,1.353 L 3.204,0 Z" style="fill:#386274;fill-opacity:1;fill-rule:nonzero;stroke:none" id="path340" />
                </g>
                <g id="g342" transform="translate(233.3589,244.9385)">
                    <path d="m 0,0 c 5.436,17.223 14.505,21.539 17.227,22.474 0.063,0.025 2.166,0.849 5.145,0.849 0.649,0 1.302,-0.039 1.936,-0.118 2.657,-0.332 4.429,0.42 4.98,1.933 0.347,0.953 0.088,2.044 -0.627,2.639 -2.144,1.792 -6.123,1.186 -6.138,1.186 C 17.091,28.125 6.4,22.609 3.2,14.807 v 0.296 c 0.233,1.459 0.096,1.826 -0.146,2.252 -0.148,0.265 -0.437,0.567 -1.36,0.567 L 1.468,17.913 c 0.002,0 -3.508,-0.397 -6.858,-1.835 -0.978,-0.421 -1.961,-0.91 -2.295,-1.858 -0.111,-0.303 -0.152,-0.741 0.479,-1.409 1.37,-1.45 1.005,-2.778 0.452,-4.789 L -6.874,7.593 -7.56,4.531 -10.747,-9.643 c -0.269,-1.182 -0.992,-1.901 -1.591,-2.386 -1.768,-1.438 -1.267,-2.36 -1.099,-2.659 0.246,-0.459 0.86,-0.678 1.869,-0.678 h 8.563 c 0.811,0 1.526,0.034 2.092,0.399 0.477,0.323 0.837,0.969 0.891,1.615 0.031,0.336 -0.013,0.804 -0.376,1.149 -0.117,0.113 -0.252,0.215 -0.378,0.311 -0.329,0.263 -0.703,0.551 -0.945,1.003 -0.386,0.725 -0.295,1.563 -0.214,2.24 0.093,0.796 0.225,1.469 0.356,2.147 l 1.068,4.807 c 0.093,0.323 0.181,0.643 0.28,0.96 z" style="fill:#386274;fill-opacity:1;fill-rule:nonzero;stroke:none" id="path344" />
                </g>
                <g id="g346" transform="translate(207.4224,250.0996)">
                    <path d="M 0,0 H -0.229 L -0.224,0.005 -0.249,0 h -10.903 l 0.316,0.772 c 1.495,3.692 4.19,8.101 8.539,8.101 3.202,0 5.041,-2.303 5.172,-6.479 L 2.853,2.179 C 2.835,1.86 2.752,1.533 2.6,1.184 2.293,0.506 1.598,0.072 0.725,0.019 L 0.566,0 c 0,0 -0.054,-0.006 -0.107,-0.006 L 0.265,0 Z m -9.085,-21.328 c 6.878,0 13.951,4.504 17.598,11.196 0.133,0.235 0.433,0.927 0.295,1.417 -0.058,0.194 -0.177,0.337 -0.378,0.454 -0.769,0.418 -1.552,-0.388 -1.753,-0.684 -5.405,-7.087 -10.29,-9.536 -15.269,-7.71 -6.799,2.499 -3.792,12.592 -3.658,13.02 l 0.119,0.396 h 23.056 c 0.237,1.311 0.34,2.583 0.308,3.788 -0.175,7.254 -5.11,12.327 -11.985,12.327 -4.665,0 -9.213,-1.772 -12.806,-4.987 -3.61,-2.99 -6.399,-7.455 -7.663,-12.267 -1.01,-5.232 -0.16,-9.712 2.472,-12.911 1.93,-2.691 5.175,-4.039 9.664,-4.039" style="fill:#386274;fill-opacity:1;fill-rule:nonzero;stroke:none" id="path348" />
                </g>
                <g id="g350" transform="translate(336.6753,243.002)">
                    <path d="m 0,0 c -0.473,0 -0.897,0.061 -1.255,0.183 -1.452,0.523 -2.339,1.533 -2.646,3.016 -0.69,2.317 0.299,9.008 2.538,11.711 0.741,0.873 1.471,1.56 2.61,2.079 0.586,0.233 1.248,0.384 1.898,0.431 0.166,0.014 0.343,0.023 0.528,0.023 0.93,0 1.712,-0.197 2.33,-0.589 C 7.321,15.912 7.879,14.599 7.904,12.446 7.977,10.69 7.149,3.637 3.705,1.155 2.923,0.551 1.681,0.112 0.476,0.018 0.312,0.004 0.16,0 0,0 m -3.637,-21.677 c -1.263,0 -2.997,0.111 -4.089,0.634 -1.256,0.68 -1.841,1.631 -1.876,2.994 0.046,1.253 0.75,2.545 1.835,3.425 0.13,0.1 0.504,0.394 2.684,0.567 1.096,0.09 2.523,0.131 4.127,0.131 3.049,0 6.464,-0.172 7.306,-0.368 1.115,-0.258 2.217,-0.633 2.326,-2.034 0.087,-1.072 -1.02,-2.461 -2.699,-3.378 -1.589,-0.903 -4.588,-1.65 -7.651,-1.895 -0.688,-0.053 -1.344,-0.076 -1.963,-0.076 m 8.68,42.545 C 4.451,20.866 3.978,20.846 3.506,20.81 -0.219,20.514 -5.423,18.996 -9.084,13.449 -11.416,9.803 -13.01,2.458 -9.002,-1.712 l 0.499,-0.521 -0.631,-0.359 c -3.065,-1.725 -4.829,-3.393 -5.554,-5.265 -0.872,-2.276 0.292,-4.697 1.858,-5.624 l 0.709,-0.42 -0.646,-0.503 c -3.896,-3.078 -3.071,-6.648 -2.425,-7.768 1.245,-2.26 3.932,-3.397 7.981,-3.397 0.63,0 1.25,0.027 1.84,0.074 0.587,0.05 1.071,0.108 1.391,0.144 l 0.425,0.059 c 3.59,0.483 14.508,1.951 18.042,8.214 1.177,2.118 1.417,5.349 0.509,6.916 -2.183,3.711 -6.79,3.569 -10.644,3.517 l -6.903,-0.161 c -2.298,0 -3.338,0.362 -3.489,1.22 -0.132,0.815 0.453,1.612 1.37,1.842 0.993,0.046 1.846,0.084 2.65,0.154 5.824,0.458 8.888,1.955 10.434,3.134 4.963,3.544 7.224,9.591 6.904,13.754 0.028,1.045 -0.103,1.621 -0.273,2.346 l -0.077,0.332 0.242,0.27 c 0.433,0.382 0.873,0.748 1.459,1.039 0.195,0.111 0.43,0.185 0.687,0.203 l 0.151,0.007 c 0.782,0 1.546,-0.449 2.163,-0.807 0.186,-0.108 0.36,-0.207 0.517,-0.286 0.635,-0.289 1.263,-0.418 1.875,-0.366 1.136,0.086 2.019,0.816 2.358,1.45 0.658,1.135 0.526,2.199 0.388,2.73 -0.258,1.142 -1.785,2.3 -2.871,2.511 -0.987,0.245 -1.832,0.318 -2.665,0.256 -2.357,-0.185 -4.231,-1.55 -6.491,-3.684 l -0.28,-0.269 -0.346,0.165 C 9.74,20.34 7.479,20.868 5.043,20.868" style="fill:#386274;fill-opacity:1;fill-rule:nonzero;stroke:none" id="path352" />
                </g>
                <g id="g354" transform="translate(153.207,252.6133)">
                    <path d="m 0,0 h 18.73 l -3.104,-14.848 c -0.147,-0.719 -0.355,-1.559 -0.749,-2.3 -0.372,-0.722 -0.957,-1.25 -1.481,-1.673 l -0.526,-0.411 c -0.182,-0.131 -0.361,-0.271 -0.536,-0.414 -1.791,-1.464 -1.282,-2.397 -1.118,-2.704 0.254,-0.465 0.877,-0.691 1.911,-0.691 h 10.754 c 0.294,0 0.593,0.019 0.887,0.063 0.391,0.055 0.794,0.202 1.161,0.42 0.509,0.312 0.913,0.99 0.922,1.54 0.008,0.536 -0.258,1.086 -0.84,1.718 -0.494,0.542 -1.074,1.287 -1.199,2.289 -0.105,0.812 0.111,1.764 0.3,2.606 l 0.222,0.96 7.021,33.618 c 0.154,0.718 0.361,1.555 0.751,2.309 0.375,0.72 0.96,1.247 1.486,1.666 l 0.537,0.418 c 0.178,0.138 0.351,0.266 0.523,0.4 1.789,1.471 1.28,2.404 1.117,2.716 -0.253,0.461 -0.876,0.686 -1.911,0.686 H 24.106 c -0.295,0 -0.595,-0.015 -0.886,-0.058 -0.399,-0.062 -0.799,-0.206 -1.161,-0.432 -0.512,-0.307 -0.917,-0.982 -0.927,-1.528 -0.005,-0.534 0.268,-1.095 0.843,-1.723 0.496,-0.542 1.08,-1.291 1.202,-2.292 0.105,-0.806 -0.122,-1.804 -0.303,-2.603 L 22.652,18.772 19.909,5.637 H 1.176 l 3.049,14.536 c 0.15,0.718 0.358,1.555 0.747,2.309 0.374,0.72 0.957,1.247 1.482,1.666 l 0.529,0.414 c 0.181,0.132 0.356,0.266 0.531,0.404 1.795,1.47 1.285,2.404 1.12,2.716 -0.256,0.461 -0.879,0.686 -1.909,0.686 H -4.03 c -0.297,0 -0.599,-0.015 -0.888,-0.058 -0.394,-0.062 -0.799,-0.206 -1.159,-0.432 -0.509,-0.312 -0.92,-0.982 -0.926,-1.528 -0.008,-0.538 0.258,-1.091 0.844,-1.723 0.493,-0.542 1.076,-1.287 1.203,-2.292 0.1,-0.806 -0.116,-1.759 -0.307,-2.603 l -0.22,-0.957 -7.033,-33.623 c -0.15,-0.715 -0.358,-1.55 -0.751,-2.3 -0.37,-0.722 -0.958,-1.25 -1.479,-1.673 l -0.534,-0.413 c -0.178,-0.135 -0.354,-0.269 -0.53,-0.412 -1.793,-1.464 -1.281,-2.397 -1.113,-2.704 0.251,-0.465 0.875,-0.691 1.907,-0.691 H -4.26 c 0.292,0 0.593,0.019 0.884,0.063 0.397,0.055 0.795,0.202 1.16,0.42 0.511,0.312 0.918,0.99 0.924,1.54 0.008,0.536 -0.258,1.086 -0.84,1.718 -0.495,0.542 -1.081,1.294 -1.203,2.289 -0.104,0.812 0.113,1.764 0.304,2.604 l 0.221,0.962 z" style="fill:#386274;fill-opacity:1;fill-rule:nonzero;stroke:none" id="path356" />
                </g>
                <g id="g358" transform="translate(379.0859,251.0303)">
                    <path d="M 0,0 -0.227,0.005 V 0.009 L -0.255,0.005 h -10.898 l 0.311,0.769 c 1.493,3.692 4.191,8.099 8.54,8.099 3.204,0 5.038,-2.299 5.169,-6.477 L 2.849,2.176 C 2.83,1.862 2.749,1.533 2.594,1.186 2.291,0.508 1.589,0.072 0.724,0.022 L 0.563,0.005 C 0.563,0 0.508,0 0.455,0 L 0.257,0.005 Z m -9.088,-21.324 c 6.878,0 13.951,4.506 17.597,11.193 0.129,0.235 0.434,0.926 0.296,1.416 C 8.748,-8.519 8.627,-8.374 8.426,-8.261 7.66,-7.839 6.87,-8.647 6.678,-8.94 c -5.409,-7.092 -10.294,-9.542 -15.272,-7.713 -6.797,2.502 -3.794,12.587 -3.664,13.02 l 0.12,0.398 H 10.92 c 0.235,1.316 0.337,2.583 0.308,3.781 -0.178,7.261 -5.106,12.33 -11.984,12.33 -4.665,0 -9.213,-1.771 -12.803,-4.983 -3.613,-2.994 -6.404,-7.457 -7.67,-12.266 -1.012,-5.236 -0.155,-9.715 2.471,-12.912 1.936,-2.692 5.179,-4.039 9.67,-4.039" style="fill:#386274;fill-opacity:1;fill-rule:nonzero;stroke:none" id="path360" />
                </g>
                <g id="g362" transform="translate(299.4111,233.1416)">
                    <path d="m 0,0 c -0.979,0 -1.802,0.387 -2.377,1.109 -0.829,1.043 -1.066,2.766 -0.636,4.604 1.313,5.908 6.479,8.608 10.724,8.608 H 9.198 L 8.68,11.483 8.689,11.366 8.598,10.892 C 8.01,8.234 7.547,6.128 5.902,3.73 4.881,2.328 2.771,0 0,0 M 7.001,1.032 6.901,0.273 C 6.676,-1.618 6.759,-2.582 7.171,-3.057 7.475,-3.397 8.063,-3.56 9.02,-3.56 h 5.359 c 0.806,0 1.528,0.034 2.083,0.407 0.488,0.32 0.848,0.965 0.9,1.611 0.033,0.332 -0.013,0.8 -0.375,1.149 -0.121,0.116 -0.25,0.215 -0.379,0.312 -0.329,0.258 -0.701,0.556 -0.948,1.003 -0.387,0.726 -0.292,1.569 -0.21,2.244 0.087,0.781 0.215,1.442 0.348,2.111 l 0.082,0.422 2.475,11.124 c 1.073,5.136 0.413,8.175 -2.278,10.471 -2.483,2.147 -6.561,2.471 -8.773,2.471 -3.221,0 -11.823,-0.981 -12.92,-5.453 -0.131,-0.789 -0.009,-1.445 0.383,-1.904 0.415,-0.494 1.163,-0.778 2.051,-0.778 1.635,0 2.806,1.011 4.046,2.093 1.339,1.163 2.725,2.368 4.779,2.368 1.592,0 2.81,-0.513 3.613,-1.52 1.078,-1.349 1.318,-3.51 0.695,-6.247 L 9.863,17.932 9.461,17.894 7.304,17.884 c -1.675,0 -16.407,-0.353 -18.876,-12.197 -0.878,-4.219 -0.421,-9.924 7.561,-10.121 7.99,-0.194 11.012,5.466 11.012,5.466" style="fill:#386274;fill-opacity:1;fill-rule:nonzero;stroke:none" id="path364" />
                </g>
                <g id="g366" transform="translate(427.2705,252.7461)">
                    <path d="M 0,0 Z" style="fill:#386274;fill-opacity:1;fill-rule:evenodd;stroke:none" id="path368" />
                </g>
                <g id="g370" transform="translate(464.6855,246.5215)">
                    <path d="M 0,0 Z" style="fill:#386274;fill-opacity:1;fill-rule:evenodd;stroke:none" id="path372" />
                </g>
                <g id="g374" transform="translate(455.208,232.3291)">
                    <path d="m 0,0 c -1.594,0 -2.848,0.556 -3.728,1.63 -1.7,2.104 -1.915,6.224 -0.636,12.251 0.729,3.003 3.571,12.767 10.028,12.767 1.626,0 2.899,-0.588 3.786,-1.738 2.401,-3.113 1.044,-9.27 0.571,-11.081 C 7.886,4.658 4.509,0 0,0 m 7.209,30.646 c -4.662,0 -9.207,-1.772 -12.807,-4.982 -3.612,-2.998 -6.404,-7.467 -7.671,-12.268 -1.009,-5.236 -0.156,-9.715 2.472,-12.911 1.935,-2.695 5.178,-4.043 9.67,-4.043 7.796,0 17.409,6.037 19.839,17.217 1.1,4.99 0.296,9.489 -2.272,12.694 -2.182,2.729 -5.548,4.293 -9.231,4.293" style="fill:#386274;fill-opacity:1;fill-rule:nonzero;stroke:none" id="path376" />
                </g>
                <g id="g378" transform="translate(663.8584,232.5664)">
                    <path d="M 0,0 Z M 21.432,14.068 Z" style="fill:#386274;fill-opacity:1;fill-rule:evenodd;stroke:none" id="path380" />
                </g>
                <g id="g382" transform="translate(675.9082,232.3291)">
                    <path d="m 0,0 c -1.52,0 -2.723,0.54 -3.561,1.592 -2.132,2.671 -1.447,8.221 -0.492,12.406 1.247,6.111 4.459,12.65 9.716,12.65 1.522,0 2.732,-0.56 3.597,-1.65 2.382,-3.041 1.108,-9.223 0.666,-11.045 C 8.711,7.606 6.004,0 0,0 m 7.004,30.646 c -4.777,0 -9.152,-1.717 -13.019,-5.095 -3.752,-3.091 -6.567,-7.665 -7.538,-12.237 -1.196,-5.057 -0.438,-9.568 2.152,-12.715 2.199,-2.807 5.486,-4.157 10.06,-4.157 8.094,0 17.927,6.48 20.359,17.329 1.036,4.874 0.211,9.294 -2.339,12.458 -2.27,2.801 -5.798,4.417 -9.675,4.417" style="fill:#386274;fill-opacity:1;fill-rule:nonzero;stroke:none" id="path384" />
                </g>
                <g id="g386" transform="translate(506.7246,242.8955)">
                    <path d="m 0,0 0.695,3.093 c 1.069,4.719 2.636,11.695 2.654,11.776 0.788,3.563 0.664,3.987 0.316,4.602 -0.242,0.422 -0.714,0.591 -1.595,0.555 0,0 -3.506,-0.402 -6.849,-1.839 -0.983,-0.427 -1.965,-0.916 -2.308,-1.859 -0.103,-0.303 -0.14,-0.74 0.483,-1.409 1.19,-1.257 0.942,-2.356 0.617,-3.876 -0.088,-0.382 -0.179,-0.804 -0.267,-1.29 L -8.627,-1.174 c -0.424,-1.815 -1.079,-4.084 -2.389,-5.601 -1.363,-1.551 -3.564,-2.592 -5.472,-2.592 -1.169,0 -2.064,0.352 -2.646,1.052 -1.269,1.519 -0.793,4.226 -0.335,6.85 l 0.06,0.291 c 0.004,0.023 3.583,15.924 3.607,16.043 0.788,3.563 0.664,3.987 0.321,4.602 -0.247,0.422 -0.72,0.591 -1.591,0.555 0,0 -3.514,-0.402 -6.86,-1.839 -0.972,-0.427 -1.962,-0.916 -2.298,-1.859 -0.109,-0.303 -0.149,-0.74 0.485,-1.409 1.366,-1.451 1.005,-2.779 0.447,-4.784 l -0.115,-0.432 c -1.921,-8.791 -2.429,-11.097 -2.603,-11.746 l 0.037,-0.01 c -0.177,-0.799 -0.337,-1.595 -0.448,-2.411 -0.23,-1.616 -0.278,-2.931 -0.144,-4.145 0.189,-1.777 0.97,-3.253 2.192,-4.165 1.136,-0.829 2.912,-1.35 4.644,-1.35 3.885,0 7.356,1.611 10.936,5.063 l 1.148,1.121 -0.197,-1.592 c -0.232,-1.786 -0.151,-2.752 0.262,-3.22 0.307,-0.346 0.892,-0.508 1.849,-0.508 h 5.357 c 0.811,0 1.526,0.034 2.089,0.405 0.481,0.316 0.84,0.965 0.895,1.607 0.036,0.337 -0.01,0.812 -0.375,1.156 -0.123,0.111 -0.25,0.217 -0.377,0.314 -0.337,0.259 -0.706,0.549 -0.954,0.998 -0.383,0.726 -0.289,1.564 -0.21,2.237 0.093,0.783 0.215,1.442 0.357,2.106 l 0.707,3.286 -0.007,0.005 L 0,0" style="fill:#386274;fill-opacity:1;fill-rule:nonzero;stroke:none" id="path388" />
                </g>
                <g id="g390" transform="translate(534.7686,258.1709)">
                    <path d="m 0,0 c 1.176,0 2.065,-0.356 2.646,-1.047 1.273,-1.524 0.792,-4.24 0.33,-6.859 L 2.928,-8.195 -0.368,-22.808 c -0.267,-1.16 -0.95,-1.855 -1.594,-2.385 -1.766,-1.439 -1.263,-2.358 -1.1,-2.661 0.257,-0.456 0.863,-0.681 1.876,-0.681 h 8.559 c 0.812,0 1.526,0.034 2.094,0.404 0.475,0.317 0.835,0.966 0.888,1.608 0.031,0.336 -0.008,0.812 -0.372,1.156 -0.122,0.11 -0.253,0.212 -0.377,0.313 -0.334,0.255 -0.707,0.549 -0.948,0.998 -0.388,0.727 -0.287,1.565 -0.215,2.238 0.091,0.793 0.229,1.469 0.355,2.144 l 0.122,0.578 c 1.922,8.813 2.427,11.117 2.605,11.768 l -0.036,0.009 c 0.176,0.799 0.332,1.603 0.445,2.411 0.235,1.619 0.278,2.932 0.144,4.14 C 11.887,1.017 11.104,2.498 9.887,3.403 8.76,4.231 6.979,4.755 5.242,4.755 1.671,4.755 -1.524,3.407 -4.796,0.506 l -1.251,-1.095 0.328,1.626 c 0.44,2.258 0.298,2.652 0.011,3.158 -0.221,0.386 -0.644,0.56 -1.372,0.56 L -7.295,4.751 c 0,0 -3.507,-0.402 -6.854,-1.84 -0.98,-0.427 -1.969,-0.908 -2.299,-1.858 -0.111,-0.305 -0.152,-0.741 0.474,-1.413 1.379,-1.448 1.007,-2.771 0.458,-4.779 l -0.126,-0.433 -0.672,-3.043 -3.196,-14.193 c -0.265,-1.177 -0.995,-1.893 -1.587,-2.392 -1.772,-1.432 -1.271,-2.351 -1.113,-2.654 0.256,-0.456 0.862,-0.681 1.879,-0.681 h 8.568 c 0.801,0 1.522,0.034 2.081,0.404 0.477,0.317 0.84,0.966 0.897,1.608 0.027,0.336 -0.009,0.812 -0.375,1.156 -0.119,0.11 -0.255,0.217 -0.381,0.313 -0.328,0.26 -0.7,0.549 -0.944,0.998 -0.389,0.727 -0.296,1.572 -0.214,2.246 0.085,0.78 0.22,1.444 0.347,2.112 l 0.811,3.65 2.203,9.801 c 0.51,1.612 1.117,2.793 1.86,3.653 C -4.111,-1.043 -1.915,0 0,0" style="fill:#386274;fill-opacity:1;fill-rule:nonzero;stroke:none" id="path392" />
                </g>
                <g id="g394" transform="translate(716.8477,258.1709)">
                    <path d="M 0,0 C 1.172,0 2.062,-0.356 2.645,-1.054 3.922,-2.571 3.432,-5.292 2.974,-7.911 L 2.922,-8.195 -0.365,-22.808 c -0.26,-1.151 -0.953,-1.855 -1.594,-2.385 -1.762,-1.439 -1.271,-2.358 -1.098,-2.661 0.246,-0.456 0.859,-0.681 1.87,-0.681 h 8.561 c 0.811,0 1.526,0.034 2.086,0.404 0.483,0.317 0.843,0.966 0.896,1.608 0.037,0.336 -0.013,0.812 -0.378,1.156 -0.121,0.11 -0.245,0.212 -0.371,0.313 -0.33,0.255 -0.707,0.549 -0.948,0.998 -0.388,0.727 -0.289,1.565 -0.213,2.238 0.089,0.783 0.213,1.449 0.348,2.111 l 0.12,0.611 c 1.847,8.451 2.4,10.971 2.644,11.766 l -0.07,0.011 c 0.178,0.799 0.336,1.603 0.453,2.411 0.224,1.621 0.269,2.932 0.138,4.14 C 11.885,1.017 11.108,2.498 9.89,3.403 8.758,4.231 6.977,4.755 5.241,4.755 1.669,4.755 -1.53,3.407 -4.8,0.506 l -1.241,-1.095 0.318,1.626 c 0.441,2.262 0.3,2.655 0.016,3.158 -0.226,0.386 -0.646,0.56 -1.377,0.56 L -7.297,4.751 c 0.005,0 -3.506,-0.402 -6.851,-1.84 -0.981,-0.427 -1.958,-0.915 -2.306,-1.858 -0.102,-0.305 -0.149,-0.741 0.481,-1.409 1.372,-1.452 1.009,-2.78 0.45,-4.793 l -0.116,-0.423 -0.679,-3.043 -3.195,-14.193 c -0.266,-1.177 -0.985,-1.893 -1.59,-2.392 -1.169,-0.948 -1.543,-1.845 -1.101,-2.654 0.246,-0.456 0.864,-0.681 1.871,-0.681 h 8.563 c 0.807,0 1.525,0.034 2.089,0.404 0.472,0.317 0.838,0.966 0.897,1.608 0.027,0.336 -0.014,0.812 -0.38,1.156 -0.114,0.11 -0.243,0.217 -0.379,0.313 -0.327,0.26 -0.702,0.549 -0.941,0.998 -0.393,0.737 -0.287,1.578 -0.212,2.251 0.083,0.775 0.218,1.443 0.349,2.114 l 0.804,3.646 2.208,9.798 c 0.506,1.614 1.115,2.793 1.856,3.653 C -4.111,-1.043 -1.916,0 0,0" style="fill:#386274;fill-opacity:1;fill-rule:nonzero;stroke:none" id="path396" />
                </g>
                <g id="g398" transform="translate(658.0977,278.5498)">
                    <path d="m 0,0 c -2.605,0 -5.812,-1.926 -6.611,-5.486 -0.238,-1.319 0.027,-2.482 0.75,-3.353 0.758,-0.908 1.979,-1.432 3.332,-1.432 2.273,0 5.834,1.827 6.613,5.259 0.322,1.429 0.11,2.661 -0.597,3.553 C 2.743,-0.533 1.47,0 0,0" style="fill:#386274;fill-opacity:1;fill-rule:nonzero;stroke:none" id="path400" />
                </g>
                <g id="g402" transform="translate(648.667,249.5557)">
                    <path d="m 0,0 -3.199,-14.192 c -0.27,-1.178 -0.994,-1.894 -1.585,-2.393 -1.773,-1.432 -1.267,-2.351 -1.107,-2.653 0.251,-0.456 0.856,-0.682 1.878,-0.682 h 8.555 c 0.815,0 1.528,0.034 2.091,0.404 0.478,0.317 0.842,0.966 0.896,1.608 0.028,0.337 -0.011,0.812 -0.377,1.156 -0.117,0.11 -0.251,0.212 -0.383,0.314 -0.326,0.254 -0.699,0.548 -0.942,1.002 -0.389,0.727 -0.28,1.567 -0.208,2.247 0.086,0.774 0.215,1.442 0.346,2.113 l 0.804,3.643 3.824,17.101 c 0.435,2.242 0.298,2.637 0.013,3.143 -0.223,0.385 -0.64,0.559 -1.366,0.559 L 9.013,13.366 c 0,0 -3.502,-0.402 -6.853,-1.84 C 1.183,11.1 0.201,10.611 -0.136,9.668 -0.246,9.365 -0.291,8.928 0.345,8.259 1.711,6.808 1.353,5.479 0.797,3.466 L 0.677,3.043 Z" style="fill:#386274;fill-opacity:1;fill-rule:nonzero;stroke:none" id="path404" />
                </g>
                <g id="g406" transform="translate(565.5547,233.207)">
                    <path d="m 0,0 c -1.492,0 -2.673,0.529 -3.521,1.567 -2.196,2.699 -1.466,8.185 -0.836,11.219 0.98,3.924 3.917,13 10.094,13 1.831,0 3.362,-0.932 4.103,-2.499 0.683,-1.85 0.437,-3.545 0.045,-5.586 C 9.816,17.245 7.985,6.092 5.773,3.17 4.271,1.667 2.316,0 0,0 m 5.324,30.229 c -8.219,0 -16.185,-7.785 -18.532,-18.111 -1.148,-5.367 -0.381,-10.223 2.106,-13.292 1.723,-2.133 4.18,-3.262 7.085,-3.262 4.153,0 7.203,1.622 9.587,5.1 L 6.595,2.156 6.593,0.17 C 6.367,-1.616 6.446,-2.582 6.854,-3.059 7.157,-3.397 7.746,-3.558 8.699,-3.558 h 5.366 c 0.816,0 1.532,0.028 2.082,0.4 0.484,0.32 0.845,0.969 0.904,1.614 0.026,0.332 -0.01,0.809 -0.382,1.151 -0.112,0.114 -0.248,0.215 -0.377,0.317 -0.334,0.255 -0.695,0.544 -0.943,1 -0.384,0.722 -0.286,1.562 -0.213,2.237 0.088,0.793 0.221,1.475 0.35,2.15 l 0.083,0.39 2.683,12.016 c 1.558,6.92 1.558,6.92 1.585,6.988 l 1.273,6.008 0.02,-0.007 1.721,7.629 c 0.702,3.131 1.3,5.784 1.309,5.836 0.781,3.562 0.668,3.982 0.314,4.597 -0.214,0.39 -0.637,0.557 -1.364,0.557 l -0.221,-0.002 c 0,0 -3.511,-0.399 -6.859,-1.833 -0.973,-0.425 -1.96,-0.913 -2.292,-1.865 -0.103,-0.303 -0.153,-0.74 0.475,-1.404 1.184,-1.256 0.943,-2.358 0.607,-3.879 -0.077,-0.377 -0.172,-0.806 -0.256,-1.287 L 11.945,27.419 11.248,27.94 c -1.894,1.414 -3.545,2.289 -5.924,2.289" style="fill:#386274;fill-opacity:1;fill-rule:nonzero;stroke:none" id="path408" />
                </g>
                <g id="g410" transform="translate(627.4707,262.4229)">
                    <path d="m 0,0 c -1.603,0 -2.661,-0.356 -2.971,-2.146 -0.176,-0.841 -0.142,-1.417 0.109,-1.728 0.375,-0.461 1.354,-0.461 2.216,-0.461 h 2.382 l -5.224,-24.736 c -0.228,-1.761 -0.151,-2.727 0.266,-3.203 0.303,-0.339 0.892,-0.499 1.852,-0.499 h 5.732 c 0.809,0 1.534,0.027 2.088,0.399 0.484,0.32 0.85,0.969 0.902,1.617 0.031,0.329 -0.014,0.806 -0.382,1.149 -0.117,0.113 -0.246,0.214 -0.379,0.316 -0.33,0.255 -0.695,0.544 -0.94,1 -0.383,0.723 -0.291,1.563 -0.214,2.235 l 0.023,0.152 0.577,3.07 4.006,18.5 h 3.951 c 1.605,0 2.657,0.363 2.964,2.154 0.183,0.844 0.153,1.415 -0.104,1.72 C 16.486,0 15.502,0 14.64,0 h -3.645 l 1.516,6.839 c 0.76,3.564 0.645,3.989 0.298,4.599 -0.213,0.39 -0.615,0.559 -1.319,0.559 L 11.275,11.995 C 11.23,11.988 10.31,11.914 7.164,10.532 6.579,10.279 5.857,9.959 5.407,9.455 5.013,8.999 4.863,8.374 4.732,7.71 4.543,6.707 4.342,5.703 4.135,4.696 3.897,3.524 3.667,2.348 3.437,1.172 L 3.209,0 Z" style="fill:#386274;fill-opacity:1;fill-rule:nonzero;stroke:none" id="path412" />
                </g>
                <g id="g414" transform="translate(414.1143,281.4053)">
                    <path d="m 0,0 c -1.034,0 -1.661,-0.223 -1.905,-0.686 -0.165,-0.307 -0.677,-1.249 1.111,-2.711 0.171,-0.136 0.345,-0.267 0.522,-0.405 L 0.394,-4.316 C 0.917,-4.728 1.554,-5.23 1.721,-6.063 1.863,-6.75 1.796,-7.062 1.645,-7.8 L 1.511,-8.414 -5.848,-43.666 c -0.155,-0.723 -0.365,-1.556 -0.756,-2.306 -0.37,-0.724 -0.959,-1.248 -1.481,-1.671 l -0.532,-0.418 c -0.181,-0.129 -0.357,-0.265 -0.529,-0.403 -1.788,-1.47 -1.282,-2.407 -1.117,-2.71 0.252,-0.463 0.88,-0.688 1.906,-0.688 H 2.402 c 0.294,0 0.594,0.018 0.888,0.063 0.396,0.057 0.797,0.203 1.163,0.418 0.51,0.314 0.914,0.993 0.923,1.539 0.005,0.533 -0.271,1.093 -0.842,1.723 -0.495,0.542 -1.077,1.289 -1.208,2.285 -0.101,0.811 0.126,1.809 0.31,2.61 l 0.112,0.512 3.175,14.891 h 11.799 c 0.566,0 1.065,-0.048 1.521,-0.15 0.651,-0.151 1.199,-0.418 1.676,-0.824 0.171,-0.144 0.331,-0.307 0.501,-0.474 0.485,-0.467 0.936,-0.915 1.483,-0.915 0.811,0.086 1.286,0.728 1.493,1.251 0.779,2.026 1.257,4.963 1.517,7.072 0.088,0.641 0.036,1.135 -0.125,1.547 -0.2,0.525 -0.769,0.597 -1.14,0.487 -0.454,-0.14 -0.837,-0.465 -1.257,-0.809 -0.339,-0.281 -0.68,-0.568 -1.088,-0.787 -0.947,-0.504 -2.075,-0.761 -3.347,-0.761 H 7.925 l 3.852,16.768 13.3,-0.007 c 1.194,0 2.287,-0.056 3.299,-0.165 1.112,-0.119 2.093,-0.353 3.086,-0.724 1.693,-0.63 2.827,-1.589 3.66,-3.102 l 0.329,-0.621 c 0.244,-0.481 0.682,-1.375 1.413,-1.396 0.418,0 0.85,0.276 1.032,0.635 0.57,1.253 1.213,4.427 1.498,6.764 l 0.074,0.669 c 0.117,0.972 -0.079,1.738 -0.569,2.284 C 37.962,-0.026 36.186,0 35.978,0 H 10.757 Z" style="fill:#386274;fill-opacity:1;fill-rule:nonzero;stroke:none" id="path416" />
                </g>
                <g id="g418" transform="translate(599.8701,233.1416)">
                    <path d="m 0,0 c -0.978,0 -1.804,0.387 -2.38,1.109 -0.833,1.043 -1.063,2.766 -0.632,4.604 1.308,5.908 6.475,8.608 10.715,8.608 H 9.198 L 8.677,11.483 8.69,11.366 8.6,10.892 C 8.009,8.234 7.548,6.128 5.906,3.73 4.881,2.328 2.771,0 0,0 M 7.001,1.032 6.904,0.273 C 6.679,-1.618 6.758,-2.582 7.166,-3.057 7.474,-3.397 8.058,-3.56 9.02,-3.56 h 5.362 c 0.797,0 1.526,0.034 2.084,0.407 0.48,0.32 0.842,0.965 0.896,1.611 0.025,0.332 -0.016,0.8 -0.38,1.149 -0.119,0.116 -0.25,0.215 -0.378,0.312 -0.328,0.258 -0.696,0.556 -0.935,1.003 -0.402,0.726 -0.298,1.569 -0.224,2.244 0.095,0.781 0.228,1.442 0.355,2.111 l 0.074,0.422 2.483,11.124 c 1.069,5.136 0.407,8.175 -2.28,10.471 -2.485,2.147 -6.563,2.471 -8.766,2.471 -3.227,0 -11.835,-0.981 -12.923,-5.453 -0.136,-0.789 -0.01,-1.445 0.381,-1.904 0.413,-0.494 1.161,-0.778 2.045,-0.778 1.632,0 2.809,1.011 4.048,2.093 1.339,1.163 2.723,2.368 4.774,2.368 1.597,0 2.817,-0.513 3.626,-1.52 1.072,-1.349 1.309,-3.51 0.688,-6.247 L 9.864,17.932 9.455,17.894 7.311,17.884 c -1.685,0 -16.42,-0.353 -18.884,-12.197 -0.881,-4.219 -0.425,-9.924 7.561,-10.121 7.997,-0.194 11.013,5.466 11.013,5.466" style="fill:#386274;fill-opacity:1;fill-rule:nonzero;stroke:none" id="path420" />
                </g>
                <g id="g422" transform="translate(164.9834,314.5347)">
                    <path d="M 0,0 -0.228,0.008 -0.253,0.004 h -10.898 l 0.312,0.77 c 1.499,3.695 4.194,8.101 8.541,8.101 3.201,0 5.041,-2.298 5.172,-6.477 L 2.858,2.201 C 2.834,1.873 2.751,1.53 2.595,1.187 2.295,0.513 1.599,0.074 0.724,0.021 L 0.565,0.004 C 0.565,0 0.509,0 0.461,0 L 0.264,0.004 Z m -9.086,-21.326 c 6.878,0 13.953,4.503 17.596,11.196 0.136,0.238 0.438,0.924 0.295,1.42 -0.052,0.194 -0.173,0.336 -0.377,0.449 -0.766,0.42 -1.554,-0.384 -1.748,-0.676 -5.403,-7.094 -10.292,-9.545 -15.27,-7.713 -6.8,2.5 -3.796,12.588 -3.665,13.019 l 0.124,0.398 h 23.057 c 0.233,1.31 0.339,2.583 0.31,3.782 -0.186,7.257 -5.109,12.326 -11.989,12.326 -4.664,0 -9.211,-1.767 -12.806,-4.982 -3.61,-2.993 -6.397,-7.457 -7.663,-12.266 -1.011,-5.237 -0.162,-9.713 2.471,-12.913 1.929,-2.692 5.174,-4.04 9.661,-4.04 z" style="fill:#386274;fill-opacity:1;fill-rule:nonzero;stroke:none" id="path424" />
                </g>
                <g id="g426" transform="translate(123.1079,348.1138)">
                    <path d="m 0,0 c -0.454,0.101 -0.899,-0.176 -1.187,-0.509 -0.353,-0.412 -0.59,-0.921 -0.822,-1.408 -0.455,-0.95 -0.77,-1.508 -1.604,-2.169 -0.792,-0.631 -1.79,-0.79 -2.775,-0.79 -2.88,0 -5.952,0.287 -12.286,0.959 -8.349,0.961 -11.9,1.343 -19.098,1.343 -6.715,0 -11.708,-1.631 -15.74,-4.702 -4.03,-3.072 -6.428,-7.295 -6.428,-12.478 0,-1.378 0.206,-2.804 0.653,-4.11 0.396,-1.165 0.975,-2.279 1.773,-3.219 0.441,-0.52 0.943,-1.039 1.475,-1.465 0.628,-0.503 1.301,-0.991 2.069,-1.262 0.744,-0.263 1.58,-0.357 2.367,-0.29 0.673,0.057 1.394,0.166 1.993,0.494 0.31,0.168 0.641,0.424 0.856,0.707 0.4,0.527 0.632,1.324 0.522,1.979 -0.117,0.684 -0.521,1.296 -0.941,1.835 -0.235,0.301 -0.487,0.591 -0.746,0.874 -0.45,0.491 -0.927,0.988 -1.325,1.525 -0.414,0.558 -0.784,1.163 -1.097,1.782 -0.556,1.103 -0.919,2.299 -1.069,3.522 -0.062,0.516 -0.102,1.047 -0.102,1.565 0,5.375 3.169,8.253 11.518,8.253 4.12,0 7.507,-0.094 10.522,-0.365 -1.154,-6.335 -3.838,-18.929 -3.968,-19.555 -1.283,-6.127 -2.563,-12.248 -3.841,-18.376 -0.277,-1.325 -0.691,-2.569 -1.699,-3.523 -0.922,-0.873 -2.305,-1.5 -2.793,-2.736 -0.718,-1.815 1.539,-1.943 2.762,-1.943 h 9.973 c 1.292,0 3.283,0.652 2.954,2.343 -0.155,0.786 -0.788,1.306 -1.249,1.916 -0.589,0.779 -0.856,1.652 -0.774,2.628 0.094,1.122 0.429,2.217 0.658,3.319 0.609,2.903 1.215,5.804 1.819,8.71 1.474,7.046 3.751,19.305 5.265,26.606 l 1.197,-0.08 c 7.581,-0.672 11.323,-0.863 14.204,-0.863 1.073,0 2.187,0.101 3.213,0.431 1.397,0.455 2.526,1.265 3.306,2.516 0.646,1.032 0.999,2.225 1.213,3.416 C 0.938,-2.182 1.249,-0.275 0,0" style="fill:#386274;fill-opacity:1;fill-rule:nonzero;stroke:none" id="path428" />
                </g>
                <g id="g430" transform="translate(146.8354,338.2002)">
                    <path d="m 0,0 c -0.832,1.706 -3.317,2.69 -5.397,3.204 -2.767,0.684 -5.474,0.7 -8.286,0.239 -5.645,-0.929 -11.054,-4.544 -14.587,-8.988 -4.686,-5.899 -6.18,-13.725 -7.803,-20.92 -0.661,-2.947 -1.325,-5.889 -1.989,-8.834 -0.214,-0.955 -0.43,-1.911 -0.646,-2.865 -0.086,-0.388 -0.186,-0.769 -0.364,-1.129 -0.54,-1.082 -1.666,-1.592 -2.286,-2.594 -0.914,-1.481 0.473,-2.264 1.827,-2.264 h 3.264 4.379 c 1.416,0 3.17,-0.161 3.735,1.469 0.454,1.314 -0.476,1.713 -1.24,2.54 -0.919,0.99 -0.622,2.464 -0.421,3.667 0.229,1.389 0.566,2.761 0.869,4.135 0.45,2.048 0.917,4.093 1.378,6.141 0.607,2.701 0.951,5.82 2.835,7.991 1.543,1.745 4.289,3.073 6.646,2.451 2.57,-0.68 2.423,-3.711 2.13,-5.803 -0.711,-5.087 -2.144,-10.115 -3.272,-15.119 -0.131,-0.582 -0.241,-1.17 -0.393,-1.746 -0.257,-1.163 -1.017,-1.86 -1.862,-2.623 -0.573,-0.515 -1.228,-1.302 -0.96,-2.13 0.362,-1.125 1.787,-0.973 2.752,-0.973 h 4.309 3.417 c 0.8,0 1.744,-0.016 2.376,0.56 0.952,0.871 0.897,2.141 -0.058,2.921 -1.91,1.467 -1.113,3.923 -0.691,5.954 0.522,2.391 1.044,4.782 1.569,7.173 0.439,1.999 0.922,4.024 1.286,5.984 0.455,2.464 0.808,5.426 -0.467,7.711 -1.259,2.251 -3.949,3.04 -6.387,2.981 -4.446,-0.104 -7.846,-2.572 -11.03,-5.412 1.294,5.68 3.621,11.778 8.828,14.979 3.101,1.907 6.751,2.21 10.202,1.134 1.571,-0.491 2.738,-1.346 4.342,-1.705 C -0.737,-2.154 0.417,-1.262 0,0" style="fill:#386274;fill-opacity:1;fill-rule:nonzero;stroke:none" id="path432" />
                </g>
            </g>
        </g>
    </g>
</svg>