<?xml version="1.0" ?>
<svg xmlns="http://www.w3.org/2000/svg" version="1.2" viewBox="0 0 1510 484">
	<style>
		.s0 { fill: #353746 } 
		.s1 { fill: #00b0f0 } 
	</style>
	<g id="Layer_2">
		<g id="DK_grey">
			<g id="Layer_2-2">
				<g id="Layer_1-2">
					<path id="Layer" class="s0" d="m724.2 131.3h-85.1v-105c0.3-6.7-2.1-13.2-6.7-18.1-4.6-4.9-11-7.6-17.6-7.6-6.7 0-13.1 2.7-17.7 7.6-4.6 4.9-7 11.4-6.7 18.1v346.4c0.4 6.2 3.1 12.1 7.6 16.4 4.5 4.3 10.5 6.7 16.8 6.7 6.2 0 12.2-2.4 16.7-6.7 4.5-4.3 7.3-10.2 7.6-16.4v-194.8h85.1c50.5 0 72.7 21.9 72.7 59.1v136c0.3 6.3 3 12.1 7.6 16.4 4.5 4.3 10.5 6.7 16.7 6.7 6.3 0 12.3-2.4 16.8-6.7 4.5-4.3 7.2-10.1 7.6-16.4v-136c0.3-66.4-39.5-105.7-121.4-105.7z"/>
					<path id="Layer" fill-rule="evenodd" class="s0" d="m1170.9 240.6v144.6c0 71.3-25 98.8-94.9 98.7h-150.5c-6.7 0.2-13.1-2.4-17.8-7.1-4.8-4.8-7.3-11.3-7.1-18 0.3-6.6 3.3-12.9 8.3-17.3 5.1-4.4 11.7-6.5 18.3-5.8h142.9c37.5 0 49.6-15 49.6-50.8v-11.5h-110.1c-66.4 0-108.1-39.3-108.1-120 0-80.7 41.4-119.3 108.1-119.3h69.2c59.5 0 91.4 34.7 92.1 106.5zm-50.8-0.1c0-40.7-15.6-58.1-55.6-58.1h-49.7c-43.2 0-62.6 22-62.6 72.7 0 50.8 19.4 72.7 62.6 72.7h105.3z"/>
					<path id="Layer" class="s0" d="m1338.8 184.9h145.6c6.8 0 13.2-2.7 18-7.5 4.8-4.7 7.4-11.2 7.4-17.9 0-6.8-2.6-13.2-7.4-18-4.8-4.8-11.2-7.4-18-7.4h-145.9c-61.2 0-85.9 29.5-85.9 76.8 0 40.4 18.1 76.9 90.7 76.9h61.9c26.5 0 37.6 8.4 37.6 29.6 0 21.2-10.1 28.9-34.4 28.9h-153.3c-6.7-0.1-13.2 2.4-18 7-4.9 4.6-7.8 11-8 17.6-0.3 6.7 2 13.3 6.5 18.3 4.4 5 10.6 8 17.3 8.5h155.8c61.9 0 86.1-33 86.1-80 0-41.3-18.3-74.4-91-74.4h-62c-29.5 0-37.5-10.1-37.5-28.5 0.1-20.1 10.1-29.9 34.5-29.9z"/>
					<path id="Layer" class="s1" d="m230.3 80.8l-222.1 170.8c-1.7 1.3-3.1 2.9-4.1 4.7-1.1 1.8-1.7 3.8-2 5.9-0.3 2-0.1 4.1 0.5 6.2 0.6 2 1.5 3.8 2.8 5.5 1.3 1.6 2.8 3.1 4.7 4.1 1.8 1.1 3.8 1.7 5.8 2 2.1 0.3 4.2 0.1 6.2-0.5 2-0.5 3.9-1.5 5.6-2.8l222.5-170.8c1.6-1.3 3-2.9 4.1-4.7 1-1.8 1.7-3.8 1.9-5.9 0.3-2 0.1-4.1-0.4-6.1-0.6-2.1-1.6-3.9-2.9-5.6-1.3-1.6-3-2.9-4.8-3.9-1.8-1-3.8-1.6-5.9-1.9-2.1-0.3-4.2-0.1-6.2 0.4-2.1 0.5-4 1.4-5.7 2.6z"/>
					<path id="Layer" class="s1" d="m271 145.6c-1.3-1.7-2.8-3.1-4.7-4.2-1.8-1-3.8-1.7-5.9-2-2.1-0.2-4.2-0.1-6.2 0.5-2 0.6-3.9 1.5-5.6 2.8l-240.4 184.8c-1.7 1.2-3.1 2.8-4.1 4.6-1.1 1.8-1.7 3.8-2 5.9-0.3 2.1-0.1 4.2 0.5 6.2 0.5 2 1.5 3.9 2.8 5.6 1.3 1.6 2.9 3 4.7 4.1 1.8 1 3.8 1.7 5.9 1.9 2 0.3 4.1 0.1 6.1-0.4 2.1-0.6 3.9-1.6 5.6-2.9l240.8-184.7c1.6-1.3 2.9-3 3.9-4.8 0.9-1.8 1.6-3.8 1.8-5.8 0.2-2.1 0.1-4.2-0.5-6.1-0.5-2-1.4-3.9-2.7-5.5z"/>
					<path id="Layer" class="s1" d="m4 198.5c1.3 1.6 2.9 3 4.7 4.1 1.8 1 3.8 1.7 5.9 1.9 2.1 0.3 4.2 0.1 6.2-0.4 2-0.6 3.8-1.6 5.5-2.9l212.7-163.2 121.3 93-90 69.2c-3.2 2.4-5.4 5.9-6.2 9.9-0.7 4 0.2 8.1 2.4 11.5 2.2 3.4 5.6 5.8 9.6 6.7 3.9 1 8.1 0.4 11.6-1.7q0.2-0.1 0.4-0.3 0.3-0.2 0.5-0.3 0.2-0.2 0.4-0.4 0.2-0.2 0.4-0.4l106.4-81.7 1-1.1 1.7-1.7c1.3-1.7 2.2-3.6 2.7-5.6 0.5-2 0.7-4.1 0.4-6.1-0.2-2.1-0.9-4-1.9-5.9-1-1.8-2.3-3.4-3.9-4.7l-147.2-113q-0.8-0.7-1.7-1.2-0.9-0.5-1.8-0.9-1-0.5-2-0.7-1-0.3-2.1-0.4h-3.8q-1 0.2-2 0.4-1 0.3-2 0.7-1 0.4-1.9 0.9-0.9 0.6-1.7 1.2l-222.5 170.7c-1.6 1.3-3 2.9-4.1 4.7-1 1.8-1.7 3.8-2 5.9-0.3 2-0.1 4.1 0.4 6.2 0.5 2 1.4 3.9 2.6 5.6z"/>
					<path id="Layer" class="s1" d="m453.8 208.9l-222.4 170.8c-1.7 1.2-3.1 2.8-4.1 4.6-1.1 1.8-1.7 3.8-2 5.9-0.3 2.1-0.1 4.2 0.4 6.2 0.6 2 1.6 3.9 2.9 5.5 1.2 1.7 2.8 3.1 4.6 4.1 1.8 1.1 3.8 1.7 5.9 2 2.1 0.2 4.2 0.1 6.2-0.5 2-0.6 3.9-1.5 5.5-2.8l222.5-170.8c1.7-1.2 3.1-2.8 4.1-4.7 1-1.8 1.7-3.8 2-5.9 0.2-2 0.1-4.1-0.5-6.2-0.6-2-1.6-3.9-2.9-5.5-1.3-1.6-2.9-2.9-4.7-3.9-1.8-1-3.8-1.7-5.8-1.9-2.1-0.3-4.2-0.1-6.2 0.4-2 0.5-3.8 1.4-5.5 2.7z"/>
					<path id="Layer" class="s1" d="m210.2 340c1.2 1.7 2.8 3 4.6 4.1 1.8 1 3.8 1.7 5.9 2 2.1 0.2 4.2 0.1 6.2-0.5 2-0.6 3.9-1.6 5.5-2.9l240.9-184.6c3.3-2.6 5.5-6.4 6-10.6 0.6-4.2-0.6-8.4-3.1-11.8-2.6-3.3-6.4-5.5-10.6-6.1-4.2-0.5-8.4 0.6-11.7 3.2l-240.6 184.9c-1.7 1.3-3.1 2.9-4.1 4.7-1.1 1.8-1.8 3.8-2 5.8-0.3 2.1-0.2 4.2 0.3 6.2 0.5 2 1.4 3.9 2.7 5.6z"/>
					<path id="Layer" class="s1" d="m477.1 287.4c-1.2-1.6-2.8-3-4.6-4.1-1.8-1-3.8-1.7-5.9-1.9-2.1-0.3-4.2-0.1-6.2 0.4-2 0.6-3.9 1.6-5.6 2.9l-212.7 163.1-121.3-93.2 90.1-69.2c3.3-2.6 5.4-6.4 5.9-10.6 0.5-4.2-0.6-8.4-3.2-11.7-2.6-3.3-6.4-5.4-10.5-6-4.2-0.5-8.4 0.7-11.7 3.3l-106.3 81.7-1.1 1.1-1.8 1.7c-1.2 1.6-2 3.5-2.5 5.5-0.5 2-0.6 4-0.4 6.1 0.3 2 0.9 3.9 1.9 5.7 1 1.8 2.3 3.4 3.9 4.7l147.3 113.2q0.8 0.7 1.7 1.2 0.9 0.6 1.9 1 1 0.4 2 0.6 1 0.3 2 0.4h4.2q1.1-0.1 2.1-0.4 1-0.3 2-0.7 0.9-0.4 1.8-0.9 0.9-0.5 1.8-1.2l222.4-170.7c1.6-1.3 2.9-2.9 3.9-4.6 1-1.8 1.7-3.8 2-5.8 0.2-2 0.1-4.1-0.4-6.1-0.6-2-1.4-3.8-2.7-5.5z"/>
				</g>
			</g>
		</g>
	</g>
</svg>