<?xml version="1.0" ?>
<svg xmlns="http://www.w3.org/2000/svg" viewBox="0 0 117 28" fill="none">
	<g clip-path="url(#svg1716665957_4985_clip0_4836_2836)">
		<path d="M24.43 27.93H17.5V14.98H18.83V26.6H24.43V27.93Z" fill="#878A8F"/>
		<path d="M24.4297 22.54H23.0997V1.33H18.8297V11.48H10.2197V10.15H17.4997V0H24.4297V22.54Z" fill="#878A8F"/>
		<path d="M6.93 28H0V5.39001H1.33V26.67H5.6V14.98H14.28V16.31H6.93V28Z" fill="#878A8F"/>
		<path d="M6.93 11.48H5.6V1.33H0V0H6.93V11.48Z" fill="#878A8F"/>
		<path d="M105.07 21.7H104.51V23.1H105.07V21.7Z" fill="#2CB34A"/>
		<path d="M38.9907 10.71H33.7407V15.12H31.9907V5.04004H33.7407V9.17004H38.9907V5.04004H40.7407V15.12H38.9907V10.71Z" fill="#878A8F"/>
		<path d="M44.3809 5.04004H46.1309V15.12H44.3809V5.04004Z" fill="#878A8F"/>
		<path d="M49.4194 10.0801C49.4194 7.00008 51.7294 4.83008 54.7394 4.83008C56.7694 4.83008 58.0294 5.88008 58.7994 7.07008L57.2594 7.84008C56.7694 7.00008 55.7894 6.37008 54.7394 6.37008C52.7094 6.37008 51.2394 7.91008 51.2394 10.0101C51.2394 12.1101 52.7094 13.6501 54.7394 13.6501C55.8594 13.6501 56.7694 13.0201 57.2594 12.1801L58.7994 12.9501C58.0294 14.1401 56.7694 15.1901 54.7394 15.1901C51.7294 15.3301 49.4194 13.2301 49.4194 10.0801Z" fill="#878A8F"/>
		<path d="M64.3307 10.85L63.4907 11.9V15.12H61.7407V5.04004H63.4907V9.87004L67.4807 5.04004H69.6507L65.5207 9.80004L69.9307 15.12H67.7607L64.3307 10.85Z" fill="#878A8F"/>
		<path d="M72.9404 12.32C73.6404 13.09 74.7604 13.72 76.1604 13.72C77.6304 13.72 78.1904 13.02 78.1904 12.32C78.1904 11.41 77.1404 11.13 75.8804 10.85C74.2004 10.43 72.3104 9.94002 72.3104 7.84002C72.3104 6.16002 73.7804 4.90002 76.0204 4.90002C77.6304 4.90002 78.8904 5.39002 79.8004 6.30002L78.7504 7.63002C77.9804 6.86002 76.8604 6.51002 75.8104 6.51002C74.7604 6.51002 74.1304 7.00002 74.1304 7.77002C74.1304 8.54002 75.1804 8.82002 76.3704 9.10002C78.0504 9.52002 80.0104 10.01 80.0104 12.25C80.0104 13.93 78.8204 15.4 76.0904 15.4C74.2004 15.4 72.8704 14.77 71.9604 13.79L72.9404 12.32Z" fill="#878A8F"/>
		<path d="M87.8494 4.83008C90.8594 4.83008 93.0294 7.07008 93.0294 10.0801C93.0294 13.0901 90.8594 15.3301 87.8494 15.3301C84.8394 15.3301 82.6694 13.0901 82.6694 10.0801C82.6694 7.07008 84.8394 4.83008 87.8494 4.83008ZM87.8494 6.44008C85.8194 6.44008 84.4894 7.98008 84.4894 10.0801C84.4894 12.1801 85.8194 13.7201 87.8494 13.7201C89.8794 13.7201 91.2094 12.1101 91.2094 10.0801C91.2094 8.05008 89.8794 6.44008 87.8494 6.44008Z" fill="#878A8F"/>
		<path d="M98.0703 7.91004V15.12H96.3203V5.04004H98.1403L103.32 12.04V5.04004H105.07V15.12H103.39L98.0703 7.91004Z" fill="#878A8F"/>
		<path d="M109.061 12.32C109.761 13.09 110.881 13.72 112.281 13.72C113.751 13.72 114.311 13.02 114.311 12.32C114.311 11.41 113.261 11.13 112.001 10.85C110.321 10.43 108.431 9.94002 108.431 7.84002C108.431 6.16002 109.901 4.90002 112.141 4.90002C113.751 4.90002 115.011 5.39002 115.921 6.30002L114.871 7.63002C114.101 6.86002 112.981 6.51002 111.931 6.51002C110.881 6.51002 110.251 7.00002 110.251 7.77002C110.251 8.54002 111.301 8.82002 112.491 9.10002C114.171 9.52002 116.131 10.01 116.131 12.25C116.131 13.93 114.941 15.4 112.211 15.4C110.321 15.4 108.991 14.77 108.081 13.79L109.061 12.32Z" fill="#878A8F"/>
		<path d="M41.3003 18.97H42.0003V22.4H43.8203V23.1H41.3003V18.97Z" fill="#878A8F"/>
		<path d="M51.9407 22.26H50.0507L49.7707 23.1H48.9307L50.5407 19.04H51.4507L53.0607 23.1H52.2207L51.9407 22.26ZM50.2607 21.63H51.7307L51.0307 19.67L50.2607 21.63Z" fill="#878A8F"/>
		<path d="M60.4107 20.09L59.6407 23.1H58.8707L57.6807 19.04H58.4507L59.2207 22.19L60.0607 19.04H60.6207L61.4607 22.19L62.2307 19.04H63.0007L61.9507 23.1H61.1807L60.4107 20.09Z" fill="#878A8F"/>
		<path d="M69.6505 21.35L68.0405 18.97H68.8805L70.0005 20.72L71.1205 18.97H71.9605L70.3505 21.35V23.1H69.6505V21.35Z" fill="#878A8F"/>
		<path d="M77.2803 18.97H80.0803V19.6H77.9803V20.65H80.0103V21.28H77.9803V22.4H80.0803V23.1H77.2803V18.97Z" fill="#878A8F"/>
		<path d="M87.15 21.56H86.45V23.1H85.75V19.04H87.57C88.41 19.04 88.9 19.6 88.9 20.3C88.9 21 88.41 21.42 87.92 21.49L88.9 23.1H88.06L87.15 21.56ZM87.43 19.6H86.45V20.93H87.43C87.85 20.93 88.13 20.65 88.13 20.3C88.13 19.88 87.85 19.6 87.43 19.6Z" fill="#878A8F"/>
		<path d="M94.5706 21.91C94.8506 22.19 95.2706 22.47 95.8306 22.47C96.3906 22.47 96.6706 22.19 96.6706 21.91C96.6706 21.56 96.2506 21.42 95.7606 21.28C95.0606 21.14 94.2906 20.93 94.2906 20.09C94.2906 19.39 94.8506 18.9 95.7606 18.9C96.3906 18.9 96.8806 19.11 97.3006 19.46L96.8806 20.02C96.5306 19.67 96.1106 19.53 95.6906 19.53C95.2706 19.53 94.9906 19.74 94.9906 20.02C94.9906 20.37 95.4106 20.44 95.9006 20.58C96.6006 20.72 97.3706 20.93 97.3706 21.84C97.3706 22.54 96.8806 23.1 95.7606 23.1C94.9906 23.1 94.4306 22.82 94.0806 22.47L94.5706 21.91Z" fill="#878A8F"/>
		<path d="M106.82 21.35H104.51V18.97H105.07V20.79H106.82V21.35Z" fill="#878A8F"/>
		<path d="M104.09 20.79H102.69V21.35H104.09V20.79Z" fill="#2CB34A"/>
	</g>
	<defs>
		<clipPath id="svg1716665957_4985_clip0_4836_2836">
			<rect width="116.13" height="28" fill="white"/>
		</clipPath>
	</defs>
</svg>