<?xml version="1.0" ?>
<svg xmlns="http://www.w3.org/2000/svg" viewBox="0 -0.116 157.501 26.2524786925388">
	<path d="M 123.117,0.01 C 119.353,-0.116 115.284,2.05 113.354,6.128 C 112.156,8.43 111.242,10.992 110.634,13.508 A 22.16,22.16 0.0 0,0 110.482,14.173 C 110.422,14.531 110.417,14.99 110.449,15.458 C 110.598,17.438 112.356,19.832 115.254,19.968 L 118.69,19.968 C 122.453,20.093 126.52,17.926 128.452,13.848 C 129.65,11.546 130.563,8.982 131.171,6.468 C 131.225,6.244 131.277,6.022 131.323,5.802 C 131.386,5.443 131.39,4.986 131.356,4.517 C 131.208,2.536 129.449,0.144 126.552,0.009 L 123.116,0.009 L 123.117,0.01 M 58.584,0.192 L 60.123,19.774 L 63.209,19.774 L 63.191,19.774 L 63.373,19.774 A 1.86,1.86 0.0 0,0 64.861,18.946 L 64.863,18.946 L 77.445,0.193 L 74.191,0.193 L 65.178,13.653 L 64.12,0.194 L 58.583,0.194 L 58.584,0.192 M 79.694,0.192 L 72.473,19.774 L 78.016,19.774 L 85.234,0.193 L 79.694,0.193 L 79.694,0.192 M 92.699,0.192 C 87.72,0.252 85.52,5.792 88.24,9.34 C 89.62,11.025 91.59,12.772 92.703,14.617 C 93.408,15.615 92.654,17.279 91.307,17.295 L 82.516,17.295 L 81.606,19.774 L 92.736,19.774 C 97.099,19.761 100.051,14.624 97.123,10.684 C 95.772,8.688 93.629,7.325 92.361,5.375 C 91.608,4.358 92.365,2.688 93.727,2.67 L 101.909,2.67 L 102.82,0.192 L 92.7,0.192 L 92.699,0.192 M 106.656,0.192 L 99.44,19.775 L 104.981,19.775 L 112.2,0.193 L 106.656,0.193 L 106.656,0.192 M 136.574,0.192 L 129.324,19.774 L 132.18,19.774 L 137.176,6.278 L 137.201,6.52 L 141.689,18.64 A 1.86,1.86 0.0 0,0 143.301,19.774 L 145.912,19.774 L 153.164,0.193 L 150.309,0.193 L 145.409,13.427 L 140.19,0.193 L 136.573,0.193 L 136.574,0.192 M 124.383,2.034 C 125.428,2.114 126.258,2.993 126.258,4.059 C 126.266,4.321 126.221,4.58 126.123,4.817 L 122.461,14.789 C 121.722,16.703 120.005,17.876 117.965,17.936 L 117.424,17.936 A 2.037,2.037 0.0 0,1 115.549,15.91 A 1.828,1.828 0.0 0,1 115.686,15.15 L 119.346,5.178 C 120.086,3.264 121.803,2.094 123.846,2.035 L 124.383,2.035 L 124.383,2.034" fill="#6c6e71"/>
	<path d="M 7.22,0.193 L 0.0,19.775 L 5.885,19.775 L 9.338,10.41 L 16.344,10.41 L 12.891,19.775 L 17.488,19.775 C 18.266,19.775 18.934,19.284 19.205,18.599 C 19.208,18.589 19.211,18.586 19.215,18.581 L 25.995,0.192 L 20.11,0.192 L 17.33,7.732 L 10.324,7.732 L 13.104,0.192 L 7.22,0.192 L 7.22,0.193 M 29.734,0.193 L 22.516,19.775 L 28.398,19.775 L 35.618,0.193 L 29.733,0.193 L 29.734,0.193 M 39.621,0.193 L 32.402,19.775 L 38.285,19.775 L 41.053,12.265 L 42.523,11.136 L 46.426,18.702 L 46.428,18.692 L 46.438,18.71 A 1.862,1.862 0.0 0,0 48.237,19.76 C 48.223,19.76 48.207,19.77 48.192,19.77 L 53.188,19.77 L 46.973,7.717 L 56.776,0.191 L 52.379,0.191 L 42.789,7.554 L 45.504,0.191 L 39.621,0.191 L 39.621,0.193" fill="#d71820"/>
	<path d="M 157.501,1.924 C 157.501,3.015 156.645,3.87 155.531,3.87 C 154.429,3.87 153.551,3.015 153.551,1.924 C 153.551,0.856 154.429,2.22045e-16 155.531,2.22045e-16 C 156.645,2.22045e-16 157.501,0.856 157.501,1.924 M 154.043,1.924 C 154.043,2.78 154.675,3.46 155.543,3.46 C 156.388,3.46 157.009,2.78 157.009,1.935 C 157.009,1.08 156.388,0.387 155.531,0.387 C 154.674,0.387 154.043,1.08 154.043,1.924 M 155.226,2.932 L 154.781,2.932 L 154.781,1.01 A 3.89,3.89 0.0 0,1 155.521,0.95 C 155.883,0.95 156.048,1.01 156.188,1.092 A 0.532,0.532 0.0 0,1 156.375,1.514 C 156.375,1.726 156.211,1.889 155.976,1.959 L 155.976,1.983 C 156.164,2.053 156.27,2.195 156.329,2.453 C 156.388,2.746 156.423,2.863 156.469,2.933 L 155.989,2.933 C 155.93,2.863 155.895,2.687 155.836,2.465 C 155.801,2.253 155.684,2.16 155.438,2.16 L 155.226,2.16 L 155.226,2.933 L 155.226,2.932 M 155.238,1.842 L 155.448,1.842 C 155.695,1.842 155.895,1.76 155.895,1.56 C 155.895,1.385 155.766,1.268 155.484,1.268 C 155.368,1.268 155.285,1.278 155.238,1.291 L 155.238,1.841 L 155.238,1.842" fill="#6c6e71"/>
</svg>