<?xml version="1.0" ?>
<svg xmlns="http://www.w3.org/2000/svg" viewBox="0 0 160 32" fill="none">
	<path d="M6.39563 31.9563H0V0H6.39563V12.7913H19.165V0H25.5606V31.9563H19.165V19.1869H6.39563V31.9563Z" fill="#0F1D21"/>
	<path d="M47.7862 14.7366L40.0791 19.1869V0H47.7862V14.7366Z" fill="#0F1D21"/>
	<path d="M47.7862 31.9562H40.0791V27.5103L47.7862 23.0601V31.9562Z" fill="#0F1D21"/>
	<path d="M86.7061 0L76.2143 31.9563H69.8187L59.3662 0H66.6318L73.0055 21.3246L79.3968 0H86.7061Z" fill="#0F1D21"/>
	<path d="M120.791 31.9563H98.8848V0H120.791V6.39563H105.28V12.7913H115.772V19.1869H105.28V25.5606H120.791V31.9563Z" fill="#0F1D21"/>
	<path d="M160 15.9782C160.01 18.8116 159.255 21.5951 157.814 24.035C157.12 25.2116 156.281 26.2969 155.318 27.2656C153.839 28.7564 152.08 29.9388 150.14 30.744C148.201 31.5493 146.121 31.9613 144.022 31.9563H134.404V1.46789e-05H144.022C146.121 -0.00283829 148.2 0.410212 150.139 1.21531C152.078 2.02042 153.838 3.20162 155.318 4.69072C156.282 5.66009 157.121 6.74695 157.814 7.9257C158.519 9.11789 159.063 10.3982 159.432 11.7333C159.812 13.1161 160.003 14.544 160 15.9782ZM153.604 15.9782C153.613 14.6999 153.359 13.4335 152.857 12.2579C151.884 9.96062 150.056 8.13133 147.759 7.1563C146.581 6.64705 145.31 6.38803 144.026 6.39564H140.839V25.5607H144.026C145.309 25.5684 146.579 25.314 147.759 24.8131C150.062 23.8453 151.893 22.0138 152.861 19.7115C153.361 18.5308 153.614 17.2603 153.604 15.9782V15.9782Z" fill="#0F1D21"/>
</svg>