<?xml version="1.0" ?>
<svg xmlns="http://www.w3.org/2000/svg" version="1.2" viewBox="0 0 1547 584">
	<defs>
		<clipPath clipPathUnits="userSpaceOnUse" id="cp1">
			<path d="m0 1h1546.11v582.88h-1546.11z"/>
		</clipPath>
		<clipPath clipPathUnits="userSpaceOnUse" id="cp2">
			<path d="m0 1h1546.11v582.88h-1546.11z"/>
		</clipPath>
		<clipPath clipPathUnits="userSpaceOnUse" id="cp3">
			<path d="m0 1h1546.11v582.88h-1546.11z"/>
		</clipPath>
	</defs>
	<style>
		.s0 { fill: #00418e } 
	</style>
	<g id="Layer">
		<g id="Clip-Path" clip-path="url(#cp1)">
			<path id="Layer" class="s0" d="m1316.6 583.9c10.7 0 19.1-8.4 19.1-19.1v-426.1c0-10.7 8.4-19.1 19.2-19.1h78c10.7 0 24.5-6.9 32.1-14.6l78.1-89.5c3.8-4.6 4.5-9.1 2.2-11.4-1.5-1.6-4.5-3.1-9.1-3.1h-431.5c-10.7 0-25.3 6.1-32.1 14.5l-78.1 89.5c-4.6 5.4-4.6 9.2-2.3 12.3 1.6 1.5 4.6 2.3 8.5 2.3h180.5c10.7 0 19.1 8.4 19.1 19.1v13.8 412.3c0 4.5 1.6 9.1 4.6 12.2 0.8 0.8 0.8 0.8 1.5 1.5 3.1 3.1 7.7 5.4 13 5.4z"/>
		</g>
		<g id="Clip-Path" clip-path="url(#cp2)">
			<path id="Layer" class="s0" d="m339.7 583.9h97.1c10.7 0 19.2-8.4 19.2-19.1v-544.7c0-5.3-2.3-9.9-5.4-13-3.1-3.8-8.4-6.1-13-6.1h-97.9c-10.7 0-19.2 8.4-19.2 19.1v168.3c0 10.7-8.4 19.1-19.1 19.1h-132.3-14.6c-10.7 0-19.1-8.4-19.1-19.1v-168.3c0-4.6-1.5-9.2-4.6-12.2-3-3.8-8.4-6.9-14.5-6.9h-97.2c-10.7 0-19.1 8.4-19.1 19.1v544.7c0 5.3 2.3 9.1 5.4 13 3.8 3.8 8.4 6.1 13.7 6.1h97.2c10.7 0 19.1-8.4 19.1-19.1v-207.3c0-10.7 8.4-19.2 19.1-19.2h146.9c10.7 0 19.1 8.5 19.1 19.2v14.5 192.8c0 5.3 2.3 9.9 5.4 13 3.8 3 8.4 6.1 13.8 6.1z"/>
		</g>
		<g id="Clip-Path" clip-path="url(#cp3)">
			<path id="Layer" class="s0" d="m997.6 583.9c9.2 0 13-5.4 10.7-13 0-0.8-0.8-2.3-1.5-3.1l-179.8-277.7-18.4-28.3c-6.1-9.1-4.6-22.1 2.3-30.6l188.2-215.7c3.1-3.8 4.6-6.9 3.1-9.9-0.8-3.1-4.6-4.6-10-4.6h-123.9c-10.7 0-24.5 6.1-31.4 14.5l-140 165.3-22.9 27.5c-6.9 7.6-12.3 6.1-12.3-4.6v-183.6c0-4.6-1.5-8.4-4.5-12.2-3.1-3.8-8.5-6.9-14.6-6.9h-94.8c-10.8 0-19.2 8.4-19.2 19.1v543.9c0 5.3 2.3 10.7 6.2 13.8 3.8 3 8.4 5.3 13 5.3h94.8c10.7 0 19.1-8.4 19.1-19.1v-144.6c0-10.7 5.4-25.2 13.1-33.6l19.8-21.5c6.9-7.6 17.6-6.8 23 2.3l18.4 29.1 109.4 172.1c1.5 2.3 3 3.8 5.3 6.1 6.9 6.2 16.1 10 24.5 10z"/>
		</g>
	</g>
</svg>