<?xml version="1.0" ?>
<!-- Created with Inkscape (http://www.inkscape.org/) -->
<svg xmlns="http://www.w3.org/2000/svg" xmlns:sodipodi="http://sodipodi.sourceforge.net/DTD/sodipodi-0.dtd" xmlns:inkscape="http://www.inkscape.org/namespaces/inkscape" viewBox="0 0 51.183734 18.522245" version="1.1" id="svg1763" inkscape:version="0.92.0 r15299" sodipodi:docname="homeserv.svg">
	<defs id="defs1757">
		<clipPath id="clipPath1665" clipPathUnits="userSpaceOnUse">
			<path inkscape:connector-curvature="0" id="path1663" d="m 344.604,741.539 h 144.337 v 51.755 H 344.604 Z"/>
		</clipPath>
	</defs>
	<sodipodi:namedview id="base" pagecolor="#ffffff" bordercolor="#666666" borderopacity="1.0" inkscape:pageopacity="0.0" inkscape:pageshadow="2" inkscape:zoom="2.7685186" inkscape:cx="129.96729" inkscape:cy="-10.13749" inkscape:document-units="mm" inkscape:current-layer="layer1" showgrid="false" fit-margin-top="0" fit-margin-left="0" fit-margin-right="0" fit-margin-bottom="0" units="px" inkscape:window-width="1280" inkscape:window-height="744" inkscape:window-x="-4" inkscape:window-y="-4" inkscape:window-maximized="1"/>
	<g inkscape:label="Layer 1" inkscape:groupmode="layer" id="layer1" transform="translate(-73.570238,-146.99946)">
		<g id="g1791" style="fill:#ef4337;fill-opacity:1" transform="translate(0.13229066,-0.13228627)">
			<path inkscape:connector-curvature="0" id="path1669" style="fill:#ef4337;fill-opacity:1;fill-rule:nonzero;stroke:none;stroke-width:0.35277778" d="m 124.48877,162.35198 c -0.0642,-1.47038 -0.96202,-2.51495 -2.48497,-2.44828 -1.6069,0.0699 -2.66947,1.27388 -2.59785,2.92277 0.0667,1.52258 1.22555,2.7559 3.00037,2.67828 0.83997,-0.0367 1.45662,-0.37923 1.79353,-0.61489 0.22507,-0.14675 0.25788,-0.35842 0.12135,-0.59443 l -0.13511,-0.20461 c -0.14746,-0.23565 -0.25189,-0.28152 -0.50906,-0.14393 -0.24518,0.16827 -0.68898,0.44273 -1.18287,0.45896 -0.94332,0.0314 -1.59314,-0.50694 -1.71379,-1.43968 h 0.004 c 0.43074,0.16615 1.04528,0.2487 1.77306,0.21695 0.79093,-0.0346 1.36772,-0.19402 1.70427,-0.42509 h -0.002 c 0.14464,-0.0861 0.23637,-0.24483 0.22931,-0.40605 M 123.14963,162.05 c -0.30974,-0.11253 -0.69639,-0.16757 -1.155,-0.14746 -0.46672,0.0205 -0.87947,0.10936 -1.21779,0.25153 0.0956,-0.71861 0.55774,-1.21108 1.23931,-1.24107 0.60854,-0.0265 1.0788,0.39405 1.13348,1.137 m -3.50697,-1.51094 c 0.10513,-0.3048 -0.0318,-0.50448 -0.35736,-0.50448 h -0.49424 c -0.25224,0 -0.42051,0.11536 -0.49389,0.36795 l -0.99872,2.95381 c -0.10512,0.31538 -0.18909,0.80962 -0.18909,0.80962 h -0.0212 c 0,0 -0.0945,-0.49424 -0.19967,-0.80962 l -0.99872,-2.95381 c -0.0737,-0.25259 -0.24165,-0.36795 -0.49424,-0.36795 h -0.49389 c -0.32597,0 -0.45226,0.19968 -0.34678,0.50448 l 1.63971,4.49932 c 0.0737,0.25224 0.24165,0.35737 0.49424,0.35737 h 0.84067 c 0.25224,0 0.41028,-0.10513 0.49424,-0.35737 z m -5.34388,0.3048 v -0.40993 c 0,-0.29422 -0.10548,-0.44133 -0.39969,-0.44133 -0.75671,0 -1.3455,0.71473 -1.55575,1.35608 h -0.0208 c 0,0 0.0314,-0.16827 0.0314,-0.36795 v -0.50482 c 0,-0.28364 -0.15769,-0.44133 -0.44168,-0.44133 h -0.40993 c -0.28363,0 -0.43109,0.15769 -0.43109,0.44133 l 3.5e-4,4.47851 c 0,0.29422 0.14711,0.44133 0.43074,0.44133 h 0.4625 c 0.28398,0 0.43109,-0.14711 0.43109,-0.44133 v -1.72438 c 0,-0.97754 0.47308,-1.94451 1.45062,-1.94451 0.28399,0 0.45226,-0.15804 0.45226,-0.44167 m -3.63078,1.50812 c -0.0642,-1.47038 -0.96203,-2.51495 -2.48497,-2.44828 -1.6069,0.0699 -2.66982,1.27388 -2.5975,2.92277 0.0663,1.52258 1.22484,2.7559 2.99967,2.67828 0.84031,-0.0367 1.45661,-0.37923 1.79352,-0.61489 0.22507,-0.14675 0.25788,-0.35842 0.12135,-0.59443 l -0.13511,-0.20461 c -0.14711,-0.23565 -0.25188,-0.28152 -0.50871,-0.14393 -0.24518,0.16827 -0.68932,0.44273 -1.18286,0.45896 -0.94333,0.0314 -1.59314,-0.50694 -1.71415,-1.43968 h 0.004 c 0.43074,0.16615 1.04564,0.2487 1.77342,0.21695 0.79092,-0.0346 1.36772,-0.19402 1.70391,-0.42509 h -0.002 c 0.14464,-0.0861 0.23636,-0.24483 0.22931,-0.40605 M 109.3285,162.05 c -0.30939,-0.11253 -0.69603,-0.16757 -1.15464,-0.14746 -0.46673,0.0205 -0.87948,0.10936 -1.21779,0.25153 0.0953,-0.71861 0.55739,-1.21108 1.23931,-1.24107 0.60854,-0.0265 1.07879,0.39405 1.13312,1.137 m -7.49159,-2.15229 c 0,-0.50448 0.44168,-0.84067 1.13524,-0.84067 0.5782,0 0.98813,0.23107 1.29328,0.40992 0.22049,0.11571 0.44133,0.1577 0.59902,-0.1471 l 0.18909,-0.34714 c 0.12629,-0.23107 0.0945,-0.43074 -0.13653,-0.59901 -0.31538,-0.23143 -1.04069,-0.56798 -1.9237,-0.56798 -1.41922,0 -2.51248,0.85161 -2.51248,2.16571 0,2.32304 3.47945,2.02882 3.47945,3.44805 0,0.50447 -0.42016,0.8516 -1.11407,0.8516 -0.7359,0 -1.27212,-0.37853 -1.51377,-0.5468 -0.26282,-0.14711 -0.44168,-0.13688 -0.6096,0.0945 l -0.23143,0.33655 c -0.21025,0.28399 -0.10512,0.46249 0.0631,0.6096 0.3676,0.28399 1.22979,0.75671 2.29165,0.75671 1.56633,0 2.47015,-0.99836 2.47015,-2.20733 0,-2.37596 -3.47945,-2.0186 -3.47945,-3.41665 m -1.75613,4.45452 c 0.18803,-0.19226 0.17427,-0.40605 -0.0102,-0.60678 l -0.176035,-0.17039 c -0.194733,-0.19861 -0.306917,-0.22084 -0.528108,-0.0307 -0.202848,0.21766 -0.576792,0.58173 -1.055511,0.70414 -0.914048,0.23495 -1.664759,-0.14993 -1.984728,-1.03434 l 0.0035,-0.001 c 0.456847,0.0688 1.074561,0.0166 1.778352,-0.1718 0.764823,-0.20497 1.293284,-0.48542 1.571625,-0.78387 l -0.0018,3.5e-4 c 0.122414,-0.11536 0.1778,-0.29034 0.13582,-0.44627 -0.381,-1.42134 -1.483431,-2.24684 -2.955925,-1.85243 -1.553633,0.41628 -2.33045,1.82174 -1.903589,3.41595 0.394758,1.47214 1.792817,2.42534 3.508728,1.96532 0.812447,-0.21731 1.33985,-0.68509 1.617841,-0.98813 m -3.933827,-1.9304 c -0.06209,-0.72214 0.282222,-1.30316 0.941564,-1.47955 0.588433,-0.15769 1.138413,0.15099 1.35255,0.86466 -0.326673,-0.0427 -0.716139,-0.013 -1.159581,0.10583 -0.451203,0.12065 -0.834672,0.29704 -1.134533,0.50906 m -0.220839,-9.83051 c 0,-0.17921 -0.07726,-0.34007 -0.200378,-0.45155 l -4.846814,-4.69724 c -0.110066,-0.11042 -0.262466,-0.1785 -0.430389,-0.1785 -0.167569,0 -0.319263,0.0677 -0.42933,0.17709 l -1.822097,1.77624 -3.53e-4,-0.29739 c 0,-0.3362 -0.272697,-0.6089 -0.608895,-0.6089 h -0.691444 c -0.336197,0 -0.608894,0.2727 -0.608894,0.6089 l -7.06e-4,2.1597 -1.107369,1.0795 c -0.110773,0.11042 -0.179564,0.26317 -0.179564,0.43215 0,0.33585 0.272344,0.60855 0.608894,0.60855 h 0.643114 l 7.06e-4,4.08516 c 0,0.33585 0.272697,0.60854 0.608541,0.60854 h 3.186642 3.988153 c 0.336197,0 0.608894,-0.27269 0.608894,-0.60854 l 0.0039,-4.08516 h 0.668866 c 0.336197,0 0.608542,-0.2727 0.608542,-0.60855 m -2.121958,2.39713 c -0.774348,0.96555 -2.022475,1.54234 -3.339042,1.54305 -1.319389,-7.1e-4 -2.569633,-0.57997 -3.343981,-1.54869 -0.05927,-0.0744 -0.08643,-0.16757 -0.07585,-0.26318 0.01094,-0.0963 0.05821,-0.18168 0.132645,-0.24094 0.06421,-0.0512 0.141464,-0.078 0.223308,-0.078 0.110067,0 0.212372,0.049 0.280458,0.13512 0.638881,0.8008 1.679575,1.27917 2.783417,1.27917 1.102078,0 2.141361,-0.47696 2.779536,-1.27494 0.06879,-0.0854 0.170744,-0.13441 0.280106,-0.13441 0.08184,0 0.159102,0.0272 0.223661,0.0787 0.07479,0.0596 0.121708,0.14499 0.132644,0.24059 0.0099,0.0956 -0.01729,0.18945 -0.07691,0.26353 m -10.7823,4.91984 c -1.629481,0 -2.943578,1.16699 -2.943578,2.8067 0,1.65065 1.314097,2.8067 2.943578,2.8067 1.62948,0 2.953808,-1.15605 2.953808,-2.8067 0,-1.63971 -1.324328,-2.8067 -2.953808,-2.8067 m 1.59773,2.8067 c 0,0.99906 -0.725311,1.67181 -1.59773,1.67181 -0.872772,0 -1.5875,-0.67275 -1.5875,-1.67181 0,-0.98813 0.714728,-1.67146 1.5875,-1.67146 0.872419,0 1.59773,0.68333 1.59773,1.67146 m -4.941711,2.23943 v -6.58071 c 0,-0.28399 -0.147461,-0.44168 -0.431094,-0.44168 H 78.77371 c -0.294217,0 -0.441678,0.15769 -0.441678,0.44168 v 2.64759 c -0.521758,0.28293 -1.078442,0.43498 -1.647825,0.43498 -0.613833,3.5e-4 -1.212144,-0.17816 -1.768475,-0.50447 v -2.5781 c 0,-0.28399 -0.147108,-0.44168 -0.431094,-0.44168 h -0.483659 c -0.283633,0 -0.430741,0.15769 -0.430741,0.44168 v 6.58071 c 0,0.29422 0.147108,0.44133 0.430741,0.44133 h 0.483659 c 0.283986,0 0.431094,-0.14711 0.431094,-0.44133 v -2.71533 c 0.565856,0.27481 1.161345,0.42439 1.768475,0.4251 0.564092,-3.5e-4 1.118306,-0.12912 1.647825,-0.36795 v 2.65818 c 0,0.29422 0.147461,0.44133 0.441678,0.44133 h 0.473075 c 0.283633,0 0.431094,-0.14711 0.431094,-0.44133 m 7.959725,-3.91089 h -0.02117 c 0,0 0.02117,-0.12594 0.02117,-0.24166 v -0.32596 c 0,-0.28364 -0.147108,-0.44133 -0.431094,-0.44133 h -0.409928 c -0.283986,0 -0.431094,0.15769 -0.431094,0.44133 v 4.47851 c 0,0.29422 0.147108,0.44133 0.431094,0.44133 h 0.462492 c 0.283986,0 0.431094,-0.14711 0.431094,-0.44133 v -1.96603 c 0,-0.89358 0.441325,-1.8609 1.387475,-1.8609 0.630767,0 0.714728,0.49459 0.714728,1.07244 v 2.75449 c 3.53e-4,0.29422 0.157691,0.44133 0.441678,0.44133 h 0.462491 c 0.283986,0 0.431095,-0.14711 0.431095,-0.44133 v -1.96603 c 0,-0.93557 0.462491,-1.8609 1.366661,-1.8609 0.620183,0 0.735541,0.46284 0.735541,1.07244 v 2.75449 c 0,0.29422 0.147461,0.44133 0.441678,0.44133 h 0.452261 c 0.283634,0 0.441325,-0.14711 0.441325,-0.44133 v -3.00672 c 0,-1.40864 -0.64135,-2.03941 -1.755422,-2.03941 -0.841022,0 -1.545519,0.5468 -1.829153,1.10384 h -0.02117 c -0.220839,-0.72531 -0.756709,-1.10384 -1.566334,-1.10384 -0.841022,0 -1.492602,0.6096 -1.755422,1.13524"/>
			<path inkscape:connector-curvature="0" id="path1673" style="fill:#ef4337;fill-opacity:1;fill-rule:nonzero;stroke:none;stroke-width:0.35277778" d="m 123.7546,158.53665 c 0.0706,0 0.11007,-0.0434 0.11007,-0.1143 0,-0.0723 -0.0395,-0.11183 -0.10584,-0.11183 h -0.10195 v 0.22613 z m -0.27376,-0.26776 c 0,-0.0561 0.0289,-0.0871 0.0871,-0.0871 h 0.22789 c 0.1517,0 0.24942,0.0956 0.24942,0.24059 0,0.11853 -0.0811,0.18274 -0.133,0.1972 v 0.004 c 0,0 0.008,0.008 0.0272,0.0434 l 0.0889,0.17251 c 0.0314,0.06 0.0127,0.1016 -0.0434,0.1016 h -0.0272 c -0.0497,0 -0.0808,-0.0208 -0.0995,-0.0642 l -0.0995,-0.2159 h -0.10195 v 0.19297 c 0,0.0582 -0.0247,0.0871 -0.0808,0.0871 h -0.0145 c -0.0561,0 -0.0808,-0.0289 -0.0808,-0.0871 z m 0.2593,0.89006 c 0.31961,0 0.56409,-0.26141 0.56409,-0.59337 0,-0.32985 -0.24448,-0.59126 -0.56409,-0.59126 -0.31327,0 -0.55598,0.26141 -0.55598,0.59126 0,0.33196 0.24271,0.59337 0.55598,0.59337 m 0,-1.3529 c 0.41698,0 0.74894,0.33831 0.74894,0.75953 0,0.42157 -0.33196,0.76164 -0.74894,0.76164 -0.40887,0 -0.74084,-0.34007 -0.74084,-0.76164 0,-0.42122 0.33197,-0.75953 0.74084,-0.75953"/>
		</g>
	</g>
</svg>