<?xml version="1.0" ?>
<svg xmlns="http://www.w3.org/2000/svg" viewBox="0 0 61 23" fill="none">
	<g>
		<path fill-rule="evenodd" clip-rule="evenodd" d="M0.453125 0.851562V18.6382H3.68222V12.0099C3.68222 9.57017 4.99712 8.51139 6.51946 8.51139C8.50332 8.51139 8.9415 10.2606 8.9415 11.9637V18.6382H12.169V10.5368C12.169 7.03833 10.0241 5.42747 7.67108 5.42747C6.11663 5.42747 4.65125 6.12968 3.68222 8.20834V0.851562H0.453125ZM20.3138 5.42778C16.3924 5.42778 13.6706 8.25848 13.6706 12.2402C13.6706 16.2447 16.3912 19.0298 20.3122 19.0298C24.2333 19.0298 26.9551 16.245 26.9551 12.2402C26.9551 8.25817 24.2352 5.42778 20.3138 5.42778ZM20.3138 8.51169C22.2519 8.51169 23.5892 10.0307 23.5892 12.2402H23.5877C23.5877 14.4034 22.2497 15.9456 20.3122 15.9456C18.3747 15.9456 17.0138 14.4037 17.0138 12.2402C17.0138 10.0533 18.3756 8.51169 20.3138 8.51169ZM28.5502 22.6916V5.79551H31.7333V8.48843C32.8638 6.11792 34.2707 5.42747 35.9318 5.42747C39.4377 5.42747 41.5369 8.46546 41.5369 12.1709C41.5369 16.4747 38.7457 19.0289 35.701 19.0289C33.8789 19.0289 32.495 18.1311 31.78 16.2671V22.6906L28.5502 22.6916ZM38.1912 12.2398C38.1912 10.0533 36.8303 8.51138 34.9621 8.51138C33.0939 8.51138 31.7103 10.0533 31.7103 12.2402C31.7103 14.4269 33.0943 15.9456 34.9628 15.9456C36.8542 15.9453 38.1912 14.381 38.1912 12.2398ZM48.4162 5.79551V18.6382H51.6453V12.0099C51.6453 9.57017 52.9586 8.51138 54.4826 8.51138C56.466 8.51138 56.9043 10.2606 56.9043 11.9637V18.6382H60.1337V10.5368C60.1337 7.03832 58.0118 5.42747 55.6357 5.42747C54.0673 5.42747 52.568 6.14089 51.5992 8.25817V5.79551H48.4162ZM43.175 18.6382V5.79548H46.404V18.6382H43.175ZM44.7893 0.851562C43.6545 0.851562 42.7694 1.73534 42.7694 2.82144C42.7694 3.90848 43.6545 4.79257 44.7893 4.79257C45.9012 4.79257 46.7866 3.90848 46.7866 2.82144C46.7866 1.73441 45.9012 0.851562 44.7893 0.851562Z" fill="#222222"/>
	</g>
</svg>
