<?xml version="1.0" ?>
<svg xmlns="http://www.w3.org/2000/svg" viewBox="0 0 32 32">
	<g fill="none" fill-rule="evenodd">
		<circle cx="16" cy="16" r="16" fill="#16203A" fill-rule="nonzero"/>
		<g fill="#FFF">
			<g opacity=".7">
				<path d="M 15.445,17.082 A 11.72,11.72 0.0 0,0 11.36,19.088 A 5.52,5.52 0.0 0,0 15.96,21.48 A 5.52,5.52 0.0 0,0 21.416,16.972 A 15.52,15.52 0.0 0,0 18.499,16.678 A 12.116,12.116 0.0 0,0 15.426,17.064"/>
				<path d="M 15.445,17.082 A 11.72,11.72 0.0 0,0 11.36,19.088 A 5.52,5.52 0.0 0,0 15.96,21.48 A 5.52,5.52 0.0 0,0 21.416,16.972 A 15.52,15.52 0.0 0,0 18.499,16.678 A 12.116,12.116 0.0 0,0 15.426,17.064"/>
				<path d="M 23.136,12.4 A 8.013,8.013 0.0 0,1 15.96,23.974 A 7.976,7.976 0.0 0,1 12.4,23.145 L 9.548,24.985 A 10.985,10.985 0.0 0,0 15.96,27.0 C 22.057,27.0 27.0,22.057 27.0,15.96 A 11.04,11.04 0.0 0,0 24.948,9.52 L 23.136,12.4 L 23.136,12.4"/>
				<path d="M 23.136,12.4 A 8.013,8.013 0.0 0,1 15.96,23.974 A 7.976,7.976 0.0 0,1 12.4,23.145 L 9.548,24.985 A 10.985,10.985 0.0 0,0 15.96,27.0 C 22.057,27.0 27.0,22.057 27.0,15.96 A 11.04,11.04 0.0 0,0 24.948,9.52 L 23.136,12.4 L 23.136,12.4"/>
			</g>
			<path d="M 8.407,18.637 A 8.013,8.013 0.0 0,1 19.567,8.802 L 22.418,6.962 A 11.04,11.04 0.0 0,0 7.11,22.556 A 13.294,13.294 0.0 0,1 21.526,15.96 A 5.533,5.533 0.0 0,0 10.486,16.714 A 14.582,14.582 0.0 0,0 8.416,18.619"/>
		</g>
	</g>
</svg>