<?xml version="1.0" ?>
<svg xmlns="http://www.w3.org/2000/svg" version="1.2" baseProfile="tiny-ps" viewBox="0 0 512 512">
	<g transform="translate(0.000000,512.000000) scale(0.100000,-0.100000)" fill="#000000" stroke="none">
		<path d="M2262 4947 l-292 -170 0 -913 0 -914 585 0 585 0 0 555 0 555 300 0 300 0 0 -1685 c0 -927 2 -1685 5 -1685 2 0 235 134 517 298 l513 299 0 386 c0 213 -1 789 -3 1280 l-2 892 -38 21 c-57 31 -2027 1162 -2107 1209 l-70 41 -293 -169z" fill="#676767"/>
		<path d="M861 4134 c-277 -161 -508 -297 -513 -302 -6 -6 -7 -480 -2 -1285 l7 -1276 1086 -622 c597 -343 1095 -628 1106 -636 19 -11 49 4 308 154 l287 167 0 1023 0 1023 -585 0 -585 0 0 -655 0 -655 -300 0 -300 0 -2 1679 -3 1678 -504 -293z" fill="#DB0E25"/>
	</g>
</svg>