<?xml version="1.0" ?>
<svg xmlns="http://www.w3.org/2000/svg" fill="none" viewBox="0 0 100 100">
	<path d="M 42.16,40.92 C 53.72,34.48 69.63,25.67 69.63,0.02 L 50.36,0.02 C 50.36,14.33 43.43,18.19 32.86,24.12 C 21.31,30.52 5.4,39.32 5.4,65.02 L 24.6,65.02 C 24.6,50.66 31.6,46.75 42.16,40.92 L 42.16,40.92 M 75.41,34.97 C 75.41,49.34 68.41,53.24 57.79,59.07 C 46.24,65.52 30.39,74.32 30.39,99.97 L 49.65,99.97 C 49.65,85.66 56.58,81.81 67.15,75.87 C 78.71,69.47 94.61,60.62 94.61,34.97 L 75.41,34.97" fill="#ff3200"/>
</svg>