<?xml version="1.0" ?>
<svg xmlns="http://www.w3.org/2000/svg"  viewBox="0 0 159.004 41.628">
	<defs>
		<clipPath id="clip-path">
			<rect id="Rectángulo_75" data-name="Rectángulo 75" width="159.004" height="41.628" fill="none"/>
		</clipPath>
	</defs>
	<g id="Grupo_1475" data-name="Grupo 1475" transform="translate(0 0)">
		<path id="Trazado_142" data-name="Trazado 142" d="M73.861,10.956h4.947v9.27h10.7v-9.27h4.947V35.139H89.507V24.7h-10.7V35.139H73.861Z" transform="translate(-24.146 -3.581)" fill="#fff"/>
		<g id="Grupo_173" data-name="Grupo 173" transform="translate(0 0)">
			<g id="Grupo_172" data-name="Grupo 172" clip-path="url(#clip-path)">
				<path id="Trazado_143" data-name="Trazado 143" d="M122,24.191h-1.319c-2.968,0-4.873,1.612-4.873,4.727v9.05h-4.947V19.83h4.543v2.162a6.29,6.29,0,0,1,4.984-2.381A5.358,5.358,0,0,1,122,19.83Z" transform="translate(-36.244 -6.411)" fill="#fff"/>
				<path id="Trazado_144" data-name="Trazado 144" d="M134.1,5.566a3.062,3.062,0,1,1,0,6.119,3.061,3.061,0,1,1,0-6.119m-2.455,9.673H136.6V33.377H131.65Z" transform="translate(-42.81 -1.82)" fill="#fff"/>
				<path id="Trazado_145" data-name="Trazado 145" d="M163.221,6.056V33.537h-4.543V31.3a6.9,6.9,0,0,1-5.826,2.674c-5.056,0-8.794-4.03-8.794-9.49S147.8,15,152.852,15a7.009,7.009,0,0,1,5.423,2.161V6.056Zm-9.453,13.411a4.684,4.684,0,0,0-4.69,4.983c0,3.042,2.015,5.021,4.69,5.021,2.492,0,4.58-1.722,4.58-4.984,0-3.225-2.089-5.02-4.58-5.02" transform="translate(-47.095 -1.98)" fill="#fff"/>
				<path id="Trazado_146" data-name="Trazado 146" d="M182.234,30.476c.586,2.309,2.455,3.591,5.093,3.591a8.179,8.179,0,0,0,5.057-1.831l2.052,3.371a11.093,11.093,0,0,1-7.255,2.711,9.508,9.508,0,0,1-9.93-9.49,9.355,9.355,0,0,1,9.49-9.491,8.253,8.253,0,0,1,8.538,8.428,11.646,11.646,0,0,1-.331,2.711ZM190.478,27a3.691,3.691,0,0,0-3.921-3.664A4.467,4.467,0,0,0,182.234,27Z" transform="translate(-57.945 -6.321)" fill="#fff"/>
				<path id="Trazado_147" data-name="Trazado 147" d="M220.382,24.191h-1.319c-2.968,0-4.873,1.612-4.873,4.727v9.05h-4.947V19.83h4.543v2.162a6.29,6.29,0,0,1,4.984-2.381,5.358,5.358,0,0,1,1.612.219Z" transform="translate(-68.405 -6.411)" fill="#fff"/>
				<path id="Trazado_148" data-name="Trazado 148" d="M37.076,29.31V12.32a3.824,3.824,0,0,0-1.912-3.312L20.45.513a3.824,3.824,0,0,0-3.824,0L1.912,9.008A3.824,3.824,0,0,0,0,12.32V29.31a3.825,3.825,0,0,0,1.912,3.312l14.714,8.5a3.828,3.828,0,0,0,3.824,0l14.714-8.5a3.825,3.825,0,0,0,1.912-3.312" transform="translate(0 0)" fill="#da1968"/>
				<path id="Trazado_149" data-name="Trazado 149" d="M33.948,32.519a12.455,12.455,0,1,1-24.91,0" transform="translate(-2.955 -10.631)" fill="#fff"/>
				<path id="Trazado_150" data-name="Trazado 150" d="M227.329,15.205h-1.012v-.746h2.85v.746h-1.011v2.568h-.827Zm2.311-.805h.273l1.41,1.75,1.409-1.75h.258v3.374h-.827V16.283l-.716.9h-.266l-.709-.9v1.491h-.834Z" transform="translate(-73.986 -4.708)" fill="#fff"/>
			</g>
		</g>
	</g>
</svg>