<?xml version="1.0" ?>
<svg xmlns="http://www.w3.org/2000/svg" viewBox="0 0 128 128.01">
	<defs>
		<linearGradient id="a" x1="97.92" y1="109.04" x2="45.83" y2="80.1" gradientUnits="userSpaceOnUse">
			<stop offset="0" stop-color="#ffee45"/>
			<stop offset="1" stop-color="#9758fb"/>
		</linearGradient>
		<linearGradient id="b" x1="-5.89" y1="-325.64" x2="125.89" y2="-325.64" gradientTransform="translate(0 420.73)" gradientUnits="userSpaceOnUse">
			<stop offset="0" stop-color="#00b8f1"/>
			<stop offset=".31" stop-color="#9758fb"/>
			<stop offset=".99" stop-color="#ffee45"/>
		</linearGradient>
		<linearGradient id="c" x1="72.37" y1="-419.23" x2="70.85" y2="-348.95" gradientTransform="translate(0 420.73)" gradientUnits="userSpaceOnUse">
			<stop offset=".33" stop-color="#00b8f1"/>
			<stop offset=".97" stop-color="#9758fb"/>
		</linearGradient>
		<linearGradient id="d" x1="56.83" y1="-403.45" x2="39.21" y2="-365.8" gradientTransform="translate(0 420.73)" gradientUnits="userSpaceOnUse">
			<stop offset=".33" stop-color="#00b8f1"/>
			<stop offset=".79" stop-color="#9758fb"/>
		</linearGradient>
	</defs>
	<path d="M 98.16,86.18 L 95.73,89.9 L 38.0,73.38 L 84.12,123.5 L 84.51,123.93 L 84.71,124.15 A 14.2,14.2 0.0 0,0 88.32,126.72 A 11.72,11.72 0.0 0,0 96.85,127.57 A 13.78,13.78 0.0 0,0 102.85,124.15 L 103.0,124.0 L 103.24,123.75 L 123.24,103.13 L 98.16,86.18" fill="url(#a)"/>
	<path d="M 115.65,74.24 C 109.25,72.53 105.84,72.96 97.73,72.96 L 76.0,72.96 C 75.57,72.96 28.22,62.72 28.22,62.72 L 9.0,80.63 L 8.15,81.48 C -4.66,93.86 -2.52,115.62 16.25,125.0 A 25.71,25.71 0.0 0,0 31.18,127.13 C 31.18,127.13 108.57,110.06 109.05,110.05 A 12.12,12.12 0.0 0,0 113.52,109.21 C 125.04,105.8 129.73,95.13 127.17,85.74 C 125.47,81.06 121.63,75.94 115.65,74.24 L 115.65,74.24" fill="url(#b)"/>
	<path d="M 112.24,1.71 A 17.76,17.76 0.0 0,0 100.72,0.43 L 19.23,7.25 L 15.39,41.0 L 77.26,75.52 L 87.93,75.95 L 121.2,40.1 C 132.29,29.0 130.16,9.0 112.24,1.71" fill="url(#c)"/>
	<path d="M 83.66,75.94 L 35.87,15.36 C 33.74,12.36 30.75,10.24 26.48,8.53 A 15.61,15.61 0.0 0,0 16.67,7.68 C -0.82,11.52 -5.08,30.72 6.43,41.0 L 39.71,75.09 L 83.66,75.94" fill="url(#d)"/>
	<path d="M 21.37,21.33 L 106.7,21.33 L 106.7,106.66 L 21.37,106.66 L 21.37,21.33"/>
	<path fill="#fff" d="M 30.75,93.01 L 62.75,93.01 L 62.75,98.13 L 30.75,98.13 L 30.75,93.01"/>
	<g fill="#fff">
		<path d="M 29.0,34.13 L 36.68,34.13 L 36.68,49.49 L 51.23,49.49 L 51.23,34.13 L 58.91,34.13 L 58.91,72.53 L 51.23,72.53 L 51.23,57.17 L 36.73,57.17 L 36.73,72.53 L 29.0,72.53 L 29.0,34.13 M 65.31,34.13 L 81.95,34.13 C 86.22,34.13 89.2,35.41 91.34,37.54 A 8.68,8.68 0.0 0,1 93.9,43.94 A 8.5,8.5 0.0 0,1 89.2,52.0 C 93.47,53.76 96.0,56.32 96.0,61.44 C 96.0,68.26 90.91,72.1 82.8,72.1 L 65.74,72.1 L 65.74,34.1 L 65.31,34.1 L 65.31,34.13 M 86.22,45.65 Q 86.22,41.81 81.1,41.81 L 73.42,41.81 L 73.42,49.92 L 80.67,49.92 C 83.67,49.49 86.22,48.21 86.22,45.65 L 86.22,45.65 M 82.38,56.74 L 73.38,56.74 L 73.38,65.27 L 82.8,65.27 C 86.21,65.27 88.35,63.99 88.35,61.0 C 87.92,58.0 86.22,56.746 82.38,56.746 L 82.38,56.74"/>
	</g>
</svg>