<?xml version="1.0" ?>
<svg xmlns="http://www.w3.org/2000/svg" viewBox="0 0 49.9 49.9">
	<path d="M 25.05,49.85 L 24.55,49.65 C 23.55,49.15 19.85,47.15 16.15,43.95 C 12.15,40.55 7.45,34.95 7.45,27.85 L 7.45,4.65 L 7.95,4.35 C 14.45,0.95 24.05,0.05 25.05,0.05 C 26.85,0.05 35.95,1.15 41.95,4.35 L 42.45,4.65 L 42.45,27.75 C 42.45,34.95 37.75,40.55 33.85,43.95 C 30.25,47.15 26.55,49.05 25.55,49.55 L 25.05,49.85" fill="#fdd319"/>
	<path d="M 10.9,28.1 C 10.9,28.4 10.8,28.5 10.6,28.6 L 10.2,28.6 L 10.2,30.0 L 14.2,30.0 L 14.2,28.6 L 13.5,28.5 L 13.5,26.0 L 16.4,26.0 L 16.4,28.1 C 16.4,28.4 16.3,28.5 16.1,28.6 L 15.6,28.6 L 15.6,30.0 L 19.6,30.0 L 19.6,28.6 L 18.9,28.5 L 18.9,22.3 C 18.9,22.0 19.0,21.9 19.2,21.9 L 19.6,21.9 L 19.6,20.5 L 15.7,20.5 L 15.7,21.9 L 16.4,21.9 L 16.4,24.3 L 13.3,24.3 L 13.3,22.3 C 13.3,22.0 13.4,21.9 13.6,21.9 L 14.1,21.9 L 14.1,20.5 L 10.1,20.5 L 10.1,21.9 L 10.9,22.0 L 10.9,28.1 M 29.2,22.3 C 29.2,22.0 29.3,21.9 29.6,21.9 L 30.0,21.9 L 30.0,20.5 L 26.3,20.5 L 26.3,21.9 L 27.0,22.0 L 27.0,27.0 C 27.0,28.0 26.3,28.4 25.5,28.4 C 24.6,28.4 23.8,28.1 23.8,26.9 L 23.8,22.3 C 23.8,22.0 23.9,21.9 24.1,21.9 L 24.6,21.9 L 24.6,20.5 L 20.6,20.5 L 20.6,21.9 L 21.4,22.0 L 21.4,26.9 C 21.4,29.2 22.9,30.2 25.4,30.2 C 27.6,30.2 29.3,29.0 29.3,27.1 L 29.2,22.3 M 36.9,24.2 L 38.8,22.2 C 38.9,22.1 39.1,21.9 39.3,21.9 L 39.7,21.8 L 39.7,20.5 L 36.1,20.5 L 36.1,21.9 L 36.6,21.9 L 33.8,24.8 L 33.8,22.3 C 33.8,22.1 33.9,21.9 34.1,21.9 L 34.5,21.9 L 34.5,20.5 L 30.6,20.5 L 30.6,21.9 L 31.4,22.0 L 31.4,28.2 C 31.4,28.4 31.3,28.6 31.1,28.6 L 30.7,28.7 L 30.7,30.1 L 34.4,30.1 L 34.4,28.7 L 33.9,28.7 L 33.9,27.5 L 35.3,26.1 L 36.5,28.3 C 36.6,28.5 36.6,28.6 36.4,28.7 L 36.0,28.8 L 36.0,30.2 L 40.3,30.2 L 40.3,28.8 L 39.3,28.7 L 36.9,24.2 M 37.3,8.4 L 35.4,13.1 L 35.4,14.7 C 34.6,14.4 33.6,14.1 33.1,13.9 L 32.5,11.0 L 25.2,9.4 L 23.7,12.8 C 22.7,12.9 21.0,13.2 21.0,13.2 L 21.0,10.7 L 20.4,10.2 C 20.4,10.2 20.7,9.8 20.8,9.7 C 21.0,9.3 21.0,8.9 21.0,8.7 C 21.0,7.2 19.2,6.5 19.2,6.5 L 19.0,5.7 L 19.0,5.5 C 19.3,5.3 19.8,5.1 20.5,5.1 C 21.8,5.1 21.9,5.4 22.8,5.5 C 24.7,5.8 25.7,4.4 25.7,4.4 C 25.7,4.4 23.8,5.0 22.8,4.5 C 22.0,4.1 21.4,3.5 20.2,3.5 C 19.1,3.5 18.6,4.0 18.6,4.0 L 18.6,5.8 L 18.4,6.5 C 18.4,6.5 16.6,7.2 16.6,8.7 C 16.6,8.9 16.6,9.3 16.8,9.7 C 16.9,9.9 17.2,10.2 17.2,10.2 L 16.6,10.6 L 16.6,14.3 C 15.9,14.6 15.1,15.0 14.5,15.3 L 14.5,14.1 L 15.0,13.3 L 15.0,11.0 L 14.2,11.0 L 12.7,7.2 L 11.2,11.0 L 10.4,11.0 L 10.4,13.3 L 10.9,14.1 L 10.9,19.1 L 11.9,19.1 L 11.9,13.8 L 11.4,13.1 L 11.4,12.0 L 11.9,12.0 L 12.7,10.0 L 13.5,12.0 L 14.0,12.0 L 14.0,13.1 L 13.5,13.9 L 13.5,17.0 C 13.6,16.9 15.6,15.8 17.6,15.1 L 17.6,11.1 C 17.6,11.1 18.0,10.8 18.1,10.7 C 18.2,10.6 18.2,10.5 18.2,10.3 C 18.2,10.1 18.1,9.9 17.9,9.7 C 17.7,9.4 17.6,9.2 17.6,8.8 C 17.6,7.9 18.8,7.3 18.8,7.3 C 18.8,7.3 20.0,7.9 20.0,8.8 C 20.0,9.1 19.9,9.4 19.7,9.7 C 19.5,9.8 19.4,10.0 19.4,10.2 C 19.4,10.4 19.4,10.5 19.5,10.6 C 19.6,10.7 20.0,11.0 20.0,11.0 L 20.0,14.3 C 20.0,14.3 21.9,13.9 24.3,13.7 L 25.7,10.5 L 31.6,11.8 L 32.2,14.6 C 33.3,14.9 35.3,15.6 36.3,16.1 L 36.3,13.3 L 37.3,11.0 L 38.3,13.3 L 38.3,19.1 L 39.3,19.1 L 39.3,13.1 L 37.3,8.4 M 36.9,31.3 C 34.7,37.4 28.1,41.9 25.0,43.8 C 21.9,41.9 15.3,37.4 13.1,31.3 L 11.8,31.3 C 14.1,39.1 24.9,45.2 25.0,45.2 C 25.1,45.2 35.9,39.1 38.2,31.3 L 36.9,31.3 M 41.4,27.8 C 41.4,34.6 36.9,40.0 33.1,43.3 C 29.5,46.4 25.9,48.3 25.0,48.8 C 24.1,48.3 20.4,46.4 16.8,43.2 C 13.0,39.9 8.5,34.5 8.5,27.8 L 8.5,5.3 C 14.7,2.0 24.0,1.1 25.0,1.1 C 26.5,1.1 35.6,2.2 41.4,5.3 C 41.5,8.0 41.4,26.9 41.4,27.8 M 25.0,0.0 C 20.5,0.1 11.9,2.0 7.4,4.6 L 7.4,27.8 C 7.4,31.0 8.3,34.1 10.1,37.1 C 11.5,39.5 13.6,41.8 16.1,44.0 C 20.4,47.7 24.6,49.7 24.8,49.8 L 25.0,49.9 L 25.2,49.8 C 25.4,49.7 29.6,47.7 33.8,44.0 C 36.3,41.8 38.3,39.5 39.8,37.1 C 41.6,34.1 42.5,30.9 42.5,27.7 L 42.5,4.5 C 37.9,1.8 29.0,0.1 25.0,0.0"/>
</svg>