<?xml version="1.0" ?>
<svg xmlns="http://www.w3.org/2000/svg" xmlns:sodipodi="http://sodipodi.sourceforge.net/DTD/sodipodi-0.dtd" xmlns:inkscape="http://www.inkscape.org/namespaces/inkscape" viewBox="0 0 586.40002 237.97333" sodipodi:docname="Humio_CS_Logos_2021_2Color.eps">
	<sodipodi:namedview pagecolor="#ffffff" bordercolor="#666666" borderopacity="1" objecttolerance="10" gridtolerance="10" guidetolerance="10" inkscape:pageopacity="0" inkscape:pageshadow="2" inkscape:window-width="640" inkscape:window-height="480" id="namedview4"/>
	<g id="g10" inkscape:groupmode="layer" inkscape:label="ink_ext_XXXXXX" transform="matrix(1.3333333,0,0,-1.3333333,0,237.97333)">
		<g id="g12" transform="scale(0.1)">
			<path d="M 1141.13,863.656 L 1141.13,1784.82 L 1245.06,1784.82 L 1245.06,1434.64 C 1312.66,1473.75 1378.48,1493.5 1442.51,1493.89 C 1504.54,1493.89 1555.94,1476.17 1596.71,1440.73 C 1637.47,1405.27 1657.85,1357.29 1657.85,1296.76 L 1657.85,863.656 L 1553.91,863.656 L 1553.91,1299.67 C 1553.91,1367.02 1512.77,1400.7 1430.5,1400.7 C 1372.85,1400.7 1311.04,1378.45 1245.06,1333.95 L 1245.06,863.656 L 1141.13,863.656" style="fill:#254569;fill-opacity:1;fill-rule:nonzero;stroke:none" id="path14"/>
			<path d="M 1830.5,1050.64 L 1830.5,1475.37 L 1934.44,1475.37 L 1934.44,1046.82 C 1934.44,1012.27 1949.44,985.543 1979.45,966.66 C 2009.46,947.766 2044.54,938.332 2084.68,938.332 C 2125.22,938.332 2160.39,947.766 2190.2,966.66 C 2220.02,985.543 2234.92,1012.27 2234.92,1046.82 L 2234.92,1475.37 L 2338.87,1475.37 L 2338.87,1050.64 C 2338.87,986.914 2312.7,936.734 2260.36,900.098 C 2208.02,863.457 2149.37,845.137 2084.39,845.137 C 2019.4,845.137 1960.84,863.27 1908.7,899.504 C 1856.56,935.734 1830.5,986.125 1830.5,1050.64" style="fill:#254569;fill-opacity:1;fill-rule:nonzero;stroke:none" id="path16"/>
			<path d="M 2516.29,863.656 L 2516.29,1475.37 L 2591.5,1475.37 L 2604.34,1440.68 C 2650.13,1476.15 2699.52,1493.89 2752.5,1493.89 C 2783.51,1493.89 2814.64,1488.38 2845.85,1477.36 C 2877.06,1466.32 2901.62,1450.77 2919.53,1430.7 C 2966.82,1472.44 3020.1,1493.5 3079.34,1493.89 C 3127.46,1493.89 3171.89,1481.85 3212.64,1457.75 C 3253.4,1433.65 3273.77,1400.7 3273.77,1358.89 L 3273.77,863.656 L 3169.82,863.656 L 3169.82,1311.5 C 3169.82,1371.37 3134.48,1401.09 3063.78,1400.7 C 3019.68,1400.7 2980.95,1387.13 2947.59,1359.99 L 2947.59,863.656 L 2843.65,863.656 L 2843.65,1311.5 C 2843.65,1371.37 2808.3,1401.09 2737.6,1400.7 C 2691.92,1400.7 2652.8,1386.73 2620.24,1358.79 L 2620.24,863.656 L 2516.29,863.656" style="fill:#254569;fill-opacity:1;fill-rule:nonzero;stroke:none" id="path18"/>
			<path d="M 3475.68,863.656 L 3475.68,1475.37 L 3579.63,1475.37 L 3579.63,863.656 L 3475.68,863.656 M 3475.68,1627.11 L 3475.68,1720.3 L 3579.63,1720.3 L 3579.63,1627.11 L 3475.68,1627.11" style="fill:#254569;fill-opacity:1;fill-rule:nonzero;stroke:none" id="path20"/>
			<path d="M 3907.8,1334.09 C 3867.03,1289.68 3846.65,1234.82 3846.65,1169.52 C 3846.65,1104.2 3867.03,1049.34 3907.8,1004.94 C 3948.57,960.527 4002.75,938.332 4070.37,938.332 C 4137.18,938.332 4191.18,960.527 4232.35,1004.94 C 4273.51,1049.34 4294.09,1104.2 4294.09,1169.52 C 4294.09,1234.82 4273.51,1289.68 4232.35,1334.09 C 4191.18,1378.5 4137.18,1400.7 4070.37,1400.7 C 4002.75,1400.7 3948.57,1378.5 3907.8,1334.09 L 3907.8,1334.09 M 3834.33,938.934 C 3773.25,1001.45 3742.71,1078.31 3742.71,1169.52 C 3742.71,1260.71 3773.35,1337.58 3834.63,1400.11 C 3895.92,1462.62 3974.49,1493.89 4070.37,1493.89 C 4165.31,1493.89 4243.65,1462.43 4305.41,1399.51 C 4367.16,1336.58 4398.03,1259.92 4398.03,1169.52 C 4398.03,1079.11 4367.16,1002.45 4305.41,939.523 C 4243.65,876.594 4165.31,845.137 4070.37,845.137 C 3974.09,845.137 3895.41,876.398 3834.33,938.934" style="fill:#254569;fill-opacity:1;fill-rule:nonzero;stroke:none" id="path22"/>
			<path d="M 642.113,1522.93 C 602.887,1522.93 570.953,1491.04 570.953,1451.81 C 570.953,1412.58 602.887,1380.65 642.113,1380.65 C 681.355,1380.65 713.273,1412.58 713.273,1451.81 C 713.273,1491.04 681.355,1522.93 642.113,1522.93" style="fill:#254569;fill-opacity:1;fill-rule:nonzero;stroke:none" id="path24"/>
			<path d="M 642.125,1282.05 C 548.543,1282.05 472.41,1358.23 472.41,1451.81 C 472.41,1545.39 548.543,1621.53 642.125,1621.53 C 735.699,1621.53 811.832,1545.39 811.832,1451.81 C 811.832,1358.23 735.699,1282.05 642.125,1282.05 M 452.426,1199.86 L 375.867,1276.43 C 409.008,1298.07 435.695,1328.86 452.355,1365.18 C 469.027,1328.82 495.742,1298.02 528.93,1276.38 L 452.426,1199.86 M 262.551,1282.05 C 168.98,1282.05 92.8281,1358.23 92.8281,1451.81 C 92.8281,1545.39 168.98,1621.53 262.551,1621.53 C 356.141,1621.53 432.316,1545.39 432.316,1451.81 C 432.316,1358.23 356.141,1282.05 262.551,1282.05 M 843.797,1399.54 C 848.16,1416.35 851.219,1433.66 851.219,1451.81 C 851.219,1470.48 847.977,1488.25 843.355,1505.48 L 843.355,1693.66 L 821.496,1691.23 C 749.559,1683.29 677.316,1677.98 604.965,1674.7 C 558.051,1694.67 506.457,1705.75 452.34,1705.75 C 398.203,1705.75 346.629,1694.67 299.703,1674.7 C 227.352,1677.98 155.109,1683.29 83.1797,1691.23 L 61.3125,1693.66 L 61.3125,1505.43 C 56.7031,1488.21 53.4648,1470.46 53.4648,1451.81 C 53.4648,1433.65 56.5195,1416.34 60.8828,1399.54 C 27.8555,1380.67 1.53125,1340.25 0.08594,1280.43 C -3.09766,1147.99 86.0391,1021.22 86.0391,1021.22 C 93.7656,1046.91 108.789,1073.36 125.492,1100.68 C 158.66,1050.21 203.23,1008.06 255.445,977.453 C 248.367,977.34 242.414,973.477 238.66,967.871 C 234.836,973.563 228.785,977.531 221.566,977.531 L 215.992,977.531 C 204.34,977.531 194.848,967.785 194.848,955.785 L 194.848,887.488 C 194.848,875.488 204.34,865.738 215.992,865.738 L 221.566,865.738 C 228.785,865.738 234.836,869.715 238.66,875.402 C 242.469,869.715 248.508,865.738 255.73,865.738 L 261.359,865.738 C 268.547,865.738 274.602,869.695 278.426,875.359 C 282.234,869.695 288.273,865.738 295.465,865.738 L 301.098,865.738 C 312.75,865.738 322.242,875.488 322.242,887.488 L 322.242,946.434 C 363.016,931.984 406.676,923.711 452.34,923.711 C 498.004,923.711 541.66,931.988 582.438,946.438 L 582.438,887.488 C 582.438,875.488 591.93,865.738 603.586,865.738 L 609.156,865.738 C 616.359,865.738 622.414,869.699 626.238,875.371 C 630.063,869.699 636.117,865.738 643.324,865.738 L 648.949,865.738 C 656.156,865.738 662.195,869.703 666.004,875.387 C 669.813,869.703 675.852,865.738 683.059,865.738 L 688.688,865.738 C 700.34,865.738 709.777,875.488 709.777,887.488 L 709.777,955.785 C 709.777,967.785 700.34,977.531 688.688,977.531 L 683.059,977.531 C 675.852,977.531 669.813,973.566 666.004,967.887 C 662.254,973.484 656.297,977.344 649.234,977.457 C 701.449,1008.06 746.02,1050.22 779.191,1100.7 C 795.891,1073.38 810.926,1046.91 818.645,1021.22 C 818.645,1021.22 907.797,1147.99 904.613,1280.43 C 903.176,1340.27 876.824,1380.68 843.797,1399.54" style="fill:#254569;fill-opacity:1;fill-rule:nonzero;stroke:none" id="path26"/>
			<path d="M 262.551,1522.93 C 223.328,1522.93 191.434,1491.04 191.434,1451.81 C 191.434,1412.58 223.328,1380.65 262.551,1380.65 C 301.773,1380.65 333.715,1412.58 333.715,1451.81 C 333.715,1491.04 301.773,1522.93 262.551,1522.93" style="fill:#254569;fill-opacity:1;fill-rule:nonzero;stroke:none" id="path28"/>
			<path d="M 2015.94,550.488 L 2089.66,550.488 L 2064.69,630.84 C 2060.02,645.66 2053.39,673.738 2053.39,673.738 L 2052.6,673.738 C 2052.6,673.738 2045.59,645.66 2040.91,630.84 L 2015.94,550.488 M 2024.14,726.781 L 2082.64,726.781 L 2180.92,447.922 L 2122.03,447.922 L 2103.31,507.199 L 2002.68,507.199 L 1984.35,447.922 L 1927.02,447.922 L 2024.14,726.781" style="fill:#ea232c;fill-opacity:1;fill-rule:nonzero;stroke:none" id="path30"/>
			<path d="M 2252.67,586.379 C 2252.67,669.059 2304.15,732.238 2386.44,732.238 C 2455.09,732.238 2495.65,691.289 2501.5,638.25 L 2445.33,638.25 C 2440.27,666.328 2419.21,684.66 2386.44,684.66 C 2334.96,684.66 2310.39,641.762 2310.39,586.379 C 2310.39,529.43 2340.03,488.48 2386.83,488.48 C 2419.98,488.48 2443.39,508.379 2446.9,537.621 L 2502.28,537.621 C 2500.72,513.051 2490.19,489.262 2471.47,471.711 C 2452.36,453.77 2425.45,442.07 2386.83,442.07 C 2308.44,442.07 2252.67,502.531 2252.67,586.379" style="fill:#ea232c;fill-opacity:1;fill-rule:nonzero;stroke:none" id="path32"/>
			<path d="M 2578.32,616.02 L 2579.49,616.02 C 2591.58,638.641 2605.23,650.34 2628.63,650.34 C 2634.48,650.34 2637.99,649.949 2641.11,648.781 L 2641.11,602.371 L 2639.94,602.371 C 2605.23,605.879 2580.27,587.551 2580.27,545.43 L 2580.27,447.922 L 2527.22,447.922 L 2527.22,648.0 L 2578.32,648.0 L 2578.32,616.02" style="fill:#ea232c;fill-opacity:1;fill-rule:nonzero;stroke:none" id="path34"/>
			<path d="M 2809.59,547.762 C 2809.59,586.762 2791.26,613.289 2758.89,613.289 C 2726.13,613.289 2708.19,586.762 2708.19,547.762 C 2708.19,508.77 2726.13,482.629 2758.89,482.629 C 2791.26,482.629 2809.59,508.77 2809.59,547.762 M 2654.37,547.762 C 2654.37,607.441 2696.88,653.461 2758.89,653.461 C 2820.9,653.461 2863.42,607.441 2863.42,547.762 C 2863.42,488.09 2820.9,442.07 2758.89,442.07 C 2696.88,442.07 2654.37,488.09 2654.37,547.762" style="fill:#ea232c;fill-opacity:1;fill-rule:nonzero;stroke:none" id="path36"/>
			<path d="M 2872.37,648.0 L 2925.02,648.0 L 2949.2,555.18 C 2953.49,538.801 2958.17,517.738 2958.17,517.738 L 2958.95,517.738 C 2958.95,517.738 2963.24,539.191 2967.53,555.559 L 2992.49,648.0 L 3037.73,648.0 L 3063.86,555.559 C 3068.15,538.801 3073.23,517.738 3073.23,517.738 L 3074.0,517.738 C 3074.0,517.738 3078.69,538.801 3082.98,555.18 L 3108.33,648.0 L 3159.81,648.0 L 3100.13,447.922 L 3051.77,447.922 L 3025.25,546.211 C 3020.96,562.191 3016.29,580.91 3016.29,580.91 L 3015.51,580.91 C 3015.51,580.91 3010.44,562.191 3006.14,546.211 L 2978.84,447.922 L 2930.87,447.922 L 2872.37,648.0" style="fill:#ea232c;fill-opacity:1;fill-rule:nonzero;stroke:none" id="path38"/>
			<path d="M 3313.08,546.59 C 3313.08,584.82 3300.6,610.559 3266.67,610.559 C 3237.42,610.559 3222.59,584.82 3222.59,547.762 C 3222.59,509.148 3237.81,486.531 3265.1,486.531 C 3296.7,486.531 3313.08,509.93 3313.08,546.59 L 3313.08,546.59 M 3168.78,547.762 C 3168.78,610.172 3204.26,653.461 3254.19,653.461 C 3282.27,653.461 3299.82,640.59 3310.74,623.82 L 3311.91,623.82 L 3311.91,726.781 L 3364.95,726.781 L 3364.95,447.922 L 3313.86,447.922 L 3313.86,474.051 L 3313.08,474.051 C 3301.38,454.941 3281.49,442.07 3253.41,442.07 C 3203.09,442.07 3168.78,483.02 3168.78,547.762" style="fill:#ea232c;fill-opacity:1;fill-rule:nonzero;stroke:none" id="path40"/>
			<path d="M 3391.07,534.109 L 3446.45,534.109 C 3450.35,500.57 3469.46,487.309 3509.25,487.309 C 3538.1,487.309 3563.45,497.449 3563.45,523.191 C 3563.45,550.488 3536.93,555.949 3494.42,565.699 C 3444.5,577.02 3398.86,590.27 3398.86,648.391 C 3398.86,703.379 3443.72,731.852 3505.73,731.852 C 3568.52,731.852 3609.09,701.039 3613.38,644.879 L 3559.17,644.879 C 3556.04,672.961 3534.21,687.0 3505.34,687.0 C 3474.92,687.0 3455.03,674.129 3455.03,654.238 C 3455.03,631.621 3474.53,624.988 3515.88,616.02 C 3573.2,603.539 3620.01,589.891 3620.01,529.828 C 3620.01,473.27 3574.37,441.68 3511.58,441.68 C 3435.92,441.68 3393.01,475.219 3391.07,534.109" style="fill:#ea232c;fill-opacity:1;fill-rule:nonzero;stroke:none" id="path42"/>
			<path d="M 3637.94,648.0 L 3665.63,648.0 L 3665.63,710.398 L 3717.5,710.398 L 3717.5,648.0 L 3751.82,648.0 L 3751.82,612.898 L 3717.5,612.898 L 3717.5,506.809 C 3717.5,491.988 3725.69,486.922 3737.39,486.922 C 3744.02,486.922 3753.0,487.309 3753.0,487.309 L 3753.0,448.309 C 3753.0,448.309 3740.91,447.531 3719.84,447.531 C 3694.1,447.531 3665.63,457.672 3665.63,495.5 L 3665.63,612.898 L 3637.94,612.898 L 3637.94,648.0" style="fill:#ea232c;fill-opacity:1;fill-rule:nonzero;stroke:none" id="path44"/>
			<path d="M 3830.2,616.02 L 3831.37,616.02 C 3843.46,638.641 3857.12,650.34 3880.51,650.34 C 3886.36,650.34 3889.87,649.949 3893.0,648.781 L 3893.0,602.371 L 3891.82,602.371 C 3857.12,605.879 3832.16,587.551 3832.16,545.43 L 3832.16,447.922 L 3779.11,447.922 L 3779.11,648.0 L 3830.2,648.0 L 3830.2,616.02" style="fill:#ea232c;fill-opacity:1;fill-rule:nonzero;stroke:none" id="path46"/>
			<path d="M 3916.0,648.0 L 3969.05,648.0 L 3969.05,447.922 L 3916.0,447.922 L 3916.0,648.0 M 3916.0,726.781 L 3969.05,726.781 L 3969.05,679.199 L 3916.0,679.199 L 3916.0,726.781" style="fill:#ea232c;fill-opacity:1;fill-rule:nonzero;stroke:none" id="path48"/>
			<path d="M 4079.02,539.191 L 4056.01,515.391 L 4056.01,447.922 L 4003.36,447.922 L 4003.36,726.781 L 4056.01,726.781 L 4056.01,572.34 L 4126.99,648.0 L 4190.56,648.0 L 4116.85,571.941 L 4199.54,447.922 L 4135.18,447.922 L 4079.02,539.191" style="fill:#ea232c;fill-opacity:1;fill-rule:nonzero;stroke:none" id="path50"/>
			<path d="M 4246.33,569.609 L 4335.25,569.609 C 4333.69,594.961 4316.92,612.512 4292.74,612.512 C 4264.66,612.512 4251.01,595.738 4246.33,569.609 M 4193.29,548.16 C 4193.29,607.441 4233.45,653.461 4291.96,653.461 C 4356.32,653.461 4390.63,604.32 4390.63,532.949 L 4245.54,532.949 C 4249.45,502.129 4266.61,483.02 4296.64,483.02 C 4317.31,483.02 4329.4,492.379 4335.25,507.59 L 4387.52,507.59 C 4380.1,472.102 4348.51,442.07 4297.03,442.07 C 4230.73,442.07 4193.29,488.48 4193.29,548.16" style="fill:#ea232c;fill-opacity:1;fill-rule:nonzero;stroke:none" id="path52"/>
			<path d="M 2757.32,203.98 C 2757.32,286.66 2808.81,349.84 2891.1,349.84 C 2959.74,349.84 3000.3,308.891 3006.15,255.852 L 2949.99,255.852 C 2944.92,283.93 2923.85,302.262 2891.1,302.262 C 2839.62,302.262 2815.05,259.359 2815.05,203.98 C 2815.05,147.031 2844.68,106.078 2891.48,106.078 C 2924.64,106.078 2948.03,125.969 2951.55,155.219 L 3006.93,155.219 C 3005.37,130.648 2994.84,106.859 2976.12,89.3086 C 2957.01,71.3711 2930.09,59.6719 2891.48,59.6719 C 2813.09,59.6719 2757.32,120.121 2757.32,203.98" style="fill:#ea232c;fill-opacity:1;fill-rule:nonzero;stroke:none" id="path54"/>
			<path d="M 3177.35,165.359 C 3177.35,204.371 3159.02,230.879 3126.65,230.879 C 3093.88,230.879 3075.94,204.371 3075.94,165.359 C 3075.94,126.359 3093.88,100.23 3126.65,100.23 C 3159.02,100.23 3177.35,126.359 3177.35,165.359 L 3177.35,165.359 M 3022.13,165.359 C 3022.13,225.039 3064.64,271.059 3126.65,271.059 C 3188.66,271.059 3231.17,225.039 3231.17,165.359 C 3231.17,105.691 3188.66,59.6719 3126.65,59.6719 C 3064.64,59.6719 3022.13,105.691 3022.13,165.359" style="fill:#ea232c;fill-opacity:1;fill-rule:nonzero;stroke:none" id="path56"/>
			<path d="M 3255.73,265.602 L 3306.82,265.602 L 3306.82,238.68 L 3308.0,238.68 C 3318.91,257.02 3338.42,271.059 3366.11,271.059 C 3391.46,271.059 3411.74,257.02 3421.49,235.949 L 3422.27,235.949 C 3435.92,257.789 3456.98,271.059 3482.33,271.059 C 3524.45,271.059 3548.24,243.762 3548.24,200.07 L 3548.24,65.5195 L 3495.2,65.5195 L 3495.2,191.102 C 3495.2,213.719 3483.89,225.43 3464.39,225.43 C 3442.16,225.43 3428.51,208.262 3428.51,181.738 L 3428.51,65.5195 L 3375.47,65.5195 L 3375.47,191.102 C 3375.47,213.719 3364.16,225.43 3344.66,225.43 C 3323.2,225.43 3308.78,208.262 3308.78,181.738 L 3308.78,65.5195 L 3255.73,65.5195 L 3255.73,265.602" style="fill:#ea232c;fill-opacity:1;fill-rule:nonzero;stroke:none" id="path58"/>
			<path d="M 3725.3,163.801 C 3725.3,201.629 3712.04,228.16 3679.27,228.16 C 3646.13,228.16 3632.87,199.68 3632.87,163.801 C 3632.87,127.531 3649.64,103.738 3681.23,103.738 C 3708.14,103.738 3725.3,125.969 3725.3,163.801 M 3580.99,265.602 L 3632.09,265.602 L 3632.09,240.641 L 3633.26,240.641 C 3646.13,258.18 3664.85,271.059 3692.15,271.059 C 3745.19,271.059 3779.12,227.762 3779.12,165.359 C 3779.12,100.621 3744.02,59.6719 3692.54,59.6719 C 3664.46,59.6719 3646.13,70.9805 3634.82,88.1406 L 3634.04,88.1406 L 3634.04,0.0 L 3580.99,0.0 L 3580.99,265.602" style="fill:#ea232c;fill-opacity:1;fill-rule:nonzero;stroke:none" id="path60"/>
			<path d="M 3923.81,136.109 L 3923.81,166.141 C 3914.45,160.68 3900.02,157.559 3886.76,154.441 C 3859.06,148.199 3845.42,141.961 3845.42,123.238 C 3845.42,104.52 3857.9,97.8906 3876.62,97.8906 C 3907.04,97.8906 3923.81,116.609 3923.81,136.109 L 3923.81,136.109 M 3923.42,87.75 L 3922.63,87.75 C 3912.5,72.5391 3898.06,60.8398 3863.75,60.8398 C 3822.79,60.8398 3793.93,82.2891 3793.93,122.07 C 3793.93,166.141 3829.81,180.18 3874.27,186.422 C 3907.43,191.102 3922.63,193.828 3922.63,209.039 C 3922.63,223.469 3911.33,232.828 3889.1,232.828 C 3864.14,232.828 3852.05,223.859 3850.49,204.75 L 3803.29,204.75 C 3804.85,239.852 3830.98,270.672 3889.49,270.672 C 3949.55,270.672 3973.73,243.762 3973.73,196.949 L 3973.73,95.1602 C 3973.73,79.9492 3976.07,70.9805 3980.75,67.4688 L 3980.75,65.5195 L 3929.66,65.5195 C 3926.54,69.4219 3924.59,78.7813 3923.42,87.75" style="fill:#ea232c;fill-opacity:1;fill-rule:nonzero;stroke:none" id="path62"/>
			<path d="M 4059.13,238.301 L 4060.3,238.301 C 4073.95,259.75 4092.28,271.059 4119.58,271.059 C 4160.92,271.059 4188.61,239.852 4188.61,196.172 L 4188.61,65.5195 L 4135.57,65.5195 L 4135.57,188.379 C 4135.57,209.828 4123.09,225.039 4100.86,225.039 C 4077.46,225.039 4060.3,206.309 4060.3,179.012 L 4060.3,65.5195 L 4007.25,65.5195 L 4007.25,265.602 L 4059.13,265.602 L 4059.13,238.301" style="fill:#ea232c;fill-opacity:1;fill-rule:nonzero;stroke:none" id="path64"/>
			<path d="M 4225.66,41.7305 L 4244.38,41.7305 C 4265.44,41.7305 4274.02,52.6484 4274.02,69.0313 C 4274.02,79.9492 4270.11,92.8203 4258.81,123.238 L 4204.99,265.602 L 4260.76,265.602 L 4290.4,175.5 C 4296.64,157.172 4303.27,131.82 4303.27,131.82 L 4304.05,131.82 C 4304.05,131.82 4309.51,157.172 4315.75,175.5 L 4343.84,265.602 L 4397.26,265.602 L 4327.45,60.4492 C 4312.24,15.9883 4297.42,0.0 4256.86,0.0 L 4225.66,0.0 L 4225.66,41.7305" style="fill:#ea232c;fill-opacity:1;fill-rule:nonzero;stroke:none" id="path66"/>
		</g>
	</g>
</svg>