<svg viewBox="0 0 101 18" fill="none" xmlns="http://www.w3.org/2000/svg">
<path d="M0 0H12.7059V6.03529C12.7059 6.97093 11.9474 7.72941 11.0118 7.72941H1.69412C0.758482 7.72941 0 6.97093 0 6.03529V0Z" fill="black" style="fill:black;fill:black;fill-opacity:1;"/>
<path d="M0 11.9647C0 11.0291 0.758482 10.2706 1.69412 10.2706H11.0118C11.9474 10.2706 12.7059 11.0291 12.7059 11.9647V18H0V11.9647Z" fill="black" style="fill:black;fill:black;fill-opacity:1;"/>
<path d="M29.3114 18H22.8706V0H29.3114V6.30612H35.1523V0H41.5931V18H35.1523V11.6939H29.3114V18Z" fill="black" style="fill:black;fill:black;fill-opacity:1;"/>
<path d="M56.4538 18H50.013V11.4612L41.9069 0H49.0456L51.7885 4.0898L53.3069 6.34286H53.3191L57.5191 0H64.5232L56.4538 11.4612V18Z" fill="black" style="fill:black;fill:black;fill-opacity:1;"/>
<path fill-rule="evenodd" clip-rule="evenodd" d="M71.2971 18H64.8563V0H75.0073C76.2644 0 77.4155 0.0979586 78.4603 0.293876C79.5052 0.481631 80.4032 0.812244 81.1542 1.28571C81.9134 1.75918 82.5012 2.4 82.9175 3.20816C83.3338 4.00816 83.542 5.02041 83.542 6.2449V6.26939C83.542 7.49388 83.3379 8.5102 82.9297 9.31837C82.5216 10.1265 81.9461 10.7673 81.2032 11.2408C80.4685 11.7143 79.5828 12.049 78.5461 12.2449C77.5093 12.4327 76.3624 12.5265 75.1052 12.5265H71.2971V18ZM71.2971 4.70204V7.83673H74.6644C75.0318 7.83673 75.3542 7.80816 75.6318 7.75102C75.9093 7.68571 76.1379 7.58775 76.3175 7.45714C76.4971 7.32653 76.6318 7.16326 76.7216 6.96735C76.8114 6.77143 76.8563 6.53878 76.8563 6.26939V6.2449C76.8563 5.97551 76.8114 5.74286 76.7216 5.54694C76.6318 5.35102 76.4971 5.19184 76.3175 5.06939C76.1379 4.94694 75.9093 4.85714 75.6318 4.8C75.3542 4.73469 75.0318 4.70204 74.6644 4.70204H71.2971Z" fill="black" style="fill:black;fill:black;fill-opacity:1;"/>
<path d="M84.416 18V0H100.91V4.76323H90.8616V6.61838H99.5666V11.2563H90.8616V13.2368H100.91V18H84.416Z" fill="black" style="fill:black;fill:black;fill-opacity:1;"/>
</svg>