<?xml version="1.0" encoding="UTF-8"?>
<!-- Generator: Adobe Illustrator 24.0.0, SVG Export Plug-In . SVG Version: 6.00 Build 0)  -->
<svg version="1.1" id="Layer_1" xmlns="http://www.w3.org/2000/svg"  x="0px" y="0px" viewBox="0 0 209.1 49.2" style="enable-background:new 0 0 209.1 49.2;" xml:space="preserve">
<style type="text/css">
	.st0{fill:#019592;}
	.st1{fill:#FFFFFF;}
	.st2{fill:#004D40;}
</style>
<g id="Layer_2_1_">
	<g id="Layer_1-2">
		<circle class="st0" cx="23" cy="23" r="23"/>
		<path class="st1" d="M20.3,20.9L20.3,20.9l4.2,19.3C34.9,38.9,42.2,29.4,40.9,19c-0.2-1.2-0.4-2.4-0.8-3.5L20,19.8L20.3,20.9z"/>
		<path d="M101.2,4.8v32.7H89V26.3H69.9v11.2H57.7V4.8h12.2V16H89V4.8H101.2z"/>
		<path d="M142.3,9.4l-15.9,39.7h-12.2l4.7-11.7h-5.1l-11.7-28h12.1l8.1,19.5l7.8-19.5L142.3,9.4z"/>
		<path d="M172.8,9.9v9.3c-2.2-0.6-4.5-0.9-6.8-0.9c-4,0-8.3,0.5-11.5,4v15.1h-11.2v-28h11.2v4.7c2.5-3.7,6.3-5.1,10.9-5.1    C167.8,9,170.3,9.3,172.8,9.9z"/>
		<path d="M209.1,23.6v13.9h-11.2v-3.4c-4.4,3.2-9.2,3.9-14.1,3.9c-6.4,0-12-2.3-12-8.4c0-7.3,8.4-9.2,16.6-9.2    c3.2-0.1,6.4,0.4,9.5,1.5c0-3.4-3.6-3.5-7.3-3.5c-4.3,0-8.6,0.5-12.8,1.4l-3.6-7.9C179.6,10,185.3,9.1,191,9    C202.5,9,209,12.9,209.1,23.6z M197.9,27.1c-2.4-0.5-4.9-0.8-7.4-0.7c-5.2,0-7.4,0.5-7.4,2.3c0,1.5,1.3,1.8,4.1,1.8    c3.7,0,7.3-0.8,10.7-2.1V27.1z"/>
		<path class="st2" d="M11.5,30.5L11.5,30.5h19.8C32.1,20,24.4,10.8,14,9.9c-1.2-0.1-2.4-0.1-3.6,0v20.5H11.5z"/>
	</g>
</g>
</svg>