<svg xmlns="http://www.w3.org/2000/svg" viewBox="0 0 150 52"><path fill="#4F6851" d="M42.7 8.3C38 3.6 31.6 1 25 1 11.2 1 0 12.2 0 26s11.2 25 25 25 25-11.2 25-25c0-6.6-2.6-13-7.3-17.7m-20.5 7c.6-.7 1.3-1.3 2.1-1.7l.1.1c-.4.9.1 1.9 1 2.3s1.9-.1 2.3-1c.3-.7.1-1.4-.4-1.9V13c.9 0 1.8.3 2.6.7-.1 2.3-2 4-4.3 3.9-1.4-.1-2.8-1-3.4-2.3m9.1 3 2.8 8.6-7.6-2.2v-5.3c1.8-.4 3.5-.8 4.8-1.1m11.5 15.8v4.7c-.4.6-.9 1.1-1.4 1.7v-6.7l-1.1-.3v8.2c-.4.4-.9.8-1.4 1.2V33l-.9-.3v10.9c-.4.3-.9.6-1.4.9V32.3l-1-.3v13.2c-.4.2-.9.5-1.4.7V31.6l-1.1-.3v15c-.4.2-.9.3-1.4.5V30.9l-1.1-.3v16.5c-.4.1-.9.2-1.4.3V30.2l-1.1-.3v17.7c-.6.1-1.2.2-1.8.2V27.7l19.1 5.6c-.5 1.3-1.1 2.6-1.8 3.8v-2.7l-.8-.3ZM30.7 7l-1.5.5v.1c.1.4.2.8.2 1.2 0 .6-.4 1.2-1 1.4l-.4.2-.8-2.3-1.4.5v.1c.1.4.2.8.2 1.2 0 .8-.4 1.1-1.1 1.5l-8.1 3 .6 2.1 1.4-.4c.6-.2 1.3.2 1.5.8.2.6-.2 1.3-.8 1.5l-1.4.4.6 2.1 4.7-1.1v27.7c-12-.5-21.1-11-20.3-23.1S14.4 3.2 26.5 4.1c12.1.9 21.2 11.3 20.4 23.4-.1 1-.2 2-.4 3.1L37.6 28 30.7 7Zm54.9 19c0 5.1-4.1 9.3-9.2 9.3s-9.2-4.2-9.2-9.3c-.1-5 3.9-9.2 9-9.2h.2c5.1 0 9.2 4 9.2 9.1v.1m-9.2-12c-6.6 0-12 5.4-11.9 12 .1 6.6 5.4 12 12 11.9 6.6 0 12-5.4 11.9-12 0-6.6-5.3-11.9-12-11.9m26.4 20.7h-7.4V17.3h7.3c5.2 0 8 3.7 8 8.6-.1 5.6-3.1 8.8-7.9 8.8m.5-20.2H92.4v23.1h10.1c8.4 0 11.3-5.8 11.3-11.5-.1-7.7-5-11.6-10.5-11.6m14.8-.1h3.2v23.2h-3.2V14.4Zm27.6.1v5.7l-17.1-5.7h-1.9v23.1h3.1V18l15.8 5.2v14.3h3.3v-23h-3.2Z"></path></svg>