<svg xmlns="http://www.w3.org/2000/svg" viewBox="0 0 190.598 40"><g id="Group_1" data-name="Group 1" transform="translate(-431 -261)"><path id="Path_1" data-name="Path 1" d="M222,30.9a2.414,2.414,0,0,0-3.4,0l-5.4,5.4a3.492,3.492,0,0,0-1,2.4V44a2.433,2.433,0,0,0,2.4,2.4H226a2.433,2.433,0,0,0,2.4-2.4V38.7a3.69,3.69,0,0,0-1-2.4Z" transform="translate(393.198 246.822)" fill="#1b6775"></path><path id="Path_2" data-name="Path 2" d="M28.544,25.326a13.8,13.8,0,0,0-1.09-5.812,7.3,7.3,0,0,0-3.019-3.675,9.032,9.032,0,0,0-4.528-1.282,8.72,8.72,0,0,0-3.354.684,6.889,6.889,0,0,0-2.683,2.051,9.317,9.317,0,0,0-1.761,3.419,19.223,19.223,0,0,0-.587,4.615,16.276,16.276,0,0,0,.671,4.7,9.266,9.266,0,0,0,1.845,3.5,6.889,6.889,0,0,0,2.683,2.051,8.407,8.407,0,0,0,3.354.684,8.511,8.511,0,0,0,4.277-1.2,7.94,7.94,0,0,0,3.1-3.675,15.968,15.968,0,0,0,1.09-6.068M19.991,9.685a15.528,15.528,0,0,1,7.966,1.88,12.135,12.135,0,0,1,5.031,5.47,18.507,18.507,0,0,1,1.677,8.291,21.448,21.448,0,0,1-.922,6.41,13.528,13.528,0,0,1-2.851,5.043,11.991,11.991,0,0,1-4.612,3.248,16.219,16.219,0,0,1-6.289,1.111A16.219,16.219,0,0,1,13.7,40.027,12.974,12.974,0,0,1,9.09,36.779a12.747,12.747,0,0,1-2.767-5.043,19.735,19.735,0,0,1-.922-6.41,19.728,19.728,0,0,1,1.006-6.41,13.646,13.646,0,0,1,2.851-4.957A13.2,13.2,0,0,1,13.786,10.8a15.791,15.791,0,0,1,6.205-1.111m47.546,18.12H77.6a7.394,7.394,0,0,0-1.509-4.359,4.757,4.757,0,0,0-3.522-1.453,4.571,4.571,0,0,0-3.438,1.453,7.3,7.3,0,0,0-1.593,4.359m10.817,3.248h-10.9a7.571,7.571,0,0,0,.755,3.419,5.693,5.693,0,0,0,2.013,2.222,5.128,5.128,0,0,0,2.683.769,6.424,6.424,0,0,0,1.845-.256,5.516,5.516,0,0,0,1.593-.769,9.175,9.175,0,0,0,1.426-1.111c.419-.427,1.006-.94,1.677-1.538a1.717,1.717,0,0,1,1.258-.342,2.092,2.092,0,0,1,1.426.513,1.824,1.824,0,0,1,.5,1.368,3.462,3.462,0,0,1-.587,1.795,7.608,7.608,0,0,1-1.761,1.966,10.055,10.055,0,0,1-3.019,1.538,12.256,12.256,0,0,1-4.109.6q-5.409,0-8.3-3.077c-2.013-2.051-2.935-4.872-2.935-8.462a14.15,14.15,0,0,1,.755-4.7,9.472,9.472,0,0,1,2.18-3.675,10.017,10.017,0,0,1,3.438-2.393,12.591,12.591,0,0,1,4.528-.855,10.768,10.768,0,0,1,5.618,1.368,9.552,9.552,0,0,1,3.522,3.59,9.845,9.845,0,0,1,1.174,4.53c0,1.453-.419,2.308-1.174,2.735a7.54,7.54,0,0,1-3.606.769m13.417,1.966v4.7a3.727,3.727,0,0,1-.755,2.564A2.464,2.464,0,0,1,89,41.138a2.577,2.577,0,0,1-2.013-.855,3.879,3.879,0,0,1-.755-2.564V21.908c0-2.564.922-3.846,2.683-3.846a2.261,2.261,0,0,1,2.013.855,4.531,4.531,0,0,1,.671,2.65,10.149,10.149,0,0,1,2.013-2.65,4,4,0,0,1,2.767-.855,7.308,7.308,0,0,1,3.438.855,2.7,2.7,0,0,1,1.677,2.393,2.322,2.322,0,0,1-2.18,2.393,6.931,6.931,0,0,1-1.509-.342,6.66,6.66,0,0,0-2.1-.342A3.023,3.023,0,0,0,93.7,23.7a4.075,4.075,0,0,0-1.174,1.966,14.262,14.262,0,0,0-.587,3.077,31.608,31.608,0,0,0-.168,4.274m51.152-3.248a25.178,25.178,0,0,1-3.522.94c-1.593.342-2.6.6-3.27.769a4.7,4.7,0,0,0-1.677.94,2.523,2.523,0,0,0-.839,1.966,3.133,3.133,0,0,0,.922,2.222,3.671,3.671,0,0,0,2.516.94,6.11,6.11,0,0,0,3.019-.769,4.85,4.85,0,0,0,2.013-1.88,8.976,8.976,0,0,0,.755-4.274v-.855Zm.335,8.205a17.97,17.97,0,0,1-3.941,2.393,11.112,11.112,0,0,1-4.193.769,7.7,7.7,0,0,1-3.773-.855,6.666,6.666,0,0,1-2.516-2.308A5.952,5.952,0,0,1,128,34.814a5.786,5.786,0,0,1,1.426-3.932,7.224,7.224,0,0,1,3.941-2.222c.335-.085,1.258-.256,2.6-.6,1.426-.256,2.6-.6,3.606-.769,1.006-.256,2.1-.513,3.27-.855a6.026,6.026,0,0,0-.922-3.333q-.755-1.026-3.27-1.026a6.228,6.228,0,0,0-3.187.6,5.329,5.329,0,0,0-1.845,1.795,15.807,15.807,0,0,1-1.09,1.624,1.823,1.823,0,0,1-1.342.342,2.189,2.189,0,0,1-1.593-.6,2.159,2.159,0,0,1-.671-1.538,4.882,4.882,0,0,1,1.006-2.906,7.088,7.088,0,0,1,3.27-2.308,14.235,14.235,0,0,1,5.451-.94,15.365,15.365,0,0,1,5.786.855,5.341,5.341,0,0,1,2.935,2.821,12.37,12.37,0,0,1,.839,5.043v6.5a12.4,12.4,0,0,0,.5,3.333,11.418,11.418,0,0,1,.5,2.222,2.079,2.079,0,0,1-.839,1.624,2.494,2.494,0,0,1-1.845.684,2.164,2.164,0,0,1-1.677-.855c-.335-.6-.922-1.368-1.593-2.393M157.514,29.6a10.973,10.973,0,0,0,.671,3.932,5.768,5.768,0,0,0,1.929,2.479,5,5,0,0,0,2.683.855,4.918,4.918,0,0,0,2.683-.769,5.048,5.048,0,0,0,1.929-2.393,9.51,9.51,0,0,0,.755-4.017,9.371,9.371,0,0,0-.755-3.932,6.477,6.477,0,0,0-1.929-2.479,4.548,4.548,0,0,0-2.683-.855,4.618,4.618,0,0,0-2.767.855,5.31,5.31,0,0,0-1.845,2.564,10.018,10.018,0,0,0-.671,3.761M168.5,37.891v-.6a16.692,16.692,0,0,1-2.18,2.137,12.576,12.576,0,0,1-2.348,1.282,9.409,9.409,0,0,1-2.767.427,7.592,7.592,0,0,1-3.69-.855,8.2,8.2,0,0,1-2.935-2.479,10.451,10.451,0,0,1-1.845-3.761,16.723,16.723,0,0,1-.671-4.7c0-3.5.839-6.325,2.516-8.291a8.448,8.448,0,0,1,6.708-2.991,8.276,8.276,0,0,1,4.025.855A12.392,12.392,0,0,1,168.5,21.48V13.1a4.531,4.531,0,0,1,.671-2.65,2.6,2.6,0,0,1,3.857,0,3.852,3.852,0,0,1,.671,2.393V37.805a3.259,3.259,0,0,1-.755,2.393,2.5,2.5,0,0,1-1.929.769,2.143,2.143,0,0,1-1.845-.855,2.892,2.892,0,0,1-.671-2.222M45.4,9.685a11.989,11.989,0,0,0-4.36.684,4.314,4.314,0,0,0-2.264,2.308,11.452,11.452,0,0,0-.671,4.188V37.634a3.879,3.879,0,0,0,.755,2.564,2.408,2.408,0,0,0,1.929.855A2.464,2.464,0,0,0,42.8,40.2a3.879,3.879,0,0,0,.755-2.564V22.677H44.9a5.949,5.949,0,0,0,2.348-.342c.587-.256.839-.855.839-1.795,0-1.282-1.09-1.966-3.187-1.966H43.554V17.207a6.739,6.739,0,0,1,.419-2.564c.252-.6.922-.94,1.929-.94a8.012,8.012,0,0,1,1.342.085,6.4,6.4,0,0,0,1.09.085,1.352,1.352,0,0,0,1.174-.6,1.962,1.962,0,0,0,.5-1.368c.252-1.368-1.342-2.222-4.612-2.222m13.417,0a11.989,11.989,0,0,0-4.36.684,4.314,4.314,0,0,0-2.264,2.308,11.451,11.451,0,0,0-.671,4.188V37.634a3.879,3.879,0,0,0,.755,2.564,2.408,2.408,0,0,0,1.929.855,2.464,2.464,0,0,0,2.013-.855,3.879,3.879,0,0,0,.755-2.564V22.677h1.342a5.949,5.949,0,0,0,2.348-.342c.587-.256.839-.855.839-1.795,0-1.282-1.09-1.966-3.187-1.966H56.971V17.207a6.739,6.739,0,0,1,.419-2.564c.252-.6.922-.94,1.929-.94a8.012,8.012,0,0,1,1.342.085,6.4,6.4,0,0,0,1.09.085,1.352,1.352,0,0,0,1.174-.6,1.962,1.962,0,0,0,.5-1.368c.252-1.368-1.342-2.222-4.612-2.222m65.407,13.761a9.228,9.228,0,0,0-3.438-3.932,8.581,8.581,0,0,0-8.553-.427,12.5,12.5,0,0,0-3.27,2.906v-.684a3.545,3.545,0,0,0-.755-2.393,2.706,2.706,0,0,0-1.929-.855,2.5,2.5,0,0,0-1.929.769,3.387,3.387,0,0,0-.671,2.393V45.839a6.5,6.5,0,0,0,.5,2.821c.335.684,1.006.94,2.1.94,1.761,0,2.683-1.282,2.683-3.761V29.6a9.836,9.836,0,0,1,1.174-4.359.083.083,0,0,1,.084-.085c.084-.085.084-.171.168-.256l.5-.769a5.108,5.108,0,0,1,3.857-1.88,4.137,4.137,0,0,1,2.6.855,5.626,5.626,0,0,1,1.845,2.479,10.831,10.831,0,0,1,.671,3.846,9.1,9.1,0,0,1-.755,3.932,5.769,5.769,0,0,1-1.929,2.479,4.727,4.727,0,0,1-2.6.855,6.4,6.4,0,0,1-1.342-.171c-.168,0-.252-.085-.419-.085a1.879,1.879,0,0,0-1.845,1.88,1.839,1.839,0,0,0,.755,1.538c.084.085.168.085.168.171l.084.085a7.419,7.419,0,0,0,4.025.94,8.929,8.929,0,0,0,3.69-.769,7.989,7.989,0,0,0,3.019-2.308,11.794,11.794,0,0,0,2.013-3.675,14.666,14.666,0,0,0,.755-4.786,13.726,13.726,0,0,0-1.258-6.068" transform="translate(425.6 251.4)" fill="#ea711e"></path></g></svg>