<?xml version="1.0" ?>
<svg xmlns="http://www.w3.org/2000/svg" xmlns:xlink="http://www.w3.org/1999/xlink" viewBox="0 0 1080 1080">
	<defs>
		<linearGradient id="b" x1="1080" x2="0" y1="540" y2="540" gradientUnits="userSpaceOnUse">
			<stop offset="0" stop-color="#24c1ff"/>
			<stop offset=".49" stop-color="#1fcaff"/>
			<stop offset="1" stop-color="#17d9ff"/>
		</linearGradient>
		<linearGradient id="a" x1="190.62" x2="909.24" y1="462.24" y2="118.9" gradientUnits="userSpaceOnUse">
			<stop offset="0" stop-color="#0046ff"/>
			<stop offset=".13" stop-color="#024fff"/>
			<stop offset=".35" stop-color="#0868ff"/>
			<stop offset=".62" stop-color="#1191ff"/>
			<stop offset=".94" stop-color="#1ec9ff"/>
			<stop offset="1" stop-color="#21d4ff"/>
		</linearGradient>
		<linearGradient xlink:href="#a" id="c" x1="752.23" x2="352.99" y1="390.97" y2="31.66" gradientTransform="rotate(180 517.595 159.425)"/>
	</defs>
	<g data-name="Layer 2" style="">
		<path d="M540 179.66a358.6 358.6 0 1 1-140.21 28.24A357.94 357.94 0 0 1 540 179.66M540 0C241.77 0 0 241.77 0 540s241.77 540 540 540 540-241.77 540-540S838.23 0 540 0Z" data-name="Layer 4" style="fill:url(#b)"/>
		<path d="M881.82 122.05a539.86 539.86 0 0 0-683.64-.1l287.67 489.27c24.34 41.4 84.22 41.4 108.55 0Z" data-name="Layer 3" style="fill:url(#a);mix-blend-mode:multiply"/>
		<path d="M291.13 280C355.88 218 443.47 179.66 540 179.66s184.19 38.39 249 100.45l92.87-158.06q-16.62-13.62-34.34-25.87c-.69-.48-1.36-1-2.05-1.46-4.75-3.27-9.61-6.41-14.48-9.53-1.94-1.25-3.87-2.52-5.83-3.74-4.52-2.81-9.1-5.53-13.7-8.21-2.41-1.41-4.83-2.81-7.26-4.17q-6.67-3.76-13.46-7.33-4-2.09-8-4.11c-4.46-2.25-8.94-4.47-13.47-6.6-2.84-1.34-5.73-2.61-8.6-3.89-4.51-2-9-4.06-13.58-6-2.91-1.21-5.88-2.31-8.81-3.47q-12.27-4.86-24.83-9.11c-3.65-1.23-7.27-2.54-11-3.7-3.86-1.22-7.78-2.28-11.67-3.41-4.15-1.21-8.29-2.44-12.47-3.55-3.85-1-7.74-1.92-11.62-2.85-4.33-1-8.66-2.07-13-3-3.83-.82-7.69-1.57-11.55-2.31q-6.81-1.3-13.67-2.44c-3.75-.62-7.51-1.22-11.29-1.76-4.88-.7-9.79-1.3-14.72-1.87-3.54-.41-7.07-.83-10.63-1.17-5.53-.53-11.11-.91-16.7-1.27-3-.2-6-.46-9-.6Q553.29 0 540.43 0H540c-8.78 0-17.51.25-26.19.66-2.7.13-5.37.37-8.06.54-6 .37-12 .79-17.87 1.36-3.16.3-6.29.68-9.44 1-5.42.62-10.83 1.28-16.2 2.06-3.27.47-6.52 1-9.76 1.51q-7.89 1.29-15.69 2.8c-3.19.62-6.38 1.24-9.55 1.91-5.32 1.14-10.61 2.38-15.87 3.67-2.94.72-5.88 1.4-8.79 2.16-5.89 1.55-11.72 3.24-17.53 5-2.2.66-4.44 1.25-6.63 1.94q-11.89 3.72-23.56 8c-1.59.58-3.14 1.24-4.73 1.83-6.15 2.32-12.27 4.7-18.32 7.23-2.8 1.17-5.56 2.44-8.34 3.65-4.75 2.09-9.49 4.19-14.17 6.41-3.07 1.45-6.1 3-9.13 4.48q-6.52 3.22-12.94 6.62-4.62 2.45-9.17 5-6.27 3.48-12.42 7.14c-3 1.75-5.95 3.51-8.88 5.32-4.22 2.6-8.37 5.3-12.5 8-2.69 1.77-5.4 3.49-8.06 5.3-4.85 3.31-9.62 6.75-14.35 10.21-1.83 1.33-3.7 2.6-5.51 4q-9.24 6.87-18.14 14.2Z" data-name="Layer 2" style="fill:url(#c);mix-blend-mode:multiply"/>
	</g>
</svg>