<?xml version="1.0" ?>
<svg xmlns="http://www.w3.org/2000/svg" viewBox="0 0 1550 1552">
	<defs>
		<linearGradient id="P" gradientUnits="userSpaceOnUse"/>
		<linearGradient id="g1" x2="1" href="#P" gradientTransform="matrix(1427.541,-2472.573,2470.857,1426.55,1060.693,1889.437)">
			<stop stop-color="#e6a434"/>
			<stop offset="1" stop-color="#cf4550"/>
		</linearGradient>
	</defs>
	<style>.a{fill:url(#g1)}</style>
	<path fill-rule="evenodd" class="a" d="m1446.1 387.2c-213.8-368.2-688.5-497.5-1059.4-283.4-367.8 214-496.8 689.7-282.8 1061.1 213.8 368.2 688.2 497.2 1059.4 283.1 367.5-214 496.5-689.3 282.8-1060.8zm-276.5 277c62.7 0 113 50.5 113 110.2 0 63-50.3 113.5-113 113.5h-85c-151.1 0-292.5 81.8-368.1 210.8l-40.6 75.6c-31.5 53.3-100.6 72.4-154.1 40.9-53.3-31.5-72.1-100.8-40.6-154.4l40.6-72.4c75.4-132.2 75.4-292.7 0-425l-40.6-69.1c-31.5-53.6-16-125.9 37.5-157.4 53.3-31.5 125.7-12.7 157.2 40.9l40.6 75.4c75.6 129.2 217 211 368.1 211z"/>
</svg>