<svg xmlns="http://www.w3.org/2000/svg" viewBox="0 0 250 250">
<circle fill="#FFFFFF" cx="125.01" cy="125.01" r="33.98"/>
<path d="M125,249.5C125,249.5,125,249.5,125,249.5C56.35,249.5,0.5,193.65,0.5,125c0-33.26,12.95-64.52,36.47-88.04
	C60.48,13.45,91.74,0.5,125,0.5c0,0,0,0,0,0c33.26,0,64.52,12.95,88.04,36.47S249.5,91.75,249.5,125
	C249.5,193.65,193.64,249.5,125,249.5z M1.69,125c0,67.99,55.31,123.31,123.3,123.31c67.99,0,123.31-55.31,123.31-123.3
	C248.31,57.01,192.99,1.69,125,1.69c-32.94,0-63.9,12.82-87.19,36.11C14.52,61.1,1.69,92.06,1.69,125L1.69,125z M125,218.69
	c-51.66,0-93.69-42.03-93.69-93.69c0-51.66,42.03-93.7,93.69-93.7c51.66,0,93.7,42.03,93.7,93.7
	C218.69,176.66,176.66,218.69,125,218.69z M125,31.9c-51.33,0-93.1,41.76-93.1,93.1s41.76,93.1,93.1,93.1s93.1-41.76,93.1-93.1
	S176.33,31.9,125,31.9z"/>
<path d="M72.01,92.74c0-0.13-0.02-0.39-0.03-0.62l0.85,0l0.02,0.56h0.01c0.2-0.49,0.59-0.61,1.06-0.6l0,0.82l-0.4,0
	c-0.15,0.01-0.36,0.1-0.45,0.23c-0.1,0.17-0.12,0.35-0.12,0.55l0,1.54l-0.92,0L72.01,92.74z M191.34,95.22l0-3.1l-0.93,0l0,3.1
	L191.34,95.22z M69.52,90.76l1.55,4.46l-0.96,0l-0.32-0.94l-1.77,0l-0.33,0.95l-0.91,0l1.61-4.46L69.52,90.76z M69.54,93.53
	l-0.61-1.9l-0.01,0l-0.65,1.9L69.54,93.53z M112.67,206.82l0,3.1l0.93,0l0-3.1L112.67,206.82z M50.66,95.22l0-1.9l1.79,0l0-0.74
	l-1.79,0l0-1.08l1.92,0l0-0.74l-2.88,0l0,4.46L50.66,95.22z M54.53,92.12l-0.93,0l0,3.1l0.93,0L54.53,92.12z M74.73,167.48l-2.03,0
	c0,0.4,0.06,0.78,0.53,0.78c0.32,0,0.48-0.12,0.57-0.4l0.83,0c-0.08,0.77-0.68,1.02-1.4,1.02c-1.06,0-1.49-0.6-1.48-1.64
	c0-0.93,0.54-1.65,1.49-1.65c0.58,0,1.06,0.2,1.32,0.74c0.09,0.17,0.13,0.36,0.15,0.55C74.73,167.08,74.73,167.28,74.73,167.48z
	 M73.77,166.86c0-0.34-0.09-0.65-0.54-0.66c-0.43,0-0.52,0.32-0.53,0.65L73.77,166.86z M191.37,90.76l-0.99,0l0,0.8l0.99,0
	L191.37,90.76z M78.65,92.92c0-0.2,0.12-0.28,0.37-0.28c0.21,0,0.41,0.09,0.42,0.3l0.83,0c-0.04-0.68-0.6-0.92-1.25-0.92
	c-0.54,0-1.33,0.28-1.33,0.93c0,0.72,0.55,0.85,1.14,0.99c0.19,0.04,0.63,0.15,0.63,0.4c0,0.24-0.19,0.34-0.45,0.34
	c-0.27,0-0.49-0.13-0.51-0.37l-0.86,0c0.01,0.71,0.64,0.99,1.36,0.99c0.57,0,1.4-0.34,1.4-1.02C80.42,93.13,78.65,93.41,78.65,92.92
	z M76.14,91.17l-0.93,0.33l0,0.61h-0.62l0,0.62l0.62,0l0,1.52c0,0.67,0.15,1.05,0.88,1.05c0.13,0,0.62-0.04,0.73-0.09l0-0.54
	c-0.1,0-0.2,0.02-0.3,0.02c-0.32,0-0.38-0.11-0.38-0.52l0-1.44l0.7,0l0-0.62l-0.7,0L76.14,91.17z M109.72,205.46l-0.96,0l0,4.46
	l2.89,0l0-0.74l-1.93,0L109.72,205.46z M57.87,165.69l0,3.1l0.93,0l0-3.1L57.87,165.69z M54.56,90.76l-0.99,0l0,0.8l0.99,0
	L54.56,90.76z M57.86,95.22l0.93,0l0-2.02c0-0.11-0.01-0.3-0.06-0.49c-0.11-0.45-0.71-0.68-1.02-0.68c-0.47,0-0.76,0.19-0.95,0.47
	l-0.01-0.02l0-0.36l-0.92,0l0,3.1l0.93,0l0-1.86c0.01-0.45,0.26-0.71,0.55-0.71c0.46,0,0.55,0.38,0.56,0.71L57.86,95.22z
	 M55.48,168.26c-0.4,0-0.4-0.79-0.43-1.07c0.01-0.24,0.02-0.98,0.41-0.98c0.36,0,0.46,0.31,0.47,0.56l0.91,0
	c0.01-0.73-0.58-1.18-1.37-1.18c-0.92,0-1.38,0.82-1.38,1.64c0,0.82,0.46,1.64,1.38,1.64c0.85,0,1.34-0.43,1.37-1.22l-0.9,0
	C55.94,167.91,55.83,168.26,55.48,168.26z M57.84,165.12l0.99,0l0-0.8l-0.99,0L57.84,165.12z M66.93,166.27
	c-0.11-0.45-0.71-0.68-1.02-0.68c-0.47,0-0.76,0.19-0.95,0.47l-0.01-0.02l0-0.36l-0.92,0l0,3.1l0.93,0l0-1.86
	c0.01-0.45,0.27-0.71,0.56-0.71c0.46,0,0.55,0.38,0.55,0.71l0,1.86l0.93,0l0-2.02C66.99,166.66,66.98,166.46,66.93,166.27z
	 M112.64,205.46l0,0.8l0.99,0l0-0.8L112.64,205.46z M69.48,168.26c-0.39,0-0.4-0.79-0.43-1.07c0.01-0.24,0.02-0.98,0.41-0.98
	c0.36,0,0.46,0.31,0.47,0.56l0.91,0c0.01-0.73-0.58-1.18-1.37-1.18c-0.92,0-1.38,0.82-1.38,1.64c0,0.82,0.46,1.64,1.38,1.64
	c0.85,0,1.34-0.43,1.37-1.22l-0.9,0C69.94,167.91,69.84,168.26,69.48,168.26z M51.44,166.13c-0.38-0.09-0.81-0.15-0.81-0.63
	c0-0.39,0.36-0.57,0.71-0.57c0.46,0,0.7,0.22,0.74,0.67l0.92,0c0-0.89-0.67-1.37-1.54-1.36c-0.91,0-1.85,0.45-1.85,1.47
	c0,0.79,0.85,1.08,1.48,1.23c0.38,0.1,1.02,0.14,1.02,0.66c0,0.48-0.51,0.59-0.89,0.59c-0.5,0-0.78-0.33-0.75-0.83l-0.97,0
	c-0.03,1.12,0.69,1.52,1.71,1.52c0.96,0,1.92-0.38,1.92-1.49C53.12,166.49,52.12,166.3,51.44,166.13z M59.95,93.67
	c0-0.93,0.54-1.65,1.49-1.65c0.58,0,1.06,0.2,1.32,0.74c0.09,0.17,0.13,0.36,0.15,0.56c0.03,0.19,0.03,0.39,0.03,0.59l-2.03,0
	c0,0.4,0.06,0.78,0.53,0.78c0.32,0,0.48-0.12,0.57-0.4l0.83,0c-0.08,0.76-0.68,1.02-1.4,1.02C60.37,95.31,59.95,94.71,59.95,93.67z
	 M60.91,93.3l1.07,0c0-0.34-0.09-0.65-0.54-0.66C61.01,92.64,60.92,92.95,60.91,93.3z M62.94,167.48l-2.03,0
	c0,0.4,0.05,0.78,0.53,0.78c0.32,0,0.48-0.12,0.57-0.4l0.83,0c-0.08,0.77-0.68,1.02-1.4,1.02c-1.06,0-1.49-0.6-1.49-1.63
	c0-0.93,0.54-1.65,1.49-1.65c0.58,0,1.06,0.2,1.32,0.74c0.09,0.17,0.13,0.36,0.15,0.55C62.94,167.08,62.94,167.28,62.94,167.48z
	 M61.98,166.86c0-0.34-0.09-0.65-0.54-0.66c-0.42,0-0.52,0.32-0.53,0.65L61.98,166.86z M187.75,94.26c0,0.67,0.15,1.05,0.88,1.05
	c0.13,0,0.62-0.04,0.73-0.09l0-0.54c-0.1,0.01-0.2,0.02-0.3,0.02c-0.32,0-0.38-0.11-0.38-0.52l0-1.44l0.7,0l0-0.62l-0.7,0l0-0.94
	l-0.93,0.33l0,0.61l-0.62,0l0,0.62l0.62,0L187.75,94.26z M181.65,164.33l0,4.46l0.93,0l0-4.46L181.65,164.33z M185.32,93.22l0-0.29
	c0-0.13-0.1-0.38-0.43-0.38c-0.32,0-0.43,0.3-0.41,0.44l-0.89,0c0.01-0.39,0.17-0.63,0.42-0.77c0.25-0.15,0.58-0.2,0.91-0.2
	c0.62,0,1.32,0.23,1.32,1.16l0,1.69c0.01,0.15,0.03,0.25,0.04,0.34l-0.83,0c-0.02-0.14-0.03-0.28-0.03-0.41l-0.01,0
	c-0.21,0.36-0.53,0.51-0.95,0.51c-0.58,0-1.01-0.33-1.01-0.94c0-0.22,0.1-0.74,0.66-0.98C184.48,93.23,184.95,93.21,185.32,93.22z
	 M184.33,94.25c0,0.26,0.19,0.44,0.45,0.44c0.51,0,0.53-0.57,0.53-0.93C184.99,93.76,184.33,93.75,184.33,94.25z M186.85,167.24
	c0,0.97-0.61,1.64-1.62,1.64c-1.01,0-1.62-0.67-1.62-1.64c0-0.98,0.61-1.64,1.62-1.64C186.24,165.59,186.85,166.26,186.85,167.24z
	 M185.89,167.24c0-0.49-0.09-1.02-0.66-1.03c-0.57,0-0.66,0.53-0.66,1.02c0,0.49,0.09,1.02,0.66,1.03
	C185.8,168.26,185.89,167.73,185.89,167.24z M188.66,166.49c0-0.2,0.12-0.28,0.37-0.28c0.21,0,0.41,0.09,0.42,0.3l0.83,0
	c-0.04-0.68-0.6-0.92-1.25-0.92c-0.54,0-1.33,0.28-1.33,0.93c0,0.72,0.55,0.85,1.14,0.99c0.19,0.04,0.63,0.15,0.63,0.39
	c0,0.24-0.19,0.35-0.45,0.35c-0.27,0-0.49-0.14-0.5-0.38l-0.86,0c0.01,0.71,0.64,0.99,1.36,0.99c0.57,0,1.4-0.34,1.4-1.02
	C190.43,166.7,188.66,166.98,188.66,166.49z M182.56,94.09l-0.9,0c-0.01,0.25-0.11,0.6-0.47,0.6c-0.39,0-0.4-0.78-0.42-1.07
	c0.01-0.24,0.02-0.98,0.41-0.98c0.36,0,0.46,0.31,0.47,0.56l0.92,0c0.01-0.73-0.58-1.18-1.37-1.18c-0.92,0-1.38,0.82-1.38,1.64
	c0,0.82,0.46,1.64,1.38,1.64C182.04,95.31,182.53,94.88,182.56,94.09z M179.53,165.13l0.99,0l0-0.8l-0.99,0L179.53,165.13z
	 M198.62,167.24c0,0.8-0.43,1.64-1.33,1.64c-0.4,0-0.75-0.17-0.94-0.53l-0.01,0l0,1.62l-0.93,0v-3.67c0-0.21-0.02-0.41-0.03-0.62
	l0.94,0l0.02,0.36l0.01,0c0.17-0.26,0.51-0.45,0.83-0.45C198.14,165.59,198.62,166.4,198.62,167.24z M197.67,167.24
	c0-0.47-0.07-1.02-0.67-1.02c-0.5,0-0.67,0.6-0.66,1.03c0,0.43,0.17,1.03,0.66,1.03C197.59,168.26,197.67,167.71,197.67,167.24z
	 M202.55,166.27c-0.11-0.45-0.71-0.68-1.02-0.68c-0.47,0-0.76,0.19-0.95,0.47l-0.01-0.01l0-1.72l-0.92,0l0,4.46l0.93,0l0-1.86
	c0.01-0.45,0.27-0.71,0.55-0.71c0.46,0,0.55,0.38,0.56,0.71l0,1.86l0.93,0l0-2.02C202.62,166.66,202.6,166.46,202.55,166.27z
	 M205.85,165.69l-0.69,2.14h-0.01l-0.68-2.14l-0.99,0l1.2,3.1l-0.39,1.18l0.92,0l1.56-4.28L205.85,165.69z M199.88,95.22l0-2.02
	c0-0.11-0.01-0.3-0.06-0.49c-0.11-0.45-0.71-0.68-1.02-0.68c-0.47,0-0.76,0.19-0.95,0.47l-0.01-0.02l0-0.36l-0.92,0l0,3.1l0.93,0
	l0-1.86c0.01-0.45,0.27-0.71,0.56-0.71c0.46,0,0.55,0.38,0.55,0.71l0,1.86L199.88,95.22z M179.56,168.79l0.93,0l0-3.1l-0.93,0
	L179.56,168.79z M195.74,93.67c0,0.98-0.6,1.64-1.62,1.64c-1.01,0-1.61-0.67-1.62-1.64c0-0.98,0.6-1.64,1.62-1.64
	C195.14,92.03,195.74,92.69,195.74,93.67z M194.79,93.67c0-0.49-0.09-1.03-0.66-1.02c-0.57,0-0.66,0.53-0.66,1.02
	c0,0.49,0.09,1.02,0.66,1.02C194.69,94.69,194.78,94.16,194.79,93.67z M194.46,167.24c0,0.98-0.6,1.64-1.62,1.64
	c-1.01,0-1.62-0.67-1.62-1.64c0-0.98,0.61-1.64,1.62-1.64C193.85,165.59,194.46,166.26,194.46,167.24z M193.5,167.24
	c0-0.49-0.09-1.02-0.66-1.02c-0.57,0-0.66,0.53-0.66,1.02c0,0.49,0.09,1.03,0.66,1.03C193.41,168.26,193.5,167.73,193.5,167.24z
	 M136.52,207.38h-0.01l-0.02-0.56l-0.84,0c0.01,0.23,0.03,0.49,0.03,0.62l0.01,2.48l0.92,0l0-1.54c0.01-0.2,0.02-0.38,0.12-0.55
	c0.09-0.13,0.3-0.22,0.45-0.23l0.4,0l0-0.82C137.11,206.77,136.72,206.89,136.52,207.38z M130.4,206.82l-0.7,0v-0.95l-0.93,0.33
	l0,0.61h-0.62l0,0.62l0.62,0l0,1.52c0,0.67,0.15,1.05,0.87,1.05c0.13,0,0.62-0.04,0.73-0.09l0-0.55c-0.1,0.01-0.19,0.02-0.3,0.02
	c-0.32,0-0.38-0.11-0.38-0.52l0-1.44l0.7,0L130.4,206.82z M127.26,209.58c0.01,0.15,0.03,0.25,0.04,0.34l-0.83,0
	c-0.02-0.14-0.03-0.29-0.03-0.41h-0.01c-0.21,0.36-0.53,0.51-0.95,0.51c-0.58,0-1.01-0.33-1.01-0.94c0-0.22,0.1-0.74,0.66-0.98
	c0.37-0.16,0.84-0.18,1.21-0.17l0-0.29c0-0.13-0.1-0.38-0.43-0.38c-0.32,0-0.43,0.3-0.41,0.45h-0.89c0.01-0.39,0.17-0.63,0.42-0.77
	c0.25-0.15,0.58-0.2,0.91-0.2c0.62,0,1.32,0.23,1.32,1.16L127.26,209.58z M126.34,208.46c-0.32-0.01-0.98-0.01-0.98,0.49
	c0,0.26,0.19,0.44,0.45,0.44C126.32,209.39,126.34,208.82,126.34,208.46z M134.39,206.82l-0.93,0l0,1.86
	c-0.01,0.45-0.27,0.72-0.56,0.72c-0.46,0-0.55-0.38-0.56-0.72l0-1.86l-0.93,0l0,2.01c0,0.11,0.01,0.3,0.06,0.49
	c0.11,0.45,0.71,0.68,1.02,0.68c0.47,0,0.76-0.19,0.96-0.47l0.04,0.38l0.93,0c-0.02-0.19-0.03-0.37-0.04-0.56L134.39,206.82z
	 M116.04,205.87l-0.93,0.33l0,0.61l-0.62,0l0,0.62l0.62,0l0,1.53c0,0.67,0.15,1.05,0.88,1.05c0.13,0,0.62-0.04,0.73-0.09l0-0.55
	c-0.1,0.01-0.2,0.02-0.3,0.02c-0.32,0-0.38-0.11-0.38-0.52l0-1.44l0.7,0l0-0.62l-0.7,0V205.87z M122.52,207.38l-0.01,0l-0.02-0.56
	l-0.85,0c0.01,0.23,0.03,0.49,0.03,0.62l0.01,2.48l0.92,0l0-1.54c0.01-0.2,0.02-0.38,0.12-0.55c0.09-0.13,0.3-0.22,0.45-0.23l0.4,0
	l0-0.82C123.11,206.77,122.72,206.89,122.52,207.38z M120.63,208.61l-2.03,0c0,0.4,0.05,0.78,0.53,0.78c0.32,0,0.48-0.12,0.57-0.4
	l0.83,0c-0.08,0.77-0.68,1.02-1.4,1.02c-1.06,0-1.49-0.6-1.49-1.63c0-0.93,0.54-1.65,1.49-1.65c0.58,0,1.06,0.2,1.32,0.74
	c0.09,0.17,0.13,0.36,0.15,0.56C120.63,208.21,120.63,208.41,120.63,208.61z M119.67,208c0-0.34-0.09-0.65-0.54-0.65
	c-0.43,0-0.52,0.32-0.53,0.65L119.67,208z M174.53,94.6c0,0.2,0.02,0.41,0.03,0.62l-0.93,0c-0.01-0.15-0.03-0.29-0.03-0.44l-0.01,0
	c-0.2,0.36-0.55,0.53-0.95,0.53c-0.91,0-1.33-0.85-1.33-1.64c0-0.83,0.49-1.64,1.45-1.64c0.32,0,0.65,0.19,0.83,0.45h0.01l0-1.72
	l0.93,0V94.6z M173.6,93.67c0-0.43-0.17-1.03-0.67-1.02c-0.59,0-0.67,0.55-0.67,1.02c0,0.47,0.07,1.02,0.67,1.02
	C173.43,94.69,173.6,94.09,173.6,93.67z M178.68,92.12l-0.93,0l0,1.86c-0.01,0.45-0.26,0.72-0.56,0.72c-0.46,0-0.55-0.38-0.56-0.72
	v-1.86l-0.93,0l0,2.01c0,0.11,0.01,0.3,0.06,0.5c0.11,0.45,0.71,0.68,1.02,0.68c0.47,0,0.76-0.19,0.96-0.47l0.04,0.38l0.93,0
	c-0.02-0.19-0.03-0.37-0.04-0.56L178.68,92.12z M177.31,165.59c-0.47,0-0.76,0.19-0.95,0.47l-0.01-0.01l0-1.72l-0.92,0l0,4.46
	l0.93,0l0-1.86c0.01-0.45,0.26-0.71,0.56-0.71c0.46,0,0.55,0.38,0.55,0.71l0,1.86l0.93,0l0-2.02c0-0.11-0.01-0.3-0.06-0.49
	C178.22,165.82,177.62,165.59,177.31,165.59z M141.46,208.61l-2.03,0c0,0.4,0.05,0.78,0.53,0.78c0.32,0,0.48-0.12,0.57-0.4l0.83,0
	c-0.08,0.77-0.68,1.02-1.4,1.02c-1.06,0-1.49-0.6-1.49-1.63c0-0.93,0.54-1.65,1.49-1.65c0.58,0,1.06,0.2,1.32,0.74
	c0.09,0.17,0.13,0.36,0.15,0.56C141.46,208.21,141.46,208.41,141.46,208.61z M140.5,208c0-0.34-0.09-0.65-0.54-0.65
	c-0.43,0-0.52,0.32-0.53,0.65L140.5,208z M168.11,93.29l1.9,0l0-0.74l-1.9,0l0-1.04h2.03l0-0.74l-2.99,0l0,4.46l3.05,0l0-0.74h-2.1
	L168.11,93.29z M174.47,165.7c0,0.81-0.55,1.34-1.54,1.37l-0.7,0l0,1.72l-0.96,0l0-4.46l1.37,0
	C173.63,164.33,174.47,164.57,174.47,165.7z M173.45,165.7c0-0.79-0.69-0.6-1.22-0.63v1.26C172.76,166.3,173.45,166.49,173.45,165.7
	z M57.22,198.38c-1.18-1.31-2.03-1.37-3.45-0.09l-9.75,8.78c-1.42,1.28-1.45,2.13-0.27,3.44l-0.67,0.6l-5.87-6.52l0.67-0.6
	c1.18,1.31,2.04,1.36,3.45,0.09l9.75-8.78c1.21-1.09,1.72-1.58,0.51-2.93c-2.02-2.24-5.36-2.66-8.41-2.42l-0.21-0.63l5.04-2.49
	l9.87,10.96L57.22,198.38z M35.64,176.34c1.4-1.47,2.49-2.41,1.4-4.33l0.77-0.46l4.43,7.37l-0.77,0.46
	c-0.86-1.31-1.35-1.45-2.05-1.03c-0.44,0.27-0.86,0.69-1.2,1.06l-2.3,2.41l3.22,5.35l1.75-0.42c0.72-0.18,1.56-0.37,2.21-0.76
	c1.19-0.72,1.08-1.96,0.59-2.93l0.77-0.46l3.36,5.59l-0.77,0.46c-1.78-1.59-3.2-1.31-5.5-0.81l-14.59,3.19l-2.94-2.41L35.64,176.34z
	 M28.8,189.43l8.99-2l-2.76-4.6L28.8,189.43z M44.61,59.88c1.89,0.75,3.17,1.4,4.54-0.32l0.72,0.54l-5.17,6.87l-0.72-0.54
	c0.9-1.28,0.84-1.79,0.19-2.28c-0.41-0.31-0.96-0.54-1.44-0.72l-3.1-1.23l-3.76,4.99l1.05,1.46c0.43,0.6,0.92,1.31,1.53,1.77
	c1.11,0.83,2.22,0.26,2.94-0.55l0.72,0.54l-3.92,5.2l-0.72-0.54c0.8-2.25,0.01-3.46-1.31-5.41l-8.43-12.33l1.13-3.63L44.61,59.88z
	 M29.92,58.44l5.22,7.59l3.23-4.28L29.92,58.44z M46.71,49.03l0.97-1.07c1.95-2.17,1.98-3.99-0.41-6.14
	c-2.21-1.99-4.12-1.77-5.66-0.06c-1.33,1.47-0.72,2.02,0.67,3.28L46.71,49.03z M47.5,49.74l4.27,3.84c1.41,1.27,2.27,1.22,3.45-0.09
	l0.67,0.6l-5.87,6.52l-0.67-0.6c1.18-1.31,1.14-2.17-0.27-3.44l-9.75-8.78c-1.42-1.27-2.27-1.22-3.45,0.09l-0.67-0.6l5.9-6.55
	c3.67-4.08,6.97-3.91,8.97-2.11c3.72,3.35,1.17,6.96-1.17,9.56L47.5,49.74z M81.08,212.89c-5.06-2.47-10.31,0.69-12.72,5.63
	c-2.64,5.41-1.42,10.73,3.54,13.14c4.91,2.39,10.04-0.53,12.58-5.74C87.1,220.56,85.88,215.24,81.08,212.89 M72.23,230.65
	c-2.36-1.15-3.03-4.12,0.04-10.43c1.62-3.33,4.45-8.28,8.45-6.33c2.38,1.16,2.81,4.25-0.19,10.39
	C77.65,230.21,74.76,231.89,72.23,230.65 M57.06,213.9l1.69-10.62c0.34-2.03,0.39-2.8-1-4.33l0.54-0.72l7.14,5.38l-0.54,0.72
	c-1.26-0.85-1.68-0.66-1.98-0.26c-0.25,0.32-0.34,0.94-0.41,1.32l-1.31,7.67l2.93-0.62l2.67-3.54c1.13-1.54,1.02-2.37-0.41-3.44
	l0.54-0.72l7.02,5.29l-0.54,0.72c-1.41-1.06-2.26-0.95-3.41,0.57l-7.9,10.48c-1.15,1.52-1.02,2.37,0.39,3.43l-0.54,0.72l-7-5.28
	l0.54-0.72c1.41,1.06,2.26,0.95,3.41-0.57l4.1-5.43l-7.07,1.49c-0.86,0.17-2.48,0.48-3.05,1.25c-0.64,0.85,0.39,1.48,0.86,1.95
	l-0.54,0.72l-6.03-4.54l0.54-0.72c2.06,0.97,3.1,1.18,5.79,0.58L57.06,213.9z M21.62,164.29l-5.09,2.48
	c-1.71,0.83-1.98,1.65-1.21,3.23l-0.81,0.39l-3.84-7.88l0.81-0.39c0.77,1.59,1.58,1.87,3.29,1.04l11.79-5.75
	c1.71-0.84,1.98-1.65,1.21-3.23l0.81-0.39l3.84,7.88l-0.81,0.39c-0.77-1.59-1.58-1.88-3.29-1.04l-5.55,2.71l2.88,5.9l5.55-2.71
	c1.71-0.83,1.98-1.65,1.21-3.23l0.81-0.39l3.84,7.88l-0.81,0.39c-0.77-1.59-1.58-1.87-3.29-1.04l-11.79,5.75
	c-1.71,0.83-1.98,1.65-1.21,3.24l-0.81,0.39l-3.84-7.88l0.81-0.39c0.77,1.59,1.58,1.87,3.29,1.04l5.09-2.48L21.62,164.29z
	 M27.89,145.1c-1.36-5.47-7.16-7.45-12.49-6.12c-5.84,1.45-9.13,5.81-7.79,11.16c1.32,5.3,6.86,7.35,12.48,5.95
	C25.9,154.64,29.19,150.29,27.89,145.1 M8.6,149.74c-0.64-2.54,1.2-4.97,8.01-6.67c3.59-0.9,9.2-1.92,10.28,2.41
	c0.64,2.57-1.45,4.88-8.08,6.53C12.43,153.61,9.28,152.47,8.6,149.74 M22.38,117.38c1.9,0.01,2.51-0.59,2.52-2.36l0.9,0.01
	l-0.07,8.77l-0.9-0.01c0.01-1.76-0.58-2.38-2.49-2.39l-14.26-0.11l0,0.05l17.62,5.65l-0.01,0.88l-17.16,5.43l0,0.05l11.08,0.09
	c4.36,0.03,4.9-0.18,5.16-2.36l0.9,0.01l-0.05,6.2l-0.9-0.01c-0.44-2.16-0.74-2.53-5.12-2.56l-10.48-0.08
	c-2.04-0.02-2.51,0.71-2.52,2.36l-0.9-0.01l0.06-7.18l12.52-3.82l-12.46-4.11l0.05-6.98l0.9,0.01c0.12,1.77,0.42,2.38,2.49,2.4
	L22.38,117.38z M8.71,97.53l0.37,3.78l12.58,8.06c1.98,1.27,3.18,2.08,3.32,4.46l0.87,0.22l1.58-6.32l-0.87-0.22
	c-0.34,1.03-1.14,1.99-2.49,1.65c-0.74-0.19-1.47-0.64-2.1-1.03l-1.53-0.94l1.51-6.06l3.33-0.08c0.51-0.02,1.1-0.03,1.6,0.1
	c0.79,0.2,1.05,0.64,0.72,2.17l0.87,0.22l2.08-8.34l-0.87-0.22c-0.59,2.13-2.02,2.02-4.05,2.07L8.71,97.53z M20.61,101.21l-1.3,5.2
	l-7.77-4.94L20.61,101.21z M21.36,89.8l1.01-1.94l1.24,2.09l2.28,0.46l-1.58,1.48l0.26,2.15l-2.04-1.13l-2.3,0.82l0.47-2.12
	l-1.75-1.67L21.36,89.8z M30.79,83.23c2.1,1.03,3.01,1.53,4.12-0.74c1.05-2.16,0.66-4.34-2.49-5.88c-2.18-1.06-4.2-1.2-6.16,2.83
	l-0.62,1.28L30.79,83.23z M31.83,90.86l-0.81-0.39c0.77-1.59,0.5-2.4-1.21-3.23l-11.79-5.75c-1.71-0.83-2.52-0.55-3.29,1.04
	l-0.81-0.39l3.9-7.99c2.74-5.61,5.27-5.9,7.45-4.84c2.52,1.23,2.57,4.11,2.07,6.24l0.05,0.02c1.73-2.18,3.96-4.2,7.26-2.59
	c2.89,1.41,3.85,4.22,1.75,8.51L31.83,90.86z M25.09,78.9c1.35-2.78,0.93-4.51-1.62-5.75c-2.54-1.24-4.03-0.3-5.06,1.81
	c-0.25,0.51-0.51,1.22-0.29,1.77c0.23,0.47,0.75,0.69,1.19,0.91l5.16,2.52L25.09,78.9z M60.52,24.99l4.33,3.55l-0.56,0.76
	c-2.17-0.93-5.45-1.65-7.36-0.28l9.3,12.35c1.14,1.52,2,1.63,3.41,0.57l0.54,0.72l-7,5.28l-0.54-0.72c1.41-1.06,1.54-1.91,0.39-3.43
	l-9.3-12.35c-1.76,1.74-2.01,4.58-1.72,7.12l-0.89,0.33l-2.32-5.07L60.52,24.99z M66.06,25.96c-0.98-1.63-1.81-1.83-3.33-0.92
	l-0.46-0.77l7.52-4.52l0.46,0.77c-1.51,0.91-1.73,1.74-0.75,3.37l6.76,11.25c0.98,1.63,1.81,1.83,3.33,0.92l0.46,0.77l-7.52,4.51
	l-0.46-0.77c1.51-0.91,1.73-1.74,0.75-3.37L66.06,25.96z M87.8,17.82l-0.76,0.65c-1.87-1.64-5.13-3.43-7.46-2.59
	c-1.59,0.58-2.53,1.99-1.86,3.83c0.76,2.1,2.95,1.94,4.61,1.91l1.53-0.01c3.2-0.01,6.5,0.44,7.87,4.23
	c1.28,3.51-0.46,6.89-3.48,7.99c-0.99,0.36-2.04,0.48-3.1,0.49c-0.49,0.01-0.82-0.02-1.28,0.15c-0.39,0.14-0.58,0.27-1.75,1.56
	l-3.64-5.36l0.78-0.66c2.24,1.94,5.51,3.96,8.29,2.95c1.66-0.6,2.89-2.53,2.17-4.5c-0.76-2.1-2.84-2.07-4.5-2.04
	c-3.46,0.01-7.77,0.13-9.36-4.21c-1.18-3.25,0.36-6.24,3.19-7.27c0.95-0.34,1.72-0.42,2.72-0.41c0.37,0.01,0.71,0.03,1.06-0.1
	c0.57-0.21,1.17-1.01,1.43-1.59L87.8,17.82z M102.58,8.37l2.6,4.96l-0.81,0.49c-1.64-1.7-4.37-3.65-6.67-3.14l3.74,15
	c0.46,1.85,1.2,2.28,2.91,1.86l0.22,0.87l-8.51,2.12l-0.22-0.87c1.71-0.43,2.16-1.16,1.7-3l-3.74-15c-2.3,0.91-3.64,3.43-4.37,5.88
	l-0.94-0.04l-0.15-5.57L102.58,8.37z M108.85,16.81l2.18-0.06l-1.22,2.1l0.71,2.22l-2.06-0.67l-1.76,1.27l0-2.33l-1.84-1.62
	l2.08-0.62l0.62-2.34L108.85,16.81z M118.92,19.52c0.18,4.93,1.68,6.29,4.32,6.15c3.55-0.19,4.52-2.66,4.31-6.63l-0.5-9.54
	c-0.1-1.9-0.74-2.47-2.5-2.38l-0.05-0.9l6.02-0.32l0.05,0.9c-1.76,0.09-2.34,0.72-2.24,2.63l0.51,9.76
	c0.25,4.73-1.48,7.33-6.25,7.58c-4.87,0.26-7.42-2.06-7.64-6.28l-0.54-10.33c-0.1-1.9-0.74-2.47-2.5-2.38l-0.05-0.9l8.76-0.46
	l0.05,0.9c-1.76,0.09-2.34,0.72-2.24,2.62L118.92,19.52z M147.54,22.54l1.42-8.98c0.36-2.28,0.37-3.61-1.98-4.23l0.14-0.89
	l6.36,1.01l-0.14,0.89c-2.37,0.07-2.75,1.05-3.12,3.42l-2.37,14.97l-2.2-0.35l-7.3-16.84l-1.63,10.32
	c-0.47,2.93-0.26,3.54,2.18,4.54l-0.14,0.89l-6.85-1.08l0.14-0.89c2.39-0.03,2.95-0.77,3.34-3.25l1.96-12.37
	c-0.53-1.05-1.44-1.88-2.47-2.29l0.14-0.89l6.15,0.97L147.54,22.54z M158.86,14.67c0.65-1.79,0.28-2.56-1.37-3.17l0.31-0.84l8.24,3
	l-0.31,0.84c-1.66-0.6-2.44-0.25-3.09,1.54l-4.49,12.33c-0.65,1.79-0.28,2.56,1.38,3.17l-0.31,0.84l-8.24-3l0.31-0.84
	c1.66,0.6,2.44,0.25,3.09-1.54L158.86,14.67z M174.23,17.06l-0.39,0.81c-1.62-0.64-1.97-0.38-2.24,0.18
	c-0.17,0.34-0.23,0.8-0.27,1.17l-1.75,12.2l7.37-7.79c0.42-0.46,0.91-0.92,1.19-1.48c0.61-1.25-0.04-2.11-0.97-2.65l0.39-0.81
	l5.42,2.64l-0.39,0.81c-1.53-0.32-2.27-0.44-4.86,2.41l-10.78,11.49l-1.85-0.9l2.27-16c0.25-1.79,0.77-3.81-0.85-4.84l0.39-0.81
	L174.23,17.06z M173.31,37.8c1.51,0.91,2.35,0.71,3.32-0.92l6.76-11.25c0.98-1.63,0.77-2.46-0.75-3.37l0.46-0.77l12.66,7.61
	l-1.3,5.16l-0.83-0.09c-0.19-2.87-1.33-5.91-3.73-7.35c-1.87-1.12-2.29-0.42-3.32,1.3l-2.73,4.55l0.42,0.25
	c2.1,1.26,3.26,1.42,5.39-0.51l0.82,0.49l-4.05,6.74l-0.82-0.49c0.85-2.7,0.1-3.88-1.96-5.11l-0.46-0.28l-2.96,4.92
	c-0.81,1.35-1.23,2.34,0.26,3.24c2.6,1.56,5.91,1.33,8.83,0.19l0.37,0.67l-4.18,3.39l-12.66-7.61L173.31,37.8z M198.69,44l3.92-4.35
	c1.04-1.15,1.55-1.61,2.75-0.53c1.95,1.75,2.35,3.43,0.51,5.48c-1.93,2.14-3.82,2.41-6.83-0.29L198.69,44z M201.6,50.98
	c0.29-0.95,0.64-1.92,0.46-2.85c2.07,1.21,4.79,1.75,6.79-0.48c1.93-2.14,1.73-5.25-0.96-7.68l-7.83-7.05l-0.6,0.67
	c1.31,1.18,1.36,2.03,0.09,3.45l-8.78,9.75c-1.28,1.42-2.13,1.45-3.44,0.27l-0.6,0.67l6.52,5.87l0.6-0.67
	c-1.31-1.18-1.37-2.04-0.09-3.45l4.08-4.53c0.77,0.69,1.27,1.55,0.02,5.14l-1.2,3.5c-0.26,0.8-0.58,1.6-0.75,2.4l4.5,4.05l0.6-0.67
	c-1.46-1.53-0.95-3.34-0.38-5.32L201.6,50.98z M219.1,61.35l-0.84-0.53c1.02-2.27,1.78-5.91,0.29-7.89
	c-1.02-1.35-2.65-1.84-4.21-0.66c-1.78,1.34-0.99,3.39-0.49,4.97l0.46,1.47c0.94,3.06,1.47,6.34-1.74,8.77
	c-2.98,2.24-6.72,1.57-8.65-0.99c-0.63-0.84-1.06-1.81-1.38-2.83c-0.15-0.47-0.22-0.79-0.51-1.18c-0.25-0.33-0.43-0.48-2.01-1.22
	l4.06-5.06l0.86,0.55c-1.2,2.71-2.18,6.43-0.39,8.79c1.06,1.41,3.26,2.02,4.93,0.76c1.78-1.35,1.15-3.32,0.64-4.9
	c-1.03-3.31-2.4-7.39,1.29-10.18c2.76-2.08,6.08-1.48,7.89,0.93c0.6,0.8,0.91,1.52,1.19,2.48c0.1,0.36,0.18,0.69,0.4,0.99
	c0.37,0.49,1.3,0.83,1.94,0.9L219.1,61.35z M223.21,64.75c1.63-0.98,1.83-1.81,0.92-3.33l0.77-0.46l4.52,7.52l-0.77,0.46
	c-0.91-1.51-1.74-1.73-3.37-0.75l-11.25,6.76c-1.63,0.98-1.83,1.81-0.92,3.33l-0.77,0.46l-4.52-7.52l0.77-0.46
	c0.91,1.51,1.74,1.73,3.37,0.75L223.21,64.75z M236.45,82.81l-4.31,3.57l-0.64-0.69c1.32-1.95,2.66-5.03,1.68-7.17l-13.9,6.78
	c-1.71,0.84-1.98,1.65-1.21,3.23l-0.81,0.39l-3.85-7.88l0.81-0.39c0.77,1.58,1.58,1.87,3.29,1.04l13.89-6.78
	c-1.37-2.06-4.11-2.85-6.67-3.05l-0.15-0.93l5.42-1.31L236.45,82.81z M239.41,93.76l-0.87,0.22c-0.41-1.19-0.75-1.45-1.36-1.3
	c-0.48,0.12-0.75,0.36-1.07,0.67l-5.08,4.6l5.65,1.5c0.51,0.15,1.22,0.3,1.78,0.16c1.24-0.31,1.02-1.41,0.92-2.27l0.87-0.22
	l1.6,6.39l-0.87,0.22c-0.64-1.66-1.5-2.08-3.24-2.63l-0.7-0.2l-7.12-2.01l-5.89,1.47c-1.71,0.45-2.3,1.13-1.85,2.94l-0.87,0.22
	l-2.14-8.56l0.87-0.22c0.57,1.5,0.82,2.27,3.01,1.72l5.05-1.26l7.08-6.59c1.07-0.98,1.39-1.51,1.31-2.85l0.87-0.22L239.41,93.76z
	 M233.16,108.69l0.06,2.19l-2.1-1.23l-2.22,0.71l0.67-2.06l-1.27-1.76l2.33,0l1.62-1.84l0.62,2.08l2.34,0.62L233.16,108.69z
	 M234.04,115.93l-0.17,2.18l-1.96-1.44l-2.28,0.47l0.88-1.98l-1.08-1.88l2.32,0.24l1.8-1.66l0.4,2.14l2.26,0.86L234.04,115.93z
	 M238.14,132.89l-0.3-0.95c2.24-1.09,5.16-3.38,5.3-5.86c0.09-1.69-0.85-3.11-2.8-3.21c-2.23-0.12-2.94,1.96-3.56,3.49l-0.59,1.42
	c-1.25,2.95-2.95,5.81-6.97,5.6c-3.72-0.2-6.16-3.12-5.99-6.32c0.06-1.05,0.35-2.07,0.76-3.05c0.19-0.45,0.34-0.74,0.37-1.23
	c0.02-0.42-0.02-0.64-0.76-2.22l6.36-1.26l0.3,0.97c-2.66,1.31-5.8,3.52-5.95,6.48c-0.09,1.76,1.2,3.64,3.29,3.75
	c2.23,0.12,3.01-1.8,3.64-3.34c1.34-3.19,2.91-7.21,7.53-6.96c3.45,0.18,5.61,2.77,5.45,5.78c-0.05,1-0.28,1.75-0.68,2.66
	c-0.15,0.33-0.31,0.65-0.33,1.01c-0.03,0.61,0.47,1.47,0.91,1.94L238.14,132.89z M232.31,147.63l5.59,0.88
	c1.89,0.3,2.57-0.21,2.85-1.95l0.89,0.14l-1.37,8.66l-0.89-0.14c0.28-1.74-0.22-2.44-2.1-2.74l-12.96-2.05
	c-1.88-0.3-2.57,0.21-2.85,1.95l-0.89-0.14l1.37-8.66l0.89,0.14c-0.28,1.74,0.22,2.44,2.1,2.74l6.1,0.96l1.03-6.48l-6.1-0.97
	c-1.88-0.3-2.57,0.21-2.85,1.96l-0.89-0.14l1.37-8.66l0.89,0.14c-0.28,1.74,0.22,2.44,2.1,2.74l12.96,2.05
	c1.88,0.3,2.57-0.22,2.84-1.96l0.89,0.14l-1.37,8.66l-0.89-0.14c0.27-1.74-0.22-2.44-2.1-2.74l-5.59-0.89L232.31,147.63z
	 M218.71,169.66c-2.02-0.16-3.44-0.42-4.24,1.63l-0.84-0.31l2.94-8.08l0.84,0.31c-0.48,1.49-0.28,1.96,0.49,2.24
	c0.49,0.18,1.07,0.23,1.58,0.26l3.32,0.27l2.14-5.87l-1.43-1.09c-0.59-0.45-1.26-0.98-1.98-1.24c-1.3-0.48-2.2,0.4-2.65,1.38
	l-0.84-0.31l2.23-6.12l0.84,0.31c-0.12,2.38,0.99,3.31,2.83,4.79l11.67,9.33l-0.02,3.8L218.71,169.66z M233.18,166.74l-7.21-5.73
	l-1.83,5.04L233.18,166.74z M228.22,183.7l-0.77-0.46c0.31-0.67,0.6-1.32-0.28-1.86c-0.49-0.29-1.53-0.57-2.11-0.72l-9.84-2.6
	l6.28,6.89l1.68,0.43l0.57,0.11c1.3,0.32,2.08,0.25,2.81-0.77l0.77,0.46l-3.96,6.59l-0.77-0.46c0.37-0.66,0.63-1.42-0.25-1.95
	c-0.37-0.23-0.88-0.33-1.28-0.46l-10.84-2.83l7,7.69c0.35,0.38,0.71,0.77,1.16,1.04c1.17,0.7,2.12,0.02,2.66-0.89l0.77,0.46
	l-3.03,5.04l-0.77-0.46c0.41-1.27,0.77-1.71-2.25-5.03l-10.46-11.4l0.87-1.45l13.16,3.25l-9.11-9.99l0.88-1.47l16.89,4.49
	c1.59,0.41,2.31,0.7,3.35-0.61l0.77,0.46L228.22,183.7z M195.99,202.81l6.75,6.08c1.72,1.55,2.82,2.28,4.63,0.64l0.67,0.6
	l-4.31,4.79l-0.67-0.6c1.23-2.02,0.61-2.88-1.17-4.48l-11.27-10.15l1.49-1.66l18.1,3.04l-7.77-6.99c-2.21-1.99-2.83-2.15-4.99-0.64
	l-0.67-0.6l4.64-5.15l0.67,0.6c-1.27,2.02-0.96,2.9,0.9,4.57l9.3,8.38c1.17,0.13,2.36-0.18,3.26-0.82l0.67,0.6l-4.16,4.62
	L195.99,202.81z M188.4,202.01c-1.41,1.06-1.54,1.91-0.39,3.43l7.89,10.48c1.15,1.52,2,1.63,3.41,0.57l0.54,0.72l-11.8,8.89
	l-4.3-3.14l0.39-0.74c2.73,0.9,5.98,0.98,8.21-0.7c1.74-1.31,1.25-1.96,0.04-3.57l-3.19-4.24l-0.39,0.29
	c-1.96,1.47-2.54,2.49-1.55,5.19l-0.76,0.57l-4.73-6.28l0.76-0.58c2.18,1.8,3.56,1.55,5.47,0.1l0.43-0.32l-3.46-4.59
	c-0.95-1.26-1.71-2.02-3.1-0.97c-2.42,1.83-3.45,4.98-3.48,8.11l-0.76,0.09l-1.58-5.15l11.8-8.89L188.4,202.01z M174.42,211.82
	c-1.58,0.77-1.87,1.58-1.04,3.29l5.75,11.79c0.84,1.71,1.65,1.98,3.23,1.21l0.39,0.81l-13.28,6.47l-3.62-3.9l0.53-0.65
	c2.51,1.41,5.69,2.1,8.2,0.88c1.96-0.96,1.6-1.69,0.72-3.5l-2.33-4.77l-0.44,0.21c-2.2,1.07-2.97,1.96-2.51,4.8l-0.86,0.42
	l-3.45-7.07l0.86-0.42c1.8,2.18,3.2,2.19,5.36,1.14l0.49-0.24l-2.52-5.16c-0.69-1.42-1.29-2.31-2.85-1.55
	c-2.73,1.33-4.34,4.24-4.97,7.3l-0.76-0.05l-0.57-5.35l13.28-6.48L174.42,211.82z M93.25,226.19l1.94,1.01l-2.09,1.24l-0.46,2.28
	l-1.48-1.58l-2.15,0.26l1.13-2.04l-0.82-2.3l2.12,0.47l1.67-1.75L93.25,226.19z M100.62,225.8l-1.48,1.91l-2.16-0.24l1.06,2.2
	l-0.91,2.15l2.12-0.49l1.64,1.42l0.22-2.32l1.95-1.45l-2.03-0.8L100.62,225.8z M111.28,221.63c-2.18,0.92-4.55,1.36-6.87,1.3
	l-0.13,0.8c2.35,0.37,3.02,1.85,2.68,3.95l-1.18,7.47c-0.6,3.77-1.42,3.72-3.87,3.54l-0.13,0.79l9.66,1.53l0.13-0.8
	c-3.12-0.73-3.05-1.19-2.65-3.73L111.28,221.63z M119.09,222.33c4.14,0.22,6.5,4.61,6.26,9.14c-0.28,5.27-3.84,10.44-8.65,10.18
	c-1.87-0.1-3.8-1.29-3.71-3.11c0.06-1.17,0.91-1.72,1.83-1.67c2.34,0.12,1.03,3.51,2.84,3.61c1.52,0.08,3.42-1.17,3.8-8.36
	c-1.32,1.52-3.14,2.62-5,2.52c-2.82-0.15-4.26-2.72-4.09-5.86C112.61,224.54,115.67,222.15,119.09,222.33 M121.56,230.44
	c0.03-2.21,0.03-6.97-2.59-7.1c-2.29-0.12-3.05,2.86-3.16,5.04c-0.1,1.87,0.39,4.39,2.33,4.49
	C119.53,232.93,120.7,231.59,121.56,230.44 M131.1,222.24c-1.94,1.35-4.17,2.27-6.45,2.7l0.04,0.8c2.38-0.12,3.33,1.18,3.45,3.31
	l0.4,7.55c0.2,3.81-0.61,3.93-3.05,4.27l0.04,0.8l9.77-0.51l-0.04-0.8c-3.21-0.07-3.23-0.53-3.37-3.1L131.1,222.24z M138.47,221.49
	c2.86-0.45,6.73,2.25,7.77,8.81c0.89,5.62-1.61,9.88-4.81,10.39c-3.56,0.56-7.02-2.7-7.89-8.16
	C132.57,226.42,134.94,222.04,138.47,221.49 M141.19,239.7c2.79-0.44,2.06-6.45,1.7-8.76c-1.13-7.13-2.78-8.68-4.35-8.44
	c-2.7,0.43-2.09,6.72-1.73,9C137.78,237.58,139.39,239.98,141.19,239.7 M150.03,225.67l-0.41,2.39l-2.02,0.8l1.97,1.45l0.2,2.32
	l1.64-1.42l2.11,0.48l-0.9-2.15l1.04-2.2l-2.17,0.25L150.03,225.67z M156.98,223.74l-0.16,2.42l-1.93,1.01l2.11,1.23l0.45,2.29
	l1.48-1.59l2.15,0.26l-1.12-2.04l0.8-2.29l-2.13,0.47L156.98,223.74z"/>
<path d="M66.25,74.39c-0.15,5.03,2.49,5.66,5.17,6.74c-0.14,0.36-0.21,0.75-0.21,1.17c0,1.55,1.04,2.81,2.33,2.81
	c1.29,0,2.33-1.26,2.33-2.81c0-0.35-0.05-0.68-0.15-0.99c2.95-0.91,6.71-1.4,5.84-7.76c-0.33-2.41-2.08-4.58-3.31-6.74
	c-0.06-0.1-0.04-0.3-0.04-0.3l-2.28,0c-0.66-0.23-1.36-0.35-2.09-0.35c-0.73,0-1.43,0.12-2.09,0.35l-1.99,0c0,0-0.1,0.07-0.12,0.14
	C68.55,69.59,66.33,71.81,66.25,74.39 M80.3,64.42c0.3-1.01,1.4-2.68,2.71-2.68c1.54,0,2.79,1.95,2.79,3.22
	c0,1.27-1.25,2.3-2.79,2.3c-0.25,0-0.49-0.03-0.71-0.08l-0.67,1.05c1.46,1.66,3,4.56,3,6.88c0,4-3.43,7.33-7.15,8.79
	c0.14,0.35,1.02,0.82,1.02,1.21c0,2.13-2.22,3.86-4.96,3.86c-2.74,0-4.96-1.73-4.96-3.86c0-0.59,0.89-1.01,1.2-1.52
	c-3.08-1.67-5.87-4.92-5.86-8.48c0-2.46,1.66-5.38,3.29-7.08l-0.67-0.85c-0.24,0.05-0.49,0.09-0.75,0.08c-1.54,0-2.79-1.03-2.79-2.3
	c0-1.27,1.25-3.22,2.79-3.22c1.31,0,2.41,1.67,2.71,2.68L80.3,64.42z M73.54,86.28c-0.09,0-0.15-0.07-0.15-0.15V65.68
	c0-0.09,0.07-0.15,0.15-0.15s0.15,0.07,0.15,0.15v20.44C73.7,86.21,73.63,86.28,73.54,86.28z M71.5,86.28
	c-0.09,0-0.15-0.07-0.15-0.15l0-20.44c0-0.09,0.07-0.15,0.15-0.15c0.09,0,0.15,0.07,0.15,0.15l0,20.44
	C71.66,86.21,71.59,86.28,71.5,86.28z M75.73,86.27c-0.09,0-0.15-0.07-0.15-0.15V65.68c0-0.09,0.07-0.15,0.15-0.15
	s0.15,0.07,0.15,0.15v20.44C75.89,86.21,75.82,86.27,75.73,86.27z M89.06,53.21c-0.12,0.04-0.23,0.06-0.33,0.06
	c-0.64,0-1.04-0.71-1.4-1.36c-0.26-0.47-0.52-0.92-0.82-1.06l-0.09-0.04l0.7-1.39l0.07,0.01c0.94,0.08,1.57,0.16,2.48,0.31
	l0.07,0.01l0.01,0.07C89.76,49.95,90.35,52.76,89.06,53.21z M104.53,60.76l0.06-0.04l-0.32-1.61l-0.01-0.05l-1.28-0.64l-0.03-0.02
	l-1.35,0.34v0.08c0,0.23-0.14,0.39-0.28,0.55c-0.16,0.18-0.33,0.38-0.33,0.68c0,1.13,0.76,2.82,1.74,3.3
	c0.18,0.08,0.35,0.13,0.52,0.13c0.24,0,0.47-0.09,0.69-0.25c0.39-0.31,0.27-0.69,0.15-1.05C103.92,61.69,103.77,61.24,104.53,60.76z
	 M101.11,66.6l-0.03-0.01l-0.03,0.01c-0.53,0.19-0.96,0.79-1.37,1.36c-0.28,0.39-0.55,0.76-0.82,0.97l-0.03,0.02l-0.01,0.03
	c-0.45,1.72,0.18,2.55,0.59,2.89c0.34,0.28,0.77,0.42,1.18,0.42c0.24,0,0.48-0.05,0.69-0.15c0.41-0.2,0.63-0.57,0.62-1.02
	c-0.03-1.02,0.49-1.19,0.91-1.33c0.26-0.09,0.53-0.17,0.53-0.48C103.34,68.46,103.11,67.25,101.11,66.6z M86.15,55.57
	c-0.47-0.34-0.95-0.37-1.36-0.1c-0.73,0.49-0.71,1.25-0.68,2.05c0.01,0.17,0.01,0.33,0.01,0.51c0,0.12,0,0.24-0.01,0.36
	c-0.02,0.74-0.04,1.5,0.68,1.89c0.18,0.1,0.38,0.15,0.57,0.15c0.16,0,0.32-0.03,0.49-0.1c0.61-0.25,1.19-0.99,1.42-1.79
	C87.56,57.52,86.92,56.13,86.15,55.57z M93.07,70.29l-0.03-0.02c-0.06-0.03-1.44-0.71-2.22-0.31c-0.53,0.27-0.9,0.83-0.99,1.49
	c-0.09,0.62,0.1,1.22,0.51,1.6c0.24,0.22,0.57,0.3,0.93,0.3c0.81,0,1.71-0.4,1.77-0.43l0.03-0.01l0.64-1.27l0.02-0.04L93.07,70.29z
	 M93.96,53.4l11.52-12.68c0.15-0.02,0.45-0.27,0.77-0.33c0.35-0.06,0.8,0.48,0.89,0.08c0.77-3.25,4.3-1.85,4.44-4.24
	c0.3,1.49-0.1,2.7-1.24,3.71c-0.93,0.83-1.85,1.3-3.04,0.97c0,0,0.28,0.51,0.24,0.85c-0.03,0.27-0.3,0.65-0.3,0.65L95.82,53.54
	l-0.93,0.18L93.96,53.4z M95.82,53.4l14.07-11.44c0.13-0.03,0.43-0.18,0.58-0.18c0.31-0.01,0.72,0.19,0.85,0.12
	c0.08-0.04,0.08-0.28,0.12-0.45c0.89-3.25,2.68-1.75,4.33-3.82c0.37,1.48-0.06,2.75-1.24,3.71c-0.98,0.8-1.98,1.05-3.17,0.72
	c0,0,0.35,0.45,0.33,0.77c-0.02,0.25-0.28,0.59-0.28,0.59l-11.25,8.12L95.82,53.4z M95.38,79.06c-6.51,0-14.37-7.52-14.37-16.85l0,0
	c0-7.09,2.06-13.19,5.25-15.54c1.5-1.11,3.19-1.39,5.03-0.82c2.23,0.69,1.89,2.76,1.62,4.42c-0.18,1.1-0.35,2.14,0.1,2.73
	c0.25,0.32,0.67,0.51,1.31,0.57c1.04,0.1,1.94-0.54,2.9-1.21c1.72-1.21,3.66-2.57,6.6,0.28c2.49,2.42,3.91,6.02,3.91,9.89
	C107.74,71.64,102.19,79.06,95.38,79.06z M81.61,62.22c0,9,7.54,16.25,13.77,16.25c6.49,0,11.76-7.15,11.76-15.94
	c0-3.71-1.36-7.16-3.73-9.46c-2.58-2.51-4.16-1.4-5.84-0.22c-1.01,0.71-2.06,1.44-3.3,1.32c-0.81-0.08-1.37-0.34-1.72-0.8
	c-0.61-0.79-0.41-2.01-0.22-3.19c0.33-2.01,0.41-3.26-1.21-3.76c-1.64-0.51-3.16-0.26-4.5,0.73C83.62,49.37,81.61,55.42,81.61,62.22
	L81.61,62.22z M95.7,65.23L95.7,65.23c-1.6,0-3.18-1.67-3.5-3.72l0,0c-0.19-1.18,0.06-2.27,0.67-3c0.44-0.52,1.03-0.79,1.69-0.79h0
	c1.6,0,3.17,1.67,3.5,3.72c0.19,1.18-0.06,2.27-0.67,2.99C96.94,64.95,96.36,65.23,95.7,65.23z M94.56,58.12
	c-0.54,0-1.02,0.22-1.39,0.65c-0.54,0.63-0.75,1.61-0.58,2.67l0,0c0.3,1.87,1.69,3.39,3.11,3.39h0c0.54,0,1.02-0.23,1.39-0.65
	c0.54-0.63,0.75-1.61,0.58-2.67C97.37,59.63,95.97,58.12,94.56,58.12L94.56,58.12z M210.27,125.84c-1.06-2.11-3.55-2.96-5.68-1.95
	c-1.5,0.71-2.31,1.9-2.42,3.53c-3.51-0.18-5.68,0.04-9.14,0.94c-2.62,0.69-3.73,1.51-5.14,2.55c-1.38,1.02-3.09,2.29-6.92,3.88
	c-0.6-1.35-2.01-1.41-3.06-1.33c-1.29,0.1-2.17,0.67-2.8,1.84l-6.1,20.79l7.08,0.8c2.06-0.16,9.43-2.53,15.84-5.74
	c0.91-0.45,1.72-0.99,2.5-1.5c1.63-1.07,3.16-2.09,5.33-2.19l7.73-1.26l1.1-10.96l1.7-9.28l0.01-0.07L210.27,125.84z M194.21,149.32
	c-0.77,0.51-1.57,1.04-2.45,1.48c-6.37,3.19-13.67,5.54-15.66,5.7l-6.57-0.75l5.95-20.3c0.55-1.01,1.31-1.51,2.47-1.6
	c1.55-0.11,2.38,0.27,2.74,1.26l0.03,0.1l-4.94,20.83l0.29,0.07l4.95-20.87l-0.05-0.01c3.99-1.64,5.75-2.95,7.17-4
	c1.37-1.01,2.45-1.81,5-2.48c3.45-0.9,5.52-1.12,9.02-0.93l-2.41,19.25l-0.02,0C197.46,147.18,195.88,148.22,194.21,149.32z
	 M208.19,135.19l-1.07,10.67l-7.08,1.16l2.4-19.18l0.11,0.01l0.01-0.2c0.05-1.59,0.77-2.7,2.21-3.38c1.91-0.91,4.14-0.16,5.12,1.71
	L208.19,135.19z M199.68,146.49c0,1.28,1.7,2.32,3.79,2.32c2.09,0,3.79-1.04,3.79-2.32c0-1.28-1.7-2.32-3.79-2.32
	C201.37,144.17,199.68,145.21,199.68,146.49 M168.58,156.22c0,1.24,1.66,2.24,3.71,2.24c2.05,0,3.71-1,3.71-2.24
	c0-1.24-1.66-2.24-3.71-2.24C170.25,153.98,168.58,154.99,168.58,156.22 M129.2,192.88l0.15,1.69l1.85,1.23l0.49,1.72l20.1-1.08
	c1.48,0.18,2.88-1.14,2.78-2.63c-0.09-1.32-1.15-2.32-2.47-2.32L129.2,192.88z M149.47,192.73l2.78-1.08l-12.53-2.01l-6.49-1.24
	l-1.24,1.24l7.11,0.93l3.25,1.24L149.47,192.73z M146.33,178.15l-0.1-0.02c-0.04,0-0.09,0-0.13,0c-4.39,0-7.07,0.69-10.95,2.81
	c-2.97,1.62-4.59,2.94-6.63,5.44v-11.89l-0.01-0.06c-0.32-1.18-1-1.91-2.15-2.32c-0.89-0.31-1.6-0.3-2.42,0.06l-0.22-0.66
	c-0.29-1.73-1.39-2.89-3.11-3.27c-0.86-0.19-1.46-0.15-2.29,0.16l-0.06,0.02l-5.03,6.44l-0.15,3.83l-5.4,3.86l-0.31,3.26l-2.78,2.47
	l-1.17,8.23l1.77,1.22l16.39,0c0.01,0.28,0.06,0.49,0.17,0.79c0.41,1.07,1.32,1.7,2.43,1.7c0.02,0,0.05,0,0.07,0l0.15,0.76h4.16
	l-0.15-0.77c0.6-0.04,1.19-0.35,1.62-0.87c0.5-0.61,0.68-1.37,0.49-2.04c-0.17-0.6-0.57-1.09-1.13-1.38c-0.47-0.25-1-0.33-1.51-0.23
	l-0.13-2.53c0.67-0.37,1.08-0.61,1.74-1.02c2.53-1.55,4.19-3.25,5.8-4.89c1.54-1.57,3.13-3.19,5.49-4.7
	c2.42-1.54,3.87-2.34,6.47-3.54l0.42-0.19L146.33,178.15z M110.28,196.06h-4.33l-0.63-0.63l0.6-6.13l3.28-2.24l1.08-0.24
	L110.28,196.06z M116.47,195.84c-0.75,0.39-1.36,0.45-2.2,0.23c-0.46-0.12-0.72-0.24-1.07-0.51v-14.67
	c0.43-0.64,0.96-0.93,1.73-0.93c0.02,0,0.04,0,0.05,0c0.63,0.01,1.06,0.19,1.48,0.64V195.84z M121.73,195.73
	c-0.42,0.41-0.84,0.56-1.45,0.49c-0.53-0.06-0.86-0.23-1.19-0.63v-1.25l2.47,0v-1.98l-2.78-0.15l0-17.63
	c0.52-0.47,1.04-0.61,1.75-0.5c0.54,0.09,0.85,0.25,1.21,0.64L121.73,195.73z M119.39,171.01v-0.79l2.36,0l0.1,0.79L119.39,171.01z
	 M125.49,173.62c0,0,0.01,0,0.01,0c0.43,0,0.7,0.09,1.02,0.35v2.29c-0.48-0.02-0.81-0.02-1.34,0.02c-0.4,0.03-0.66,0.06-1,0.11
	l0-2.13C124.53,173.81,124.92,173.62,125.49,173.62z M127.33,188.28c-0.86,1.39-1.06,2.34-1.3,3.45c-0.11,0.52-0.23,1.06-0.43,1.71
	c-0.05,0.17-0.19,0.18-0.73,0.07c-0.14-0.03-0.29-0.06-0.43-0.07l-0.6-0.06l0.42,0.44c0.5,0.52,0.5,1.34,0,1.86
	c-0.18,0.19-0.34,0.29-0.54,0.35l0.16-13.69c0.12-0.2,0.18-0.21,0.36-0.22c0.14-0.01,0.33-0.03,0.58-0.14
	c0.34-0.14,0.39-0.13,0.65-0.09c0.2,0.04,0.5,0.09,1.07,0.1l0.3,5.36l0.03,0.1c0.09,0.16,0.22,0.27,0.34,0.37
	C127.42,187.99,127.48,188.04,127.33,188.28z M61.33,151.13c0.66-0.07,1.06-0.03,1.7,0.15c0.89,0.26,1.38,0.57,2.01,1.24l-1.7,1.08
	l-2.17-1.39L61.33,151.13 M60.56,155.77c-0.54-0.13-0.88-0.53-0.93-1.08c-0.03-0.38,0.05-0.64,0.31-0.93
	c1.08,0.16,1.7,0.37,2.63,0.93c0.52,0.31,0.8,0.52,1.24,0.93L60.56,155.77 M53.45,157.78c-1.01,0.78-1.81,1.06-3.09,1.08
	c-1.34,0.02-2.19-0.27-3.25-1.08L53.45,157.78 M70.46,141.7l1.24,0l0,5.88l-1.24-0.77L70.46,141.7z M67.67,135.67l0.62,0.93l0,4.95
	l-0.62,0l0-2.63l-1.55-1.55l0.93-0.93L67.67,135.67z M63.81,137.83c-0.09,0.33-0.29,0.53-0.62,0.62l0,4.17l-0.93,0.47l-0.79,1.3
	l0.94,3.03c1.08,0.93,2.16,0.62,5.26,0c0.51-0.1,0.41,0.73,0.46,1.24l-0.77,1.08l-6.65-0.31c0.16-1.81,0.05-2.9-0.47-4.64
	c-0.37-1.27-0.69-1.97-1.39-3.09l-0.16-1.39l1.24,0l1.55,0l0.04-1.08c-0.86-0.5-1.51-0.66-2.51-0.62c-1.09,0.04-1.76,0.28-2.63,0.93
	c-0.09,0.42-0.48,0.81-0.15,1.08c2.01,1.7,2.92,4.18,3.25,7.27c0.62,5.72-0.84,5.6-3.25,7.89l-10.67,0l-2.63-1.39
	c-2.16-3.19-2.65-6.01-1.7-9.74c0.85-3.31,2.27-5.2,5.1-7.11c2.97-2.01,5.39-2.21,8.97-2.01c1.84,0.1,3.98,0.62,5.72,1.24l0-0.78
	c-3.15-1.81-5.52-2.29-9.12-1.85c-6.12,0.75-10.51,4.12-12.21,10.05c-1.38,4.78-0.62,8.62,2.47,12.53l-1.55,3.71
	c-0.07,0.34,0.13,0.67,0.47,0.77c0.31,0.1,0.61-0.02,0.77-0.31c0.1-0.7,0.25-1.1,0.62-1.7c0.29-0.48,0.5-0.72,0.93-1.09
	c2.42,1.43,4.15,1.9,6.96,1.86c2.43-0.03,3.89-0.41,6.03-1.55l2.01,2.48c0.26,0.25,0.6,0.31,0.93,0.15
	c0.27-0.13,0.42-0.32,0.46-0.62l-2.47-2.78l0.93-0.93l1.39,0l0,2.01l9.43,0l1.55-1.55l2.01,0l0-1.55l-2.47,0l0-1.85l0-2.79
	c0.57,0.2,0.98,0.2,1.55,0c1.07-0.37,1.68-1.34,1.55-2.47l0-8.2c-1.02-1.31-1.53-2.1-2.32-3.55c-0.54-1-0.81-1.58-1.24-2.63l-3.4,0
	l0-6.96l-2.47,0l-0.31,5.57l-1.08,1.7l0,1.55C63.02,136.06,63.95,137.3,63.81,137.83 M148.44,62.51c0.79,0.15,1.32,0.76,1.35,1.57
	c0.03,0.86-0.54,1.62-1.39,1.7c-0.89,0.09-1.54-0.43-1.7-1.55c-0.31-2.16,0.62-2.94,1.7-4.02L148.44,62.51z M193.35,71.48
	L179.2,63.9l-13.28,4.36l2.07,3.33l2,6.77l4.93-1.54c0,0,1.77,3.64,3.85,2.46c0.62-0.35,3.05-0.47,3.54-0.61
	c1.28-0.38,1.85,0.92,1.85,0.92l1.54-0.92l-0.95-4.23L193.35,71.48z M181.18,77.84c-0.8-0.46-0.45-2.2,0.46-2.32l0.77,2.32
	C181.99,78.08,181.59,78.08,181.18,77.84z M183.68,72.82c0,0-4.62-2.46-6.93-3.08c-1.37-0.37-2.21-0.74-2.31,0.15
	c-0.04,0.38-0.14,0.46,0.31,0.92c0.72,0.75,1.54-0.62,1.54-0.62l4.73,2.95l-10.54,3.55l-2.15-8.44l10.73-3.28L189.63,71
	L183.68,72.82z M174.04,68.26l0-0.81l-0.64-0.49c-2.17,1.96-4.52,2.47-7.31,1.61c-1.77-0.54-1.62-2.1-3.87-2.74l-0.29,0
	c0.46-0.17,0.77-0.47,0.77-0.81c0-0.54-0.77-0.97-1.72-0.97c-0.95,0-1.72,0.43-1.72,0.97c0,0.34,0.31,0.63,0.77,0.81l-0.28,0
	c-3.06,1.77-3.13,4.19-5.65,4.19c-1.22,0-4.14-1.32-4.76-2.86c-0.28-0.69-1.1-0.36-1.1-0.36s-0.75,9.21,8.4,11.27
	c-1.07,0.35-1.73,0.84-1.73,1.37c0,1.07,2.65,1.94,5.92,1.93c3.27,0,5.92-0.87,5.92-1.93c0-0.6-0.82-1.13-2.11-1.48
	C172.08,75.88,174.04,68.26,174.04,68.26z M159.99,77.37c-2.93,0.31-5.06,0.06-7.2-1.96c-1.67-1.58-2.39-2.95-2.74-5.22
	c1.94,1.9,3.48,2.72,6.13,3.28c2.42,0.51,3.99,0.43,6.35-0.32C162.52,73.15,161.6,75.92,159.99,77.37z M162.77,80.47
	c-0.68,0-1.24-0.21-1.24-0.46c0-0.26,0.55-0.46,1.24-0.47c0.69,0,1.24,0.21,1.24,0.46C164.01,80.26,163.46,80.47,162.77,80.47z
	 M160.75,71.8c-1.57,0.18-2.62-0.08-3.93-0.97c0.19-2.25,2.35-3.92,4.57-3.55c1.54,0.26,2.55,1.11,3.06,2.58
	C163.38,71.09,162.37,71.62,160.75,71.8z M168.49,73.15c-0.48,1.34-1.35,2.11-2.74,2.42l0.48-4.09l2.1-1.29
	C168.84,71.23,168.89,72.06,168.49,73.15z"/>
<path d="M115.33,119.82l10.66-17.34c0.09,0.04,0.18,0.07,0.28,0.12l-10.68,17.38c-0.03,0.05-0.08,0.07-0.13,0.07
	c-0.03,0-0.05-0.01-0.08-0.02C115.31,119.98,115.29,119.89,115.33,119.82z M119.09,111.98c0.02,0.02,0.05,0.02,0.08,0.02
	c0.05,0,0.1-0.03,0.13-0.07l6.06-9.64c-0.11-0.02-0.2-0.05-0.32-0.05l-5.99,9.53C119,111.85,119.02,111.94,119.09,111.98z
	 M126.83,108.43c0.02,0.01,0.05,0.02,0.07,0.02c0.05,0,0.11-0.03,0.13-0.08l2.58-4.93c-0.1,0.01-0.23-0.01-0.33-0.01l-2.52,4.8
	C126.73,108.3,126.76,108.39,126.83,108.43z M126.99,109.98c0.02,0.01,0.04,0.02,0.07,0.02c0.05,0,0.11-0.03,0.13-0.08l3.36-6.59
	c-0.12,0.02-0.24,0.03-0.36,0.05l-3.26,6.41C126.88,109.85,126.91,109.94,126.99,109.98z M141.39,119.42c0.01,0,0.03,0.01,0.04,0.01
	c0.07,0,0.13-0.04,0.14-0.11l2.02-7.33c-0.06-0.12-0.1-0.24-0.19-0.37c-0.01-0.01-0.01-0.01-0.02-0.02l-2.1,7.63
	C141.27,119.32,141.32,119.4,141.39,119.42z M140.93,117.57c0.01,0,0.03,0.01,0.04,0.01c0.06,0,0.13-0.04,0.14-0.11l1.81-6.33
	c-0.08-0.06-0.18-0.11-0.27-0.16l-1.83,6.41C140.8,117.46,140.85,117.54,140.93,117.57z M137.57,120.35c0.06,0,0.12-0.04,0.14-0.1
	l3.5-10.12c-0.08-0.06-0.17-0.11-0.25-0.18l-3.52,10.2c-0.03,0.08,0.01,0.16,0.09,0.19C137.54,120.35,137.55,120.35,137.57,120.35z
	 M131.69,110.15c0.06,0,0.11-0.03,0.13-0.09l2.4-5c-0.08-0.06-0.17-0.12-0.24-0.19l-2.43,5.06c-0.04,0.07,0,0.16,0.07,0.2
	C131.65,110.14,131.67,110.15,131.69,110.15z M140.15,116.33c0.02,0,0.03,0.01,0.05,0.01c0.06,0,0.12-0.04,0.14-0.1l1.79-5.56
	c-0.09-0.05-0.18-0.1-0.27-0.14l-1.81,5.62C140.03,116.22,140.07,116.3,140.15,116.33z M115.69,121.57
	c0.02,0.01,0.05,0.02,0.08,0.02c0.05,0,0.1-0.03,0.13-0.07l11.14-18.56c-0.09-0.04-0.18-0.09-0.27-0.13l-11.12,18.54
	C115.6,121.44,115.62,121.53,115.69,121.57z M108.03,137.68l14.54,0.15c-1-0.96-1.74-1.88-2.94-2.01
	C115.15,135.36,110.2,135.67,108.03,137.68z M131.69,135.82c-1.2,0.12-1.94,1.04-2.94,2.01l14.53-0.16
	C141.12,135.67,136.18,135.36,131.69,135.82z M141.28,125.62l3.41,8.97c-0.07,0.11-0.14,0.21-0.2,0.34
	c-0.17,0.34-0.28,0.66-0.37,0.97c-2.77-1.27-4.46-0.7-8.1-1.31c-6.5-1.08-10.52,3.71-10.52,3.71s-2.01-3.71-9.28-3.71
	c-4.08,0-6.9,1-10.27,1.63c-0.01-0.04-0.01-0.07-0.02-0.11c-0.03-0.11-0.07-0.23-0.1-0.35l5.14-10.13c2.81-1.57,5.75-2.19,8.97-2.01
	c2.56,0.14,5.6,0.87,6.65,1.39c1.05-0.52,3.93-1.41,6.5-1.55C136.3,123.28,138.47,124.05,141.28,125.62z M143.91,135.21l-3.09-8.82
	l-1.55,0.93l-2.78-1.08l-0.46-1.08l2.6,0.48c-1.43-0.53-2.66-1.51-4.45-1.56c-1.63-0.05-2.89,0.82-4.15,1.16l-0.18,1.78
	c-0.12,0.07,0.28,1.03,0.15,1.08c-0.51,0.23-0.84,0.3-1.39,0.31l-0.83-2.35l-1.8,0.34c-1.18-0.55-1.89-0.96-2.63-1.24c0,0,0,0,0,0
	c0,0-0.02-0.01-0.02-0.01c-0.54-0.2-1.09-0.34-1.85-0.41c1.08,0.18,1.79,0.39,1.85,0.41c0.01,0,0.01,0.01,0.02,0.01
	c-0.51,0.09-0.83,0.32-1.08,0.77c-0.32,0.58-0.27,1.18,0.15,1.7c-0.46,0.39-1.17,0.32-1.54-0.15c-0.27-0.33-0.32-0.69-0.16-1.08
	c-1.55-0.31-3.09-0.15-5.41,0.47c-0.71,0.19-1.03-0.56-1.55-1.08c-0.53,0.2-1.68,0.31-2.32,0.62l-4.17,8.97l3.25-0.93
	c2.16-0.89,3.53-1.18,5.88-1.24c2.74-0.06,6.36,1.18,8.51,2.16l0-1.24l-0.62-2.63l1.39,1.39l0.77,2.32l1.98-1.08
	c1.12-0.36,2.26-0.59,3.74-0.77C136.7,132.77,139.77,133.24,143.91,135.21z M147.36,123.65c-0.14-0.29-0.29-0.57-0.42-0.88
	c-0.14-0.34-0.27-0.74-0.34-1.2c-0.07-0.45-0.07-0.86-0.04-1.24c0.03-0.33,0.08-0.65,0.12-0.97c0.08-0.55,0.11-0.93-0.04-1.4
	c-0.15-0.47-0.4-0.76-0.79-1.16c-0.22-0.23-0.45-0.45-0.67-0.71c-0.01-0.01-0.02-0.03-0.03-0.04l-2.79,9.71l2.88,8.07
	c0.2-0.23,0.41-0.44,0.61-0.65c0.39-0.4,0.63-0.69,0.79-1.16c0.15-0.47,0.12-0.85,0.05-1.4c-0.05-0.31-0.1-0.63-0.12-0.97
	c-0.03-0.37-0.03-0.78,0.04-1.25c0.07-0.46,0.2-0.85,0.34-1.2c0.13-0.31,0.28-0.6,0.42-0.88c0.25-0.5,0.39-0.86,0.39-1.35
	C147.75,124.51,147.61,124.15,147.36,123.65z M115.68,115.38c0.03,0.02,0.05,0.02,0.08,0.02c0.05,0,0.1-0.02,0.13-0.07l8.53-13.01
	c-0.15,0.04-0.32,0.1-0.47,0.17l-8.31,12.67C115.6,115.24,115.62,115.34,115.68,115.38z M107.96,139.38l34.07,0
	c-0.2,0.1-0.39,0.2-0.59,0.32c-0.32,0.2-0.65,0.44-0.98,0.77c-0.33,0.33-0.57,0.66-0.77,0.98c-0.17,0.29-0.32,0.58-0.47,0.86
	c-0.26,0.49-0.46,0.82-0.86,1.1c-0.4,0.29-0.77,0.38-1.32,0.48c-0.31,0.05-0.63,0.1-0.96,0.18c-0.36,0.09-0.76,0.21-1.17,0.43
	c-0.42,0.21-0.75,0.46-1.03,0.7c-0.25,0.22-0.48,0.45-0.71,0.67c-0.4,0.39-0.69,0.63-1.16,0.79s-0.85,0.12-1.4,0.05
	c-0.31-0.05-0.63-0.1-0.97-0.13c-0.38-0.03-0.79-0.03-1.24,0.05c-0.46,0.07-0.85,0.2-1.2,0.34c-0.31,0.13-0.6,0.28-0.88,0.42
	c-0.5,0.25-0.86,0.39-1.35,0.39c-0.49,0-0.85-0.14-1.34-0.39c-0.29-0.14-0.57-0.29-0.88-0.42c-0.34-0.14-0.73-0.27-1.19-0.34
	c-0.45-0.07-0.86-0.07-1.25-0.04c-0.33,0.03-0.65,0.08-0.96,0.13c-0.55,0.08-0.93,0.11-1.4-0.05c-0.47-0.15-0.77-0.4-1.16-0.79
	c-0.23-0.22-0.45-0.45-0.71-0.67c-0.28-0.24-0.62-0.48-1.03-0.69c-0.41-0.21-0.81-0.34-1.17-0.43c-0.33-0.08-0.64-0.13-0.95-0.18
	c-0.55-0.09-0.92-0.19-1.32-0.47c-0.4-0.29-0.6-0.62-0.86-1.11c-0.15-0.28-0.29-0.57-0.47-0.86c-0.19-0.32-0.43-0.65-0.76-0.98
	c-0.33-0.33-0.66-0.57-0.98-0.77C108.35,139.58,108.16,139.48,107.96,139.38z M130.33,140.88l0,2.23c0,0.95,0.68,1.41,1.55,1.41
	c0.87,0,1.55-0.46,1.55-1.41l0-2.24l-0.77,0l0,1.94c0,0.6-0.03,1.15-0.78,1.15c-0.75,0-0.78-0.55-0.78-1.15l0-1.94L130.33,140.88z
	 M123.53,146.25l1.91,0c0.32,0.01,0.64,0,0.92-0.1c0.56-0.21,0.97-0.68,0.97-1.3c0-0.67-0.38-1.28-1.07-1.39
	c0.53-0.16,0.9-0.62,0.9-1.17c0-1.04-0.81-1.4-1.73-1.39l-1.91,0L123.53,146.25z M117.73,142.67c0,1.06,0.53,1.86,1.72,1.86
	c1.18,0,1.71-0.81,1.72-1.86c0-1.05-0.53-1.86-1.72-1.86C118.26,140.81,117.73,141.61,117.73,142.67z M119.45,143.97
	c0.76,0,0.9-0.69,0.9-1.31c0-0.61-0.14-1.3-0.9-1.3c-0.75,0-0.9,0.69-0.9,1.3C118.55,143.28,118.69,143.97,119.45,143.97z
	 M121.58,103.4c-0.45,0.07-0.86,0.07-1.24,0.04c-0.34-0.02-0.65-0.08-0.97-0.12c-0.55-0.08-0.93-0.11-1.4,0.04
	c-0.47,0.15-0.76,0.4-1.16,0.79c-0.23,0.22-0.45,0.45-0.71,0.67c-0.28,0.24-0.62,0.49-1.03,0.7c-0.41,0.21-0.81,0.34-1.17,0.43
	c-0.33,0.08-0.64,0.13-0.95,0.18c-0.55,0.09-0.92,0.18-1.32,0.47c-0.4,0.29-0.6,0.62-0.86,1.11c-0.15,0.28-0.29,0.57-0.47,0.86
	c-0.2,0.32-0.44,0.65-0.77,0.98c-0.33,0.33-0.66,0.57-0.98,0.76c-0.29,0.18-0.57,0.32-0.85,0.47c-0.49,0.26-0.82,0.46-1.11,0.86
	c-0.29,0.4-0.38,0.77-0.47,1.32c-0.05,0.31-0.1,0.63-0.18,0.96c-0.09,0.36-0.21,0.76-0.43,1.17c-0.21,0.41-0.45,0.75-0.69,1.03
	c-0.22,0.26-0.45,0.48-0.67,0.71c-0.39,0.39-0.63,0.69-0.79,1.16c-0.15,0.47-0.12,0.85-0.04,1.4c0.05,0.31,0.1,0.63,0.12,0.97
	c0.03,0.38,0.03,0.79-0.04,1.25c-0.07,0.46-0.2,0.85-0.34,1.2c-0.13,0.31-0.28,0.6-0.42,0.88c-0.25,0.5-0.39,0.85-0.39,1.35
	c0,0.49,0.15,0.85,0.39,1.35c0.14,0.29,0.29,0.57,0.42,0.88c0.14,0.35,0.27,0.74,0.34,1.2c0.07,0.45,0.07,0.86,0.04,1.24
	c-0.02,0.34-0.08,0.65-0.12,0.97c-0.08,0.55-0.11,0.93,0.04,1.4c0.01,0.03,0.03,0.05,0.04,0.07l18.89-28.91
	C122.05,103.27,121.85,103.35,121.58,103.4z M126.39,142.34c0-0.71-0.5-0.83-1.2-0.81l-0.92,0l0,1.62l0.92,0
	C125.89,143.17,126.39,143.04,126.39,142.34z M126.55,144.7c0-0.66-0.47-0.91-1.04-0.91l-1.24,0l0,1.83l1.24,0
	C126.08,145.61,126.55,145.36,126.55,144.7z M151.28,113.17c0.96-0.31,2.12-0.44,2.51,0.75c0.39,1.19-0.63,1.77-1.59,2.08
	c-0.96,0.31-2.12,0.44-2.51-0.75C149.31,114.07,150.32,113.49,151.28,113.17z M161.42,125c0,1.05-0.33,1.82-0.73,2.63
	c-0.18,0.37-0.38,0.74-0.55,1.14c-0.02,0.05-0.04,0.09-0.06,0.14c-0.2,0.46-0.36,0.98-0.45,1.57c-0.09,0.59-0.09,1.13-0.05,1.63
	c0.04,0.49,0.11,0.95,0.18,1.41c0.13,0.89,0.21,1.72-0.12,2.73c-0.32,1-0.88,1.63-1.51,2.27c-0.32,0.33-0.66,0.66-0.98,1.04
	c-0.03,0.03-0.05,0.06-0.08,0.09c-0.3,0.36-0.59,0.77-0.84,1.27c-0.27,0.54-0.44,1.05-0.56,1.53c-0.11,0.48-0.18,0.94-0.26,1.4
	c-0.15,0.89-0.33,1.7-0.95,2.56c-0.62,0.85-1.34,1.28-2.14,1.7c-0.41,0.22-0.83,0.42-1.25,0.68c-0.43,0.26-0.86,0.58-1.29,1
	c-0.25,0.25-0.46,0.5-0.65,0.75c-0.13,0.19-0.25,0.36-0.36,0.54c-0.26,0.42-0.47,0.84-0.68,1.25c-0.42,0.8-0.84,1.52-1.7,2.14
	c-0.85,0.62-1.67,0.8-2.56,0.95c-0.46,0.08-0.92,0.15-1.4,0.26c-0.49,0.12-1,0.28-1.54,0.55c-0.53,0.27-0.97,0.59-1.35,0.92
	c-0.37,0.32-0.7,0.66-1.03,0.98c-0.65,0.63-1.27,1.18-2.28,1.51c-1,0.33-1.83,0.25-2.73,0.12c-0.46-0.07-0.92-0.15-1.41-0.18
	c-0.5-0.04-1.04-0.04-1.63,0.05c-0.59,0.09-1.1,0.26-1.57,0.45c-0.45,0.19-0.87,0.4-1.29,0.61c-0.81,0.4-1.57,0.73-2.63,0.73
	c-1.06,0-1.82-0.33-2.63-0.73c-0.42-0.21-0.83-0.42-1.29-0.61c-0.47-0.19-0.98-0.36-1.57-0.45c-0.59-0.09-1.13-0.09-1.63-0.05
	c-0.49,0.04-0.95,0.12-1.41,0.18c-0.89,0.13-1.72,0.21-2.72-0.12c-1-0.33-1.63-0.88-2.28-1.51c-0.33-0.33-0.66-0.66-1.03-0.98
	c-0.38-0.33-0.82-0.64-1.35-0.92c-0.54-0.27-1.05-0.44-1.53-0.56c-0.48-0.11-0.94-0.18-1.4-0.26c-0.89-0.15-1.7-0.34-2.56-0.96
	c-0.85-0.62-1.28-1.34-1.7-2.14c-0.22-0.41-0.42-0.83-0.68-1.25c-0.11-0.18-0.23-0.37-0.36-0.55c-0.18-0.25-0.4-0.5-0.65-0.75
	c-0.43-0.42-0.86-0.74-1.29-1c-0.42-0.26-0.84-0.47-1.25-0.68c-0.8-0.42-1.52-0.84-2.14-1.7c-0.62-0.85-0.8-1.67-0.95-2.56
	c-0.08-0.46-0.15-0.92-0.26-1.4c-0.12-0.49-0.28-1-0.56-1.53c-0.25-0.49-0.54-0.91-0.84-1.27c-0.03-0.03-0.05-0.06-0.08-0.09
	c-0.32-0.37-0.65-0.71-0.98-1.03c-0.63-0.65-1.18-1.27-1.51-2.28c-0.33-1-0.25-1.83-0.11-2.73c0.07-0.46,0.14-0.92,0.18-1.41
	c0.04-0.5,0.04-1.04-0.05-1.63c-0.09-0.59-0.26-1.1-0.45-1.57c-0.02-0.05-0.04-0.1-0.06-0.15c-0.17-0.39-0.37-0.76-0.55-1.14
	c-0.4-0.81-0.73-1.57-0.73-2.63c0-1.05,0.33-1.82,0.73-2.63c0.21-0.42,0.42-0.83,0.61-1.29c0.19-0.47,0.36-0.98,0.45-1.57
	c0.09-0.59,0.09-1.13,0.05-1.63c0-0.01,0-0.01,0-0.02c-0.04-0.49-0.12-0.93-0.18-1.39c-0.13-0.89-0.21-1.72,0.12-2.73
	c0.33-1,0.88-1.63,1.51-2.27c0.32-0.33,0.66-0.66,0.98-1.03c0.33-0.38,0.64-0.82,0.92-1.35c0.27-0.54,0.44-1.05,0.56-1.54
	c0.05-0.19,0.08-0.37,0.12-0.55c0.05-0.29,0.1-0.57,0.14-0.85c0.15-0.89,0.33-1.7,0.95-2.55c0.62-0.85,1.34-1.28,2.14-1.7
	c0.41-0.21,0.83-0.42,1.25-0.68c0.43-0.26,0.86-0.58,1.29-1c0.43-0.43,0.74-0.86,1-1.29c0.25-0.42,0.47-0.84,0.68-1.25
	c0.42-0.8,0.85-1.52,1.7-2.13c0.85-0.62,1.67-0.8,2.56-0.96c0.46-0.08,0.92-0.14,1.4-0.26c0.49-0.12,1-0.29,1.54-0.56
	c0.54-0.27,0.97-0.59,1.35-0.91c0.37-0.32,0.7-0.66,1.04-0.98c0.65-0.63,1.27-1.18,2.27-1.51c1-0.33,1.83-0.25,2.73-0.12
	c0.46,0.07,0.92,0.15,1.41,0.19c0.5,0.04,1.04,0.04,1.63-0.06c0.59-0.09,1.1-0.26,1.57-0.45c0.45-0.19,0.87-0.41,1.29-0.61
	c0.81-0.4,1.57-0.73,2.63-0.73c1.05,0,1.82,0.33,2.63,0.73c0.42,0.21,0.83,0.42,1.29,0.61c0.47,0.19,0.98,0.36,1.57,0.45
	c0.59,0.09,1.13,0.09,1.63,0.05c0.49-0.04,0.95-0.12,1.41-0.19c0.89-0.13,1.72-0.21,2.73,0.12c1,0.33,1.63,0.88,2.27,1.51
	c0.33,0.32,0.66,0.66,1.04,0.98c0.38,0.33,0.82,0.64,1.35,0.91c0.54,0.28,1.05,0.44,1.54,0.56c0.48,0.12,0.94,0.18,1.4,0.26
	c0.89,0.15,1.7,0.34,2.56,0.96c0.85,0.62,1.28,1.34,1.7,2.14c0.22,0.41,0.43,0.83,0.68,1.25c0.26,0.43,0.58,0.86,1,1.29
	c0.43,0.43,0.86,0.74,1.29,1c0.42,0.26,0.84,0.47,1.25,0.68c0.8,0.42,1.52,0.84,2.14,1.7c0.62,0.85,0.8,1.67,0.95,2.56
	c0.05,0.28,0.09,0.56,0.15,0.85c0.03,0.18,0.07,0.37,0.11,0.55c0.12,0.49,0.28,1,0.56,1.54c0.27,0.53,0.59,0.97,0.92,1.35
	c0.32,0.37,0.65,0.7,0.98,1.03c0.63,0.65,1.18,1.27,1.51,2.28c0.32,1,0.25,1.83,0.12,2.72c-0.07,0.45-0.14,0.92-0.18,1.4h0
	c0,0,0,0,0,0.01c-0.04,0.5-0.04,1.04,0.06,1.63c0.09,0.59,0.26,1.1,0.45,1.57c0.19,0.45,0.41,0.87,0.61,1.29
	C161.09,123.18,161.42,123.95,161.42,125z M150.3,119.21l0.14,1.18l4.84-0.6l-4.56,2.92l0.22,1.78l5.85-0.72l-0.14-1.18l-4.59,0.56
	l4.31-2.8l-0.23-1.86L150.3,119.21z M150.87,111.9c-1.65,0.54-2.65,1.79-2.04,3.64c0.6,1.85,2.14,2.28,3.79,1.74
	c1.65-0.54,2.65-1.79,2.04-3.64C154.06,111.79,152.52,111.36,150.87,111.9z M146.51,111.06l0.61,1.1l5.15-2.86l-0.61-1.11
	L146.51,111.06z M144.38,103.93c-1.22,1.06-1.36,2.19-1.08,3.08c0.13,0.4,0.34,0.75,0.58,1.03c0.51,0.59,0.73,0.79,0.93,0.98
	c0.33,0.32,0.68,0.59,1.06,0.83l2.22-1.93l-1.59-1.82l-0.74,0.64l0.75,0.87l-0.94,0.81c-0.27-0.21-0.54-0.42-0.87-0.8
	c-0.17-0.19-0.28-0.39-0.35-0.6c-0.22-0.67,0.12-1.4,0.89-2.07c1-0.87,1.98-1.01,2.71-0.16c0.45,0.52,0.58,1.06,0.02,1.55l0.88,1.02
	c0.13-0.11,0.24-0.23,0.32-0.35c0.65-0.86,0.29-1.87-0.69-3C147.74,103.12,146.15,102.39,144.38,103.93z M140.28,104.65l1,0.78
	l3.63-4.64l-1-0.78L140.28,104.65z M136.36,102.29l3.4,1.73l0.44-0.87l-2.27-1.16l2.23-4.38l-1.12-0.57L136.36,102.29z
	 M131.5,100.43l3.9,1.05l0.25-0.95l-2.68-0.72l0.41-1.52l2.43,0.65l0.25-0.95l-2.43-0.65l0.36-1.33l2.59,0.7l0.25-0.95l-3.82-1.02
	L131.5,100.43z M126.02,99.6l1.26,0.11l0.21-2.37l1.33,0.12c0.41,0.05,0.46,0.51,0.46,0.83c0.01,0.53,0.02,1.07,0.08,1.6l1.39,0.12
	c-0.21-0.35-0.19-1.04-0.22-1.42c-0.04-0.82,0.02-1.42-0.94-1.61c0.74-0.11,1.28-0.57,1.35-1.33c0.11-1.2-0.9-1.61-1.91-1.71
	l-2.5-0.22L126.02,99.6z M114.27,95.4l1.82,5.6l3.84-1.25l-0.3-0.93l-2.64,0.86l-0.49-1.5l2.39-0.78l-0.3-0.93l-2.39,0.78
	l-0.43-1.31l2.55-0.83l-0.3-0.93L114.27,95.4z M107.47,98.59l2.86,5.15l1.04-0.57L109,98.9l4.41,3.13l1.57-0.87l-2.86-5.15
	l-1.03,0.57l2.24,4.04l-4.22-2.94L107.47,98.59z M103.16,105.77c1.14,1.31,2.68,1.74,4.15,0.46c1.47-1.28,1.27-2.86,0.12-4.17
	c-1.14-1.31-2.68-1.74-4.15-0.46C101.81,102.88,102.02,104.46,103.16,105.77z M99.18,106.19l4.64,3.63l0.78-1l-4.64-3.63
	L99.18,106.19z M95.68,111.9l0.87,0.44l0.8-1.56l4.38,2.23l0.57-1.12l-4.38-2.23l0.8-1.56l-0.87-0.44L95.68,111.9z M94.92,113.42
	l5.25,2.67l0.57-1.13l-5.25-2.67L94.92,113.42z M92.88,120.37l5.69,1.52l0.52-1.94c0.22-0.79,0.23-1.5-0.02-2.08h0
	c-0.3-0.72-0.97-1.26-2.06-1.55c-1.76-0.47-2.89,0.15-3.44,1.55c-0.07,0.18-0.13,0.36-0.18,0.56L92.88,120.37z M96,128.09
	c1.56,0.13,2.42-0.92,2.54-2.34c0.12-1.42-0.53-2.61-2.09-2.75l-3.67-0.32l-0.11,1.26l3.19,0.28c0.99,0.09,1.89,0.22,1.78,1.45
	c-0.11,1.24-1.02,1.2-2.01,1.12l-3.19-0.28l-0.11,1.26L96,128.09z M99.89,134.21l-0.39-1.21l-2.26,0.74l-0.41-1.27
	c-0.11-0.4,0.29-0.62,0.59-0.75c0.49-0.22,0.97-0.44,1.44-0.7l-0.43-1.33c-0.24,0.33-0.88,0.59-1.22,0.76
	c-0.74,0.35-1.31,0.54-1.11,1.49c-0.39-0.64-1.02-0.95-1.75-0.72c-1.14,0.37-1.13,1.46-0.83,2.42l0.77,2.39L99.89,134.21z
	 M102.02,138.86l-1.96-3.53l-0.86,0.48l1.35,2.43l-1.38,0.77l-1.22-2.2l-0.86,0.48l1.22,2.2l-1.2,0.67l-1.3-2.35l-0.86,0.48
	l1.92,3.46L102.02,138.86z M107.43,145.31c-1-0.78-2.31-1.16-3.21-0.01c-0.73,0.93,0.16,1.95,0.72,2.68
	c0.32,0.41,0.73,0.82,0.33,1.32c-0.32,0.4-0.84,0.31-1.21,0.02c-0.48-0.38-0.55-0.81-0.22-1.3l-0.96-0.75
	c-0.73,0.93-0.41,1.97,0.49,2.67c0.36,0.28,0.77,0.49,1.19,0.6c0.35,0.08,0.7,0.1,1.04,0.01c0.33-0.1,0.64-0.3,0.9-0.63
	c0.64-0.82-0.01-1.81-0.54-2.48c-0.32-0.41-0.95-0.97-0.52-1.52c0.39-0.5,1.01-0.2,1.41,0.11c0.52,0.41,0.55,0.99,0.11,1.47
	l1.02,0.79C108.92,147.14,108.49,146.14,107.43,145.31z M114.48,149.87l-1.08-0.55l-0.96,0.91l-2.08-1.06l0.19-1.3l-1.13-0.58
	l-0.85,6.18l1.34,0.68L114.48,149.87z M117.67,156.03l-1.69-0.46l1.27-4.74l-1.22-0.33l-1.27,4.75l-1.69-0.46l-0.25,0.95l4.61,1.24
	L117.67,156.03z M120.91,151.63l-1.26-0.11l-0.51,5.87l1.26,0.11L120.91,151.63z M126.19,152.05l-1.26-0.11l-0.21,2.36l-1.33-0.12
	c-0.41-0.05-0.46-0.51-0.46-0.83c-0.01-0.53-0.02-1.06-0.08-1.6l-1.39-0.12c0.21,0.35,0.19,1.04,0.22,1.42
	c0.03,0.82-0.02,1.41,0.94,1.61c-0.74,0.11-1.28,0.57-1.35,1.33c-0.1,1.19,0.9,1.61,1.91,1.71l2.5,0.22L126.19,152.05z
	 M132.07,157.17l-0.72-5.85l-4.01,0.49l0.12,0.97l2.75-0.34l0.19,1.56l-2.49,0.31l0.12,0.97l2.49-0.31l0.17,1.37l-2.66,0.33
	l0.12,0.97L132.07,157.17z M139.26,154.69l-3.88-4.94l-1.31,0.43l-0.25,6.28l1.19-0.39l0.03-4.89l2.91,3.94L139.26,154.69z
	 M141.43,141.43c0.24-0.23,0.48-0.41,0.73-0.57c0.26-0.16,0.52-0.29,0.78-0.42c0.39-0.2,0.78-0.44,1.15-0.79
	c0.15-0.13,0.29-0.29,0.42-0.48c0.48-0.66,0.61-1.29,0.72-1.89c0.05-0.28,0.09-0.57,0.16-0.87c0.07-0.29,0.16-0.57,0.31-0.87
	c0.15-0.3,0.33-0.54,0.52-0.76c0.2-0.23,0.41-0.43,0.61-0.64c0.42-0.43,0.86-0.91,1.11-1.69c0.25-0.78,0.19-1.42,0.1-2.02
	c-0.04-0.29-0.09-0.57-0.11-0.88c-0.02-0.25-0.02-0.51,0.01-0.79c0.01-0.04,0.01-0.08,0.02-0.13c0.05-0.33,0.15-0.62,0.26-0.89
	c0.12-0.28,0.25-0.54,0.38-0.8c0.27-0.54,0.53-1.13,0.53-1.95c0-0.82-0.26-1.41-0.53-1.95c-0.13-0.26-0.26-0.52-0.38-0.8
	c-0.11-0.27-0.2-0.56-0.26-0.89c-0.05-0.33-0.05-0.63-0.03-0.92c0.02-0.3,0.07-0.59,0.11-0.87c0.07-0.51,0.14-1.06-0.01-1.7
	c-0.02-0.11-0.05-0.2-0.09-0.31c-0.25-0.78-0.68-1.26-1.11-1.69c-0.2-0.21-0.41-0.41-0.61-0.64c-0.19-0.22-0.37-0.47-0.52-0.77
	c-0.15-0.3-0.25-0.58-0.31-0.87c-0.07-0.3-0.11-0.59-0.16-0.87c-0.1-0.6-0.24-1.23-0.72-1.89c-0.48-0.66-1.04-0.98-1.57-1.26
	c-0.26-0.13-0.52-0.26-0.78-0.42c-0.25-0.15-0.49-0.33-0.73-0.57c-0.23-0.24-0.41-0.48-0.57-0.73c-0.16-0.26-0.29-0.52-0.42-0.78
	c-0.01-0.02-0.03-0.05-0.04-0.07c-0.27-0.52-0.6-1.05-1.23-1.5c-0.66-0.48-1.29-0.61-1.89-0.72c-0.28-0.05-0.57-0.09-0.87-0.16
	c-0.29-0.07-0.57-0.16-0.87-0.31c-0.3-0.15-0.54-0.33-0.76-0.52c-0.23-0.2-0.43-0.41-0.64-0.61c-0.43-0.42-0.91-0.85-1.69-1.11
	c-0.77-0.25-1.42-0.18-2.02-0.1c-0.29,0.04-0.57,0.09-0.88,0.12c-0.29,0.02-0.59,0.02-0.92-0.03c-0.33-0.05-0.62-0.14-0.89-0.26
	c-0.28-0.12-0.54-0.25-0.8-0.38c-0.54-0.27-1.13-0.53-1.95-0.53c-0.82,0-1.4,0.26-1.95,0.53c-0.26,0.13-0.52,0.26-0.8,0.38
	c-0.27,0.11-0.56,0.2-0.89,0.26c-0.33,0.05-0.63,0.05-0.92,0.03c-0.3-0.02-0.59-0.07-0.88-0.11c-0.6-0.09-1.24-0.16-2.02,0.1
	c-0.77,0.25-1.26,0.69-1.69,1.11c-0.21,0.2-0.41,0.41-0.64,0.61c-0.22,0.19-0.47,0.37-0.76,0.52c-0.3,0.15-0.58,0.25-0.87,0.31
	c-0.3,0.07-0.59,0.11-0.87,0.16c-0.6,0.1-1.23,0.24-1.89,0.72c-0.63,0.46-0.95,0.99-1.23,1.51h0c-0.01,0.02-0.03,0.05-0.04,0.07
	c-0.13,0.26-0.26,0.52-0.42,0.78c-0.15,0.25-0.33,0.49-0.57,0.73c-0.24,0.24-0.48,0.41-0.73,0.57c-0.26,0.16-0.52,0.29-0.78,0.42
	c-0.54,0.28-1.1,0.61-1.58,1.26c-0.48,0.66-0.61,1.3-0.72,1.89c-0.05,0.29-0.09,0.57-0.16,0.87c-0.07,0.28-0.16,0.57-0.31,0.87
	c-0.15,0.3-0.33,0.54-0.52,0.76c-0.2,0.23-0.41,0.44-0.61,0.64c-0.42,0.43-0.85,0.91-1.11,1.69c-0.03,0.11-0.06,0.21-0.09,0.32
	c-0.15,0.63-0.09,1.18-0.01,1.69c0.04,0.29,0.09,0.57,0.11,0.88c0.02,0.29,0.02,0.59-0.03,0.92c-0.05,0.33-0.14,0.62-0.26,0.89
	c-0.12,0.28-0.25,0.54-0.38,0.8c-0.27,0.54-0.53,1.13-0.53,1.95c0,0.82,0.26,1.4,0.53,1.95c0.13,0.26,0.26,0.52,0.38,0.8
	c0.11,0.27,0.2,0.56,0.26,0.89c0.01,0.05,0.01,0.09,0.02,0.14c0.03,0.28,0.03,0.54,0.01,0.79c-0.03,0.3-0.07,0.59-0.12,0.88
	c-0.09,0.6-0.15,1.24,0.1,2.02c0.25,0.78,0.69,1.26,1.11,1.69c0.2,0.21,0.41,0.41,0.61,0.64c0.19,0.22,0.36,0.47,0.52,0.76
	c0.15,0.3,0.25,0.58,0.31,0.87c0.07,0.29,0.11,0.58,0.16,0.87c0.1,0.6,0.24,1.23,0.72,1.89c0.13,0.18,0.28,0.34,0.42,0.48
	c0.37,0.36,0.77,0.59,1.15,0.79c0.26,0.13,0.52,0.26,0.78,0.42c0.25,0.15,0.49,0.33,0.73,0.57c0.24,0.23,0.41,0.48,0.57,0.73
	c0.16,0.26,0.29,0.52,0.42,0.78c0.28,0.54,0.61,1.1,1.26,1.58c0.66,0.48,1.29,0.61,1.89,0.72c0.28,0.05,0.57,0.09,0.87,0.16
	c0.28,0.07,0.57,0.16,0.87,0.31c0.3,0.15,0.54,0.33,0.76,0.52c0.23,0.2,0.44,0.41,0.64,0.61c0.43,0.42,0.91,0.85,1.69,1.11
	c0.77,0.25,1.42,0.19,2.02,0.1c0.28-0.04,0.57-0.09,0.88-0.11c0.29-0.02,0.59-0.02,0.92,0.03c0.33,0.05,0.62,0.14,0.89,0.26
	c0.28,0.12,0.54,0.25,0.8,0.38c0.54,0.27,1.13,0.53,1.95,0.53c0.82,0,1.41-0.26,1.95-0.53c0.26-0.13,0.52-0.26,0.8-0.38
	c0.27-0.11,0.56-0.2,0.89-0.26c0.33-0.05,0.63-0.05,0.92-0.03c0.3,0.02,0.59,0.07,0.88,0.12c0.6,0.09,1.24,0.15,2.02-0.1
	c0.78-0.25,1.26-0.68,1.69-1.11c0.21-0.2,0.41-0.41,0.64-0.6c0.22-0.19,0.47-0.37,0.77-0.52c0.3-0.15,0.58-0.24,0.87-0.31
	c0.3-0.07,0.58-0.11,0.87-0.16c0.6-0.1,1.23-0.24,1.89-0.72c0.66-0.48,0.98-1.04,1.27-1.57c0.13-0.25,0.26-0.52,0.42-0.78
	C141.02,141.91,141.2,141.67,141.43,141.43z M148.9,147.21l-3.86-4.45l-3.05,2.65l0.64,0.74l2.09-1.82l1.03,1.19l-1.9,1.65
	l0.64,0.74l1.9-1.65l0.9,1.04l-2.03,1.76l0.64,0.74L148.9,147.21z M153.63,139.63l-3.29-1.67c-1.4-0.71-2.58-0.05-3.23,1.22
	c-0.08,0.16-0.15,0.32-0.2,0.48c-0.38,1.12-0.1,2.24,1.12,2.86l3.29,1.67l0.57-1.13l-2.85-1.45c-0.87-0.44-1.64-0.89-1.14-1.95
	c0.01-0.02,0.02-0.04,0.03-0.06c0.57-1.11,1.39-0.74,2.28-0.28l2.85,1.46L153.63,139.63z M153.35,131.31
	c-1.68-0.45-3.19,0.06-3.7,1.94c-0.03,0.1-0.04,0.21-0.04,0.32c-0.01,0.11-0.01,0.22,0,0.32l-0.64,2.4l0.88,0.24l0.11-0.4
	c0.07-0.29,0.13-0.59,0.12-0.72c0.28,0.52,1.18,1.22,1.8,1.38c1.68,0.45,3.19-0.06,3.7-1.94
	C156.09,132.95,155.03,131.76,153.35,131.31z M156.61,128.77l0.23-2.66l-5.87-0.51l-0.35,4.02l0.98,0.08l0.24-2.76l1.57,0.14
	l-0.22,2.5l0.98,0.08l0.22-2.5l1.37,0.12l-0.23,2.68l0.98,0.08L156.61,128.77L156.61,128.77z M122.63,155.91
	c-0.04,0.52,0.26,0.77,0.81,0.82l1.06,0.09l0.14-1.55l-1.06-0.09C123.03,155.14,122.68,155.39,122.63,155.91z M109.8,152.81
	l1.91-1.85l-1.5-0.77L109.8,152.81z M153,132.61c-0.98-0.26-2.14-0.33-2.47,0.88c-0.32,1.21,0.72,1.73,1.7,1.99
	c0.98,0.26,2.14,0.33,2.47-0.87C155.02,133.39,153.98,132.87,153,132.61z M97.37,117.87c-0.22-0.11-0.46-0.18-0.7-0.25
	c-0.65-0.17-1.38-0.26-1.88,0.24c-0.2,0.2-0.36,0.49-0.47,0.91l-0.17,0.63l3.8,1.02l0.17-0.63
	C98.42,118.73,97.98,118.19,97.37,117.87z M106.71,105.54c0.94-0.82,0.37-1.84-0.29-2.6c-0.66-0.76-1.59-1.47-2.54-0.65
	c-0.94,0.82-0.37,1.84,0.29,2.6C104.84,105.65,105.77,106.36,106.71,105.54z M94.94,132.45c-0.5,0.16-0.61,0.54-0.44,1.07l0.33,1.01
	l1.48-0.48l-0.33-1.01C95.81,132.51,95.44,132.29,94.94,132.45z M129.57,95.73c0.05-0.52-0.26-0.77-0.81-0.82l-1.06-0.09l-0.14,1.55
	l1.06,0.09C129.18,96.5,129.53,96.25,129.57,95.73z M128.23,161.91c0.36-0.18,0.73-0.37,1.12-0.54l45.99,33.41l-17.51-53.88
	c0.11-0.16,0.23-0.31,0.35-0.46c0.3-0.35,0.62-0.65,0.92-0.97c0.27-0.28,0.56-0.58,0.82-0.92l20.59,63.36l-54.09-39.3
	C127.12,162.44,127.7,162.17,128.23,161.91 M46.64,101.28l42.42,30.82c-0.04,0.42-0.11,0.83-0.17,1.23
	c-0.08,0.58-0.16,1.22-0.11,1.93L38.26,98.56l61.56,0c-0.16,0.24-0.35,0.46-0.57,0.68c-0.33,0.33-0.68,0.58-1.04,0.81
	c-0.39,0.24-0.79,0.43-1.17,0.64c-0.33,0.17-0.68,0.36-1.03,0.6L46.64,101.28z M205.72,101.28l-51.73,0
	c-0.35-0.23-0.7-0.42-1.03-0.59c-0.39-0.2-0.78-0.4-1.17-0.64c-0.36-0.22-0.71-0.47-1.04-0.81c-0.22-0.22-0.41-0.45-0.57-0.68
	l63.92,0l-53.44,38.83c0.1-0.22,0.2-0.46,0.28-0.71c0.38-1.16,0.33-2.15,0.21-3.01L205.72,101.28z M107.23,92.99l18.95-58.31
	l19.11,58.81c-0.42-0.12-0.83-0.2-1.21-0.26c-0.43-0.07-0.87-0.14-1.31-0.24c-0.19-0.05-0.37-0.1-0.56-0.16l-16.03-49.34
	L110.9,90.53l-0.38,0.36c-0.31,0.3-0.62,0.62-0.97,0.92c-0.32,0.28-0.67,0.52-1.09,0.74C108.05,92.76,107.64,92.89,107.23,92.99
	 M125.77,162.74l-53.92,39.17l19.97-61.46c0.27,0.32,0.52,0.67,0.74,1.09c0.21,0.42,0.35,0.82,0.45,1.23
	c0.11,0.45,0.17,0.88,0.24,1.31l0.09,0.51l-16.31,50.19l45.05-32.73c0.79,0.37,1.71,0.72,2.93,0.72
	C125.27,162.79,125.52,162.77,125.77,162.74"/>
</svg>
