<?xml version="1.0" encoding="UTF-8"?>
<!-- Generator: Adobe Illustrator 26.3.1, SVG Export Plug-In . SVG Version: 6.00 Build 0)  -->
<svg version="1.1" id="Layer_1" xmlns="http://www.w3.org/2000/svg"  x="0px" y="0px" viewBox="0 0 250 65" style="enable-background:new 0 0 250 65;" xml:space="preserve">
<style type="text/css">
	.st0{fill:#E66D25;}
	.st1{fill:#FFFFFF;}
</style>
<path class="st0" d="M48.7,7.4C44.5,4.8,40,3.3,35,2.9c-3-0.2-6-0.1-8.9,0.7c-1.2,0.3-2.3,0.7-3.5,1c0,0,0,0.1,0,0.1  c0.5,0,0.9,0.1,1.4,0.1c2.6,0.1,5.1,0.6,7.5,1.4C37,8,41.6,11.2,45.3,15.6c3.1,3.8,5.1,8,6.2,12.8c0.5,2.4,0.6,4.8,0.2,7.3  c-1.2,6.3-4.7,11-10.4,13.9c-0.9,0.4-1.8,0.8-2.8,1.2c2.4-0.2,4.7-0.5,6.9-1.2c7-2.2,12.4-6.5,16.2-12.8c0.6-1,1-2.1,1-3.3  c0.1-4.1-0.5-8.1-2.1-11.9C58.1,15.6,54.1,10.8,48.7,7.4"/>
<path class="st0" d="M61.1,40.6c-3,3.9-6.7,7-11.2,9.1c-3.2,1.5-6.6,2.4-10.1,2.7c-2.3,0.2-4.5,0.1-6.8-0.2  c-3.4-0.5-6.6-1.5-9.6-3.1c-6.8-3.8-10.8-11.6-9.4-19.7c0-0.2,0-0.5,0.1-0.7c0,0-0.1,0-0.1,0c-0.1,0.1-0.1,0.2-0.2,0.3  c-2.5,5.2-3.4,10.7-2.6,16.4c0.5,3.9,1.9,7.4,3.9,10.7c0.2,0.3,0.4,0.5,0.6,0.7c2.7,1.9,5.5,3.3,8.7,4.2c3.4,1,7,1.4,10.5,1.1  c2.8-0.2,5.5-0.8,8.2-1.8c7.7-3,13.3-8.2,16.8-15.7c0.7-1.5,1.2-3,1.6-4.5C61.4,40.2,61.3,40.4,61.1,40.6"/>
<path class="st0" d="M9.5,45.1c-0.4-2.7-0.3-5.4,0.1-8.2c0.6-3.9,1.9-7.5,4-10.9c1.8-3,4.1-5.6,6.8-7.8c1.5-1.2,3.1-2.4,4.9-3.2  c3.1-1.3,6.2-1.9,9.6-1.5c2.5,0.3,4.9,1,7.2,2.2c0.8,0.5,1.6,1,2.5,1.5c-0.2-0.3-0.3-0.5-0.4-0.6c-0.8-0.9-1.6-1.8-2.4-2.6  C35,8.1,27.3,5.7,18.4,6.8c-0.3,0-0.5,0.1-0.7,0.3c-3.8,2.3-6.9,5.3-9.4,8.9c-2.7,4-4.3,8.4-4.9,13.1c-0.3,2.6-0.3,5.1,0.1,7.7  c0.5,3.6,1.7,7,3.5,10.2c1.3,2.3,2.8,4.4,4.8,6.2c0-0.1-0.1-0.2-0.1-0.3C10.6,50.4,9.9,47.8,9.5,45.1"/>
<path class="st1" d="M246.5,23.8c0-1.9-0.3-3.8-1-5.6c-0.8-2-2.3-3.2-4.3-3.6c-2.5-0.6-5-0.2-7.4,0.6c-0.9,0.3-1.9,0.8-2.8,1.2  c-0.2-0.1-0.3-0.3-0.5-0.4c-0.6-0.4-1.3-0.9-2-1.1c-2.3-0.9-4.6-0.7-6.8,0.3c-0.6,0.3-1.2,0.6-1.8,0.9c0-0.4-0.1-0.8-0.1-1.1h-6  v22.7h6.1v-17c1.3-0.6,2.7-0.9,4.1-0.8c1.6,0,2.5,0.6,2.7,2.3c0.2,1.1,0.3,2.3,0.3,3.4c0,3.8,0,7.6,0,11.3v0.8h6.1v-17  c1.3-0.5,2.7-0.8,4.2-0.8c1.5,0,2.4,0.6,2.7,2.1c0.2,1,0.3,2,0.4,3.1c0,4,0,7.9,0,11.9c0,0.2,0,0.5,0,0.7h6c0-0.2,0-0.4,0-0.6  C246.5,32.6,246.5,28.2,246.5,23.8"/>
<path class="st1" d="M136.6,19c-0.6-1.7-1.5-3.2-3.2-4c-1.1-0.5-2.2-0.7-3.4-0.7c-2-0.1-3.9,0.3-5.7,1c-0.9,0.3-1.7,0.7-2.6,1.1  c-0.1-0.1-0.1-0.1-0.2-0.1c-2-1.8-4.4-2.3-7-1.7c-1.1,0.2-2.2,0.8-3.2,1.2c-0.2,0.1-0.4,0.2-0.6,0.3c0-0.4,0-0.8-0.1-1.1h-6v22.7h6  V20.6c1.2-0.6,2.9-0.9,4.2-0.9c1.5,0.1,2.3,0.6,2.6,2.2c0.2,1.3,0.4,2.6,0.4,3.9c0,3.7,0,7.3,0,11c0,0.3,0,0.5,0,0.8h6v-17  c1.4-0.5,2.8-0.9,4.3-0.8c1.4,0,2.2,0.6,2.6,2c0.2,1.1,0.4,2.2,0.4,3.4c0,3.9,0,7.7,0,11.6v0.8h6.1c0-0.3,0-0.5,0-0.7  c0-4.2,0-8.5,0-12.7C137.3,22.4,137.1,20.7,136.6,19"/>
<path class="st1" d="M97.8,11.6c-1.2-2.5-3.2-4.1-5.8-4.8c-3.2-0.9-6.5-0.9-9.8-0.1c-2.7,0.7-4.8,2.1-6.1,4.6  C75.7,12.1,75.3,13,75,14c-0.8,2.7-1,5.4-0.9,8.2c0,0.9,0,1.8,0,2.7c0.1,2.1,0.5,4.2,1.2,6.2c1.1,3.2,3.3,5.4,6.7,6.3  c3.1,0.8,6.2,0.8,9.3,0.1c3.4-0.8,5.8-2.8,7.1-6.1c0.8-2,1.1-4.2,1.3-6.3c0.2-2.5,0.2-4.9-0.1-7.4C99.2,15.7,98.8,13.6,97.8,11.6   M92.5,28.7c-0.1,0.2-0.1,0.4-0.2,0.6c-0.6,1.8-1.8,2.8-3.6,3.2c-1.4,0.3-2.7,0.3-4.1-0.1c-1.5-0.4-2.5-1.4-3.1-2.8  c-0.5-1.2-0.7-2.4-0.8-3.7c-0.2-2.4-0.2-4.7,0-7.1c0.1-1.3,0.4-2.5,0.8-3.7c0.7-2.1,2.3-3.2,4.5-3.4c1-0.1,2.1-0.1,3.1,0.2  c1.3,0.4,2.3,1.2,2.9,2.5c0.6,1.3,0.9,2.7,1,4.1c0.1,1.3,0.2,2.6,0.2,3.9C93.2,24.4,93.1,26.6,92.5,28.7"/>
<path class="st1" d="M179.2,10.3v4.5c-0.2,0-0.2,0-0.3,0c-0.2,0-0.3-0.1-0.5-0.1c-2-0.3-4.1-0.7-6.1-0.3c-2.2,0.3-4.1,1.2-5.4,3.1  c-0.9,1.3-1.4,2.8-1.7,4.3c-0.4,2.4-0.4,4.8-0.2,7.2c0.1,1.5,0.4,3,0.9,4.4c0.8,2.3,2.4,3.8,4.9,4.4c2.5,0.6,4.8,0.4,7.2-0.6  c0.4-0.2,0.9-0.3,1.3-0.5c0,0.3,0.1,0.6,0.1,0.9h6V5.7h-6.1V10.3z M179.1,31.9c-0.8,0.2-1.7,0.4-2.5,0.5c-0.7,0.1-1.5,0.2-2.2,0.1  c-1.3,0-2.3-0.6-2.7-1.9c-0.3-0.8-0.5-1.6-0.5-2.4c-0.2-1.8-0.2-3.7,0.2-5.5c0.2-0.6,0.4-1.3,0.7-1.9c0.4-0.8,1.1-1.3,2-1.4  c1.7-0.2,3.4,0.1,5.1,0.4V31.9z"/>
<path class="st1" d="M155,14.6c-2.1-0.5-4.2-0.5-6.3,0c-1.8,0.4-3.4,1.3-4.6,2.7c-1.2,1.4-1.8,3.1-2.2,4.9c-0.4,2-0.5,4-0.3,6.1  c0.1,1.5,0.3,3.1,0.8,4.5c0.8,2.4,2.5,4,4.9,4.8c1.2,0.4,2.5,0.5,3.8,0.5c2.6,0,5.2-0.3,7.8-0.9c0.6-0.1,1.2-0.3,1.9-0.4  c0-1.5-0.1-3-0.1-4.5c-1.8,0.1-3.6,0.2-5.4,0.3c-1.5,0-3,0.1-4.4,0c-2.1-0.2-3.4-1.8-3.1-3.8h13.3c0.1-0.8,0.2-1.5,0.3-2.2  c0.2-1.8,0.3-3.6-0.1-5.3C160.6,17.7,158.5,15.4,155,14.6 M155.5,24.1h-7.8c0-1.3,0.1-2.5,0.8-3.6c0.3-0.5,0.8-0.8,1.4-1  c1.1-0.3,2.2-0.3,3.3,0c1,0.2,1.6,0.9,1.9,1.8C155.5,22.2,155.6,23.1,155.5,24.1"/>
<path class="st1" d="M200.1,32.3h-1c-1.4-5.8-2.8-11.7-4.1-17.5h-6c1.9,7.6,3.7,15.1,5.6,22.8h4.2c-0.8,3.2-1.6,6.3-2.5,9.5h6  c2.7-10.8,5.3-21.5,8-32.2h-6C202.8,20.7,201.4,26.5,200.1,32.3"/>
<g>
	<path class="st1" d="M68.9,56.8v-7.5h2.5c2.6,0,3.2,1.1,3.2,3.6c0,2.6-0.5,3.9-3.2,3.9H68.9z M71.4,50.6h-1v4.8h1   c1.5,0,1.6-0.9,1.6-2.6C73,51.3,72.9,50.6,71.4,50.6z"/>
	<path class="st1" d="M76.8,49.1h1.5v1.5h-1.5V49.1z M76.8,51.3h1.5v5.5h-1.5V51.3z"/>
	<path class="st1" d="M80.3,57.8c0-0.5,0.2-0.9,0.8-1.3c-0.2-0.2-0.4-0.5-0.4-0.8c0-0.3,0.4-0.9,0.4-0.9c-0.4-0.3-0.7-0.7-0.7-1.6   c0-1.4,1-1.9,2.3-1.9c0.5,0,1.1,0.1,1.1,0.1l1.8-0.1v1.2l-0.8-0.1c0.1,0.2,0.2,0.4,0.2,0.7c0,1.5-0.8,1.9-2.3,1.9   c-0.1,0-0.4,0-0.5,0c0,0-0.1,0.3-0.1,0.4c0,0.3,0.1,0.4,1.1,0.4c1.9,0,2.4,0.4,2.4,1.7c0,1.3-1.2,1.8-2.6,1.8   C81.4,59.3,80.3,59,80.3,57.8z M82.1,57c-0.2,0.2-0.3,0.4-0.3,0.6c0,0.3,0.4,0.5,1.2,0.5c0.7,0,1.1-0.2,1.1-0.5   c0-0.4-0.2-0.5-1-0.5C82.8,57.1,82.1,57,82.1,57z M83.5,53.1c0-0.5-0.2-0.8-0.8-0.8s-0.8,0.3-0.8,0.8c0,0.5,0.3,0.8,0.8,0.8   S83.5,53.6,83.5,53.1z"/>
	<path class="st1" d="M87.5,49.1h1.5v1.5h-1.5V49.1z M87.5,51.3h1.5v5.5h-1.5V51.3z"/>
	<path class="st1" d="M93,52.5v2.3c0,0.5,0,0.8,0.5,0.8c0.3,0,0.8,0,0.8,0l0.1,1.2c0,0-0.7,0.2-1.1,0.2c-1.3,0-1.7-0.5-1.7-2.1v-2.3   h-0.6v-1.3h0.6v-1.5H93v1.5h1.4v1.3H93z"/>
	<path class="st1" d="M96.3,49.1h1.5v1.5h-1.5V49.1z M96.3,51.3h1.5v5.5h-1.5V51.3z"/>
	<path class="st1" d="M99.9,51.3h4.1v1.3l-2.3,2.9h2.3v1.3h-4.1v-1.3l2.3-2.9h-2.3V51.3z"/>
	<path class="st1" d="M110.5,55.5l0,1.1c0,0-1.3,0.3-2.3,0.3c-1.7,0-2.4-0.8-2.4-2.8c0-2,0.8-3,2.4-3c1.6,0,2.4,0.8,2.4,2.5l-0.1,1   h-3.2c0,0.7,0.3,1,1.1,1C109.3,55.6,110.5,55.5,110.5,55.5z M109.2,53.5c0-0.9-0.3-1.2-0.9-1.2c-0.7,0-0.9,0.3-1,1.2H109.2z"/>
	<path class="st1" d="M116.6,52.7c0,0-1.4-0.2-2-0.2s-0.8,0.1-0.8,0.4c0,0.3,0.2,0.3,1.2,0.5c1.3,0.2,1.7,0.6,1.7,1.7   c0,1.3-0.8,1.8-2.2,1.8c-0.8,0-2.1-0.3-2.1-0.3l0-1.2c0,0,1.4,0.2,1.9,0.2c0.7,0,0.9-0.1,0.9-0.4c0-0.2-0.1-0.4-1.1-0.5   c-1.2-0.2-1.8-0.5-1.8-1.7c0-1.3,1-1.8,2.1-1.8c0.8,0,2.1,0.3,2.1,0.3L116.6,52.7z"/>
	<path class="st1" d="M124,52.5v2.3c0,0.5,0,0.8,0.5,0.8c0.3,0,0.8,0,0.8,0l0.1,1.2c0,0-0.7,0.2-1.1,0.2c-1.3,0-1.7-0.5-1.7-2.1   v-2.3h-0.6v-1.3h0.6v-1.5h1.5v1.5h1.4v1.3H124z"/>
	<path class="st1" d="M127.3,56.8v-7.7h1.5v2.5c0,0,0.8-0.4,1.4-0.4c1.5,0,1.9,1,1.9,2.7v3h-1.5v-2.9c0-0.8-0.1-1.4-0.8-1.4   c-0.5,0-1,0.2-1,0.2v4.1H127.3z"/>
	<path class="st1" d="M138.7,55.5l0,1.1c0,0-1.3,0.3-2.3,0.3c-1.7,0-2.4-0.8-2.4-2.8c0-2,0.8-3,2.4-3c1.6,0,2.4,0.8,2.4,2.5l-0.1,1   h-3.2c0,0.7,0.3,1,1.1,1C137.6,55.6,138.7,55.5,138.7,55.5z M137.5,53.5c0-0.9-0.3-1.2-0.9-1.2c-0.7,0-0.9,0.3-1,1.2H137.5z"/>
	<path class="st1" d="M149.2,54c0,2.4-0.8,3-2.7,3c-0.5,0-2.1-0.2-2.1-0.2v-7.7h1.5v2.4c0,0,0.7-0.3,1.2-0.3   C148.5,51.2,149.2,51.8,149.2,54z M147.8,54c0-1.1-0.4-1.5-0.9-1.5c-0.4,0-1,0.1-1,0.1v2.9c0,0,0.5,0,0.7,0   C147.5,55.6,147.8,55.1,147.8,54z"/>
	<path class="st1" d="M156.1,51.3v5.5h-1.5v-0.3c0,0-0.8,0.4-1.4,0.4c-1.6,0-1.9-0.9-1.9-2.8v-2.9h1.5v2.9c0,1,0,1.4,0.8,1.4   c0.6,0,1.1-0.2,1.1-0.2v-4.1H156.1z"/>
	<path class="st1" d="M159.4,51.3l1,4.2h0.3l1-4.2h1.5l-1.9,7.8h-1.4l0.6-2.3h-1l-1.4-5.5H159.4z"/>
	<path class="st1" d="M164.9,49.1h1.5v1.5h-1.5V49.1z M164.9,51.3h1.5v5.5h-1.5V51.3z"/>
	<path class="st1" d="M168.7,56.8v-5.5h1.5v0.3c0,0,0.7-0.4,1.4-0.4c1.5,0,1.9,1,1.9,2.7v3H172v-2.9c0-0.8-0.1-1.4-0.8-1.4   c-0.5,0-1,0.2-1,0.2v4.1H168.7z"/>
	<path class="st1" d="M175.5,57.8c0-0.5,0.2-0.9,0.8-1.3c-0.2-0.2-0.4-0.5-0.4-0.8c0-0.3,0.4-0.9,0.4-0.9c-0.4-0.3-0.7-0.7-0.7-1.6   c0-1.4,1-1.9,2.3-1.9c0.5,0,1.1,0.1,1.1,0.1l1.8-0.1v1.2l-0.8-0.1c0.1,0.2,0.2,0.4,0.2,0.7c0,1.5-0.8,1.9-2.3,1.9   c-0.1,0-0.4,0-0.5,0c0,0-0.1,0.3-0.1,0.4c0,0.3,0.1,0.4,1.1,0.4c1.9,0,2.4,0.4,2.4,1.7c0,1.3-1.2,1.8-2.6,1.8   C176.6,59.3,175.5,59,175.5,57.8z M177.3,57c-0.2,0.2-0.3,0.4-0.3,0.6c0,0.3,0.4,0.5,1.2,0.5c0.7,0,1.1-0.2,1.1-0.5   c0-0.4-0.2-0.5-1-0.5C178,57.1,177.3,57,177.3,57z M178.8,53.1c0-0.5-0.2-0.8-0.8-0.8c-0.6,0-0.8,0.3-0.8,0.8   c0,0.5,0.3,0.8,0.8,0.8C178.5,53.9,178.8,53.6,178.8,53.1z"/>
	<path class="st1" d="M190.4,55.5l0,1.1c0,0-1.3,0.3-2.3,0.3c-1.7,0-2.4-0.8-2.4-2.8c0-2,0.8-3,2.4-3c1.6,0,2.4,0.8,2.4,2.5l-0.1,1   h-3.2c0,0.7,0.3,1,1.1,1C189.3,55.6,190.4,55.5,190.4,55.5z M189.2,53.5c0-0.9-0.3-1.2-0.9-1.2c-0.7,0-0.9,0.3-1,1.2H189.2z"/>
	<path class="st1" d="M193.7,51.3l0.9,1.7l0.9-1.7h1.6l-1.6,2.7l1.6,2.8h-1.6l-0.9-1.7l-0.9,1.7h-1.6l1.5-2.8l-1.5-2.7H193.7z"/>
	<path class="st1" d="M198.9,51.3h1.5v0.3c0,0,0.7-0.4,1.3-0.4c1.5,0,2.2,0.8,2.2,2.8c0,2.3-0.8,2.9-2.5,2.9c-0.4,0-0.9-0.1-0.9-0.1   v2.3h-1.5V51.3z M200.4,52.7v2.9c0,0,0.5,0.1,0.8,0.1c0.9,0,1.1-0.5,1.1-1.6c0-1.1-0.4-1.5-1-1.5C200.9,52.5,200.4,52.7,200.4,52.7   z"/>
	<path class="st1" d="M210.2,55.5l0,1.1c0,0-1.3,0.3-2.3,0.3c-1.7,0-2.4-0.8-2.4-2.8c0-2,0.8-3,2.4-3c1.6,0,2.4,0.8,2.4,2.5l-0.1,1   h-3.2c0,0.7,0.3,1,1.1,1C209.1,55.6,210.2,55.5,210.2,55.5z M209,53.5c0-0.9-0.3-1.2-0.9-1.2c-0.7,0-0.9,0.3-1,1.2H209z"/>
	<path class="st1" d="M212.5,51.3h1.5v0.6c0,0,0.9-0.5,1.8-0.7v1.5c-1,0.2-1.7,0.5-1.7,0.5v3.7h-1.5V51.3z"/>
	<path class="st1" d="M217.5,49.1h1.5v1.5h-1.5V49.1z M217.5,51.3h1.5v5.5h-1.5V51.3z"/>
	<path class="st1" d="M225.7,55.5l0,1.1c0,0-1.3,0.3-2.3,0.3c-1.7,0-2.4-0.8-2.4-2.8c0-2,0.8-3,2.4-3c1.6,0,2.4,0.8,2.4,2.5l-0.1,1   h-3.2c0,0.7,0.3,1,1.1,1C224.6,55.6,225.7,55.5,225.7,55.5z M224.5,53.5c0-0.9-0.3-1.2-0.9-1.2c-0.7,0-0.9,0.3-1,1.2H224.5z"/>
	<path class="st1" d="M228,56.8v-5.5h1.5v0.3c0,0,0.7-0.4,1.4-0.4c1.5,0,1.9,1,1.9,2.7v3h-1.5v-2.9c0-0.8-0.1-1.4-0.8-1.4   c-0.5,0-1,0.2-1,0.2v4.1H228z"/>
	<path class="st1" d="M238.9,51.4l0,1.2c0,0-0.9-0.1-1.3-0.1c-1.1,0-1.3,0.4-1.3,1.5c0,1.2,0.2,1.6,1.3,1.6c0.4,0,1.3-0.1,1.3-0.1   l0,1.2c0,0-1.2,0.2-1.8,0.2c-1.6,0-2.3-0.9-2.3-2.9c0-1.9,0.7-2.8,2.3-2.8C237.7,51.2,238.9,51.4,238.9,51.4z"/>
	<path class="st1" d="M245.2,55.5l0,1.1c0,0-1.3,0.3-2.3,0.3c-1.7,0-2.4-0.8-2.4-2.8c0-2,0.8-3,2.4-3c1.6,0,2.4,0.8,2.4,2.5l-0.1,1   h-3.2c0,0.7,0.3,1,1.1,1C244.1,55.6,245.2,55.5,245.2,55.5z M244,53.5c0-0.9-0.3-1.2-0.9-1.2c-0.7,0-0.9,0.3-1,1.2H244z"/>
</g>
</svg>