<?xml version="1.0" ?>
<svg xmlns="http://www.w3.org/2000/svg" fill="none" viewBox="0 0 420 420">
	<path clip-rule="evenodd" d="m379.655.337714c2.58-.747693 5.361-.2384519 7.508 1.374776 2.147 1.61324 3.41 4.14253 3.41 6.82826 0 2.52155-1.091 4.26595-1.499 4.86855-.509.7533-1.033 1.2754-1.318 1.5433-.585.551-1.158.9503-1.473 1.1618-.695.4668-1.494.918-2.227 1.3116-1.528.8209-3.634 1.8501-6.147 3.0257-5.066 2.3707-12.254 5.5536-20.87 9.2539-17.255 7.4099-40.476 16.9958-64.445 26.4982-23.958 9.4987-48.743 18.946-69.105 26.0634-10.172 3.5557-19.328 6.5609-26.766 8.7042-7.088 2.0421-13.579 3.5993-17.894 3.6919-9.609.2062-33.365-1.7959-58.897-4.2167 9.641 2.5054 19.015 4.8356 27.489 6.7781 7.484 1.7156 14.187 3.1103 19.71 4.0563 5.683.973 9.601 1.377 11.76 1.33 1.976-.042 6.757-.863 14.474-2.7054 7.407-1.7687 16.772-4.2879 27.436-7.3267 21.314-6.0737 47.521-14.139 73.034-22.2082 25.499-8.065 50.247-16.116 68.625-22.1521 9.187-3.0177 16.78-5.5308 22.074-7.2892 2.647-.8791 4.72-1.5695 6.13-2.0399.705-.2352 1.244-.4154 1.607-.5367l.546-.1824.001-.0007c2.606-.8725 5.472-.4384 7.702 1.1665s3.551 4.1846 3.551 6.9321c0 2.6355-1.196 4.4311-1.552 4.9453-.496.7174-1 1.2172-1.267 1.4685-.554.5232-1.1.9144-1.412 1.1298-.685.4743-1.491.9526-2.263 1.3891-1.6.9056-3.825 2.0643-6.507 3.4079-5.4 2.7059-13.072 6.3694-22.279 10.6475-18.433 8.5652-43.231 19.6923-68.777 30.7368-25.536 11.0398-51.901 22.0318-73.448 30.3098-10.763 4.135-20.417 7.63-28.208 10.119-7.367 2.353-14.194 4.196-18.672 4.292-7.03.151-21.307-1.823-37.719-4.504-8.275-1.351-17.344-2.928-26.714-4.607 10.866 3.513 21.388 6.783 30.825 9.512 8.28 2.394 15.63 4.344 21.593 5.671 6.206 1.383 10.179 1.917 12.078 1.877 1.908-.041 6.487-.864 13.915-2.758 7.114-1.813 16.074-4.4 26.261-7.526 20.359-6.247 45.301-14.546 69.555-22.853 24.239-8.303 47.729-16.591 65.163-22.8061 8.715-3.1069 15.915-5.6943 20.934-7.5046 2.509-.9051 4.473-1.6159 5.809-2.1001.668-.2421 1.179-.4276 1.523-.5523l.516-.1877.002-.0006c2.618-.9529 5.537-.5685 7.82 1.0298 2.282 1.5982 3.641 4.2095 3.641 6.9959 0 2.4935-1.073 4.2199-1.417 4.7467-.464.7132-.94 1.217-1.198 1.477-.534.537-1.061.942-1.363 1.165-.663.491-1.439.985-2.175 1.432-1.527.928-3.645 2.113-6.19 3.485-5.128 2.763-12.41 6.506-21.147 10.876-17.495 8.749-41.041 20.12-65.338 31.409-24.284 11.283-49.404 22.523-70.024 30.991-10.299 4.23-19.575 7.81-27.112 10.362-7.109 2.408-13.825 4.324-18.38 4.422-3.895.083-9.349-.581-15.395-1.572-6.219-1.019-13.648-2.486-21.763-4.227-7.262-1.559-15.136-3.351-23.273-5.262 9.929 3.826 19.538 7.384 28.212 10.375 7.973 2.75 15.047 4.983 20.798 6.502 6.021 1.592 9.765 2.169 11.483 2.132 1.731-.037 6.378-.975 14.259-3.255 7.489-2.166 16.993-5.263 27.841-9.007 21.678-7.483 48.381-17.433 74.399-27.395 26.003-9.956 51.256-19.899 70.013-27.355 9.377-3.728 17.127-6.832 22.532-9.004 2.702-1.086 4.818-1.939 6.257-2.52.72-.291 1.271-.513 1.641-.663l.55-.223.007-.002.001-.001c2.633-1.067 5.624-.755 7.98.832s3.769 4.242 3.769 7.083c0 2.618-1.189 4.406-1.481 4.842-.455.68-.916 1.163-1.159 1.406-.509.51-1.015.905-1.317 1.133-.659.498-1.45 1.019-2.23 1.511-1.612 1.017-3.865 2.341-6.6 3.893-5.502 3.122-13.326 7.38-22.723 12.371-18.81 9.99-44.114 23.016-70.172 35.962-26.044 12.938-52.924 25.837-74.861 35.551-10.958 4.851-20.786 8.954-28.708 11.877-3.957 1.459-7.542 2.663-10.615 3.521-2.909.813-5.95 1.489-8.588 1.546-4.132.089-9.955-.864-16.271-2.202-6.561-1.39-14.456-3.38-23.11-5.735-6.978-1.9-14.51-4.054-22.316-6.354 9.893 4.303 19.425 8.303 28.054 11.706 8.506 3.354 16.014 6.079 22.061 7.937 6.396 1.966 10.144 2.628 11.644 2.596 1.661-.036 6.184-.984 13.938-3.351 7.349-2.242 16.66-5.452 27.285-9.337 21.232-7.763 47.344-18.091 72.776-28.433 25.416-10.337 50.082-20.66 68.399-28.402 9.157-3.87 16.725-7.093 22.001-9.349 2.638-1.127 4.704-2.013 6.109-2.616.702-.302 1.239-.533 1.601-.688l.536-.231.007-.003.001-.001c2.64-1.138 5.674-.872 8.076.708 2.401 1.579 3.846 4.261 3.846 7.135 0 2.544-1.125 4.296-1.405 4.729-.435.673-.877 1.155-1.113 1.4-.493.513-.984.915-1.279 1.148-.644.508-1.417 1.042-2.179 1.547-1.575 1.043-3.776 2.402-6.446 3.997-5.374 3.209-13.015 7.588-22.193 12.723-18.373 10.279-43.094 23.691-68.569 37.021-25.462 13.323-51.763 26.611-73.27 36.618-10.742 4.998-20.396 9.229-28.203 12.244-3.899 1.506-7.444 2.75-10.498 3.639-2.888.84-5.942 1.548-8.625 1.605-4.248.091-9.977-.971-16.023-2.426-6.295-1.514-13.786-3.676-21.935-6.226-5.751-1.8-11.883-3.811-18.222-5.953 8.645 4.23 16.981 8.16 24.593 11.531 7.974 3.531 15.022 6.39 20.728 8.334 6.057 2.064 9.552 2.718 10.922 2.688.5-.01 1.941-.2 4.66-.888 2.561-.649 5.793-1.618 9.65-2.895 7.704-2.55 17.526-6.203 28.766-10.625 22.462-8.836 50.214-20.596 77.285-32.373 27.055-11.77 53.36-23.528 72.906-32.345 9.772-4.408 17.852-8.08 23.487-10.649 2.817-1.285 5.023-2.293 6.524-2.981.751-.343 1.325-.607 1.711-.784l.574-.263.007-.003.002-.001c2.644-1.215 5.725-1.001 8.175.57 2.45 1.57 3.932 4.28 3.932 7.19 0 2.621-1.199 4.419-1.458 4.809l-.01.015c-.431.647-.864 1.112-1.09 1.345-.478.492-.957.886-1.254 1.123-.648.515-1.439 1.072-2.244 1.616-1.657 1.12-3.988 2.598-6.835 4.349-5.724 3.519-13.87 8.345-23.66 14.017-19.596 11.354-45.951 26.199-73.061 40.964-27.096 14.757-55.03 29.479-77.759 40.564-11.352 5.536-21.514 10.218-29.675 13.55-4.075 1.665-7.764 3.039-10.918 4.019-2.956.919-6.137 1.72-8.92 1.779-4.511.097-10.679-1.343-17.047-3.205-6.711-1.962-14.783-4.752-23.613-8.042-5.326-1.985-10.97-4.167-16.813-6.484 8.418 4.509 16.506 8.703 23.928 12.356 8.663 4.264 16.28 7.722 22.383 10.08 3.053 1.179 5.607 2.036 7.646 2.581 2.16.577 3.257.669 3.578.663.5-.011 1.89-.193 4.479-.857 2.446-.628 5.518-1.568 9.178-2.81 7.311-2.482 16.582-6.04 27.172-10.354 21.158-8.62 47.178-20.095 72.524-31.591 25.328-11.488 49.908-22.964 68.161-31.571 9.125-4.303 16.665-7.887 21.923-10.394 2.629-1.254 4.687-2.238 6.086-2.909.355-.17.667-.319.935-.448.262-.126.483-.231.66-.317l.541-.26h.002c2.646-1.274 5.761-1.098 8.248.465 2.486 1.563 3.995 4.294 3.995 7.231 0 2.486-1.079 4.212-1.331 4.615l-.003.004c-.407.65-.82 1.122-1.041 1.365-.464.507-.93.912-1.217 1.153-.623.524-1.378 1.085-2.135 1.624-1.559 1.112-3.744 2.572-6.404 4.294-5.35 3.463-12.961 8.205-22.107 13.775-18.308 11.148-42.945 25.719-68.338 40.209-25.378 14.481-51.6 28.933-73.051 39.818-10.712 5.437-20.35 10.042-28.153 13.324-3.896 1.639-7.451 2.998-10.522 3.97-2.889.914-6.017 1.707-8.807 1.767-4.595.098-10.66-1.419-16.791-3.35-6.471-2.037-14.179-4.927-22.558-8.326-4.257-1.727-8.719-3.598-13.32-5.576 7.328 4.242 14.379 8.19 20.902 11.659 8.192 4.356 15.404 7.88 21.21 10.276 6.254 2.581 9.583 3.287 10.619 3.265 1.472-.032 5.73-1.007 13.246-3.623 7.073-2.462 16.01-5.997 26.195-10.295 20.349-8.586 45.274-20.045 69.435-31.598 24.15-11.547 47.445-23.143 64.512-31.986 8.548-4.428 15.463-8.129 20.123-10.771 2.251-1.276 3.838-2.228 4.8-2.856.048-.056.097-.111.146-.166 3.176-3.487 8.578-3.74 12.065-.564 2.124 1.935 2.974 4.6 2.794 7.018-.145 1.958-.917 3.348-1.267 3.922-.726 1.189-1.595 1.97-1.872 2.217-.75.671-1.617 1.272-2.285 1.715-1.461.97-3.517 2.191-5.956 3.574-4.94 2.8-12.077 6.616-20.69 11.078-17.254 8.939-40.715 20.617-65.002 32.23-24.276 11.607-49.467 23.192-70.162 31.925-10.336 4.362-19.653 8.055-27.22 10.689-7.125 2.48-13.895 4.469-18.495 4.568-5.036.108-11.416-2.04-17.504-4.553-6.537-2.698-14.299-6.51-22.713-10.984-16.851-8.962-36.899-20.901-56.0591-32.775-19.1857-11.891-37.5953-23.789-51.2007-32.709-6.8051-4.461-12.4138-8.182-16.3236-10.788-1.955-1.303-3.4855-2.328-4.5287-3.028-.5216-.35-.9214-.619-1.1916-.801l-.4061-.274-.0054-.003-.0022-.002c-2.3522-1.588-3.7619-4.24-3.7619-7.078 0-2.402 1.016-4.869 3.0727-6.597 1.6993-1.427 3.4663-1.806 4.2642-1.93 1.5457-.239 2.8216.001 3.1657.066l.0145.002c.9675.182 1.8941.497 2.4781.706 1.336.477 3.0874 1.21 5.0558 2.075 4.0072 1.761 9.6818 4.411 16.4408 7.613 4.5052 2.134 9.5116 4.523 14.8838 7.087 10.8585 5.181 23.212 11.076 35.9443 17.024 19.0194 8.885 38.6664 17.785 55.0194 24.419 8.185 3.321 15.418 6.021 21.267 7.862 6.187 1.948 9.818 2.597 11.295 2.565-.006 0 .012 0 .054-.004.047-.003.124-.011.234-.026.206-.028.487-.076.851-.155.738-.159 1.693-.414 2.882-.79 2.387-.755 5.414-1.899 9.05-3.428 7.262-3.056 16.489-7.454 27.048-12.812 9.124-4.63 19.158-9.933 29.652-15.627-8.038 3.45-15.75 6.691-22.927 9.615-10.722 4.368-20.349 8.07-28.126 10.71-3.884 1.318-7.403 2.405-10.422 3.18-2.875.738-5.822 1.335-8.359 1.389-2.715.058-5.639-.513-8.353-1.238-2.834-.757-6.005-1.841-9.392-3.149-6.778-2.619-14.905-6.325-23.771-10.688-17.755-8.74-39.021-20.389-59.4076-31.987-20.4105-11.611-40.0464-23.231-54.5723-31.944-7.2653-4.357-13.2574-7.991-17.4353-10.536-2.08905-1.273-3.72481-2.274-4.83965-2.957-.55743-.342-.98465-.604-1.27321-.782l-.43905-.27-.00226-.001c-2.52252-1.555-4.05863-4.307-4.05863-7.27 0-2.617 1.18745-5.091 3.23496-6.728 1.65928-1.327 3.34638-1.679 4.07343-1.794 1.45684-.232 2.66775-.037 3.00881.018l.0101.001c.952.153 1.8835.434 2.5047.633 1.3997.447 3.251 1.145 5.3549 1.979 4.2757 1.696 10.3339 4.256 17.5569 7.357 5.42 2.327 11.509 4.965 18.0646 7.805 11.0512 4.787 23.4288 10.149 36.1641 15.567 20.2555 8.617 41.1495 17.259 58.4475 23.704 8.657 3.226 16.297 5.857 22.443 7.654 6.487 1.897 10.322 2.556 11.885 2.523-.004 0 .089-.003.296-.032.216-.029.511-.08.894-.162.775-.165 1.778-.431 3.028-.819 2.506-.779 5.696-1.955 9.53-3.521 7.657-3.127 17.435-7.623 28.646-13.09 9.958-4.856 20.96-10.436 32.482-16.429-9.137 3.784-17.885 7.333-25.973 10.515-11.362 4.47-21.515 8.252-29.652 10.945-4.065 1.346-7.72 2.451-10.825 3.237-2.948.747-5.951 1.353-8.487 1.408-4.701.101-10.769-1.543-16.798-3.597-6.381-2.175-13.943-5.257-22.134-8.885-16.404-7.264-35.862-16.951-54.4375-26.59-18.5997-9.653-36.4238-19.314-49.5905-26.558-6.5857-3.624-12.0117-6.645-15.7935-8.762-1.8911-1.059-3.3713-1.891-4.3803-2.46-.5045-.284-.8912-.503-1.1525-.651l-.3931-.222-.0052-.003-.0021-.001c-2.6744-1.517-4.3271-4.355-4.3271-7.429 0-2.281.9022-4.474 2.5246-6.098 1.4007-1.401 2.9188-1.966 3.7251-2.201 1.5301-.445 2.8389-.364 3.215-.34 1.0273.064 2.0023.282 2.5877.421 1.3478.322 3.0855.849 4.9977 1.47 3.9043 1.267 9.4149 3.215 15.9598 5.584 6.0534 2.19 12.7378 4.646 19.9558 7.297 8.9996 3.306 18.8289 6.917 29.2997 10.699 18.4414 6.661 37.5224 13.357 53.4634 18.346 7.977 2.497 15.062 4.533 20.83 5.921 6.016 1.448 9.836 1.995 11.66 1.956.353-.008 1.638-.179 4.219-.929 2.414-.703 5.465-1.762 9.117-3.172 7.294-2.818 16.557-6.868 27.15-11.797 9.861-4.588 20.781-9.894 32.198-15.595-9.156 3.542-17.93 6.862-26.024 9.822-10.749 3.93-20.389 7.259-28.165 9.632-7.371 2.249-14.146 3.996-18.557 4.09-4.572.099-10.733-1.41-17.028-3.345-6.646-2.042-14.612-4.945-23.31-8.375-17.415-6.866-38.237-16.033-58.1908-25.166-19.9752-9.143-39.1766-18.297-53.3777-25.161-7.1026-3.434-12.9592-6.297-17.0422-8.302-2.0416-1.003-3.63998-1.792-4.72932-2.33-.54468-.27-.9621-.477-1.24403-.616l-.42893-.213-.00219-.001c-2.90261-1.444-4.73785-4.406-4.73785-7.648 0-2.496 1.0673-4.712 2.67765-6.245 1.36959-1.304 2.81489-1.829 3.54035-2.044 1.41547-.42 2.63362-.385 3.00672-.374.9966.031 1.9668.202 2.5928.323 1.4137.274 3.2596.741 5.3241 1.305 4.2044 1.15 10.145 2.935 17.2123 5.116 7.1871 2.219 15.7506 4.915 25.034 7.837 8.8824 2.796 18.4239 5.799 28.0495 8.791 19.8336 6.165 40.3206 12.374 57.3296 17.004 8.51 2.317 16.056 4.212 22.164 5.506 6.353 1.346 10.425 1.877 12.365 1.835.398-.008 1.732-.186 4.36-.92 2.463-.688 5.576-1.722 9.297-3.095 7.435-2.742 16.889-6.682 27.704-11.47 10.401-4.605 21.965-9.954 34.055-15.7-9.932 3.632-19.445 7.032-28.172 10.044-10.965 3.785-20.777 6.987-28.668 9.27-7.499 2.169-14.298 3.83-18.639 3.923-4.353.094-10.163-1.095-16.214-2.694-6.321-1.671-13.835-4.052-22.002-6.869-16.35-5.638-35.754-13.174-54.2911-20.682-18.5582-7.517-36.3425-15.045-49.4809-20.692-6.5713-2.824-11.9852-5.179-15.7584-6.829-1.8867-.825-3.3634-1.474-4.3698-1.917-.5033-.222-.8889-.392-1.1495-.507l-.3916-.173-.0052-.003-.002-.001c-3.0887-1.369-5.0801-4.429-5.0801-7.808 0-5.176 4.0157-7.436 5.3496-7.993 1.3967-.583 2.6353-.669 3.0486-.695 1.0401-.064 2.037.033 2.639.102 1.3742.157 3.1332.473 5.0499.859 3.9178.788 9.4333 2.063 15.9732 3.637 8.0479 1.937 17.8693 4.383 28.5062 7.031 6.6615 1.659 13.6428 3.398 20.7086 5.141 18.4215 4.544 37.5045 9.142 53.4675 12.568 7.986 1.713 15.112 3.117 20.941 4.072 6.003.983 10.09 1.397 12.266 1.35 1.517-.032 5.791-.99 13.267-3.522 7.05-2.388 15.953-5.816 26.103-9.984 10.296-4.229 21.771-9.176 33.738-14.492-9.994 3.268-19.581 6.328-28.349 9.019-10.303 3.161-19.557 5.838-27.052 7.748-7.18 1.831-13.605 3.194-17.769 3.283-4.173.09-9.95-.898-16.157-2.281-6.451-1.436-14.179-3.493-22.625-5.935-16.907-4.889-37.071-11.433-56.3828-17.962-19.3302-6.536-37.8888-13.084-51.6093-17.997-6.862-2.456-12.518-4.505-16.4604-5.941-1.9712-.718-3.5143-1.282-4.5657-1.668-.5257-.193-.9285-.341-1.2005-.441l-.4136-.152-.0021-.001c-3.356-1.237-5.58509-4.436-5.58509-8.013 0-5.193 4.06332-7.417 5.11399-7.894 1.293-.586 2.4516-.73 2.8626-.777 1.0117-.116 1.9995-.079 2.6266-.045 1.4114.077 3.2321.29 5.2365.567 4.0898.565 9.8501 1.527 16.6873 2.736 10.1606 1.798 22.977 4.193 36.7382 6.764 4.7942.896 9.7032 1.813 14.6544 2.734 19.2129 3.574 39.1029 7.21 55.6869 9.918 16.961 2.771 29.487 4.395 34.6 4.285 1.594-.034 6.072-1.005 13.839-3.486 7.344-2.347 16.654-5.71 27.281-9.793 11.076-4.255 23.482-9.253 36.426-14.6217-11.094 3.3667-21.725 6.5177-31.384 9.2697-10.767 3.068-20.399 5.663-28.15 7.514-7.441 1.777-13.979 3.081-18.074 3.169-3.913.084-9.211-.579-15.01-1.572-5.957-1.02-12.999-2.49-20.644-4.243-15.297-3.506-33.321-8.215-50.5023-12.916-17.1969-4.7063-33.6226-9.426-45.7441-12.9675-6.0624-1.7713-11.0521-3.2491-14.5281-4.2846-1.738-.5177-3.0979-.925-4.0244-1.2032-.4632-.1391-.8182-.2459-1.0579-.3181l-.3648-.1101-.0019-.0006c-3.6038-1.0895-6.0691-4.4103-6.0691-8.1752 0-3.1258 1.6205-5.2838 2.8453-6.3878 1.1078-.9985 2.2089-1.4674 2.7019-1.6583 1.0314-.3994 1.9351-.5217 2.2479-.5625.7952-.1036 1.5899-.1176 2.131-.1188 1.1993-.0026 2.7699.0672 4.5324.1748 3.586.219 8.6507.6388 14.6874 1.1863 9.8079.8895 22.4296 2.1393 35.9426 3.4773 3.1532.3123 6.3548.6293 9.5806.9476 34.5465 3.4096 71.0035 6.8749 82.4825 6.6286 1.756-.0377 6.175-.9088 13.53-3.0282 7.005-2.0182 15.826-4.9077 25.86-8.4151 10.922-3.8181 23.179-8.3317 35.93-13.1788-11.109 2.9104-21.778 5.635-31.445 7.9993-10.171 2.4877-19.297 4.5924-26.686 6.0969-7.149 1.4555-13.335 2.4937-17.251 2.5777-6.967.1495-20.86-1.6184-36.784-4.038-16.265-2.4715-35.587-5.7801-53.9798-9.0042-6.9288-1.2146-13.7169-2.4156-20.1664-3.5568-10.7224-1.8971-20.509-3.6286-28.4513-4.9818-6.3685-1.0851-11.4251-1.905-14.764-2.3662-.9959-.1376-1.7575-.2316-2.3123-.2914-2.4953.4177-5.1505-.2726-7.1662-2.1082-.4398-.4005-1.5531-1.4776-2.2525-3.2697-.8811-2.2579-.8941-5.2246.816-7.8348 1.3514-2.0625 3.1656-2.9245 3.857-3.2183.8383-.3563 1.5594-.5069 1.9381-.5747 1.2391-.2217 2.43-.1541 2.8387-.1309.0106.0006.0206.0012.0301.0017 1.2118.0682 2.8301.2627 4.5885.5056 3.631.5016 8.922 1.3623 15.2955 2.4482 7.9883 1.361 17.875 3.1102 28.6465 5.016 6.4398 1.1393 13.1958 2.3347 20.0516 3.5364 18.3785 3.2217 37.5375 6.5014 53.5965 8.9415 16.4 2.4921 28.674 3.9592 33.851 3.8482 2.155-.0463 6.892-.7483 14.21-2.2383 7.078-1.4411 15.962-3.4873 26.036-5.9512 20.138-4.9252 44.771-11.4557 68.704-17.9858 23.922-6.527 47.092-13.0394 64.285-17.92122 8.596-2.44058 15.695-4.47286 20.644-5.89469 2.475-.7109 4.411-1.26916 5.729-1.649486.659-.190164 1.163-.335843 1.502-.433879l.509-.147495z" fill="#0064e6" fill-rule="evenodd"/>
</svg>