<?xml version="1.0" ?>
<svg xmlns="http://www.w3.org/2000/svg" viewBox="0 0 398 404" fill="none">
	<path d="M198.729 22.9979C100.583 22.9979 21.0508 103.184 21.0508 202.136C21.0508 301.089 100.583 381.275 198.729 381.275C296.876 381.275 376.408 301.089 376.408 202.136C376.408 103.184 296.808 22.9979 198.729 22.9979ZM198.729 371.038C106.201 371.038 31.2038 295.425 31.2038 202.136C31.2038 108.848 106.201 33.2344 198.729 33.2344C291.258 33.2344 366.255 108.848 366.255 202.136C366.255 295.425 291.258 371.038 198.729 371.038Z" fill="#41F05A"/>
	<path d="M198.734 3.54919C89.9609 3.54919 1.76465 92.4701 1.76465 202.137C1.76465 311.804 89.9609 400.725 198.734 400.725C307.507 400.725 395.703 311.804 395.703 202.137C395.703 92.4701 307.507 3.54919 198.734 3.54919ZM198.734 391.171C95.1728 391.171 11.2408 306.549 11.2408 202.137C11.2408 97.7249 95.1728 13.1032 198.734 13.1032C302.295 13.1032 386.227 97.7249 386.227 202.137C386.227 306.549 302.228 391.171 198.734 391.171Z" fill="#41F05A"/>
	<path d="M150.945 209.985L124.75 174.362H116.898V229.912H126.916V193.607L153.111 229.912H161.03V174.362H150.945V209.985Z" fill="#41F05A"/>
	<path d="M101.124 181.664C98.4845 179.139 95.4386 177.091 91.9866 175.658C88.4669 174.225 84.6764 173.474 80.6152 173.474C76.5539 173.474 72.7635 174.157 69.2437 175.59C65.724 177.023 62.6781 179.002 60.106 181.595C57.4662 184.188 55.5032 187.191 54.0141 190.672C52.5927 194.152 51.8481 197.974 51.8481 202.068C51.8481 206.163 52.5927 209.916 54.0141 213.465C55.4356 216.945 57.5339 220.016 60.106 222.609C62.7458 225.203 65.7917 227.182 69.2437 228.615C72.7635 230.048 76.4862 230.799 80.5475 230.799C84.6087 230.799 88.3992 230.048 91.9189 228.615C95.3709 227.182 98.4169 225.134 101.057 222.609C103.696 220.016 105.727 217.013 107.216 213.465C108.705 209.984 109.45 206.163 109.45 202.068C109.45 197.974 108.705 194.152 107.284 190.672C105.795 187.191 103.764 184.189 101.124 181.664ZM97.943 209.848C97.0631 212.236 95.7094 214.284 94.0172 216.058C92.325 217.764 90.3621 219.129 88.0607 220.153C85.8271 221.108 83.3226 221.586 80.6152 221.586C77.9754 221.586 75.4709 221.108 73.2373 220.153C71.0036 219.197 68.973 217.832 67.2808 216.058C65.5886 214.352 64.2349 212.236 63.3549 209.848C62.4073 207.459 61.9335 204.866 61.9335 202.068C61.9335 199.27 62.4073 196.745 63.3549 194.357C64.3026 191.968 65.5886 189.921 67.2808 188.147C68.973 186.372 70.9359 185.007 73.2373 184.052C75.4709 183.097 77.9754 182.619 80.6152 182.619C83.3226 182.619 85.8271 183.097 88.0607 184.052C90.2944 185.007 92.325 186.372 94.0172 188.147C95.7094 189.921 96.9954 191.968 97.943 194.357C98.823 196.745 99.2968 199.27 99.2968 202.068C99.2968 204.866 98.823 207.459 97.943 209.848Z" fill="#41F05A"/>
	<path d="M252.134 174.361H240.086L225.398 197.496H220.727V174.361H210.709V229.911H220.727V206.709H225.195L242.455 229.911H254.909L234.468 202L252.134 174.361Z" fill="#41F05A"/>
	<path d="M334.103 174.361L322.055 195.039L309.871 174.361H298.432L316.978 205.276V229.911H327.064V205.207L345.542 174.361H334.103Z" fill="#41F05A"/>
	<path d="M258.973 229.912H295.524V220.972H268.991V206.505H294.035V197.565H268.991V183.302H295.524V174.362H258.973V229.912Z" fill="#41F05A"/>
	<path d="M167.191 229.912H203.81V220.972H177.276V206.505H202.321V197.565H177.276V183.302H203.81V174.362H167.191V229.912Z" fill="#41F05A"/>
</svg>