<svg xmlns="http://www.w3.org/2000/svg" fill="none" viewBox="0 0 93 76"><path fill="#5D13FA" fill-rule="evenodd" d="m47.552 23.078-3.496 6.087c-.019-.018-.019-.018-.037-.055L17.077 75.982H0l38.693-67.32c.11-.22.238-.478.384-.699C43.452.35 53.134-2.26 60.712 2.134c5.216 3.016 8.071 8.55 7.925 14.196-7.431-3.751-16.583-1.067-20.81 6.27-.092.147-.184.313-.275.478Zm9.5 26.553 3.44-5.995c.11-.202.22-.404.33-.588 4.228-7.337 13.38-10.022 20.81-6.27.147-5.646-2.708-11.18-7.925-14.196-7.577-4.395-17.26-1.784-21.634 5.829-.11.184-.201.35-.293.533L24.765 76h17.077l15.173-26.387.036.018ZM69.242 71.9c7.577 4.395 17.26 1.784 21.634-5.829 4.374-7.612 1.775-17.34-5.802-21.735-7.578-4.395-17.26-1.783-21.635 5.83-.087.131-.151.263-.22.404l-.054.11L48.614 76H65.69l2.672-4.652c.202.16.438.296.681.437l.095.054.103.06Z" clip-rule="evenodd"/></svg>