<?xml version="1.0" ?>
<!DOCTYPE svg
  PUBLIC '-//W3C//DTD SVG 1.1//EN'
  'http://www.w3.org/Graphics/SVG/1.1/DTD/svg11.dtd'>
<svg xmlns="http://www.w3.org/2000/svg" xmlns:xodm="http://www.corel.com/coreldraw/odm/2003" xml:space="preserve" shape-rendering="geometricPrecision" text-rendering="geometricPrecision" image-rendering="optimizeQuality" fill-rule="evenodd" clip-rule="evenodd" viewBox="0 0 570.48 93.43">
	<g id="C:5CUsers5Cconta5CDocuments5C20225CTHINKST5CWEBSITE5Crice3.gif_x0020_23">
		<metadata id="CorelCorpID_0Corel-Layer"/>
		<g id="_1956224826896">
			<path fill="#464646" fill-rule="nonzero" d="M498.58 38.14l12.4 0 17.59 20.12c1.94,2.26 4.41,4.84 5.96,7.96 1.48,-3.12 3.96,-5.7 5.97,-7.96l17.59 -20.12 12.39 0 -25.18 27.06c-2.09,2.27 -6.51,6.71 -6.51,10.45l0 15.84 -8.52 0 0 -15.84c0,-3.66 -4.41,-8.26 -6.51,-10.45l-25.18 -27.06zm-288.43 -31.63l0.15 0c2.5,0 2.91,0.67 8.24,8.11 5.53,7.78 6.95,9.47 11.65,9.47l2.42 0 0 -21.03 -3.2 0 0 17.62 -0.15 0c-2.59,0 -3.17,-0.83 -8.18,-8.12 -5.31,-7.68 -6.69,-9.5 -11.71,-9.5l-2.42 0 0 21.03 3.2 0 0 -17.58zm-7.72 -0.22l0 -3.23 -15.54 0c-6.87,0 -9.4,3.54 -9.4,10.52 0,6.97 2.53,10.51 9.4,10.51l15.54 0 0 -3.26 -15.54 0c-4.38,0 -5.94,-1.94 -6.17,-5.72l21.3 0 0 -3.04 -21.3 0c0.23,-3.81 1.79,-5.78 6.17,-5.78l15.54 0zm-48.84 7.5l0 -7.71 13.87 0c2.88,0 4.03,2.09 4.03,3.84 0,1.78 -1.12,3.87 -4.03,3.87l-13.87 0zm-3.17 -10.73l0 21.03 3.17 0 0 -7.29 13.72 0c5.05,0 7.47,-3.13 7.47,-6.88 0,-3.75 -2.42,-6.86 -7.47,-6.86l-16.89 0zm-17.99 18.1c-6.83,0 -10.43,-1.01 -10.43,-7.58 0,-6.55 3.6,-7.6 10.43,-7.6 6.83,0 10.44,1.05 10.44,7.6 0,6.57 -3.61,7.58 -10.44,7.58zm0 -18.37c-9.02,0 -13.69,2.43 -13.69,10.79 0,8.38 4.67,10.81 13.69,10.81 9.02,0 13.7,-2.43 13.7,-10.81 0,-8.36 -4.68,-10.79 -13.7,-10.79zm53.33 35.35l0 8.34 -41.76 0c-13.56,0 -16.51,6.24 -16.51,18.33 0,12.09 3.03,18.25 16.51,18.25l41.76 0 0 8.43 -41.76 0c-18.37,0 -25.26,-8.89 -25.26,-26.68 0,-17.7 6.82,-26.67 25.26,-26.67l41.76 0zm59.66 31.2l-9.38 -18.96c-1.62,-3.27 -3.64,-5.3 -7.43,-5.3 -3.72,0 -5.74,2.03 -7.37,5.3l-9.45 18.96 33.63 0zm-1.01 -20.75l21.31 42.9 -9.14 0 -7.21 -14.51 -41.45 0 -7.21 14.51 -9.14 0 21.31 -42.9c3.41,-6.94 7.51,-11.16 15.73,-11.16 8.29,0 12.31,4.22 15.8,11.16zm36.4 -1.72l0 44.62 -8.6 0 0 -53.35 6.51 0c13.48,0 17.2,4.6 31.45,24.1 13.49,18.49 15.04,20.59 22.01,20.59l0.39 0 0 -44.69 8.6 0 0 53.35 -6.51 0c-12.63,0 -16.43,-4.29 -31.3,-24.02 -14.34,-18.88 -15.42,-20.6 -22.16,-20.6l-0.39 0zm120.7 22.47l-9.38 -18.96c-1.63,-3.27 -3.64,-5.3 -7.44,-5.3 -3.72,0 -5.73,2.03 -7.36,5.3l-9.45 18.96 33.63 0zm-1.01 -20.75l21.31 42.9 -9.15 0 -7.2 -14.51 -41.45 0 -7.21 14.51 -9.14 0 21.3 -42.9c3.41,-6.94 7.52,-11.16 15.73,-11.16 8.29,0 12.32,4.22 15.81,11.16zm36.33 16.46l37.81 0c8.06,0 10.69,-5.31 10.69,-9.68 0,-4.36 -2.55,-9.59 -10.69,-9.59l-37.81 0 0 19.27zm-8.52 26.44l0 -53.35 45.71 0c12.94,0 20.07,6.39 20.07,16.3 0,7.64 -4.26,12.48 -11.39,14.35 6.9,2.03 10.07,6.63 10.07,12.48l0 10.22 -8.83 0 0 -10.38c0,-4.28 -2.71,-8.42 -10.23,-8.42l-36.88 0 0 18.8 -8.52 0z"/>
			<path fill="#38D47F" d="M0 2.79l84.12 0c-0.08,0.38 -0.12,0.77 -0.12,1.17 0,3.14 2.54,5.68 5.67,5.68 0.33,0 0.66,-0.03 0.97,-0.08l0 83.87 -90.64 0 0 -90.64zm43.05 20.02c3.76,0 7.33,0.83 10.54,2.3 1.95,-2.69 5.12,-4.44 8.7,-4.44l0.06 0 0.33 2.44c-0.13,0 -0.26,-0.01 -0.39,-0.01 -2.29,0 -4.37,0.93 -5.86,2.43 -0.23,0.22 -0.45,0.47 -0.65,0.72 1.89,1.1 3.62,2.44 5.15,3.98 2.37,2.35 4.26,5.17 5.54,8.31 0.62,-0.36 1.18,-0.79 1.67,-1.29l0.01 -0.01c1.5,-1.49 2.42,-3.56 2.42,-5.85 0,-0.17 -0.01,-0.33 -0.01,-0.49l2.44 0.19 0.01 0.3c0,4.11 -2.32,7.68 -5.71,9.48 0.68,2.29 1.05,4.72 1.05,7.24 0,6.97 -2.83,13.29 -7.41,17.87l-0.01 0.01c-4.58,4.58 -10.9,7.41 -17.88,7.41 -6.98,0 -13.31,-2.83 -17.88,-7.41 -4.58,-4.58 -7.41,-10.91 -7.41,-17.88 0,-6.99 2.83,-13.31 7.41,-17.89 4.57,-4.58 10.9,-7.41 17.88,-7.41zm11.52 5.55c-0.36,0.94 -0.57,1.96 -0.57,3.03 0,2.28 0.93,4.35 2.43,5.85 1.5,1.5 3.57,2.43 5.86,2.43 0.66,0 1.3,-0.08 1.92,-0.22 -1.91,-4.67 -5.33,-8.57 -9.64,-11.09zm10.45 13.4c-0.88,0.22 -1.79,0.35 -2.73,0.35 -5.92,0 -10.72,-4.8 -10.72,-10.72 0,-1.47 0.29,-2.87 0.83,-4.15 -2.86,-1.28 -6.02,-1.99 -9.35,-1.99 -12.62,0 -22.85,10.23 -22.85,22.86 0,12.62 10.23,22.85 22.85,22.85 12.63,0 22.86,-10.23 22.86,-22.85 0,-2.21 -0.31,-4.34 -0.89,-6.35z"/>
			<circle fill="#FF2F2F" cx="89.67" cy="3.96" r="3.96"/>
		</g>
	</g>
</svg>