<?xml version="1.0" ?>
<svg xmlns="http://www.w3.org/2000/svg" viewBox="0 0 52.85 52.85">
	<style>
		.cls0 { fill: #101a56; }
	</style>
	<g class="cls0">
		<path d="M 32.15,29.025 C 32.15,36.425 27.75,44.425 16.15,44.425 C 7.75,44.425 0.05,39.825 0.05,29.025 C 0.05,20.125 5.85,13.225 17.25,13.825 C 29.45,14.525 32.15,23.725 32.15,29.025 M 10.45,23.425 C 9.35,25.025 8.95,27.025 8.95,29.025 C 8.95,33.525 11.25,37.625 16.15,37.625 C 20.95,37.625 23.25,33.825 23.25,29.425 C 23.25,26.225 22.45,23.825 20.75,22.325 C 18.95,20.725 16.85,20.625 15.55,20.725 C 13.15,20.825 11.65,21.625 10.45,23.425 L 10.45,23.425"/>
		<path d="M 34.95,8.425 L 43.75,8.425 L 43.75,14.525 L 52.85,14.525 L 48.85,20.525 L 43.65,20.525 L 43.65,33.525 C 43.55,35.325 43.55,36.825 45.95,36.825 L 49.05,36.725 L 49.05,43.425 C 47.15,43.725 46.05,43.925 44.45,43.925 C 41.45,43.925 38.05,43.725 36.15,41.025 C 34.95,39.325 34.85,37.225 34.85,34.425 L 34.85,8.425 L 34.95,8.425"/>
	</g>
</svg>
