<?xml version="1.0" ?>
<svg xmlns="http://www.w3.org/2000/svg" id="Layer_1" data-name="Layer 1" viewBox="0 0 400 245">
	<defs>
		<style>.cls-1{fill:#f37021}.cls-2,.cls-3{fill:#58595b}.cls-2{fill-rule:evenodd}</style>
	</defs>
	<path class="cls-1" d="M2.4 124.99a31.6 31.6 0 0 1 48.25-26.849c-8.878.391-28.187 2.403-34.435 12.388-8.823 14.1 16.54 14.174 16.54 14.174a4.67 4.67 0 0 1-2.605-3.31c-.666-2.611 2.485-9.76 16.494-14.56 4.4-1.508 7.881-2.54 10.587-3.246a31.596 31.596 0 0 1-39.896 48.254c8.878-.392 28.187-2.404 34.435-12.388 8.823-14.1-16.54-14.174-16.54-14.174a4.67 4.67 0 0 1 2.605 3.31c.666 2.61-2.485 9.76-16.494 14.56-4.4 1.508-7.881 2.54-10.587 3.245A31.48 31.48 0 0 1 2.4 124.991z"/>
	<path class="cls-2" d="M104.297 124.99c0-5.045-.626-9.69-4.064-13.038a12.414 12.414 0 0 0-17.058 0c-3.438 3.349-4.064 7.993-4.064 13.039 0 5.046.626 9.69 4.064 13.039a12.414 12.414 0 0 0 17.058 0c3.438-3.349 4.064-7.993 4.064-13.04zm-4.11 0c0 3.305-.133 7.592-2.723 10.271a8.195 8.195 0 0 1-11.521 0c-2.59-2.68-2.723-6.966-2.723-10.27 0-3.304.133-7.592 2.723-10.27a8.195 8.195 0 0 1 11.521 0c2.59 2.678 2.724 6.965 2.724 10.27zM133.31 118.695a9.663 9.663 0 0 0-2.411-6.699c-1.697-1.83-4.332-2.858-8.038-2.858h-11.744v31.66h3.974v-12.28h7.815c3.483 0 6.073-.938 7.77-2.634a9.786 9.786 0 0 0 2.634-7.19zm-4.108 0c0 4.242-2.143 6.206-6.386 6.206h-7.725v-12.146h7.68c3.93 0 6.431 1.92 6.431 5.94z"/>
	<path class="cls-3" d="M158.998 140.798v-3.661h-17.193v-10.941h15.094v-3.75h-15.094V112.8h17.193v-3.662h-21.166v31.66h21.166zM189.585 140.798v-31.66h-3.84v25.543l-15.54-25.543h-4.465v31.66h3.84v-25.453l15.539 25.453h4.466zM220.787 131.376c0-5.403-3.975-8.484-8.708-9.154-2.054-.268-4.867-.491-6.877-.804-1.876-.312-3.215-1.384-3.215-3.438a3.667 3.667 0 0 1 1.072-2.68 7.14 7.14 0 0 1 5.135-1.74 7.29 7.29 0 0 1 4.823 1.696 5.143 5.143 0 0 1 1.384 3.126h5.894a9.596 9.596 0 0 0-3.214-6.743 13.07 13.07 0 0 0-8.843-3.081 13.536 13.536 0 0 0-9.288 3.349 8.75 8.75 0 0 0-2.768 6.251c0 5.27 3.662 8.128 8.038 8.842 2.098.358 4.867.447 7.01.849 1.965.357 3.751 1.429 3.751 3.75a3.93 3.93 0 0 1-1.25 3.037c-1.205 1.25-3.304 1.697-5.493 1.697-1.83 0-3.973-.357-5.313-1.697a5.562 5.562 0 0 1-1.652-3.885h-5.895a10.106 10.106 0 0 0 3.305 7.368 13.913 13.913 0 0 0 9.466 3.26c3.885 0 7.591-.982 10.003-3.394a8.912 8.912 0 0 0 2.635-6.609zM250.119 109.138h-5.983l-7.815 13.665-7.814-13.665h-6.252l10.985 19.514v12.146h5.805v-12.146l11.074-19.514zM279.134 140.798v-31.66h-5.671v21.434l-13.53-21.434h-6.118v31.66h5.672v-21.746l13.708 21.746h5.939zM309.09 140.798v-5.224h-16.789v-8.663h14.78v-5.18h-14.78v-7.368h16.789v-5.225h-22.55v31.66h22.55z"/>
	<path class="cls-2" d="M338.905 140.798l-5.805-12.95a9.133 9.133 0 0 0 5.805-8.886c0-5.09-3.439-9.824-10.985-9.824h-13.352v31.66h5.805v-11.967h7.01l5.27 11.967zm-5.76-21.836c0 2.992-1.876 4.689-5.136 4.689h-7.68v-9.467h7.591c3.26 0 5.224 2.233 5.224 4.778z"/>
	<path class="cls-3" d="M368.003 140.798v-17.326h-13.129v4.778h7.547c0 2.412-.357 4.377-2.054 6.163a6.38 6.38 0 0 1-4.734 1.83 7.22 7.22 0 0 1-5.135-2.009c-2.188-2.277-2.5-6.34-2.5-9.244 0-2.902.267-6.832 2.455-9.109a7.45 7.45 0 0 1 5.18-2.144 6.373 6.373 0 0 1 5.046 1.92 4.947 4.947 0 0 1 1.385 2.903h5.894a9.725 9.725 0 0 0-2.903-6.385 13.072 13.072 0 0 0-9.377-3.617 13.615 13.615 0 0 0-9.422 3.706c-3.438 3.438-4.108 7.547-4.108 12.726s.803 9.422 4.108 12.862c2.5 2.634 5.76 3.572 9.422 3.527 3.975-.045 7.01-2.233 7.948-4.064l.67 3.483zM397.4 109.138h-5.983l-7.815 13.665-7.815-13.665h-6.251l10.985 19.514v12.146h5.805v-12.146l11.074-19.514z"/>
</svg>