<?xml version="1.0" ?>
<svg xmlns="http://www.w3.org/2000/svg" viewBox="0 0 90 90">
	<g fill="none">
		<path fill="#FFF" d="M0 0h90v90H0z"/>
		<path d="m70.478 24.255-24.892 20.34h6.848l-5.478 12.482c-1.211 2.463-3.057 3.818-5.055 3.875h-3.269L18.438 77.215 7.735 62.662C2.03 75.496 3.05 81.22 14.25 81.403h26.824c11.102-.183 20.82-6.023 26.058-17.751l8.372-19.053h7.15L70.479 24.255Z" fill="#42ABE0"/>
		<path d="M73.724 8.835H46.521c-11.164-.144-20.526 6.111-25.685 17.748l-8.858 24.381H4.074L19.27 71.297l25.088-20.333h-6.399l7.806-17.813c1.19-2.783 3.253-4.134 5.45-4.252h4.287c.885.05 1.526.294 1.93.716L71.63 18.002l8.88 15.175 2.547-5.81c5.765-13.06 1.956-18.676-9.332-18.532Z" fill="#04253B"/>
	</g>
</svg>