<?xml version="1.0" encoding="UTF-8"?> <svg xmlns="http://www.w3.org/2000/svg" id="Layer_1" data-name="Layer 1" viewBox="0 0 400 245"><defs><style>.cls-1{fill:#ce0e2d;}</style></defs><polygon class="cls-1" points="201.002 101.866 201.002 91.31 156.962 91.31 156.962 154.658 201.002 154.658 201.002 144.098 167.517 144.098 167.517 128.263 199.389 128.263 199.389 117.703 167.517 117.703 167.517 101.866 201.002 101.866"/><polygon class="cls-1" points="233.681 154.658 233.681 91.311 244.239 91.311 244.239 144.098 274.696 144.098 274.696 154.658 233.681 154.658"/><polygon class="cls-1" points="283.301 154.658 283.301 91.311 293.864 91.311 293.864 144.098 324.319 144.098 324.319 154.658 283.301 154.658"/><rect class="cls-1" x="212.08156" y="91.3111" width="10.5558" height="63.3472"/><path class="cls-1" d="M25.13211,107.40765a22.449,22.449,0,1,0,15.86612-6.56634,22.36794,22.36794,0,0,0-15.86612,6.56634M8.00332,123.2772a32.995,32.995,0,1,1,32.99491,32.99388A32.998,32.998,0,0,1,8.00332,123.2772"/><path class="cls-1" d="M106.62476,117.70405V101.86588h21.26931a7.91909,7.91909,0,0,1,0,15.83817Zm26.56737,9.77392a18.47043,18.47043,0,0,0-5.29806-36.16687H96.06666v63.3472h10.5581V128.26535h14.70629l15.92762,26.39295h12.31518Z"/><path class="cls-1" d="M88.58433,98.052A7.772,7.772,0,1,1,80.8135,90.281,7.77388,7.77388,0,0,1,88.58433,98.052"/><polygon class="cls-1" points="371.387 91.311 358.556 91.311 342.308 114.83 326.057 91.311 313.226 91.311 337.015 125.755 337.015 154.658 347.578 154.658 347.578 125.779 371.387 91.311"/><path class="cls-1" d="M383.88,104.27268a6.563,6.563,0,1,1,6.55855-6.56073,6.56363,6.56363,0,0,1-6.55855,6.56073m0-14.37417a7.81229,7.81229,0,1,0,7.81125,7.81344A7.81575,7.81575,0,0,0,383.88,89.89851"/><path class="cls-1" d="M381.98766,94.9997h3.07565a.99485.99485,0,0,1,0,1.98969h-3.07565Zm5.39529.99319a2.31613,2.31613,0,0,0-2.31964-2.32068H380.668v7.96095h1.3197v-3.315h2.2302l1.59709,3.315h1.47638L385.65839,98.241a2.31674,2.31674,0,0,0,1.72456-2.24806"/></svg> 