<svg xmlns="http://www.w3.org/2000/svg" fill="none" viewBox="0 0 328 328"><circle cx="164" cy="164" r="164" fill="#F0DC28"/><path fill="#000" d="M262.302 113a72.543 72.543 0 0 0-19.955 2.964 228.646 228.646 0 0 0-20.481 6.915v21.864c10.326-3.951 18.16-6.629 23.5-8.034 5.337-1.403 10.107-2.106 14.31-2.108 10.503 0 16.63 3.776 18.38 11.328-13.568 2.548-24.617 5.27-33.149 8.166-8.534 2.898-15.404 7.047-20.612 12.447-5.208 5.4-7.812 12.535-7.811 21.404 0 5.62 1.269 10.516 3.807 14.686a25.64 25.64 0 0 0 10.568 9.681c4.507 2.282 9.561 3.423 15.164 3.424a39.142 39.142 0 0 0 19.758-5.137 31.287 31.287 0 0 0 13.325-14.883v18.177H303v-61.248c0-13.171-3.413-23.072-10.24-29.701-6.827-6.629-16.98-9.944-30.458-9.945Zm-76.145.79a705.384 705.384 0 0 1-24.025 6.454v20.416c-1.752.441-4.29 1.012-7.614 1.712v20.416l3.15-.658 4.333-.791v24.631c0 19.846 9.584 29.768 28.751 29.767 8.839 0 16.454-2.195 22.843-6.585l-6.039-20.153a31.332 31.332 0 0 1-7.023 3.491 20.35 20.35 0 0 1-6.236.988c-5.514 0-8.271-3.381-8.271-10.142v-27.529c8.927-2.37 18.38-5.18 28.357-8.429v-21.865c-10.154 3.424-19.563 6.366-28.226 8.825V113.79Zm-46.475 81.137c-5.69 0-8.535-3.689-8.533-11.065v-17.518c6.827-.876 12.122-1.666 15.885-2.37v-20.153c-3.327.705-8.622 1.539-15.885 2.503v-19.757c-5.865 1.053-13.436 2.107-22.712 3.161v19.362c-1.402.177-4.159.397-8.271.659v19.625c1.838-.086 4.595-.306 8.271-.659v17.518c0 19.672 9.365 29.506 28.095 29.504 8.927 0 16.454-2.239 22.581-6.717l-6.433-18.704a35.583 35.583 0 0 1-6.893 3.557 18.016 18.016 0 0 1-6.105 1.054Zm-78.114-47.681c-6.915 0-13.13 1.471-18.642 4.412a33.673 33.673 0 0 0-13.098 12.416A33.82 33.82 0 0 0 25 181.492c0 6.138 1.67 12.16 4.828 17.417a33.673 33.673 0 0 0 13.098 12.416c5.514 2.941 11.728 4.412 18.642 4.412 6.913 0 13.127-1.47 18.643-4.412a33.673 33.673 0 0 0 13.097-12.416 33.819 33.819 0 0 0 4.829-17.417 33.82 33.82 0 0 0-4.829-17.418 33.673 33.673 0 0 0-13.097-12.416c-5.514-2.94-11.728-4.411-18.643-4.412Zm190.363 47.812c-3.24 0-5.844-.922-7.812-2.766-1.969-1.844-2.954-4.258-2.954-7.244 0-4.038 1.313-7.287 3.939-9.747 2.625-2.457 6.411-4.455 11.356-5.993 4.943-1.535 12.317-3.313 22.121-5.334a37.491 37.491 0 0 1-4.66 15.476c-2.672 4.787-5.976 8.585-9.912 11.393-3.939 2.812-7.965 4.217-12.078 4.215Zm-190.363 1.449c-4.377 0-8.01-1.427-10.896-4.281-2.889-2.852-4.333-6.43-4.333-10.734 0-4.301 1.445-7.879 4.333-10.735 2.888-2.852 6.52-4.279 10.896-4.281 4.376 0 8.008 1.427 10.897 4.281 2.888 2.855 4.332 6.433 4.332 10.735 0 4.303-1.444 7.881-4.332 10.734-2.888 2.855-6.52 4.282-10.897 4.281"/></svg>