<?xml version="1.0" encoding="UTF-8"?>
<svg id="Calque_2" data-name="Calque 2" xmlns="http://www.w3.org/2000/svg" xmlns:xlink="http://www.w3.org/1999/xlink" viewBox="0 0 650.97 119.49">
  <defs>
    <style>
      .cls-1 {
        fill: #fff;
      }

      .cls-2 {
        fill: url(#Nouvelle_nuance_de_dégradé_1_14-3);
      }

      .cls-3 {
        fill: url(#Nouvelle_nuance_de_dégradé_1_13-3);
      }

      .cls-4 {
        fill: url(#Nouvelle_nuance_de_dégradé_1_14-2);
      }

      .cls-5 {
        filter: url(#drop-shadow-1);
      }

      .cls-6 {
        fill: url(#Dégradé_sans_nom_25);
      }

      .cls-7 {
        fill: url(#Nouvelle_nuance_de_dégradé_1_13);
      }

      .cls-8 {
        clip-path: url(#clippath);
      }

      .cls-9 {
        fill: none;
      }

      .cls-10 {
        fill: url(#Dégradé_sans_nom_47);
      }

      .cls-11 {
        fill: #1a1a1a;
      }

      .cls-12 {
        fill: url(#Nouvelle_nuance_de_dégradé_1_14);
      }

      .cls-13 {
        fill: url(#Dégradé_sans_nom_39);
      }

      .cls-14 {
        fill: url(#Nouvelle_nuance_de_dégradé_1_13-2);
      }
    </style>
    <clipPath id="clippath">
      <rect class="cls-9" width="650.97" height="119.49"/>
    </clipPath>
    <filter id="drop-shadow-1" filterUnits="userSpaceOnUse">
      <feOffset dx="0" dy="1.42"/>
      <feGaussianBlur result="blur" stdDeviation="2.83"/>
      <feFlood flood-color="#000" flood-opacity=".5"/>
      <feComposite in2="blur" operator="in"/>
      <feComposite in="SourceGraphic"/>
    </filter>
    <linearGradient id="Dégradé_sans_nom_39" data-name="Dégradé sans nom 39" x1="-69.22" y1="52.54" x2="-69.22" y2="37.9" gradientTransform="translate(-24.29) rotate(-180) scale(1 -1)" gradientUnits="userSpaceOnUse">
      <stop offset="0" stop-color="#335dff"/>
      <stop offset="1" stop-color="#36f"/>
    </linearGradient>
    <linearGradient id="Nouvelle_nuance_de_dégradé_1_13" data-name="Nouvelle nuance de dégradé 1 13" x1="-130.46" y1="53.82" x2="-130.46" y2="37.09" gradientTransform="translate(211.27)" gradientUnits="userSpaceOnUse">
      <stop offset="0" stop-color="#00bcd4"/>
      <stop offset="1" stop-color="#00d9b2"/>
    </linearGradient>
    <linearGradient id="Dégradé_sans_nom_47" data-name="Dégradé sans nom 47" x1="62.81" y1="42.31" x2="62.81" y2="27.15" gradientUnits="userSpaceOnUse">
      <stop offset="0" stop-color="#2929cc"/>
      <stop offset="1" stop-color="#2929cc"/>
    </linearGradient>
    <linearGradient id="Nouvelle_nuance_de_dégradé_1_14" data-name="Nouvelle nuance de dégradé 1 14" x1="-74.36" y1="85.97" x2="-74.36" y2="47.71" gradientTransform="translate(-24.29) rotate(-180) scale(1 -1)" gradientUnits="userSpaceOnUse">
      <stop offset="0" stop-color="#333bff"/>
      <stop offset="1" stop-color="#3376ff"/>
    </linearGradient>
    <linearGradient id="Nouvelle_nuance_de_dégradé_1_13-2" data-name="Nouvelle nuance de dégradé 1 13" x1="-135.73" y1="85.97" x2="-135.73" y2="47.71" xlink:href="#Nouvelle_nuance_de_dégradé_1_13"/>
    <linearGradient id="Nouvelle_nuance_de_dégradé_1_14-2" data-name="Nouvelle nuance de dégradé 1 14" x1="65.89" y1="94.59" x2="65.89" y2="39.31" gradientTransform="matrix(1, 0, 0, 1, 0, 0)" xlink:href="#Nouvelle_nuance_de_dégradé_1_14"/>
    <linearGradient id="Dégradé_sans_nom_25" data-name="Dégradé sans nom 25" x1="50.69" y1="85.97" x2="50.69" y2="22.44" gradientUnits="userSpaceOnUse">
      <stop offset="0" stop-color="#00b8d9"/>
      <stop offset="1" stop-color="#00d1bb"/>
    </linearGradient>
    <linearGradient id="Nouvelle_nuance_de_dégradé_1_14-3" data-name="Nouvelle nuance de dégradé 1 14" x1="112.02" y1="85.97" x2="112.02" y2="22.44" gradientTransform="translate(186.99) rotate(-180) scale(1 -1)" xlink:href="#Nouvelle_nuance_de_dégradé_1_14"/>
    <linearGradient id="Nouvelle_nuance_de_dégradé_1_13-3" data-name="Nouvelle nuance de dégradé 1 13" x1="57.9" y1="94.59" x2="57.9" y2="39.31" gradientTransform="matrix(1, 0, 0, 1, 0, 0)" xlink:href="#Nouvelle_nuance_de_dégradé_1_13"/>
  </defs>
  <g id="Logo_Solo" data-name="Logo Solo">
    <g class="cls-8">
      <g class="cls-5">
        <path class="cls-1" d="m27.57,10.45h70.48c7.02,0,12.76,5.74,12.76,12.76v70.48c0,7.02-5.74,12.76-12.76,12.76H27.57c-7.02,0-12.76-5.74-12.76-12.76V23.21c0-7.02,5.74-12.76,12.76-12.76Z"/>
      </g>
      <polygon class="cls-13" points="48.48 42.31 48.48 47.71 41.4 52.54 41.81 37.9 48.48 42.31"/>
      <polygon class="cls-7" points="77.15 42.31 77.15 47.71 84.47 53.82 84.47 37.09 77.15 42.31"/>
      <polygon class="cls-10" points="62.81 27.15 43.42 39.42 48.48 42.31 62.81 34.25 77.15 42.31 82.21 39.42 62.81 27.15"/>
      <polygon class="cls-12" points="52.98 50.29 54.33 51.06 54.19 82.67 52.98 83.35 48.48 85.97 45.81 83.43 45.95 50.83 48.48 47.71 52.98 50.29"/>
      <polygon class="cls-14" points="72.65 50.29 71.01 51.18 71.17 82.38 72.65 83.35 77.15 85.97 80.07 83.43 80.07 50.94 77.15 47.71 72.65 50.29"/>
      <polygon class="cls-4" points="72.65 44.93 72.65 64.7 72.65 88.78 62.81 94.59 59.49 92.1 59.13 43.64 62.81 39.31 72.65 44.93"/>
      <polygon class="cls-6" points="38.51 36.57 38.51 56.27 38.51 79.99 48.48 85.97 48.48 47.71 43.42 50.64 43.42 39.42 62.87 28.14 62.81 22.44 38.51 36.57"/>
      <polygon class="cls-2" points="87.12 36.57 87.12 56.27 87.12 79.99 77.15 85.97 77.15 47.71 82.21 50.64 82.21 39.42 62.81 28.18 62.81 22.44 87.12 36.57"/>
      <polygon class="cls-3" points="52.98 44.93 52.98 64.7 52.98 88.67 62.81 94.59 62.81 64.7 62.81 39.31 52.98 44.93"/>
      <path class="cls-11" d="m183.11,93.55c-5.1,0-9.8-.8-14.1-2.5-4.3-1.7-8-4.1-11.2-7.2-3.1-3.1-5.6-6.8-7.4-10.8-1.7-4.2-2.6-8.7-2.6-13.6s.9-9.4,2.6-13.5c1.8-4.2,4.3-7.8,7.4-10.8,3.2-3.1,6.9-5.5,11.2-7.2,4.3-1.7,9-2.6,14.1-2.6s9.7.9,14,2.6c4.3,1.7,8,4,11.1,7.1,3.2,3.1,5.7,6.7,7.4,10.8,1.8,4.2,2.7,8.7,2.7,13.6s-.9,9.5-2.7,13.6c-1.7,4.2-4.2,7.8-7.4,10.8-3.1,3.1-6.8,5.5-11.1,7.2-4.2,1.6-8.9,2.5-14,2.5Zm0-6.4c4,0,7.7-.7,11.1-2,3.5-1.4,6.4-3.4,8.9-5.9,2.6-2.6,4.5-5.5,6-8.8,1.4-3.4,2.1-7.1,2.1-11.1s-.7-7.7-2.1-11c-1.4-3.4-3.4-6.3-6-8.8-2.5-2.6-5.5-4.5-8.9-5.9-3.4-1.4-7.1-2.1-11.1-2.1s-7.8.7-11.2,2.1c-3.5,1.3-6.5,3.3-9,5.9-2.5,2.5-4.5,5.4-6,8.8-1.4,3.3-2.1,7-2.1,11s.7,7.6,2.1,11c1.5,3.4,3.5,6.4,6,8.9,2.6,2.5,5.6,4.4,9,5.9,3.5,1.4,7.2,2,11.2,2Zm68.2,5.8l-29.8-67.2h7.7l27.8,63.3h-4.2l28-63.3h7.2l-29.8,67.2h-6.9Zm52.9-37.2h35.5v6h-35.5v-6Zm.7,31h40.5v6.1h-47.5V25.65h46.1v6.1h-39v55h-.1Zm57.2,6.2V25.75h25.2c5.7,0,10.6.9,14.7,2.8,4.1,1.8,7.2,4.4,9.4,7.9,2.2,3.4,3.4,7.5,3.4,12.4s-1.1,8.8-3.4,12.3c-2.2,3.4-5.3,6-9.4,7.9-4.1,1.8-9,2.7-14.7,2.7h-21.2l3.2-3.3v24.6h-7.2v-.1Zm45.9,0l-17.3-24.4h7.7l17.4,24.4h-7.8Zm-38.8-24l-3.2-3.4h21c6.7,0,11.8-1.5,15.3-4.4s5.3-7.1,5.3-12.4-1.8-9.5-5.3-12.5c-3.5-2.9-8.5-4.4-15.3-4.4h-21l3.2-3.4v40.5Zm81.3,25.1c-5.4,0-10.5-.7-15.5-2.1-4.9-1.5-8.9-3.4-11.9-5.7l5.3-11.7c2.9,2,6.3,3.7,10.2,5.1,4,1.3,8,1.9,12,1.9,3.1,0,5.5-.3,7.4-.9s3.3-1.5,4.2-2.6,1.3-2.3,1.3-3.7c0-1.8-.7-3.2-2.1-4.2-1.4-1.1-3.3-2-5.6-2.6-2.3-.7-4.9-1.3-7.7-1.9s-5.5-1.4-8.4-2.3c-2.8-.9-5.3-2-7.6-3.5-2.3-1.4-4.2-3.3-5.7-5.6-1.4-2.3-2.1-5.2-2.1-8.8,0-3.8,1-7.3,3.1-10.5,2.1-3.2,5.2-5.7,9.4-7.6,4.2-1.9,9.5-2.9,15.8-2.9,4.2,0,8.4.5,12.5,1.5s7.7,2.4,10.8,4.4l-4.8,11.8c-3.1-1.8-6.3-3.1-9.4-3.9-3.1-.9-6.2-1.3-9.2-1.3s-5.5.4-7.4,1.1c-1.9.7-3.3,1.6-4.1,2.8-.8,1.1-1.2,2.4-1.2,3.8,0,1.7.7,3.1,2.1,4.2,1.4,1,3.3,1.9,5.6,2.5,2.3.6,4.8,1.3,7.6,1.9s5.6,1.4,8.4,2.2c2.8.8,5.4,2,7.7,3.4s4.2,3.3,5.6,5.6c1.5,2.3,2.2,5.2,2.2,8.7,0,3.8-1.1,7.2-3.2,10.4s-5.3,5.7-9.5,7.6c-4.1,2-9.4,2.9-15.8,2.9Zm71.8,0c-5.3,0-10.2-.9-14.8-2.6-4.5-1.7-8.4-4.2-11.7-7.3-3.3-3.1-5.8-6.8-7.7-11-1.8-4.2-2.7-8.8-2.7-13.8s.9-9.6,2.7-13.8c1.9-4.2,4.4-7.9,7.8-11,3.4-3.1,7.2-5.6,11.7-7.3,4.5-1.7,9.3-2.6,14.6-2.6s10.2.9,14.6,2.6c4.5,1.7,8.4,4.2,11.6,7.3,3.3,3.1,5.9,6.8,7.8,11,1.9,4.2,2.8,8.8,2.8,13.8s-.9,9.6-2.8,13.9c-1.9,4.2-4.4,7.9-7.8,11-3.3,3.1-7.1,5.5-11.6,7.2-4.4,1.8-9.2,2.6-14.5,2.6Zm-.1-13.2c3,0,5.8-.5,8.3-1.5,2.6-1,4.8-2.5,6.7-4.4,1.9-1.9,3.4-4.2,4.4-6.8,1.1-2.6,1.6-5.5,1.6-8.7s-.5-6.1-1.6-8.7c-1-2.6-2.5-4.9-4.4-6.8s-4.1-3.4-6.6-4.4c-2.6-1-5.3-1.5-8.4-1.5s-5.8.5-8.4,1.5c-2.5,1-4.7,2.5-6.6,4.4-1.9,1.9-3.4,4.2-4.5,6.8-1,2.6-1.5,5.5-1.5,8.7s.5,6,1.5,8.7c1.1,2.6,2.6,4.9,4.4,6.8,1.9,1.9,4.2,3.4,6.7,4.4s5.4,1.5,8.4,1.5Zm80.6,13.2c-5.2,0-10-.8-14.5-2.5-4.4-1.7-8.3-4.2-11.5-7.3-3.2-3.1-5.8-6.8-7.7-11-1.8-4.2-2.7-8.9-2.7-13.9s.9-9.7,2.7-13.9c1.9-4.2,4.4-7.9,7.7-11,3.3-3.1,7.2-5.5,11.6-7.2,4.4-1.7,9.2-2.6,14.5-2.6,5.8,0,11.1,1,15.7,3.1,4.7,2,8.7,4.9,11.9,8.8l-10,9.2c-2.3-2.6-4.9-4.6-7.7-5.9-2.8-1.3-5.9-2-9.2-2-3.1,0-6,.5-8.6,1.5s-4.9,2.5-6.8,4.4c-1.9,1.9-3.4,4.2-4.5,6.8-1,2.6-1.5,5.5-1.5,8.7s.5,6.1,1.5,8.7c1.1,2.6,2.6,4.9,4.5,6.8s4.2,3.4,6.8,4.4,5.5,1.5,8.6,1.5c3.3,0,6.4-.6,9.2-1.9s5.4-3.4,7.7-6l10,9.2c-3.2,3.9-7.2,6.9-11.9,8.9-4.6,2.2-9.9,3.2-15.8,3.2Z"/>
    </g>
  </g>
</svg>