<?xml version="1.0" ?>
<svg xmlns="http://www.w3.org/2000/svg" version="1.2" viewBox="0 0 1500 1500" baseProfile="tiny-ps">
	<path d="m378.5 1125.9c-75.061-4.9036-139.86-30.122-191.4-74.488-52.61-45.288-89.689-106.68-107.52-178.03-22.345-89.388-16.338-202.95 15.094-285.35 13.444-35.246 30.525-65.294 53.859-94.75 9.1235-11.517 31.556-34.468 43.471-44.478 51.654-43.391 115.13-67.774 192.25-73.848 19.628-1.5459 68.11-0.69394 84.746 1.4892 74.823 9.8195 132.64 37.406 182.52 87.087 17.337 17.268 28.793 31.183 41.989 51 35.307 53.022 54.766 113.35 60.458 187.45 1.3307 17.321 1.3291 61.983-3e-3 80.863-8.8096 124.87-55.026 218.61-138.75 281.44-61.163 45.899-144.64 67.625-236.71 61.61zm51.223-75.864c59.029-4.0309 106.43-22.32 145.78-56.243 37.897-32.675 64.587-77.955 78.91-133.87 13.71-53.523 15.92-130.23 5.514-191.35-12.708-74.647-44.755-133.07-93.924-171.24-22.302-17.31-51.592-31.338-80.991-38.791-46.835-11.872-105-10.901-148.44 2.4786-39.278 12.098-69.704 30.932-99.591 61.648-45.925 47.198-71.288 105.86-80.151 185.37-1.9833 17.792-1.6614 72.801 0.53539 91.5 7.0699 60.18 22.745 105.46 50.713 146.48 51.04 74.869 126.93 110.48 221.65 104.02zm391.28-299.54v-364.54l151.75 0.3544c161.26 0.37661 157.48 0.27309 190.17 5.2095 48.529 7.3287 87.998 22.19 116.96 44.038 43.855 33.085 66.12 82.772 66.12 147.55 0 34.574-6.4654 63.396-20.597 91.82-25.343 50.975-69.17 86.884-131.9 108.07-6.0574 2.0461-11 4.2706-11 4.9508 0 0.67934 3.15 2.4624 7 3.9624 28.34 11.041 61.056 42.971 94.396 92.125 7.1659 10.565 118.69 184.45 145.76 227.25l2.3711 3.75h-187.84l-60.21-99.75c-33.115-54.862-65.29-107.4-71.5-116.75-21.485-32.352-37.96-49.015-56.834-57.48-11.253-5.0473-15.003-5.5161-44.137-5.5179l-27-2e-3 -0.25348 139.75-0.25349 139.75h-162.99v-364.54zm265.31-41.346c24.622-5.4675 43.684-15.825 58.994-32.054 21.926-23.243 31.696-54.112 27.778-87.766-5.2763-45.317-30.671-70.034-81.084-78.92-7.7447-1.365-18.6-1.7551-58.75-2.1113l-49.25-0.43692v204.35l46.25-0.43995c42.909-0.40818 46.959-0.59737 56.062-2.6189z" fill="#56ad56"/>
</svg>