<?xml version="1.0" ?>
<svg xmlns="http://www.w3.org/2000/svg" viewBox="0 0 307 55">
	<style>.st0,.st1{fill-rule:evenodd;clip-rule:evenodd;fill:#fff}.st1{fill:#2e2e2e}</style>
	<path class="st0" d="M 209.3,11.5 L 209.3,25.4 C 208.8,24.2 208.2,23.1 207.4,22.2 C 205.5,20.1 203.0,19.1 199.8,19.1 C 197.7,19.1 195.8,19.6 194.1,20.6 C 192.8,21.4 191.8,22.4 190.9,23.6 L 192.3,19.4 L 182.7,19.4 L 180.7,26.7 L 178.7,19.4 L 169.1,19.4 L 170.0,22.1 C 169.8,21.8 169.5,21.5 169.2,21.3 C 167.5,19.8 165.1,19.1 162.3,19.1 C 160.5,19.1 158.8,19.4 157.3,20.1 C 156.3,20.5 155.4,21.1 154.7,21.8 L 154.7,19.9 L 153.3,19.5 C 152.6,19.3 151.9,19.2 151.1,19.2 C 150.4,19.2 149.5,19.3 148.6,19.7 L 148.6,19.6 L 140.0,19.6 L 140.0,26.6 C 139.7,24.5 138.8,22.8 137.3,21.5 C 135.6,20.0 133.2,19.3 130.4,19.3 C 128.6,19.3 126.9,19.6 125.4,20.3 C 123.8,21.0 122.6,21.9 121.7,23.2 C 120.8,24.5 120.3,25.9 120.3,27.4 L 120.3,29.4 L 122.6,29.4 C 121.1,30.7 120.2,32.4 120.0,34.5 L 110.8,34.5 L 110.8,12.9 L 101.5,12.9 L 101.5,42.5 L 122.0,42.5 L 122.0,40.3 L 122.4,40.7 C 124.0,42.1 126.0,42.8 128.4,42.8 C 129.3,42.8 130.2,42.7 131.0,42.5 L 149.1,42.5 L 149.1,28.6 C 149.3,28.4 149.8,28.1 150.9,28.1 C 151.3,28.1 151.8,28.1 152.3,28.2 L 152.3,29.2 L 154.6,29.2 C 152.8,30.6 151.9,32.7 151.9,35.2 C 151.9,37.4 152.8,39.3 154.4,40.8 C 156.0,42.2 158.0,42.9 160.4,42.9 C 161.3,42.9 162.2,42.8 163.0,42.6 L 172.9,42.6 L 172.9,39.8 L 172.7,39.4 C 172.5,39.0 172.2,38.2 172.2,36.2 L 172.2,28.0 L 177.1,42.5 L 184.8,42.5 L 189.2,29.5 C 189.2,30.0 189.1,30.4 189.1,30.9 L 189.1,31.4 C 189.1,34.8 190.2,37.6 192.3,39.7 C 194.4,41.8 197.2,42.8 200.5,42.8 C 202.4,42.8 204.1,42.4 205.7,41.7 A 9.0,9.0 0.0 0,0 209.5,38.6 L 209.5,42.4 L 218.6,42.4 L 218.6,11.4 L 209.3,11.4 L 209.3,11.5 M 207.9,34.6 L 209.3,34.6 L 209.3,36.1 L 207.9,34.6 M 302.7,42.4 C 300.8,42.4 299.3,41.8 298.4,40.6 C 297.5,39.5 297.1,37.9 297.1,36.0 L 297.1,24.7 L 293.8,24.7 C 294.5,26.2 294.8,27.9 294.8,29.9 L 294.8,32.6 L 281.3,32.6 C 281.5,33.9 281.9,35.0 282.7,35.9 C 283.6,37.0 284.8,37.5 286.2,37.5 C 287.1,37.5 287.9,37.3 288.5,37.0 C 289.1,36.7 289.8,36.2 290.3,35.5 L 291.2,34.3 L 294.8,37.1 L 294.0,38.3 C 292.2,41.0 289.5,42.3 286.0,42.3 C 284.1,42.3 282.4,41.8 280.8,40.9 C 279.3,40.0 278.0,38.6 277.2,37.0 C 276.4,35.4 275.9,33.5 275.9,31.5 L 275.9,30.7 C 275.9,28.7 276.3,26.8 277.1,25.1 C 277.9,23.4 279.1,22.0 280.6,21.0 C 282.1,20.0 283.8,19.5 285.5,19.5 C 288.3,19.5 290.5,20.5 292.1,22.4 C 292.5,22.9 292.9,23.5 293.3,24.1 L 293.3,20.0 L 296.8,20.0 L 296.8,15.1 L 301.0,15.1 L 301.9,16.0 L 301.9,20.0 L 305.8,20.0 L 305.8,24.7 L 301.9,24.7 L 301.9,35.9 C 301.9,36.9 302.1,37.3 302.2,37.4 C 302.3,37.5 302.5,37.6 302.9,37.6 C 303.1,37.6 303.4,37.6 304.4,37.4 L 306.0,37.2 L 306.2,41.7 L 305.2,42.1 C 304.8,42.2 303.9,42.4 302.7,42.4 L 302.7,42.4 M 289.6,27.8 C 289.4,26.9 289.1,26.2 288.5,25.6 C 287.8,24.8 286.9,24.4 285.8,24.4 C 284.6,24.4 283.7,24.8 282.9,25.7 C 282.4,26.3 282.0,27.0 281.7,27.9 L 289.6,27.9 L 289.6,27.8 M 256.7,42.4 C 254.5,42.4 252.7,41.8 251.3,40.5 C 249.8,39.2 249.1,37.5 249.1,35.5 C 249.1,33.2 250.1,31.2 252.1,29.9 C 253.9,28.6 256.3,28.0 259.4,28.0 L 261.7,28.0 L 261.7,27.3 C 261.7,26.4 261.5,25.7 260.9,25.2 C 260.4,24.7 259.5,24.4 258.3,24.4 C 257.2,24.4 256.3,24.7 255.6,25.2 C 254.8,25.8 254.7,26.3 254.7,26.7 L 254.7,28.2 L 249.6,28.2 L 249.6,26.7 C 249.6,24.7 250.5,23.0 252.3,21.6 C 254.0,20.3 256.0,19.6 258.4,19.6 C 260.9,19.6 262.9,20.3 264.4,21.6 C 266.0,22.9 266.8,24.8 266.8,27.1 L 266.8,36.1 C 266.8,38.1 267.1,39.1 267.3,39.6 L 267.4,39.9 L 267.4,41.9 L 262.6,41.9 C 262.6,41.9 262.2,40.8 262.2,40.7 C 261.8,40.9 261.5,41.1 261.1,41.3 C 259.6,42.0 258.1,42.4 256.7,42.4 M 259.3,32.6 C 257.5,32.6 256.1,32.9 255.2,33.5 C 254.5,34.0 254.1,34.5 254.1,35.3 C 254.1,35.9 254.3,36.4 254.8,36.8 C 255.3,37.3 256.0,37.5 256.9,37.5 C 258.0,37.5 259.0,37.2 259.9,36.7 C 260.7,36.2 261.2,35.6 261.6,34.9 L 261.6,32.6 L 259.3,32.6 L 259.3,32.6 M 269.5,42.0 L 269.5,12.0 L 274.6,12.0 L 274.6,42.0 L 269.5,42.0 L 269.5,42.0 M 236.4,42.0 L 225.8,13.4 L 231.4,13.4 L 238.5,33.3 L 245.6,13.4 L 251.2,13.4 L 240.6,42.0 L 236.4,42.0 L 236.4,42.0"/>
	<path class="st1" d="M 238.3,37.3 L 238.4,37.8 L 238.6,37.3 L 246.7,14.9 L 249.1,14.9 L 239.6,40.5 L 237.5,40.5 L 228.0,14.9 L 230.4,14.9 L 238.3,37.3 M 263.5,40.5 C 263.3,39.9 263.2,39.0 263.1,37.8 C 262.4,38.8 261.4,39.5 260.3,40.0 C 259.2,40.5 257.9,40.8 256.7,40.8 C 254.9,40.8 253.4,40.3 252.3,39.3 C 251.2,38.3 250.6,37.0 250.6,35.4 C 250.6,33.6 251.4,32.1 252.9,31.0 C 254.4,29.9 256.6,29.4 259.3,29.4 L 263.1,29.4 L 263.1,27.2 C 263.1,25.8 262.7,24.8 261.8,24.0 C 261.0,23.2 259.7,22.8 258.1,22.8 C 256.6,22.8 255.4,23.2 254.5,23.9 C 253.5,24.7 253.1,25.6 253.1,26.6 L 251.0,26.6 C 251.0,25.1 251.7,23.8 253.1,22.7 C 254.5,21.6 256.2,21.0 258.3,21.0 C 260.4,21.0 262.1,21.5 263.3,22.6 C 264.5,23.7 265.2,25.1 265.2,27.0 L 265.2,36.0 C 265.2,37.8 265.4,39.2 265.8,40.1 L 265.8,40.3 L 263.5,40.3 L 263.5,40.5 M 256.9,39.0 C 258.3,39.0 259.6,38.7 260.7,38.0 C 261.8,37.3 262.6,36.4 263.1,35.3 L 263.1,31.1 L 259.3,31.1 C 257.2,31.1 255.6,31.5 254.4,32.3 C 253.2,33.0 252.6,34.1 252.6,35.4 C 252.6,36.5 253.0,37.4 253.8,38.1 C 254.6,38.6 255.6,39.0 256.9,39.0 L 256.9,39.0 M 273.1,40.5 L 271.0,40.5 L 271.0,13.5 L 273.1,13.5 L 273.1,40.5 L 273.1,40.5 M 286.2,40.9 C 284.6,40.9 283.1,40.5 281.8,39.7 C 280.5,38.9 279.5,37.8 278.8,36.4 C 278.1,35.0 277.7,33.4 277.7,31.6 L 277.7,30.8 C 277.7,29.0 278.1,27.3 278.8,25.9 C 279.5,24.4 280.5,23.3 281.8,22.4 C 283.1,21.6 284.4,21.1 285.9,21.1 C 288.2,21.1 290.0,21.9 291.4,23.5 C 292.8,25.1 293.4,27.2 293.4,30.0 L 293.4,31.2 L 279.8,31.2 L 279.8,31.6 C 279.8,33.8 280.4,35.6 281.7,37.0 C 282.9,38.4 284.5,39.2 286.4,39.2 C 287.5,39.2 288.5,39.0 289.4,38.6 C 290.3,38.2 291.0,37.5 291.7,36.6 L 293.0,37.6 C 291.4,39.7 289.2,40.9 286.2,40.9 L 286.2,40.9 M 285.8,22.9 C 284.2,22.9 282.9,23.5 281.8,24.6 C 280.7,25.8 280.1,27.3 279.8,29.3 L 291.2,29.3 L 291.2,29.1 C 291.1,27.3 290.6,25.8 289.6,24.6 C 288.7,23.5 287.4,22.9 285.8,22.9 L 285.8,22.9 M 300.7,16.6 L 300.7,21.5 L 304.6,21.5 L 304.6,23.2 L 300.7,23.2 L 300.7,35.9 C 300.7,37.0 300.9,37.7 301.3,38.3 C 301.7,38.8 302.3,39.1 303.2,39.1 C 303.6,39.1 304.1,39.0 304.9,38.9 L 305.0,40.6 C 304.5,40.8 303.7,40.9 302.8,40.9 C 301.4,40.9 300.3,40.5 299.7,39.6 C 299.0,38.8 298.7,37.5 298.7,35.9 L 298.7,23.2 L 295.2,23.2 L 295.2,21.5 L 298.7,21.5 L 298.7,16.6 L 300.7,16.6 L 300.7,16.6"/>
	<path class="st0" d="M 5.4,54.3 C 2.9,54.3 0.0,52.4 0.0,47.1 L 0.0,7.1 C 0.0,1.9 2.9,0.0 5.4,0.0 C 7.0,0.0 8.7,0.7 10.4,2.0 L 41.5,25.3 L 72.6,2.0 C 74.3,0.7 76.0,0.0 77.6,0.0 C 80.1,0.0 83.0,1.9 83.0,7.2 L 83.0,47.2 C 83.0,52.5 80.1,54.4 77.6,54.4 C 76.0,54.4 74.3,53.7 72.6,52.4 L 41.5,29.0 L 10.4,52.4 C 8.7,53.6 7.0,54.3 5.4,54.3"/>
	<linearGradient id="SVGID_1_" gradientUnits="userSpaceOnUse" x1="11.875" y1="303.688" x2="11.875" y2="302.688" gradientTransform="matrix(80 0 0 -51.3249 -908.5 15588.23)">
		<stop offset="0" stop-color="#bd74e6"/>
		<stop offset="1" stop-color="#4b40c8"/>
	</linearGradient>
	<path d="M 1.5,7.2 C 1.5,1.7 5.1,-0.1 9.5,3.2 L 41.5,27.2 L 73.5,3.2 C 77.9,-0.1 81.5,1.7 81.5,7.2 L 81.5,47.2 C 81.5,52.7 77.9,54.5 73.5,51.2 L 41.5,27.2 L 9.5,51.2 C 5.1,54.5 1.5,52.7 1.5,47.2 L 1.5,7.2 L 1.5,7.2" fill-rule="evenodd" clip-rule="evenodd" fill="url(#SVGID_1_)"/>
	<path class="st1" d="M 108.8,36.3 L 120.0,36.3 L 120.0,40.5 L 103.5,40.5 L 103.5,14.9 L 108.8,14.9 L 108.8,36.3 M 138.1,36.1 L 138.1,27.9 C 138.1,25.8 137.4,24.1 136.0,22.9 C 134.6,21.7 132.8,21.1 130.4,21.1 C 128.9,21.1 127.5,21.4 126.2,21.9 C 125.0,22.4 124.0,23.2 123.3,24.1 C 122.6,25.0 122.3,26.1 122.3,27.2 L 127.4,27.2 C 127.4,26.5 127.6,25.9 128.1,25.5 C 128.6,25.1 129.3,24.9 130.1,24.9 C 131.1,24.9 131.8,25.2 132.2,25.7 C 132.7,26.2 132.9,26.9 132.9,27.8 L 132.9,28.9 L 130.6,28.9 C 127.8,28.9 125.6,29.5 124.1,30.5 C 122.6,31.6 121.9,33.1 121.9,35.1 C 121.9,36.7 122.5,38.1 123.7,39.2 C 124.9,40.3 126.5,40.8 128.3,40.8 C 130.3,40.8 131.9,40.1 133.1,38.7 C 133.2,39.4 133.4,39.9 133.6,40.4 L 138.7,40.4 L 138.7,40.16 C 138.3,39.3 138.1,37.9 138.1,36.1 L 138.1,36.1 M 133.0,35.1 C 132.7,35.7 132.2,36.1 131.6,36.4 C 131.0,36.7 130.3,36.9 129.5,36.9 C 128.7,36.9 128.1,36.7 127.7,36.3 C 127.3,35.9 127.0,35.4 127.0,34.7 L 127.0,34.4 C 127.2,32.6 128.5,31.8 131.1,31.8 L 133.0,31.8 L 133.0,35.1 L 133.0,35.1 M 152.6,26.2 C 151.9,26.1 151.3,26.1 150.8,26.1 C 148.9,26.1 147.6,26.7 147.0,28.1 L 147.0,40.5 L 142.0,40.5 L 142.0,21.5 L 146.8,21.5 L 146.9,23.8 C 147.9,22.1 149.3,21.2 151.1,21.2 C 151.7,21.2 152.2,21.3 152.7,21.4 L 152.6,26.2 L 152.6,26.2 M 170.0,36.1 L 170.0,27.9 C 170.0,25.8 169.3,24.1 167.9,22.9 C 166.5,21.7 164.7,21.1 162.3,21.1 C 160.8,21.1 159.4,21.4 158.1,21.9 C 156.9,22.4 155.9,23.2 155.2,24.1 C 154.5,25.0 154.2,26.1 154.2,27.2 L 159.3,27.2 C 159.3,26.5 159.5,25.9 160.0,25.5 C 160.5,25.1 161.2,24.9 162.0,24.9 C 163.0,24.9 163.7,25.2 164.1,25.7 C 164.6,26.2 164.8,26.9 164.8,27.8 L 164.8,28.9 L 162.5,28.9 C 159.7,28.9 157.5,29.5 156.0,30.5 C 154.5,31.6 153.8,33.1 153.8,35.1 C 153.8,36.7 154.4,38.1 155.6,39.2 C 156.8,40.3 158.4,40.8 160.2,40.8 C 162.2,40.8 163.8,40.1 165.0,38.7 C 165.1,39.4 165.3,39.9 165.5,40.4 L 170.6,40.4 L 170.6,40.16 C 170.2,39.3 170.0,37.9 170.0,36.1 L 170.0,36.1 M 164.9,35.1 C 164.6,35.7 164.1,36.1 163.5,36.4 C 162.9,36.7 162.2,36.9 161.4,36.9 C 160.6,36.9 160.0,36.7 159.6,36.3 C 159.2,35.9 158.9,35.4 158.9,34.7 L 158.9,34.4 C 159.1,32.6 160.4,31.8 163.0,31.8 L 164.9,31.8 L 164.9,35.1 L 164.9,35.1 M 180.7,34.3 L 184.3,21.5 L 189.6,21.5 L 183.1,40.5 L 178.3,40.5 L 171.9,21.5 L 177.2,21.5 L 180.7,34.3 M 208.1,30.6 C 208.1,27.6 207.4,25.3 205.9,23.6 C 204.4,22.0 202.4,21.1 199.8,21.1 C 198.1,21.1 196.5,21.5 195.2,22.3 C 193.8,23.1 192.8,24.3 192.1,25.8 C 191.4,27.3 191.0,29.0 191.0,30.9 L 191.0,31.4 C 191.0,34.2 191.9,36.5 193.6,38.2 C 195.4,39.9 197.6,40.8 200.4,40.8 C 202.0,40.8 203.4,40.5 204.7,39.9 C 206.0,39.3 207.0,38.5 207.8,37.4 L 205.3,34.6 C 204.2,36.0 202.7,36.7 200.7,36.7 C 199.4,36.7 198.4,36.3 197.6,35.6 C 196.8,34.8 196.3,33.9 196.1,32.6 L 208.2,32.6 L 208.2,30.6 L 208.1,30.6 M 203.2,29.2 L 196.1,29.2 C 196.3,27.9 196.7,27.0 197.3,26.3 C 197.9,25.6 198.7,25.3 199.8,25.3 C 200.9,25.3 201.7,25.6 202.3,26.2 C 202.9,26.8 203.2,27.7 203.2,28.8 L 203.2,29.2 M 216.4,40.5 L 211.3,40.5 L 211.3,13.5 L 216.4,13.5 L 216.4,40.5"/>
</svg>