<?xml version="1.0" ?>
<svg xmlns="http://www.w3.org/2000/svg" viewBox="0 0 1552 742">
	<defs>
		<clipPath clipPathUnits="userSpaceOnUse" id="cp1">
			<path d="m1552 0v741.22h-1552v-741.22z"/>
		</clipPath>
	</defs>
	<style>.a{fill:#00b140}.b{fill:#fff}</style>
	<path class="a" d="m1552 0v741.2h-1552v-741.2z"/>
	<g clip-path="url(#cp1)">
		<path class="b" d="m119.3 142.5c50 0 100.1 0.1 151.1 0.1 0 11.7 3.8 38.2-1.8 45.9-6.9 9.4-21.5 3.2-26.7 23.1-7.1 26.5-3.8 91.1-3.8 91.1 0 0-4.8 126.6 4.7 132.6 6.8 4.4 25.7 3.1 35 3.7 21.8 1.4 36.8-5.1 42.4-20.3 3-8.4 1.4-19.5 5.5-27.6 2.2-4.4 12.9-4.6 12.9-4.6h40.7c0 33.7-0.2 100.5-0.2 100.5l-264.4-0.1c0 0-1-26.9-0.9-27.6 0.5-5.5-0.2-18.6 3.7-21.2 2.8-2 6.7-1.6 10.1-2.7q2.5-0.9 4.7-2.3 2.2-1.3 4.1-3.1 1.9-1.8 3.4-3.9 1.5-2.2 2.5-4.6c9.3-28.5 4.5-102.2 4.5-102.2 0 0 3.7-78.3-0.8-107.7-3.6-23.8-23.1-16.1-27.6-24.9-5.5-10.6 0.5-34 0.9-44.2z"/>
		<path fill-rule="evenodd" class="b" d="m1430.1 368.7q1.5 8.1 1.9 16.5 0.3 8.3-0.7 16.5-1 8.3-3.2 16.3c-19.4 65.6-91.5 67.5-175.5 69.2-40.8 0.7-77.1-0.2-118.8 0-0.1-12.4-3.6-45.8 2.4-53.7 6.8-9.3 23.1-6.8 27.4-19.6 7.6-22.4 3.1-56.9 4.8-82.9 1.9-28.6-0.5-58-0.7-86.6q0.3-5.4 0.4-10.9 0-5.4-0.2-10.8-0.3-5.4-0.9-10.8-0.6-5.4-1.5-10.8c-4.7-16.7-22-11.8-27.9-20.9-5.8-9-1.7-26.3-1.3-37.4 38.5-0.3 80-0.8 111.5-0.8 77.2 0 133.8-15.8 163.5 46 2.2 5 4 10.2 5.3 15.6 1.4 5.3 2.2 10.7 2.6 16.2 0.3 5.5 0.2 11-0.4 16.5-0.6 5.4-1.7 10.8-3.2 16.1-9.8 28.6-33.2 40.8-63.2 49.4 34.2 8.1 60.3 21.4 73.3 50.9 1.9 5.2 3.3 10.5 4.4 16zm-171-95.6c3.6 5.8 17.4 6.6 27.7 5.3 55.8-6.9 54.4-103.6-11-94.8q-2.1 0.3-4.2 1-2 0.7-3.9 1.8-1.9 1.1-3.6 2.5-1.6 1.4-2.9 3.2c-4.1 7-7.6 72.1-2.1 81zm9.7 57.9c-3.2 0.5-9.8 3.1-11 5.7-6.8 14.6-0.6 80.9 7.2 86.5 6.8 4.8 24.5 6.2 36.9 4.2 50-8 47.5-108.4-33.1-96.4z"/>
		<path class="b" d="m581.7 132.7q15.6-1.3 31.2-0.8 15.7 0.5 31.1 2.9 15.5 2.3 30.6 6.4 15.1 4.1 29.6 9.9c0 28.5-2.7 56.9-2.7 86.5-12.6 0-40.5 3.1-49.8-2.7-3.4-2.1-10.1-26.9-14.7-32.2-28.6-32.4-88-11.8-111.5 9.2-69.4 61.6-49.2 244 75.6 221 4.1-0.5 8.1-1.4 12-2.8q5.8-2.2 11.1-5.7c3.4-2.3 6.6-5 9.3-8.1q4.2-4.7 7.2-10.2c2.7-5.1 2.3-12 5.5-17.4 5.2-9.2 37.9-3.7 51.6-3.7 0 27.1-2.8 52.9-2.8 81.9-3.7 1.5-8.5 4.3-11.9 5.6q-17.5 5.6-35.4 9.2-18 3.7-36.3 5.2-18.2 1.5-36.5 0.9-18.4-0.7-36.5-3.4c-41.7-7.2-71.4-20.3-97.6-42.4-52.2-43.8-70.1-142.7-29.5-212.7 30.6-52.9 93-91 170.4-96.6z"/>
		<path class="b" d="m738.1 142.7c46.3 0 90.3-0.6 139.1-0.6 4.1 36.8 30.8 65.8 47 92.6q9.8 16.6 20.1 32.8 10.3 16.3 21 32.3 10.8 16 21.9 31.8 11.1 15.7 22.7 31.1c0-36.2 2.6-66.2 0-102.2-1.3-16.3 0.7-31.5-2.8-45.1-5.8-23-18.3-13.6-29.5-24-3.7-3.4-1.8-48.6-1.8-48.6l123.4-0.8c0 0 3.5 39.1-1.8 48.5-5.4 9.4-21.7 5.1-25.8 22.1-6.6 27-1.4 54.6-3.7 85.7-2.7 35.8-0.9 72.5-0.9 105.9 0 29.5-2.1 61.9 7.4 82.3-34.6 0-69.4 0.6-106.9 0.6-2.9-35.2-34.5-72.8-50.7-97.7-31.5-48.1-67-94.2-93.1-146.4 0 40.2-0.9 80.4-0.9 121.6q-0.3 6.1-0.4 12.2-0.1 6.1 0 12.2 0.1 6.1 0.4 12.2 0.4 6.1 0.9 12.2c3.7 23.2 26.1 15.5 31.4 26.7q0.3 5.8 0.5 11.7 0.1 5.8 0.1 11.6 0 5.9-0.1 11.7-0.2 5.9-0.5 11.7l-122.6 0.1c0 0-3.6-37 1-46.7 4.3-9.6 22.9-5.6 27.6-22.1 8.8-31.3 3.8-80 6.4-115.1 1.8-23.7 4.2-81.8-3.6-97.7-5.3-10.6-21.5-8.8-25.9-15.6-5.2-8.2-0.4-35.4 0-46.9"/>
		<path class="b" d="m1423.1 622.7c-0.5-0.3-1.9-1.2-3.1-1.8q-0.8-0.3-1.5-0.8-0.8-0.4-1.6-0.9-0.7-0.4-1.4-0.9-0.7-0.5-1.4-1.1-2.1-2.3-4.1-4.6-2-2.3-4-4.7-1.9-2.4-3.8-4.8-1.9-2.4-3.7-4.9-3.6-4.8-7.5-9.6l-1.2-1.5 2-0.8q0.9-0.4 1.9-0.9 1-0.5 2-1 0.9-0.6 1.9-1.1 0.9-0.6 1.8-1.2 0.9-0.5 1.8-1.1 0.9-0.6 1.8-1.1 1-0.5 1.9-1 1-0.5 1.9-0.9c0.8-0.4 2.4-0.8 4.8-1.6 2-0.7 5.3-1.6 6.3-2.1q0.3-1.1 0.4-2.2 0.2-1.2 0.2-2.3 0.1-1.1 0-2.2 0-1.2-0.2-2.3-0.1-1.2-0.2-2.2c-8.9 0.1-17.7 0-26.3 0-8.2 0-16.7-0.1-25.1 0 0 1 0 1.9-0.1 3.1q-0.2 1.1-0.3 2.2 0 1.1 0 2.2 0 1.1 0.2 2.2 0.1 1.1 0.4 2.1c0.3 0.6 1.4 1 2.5 1.4 1.6 0.5 3.5 1.2 3.9 2.8 0.4 1.6-1 3.1-2.1 4.1q-0.9 0.9-1.9 1.7-1 0.8-2 1.5-1 0.8-2.1 1.5-1 0.7-2.1 1.4l-3.7 2.4-3.1 2-3.2 2-0.1-3.2-0.3-13.2q-0.3-4.7-0.4-9.5-0.1-4.8 0-9.6 0-4.8 0.2-9.6 0.1-4.8 0.4-9.5c0.3-4.4 0.3-8.2 0.3-12q-0.1-1.7 0-3.5 0-1.8 0.1-3.6 0.1-1.7 0.2-3.5 0.2-1.8 0.4-3.5-0.5-0.2-0.9-0.4-0.5-0.2-0.9-0.4-0.4-0.2-0.9-0.4-0.4-0.1-0.9-0.3-0.4-0.1-0.9-0.2-0.7 0.2-1.5 0.4-0.7 0.2-1.4 0.5-0.7 0.3-1.4 0.6-0.7 0.4-1.4 0.8-0.4 0.2-0.8 0.4-0.4 0.3-0.8 0.5-0.4 0.2-0.8 0.4-0.4 0.1-0.9 0.3-2.2 0.8-4.5 1.5-2.3 0.7-4.6 1.3-2.3 0.6-4.7 1.1-2.3 0.5-4.6 0.9c-3 0.6-6.2 1.2-9.3 2 0 0.9-0.1 1.9-0.2 2.9q-0.1 1.1-0.2 2.1 0 1.1 0 2.2 0.1 1.1 0.2 2.1 0.1 1.1 0.4 2.1c0.1 0.4 1.2 0.7 2.3 1.1q1.6 0.3 3.1 1 1.4 0.8 2.6 2 1.2 1.2 1.9 2.7 0.7 1.5 1 3.1 0.5 4.4 0.7 8.9 0.3 4.5 0.3 8.9 0 4.5-0.2 9-0.2 4.4-0.6 8.9-0.1 1.7-0.2 3.5 0 1.7-0.1 3.5 0 1.7 0.1 3.5 0 1.7 0.1 3.4 0.1 2.4 0.1 4.8 0.1 2.4 0 4.8-0.2 2.4-0.4 4.8-0.2 2.4-0.6 4.8-0.1 1.4-0.7 2.6-0.6 1.2-1.5 2.3-0.9 1-2.1 1.6-1.2 0.7-2.6 0.9-0.4 0.1-0.8 0.3-0.3 0.1-0.7 0.3-0.4 0.2-0.7 0.5-0.3 0.2-0.6 0.5-0.4 1.4-0.7 2.8-0.2 1.3-0.3 2.8-0.1 1.4 0 2.8 0.1 1.4 0.3 2.8l50.1 0.1q0.2-1.3 0.3-2.7 0.1-1.4 0.1-2.9 0-1.4-0.1-2.8-0.1-1.4-0.3-2.7c-0.2-0.6-1.6-1.1-2.9-1.6-2.9-1-7.7-2.6-5.6-8.1 0.6-1.5 2.8-2.8 5.8-4.5 0.8-0.5 1.5-0.9 1.9-1.2 1.6-1.1 3-2.1 4.7-3.1l1.7-1.1 1.2 1.5c0.3 0.3 0.6 0.8 1.1 1.3 4.1 4.8 8.3 10.2 7 13.7q-0.2 0.4-0.5 0.7-0.3 0.3-0.6 0.6-0.3 0.3-0.7 0.5-0.4 0.2-0.8 0.4-0.1 0.1-0.3 0.1-0.1 0.1-0.3 0.2-0.1 0.1-0.3 0.2-0.1 0.2-0.3 0.3-0.2 1.4-0.3 2.8-0.1 1.4-0.2 2.9 0 1.4 0.1 2.8 0 1.4 0.2 2.9h49.7q0.2-1.5 0.3-2.9 0.1-1.5 0.1-3-0.1-1.5-0.2-3-0.2-1.5-0.4-3z"/>
		<path fill-rule="evenodd" class="b" d="m1066.1 597.3q0.6 2.5 0.7 5.2 0.1 2.6-0.3 5.2-0.4 2.7-1.2 5.2c-7.7 20.8-36.9 21.2-70.8 21.7-9.9 0.2-19.1 0.1-28.8 0.1h-18.4c0-0.6-0.1-1.3-0.1-2.1-0.3-3.7-0.7-11.6 0.7-13.2q0.5-0.3 1-0.7 0.5-0.3 1.1-0.5 0.5-0.3 1.1-0.5 0.6-0.1 1.1-0.3 1.2-0.1 2.2-0.5 1.1-0.5 2.1-1.1 0.9-0.6 1.7-1.5 0.8-0.8 1.4-1.8 0.7-2.2 1.2-4.5 0.4-2.3 0.7-4.7 0.2-2.3 0.3-4.7 0-2.3-0.2-4.7-0.1-1.1-0.1-2.3 0-1.2 0-2.3 0-1.2 0.1-2.4 0-1.1 0.1-2.3 0.2-2.4 0.2-4.8 0.1-2.4 0.1-4.9 0-2.4-0.1-4.8 0-2.4-0.2-4.8c-0.1-3.1-0.3-6.3-0.3-9.5q0-1.7 0-3.5 0.1-1.4 0.1-2.8 0-1.5-0.1-2.9-0.1-1.4-0.4-2.8-0.2-1.4-0.6-2.8-0.5-1.2-1.4-2.2-0.8-1-1.9-1.8-1.1-0.8-2.3-1.2-1.3-0.5-2.6-0.6-0.5-0.1-0.9-0.2-0.5-0.1-1-0.3-0.4-0.2-0.9-0.5-0.4-0.2-0.8-0.5c-1.4-1.8-0.9-5.4-0.5-8.3 0-0.6 0.1-1.1 0.1-1.7h5c14-0.1 28.5-0.2 39.3 0.1 7.1 0.2 13.6 0 19.9-0.2 21.5-0.5 37-0.9 46.1 14.2q1.3 2.3 2 4.8 0.8 2.5 1 5.1 0.2 2.6-0.1 5.2-0.4 2.6-1.3 5c-4 9.5-14.3 13-24.8 15.4l-7.3 1.6 7.4 1.5c15.8 3 24.5 7.8 28.9 15.9 0.8 1.6 1.4 3.2 1.8 5zm-70.6-31.2c2.6 3.4 11.7 2.7 13.5 2.5q2.5-0.1 4.9-0.9 2.4-0.7 4.6-2.1 2.1-1.3 3.9-3.1 1.7-1.9 2.9-4.1 1.3-2.2 1.7-4.7 0.5-2.6 0.2-5.1-0.4-2.5-1.5-4.9-1.1-2.3-2.8-4.1-1.9-1.8-4.1-3-2.3-1.3-4.8-2-2.4-0.7-5-0.9-2.6-0.1-5.1 0.3-1.1 0.1-2.1 0.4-1 0.3-2 0.7-1 0.5-1.9 1.1-0.8 0.6-1.6 1.4c-1.8 2.6-3.5 24.9-0.8 28.5zm26.5 49.9c2.1-1.1 3.9-2.7 5.3-4.5 1.4-1.9 2.5-4.1 3-6.4 0.5-2.2 0.6-4.6 0.1-6.9-1.6-8.5-10.3-17.6-29.4-15.3-1.3 0.1-5.2 1.1-6.1 2.8-2.8 4.8-0.8 28 3.6 30.6q2 0.7 4.1 1.2 2.1 0.5 4.2 0.7 2.1 0.2 4.3 0.2 2.1-0.1 4.2-0.4c2.3-0.2 4.6-0.9 6.7-2z"/>
		<path class="b" d="m1300.4 622.7q-0.4-0.3-0.7-0.5-0.4-0.2-0.8-0.4-0.4-0.2-0.8-0.3-0.5-0.1-0.9-0.1c-2.5-0.6-6.1-1.4-6.8-6.2q-0.2-2.4-0.4-4.9-0.1-2.4-0.1-4.8 0-2.4 0.1-4.8 0.2-2.4 0.4-4.8c0.9-12.2 1.7-23.7-7.6-29.4-16.2-10-42.6-2.1-55.6 5.2l-3.2 1.8v-3.1c0-0.8 0-1.6 0.1-2.5 0.2-5.2-0.1-7.7-2.4-7.8q-0.6 0.2-1.3 0.3-0.6 0.2-1.3 0.5-0.6 0.2-1.2 0.5-0.7 0.3-1.2 0.7-0.4 0.1-0.7 0.3-0.4 0.2-0.7 0.3-0.3 0.2-0.7 0.3-0.3 0.2-0.7 0.3c-5.1 1.8-10.4 3.3-15.5 4.7-3.4 1.1-7 2.1-10.5 3.2 0 0.8 0 1.6-0.1 2.5q-0.2 1.1-0.3 2.3 0 1.2 0.1 2.4 0.1 1.1 0.3 2.3 0.2 1.2 0.6 2.3 0.3 0.1 0.6 0.2 0.3 0 0.6 0.1 0.3 0.1 0.6 0.1 0.3 0.1 0.6 0.1 0.5 0.1 1 0.2 0.6 0.1 1.1 0.2 0.5 0.2 0.9 0.4 0.5 0.2 1 0.4c1.3 0.9 5.5 3.5 3.8 22.2l-0.2 1.5c-0.3 4.7-0.7 11.2-6.4 13q-0.3 0.1-0.7 0.1-0.3 0.1-0.6 0.2-0.3 0-0.6 0.1-0.3 0-0.7 0.1-0.2 0-0.4 0-0.2 0-0.5 0.1-0.2 0-0.4 0.1-0.2 0-0.4 0.1-0.4 1.5-0.6 3-0.2 1.6-0.2 3.1-0.1 1.6 0 3.1 0.1 1.5 0.4 3.1h49.3q0-0.1 0-0.2 0.1 0 0.1-0.1 0.1-0.1 0.1-0.2 0.1-0.1 0.1-0.2c0.1-1 0.2-2.1 0.3-3.4q0.2-0.9 0.3-1.9 0.1-1 0.1-1.9 0-1-0.1-1.9-0.2-1-0.4-1.9-0.3-0.2-0.6-0.4-0.4-0.2-0.7-0.3-0.4-0.1-0.7-0.2-0.4-0.1-0.7-0.2-0.8-0.1-1.6-0.3-0.8-0.3-1.5-0.6-0.7-0.4-1.4-0.9-0.6-0.5-1.1-1.1-1.2-4-1.7-8.1-0.6-4-0.6-8.2 0-4.1 0.5-8.2 0.6-4.1 1.7-8.1 0.6-0.7 1.2-1.4 0.7-0.6 1.4-1.2 0.7-0.6 1.5-1.1 0.8-0.5 1.7-0.9 1.9-0.8 4-1.3 2-0.4 4.1-0.5 2.1-0.1 4.2 0.1 2.1 0.3 4.1 0.9 1.3 0.2 2.5 0.8 1.2 0.5 2.3 1.3 1 0.7 1.9 1.7 0.9 1 1.5 2.1c2.4 5.4 2.4 28.2-1.4 32.6q-0.5 0.4-1 0.8-0.5 0.3-1.1 0.6-0.6 0.3-1.2 0.5-0.6 0.2-1.2 0.3c-1.3 0.4-2.6 0.7-2.8 1.3q-0.3 1.4-0.5 2.9-0.1 1.4-0.2 2.9-0.1 1.5 0 3 0.1 1.5 0.2 2.9h50.6q0.4-1.5 0.6-3 0.2-1.4 0.1-2.9 0-1.5-0.2-3-0.3-1.5-0.7-2.9z"/>
		<path fill-rule="evenodd" class="b" d="m1175.3 629.8c-0.1 0.9-0.1 1.5-0.1 2.3-7.9 0.9-15.8 2.3-25.3 4.4q-0.4 0.1-0.8 0.2-0.4 0.1-0.7 0.2-0.4 0.1-0.8 0.3-0.4 0.1-0.7 0.2-0.6 0.2-1.1 0.4-0.5 0.2-1.1 0.3-0.5 0.2-1 0.3-0.6 0.1-1.1 0.2c-1.8-0.2-3-2.2-3.6-6.3l-0.3-2.5-2.7 1.4q-4.9 2.3-10.1 3.8-5.1 1.5-10.5 2.1-5.3 0.6-10.7 0.4-5.3-0.2-10.6-1.3-2.5-0.5-4.9-1.5-2.4-1.1-4.4-2.7-2-1.6-3.6-3.7-1.5-2-2.5-4.4-0.9-1.9-1.2-4-0.4-2.1-0.3-4.2 0.2-2.1 0.9-4.1 0.7-2 1.8-3.8c5.6-7.4 19.4-9.9 32.9-12.3 5.9-1.1 11.5-2.1 16.5-3.6 3.1-0.9 6.8-2.3 7.8-5.7q0.4-1.1 0.3-2.2 0-1.2-0.4-2.2-0.5-1.1-1.2-2-0.8-0.8-1.9-1.3-2.9-1.2-6.1-1.8-3.1-0.7-6.3-0.7-3.2 0-6.4 0.6-3.1 0.6-6.1 1.7-0.9 0.5-1.7 1-0.9 0.6-1.6 1.3-0.7 0.7-1.3 1.5-0.6 0.8-1.1 1.7-0.2 0.3-0.4 0.7-0.2 0.3-0.5 0.6-0.2 0.4-0.5 0.7-0.2 0.3-0.5 0.6c-0.8 1-4 0.8-6.2 0.6h-0.7c-2.1-0.2-4.1-0.1-6-0.1-1.7 0-3.3-0.1-4.8-0.2l-0.1-5.1q0-1.5 0-3.1 0-1.5 0-3 0.1-1.6 0.2-3.1 0.1-1.5 0.2-3 2.9-0.7 5.8-1.4 3-0.6 5.9-1.2 3-0.6 5.9-1 3-0.5 6-1 0.5 0 1 0 0.5-0.1 1-0.1 0.5 0 1 0 0.5 0 1 0 0.9 0.1 1.8 0.1 0.8 0 1.7-0.1 0.9-0.1 1.8-0.2 0.8-0.1 1.7-0.3 0 0 0.1-0.1 0.1 0 0.1 0 0.1-0.1 0.2-0.1 0 0 0.1-0.1c19.7-1.1 43.5 1 46.1 16.9q0.2 1.9 0.3 3.8 0.1 1.9 0.1 3.8 0 1.9-0.1 3.8-0.1 2-0.3 3.8-0.2 1.9-0.3 3.9-0.1 1.9-0.1 3.8 0 1.9 0.1 3.8 0.1 1.9 0.3 3.8c0.7 5.8 3.4 6.9 6.6 7.7q0.4 0 0.8 0.2 0.4 0.1 0.8 0.2 0.3 0.2 0.6 0.4 0.4 0.3 0.7 0.5c1.2 1.4 0.8 6.5 0.6 9.5zm-38.8-14.6q0.5-1.6 0.6-3.2 0.1-1.6-0.1-3.2-0.2-1.6-0.7-3.1c-0.1-0.7-0.2-1.3-0.3-1.7l-0.2-2-2.4 0.6c-1.2 0.3-2.8 0.7-4.4 1-8.2 1.7-20.6 4.4-17.9 13.1q0.5 1.2 1.4 2.2 0.8 1 1.9 1.8 1.2 0.7 2.4 1.1 1.3 0.4 2.6 0.4 2.1 0.3 4.2 0.3 2.1-0.1 4.2-0.6 2-0.5 3.9-1.5 1.9-0.9 3.5-2.2 0.9-1.5 1.3-3z"/>
		<path class="b" d="m891.4 621.4c-0.3-0.5-0.8-0.7-2.1-1.1q-1.6-0.2-2.9-1-1.4-0.7-2.4-1.9-1-1.2-1.5-2.7-0.5-1.4-0.5-3-0.4-4.1-0.6-8.2-0.3-4.1-0.4-8.2 0-4.1 0-8.2 0.1-4.1 0.3-8.2c0.2-4.7 0.3-9.7 0.3-14.4h0.2q-0.2-1.6-0.3-3.2-0.1-1.6-0.1-3.3-0.1-1.6-0.1-3.2 0-1.6 0.1-3.3c-0.1-6.6 0-16 0.6-22.6q0.2-1.5 0.4-3.3c0.6-4.4 1.4-10.5-0.8-12.6q-0.2-0.2-0.4-0.3-0.3-0.1-0.5-0.2-0.2-0.1-0.5-0.2-0.2 0-0.5 0-0.8 0.2-1.5 0.4-0.8 0.3-1.5 0.6-0.8 0.3-1.5 0.7-0.7 0.3-1.4 0.7-0.4 0.3-0.8 0.5-0.4 0.2-0.9 0.4-0.4 0.3-0.9 0.5-0.4 0.2-0.9 0.3-2.2 0.8-4.5 1.4-2.3 0.7-4.6 1.2-2.4 0.6-4.7 1-2.3 0.5-4.7 0.8c-3.3 0.6-6.7 1.2-10.1 2-0.1 0.8-0.1 1.5-0.1 2.3-0.3 3.2-0.7 8.5 0.5 9.8q0.3 0.2 0.7 0.4 0.3 0.2 0.6 0.3 0.4 0.1 0.8 0.2 0.3 0.1 0.7 0.2 1.1 0 2.1 0.4 1 0.4 1.8 1 0.9 0.6 1.6 1.4 0.7 0.8 1.2 1.7 0.6 4 1 8.1 0.4 4 0.5 8.1 0.1 4-0.1 8.1-0.1 4-0.6 8.1c-0.4 4.9-0.4 10.4-0.4 16.3q0.1 3.2 0.1 6.3-0.1 3.2-0.3 6.4-0.2 3.1-0.5 6.3-0.3 3.1-0.8 6.3-0.2 1.2-0.7 2.2-0.6 1.1-1.5 1.9-0.8 0.8-1.9 1.3-1.1 0.4-2.3 0.5-0.4 0-0.8 0.1-0.3 0.1-0.7 0.2-0.3 0.2-0.6 0.4-0.3 0.2-0.6 0.5-0.4 1.2-0.6 2.5-0.2 1.2-0.3 2.5-0.1 1.3 0 2.6 0.1 1.3 0.3 2.6c0.1 0.8 0.1 1.4 0.1 2.2l26.3-0.2 24.4-0.1c0-0.8 0.1-1.6 0.2-2.5q0.3-1.2 0.4-2.4 0.1-1.3 0.1-2.5-0.1-1.3-0.3-2.5-0.2-1.3-0.6-2.4z"/>
		<path class="b" d="m223.2 523.1q-0.1 1.7-0.1 3.4-0.1 1.7 0 3.3 0 1.7 0.2 3.4 0.1 1.7 0.3 3.4 0.5 0.3 1 0.5 0.5 0.2 1 0.4 0.5 0.2 1.1 0.4 0.5 0.1 1.1 0.2 1.4 0.1 2.8 0.6 1.4 0.6 2.5 1.6 1.2 0.9 2 2.2 0.7 1.2 1.1 2.7 0.3 1.2 0.5 2.3 0.2 1.2 0.4 2.4 0.1 1.2 0.1 2.4 0.1 1.2 0 2.4c0 1.8 0 3.8 0.2 5.7q0.2 2.8 0.4 5.6 0.1 2.8 0.1 5.6 0 2.8 0 5.6-0.1 2.8-0.2 5.6c-0.1 3.7-0.3 7.5-0.3 11.6v4.8l-3.6-3.8q-4.7-5.1-9.3-10.3-4.6-5.2-9.1-10.5-4.4-5.3-8.7-10.8-4.3-5.4-8.5-11c-1.6-2.1-3.4-4.3-5.4-6.5q-2.4-2.5-4.5-5.2-2.1-2.7-3.9-5.6-1.8-3-3.2-6.2-1.3-3.1-2.3-6.4l-28 0.1-26.2 0.1c0 0.7-0.1 1.3-0.2 2.2-0.5 3.4-1.2 9.3 0.1 10.9q0.4 0.2 0.8 0.4 0.3 0.2 0.8 0.3 0.4 0.2 0.8 0.3 0.4 0.1 0.9 0.2 1.1 0.1 2.1 0.5 1.1 0.3 2 0.8 1 0.6 1.8 1.3 0.9 0.7 1.6 1.5c4.1 6.7 1.8 32.1 1.7 33.2-0.4 4.1-0.4 8.7-0.4 13.6q0.2 3.1 0.2 6.2-0.1 3.2-0.4 6.3-0.3 3.1-0.8 6.2-0.6 3.1-1.3 6.2-0.6 1.1-1.5 2.1-0.8 1-1.9 1.8-1 0.8-2.2 1.3-1.3 0.5-2.5 0.7c-1.7 0.4-3.1 0.8-3.5 1.6q-0.4 1.6-0.6 3.3-0.2 1.6-0.2 3.3-0.1 1.7 0 3.3 0.2 1.7 0.4 3.3h47q0.1-1.6 0.2-3.3 0.1-1.6 0.1-3.3 0-1.6-0.1-3.3 0-1.6-0.1-3.3c-0.5-0.8-1.7-1.1-3.8-1.6-3.5-0.9-8.2-2-9.3-7.7q-0.3-1.4-0.4-2.9-0.1-1.5-0.2-3-0.1-1.5 0-3 0-1.5 0.1-3c0-1.5 0.1-3 0.1-4.5l0.1-20.4 0.2-19.9 3.9-0.7q3 4.6 6.2 9.1 3.2 4.5 6.6 8.9 3.4 4.3 7 8.6 3.5 4.2 7.2 8.3c3.8 4.4 7.7 9 11.4 13.5 1.2 1.5 2.7 3.2 4.3 5.1q2.9 2.7 5.4 5.8 2.5 3 4.6 6.4 2.1 3.3 3.8 6.9 1.6 3.6 2.8 7.4l21.4-0.1 18.5-0.1q-0.8-2.5-1.4-5.1-0.5-2.7-0.8-5.3-0.3-2.7-0.4-5.4 0-2.7 0.2-5.3l0.1-4.6-0.2-9.4q-0.1-3.2-0.1-6.4 0-3.3 0-6.5 0.1-3.2 0.2-6.4 0.2-3.2 0.4-6.5 0.1-1.4 0.2-2.8 0.1-1.5 0.1-2.9 0-1.4 0-2.9 0-1.4-0.1-2.8-0.2-2.2-0.2-4.4 0-2.1 0.2-4.3 0.2-2.1 0.5-4.3 0.4-2.1 0.9-4.2 0.5-1.2 1.2-2.2 0.8-1.1 1.8-1.9 1-0.8 2.2-1.3 1.1-0.5 2.4-0.7c1.7-0.5 2.8-0.9 3.3-1.6q0.4-1.7 0.7-3.4 0.2-1.7 0.3-3.5 0.1-1.7 0-3.4-0.1-1.7-0.4-3.4z"/>
		<path class="b" d="m718.7 622q-0.3-0.3-0.7-0.5-0.4-0.2-0.8-0.4-0.4-0.1-0.8-0.2-0.4-0.1-0.8-0.2c-2.6-0.5-6.1-1.3-6.8-6.2q-0.3-2.4-0.4-4.8-0.2-2.4-0.2-4.8 0-2.5 0.2-4.9 0.1-2.4 0.4-4.8c0.8-12.2 1.6-23.6-7.7-29.4-16.1-9.9-42.6-2-55.6 5.3l-3.1 1.8v-3.1c0-0.8 0-1.6 0-2.5 0.3-5.2 0-7.7-2.4-7.8q-0.6 0.1-1.3 0.3-0.6 0.2-1.3 0.4-0.6 0.3-1.2 0.6-0.7 0.3-1.2 0.7-0.4 0.1-0.7 0.3-0.4 0.2-0.7 0.3-0.4 0.2-0.7 0.3-0.4 0.2-0.7 0.3c-5 1.8-10.3 3.3-15.5 4.7-3.4 1-7 2.1-10.5 3.2 0 0.8 0 1.6-0.1 2.5q-0.2 1.2-0.2 2.3-0.1 1.2 0 2.4 0.1 1.1 0.3 2.3 0.2 1.2 0.6 2.3 0.3 0.1 0.6 0.2 0.3 0 0.6 0.1 0.3 0.1 0.6 0.1 0.3 0.1 0.6 0.1 0.5 0.1 1 0.2 0.5 0.1 1 0.2 0.6 0.2 1 0.4 0.5 0.2 1 0.4c1.4 0.9 5.5 3.5 3.8 22.1l-0.1 1.6c-0.4 4.8-0.8 11.2-6.5 13q-0.3 0.1-0.7 0.1-0.3 0.1-0.6 0.2-0.3 0-0.6 0.1-0.4 0-0.7 0.1-0.2 0-0.4 0-0.2 0-0.5 0.1-0.2 0-0.4 0.1-0.2 0-0.4 0.1-0.4 1.5-0.6 3-0.2 1.6-0.2 3.1-0.1 1.6 0 3.1 0.2 1.5 0.4 3.1h49.3q0-0.1 0-0.2 0.1 0 0.1-0.1 0.1-0.1 0.1-0.2 0.1-0.1 0.2-0.2c0-1 0.1-2.1 0.2-3.4q0.2-0.9 0.3-1.9 0.1-0.9 0.1-1.9 0-1-0.1-1.9-0.1-1-0.4-1.9-0.3-0.2-0.6-0.4-0.3-0.1-0.7-0.3-0.3-0.1-0.7-0.2-0.4-0.1-0.7-0.2-0.8-0.1-1.6-0.3-0.8-0.3-1.5-0.6-0.7-0.4-1.4-0.9-0.6-0.5-1.1-1.1-1.2-4-1.7-8-0.6-4.1-0.6-8.3 0-4.1 0.6-8.2 0.5-4.1 1.7-8 0.5-0.8 1.2-1.5 0.6-0.6 1.4-1.2 0.7-0.6 1.5-1.1 0.8-0.5 1.6-0.9 2-0.8 4-1.3 2.1-0.4 4.2-0.5 2.1-0.1 4.2 0.1 2.1 0.3 4.1 0.9 1.3 0.2 2.5 0.8 1.2 0.5 2.2 1.3 1.1 0.7 1.9 1.7 0.9 1 1.6 2.1c2.3 5.4 2.4 28.2-1.4 32.6q-0.5 0.4-1.1 0.8-0.5 0.3-1.1 0.6-0.5 0.3-1.2 0.5-0.6 0.2-1.2 0.3c-1.2 0.4-2.6 0.7-2.8 1.3q-0.3 1.4-0.4 2.9-0.2 1.5-0.2 2.9-0.1 1.5 0 3 0 1.5 0.2 2.9h50.5q0.4-1.4 0.6-2.9 0.2-1.5 0.2-3-0.1-1.5-0.3-3-0.3-1.4-0.7-2.9"/>
		<path fill-rule="evenodd" class="b" d="m560.5 635.5c-31.2 4.6-47.3-6.2-54.1-13.1-2.5-2.3-4.6-5.1-6.2-8.1-1.6-3.1-2.7-6.4-3.3-9.8q-0.8-5.1 0-10.2c0.6-3.4 1.7-6.7 3.4-9.8 7.2-13.2 23.1-21.2 44.7-22.4 33.4-2 51.2 14.7 54 32.1 2.7 16.7-8.1 36.8-38.5 41.3zm-20.1-58.9c-2.3 0.1-4.6 0.7-6.6 1.8-2.1 1.1-3.9 2.6-5.3 4.4-1.4 1.9-2.4 4-2.9 6.3-0.5 2.2-0.5 4.6 0 6.8 1.6 13.3 12.8 27.2 27 26.6q2.2 0.1 4.4-0.4 2.2-0.5 4.2-1.5 2-1 3.6-2.5 1.7-1.5 2.9-3.4c1-2.4 1.7-5 2-7.7 0.2-2.6 0.1-5.3-0.5-7.9q-0.7-4.1-2.7-7.5c-1.3-2.4-3-4.5-4.9-6.3q-1.9-2.3-4.3-4.1-2.5-1.7-5.2-2.9-2.8-1.1-5.8-1.6-2.9-0.4-5.9-0.1z"/>
		<path fill-rule="evenodd" class="b" d="m828.6 629.1c-0.1 0.9-0.1 1.6-0.1 2.3-7.9 1-15.8 2.3-25.3 4.4q-0.4 0.1-0.8 0.2-0.4 0.1-0.8 0.2-0.3 0.1-0.7 0.3-0.4 0.1-0.8 0.2-0.5 0.3-1 0.4-0.5 0.2-1.1 0.4-0.5 0.1-1 0.2-0.6 0.1-1.1 0.2c-1.8-0.1-3-2.2-3.5-6.2l-0.4-2.6-2.7 1.4q-4.9 2.3-10 3.8-5.2 1.5-10.5 2.1-5.4 0.6-10.8 0.4-5.3-0.2-10.6-1.3-2.5-0.4-4.9-1.5-2.4-1.1-4.4-2.7-2-1.6-3.6-3.7-1.5-2-2.5-4.4-0.9-1.9-1.2-4-0.4-2.1-0.3-4.2 0.2-2.1 0.9-4.1 0.7-2 1.8-3.8c5.6-7.3 19.4-9.9 32.9-12.3 5.9-1.1 11.5-2.1 16.5-3.5 3.1-1 6.8-2.4 7.8-5.8q0.4-1.1 0.4-2.2-0.1-1.2-0.5-2.2-0.5-1.1-1.2-1.9-0.8-0.9-1.9-1.4-2.9-1.2-6.1-1.8-3.1-0.6-6.3-0.7-3.2 0-6.4 0.6-3.1 0.6-6.1 1.7-0.9 0.5-1.7 1-0.9 0.6-1.6 1.3-0.7 0.7-1.3 1.5-0.6 0.8-1.1 1.7-0.2 0.3-0.4 0.7-0.2 0.3-0.5 0.6-0.2 0.4-0.4 0.7-0.3 0.3-0.6 0.6c-0.8 1-4 0.8-6.2 0.7l-0.8-0.1c-2-0.1-4-0.1-5.9-0.1-1.7 0-3.3-0.1-4.8-0.1l-0.1-5.2q0-1.5 0-3.1 0-1.5 0-3 0.1-1.5 0.2-3.1 0.1-1.5 0.2-3 2.9-0.7 5.8-1.4 3-0.6 5.9-1.2 3-0.6 5.9-1.1 3-0.4 6-0.9 0.5 0 1 0 0.5-0.1 1-0.1 0.5 0 1 0 0.5 0 1 0 0.9 0.1 1.8 0.1 0.8 0 1.7-0.1 0.9-0.1 1.8-0.2 0.8-0.1 1.7-0.3c0.2-0.1 0.3-0.2 0.5-0.3 19.7-1.1 43.6 1 46.1 17q0.2 1.9 0.3 3.8 0.1 1.9 0.1 3.8 0 1.9-0.1 3.8-0.1 1.9-0.3 3.8-0.2 1.9-0.3 3.8-0.1 1.9-0.1 3.8 0 1.9 0.1 3.8 0.1 1.9 0.3 3.8-0.1 1.5 0.4 2.8 0.5 1.3 1.4 2.4 0.9 1 2.2 1.7 1.2 0.6 2.6 0.8 0.4 0.1 0.8 0.2 0.4 0.1 0.8 0.3 0.3 0.1 0.7 0.4 0.3 0.2 0.6 0.5c1.2 1.3 0.8 6.4 0.6 9.4zm-38.8-14.6q0.4-1.5 0.6-3.2 0.1-1.6-0.1-3.2-0.2-1.6-0.7-3.1c-0.1-0.7-0.2-1.2-0.3-1.7l-0.3-2-2.3 0.7c-1.3 0.3-2.8 0.6-4.4 0.9-8.2 1.8-20.6 4.4-17.9 13.2q0.5 1.2 1.4 2.2 0.8 1 1.9 1.7 1.1 0.7 2.4 1.1 1.3 0.4 2.6 0.4 2.1 0.4 4.2 0.3 2.1-0.1 4.2-0.6 2-0.5 3.9-1.4 1.9-1 3.6-2.3 0.7-1.4 1.2-3z"/>
		<path fill-rule="evenodd" class="b" d="m368.8 629.5c-0.1 0.8-0.2 1.5-0.2 2.2-7.8 1-15.7 2.4-25.3 4.4q-0.3 0.1-0.7 0.2-0.4 0.1-0.8 0.3-0.4 0.1-0.7 0.2-0.4 0.1-0.8 0.3-0.5 0.2-1 0.4-0.6 0.2-1.1 0.3-0.5 0.2-1.1 0.3-0.5 0.1-1.1 0.1c-1.8-0.1-2.9-2.1-3.5-6.2l-0.3-2.5-2.7 1.3q-4.9 2.3-10.1 3.8-5.1 1.5-10.5 2.2-5.3 0.6-10.7 0.4-5.3-0.3-10.6-1.3-2.6-0.5-4.9-1.5-2.4-1.1-4.4-2.7-2-1.7-3.6-3.7-1.5-2.1-2.5-4.5-0.9-1.9-1.3-4-0.3-2.1-0.2-4.2 0.2-2.1 0.9-4.1 0.6-2 1.8-3.7c5.6-7.4 19.4-10 32.8-12.4 6-1.1 11.6-2.1 16.6-3.6 3.1-0.9 6.8-2.3 7.8-5.7q0.4-1 0.3-2.2 0-1.2-0.4-2.2-0.5-1.1-1.3-2-0.7-0.8-1.8-1.3-2.9-1.2-6.1-1.8-3.1-0.6-6.3-0.7-3.2 0-6.4 0.6-3.1 0.6-6.1 1.8-0.9 0.4-1.8 0.9-0.8 0.6-1.5 1.3-0.7 0.7-1.3 1.5-0.6 0.8-1.1 1.7-0.2 0.3-0.4 0.7-0.2 0.3-0.5 0.7-0.2 0.3-0.5 0.6-0.2 0.4-0.5 0.7c-0.8 0.9-4 0.7-6.2 0.5h-0.7c-2.1-0.1-4-0.1-6-0.1-1.7 0-3.2-0.1-4.8-0.1v-5.2q-0.1-1.5-0.1-3 0-1.6 0-3.1 0.1-1.5 0.2-3.1 0.1-1.5 0.2-3 2.9-0.7 5.9-1.4 2.9-0.6 5.8-1.2 3-0.6 6-1 2.9-0.5 5.9-0.9 0.5-0.1 1-0.1 0.5-0.1 1-0.1 0.5 0 1 0 0.5 0 1 0 0.9 0.1 1.8 0.1 0.8 0 1.7-0.1 0.9 0 1.8-0.2 0.8-0.1 1.7-0.3c0.2-0.1 0.3-0.2 0.5-0.3 19.8-1.1 43.5 1 46.1 16.9q0.2 1.9 0.3 3.8 0.1 2 0.1 3.9 0 1.9-0.1 3.8-0.1 1.9-0.3 3.8-0.2 1.9-0.3 3.8-0.1 1.9-0.1 3.8 0 1.9 0.1 3.8 0.1 2 0.2 3.9 0 1.4 0.5 2.7 0.4 1.3 1.4 2.4 0.9 1.1 2.1 1.7 1.3 0.7 2.7 0.8 0.4 0.1 0.8 0.2 0.4 0.1 0.7 0.3 0.4 0.1 0.7 0.4 0.4 0.2 0.7 0.5c1.2 1.3 0.8 6.4 0.6 9.5zm-38.9-14.7q0.5-1.5 0.6-3.1 0.1-1.6 0-3.2-0.2-1.6-0.7-3.2-0.2-1-0.4-1.7l-0.2-2-2.4 0.7c-1.2 0.3-2.7 0.6-4.4 1-8.1 1.7-20.5 4.3-17.9 13.1q0.6 1.2 1.4 2.2 0.9 1 2 1.7 1.1 0.7 2.4 1.1 1.2 0.4 2.6 0.4 2 0.4 4.2 0.3 2.1 0 4.1-0.6 2.1-0.5 4-1.4 1.9-1 3.5-2.3 0.8-1.4 1.2-3z"/>
		<path class="b" d="m425.8 619.3q-0.5 0.2-1 0.4-0.5 0.2-1 0.4-0.5 0.1-1 0.2-0.6 0.2-1.1 0.2-1.2 0.3-2.4 0.3-1.3 0-2.5-0.4-1.2-0.3-2.3-0.9-1-0.6-1.9-1.5c-3.8-4-3.7-15.3-3-29.5 0.1-3 0.3-5.9 0.3-8v-1.6h15.6c0.8-3.9 1.7-8.3 2.4-13-7.8 0-13.4-0.1-16.6-0.3l-1.9-0.1 0.1-1.6 0.2-4.6c0.3-4 0.5-8 0.5-11.9l-2.8-1-0.4-0.1q-3.3 2.6-6.4 5-3.2 2.8-6.5 5.3-3.4 2.5-6.9 4.8-3.4 2.4-7.1 4.5-3.6 2.1-7.3 4.1c-0.2 0.1-0.5 0.2-0.7 0.3q-0.2 0.9-0.3 1.7-0.1 0.8-0.1 1.7 0 0.8 0.1 1.6 0.1 0.9 0.2 1.7c0.1 0.7 0.1 1.2 0.2 1.8q0.6-0.1 1.2-0.1 0.5 0 1.1 0 0.6 0 1.2 0.1 0.6 0 1.2 0.1l1.5 0.4v0.5q0.2 0 0.5 0.2 0.2 0.1 0.4 0.2 0.2 0.2 0.4 0.4 0.2 0.2 0.4 0.4 0.6 1.9 0.9 3.8 0.4 2 0.5 4 0 2-0.2 4-0.2 2-0.7 3.9-0.2 1.7-0.3 2.8-0.6 3.5-0.8 7-0.1 3.6 0 7.1 0.2 3.5 0.8 7 0.5 3.5 1.4 6.9 0.8 1.7 2.1 3.1 1.2 1.5 2.7 2.6 1.5 1.1 3.2 1.9 1.8 0.8 3.6 1.1 4.6 0.8 9.2 0.8 4.6 0 9.1-0.7 4.6-0.7 9-2.1 4.3-1.5 8.4-3.6c-0.7-2.6-1.4-5.2-2.2-7.7q-0.5-1.8-1-3.6z"/>
		<path class="b" d="m490.9 620.9q-0.3-0.1-0.6-0.2-0.3-0.1-0.7-0.2-0.3-0.1-0.6-0.2-0.3-0.1-0.6-0.2-0.8-0.2-1.6-0.5-0.8-0.3-1.5-0.7-0.8-0.5-1.4-1-0.6-0.6-1.1-1.3c-4.1-6.6-2.4-24.6-1.5-34.2l0.2-1.1c0.2-3 0.3-6.1 0.3-9q0-1.3 0-2.7 0.1-1.4 0.2-2.7 0-1.4 0.2-2.8 0.1-1.3 0.3-2.7 0 0-0.1 0 0 0 0-0.1-0.1 0-0.1 0-0.1 0-0.1 0-0.4-0.3-0.7-0.5-0.4-0.2-0.7-0.4-0.4-0.2-0.8-0.3-0.4-0.2-0.8-0.3-0.6 0.1-1.3 0.3-0.6 0.2-1.2 0.4-0.6 0.3-1.3 0.5-0.6 0.3-1.2 0.6-0.4 0.2-0.8 0.4-0.4 0.2-0.9 0.4-0.4 0.2-0.8 0.3-0.4 0.2-0.9 0.4-3.4 1.1-6.9 2.1-3.5 0.9-7 1.8-3.6 0.9-7.1 1.7-3.6 0.8-7.1 1.4 0 1.5-0.3 3.3-0.2 1.2-0.3 2.3-0.1 1.1-0.1 2.3 0 1.1 0.2 2.2 0.1 1.2 0.3 2.3 0.4 0.1 0.7 0.2 0.3 0.2 0.7 0.2 0.3 0.1 0.7 0.2 0.3 0 0.7 0.1 0.6 0 1.3 0.1 0.7 0.2 1.3 0.4 0.6 0.2 1.2 0.5 0.6 0.3 1.1 0.7c4.1 3.8 2.5 24.5 2.4 24.7q0.1 1.7-0.4 3.3-0.5 1.6-1.4 3-0.9 1.4-2.2 2.5-1.4 1.1-2.9 1.7-0.3 0.1-0.6 0.2-0.3 0-0.5 0.1-0.3 0.1-0.6 0.1-0.3 0.1-0.6 0.1-0.2 0-0.4 0.1-0.2 0-0.4 0-0.2 0.1-0.4 0.2-0.2 0-0.4 0.1-0.2 1.3-0.3 2.7-0.1 1.4-0.2 2.7 0 1.4 0 2.8 0.1 1.3 0.2 2.7c0 0.8 0 1.4 0 1.9 11.1-0.1 22.8-0.1 34.2 0h16c0-0.8 0.1-1.6 0.1-2.6 0.2-3.1 0.5-9.6-0.9-10.3z"/>
		<path class="b" d="m442.8 545.5q0.1-0.8 0.3-1.6 0.2-0.9 0.7-1.6 0.4-0.8 0.9-1.4 0.6-0.6 1.3-1.1c1.9-1.3 4-2.3 6.2-2.9 2.3-0.7 4.6-1 6.9-1 2.3 0 4.6 0.3 6.8 1 2.2 0.6 4.3 1.6 6.2 2.9q0.7 0.5 1.3 1.1 0.6 0.6 1 1.4 0.4 0.7 0.6 1.6 0.3 0.8 0.3 1.6c0 5.3-7.3 9.7-16.3 9.7q-1.7 0-3.4-0.2-1.8-0.2-3.4-0.8-1.7-0.5-3.2-1.2-1.6-0.8-3-1.8-0.7-0.5-1.3-1.1-0.6-0.6-1-1.4-0.4-0.7-0.6-1.5-0.3-0.9-0.3-1.7z"/>
	</g>
</svg>