<?xml version="1.0" ?>
<svg xmlns="http://www.w3.org/2000/svg"  viewBox="0 0 1280.8 313.8">
	<style type="text/css">
		.st32{fill:#DF110C;}
	</style>
	<path class="st32" d="M 1121.9,144.0 L 1121.9,153.4 L 1163.7,153.4 L 1163.7,134.6 L 1121.9,134.6 L 1121.9,144.0 M 1128.2,143.0 L 1128.2,148.9 L 1131.5,148.9 L 1131.5,150.9 L 1128.8,150.9 L 1126.1,150.9 L 1126.1,144.0 L 1126.1,137.1 L 1128.3,137.1 L 1128.2,143.0 L 1128.2,143.0 M 1140.2,138.1 L 1140.2,139.1 L 1136.8,139.1 L 1136.8,142.7 L 1139.3,142.7 L 1139.3,144.7 L 1136.8,144.7 L 1136.8,148.8 L 1138.5,148.8 L 1140.2,148.8 L 1140.2,150.9 L 1134.6,150.9 L 1134.6,144.0 L 1134.6,137.1 L 1140.2,137.1 L 1140.2,138.1 L 1140.2,138.1 M 1148.8,144.0 C 1149.4,147.8 1149.9,150.9 1149.9,150.9 C 1149.9,151.0 1149.8,151.0 1148.8,151.0 L 1147.7,151.0 L 1147.5,149.5 C 1147.4,148.7 1147.3,148.0 1147.3,148.0 C 1147.3,148.0 1146.8,148.0 1146.2,148.0 L 1145.1,148.0 L 1145.0,148.4 C 1145.0,148.6 1144.9,149.3 1144.8,149.9 L 1144.6,151.0 L 1143.5,151.0 C 1142.5,151.0 1142.4,151.0 1142.4,150.9 C 1142.4,150.9 1142.9,147.8 1143.5,144.0 C 1144.1,140.3 1144.6,137.2 1144.6,137.2 C 1144.6,137.2 1145.2,137.2 1146.0,137.2 L 1147.4,137.2 L 1148.8,144.0 L 1148.8,144.0 M 1158.1,137.3 C 1158.8,137.5 1159.2,137.8 1159.6,138.2 C 1159.7,138.4 1160.0,138.9 1160.1,139.2 C 1160.3,139.9 1160.3,140.0 1160.3,144.0 C 1160.3,146.5 1160.3,147.8 1160.3,148.0 C 1160.1,149.5 1159.5,150.4 1158.3,150.7 C 1157.8,150.8 1157.4,150.9 1155.6,150.9 L 1153.9,150.9 L 1153.9,137.1 L 1155.8,137.1 L 1157.7,137.1 L 1158.1,137.3 L 1158.1,137.3"/>
	<path class="st32" d="M 1146.2,140.3 C 1146.2,140.4 1145.5,145.8 1145.5,145.9 C 1145.5,145.9 1145.7,146.0 1146.3,146.0 C 1147.0,146.0 1147.1,146.0 1147.1,145.9 C 1147.1,145.9 1146.9,144.6 1146.8,143.1 C 1146.4,141.1 1146.3,140.3 1146.2,140.3 C 1146.2,140.2 1146.2,140.3 1146.2,140.3 M 1155.9,144.0 L 1155.9,148.8 L 1156.6,148.8 C 1157.4,148.8 1157.5,148.8 1157.8,148.5 C 1157.9,148.4 1158.0,148.3 1158.0,148.1 L 1158.1,147.9 L 1158.1,144.1 C 1158.1,140.1 1158.1,140.1 1157.9,139.7 C 1157.7,139.2 1157.1,139.0 1156.3,139.0 L 1156.0,139.0 L 1156.0,144.0 L 1155.9,144.0"/>
	<path d="M 1178.8,136.7 C 1177.2,136.9 1176.2,137.9 1176.0,139.6 C 1176.0,139.8 1176.0,141.2 1176.0,144.1 C 1176.0,148.2 1176.0,148.3 1176.1,148.7 C 1176.3,149.6 1176.5,150.0 1177.0,150.5 C 1177.3,150.8 1177.4,150.9 1177.7,151.0 C 1178.1,151.2 1178.4,151.3 1178.9,151.3 C 1179.9,151.4 1180.8,151.2 1181.5,150.6 C 1182.1,150.1 1182.4,149.5 1182.6,148.6 C 1182.7,148.2 1182.7,148.1 1182.7,144.2 C 1182.7,141.4 1182.7,140.0 1182.7,139.7 C 1182.6,138.4 1182.0,137.5 1181.0,137.0 C 1180.5,136.8 1180.2,136.7 1179.5,136.7 C 1179.1,136.7 1178.8,136.7 1178.8,136.7 L 1178.8,136.7 M 1179.7,138.7 C 1180.1,138.8 1180.3,139.2 1180.4,139.7 C 1180.4,139.9 1180.4,141.5 1180.4,144.1 C 1180.4,148.5 1180.4,148.6 1180.2,148.9 C 1180.0,149.3 1179.7,149.4 1179.2,149.4 C 1178.6,149.4 1178.3,149.1 1178.2,148.5 C 1178.2,148.4 1178.2,147.2 1178.2,143.9 C 1178.2,139.5 1178.2,139.5 1178.3,139.3 C 1178.4,139.0 1178.6,138.8 1178.9,138.7 C 1179.0,138.6 1179.5,138.6 1179.7,138.7 L 1179.7,138.7 M 1236.2,136.7 C 1235.5,136.8 1234.8,137.1 1234.4,137.6 C 1234.1,137.9 1233.9,138.2 1233.8,138.6 C 1233.5,139.3 1233.6,139.2 1233.6,143.8 C 1233.6,148.5 1233.6,148.4 1233.9,149.2 C 1234.1,149.7 1234.3,150.1 1234.7,150.4 C 1235.3,151.0 1236.0,151.2 1237.0,151.2 C 1238.8,151.2 1239.8,150.3 1240.2,148.6 C 1240.3,148.4 1240.3,148.1 1240.3,147.1 L 1240.3,145.9 L 1238.1,145.9 L 1238.1,147.1 C 1238.1,148.3 1238.1,148.3 1238.0,148.5 C 1237.9,148.8 1237.7,149.0 1237.5,149.1 C 1237.4,149.2 1237.3,149.2 1237.0,149.2 C 1236.7,149.2 1236.6,149.2 1236.4,149.1 C 1236.2,149.0 1236.0,148.7 1235.9,148.4 C 1235.8,148.2 1235.8,147.8 1235.8,143.8 C 1235.8,138.9 1235.8,139.2 1236.0,138.8 C 1236.2,138.6 1236.5,138.4 1236.8,138.4 C 1237.2,138.4 1237.4,138.5 1237.6,138.7 C 1237.9,139.0 1237.9,139.1 1237.9,140.3 L 1237.9,141.4 L 1240.1,141.4 L 1240.1,140.3 C 1240.1,139.3 1240.1,139.2 1240.0,138.8 C 1239.7,137.6 1238.9,136.8 1237.8,136.5 C 1237.5,136.7 1236.5,136.7 1236.2,136.7 L 1236.2,136.7 M 1220.1,136.8 C 1219.6,136.9 1219.0,137.1 1218.6,137.4 C 1218.3,137.6 1217.9,138.0 1217.7,138.3 C 1217.0,139.4 1216.9,140.9 1217.5,142.1 C 1217.9,142.9 1218.3,143.3 1219.7,144.8 C 1221.2,146.3 1221.5,146.7 1221.7,147.4 C 1222.0,148.6 1221.4,149.4 1220.3,149.3 C 1219.5,149.2 1219.1,148.7 1219.0,147.5 C 1219.0,147.3 1218.9,147.2 1218.9,147.2 C 1218.8,147.2 1216.9,147.5 1216.9,147.5 C 1216.9,147.5 1216.9,147.7 1216.9,147.9 C 1217.1,149.4 1217.8,150.5 1218.9,151.0 C 1219.3,151.2 1219.7,151.3 1220.3,151.3 C 1220.9,151.3 1221.2,151.3 1221.6,151.1 C 1222.1,151.0 1222.4,150.7 1222.8,150.4 C 1223.3,150.0 1223.6,149.5 1223.7,148.8 C 1223.8,148.6 1223.8,148.4 1223.8,147.8 C 1223.8,146.7 1223.6,146.0 1223.0,145.2 C 1222.7,144.7 1222.3,144.3 1221.2,143.1 C 1219.9,141.7 1219.6,141.4 1219.3,140.7 C 1219.2,140.5 1219.2,140.3 1219.2,140.0 C 1219.2,139.6 1219.2,139.6 1219.3,139.4 C 1219.5,139.0 1219.9,138.7 1220.4,138.7 C 1220.9,138.7 1221.2,138.9 1221.4,139.4 C 1221.5,139.6 1221.6,140.1 1221.6,140.3 C 1221.6,140.4 1221.6,140.5 1221.7,140.4 C 1221.7,140.4 1222.2,140.3 1222.6,140.3 C 1223.8,140.1 1223.7,140.2 1223.7,140.0 C 1223.7,139.8 1223.6,139.1 1223.4,138.8 C 1223.2,138.3 1223.0,137.9 1222.6,137.5 C 1222.3,137.2 1222.2,137.1 1221.9,137.0 C 1221.7,136.9 1221.4,136.8 1221.3,136.8 C 1221.0,136.8 1220.5,136.7 1220.1,136.8 L 1220.1,136.8 M 1246.3,136.8 C 1245.8,136.9 1245.2,137.1 1244.8,137.3 C 1244.5,137.5 1244.1,137.9 1243.9,138.2 C 1243.5,138.8 1243.3,139.4 1243.3,140.1 C 1243.3,140.9 1243.4,141.5 1243.7,142.2 C 1244.1,142.9 1244.5,143.4 1246.0,145.0 C 1246.6,145.6 1247.2,146.2 1247.3,146.3 C 1247.7,146.9 1248.0,147.6 1247.9,148.1 C 1247.8,148.6 1247.6,148.9 1247.2,149.1 C 1247.0,149.2 1246.9,149.2 1246.6,149.2 C 1246.3,149.2 1246.2,149.2 1246.0,149.1 C 1245.8,149.0 1245.6,148.8 1245.4,148.5 C 1245.3,148.3 1245.2,147.7 1245.2,147.4 C 1245.2,147.1 1245.2,147.1 1244.1,147.3 C 1243.5,147.4 1243.1,147.5 1243.1,147.5 C 1243.1,147.6 1243.2,148.3 1243.3,148.7 C 1243.7,150.5 1245.1,151.5 1246.9,151.4 C 1249.1,151.3 1250.5,149.4 1250.0,146.9 C 1249.9,146.3 1249.6,145.6 1249.2,145.1 C 1248.9,144.7 1248.6,144.4 1247.5,143.2 C 1246.9,142.6 1246.3,141.9 1246.1,141.7 C 1245.7,141.1 1245.5,140.6 1245.5,139.9 C 1245.5,139.6 1245.5,139.5 1245.6,139.3 C 1245.8,138.8 1246.3,138.6 1246.9,138.7 C 1247.4,138.8 1247.7,139.2 1247.8,140.1 C 1247.8,140.5 1247.8,140.5 1247.9,140.4 C 1248.1,140.4 1249.8,140.1 1249.9,140.1 C 1250.0,140.1 1249.9,139.7 1249.8,139.2 C 1249.5,138.0 1248.8,137.1 1247.9,136.8 C 1247.4,136.8 1246.8,136.7 1246.3,136.8 L 1246.3,136.8 M 1167.1,144.0 L 1167.1,151.1 L 1169.3,151.1 L 1169.3,144.7 L 1171.8,144.7 L 1171.8,142.7 L 1169.3,142.7 L 1169.3,139.0 L 1172.8,139.0 L 1172.8,137.0 L 1167.1,137.0 L 1167.1,144.0 L 1167.1,144.0 M 1186.8,144.0 L 1186.8,151.1 L 1189.0,151.1 L 1189.0,145.2 L 1190.1,145.2 L 1190.2,145.6 C 1190.5,146.8 1191.4,151.0 1191.4,151.1 C 1191.4,151.1 1191.9,151.1 1192.5,151.1 C 1193.6,151.1 1193.6,151.1 1193.6,151.0 C 1193.6,151.0 1193.2,149.5 1192.8,147.7 L 1192.0,144.5 L 1192.3,144.2 C 1192.9,143.7 1193.1,143.1 1193.3,142.2 C 1193.4,141.8 1193.4,140.2 1193.3,139.8 C 1193.2,139.1 1193.0,138.6 1192.7,138.2 C 1192.3,137.6 1191.8,137.3 1191.1,137.1 C 1190.8,137.0 1190.7,137.0 1188.8,137.0 L 1186.8,137.0 L 1186.8,144.0 L 1186.8,144.0 M 1190.5,139.1 C 1190.7,139.2 1191.0,139.5 1191.1,139.8 C 1191.2,140.0 1191.2,140.2 1191.2,140.8 C 1191.2,142.2 1191.1,142.7 1190.5,143.0 C 1190.3,143.1 1190.2,143.1 1189.7,143.1 L 1189.0,143.1 L 1189.0,139.0 L 1189.7,139.0 C 1190.2,139.1 1190.4,139.1 1190.5,139.1 L 1190.5,139.1 M 1197.3,144.0 L 1197.3,151.1 L 1203.0,151.1 L 1203.0,149.0 L 1199.5,149.0 L 1199.5,144.8 L 1202.0,144.8 L 1202.0,142.8 L 1199.5,142.8 L 1199.5,139.0 L 1203.0,139.0 L 1203.0,137.0 L 1197.3,137.0 L 1197.3,144.0 L 1197.3,144.0 M 1206.7,144.0 L 1206.7,151.1 L 1208.7,151.1 L 1208.7,147.2 C 1208.7,144.1 1208.7,143.2 1208.6,142.9 C 1208.6,142.7 1208.5,142.4 1208.5,142.3 C 1208.5,142.1 1208.5,142.1 1208.6,142.4 C 1208.7,142.6 1209.3,144.6 1210.1,146.9 L 1211.5,151.0 L 1213.5,151.0 L 1213.5,137.0 L 1211.5,137.0 L 1211.5,141.2 C 1211.5,144.9 1211.5,145.5 1211.6,145.9 C 1211.6,146.1 1211.7,146.4 1211.7,146.4 C 1211.7,146.4 1211.7,146.5 1211.7,146.5 C 1211.7,146.5 1211.6,146.3 1211.6,146.1 C 1211.5,145.7 1210.8,143.5 1209.2,138.8 L 1208.6,137.1 L 1206.6,137.1 L 1206.6,144.0 L 1206.7,144.0 M 1227.4,144.0 L 1227.4,151.1 L 1229.6,151.1 L 1229.6,137.0 L 1227.4,137.0 L 1227.4,144.0 L 1227.4,144.0"/>
</svg>