<?xml version="1.0" encoding="UTF-8"?>
<svg xmlns="http://www.w3.org/2000/svg" id="Layer_2" data-name="Layer 2" viewBox="0 0 281.62 51.05"><defs><style> .cls-1 { fill: #00355a; } .cls-2 { fill: #07c; } </style></defs><g id="Layer_1-2" data-name="Layer 1"><g><path class="cls-2" d="m42.45,0c-3.68,0-7.11,1.65-9.42,4.52l-.27.33-.32-.27C28.9,1.63,24.4,0,19.79,0,8.87,0,0,8.87,0,19.79s8.87,19.78,19.79,19.78c9.19,0,17.31-6.5,19.3-15.46l.09-.42.41.11c.92.22,1.88.34,2.86.34,6.65,0,12.07-5.41,12.07-12.07S49.11,0,42.45,0Zm-11.59,31.48h-11.08c-6.45,0-11.7-5.25-11.7-11.7s5.25-11.7,11.7-11.7,11.7,5.25,11.7,11.7c0,3.38-1.44,6.43-3.74,8.56l3.12,3.13Zm11.6-13.06h-6.02l1.69-1.7c-1.25-1.16-2.03-2.82-2.03-4.66,0-3.5,2.85-6.35,6.35-6.35s6.35,2.85,6.35,6.35-2.85,6.36-6.35,6.36Z"/><g><rect class="cls-1" x="59.28" y="8.22" width="5.29" height="31.39"/><path class="cls-1" d="m87.89,28.48c-.07-3.33-1-5.98-2.76-7.9-1.85-2.03-4.39-3.06-7.55-3.06s-5.69,1.06-7.6,3.15c-1.89,2.1-2.84,4.89-2.84,8.26s.99,6.2,2.92,8.29c1.97,2.06,4.58,3.11,7.78,3.11,1.12,0,2.16-.12,3.12-.36.97-.23,1.88-.62,2.7-1.13.82-.5,1.6-1.16,2.32-1.95.59-.64,1.18-1.42,1.75-2.32l-4.71-2.61c-.81,1.22-1.56,2.09-2.22,2.57-.71.53-1.64.8-2.78.8-1.45,0-2.65-.48-3.56-1.41-.83-.86-1.34-2-1.52-3.4l-.02-.13h14.96l.03-1.48v-.04c0-.12,0-.26,0-.39Zm-15.48-2.04l.11-.43c.17-.63.41-1.21.73-1.71.3-.49.69-.91,1.17-1.3.45-.36.96-.64,1.51-.83.56-.19,1.15-.29,1.77-.29,2.74,0,4.49,1.39,5.2,4.13l.12.43h-10.6Z"/><path class="cls-1" d="m106.01,18.22v2.1c-1.88-1.78-4.01-2.69-6.33-2.69-2.88,0-5.31,1.08-7.22,3.21-1.91,2.13-2.87,4.82-2.87,8s.96,5.98,2.87,8.15c1.93,2.13,4.4,3.21,7.35,3.21,2.19,0,4.27-.85,6.2-2.51v1.9h5.31v-21.39h-5.31Zm-1.3,15.44c-1.05,1.17-2.45,1.77-4.17,1.77-1.6,0-2.95-.62-4-1.84-1.03-1.21-1.55-2.81-1.55-4.75,0-1.81.53-3.35,1.59-4.58,1.07-1.2,2.42-1.81,4-1.81,1.69,0,3.08.61,4.13,1.8,1.06,1.22,1.6,2.81,1.6,4.7s-.54,3.48-1.6,4.71Z"/><path class="cls-1" d="m128.26,19.03l-2.43,4.86-.22-.15c-.87-.63-1.73-.95-2.55-.95-2.51,0-3.73,1.88-3.73,5.75v11.08h-5.29v-21.39h5.29v1.54c.75-.74,1.43-1.25,2.04-1.56.73-.37,1.6-.56,2.59-.56,1.31,0,2.7.43,4.12,1.28l.18.11Z"/><path class="cls-1" d="m147.65,26.55v13.06h-5.32v-11.91c0-2-.28-3.39-.82-4.14-.51-.74-1.47-1.11-2.87-1.11-1.54,0-2.59.49-3.22,1.49-.63,1-.96,2.8-.96,5.35v10.31h-5.31v-21.39h5.31v1.64c1.64-1.47,3.48-2.22,5.49-2.22,2.49,0,4.47.8,5.87,2.37,1.21,1.34,1.82,3.55,1.82,6.54Z"/><g><path class="cls-1" d="m156.4,11.55c0,.93-.33,1.73-.99,2.4-.64.66-1.44.99-2.37.99s-1.74-.33-2.4-.99-1-1.47-1-2.42.33-1.7,1-2.36c.66-.66,1.46-.99,2.37-.99s1.74.33,2.4.99c.66.64.99,1.44.99,2.38Z"/><rect class="cls-1" x="150.37" y="18.22" width="5.29" height="21.39"/></g><path class="cls-1" d="m176.91,26.55v13.06h-5.32v-11.91c0-2-.28-3.39-.82-4.14-.51-.74-1.47-1.11-2.87-1.11-1.54,0-2.59.49-3.22,1.49-.63,1-.96,2.8-.96,5.35v10.31h-5.31v-21.39h5.31v1.64c1.64-1.47,3.48-2.22,5.49-2.22,2.49,0,4.47.8,5.87,2.38,1.21,1.34,1.82,3.54,1.82,6.53Z"/><path class="cls-1" d="m195.04,18.22v2.02c-1.72-1.72-3.85-2.6-6.35-2.6-3.07,0-5.57,1.17-7.45,3.48-1.72,2.17-2.61,4.83-2.61,7.92s.95,5.87,2.81,8c1.86,2.1,4.27,3.17,7.18,3.17,2.39,0,4.55-.89,6.41-2.63v2.38c0,4.21-1.66,6.26-5.08,6.26-1.84,0-3.25-.63-4.21-1.87-.4-.53-.7-1.3-.88-2.29l-.03-.19h-5.3l.03.25c.29,2.78,1.4,5,3.3,6.59,1.84,1.54,4.21,2.32,7.04,2.32,3.37,0,6.05-1.13,7.97-3.34,1.03-1.16,1.72-2.56,2.07-4.17.12-.59.21-1.27.28-2.02.06-.75.1-1.64.1-2.63v-20.66h-5.29Zm-1.24,15.28c-1.02,1.28-2.44,1.93-4.21,1.93s-3.16-.65-4.16-1.91c-.92-1.17-1.39-2.7-1.39-4.54s.47-3.41,1.39-4.58c1.01-1.3,2.41-1.95,4.16-1.95,1.64,0,3.01.61,4.07,1.8,1.04,1.17,1.57,2.75,1.57,4.72,0,1.84-.48,3.36-1.43,4.53Z"/><path class="cls-1" d="m221.89,20.9c-1.89-2.17-4.35-3.26-7.28-3.26-2.31,0-4.41.86-6.26,2.55v-1.97h-5.29v32.78h5.29v-13.43c1.88,1.75,4.01,2.64,6.35,2.64,2.89,0,5.32-1.08,7.22-3.2,1.9-2.12,2.87-4.82,2.87-8s-.98-5.98-2.9-8.12Zm-12.23,3.33c1.05-1.17,2.45-1.77,4.15-1.77,1.6,0,2.95.62,4,1.84,1.04,1.21,1.58,2.81,1.58,4.75,0,1.83-.54,3.37-1.62,4.58-1.04,1.2-2.38,1.81-3.98,1.81-1.7,0-3.08-.61-4.12-1.8-1.07-1.22-1.6-2.81-1.6-4.7s.53-3.53,1.59-4.71Z"/><path class="cls-1" d="m245.94,20.91c-2.21-2.17-4.94-3.27-8.11-3.27s-5.87,1.09-8.07,3.25c-2.19,2.15-3.31,4.81-3.31,7.88,0,3.26,1.09,6.01,3.25,8.16,2.15,2.19,4.86,3.29,8.05,3.29s5.96-1.08,8.18-3.23c2.19-2.15,3.31-4.86,3.31-8.05s-1.11-5.86-3.29-8.03Zm-3.74,12.77c-1.08,1.17-2.55,1.76-4.37,1.76s-3.27-.6-4.36-1.78c-1.08-1.17-1.62-2.78-1.62-4.81,0-1.88.56-3.43,1.66-4.61,1.09-1.18,2.55-1.78,4.32-1.78s3.27.6,4.37,1.78c1.08,1.17,1.64,2.76,1.64,4.72s-.55,3.55-1.64,4.73Z"/><path class="cls-1" d="m270.4,20.91c-2.22-2.17-4.95-3.27-8.12-3.27s-5.87,1.09-8.06,3.25c-2.2,2.15-3.32,4.81-3.32,7.88,0,3.26,1.09,6.01,3.25,8.16,2.15,2.19,4.86,3.29,8.05,3.29s5.96-1.08,8.18-3.23c2.2-2.15,3.31-4.86,3.31-8.05s-1.1-5.86-3.29-8.03Zm-3.75,12.77c-1.08,1.17-2.55,1.76-4.37,1.76s-3.27-.6-4.36-1.78c-1.08-1.17-1.62-2.78-1.62-4.81,0-1.88.56-3.43,1.66-4.61,1.09-1.18,2.55-1.78,4.32-1.78s3.28.6,4.37,1.78c1.08,1.17,1.64,2.76,1.64,4.72s-.55,3.55-1.64,4.73Z"/><rect class="cls-1" x="276.33" y="8.22" width="5.29" height="31.39"/></g></g></g></svg>