<svg xmlns="http://www.w3.org/2000/svg" id="Layer_1" data-name="Layer 1" viewBox="0 0 145.954 56.4"><defs><style>.cls-1{fill:#595194}</style></defs><g id="Layer_2" data-name="Layer 2"><g id="Layer_1-2" data-name="Layer 1-2"><path d="M60.3 23.1V0h2.1v21.2H74v1.9ZM77.6 15.5c0 3.4 1.6 6.3 5.5 6.3a4.716 4.716 0 0 0 4.6-3.9h2a6.8 6.8 0 0 1-7.3 5.6c-4.8 0-7.1-4.2-7.1-8.5s2.4-8.5 7.2-8.5c5.4 0 7.4 3.9 7.4 9ZM88 13.8c-.2-3.1-1.9-5.5-5.2-5.5s-4.8 2.6-5 5.5ZM105.2 7h2c0 1.1-.1 2.4-.1 3.6v9.7c0 3.2.1 6.6-3.4 8.2a6.649 6.649 0 0 1-3.6.7c-3 0-6.3-1-6.3-4.3h2.1c.2 1.9 2.5 2.5 4.5 2.5a4.816 4.816 0 0 0 4.9-4.4v-3a6 6 0 0 1-5.2 3c-4.8 0-6.9-3.7-6.9-8.1s2-8.4 6.8-8.4a6.043 6.043 0 0 1 5.3 3Zm-5.3 1.2c-3.5 0-5 3.5-5 6.5s1.5 6.5 5 6.5c3.6 0 5.1-3.4 5.1-6.6s-1.6-6.3-5.1-6.4ZM120.5 11.8c-.2-2.6-1.5-3.5-3.8-3.5-2 0-3.7.6-3.9 2.8h-2c.5-3.3 3-4.5 6-4.5 3.6 0 5.8 1.6 5.7 5.3v7.6c0 1.2.1 2.5.1 3.6h-2v-2.4l-.1.2a5.991 5.991 0 0 1-5 2.6 4.949 4.949 0 0 1-2.1-9.6c2.1-.9 5-.6 7.3-.7Zm-4.8 10c4.2 0 5-3.5 4.8-6.8-2.7.1-8.4-.4-8.4 3.6a3.29 3.29 0 0 0 3.2 3.2ZM129.1 23.1h-1.9V0h1.9ZM63.2 48.2a3.812 3.812 0 0 0 3.1 4.4 2.428 2.428 0 0 0 1.2 0c2.7 0 4.4-1.2 4.4-3.2s-1.5-2.4-4.4-3.1c-5.5-1.4-8.5-3-8.5-7s2.7-7.2 9.2-7.2a8.771 8.771 0 0 1 7 2.7 6.639 6.639 0 0 1 1.3 4.3h-4.8a3.543 3.543 0 0 0-3.4-3.6h-.4c-2.3 0-3.8 1.2-3.8 3.1 0 2.1 1.7 2.5 5 3.4 4 .9 7.9 2 7.9 6.6 0 4.2-3.5 7.5-9.8 7.5-8.9 0-8.9-5.7-9-7.9ZM80.3 32.5h5v4.2h-5Zm.2 7h4.7v16.1h-4.7ZM89.7 42.8h-2.4v-3.4h2.4v-2.3c0-2.8.9-5.2 5.5-5.2.9 0 1.7.1 2.5.1v3.3a3.4 3.4 0 0 0-1-.1c-2.4 0-2.4 1.2-2.4 2.1v1.9h3v3.4h-3v12.8h-4.7l.1-12.6ZM110.8 55.3a11.415 11.415 0 0 1-3.7.5c-4.7 0-4.7-3-4.7-4.4v-8.8h-3.1v-3.2h3.1v-3.1l4.7-1.7v4.8h3.9v3.2h-4v7.3c0 1.5 0 2.4 2.1 2.4a8.6 8.6 0 0 0 1.6-.1ZM116.9 48.7c0 1 0 4.3 3.3 4.3a2.639 2.639 0 0 0 2.8-2.3h4.3a5.823 5.823 0 0 1-1.5 3.5 7.763 7.763 0 0 1-5.7 1.9 8.288 8.288 0 0 1-5.7-2 8.493 8.493 0 0 1-2.1-6.3 8.607 8.607 0 0 1 3.4-7.6 7.833 7.833 0 0 1 11.1 2.6 10.975 10.975 0 0 1 .9 5.9Zm5.9-3c0-.7 0-3.6-2.8-3.6-2.1 0-3 1.7-3.1 3.6ZM130.9 43.4c0-.8-.1-3.1-.2-4h4.4l.1 3.1c.6-1.4 1.7-3.4 5.5-3.1v4.3c-4.8-.4-5.1 2-5.1 4v7.9h-4.7ZM56 28.4a28 28 0 1 1-28-28 28.082 28.082 0 0 1 28 28Zm-22.3 7.7h8.2a3.418 3.418 0 1 0 0-2.4h-9.2l-8.2 9.6a3.418 3.418 0 1 0 2 4.4 3.65 3.65 0 0 0-.2-2.9Zm-2.8-9.2L17.8 11.6a3.354 3.354 0 1 0-4.5 1.5 2.989 2.989 0 0 0 2.9 0l11.7 13.6-13.3 15.6a3.418 3.418 0 1 0 2 4.4 3.666 3.666 0 0 0-.3-2.9Zm-10.4 0-8.4-9.7a2.335 2.335 0 0 0-1.2-2.9A2.5 2.5 0 0 0 8 15.6a2.335 2.335 0 0 0 1.2 2.9 1.8 1.8 0 0 0 1 .2l7.2 8.4-9.7 11.4a2.237 2.237 0 0 0-2.5 1.8A2.18 2.18 0 0 0 7 42.8 2.26 2.26 0 0 0 9.6 41v-1Zm27-1.2h-6.9l-9.7-11.2a3.64 3.64 0 0 0-1.3-4.7 3.64 3.64 0 0 0-4.7 1.3c-1 1.7 0 4 1.5 4.9a3.65 3.65 0 0 0 2.9.2l10.2 11.9h7.9a3.418 3.418 0 1 0 6.4-2.4 3.256 3.256 0 0 0-4.4-2 3.721 3.721 0 0 0-1.9 2" class="cls-1"/></g></g><path d="M142.081 41.234a1.937 1.937 0 1 1 1.936 1.956 1.938 1.938 0 0 1-1.936-1.956Zm3.586 0a1.534 1.534 0 0 0-1.578-1.666 1.59 1.59 0 0 0-1.721 1.594 1.707 1.707 0 0 0 1.721 1.738 1.534 1.534 0 0 0 1.578-1.666Zm-2.152 1.087h-.286V40h1c.5 0 .717.217.717.652s-.215.579-.574.652l.645 1.014h-.286l-.646-1.014h-.574v1.014Zm.5-1.232c.359 0 .646-.072.646-.434s-.144-.435-.5-.435h-.646v.869Z" class="cls-1"/></svg>