<?xml version="1.0" ?>
<svg xmlns="http://www.w3.org/2000/svg" viewBox="0 0 1552 500">
	<style>.a{fill:#009b63}.b{fill:#004ea2}.c{fill:#fff}</style>
	<path class="a" d="m116.4 499.7h1435.6v-107.1h-1552c0.7 68.4 50.8 106 116.4 107.1z"/>
	<path class="a" d="m503.6 367.7h-503.6v-367.7h367.6v239.8c0 79.3 59.5 123.6 136 123.9q0.4-0.1 0.8 0.1 0.3 0.1 0.6 0.4 0.3 0.2 0.5 0.5 0.1 0.4 0.2 0.8 0 0.4-0.1 0.8-0.2 0.4-0.5 0.7-0.3 0.3-0.6 0.5-0.4 0.2-0.9 0.2z"/>
	<path fill-rule="evenodd" class="b" d="m1552 319.1h-972.6c-67.2-0.2-119-38.5-119-108.6v-210.5h972.6c67.3 0 119 38.8 119 108.7zm-966.2-75.2c-4.4-1.8-8.4-4.4-11.7-7.7-3.4-3.4-6-7.4-7.8-11.7-1.8-4.4-2.6-9.1-2.5-13.8h138.5c1-66.2-39.9-112.6-107.2-112.6-58.9 0-103.5 36.7-103.5 97.8 0 61.1 45 94.5 103.5 94.5 42.4 0 87.9-14.9 100.8-59.8h-69.1c-1.3 2.4-2.9 4.7-4.8 6.7-1.9 2-4.1 3.8-6.5 5.2-2.4 1.4-5 2.4-7.7 3.1-2.7 0.7-5.4 1-8.2 0.9-4.7 0-9.4-0.8-13.8-2.6zm203.1-140.5h-71.9v181.8h72.2zm-71.9-74.9v55.9h71.9v-55.9zm213 0h-31c-46.3 0-71.3 10.3-71.3 74.9h-24.8v55.8h24v126h72.2v-126h30.1v-55.8h-30.4c-1.5-29.4 6.9-29.4 30.4-29.4zm336 145c0-43.6-5.3-75.4-91.5-75.4-48.9 0-77.6 10.2-90.6 28.7v-27.8c-3.1-0.1-15.4-0.9-18.5-0.9-28.2 0-45.9 13.6-56.6 42v-36.7h-65.7v181.7h72.3v-62.9c0-39.2 23.9-63.1 68.7-63.1h59.7c2.2-15.8 15.9-17.8 25.9-17.8 7.6 0 23.6 2 23.6 15 0 34.1-129.3-3.5-129.3 79.3 0 37.9 30.5 54.7 64.7 54.7 6.2 0.4 12.5 0.2 18.7-0.6 6.2-0.9 12.3-2.4 18.2-4.5 5.9-2.1 11.6-4.8 16.9-8.1 5.3-3.3 10.3-7.1 14.9-11.4v19.4h68.5v-26.6zm199.2 53.6c0-68.1-115.1-50.5-115.1-76.4 0-9 7.6-12.9 20.5-12.9q2-0.1 3.9 0.2 1.9 0.3 3.8 0.8 1.8 0.6 3.5 1.5 1.8 0.9 3.3 2 1.5 1.3 2.6 2.7 1.2 1.5 2.1 3.1 0.9 1.7 1.4 3.5 0.6 1.8 0.8 3.7h65.8c-4.4-48.2-52.5-57.3-90.5-57.3-38.1 0-86.3 13.6-86.3 60 0 70.5 111.4 47.4 111.4 76.4 0 12.9-11.7 16.5-22.7 16.5q-2.4 0-4.7-0.3-2.4-0.3-4.7-1.1-2.2-0.7-4.4-1.8-2.1-1.1-4-2.5-1.9-1.5-3.4-3.3-1.5-1.9-2.5-4.1-1-2.2-1.5-4.5-0.5-2.4-0.4-4.8h-68.8c3.9 48.9 49.7 61.8 91.5 61.8 66.7 0.1 98.1-25.6 98.4-63.2z"/>
	<path fill-rule="evenodd" class="b" d="m1139.9 234.3c0 9 8.6 15.2 22.9 15.2 25.9 0 33.8-19.7 32-44.7-23.6 11.4-54.9 5.8-54.9 29.5z"/>
	<path fill-rule="evenodd" class="b" d="m597.5 142.2c-4.4-0.6-8.8-0.1-13.1 1.2-4.2 1.4-8 3.7-11.2 6.7-3.3 3.1-5.8 6.8-7.4 10.9-1.6 4.1-2.3 8.5-2 12.9h65.5c-0.1-4.1-1-8.2-2.7-12-1.6-3.8-3.9-7.2-6.9-10.1-2.9-3-6.4-5.3-10.2-7-3.8-1.6-7.8-2.5-12-2.6z"/>
	<path class="c" d="m130.4 432.7c-2-5.8-4.4-8.3-8.6-8.3-4.1 0-6.2 2.6-6.2 6.8 0 9.1 25.9 9.7 25.9 28.7 0 2.5-0.5 4.9-1.4 7.2-1 2.2-2.5 4.3-4.4 5.9-1.8 1.6-4 2.8-6.3 3.6-2.4 0.7-4.9 0.9-7.3 0.5-2.4 0.1-4.8-0.3-7.1-1.1-2.2-0.8-4.3-2-6.1-3.6-1.8-1.6-3.4-3.4-4.5-5.5-1.2-2.2-1.9-4.5-2.2-6.8l11.5-2.4c1.2 7.3 5.6 9.9 8.9 9.9q1.5 0 2.8-0.5 1.4-0.5 2.4-1.6 1-1 1.6-2.4 0.5-1.3 0.4-2.8c0-11.5-25.8-11.6-25.8-28.4-0.2-2.4 0.2-4.8 1-7 0.9-2.2 2.2-4.2 4-5.8 1.7-1.7 3.8-2.9 6.1-3.6 2.2-0.8 4.6-1 7-0.7 2.2-0.1 4.3 0.2 6.4 0.9 2 0.7 4 1.7 5.7 3 1.7 1.4 3.1 3.1 4.2 4.9 1.1 1.9 1.8 4 2.2 6.1z"/>
	<path class="c" d="m154.2 476.2v-60.5h16.7c14.2 0 21.2 6.8 21.2 18.1 0 11.4-7 18.5-21.2 18.5h-5.4v24.3zm11.4-33.7h6.2c2.3 0 4.5-0.9 6.2-2.6 1.6-1.6 2.5-3.8 2.5-6.1 0-2.3-0.9-4.5-2.5-6.1-1.7-1.6-3.9-2.5-6.2-2.5h-6.2z"/>
	<path class="c" d="m201.2 435.1c0-14.8 7.7-20.3 18.9-20.3 11.3 0 19.2 5.5 19.2 20.3v21.7c0 14.9-7.8 20.3-19.2 20.3-11.4 0-18.9-5.4-18.9-20.3zm11.4 23.3c0 6.6 3 8.4 7.5 8.4 4.6 0 7.7-1.8 7.7-8.4v-24.8c0-6.6-3-8.4-7.7-8.4-4.6 0-7.5 1.8-7.5 8.4z"/>
	<path class="c" d="m277.9 476.2l-10-23.9h-5.5v24.6h-11.6v-61.2h16.8c14 0 20.6 6.8 20.6 18.1q0.2 2.5-0.3 4.8-0.5 2.4-1.7 4.5-1.3 2.1-3.1 3.7-1.9 1.6-4.1 2.5l11.4 26.9zm-15.6-34.2h6c2.2 0 4.4-0.9 5.9-2.5 1.6-1.6 2.5-3.7 2.5-5.9 0-2.3-0.9-4.4-2.5-6-1.5-1.5-3.7-2.4-5.9-2.4h-6z"/>
	<path class="c" d="m334.6 415.7v10.8h-13.7v50.2h-11.3v-50.2h-13.7v-10.2z"/>
	<path class="c" d="m369 432.7c-1.8-5.8-4.4-8.3-8.6-8.3q-1.3 0-2.5 0.5-1.2 0.5-2.1 1.5-0.9 1-1.3 2.3-0.4 1.2-0.3 2.5c0 9.1 25.9 9.7 25.9 28.7 0 2.5-0.4 4.9-1.4 7.2-1 2.2-2.5 4.2-4.3 5.8-1.8 1.7-4 2.9-6.3 3.6-2.4 0.7-4.8 0.9-7.3 0.6-2.4 0.1-4.7-0.3-7-1.1-2.2-0.8-4.3-2-6.1-3.6-1.8-1.6-3.3-3.5-4.5-5.6-1.1-2.1-1.8-4.4-2.1-6.7l11.3-2.4c1.3 7.3 5.7 9.9 9 9.9q1.4 0 2.8-0.5 1.4-0.5 2.5-1.5 1-1.1 1.5-2.4 0.6-1.4 0.5-2.9c0-11.5-25.8-11.6-25.8-28.4-0.2-2.4 0.2-4.7 1-6.9 0.9-2.2 2.2-4.2 4-5.8 1.7-1.7 3.7-2.9 6-3.6 2.2-0.8 4.6-1 6.9-0.8 2.2-0.1 4.4 0.2 6.4 0.9 2.1 0.7 4 1.7 5.7 3.1 1.7 1.3 3.1 3 4.2 4.8 1.1 1.9 1.9 4 2.2 6.1z"/>
	<path class="c" d="m459.6 448.4q-0.6 2-1.4 3.9-0.8 2-1.7 3.9-0.8 1.9-1.8 3.7-1 1.9-2 3.7 0.9 0.6 1.9 1.2 1 0.5 2.1 0.9 1 0.4 2.1 0.7 1.1 0.3 2.3 0.4v10.3q-2.2 0.1-4.3-0.3-2.1-0.4-4.1-1.2-2-0.8-3.8-2-1.7-1.2-3.2-2.8-1.5 1.5-3.3 2.7-1.7 1.1-3.7 2-1.9 0.8-4 1.2-2 0.4-4.1 0.4c-11.8 0-19.7-5.8-19.7-16.8q0-2.6 0.7-5.1 0.6-2.5 2-4.7 1.4-2.3 3.3-4 1.9-1.8 4.2-3-1.1-1.4-2-2.9-0.9-1.5-1.5-3.2-0.6-1.6-1-3.3-0.4-1.7-0.5-3.5c-0.2-2.1 0.2-4.1 0.9-6.1 0.8-1.9 1.9-3.6 3.4-5.1 1.5-1.4 3.3-2.5 5.2-3.2 2-0.7 4.1-0.9 6.1-0.7 1.9-0.1 3.7 0.2 5.4 0.9 1.7 0.6 3.3 1.6 4.6 2.9 1.4 1.3 2.4 2.8 3.2 4.5 0.7 1.7 1 3.5 1 5.4 0 7.9-5.9 12.9-11.7 16.8q1.2 1.7 2.5 3.4 1.4 1.6 2.7 3.2 1.4 1.7 2.8 3.2 1.5 1.6 3 3.1 0.8-1.4 1.5-2.9 0.8-1.5 1.5-3 0.7-1.5 1.3-3 0.6-1.6 1.1-3.1zm-28.8 19.1q1.1 0 2.1-0.3 1.1-0.2 2.1-0.6 1-0.5 2-1.1 0.9-0.6 1.7-1.4-1.7-1.4-3.3-3-1.6-1.5-3.1-3.1-1.5-1.6-2.9-3.3-1.4-1.7-2.8-3.5-1 0.6-1.8 1.4-0.7 0.8-1.3 1.8-0.6 1-0.9 2.1-0.3 1.1-0.2 2.2c-0.1 1.2 0 2.3 0.4 3.4 0.4 1.1 1 2.1 1.8 2.9 0.8 0.8 1.7 1.5 2.8 1.9 1.1 0.4 2.2 0.6 3.4 0.6zm-5.3-38.8q0 1.3 0.3 2.6 0.3 1.3 0.7 2.5 0.5 1.2 1.1 2.4 0.6 1.2 1.4 2.2c3.3-2.9 7.1-5.7 7.1-10.6q0-1-0.4-2-0.4-1-1.1-1.8-0.8-0.8-1.8-1.2-1-0.4-2-0.4-1.2 0.1-2.2 0.5-1 0.5-1.7 1.4-0.8 0.8-1.2 1.9-0.3 1-0.2 2.1z"/>
	<path class="c" d="m517.3 432.7c-1.9-5.8-4.4-8.3-8.5-8.3-4.1 0-6.2 2.6-6.2 6.8 0 9.1 25.9 9.7 25.9 28.7 0 2.5-0.5 4.9-1.5 7.2-1 2.2-2.4 4.2-4.2 5.8-1.9 1.7-4 2.9-6.4 3.6-2.3 0.7-4.8 0.9-7.2 0.6-2.4 0.1-4.8-0.3-7.1-1.1-2.2-0.8-4.3-2-6.1-3.6-1.9-1.6-3.4-3.4-4.5-5.5-1.2-2.2-1.9-4.5-2.2-6.8l11.5-2.4c1.1 7.3 5.5 9.9 8.9 9.9q1.5 0 2.8-0.5 1.4-0.5 2.4-1.6 1-1 1.6-2.4 0.5-1.3 0.5-2.8c0-11.5-25.9-11.6-25.9-28.4-0.2-2.4 0.2-4.8 1.1-7 0.9-2.2 2.2-4.2 4-5.8 1.7-1.7 3.8-2.9 6.1-3.6 2.2-0.8 4.7-1 7-0.7 2.2-0.1 4.3 0.2 6.4 0.9 2 0.7 3.9 1.7 5.6 3.1 1.7 1.4 3.1 3 4.2 4.9 1.1 1.8 1.8 3.9 2.2 6z"/>
	<path class="c" d="m539.7 435.1c0-14.8 7.8-20.3 19.1-20.3 11.4 0 19.1 5.5 19.1 20.3v21.7c0 14.9-7.8 20.3-19.1 20.3-11.2 0-19.1-5.4-19.1-20.3zm11.6 23.3c0 6.6 3 8.4 7.5 8.4 4.6 0 7.7-1.8 7.7-8.4v-24.8c0-6.6-3.1-8.4-7.7-8.4-4.5 0-7.5 1.8-7.5 8.4z"/>
	<path class="c" d="m599.9 458.4c0 6.6 2.9 8.4 7.5 8.4 4.5 0 7.6-1.8 7.6-8.4v-4.1h11.5v2.5c0 14.9-7.8 20.3-19.1 20.3-11.4 0-18.9-5.4-18.9-20.3v-21.7c0-14.8 7.6-20.3 18.9-20.3 11.2 0 19.1 5.5 19.1 20.3h-11.5v-1.8c0-6.6-3-8.4-7.6-8.4-4.7 0-7.5 1.8-7.5 8.4z"/>
	<path fill-rule="evenodd" class="c" d="m650.3 415.7v60.5h-11.6v-60.5z"/>
	<path class="c" d="m659.6 476.2l14.9-60.5h15l14.3 60.5h-10.8l-2.9-12.9h-16.4l-3.4 12.9zm16.5-23h11.5l-5.7-24.3z"/>
	<path class="c" d="m712 476.2v-60.5h12.3v50.3h18.6v10.2z"/>
	<path class="c" d="m776.8 415.7h16.3c12.9 0 19.6 5.2 19.6 15.5q0 2-0.5 3.9-0.5 1.9-1.5 3.6-1 1.7-2.4 3.1-1.4 1.4-3.1 2.4 2.1 0.9 3.8 2.4 1.8 1.6 2.9 3.5 1.2 2 1.8 4.3 0.5 2.2 0.3 4.5c0 11.9-8.1 17.4-20.1 17.4h-17.1zm12.1 23.7h3.9c5.3 0 8.7-3.1 8.7-7 0.1-1-0.1-2.1-0.4-3.1-0.4-0.9-1-1.8-1.8-2.5q-1.1-1.1-2.6-1.6c-1-0.3-2.1-0.4-3.1-0.3h-4.7zm0 27.2h4.7c1.2 0.1 2.5-0.1 3.6-0.5 1.2-0.4 2.2-1.1 3.1-1.9 0.9-0.9 1.6-1.9 2-3.1 0.5-1.1 0.7-2.4 0.6-3.6 0-5.7-4-8.4-10.1-8.4h-3.9z"/>
	<path class="c" d="m837.7 415.7v42.3c0 5.8 2.5 8.8 8.1 8.8 5.7 0 8.3-3 8.3-8.8v-42.3h11.7v42.4c0.2 2.7-0.2 5.3-1.1 7.8-0.9 2.5-2.4 4.7-4.3 6.5-1.9 1.8-4.2 3.2-6.8 4-2.5 0.8-5.1 1.1-7.8 0.7-2.6 0.4-5.2 0.2-7.7-0.7-2.5-0.8-4.8-2.2-6.7-4-1.9-1.8-3.4-4.1-4.3-6.5-0.9-2.5-1.2-5.2-0.9-7.8v-42.4z"/>
	<path class="c" d="m904.4 432.7c-2-5.8-4.5-8.3-8.5-8.3q-1.4-0.1-2.6 0.4c-0.9 0.3-1.6 0.8-2.3 1.5q-0.9 1-1.3 2.3c-0.3 0.8-0.4 1.8-0.3 2.6 0 9.1 25.9 9.7 25.9 28.7 0 2.5-0.4 4.9-1.4 7.1-0.9 2.2-2.4 4.2-4.2 5.9-1.8 1.6-3.9 2.8-6.2 3.6-2.4 0.7-4.8 0.9-7.2 0.6-2.4 0.1-4.8-0.3-7-1.1-2.3-0.8-4.4-2-6.2-3.6-1.8-1.6-3.3-3.5-4.4-5.6-1.2-2.1-1.9-4.4-2.2-6.7l11.4-2.4c1.3 7.3 5.3 9.9 8.9 9.9q1.4 0 2.7-0.6 1.4-0.5 2.4-1.5 1-1.1 1.5-2.4 0.5-1.3 0.4-2.8c0-11.5-25.9-11.6-25.9-28.4-0.2-2.4 0.2-4.8 1.1-7 0.8-2.3 2.2-4.3 3.9-5.9 1.8-1.6 3.9-2.9 6.2-3.6 2.3-0.7 4.7-0.9 7-0.6 2.2-0.1 4.4 0.2 6.5 0.9 2.1 0.6 4 1.7 5.7 3 1.7 1.4 3.1 3.1 4.2 4.9 1.1 1.9 1.9 4 2.3 6.1z"/>
	<path fill-rule="evenodd" class="c" d="m939.6 415.7v60.5h-11.6v-60.5z"/>
	<path class="c" d="m953.6 476.2v-60.5h12.9l16.4 36.6v-36.6h10.5v60.5h-11.2l-17.5-38.7v38.7z"/>
	<path class="c" d="m1006 476.2v-60.5h31.8v10.8h-20.2v12.9h15.4v10.2h-15.4v15.9h20.9v10.2z"/>
	<path class="c" d="m1075.7 432.7c-2.1-5.8-4.6-8.3-8.4-8.3q-1.4-0.1-2.7 0.4-1.3 0.5-2.2 1.5c-0.6 0.6-1.1 1.4-1.4 2.3-0.2 0.8-0.3 1.8-0.2 2.6 0 9.1 25.9 9.7 25.9 28.7 0 2.5-0.5 4.9-1.4 7.1-1 2.3-2.4 4.3-4.3 5.9-1.8 1.7-3.9 2.9-6.3 3.6-2.3 0.7-4.8 0.9-7.2 0.6-2.4 0.1-4.8-0.3-7.1-1.1-2.2-0.8-4.3-2-6.2-3.5-1.8-1.6-3.3-3.5-4.5-5.6-1.1-2.1-1.8-4.4-2.1-6.8l11.2-2.4c1.5 7.3 5.5 9.9 9.1 9.9q1.4 0 2.8-0.6 1.3-0.5 2.3-1.5 1-1.1 1.5-2.4 0.5-1.3 0.4-2.8c0-11.5-25.9-11.6-25.9-28.4-0.2-2.4 0.2-4.8 1.1-7 0.8-2.3 2.2-4.3 4-5.9 1.7-1.6 3.8-2.9 6.1-3.6 2.3-0.7 4.7-0.9 7.1-0.6 2.2-0.1 4.4 0.1 6.5 0.8 2.1 0.6 4.1 1.7 5.9 3 1.7 1.4 3.2 3.1 4.3 4.9 1.2 1.9 2 4 2.4 6.2z"/>
	<path class="c" d="m1124.2 432.7c-1.7-5.8-4.4-8.3-8.3-8.3-0.9-0.1-1.8 0.1-2.6 0.4-0.9 0.3-1.6 0.8-2.2 1.5-0.6 0.6-1.1 1.4-1.4 2.3-0.2 0.9-0.3 1.8-0.2 2.6 0 9.1 25.9 9.7 25.9 28.7 0 2.5-0.5 4.9-1.5 7.2-1 2.2-2.4 4.2-4.3 5.8-1.8 1.7-4 2.9-6.3 3.6-2.4 0.7-4.8 0.9-7.3 0.6-2.4 0-4.7-0.3-7-1.2-2.2-0.8-4.3-2-6.1-3.6-1.8-1.5-3.3-3.4-4.4-5.5-1.1-2.1-1.8-4.4-2.1-6.7l11.2-2.4c1.6 7.3 5.7 9.9 9.2 9.9q1.4 0 2.7-0.6 1.4-0.5 2.4-1.5 1-1.1 1.5-2.4 0.5-1.3 0.4-2.8c0-11.5-25.9-11.6-25.9-28.4-0.1-2.4 0.2-4.8 1.1-7 0.9-2.2 2.2-4.2 4-5.8 1.7-1.7 3.8-2.9 6.1-3.6 2.3-0.8 4.7-1 7-0.7 2.2-0.1 4.4 0.2 6.5 0.9 2.1 0.7 4 1.7 5.7 3.1 1.7 1.3 3.2 3 4.3 4.8 1.1 1.9 1.9 4 2.3 6.1z"/>
	<path class="c" d="m1183.3 458.4c0 6.6 3.1 8.4 7.6 8.4 4.5 0 7.6-1.8 7.6-8.4v-4.1h11.4v2.5c0 14.9-7.6 20.3-19 20.3-11.4 0-19-5.4-19-20.3v-21.7c0-14.8 7.6-20.3 19-20.3 11.4 0 19 5.5 19 20.3h-11.4v-1.8c0-6.6-3.1-8.4-7.6-8.4-4.5 0-7.6 1.8-7.6 8.4z"/>
	<path class="c" d="m1220.5 435.1c0-14.8 7.9-20.3 19-20.3 11.1 0 19.2 5.5 19.2 20.3v21.7c0 14.9-7.9 20.3-19.2 20.3-11.2 0-19-5.4-19-20.3zm11.5 23.3c0 6.6 2.9 8.4 7.5 8.4 4.7 0 7.5-1.8 7.5-8.4v-24.8c0-6.6-2.8-8.4-7.5-8.4-4.6 0-7.5 1.8-7.5 8.4z"/>
	<path class="c" d="m1270.8 476.2v-60.5h16.3l10.5 39.7 10.5-39.7h16v60.5h-9.8v-47.5l-13 47.5h-8l-12.1-47.5v47.5z"/>
	<path class="c" d="m1338.1 476.2v-60.5h16.7c14.2 0 21.1 6.8 21.1 18.1-0.1 11.4-6.9 18.1-21.1 18.1h-5.1v24.3zm11.7-33.7h6.2c2.3 0 4.5-0.9 6.1-2.6 1.6-1.6 2.5-3.8 2.5-6.1 0-2.3-0.9-4.5-2.5-6.1-1.6-1.6-3.8-2.5-6.1-2.5h-6.2z"/>
	<path class="c" d="m1381.9 476.2l14.9-60.5h14.9l14.6 60.5h-11.3l-2.9-12.9h-15.3l-3 12.9zm16.6-23h11.2l-5.3-24.3z"/>
	<path class="c" d="m1435.6 476.2v-60.5h12.9l15.8 36.6v-36.6h10.6v60.5h-11.2l-17.5-38.7v38.7z"/>
	<path class="c" d="m1506.2 440.2l9.8-24.5h13l-17 36.6v24.6h-11.7v-24.6l-16.5-35.9h13z"/>
</svg>