<?xml version="1.0" encoding="UTF-8"?>

<svg viewBox="0 0 1000 220" version="1.1" xmlns="http://www.w3.org/2000/svg">

<g id="#556677ff">
<path fill="#556677" opacity="1.00" d=" M 664.18 61.39 C 671.09 61.46 678.01 61.45 684.93 61.40 C 685.17 72.27 684.80 83.15 685.12 94.02 C 687.71 89.69 691.17 85.59 696.09 83.86 C 705.81 80.24 718.07 82.99 724.34 91.55 C 729.97 99.07 731.11 108.87 730.97 118.00 C 730.88 127.45 729.36 137.60 723.17 145.13 C 716.48 153.35 704.12 155.47 694.57 151.47 C 689.75 149.45 686.48 145.15 684.16 140.63 C 683.59 144.30 683.10 147.99 682.56 151.66 C 676.42 151.69 670.28 151.65 664.14 151.69 C 664.11 121.59 664.04 91.49 664.18 61.39 M 693.49 100.66 C 689.26 101.97 686.38 105.92 685.38 110.10 C 684.37 114.36 684.51 118.83 685.16 123.13 C 685.85 127.46 688.11 131.97 692.34 133.76 C 697.11 135.73 703.48 134.94 706.70 130.59 C 709.55 126.68 709.92 121.61 709.96 116.93 C 709.95 112.37 709.32 107.43 706.26 103.82 C 703.23 100.18 697.85 99.21 693.49 100.66 Z"/>
<path fill="#556677" opacity="1.00" d=" M 918.63 61.58 C 925.57 61.27 932.53 61.45 939.48 61.50 C 939.46 91.51 939.39 121.53 939.52 151.54 C 933.51 151.83 927.48 151.61 921.47 151.66 C 920.85 148.06 920.25 144.46 919.70 140.85 C 917.81 141.95 917.35 144.34 915.82 145.82 C 909.75 153.09 898.97 154.38 890.35 151.61 C 883.49 149.47 878.29 143.69 875.78 137.08 C 872.45 128.53 872.25 119.12 872.87 110.07 C 873.59 101.66 876.50 92.77 883.39 87.42 C 890.50 81.96 900.56 81.09 908.84 84.16 C 913.18 85.69 916.21 89.28 918.70 92.99 C 918.63 82.52 918.75 72.05 918.63 61.58 M 902.41 100.57 C 895.48 102.54 893.59 110.67 893.84 116.99 C 893.89 122.14 894.39 127.94 898.18 131.82 C 903.05 136.50 912.14 135.54 915.85 129.85 C 918.57 125.78 918.96 120.70 918.90 115.94 C 918.81 111.47 917.87 106.64 914.64 103.33 C 911.55 100.10 906.57 99.34 902.41 100.57 Z"/>
<path fill="#556677" opacity="1.00" d=" M 448.03 66.71 C 453.82 66.71 459.62 66.70 465.41 66.71 C 465.43 72.37 465.41 78.03 465.42 83.69 C 474.06 83.30 482.97 84.78 491.38 82.29 C 496.64 79.20 495.12 71.83 496.04 66.71 C 501.83 66.70 507.62 66.71 513.42 66.71 C 513.44 72.36 513.42 78.02 513.43 83.68 C 518.76 83.72 524.10 83.69 529.44 83.70 C 529.49 89.95 529.39 96.21 529.50 102.46 C 524.17 102.69 518.83 102.53 513.50 102.53 C 513.38 109.20 513.36 115.87 513.52 122.54 C 513.72 125.56 514.04 129.44 517.21 130.88 C 521.12 132.30 525.37 131.73 529.44 131.88 C 529.50 138.43 529.36 144.98 529.52 151.53 C 520.91 151.59 511.83 152.59 503.68 149.19 C 497.63 146.64 494.82 140.03 494.12 133.90 C 492.91 123.50 493.69 113.01 493.46 102.57 C 484.13 102.54 474.81 102.61 465.48 102.54 C 465.39 109.23 465.34 115.94 465.52 122.63 C 465.72 125.64 466.06 129.52 469.25 130.89 C 473.14 132.30 477.37 131.73 481.43 131.87 C 481.48 138.42 481.34 144.97 481.51 151.51 C 472.92 151.61 463.83 152.58 455.69 149.20 C 449.32 146.53 446.62 139.45 445.99 133.03 C 444.97 122.91 445.66 112.72 445.45 102.57 C 441.68 102.57 437.91 102.55 434.14 102.60 C 434.00 96.71 434.10 90.82 434.08 84.92 C 438.08 84.32 443.67 85.07 446.01 80.96 C 447.90 76.48 447.58 71.46 448.03 66.71 Z"/>
<path fill="#556677" opacity="1.00" d=" M 300.01 67.65 C 307.29 67.70 314.57 67.53 321.85 67.74 C 321.91 88.74 321.58 109.76 322.02 130.75 C 333.60 130.67 345.19 130.65 356.78 130.76 C 356.74 137.73 356.79 144.70 356.75 151.67 C 337.86 151.69 318.96 151.62 300.06 151.71 C 299.92 123.69 300.03 95.67 300.01 67.65 Z"/>
<path fill="#556677" opacity="1.00" d=" M 374.55 89.48 C 383.50 82.38 395.82 81.11 406.74 83.26 C 415.45 84.93 423.44 90.54 427.32 98.61 C 431.37 106.38 431.32 115.35 431.17 123.89 C 415.34 123.91 399.50 123.87 383.67 123.91 C 384.29 128.20 386.14 132.78 390.20 134.87 C 396.16 137.99 405.42 137.06 408.26 130.16 C 415.72 130.02 423.19 130.18 430.66 130.08 C 428.84 137.37 424.58 144.25 418.06 148.19 C 410.35 152.96 400.91 153.80 392.06 153.20 C 383.38 152.55 374.39 149.11 369.11 141.90 C 363.16 133.98 362.25 123.58 362.82 114.01 C 363.33 104.75 367.11 95.31 374.55 89.48 M 384.09 110.61 C 392.70 110.49 401.32 110.50 409.93 110.61 C 410.50 104.09 404.56 97.99 397.94 98.49 C 390.94 97.67 383.79 103.46 384.09 110.61 Z"/>
<path fill="#556677" opacity="1.00" d=" M 546.99 89.05 C 556.06 82.23 568.30 81.10 579.14 83.38 C 587.95 85.19 595.91 91.12 599.58 99.42 C 603.27 107.01 603.18 115.64 603.03 123.89 C 587.21 123.91 571.38 123.88 555.56 123.91 C 556.15 128.21 558.02 132.78 562.09 134.88 C 568.07 138.00 577.29 137.04 580.17 130.15 C 587.62 130.05 595.08 130.15 602.54 130.10 C 600.71 137.32 596.52 144.16 590.08 148.10 C 582.39 152.92 572.94 153.79 564.08 153.21 C 555.38 152.59 546.37 149.18 541.04 141.98 C 534.87 133.80 534.06 123.00 534.77 113.12 C 535.43 103.92 539.46 94.65 546.99 89.05 M 560.85 100.90 C 557.72 103.10 556.35 106.88 555.51 110.46 C 564.33 110.68 573.15 110.44 581.98 110.58 C 581.88 105.93 579.31 100.98 574.73 99.37 C 570.22 97.89 564.84 98.14 560.85 100.90 Z"/>
<path fill="#556677" opacity="1.00" d=" M 767.42 82.48 C 776.81 81.70 786.94 83.50 794.31 89.72 C 801.18 95.40 804.58 104.30 805.19 113.02 C 805.87 122.66 805.07 133.12 799.23 141.19 C 793.95 148.69 784.83 152.53 775.91 153.21 C 766.41 153.93 756.05 152.74 748.34 146.68 C 741.69 141.52 738.49 133.10 737.77 124.92 C 736.88 114.67 737.60 103.49 743.82 94.87 C 749.16 87.26 758.33 83.16 767.42 82.48 M 766.31 101.38 C 761.35 103.44 759.05 108.97 758.67 114.02 C 758.28 119.30 758.22 125.10 761.19 129.73 C 765.41 136.52 776.73 136.86 781.35 130.33 C 784.13 126.51 784.43 121.57 784.36 117.00 C 784.26 112.60 783.63 107.87 780.77 104.34 C 777.38 100.14 771.09 99.46 766.31 101.38 Z"/>
<path fill="#556677" opacity="1.00" d=" M 637.26 87.25 C 642.49 82.74 649.80 82.81 656.31 82.68 C 656.71 90.14 656.77 97.76 656.29 105.22 C 650.31 105.30 643.82 104.31 638.34 107.26 C 633.47 110.37 633.44 116.83 633.35 121.98 C 633.40 131.78 633.22 141.60 633.45 151.40 C 626.24 151.83 618.86 151.90 611.66 151.38 C 611.89 128.82 611.68 106.26 611.76 83.70 C 617.41 83.71 623.06 83.67 628.71 83.73 C 629.64 88.20 630.57 92.68 631.48 97.16 C 632.91 93.61 634.11 89.72 637.26 87.25 Z"/>
<path fill="#556677" opacity="1.00" d=" M 804.28 83.70 C 812.22 83.70 820.16 83.70 828.10 83.69 C 831.82 89.38 835.42 95.15 839.12 100.84 C 842.91 95.23 846.49 89.47 850.11 83.75 C 858.01 83.62 865.91 83.77 873.81 83.67 C 866.67 94.63 858.95 105.22 851.58 116.04 C 859.38 127.96 867.74 139.55 875.20 151.67 C 867.25 151.67 859.29 151.68 851.34 151.66 C 847.41 145.52 843.49 139.38 839.56 133.24 C 839.29 133.27 838.74 133.33 838.46 133.36 C 834.53 139.45 830.67 145.58 826.73 151.67 C 818.48 151.58 810.22 151.86 801.99 151.54 C 810.22 139.75 818.58 128.06 826.71 116.21 C 819.22 105.38 811.69 94.58 804.28 83.70 Z"/>
<path fill="#556677" opacity="1.00" d=" M 128.65 99.04 L 128.78 98.80 C 136.04 110.24 136.00 125.78 128.79 137.23 L 128.62 136.92 C 121.47 125.62 121.47 110.32 128.65 99.04 Z"/>
<path fill="#556677" opacity="1.00" d=" M 189.91 136.85 C 182.53 125.72 182.65 110.25 189.87 99.08 C 197.16 110.20 197.18 125.71 189.91 136.85 Z"/>
</g>
<g id="#ff8000ff">
<path fill="#ff8000" opacity="1.00" d=" M 62.95 109.88 C 66.42 93.62 82.37 81.27 98.99 82.04 C 110.90 82.24 122.47 88.85 128.65 99.04 C 121.47 110.32 121.47 125.62 128.62 136.92 C 119.80 152.10 99.01 158.32 83.21 150.78 C 67.89 144.19 58.86 126.08 62.95 109.88 Z"/>
</g>
<g id="#00e054ff">
<path fill="#00e054" opacity="1.00" d=" M 128.78 98.80 C 136.98 85.34 154.57 78.78 169.59 83.54 C 177.88 85.99 185.17 91.55 189.76 98.88 C 189.79 98.93 189.84 99.03 189.87 99.08 C 182.65 110.25 182.53 125.72 189.91 136.85 C 189.86 136.92 189.78 137.06 189.74 137.13 C 183.65 146.98 172.54 153.48 160.96 153.93 C 148.26 154.68 135.51 148.03 128.79 137.23 C 136.00 125.78 136.04 110.24 128.78 98.80 Z"/>
</g>
<g id="#40bcf4ff">
<path fill="#40bcf4" opacity="1.00" d=" M 189.76 98.88 C 195.96 89.40 206.50 82.76 217.90 82.12 C 233.58 80.75 249.26 91.01 254.35 105.89 C 259.77 120.35 254.45 137.87 241.91 146.87 C 231.63 154.67 217.06 156.18 205.38 150.70 C 198.96 147.83 193.70 142.87 189.74 137.13 C 189.78 137.06 189.86 136.92 189.91 136.85 C 197.18 125.71 197.16 110.20 189.87 99.08 C 189.84 99.03 189.79 98.93 189.76 98.88 Z"/>
</g>
</svg>