<?xml version="1.0" ?>
<svg xmlns="http://www.w3.org/2000/svg" xmlns:sodipodi="http://sodipodi.sourceforge.net/DTD/sodipodi-0.dtd" xmlns:inkscape="http://www.inkscape.org/namespaces/inkscape" viewBox="0 0 800 800" inkscape:version="0.48.4 r9939" sodipodi:docname="libcloud-logo-with-text.svg" inkscape:export-filename="/home/ilgiz/libcloud_logo/with-text/libcloud-logo-with-text-200-bg-white.png" inkscape:export-xdpi="18" inkscape:export-ydpi="18">
	<sodipodi:namedview pagecolor="#ffffff" bordercolor="#666666" borderopacity="1" objecttolerance="10" gridtolerance="10" guidetolerance="10" inkscape:pageopacity="0" inkscape:pageshadow="2" inkscape:window-width="1920" inkscape:window-height="1148" id="namedview42" showgrid="false" inkscape:snap-grids="true" inkscape:snap-page="true" inkscape:zoom="0.944" inkscape:cx="240.14929" inkscape:cy="474.78059" inkscape:window-x="1366" inkscape:window-y="24" inkscape:window-maximized="1" inkscape:current-layer="svg2"/>
	<g id="g3004">
		<g id="g3236">
			<path d="M 383.37,97.58 C 434.17,92.92 486.39,105.92 528.99,133.98 C 539.56,140.87 549.6,148.58 558.84,157.17 C 560.62,158.46 562.1,161.51 564.67,160.57 C 597.58,151.88 633.09,153.33 665.15,164.79 C 694.65,175.14 721.25,193.74 740.87,218.12 C 764.51,247.29 778.31,284.41 779.0,321.99 C 779.99,359.82 767.8,397.82 745.09,428.08 C 713.7,470.49 661.82,496.95 608.99,496.78 C 593.48,497.15 578.1,494.55 563.07,491.02 C 557.42,495.64 552.25,500.93 546.37,505.32 C 516.83,528.79 481.42,544.79 444.29,551.48 C 405.28,558.59 364.42,555.26 327.07,541.93 C 296.92,531.26 269.09,514.14 245.89,492.15 C 244.85,490.68 243.09,491.17 241.63,491.51 C 211.31,499.33 178.81,498.52 148.91,489.23 C 124.42,481.7 101.65,468.6 82.92,451.09 C 60.83,430.55 44.39,404.0 35.71,375.11 C 26.19,343.71 26.01,309.54 35.24,278.05 C 44.67,245.48 64.15,215.92 90.33,194.37 C 116.47,172.67 149.2,158.95 183.05,155.78 C 202.75,153.85 222.8,155.42 241.97,160.38 C 243.27,160.67 244.86,161.18 245.76,159.81 C 282.87,124.35 332.27,102.13 383.37,97.58" id="path6" fill="#bbc1c6"/>
			<path d="M 315.63,130.59 C 353.58,113.36 396.64,107.74 437.77,114.39 C 479.92,121.13 519.9,140.79 550.87,170.18 C 553.66,172.57 555.92,175.57 558.92,177.72 C 575.45,172.73 592.66,169.55 610.0,169.99 C 648.35,170.29 686.35,185.5 714.39,211.66 C 736.64,232.34 752.54,259.71 759.68,289.22 C 768.66,325.61 763.68,365.15 746.2,398.28 C 729.26,430.77 700.42,456.81 666.43,470.47 C 633.3,484.03 595.41,485.52 561.31,474.64 C 559.93,474.15 558.23,473.77 557.31,475.24 C 538.75,494.49 516.43,510.07 492.09,521.1 C 455.07,537.93 413.19,543.83 372.95,537.93 C 325.96,531.19 281.51,508.3 248.79,473.91 C 233.04,478.89 216.58,482.02 200.02,481.76 C 163.82,482.25 127.72,469.16 99.89,446.08 C 75.56,425.98 57.7,398.26 49.22,367.88 C 41.04,338.87 41.54,307.46 50.71,278.74 C 59.26,251.52 75.6,226.84 97.18,208.19 C 121.86,186.74 153.41,173.25 186.01,170.55 C 207.13,168.64 228.56,171.36 248.7,177.91 C 267.78,158.11 290.53,141.85 315.63,130.59" id="path8" fill="#feffff"/>
			<path d="M 339.92,137.15 C 374.39,125.4 412.13,123.43 447.64,131.52 C 488.91,140.73 526.92,163.54 554.53,195.56 C 591.39,180.09 634.84,181.66 670.58,199.52 C 701.64,214.62 726.5,241.76 739.12,273.87 C 753.84,310.43 752.11,353.17 734.45,388.4 C 719.79,418.55 693.8,442.9 662.87,455.79 C 628.77,470.33 588.79,470.61 554.58,456.24 C 530.97,483.32 500.1,504.06 465.91,515.19 C 424.93,528.84 379.51,528.49 338.72,514.29 C 305.61,503.02 275.85,482.62 252.91,456.28 C 224.95,467.91 193.17,470.0 163.89,462.35 C 138.3,455.74 114.6,441.83 96.58,422.47 C 73.4,397.93 59.56,364.81 58.48,331.07 C 57.41,304.71 64.11,278.15 77.27,255.31 C 94.11,225.91 122.02,203.12 154.15,192.39 C 186.03,181.45 221.84,182.62 252.97,195.53 C 276.1,168.82 306.42,148.42 339.92,137.15" id="path10" fill="#027cff"/>
			<path d="M 401.71,274.65 C 438.92,258.62 477.39,244.75 517.38,237.55 C 538.69,271.46 552.33,310.48 555.06,350.53 C 545.89,343.46 536.32,336.89 526.31,331.05 C 517.65,369.19 501.49,405.73 478.53,437.43 C 459.65,463.19 435.75,486.27 406.36,499.57 C 385.46,509.06 360.73,512.42 338.88,504.17 C 348.93,507.07 358.84,501.66 366.61,495.74 C 380.82,484.5 391.98,469.97 402.11,455.09 C 420.94,426.88 435.83,396.23 448.56,364.85 C 456.84,344.27 463.96,323.25 470.14,301.95 C 450.79,293.1 430.94,285.39 410.89,278.28 C 407.81,277.12 404.5,276.45 401.71,274.65" id="path12" fill="#feffff"/>
			<path d="M 197.66,289.94 C 223.84,278.1 251.29,268.78 279.54,263.3 C 294.94,287.19 304.44,315.01 306.42,343.39 C 299.92,338.39 293.11,333.82 286.1,329.57 C 279.05,360.29 265.32,389.69 245.13,413.99 C 231.61,429.92 215.05,444.03 195.17,451.21 C 181.94,456.1 167.08,456.78 153.64,452.3 C 164.41,454.08 173.34,446.38 180.48,439.4 C 196.88,422.28 208.67,401.39 219.12,380.28 C 230.23,357.38 239.22,333.46 246.25,309.0 C 230.44,301.72 214.12,295.58 197.66,289.94" id="path14" fill="#feffff"/>
			<path d="M 606.56,289.72 C 632.83,278.24 660.08,268.65 688.3,263.3 C 703.74,287.17 713.08,315.02 715.22,343.37 C 708.66,338.47 701.91,333.82 694.89,329.61 C 686.17,366.58 668.21,402.11 640.29,428.26 C 628.57,439.09 614.83,448.12 599.42,452.66 C 587.44,456.21 574.39,456.26 562.5,452.32 C 572.51,453.97 580.97,447.17 587.8,440.79 C 600.11,428.66 609.56,414.0 618.07,399.05 C 633.89,370.63 646.02,340.21 654.99,308.97 C 641.69,302.88 628.06,297.53 614.27,292.66 C 611.66,291.79 609.01,290.99 606.56,289.72" id="path16" fill="#feffff"/>
		</g>
	</g>
	<g style="font-size:32px;font-style:normal;font-weight:normal;line-height:125%;letter-spacing:0px;word-spacing:0px;fill:#000000;fill-opacity:1;stroke:none;font-family:Sans" id="text3023" transform="translate(-4.23999,0)">
		<path d="M 168.15279,575.16471 L 151.77679,575.16471 L 151.77679,700.65271 L 168.15279,700.65271 L 168.15279,575.16471" style="font-size:184px;font-variant:normal;font-stretch:normal;text-align:start;line-height:125%;writing-mode:lr-tb;text-anchor:start;font-family:Gill Sans Std;-inkscape-font-specification:Gill Sans Std" id="path3057" inkscape:connector-curvature="0"/>
		<path d="M 203.74178,618.03671 L 187.36578,618.03671 L 187.36578,700.65271 L 203.74178,700.65271 L 203.74178,618.03671 M 205.39778,593.01271 C 205.39778,587.67672 200.98177,583.26071 195.64578,583.26071 C 190.30978,583.26071 185.89378,587.67672 185.89378,593.01271 C 185.89378,598.3487 190.30978,602.76471 195.64578,602.76471 C 200.98177,602.76471 205.39778,598.3487 205.39778,593.01271" style="font-size:184px;font-variant:normal;font-stretch:normal;text-align:start;line-height:125%;writing-mode:lr-tb;text-anchor:start;font-family:Gill Sans Std;-inkscape-font-specification:Gill Sans Std" id="path3059" inkscape:connector-curvature="0"/>
		<path d="M 239.92167,575.16471 L 223.54567,575.16471 L 223.54567,696.05271 C 231.64167,699.91671 243.41769,702.30871 254.27367,702.30871 C 281.87365,702.30871 298.43367,685.56468 298.43367,657.59671 C 298.43367,633.86073 283.34565,616.38071 262.73767,616.38071 C 254.45768,616.38071 247.09767,618.77272 239.92167,623.92471 L 239.92167,575.16471 M 239.92167,639.56471 C 246.91367,633.30872 251.88168,631.10071 258.68967,631.10071 C 272.48966,631.10071 281.68967,642.50873 281.68967,659.98871 C 281.68967,675.62869 271.20166,686.85271 256.48167,686.85271 C 251.69768,686.85271 244.70567,685.74871 239.92167,684.27671 L 239.92167,639.56471" style="font-size:184px;font-variant:normal;font-stretch:normal;text-align:start;line-height:125%;writing-mode:lr-tb;text-anchor:start;font-family:Gill Sans Std;-inkscape-font-specification:Gill Sans Std" id="path3061" inkscape:connector-curvature="0"/>
		<path d="M 369.37456,622.08471 C 361.46257,618.58871 355.02255,616.38071 345.45456,616.38071 C 320.43059,616.38071 304.60656,633.67674 304.60656,660.90871 C 304.60656,685.19669 321.90259,702.30871 346.55856,702.30871 C 355.20655,702.30871 365.69457,700.10071 371.21456,697.52471 L 371.21456,681.33271 C 362.93457,685.01271 356.31055,686.85271 349.31856,686.85271 C 332.39058,686.85271 321.35056,676.54869 321.35056,659.43671 C 321.35056,642.69273 331.65458,631.46871 346.55856,631.46871 C 353.73455,631.46871 359.99057,633.30872 369.37456,639.56471 L 369.37456,622.08471" style="font-size:184px;font-variant:normal;font-stretch:normal;text-align:start;line-height:125%;writing-mode:lr-tb;text-anchor:start;font-family:Gill Sans Std;-inkscape-font-specification:Gill Sans Std" id="path3063" inkscape:connector-curvature="0"/>
		<path d="M 400.81381,575.16471 L 384.43781,575.16471 L 384.43781,700.65271 L 400.81381,700.65271 L 400.81381,575.16471" style="font-size:184px;font-variant:normal;font-stretch:normal;text-align:start;line-height:125%;writing-mode:lr-tb;text-anchor:start;font-family:Gill Sans Std;-inkscape-font-specification:Gill Sans Std" id="path3065" inkscape:connector-curvature="0"/>
		<path d="M 457.87507,616.38071 C 433.21909,616.38071 414.26707,634.78073 414.26707,658.51671 C 414.26707,683.90868 432.48309,702.30871 457.87507,702.30871 C 484.37104,702.30871 502.58707,684.64468 502.58707,658.51671 C 502.58707,634.04473 483.81904,616.38071 457.87507,616.38071 M 457.69107,631.10071 C 474.06705,631.10071 485.84307,642.69273 485.84307,658.70071 C 485.84307,676.54869 474.98705,687.58871 457.69107,687.58871 C 441.86708,687.58871 431.01107,675.99669 431.01107,658.51671 C 431.01107,642.69273 442.23508,631.10071 457.69107,631.10071" style="font-size:184px;font-variant:normal;font-stretch:normal;text-align:start;line-height:125%;writing-mode:lr-tb;text-anchor:start;font-family:Gill Sans Std;-inkscape-font-specification:Gill Sans Std" id="path3067" inkscape:connector-curvature="0"/>
		<path d="M 579.16098,700.65271 L 579.16098,618.03671 L 562.78498,618.03671 L 562.78498,677.10071 C 557.44898,684.6447 550.45697,688.69271 543.09698,688.69271 C 531.87299,688.69271 526.16898,682.0687 526.16898,670.47671 L 526.16898,618.03671 L 509.79298,618.03671 L 509.79298,669.37271 C 509.79298,690.34869 521.56899,702.30871 538.31298,702.30871 C 546.40897,702.30871 555.97698,697.5247 562.78498,690.16471 L 562.78498,700.65271 L 579.16098,700.65271" style="font-size:184px;font-variant:normal;font-stretch:normal;text-align:start;line-height:125%;writing-mode:lr-tb;text-anchor:start;font-family:Gill Sans Std;-inkscape-font-specification:Gill Sans Std" id="path3069" inkscape:connector-curvature="0"/>
		<path d="M 664.41492,575.16471 L 648.03892,575.16471 L 648.03892,619.69271 C 641.41493,617.30071 636.26292,616.38071 630.74292,616.38071 C 606.63895,616.38071 589.52692,633.49273 589.52692,657.41271 C 589.52692,683.90868 604.98295,700.65271 629.63892,700.65271 L 664.41492,700.65271 L 664.41492,575.16471 M 648.03892,686.85271 L 631.47892,686.85271 C 612.52694,686.85271 606.27092,675.26069 606.27092,659.80471 C 606.27092,642.50873 616.94294,631.10071 632.76692,631.10071 C 638.28692,631.10071 642.51893,632.02071 648.03892,634.22871 L 648.03892,686.85271" style="font-size:184px;font-variant:normal;font-stretch:normal;text-align:start;line-height:125%;writing-mode:lr-tb;text-anchor:start;font-family:Gill Sans Std;-inkscape-font-specification:Gill Sans Std" id="path3071" inkscape:connector-curvature="0"/>
	</g>
</svg>