<?xml version="1.0" ?>
<!-- Generator: Adobe Illustrator 25.2.3, SVG Export Plug-In . SVG Version: 6.00 Build 0)  -->
<svg xmlns="http://www.w3.org/2000/svg" version="1.2" baseProfile="tiny-ps" viewBox="0 0 500 500">
	<rect fill="#4E0D41" width="500" height="500"/>
	<path id="liberty-logo-000000" fill="#FFFFFF" d="M295.6,219.1h-27.8l0.6,30.6l-0.6,31.2h10l-0.6-24.4h9.6c3.6,0,6.2,1.2,8.1,3.8  c4.7,6.3,10.4,17,12.1,20.6h11.8c-5.5-8.4-11.2-16.7-17.2-24.8c13.2-3.5,16-12.2,16-18.9C317.5,232.1,313.5,219.1,295.6,219.1   M277.1,249.7v-23.8h18.5c8,0,13.4,4.4,13.4,11.4c0,7.7-6.1,12.4-13.4,12.4L277.1,249.7L277.1,249.7z M375.1,219.1H325v7.5l20.7-0.7  v23.7l-0.6,31.2h10l-0.6-31.2v-23.7l20.7,0.7L375.1,219.1z M249,269.7c-5,2.8-10.7,5-16.3,5c-14.3,0-25.1-9.8-25.6-23.7l29.9,0.9  V243l-29.2,0.9c2.6-11.2,12.4-18.7,24.9-18.7c4.3,0,8.4,1.5,11.7,4.3l6.5-6c-4.7-3.6-11.4-5.6-18.4-5.6c-19.8,0-34.3,13.5-34.3,32.2  s14.5,32.1,34.3,32.1c7.6,0,15-1.9,21.5-5.6L249,269.7z M50,219.1l0.6,31.8l-0.6,30h43.6v-7.5l-34.2,0.7v-23.2l0.6-31.8L50,219.1  L50,219.1z M115.5,219.1h-10l0.6,30.9l-0.6,30.9h10l-0.8-30.9L115.5,219.1z M161.3,219.1h-26.4l0.6,30.6l-0.6,31.2h32.2  c11.3,0,18.9-8.1,18.9-18.8c0-7.1-4.4-13.6-11.1-16.1c3.6-2.1,5.9-6.2,5.9-11.2C180.9,225.1,173.4,219.1,161.3,219.1 M144.2,244  v-18.1h16.6c7.5,0,11.6,3.1,11.6,8.8c0,6.2-3.8,9.3-11.6,9.3H144.2z M144.2,274.1v-23.3h17.1c10.3,0,16.4,4.2,16.4,11.2  c0,7.5-6.1,12-16.4,12h-17.1V274.1z M447.5,219.1h-12.8l-18.9,28.7L397,219.1h-12.8l27.2,38.1l-0.6,23.7h10l-0.6-23.7L447.5,219.1z   M444.9,271.5c-2.8,0-5.1,2.2-5.1,4.8c0,2.7,2.3,4.8,5.1,4.8s5.1-2.2,5.1-4.8S447.7,271.5,444.9,271.5"/>
</svg>