<svg xmlns="http://www.w3.org/2000/svg"  id="eykmbgkppihb1" viewBox="0 0 487.962700 250" shape-rendering="geometricPrecision" text-rendering="geometricPrecision" class="lt-navbar-logo img-fluid lt-image-type--svg">
    <style>
    #eykmbgkppihb1 {
        pointer-events: all
    }

    #eykmbgkppihb1:hover #eykmbgkppihb9_to {
        animation: eykmbgkppihb9_to__to 1500ms linear 2 normal forwards
    }

    @keyframes eykmbgkppihb9_to__to {
        0% {
            transform: translate(0.000261px, 0px)
        }

        13.333333% {
            transform: translate(0.000261px, 0px)
        }

        26.666667% {
            transform: translate(0.000284px, -60.287903px);
            animation-timing-function: cubic-bezier(0.420000, 0, 0.580000, 1)
        }

        40% {
            transform: translate(0.000261px, 0px)
        }

        100% {
            transform: translate(0.000261px, 0px)
        }
    }

    #eykmbgkppihb1:hover #eykmbgkppihb9_ts {
        animation: eykmbgkppihb9_ts__ts 1500ms linear 2 normal forwards
    }

    @keyframes eykmbgkppihb9_ts__ts {
        0% {
            transform: scale(1, 1)
        }

        13.333333% {
            transform: scale(1, 0.960000);
            animation-timing-function: cubic-bezier(0.445000, 0.050000, 0.550000, 0.950000)
        }

        26.666667% {
            transform: scale(-0.960000, 1);
            animation-timing-function: cubic-bezier(0.420000, 0, 0.580000, 1)
        }

        40% {
            transform: scale(1, 1)
        }

        46.666667% {
            transform: scale(1, 0.980000)
        }

        53.333333% {
            transform: scale(1, 1)
        }

        100% {
            transform: scale(1, 1)
        }
    }

    #eykmbgkppihb1:hover #eykmbgkppihb9 {
        animation: eykmbgkppihb9__tt 1500ms linear 2 normal forwards
    }

    @keyframes eykmbgkppihb9__tt {
        0% {
            transform: translate(-412.830261px, -209.444392px)
        }

        13.333333% {
            transform: translate(-412.830261px, -209.444392px)
        }

        26.666667% {
            transform: translate(-412.830261px, -209.371450px);
            animation-timing-function: cubic-bezier(0.420000, 0, 0.580000, 1)
        }

        40% {
            transform: translate(-412.830261px, -209.444392px)
        }

        46.666667% {
            transform: translate(-412.830261px, -209.444392px)
        }

        100% {
            transform: translate(-412.830261px, -209.444392px)
        }
    }
    </style>
    <g id="eykmbgkppihb2">
        <g id="eykmbgkppihb3">
            <g id="eykmbgkppihb4">
                <g id="eykmbgkppihb5">
                    <g id="eykmbgkppihb6" transform="matrix(1 0 0 1 412.82999999999998 209.37100000000001)">
                        <g id="eykmbgkppihb7">
                            <g id="eykmbgkppihb8">
                                <g id="eykmbgkppihb9_to" transform="translate(0.000261,0)">
                                    <g id="eykmbgkppihb9_ts" transform="scale(1,1)">
                                        <g id="eykmbgkppihb9" transform="translate(-412.830261,-209.444392)">
                                            <path id="eykmbgkppihb10" d="M486.739150,57.008430C480.634117,54.207980,474.038912,52.632648,467.327290,52.371710Q467.985730,54.175850,468.540670,56.054930C468.520160,55.975220,468.504530,55.896610,468.484030,55.816780L468.619280,56.311040C468.594380,56.224730,468.565810,56.141040,468.540670,56.054930C471.905900,69.289250,470.681050,81.344420,465.101460,92.710270C460.984893,100.912590,455.179066,108.150860,448.065570,113.949340Q446.611350,115.142000,445.110490,116.237800C446.964751,122.257036,448.475730,128.376706,449.636130,134.567260C452.952266,132.527346,456.125993,130.264509,459.135390,127.794380C471.009910,118.057680,493.435440,93.635870,486.739150,57.008430Z" transform="matrix(1 0 0 1 0.00000100000000 60.29420000000000)" fill="rgb(133,196,54)" stroke="none" stroke-width="1" />
                                            <path id="eykmbgkppihb11" d="M436.317000,121.713260C430.242288,124.973277,423.704837,127.285325,416.931260,128.569260C409.746596,129.826292,402.482748,130.578822,395.192980,130.821330C390.595320,140.328960,386.928090,145.903910,384.440540,149.077250C386.251820,149.033980,388.083120,148.975870,389.945910,148.888250C396.914660,148.560430,406.114120,148.421450,416.343860,146.698920C428.123670,144.854885,439.431586,140.734291,449.636100,134.567260C448.475700,128.376706,446.964721,122.257036,445.110460,116.237800C442.324201,118.285966,439.384357,120.116531,436.317000,121.713260Z" transform="matrix(1 0 0 1 0.00000100000000 60.29420000000000)" fill="rgb(0,183,255)" stroke="none" stroke-width="1" />
                                            <path id="eykmbgkppihb12" d="M391.560200,130.987060C390.552870,131.028690,389.820940,131.060550,389.129780,131.093060C382.447890,131.407330,375.980120,131.430830,368.747210,131.177170C368.482320,131.167830,367.272110,131.107830,367.264790,131.084820Q367.338790,130.890640,367.411030,130.695230C369.619030,124.726120,370.681540,117.984230,370.804090,109.843230C370.752340,103.883520,370.351950,100.662450,368.194480,88.251740C367.529920,84.429740,367.019670,81.001800,366.670310,77.868870C366.145890,77.694190,365.639540,77.521950,365.145400,77.351470C364.975730,77.292940,364.814840,77.235750,364.648820,77.177770C364.325580,77.064980,364.004290,76.952490,363.694230,76.841590C363.515520,76.777590,363.343400,76.714820,363.168840,76.651520C362.887590,76.549590,362.609030,76.448030,362.338760,76.347750C362.158340,76.280860,361.982560,76.214690,361.807020,76.148590Q361.427620,76.005780,361.062150,75.865210Q360.805070,75.766150,360.554580,75.668310C360.318500,75.575900,360.088520,75.484650,359.861710,75.393770C359.704240,75.330770,359.546280,75.267610,359.393210,75.205360C359.157610,75.109470,358.930560,75.015230,358.705210,74.921180C358.575810,74.867180,358.443000,74.812530,358.317020,74.759130C358.060680,74.650610,357.815070,74.544040,357.572150,74.438020C357.485970,74.400300,357.394660,74.361730,357.309940,74.324310Q356.828740,74.111640,356.382450,73.906040C356.306530,73.871040,356.236700,73.837310,356.161990,73.802590C355.944470,73.701210,355.729620,73.600380,355.524540,73.501590C355.419070,73.450810,355.319710,73.401490,355.217660,73.351380C355.050420,73.269540,354.884660,73.187930,354.725960,73.107910C354.622690,73.055850,354.523810,73.004910,354.424200,72.953680C354.277200,72.878180,354.132700,72.803350,353.993290,72.729560C353.896370,72.678290,353.801640,72.627560,353.708140,72.577150Q353.509290,72.469950,353.321140,72.365360C353.231300,72.315490,353.142140,72.265750,353.055760,72.216800C352.933200,72.147160,352.815760,72.078980,352.700050,72.011170C352.622900,71.966070,352.544290,71.920480,352.470050,71.876170C352.348470,71.803420,352.233720,71.732620,352.119710,71.662060C352.059410,71.624650,351.995710,71.586380,351.937340,71.549510C351.789870,71.456190,351.649740,71.365130,351.514970,71.275770L351.458330,71.238910C351.307940,71.138320,351.166830,71.040720,351.032330,70.945200C350.985820,70.912250,350.943950,70.880930,350.899390,70.848590C350.814310,70.786820,350.729710,70.725420,350.650980,70.665910C350.601420,70.628430,350.555520,70.592360,350.508400,70.555740C350.440900,70.503370,350.374490,70.451490,350.311990,70.401020C350.266210,70.363970,350.222760,70.328020,350.179420,70.291950Q350.093720,70.220620,350.014020,70.151750C349.974220,70.117080,349.935160,70.083020,349.897560,70.049390C349.846050,70.003250,349.797220,69.958390,349.750100,69.914140C349.717630,69.883800,349.685040,69.853470,349.654640,69.824050C349.608250,69.779050,349.565280,69.736050,349.523170,69.693130C349.497170,69.666580,349.469830,69.639540,349.445410,69.613840C349.400490,69.566660,349.359840,69.521840,349.320170,69.477310C349.303810,69.458940,349.285380,69.439530,349.269870,69.421710Q349.190220,69.330240,349.124490,69.246900C349.112650,69.231950,349.103370,69.218580,349.092140,69.204050C349.061620,69.164200,349.031720,69.124890,349.005470,69.088050C348.991070,69.067780,348.979100,69.049290,348.965920,69.029940C348.946140,69.000830,348.926740,68.972020,348.909770,68.944940C348.897680,68.925840,348.887060,68.908140,348.876320,68.890070C348.861670,68.865470,348.847630,68.841550,348.835180,68.818840L348.809790,68.771300Q348.792950,68.738790,348.779150,68.709470L348.760840,68.670100C348.752780,68.651540,348.745700,68.634640,348.739360,68.618220L348.726910,68.586300L348.723240,68.577020L348.718610,68.561700Q348.706880,68.526540,348.700290,68.501210C348.642867,68.295218,348.601164,68.085165,348.575540,67.872860C348.151470,83.730950,353.105810,97.670280,353.213720,109.953910C353.072370,119.017270,351.688580,129.995420,339.127540,138.435720C326.566500,146.876020,343.220310,147.501090,344.901950,147.609610C354.144870,148.205740,368.192240,149.465610,384.440530,149.077200C386.928080,145.903860,390.595310,140.328910,395.192970,130.821280C394.017470,130.879890,392.811660,130.935370,391.560200,130.987060Z" transform="matrix(1 0 0 1 0.00000100000000 60.29420000000000)" fill="rgb(255,49,149)" stroke="none" stroke-width="1" />
                                            <path id="eykmbgkppihb13" d="M358.005510,36.115360C352.329341,45.270239,349.094643,55.727302,348.610250,66.488160C348.588400,66.953370,348.588030,67.411010,348.575580,67.872930C348.601204,68.085235,348.642907,68.295288,348.700330,68.501280C348.706930,68.524050,348.713520,68.546690,348.718650,68.561770L348.726950,68.586370L348.739400,68.618290C348.745740,68.634590,348.752820,68.651680,348.760880,68.670170L348.779190,68.709540C348.788350,68.729010,348.798720,68.749820,348.809830,68.771370L348.835220,68.818910C348.847670,68.841490,348.861710,68.865660,348.876360,68.890140C348.887100,68.908140,348.897720,68.925970,348.909810,68.945010C348.926810,68.972010,348.946430,69.001010,348.965960,69.030010C348.979140,69.049360,348.991230,69.067910,349.005510,69.088120C349.031760,69.124980,349.061660,69.164230,349.092180,69.204120C349.103410,69.218650,349.112690,69.232020,349.124530,69.246970Q349.190260,69.330190,349.269910,69.421780C349.285420,69.439600,349.303850,69.459130,349.320210,69.477380C349.359880,69.521810,349.400530,69.566800,349.445450,69.613910C349.469870,69.639610,349.497210,69.666770,349.523210,69.693200C349.565320,69.735980,349.608290,69.779200,349.654680,69.824120C349.685080,69.853480,349.717790,69.883930,349.750140,69.914210C349.797260,69.958400,349.846210,70.003380,349.897600,70.049460C349.935200,70.083090,349.974260,70.117210,350.014060,70.151820C350.066910,70.197590,350.122450,70.244530,350.179460,70.292020C350.222670,70.328020,350.266250,70.364160,350.312030,70.401090C350.374410,70.451500,350.441030,70.503560,350.508440,70.555810C350.555440,70.592310,350.601440,70.628560,350.651020,70.665980C350.729750,70.725490,350.814350,70.786980,350.899430,70.848660C350.943990,70.880940,350.985860,70.912380,351.032370,70.945270C351.166890,71.040730,351.308000,71.138390,351.458370,71.238980L351.515010,71.275840C351.649780,71.365200,351.789670,71.456320,351.937380,71.549580C351.995970,71.586390,352.059450,71.624720,352.119750,71.662130C352.233750,71.732690,352.348510,71.803550,352.470090,71.876240C352.544310,71.920560,352.622920,71.966090,352.700090,72.011240C352.815810,72.079050,352.933490,72.147240,353.055800,72.216870C353.141990,72.265870,353.231580,72.315630,353.321180,72.365430Q353.509410,72.470070,353.708180,72.577220C353.801680,72.627640,353.896410,72.678420,353.993330,72.729630C354.132740,72.803360,354.277270,72.878250,354.424240,72.953750C354.523850,73.004960,354.622730,73.056040,354.726000,73.107980C354.884450,73.187980,355.050710,73.269610,355.217700,73.351450C355.319750,73.401560,355.419110,73.450880,355.524580,73.501660C355.729660,73.600420,355.944510,73.701250,356.162030,73.802660C356.236740,73.837320,356.306570,73.871080,356.382490,73.906110Q356.828910,74.111640,357.309980,74.324380C357.394700,74.361740,357.485980,74.400380,357.572190,74.438090C357.815110,74.544090,358.060720,74.650620,358.317060,74.759200C358.443060,74.812600,358.575850,74.867200,358.705250,74.921250C358.930590,75.015250,359.157640,75.109600,359.393250,75.205430C359.546080,75.267620,359.704250,75.330850,359.861750,75.393840C360.088560,75.484660,360.318540,75.575970,360.554620,75.668380C360.721130,75.733560,360.891050,75.799300,361.062190,75.865280Q361.426950,76.005720,361.807060,76.148660C361.982360,76.214760,362.158630,76.280990,362.338800,76.347820C362.609070,76.448040,362.887630,76.549600,363.168880,76.651590C363.343440,76.714890,363.515560,76.777750,363.694270,76.841660C364.004330,76.952500,364.325860,77.065050,364.648860,77.177840C364.814860,77.235840,364.975770,77.293070,365.145440,77.351540C365.639580,77.522020,366.145930,77.694260,366.670350,77.868940C365.087580,63.680940,366.849060,55.633940,373.019710,45.398110C380.762870,32.554300,390.631280,24.426010,402.712090,20.457500C404.082450,20.007370,405.477720,19.636030,406.881040,19.300500C407.906670,8.642720,410.677670,3.092190,412.830260,0.312640C396.286760,1.841070,373.995260,9.592170,358.005510,36.115360Z" transform="matrix(1 0 0 1 0.00000100000000 60.29420000000000)" fill="rgb(0,179,167)" stroke="none" stroke-width="1" />
                                            <path id="eykmbgkppihb14" d="M427.060000,18.353000C444.972600,20.957060,460.430370,33.474700,467.327340,52.371740C474.038962,52.632678,480.634167,54.208010,486.739200,57.008460C486.397200,55.137610,486.002630,53.244660,485.503120,51.310400C475.221120,15.707610,445.927440,3.098910,429.739450,0.746400C424.141259,-0.080730,418.463461,-0.226406,412.830220,0.312560C410.677630,3.092110,407.906630,8.642640,406.881000,19.300420C413.484604,17.695342,420.335057,17.373708,427.060000,18.353000Z" transform="matrix(1 0 0 1 0.00000100000000 60.29420000000000)" fill="rgb(247,107,7)" stroke="none" stroke-width="1" />
                                        </g>
                                    </g>
                                </g>
                            </g>
                        </g>
                    </g>
                    <path id="eykmbgkppihb15" d="M280.477710,63.903620C286.645888,63.760437,292.660136,65.838575,297.424120,69.759210Q304.500640,75.614790,306.735400,86.759330L252.357800,86.759330C253.446782,80.033510,257.122660,74.000158,262.600200,69.948110C267.735916,66.028517,274.017153,63.904794,280.477710,63.903620ZM326.661390,93.937130Q325.916790,73.159280,312.601390,59.842520C304.191727,51.158238,292.565063,46.338431,280.477710,46.525720Q260.365540,46.525720,246.491810,60.409110Q232.618000,74.292680,232.618000,96.203820Q232.618000,117.926220,246.491810,131.715220C255.205398,140.685799,267.228034,145.673018,279.732810,145.504220Q295.375690,145.504220,307.014700,138.043020Q318.653710,130.581820,324.240500,116.037320L306.921630,112.259510Q298.914010,128.504090,279.732810,128.504130C272.769828,128.550468,266.072717,125.833270,261.110410,120.948520Q253.102840,113.392850,251.799220,100.737220L326.661400,100.737220ZM155.305500,63.714710C152.408747,58.383272,148.047077,53.991931,142.735400,51.059100C137.334920,48.036830,134.763400,46.525720,128.059310,46.525720C115.396100,46.525720,107.266620,50.933130,100.190110,59.748010L100.190110,49.170220L80.822710,49.170220L80.822710,142.859720L100.190110,142.859720L100.190110,96.392720Q100.190110,80.903720,106.801010,72.781430C111.208300,67.366630,115.458110,64.659230,123.031300,64.659230C129.114610,64.659230,132.371200,66.705530,136.281910,70.798120C140.192620,74.890710,140.407610,80.337120,140.407610,87.137120L140.407610,142.859730L159.774920,142.859730L159.774920,96.392730C159.774920,86.066730,160.269210,78.196320,164.738600,72.781440C169.207990,67.366560,173.550920,64.659240,181.248210,64.659240C187.331500,64.659240,190.588090,66.705540,194.498790,70.798130C198.409490,74.890720,200.364910,80.337130,200.364910,87.137130L200.364910,142.859740L219.546000,142.859740L219.546000,83.170430Q219.546000,66.925870,209.396790,56.725820C202.630590,49.925710,196.083990,46.525720,186.276190,46.525720C171.378310,46.525720,163.375290,52.255420,155.305500,63.714710ZM59.700900,142.858620L59.700900,49.169000L40.333510,49.169000L40.333510,142.858590ZM50.110310,8.747720C46.811309,8.665456,43.620250,9.926003,41.268074,12.240619C38.915899,14.555235,37.604155,17.725592,37.633310,21.025490C37.527193,24.292537,38.813359,27.450974,41.171610,29.714490C43.575507,31.999338,46.795622,33.224167,50.110320,33.114490C53.399278,33.235526,56.594848,32.007253,58.956020,29.714490C61.263270,27.423618,62.511667,24.274994,62.401120,21.025490C62.458889,17.767337,61.180337,14.627565,58.862910,12.336620C56.573392,9.972276,53.400625,8.671321,50.110310,8.747720ZM19.367400,142.859720L19.367400,20.931110L0,20.931110L0,142.859720Z" transform="matrix(1 0 0 1 0.00000100000000 60.29420000000000)" fill="rgb(88,88,87)" fill-rule="evenodd" stroke="none" stroke-width="1" />
                    <g id="eykmbgkppihb16">
                        <path id="eykmbgkppihb17" d="M427.060000,18.353000C420.335056,17.373717,413.484602,17.695362,406.881000,19.300450C405.477680,19.636020,404.082410,20.007360,402.712050,20.457450C390.631240,24.425960,380.762830,32.554250,373.019670,45.398060C366.849020,55.633840,365.087540,63.680900,366.670310,77.868890C367.019670,81.001820,367.529920,84.429800,368.194480,88.251760C370.351950,100.662470,370.752340,103.883540,370.804090,109.843250C370.681540,117.984250,369.619090,124.726130,367.411030,130.695250Q367.338880,130.890720,367.264790,131.084840C367.272110,131.107840,368.482320,131.167840,368.747210,131.177190C375.980120,131.430850,382.447890,131.407350,389.129780,131.093080C389.820940,131.060550,390.552870,131.028690,391.560200,130.987080C392.811660,130.935390,394.017470,130.879910,395.193010,130.821370C402.482778,130.578862,409.746626,129.826332,416.931290,128.569300C427.108370,126.553817,436.724320,122.345788,445.110490,116.237820Q446.609750,115.137820,448.065570,113.949360C455.179066,108.150880,460.984893,100.912610,465.101460,92.710290C470.681050,81.344440,471.905900,69.289290,468.540670,56.054950Q467.988790,54.174640,467.327290,52.371730C460.430320,33.474670,444.972550,20.957000,427.060000,18.353000Z" transform="matrix(1 0 0 1 0.00000100000000 60.29420000000000)" fill="none" stroke="none" stroke-width="1" />
                    </g>
                </g>
                <g id=" eykmbgkppihb18">
                    <path id="eykmbgkppihb19" d="M23.923160,179.783610L26.999210,180.511720C25.339840,186.178420,20.321070,189.700340,14.086590,189.700340C6.306781,189.700340,0,183.393559,0,175.613750C0,167.833941,6.306781,161.527160,14.086590,161.527160C20.321070,161.527160,25.339840,165.049080,26.999210,170.513720L23.923160,171.404350C22.547160,167.032430,18.782490,164.523040,14.086590,164.523040C8.057105,164.657072,3.239141,169.583325,3.239141,175.614300C3.239141,181.645275,8.057105,186.571528,14.086590,186.705560C18.782490,186.705560,22.506480,184.235710,23.923160,179.783610Z" transform="matrix(1 0 0 1 0.00000100000000 60.29420000000000)" fill="rgb(87,87,86)" stroke="none" stroke-width="1" />
                    <path id="eykmbgkppihb20" d="M51.330900,189.174310L40.968300,177.556460L35.990170,177.556460L35.990170,189.174310L32.792170,189.174310L32.792170,162.053190L45.340170,162.053190C50.643370,162.053190,54.204830,165.130350,54.204830,169.784510C54.204830,174.439780,50.643370,177.556460,45.340170,177.556460L44.854770,177.556460L55.338170,189.174310ZM45.340230,174.641840C48.740230,174.641840,51.006940,172.699130,51.006940,169.784510C51.006940,166.869890,48.740250,164.927180,45.340230,164.927180L35.990170,164.927180L35.990170,174.641840Z" transform="matrix(1 0 0 1 0.00000100000000 60.29420000000000)" fill="rgb(87,87,86)" stroke="none" stroke-width="1" />
                    <path id="eykmbgkppihb21" d="M89.141880,189.174310L86.065880,189.174310L86.065880,168.854310L75.379310,189.174310L73.719880,189.174310L62.992680,168.854310L62.992680,189.174310L59.916620,189.174310L59.916620,162.053190L62.709340,162.053190L74.529250,184.398190L86.349170,162.053190L89.141880,162.053190Z" transform="matrix(1 0 0 1 0.00000100000000 60.29420000000000)" fill="rgb(87,87,86)" stroke="none" stroke-width="1" />
                    <path id="eykmbgkppihb22" d="M126.591560,189.255570L123.717560,189.255570L118.495630,174.115810L113.233060,189.255570L110.359060,189.255570L103.639190,169.217840L106.757000,169.217840L111.897670,184.681580L117.240410,169.217840L119.710250,169.217840L125.052990,184.681580L130.193660,169.217840L133.310350,169.217840Z" transform="matrix(1 0 0 1 0.00000100000000 60.29420000000000)" fill="rgb(87,87,86)" stroke="none" stroke-width="1" />
                    <path id="eykmbgkppihb23" d="M141.612720,163.186530C141.612429,163.748247,141.383561,164.285659,140.978777,164.675115C140.573993,165.064571,140.028150,165.272532,139.466840,165.251150C138.909699,165.271096,138.368816,165.061349,137.970784,164.670998C137.572751,164.280647,137.352504,163.743954,137.361590,163.186530C137.366253,162.633342,137.590854,162.104747,137.985824,161.717402C138.380795,161.330056,138.913666,161.115801,139.466840,161.121920C140.626795,161.106441,141.583426,162.026842,141.612720,163.186530ZM137.929360,189.174310L137.929360,169.217840L141.046050,169.217840L141.046050,189.174310Z" transform="matrix(1 0 0 1 0.00000100000000 60.29420000000000)" fill="rgb(87,87,86)" stroke="none" stroke-width="1" />
                    <path id="eykmbgkppihb24" d="M160.476480,188.122230C159.154400,189.142783,157.532004,189.697609,155.861850,189.700340C151.895150,189.700340,149.263850,187.352400,149.263850,182.940930L149.263850,171.808490L144.932550,171.808490L144.932550,169.217840L149.263850,169.217840L149.263850,162.862570L152.380540,162.862570L152.380540,169.217840L159.504540,169.217840L159.504540,171.808490L152.380540,171.808490L152.380540,182.737770C152.380540,185.328420,153.837850,186.785770,156.063900,186.785770C157.293901,186.732789,158.479284,186.309847,159.465020,185.572260Z" transform="matrix(1 0 0 1 0.00000100000000 60.29420000000000)" fill="rgb(87,87,86)" stroke="none" stroke-width="1" />
                    <path id="eykmbgkppihb25" d="M183.065330,177.232500L183.065330,189.174310L179.989270,189.174310L179.989270,177.800310C179.989270,174.075220,177.762120,171.565840,174.443370,171.565840C170.273510,171.565840,167.521420,174.399190,167.521420,179.580490L167.521420,189.174360L164.445370,189.174360L164.445370,160.029260L167.521420,160.029260L167.521420,172.537700C169.190384,170.036887,172.047328,168.592996,175.050670,168.732440C179.867370,168.732440,183.065330,172.173090,183.065330,177.232500Z" transform="matrix(1 0 0 1 0.00000100000000 60.29420000000000)" fill="rgb(87,87,86)" stroke="none" stroke-width="1" />
                    <path id="eykmbgkppihb26" d="M218.894060,189.174310L215.818000,189.174310L215.818000,186.017000C213.908926,188.436092,210.963445,189.803445,207.883520,189.700350C202.580320,189.700350,197.926150,185.531590,197.926150,179.216950C197.926150,172.902310,202.580320,168.732450,207.883520,168.732450C210.963447,168.629359,213.908927,169.996716,215.818000,172.415810L215.818000,169.217810L218.894060,169.217810ZM215.818000,179.216940C215.883963,177.192026,215.130878,175.226013,213.728996,173.763359C212.327114,172.300705,210.394810,171.464916,208.368920,171.444940C204.240790,171.444940,200.920920,174.439730,200.920920,179.216940C200.920920,183.952370,204.240770,186.948260,208.368920,186.948260C210.388401,186.930715,212.315889,186.101347,213.717139,184.647005C215.118389,183.192663,215.875535,181.235678,215.818000,179.216940Z" transform="matrix(1 0 0 1 0.00000100000000 60.29420000000000)" fill="rgb(87,87,86)" stroke="none" stroke-width="1" />
                    <path id="eykmbgkppihb27" d="M248.205000,188.122230C246.882921,189.142784,245.260525,189.697611,243.590370,189.700340C239.623680,189.700340,236.992370,187.352400,236.992370,182.940930L236.992370,171.808490L232.661080,171.808490L232.661080,169.217840L236.992370,169.217840L236.992370,162.862570L240.109060,162.862570L240.109060,169.217840L247.233060,169.217840L247.233060,171.808490L240.109060,171.808490L240.109060,182.737770C240.109060,185.328420,241.566370,186.785770,243.792420,186.785770C245.022421,186.732789,246.207804,186.309847,247.193540,185.572260Z" transform="matrix(1 0 0 1 0.00000100000000 60.29420000000000)" fill="rgb(87,87,86)" stroke="none" stroke-width="1" />
                    <path id="eykmbgkppihb28" d="M272.291770,189.255570L269.417770,189.255570L264.195830,174.115810L258.933260,189.255570L256.059260,189.255570L249.339380,169.217840L252.457170,169.217840L257.597830,184.681580L262.940570,169.217840L265.410420,169.217840L270.753160,184.681580L275.893820,169.217840L279.010510,169.217840Z" transform="matrix(1 0 0 1 0.00000100000000 60.29420000000000)" fill="rgb(87,87,86)" stroke="none" stroke-width="1" />
                    <path id="eykmbgkppihb29" d="M287.312930,163.186530C287.312639,163.748247,287.083771,164.285659,286.678987,164.675115C286.274203,165.064571,285.728360,165.272532,285.167050,165.251150C284.609911,165.271094,284.069031,165.061345,283.671000,164.670994C283.272969,164.280643,283.052724,163.743952,283.061810,163.186530C283.066473,162.633344,283.291072,162.104751,283.686041,161.717405C284.081009,161.330060,284.613878,161.115803,285.167050,161.121920C286.327005,161.106441,287.283636,162.026842,287.312930,163.186530ZM283.629580,189.174310L283.629580,169.217840L286.746260,169.217840L286.746260,189.174310Z" transform="matrix(1 0 0 1 0.00000100000000 60.29420000000000)" fill="rgb(87,87,86)" stroke="none" stroke-width="1" />
                    <path id="eykmbgkppihb30" d="M295.571390,183.102370C295.854720,185.733650,298.282840,187.150370,301.440160,187.150370C304.314160,187.150370,306.217330,185.814960,306.217330,183.750370C306.217330,182.091000,304.962080,181.321160,302.938100,180.876370L298.364100,179.863830C295.045340,179.176360,293.182800,177.516980,293.182800,174.763830C293.182800,171.161740,296.178680,168.732530,300.752680,168.732530C305.245410,168.732530,308.160030,171.039840,308.889230,174.278430L305.933980,174.925270C305.528750,172.739850,303.626670,171.241910,300.671410,171.241910C297.838060,171.241910,296.258850,172.619050,296.258850,174.521130C296.258850,176.099240,297.352660,176.828450,299.295370,177.273220L304.112070,178.326390C307.026690,178.973230,309.252740,180.511810,309.252740,183.548330C309.252740,187.474390,305.974610,189.700430,301.197450,189.700430C296.623450,189.700430,292.980730,187.676430,292.495320,183.791030Z" transform="matrix(1 0 0 1 0.00000100000000 60.29420000000000)" fill="rgb(87,87,86)" stroke="none" stroke-width="1" />
                    <path id="eykmbgkppihb31" d="M326.661390,188.122230C325.339312,189.142786,323.716915,189.697612,322.046760,189.700340C318.080070,189.700340,315.448760,187.352400,315.448760,182.940930L315.448760,171.808490L311.117470,171.808490L311.117470,169.217840L315.448760,169.217840L315.448760,162.862570L318.565450,162.862570L318.565450,169.217840L325.689450,169.217840L325.689450,171.808490L318.565450,171.808490L318.565450,182.737770C318.565450,185.328420,320.022760,186.785770,322.248810,186.785770C323.478811,186.732789,324.664194,186.309847,325.649930,185.572260Z" transform="matrix(1 0 0 1 0.00000100000000 60.29420000000000)" fill="rgb(87,87,86)" stroke="none" stroke-width="1" />
                </g>
            </g>
        </g>
    </g>
</svg>