<?xml version="1.0" ?>
<svg xmlns="http://www.w3.org/2000/svg" class="icon icon--ListiumMark" role="graphics-symbol" viewBox="0 0 240 240">
	<g fill="#F44636">
		<path d="M36 216V46.8c0-6.627 5.373-12 12-12s12 5.373 12 12V216h156c6.627 0 12 5.373 12 12s-5.373 12-12 12H24c-6.627 0-12-5.373-12-12s5.373-12 12-12h12z"/>
		<path d="M94.8 78c-6.627 0-12-5.373-12-12s5.373-12 12-12h50.4c6.627 0 12 5.373 12 12s-5.373 12-12 12H94.8zm1.2 54c-6.627 0-12-5.373-12-12s5.373-12 12-12h48c6.627 0 12 5.373 12 12s-5.373 12-12 12H96zm48 30c6.627 0 12 5.373 12 12s-5.373 12-12 12H96c-6.627 0-12-5.373-12-12s5.373-12 12-12h48z"/>
		<path d="M204 24v170.4c0 6.627-5.373 12-12 12s-12-5.373-12-12V24H24c-6.627 0-12-5.373-12-12S17.373 0 24 0h192c6.627 0 12 5.373 12 12s-5.373 12-12 12h-12z"/>
	</g>
</svg>