<?xml version="1.0" encoding="UTF-8"?>
<!-- Generator: Adobe Illustrator 22.1.0, SVG Export Plug-In . SVG Version: 6.00 Build 0)  -->
<svg version="1.1" id="svg2" xmlns:cc="http://creativecommons.org/ns#" xmlns:dc="http://purl.org/dc/elements/1.1/" xmlns:rdf="http://www.w3.org/1999/02/22-rdf-syntax-ns#" xmlns:svg="http://www.w3.org/2000/svg" xmlns="http://www.w3.org/2000/svg"  x="0px" y="0px" viewBox="0 0 165 135.1" style="enable-background:new 0 0 165 135.1;" xml:space="preserve">
<style type="text/css">
	.st0{fill:#243356;}
	.st1{fill:#426FD9;}
	.st2{fill:#FFFFFF;}
</style>
<g>
	<path class="st0" d="M4,106.4h4.4v21.2h13.3v4H4V106.4z"/>
	<path class="st0" d="M25.6,106.4H30v25.3h-4.4V106.4z"/>
	<path class="st0" d="M33.8,106.4h4.9l7.6,19.4l7.6-19.4h4.8l-10.5,25.4h-3.9L33.8,106.4z"/>
	<path class="st0" d="M62.1,106.4h18.7v4H66.5v6.6h12.7v4H66.5v6.8H81v4H62.1V106.4z"/>
	<path class="st1" d="M83.7,106.4h2.1l9.9,23.2l9.9-23.2h2l-11.1,25.4h-1.7L83.7,106.4z"/>
	<path class="st1" d="M109.5,119.1L109.5,119.1c0-7,5.1-13.1,12.7-13.1c7.6,0,12.7,6.1,12.7,13c0,0,0,0,0,0.1   c0,6.9-5.1,13.1-12.7,13.1C114.5,132.1,109.5,126,109.5,119.1z M132.9,119.1L132.9,119.1c0-6.3-4.5-11.4-10.8-11.4   c-6.2,0-10.7,5.1-10.7,11.3v0.1c0,6.2,4.5,11.4,10.8,11.4S132.9,125.4,132.9,119.1z"/>
	<path class="st1" d="M146.7,118.8l-9.7-12.4h2.2l8.6,11.1l8.6-11.1h2.2l-9.7,12.3l10,12.9h-2.2l-9-11.7l-8.9,11.7h-2.2L146.7,118.8   z"/>
</g>
<g>
	<circle class="st1" cx="81.5" cy="45.6" r="41.8"/>
	<path class="st2" d="M105.1,67.7c-1.6-2.3-5.8-12-25.5-11.7c-18.6,0.2-20.9-0.4-22.7-1c0,0,4.5,11.2,24.1,10.9   C102.2,65.5,105.1,67.7,105.1,67.7z"/>
	<path class="st2" d="M103.6,50.7c-1.5-2.1-5.3-11-23.3-10.7c-17,0.2-19.1-0.4-20.7-0.9c0,0,4.1,10.2,22,10   C101,48.7,103.6,50.7,103.6,50.7z"/>
	<path class="st2" d="M99.7,34.7c-1.2-1.7-4.2-8.8-18.7-8.6c-13.6,0.2-15.2-0.3-16.5-0.7c0,0,3.3,8.2,17.6,8   C97.7,33.1,99.7,34.7,99.7,34.7z"/>
</g>
</svg>