<?xml version="1.0" ?>
<svg xmlns="http://www.w3.org/2000/svg" viewBox="0 0 1543 307">
	<style>
		.s0 { fill: #78de1f } 
		.s1 { fill: #01602a } 
	</style>
	<path id="Layer" class="s0" d="m165.8 0.7l-71.6 29.4c-1.9 0.7-3.5 2-4.6 3.7-1.1 1.7-1.7 3.7-1.6 5.7v80.3l56.6-22.8c8.8-3.4 16.4-9.4 21.7-17.2 5.3-7.9 8.1-17.2 7.9-26.7v-46.7c0.1-1-0.1-2.1-0.6-3-0.4-0.9-1.1-1.7-1.9-2.3-0.9-0.6-1.9-0.9-2.9-1-1-0.1-2 0.1-3 0.6z"/>
	<path id="Layer" class="s1" d="m1 162v43.3c0 58.9 42.6 101.6 101.6 101.6h63.8c1 0 2.1-0.1 3-0.5 1-0.4 1.9-1 2.6-1.7 0.8-0.8 1.4-1.6 1.7-2.6q0.6-1.5 0.6-3.1v-71c0-1-0.2-2.1-0.6-3-0.3-1-0.9-1.9-1.7-2.6-0.7-0.8-1.6-1.4-2.5-1.8-1-0.3-2.1-0.5-3.1-0.5h-65.3c-1.7 0.1-3.5-0.2-5.1-0.9-1.6-0.6-3.1-1.6-4.3-2.8-1.3-1.2-2.2-2.7-2.9-4.3-0.6-1.7-0.9-3.4-0.9-5.2v-87.2l-80.6 32.9c-1.9 0.7-3.6 2-4.7 3.7-1.1 1.7-1.7 3.7-1.6 5.7z"/>
	<path id="Layer" fill-rule="evenodd" class="s1" d="m523.6 263.4c-53.4 0-96.5-42.9-96.5-96 0-53.1 43.1-96 96.5-96 53.4 0 96.6 42.9 96.6 96 0 53.1-43.2 96-96.6 96zm55.3-96c0-32.2-24.8-58.3-55.5-58.3-30.6 0-55.4 26.1-55.4 58.3 0 32.3 24.8 58.3 55.4 58.3 30.7 0 55.5-26 55.5-58.3z"/>
	<path id="Layer" class="s1" d="m813.7 211l-30.2-16.3q-0.6-0.3-1.2-0.4-0.6 0-1.2 0.2-0.6 0.2-1 0.7-0.5 0.4-0.7 1c-4.6 9-11.6 16.5-20.3 21.7-8.6 5.2-18.6 7.9-28.7 7.8-32.8 0-56-25.4-56-58.3 0-32.9 23.2-58.3 56-58.3 10.1-0.1 20.1 2.6 28.7 7.8 8.7 5.2 15.7 12.7 20.3 21.7q0.2 0.6 0.7 1.1 0.4 0.4 1 0.6 0.6 0.2 1.2 0.2 0.6-0.1 1.2-0.4l30.2-16.3q0.6-0.2 1-0.7 0.4-0.4 0.5-1 0.2-0.6 0.1-1.2-0.1-0.6-0.5-1.1c-16.2-29.5-47.2-48.4-84.4-48.4-55.3 0-97.3 41.4-97.3 96 0 54.6 42 96 97.3 96 37.2 0 68.6-18.9 84.8-48.8 0.3-0.6 0.3-1.4 0-2.1-0.3-0.7-0.8-1.2-1.5-1.5z"/>
	<path id="Layer" class="s1" d="m422.3 222.8h-94.4v-144.7c0-0.8-0.4-1.5-0.9-2-0.5-0.6-1.3-0.9-2-1h-34.7c-0.7 0.1-1.5 0.4-2 1-0.5 0.5-0.9 1.2-0.9 2v147.6c0 21.1 12.9 34 33.9 34h101c0.7-0.1 1.5-0.4 2-0.9 0.5-0.6 0.9-1.3 0.9-2.1v-31c0-0.7-0.4-1.5-0.9-2-0.5-0.6-1.3-0.9-2-0.9z"/>
	<path id="Layer" class="s1" d="m1340.1 222.8h-96.7l95.2-113.3c1-1.2 1.5-2.6 1.5-4.1v-27.3c-0.1-0.7-0.4-1.4-1-2-0.5-0.5-1.2-0.9-2-0.9h-141.5c-0.8 0-1.5 0.4-2 0.9-0.6 0.6-0.9 1.3-1 2v31.1c0.1 0.7 0.4 1.4 1 2 0.5 0.5 1.2 0.8 2 0.9h92l-95 113.7c-0.9 1.1-1.4 2.5-1.4 4v26.9c0 0.8 0.3 1.5 0.9 2 0.5 0.6 1.3 0.9 2 1h146c0.8-0.1 1.5-0.4 2-1 0.6-0.5 0.9-1.2 0.9-2v-31c0-0.8-0.3-1.5-0.9-2-0.5-0.6-1.3-0.9-2-0.9z"/>
	<path id="Layer" class="s1" d="m1160.9 9.1h-34.6c-0.8 0-1.5 0.4-2 0.9-0.6 0.5-0.9 1.3-1 2v35.5c0.1 0.7 0.4 1.4 1 2 0.5 0.5 1.2 0.9 2 0.9h13.2c3.3 0.1 6.5-0.5 9.5-1.6 3-1.2 5.7-3 8-5.3 2.3-2.3 4-5 5.2-8 1.2-3 1.8-6.2 1.7-9.5v-14c-0.1-0.7-0.4-1.5-0.9-2-0.6-0.5-1.3-0.9-2.1-0.9z"/>
	<path id="Layer" fill-rule="evenodd" class="s1" d="m1541.1 76.1c0.6 0.5 0.9 1.2 0.9 2v178.6c0 0.8-0.3 1.5-0.9 2-0.5 0.6-1.2 0.9-2 1h-34.7c-0.7-0.1-1.4-0.4-2-1-0.5-0.5-0.8-1.2-0.9-2v-21.9c-10.3 14.9-32.3 28.6-59 28.6-50.5 0-88.9-43.2-88.9-96 0-52.8 38.4-96 88.9-96 26.7 0 48.7 13.7 59 28.6v-21.9c0.1-0.8 0.4-1.5 0.9-2 0.6-0.6 1.3-0.9 2-1h34.7c0.8 0.1 1.5 0.4 2 1zm-36.3 91.3c0-32.7-24.5-59-54.9-59-30.4 0-54.9 26.3-54.9 59 0 32.7 24.5 59 54.9 59 30.4 0 54.9-26.3 54.9-59z"/>
	<path id="Layer" fill-rule="evenodd" class="s1" d="m1013 76.1c0.6 0.5 0.9 1.2 0.9 2v178.6c0 0.8-0.3 1.5-0.9 2-0.5 0.6-1.2 0.9-2 1h-34.7c-0.7-0.1-1.5-0.4-2-1-0.5-0.5-0.9-1.2-0.9-2v-21.9c-10.3 14.9-32.3 28.6-59 28.6-50.5 0-88.9-43.2-88.9-96 0-52.8 38.4-96 88.9-96 26.7 0 48.7 13.7 59 28.6v-21.9c0-0.8 0.4-1.5 0.9-2 0.6-0.6 1.3-0.9 2-1h34.7c0.8 0.1 1.5 0.4 2 1zm-91.2 150.3q0 0-0.1 0 0 0 0 0zm0 0c32.4 0 54.9-25.8 54.9-59 0-33.2-22.5-59-54.9-59-32.4 0-54.9 25.8-54.9 59 0 33.2 22.5 59 54.9 59z"/>
	<path id="Layer" class="s1" d="m1160.9 75.1h-34.6c-1.6 0-3 1.4-3 3v178.6c0 1.6 1.4 3 3 3h34.6c1.7 0 3-1.4 3-3v-178.6c0-1.6-1.3-3-3-3z"/>
	<path id="Layer" class="s1" d="m1086.1 9.1h-34.6c-1.7 0-3 1.3-3 2.9v244.7c0 1.6 1.3 3 3 3h34.6c1.6 0 2.9-1.4 2.9-3v-244.7c0-1.6-1.3-2.9-2.9-2.9z"/>
</svg>