<svg viewBox="0 0 176 23" fill="none" xmlns="http://www.w3.org/2000/svg">
<path d="M0.0244947 2.72656C-0.0495021 4.36603 0.0468241 5.91195 0.27734 7.36307C2.20582 5.49452 8.10641 2.30678 16.281 4.50425L16.4227 0.595836C9.51152 -1.04477 3.00351 1.04612 0.0244947 2.72656Z" fill="#010123"/>
<path d="M23.256 3.56917C22.1034 2.80391 20.933 2.18331 19.7599 1.68755C19.9781 4.86504 19.1471 12.3747 14.0771 16.9933C14.2275 17.1655 15.0914 17.7555 17.3441 18.7376C21.6672 14.0843 23.1211 7.28844 23.256 3.56917Z" fill="#010123"/>
<path d="M11.5959 14.7147C14.9539 11.7849 15.7961 8.67633 15.7976 7.48827C8.00636 5.75493 2.71478 8.82719 1.04288 10.58C3.17513 17.2319 8.07238 21.3874 10.9245 22.8821C12.2655 22.4463 13.4708 21.8476 14.5525 21.1263C9.68833 18.6896 6.28825 13.931 5.19623 11.8562L8.13009 10.2743C9.09046 12.7604 10.8408 14.2704 11.5959 14.7147Z" fill="#010123"/>
<path d="M45.4891 17.2433V15.0297H40.4478V5.64186H37.9918V17.2433H45.4891Z" fill="#010123"/>
<path d="M59.5432 17.4857C62.9041 17.4857 65.5055 14.9004 65.5055 11.4264C65.5055 7.95246 62.9041 5.39949 59.5432 5.39949C56.1985 5.39949 53.6132 7.95246 53.6132 11.4264C53.6132 14.9004 56.1985 17.4857 59.5432 17.4857ZM59.5432 15.2882C57.4265 15.2882 56.1339 13.5593 56.1339 11.4264C56.1339 9.29358 57.4265 7.59698 59.5432 7.59698C61.6761 7.59698 62.9687 9.29358 62.9687 11.4264C62.9687 13.5593 61.6761 15.2882 59.5432 15.2882Z" fill="#010123"/>
<path d="M80.4166 17.4857C83.4705 17.4857 85.8619 15.4659 86.2658 12.4606H83.6644C83.3735 14.1248 82.097 15.2882 80.4489 15.2882C78.4615 15.2882 77.1204 13.7047 77.1204 11.4264C77.1204 9.16431 78.4615 7.59698 80.4489 7.59698C82.097 7.59698 83.3897 8.7442 83.6644 10.4085H86.2658C85.8619 7.4354 83.4705 5.39949 80.4166 5.39949C77.1527 5.39949 74.5997 8.03325 74.5997 11.4264C74.5997 14.8358 77.1527 17.4857 80.4166 17.4857Z" fill="#010123"/>
<path d="M98.5157 11.9435L102.652 17.2433H105.674L100.939 11.2002L105.544 5.64186H102.733L98.5157 10.7478V11.9435Z" fill="#010123"/>
<path d="M123.567 13.6401C123.567 11.9273 122.468 10.9902 120.432 10.5862L118.445 10.1823C117.604 10.0207 116.877 9.68137 116.877 8.88963C116.877 8.08172 117.556 7.40309 118.752 7.40309C119.98 7.40309 120.82 8.22715 120.901 9.439H123.389C123.227 7.01529 121.321 5.49644 118.719 5.49644C116.215 5.49644 114.389 6.98298 114.389 9.05121C114.389 10.974 115.746 11.9273 117.507 12.2667L119.414 12.6383C120.4 12.8322 120.965 13.2685 120.965 13.9956C120.965 14.9327 120.076 15.4821 118.832 15.4821C117.33 15.4821 116.506 14.658 116.441 13.3816H113.953C114.13 15.8376 115.956 17.4049 118.881 17.4049C121.789 17.4049 123.567 15.8537 123.567 13.6401Z" fill="#010123"/>
<path d="M141.261 15.1105H135.913V12.3313H140.663V10.2146H135.913V7.77472H141.148V5.64186H133.457V17.2433H141.261V15.1105Z" fill="#010123"/>
<path d="M158.737 17.2433V15.0297H153.696V5.64186H151.24V17.2433H158.737Z" fill="#010123"/>
<path d="M170.959 17.2433V12.816H175.208V10.6993H170.959V7.77472H176V5.64186H168.503V17.2433H170.959Z" fill="#010123"/>
<path fill-rule="evenodd" clip-rule="evenodd" d="M94.2179 19.7793V2.6114H96.7426V19.7793H94.2179Z" fill="#010123"/>
</svg>
