<svg viewBox="0 0 125 33" fill="none" xmlns="http://www.w3.org/2000/svg">
<path d="M42.7643 29.9432C34.9119 29.9768 29.4207 24.4168 29.3865 16.3989C29.3539 8.70036 34.8793 3.08025 42.5264 3.03696C50.6131 2.99214 56.0738 8.44164 56.1247 16.6123C56.1756 24.2584 50.5092 29.9101 42.7653 29.9432H42.7643ZM42.8193 0.00102937C33.4192 -0.0947188 26.6302 6.49917 26.3496 15.5937C26.0399 25.6457 32.4683 32.8294 42.7307 32.9975C52.1395 33.1503 59.0252 26.3547 59.1204 16.7697C59.2223 6.77776 52.7287 0.100343 42.8178 0.00102937H42.8193ZM68.2404 32.7596H70.9779L71.0288 17.553H72.7192L90.454 17.579V14.5257L71.1516 14.543L71.1893 3.47903H91.3066V0.54496H68.2409V32.7596H68.2404ZM96.1367 0.51593V3.46019C99.9229 3.46019 107.156 3.4337 107.156 3.4337L108.699 3.44644C108.699 3.44644 108.671 22.4025 108.671 31.1273V32.6848H111.74V3.43931H124.123V0.51593H96.1367ZM2.82406 0.677378H0V32.8218H23.196V29.8765H2.82406V0.677378Z" fill="black"/>
</svg>
