<svg xmlns="http://www.w3.org/2000/svg" id="Vrstva_1" viewBox="0 0 841.89 253.954"><script xmlns=""/><defs><style>.cls-1{fill:#0f0fd7}</style></defs><path d="M100.158 147.328V89.082H89.585v67.243h45.261v-8.997h-34.688Zm83.568-15.767c0-18.087-12.43-26.064-24.302-26.064-11.779 0-24.206 7.977-24.206 26.064 0 17.994 12.427 25.968 24.206 25.968 11.872 0 24.302-7.974 24.302-25.968m-24.302 17.808c-7.233 0-14.006-5.474-14.006-17.808 0-12.616 6.773-17.901 14.006-17.901 7.328 0 14.099 5.471 14.099 17.901 0 12.148-6.77 17.808-14.099 17.808m65.296-42.944v7.328c-3.061-5.102-8.07-8.256-15.398-8.256-11.593 0-21.238 9.183-21.238 24.95 0 15.86 9.645 25.043 21.238 25.043 7.328 0 12.337-3.154 15.398-8.256v5.285c0 5.102-1.02 7.7-2.968 9.831-2.041 2.32-5.288 3.619-10.017 3.619-7.235 0-10.11-2.689-11.131-7.235h-9.924c1.578 10.482 9.738 15.305 20.869 15.305 7.605 0 13.634-2.041 17.436-6.029 3.433-3.433 5.381-8.349 5.381-17.529v-44.057h-9.645Zm-13.171 7.049c7.421 0 13.541 5.102 13.541 16.974 0 11.965-6.119 17.16-13.541 17.16-7.977 0-13.171-6.308-13.171-17.16 0-10.666 5.195-16.974 13.171-16.974m40.345 42.851V129.52c0-9.924 3.802-15.953 11.503-15.953 8.718 0 9.831 6.677 9.831 13.913v28.845h9.645V129.52c0-9.924 3.895-15.953 11.5-15.953 8.718 0 9.831 6.677 9.831 13.913v28.845h9.648v-31.441c0-11.596-4.546-19.386-16.232-19.386-6.491 0-12.337 2.596-16.509 8.811-2.227-5.564-6.773-8.811-14.471-8.811-7.142 0-11.872 3.247-14.747 8.163v-7.235h-9.645v49.9h9.645Zm67.124-13.45c0 9.09 7.698 14.654 17.808 14.654 8.07 0 13.727-2.782 16.695-7.791.186 3.154.462 4.639.834 6.587h9.276c-.927-4.453-1.392-10.575-1.392-17.994 0-2.134.186-10.759.186-11.965.186-14.933-7.235-21.148-20.128-21.148-11.407 0-20.125 6.401-20.959 16.974h9.738c.369-6.122 4.172-9.552 10.852-9.552 6.122 0 10.759 2.968 10.759 11.779v1.02c-19.386 2.041-33.668 5.288-33.668 17.436m34.13-10.294v3.616c0 9.924-6.212 13.913-14.189 13.913-5.843 0-9.462-2.875-9.462-7.421 0-6.491 8.163-8.625 23.651-10.108m26.619-18.921v-7.235h-9.645v49.9h9.645V129.52c0-9.924 4.081-15.953 12.43-15.953 9.09 0 10.294 6.677 10.294 13.913v28.845h9.648v-31.441c0-11.596-4.639-19.386-16.697-19.386-7.791 0-12.797 3.247-15.674 8.163m37.388 29.215c0 9.09 7.698 14.654 17.808 14.654 8.07 0 13.727-2.782 16.695-7.791.186 3.154.462 4.639.834 6.587h9.276c-.927-4.453-1.392-10.575-1.392-17.994 0-2.134.186-10.759.186-11.965.186-14.933-7.235-21.148-20.128-21.148-11.407 0-20.125 6.401-20.959 16.974h9.738c.369-6.122 4.174-9.552 10.852-9.552 6.119 0 10.759 2.968 10.759 11.779v1.02c-19.386 2.041-33.668 5.288-33.668 17.436m34.13-10.294v3.616c0 9.924-6.212 13.913-14.189 13.913-5.846 0-9.462-2.875-9.462-7.421 0-6.491 8.163-8.625 23.651-10.108m51.383-26.157v7.328c-3.061-5.102-8.07-8.256-15.395-8.256-11.596 0-21.241 9.183-21.241 24.95 0 15.86 9.645 25.043 21.241 25.043 7.326 0 12.334-3.154 15.395-8.256v5.285c0 5.102-1.02 7.7-2.968 9.831-2.041 2.32-5.288 3.619-10.017 3.619-7.233 0-10.108-2.689-11.128-7.235h-9.924c1.576 10.482 9.738 15.305 20.869 15.305 7.605 0 13.634-2.041 17.436-6.029 3.433-3.433 5.378-8.349 5.378-17.529v-44.057h-9.645Zm-13.169 7.049c7.419 0 13.541 5.102 13.541 16.974 0 11.965-6.122 17.16-13.541 17.16-7.979 0-13.171-6.308-13.171-17.16 0-10.666 5.192-16.974 13.171-16.974m65.665 28.194c-2.041 4.732-6.122 7.607-13.078 7.607-7.791 0-13.634-5.75-14.561-14.933h38.026c1.02-16.232-7.974-28.845-23.372-28.845-14.192 0-24.578 10.296-24.578 25.785 0 14.468 8.718 26.247 24.857 26.247 12.706 0 20.128-7.605 22.445-15.86h-9.738Zm-27.453-14.93c1.297-9.462 6.863-13.357 14.375-13.357 7.977 0 13.171 5.936 13.45 13.357h-27.825Zm71.992-10.389v-10.017c-.834-.093-2.439-.093-4.658-.093-6.215 0-11.221 3.34-13.82 8.997v-8.811h-9.459v49.9h9.645v-26.157c0-10.48 3.895-14.099 11.317-14.099 3.056 0 5.213.093 6.975.279"/><path d="M639.741 116.945c12.491 0 22.617-9.866 22.617-22.035s-10.126-22.038-22.617-22.038-22.617 9.868-22.617 22.038 10.126 22.035 22.617 22.035M766.134 94.908c0-12.17-10.124-22.035-22.617-22.035h-53.851c-12.491 0-22.617 9.866-22.617 22.035s10.126 22.035 22.617 22.035h53.851c12.494 0 22.617-9.863 22.617-22.035" class="cls-1"/></svg>