<?xml version="1.0" encoding="UTF-8"?>
<svg xmlns="http://www.w3.org/2000/svg" viewBox="0 0 176 21" fill="none">
  <g clip-path="url(#clip0_6843_3023)">
    <path d="M17.3146 0.586426L16.4111 5.64715L15.5156 10.716H19.1602C19.922 10.716 20.5743 10.173 20.708 9.42548L21.3827 5.64715L22.2842 0.586426H17.3146Z" fill="#009DFF"/>
    <path d="M14.5245 5.64715L15.4281 0.586426H10.4565L9.56102 5.64715L8.65746 10.716L7.75391 15.7848H12.7255L13.629 10.716L14.5245 5.64715Z" fill="#009DFF"/>
    <path d="M4.91891 0.586426C4.15515 0.586426 3.5028 1.1314 3.37112 1.87896L2.70459 5.64715L1.80104 10.716L0.905583 15.7848L0 20.8455H4.96956L5.86502 15.7848L6.76857 10.716L7.66403 5.64715L8.56961 0.586426H4.91891Z" fill="#18032C"/>
    <path d="M7.75288 15.7847L6.85742 20.8454H11.8189L12.7224 15.7847H7.75288Z" fill="#18032C"/>
    <path d="M34.4414 0.868164V20.6492H45.5941V16.9296H39.2692V0.868164H34.4414Z" fill="#18032C"/>
    <path d="M67.4081 10.7018C67.4081 4.75575 62.9187 0.586426 57.2705 0.586426C51.6222 0.586426 47.0781 4.75575 47.0781 10.7018C47.0781 16.6479 51.6526 20.8455 57.2705 20.8455C62.8883 20.8455 67.4081 16.6479 67.4081 10.7018ZM52.0193 10.7018C52.0193 7.17874 54.0533 4.95429 57.2705 4.95429C60.4876 4.95429 62.4953 7.18077 62.4953 10.7018C62.4953 14.2228 60.4329 16.4493 57.2705 16.4493C54.108 16.4493 52.0193 14.1661 52.0193 10.7018Z" fill="#18032C"/>
    <path d="M79.3583 0.643139C73.4284 0.643139 69.2773 4.81247 69.2773 10.7302C69.2773 16.6478 73.4568 20.7888 79.3866 20.7888C84.6094 20.7888 87.9137 17.3792 88.9307 13.9696V9.4903H78.4264V13.0397H84.5547C83.8214 15.2662 82.154 16.5344 79.7554 16.5344C76.2829 16.5344 74.1922 14.393 74.1922 10.7302C74.1922 7.29218 76.2526 5.09407 79.3603 5.09407C81.1674 5.09407 82.5228 5.79908 83.2561 7.122H88.5924C87.547 3.0641 84.103 0.641113 79.3583 0.641113V0.643139Z" fill="#18032C"/>
    <path d="M96.4313 9.71532V4.75589H99.0569C100.977 4.75589 101.796 5.71415 101.796 7.23561C101.796 8.75707 100.977 9.71532 99.0569 9.71532H96.4313ZM106.709 7.23561C106.709 3.60112 104.28 0.868164 99.4236 0.868164H91.6016V20.6492H96.4293V13.5483H99.4216C104.476 13.5483 106.707 10.5054 106.707 7.23763L106.709 7.23561Z" fill="#18032C"/>
    <path d="M128.736 10.7018C128.736 4.75575 124.247 0.586426 118.599 0.586426C112.95 0.586426 108.404 4.75575 108.404 10.7018C108.404 16.6479 112.979 20.8455 118.599 20.8455C124.219 20.8455 128.736 16.6479 128.736 10.7018ZM113.348 10.7018C113.348 7.17874 115.382 4.95429 118.601 4.95429C121.82 4.95429 123.824 7.18077 123.824 10.7018C123.824 14.2228 121.763 16.4493 118.601 16.4493C115.438 16.4493 113.348 14.1661 113.348 10.7018Z" fill="#18032C"/>
    <path d="M131.422 20.6492H136.25V0.868164H131.422V20.6492Z" fill="#18032C"/>
    <path d="M152.653 0.868164V13.1249L144.578 0.868164H139.75V20.6492H144.578V8.44913L152.653 20.6492H157.481V0.868164H152.653Z" fill="#18032C"/>
    <path d="M159.91 4.72753H165.161V20.6471H169.989V4.72753H175.242V0.868164H159.91V4.72753Z" fill="#18032C"/>
  </g>
  <defs>
    <clipPath id="clip0_6843_3023">
      <rect width="175.241" height="20.2591" fill="white" transform="translate(0 0.586426)"/>
    </clipPath>
  </defs>
</svg>