<?xml version="1.0" ?>
<svg xmlns="http://www.w3.org/2000/svg" viewBox="0 0 1524 379">
	<defs>
		<clipPath clipPathUnits="userSpaceOnUse" id="cp1">
			<path d="m-5774.09-4495.01h7826.25v5533.79h-7826.25z"/>
		</clipPath>
	</defs>
	<style>
		.s0 { fill: #000000 } 
		.s1 { fill: #e2201d } 
		.s2 { fill: #ffffff } 
	</style>
	<g id="Clip-Path: Page 1" clip-path="url(#cp1)">
		<g id="Page 1">
			<path id="Path 5" class="s0" d="m0.8 201.5h1519.7v-5.1h-1519.7zm617.6 92.9v50.7h9.3v-50.7z"/>
			<path id="Path 7" fill-rule="evenodd" class="s0" d="m605 294l12 50.6h-11.6l-7.9-30.6-7.9 30.6h-5.1l-7.9-30.6c-1.4 6-5.6 23.2-7.4 30.6h-14.9c-2.3-10.2-5.1-20.4-7.4-30.2-3.3 10.2-6.1 20-9.3 30.2-5.6 1.9-5.1 1.9-10.3 2.8-3.2 0-9.7 0.5-14.8-0.9-19.6-4.7-30.2-21.9-25.6-41.4 0.5-1.4 0.9-2.3 1.4-3.7 8.4-15.3 22.3-21.8 39.5-20 4.2 0.5 8.4 1.9 12.6 3.3l1.3 0.4-3.7 6.1c-0.4 0-1.4-0.9-1.8-0.9-38.6-18.6-57.2 38.1-22.3 50.1 2.8 1.4 6.9 1.9 10.2 1.9 2.8 0 6-0.5 7.9-2.3 0.9-0.5 0.9-1.4 1.4-2.8 12.5-42.8 12.1-41.4 12.5-43.2h7l11.6 47.4 12.1-47.4c1.9 0 4.2 0 6.5 0l7 28.3 7.4-28.3q3.7 0 7.5 0zm80.8 0l12.1 50.6h-11.2c-2.3-10.2-4.6-20.9-7.4-30.6-2.8 9.7-5.6 19.5-8.4 29.7-0.9 0.9-11.6 1.4-14.4 1.4-39.9-2.3-33.4-58.1 9.3-51.6q1.9 0 3.8 0.5c1.8 0.4 3.7 1.4 5.5 1.8l-2.8 4.7c-1.8-1-4.1-2.3-6.5-2.8-22.7-6.1-34.8 18.6-23.7 35.3 4.2 6 13 9.8 22.8 7l13.5-46zm89.2 48.8c-6 3.7-11.1 4.1-17.2 4.6-2.3 0-4.2-0.5-6.5-0.9-7.4-1.9-14.4-6.1-18.1-12.6h-0.5c-8.3 12.1-20 10.7-33.4 10.7v-50.6h13.4c7.5 0 14 0.9 18.6 6h0.5c7.4-15.3 26-25.1 42.3-15.3 21.4 13.5 23.2 42.3 0.9 58.1zm-47.4-30.2c-1.9-10.3-7.4-15.4-17.7-14.4v41.3c16.8-0.5 19.1-13.9 17.7-26.9zm37.7-25.6c-2.4-0.9-5.2-0.9-7.9-0.9-27.9 3.7-29.8 49.2-3.3 55.7 2.3 0.5 4.2 0.5 6.5 0.5 27.4-3.3 29.7-46.5 4.7-55.3z"/>
			<path id="Path 8" class="s1" d="m1.3 378.5h391.7v-116.1h-391.7z"/>
			<path id="Path 9" fill-rule="evenodd" class="s2" d="m64 350.2c-16.5 0-29.8-13.3-29.8-29.7 0-16.5 13.3-29.8 29.8-29.8 16.4 0 29.7 13.3 29.7 29.8 0 16.4-13.3 29.7-29.7 29.7zm81.8-6h-7.4l-14.9-22.8h-5.1v22.8h-7v-47.4h17.2c8.4 0 14.9 4.6 14.9 11.6 0 6.9-4.7 11.6-12.6 13zm-20.9-26.5c6.5 0 11.2-3.7 11.2-8.8 0-5.1-4.2-8.9-9.8-8.9h-7.9v17.7zm55.8 26h-25.6v-46.9h24.6v3.2h-18.1v17.7h16.7v3.3h-16.7v19.5h19.1zm46 0h-2.8l-28.4-34.9v34.9h-3.7v-47h2.8l28.4 34.9v-34.9h3.7zm48.8 0h-2.8l-28.4-35.3v35.3h-3.7v-47.4h2.8l28.4 34.9v-34.9h3.7zm39 0h-25.5v-47.3h24.6v3.2h-18.1v18.1h16.7v3.3h-16.7v19.5h19zm45.1 0h-7.9l-14.4-22.8h-5.1v22.8h-7v-47.4h17.2c8.4 0 14.4 4.6 14.4 11.6 0 7-4.2 11.6-12.1 12.6zm-20.9-26.1c6.5 0 11.2-3.7 11.2-8.8 0-5.1-4.2-8.8-9.8-8.8h-7.9v17.6z"/>
			<path id="Path 10" class="s1" d="m72.4 303.7c-1.4 1-4.2 3.3-7.5 8.4 0.5-1.4 1.4-6 0.5-8.4-0.5-1.4-2.8-2.3-6.1-1.8-2.3 0.4-8.3 3.7-12.5 9.7-0.5 0.5-0.5 1-0.5 1.4 0.5 0.5 1 1 1.4 0.5 0 0 1.9-2.3 3.3-3.3 1.4-1.4 2.3-1.4 2.3-1.4 0.9 0 0.9 0.5 0.9 1.4-0.4 1.4-9.3 25.6-9.7 26.5 0 0.5-0.5 0.9 0 1.4q0.4 0 0.9 0h9.3c0.5 0 0.9-0.5 0.9-0.5q3.7-10.2 7-16.7c1.4-2.3 4.2-7.4 7.9-11.6 1.4-0.9 2.8-1.4 3.3-0.5 0 2.4 1.3 4.7 4.1 5.2 1.9 0 5.1-1.4 6.1-5.2 1.4-4.6-3.3-10.6-11.6-5.1z"/>
			<path id="Path 11" fill-rule="evenodd" class="s0" d="m1270.9 281q-5.1 2.3-8.3 6-3.3 3.7-4.7 8.8-1.4 5.1-1.4 10.7v36.7h-2.8v-65h2.8v15.8q0.9-3.3 2.8-6.5 1.9-3.3 5.1-6.1 3.3-2.3 7.9-3.7 4.2-1.4 10.2-0.9v2.3q-6.9-0.5-11.6 1.9zm7.9 30.2q0 6.5 1.4 12 1.9 5.6 4.7 9.8 3.2 4.2 7.9 7 5.1 2.3 12.1 2.3 10.6 0 17.1-5.6 7-5.1 8.9-16.2h2.3q-1.4 11.6-8.8 18.1-7.9 6-19.1 6-7.9 0-13.5-2.3-5.1-2.8-8.8-7-3.2-5.1-5.1-11.1-1.4-6.5-1.4-13.5 0-7.9 2.3-14.4 2.4-6.5 6.5-10.7 3.8-4.6 9.3-7 5.1-1.8 10.7-1.8 7.5 0 13 2.8 5.6 2.8 9.3 7.4 3.3 5.1 5.1 11.2 1.4 6.5 1.4 13zm50.7-14q-1.4-5.1-4.7-9.3-3.2-4.2-8.3-6.5-4.7-2.3-11.2-2.3-5.6 0-10.2 1.9-4.6 2.3-8.4 6-3.2 3.7-5.5 9.3-1.9 5.6-2.4 12.5h52.5q0-6-1.8-11.6zm58.1 44.6q-2.3-1.4-2.3-5.1v-8.3q-1 3.2-3.3 6-2.3 2.8-6 5.1-3.3 2.3-7.5 3.7-4.2 1.4-9.7 1.4-9.8 0-15.8-4.2-6.1-4.6-6.1-13.4 0-6.1 1.9-9.8 2.3-3.7 5.1-5.6 3.2-2.3 7.4-2.8 4.2-0.9 8.4-1.4 6.5 0 11.6-0.4 4.7-0.5 7.9-1.4 3.3-0.9 4.7-2.8 1.4-1.9 1.4-5.6 0-3.2-0.5-6-0.5-3.3-2.3-6.1-1.9-2.7-6.1-4.1-3.7-1.9-10.2-1.9-10.2 0-16.3 5.1-5.5 5.1-6.5 14h-2.3q0-4.7 1.9-8.4 1.8-4.2 4.6-7 3.3-2.8 7.9-4.6 4.7-1.4 10.7-1.4 4.2 0 8.4 0.9 3.7 0.5 6.5 2.8 3.2 2.3 5.1 6 1.8 3.3 1.8 8.9v41.3q0 1.9 1 2.8 0.4 0.9 1.8 1.4 1.4 0 2.8 0 1.4 0 2.8 0v2.3h-3.7q-3.3 0-5.1-1.4zm-2.3-36.7q-1.4 1.4-4.2 2.8-2.8 0.9-6.1 1.4-3.2 0.5-7.4 0.5-4.2 0-7.9 0.4-3.7 0-7.4 1-3.8 0.4-6.5 2.3-2.8 1.8-4.7 5.1-1.4 3.2-1.4 8.4 0 2.7 0.5 5.5 1.4 2.8 3.7 5.1 2.3 1.9 5.6 3.3 3.7 1.4 9.3 1.4 6.5 0 11.1-2.3 5.1-1.9 8.4-5.6 3.7-3.3 5.1-7.9 1.9-4.7 1.9-9.3zm14.4-52.5h2.8v90.6h-2.8zm10.2 0h2.3v12.5h-2.3zm0 25.6h2.3v65.1h-2.3zm58.1 62.7v2.3h-51.1v-3.3l46.4-59.4h-42.7v-2.3h45.1v3.2l-46.1 59.5zm55.8-29.8h-54.8q0 6.5 1.4 12.6 1.4 5.6 4.6 9.7 3.3 4.2 7.9 6.5 5.1 2.4 12.1 2.4 10.2 0 17.2-5.6 7-5.1 8.4-15.8h2.8q-1.4 11.1-9.3 17.7-7.5 6-19.1 6-7.4 0-13-2.3-5.6-2.8-8.8-7-3.8-4.6-5.2-11.1-1.8-6.1-1.8-13.5 0-7.9 2.3-14.4 2.8-6.5 6.5-10.7 4.2-4.2 9.3-6.5 5.1-2.3 10.7-2.3 7.9 0 13.5 2.7 5.6 2.8 8.8 7.9 3.7 4.7 5.1 10.7 1.9 6.5 1.4 13zm-4.2-13.9q-1.4-5.1-4.6-9.3-3.3-4.2-8.4-6.5-4.6-2.3-11.1-2.3-5.6 0-10.3 2.3-4.6 1.9-8.3 5.6-3.3 4.2-5.6 9.3-1.9 5.5-2.3 12.5h52.5q0-6-1.9-11.6zm-605.5-6h6l-15.3 30.6v37.2h-5.6v-37.2l-15.8-30.6h6l12.6 24.6zm241.7 68.3v-55.8l-14.4 31.6h-4.7l-14.4-31.6v46h-5.6v-58.5h5.6l16.7 37.2 16.8-37.2h5.5v68.3z"/>
			<path id="Path 12" fill-rule="evenodd" class="s0" d="m960.9 300.9q-0.9-2.7-3.2-5.1-5.6-5.1-13.5-5.1-7.9 0-13 5.1-2.3 2.4-3.7 5.1-0.9 2.8-0.9 6.1-0.5 3.2-0.5 10.2 0 5.1 0 7.4 0 2.8 0.5 5.6 0.4 2.3 1.3 4.2 1 1.9 3.3 3.7 5.1 5.6 13 5.6 7.9 0 13.5-5.6 2.3-2.3 3.2-5.1 1.4-2.8 1.4-6 0.5-3.3 0.5-9.8 0-7-0.5-10.2 0-3.3-1.4-6.1zm-4.1 23.7q0 2.4-0.5 4.2 0 1.9-0.9 3.3-0.5 1.4-1.9 2.8-1.9 1.8-4.2 2.7-2.3 1-5.1 1-2.3 0-4.6-1-2.4-0.9-4.2-2.7-2.3-2.4-3.3-6.1-0.4-3.2-0.4-11.6 0-8.8 0.4-12.1 1-3.2 3.3-6 1.8-1.9 4.2-2.8 2.3-0.9 4.6-0.9 2.8 0 5.1 0.9 2.3 1.4 4.2 2.8 1.4 1.4 1.9 2.8 0.9 1.4 0.9 3.2 0.5 1.9 0.5 4.7 0.4 2.3 0.4 7.4 0 4.7-0.4 7.4zm145-23.7q-1-2.7-3.3-5.1-5.6-5.5-13.5-5.5-7.9 0-13 5.5-2.8 2.4-3.7 5.1-0.9 2.8-1.4 6.1 0 3.2 0 10.2 0 5.1 0 7.4 0 2.8 0.5 5.1 0.4 2.8 1.4 4.7 0.9 1.9 3.2 3.7 5.1 5.6 13 5.6 7.9 0 13.5-5.6 2.3-2.3 3.3-5.1 1.4-2.8 1.4-6 0.4-3.3 0.4-9.8 0-7-0.4-10.2 0-3.3-1.4-6.1zm-4.2 23.3q0 2.8-0.5 4.6 0 1.9-0.9 3.3-0.9 1.4-1.9 2.8-1.8 1.8-4.2 2.7-2.3 1-5.1 1-2.3 0-4.6-1-2.3-0.9-4.2-2.7-2.3-2.4-3.3-6.1-0.4-3.2-0.4-11.6 0-8.8 0.4-12.1 1-3.2 3.3-6 1.9-1.9 4.2-2.8 2.3-0.9 4.6-0.9 2.8 0 5.1 0.9 2.4 0.9 4.2 2.8 1 1.4 1.9 2.8 0.9 1.4 0.9 3.2 0.5 1.9 0.5 4.7 0.4 2.3 0.4 7.4 0 4.7-0.4 7zm-66.9-21.4q0.9-1.9 2.3-3.7 1.8-1.9 4.2-2.8 2.3-0.9 5.1-0.9 3.2 0 5.6 1.4 2.3 1.4 5.1 3.7l3.7-3.7q-3.3-2.8-6.5-4.7-3.7-1.4-7.9-1.4-7.9 0-13.5 5.1-2.3 2.4-3.3 5.1-1.4 2.8-1.4 6.1-0.4 3.2-0.4 10.2 0 5.1 0.4 7.4 0 2.8 0.5 5.6 0.5 2.3 1.4 4.2 0.9 1.9 2.8 3.7 5.6 5.6 13.5 5.6 4.2 0 7.9-1.9 3.2-1.4 6.5-4.6l-3.7-3.7q-1.9 1.8-3.3 2.8-1.4 1.3-3.2 1.8-1.9 0.5-4.2 0.5-5.6 0-9.3-3.7-2.3-2.4-2.8-6.1-0.9-3.2-0.9-11.6 0-6 0.4-9.3 0-2.8 1-5.1zm-24.7 22.8q0 3.7-1.8 6.9-1.4 2.8-4.2 4.7-3.3 1.4-7 1.4-3.7 0-6.5-1.4-2.8-1.9-4.2-4.7-1.8-3.2-1.8-6.9v-42.8h-5.6v43.2q0 3.7 1.4 7 1.4 3.3 3.7 5.6 2.8 2.3 6 3.7 3.3 1.4 7 1.4 4.2 0 7.4-1.4 3.3-1.4 6.1-3.7 2.3-2.3 3.7-5.6 1.4-3.3 1.4-7v-52.5h-5.6zm-1004.7-322.4v133.3h67.3v-9.3h-57.6v-124z"/>
			<path id="Path 13" fill-rule="evenodd" class="s0" d="m325.2 2.6l54.8 133.4h-10.7l-14.8-36.2h-67l-14.4 36.2h-10.7l54.9-133.4zm-33.5 87.9h59l-29.7-72.5zm436.9-87.8v9.3h-62.8v48.7h59v9.8h-59v56.7h64.1v8.8h-74.3v-133.3zm131 0v133.3h-8.3l-85.1-116.1v116.1h-10.2v-133.3h8.8l85.1 115.7v-115.7zm128.7 0v133.3h-8.3l-85.6-116.1v116.1h-9.7v-133.3h8.3l85.1 115.7v-115.7zm99.9 0v9.3h-62.7v48.7h59v9.8h-59v56.7h64.1v8.8h-73.9v-133.3zm355.1 0l54.8 133.3h-10.7l-14.8-36.2h-67l-14.4 36.2h-10.7l54.9-133.3zm-33.5 87.8h59l-29.7-72.5zm-1013.1 12.1c6.5 16.2 19 26.5 37.6 26.5 23.7 0 30.2-14.9 30.2-26.5 0-17.2-11.1-23.7-32.1-33-19.9-8.8-34.3-16.7-34.3-37.2 0-18.6 14.4-32 34.3-32 15.8 0 27 6.9 34 19.5l-8.4 4.6c-5.6-10.2-13.5-14.9-25.6-14.9-13.9 0-24.1 8.9-24.1 22.4 0 15.7 11.6 21.3 29.3 29.2 24.1 10.7 36.7 19.1 36.7 41.4 0 20.9-14.4 35.8-40 35.8-21.4 0-38.1-10.7-46.5-32.1z"/>
			<path id="Path 14" fill-rule="evenodd" class="s0" d="m542.2 2.6h42.8c21.8 0 39 16.3 39 38.6 0 17.7-10.7 32.1-26 37.2l32 57.6h-10.6l-31.6-55.8c-1 0-3.8 0-3.8 0h-31.6v55.8h-10.2zm41.8 68.3c17.2 0 30.2-12.5 30.2-29.7 0-16.3-13-29.3-29.7-29.3h-32.1v59zm933 66.4c-3.7 0-6.7-3.1-6.7-6.9 0-3.9 3-7 6.7-7 3.7 0 6.7 3.1 6.7 7 0 3.8-3 6.9-6.7 6.9z"/>
			<path id="Path 15" fill-rule="evenodd" class="s0" d="m1115.2 2.6h42.8c21.4 0 39 16.3 39 38.6 0 17.7-10.7 32.1-26.5 37.2l32.6 57.6h-11.2l-31.1-55.8c-1.4 0-35.3 0-35.8 0v55.8h-9.8zm41.9 68.3c17.2 0 29.7-12.5 29.7-29.7 0-16.3-12.5-29.3-29.3-29.3h-32.5v59zm108.3 31.6c6.5 16.3 19.5 26.9 37.6 26.9 23.7 0 30.7-15.3 30.7-26.9 0-17.2-11.2-23.7-32.1-33-20.4-8.8-34.4-16.7-34.4-37.2 0-18.6 14.4-32 34-32 16.2 0 27.4 6.9 34.4 19.5l-8.9 4.6c-5.1-10.2-13.4-14.8-25.5-14.8-13.5 0-24.2 9.3-24.2 22.3 0 16.2 12.1 21.8 29.3 29.2 24.1 10.7 37.2 19.1 37.2 41.4 0 20.9-14.4 35.8-40.5 35.8-20.9 0-38.1-10.3-46-31.6zm94.1 34.4c-4.2 0-7.6-3.4-7.6-7.5 0-4.1 3.4-7.4 7.6-7.4 4.3 0 7.7 3.3 7.7 7.4 0 4.1-3.4 7.5-7.7 7.5zm-1222.2 1.4c-38.2 0-69.1-30.9-69.1-69 0-38.2 30.9-69 69.1-69 38.1 0 69 30.8 69 69 0 38.1-30.9 69-69 69zm58.7-69c0-33.1-26.3-59.8-59-59.8-32.6 0-59 26.7-59 59.8 0 33 26.4 59.7 59 59.7 32.7 0 59-26.7 59-59.7zm11.2 57.8c2.8 0.9 7 1.4 10.7 1.4 15.3 0 19-10.7 19-27.4v-98.5h9.8v98c0 21.4-3.7 37.7-28.3 37.7q-6.3 0-11.2-1.4z"/>
		</g>
	</g>
</svg>