<?xml version="1.0" ?>
<svg xmlns="http://www.w3.org/2000/svg" viewBox="0 0 128 128">
	<g id="layer1"  transform="translate(0,-172)">
		<g id="layer9" >
			<circle r="60.000008" cy="236" cx="64" id="circle911" style="opacity:1;fill:#e73434;fill-opacity:1;stroke:none;stroke-width:8.00000095;stroke-linejoin:round;stroke-miterlimit:4;stroke-dasharray:1.00000016, 0.50000007999999996;stroke-dashoffset:0;stroke-opacity:1;enable-background:new"/>
			<path style="opacity:1;fill:#f6f5f4;fill-opacity:1;stroke:none;stroke-width:8.06862259;stroke-opacity:1;enable-background:new" d="m 52.526654,177.1072 c -1.542527,0.28344 -3.073694,0.62813 -4.589334,1.0304 -1.929414,0.53493 -3.831381,1.16837 -5.697686,1.89366 -1.865933,0.72476 -3.696208,1.54253 -5.480471,2.4506 -1.784035,0.90824 -3.517565,1.90357 -5.201993,2.98531 -1.685026,1.08196 -3.316046,2.25287 -4.884526,3.49769 -1.568338,1.24442 -3.075084,2.56535 -4.511364,3.95997 -0.184785,0.19562 -0.364198,0.38842 -0.545818,0.58481 1.288197,8.84144 4.031776,17.00229 11.718406,25.75935 a 34.932435,34.932435 0 0 1 9.379179,-10.93867 c -1.037676,-12.278 3.289991,-21.90532 9.813607,-31.22312 z m 27.057044,0.97468 c -7.005729,5.5382 -12.692259,11.98479 -16.430275,23.01354 A 34.932435,34.932435 0 0 1 64,201.06691 a 34.932435,34.932435 0 0 1 13.333588,2.65666 c 10.09982,-7.02176 20.586921,-8.09004 31.902582,-7.10674 -0.69517,-0.83687 -1.41524,-1.65839 -2.15543,-2.45622 -1.39493,-1.43636 -2.86305,-2.79839 -4.39441,-4.08809 -1.53117,-1.28982 -3.126409,-2.5065 -4.778699,-3.63691 -1.652403,-1.13052 -3.355789,-2.17585 -5.112876,-3.13571 -1.757002,-0.95982 -3.563978,-1.83248 -5.408069,-2.61212 -1.844261,-0.7798 -3.723689,-1.46371 -5.636418,-2.05516 -0.716528,-0.19734 -1.442712,-0.3813 -2.16657,-0.55139 z M 7.2682121,216.50647 c -0.2218565,0.57931 -0.4303304,1.1633 -0.6349347,1.74886 -0.5900017,1.91252 -1.0894471,3.85263 -1.4870781,5.81463 -0.3976878,1.96203 -0.6968607,3.94525 -0.8967027,5.93714 -0.1996139,1.9923 -0.3007583,3.9906 -0.3007583,5.9929 -2.567e-4,1.41726 0.041719,2.83595 0.1503663,4.24958 0.1414407,1.99737 0.3855001,3.98641 0.7240453,5.95945 0.3139071,1.76849 0.7099754,3.51888 1.1807505,5.25212 8.3110956,3.31077 16.7575706,5.01236 28.2043766,2.72353 a 34.932435,34.932435 0 0 1 -4.79541,-13.57865 C 18.260981,235.36942 12.078035,226.81189 7.2681979,216.50645 Z m 96.8272279,0.32304 c -3.32268,-0.0665 -6.70218,0.26349 -10.3093,0.97469 a 34.932435,34.932435 0 0 1 4.800982,13.59533 c 11.152058,5.23661 17.334728,13.78852 22.144668,24.09402 0.22186,-0.57851 0.43033,-1.16337 0.63493,-1.74885 0.59,-1.91264 1.08945,-3.85246 1.48708,-5.81464 0.39771,-1.96182 0.69686,-3.93969 0.8967,-5.9316 0.19962,-1.99235 0.30076,-3.99636 0.30076,-5.99846 2.3e-4,-1.41737 -0.0426,-2.83035 -0.15039,-4.24402 -0.14144,-1.99728 -0.38551,-3.98635 -0.72405,-5.95945 -0.31553,-1.77656 -0.70626,-3.53907 -1.18075,-5.27995 -6.45997,-2.30237 -12.10517,-3.57127 -17.90065,-3.68707 z m -9.429305,35.9015 a 34.932435,34.932435 0 0 1 -9.379182,10.93867 c 1.03765,12.278 -3.290102,21.90537 -9.813607,31.22312 1.542502,-0.28344 3.073754,-0.62726 4.589337,-1.03038 1.929297,-0.53493 3.831409,-1.16842 5.697686,-1.89368 1.866048,-0.7247 3.696265,-1.54258 5.480471,-2.4506 1.784035,-0.90809 3.517537,-1.90349 5.201993,-2.98531 1.684913,-1.08168 3.316015,-2.24722 4.884527,-3.4921 1.56825,-1.24434 3.07508,-2.57094 4.51135,-3.96556 0.1848,-0.19648 0.36981,-0.38842 0.5514,-0.58481 -1.2882,-8.84161 -4.03746,-17.00234 -11.723975,-25.75935 z m -43.99972,15.54471 c -10.099685,7.02187 -20.581423,8.09582 -31.897011,7.11238 0.69517,0.83764 1.409748,1.65275 2.149859,2.4506 1.395044,1.43611 2.863051,2.80401 4.394404,4.09366 1.531294,1.28984 3.126469,2.50082 4.778702,3.63135 1.652375,1.13044 3.361447,2.1759 5.118449,3.13568 1.757058,0.95994 3.558377,1.83251 5.402496,2.61214 1.844176,0.77981 3.72929,1.4691 5.64199,2.06073 0.72229,0.19876 1.447691,0.3805 2.177708,0.55139 7.00285,-5.53957 12.685567,-11.99241 16.419137,-23.02467 A 34.932435,34.932435 0 0 1 64,270.93234 34.932435,34.932435 0 0 1 50.666415,268.27566 Z" id="path1047-3"/>
			<circle style="opacity:1;fill:#f6f5f4;fill-opacity:1;stroke:none;stroke-width:7.19999933;stroke-linejoin:round;stroke-miterlimit:4;stroke-dasharray:0.89999996, 0.44999999;stroke-dashoffset:0;stroke-opacity:1;enable-background:new" id="circle913" cx="64" cy="236" r="36"/>
			<g transform="translate(6,-150)" id="g1108" style="fill:#e73434;fill-opacity:1">
				<circle style="opacity:1;vector-effect:none;fill:#e73434;fill-opacity:1;stroke:none;stroke-width:12;stroke-linecap:butt;stroke-linejoin:round;stroke-miterlimit:4;stroke-dasharray:none;stroke-dashoffset:0;stroke-opacity:1" id="circle1098" cx="48" cy="248" r="8"/>
				<rect style="opacity:1;vector-effect:none;fill:#e73434;fill-opacity:1;stroke:none;stroke-width:12;stroke-linecap:butt;stroke-linejoin:round;stroke-miterlimit:4;stroke-dasharray:none;stroke-dashoffset:0;stroke-opacity:1" id="rect1100" width="4" height="28" x="52" y="220"/>
				<circle r="8" cy="244" cx="68" id="circle1102" style="opacity:1;vector-effect:none;fill:#e73434;fill-opacity:1;stroke:none;stroke-width:12;stroke-linecap:butt;stroke-linejoin:round;stroke-miterlimit:4;stroke-dasharray:none;stroke-dashoffset:0;stroke-opacity:1"/>
				<rect y="216" x="72" height="28" width="4" id="rect1104" style="opacity:1;vector-effect:none;fill:#e73434;fill-opacity:1;stroke:none;stroke-width:12;stroke-linecap:butt;stroke-linejoin:round;stroke-miterlimit:4;stroke-dasharray:none;stroke-dashoffset:0;stroke-opacity:1"/>
				<path style="fill:#e73434;fill-opacity:1;stroke:none;stroke-width:1px;stroke-linecap:butt;stroke-linejoin:miter;stroke-opacity:1" d="m 52,220 24,-6 v 8 l -24,6 z" id="path1106"/>
			</g>
			<path style="opacity:0.2;fill:#000000;fill-opacity:1;stroke:none;stroke-width:8.00000095;stroke-linejoin:round;stroke-miterlimit:4;stroke-dasharray:1.00000016, 0.50000008;stroke-dashoffset:0;stroke-opacity:1;enable-background:new" d="M 123.9375,62.246094 A 60.000008,60.000008 0 0 1 64,121 60.000008,60.000008 0 0 1 4.0625,62.753906 60.000008,60.000008 0 0 0 4,64 a 60.000008,60.000008 0 0 0 60,60 60.000008,60.000008 0 0 0 60,-60 60.000008,60.000008 0 0 0 -0.0625,-1.753906 z" transform="translate(0,172)" id="circle1110"/>
		</g>
		<g transform="translate(89.000001,-383)" id="g4135" >
			<rect style="color:#bebebe;overflow:visible;visibility:visible;fill:none;stroke:none;stroke-width:1;marker:none" id="rect3246-4-1" width="16" height="16" x="40" y="487"/>
			<path style="color:#000000;fill:#bebebe;fill-opacity:1;fill-rule:nonzero;stroke:none;stroke-width:2;marker:none;enable-background:accumulate" d="m 84,609 v 10 H 84.90625 85 c 0.174914,10e-4 0.347782,-0.0388 0.5,-0.125 l 7,-4 c 0.310699,-0.17189 0.46875,-0.52345 0.46875,-0.875 0,-0.35155 -0.158051,-0.70311 -0.46875,-0.875 l -7,-4 C 85.347782,609.03875 85.174914,608.99869 85,609 h -0.09375 z" transform="translate(-39.99995,-119)" id="path3807-1-1-9-38-4"/>
		</g>
		<g  id="g1140" transform="matrix(3,0,0,3,-78,-1249)">
			<rect y="487" x="40" height="16" width="16" id="rect1136" style="color:#bebebe;fill:none;stroke:none;stroke-width:1;marker:none"/>
			<path id="path1138" transform="translate(-39.99995,-119)" d="m 84,609 v 10 H 84.90625 85 c 0.174914,10e-4 0.347782,-0.0388 0.5,-0.125 l 7,-4 c 0.310699,-0.17189 0.46875,-0.52345 0.46875,-0.875 0,-0.35155 -0.158051,-0.70311 -0.46875,-0.875 l -7,-4 C 85.347782,609.03875 85.174914,608.99869 85,609 h -0.09375 z" style="color:#000000;fill:#e73434;fill-opacity:1;fill-rule:nonzero;stroke:none;stroke-width:2;marker:none;enable-background:accumulate"/>
		</g>
	</g>
</svg>