<?xml version="1.0" encoding="UTF-8" standalone="no"?>
<!-- Created with Inkscape (http://www.inkscape.org/) -->

<svg
   viewBox="0 0 67.32058 67.32058"
   version="1.1"
   id="svg1"
   xmlns="http://www.w3.org/2000/svg"
   xmlns:svg="http://www.w3.org/2000/svg">
  <defs
     id="defs1">
    <clipPath
       clipPathUnits="userSpaceOnUse"
       id="clipPath23">
      <path
         d="M 0,0 H 1280 V 800 H 0 Z"
         transform="translate(-945.25165,-535.00002)"
         id="path23" />
    </clipPath>
    <clipPath
       clipPathUnits="userSpaceOnUse"
       id="clipPath25">
      <path
         d="M 0,0 H 1280 V 800 H 0 Z"
         transform="translate(-945.25165,-514.10742)"
         id="path25" />
    </clipPath>
    <clipPath
       clipPathUnits="userSpaceOnUse"
       id="clipPath27">
      <path
         d="M 0,0 H 1280 V 800 H 0 Z"
         transform="translate(-995.88685,-458.10101)"
         id="path27" />
    </clipPath>
    <clipPath
       clipPathUnits="userSpaceOnUse"
       id="clipPath29">
      <path
         d="M 0,0 H 1280 V 800 H 0 Z"
         transform="translate(-856.7137,-427.39461)"
         id="path29" />
    </clipPath>
    <clipPath
       clipPathUnits="userSpaceOnUse"
       id="clipPath31">
      <path
         d="M 0,0 H 1280 V 800 H 0 Z"
         transform="translate(-864.40112,-416.17511)"
         id="path31" />
    </clipPath>
    <clipPath
       clipPathUnits="userSpaceOnUse"
       id="clipPath33">
      <path
         d="M 0,0 H 1280 V 800 H 0 Z"
         transform="translate(-868.02662,-400.10901)"
         id="path33" />
    </clipPath>
    <clipPath
       clipPathUnits="userSpaceOnUse"
       id="clipPath35">
      <path
         d="M 0,0 H 1280 V 800 H 0 Z"
         transform="translate(-881.92885,-390.72591)"
         id="path35" />
    </clipPath>
    <clipPath
       clipPathUnits="userSpaceOnUse"
       id="clipPath37">
      <path
         d="M 0,0 H 1280 V 800 H 0 Z"
         transform="translate(-883.82132,-374.61651)"
         id="path37" />
    </clipPath>
    <clipPath
       clipPathUnits="userSpaceOnUse"
       id="clipPath39">
      <path
         d="M 0,0 H 1280 V 800 H 0 Z"
         transform="translate(-895.7701,-365.14671)"
         id="path39" />
    </clipPath>
    <clipPath
       clipPathUnits="userSpaceOnUse"
       id="clipPath41">
      <path
         d="M 0,0 H 1280 V 800 H 0 Z"
         transform="translate(-908.30702,-358.13581)"
         id="path41" />
    </clipPath>
    <clipPath
       clipPathUnits="userSpaceOnUse"
       id="clipPath43">
      <path
         d="M 0,0 H 1280 V 800 H 0 Z"
         transform="translate(-927.76225,-352.02681)"
         id="path43" />
    </clipPath>
    <clipPath
       clipPathUnits="userSpaceOnUse"
       id="clipPath45">
      <path
         d="M 0,0 H 1280 V 800 H 0 Z"
         transform="translate(-939.4687,-355.36071)"
         id="path45" />
    </clipPath>
    <clipPath
       clipPathUnits="userSpaceOnUse"
       id="clipPath47">
      <path
         d="M 0,0 H 1280 V 800 H 0 Z"
         transform="translate(-948.30415,-351.82151)"
         id="path47" />
    </clipPath>
    <clipPath
       clipPathUnits="userSpaceOnUse"
       id="clipPath49">
      <path
         d="M 0,0 H 1280 V 800 H 0 Z"
         transform="translate(-960.50215,-351.14321)"
         id="path49" />
    </clipPath>
    <clipPath
       clipPathUnits="userSpaceOnUse"
       id="clipPath51">
      <path
         d="M 0,0 H 1280 V 800 H 0 Z"
         transform="translate(-973.21615,-364.66381)"
         id="path51" />
    </clipPath>
    <clipPath
       clipPathUnits="userSpaceOnUse"
       id="clipPath53">
      <path
         d="M 0,0 H 1280 V 800 H 0 Z"
         transform="translate(-988.7932,-361.63611)"
         id="path53" />
    </clipPath>
    <clipPath
       clipPathUnits="userSpaceOnUse"
       id="clipPath55">
      <path
         d="M 0,0 H 1280 V 800 H 0 Z"
         transform="translate(-999.17282,-369.43281)"
         id="path55" />
    </clipPath>
    <clipPath
       clipPathUnits="userSpaceOnUse"
       id="clipPath57">
      <path
         d="M 0,0 H 1280 V 800 H 0 Z"
         transform="translate(-1003.7247,-379.08471)"
         id="path57" />
    </clipPath>
    <clipPath
       clipPathUnits="userSpaceOnUse"
       id="clipPath59">
      <path
         d="M 0,0 H 1280 V 800 H 0 Z"
         transform="translate(-1017.4608,-387.08811)"
         id="path59" />
    </clipPath>
    <clipPath
       clipPathUnits="userSpaceOnUse"
       id="clipPath61">
      <path
         d="M 0,0 H 1280 V 800 H 0 Z"
         transform="translate(-1015.7046,-401.69371)"
         id="path61" />
    </clipPath>
    <clipPath
       clipPathUnits="userSpaceOnUse"
       id="clipPath63">
      <path
         d="M 0,0 H 1280 V 800 H 0 Z"
         transform="translate(-1029.6339,-410.37831)"
         id="path63" />
    </clipPath>
    <clipPath
       clipPathUnits="userSpaceOnUse"
       id="clipPath65">
      <path
         d="M 0,0 H 1280 V 800 H 0 Z"
         transform="translate(-1029.5038,-425.53131)"
         id="path65" />
    </clipPath>
    <clipPath
       clipPathUnits="userSpaceOnUse"
       id="clipPath67">
      <path
         d="M 0,0 H 1280 V 800 H 0 Z"
         transform="translate(-866.5411,-448.35181)"
         id="path67" />
    </clipPath>
    <clipPath
       clipPathUnits="userSpaceOnUse"
       id="clipPath69">
      <path
         d="M 0,0 H 1280 V 800 H 0 Z"
         transform="translate(-863.5615,-461.29171)"
         id="path69" />
    </clipPath>
    <clipPath
       clipPathUnits="userSpaceOnUse"
       id="clipPath71">
      <path
         d="M 0,0 H 1280 V 800 H 0 Z"
         transform="translate(-866.1763,-479.21941)"
         id="path71" />
    </clipPath>
    <clipPath
       clipPathUnits="userSpaceOnUse"
       id="clipPath73">
      <path
         d="M 0,0 H 1280 V 800 H 0 Z"
         transform="translate(-876.2236,-488.32871)"
         id="path73" />
    </clipPath>
    <clipPath
       clipPathUnits="userSpaceOnUse"
       id="clipPath75">
      <path
         d="M 0,0 H 1280 V 800 H 0 Z"
         transform="translate(-887.81035,-506.55582)"
         id="path75" />
    </clipPath>
    <clipPath
       clipPathUnits="userSpaceOnUse"
       id="clipPath77">
      <path
         d="M 0,0 H 1280 V 800 H 0 Z"
         transform="translate(-898.40282,-509.92362)"
         id="path77" />
    </clipPath>
    <clipPath
       clipPathUnits="userSpaceOnUse"
       id="clipPath79">
      <path
         d="M 0,0 H 1280 V 800 H 0 Z"
         transform="translate(-911.05412,-516.88291)"
         id="path79" />
    </clipPath>
    <clipPath
       clipPathUnits="userSpaceOnUse"
       id="clipPath81">
      <path
         d="M 0,0 H 1280 V 800 H 0 Z"
         transform="translate(-925.7185,-516.41941)"
         id="path81" />
    </clipPath>
    <clipPath
       clipPathUnits="userSpaceOnUse"
       id="clipPath83">
      <path
         d="M 0,0 H 1280 V 800 H 0 Z"
         transform="translate(-948.99272,-521.28882)"
         id="path83" />
    </clipPath>
    <clipPath
       clipPathUnits="userSpaceOnUse"
       id="clipPath85">
      <path
         d="M 0,0 H 1280 V 800 H 0 Z"
         transform="translate(-966.00925,-525.56952)"
         id="path85" />
    </clipPath>
    <clipPath
       clipPathUnits="userSpaceOnUse"
       id="clipPath87">
      <path
         d="M 0,0 H 1280 V 800 H 0 Z"
         transform="translate(-975.0475,-512.87701)"
         id="path87" />
    </clipPath>
    <clipPath
       clipPathUnits="userSpaceOnUse"
       id="clipPath89">
      <path
         d="M 0,0 H 1280 V 800 H 0 Z"
         transform="translate(-988.00075,-517.13881)"
         id="path89" />
    </clipPath>
    <clipPath
       clipPathUnits="userSpaceOnUse"
       id="clipPath91">
      <path
         d="M 0,0 H 1280 V 800 H 0 Z"
         transform="translate(-992.54192,-503.13951)"
         id="path91" />
    </clipPath>
    <clipPath
       clipPathUnits="userSpaceOnUse"
       id="clipPath93">
      <path
         d="M 0,0 H 1280 V 800 H 0 Z"
         transform="translate(-1004.9415,-492.60311)"
         id="path93" />
    </clipPath>
    <clipPath
       clipPathUnits="userSpaceOnUse"
       id="clipPath95">
      <path
         d="M 0,0 H 1280 V 800 H 0 Z"
         transform="translate(-1012.849,-486.07911)"
         id="path95" />
    </clipPath>
    <clipPath
       clipPathUnits="userSpaceOnUse"
       id="clipPath97">
      <path
         d="M 0,0 H 1280 V 800 H 0 Z"
         transform="translate(-1016.0361,-474.91831)"
         id="path97" />
    </clipPath>
    <clipPath
       clipPathUnits="userSpaceOnUse"
       id="clipPath99">
      <path
         d="M 0,0 H 1280 V 800 H 0 Z"
         transform="translate(-1020.042,-465.40271)"
         id="path99" />
    </clipPath>
    <clipPath
       clipPathUnits="userSpaceOnUse"
       id="clipPath101">
      <path
         d="M 0,0 H 1280 V 800 H 0 Z"
         transform="translate(-1032.4569,-449.69271)"
         id="path101" />
    </clipPath>
    <clipPath
       clipPathUnits="userSpaceOnUse"
       id="clipPath103">
      <path
         d="M 0,0 H 1280 V 800 H 0 Z"
         transform="translate(-863.1979,-439.44871)"
         id="path103" />
    </clipPath>
    <clipPath
       clipPathUnits="userSpaceOnUse"
       id="clipPath105">
      <path
         d="M 0,0 H 1280 V 800 H 0 Z"
         transform="translate(-1031.9847,-438.19101)"
         id="path105" />
    </clipPath>
    <clipPath
       clipPathUnits="userSpaceOnUse"
       id="clipPath107">
      <path
         d="M 0,0 H 1280 V 800 H 0 Z"
         transform="translate(-890.11472,-425.83971)"
         id="path107" />
    </clipPath>
    <clipPath
       clipPathUnits="userSpaceOnUse"
       id="clipPath109">
      <path
         d="M 0,0 H 1280 V 800 H 0 Z"
         transform="translate(-898.75682,-428.54861)"
         id="path109" />
    </clipPath>
    <clipPath
       clipPathUnits="userSpaceOnUse"
       id="clipPath111">
      <path
         d="M 0,0 H 1280 V 800 H 0 Z"
         transform="translate(-907.2886,-428.49351)"
         id="path111" />
    </clipPath>
    <clipPath
       clipPathUnits="userSpaceOnUse"
       id="clipPath113">
      <path
         d="M 0,0 H 1280 V 800 H 0 Z"
         transform="translate(-915.37045,-425.83971)"
         id="path113" />
    </clipPath>
    <clipPath
       clipPathUnits="userSpaceOnUse"
       id="clipPath115">
      <path
         d="M 0,0 H 1280 V 800 H 0 Z"
         transform="translate(-923.58092,-425.81211)"
         id="path115" />
    </clipPath>
    <clipPath
       clipPathUnits="userSpaceOnUse"
       id="clipPath117">
      <path
         d="M 0,0 H 1280 V 800 H 0 Z"
         transform="translate(-934.39975,-430.66991)"
         id="path117" />
    </clipPath>
    <clipPath
       clipPathUnits="userSpaceOnUse"
       id="clipPath119">
      <path
         d="M 0,0 H 1280 V 800 H 0 Z"
         transform="translate(-942.45212,-427.32731)"
         id="path119" />
    </clipPath>
    <clipPath
       clipPathUnits="userSpaceOnUse"
       id="clipPath121">
      <path
         d="M 0,0 H 1280 V 800 H 0 Z"
         transform="translate(-953.09395,-425.83971)"
         id="path121" />
    </clipPath>
    <clipPath
       clipPathUnits="userSpaceOnUse"
       id="clipPath123">
      <path
         d="M 0,0 H 1280 V 800 H 0 Z"
         transform="translate(-961.73612,-428.54861)"
         id="path123" />
    </clipPath>
    <clipPath
       clipPathUnits="userSpaceOnUse"
       id="clipPath125">
      <path
         d="M 0,0 H 1280 V 800 H 0 Z"
         transform="translate(-970.31402,-428.49351)"
         id="path125" />
    </clipPath>
    <clipPath
       clipPathUnits="userSpaceOnUse"
       id="clipPath127">
      <path
         d="M 0,0 H 1280 V 800 H 0 Z"
         transform="translate(-978.48752,-425.83971)"
         id="path127" />
    </clipPath>
    <clipPath
       clipPathUnits="userSpaceOnUse"
       id="clipPath129">
      <path
         d="M 0,0 H 1280 V 800 H 0 Z"
         transform="translate(-988.507,-426.23431)"
         id="path129" />
    </clipPath>
    <clipPath
       clipPathUnits="userSpaceOnUse"
       id="clipPath131">
      <path
         d="M 0,0 H 1280 V 800 H 0 Z"
         transform="translate(-994.82575,-425.83971)"
         id="path131" />
    </clipPath>
    <clipPath
       clipPathUnits="userSpaceOnUse"
       id="clipPath133">
      <path
         d="M 0,0 H 1280 V 800 H 0 Z"
         transform="translate(-1017.6087,-439.44871)"
         id="path133" />
    </clipPath>
  </defs>
  <g
     id="layer1"
     transform="translate(-67.733333,-53.710412)">
    <g
       id="g4"
       transform="matrix(0.26458333,0,0,0.26458333,-232.07014,-39.775697)">
      <path
         id="path22"
         d="m 0,0 c -52.696,0 -95.415,-42.719 -95.415,-95.415 0,-52.696 42.719,-95.415 95.415,-95.415 52.696,0 95.415,42.719 95.415,95.415 C 95.415,-42.719 52.696,0 0,0 m 0,-189.499 c -51.961,0 -94.084,42.123 -94.084,94.084 0,51.961 42.123,94.083 94.084,94.083 51.961,0 94.083,-42.122 94.083,-94.083 0,-51.961 -42.122,-94.084 -94.083,-94.084"
         style="fill:#011e41;fill-opacity:1;fill-rule:nonzero;stroke:none"
         transform="matrix(1.3333333,0,0,-1.3333333,1260.3355,353.33333)"
         clip-path="url(#clipPath23)" />
      <path
         id="path24"
         d="m 0,0 c -41.158,0 -74.522,-33.365 -74.522,-74.522 0,-41.158 33.364,-74.523 74.522,-74.523 41.158,0 74.522,33.365 74.522,74.523 C 74.522,-33.365 41.158,0 0,0 m 0,-147.92 c -40.537,0 -73.398,32.861 -73.398,73.398 0,40.536 32.861,73.397 73.398,73.397 40.537,0 73.398,-32.861 73.398,-73.397 0,-40.537 -32.861,-73.398 -73.398,-73.398"
         style="fill:#011e41;fill-opacity:1;fill-rule:nonzero;stroke:none"
         transform="matrix(1.3333333,0,0,-1.3333333,1260.3355,381.19013)"
         clip-path="url(#clipPath25)" />
      <path
         id="path26"
         d="M 0,0 -51.236,25.17 -99.785,0.896 c 0,0 -2.937,-1.421 -3.136,-1.792 -0.536,-1.129 0.284,-1.528 0.627,-1.522 H -0.483 c 0,0 1.827,-0.045 1.827,0.966 C 1.344,-0.568 0,0 0,0 M -92.861,0.703 -51.236,21.65 -8.985,0.703 Z"
         style="fill:#011e41;fill-opacity:1;fill-rule:nonzero;stroke:none"
         transform="matrix(1.3333333,0,0,-1.3333333,1327.8491,455.86533)"
         clip-path="url(#clipPath27)" />
      <path
         id="path28"
         d="m 0,0 c 0.336,-1.463 0.562,-1.783 1.106,-1.678 l 8.908,1.716 c 0.544,0.105 0.634,0.486 0.403,1.969 l 0.561,0.108 1.798,-9.329 -3.291,-0.762 -0.123,0.541 c 1.867,0.978 2.457,1.691 2.079,3.656 L 11.001,-1.5 6.284,-2.409 6.507,-3.566 c 0.25,-1.298 0.483,-1.562 2.31,-1.701 L 8.909,-5.741 4.384,-6.612 4.293,-6.139 c 1.739,0.79 1.798,1.147 1.548,2.445 L 5.618,-2.537 1.427,-3.345 C 0.848,-3.456 0.796,-3.848 1.044,-5.419 l -0.561,-0.108 -1.044,5.419 z"
         style="fill:#011e41;fill-opacity:1;fill-rule:nonzero;stroke:none"
         transform="matrix(1.3333333,0,0,-1.3333333,1142.2849,496.8072)"
         clip-path="url(#clipPath29)" />
      <path
         id="path30"
         d="M 0,0 C 3.542,1.287 6.679,-0.233 7.74,-3.154 8.832,-6.159 7.44,-9.23 3.898,-10.517 0.339,-11.81 -2.781,-10.283 -3.842,-7.363 -4.934,-4.358 -3.558,-1.293 0,0 m 3.206,-8.716 c 3.592,1.305 4.643,3.379 3.905,5.41 -0.738,2.031 -2.827,2.811 -6.419,1.506 -3.608,-1.312 -4.643,-3.379 -3.905,-5.41 0.738,-2.031 2.81,-2.818 6.419,-1.506"
         style="fill:#011e41;fill-opacity:1;fill-rule:nonzero;stroke:none"
         transform="matrix(1.3333333,0,0,-1.3333333,1152.5348,511.76653)"
         clip-path="url(#clipPath31)" />
      <path
         id="path32"
         d="M 0,0 6.25,3.604 C 6.729,3.881 6.69,4.271 5.987,5.597 L 6.482,5.883 9.114,1.319 8.619,1.033 C 7.779,2.383 7.608,2.429 7.097,2.135 L 1.095,-1.327 c -1.81,-1.044 -1.894,-2.721 -0.939,-4.376 0.482,-0.836 1.15,-1.316 1.906,-1.519 0.878,-0.236 1.492,-0.191 2.652,0.478 l 4.362,2.516 c 1.408,0.812 1.577,1.342 0.946,2.937 l 0.448,0.259 2.266,-3.93 -0.448,-0.259 c -1.042,1.235 -1.447,1.186 -2.855,0.375 L 4.607,-7.63 C 2.983,-8.567 0.633,-8.067 -0.786,-5.607 -2.151,-3.24 -1.794,-1.035 0,0"
         style="fill:#011e41;fill-opacity:1;fill-rule:nonzero;stroke:none"
         transform="matrix(1.3333333,0,0,-1.3333333,1157.3688,533.188)"
         clip-path="url(#clipPath33)" />
      <path
         id="path34"
         d="M 0,0 -0.012,0.014 -5.421,-4.541 C -6.677,-5.6 -6.854,-6.028 -5.94,-7.5 l -0.397,-0.334 -2.91,3.456 0.396,0.333 c 1.229,-1.043 1.713,-1.008 2.97,0.05 l 5.464,4.601 c 0.505,0.426 0.625,1.087 -0.279,2.217 l 0.437,0.368 2.151,-2.555 -2.701,-10.959 0.012,-0.014 4.835,4.072 c 1.243,1.047 1.316,1.599 0.414,3.057 L 4.849,-2.874 7.77,-6.344 7.374,-6.677 C 6.132,-5.646 5.741,-5.764 4.498,-6.811 l -7.062,-5.947 -0.448,0.533 z"
         style="fill:#011e41;fill-opacity:1;fill-rule:nonzero;stroke:none"
         transform="matrix(1.3333333,0,0,-1.3333333,1175.9051,545.6988)"
         clip-path="url(#clipPath35)" />
      <path
         id="path36"
         d="m 0,0 c 1.188,-0.918 1.565,-1.023 1.919,-0.597 l 5.8,6.977 C 8.073,6.806 7.901,7.157 6.782,8.158 L 7.147,8.597 10.91,5.469 c 3.379,-2.809 3.563,-5.912 1.405,-8.507 -2.078,-2.5 -5.333,-3.51 -8.794,-0.633 l -3.886,3.232 z m 3.836,-3.096 c 2.843,-2.364 4.804,-1.346 6.927,1.208 2.17,2.61 2.071,4.921 -0.36,6.942 L 9.469,5.831 2.779,-2.217 Z"
         style="fill:#011e41;fill-opacity:1;fill-rule:nonzero;stroke:none"
         transform="matrix(1.3333333,0,0,-1.3333333,1178.4284,567.178)"
         clip-path="url(#clipPath37)" />
      <path
         id="path38"
         d="M 0,0 C 1.321,-0.713 1.71,-0.755 1.99,-0.277 L 6.58,7.547 C 6.86,8.025 6.634,8.344 5.367,9.15 L 5.656,9.642 13.881,4.818 12.265,1.956 11.779,2.221 c 0.472,2.041 0.52,2.759 -1.205,3.771 L 8.387,7.275 6.029,3.254 6.937,2.721 C 8.077,2.053 8.572,1.907 9.897,3.284 L 10.313,3.04 7.963,-0.965 7.548,-0.721 C 8.102,1.106 7.734,1.467 6.594,2.136 L 5.685,2.669 3.12,-1.706 5.307,-2.989 c 2.033,-1.192 2.996,-0.68 4.583,0.79 l 0.468,-0.295 -1.929,-3.113 -8.718,5.114 z"
         style="fill:#011e41;fill-opacity:1;fill-rule:nonzero;stroke:none"
         transform="matrix(1.3333333,0,0,-1.3333333,1194.3601,579.8044)"
         clip-path="url(#clipPath39)" />
      <path
         id="path40"
         d="M 0,0 C 1.422,-0.481 1.813,-0.457 2.009,0.061 L 5.218,8.547 C 5.414,9.064 5.137,9.341 3.753,9.922 l 0.202,0.534 4.577,-1.731 c 4.109,-1.554 5.294,-4.427 4.1,-7.584 -1.15,-3.04 -3.898,-5.056 -8.107,-3.463 l -4.727,1.787 z m 4.635,-1.677 c 3.458,-1.308 4.98,0.293 6.155,3.4 1.201,3.174 0.354,5.327 -2.603,6.445 L 7.052,8.598 3.349,-1.191 Z"
         style="fill:#011e41;fill-opacity:1;fill-rule:nonzero;stroke:none"
         transform="matrix(1.3333333,0,0,-1.3333333,1211.076,589.15227)"
         clip-path="url(#clipPath41)" />
      <path
         id="path42"
         d="M 0,0 C 1.588,-0.246 2.12,-0.208 2.187,0.197 L 3.534,8.282 C 3.649,8.969 3.308,9.315 1.523,9.576 L 1.614,10.123 5.431,9.776 3.79,-0.07 C 3.723,-0.475 4.195,-0.681 5.795,-0.966 l -0.094,-0.563 -5.795,0.965 z"
         style="fill:#011e41;fill-opacity:1;fill-rule:nonzero;stroke:none"
         transform="matrix(1.3333333,0,0,-1.3333333,1237.0163,597.2976)"
         clip-path="url(#clipPath43)" />
      <path
         id="path44"
         d="M 0,0 C -1.394,0.731 -1.917,1.705 -1.86,2.864 -1.774,4.577 -0.352,5.847 1.842,5.737 4.036,5.627 5.352,4.399 5.282,3.008 5.218,1.724 4.488,1.063 2.897,0.356 4.871,-0.565 5.377,-1.538 5.314,-2.805 5.224,-4.588 3.445,-5.84 1.358,-5.736 -1.317,-5.603 -2.577,-4.341 -2.496,-2.718 -2.436,-1.523 -1.529,-0.532 0,0 m 0.698,-0.339 c -1.003,-0.397 -1.688,-1.221 -1.746,-2.38 -0.066,-1.32 0.779,-2.31 2.241,-2.383 1.392,-0.07 2.339,0.634 2.407,2.007 0.06,1.195 -0.621,1.873 -2.813,2.734 -0.036,0.002 -0.053,0.02 -0.089,0.022 m 1.498,0.98 C 3.457,1.186 3.78,1.939 3.829,2.902 3.886,4.061 3.113,5.048 1.793,5.114 0.634,5.172 -0.167,4.532 -0.232,3.23 -0.284,2.196 0.427,1.391 2.196,0.641"
         style="fill:#011e41;fill-opacity:1;fill-rule:nonzero;stroke:none"
         transform="matrix(1.3333333,0,0,-1.3333333,1252.6249,592.8524)"
         clip-path="url(#clipPath45)" />
      <path
         id="path46"
         d="M 0,0 C -0.051,0.641 0.351,1.228 1.045,1.282 1.722,1.336 2.103,0.81 2.147,0.259 2.19,-0.293 1.895,-0.639 1.641,-0.82 2.211,-1.241 2.965,-1.486 3.926,-1.411 5.493,-1.287 6.071,-0.221 5.952,1.293 5.839,2.734 4.963,3.615 2.489,3.42 L 2.204,3.397 2.151,4.074 2.347,4.09 C 4.821,4.284 5.351,5.293 5.232,6.806 5.117,8.266 4.227,8.877 3.016,8.781 2.126,8.711 1.534,8.27 1.208,7.636 1.488,7.497 1.903,7.225 1.946,6.673 1.99,6.121 1.695,5.543 1.019,5.489 0.378,5.439 -0.109,5.938 -0.157,6.543 -0.266,7.932 1.169,9.263 3.163,9.42 5.638,9.615 6.871,8.511 6.984,7.07 7.074,5.93 6.328,4.707 4.164,3.982 L 4.169,3.928 C 6.505,3.826 7.6,2.891 7.713,1.449 7.848,-0.26 6.521,-1.833 3.886,-2.041 2.017,-2.188 0.114,-1.442 0,0"
         style="fill:#011e41;fill-opacity:1;fill-rule:nonzero;stroke:none"
         transform="matrix(1.3333333,0,0,-1.3333333,1264.4055,597.57133)"
         clip-path="url(#clipPath47)" />
      <path
         id="path48"
         d="M 0,0 C 1.627,0.686 4.467,2.463 4.202,6.184 L 4.128,6.187 C 3.739,4.993 2.795,4.267 1.729,4.045 -0.264,3.63 -1.937,4.832 -2.345,6.79 -2.783,8.887 -1.686,10.977 0.867,11.509 3.489,12.055 5.135,10.373 5.663,7.838 6.06,5.933 5.782,4.379 4.91,3.048 3.872,1.464 2.55,0.367 0.113,-0.542 Z M 3.69,8.376 C 3.315,10.177 2.197,11.166 0.886,10.892 -0.478,10.608 -1.026,9.126 -0.637,7.255 -0.268,5.489 0.94,4.592 2.234,4.862 3.405,5.106 4.069,6.558 3.69,8.376"
         style="fill:#011e41;fill-opacity:1;fill-rule:nonzero;stroke:none"
         transform="matrix(1.3333333,0,0,-1.3333333,1280.6695,598.47573)"
         clip-path="url(#clipPath49)" />
      <path
         id="path50"
         d="M 0,0 C -0.568,0.59 -0.939,0.682 -2.258,0.401 L -2.464,0.876 2.334,2.962 2.541,2.487 C 1.151,1.786 1.034,1.384 1.548,0.829 L 7.453,-5.542 7.518,-5.513 7.137,1.993 C 7.038,3.878 6.702,4.023 5.063,3.584 L 4.856,4.058 8.737,5.746 8.944,5.271 C 7.93,4.558 7.828,3.987 7.899,2.344 l 0.38,-9.921 -0.737,-0.321 z"
         style="fill:#011e41;fill-opacity:1;fill-rule:nonzero;stroke:none"
         transform="matrix(1.3333333,0,0,-1.3333333,1297.6215,580.44827)"
         clip-path="url(#clipPath51)" />
      <path
         id="path52"
         d="M 0,0 C 1.258,0.818 1.482,1.14 1.197,1.614 L -3.472,9.392 C -3.757,9.866 -4.146,9.82 -5.459,9.094 l -0.294,0.49 4.638,2.785 0.295,-0.49 c -1.259,-0.818 -1.482,-1.14 -1.198,-1.614 L 2.651,2.487 C 2.936,2.013 3.325,2.059 4.639,2.785 L 4.933,2.295 0.294,-0.49 Z"
         style="fill:#011e41;fill-opacity:1;fill-rule:nonzero;stroke:none"
         transform="matrix(1.3333333,0,0,-1.3333333,1318.3909,584.4852)"
         clip-path="url(#clipPath53)" />
      <path
         id="path54"
         d="M 0,0 C 0.368,-0.46 0.642,-0.402 1.916,0.55 L 2.273,0.103 -1.938,-3.266 -2.295,-2.82 c 1.138,0.979 1.316,1.328 0.97,1.76 l -5.667,7.084 c -0.346,0.432 -0.725,0.334 -1.93,-0.561 l -0.357,0.446 3.848,3.079 c 2.789,2.231 4.471,1.816 5.397,0.659 C 0.858,8.531 0.878,7.221 -0.522,5.483 L -0.489,5.441 C 1.333,6.624 2.066,6.136 3.048,5.252 L 4.317,4.094 C 5.09,3.386 5.58,3.459 6.598,4.159 L 6.955,3.713 C 6.858,3.634 6.604,3.408 6.506,3.33 4.54,1.757 3.896,1.905 2.783,3.096 L 1.84,4.103 C 0.636,5.38 -0.193,5.243 -1.629,4.094 L -2.633,3.291 Z m -1.961,4.652 c 1.757,1.405 1.576,2.518 0.538,3.815 -0.97,1.213 -2.03,1.28 -3.704,-0.059 L -6.102,7.627 -3.035,3.793 Z"
         style="fill:#011e41;fill-opacity:1;fill-rule:nonzero;stroke:none"
         transform="matrix(1.3333333,0,0,-1.3333333,1332.2304,574.0896)"
         clip-path="url(#clipPath55)" />
      <path
         id="path56"
         d="m 0,0 c -2.723,2.473 -2.702,6.241 -0.494,8.674 0.733,0.806 1.75,1.474 2.344,1.731 L 1.751,11.146 2.124,11.556 4.675,9.239 4.315,8.842 C 2.433,9.586 0.955,9.312 -0.138,8.109 -1.458,6.655 -1.493,3.961 1.27,1.452 4.02,-1.045 6.82,-0.645 8.128,0.796 8.86,1.602 9.242,2.341 9.287,2.975 L 6.828,5.208 C 6.419,5.581 6.06,5.424 5.012,4.35 L 4.589,4.734 7.77,8.237 8.193,7.853 C 7.5,7.011 7.533,6.86 7.969,6.464 l 2.71,-2.461 C 10.405,2.878 9.48,1.329 8.7,0.47 6.479,-1.976 3.001,-2.725 0,0"
         style="fill:#011e41;fill-opacity:1;fill-rule:nonzero;stroke:none"
         transform="matrix(1.3333333,0,0,-1.3333333,1338.2996,561.2204)"
         clip-path="url(#clipPath57)" />
      <path
         id="path58"
         d="m 0,0 c 0.801,1.269 0.87,1.654 0.413,1.967 l -7.491,5.115 c -0.457,0.313 -0.791,0.108 -1.681,-1.1 l -0.472,0.322 3.051,4.468 0.472,-0.322 C -6.509,9.181 -6.578,8.795 -6.121,8.483 L 1.37,3.368 C 1.827,3.055 2.161,3.259 3.051,4.468 L 3.523,4.146 0.472,-0.322 Z"
         style="fill:#011e41;fill-opacity:1;fill-rule:nonzero;stroke:none"
         transform="matrix(1.3333333,0,0,-1.3333333,1356.6143,550.5492)"
         clip-path="url(#clipPath59)" />
      <path
         id="path60"
         d="m 0,0 -0.008,-0.016 6.36,-3.089 C 7.83,-3.823 8.293,-3.81 9.267,-2.377 L 9.733,-2.603 7.759,-6.667 7.293,-6.441 c 0.453,1.547 0.225,1.976 -1.253,2.693 l -6.424,3.121 c -0.594,0.288 -1.247,0.129 -1.912,-1.156 L -2.81,-1.534 -1.351,1.47 9.759,3.458 9.766,3.474 4.081,6.236 C 2.619,6.946 2.086,6.788 1.12,5.371 L 0.654,5.598 2.636,9.677 3.101,9.451 C 2.664,7.897 2.931,7.588 4.393,6.878 L 12.697,2.845 12.392,2.219 Z"
         style="fill:#011e41;fill-opacity:1;fill-rule:nonzero;stroke:none"
         transform="matrix(1.3333333,0,0,-1.3333333,1354.2728,531.07507)"
         clip-path="url(#clipPath61)" />
      <path
         id="path62"
         d="M 0,0 C 0.396,1.448 0.349,1.837 -0.18,2.002 L -8.839,4.705 C -9.367,4.87 -9.627,4.577 -10.125,3.161 l -0.546,0.17 1.613,5.165 0.545,-0.17 C -8.909,6.878 -8.862,6.489 -8.333,6.324 L 0.326,3.621 C 0.854,3.456 1.114,3.749 1.612,5.165 L 2.158,4.995 0.545,-0.17 Z"
         style="fill:#011e41;fill-opacity:1;fill-rule:nonzero;stroke:none"
         transform="matrix(1.3333333,0,0,-1.3333333,1372.8451,519.4956)"
         clip-path="url(#clipPath63)" />
      <path
         id="path64"
         d="M 0,0 -0.724,-3.934 0.875,-4.918 C 2.406,-5.872 2.633,-5.823 3.16,-4.34 L 3.669,-4.434 2.968,-8.245 2.459,-8.151 c -0.026,1.239 -0.64,1.752 -2.041,2.626 L -7.714,-0.379 -7.569,0.412 2.867,2.16 C 3.803,2.315 4.254,2.595 4.669,3.862 L 5.178,3.768 4.225,-1.413 3.716,-1.319 C 3.909,0.225 3.627,0.568 2.635,0.405 Z m -0.674,-0.112 -4.949,-0.742 -0.013,-0.071 4.325,-2.647 z"
         style="fill:#011e41;fill-opacity:1;fill-rule:nonzero;stroke:none"
         transform="matrix(1.3333333,0,0,-1.3333333,1372.6717,499.2916)"
         clip-path="url(#clipPath65)" />
      <path
         id="path66"
         d="m 0,0 c 0.2,1.488 0.102,1.867 -0.444,1.96 l -8.942,1.529 c -0.546,0.093 -0.764,-0.232 -1.07,-1.702 l -0.563,0.097 0.911,5.333 0.564,-0.096 C -9.744,5.633 -9.646,5.254 -9.1,5.161 L 0.493,3.521 0.821,5.44 C 1.218,7.763 0.484,8.45 -1.795,9.528 l 0.128,0.54 3.834,-0.782 -1.604,-9.382 z"
         style="fill:#011e41;fill-opacity:1;fill-rule:nonzero;stroke:none"
         transform="matrix(1.3333333,0,0,-1.3333333,1155.3881,468.86427)"
         clip-path="url(#clipPath67)" />
      <path
         id="path68"
         d="m 0,0 c -3.57,1.207 -5.07,4.353 -4.075,7.296 1.024,3.029 4.029,4.558 7.598,3.351 C 7.11,9.435 8.593,6.294 7.598,3.351 6.575,0.323 3.587,-1.212 0,0 M 2.94,8.809 C -0.681,10.032 -2.797,9.07 -3.489,7.023 -4.181,4.976 -3.037,3.062 0.584,1.839 4.221,0.609 6.32,1.577 7.012,3.624 7.704,5.671 6.577,7.579 2.94,8.809"
         style="fill:#011e41;fill-opacity:1;fill-rule:nonzero;stroke:none"
         transform="matrix(1.3333333,0,0,-1.3333333,1151.4153,451.61107)"
         clip-path="url(#clipPath69)" />
      <path
         id="path70"
         d="M 0,0 -0.009,-0.016 6.185,-3.427 C 7.624,-4.22 8.087,-4.23 9.133,-2.849 l 0.454,-0.25 -2.18,-3.957 -0.453,0.25 c 0.532,1.521 0.326,1.961 -1.113,2.753 l -6.257,3.446 c -0.579,0.319 -1.239,0.193 -1.968,-1.056 l -0.5,0.275 1.611,2.925 11.197,1.416 0.008,0.016 -5.537,3.05 C 2.972,6.803 2.431,6.672 1.394,5.307 L 0.94,5.557 3.128,9.53 3.582,9.28 C 3.066,7.75 3.317,7.428 4.74,6.644 L 12.826,2.191 12.49,1.581 Z"
         style="fill:#011e41;fill-opacity:1;fill-rule:nonzero;stroke:none"
         transform="matrix(1.3333333,0,0,-1.3333333,1154.9017,427.70747)"
         clip-path="url(#clipPath71)" />
      <path
         id="path72"
         d="m 0,0 c -2.86,2.315 -3.052,6.079 -0.985,8.633 0.686,0.847 1.664,1.572 2.243,1.862 L 1.117,11.229 1.465,11.659 4.144,9.49 3.807,9.074 C 1.886,9.71 0.425,9.353 -0.597,8.09 -1.833,6.563 -1.715,3.871 1.186,1.522 4.073,-0.816 6.846,-0.257 8.071,1.256 8.757,2.102 9.096,2.862 9.105,3.498 L 6.523,5.588 C 6.093,5.937 5.743,5.76 4.758,4.628 L 4.313,4.987 7.292,8.666 7.736,8.306 C 7.092,7.426 7.133,7.278 7.591,6.907 L 10.437,4.603 C 10.226,3.463 9.391,1.864 8.661,0.962 6.582,-1.606 3.151,-2.551 0,0"
         style="fill:#011e41;fill-opacity:1;fill-rule:nonzero;stroke:none"
         transform="matrix(1.3333333,0,0,-1.3333333,1168.2981,415.56173)"
         clip-path="url(#clipPath73)" />
      <path
         id="path74"
         d="M 0,0 C -0.833,0.511 -1.334,0.577 -2.32,-0.027 L -2.656,0.367 1.045,3.513 1.38,3.118 C 0.322,2.102 0.441,1.687 1.007,1.325 L 7.863,-3.019 7.917,-2.972 5.296,3.447 C 4.6,5.176 4.29,5.264 2.849,4.368 L 2.514,4.762 5.807,7.561 6.142,7.166 C 5.379,6.189 5.331,5.446 5.91,3.993 L 9.561,-5.044 8.948,-5.564 1.845,-1.15 4.69,-9.184 4.078,-9.705 -4.941,-3.919 c -0.711,0.45 -1.07,0.403 -2.25,-0.249 l -0.335,0.395 3.741,3.18 0.335,-0.394 c -0.989,-0.959 -0.84,-1.3 -0.251,-1.69 l 6.746,-4.461 0.04,0.035 -2.326,6.623 z"
         style="fill:#011e41;fill-opacity:1;fill-rule:nonzero;stroke:none"
         transform="matrix(1.3333333,0,0,-1.3333333,1183.7471,391.25893)"
         clip-path="url(#clipPath75)" />
      <path
         id="path76"
         d="M 0,0 C -1.879,3.266 -0.924,6.618 1.769,8.167 4.54,9.762 7.805,8.921 9.684,5.655 11.572,2.374 10.608,-0.962 7.915,-2.512 5.144,-4.106 1.888,-3.281 0,0 M 8.03,4.662 C 6.124,7.975 3.901,8.652 2.028,7.575 0.155,6.497 -0.252,4.305 1.654,0.993 3.569,-2.335 5.783,-2.997 7.656,-1.919 9.529,-0.842 9.945,1.335 8.03,4.662"
         style="fill:#011e41;fill-opacity:1;fill-rule:nonzero;stroke:none"
         transform="matrix(1.3333333,0,0,-1.3333333,1197.8704,386.76853)"
         clip-path="url(#clipPath77)" />
      <path
         id="path78"
         d="M 0,0 C -1.293,3.539 0.222,6.678 3.141,7.744 6.143,8.841 9.217,7.454 10.509,3.915 11.808,0.359 10.287,-2.763 7.368,-3.829 4.366,-4.926 1.299,-3.556 0,0 M 8.71,3.22 C 7.399,6.809 5.324,7.857 3.294,7.116 1.265,6.375 0.488,4.285 1.799,0.695 3.117,-2.911 5.185,-3.942 7.215,-3.201 9.245,-2.46 10.027,-0.387 8.71,3.22"
         style="fill:#011e41;fill-opacity:1;fill-rule:nonzero;stroke:none"
         transform="matrix(1.3333333,0,0,-1.3333333,1214.7388,377.48947)"
         clip-path="url(#clipPath79)" />
      <path
         id="path80"
         d="m 0,0 c 1.468,0.314 1.791,0.535 1.695,1.08 l -1.582,8.932 c -0.097,0.545 -0.476,0.641 -1.963,0.433 l -0.099,0.562 4.817,0.853 C 7.194,12.627 9.682,10.764 10.27,7.441 10.837,4.241 9.507,1.103 5.076,0.319 L 0.1,-0.563 Z M 4.841,0.93 C 8.48,1.575 8.969,3.728 8.39,6.999 7.798,10.34 5.97,11.757 2.857,11.206 L 1.662,10.994 3.487,0.69 Z"
         style="fill:#011e41;fill-opacity:1;fill-rule:nonzero;stroke:none"
         transform="matrix(1.3333333,0,0,-1.3333333,1234.2913,378.10747)"
         clip-path="url(#clipPath81)" />
      <path
         id="path82"
         d="M 0,0 0.702,7.181 C 0.755,7.732 0.416,7.926 -1.072,8.126 L -1.017,8.694 4.227,8.182 4.171,7.613 C 2.584,7.715 2.447,7.602 2.39,7.016 L 1.717,0.119 C 1.513,-1.96 2.829,-3.004 4.731,-3.19 c 0.959,-0.093 1.739,0.172 2.344,0.669 0.702,0.577 1.023,1.102 1.153,2.435 L 8.717,4.926 C 8.875,6.544 8.542,6.989 6.878,7.403 l 0.05,0.515 4.515,-0.441 -0.05,-0.515 C 9.783,6.832 9.586,6.474 9.428,4.857 L 8.887,-0.689 C 8.704,-2.555 6.931,-4.176 4.105,-3.9 1.386,-3.634 -0.201,-2.062 0,0"
         style="fill:#011e41;fill-opacity:1;fill-rule:nonzero;stroke:none"
         transform="matrix(1.3333333,0,0,-1.3333333,1265.3236,371.61493)"
         clip-path="url(#clipPath83)" />
      <path
         id="path84"
         d="m 0,0 -0.017,0.005 -1.916,-6.807 c -0.445,-1.582 -0.351,-2.035 1.232,-2.741 l -0.14,-0.498 -4.349,1.224 0.14,0.499 c 1.602,-0.173 1.984,0.128 2.429,1.709 l 1.935,6.876 c 0.18,0.636 -0.093,1.251 -1.475,1.677 L -2.007,2.494 1.208,1.589 5.13,-8.995 5.147,-9 6.86,-2.914 c 0.441,1.564 0.191,2.061 -1.375,2.761 L 5.626,0.346 9.992,-0.883 9.852,-1.382 C 8.245,-1.226 7.988,-1.543 7.548,-3.108 l -2.502,-8.887 -0.67,0.189 z"
         style="fill:#011e41;fill-opacity:1;fill-rule:nonzero;stroke:none"
         transform="matrix(1.3333333,0,0,-1.3333333,1288.0123,365.90733)"
         clip-path="url(#clipPath85)" />
      <path
         id="path86"
         d="m 0,0 c 1.391,-0.564 1.783,-0.563 2.009,-0.058 l 3.705,8.28 C 5.941,8.727 5.68,9.02 4.333,9.682 L 4.567,10.203 9.505,7.993 9.271,7.471 C 7.881,8.035 7.489,8.034 7.263,7.529 L 3.557,-0.751 C 3.331,-1.256 3.591,-1.549 4.938,-2.21 l -0.233,-0.522 -4.938,2.21 z"
         style="fill:#011e41;fill-opacity:1;fill-rule:nonzero;stroke:none"
         transform="matrix(1.3333333,0,0,-1.3333333,1300.0633,382.83067)"
         clip-path="url(#clipPath87)" />
      <path
         id="path88"
         d="M 0,0 C 0.159,0.804 0.022,1.16 -0.962,2.081 L -0.691,2.522 3.764,-0.221 3.493,-0.662 C 2.123,0.077 1.727,-0.057 1.565,-0.796 l -1.849,-8.486 0.061,-0.038 5.939,4.606 c 1.489,1.158 1.416,1.518 0.118,2.61 L 6.106,-1.663 9.709,-3.881 9.438,-4.322 C 8.273,-3.899 7.746,-4.141 6.44,-5.139 l -7.921,-5.985 -0.685,0.421 z"
         style="fill:#011e41;fill-opacity:1;fill-rule:nonzero;stroke:none"
         transform="matrix(1.3333333,0,0,-1.3333333,1317.3343,377.14827)"
         clip-path="url(#clipPath89)" />
      <path
         id="path90"
         d="M 0,0 C 1.177,-0.931 1.554,-1.04 1.912,-0.618 L 7.789,6.293 C 8.148,6.715 7.98,7.069 6.872,8.081 l 0.37,0.436 7.265,-6.178 -2.087,-2.538 -0.434,0.345 c 0.82,1.929 0.991,2.627 -0.533,3.922 L 9.522,5.711 6.502,2.16 7.305,1.478 C 8.312,0.621 8.773,0.393 10.317,1.518 L 10.684,1.206 7.676,-2.331 7.309,-2.019 c 0.863,1.704 0.563,2.123 -0.444,2.98 L 6.062,1.643 2.777,-2.221 4.709,-3.863 C 6.505,-5.391 7.542,-5.053 9.36,-3.88 l 0.41,-0.372 -2.44,-2.731 -7.7,6.548 z"
         style="fill:#011e41;fill-opacity:1;fill-rule:nonzero;stroke:none"
         transform="matrix(1.3333333,0,0,-1.3333333,1323.3892,395.814)"
         clip-path="url(#clipPath91)" />
      <path
         id="path92"
         d="M 0,0 C -0.448,-0.382 -0.381,-0.654 0.609,-1.898 L 0.174,-2.268 -3.325,1.835 -2.89,2.206 C -1.876,1.099 -1.522,0.932 -1.1,1.291 L 5.803,7.176 C 6.224,7.535 6.115,7.911 5.182,9.087 L 5.617,9.458 8.815,5.708 C 11.132,2.99 10.769,1.296 9.641,0.334 8.554,-0.592 7.244,-0.653 5.464,0.692 L 5.423,0.658 C 6.662,-1.126 6.197,-1.874 5.344,-2.883 L 4.227,-4.187 C 3.543,-4.981 3.63,-5.47 4.362,-6.465 L 3.927,-6.836 c -0.081,0.095 -0.315,0.342 -0.396,0.437 -1.633,1.916 -1.506,2.564 -0.35,3.714 l 0.977,0.973 C 5.397,-0.468 5.235,0.356 4.041,1.756 L 3.207,2.734 Z M 4.588,2.105 C 6.048,0.392 7.155,0.608 8.418,1.686 9.601,2.694 9.634,3.755 8.244,5.386 L 7.433,6.337 3.696,3.151 Z"
         style="fill:#011e41;fill-opacity:1;fill-rule:nonzero;stroke:none"
         transform="matrix(1.3333333,0,0,-1.3333333,1339.922,409.86253)"
         clip-path="url(#clipPath93)" />
      <path
         id="path94"
         d="m 0,0 0.292,-0.47 c -1.27,-1.882 -1.528,-3.43 -0.746,-4.689 0.942,-1.517 2.36,-1.498 3.255,-0.942 1.122,0.697 1.033,1.755 0.545,3.996 -0.372,1.682 -0.866,3.393 0.999,4.551 1.897,1.178 3.973,0.407 5.141,-1.474 0.527,-0.85 0.737,-1.56 0.857,-2.158 L 11.069,-1.408 11.276,-1.742 8.364,-3.551 8.072,-3.08 C 9.181,-1.719 9.524,-0.308 8.789,0.876 8.148,1.907 6.982,2.297 5.799,1.562 4.706,0.884 4.904,-0.213 5.366,-2.175 5.752,-3.848 6.168,-5.566 4.287,-6.734 2.785,-7.666 0.479,-7.879 -1.085,-5.361 c -0.509,0.819 -0.863,1.797 -0.979,2.524 l -0.956,0.457 -0.226,0.364 z"
         style="fill:#011e41;fill-opacity:1;fill-rule:nonzero;stroke:none"
         transform="matrix(1.3333333,0,0,-1.3333333,1350.4653,418.5612)"
         clip-path="url(#clipPath95)" />
      <path
         id="path96"
         d="M 0,0 C 0.673,-1.341 0.968,-1.599 1.471,-1.369 L 9.719,2.408 C 10.223,2.639 10.22,3.03 9.644,4.417 l 0.52,0.237 2.253,-4.919 -0.52,-0.238 C 11.224,0.838 10.929,1.096 10.426,0.866 L 2.178,-2.911 C 1.674,-3.142 1.677,-3.533 2.253,-4.92 l -0.52,-0.238 -2.253,4.92 z"
         style="fill:#011e41;fill-opacity:1;fill-rule:nonzero;stroke:none"
         transform="matrix(1.3333333,0,0,-1.3333333,1354.7148,433.44227)"
         clip-path="url(#clipPath97)" />
      <path
         id="path98"
         d="m 0,0 c 0.516,-1.504 0.784,-1.833 1.314,-1.671 l 9.341,2.855 -0.261,0.854 C 9.893,3.678 8.911,3.714 6.67,3.775 l -0.128,0.54 3.533,0.968 2.891,-9.461 -3.464,-1.19 -0.196,0.519 c 1.74,1.149 2.633,1.832 2.116,3.523 L 11.151,-0.438 1.81,-3.293 C 1.28,-3.455 1.241,-3.878 1.655,-5.413 L 1.108,-5.58 -0.547,-0.167 Z"
         style="fill:#011e41;fill-opacity:1;fill-rule:nonzero;stroke:none"
         transform="matrix(1.3333333,0,0,-1.3333333,1360.0559,446.12973)"
         clip-path="url(#clipPath99)" />
      <path
         id="path100"
         d="M 0,0 C 1.476,-0.599 1.842,-0.51 1.829,1.076 L 2.342,1.15 2.921,-2.862 2.408,-2.936 C 2.051,-1.959 1.76,-1.568 0.32,-0.964 L -4.388,1.027 -8.081,0.494 C -8.629,0.415 -8.737,0.038 -8.576,-1.454 l -0.565,-0.081 -0.773,5.355 0.565,0.081 c 0.268,-1.477 0.478,-1.807 1.025,-1.728 l 3.5,0.505 4.78,3.756 c 0.615,0.486 0.789,0.782 0.83,1.87 L 1.299,8.378 2.021,3.376 1.508,3.302 C 1.195,4.845 0.781,4.966 0.163,4.498 L -3.719,1.52 Z"
         style="fill:#011e41;fill-opacity:1;fill-rule:nonzero;stroke:none"
         transform="matrix(1.3333333,0,0,-1.3333333,1376.6091,467.0764)"
         clip-path="url(#clipPath101)" />
      <path
         id="path102"
         d="m 0,0 c 0,-1.292 -1.047,-2.34 -2.34,-2.34 -1.292,0 -2.34,1.048 -2.34,2.34 0,1.292 1.048,2.34 2.34,2.34 C -1.047,2.34 0,1.292 0,0"
         style="fill:#011e41;fill-opacity:1;fill-rule:nonzero;stroke:none"
         transform="matrix(1.3333333,0,0,-1.3333333,1150.9305,480.73507)"
         clip-path="url(#clipPath103)" />
      <path
         id="path104"
         d="m 0,0 c 0,-1.292 -1.047,-2.34 -2.34,-2.34 -1.292,0 -2.339,1.048 -2.339,2.34 0,1.292 1.047,2.34 2.339,2.34 C -1.047,2.34 0,1.292 0,0"
         style="fill:#011e41;fill-opacity:1;fill-rule:nonzero;stroke:none"
         transform="matrix(1.3333333,0,0,-1.3333333,1375.9795,482.412)"
         clip-path="url(#clipPath105)" />
      <path
         id="path106"
         d="M 0,0 C 0.771,0.027 0.955,0.11 0.955,0.395 V 5.06 C 0.955,5.344 0.771,5.427 0,5.455 v 0.293 h 2.516 c 2.259,0 3.352,-1.166 3.352,-2.901 0,-1.672 -0.955,-3.141 -3.269,-3.141 H 0 Z m 2.534,0.037 c 1.901,0 2.342,1.046 2.342,2.755 0,1.744 -0.799,2.626 -2.424,2.626 H 1.827 V 0.037 Z"
         style="fill:#011e41;fill-opacity:1;fill-rule:nonzero;stroke:none"
         transform="matrix(1.3333333,0,0,-1.3333333,1186.8196,498.8804)"
         clip-path="url(#clipPath107)" />
      <path
         id="path108"
         d="M 0,0 C 0,1.938 1.286,3.186 2.883,3.186 4.527,3.186 5.767,1.974 5.767,0.037 5.767,-1.91 4.481,-3.15 2.883,-3.15 1.24,-3.15 0,-1.947 0,0 m 4.775,0.018 c 0,1.966 -0.817,2.838 -1.928,2.838 -1.111,0 -1.855,-0.872 -1.855,-2.838 0,-1.974 0.817,-2.837 1.928,-2.837 1.111,0 1.855,0.863 1.855,2.837"
         style="fill:#011e41;fill-opacity:1;fill-rule:nonzero;stroke:none"
         transform="matrix(1.3333333,0,0,-1.3333333,1198.3424,495.26853)"
         clip-path="url(#clipPath109)" />
      <path
         id="path110"
         d="m 0,0 c 0,1.846 1.359,3.241 3.095,3.241 0.633,0 1.157,-0.22 1.497,-0.422 L 4.849,3.214 H 5.133 V 1.23 H 4.858 C 4.472,2.268 3.903,2.911 3.003,2.911 1.947,2.911 0.992,1.91 0.992,0.037 c 0,-1.782 1.148,-2.654 2.176,-2.654 1.038,0 1.607,0.633 1.965,1.405 L 5.436,-1.359 C 5.06,-2.213 4.27,-3.095 2.929,-3.095 1.203,-3.095 0,-1.864 0,0"
         style="fill:#011e41;fill-opacity:1;fill-rule:nonzero;stroke:none"
         transform="matrix(1.3333333,0,0,-1.3333333,1209.7181,495.342)"
         clip-path="url(#clipPath111)" />
      <path
         id="path112"
         d="M 0,0 C 0.771,0.027 0.955,0.11 0.955,0.395 V 5.06 C 0.955,5.344 0.771,5.427 0,5.455 V 5.748 H 4.904 L 4.931,4.059 4.647,4.049 C 4.325,5.078 4.16,5.409 3.131,5.409 H 1.828 V 3.012 h 0.541 c 0.68,0 0.937,0.064 1.166,1.019 H 3.783 V 1.644 H 3.535 C 3.306,2.599 3.049,2.663 2.369,2.663 H 1.828 V 0.055 h 1.303 c 1.213,0 1.506,0.477 1.828,1.543 L 5.243,1.589 5.198,-0.294 H 0 Z"
         style="fill:#011e41;fill-opacity:1;fill-rule:nonzero;stroke:none"
         transform="matrix(1.3333333,0,0,-1.3333333,1220.4939,498.8804)"
         clip-path="url(#clipPath113)" />
      <path
         id="path114"
         d="M 0,0 C 0.817,0.138 0.964,0.34 0.964,1.185 V 4.95 C 0.964,5.289 0.771,5.455 0,5.482 V 5.776 H 2.103 L 3.848,0.964 H 3.903 L 5.611,5.776 H 7.704 V 5.482 C 6.933,5.455 6.75,5.372 6.75,5.087 V 0.422 C 6.75,0.138 6.933,0.055 7.704,0.028 V -0.266 H 5.087 v 0.294 c 0.717,0.027 0.79,0.091 0.79,0.394 V 5.207 H 5.831 L 3.82,-0.266 H 3.444 L 1.378,5.207 H 1.332 V 1.185 C 1.332,0.34 1.423,0.156 2.232,0 V -0.266 H 0 Z"
         style="fill:#011e41;fill-opacity:1;fill-rule:nonzero;stroke:none"
         transform="matrix(1.3333333,0,0,-1.3333333,1231.4412,498.9172)"
         clip-path="url(#clipPath115)" />
      <path
         id="path116"
         d="m 0,0 c -0.147,0.395 -0.303,0.514 -0.982,0.652 v 0.266 h 2.69 V 0.652 C 0.909,0.606 0.771,0.441 0.9,0.073 l 1.479,-4.215 h 0.036 l 1.359,3.619 C 4.114,0.386 3.985,0.523 3.122,0.652 V 0.918 H 5.299 V 0.652 C 4.674,0.523 4.509,0.275 4.206,-0.514 L 2.351,-5.271 H 1.938 Z"
         style="fill:#011e41;fill-opacity:1;fill-rule:nonzero;stroke:none"
         transform="matrix(1.3333333,0,0,-1.3333333,1245.8663,492.44013)"
         clip-path="url(#clipPath117)" />
      <path
         id="path118"
         d="m 0,0 h 0.285 c 0.477,-1.065 1.083,-1.598 1.845,-1.598 0.919,0 1.295,0.625 1.295,1.166 0,0.68 -0.486,0.928 -1.598,1.323 C 0.992,1.185 0.11,1.433 0.11,2.562 c 0,1.148 0.9,1.846 2.039,1.846 0.514,0 0.881,-0.101 1.175,-0.212 L 3.618,4.454 H 3.82 V 2.691 H 3.535 C 3.242,3.544 2.718,4.077 2.002,4.077 1.378,4.077 0.891,3.673 0.891,2.957 0.891,2.296 1.423,2.085 2.406,1.754 3.242,1.469 4.105,1.185 4.105,0.046 c 0,-0.909 -0.533,-1.975 -2.057,-1.975 -0.496,0 -1.02,0.111 -1.368,0.258 L 0.22,-1.965 H 0 Z"
         style="fill:#011e41;fill-opacity:1;fill-rule:nonzero;stroke:none"
         transform="matrix(1.3333333,0,0,-1.3333333,1256.6028,496.89693)"
         clip-path="url(#clipPath119)" />
      <path
         id="path120"
         d="M 0,0 C 0.772,0.027 0.955,0.11 0.955,0.395 V 5.06 C 0.955,5.344 0.772,5.427 0,5.455 v 0.293 h 2.516 c 2.259,0 3.352,-1.166 3.352,-2.901 0,-1.672 -0.955,-3.141 -3.269,-3.141 H 0 Z m 2.535,0.037 c 1.901,0 2.341,1.046 2.341,2.755 0,1.744 -0.799,2.626 -2.424,2.626 H 1.827 V 0.037 Z"
         style="fill:#011e41;fill-opacity:1;fill-rule:nonzero;stroke:none"
         transform="matrix(1.3333333,0,0,-1.3333333,1270.7919,498.8804)"
         clip-path="url(#clipPath121)" />
      <path
         id="path122"
         d="M 0,0 C 0,1.938 1.286,3.186 2.883,3.186 4.527,3.186 5.767,1.974 5.767,0.037 5.767,-1.91 4.481,-3.15 2.883,-3.15 1.24,-3.15 0,-1.947 0,0 m 4.775,0.018 c 0,1.966 -0.817,2.838 -1.928,2.838 -1.111,0 -1.855,-0.872 -1.855,-2.838 0,-1.974 0.817,-2.837 1.928,-2.837 1.111,0 1.855,0.863 1.855,2.837"
         style="fill:#011e41;fill-opacity:1;fill-rule:nonzero;stroke:none"
         transform="matrix(1.3333333,0,0,-1.3333333,1282.3148,495.26853)"
         clip-path="url(#clipPath123)" />
      <path
         id="path124"
         d="m 0,0 c 0,1.846 1.359,3.241 3.095,3.241 0.633,0 1.157,-0.22 1.497,-0.422 L 4.849,3.214 H 5.133 V 1.23 H 4.858 C 4.472,2.268 3.903,2.911 3.003,2.911 1.947,2.911 0.992,1.91 0.992,0.037 c 0,-1.782 1.148,-2.654 2.176,-2.654 1.038,0 1.607,0.633 1.965,1.405 L 5.436,-1.359 C 5.06,-2.213 4.27,-3.095 2.929,-3.095 1.203,-3.095 0,-1.864 0,0"
         style="fill:#011e41;fill-opacity:1;fill-rule:nonzero;stroke:none"
         transform="matrix(1.3333333,0,0,-1.3333333,1293.752,495.342)"
         clip-path="url(#clipPath125)" />
      <path
         id="path126"
         d="M 0,0 C 0.772,0.027 0.955,0.11 0.955,0.395 V 5.06 C 0.955,5.344 0.772,5.427 0,5.455 V 5.748 H 4.904 L 4.931,4.059 4.647,4.049 C 4.325,5.078 4.16,5.409 3.132,5.409 H 1.827 V 3.012 h 0.542 c 0.68,0 0.937,0.064 1.166,1.019 H 3.784 V 1.644 H 3.535 C 3.306,2.599 3.049,2.663 2.369,2.663 H 1.827 V 0.055 h 1.305 c 1.212,0 1.505,0.477 1.827,1.543 L 5.243,1.589 5.198,-0.294 H 0 Z"
         style="fill:#011e41;fill-opacity:1;fill-rule:nonzero;stroke:none"
         transform="matrix(1.3333333,0,0,-1.3333333,1304.65,498.8804)"
         clip-path="url(#clipPath127)" />
      <path
         id="path128"
         d="m 0,0 c 0,-0.303 0.129,-0.367 0.946,-0.395 v -0.294 h -2.773 v 0.294 c 0.771,0.028 0.955,0.111 0.955,0.395 v 4.665 c 0,0.285 -0.184,0.367 -0.955,0.395 v 0.294 h 2.534 c 1.837,0 2.378,-0.707 2.378,-1.47 C 3.085,3.15 2.672,2.617 1.552,2.369 V 2.342 C 2.663,2.232 2.801,1.8 2.911,1.13 L 3.049,0.257 C 3.131,-0.275 3.352,-0.404 3.985,-0.45 v -0.294 c -0.064,0 -0.238,-0.009 -0.303,-0.009 -1.294,0 -1.506,0.266 -1.57,1.102 L 2.057,1.056 C 1.984,1.956 1.607,2.167 0.661,2.167 H 0 Z m 0.707,2.498 c 1.157,0 1.442,0.505 1.442,1.359 0,0.799 -0.404,1.166 -1.506,1.166 H 0 V 2.498 Z"
         style="fill:#011e41;fill-opacity:1;fill-rule:nonzero;stroke:none"
         transform="matrix(1.3333333,0,0,-1.3333333,1318.0093,498.35427)"
         clip-path="url(#clipPath129)" />
      <path
         id="path130"
         d="M 0,0 C 0.771,0.027 0.955,0.11 0.955,0.395 V 5.06 C 0.955,5.344 0.771,5.427 0,5.455 V 5.748 H 4.904 L 4.931,4.059 4.647,4.049 C 4.325,5.078 4.16,5.409 3.131,5.409 H 1.827 V 3.012 h 0.542 c 0.68,0 0.937,0.064 1.166,1.019 H 3.783 V 1.644 H 3.535 C 3.306,2.599 3.049,2.663 2.369,2.663 H 1.827 V 0.055 h 1.304 c 1.213,0 1.506,0.477 1.828,1.543 L 5.244,1.589 5.198,-0.294 H 0 Z"
         style="fill:#011e41;fill-opacity:1;fill-rule:nonzero;stroke:none"
         transform="matrix(1.3333333,0,0,-1.3333333,1326.4343,498.8804)"
         clip-path="url(#clipPath131)" />
      <path
         id="path132"
         d="m 0,0 c 0,39.892 -32.338,72.23 -72.23,72.23 -39.892,0 -72.231,-32.338 -72.231,-72.23 0,-16.399 5.469,-31.52 14.678,-43.644 v 15.456 c 0,0 0.316,1.314 1.779,1.725 1.463,0.412 1.427,1.971 0.94,1.971 -2.222,0 -1.835,-0.627 -3.235,-0.627 -1.4,0 -2.898,0.99 -2.898,3.272 0,2.282 1.99,2.882 2.882,2.882 h 19.919 c 0,0 2.232,-0.132 2.232,-3.048 0,-2.915 -2.145,-3.15 -3.227,-3.15 -1.083,0 -1.287,0.537 -2.906,0.537 v -0.966 c 0,0 2.82,-0.877 2.82,-2.789 v -32.263 c 4.385,-2.844 9.098,-5.225 14.07,-7.074 v 39.53 c 0,0 0.316,1.314 1.779,1.725 1.463,0.412 1.427,1.971 0.94,1.971 -2.222,0 -1.835,-0.627 -3.235,-0.627 -1.4,0 -2.898,0.99 -2.898,3.272 0,2.282 1.99,2.882 2.882,2.882 h 19.919 c 0,0 2.233,-0.132 2.233,-3.048 0,-2.915 -2.145,-3.15 -3.228,-3.15 -1.082,0 -1.287,0.537 -2.906,0.537 v -0.966 c 0,0 2.82,-0.877 2.82,-2.789 v -43.522 c 2.262,-0.214 4.553,-0.327 6.871,-0.327 2.219,0 4.413,0.105 6.581,0.301 v 43.548 c 0,1.912 2.82,2.789 2.82,2.789 v 0.966 c -1.619,0 -1.824,-0.537 -2.906,-0.537 -1.083,0 -3.228,0.235 -3.228,3.15 0,2.916 2.233,3.048 2.233,3.048 h 19.919 c 0.892,0 2.882,-0.6 2.882,-2.882 0,-2.282 -1.498,-3.272 -2.898,-3.272 -1.4,0 -1.013,0.627 -3.236,0.627 -0.486,0 -0.522,-1.559 0.941,-1.971 1.463,-0.411 1.779,-1.725 1.779,-1.725 v -39.64 c 5.462,2.005 10.613,4.651 15.365,7.846 v 31.601 c 0,1.912 2.82,2.789 2.82,2.789 v 0.966 c -1.618,0 -1.823,-0.537 -2.906,-0.537 -1.082,0 -3.227,0.235 -3.227,3.15 0,2.916 2.233,3.048 2.233,3.048 h 19.918 c 0.892,0 2.882,-0.6 2.882,-2.882 0,-2.282 -1.498,-3.272 -2.898,-3.272 -1.4,0 -1.012,0.627 -3.235,0.627 -0.487,0 -0.523,-1.559 0.94,-1.971 1.463,-0.411 1.779,-1.725 1.779,-1.725 V -42.287 C -5.072,-30.4 0,-15.793 0,0 m -72.673,62.664 c 36.796,0 45.843,-30.456 45.843,-30.456 h -11.555 l -34.531,17.378 -34.8,-17.378 h -11.286 c 0,0 7.569,30.456 46.329,30.456 m 58.921,-78.199 h -116.85 v 9.256 h 116.85 z m 0,11.801 h -116.85 V 10.77 h 116.85 z m 1.044,17.735 c -0.47,-0.257 -1.044,-0.245 -1.044,-0.245 h -117.343 c 0,0 -1.684,0.344 -1.546,1.695 0.097,0.956 0.743,1.319 2.129,2.157 1.319,0.797 2.732,1.791 2.732,1.791 v 9.674 h 20.02 l 34.828,17.385 34.547,-17.385 h 21.416 v -9.436 l 1.595,-1.072 c -0.12,0.08 0.936,-0.642 2.394,-1.62 1.774,-1.102 1.072,-2.508 0.272,-2.944"
         style="fill:#011e41;fill-opacity:1;fill-rule:nonzero;stroke:none"
         transform="matrix(1.3333333,0,0,-1.3333333,1356.8115,480.73507)"
         clip-path="url(#clipPath133)" />
      <path
         id="path134"
         d="m 0,0 -7.561,-4.014 h -1.4 L -16.522,0 h -1.587 l -7.607,-4.014 h -1.353 L -34.63,0 h -1.681 l -7.514,-4.014 h -1.446 L -52.739,0 h -1.68 l -7.514,-4.014 h -1.354 L -70.848,0 h -1.68 l -7.514,-4.014 h -1.447 L -88.956,0 h -1.68 l -7.608,-4.014 h -1.26 L -107.065,0 h -1.68 v -11.015 h 1.68 l 7.607,4.014 h 1.261 l 7.561,-4.014 h 1.68 l 7.607,4.014 h 1.354 l 7.467,-4.014 h 1.405 l 7.883,4.014 h 1.26 l 7.561,-4.014 h 1.68 l 7.607,4.014 h 1.114 l 7.707,-4.014 h 1.681 l 7.607,4.014 h 1.354 l 7.56,-4.014 h 1.587 l 7.849,4.014 h 1.112 L 0,-11.015 H 1.4 V 0 Z m -107.065,-9.079 v 2.707 h 5.134 z m 0,4.318 v 2.707 l 5.134,-2.707 z m 16.439,-4.318 -5.134,2.707 h 5.134 z m 0,4.318 h -5.134 l 5.134,2.707 z m 1.744,-4.318 v 2.707 h 5.134 z m 0,4.318 v 2.707 l 5.134,-2.707 z m 16.303,-4.318 -5.134,2.707 h 5.134 z m 0,4.318 h -5.134 l 5.134,2.707 z m 1.744,-4.318 v 2.707 h 5.134 z m 0,4.318 v 2.707 l 5.134,-2.707 z m 16.299,-4.318 -5.134,2.707 h 5.134 z m 0,4.318 h -5.134 l 5.134,2.707 z m 1.744,-4.318 v 2.707 h 5.134 z m 0,4.318 v 2.707 l 5.134,-2.707 z m 16.507,-4.318 -5.133,2.707 h 5.133 z m 0,4.318 h -5.133 l 5.133,2.707 z m 1.745,-4.318 v 2.707 h 5.134 z m 0,4.318 v 2.707 l 5.134,-2.707 z m 16.234,-4.318 -5.133,2.707 h 5.133 z m 0,4.318 h -5.133 l 5.133,2.707 z m 1.745,-4.318 v 2.707 h 5.134 z m 0,4.318 v 2.707 l 5.134,-2.707 z m 16.439,-4.318 -5.134,2.707 h 5.134 z m 0,4.318 h -5.134 l 5.134,2.707 z"
         style="fill:#011e41;fill-opacity:1;fill-rule:nonzero;stroke:none"
         transform="matrix(1.3333333,0,0,-1.3333333,1332.0044,468.72133)" />
    </g>
  </g>
</svg>
