<?xml version="1.0" ?>
<svg xmlns="http://www.w3.org/2000/svg" viewBox="0 0 996 995">
	<path d="M 0.0,497.5 L 0.0,995.0 L 996.0,995.0 L 996.0,0.0 L 0.0,0.0 L 0.0,497.5 M 494.4,648.0 C 494.6,648.0 540.7,621.4 596.9,589.0 C 653.1,556.5 699.7,529.7 700.5,529.4 C 701.8,528.9 702.0,543.1 702.0,645.4 L 702.0,762.0 L 494.0,762.0 L 493.8,705.5 L 493.5,649.0 L 390.5,708.6 C 333.9,741.4 286.9,768.4 286.3,768.7 C 285.3,769.1 285.0,720.6 285.0,528.4 L 285.0,287.5 L 389.3,227.3 L 493.5,167.0 L 493.8,407.5 C 493.9,539.8 494.2,648.0 494.4,648.0 L 494.4,648.0"/>
</svg>