<?xml version="1.0" ?>
<svg xmlns="http://www.w3.org/2000/svg" version="1.2" viewBox="0 0 1556 1544">
	<defs>
		<clipPath clipPathUnits="userSpaceOnUse" id="cp1">
			<path d="m-11048.59-738.35h13606.64v19240.77h-13606.64z"/>
		</clipPath>
	</defs>
	<style>
		.s0 { fill: #85c441 } 
	</style>
	<g id="Clip-Path: Clip-Path: Page 1" clip-path="url(#cp1)">
		<g id="Clip-Path: Page 1">
			<g id="Page 1">
				<path id="Path 3" class="s0" d="m1058.1 808.7l5.7 678.7-1.2-83.4c0 40.1-25.1 75.4-61.8 89.1-12.5 4.5-49 4.5-62.7 0-35.6-12.6-60.7-44.5-62.8-84.6l-4.7-598.6-67.3 68.4-410.3 417c-18.2 18.3-15.9 50.5 5.9 66.4 164.3 118.8 363.2 182.8 569.9 181.6 113.2-1.2 225.2-21.6 330.3-60.4 85.5-32.2 165.6-76.7 238.7-131.4 21.8-16.1 23.9-48.1 4.5-67.5zm-389.5-62.8l68.4-68.6-680.7 5.6 85.7-1.1c-42.4 0-78.8-27.3-90.4-66.1-3.3-12.6-5.7-34.4-1-55 11.4-37.6 47.9-66.3 89.1-66.3h-84.6l679.8-4.5-483.2-476.4c-20.6-19.4-52.6-16.1-69.7 5.7-52.5 74.3-94.9 154.1-125.7 239.8-37.6 105.2-56.1 217.2-56.1 330.4 2.4 206.7 68.7 403.3 189.7 565.5 17.2 22.7 50.4 25.1 69.8 5.7z"/>
			</g>
		</g>
	</g>
</svg>