<?xml version="1.0" ?>
<svg xmlns="http://www.w3.org/2000/svg" viewBox="0 0 122 31" fill="none">
	<g clip-path="url(#clip0_116_2)">
		<path d="M100.573 1.99191C100.725 1.99191 100.852 2.09966 100.881 2.24344L100.887 2.29891V7.13751H108.225C108.333 7.13691 108.432 7.19326 108.488 7.28333L108.512 7.33106L113.181 18.4031L117.584 7.33106C117.625 7.23144 117.714 7.16122 117.817 7.14249L117.87 7.13751H120.859C120.959 7.14673 121.047 7.20279 121.099 7.28847C121.14 7.35702 121.153 7.43795 121.136 7.51475L121.119 7.57133L111.58 30.6765C111.539 30.7761 111.449 30.8463 111.346 30.865L111.293 30.87H108.398C108.294 30.8691 108.197 30.8164 108.139 30.7294C108.093 30.6599 108.078 30.5756 108.093 30.4954L108.111 30.4362L111.399 22.5276L106.063 10.2542H100.933L100.934 17.1917L100.942 17.6509L100.955 17.932C100.956 17.9772 100.959 18.0217 100.962 18.0653L100.983 18.3177C100.987 18.3582 100.992 18.398 100.996 18.437L101.028 18.6623C101.217 19.8168 101.745 20.233 103.076 20.3593L103.335 20.3798L103.614 20.394L103.911 20.4027C103.963 20.4038 104.016 20.4046 104.069 20.4053C104.218 20.4085 104.342 20.5158 104.37 20.6576L104.375 20.7123V23.3819C104.372 23.5335 104.262 23.6582 104.118 23.684L104.062 23.6889L103.593 23.6879L103.176 23.6796C99.0227 23.5531 97.5645 22.1058 97.4011 17.9262L97.3887 17.5062L97.3848 17.0684V2.29891C97.3877 2.14952 97.4953 2.02595 97.6375 1.99784L97.6913 1.99191H100.573ZM92.3552 7.13751C92.5284 7.13751 92.6687 7.27796 92.6687 7.45119V23.0548C92.6687 23.2281 92.5284 23.3686 92.3552 23.3686H89.4735C89.3909 23.3686 89.3118 23.3353 89.2541 23.2763C89.1963 23.2173 89.1648 23.1375 89.1666 23.0548V7.47121C89.1591 7.38527 89.1881 7.30015 89.2465 7.23666C89.3049 7.17317 89.3872 7.13719 89.4735 7.13751H92.3552ZM90.9143 0.129883C91.4928 0.129883 92.0477 0.359812 92.4567 0.769086C92.8658 1.17836 93.0956 1.73346 93.0956 2.31226C93.0956 3.51755 92.119 4.49464 90.9143 4.49464C89.7096 4.49464 88.733 3.51755 88.733 2.31226C88.733 1.10697 89.7096 0.129883 90.9143 0.129883ZM79.0739 6.77713C82.0624 6.77713 84.1103 7.83161 85.4777 9.63357C85.5342 9.70564 85.5564 9.79882 85.5384 9.88863C85.5205 9.97845 85.4642 10.056 85.3843 10.1007L83.0163 11.3888C82.8834 11.4637 82.7158 11.4296 82.6227 11.3087C81.7854 10.206 80.4559 9.59093 79.0739 9.66694C77.1594 9.66694 76.2522 10.5479 76.2522 11.6158C76.2522 12.3695 76.9468 12.7707 78.2236 13.1434L78.5548 13.2362L78.91 13.3289L79.2886 13.4227L80.1145 13.6179L80.4183 13.6846L80.8684 13.7889L81.1691 13.8635L81.4693 13.9428L81.7678 14.0275L82.0636 14.1182L82.356 14.2155L82.6436 14.32C84.4489 15.0064 85.918 16.1665 85.918 18.5166C85.918 20.9526 83.75 23.749 79.2474 23.7156C75.9121 23.7156 73.5973 22.5476 72.1831 20.3252C72.1255 20.2598 72.0985 20.1729 72.1086 20.0864C72.1188 19.9998 72.1653 19.9216 72.2365 19.8714L74.8114 18.4766C74.9522 18.3976 75.1301 18.4414 75.2183 18.5767C76.1334 19.9674 77.7191 20.7658 79.3808 20.6723C81.382 20.6723 82.4293 19.6979 82.4293 18.5633C82.4293 17.7106 81.6341 17.2854 80.5241 16.9713L80.2278 16.8916C80.1772 16.8788 80.1262 16.866 80.0748 16.8533L79.5997 16.7424L78.4269 16.4877L77.9657 16.3917L77.6582 16.3231L77.1993 16.2114L76.8963 16.1303C76.8461 16.1163 76.7959 16.1021 76.746 16.0876L76.4485 15.9971C76.3993 15.9814 76.3502 15.9655 76.3014 15.9492L76.0115 15.848C74.1937 15.182 72.7501 14.0354 72.7501 11.6825C72.7501 9.11968 75.2116 6.75043 79.0739 6.77713ZM62.0237 6.85054C66.673 6.86165 70.4331 10.6415 70.422 15.293C70.411 19.9447 66.633 23.7066 61.9837 23.6957C59.7471 23.7028 57.6007 22.8143 56.023 21.2283C54.4453 19.6423 53.5675 17.4906 53.5854 15.253C53.5964 10.6014 57.3744 6.83953 62.0237 6.85054ZM59.4565 10.7838C57.8882 11.7154 56.954 13.4296 57.0207 15.253C56.954 17.0765 57.8882 18.7907 59.4565 19.7222C61.0246 20.6537 62.9761 20.6537 64.5443 19.7222C66.1125 18.7907 67.0467 17.0765 66.98 15.253C67.0467 13.4296 66.1125 11.7154 64.5443 10.7838C62.9761 9.85232 61.0246 9.85232 59.4565 10.7838ZM43.9863 6.86389C47.7318 6.86389 50.7289 9.20644 50.8976 13.6948L50.9038 13.9249V23.0548C50.9038 23.2065 50.796 23.3335 50.6523 23.3624L50.5969 23.3686H47.6818C47.5279 23.3686 47.3999 23.2575 47.3734 23.1112L47.3683 23.0548V14.2052C47.3683 11.2754 46.2343 9.84051 44.033 9.84051C41.8816 9.84051 40.7497 11.2173 40.6994 14.0082L40.6977 14.2052V23.0548C40.6977 23.2065 40.59 23.3335 40.4463 23.3624L40.3908 23.3686H37.4757C37.3218 23.3686 37.1938 23.2575 37.1673 23.1112L37.1622 23.0548V14.2052C37.1622 11.2754 36.0349 9.84051 33.8269 9.84051C31.6691 9.84051 30.5433 11.2108 30.4933 14.0078L30.4915 14.2052V23.0548C30.4915 23.2088 30.3806 23.3369 30.2344 23.3635L30.178 23.3686H27.263C27.1091 23.3686 26.981 23.2575 26.9545 23.1112L26.9494 23.0548V13.9249C26.9494 9.28652 30.018 6.86389 33.8135 6.86389C35.7488 6.79281 37.6216 7.5559 38.9566 8.9595C40.1919 7.60123 41.9463 6.83902 43.7749 6.85819L43.9863 6.86389ZM12.3607 7.15753C12.5146 7.15753 12.6427 7.26851 12.6692 7.41483L12.6743 7.47122V16.2941C12.6743 19.2107 14.2218 20.6656 16.3898 20.6656C18.5085 20.6656 19.99 19.2888 20.0563 16.4916L20.0586 16.2941V7.47122C20.0586 7.31723 20.1696 7.18915 20.3158 7.1626L20.3722 7.15753H23.2872C23.4412 7.15753 23.5692 7.26851 23.5957 7.41483L23.6008 7.47122V16.5812C23.6008 20.8792 20.9525 23.6422 16.3898 23.6422C11.9007 23.6422 9.24537 20.9676 9.16088 16.7879L9.15881 16.5812V7.47122C9.15881 7.31723 9.26971 7.18915 9.41597 7.1626L9.47232 7.15753H12.3607ZM3.19524 1.99191C3.34588 1.99191 3.47117 2.10051 3.49714 2.24373L3.50209 2.29891L3.50263 17.1984L3.50716 17.5096C3.50834 17.5597 3.50972 17.6091 3.51133 17.6576L3.52387 17.9387L3.54255 18.2005L3.56804 18.4437C3.73296 19.7703 4.25702 20.2318 5.67586 20.366L5.93564 20.3864L6.21465 20.4007L6.51354 20.4095C6.56505 20.4105 6.61741 20.4113 6.67065 20.412C6.80401 20.4291 6.90933 20.5286 6.93713 20.656L6.94414 20.7123V23.3819C6.94093 23.5335 6.83049 23.6581 6.68619 23.684L6.63062 23.6889L6.20858 23.6879L5.79128 23.6797C1.63766 23.5547 0.179626 22.1229 0.0159061 17.9293L0.00392714 17.5079C0.00260986 17.4361 0.00162808 17.3637 0.000975606 17.2904L0 2.29891C0.00322611 2.14724 0.113657 2.02264 0.257962 1.99682L0.313521 1.99191H3.19524Z" fill="black"/>
	</g>
	<defs>
		<clipPath id="clip0_116_2">
			<rect width="122" height="31" fill="white"/>
		</clipPath>
	</defs>
</svg>