<svg xmlns="http://www.w3.org/2000/svg" xml:space="preserve" id="Layer_1" x="0" y="0" style="enable-background:new 0 0 757 504.3" version="1.1" viewBox="0 0 757 504.3"><style>.st1{fill:#fff}</style><path d="M0 0h757v504.3H0z" style="fill:#1c1e36"/><path d="M263.1 287.6c8.6 0 17-1.9 24.7-5.5 7.4-3.4 14-8.5 19.1-14.9v16.6h35.7V149.2H307v69.5c0 10.9-2.8 19.6-8.5 26-2.7 3.1-6.1 5.6-9.8 7.3-3.8 1.7-7.9 2.5-12 2.4-7.8 0-13.9-2.2-18.5-6.5-4.6-4.4-6.9-10.9-6.9-19.6v-79h-35.7V241c0 15.3 4.3 26.8 12.8 34.7 8.5 7.9 20.1 11.9 34.7 11.9zm103.9-3.8h35.7v-69.5c0-10.9 2.8-19.6 8.5-26 2.7-3.1 6.1-5.6 9.8-7.3s7.9-2.5 12-2.4c7.8 0 13.9 2.2 18.5 6.5 4.6 4.4 6.9 10.9 6.9 19.6v79h35.7v-91.8c0-15.3-4.3-26.8-12.8-34.7-8.6-7.9-20.2-11.9-34.8-11.9-8.6 0-17 1.9-24.8 5.6-7.4 3.4-13.9 8.5-19.1 14.8v-16.6H367v134.7zm214.3-29.5c-11 0-19.8-3.6-26.5-10.9-6.7-7.3-10-16.3-10-27s3.3-19.7 10-27 15.5-10.9 26.5-10.9 19.8 3.6 26.5 10.9c6.7 7.3 10 16.3 10.1 27 0 10.7-3.3 19.7-10 27-6.7 7.3-15.6 10.9-26.6 10.9zm-7.3 33.3c9.9 0 18.1-1.4 24.4-4.1 6.6-2.9 12.6-7 17.9-12v12.3H652V149.2h-35.7v12.3c-3.8-4.9-9.2-8.8-16.4-11.7-7.5-3-15.6-4.5-23.7-4.4-11.9-.1-23.7 3.3-33.8 9.6-10.2 6.3-18.6 15.2-24.3 25.9-6 10.9-9 23.2-8.9 35.7 0 14.2 3.1 26.7 9.3 37.5 5.8 10.3 14.2 19 24.3 24.9 9.4 5.6 20.2 8.6 31.2 8.6zm-477.8-3.9h103.7V251h-65.2V149.2H96.2v134.5zM267.4 351.5h21.4v5.7h-14.6v7.8h13.1v5.7h-13.1v13.5h-6.8v-32.7zM305.3 351.5H318c7.3 0 11.6 4.2 11.6 10.7 0 4.5-2 7.7-5.7 9.3l6.9 12.7h-7.5l-6.1-11.6h-5v11.6h-6.8v-32.7zm11.5 15.5c3.9 0 5.8-1.6 5.8-4.9 0-3.2-1.9-5-5.9-5h-4.6v9.9h4.7zM361.1 384.6c-8.6 0-15.1-6.2-15.1-16.8 0-10.7 6.5-16.8 15.1-16.8s15.1 6.1 15.1 16.8c0 10.7-6.6 16.8-15.1 16.8zm0-27.5c-5 0-8.2 3.8-8.2 10.7 0 6.9 3.2 10.7 8.2 10.7 5 0 8.2-3.8 8.2-10.7 0-6.9-3.3-10.7-8.2-10.7zM401.7 351.5l8.9 22h.4l8.9-22h8.4v32.7h-6.6v-21.3h-.3L413 384h-4.5l-8.4-21.2h-.3v21.4h-6.6v-32.7h8.5zM495 351.5v21.2c0 7.2-5.4 11.9-13.4 11.9s-13.4-4.8-13.4-11.9v-21.2h6.8v20.7c0 3.7 2.6 6.4 6.6 6.4 4 0 6.6-2.7 6.6-6.4v-20.7h6.8zM539.6 384.2h-5.9l-14.1-20.6h-.2v20.6h-6.8v-32.7h6l13.9 20.6h.3v-20.6h6.8v32.7zM564.1 384.2h-6.8v-32.7h6.8v32.7zM580.5 351.5H607v5.7h-9.9v27h-6.8v-27h-9.9l.1-5.7zM629.2 351.5l7.4 14.1h.3l7.4-14.1h7.6l-11.8 21.2v11.6h-6.8v-11.6l-11.8-21.2h7.7z" class="st1"/></svg>