<?xml version="1.0" ?>
<svg xmlns="http://www.w3.org/2000/svg" viewBox="0 0 140 31" fill="none">
	<defs>
		<linearGradient id="logoGradient" x1="0" y1="0" x2="140" y2="31" gradientUnits="userSpaceOnUse">
			<stop offset="0%" stop-color="#66C2BE"/>
			<stop offset="50%" stop-color="#8CB7D0"/>
			<stop offset="100%" stop-color="#E3DFF1"/>
		</linearGradient>
		<linearGradient id="logoGradient2" x1="140" y1="0" x2="0" y2="31" gradientUnits="userSpaceOnUse">
			<stop offset="0%" stop-color="#E3DFF1"/>
			<stop offset="50%" stop-color="#8CB7D0"/>
			<stop offset="100%" stop-color="#66C2BE"/>
		</linearGradient>
		<radialGradient id="logoGlow" cx="70" cy="15.5" r="70" gradientUnits="userSpaceOnUse">
			<stop offset="0%" stop-color="#66C2BE" stop-opacity="0.2"/>
			<stop offset="100%" stop-color="#66C2BE" stop-opacity="0"/>
		</radialGradient>
	</defs>
	<g clip-path="url(#clip0_472_337)">
		<path d="M41.5571 24.8725C41.4644 24.7816 41.3914 24.6728 41.3425 24.5529C41.2936 24.433 41.2698 24.3045 41.2727 24.1751V5.09544C41.2698 4.9655 41.2934 4.83633 41.3423 4.71575C41.3912 4.59518 41.4643 4.48571 41.5571 4.39401C41.6496 4.30226 41.76 4.23025 41.8816 4.18241C42.0031 4.13458 42.1333 4.11193 42.264 4.11585H43.2553C43.3809 4.11421 43.5055 4.13803 43.6214 4.18586C43.7374 4.23369 43.8423 4.30452 43.9297 4.39401C44.0233 4.48514 44.0969 4.5945 44.1458 4.71521C44.1948 4.83593 44.218 4.96538 44.2141 5.09544V17.2979L49.1584 11.3237C49.3393 11.0777 49.5785 10.8799 49.8549 10.7477C50.1313 10.6155 50.4363 10.553 50.7428 10.5658H52.3679C52.6523 10.5658 52.827 10.6383 52.892 10.7754C52.957 10.9125 52.892 11.0979 52.7376 11.3237L47.578 17.6083L53.3754 24.3969C53.5461 24.6226 53.5989 24.8 53.5298 24.9451C53.4607 25.0902 53.2901 25.1547 53.0098 25.1547H51.3116C51.0049 25.1686 50.6995 25.1066 50.4229 24.9743C50.1464 24.842 49.9073 24.6436 49.7271 24.3969L44.2141 17.9187V24.1872C44.2179 24.3167 44.1946 24.4455 44.1457 24.5656C44.0967 24.6856 44.0232 24.7943 43.9297 24.8846C43.8429 24.9752 43.7383 25.0471 43.6222 25.0956C43.5061 25.1442 43.3812 25.1684 43.2553 25.1668H42.2518C42.1219 25.1677 41.9931 25.1421 41.8736 25.0914C41.7541 25.0408 41.6463 24.9663 41.5571 24.8725V24.8725Z" fill="url(#logoGradient)"/>
		<path d="M56.7113 23.3326C55.343 21.8407 54.6144 19.8785 54.68 17.8623C54.6135 15.846 55.3423 13.8834 56.7113 12.3919C57.346 11.6863 58.127 11.1253 59.0008 10.7475C59.8746 10.3696 60.8204 10.1839 61.7734 10.203C62.7158 10.1874 63.6508 10.3693 64.5175 10.7367C65.3842 11.1042 66.163 11.649 66.803 12.3355V11.5293C66.7988 11.4006 66.8204 11.2723 66.8664 11.152C66.9124 11.0316 66.982 10.9214 67.0711 10.8278C67.1599 10.7343 67.2678 10.6607 67.3877 10.612C67.5075 10.5633 67.6365 10.5407 67.7659 10.5457H68.7572C68.8879 10.5429 69.0179 10.5665 69.1392 10.615C69.2605 10.6635 69.3706 10.7359 69.4629 10.8278C69.5552 10.9198 69.6277 11.0294 69.6761 11.1499C69.7245 11.2705 69.7477 11.3995 69.7444 11.5293V24.1873C69.7471 24.3167 69.7235 24.4453 69.6749 24.5654C69.6262 24.6855 69.5536 24.7945 69.4614 24.8861C69.3692 24.9776 69.2592 25.0496 69.1382 25.0979C69.0172 25.1461 68.8876 25.1696 68.7572 25.1668H67.7659C67.6365 25.1718 67.5075 25.1492 67.3877 25.1005C67.2678 25.0518 67.1599 24.9782 67.0711 24.8847C66.9823 24.7917 66.9129 24.6822 66.8669 24.5625C66.8209 24.4428 66.7991 24.3153 66.803 24.1873V23.381C66.1625 24.0669 65.3836 24.6113 64.5171 24.9787C63.6505 25.3461 62.7157 25.5284 61.7734 25.5135C60.8211 25.5337 59.8756 25.3492 59.0018 24.9727C58.1281 24.5963 57.3467 24.0368 56.7113 23.3326V23.3326ZM59.027 14.464C58.1591 15.3759 57.6915 16.5924 57.727 17.8462C57.7095 18.4664 57.8153 19.0839 58.0384 19.6635C58.2615 20.2432 58.5974 20.7735 59.027 21.2243C59.4413 21.6551 59.9393 21.998 60.491 22.2322C61.0427 22.4665 61.6365 22.5873 62.2365 22.5873C62.8366 22.5873 63.4304 22.4665 63.9821 22.2322C64.5338 21.998 65.0318 21.6551 65.4461 21.2243C65.8766 20.7742 66.2131 20.2439 66.4363 19.6641C66.6594 19.0844 66.7647 18.4665 66.7461 17.8462C66.7646 17.2252 66.6592 16.6068 66.4361 16.0264C66.213 15.446 65.8766 14.915 65.4461 14.464C65.0318 14.0332 64.5338 13.6904 63.9821 13.4561C63.4304 13.2218 62.8366 13.101 62.2365 13.101C61.6365 13.101 61.0427 13.2218 60.491 13.4561C59.9393 13.6904 59.4413 14.0332 59.027 14.464V14.464Z" fill="url(#logoGradient2)"/>
		<path d="M73.5348 24.8725C73.4434 24.7831 73.3711 24.6764 73.3223 24.5586C73.2734 24.4409 73.249 24.3146 73.2504 24.1872V5.09543C73.2465 4.96573 73.2693 4.8366 73.3176 4.71599C73.3658 4.59537 73.4384 4.48582 73.5308 4.39407C73.6233 4.30231 73.7337 4.2303 73.8553 4.18245C73.9768 4.13461 74.107 4.11194 74.2377 4.11585H75.229C75.3552 4.11389 75.4805 4.13756 75.5972 4.18539C75.7138 4.23322 75.8194 4.30421 75.9074 4.394C75.9997 4.48591 76.0721 4.5955 76.1203 4.71609C76.1685 4.83669 76.1915 4.96576 76.1878 5.09543V12.6983C77.2711 11.0347 78.9111 10.203 81.1077 10.203C81.8918 10.1759 82.6734 10.3045 83.4067 10.5814C84.1399 10.8584 84.81 11.2779 85.3775 11.8155C85.9337 12.3422 86.3723 12.9789 86.6648 13.6844C86.9573 14.39 87.0973 15.1486 87.0757 15.9112V24.1872C87.078 24.3168 87.0538 24.4455 87.0047 24.5656C86.9556 24.6857 86.8826 24.7948 86.7901 24.8862C86.6975 24.9777 86.5873 25.0497 86.4661 25.0979C86.3448 25.1461 86.215 25.1696 86.0844 25.1668H85.1257C84.9951 25.1696 84.8653 25.1461 84.744 25.0979C84.6228 25.0497 84.5126 24.9777 84.42 24.8862C84.3275 24.7948 84.2545 24.6857 84.2054 24.5656C84.1563 24.4455 84.1321 24.3168 84.1344 24.1872V16.7658C84.1495 16.2639 84.0594 15.7643 83.8699 15.2987C83.6804 14.8331 83.3955 14.4116 83.0334 14.0608C82.6692 13.7042 82.2359 13.4245 81.7596 13.2388C81.2834 13.0531 80.7741 12.9652 80.2626 12.9805C79.1881 12.9495 78.1451 13.3423 77.3619 14.0729C76.9826 14.4177 76.6816 14.8387 76.4792 15.3079C76.2767 15.7771 76.1774 16.2837 76.1878 16.794V24.1872C76.1914 24.3163 76.1684 24.4447 76.1202 24.5647C76.072 24.6846 75.9996 24.7935 75.9074 24.8846C75.8202 24.9757 75.7149 25.0479 75.5981 25.0964C75.4813 25.145 75.3556 25.169 75.229 25.1668H74.2377C74.1065 25.1681 73.9764 25.1426 73.8555 25.092C73.7346 25.0414 73.6254 24.9667 73.5348 24.8725V24.8725Z" fill="url(#logoGradient)"/>
		<path d="M91.9344 23.3326C90.5662 21.8406 89.8375 19.8784 89.9031 17.8623C89.8367 15.8459 90.5654 13.8834 91.9344 12.3919C92.5696 11.6869 93.3508 11.1263 94.2244 10.7485C95.0981 10.3707 96.0437 10.1846 96.9965 10.203C97.9395 10.1875 98.8751 10.3695 99.7424 10.7369C100.61 11.1044 101.389 11.6491 102.03 12.3355V11.5292C102.026 11.4005 102.048 11.2723 102.094 11.1519C102.14 11.0315 102.209 10.9214 102.298 10.8278C102.387 10.7342 102.495 10.6606 102.615 10.6119C102.735 10.5633 102.864 10.5406 102.993 10.5456H103.98C104.111 10.5429 104.241 10.5664 104.363 10.6149C104.484 10.6633 104.595 10.7357 104.687 10.8276C104.78 10.9195 104.853 11.029 104.902 11.1496C104.951 11.2702 104.974 11.3993 104.972 11.5292V24.1872C104.974 24.3168 104.95 24.4455 104.901 24.5656C104.851 24.6857 104.778 24.7948 104.686 24.8862C104.593 24.9777 104.483 25.0497 104.362 25.0979C104.241 25.1461 104.111 25.1695 103.98 25.1668H102.993C102.864 25.1718 102.735 25.1491 102.615 25.1005C102.495 25.0518 102.387 24.9782 102.298 24.8846C102.21 24.7917 102.14 24.6822 102.094 24.5625C102.048 24.4428 102.026 24.3153 102.03 24.1872V23.381C101.389 24.0666 100.609 24.6107 99.7418 24.9781C98.8746 25.3455 97.9393 25.5279 96.9965 25.5135C96.0443 25.5328 95.0991 25.348 94.2255 24.9716C93.3518 24.5952 92.5704 24.0361 91.9344 23.3326V23.3326ZM94.2542 14.4639C93.3863 15.3759 92.9187 16.5923 92.9542 17.8461C92.9367 18.4663 93.0425 19.0839 93.2656 19.6635C93.4887 20.2431 93.8246 20.7735 94.2542 21.2243C94.6685 21.655 95.1665 21.9979 95.7182 22.2322C96.2699 22.4664 96.8637 22.5872 97.4638 22.5872C98.0638 22.5872 98.6576 22.4664 99.2093 22.2322C99.761 21.9979 100.259 21.655 100.673 21.2243C101.103 20.7735 101.439 20.2431 101.662 19.6635C101.885 19.0839 101.991 18.4663 101.973 17.8461C102.009 16.5923 101.541 15.3759 100.673 14.4639C100.259 14.0332 99.761 13.6903 99.2093 13.456C98.6576 13.2218 98.0638 13.101 97.4638 13.101C96.8637 13.101 96.2699 13.2218 95.7182 13.456C95.1665 13.6903 94.6685 14.0332 94.2542 14.4639V14.4639Z" fill="url(#logoGradient2)"/>
		<path d="M108.758 24.8725C108.667 24.783 108.595 24.6762 108.546 24.5585C108.497 24.4408 108.473 24.3145 108.474 24.1872V11.5494C108.471 11.4194 108.494 11.2902 108.543 11.1696C108.592 11.049 108.665 10.9395 108.758 10.848C108.85 10.7549 108.96 10.6817 109.082 10.6332C109.204 10.5846 109.334 10.5616 109.465 10.5658H110.457C110.583 10.5643 110.708 10.5886 110.825 10.6372C110.942 10.6857 111.047 10.7574 111.135 10.848C111.227 10.9397 111.3 11.0493 111.348 11.1699C111.396 11.2905 111.419 11.4197 111.415 11.5494V12.6983C112.499 11.0347 114.11 10.203 116.25 10.203C117.021 10.1783 117.789 10.3084 118.508 10.5855C119.227 10.8626 119.882 11.2809 120.434 11.8154C120.983 12.3466 121.414 12.9848 121.702 13.6897C121.989 14.3946 122.126 15.151 122.104 15.9112V24.1872C122.106 24.3168 122.082 24.4455 122.033 24.5656C121.984 24.6857 121.911 24.7948 121.819 24.8862C121.726 24.9777 121.616 25.0497 121.495 25.0979C121.373 25.1461 121.244 25.1695 121.113 25.1668H120.154C120.024 25.1695 119.894 25.1461 119.772 25.0979C119.651 25.0497 119.541 24.9777 119.449 24.8862C119.356 24.7948 119.283 24.6857 119.234 24.5656C119.185 24.4455 119.161 24.3168 119.163 24.1872V16.7658C119.178 16.2663 119.09 15.7691 118.906 15.3042C118.722 14.8392 118.444 14.4162 118.09 14.0608C117.738 13.7057 117.315 13.4264 116.849 13.2405C116.383 13.0547 115.883 12.9661 115.38 12.9805C114.862 12.9677 114.345 13.0578 113.862 13.2453C113.378 13.4329 112.938 13.7143 112.565 14.0729C112.193 14.4216 111.898 14.844 111.701 15.3127C111.504 15.7815 111.408 16.2861 111.419 16.794V24.1872C111.423 24.3163 111.4 24.4447 111.352 24.5647C111.304 24.6846 111.231 24.7935 111.139 24.8846C111.051 24.9751 110.946 25.0469 110.829 25.0954C110.713 25.1439 110.587 25.1682 110.461 25.1668H109.469C109.337 25.1699 109.205 25.1454 109.082 25.0947C108.96 25.044 108.849 24.9683 108.758 24.8725V24.8725Z" fill="url(#logoGradient)"/>
		<path d="M41.5571 24.8725C41.4644 24.7816 41.3914 24.6728 41.3425 24.5529C41.2936 24.433 41.2698 24.3045 41.2727 24.1751V5.09544C41.2698 4.9655 41.2934 4.83633 41.3423 4.71575C41.3912 4.59518 41.4643 4.48571 41.5571 4.39401C41.6496 4.30226 41.76 4.23025 41.8816 4.18241C42.0031 4.13458 42.1333 4.11193 42.264 4.11585H43.2553C43.3809 4.11421 43.5055 4.13803 43.6214 4.18586C43.7374 4.23369 43.8423 4.30452 43.9297 4.39401C44.0233 4.48514 44.0969 4.5945 44.1458 4.71521C44.1948 4.83593 44.218 4.96538 44.2141 5.09544V17.2979L49.1584 11.3237C49.3393 11.0777 49.5785 10.8799 49.8549 10.7477C50.1313 10.6155 50.4363 10.553 50.7428 10.5658H52.3679C52.6523 10.5658 52.827 10.6383 52.892 10.7754C52.957 10.9125 52.892 11.0979 52.7376 11.3237L47.578 17.6083L53.3754 24.3969C53.5461 24.6226 53.5989 24.8 53.5298 24.9451C53.4607 25.0902 53.2901 25.1547 53.0098 25.1547H51.3116C51.0049 25.1686 50.6995 25.1066 50.4229 24.9743C50.1464 24.842 49.9073 24.6436 49.7271 24.3969L44.2141 17.9187V24.1872C44.2179 24.3167 44.1946 24.4455 44.1457 24.5656C44.0967 24.6856 44.0232 24.7943 43.9297 24.8846C43.8429 24.9752 43.7383 25.0471 43.6222 25.0956C43.5061 25.1442 43.3812 25.1684 43.2553 25.1668H42.2518C42.1219 25.1677 41.9931 25.1421 41.8736 25.0914C41.7541 25.0408 41.6463 24.9663 41.5571 24.8725V24.8725Z" fill="#66C2BE"/>
		<path d="M56.7113 23.3326C55.343 21.8407 54.6144 19.8785 54.68 17.8623C54.6135 15.846 55.3423 13.8834 56.7113 12.3919C57.346 11.6863 58.127 11.1253 59.0008 10.7475C59.8746 10.3696 60.8204 10.1839 61.7734 10.203C62.7158 10.1874 63.6508 10.3693 64.5175 10.7367C65.3842 11.1042 66.163 11.649 66.803 12.3355V11.5293C66.7988 11.4006 66.8204 11.2723 66.8664 11.152C66.9124 11.0316 66.982 10.9214 67.0711 10.8278C67.1599 10.7343 67.2678 10.6607 67.3877 10.612C67.5075 10.5633 67.6365 10.5407 67.7659 10.5457H68.7572C68.8879 10.5429 69.0179 10.5665 69.1392 10.615C69.2605 10.6635 69.3706 10.7359 69.4629 10.8278C69.5552 10.9198 69.6277 11.0294 69.6761 11.1499C69.7245 11.2705 69.7477 11.3995 69.7444 11.5293V24.1873C69.7471 24.3167 69.7235 24.4453 69.6749 24.5654C69.6262 24.6855 69.5536 24.7945 69.4614 24.8861C69.3692 24.9776 69.2592 25.0496 69.1382 25.0979C69.0172 25.1461 68.8876 25.1696 68.7572 25.1668H67.7659C67.6365 25.1718 67.5075 25.1492 67.3877 25.1005C67.2678 25.0518 67.1599 24.9782 67.0711 24.8847C66.9823 24.7917 66.9129 24.6822 66.8669 24.5625C66.8209 24.4428 66.7991 24.3153 66.803 24.1873V23.381C66.1625 24.0669 65.3836 24.6113 64.5171 24.9787C63.6505 25.3461 62.7157 25.5284 61.7734 25.5135C60.8211 25.5337 59.8756 25.3492 59.0018 24.9727C58.1281 24.5963 57.3467 24.0368 56.7113 23.3326V23.3326ZM59.027 14.464C58.1591 15.3759 57.6915 16.5924 57.727 17.8462C57.7095 18.4664 57.8153 19.0839 58.0384 19.6635C58.2615 20.2432 58.5974 20.7735 59.027 21.2243C59.4413 21.6551 59.9393 21.998 60.491 22.2322C61.0427 22.4665 61.6365 22.5873 62.2365 22.5873C62.8366 22.5873 63.4304 22.4665 63.9821 22.2322C64.5338 21.998 65.0318 21.6551 65.4461 21.2243C65.8766 20.7742 66.2131 20.2439 66.4363 19.6641C66.6594 19.0844 66.7647 18.4665 66.7461 17.8462C66.7646 17.2252 66.6592 16.6068 66.4361 16.0264C66.213 15.446 65.8766 14.915 65.4461 14.464C65.0318 14.0332 64.5338 13.6904 63.9821 13.4561C63.4304 13.2218 62.8366 13.101 62.2365 13.101C61.6365 13.101 61.0427 13.2218 60.491 13.4561C59.9393 13.6904 59.4413 14.0332 59.027 14.464V14.464Z" fill="#66C2BE"/>
		<path d="M73.5348 24.8725C73.4434 24.7831 73.3711 24.6764 73.3223 24.5586C73.2734 24.4409 73.249 24.3146 73.2504 24.1872V5.09543C73.2465 4.96573 73.2693 4.8366 73.3176 4.71599C73.3658 4.59537 73.4384 4.48582 73.5308 4.39407C73.6233 4.30231 73.7337 4.2303 73.8553 4.18245C73.9768 4.13461 74.107 4.11194 74.2377 4.11585H75.229C75.3552 4.11389 75.4805 4.13756 75.5972 4.18539C75.7138 4.23322 75.8194 4.30421 75.9074 4.394C75.9997 4.48591 76.0721 4.5955 76.1203 4.71609C76.1685 4.83669 76.1915 4.96576 76.1878 5.09543V12.6983C77.2711 11.0347 78.9111 10.203 81.1077 10.203C81.8918 10.1759 82.6734 10.3045 83.4067 10.5814C84.1399 10.8584 84.81 11.2779 85.3775 11.8155C85.9337 12.3422 86.3723 12.9789 86.6648 13.6844C86.9573 14.39 87.0973 15.1486 87.0757 15.9112V24.1872C87.078 24.3168 87.0538 24.4455 87.0047 24.5656C86.9556 24.6857 86.8826 24.7948 86.7901 24.8862C86.6975 24.9777 86.5873 25.0497 86.4661 25.0979C86.3448 25.1461 86.215 25.1696 86.0844 25.1668H85.1257C84.9951 25.1696 84.8653 25.1461 84.744 25.0979C84.6228 25.0497 84.5126 24.9777 84.42 24.8862C84.3275 24.7948 84.2545 24.6857 84.2054 24.5656C84.1563 24.4455 84.1321 24.3168 84.1344 24.1872V16.7658C84.1495 16.2639 84.0594 15.7643 83.8699 15.2987C83.6804 14.8331 83.3955 14.4116 83.0334 14.0608C82.6692 13.7042 82.2359 13.4245 81.7596 13.2388C81.2834 13.0531 80.7741 12.9652 80.2626 12.9805C79.1881 12.9495 78.1451 13.3423 77.3619 14.0729C76.9826 14.4177 76.6816 14.8387 76.4792 15.3079C76.2767 15.7771 76.1774 16.2837 76.1878 16.794V24.1872C76.1914 24.3163 76.1684 24.4447 76.1202 24.5647C76.072 24.6846 75.9996 24.7935 75.9074 24.8846C75.8202 24.9757 75.7149 25.0479 75.5981 25.0964C75.4813 25.145 75.3556 25.169 75.229 25.1668H74.2377C74.1065 25.1681 73.9764 25.1426 73.8555 25.092C73.7346 25.0414 73.6254 24.9667 73.5348 24.8725V24.8725Z" fill="#66C2BE"/>
		<path d="M91.9344 23.3326C90.5662 21.8406 89.8375 19.8784 89.9031 17.8623C89.8367 15.8459 90.5654 13.8834 91.9344 12.3919C92.5696 11.6869 93.3508 11.1263 94.2244 10.7485C95.0981 10.3707 96.0437 10.1846 96.9965 10.203C97.9395 10.1875 98.8751 10.3695 99.7424 10.7369C100.61 11.1044 101.389 11.6491 102.03 12.3355V11.5292C102.026 11.4005 102.048 11.2723 102.094 11.1519C102.14 11.0315 102.209 10.9214 102.298 10.8278C102.387 10.7342 102.495 10.6606 102.615 10.6119C102.735 10.5633 102.864 10.5406 102.993 10.5456H103.98C104.111 10.5429 104.241 10.5664 104.363 10.6149C104.484 10.6633 104.595 10.7357 104.687 10.8276C104.78 10.9195 104.853 11.029 104.902 11.1496C104.951 11.2702 104.974 11.3993 104.972 11.5292V24.1872C104.974 24.3168 104.95 24.4455 104.901 24.5656C104.851 24.6857 104.778 24.7948 104.686 24.8862C104.593 24.9777 104.483 25.0497 104.362 25.0979C104.241 25.1461 104.111 25.1695 103.98 25.1668H102.993C102.864 25.1718 102.735 25.1491 102.615 25.1005C102.495 25.0518 102.387 24.9782 102.298 24.8846C102.21 24.7917 102.14 24.6822 102.094 24.5625C102.048 24.4428 102.026 24.3153 102.03 24.1872V23.381C101.389 24.0666 100.609 24.6107 99.7418 24.9781C98.8746 25.3455 97.9393 25.5279 96.9965 25.5135C96.0443 25.5328 95.0991 25.348 94.2255 24.9716C93.3518 24.5952 92.5704 24.0361 91.9344 23.3326V23.3326ZM94.2542 14.4639C93.3863 15.3759 92.9187 16.5923 92.9542 17.8461C92.9367 18.4663 93.0425 19.0839 93.2656 19.6635C93.4887 20.2431 93.8246 20.7735 94.2542 21.2243C94.6685 21.655 95.1665 21.9979 95.7182 22.2322C96.2699 22.4664 96.8637 22.5872 97.4638 22.5872C98.0638 22.5872 98.6576 22.4664 99.2093 22.2322C99.761 21.9979 100.259 21.655 100.673 21.2243C101.103 20.7735 101.439 20.2431 101.662 19.6635C101.885 19.0839 101.991 18.4663 101.973 17.8461C102.009 16.5923 101.541 15.3759 100.673 14.4639C100.259 14.0332 99.761 13.6903 99.2093 13.456C98.6576 13.2218 98.0638 13.101 97.4638 13.101C96.8637 13.101 96.2699 13.2218 95.7182 13.456C95.1665 13.6903 94.6685 14.0332 94.2542 14.4639V14.4639Z" fill="#66C2BE"/>
		<path d="M108.758 24.8725C108.667 24.783 108.595 24.6762 108.546 24.5585C108.497 24.4408 108.473 24.3145 108.474 24.1872V11.5494C108.471 11.4194 108.494 11.2902 108.543 11.1696C108.592 11.049 108.665 10.9395 108.758 10.848C108.85 10.7549 108.96 10.6817 109.082 10.6332C109.204 10.5846 109.334 10.5616 109.465 10.5658H110.457C110.583 10.5643 110.708 10.5886 110.825 10.6372C110.942 10.6857 111.047 10.7574 111.135 10.848C111.227 10.9397 111.3 11.0493 111.348 11.1699C111.396 11.2905 111.419 11.4197 111.415 11.5494V12.6983C112.499 11.0347 114.11 10.203 116.25 10.203C117.021 10.1783 117.789 10.3084 118.508 10.5855C119.227 10.8626 119.882 11.2809 120.434 11.8154C120.983 12.3466 121.414 12.9848 121.702 13.6897C121.989 14.3946 122.126 15.151 122.104 15.9112V24.1872C122.106 24.3168 122.082 24.4455 122.033 24.5656C121.984 24.6857 121.911 24.7948 121.819 24.8862C121.726 24.9777 121.616 25.0497 121.495 25.0979C121.373 25.1461 121.244 25.1695 121.113 25.1668H120.154C120.024 25.1695 119.894 25.1461 119.772 25.0979C119.651 25.0497 119.541 24.9777 119.449 24.8862C119.356 24.7948 119.283 24.6857 119.234 24.5656C119.185 24.4455 119.161 24.3168 119.163 24.1872V16.7658C119.178 16.2663 119.09 15.7691 118.906 15.3042C118.722 14.8392 118.444 14.4162 118.09 14.0608C117.738 13.7057 117.315 13.4264 116.849 13.2405C116.383 13.0547 115.883 12.9661 115.38 12.9805C114.862 12.9677 114.345 13.0578 113.862 13.2453C113.378 13.4329 112.938 13.7143 112.565 14.0729C112.193 14.4216 111.898 14.844 111.701 15.3127C111.504 15.7815 111.408 16.2861 111.419 16.794V24.1872C111.423 24.3163 111.4 24.4447 111.352 24.5647C111.304 24.6846 111.231 24.7935 111.139 24.8846C111.051 24.9751 110.946 25.0469 110.829 25.0954C110.713 25.1439 110.587 25.1682 110.461 25.1668H109.469C109.337 25.1699 109.205 25.1454 109.082 25.0947C108.96 25.044 108.849 24.9683 108.758 24.8725V24.8725Z" fill="#66C2BE"/>
		<path d="M126.963 23.3326C125.595 21.8407 124.866 19.8784 124.932 17.8623C124.865 15.8459 125.594 13.8834 126.963 12.3919C127.599 11.6849 128.382 11.1231 129.258 10.7453C130.134 10.3674 131.083 10.1824 132.038 10.203C132.98 10.1876 133.916 10.3695 134.783 10.7369C135.651 11.1044 136.43 11.6491 137.071 12.3355V11.5292C137.067 11.4005 137.089 11.2723 137.135 11.1519C137.181 11.0315 137.25 10.9214 137.339 10.8278C137.428 10.7348 137.535 10.6615 137.654 10.6128C137.773 10.5641 137.901 10.5412 138.03 10.5456H139.021C139.152 10.5429 139.282 10.5664 139.404 10.6149C139.525 10.6634 139.636 10.7357 139.728 10.8276C139.821 10.9195 139.894 11.029 139.943 11.1496C139.992 11.2702 140.015 11.3993 140.013 11.5292V24.1872C140.015 24.3168 139.991 24.4455 139.942 24.5656C139.892 24.6857 139.819 24.7948 139.727 24.8862C139.634 24.9777 139.524 25.0497 139.403 25.0979C139.282 25.1461 139.152 25.1695 139.021 25.1668H138.03C137.901 25.1712 137.773 25.1483 137.654 25.0996C137.535 25.051 137.428 24.9777 137.339 24.8846C137.251 24.7917 137.181 24.6822 137.135 24.5625C137.089 24.4428 137.067 24.3153 137.071 24.1872V23.381C136.43 24.0681 135.651 24.6137 134.784 24.9825C133.917 25.3513 132.981 25.5349 132.038 25.5216C131.083 25.5422 130.134 25.3572 129.258 24.9793C128.382 24.6014 127.599 24.0396 126.963 23.3326V23.3326ZM129.283 14.464C128.415 15.3759 127.948 16.5923 127.983 17.8461C127.966 18.4663 128.071 19.0839 128.294 19.6635C128.517 20.2431 128.853 20.7735 129.283 21.2243C129.697 21.655 130.195 21.9979 130.747 22.2322C131.299 22.4665 131.892 22.5872 132.493 22.5872C133.093 22.5872 133.686 22.4665 134.238 22.2322C134.79 21.9979 135.288 21.655 135.702 21.2243C136.132 20.7735 136.468 20.2431 136.691 19.6635C136.914 19.0839 137.02 18.4663 137.002 17.8461C137.038 16.5923 136.57 15.3759 135.702 14.464C135.288 14.0332 134.79 13.6903 134.238 13.4561C133.686 13.2218 133.093 13.101 132.493 13.101C131.892 13.101 131.299 13.2218 130.747 13.4561C130.195 13.6903 129.697 14.0332 129.283 14.464V14.464Z" fill="#66C2BE"/>
		<path d="M15.6215 30.9959C12.5318 30.9959 9.51146 30.0868 6.94251 28.3834C4.37356 26.6801 2.37138 24.2591 1.18919 21.4266C0.00698733 18.5941 -0.302123 15.4774 0.300946 12.4705C0.904015 9.46372 2.39218 6.70189 4.57722 4.53434C6.76226 2.36678 9.54604 0.89087 12.5765 0.293254C15.6069 -0.304361 18.7479 0.00316581 21.6022 1.17694C24.4565 2.35072 26.8959 4.33802 28.6119 6.88751C30.3278 9.437 31.2433 12.4342 31.2425 15.4999C31.2371 19.6088 29.5895 23.5478 26.661 26.4528C23.7326 29.3578 19.7624 30.9917 15.6215 30.9959V30.9959ZM15.6215 5.53883C13.636 5.53883 11.6951 6.12304 10.0442 7.21758C8.39331 8.31212 7.1066 9.86784 6.34678 11.688C5.58696 13.5082 5.38816 15.511 5.77551 17.4433C6.16287 19.3755 7.11898 21.1504 8.52294 22.5435C9.9269 23.9366 11.7157 24.8853 13.663 25.2697C15.6104 25.654 17.6289 25.4568 19.4632 24.7028C21.2976 23.9489 22.8654 22.6721 23.9685 21.034C25.0716 19.396 25.6604 17.4701 25.6604 15.4999C25.6582 12.8588 24.5999 10.3263 22.7177 8.45873C20.8355 6.59112 18.2833 5.54097 15.6215 5.53883V5.53883Z" fill="#66C2BE"/>
		<path opacity="0.2" d="M5.68799 3.56361C5.83831 3.44267 5.98863 3.3177 6.14301 3.20886C5.98863 3.32577 5.84237 3.44267 5.69611 3.56361H5.68799Z" fill="#66C2BE"/>
		<path opacity="0.2" d="M5.68799 3.56361C5.83831 3.43864 5.98863 3.31771 6.14301 3.20483C5.98863 3.32174 5.84237 3.43864 5.69611 3.56361H5.68799Z" fill="#66C2BE"/>
		<path opacity="0.25" d="M28.2439 24.6186C26.4635 27.0444 24.0142 28.9077 21.1911 29.9841C19.4146 30.6594 17.5277 31.0037 15.6253 31C15.1174 31 14.6177 30.9798 14.1221 30.9315C15.5534 28.9503 17.4407 27.3366 19.6269 26.2246C21.8131 25.1126 24.2353 24.5344 26.692 24.538C27.2104 24.5364 27.7285 24.5633 28.2439 24.6186V24.6186Z" fill="#66C2BE"/>
		<path opacity="0.3" d="M28.4755 12.7668C29.3287 12.8313 30.1778 12.8877 31.0228 12.9361C31.3813 15.0209 31.2997 17.1568 30.7831 19.2087C28.3442 20.4127 25.7895 21.3702 23.1574 22.0668C24.3056 20.7773 25.0964 19.214 25.4525 17.53C25.8086 15.846 25.7177 14.0991 25.1888 12.4604C26.2722 12.5787 27.3677 12.6808 28.4755 12.7668ZM10.4859 24.0542C9.25275 23.3257 8.19169 22.3428 7.37461 21.172C6.55752 20.0012 6.00349 18.6699 5.75 17.2682C5.49652 15.8665 5.54951 14.4271 5.90538 13.0475C6.26126 11.6679 6.91171 10.3803 7.8127 9.27175C5.87886 8.73426 4.01545 8.15645 2.22245 7.53833C0.710871 10.0362 -0.0583654 12.9071 0.00345341 15.8201C0.0652722 18.733 0.955628 21.5693 2.57184 24.0018C5.20626 24.1813 7.84935 24.1988 10.4859 24.0542V24.0542Z" fill="#66C2BE"/>
		<path opacity="0.54" d="M15.621 0C11.4797 0.00533319 7.50957 1.64008 4.58122 4.54574C1.65288 7.45139 0.00537483 11.3908 0 15.5C0 15.7687 0.00812536 16.0375 0.0243761 16.3062C1.93172 16.9472 3.88269 17.4524 5.86245 17.8179C5.52955 16.4497 5.4927 15.0269 5.75431 13.6434C6.01592 12.26 6.57005 10.9472 7.38019 9.79175C8.19033 8.63627 9.23807 7.66427 10.4544 6.93983C11.6706 6.21539 13.0279 5.75495 14.4365 5.58887C15.8452 5.42279 17.2734 5.55484 18.6269 5.97631C19.9804 6.39778 21.2285 7.0991 22.289 8.03404C23.3494 8.96899 24.1981 10.1163 24.7792 11.4004C25.3602 12.6846 25.6604 14.0763 25.6599 15.4839C25.6597 16.2426 25.5711 16.9988 25.3958 17.7373C27.3734 17.3513 29.3204 16.8246 31.2217 16.1611C31.2217 15.9394 31.242 15.7137 31.242 15.4879C31.2334 11.3808 29.5845 7.4445 26.6565 4.54145C23.7285 1.63841 19.7602 0.00532508 15.621 0V0Z" fill="#66C2BE"/>
		<path opacity="0.5" d="M10.998 0.693336C14.512 3.28843 18.7772 4.68691 23.1577 4.6802C24.2819 4.67905 25.4042 4.58737 26.5134 4.40608C24.504 2.4581 22.0016 1.08482 19.2706 0.431308C16.5396 -0.2222 13.6815 -0.131669 10.998 0.693336V0.693336Z" fill="#66C2BE"/>
	</g>
	<defs>
		<clipPath id="clip0_472_337">
			<rect width="140" height="31" fill="white"/>
		</clipPath>
	</defs>
</svg>