<?xml version="1.0" ?>
<svg xmlns="http://www.w3.org/2000/svg"  viewBox="0 0 158 158">
	<filter id="a" color-interpolation-filters="sRGB">
		<feFlood flood-opacity=".239216" result="flood"/>
		<feComposite in="flood" in2="SourceGraphic" operator="in" result="composite1"/>
		<feGaussianBlur in="composite1" result="blur" stdDeviation="2"/>
		<feOffset dx="0" dy="4" result="offset"/>
		<feComposite in="SourceGraphic" in2="offset" operator="over" result="fbSourceGraphic"/>
		<feColorMatrix in="fbSourceGraphic" result="fbSourceGraphicAlpha" values="0 0 0 -1 0 0 0 0 -1 0 0 0 0 -1 0 0 0 0 1 0"/>
		<feFlood flood-opacity=".121569" in="fbSourceGraphic" result="flood"/>
		<feComposite in="flood" in2="fbSourceGraphic" operator="in" result="composite1"/>
		<feGaussianBlur in="composite1" result="blur" stdDeviation="2"/>
		<feOffset dx="0" dy="0" result="offset"/>
		<feComposite in="fbSourceGraphic" in2="offset" operator="over" result="composite2"/>
	</filter>
	<radialGradient id="b" cx="21.048733" cy="20.632277" gradientTransform="matrix(-.01177527 2.0143653 -1.9807054 -.01157852 49.253885 -1.882035)" gradientUnits="userSpaceOnUse" r="76">
		<stop offset="0" stop-color="#fff" stop-opacity=".101961"/>
		<stop offset="1" stop-color="#d19f68" stop-opacity="0"/>
	</radialGradient>
	<g transform="translate(-4.8 -38)">
		<g fill="#43a047">
			<rect filter="url(#a)" height="152" ry="12" width="152" x="7.799995" y="40.999996"/>
			<path d="M 19.79999,39.99999 C 13.15199,39.99999 7.79999,45.352 7.79999,51.99999 L 7.79999,52.99999 C 7.79999,46.352 13.15199,40.99999 19.79999,40.99999 L 147.8,40.99999 C 154.44799,40.99999 159.8,46.352 159.8,52.99999 L 159.8,51.99999 C 159.8,45.352 154.44799,39.99999 147.8,39.99999 L 19.79999,39.99999"/>
			<path d="M 7.79999,181.0 L 7.79999,182.0 C 7.79999,188.648 13.15199,194.0 19.79999,194.0 L 147.8,194.0 C 154.44799,194.0 159.8,188.648 159.8,182.0 L 159.8,181.0 C 159.8,187.648 154.44799,193.0 147.8,193.0 L 19.79999,193.0 C 13.15199,193.0 7.79999000000075,187.648 7.79999000000075,181.0 L 7.79999,181.0"/>
		</g>
		<path d="M 19.79999,39.99999 C 13.15199,39.99999 7.8,45.352 7.8,51.99999 L 7.8,52.99999 C 7.8,46.352 13.15199,40.99999 19.79999,40.99999 L 147.8,40.99999 C 154.44799,40.99999 159.8,46.352 159.8,52.99999 L 159.8,51.99999 C 159.8,45.352 154.44799,39.99999 147.8,39.99999 L 19.79999,39.99999" fill="#fff" fill-opacity=".2"/>
		<path d="M 7.79999,181.0 L 7.79999,182.0 C 7.79999,188.648 13.15199,194.0 19.79999,194.0 L 147.8,194.0 C 154.44799,194.0 159.8,188.648 159.8,182.0 L 159.8,181.0 C 159.8,187.648 154.44799,193.0 147.8,193.0 L 19.79999,193.0 C 13.15199,193.0 7.79999000000075,187.648 7.79999000000075,181.0 L 7.79999,181.0" fill-opacity=".2"/>
		<path d="M 19.79999,40.0 C 13.15199,40.0 7.8,45.352 7.8,52.0 L 7.8,53.0 L 7.8,181.0 L 7.8,182.0 C 7.8,188.648 13.15199,194.0 19.79999,194.0 L 147.8,194.0 C 154.44799,194.0 159.8,188.648 159.8,182.0 L 159.8,181.0 L 159.8,53.000000001 L 159.8,52.000000001 C 159.8,45.352000000014 154.44799,40.000000001 147.8,40.000000001 L 19.79999,40.0" fill="url(#b)"/>
		<path d="M 120.56953,72.91602 L 35.97187,157.59766 L 35.79999,169.0 L 47.20039,168.82813 L 59.04023,157.0 L 71.79999,157.0 L 71.79999,145.0 L 83.79999,145.0 L 83.79999,132.26562 L 117.81172,98.28906 A 8.0,8.0 0.0 0,1 115.8,93.0 A 8.0,8.0 0.0 0,1 123.8,85.0 A 8.0,8.0 0.0 0,1 129.09688,87.01367 L 131.88398,84.23047 L 120.56953,72.91602" fill="#eaeaea" filter="url(#a)"/>
		<path d="M 35.8,73.0 L 35.97187,84.40137 L 120.39863,168.82812 L 131.8,169.0 L 131.62812,157.59863 L 47.20136,73.17188 L 35.8,73.0" fill="#c6c6c6" filter="url(#a)"/>
		<path d="M 113.19454,65.00195 A 27.0,27.0 0.0 0,0 93.7082,72.9082 A 27.0,27.0 0.0 0,0 93.7082,111.0918 A 27.0,27.0 0.0 0,0 131.8918,111.0918 A 27.0,27.0 0.0 0,0 131.8918,72.9082 A 27.0,27.0 0.0 0,0 113.19454,65.00195 L 113.19454,65.00195 M 123.8,85.0 A 8.0,8.0 0.0 0,1 131.8,93.0 A 8.0,8.0 0.0 0,1 123.8,101.0 A 8.0,8.0 0.0 0,1 115.8,93.0 A 8.0,8.0 0.0 0,1 123.8,85.0" fill="#eaeaea" filter="url(#a)"/>
	</g>
</svg>