<?xml version="1.0" ?>
<svg xmlns="http://www.w3.org/2000/svg" fill="none" viewBox="0 0 72 72">
	<path d="m0 0h72v72h-72z" fill="#fff"/>
	<g clip-rule="evenodd" fill-rule="evenodd">
		<path d="m30.8741 13.6212c-.1634 1.8616-1.1339 4.1396-1.5107 5.1438-1.3868 3.6922-2.6362 6.6707-3.4553 6.358-.8184-.3143-.0641-3.5174.4887-7.4929.2085-1.4966 1.1797-7.77127 3.5222-6.5817.8487.4311 1.0565 1.4224.9551 2.5728z" fill="#89c263"/>
		<path d="m44.638 16.839c-.197.4121-.4282.7945-.6521 1.1243-1.0844 1.5907-2.3081 3.0855-3.5928 4.5049-3.5033 3.863-6.5066 6.9121-7.4885 6.11-.981-.8038 1.4467-4.3837 3.9348-9.0208 1.0429-1.946 2.2999-3.9673 3.8802-5.4919.9208-.8886 2.7729-2.1163 3.8785-.8267.8899 1.0396.6001 2.4335.0399 3.6002z" fill="#eda42d"/>
		<path d="m60.9781 38.3652c-1.0634.5107-2.2975.8336-3.0418 1.0305-1.1312.2992-2.2744.5496-3.4263.7671-4.9069.9221-8.969 1.5221-9.3129.3985-.3079-1.003 1.6921-1.7121 2.3646-2.0213 2.5583-1.1778 5.1733-2.3816 7.8322-3.3357 1.7447-.6267 6.4649-2.3625 7.4669.2145.5313 1.3602-.5401 2.3014-1.8827 2.9464z" fill="#ae5191"/>
		<path d="m56.3203 24.4066c-.7242.776-1.6464 1.4159-2.4609 2.0361-1.2736.972-2.5939 1.8834-3.945 2.7453-4.9962 3.1828-9.193 5.6456-9.9703 4.6295-.8097-1.0578 2.4419-3.7087 2.9825-4.2596 1.9282-1.9621 3.8493-3.9495 5.9398-5.7448 1.5807-1.3561 6.0117-5.5613 8.3389-3.4063.8073.7484.3522 2.1038-.0887 2.9168-.2129.3927-.486.7501-.7963 1.083z" fill="#2d89be"/>
		<path d="m13.7544 60.9385h1.0929c2.6778 0 4.6451-1.297 4.6451-5.026v-6.3231l5.8474 8.3767c1.5301 2.3239 3.7707 3.1346 5.6834 3.1346 3.1149 0 6.0659-2.5941 5.7926-3.1346l-7.9786-11.0788 7.2682-10.2142c.2733-.5945-2.5138-3.1886-5.6834-3.1886-1.8034 0-4.0439.8107-5.5194 3.1345l-5.4102 8.0525v-14.1594c0-6.323-3.4428-7.8903-6.4484-7.8903-2.1313 0-4.044.8106-4.044 1.189v32.1017c0 3.8371 1.9673 5.026 4.7544 5.026z" fill="#2c2e31"/>
	</g>
</svg>