<?xml version="1.0" ?>
<svg xmlns="http://www.w3.org/2000/svg" fill="none" viewBox="0 0 104 38">
	<g fill="#05D197" clip-path="url(#clip0_29_851)">
		<path d="M42.92 21.503H27.859c.273 1.445.885 2.602 1.835 3.471a4.745 4.745 0 0 0 3.305 1.293c2.162 0 3.78-.778 4.855-2.335a.682.682 0 0 1 .705-.274l3.715.786a.545.545 0 0 1 .378.772 9.666 9.666 0 0 1-3.616 4.092c-1.725 1.068-3.737 1.602-6.037 1.602-2.956 0-5.448-1.013-7.476-3.04-2.027-2.026-3.04-4.627-3.038-7.802 0-3.177 1.02-5.785 3.06-7.825s4.552-3.06 7.536-3.06a9.983 9.983 0 0 1 7.208 2.937c2.012 1.959 3.073 4.471 3.183 7.537v1.305a.541.541 0 0 1-.55.54Zm-12.989-6.607a4.585 4.585 0 0 0-1.91 2.793h9.525a.28.28 0 0 0 .268-.364c-.343-1.08-.91-1.903-1.702-2.47a5.076 5.076 0 0 0-3.04-.945 5.503 5.503 0 0 0-3.14.986Zm36.289-2.607c2.012 2.066 3.018 4.66 3.018 7.782s-1 5.71-3.003 7.761c-2.001 2.054-4.356 3.081-7.063 3.081-2.684 0-4.943-.739-6.777-2.217v8.04a.544.544 0 0 1-.544.544h-4.337a.544.544 0 0 1-.544-.544v-26.39a.544.544 0 0 1 .544-.543h4.337a.544.544 0 0 1 .544.544v1.1c1.808-1.508 4.066-2.26 6.777-2.26 2.686 0 5.035 1.034 7.048 3.102Zm-3.86 12.238c1.081-1.112 1.622-2.597 1.622-4.456 0-1.858-.54-3.35-1.622-4.478-1.083-1.12-2.46-1.682-4.129-1.683-1.532 0-2.887.575-4.066 1.725-1.179 1.15-1.767 2.629-1.765 4.436 0 1.807.589 3.279 1.765 4.414 1.177 1.136 2.532 1.704 4.066 1.706 1.672 0 3.048-.555 4.129-1.664Zm10.383 5.227V1.269a.544.544 0 0 1 .544-.542h4.338a.544.544 0 0 1 .543.542v28.485a.544.544 0 0 1-.543.543h-4.338a.544.544 0 0 1-.544-.543Zm30.557.544h-4.338a.544.544 0 0 1-.544-.544v-1.058c-1.834 1.478-4.093 2.217-6.776 2.217-2.71 0-5.065-1.027-7.064-3.08-1.998-2.055-3-4.642-3.003-7.762 0-3.12 1.007-5.715 3.02-7.782 2.013-2.068 4.36-3.102 7.042-3.102 2.711 0 4.97.753 6.776 2.26v-1.1a.544.544 0 0 1 .544-.544h4.338a.543.543 0 0 1 .544.544v19.407a.544.544 0 0 1-.539.544Zm-6.645-5.813c1.178-1.136 1.767-2.608 1.767-4.414 0-1.806-.59-3.285-1.767-4.436-1.176-1.15-2.53-1.725-4.064-1.725-1.668 0-3.045.561-4.129 1.684-1.084 1.122-1.625 2.614-1.622 4.477 0 1.862.54 3.347 1.622 4.456 1.081 1.109 2.457 1.665 4.129 1.668 1.53-.003 2.883-.573 4.06-1.71h.004Z"/>
		<path d="M24.056 32.775a.537.537 0 0 0 .41-.884L12.194 17.438a.282.282 0 0 1 0-.357L24.83 1.4a.435.435 0 0 0 0-.554.364.364 0 0 0-.276-.131h-5.405a.866.866 0 0 0-.667.32L5.58 16.899V1.51a.786.786 0 0 0-.79-.785L.943.735a.787.787 0 0 0-.784.788v28.594c.69-.774 1.877-2.108 3.116-3.523l4.767-5.395a.455.455 0 0 1 .694.015l8.982 11.075a1.31 1.31 0 0 0 1.018.486h5.321Z"/>
	</g>
	<defs>
		<clipPath id="clip0_29_851">
			<path fill="#fff" d="M0 .714h104v36.571H0z"/>
		</clipPath>
	</defs>
</svg>