<?xml version="1.0" ?>
<svg xmlns="http://www.w3.org/2000/svg" xmlns:xlink="http://www.w3.org/1999/xlink" viewBox="0 0 640 384">
	<defs>
		<linearGradient x1="50%" y1="0%" x2="50%" y2="100%" id="c">
			<stop stop-color="#F8F8F8" offset="0%"/>
			<stop stop-color="#F7F7F7" offset="100%"/>
		</linearGradient>
		<circle id="b" cx="320.5" cy="145.5" r="111.5"/>
		<filter x="-11.9%" y="-9.6%" width="123.8%" height="123.8%" filterUnits="objectBoundingBox" id="a">
			<feOffset dy="5" in="SourceAlpha" result="shadowOffsetOuter1"/>
			<feGaussianBlur stdDeviation="8" in="shadowOffsetOuter1" result="shadowBlurOuter1"/>
			<feComposite in="shadowBlurOuter1" in2="SourceAlpha" operator="out" result="shadowBlurOuter1"/>
			<feColorMatrix values="0 0 0 0 0 0 0 0 0 0 0 0 0 0 0 0 0 0 0.5 0" in="shadowBlurOuter1"/>
		</filter>
		<filter x="-14.6%" y="-12.3%" width="129.1%" height="129.1%" filterUnits="objectBoundingBox" id="d">
			<feGaussianBlur stdDeviation="12.5" in="SourceAlpha" result="shadowBlurInner1"/>
			<feOffset dy="-8" in="shadowBlurInner1" result="shadowOffsetInner1"/>
			<feComposite in="shadowOffsetInner1" in2="SourceAlpha" operator="arithmetic" k2="-1" k3="1" result="shadowInnerInner1"/>
			<feColorMatrix values="0 0 0 0 0 0 0 0 0 0 0 0 0 0 0 0 0 0 0.15 0" in="shadowInnerInner1" result="shadowMatrixInner1"/>
			<feMorphology radius="3" in="SourceAlpha" result="shadowSpreadInner2"/>
			<feGaussianBlur stdDeviation=".5" in="shadowSpreadInner2" result="shadowBlurInner2"/>
			<feOffset dy="4" in="shadowBlurInner2" result="shadowOffsetInner2"/>
			<feComposite in="shadowOffsetInner2" in2="SourceAlpha" operator="arithmetic" k2="-1" k3="1" result="shadowInnerInner2"/>
			<feColorMatrix values="0 0 0 0 1 0 0 0 0 1 0 0 0 0 1 0 0 0 1 0" in="shadowInnerInner2" result="shadowMatrixInner2"/>
			<feMerge>
				<feMergeNode in="shadowMatrixInner1"/>
				<feMergeNode in="shadowMatrixInner2"/>
			</feMerge>
		</filter>
		<linearGradient x1="50%" y1="0%" x2="50%" y2="100%" id="e">
			<stop stop-color="#C4C730" offset="0%"/>
			<stop stop-color="#717200" offset="100%"/>
		</linearGradient>
		<circle id="f" cx="320.5" cy="145.5" r="94.5"/>
		<filter x="-2.4%" y="-2.4%" width="104.8%" height="104.8%" filterUnits="objectBoundingBox" id="g">
			<feMorphology radius="1" in="SourceAlpha" result="shadowSpreadInner1"/>
			<feGaussianBlur stdDeviation="4" in="shadowSpreadInner1" result="shadowBlurInner1"/>
			<feOffset in="shadowBlurInner1" result="shadowOffsetInner1"/>
			<feComposite in="shadowOffsetInner1" in2="SourceAlpha" operator="arithmetic" k2="-1" k3="1" result="shadowInnerInner1"/>
			<feColorMatrix values="0 0 0 0 0 0 0 0 0 0 0 0 0 0 0 0 0 0 0.5 0" in="shadowInnerInner1"/>
		</filter>
		<linearGradient x1="50%" y1="0%" x2="50%" y2="100%" id="j">
			<stop stop-color="#FFFFFA" offset="0%"/>
			<stop stop-color="#F4F0ED" offset="100%"/>
		</linearGradient>
		<path id="i" d="M281 90h86l-45.576 55L367 200h-86z"/>
		<filter x="-9.9%" y="-7.7%" width="122.1%" height="117.3%" filterUnits="objectBoundingBox" id="h">
			<feOffset dx="1" dy="1" in="SourceAlpha" result="shadowOffsetOuter1"/>
			<feGaussianBlur stdDeviation="3" in="shadowOffsetOuter1" result="shadowBlurOuter1"/>
			<feColorMatrix values="0 0 0 0 0 0 0 0 0 0 0 0 0 0 0 0 0 0 0.5 0" in="shadowBlurOuter1"/>
		</filter>
		<filter x="-8.1%" y="-6.4%" width="118.6%" height="114.5%" filterUnits="objectBoundingBox" id="k">
			<feMorphology radius="2" in="SourceAlpha" result="shadowSpreadInner1"/>
			<feOffset dy="2" in="shadowSpreadInner1" result="shadowOffsetInner1"/>
			<feComposite in="shadowOffsetInner1" in2="SourceAlpha" operator="arithmetic" k2="-1" k3="1" result="shadowInnerInner1"/>
			<feColorMatrix values="0 0 0 0 1 0 0 0 0 1 0 0 0 0 1 0 0 0 1 0" in="shadowInnerInner1" result="shadowMatrixInner1"/>
			<feOffset dy="-2" in="SourceAlpha" result="shadowOffsetInner2"/>
			<feComposite in="shadowOffsetInner2" in2="SourceAlpha" operator="arithmetic" k2="-1" k3="1" result="shadowInnerInner2"/>
			<feColorMatrix values="0 0 0 0 0 0 0 0 0 0 0 0 0 0 0 0 0 0 0.3 0" in="shadowInnerInner2" result="shadowMatrixInner2"/>
			<feMerge>
				<feMergeNode in="shadowMatrixInner1"/>
				<feMergeNode in="shadowMatrixInner2"/>
			</feMerge>
		</filter>
	</defs>
	<g fill="none" fill-rule="evenodd">
		<use fill="#000" filter="url(#a)" xlink:href="#b"/>
		<use fill="url(#c)" xlink:href="#b"/>
		<use fill="#000" filter="url(#d)" xlink:href="#b"/>
		<circle stroke="#B7B7B5" cx="320.5" cy="145.5" r="111"/>
		<g>
			<use fill="url(#e)" xlink:href="#f"/>
			<use fill="#000" filter="url(#g)" xlink:href="#f"/>
		</g>
		<g>
			<use fill="#000" filter="url(#h)" xlink:href="#i"/>
			<use fill="url(#j)" xlink:href="#i"/>
			<use fill="#000" filter="url(#k)" xlink:href="#i"/>
		</g>
		<path d="M175 288v48.802h6.493v-17.087l8.134-7.587 17.635 24.674h8.202l-21.394-29.117L214.643 288h-8.407l-24.743 24.333V288H175zm68.463 27.75a11.887 11.887 0 0 0-.923-3.896c-.524-1.23-1.23-2.29-2.119-3.178a10.06 10.06 0 0 0-3.144-2.119c-1.208-.524-2.54-.786-3.999-.786-1.503 0-2.859.262-4.067.786a9.392 9.392 0 0 0-3.11 2.153 10.3 10.3 0 0 0-2.05 3.179 12.101 12.101 0 0 0-.889 3.861H243.463zm5.604 9.843c-.774 3.964-2.483 6.949-5.126 8.954-2.643 2.005-5.97 3.007-9.98 3.007-2.824 0-5.274-.455-7.347-1.367-2.073-.911-3.816-2.187-5.229-3.827-1.412-1.64-2.472-3.6-3.178-5.879-.706-2.278-1.105-4.761-1.196-7.45 0-2.688.41-5.149 1.23-7.382.82-2.232 1.971-4.169 3.452-5.81a15.662 15.662 0 0 1 5.263-3.827c2.028-.911 4.249-1.367 6.664-1.367 3.144 0 5.753.65 7.826 1.948 2.074 1.299 3.737 2.95 4.99 4.955a19.588 19.588 0 0 1 2.597 6.562c.479 2.37.672 4.625.581 6.767h-26.452c-.045 1.549.137 3.019.547 4.408a9.985 9.985 0 0 0 1.982 3.691c.912 1.071 2.074 1.925 3.486 2.563 1.413.638 3.076.957 4.99.957 2.46 0 4.477-.57 6.049-1.708 1.572-1.14 2.609-2.871 3.11-5.195h5.741zm19.729 15.926c-.684 1.731-1.356 3.19-2.016 4.374-.661 1.185-1.39 2.153-2.188 2.905a7.424 7.424 0 0 1-2.665 1.64c-.98.342-2.108.513-3.384.513-.683 0-1.367-.046-2.05-.137a9.68 9.68 0 0 1-1.982-.478v-5.332a9.755 9.755 0 0 0 1.743.581c.66.16 1.219.24 1.674.24 1.185 0 2.176-.285 2.973-.855.798-.57 1.402-1.378 1.812-2.426l2.392-5.947-14.012-35.132h6.562l10.32 28.912h.137l9.911-28.912h6.152l-15.38 40.054h.001zm23.146-15.858h-5.81c.091 2.187.547 4.044 1.367 5.57.82 1.527 1.914 2.758 3.281 3.692 1.367.934 2.94 1.606 4.716 2.016 1.777.41 3.646.615 5.605.615 1.777 0 3.566-.17 5.366-.512 1.8-.342 3.417-.946 4.852-1.812a10.418 10.418 0 0 0 3.486-3.417c.889-1.413 1.333-3.19 1.333-5.332 0-1.686-.33-3.098-.99-4.237a8.848 8.848 0 0 0-2.598-2.837c-1.071-.752-2.301-1.355-3.691-1.811a43.625 43.625 0 0 0-4.272-1.162 264.981 264.981 0 0 0-4.101-.923c-1.367-.296-2.597-.66-3.691-1.093-1.094-.433-1.994-.98-2.7-1.64-.706-.662-1.06-1.493-1.06-2.496 0-.911.228-1.651.684-2.221.456-.57 1.048-1.025 1.777-1.367a8.862 8.862 0 0 1 2.427-.718c.87-.135 1.75-.204 2.631-.205.957 0 1.903.103 2.837.308a8.695 8.695 0 0 1 2.563.99 5.818 5.818 0 0 1 1.914 1.812c.501.752.797 1.698.888 2.837h5.81c-.137-2.142-.592-3.93-1.367-5.366-.775-1.435-1.811-2.574-3.11-3.417s-2.79-1.436-4.477-1.777c-1.686-.342-3.531-.513-5.536-.513-1.55 0-3.11.194-4.682.58-1.572.388-2.985.98-4.238 1.778a9.78 9.78 0 0 0-3.076 3.11c-.797 1.276-1.196 2.802-1.196 4.58 0 2.278.57 4.055 1.709 5.33 1.139 1.277 2.563 2.268 4.272 2.974 1.709.706 3.565 1.253 5.57 1.64a69.36 69.36 0 0 1 5.57 1.3c1.71.478 3.134 1.104 4.273 1.879 1.139.774 1.709 1.914 1.709 3.417 0 1.094-.274 1.994-.82 2.7a5.198 5.198 0 0 1-2.085 1.606c-.843.365-1.766.616-2.768.752-1.003.137-1.96.205-2.871.205a17.22 17.22 0 0 1-3.452-.341c-1.116-.228-2.119-.604-3.007-1.128a6.183 6.183 0 0 1-2.153-2.12c-.547-.888-.843-1.97-.889-3.246zM321.855 288v48.802h5.81v-19.958c0-1.595.216-3.064.649-4.409.433-1.344 1.082-2.517 1.948-3.52.866-1.002 1.948-1.777 3.247-2.324 1.298-.546 2.836-.82 4.613-.82 2.233 0 3.987.638 5.263 1.914 1.276 1.276 1.914 3.007 1.914 5.195v23.922h5.81v-23.239c0-1.914-.194-3.657-.581-5.229-.387-1.572-1.06-2.927-2.016-4.067-.957-1.139-2.21-2.027-3.76-2.665-1.549-.638-3.486-.957-5.81-.957-1.048 0-2.13.114-3.246.342a14.359 14.359 0 0 0-3.213 1.06 10.876 10.876 0 0 0-2.768 1.845c-.82.751-1.458 1.674-1.914 2.768h-.136V288h-5.81zm68.6 48.666c-1.003.592-2.393.888-4.17.888-1.504 0-2.7-.421-3.589-1.264-.888-.843-1.332-2.222-1.332-4.135-1.595 1.913-3.452 3.292-5.571 4.135-2.119.843-4.409 1.264-6.87 1.264-1.594 0-3.11-.182-4.545-.547-1.435-.364-2.677-.934-3.725-1.708-1.048-.775-1.88-1.789-2.495-3.042-.615-1.253-.922-2.768-.922-4.545 0-2.005.341-3.646 1.025-4.921.684-1.276 1.583-2.313 2.7-3.11 1.116-.798 2.392-1.402 3.827-1.812a45.972 45.972 0 0 1 4.41-1.025 53.184 53.184 0 0 1 4.544-.718c1.436-.16 2.7-.387 3.794-.683 1.094-.296 1.96-.73 2.597-1.299.638-.57.957-1.401.957-2.495 0-1.276-.24-2.3-.718-3.075-.478-.775-1.093-1.367-1.845-1.778a7.504 7.504 0 0 0-2.529-.82 19.099 19.099 0 0 0-2.768-.205c-2.46 0-4.511.467-6.152 1.401-1.64.935-2.529 2.7-2.665 5.298h-5.81c.09-2.188.547-4.033 1.367-5.537.82-1.504 1.914-2.722 3.28-3.657 1.368-.934 2.928-1.606 4.683-2.016 1.754-.41 3.634-.615 5.639-.615 1.594 0 3.178.114 4.75.342 1.572.227 2.996.695 4.272 1.4a8.19 8.19 0 0 1 3.076 2.974c.774 1.276 1.162 2.94 1.162 4.99v18.181c0 1.367.08 2.37.239 3.007.16.638.695.957 1.606.957.501 0 1.094-.114 1.777-.341v4.51l.001.001zm-9.433-18.113c-.73.547-1.686.945-2.871 1.196-1.185.25-2.426.456-3.725.615-1.299.16-2.609.342-3.93.547-1.322.205-2.506.535-3.554.99-1.049.457-1.903 1.106-2.564 1.949-.66.843-.99 1.993-.99 3.452 0 .957.193 1.765.58 2.426.388.66.889 1.196 1.504 1.606.615.41 1.333.707 2.153.889.82.182 1.686.273 2.597.273 1.914 0 3.555-.262 4.922-.786 1.367-.524 2.483-1.184 3.349-1.982.866-.797 1.504-1.663 1.914-2.597.41-.934.615-1.812.615-2.632v-5.946zm14.329-17.088h5.81v4.785h.136c.957-1.96 2.46-3.384 4.511-4.272 2.05-.889 4.306-1.333 6.767-1.333 2.734 0 5.115.501 7.143 1.504 2.027 1.002 3.713 2.358 5.058 4.066 1.344 1.71 2.358 3.68 3.041 5.913.684 2.233 1.025 4.602 1.025 7.108 0 2.506-.33 4.876-.99 7.109-.661 2.233-1.664 4.18-3.008 5.844-1.344 1.663-3.03 2.973-5.058 3.93-2.028.957-4.386 1.435-7.074 1.435-.866 0-1.834-.09-2.905-.273a16.136 16.136 0 0 1-3.178-.889 12.42 12.42 0 0 1-2.974-1.674 9.359 9.359 0 0 1-2.358-2.632h-.137v18.181h-5.81v-48.802h.001zm27.34 17.361c0-1.64-.217-3.246-.65-4.819-.432-1.572-1.093-2.973-1.982-4.203a9.713 9.713 0 0 0-3.417-2.94c-1.39-.728-3.019-1.093-4.887-1.093-1.96 0-3.623.387-4.99 1.162a10 10 0 0 0-3.349 3.042c-.866 1.253-1.492 2.677-1.88 4.272a20.49 20.49 0 0 0-.58 4.853c0 1.731.204 3.406.615 5.023.41 1.618 1.059 3.042 1.948 4.272.888 1.23 2.039 2.222 3.451 2.974 1.413.751 3.122 1.127 5.127 1.127s3.68-.387 5.023-1.162a9.34 9.34 0 0 0 3.247-3.075c.82-1.276 1.413-2.734 1.777-4.375.365-1.64.547-3.326.547-5.058zm36.816-3.076a11.887 11.887 0 0 0-.923-3.896c-.524-1.23-1.23-2.29-2.118-3.178a10.06 10.06 0 0 0-3.145-2.119c-1.207-.524-2.54-.786-3.998-.786-1.504 0-2.86.262-4.067.786a9.392 9.392 0 0 0-3.11 2.153 10.3 10.3 0 0 0-2.05 3.179 12.101 12.101 0 0 0-.889 3.861h20.3zm5.605 9.843c-.775 3.964-2.483 6.949-5.126 8.954-2.643 2.005-5.97 3.007-9.98 3.007-2.825 0-5.274-.455-7.347-1.367-2.074-.911-3.817-2.187-5.23-3.827-1.412-1.64-2.471-3.6-3.177-5.879-.707-2.278-1.105-4.761-1.197-7.45 0-2.688.41-5.149 1.23-7.382.821-2.232 1.972-4.169 3.452-5.81a15.662 15.662 0 0 1 5.263-3.827c2.028-.911 4.25-1.367 6.665-1.367 3.144 0 5.752.65 7.826 1.948 2.073 1.299 3.736 2.95 4.99 4.955a19.588 19.588 0 0 1 2.597 6.562c.478 2.37.672 4.625.58 6.767h-26.451a14.01 14.01 0 0 0 .547 4.408 9.985 9.985 0 0 0 1.982 3.691c.911 1.071 2.073 1.925 3.486 2.563 1.412.638 3.076.957 4.99.957 2.46 0 4.476-.57 6.048-1.708 1.573-1.14 2.61-2.871 3.11-5.195h5.742z" fill="#000" fill-rule="nonzero"/>
	</g>
</svg>