<?xml version="1.0" ?>
<svg xmlns="http://www.w3.org/2000/svg" viewBox="0 0 1550 186">
	<title>kimberlyclark</title>
	<style>
		.s0 { fill: #004dcd } 
	</style>
	<g>
		<path class="s0" d="m253.9 70.3c22.2-17.6 35.2-40.1 40.2-61h-32.1c-4.8 24.7-19.7 49.9-41 64.9h-2.1v-64.9h-33.6v133.3h33.6v-50.4l15.3-9.3c15.7 15.4 25.1 40.4 28.9 59.7h38.3c-5.6-28.1-23.9-55.8-47.5-72.3z"/>
		<path fill-rule="evenodd" class="s0" d="m346.5 43.2v99.4h-32.7v-99.4z"/>
		<path fill-rule="evenodd" class="s0" d="m347.1 0.6v26.3h-34v-26.3z"/>
		<path class="s0" d="m500.2 42.3c-13.6 0-27.2 4.9-35.2 17.3h-1.9c-5.2-11.4-16.1-17.3-31.8-17.3-13.8 0-26.6 4.9-34.4 17.3h-1.9l-5-15.6h-29.3l3.5 33v65.7h32.7v-55.3c0-15.7 6.5-27.8 20.8-27.8 8.6 0 16.3 4.4 16.3 22.3v60.8h32.7v-55.3c0-15.2 6.5-27.8 20.7-27.8 8.6 0 16.4 4.4 16.4 22.3v60.8h32.6v-65.5c0-22.7-13.4-34.9-36.2-34.9z"/>
		<path class="s0" d="m618.5 42.3c-13.6 0-27 4.9-34.6 17.3h-0.2v-59h-32.7v136.2q5.4 1.7 11.1 3c12.6 3 26.4 4.6 39.4 4.6 33.5 0 57.6-12.8 57.6-52.1 0-31.3-13.8-50-40.6-50zm-16.4 84.8c-6.9 0-13-1.8-18.4-4.4v-35.3c0-15.4 6.7-27.8 21-27.8 14.2 0 20.7 11.8 20.7 34.3 0 16.8-4 33.2-23.3 33.2z"/>
		<path class="s0" d="m724.1 42.3c-31 0-56.2 13.2-56.2 50.2 0 37.1 23.7 51.9 55.6 51.9 16.3 0 29.9-2.4 44.2-6.5v-22.7l-2.5 1.8c-8.6 5.5-20.6 10.1-33.8 10.1-18.1 0-29.2-8.5-29.7-27.1h68.2l0.5-2.1c1.2-5.6 1.6-11.3 1.6-16.2 0-23.3-14.8-39.4-47.9-39.4zm14.9 43.1h-37.3c0-19.3 8.6-25.8 20.1-25.8 10.7 0 17.6 5.7 17.6 20.3 0 2.2-0.2 3.4-0.4 5.5z"/>
		<path class="s0" d="m816.6 63.8h-1.9l-5.4-19.8h-29.1l3.5 33v65.7h32.7v-55.3c0-10.8 7.3-16.7 22.4-16.7 3.6 0 10.7 0.6 14.1 1.2v-29.6c-17.9 0-30 7.9-36.3 21.5z"/>
		<path class="s0" d="m901.6 126.3c-5.9 0-7.7-3.4-7.7-8.7v-117h-32.7v119.6c0 17.7 11.9 23 27.4 23 6.1 0 12.6-0.8 18.9-1.9v-16.1l-1.5 0.5q-2.2 0.6-4.4 0.6z"/>
		<path class="s0" d="m950.1 142.7c-10.9 13.8-24.4 17.9-43.7 17.9v25.2c28.9 0 53.4-20.1 68.7-43.2 19.1-28.8 30.8-67.2 34.8-98.6h-32.9c-1.5 31.4-9.8 62.8-18.2 82.9h-1.3c-8.4-20.1-16.7-51.3-18.2-82.9h-34.4c2.1 30.4 17.2 74.4 34.3 98.9"/>
		<path class="s0" d="m1017.4 94.5h54.6l2.7-20.6h-53.5z"/>
		<path class="s0" d="m1124.6 76c0-33.6 13.2-51.1 37.7-51.1 11.9 0 26.2 5.2 35 12.9v-23.4c-10.9-4.5-24.9-6.7-38.3-6.7-45.7 0-69.4 24.7-69.4 68.3 0 43.6 25.6 68.4 68.8 68.4 13.1 0 27.8-2.5 39.7-8.3v-23.5c-9.6 8.7-23.8 14.5-35.8 14.5-23.2 0-37.7-18-37.7-51.1z"/>
		<path class="s0" d="m1508.8 89c24.6-11.6 34.6-30.4 37.3-45h-34.5c-2.6 18.2-13 33.2-26.2 40.7v-84.1h-32.5v142h32.5v-42.4l7.3-3.5c12.4 10.3 19.7 27.8 22 46h34.4c-2.5-21.7-15.5-44.2-40.3-53.7z"/>
		<path class="s0" d="m1408.4 63.8h-1.9l-5.4-19.8h-29l3.4 33v65.7h32.7v-55.3c0-10.8 7.4-16.7 22.4-16.7 3.6 0 10.7 0.6 14.1 1.2v-29.6c-17.9 0-30 7.9-36.3 21.5z"/>
		<path class="s0" d="m1360.5 76c0-22.5-16-33.7-49.1-33.7-15.5 0-28.7 2.1-43.1 5.7v20.3c9.2-3.9 23.2-8.7 35.6-8.7 14.4 0 23.9 4.9 23.9 17v5.1h-24.6c-19 0-42.5 5.1-42.5 31.5 0 16 9.2 31.2 33.1 31.2 14 0 26.2-5.1 33.7-17.1h1.9l5.3 15.3h29.2l-3.5-32.9v-33.7zm-32.7 24.8c0 14.4-5.6 26.2-19.7 26.2-10.8 0-14.6-7.9-14.6-16.1 0-11.3 5.9-15.8 16.5-15.8h17.8z"/>
		<path class="s0" d="m1250.2 126.3c-5.8 0-7.7-3.4-7.7-8.7v-117h-32.7v119.6c0 17.7 11.9 23 27.5 23 6 0 12.5-0.8 18.8-1.9v-16.1l-1.5 0.5q-2.2 0.6-4.4 0.6z"/>
		<path class="s0" d="m127.1 108.6v-25.5c-5.1 0-13.5 0-15.6 0-1.8-0.1-5 0.2-7.5-2.1-1.6-1.5-1.9-3.8-0.6-6.7 0.3-0.8 0.9-1.8 1.7-3 1.2-1.7 18.5-23.2 21.9-27.4h-32.9c-1.6 1.6-9.5 12.5-13.9 19.9-0.3 0.5-0.6 1-0.9 1.4v-43.1h-31.6v43.1c-0.2-0.4-0.5-0.9-0.8-1.4-4.4-7.4-12.4-18.3-13.9-19.9h-32.9c3.4 4.2 20.7 25.7 21.8 27.4 0.9 1.2 1.5 2.2 1.8 3 1.2 2.9 1 5.2-0.7 6.7-2.4 2.3-5.7 2.1-7.5 2.1-2 0-10.4 0-15.5 0v25.5h26.7c11 0.1 17.5-7.1 19.8-10.4q0.5-0.9 0.8-1.4 0.3-0.6 0.4-0.7v26.7h31.7v-26.7c0 0 0.2 0.3 0.4 0.7q0.3 0.5 0.8 1.4c2.2 3.3 8.7 10.5 19.7 10.4"/>
	</g>
</svg>