<?xml version="1.0" ?>
<svg xmlns="http://www.w3.org/2000/svg" viewBox="0 0 1548 293">
	<style>.a{fill:#f00}</style>
	<path class="a" d="m147.2 0.4c-80.8 0-146.3 65.5-146.3 146.3 0 80.8 65.5 146.3 146.3 146.3 80.8 0 146.4-65.5 146.4-146.3-0.1-80.7-65.5-146.1-146.2-146.2zm0 273.3c-70.1-0.1-126.9-57.1-126.8-127.2 0.1-70.2 57.1-126.9 127.3-126.8 70.1 0.1 126.8 57 126.8 127.1 0 70.1-56.9 127-127 127zm4.3-99.3c-0.2-2.8-0.9-7.6-4.3-7.6-3.4 0-3.8 5.2-4 7.5-0.2 2.2-0.2 10.7-1.7 27.8q-2.1 19.6-6.4 38.9 6.1 0.2 12.1 1.6 6.3 1.8 12.1 4.6c0 0-2.8-13.9-4.7-30.6-1.9-16.6-2.6-39.1-2.9-42.1zm64-84.5c2.9-3.3 7-5.4 11.4-5.8 2.2-0.2 4.4-0.1 6.5 0.6 0 0-1.5-11.2-18.6-14-17.6-2.9-28.7 2.8-41 14.6-12.3 11.8-15.7 36.7-16 39.3-0.4 2.7-0.5 4.7 1.4 5.1 1.9 0.3 1.6-4.5 6.3-6.3 6.3-2.3 29.5-1.6 37.2-9.7 7.7-8.1 9.1-19.2 13-23.5zm8.4 66.7c-21.7-23.6-52.5-9.6-53.8-8.9-1.3 0.7-1.6 1.5 0 2.1 1.6 0.6 8.2 1.5 11 6.5 2.7 5 5.4 20.6 15.4 28.5 10 7.9 23.9 7.8 28.2 12.6 2.5 2.5 4.2 5.6 5.2 9 0 0 19.7-21.9-5.8-49.7zm-76.7 0.9c6.2-0.1 11.1-5.2 11-11.3-0.1-6.1-5.2-11.1-11.3-11-6.1 0.1-11 5.1-11 11.2 0 6.1 4.9 11.1 11.1 11.2h0.3zm-9.7-31c0-6.7-4.4-29.3-18.6-43.8-14.2-14.6-27.2-14.5-37.8-12-10.7 2.4-17.1 13.9-17.1 13.9 13.2-2.3 18.2 10.1 18.2 10.1 0 0 8.6 15.9 14.2 20.7 5.5 4.7 14.4 4.7 22 5.2 7.5 0.4 9.7 0.9 11.9 2.3 1.9 1.4 3.4 3.2 4.5 5.2 1.1 1.9 2.8 1.4 2.8-1.5zm-15.3 19.9c-3.3-1.8-6.9-2.9-10.6-3.2-12.3-1.8-32.7-0.8-46.1 14.5-22.3 25.5-5 46.8-5 46.8 1.3-4.4 4.3-8.2 8.3-10.4 6.9-3.7 14.4-2.5 23-7.5 8.6-5.1 9.7-8.6 15.3-22.3 5.5-13.7 10.5-14.5 13.9-14.8 4.8-0.4 2.1-2.8 1.1-3.2z"/>
	<path fill-rule="evenodd" d="m377.4 259.8v-230.1h32.9v99.9l92.1-99.9h41.1l-85.2 91.4 86.8 138.7h-40.1l-70.4-113.1-24.3 26v87.1zm222.3-165.7v165.7h-32.9v-165.7zm34.7 165.7v-165.7h29.6l2 28.3q7.9-15.1 22.2-23.7 14.3-8.5 33.4-8.5 20 0 34.2 7.9 14.1 7.9 21.9 23.8 7.7 16 7.7 39.9v98h-32.9v-94.7q0-23-10.2-35-10.2-12-29.6-12-12.8 0-23 6.3-10.2 6.2-16.3 18-6.1 11.9-6.1 29v88.4zm178.1 0v-165.7h29.6l2 28.3q7.9-15.1 22.2-23.7 14.3-8.5 33.3-8.5 20.1 0 34.2 7.9 14.2 7.9 21.9 23.8 7.7 16 7.7 39.9v98h-32.8v-94.7q0-23-10.2-35-10.2-12-29.6-12-12.9 0-23.1 6.3-10.1 6.2-16.2 18-6.1 11.9-6.1 29v88.4zm175.6-82.5q0-26 10-45.5 10.1-19.6 28.7-30.6 18.5-11 42.9-11 24.3 0 41.7 10.8 17.5 10.9 26.8 28.6 9.4 17.8 9.4 39.5v7.2q0 4-0.6 8.2h-126.5q0.7 15.4 6.4 26.3 6.6 12.5 17.6 19.1 11 6.6 24.5 6.6 15.8 0 26.1-6.9 10.4-6.9 15-18.8h32.9q-4.3 15.2-14.5 27.2-10.2 11.9-25 18.8-14.8 7-34.5 7-23.7-0.1-41.9-10.9-18.3-10.8-28.6-30.2-10.4-19.4-10.4-45.4zm32.7-15.8h94.2q-0.9-20.4-13.8-32.2-12.8-11.8-31.9-11.8-13.4 0-24.6 6.1-11.2 6-17.8 17.7-4.8 8.5-6.1 20.2zm193.3 98.3l-62.5-165.7h34.8l47.1 134.2 47.7-134.2h33.8l-62.1 165.7zm152.6-165.7v165.7h-32.9v-165.7zm34.8 165.7v-230.1h32.9v134l64.4-69.6h39.5l-71 75.8 79.9 89.9h-41.5l-71.3-84.8v84.8z"/>
	<path fill-rule="evenodd" d="m566.8 29.7v32.9h32.9v-32.9zm767 0v32.9h32.9v-32.9z"/>
</svg>