<svg xmlns="http://www.w3.org/2000/svg" style="enable-background:new 0 0 62 62" viewBox="0 0 62 62" xml:space="preserve"><path d="M13.5 21c0-.5.4-.8.8-.8H19c.5 0 .8.4.8.8v10.2c0 .5.2.5.4.1l6.2-10.4c.3-.4.8-.7 1.3-.7h4.7c.5 0 .6.3.4.7l-6.3 9c-.3.4-.3 1-.1 1.5l7.2 16.4c.1.2.1.6-.2.7-.1.1-.2.1-.3.1h-4.9c-.5 0-1-.3-1.2-.7l-4.5-11.5c-.2-.4-.5-.5-.8-.1l-1.5 2.1c-.3.5-.5 1-.5 1.5v8c0 .5-.4.8-.8.8h-4.6c-.5 0-.8-.4-.8-.8V21z"/><path d="M46.9 26.6c.4.4 1.1.3 1.4-.1.1-.1.2-.3.2-.5V14.7c0-.7-.5-1.2-1.2-1.2H36c-.5.1-.9.6-.8 1.2 0 .1.1.3.2.4l11.5 11.5z" style="fill:#ed1c24"/><path d="M0 0h62v62H0z" style="fill:none"/></svg>