<?xml version="1.0" encoding="utf-8"?>
<!-- Generator: Adobe Illustrator 26.5.0, SVG Export Plug-In . SVG Version: 6.00 Build 0)  -->
<svg version="1.2" baseProfile="tiny" id="Layer_1" xmlns="http://www.w3.org/2000/svg" 
	 x="0px" y="0px" viewBox="0 0 500 500" overflow="visible" xml:space="preserve">
<g id="Klook_logo_vertical_00000072263381453678989970000012944263772492682929_">
	<g>
		<path fill="#FF5B00" d="M110.05,171.91c5.23,2.52,10.63,4.66,16.17,6.42c11.89,3.76,13.54,2.18,8.39-8.42
			c-2.18-4.48-4.6-8.79-7.25-12.91c-5.18-8.06-8.67-11.02-16.93-4.04c-1.64,1.39-3.18,2.89-4.6,4.48
			C100.84,163.03,100.9,167.51,110.05,171.91z"/>
		<path fill="#4D40CC" d="M228.23,399.44c-2.04-5.84-4.5-11.54-7.36-17.05c-6.13-11.81-8.57-11.86-12.69,0.02
			c-1.74,5.02-3.16,10.11-4.28,15.22c-2.17,9.99-1.77,14.86,9.73,15.83c2.29,0.19,4.58,0.22,6.86,0.09
			C228.47,413.1,231.8,409.67,228.23,399.44z"/>
		<path fill="#00CBD1" d="M389.86,313.32c-4.65-5.45-8.93-11.23-12.78-17.3c-8.26-13.03-6.9-15.51,7.33-12.75
			c6.02,1.17,11.91,2.69,17.66,4.54c11.22,3.62,15.85,6.85,10.2,18.98c-1.13,2.41-2.42,4.73-3.86,6.95
			C403.36,321.49,398.01,322.86,389.86,313.32z"/>
		<path fill="#FFC200" d="M312.87,106.7c-4.12,3.52-8.49,6.74-13.08,9.65c-9.84,6.24-11.72,5.21-9.63-5.54
			c0.88-4.55,2.03-9,3.43-13.34c2.73-8.48,5.18-11.98,14.34-7.71c1.82,0.85,3.58,1.83,5.25,2.92
			C319.05,96.5,320.08,100.54,312.87,106.7z"/>
		<path fill="#00CBD1" d="M139.36,303.83c-45.76,27.35-59.03-7.14-54.42-52.34c7.22-70.76,54.42-71.98,76.6-21.42
			C174.93,260.62,169.82,285.62,139.36,303.83z"/>
		<path fill="#FF5B00" d="M192.64,352.91c0,7.66-0.31,15.26-0.93,22.76c-1.26,15.4-11.23,28.24-31.5,15.4
			c-8.31-5.27-16.12-11.24-23.36-17.83c-16.77-15.27-21.04-30.08,0-48.54c5.31-4.66,10.81-9.12,16.47-13.36
			c26.35-19.74,36.56-6.38,38.58,21.26C192.39,339.29,192.64,346.07,192.64,352.91z"/>
		<path fill="#FFC200" d="M345.61,337.94c-16.35-13.89-33.69-26.65-51.92-38.14c-39.09-24.65-46.52-20.61-38.25,21.89
			c3.5,17.97,8.06,35.57,13.61,52.71c10.86,33.51,20.55,47.33,56.93,30.45c7.24-3.36,14.2-7.21,20.85-11.52
			C370.14,378.23,374.23,362.26,345.61,337.94z"/>
		<path fill="#FF5B00" d="M326.68,164.83c-5,6.56-9.81,13.26-14.43,20.11c-27.38,40.56-24.67,42.07,14.43,59.19
			c14.09,6.17,28.57,11.6,43.39,16.26c54.22,17.02,62.51-1.99,46.71-49.16c-4.5-13.45-10.74-26.11-18.44-37.71
			C374.36,137.38,354.68,128.1,326.68,164.83z"/>
		<path fill="#4D40CC" d="M241.2,86.79c-13.59,1.32-26.7,4.29-39.12,8.73c-33.83,12.09-28.81,26.3-10.17,53.44
			c3.85,5.6,7.82,11.11,11.92,16.52c21.71,28.67,27.44,35.01,45.06-5.64c5.75-13.26,10.86-26.87,15.29-40.77
			C271.68,95.52,270.52,83.95,241.2,86.79z"/>
	</g>
</g>
</svg>
