<?xml version="1.0" ?>
<svg xmlns="http://www.w3.org/2000/svg" version="1.2" viewBox="0 0 665.000000 665.000000" preserveAspectRatio="xMidYMid meet" baseProfile="tiny-ps">
	<g transform="translate(0.000000,665.000000) scale(0.100000,-0.100000)" fill="#000000" stroke="none">
		<path d="M3100 5744 c-715 -65 -1347 -442 -1745 -1039 -187 -282 -323 -656 -365 -1005 -12 -104 -15 -403 -5 -475 9 -53 5 -53 140 -25 53 11 99 20 100 20 2 0 3 89 3 198 0 219 15 347 62 528 206 797 856 1393 1670 1529 133 23 411 31 540 16 494 -57 917 -259 1258 -599 347 -348 556 -805 598 -1309 l7 -83 32 0 c17 0 74 -3 125 -7 l92 -6 -7 94 c-31 422 -157 793 -385 1136 -125 189 -241 320 -415 470 -329 284 -722 466 -1165 538 -92 16 -444 28 -540 19z"/>
		<path d="M2007 4362 l-28 -3 22 -18 c30 -24 19 -52 -45 -119 -54 -58 -100 -87 -117 -76 -8 4 -10 37 -7 92 4 73 8 88 27 104 23 18 22 18 -79 18 l-103 0 19 -21 c18 -20 19 -41 19 -351 l0 -330 -28 -24 -28 -24 101 0 101 0 -15 22 c-13 19 -16 58 -16 223 0 143 3 204 12 213 18 18 67 14 115 -9 50 -24 144 -124 173 -184 38 -79 19 -188 -50 -285 -34 -48 -22 -46 31 5 78 77 104 133 104 230 0 44 -7 98 -14 120 -21 60 -105 143 -181 179 l-65 31 106 100 c59 55 107 104 108 108 1 7 -95 7 -162 -1z"/>
		<path d="M2294 4158 c-36 -40 -36 -42 -16 -49 12 -5 22 -14 22 -21 4 -140 -3 -455 -10 -462 -18 -18 -10 -26 26 -26 31 0 35 2 28 18 -13 25 -16 434 -4 452 8 13 17 11 65 -14 60 -31 122 -94 151 -154 28 -56 26 -200 -3 -265 -27 -58 -11 -53 19 6 40 78 48 133 48 324 0 152 3 184 16 197 14 15 11 16 -31 16 -42 0 -45 -1 -31 -16 11 -11 16 -35 16 -80 0 -35 -3 -64 -7 -64 -5 0 -20 15 -35 34 -27 33 -137 111 -190 134 -25 10 -29 8 -64 -30z"/>
		<path d="M3165 4183 c-41 -22 -41 -20 -12 -43 37 -29 60 -98 55 -162 -5 -55 -66 -211 -83 -210 -12 1 -35 70 -85 251 -31 111 -37 147 -28 158 9 12 0 14 -60 12 -40 -1 -72 -3 -72 -5 0 -2 8 -12 18 -22 11 -11 29 -57 41 -103 67 -258 129 -469 136 -469 10 0 125 241 154 323 37 105 40 180 11 245 -21 46 -30 49 -75 25z"/>
		<path d="M2700 4182 c0 -4 6 -14 13 -21 9 -9 11 -73 9 -269 -3 -218 -6 -260 -19 -274 -15 -17 -12 -18 56 -18 69 0 71 1 61 21 -17 31 -10 541 8 547 33 11 5 22 -58 22 -38 0 -70 -4 -70 -8z"/>
		<path d="M3334 4175 c18 -14 18 -16 -10 -77 -25 -54 -29 -75 -28 -144 1 -68 6 -92 31 -146 51 -109 125 -176 237 -214 56 -19 74 -12 23 9 -47 20 -113 81 -143 134 -53 89 -72 233 -35 253 27 14 104 13 120 -2 10 -11 16 -8 31 12 l19 25 -85 3 c-96 3 -100 7 -54 70 52 72 110 83 162 31 34 -34 36 -33 65 34 l12 27 -182 0 c-160 -1 -180 -2 -163 -15z"/>
		<path d="M3872 4170 c-24 -11 -59 -33 -79 -49 -41 -34 -96 -112 -85 -122 4 -4 38 -17 77 -29 110 -36 149 -57 204 -106 83 -74 91 -151 26 -254 -34 -55 -31 -60 11 -19 58 56 79 103 78 185 0 120 -56 185 -238 280 l-79 42 28 18 c63 41 198 24 226 -28 10 -19 13 -17 40 23 16 24 25 46 21 50 -37 33 -167 38 -230 9z"/>
		<path d="M4425 4185 c-5 -2 -28 -9 -50 -14 -22 -6 -55 -20 -73 -31 -29 -18 -32 -23 -20 -37 17 -21 14 -468 -3 -489 -9 -12 1 -14 62 -14 64 1 72 2 57 14 -16 12 -18 35 -18 230 0 233 6 268 51 300 36 24 101 21 127 -7 12 -13 22 -28 22 -33 0 -19 -63 -86 -114 -120 -28 -18 -45 -34 -39 -34 28 0 181 82 223 119 l45 40 -38 38 -37 38 -93 2 c-50 1 -96 0 -102 -2z"/>
		<path d="M4746 4169 c18 -20 19 -37 17 -267 -2 -200 -6 -250 -18 -269 l-15 -23 67 0 c97 -1 186 -11 201 -23 7 -5 14 -8 16 -6 7 8 66 129 66 136 0 4 -15 -7 -32 -25 -62 -59 -142 -78 -178 -42 -19 19 -20 33 -20 243 0 199 2 227 19 260 l19 37 -81 0 -80 0 19 -21z"/>
		<path d="M4147 3633 c-22 -22 7 -68 36 -57 21 8 30 34 16 50 -12 15 -41 19 -52 7z"/>
		<path d="M3700 3389 c-91 -4 -307 -17 -480 -29 -297 -21 -317 -24 -351 -46 -40 -27 -50 -29 -94 -13 -28 10 -36 9 -62 -10 -29 -22 -31 -22 -72 -5 -41 16 -43 16 -65 -5 -27 -25 -44 -26 -90 -5 -32 16 -43 15 -173 -4 -76 -12 -230 -36 -343 -53 -427 -65 -832 -147 -1300 -264 -224 -56 -559 -150 -568 -160 -7 -7 11 -21 122 -95 234 -157 518 -267 872 -339 282 -57 396 -66 849 -66 442 1 479 3 1105 71 l335 36 35 39 c41 46 66 49 110 12 l32 -26 236 27 c556 66 969 106 1462 142 152 12 371 18 675 19 497 2 532 6 598 65 29 26 32 33 31 87 0 47 -9 79 -51 173 -28 63 -64 146 -79 184 -52 131 -119 178 -290 206 -81 14 -656 47 -1014 60 -332 11 -1179 11 -1430 -1z m-640 -145 c95 -52 315 -299 430 -484 62 -100 125 -228 116 -237 -3 -4 -30 -8 -59 -11 -49 -4 -57 -2 -91 28 -20 18 -49 54 -63 79 -14 25 -46 82 -71 126 -71 124 -144 224 -214 291 -140 134 -260 162 -593 134 -103 -9 -643 -40 -699 -40 -47 0 4 11 204 43 442 73 434 72 480 57 36 -12 45 -12 69 3 20 12 41 14 83 10 41 -4 62 -2 77 9 17 12 29 13 61 5 32 -9 45 -8 72 6 48 25 133 17 198 -19z m3363 -216 c111 -221 120 -286 44 -342 -35 -26 -187 -38 -187 -15 -1 39 55 509 60 509 3 0 40 -69 83 -152z m-3481 65 c75 -34 144 -107 243 -258 93 -142 221 -362 214 -369 -7 -7 -246 -45 -409 -65 -761 -96 -1531 -81 -2039 40 -189 44 -379 111 -511 180 -88 45 -232 139 -237 154 -3 11 136 60 311 110 212 60 648 136 981 169 371 37 913 65 1225 62 157 -1 180 -3 222 -23z"/>
		<path d="M6368 2809 c-27 -16 -23 -65 7 -85 23 -15 27 -15 50 0 27 18 34 63 13 84 -15 15 -47 15 -70 1z"/>
		<path d="M5183 2431 l-81 -6 -90 -135 c-343 -515 -879 -840 -1502 -911 -210 -24 -551 2 -748 57 -410 113 -787 352 -1047 664 l-64 77 -98 7 c-54 3 -127 9 -163 13 l-64 6 49 -69 c133 -189 318 -388 480 -516 305 -241 671 -403 1060 -469 157 -26 441 -36 600 -20 454 46 884 221 1234 503 181 147 393 387 518 588 39 63 113 204 113 215 0 6 -74 4 -197 -4z"/>
	</g>
</svg>