<svg xmlns="http://www.w3.org/2000/svg"  id="Layer_1" x="0px" y="0px" viewBox="0 0 211 40" xml:space="preserve"> <g> <g> <path fill="#FFFFFF" d="M65.054,34.922L50.805,15.43v19.492h-6.362V5.034h6.542L64.83,23.81V5.034h6.364v29.888H65.054z"></path> <path fill="#FFFFFF" d="M76.797,20c0-9.007,6.586-15.459,15.639-15.459c9.005,0,15.593,6.452,15.593,15.459 s-6.588,15.459-15.593,15.459C83.383,35.459,76.797,29.007,76.797,20z M101.485,20c0-5.602-3.539-9.813-9.049-9.813 c-5.558,0-9.097,4.212-9.097,9.813c0,5.556,3.539,9.812,9.097,9.812C97.947,29.812,101.485,25.556,101.485,20z"></path> <path fill="#FFFFFF" d="M130.525,34.922l-5.87-10.62h-4.66v10.62h-6.362V5.034h13.979c6.229,0,10.082,4.077,10.082,9.634 c0,5.242-3.359,8.111-6.586,8.873l6.767,11.381H130.525z M131.152,14.623c0-2.465-1.926-3.988-4.437-3.988h-6.721V18.7h6.721 C129.227,18.7,131.152,17.177,131.152,14.623z"></path> <path fill="#FFFFFF" d="M143.567,34.922V5.034h21.148v5.601H149.93v6.272h14.474v5.603H149.93v6.81h14.786v5.603H143.567z"></path> <path fill="#FFFFFF" d="M190.306,34.922l-7.484-10.933l-7.525,10.933h-7.573l10.845-15.325L168.396,5.034h7.569l6.856,10.216 l6.768-10.216h7.662l-10.172,14.518l10.845,15.37H190.306z"></path> </g> <g> <polygon fill="#FBD008" points="38.57,34.922 23.663,19.974 15.07,19.974 15.07,25.316 24.573,34.922 "></polygon> <polygon fill="#91BF3E" points="23.663,19.974 38.452,5.025 24.572,5.025 15.07,14.63 15.07,19.974 "></polygon> <polygon fill="#1588C9" points="15.07,19.974 15.07,19.974 15.07,14.63 15.07,5.028 5.169,5.028 5.169,19.974 9.782,19.974 "></polygon> <polygon fill="#E12A2A" points="9.782,19.974 5.169,19.974 5.169,34.919 15.07,34.919 15.07,25.316 15.07,19.974 "></polygon> </g> <path fill="#FFFFFF" d="M197.343,9.14c0.015-1.177,0.409-2.159,1.188-2.948c0.749-0.788,1.693-1.19,2.832-1.205 c1.142,0.015,2.095,0.417,2.853,1.205c0.765,0.787,1.154,1.77,1.169,2.946c-0.015,1.177-0.404,2.149-1.169,2.924 c-0.758,0.803-1.711,1.212-2.853,1.227c-1.139-0.015-2.083-0.424-2.832-1.227C197.752,11.29,197.357,10.315,197.343,9.14 M198.204,9.14c0.006,0.979,0.31,1.772,0.905,2.378c0.581,0.629,1.331,0.946,2.251,0.954c0.927-0.008,1.685-0.325,2.271-0.955 c0.587-0.605,0.883-1.398,0.892-2.379c-0.009-0.995-0.305-1.796-0.892-2.401c-0.587-0.614-1.345-0.925-2.271-0.933 c-0.92,0.008-1.67,0.318-2.251,0.933C198.514,7.343,198.21,8.145,198.204,9.14 M199.844,6.6h1.773 c1.074-0.007,1.61,0.475,1.61,1.445c-0.006,0.475-0.12,0.82-0.342,1.035c-0.23,0.213-0.517,0.34-0.855,0.376l1.345,1.993h-0.932 l-1.346-1.971h-0.457v1.971h-0.797V6.6z M200.641,8.729h0.552c0.339,0.008,0.628-0.027,0.87-0.103 c0.242-0.087,0.363-0.282,0.372-0.585c-0.009-0.283-0.115-0.473-0.328-0.566c-0.206-0.083-0.451-0.125-0.731-0.125h-0.734V8.729z"></path> </g> </svg>