<?xml version="1.0" ?>
<svg xmlns="http://www.w3.org/2000/svg" viewBox="0 0 400 400">
	<path name="purple" d="M93.143 114.954 C 78.097 117.301,67.998 127.675,67.369 141.429 L 67.238 144.286 74.332 178.571 L 81.426 212.857 81.559 256.364 L 81.692 299.870 82.405 302.468 C 85.255 312.839,92.946 320.191,103.636 322.762 C 105.979 323.326,287.383 323.674,293.164 323.126 C 305.126 321.992,314.400 314.130,317.690 302.331 L 318.304 300.130 318.438 256.623 L 318.572 213.117 325.650 178.807 C 333.329 141.581,333.143 142.711,332.339 138.099 C 330.287 126.333,322.040 118.311,308.861 115.263 L 306.364 114.685 200.909 114.639 C 112.047 114.600,95.091 114.650,93.143 114.954 M158.831 168.321 C 164.611 169.143,169.525 171.287,174.029 174.954 L 176.063 176.609 178.244 175.601 C 192.070 169.213,207.951 169.194,221.651 175.548 L 223.952 176.615 226.067 174.919 C 245.020 159.720,272.771 171.371,275.056 195.488 C 276.068 206.163,270.788 217.240,261.885 223.122 C 260.439 224.077,259.782 224.665,259.860 224.931 C 263.474 237.132,260.696 254.889,253.478 265.725 C 234.888 293.632,174.685 296.386,150.372 270.441 C 140.340 259.735,136.121 241.117,140.121 225.193 C 140.267 224.613,140.094 224.417,138.533 223.391 C 120.213 211.346,120.442 184.322,138.962 172.686 C 144.893 168.960,152.134 167.369,158.831 168.321 M197.477 216.221 C 186.701 219.589,179.993 242.969,186.129 255.772 C 191.518 267.016,206.941 267.795,213.255 257.143 C 222.111 242.203,210.521 212.144,197.477 216.221 M168.045 219.047 C 163.383 220.076,161.241 223.104,161.085 228.883 C 160.973 233.047,161.302 233.766,163.316 233.766 C 165.266 233.766,165.659 232.990,165.771 228.914 C 165.873 225.215,167.138 223.636,170.000 223.636 C 172.947 223.636,174.072 225.228,174.275 229.686 C 174.436 233.224,174.749 233.766,176.629 233.766 C 178.840 233.766,179.719 230.033,178.558 225.577 C 177.330 220.860,172.742 218.010,168.045 219.047 M228.554 218.963 C 223.846 219.760,221.182 223.432,221.174 229.133 C 221.168 233.059,221.524 233.766,223.506 233.766 C 225.413 233.766,225.797 233.066,225.964 229.276 C 226.161 224.817,227.227 223.458,230.351 223.684 C 233.256 223.894,234.103 225.123,234.286 229.395 C 234.440 232.991,234.864 233.766,236.680 233.766 C 239.959 233.766,240.017 225.503,236.765 221.886 C 235.167 220.109,231.455 218.406,229.887 218.732 C 229.806 218.749,229.206 218.853,228.554 218.963 " stroke="none" fill="#544cd8" fill-rule="evenodd"/>
	<path name="base" d="M103.636 77.026 C 92.215 79.484,83.665 88.513,81.943 99.935 C 81.433 103.317,81.384 118.572,81.883 118.358 C 82.062 118.281,83.156 117.812,84.316 117.314 C 86.882 116.214,89.420 115.490,92.857 114.878 C 96.281 114.268,302.200 114.147,306.317 114.752 C 309.574 115.231,313.299 116.242,315.714 117.303 C 316.857 117.804,317.947 118.282,318.137 118.364 C 318.672 118.595,318.420 100.529,317.855 98.182 C 315.419 88.057,308.335 80.549,298.312 77.471 L 295.974 76.753 200.649 76.708 C 119.836 76.669,105.068 76.718,103.636 77.026 M166.990 91.056 C 171.418 92.371,172.791 98.331,169.394 101.488 C 165.333 105.261,158.841 102.387,158.893 96.839 C 158.931 92.660,162.885 89.837,166.990 91.056 M236.860 91.056 C 242.000 92.583,242.711 99.759,237.983 102.406 C 233.795 104.751,228.773 101.730,228.797 96.880 C 228.817 92.649,232.723 89.828,236.860 91.056 " stroke="none" fill="#d3d3d4" fill-rule="evenodd"/>
	<path name="shadow" d="M153.442 76.558 C 179.049 76.595,220.951 76.595,246.558 76.558 C 272.166 76.522,251.214 76.492,200.000 76.492 C 148.786 76.492,127.834 76.522,153.442 76.558 M164.613 90.833 C 164.937 90.895,165.404 90.893,165.652 90.828 C 165.901 90.763,165.636 90.712,165.065 90.715 C 164.494 90.718,164.290 90.771,164.613 90.833 M234.484 90.833 C 234.807 90.895,235.274 90.893,235.523 90.828 C 235.771 90.763,235.506 90.712,234.935 90.715 C 234.364 90.718,234.160 90.771,234.484 90.833 M171.229 96.883 C 171.229 97.383,171.283 97.588,171.348 97.338 C 171.413 97.088,171.413 96.679,171.348 96.429 C 171.283 96.179,171.229 96.383,171.229 96.883 M241.104 97.013 C 241.107 97.584,241.161 97.788,241.223 97.465 C 241.285 97.141,241.282 96.674,241.217 96.426 C 241.152 96.177,241.102 96.442,241.104 97.013 M324.156 122.679 C 324.156 122.723,324.536 123.103,325.000 123.523 L 325.844 124.286 325.081 123.442 C 324.370 122.655,324.156 122.478,324.156 122.679 M149.035 168.826 C 129.358 172.975,119.319 193.827,128.339 211.818 L 129.641 214.416 200.027 214.416 L 270.414 214.416 271.823 211.558 C 282.048 190.829,266.949 167.552,243.815 168.379 C 236.775 168.631,228.411 172.080,224.598 176.304 C 224.135 176.817,224.113 176.813,221.611 175.681 C 207.732 169.401,192.595 169.363,178.686 175.572 L 175.943 176.797 174.660 175.628 C 168.190 169.739,157.794 166.979,149.035 168.826 M81.422 233.636 C 81.422 244.494,81.454 248.897,81.493 243.422 C 81.533 237.947,81.533 229.064,81.493 223.682 C 81.454 218.300,81.422 222.779,81.422 233.636 M318.568 255.584 C 318.568 278.370,318.599 287.692,318.636 276.299 C 318.674 264.906,318.674 246.263,318.636 234.870 C 318.599 223.477,318.568 232.799,318.568 255.584 M261.131 238.571 C 261.130 239.857,261.174 240.416,261.229 239.813 C 261.283 239.210,261.284 238.158,261.230 237.475 C 261.177 236.792,261.132 237.286,261.131 238.571 M151.429 271.558 C 151.913 272.058,152.368 272.468,152.440 272.468 C 152.511 272.468,152.173 272.058,151.688 271.558 C 151.204 271.058,150.749 270.649,150.677 270.649 C 150.606 270.649,150.944 271.058,151.429 271.558 M88.831 314.627 C 88.831 314.671,89.211 315.051,89.675 315.471 L 90.519 316.234 89.757 315.390 C 89.045 314.603,88.831 314.426,88.831 314.627 M153.961 323.571 C 179.282 323.608,220.718 323.608,246.039 323.571 C 271.360 323.535,250.643 323.505,200.000 323.505 C 149.357 323.505,128.640 323.535,153.961 323.571 " stroke="none" fill="#d7d7eb" fill-rule="evenodd"/>
</svg>