<?xml version="1.0" ?>
<svg xmlns="http://www.w3.org/2000/svg" version="1.2" viewBox="0 0 1556 215">
	<style>
		.s0 { fill: #00a4e4 } 
	</style>
	<g id="layer1">
		<g id="g7187">
			<g id="g6429">
				<path id="path6431" fill-rule="evenodd" class="s0" d="m209 110.8c-0.3 2.2-2.5 16-5.8 16.8q-0.1 0-0.1-0.1c-1.5 0.7-2.7-0.2-2.7-0.2-1.1 8.4-6.9 21-15.3 38.1-6.1 12.5-12.3 24.5-7.3 29.4 4.2 4.2 11.5-5.3 9.2-0.5-2.7 5.9-8.1 6.9-12.8 4.8-13.3-6.3 9.7-56.1 9.7-56.1l-0.4 0.3c0 0-12.4-3.7-11.3-32.7 0 0-15.4 6.1-28.1-4.4 20.6 18.3 10.8 50.2 10.8 50.2 8.9 47.8-33 56.4-33 56.4-20.9 5.6-35.6-4.8-35.6-4.8l-0.3-0.3c-24.2-3.5-33.9-14.6-33-30 1-16.6 14.8-21.1 22.1-20.7 7 0.4 11.1 4.7 11.6 7.8 0 0-14.1-5.5-23.6 3.5-1.7 1.7-2.9 3.9-3.5 6-3.8 13 5.7 22.6 18.3 25.9-3.9-4.8-4.2-11.8-2.8-16 3.2-9.5 10.2-10.2 13.2-9.8 0 0-7.9 4-8.4 15.4-0.3 8.4 9.9 12.2 9.9 12.2 33.4 1.2 38.5-25.2 38.5-25.2-11.4 1.8-16.2-1.4-19.4-4.5-5.4-0.6-12.1-2.9-13.2-8.2-0.8-3.9 0.5-6.3 2.4-7.1 0 0-0.5 5.2 6.4 8.2q0.5 0.2 1.1 0.4c-0.4-2.8 0-5.6 1.3-7.1 1.1-1.3 2.4-1.6 3.5-1.5 0 0-4.6 9.2 3.3 9.4 1.6 0.1 2.9 0 4.1-0.3l0.8-0.2c7.4-2.5 14.1-12.1 14.1-20.3 0-10.3-6.8-18.8-15.7-20.1l-4.5 4.6c-3 2.7-6.8 4.6-6.8 4.6 6.3 3.8 2 8.7-0.6 9.1 1.2-4.2-2.1-5.3-4.3-4.9-0.2 0.5-0.6 0.9-1.2 1.3q0 0 0 0c-0.1 0.1-0.2 0.1-0.3 0.2q-0.4 0.2-1 0.4c-8.7 3.7-15.9 2-15.9 2q0.1 0 0.1-0.1c-1.3-0.3-2.4-1-3.3-2.3-4.6 1.8-1 6 0.7 6.8-4.1 0.6-6.8-1.8-7.3-5.2-0.7-4.6 3.5-6.8 3.5-6.8 7.7-4.8 19-1.1 19-1.1 8-1.7 13.4-10.7 13.4-10.7-10.3-2.5-15.9-6.9-15.9-6.9-1.4 2-3.1 3.8-3.1 3.8-1.5 1.2-2.9 2.1-2.9 2.1 2.4 3.2 0.4 9.2-5.3 8 2.9-1.5 1.6-4.8-0.6-4.9q-0.7 0.8-1.5 1.3v0.1c0 0-0.1 0-0.1 0q-0.6 0.4-1.2 0.6c-5.8 2.3-14.1 0.7-14.2 0.8v-0.1c-0.9-0.1-1.8-0.5-2.7-1.3-3.3 0.7-2.6 4.1-0.6 5.2-6.8 2.4-10.5-7.7-1.2-11.3 10.2-4.1 19.6 0 19.6 0 7.6-2.5 8.5-9.5 8.5-9.5-4.3-3.8-7.5-8.3-9.2-13.3 0 0.1-0.1 0.2-0.2 0.2q0.1 0.3 0.1 0.3c-7.8 14.3-24.2 9.6-24.2 9.6-4.2 16.1-17.8 16.5-17.8 16.5 0 0 0.4 15-9.1 19.1 4.5 24 19.1 42.9 9.1 50.7-3.8 3.1-11 2.1-12.9-4.9-0.9-3.3 4.9 4.9 9.1 0.8 4.2-4.1-6.5-21.2-12.3-32.8-7.2-14.6-10.6-32.1-10.7-32.3q0 0 0 0.1c-1.4 1.5-2.6 1.4-3.4 0.6-0.1 0-0.3-0.1-0.3-0.1-2.7-2.7-4-18.3-4-18.3-0.2-1.8-0.4-5.2-0.4-8.1q-0.1-1.4-0.1-2.7c0-1.5 0-2.5 0-2.5 0.5-25.9 12-31.4 12-31.4-5.7-0.2-2.2-5.5-2.2-5.5 7.6-14.1 18-22.8 26.4-28.6 15.8-10.9 24.9-4.4 23.9 1.1-2.8 17.1 14 9.2 18.1 2 4.1-7.1 9.1-13.3 9.1-13.3l0.8-1.3c-5 0.6-8.8-2.1-9.6-6-0.6-2.4 0.6-5.3 3.1-4.9 1.7 0.2 2.6 1.9 2.2 3.1-0.4 1.1-1.5 1.9-2.6 1.3 0.9 3.2 5.2 4.7 9.7 2.8l1-1.2c0 0-1.4 0.1-2.2 0-3-0.5-3.3-2.9-3.1-4 0.2-1.4 1.9-2.9 3.3-2.4 3 1.1 0.8 4.4-0.6 3.3 0.4 2.3 6.3-0.1 6.3-0.1 15-16.4 28.6-3.2 28.6-3.2 4.5-0.9 6.6 3.5 6.6 3.5 13.6 0.2 9.4 8 7 9.3-1.2-3.9-5.7-2.8-9.1-2.1-5.7 1.1-7.8 2.8-10.9 5.2-4.6 3.6-7.7 8.1-9.1 14-1.3 5.5 3.6 12.2 11.8 13.2 6.9 0.9 15.7-2.8 14.9-12.2-1.3-13.5 12.2-15.8 24.3-10.2 22.5 10.4 34.2 24.1 34.2 24.1 7 7.8 0.6 8.3 0.6 8.3 6.1 6 9.6 12.2 11.5 16.6q0.1 0.2 0.2 0.5 0.2 0.5 0.5 1.2c1 2.7 1.4 4.5 1.4 4.5 0.1 0.3 0.1 0.6 0.1 0.9 1.4 6.1 2.3 15.5-0.2 28.1zm-90.7 55.2q-0.2 0-0.5 0.1 0.3-0.1 0.5-0.1zm0.3-0.1q-0.2 0-0.3 0.1 0.2-0.1 0.3-0.1zm-0.9 0.2q0 0 0 0zm0.1 0q-0.1 0-0.1 0 0 0 0.1 0zm-6.4-158.4c0.1 1.5 1.3 2.8 2.4 3 2.1 0.4 2.5-0.8 5-0.9-0.5-0.4-1-0.9-1.7-1.4-0.3 1.2-1.3 2-2.5 1.8-1.2-0.2-2.2-1.4-2-2.8q0 0 0-0.1c-0.5 0.1-0.7 0.2-1.2 0.4zm2.5 0.4c0 0.6 0.4 1 1 1 0.5 0 0.9-0.4 0.9-1q0-0.3-0.1-0.5c-0.4-0.2-0.9-0.3-1.3-0.4-0.3 0.2-0.5 0.5-0.5 0.9zm21.8 167.1l-0.8 3.1c-7.1 27.4-34.7 29.3-34.7 29.3 17.3 4.3 32.6-5.5 39.2-12.4 9.9-10.2 8.6-27 8.6-27-0.6-3.1-1.8-1-1.8-1-3.6 6.3-10.5 8-10.5 8z"/>
			</g>
			<g id="g6433">
				<path id="path6435" class="s0" d="m323.7 160.5l-40.3-46.3-11.1 9.7v36.6h-21.8v-107h21.8v43l49.1-43.1 31.5 0.1-53.5 46.5 52.4 60.5z"/>
			</g>
			<g id="g6437">
				<path id="path6439" fill-rule="evenodd" class="s0" d="m430.7 160.5l-2.3-3.8c-2.3-3.6-3.4-7.9-3.4-12.7v-9.5c0-8.9-2.1-12-2.7-12.7-1.8-2-6.1-3-12-3h-26.1v41.7h-21.9v-107h48c33.2 0 38.1 19.6 38.1 31.3 0 7.9-2.5 14.8-7.4 20.5-0.8 0.9-1.7 1.8-2.6 2.6l-0.2 0.2 0.2 0.1c2.4 2.3 4.2 4.9 5.5 8 1.8 4.5 2.8 10 3 16.2 0 4.2 0.1 7.8 0.2 10.1v0.1l0.2 0.2 0.1 3q0.1 1.4 0.8 2.3l9.9 12.4zm-46.5-61.9h26c5.5 0 9.7-1.2 12.6-3.5 2.5-2.1 3.7-5.3 3.7-10 0-3.8-1.2-6.4-4-8.4-2.9-2-7-3-12.3-3h-26z"/>
			</g>
			<g id="g6441">
				<path id="path6443" class="s0" d="m502.3 160.5c-15.3 0-26.8-4.6-34.1-13.5-6.4-7.6-9.7-18.4-9.7-32.2v-61.3h21.9v61.3c0 8.3 1.7 14.7 5.2 19.1 3.5 4.4 9 6.6 16.7 6.6 8.7 0 14.7-2 18.3-6.3 3.4-3.9 5.2-10.4 5.2-19.4v-61.3h21.8v61.3c0 14-3.6 25-10.6 32.7-7.6 8.6-19.3 13-34.7 13z"/>
			</g>
			<g id="g6445">
				<path id="path6447" class="s0" d="m631 160.5l-2.4-3.4-46.5-64.5v67.9h-21.8v-107h19.4l48.6 67.5v-67.5h21.8v107z"/>
			</g>
			<g id="g6449">
				<path id="path6451" class="s0" d="m801.1 160.5v-86.8h-33.7v-20.2h89.3v20.2h-33.7v86.8z"/>
			</g>
			<g id="g6453">
				<path id="path6455" class="s0" d="m934.8 160.5v-45.2h-45v45.2h-21.9v-107h21.9v41.6h45v-41.6h21.8v107z"/>
			</g>
			<path id="path6457" class="s0" d="m1076.4 53.5h21.9v107h-21.9z"/>
			<g id="g6459">
				<path id="path6461" fill-rule="evenodd" class="s0" d="m1154.6 160.5v-107h46.2c10.5 0 19.3 2.3 26 6.9 8.1 5.7 12.2 13.9 12.2 24.6 0 7.4-2.5 13.6-7.6 18.5 0 0.1-0.1 0.2-0.1 0.3l-0.2 0.1 0.2 0.2c4 3.4 6.9 7.6 8.8 12.7 1.4 3.5 2.1 7 2.1 10.4 0 11.2-4.7 19.9-13.8 25.9-7.3 4.9-16.6 7.4-27.6 7.4zm21.9-20.2h24.3c6.4 0 11.3-1.1 14.6-3.3 3.4-2.2 4.9-5.3 4.9-9.8 0-4.3-1.5-7-5-9.1-3.3-1.9-8.2-2.8-14.5-2.8h-24.3zm0-45.3h24.3c5.3 0 9.5-1 12.4-3 2.8-1.9 4-4.3 4-8.1 0-3.6-1.2-5.8-4.1-7.6-2.9-1.7-7.3-2.6-12.3-2.6h-24.3z"/>
			</g>
			<g id="g6463">
				<path id="path6465" class="s0" d="m1421.5 160.5l-2.3-3.3-46.5-64.6v67.9h-21.9v-107h19.5l2.4 3.3 46.3 64.3v-67.6h21.7v107z"/>
			</g>
			<g id="g6467">
				<path id="path6469" class="s0" d="m1526.7 160.5l-40.2-46.3-11.1 9.7v36.6h-21.9v-107h21.9v43l49.1-43.1 31.4 0.1-53.5 46.5 52.4 60.5z"/>
			</g>
			<g id="g6471">
				<path id="path6473" class="s0" d="m712.4 160.5c-16.2 0-29.5-5.4-39.4-16.2-9-9.8-13.6-22.5-13.6-37.8 0-10.6 2.5-20.4 7.4-29.1 5.1-9.6 13-16.9 23.3-21.6 6.7-2.9 14.3-4.4 22.5-4.4 11.8 0 22.3 3.3 31.1 9.8 9 6.5 14.6 15.4 16.5 26.4l0.4 2h-22.1c-1.8-5.7-4.8-10-9-13.2-4.5-3.4-10-5.1-16.9-5.1-7.3 0-13.3 1.8-18.4 5.6-5.2 3.9-8.7 9-10.8 15.7-1.5 4.4-2.3 9.1-2.3 13.9 0 10.2 2.8 18.4 8.2 24.4l0.1 0.2c5.6 6.4 13.1 9.5 23.2 9.5 9.3 0 16.2-2.5 21.2-7.6 3.5-3.7 5.7-8.2 6.6-13.6v-0.2h-34.8v-20h56.3v61.3h-21v-7.8l-0.3 0.2q-1.2 0.7-2.6 1.4c-7.6 4.2-16.2 6.2-25.6 6.2z"/>
			</g>
			<g id="g6475">
				<path id="path6477" fill-rule="evenodd" class="s0" d="m1044.8 160.5l-7.3-18.2h-44.1l-7.4 18.2h-23.3l44.5-107h17l43.9 107zm-43.2-38.2h27.8l-13.8-34z"/>
			</g>
			<g id="g6479">
				<path id="path6481" fill-rule="evenodd" class="s0" d="m1323.4 160.5l-7.3-18.2h-44l-7.5 18.2h-23.3l44.4-107h17.1l43.9 107zm-43.2-38.2h27.8l-13.8-34z"/>
			</g>
		</g>
	</g>
</svg>