<?xml version="1.0" ?>
<svg xmlns="http://www.w3.org/2000/svg" viewBox="72.18 183.18 1134.64 273.64">
	<title>kubedb-logo-1280x640.svg</title>
	<path fill="#7272E9" d="M301.68 256.216v129.625l-101.747 43.215v-57.154l57.144-23.694v-73.869l44.603-18.123zm-101.748-44.592l101.747 44.592-44.603 18.123-57.144-25.082-57.144 25.082-43.2148-18.123 100.3588-44.592z"/>
	<path fill="#7272E9" d="M199.932 371.902v57.154L99.5732 385.841V256.216l43.2148 18.123v73.869l57.144 23.694z"/>
	<path fill="#4949A3" d="M308.648 256.226v-2.796l-1.398-1.388-104.532-46.001c-.773-.671-1.762-1.041-2.786-1.041s-2.013.37-2.786 1.041L95.3994 249.257l-1.3981 1.387v132.411c-.0268 1.436.3502 2.85 1.0881 4.083a7.66515 7.66515 0 0 0 3.0853 2.886l100.3483 43.215h8.347l100.349-43.215c1.28-.652 2.35-1.652 3.088-2.885.738-1.232 1.114-2.648 1.085-4.084l-2.786-126.829h.042zm-108.716-36.245l82.236 36.245-25.092 11.143-54.358-23.694c-.773-.672-1.762-1.042-2.786-1.042s-2.013.37-2.786 1.042l-54.358 22.306h-1.398l-23.694-9.755 82.236-36.245zm-6.97 197.921l-86.42-37.675V265.981l29.276 12.521v68.338c-.028 1.437.349 2.852 1.087 4.084a7.65409 7.65409 0 0 0 3.087 2.886l52.97 22.244v41.848zm6.97-52.96l-50.174-20.866V279.92l50.174-22.306 50.174 22.306v64.114l-50.174 20.908zm93.389 15.285l-86.42 37.634v-40.378l52.96-22.296c1.281-.651 2.352-1.651 3.09-2.884.739-1.233 1.114-2.649 1.084-4.085v-69.696l29.276-12.52.01 114.225z"/>
	<path fill="#fff" d="M257.077 348.207v-73.868l-57.144-25.082v73.869l57.144 25.081z"/>
	<path fill="#fff" d="M257.076 348.207l-57.144-25.082-57.144 25.082 57.144 23.695 57.144-23.695z"/>
	<path fill="#fff" d="M199.932 323.126v-73.869l-57.144 25.082v73.868l57.144-25.081z"/>
	<path fill="#4949A3" d="M259.86 267.369l-57.144-23.694h-8.347l-54.358 23.694c-2.796 1.398-5.582 4.174-5.582 6.97v73.868c0 2.797 1.398 5.582 5.582 6.97l57.133 25.051c.766.686 1.758 1.065 2.786 1.065s2.02-.379 2.786-1.065l57.144-25.041c2.796-1.387 5.582-4.173 5.582-6.969v-73.869c0-2.796-2.786-5.582-5.582-6.98zm-110.062 12.552l43.204-18.123v58.542l-43.204 18.154v-58.573zm50.174 85.022l-39.032-16.694 39.032-16.693 39.031 16.693-39.031 16.694zm50.174-27.878l-43.205-18.123V260.4l43.205 18.123v58.542zm357.683 46.689c.029 2.326-.85 4.572-2.452 6.26-.749.856-1.676 1.539-2.715 2.002-1.04.463-2.167.695-3.305.679h-24.518c-1.138.016-2.266-.215-3.306-.678a7.8604 7.8604 0 0 1-2.715-2.003c-1.605-1.686-2.485-3.933-2.451-6.26V213.459h-23.09c-12.193 17.389-24.417 34.751-36.673 52.084v111.084c0 .7.115 1.284.125 1.983 8.305 11.824 16.6 23.649 24.884 35.473 4.57 6.511 9.133 13.032 13.689 19.563 5.458 1.213 11.029 1.842 16.62 1.878h9.39c18.725 0 32.695-5.217 41.911-15.65v11.153h54.389V213.459h-59.783v170.295zm410.721-40.356v-70.436c0-39.237-18.43-58.855-55.299-58.855h-50.362c-36.865 0-55.297 19.618-55.297 58.855v103.666c0 39.23 18.432 58.844 55.297 58.844h50.372c36.869 0 55.299-19.614 55.299-58.844v-16.944h-59.754v24.07c.03 2.326-.85 4.572-2.452 6.26-.749.856-1.675 1.54-2.715 2.002-1.039.463-2.167.695-3.305.679h-24.518c-1.138.016-2.265-.216-3.305-.679-1.039-.462-1.966-1.146-2.715-2.002-1.605-1.685-2.486-3.933-2.452-6.26v-40.356h101.206zm-101.206-79.357c-.03-2.327.849-4.573 2.452-6.26.749-.856 1.676-1.54 2.715-2.002 1.04-.463 2.167-.695 3.305-.679h24.518c1.138-.016 2.266.216 3.305.679 1.04.462 1.966 1.146 2.715 2.002 1.598 1.69 2.477 3.934 2.452 6.26v40.127h-41.462v-40.127z"/>
	<path fill="#fff" d="M490.271 282.289l.011.184-.134-.061.123-.123z"/>
	<path fill="#7272E9" d="M480.268 282.414c2.212-2.619 4.632-5.092 6.614-7.888 12.521-17.611 24.95-35.268 37.289-52.97 1.712-2.442 3.308-4.967 5.321-8.013h-3.975c-20.021 0-40.064.448-60.075-.198-8.963-.282-14.388 2.003-19.688 9.964-18.425 27.638-38.092 54.441-57.186 81.631-8.91 12.687-8.712 22.087.303 34.774 2.024 2.838 3.996 5.718 6.02 8.556 12.228 17.121 24.529 34.179 36.663 51.363 6.417 9.098 12.593 18.363 18.78 27.628.65 1.145 1.612 2.082 2.774 2.701 1.162.619 2.476.894 3.789.794 22.849-.146 45.698-.073 68.547-.073h3.871c-.793-1.461-1.21-2.431-1.805-3.286-5.015-7.2-10.051-14.392-15.107-21.577-16.016-22.828-32.094-45.594-47.994-68.485-4.998-7.188-7.199-15.295-3.36-23.579 2.817-6.104 6.845-11.654 10.434-17.403 2.921-4.727 5.968-9.39 8.962-14.064l-.177.125zM326.03 322.165c0 34.524.053 69.048-.083 103.573 0 3.756.783 5.091 4.82 5.039 17.466-.23 34.931-.23 52.397 0 3.735 0 4.434-1.252 4.403-4.632-.146-19.208 0-38.427-.178-57.635-.145-2.475-.948-4.866-2.326-6.927-3.37-5.321-7.231-10.33-10.726-15.578-9.526-14.325-10.976-29.213-2.086-44.279 3.599-6.103 7.814-11.863 11.988-17.601 2.263-2.998 3.433-6.679 3.317-10.434-.167-18.536-.167-37.076 0-55.62 0-3.485-.834-4.664-4.455-4.622-17.465.167-34.927.167-52.386 0-3.652 0-4.789.897-4.778 4.716.187 34.681.093 69.34.093 104z"/>
	<path fill="#4949A3" d="M789.097 260.504h-9.39c-14.858 0-27.03 3.568-36.517 10.705v-56.643h-59.752v216.441h50.372V414.96c9.216 13.71 24.522 20.565 45.918 20.565h9.39c36.864 0 55.297-19.619 55.297-58.855v-57.311c-.028-39.237-18.467-58.855-55.318-58.855zm-9.62 123.25c.027 2.326-.852 4.571-2.452 6.26-.749.856-1.676 1.539-2.715 2.002-1.039.463-2.167.695-3.305.679h-24.518c-1.138.017-2.266-.215-3.306-.678-1.039-.463-1.965-1.146-2.714-2.003-1.604-1.686-2.484-3.933-2.452-6.26v-71.532c-.031-2.326.849-4.572 2.452-6.26.749-.856 1.675-1.54 2.714-2.003 1.04-.463 2.168-.694 3.306-.678h24.518c1.138-.016 2.266.216 3.305.679 1.039.463 1.966 1.146 2.715 2.002 1.598 1.691 2.477 3.935 2.452 6.26v71.532zm254.573-148.272c0-12.732 10.32-23.053 23.05-23.053h104.96c12.73 0 23.05 10.321 23.05 23.053v176.043c0 12.732-10.32 23.052-23.05 23.052H1057.1c-12.73 0-23.05-10.32-23.05-23.052V235.482z"/>
	<path fill="#fff" d="M1160.11 311.328h-99.4V271.53c0-7.313 1.08-13.412 3.25-18.297 2.17-4.886 5.18-8.559 9.03-11.018 3.82-2.459 8.22-3.688 13.2-3.688 3.88 0 7.3.776 10.24 2.329 2.91 1.554 5.31 3.689 7.18 6.407 1.85 2.685 3.16 5.759 3.94 9.221h.97c.16-3.785 1.23-7.328 3.2-10.629 1.97-3.332 4.74-6.034 8.3-8.105 3.53-2.071 7.73-3.106 12.62-3.106 5.27 0 9.98 1.311 14.12 3.931 4.11 2.589 7.36 6.423 9.76 11.503 2.39 5.08 3.59 11.341 3.59 18.782v42.468zm-17.18-21.016V273.18c0-5.856-1.12-10.127-3.35-12.813-2.27-2.686-5.28-4.028-9.03-4.028-2.75 0-5.18.663-7.28 1.99-2.1 1.326-3.75 3.219-4.95 5.678-1.2 2.427-1.8 5.323-1.8 8.688v17.617h26.41zm-40.63 0v-15.579c0-2.88-.5-5.436-1.5-7.668-1.04-2.265-2.49-4.045-4.37-5.339-1.88-1.327-4.12-1.99-6.75-1.99-3.59 0-6.48 1.278-8.68 3.834-2.2 2.524-3.3 6.116-3.3 10.775v15.967h24.6zm57.81 85.214v35.235h-99.4v-35.527c0-9.998 1.99-18.604 5.97-25.82 3.95-7.215 9.63-12.764 17.03-16.647 7.41-3.915 16.28-5.872 26.6-5.872 10.36 0 19.25 1.957 26.7 5.872 7.44 3.883 13.15 9.464 17.13 16.744 3.98 7.248 5.97 15.92 5.97 26.015zm-18.01 14.22v-13.347c0-6.212-1.1-11.438-3.3-15.676-2.23-4.271-5.68-7.474-10.34-9.61-4.69-2.168-10.74-3.252-18.15-3.252-7.34 0-13.35 1.084-18 3.252-4.66 2.136-8.09 5.323-10.29 9.561-2.2 4.239-3.3 9.464-3.3 15.677v13.395h63.38z"/>
</svg>