<?xml version="1.0" ?>
<svg xmlns="http://www.w3.org/2000/svg" xmlns:xlink="http://www.w3.org/1999/xlink" xmlns:v="https://vecta.io/nano" viewBox="0 0 154.263 35.667">
	<style>.B{overflow:visible}.C{stroke:none}</style>
	<defs>
		<symbol id="A" class="B">
			<path d="M 9.078,0.0 L 4.453,-5.578 L 2.938,-4.422 L 2.938,0.0 L 1.375,0.0 L 1.375,-11.562 L 2.938,-11.562 L 2.938,-5.765 L 8.516,-11.562 L 10.36,-11.562 L 5.438,-6.531 L 11.016,0.0 L 9.078,0.0" class="C"/>
		</symbol>
		<symbol id="B" class="B">
			<path d="M 2.578,-8.875 L 2.578,-3.25 C 2.578,-2.664 2.633,-2.211 2.75,-1.891 C 2.867,-1.571 3.047,-1.332 3.297,-1.188 C 3.547,-1.044 3.914,-0.969 4.406,-0.969 C 5.113,-0.969 5.672,-1.211 6.078,-1.703 C 6.492,-2.191 6.703,-2.867 6.703,-3.734 L 6.703,-8.875 L 8.172,-8.875 L 8.172,-1.891 L 8.219,0.0 L 6.828,0.0 C 6.828,-0.031 6.82,-0.102 6.812,-0.219 L 6.796,-0.641 L 6.765,-1.516 L 6.734,-1.516 C 6.398,-0.899 6.007,-0.469 5.562,-0.219 C 5.117,0.031 4.562,0.156 3.906,0.156 C 2.926,0.156 2.211,-0.082 1.765,-0.563 C 1.319,-1.044 1.093,-1.836 1.093,-2.954 L 1.093,-8.876 L 2.578,-8.875" class="C"/>
		</symbol>
		<symbol id="C" class="B">
			<path d="M 6.766,0.0 L 6.766,-5.625 C 6.766,-6.207 6.707,-6.66 6.594,-6.984 C 6.481,-7.308 6.297,-7.535 6.047,-7.671 C 5.797,-7.816 5.426,-7.89 4.938,-7.89 C 4.227,-7.89 3.665,-7.644 3.251,-7.156 C 2.845,-6.676 2.642,-6.004 2.642,-5.14 L 2.642,0.0 L 1.172,0.0 L 1.172,-6.984 L 1.11,-8.875 L 2.516,-8.875 L 2.516,-8.641 L 2.547,-8.235 L 2.578,-7.36 L 2.594,-7.36 C 2.938,-7.973 3.328,-8.407 3.766,-8.657 C 4.211,-8.907 4.77,-9.032 5.438,-9.032 C 6.407,-9.032 7.114,-8.79 7.563,-8.313 C 8.02,-7.833 8.251,-7.032 8.251,-5.907 L 8.251,0.0 L 6.766,0.0" class="C"/>
		</symbol>
		<symbol id="D" class="B">
			<path d="M 1.125,0.0 L 1.125,-12.172 L 2.609,-12.172 L 2.609,0.0 L 1.125,0.0" class="C"/>
		</symbol>
		<symbol id="E" class="B">
			<path d="M 11.328,-5.891 C 11.328,-4.703 11.094,-3.661 10.625,-2.766 C 10.164,-1.868 9.508,-1.18 8.656,-0.703 C 7.801,-0.234 6.816,0.0 5.703,0.0 L 1.375,0.0 L 1.375,-11.562 L 5.203,-11.562 C 7.16,-11.562 8.672,-11.066 9.734,-10.078 C 10.797,-9.098 11.328,-7.703 11.328,-5.89 L 11.328,-5.891 M 9.75,-5.891 C 9.75,-7.328 9.352,-8.422 8.563,-9.172 C 7.782,-9.922 6.649,-10.297 5.172,-10.297 L 2.938,-10.297 L 2.938,-1.25 L 5.516,-1.25 C 6.368,-1.25 7.114,-1.437 7.75,-1.812 C 8.395,-2.187 8.891,-2.722 9.234,-3.421 C 9.577,-4.12 9.75,-4.941 9.75,-5.89 L 9.75,-5.891" class="C"/>
		</symbol>
		<symbol id="F" class="B">
			<path d="M 3.391,0.156 C 2.504,0.156 1.836,-0.078 1.391,-0.547 C 0.946,-1.016 0.719,-1.66 0.719,-2.484 C 0.719,-3.398 1.02,-4.101 1.625,-4.593 C 2.23,-5.085 3.203,-5.343 4.547,-5.374 L 6.531,-5.405 L 6.531,-5.889 C 6.531,-6.616 6.379,-7.139 6.078,-7.451 C 5.777,-7.763 5.297,-7.92 4.641,-7.92 C 3.973,-7.92 3.489,-7.803 3.188,-7.576 C 2.887,-7.349 2.708,-6.986 2.657,-6.498 L 1.11,-6.639 C 1.36,-8.233 2.548,-9.03 4.673,-9.03 C 5.786,-9.03 6.626,-8.772 7.189,-8.264 C 7.752,-7.756 8.033,-7.014 8.033,-6.045 L 8.033,-2.232 C 8.033,-1.794 8.088,-1.459 8.205,-1.232 C 8.318,-1.013 8.537,-0.904 8.861,-0.904 C 9.006,-0.904 9.166,-0.924 9.345,-0.966 L 9.345,-0.044 A 5.34,5.34 0.0 0,1 8.204,0.081 C 7.648,0.078 7.25,-0.062 7.0,-0.344 C 6.758,-0.633 6.617,-1.086 6.578,-1.703 L 6.531,-1.703 C 6.156,-1.023 5.719,-0.547 5.219,-0.265 C 4.719,0.017 4.109,0.156 3.391,0.156 M 3.735,-0.938 C 4.274,-0.938 4.755,-1.063 5.173,-1.313 C 5.599,-1.563 5.931,-1.899 6.173,-2.329 C 6.415,-2.759 6.532,-3.196 6.532,-3.657 L 6.532,-4.376 L 4.923,-4.345 C 4.224,-4.333 3.696,-4.259 3.345,-4.126 C 2.99,-4.001 2.712,-3.798 2.517,-3.517 C 2.33,-3.244 2.236,-2.892 2.236,-2.454 C 2.236,-1.974 2.365,-1.599 2.627,-1.329 C 2.885,-1.067 3.256,-0.938 3.736,-0.938 L 3.735,-0.938" class="C"/>
		</symbol>
		<symbol id="G" class="B">
			<path d="M 4.547,-0.062 A 6.07,6.07 0.0 0,1 3.047,0.126 C 1.867,0.126 1.281,-0.538 1.281,-1.874 L 1.281,-7.796 L 0.25,-7.796 L 0.25,-8.874 L 1.344,-8.874 L 1.766,-10.858 L 2.75,-10.858 L 2.75,-8.874 L 4.391,-8.874 L 4.391,-7.796 L 2.75,-7.796 L 2.75,-2.202 C 2.75,-1.772 2.816,-1.472 2.953,-1.296 C 3.098,-1.128 3.344,-1.046 3.687,-1.046 C 3.882,-1.046 4.171,-1.081 4.546,-1.155 L 4.547,-0.062" class="C"/>
		</symbol>
		<symbol id="H" class="B">
			<path d="M 8.641,-4.484 C 8.641,-1.39 7.551,0.157 5.375,0.157 C 4.695,0.157 4.133,0.036 3.688,-0.202 C 3.251,-0.44 2.891,-0.831 2.61,-1.374 L 2.594,-1.374 L 2.563,-0.593 L 2.516,0.0 L 1.078,0.0 C 1.109,-0.289 1.125,-0.898 1.125,-1.828 L 1.125,-12.172 L 2.609,-12.172 L 2.609,-8.703 L 2.578,-7.453 L 2.609,-7.453 C 2.879,-8.015 3.238,-8.414 3.687,-8.656 C 4.144,-8.906 4.707,-9.031 5.375,-9.031 C 6.488,-9.031 7.313,-8.656 7.844,-7.906 C 8.375,-7.156 8.641,-6.015 8.641,-4.484 L 8.641,-4.484 M 7.094,-4.421 C 7.094,-5.671 6.926,-6.562 6.594,-7.093 C 6.27,-7.624 5.739,-7.89 5.0,-7.89 C 4.164,-7.89 3.555,-7.601 3.172,-7.031 C 2.797,-6.468 2.61,-5.57 2.61,-4.343 C 2.61,-3.175 2.79,-2.312 3.157,-1.749 C 3.532,-1.194 4.141,-0.921 4.985,-0.921 C 5.723,-0.921 6.258,-1.194 6.594,-1.749 C 6.93,-2.304 7.094,-3.19 7.094,-4.421 L 7.094,-4.421" class="C"/>
		</symbol>
		<symbol id="I" class="B">
			<path d="M 7.797,-2.453 C 7.797,-1.617 7.477,-0.973 6.844,-0.515 C 6.207,-0.066 5.321,0.157 4.188,0.157 C 3.083,0.157 2.227,-0.019 1.626,-0.374 C 1.032,-0.737 0.646,-1.304 0.47,-2.077 L 1.767,-2.343 C 1.892,-1.863 2.15,-1.507 2.548,-1.28 C 2.943,-1.061 3.489,-0.952 4.189,-0.952 C 4.939,-0.952 5.486,-1.065 5.83,-1.296 C 6.182,-1.534 6.361,-1.882 6.361,-2.343 C 6.361,-2.687 6.24,-2.968 6.002,-3.187 C 5.764,-3.406 5.369,-3.585 4.83,-3.734 L 3.768,-4.015 C 2.924,-4.234 2.319,-4.445 1.956,-4.656 C 1.601,-4.863 1.319,-5.117 1.112,-5.422 C 0.91,-5.723 0.813,-6.094 0.813,-6.531 C 0.813,-7.343 1.098,-7.957 1.672,-8.375 C 2.254,-8.801 3.098,-9.016 4.203,-9.016 C 5.18,-9.016 5.957,-8.844 6.531,-8.5 C 7.113,-8.156 7.484,-7.602 7.64,-6.844 L 6.312,-6.672 C 6.226,-7.067 6.003,-7.367 5.64,-7.578 C 5.285,-7.785 4.804,-7.89 4.203,-7.89 C 3.535,-7.89 3.039,-7.788 2.719,-7.593 C 2.407,-7.394 2.25,-7.085 2.25,-6.671 C 2.25,-6.421 2.316,-6.21 2.453,-6.046 C 2.586,-5.89 2.781,-5.753 3.031,-5.645 C 3.289,-5.523 3.832,-5.363 4.656,-5.156 C 5.437,-4.957 6.0,-4.773 6.344,-4.609 C 6.688,-4.445 6.957,-4.254 7.157,-4.046 A 1.95,1.95 0.0 0,1 7.626,-3.343 C 7.739,-3.081 7.798,-2.784 7.798,-2.452 L 7.797,-2.453" class="C"/>
		</symbol>
		<symbol id="J" class="B">
			<path d="M 2.266,-4.125 C 2.266,-3.102 2.473,-2.316 2.891,-1.766 C 3.317,-1.211 3.93,-0.938 4.735,-0.938 C 5.38,-0.938 5.895,-1.067 6.282,-1.329 C 6.669,-1.591 6.927,-1.911 7.063,-2.298 L 8.36,-1.939 C 7.828,-0.539 6.617,0.156 4.734,0.156 C 3.422,0.156 2.422,-0.235 1.734,-1.016 C 1.055,-1.797 0.719,-2.957 0.719,-4.5 C 0.719,-5.957 1.055,-7.078 1.735,-7.859 C 2.423,-8.64 3.407,-9.031 4.688,-9.031 C 7.29,-9.031 8.594,-7.461 8.594,-4.328 L 8.594,-4.125 L 2.266,-4.125 M 7.063,-5.25 C 6.989,-6.187 6.754,-6.867 6.36,-7.297 C 5.962,-7.734 5.395,-7.953 4.657,-7.953 C 3.938,-7.953 3.368,-7.711 2.954,-7.234 C 2.54,-6.757 2.313,-6.093 2.282,-5.25 L 7.063,-5.25" class="C"/>
		</symbol>
		<symbol id="K" class="B">
			<path d="M 5.141,-11.559 C 4.536,-12.164 3.36,-13.055 2.438,-13.641 L 1.528,-12.938 C 2.469,-12.313 3.614,-11.375 4.184,-10.77 L 5.141,-11.559 M 4.387,-7.426 C 3.731,-7.965 2.469,-8.719 1.496,-9.192 L 0.687,-8.399 C 1.679,-7.879 2.906,-7.075 3.542,-6.536 L 4.387,-7.426 M 2.234,0.926 L 4.82,-4.453 L 3.812,-5.242 C 2.992,-3.359 1.883,-1.16 1.094,0.117 L 2.234,0.926 M 10.937,-4.316 L 14.597,-4.316 L 14.597,-5.425 L 10.937,-5.425 L 10.937,-6.905 L 9.762,-6.905 L 9.762,-5.425 L 6.047,-5.425 L 6.047,-4.316 L 9.762,-4.316 L 9.762,-2.586 L 4.938,-2.586 L 4.938,-1.461 L 9.762,-1.461 L 9.762,1.262 L 10.938,1.262 L 10.938,-1.461 L 15.86,-1.461 L 15.86,-2.586 L 10.938,-2.586 L 10.937,-4.316 M 12.8,-12.027 C 12.179,-11.156 11.304,-10.382 10.331,-9.711 C 9.405,-10.367 8.636,-11.156 8.061,-12.027 L 12.8,-12.027 M 13.808,-13.203 L 13.609,-13.156 L 5.797,-13.156 L 5.797,-12.027 L 6.856,-12.027 C 7.493,-10.902 8.333,-9.929 9.34,-9.105 C 7.879,-8.265 6.235,-7.644 4.653,-7.273 A 3.64,3.64 0.0 0,1 5.294,-6.265 A 20.14,20.14 0.0 0,0 10.282,-8.367 C 11.727,-7.41 13.407,-6.668 15.255,-6.234 C 15.439,-6.55 15.759,-7.023 16.028,-7.273 C 14.282,-7.628 12.669,-8.23 11.29,-9.054 C 12.669,-10.062 13.829,-11.304 14.583,-12.769 L 13.808,-13.203" class="C"/>
		</symbol>
		<symbol id="L" class="B">
			<path d="M 6.316,-6.988 L 4.418,-6.383 L 4.418,-9.508 L 6.418,-9.508 L 6.418,-10.684 L 4.418,-10.684 L 4.418,-14.043 L 3.191,-14.043 L 3.191,-10.684 L 0.789,-10.684 L 0.789,-9.508 L 3.191,-9.508 L 3.191,-5.981 L 0.621,-5.227 L 1.023,-4.032 L 3.191,-4.739 L 3.191,-0.301 C 3.191,-0.067 3.089,0.015 2.855,0.015 C 2.656,0.015 1.933,0.035 1.14,-0.001 C 1.292,0.335 1.476,0.839 1.527,1.159 C 2.672,1.159 3.375,1.124 3.797,0.925 C 4.235,0.738 4.418,0.402 4.418,-0.302 L 4.418,-5.142 L 6.535,-5.865 L 6.316,-6.988 M 14.093,-0.855 L 9.207,-0.855 L 9.207,-5.964 L 14.094,-5.964 L 14.093,-0.855 M 16.011,-11.691 L 16.011,-12.886 L 6.367,-12.886 L 6.367,-11.691 L 9.594,-11.691 C 8.836,-8.855 7.442,-5.679 5.344,-3.746 L 6.149,-2.805 C 6.856,-3.461 7.462,-4.219 8.012,-5.039 L 8.012,1.293 L 9.207,1.293 L 9.207,0.32 L 14.094,0.32 L 14.094,1.211 L 15.321,1.211 L 15.321,-7.141 L 9.207,-7.141 C 9.93,-8.602 10.465,-10.164 10.902,-11.692 L 16.011,-11.691" class="C"/>
		</symbol>
		<symbol id="M" class="B">
			<path d="M 6.113,-6.719 L 4.265,-6.184 L 4.265,-9.508 L 6.113,-9.508 L 6.113,-10.684 L 4.266,-10.684 L 4.266,-14.043 L 3.039,-14.043 L 3.039,-10.684 L 0.891,-10.684 L 0.891,-9.508 L 3.039,-9.508 L 3.039,-5.848 L 0.672,-5.243 L 1.024,-4.016 L 3.04,-4.602 L 3.04,-0.219 C 3.04,0.015 2.942,0.101 2.704,0.101 C 2.505,0.117 1.782,0.117 0.974,0.101 C 1.142,0.437 1.329,0.925 1.361,1.242 C 2.521,1.262 3.228,1.226 3.646,1.023 C 4.083,0.824 4.267,0.488 4.267,-0.219 L 4.267,-4.973 L 6.283,-5.578 L 6.113,-6.719 M 13.609,-6.602 C 13.004,-5.075 12.062,-3.782 10.902,-2.739 C 9.843,-3.813 9.004,-5.141 8.433,-6.602 L 13.609,-6.602 M 14.398,-7.813 L 14.195,-7.762 L 11.523,-7.762 L 11.523,-10.266 L 15.539,-10.266 L 15.539,-11.426 L 11.523,-11.426 L 11.523,-14.063 L 10.296,-14.063 L 10.296,-11.426 L 6.366,-11.426 L 6.366,-10.266 L 10.296,-10.266 L 10.296,-7.762 L 6.703,-7.762 L 6.703,-6.602 L 7.258,-6.602 L 7.207,-6.586 C 7.863,-4.789 8.785,-3.242 9.961,-1.981 C 8.602,-0.992 7.039,-0.285 5.41,0.152 C 5.644,0.422 5.945,0.941 6.082,1.277 C 7.797,0.738 9.426,-0.036 10.852,-1.125 C 12.098,-0.035 13.59,0.773 15.34,1.309 C 15.524,0.973 15.875,0.489 16.145,0.235 C 14.465,-0.218 13.02,-0.941 11.809,-1.933 C 13.325,-3.328 14.516,-5.156 15.223,-7.46 L 14.398,-7.813" class="C"/>
		</symbol>
		<symbol id="N" class="B">
			<path d="M 11.977,-10.602 C 11.426,-11.305 10.247,-12.266 9.239,-12.903 L 8.45,-12.18 C 9.442,-11.492 10.602,-10.5 11.122,-9.793 L 11.977,-10.602 M 11.575,-6.184 C 10.954,-6.907 9.645,-7.895 8.567,-8.551 L 7.797,-7.813 C 8.856,-7.141 10.149,-6.098 10.754,-5.36 L 11.575,-6.184 M 7.156,-4.988 L 4.84,-7.879 L 4.84,-8.18 L 7.309,-8.18 L 7.309,-9.36 L 4.84,-9.36 L 4.84,-12.165 C 5.645,-12.349 6.418,-12.583 7.039,-12.837 L 6.281,-13.829 C 5.023,-13.274 2.824,-12.786 0.941,-12.481 C 1.074,-12.215 1.242,-11.778 1.308,-11.508 L 3.613,-11.895 L 3.613,-9.36 L 0.789,-9.36 L 0.789,-8.18 L 3.445,-8.18 C 2.789,-6.25 1.613,-4.098 0.555,-2.906 C 0.758,-2.621 1.059,-2.117 1.176,-1.781 C 2.051,-2.824 2.922,-4.484 3.614,-6.164 L 3.614,1.262 L 4.84,1.262 L 4.84,-6.52 L 6.403,-4.016 L 7.156,-4.988 M 16.144,-3.476 L 15.96,-4.621 L 13.995,-4.316 L 13.995,-14.062 L 12.77,-14.062 L 12.77,-4.117 L 7.09,-3.207 L 7.293,-2.016 L 12.77,-2.922 L 12.77,1.262 L 13.997,1.262 L 13.997,-3.125 L 16.144,-3.476" class="C"/>
		</symbol>
		<symbol id="O" class="B">
			<path d="M 13.055,-10.902 L 3.762,-10.902 L 3.762,-12.464 L 13.055,-12.464 L 13.055,-10.902 M 13.055,-8.316 L 3.762,-8.316 L 3.762,-9.93 L 13.055,-9.93 L 13.055,-8.316 M 14.348,-13.492 L 2.52,-13.492 L 2.52,-7.293 L 14.348,-7.293 L 14.348,-13.492 M 4.016,-0.59 L 4.016,-3.68 L 8.114,-3.68 L 8.114,-4.82 L 4.016,-4.82 L 4.016,-6.621 L 2.738,-6.621 L 2.738,-1.109 C 2.738,-0.488 2.25,-0.254 1.914,-0.132 C 2.102,0.134 2.32,0.688 2.387,1.009 C 2.789,0.805 3.41,0.672 8.535,-0.117 A 8.86,8.86 0.0 0,1 8.418,-1.191 L 4.016,-0.59 M 11.223,-0.235 C 10.434,-0.235 10.266,-0.352 10.266,-0.907 L 10.266,-2.79 C 12.079,-3.376 14.079,-4.169 15.457,-5.04 L 14.449,-5.931 C 13.492,-5.228 11.844,-4.47 10.265,-3.88 L 10.265,-6.653 L 9.023,-6.653 L 9.023,-0.891 C 9.023,0.519 9.457,0.925 11.121,0.925 L 14.113,0.925 C 15.539,0.925 15.926,0.32 16.093,-1.899 C 15.726,-1.965 15.202,-2.169 14.933,-2.387 C 14.851,-0.555 14.734,-0.235 14.027,-0.235 L 11.223,-0.235" class="C"/>
		</symbol>
		<symbol id="P" class="B">
			<path d="M 6.973,-0.469 C 5.661,-0.469 5.411,-0.637 5.411,-1.36 L 5.411,-3.528 C 8.099,-4.301 10.97,-5.36 12.903,-6.637 L 11.778,-7.559 C 10.332,-6.5 7.844,-5.477 5.41,-4.723 L 5.41,-8.098 L 4.184,-8.098 L 4.184,-1.36 C 4.184,0.3 4.821,0.706 6.957,0.706 L 11.625,0.706 C 13.625,0.706 14.043,0.034 14.262,-2.47 C 13.895,-2.536 13.371,-2.74 13.071,-2.958 C 12.919,-0.876 12.735,-0.47 11.594,-0.47 L 6.973,-0.469 M 8.434,-14.094 C 6.789,-11.543 3.711,-9.289 0.738,-8.113 A 5.04,5.04 0.0 0,1 1.597,-7.039 C 4.132,-8.18 6.667,-9.996 8.484,-12.18 C 10.23,-10.098 12.902,-8.098 15.269,-7.09 A 6.23,6.23 0.0 0,1 16.21,-8.215 C 13.675,-9.106 10.784,-11.106 9.19,-13.055 L 9.557,-13.575 L 8.434,-14.094" class="C"/>
		</symbol>
		<symbol id="Q" class="B">
			<path d="M 7.461,-13.742 A 14.83,14.83 0.0 0,1 6.199,-11.508 L 7.004,-11.121 C 7.477,-11.676 8.012,-12.516 8.5,-13.273 L 7.461,-13.742 M 3.527,-11.472 C 3.359,-12.097 2.906,-12.988 2.437,-13.64 L 1.527,-13.273 C 1.98,-12.582 2.418,-11.66 2.57,-11.07 L 3.527,-11.472 M 4.351,-6.769 L 5.511,-6.769 L 5.511,-9.07 C 6.316,-8.5 7.359,-7.675 7.761,-7.293 L 8.449,-8.199 A 42.08,42.08 0.0 0,0 5.777,-9.91 L 8.937,-9.91 L 8.937,-10.953 L 5.512,-10.953 L 5.512,-14.062 L 4.352,-14.062 L 4.352,-10.953 L 0.891,-10.953 L 0.891,-9.91 L 3.965,-9.91 C 3.141,-8.82 1.898,-7.797 0.723,-7.293 C 0.957,-7.055 1.262,-6.637 1.395,-6.352 C 2.418,-6.887 3.512,-7.813 4.352,-8.805 L 4.351,-6.769 M 6.906,-4.367 A 6.43,6.43 0.0 0,1 5.344,-2.152 L 3.446,-3.039 L 4.184,-4.367 L 6.906,-4.367 M 7.726,-0.758 C 7.359,-1.024 6.855,-1.328 6.316,-1.629 C 7.207,-2.57 7.894,-3.746 8.332,-5.191 L 7.629,-5.476 L 7.442,-5.425 L 4.703,-5.425 L 5.058,-6.3 L 3.949,-6.5 C 3.832,-6.148 3.679,-5.797 3.512,-5.426 L 1.242,-5.426 L 1.242,-4.367 L 2.992,-4.367 L 1.914,-2.586 C 2.738,-2.285 3.644,-1.863 4.484,-1.43 C 3.395,-0.656 2.117,-0.117 0.758,0.184 C 0.973,0.422 1.227,0.875 1.344,1.141 C 2.871,0.738 4.301,0.086 5.492,-0.875 A 14.01,14.01 0.0 0,1 6.957,0.066 L 7.726,-0.758 M 13.558,-9.66 C 13.304,-7.726 12.902,-6.047 12.296,-4.637 C 11.659,-6.133 11.187,-7.844 10.87,-9.66 L 13.558,-9.66 M 15.859,-9.66 L 15.859,-10.82 L 11.121,-10.82 C 11.355,-11.761 11.559,-12.734 11.691,-13.726 L 10.55,-13.894 C 10.128,-10.988 9.374,-8.179 8.097,-6.417 C 8.367,-6.249 8.835,-5.862 9.038,-5.659 C 9.456,-6.3 9.843,-7.038 10.179,-7.862 C 10.55,-6.198 11.019,-4.686 11.659,-3.374 C 10.718,-1.78 9.405,-0.554 7.593,0.337 C 7.812,0.571 8.163,1.075 8.281,1.345 C 9.996,0.423 11.273,-0.737 12.265,-2.198 C 13.085,-0.788 14.144,0.353 15.437,1.142 C 15.625,0.826 15.976,0.404 16.261,0.169 C 14.886,-0.569 13.777,-1.796 12.917,-3.343 C 13.808,-5.073 14.362,-7.14 14.749,-9.659 L 15.859,-9.66" class="C"/>
		</symbol>
		<symbol id="R" class="B">
			<path d="M 5.93,-5.609 L 5.762,-6.754 L 4.016,-6.199 L 4.016,-9.527 L 5.914,-9.527 L 5.914,-10.683 L 4.016,-10.683 L 4.016,-14.042 L 2.856,-14.042 L 2.856,-10.683 L 0.773,-10.683 L 0.773,-9.527 L 2.855,-9.527 L 2.855,-5.847 L 0.57,-5.176 L 0.875,-3.98 L 2.855,-4.601 L 2.855,-0.285 C 2.855,-0.035 2.773,0.035 2.57,0.035 C 2.386,0.035 1.715,0.035 0.992,0.015 C 1.16,0.37 1.308,0.874 1.359,1.175 C 2.418,1.191 3.058,1.14 3.445,0.941 C 3.863,0.738 4.015,0.421 4.015,-0.27 L 4.015,-4.989 L 5.93,-5.609 M 7.844,-7.156 L 7.864,-8.281 L 7.864,-9.004 L 11.106,-9.004 L 11.106,-7.156 L 7.844,-7.156 M 14.262,-12.23 L 14.262,-10.097 L 7.863,-10.097 L 7.863,-12.23 L 14.262,-12.23 M 14.379,-0.421 L 9.223,-0.421 L 9.223,-2.956 L 14.379,-2.956 L 14.379,-0.421 M 16.027,-6.081 L 16.027,-7.155 L 12.297,-7.155 L 12.297,-9.003 L 15.457,-9.003 L 15.457,-13.323 L 6.652,-13.323 L 6.652,-8.28 C 6.652,-5.629 6.5,-1.98 4.77,0.59 C 5.059,0.707 5.579,1.059 5.778,1.293 C 7.192,-0.773 7.645,-3.594 7.798,-6.082 L 11.107,-6.082 L 11.107,-4.016 L 8.133,-4.016 L 8.133,1.308 L 9.223,1.308 L 9.223,0.621 L 14.379,0.621 L 14.379,1.242 L 15.524,1.242 L 15.524,-4.016 L 12.297,-4.016 L 12.297,-6.082 L 16.027,-6.081" class="C"/>
		</symbol>
		<symbol id="S" class="B">
			<path d="M 15.926,-11.187 L 15.926,-12.363 L 10.063,-12.363 C 9.844,-12.886 9.493,-13.558 9.09,-14.062 L 7.879,-13.726 C 8.164,-13.339 8.449,-12.82 8.652,-12.363 L 2.082,-12.363 L 2.082,-7.558 C 2.082,-5.124 1.965,-1.745 0.605,0.657 C 0.89,0.774 1.429,1.141 1.664,1.38 C 3.09,-1.16 3.309,-4.937 3.309,-7.559 L 3.309,-11.188 L 15.926,-11.187 M 15.942,-2.437 L 11.172,-2.437 L 11.172,-4.367 L 14.867,-4.367 L 14.867,-5.492 L 11.172,-5.492 L 11.172,-7.242 L 9.945,-7.242 L 9.945,-5.492 L 6.77,-5.492 A 22.75,22.75 0.0 0,0 8.282,-8.062 L 15.255,-8.062 L 15.255,-9.191 L 8.836,-9.191 L 9.391,-10.398 L 8.098,-10.851 C 7.914,-10.281 7.711,-9.726 7.461,-9.191 L 4.402,-9.191 L 4.402,-8.062 L 6.937,-8.062 L 5.964,-6.316 C 5.628,-5.777 5.343,-5.41 5.058,-5.343 A 9.69,9.69 0.0 0,1 5.46,-4.116 C 5.628,-4.264 6.198,-4.366 7.038,-4.366 L 9.944,-4.366 L 9.944,-2.436 L 3.914,-2.436 L 3.914,-1.291 L 9.945,-1.291 L 9.945,1.279 L 11.172,1.279 L 11.172,-1.291 L 15.942,-1.291 L 15.942,-2.437" class="C"/>
		</symbol>
	</defs>
	<g transform="translate(-40.937 -98.156)" fill="#333">
		<use xlink:href="#K" x="40.25" y="112.25"/>
		<use xlink:href="#L" x="57.043" y="112.25"/>
		<use xlink:href="#N" x="73.836" y="112.25"/>
		<use xlink:href="#M" x="90.629" y="112.25"/>
		<use xlink:href="#O" x="112.087" y="112.25"/>
		<use xlink:href="#P" x="128.88" y="112.25"/>
		<use xlink:href="#Q" x="145.673" y="112.25"/>
		<use xlink:href="#R" x="162.466" y="112.25"/>
		<use xlink:href="#S" x="179.259" y="112.25"/>
	</g>
	<g transform="matrix(1.2092 0 0 1.2092 -55.951915 -123.03627)" fill="#1c82c1">
		<use xlink:href="#A" x="44.896" y="131.088"/>
		<use xlink:href="#B" x="56.097" y="131.088"/>
		<use xlink:href="#C" x="65.436" y="131.088"/>
		<use xlink:href="#D" x="74.776" y="131.088"/>
		<use xlink:href="#B" x="78.506" y="131.088"/>
		<use xlink:href="#C" x="87.846" y="131.088"/>
		<use xlink:href="#E" x="101.851" y="131.088"/>
		<use xlink:href="#F" x="113.978" y="131.088"/>
		<use xlink:href="#G" x="123.318" y="131.088"/>
		<use xlink:href="#F" x="127.983" y="131.088"/>
		<use xlink:href="#H" x="137.323" y="131.088"/>
		<use xlink:href="#F" x="146.662" y="131.088"/>
		<use xlink:href="#I" x="156.002" y="131.088"/>
		<use xlink:href="#J" x="164.398" y="131.088"/>
	</g>
</svg>