<?xml version="1.0" ?>
<svg xmlns="http://www.w3.org/2000/svg" viewBox="0 0 208 56" fill="none">
	<path d="M190.313 52C187.93 52 185.844 51.4453 184.056 50.336C182.311 49.2267 180.949 47.6693 179.97 45.664C179.033 43.6587 178.565 41.2693 178.565 38.496V17.76H185.142V36.704C185.142 38.6667 185.439 40.3733 186.035 41.824C186.674 43.232 187.568 44.32 188.717 45.088C189.909 45.856 191.335 46.24 192.995 46.24C194.23 46.24 195.358 46.048 196.379 45.664C197.401 45.2373 198.273 44.6613 198.997 43.936C199.763 43.2107 200.359 42.336 200.785 41.312C201.211 40.288 201.423 39.1787 201.423 37.984V17.76H208V51.36H201.423V44.32L202.573 43.552C202.062 45.1307 201.189 46.56 199.955 47.84C198.763 49.12 197.337 50.144 195.677 50.912C194.017 51.6373 192.229 52 190.313 52Z" fill="#181818"/>
	<path d="M146.233 51.36V45.856L163.536 22.688V23.456H146.233V17.76H170.688V23.136L153.64 45.984L153.384 45.664H171.071V51.36H146.233Z" fill="#181818"/>
	<path d="M119.974 52C117.544 52 115.419 51.4417 113.597 50.3251C111.818 49.2085 110.429 47.641 109.432 45.6226C108.477 43.6041 108 41.1991 108 38.4077V17.536H114.703V36.6039C114.703 38.5794 115.007 40.2973 115.614 41.7574C116.265 43.1746 117.176 44.2698 118.347 45.0428C119.562 45.8158 121.015 46.2023 122.707 46.2023C123.965 46.2023 125.115 46.0091 126.156 45.6226C127.197 45.1931 128.087 44.6133 128.824 43.8832C129.605 43.1532 130.213 42.2728 130.646 41.2421C131.08 40.2114 131.297 39.0948 131.297 37.8923V17.536H138V51.3558H131.297V44.2698L132.469 43.4967C131.948 45.0857 131.059 46.5244 129.8 47.8128C128.586 49.1012 127.132 50.1319 125.44 50.9049C123.748 51.635 121.926 52 119.974 52Z" fill="#181818"/>
	<path d="M114.963 9.28234L126.286 15.3377L128.499 12.0523L119.193 4L114.963 9.28234Z" fill="#FF6900"/>
	<path d="M78.0019 40.864L77.6827 33.696L93.7091 17.76H102.584L78.0019 40.864ZM72 51.36V4H78.5766V51.36H72ZM94.603 51.36L81.9606 36.576L86.6217 32.288L103.031 51.36H94.603Z" fill="#181818"/>
	<g clip-path="url(#clip0_121_524)">
		<g filter="url(#filter0_ii_121_524)">
			<rect width="56" height="56" fill="url(#paint0_linear_121_524)"/>
		</g>
		<g filter="url(#filter1_i_121_524)">
			<path fill-rule="evenodd" clip-rule="evenodd" d="M18.9661 8.74603C17.3938 8.74603 16.2145 8.05814 16.2145 8.05814C17.423 10.5306 17.7782 11.9286 17.7869 14.4457V22.7986H20.1453V14.4457C20.1663 11.7728 20.5133 10.375 21.7177 8.05814C21.7177 8.05814 20.5384 8.74603 18.9661 8.74603ZM37.6374 15.9197C39.3741 15.9197 40.782 14.5118 40.782 12.7751C40.782 11.0384 39.3741 9.63045 37.6374 9.63045C35.9007 9.63045 34.4928 11.0384 34.4928 12.7751C34.4928 14.5118 35.9007 15.9197 37.6374 15.9197ZM21.9142 28.0069C21.9142 29.7437 20.5063 31.1516 18.7696 31.1516C17.0328 31.1516 15.6249 29.7437 15.6249 28.0069C15.6249 26.2702 17.0328 24.8623 18.7696 24.8623C20.5063 24.8623 21.9142 26.2702 21.9142 28.0069ZM40.782 43.337C40.782 45.0738 39.3741 46.4817 37.6374 46.4817C35.9007 46.4817 34.4928 45.0738 34.4928 43.337C34.4928 41.6003 35.9007 40.1924 37.6374 40.1924C39.3741 40.1924 40.782 41.6003 40.782 43.337ZM24.6654 27.0554C24.6654 27.0554 24.4343 25.7098 23.4237 24.5054C22.413 23.3009 21.128 22.8397 21.128 22.8397C23.6771 22.2731 24.9708 21.6405 27.0319 19.9384L33.4306 14.5692L34.9466 16.3759L28.5479 21.7451C26.6252 23.3696 25.7826 24.5403 24.6654 27.0554ZM23.4237 31.5396C22.413 32.7441 21.128 33.2053 21.128 33.2053C23.7989 33.8688 25.0981 34.4953 27.0319 36.1066L33.4306 41.4758L34.9466 39.6691L28.5479 34.2999C26.5137 32.5658 25.6661 31.4015 24.6654 28.9896C24.6654 28.9896 24.4343 30.3352 23.4237 31.5396ZM16.2145 47.9557C16.2145 47.9557 17.3938 47.2678 18.9661 47.2678C20.5384 47.2678 21.7177 47.9557 21.7177 47.9557C20.5133 45.6388 20.1663 44.2411 20.1453 41.5682V33.2152H17.7869V41.5682C17.7782 44.0853 17.423 45.4833 16.2145 47.9557Z" fill="#973C00"/>
		</g>
	</g>
	<defs>
		<filter id="filter0_ii_121_524" x="-8" y="-10" width="84" height="86" filterUnits="userSpaceOnUse" color-interpolation-filters="sRGB">
			<feFlood flood-opacity="0" result="BackgroundImageFix"/>
			<feBlend mode="normal" in="SourceGraphic" in2="BackgroundImageFix" result="shape"/>
			<feColorMatrix in="SourceAlpha" type="matrix" values="0 0 0 0 0 0 0 0 0 0 0 0 0 0 0 0 0 0 127 0" result="hardAlpha"/>
			<feOffset dx="20" dy="21"/>
			<feGaussianBlur stdDeviation="10"/>
			<feComposite in2="hardAlpha" operator="arithmetic" k2="-1" k3="1"/>
			<feColorMatrix type="matrix" values="0 0 0 0 1 0 0 0 0 0.537255 0 0 0 0 0.0156863 0 0 0 1 0"/>
			<feBlend mode="normal" in2="shape" result="effect1_innerShadow_121_524"/>
			<feColorMatrix in="SourceAlpha" type="matrix" values="0 0 0 0 0 0 0 0 0 0 0 0 0 0 0 0 0 0 127 0" result="hardAlpha"/>
			<feOffset dx="-8" dy="-10"/>
			<feGaussianBlur stdDeviation="12.5"/>
			<feComposite in2="hardAlpha" operator="arithmetic" k2="-1" k3="1"/>
			<feColorMatrix type="matrix" values="0 0 0 0 0.960784 0 0 0 0 0.286275 0 0 0 0 0 0 0 0 1 0"/>
			<feBlend mode="normal" in2="effect1_innerShadow_121_524" result="effect2_innerShadow_121_524"/>
		</filter>
		<filter id="filter1_i_121_524" x="15.6249" y="8.05814" width="25.1571" height="43.8976" filterUnits="userSpaceOnUse" color-interpolation-filters="sRGB">
			<feFlood flood-opacity="0" result="BackgroundImageFix"/>
			<feBlend mode="normal" in="SourceGraphic" in2="BackgroundImageFix" result="shape"/>
			<feColorMatrix in="SourceAlpha" type="matrix" values="0 0 0 0 0 0 0 0 0 0 0 0 0 0 0 0 0 0 127 0" result="hardAlpha"/>
			<feOffset dy="4"/>
			<feGaussianBlur stdDeviation="2"/>
			<feComposite in2="hardAlpha" operator="arithmetic" k2="-1" k3="1"/>
			<feColorMatrix type="matrix" values="0 0 0 0 0 0 0 0 0 0 0 0 0 0 0 0 0 0 0.25 0"/>
			<feBlend mode="normal" in2="shape" result="effect1_innerShadow_121_524"/>
		</filter>
		<linearGradient id="paint0_linear_121_524" x1="4.9135" y1="3.50154" x2="51.8865" y2="54.0614" gradientUnits="userSpaceOnUse">
			<stop offset="0.565461" stop-color="#FF6900"/>
			<stop offset="1" stop-color="#F75101"/>
		</linearGradient>
		<clipPath id="clip0_121_524">
			<rect width="56" height="56" rx="8" fill="white"/>
		</clipPath>
	</defs>
</svg>