<svg xmlns="http://www.w3.org/2000/svg" role="img" viewBox="-13.43 -13.43 698.36 247.36"><defs><style>.f{fill:#131226}.h{fill:#40b9bc}.l{fill:#be1d43}</style></defs><path d="M338.62 78.65c-6.64-6.07-16.5-9.1-29.57-9.1h-29.84v77.57h26.61c7.69 0 14.22-1.13 19.61-3.39 5.38-2.26 9.78-5.37 13.19-9.32s5.93-8.47 7.55-13.57c1.61-5.1 2.42-10.49 2.42-16.16 0-11.28-3.32-19.95-9.97-26.02zm-10.83 36.15c-.86 3.09-2.19 5.82-3.99 8.19-1.8 2.37-4.09 4.22-6.9 5.55-2.8 1.33-6.18 1.99-10.13 1.99h-8.4V86.14h10.66c7.11 0 12.23 1.63 15.36 4.9 3.12 3.27 4.69 7.88 4.69 13.84 0 3.52-.43 6.83-1.29 9.91zm83.39 16.37c-.07-2.23-.11-4.09-.11-5.6v-13.04c0-5.24-.72-9.53-2.16-12.87-1.44-3.34-3.5-5.96-6.19-7.87-2.7-1.9-5.87-3.25-9.53-4.04-3.66-.79-7.69-1.18-12.07-1.18-3.59 0-6.99.23-10.18.7-3.2.47-6.09 1.06-8.67 1.78v14.44h1.08c1.72-.79 3.97-1.45 6.73-1.99 2.77-.54 5.69-.81 8.78-.81s5.65.27 7.7.81 3.57 1.6 4.58 3.18c1 1.58 1.51 3.84 1.51 6.79v.5c-.98-.19-1.98-.35-3.02-.5-2.01-.28-4.24-.43-6.68-.43-4.96 0-9.37.63-13.25 1.88-3.88 1.26-6.91 3.25-9.1 5.98-2.19 2.73-3.29 6.29-3.29 10.67 0 6.9 2.41 11.76 7.22 14.6s11.96 4.26 21.44 4.26c3.09 0 6.14-.2 9.16-.59 3.02-.4 5.92-.93 8.73-1.62 2.8-.68 5.46-1.49 7.97-2.42l.43-.86c-.36-1.29-.61-3.02-.75-5.17-.14-2.16-.25-4.34-.32-6.57zm-25.96 4.85c-3.38 0-5.98-.5-7.81-1.51-1.83-1-2.75-2.76-2.75-5.28s.92-4.31 2.75-5.39 4.65-1.61 8.46-1.61c1.65 0 3.37.14 5.17.43.58.09 1.11.19 1.62.29 0 2.14.02 3.94.05 5.37.04 1.47.13 2.73.27 3.77.13.94.33 1.83.57 2.68-.59.22-1.21.41-1.87.56-2.08.47-4.24.7-6.46.7zm86.83-47.94c-3.95-1-8.37-1.51-13.25-1.51s-9.84.63-14.22 1.88c-4.38 1.26-8.21 3.14-11.48 5.66-3.27 2.52-5.8 5.71-7.6 9.59-1.79 3.88-2.69 8.44-2.69 13.68 0 6.54 1.29 11.98 3.88 16.32 2.59 4.35 6.25 7.6 10.99 9.75 4.74 2.15 10.31 3.23 16.7 3.23 1.36 0 2.82-.07 4.36-.22 1.13-.1 2.36-.27 3.69-.49-.13 2.87-.87 5.15-2.24 6.84-1.51 1.87-3.61 3.19-6.3 3.99-2.7.79-5.83 1.18-9.43 1.18-2.22 0-4.67-.23-7.33-.7s-4.92-1.13-6.79-1.99h-1.51v14.98c2.01.93 4.65 1.62 7.92 2.05 3.27.43 6.34.65 9.21.65 7.04 0 13.22-1.08 18.53-3.23 5.31-2.16 9.46-5.46 12.44-9.91 2.98-4.45 4.47-10.16 4.47-17.13v-33.07c0-1.51.02-3.38.06-5.6.03-2.23.11-4.42.21-6.57s.3-3.88.59-5.17l-.43-.86c-2.59-1.22-5.86-2.33-9.81-3.34zm-14.76 44.82c-5.24 0-9.09-1.36-11.53-4.09-2.44-2.73-3.66-6.64-3.66-11.74 0-3.09.52-5.85 1.56-8.3 1.04-2.44 2.69-4.35 4.96-5.71 2.26-1.36 5.15-2.05 8.67-2.05 1.94 0 3.72.13 5.33.38.13.02.24.04.36.05-.08.46-.15.96-.21 1.51-.21 2.16-.32 4.52-.32 7.11v22.26c-.77.21-1.47.35-2.1.42-1.05.11-2.06.16-3.07.16zm85.98-44.82c-3.96-1-8.37-1.51-13.25-1.51s-9.84.63-14.22 1.88c-4.38 1.26-8.2 3.14-11.47 5.66-3.27 2.52-5.8 5.71-7.6 9.59-1.79 3.88-2.7 8.44-2.7 13.68 0 6.54 1.29 11.98 3.88 16.32 2.58 4.35 6.25 7.6 10.99 9.75 4.74 2.15 10.3 3.23 16.69 3.23 1.37 0 2.82-.07 4.37-.22 1.12-.1 2.36-.27 3.69-.49-.13 2.87-.88 5.15-2.24 6.84-1.51 1.87-3.61 3.19-6.3 3.99-2.69.79-5.83 1.18-9.42 1.18-2.23 0-4.67-.23-7.33-.7s-4.92-1.13-6.79-1.99h-1.51v14.98c2.01.93 4.65 1.62 7.92 2.05 3.27.43 6.34.65 9.21.65 7.04 0 13.22-1.08 18.53-3.23 5.32-2.16 9.46-5.46 12.45-9.91 2.98-4.45 4.47-10.16 4.47-17.13v-33.07c0-1.51.02-3.38.06-5.6.03-2.23.11-4.42.21-6.57.11-2.16.31-3.88.6-5.17l-.43-.86c-2.58-1.22-5.85-2.33-9.8-3.34zm-14.76 44.82c-5.24 0-9.09-1.36-11.52-4.09-2.44-2.73-3.66-6.64-3.66-11.74 0-3.09.52-5.85 1.56-8.3 1.04-2.44 2.7-4.35 4.96-5.71 2.26-1.36 5.15-2.05 8.67-2.05 1.94 0 3.72.13 5.33.38.13.02.24.04.37.05-.08.46-.15.96-.2 1.51-.21 2.16-.32 4.52-.32 7.11v22.26c-.77.21-1.48.35-2.1.42-1.04.11-2.06.16-3.07.16zm83.27-42.13c-4.24-2.8-9.69-4.2-16.37-4.2-6.18 0-11.53 1.22-16.05 3.66-4.52 2.44-8.01 5.98-10.45 10.61-2.44 4.63-3.66 10.18-3.66 16.65 0 5.53.84 10.27 2.53 14.22 1.68 3.95 4.09 7.13 7.22 9.53 3.12 2.41 6.89 4.18 11.31 5.33 4.42 1.15 9.24 1.72 14.49 1.72 4.1 0 7.64-.25 10.61-.75 2.98-.5 5.55-1.18 7.7-2.05v-14.76h-1.07c-1.51.86-3.65 1.62-6.41 2.26-2.77.65-5.8.97-9.1.97-3.66 0-6.86-.45-9.59-1.35-2.73-.9-4.87-2.41-6.41-4.52-1.02-1.4-1.7-3.19-2.04-5.33h38.73l.11-3.88c.36-6.18-.41-11.71-2.31-16.59-1.91-4.88-4.97-8.73-9.22-11.53zm-6.68 20.8h-20.71c.21-2.1.59-3.88 1.15-5.33.9-2.34 2.16-4 3.77-5.01 1.61-1 3.54-1.51 5.77-1.51 3.44 0 5.98.99 7.6 2.96 1.61 1.98 2.42 4.76 2.42 8.35v.54zM665.82 87c-1.83-.07-3.29-.11-4.37-.11-3.8 0-7.31.2-10.5.59-3.2.4-6.11.88-8.73 1.45-2.63.58-4.97 1.22-7.06 1.94l-.32.86c.29 1.29.52 3.04.7 5.22.18 2.19.29 4.42.33 6.68.03 2.26.05 4.11.05 5.55v37.92h18.96v-36.63c0-3.39-.23-6.05-.67-8.02.49-.12 1-.23 1.54-.33 2.08-.39 4.31-.59 6.68-.59 1.36 0 2.75.09 4.15.27s2.71.41 3.93.7h1.18V87.63c-2.08-.36-4.04-.57-5.87-.65z" class="f" id="a"/><g id="e"><circle cx="110.52" cy="110.52" r="110.52" class="f"/><circle cx="110.52" cy="110.52" r="94.83" fill="#0d2b3c" transform="rotate(-45 110.52 110.521)"/><path d="M17.52 91.92c-1.2 6.02-1.83 12.24-1.83 18.61 0 1.68.05 3.35.13 5.01 5.83.1 10.85-1.08 14.34-4.12 17.32-15.09 50.09-10.81 50.09-10.81s-10.06-17.37-62.73-8.68z" class="h"/><path d="M26.79 65.98C75.84 50.89 88.4 76.12 91.02 84.26c0 0 3-46.05-34.78-51.5-12.25 8.57-22.38 19.95-29.46 33.22z" class="l"/><path fill="#ef7b1a" d="M110.14 71.09s5.13-32.28 14.23-54.39c-4.52-.66-9.14-1.01-13.85-1.01-4.95 0-9.82.38-14.57 1.11 9.07 22.1 14.18 54.29 14.18 54.29z"/><path d="M164.68 32.67c-38.46 5.02-35.42 51.59-35.42 51.59 2.64-8.19 15.34-33.68 65.15-18-7.1-13.43-17.34-24.95-29.73-33.59z" class="l"/><path d="M203.55 92.05c-53.36-9-63.52 8.55-63.52 8.55s32.77-4.28 50.09 10.81c3.64 3.17 8.95 4.32 15.11 4.1.09-1.65.13-3.31.13-4.98 0-6.32-.62-12.5-1.81-18.48z" class="h"/><path fill="#fcc009" d="M110.52 205.36c2.64 0 5.25-.11 7.83-.32-6.26-10.86-6.61-27.39-6.61-37.61 0 0 6.27 27.9 13.92 36.73 25.54-4.1 47.67-18.39 62.09-38.58-2.65-2.52-8.45-5.97-16.36 1.2 0 0 3.48-13.76 19.12-7.33-2.89-7.66-10.53-12.99-19.35-12.32-9.37.72-16.95 8.43-17.55 17.8-.31 4.87 1.22 9.36 3.94 12.88-4.92.93-9.16 3.75-11.96 7.67-.74-4.54-4.66-8.01-9.41-8.01-2.15 0-4.12.72-5.72 1.92-2.11-1.73-4.41-4.43-6.7-7.86-6.03-9.05-8.65-22.83-9.64-30.72-.25-2-1.95-3.49-3.96-3.49s-3.71 1.49-3.96 3.49c-1 7.89-4.3 21.67-10.33 30.72-7.7 11.54-13.08 12.7-16.29 0h-.06c-2.7-9.54-11.46-16.55-21.87-16.55-9.72 0-17.98 6.11-21.23 14.69 3.31 4.14 6.96 8 10.9 11.53 11.85-10.24 21.87 3.67 21.87 3.67-8.52-3.91-14.35-2.85-18.19-.54 11.38 9.2 24.93 15.81 39.77 18.96 6.19-7.11 12.15-20.35 12.15-20.35 0 4.48-2.58 14.9-6.4 21.38 4.58.68 9.26 1.03 14.03 1.03z"/><path fill="#fefad8" d="M113.18 81.77c-.81-.9-1.93-1.35-3.04-1.35s-2.23.45-3.04 1.35c-21.48 23.79-26.75 55.73-20.57 59.97 6.46 4.44 14.53-14.93 23.21-15.13h.81c8.68.2 16.75 19.57 23.21 15.13 6.18-4.25.91-36.19-20.57-59.97zm-3.04 31.57c-3.52 0-6.37-2.85-6.37-6.37s2.85-6.37 6.37-6.37 6.37 2.85 6.37 6.37-2.85 6.37-6.37 6.37z"/><path fill="#fae1b6" d="M107.1 81.77c.81-.9 1.93-1.35 3.04-1.35v20.18c-3.52 0-6.37 2.85-6.37 6.37s2.85 6.37 6.37 6.37v13.27h-.4c-8.68.2-16.75 19.57-23.21 15.13-6.18-4.25-.91-36.19 20.57-59.97z"/></g></svg>