<?xml version="1.0" ?>
<svg xmlns="http://www.w3.org/2000/svg" role="img" viewBox="-9.59 -9.09 498.68 110.68">
	<path d="M 139.395,46.054 C 139.395,71.2128 119.0,91.608 93.8412,91.608 C 68.6825,91.608 48.2872,71.2128 48.2872,46.054 C 48.2872,20.8952 68.6825,0.5 93.8412,0.5 C 119.0,0.5 139.395,20.8952 139.395,46.054 M 0.0,91.608 C 12.0817,91.608 23.6685,86.8086 32.2115,78.2656 C 40.7546,69.7225 45.554,58.1357 45.554,46.054 C 45.554,33.9723 40.7546,22.3855 32.2116,13.8425 C 23.6685,5.29943 12.0817,0.5 1e-05,0.5 L 0.0,91.608 M 206.801,92.1583 C 187.816,92.1583 176.626,78.831 176.626,59.4687 C 176.626,40.1065 187.816,26.7792 206.549,26.7792 C 214.847,26.7792 221.511,30.2996 225.157,35.4545 L 225.157,0.62755 L 240.496,0.62755 L 240.496,91.1525 L 225.157,91.1525 L 225.157,83.2315 C 221.511,88.7636 214.47,92.1583 206.801,92.1583 M 209.064,78.831 C 219.374,78.831 226.163,71.1616 226.163,59.4687 C 226.163,47.7759 219.374,40.1065 209.064,40.1065 C 198.754,40.1065 191.965,47.7759 191.965,59.4687 C 191.965,71.1616 198.754,78.831 209.064,78.831 M 270.879,26.7792 C 286.973,26.7792 298.288,36.0831 298.288,50.4163 L 298.288,91.1525 L 283.075,91.1525 L 283.075,81.7228 C 280.435,88.0092 273.142,92.1583 264.09,92.1583 C 251.517,92.1583 242.967,84.1116 242.967,73.1732 C 242.967,60.8518 252.523,53.1823 266.73,53.1823 L 278.423,53.1823 C 281.566,53.1823 283.075,51.4221 283.075,48.9075 C 283.075,42.7468 278.297,38.3463 270.125,38.3463 C 261.952,38.3463 257.049,43.5012 256.798,49.159 L 242.967,49.159 C 243.722,36.5861 254.409,26.7792 270.879,26.7792 L 270.879,26.7792 M 267.736,80.717 C 277.417,80.717 283.075,73.9276 283.075,64.3722 L 283.075,63.3663 L 268.868,63.3663 C 262.33,63.3663 257.929,67.0125 257.929,72.5446 C 257.929,77.448 261.952,80.717 267.736,80.717 L 267.736,80.717"/>
	<path d="M 323.986,92.1583 C 308.647,92.1583 298.463,83.6087 297.709,70.03 L 311.79,70.03 C 312.419,76.065 317.071,79.8369 323.986,79.8369 C 330.021,79.8369 334.044,76.8194 334.044,73.0475 C 334.044,58.9658 299.343,72.4188 299.343,45.6386 C 299.343,34.5744 309.024,26.7792 322.1,26.7792 C 336.936,26.7792 347.12,34.9516 347.749,47.273 L 333.667,47.273 C 332.787,41.3638 327.381,38.3463 322.477,38.3463 C 316.945,38.3463 313.299,40.8608 313.299,45.1356 C 313.299,58.8401 348.503,43.7526 348.503,72.4188 C 348.503,84.3631 338.822,92.1583 323.986,92.1583 L 323.986,92.1583 M 350.124,91.1525 L 350.124,0.62755 L 365.463,0.62755 L 365.463,37.5919 C 368.983,30.6768 376.276,26.7792 385.328,26.7792 C 399.535,26.7792 408.839,37.089 408.839,51.925 L 408.839,91.1525 L 393.5,91.1525 L 393.5,55.194 C 393.5,46.5187 388.094,40.4837 380.173,40.4837 C 371.624,40.4837 365.463,47.273 365.463,56.577 L 365.463,91.1525 L 350.124,91.1525 L 350.124,91.1525 M 443.036,92.1583 C 421.159,92.1583 411.226,77.0708 411.226,50.1648 L 411.226,44.1298 C 411.226,17.2238 421.159,2.1363 443.036,2.1363 L 448.065,2.1363 C 469.942,2.1363 480.0,17.2238 480.0,44.1298 L 480.0,50.1648 C 480.0,77.0708 469.942,92.1583 448.065,92.1583 L 443.036,92.1583 M 443.79,77.6995 L 447.31,77.6995 C 457.243,77.6995 463.404,70.03 463.404,54.5653 L 463.404,39.7293 C 463.404,24.1389 457.243,16.4694 447.31,16.4694 L 443.79,16.4694 C 433.857,16.4694 427.822,24.1389 427.822,39.7293 L 427.822,54.5653 C 427.822,70.03 433.857,77.6995 443.79,77.6995"/>
</svg>