<svg xmlns="http://www.w3.org/2000/svg" viewBox="0 0 400 400"><path fill="#e26252" d="M158.5 31.9c-8.7-7.1-21.4-6.7-29.5 1.4-8.3 8.3-8.5 21.5-.8 30.2l.1.1.1.1c.2.2.4.5.6.7.2.2.5.4.8.6l133.4 133.4c1 1 2.2 1.5 3.8 1.5 1.5 0 2.8-.5 3.8-1.4l23.6-23.6c1-1 1.4-2.2 1.4-3.8 0-1.5-.5-2.8-1.5-3.8L159.5 32.5c-.3-.3-.7-.5-1-.6z"/><path fill="#e1b449" d="M184.1 134.7c0-.1 0-.1 0 0-8.6-8.6-22.6-8.6-31.2-.1-8.6 8.6-8.6 22.5 0 31.1h.1v.1l71.4 71.4c1 1 2.2 1.5 3.8 1.5 1.5 0 2.8-.5 3.8-1.4l23.6-23.6c1-1 1.4-2.2 1.4-3.7s-.5-2.8-1.5-3.8l-71.4-71.5z"/><path fill="#8faf59" d="M155.6 183.7c-8.6-8.6-22.5-8.6-31.1 0-8.6 8.6-8.6 22.5 0 31.1.1.1.1.2.1.2l61 61c1 1 2.2 1.5 3.8 1.5 1.5 0 2.8-.5 3.8-1.4l23.6-23.6c1-1 1.4-2.2 1.4-3.8 0-1.5-.5-2.8-1.5-3.8L155.9 184l-.3-.3z"/><path fill="#339e8a" d="M78.6 184.4c-8.6-7.7-21.8-7.5-30.1.8s-8.5 21.5-.8 30.1c.1.2.2.4.4.5l98.9 98.9c1 1 2.2 1.5 3.8 1.5 1.5 0 2.8-.5 3.8-1.4l23.6-23.6c1-1 1.4-2.2 1.4-3.7s-.5-2.8-1.5-3.8l-98.9-98.9c-.2-.2-.5-.3-.6-.4z"/><path fill="#385a6b" d="M305.8 135.3c0 .5.1 1 .2 1.6v-3.1c0 .5-.2 1-.2 1.5z"/><path fill="#37596b" d="M352.5 94.1c0-3.9-2.6-5.2-5.2-4.9-22.8 2.5-40.5 21.3-41.3 44.5v35c0 5.3-.3 9.8-5.4 14.9L278.2 206c-1.5 1.5-3 4.9-.8 7.4l12.7 12.1c11.8 11.8 17.5 25.7 17.1 41.8-.4 16.1-6.7 30.1-18.7 42.2-12.1 12.1-26.2 18.4-42.3 18.8-16.1.4-30-5.2-41.8-17 0 0-9.7-9.3-12.5-11.8-2.7-2.6-6.7-.3-7.7.6L162 322.3c-2.3 2.3-2.6 6-.7 7.8l13.6 13.6c8 8 16.9 14.4 26.9 19.4 9.9 4.9 20.2 8.2 30.8 9.6 10.6 1.5 21.2 1.4 31.7-.1 10.6-1.5 20.9-4.8 30.9-9.9 10-5.1 19.1-11.6 27.1-19.6 10-10 17.6-21.4 22.8-34.4 5.2-13 7.8-26 7.9-39.2-.1-2.1-.5-173-.5-175.4z"/></svg>