<svg xmlns="http://www.w3.org/2000/svg" viewBox="0 0 150 31"><path fill="#213D62" fill-rule="evenodd" d="M0 13.067L.7 9.02h4.047l-.7 4.047H0zm18.075-2.329L19.592 2h4.069l-3.807 21.638h-3.738l.302-1.597a5.744 5.744 0 01-2.065 1.462 6.543 6.543 0 01-2.547.497c-1.005 0-1.904-.186-2.697-.558a6.377 6.377 0 01-2.05-1.507 6.542 6.542 0 01-1.311-2.215 7.827 7.827 0 01-.452-2.652c0-.924.16-1.884.482-2.879a8.292 8.292 0 011.477-2.713c.663-.813 1.497-1.487 2.502-2.02 1.004-.531 2.19-.798 3.556-.798 1.146 0 2.11.186 2.894.558.783.372 1.406.88 1.868 1.522zm-1.235 6.857c.2-.532.301-1.07.301-1.613 0-.562-.09-1.074-.271-1.537a3.232 3.232 0 00-.754-1.16 3.409 3.409 0 00-1.13-.723 3.776 3.776 0 00-1.401-.257 3.92 3.92 0 00-1.658.347 4.044 4.044 0 00-1.296.934 4.428 4.428 0 00-.86 1.387 4.503 4.503 0 00-.316 1.672c-.02 1.066.291 1.95.935 2.653.642.704 1.516 1.055 2.622 1.055a3.81 3.81 0 001.703-.377 4.084 4.084 0 001.296-.98c.351-.401.628-.868.829-1.4zm19.743-6.857l.301-1.718h4.039L38.36 23.638h-3.798l.271-1.507a5.648 5.648 0 01-2.034 1.402 6.598 6.598 0 01-2.487.467c-1.005 0-1.904-.186-2.697-.558a6.377 6.377 0 01-2.05-1.507 6.544 6.544 0 01-1.311-2.215 7.83 7.83 0 01-.452-2.652c0-.924.16-1.884.482-2.879a8.292 8.292 0 011.477-2.713c.663-.813 1.497-1.487 2.502-2.02 1.004-.531 2.19-.798 3.556-.798 1.146 0 2.11.186 2.894.558.783.372 1.406.88 1.869 1.522zm-1.236 6.842c.2-.522.301-1.065.301-1.628 0-.562-.09-1.07-.271-1.522a3.26 3.26 0 00-.754-1.145 3.41 3.41 0 00-1.13-.723 3.776 3.776 0 00-1.401-.257 3.92 3.92 0 00-1.658.347 4.044 4.044 0 00-1.296.934 4.428 4.428 0 00-.86 1.387 4.503 4.503 0 00-.316 1.672c-.02 1.066.291 1.95.935 2.653.643.704 1.517 1.055 2.622 1.055a3.81 3.81 0 001.703-.377 3.987 3.987 0 001.296-.994c.351-.412.628-.88.829-1.402zm14.89-12.63l-.724 4.07h4.31l-.603 3.406h-4.34l-.965 5.486a3.842 3.842 0 00-.06.693c0 .764.276 1.266.83 1.507.552.24 1.31.362 2.275.362h.693c.18 0 .372-.01.573-.03l-.603 3.405a24.7 24.7 0 01-.844.106c-.282.03-.613.045-.995.045a11.47 11.47 0 01-2.064-.196 6.081 6.081 0 01-1.96-.708 4.065 4.065 0 01-1.446-1.417c-.372-.603-.558-1.376-.558-2.32 0-.242.015-.478.045-.709.03-.23.065-.477.106-.738l.964-5.486h-2.32l.572-3.406h2.351l.723-4.07h4.04zm16.908 5.788l.302-1.718h4.039l-2.562 14.618h-3.798l.271-1.507a5.647 5.647 0 01-2.034 1.402 6.598 6.598 0 01-2.487.467c-1.005 0-1.904-.186-2.697-.558a6.377 6.377 0 01-2.05-1.507 6.54 6.54 0 01-1.311-2.215 7.827 7.827 0 01-.452-2.652c0-.924.16-1.884.482-2.879a8.295 8.295 0 011.477-2.713c.663-.813 1.497-1.487 2.502-2.02 1.004-.531 2.19-.798 3.556-.798 1.146 0 2.11.186 2.894.558.784.372 1.406.88 1.868 1.522zM65.91 17.58c.2-.522.301-1.065.301-1.628 0-.562-.09-1.07-.271-1.522a3.258 3.258 0 00-.754-1.145 3.41 3.41 0 00-1.13-.723 3.776 3.776 0 00-1.401-.257 3.92 3.92 0 00-1.658.347 4.046 4.046 0 00-1.296.934 4.428 4.428 0 00-.86 1.387 4.5 4.5 0 00-.316 1.672c-.02 1.066.291 1.95.934 2.653.643.704 1.517 1.055 2.623 1.055a3.81 3.81 0 001.703-.377 3.987 3.987 0 001.296-.994c.351-.412.628-.88.829-1.402zM80.8 4.95l-.724 4.07h4.31l-.603 3.406h-4.34l-.965 5.486c-.02.12-.035.236-.045.346a3.72 3.72 0 00-.015.347c0 .764.276 1.266.829 1.507.553.24 1.311.362 2.276.362h.693c.18 0 .372-.01.573-.03l-.603 3.405c-.282.04-.563.076-.844.106-.282.03-.613.045-.995.045a11.47 11.47 0 01-2.064-.196 6.081 6.081 0 01-1.96-.708 4.063 4.063 0 01-1.446-1.417c-.372-.603-.558-1.376-.558-2.32 0-.242.015-.478.045-.709.03-.23.065-.477.106-.738l.964-5.486h-2.32l.572-3.406h2.35l.725-4.07h4.038zm13.985 3.89c.622 0 1.215.11 1.778.33l-.633 3.527c-.342-.04-.643-.07-.904-.09a9.632 9.632 0 00-.724-.03c-1.065 0-1.954.286-2.667.859-.714.572-1.181 1.492-1.402 2.757l-1.296 7.445h-4.069L87.43 9.02h3.738l-.272 1.477c1.065-1.105 2.361-1.658 3.889-1.658zm14.316 1.898l.302-1.718h4.039l-2.563 14.618h-3.797l.271-1.507a5.65 5.65 0 01-2.034 1.402 6.599 6.599 0 01-2.487.467c-1.005 0-1.904-.186-2.698-.558a6.378 6.378 0 01-2.05-1.507 6.54 6.54 0 01-1.31-2.215 7.823 7.823 0 01-.452-2.652c0-.924.16-1.884.482-2.879a8.292 8.292 0 011.477-2.713c.663-.813 1.496-1.487 2.501-2.02 1.005-.531 2.19-.798 3.557-.798 1.145 0 2.11.186 2.894.558.783.372 1.406.88 1.868 1.522zm-1.235 6.842c.2-.522.301-1.065.301-1.628 0-.562-.09-1.07-.271-1.522a3.26 3.26 0 00-.754-1.145 3.412 3.412 0 00-1.13-.723 3.781 3.781 0 00-1.402-.257c-.602 0-1.155.116-1.658.347a4.044 4.044 0 00-1.296.934 4.428 4.428 0 00-.859 1.387 4.5 4.5 0 00-.316 1.672c-.02 1.066.291 1.95.934 2.653.643.704 1.517 1.055 2.623 1.055a3.81 3.81 0 001.703-.377 3.985 3.985 0 001.296-.994c.35-.412.627-.88.829-1.402zm20.27-7.535c.453.442.8.97 1.04 1.582.242.613.362 1.291.362 2.035 0 .462-.06 1.024-.18 1.687l-1.447 8.29h-4.04l1.388-8.018.105-.588c.03-.17.045-.336.045-.497 0-.764-.231-1.346-.693-1.748-.463-.402-1.075-.603-1.839-.603s-1.431.221-2.004.663c-.573.442-.94 1.105-1.1 1.99l-1.507 8.8h-4.07L116.76 9.02h3.707l-.211 1.296a6.137 6.137 0 011.824-1.206c.693-.301 1.481-.452 2.366-.452.763 0 1.456.12 2.08.362a4.71 4.71 0 011.612 1.025zm8.953 2.17c-.272.18-.407.442-.407.784 0 .281.105.512.316.693.211.18.537.382.98.603l1.326.572c1.205.523 2.14 1.11 2.803 1.763.663.654.995 1.492.995 2.517a4.53 4.53 0 01-.377 1.809 4.62 4.62 0 01-1.1 1.552c-.483.452-1.085.814-1.809 1.085-.723.271-1.567.407-2.532.407-1.446 0-2.723-.307-3.828-.92-1.105-.612-1.959-1.42-2.562-2.426l2.532-2.23a10.31 10.31 0 001.703 1.628c.593.442 1.321.663 2.186.663.502 0 .944-.1 1.326-.302.381-.2.572-.502.572-.904 0-.341-.12-.603-.361-.784a6.957 6.957 0 00-1.025-.603l-1.387-.572a11.269 11.269 0 01-1.522-.784 5.47 5.47 0 01-1.16-.95 3.788 3.788 0 01-.739-1.175c-.17-.432-.256-.93-.256-1.492 0-.703.14-1.336.422-1.899a4.152 4.152 0 011.146-1.416 5.143 5.143 0 011.718-.874 7.352 7.352 0 012.14-.302c1.225 0 2.3.221 3.225.663a6.151 6.151 0 012.32 1.93l-2.41 2.26c-.443-.522-.935-.914-1.478-1.176a3.79 3.79 0 00-1.657-.391c-.463 0-.83.09-1.1.27zm8.447 7.376h4.047l-.7 4.047h-4.047l.7-4.047z"/></svg>