<svg xmlns="http://www.w3.org/2000/svg" fill="none" viewBox="0 0 280 280"><path fill="#4A76F6" d="M35.202 279.569a6.831 6.831 0 0 1-2.268-.359 7.557 7.557 0 0 1-3.601-2.729A7.806 7.806 0 0 1 28 272.137a7.486 7.486 0 0 1 1.44-4.487l51.636-70.403-46.558-49.975a7.563 7.563 0 0 1-2.017-5.134V7.508c.001-1.482.44-2.93 1.26-4.165A7.52 7.52 0 0 1 37.039.614 6.75 6.75 0 0 1 39.811.04a6.536 6.536 0 0 1 1.44 0 7.387 7.387 0 0 1 3.601 2.046l63.483 64.91 26.106-62.433a7.19 7.19 0 0 1 2.664-3.267A7.22 7.22 0 0 1 141.174.04a6.963 6.963 0 0 1 4.105 1.292 7.438 7.438 0 0 1 2.665 3.375l25.494 64.623 20.092-20.536a7.425 7.425 0 0 1 3.601-2.046c.48-.034.961-.034 1.44 0 .965.01 1.918.205 2.809.574l31.867 13.966a7.199 7.199 0 0 1 2.485 1.795 7.172 7.172 0 0 1 1.548 2.692l13.611 41.79a7.974 7.974 0 0 1 .325 3.59 7.999 7.999 0 0 1-1.297 3.267 7.197 7.197 0 0 1-2.592 2.262 7.22 7.22 0 0 1-3.349.826l-1.656-.18-36.441-7.467v60.565a7.167 7.167 0 0 1-.576 2.837 7.195 7.195 0 0 1-1.584 2.441l-68.056 69.613a7.207 7.207 0 0 1-2.881 1.795l-95.35 32.527a7.213 7.213 0 0 1-2.304.359l.072-.431Zm20.02-22.079 62.295-21.218-26.286-28.039-36.008 49.257Zm-1.764-111.618 71.477 76.685 9.074-100.524-80.55 23.839Zm86.42 73.849 48.575-49.723-40.401-41.323-8.174 91.046Zm12.495-107.704 39.105 39.994V72.022l-39.105 39.995ZM47.229 132.265l80.658-24.018-80.838-82.573.18 106.591Zm72.52-53.637 22.29 22.834 20.308-20.716-21.245-53.672-21.353 51.554Zm86.42 15.69 27.151 5.564-8.859-26.531-18.508-8.186.216 29.152Z"/></svg>