<svg xmlns="http://www.w3.org/2000/svg" viewBox="0 0 144 177"><path fill="#F43F45" d="M0 76.936V53.064c0-5.335 4.462-9.67 9.751-9.67H54.21c23.634 0 42.805 19.841 42.805 43.685 0 24.01-19.171 42.685-42.805 42.685H18.18v26.635h35.3c27.994 0 54.728-20.115 65.325-45.382v.375h22.926C131.423 149.385 95.983 177 53.48 177H13.95C6.41 177 .455 171.455.025 164.423L0 164.42v-53.028h18.18V76.936H0zm144 0h-21.66c-6.475-30.148-37.136-56.335-68.86-56.335H0v-7.206C0 5.98 5.873 0 13.705 0h39.774C99.88 0 138.193 33.229 144 76.936zm-89.79 34.487c13.717 0 24.625-10.672 24.625-24.344 0-13.84-11.238-25.344-24.625-25.344H18.18v49.688h36.03z"/></svg>