<?xml version="1.0" ?>
<svg xmlns:xlink="http://www.w3.org/1999/xlink" xmlns="http://www.w3.org/2000/svg" version="1.2" baseProfile="tiny-ps" data-name="Capa 1" viewBox="0 0 170.21 169.41">
	<defs>
		<radialGradient id="gradient_46" cx="84.25" cy="84.26" r="84.26" gradientUnits="userSpaceOnUse">
			<stop offset="0" stop-color="#07a7c9"/>
			<stop offset="1" stop-color="#00698c"/>
		</radialGradient>
		<linearGradient id="gradient_2" x1="97.66" y1="33.09" x2="34.17" y2="70.3" gradientTransform="matrix(1, -0.06, 0.06, 1, -3.72, 0.25)" gradientUnits="userSpaceOnUse">
			<stop offset="0.02" stop-color="#697d27"/>
			<stop offset="0.5" stop-color="#729129"/>
			<stop offset="0.84" stop-color="#7bac28"/>
			<stop offset="0.94" stop-color="#7cae28"/>
		</linearGradient>
		<linearGradient id="gradient_191" x1="95.15" y1="103.35" x2="111.69" y2="103.35" gradientTransform="translate(5.54 -5.32) rotate(3.45)" gradientUnits="userSpaceOnUse">
			<stop offset="0.01" stop-color="#7ba52a"/>
			<stop offset="0.99" stop-color="#6d8428"/>
		</linearGradient>
		<linearGradient id="gradient_252" x1="130.15" y1="14.22" x2="130.15" y2="14.22" gradientTransform="translate(5.54 -5.32) rotate(3.45)" gradientUnits="userSpaceOnUse">
			<stop offset="0.2" stop-color="#697d27"/>
			<stop offset="0.39" stop-color="#6b8127"/>
			<stop offset="0.58" stop-color="#718e28"/>
			<stop offset="0.79" stop-color="#7aa42a"/>
			<stop offset="0.91" stop-color="#81b42b"/>
		</linearGradient>
		<linearGradient id="gradient_252-2" x1="167.2" y1="97.73" x2="117.71" y2="89.55" xlink:href="#gradient_252"/>
	</defs>
	<polygon points="170.21 169.41 1.7 168.84 1.7 0.34 170.21 0.9 170.21 169.41" fill="#fff"/>
	<path d="M168.35,89.32A84.23,84.23,0,0,1,27.11,146.15c-1.06-1-2.09-2-3.1-3-.23-.22-.44-.45-.67-.68-.45-.48-.9-1-1.34-1.45h0l-.21-.23h0l-.86-1-.86-1c-.26-.3-.52-.62-.77-.92s-.65-.81-1-1.21-.53-.66-.79-1q-1.69-2.17-3.22-4.48c-.61-.9-1.2-1.82-1.78-2.75-.45-.71-.87-1.43-1.29-2.16l-.7-1.26c-.3-.52-.59-1.06-.87-1.6-.53-1-1.05-2-1.54-3.07-.29-.6-.57-1.2-.84-1.82h0c-.34-.75-.66-1.5-1-2.26s-.61-1.52-.9-2.29-.53-1.43-.78-2.15c0-.11-.07-.2-.1-.3-.25-.74-.5-1.48-.73-2.23q-.74-2.37-1.34-4.8c-.2-.8-.39-1.61-.56-2.42s-.34-1.65-.49-2.47S1.11,98,1,97.22a1.22,1.22,0,0,1,0-.17C.85,96.3.74,95.56.65,94.81a1.92,1.92,0,0,1,0-.22C.52,93.81.44,93,.37,92.24c0-.1,0-.19,0-.28-.08-.8-.13-1.61-.18-2.41,0-.63-.08-1.24-.09-1.86,0-.45,0-.89,0-1.35s0-1.15,0-1.73a1.71,1.71,0,0,1,0-.32c0-.65,0-1.31,0-2,0-1,.07-2.08.13-3.12a87,87,0,0,1,1.3-10.56c.12-.63.24-1.24.37-1.85a81.89,81.89,0,0,1,2.65-9.66c.2-.63.43-1.26.66-1.88.14-.4.29-.78.43-1.16.57-1.48,1.18-3,1.83-4.38.18-.44.39-.87.6-1.3q.94-2,2-4c.31-.58.63-1.16,1-1.73l.81-1.41c.38-.66.79-1.31,1.2-2,.31-.49.63-1,.95-1.47s.81-1.2,1.23-1.8.75-1.06,1.14-1.59.78-1,1.18-1.56.8-1,1.21-1.53.78-1,1.19-1.44.88-1,1.34-1.55.87-1,1.31-1.44.88-.95,1.34-1.41.91-.93,1.38-1.38.92-.91,1.4-1.35l1.44-1.32c.48-.43,1-.86,1.47-1.28s1-.83,1.49-1.24l1.52-1.21s0,0,0,0l1.55-1.17c1-.77,2.11-1.53,3.18-2.25L39,13.21l1.65-1,1.53-.91a1.65,1.65,0,0,1,.26-.14L44,10.22C45.16,9.6,46.32,9,47.49,8.43c.59-.29,1.19-.56,1.79-.84C50.46,7,51.67,6.53,52.9,6c.6-.25,1.22-.48,1.83-.71,1.86-.69,3.73-1.33,5.63-1.89.65-.19,1.28-.37,1.92-.54s1.28-.34,1.93-.5l2-.45,2-.4c.57-.12,1.14-.22,1.7-.31l.15,0a2.5,2.5,0,0,1,.38-.06C70.94,1,71.52,1,72.11.87l2-.26a.58.58,0,0,1,.19,0L75.64.43l.93-.08c.42,0,.85-.08,1.27-.1l.58,0h.19c.55,0,1.07-.07,1.61-.09s1.1,0,1.64-.06c.3,0,.59,0,.89,0h2.7c1.28,0,2.57.06,3.86.14A84.25,84.25,0,0,1,168.35,89.32Z" fill="url(#gradient_46)"/>
	<path d="M168.35,89.32a84.3,84.3,0,0,1-67.69,77.6c-1.64-4.69,6.56-11.59,1.86-24.22-2-5.35,7-12.94,7-12.94-7.9-1.31-7.68-7.71-7-10.31,1.23-5-.62-8.62-4.8-10.29-2.36-.94-5.66-3.07-6-6.12a16.11,16.11,0,0,1,2.78-11.56c4.18-5.88,14.62-11.58,18.87-21.61,3.88-9.15,3.29-20.44,3.94-28.76C118.5,25,128.44,13.23,128.87,12.77,152.5,25.92,170.12,59.9,168.35,89.32Z" fill="#7cae28"/>
	<path d="M75.42,93.14c-5.56,1.21-11.11.15-12.58.22s-3.6,3.44-3.18,8.15-1.48,9.79-9.61,9c0,0,2.53,2.74,1.65,5.86s-4.79,3.33-8.52,5.43-5.29,5.86-3.35,12.72c1.33,4.66-4.15,18.15-8.08,15.57a49.71,49.71,0,0,1-7.74-7c-.23-.22-.44-.45-.67-.68-.45-.48-.9-1-1.34-1.45h0l-.21-.23h0l-.86-1-.86-1c-.26-.3-.52-.62-.77-.92s-.65-.81-1-1.21-.53-.66-.79-1q-1.69-2.17-3.22-4.48c-.61-.9-1.2-1.82-1.78-2.75-.45-.71-.87-1.43-1.29-2.16l-.7-1.26c-.3-.52-.59-1.06-.87-1.6-.53-1-1.05-2-1.54-3.07-.29-.6-.57-1.2-.84-1.82h0c-.34-.75-.66-1.5-1-2.26s-.61-1.52-.9-2.29-.53-1.43-.78-2.15c0-.11-.07-.2-.1-.3-.25-.74-.5-1.48-.73-2.23q-.74-2.37-1.34-4.8c-.2-.8-.39-1.61-.56-2.42s-.34-1.65-.49-2.47S1.11,98,1,97.22a1.22,1.22,0,0,1,0-.17C.85,96.3.74,95.56.65,94.81a1.92,1.92,0,0,1,0-.22C.52,93.81.44,93,.37,92.24c0-.1,0-.19,0-.28-.08-.8-.13-1.61-.18-2.41,0-.63-.08-1.24-.09-1.86,0-.45,0-.89,0-1.35s0-1.15,0-1.73a1.71,1.71,0,0,1,0-.32c0-.65,0-1.31,0-2,0-1,.07-2.08.13-3.12a87,87,0,0,1,1.3-10.56c.12-.63.24-1.24.37-1.85a81.89,81.89,0,0,1,2.65-9.66c.2-.63.43-1.26.66-1.88.14-.4.29-.78.43-1.16.57-1.48,1.18-3,1.83-4.38.18-.44.39-.87.6-1.3q.94-2,2-4c.31-.58.63-1.16,1-1.73l.81-1.41c.38-.66.79-1.31,1.2-2,.31-.49.63-1,.95-1.47s.81-1.2,1.23-1.8.75-1.06,1.14-1.59.78-1,1.18-1.56.8-1,1.21-1.53.78-1,1.19-1.44.88-1,1.34-1.55.87-1,1.31-1.44.88-.95,1.34-1.41.91-.93,1.38-1.38.92-.91,1.4-1.35l1.44-1.32c.48-.43,1-.86,1.47-1.28s1-.83,1.49-1.24l1.52-1.21s0,0,0,0l1.55-1.17c1-.77,2.11-1.53,3.18-2.25L39,13.21l1.65-1,1.53-.91a1.65,1.65,0,0,1,.26-.14L44,10.22C45.16,9.6,46.32,9,47.49,8.43c.59-.29,1.19-.56,1.79-.84C50.46,7,51.67,6.53,52.9,6c.6-.25,1.22-.48,1.83-.71,1.86-.69,3.73-1.33,5.63-1.89.65-.19,1.28-.37,1.92-.54s1.28-.34,1.93-.5l2-.45,2-.4c.57-.12,1.14-.22,1.7-.31l.15,0q.13.83.27,1.83l-.34,0C65,7,62.13,12.92,60.35,18.93S57.7,31.21,55.72,37.15A52.13,52.13,0,0,1,44.23,56.42c-1.91,2-4.13,4.29-3.93,7.07a7.39,7.39,0,0,0,1.78,3.89c3.12,4,7.74,6.41,12.41,8.27s9.57,3.23,14,5.55a20,20,0,0,0,5.3,2.32c1.9.38,4.14-.12,5.19-1.74l.08,0c.31.77.59,1.44.87,2.09C81.05,86.3,81,91.94,75.42,93.14Z" fill="#81b42b"/>
	<path d="M 78.995454,81.642182 79.06,81.78 c -1.06,1.62 -3.37,2.11 -5.27,1.74 -1.870023,-0.520538 -3.736094,-1.31183 -5.3,-2.32 -4.47,-2.32 -9.300283,-3.646818 -13.950283,-5.496818 -4.65,-1.85 -9.752976,-4.507106 -12.523411,-8.383551 C 40.963156,66.362518 40.390172,64.695214 40.3,63.49 c -0.390836,-2.583773 2.03,-5.09 3.96,-7.11 5.182204,-5.515781 9.10581,-12.09038 11.5,-19.27 2,-5.95 2.9,-12.19 4.63,-18.22 1.825413,-6.49993 5.046994,-12.5233317 9.44,-17.65 9,14.45 4,32.35 0.9,47.06 -0.67,3.14 -1.77,4.59 -0.48,7 1.29,2.41 3.2,9 5.43,16.21 1.65,5.32 2.485454,8.032182 3.315454,10.132182 z" fill="url(#gradient_2)"/>
	<path d="M78.88,91.29a6.5,6.5,0,0,1-3.45,1.85c-5.56,1.21-11.12.15-12.58.22-1,0-1.1,7.4-4.3,14-1.4,2.92-5.67,3.41-8.5,3.15,0,0,2.53,2.74,1.65,5.86s-4.79,3.33-8.52,5.43-4.58,5.7-3.35,12.72c.33,1.87.35,4.86-.58,6.5l-.46-1c-2.13-2.57-5.06-4.37-7.18-6.95-2.79-3.4-3.94-7.87-4.35-12.25a19.16,19.16,0,0,1,.67-8.15c.81-2.3,2.31-4.31,3.32-6.55s1.51-4.58,3-6.43a15,15,0,0,1,3.38-2.87c3.51-2.44,7.11-4.92,11.22-6.07,1.89-.53,3.86-.77,5.74-1.33,1.32-.4,2.6-.95,3.92-1.37C65.26,86,72.66,87.92,78.88,91.29Z" fill="#779d2b"/>
	<path d="M45.45,109.09a27.17,27.17,0,0,1,6.34,5,8.54,8.54,0,0,0-.58-1.72,8.29,8.29,0,0,0-1.05-1.65,6.91,6.91,0,0,1,1.72,0c.38,0,.8,0,.8,0,.45-.56-2-2.18-6.75-3.74C41.79,105.49,42.24,107.55,45.45,109.09Z" fill="#729129"/>
	<path d="M46.26,36.67c5.85-5.77,7.87-2.62,3.2,2.72-3.9,4.47-10.57,11.9-13.38,20.55-3.41,10.52-4.21,11.33-7.65,10.16S28.34,54.38,46.26,36.67Z" fill="#b2cb6f"/>
	<path d="M117.8,94.08c-5.56,2.68-5.14-1.62-1.69-4.16,7-5.13,5.15-20.27,6.69-15S123.35,91.4,117.8,94.08Z" fill="#d5dfbf"/>
	<path d="M125.46,58.81c.32,1.45.94,2.69,1.29,4.12s.44,3.06,1.13,4.18c.1.16.22.32.37.35.38.09.63-.6.75-1.15l.91-4.21a13.7,13.7,0,0,0,.4-2.79,10.27,10.27,0,0,0-.37-2.55c-.44-1.71-1.74-6.21-3.4-6.06S125.13,57.31,125.46,58.81Z" fill="#a8c85f"/>
	<path d="M96.08,102.44c-2.65,1.57-2.31,2.65.46,2.88s5.95.93,5.48.33-.34-.59,2.41,0,5.71.66,6.35-.51a22.87,22.87,0,0,1-5.11-1.25C102.7,102.84,98.5,101,96.08,102.44Z" fill="url(#gradient_191)"/>
	<path d="M134.61,16.7" fill="url(#gradient_252)"/>
	<path d="M168.35,89.32a84.29,84.29,0,0,1-64.69,76.94c29.86-7.86,33.14-51,36.24-90.29,2.75-34.83-5.29-59.27-5.29-59.27A84.17,84.17,0,0,1,168.35,89.32Z" fill="url(#gradient_252-2)"/>
	<path d="M104.74,126.39a40.58,40.58,0,0,1,4.44,1.38c4.32,1.55,15.14.62,14.71.19,0,0-1.42,4.27-11.18,3-5.51-.69-7.73,3-7.73,3s1.37-2.78,3.28-3.57C108.26,130.43,105.36,128.46,104.74,126.39Z" fill="#729129"/>
</svg>