<?xml version="1.0" ?>
<svg xmlns="http://www.w3.org/2000/svg" viewBox="0 0 421 89" fill="none">
	<path d="M0 51.7102V89H13.7957C24.2242 89 32.6927 80.6253 32.6927 70.3427C32.6927 60.0601 24.2242 51.7102 13.7957 51.7102H0Z" fill="#6FE5F5"/>
	<path d="M51.6147 59.5649C51.6147 72.7465 42.7693 83.9458 30.6321 87.6872C35.2558 83.3016 38.1456 77.1568 38.1456 70.3431C38.1456 57.112 27.2146 46.3339 13.7957 46.3339H0V30.1543H21.7616C38.221 30.1543 51.6147 43.3358 51.6147 59.5649Z" fill="#00A9F4"/>
	<path d="M78 44.5991C78 52.0323 76.1405 59.069 72.8235 65.2386C69.1546 72.1762 63.6765 78.0484 56.9923 82.2358C52.3686 85.1347 47.192 87.2408 41.6385 88.331C42.5683 87.6868 43.4729 87.0178 44.3273 86.3241C52.1173 79.9315 57.0677 70.3179 57.0677 59.5646C57.0677 40.387 41.2365 24.7773 21.7616 24.7773H0V8.57294H0.0753866V0H32.768C57.721 0 78 20.02 78 44.5991Z" fill="#2A61F1"/>
	<path d="M338.63 81.4736V76.421H343.548C346.715 76.421 347.253 75.6126 348.466 72.3789L350.083 68.1348L336.812 33.6426H342.74L353.182 61.0612L363.489 33.6426H369.35L353.519 73.861C351.363 79.3852 350.083 81.4736 345.232 81.4736H338.63Z" fill="black"/>
	<path d="M315.213 81.8777C306.455 81.8777 300.325 77.7683 299.449 70.2231H305.108C306.051 74.5346 309.891 76.9598 315.617 76.9598C322.825 76.9598 326.733 73.5915 326.733 66.1137V62.4758C324.442 65.6421 320.737 68.4042 314.943 68.4042C305.445 68.4042 298.438 62.0042 298.438 50.8212C298.438 40.3119 305.445 33.2383 314.943 33.2383C320.737 33.2383 324.644 35.5961 326.733 38.8972L327.474 33.6425H332.257V66.3158C332.257 76.2188 327.002 81.8777 315.213 81.8777ZM315.482 63.4863C322.219 63.4863 326.8 58.299 326.8 50.956C326.8 43.4108 322.219 38.1561 315.482 38.1561C308.678 38.1561 304.097 43.3434 304.097 50.8212C304.097 58.299 308.678 63.4863 315.482 63.4863Z" fill="black"/>
	<path d="M276.272 68.4042C266.235 68.4042 259.228 61.2632 259.228 50.8212C259.228 40.3792 266.235 33.2383 276.272 33.2383C286.31 33.2383 293.316 40.3792 293.316 50.8212C293.316 61.2632 286.31 68.4042 276.272 68.4042ZM276.272 63.4863C283.076 63.4863 287.657 58.1643 287.657 50.8212C287.657 43.4782 283.076 38.1561 276.272 38.1561C269.468 38.1561 264.887 43.4782 264.887 50.8212C264.887 58.1643 269.468 63.4863 276.272 63.4863Z" fill="black"/>
	<path d="M247.092 68.0001V20.8428H252.616V68.0001H247.092Z" fill="black"/>
	<path d="M223.444 68.4042C213.406 68.4042 206.4 61.2632 206.4 50.8212C206.4 40.3792 213.406 33.2383 223.444 33.2383C233.482 33.2383 240.488 40.3792 240.488 50.8212C240.488 61.2632 233.482 68.4042 223.444 68.4042ZM223.444 63.4863C230.248 63.4863 234.829 58.1643 234.829 50.8212C234.829 43.4782 230.248 38.1561 223.444 38.1561C216.64 38.1561 212.059 43.4782 212.059 50.8212C212.059 58.1643 216.64 63.4863 223.444 63.4863Z" fill="black"/>
	<path d="M197.098 68.0001C190.496 68.0001 188.138 65.1033 188.138 59.0402V38.6952H181.94V33.6426H188.138V24.009H193.662V33.6426H203.094V38.6952H193.662V58.9728C193.662 61.8696 194.673 62.9475 197.637 62.9475H203.094V68.0001H197.098Z" fill="black"/>
	<path d="M161.038 68.4042C153.493 68.4042 148.373 64.6316 148.373 58.3664C148.373 51.4949 153.156 47.6549 162.183 47.6549H172.288V45.2971C172.288 40.6487 169.122 38.1561 163.733 38.1561C158.68 38.1561 155.649 40.4466 154.975 43.9497H149.451C150.259 37.213 155.716 33.2383 164.002 33.2383C172.76 33.2383 177.812 37.6172 177.812 45.6339V60.6569C177.812 62.4758 178.486 62.9474 180.036 62.9474H181.787V68H178.756C174.377 68 172.558 65.9789 172.558 62.8127V62.6779C170.537 65.7768 166.966 68.4042 161.038 68.4042ZM161.442 63.6884C168.314 63.6884 172.288 59.7137 172.288 53.9875V52.3033H161.644C156.726 52.3033 153.964 54.1222 153.964 58.0296C153.964 61.6674 156.861 63.6884 161.442 63.6884Z" fill="black"/>
	<path d="M124.551 68.4043C115.052 68.4043 108.046 62.0044 108.046 50.8214C108.046 40.312 115.052 33.2384 124.551 33.2384C130.345 33.2384 134.252 35.5963 136.34 38.8973V20.8428H141.864V68.0001H137.081L136.34 62.4759C134.05 65.6422 130.345 68.4043 124.551 68.4043ZM125.09 63.4865C131.827 63.4865 136.408 58.2992 136.408 50.9561C136.408 43.4109 131.827 38.1562 125.09 38.1562C118.286 38.1562 113.705 43.3435 113.705 50.8214C113.705 58.2992 118.286 63.4865 125.09 63.4865Z" fill="black"/>
	<path d="M416.04 68.0001V33.8447H419.476V68.0001H416.04ZM417.724 26.569C416.444 26.569 415.366 25.5585 415.366 24.2111C415.366 22.7964 416.444 21.7859 417.724 21.7859C419.072 21.7859 420.15 22.7964 420.15 24.2111C420.15 25.5585 419.072 26.569 417.724 26.569Z" fill="black"/>
	<path d="M390.494 68.4042C383.218 68.4042 378.435 64.699 378.435 58.6359C378.435 52.236 383.151 48.4634 391.909 48.4634H403.496V45.4992C403.496 39.773 399.858 36.472 393.458 36.472C387.597 36.472 384.027 39.234 383.151 43.4108H379.715C380.591 37.213 385.778 33.4404 393.593 33.4404C402.149 33.4404 406.932 37.8193 406.932 45.634V61.5327C406.932 64.16 407.942 64.8337 409.963 64.8337H411.243V68H409.222C405.45 68 403.631 66.3832 403.631 62.8127V60.7917C401.812 65.1032 397.5 68.4042 390.494 68.4042ZM390.764 65.44C398.848 65.44 403.496 60.7243 403.496 54.1223V51.4276H391.639C385.307 51.4276 381.938 53.9202 381.938 58.4338C381.938 62.8127 385.307 65.44 390.764 65.44Z" fill="black"/>
</svg>