<?xml version="1.0" ?>
<svg xmlns="http://www.w3.org/2000/svg" viewBox="0 0 32 32">
	<g fill="none" fill-rule="evenodd">
		<circle cx="16" cy="16" fill="#2d9cdb" r="16"/>
		<path d="M 20.054,5.606 C 20.446,5.606 20.762,5.726 21.001,5.965 C 21.24,6.204 21.359,6.519 21.359,6.912 L 21.359,18.586 C 21.359,19.916 21.044,21.129 20.412,22.221 A 6.882,6.882 0.0 0,1 17.878,24.781 C 16.82,25.395 15.634,25.702 14.319,25.702 C 13.005,25.702 11.802,25.395 10.709,24.781 A 6.882,6.882 0.0 0,1 8.175,22.221 C 7.561,21.129 7.254,19.917 7.254,18.586 C 7.254,17.255 7.535,16.051 8.099,14.976 C 8.679,13.884 9.464,13.03 10.454,12.416 C 11.461,11.802 12.579,11.494 13.807,11.494 A 6.306,6.306 0.0 0,1 18.748,13.824 L 18.748,6.912 C 18.748,6.519 18.868,6.204 19.107,5.965 A 1.33,1.33 0.0 0,1 20.054,5.606 M 14.319,23.398 C 15.173,23.398 15.941,23.194 16.623,22.784 A 4.468,4.468 0.0 0,0 18.262,21.044 C 18.654,20.309 18.851,19.49 18.851,18.586 C 18.851,17.682 18.654,16.87 18.261,16.154 A 4.287,4.287 0.0 0,0 16.623,14.438 C 15.941,14.012 15.173,13.798 14.319,13.798 C 13.466,13.798 12.689,14.012 11.989,14.438 A 4.528,4.528 0.0 0,0 10.351,16.154 C 9.959,16.87 9.763,17.681 9.763,18.586 C 9.763,19.491 9.959,20.309 10.351,21.043 A 4.73,4.73 0.0 0,0 11.99,22.784 C 12.69,23.194 13.466,23.398 14.32,23.398 L 14.319,23.398" fill="#fff" fill-rule="nonzero"/>
	</g>
</svg>