<?xml version="1.0" ?>
<svg xmlns="http://www.w3.org/2000/svg" viewBox="0 0 108 48" fill="none">
	<g clip-path="url(#clip0_4_56)">
		<path d="M95.1005 0L91.5605 7.7H99.1105V39.57H107.251V0H95.1005Z" fill="#121A33"/>
		<path d="M53.7391 30.46C52.9411 31.3128 51.9716 31.9872 50.8945 32.4387C49.8173 32.8903 48.6568 33.1088 47.4891 33.08C46.3342 33.1003 45.1884 32.8724 44.1292 32.4118C43.0699 31.9512 42.1219 31.2685 41.3491 30.41C39.6602 28.5612 38.7658 26.1224 38.8591 23.62C38.7696 21.1554 39.6491 18.7538 41.3091 16.93C42.088 16.0798 43.0397 15.4061 44.1005 14.9542C45.1612 14.5023 46.3064 14.2826 47.4591 14.31C48.6282 14.2762 49.7914 14.4885 50.8732 14.9329C51.955 15.3774 52.9314 16.0441 53.7391 16.89C54.577 17.7921 55.2276 18.8514 55.6532 20.0066C56.0789 21.1618 56.2713 22.39 56.2191 23.62C56.3288 26.1471 55.4377 28.6156 53.7391 30.49V30.46ZM22.8491 30.49C22.0526 31.3346 21.087 32.0018 20.0152 32.448C18.9435 32.8943 17.7897 33.1096 16.6291 33.08C15.4743 33.0996 14.3287 32.8715 13.2696 32.4109C12.2104 31.9503 11.2623 31.268 10.4891 30.41C8.80015 28.5612 7.90582 26.1224 7.99914 23.62C7.90142 21.1596 8.76996 18.7585 10.4191 16.93C11.2027 16.0676 12.1632 15.3844 13.2349 14.9271C14.3066 14.4698 15.4643 14.2491 16.6291 14.28C17.7967 14.2464 18.9583 14.4587 20.0385 14.9032C21.1187 15.3477 22.0933 16.0144 22.8991 16.86C23.737 17.7621 24.3875 18.8214 24.8132 19.9766C25.2389 21.1318 25.4313 22.36 25.3791 23.59C25.4888 26.1171 24.5977 28.5856 22.8991 30.46L22.8491 30.49ZM74.1891 27.62L65.9491 7.72H55.9491V11.24C54.6247 9.8652 53.0453 8.76135 51.2991 7.99C49.5724 7.2618 47.713 6.90082 45.8391 6.93C43.8382 6.90813 41.8562 7.31852 40.0285 8.13313C38.2008 8.94774 36.5705 10.1474 35.2491 11.65C34.3595 12.6071 33.5935 13.6721 32.9691 14.82V0H24.9691V11.24C23.6447 9.8652 22.0653 8.76135 20.3191 7.99C18.6202 7.27396 16.7927 6.91322 14.9491 6.93C12.9482 6.90813 10.9662 7.31852 9.13852 8.13313C7.31082 8.94774 5.68055 10.1474 4.35914 11.65C1.39087 14.9609 -0.172759 19.2967 -0.000862142 23.74C-0.125961 28.1463 1.49506 32.4235 4.50914 35.64C5.8447 37.1513 7.4873 38.3603 9.32728 39.1863C11.1673 40.0123 13.1623 40.4363 15.1791 40.43C16.9286 40.4379 18.6622 40.098 20.2791 39.43C22.0262 38.6516 23.6184 37.5641 24.9791 36.22V39.59H32.9791V32.29C33.6444 33.4957 34.461 34.6114 35.4091 35.61C36.7447 37.1213 38.3873 38.3303 40.2273 39.1563C42.0673 39.9823 44.0623 40.4063 46.0791 40.4C47.8286 40.4079 49.5622 40.068 51.1791 39.4C52.9262 38.6216 54.5184 37.5341 55.8791 36.19V39.56H63.8791V22.64L69.7991 37.05L65.0591 47.28H73.3991L91.5691 7.7H83.3291L74.1891 27.62Z" fill="#121A33"/>
	</g>
	<defs>
		<clipPath id="clip0_4_56">
			<rect width="107.25" height="47.27" fill="white"/>
		</clipPath>
	</defs>
</svg>