<?xml version="1.0" ?>
<svg xmlns="http://www.w3.org/2000/svg" viewBox="0 0 210 86">
	<g fill="#333">
		<path d="M127.82 35.427v-5.673h-1.14v3.644c0 .589-.45 1.19-1.365 1.19-.951 0-1.314-.601-1.314-1.19v-3.644h-1.14v3.757c0 1.265.914 2.054 2.154 2.054.89 0 1.315-.226 1.753-.701l.05.563zm-5.572-4.784-.213-.964c-.852 0-1.628.263-1.929.964l-.05-.889h-1.077v5.673h1.14v-2.68c0-1.615 1.102-2.104 2.016-2.104h.113zm-4.634 4.784v-3.982c0-1.052-.851-1.828-2.003-1.828-1.04 0-1.653.363-2.041.801-.288-.426-.89-.801-1.59-.801-.89 0-1.29.225-1.729.7l-.05-.563h-1.002v5.673h1.14v-3.882c0-.513.45-.94 1.252-.94.826 0 1.252.377 1.252.94v3.882h1.14v-3.882c0-.513.45-.94 1.252-.94.814 0 1.24.377 1.24.94v3.882zm-9.141-5.673h-1.09l-1.064 2.618c-.15.375-.326.801-.476 1.24h-.025a25.83 25.83 0 0 0-.488-1.278l-1.052-2.58H103.1l2.116 5.172c-.664 1.628-1.378 2.367-2.417 2.755l.689.701c1.114-.5 2.04-1.415 2.893-3.506zm-5.936-1.953c-.488-.276-1.252-.526-2.354-.526-1.991 0-4.308 1.39-4.308 4.157 0 2.73 2.292 4.145 4.308 4.145 1.027 0 1.59-.125 2.091-.388l.25-1.165c-.5.301-1.251.501-2.203.501-1.603 0-3.219-1.026-3.219-3.093 0-2.09 1.653-3.105 3.219-3.105.826 0 1.615.275 2.003.526z"/>
		<path d="M144.84 83.695c0-.99-.639-1.503-1.778-1.916-.564-.2-.827-.388-.827-.751 0-.376.313-.639.79-.639.613 0 1.026.188 1.277.363l.213-.952c-.213-.137-.827-.363-1.478-.363-1.127 0-1.903.677-1.903 1.628 0 .914.626 1.44 1.753 1.854.526.187.814.425.814.826 0 .388-.363.676-.902.676-.689 0-1.415-.3-1.878-.701l.263 1.252c.338.226.926.413 1.59.413 1.377 0 2.066-.776 2.066-1.69zm-4.696-2.104c0-1.052-.889-2.154-2.454-2.154-1.315 0-2.818 1.052-2.818 2.98 0 1.766 1.428 2.969 3.043 2.969.764 0 1.277-.15 1.678-.364l.288-1.214a2.965 2.965 0 0 1-1.816.576c-1.327 0-1.978-.99-2.016-1.69h3.419l.639-.64c.025-.125.037-.287.037-.463zm-1.152.025c0 .05 0 .1-.012.15h-2.856c.15-.788.914-1.352 1.628-1.352.752 0 1.24.639 1.24 1.202zm-4.62 3.08a.966.966 0 0 1-.765-.938v-7.426h-1.14v7.576c0 1.09.752 1.465 1.128 1.565zm-2.969-.037c-.363-.062-.638-.363-.638-.876V81.49c0-1.34-.914-2.054-2.18-2.054-.688 0-1.34.15-1.852.489l.225.939c.413-.276 1.002-.451 1.565-.451.802 0 1.102.413 1.102.927v.363l-1.327.125c-.964.088-1.866.714-1.866 1.816 0 .914.701 1.74 1.828 1.74.614 0 1.19-.2 1.59-.726.126.35.439.639.827.726zm-1.778-1.515c0 .714-.713 1.277-1.314 1.277a.78.78 0 0 1-.79-.764c0-.413.301-.851.977-.914l1.127-.1zm-3.944-5.886h-1.115l-1.29 3.682c-.175.501-.425 1.19-.588 1.828h-.025a29.994 29.994 0 0 0-.564-1.828l-1.29-3.682h-1.039l-1.277 3.682c-.188.539-.4 1.177-.576 1.828h-.025c-.163-.65-.4-1.302-.589-1.828l-1.29-3.682H114.8l2.83 8.102h.413l1.49-4.27c.213-.6.438-1.277.689-2.141h.025c.25.864.476 1.528.689 2.141l1.49 4.27h.413zm-14.025 3.206-.213-.964c-.852 0-1.628.263-1.928.964l-.05-.889h-1.077v5.673h1.139v-2.68c0-1.616 1.102-2.104 2.016-2.104h.113zm-4.52 1.954c0-1.766-1.316-2.98-3.006-2.98-1.69 0-3.018 1.214-3.018 2.98 0 1.753 1.327 2.968 3.018 2.968 1.69 0 3.005-1.215 3.005-2.968zm-1.153 0c0 1.177-.864 1.966-1.853 1.966-1.002 0-1.866-.79-1.866-1.966 0-1.19.864-1.979 1.866-1.979.99 0 1.853.79 1.853 1.979zm-5.372-4.12v-1.04h-4.42v7.99h1.214v-3.494h2.705v-1.04h-2.705v-2.416z"/>
	</g>
	<path stroke="#333" d="M96.046 43.422h113.72" stroke-width=".177"/>
	<g fill="#038f4f">
		<path fill="#038f4f" d="M197.4 21.404c-.376-.088-.701-.376-.701-.914v-6.975h-1.816v7.113c0 1.315.94 2.003 1.703 2.053zm-3.594-1.803c0-1.778-1.377-3.018-3.08-3.018-1.716 0-3.094 1.24-3.094 3.018 0 1.765 1.378 3.005 3.093 3.005 1.704 0 3.081-1.24 3.081-3.005zm-1.766 0c0 .839-.613 1.44-1.315 1.44-.713 0-1.314-.601-1.314-1.44 0-.852.6-1.465 1.314-1.465.702 0 1.315.613 1.315 1.465zm-5.071-.764c0-1.165-.964-2.254-2.542-2.254-1.59 0-2.956 1.14-2.956 2.98 0 1.853 1.465 3.043 3.319 3.043.751 0 1.302-.138 1.69-.326l.163-1.515c-.488.288-.99.439-1.64.439-1.002 0-1.528-.577-1.666-1.077h2.83l.739-.727c.038-.162.063-.375.063-.563zm-1.678-.013c0 .05 0 .088-.013.126h-2.003c.125-.577.6-.977 1.152-.977.526 0 .864.4.864.851zm-3.995 3.607v-1.666h-3.205v-6.324h-1.942v7.99zm-9.104 0v-3.782c0-1.252-.864-2.041-2.103-2.041-.69 0-1.165.188-1.528.526v-3.62h-1.816v8.917h1.816v-3.356c0-.451.363-.814.926-.814.576 0 .864.376.864.789v3.38zm-6.048-5.673h-1.778v-1.765l-1.753.663v1.102h-1.002v1.503h.964v2.317c0 1.14.852 1.953 2.104 1.953.363 0 .676-.05.864-.137l.138-1.503a1.62 1.62 0 0 1-.589.087c-.413 0-.701-.237-.701-.663V18.26h1.615zm-4.946 2.079c0-1.165-.965-2.254-2.542-2.254-1.59 0-2.956 1.14-2.956 2.98 0 1.853 1.465 3.043 3.319 3.043.751 0 1.302-.138 1.69-.325l.163-1.516c-.488.288-.99.439-1.64.439-1.002 0-1.528-.576-1.666-1.077h2.83l.739-.727c.038-.162.063-.375.063-.563zm-1.678-.013c0 .05 0 .088-.013.126h-2.003c.125-.576.6-.977 1.152-.977.526 0 .864.4.864.851zm-4.058 2.505c-.4-.063-.65-.338-.65-.84v-1.627c0-1.465-.99-2.279-2.568-2.279-.7 0-1.477.163-1.903.4l.138 1.403c.363-.213 1.014-.388 1.665-.388.639 0 .89.238.89.589v.2l-1.128.113c-1.114.112-1.928.801-1.928 1.84 0 1.165.901 1.866 2.054 1.866.613 0 1.202-.213 1.59-.638.238.388.651.6 1.202.638zm-2.379-.852c0 .476-.45.84-.901.84-.351 0-.601-.251-.601-.552 0-.35.212-.688.738-.738l.764-.076zm-3.794-5.585c0-.313-.639-.951-.952-.951-.3 0-.939.638-.939.951 0 .313.639.94.94.94.312 0 .95-.627.95-.94zm-.013 7.539v-5.673h-1.853v5.673zm-2.554-5.673h-1.778v-1.765l-1.753.663v1.102h-1.002v1.503h.964v2.317c0 1.14.851 1.953 2.104 1.953.363 0 .676-.05.864-.138l.138-1.502a1.62 1.62 0 0 1-.589.087c-.413 0-.701-.237-.701-.663V18.26h1.615zm-4.533 4.571c-.401-.063-.652-.338-.652-.839v-1.628c0-1.465-.989-2.279-2.567-2.279-.7 0-1.477.163-1.903.4l.138 1.403c.363-.213 1.014-.388 1.665-.388.639 0 .89.238.89.589v.2l-1.128.113c-1.114.112-1.928.801-1.928 1.84 0 1.165.902 1.866 2.054 1.866.613 0 1.202-.213 1.59-.638.238.388.651.6 1.202.638zm-2.38-.851c0 .475-.45.839-.901.839-.35 0-.601-.25-.601-.551 0-.351.213-.69.739-.74l.763-.074zm-3.318-2.23-.138-1.59c-.926 0-1.628.276-1.978.99l-.05-.89h-1.69v5.673h1.827V20.19c0-1.365.902-1.941 1.879-1.941h.15zm-4.846-1.264c-.45-.25-1.052-.4-1.803-.4-1.64 0-3.131 1.139-3.131 3.017 0 1.853 1.49 3.006 3.143 3.006.651 0 1.215-.126 1.578-.314l.15-1.64c-.476.25-.901.35-1.402.35-.877 0-1.616-.538-1.616-1.402s.677-1.39 1.528-1.39c.526 0 .977.113 1.403.363zM126.01 19.6c0-1.778-1.378-3.018-3.08-3.018-1.716 0-3.094 1.24-3.094 3.018 0 1.766 1.378 3.006 3.093 3.006 1.703 0 3.08-1.24 3.08-3.006zm-1.766 0c0 .839-.613 1.44-1.315 1.44-.713 0-1.315-.601-1.315-1.44 0-.852.601-1.465 1.315-1.465.702 0 1.315.614 1.315 1.465zm-5.172 2.83v-3.87c0-1.139-.764-1.953-2.09-1.953-.827 0-1.554.326-1.892.726-.313-.4-.851-.726-1.615-.726-.802 0-1.365.326-1.653.714l-.05-.564h-1.616v5.673h1.841v-3.469c0-.413.363-.689.864-.689.526 0 .84.263.84.664v3.494h1.84v-3.469c0-.413.363-.688.877-.688.5 0 .814.263.814.663v3.494zm-9.767-3.594c0-1.165-.965-2.254-2.542-2.254-1.59 0-2.956 1.14-2.956 2.98 0 1.854 1.465 3.043 3.319 3.043.751 0 1.302-.138 1.69-.325l.163-1.516c-.488.288-.99.439-1.64.439-1.002 0-1.528-.576-1.666-1.077h2.83l.739-.726c.038-.163.063-.376.063-.564zm-1.678-.013c0 .05 0 .088-.013.126h-2.003c.125-.576.6-.977 1.152-.977.526 0 .864.4.864.851zm-4.583-.388c0-2.492-1.979-3.994-4.283-3.994h-2.692v7.989h2.692c2.304 0 4.283-1.503 4.283-3.995zm-1.941 0c0 1.553-1.178 2.33-2.568 2.33h-.6v-4.659h.6c1.39 0 2.568.777 2.568 2.33zM190.538 8.33c-.401-.062-.652-.338-.652-.839V5.863c0-1.465-.989-2.279-2.567-2.279-.7 0-1.477.163-1.903.401l.138 1.403c.363-.213 1.014-.389 1.665-.389.639 0 .89.238.89.589v.2l-1.128.113c-1.114.113-1.928.801-1.928 1.84 0 1.165.901 1.867 2.054 1.867.613 0 1.202-.213 1.59-.64.238.39.651.602 1.202.64zm-2.38-.851c0 .476-.45.839-.901.839-.351 0-.601-.25-.601-.551 0-.35.212-.689.738-.739l.764-.075zm-6.724 1.953V3.76h-1.841v3.356c0 .45-.363.814-.927.814-.576 0-.864-.376-.864-.79V3.76h-1.84v3.782c0 1.252.863 2.04 2.103 2.04.814 0 1.378-.275 1.703-.713l.05.563zm-5.91-1.102c-.402-.062-.652-.338-.652-.839V5.863c0-1.465-.99-2.279-2.567-2.279-.701 0-1.478.163-1.904.401l.138 1.403c.363-.213 1.014-.389 1.666-.389.638 0 .889.238.889.589v.2l-1.127.113c-1.115.113-1.929.801-1.929 1.84 0 1.165.902 1.867 2.054 1.867.614 0 1.202-.213 1.59-.639.238.388.652.601 1.203.639zm-2.38-.851c0 .476-.45.839-.902.839-.35 0-.6-.25-.6-.551 0-.35.212-.689.738-.739l.764-.075zm-3.794-5.585c0-.313-.639-.952-.952-.952-.3 0-.94.639-.94.952 0 .313.64.939.94.939.313 0 .952-.626.952-.94zm-.013 7.538V3.76h-1.853v5.672zm-2.98 0V5.65c0-1.252-.864-2.04-2.104-2.04-.814 0-1.377.275-1.703.713l-.05-.563h-1.615v5.672h1.84V6.076c0-.45.364-.814.927-.814.576 0 .864.376.864.79v3.38zm-6.4 0V3.76h-3.518v-.514c0-.739.413-1.29 1.265-1.29.476 0 .851.126 1.114.276l.138-1.528c-.3-.163-.776-.288-1.34-.288-1.84 0-2.98 1.14-2.98 3.006v.338h-.877v1.503h.877v4.17h1.803v-4.17h1.678v4.17zm-6.21-6.399v-1.59h-4.771v7.99h1.94V6.238h2.33V4.624h-2.33v-1.59zm-8.716 6.4V5.65c0-1.252-.864-2.04-2.104-2.04-.814 0-1.377.275-1.703.713l-.05-.563h-1.615v5.672h1.84V6.076c0-.45.364-.814.927-.814.576 0 .864.376.864.79v3.38zm-5.898-5.673h-1.603l-.701 2.128a9.014 9.014 0 0 0-.288 1.077h-.025c-.075-.35-.163-.726-.276-1.077l-.714-2.128h-1.39l-.7 2.141c-.1.313-.201.714-.289 1.064h-.025a8.805 8.805 0 0 0-.275-1.064l-.702-2.141h-1.678l1.979 5.722h1.265l.751-2.254c.113-.325.226-.7.326-1.14h.025c.1.427.213.802.338 1.153l.751 2.241h1.252zm-9.242-1.866c0-.313-.638-.952-.951-.952-.3 0-.94.639-.94.952 0 .313.64.939.94.939.313 0 .951-.626.951-.94zm-.012 7.538V3.76h-1.853v5.672zm-2.83-1.64c0-.927-.589-1.565-1.69-1.916-.501-.163-.677-.288-.677-.526s.2-.4.526-.4c.551 0 1.014.187 1.302.387l.138-1.39c-.263-.162-.851-.363-1.553-.363-1.24 0-2.09.74-2.09 1.791 0 .89.638 1.515 1.677 1.878.438.163.651.288.651.564 0 .238-.225.413-.6.413a3.04 3.04 0 0 1-1.917-.701l.163 1.603c.376.25 1.052.476 1.828.476 1.54 0 2.242-.84 2.242-1.816zm-4.884-5.898c0-.313-.638-.952-.951-.952-.301 0-.94.639-.94.952s.639.94.94.94c.313 0 .951-.627.951-.94zm-.012 7.538V3.76H120.3v5.672zm-2.968 0V5.563c0-1.14-.764-1.954-2.091-1.954-.827 0-1.553.326-1.891.727-.313-.401-.852-.727-1.616-.727-.801 0-1.365.326-1.653.714l-.05-.563h-1.615v5.672h1.84V5.964c0-.414.364-.69.865-.69.526 0 .839.264.839.665v3.493h1.84V5.964c0-.413.364-.689.877-.689.501 0 .814.263.814.664v3.494zm-9.805-2.83c0-1.778-1.378-3.017-3.081-3.017-1.716 0-3.093 1.24-3.093 3.017 0 1.766 1.378 3.006 3.093 3.006 1.703 0 3.08-1.24 3.08-3.006zm-1.766 0c0 .84-.614 1.44-1.315 1.44-.714 0-1.315-.6-1.315-1.44 0-.851.601-1.465 1.315-1.465.701 0 1.315.614 1.315 1.465zm-5.172-4.858c-.476-.276-1.265-.489-2.266-.489-2.092 0-4.358 1.428-4.358 4.183 0 2.742 2.254 4.182 4.358 4.182.964 0 1.64-.162 2.09-.425l.164-1.741c-.439.288-1.102.476-1.966.476-1.516 0-2.68-.99-2.68-2.492 0-1.515 1.164-2.505 2.617-2.505.864 0 1.49.238 1.903.501z"/>
		<path fill="#038f4f" d="M210 72.249v-3.782c0-1.252-.864-2.04-2.104-2.04-.814 0-1.377.275-1.703.713l-.05-.564h-1.615v5.673h1.84v-3.356c0-.45.364-.814.927-.814.576 0 .864.376.864.789v3.381zm-6.361-2.83c0-1.778-1.378-3.018-3.081-3.018-1.716 0-3.093 1.24-3.093 3.018 0 1.766 1.377 3.006 3.093 3.006 1.703 0 3.08-1.24 3.08-3.006zm-1.766 0c0 .839-.614 1.44-1.315 1.44-.714 0-1.315-.601-1.315-1.44 0-.852.601-1.465 1.315-1.465.701 0 1.315.613 1.315 1.465zm-5.11-4.708c0-.313-.638-.952-.95-.952-.301 0-.94.639-.94.952 0 .313.639.939.94.939.312 0 .95-.626.95-.94zm-.012 7.538v-5.672h-1.853v5.672zm-2.83-1.64c0-.927-.588-1.566-1.69-1.916-.501-.163-.677-.288-.677-.526s.2-.401.526-.401c.551 0 1.015.188 1.303.388l.137-1.39c-.263-.163-.851-.363-1.552-.363-1.24 0-2.092.739-2.092 1.79 0 .89.64 1.516 1.678 1.88.439.162.652.287.652.563 0 .238-.226.413-.601.413a3.04 3.04 0 0 1-1.916-.701l.162 1.603c.376.25 1.052.475 1.829.475 1.54 0 2.241-.839 2.241-1.815zm-4.808 0c0-.927-.589-1.566-1.69-1.916-.502-.163-.677-.288-.677-.526s.2-.401.526-.401c.55 0 1.014.188 1.302.388l.138-1.39c-.263-.163-.852-.363-1.553-.363-1.24 0-2.091.739-2.091 1.79 0 .89.639 1.516 1.678 1.88.438.162.651.287.651.563 0 .238-.225.413-.601.413a3.04 3.04 0 0 1-1.916-.701l.163 1.603c.375.25 1.052.475 1.828.475 1.54 0 2.242-.839 2.242-1.815zm-4.884-5.898c0-.313-.639-.952-.952-.952-.3 0-.939.639-.939.952 0 .313.639.939.94.939.312 0 .95-.626.95-.94zm-.013 7.538v-5.672h-1.853v5.672zm-2.967 0v-3.87c0-1.139-.764-1.953-2.092-1.953-.826 0-1.552.326-1.89.727-.313-.401-.852-.727-1.616-.727-.801 0-1.365.326-1.653.714l-.05-.564h-1.615v5.673h1.84V68.78c0-.413.364-.688.865-.688.525 0 .839.263.839.663v3.494h1.84v-3.468c0-.414.363-.69.877-.69.5 0 .814.264.814.664v3.494zm-9.868 0v-3.87c0-1.139-.764-1.953-2.091-1.953-.827 0-1.553.326-1.891.727-.313-.401-.852-.727-1.616-.727-.801 0-1.365.326-1.653.714l-.05-.564h-1.615v5.673h1.84V68.78c0-.413.364-.688.865-.688.526 0 .839.263.839.663v3.494h1.84v-3.468c0-.414.364-.69.877-.69.501 0 .814.264.814.664v3.494zm-9.805-2.83c0-1.778-1.378-3.018-3.08-3.018-1.717 0-3.094 1.24-3.094 3.018 0 1.766 1.378 3.006 3.093 3.006 1.703 0 3.08-1.24 3.08-3.006zm-1.766 0c0 .84-.614 1.44-1.315 1.44-.714 0-1.315-.6-1.315-1.44 0-.851.601-1.465 1.315-1.465.701 0 1.315.614 1.315 1.465zm-5.172-4.858c-.476-.276-1.265-.489-2.266-.489-2.092 0-4.358 1.428-4.358 4.183 0 2.742 2.254 4.182 4.358 4.182.964 0 1.64-.163 2.09-.426l.164-1.74c-.439.288-1.102.476-1.966.476-1.516 0-2.68-.99-2.68-2.492 0-1.515 1.164-2.505 2.617-2.505.864 0 1.49.238 1.903.501zm-15.753 3.506-.138-1.59c-.926 0-1.627.275-1.978.989l-.05-.89h-1.69v5.673h1.828v-2.241c0-1.365.901-1.941 1.878-1.941h.15zm-4.395 3.08c-.4-.062-.651-.338-.651-.839V68.68c0-1.465-.99-2.279-2.567-2.279-.702 0-1.478.163-1.904.401l.138 1.403c.363-.213 1.014-.389 1.665-.389.64 0 .89.238.89.589v.2l-1.127.113c-1.115.113-1.929.801-1.929 1.84 0 1.165.902 1.867 2.054 1.867.613 0 1.202-.213 1.59-.639.238.388.651.601 1.202.639zm-2.38-.851c0 .476-.45.839-.9.839-.352 0-.602-.25-.602-.551 0-.35.213-.689.739-.739l.764-.075zm-4.082 1.953v-8.915h-1.778v3.306c-.225-.138-.588-.238-1.064-.238-1.728 0-3.056 1.227-3.056 3.08 0 1.841 1.503 2.918 2.856 2.918.688 0 1.277-.188 1.565-.564l.037.414zm-1.778-1.828c-.238.238-.6.388-1.027.388-.738 0-1.327-.588-1.327-1.415 0-.826.589-1.415 1.327-1.415.451 0 .814.15 1.027.351zm-4.896 1.828v-3.781c0-1.253-.864-2.041-2.104-2.041-.814 0-1.377.275-1.703.713l-.05-.563h-1.615v5.672h1.84v-3.356c0-.45.364-.814.927-.814.576 0 .864.376.864.79v3.38zm-6.437 0v-5.672h-1.84v3.356c0 .45-.364.814-.927.814-.576 0-.864-.376-.864-.79v-3.38h-1.841v3.782c0 1.252.864 2.04 2.104 2.04.814 0 1.377-.275 1.703-.713l.05.563zm-6.361-2.83c0-1.778-1.378-3.017-3.08-3.017-1.716 0-3.094 1.24-3.094 3.017 0 1.766 1.378 3.006 3.093 3.006 1.703 0 3.08-1.24 3.08-3.006zm-1.766 0c0 .84-.613 1.44-1.315 1.44-.713 0-1.315-.6-1.315-1.44 0-.851.602-1.465 1.315-1.465.702 0 1.315.614 1.315 1.465zm-4.971.351c0-.964-.714-1.853-1.39-2.066.426-.238.663-.852.663-1.328 0-1.302-1.089-2.116-2.341-2.116h-2.68v7.99h3.018c1.503 0 2.73-.927 2.73-2.48zm-2.492-3.268c0 .576-.426.801-.877.801h-.613v-1.615h.613c.451 0 .877.238.877.814zm.613 3.268c0 .714-.576 1.027-1.177 1.027h-.926V68.73h.926c.601 0 1.177.338 1.177 1.039zm104.91-10.519v-8.916h-1.778v3.306c-.225-.138-.588-.238-1.064-.238-1.728 0-3.055 1.227-3.055 3.08 0 1.842 1.502 2.919 2.855 2.919.689 0 1.277-.188 1.565-.564l.038.413zm-1.778-1.828c-.238.238-.6.388-1.027.388-.738 0-1.327-.589-1.327-1.415 0-.826.589-1.415 1.327-1.415.451 0 .814.15 1.027.35zm-4.896 1.828V55.47c0-1.252-.864-2.04-2.104-2.04-.814 0-1.377.275-1.703.713l-.05-.564h-1.615v5.673h1.84v-3.356c0-.45.364-.814.927-.814.576 0 .864.376.864.789v3.381zm-5.91-1.102c-.401-.063-.652-.338-.652-.839v-1.628c0-1.465-.989-2.279-2.567-2.279-.7 0-1.477.163-1.903.4l.138 1.403c.363-.213 1.014-.388 1.665-.388.639 0 .89.238.89.589v.2l-1.128.113c-1.114.112-1.928.801-1.928 1.84 0 1.165.901 1.866 2.054 1.866.613 0 1.202-.213 1.59-.638.238.388.651.6 1.202.638zm-2.38-.851c0 .475-.45.839-.901.839-.35 0-.601-.25-.601-.551 0-.351.212-.69.738-.74l.764-.074zm-6.173-3.72h-1.728l-.852 2.23a10.21 10.21 0 0 0-.338 1.089h-.025a11.559 11.559 0 0 0-.35-1.102l-.84-2.217h-1.815l2.116 5.385c-.539 1.302-1.09 1.815-1.966 2.104l.751 1.19c1.365-.339 2.292-1.504 3.056-3.495zm-6.462.226c-.45-.25-1.052-.401-1.803-.401-1.64 0-3.13 1.14-3.13 3.018 0 1.853 1.49 3.005 3.142 3.005.652 0 1.215-.125 1.578-.313l.15-1.64c-.475.25-.901.35-1.402.35-.877 0-1.615-.538-1.615-1.402s.676-1.39 1.527-1.39c.526 0 .977.113 1.403.363zm-5.184 4.345c-.4-.063-.651-.338-.651-.839v-1.628c0-1.465-.99-2.279-2.567-2.279-.702 0-1.478.163-1.904.4l.138 1.403c.363-.213 1.014-.388 1.666-.388.638 0 .889.238.889.589v.2l-1.127.113c-1.115.112-1.929.801-1.929 1.84 0 1.165.902 1.866 2.054 1.866.614 0 1.202-.213 1.59-.638.238.388.652.6 1.203.638zm-2.38-.852c0 .476-.45.84-.9.84-.352 0-.602-.251-.602-.552 0-.35.213-.688.739-.738l.764-.075zm-3.318-2.228-.137-1.59c-.927 0-1.628.275-1.979.989l-.05-.89h-1.69v5.673h1.828V57.01c0-1.365.901-1.941 1.878-1.941h.15zm-4.846-1.265c-.45-.25-1.052-.4-1.803-.4-1.64 0-3.13 1.139-3.13 3.017 0 1.853 1.49 3.005 3.142 3.005.652 0 1.215-.125 1.578-.313l.15-1.64c-.475.25-.901.35-1.402.35-.877 0-1.615-.538-1.615-1.402 0-.864.676-1.39 1.527-1.39.526 0 .977.113 1.403.363zm-5.635 2.617c0-1.778-1.377-3.018-3.08-3.018-1.716 0-3.094 1.24-3.094 3.018 0 1.766 1.378 3.005 3.093 3.005 1.703 0 3.081-1.24 3.081-3.005zm-1.766 0c0 .839-.613 1.44-1.315 1.44-.713 0-1.314-.601-1.314-1.44 0-.852.6-1.465 1.314-1.465.702 0 1.315.613 1.315 1.465zm-5.171 2.83v-3.87c0-1.139-.764-1.953-2.092-1.953-.826 0-1.552.326-1.89.726-.313-.4-.852-.726-1.616-.726-.801 0-1.365.326-1.653.714l-.05-.564h-1.615v5.673h1.84v-3.469c0-.413.364-.689.865-.689.525 0 .839.263.839.664v3.494h1.84v-3.469c0-.413.364-.688.877-.688.5 0 .814.263.814.663v3.494zm-9.768-3.594c0-1.165-.964-2.254-2.542-2.254-1.59 0-2.955 1.14-2.955 2.98 0 1.853 1.465 3.043 3.318 3.043.751 0 1.302-.138 1.69-.325l.163-1.516c-.488.288-.989.439-1.64.439-1.002 0-1.528-.576-1.666-1.077h2.83l.74-.727c.037-.162.062-.375.062-.563zm-1.678-.013c0 .05 0 .088-.013.126h-2.003c.125-.576.601-.977 1.152-.977.526 0 .864.4.864.851zm-4.583-.388c0-2.492-1.979-3.994-4.283-3.994h-2.692v7.989h2.692c2.304 0 4.283-1.503 4.283-3.995zm-1.941 0c0 1.553-1.177 2.33-2.567 2.33h-.601v-4.659h.6c1.39 0 2.568.777 2.568 2.33zm-8.453 2.968c-.376-.088-.701-.376-.701-.914v-6.975h-1.816v7.113c0 1.315.94 2.003 1.703 2.054zm-3.143-.075c-.4-.063-.651-.338-.651-.839v-1.628c0-1.465-.99-2.279-2.567-2.279-.702 0-1.478.163-1.904.4l.138 1.403c.363-.213 1.014-.388 1.666-.388.638 0 .889.238.889.589v.2l-1.127.113c-1.115.112-1.929.801-1.929 1.84 0 1.165.902 1.866 2.054 1.866.614 0 1.202-.213 1.59-.638.238.388.652.6 1.203.638zm-2.38-.852c0 .476-.45.84-.9.84-.352 0-.602-.25-.602-.551 0-.351.213-.69.739-.74l.764-.074zm-3.794-3.493c-.45-.25-1.052-.401-1.803-.401-1.64 0-3.13 1.14-3.13 3.018 0 1.853 1.49 3.005 3.143 3.005.65 0 1.214-.125 1.577-.313l.15-1.64c-.475.25-.9.35-1.402.35-.876 0-1.615-.538-1.615-1.402 0-.864.676-1.39 1.527-1.39.526 0 .977.113 1.403.363zm-5.635 2.617c0-1.778-1.377-3.018-3.08-3.018-1.716 0-3.093 1.24-3.093 3.018 0 1.765 1.377 3.005 3.093 3.005 1.703 0 3.08-1.24 3.08-3.005zm-1.765 0c0 .839-.614 1.44-1.315 1.44-.714 0-1.315-.601-1.315-1.44 0-.852.6-1.465 1.315-1.465.701 0 1.315.613 1.315 1.465zm-4.596 2.83v-1.666h-3.206v-6.324h-1.94v7.99zm43.646 7.325h-1.728l-.852 2.23c-.125.338-.238.688-.338 1.089h-.025a11.559 11.559 0 0 0-.35-1.102l-.84-2.217h-1.815l2.116 5.385c-.539 1.302-1.09 1.816-1.966 2.104l.751 1.19c1.365-.339 2.292-1.503 3.056-3.495z"/>
		<rect x="23.913" y=".607" width="2.238" height="2.238" rx=".45" ry=".45"/>
		<rect x="26.573" y=".607" width="2.238" height="2.238" rx=".45" ry=".45"/>
		<rect x="23.913" y="3.288" width="2.238" height="2.238" rx=".45" ry=".45"/>
		<rect x="26.573" y="3.288" width="2.238" height="2.238" rx=".45" ry=".45"/>
		<rect x="21.255" y="5.971" width="2.238" height="2.238" rx=".45" ry=".45"/>
		<rect x="23.913" y="5.971" width="2.238" height="2.238" rx=".45" ry=".45"/>
		<rect x="26.573" y="5.971" width="2.238" height="2.238" rx=".45" ry=".45"/>
		<rect x="23.913" y="8.654" width="2.238" height="2.238" rx=".45" ry=".45"/>
		<rect x="26.573" y="8.654" width="2.238" height="2.238" rx=".45" ry=".45"/>
		<rect x="29.231" y="3.288" width="2.238" height="2.238" rx=".45" ry=".45"/>
		<rect x="29.231" y="5.971" width="2.238" height="2.238" rx=".45" ry=".45"/>
		<rect x="29.231" y="8.654" width="2.238" height="2.238" rx=".45" ry=".45"/>
		<rect x="29.231" y=".607" width="2.238" height="2.238" rx=".45" ry=".45"/>
		<rect x="31.889" y="3.288" width="2.238" height="2.238" rx=".45" ry=".45"/>
		<rect x="31.889" y="5.971" width="2.238" height="2.238" rx=".45" ry=".45"/>
		<rect x="31.889" y="8.654" width="2.238" height="2.238" rx=".45" ry=".45"/>
		<rect x="37.205" y="8.654" width="2.238" height="2.238" rx=".45" ry=".45"/>
		<rect x="26.573" y="11.339" width="2.238" height="2.238" rx=".45" ry=".45"/>
		<rect x="29.231" y="11.339" width="2.238" height="2.238" rx=".45" ry=".45"/>
		<rect x="45.181" y="3.288" width="2.238" height="2.238" rx=".45" ry=".45"/>
		<rect x="42.523" y="5.971" width="2.238" height="2.238" rx=".45" ry=".45"/>
		<rect x="45.181" y="5.971" width="2.238" height="2.238" rx=".45" ry=".45"/>
		<rect x="55.814" y="3.288" width="2.238" height="2.238" rx=".45" ry=".45"/>
		<rect x="58.474" y="3.288" width="2.238" height="2.238" rx=".45" ry=".45"/>
		<rect x="53.156" y="5.971" width="2.238" height="2.238" rx=".45" ry=".45"/>
		<rect x="55.814" y="5.971" width="2.238" height="2.238" rx=".45" ry=".45"/>
		<rect x="61.132" y="5.971" width="2.238" height="2.238" rx=".45" ry=".45"/>
		<rect x="63.788" y="5.971" width="2.238" height="2.238" rx=".45" ry=".45"/>
		<rect x="66.446" y="8.654" width="2.238" height="2.238" rx=".45" ry=".45"/>
		<rect x="69.106" y="8.654" width="2.238" height="2.238" rx=".45" ry=".45"/>
		<rect x="69.106" y="11.339" width="2.238" height="2.238" rx=".45" ry=".45"/>
		<rect x="69.106" y="14.022" width="2.238" height="2.238" rx=".45" ry=".45"/>
		<rect x="69.106" y="16.703" width="2.238" height="2.238" rx=".45" ry=".45"/>
		<rect x="69.106" y="19.386" width="2.238" height="2.238" rx=".45" ry=".45"/>
		<rect x="71.821" y="14.022" width="2.238" height="2.238" rx=".45" ry=".45"/>
		<rect x="71.821" y="16.703" width="2.238" height="2.238" rx=".45" ry=".45"/>
		<rect x="71.821" y="19.386" width="2.238" height="2.238" rx=".45" ry=".45"/>
		<rect x="74.515" y="19.386" width="2.238" height="2.238" rx=".45" ry=".45"/>
		<rect x="21.255" y="22.063" width="2.238" height="2.238" rx=".45" ry=".45"/>
		<rect x="26.573" y="22.063" width="2.238" height="2.238" rx=".45" ry=".45"/>
		<rect x="23.913" y="24.746" width="2.238" height="2.238" rx=".45" ry=".45"/>
		<rect x="23.913" y="27.429" width="2.238" height="2.238" rx=".45" ry=".45"/>
		<rect x="29.231" y="22.063" width="2.238" height="2.238" rx=".45" ry=".45"/>
		<rect x="31.889" y="22.063" width="2.238" height="2.238" rx=".45" ry=".45"/>
		<rect x="23.913" y="19.386" width="2.238" height="2.238" rx=".45" ry=".45"/>
		<rect x="26.573" y="19.386" width="2.238" height="2.238" rx=".45" ry=".45"/>
		<rect x="29.231" y="16.703" width="2.238" height="2.238" rx=".45" ry=".45"/>
		<rect x="63.788" y="27.429" width="2.238" height="2.238" rx=".45" ry=".45"/>
		<rect x="66.446" y="27.429" width="2.238" height="2.238" rx=".45" ry=".45"/>
		<rect x="66.446" y="30.112" width="2.238" height="2.238" rx=".45" ry=".45"/>
		<rect x="69.106" y="30.112" width="2.238" height="2.238" rx=".45" ry=".45"/>
		<rect x="15.951" y="24.746" width="2.238" height="2.238" rx=".45" ry=".45"/>
		<rect x="18.609" y="24.746" width="2.238" height="2.238" rx=".45" ry=".45"/>
		<rect x="18.609" y="27.429" width="2.238" height="2.238" rx=".45" ry=".45"/>
		<rect y="64.982" width="2.238" height="2.238" rx=".45" ry=".45"/>
		<rect x="2.658" y="64.982" width="2.238" height="2.238" rx=".45" ry=".45"/>
		<rect x="5.318" y="64.982" width="2.238" height="2.238" rx=".45" ry=".45"/>
		<rect x="5.318" y="67.665" width="2.238" height="2.238" rx=".45" ry=".45"/>
		<rect x="7.976" y="67.665" width="2.238" height="2.238" rx=".45" ry=".45"/>
		<rect x="10.633" y="67.665" width="2.238" height="2.238" rx=".45" ry=".45"/>
		<rect x="13.291" y="67.665" width="2.238" height="2.238" rx=".45" ry=".45"/>
		<rect x="15.951" y="67.665" width="2.238" height="2.238" rx=".45" ry=".45"/>
		<rect x="18.609" y="67.665" width="2.238" height="2.238" rx=".45" ry=".45"/>
		<rect x="21.255" y="67.665" width="2.238" height="2.238" rx=".45" ry=".45"/>
		<rect x="23.913" y="67.665" width="2.238" height="2.238" rx=".45" ry=".45"/>
		<rect x="26.573" y="67.665" width="2.238" height="2.238" rx=".45" ry=".45"/>
		<rect x="29.231" y="67.665" width="2.238" height="2.238" rx=".45" ry=".45"/>
		<rect x="29.231" y="64.982" width="2.238" height="2.238" rx=".45" ry=".45"/>
		<rect x="26.573" y="51.569" width="2.238" height="2.238" rx=".45" ry=".45"/>
		<rect x="34.547" y="46.205" width="2.238" height="2.238" rx=".45" ry=".45"/>
		<rect x="31.889" y="48.887" width="2.238" height="2.238" rx=".45" ry=".45"/>
		<rect x="39.863" y="48.887" width="2.238" height="2.238" rx=".45" ry=".45"/>
		<rect x="21.255" y="54.255" width="2.238" height="2.238" rx=".45" ry=".45"/>
		<rect x="37.205" y="32.797" width="2.238" height="2.238" rx=".45" ry=".45"/>
		<rect x="37.205" y="35.478" width="2.238" height="2.238" rx=".45" ry=".45"/>
		<rect x="37.205" y="38.161" width="2.238" height="2.238" rx=".45" ry=".45"/>
		<rect x="37.205" y="40.844" width="2.238" height="2.238" rx=".45" ry=".45"/>
		<rect x="39.863" y="38.161" width="2.238" height="2.238" rx=".45" ry=".45"/>
		<rect x="2.658" y="62.302" width="2.238" height="2.238" rx=".45" ry=".45"/>
		<rect x="7.976" y="59.619" width="2.238" height="2.238" rx=".45" ry=".45"/>
		<rect x="10.633" y="59.619" width="2.238" height="2.238" rx=".45" ry=".45"/>
		<rect x="18.607" y="54.255" width="2.238" height="2.238" rx=".45" ry=".45"/>
		<rect x="2.658" y="70.347" width="2.238" height="2.238" rx=".45" ry=".45"/>
		<rect x="5.318" y="70.347" width="2.238" height="2.238" rx=".45" ry=".45"/>
		<rect x="2.658" y="73.029" width="2.238" height="2.238" rx=".45" ry=".45"/>
		<rect x="7.976" y="70.347" width="2.238" height="2.238" rx=".45" ry=".45"/>
		<rect x="7.976" y="73.029" width="2.238" height="2.238" rx=".45" ry=".45"/>
		<rect x="10.633" y="70.347" width="2.238" height="2.238" rx=".45" ry=".45"/>
		<rect x="13.291" y="70.347" width="2.238" height="2.238" rx=".45" ry=".45"/>
		<rect x="15.951" y="70.347" width="2.238" height="2.238" rx=".45" ry=".45"/>
		<rect x="10.633" y="73.029" width="2.238" height="2.238" rx=".45" ry=".45"/>
		<rect x="13.291" y="73.029" width="2.238" height="2.238" rx=".45" ry=".45"/>
		<rect x="15.951" y="73.029" width="2.238" height="2.238" rx=".45" ry=".45"/>
		<rect x="7.975" y="75.715" width="2.238" height="2.238" rx=".45" ry=".45"/>
		<rect x="10.633" y="75.715" width="2.238" height="2.238" rx=".45" ry=".45"/>
		<rect x="23.913" y="70.347" width="2.238" height="2.238" rx=".45" ry=".45"/>
		<rect x="29.231" y="70.347" width="2.238" height="2.238" rx=".45" ry=".45"/>
		<rect x="29.231" y="73.029" width="2.238" height="2.238" rx=".45" ry=".45"/>
		<rect x="31.889" y="70.347" width="2.238" height="2.238" rx=".45" ry=".45"/>
		<rect x="34.547" y="73.029" width="2.238" height="2.238" rx=".45" ry=".45"/>
		<rect x="37.205" y="73.029" width="2.238" height="2.238" rx=".45" ry=".45"/>
		<rect x="31.889" y="75.715" width="2.238" height="2.238" rx=".45" ry=".45"/>
		<rect x="34.547" y="75.715" width="2.238" height="2.238" rx=".45" ry=".45"/>
		<rect x="37.205" y="75.715" width="2.238" height="2.238" rx=".45" ry=".45"/>
		<rect x="31.889" y="78.396" width="2.238" height="2.238" rx=".45" ry=".45"/>
		<rect x="34.547" y="78.396" width="2.238" height="2.238" rx=".45" ry=".45"/>
		<rect x="37.205" y="78.396" width="2.238" height="2.238" rx=".45" ry=".45"/>
		<rect x="39.863" y="78.396" width="2.238" height="2.238" rx=".45" ry=".45"/>
		<rect x="39.863" y="75.715" width="2.238" height="2.238" rx=".45" ry=".45"/>
		<rect x="42.523" y="75.715" width="2.238" height="2.238" rx=".45" ry=".45"/>
		<rect x="45.181" y="75.715" width="2.238" height="2.238" rx=".45" ry=".45"/>
		<rect x="47.84" y="81.079" width="2.238" height="2.238" rx=".45" ry=".45"/>
		<rect x="50.498" y="81.079" width="2.238" height="2.238" rx=".45" ry=".45"/>
		<rect x="53.156" y="81.079" width="2.238" height="2.238" rx=".45" ry=".45"/>
		<rect x="55.814" y="81.079" width="2.238" height="2.238" rx=".45" ry=".45"/>
		<rect x="53.156" y="83.762" width="2.238" height="2.238" rx=".45" ry=".45"/>
		<rect x="55.814" y="83.762" width="2.238" height="2.238" rx=".45" ry=".45"/>
		<rect x="58.474" y="83.762" width="2.238" height="2.238" rx=".45" ry=".45"/>
		<rect x="61.132" y="81.079" width="2.238" height="2.238" rx=".45" ry=".45"/>
		<rect x="61.132" y="83.762" width="2.238" height="2.238" rx=".45" ry=".45"/>
		<rect x="69.106" y="73.029" width="2.238" height="2.238" rx=".45" ry=".45"/>
		<rect x="71.823" y="67.665" width="2.238" height="2.238" rx=".45" ry=".45"/>
		<rect x="71.823" y="70.347" width="2.238" height="2.238" rx=".45" ry=".45"/>
		<rect x="71.823" y="73.029" width="2.238" height="2.238" rx=".45" ry=".45"/>
		<rect x="74.515" y="67.665" width="2.238" height="2.238" rx=".45" ry=".45"/>
		<rect x="77.231" y="67.665" width="2.238" height="2.238" rx=".45" ry=".45"/>
		<rect x="74.515" y="70.347" width="2.238" height="2.238" rx=".45" ry=".45"/>
		<rect x="74.515" y="73.029" width="2.238" height="2.238" rx=".45" ry=".45"/>
		<rect x="69.106" y="75.715" width="2.238" height="2.238" rx=".45" ry=".45"/>
		<rect x="66.446" y="78.396" width="2.238" height="2.238" rx=".45" ry=".45"/>
		<rect x="69.106" y="78.396" width="2.238" height="2.238" rx=".45" ry=".45"/>
		<rect x="63.788" y="81.079" width="2.238" height="2.238" rx=".45" ry=".45"/>
		<rect x="66.446" y="81.079" width="2.238" height="2.238" rx=".45" ry=".45"/>
		<rect x="63.788" y="83.762" width="2.238" height="2.238" rx=".45" ry=".45"/>
		<rect x="71.823" y="78.396" width="2.238" height="2.238" rx=".45" ry=".45"/>
		<rect x="71.821" y="75.715" width="2.238" height="2.238" rx=".45" ry=".45"/>
		<rect x="77.231" y="75.715" width="2.238" height="2.238" rx=".45" ry=".45"/>
		<rect x="74.515" y="78.396" width="2.238" height="2.238" rx=".45" ry=".45"/>
	</g>
	<g fill="#62b784">
		<rect x="23.913" y="22.063" width="2.238" height="2.238" rx=".45" ry=".45"/>
		<rect x="21.255" y="24.746" width="2.238" height="2.238" rx=".45" ry=".45"/>
		<rect x="34.547" y="22.063" width="2.238" height="2.238" rx=".45" ry=".45"/>
		<rect x="37.205" y="22.063" width="2.238" height="2.238" rx=".45" ry=".45"/>
		<rect x="37.205" y="24.746" width="2.238" height="2.238" rx=".45" ry=".45"/>
		<rect x="39.863" y="30.112" width="2.238" height="2.238" rx=".45" ry=".45"/>
		<rect x="39.863" y="22.063" width="2.238" height="2.238" rx=".45" ry=".45"/>
		<rect x="34.547" y="5.971" width="2.238" height="2.238" rx=".45" ry=".45"/>
		<rect x="39.863" y="8.654" width="2.238" height="2.238" rx=".45" ry=".45"/>
		<rect x="34.547" y="11.339" width="2.238" height="2.238" rx=".45" ry=".45"/>
		<rect x="37.205" y="11.339" width="2.238" height="2.238" rx=".45" ry=".45"/>
		<rect x="31.889" y="14.022" width="2.238" height="2.238" rx=".45" ry=".45"/>
		<rect x="31.889" y="19.386" width="2.238" height="2.238" rx=".45" ry=".45"/>
		<rect x="37.205" y="19.386" width="2.238" height="2.238" rx=".45" ry=".45"/>
		<rect x="47.84" y="24.746" width="2.238" height="2.238" rx=".45" ry=".45"/>
		<rect x="42.523" y="27.429" width="2.238" height="2.238" rx=".45" ry=".45"/>
		<rect x="45.181" y="27.429" width="2.238" height="2.238" rx=".45" ry=".45"/>
		<rect x="50.498" y="22.063" width="2.238" height="2.238" rx=".45" ry=".45"/>
		<rect x="58.474" y="24.746" width="2.238" height="2.238" rx=".45" ry=".45"/>
		<rect x="55.814" y="30.112" width="2.238" height="2.238" rx=".45" ry=".45"/>
		<rect x="58.474" y="30.112" width="2.238" height="2.238" rx=".45" ry=".45"/>
		<rect x="61.132" y="24.746" width="2.238" height="2.238" rx=".45" ry=".45"/>
		<rect x="61.132" y="27.429" width="2.238" height="2.238" rx=".45" ry=".45"/>
		<rect x="61.132" y="30.112" width="2.238" height="2.238" rx=".45" ry=".45"/>
		<rect x="45.181" y="32.797" width="2.238" height="2.238" rx=".45" ry=".45"/>
		<rect x="47.84" y="32.797" width="2.238" height="2.238" rx=".45" ry=".45"/>
		<rect x="42.523" y="35.478" width="2.238" height="2.238" rx=".45" ry=".45"/>
		<rect x="45.181" y="35.478" width="2.238" height="2.238" rx=".45" ry=".45"/>
		<rect x="47.84" y="35.478" width="2.238" height="2.238" rx=".45" ry=".45"/>
		<rect x="58.474" y="35.478" width="2.238" height="2.238" rx=".45" ry=".45"/>
		<rect x="61.132" y="35.478" width="2.238" height="2.238" rx=".45" ry=".45"/>
		<rect x="47.84" y="5.971" width="2.238" height="2.238" rx=".45" ry=".45"/>
		<rect x="45.181" y="8.654" width="2.238" height="2.238" rx=".45" ry=".45"/>
		<rect x="50.498" y="5.971" width="2.238" height="2.238" rx=".45" ry=".45"/>
		<rect x="50.498" y="8.654" width="2.238" height="2.238" rx=".45" ry=".45"/>
		<rect x="58.474" y="5.971" width="2.238" height="2.238" rx=".45" ry=".45"/>
		<rect x="53.156" y="8.654" width="2.238" height="2.238" rx=".45" ry=".45"/>
		<rect x="55.814" y="8.654" width="2.238" height="2.238" rx=".45" ry=".45"/>
		<rect x="58.474" y="8.654" width="2.238" height="2.238" rx=".45" ry=".45"/>
		<rect x="61.132" y="8.654" width="2.238" height="2.238" rx=".45" ry=".45"/>
		<rect x="45.181" y="11.339" width="2.238" height="2.238" rx=".45" ry=".45"/>
		<rect x="45.181" y="14.022" width="2.238" height="2.238" rx=".45" ry=".45"/>
		<rect x="55.814" y="11.339" width="2.238" height="2.238" rx=".45" ry=".45"/>
		<rect x="58.474" y="11.339" width="2.238" height="2.238" rx=".45" ry=".45"/>
		<rect x="58.474" y="14.022" width="2.238" height="2.238" rx=".45" ry=".45"/>
		<rect x="58.474" y="16.703" width="2.238" height="2.238" rx=".45" ry=".45"/>
		<rect x="63.788" y="22.063" width="2.238" height="2.238" rx=".45" ry=".45"/>
		<rect x="63.788" y="24.746" width="2.238" height="2.238" rx=".45" ry=".45"/>
		<rect x="63.788" y="30.112" width="2.238" height="2.238" rx=".45" ry=".45"/>
		<rect x="63.788" y="32.797" width="2.238" height="2.238" rx=".45" ry=".45"/>
		<rect x="66.446" y="32.797" width="2.238" height="2.238" rx=".45" ry=".45"/>
		<rect x="63.788" y="35.478" width="2.238" height="2.238" rx=".45" ry=".45"/>
		<rect x="63.788" y="8.654" width="2.238" height="2.238" rx=".45" ry=".45"/>
		<rect x="63.788" y="11.339" width="2.238" height="2.238" rx=".45" ry=".45"/>
		<rect x="66.446" y="11.339" width="2.238" height="2.238" rx=".45" ry=".45"/>
		<rect x="66.446" y="14.022" width="2.238" height="2.238" rx=".45" ry=".45"/>
		<rect x="66.446" y="16.703" width="2.238" height="2.238" rx=".45" ry=".45"/>
		<rect x="63.788" y="19.386" width="2.238" height="2.238" rx=".45" ry=".45"/>
		<rect x="66.446" y="19.386" width="2.238" height="2.238" rx=".45" ry=".45"/>
		<rect x="7.975" y="64.982" width="2.238" height="2.238" rx=".45" ry=".45"/>
		<rect x="10.633" y="64.982" width="2.238" height="2.238" rx=".45" ry=".45"/>
		<rect x="13.291" y="64.982" width="2.238" height="2.238" rx=".45" ry=".45"/>
		<rect x="15.951" y="64.982" width="2.238" height="2.238" rx=".45" ry=".45"/>
		<rect x="18.609" y="70.347" width="2.238" height="2.238" rx=".45" ry=".45"/>
		<rect x="18.607" y="64.982" width="2.238" height="2.238" rx=".45" ry=".45"/>
		<rect x="21.255" y="64.982" width="2.238" height="2.238" rx=".45" ry=".45"/>
		<rect x="23.913" y="64.982" width="2.238" height="2.238" rx=".45" ry=".45"/>
		<rect x="26.573" y="64.982" width="2.238" height="2.238" rx=".45" ry=".45"/>
		<rect x="21.255" y="70.347" width="2.238" height="2.238" rx=".45" ry=".45"/>
		<rect x="31.889" y="64.982" width="2.238" height="2.238" rx=".45" ry=".45"/>
		<rect x="34.547" y="64.982" width="2.238" height="2.238" rx=".45" ry=".45"/>
		<rect x="37.205" y="64.982" width="2.238" height="2.238" rx=".45" ry=".45"/>
		<rect x="31.889" y="67.665" width="2.238" height="2.238" rx=".45" ry=".45"/>
		<rect x="34.547" y="67.665" width="2.238" height="2.238" rx=".45" ry=".45"/>
		<rect x="37.205" y="67.665" width="2.238" height="2.238" rx=".45" ry=".45"/>
		<rect x="34.547" y="70.347" width="2.238" height="2.238" rx=".45" ry=".45"/>
		<rect x="37.205" y="70.347" width="2.238" height="2.238" rx=".45" ry=".45"/>
		<rect x="39.863" y="67.665" width="2.238" height="2.238" rx=".45" ry=".45"/>
		<rect x="39.863" y="70.347" width="2.238" height="2.238" rx=".45" ry=".45"/>
		<rect x="39.863" y="64.982" width="2.238" height="2.238" rx=".45" ry=".45"/>
		<rect x="29.231" y="51.569" width="2.238" height="2.238" rx=".45" ry=".45"/>
		<rect x="37.205" y="43.522" width="2.238" height="2.238" rx=".45" ry=".45"/>
		<rect x="37.205" y="46.205" width="2.238" height="2.238" rx=".45" ry=".45"/>
		<rect x="34.547" y="48.887" width="2.238" height="2.238" rx=".45" ry=".45"/>
		<rect x="31.889" y="51.569" width="2.238" height="2.238" rx=".45" ry=".45"/>
		<rect x="37.205" y="51.569" width="2.238" height="2.238" rx=".45" ry=".45"/>
		<rect x="39.863" y="46.205" width="2.238" height="2.238" rx=".45" ry=".45"/>
		<rect x="39.863" y="51.569" width="2.238" height="2.238" rx=".45" ry=".45"/>
		<rect x="39.863" y="43.522" width="2.238" height="2.238" rx=".45" ry=".45"/>
		<rect x="23.913" y="54.255" width="2.238" height="2.238" rx=".45" ry=".45"/>
		<rect x="26.573" y="54.255" width="2.238" height="2.238" rx=".45" ry=".45"/>
		<rect x="21.255" y="56.936" width="2.238" height="2.238" rx=".45" ry=".45"/>
		<rect x="23.913" y="56.936" width="2.238" height="2.238" rx=".45" ry=".45"/>
		<rect x="26.573" y="56.936" width="2.238" height="2.238" rx=".45" ry=".45"/>
		<rect x="21.255" y="59.619" width="2.238" height="2.238" rx=".45" ry=".45"/>
		<rect x="23.913" y="59.619" width="2.238" height="2.238" rx=".45" ry=".45"/>
		<rect x="21.255" y="62.302" width="2.238" height="2.238" rx=".45" ry=".45"/>
		<rect x="23.913" y="62.302" width="2.238" height="2.238" rx=".45" ry=".45"/>
		<rect x="26.573" y="62.302" width="2.238" height="2.238" rx=".45" ry=".45"/>
		<rect x="29.231" y="56.936" width="2.238" height="2.238" rx=".45" ry=".45"/>
		<rect x="29.231" y="59.619" width="2.238" height="2.238" rx=".45" ry=".45"/>
		<rect x="29.231" y="62.302" width="2.238" height="2.238" rx=".45" ry=".45"/>
		<rect x="34.547" y="54.255" width="2.238" height="2.238" rx=".45" ry=".45"/>
		<rect x="37.205" y="54.255" width="2.238" height="2.238" rx=".45" ry=".45"/>
		<rect x="31.889" y="56.936" width="2.238" height="2.238" rx=".45" ry=".45"/>
		<rect x="34.547" y="56.936" width="2.238" height="2.238" rx=".45" ry=".45"/>
		<rect x="31.889" y="59.619" width="2.238" height="2.238" rx=".45" ry=".45"/>
		<rect x="37.205" y="59.619" width="2.238" height="2.238" rx=".45" ry=".45"/>
		<rect x="31.889" y="62.302" width="2.238" height="2.238" rx=".45" ry=".45"/>
		<rect x="39.863" y="56.936" width="2.238" height="2.238" rx=".45" ry=".45"/>
		<rect x="39.863" y="62.302" width="2.238" height="2.238" rx=".45" ry=".45"/>
		<rect x="39.863" y="40.844" width="2.238" height="2.238" rx=".45" ry=".45"/>
		<rect x="42.523" y="64.982" width="2.238" height="2.238" rx=".45" ry=".45"/>
		<rect x="45.181" y="67.665" width="2.238" height="2.238" rx=".45" ry=".45"/>
		<rect x="47.84" y="67.665" width="2.238" height="2.238" rx=".45" ry=".45"/>
		<rect x="42.523" y="70.347" width="2.238" height="2.238" rx=".45" ry=".45"/>
		<rect x="45.181" y="70.347" width="2.238" height="2.238" rx=".45" ry=".45"/>
		<rect x="50.498" y="70.347" width="2.238" height="2.238" rx=".45" ry=".45"/>
		<rect x="53.156" y="70.347" width="2.238" height="2.238" rx=".45" ry=".45"/>
		<rect x="61.13" y="64.982" width="2.238" height="2.238" rx=".45" ry=".45"/>
		<rect x="42.523" y="46.205" width="2.238" height="2.238" rx=".45" ry=".45"/>
		<rect x="42.523" y="48.887" width="2.238" height="2.238" rx=".45" ry=".45"/>
		<rect x="55.814" y="48.887" width="2.238" height="2.238" rx=".45" ry=".45"/>
		<rect x="58.474" y="48.887" width="2.238" height="2.238" rx=".45" ry=".45"/>
		<rect x="55.814" y="51.569" width="2.238" height="2.238" rx=".45" ry=".45"/>
		<rect x="45.181" y="56.936" width="2.238" height="2.238" rx=".45" ry=".45"/>
		<rect x="42.523" y="59.619" width="2.238" height="2.238" rx=".45" ry=".45"/>
		<rect x="45.181" y="59.619" width="2.238" height="2.238" rx=".45" ry=".45"/>
		<rect x="47.84" y="59.619" width="2.238" height="2.238" rx=".45" ry=".45"/>
		<rect x="42.523" y="62.302" width="2.238" height="2.238" rx=".45" ry=".45"/>
		<rect x="45.181" y="62.302" width="2.238" height="2.238" rx=".45" ry=".45"/>
		<rect x="50.498" y="56.936" width="2.238" height="2.238" rx=".45" ry=".45"/>
		<rect x="53.156" y="54.255" width="2.238" height="2.238" rx=".45" ry=".45"/>
		<rect x="55.814" y="54.255" width="2.238" height="2.238" rx=".45" ry=".45"/>
		<rect x="58.474" y="54.255" width="2.238" height="2.238" rx=".45" ry=".45"/>
		<rect x="58.474" y="59.619" width="2.238" height="2.238" rx=".45" ry=".45"/>
		<rect x="55.814" y="62.302" width="2.238" height="2.238" rx=".45" ry=".45"/>
		<rect x="58.474" y="62.302" width="2.238" height="2.238" rx=".45" ry=".45"/>
		<rect x="61.132" y="56.936" width="2.238" height="2.238" rx=".45" ry=".45"/>
		<rect x="61.132" y="59.619" width="2.238" height="2.238" rx=".45" ry=".45"/>
		<rect x="61.132" y="62.302" width="2.238" height="2.238" rx=".45" ry=".45"/>
		<rect x="55.814" y="38.161" width="2.238" height="2.238" rx=".45" ry=".45"/>
		<rect x="58.474" y="38.161" width="2.238" height="2.238" rx=".45" ry=".45"/>
		<rect x="53.156" y="40.844" width="2.238" height="2.238" rx=".45" ry=".45"/>
		<rect x="61.132" y="38.161" width="2.238" height="2.238" rx=".45" ry=".45"/>
		<rect x="63.788" y="64.982" width="2.238" height="2.238" rx=".45" ry=".45"/>
		<rect x="69.106" y="64.982" width="2.238" height="2.238" rx=".45" ry=".45"/>
		<rect x="66.446" y="67.665" width="2.238" height="2.238" rx=".45" ry=".45"/>
		<rect x="69.106" y="67.665" width="2.238" height="2.238" rx=".45" ry=".45"/>
		<rect x="69.106" y="70.347" width="2.238" height="2.238" rx=".45" ry=".45"/>
		<rect x="71.821" y="64.982" width="2.238" height="2.238" rx=".45" ry=".45"/>
		<rect x="74.515" y="64.982" width="2.238" height="2.238" rx=".45" ry=".45"/>
		<rect x="66.446" y="48.887" width="2.238" height="2.238" rx=".45" ry=".45"/>
		<rect x="63.788" y="56.936" width="2.238" height="2.238" rx=".45" ry=".45"/>
		<rect x="7.976" y="62.302" width="2.238" height="2.238" rx=".45" ry=".45"/>
		<rect x="15.951" y="56.936" width="2.238" height="2.238" rx=".45" ry=".45"/>
		<rect x="13.291" y="59.619" width="2.238" height="2.238" rx=".45" ry=".45"/>
		<rect x="15.951" y="59.619" width="2.238" height="2.238" rx=".45" ry=".45"/>
		<rect x="10.633" y="62.302" width="2.238" height="2.238" rx=".45" ry=".45"/>
		<rect x="13.291" y="62.302" width="2.238" height="2.238" rx=".45" ry=".45"/>
		<rect x="18.609" y="56.936" width="2.238" height="2.238" rx=".45" ry=".45"/>
		<rect x="18.609" y="59.619" width="2.238" height="2.238" rx=".45" ry=".45"/>
		<rect x="31.889" y="73.029" width="2.238" height="2.238" rx=".45" ry=".45"/>
		<rect x="39.863" y="73.029" width="2.238" height="2.238" rx=".45" ry=".45"/>
		<rect x="42.523" y="73.029" width="2.238" height="2.238" rx=".45" ry=".45"/>
		<rect x="45.181" y="73.029" width="2.238" height="2.238" rx=".45" ry=".45"/>
		<rect x="47.84" y="73.029" width="2.238" height="2.238" rx=".45" ry=".45"/>
		<rect x="47.84" y="75.715" width="2.238" height="2.238" rx=".45" ry=".45"/>
		<rect x="47.84" y="78.396" width="2.238" height="2.238" rx=".45" ry=".45"/>
		<rect x="50.498" y="78.396" width="2.238" height="2.238" rx=".45" ry=".45"/>
		<rect x="53.156" y="78.396" width="2.238" height="2.238" rx=".45" ry=".45"/>
		<rect x="55.814" y="78.396" width="2.238" height="2.238" rx=".45" ry=".45"/>
		<rect x="58.474" y="78.396" width="2.238" height="2.238" rx=".45" ry=".45"/>
		<rect x="58.474" y="81.079" width="2.238" height="2.238" rx=".45" ry=".45"/>
		<rect x="61.132" y="78.396" width="2.238" height="2.238" rx=".45" ry=".45"/>
		<rect x="77.231" y="70.347" width="2.238" height="2.238" rx=".45" ry=".45"/>
		<rect x="77.231" y="73.029" width="2.238" height="2.238" rx=".45" ry=".45"/>
		<rect x="63.788" y="75.715" width="2.238" height="2.238" rx=".45" ry=".45"/>
		<rect x="66.446" y="75.715" width="2.238" height="2.238" rx=".45" ry=".45"/>
		<rect x="63.788" y="78.396" width="2.238" height="2.238" rx=".45" ry=".45"/>
		<rect x="74.515" y="75.715" width="2.238" height="2.238" rx=".45" ry=".45"/>
		<rect x="5.318" y="62.302" width="2.238" height="2.238" rx=".45" ry=".45"/>
	</g>
	<g fill="#addb6b">
		<rect x="37.205" y="27.429" width="2.238" height="2.238" rx=".45" ry=".45"/>
		<rect x="39.863" y="24.746" width="2.238" height="2.238" rx=".45" ry=".45"/>
		<rect x="39.863" y="27.429" width="2.238" height="2.238" rx=".45" ry=".45"/>
		<rect x="39.863" y="35.478" width="2.238" height="2.238" rx=".45" ry=".45"/>
		<rect x="39.863" y="32.797" width="2.238" height="2.238" rx=".45" ry=".45"/>
		<rect x="29.231" y="19.386" width="2.238" height="2.238" rx=".45" ry=".45"/>
		<rect x="34.547" y="14.022" width="2.238" height="2.238" rx=".45" ry=".45"/>
		<rect x="31.889" y="16.703" width="2.238" height="2.238" rx=".45" ry=".45"/>
		<rect x="34.547" y="16.703" width="2.238" height="2.238" rx=".45" ry=".45"/>
		<rect x="37.205" y="16.703" width="2.238" height="2.238" rx=".45" ry=".45"/>
		<rect x="34.547" y="19.386" width="2.238" height="2.238" rx=".45" ry=".45"/>
		<rect x="39.863" y="14.022" width="2.238" height="2.238" rx=".45" ry=".45"/>
		<rect x="39.863" y="16.703" width="2.238" height="2.238" rx=".45" ry=".45"/>
		<rect x="39.863" y="19.386" width="2.238" height="2.238" rx=".45" ry=".45"/>
		<rect x="42.523" y="22.063" width="2.238" height="2.238" rx=".45" ry=".45"/>
		<rect x="45.181" y="22.063" width="2.238" height="2.238" rx=".45" ry=".45"/>
		<rect x="42.523" y="24.746" width="2.238" height="2.238" rx=".45" ry=".45"/>
		<rect x="42.523" y="30.112" width="2.238" height="2.238" rx=".45" ry=".45"/>
		<rect x="47.84" y="30.112" width="2.238" height="2.238" rx=".45" ry=".45"/>
		<rect x="50.498" y="24.746" width="2.238" height="2.238" rx=".45" ry=".45"/>
		<rect x="50.498" y="30.112" width="2.238" height="2.238" rx=".45" ry=".45"/>
		<rect x="53.156" y="22.063" width="2.238" height="2.238" rx=".45" ry=".45"/>
		<rect x="55.814" y="22.063" width="2.238" height="2.238" rx=".45" ry=".45"/>
		<rect x="53.156" y="27.429" width="2.238" height="2.238" rx=".45" ry=".45"/>
		<rect x="55.814" y="27.429" width="2.238" height="2.238" rx=".45" ry=".45"/>
		<rect x="58.474" y="27.429" width="2.238" height="2.238" rx=".45" ry=".45"/>
		<rect x="53.156" y="30.112" width="2.238" height="2.238" rx=".45" ry=".45"/>
		<rect x="61.13" y="22.063" width="2.238" height="2.238" rx=".45" ry=".45"/>
		<rect x="42.523" y="32.797" width="2.238" height="2.238" rx=".45" ry=".45"/>
		<rect x="50.498" y="35.478" width="2.238" height="2.238" rx=".45" ry=".45"/>
		<rect x="50.498" y="32.797" width="2.238" height="2.238" rx=".45" ry=".45"/>
		<rect x="53.156" y="32.797" width="2.238" height="2.238" rx=".45" ry=".45"/>
		<rect x="55.814" y="32.797" width="2.238" height="2.238" rx=".45" ry=".45"/>
		<rect x="58.474" y="32.797" width="2.238" height="2.238" rx=".45" ry=".45"/>
		<rect x="53.156" y="35.478" width="2.238" height="2.238" rx=".45" ry=".45"/>
		<rect x="55.814" y="35.478" width="2.238" height="2.238" rx=".45" ry=".45"/>
		<rect x="61.13" y="32.797" width="2.238" height="2.238" rx=".45" ry=".45"/>
		<rect x="42.523" y="8.654" width="2.238" height="2.238" rx=".45" ry=".45"/>
		<rect x="47.84" y="8.654" width="2.238" height="2.238" rx=".45" ry=".45"/>
		<rect x="42.523" y="11.339" width="2.238" height="2.238" rx=".45" ry=".45"/>
		<rect x="47.84" y="11.339" width="2.238" height="2.238" rx=".45" ry=".45"/>
		<rect x="42.523" y="14.022" width="2.238" height="2.238" rx=".45" ry=".45"/>
		<rect x="47.84" y="14.022" width="2.238" height="2.238" rx=".45" ry=".45"/>
		<rect x="42.523" y="16.703" width="2.238" height="2.238" rx=".45" ry=".45"/>
		<rect x="45.181" y="16.703" width="2.238" height="2.238" rx=".45" ry=".45"/>
		<rect x="47.84" y="16.703" width="2.238" height="2.238" rx=".45" ry=".45"/>
		<rect x="42.523" y="19.386" width="2.238" height="2.238" rx=".45" ry=".45"/>
		<rect x="45.181" y="19.386" width="2.238" height="2.238" rx=".45" ry=".45"/>
		<rect x="47.84" y="19.386" width="2.238" height="2.238" rx=".45" ry=".45"/>
		<rect x="50.498" y="14.022" width="2.238" height="2.238" rx=".45" ry=".45"/>
		<rect x="50.498" y="16.703" width="2.238" height="2.238" rx=".45" ry=".45"/>
		<rect x="50.498" y="19.386" width="2.238" height="2.238" rx=".45" ry=".45"/>
		<rect x="50.498" y="11.339" width="2.238" height="2.238" rx=".45" ry=".45"/>
		<rect x="53.156" y="11.339" width="2.238" height="2.238" rx=".45" ry=".45"/>
		<rect x="53.156" y="14.022" width="2.238" height="2.238" rx=".45" ry=".45"/>
		<rect x="55.814" y="14.022" width="2.238" height="2.238" rx=".45" ry=".45"/>
		<rect x="53.156" y="16.703" width="2.238" height="2.238" rx=".45" ry=".45"/>
		<rect x="55.814" y="16.703" width="2.238" height="2.238" rx=".45" ry=".45"/>
		<rect x="53.156" y="19.386" width="2.238" height="2.238" rx=".45" ry=".45"/>
		<rect x="55.814" y="19.386" width="2.238" height="2.238" rx=".45" ry=".45"/>
		<rect x="58.474" y="19.386" width="2.238" height="2.238" rx=".45" ry=".45"/>
		<rect x="61.132" y="14.022" width="2.238" height="2.238" rx=".45" ry=".45"/>
		<rect x="61.132" y="16.703" width="2.238" height="2.238" rx=".45" ry=".45"/>
		<rect x="61.132" y="19.386" width="2.238" height="2.238" rx=".45" ry=".45"/>
		<rect x="61.13" y="11.339" width="2.238" height="2.238" rx=".45" ry=".45"/>
		<rect x="63.788" y="14.022" width="2.238" height="2.238" rx=".45" ry=".45"/>
		<rect x="63.788" y="16.703" width="2.238" height="2.238" rx=".45" ry=".45"/>
		<rect x="37.205" y="48.887" width="2.238" height="2.238" rx=".45" ry=".45"/>
		<rect x="34.547" y="51.569" width="2.238" height="2.238" rx=".45" ry=".45"/>
		<rect x="26.573" y="59.619" width="2.238" height="2.238" rx=".45" ry=".45"/>
		<rect x="29.231" y="54.255" width="2.238" height="2.238" rx=".45" ry=".45"/>
		<rect x="31.889" y="54.255" width="2.238" height="2.238" rx=".45" ry=".45"/>
		<rect x="37.205" y="56.936" width="2.238" height="2.238" rx=".45" ry=".45"/>
		<rect x="34.547" y="59.619" width="2.238" height="2.238" rx=".45" ry=".45"/>
		<rect x="34.547" y="62.302" width="2.238" height="2.238" rx=".45" ry=".45"/>
		<rect x="37.205" y="62.302" width="2.238" height="2.238" rx=".45" ry=".45"/>
		<rect x="39.863" y="59.619" width="2.238" height="2.238" rx=".45" ry=".45"/>
		<rect x="39.863" y="54.255" width="2.238" height="2.238" rx=".45" ry=".45"/>
		<rect x="45.181" y="64.982" width="2.238" height="2.238" rx=".45" ry=".45"/>
		<rect x="47.84" y="64.982" width="2.238" height="2.238" rx=".45" ry=".45"/>
		<rect x="42.523" y="67.665" width="2.238" height="2.238" rx=".45" ry=".45"/>
		<rect x="47.84" y="70.347" width="2.238" height="2.238" rx=".45" ry=".45"/>
		<rect x="50.498" y="67.665" width="2.238" height="2.238" rx=".45" ry=".45"/>
		<rect x="50.498" y="64.982" width="2.238" height="2.238" rx=".45" ry=".45"/>
		<rect x="53.156" y="67.665" width="2.238" height="2.238" rx=".45" ry=".45"/>
		<rect x="55.814" y="67.665" width="2.238" height="2.238" rx=".45" ry=".45"/>
		<rect x="58.474" y="67.665" width="2.238" height="2.238" rx=".45" ry=".45"/>
		<rect x="55.814" y="70.347" width="2.238" height="2.238" rx=".45" ry=".45"/>
		<rect x="58.474" y="70.347" width="2.238" height="2.238" rx=".45" ry=".45"/>
		<rect x="61.132" y="67.665" width="2.238" height="2.238" rx=".45" ry=".45"/>
		<rect x="61.132" y="70.347" width="2.238" height="2.238" rx=".45" ry=".45"/>
		<rect x="42.523" y="43.522" width="2.238" height="2.238" rx=".45" ry=".45"/>
		<rect x="45.181" y="43.522" width="2.238" height="2.238" rx=".45" ry=".45"/>
		<rect x="47.84" y="46.205" width="2.238" height="2.238" rx=".45" ry=".45"/>
		<rect x="45.181" y="48.887" width="2.238" height="2.238" rx=".45" ry=".45"/>
		<rect x="47.84" y="48.887" width="2.238" height="2.238" rx=".45" ry=".45"/>
		<rect x="42.523" y="51.569" width="2.238" height="2.238" rx=".45" ry=".45"/>
		<rect x="45.181" y="51.569" width="2.238" height="2.238" rx=".45" ry=".45"/>
		<rect x="50.498" y="46.205" width="2.238" height="2.238" rx=".45" ry=".45"/>
		<rect x="50.498" y="48.887" width="2.238" height="2.238" rx=".45" ry=".45"/>
		<rect x="50.498" y="43.522" width="2.238" height="2.238" rx=".45" ry=".45"/>
		<rect x="53.156" y="43.522" width="2.238" height="2.238" rx=".45" ry=".45"/>
		<rect x="55.814" y="43.522" width="2.238" height="2.238" rx=".45" ry=".45"/>
		<rect x="58.474" y="43.522" width="2.238" height="2.238" rx=".45" ry=".45"/>
		<rect x="53.156" y="46.205" width="2.238" height="2.238" rx=".45" ry=".45"/>
		<rect x="55.814" y="46.205" width="2.238" height="2.238" rx=".45" ry=".45"/>
		<rect x="58.474" y="46.205" width="2.238" height="2.238" rx=".45" ry=".45"/>
		<rect x="53.156" y="48.887" width="2.238" height="2.238" rx=".45" ry=".45"/>
		<rect x="53.156" y="51.569" width="2.238" height="2.238" rx=".45" ry=".45"/>
		<rect x="58.474" y="51.569" width="2.238" height="2.238" rx=".45" ry=".45"/>
		<rect x="61.132" y="46.205" width="2.238" height="2.238" rx=".45" ry=".45"/>
		<rect x="61.132" y="48.887" width="2.238" height="2.238" rx=".45" ry=".45"/>
		<rect x="61.132" y="51.569" width="2.238" height="2.238" rx=".45" ry=".45"/>
		<rect x="61.13" y="43.522" width="2.238" height="2.238" rx=".45" ry=".45"/>
		<rect x="42.523" y="54.255" width="2.238" height="2.238" rx=".45" ry=".45"/>
		<rect x="45.181" y="54.255" width="2.238" height="2.238" rx=".45" ry=".45"/>
		<rect x="47.84" y="54.255" width="2.238" height="2.238" rx=".45" ry=".45"/>
		<rect x="42.523" y="56.936" width="2.238" height="2.238" rx=".45" ry=".45"/>
		<rect x="47.84" y="56.936" width="2.238" height="2.238" rx=".45" ry=".45"/>
		<rect x="47.84" y="62.302" width="2.238" height="2.238" rx=".45" ry=".45"/>
		<rect x="50.498" y="59.619" width="2.238" height="2.238" rx=".45" ry=".45"/>
		<rect x="50.498" y="62.302" width="2.238" height="2.238" rx=".45" ry=".45"/>
		<rect x="50.498" y="54.255" width="2.238" height="2.238" rx=".45" ry=".45"/>
		<rect x="53.156" y="56.936" width="2.238" height="2.238" rx=".45" ry=".45"/>
		<rect x="55.814" y="56.936" width="2.238" height="2.238" rx=".45" ry=".45"/>
		<rect x="58.474" y="56.936" width="2.238" height="2.238" rx=".45" ry=".45"/>
		<rect x="53.156" y="59.619" width="2.238" height="2.238" rx=".45" ry=".45"/>
		<rect x="55.814" y="59.619" width="2.238" height="2.238" rx=".45" ry=".45"/>
		<rect x="53.156" y="62.302" width="2.238" height="2.238" rx=".45" ry=".45"/>
		<rect x="61.13" y="54.255" width="2.238" height="2.238" rx=".45" ry=".45"/>
		<rect x="42.523" y="38.161" width="2.238" height="2.238" rx=".45" ry=".45"/>
		<rect x="45.181" y="38.161" width="2.238" height="2.238" rx=".45" ry=".45"/>
		<rect x="47.84" y="38.161" width="2.238" height="2.238" rx=".45" ry=".45"/>
		<rect x="42.523" y="40.844" width="2.238" height="2.238" rx=".45" ry=".45"/>
		<rect x="47.84" y="40.844" width="2.238" height="2.238" rx=".45" ry=".45"/>
		<rect x="50.498" y="38.161" width="2.238" height="2.238" rx=".45" ry=".45"/>
		<rect x="50.498" y="40.844" width="2.238" height="2.238" rx=".45" ry=".45"/>
		<rect x="53.156" y="38.161" width="2.238" height="2.238" rx=".45" ry=".45"/>
		<rect x="55.814" y="40.844" width="2.238" height="2.238" rx=".45" ry=".45"/>
		<rect x="58.474" y="40.844" width="2.238" height="2.238" rx=".45" ry=".45"/>
		<rect x="61.132" y="40.844" width="2.238" height="2.238" rx=".45" ry=".45"/>
		<rect x="66.446" y="64.982" width="2.238" height="2.238" rx=".45" ry=".45"/>
		<rect x="63.788" y="67.665" width="2.238" height="2.238" rx=".45" ry=".45"/>
		<rect x="63.788" y="70.347" width="2.238" height="2.238" rx=".45" ry=".45"/>
		<rect x="66.446" y="70.347" width="2.238" height="2.238" rx=".45" ry=".45"/>
		<rect x="63.788" y="43.522" width="2.238" height="2.238" rx=".45" ry=".45"/>
		<rect x="63.788" y="46.205" width="2.238" height="2.238" rx=".45" ry=".45"/>
		<rect x="66.446" y="46.205" width="2.238" height="2.238" rx=".45" ry=".45"/>
		<rect x="69.106" y="46.205" width="2.238" height="2.238" rx=".45" ry=".45"/>
		<rect x="69.106" y="48.887" width="2.238" height="2.238" rx=".45" ry=".45"/>
		<rect x="63.788" y="51.569" width="2.238" height="2.238" rx=".45" ry=".45"/>
		<rect x="63.788" y="54.255" width="2.238" height="2.238" rx=".45" ry=".45"/>
		<rect x="66.446" y="54.255" width="2.238" height="2.238" rx=".45" ry=".45"/>
		<rect x="66.446" y="56.936" width="2.238" height="2.238" rx=".45" ry=".45"/>
		<rect x="63.788" y="59.619" width="2.238" height="2.238" rx=".45" ry=".45"/>
		<rect x="63.788" y="62.302" width="2.238" height="2.238" rx=".45" ry=".45"/>
		<rect x="66.446" y="62.302" width="2.238" height="2.238" rx=".45" ry=".45"/>
		<rect x="63.788" y="38.161" width="2.238" height="2.238" rx=".45" ry=".45"/>
		<rect x="66.446" y="38.161" width="2.238" height="2.238" rx=".45" ry=".45"/>
		<rect x="15.951" y="62.302" width="2.238" height="2.238" rx=".45" ry=".45"/>
		<rect x="18.609" y="62.302" width="2.238" height="2.238" rx=".45" ry=".45"/>
		<rect x="58.474" y="64.982" width="2.238" height="2.238" rx=".45" ry=".45"/>
		<rect x="50.498" y="73.029" width="2.238" height="2.238" rx=".45" ry=".45"/>
		<rect x="53.156" y="73.029" width="2.238" height="2.238" rx=".45" ry=".45"/>
		<rect x="55.814" y="73.029" width="2.238" height="2.238" rx=".45" ry=".45"/>
		<rect x="58.474" y="73.029" width="2.238" height="2.238" rx=".45" ry=".45"/>
		<rect x="61.132" y="73.029" width="2.238" height="2.238" rx=".45" ry=".45"/>
		<rect x="50.498" y="75.715" width="2.238" height="2.238" rx=".45" ry=".45"/>
		<rect x="53.156" y="75.715" width="2.238" height="2.238" rx=".45" ry=".45"/>
		<rect x="55.814" y="75.715" width="2.238" height="2.238" rx=".45" ry=".45"/>
		<rect x="58.474" y="75.715" width="2.238" height="2.238" rx=".45" ry=".45"/>
		<rect x="61.13" y="75.715" width="2.238" height="2.238" rx=".45" ry=".45"/>
		<rect x="63.788" y="73.029" width="2.238" height="2.238" rx=".45" ry=".45"/>
		<rect x="66.446" y="73.029" width="2.238" height="2.238" rx=".45" ry=".45"/>
	</g>
	<g fill="#edfa9e">
		<rect x="37.205" y="14.022" width="2.238" height="2.238" rx=".45" ry=".45"/>
		<rect x="39.863" y="11.339" width="2.238" height="2.238" rx=".45" ry=".45"/>
		<rect x="47.84" y="22.063" width="2.238" height="2.238" rx=".45" ry=".45"/>
		<rect x="45.181" y="24.746" width="2.238" height="2.238" rx=".45" ry=".45"/>
		<rect x="47.84" y="27.429" width="2.238" height="2.238" rx=".45" ry=".45"/>
		<rect x="45.181" y="30.112" width="2.238" height="2.238" rx=".45" ry=".45"/>
		<rect x="50.498" y="27.429" width="2.238" height="2.238" rx=".45" ry=".45"/>
		<rect x="58.474" y="22.063" width="2.238" height="2.238" rx=".45" ry=".45"/>
		<rect x="53.156" y="24.746" width="2.238" height="2.238" rx=".45" ry=".45"/>
		<rect x="55.814" y="24.746" width="2.238" height="2.238" rx=".45" ry=".45"/>
		<rect x="53.156" y="64.982" width="2.238" height="2.238" rx=".45" ry=".45"/>
		<rect x="55.814" y="64.982" width="2.238" height="2.238" rx=".45" ry=".45"/>
		<rect x="47.84" y="43.522" width="2.238" height="2.238" rx=".45" ry=".45"/>
		<rect x="45.181" y="46.205" width="2.238" height="2.238" rx=".45" ry=".45"/>
		<rect x="47.84" y="51.569" width="2.238" height="2.238" rx=".45" ry=".45"/>
		<rect x="50.498" y="51.569" width="2.238" height="2.238" rx=".45" ry=".45"/>
		<rect x="45.181" y="40.844" width="2.238" height="2.238" rx=".45" ry=".45"/>
		<rect x="63.788" y="48.887" width="2.238" height="2.238" rx=".45" ry=".45"/>
	</g>
</svg>