<?xml version="1.0" ?>
<!-- Generator: Adobe Illustrator 18.0.0, SVG Export Plug-In . SVG Version: 6.00 Build 0)  -->

<svg xmlns="http://www.w3.org/2000/svg"  viewBox="-32 -32 1360 320">
	<g id="white">
		<g>
			<rect y="0" fill="#FFFFFF" width="128" height="128"/>
		</g>
	</g>
	<g id="black">
		<g>
			<rect y="128" fill="#333333" width="128" height="128"/>
		</g>
	</g>
	<g id="gray">
		<g>
			<rect x="128" y="128" fill="#EEEEEE" width="128" height="128"/>
		</g>
	</g>
	<g id="blue">
		<g>
			<rect x="128" y="0" fill="#3399FF" width="128" height="128"/>
		</g>
	</g>
	<g>
		<path fill="#3399FF" d="M 400.8,77.1 C 416.7,77.1 427.3,81.6 432.6,90.7 C 437.9,99.8 440.6,112.8 440.6,129.7 C 440.6,142.0 438.8,152.5 435.3,161.4 C 428.8,177.6 417.3,185.7 400.8,185.7 L 368.6,185.7 L 368.6,77.1 L 400.8,77.1 M 406.7,48.2 L 334.7,48.2 L 334.7,214.6 L 406.7,214.6 C 432.0,214.6 450.6,204.3 462.7,183.6 C 471.6,168.2 476.1,149.5 476.1,127.4 C 476.1,118.7 475.0,109.5 472.9,99.9 C 470.8,90.3 466.8,81.3 461.0,73.0 C 453.7,62.8 444.3,55.7 432.5,51.9 C 425.6,49.6 417.0,48.4 406.7,48.2 L 406.7,48.2"/>
		<path fill="#3399FF" d="M 549.3,114.8 C 556.9,114.8 563.3,117.0 568.5,121.4 C 573.6,125.8 576.5,132.3 577.1,140.8 L 521.5,140.8 C 522.7,132.8 525.5,126.4 530.1,121.8 C 534.6,117.2 541.0,114.8 549.3,114.8 L 549.3,114.8 M 549.3,88.3 C 531.2,88.3 516.5,94.0 505.1,105.4 C 493.8,116.8 488.1,133.1 488.1,154.4 C 488.1,177.2 494.4,193.6 506.9,203.7 C 519.5,213.8 534.0,218.8 550.4,218.8 C 570.3,218.8 585.8,212.8 596.9,200.8 C 604.0,193.3 608.0,185.9 608.9,178.6 L 575.9,178.6 C 574.0,182.2 571.8,185.0 569.3,187.1 C 564.7,190.9 558.7,192.7 551.4,192.7 C 544.5,192.7 538.5,191.2 533.6,188.1 C 525.5,183.1 521.2,174.5 520.7,162.1 L 610.7,162.1 C 610.9,151.5 610.5,143.3 609.6,137.7 C 608.1,128.1 604.8,119.6 599.8,112.3 C 594.2,104.0 587.1,97.9 578.5,94.1 C 569.8,90.2 560.1,88.3 549.3,88.3 L 549.3,88.3"/>
		<path fill="#3399FF" d="M 660.1,48.2 L 627.8,48.2 L 627.8,214.6 L 660.1,214.6 L 660.1,48.2"/>
		<path fill="#3399FF" d="M 715.9,47.2 L 683.1,47.2 L 683.1,76.9 L 715.9,76.9 L 715.9,47.2 M 683.1,214.6 L 715.9,214.6 L 715.9,91.6 L 683.1,91.6 L 683.1,214.6"/>
		<path fill="#3399FF" d="M 846.6,135.7 C 844.8,118.2 838.9,105.9 829.1,99.0 C 819.2,92.1 806.5,88.6 791.0,88.6 C 772.8,88.6 758.5,94.5 748.1,106.2 C 737.7,117.9 732.6,134.4 732.6,155.5 C 732.6,174.2 737.3,189.4 746.7,201.2 C 756.1,212.9 770.7,218.8 790.6,218.8 C 810.5,218.8 825.5,211.8 835.6,197.7 C 842.0,189.0 845.5,179.7 846.3,169.9 L 813.3,169.9 C 812.6,176.4 810.7,181.6 807.5,185.7 C 804.3,189.8 798.9,191.8 791.4,191.8 C 780.7,191.8 773.5,186.7 769.6,176.4 C 767.5,170.9 766.4,163.7 766.4,154.7 C 766.4,145.2 767.5,137.7 769.6,132.0 C 773.6,121.2 781.1,115.9 792.0,115.9 C 799.6,115.9 805.3,118.4 808.9,123.4 C 811.4,127.1 813.0,131.2 813.6,135.8 L 846.6,135.8 L 846.6,135.7"/>
		<path fill="#3399FF" d="M 894.2,47.2 L 861.4,47.2 L 861.4,76.9 L 894.2,76.9 L 894.2,47.2 M 861.5,214.6 L 894.3,214.6 L 894.3,91.6 L 861.5,91.6 L 861.5,214.6"/>
		<path fill="#3399FF" d="M 973.4,191.8 C 964.0,191.8 956.7,188.5 951.6,181.8 C 946.5,175.1 944.0,165.6 944.0,153.3 C 944.0,141.0 946.5,131.5 951.6,124.8 C 956.7,118.1 964.0,114.8 973.4,114.8 C 982.8,114.8 990.1,118.1 995.2,124.8 C 1000.3,131.5 1002.8,140.9 1002.8,153.3 C 1002.8,165.6 1000.3,175.1 995.2,181.8 C 990.1,188.5 982.8,191.8 973.4,191.8 L 973.4,191.8 M 1036.6,153.3 C 1036.6,135.6 1031.4,120.2 1021.0,107.2 C 1010.6,94.2 994.7,87.7 973.5,87.7 C 952.3,87.7 936.4,94.2 926.0,107.2 C 915.6,120.2 910.4,135.6 910.4,153.3 C 910.4,171.3 915.6,186.8 926.0,199.6 C 936.4,212.4 952.3,218.8 973.5,218.8 C 994.7,218.8 1010.6,212.4 1021.0,199.6 C 1031.4,186.8 1036.6,171.3 1036.6,153.3 L 1036.6,153.3"/>
		<path fill="#3399FF" d="M 1053.9,91.6 L 1053.9,165.8 C 1053.9,179.9 1055.7,190.5 1059.2,197.8 C 1065.5,210.9 1077.8,217.4 1096.0,217.4 C 1102.3,217.4 1107.8,216.6 1112.6,214.9 C 1117.3,213.2 1122.2,210.2 1127.2,205.6 C 1128.9,204.2 1130.3,202.5 1131.5,200.6 C 1132.7,198.7 1133.5,197.6 1133.8,197.2 L 1133.8,214.6 L 1165.2,214.6 L 1165.2,91.6 L 1132.4,91.6 L 1132.4,158.5 C 1132.4,166.4 1131.3,172.8 1129.2,177.6 C 1125.1,186.5 1117.6,190.9 1106.6,190.9 C 1098.0,190.9 1092.3,187.8 1089.3,181.5 C 1087.6,178.0 1086.8,172.7 1086.8,165.7 L 1086.8,91.6 L 1053.9,91.6"/>
		<path fill="#3399FF" d="M 1183.8,175.3 C 1183.8,187.9 1188.4,198.4 1197.7,206.5 C 1207.0,214.7 1221.3,218.7 1240.8,218.7 C 1259.9,218.7 1274.0,214.8 1283.1,207.1 C 1292.2,199.4 1296.8,189.4 1296.8,177.2 C 1296.8,167.9 1293.6,160.2 1287.3,154.1 C 1280.9,148.0 1271.2,143.5 1258.4,140.4 C 1239.1,136.2 1227.9,133.2 1224.7,131.5 C 1221.5,129.8 1219.9,127.2 1219.9,123.5 C 1219.9,120.6 1221.4,118.0 1224.4,115.8 C 1227.4,113.6 1232.4,112.5 1239.5,112.5 C 1248.1,112.5 1254.1,114.7 1257.7,119.0 C 1259.6,121.4 1260.8,124.7 1261.2,128.8 L 1293.5,128.8 C 1292.1,113.7 1286.5,103.2 1276.7,97.0 C 1267.0,90.9 1254.4,87.8 1238.9,87.8 C 1222.6,87.8 1210.0,91.9 1201.0,100.0 C 1192.0,108.2 1187.5,117.9 1187.5,129.3 C 1187.5,138.9 1190.4,146.3 1196.1,151.4 C 1201.8,156.6 1211.7,160.9 1225.8,164.4 C 1245.3,169.0 1256.6,172.2 1259.6,174.1 C 1262.6,176.0 1264.1,178.7 1264.1,182.3 C 1264.1,186.1 1262.2,188.9 1258.5,190.8 C 1254.7,192.7 1249.7,193.6 1243.3,193.6 C 1232.4,193.6 1225.0,191.5 1221.0,187.2 C 1218.7,184.8 1217.2,180.7 1216.6,175.0 L 1183.8,175.0 L 1183.8,175.3"/>
	</g>
</svg>