<?xml version="1.0" encoding="UTF-8"?>
<svg id="Layer_1" data-name="Layer 1" xmlns="http://www.w3.org/2000/svg" viewBox="0 0 40.31 50.08">
  <defs>
    <style>
      .cls-1 {
        fill: #4bc4d4;
        fill-rule: evenodd;
      }
    </style>
  </defs>
  <path class="cls-1" d="M28.2,17.73v8.77c0,.96-.79,1.75-1.75,1.75H13.86c-.96,0-1.75-.79-1.75-1.75v-8.77c0-.53,.21-.99,.61-1.33l6.29-5.37c.66-.56,1.61-.56,2.27,0l6.29,5.37c.4,.34,.61,.8,.61,1.33h.02Zm-8.45,1.93v-1.85c0-.29-.24-.54-.54-.54h-1.85c-.29,0-.54,.24-.54,.54v1.85c0,.29,.24,.54,.54,.54h1.85c.29,0,.54-.24,.54-.54h0Zm0,3.74v-1.85c0-.29-.24-.54-.54-.54h-1.85c-.29,0-.54,.24-.54,.54v1.85c0,.29,.24,.54,.54,.54h1.85c.29,0,.54-.24,.54-.54h0Zm3.2-2.38h-1.85c-.29,0-.54,.24-.54,.54v1.85c0,.29,.24,.54,.54,.54h1.85c.29,0,.54-.24,.54-.54v-1.85c0-.29-.24-.54-.54-.54h0Zm-2.38-3.2v1.85c0,.29,.24,.54,.54,.54h1.85c.29,0,.54-.24,.54-.54v-1.85c0-.29-.24-.54-.54-.54h-1.85c-.29,0-.54,.24-.54,.54h0Z"/>
  <path class="cls-1" d="M8.86,29.22v8.99c3.48,3.95,7.25,7.76,10.7,11.6,.16,.18,.36,.27,.6,.27s.44-.09,.6-.27c2.69-3,5.48-5.97,8.22-8.98-6.7-3.87-13.41-7.74-20.11-11.61h-.01ZM18.35,6.53L10.9,2.23C5.24,5.14,1.24,10.68,.25,16.99c6.04-3.48,12.07-6.97,18.11-10.45h0l-.01-.01ZM.02,19.2c-.21,4.52,1.08,9.1,3.86,12.9,1,1.36,2.06,2.7,3.17,4.02V15.14L.02,19.2H.02Z"/>
  <path class="cls-1" d="M21.96,34.7l8.25,4.76c4.05-4.51,8.38-8.97,9.67-15.11-5.97,3.45-11.95,6.9-17.92,10.34h0v.01ZM31.45,12.01V3.44C25.95-.28,18.99-.98,12.93,1.32c6.17,3.56,12.35,7.13,18.52,10.69h0Zm1.8,14.08l6.97-4.02c.55-5.79-1.39-11.78-5.8-16.19-.38-.38-.77-.74-1.17-1.08V26.1h0v-.01Z"/>
</svg>