<?xml version="1.0" ?>
<svg xmlns="http://www.w3.org/2000/svg" data-icon="customers/debitroom" viewBox="0 0 145 27">
	<g fill="none">
		<g clip-path="url(#a)" fill="#000">
			<path d="M33.49 16.588c0-2.107.453-3.83 1.358-5.123.904-1.293 2.166-1.94 3.785-1.94.762 0 1.453.144 2.048.431a4.229 4.229 0 0 1 1.524 1.245V3.947h2.38v18.985h-1.952l-.285-1.628a4.427 4.427 0 0 1-1.572 1.413c-.619.311-1.333.479-2.167.479-1.595 0-2.857-.575-3.761-1.748-.905-1.173-1.358-2.705-1.358-4.597v-.263Zm2.381.263c0 1.341.262 2.37.81 3.185.548.79 1.38 1.197 2.524 1.197.714 0 1.31-.144 1.785-.48.477-.334.881-.79 1.191-1.364v-6.153c-.31-.55-.69-.981-1.19-1.293-.5-.31-1.072-.478-1.762-.478-1.143 0-2 .478-2.548 1.436-.548.934-.81 2.179-.81 3.687v.263Zm17.691 6.345c-1.833 0-3.262-.623-4.357-1.844-1.072-1.197-1.62-2.8-1.62-4.74v-.527c0-1.891.548-3.447 1.667-4.692 1.096-1.245 2.43-1.868 3.953-1.868 1.762 0 3.095.527 4 1.604.905 1.078 1.357 2.49 1.357 4.262v1.508h-8.5l-.024.048c.024 1.269.334 2.299.953 3.113.619.814 1.476 1.22 2.571 1.22.81 0 1.524-.095 2.12-.335a5.07 5.07 0 0 0 1.594-.957l.929 1.556c-.476.479-1.095.862-1.857 1.173-.762.311-1.69.479-2.786.479Zm-.357-11.803c-.81 0-1.476.335-2.048 1.005-.571.67-.904 1.533-1.047 2.538l.023.072h6.048v-.335c0-.934-.238-1.724-.738-2.347-.524-.598-1.262-.933-2.238-.933Zm19.215 5.458c0 1.892-.453 3.424-1.358 4.597-.905 1.173-2.167 1.748-3.738 1.748-.881 0-1.62-.192-2.262-.527-.643-.335-1.167-.838-1.595-1.484l-.286 1.723h-1.952V3.948h2.38v7.373a4.11 4.11 0 0 1 1.524-1.34c.62-.312 1.334-.456 2.143-.456 1.596 0 2.881.647 3.762 1.94.905 1.292 1.357 2.992 1.357 5.123l.024.263Zm-2.382-.263c0-1.508-.286-2.73-.833-3.687-.548-.958-1.405-1.436-2.524-1.436-.738 0-1.357.167-1.857.55-.5.36-.905.838-1.214 1.46v5.699c.31.646.714 1.149 1.214 1.532.5.359 1.119.55 1.88.55 1.12 0 1.953-.407 2.5-1.22.548-.79.834-1.844.834-3.185v-.263ZM77.919 6.39h-2.38V3.946h2.38V6.39Zm0 16.542h-2.38V9.765h2.38v13.167Zm6.81-16.352v3.185h2.5v1.771h-2.5v7.997c0 .622.142 1.053.38 1.316.239.24.596.36 1 .36.143 0 .286 0 .477-.048.166-.024.31-.072.452-.12l.31 1.628c-.167.144-.429.287-.786.383-.333.096-.69.144-1.024.144-.976 0-1.738-.288-2.31-.886-.57-.599-.88-1.508-.88-2.777v-7.997h-2.072V9.765h2.072V6.58h2.38Zm11.619 5.292-1.215-.072c-.619 0-1.142.167-1.571.455-.429.287-.762.718-1 1.268v9.41h-2.381V9.764h2.12l.237 1.939c.381-.694.834-1.221 1.381-1.604.548-.383 1.167-.575 1.905-.575.167 0 .357.024.5.048.143.024.286.072.405.096l-.381 2.203Zm1.5 4.357c0-1.94.523-3.543 1.571-4.812 1.048-1.27 2.476-1.892 4.286-1.892 1.809 0 3.238.623 4.309 1.892 1.048 1.269 1.572 2.873 1.572 4.812v.263c0 1.963-.524 3.567-1.572 4.812-1.047 1.27-2.476 1.892-4.285 1.892-1.81 0-3.238-.623-4.286-1.892-1.048-1.244-1.572-2.849-1.572-4.812l-.023-.263Zm2.381.24c0 1.412.285 2.561.881 3.47.595.91 1.452 1.342 2.595 1.342 1.143 0 2-.455 2.595-1.341.595-.91.881-2.06.881-3.472v-.263c0-1.389-.286-2.538-.881-3.448-.595-.91-1.476-1.364-2.595-1.364-1.119 0-2 .455-2.595 1.364-.596.91-.881 2.06-.881 3.448v.263Zm11.714-.24c0-1.94.524-3.543 1.571-4.812 1.048-1.27 2.476-1.892 4.286-1.892 1.81 0 3.238.623 4.31 1.892 1.047 1.269 1.571 2.873 1.571 4.812v.263c0 1.963-.524 3.567-1.571 4.812-1.048 1.27-2.477 1.892-4.286 1.892-1.81 0-3.238-.623-4.286-1.892-1.048-1.244-1.571-2.849-1.571-4.812v-.263h-.024Zm2.381.24c0 1.412.286 2.561.881 3.47.595.91 1.452 1.342 2.595 1.342 1.143 0 2-.455 2.595-1.341.595-.91.881-2.06.881-3.472v-.263c0-1.389-.286-2.538-.881-3.448-.595-.91-1.476-1.364-2.619-1.364-1.143 0-2 .455-2.571 1.364-.595.91-.881 2.06-.881 3.448v.263Zm14.405-6.704.166 1.724a4.612 4.612 0 0 1 1.643-1.46 5.03 5.03 0 0 1 2.286-.528c.857 0 1.619.216 2.238.599.619.407 1.095 1.005 1.405 1.82a4.697 4.697 0 0 1 1.643-1.772c.69-.431 1.476-.647 2.357-.647 1.333 0 2.381.455 3.166 1.389.786.91 1.167 2.298 1.167 4.142v7.876h-2.381v-7.9c0-1.293-.214-2.203-.667-2.753-.452-.527-1.095-.814-1.976-.814-.809 0-1.476.287-1.976.838-.5.574-.786 1.292-.881 2.154v8.452h-2.405v-7.853c0-1.245-.238-2.13-.69-2.706-.452-.574-1.119-.861-1.952-.861-.739 0-1.334.143-1.81.454a2.817 2.817 0 0 0-1.071 1.27v9.743h-2.381V9.765h2.119ZM26.086 12.494c-.762-.766-1.976-.766-2.714 0L19.99 15.87l-4.62-4.645c-.761-.742-1.976-.742-2.714 0l-5.976 6.01a1.915 1.915 0 0 0 0 2.729l5.976 6.033c.024.024.048.024.072.048a.93.93 0 0 0 .238.191c.071.048.143.072.214.12.048.024.072.048.12.072.07.024.166.048.261.072.024 0 .071.024.095.024.12.023.238.047.381.047.12 0 .238-.024.357-.024.048 0 .072-.023.12-.023.07-.024.166-.048.237-.072a.52.52 0 0 0 .12-.072c.071-.024.142-.072.214-.12.071-.048.143-.12.214-.167.024-.024.071-.048.095-.072L26.11 15.247c.714-.79.714-2.01-.024-2.753Zm-12.072 2.85 3.262 3.255-3.262 3.28-3.261-3.28 3.261-3.256Z">
   </path>
			<path d="M2.729 15.223c-.5 0-.977-.191-1.358-.574-.761-.766-.761-1.987 0-2.73L12.086 1.146c.762-.766 1.976-.766 2.714 0l5.929 5.961c.762.766.762 1.987 0 2.73-.762.766-1.977.766-2.715 0L13.443 5.24 4.11 14.649a1.941 1.941 0 0 1-1.381.574Z">
   </path>
		</g>
		<defs>
			<clippath id="a">
				<path d="M.8.571h144v26H.8z" fill="#fff">
    </path>
			</clippath>
		</defs>
	</g>
</svg>