<svg class="h-[3.75rem] pt-4" viewBox="0 0 604 137" fill="none" xmlns="http://www.w3.org/2000/svg"><path d="M76.1128 69.6754C76.1128 85.5004 70.9915 94.9032 66.4744 100.137C63.7396 103.231 57.5528 108.7 47.3203 111.087C42.6803 112.162 38.6346 112.398 33.8717 112.398H0.910645V28.387H27.6851C30.3072 28.387 32.8064 28.387 35.2953 28.5099C38.8701 28.7455 52.9028 29.1039 63.1353 37.5542C64.6819 38.7423 67.1812 41.006 69.8033 45.1646C72.7737 49.8045 76.1128 57.3022 76.1128 69.6754ZM55.0536 70.3924C55.0536 63.9703 54.3367 58.1318 50.2909 53.0207C49.1027 51.5969 46.6034 48.7393 42.0762 47.3053C38.1532 45.9942 34.5784 46.1171 30.5326 46.1171H22.0823V95.4973H28.5045C34.6911 95.4973 41.8302 95.1389 47.3101 91.093C51.5915 87.8768 55.0434 81.8131 55.0434 70.3924H55.0536Z" fill="black"></path><path d="M146.501 85.1419H102.119C102.119 85.736 101.996 87.1599 102.355 88.8294C103.779 96.0915 108.9 100.609 116.275 100.609C117.35 100.609 119.727 100.486 122.226 99.533C128.413 97.3923 131.147 91.0828 131.987 89.5361L145.794 96.6753C143.295 100.363 141.984 102.032 140.56 103.692C131.393 113.801 119.501 114.641 114.861 114.641C112.956 114.641 108.552 114.518 103.676 112.972C89.869 108.69 83.4468 96.5524 83.4468 82.5096C83.4468 78.6993 83.6824 67.1558 91.4157 58.2344C95.226 53.9529 101.771 48.3604 115.333 48.3604C119.501 48.3604 131.875 48.8314 139.608 59.6683C146.624 69.3067 146.388 82.1613 146.511 85.1317L146.501 85.1419ZM127.583 73.7214C127.347 71.7036 126.989 65.394 120.802 62.6592C118.303 61.471 116.285 61.471 115.21 61.471C107.947 61.471 104.619 66.828 103.666 68.9687C103.195 70.0442 102.713 71.345 102.242 73.7315H127.583V73.7214Z" fill="black"></path><path d="M211.347 97.7507C210.036 99.7685 208.612 101.919 207.066 103.702C198.851 113.34 188.26 114.416 183.743 114.416C181.009 114.416 175.528 114.057 169.229 110.964C157.573 105.248 152.923 94.1862 152.923 81.8129C152.923 78.9552 153.046 73.0042 156.016 66.1109C163.032 49.8044 178.386 48.5037 184.102 48.5037C188.977 48.5037 199.927 49.4561 208.254 59.9242C208.971 60.8768 209.442 61.5938 210.631 63.4989L197.069 71.2322C196.946 70.8737 195.993 68.9686 195.051 67.6575C193.976 66.3465 190.534 62.5362 184.942 62.5362C183.631 62.5362 181.019 62.659 178.274 64.6769C171.964 69.4397 171.728 80.0308 171.728 81.2189C171.728 86.5759 173.511 93.4794 177.679 96.921C178.868 97.8736 181.49 99.8914 185.536 99.8914C191.487 99.7685 194.703 95.8456 195.768 94.2989C196.362 93.3463 196.844 92.6294 197.551 90.6115L211.358 97.7507H211.347Z" fill="black"></path><path d="M256.815 65.7424L250.752 66.6949C250.158 66.8178 247.3 67.1661 245.036 68.006C240.161 69.6756 239.321 72.769 239.321 77.4089V112.388H221.12V50.2759H238.85V56.6981C240.396 55.3871 242.066 53.7277 246.112 52.0581C251.11 50.0403 254.562 49.7944 256.826 49.5588V65.7424H256.815Z" fill="black"></path><path d="M317.257 50.2759L295.359 117.386C293.935 121.791 292.501 125.601 289.295 129.042C285.372 133.088 281.797 133.805 276.328 133.805H263.125V119.169H271.452C275.733 119.169 277.168 116.792 277.168 114.651C277.168 112.982 276.809 111.681 275.856 108.7C275.262 106.795 274.668 104.89 274.074 102.872L257.768 50.2759H277.28L287.513 94.7805L297.745 50.2759H317.257Z" fill="black"></path><path d="M385.679 81.2191C385.556 91.8101 382.227 98.8264 379.963 102.401C376.512 107.635 372.23 110.37 370.202 111.323C368.184 112.275 364.487 113.586 358.658 113.586C352.113 113.586 348.785 111.681 343.428 108.352V133.938H324.868V50.2861H341.174L341.297 56.3497C342.25 55.1615 342.608 54.5675 343.919 53.6149C346.183 51.7098 351.058 48.8521 358.679 48.8521C362.254 48.8521 370.581 49.446 377.362 56.7082C383.671 63.3762 385.689 72.5332 385.689 81.2191H385.679ZM368.072 80.9835C368.072 79.2013 368.307 71.1095 363.79 65.7526C362.366 64.083 360.461 62.7822 358.321 62.1779C357.132 61.8194 356.18 61.8194 355.698 61.8194C348.918 61.8194 342.608 68.0059 342.608 81.4546C342.608 82.7657 342.373 90.2634 345.825 95.3745C346.777 96.6856 347.965 97.8737 349.399 98.7034C350.229 99.2975 352.37 100.373 355.227 100.373C361.537 100.373 364.036 95.856 365.101 93.9509C366.525 91.3287 368.072 87.6413 368.072 80.9835Z" fill="black"></path><path d="M429.651 63.0073H417.513V90.8471C417.513 93.3463 417.39 94.7701 417.985 95.8456C419.06 97.8634 421.907 97.8633 422.266 97.8633C424.407 97.8633 426.547 97.7404 428.688 97.7404V111.896C427.5 112.131 423.219 112.848 419.05 112.848C417.739 112.848 416.428 112.848 415.24 112.726C413.57 112.603 408.1 112.726 403.931 108.915C399.169 104.747 399.414 98.4472 399.414 92.7317V62.8639H390.37V51.6789H399.414V32.2791H417.503V51.7915H429.641V62.9765L429.651 63.0073Z" fill="black"></path><path d="M576.397 0.685547H495.54C480.312 0.685547 467.967 13.0307 467.967 28.2591V109.115C467.967 124.344 480.312 136.689 495.54 136.689H576.397C591.625 136.689 603.97 124.344 603.97 109.115V28.2591C603.97 13.0307 591.625 0.685547 576.397 0.685547Z" fill="url(#paint0_linear_3392_154770-black)"></path><path fill-rule="evenodd" clip-rule="evenodd" d="M492.742 0.773841V75.7953C492.742 87.7281 496.952 97.9196 505.392 106.349C513.832 114.779 524.013 118.999 535.946 118.999C547.878 118.999 558.07 114.789 566.5 106.349C574.929 97.9093 579.15 87.7281 579.15 75.7953V0.884421C578.058 0.753115 576.947 0.685547 575.821 0.685547H557.548V75.7953C557.548 81.7156 555.427 86.796 551.187 91.0365C546.946 95.277 541.948 97.3972 535.946 97.3972C529.943 97.3972 524.842 95.277 520.643 91.0365C516.443 86.8063 514.344 81.7156 514.344 75.7953V0.685547H494.964C494.216 0.685547 493.475 0.715352 492.742 0.773841Z" fill="url(#paint1_linear_3392_154770-black)"></path><path fill-rule="evenodd" clip-rule="evenodd" d="M492.742 0.773841V75.7953C492.742 87.7281 496.952 97.9196 505.392 106.349C513.832 114.779 524.013 118.999 535.946 118.999C547.878 118.999 558.07 114.789 566.5 106.349C574.929 97.9093 579.15 87.7281 579.15 75.7953V0.884421C578.058 0.753115 576.947 0.685547 575.821 0.685547H557.548V75.7953C557.548 81.7156 555.427 86.796 551.187 91.0365C546.946 95.277 541.948 97.3972 535.946 97.3972C529.943 97.3972 524.842 95.277 520.643 91.0365C516.443 86.8063 514.344 81.7156 514.344 75.7953V0.685547H494.964C494.216 0.685547 493.475 0.715352 492.742 0.773841Z" fill="white"></path><defs><linearGradient id="paint0_linear_3392_154770-black" x1="467.967" y1="68.6921" x2="603.98" y2="68.6921" gradientUnits="userSpaceOnUse"><stop stop-color="#C7459B"></stop><stop offset="1" stop-color="#180E77"></stop></linearGradient><linearGradient id="paint1_linear_3392_154770-black" x1="467.391" y1="68.6871" x2="603.394" y2="68.6871" gradientUnits="userSpaceOnUse"><stop stop-color="#4676E2"></stop><stop offset="1" stop-color="#68CBFD"></stop></linearGradient></defs></svg>