<svg xmlns="http://www.w3.org/2000/svg" fill="none" viewBox="0 0 48 52"><path fill="#263CB7" d="M46.599 15.982s-.712 2.878-1.414 5.313a.268.268 0 0 1-.527-.069c-.02-.788-.073-1.348-.073-1.348-.185-5.123-1.877-9.384-5.023-12.71-2.414-2.542-6.807-5.58-14.024-5.58H8.67a.976.976 0 0 0-.975.973v29.695a.282.282 0 0 1-.392.25.283.283 0 0 1-.135-.118 55.764 55.764 0 0 1-2.014-4.16 4.378 4.378 0 0 1-.37-1.752V2.615a.973.973 0 0 1 .79-.974 103.78 103.78 0 0 1 28.96-1.1c.409.04.806.153 1.176.33a20.08 20.08 0 0 1 5.968 4.305 20.58 20.58 0 0 1 4.804 8.279 5.16 5.16 0 0 1 .117 2.527ZM47.13 9.038a22.773 22.773 0 0 0-3.818-5.41 22.403 22.403 0 0 0-1.775-1.69.243.243 0 0 1 .2-.424c1.193.211 2.378.444 3.555.697.561.12 1.065.428 1.429.871.214.263.42.526.624.794.34.463.512 1.028.488 1.602a62.391 62.391 0 0 1-.215 3.467.258.258 0 0 1-.488.093ZM27.372 48.769a.253.253 0 0 1-.084.131c-.702.59-2.38 1.787-3.106 2.284a.538.538 0 0 1-.614 0 62.437 62.437 0 0 1-2.956-2.25.253.253 0 0 1 .162-.443h4.876c.488 0 .975-.014 1.463-.039a.254.254 0 0 1 .26.317ZM.41 2.707a.537.537 0 0 0-.41.517 63.045 63.045 0 0 0 2.01 15.86.268.268 0 0 0 .526-.064V3.355a.91.91 0 0 0-1.117-.881l-1.01.233Z"/><path fill="#263CB7" fill-rule="evenodd" d="M29.132 30.157a4.488 4.488 0 0 0 2.257-2.313 8.872 8.872 0 0 0 .63-3.409c.034-.53.048-1.008.048-1.421v-1.16c0-.413 0-.88-.053-1.402-.044-2.02-.58-3.589-1.59-4.65-1.01-1.062-2.692-1.66-4.877-1.66h-4.31a.976.976 0 0 0-.975.973v14.696a.973.973 0 0 0 .975.974h4.428a8.25 8.25 0 0 0 3.467-.628Zm-5.955-12.476a.633.633 0 0 1 .634-.628h1.727c1.355 0 2.316.258 2.78.75.462.492.77 1.461.794 2.747v.068c.034.487.049.881.049 1.237v1.163c0 .36 0 .784-.049 1.267v.073a6.18 6.18 0 0 1-.38 2.322c-.156.378-.451.681-.824.848a5.477 5.477 0 0 1-2.244.355h-1.853a.634.634 0 0 1-.634-.628V17.68Z" clip-rule="evenodd"/><path fill="#263CB7" fill-rule="evenodd" d="M36.124 29.919a9.629 9.629 0 0 1-4.818 4.913 13.183 13.183 0 0 1-5.642 1.1h-9.587a.976.976 0 0 1-.975-.973V9.963a.973.973 0 0 1 .976-.974h9.46c3.677 0 6.588 1.1 8.646 3.268 1.892 1.996 2.896 4.675 2.998 7.957.059.589.059 1.154.059 1.64v1.164c0 .502-.02 1.038-.059 1.637a13.671 13.671 0 0 1-1.058 5.264Zm-17.82-17.737a.973.973 0 0 0-.286.688l-.005 19.172a.973.973 0 0 0 .976.974h6.7a10.4 10.4 0 0 0 4.389-.838 6.74 6.74 0 0 0 3.379-3.448c.546-1.326.823-2.748.814-4.183v-.058c.049-.555.049-1.037.049-1.485V21.84c0-.428-.015-.925-.049-1.46v-.054c-.073-2.562-.814-4.607-2.204-6.068-1.487-1.568-3.681-2.362-6.53-2.362h-6.543a.976.976 0 0 0-.69.286Z" clip-rule="evenodd"/><path fill="#263CB7" fill-rule="evenodd" d="M33.476 39.507a14.696 14.696 0 0 0 7.369-7.514 18.547 18.547 0 0 0 1.497-7.114c.039-.668.058-1.276.058-1.86v-1.164c0-.59 0-1.227-.063-1.89-.156-4.543-1.639-8.327-4.389-11.248-2.106-2.23-5.974-4.87-12.39-4.87h-14.65a.976.976 0 0 0-.975.974v31.486c0 .463.137.916.395 1.3.602.877 1.221 1.734 1.858 2.572a2.347 2.347 0 0 0 1.858.91h11.62a18.246 18.246 0 0 0 7.812-1.582ZM12.86 7.713a.973.973 0 0 1 .975-.974h11.704c5.364 0 8.558 2.158 10.274 3.97 2.273 2.395 3.487 5.55 3.614 9.373v.044c.039.609.058 1.188.058 1.724v1.164c0 .53 0 1.09-.058 1.709v.049a15.71 15.71 0 0 1-1.249 6.048 11.817 11.817 0 0 1-5.925 6.047 15.371 15.371 0 0 1-6.588 1.315h-11.83a.976.976 0 0 1-.975-.974V7.713Z" clip-rule="evenodd"/><path fill="#263CB7" d="M33.784 41.82a.518.518 0 0 1 .185-.044.175.175 0 0 1 .17.141.437.437 0 0 1-.077.21 54.679 54.679 0 0 1-2.955 3.228 1.595 1.595 0 0 1-.859.448 26.243 26.243 0 0 1-4.593.39h-7.412a1.542 1.542 0 0 1-1.093-.443 59.842 59.842 0 0 1-1.95-2.046.253.253 0 0 1 .185-.423h10.299a20.775 20.775 0 0 0 8.056-1.461h.044Z"/></svg>