<svg xmlns="http://www.w3.org/2000/svg" viewBox="0 0 75.45 75.45"><defs><style>.cls-1{fill:#4a4a4a}</style></defs><g id="Layer_2" data-name="Layer 2"><g id="Layer_1-2" data-name="Layer 1"><path d="M37.72 0a37.7 37.7 0 0 0-32 57.7c-1 4.21-2.67 10.76-3.44 13.68l-1 3.76 17.92-4.55A37.72 37.72 0 1 0 37.72 0zm0 71.38A33.48 33.48 0 0 1 25.39 69a33.89 33.89 0 0 1-6.12-3.2l-12.1 3.51c.47-1.83 3-10.15 3.41-11.75a33.87 33.87 0 0 1-3.64-6.26 33.65 33.65 0 1 1 30.78 20.08z" class="cls-1"/><circle cx="30.12" cy="54.05" r="1.8" class="cls-1"/><circle cx="38.01" cy="54.05" r="1.8" class="cls-1"/><circle cx="46.13" cy="54.05" r="1.8" class="cls-1"/><path d="M50.12 46v-8.17l-5.88-.11v8.16h-7.19V24.43h7.19v7.34h5.82v-7.34h7.2v21.45z" style="fill:#60a9ff"/><path d="M27.94 24.56c6.92 0 11.41 4.19 11.41 10.7S34.77 46 27.67 46h-9.11V24.56zm-2.43 15.29 2.63-.06a4.35 4.35 0 0 0 4.11-4.47c.08-3-2.07-4.41-4.46-4.7h-2.28v9.19z" class="cls-1"/></g></g></svg>