<?xml version="1.0" ?>
<!-- Generator: Adobe Illustrator 24.0.1, SVG Export Plug-In . SVG Version: 6.00 Build 0)  -->
<svg xmlns="http://www.w3.org/2000/svg" version="1.2" viewBox="0 0 1279.2 1279.2" baseProfile="tiny-ps">
	<path d="m48.1 845.5v-0.2c0-15.5 11.6-28.4 27.8-28.4 10 0 15.9 3.5 21.4 8.7l-4.2 4.5c-4.6-4.4-9.8-7.5-17.3-7.5-12.2 0-21.3 9.9-21.3 22.5v0.2c0 12.7 9.2 22.7 21.3 22.7 7.5 0 12.5-2.9 17.7-7.9l4.1 4c-5.7 5.8-12 9.7-22 9.7-15.8-0.1-27.5-12.5-27.5-28.3z" fill="#2D2A26"/>
	<path d="M126.8,851.1l-22.8-33.2h7.5l18.5,27.5l18.7-27.5h7.2L133,851v21.8h-6.3V851.1z" fill="#2D2A26"/>
	<path d="m167.7 817.9h23.4c6.3 0 11.2 1.8 14.4 4.9 2.3 2.4 3.5 5.3 3.5 8.8v0.2c0 7.1-4.4 10.8-8.7 12.7 6.5 2 11.8 5.7 11.8 13.3v0.2c0 9.4-7.9 15-19.9 15h-24.4v-55.1zm22.4 24.5c7.5 0 12.6-3.4 12.6-9.8v-0.2c0-5.4-4.3-8.9-12.2-8.9h-16.7v18.9h16.3zm2.2 24.8c8.3 0 13.5-3.7 13.5-9.8v-0.2c0-6-5-9.4-14.6-9.4h-17.3v19.4h18.4z" fill="#2D2A26"/>
	<path d="m226.3 817.9h39.7v5.7h-33.5v18.7h30v5.7h-30v19.2h33.9v5.7h-40.1v-55z" fill="#2D2A26"/>
	<path d="m280.8 817.9h23.6c6.7 0 12.2 2 15.6 5.5 2.7 2.7 4.2 6.5 4.2 10.8v0.2c0 9.1-6.3 14.4-14.9 16l16.9 22.4h-7.6l-15.9-21.3h-15.7v21.3h-6.2v-54.9zm23.1 28c8.2 0 14.1-4.2 14.1-11.3v-0.2c0-6.7-5.2-10.8-14-10.8h-17v22.3h16.9z" fill="#2D2A26"/>
	<path d="m335.9 864.8 3.8-4.5c5.7 5.2 11.2 7.8 18.8 7.8 7.4 0 12.2-3.9 12.2-9.3v-0.2c0-5.1-2.7-8-14.3-10.4-12.6-2.7-18.4-6.8-18.4-15.9v-0.2c0-8.6 7.6-15 18-15 8 0 13.7 2.3 19.3 6.7l-3.6 4.8c-5.1-4.2-10.2-6-15.8-6-7.1 0-11.7 3.9-11.7 8.9v0.2c0 5.2 2.8 8.1 14.9 10.7 12.2 2.7 17.9 7.1 17.9 15.5v0.2c0 9.4-7.8 15.5-18.8 15.5-8.6 0-15.7-2.9-22.3-8.8z" fill="#2D2A26"/>
	<path d="m391.7 817.9h39.7v5.7h-33.5v18.7h30v5.7h-30v19.2h33.9v5.7h-40.1v-55z" fill="#2D2A26"/>
	<path d="m443.8 845.5v-0.2c0-15.5 11.6-28.4 27.8-28.4 10 0 15.9 3.5 21.4 8.7l-4.2 4.5c-4.6-4.4-9.8-7.5-17.3-7.5-12.2 0-21.3 9.9-21.3 22.5v0.2c0 12.7 9.2 22.7 21.3 22.7 7.5 0 12.5-2.9 17.7-7.9l4.1 4c-5.7 5.8-12 9.7-22 9.7-15.8-0.1-27.5-12.5-27.5-28.3z" fill="#2D2A26"/>
	<path d="m505.2 849.8v-31.9h6.2v31.5c0 11.8 6.3 18.5 16.8 18.5 10.1 0 16.6-6.1 16.6-18.1v-31.9h6.2v31.5c0 16-9.2 24.3-22.9 24.3s-22.9-8.4-22.9-23.9z" fill="#2D2A26"/>
	<path d="m567.6 817.9h23.6c6.7 0 12.2 2 15.6 5.5 2.7 2.7 4.2 6.5 4.2 10.8v0.2c0 9.1-6.3 14.4-14.9 16l16.9 22.4h-7.6l-15.9-21.3h-15.7v21.3h-6.2v-54.9zm23 28c8.2 0 14.1-4.2 14.1-11.3v-0.2c0-6.7-5.2-10.8-14-10.8h-16.9v22.3h16.8z" fill="#2D2A26"/>
	<path d="m626.8 817.9h6.2v54.9h-6.2v-54.9z" fill="#2D2A26"/>
	<path d="m665.5 823.6h-18.4v-5.7h43.1v5.7h-18.4v49.2h-6.3v-49.2z" fill="#2D2A26"/>
	<path d="M721,851.1l-22.8-33.2h7.5l18.5,27.5l18.7-27.5h7.2L727.3,851v21.8H721V851.1z" fill="#2D2A26"/>
	<path d="m786.7 817.9h24.5c6.9 0 12.3 2 15.8 5.5 2.9 3 4.5 7.1 4.5 11.8v0.2c0 9-5.4 14.4-13.1 16.6l14.8 20.8h-11.4l-13.5-19.1h-12.1v19.1h-9.7v-54.9zm23.8 27.2c6.9 0 11.3-3.6 11.3-9.2v-0.2c0-5.9-4.2-9.1-11.4-9.1h-14v18.4h14.1z" fill="#2D2A26"/>
	<path d="m845.4 817.9h40.7v8.6h-31.1v14.3h27.5v8.6h-27.5v14.8h31.5v8.6h-41.1v-54.9z" fill="#2D2A26"/>
	<path d="m899.9 817.9h20.5c17.3 0 29.2 11.8 29.2 27.3v0.2c0 15.5-11.9 27.5-29.2 27.5h-20.5v-55zm20.5 46.1c11.5 0 19.1-7.8 19.1-18.5v-0.2c0-10.7-7.5-18.7-19.1-18.7h-10.8v37.4h10.8z" fill="#2D2A26"/>
	<path d="m963.2 817.9h40.7v8.6h-31.1v14.3h27.5v8.6h-27.5v14.8h31.5v8.6h-41.1v-54.9z" fill="#2D2A26"/>
	<path d="m1017.8 817.9h40.9v8.8h-31.2v15h27.7v8.8h-27.7v22.4h-9.7v-55z" fill="#2D2A26"/>
	<path d="m1071.7 817.9h9.7v54.9h-9.7v-54.9z" fill="#2D2A26"/>
	<path d="m1098 817.9h8.9l29.4 38v-38h9.5v54.9h-8.1l-30.3-39.1v39.1h-9.5v-54.9z" fill="#2D2A26"/>
	<path d="m1161.9 817.9h40.7v8.6h-31.1v14.3h27.5v8.6h-27.5v14.8h31.5v8.6h-41.1v-54.9z" fill="#2D2A26"/>
	<path d="m1216.5 817.9h20.5c17.3 0 29.2 11.8 29.2 27.3v0.2c0 15.5-11.9 27.5-29.2 27.5h-20.5v-55zm20.4 46.1c11.5 0 19.1-7.8 19.1-18.5v-0.2c0-10.7-7.5-18.7-19.1-18.7h-10.8v37.4h10.8z" fill="#2D2A26"/>
	<linearGradient id="SVGID_1_" x1="152.85" x2="152.85" y1="389.21" y2="792.01" gradientUnits="userSpaceOnUse">
		<stop stop-color="#E32229" offset="0"/>
		<stop stop-color="#E12229" offset=".4707"/>
		<stop stop-color="#DA2128" offset=".6402"/>
		<stop stop-color="#CF2127" offset=".7611"/>
		<stop stop-color="#BE2025" offset=".8588"/>
		<stop stop-color="#A81E22" offset=".9414"/>
		<stop stop-color="#961D20" offset=".9931"/>
	</linearGradient>
	<path d="m0.5 395.8h128.1c24.3 0 47.1 4.5 68.4 13.4 21.4 8.9 40 21.2 56 36.9s28.7 34.1 38 55.3c9.4 21.2 14.1 43.9 14.1 68.2 0 24.6-4.7 47.4-14.1 68.5-9.4 21-22.1 39.4-38 55.1-16 15.7-34.7 28-56.2 36.9s-44.3 13.4-68.2 13.4h-128.1v-347.7zm90.3 271.1h20.3c13.5 0 26.3-1.9 38.5-5.8 12.1-3.8 22.7-9.7 31.8-17.5s16.3-17.9 21.7-30.2 8.1-26.9 8.1-43.8c0-15.7-2.5-29.5-7.4-41.5s-11.8-22.1-20.5-30.4c-8.8-8.3-19.2-14.6-31.4-18.9-12.1-4.3-25.4-6.5-39.9-6.5h-21.2v194.6z" fill="url(#SVGID_1_)"/>
	<linearGradient id="SVGID_2_" x1="458" x2="458" y1="389.21" y2="792.01" gradientUnits="userSpaceOnUse">
		<stop stop-color="#E32229" offset="0"/>
		<stop stop-color="#E12229" offset=".4707"/>
		<stop stop-color="#DA2128" offset=".6402"/>
		<stop stop-color="#CF2127" offset=".7611"/>
		<stop stop-color="#BE2025" offset=".8588"/>
		<stop stop-color="#A81E22" offset=".9414"/>
		<stop stop-color="#961D20" offset=".9931"/>
	</linearGradient>
	<path d="m588.2 633.2h-176.5c0 17.2 4.4 30.3 13.1 39.2 8.8 8.9 21.9 13.4 39.4 13.4 8.9 0 16.7-1.6 23.3-4.8s12.2-8.8 16.8-16.8h80.7c-3.4 13.8-9 25.9-16.8 36.2s-17.2 18.8-28.1 25.4-22.8 11.5-35.7 14.8c-12.9 3.2-26.1 4.8-39.6 4.8-19.7 0-37.9-2.8-54.6-8.3s-31.2-13.6-43.3-24.2-21.7-23.7-28.6-39.4-10.4-33.6-10.4-53.9c0-19.7 3.2-37.3 9.7-53s15.5-28.9 27-39.6 25.3-19.1 41.3-24.9 33.6-8.8 53-8.8c20.6 0 38.9 3.1 54.9 9.2 16 6.2 29.5 14.9 40.6 26.3s19.5 25.1 25.4 41.3c5.8 16.1 8.8 34.3 8.8 54.6v8.5zm-77.9-48.4c-2.2-11.4-7.8-20.4-16.8-27.2-9.1-6.8-19.3-10.1-30.6-10.1-12.3 0-23.1 3.2-32.3 9.4-9.2 6.3-15.1 15.6-17.5 27.9h97.2z" fill="url(#SVGID_2_)"/>
	<linearGradient id="SVGID_3_" x1="621.31" x2="715.98" y1="489.1" y2="653.09" gradientUnits="userSpaceOnUse">
		<stop stop-color="#E3252A" offset="0"/>
		<stop stop-color="#E1242A" offset=".4708"/>
		<stop stop-color="#DA2429" offset=".6403"/>
		<stop stop-color="#CE2327" offset=".7612"/>
		<stop stop-color="#BE2125" offset=".859"/>
		<stop stop-color="#A81F22" offset=".9416"/>
		<stop stop-color="#961D20" offset=".9931"/>
	</linearGradient>
	<polygon points="685.9 506.9 590.4 506.9 675.2 676.6 723.1 581.1" fill="url(#SVGID_3_)"/>
	<linearGradient id="SVGID_4_" x1="1026.3" x2="1026.3" y1="348.98" y2="739.21" gradientUnits="userSpaceOnUse">
		<stop stop-color="#2BC4F3" offset="0"/>
		<stop stop-color="#00AEEE" offset=".5"/>
		<stop stop-color="#0095DA" offset="1"/>
	</linearGradient>
	<path d="m1156.6 633.2h-176.6c0 17.2 4.4 30.3 13.1 39.2 8.8 8.9 21.9 13.4 39.4 13.4 8.9 0 16.7-1.6 23.3-4.8s12.2-8.8 16.8-16.8h80.7c-3.4 13.8-9 25.9-16.8 36.2s-17.2 18.8-28.1 25.4-22.8 11.5-35.7 14.8c-12.9 3.2-26.1 4.8-39.6 4.8-19.7 0-37.9-2.8-54.6-8.3-16.8-5.5-31.2-13.6-43.3-24.2s-21.7-23.7-28.6-39.4-10.4-33.6-10.4-53.9c0-19.7 3.2-37.3 9.7-53s15.4-28.9 27-39.6c11.5-10.7 25.3-19.1 41.3-24.9s33.7-8.8 53-8.8c20.6 0 38.9 3.1 54.9 9.2 16 6.2 29.5 14.9 40.6 26.3s19.5 25.1 25.4 41.3c5.8 16.1 8.8 34.3 8.8 54.6v8.5zm-77.9-48.4c-2.2-11.4-7.8-20.4-16.8-27.2-9.1-6.8-19.3-10.1-30.7-10.1-12.3 0-23 3.2-32.3 9.4-9.2 6.3-15.1 15.6-17.5 27.9h97.3z" fill="url(#SVGID_4_)"/>
	<linearGradient id="SVGID_5_" x1="1236.8" x2="1236.8" y1="348.98" y2="739.21" gradientUnits="userSpaceOnUse">
		<stop stop-color="#2BC4F3" offset="0"/>
		<stop stop-color="#00AEEE" offset=".5"/>
		<stop stop-color="#0095DA" offset="1"/>
	</linearGradient>
	<path d="M1278.7,743.4h-83.9V360.8h83.9V743.4z" fill="url(#SVGID_5_)"/>
	<linearGradient id="SVGID_6_" x1="749.56" x2="844.58" y1="535.41" y2="699.99" gradientUnits="userSpaceOnUse">
		<stop stop-color="#2BC4F3" offset="0"/>
		<stop stop-color="#00AEEE" offset=".5"/>
		<stop stop-color="#0095DA" offset="1"/>
	</linearGradient>
	<polygon points="695.5 716 709.9 743.4 769.4 743.4 892.9 506.9 798.9 506.9" fill="url(#SVGID_6_)"/>
</svg>