<svg xmlns="http://www.w3.org/2000/svg" fill="none" viewBox="0 0 141 54"><mask id="a" width="34" height="37" x="0" y="4" mask-type="alpha" maskUnits="userSpaceOnUse"><path fill="#fff" fill-rule="evenodd" d="M0 4.669h33.62v35.57H0V4.669Z" clip-rule="evenodd"/></mask><g mask="url(#a)"><path fill="#06355C" fill-rule="evenodd" d="M5.308 35.626c.113.02.168.02.244.02 4.315 0 8.613.018 12.93-.02 1.515 0 2.99-.28 4.355-.951 2.298-1.14 3.663-3.063 4.466-5.434.636-1.83.841-3.753.954-5.677.13-2.334.018-4.65-.599-6.89-.784-2.857-2.335-5.134-5.139-6.405-1.7-.765-3.494-1.008-5.325-1.008H5.719c-.13 0-.261.019-.41.019v26.346ZM0 40.201V4.705c.113-.019.224-.036.337-.036 6.073 0 12.147 0 18.22.017 2.448 0 4.822.43 7.064 1.476 3.27 1.55 5.326 4.164 6.616 7.47 1.27 3.267 1.513 6.683 1.327 10.157-.151 2.688-.618 5.32-1.683 7.823-1.588 3.734-4.167 6.46-8.072 7.805-1.701.579-3.439.822-5.233.822H.505c-.188-.02-.336-.02-.505-.038Z" clip-rule="evenodd"/></g><path fill="#06355C" fill-rule="evenodd" d="M58.268 24.76c0-.15 0-.243-.019-.355-.449-2.24-1.514-4.07-3.439-5.36-2.466-1.642-5.195-1.922-8.017-1.343-2.373.504-4.335 1.699-5.737 3.715-.69.99-1.103 2.11-1.29 3.343h18.502Zm4.635 7.58c-.13.28-.225.56-.355.84-2.168 4.445-5.738 7.003-10.577 7.75-3.813.579-7.513.111-10.951-1.756-3.757-2.054-5.868-5.284-6.522-9.485-.43-2.8-.206-5.545.86-8.179 1.588-3.884 4.54-6.31 8.483-7.505 3.57-1.083 7.195-1.14 10.746.018 4.728 1.55 7.512 4.892 8.577 9.692.318 1.474.318 3.043.468 4.555.019.112-.02.243-.038.392H39.599c.094 1.158.355 2.222.878 3.212 1.57 2.913 4.074 4.444 7.27 4.929 2.112.317 4.168.038 6.13-.858 1.57-.71 2.784-1.812 3.588-3.342.074-.15.28-.3.43-.3 1.607-.018 3.214-.018 4.821 0 .056 0 .093.019.187.038ZM86.86 32.023h4.935c.073.392.111.766.205 1.12.43 1.512 1.476 2.465 2.86 3.118a9.348 9.348 0 0 0 3.457.878c2.279.168 4.559.168 6.746-.598a6.74 6.74 0 0 0 1.887-1.064c1.495-1.195 1.663-4.238-.897-5.06-1.252-.411-2.578-.636-3.906-.84-2.802-.43-5.626-.728-8.409-1.214-1.757-.3-3.27-1.195-4.466-2.54-2.037-2.296-2-6.255.036-8.795 1.347-1.66 3.122-2.632 5.158-3.136 4.037-1.008 8.074-.99 12.017.392 3.363 1.195 5.382 3.604 5.943 7.17.018.168.018.336.037.523h-4.972c-.036-.204-.055-.43-.111-.654-.299-1.419-1.215-2.37-2.429-3.08-1.085-.635-2.28-.916-3.514-1.027-1.98-.188-3.943-.15-5.849.504-.822.28-1.551.672-2.112 1.363-1.364 1.681-.748 4.07 1.308 4.686 1.252.374 2.58.542 3.869.748 2.897.467 5.868.597 8.708 1.381a13.5 13.5 0 0 1 3.14 1.289c2.019 1.176 2.878 3.024 2.804 5.34-.132 3.734-2.132 6.05-5.495 7.375-2.729 1.065-5.607 1.27-8.504 1.195-2.523-.074-4.99-.391-7.306-1.456-3.14-1.438-4.803-3.903-5.159-7.3.02-.075.02-.169.02-.318" clip-rule="evenodd"/><mask id="b" width="27" height="28" x="114" y="14" mask-type="alpha" maskUnits="userSpaceOnUse"><path fill="#fff" fill-rule="evenodd" d="M114.154 14.08H140.4v27.079h-26.246v-27.08Z" clip-rule="evenodd"/></mask><g mask="url(#b)"><path fill="#06355C" fill-rule="evenodd" d="M140.401 40.201h-4.971V36.28c-.113.13-.168.168-.186.206-1.533 2.297-3.739 3.585-6.374 4.2-3.251.748-6.484.654-9.604-.615-3.327-1.345-4.991-3.922-5.065-7.45-.075-4.295-.038-8.59-.038-12.884v-5.191c0-.112.02-.242.02-.411.167-.019.317-.037.485-.037 1.327 0 2.673.018 3.999-.019.392 0 .504.112.504.505-.018 5.433 0 10.866-.018 16.281 0 1.811.504 3.418 2 4.575.841.653 1.831 1.008 2.859 1.194 1.943.356 3.905.43 5.812-.148 3.083-.934 5.625-3.156 5.586-7.45-.037-4.761 0-9.523 0-14.284 0-.113-.037-.262.02-.356.056-.112.187-.298.28-.298 1.552-.019 3.084-.019 4.672-.019.019 8.739.019 17.403.019 26.122" clip-rule="evenodd"/></g><path fill="#06355C" fill-rule="evenodd" d="M60.193 14.117h.56c1.534 0 3.066.019 4.598-.02.43 0 .636.113.804.524 2.821 6.535 5.662 13.052 8.502 19.569.056.13.132.28.225.485.112-.225.205-.412.28-.58 2.784-6.479 5.55-12.958 8.316-19.455.169-.393.355-.543.785-.543 1.495.039 2.972.02 4.467.02.168 0 .317.019.541.019-.055.167-.093.297-.15.41-3.793 8.44-7.604 16.86-11.399 25.301-.112.261-.242.392-.56.392a198.18 198.18 0 0 0-4.728 0c-.28 0-.43-.093-.542-.355-3.849-8.496-7.718-16.973-11.568-25.468-.056-.056-.074-.131-.13-.3" clip-rule="evenodd"/><path fill="#B4C651" fill-rule="evenodd" d="M66.471 5.733c-.15-1.98 1.739-3.828 3.813-3.754 2.037.075 3.7 1.7 3.7 3.754 0 2.091-1.682 3.734-3.794 3.771-2 .056-3.868-1.754-3.719-3.771M105.454 48.305c-.168-1.867 1.608-3.79 3.757-3.772 1.888.02 3.756 1.55 3.756 3.753 0 2.074-1.701 3.79-3.756 3.79-2.13 0-3.757-1.623-3.757-3.771" clip-rule="evenodd"/><mask id="c" width="6" height="6" x="77" y="0" mask-type="alpha" maskUnits="userSpaceOnUse"><path fill="#fff" fill-rule="evenodd" d="M77.05 0h5.419v5.426H77.05V0Z" clip-rule="evenodd"/></mask><g mask="url(#c)"><path fill="#B4C651" fill-rule="evenodd" d="M79.722 5.416c-1.57 0-2.691-1.158-2.672-2.746 0-1.474 1.233-2.67 2.71-2.67a2.755 2.755 0 0 1 2.709 2.745c-.018 1.662-1.475 2.801-2.747 2.67" clip-rule="evenodd"/></g><path fill="#B4C651" fill-rule="evenodd" d="M101.605 54c-1.55 0-2.708-1.158-2.708-2.688a2.703 2.703 0 0 1 2.708-2.727 2.715 2.715 0 0 1 2.71 2.727c0 1.513-1.177 2.688-2.71 2.688M86.263.542c1.308 0 2.205.915 2.205 2.241 0 1.232-.991 2.184-2.243 2.184-1.308 0-2.242-1.194-2.187-2.24.057-1.29.935-2.185 2.225-2.185M92.896 51.293c0-1.307.917-2.166 2.262-2.166 1.232 0 2.168.952 2.148 2.204 0 1.25-.99 2.24-2.26 2.221-1.29-.018-2.28-1.175-2.15-2.26M89.215 50.733c-1.027 0-1.7-.673-1.7-1.7 0-.952.747-1.717 1.681-1.717.954 0 1.738.784 1.738 1.737 0 .97-.728 1.68-1.719 1.68M92.13 6.685c-.99 0-1.7-.709-1.7-1.717 0-.953.747-1.7 1.68-1.7.973 0 1.721.747 1.721 1.719.018 1.008-.692 1.698-1.701 1.698M97.307 7.656c0 .56-.41.952-.99.952-.542-.018-.99-.448-.972-.99.019-.54.486-.99 1.01-.97.541.019.952.466.952 1.008M85.01 47.372c-.579 0-.952-.374-.952-.952 0-.598.354-.934.971-.934.597 0 .915.336.915.934 0 .597-.336.952-.934.952" clip-rule="evenodd"/></svg>