<?xml version="1.0" ?>
<svg xmlns="http://www.w3.org/2000/svg" viewBox="0 0 1546 618">
	<style>
		.s0 { fill: #000000 } 
	</style>
	<path id="Layer" fill-rule="evenodd" class="s0" d="m599.5 313.6h-42.5q-0.7 11.3-3 22.3-2.2 11.1-6 21.7-3.8 10.6-9.1 20.6-5.2 9.9-11.9 19.1-6.5 9-14.3 17-7.8 8-16.7 14.8-8.9 6.8-18.7 12.3-9.7 5.4-20.2 9.4l14 14.2-12.8 13.2-14.1-14.3q-3.8 10.6-9.1 20.4-5.4 9.9-12 19-6.7 9-14.6 17-7.9 7.9-16.9 14.7-8.9 6.7-18.6 12.1-9.8 5.3-20.3 9.2-10.4 3.8-21.3 6.1-10.9 2.3-22 3v43.3h-18.2v-43.3q-11.1-0.7-22-3-10.9-2.3-21.4-6.1-10.4-3.9-20.2-9.2-9.8-5.4-18.7-12.1-8.9-6.8-16.8-14.7-7.9-8-14.6-17-6.7-9.1-12-19-5.4-9.8-9.2-20.4l-14 14.3-12.9-13.2 14-14.2q-10.5-4-20.2-9.4-9.8-5.5-18.7-12.3-8.8-6.8-16.6-14.8-7.8-8-14.4-17-6.6-9.2-11.9-19.1-5.2-10-9-20.6-3.8-10.6-6.1-21.7-2.2-11-2.9-22.3h-42.6v-18.5h42.6q0.7-11.2 2.9-22.3 2.3-11 6.1-21.6 3.8-10.7 9-20.6 5.3-10 11.9-19.1 6.6-9.1 14.4-17.1 7.8-8 16.6-14.8 8.9-6.8 18.7-12.2 9.7-5.5 20.2-9.5l-14-14.2 12.9-13.1 14 14.2q3.8-10.5 9.2-20.4 5.3-9.9 12-18.9 6.7-9.1 14.6-17 7.9-8 16.8-14.8 8.9-6.7 18.7-12 9.8-5.4 20.2-9.2 10.5-3.9 21.4-6.2 10.9-2.3 22-3v-43.3h18.2v43.3q11.1 0.7 22 3 10.9 2.3 21.3 6.2 10.5 3.8 20.2 9.2 9.8 5.3 18.7 12 9 6.8 16.9 14.8 7.9 7.9 14.6 17 6.6 9 12 18.9 5.3 9.9 9.1 20.4l14.1-14.2 12.8 13.1-14 14.2q10.5 4 20.3 9.5 9.7 5.4 18.6 12.2 8.9 6.8 16.7 14.8 7.8 8 14.3 17.1 6.7 9.1 11.9 19.1 5.3 9.9 9.1 20.5 3.8 10.7 6 21.7 2.3 11.1 3 22.3h42.5zm-67.9-36.8q-1.9-9.1-5.1-17.8-3.1-8.8-7.4-17-4.3-8.2-9.7-15.8-5.3-7.4-11.6-14.1-6.4-6.7-13.5-12.4-7.2-5.8-15.2-10.5-7.9-4.6-16.4-8.2 0.6 4.8 0.9 9.5 0.3 4.7 0.3 9.5 0 4.7-0.3 9.5-0.3 4.7-0.9 9.4l74.9 76.2h6.5q-0.6-9.3-2.5-18.3zm-118.1-144.3q-4.6-8-10.2-15.3-5.6-7.3-12.2-13.8-6.6-6.4-14-11.9c-19.9-14.6-43.3-23.3-67.7-25.1v6.8l74.8 75.9q4.6-0.6 9.3-0.9 4.7-0.3 9.3-0.3 4.7 0 9.4 0.3 4.6 0.3 9.3 0.9-3.4-8.5-8-16.6zm-122.3-66.1q-9.2 0.7-18.1 2.6-9 2-17.6 5.2-8.6 3.1-16.7 7.5-8 4.4-15.4 9.8-7.4 5.5-14 12-6.6 6.5-12.3 13.8-5.6 7.4-10.2 15.4-4.6 8-8 16.6 4.7-0.6 9.3-0.9 4.7-0.3 9.4-0.3 4.6 0 9.3 0.3 4.7 0.3 9.3 0.9l74.9-76.1v-6.7c0 0 0.1-0.1 0.1-0.1zm-143.6 114.6q-0.1 0.1-0.1 0.1 0.1 0 0.2-0.1c0 0-0.1 0-0.1 0zm-0.1 0.1q-8.4 3.5-16.2 8.1-8 4.7-15.1 10.5-7.2 5.7-13.5 12.4-6.4 6.7-11.7 14.1c-14.4 20.2-22.9 44-24.6 68.9h6.6l74.7-76.2q-0.6-4.7-0.9-9.4-0.3-4.8-0.3-9.5 0-4.8 0.2-9.5 0.3-4.7 0.8-9.4zm-81.2 132.6h0.1q0-0.1 0-0.1zm0.1 0q0.7 9.2 2.6 18.2 1.8 9.1 5 17.8 3.1 8.8 7.4 17 4.2 8.2 9.6 15.7 5.3 7.5 11.6 14.2 6.3 6.7 13.5 12.4 7.2 5.8 15.1 10.5 7.9 4.6 16.4 8.2-1.1-9.1-1.1-18.2 0-2.5 0.1-4.9 0.1-2.5 0.3-5 0.1-2.4 0.3-4.9 0.3-2.5 0.6-4.9l-74.8-76.1zm112.5 145.9q0 0 0.1 0.1 0-0.1 0-0.1zm0.1 0q3.4 8.5 8 16.5 4.5 8 10.2 15.3 5.6 7.3 12.2 13.7 6.6 6.5 14 12 7.3 5.4 15.4 9.8 8 4.3 16.6 7.5 8.6 3.2 17.5 5.2 9 1.9 18.1 2.6v-6.7l-74.9-76.1c-12.3 1.6-24.8 1.7-37.1 0.2zm148.4 79.9q8.9-1.9 17.5-5.1 8.6-3.2 16.6-7.5 8.1-4.4 15.4-9.8 7.4-5.5 14-11.9 6.6-6.5 12.2-13.8 5.7-7.3 10.3-15.3 4.5-8 8-16.5c-12.4 1.5-24.9 1.4-37.3-0.2l-74.8 76.1v6.7c6.1-0.5 12.1-1.4 18.1-2.7zm102.9-116.1c1.7-15.5 0.6-31.3-3.2-46.5q2.1-3.8 4-7.7 1.9-3.9 3.5-7.9 1.6-4 3-8.1 1.4-4.1 2.6-8.2 1.2 2.7 2.4 5.5 1.1 2.8 2.1 5.7 1 2.8 1.9 5.7 0.9 2.9 1.7 5.8l53.3-54.2h-56.1c0.3-3.1 0.3-6.2 0.3-9.3q0-4.7-0.3-9.3h56.2l-53.3-54.2c-2.1 7.8-4.8 15.4-8.1 22.7-3.1-11.1-7.5-21.8-13.1-31.9 3.8-15.2 4.8-31 3.1-46.5l-20.9 21.2q-6-7-12.8-13.1l20.9-21.3q-7-0.8-13.9-0.8-4.1 0-8.1 0.3-4 0.2-8 0.7-4 0.6-8 1.3-3.9 0.8-7.8 1.8-3.8-2.2-7.6-4.1-3.8-1.9-7.7-3.5-4-1.7-8-3.1-4-1.5-8.1-2.7c7.2-3.3 14.7-6.1 22.3-8.2l-53.2-54.1v56.9c-3.1-0.3-6.1-0.3-9.2-0.3q-4.5 0-9.1 0.3v-57.1l-53.3 54.3q2.9 0.8 5.7 1.7 2.9 0.9 5.7 1.9 2.7 1.1 5.5 2.2 2.8 1.1 5.5 2.4-4.1 1.2-8.2 2.6-4 1.5-7.9 3.1-3.9 1.7-7.8 3.6-3.8 1.9-7.5 4c-10.4-2.6-21.2-4-31.9-4q-7 0-13.9 0.8l20.9 21.2q-6.9 6.2-12.9 13.2l-20.9-21.3q-0.8 7.1-0.8 14.2 0 4.1 0.3 8.1 0.2 4.1 0.7 8.2 0.5 4.1 1.2 8.1 0.8 4 1.8 8-2.1 3.8-4 7.7-1.9 3.9-3.5 7.9-1.7 4-3.1 8.1-1.4 4-2.6 8.2c-3.2-7.3-5.9-15-8-22.7l-53.4 54.3h56.2c-0.3 3-0.3 6.1-0.3 9.2q0 1.2 0 2.3 0 1.2 0 2.4 0.1 1.1 0.1 2.3 0.1 1.1 0.2 2.3h-56.3l53.4 54.2c2.1-7.7 4.8-15.3 8-22.7q1.2 4.2 2.6 8.2 1.4 4.1 3.1 8.1 1.6 4 3.5 7.9 1.9 3.9 4 7.7c-2.7 10.6-4 21.5-4 32.4q0 7.1 0.8 14.2l20.9-21.3q1.5 1.8 3 3.5 1.6 1.6 3.2 3.3 1.6 1.6 3.3 3.2 1.6 1.6 3.3 3.1l-20.8 21.3c15.3 1.7 30.8 0.6 45.8-3.2q3.7 2.1 7.5 4 3.8 1.9 7.8 3.6 3.9 1.6 7.9 3.1 4 1.4 8.2 2.6-10.9 5-22.4 8.2l53.3 54.3v-57.1c3 0.3 6 0.3 9.1 0.3 3.1 0 6.1-0.3 9.1-0.3v57.1l53.4-54.2c-7.7-2.1-15.2-4.9-22.4-8.2 10.9-3.2 21.5-7.7 31.4-13.4q3.9 1 7.8 1.8 4 0.8 8 1.3 4 0.5 8 0.7 4 0.3 8.1 0.3 6.9-0.1 13.9-0.8l-20.9-21.3q6.8-6.1 12.9-13.1c0 0 20.9 21.1 20.9 21.1zm39-4.1q7.9-4.7 15.1-10.4 7.2-5.7 13.5-12.4 6.3-6.7 11.6-14.2 5.4-7.5 9.7-15.8 4.2-8.2 7.3-16.9 3.2-8.7 5.1-17.8 1.9-9 2.5-18.3h-6.6l-74.7 76.1q0.3 2.5 0.5 4.9 0.2 2.5 0.4 5 0.1 2.4 0.2 4.9 0.1 2.5 0.1 4.9 0 9.2-1 18.2 8.4-3.5 16.3-8.2zm-251.5-90.9q3.5-9.8 8.2-19.1 4.7-9.3 10.4-18.1 5.7-8.7 12.3-16.8 6.7-8 14.2-15.3c8 3.1 15.7 6.9 23 11.4-6.4 5.5-12.4 11.6-17.9 18.1-5.5 6.4-10.5 13.4-14.9 20.6-4.4 7.3-8.2 14.9-11.4 22.8-3.2 7.9-5.7 16-7.6 24.3l-2.8 0.4q-2.3-3.2-4.3-6.6-2.1-3.4-3.8-6.9-1.7-3.6-3.1-7.3-1.4-3.7-2.5-7.5c0 0 0.2 0 0.2 0zm31.3-91.3c0-1-0.3-1.9-0.4-2.9q3.1-2.3 6.4-4.4 3.3-2.1 6.8-3.8 3.5-1.8 7.1-3.2 3.6-1.5 7.4-2.6 9.7 3.7 19 8.5 9.2 4.8 17.8 10.6 8.7 5.9 16.6 12.7 7.9 6.7 15 14.4-1.2 3-2.4 6-1.3 3-2.7 6-1.4 2.9-2.9 5.8-1.6 2.8-3.2 5.6c-5.4-6.5-11.3-12.6-17.7-18.2-6.3-5.6-13.1-10.6-20.3-15.1-7.2-4.5-14.7-8.4-22.6-11.6-7.8-3.3-15.8-5.9-24.1-7.8 0 0 0.2 0 0.2 0zm133.9 42.8q-3.6 9.9-8.3 19.2-4.7 9.4-10.5 18.2-5.7 8.8-12.5 16.8-6.7 8.1-14.2 15.3-3.1-1.1-6-2.4-2.9-1.3-5.8-2.7-2.9-1.4-5.7-3-2.8-1.6-5.6-3.2c6.5-5.6 12.5-11.6 18-18.1 5.5-6.5 10.5-13.5 14.9-20.8 4.4-7.3 8.2-14.9 11.4-22.8 3.2-7.9 5.7-16.1 7.6-24.4 0.9 0 1.9-0.2 2.8-0.3q2.3 3.2 4.4 6.6 2 3.3 3.7 6.9 1.8 3.5 3.2 7.2 1.4 3.7 2.4 7.5zm-31.3 91.6c0 1 0.2 1.9 0.3 2.9q-3.1 2.3-6.4 4.4-3.3 2.1-6.8 3.8-3.5 1.8-7.1 3.3-3.6 1.4-7.4 2.5-9.7-3.7-18.9-8.5-9.3-4.8-17.9-10.7-8.6-5.8-16.5-12.6-7.9-6.8-15-14.4c3-8.1 6.8-16 11.2-23.4 5.3 6.5 11.2 12.6 17.6 18.2 6.3 5.5 13.1 10.6 20.2 15.1 7.2 4.4 14.7 8.3 22.5 11.6 7.8 3.2 15.8 5.9 24 7.8zm-160.2-133.8q0.5 5.4 1.3 10.7 0.9 5.4 2 10.6 1.1 5.3 2.5 10.5 1.4 5.3 3 10.4c-1.8 8-2.8 16.2-2.8 24.4 0 6.1 0.6 12.2 1.6 18.3 1.1 6.1 2.7 12 4.8 17.8 2 5.8 4.6 11.4 7.7 16.7 3 5.3 6.5 10.4 10.4 15.2l2 2.3 3.1-0.3c6.3-0.5 12.7-1.4 18.9-2.8 4.1-0.8 8.2-1.8 12.5-3.1 7.2 6.4 15 12.2 23.1 17.4q-8 3.4-16.4 5.9-8.3 2.5-16.9 4.1-8.5 1.7-17.2 2.5-8.7 0.8-17.4 0.8-4.8-4.6-9.1-9.6-4.3-5-8.1-10.5-3.8-5.4-7-11.2-3.2-5.7-5.8-11.8-2.6-6.1-4.6-12.5-2-6.3-3.4-12.8-1.3-6.5-2-13.1-0.7-6.7-0.7-13.3c0.1-23.5 6.4-46.5 18.5-66.6zm217.7 133.2q-0.6-5.3-1.4-10.7-0.8-5.3-1.9-10.6-1.1-5.3-2.5-10.5-1.4-5.3-3.1-10.4 1.4-6 2.2-12.1 0.7-6.1 0.7-12.3 0-6.2-0.7-12.3-0.8-6.1-2.2-12.1-1.4-6-3.5-11.8-2.1-5.7-4.8-11.2-2.8-5.5-6.1-10.7-3.4-5.1-7.4-9.8l-2-2.4-3 0.2c-10.7 0.9-21.2 2.9-31.5 6q-2.7-2.4-5.5-4.7-2.8-2.3-5.7-4.4-2.9-2.2-5.9-4.3-3-2.1-6-4 7.9-3.3 16.2-5.7 8.2-2.5 16.7-4.2 8.4-1.6 17-2.5 8.5-0.8 17.1-0.8h1.1c5.3 5 10.2 10.5 14.6 16.3 4.4 5.9 8.3 12.1 11.7 18.6 3.3 6.5 6.1 13.3 8.3 20.3 2.2 7 3.8 14.1 4.8 21.4 1 7.3 1.4 14.6 1.2 22-0.2 7.3-1 14.6-2.5 21.8-1.4 7.2-3.5 14.3-6.1 21.1-2.7 6.9-5.9 13.5-9.7 19.8 0 0-0.1 0-0.1 0zm-108.9-195.9c23.1-0.1 45.8 6.4 65.5 18.6-14 1.6-27.9 4.6-41.4 9.2q-5.9-1.5-11.9-2.2-6-0.7-12.1-0.7-6.1 0-12.1 0.8-6 0.7-11.9 2.1-6 1.5-11.7 3.6-5.7 2.1-11.1 4.9-5.4 2.8-10.5 6.2-5 3.5-9.6 7.4l-2.3 2 0.2 3.2c0.9 10.8 2.8 21.5 5.8 31.9q-2.3 2.8-4.6 5.6-2.2 2.9-4.3 5.9-2.2 2.9-4.2 5.9-2 3.1-4 6.2-3.2-8.1-5.7-16.5-2.4-8.4-4-17-1.7-8.6-2.5-17.3-0.8-8.7-0.8-17.4v-1.1q4.5-4.9 9.4-9.2 4.9-4.4 10.2-8.2 5.4-3.9 11.1-7.2 5.7-3.2 11.7-5.9 6-2.7 12.2-4.7 6.2-2 12.6-3.4 6.4-1.3 12.9-2 6.5-0.7 13.1-0.7zm0 258.6c-23.1 0-45.7-6.4-65.4-18.6q5.3-0.5 10.5-1.3 5.3-0.9 10.5-2 5.2-1.1 10.3-2.6 5.1-1.4 10.2-3.1c7.8 1.9 15.8 2.9 23.9 2.9 6.1 0 12.1-0.6 18.1-1.7 6-1.1 11.9-2.7 17.5-4.8 5.7-2.2 11.2-4.8 16.4-7.9 5.3-3.1 10.2-6.7 14.8-10.7l2.3-2-0.2-3.1q-0.3-4.1-0.9-8.1-0.5-4-1.2-8-0.7-4-1.7-8-0.9-4-2.1-7.9 2.4-2.8 4.6-5.6 2.3-2.9 4.4-5.9 2.2-2.9 4.2-5.9 2.1-3.1 4-6.2 3.2 8.2 5.6 16.5 2.5 8.4 4.1 17 1.6 8.6 2.5 17.3 0.8 8.7 0.7 17.4v1q-4.4 4.8-9.3 9.2-4.9 4.4-10.2 8.2-5.4 3.8-11.1 7.1-5.7 3.3-11.7 6-6 2.6-12.2 4.7-6.2 2-12.6 3.3-6.4 1.4-13 2.1-6.5 0.7-13 0.7zm1196.6 19.6v-229.5l-80 111.3h-38.5l-80-111.3v229.5h-49.4v-298h59.6l88.9 124.3 88.9-124.3h59.6v298zm-307.3-118.2h-150.5v117.9h-49.4v-297.7h208.6v48.1h-159v85.8h150.5zm-272.3-123.9q3.8 5.5 7.1 11.4 3.3 5.9 6.1 12 2.8 6.1 5 12.5 2.3 6.5 4 13.2 1.7 6.7 2.9 13.5 1.2 6.8 1.9 13.7 0.6 6.9 0.7 13.8c0.3 18.9-2.4 37.8-8.1 55.8q-2.1 6.6-4.9 12.9-2.7 6.4-6 12.4-3.2 6.1-7.1 11.9-3.8 5.7-8.1 11.1-4.7 5.6-9.9 10.7-5.3 5-11.2 9.3-5.8 4.4-12.1 8-6.3 3.7-13.1 6.5-7.8 3.4-15.9 5.9-8.1 2.5-16.4 4.1-8.3 1.6-16.8 2.4-8.5 0.8-16.9 0.6h-114.4v-298h114.5q8.3-0.2 16.7 0.5 8.3 0.7 16.5 2.3 8.2 1.5 16.2 3.9 8 2.4 15.7 5.6 6.6 2.7 12.8 6.2 6.2 3.5 11.9 7.7 5.8 4.2 11 9 5.3 4.9 9.9 10.3 4.2 5.2 8 10.8zm-34 146.3c3.1-5.7 5.6-11.8 7.6-18 2.1-6.3 3.5-12.7 4.4-19.2 0.8-6.5 1.1-13 0.8-19.6 0-6.3-0.5-12.6-1.6-18.8-1.1-6.3-2.8-12.4-4.9-18.3-2.2-5.9-4.9-11.7-8.1-17.1-3.2-5.5-6.8-10.7-10.9-15.5-16.5-19.2-40.7-29-72-29h-65.4v202.8h65.4c32.7 0 57.6-10.4 74-30.8 4.1-5.2 7.6-10.7 10.7-16.5zm-169.4 260.4q0 0 0 0zm0 0c0 0 0-11.4 0-11.4h9.3v11.4zm17.3-11.4h9.3v11.4h-9.3c0 0 0-11.4 0-11.4zm82.3-118.1h9.2v62.9c0 15.7-6.5 23.5-19.3 23.5h-11.6c-5.4 0.2-10.7-1.5-15.1-4.9-4.3-3.3-7.4-8.1-8.8-13.4 0 22.3-19.3 40-41.7 40-24.1 0-42.5-20.8-42.5-47.5v-13.3h9.3v11.5c0 24.1 12.6 40 33.5 40 17.6 0 33-15 33-31 0-12-6.3-18.2-17.1-18.2v-8.6h7c8 0 19 8.2 23.1 18.9 4.8 12.8 9.2 17.2 19 17.2h8.7q0.8 0.1 1.6 0.1 0.9 0 1.7-0.1 0.8-0.2 1.6-0.4 0.8-0.3 1.5-0.7 0.8-0.3 1.4-0.8 0.7-0.5 1.3-1.1 0.6-0.5 1.1-1.2 0.5-0.7 1-1.4c1.6-4 2.3-8.4 1.9-12.8zm156 0h9.2v62.9c0 15.6-6.5 23.5-19.3 23.5h-28.7c-2.6 3.6-6 6.6-9.8 8.6q-2.9 1.5-6.1 2.3-3.2 0.8-6.5 0.8-3.3 0-6.5-0.8-3.2-0.8-6.1-2.3c-3.9-2-7.2-5-9.8-8.6h-27.3q-1.7 0-3.3-0.3-1.6-0.3-3.2-1-1.5-0.6-2.9-1.6-1.4-0.9-2.5-2.2-1.5-1.6-2.7-3.5-1.1-1.9-1.8-4-0.7-2.1-1-4.3-0.3-2.2-0.2-4.4v-65.1h9.5v59.7q-0.2 1.7-0.1 3.4 0.2 1.7 0.5 3.4 0.3 1.7 0.9 3.3 0.5 1.6 1.3 3.1 0.6 0.9 1.5 1.6 0.8 0.8 1.8 1.3 0.9 0.6 2 0.9 1.1 0.3 2.2 0.3 1 0.1 2.1 0.1 1 0.1 2.1 0.1 1 0 2.1-0.1 1 0 2-0.1h13c-0.7-3-1-6.1-1-9.2-0.2-7.9 2.4-15.7 7.5-21.8 2.5-2.8 5.7-5.1 9.2-6.5q1.3-0.6 2.7-1 1.3-0.4 2.7-0.6 1.4-0.3 2.9-0.4 1.4-0.1 2.8 0 1.4-0.1 2.8 0 1.5 0.1 2.9 0.4 1.4 0.2 2.7 0.6 1.4 0.4 2.7 1 1.3 0.6 2.5 1.3 1.3 0.7 2.4 1.5 1.2 0.9 2.3 1.8 1 1 1.9 2.1c4.8 6.1 7.3 13.7 7 21.5 0 3.1-0.4 6.3-1.2 9.3h21.7c5.6 0 9.3-1.7 11.1-5.5 1.6-4 2.3-8.4 2-12.8 0 0 0-58.7 0-58.7zm-44.2 66.8c0.2-5.1-1.1-10.1-3.7-14.4-1.3-2.2-3.1-3.9-5.3-5.1-2.2-1.1-4.7-1.6-7.2-1.5-2.6-0.1-5.3 0.5-7.6 1.7-2.4 1.3-4.4 3.1-5.9 5.4q-1 1.8-1.7 3.6-0.8 1.9-1.3 3.9-0.4 1.9-0.6 4-0.2 2-0.1 4-0.1 1.9 0.1 3.8 0.2 1.9 0.7 3.8 0.4 1.9 1.2 3.6 0.7 1.8 1.7 3.5 0.6 0.7 1.2 1.5 0.6 0.7 1.3 1.3 0.8 0.7 1.5 1.2 0.8 0.5 1.7 1 0.8 0.4 1.7 0.7 0.9 0.3 1.9 0.5 0.9 0.2 1.8 0.3 1 0.1 1.9 0 16.6 0 16.7-22.8zm71-66.8h9.2v86.4h-9.2c0 0 0-86.4 0-86.4zm91.4 118.2h9.3v11.4h-9.3zm-17.2 0h9.3v11.3h-9.3zm99.9-22.7h9.4v11.4h-9.3zm0.1-69.4h9.2v37.1c0 15.6-6.4 23.5-19.3 23.5h-11.7q-2 0.1-4.1-0.2-2-0.2-4-0.8-2-0.7-3.8-1.6-1.9-0.9-3.5-2.2-1.7-1.3-3.1-2.8-1.4-1.5-2.6-3.2-1.1-1.8-2-3.7-0.8-1.9-1.3-3.9c0 22.3-19.4 40-41.8 40-24.1 0-42.5-20.8-42.5-47.5v-13.4h9.3v11.6c0 24.1 12.7 40 33.6 40 17.6 0 32.9-15 32.9-31 0-12-6.3-18.2-17.1-18.2v-8.6h7c8.2 0 19.1 8.2 23.1 18.9 4.9 12.8 9.2 17.2 19.1 17.2h9.4q0.8 0.1 1.7 0.1 0.8 0 1.6-0.1 0.8-0.2 1.6-0.4 0.8-0.3 1.6-0.7 0.7-0.3 1.4-0.8 0.7-0.5 1.3-1.1 0.6-0.5 1.1-1.2 0.5-0.7 0.9-1.4c1.6-4.1 2.3-8.4 2-12.8zm30.9-0.5c18.6 0 31.3 7.5 38 22.6 4.1 9 6 21.7 6 38.4h-58.2v-9.4h48.4c0.4-10-1.8-19.9-6.5-28.7-2.5-4.2-6.1-7.7-10.4-10.2-4.2-2.4-9-3.7-13.9-3.7h-3.5v-8.8zm130.3-9.3h-9.5v-11.4h9.5zm4.5 7.4c15.4 0 25.5 9.8 25.3 27.6v14.7c0 13.5-3.9 23.9-11.2 31.5-7.2 7.6-17.3 11.4-30 11.4-5.6 0.1-11.1-0.9-16.2-3-5.1-2.2-9.8-5.3-13.7-9.3q-3-3.1-5.3-6.8-2.3-3.7-3.9-7.7-1.5-4.1-2.3-8.4-0.7-4.2-0.5-8.6v-23.7h9.4v22q-0.1 3.5 0.4 7.1 0.5 3.5 1.6 6.9 1.2 3.4 3 6.5 1.7 3.1 4.1 5.8 1 1.2 2.2 2.3 1.2 1.1 2.6 2.1 1.3 1 2.7 1.8 1.4 0.8 2.9 1.4 1.5 0.7 3 1.2 1.6 0.5 3.2 0.8 1.6 0.3 3.2 0.4 1.6 0.2 3.3 0.1 2.7 0.1 5.4-0.2 2.8-0.4 5.4-1.1 2.7-0.8 5.2-2 2.4-1.1 4.7-2.7 2.5-1.9 4.6-4.3 2.1-2.4 3.6-5.2 1.5-2.7 2.4-5.8 0.9-3 1.1-6.2-1.5 1.8-3.3 3.1-1.8 1.4-3.9 2.3-2.1 0.9-4.3 1.4-2.2 0.4-4.5 0.3-2.5 0.1-5-0.4-2.5-0.4-4.9-1.4-2.3-1-4.4-2.5-2.1-1.4-3.8-3.3-1.8-2-3.2-4.4-1.4-2.4-2.3-5-0.9-2.6-1.2-5.3-0.4-2.7-0.3-5.4c0-17.2 9.3-27.8 24.7-27.8zm12.7 41.7c2.3-4 3.4-8.5 3.3-13.1 0.1-4.8-0.9-9.6-3-13.9-1.2-2.3-3-4.2-5.2-5.5-2.2-1.3-4.7-1.9-7.2-1.8h-1.3c-2.4-0.1-4.8 0.6-6.9 1.9-2 1.3-3.7 3.1-4.8 5.3q-0.8 1.5-1.4 3.1-0.6 1.6-1 3.3-0.4 1.7-0.6 3.4-0.2 1.7-0.1 3.4-0.1 1.8 0.1 3.6 0.2 1.8 0.6 3.5 0.5 1.8 1.1 3.4 0.7 1.7 1.6 3.3 0.4 0.8 1 1.5 0.6 0.8 1.2 1.4 0.7 0.7 1.4 1.3 0.8 0.5 1.6 1 0.8 0.4 1.7 0.8 0.8 0.3 1.7 0.5 0.9 0.3 1.9 0.3 0.9 0.1 1.8 0.1 1.8 0.1 3.6-0.4 1.8-0.4 3.4-1.2 1.6-0.9 2.9-2.1 1.4-1.3 2.3-2.8zm0.1-49h-9.5v-11.4h9.5c0 0 0 11.4 0 11.4zm196.7 9.6v37.1c0 15.6-6.4 23.5-19.4 23.5h-101.6c-2.7 13.8-11.6 21-26.6 21.9v-8.9h1.1q1.4 0 2.8-0.1 1.4-0.2 2.7-0.6 1.4-0.5 2.6-1.1 1.2-0.7 2.3-1.6c3-2.4 5-5.8 5.6-9.6h-14.3c-3.4 0.1-6.9-0.6-10-2.1-3.2-1.5-5.9-3.7-8.1-6.4q-1.8-2.3-3.2-4.9-1.4-2.6-2.3-5.3-0.9-2.8-1.3-5.7-0.4-2.9-0.3-5.8-0.1-2.9 0.4-5.8 0.4-2.9 1.4-5.7 0.9-2.8 2.4-5.4 1.4-2.6 3.3-4.8 0.8-1.1 1.8-2 1-1 2-1.8 1.1-0.8 2.3-1.5 1.1-0.7 2.3-1.3 1.3-0.6 2.5-1 1.3-0.4 2.6-0.7 1.3-0.3 2.7-0.4 1.3-0.2 2.7-0.2c14.5 0 23.6 9.1 23.6 26.8v24.8h28.2c8.5 0 11.2-4.3 11.2-18.4v-33h9.2v37.1c0.2 4.9-0.7 9.7-2.5 14.2h17.5c8.4 0 11.1-4.2 11.1-18.3v-33h9.3v37.1c0.2 4.9-0.7 9.7-2.6 14.2h15.8c9.9 0 13.1-4.2 13.1-18.3v-33zm-129.8 23q0-1.5-0.2-2.9-0.3-1.5-0.8-2.8-0.6-1.4-1.4-2.6-0.8-1.3-1.8-2.3-1.1-1-2.3-1.8-1.2-0.8-2.5-1.3-1.4-0.5-2.8-0.7-1.5-0.3-2.9-0.2c-2.5 0-4.9 0.7-7 1.9-2.2 1.3-4 3.1-5.2 5.2q-1.1 1.5-1.9 3.2-0.8 1.7-1.3 3.4-0.5 1.8-0.8 3.6-0.3 1.9-0.2 3.7-0.1 1.9 0.1 3.7 0.3 1.9 0.7 3.7 0.5 1.8 1.2 3.5 0.7 1.8 1.7 3.4 0.4 0.8 1 1.6 0.5 0.8 1.1 1.5 0.7 0.7 1.4 1.3 0.8 0.6 1.6 1.1c2.1 1.4 4.6 2.1 7.1 2.1h15.2z"/>
</svg>