<?xml version="1.0" ?>
<svg xmlns="http://www.w3.org/2000/svg" viewBox="0 0 152 50" fill="none" role="img" aria-label="Dfns logo">
	<path d="M21.25 24.996V50L42.5 37.498V12.502L21.25 24.996z" fill="#b3abbc"/>
	<path d="M0 12.502v24.996L21.25 50V24.996L0 12.502z" fill="#685879"/>
	<path d="M21.25 0L0 12.502l21.25 12.493L42.5 12.502 21.25 0z" fill="#e5e3e8"/>
	<g fill="#473955">
		<path d="M7.93 17.163v15.674l13.321 7.841V24.996L7.93 17.163z"/>
		<path d="M21.251 9.322L7.93 17.164l13.321 7.833 13.33-7.832-13.33-7.841z"/>
		<path d="M21.25 24.996v15.683l13.33-7.841V17.163l-13.33 7.833z"/>
	</g>
	<path d="M14.619 21.097v7.806l6.631 3.899v-7.806l-6.631-3.899z" fill="#8fa300"/>
	<path d="M21.25 17.198l-6.631 3.899 6.631 3.899 6.63-3.899-6.63-3.899z" fill="#f4ffa3"/>
	<path d="M21.25 24.996v7.806l6.63-3.899v-7.806l-6.63 3.899z" fill="#e1ff0b"/>
	<g fill="currentColor">
		<path d="M90.476 18.23c0-1.881.429-3.552 1.289-5.013.859-1.474 2.063-2.618 3.612-3.433 1.563-.828 3.387-1.257 5.471-1.285v5.118c-.972.014-1.803.218-2.493.611-.676.379-1.197.934-1.563 1.664-.337.672-.519 1.451-.546 2.338h4.475v4.865h-4.478v18.344h-5.767V23.095h-.003V18.23h.003zm32.468 2.295c-1.706-1.762-3.944-2.643-6.714-2.643-1.454 0-2.797.294-4.028.881a7.96 7.96 0 0 0-2.979 2.35v-2.895h-5.874v23.246h5.874v-12.84c0-1.846.462-3.259 1.385-4.238.951-1.007 2.238-1.511 3.86-1.511 1.595 0 2.853.503 3.776 1.511.924.979 1.385 2.392 1.385 4.238v12.84h5.875V27.827c0-3.133-.854-5.567-2.56-7.301zm10.045 20.405c1.51.671 3.217 1.007 5.119 1.007 1.846 0 3.454-.294 4.825-.881 1.399-.615 2.462-1.455 3.189-2.518a6.08 6.08 0 0 0 1.133-3.609c-.028-1.539-.448-2.769-1.259-3.692-.783-.951-1.72-1.65-2.811-2.098s-2.476-.881-4.154-1.301c-1.651-.42-2.867-.825-3.651-1.217-.783-.42-1.175-1.021-1.175-1.804 0-.699.28-1.245.84-1.637.587-.392 1.412-.587 2.475-.587 1.147 0 2.056.28 2.728.839.699.531 1.091 1.259 1.175 2.182h5.622c-.168-2.35-1.077-4.21-2.727-5.581-1.651-1.399-3.861-2.098-6.63-2.098-1.874 0-3.511.308-4.909.923-1.371.616-2.434 1.455-3.189 2.518-.727 1.063-1.091 2.238-1.091 3.525 0 1.567.391 2.811 1.175 3.735a7.61 7.61 0 0 0 2.853 2.056c1.119.448 2.546.881 4.28 1.301 1.678.448 2.895.867 3.65 1.259.784.364 1.175.923 1.175 1.678 0 .699-.321 1.273-.965 1.72-.615.447-1.482.671-2.601.671-1.147 0-2.112-.294-2.895-.881-.756-.587-1.189-1.329-1.301-2.224h-5.917c.084 1.427.56 2.727 1.427 3.902.895 1.175 2.098 2.112 3.609 2.811z"/>
		<path fill-rule="evenodd" d="M79.381 10.921C76.8 9.582 73.8 8.912 70.38 8.912H59v32.6H70.38c3.42 0 6.42-.669 9.001-2.008 2.612-1.339 4.617-3.223 6.016-5.651 1.43-2.46 2.145-5.324 2.145-8.594s-.715-6.134-2.145-8.594c-1.399-2.491-3.404-4.406-6.016-5.745zm-1.306 22.232c-1.865 1.868-4.508 2.802-7.928 2.802h-4.617V14.423h4.617c3.42 0 6.063.965 7.928 2.896 1.865 1.899 2.798 4.546 2.798 7.94s-.933 6.025-2.798 7.893z"/>
	</g>
</svg>