<?xml version="1.0" ?>
<svg xmlns="http://www.w3.org/2000/svg" viewBox="0 0 1208 185">
	<g clip-path="url(#clip0_195_1447)">
		<path d="M723.506 103.654C723.506 129.023 703.392 141.615 685.576 143.777C678.871 144.567 674.465 144.567 666.036 144.567H613.386V8.85669H667.569C674.657 8.85669 677.722 8.85669 684.427 9.64706C706.265 12.3978 718.525 26.5624 718.525 44.2605C718.525 56.6506 712.204 66.0885 699.177 70.8152C715.843 75.7356 723.506 87.1417 723.506 103.662V103.654ZM647.837 62.3537H663.354C666.419 62.3537 669.293 62.1599 671.783 61.7648C678.105 60.7807 682.511 57.441 682.511 49.3746C682.511 41.3082 678.488 37.9685 671.975 36.9844C669.484 36.5893 666.419 36.3955 663.354 36.3955H647.837V62.3614V62.3537ZM687.492 102.476C687.492 93.4259 681.17 88.7069 674.082 88.118C671.592 87.9243 668.527 87.9243 665.462 87.9243H647.837V117.036H666.419C669.484 117.036 672.549 117.036 675.04 116.842C681.17 116.447 687.492 111.333 687.492 102.484V102.476Z" fill="#27272A"/>
		<path d="M0 8.91101H52.6807C94.2505 8.91101 116.089 33.1257 116.089 76.7121C116.089 120.298 94.2505 144.513 52.6807 144.513H0V8.91101ZM49.424 116.23C75.0939 116.23 83.1397 104.801 83.1397 76.7121C83.1397 48.6231 75.0939 37.1937 49.424 37.1937H31.9915V116.23H49.424Z" fill="#27272A"/>
		<path d="M146.739 0C155.551 0 163.597 7.16754 163.597 17.0471C163.597 26.9267 155.551 34.0942 146.739 34.0942C137.927 34.0942 129.69 26.733 129.69 17.0471C129.69 7.36126 137.736 0 146.739 0ZM131.031 43.7801H162.448V144.513H131.031V43.7801Z" fill="#27272A"/>
		<path d="M177.774 149.55H205.551C206.126 158.461 216.662 160.592 223.75 160.592C235.627 160.592 245.397 154.586 245.397 140.251V129.209H245.014C240.608 135.602 231.221 141.801 217.62 141.801C198.08 141.801 176.05 128.822 176.05 91.822C176.05 54.822 198.463 41.8429 217.62 41.8429C231.221 41.8429 240.608 48.0418 245.014 54.4345H245.397V43.7801H276.814V140.251C276.814 178.607 244.439 185 224.708 185C208.041 185 177.965 180.932 177.774 149.55ZM226.432 115.455C237.351 115.455 246.738 107.9 246.738 91.822C246.738 75.7434 237.351 68.1884 226.432 68.1884C215.512 68.1884 205.551 75.7434 205.551 91.822C205.551 107.9 215.129 115.455 226.432 115.455Z" fill="#27272A"/>
		<path d="M311.102 0C319.914 0 327.96 7.16754 327.96 17.0471C327.96 26.9267 319.914 34.0942 311.102 34.0942C302.29 34.0942 294.053 26.733 294.053 17.0471C294.053 7.36126 302.099 0 311.102 0ZM295.394 43.7801H326.811V144.513H295.394V43.7801Z" fill="#27272A"/>
		<path d="M355.547 112.55V68.3822H338.498V43.7801H355.547V17.4346H386.964V43.7801H406.504V68.3822H386.964V108.094C386.964 115.068 388.879 120.686 399.032 120.686C401.14 120.686 402.864 120.686 407.27 120.298V143.738C402.481 145.094 396.734 145.869 390.795 145.869C369.34 145.869 355.547 135.99 355.547 112.55Z" fill="#27272A"/>
		<path d="M417.99 117.586C417.99 93.9528 437.529 89.8848 454.004 87.3665L468.946 85.0419C477.758 83.6858 480.44 82.5235 480.44 76.1309V75.9371C480.44 66.6387 474.119 64.5078 467.414 64.5078C460.326 64.5078 452.472 66.445 452.472 76.3246V78.4555H423.162V73.2251C423.162 53.6596 435.805 41.8429 468.18 41.8429C500.555 41.8429 511.282 53.0785 511.282 74.3874V144.513H481.207V127.078H479.866C478.333 132.115 471.054 146.45 449.79 146.45C434.081 146.45 417.99 138.702 417.99 117.586ZM460.901 123.979C471.628 123.979 480.44 117.005 480.44 109.257V99.7644C478.716 101.895 473.735 102.476 470.862 103.058L458.41 105.382C451.705 106.932 449.407 110.613 449.407 114.681C449.407 119.33 451.897 123.979 460.901 123.979Z" fill="#27272A"/>
		<path d="M528.139 8.91101H559.556V144.513H528.139V8.91101Z" fill="#27272A"/>
		<path d="M783.497 120.298C793.459 120.298 801.888 114.681 801.888 100.346V43.7802H833.305V144.513H801.888V123.204H800.738C798.823 133.084 789.244 146.45 769.705 146.45C750.165 146.45 735.606 133.471 735.606 108.094V43.7802H767.023V100.346C767.023 114.681 773.536 120.298 783.497 120.298Z" fill="#27272A"/>
		<path d="M858.4 112.55V68.3822H841.351V43.7801H858.4V17.4346H889.817V43.7801H909.357V68.3822H889.817V108.094C889.817 115.068 891.733 120.686 901.886 120.686C903.993 120.686 905.717 120.686 910.123 120.298V143.738C905.334 145.094 899.587 145.869 893.649 145.869C872.193 145.869 858.4 135.99 858.4 112.55Z" fill="#27272A"/>
		<path d="M933.102 112.55V68.3822H916.053V43.7801H933.102V17.4346H964.519V43.7801H984.059V68.3822H964.519V108.094C964.519 115.068 966.435 120.686 976.588 120.686C978.695 120.686 980.419 120.686 984.825 120.298V143.738C980.036 145.094 974.289 145.869 968.35 145.869C946.895 145.869 933.102 135.99 933.102 112.55Z" fill="#27272A"/>
		<path d="M991.722 93.7591C991.722 56.178 1015.86 41.8429 1042.49 41.8429C1069.11 41.8429 1090.76 54.822 1090.76 94.1466C1090.76 97.8272 1090.57 99.7644 1090.19 102.089H1021.41C1023.14 116.811 1030.8 122.429 1043.06 122.429C1055.32 122.429 1060.11 117.005 1061.84 110.419H1089.42C1084.82 133.665 1067.01 146.45 1042.49 146.45C1017.97 146.45 991.722 132.89 991.722 93.7591ZM1061.07 83.6858C1060.49 74.9686 1056.09 65.8638 1041.72 65.8638C1030.04 65.8638 1023.52 72.0628 1021.61 83.6858H1061.07Z" fill="#27272A"/>
		<path d="M1103.6 43.7801H1135.01V68.7696H1135.59C1139.42 52.8848 1148.81 42.6178 1163.94 42.6178C1166.05 42.6178 1168.54 42.8115 1171.6 43.5864V70.3194C1168.35 69.9319 1166.05 69.7382 1163.56 69.7382C1149.76 69.7382 1135.01 76.9058 1135.01 102.283V144.513H1103.6V43.7801Z" fill="#27272A"/>
		<path d="M1170.84 128.047C1170.84 117.586 1179.07 109.644 1189.42 109.644C1199.76 109.644 1208 117.586 1208 128.047C1208 138.508 1199.57 146.45 1189.42 146.45C1179.26 146.45 1170.84 138.314 1170.84 128.047Z" fill="#B37844"/>
	</g>
</svg>