<?xml version="1.0" ?>
<svg xmlns="http://www.w3.org/2000/svg" role="img" viewBox="-12.48 141.52 856.96 306.46">
	<style>svg {enable-background:new 0 0 841.89 595.28}</style>
	<style>.st1{fill:#231815}</style>
	<g>
		<g>
			<path d="M 359.95,189.18 C 359.95,189.18 354.21,187.94 352.01,187.39 C 353.93,186.71 358.87,186.16 360.93,185.61 L 360.87,184.99 C 357.61,184.05 352.83,183.83 350.78,182.73 L 358.58,181.09 L 358.58,180.4 C 355.02,179.58 347.9,178.48 347.9,178.48 L 356.53,176.56 L 355.98,175.87 L 342.83,173.82 L 352.68,172.04 L 352.0,171.36 L 333.11,170.0 L 332.56,169.46 L 347.62,167.96 L 347.48,167.27 C 342.01,166.54 331.22,165.53 331.22,165.53 L 330.69,165.17 L 337.83,164.71 L 338.4,164.22 C 338.4,164.22 319.59,160.82 305.02,161.04 C 289.04,160.69 272.2,163.0 272.2,163.0 L 272.85,163.54 C 272.85,163.54 277.88,163.46 281.76,163.98 C 285.49,164.46 287.41,165.06 287.41,165.06 C 287.41,165.06 260.94,166.41 259.47,166.5 C 256.86,166.66 249.41,167.55 249.41,167.55 L 250.61,168.04 C 250.61,168.04 258.62,167.57 265.73,167.69 C 272.75,167.8 277.58,168.2 277.63,168.42 C 277.68,168.63 269.1,168.9 260.34,169.5 C 247.86,170.35 233.94,171.93 233.94,171.93 L 234.45,172.3 C 234.45,172.3 251.3,173.19 257.09,173.76 C 248.19,173.9 221.91,176.48 221.91,176.48 L 222.04,176.93 C 222.04,176.93 239.5,178.14 241.19,178.51 C 230.64,179.74 210.37,180.7 210.37,180.7 L 210.78,181.11 C 210.78,181.11 223.24,181.79 229.0,182.89 C 219.28,184.12 199.28,185.08 199.28,185.08 L 199.56,185.77 C 199.56,185.77 209.98,186.6 216.13,187.41 C 207.29,188.22 188.59,189.74 188.59,189.74 L 189.14,190.15 L 204.48,191.79 L 179.01,193.78 L 178.87,194.26 C 178.87,194.26 188.74,195.63 193.8,196.31 C 185.99,197.28 170.19,198.15 170.19,198.15 L 170.46,198.73 C 170.46,198.73 180.91,199.8 185.04,200.69 C 177.07,201.15 161.51,202.78 161.51,202.78 L 161.62,203.29 L 176.24,205.22 L 152.13,207.02 L 151.9,207.39 C 151.9,207.39 161.07,208.62 166.42,209.58 C 159.25,209.95 143.96,211.58 143.96,211.58 L 143.81,212.06 L 157.37,213.84 L 135.99,216.03 L 136.01,216.58 L 150.4,218.5 C 143.28,219.45 128.85,220.53 128.85,220.53 L 128.85,220.91 L 141.76,223.01 L 120.82,225.2 L 120.95,225.6 C 120.95,225.6 131.38,226.45 134.1,227.26 C 129.02,228.08 114.24,230.0 114.24,230.0 L 114.45,230.37 C 114.45,230.37 124.07,231.11 126.3,231.64 C 113.77,232.93 107.66,233.69 107.66,233.69 L 107.89,234.03 C 107.89,234.03 117.06,235.52 120.13,236.16 C 113.69,237.11 106.84,237.66 100.41,238.35 L 100.75,238.72 C 100.75,238.72 109.85,240.0 113.15,240.68 C 106.57,241.91 93.83,242.87 93.83,242.87 L 94.2,243.29 C 94.2,243.29 103.26,244.44 105.89,245.06 C 99.67,245.93 88.63,246.84 88.63,246.84 L 88.63,247.25 C 88.63,247.25 95.48,248.61 99.18,249.44 C 93.15,250.39 87.67,251.08 82.05,251.49 L 82.05,251.76 L 93.28,253.95 C 93.28,253.95 81.64,255.32 75.47,256.0 L 75.53,256.42 L 86.97,258.33 C 86.97,258.33 76.29,259.56 70.81,260.11 L 70.81,260.52 C 70.81,260.52 88.51,261.73 101.49,260.38 L 101.38,259.92 L 89.89,259.17 L 106.4,256.67 L 107.72,256.02 C 103.47,255.61 100.36,255.02 96.25,254.61 C 102.69,253.65 115.45,251.76 115.45,251.76 L 115.48,251.32 C 115.48,251.32 106.85,250.88 103.42,249.89 L 122.28,247.59 L 122.41,247.14 C 122.41,247.14 115.71,246.59 110.75,245.65 C 116.55,244.76 130.13,243.02 130.13,243.02 L 130.32,242.64 L 118.21,241.25 L 118.59,240.92 C 118.59,240.92 132.29,239.13 138.23,238.2 L 138.46,237.93 C 138.46,237.93 134.37,237.1 125.31,236.15 C 132.02,235.05 146.27,234.23 146.27,234.23 L 146.46,233.69 L 132.44,232.17 L 154.95,229.65 L 155.08,229.13 C 155.08,229.13 146.39,228.32 141.2,227.32 L 164.41,225.14 L 164.67,224.69 L 149.23,222.83 L 174.25,220.77 L 174.45,220.25 L 158.74,218.47 C 158.74,218.47 176.01,217.37 184.22,216.28 L 184.16,215.68 C 184.16,215.68 169.02,214.64 168.06,213.95 C 177.37,212.72 195.59,211.62 195.59,211.62 L 195.22,211.24 L 178.74,209.43 C 178.74,209.43 199.97,208.2 208.46,207.24 L 208.47,206.74 L 189.84,204.91 L 222.11,202.62 L 222.17,202.23 L 201.48,200.66 L 239.94,197.78 L 239.68,197.4 C 239.68,197.4 224.05,196.5 214.63,196.27 C 227.31,194.58 242.69,193.47 256.22,192.64 C 286.68,190.76 310.23,196.27 310.23,196.27 C 310.23,196.27 298.04,196.58 294.48,197.4 L 295.02,198.09 L 314.07,200.8 L 303.72,202.44 L 304.13,202.99 L 316.07,204.87 L 316.91,205.77 L 308.86,207.23 L 309.54,207.91 L 318.58,209.69 L 311.05,211.81 L 311.46,212.3 L 319.41,214.07 L 311.46,215.99 L 311.69,216.44 L 319.414,217.92 L 319.4,218.6 C 319.4,218.6 313.92,219.83 311.45,220.24 C 311.59,220.51 311.43,220.81 311.43,220.81 L 319.26,222.97 C 319.26,222.97 310.86,224.67 310.6,224.73 C 310.34,224.8 310.22,225.3 310.22,225.3 C 312.55,225.99 318.03,227.22 318.03,227.22 L 308.85,229.14 L 308.8,229.81 L 316.12,231.6 L 316.12,231.88 L 306.95,233.66 L 306.95,234.48 L 314.62,236.26 L 304.07,238.45 L 304.2,239.0 L 312.14,240.65 L 301.96,242.64 L 301.59,243.52 L 309.4,245.17 L 298.31,246.81 L 298.17,247.5 L 306.25,249.28 L 306.25,249.69 L 294.61,251.61 L 294.88,252.16 C 294.88,252.16 301.18,253.12 303.24,254.08 C 298.86,255.04 290.77,256.27 290.77,256.27 L 291.24,256.9 L 299.95,258.32 L 286.93,260.65 L 287.34,261.34 L 295.84,262.85 L 283.25,264.63 L 283.27,265.4 L 291.82,266.82 L 291.74,267.37 L 278.59,269.15 L 278.59,269.7 C 281.47,270.52 285.16,270.65 288.31,271.61 C 284.21,272.7 278.59,273.11 274.07,273.8 L 274.48,274.49 C 274.48,274.49 280.91,275.44 283.66,276.27 C 279.14,276.95 268.73,278.45 268.73,278.45 L 269.25,279.03 C 269.25,279.03 275.85,279.83 279.28,280.51 C 274.63,281.61 270.1,281.75 265.44,282.29 L 264.62,282.97 C 267.5,283.79 270.78,283.93 274.07,284.75 L 274.07,285.15 C 269.82,286.39 259.55,287.21 259.55,287.21 L 259.55,287.76 L 269.41,289.27 C 269.41,289.27 258.18,290.77 254.34,291.59 L 254.58,292.07 L 264.61,294.06 L 249.24,295.62 L 248.99,296.12 L 259.46,297.93 L 259.4,298.45 C 254.76,299.58 243.51,300.25 243.51,300.25 L 243.1,300.79 C 243.1,300.79 250.37,301.61 254.07,302.83 C 249.05,303.93 236.89,304.75 236.89,304.75 C 236.89,304.75 236.98,305.14 236.53,305.3 C 240.64,305.99 248.87,307.22 248.87,307.22 C 248.87,307.22 235.17,308.45 229.83,309.42 L 230.21,309.9 L 241.75,311.74 L 221.48,313.93 L 221.98,314.39 L 235.04,315.98 L 212.58,318.44 L 212.99,318.9 L 226.69,320.5 L 202.03,322.83 L 202.24,323.33 C 202.24,323.33 213.12,324.06 219.01,324.88 C 204.17,326.98 186.32,328.69 174.63,325.02 C 176.82,324.06 182.8,322.85 182.8,322.85 L 183.49,322.26 C 183.49,322.26 177.71,321.0 174.83,320.46 C 178.81,319.23 186.41,318.3 186.41,318.3 L 185.86,317.63 C 185.86,317.63 180.4,317.33 177.91,315.98 C 182.42,315.44 187.31,315.01 191.06,313.51 C 188.45,313.21 184.63,312.83 181.34,311.46 L 195.59,309.68 L 195.67,309.05 C 195.67,309.05 189.3,308.54 185.73,307.21 C 190.79,306.39 201.34,305.02 201.34,305.02 L 201.07,304.47 C 201.07,304.47 193.68,303.64 190.39,302.68 C 197.09,301.78 207.06,300.62 207.06,300.62 L 206.99,300.04 C 206.99,300.04 198.74,299.53 196.41,298.16 L 212.14,296.35 L 212.72,295.7 C 212.17,295.56 204.21,294.76 202.03,293.77 C 207.37,292.53 213.82,293.22 218.61,291.3 C 215.04,290.21 210.94,290.89 207.79,289.52 C 212.45,288.15 218.75,288.28 223.26,287.47 L 223.26,286.92 C 220.25,286.5 216.42,285.83 213.41,285.0 C 217.79,283.91 226.99,283.14 227.65,283.08 L 228.47,282.54 C 225.32,282.13 221.21,281.45 217.93,280.48 C 222.72,279.39 232.85,278.42 233.13,278.42 L 233.13,277.88 C 233.13,277.88 224.23,277.2 223.96,275.96 C 228.62,274.6 237.65,273.9 237.65,273.9 L 237.65,273.49 C 237.65,273.49 229.96,272.19 227.63,270.95 C 231.34,270.41 231.63,271.05 240.96,269.63 L 241.62,268.97 L 232.3,266.79 L 245.29,265.42 L 245.59,265.0 L 236.63,263.14 C 236.63,263.14 236.63,262.85 236.42,262.8 L 248.55,260.79 L 248.74,260.48 L 240.1,258.52 L 240.11,258.15 C 243.54,257.33 251.34,256.24 251.34,256.24 L 251.34,255.82 C 248.33,255.14 242.99,253.91 242.99,253.91 L 252.53,251.79 L 252.84,251.3 L 244.9,249.39 L 254.08,247.6 L 254.08,247.19 L 246.27,245.0 L 254.53,243.23 L 254.62,242.81 L 244.49,240.62 L 253.31,238.8 L 253.54,238.29 L 236.28,236.1 L 249.64,234.42 L 249.9,233.84 L 246.28,233.22 C 228.75,231.71 210.39,232.94 193.27,234.05 L 193.69,234.32 C 193.69,234.32 206.16,235.14 212.18,235.83 L 212.18,236.24 C 202.18,237.06 180.68,238.43 180.68,238.43 L 181.16,238.89 C 181.16,238.89 194.1,239.53 199.72,240.63 C 189.72,241.59 170.13,242.82 170.13,242.82 L 170.56,243.27 L 186.7,245.02 L 186.38,245.37 L 160.65,247.08 L 160.26,247.48 L 175.6,249.26 L 175.6,249.67 C 175.6,249.67 159.17,250.76 151.77,251.72 C 151.9,251.85 151.73,252.14 151.73,252.14 L 166.84,253.92 C 166.84,253.92 149.19,255.15 141.51,255.97 L 141.92,256.39 L 156.84,258.44 L 133.03,260.63 L 133.51,261.11 C 133.51,261.11 143.55,262.14 147.94,262.83 C 142.05,263.93 126.29,264.89 126.29,264.89 L 125.86,265.32 L 140.13,267.08 L 140.13,267.36 L 119.34,269.14 L 119.34,269.69 C 119.34,269.69 129.72,270.78 133.55,271.6 C 126.7,272.83 112.48,273.93 112.48,273.93 L 112.76,274.34 L 125.74,276.12 L 125.62,276.47 L 105.77,278.44 L 106.07,278.87 L 118.9,280.64 L 99.56,282.64 L 99.91,283.1 C 99.91,283.1 109.03,283.67 112.33,285.02 C 107.27,285.97 94.15,287.07 94.15,287.07 L 94.5,287.52 C 94.5,287.52 103.97,288.3 106.99,289.39 C 101.5,290.35 88.67,291.58 88.67,291.58 L 88.88,292.15 L 101.09,294.05 L 83.35,295.66 L 82.91,296.1 L 95.34,298.29 L 78.25,300.35 L 78.25,300.9 L 89.99,302.68 L 73.73,304.85 L 73.25,305.29 L 85.33,307.21 L 68.73,309.26 L 69.07,309.78 L 80.27,311.59 L 64.08,314.05 L 64.35,314.45 L 75.33,316.25 L 59.38,318.18 L 59.42,318.71 L 70.41,320.49 L 55.59,322.4 L 55.78,322.98 C 58.79,323.67 66.3,325.01 66.3,325.01 L 50.81,327.2 L 51.38,327.74 L 62.2,329.53 L 46.85,331.59 L 47.22,331.99 L 57.68,333.9 L 42.82,335.96 L 42.82,336.51 L 53.85,338.15 L 39.12,340.48 L 38.85,340.89 L 50.28,342.8 L 35.98,344.88 L 35.72,345.35 L 46.57,347.19 L 34.53,348.59 L 33.33,348.73 L 32.27,349.65 L 43.15,351.71 L 29.23,353.71 L 29.5,354.1 L 40.0,355.83 L 26.84,357.96 L 26.85,358.7 L 37.4,360.35 L 24.32,362.56 L 24.25,363.22 L 34.11,365.01 L 21.64,366.92 L 21.64,367.47 C 24.11,368.02 31.36,369.38 31.36,369.38 C 31.36,369.38 22.74,370.62 19.59,371.29 L 19.59,371.82 L 28.76,373.5 L 28.76,373.9 L 17.67,375.69 L 17.7,376.28 L 27.53,378.15 C 27.53,378.15 18.64,379.52 15.75,380.35 L 15.78,380.83 L 25.47,382.81 L 14.38,384.59 L 14.38,385.28 C 16.71,385.97 23.96,387.2 23.96,387.2 L 13.02,388.87 L 13.0,389.39 L 22.86,391.31 L 22.84,391.96 L 13.0,393.1 L 12.95,393.82 L 22.17,395.7 L 22.17,396.11 L 13.0,397.62 L 12.951,398.39 L 22.17,400.22 L 13.0,402.0 L 12.89,402.51 C 12.89,402.51 16.8,403.22 23.55,404.73 L 13.69,406.66 L 13.73,407.27 L 25.33,409.25 L 15.06,411.03 L 15.06,411.58 L 28.75,413.64 L 17.66,415.42 L 17.66,416.11 L 34.1,418.16 L 34.1,418.43 L 21.5,420.21 L 22.32,420.76 L 46.55,422.54 C 40.8,423.65 30.13,424.19 30.13,424.19 L 31.363,425.29 C 31.363,425.29 52.72,427.93 68.68,428.18 C 66.19,428.73 56.57,429.65 53.07,429.73 C 52.68,429.74 53.19,430.51 53.63,430.53 C 61.63,431.07 74.57,431.7 79.67,431.73 C 84.5,431.74 95.98,430.85 103.15,429.99 C 103.29,429.75 103.33,429.45 103.43,429.28 C 100.5,429.05 94.25,428.41 92.94,428.0 C 94.1,428.04 126.25,426.32 126.25,426.32 L 128.11,424.62 C 128.11,424.62 122.17,424.83 111.8,424.21 C 102.36,423.66 101.84,423.57 97.92,422.55 C 114.49,422.8 142.49,420.46 142.49,420.46 L 143.86,419.44 L 121.48,417.89 C 133.25,417.07 156.68,415.98 156.68,415.98 L 157.36,415.43 C 157.36,415.43 143.12,415.16 136.82,413.79 C 148.32,412.83 169.14,411.6 169.14,411.6 L 168.87,411.05 C 168.87,411.05 156.81,410.22 150.24,409.27 C 160.1,408.04 180.52,406.95 180.52,406.95 L 180.39,406.07 C 180.39,406.07 163.39,405.3 163.25,404.62 C 172.7,403.65 183.25,403.93 191.33,402.56 L 190.95,401.95 C 190.95,401.95 173.88,400.41 175.45,400.24 C 177.01,400.08 199.56,398.59 199.56,398.59 L 200.93,397.77 C 200.93,397.77 190.39,396.4 185.05,396.13 C 193.26,395.03 209.97,393.8 209.97,393.8 L 209.56,393.25 C 209.56,393.25 199.7,392.28 194.91,391.6 C 202.44,390.09 219.29,389.41 219.29,389.41 L 219.08,388.39 C 219.08,388.39 205.18,386.94 204.48,387.08 C 210.18,386.15 226.88,385.22 226.88,385.22 L 227.64,384.75 L 213.4,382.56 L 234.36,380.78 L 235.73,379.95 L 221.21,378.34 L 242.25,376.3 L 243.67,375.58 C 243.67,375.58 234.5,374.89 229.98,373.52 C 235.09,373.0 250.22,372.19 250.22,372.19 L 251.21,371.6 L 238.33,369.28 L 257.43,367.65 L 258.74,366.95 C 258.74,366.95 249.7,365.59 246.283,365.17 L 246.283,364.9 C 251.62,364.07 264.46,362.93 264.46,362.93 L 265.32,362.29 C 265.32,362.29 256.69,361.61 252.85,360.65 C 258.47,359.69 271.89,358.46 271.89,358.46 L 272.58,357.77 C 272.58,357.77 263.43,356.84 260.11,355.99 C 265.86,355.03 279.15,353.79 279.15,353.79 C 279.15,353.79 271.91,351.86 266.82,351.33 C 273.54,350.51 285.59,349.27 285.59,349.27 C 285.59,349.27 283.83,348.99 281.67,348.62 L 281.63,348.62 C 278.21,348.03 273.82,347.25 273.82,347.09 C 279.44,345.85 291.08,345.03 291.08,345.03 L 291.62,344.48 C 291.62,344.48 282.99,343.38 280.25,342.83 C 285.86,341.32 297.51,340.64 297.51,340.64 L 297.09,340.09 L 297.23,340.09 C 297.23,340.09 289.56,339.27 286.13,338.17 C 291.47,337.21 302.87,336.76 302.62,336.58 C 302.37,336.41 303.4,336.12 303.4,336.12 C 303.4,336.12 295.59,334.88 292.3,333.79 C 297.99,333.24 308.06,332.14 308.06,332.14 C 308.06,332.14 309.02,331.6 309.42,331.32 C 298.59,330.16 275.31,331.6 275.31,331.6 L 276.0,332.14 L 287.78,333.1 L 287.65,333.92 L 269.43,335.71 L 268.75,336.39 L 280.66,338.173 L 261.76,340.91 L 262.32,341.39 L 274.09,342.69 C 267.38,343.65 260.52,344.06 254.37,344.74 L 254.92,345.29 L 267.25,347.08 C 267.25,347.08 259.36,347.84 252.67,348.62 L 252.53,348.62 C 250.28,348.9 248.18,349.16 246.57,349.4 L 247.32,349.96 L 259.58,351.59 L 238.75,354.06 L 239.34,354.59 C 239.34,354.59 248.36,355.02 252.11,355.63 C 245.4,356.86 237.1,357.35 230.8,358.17 L 231.27,358.8 L 244.49,360.36 L 221.62,362.69 L 222.09,363.43 L 236.27,364.88 L 212.03,367.21 L 212.4,367.81 C 212.4,367.81 221.62,368.58 226.69,369.27 C 218.47,370.37 209.57,370.37 202.31,371.88 L 202.89,372.35 L 217.51,373.79 L 191.9,375.7 L 192.51,376.39 L 208.88,378.17 C 208.88,378.17 189.57,379.4 179.98,380.5 C 180.4,380.5 180.5,381.02 180.5,381.02 L 197.91,382.56 C 197.91,382.56 177.1,383.79 166.83,384.89 C 167.37,385.17 167.88,385.6 167.88,385.6 C 167.88,385.6 185.31,386.67 185.86,387.08 C 175.35,387.91 152.16,389.54 152.16,389.54 L 152.96,390.24 C 152.96,390.24 169.17,390.88 173.4,391.46 C 160.38,392.69 147.24,392.69 134.77,393.8 L 135.08,394.49 C 135.08,394.49 151.29,394.75 161.07,395.99 C 103.6,403.01 65.3,395.98 65.3,395.98 L 81.34,395.48 L 81.12,394.69 L 63.98,391.46 L 75.6,389.81 L 75.53,389.07 L 60.82,387.08 L 61.13,386.38 L 70.77,385.47 C 70.77,385.47 70.94,384.61 71.07,384.48 C 67.92,384.07 62.18,383.66 58.9,382.57 C 61.91,381.74 69.01,381.2 69.01,381.2 L 69.29,380.51 C 69.29,380.51 60.96,379.82 58.08,378.18 C 61.39,377.5 67.78,376.68 67.78,376.68 L 68.47,375.85 L 57.53,373.8 L 67.68,372.36 L 67.78,371.33 C 67.78,371.33 60.14,370.38 57.53,369.28 C 60.36,368.25 68.19,367.22 68.19,367.22 L 67.94,366.32 C 67.94,366.32 59.86,365.54 58.22,365.04 C 61.64,363.62 69.01,362.57 69.01,362.57 L 68.97,361.82 C 68.97,361.82 62.03,361.18 58.77,360.38 C 61.65,359.76 70.38,358.33 70.38,358.33 L 69.57,357.64 L 59.58,356.0 L 71.75,353.53 L 61.5,351.61 L 61.77,350.88 C 61.77,350.88 70.8,350.65 73.67,349.28 C 73.09,349.0 72.24,348.79 71.25,348.62 L 71.16,348.62 C 68.44,348.16 64.76,347.98 62.87,347.1 C 65.61,346.14 75.59,345.18 75.59,345.18 L 75.59,344.49 L 65.48,342.71 L 78.33,340.65 L 78.87,339.81 L 67.39,338.18 L 79.98,336.81 L 80.94,335.59 C 80.94,335.59 72.46,334.62 70.28,333.66 L 83.64,332.15 L 84.32,331.33 L 73.55,329.13 L 87.61,327.35 L 87.61,326.67 L 76.57,324.89 L 91.31,322.83 L 91.58,322.29 C 91.58,322.29 82.73,321.73 79.85,320.5 C 83.96,319.414 94.59,318.72 94.59,318.72 L 95.41,318.03 L 83.81,316.25 L 100.06,313.78 L 87.93,311.45 L 104.72,309.12 L 92.45,307.2 L 109.1,305.01 L 109.24,304.46 L 96.28,302.67 L 113.56,300.81 L 114.02,299.94 C 114.02,299.94 104.76,299.26 101.61,298.3 C 107.09,297.07 120.46,295.97 120.46,295.97 L 120.37,295.16 L 106.96,293.64 L 123.8,291.31 L 112.71,289.39 L 129.82,287.48 L 130.19,286.4 L 118.46,285.01 L 136.22,283.19 L 136.4,282.27 L 125.43,280.67 L 144.72,278.94 L 145.03,278.16 L 132.71,276.53 L 133.25,276.11 L 152.15,274.33 L 153.52,273.51 C 153.52,273.51 144.47,272.26 139.01,271.87 C 147.92,270.51 165.31,269.54 165.31,269.54 L 165.31,268.99 L 147.5,267.21 C 147.5,267.21 181.15,263.42 196.63,267.56 C 196.39,267.6 196.72,268.24 196.72,268.24 L 185.85,268.72 L 185.57,269.62 L 195.17,271.59 L 183.97,273.0 L 183.26,273.9 L 192.31,276.29 L 179.73,277.83 L 179.41,278.47 L 189.44,280.53 C 189.44,280.53 184.46,281.43 175.74,282.31 L 175.23,283.16 L 184.65,285.05 L 168.6,287.09 L 168.33,287.65 L 180.11,289.43 C 180.11,289.43 168.47,290.66 162.44,291.76 L 162.74,292.23 L 174.09,293.82 L 156.97,296.28 L 157.34,296.66 L 167.52,298.47 L 167.5,298.79 L 151.94,300.33 L 151.76,300.93 L 162.3,302.71 L 147.23,304.91 L 147.23,305.59 L 156.96,307.23 L 142.58,309.28 L 142.99,309.97 L 152.44,311.75 L 137.93,313.94 L 138.62,314.35 L 147.79,316.0 L 134.7,317.95 L 134.37,318.46 L 143.82,320.38 L 130.81,322.57 L 130.67,323.12 L 140.26,324.9 L 127.79,327.23 L 128.06,327.78 L 136.56,329.14 L 125.12,331.07 L 124.78,331.62 L 133.27,333.94 L 122.86,335.73 L 122.86,336.41 L 131.35,338.06 L 131.29,338.66 L 121.49,340.11 L 121.32,340.85 L 129.23,342.46 L 129.16,343.39 L 120.23,344.52 L 120.12,345.04 L 128.72,346.77 L 128.66,347.35 L 121.94,348.65 L 120.29,348.97 L 120.16,349.48 L 130.79,351.62 L 130.65,352.17 L 121.94,353.34 L 122.02,353.81 C 122.02,353.81 137.37,356.31 146.82,356.04 C 138.46,356.31 125.45,357.79 125.45,357.79 L 127.09,358.53 C 132.91,359.09 138.81,359.41 144.46,359.56 C 144.42,359.58 144.36,359.6 144.31,359.63 C 142.36,360.71 132.82,361.84 132.82,361.84 L 134.78,362.73 C 134.78,362.73 151.25,363.87 170.17,362.89 L 170.59,362.06 C 170.59,362.06 161.85,360.55 160.87,359.78 C 160.77,359.71 160.66,359.66 160.56,359.59 C 172.0,359.36 180.04,358.67 180.04,358.67 L 182.45,357.63 C 182.45,357.63 172.06,356.48 160.96,356.06 C 176.31,356.06 193.85,353.85 193.85,353.85 L 194.19,353.25 L 176.38,351.35 L 203.71,349.9 L 204.2,349.29 L 198.74,348.64 L 189.13,347.51 L 189.13,346.96 L 211.32,345.31 L 212.69,344.63 L 198.17,342.84 L 220.37,340.52 L 220.61,339.95 C 220.61,339.95 212.15,339.29 207.21,338.19 C 213.51,337.51 227.38,336.52 227.38,336.52 L 227.76,335.736 C 223.38,334.9 219.4,334.9 215.17,333.81 C 222.14,332.57 235.71,331.47 235.71,331.47 L 235.54,330.77 L 223.24,329.42 L 241.8,327.34 L 242.29,326.68 C 238.31,326.13 234.21,326.0 229.96,325.04 C 235.85,324.08 248.32,322.97 248.32,322.97 L 248.32,322.31 C 248.32,322.31 240.51,321.48 237.09,320.52 C 239.69,320.11 254.84,319.02 254.84,319.02 L 255.45,318.32 L 243.67,316.04 L 262.02,313.81 L 250.52,311.48 L 267.91,309.15 L 256.54,307.37 L 273.53,305.04 L 273.66,304.49 C 273.66,304.49 264.75,303.12 262.15,302.7 C 262.15,302.7 275.3,301.47 279.14,300.65 L 279.14,300.11 C 275.58,299.42 271.88,299.55 268.6,298.18 C 273.53,297.36 283.53,296.67 283.53,296.67 L 285.03,295.85 L 274.49,294.21 L 274.49,293.8 L 290.24,291.75 L 290.24,291.2 L 279.83,289.56 C 284.9,288.6 295.44,287.23 295.44,287.23 L 295.58,286.52 L 285.17,284.77 L 299.55,283.4 L 300.79,282.85 L 290.51,280.39 L 304.08,278.88 L 305.44,278.06 C 304.62,278.06 295.93,276.57 295.93,276.57 C 295.93,276.57 296.1,276.24 295.72,276.0 C 300.38,275.73 308.33,274.64 308.33,274.64 L 309.96,273.54 L 300.796,271.62 L 314.63,269.71 L 314.63,269.16 L 304.9,267.24 L 319.0,265.52 C 319.0,265.52 318.9,264.93 319.28,264.78 C 316.54,264.24 309.55,262.59 309.55,262.59 L 322.68,260.89 L 323.11,260.12 L 314.07,258.2 L 327.08,256.57 L 327.49,255.87 L 318.58,253.96 L 330.82,252.14 L 331.04,251.35 L 322.06,248.96 L 335.01,247.38 L 335.19,246.82 L 325.97,244.92 L 338.11,243.22 L 338.31,242.45 C 337.76,242.6 329.95,240.4 329.95,240.4 L 341.88,238.5 L 341.79,237.81 L 332.97,236.28 L 344.88,234.22 L 344.88,233.54 L 336.25,231.76 L 347.28,230.0 L 347.48,229.16 C 347.48,229.16 342.14,228.34 339.4,227.24 C 342.55,226.56 347.07,226.0 350.09,225.32 L 350.09,224.63 C 347.35,224.09 344.75,223.95 342.14,222.85 C 345.29,222.16 352.68,220.93 352.68,220.93 L 352.68,220.25 C 350.22,219.7 347.35,219.42 344.88,218.47 C 347.89,217.37 354.74,216.41 354.74,216.41 L 354.74,215.72 L 346.8,214.07 L 346.85,213.61 L 355.94,212.15 L 356.65,211.47 L 348.99,210.26 C 348.99,210.26 349.02,209.68 348.71,209.55 C 351.86,208.73 354.73,208.18 358.02,207.77 L 358.02,206.95 C 355.837,206.39 350.62,205.02 350.62,205.02 L 359.25,203.24 L 359.25,202.55 L 351.81,200.99 L 351.58,200.5 L 359.94,199.0 L 359.94,198.04 L 352.55,196.39 L 352.55,195.98 L 359.94,194.75 L 359.94,193.52 L 352.67,191.87 L 360.14,189.92 L 359.95,189.18"/>
			<path fill="#ce0e2d" d="M 351.35,186.37 C 351.35,186.37 345.59,185.14 343.4,184.59 C 345.31,183.91 350.26,183.36 352.32,182.81 L 352.26,182.19 C 348.99,181.25 344.22,181.02 342.17,179.93 L 349.98,178.29 L 349.98,177.61 C 346.41,176.79 339.29,175.69 339.29,175.69 L 347.92,173.77 L 347.37,173.08 L 334.23,171.03 L 344.09,169.25 L 343.4,168.57 L 324.49,167.19 L 323.95,166.64 L 339.01,165.14 L 338.88,164.46 C 333.41,163.72 322.6,162.72 322.6,162.72 L 322.07,162.35 L 329.22,161.89 L 329.79,161.4 C 329.79,161.4 310.98,158.01 296.42,158.22 C 280.43,157.88 263.59,160.18 263.59,160.18 L 264.24,160.73 C 264.24,160.73 269.27,160.65 273.15,161.16 C 276.88,161.64 278.8,162.25 278.8,162.25 C 278.8,162.25 252.33,163.6 250.87,163.69 C 248.25,163.85 240.8,164.74 240.8,164.74 L 242.01,165.23 C 242.01,165.23 250.02,164.76 257.12,164.88 C 264.16,165.0 268.97,165.39 269.03,165.62 C 269.08,165.82 260.5,166.1 251.74,166.69 C 239.26,167.54 225.33,169.12 225.33,169.12 L 225.84,169.49 C 225.84,169.49 242.68,170.38 248.48,170.94 C 239.59,171.08 213.3,173.66 213.3,173.66 L 213.42,174.11 C 213.42,174.11 230.89,175.33 232.58,175.69 C 222.04,176.93 201.76,177.89 201.76,177.89 L 202.18,178.29 C 202.18,178.29 214.64,178.98 220.39,180.07 C 210.66,181.31 190.68,182.26 190.68,182.26 L 190.95,182.95 C 190.95,182.95 201.37,183.78 207.52,184.59 C 198.69,185.4 179.99,186.92 179.99,186.92 L 180.53,187.33 L 195.87,188.98 L 170.4,190.97 L 170.26,191.45 C 170.26,191.45 180.12,192.82 185.19,193.5 C 177.38,194.46 161.59,195.34 161.59,195.34 L 161.84,195.92 C 161.84,195.92 172.3,196.99 176.42,197.88 C 168.46,198.34 152.9,199.98 152.9,199.98 L 153.0,200.49 L 167.62,202.42 L 143.51,204.22 L 143.28,204.6 C 143.28,204.6 152.45,205.83 157.79,206.79 C 150.62,207.15 135.33,208.79 135.33,208.79 L 135.18,209.26 L 148.74,211.04 L 127.35,213.23 L 127.38,213.78 L 141.76,215.7 C 134.64,216.66 120.21,217.74 120.21,217.74 L 120.21,218.12 L 133.13,220.22 L 112.18,222.41 L 112.31,222.82 C 112.31,222.82 122.74,223.66 125.46,224.47 C 120.4,225.3 105.61,227.21 105.61,227.21 L 105.82,227.58 C 105.82,227.58 115.44,228.32 117.67,228.86 C 105.14,230.16 99.04,230.92 99.04,230.92 L 99.27,231.25 C 99.27,231.25 108.45,232.75 111.51,233.38 C 105.08,234.34 98.22,234.89 91.79,235.57 L 92.13,235.94 C 92.13,235.94 101.24,237.21 104.53,237.9 C 97.95,239.13 85.21,240.09 85.21,240.09 L 85.57,240.51 C 85.57,240.51 94.64,241.67 97.27,242.28 C 91.06,243.16 80.01,244.06 80.01,244.06 L 80.01,244.47 C 80.01,244.47 86.86,245.84 90.55,246.66 C 84.53,247.62 79.05,248.3 73.42,248.71 L 73.42,248.98 L 84.66,251.18 C 84.66,251.18 73.01,252.54 66.85,253.23 L 66.91,253.65 L 78.35,255.56 C 78.35,255.56 67.66,256.79 62.19,257.34 L 62.19,257.75 C 62.19,257.75 79.9,258.97 92.87,257.61 L 92.76,257.16 L 81.27,256.41 L 97.79,253.91 L 99.1,253.26 C 94.85,252.85 91.74,252.25 87.62,251.84 C 94.06,250.89 106.84,248.99 106.84,248.99 L 106.87,248.55 C 106.87,248.55 98.25,248.11 94.81,247.12 L 113.67,244.82 L 113.8,244.37 C 113.8,244.37 107.1,243.82 102.15,242.88 C 107.94,242.0 121.52,240.25 121.52,240.25 L 121.71,239.87 L 109.6,238.47 L 109.98,238.14 C 109.98,238.14 123.68,236.35 129.63,235.42 L 129.86,235.15 C 129.86,235.15 125.77,234.33 116.71,233.37 C 123.43,232.28 137.67,231.45 137.67,231.45 L 137.86,230.91 L 123.84,229.39 L 146.34,226.87 L 146.47,226.35 C 146.47,226.35 137.77,225.54 132.58,224.54 L 155.79,222.35 L 156.05,221.91 L 140.62,220.04 L 165.64,217.98 L 165.83,217.47 L 150.13,215.69 C 150.13,215.69 167.39,214.59 175.61,213.5 L 175.55,212.9 C 175.55,212.9 160.41,211.86 159.45,211.17 C 168.76,209.93 186.98,208.84 186.98,208.84 L 186.61,208.46 L 170.13,206.64 C 170.13,206.64 191.37,205.41 199.85,204.45 L 199.85,203.96 L 181.22,202.13 L 213.5,199.84 L 213.56,199.45 L 192.87,197.87 L 231.34,195.0 L 231.08,194.61 C 231.08,194.61 215.44,193.71 206.02,193.48 C 218.71,191.79 234.07,190.67 247.61,189.85 C 278.06,187.97 301.62,193.48 301.62,193.48 C 301.62,193.48 289.42,193.79 285.86,194.61 L 286.41,195.29 L 305.46,198.0 L 295.12,199.64 L 295.52,200.19 L 307.46,202.07 L 308.3,202.98 L 300.25,204.44 L 300.93,205.13 L 309.97,206.91 L 302.44,209.03 L 302.85,209.51 L 310.8,211.29 L 302.85,213.21 L 303.09,213.65 L 310.81,215.13 L 310.8,215.81 C 310.8,215.81 305.32,217.05 302.85,217.46 C 302.99,217.74 302.83,218.03 302.83,218.03 L 310.66,220.2 C 310.66,220.2 302.25,221.9 301.99,221.96 C 301.74,222.03 301.62,222.53 301.62,222.53 C 303.95,223.21 309.43,224.44 309.43,224.44 L 300.26,226.36 L 300.2,227.04 L 307.53,228.82 L 307.53,229.1 L 298.35,230.88 L 298.35,231.7 L 306.02,233.48 L 295.48,235.67 L 295.62,236.22 L 303.56,237.86 L 293.38,239.85 L 293.01,240.74 L 300.82,242.39 L 289.73,244.03 L 289.59,244.71 L 297.67,246.49 L 297.67,246.9 L 286.03,248.82 L 286.3,249.36 C 286.3,249.36 292.6,250.32 294.66,251.28 C 290.27,252.24 282.2,253.47 282.2,253.47 L 282.66,254.1 L 291.37,255.52 L 278.35,257.85 L 278.77,258.53 L 287.26,260.04 L 274.66,261.82 L 274.68,262.59 L 283.24,264.01 L 283.14,264.57 L 270.0,266.35 L 270.0,266.9 C 272.87,267.72 276.57,267.86 279.72,268.82 C 275.62,269.91 270.0,270.33 265.48,271.01 L 265.89,271.7 C 265.89,271.7 272.33,272.65 275.07,273.48 C 270.54,274.16 260.13,275.67 260.13,275.67 L 260.65,276.24 C 260.65,276.24 267.26,277.04 270.68,277.72 C 266.02,278.82 261.5,278.96 256.84,279.5 L 256.01,280.18 C 258.89,281.01 262.18,281.14 265.47,281.96 L 265.47,282.37 C 261.22,283.6 250.94,284.42 250.94,284.42 L 250.94,284.96 L 260.81,286.47 C 260.81,286.47 249.58,287.98 245.74,288.79 L 245.97,289.27 L 256.0,291.26 L 240.63,292.8 L 240.39,293.3 L 250.85,295.12 L 250.79,295.64 C 246.15,296.77 234.9,297.44 234.9,297.44 L 234.5,297.97 C 234.5,297.97 241.76,298.8 245.46,300.03 C 240.44,301.13 228.28,301.95 228.28,301.95 C 228.28,301.95 228.38,302.33 227.92,302.5 C 232.03,303.18 240.25,304.42 240.25,304.42 C 240.25,304.42 226.55,305.65 221.22,306.61 L 221.59,307.1 L 233.13,308.94 L 212.85,311.14 L 213.36,311.61 L 226.41,313.19 L 203.95,315.65 L 204.35,316.1 L 218.06,317.7 L 193.41,320.03 L 193.61,320.53 C 193.61,320.53 204.5,321.26 210.38,322.08 C 195.55,324.19 177.69,325.89 166.01,322.21 C 168.2,321.25 174.18,320.06 174.18,320.06 L 174.86,319.45 C 174.86,319.45 169.08,318.2 166.2,317.65 C 170.17,316.42 177.78,315.5 177.78,315.5 L 177.23,314.81 C 177.23,314.81 171.77,314.52 169.29,313.17 C 173.78,312.63 178.68,312.2 182.44,310.7 C 179.83,310.4 176.0,310.02 172.7,308.65 L 186.95,306.87 L 187.03,306.24 C 187.03,306.24 180.66,305.72 177.09,304.4 C 182.16,303.57 192.7,302.2 192.7,302.2 L 192.43,301.66 C 192.43,301.66 185.03,300.84 181.74,299.88 C 188.45,298.97 198.41,297.82 198.41,297.82 L 198.34,297.24 C 198.34,297.24 190.09,296.73 187.76,295.36 L 203.49,293.55 L 204.06,292.89 C 203.52,292.75 195.56,291.96 193.38,290.97 C 198.71,289.74 205.16,290.43 209.95,288.5 C 206.38,287.4 202.28,288.09 199.12,286.72 C 203.78,285.35 210.08,285.48 214.6,284.66 L 214.6,284.11 C 211.59,283.7 207.75,283.02 204.74,282.19 C 209.12,281.09 218.31,280.32 218.98,280.27 L 219.8,279.72 C 216.65,279.31 212.54,278.63 209.26,277.67 C 214.05,276.57 224.18,275.61 224.46,275.61 L 224.46,275.06 C 224.46,275.06 215.55,274.38 215.29,273.15 C 219.94,271.78 228.98,271.09 228.98,271.09 L 228.98,270.67 C 228.98,270.67 221.29,269.37 218.96,268.14 C 222.67,267.6 222.96,268.23 232.29,266.81 L 232.95,266.15 L 223.63,263.98 L 236.62,262.61 L 236.92,262.18 L 227.95,260.33 C 227.95,260.33 227.94,260.03 227.74,259.99 L 239.87,257.98 L 240.06,257.66 L 231.42,255.7 L 231.43,255.33 C 234.85,254.5 242.66,253.41 242.66,253.41 L 242.66,253.0 C 239.65,252.31 234.31,251.09 234.31,251.09 L 243.85,248.97 L 244.18,248.49 L 236.23,246.57 L 245.41,244.78 L 245.41,244.37 L 237.6,242.18 L 245.85,240.41 L 245.96,239.99 L 235.82,237.8 L 244.64,235.97 L 244.87,235.47 L 227.61,233.28 L 240.98,231.61 L 241.24,231.03 L 237.62,230.41 C 220.09,228.91 201.73,230.14 184.61,231.23 L 185.02,231.5 C 185.02,231.5 197.49,232.33 203.51,233.02 L 203.51,233.43 C 193.51,234.25 172.01,235.62 172.01,235.62 L 172.49,236.08 C 172.49,236.08 185.44,236.72 191.05,237.81 C 181.05,238.76 161.46,240.0 161.46,240.0 L 161.89,240.45 L 178.03,242.19 L 177.71,242.54 L 151.98,244.25 L 151.59,244.65 L 166.93,246.43 L 166.93,246.84 C 166.93,246.84 150.49,247.94 143.09,248.89 C 143.23,249.03 143.06,249.31 143.06,249.31 L 158.16,251.09 C 158.16,251.09 140.51,252.32 132.85,253.14 L 133.25,253.56 L 148.17,255.6 L 124.35,257.79 L 124.84,258.27 C 124.84,258.27 134.88,259.3 139.26,259.98 C 133.37,261.08 117.61,262.04 117.61,262.04 L 117.19,262.47 L 131.46,264.23 L 131.46,264.51 L 110.66,266.29 L 110.66,266.84 C 110.66,266.84 121.04,267.94 124.89,268.76 C 118.04,269.99 103.82,271.09 103.82,271.09 L 104.09,271.51 L 117.08,273.28 L 116.96,273.63 L 97.11,275.6 L 97.41,276.03 L 110.23,277.8 L 90.89,279.81 L 91.23,280.27 C 91.23,280.27 100.36,280.83 103.65,282.19 C 98.59,283.14 85.47,284.24 85.47,284.24 L 85.83,284.69 C 85.83,284.69 95.29,285.48 98.31,286.57 C 92.83,287.53 79.99,288.76 79.99,288.76 L 80.2,289.33 L 92.42,291.23 L 74.68,292.84 L 74.23,293.28 L 86.66,295.48 L 69.58,297.53 L 69.58,298.08 L 81.32,299.86 L 65.07,302.01 L 64.58,302.46 L 76.66,304.38 L 60.06,306.43 L 60.4,306.95 L 71.6,308.76 L 55.4,311.23 L 55.68,311.63 L 66.66,313.42 L 50.7,315.35 L 50.74,315.89 L 61.74,317.67 L 46.92,319.59 L 47.1,320.16 C 50.12,320.85 57.63,322.19 57.63,322.19 L 42.14,324.39 L 42.7,324.93 L 53.53,326.72 L 38.17,328.78 L 38.54,329.18 L 49.01,331.1 L 34.16,333.16 L 34.16,333.72 L 45.18,335.36 L 30.46,337.68 L 30.19,338.1 L 41.61,340.01 L 27.31,342.09 L 27.05,342.56 L 37.91,344.4 L 25.86,345.8 L 24.66,345.95 L 23.6,346.87 L 34.49,348.92 L 20.57,350.93 L 20.83,351.31 L 31.34,353.04 L 18.18,355.18 L 18.18,355.92 L 28.73,357.56 L 15.64,359.77 L 15.59,360.43 L 25.45,362.21 L 13.0,364.13 L 13.0,364.68 C 15.46,365.23 22.71,366.6 22.71,366.6 C 22.71,366.6 14.09,367.83 10.93,368.51 L 10.93,369.02 L 20.1,370.7 L 20.1,371.11 L 9.02,372.89 L 9.05,373.48 L 18.87,375.36 C 18.87,375.36 9.97,376.73 7.1,377.55 L 7.12,378.04 L 16.81,380.02 L 5.73,381.8 L 5.73,382.49 C 8.05,383.18 15.31,384.41 15.31,384.41 L 4.43,386.1 L 4.42,386.62 L 14.27,388.54 L 14.25,389.19 L 4.42,390.32 L 4.36,391.05 L 13.58,392.92 L 13.58,393.34 L 4.42,394.84 L 4.36,395.61 L 13.58,397.44 L 4.42,399.22 L 4.3,399.73 C 4.3,399.73 8.2,400.44 14.95,401.95 L 5.09,403.88 L 5.13,404.49 L 16.73,406.48 L 6.47,408.26 L 6.47,408.8 L 20.15,410.86 L 9.07,412.63 L 9.07,413.32 L 25.5,415.37 L 25.5,415.65 L 12.91,417.43 L 13.73,417.98 L 37.96,419.75 C 32.21,420.86 21.53,421.39 21.53,421.39 L 22.76,422.49 C 22.76,422.49 44.13,425.14 60.08,425.39 C 57.6,425.94 47.97,426.86 44.48,426.94 C 44.08,426.94 44.6,427.7 45.03,427.73 C 53.03,428.28 65.97,428.91 71.08,428.93 C 75.91,428.94 87.39,428.06 94.56,427.18 C 94.7,426.95 94.73,426.65 94.83,426.47 C 91.91,426.24 85.64,425.6 84.35,425.17 C 85.52,425.23 117.66,423.51 117.66,423.51 L 119.52,421.8 C 119.52,421.8 113.57,422.01 103.21,421.39 C 93.78,420.83 93.25,420.75 89.33,419.73 C 105.9,419.99 133.89,417.64 133.89,417.64 L 135.27,416.62 L 112.88,415.08 C 124.66,414.27 148.08,413.16 148.08,413.16 L 148.77,412.61 C 148.77,412.61 134.52,412.34 128.23,410.97 C 139.73,410.01 160.55,408.78 160.55,408.78 L 160.28,408.24 C 160.28,408.24 148.23,407.41 141.66,406.46 C 151.52,405.23 171.93,404.12 171.93,404.12 L 171.81,403.25 C 171.81,403.25 154.8,402.48 154.66,401.8 C 164.11,400.83 174.66,401.11 182.74,399.73 L 182.35,399.12 C 182.35,399.12 165.28,397.58 166.85,397.41 C 168.42,397.24 190.96,395.77 190.96,395.77 L 192.33,394.95 C 192.33,394.95 181.78,393.59 176.44,393.31 C 184.66,392.22 201.38,390.98 201.38,390.98 L 200.96,390.43 C 200.96,390.43 191.1,389.46 186.31,388.78 C 193.85,387.27 210.69,386.59 210.69,386.59 L 210.5,385.58 C 210.5,385.58 196.59,384.12 195.9,384.27 C 201.58,383.34 218.3,382.41 218.3,382.41 L 219.06,381.95 L 204.82,379.75 L 225.77,377.97 L 227.15,377.15 L 212.62,375.54 L 233.66,373.49 L 235.09,372.77 C 235.09,372.77 225.91,372.08 221.39,370.72 C 226.5,370.2 241.63,369.38 241.63,369.38 L 242.61,368.79 L 229.74,366.46 L 248.83,364.83 L 250.14,364.13 C 250.14,364.13 241.1,362.77 237.68,362.35 L 237.68,362.07 C 243.02,361.25 255.86,360.11 255.86,360.11 L 256.72,359.47 C 256.72,359.47 248.09,358.79 244.26,357.84 C 249.86,356.88 263.29,355.64 263.29,355.64 L 263.97,354.95 C 263.97,354.95 254.82,354.02 251.51,353.17 C 257.27,352.21 270.54,350.97 270.54,350.97 C 270.54,350.97 263.31,349.04 258.21,348.51 C 264.92,347.68 276.97,346.45 276.97,346.45 C 276.97,346.45 275.21,346.16 273.05,345.79 L 273.0,345.79 C 269.58,345.2 265.19,344.42 265.19,344.25 C 270.81,343.01 282.45,342.19 282.45,342.19 L 282.99,341.64 C 282.99,341.64 274.36,340.55 271.63,340.0 C 277.24,338.49 288.89,337.81 288.89,337.81 L 288.48,337.26 L 288.62,337.26 C 288.62,337.26 280.95,336.43 277.52,335.34 C 282.87,334.38 294.26,333.92 294.01,333.75 C 293.75,333.58 294.79,333.29 294.79,333.29 C 294.79,333.29 286.98,332.06 283.69,330.96 C 289.38,330.41 299.45,329.32 299.45,329.32 C 299.45,329.32 300.4,328.78 300.81,328.5 C 289.98,327.33 266.7,328.78 266.7,328.78 L 267.39,329.32 L 279.17,330.28 L 279.03,331.1 L 260.81,332.89 L 260.12,333.57 L 272.04,335.36 L 253.14,338.1 L 253.7,338.57 L 265.47,339.88 C 258.76,340.83 251.91,341.24 245.74,341.93 L 246.29,342.48 L 258.61,344.26 C 258.61,344.26 250.72,345.03 244.03,345.8 L 243.89,345.8 C 241.64,346.07 239.54,346.35 237.92,346.59 L 238.68,347.14 L 250.94,348.78 L 230.13,351.24 L 230.71,351.78 C 230.71,351.78 239.74,352.2 243.5,352.81 C 236.79,354.04 228.49,354.53 222.19,355.36 L 222.66,355.99 L 235.88,357.55 L 213.0,359.88 L 213.47,360.62 L 227.65,362.07 L 203.41,364.41 L 203.78,365.0 C 203.78,365.0 212.99,365.78 218.06,366.46 C 209.84,367.56 200.94,367.56 193.68,369.06 L 194.26,369.54 L 208.89,370.99 L 183.28,372.89 L 183.88,373.58 L 200.25,375.37 C 200.25,375.37 180.95,376.6 171.36,377.7 C 171.76,377.7 171.87,378.21 171.87,378.21 L 189.3,379.74 C 189.3,379.74 168.48,380.98 158.21,382.07 C 158.76,382.35 159.27,382.79 159.27,382.79 C 159.27,382.79 176.7,383.86 177.25,384.27 C 166.74,385.11 143.56,386.73 143.56,386.73 L 144.35,387.42 C 144.35,387.42 160.56,388.06 164.78,388.64 C 151.77,389.87 138.62,389.87 126.15,390.97 L 126.46,391.66 C 126.46,391.66 142.67,391.92 152.45,393.16 C 94.99,400.19 56.67,393.16 56.67,393.16 L 72.7,392.66 L 72.49,391.87 L 55.34,388.64 L 66.96,387.0 L 66.9,386.26 L 52.19,384.26 L 52.51,383.55 L 62.15,382.65 C 62.15,382.65 62.31,381.79 62.45,381.66 C 59.3,381.25 53.57,380.85 50.28,379.74 C 53.29,378.92 60.39,378.38 60.39,378.38 L 60.66,377.69 C 60.66,377.69 52.33,377.0 49.46,375.36 C 52.75,374.68 59.16,373.86 59.16,373.86 L 59.84,373.03 L 48.9,370.99 L 59.05,369.54 L 59.15,368.51 C 59.15,368.51 51.5,367.56 48.9,366.45 C 51.73,365.41 59.56,364.4 59.56,364.4 L 59.31,363.49 C 59.31,363.49 51.23,362.72 49.59,362.21 C 53.02,360.79 60.3915,359.74 60.3915,359.74 L 60.34,358.99 C 60.34,358.99 53.4,358.35 50.14,357.56 C 53.02,356.94 61.76,355.5 61.76,355.5 L 60.94,354.81 L 50.96,353.17 L 63.14,350.7 L 52.88,348.79 L 53.15,348.06 C 53.15,348.06 62.17,347.83 65.05,346.46 C 64.46,346.17 63.61,345.96 62.63,345.8 L 62.56,345.8 C 59.84,345.34 56.15,345.17 54.26,344.27 C 56.99,343.31 66.98,342.36 66.98,342.36 L 66.98,341.67 L 56.86,339.89 L 69.72,337.84 L 70.27,337.0 L 58.78,335.37 L 71.37,334.0 L 72.32,332.77 C 72.32,332.77 63.85,331.8 61.66,330.85 L 75.03,329.34 L 75.72,328.52 L 64.96,326.33 L 79.0,324.57 L 79.0,323.88 L 67.96,322.1 L 82.7,320.04 L 82.97,319.49 C 82.97,319.49 74.13,318.94 71.25,317.7 C 75.37,316.61 85.98,315.92 85.98,315.92 L 86.8,315.24 L 75.22,313.45 L 91.46,310.99 L 79.33,308.66 L 96.12,306.33 L 83.85,304.42 L 100.5,302.22 L 100.63,301.68 L 87.68,299.9 L 104.95,298.02 L 105.42,297.16 C 105.42,297.16 96.16,296.48 93.01,295.52 C 98.49,294.29 111.86,293.18 111.86,293.18 L 111.77,292.37 L 98.36,290.86 L 115.2,288.53 L 104.11,286.62 L 121.23,284.7 L 121.58,283.63 L 109.86,282.24 L 127.63,280.41 L 127.8,279.5 L 116.83,277.9 L 136.12,276.17 L 136.43,275.39 L 124.11,273.75 L 124.65,273.33 L 143.56,271.56 L 144.93,270.73 C 144.93,270.73 135.87,269.48 130.42,269.09 C 139.32,267.72 156.72,266.76 156.72,266.76 L 156.72,266.21 L 138.91,264.43 C 138.91,264.43 172.56,260.65 188.05,264.79 C 187.81,264.83 188.13,265.46 188.13,265.46 L 177.26,265.94 L 176.98,266.85 L 186.57,268.82 L 175.37,270.19 L 174.66,271.09 L 183.7,273.48 L 171.12,275.02 L 170.8,275.66 L 180.83,277.72 C 180.83,277.72 175.86,278.62 167.13,279.5 L 166.62,280.35 L 176.04,282.24 L 160.0,284.28 L 159.74,284.84 L 171.52,286.62 C 171.52,286.62 159.88,287.85 153.85,288.95 L 154.15,289.42 L 165.49,291.01 L 148.37,293.48 L 148.75,293.87 L 158.92,295.67 L 158.91,295.99 L 143.34,297.53 L 143.16,298.13 L 153.71,299.91 L 138.64,302.1 L 138.64,302.78 L 148.37,304.43 L 133.99,306.48 L 134.4,307.17 L 143.86,308.95 L 129.34,311.15 L 130.02,311.56 L 139.2,313.2 L 126.11,315.15 L 125.77,315.66 L 135.22,317.57 L 122.21,319.77 L 122.08,320.32 L 131.66,322.1 L 119.19,324.43 L 119.46,324.98 L 127.96,326.34 L 116.52,328.27 L 116.19,328.82 L 124.68,331.14 L 114.27,332.93 L 114.27,333.61 L 122.76,335.26 L 122.7,335.87 L 112.89,337.32 L 112.73,338.06 L 120.64,339.67 L 120.56,340.61 L 111.63,341.73 L 111.52,342.25 L 120.12,343.98 L 120.06,344.56 L 113.35,345.85 L 111.7,346.17 L 111.56,346.68 L 122.2,348.83 L 122.07,349.37 L 113.37,350.54 L 113.44,351.02 C 113.44,351.02 128.78,353.52 138.24,353.25 C 129.87,353.52 116.86,354.99 116.86,354.99 L 118.51,355.73 C 124.16,356.28 129.88,356.58 135.37,356.75 C 133.25,357.82 123.97,358.91 123.97,358.91 L 125.92,359.8 C 125.92,359.8 142.39,360.94 161.31,359.97 L 161.74,359.14 C 161.74,359.14 153.0,357.63 152.02,356.87 C 151.98,356.85 151.94,356.83 151.9,356.8 C 163.39,356.57 171.46,355.87 171.46,355.87 L 173.86,354.83 C 173.86,354.83 163.47,353.69 152.39,353.27 C 167.72,353.27 185.26,351.07 185.26,351.07 L 185.6,350.47 L 167.81,348.57 L 195.13,347.12 L 195.62,346.51 L 190.15,345.86 L 180.55,344.74 L 180.55,344.19 L 202.74,342.54 L 204.11,341.86 L 189.59,340.08 L 211.78,337.75 L 212.03,337.19 C 212.03,337.19 203.56,336.53 198.64,335.43 C 204.93,334.75 218.8,333.76 218.8,333.76 L 219.18,332.96 C 214.8,332.14 210.83,332.14 206.58,331.04 C 213.57,329.81 227.13,328.72 227.13,328.72 L 226.95,328.02 L 214.66,326.66 L 233.21,324.59 L 233.69,323.92 C 229.72,323.38 225.61,323.24 221.37,322.28 C 227.26,321.32 239.72,320.21 239.72,320.21 L 239.72,319.54 C 239.72,319.54 231.91,318.72 228.48,317.75 C 231.09,317.35 246.24,316.25 246.24,316.25 L 246.84,315.56 L 235.07,313.23 L 253.42,311.04 L 241.92,308.71 L 259.31,306.38 L 247.94,304.6 L 264.93,302.27 L 265.07,301.73 C 265.07,301.73 256.16,300.36 253.56,299.95 C 253.56,299.95 266.71,298.72 270.55,297.89 L 270.55,297.34 C 266.99,296.66 263.29,296.79 260.01,295.42 C 264.94,294.6 274.93,293.91 274.93,293.91 L 276.44,293.09 L 265.9,291.45 L 265.9,291.04 L 281.66,288.99 L 281.66,288.44 L 271.24,286.81 C 276.31,285.85 286.86,284.48 286.86,284.48 L 286.99,283.76 L 276.58,282.02 L 290.96,280.65 L 292.18,280.1 L 281.91,277.64 L 295.47,276.13 L 296.84,275.3 C 296.02,275.3 287.32,273.82 287.32,273.82 C 287.32,273.82 287.48,273.48 287.11,273.25 C 291.77,272.98 299.71,271.88 299.71,271.88 L 301.35,270.78 L 292.17,268.87 L 306.01,266.95 L 306.01,266.4 L 296.28,264.48 L 310.38,262.75 C 310.38,262.75 310.29,262.16 310.66,262.01 C 307.92,261.47 300.93,259.82 300.93,259.82 L 314.07,258.12 L 314.49,257.35 L 305.45,255.44 L 318.46,253.8 L 318.87,253.11 L 309.96,251.2 L 322.2,249.38 L 322.43,248.6 L 313.45,246.21 L 326.39,244.63 L 326.57,244.07 L 317.36,242.17 L 329.48,240.47 L 329.68,239.7 C 329.14,239.84 321.32,237.65 321.32,237.65 L 333.25,235.75 L 333.16,235.07 L 324.34,233.55 L 336.25,231.49 L 336.25,230.81 L 327.63,229.03 L 338.67,227.27 L 338.87,226.42 C 338.87,226.42 333.52,225.6 330.78,224.5 C 333.93,223.81 338.45,223.27 341.46,222.59 L 341.46,221.9 C 338.72,221.35 336.12,221.21 333.52,220.12 C 336.67,219.44 344.07,218.2 344.07,218.2 L 344.07,217.52 C 341.6,216.97 338.73,216.7 336.26,215.74 C 339.28,214.64 346.12,213.69 346.12,213.69 L 346.12,213.01 L 338.18,211.36 L 338.24,210.9 L 347.33,209.45 L 348.04,208.77 L 340.38,207.56 C 340.38,207.56 340.42,206.98 340.1,206.85 C 343.25,206.03 346.12,205.48 349.41,205.07 L 349.41,204.25 C 347.22,203.71 342.02,202.33 342.02,202.33 L 350.65,200.55 L 350.65,199.87 L 343.21,198.3 L 342.97,197.81 L 351.33,196.3 L 351.33,195.34 L 343.93,193.7 L 343.93,193.29 L 351.33,192.06 L 351.33,190.83 L 344.07,189.19 L 351.52,187.24 L 351.35,186.37"/>
		</g>
		<g>
			<path d="M 395.38,346.52 L 399.18,346.52 C 408.92,346.52 416.35,348.97 416.35,369.51 C 416.35,385.16 413.56,393.7 399.18,393.7 L 395.38,393.7 L 395.38,346.52 L 395.38,346.52 M 386.08,399.28 L 399.18,399.28 C 415.24,399.28 425.65,393.79 425.65,369.51 C 425.65,346.43 415.17,340.93 399.18,340.93 L 386.08,340.93 L 386.08,399.28 L 386.08,399.28 M 436.21,359.03 L 444.75,359.03 L 444.75,399.28 L 436.21,399.28 L 436.21,359.03 L 436.21,359.03 M 435.88,340.94 L 445.09,340.94 L 445.09,349.39 L 435.88,349.39 L 435.88,340.94 L 435.88,340.94 M 464.21,378.74 C 464.21,372.22 465.46,363.52 472.33,363.52 C 479.42,363.52 480.44,372.48 480.44,379.16 C 480.44,385.84 479.78,394.38 472.33,394.38 C 465.56,394.37 464.21,385.59 464.21,378.74 L 464.21,378.74 M 489.22,359.03 L 480.69,359.03 L 480.69,365.63 L 480.52,365.63 C 479.41,362.92 476.65,358.11 470.05,358.11 C 458.46,358.11 454.91,367.32 454.91,378.74 C 454.91,390.58 459.39,399.28 470.05,399.28 C 476.97,399.28 479.34,395.64 480.52,393.7 L 480.69,393.7 L 480.69,398.1 C 480.69,406.97 479.67,413.23 470.71,413.23 C 465.21,413.23 460.47,409.94 457.76,408.33 L 457.76,416.69 C 460.8,417.47 464.2,418.3 469.36,418.3 C 485.5,418.3 489.21,409.43 489.21,398.1 L 489.21,359.03 L 489.22,359.03 M 502.08,359.03 L 510.62,359.03 L 510.62,399.28 L 502.08,399.28 L 502.08,359.03 L 502.08,359.03 M 501.75,340.94 L 510.95,340.94 L 510.95,349.39 L 501.75,349.39 L 501.75,340.94 L 501.75,340.94 M 544.78,399.61 C 543.09,400.04 540.81,400.21 538.86,400.21 C 530.83,400.21 526.17,397.75 526.17,389.98 L 526.17,363.43 L 519.75,363.43 L 519.75,359.02 L 526.17,359.02 L 526.17,349.55 L 534.71,344.4 L 534.71,359.02 L 545.71,359.02 L 545.71,363.43 L 534.71,363.43 L 534.71,386.6 C 534.71,392.52 535.3,395.4 540.8,395.4 C 542.17,395.4 543.6,395.22 544.77,394.71 L 544.77,399.61 L 544.78,399.61 M 573.19,385.16 C 573.19,392.0 567.87,394.88 564.9,394.88 C 562.11,394.88 560.0,392.51 560.0,388.88 C 560.0,381.43 569.64,380.67 573.19,380.42 L 573.19,385.16 L 573.19,385.16 M 573.19,399.28 L 581.72,399.28 L 581.72,373.32 C 581.72,365.46 580.64,358.11 567.52,358.11 C 554.85,358.11 552.47,364.44 552.05,370.45 L 561.01,370.45 C 561.35,365.71 562.28,361.66 567.52,361.66 C 573.19,361.66 573.19,368.93 573.19,373.31 L 573.19,376.87 C 567.87,377.11 550.7,377.71 550.7,390.15 C 550.7,395.72 555.35,400.2 561.68,400.2 C 568.12,400.2 571.66,396.06 573.01,393.69 L 573.18,393.69 L 573.18,399.28 L 573.19,399.28 M 594.49,340.94 L 603.04,340.94 L 603.04,399.28 L 594.49,399.28 L 594.49,340.94 M 677.28,396.49 C 674.14,398.35 669.25,400.21 661.71,400.21 C 643.7,400.21 637.18,385.42 637.18,369.02 C 637.18,354.89 642.36,340.01 660.18,340.01 C 673.21,340.01 679.63,347.2 679.63,356.75 L 668.81,356.75 C 668.81,352.02 667.11,345.09 659.43,345.09 C 648.78,345.09 647.08,359.37 647.08,367.5 C 647.08,380.6 650.22,394.13 663.23,394.13 C 670.33,394.13 674.81,390.41 677.28,388.55 L 677.28,396.49 L 677.28,396.49 M 686.57,340.94 L 695.1,340.94 L 695.1,368.6 L 695.27,368.6 C 696.63,365.63 700.52,358.11 709.41,358.11 C 716.5,358.11 719.55,364.02 719.55,369.86 L 719.55,399.28 L 711.01,399.28 L 711.01,374.09 C 711.01,369.02 710.25,364.44 705.94,364.44 C 697.49,364.44 695.11,377.64 695.11,382.63 L 695.11,399.29 L 686.58,399.29 L 686.58,340.94 L 686.57,340.94 M 732.47,359.03 L 741.03,359.03 L 741.03,399.28 L 732.47,399.28 L 732.47,359.03 L 732.47,359.03 M 732.15,340.94 L 741.37,340.94 L 741.37,349.39 L 732.15,349.39 L 732.15,340.94 L 732.15,340.94 M 754.04,359.03 L 762.57,359.03 L 762.57,368.6 L 762.75,368.6 C 764.11,365.63 767.99,358.11 776.88,358.11 C 783.98,358.11 787.02,364.02 787.02,369.86 L 787.02,399.28 L 778.49,399.28 L 778.49,374.09 C 778.49,369.02 777.73,364.44 773.42,364.44 C 764.96,364.44 762.58,377.64 762.58,382.63 L 762.58,399.29 L 754.05,399.29 L 754.05,359.03 L 754.04,359.03 M 819.41,385.16 C 819.41,392.0 814.08,394.88 811.11,394.88 C 808.32,394.88 806.21,392.51 806.21,388.88 C 806.21,381.43 815.84,380.67 819.4,380.42 L 819.4,385.16 L 819.41,385.16 M 819.41,399.28 L 827.94,399.28 L 827.94,373.32 C 827.94,365.46 826.86,358.11 813.73,358.11 C 801.07,358.11 798.68,364.44 798.26,370.45 L 807.22,370.45 C 807.57,365.71 808.49,361.66 813.73,361.66 C 819.41,361.66 819.41,368.93 819.41,373.31 L 819.41,376.87 C 814.08,377.11 796.92,377.71 796.92,390.15 C 796.92,395.72 801.55,400.2 807.9,400.2 C 814.33,400.2 817.88,396.06 819.23,393.69 L 819.41,393.69 L 819.41,399.28 L 819.41,399.28 M 828.14,262.34 L 793.23,262.34 L 793.23,239.69 L 793.24,239.7 C 793.24,235.99 790.22,232.98 786.51,232.97 L 784.06,232.97 L 784.06,271.51 L 793.23,271.51 L 793.23,271.5 L 818.96,271.5 L 818.96,299.75 C 818.96,303.21 816.15,306.03 812.69,306.03 L 801.01,306.03 L 805.59,315.21 L 812.69,315.21 C 821.21,315.21 828.14,308.28 828.14,299.76 L 828.14,271.5 L 828.14,262.34 L 828.14,262.34 M 763.76,253.38 C 759.7,253.44 756.08,255.37 753.74,258.35 C 756.93,248.53 756.88,239.92 756.87,239.21 L 756.87,232.14 L 774.51,232.14 L 774.51,222.96 L 736.74,222.96 L 736.74,232.14 L 747.69,232.14 L 747.69,239.29 C 747.71,240.53 747.8,266.96 728.04,276.08 L 734.67,283.01 C 738.26,281.0 741.27,278.54 743.79,275.84 L 743.79,310.04 L 752.96,310.04 L 752.96,310.04 L 759.98,310.04 C 768.5,310.04 775.42,303.11 775.42,294.59 L 775.42,262.56 L 775.43,262.56 L 775.43,253.39 L 763.76,253.38 L 763.76,253.38 L 763.76,253.38 M 766.26,294.57 C 766.26,298.03 763.45,300.83 759.98,300.83 L 752.96,300.83 L 752.96,265.82 C 755.22,263.82 758.15,262.58 761.4,262.54 L 766.26,262.54 L 766.26,294.57 L 766.26,294.57" class="st1"/>
			<path d="M 815.2,227.42 L 814.42,227.42 L 807.51,258.15 L 816.7,258.15 L 823.15,229.65 C 823.32,228.94 823.42,228.19 823.42,227.42 L 823.42,227.42 L 823.42,227.42 C 823.42,222.37 819.34,218.28 814.29,218.26 L 814.29,218.25 L 778.63,218.25 L 778.63,227.42 L 815.2,227.42 L 815.2,227.42 M 697.52,283.49 C 703.07,272.81 707.69,258.93 709.33,241.25 L 714.65,241.25 L 714.65,232.08 L 692.96,232.08 L 692.94,232.09 C 689.29,232.15 686.01,233.71 683.67,236.19 C 685.3,226.95 685.49,219.66 685.49,216.78 L 676.31,216.78 C 676.29,221.76 675.53,243.97 664.9,263.45 L 672.95,267.85 C 674.82,264.43 676.4,260.97 677.75,257.52 C 679.92,267.58 683.17,276.3 686.91,283.72 C 679.35,296.38 670.82,302.98 667.17,305.39 C 662.99,303.69 658.91,301.83 655.08,299.96 C 664.17,290.1 668.25,277.59 668.45,276.93 L 670.36,270.95 L 664.08,270.95 L 644.84,270.95 C 646.1,268.63 647.27,266.48 648.22,264.76 L 637.77,264.76 L 634.4,270.95 L 616.9,270.95 L 616.9,280.12 C 616.9,280.12 622.35,280.12 629.4,280.12 L 622.9,292.06 L 626.43,294.38 C 626.8,294.62 631.29,297.55 638.14,301.42 C 628.41,306.77 621.95,307.06 615.03,306.92 L 615.06,306.99 L 623.5,315.81 C 629.92,315.12 637.23,312.99 646.85,306.91 C 647.1,306.77 647.31,306.61 647.55,306.45 C 653.12,309.3 659.41,312.23 665.93,314.76 L 667.89,315.53 L 669.76,314.54 C 670.58,314.11 681.68,307.95 692.01,292.72 C 699.41,304.39 707.45,311.88 712.11,315.64 L 718.37,308.66 C 713.99,305.12 705.11,296.9 697.52,283.49 L 697.52,283.49 M 639.84,280.12 C 646.74,280.12 653.46,280.12 657.26,280.12 C 655.13,284.62 651.58,290.8 646.55,295.55 C 641.7,292.94 637.69,290.57 635.04,288.95 C 636.01,287.17 637.81,283.85 639.84,280.12 L 639.84,280.12 M 684.9,242.66 C 686.61,241.78 688.54,241.27 690.58,241.25 L 700.12,241.25 C 698.86,253.92 695.97,264.38 692.35,272.93 C 688.8,264.4 686.01,254.33 684.9,242.66 L 684.9,242.66 M 575.9,267.96 L 575.9,267.96 L 573.77,250.52 L 573.77,250.52 C 573.77,250.49 573.77,250.46 573.77,250.44 C 573.32,246.75 569.96,244.13 566.27,244.58 C 565.42,244.68 564.63,244.95 563.9,245.34 L 564.67,251.63 L 567.08,271.38 L 567.56,275.31 C 568.35,275.52 569.18,275.58 570.05,275.48 C 573.74,275.03 576.36,271.67 575.91,267.98 C 575.9,267.98 575.9,267.97 575.9,267.96 L 575.9,267.96 M 544.0,267.96 L 544.0,267.96 L 541.87,250.52 L 541.87,250.52 C 541.86,250.49 541.86,250.46 541.86,250.44 C 541.42,246.75 538.06,244.13 534.37,244.58 C 533.51,244.68 532.71,244.95 532.0,245.34 L 532.77,251.63 L 535.18,271.38 L 535.67,275.31 C 536.45,275.52 537.29,275.58 538.14,275.48 C 541.84,275.03 544.45,271.67 544.01,267.98 C 544.01,267.98 544.0,267.97 544.0,267.96 L 544.0,267.96 M 500.53,251.63 L 502.93,271.38 L 503.41,275.31 C 504.2,275.52 505.04,275.58 505.89,275.48 C 509.59,275.03 512.21,271.67 511.76,267.98 C 511.75,267.97 511.75,267.96 511.75,267.96 L 509.63,250.52 L 509.62,250.52 C 509.62,250.49 509.62,250.46 509.62,250.44 C 509.17,246.75 505.82,244.13 502.13,244.58 C 501.28,244.68 500.48,244.95 499.75,245.34 L 500.53,251.63 L 500.53,251.63 M 416.72,259.61 L 410.17,252.0 C 415.13,243.99 416.76,237.79 416.9,237.22 L 418.3,231.53 L 412.45,231.53 L 385.04,231.53 L 385.04,240.7 C 390.31,240.7 400.1,240.7 405.86,240.7 C 402.61,247.91 394.95,260.48 378.53,269.9 L 385.03,276.7 C 389.68,273.86 393.68,270.78 397.13,267.65 L 397.13,316.13 L 399.58,316.13 C 403.3,316.13 406.3,313.11 406.3,309.41 L 406.29,309.42 L 406.29,261.55 L 414.16,270.69 L 416.02,269.08 C 418.84,266.65 419.15,262.41 416.72,259.61 L 416.72,259.61 L 416.72,259.61 M 454.18,222.38 L 454.2,222.39 C 454.19,218.67 451.18,215.67 447.47,215.66 L 445.01,215.66 L 445.01,231.49 L 440.11,231.49 L 440.11,231.5 C 435.56,231.57 431.58,233.97 429.29,237.56 L 429.29,231.49 L 420.12,231.49 L 420.12,289.22 L 429.29,289.22 L 429.29,289.21 L 445.0,289.21 L 445.0,318.29 L 447.46,318.29 C 451.17,318.28 454.18,315.28 454.19,311.56 L 454.17,311.56 L 454.17,289.21 L 461.13,289.21 C 469.65,289.21 479.04,282.28 479.04,273.77 L 479.04,240.66 L 479.04,231.49 L 454.17,231.49 L 454.17,222.38 L 454.18,222.38 M 437.74,240.67 L 445.02,240.67 L 445.02,255.77 L 429.3,255.77 L 429.3,243.95 C 431.57,241.95 434.51,240.71 437.74,240.67 L 437.74,240.67 M 429.3,280.05 L 429.3,264.95 L 445.01,264.95 L 445.01,268.41 L 445.01,280.05 L 429.3,280.05 L 429.3,280.05 M 461.14,280.05 L 454.18,280.05 L 454.18,268.41 L 454.18,264.95 L 469.87,264.95 L 469.87,273.78 C 469.86,277.23 464.6,280.05 461.14,280.05 L 461.14,280.05 M 469.86,240.67 L 469.86,255.77 L 454.17,255.77 L 454.17,240.67 L 469.86,240.67 L 469.86,240.67 M 590.77,261.9 L 590.77,223.46 L 590.77,223.47 C 590.77,219.76 587.76,216.75 584.04,216.75 L 580.82,216.75 L 580.82,261.91 L 580.82,269.5 L 580.82,317.22 L 584.04,317.22 C 587.76,317.21 590.77,314.21 590.77,310.5 L 590.77,310.51 L 590.77,269.49 L 590.77,261.9 L 590.77,261.9 M 558.91,255.97 L 558.91,226.88 L 558.92,226.89 C 558.92,223.17 555.92,220.16 552.2,220.16 L 548.98,220.16 L 548.98,255.98 L 548.98,272.91 L 548.98,311.29 L 552.2,311.29 C 555.92,311.29 558.92,308.27 558.92,304.57 L 558.91,304.57 L 558.91,272.9 L 558.91,255.97 L 558.91,255.97" class="st1"/>
			<path d="M 520.34,216.74 L 517.12,216.74 L 517.12,248.9 L 517.09,248.9 L 517.09,267.39 C 517.09,274.26 515.01,285.53 509.17,294.71 C 505.2,300.94 500.05,305.48 493.77,308.27 L 500.89,315.71 C 519.66,305.36 527.02,283.49 527.02,267.39 L 527.02,263.2 L 527.05,263.2 L 527.05,223.46 L 527.06,223.47 C 527.07,219.75 524.05,216.75 520.34,216.74 L 520.34,216.74 M 625.77,234.77 L 625.79,234.77 L 625.79,234.78 L 634.29,234.78 L 631.2,228.57 L 631.2,228.57 L 628.96,224.02 L 628.97,224.02 C 628.05,222.16 626.2,221.09 624.25,221.05 L 624.25,221.03 L 618.98,221.03 L 623.17,229.49 L 625.77,234.77 L 625.77,234.77 M 398.42,228.63 L 399.44,228.63 L 399.44,228.64 L 407.95,228.64 L 405.75,224.23 L 405.75,224.23 L 403.51,219.68 L 403.52,219.68 C 402.6,217.82 400.75,216.75 398.8,216.71 L 398.79,216.69 L 392.51,216.69 L 397.42,226.61 L 398.42,228.63 L 398.42,228.63 M 660.01,234.77 L 660.01,234.77 L 662.62,229.48 L 666.82,221.02 L 661.55,221.02 L 661.54,221.04 C 659.6,221.08 657.74,222.15 656.82,224.01 L 656.83,224.01 L 654.59,228.56 L 654.58,228.56 L 651.5,234.77 L 660.01,234.77 L 660.01,234.77 L 660.01,234.77 M 814.65,282.3 L 786.91,282.3 L 786.92,282.29 C 783.21,282.29 780.2,285.3 780.19,289.02 L 780.19,291.48 L 814.65,291.48 L 814.65,282.3 L 814.65,282.3" class="st1"/>
			<path d="M 615.68,256.49 L 622.4,263.51 C 629.47,260.07 634.6,255.85 638.31,251.73 L 638.31,263.15 L 647.48,263.15 L 647.48,250.75 C 651.02,254.91 655.99,259.27 662.95,262.86 C 664.44,260.12 665.71,257.33 666.84,254.54 C 661.23,251.59 657.26,248.1 654.45,244.81 L 667.58,244.81 L 667.58,237.17 L 647.47,237.17 L 647.47,223.46 L 647.47,223.47 C 647.47,219.76 644.46,216.75 640.75,216.75 L 638.29,216.75 L 638.29,237.18 L 618.5,237.18 L 618.5,244.82 L 632.17,244.82 C 628.75,248.85 623.52,253.21 615.68,256.49 L 615.68,256.49" class="st1"/>
		</g>
	</g>
</svg>