<svg viewBox="0 0 133 32" fill="none" xmlns="http://www.w3.org/2000/svg">
<g id="Layer_1" clip-path="url(#clip0_346_10646)">
<path id="Vector" d="M53.5287 10.9987C52.9929 9.72003 52.2391 8.6059 51.2662 7.65766C50.2932 6.70941 49.1424 5.97537 47.814 5.45554C46.4842 4.9357 45.0455 4.67578 43.4978 4.67578H35.9163V25.7422H43.5575C45.0857 25.7422 46.5089 25.4823 47.8283 24.9625C49.1476 24.4426 50.2932 23.7086 51.2662 22.7604C52.2379 21.8121 52.9929 20.6928 53.5287 19.4036C54.0645 18.1145 54.333 16.7117 54.333 15.1927C54.333 13.6737 54.0658 12.2761 53.5287 10.9974V10.9987ZM49.3461 18.488C48.7805 19.5368 47.9865 20.3453 46.9655 20.9148C45.9432 21.4843 44.7679 21.769 43.4381 21.769H39.9652V8.6477H43.4381C44.7679 8.6477 45.9381 8.93766 46.95 9.51627C47.9619 10.0962 48.7558 10.8942 49.3319 11.913C49.9066 12.9318 50.1946 13.7834 50.1946 15.1626C50.1946 16.5419 49.9118 17.4379 49.3461 18.4867V18.488Z" fill="black"/>
<path id="Vector_2" d="M80.0862 25.7592V11.674H83.9379V25.7592H80.0862ZM81.3134 4.67578H80.0862V8.55366H83.9379V4.67578H81.3122H81.3134Z" fill="black"/>
<path id="Vector_3" d="M100.705 14.9693C100.126 13.8617 99.319 12.9866 98.2863 12.3453C97.2537 11.704 96.09 11.3827 94.7965 11.3827C93.8119 11.3827 92.9089 11.5917 92.089 12.0097C91.6129 12.2526 91.1939 12.5465 90.8293 12.89V4.67578H87.0347V25.7592H90.8008V24.5093C91.1705 24.871 91.5934 25.1767 92.0748 25.4248C92.8856 25.8428 93.7937 26.0518 94.7978 26.0518C96.0913 26.0518 97.2498 25.7305 98.2734 25.0892C99.2969 24.4479 100.103 23.5728 100.692 22.4652C101.281 21.3576 101.575 20.1128 101.575 18.7323C101.575 17.3517 101.286 16.0782 100.706 14.9706L100.705 14.9693ZM97.2147 20.6849C96.9151 21.2492 96.5051 21.6959 95.9836 22.0263C95.4621 22.3568 94.8536 22.5226 94.1583 22.5226C93.4629 22.5226 92.8454 22.3581 92.3044 22.0263C91.7634 21.6959 91.3483 21.2492 91.059 20.6849C90.7697 20.1207 90.6244 19.4702 90.6244 18.731C90.6244 17.9917 90.7697 17.3125 91.059 16.7483C91.3483 16.184 91.7582 15.7373 92.2901 15.4069C92.8207 15.0764 93.4344 14.9106 94.1297 14.9106C94.8251 14.9106 95.4374 15.0764 95.9693 15.4069C96.4999 15.7373 96.9151 16.1893 97.2147 16.7626C97.5144 17.336 97.6636 17.9826 97.6636 18.7022C97.6636 19.4611 97.5144 20.122 97.2147 20.6849Z" fill="black"/>
<path id="Vector_4" d="M73.2843 11.6741V12.9253C72.9145 12.5635 72.4916 12.2579 72.0103 12.0098C71.1995 11.5918 70.2913 11.3828 69.2872 11.3828C67.9938 11.3828 66.8353 11.7041 65.8117 12.3454C64.7881 12.9867 63.9825 13.8618 63.3935 14.9694C62.8045 16.077 62.51 17.3218 62.51 18.7023C62.51 20.0829 62.7993 21.3564 63.3792 22.464C63.9578 23.5715 64.7648 24.4466 65.7974 25.088C66.8301 25.7293 67.9938 26.0506 69.2872 26.0506C70.2719 26.0506 71.1748 25.8416 71.9947 25.4236C72.4708 25.1807 72.8899 24.8868 73.2544 24.5433V25.118C73.2544 26.1485 72.9067 26.9701 72.2114 27.5826C71.516 28.1952 70.5897 28.5009 69.4312 28.5009C68.4855 28.5009 67.6785 28.3311 67.013 27.9902C66.3462 27.6493 65.7429 27.1595 65.2032 26.5182L62.7708 28.9384C63.4661 29.9102 64.3782 30.6638 65.5081 31.198C66.6381 31.7322 67.9562 32 69.4624 32C70.9685 32 72.262 31.7126 73.401 31.1392C74.5401 30.5658 75.4326 29.7547 76.08 28.7046C76.7273 27.6545 77.0504 26.4398 77.0504 25.0592V11.6741H73.2856H73.2843ZM71.7923 22.0264C71.2617 22.3569 70.6481 22.5227 69.9527 22.5227C69.2574 22.5227 68.645 22.3569 68.1131 22.0264C67.5825 21.696 67.1674 21.244 66.8677 20.6706C66.568 20.0973 66.4188 19.4507 66.4188 18.7311C66.4188 17.9722 66.568 17.3113 66.8677 16.7484C67.1674 16.1841 67.5773 15.7374 68.0989 15.407C68.6204 15.0765 69.2288 14.9106 69.9242 14.9106C70.6196 14.9106 71.2371 15.0752 71.7781 15.407C72.3191 15.7374 72.7342 16.1841 73.0235 16.7484C73.3128 17.3126 73.4581 17.9631 73.4581 18.7023C73.4581 19.4416 73.3128 20.1208 73.0235 20.685C72.7342 21.2493 72.3242 21.696 71.7923 22.0264Z" fill="black"/>
<path id="Vector_5" d="M116.46 14.7656C115.882 13.6972 115.07 12.86 114.028 12.2578C112.985 11.6557 111.807 11.354 110.494 11.354C109.103 11.354 107.849 11.6753 106.729 12.3166C105.61 12.9579 104.726 13.833 104.079 14.9406C103.431 16.0482 103.108 17.3021 103.108 18.7022C103.108 20.1024 103.437 21.385 104.093 22.4939C104.75 23.6015 105.652 24.4766 106.802 25.1179C107.95 25.7592 109.259 26.0805 110.726 26.0805C111.865 26.0805 112.917 25.8768 113.884 25.468C114.849 25.0591 115.69 24.4479 116.403 23.6302L114.143 21.3563C113.718 21.8618 113.217 22.2314 112.637 22.4639C112.057 22.6977 111.411 22.8139 110.696 22.8139C109.904 22.8139 109.21 22.6494 108.61 22.3176C108.011 21.9871 107.553 21.5065 107.234 20.8743C107.107 20.6236 107.007 20.3545 106.93 20.0685L117.154 20.0436C117.231 19.7328 117.28 19.4454 117.3 19.1829C117.319 18.9204 117.328 18.6631 117.328 18.4097C117.328 17.0487 117.039 15.834 116.459 14.7643L116.46 14.7656ZM108.495 15.0569C109.055 14.7264 109.712 14.5605 110.464 14.5605C111.178 14.5605 111.777 14.7068 112.26 14.9981C112.742 15.2894 113.119 15.7178 113.39 16.2807C113.519 16.5524 113.619 16.8554 113.692 17.1898L106.932 17.2094C107.002 16.9468 107.094 16.7013 107.205 16.4701C107.505 15.8575 107.934 15.386 108.495 15.0556V15.0569Z" fill="black"/>
<path id="Vector_6" d="M132.131 14.7656C131.552 13.6972 130.74 12.86 129.698 12.2578C128.655 11.6557 127.477 11.354 126.164 11.354C124.774 11.354 123.519 11.6753 122.4 12.3166C121.28 12.9579 120.397 13.833 119.749 14.9406C119.102 16.0482 118.779 17.3021 118.779 18.7022C118.779 20.1024 119.107 21.385 119.763 22.4939C120.42 23.6015 121.323 24.4766 122.472 25.1179C123.62 25.7592 124.929 26.0805 126.397 26.0805C127.536 26.0805 128.588 25.8768 129.554 25.468C130.52 25.0591 131.36 24.4479 132.074 23.6302L129.814 21.3563C129.388 21.8618 128.888 22.2314 128.308 22.4639C127.728 22.6977 127.082 22.8139 126.367 22.8139C125.574 22.8139 124.88 22.6494 124.281 22.3176C123.681 21.9871 123.223 21.5065 122.904 20.8743C122.777 20.6236 122.677 20.3545 122.601 20.0685L132.825 20.0436C132.901 19.7328 132.951 19.4454 132.97 19.1829C132.99 18.9204 132.999 18.6631 132.999 18.4097C132.999 17.0487 132.709 15.834 132.13 14.7643L132.131 14.7656ZM124.165 15.0569C124.726 14.7264 125.382 14.5605 126.135 14.5605C126.848 14.5605 127.448 14.7068 127.93 14.9981C128.413 15.2894 128.789 15.7178 129.06 16.2807C129.19 16.5524 129.29 16.8554 129.362 17.1898L122.602 17.2094C122.672 16.9468 122.764 16.7013 122.876 16.4701C123.175 15.8575 123.605 15.386 124.165 15.0556V15.0569Z" fill="black"/>
<path id="Vector_7" d="M56.6631 25.7592V11.674H60.5148V25.7592H56.6631ZM57.8904 4.67578H56.6631V8.55366H60.5148V4.67578H57.8891H57.8904Z" fill="black"/>
<path id="Vector_8" d="M0 21.3758L9.49768 15.8104L0 10.2725V21.3758Z" fill="#6B10EB"/>
<path id="Vector_9" d="M11.5306 19.2783L2.01733 24.8515L11.5643 30.4013L11.5306 19.2783Z" fill="#6B10EB"/>
<path id="Vector_10" d="M13.579 0L1.95239 6.75788L15.5146 14.6678L15.5639 30.4183L27.158 23.6787V7.8929L13.579 0Z" fill="#6B10EB"/>
</g>
<defs>
<clipPath id="clip0_346_10646">
<rect width="133" height="32" fill="white"/>
</clipPath>
</defs>
</svg>