<?xml version="1.0" ?>
<svg xmlns="http://www.w3.org/2000/svg" viewBox="0 0 76 26" fill="none">
	<path d="M23.0706 0.894532C23.8873 0.894532 24.6705 1.21471 25.248 1.78462C25.8254 2.35454 26.1498 3.12751 26.1498 3.9335C26.1498 4.33258 26.0702 4.72776 25.9154 5.09646C25.7607 5.46517 25.5339 5.80018 25.248 6.08237C24.962 6.36457 24.6226 6.58842 24.249 6.74114C23.8754 6.89386 23.475 6.97247 23.0706 6.97247C22.6663 6.97247 22.2659 6.89386 21.8923 6.74114C21.5187 6.58842 21.1793 6.36457 20.8933 6.08237C20.6074 5.80018 20.3806 5.46517 20.2258 5.09646C20.0711 4.72776 19.9914 4.33258 19.9914 3.9335C19.9913 3.53437 20.0708 3.13912 20.2255 2.77034C20.3802 2.40156 20.607 2.06648 20.8929 1.78425C21.1789 1.50202 21.5184 1.27818 21.8921 1.12551C22.2657 0.972852 22.6662 0.894363 23.0706 0.894532Z" fill="black"/>
	<path d="M19.9914 8.17804H26.1498V24.816H19.9914V8.17804Z" fill="black"/>
	<path fill-rule="evenodd" clip-rule="evenodd" d="M7.80049 7.80314C3.57913 7.80314 0.213745 11.5932 0.213745 16.5439C0.213745 21.5883 3.76906 25.1909 8.21287 25.1909C9.95996 25.1909 11.642 24.2202 12.9117 22.8413V24.816H18.0866V0.894532H12.0544V9.46321C10.8485 8.42968 9.38757 7.80314 7.80049 7.80314ZM10.3312 19.1178C9.82099 19.458 9.2202 19.6417 8.60444 19.6457C8.1907 19.6497 7.78032 19.5722 7.39728 19.4178C7.01424 19.2634 6.66624 19.0351 6.37361 18.7465C6.08098 18.4578 5.84959 18.1144 5.69298 17.7364C5.53638 17.3585 5.45768 16.9535 5.4615 16.5451C5.46537 15.9374 5.65123 15.3444 5.99571 14.8407C6.3402 14.3369 6.82792 13.945 7.39753 13.7141C7.96714 13.4833 8.59321 13.4238 9.19698 13.5432C9.80075 13.6626 10.3553 13.9555 10.7908 14.3852C11.2263 14.8148 11.5233 15.362 11.6446 15.9578C11.7658 16.5536 11.7058 17.1716 11.4721 17.7338C11.2384 18.2961 10.8415 18.7776 10.3312 19.1178Z" fill="black"/>
	<path d="M70.198 8.73995C71.237 9.1693 72.1792 9.79834 72.9696 10.5904C76.3025 13.9247 76.3025 19.3504 72.9696 22.6847C72.1793 23.4758 71.2375 24.104 70.1991 24.5328C69.1606 24.9616 68.0462 25.1824 66.9205 25.1824C65.7948 25.1824 64.6804 24.9616 63.6419 24.5328C62.6034 24.104 61.6617 23.4758 60.8714 22.6847L60.1611 21.976L64.2433 17.8958L64.9522 18.6096C65.2087 18.8675 65.5147 19.0723 65.8523 19.2122C66.1899 19.352 66.5524 19.424 66.9185 19.424C67.2847 19.424 67.6471 19.352 67.9847 19.2122C68.3223 19.0723 68.6283 18.8675 68.8848 18.6096C69.4066 18.0847 69.6988 17.3787 69.6988 16.6433C69.6988 15.908 69.4066 15.202 68.8848 14.677C68.6281 14.4195 68.3221 14.2149 67.9845 14.0753C67.6469 13.9357 67.2846 13.8637 66.9185 13.8637C66.5525 13.8637 66.1901 13.9357 65.8525 14.0753C65.5149 14.2149 65.2089 14.4195 64.9522 14.677L56.9297 22.6975C56.1395 23.4888 55.1978 24.1171 54.1593 24.546C53.1208 24.9749 52.0063 25.1958 50.8806 25.1958C49.7549 25.1958 48.6404 24.9749 47.6019 24.546C46.5634 24.1171 45.6217 23.4888 44.8315 22.6975C43.2291 21.082 42.3317 18.9112 42.3317 16.6504C42.3317 14.3896 43.2291 12.2188 44.8315 10.6033C45.6214 9.81137 46.563 9.18247 47.6015 8.75319C48.64 8.32391 49.7547 8.10284 50.8806 8.10284C52.0065 8.10284 53.1212 8.32391 54.1597 8.75319C55.1982 9.18247 56.1398 9.81137 56.9297 10.6033L57.6413 11.3107L53.5617 15.3922L52.8501 14.677C52.5935 14.4195 52.2874 14.2149 51.9498 14.0753C51.6123 13.9357 51.2499 13.8637 50.8839 13.8637C50.5178 13.8637 50.1554 13.9357 49.8179 14.0753C49.4803 14.2149 49.1742 14.4195 48.9176 14.677C48.3948 15.2024 48.1014 15.9089 48.1002 16.6452C48.099 17.3815 48.3901 18.089 48.9111 18.616C49.168 18.8735 49.4743 19.0778 49.8121 19.2171C50.15 19.3564 50.5126 19.4278 50.8787 19.4272C51.2448 19.4266 51.6072 19.354 51.9446 19.2136C52.2819 19.0732 52.5876 18.8679 52.8436 18.6096L60.8649 10.5904C61.6553 9.79834 62.5975 9.1693 63.6365 8.73995C64.6756 8.31059 65.7908 8.08947 66.9172 8.08947C68.0437 8.08947 69.1589 8.31059 70.198 8.73995Z" fill="black"/>
	<path d="M28.03 19.2067V24.2202C29.9315 24.8462 31.9212 25.1725 33.9256 25.187C39.3295 25.187 42.0613 22.6179 42.0613 19.3286C42.0613 15.4726 38.1271 14.6733 35.522 14.144C34.2325 13.882 33.2687 13.6862 33.2687 13.2186C33.2687 12.7859 34.5266 12.5291 36.1931 12.5291C37.9151 12.5299 39.6267 12.7945 41.2665 13.3136V8.58247C39.5324 8.08565 37.7384 7.82222 35.9329 7.79929C31.6322 7.79929 27.7972 9.89845 27.7972 13.5948C27.7972 17.2362 31.6461 18.1519 34.202 18.76C35.4724 19.0622 36.4233 19.2885 36.4233 19.7356C36.4233 20.1426 35.2993 20.3622 33.6993 20.3622C31.6985 20.3622 30.1648 20.0219 28.03 19.2067Z" fill="black"/>
</svg>