<svg xmlns="http://www.w3.org/2000/svg" xml:space="preserve" id="DISCO-logo" x="0" y="0" style="enable-background:new 0 0 150 21" version="1.1" viewBox="0 0 150 21"><style>.st2{fill:#003a5c}</style><circle id="circle" cx="10.3" cy="10.5" r="10.3" style="fill:#00afa9"/><path id="Square" d="M25 .5h20v20H25z" style="fill:#ff5859"/><g id="DISCO"><path id="D" d="M51.5.4h7.9c6.3 0 10.7 4 10.7 10.1s-4.4 10-10.7 10h-7.9V.4zm7.9 16.3c3.3.2 6.1-2.4 6.3-5.7v-.6c0-3.6-2.2-6.3-6.3-6.3h-3.6v12.6h3.6z" class="st2"/><path id="I" d="M75.8.4h4.3v20.1h-4.3V.4z" class="st2"/><path id="S" d="M87.6 14.4c1.7 1.7 4 2.7 6.4 2.7 2.3 0 3.5-1.1 3.5-2.2 0-1.5-1.9-1.9-4.1-2.4-3.3-.8-7.4-1.7-7.4-6.2C86 3 88.8.2 93.6.2c2.9-.1 5.7.9 7.8 2.8L99 6c-1.6-1.4-3.7-2.2-5.8-2.2-1.8 0-2.9.8-2.9 2s1.8 1.7 4 2.2c3.3.8 7.5 1.8 7.5 6.3 0 3.7-2.6 6.4-8 6.4-3.1.2-6.2-1-8.5-3.2l2.3-3.1z" class="st2"/><path id="C" d="M121.7 14.1c-2 2.7-5.9 3.3-8.6 1.3-2.7-2-3.3-5.9-1.3-8.6s5.9-3.3 8.6-1.3c.5.4.9.8 1.3 1.3l3.9-1.9c-3.1-4.9-9.6-6.4-14.5-3.3-4.9 3.1-6.4 9.6-3.3 14.5s9.6 6.4 14.5 3.3c1.3-.8 2.4-2 3.3-3.3l-3.9-2z" class="st2"/><path id="O" d="M139.5 0C133.7 0 129 4.7 129 10.5S133.7 21 139.5 21 150 16.3 150 10.5 145.3 0 139.5 0zm0 16.7c-3.4 0-6.2-2.8-6.2-6.2s2.8-6.2 6.2-6.2 6.2 2.8 6.2 6.2c0 3.4-2.8 6.2-6.2 6.2z" class="st2"/></g></svg>