<?xml version="1.0" ?>
<svg xmlns="http://www.w3.org/2000/svg" fill="none" viewBox="0 0 1584 396">
	<g>
		<path fill="url(#b)" d="M 0.0,0.0 L 1584.0,0.0 L 1584.0,396.0 L 0.0,396.0 L 0.0,0.0"/>
		<path fill="#8665FE" fill-rule="evenodd" d="M 1518.01,158.069 L 1518.0,158.968 L 1518.0,192.452 L 1551.86,192.452 L 1552.49,192.447 C 1573.14,192.117 1589.83,175.491 1590.16,154.905 L 1590.17,154.274 L 1590.17,102.0 L 1589.74,102.005 C 1576.36,102.221 1564.73,109.629 1558.57,120.521 L 1556.3,120.522 L 1555.68,120.527 C 1535.02,120.858 1518.34,137.483 1518.01,158.069 M 1534.65,175.853 L 1534.65,158.7 L 1534.66,158.361 C 1534.83,147.4 1543.18,138.416 1553.9,137.246 C 1553.9,137.246 1553.92,162.981 1553.9,165.849 C 1553.92,171.223 1549.25,175.857 1543.88,175.854 L 1534.65,175.853 M 1445.01,262.453 L 1445.0,263.342 L 1445.0,296.458 L 1478.86,296.458 L 1479.49,296.453 C 1500.14,296.126 1516.83,279.684 1517.16,259.324 L 1517.17,258.699 L 1517.17,207.0 L 1516.74,207.005 C 1503.36,207.219 1491.73,214.545 1485.57,225.317 L 1483.3,225.319 L 1482.68,225.323 C 1462.02,225.65 1445.34,242.093 1445.01,262.453 L 1445.01,262.453 M 1461.65,280.042 L 1461.65,263.077 L 1461.66,262.741 C 1461.83,251.901 1470.18,243.016 1480.9,241.859 C 1480.9,241.859 1480.92,267.31 1480.9,270.147 C 1480.92,275.462 1476.25,280.045 1470.88,280.042 L 1461.65,280.042 M 932.005,158.069 L 932.0,158.968 L 932.0,192.452 L 965.862,192.452 L 966.489,192.447 C 987.144,192.117 1003.83,175.491 1004.16,154.905 L 1004.17,154.274 L 1004.17,102.0 L 1003.74,102.005 C 990.359,102.221 978.729,109.629 972.572,120.521 L 970.303,120.522 L 969.676,120.527 C 949.022,120.858 932.34,137.483 932.005,158.069 M 948.653,175.853 L 948.653,158.7 L 948.656,158.361 C 948.826,147.4 957.179,138.416 967.902,137.246 C 967.902,137.246 967.921,162.981 967.902,165.849 C 967.921,171.223 963.25,175.857 957.881,175.854 L 948.653,175.853 L 948.653,175.853 M 858.005,262.453 L 858.0,263.342 L 858.0,296.458 L 892.326,296.458 L 892.962,296.453 C 913.899,296.126 930.81,279.684 931.149,259.324 L 931.154,258.699 L 931.154,207.0 L 930.726,207.005 C 917.158,207.219 905.369,214.545 899.128,225.317 L 896.828,225.319 L 896.192,225.323 C 875.255,225.65 858.345,242.093 858.005,262.453 L 858.005,262.453 M 874.881,280.042 L 874.881,263.077 L 874.884,262.741 C 875.056,251.901 883.524,243.016 894.394,241.859 C 894.394,241.859 894.414,267.31 894.394,270.147 C 894.414,275.462 889.678,280.045 884.235,280.042 L 874.881,280.042 M 1005.01,262.453 L 1005.0,263.342 L 1005.0,296.458 L 1039.33,296.458 L 1039.96,296.453 C 1060.9,296.126 1077.81,279.684 1078.15,259.324 L 1078.15,207.0 L 1077.73,207.005 C 1064.16,207.219 1052.37,214.545 1046.13,225.317 L 1043.83,225.319 L 1043.19,225.323 C 1022.26,225.65 1005.34,242.093 1005.01,262.453 L 1005.01,262.453 M 1021.88,280.042 L 1021.88,262.741 C 1022.06,251.901 1030.52,243.016 1041.39,241.859 C 1041.39,241.859 1041.41,267.31 1041.39,270.147 C 1041.41,275.462 1036.68,280.045 1031.24,280.042 L 1021.88,280.042 M 1079.01,158.069 L 1079.0,158.968 L 1079.0,192.452 L 1112.86,192.452 L 1113.49,192.447 C 1134.14,192.117 1150.83,175.491 1151.16,154.905 L 1151.17,154.274 L 1151.17,102.0 L 1150.74,102.005 C 1137.36,102.221 1125.73,109.629 1119.57,120.521 L 1117.3,120.522 L 1116.68,120.527 C 1096.02,120.858 1079.34,137.483 1079.01,158.069 M 1095.65,175.853 L 1095.65,158.7 L 1095.66,158.361 C 1095.83,147.4 1104.18,138.416 1114.9,137.246 C 1114.9,137.246 1114.92,162.981 1114.9,165.849 C 1114.92,171.223 1110.25,175.857 1104.88,175.854 L 1095.65,175.853 M 1225.01,158.069 L 1225.0,158.968 L 1225.0,192.452 L 1258.86,192.452 L 1259.49,192.447 C 1280.14,192.117 1296.83,175.491 1297.16,154.905 L 1297.17,154.274 L 1297.17,102.0 L 1296.74,102.005 C 1283.36,102.221 1271.73,109.629 1265.57,120.521 L 1263.3,120.522 L 1262.68,120.527 C 1242.02,120.858 1225.34,137.483 1225.01,158.069 M 1241.65,175.853 L 1241.65,158.7 L 1241.66,158.361 C 1241.83,147.4 1250.18,138.416 1260.9,137.246 C 1260.9,137.246 1260.92,162.981 1260.9,165.849 C 1260.92,171.223 1256.25,175.857 1250.88,175.854 L 1241.65,175.853 M 1152.01,262.453 L 1152.0,263.342 L 1152.0,296.458 L 1185.86,296.458 L 1186.49,296.453 C 1207.14,296.126 1223.83,279.684 1224.16,259.324 L 1224.17,258.699 L 1224.17,207.0 L 1223.74,207.005 C 1210.36,207.219 1198.73,214.545 1192.57,225.317 L 1190.3,225.319 L 1189.68,225.323 C 1169.02,225.65 1152.34,242.093 1152.01,262.453 L 1152.01,262.453 M 1168.65,280.042 L 1168.65,263.077 L 1168.66,262.741 C 1168.83,251.901 1177.18,243.016 1187.9,241.859 C 1187.9,241.859 1187.92,267.31 1187.9,270.147 C 1187.92,275.462 1183.25,280.045 1177.88,280.042 L 1168.65,280.042 M 1298.01,262.453 L 1298.0,263.342 L 1298.0,296.458 L 1331.86,296.458 L 1332.49,296.453 C 1353.14,296.126 1369.83,279.684 1370.16,259.324 L 1370.17,258.699 L 1370.17,207.0 L 1369.74,207.005 C 1356.36,207.219 1344.73,214.545 1338.57,225.317 L 1336.3,225.319 L 1335.68,225.323 C 1315.02,225.65 1298.34,242.093 1298.01,262.453 L 1298.01,262.453 M 1314.65,280.042 L 1314.65,263.077 L 1314.66,262.741 C 1314.83,251.901 1323.18,243.016 1333.9,241.859 C 1333.9,241.859 1333.92,267.31 1333.9,270.147 C 1333.92,275.462 1329.25,280.045 1323.88,280.042 L 1314.65,280.042 M 1371.01,158.069 L 1371.0,158.968 L 1371.0,192.452 L 1405.33,192.452 L 1405.96,192.447 C 1426.9,192.117 1443.81,175.491 1444.15,154.905 L 1444.15,102.0 L 1443.73,102.005 C 1430.16,102.221 1418.37,109.629 1412.13,120.521 L 1409.83,120.522 L 1409.19,120.527 C 1388.26,120.858 1371.34,137.483 1371.01,158.069 M 1387.88,175.853 L 1387.88,158.361 C 1388.06,147.4 1396.52,138.416 1407.39,137.246 C 1407.39,137.246 1407.41,162.981 1407.39,165.849 C 1407.41,171.223 1402.68,175.857 1397.24,175.854 L 1387.88,175.853 M 636.005,366.453 L 636.0,367.342 L 636.0,400.458 L 670.326,400.458 L 670.962,400.453 C 691.899,400.126 708.81,383.684 709.149,363.324 L 709.154,362.699 L 709.154,311.0 L 708.726,311.005 C 695.158,311.219 683.369,318.545 677.128,329.317 L 674.828,329.319 L 674.192,329.323 C 653.255,329.65 636.345,346.093 636.005,366.453 L 636.005,366.453 M 652.881,384.042 L 652.881,367.077 L 652.884,366.741 C 653.056,355.901 661.524,347.016 672.394,345.859 C 672.394,345.859 672.414,371.31 672.394,374.147 C 672.414,379.462 667.678,384.045 662.235,384.042 L 652.881,384.042 M 783.005,366.453 L 783.0,367.342 L 783.0,400.458 L 816.398,400.458 L 817.017,400.453 C 837.388,400.126 853.842,383.684 854.172,363.324 L 854.177,362.699 L 854.177,311.0 L 853.761,311.005 C 840.56,311.219 829.089,318.545 823.017,329.317 L 820.779,329.319 L 820.16,329.323 C 799.789,329.65 783.335,346.093 783.005,366.453 L 783.005,366.453 M 799.425,384.042 L 799.425,367.077 L 799.428,366.741 C 799.595,355.901 807.834,347.016 818.41,345.859 C 818.41,345.859 818.429,371.31 818.41,374.147 C 818.429,379.462 813.822,384.045 808.526,384.042 L 799.425,384.042 M 51.005,366.453 L 51.0,367.342 L 51.0,400.458 L 84.862,400.458 L 85.489,400.453 C 106.144,400.126 122.826,383.684 123.16,363.324 L 123.166,362.699 L 123.166,311.0 L 122.743,311.005 C 109.359,311.219 97.729,318.545 91.573,329.317 L 89.303,329.319 L 88.676,329.323 C 68.022,329.65 51.34,346.093 51.006,366.453 L 51.005,366.453 M 67.653,384.042 L 67.653,367.077 L 67.656,366.741 C 67.826,355.901 76.179,347.016 86.902,345.859 C 86.902,345.859 86.922,371.31 86.902,374.147 C 86.922,379.462 82.25,384.045 76.88,384.042 L 67.653,384.042 L 67.653,384.042 M 197.005,366.453 L 197.0,367.342 L 197.0,400.458 L 230.862,400.458 L 231.489,400.453 C 252.144,400.126 268.826,383.684 269.16,363.324 L 269.166,362.699 L 269.166,311.0 L 268.743,311.005 C 255.359,311.219 243.729,318.545 237.572,329.317 L 235.303,329.319 L 234.676,329.323 C 214.022,329.65 197.34,346.093 197.005,366.453 L 197.005,366.453 M 213.653,384.042 L 213.653,367.077 L 213.656,366.741 C 213.826,355.901 222.179,347.016 232.902,345.859 C 232.902,345.859 232.921,371.31 232.902,374.147 C 232.921,379.462 228.25,384.045 222.881,384.042 L 213.653,384.042 L 213.653,384.042 M 343.005,366.453 L 343.0,367.342 L 343.0,400.458 L 377.326,400.458 L 377.962,400.453 C 398.899,400.126 415.81,383.684 416.149,363.324 L 416.154,362.699 L 416.154,311.0 L 415.726,311.005 C 402.158,311.219 390.369,318.545 384.128,329.317 L 381.828,329.319 L 381.192,329.323 C 360.255,329.65 343.345,346.093 343.005,366.453 L 343.005,366.453 M 359.881,384.042 L 359.881,367.077 L 359.884,366.741 C 360.056,355.901 368.524,347.016 379.394,345.859 C 379.394,345.859 379.414,371.31 379.394,374.147 C 379.414,379.462 374.678,384.045 369.235,384.042 L 359.881,384.042 M 490.005,366.453 L 490.0,367.342 L 490.0,400.458 L 523.862,400.458 L 524.489,400.453 C 545.144,400.126 561.826,383.684 562.161,363.324 L 562.166,362.699 L 562.166,311.0 L 561.743,311.005 C 548.359,311.219 536.729,318.545 530.572,329.317 L 528.303,329.319 L 527.676,329.323 C 507.022,329.65 490.34,346.093 490.005,366.453 L 490.005,366.453 M 506.653,384.042 L 506.653,367.077 L 506.656,366.741 C 506.826,355.901 515.179,347.016 525.902,345.859 C 525.902,345.859 525.921,371.31 525.902,374.147 C 525.921,379.462 521.25,384.045 515.881,384.042 L 506.653,384.042 L 506.653,384.042 M 639.005,158.069 L 639.0,158.968 L 639.0,192.452 L 673.326,192.452 L 673.962,192.447 C 694.899,192.117 711.81,175.491 712.149,154.905 L 712.154,154.274 L 712.154,102.0 L 711.726,102.005 C 698.158,102.221 686.369,109.629 680.128,120.521 L 677.828,120.522 L 677.192,120.527 C 656.255,120.858 639.345,137.483 639.005,158.069 L 639.005,158.069 M 655.881,175.853 L 655.881,158.7 L 655.884,158.361 C 656.056,147.4 664.524,138.416 675.394,137.246 C 675.394,137.246 675.414,162.981 675.394,165.849 C 675.414,171.223 670.678,175.857 665.235,175.854 L 655.881,175.853 M 566.005,262.453 L 566.0,263.342 L 566.0,296.458 L 599.862,296.458 L 600.489,296.453 C 621.144,296.126 637.826,279.684 638.16,259.324 L 638.166,258.699 L 638.166,207.0 L 637.743,207.005 C 624.359,207.219 612.729,214.545 606.572,225.317 L 604.303,225.319 L 603.676,225.323 C 583.022,225.65 566.34,242.093 566.005,262.453 L 566.005,262.453 M 582.653,280.042 L 582.653,263.077 L 582.656,262.741 C 582.826,251.901 591.179,243.016 601.902,241.859 C 601.902,241.859 601.921,267.31 601.902,270.147 C 601.921,275.462 597.25,280.045 591.881,280.042 L 582.653,280.042 L 582.653,280.042 M 713.005,262.453 L 713.0,263.342 L 713.0,296.458 L 746.862,296.458 L 747.489,296.453 C 768.144,296.126 784.826,279.684 785.16,259.324 L 785.166,258.699 L 785.166,207.0 L 784.743,207.005 C 771.359,207.219 759.729,214.545 753.572,225.317 L 751.303,225.319 L 750.676,225.323 C 730.022,225.65 713.34,242.093 713.005,262.453 L 713.005,262.453 M 729.653,280.042 L 729.653,263.077 L 729.656,262.741 C 729.826,251.901 738.179,243.016 748.902,241.859 C 748.902,241.859 748.921,267.31 748.902,270.147 C 748.921,275.462 744.25,280.045 738.881,280.042 L 729.653,280.042 L 729.653,280.042 M 786.005,158.069 L 786.0,158.968 L 786.0,192.452 L 819.398,192.452 L 820.017,192.447 C 840.388,192.117 856.842,175.491 857.172,154.905 L 857.177,154.274 L 857.177,102.0 L 856.761,102.005 C 843.56,102.221 832.089,109.629 826.017,120.521 L 823.779,120.522 L 823.16,120.527 C 802.789,120.858 786.335,137.483 786.005,158.069 L 786.005,158.069 M 802.425,175.853 L 802.425,158.7 L 802.428,158.361 C 802.595,147.4 810.834,138.416 821.41,137.246 C 821.41,137.246 821.429,162.981 821.41,165.849 C 821.429,171.223 816.822,175.857 811.526,175.854 L 802.425,175.853 M 54.005,158.069 L 54.0,158.968 L 54.0,192.452 L 87.862,192.452 L 88.489,192.447 C 109.144,192.117 125.826,175.491 126.16,154.905 L 126.166,154.274 L 126.166,102.0 L 125.743,102.005 C 112.359,102.221 100.729,109.629 94.573,120.521 L 92.303,120.522 L 91.676,120.527 C 71.022,120.858 54.34,137.483 54.006,158.069 L 54.005,158.069 M 70.653,175.853 L 70.653,158.7 L 70.656,158.361 C 70.826,147.4 79.179,138.416 89.902,137.246 C 89.902,137.246 89.922,162.981 89.902,165.849 C 89.922,171.223 85.25,175.857 79.88,175.854 L 70.653,175.853 L 70.653,175.853 M -19.995,262.453 L -20.0,263.342 L -20.0,296.458 L 14.326,296.458 L 14.962,296.453 C 35.899,296.126 52.81,279.684 53.149,259.324 L 53.154,258.699 L 53.154,207.0 L 52.726,207.005 C 39.158,207.219 27.369,214.545 21.128,225.317 L 18.828,225.319 L 18.192,225.323 C -2.745,225.65 -19.655,242.093 -19.995,262.453 L -19.995,262.453 M -3.119,280.042 L -3.119,263.077 L -3.116,262.741 C -2.944,251.901 5.524,243.016 16.394,241.859 C 16.394,241.859 16.414,267.31 16.394,270.147 C 16.414,275.462 11.678,280.045 6.235,280.042 L -3.119,280.042 L -3.119,280.042 M 127.005,262.453 L 127.0,263.342 L 127.0,296.458 L 160.862,296.458 L 161.489,296.453 C 182.144,296.126 198.826,279.684 199.161,259.324 L 199.166,258.699 L 199.166,207.0 L 198.743,207.005 C 185.359,207.219 173.729,214.545 167.572,225.317 L 165.303,225.319 L 164.676,225.323 C 144.022,225.65 127.34,242.093 127.005,262.453 L 127.005,262.453 M 143.653,280.042 L 143.653,263.077 L 143.656,262.741 C 143.826,251.901 152.179,243.016 162.902,241.859 C 162.902,241.859 162.921,267.31 162.902,270.147 C 162.921,275.462 158.25,280.045 152.881,280.042 L 143.653,280.042 L 143.653,280.042 M 200.005,158.069 L 200.0,158.968 L 200.0,192.452 L 233.862,192.452 L 234.489,192.447 C 255.144,192.117 271.826,175.491 272.16,154.905 L 272.166,154.274 L 272.166,102.0 L 271.743,102.005 C 258.359,102.221 246.729,109.629 240.572,120.521 L 238.303,120.522 L 237.676,120.527 C 217.022,120.858 200.34,137.483 200.005,158.069 M 216.653,175.853 L 216.653,158.7 L 216.656,158.361 C 216.826,147.4 225.179,138.416 235.902,137.246 C 235.902,137.246 235.921,162.981 235.902,165.849 C 235.921,171.223 231.25,175.857 225.881,175.854 L 216.653,175.853 L 216.653,175.853 M 346.005,158.069 L 346.0,158.968 L 346.0,192.452 L 380.326,192.452 L 380.962,192.447 C 401.899,192.117 418.81,175.491 419.149,154.905 L 419.154,154.274 L 419.154,102.0 L 418.726,102.005 C 405.158,102.221 393.369,109.629 387.128,120.521 L 384.828,120.522 L 384.192,120.527 C 363.255,120.858 346.345,137.483 346.005,158.069 M 362.881,175.853 L 362.881,158.7 L 362.884,158.361 C 363.056,147.4 371.524,138.416 382.394,137.246 C 382.394,137.246 382.414,162.981 382.394,165.849 C 382.414,171.223 377.678,175.857 372.235,175.854 L 362.881,175.853 M 273.005,262.453 L 273.0,263.342 L 273.0,296.458 L 306.862,296.458 L 307.489,296.453 C 328.144,296.126 344.826,279.684 345.16,259.324 L 345.166,258.699 L 345.166,207.0 L 344.743,207.005 C 331.359,207.219 319.729,214.545 313.572,225.317 L 311.303,225.319 L 310.676,225.323 C 290.022,225.65 273.34,242.093 273.005,262.453 L 273.005,262.453 M 289.653,280.042 L 289.653,263.077 L 289.656,262.741 C 289.826,251.901 298.179,243.016 308.902,241.859 C 308.902,241.859 308.921,267.31 308.902,270.147 C 308.921,275.462 304.25,280.045 298.881,280.042 L 289.653,280.042 L 289.653,280.042 M 420.005,262.453 L 420.0,263.342 L 420.0,296.458 L 453.862,296.458 L 454.489,296.453 C 475.144,296.126 491.826,279.684 492.16,259.324 L 492.166,258.699 L 492.166,207.0 L 491.743,207.005 C 478.359,207.219 466.729,214.545 460.572,225.317 L 458.303,225.319 L 457.676,225.323 C 437.022,225.65 420.34,242.093 420.005,262.453 L 420.005,262.453 M 436.653,280.042 L 436.653,263.077 L 436.656,262.741 C 436.826,251.901 445.179,243.016 455.902,241.859 C 455.902,241.859 455.921,267.31 455.902,270.147 C 455.921,275.462 451.25,280.045 445.881,280.042 L 436.653,280.042 L 436.653,280.042 M 493.005,158.069 L 493.0,158.968 L 493.0,192.452 L 526.862,192.452 L 527.489,192.447 C 548.144,192.117 564.826,175.491 565.161,154.905 L 565.166,154.274 L 565.166,102.0 L 564.743,102.005 C 551.359,102.221 539.729,109.629 533.572,120.521 L 531.303,120.522 L 530.676,120.527 C 510.022,120.858 493.34,137.483 493.005,158.069 L 493.005,158.069 M 509.653,175.853 L 509.653,158.7 L 509.656,158.361 C 509.826,147.4 518.179,138.416 528.902,137.246 C 528.902,137.246 528.921,162.981 528.902,165.849 C 528.921,171.223 524.25,175.857 518.881,175.854 L 509.653,175.853 L 509.653,175.853 M 1514.01,366.453 L 1514.0,367.342 L 1514.0,400.458 L 1547.4,400.458 L 1548.02,400.453 C 1568.39,400.126 1584.84,383.684 1585.17,363.324 L 1585.18,362.699 L 1585.18,311.0 L 1584.76,311.005 C 1571.56,311.219 1560.09,318.545 1554.02,329.317 L 1551.78,329.319 L 1551.16,329.323 C 1530.79,329.65 1514.34,346.093 1514.01,366.453 L 1514.01,366.453 M 1530.43,384.042 L 1530.43,366.741 C 1530.6,355.901 1538.83,347.016 1549.41,345.859 C 1549.41,345.859 1549.43,371.31 1549.41,374.147 C 1549.43,379.462 1544.82,384.045 1539.53,384.042 L 1530.43,384.042 M 928.005,366.453 L 928.0,367.342 L 928.0,400.458 L 961.862,400.458 L 962.489,400.453 C 983.144,400.126 999.826,383.684 1000.16,363.324 L 1000.17,362.699 L 1000.17,311.0 L 999.743,311.005 C 986.359,311.219 974.729,318.545 968.572,329.317 L 966.303,329.319 L 965.676,329.323 C 945.022,329.65 928.34,346.093 928.005,366.453 L 928.005,366.453 M 944.653,384.042 L 944.653,367.077 L 944.656,366.741 C 944.826,355.901 953.179,347.016 963.902,345.859 C 963.902,345.859 963.921,371.31 963.902,374.147 C 963.921,379.462 959.25,384.045 953.881,384.042 L 944.653,384.042 L 944.653,384.042 M 1074.01,366.453 L 1074.0,367.342 L 1074.0,400.458 L 1108.33,400.458 L 1108.96,400.453 C 1129.9,400.126 1146.81,383.684 1147.15,363.324 L 1147.15,311.0 L 1146.73,311.005 C 1133.16,311.219 1121.37,318.545 1115.13,329.317 L 1112.83,329.319 L 1112.19,329.323 C 1091.26,329.65 1074.34,346.093 1074.01,366.453 L 1074.01,366.453 M 1090.88,384.042 L 1090.88,366.741 C 1091.06,355.901 1099.52,347.016 1110.39,345.859 C 1110.39,345.859 1110.41,371.31 1110.39,374.147 C 1110.41,379.462 1105.68,384.045 1100.24,384.042 L 1090.88,384.042 M 1220.01,366.453 L 1220.0,367.342 L 1220.0,400.458 L 1254.33,400.458 L 1254.96,400.453 C 1275.9,400.126 1292.81,383.684 1293.15,363.324 L 1293.15,311.0 L 1292.73,311.005 C 1279.16,311.219 1267.37,318.545 1261.13,329.317 L 1258.83,329.319 L 1258.19,329.323 C 1237.26,329.65 1220.34,346.093 1220.01,366.453 L 1220.01,366.453 M 1236.88,384.042 L 1236.88,366.741 C 1237.06,355.901 1245.52,347.016 1256.39,345.859 C 1256.39,345.859 1256.41,371.31 1256.39,374.147 C 1256.41,379.462 1251.68,384.045 1246.24,384.042 L 1236.88,384.042 M 1367.01,366.453 L 1367.0,367.342 L 1367.0,400.458 L 1401.33,400.458 L 1401.96,400.453 C 1422.9,400.126 1439.81,383.684 1440.15,363.324 L 1440.15,311.0 L 1439.73,311.005 C 1426.16,311.219 1414.37,318.545 1408.13,329.317 L 1405.83,329.319 L 1405.19,329.323 C 1384.26,329.65 1367.34,346.093 1367.01,366.453 L 1367.01,366.453 M 1383.88,384.042 L 1383.88,366.741 C 1384.06,355.901 1392.52,347.016 1403.39,345.859 C 1403.39,345.859 1403.41,371.31 1403.39,374.147 C 1403.41,379.462 1398.68,384.045 1393.24,384.042 L 1383.88,384.042 M 1444.01,53.069 L 1444.0,53.968 L 1444.0,87.452 L 1477.4,87.452 L 1478.02,87.447 C 1498.39,87.117 1514.84,70.491 1515.17,49.905 L 1515.18,49.274 L 1515.18,-3.0 L 1514.76,-2.995 C 1501.56,-2.779 1490.09,4.629 1484.02,15.521 L 1481.78,15.522 L 1481.16,15.527 C 1460.79,15.857 1444.34,32.483 1444.01,53.069 M 1460.43,70.853 L 1460.43,53.36 C 1460.6,42.4 1468.83,33.416 1479.41,32.246 C 1479.41,32.246 1479.43,57.981 1479.41,60.849 C 1479.43,66.223 1474.82,70.857 1469.53,70.854 L 1460.43,70.854 L 1460.43,70.853 M 857.005,53.069 L 857.0,53.968 L 857.0,87.452 L 891.326,87.452 L 891.962,87.447 C 912.899,87.117 929.81,70.491 930.149,49.905 L 930.154,49.274 L 930.154,-3.0 L 929.726,-2.995 C 916.158,-2.779 904.369,4.629 898.128,15.521 L 895.828,15.522 L 895.192,15.527 C 874.255,15.857 857.345,32.483 857.005,53.069 L 857.005,53.069 M 873.881,70.853 L 873.881,53.7 L 873.884,53.36 C 874.056,42.4 882.524,33.416 893.394,32.246 C 893.394,32.246 893.414,57.981 893.394,60.849 C 893.414,66.223 888.678,70.857 883.235,70.854 L 873.881,70.854 L 873.881,70.853 M 1004.01,53.069 L 1004.0,53.968 L 1004.0,87.452 L 1037.86,87.452 L 1038.49,87.447 C 1059.14,87.117 1075.83,70.491 1076.16,49.905 L 1076.17,49.274 L 1076.17,-3.0 L 1075.74,-2.995 C 1062.36,-2.779 1050.73,4.629 1044.57,15.521 L 1042.3,15.522 L 1041.68,15.527 C 1021.02,15.857 1004.34,32.483 1004.01,53.069 L 1004.01,53.069 M 1020.65,70.853 L 1020.65,53.7 L 1020.66,53.36 C 1020.83,42.4 1029.18,33.416 1039.9,32.246 C 1039.9,32.246 1039.92,57.981 1039.9,60.849 C 1039.92,66.223 1035.25,70.857 1029.88,70.854 L 1020.65,70.854 L 1020.65,70.853 M 1151.01,53.069 L 1151.0,53.968 L 1151.0,87.452 L 1184.4,87.452 L 1185.02,87.447 C 1205.39,87.117 1221.84,70.491 1222.17,49.905 L 1222.18,49.274 L 1222.18,-3.0 L 1221.76,-2.995 C 1208.56,-2.779 1197.09,4.629 1191.02,15.521 L 1188.78,15.522 L 1188.16,15.527 C 1167.79,15.857 1151.34,32.483 1151.01,53.069 M 1167.43,70.853 L 1167.43,53.36 C 1167.6,42.4 1175.83,33.416 1186.41,32.246 C 1186.41,32.246 1186.43,57.981 1186.41,60.849 C 1186.43,66.223 1181.82,70.857 1176.53,70.854 L 1167.43,70.854 L 1167.43,70.853 M 1297.01,53.069 L 1297.0,53.968 L 1297.0,87.452 L 1330.86,87.452 L 1331.49,87.447 C 1352.14,87.117 1368.83,70.491 1369.16,49.905 L 1369.17,49.274 L 1369.17,-3.0 L 1368.74,-2.995 C 1355.36,-2.779 1343.73,4.629 1337.57,15.521 L 1335.3,15.522 L 1334.68,15.527 C 1314.02,15.857 1297.34,32.483 1297.01,53.069 M 1313.65,70.853 L 1313.65,53.7 L 1313.66,53.36 C 1313.83,42.4 1322.18,33.416 1332.9,32.246 C 1332.9,32.246 1332.92,57.981 1332.9,60.849 C 1332.92,66.223 1328.25,70.857 1322.88,70.854 L 1313.65,70.854 L 1313.65,70.853 M 564.005,53.069 L 564.0,53.968 L 564.0,87.452 L 598.326,87.452 L 598.962,87.447 C 619.899,87.117 636.81,70.491 637.149,49.905 L 637.154,49.274 L 637.154,-3.0 L 636.726,-2.995 C 623.158,-2.779 611.369,4.629 605.128,15.521 L 602.828,15.522 L 602.192,15.527 C 581.255,15.857 564.345,32.483 564.005,53.069 L 564.005,53.069 M 580.881,70.853 L 580.881,53.7 L 580.884,53.36 C 581.056,42.4 589.524,33.416 600.394,32.246 C 600.394,32.246 600.414,57.981 600.394,60.849 C 600.414,66.223 595.678,70.857 590.235,70.854 L 580.881,70.854 L 580.881,70.853 M 711.005,53.069 L 711.0,53.968 L 711.0,87.452 L 745.326,87.452 L 745.962,87.447 C 766.899,87.117 783.81,70.491 784.149,49.905 L 784.154,49.274 L 784.154,-3.0 L 783.726,-2.995 C 770.158,-2.779 758.369,4.629 752.128,15.521 L 749.828,15.522 L 749.192,15.527 C 728.255,15.857 711.345,32.483 711.005,53.069 L 711.005,53.069 M 727.881,70.853 L 727.881,53.7 L 727.884,53.36 C 728.056,42.4 736.524,33.416 747.394,32.246 C 747.394,32.246 747.414,57.981 747.394,60.849 C 747.414,66.223 742.678,70.857 737.235,70.854 L 727.881,70.854 L 727.881,70.853 M -20.995,53.069 L -21.0,53.968 L -21.0,87.452 L 12.862,87.452 L 13.489,87.447 C 34.144,87.117 50.826,70.491 51.16,49.905 L 51.166,49.274 L 51.166,-3.0 L 50.743,-2.995 C 37.36,-2.78 25.73,4.629 19.573,15.52 L 17.303,15.521 L 16.676,15.526 C -3.978,15.856 -20.66,32.482 -20.994,53.068 L -20.995,53.069 M -4.347,70.853 L -4.347,53.7 L -4.344,53.36 C -4.174,42.4 4.179,33.416 14.902,32.246 C 14.902,32.246 14.922,57.981 14.902,60.849 C 14.922,66.223 10.25,70.857 4.881,70.854 L -4.347,70.854 L -4.347,70.853 M 126.005,53.069 L 126.0,53.968 L 126.0,87.452 L 159.398,87.452 L 160.017,87.447 C 180.388,87.117 196.842,70.491 197.172,49.905 L 197.177,49.274 L 197.177,-3.0 L 196.761,-2.995 C 183.56,-2.779 172.089,4.629 166.017,15.521 L 163.779,15.522 L 163.16,15.527 C 142.789,15.857 126.335,32.483 126.005,53.069 M 142.425,70.853 L 142.425,53.7 L 142.428,53.36 C 142.595,42.4 150.834,33.416 161.41,32.246 C 161.41,32.246 161.429,57.981 161.41,60.849 C 161.429,66.223 156.822,70.857 151.526,70.854 L 142.425,70.854 L 142.425,70.853 M 272.005,53.069 L 272.0,53.968 L 272.0,87.452 L 305.862,87.452 L 306.489,87.447 C 327.144,87.117 343.826,70.491 344.16,49.905 L 344.166,49.274 L 344.166,-3.0 L 343.743,-2.995 C 330.359,-2.779 318.729,4.629 312.572,15.521 L 310.303,15.522 L 309.676,15.527 C 289.022,15.857 272.34,32.483 272.005,53.069 M 288.653,70.853 L 288.653,53.7 L 288.656,53.36 C 288.826,42.4 297.179,33.416 307.902,32.246 C 307.902,32.246 307.921,57.981 307.902,60.849 C 307.921,66.223 303.25,70.857 297.881,70.854 L 288.653,70.854 L 288.653,70.853 M 419.005,53.069 L 419.0,53.968 L 419.0,87.452 L 452.398,87.452 L 453.017,87.447 C 473.388,87.117 489.842,70.491 490.172,49.905 L 490.177,49.274 L 490.177,-3.0 L 489.761,-2.995 C 476.56,-2.779 465.089,4.629 459.017,15.521 L 456.779,15.522 L 456.16,15.527 C 435.789,15.857 419.335,32.483 419.005,53.069 M 435.425,70.853 L 435.425,53.7 L 435.428,53.36 C 435.595,42.4 443.834,33.416 454.41,32.246 C 454.41,32.246 454.429,57.981 454.41,60.849 C 454.429,66.223 449.822,70.857 444.526,70.854 L 435.425,70.854 L 435.425,70.853" clip-rule="evenodd"/>
		<path fill="#fff" fill-rule="evenodd" d="M 1013.0,211.778 L 1013.01,210.677 C 1013.42,185.448 1033.86,165.073 1059.17,164.668 L 1059.94,164.662 L 1062.72,164.661 C 1070.27,151.313 1084.52,142.234 1100.92,141.969 L 1101.44,141.963 L 1101.44,206.025 L 1101.43,206.799 C 1101.02,232.028 1080.58,252.403 1055.27,252.807 L 1054.5,252.814 L 1013.0,252.814 L 1013.0,211.778 M 1033.41,211.45 L 1033.41,232.472 L 1044.72,232.472 C 1051.3,232.476 1057.02,226.796 1057.0,220.211 C 1057.02,216.696 1057.0,185.157 1057.0,185.157 C 1043.86,186.591 1033.62,197.601 1033.41,211.034 L 1033.41,211.45 M 1156.08,230.232 C 1152.94,233.857 1148.27,236.052 1141.89,236.052 C 1129.42,236.052 1119.14,225.08 1119.14,210.865 C 1119.14,196.649 1129.42,185.677 1141.89,185.677 C 1148.27,185.677 1152.94,187.872 1156.08,191.497 L 1156.08,167.932 L 1170.36,167.932 L 1170.36,234.716 L 1156.08,234.716 L 1156.08,230.232 M 1133.42,210.865 C 1133.42,218.02 1138.18,222.504 1144.75,222.504 C 1151.32,222.504 1156.08,218.02 1156.08,210.865 C 1156.08,203.709 1151.32,199.225 1144.75,199.225 C 1138.18,199.225 1133.42,203.709 1133.42,210.865 M 1188.33,182.174 C 1192.22,182.174 1195.47,178.931 1195.47,175.056 C 1195.47,171.18 1192.22,167.938 1188.33,167.938 C 1184.44,167.938 1181.19,171.18 1181.19,175.056 C 1181.19,178.931 1184.44,182.174 1188.33,182.174 M 1195.46,187.013 L 1195.46,234.716 L 1181.18,234.716 L 1181.18,187.013 L 1195.46,187.013 M 1222.76,236.052 C 1233.04,236.052 1242.56,231.377 1242.56,220.405 C 1242.56,209.055 1232.88,206.503 1225.96,204.681 C 1222.13,203.67 1219.14,202.883 1219.14,200.942 C 1219.14,199.225 1220.67,198.271 1223.14,198.271 C 1226.28,198.271 1228.19,199.988 1229.52,202.469 L 1241.71,195.886 C 1237.71,189.112 1230.85,185.677 1223.14,185.677 C 1213.24,185.677 1204.48,190.925 1204.48,201.324 C 1204.48,211.878 1214.06,214.552 1220.96,216.481 C 1224.86,217.568 1227.9,218.418 1227.9,220.31 C 1227.9,222.218 1226.19,223.267 1222.76,223.267 C 1218.57,223.267 1215.91,221.264 1214.67,217.638 L 1202.29,224.699 C 1206.0,232.426 1213.24,236.052 1222.76,236.052 L 1222.76,236.052 M 1263.96,230.232 L 1263.96,253.797 L 1249.67,253.797 L 1249.67,187.013 L 1263.96,187.013 L 1263.96,191.497 C 1267.1,187.872 1271.76,185.677 1278.14,185.677 C 1290.62,185.677 1300.9,196.649 1300.9,210.865 C 1300.9,225.08 1290.62,236.052 1278.14,236.052 C 1271.76,236.052 1267.1,233.857 1263.96,230.232 L 1263.96,230.232 M 1275.29,222.504 C 1268.72,222.504 1263.96,218.02 1263.96,210.865 C 1263.96,203.709 1268.72,199.225 1275.29,199.225 C 1281.86,199.225 1286.62,203.709 1286.62,210.865 C 1286.62,218.02 1281.86,222.504 1275.29,222.504 M 1353.26,226.225 C 1348.6,232.713 1341.55,236.052 1332.51,236.052 C 1316.23,236.052 1306.14,225.08 1306.14,210.865 C 1306.14,196.649 1316.42,185.677 1331.46,185.677 C 1345.36,185.677 1355.65,196.458 1355.65,210.865 C 1355.65,212.868 1355.46,214.776 1355.07,216.589 L 1321.27,216.589 C 1323.08,221.55 1327.46,223.267 1332.7,223.267 C 1336.6,223.267 1339.94,221.741 1341.84,219.642 L 1353.26,226.225 L 1353.26,226.225 M 1341.46,205.903 L 1320.99,205.903 C 1322.32,201.038 1325.94,198.366 1331.37,198.366 C 1335.65,198.366 1339.94,200.37 1341.46,205.903 M 1377.07,208.67 L 1377.07,234.716 L 1362.79,234.716 L 1362.79,187.013 L 1377.07,187.013 L 1377.07,191.497 C 1379.64,187.967 1384.4,185.677 1390.68,185.677 C 1400.3,185.677 1408.49,192.546 1408.49,205.426 L 1408.49,234.716 L 1394.21,234.716 L 1394.21,207.525 C 1394.21,201.61 1390.49,198.843 1385.92,198.843 C 1380.69,198.843 1377.07,201.896 1377.07,208.67 M 1435.91,236.052 C 1446.19,236.052 1455.71,231.377 1455.71,220.405 C 1455.71,209.055 1446.03,206.503 1439.11,204.681 C 1435.27,203.67 1432.29,202.883 1432.29,200.942 C 1432.29,199.225 1433.81,198.271 1436.29,198.271 C 1439.43,198.271 1442.65,198.676 1443.98,201.157 L 1454.86,194.574 C 1450.86,187.8 1444.0,185.677 1436.29,185.677 C 1426.39,185.677 1417.63,190.925 1417.63,201.324 C 1417.63,211.878 1427.2,214.552 1434.11,216.481 C 1438.01,217.568 1441.05,218.418 1441.05,220.31 C 1441.05,222.218 1439.34,223.923 1435.91,223.923 C 1431.72,223.923 1427.74,222.576 1426.5,218.95 L 1415.44,224.699 C 1419.15,232.426 1426.39,236.052 1435.91,236.052 L 1435.91,236.052 M 1507.62,226.225 C 1502.95,232.713 1495.91,236.052 1486.86,236.052 C 1470.58,236.052 1460.49,225.08 1460.49,210.865 C 1460.49,196.649 1470.77,185.677 1485.82,185.677 C 1499.72,185.677 1510.0,196.458 1510.0,210.865 C 1510.0,212.868 1509.81,214.776 1509.43,216.589 L 1475.63,216.589 C 1477.44,221.55 1481.82,223.267 1487.05,223.267 C 1490.96,223.267 1494.29,221.741 1496.19,219.642 L 1507.62,226.225 L 1507.62,226.225 M 1495.81,205.903 L 1475.34,205.903 C 1476.68,201.038 1480.29,198.366 1485.72,198.366 C 1490.01,198.366 1494.29,200.37 1495.81,205.903" clip-rule="evenodd"/>
	</g>
	<defs>
		<linearGradient id="b" x1="0" x2="1584" y1="198" y2="198" gradientUnits="userSpaceOnUse">
			<stop stop-color="#4D32AE"/>
			<stop offset=".615" stop-color="#8665FE"/>
		</linearGradient>
	</defs>
</svg>