<?xml version="1.0" ?>
<svg xmlns="http://www.w3.org/2000/svg" viewBox="0 0 1699 396" fill="none">
	<path fill-rule="evenodd" clip-rule="evenodd" d="M460.567 207.956C436.539 207.956 416.627 225.619 412.512 248.614H297.643C296.491 243.282 294.351 238.45 291.554 234.117L357.381 167.632C365.116 172.631 374.168 175.63 383.877 175.63C410.702 175.63 432.59 153.468 432.59 126.308C432.59 99.1468 410.702 76.985 383.877 76.985C357.052 76.985 335.165 99.1468 335.165 126.308C335.165 137.305 338.785 147.636 344.874 155.801L279.046 222.287C275.261 219.954 271.311 218.288 266.868 217.454V105.812C289.743 101.646 307.188 81.484 307.188 57.3226C307.188 30.1618 285.3 8 258.475 8C231.65 8 209.762 30.1618 209.762 57.3226C209.762 81.6506 227.207 101.813 250.082 105.812V217.454C245.145 218.621 240.537 220.62 236.423 223.286L168.949 155.301C174.874 147.136 178.33 137.139 178.33 126.308C178.33 99.1468 156.442 76.985 129.617 76.985C102.792 76.985 80.7398 99.1468 80.7398 126.308C80.7398 153.468 102.628 175.63 129.452 175.63C139.491 175.63 148.872 172.631 156.606 167.299L224.245 235.784C221.776 239.616 219.966 243.949 218.978 248.614H104.767C100.653 225.453 80.7398 207.956 56.7126 207.956C29.8878 207.956 8 230.118 8 257.279C8 284.44 29.8878 306.602 56.7126 306.602C80.7398 306.602 100.653 288.939 104.767 265.944H219.143C220.13 270.443 221.776 274.442 223.915 278.274L203.509 298.77C195.445 292.938 185.571 289.272 174.874 289.272C148.049 289.272 126.161 311.434 126.161 338.595C126.161 365.755 148.049 387.917 174.874 387.917C201.699 387.917 223.586 365.755 223.586 338.595C223.586 328.43 220.459 318.932 215.193 311.101L235.271 290.772C241.689 295.271 249.588 297.937 257.981 297.937C265.716 297.937 273.122 295.604 279.211 291.772L297.643 310.434C292.047 318.432 288.756 328.097 288.756 338.595C288.756 365.755 310.644 387.917 337.468 387.917C364.293 387.917 386.181 365.755 386.181 338.595C386.181 311.434 364.293 289.272 337.468 289.272C327.101 289.272 317.556 292.605 309.656 298.27L291.389 279.774C294.187 275.608 296.161 270.943 297.149 265.944H412.019C416.133 289.105 436.046 306.602 460.073 306.602C486.898 306.602 508.786 284.44 508.786 257.279C509.444 230.118 487.556 207.956 460.567 207.956ZM384.206 94.4812C401.651 94.4812 415.639 108.811 415.639 126.308C415.639 143.97 401.486 158.134 384.206 158.134C366.762 158.134 352.773 143.804 352.773 126.308C352.609 108.811 366.762 94.4812 384.206 94.4812ZM226.549 57.8225C226.549 40.1597 240.702 25.9961 257.981 25.9961C275.426 25.9961 289.414 40.3263 289.414 57.8225C289.414 75.4853 275.261 89.6489 257.981 89.6489C240.702 89.6489 226.549 75.3187 226.549 57.8225ZM98.0196 126.308C98.0196 108.645 112.173 94.4812 129.452 94.4812C146.897 94.4812 161.05 108.811 161.05 126.308C161.05 143.97 146.897 158.134 129.617 158.134C112.173 158.301 98.0196 143.97 98.0196 126.308ZM57.2063 289.605C39.7619 289.605 25.7735 275.275 25.7735 257.612C25.7735 239.949 39.9265 225.786 57.2063 225.786C74.6507 225.786 88.6391 240.116 88.6391 257.612C88.6391 275.275 74.4862 289.605 57.2063 289.605ZM174.874 370.088C157.429 370.088 143.441 355.758 143.441 338.261C143.441 320.599 157.594 306.435 174.874 306.435C192.318 306.435 206.306 320.765 206.306 338.261C206.306 355.758 192.318 370.088 174.874 370.088ZM337.962 306.268C355.407 306.268 369.395 320.599 369.395 338.095C369.395 355.758 355.242 369.921 337.962 369.921C320.518 369.921 306.529 355.591 306.529 338.095C306.365 320.599 320.518 306.268 337.962 306.268ZM460.237 289.605C442.793 289.605 428.805 275.275 428.805 257.612C428.805 239.949 442.958 225.786 460.237 225.786C477.682 225.786 491.67 240.116 491.67 257.612C491.67 275.275 477.517 289.605 460.237 289.605Z" fill="#4D8062"/>
	<path fill-rule="evenodd" clip-rule="evenodd" d="M360.773 126.27V126.308C360.773 139.507 371.301 150.134 384.206 150.134C397.001 150.134 407.639 139.619 407.639 126.308C407.639 113.108 397.112 102.481 384.206 102.481C371.233 102.481 360.65 113.161 360.773 126.232L360.773 126.27ZM129.579 150.134H129.617C142.412 150.134 153.05 139.619 153.05 126.308C153.05 113.163 142.412 102.481 129.452 102.481C116.657 102.481 106.02 112.996 106.02 126.308C106.02 139.662 116.683 150.257 129.541 150.134L129.579 150.134ZM314.529 338.057V338.095C314.529 351.294 325.057 361.921 337.962 361.921C350.757 361.921 361.395 351.406 361.395 338.095C361.395 324.895 350.868 314.268 337.962 314.268C324.989 314.268 314.406 324.948 314.529 338.02L314.529 338.057ZM406.223 240.614C413.327 217.242 434.858 199.956 460.567 199.956C491.982 199.956 517.499 225.73 516.785 257.376C516.734 288.817 491.378 314.602 460.073 314.602C434.375 314.602 412.816 297.46 405.718 273.944H303.223C302.674 275.487 302.044 276.995 301.338 278.462L310.844 288.088C318.767 283.75 327.812 281.272 337.469 281.272C368.805 281.272 394.181 307.11 394.181 338.595C394.181 370.079 368.805 395.917 337.469 395.917C306.132 395.917 280.756 370.079 280.756 338.595C280.756 328.808 283.222 319.634 287.546 311.596L277.713 301.639C271.706 304.361 264.971 305.937 257.981 305.937C250.327 305.937 243.018 304.094 236.567 300.844L225.209 312.345C229.263 320.2 231.586 329.149 231.586 338.595C231.586 370.079 206.21 395.917 174.874 395.917C143.537 395.917 118.161 370.079 118.161 338.595C118.161 307.11 143.537 281.272 174.874 281.272C184.922 281.272 194.285 284.029 202.378 288.567L214.22 276.673C213.84 275.781 213.481 274.872 213.146 273.944H111.057C103.952 297.316 82.421 314.602 56.7126 314.602C25.3759 314.602 0 288.764 0 257.279C0 225.794 25.3759 199.956 56.7126 199.956C82.4108 199.956 103.969 217.099 111.067 240.614H212.97C213.396 239.446 213.867 238.301 214.381 237.181L155.324 177.385C147.534 181.429 138.709 183.63 129.452 183.63C98.1157 183.63 72.7398 157.792 72.7398 126.308C72.7398 94.7874 98.3152 68.985 129.617 68.985C160.954 68.985 186.33 94.8227 186.33 126.308C186.33 136.417 183.729 145.924 179.125 154.198L237.828 213.346C239.212 212.683 240.631 212.079 242.082 211.538V112.114C218.731 105.023 201.762 83.1606 201.762 57.3226C201.762 25.8377 227.138 0 258.475 0C289.812 0 315.188 25.8377 315.188 57.3226C315.188 83.0475 298.185 104.865 274.868 112.076V211.379C275.772 211.709 276.657 212.066 277.527 212.451L334.654 154.753C329.885 146.359 327.165 136.576 327.165 126.308C327.165 94.8227 352.54 68.985 383.877 68.985C415.214 68.985 440.59 94.8227 440.59 126.308C440.59 157.792 415.214 183.63 383.877 183.63C374.835 183.63 366.329 181.41 358.753 177.617L301.482 235.46C302.29 237.119 303.019 238.837 303.656 240.614H406.223ZM412.512 248.614C416.627 225.619 436.539 207.956 460.567 207.956C487.556 207.956 509.444 230.118 508.786 257.279C508.786 284.44 486.898 306.602 460.073 306.602C436.046 306.602 416.133 289.105 412.019 265.944H297.149C296.162 270.943 294.187 275.608 291.389 279.774L309.656 298.27C317.556 292.605 327.101 289.272 337.469 289.272C364.293 289.272 386.181 311.434 386.181 338.595C386.181 365.755 364.293 387.917 337.469 387.917C310.644 387.917 288.756 365.755 288.756 338.595C288.756 328.097 292.047 318.432 297.643 310.434L279.211 291.772C273.122 295.604 265.716 297.937 257.981 297.937C249.588 297.937 241.689 295.271 235.271 290.772L215.193 311.101C220.459 318.932 223.586 328.43 223.586 338.595C223.586 365.755 201.699 387.917 174.874 387.917C148.049 387.917 126.161 365.755 126.161 338.595C126.161 311.434 148.049 289.272 174.874 289.272C185.571 289.272 195.445 292.938 203.509 298.77L223.915 278.274C221.776 274.442 220.13 270.443 219.143 265.944H104.767C100.653 288.939 80.7398 306.602 56.7126 306.602C29.8878 306.602 8 284.44 8 257.279C8 230.118 29.8878 207.956 56.7126 207.956C80.7398 207.956 100.653 225.453 104.767 248.614H218.978C219.966 243.949 221.776 239.616 224.245 235.784L156.606 167.299C148.872 172.631 139.491 175.63 129.452 175.63C102.628 175.63 80.7398 153.468 80.7398 126.308C80.7398 99.1468 102.792 76.985 129.617 76.985C156.442 76.985 178.33 99.1468 178.33 126.308C178.33 137.139 174.874 147.136 168.949 155.301L236.423 223.286C240.537 220.62 245.145 218.621 250.082 217.454V105.812C227.207 101.813 209.762 81.6506 209.762 57.3226C209.762 30.1618 231.65 8 258.475 8C285.3 8 307.188 30.1618 307.188 57.3226C307.188 81.484 289.743 101.646 266.868 105.812V217.454C271.311 218.288 275.261 219.954 279.046 222.287L344.874 155.801C338.785 147.636 335.165 137.305 335.165 126.308C335.165 99.1468 357.052 76.985 383.877 76.985C410.702 76.985 432.59 99.1468 432.59 126.308C432.59 153.468 410.702 175.63 383.877 175.63C374.168 175.63 365.116 172.631 357.381 167.632L291.554 234.117C294.351 238.45 296.491 243.282 297.643 248.614H412.512ZM352.773 126.308C352.773 143.804 366.762 158.134 384.206 158.134C401.486 158.134 415.639 143.97 415.639 126.308C415.639 108.811 401.651 94.4812 384.206 94.4812C366.762 94.4812 352.609 108.811 352.773 126.308ZM257.981 33.9961C245.186 33.9961 234.549 44.5112 234.549 57.8225C234.549 70.9945 245.213 81.6489 257.981 81.6489C270.776 81.6489 281.414 71.1337 281.414 57.8225C281.414 44.623 270.887 33.9961 257.981 33.9961ZM33.7735 257.612C33.7735 271.006 44.3278 281.605 57.2063 281.605C69.9473 281.605 80.6391 270.978 80.6391 257.612C80.6391 244.413 70.1118 233.786 57.2063 233.786C44.4112 233.786 33.7735 244.301 33.7735 257.612ZM151.441 338.261C151.441 351.461 161.968 362.088 174.874 362.088C187.779 362.088 198.306 351.461 198.306 338.261C198.306 325.062 187.779 314.435 174.874 314.435C162.079 314.435 151.441 324.95 151.441 338.261ZM306.529 338.095C306.529 355.591 320.518 369.921 337.962 369.921C355.242 369.921 369.395 355.758 369.395 338.095C369.395 320.599 355.407 306.268 337.962 306.268C320.518 306.268 306.365 320.599 306.529 338.095ZM436.805 257.612C436.805 271.006 447.359 281.605 460.237 281.605C472.978 281.605 483.67 270.978 483.67 257.612C483.67 244.413 473.143 233.786 460.237 233.786C447.442 233.786 436.805 244.301 436.805 257.612ZM257.981 25.9961C240.702 25.9961 226.549 40.1597 226.549 57.8225C226.549 75.3187 240.702 89.6489 257.981 89.6489C275.261 89.6489 289.414 75.4853 289.414 57.8225C289.414 40.3263 275.426 25.9961 257.981 25.9961ZM129.452 94.4812C112.173 94.4812 98.0196 108.645 98.0196 126.308C98.0196 143.97 112.173 158.301 129.617 158.134C146.897 158.134 161.05 143.97 161.05 126.308C161.05 108.811 146.897 94.4812 129.452 94.4812ZM25.7735 257.612C25.7735 275.275 39.7619 289.605 57.2063 289.605C74.4862 289.605 88.6391 275.275 88.6391 257.612C88.6391 240.116 74.6507 225.786 57.2063 225.786C39.9265 225.786 25.7735 239.949 25.7735 257.612ZM143.441 338.261C143.441 355.758 157.429 370.088 174.874 370.088C192.318 370.088 206.306 355.758 206.306 338.261C206.306 320.765 192.318 306.435 174.874 306.435C157.594 306.435 143.441 320.599 143.441 338.261ZM428.805 257.612C428.805 275.275 442.793 289.605 460.237 289.605C477.517 289.605 491.67 275.275 491.67 257.612C491.67 240.116 477.682 225.786 460.237 225.786C442.958 225.786 428.805 239.949 428.805 257.612Z" fill="white"/>
	<path d="M1648.25 139.504V237.313C1648.25 272.031 1628.28 298.537 1594.27 299.284C1565.8 299.284 1548.43 280.991 1548.43 251.126V139.504H1505.9V263.072C1505.9 310.483 1532.89 339.603 1578 339.603C1610.17 339.228 1634.94 326.91 1648.25 299.284V338.109H1690.77V139.504H1648.25ZM1398.14 179.075V139.504H1355.62V338.109H1398.14V234.326C1401.47 200.354 1426.61 176.835 1466.16 179.075V138.01C1435.11 138.01 1411.45 152.197 1398.14 179.075ZM1294.44 292.564C1282.97 298.165 1273.73 301.151 1264.86 301.151C1251.55 301.151 1243.79 294.804 1243.79 274.271V179.075H1301.83V146.97H1243.79V92.4653H1201.64V146.97H1173.91V179.075H1201.64V282.111C1201.64 322.803 1227.15 339.975 1256.73 339.975C1273.36 339.975 1289.63 334.749 1305.16 325.417L1294.44 292.564ZM1121.23 189.528L1136.75 157.796C1119.01 145.103 1092.76 137.637 1067.99 137.637C1030.28 137.637 995.526 154.809 995.526 195.128C995.157 266.805 1098.67 244.032 1098.67 284.724C1098.67 299.658 1084.63 306.003 1066.51 306.003C1045.07 306.003 1017.71 296.671 1000.7 281.365L985.544 311.976C1005.14 329.897 1035.82 339.603 1064.66 339.603C1104.22 339.603 1140.08 321.31 1140.08 280.618C1140.45 208.567 1035.82 228.353 1035.82 191.768C1035.82 177.582 1048.02 171.983 1064.66 171.983C1082.04 171.983 1103.85 178.702 1121.23 189.528ZM893.117 139.504V338.109H935.264V139.504H893.117ZM914.191 57C900.142 57 889.42 67.8263 889.42 82.7591C889.42 97.3185 900.142 108.145 914.191 108.145C928.238 108.145 938.961 97.3185 938.961 82.7591C938.961 67.8263 928.238 57 914.191 57ZM714.548 304.137C678.687 304.137 654.286 277.258 653.916 239.553C654.286 201.475 679.056 174.223 714.548 174.223C750.04 174.223 774.811 201.101 774.811 239.553C774.811 277.258 750.04 304.137 714.548 304.137ZM774.811 61.1066V173.849C760.392 150.704 736.731 137.637 704.936 137.637C649.48 137.637 611.4 178.328 611.4 238.059C611.4 298.537 649.11 339.975 705.675 339.975C737.1 339.975 760.762 327.283 774.811 304.137V338.109H817.327V61.1066H774.811Z" fill="#4D8062"/>
	<path fill-rule="evenodd" clip-rule="evenodd" d="M1640.25 139.504C1640.25 135.086 1643.83 131.504 1648.25 131.504H1690.77C1695.18 131.504 1698.77 135.086 1698.77 139.504V338.109C1698.77 342.528 1695.18 346.109 1690.77 346.109H1648.25C1643.83 346.109 1640.25 342.528 1640.25 338.109V324.501C1624.57 340.189 1603.01 347.312 1578.09 347.602C1578.06 347.602 1578.03 347.603 1578 347.603C1553.67 347.603 1533.37 339.699 1519.2 324.589C1505.09 309.544 1497.9 288.264 1497.9 263.072V139.504C1497.9 135.086 1501.48 131.504 1505.9 131.504H1548.43C1552.85 131.504 1556.43 135.086 1556.43 139.504V251.126C1556.43 264.528 1560.31 274.411 1566.47 280.891C1572.57 287.307 1581.75 291.265 1594.18 291.284C1608.93 290.938 1620.19 285.102 1627.88 275.907C1635.69 266.562 1640.25 253.19 1640.25 237.313V139.504ZM1640.25 312.373C1643.25 308.465 1645.93 304.107 1648.25 299.284V338.109H1690.77V139.504H1648.25V237.313C1648.25 272.031 1628.28 298.537 1594.27 299.284C1565.8 299.284 1548.43 280.991 1548.43 251.126V139.504H1505.9V263.072C1505.9 310.483 1532.89 339.603 1578 339.603C1604.55 339.294 1626.06 330.848 1640.25 312.373ZM1458.16 178.975C1423.23 180.139 1401.24 202.704 1398.14 234.326V338.109H1355.62V139.504H1398.14V179.075C1400.49 174.33 1403.16 169.981 1406.14 166.035C1418.55 149.591 1436.29 140.159 1458.16 138.337C1460.77 138.119 1463.44 138.01 1466.16 138.01V179.075C1463.43 178.92 1460.76 178.888 1458.16 178.975ZM1406.14 153.743V139.504C1406.14 135.086 1402.56 131.504 1398.14 131.504H1355.62C1351.2 131.504 1347.62 135.086 1347.62 139.504V338.109C1347.62 342.528 1351.2 346.109 1355.62 346.109H1398.14C1402.56 346.109 1406.14 342.528 1406.14 338.109V234.728C1407.69 219.715 1413.95 207.495 1423.73 199.23C1433.58 190.905 1447.65 186.039 1465.71 187.062C1467.91 187.187 1470.06 186.401 1471.66 184.89C1473.26 183.378 1474.16 181.275 1474.16 179.075V138.01C1474.16 133.592 1470.58 130.01 1466.16 130.01C1441.8 130.01 1421.24 138.141 1406.14 153.743ZM1297.55 285.197C1299.69 286.099 1301.32 287.881 1302.04 290.082L1312.76 322.935C1313.92 326.479 1312.47 330.353 1309.28 332.274C1292.77 342.197 1275.09 347.975 1256.73 347.975C1240.45 347.975 1224.55 343.244 1212.64 332.158C1200.62 320.967 1193.64 304.199 1193.64 282.111V187.075H1173.91C1169.49 187.075 1165.91 183.493 1165.91 179.075V146.97C1165.91 142.552 1169.49 138.97 1173.91 138.97H1193.64V92.4653C1193.64 88.047 1197.22 84.4653 1201.64 84.4653H1243.79C1248.2 84.4653 1251.79 88.047 1251.79 92.4653V138.97H1301.83C1306.25 138.97 1309.83 142.552 1309.83 146.97V179.075C1309.83 183.493 1306.25 187.075 1301.83 187.075H1251.79V274.271C1251.79 283.827 1253.65 288.18 1255.37 290.167C1256.84 291.858 1259.37 293.151 1264.86 293.151C1271.92 293.151 1279.86 290.783 1290.92 285.376C1293 284.36 1295.42 284.294 1297.55 285.197ZM1305.16 325.417C1289.63 334.749 1273.36 339.975 1256.73 339.975C1227.15 339.975 1201.64 322.803 1201.64 282.111V179.075H1173.91V146.97H1201.64V92.4653H1243.79V146.97H1301.83V179.075H1243.79V274.271C1243.79 294.804 1251.55 301.151 1264.86 301.151C1271.76 301.151 1278.89 299.343 1287.11 295.903C1289.46 294.922 1291.89 293.807 1294.44 292.564L1305.16 325.417ZM1123.43 197.218C1121.26 197.842 1118.92 197.515 1117 196.318C1100.68 186.152 1080.31 179.983 1064.66 179.983C1057.02 179.983 1051.53 181.308 1048.21 183.359C1045.44 185.073 1043.82 187.444 1043.82 191.768C1043.82 195.89 1046.28 199.529 1055.45 203.659C1059.87 205.65 1065.19 207.436 1071.27 209.317C1073.17 209.905 1075.17 210.507 1077.21 211.125C1081.54 212.432 1086.12 213.814 1090.6 215.298C1103.86 219.679 1118.26 225.524 1129.32 235.558C1140.76 245.931 1148.18 260.367 1148.08 280.635C1148.08 303.706 1137.73 320.854 1121.77 331.941C1106.13 342.802 1085.52 347.603 1064.66 347.603C1034.34 347.603 1001.55 337.46 980.145 317.88C977.515 315.475 976.793 311.62 978.374 308.426L993.532 277.815C994.643 275.572 996.739 273.978 999.198 273.507C1001.66 273.037 1004.19 273.744 1006.05 275.418C1021.45 289.277 1046.85 298.003 1066.51 298.003C1074.83 298.003 1081.24 296.513 1085.28 294.097C1088.85 291.961 1090.67 289.137 1090.67 284.724C1090.67 281.529 1089.73 279.235 1088.07 277.238C1086.26 275.054 1083.34 272.935 1079.01 270.834C1072.65 267.748 1064.97 265.427 1056.17 262.77C1052.47 261.653 1048.58 260.476 1044.5 259.157C1031.45 254.937 1017.16 249.386 1006.17 239.623C994.78 229.497 987.428 215.283 987.526 195.111C987.531 172.284 997.547 155.49 1013.04 144.698C1028.2 134.146 1048.08 129.637 1067.99 129.637C1094.11 129.637 1122.07 137.454 1141.41 151.289C1144.59 153.563 1145.66 157.801 1143.94 161.312L1128.41 193.044C1127.42 195.077 1125.61 196.594 1123.43 197.218ZM995.526 195.128C995.526 154.809 1030.28 137.637 1067.99 137.637C1092.76 137.637 1119.01 145.103 1136.75 157.796L1121.23 189.528C1118.98 188.126 1116.65 186.793 1114.27 185.535C1098.28 177.075 1079.79 171.983 1064.66 171.983C1048.02 171.983 1035.82 177.582 1035.82 191.768C1035.82 206.984 1053.92 212.449 1075.04 218.825C1104.69 227.781 1140.3 238.533 1140.08 280.618C1140.08 321.31 1104.22 339.603 1064.66 339.603C1035.82 339.603 1005.14 329.897 985.544 311.976L1000.7 281.365C1002.7 283.16 1004.83 284.873 1007.09 286.499C1024.04 298.732 1047.58 306.003 1066.51 306.003C1084.63 306.003 1098.67 299.658 1098.67 284.724C1098.67 267.246 1079.58 261.477 1057.82 254.903C1028.92 246.171 995.315 236.019 995.526 195.128ZM885.117 139.504C885.117 135.086 888.698 131.504 893.117 131.504H935.264C939.682 131.504 943.264 135.086 943.264 139.504V338.109C943.264 342.528 939.682 346.109 935.264 346.109H893.117C888.698 346.109 885.117 342.528 885.117 338.109V139.504ZM766.811 61.1066C766.811 56.6883 770.393 53.1066 774.811 53.1066H817.327C821.745 53.1066 825.327 56.6883 825.327 61.1066V338.109C825.327 342.528 821.745 346.109 817.327 346.109H774.811C770.393 346.109 766.811 342.528 766.811 338.109V326.42C751.278 340.551 730.456 347.975 705.675 347.975C675.338 347.975 649.572 336.809 631.44 317.115C613.362 297.48 603.4 269.956 603.4 238.059C603.4 206.487 613.485 179.331 631.522 159.993C649.6 140.61 675.161 129.637 704.936 129.637C730.177 129.637 751.124 137.371 766.811 151.712V61.1066ZM774.811 173.849C772.401 169.98 769.732 166.393 766.811 163.101C752.255 146.7 731.416 137.637 704.936 137.637C649.48 137.637 611.4 178.328 611.4 238.059C611.4 298.537 649.11 339.975 705.675 339.975C731.751 339.975 752.482 331.236 766.811 315.036C769.75 311.713 772.42 308.077 774.811 304.137V338.109H817.327V61.1066H774.811V173.849ZM893.117 338.109V139.504H935.264V338.109H893.117ZM881.42 82.7591C881.42 63.6382 895.497 49 914.191 49C932.884 49 946.961 63.6385 946.961 82.7591C946.961 101.585 932.807 116.145 914.191 116.145C895.573 116.145 881.42 101.585 881.42 82.7591ZM676.782 280.537C685.819 290.258 698.722 296.137 714.548 296.137C730.176 296.137 743.084 290.267 752.13 280.537C761.216 270.764 766.811 256.644 766.811 239.553C766.811 222.049 761.192 207.742 752.108 197.892C743.068 188.09 730.173 182.223 714.548 182.223C684.129 182.223 662.283 205.212 661.916 239.552C662.101 256.663 667.708 270.777 676.782 280.537ZM653.916 239.553C654.286 277.258 678.687 304.137 714.548 304.137C750.04 304.137 774.811 277.258 774.811 239.553C774.811 201.101 750.04 174.223 714.548 174.223C679.056 174.223 654.286 201.475 653.916 239.553ZM889.42 82.7591C889.42 67.8263 900.142 57 914.191 57C928.238 57 938.961 67.8263 938.961 82.7591C938.961 97.3185 928.238 108.145 914.191 108.145C900.142 108.145 889.42 97.3185 889.42 82.7591Z" fill="white"/>
</svg>