<?xml version="1.0" ?>
<svg xmlns="http://www.w3.org/2000/svg" viewBox="0 0 46.91 46.91">
	<defs>
		<style>.cls-1{isolation:isolate;}.cls-2{fill:#50c266;}.cls-3{opacity:0.16;}.cls-4{mix-blend-mode:multiply;}.cls-5{fill:#fff;}</style>
	</defs>
	<g class="cls-1">
		<g id="Layer_2" data-name="Layer 2">
			<g id="Layer_1-2" data-name="Layer 1">
				<path class="cls-2" d="M 23.45,0.0 A 23.46,23.46 0.0 1,0 46.91,23.45 A 23.45,23.45 0.0 0,0 23.45,0.0"/>
				<g class="cls-3">
					<path class="cls-4" d="M 46.9,23.72 L 37.2,12.35 L 28.56,19.72 L 27.11,18.0 L 18.77,25.12 L 18.6,26.81 L 16.75,24.64 L 8.39,32.34 L 20.66,46.74 A 23.42,23.42 0.0 0,0 46.9,23.74 L 46.9,23.72"/>
				</g>
				<path class="cls-5" d="M 16.4,27.3 A 5.6,5.6 0.0 0,1 11.21,32.17 L 8.4,32.36 L 8.75,29.72 A 5.6,5.6 0.0 0,1 14.0,24.85 L 16.81,24.66 L 16.4,27.3"/>
				<path class="cls-5" d="M 20.58,32.11 L 17.77,32.29 L 19.11,23.08 A 5.62,5.62 0.0 0,1 24.31,18.21 L 27.12,18.0 L 25.78,27.22 A 5.63,5.63 0.0 0,1 20.58,32.11"/>
				<path class="cls-5" d="M 35.12,27.17 A 5.62,5.62 0.0 0,1 29.92,32.0 L 27.11,32.19 L 29.19,17.37 A 5.62,5.62 0.0 0,1 34.39,12.5 L 37.2,12.31 L 35.12,27.17"/>
			</g>
		</g>
	</g>
</svg>