<svg xmlns="http://www.w3.org/2000/svg" data-name="Layer 1" viewBox="0 0 201 201"><circle cx="100.5" cy="100.5" r="100.5" style="fill:#16425b"/><path d="M79.39 43.42h51.14c15.7 0 28.42 12.73 28.42 28.42 0 11.95-2.86 23.73-8.34 34.35-2.07 4.01-7.87 3.78-9.62-.38l-.35-.84a24.344 24.344 0 0 0-22.46-14.93h-38.8c-4.26 0-7.72-3.46-7.72-7.72V51.15c0-4.26 3.46-7.72 7.72-7.72Z" style="fill:#00f5d4"/><path d="M121.61 157.58H70.47c-15.7 0-28.42-12.73-28.42-28.42 0-11.95 2.86-23.73 8.34-34.35 2.07-4.01 7.87-3.78 9.62.38l.35.84a24.344 24.344 0 0 0 22.46 14.93h38.8c4.26 0 7.72 3.46 7.72 7.72v31.17c0 4.26-3.46 7.72-7.72 7.72Z" style="fill:#c4f42a"/></svg>