<?xml version="1.0" ?>
<svg xmlns="http://www.w3.org/2000/svg" version="1.2" viewBox="0 0 1551 409">
	<defs>
		<clipPath clipPathUnits="userSpaceOnUse" id="cp1">
			<path d="m-1107.98-5140.37h4589.63v6002.87h-4589.63z"/>
		</clipPath>
	</defs>
	<style>
		.s0 { fill: #000000 } 
	</style>
	<g id="Clip-Path: Page 1" clip-path="url(#cp1)">
		<g id="Page 1">
			<path id="Path 3" fill-rule="evenodd" class="s0" d="m183.4 289.2l10.4-2.7-7.4 7.7c-22.3 24.6-53.9 38.9-87.1 38.9h-24.6c-15 0-27.4-12.4-27.4-27.8v-223.3h22.4v223.3c0 2.7 2.3 5 5 5h24.6c18.9 0 37-5.3 52.8-15.7l0.4-0.4h1.2c10-0.4 20-2.3 29.7-5zm-113.7-250.3h-22.4v-11.2c0-15 12.4-27.3 27.4-27.3h24.6c33.2 0 64.8 13.8 87.1 38.5q9.7 10.4 16.2 23.1l1.2 1.5c4.2 8.5 7.7 17.4 9.6 26.6l0.4 0.4c1.9 8.8 3.1 18.1 3.1 26.9v99l-0.8 0.8c-5 7.3-11.5 13.1-18.5 18.4l-6.1 4.3 1.1-7.3q1.5-8.5 1.5-17v-98.2q0-8.4-1.5-16.5-1.9-11.6-6.5-22v-0.4q-5.4-11.5-13.1-21.1h-0.4c-5.8-7.3-12.7-13.5-20.5-18.9-15.8-10.4-33.9-15.8-52.8-15.8h-24.6c-2.7 0-5 2.3-5 5zm195.4 114c5.3 49.3-19.7 95.5-62.9 117.8q-12.7 6.6-26.5 10c-8.9 2-18.2 3.1-27.4 3.1h-68.2v-22.3h68.2c13.5 0 27-2.7 39.3-8.5q11.2-5 20.8-13.1c30.1-24.6 42.8-65.1 30.1-104.3-2.7-7.7-6.6-15-11.2-21.6l-0.4-0.8v-0.7q-0.8-15.8-5-30.5l-2.7-9.6 5.8 5.4c21.9 19.7 36.6 45.8 40.1 75.1zm-237.4 108.6h9.2v22.3h-9.2c-15.1 0-27.4-12.3-27.4-27.3v-179.8c0-15.1 12.3-27.4 27.4-27.4h121.7l0.8 0.8c0.8 0.4 13.1 11.2 18.1 18.1l4.3 6.1-7.4-1.1q-8.4-1.5-16.9-1.5h-120.6c-2.7 0-5 2.3-5 5v179.8c0 2.7 2.3 5 5 5zm502.9-95.1c0 66.2-54.4 117.8-119.5 117.8h-86.7v-235.3h86.7c65.5 0 119.5 51.6 119.5 117.5zm-63.6 0c0-42-27.8-65.5-67.1-65.5h-14.2v131.3h13.5c36.6 0 67.8-20 67.8-65.8zm340.3-4.3c0 76.3-54.8 129.8-130.3 129.8-75.1 0-129.9-53.5-129.9-129.8 0-70.8 62.5-120.9 129.9-120.9 67.8 0 130.3 50.1 130.3 120.9zm-63.6 0.4c0-32.3-30.1-62-66.7-62-36.2 0-66.3 29.7-66.3 62 0 40.5 30.1 70.1 66.3 70.1 36.6 0 66.7-29.6 66.7-70.1zm140.6 69.7h73.2v52h-134.4v-235.3h61.2zm154.2 0h62.8l-20.1 52h-103.6v-235.2h60.9zm221.2-182.9l88.6 234.8h-65.1l-15.4-40.8h-84.4l-16.2 40.8h-64.8l90.6-234.8zm-8.5 147l-25-74.7h-0.8l-25 74.7zm299 87.8h-75.9l-57.8-90.5h-0.8v90.5h-60.9v-234.8h91.3c46.3 0 81.7 21.9 81.7 72 0 32.7-18.1 60.4-51.6 66.6zm-85.9-159.1c0-25.4-22.4-29.2-42.4-29.2h-5.8v58.5h5.8c20 0 42.4-3.8 42.4-29.3zm-887.9 258l22.4-57.7 21.9 57.7 22-56.2h10.8l-32.8 81.6-21.9-57.3-22.4 57.3-32.4-81.6h10.4zm86-56.2h42v8.9h-32.4v21.9h31.6v9.2h-31.6v29.7h32.4v8.8h-42z"/>
			<path id="Path 4" fill-rule="evenodd" class="s0" d="m730.2 385.8l-8.9 19.7h-10.4l37.4-81.7 37.4 81.7h-10.4l-8.9-19.7zm18.1-40.8l-14.2 32h28.1zm95.6 60.4h-12l-23.1-33.5h-4.2v33.5h-9.7v-78.5h12q6.9 0 11.5 0.3 5 0.8 9.3 3.1 4.6 2.7 7.3 8.1 2.7 5 2.7 10.8 0 8.5-5 14.6-5.4 6.2-13.9 7.3zm-38.9-41.2h3.1q4.2 0 8.1-0.7 3.4-0.4 6.5-2 2.7-1.5 4.6-4.6 1.6-2.7 1.6-7.3 0-4.2-1.9-7.3-2-2.7-4.7-4.2-3-1.6-6.9-2-3.5-0.3-7.7-0.3h-2.7zm103.3 41.2h-9.7v-69.7h-18.8v-8.9h47v8.9h-18.5zm75.1-46.6v-31.6h10v78.2h-10v-37.4h-37.4v37.4h-9.6v-78.2h9.6v31.6zm26.6-31.6h42.4v8.8h-32.4v22h31.3v8.9h-31.3v29.6h32.4v8.9h-42.4zm146.8 15q-3.8-3.5-9.6-5.4-5.4-2.3-10.8-2.3-6.5 0-12.3 2.7-5.8 2.3-10 6.9-4.3 4.6-6.6 10.4-2.3 5.8-2.3 12.3 0 6.2 2.3 12 2.3 5.7 6.6 10.3 4.2 4.3 10 7 5.4 2.3 11.9 2.3 5.8 0 11.2-1.9 5.4-2 9.6-6.2v11.6q-4.2 2.7-9.6 4.2-5.8 1.5-10.8 1.5-8.5 0-15.8-3-7.3-3.1-13.1-8.9-5.8-5.8-8.8-13.1-3.1-7.3-3.1-15.8 0-8.5 3.1-15.8 3-7.7 8.8-13.4 5.8-5.8 13.5-8.9 7.7-3.1 16.2-3.1 5.4 0 10.4 1.6 5 1.1 9.2 3.8zm60.9 16.6v-31.6h9.7v78.5h-9.7v-37.7h-37.3v37.7h-10.1v-78.5h10.1v31.6zm37.7 27.3l-9.2 19.6h-10.4l37.3-82 37.8 82h-10.8l-8.8-19.6zm18.1-40.8l-13.9 31.9h27.7zm45.9-21.9l59 61.6v-57.8h9.6v81.7l-59-62v58.5h-9.6zm156.8 42.8v3q0 8.1-2.7 15.1-2.7 6.9-7.7 12.3-5 5-11.9 8.1-6.9 2.7-14.7 2.7-8 0-15.4-3.1-7.3-3.1-12.7-8.9-5.8-5.8-8.5-13.1-3-7.7-3-15.4 0-8.4 3-16.1 3.1-7.4 8.5-13.1 5.8-5.8 13.1-8.9 7.7-3.1 15.8-3.1 9.3 0 17.7 3.9 8.5 4.2 14.3 11.1l-6.9 6.6q-4.3-5.8-10.8-9.3-6.6-3.4-13.9-3.4-6.2 0-11.9 2.3-5.8 2.7-10.4 6.9-4.3 4.6-6.6 10.4-2.3 5.8-2.3 12.3 0 5.8 2.3 11.6 2.3 5.8 6.6 10.4 4.2 4.6 10 7.3 5.4 2.7 11.5 2.7 4.7 0 9.3-1.9 4.6-1.6 8.1-5 3.8-3.1 6.1-7.3 2.4-4.3 2.4-9.3h-20.5v-8.8zm12.4-38.9h42.3v8.8h-32.3v22h31.2v9.2h-31.2v29.7h32.3v8.8h-42.3z"/>
		</g>
	</g>
</svg>