<?xml version="1.0" ?>
<svg xmlns="http://www.w3.org/2000/svg" version="1.2" baseProfile="tiny-ps" id="logo" viewBox="0 0 1000 1000">
	<path id="e" d="M883.7,521.8c0.4,10.6,6.5,17.5,17.3,17.5c6.1,0,12.1-2.9,14.4-8.5h23.6c-4.6,17.9-21.1,25.6-38.4,25.6  c-25.2,0-42.3-15.2-42.3-41.1c0-23.6,18.8-40.6,41.7-40.6c27.7,0,41.5,20.8,40.4,47.1H883.7 M915.3,507.8c-0.4-8.6-6.5-15.8-15-15.8  c-9,0-14.8,6.3-16.3,15.8H915.3z M925.3,446.5l-23.4,22.1h-17.9l14.4-22.1H925.3z"/>
	<path id="p" d="M768.4,477.1h24v9h0.4c5-7.3,12.3-11.1,21.3-11.1c24.2,0,34.6,20.8,34.6,42.5c0,20.2-10.8,39.2-32.7,39.2  c-9.6,0-16.9-3.7-22.1-10.6h-0.2v34.2h-25.4V477.1 M792.8,514.9c0,13.6,3.8,22.3,15.4,22.3s15.2-11.7,15.2-22.3  c0-9.8-3.8-20.8-15-20.8C801.5,494.2,792.8,499,792.8,514.9z"/>
	<path id="m" d="M630.6,477.1h24.6v10.6h0.4c4.6-7.7,12.9-12.9,22.1-12.9s18.3,3.1,22.5,12.5c6.1-8.3,13.6-12.5,24-12.5  c24.6,0,27.3,18.6,27.3,33.2v46.1h-25.4v-45.4c0-8.3-4-13.3-10.6-13.3c-10.8,0-11.9,8.3-11.9,20.8v37.9h-25.4v-43.8  c0-9-2.7-14.8-9.6-14.8c-9,0-12.9,5.2-12.9,20.9v37.7h-25.4L630.6,477.1"/>
	<path id="o" d="M576.6,474.8c24,0,40.7,17.7,40.7,40.9c0,23.3-16.9,40.7-40.7,40.7c-23.8,0-40.6-17.5-40.6-40.7  C536.1,492.4,552.6,474.8,576.6,474.8 M576.6,537.2c11.7,0,15.4-11.5,15.4-21.5c0-10-3.7-21.5-15.4-21.5s-15.4,11.7-15.4,21.5  C561.3,525.5,564.9,537.2,576.6,537.2z"/>
	<path id="d" d="M427.9,448h45.7c32.7,0,52.1,19.8,52.1,52.7c0,34.8-19.8,53.6-52.1,53.6h-45.7V448 M455.6,530.5h13.1  c20.9-0.4,29.4-8.6,29.4-30c0-19.4-10.4-28.6-29.4-28.6h-13.1V530.5z"/>
	<polyline id="center" fill="#E40520" points="340.8,580.3 204.4,659.1 67.9,580.3 67.9,422.9 204.4,344.1 340.8,422.9 340.8,580.3   "/>
	<path id="D" fill="#FFFFFF" d="M274.3,454L274.3,454c0-22.3-18.1-40.4-40.4-40.4H134v22.9l0,0c0,6.7,5.6,12.3,12.3,12.3v105.1  c-6.7,0-12.3,5.6-12.3,12.3l0,0v22.9H234c22.3,0,40.4-18.1,40.4-40.4V454L274.3,454 M239.2,543.6c0,5.8-4.6,10.6-10.6,10.6h-47.3  V449h47.3c5.8,0,10.6,4.6,10.6,10.6C239.2,459.6,239.2,543.6,239.2,543.6z"/>
	<path id="outline" d="M204.4,667.1c-0.6,0-1.3-0.2-1.9-0.6L62.4,585.6c-1.2-0.8-1.9-1.9-1.9-3.3V420.7c0-1.3,0.8-2.7,1.9-3.3  l139.9-80.9c1.2-0.8,2.7-0.8,3.8,0l140.1,80.9c1.2,0.8,1.9,1.9,1.9,3.3v161.6c0,1.3-0.8,2.7-1.9,3.3l-139.9,80.9  C205.7,666.9,205,667.1,204.4,667.1z M68.1,580.3l136.1,78.6l136.3-78.6V423.1l-136.3-78.6L68.1,423.1V580.3z M344.5,582.4  L344.5,582.4z"/>
</svg>