<?xml version="1.0" ?>
<svg xmlns="http://www.w3.org/2000/svg" viewBox="0 0 640 77.5">
	<defs>
		<style>.a{fill:#ce0014;}.b{fill:#fff;}</style>
	</defs>
	<path d="M107.07,71.23h0.66a0.49,0.49,0,1,1,0,1h-0.66v-1Zm-0.42,2.71h0.43v-1.4h0.53a0.53,0.53,0,0,1,.67.59,4,4,0,0,0,.15.8h0.44a4.41,4.41,0,0,1-.19-1,0.55,0.55,0,0,0-.46-0.59,0.73,0.73,0,0,0,.57-0.73,0.88,0.88,0,0,0-1.05-.77h-1.09v3.07Zm1-4.38a2.87,2.87,0,1,0,2.87,2.86A2.89,2.89,0,0,0,107.7,69.57Zm0,0.34a2.54,2.54,0,1,1-2.53,2.52A2.53,2.53,0,0,1,107.7,69.91Z"/>
	<path class="a" d="M102.36,9.21c7.12,2.57,11.11,10.91,11.57,29.64-0.45,18.58-5,26-11.57,29.56-13.38,7.5-57.86,13.68-89.8.28C4.41,64.72,1.72,57.43,1,39,1.72,20,5.28,12.18,12.56,9.24,42.58-2.32,73.79-1.15,102.36,9.21Z"/>
	<path d="M131,23.64h22.87v3.71H135.41V37.87h17.21v3.71H135.41V53H154v3.71H131V23.64Z"/>
	<path d="M180.13,56.77h-3.95V53.52h-0.09c-1.3,2.64-4.36,3.81-7.65,3.81-7.37,0-11-5.85-11-12.62S161,32.24,168.35,32.24c2.46,0,6,.92,7.74,3.76h0.09V23.64h3.95V56.77ZM169,53.85c5.28,0,7.33-4.55,7.33-9.05,0-4.73-2.13-9.09-7.56-9.09s-7.19,4.59-7.19,9.28C161.58,49.49,163.9,53.85,169,53.85Z"/>
	<path d="M210,56.77h-4.18L200.91,37.7h-0.09L196,56.77h-4.27l-7.7-24h4.36l5.42,19.62h0.09l4.82-19.62H203l5,19.62h0.09l5.38-19.62h4.08Z"/>
	<path d="M242.62,56.67a5.27,5.27,0,0,1-2.83.65c-2,0-3.33-1.11-3.33-3.71A10.64,10.64,0,0,1,228,57.32c-4.36,0-7.94-1.95-7.94-6.73,0-5.42,4-6.59,8.12-7.37,4.36-.83,8.08-0.55,8.08-3.53,0-3.44-2.83-4-5.33-4-3.34,0-5.8,1-6,4.55H221c0.23-5.94,4.82-8,10.16-8,4.31,0,9,1,9,6.59V51.15c0,1.86,0,2.69,1.26,2.69a3.51,3.51,0,0,0,1.21-.23v3.05h0Zm-6.4-12.28c-1.53,1.11-4.5,1.16-7.14,1.63s-4.82,1.39-4.82,4.31c0,2.6,2.23,3.53,4.64,3.53,5.19,0,7.33-3.24,7.33-5.42v-4h0Z"/>
	<path d="M246.15,32.78h3.71v5.05h0.09c1.9-3.85,4.55-5.76,8.81-5.62V36.4c-6.36,0-8.68,3.62-8.68,9.69V56.76h-3.95v-24h0Z"/>
	<path d="M282.33,56.77h-3.95V53.52h-0.09c-1.3,2.64-4.36,3.81-7.65,3.81-7.37,0-11-5.85-11-12.62s3.62-12.48,10.95-12.48c2.46,0,6,.92,7.74,3.76h0.09V23.64h3.95V56.77ZM271.2,53.85c5.28,0,7.33-4.55,7.33-9.05,0-4.73-2.13-9.09-7.56-9.09s-7.19,4.59-7.19,9.28C263.78,49.49,266.1,53.85,271.2,53.85Z"/>
	<path d="M301.95,23.64h11.36c10.21,0,15.91,5.1,15.91,15.77,0,11.09-4.87,17.35-15.91,17.35H301.95V23.64Zm4.41,29.41h7.33c3,0,11.13-.83,11.13-13,0-7.89-2.92-12.67-11-12.67h-7.42V53.05h0Z"/>
	<path d="M344.31,32.23c7.6,0,11.64,5.52,11.64,12.58s-4,12.53-11.64,12.53-11.64-5.52-11.64-12.53S336.7,32.23,344.31,32.23Zm0,21.62c4.13,0,7.47-3.24,7.47-9.05s-3.34-9.09-7.47-9.09-7.46,3.24-7.46,9.09S340.18,53.85,344.31,53.85Z"/>
	<path d="M360.59,32.78h3.71v3.81h0.09a8.34,8.34,0,0,1,7.79-4.36c6.31,0,8.26,3.62,8.26,8.77V56.77h-3.95V40.53a4.52,4.52,0,0,0-4.87-4.82c-4.78,0-7.1,3.2-7.1,7.51V56.76h-3.95v-24h0Z"/>
	<path d="M417.55,52.64a11.11,11.11,0,0,1-9.37,4.68c-9,0-10.35-6.36-10.35-9.05,0-5.19,3.53-7.79,7.74-10-1.86-2.64-3.67-4.41-3.67-7.79,0-3.62,2.69-6.82,7.47-6.82,4.13,0,8,2.27,8,6.77,0,3.95-3,6.77-6.22,8.58l6,7.28a17.51,17.51,0,0,0,1.06-5.15H422a18.65,18.65,0,0,1-2.23,8.17l6.45,7.47h-5.15Zm-9.78-11.88c-3.1,1.77-5.76,3.53-5.76,7.46,0,3.34,3.1,5.62,6.31,5.62a8.33,8.33,0,0,0,7.05-3.95Zm5.71-10.11a3.82,3.82,0,0,0-7.61,0c0,2,1.76,3.95,3.2,5.76C411,35.19,413.48,33.43,413.48,30.65Z"/>
	<path d="M465.34,33.62c-0.92-4.68-4.68-7.05-9.28-7.05-7.89,0-11.23,6.5-11.23,13.41,0,7.56,3.33,13.87,11.27,13.87,5.8,0,9.14-4.08,9.55-9.55h4.41c-0.83,8.26-6,13.27-14.33,13.27-10.3,0-15.31-7.6-15.31-17.26s5.47-17.44,15.68-17.44c6.91,0,12.62,3.71,13.64,10.76h-4.4Z"/>
	<path d="M485.24,32.23c7.6,0,11.64,5.52,11.64,12.58s-4,12.53-11.64,12.53S473.6,51.81,473.6,44.81,477.63,32.23,485.24,32.23Zm0,21.62c4.13,0,7.47-3.24,7.47-9.05s-3.34-9.09-7.47-9.09-7.46,3.24-7.46,9.09S481.11,53.85,485.24,53.85Z"/>
	<path d="M501.52,32.78h3.71v3.53h0.09a8.82,8.82,0,0,1,7.74-4.08c2.92,0,5.62,1.16,6.59,4.08a8.87,8.87,0,0,1,7.51-4.08c4.78,0,8,2,8,7V56.77h-3.95V41c0-3-.79-5.33-4.64-5.33s-6.26,2.41-6.26,6.13V56.77h-3.95V41c0-3.1-1-5.33-4.5-5.33a6.47,6.47,0,0,0-6.4,6.13V56.77H501.5v-24h0Z"/>
	<path d="M541.24,32.78h3.94V36h0.09c1.3-2.64,4.36-3.81,7.65-3.81,7.37,0,11,5.85,11,12.62S560.34,57.31,553,57.31c-2.46,0-6-.92-7.74-3.76h-0.09V65.94h-3.94V32.78h0Zm11.13,2.92c-5.28,0-7.33,4.55-7.33,9.05,0,4.73,2.13,9.09,7.56,9.09s7.19-4.59,7.19-9.28C559.79,40.06,557.47,35.7,552.37,35.7Z"/>
	<path d="M589.86,56.67a5.27,5.27,0,0,1-2.83.65c-2,0-3.33-1.11-3.33-3.71a10.64,10.64,0,0,1-8.45,3.71c-4.36,0-7.94-1.95-7.94-6.73,0-5.42,4-6.59,8.12-7.37,4.36-.83,8.08-0.55,8.08-3.53,0-3.44-2.83-4-5.33-4-3.34,0-5.8,1-6,4.55h-3.95c0.23-5.94,4.82-8,10.16-8,4.31,0,9,1,9,6.59V51.15c0,1.86,0,2.69,1.26,2.69a3.51,3.51,0,0,0,1.21-.23v3.05h0Zm-6.41-12.28c-1.53,1.11-4.5,1.16-7.14,1.63s-4.82,1.39-4.82,4.31c0,2.6,2.23,3.53,4.64,3.53,5.19,0,7.33-3.24,7.33-5.42v-4h0Z"/>
	<path d="M593.51,32.78h3.71v3.81h0.09a8.34,8.34,0,0,1,7.79-4.36c6.31,0,8.26,3.62,8.26,8.77V56.77h-3.95V40.53a4.52,4.52,0,0,0-4.87-4.82c-4.78,0-7.1,3.2-7.1,7.51V56.76h-3.95v-24h0Z"/>
	<path d="M628.73,60c-1.81,4.68-3.44,6.4-7,6.4a7.66,7.66,0,0,1-2.73-.42V62.32a8.07,8.07,0,0,0,2.32.55,3.39,3.39,0,0,0,3.24-2.18l1.63-4.08-9.51-23.85h4.45l7,19.62h0.09L635,32.77h4.18Z"/>
	<path class="b" d="M13.73,63l0-33.27,13.39-4C36.93,22.83,43,26,43,37c0,12.51-6.38,19.23-16.17,22.14Zm8.84-9.73,3.3-.75c4.66-1.38,7.9-5.87,7.89-12.15,0-6.93-3-9.58-8.35-8l-2.78.74Z"/>
	<path class="b" d="M59.15,24c8.23-2.45,13.31,1.34,13.32,9.24,0,9.31-5.78,15.4-13.26,17.62S46,50.34,46,41.65A17.79,17.79,0,0,1,59.15,24ZM54.7,38.47c0,5.41,1.89,8.07,4.55,7.28s4.47-4.55,4.47-10c0-4.2-1.71-7.28-4.28-6.36C56,30.42,54.69,35.25,54.7,38.47Z"/>
	<path class="b" d="M75.77,20.12l8-2.39v3.79a15.65,15.65,0,0,1,8.89-7c5.85-1.75,8.6,1.19,8.61,7.84V36.86l-8.82,2.62,0-13.68c0-2.4-.5-4.85-3-4.11a7.3,7.3,0,0,0-4.92,6.81l0,13.22-8.81,2.62Z"/>
</svg>