<svg xmlns="http://www.w3.org/2000/svg" xml:space="preserve" viewBox="0 0 200 200"><path fill="#FDFEFE" d="M201 84v116.964H1.099V1.16H201V84M40.248 10.09c-.058.95-.117 1.9-.332 3.784v177.065c14.004 0 27.615 0 42.137.133 12.772-.683 25.69-.38 38.285-2.255 25.943-3.861 44.025-17.915 51.262-43.938 6.294-22.628 6.184-45.702 3.837-68.822-.597-5.887-2.236-11.668-3.475-18.21-2.326-10.625-6.989-20.043-14.494-27.983-12.966-13.716-29.834-18.718-47.767-19.615C87.605 9.144 65.437 9.485 43.3 9.24c-.779-.009-1.562.414-3.051.85z"/><path fill="#44C0CA" d="M172.04 58.56c1.16 5.83 2.8 11.61 3.397 17.497 2.347 23.12 2.457 46.194-3.837 68.822-7.237 26.023-25.32 40.077-51.262 43.938-12.594 1.874-25.513 1.572-38.706 1.727-.363-14.59-.305-28.65.074-42.747 1.928-1.397 3.643-2.653 5.129-4.14a9613.95 9613.95 0 0 0 36.812-37c2.075-2.098 3.908-4.436 6.14-6.787 7.861-7.59 15.425-15.069 23.016-22.52 6.396-6.28 12.824-12.528 19.237-18.79z"/><path fill="#023C4C" d="M81.386 147.832c-.059 14.061-.117 28.123-.21 42.645-13.645.462-27.256.462-41.26.462 0-59.217 0-118.141.453-177.515 1.201-.473 1.948-.497 2.923-.406.418.39.608.665.759 1.308.67 3.191 1.79 5.543 5.376 5.122.01.052.106.094.049.41.474.573 1.007.829 1.548 1.096.008.013.033.03.043.355.651.778 1.294 1.23 2.16 1.789.508.303.697.568.804 1.229.667.77 1.321 1.212 1.973 1.662-.001.008.015.005.027.332.66.776 1.31 1.224 2.182 1.78.499.316.684.586.801 1.242.672.768 1.323 1.21 1.981 1.653.008.001.01.017-.005.384 1.785 1.949 3.584 3.53 5.392 5.156.009.046.083.103.04.39.286.393.615.498.953.646.01.042.093.07.049.356.283.399.611.51.941.662.003.04.083.057.044.345.29.4.62.512.95.663 0 .04.08.05.044.337.294.395.623.503.93.678-.021.068.092-.018.066.292.485.583.995.855 1.543 1.123.037-.003.026.071.048.38.48.607.938.906 1.288 1.285-.108.081.138-.03.112.255.296.417.617.55.868.763-.07.082.113-.032.102.254.314.413.639.54.92.718-.044.05.085.018.064.293.263.473.548.67 1.129 1.03 1.403 2.046 2.508 3.929 3.621 6.035.009.223.195.609.195.609s.426-.018.698.405c.315 31.541.357 62.659.4 93.777z"/><path fill="#F38522" d="M80.086 52.818c-1.105-1.883-2.21-3.766-3.67-6.054a21.459 21.459 0 0 0-1.05-1.063s-.13.032-.16-.248c-.22-.574-.488-.739-.835-.774 0 0-.184.114-.18-.196-.174-.607-.433-.776-.775-.82 0 0-.246.111-.208-.239-.389-.675-.814-1-1.24-1.325 0 0 .011-.074-.088-.344-.55-.566-1.003-.863-1.455-1.16 0 0-.113.086-.168-.197-.234-.561-.49-.717-.819-.75 0 0-.078-.01-.152-.268-.253-.537-.508-.696-.838-.733 0 0-.08-.017-.153-.274-.249-.535-.5-.693-.827-.732 0 0-.083-.027-.166-.283-.26-.53-.512-.684-.837-.72 0 0-.074-.056-.19-.395-1.834-1.969-3.553-3.6-5.27-5.23 0 0-.002-.016-.09-.302-.698-.756-1.31-1.224-1.921-1.693-.097-.33-.282-.6-.861-1.202a26.19 26.19 0 0 0-2.114-1.822s-.016.003-.095-.29c-.689-.763-1.298-1.234-1.908-1.704-.092-.334-.28-.599-.865-1.188-.898-.871-1.496-1.35-2.094-1.828 0 0-.025-.017-.112-.291-.53-.566-.97-.859-1.412-1.151 0 0-.097-.042-.202-.388-1.817-1.962-3.529-3.58-5.24-5.196-.19-.275-.381-.55-.897-1.234-.963-1.222-1.6-2.035-2.238-2.847.78-.222 1.564-.645 2.343-.636 22.138.244 44.306-.097 66.402 1.008 17.933.897 34.801 5.899 47.767 19.615 7.505 7.94 12.168 17.358 14.533 28.34-6.374 6.618-12.802 12.866-19.198 19.146-7.59 7.451-15.155 14.93-23.225 22.227C114.66 84.908 100.253 70.39 85.78 55.942c-1.18-1.178-2.818-1.898-4.602-2.923a15.27 15.27 0 0 0-1.092-.201z"/><path fill="#364030" d="M40.602 9.984c.991.705 1.63 1.518 2.365 2.625-.65.318-1.397.342-2.52.348-.316-.966-.257-1.916.155-2.973z"/><path fill="#FCFEFC" d="M81.537 53.111c1.425.933 3.063 1.653 4.243 2.83 14.473 14.45 28.88 28.967 43.512 43.76-1.737 2.52-3.57 4.858-5.645 6.956a9613.95 9613.95 0 0 1-36.812 37c-1.486 1.487-3.201 2.743-5.13 4.14-.36-31.083-.403-62.201-.464-93.802.086-.617.19-.75.296-.884z"/><path fill="#364030" d="M44.05 14.326c1.752 1.249 3.464 2.866 5.271 4.776-3.48.767-4.6-1.585-5.27-4.776zM60.99 31.38c1.732 1.263 3.45 2.894 5.276 4.817a40.014 40.014 0 0 1-5.276-4.817zM51.067 21.31c.588.152 1.186.63 1.86 1.395-.566-.166-1.209-.618-1.86-1.396zM54.03 24.327c.596.143 1.205.614 1.895 1.37-.573-.158-1.227-.6-1.894-1.37zM56.031 26.321c.59.15 1.193.626 1.877 1.387-.568-.163-1.216-.611-1.877-1.387zM59.014 29.343c.591.144 1.203.612 1.894 1.367-.571-.157-1.222-.6-1.894-1.367zM49.476 19.859c.498-.025.94.268 1.46.821-.453.007-.986-.249-1.46-.821zM71.99 42.408c.404.016.83.341 1.326.935-.388-.03-.846-.328-1.326-.935zM70.4 40.905c.477-.013.93.284 1.443.854-.449 0-.959-.271-1.444-.854zM69.403 39.935c.365-.254.62-.098.876.395-.253.108-.582 0-.876-.395zM68.409 38.935c.369-.25.624-.092.876.406-.257.106-.586-.006-.876-.406zM73.39 43.948c.368-.241.627-.072.871.453-.254.096-.575-.036-.87-.453zM74.36 44.965c.358-.251.627-.086.89.438-.251.102-.576-.025-.89-.438zM75.344 45.976c.253-.056.485.164.775.626-.227.045-.512-.153-.775-.626z"/><path fill="#44C0CA" d="M81.178 53.02c.254.225.15.358-.21.552-.253.06-.679.078-.679.078s-.186-.386-.195-.61c.236-.186.48-.15 1.084-.02z"/><path fill="#364030" d="M67.424 37.928c.37-.248.622-.09.869.405-.258.105-.586-.006-.869-.405zM66.423 36.926c.367-.252.618-.098.869.39-.255.108-.584.003-.87-.39z"/></svg>