<svg viewBox="0 0 175 50" fill="none" xmlns="http://www.w3.org/2000/svg">
<g clip-path="url(#clip0)">
<path d="M27.3564 3.30079V33.6847C27.3601 34.5998 27.0744 35.4931 26.5393 36.2393C26.0042 36.9854 25.2467 37.5471 24.3729 37.8453C21.4616 38.8061 18.4152 39.3051 15.3465 39.3238C6.20808 39.3238 0 34.22 0 24.939C0 15.8909 6.79358 10.2657 15.114 10.2657C15.8256 10.2657 16.4811 10.2907 17.0946 10.3462C17.5561 10.3882 18.0214 10.3345 18.4608 10.1886C18.9002 10.0428 19.304 9.80784 19.6467 9.49887C19.9893 9.1899 20.2632 8.81364 20.4508 8.39409C20.6385 7.97453 20.7358 7.52087 20.7365 7.06202V3.22035C20.7365 2.36722 21.0784 1.54895 21.6872 0.94518C22.296 0.341407 23.1218 0.00146965 23.9835 0H24.0731C24.9478 0.0152449 25.7816 0.369467 26.3955 0.986607C27.0094 1.60375 27.3544 2.4346 27.3564 3.30079ZM20.7365 30.1675V19.519C20.7359 18.7446 20.4607 17.995 19.959 17.4009C19.4572 16.8068 18.7608 16.4059 17.9911 16.2682C17.1173 16.1242 16.2323 16.0574 15.3465 16.0685C10.4271 16.0685 6.73475 19.4885 6.73475 24.8253C6.73475 30.2202 10.1918 33.5848 15.2288 33.5848C16.1102 33.6132 16.9924 33.564 17.865 33.4378C18.6606 33.3252 19.3887 32.9327 19.916 32.3322C20.4432 31.7317 20.7345 30.9633 20.7365 30.1675Z" fill="#1485EA"/>
<path d="M33.2143 24.7671C33.2143 16.2405 39.4812 10.1521 48.0369 10.1521C56.5926 10.1521 62.6214 16.1823 62.6214 24.7671C62.6214 33.2354 56.3545 39.3266 47.8016 39.3266C39.2487 39.3266 33.2143 33.3519 33.2143 24.7671ZM55.9427 24.7671C55.9427 19.4969 52.8975 15.8356 47.9193 15.8356C42.941 15.8356 39.893 19.4886 39.893 24.7671C39.893 29.9901 42.9382 33.5849 47.9193 33.5849C52.9003 33.5849 55.9427 29.9929 55.9427 24.7671Z" fill="#1485EA"/>
<path d="M95.7209 24.5951C95.7209 33.9317 88.7508 39.3266 81.0159 39.3266C80.1755 39.3266 79.3854 39.2961 78.6459 39.2296C78.1895 39.1875 77.7293 39.2402 77.2947 39.3841C76.8601 39.528 76.4605 39.76 76.1215 40.0654C75.7825 40.3708 75.5115 40.7428 75.3258 41.1576C75.1402 41.5725 75.0439 42.0211 75.0431 42.4749V46.2583C75.0424 47.1114 74.6998 47.9294 74.0905 48.5327C73.4812 49.1359 72.6551 49.4751 71.7934 49.4759H71.6673C70.8062 49.4737 69.981 49.1334 69.3729 48.5297C68.7647 47.926 68.4232 47.1082 68.4232 46.2555V16.6788C68.422 15.9154 68.6215 15.1648 69.0022 14.5009C69.3829 13.837 69.9316 13.2827 70.5944 12.8926C73.6814 11.0989 77.1957 10.1529 80.775 10.1521C89.2775 10.1521 95.7209 15.0811 95.7209 24.5951ZM89.0422 24.7116C89.0422 19.3749 85.5851 16.1823 80.4892 16.1823C79.4811 16.1768 78.4764 16.2999 77.5 16.5484C76.7946 16.7315 76.1705 17.1415 75.7258 17.7138C75.2812 18.2861 75.041 18.9884 75.0431 19.7105V30.0151C75.044 30.7806 75.3153 31.5216 75.8101 32.1098C76.3049 32.698 76.992 33.0962 77.7522 33.2354C78.6768 33.3983 79.6146 33.4763 80.5537 33.4684C85.5851 33.4684 89.0422 30.1621 89.0422 24.7227V24.7116Z" fill="#1485EA"/>
<path d="M101.696 3.25911C101.688 2.60526 101.875 1.96351 102.234 1.41501C102.594 0.866501 103.11 0.435866 103.716 0.177568C104.323 -0.0807293 104.994 -0.155093 105.643 -0.0361274C106.292 0.0828385 106.892 0.389796 107.365 0.84593C107.838 1.30206 108.164 1.88689 108.302 2.52645C108.439 3.16602 108.382 3.83161 108.138 4.43906C107.893 5.0465 107.472 5.56853 106.928 5.93912C106.384 6.30971 105.741 6.51223 105.081 6.52106C104.642 6.5284 104.206 6.44969 103.798 6.28945C103.389 6.12922 103.017 5.89063 102.703 5.58744C102.388 5.28424 102.137 4.92243 101.965 4.52283C101.792 4.12323 101.701 3.69374 101.696 3.25911ZM101.755 35.2906V13.866C101.752 13.0074 102.091 12.1821 102.699 11.57C103.307 10.958 104.135 10.6087 105.002 10.5985H105.128C105.995 10.608 106.823 10.9566 107.431 11.5682C108.04 12.1799 108.379 13.0049 108.375 13.8632V35.2934C108.38 36.152 108.041 36.9774 107.432 37.5892C106.824 38.201 105.995 38.5493 105.128 38.5581H105.002C104.135 38.5472 103.308 38.1977 102.7 37.5858C102.092 36.9739 101.752 36.149 101.755 35.2906Z" fill="#1485EA"/>
<path d="M142.06 21.5773V35.4767C142.058 36.339 141.713 37.1658 141.099 37.7779C140.486 38.3901 139.653 38.7382 138.782 38.747H138.659C137.788 38.7389 136.955 38.391 136.342 37.7787C135.728 37.1665 135.383 36.3393 135.381 35.4767V23.1445C135.381 18.099 132.922 16.1823 128.658 16.1823C127.386 16.1851 126.121 16.3635 124.898 16.7121C124.209 16.9075 123.603 17.32 123.172 17.8871C122.741 18.4542 122.508 19.145 122.509 19.8548V35.4767C122.506 36.3395 122.161 37.1667 121.547 37.7789C120.933 38.3911 120.1 38.7389 119.228 38.747H119.136C118.709 38.7484 118.286 38.6666 117.891 38.5063C117.496 38.3459 117.137 38.1101 116.834 37.8124C116.532 37.5146 116.291 37.1608 116.126 36.7709C115.962 36.3811 115.876 35.963 115.875 35.5405V16.812C115.872 16.0423 116.073 15.2853 116.459 14.6173C116.845 13.9492 117.402 13.3936 118.074 13.0064C121.465 11.1274 125.287 10.1445 129.173 10.1521C138.135 10.1521 142.06 15.2559 142.06 21.5773Z" fill="#1485EA"/>
<path d="M172.664 12.4571C169.711 10.9369 166.43 10.1461 163.102 10.1521C154.608 10.1521 147.929 15.7773 147.929 24.4204C147.929 33.0052 154.549 37.876 162.576 37.876C163.826 37.8818 165.072 37.7337 166.285 37.4349V37.4571C166.285 37.4571 168.288 36.7138 168.319 38.3309C168.207 41.9007 165.968 44.5469 160.889 44.5469C157.67 44.5469 155.328 43.6094 153.538 42.1642C152.948 41.6995 152.198 41.4824 151.448 41.5597C150.699 41.637 150.009 42.0024 149.529 42.5775V42.5942C149.281 42.8834 149.094 43.2194 148.981 43.582C148.867 43.9445 148.829 44.3261 148.868 44.7037C148.907 45.0813 149.023 45.4471 149.209 45.7791C149.395 46.1111 149.647 46.4025 149.949 46.6355C152.678 48.727 156.452 49.989 161.113 49.989C169.198 49.989 174.997 45.232 174.997 37.2852V16.3349C175.002 15.5395 174.786 14.758 174.375 14.0747C173.964 13.3914 173.372 12.8321 172.664 12.4571ZM163.161 32.4283C158.242 32.4283 154.667 29.3522 154.667 24.3067C154.667 19.2029 158.309 15.8966 163.161 15.8966C164.148 15.8897 165.132 16.0081 166.089 16.2489C166.73 16.4129 167.298 16.783 167.703 17.3011C168.109 17.8192 168.329 18.4559 168.33 19.1114V29.2135C168.333 29.8511 168.126 30.4723 167.741 30.9833C167.356 31.4943 166.813 31.8671 166.195 32.0455C165.208 32.3121 164.187 32.44 163.164 32.4255L163.161 32.4283Z" fill="#1485EA"/>
<path d="M87.2325 43.7536H85.8794V49.3233C85.716 49.361 85.5484 49.3778 85.3807 49.3733C85.2131 49.3769 85.0456 49.3601 84.882 49.3233V43.7536H83.5289C83.4962 43.6078 83.4783 43.4591 83.4757 43.3098C83.4774 43.1577 83.4952 43.0061 83.5289 42.8577H87.2325C87.2652 43.0062 87.2821 43.1578 87.2829 43.3098C87.2812 43.459 87.2643 43.6077 87.2325 43.7536Z" fill="#859AAA"/>
<path d="M92.5133 48.8712C92.5164 49.0234 92.4995 49.1754 92.4629 49.3233H89.3812V42.8577H92.4013C92.435 43.0061 92.4528 43.1577 92.4545 43.3098C92.4525 43.4592 92.4347 43.6079 92.4013 43.7536H90.3758V45.5565H92.1883C92.2176 45.7027 92.2317 45.8514 92.2304 46.0003C92.2321 46.1493 92.218 46.2981 92.1883 46.4442H90.3758V48.4274H92.4741C92.5072 48.5729 92.5204 48.7222 92.5133 48.8712Z" fill="#859AAA"/>
<path d="M94.3958 46.0807C94.3958 44.2778 95.1886 42.6746 96.7658 42.6746C97.0326 42.6704 97.2973 42.7201 97.544 42.8208C97.7906 42.9214 98.0139 43.0708 98.2002 43.2598C98.1524 43.4093 98.0747 43.5478 97.9717 43.6669C97.8687 43.7861 97.7425 43.8835 97.6007 43.9533C97.4983 43.8438 97.3738 43.7569 97.2353 43.6981C97.0968 43.6393 96.9473 43.61 96.7967 43.6121C95.8497 43.6121 95.4631 44.8215 95.4631 46.0807C95.4631 47.34 95.8497 48.5577 96.7967 48.5577C96.9644 48.5689 97.1324 48.54 97.2865 48.4734C97.4406 48.4068 97.5762 48.3044 97.6819 48.1749C97.8246 48.2443 97.9514 48.3418 98.0545 48.4615C98.1577 48.5813 98.2349 48.7207 98.2814 48.8712C98.091 49.0757 97.8576 49.2366 97.5978 49.3425C97.3379 49.4484 97.0578 49.4968 96.777 49.4842C95.1382 49.4842 94.3958 47.8948 94.3958 46.0807Z" fill="#859AAA"/>
<path d="M104.277 42.8575V49.3231C104.119 49.3558 103.959 49.3726 103.798 49.3731C103.627 49.371 103.456 49.3543 103.288 49.3231V46.4828H101.355V49.3231C101.19 49.3554 101.023 49.3721 100.856 49.3731C100.689 49.371 100.522 49.3543 100.357 49.3231V42.8575C100.518 42.8196 100.683 42.8019 100.848 42.8048C101.018 42.8017 101.189 42.8194 101.355 42.8575V45.5758H103.288V42.8575C103.452 42.8246 103.619 42.8069 103.786 42.8048C103.951 42.8071 104.115 42.8247 104.277 42.8575Z" fill="#859AAA"/>
<path d="M110.779 42.8574V49.2732C110.421 49.348 110.055 49.3787 109.689 49.3647L107.919 45.1014L107.714 44.469L107.756 45.143V49.3231C107.603 49.3602 107.446 49.377 107.288 49.373C107.127 49.3759 106.966 49.3592 106.809 49.3231V42.9157C107.164 42.8226 107.533 42.7926 107.899 42.8269L109.669 47.0874L109.863 47.6422L109.821 47.0098V42.8491C109.975 42.8171 110.131 42.7995 110.289 42.7964C110.454 42.8016 110.618 42.822 110.779 42.8574Z" fill="#859AAA"/>
<path d="M113.037 46.0808C113.037 44.2473 113.81 42.6746 115.438 42.6746C117.065 42.6746 117.839 44.2279 117.839 46.0808C117.839 47.9336 117.065 49.4842 115.438 49.4842C113.81 49.4842 113.037 47.9253 113.037 46.0808ZM116.763 46.0808C116.763 44.7799 116.385 43.601 115.438 43.601C114.491 43.601 114.113 44.7799 114.113 46.0808C114.113 47.3817 114.491 48.5577 115.435 48.5577C116.379 48.5577 116.763 47.3706 116.763 46.0808Z" fill="#859AAA"/>
<path d="M123.091 48.8712C123.089 49.0231 123.073 49.1746 123.041 49.3233H120.099V42.8576C120.264 42.825 120.431 42.8074 120.598 42.8049C120.766 42.8068 120.933 42.8244 121.097 42.8576V48.4274H123.041C123.074 48.5731 123.091 48.7219 123.091 48.8712Z" fill="#859AAA"/>
<path d="M124.627 46.0808C124.627 44.2473 125.4 42.6746 127.027 42.6746C128.655 42.6746 129.431 44.2279 129.431 46.0808C129.431 47.9336 128.658 49.4842 127.027 49.4842C125.397 49.4842 124.627 47.9253 124.627 46.0808ZM128.353 46.0808C128.353 44.7799 127.974 43.601 127.027 43.601C126.081 43.601 125.705 44.7799 125.705 46.0808C125.705 47.3817 126.083 48.5577 127.027 48.5577C127.972 48.5577 128.353 47.3706 128.353 46.0808Z" fill="#859AAA"/>
<path d="M135.474 45.8392V48.9514C135.012 49.3147 134.435 49.5034 133.846 49.4839C132.218 49.4839 131.426 47.9445 131.426 46.0888C131.426 44.2332 132.249 42.6743 133.835 42.6743C134.11 42.667 134.384 42.714 134.641 42.8125C134.898 42.9111 135.133 43.0593 135.331 43.2485C135.287 43.4012 135.213 43.5435 135.112 43.6666C135.01 43.7897 134.885 43.8909 134.743 43.9641C134.629 43.8469 134.491 43.7549 134.338 43.6942C134.185 43.6335 134.022 43.6054 133.857 43.6119C132.899 43.6119 132.504 44.8101 132.504 46.0888C132.504 47.3676 132.818 48.5575 133.866 48.5575C134.095 48.5658 134.322 48.5172 134.527 48.416V46.8045H133.745C133.689 46.4851 133.689 46.1586 133.745 45.8392H135.474Z" fill="#859AAA"/>
<path d="M139.83 46.9461V49.3232C139.666 49.3554 139.499 49.3722 139.332 49.3731C139.164 49.371 138.997 49.3543 138.833 49.3232V46.9128L137.152 42.8742C137.372 42.8233 137.596 42.7964 137.822 42.7937C137.969 42.7928 138.116 42.803 138.261 42.8242L139.256 45.5342L139.379 45.917L139.491 45.5342L140.447 42.8242C140.588 42.7989 140.732 42.7887 140.875 42.7937C141.084 42.7964 141.292 42.8234 141.494 42.8742L139.83 46.9461Z" fill="#859AAA"/>
</g>
<defs>
<clipPath id="clip0">
<rect width="175" height="50" fill="white"/>
</clipPath>
</defs>
</svg>
