<svg viewBox='0 0 227 48' xmlns="http://www.w3.org/2000/svg" class="logoSvg">
    <path d="M223.915429,2.49711443 L216.737286,2.49711443 L216.737286,26.8537888 C213.3692,21.7432081 204.937008,9.18698852 202.515946,5.35116308 C201.423195,3.61880339 200.285328,2.49711443 197.229856,2.49711443 L191.687846,2.49711443 L191.687846,39.8046325 C191.687846,42.833671 191.045849,44.7139151 190.266909,46.8947112 L198.89234,46.8947112 C201.130544,46.8947112 201.947811,45.8104916 201.947811,43.6595912 L201.947811,23.5313733 L218.026469,46.8947112 L223.575267,46.8947112 C226.214719,46.8947112 226.994058,44.949095 226.994058,42.596498 L226.994058,5.53970568 C226.994058,3.61441868 226.271812,2.49711443 223.915429,2.49711443"></path>
    <path d="M169.810459,24.7395606 L166.349747,24.7395606 L166.349747,11.7372962 L169.830421,11.7372962 C174.715264,11.7372962 176.211259,13.7239692 176.211259,18.163689 C176.211259,23.326089 173.398532,24.7395606 169.810459,24.7395606 L169.810459,24.7395606 Z M168.59354,2.49711443 L156.00514,2.49711443 L156.00514,39.8046325 C156.00514,42.833671 155.363143,44.7139151 154.584203,46.8947112 L163.337394,46.8947112 C165.575598,46.8947112 166.392866,45.8104916 166.392866,43.6595912 L166.392866,34.0638492 L172.033891,34.0638492 C180.844573,34.0638492 186.997439,28.0065694 186.997439,18.3012095 C186.997439,8.38936962 182.662366,2.49711443 168.59354,2.49711443 L168.59354,2.49711443 Z"></path>
    <path d="M148.217339,2.49711443 L140.320543,2.49711443 C138.761067,9.64379575 133.69736,28.4167392 132.668888,32.5008988 C131.604084,28.6706539 126.630607,11.4622552 125.395323,6.05829748 C124.732965,3.16119894 123.55118,2.49711443 120.579551,2.49711443 L112.556193,2.49711443 C115.840436,12.921567 122.846901,37.1124196 126.22377,46.8947112 L135.42532,46.8947112 C137.764535,46.8947112 139.039744,45.938844 139.817087,43.6819134 C141.498734,38.7997363 149.887808,10.6415169 151.087159,6.24245537 C151.767484,3.74596002 150.732225,2.49711443 148.217339,2.49711443"></path>
    <path d="M108.609192,37.8255331 C107.555966,38.5103453 105.784887,38.9165291 104.555591,38.9165291 C102.378473,38.9165291 101.807144,37.2626956 101.807144,34.8028724 L101.807144,17.1496248 L107.373908,17.1496248 C108.588032,17.1496248 109.209267,16.6716912 109.209267,15.317214 L109.209267,10.2480887 C109.209267,8.82186163 108.81281,8.39415294 107.373908,8.39415294 L101.807144,8.39415294 L101.807144,2.34843285 C101.807144,0.351794626 100.991473,-0.219413714 99.3078291,0.138139587 C97.6297749,0.494497058 91.8094861,1.80632305 91.8094861,1.80632305 L91.8094861,8.39415294 L88.5032842,8.39415294 C87.2927536,8.39415294 86.6679249,8.82186163 86.6679249,10.2480887 L86.6679249,15.317214 C86.6679249,16.6716912 87.2891603,17.1496248 88.5032842,17.1496248 L91.8094861,17.1496248 L91.8094861,36.8704632 C91.8094861,43.6149469 94.8805289,47.878481 101.807144,47.878481 C105.163651,47.878481 108.123702,47.2068229 109.873222,45.851947 C110.742393,45.1790931 111.142443,43.9003517 111.142443,42.7236546 C111.142443,40.9055937 109.828506,38.9077597 108.609192,37.8255331"></path>
    <path d="M66.7420796,38.9165291 C62.0289153,38.9165291 59.7527824,34.0391353 59.7527824,27.4086542 C59.7527824,21.2919815 62.1095641,16.7358675 66.7420796,16.7358675 C71.5358927,16.7358675 73.6782764,21.7196901 73.6782764,27.4086542 C73.6782764,34.2324613 71.4556432,38.9165291 66.7420796,38.9165291 L66.7420796,38.9165291 Z M66.7420796,7.75278922 C55.4947648,7.75278922 49.0408638,16.8072187 49.0408638,27.4086542 C49.0408638,38.9591804 55.7091629,47.878481 66.7420796,47.878481 C78.0967931,47.878481 84.4329149,38.9591804 84.4329149,27.4086542 C84.4329149,16.6645163 78.0700433,7.75278922 66.7420796,7.75278922 L66.7420796,7.75278922 Z"></path>
    <path d="M22.4111861,37.3739078 L20.7479042,37.3739078 L20.7479042,10.3317969 C29.7011198,10.3317969 33.2536599,15.7174186 33.2536599,23.6864326 C33.2536599,32.2182842 30.1271211,37.3739078 22.4111861,37.3739078 L22.4111861,37.3739078 Z M19.8955022,0.485329025 C9.37921692,0.485329025 0,3.1321004 0,9.06899992 C0,11.6938477 1.45646958,13.567714 3.69467365,14.8153638 C5.76439358,13.3042327 7.69876724,12.0458205 10.2320182,11.2824821 L10.2320182,39.5877886 C10.2320182,42.7093046 9.59002173,44.6469486 8.81068275,46.8947112 L22.1692397,46.8947112 C37.9432683,46.8947112 44.4802136,36.8636868 44.4802136,23.6864326 C44.4802136,9.90608123 36.1669983,0.485329025 19.8955022,0.485329025 L19.8955022,0.485329025 Z"></path>
</svg>