<?xml version="1.0" ?>
<svg xmlns="http://www.w3.org/2000/svg" viewBox="0 0 505 112" aria-labelledby="logoDesc-273847">
	<desc id="logoDesc-273847">Download.com</desc>
	<g fill-rule="evenodd" clip-path="url(#b-273847)" clip-rule="evenodd">
		<path fill="#2A874B" d="M112.2 0H0v112h112.2V0ZM53.1 58.8 36 39c-1.6-2-1.3-4.9.7-6.5 2-1.7 5-1.4 6.7.6l13.3 15.3L70 33.2c1.7-2 4.7-2.3 6.7-.6 2 1.6 2.3 4.5.6 6.5L60.4 58.8a4.8 4.8 0 0 1-7.3 0Zm-12 8.6c0-2.5 2-4.4 4.5-4.4s4.5 2 4.5 4.4c0 1.7.7 3.3 1.9 4.4a6.5 6.5 0 0 0 4.6 1.8c1.7 0 3.3-.7 4.5-1.8a6.1 6.1 0 0 0 2-4.4c0-2.5 2-4.4 4.5-4.4s4.5 2 4.5 4.4c0 8.3-7 15-15.5 15-8.6 0-15.6-6.7-15.6-15Z"/>
		<path fill="#000" d="M373.4 73v9.6H352v-9.5h3.1V37.4h-3V28H369v45h4.3Zm-226.1 9.6h22c17.8 0 27.9-9.5 27.9-26.1 0-14-10-24.8-27.7-24.8h-22.2v9.6h4.5V73h-4.5v9.7Zm19.4-9.7V41.3h2.8c7.7 0 11 7.4 11 15.2 0 9-3.3 16.3-11 16.4h-2.8Zm72.2-8.3c.1 12-8.8 19-19.9 19-10.4 0-20.4-6.4-20.3-19.3 0-12.2 9.9-19 20-19 11.5.2 20 7.1 20.2 19.3ZM219 74.2c-3 0-5.4-3.9-5.4-9.9 0-5.3 2.2-9.5 5-9.5 3.5 0 5.4 4.3 5.4 9.8 0 5.4-1.9 9.6-5 9.6ZM258.4 61c1 3.5 1.7 8.4 1.8 10.5h.2c.2-3 .8-10 3-17.1l2.3-8.2H279l2.8 9.5c1.8 5.6 2.9 13.2 3.1 15.8h.2c.2-2.4.9-7.7 2-11.5l1.2-4.3h-3v-9.5h17.8v9.5h-3l-8.5 27h-15.4l-5-16.5-5.3 16.4h-15l-8.2-27h-3.1v-9.4h19.6v9.5h-2.5l1.6 5.3Zm69 21.6v-9.5h-5.2V62.7c0-3.1.9-6.7 4.6-6.7 4 0 4 3.9 4 6.4v20.3h18.4V73h-3.4V60.9c0-7.6-2-16-13.2-16-4.6 0-8 2.4-10.4 5.8l-1.7-4.5H305v9.5h3V73h-3v9.5h22.4Zm68.2 1c11 0 20-7 19.8-19-.2-12.2-8.7-19.1-20.2-19.3-10 0-19.9 6.8-20 19 0 12.9 10 19.3 20.4 19.3Zm-5.4-19.3c0 6 2.3 10 5.4 10 3.1 0 5-4.3 5-9.7 0-5.5-2-9.7-5.4-9.8-2.8 0-5 4.2-5 9.5Zm31.7-6.6c2.8-1.5 6.6-3.3 10.9-3.3 4 0 6.9.8 6.9 4V61c-.4-.4-3-2.6-7.2-2.6-8.2 0-15.2 5.2-15.2 13.4 0 8.5 7.5 12.2 14.4 12.2 2.6 0 7.1-1 9.8-4.7l1.8 3.3h15.5v-9.3h-4.3V59.1c0-11.7-11-15-19.8-15-6.7 0-13 3.4-15.8 5.2l3 8.4ZM435 74.5c2.2 0 4-1.3 4.7-2.4v-2.7c-.2-.4-1.3-2.1-4.3-2.1s-4.2 1.6-4.2 3.8c0 2 1.6 3.4 3.8 3.4Zm51.7-37v10.7h-.1l-.1-.1a15 15 0 0 0-9-2.6c-9 0-16.8 7.2-16.8 18.5 0 10.2 6.6 19.3 16.9 19.3 5 0 8.2-2.5 9.1-3.4l1.3 2.7h17v-9.5h-3.5V28h-18.1v9.5h3.3Zm-5.2 17.4c-3 0-5.2 3.6-5.2 9.1 0 4.4 2 9 5.3 9 2.8 0 5.4-3.6 5.1-9.3 0-5-2.5-8.8-5.2-8.8Z"/>
		<path fill="#fff" d="M36.2 39.1 53 58.8c.9 1 2.2 1.6 3.7 1.6 1.4 0 2.7-.6 3.6-1.6l17-19.7c1.6-2 1.4-4.9-.7-6.5-2-1.7-5-1.4-6.7.6L56.8 48.5 43.5 33.2a4.9 4.9 0 0 0-6.7-.6 4.5 4.5 0 0 0-.6 6.5ZM41 67.4c0 8.3 7 15 15.6 15 8.5 0 15.5-6.7 15.5-15 0-2.5-2-4.4-4.5-4.4-2.6 0-4.6 2-4.6 4.4 0 1.7-.7 3.3-1.9 4.4a6.5 6.5 0 0 1-4.5 1.8c-1.8 0-3.4-.7-4.6-1.8a6.1 6.1 0 0 1-1.9-4.4c0-2.5-2-4.4-4.5-4.4-2.6 0-4.6 2-4.6 4.4Z"/>
	</g>
	<defs>
		<clipPath id="b-273847">
			<path fill="#fff" d="M0 0h505v112H0z"/>
		</clipPath>
	</defs>
</svg>