<?xml version="1.0" ?>
<svg xmlns="http://www.w3.org/2000/svg" viewBox="0 0 283.4646 107.7165">
	<g id="DRK_Logo">
		<path fill="#e60005" d="M-0.4184,35.7409H35.586V-0.1242h36.0045v35.8652h36.002v35.8652h-36.002v35.8653H35.586V71.6061H-0.4184   V35.7409z"/>
		<g>
			<path d="M156.1003,25.952c-2.2128,2.8448-5.109,3.9269-7.8842,3.9269c-8.8896,0-14.1187-6.6116-14.1187-14.8667    c0-8.4952,5.2291-15.1068,14.1187-15.1068c5.8725,0,11.4237,3.6067,12.1076,10.0978h-6.0339    c-0.7238-3.1655-3.0973-4.8086-6.0737-4.8086c-5.6715,0-7.8034,4.8086-7.8034,9.8175c0,4.7689,2.1319,9.5773,7.8034,9.5773    c4.1031,0,6.4761-2.2038,6.8379-6.171h-6.3552v-4.6882h12.0671v15.4673h-4.0222L156.1003,25.952z"/>
			<path d="M169.9768,20.2214c0.1613,3.6068,1.9308,5.2497,5.1084,5.2497c2.2926,0,4.1436-1.4029,4.5055-2.6847h5.028    c-1.6093,4.8885-5.028,6.972-9.7346,6.972c-6.5564,0-10.6191-4.4877-10.6191-10.8995c0-6.2108,4.3042-10.9392,10.6191-10.9392    c7.0802,0,10.4989,5.9303,10.0965,12.3016H169.9768z M179.2692,16.6154c-0.5237-2.8851-1.77-4.4082-4.5458-4.4082    c-3.6199,0-4.6663,2.805-4.7466,4.4082H179.2692z"/>
			<path d="M188.3588,8.4806h5.4304v3.8468h0.0809c1.0451-2.6046,3.8614-4.4077,6.6361-4.4077c0.4024,0,0.8857,0.08,1.2474,0.2004    v5.2894c-0.5226-0.1203-1.3676-0.2005-2.0509-0.2005c-4.1841,0-5.6315,3.0055-5.6315,6.652v9.3365h-5.7124V8.4806z"/>
			<path d="M204.1665,8.4806h5.3899v2.8051h0.0809c1.4879-2.1239,3.6603-3.366,6.3553-3.366c2.6152,0,4.9471,0.9617,6.0744,3.446    c1.2057-1.8031,3.3782-3.446,6.2742-3.446c4.4245,0,7.6027,2.0438,7.6027,7.4132v13.8646h-5.7124V17.4567    c0-2.7648-0.2405-5.0492-3.4984-5.0492c-3.2187,0-3.8221,2.6449-3.8221,5.2496v11.5404h-5.7113V17.5771    c0-2.4043,0.1606-5.1696-3.4592-5.1696c-1.126,0-3.8615,0.7215-3.8615,4.7687v12.0213h-5.7124V8.4806z"/>
			<path d="M240.2079,14.8521c0.3214-5.3297,5.1077-6.9323,9.7739-6.9323c4.1437,0,9.1313,0.9214,9.1313,5.8906v10.7791    c0,1.8831,0.2011,3.7668,0.7237,4.6081h-5.7923c-0.2011-0.6409-0.3618-1.3221-0.4023-2.0034    c-1.8106,1.8831-4.465,2.5644-6.9993,2.5644c-3.9412,0-7.079-1.9631-7.079-6.2108c0-4.6887,3.5401-5.8105,7.079-6.2913    c3.4996-0.5212,6.7575-0.4008,6.7575-2.7251c0-2.444-1.689-2.805-3.7007-2.805c-2.1712,0-3.5793,0.8816-3.7806,3.1258H240.2079z     M253.4005,19.0593c-0.9654,0.8414-2.9759,0.8817-4.7458,1.2025c-1.7701,0.3604-3.3794,0.9616-3.3794,3.0452    c0,2.1238,1.6498,2.645,3.4996,2.645c4.465,0,4.6257-3.5266,4.6257-4.7689V19.0593z"/>
			<path d="M263.5375,8.4806h5.4292v2.8851h0.1214c1.4474-2.3243,3.9412-3.446,6.3553-3.446c6.0744,0,7.6028,3.4063,7.6028,8.5349    v12.7428h-5.7124V17.4964c0-3.4057-1.0059-5.0889-3.6603-5.0889c-3.0974,0-4.4246,1.7229-4.4246,5.9309v10.8591h-5.7113V8.4806z"/>
			<path d="M135.3443,39.4436h15.4865c5.1488,0,8.4069,3.5663,8.4069,7.894c0,3.366-1.3678,5.8906-4.5453,7.173v0.08    c3.0973,0.8011,3.9822,3.8065,4.1834,6.6917c0.1208,1.8036,0.0803,5.169,1.2064,6.7722h-6.3147    c-0.7643-1.8036-0.6839-4.5678-1.0059-6.8516c-0.4422-3.0061-1.6088-4.3283-4.7864-4.3283h-6.3153v11.1799h-6.3154V39.4436z     M141.6597,52.3869h6.9182c2.8158,0,4.3442-1.2024,4.3442-4.0875c0-2.7648-1.5284-3.9672-4.3442-3.9672h-6.9182V52.3869z"/>
			<path d="M168.4883,59.079c0.1613,3.6062,1.9308,5.2485,5.109,5.2485c2.2926,0,4.1425-1.4016,4.5055-2.6847h5.028    c-1.6093,4.8891-5.028,6.9727-9.7346,6.9727c-6.5564,0-10.6191-4.4883-10.6191-10.8989c0-6.2114,4.3036-10.9398,10.6191-10.9398    c7.079,0,10.4989,5.9303,10.0965,12.3023H168.4883z M177.7802,55.4718c-0.5226-2.8845-1.7701-4.4076-4.5448-4.4076    c-3.6204,0-4.6661,2.805-4.7471,4.4076H177.7802z"/>
			<path d="M201.7132,65.4102h-0.0797c-1.3284,2.2436-3.6615,3.2053-6.3159,3.2053c-6.2744,0-9.3324-5.3694-9.3324-11.0994    c0-5.5704,3.0973-10.7394,9.2121-10.7394c2.4533,0,4.8674,1.0417,6.1947,3.0855h-0.0405h0.0809V39.4436h5.7112v28.6109h-5.4304    V65.4102z M196.7257,51.0642c-3.7412,0-5.028,3.2058-5.028,6.6121c0,3.2455,1.4879,6.6512,5.028,6.6512    c3.7806,0,4.9078-3.286,4.9078-6.6915C201.6335,54.27,200.4265,51.0642,196.7257,51.0642z"/>
			<path d="M154.491,87.9182c-0.4024-2.8459-3.1371-5.0089-6.2749-5.0089c-5.6715,0-7.8034,4.8086-7.8034,9.8175    c0,4.7682,2.1319,9.5767,7.8034,9.5767c3.8614,0,6.0339-2.6443,6.5166-6.4118h6.1142    c-0.644,7.1328-5.5916,11.7006-12.6308,11.7006c-8.8896,0-14.1187-6.611-14.1187-14.8655c0-8.4952,5.2291-15.1074,14.1187-15.1074    c6.3153,0,11.6249,3.6867,12.3891,10.2988H154.491z"/>
			<path d="M164.547,86.1953h5.4304v3.8468h0.0803c1.0457-2.6052,3.8621-4.4089,6.6367-4.4089c0.4024,0,0.8857,0.0806,1.2476,0.2004    v5.29c-0.5238-0.1197-1.3678-0.2005-2.0522-0.2005c-4.183,0-5.6309,3.005-5.6309,6.6514v9.3371h-5.712V86.1953z"/>
			<path d="M189.573,85.6332c6.5564,0,10.7809,4.3283,10.7809,10.9404c0,6.5718-4.2245,10.8989-10.7809,10.8989    c-6.516,0-10.7394-4.3271-10.7394-10.8989C178.8336,89.9615,183.057,85.6332,189.573,85.6332z M189.573,103.1846    c3.9019,0,5.0685-3.3251,5.0685-6.6109c0-3.3263-1.1666-6.6524-5.0685-6.6524c-3.8615,0-5.028,3.3262-5.028,6.6524    C184.545,99.8595,185.7114,103.1846,189.573,103.1846z"/>
			<path d="M208.478,100.1797c0.0405,2.4843,2.132,3.4863,4.3853,3.4863c1.6486,0,3.7401-0.6415,3.7401-2.6443    c0-1.7231-2.3724-2.3242-6.4755-3.2065c-3.2985-0.7209-6.597-1.8831-6.597-5.5295c0-5.2899,4.5853-6.6524,9.0502-6.6524    c4.5459,0,8.7289,1.5238,9.1717,6.6121h-5.4304c-0.1608-2.2032-1.851-2.8045-3.902-2.8045c-1.2868,0-3.1782,0.2396-3.1782,1.9234    c0,2.0432,3.2187,2.3243,6.4767,3.0855c3.3389,0.7614,6.5969,1.9626,6.5969,5.8106c0,5.4489-4.7472,7.2122-9.493,7.2122    c-4.8269,0-9.5335-1.8037-9.7751-7.2929H208.478z"/>
			<path d="M230.078,100.1797c0.0405,2.4843,2.132,3.4863,4.3853,3.4863c1.6486,0,3.7401-0.6415,3.7401-2.6443    c0-1.7231-2.3724-2.3242-6.4755-3.2065c-3.2985-0.7209-6.597-1.8831-6.597-5.5295c0-5.2899,4.5853-6.6524,9.0502-6.6524    c4.546,0,8.7289,1.5238,9.1717,6.6121h-5.4304c-0.1608-2.2032-1.8511-2.8045-3.902-2.8045c-1.2868,0-3.1782,0.2396-3.1782,1.9234    c0,2.0432,3.2187,2.3243,6.4767,3.0855c3.3389,0.7614,6.5969,1.9626,6.5969,5.8106c0,5.4489-4.7472,7.2122-9.4931,7.2122    c-4.8269,0-9.5335-1.8037-9.7751-7.2929H230.078z"/>
		</g>
	</g>
</svg>