<?xml version="1.0" ?>
<svg xmlns="http://www.w3.org/2000/svg" viewBox="0 0 34 34" fill="none">
	<g>
		<path d="M 25.6857,1.0 L 8.31429,1.0 C 4.27472,1.0 1.0,4.27472 1.0,8.31429 L 1.0,25.6857 C 1.0,29.7253 4.27472,33.0 8.31429,33.0 L 25.6857,33.0 C 29.7253,33.0 33.0,29.7253 33.0,25.6857 L 33.0,8.31429 C 33.0,4.27472 29.7253,1.0 25.6857,1.0" fill="#fff"/>
		<path d="M 25.6857,0.54286 L 8.31429,0.54286 C 4.02224,0.54286 0.54286,4.02225 0.54286,8.31429 L 0.54286,25.6857 C 0.54286,29.9778 4.02224,33.4572 8.31429,33.4572 L 25.6857,33.4572 C 29.9778,33.4572 33.4572,29.9778 33.4572,25.6857 L 33.4572,8.31429 C 33.4572,4.02225 29.9778,0.54286 25.6857,0.54286 L 25.6857,0.54286" stroke="#A69171" stroke-opacity=".2" stroke-width=".914286"/>
		<path fill-rule="evenodd" clip-rule="evenodd" d="M 9.23535,13.9741 L 9.23535,13.9465 L 17.0005,9.0 L 17.0005,15.0794 L 13.9988,16.9915 L 17.0005,18.8929 L 17.0005,25.0 L 9.23535,20.0535 L 9.23535,13.9741 L 9.23535,13.9741" fill="#1E1919"/>
		<path fill-rule="evenodd" clip-rule="evenodd" d="M 17.0004,13.9741 L 17.0004,13.9465 L 24.7655,9.0 L 24.7655,15.0794 L 21.7639,16.9915 L 24.7655,18.8929 L 24.7655,25.0 L 17.0004,20.0535 L 17.0004,13.9741" fill="#0061FE"/>
	</g>
</svg>