<?xml version="1.0" ?>
<svg xmlns="http://www.w3.org/2000/svg" version="1.2" viewBox="0 0 1550 1551">
	<defs>
		<linearGradient id="g1" x2="1" gradientUnits="userSpaceOnUse" gradientTransform="matrix(1550,-1550,1550,1550,0,1550.194)">
			<stop offset="0" stop-color="#00205b"/>
			<stop offset=".338" stop-color="#753bbd"/>
			<stop offset=".677" stop-color="#00a9ce"/>
			<stop offset="1" stop-color="#00a9ce"/>
		</linearGradient>
	</defs>
	<style>
		.s0 { fill: #ffffff } 
		.s1 { fill: url(#g1) } 
	</style>
	<path id="Shape 1" class="s0" d="m25 85h1495v1369h-1495zm43-43h1416v107h-1416zm46 1383h1373.7v85.3h-1373.7zm-55 3h66v80h-66z"/>
	<g id="du-logo-new">
		<g id="du-logo-squircle-window-copy">
			<path id="Combined-Shape" fill-rule="evenodd" class="s1" d="m1386.4 0.2l6.7 0.1c87.1 3.6 156.9 75.6 156.9 163.5v1222.8l-0.1 6.7c-3.6 87.1-75.5 156.9-163.5 156.9h-1222.8l-6.7-0.1c-87.1-3.6-156.9-75.5-156.9-163.5v-1222.8l0.1-6.7c3.6-87.1 75.6-156.9 163.5-156.9zm0 41.5h-1222.8l-6.2 0.2c-64.5 3.3-115.8 56.7-115.8 121.9v1222.8c0 67.3 54.7 122.1 122 122.1h1222.8l6.3-0.2c64.4-3.3 115.8-56.7 115.8-121.9v-1222.8l-0.2-6.3c-3.3-64.4-56.7-115.8-121.9-115.8zm-609.7 306.6l5.5 0.2c49.3 2.8 88.4 43.3 88.4 92.9v445.4l0.1 6.5c3.4 72.6 64.5 130.2 138.4 130.2l6.5-0.2c73.2-3.3 131.5-63 131.5-136.5v-118.2l0.2-5.5c2.8-48.7 43.7-87.6 93.7-87.6l5.5 0.2c49 2.8 88.3 43.5 88.3 92.9l0.1 118.2-0.1 8.8c-4.8 174.4-148.8 314.2-325.7 314.2l-10.8-0.1c-86.5-2.9-164.6-39.2-221.2-96.1l-7.2 7c-58.4 55.2-137.7 89.2-224.9 89.2l-8.9-0.1c-175.9-4.6-316.7-147.4-316.7-322.9l0.1-8.7c4.6-174.5 148.4-314.3 325.5-314.3l12.2 0.2c44.8 1.6 87.4 12.1 125.7 30.1v-152.7c0-51.5 42.1-93.1 93.8-93.1zm513 861.5c-25.1 0-45.3-20.1-45.3-44.8 0-24.8 20.2-44.9 45.3-44.9 25 0 45.2 20.1 45.2 44.9 0 24.7-20.2 44.8-45.2 44.8zm36.2-44.8c0-19.9-16.2-35.9-36.2-35.9-20.1 0-36.3 16-36.3 35.9 0 19.8 16.2 35.9 36.3 35.9 20 0 36.2-16.1 36.2-35.9zm-33.7-24.3c9.3 0 15.7 6.9 15.7 14.9 0 6.9-4.3 11.2-9.4 13.1l10.6 20.5h-10l-9.9-19.2h-6.1v19.2h-9.1v-48.5zm-1.2 7.6h-7.9v14.6h7.9c4.9 0 8.2-3.3 8.2-7.3 0-4.1-3.3-7.3-8.2-7.3zm-746-398.4l-6.5 0.2c-73.2 3.4-131.4 63.2-131.4 136.7 0 75.7 61.7 136.7 137.9 136.7l6.5-0.2c73.1-3.3 131.4-63 131.4-136.5l-0.1-6.4c-3.4-72.7-63.8-130.5-137.8-130.5z"/>
		</g>
	</g>
</svg>