<?xml version="1.0" ?>
<svg xmlns="http://www.w3.org/2000/svg" viewBox="0 -1.099 642 118.5">
	<path d="M 258.9,63.901 C 258.5,64.501 258.7,65.201 258.7,65.801 L 258.7,94.801 C 258.7,97.501 258.4,100.101 257.6,102.701 C 255.2,111.001 248.2,116.001 239.5,115.401 C 228.8,114.701 222.7,108.201 222.0,96.901 C 221.9,95.801 221.9,94.601 221.9,93.501 L 221.9,18.901 C 221.9,11.101 224.8,5.001 232.2,2.001 C 239.8,-1.099 247.0,0.001 253.2,5.601 C 256.6,8.601 259.0,12.601 261.7,16.201 C 270.0,27.501 278.8,38.501 286.6,50.201 C 287.4,51.401 288.1,52.601 289.3,53.701 L 289.3,51.801 L 289.3,20.801 C 289.3,16.501 290.0,12.401 292.2,8.701 C 296.2,1.901 302.5,-0.299 309.9,0.501 C 318.6,1.301 324.4,7.201 325.6,16.001 C 325.9,18.001 326.0,20.001 326.0,22.001 L 326.0,96.801 C 326.0,104.501 323.3,110.601 316.1,113.801 C 308.4,117.101 301.0,115.901 294.7,110.201 C 290.8,106.701 287.9,102.201 284.6,98.001 C 275.9,86.901 266.6,76.201 259.2,64.101 C 259.2,64.001 259.1,64.001 258.9,63.901 L 258.9,63.901 M 528.6,64.101 L 528.6,66.201 C 528.6,76.701 528.5,87.101 528.4,97.601 C 528.4,100.601 527.5,103.401 526.2,106.001 C 523.1,112.301 516.5,115.901 509.2,115.301 C 498.8,114.501 492.6,108.001 491.9,97.401 C 491.9,96.801 491.8,96.201 491.8,95.601 C 491.8,69.401 491.7,43.201 491.8,17.001 C 491.8,10.301 495.0,5.201 501.0,2.301 C 507.8,-0.899 514.4,-0.399 520.8,3.701 C 522.7,4.901 524.3,6.501 525.6,8.201 C 535.7,21.801 546.1,35.101 555.7,49.101 C 556.8,50.701 557.8,52.301 559.1,54.401 L 559.1,51.8016 L 559.1,20.201 C 559.1,15.201 560.2,10.401 563.5,6.401 C 568.4,0.501 575.0,-0.499 582.0,0.801 C 588.6,2.101 592.7,6.501 594.6,12.801 C 595.5,15.801 595.7,18.801 595.7,21.901 L 595.7,96.901 C 595.7,104.501 592.9,110.601 585.8,113.701 C 578.4,116.901 571.3,115.901 565.0,110.701 C 564.0,109.901 563.0,108.901 562.2,107.901 C 552.2,95.001 541.5,82.601 532.2,69.201 C 531.0,67.501 529.9,65.801 528.8,64.101 C 528.9,64.001 528.8,64.001 528.6,64.101 L 528.6,64.101 M 35.4,2.601 C 41.9,2.701 49.3,2.101 56.6,3.501 C 76.9,7.301 92.5,17.501 99.6,37.401 C 106.9,57.901 104.5,77.401 90.0,94.401 C 81.1,104.901 69.1,110.401 55.7,112.301 C 43.3,114.101 30.8,112.901 18.4,113.101 C 17.8,113.101 17.2,112.901 16.6,112.801 C 6.8,111.101 -6.75016e-14,103.101 -6.75016e-14,93.201 L -6.75016e-14,22.601 C -6.75016e-14,11.501 8.5,2.801 19.7,2.601 C 24.6,2.501 29.6,2.601 35.4,2.601 L 35.4,2.601 M 36.7,57.901 L 36.7,76.101 C 36.7,77.001 36.6,77.801 38.0,77.801 C 41.9,77.701 45.7,78.001 49.6,77.501 C 59.8,76.301 66.6,68.601 66.7,58.001 C 66.8,47.601 60.0,39.601 49.8,38.301 C 46.0,37.801 42.2,38.201 38.4,38.001 C 37.0,37.901 36.6,38.401 36.6,39.801 C 36.75,45.801 36.75,51.901 36.75,57.901 L 36.7,57.901 M 375.3,34.801 C 381.9,26.301 388.7,18.201 395.1,9.801 C 398.8,5.001 403.2,1.601 409.4,0.901 C 420.2,-0.199 430.6,9.801 429.8,20.601 C 429.4,25.601 427.4,29.801 424.3,33.601 C 418.0,41.101 411.6,48.501 405.2,55.901 C 404.3,57.001 404.3,57.601 405.2,58.601 C 412.1,66.201 418.8,74.001 425.6,81.601 C 429.3,85.801 431.4,90.501 431.2,96.101 C 430.8,108.101 418.7,117.401 407.6,114.101 C 403.8,113.001 400.7,110.701 398.2,107.601 C 391.0,98.801 383.6,90.101 376.6,81.101 C 376.3,80.701 376.0,80.301 375.6,79.801 C 374.9,80.201 375.2,80.801 375.2,81.201 C 375.2,86.501 375.3,91.701 375.1,97.001 C 374.8,107.701 367.2,115.201 356.8,115.101 C 346.3,115.101 338.5,107.601 338.5,97.001 C 338.4,70.701 338.4,44.301 338.5,18.001 C 338.6,7.401 346.5,-0.099 356.9,0.001 C 367.3,0.101 374.8,7.401 375.1,18.001 C 375.4,23.801 375.3,29.301 375.3,34.801 L 375.3,34.801 M 209.5,47.301 C 209.4,54.501 209.8,63.501 209.3,72.401 C 208.1,94.501 191.6,112.001 169.6,114.801 C 159.8,116.001 150.3,115.501 141.1,111.701 C 124.7,105.001 115.7,92.501 113.2,75.201 C 112.9,73.001 112.8,70.701 112.7,68.401 C 112.7,51.901 112.6,35.501 112.7,19.001 C 112.8,8.001 120.5,0.201 131.1,0.301 C 141.8,0.401 149.4,8.201 149.4,19.401 L 149.4,66.001 C 149.4,71.201 151.2,75.401 156.0,77.801 C 163.5,81.601 171.9,76.301 172.7,67.601 C 172.8,66.501 172.8,65.301 172.8,64.201 L 172.8,18.801 C 172.8,8.901 179.5,1.401 189.2,0.401 C 198.8,-0.599 207.0,5.301 209.0,14.801 C 209.3,16.301 209.4,17.801 209.4,19.401 C 209.5,28.101 209.5,36.801 209.5,47.301 L 209.5,47.301 M 442.7,57.701 C 442.7,44.601 442.6,31.601 442.7,18.501 C 442.8,10.901 446.0,5.001 453.1,2.001 C 460.4,-1.099 467.5,-0.299 473.6,5.101 C 477.3,8.301 479.2,12.701 479.2,17.501 C 479.3,44.401 479.4,71.201 479.2,98.101 C 479.1,108.201 470.8,115.701 460.8,115.401 C 450.3,115.101 442.8,107.801 442.7,97.501 C 442.6,84.201 442.7,71.001 442.7,57.701 L 442.7,57.701" fill="#fe6d01"/>
	<path d="M 606.9,26.801 C 606.8,22.301 606.9,17.901 607.9,13.501 C 609.9,4.301 617.6,-0.899 627.1,0.601 C 636.2,2.001 642.0,9.501 641.1,18.701 C 640.3,26.301 638.2,33.601 635.2,40.601 C 633.4,44.701 630.7,48.001 626.3,49.501 C 619.1,51.901 611.6,48.401 608.9,41.201 C 607.1,36.601 607.0,31.701 606.9,26.801 L 606.9,26.801" fill="#f40290"/>
</svg>