<?xml version="1.0" ?>
<svg xmlns="http://www.w3.org/2000/svg" viewBox="0 0 1332.52 429.93332">
	<style>
		.cls0 { fill: #7bcd54; }
		.cls1 { fill: #63c43f; }
	</style>
	<g id="g37" transform="matrix(1.3333333,0,0,-1.3333333,0,429.93333)">
		<g id="g39" transform="scale(0.1)">
			<path d="M 1612.25,-0.01 L -0.0,-0.01 L 0.0,1531.63 L 3222.49,1531.63 C 3180.48,678.66 2475.63,-0.01 1612.25,-0.01" class="cls0"/>
			<path d="M 1612.25,3224.49 L 0.0,3224.49 L 0.0,1692.86 L 3222.49,1692.86 C 3180.48,2545.82 2475.63,3224.49 1612.25,3224.49" class="cls1"/>
			<path d="M 8383.68,3224.49 C 7520.3,3224.49 6815.45,2545.82 6773.45,1692.86 L 9993.93,1692.86 C 9951.92,2545.82 9247.07,3224.49 8383.68,3224.49" class="cls1"/>
			<path d="M 8383.68,-0.01 C 7520.3,-0.01 6815.45,678.66 6773.45,1531.63 L 9993.93,1531.63 C 9951.92,678.66 9247.07,-0.01 8383.68,-0.01" class="cls0"/>
			<path d="M 3385.72,3224.49 L 3385.72,1612.24 C 3385.72,748.859 4064.39,44.0117 4917.36,2.0 L 4917.36,3224.49 L 3385.72,3224.49" class="cls1"/>
			<path d="M 6610.22,-0.01 L 5078.58,-0.01 L 5078.58,3224.49 L 6610.22,3224.49 L 6610.22,1612.24 L 6610.22,-0.01" class="cls0"/>
		</g>
	</g>
</svg>