<?xml version="1.0" ?>
<svg xmlns="http://www.w3.org/2000/svg" viewBox="0 0 24 24">
	<style>
		.cls0 { fill: url('#outline'); }
		.cls1 { fill: white; }
		.cls2 { fill: purple; }
	</style>
	<rect name="schelin" fill="lightgrey" width="100%" height="100%"/>
	<defs>
		<linearGradient id="outline" gradientTransform="rotate(90)">
			<stop offset="0%" stop-color="#01ea8f"/>
			<stop offset="100%" stop-color="#008af8"/>
		</linearGradient>
		<linearGradient id="inner" gradientTransform="rotate(90)">
			<stop offset="0%" stop-color="#8151ea"/>
			<stop offset="100%" stop-color="#644ac6"/>
		</linearGradient>
	</defs>
	<path d="M 1.0,12.0 A 11.0,11.0 0.0 1,0 23.0,12.0 A 11.0,11.0 0.0 1,0 1.0,12.0 L 22,23 L 21,18" fill="url(#inner)"/>
	<path d="M 11.461,23.836 A 12.105,12.105 0.0 0,1 7.173,22.842 A 12.052,12.052 0.0 0,1 1.794,18.202 C 1.551,17.812 1.385,17.512 1.203,17.133 A 12.998,12.998 0.0 0,1 0.351,14.776 A 14.211,14.211 0.0 0,1 0.024,12.696 A 10.448,10.448 0.0 0,1 0.029,11.204 C 0.106,10.323 0.222,9.616 0.385,9.027 C 0.67,8.0 1.085,6.99 1.569,6.142 A 11.836,11.836 0.0 0,1 4.676,2.607 A 12.138,12.138 0.0 0,1 10.471,0.24 C 10.973,0.177 11.248,0.16 11.855,0.153 C 12.339,0.148 12.448,0.15 12.755,0.171 C 13.402,0.215 14.005,0.301 14.6,0.432 A 12.061,12.061 0.0 0,1 19.96,3.135 C 20.232,3.373 20.798,3.936 21.03,4.2 A 12.192,12.192 0.0 0,1 22.676,6.585 C 22.939,7.086 23.233,7.792 23.43,8.397 C 23.742,9.359 23.89,10.113 23.983,11.226 C 23.995,11.374 24.0,11.593 24.0,12.044 C 24.0,12.621 23.998,12.68 23.97,12.962 A 14.146,14.146 0.0 0,1 23.638,14.945 C 23.452,15.675 23.316,16.056 22.964,16.84 C 22.498,17.88 22.384,18.18 22.279,18.635 A 3.45,3.45 0.0 0,0 22.181,19.439 C 22.175,19.7 22.177,19.751 22.199,19.906 C 22.239,20.194 22.322,20.488 22.426,20.711 C 22.543,20.963 22.791,21.326 23.029,21.594 C 23.109,21.684 23.307,21.886 23.469,22.044 C 23.776,22.342 23.875,22.45 23.953,22.572 L 24.0,22.644 L 24.0,22.888 L 23.946,22.927 A 1.495,1.495 0.0 0,1 23.432,23.147 C 23.213,23.196 22.385,23.217 21.93,23.187 A 8.495,8.495 0.0 0,1 18.936,22.426 C 18.63,22.281 18.579,22.265 18.414,22.264 A 0.76,0.76 0.0 0,0 18.161,22.296 A 4.578,4.578 0.0 0,0 17.559,22.533 C 16.839,22.876 16.336,23.081 15.775,23.263 A 12.3,12.3 0.0 0,1 11.461,23.836 L 11.461,23.836 M 12.873,22.167 A 12.51,12.51 0.0 0,0 14.33,21.981 C 14.698,21.903 15.367,21.683 15.894,21.465 C 16.19,21.342 16.6,21.16 16.78,21.069 C 17.122,20.898 17.587,20.752 18.12,20.649 C 18.321,20.611 18.402,20.608 18.589,20.631 C 18.966,20.679 19.236,20.764 19.944,21.06 C 20.118,21.132 20.34,21.22 20.439,21.257 C 20.629,21.326 20.895,21.407 20.903,21.398 A 0.519,0.519 0.0 0,0 20.874,21.288 C 20.76,20.938 20.624,20.381 20.564,20.024 A 3.001,3.001 0.0 0,1 20.564,18.973 C 20.6,18.731 20.714,18.202 20.736,18.162 C 20.742,18.152 20.768,18.061 20.793,17.959 A 8.135,8.135 0.0 0,1 21.229,16.694 A 0.2,0.2 0.0 0,0 21.25,16.634 C 21.252,16.621 21.319,16.466 21.4,16.292 C 21.773,15.482 21.95,15.001 22.094,14.405 C 22.296,13.565 22.38,12.584 22.34,11.558 A 11.668,11.668 0.0 0,0 22.187,10.073 A 53.968,53.968 0.0 0,1 22.119,9.673 C 22.098,9.536 21.953,9.038 21.924,9.004 A 0.225,0.225 0.0 0,1 21.896,8.942 A 15.257,15.257 0.0 0,0 21.548,8.07 A 13.75,13.75 0.0 0,0 20.798,6.624 A 0.442,0.442 0.0 0,1 20.748,6.528 C 20.748,6.508 20.532,6.181 20.518,6.18 A 1.29,1.29 0.0 0,1 20.392,6.024 A 11.594,11.594 0.0 0,0 18.29,3.892 A 2.213,2.213 0.0 0,1 18.112,3.742 A 2.13,2.13 0.0 0,0 17.904,3.595 A 11.798,11.798 0.0 0,0 15.112,2.245 C 14.589,2.072 14.429,2.03 14.054,1.967 A 12.297,12.297 0.0 0,0 9.998,1.951 C 9.584,2.019 9.44,2.056 8.935,2.221 C 8.093,2.498 7.308,2.855 6.561,3.3 C 6.281,3.466 5.944,3.684 5.94,3.7 A 1.9,1.9 0.0 0,1 5.757,3.852 A 11.62,11.62 0.0 0,0 3.597,6.031 A 1.004,1.004 0.0 0,1 3.484,6.169 A 1.54,1.54 0.0 0,0 3.307,6.439 A 0.25,0.25 0.0 0,1 3.268,6.515 A 13.204,13.204 0.0 0,0 2.098,8.998 A 0.553,0.553 0.0 0,1 2.049,9.118 C 2.042,9.121 2.037,9.137 2.036,9.152 C 2.036,9.166 2.016,9.244 1.991,9.324 C 1.812,9.92 1.731,10.453 1.673,11.424 C 1.617,12.34 1.718,13.522 1.926,14.377 C 2.05,14.885 2.344,15.679 2.643,16.312 C 2.701,16.435 2.75,16.547 2.752,16.56 C 2.759,16.618 3.28,17.525 3.337,17.58 C 3.352,17.594 3.429,17.697 3.509,17.808 C 4.159,18.717 4.954,19.522 5.897,20.226 C 6.163,20.425 6.361,20.552 6.757,20.777 C 7.307,21.09 7.908,21.377 8.455,21.584 C 8.795,21.714 9.357,21.894 9.613,21.954 C 9.906,22.024 10.583,22.119 11.05,22.158 C 11.625,22.205 12.279,22.208 12.873,22.168 L 12.873,22.167" class="cls0"/>
	<path d="M 7.707,17.1 C 7.008,16.972 6.585,16.195 6.816,15.461 C 6.939,15.068 7.233,14.768 7.604,14.658 C 7.699,14.63 7.721,14.628 8.091,14.618 C 8.305,14.612 9.037,14.608 9.717,14.612 C 10.808,14.616 10.964,14.618 11.034,14.634 C 11.365,14.711 11.619,14.884 11.798,15.155 C 11.935,15.362 12.003,15.684 11.974,15.991 C 11.955,16.202 11.915,16.383 11.871,16.461 C 11.685,16.791 11.446,16.985 11.101,17.088 C 11.023,17.111 11.007,17.111 9.408,17.113 C 8.068,17.115 7.778,17.113 7.708,17.1 L 7.707,17.1 M 7.793,13.262 A 1.193,1.193 0.0 0,1 6.903,12.644 C 6.805,12.455 6.775,12.298 6.775,11.981 C 6.775,11.755 6.785,11.691 6.837,11.546 C 6.939,11.262 7.151,11.024 7.42,10.888 C 7.606,10.794 7.745,10.773 8.21,10.765 A 837.07,837.07 0.0 0,1 12.4,10.769 L 16.231,10.779 L 16.327,10.809 A 1.224,1.224 0.0 0,1 17.159,11.661 C 17.195,11.795 17.203,12.071 17.178,12.234 C 17.085,12.816 16.714,13.189 16.158,13.258 C 16.068,13.268 7.879,13.273 7.793,13.262 L 7.793,13.262 M 13.025,9.402 A 1.59,1.59 0.0 0,1 12.759,9.337 A 1.32,1.32 0.0 0,1 12.167,8.868 C 12.152,8.845 12.135,8.828 12.13,8.831 C 12.116,8.84 12.052,8.65 12.021,8.511 C 11.965,8.249 11.977,7.887 12.047,7.679 C 12.126,7.449 12.299,7.225 12.507,7.085 A 1.27,1.27 0.0 0,1 12.867,6.926 L 12.98,6.896 L 16.22,6.896 L 16.333,6.926 C 16.721,7.031 17.026,7.309 17.153,7.673 C 17.235,7.908 17.238,8.339 17.158,8.606 C 17.114,8.756 16.986,8.994 16.951,8.994 A 0.032,0.032 0.0 0,0 16.927,9.008 A 1.468,1.468 0.0 0,1 16.71,9.196 A 1.45,1.45 0.0 0,1 16.394,9.353 C 16.212,9.411 16.244,9.41 14.594,9.409 C 13.75,9.408 13.044,9.405 13.024,9.403 L 13.025,9.402" class="cls1"/>
</svg>