<svg version="1.1" xmlns="http://www.w3.org/2000/svg" viewBox="0 0 353.302 221.556">
    <path d="M132.271,136.51 L128.979,140.941 C128.076,141.934 127.625,143.244 127.625,144.87 C127.625,146.675 128.256,148.21 129.52,149.475 C130.327,150.282 131.244,150.831 132.271,151.123 L132.271,136.51 z M219.962,136.585 L189.798,96.241 C188.263,94.165 186.275,92.539 183.838,91.365 C181.399,90.191 178.826,89.604 176.117,89.604 C173.227,89.604 170.518,90.259 167.989,91.569 C165.461,92.878 163.429,94.571 161.894,96.648 L132.271,136.51 L132.271,151.123 C132.854,151.289 133.472,151.372 134.126,151.372 C136.113,151.372 137.783,150.558 139.138,148.933 L170.969,106.672 C171.512,105.95 172.256,105.159 173.205,104.301 C174.152,103.443 175.123,103.015 176.117,103.015 C177.11,103.015 178.081,103.443 179.029,104.301 C179.978,105.159 180.767,105.95 181.399,106.672 L212.96,148.797 C214.224,150.513 215.939,151.372 218.107,151.372 C218.761,151.372 219.38,151.289 219.962,151.123 L219.962,136.585 z M219.962,151.123 L219.962,136.585 L222.712,140.264 C223.254,140.896 223.706,141.596 224.067,142.364 C224.429,143.131 224.609,143.966 224.609,144.87 C224.609,146.675 223.977,148.21 222.712,149.475 C221.906,150.282 220.989,150.831 219.962,151.123" fill="#02B2E0"/>
    <path d="M30.555,121.842 C30.555,123.648 31.187,125.184 32.451,126.448 C33.715,127.712 35.252,128.344 37.057,128.344 L88.393,128.344 C89.657,128.344 90.674,128.84 91.441,129.833 C92.209,130.827 92.593,132.001 92.593,133.356 C92.593,134.71 92.163,135.884 91.306,136.877 C90.448,137.871 89.477,138.368 88.393,138.368 L28.237,138.368 C25.076,138.368 22.526,137.802 20.584,136.674 C18.643,135.545 17.107,134.168 15.979,132.543 C14.85,130.917 14.083,129.134 13.676,127.193 C13.27,125.251 13.066,123.468 13.066,121.842 C13.066,120.216 13.27,118.433 13.676,116.492 C14.083,114.55 14.85,112.767 15.979,111.141 C17.107,109.516 18.644,108.137 20.584,107.01 C22.524,105.883 25.08,105.317 28.237,105.317 L130.416,105.317 C131.069,105.317 131.688,105.234 132.271,105.068 L132.271,92.562 C131.688,92.397 131.07,92.314 130.416,92.314 L25.257,92.314 C21.375,92.314 17.897,93.216 14.828,95.022 C11.757,96.828 9.138,99.154 6.971,101.999 C4.804,104.843 3.156,108.004 2.027,111.48 C0.898,114.957 0.333,118.411 0.333,121.842 C0.333,125.183 0.876,128.615 1.959,132.137 C3.043,135.659 4.601,138.841 6.633,141.686 C8.664,144.531 11.125,146.856 14.015,148.662 C16.904,150.468 20.201,151.372 23.903,151.372 L88.935,151.372 C91.192,151.372 93.315,150.942 95.302,150.084 C97.289,149.227 99.027,148.053 100.517,146.563 C102.007,145.073 103.158,143.312 103.971,141.28 C104.783,139.249 105.19,137.103 105.19,134.845 L105.19,131.866 C105.19,129.609 104.783,127.463 103.971,125.432 C103.158,123.399 102.007,121.639 100.517,120.149 C99.027,118.66 97.289,117.484 95.302,116.627 C93.316,115.77 91.193,115.341 88.935,115.341 L37.057,115.341 C35.25,115.341 33.715,115.973 32.451,117.237 C31.187,118.5 30.555,120.036 30.555,121.842 z M132.271,92.562 C133.299,92.854 134.215,93.403 135.021,94.209 C136.286,95.474 136.918,97.009 136.918,98.815 C136.918,100.622 136.286,102.156 135.021,103.421 C134.216,104.227 133.298,104.775 132.271,105.068 L132.271,92.562 z" fill="#004A79"/>
    <path d="M219.962,92.562 C218.936,92.854 218.019,93.403 217.212,94.209 C215.948,95.474 215.315,97.009 215.315,98.815 C215.315,100.622 215.948,102.156 217.212,103.421 C218.018,104.226 218.936,104.775 219.962,105.068 L219.962,92.562 z M219.962,105.068 C220.546,105.234 221.164,105.317 221.817,105.317 L335.224,105.317 C336.573,105.317 337.774,105.813 338.813,106.807 C339.852,107.8 340.371,108.975 340.371,110.329 C340.371,111.773 339.851,112.971 338.813,113.918 C337.775,114.865 336.578,115.341 335.224,115.341 L258.859,115.341 C255.407,115.341 252.582,118.165 252.582,121.618 L252.582,144.87 C252.582,146.675 253.215,148.21 254.479,149.475 C255.742,150.739 257.277,151.372 259.084,151.372 C260.8,151.372 262.312,150.739 263.622,149.475 C264.931,148.21 265.586,146.675 265.586,144.87 L265.586,128.344 L334.682,128.344 C337.209,128.344 339.581,127.87 341.793,126.921 C344.005,125.974 345.947,124.687 347.617,123.062 C349.288,121.437 350.598,119.54 351.546,117.372 C352.494,115.205 352.968,112.857 352.968,110.329 C352.968,107.8 352.494,105.452 351.546,103.285 C350.598,101.118 349.287,99.221 347.617,97.596 C345.947,95.971 344.003,94.681 341.793,93.735 C339.583,92.79 337.21,92.314 334.682,92.314 L221.817,92.314 C221.163,92.314 220.545,92.396 219.962,92.562 L219.962,105.068 z" fill="#004A79"/>
    <path d="M198.65,33.574 C206.046,36.401 217.459,39.481 225.045,35.445 C227.554,34.111 230.669,35.063 232.002,37.571 C233.335,40.08 232.382,43.193 229.874,44.528 C218.294,50.69 202.259,46.04 193.311,42.5 C195.651,39.758 197.636,36.771 198.65,33.574" fill="#004A79"/>
    <path d="M169.071,61.93 C161.125,68.668 147.54,79.326 132.945,86.968 C130.428,88.283 127.321,87.308 126.006,84.79 C124.693,82.272 125.668,79.166 128.185,77.851 C143.08,70.051 156.949,58.829 164.115,52.622 C163.594,57.046 165.539,60.137 169.071,61.93" fill="#004A79"/>
    <path d="M203.984,0.014 C209.668,-0.278 214.512,4.094 214.804,9.778 C215.095,15.459 210.724,20.305 205.04,20.596 C199.357,20.887 194.512,16.516 194.221,10.833 C193.93,5.15 198.301,0.305 203.984,0.014" fill="#004A79"/>
    <path d="M154.644,34.612 C152.011,35.684 149.008,34.418 147.935,31.785 C146.863,29.153 148.129,26.148 150.763,25.076 C150.871,25.031 189.096,9.162 195.584,24.801 C199.299,33.756 190.3,41.942 182.917,48.657 C181.892,49.59 180.912,50.48 180.064,51.263 C193.037,54.2 213.835,60.373 225.132,79.67 C226.562,82.129 225.73,85.283 223.271,86.713 C220.813,88.145 217.659,87.312 216.229,84.855 C205.999,67.381 184.764,62.773 173.996,60.485 C173.919,60.473 173.844,60.459 173.769,60.443 L173.575,60.402 L173.575,60.396 C167.995,59.206 166.279,56.24 167.193,51.944 C167.954,48.358 171.694,44.957 175.983,41.055 C180.95,36.537 186.114,31.358 185.159,29.054 C182.655,23.018 154.726,34.579 154.644,34.612" fill="#02B2E0"/>
    <path d="M136.462,214.882 C136.462,216.66 135.839,218.169 134.597,219.413 C133.353,220.655 131.844,221.277 130.068,221.277 C129.179,221.277 128.38,221.098 127.67,220.745 C126.959,220.389 126.293,219.945 125.672,219.413 C125.139,218.879 124.739,218.435 124.474,218.08 C120.833,213.552 117.081,209.999 113.218,207.424 C109.354,204.848 105.292,202.895 101.03,201.564 C96.767,200.231 92.261,199.41 87.51,199.098 C86.43,199.028 85.333,198.965 84.219,198.912 L84.208,198.912 C84.208,203.301 84.208,207.693 84.208,212.083 L84.208,215.162 C84.208,216.935 83.562,218.45 82.277,219.691 C80.991,220.932 79.502,221.556 77.815,221.556 C76.039,221.556 74.528,220.932 73.286,219.691 C72.045,218.45 71.42,216.938 71.42,215.162 L71.42,192.637 C71.42,189.055 74.352,186.124 77.934,186.124 L119.2,186.124 C120.53,186.124 121.708,185.658 122.73,184.725 C123.751,183.792 124.262,182.616 124.262,181.195 C124.262,179.863 123.749,178.707 122.73,177.732 C121.711,176.757 120.529,176.267 119.2,176.267 L77.815,176.267 C76.042,176.267 74.527,175.643 73.286,174.402 C72.045,173.161 71.42,171.648 71.42,169.873 C71.42,168.096 72.045,166.584 73.286,165.343 C74.527,164.103 76.04,163.479 77.815,163.479 L118.667,163.479 C121.152,163.479 123.486,163.947 125.66,164.877 C127.834,165.809 129.747,167.077 131.388,168.673 C133.03,170.271 134.32,172.139 135.251,174.268 C136.183,176.399 136.65,178.708 136.65,181.195 C136.65,183.681 136.183,185.991 135.251,188.122 C134.32,190.252 133.03,192.119 131.388,193.716 C129.747,195.313 127.836,196.582 125.66,197.513 C124.806,197.879 123.927,198.173 123.024,198.396 C123.446,198.713 123.863,199.036 124.273,199.366 C128.313,202.607 131.932,206.581 135.129,211.287 C136.018,212.442 136.462,213.64 136.462,214.882 z" fill="#004A79"/>
    <path d="M175.696,163.479 L167.7,163.479 C163.881,163.479 160.457,164.373 157.444,166.143 C154.429,167.914 151.844,170.209 149.717,173.002 C147.59,175.796 145.966,178.909 144.855,182.327 C143.746,185.747 143.19,189.143 143.19,192.517 C143.19,195.803 143.727,199.136 144.789,202.508 C145.851,205.879 147.387,208.946 149.384,211.699 C151.382,214.452 153.803,216.739 156.645,218.559 C159.486,220.379 162.728,221.378 166.368,221.556 L175.696,221.556 L175.696,208.768 L170.498,208.768 C167.389,208.768 164.875,208.208 162.971,207.103 C161.068,205.999 159.552,204.639 158.442,203.041 C157.333,201.442 156.577,199.688 156.178,197.78 C155.778,195.871 155.578,194.116 155.578,192.517 C155.578,190.919 155.782,189.162 156.178,187.256 C156.574,185.351 157.336,183.588 158.442,181.995 C159.548,180.399 161.062,179.041 162.971,177.931 C164.88,176.822 167.401,176.267 170.498,176.267 L175.696,176.267 L175.696,163.479 z M175.696,221.556 L175.696,208.768 L180.895,208.768 C183.914,208.768 186.405,208.208 188.354,207.103 C190.303,205.999 191.845,204.633 192.949,203.041 C194.055,201.448 194.819,199.682 195.214,197.78 C195.608,195.874 195.813,194.116 195.813,192.517 C195.813,190.919 195.614,189.165 195.214,187.256 C194.814,185.347 194.06,183.592 192.949,181.995 C191.84,180.397 190.303,179.036 188.354,177.931 C186.405,176.827 183.902,176.267 180.895,176.267 L175.696,176.267 L175.696,163.479 L185.024,163.479 C188.665,163.657 191.907,164.657 194.748,166.476 C197.589,168.295 200.01,170.583 202.008,173.336 C204.006,176.088 205.544,179.158 206.604,182.527 C207.664,185.895 208.201,189.232 208.201,192.517 C208.201,195.892 207.642,199.294 206.537,202.708 C205.432,206.122 203.806,209.235 201.675,212.032 C199.543,214.83 196.962,217.122 193.949,218.891 C190.935,220.663 187.499,221.556 183.692,221.556 L175.696,221.556" fill="#02B2E0"/>
    <path d="M0,192.517 C0,195.803 0.538,199.181 1.599,202.641 C2.661,206.1 4.201,209.239 6.194,212.032 C8.189,214.826 10.613,217.115 13.455,218.891 C16.297,220.668 19.548,221.556 23.178,221.556 L58.741,221.556 C60.507,221.556 62.028,220.933 63.27,219.691 C64.513,218.449 65.135,216.938 65.135,215.162 C65.135,213.386 64.513,211.876 63.27,210.633 C62.027,209.39 60.517,208.768 58.741,208.768 L27.308,208.768 C24.2,208.768 21.685,208.208 19.782,207.103 C17.877,205.999 16.363,204.639 15.252,203.041 C14.143,201.442 13.388,199.688 12.988,197.78 C12.589,195.87 12.389,194.116 12.389,192.517 C12.389,190.919 12.592,189.162 12.988,187.256 C13.384,185.35 14.147,183.588 15.252,181.995 C16.359,180.4 17.873,179.041 19.782,177.931 C21.69,176.822 24.21,176.267 27.308,176.267 L58.741,176.267 C60.507,176.267 62.028,175.643 63.27,174.402 C64.513,173.16 65.135,171.648 65.135,169.873 C65.135,168.096 64.513,166.586 63.27,165.343 C62.027,164.1 60.517,163.479 58.741,163.479 L24.511,163.479 C20.692,163.479 17.268,164.372 14.254,166.143 C11.238,167.914 8.655,170.209 6.528,173.002 C4.4,175.796 2.776,178.909 1.666,182.327 C0.556,185.747 0,189.143 0,192.517 z" fill="#004A79"/>
    <path d="M304.966,198.912 L335.985,198.912 C337.288,198.912 338.487,199.414 339.449,200.376 C340.41,201.338 340.914,202.552 340.914,203.973 C340.914,205.305 340.41,206.453 339.449,207.37 C338.487,208.288 337.317,208.768 335.985,208.768 L297.641,208.768 C295.864,208.768 294.353,209.392 293.111,210.633 C291.87,211.874 291.246,213.386 291.246,215.162 C291.246,216.938 291.868,218.448 293.111,219.691 C294.354,220.934 295.895,221.556 297.641,221.556 L335.452,221.556 C337.909,221.556 340.283,221.098 342.446,220.224 C344.608,219.35 346.523,218.078 348.107,216.495 C349.69,214.911 350.985,213.016 351.903,210.9 C352.82,208.783 353.302,206.459 353.302,203.973 C353.302,201.487 352.835,199.154 351.903,196.98 C350.973,194.805 349.704,192.916 348.107,191.319 C346.511,189.721 344.606,188.44 342.446,187.522 C340.285,186.605 337.938,186.124 335.452,186.124 L304.7,186.124 C303.369,186.124 302.177,185.621 301.17,184.659 C300.164,183.697 299.638,182.527 299.638,181.195 C299.638,179.775 300.162,178.584 301.17,177.665 C302.178,176.746 303.398,176.267 304.7,176.267 L342.912,176.267 C344.658,176.267 346.2,175.643 347.441,174.402 C348.683,173.161 349.306,171.648 349.306,169.873 C349.306,168.096 348.684,166.586 347.441,165.343 C346.197,164.1 344.687,163.479 342.912,163.479 L304.966,163.479 C302.479,163.479 300.171,163.945 298.04,164.877 C295.908,165.81 294.032,167.086 292.446,168.673 C290.858,170.26 289.582,172.137 288.649,174.268 C287.717,176.4 287.25,178.708 287.25,181.195 C287.25,183.681 287.727,186 288.649,188.122 C289.571,190.243 290.849,192.12 292.446,193.716 C294.043,195.314 295.923,196.595 298.04,197.513 C300.156,198.43 302.51,198.912 304.966,198.912 z" fill="#004A79"/>
    <path d="M234.13,198.912 L265.148,198.912 C266.458,198.912 267.644,199.409 268.611,200.376 C269.579,201.344 270.076,202.552 270.076,203.973 C270.076,205.305 269.577,206.448 268.611,207.37 C267.645,208.291 266.479,208.768 265.148,208.768 L226.804,208.768 C225.027,208.768 223.517,209.391 222.275,210.633 C221.033,211.874 220.409,213.386 220.409,215.162 C220.409,216.938 221.031,218.448 222.275,219.691 C223.518,220.934 225.049,221.556 226.804,221.556 L264.615,221.556 C267.08,221.556 269.443,221.101 271.608,220.224 C273.773,219.347 275.683,218.083 277.27,216.495 C278.857,214.907 280.144,213.02 281.065,210.9 C281.987,208.779 282.465,206.459 282.465,203.973 C282.465,201.487 281.996,199.155 281.065,196.98 C280.135,194.805 278.868,192.917 277.27,191.319 C275.671,189.72 273.773,188.444 271.608,187.522 C269.443,186.6 267.102,186.124 264.615,186.124 L233.863,186.124 C232.531,186.124 231.344,185.624 230.333,184.659 C229.323,183.693 228.802,182.527 228.802,181.195 C228.802,179.775 229.321,178.588 230.333,177.665 C231.346,176.742 232.553,176.267 233.863,176.267 L272.075,176.267 C273.829,176.267 275.362,175.643 276.604,174.402 C277.846,173.16 278.468,171.648 278.468,169.873 C278.468,168.096 277.847,166.586 276.604,165.343 C275.36,164.1 273.851,163.479 272.075,163.479 L234.13,163.479 C231.644,163.479 229.334,163.945 227.203,164.877 C225.072,165.81 223.199,167.084 221.609,168.673 C220.019,170.264 218.745,172.137 217.812,174.268 C216.88,176.4 216.413,178.708 216.413,181.195 C216.413,183.681 216.888,185.999 217.812,188.122 C218.737,190.246 220.013,192.121 221.609,193.716 C223.205,195.312 225.082,196.591 227.203,197.513 C229.323,198.434 231.665,198.912 234.13,198.912 z" fill="#004A79"/>
</svg>