<svg xmlns="http://www.w3.org/2000/svg" viewBox="0 0 674.97 237.6"><g id="Layer_2" data-name="Layer 2"><g id="Layer_1-2" data-name="Layer 1"><path d="M29.68,154.93a29.68,29.68,0,1,1,0,59.36v-4.36a25.32,25.32,0,0,0,0-50.64Zm0,0h0v4.36h0a25.32,25.32,0,0,0,0,50.64h0v4.36h0a29.68,29.68,0,0,1,0-59.36Z" style="fill:#33803a;fill-rule:evenodd"/><path d="M257.46,169.15V147.37c0-2.87-1.18-4.83-5-4.83H224.85c-5.48,0-6.13,8.61,0,8.61h23.48V168.5c-5.74,7.7-15.78,11.87-25.44,11.74-16.82-.39-31.69-15.78-31.95-34.17,0-17.09,12.52-29.74,26.87-33.13,9.78-2.48,21.91.52,29.21,9,4,4.69,10.7-1.57,6.79-6.13-7.18-8.35-19.31-12.26-30.66-12.26a54.6,54.6,0,0,0-6.78.39c-20,3.78-34.82,21.91-34.82,41.74-.53,24.65,18.78,43.32,41.21,43.45,12.65.13,25.57-5.5,33.26-15.67A6,6,0,0,0,257.46,169.15Z" style="fill:#33803a"/><path d="M305.65,189.49l1.37,0c7.7,0,17.35-4.32,21.13-11.87v6.24a4.34,4.34,0,0,0,4.7,4.72,4.5,4.5,0,0,0,4.82-4.72V126.11a4.55,4.55,0,0,0-4.82-4.7,4.39,4.39,0,0,0-4.7,4.7v5c-4.69-7.7-13.17-10-20.61-10.18-.63,0-1.26,0-1.89,0v9.05c.59,0,1.18-.05,1.76,0,11.74.52,20.74,7.15,20.74,20.05v10.28c-.65,13-10,20.3-22,20.3l-.46,0Zm-11.93-66.25c-12.52,4.83-19.83,16.94-20.09,30.07,0,.12,0,.25,0,.38v2c.27,11.76,5.32,21.89,14.62,28.23a32.62,32.62,0,0,0,17.41,5.6v-9a25.18,25.18,0,0,1-13-4.91c-7-5.85-9.78-13.66-9.52-22.13a28.26,28.26,0,0,1,2-9.63c3.42-8.54,11.88-13.41,20.54-13.88v-9.05a30.06,30.06,0,0,0-12.06,2.49Z" style="fill:#33803a"/><path d="M366.89,125.85c0-6.26-9.26-5.74-9.26,0v57.78a4.48,4.48,0,0,0,4.83,4.59,4.58,4.58,0,0,0,4.69-4.59V154.15c0-13.17,5.74-23.87,19.17-23.87,3,0,5-1.56,5-4.43s-2-4.57-5-4.57c-7.43,0-15.26,2.35-19.43,11.09Z" style="fill:#33803a"/><path d="M430,189.49l1.37,0c7.7,0,17.35-4.32,21.13-11.87v6.24a4.34,4.34,0,0,0,4.7,4.72,4.51,4.51,0,0,0,4.83-4.72V126.11a4.56,4.56,0,0,0-4.83-4.7,4.39,4.39,0,0,0-4.7,4.7v5c-4.69-7.7-13.17-10-20.6-10.18-.64,0-1.27,0-1.9,0v9.05c.59,0,1.18-.05,1.77,0,11.73.52,20.73,7.15,20.73,20.05v10.28c-.65,13-10,20.3-22,20.3l-.46,0ZM418,123.24c-12.52,4.83-19.83,16.94-20.09,30.07v2.39c.28,11.74,5.33,21.86,14.62,28.19a32.62,32.62,0,0,0,17.41,5.6v-9a25.15,25.15,0,0,1-13-4.91c-7.05-5.85-9.79-13.66-9.53-22.13a28.5,28.5,0,0,1,2-9.63c3.42-8.54,11.88-13.41,20.54-13.88v-9.05a30.06,30.06,0,0,0-12.06,2.49Z" style="fill:#33803a"/><path d="M536.71,184.15c0,2.87,2,4.59,4.83,4.59s4.69-1.72,4.69-4.59V149.59c0-18.78-14.47-29.22-29.6-29.22-10.18,0-20.22,4-24.92,13.57v-8.09c0-6.26-9.39-6.13-9.39-.13v58.43c0,2.87,2,4.59,5,4.59S492,187,492,184.15V153.89a24.77,24.77,0,0,1,24.53-24.65,20.17,20.17,0,0,1,20.21,20.35Z" style="fill:#33803a"/><path d="M579.62,121.55V106.42c0-6.14-9.39-6.27-9.39,0v15.13h-8.6c-5.77,0-6.16,8.21,0,8.21h8.6V165c0,12.39,3.79,23.89,19.44,23.89a19.29,19.29,0,0,0,10-2.24c5.87-3.26,1.57-11-3.91-7.83a14.57,14.57,0,0,1-6.13,1.44c-8.87,0-10-7.83-10-15.26V129.76h14.22a4.12,4.12,0,1,0,0-8.21Z" style="fill:#33803a"/><path d="M614.32,184.54c0,5.63,9.52,5.76,9.52,0V125.72c0-5.61-9.52-5.48-9.52.13v58.69ZM624,105.89c0-6-9.78-6-9.78,0v5.87c0,6,9.78,5.87,9.78,0Z" style="fill:#33803a"/><path d="M650.58,125.85c0-6.26-9.26-5.74-9.26,0v57.78a4.48,4.48,0,0,0,4.83,4.59,4.58,4.58,0,0,0,4.69-4.59V154.15c0-13.17,5.74-23.87,19.17-23.87,3,0,5-1.56,5-4.43s-2-4.57-5-4.57c-7.43,0-15.26,2.35-19.43,11.09Z" style="fill:#33803a"/><path d="M154.55,119.31v2.33l-9.85,0C148,120.72,151.24,119.94,154.55,119.31Z" style="fill:#33803a;fill-rule:evenodd"/><path d="M86.27,144.87c15.47-.41,49-.8,63.36-1.17v0l4.92-.13v58c0,11.76-7.8,22.35-17.52,23.59L91.4,230.94l-51.12,6.5c-12.57,1.59-23.07-8.35-23.07-22.16v-3.74a29.7,29.7,0,0,0,23,.84V213l.11.11L91.38,208,137,203.42a.18.18,0,0,0,.08-.12V166.47l-50.63,2.74Q86.46,157,86.27,144.87Z" style="fill:#343434;fill-rule:evenodd"/><path d="M89.76.24l1.64.2h0C117.67,4.23,138,31.39,138,60.93V76.21c9.28,1.14,16.59,11,16.59,22.32v32.68a122.2,122.2,0,0,0-17.46.3V98a.3.3,0,0,0-.06-.11h0L91.38,96.45l-1.62,0v-23l1.62.1L127,75.54c0-5.14,0-10.29,0-15.46,0-22.57-15.61-43-35.54-45.6h0c-.55-.07-1.09-.12-1.64-.16ZM17.21,157.68V94.25c0-13.36,9.87-23.82,21.88-23.81V53.28c0-32.53,23.38-55.94,50.67-53V14.32c-20.22-1.57-37.2,16-37.2,40V71.2l37.2,2.17v23L40.28,94.85a.21.21,0,0,0-.11.12v61.87a29.7,29.7,0,0,0-23,.84Z" style="fill:#33803a;fill-rule:evenodd"/><path d="M12.13,177.76c4.14,7.71,6.08,11.24,10.24,18.93,10.32-12.57,26.5-23,29.79-26.14,0,0-26.63,14.61-29.7,16C18,183.05,16.9,181.52,12.13,177.76Z" style="fill:#33803a;fill-rule:evenodd"/></g></g></svg>