<?xml version="1.0" ?>
<svg xmlns="http://www.w3.org/2000/svg" viewBox="0 0 1401 1562">
	<style>
		.s0 { fill: #000000 } 
	</style>
	<path id="Layer" class="s0" d="m909.1 708.9l-230.5 260h395.3v18c0 111.2-43.1 196.3-127.9 252.8-57.4 38.4-124.1 56.3-209.8 56.3-106.1 0-192.9-38.7-265.7-118.5-83.3-87.7-125.8-217.2-125.8-384.4 0-319.9 156.3-510.8 418.1-510.8 101.2 0 184.7 29.2 255.6 89.5 10.9 9.3 21 19 30.5 28.8l3 3c4.2 4.4 8.3 8.9 12.1 13.3l1.5 1.7c19.8 23 35.7 46.8 50.2 74.8 3.7 7.1 12.9 26.6 12.9 26.6l268-137.2c0 0-6.9-14.1-11.2-21.3-32.9-56.5-82.6-130.3-174.9-201.5l-5.8-4.4c-134.5-103-292.6-155.3-470-155.3-439.5 0-734.7 318.2-734.7 791.8 0 224.4 62.2 416.2 179.9 554.4 119.7 140.8 289.2 215.2 490 215.2 252.9 0 363.5-64.7 438.3-127.9l29.6-25v117.5h262.6v-817.4h-491.1z"/>
</svg>