<?xml version="1.0" ?>
<!-- Created with Inkscape (http://www.inkscape.org/) -->
<svg xmlns="http://www.w3.org/2000/svg" viewBox="0 0 235.71875 36.0625" version="1.1" id="svg4215">
	<g transform="translate(-90.71875,-465.75)" id="layer1">
		<path d="m 108.59375,466.75 -5,8.46875 4.875,8.3125 -8.28125,-4.8125 -8.46875,5.0625 8.46875,5.09375 8.28125,-4.9375 -4.875,8.46875 5,8.40625 5,-8.40625 -4.84375,-8.46875 8.25,4.9375 8.46875,-5.09375 -8.46875,-5.0625 -8.25,4.8125 4.84375,-8.3125 -5,-8.46875 z m 30.4375,10.21875 c -1.81625,0 -3.2675,0.17875 -4.375,0.53125 -1.10875,0.35125 -1.9525,0.9375 -2.5,1.71875 -0.34125,0.46875 -0.64625,1.0275 -0.90625,1.6875 -0.25875,0.65875 -0.52875,1.59 -0.8125,2.78125 -0.24375,1.065 -0.34375,1.8375 -0.34375,2.375 0,1.24 0.45375,2.18625 1.40625,2.78125 0.95125,0.59625 2.41125,0.875 4.375,0.875 1.035,0 2.11375,-0.0663 3.1875,-0.21875 1.07375,-0.15125 2.0725,-0.3625 3,-0.65625 l 1.40625,-5.375 -5.21875,0 -0.78125,3.0625 c -0.34125,0.0688 -0.5463,0.125 -0.625,0.125 -0.9175,0 -1.375,-0.51375 -1.375,-1.5 0,-1.40625 0.4075,-2.44125 1.21875,-3.125 0.81,-0.68375 2.05125,-1.03125 3.75,-1.03125 1.01625,0 2.22625,0.12125 3.59375,0.375 l 0.9375,-3.6875 c -0.8,-0.23375 -1.69875,-0.40875 -2.71875,-0.53125 -1.02125,-0.1212 -2.105,-0.1875 -3.21875,-0.1875 z m 127.6875,0.0625 c -1.94375,0 -3.43875,0.24125 -4.46875,0.6875 -1.03125,0.44375 -1.84125,1.18625 -2.4375,2.28125 -0.42,0.7925 -0.765,1.7675 -1.0625,2.90625 -0.2975,1.13875 -0.46875,2.14875 -0.46875,3 0,0.9575 0.22,1.69875 0.625,2.25 0.405,0.5525 1.035,0.9475 1.9375,1.1875 0.90375,0.24 2.18,0.375 3.78125,0.375 1.12375,0 2.045,-0.0875 2.8125,-0.21875 0.76625,-0.1325 1.4675,-0.33125 2.0625,-0.625 0.59625,-0.2925 1.09375,-0.68125 1.5,-1.15625 0.405,-0.47375 0.7475,-1.065 1.03125,-1.75 0.3125,-0.7525 0.58875,-1.64125 0.8125,-2.6875 0.225,-1.045 0.3125,-1.8875 0.3125,-2.5625 0,-0.93 -0.18875,-1.65875 -0.59375,-2.1875 -0.40625,-0.5275 -1.0725,-0.92625 -2,-1.15625 -0.9275,-0.23 -2.20375,-0.34375 -3.84375,-0.34375 z m 53.09375,0 c -0.88875,0 -1.74,0.0512 -2.53125,0.125 -0.79125,0.0725 -1.4675,0.16625 -2.0625,0.3125 -0.59625,0.1475 -1.09,0.32625 -1.5,0.53125 -0.655,0.3225 -1.21,0.91875 -1.625,1.8125 -0.415,0.89375 -0.625,1.8725 -0.625,2.9375 0,0.96625 0.33625,1.6625 1,2.0625 0.37125,0.20625 0.75125,0.34745 1.15625,0.40625 0.405,0.0588 1.145,0.0838 2.21875,0.0937 l 1.59375,0 c 0.38125,0 0.5625,0.1325 0.5625,0.375 0,0.5175 -1.02125,0.78125 -3.0625,0.78125 -1.17125,0 -2.5525,-0.13 -4.125,-0.34375 l -0.75,3.125 c 1.3675,0.24375 2.64125,0.39995 3.8125,0.46875 0.7325,0.0487 1.40625,0.0625 2.03125,0.0625 2.1975,0 3.95,-0.20625 5.21875,-0.625 0.87,-0.31125 1.54875,-0.8575 2.03125,-1.65625 0.48375,-0.79875 0.71875,-1.8 0.71875,-2.96875 0,-0.41 -0.0775,-0.77125 -0.21875,-1.09375 -0.1425,-0.32125 -0.35125,-0.6025 -0.625,-0.8125 -0.2725,-0.21 -0.585,-0.30375 -0.9375,-0.34375 C 321.84,482.23255 321.3,482.1875 320.5,482.1875 l -2.5,0 c -0.5075,0 -0.78125,-0.15625 -0.78125,-0.46875 0,-0.5475 1.10125,-0.8125 3.25,-0.8125 1.08375,0 2.42,0.0725 4.03125,0.21875 l 0.9375,-3.6875 c -0.47875,-0.0875 -0.97625,-0.16495 -1.46875,-0.21875 -0.49375,-0.0537 -1.09875,-0.0962 -1.8125,-0.125 -1.19125,-0.0388 -1.9725,-0.0625 -2.34375,-0.0625 z m -13.53125,0.125 c -1.83625,0 -3.265,0.19625 -4.28125,0.5625 -1.015,0.365 -1.81,0.98625 -2.40625,1.875 -0.53625,0.76 -0.95875,1.74875 -1.28125,2.96875 -0.3225,1.21875 -0.5,2.425 -0.5,3.625 0,0.83875 0.175,1.52625 0.53125,2.0625 0.35625,0.53625 0.92125,0.91125 1.6875,1.15625 0.76625,0.2425 1.77875,0.375 3,0.375 1.06375,0 2.0925,-0.0725 3.09375,-0.21875 1.00125,-0.14625 1.90875,-0.34 2.71875,-0.59375 l 0.84375,-3.625 c -1.68,0.42 -3.08625,0.625 -4.21875,0.625 -0.77125,0 -1.3175,-0.0863 -1.625,-0.28125 -0.3075,-0.195 -0.46875,-0.555 -0.46875,-1.0625 0,-1.005 0.385,-1.7975 1.15625,-2.34375 0.77125,-0.5475 1.8775,-0.8125 3.3125,-0.8125 0.77125,0 1.68375,0.12 2.71875,0.34375 l 1,-4.09375 c -0.99625,-0.215 -1.89875,-0.3537 -2.71875,-0.4375 -0.82,-0.0826 -1.68375,-0.125 -2.5625,-0.125 z m -108.6875,0.25 -2.4375,0.0312 -7.34375,0 -3.09375,11.875 5.28125,0 0.9375,-3.59375 2.3125,3.59375 11.1875,0 1.03125,-1.625 4.34375,0 0,1.625 5,0 0,-11.875 -8.6875,0 -7.0625,11.6875 -2.90625,-4.4375 c 0.81125,0 1.45,-0.0612 1.875,-0.1875 0.425,-0.1275 0.795,-0.4 1.15625,-0.78125 0.39125,-0.42 0.69125,-0.93875 0.90625,-1.59375 0.215,-0.65375 0.34375,-1.37375 0.34375,-2.125 0,-0.91875 -0.2425,-1.55875 -0.6875,-1.96875 -0.44375,-0.41 -1.16,-0.625 -2.15625,-0.625 z m -51.125,0.0312 -3.09375,11.875 11.90625,0 0.78125,-3.125 -6.90625,0 0.3125,-1.25 6.9375,0 0.625,-2.40625 -6.96875,0 0.375,-1.34375 6.9375,0 0.96875,-3.75 -11.875,0 z m 13.1875,0 -3.09375,11.875 5.0625,0 1.5,-6.1875 1.5625,6.1875 5.5625,0 3.0625,-11.875 -5.0625,0 -1.6875,6.75 -1.4375,-6.75 -5.46875,0 z m 14.96875,0 -3.0625,11.875 11.875,0 0.8125,-3.125 -6.9375,0 0.3125,-1.25 6.9375,0 0.625,-2.40625 -6.9375,0 0.34375,-1.34375 6.9375,0 0.96875,-3.75 -11.875,0 z m 43.78125,0 -3.09375,11.875 10,0 1.09375,-4.125 -5,0 2.0625,-7.75 -5.0625,0 z m 19.4375,0 -6.9375,11.84375 5.4375,0 0.96875,-1.59375 4.34375,0 0,1.59375 4.90625,0 0,-11.84375 -8.71875,0 z m 10.40625,0 -1.0625,3.9375 3.125,0 -2.03125,7.90625 5.15625,0 2.03125,-7.90625 3,0 1.0625,-3.9375 -11.28125,0 z m 26.84375,0 -3.09375,11.875 4.9375,0 1.78125,-6.8125 0.5,6.8125 2.84375,0 4,-6.6875 -1.78125,6.6875 4.96875,0 3.09375,-11.875 -6.90625,0 -3.4375,6.40625 -0.40625,-6.40625 -6.5,0 z m 18.4375,0 -2.96875,11.875 5.03125,0 3.09375,-11.875 -5.15625,0 z m -83.78125,3.09375 0.0937,4.15625 -2.625,0 2.53125,-4.15625 z m 31.90625,0 0,4.125 -2.53125,0 2.53125,-4.125 z m -49.46875,0.3125 1.28125,0 c 0.7425,0 1.2375,0.0587 1.4375,0.15625 0.2,0.0975 0.28125,0.305 0.28125,0.65625 0,0.27375 -0.0437,0.52625 -0.15625,0.75 -0.1125,0.225 -0.26125,0.41375 -0.4375,0.53125 -0.11625,0.0774 -0.32125,0.12625 -0.59375,0.15625 -0.27375,0.0287 -0.68125,0.0312 -1.21875,0.0312 l -1.1875,0 0.59375,-2.28125 z m 74,0.375 c 1.045,0 1.59375,0.34 1.59375,1.0625 0,1.095 -0.26375,2.03875 -0.78125,2.78125 -0.51875,0.74125 -1.1875,1.09375 -1.96875,1.09375 -1.045,0 -1.5625,-0.375 -1.5625,-1.15625 0,-1.035 0.28,-1.945 0.8125,-2.6875 0.5325,-0.7425 1.15375,-1.09375 1.90625,-1.09375 z" id="path3060" style="fill:#000000;fill-opacity:1;fill-rule:nonzero;stroke:none"/>
	</g>
</svg>