<?xml version="1.0" ?>
<svg xmlns="http://www.w3.org/2000/svg" viewBox="0 0 50 50" fill="none">
	<path d="M34.8701 14.7819C35.2031 15.0483 35.5927 15.2481 35.9157 15.5245C39.582 18.648 41.1139 22.5841 40.2947 27.3527C39.9217 29.5238 38.9527 31.4686 37.4375 33.0603C35.4029 35.1915 32.8421 36.2205 29.895 36.2405C26.9913 36.2605 24.0842 36.2704 21.1804 36.2305C20.2214 36.2172 19.249 36.1073 18.3099 35.9075C13.4182 34.8685 10.1614 30.4662 9.84505 25.7176C9.67189 23.1236 10.3512 20.7493 11.8697 18.6514C14.0975 15.5778 17.1911 14.006 20.9406 13.7862C23.0352 13.663 25.1431 13.7329 27.2444 13.713C27.4775 13.713 27.7072 13.713 27.9603 13.713V16.6567C27.4042 16.6567 26.9213 16.6434 26.4385 16.6567C24.3972 16.7233 22.3459 16.4935 20.3113 16.8165C17.9137 17.1961 15.909 18.2884 14.4538 20.2398C12.8088 22.4442 12.6556 24.9484 13.3116 27.5158C13.9676 30.0766 15.6126 31.7949 18.0602 32.7773C19.5654 33.3833 21.1471 33.5465 22.7355 33.5765C25.5061 33.6297 28.28 33.5931 31.0539 33.5998C31.1704 33.5998 31.2903 33.5998 31.4069 33.5998C31.4169 33.5998 31.4235 33.5998 31.4302 33.5998H31.7232V33.3733C31.7232 33.3334 31.7266 33.2901 31.7232 33.2401C31.7232 33.2068 31.7232 33.1735 31.7232 33.1369V32.3177C31.7166 29.7603 31.7232 27.1995 31.7232 24.642C31.7232 24.1758 31.7232 23.713 31.7232 23.2335C31.0905 23.2335 30.5244 23.2335 29.9616 23.2335C27.4874 23.2335 25.0099 23.2401 22.5357 23.2301C22.256 23.2301 22.1827 23.31 22.1861 23.5831C22.2061 24.5521 22.216 25.5212 22.1994 26.4869C22.1927 26.8465 22.3026 26.9664 22.6723 26.9631C24.304 26.9464 25.9357 26.9564 27.5674 26.9564H27.9936C27.9936 27.9188 27.9936 28.8279 27.9936 29.737C27.9936 30.0233 27.907 30.1532 27.584 30.1499C25.7159 30.1366 23.8477 30.1699 21.9829 30.1466C19.0758 30.1133 17.0445 28.2917 16.8014 25.5378C16.5683 22.9005 18.0868 20.8092 20.631 20.4329C21.7032 20.2731 22.8088 20.323 23.901 20.3164C26.3619 20.303 29.2657 20.303 31.7266 20.323V19.1708C31.7532 16.3936 31.6899 13.5298 31.7266 10.7459V10H31.1904C27.9137 10.02 24.7302 9.98668 21.4535 10.0233C20.4078 10.0333 19.3489 10.1166 18.3233 10.3164C15.1797 10.9257 12.4491 12.3177 10.198 14.6554C7.81042 17.1395 6.41514 20.0633 6.08214 23.4865C5.72916 27.1096 6.50505 30.4762 8.57965 33.4899C11.61 37.8855 15.9723 39.7836 21.1604 39.9568C23.9776 40.05 26.8015 39.9634 29.6253 39.9634C30.8175 39.9634 32.0063 39.9001 33.1618 39.6071C37.654 38.4682 40.8341 35.721 42.8688 31.6051C44.5671 28.1652 44.8002 24.5621 43.8112 20.9091C42.5324 16.1838 39.5721 12.8305 35.1198 10.7925C34.9966 10.7359 34.8668 10.6993 34.6903 10.636L34.6436 10.6227V11.0823C34.637 12.1712 34.6436 13.2401 34.6436 14.3423V14.6254L34.8468 14.7652" fill="#81C14A"/>
</svg>