<?xml version="1.0" ?>
<svg xmlns="http://www.w3.org/2000/svg" viewBox="0 0 600 600">
	<path d="M 486.7,100.0 L 486.7,280.1 C 486.7,397.3 422.3,490.8 299.7,536.0 C 177.1,490.8 112.7,397.3 112.7,280.1 L 112.7,100.0 L 486.7,100.0 M 450.7,136.0 L 148.8,136.0 L 148.8,280.1 C 148.8,378.2 199.4,455.6 299.8,497.7 C 400.2,455.6 450.8,378.2 450.8,280.1 L 450.8,136.0 L 450.7,136.0 M 232.3,217.2 L 232.3,280.0 C 232.3,335.9 251.5,377.3 299.7,405.7 C 342.6,380.4 363.3,345.9 367.9,299.2 L 278.3,299.2 L 278.3,261.7 L 407.0,261.7 L 407.0,280.1 C 407.0,353.7 371.8,411.9 299.7,447.9 C 228.4,411.9 194.0,353.7 194.0,280.1 L 194.0,179.7 L 407.0,179.7 L 407.0,217.2 L 232.3,217.2 L 232.3,217.2" style="fill:#0041ed"/>
</svg>