<?xml version="1.0" ?>
<svg xmlns="http://www.w3.org/2000/svg" viewBox="133.54 131.54 855.92 525.92">
	<title>GerritForge.Logo (2).svg</title>
	<defs>
		<clipPath id="a">
			<path d="M0 595h842V0H0z"/>
		</clipPath>
	</defs>
	<g transform="matrix(1.33333 0 0 -1.33333 0 793.333)">
		<path fill="#fff" fill-opacity="1" fill-rule="nonzero" stroke="none" d="M.819 2.765H842V595H.819z"/>
		<g clip-path="url(#a)">
			<path fill="#f14a22" fill-opacity="1" fill-rule="nonzero" stroke="none" d="M148.425 135.103c-24.121 0-35.44 21.03-35.44 42.765 0 23.21 12.915 43.105 37.854 43.105 17.484 0 29.572-10.436 33.042-27.431h-18.95c-2.132 6.891-6.956 12.575-14.69 12.575-14.703 0-16.791-17.224-16.791-28.368 0-11.895 2.677-27.671 17.728-27.671 8.034 0 14.646 5.608 14.975 13.814l.119 2.697h-16.91v14.035h35.099v-26.095c-7.827-12.049-18.863-19.426-36.036-19.426m106.112 19.904c-4.229-13.769-16.388-20.544-30.288-20.544-19.06 0-31.884 13.433-31.884 32.344 0 18.888 13.848 32.584 32.703 32.584 19.609 0 29.827-14.508 29.827-33.042v-2.516h-43.342c0-8.642 3.664-16.67 13.395-16.67 5.321 0 9.845 2.838 11.761 7.844zm-42.747 18.888l24.438.06c-.139 7.685-3.953 13.735-12.219 13.735-8.037 0-11.814-6.489-12.219-13.795m141.313 23.858h18.427v-61.592h-18.427zm0 21.542h18.427v-13.636h-18.427zm-69.996-21.542v-7.802c2.989 6.127 8.158 9.44 15.094 9.44 1.013 0 2.097-.042 3.093-.24V182.54c-1.228 0-2.456.241-3.693.241-9.623 0-14.423-7.182-14.494-16.192v-30.428h-17.849v61.592zm42.044 0h1.939v-7.802c2.987 6.127 8.158 9.44 15.093 9.44 1.013 0 2.097-.042 3.093-.24V182.54c-1.228 0-2.456.241-3.692.241-9.624 0-14.423-7.182-14.494-16.192v-30.428h-17.85v61.592zm63.052-41.585v29.587h-9.944v11.998h9.944v21.542h17.847v-21.542h9.723v-11.998h-9.723v-27.672c0-5.693.996-9.703 7.428-9.703 2.244 0 4.485.3 6.666.818l.063-13.396c-3.86-.761-7.818-1.339-11.761-1.339-14.408 0-20.243 7.793-20.243 21.705"/>
			<path fill="#f14a22" fill-opacity="1" fill-rule="evenodd" stroke="none" d="M479.462 397.617c-2.082 0-3.769-1.69-3.769-3.772s1.687-3.769 3.769-3.769 3.772 1.687 3.772 3.769-1.69 3.772-3.772 3.772m29.193-1.344c16.397-15.629 19.377-44.089 12.06-65.613-14.259-41.934-55.827-60.876-101.775-55.57-44.376 5.123-83.936 36.395-94.028 81.139-3.777 16.752-3.835 36.988.838 50.799.177.534.37 1.074.564 1.61-3.706-17.678-2.782-35.239 2.155-51.253 12.618-40.949 48.621-66.687 89.654-71.166 24.48-2.666 68.704 4.026 80.497 31.822 10.899 25.687-8.171 48.808-33.558 55.079l-.519.927c-.847 1.516 2.516 3.112 6.083 4.085 2.775.757 5.667 1.065 6.903 1.165-1.826.567-3.366 1.022-5.354 2.649-4.244 3.474-6.808 11.58-14.452 12.172.128.22.242.421.324.579 11.818 16.173 37.177 14.373 50.608 1.576"/>
			<path fill="#2f7db8" fill-opacity="1" fill-rule="nonzero" stroke="none" d="M519.056 146.923c10.277 0 11.976 12.184 11.976 20.006 0 7.8-1.695 20.122-11.976 20.122-10.387 0-11.88-12.264-11.88-20.122 0-7.92 1.456-20.006 11.88-20.006m0-12.459c-18.941 0-31.069 13.984-31.069 32.465 0 18.523 12.086 32.462 31.069 32.462 18.995 0 31.103-13.911 31.103-32.462 0-18.552-12.106-32.465-31.103-32.465m99.186 3.632l21.46-1.234c3.393-.197 8.624-.944 8.624-5.393 0-7.293-11.25-6.967-16.03-6.967-5.026 0-18.09-.269-18.09 7.567 0 2.761 1.681 4.781 4.036 6.027m12.578 51.111c6.027 0 10.058-4.166 10.058-10.162 0-6.174-3.842-10.181-10.058-10.181-6.176 0-10.064 4.045-10.064 10.181 0 5.928 4.099 10.162 10.064 10.162m-17.949-25.133c-5.965-2.045-10.883-5.903-10.883-12.699 0-5.166 4.815-9.89 9.581-11.363-11.19-.231-17.524-12.272-8.253-19.753 7.364-5.941 21.536-6.157 29.199-6.157 12.317 0 32.126 2.952 32.126 19.183 0 11.767-11.278 16.715-21.464 17.151l-18.787.819c-6.962.292-8.08 6.367-2.297 8.904 3.095-.828 6.412-.998 9.602-.998 12.317 0 26.094 5.091 26.094 19.524 0 5.525-2.575 10.219-6.427 14.038.974 3.806 4.587 4.371 8.006 4.371 1.321 0 2.999.072 4.274-.238l.399 12.698c-1.991.193-4.033.298-6.031.298-8.716 0-13.859-4.411-14.833-13.117-4.029 1.58-8.377 2.296-12.697 2.296-12.324 0-27.094-5.732-27.094-20.224 0-6.548 3.87-11.697 9.485-14.733m116.674-9.068c-4.229-13.771-16.383-20.542-30.287-20.542-19.06 0-31.883 13.435-31.883 32.343 0 18.894 13.845 32.584 32.702 32.584 19.613 0 29.827-14.504 29.827-33.044v-2.513h-43.341c0-8.637 3.671-16.67 13.395-16.67 5.327 0 9.838 2.84 11.757 7.842zm-151.292 42.746v-7.798c2.975 6.127 8.162 9.437 15.091 9.437 1.018 0 2.097-.042 3.096-.241v-16.609c-1.231 0-2.461.241-3.696.241-9.625 0-14.421-7.178-14.491-16.192v-30.429h-17.851v61.591zm-145.276 21.521v-83.112h19.427v34.74h26.879v14.394h-26.879l.012 19.005h37.821v14.975c-20.269 0-37.971-.002-57.26-.002m253.822-45.377l24.438.058c-.136 7.684-3.952 13.736-12.22 13.736-8.031 0-11.812-6.491-12.218-13.794"/>
			<path fill="#2f7db8" fill-opacity="1" fill-rule="evenodd" stroke="none" d="M357.78 371.476c15.951-24.888 46.187-27.96 71.299-18.5 16.434 6.213 36.545 9.182 52.89 1.078 17.931-8.897 18.715-27.819 7.486-42.09-15.707-19.942-50.571-24.543-73.038-21.693-33.033 4.127-59.575 22.383-74.079 47.298-17.847 30.653-17.888 71.119 5.716 104.302 10.699 15.046 25.894 27.402 44.791 35.184 40.919 16.855 97.651 2.696 119.759-36.771-19.259 25.126-62.318 36.689-99.819 24.134-35.366-11.833-64.08-46.419-59.075-84.775 4.572-35.035 31.294-57.421 62.714-62.08 18.588-2.756 38.19 1.291 53.483 8.907 6.502 3.235 16.203 10.949 12.029 19.252-2.014 4.005-7.445 6.155-14.914 4.568-13.041-3.467-26.1-12.205-39.177-13.907-31.95-4.157-57.566 8.732-70.065 35.093"/>
			<path fill="#2f7db8" fill-opacity="1" fill-rule="evenodd" stroke="none" d="M325.335 337.958c-13.986 2.248-38.253-2.336-56.02-12.76l9.352-20.262c16.448 16.156 32.836 23.469 50.976 24.169-1.745 3.182-2.889 5.446-4.308 8.853"/>
			<path fill="#2f7db8" fill-opacity="1" fill-rule="evenodd" stroke="none" d="M415.87 378.616c18.324 8.047 26 10.892 41.134 14.367 8.43-.135 11.046-11.202 16.809-13.34-4.541-.677-12.104-2.915-10.287-6.164-14.376 5.116-32.568 6.919-47.656 5.137"/>
		</g>
	</g>
</svg>