<?xml version="1.0" ?>
<svg xmlns="http://www.w3.org/2000/svg" viewBox="0 0 640 384">
	<g fill="#000" fill-rule="evenodd">
		<path d="M58 282h178.664V103H58v179zm4.542-4.55V110.584l82.519 166.864h4.542L65.57 107.551h163.523l-81.761 165.302 2.271 4.596 82.518-166.864v166.864H62.542zM317.283 104.051l10.511 29.733 10.455-29.733h11.072v40.996h-8.459v-11.206l.843-19.344-11.044 30.55h-5.79l-11.016-30.522.843 19.316v11.206h-8.431v-40.996h11.016zm62.503 32.549h-14.783l-2.81 8.447h-8.965l15.232-40.996h7.813l15.316 40.996h-8.965l-2.838-8.447zm-12.506-6.842h10.23l-5.144-15.345-5.086 15.345zm58.933-18.865h-12.535v34.154h-8.43v-34.154h-12.366v-6.842h33.33v6.842zm29.424 16.387H439.45v10.981h18.998v6.786h-27.429v-40.996h27.373v6.842H439.45v9.77h16.188v6.617zm22.904 2.76h-6.716v15.007h-8.431v-40.996h15.204c4.834 0 8.562 1.08 11.185 3.238 2.623 2.159 3.934 5.21 3.934 9.151 0 2.797-.604 5.13-1.812 6.997-1.209 1.868-3.04 3.355-5.495 4.463l8.853 16.753v.394h-9.05l-7.672-15.007zm-6.716-6.842h6.8c2.118 0 3.757-.54 4.919-1.62 1.162-1.079 1.742-2.566 1.742-4.462 0-1.934-.548-3.454-1.644-4.562-1.096-1.107-2.777-1.66-5.044-1.66h-6.773v12.304zm37.265 21.849h-8.431v-40.996h8.431v40.996zm30.914-8.447H525.22l-2.81 8.447h-8.965l15.232-40.996h7.813l15.316 40.996h-8.965l-2.838-8.447zm-12.506-6.842h10.23l-5.143-15.345-5.087 15.345zm36.563 8.503h17.902v6.786H555.63v-40.996h8.43v34.21zm-257.794 75.262v-40.995h12.59c3.597 0 6.815.812 9.654 2.435 2.838 1.624 5.054 3.933 6.646 6.927 1.593 2.994 2.389 6.396 2.389 10.206v1.887c0 3.81-.782 7.199-2.347 10.164-1.564 2.966-3.77 5.266-6.618 6.899-2.848 1.633-6.061 2.459-9.64 2.477h-12.674zm8.43-34.153v27.368h4.076c3.297 0 5.817-1.08 7.56-3.238 1.742-2.159 2.632-5.247 2.67-9.264v-2.168c0-4.167-.862-7.325-2.586-9.474-1.724-2.15-4.244-3.224-7.56-3.224h-4.16zm53.594 16.387h-16.187v10.98h18.998v6.786h-27.43v-40.995h27.373v6.842h-18.941v9.77h16.187v6.617zm28.975 7.01c0-1.595-.562-2.82-1.686-3.674-1.124-.854-3.148-1.755-6.07-2.703-2.923-.948-5.237-1.882-6.942-2.801-4.647-2.516-6.97-5.904-6.97-10.165 0-2.215.623-4.19 1.87-5.927 1.245-1.736 3.034-3.092 5.367-4.068 2.332-.976 4.95-1.464 7.855-1.464 2.923 0 5.527.53 7.813 1.59 2.285 1.061 4.06 2.558 5.325 4.491 1.265 1.934 1.897 4.13 1.897 6.589h-8.43c0-1.877-.591-3.337-1.771-4.378-1.18-1.042-2.839-1.563-4.975-1.563-2.06 0-3.663.436-4.805 1.31-1.143.872-1.715 2.022-1.715 3.448 0 1.333.67 2.45 2.01 3.351 1.34.901 3.311 1.746 5.915 2.534 4.797 1.445 8.291 3.238 10.483 5.378s3.288 4.805 3.288 7.996c0 3.548-1.34 6.33-4.019 8.349-2.679 2.018-6.285 3.027-10.82 3.027-3.147 0-6.014-.578-8.6-1.732-2.585-1.154-4.557-2.736-5.915-4.744-1.358-2.009-2.037-4.336-2.037-6.983h8.459c0 4.524 2.698 6.786 8.094 6.786 2.004 0 3.569-.409 4.693-1.225 1.124-.817 1.686-1.957 1.686-3.421zm23.13 10.756h-8.432v-40.995h8.431v40.995zm40.187-5.18c-1.517 1.82-3.663 3.233-6.435 4.237-2.773 1.005-5.846 1.507-9.218 1.507-3.541 0-6.647-.775-9.317-2.323-2.67-1.549-4.73-3.797-6.182-6.744-1.452-2.947-2.197-6.41-2.235-10.39v-2.787c0-4.092.689-7.635 2.066-10.629 1.377-2.994 3.363-5.284 5.958-6.87 2.595-1.586 5.635-2.38 9.12-2.38 4.852 0 8.646 1.16 11.381 3.478 2.736 2.318 4.356 5.692 4.862 10.122h-8.206c-.375-2.346-1.204-4.064-2.487-5.153-1.283-1.088-3.05-1.633-5.298-1.633-2.866 0-5.049 1.08-6.548 3.238-1.499 2.16-2.257 5.369-2.276 9.63v2.618c0 4.299.815 7.546 2.445 9.743 1.63 2.196 4.019 3.294 7.166 3.294 3.167 0 5.424-.676 6.773-2.027v-7.068h-7.672v-6.222h16.103v16.359zm40.104 5.18h-8.431l-16.412-26.973v26.973h-8.432v-40.995h8.432l16.44 27.03v-27.03h8.403v40.995zm-185.99 61.691H332.6V282h-26.333v-40.996h8.43v34.21zM346.4 282h-8.431v-40.996h8.43V282zm38.614-34.154h-12.534V282h-8.431v-34.154h-12.366v-6.842h33.33v6.842zm29.424 16.387H398.25v10.981h18.998V282h-27.43v-40.996h27.373v6.842H398.25v9.77h16.187v6.617z"/>
	</g>
</svg>