<svg xmlns="http://www.w3.org/2000/svg" viewBox="0 0 136.98 45.17"><g data-name="Layer 2"><g data-name="Layer 1"><path data-name="Path 84" d="M118.22 18.18a4.07 4.07 0 01-3.75 2.43 4.22 4.22 0 01-4.16-4.49 4.23 4.23 0 014.16-4.49 4.1 4.1 0 013.75 2.43l4-1.89a8.66 8.66 0 00-7.77-4.86 8.81 8.81 0 000 17.62 8.65 8.65 0 007.77-4.86z"></path><path data-name="Path 85" d="M132 14.2l-1.68-.46c-1.61-.39-1.9-1-1.9-1.47 0-.77.75-1.24 2-1.14a3.64 3.64 0 012.42 1l.29.33 3.85-1.81-.25-.35a7.1 7.1 0 00-2.94-2.3 8.39 8.39 0 00-3.35-.67c-3.7 0-6.4 2-6.51 5.1-.1 2.6 1.6 4.59 4.78 5.4.65.17 1.06.25 1.47.35 1.86.36 2.38.86 2.38 1.57s-.79 1.25-2.13 1.25a4.43 4.43 0 01-3.43-1.51l-3.8 1.79c1.56 2.56 4.08 3.65 7.21 3.65 3.73 0 6.57-2.26 6.57-5.5.02-2.94-1.93-4.43-4.98-5.23z"></path><path data-name="Path 86" d="M90.64 7.31A5.48 5.48 0 0086 9.61V7.68h-4.53v16.88h4.44V15a3.28 3.28 0 015.7-2.41l.1.1a3.57 3.57 0 01.76 2.31v9.57H97v-9.9c0-4.39-2.4-7.36-6.36-7.36z"></path><path data-name="Path 87" d="M62.25 7.37h-.43a5.83 5.83 0 00-5.06 2.29v-2h-4.49v16.9h4.49v-8.28c0-3.48 2.31-4.75 5.49-4.75z"></path><path data-name="Path 88" d="M11.48 26.85V25.1a9.28 9.28 0 10-4.47 0v1.79a9.3 9.3 0 104.47 0zM4.69 16.07A4.61 4.61 0 116 19.33a4.6 4.6 0 01-1.31-3.26zm4.6 24.41a4.61 4.61 0 113.26-1.35 4.6 4.6 0 01-3.26 1.35z"></path><path data-name="Rectangle 1598" d="M99.31 7.68h4.49v16.88h-4.49z"></path><path data-name="Path 89" d="M101.53 0a2.76 2.76 0 00-2 4.7 2.76 2.76 0 004.74-1.93A2.74 2.74 0 00101.53 0z"></path><path data-name="Path 90" d="M70.91 7.31a8.82 8.82 0 108.54 8.81 8.68 8.68 0 00-8.54-8.81zm0 13.26a4.45 4.45 0 114.31-4.45 4.38 4.38 0 01-4.31 4.45z"></path><path data-name="Path 91" d="M45.76 19c0 1.17.66 1.94 2.15 1.94a11.84 11.84 0 001.57-.11v3.63a9.58 9.58 0 01-2.66.35c-4.73 0-5.53-3.09-5.53-5.58v-7.7h-2.75V7.67h2.81V2.43h4.41v5.24h3.78v3.86h-3.78z"></path><path data-name="Path 92" d="M24.87 14.06a4.24 4.24 0 014.13-2.6 3.72 3.72 0 013.9 2.61zm12.56 3.17a8.88 8.88 0 00.07-1.15A8.56 8.56 0 0029 7.3a8.78 8.78 0 000 17.56A8.61 8.61 0 0036.83 21a2.39 2.39 0 00.21-.34l-3.89-1.76a5 5 0 01-8.61-1.7z"></path></g></g></svg>