<svg viewBox="0 0 134 38" fill="none" xmlns="http://www.w3.org/2000/svg">
<path d="M128.157 24.9458L134 9.48828H128.709L125.524 19.1118L122.138 9.48828H116.822L123.016 25.245L122.59 26.2671C122.038 27.3143 121.085 28.4112 119.53 28.4362H119.38C118.502 28.4362 117.75 28.3115 117.073 28.1121H116.998L116.471 32.7493H116.546C117.424 32.874 118.327 32.9488 119.204 32.9238C121.336 32.8989 123.116 32.2756 124.496 31.1537C125.649 30.2312 126.677 28.6606 127.605 26.4417L127.655 26.2921C127.831 25.8682 128.006 25.4195 128.157 24.9458Z" fill="#E84545"/>
<path d="M115.292 26.0907H110.528V24.2957C110.051 24.9938 108.847 26.6392 105.462 26.6392C100.396 26.6392 97.1113 22.7499 97.1113 17.7636C97.1113 12.1541 101.149 8.93792 105.387 8.93792C108.346 8.93792 109.75 10.3839 110.277 10.9075V4.57492L115.267 3.97656L115.292 26.0907ZM102.127 17.7387C102.127 20.2817 103.957 21.9771 106.315 21.9771C107.518 21.9771 108.622 21.5034 109.399 20.7305C110.177 19.9576 110.628 18.8856 110.578 17.639C110.578 16.4423 110.101 15.4201 109.349 14.6971C108.597 13.9491 107.543 13.5253 106.365 13.5253C103.481 13.5253 102.127 15.7691 102.127 17.6889V17.7387Z" fill="#E84545"/>
<path d="M95.2807 26.0918H90.2903V24.2968C89.3875 25.9173 87.3061 26.6652 85.3501 26.6652C80.0588 26.6652 76.9492 22.5516 76.9492 17.7897C76.9492 12.3546 80.8863 8.93899 85.3501 8.93899C88.0835 8.93899 89.6132 10.2604 90.2903 11.2825V9.51242L95.2807 8.91406V26.0918ZM81.9647 17.8644C81.9647 19.3853 83.1182 22.028 86.1024 22.028C87.8829 22.028 88.9612 21.1803 89.5881 20.1831C90.0144 19.5349 90.2151 18.8118 90.2903 18.0639C90.3404 17.316 90.19 16.568 89.864 15.8699C89.3123 14.7231 88.1838 13.5762 86.0773 13.5762C83.2185 13.5762 81.9647 15.9697 81.9647 17.8395V17.8644Z" fill="#E84545"/>
<path d="M76.7737 22.1032C75.8709 21.804 75.2189 21.2057 74.7926 20.4827C74.1155 19.261 74.0905 17.9895 74.0905 16.7679V3.95312L69.1001 4.55148V16.743C69.1001 20.009 69.4261 22.1281 71.7081 24.2722C73.5638 26.167 76.3725 26.6158 78.153 26.6158H81.0619C80.8864 26.541 80.7108 26.4662 80.5353 26.3665C80.109 26.1421 79.7078 25.8928 79.3316 25.5936C78.2031 24.721 77.3254 23.4994 76.7737 22.1032Z" fill="#E84545"/>
<path d="M66.8431 24.0719C66.8431 26.5651 66.6676 28.1357 65.84 29.5568C64.536 31.6511 61.5017 33.4711 57.389 33.4711C51.5962 33.4711 49.3894 30.0056 49.0634 27.6371H54.8311C55.1822 28.4349 55.8593 28.8588 56.4361 29.0831C57.0379 29.2826 57.6147 29.2826 57.7652 29.2826C59.671 29.2826 61.8277 28.1108 61.8277 25.2437V24.2464C61.2509 25.1938 59.8215 26.6149 57.1884 26.6149C52.6494 26.6149 48.7625 23.1993 48.7625 17.8889C48.7625 12.2046 52.85 8.93853 57.1884 8.93853C59.0441 8.93853 60.8998 9.58675 61.8527 11.0328V9.48703L66.8431 8.88867V24.0719ZM53.7528 17.7393C53.7528 20.3571 55.6838 21.9777 57.7652 21.9777C58.994 21.9777 59.972 21.5538 60.6741 20.8308C61.3763 20.1078 61.7775 19.1355 61.8527 17.9637C61.8527 16.7421 61.5017 15.6202 60.7995 14.8473C60.1475 14.0495 59.1193 13.5508 57.7902 13.5508C55.6587 13.5508 53.7528 15.2462 53.7528 17.6645V17.7393Z" fill="#E84545"/>
<path d="M35.8477 1.90812C32.9388 -0.983926 27.0958 -0.460365 19.8736 2.70593C19.2466 2.98017 18.5194 2.98017 17.8925 2.70593C10.6702 -0.485297 4.82726 -0.983926 1.9183 1.90812C-0.990655 4.80017 -0.464033 10.6092 2.72077 17.7894C2.99662 18.4127 2.99662 19.1357 2.72077 19.759C-0.489111 26.9393 -0.990655 32.7483 1.9183 35.6404C4.82726 38.5324 10.6702 38.0088 17.8925 34.8425C18.5194 34.5683 19.2466 34.5683 19.8736 34.8425C27.0958 38.0338 32.9388 38.5324 35.8477 35.6404C38.7567 32.7483 38.2301 26.9393 35.0453 19.759C34.7694 19.1357 34.7694 18.4127 35.0453 17.7894C38.2552 10.6092 38.7567 4.80017 35.8477 1.90812Z" fill="#E84545"/>
</svg>
