<svg xmlns="http://www.w3.org/2000/svg" viewBox="0 0 931.546 199.555"><g data-name="Group 656"><g data-name="Group 61"><g data-name="Group 52"><g data-name="Group 51"><g data-name="Group 50"><path fill="#7d2ae8" d="M28.738 89.637a71.744 71.744 0 0 1 132.964-26.081l26.647-9.7A99.783 99.783 0 0 0 2.395 121.544l26.639-9.7a71.679 71.679 0 0 1-.296-22.207Z" data-name="Path 170"/></g><path fill="#7d2ae8" d="m197.594 80.07-26.759 9.741-55.438 20.18 47.085 24.676a71.744 71.744 0 0 1-123.535 3.152l-26.756 9.74a99.787 99.787 0 0 0 185.4-67.49Z" data-name="Path 171"/></g></g><g data-name="Group 39"><g fill="#7d2ae8" data-name="Group 38"><path d="M221.581 41.175h29.143v154.367h-29.143Z" data-name="Path 130"/><path d="M377.721 90.804v104.738h-25.135l-2.952-11.187q-6.133 8.233-14.683 10.977a58 58 0 0 1-17.841 2.747 48.593 48.593 0 0 1-20.587-4.333 51.4 51.4 0 0 1-16.37-11.823 54.482 54.482 0 0 1-10.877-17.525 60.752 60.752 0 0 1 0-42.871 54.512 54.512 0 0 1 10.876-17.53 51.539 51.539 0 0 1 16.37-11.822 48.6 48.6 0 0 1 20.587-4.333 52.489 52.489 0 0 1 18.585 3.172 31.531 31.531 0 0 1 13.938 10.136l2.952-10.346Zm-29.147 52.577a37.664 37.664 0 0 0-2.216-13.829 24.921 24.921 0 0 0-5.914-9.085 22.349 22.349 0 0 0-8.66-5.063 34.7 34.7 0 0 0-10.662-1.586 24.869 24.869 0 0 0-10.667 2.322 29.728 29.728 0 0 0-8.76 6.233 27.569 27.569 0 0 0-5.918 9.291 31.621 31.621 0 0 0 0 22.7 27.783 27.783 0 0 0 5.918 9.185 29.543 29.543 0 0 0 8.76 6.233 24.862 24.862 0 0 0 10.667 2.322 27.951 27.951 0 0 0 19.321-7.074q7.918-7.073 8.131-21.649Z" data-name="Path 131"/><path d="M459.259 140.639q11.607 8.239 11.612 23.439a27.355 27.355 0 0 1-3.272 13.093 35.191 35.191 0 0 1-8.976 10.767 43.318 43.318 0 0 1-13.3 7.289 49.316 49.316 0 0 1-16.265 2.641 48.7 48.7 0 0 1-12.773-1.691 50 50 0 0 1-11.507-4.647 38.205 38.205 0 0 1-9.186-7.075 26.9 26.9 0 0 1-5.809-9.185q4.858-2.322 10.767-5.173t10.351-5.173a18.55 18.55 0 0 0 5.909 5.809q4.013 2.636 10.981 2.641 7.18 0 10.561-3.382t3.377-6.334a5.013 5.013 0 0 0-2.322-3.907 19.409 19.409 0 0 0-5.278-2.856 22.213 22.213 0 0 0-6.969-1.792 26.086 26.086 0 0 1-6.338-1.161q-11.4-2.744-17.42-7.284a33 33 0 0 1-8.766-9.19 20.622 20.622 0 0 1-3.062-8.866q-.315-4.22-.315-6.759a29.2 29.2 0 0 1 2.957-12.883 33.367 33.367 0 0 1 8.129-10.662 41.134 41.134 0 0 1 12.037-7.284 39.151 39.151 0 0 1 14.674-2.751 40.638 40.638 0 0 1 23.233 7.184 36.071 36.071 0 0 1 8.34 8.025 32.465 32.465 0 0 1 5.173 10.346l-22.6 7.6a11.194 11.194 0 0 0-5.173-6.128 16.05 16.05 0 0 0-8.34-2.322 9.35 9.35 0 0 0-7.179 2.957 8.787 8.787 0 0 0-2.747 5.914 6.608 6.608 0 0 0 2.641 5.594 16.367 16.367 0 0 0 5.809 2.851c1.548.287 3.057.53 4.538.741s2.918.458 4.328.74a91.277 91.277 0 0 1 12.777 3.8 41.038 41.038 0 0 1 9.403 5.074Z" data-name="Path 132"/><path d="M550.765 140.639q11.607 8.239 11.612 23.439a27.355 27.355 0 0 1-3.272 13.093 35.184 35.184 0 0 1-8.976 10.767 43.32 43.32 0 0 1-13.3 7.289 49.3 49.3 0 0 1-16.259 2.641 48.7 48.7 0 0 1-12.777-1.691 49.994 49.994 0 0 1-11.507-4.647 38.2 38.2 0 0 1-9.186-7.075 26.981 26.981 0 0 1-5.809-9.185q4.858-2.322 10.767-5.173t10.351-5.173a18.6 18.6 0 0 0 5.909 5.809q4.012 2.636 10.981 2.641 7.179 0 10.561-3.382t3.377-6.334a5.014 5.014 0 0 0-2.322-3.907 19.409 19.409 0 0 0-5.278-2.856 22.21 22.21 0 0 0-6.969-1.792 26.085 26.085 0 0 1-6.339-1.161q-11.4-2.744-17.421-7.284a32.911 32.911 0 0 1-8.76-9.19 20.569 20.569 0 0 1-3.066-8.866q-.315-4.22-.315-6.759a29.269 29.269 0 0 1 2.956-12.883 33.363 33.363 0 0 1 8.13-10.662 41.121 41.121 0 0 1 12.037-7.284 39.154 39.154 0 0 1 14.679-2.751 40.635 40.635 0 0 1 23.229 7.184 36.1 36.1 0 0 1 8.341 8.025 32.484 32.484 0 0 1 5.173 10.346l-22.6 7.6a11.194 11.194 0 0 0-5.173-6.128 16.036 16.036 0 0 0-8.34-2.322 9.35 9.35 0 0 0-7.179 2.957 8.79 8.79 0 0 0-2.747 5.914 6.608 6.608 0 0 0 2.642 5.594 16.371 16.371 0 0 0 5.809 2.851c1.548.287 3.058.53 4.538.741s2.918.458 4.328.74a91.305 91.305 0 0 1 12.778 3.8 41.044 41.044 0 0 1 9.397 5.074Z" data-name="Path 133"/><path d="M618.932 169.557q4.542 4.027 11.933 4.027a32.07 32.07 0 0 0 11.827-2.326v24.318a100.734 100.734 0 0 1-11.192 2.828 62 62 0 0 1-11.827 1.151 48.376 48.376 0 0 1-12.882-1.687 27.6 27.6 0 0 1-18.687-16.79q-2.851-6.858-2.852-17v-47.3h-14.994v-19.64l14.994-6.333V67.36h29.143v23.444h28.3v25.97h-28.3v41.333q0 7.423 4.537 11.45Z" data-name="Path 134"/><path d="M684.793 105.369a46.552 46.552 0 0 1 4.863-6.434 31.324 31.324 0 0 1 6.543-5.494 34.7 34.7 0 0 1 8.656-3.907 37.731 37.731 0 0 1 10.981-1.48c4.786 0 19.923 2.971 26.262 4.657-4.509 4.146-12.8 9.176-16.121 23.028a11.436 11.436 0 0 1-2.136-.6 28.64 28.64 0 0 0-2.933-.373 31.691 31.691 0 0 0-4.227-.315 40.332 40.332 0 0 0-12.562 1.9 31.718 31.718 0 0 0-10.031 5.283 25.831 25.831 0 0 0-6.754 8.13 21.366 21.366 0 0 0-2.542 10.241v55.538h-29.136V90.805h26.4Z" data-name="Path 135"/><path d="M842.064 90.804v104.738h-25.125l-2.957-11.187a29.37 29.37 0 0 1-14.684 10.977 57.975 57.975 0 0 1-17.836 2.747 48.612 48.612 0 0 1-20.592-4.333 51.425 51.425 0 0 1-16.365-11.823 54.491 54.491 0 0 1-10.877-17.525 60.752 60.752 0 0 1 0-42.871 54.521 54.521 0 0 1 10.877-17.53 51.566 51.566 0 0 1 16.365-11.822 48.616 48.616 0 0 1 20.592-4.333 52.451 52.451 0 0 1 18.581 3.172 31.48 31.48 0 0 1 13.938 10.136l2.957-10.346Zm-29.142 52.577a37.887 37.887 0 0 0-2.211-13.829 25.039 25.039 0 0 0-5.914-9.085 22.427 22.427 0 0 0-8.66-5.063 34.753 34.753 0 0 0-10.662-1.586 24.838 24.838 0 0 0-10.666 2.322 29.829 29.829 0 0 0-8.77 6.233 27.527 27.527 0 0 0-5.9 9.291 31.491 31.491 0 0 0 0 22.7 27.739 27.739 0 0 0 5.9 9.185 29.643 29.643 0 0 0 8.77 6.233 24.831 24.831 0 0 0 10.666 2.322 27.962 27.962 0 0 0 19.322-7.074q7.918-7.073 8.125-21.649Z" data-name="Path 136"/><path d="M887.036 194.066H857.89V89.323h29.146Z" data-name="Path 137"/><path d="M902.399 41.175h29.147v154.367h-29.147Z" data-name="Path 138"/><path d="m871.168 73.835-17.247-15.926 17.247-11.661 19.829 9.1Z" data-name="Path 141"/></g></g></g></g></svg>