<?xml version="1.0" ?>
<svg xmlns="http://www.w3.org/2000/svg" xmlns:svg="http://www.w3.org/2000/svg" viewBox="0 0 711.58594 208.23038" version="1.2" id="svg881">
	<path style="fill:#383335;fill-opacity:1;fill-rule:nonzero;stroke:none" d="m 711.58594,38.75 c 0,-13.89844 -6.39063,-22.48828 -11.76172,-27.2539 -7.03125,-6.23047 -15.74609,-9.52344 -25.21094,-9.52344 -9.46484,0 -18.18359,3.29297 -25.20703,9.52734 -5.37109,4.75391 -11.76562,13.34766 -11.76562,27.25 0,8.02344 2.13281,14.27344 4.96484,19.04297 -3.28516,-2.30078 -6.88281,-4.28125 -10.8125,-5.90234 -7.34375,-3.01953 -15.73438,-4.6211 -25.57813,-4.875 V 19.40235 c 0,-5.6836 -2.48828,-11.08594 -6.82031,-14.76954 C 595.85938,1.6211 591.39453,0 586.8125,0 c -1.02734,0 -2.05859,0.082 -3.08594,0.2461 L 554.3125,4.98438 C 544.90625,6.5 537.99609,14.61328 537.99609,24.14063 v 24.83593 c -0.70703,-0.16796 -1.41406,-0.32812 -2.125,-0.48046 -5.91406,-1.26954 -12.39453,-1.91016 -19.26562,-1.91016 -11.08203,0 -21.28125,2.01172 -30.32031,5.98437 -4.11719,1.8125 -7.96875,3.95704 -11.5625,6.39844 -1.88282,-2.16406 -4.26563,-3.9375 -7.05469,-5.12109 -5.46094,-2.3125 -11.16016,-4.11719 -16.93359,-5.35156 -5.91797,-1.26954 -12.40235,-1.91016 -19.26954,-1.91016 -11.08203,0 -21.28125,2.01172 -30.3164,5.98437 -8.96875,3.94532 -16.75781,9.41797 -23.14453,16.26172 -0.48828,0.51953 -0.94922,1.0625 -1.42188,1.60157 -1.8125,-6.86329 -5.29687,-13.4961 -9.91406,-18.71094 C 361.66406,39.13672 352.44922,28.88672 339.75,21.8711 c -9.91016,-5.47657 -22.11719,-8.81641 -32.64062,-8.9375 -0.23047,-0.004 -0.45704,-0.004 -0.6836,-0.004 -22.28125,0 -35.74219,12.26172 -42.30078,23.08594 -9.08594,6.00781 -16.90625,15.98437 -19.71094,26.59765 -0.64843,0.6875 -1.2539,1.39063 -1.83593,2.10547 -5.21485,-5.53906 -11.77344,-9.8789 -19.55079,-12.94531 -8.21875,-3.22266 -17.73828,-4.79688 -29.10546,-4.79688 -9.64844,0 -19.03907,0.71094 -27.91016,2.11719 -5.80078,0.91797 -10.85156,1.88281 -15.29688,2.91797 l 0.84766,-2.34766 c 3.09375,-8.60156 -0.23047,-18.19921 -7.99219,-23.03515 -1.67968,-1.05078 -3.91015,-2.24219 -7.00781,-3.75 -3.40625,-1.65625 -7.40234,-3.16016 -12.23437,-4.60547 -4.57032,-1.35938 -9.73829,-2.50781 -15.8125,-3.51172 -6.22266,-1.01953 -13.15625,-1.53906 -20.61329,-1.53906 -11.78515,0 -23.09375,2.01953 -33.60546,5.99219 -10.875,4.10937 -20.5,10.25781 -28.59766,18.26953 C 17.65625,45.44132 11.27734,55.1796 6.73828,66.43351 2.26953,77.52726 0,90.19522 0,104.08585 c 0,13.55078 2.02734,25.95703 6.01953,36.85937 4.16016,11.38282 10.23828,21.21485 18.07031,29.21485 7.88672,8.0625 17.44922,14.2539 28.42969,18.39844 10.51563,3.97656 22.22266,5.99218 34.79297,5.99218 13.38281,0 24.51563,-0.92968 34.03125,-2.84765 6.71875,-1.35547 12.02344,-2.64063 16.26953,-3.95313 3.31641,2.64844 7.51953,4.23438 12.09375,4.23438 h 29.41016 c 6.27344,0 11.85156,-2.97657 15.39844,-7.59375 3.54687,4.61718 9.125,7.59375 15.39453,7.59375 h 29.41406 c 6.32031,0 11.93359,-3.02344 15.47656,-7.70313 5.22266,9.16016 13.04688,14.20703 20.89844,16.21875 6.46484,4.04688 16.03516,7.72656 29.43359,7.73047 7.00782,0 14.53125,-1.04297 22.3711,-3.09766 20.14453,-5.28125 36.83203,-17.58203 44.44531,-32.29687 0.85937,-0.8125 1.64844,-1.67578 2.39062,-2.5625 0.64063,0.78125 1.30079,1.55078 1.98047,2.30078 6.33594,7 14.35938,12.53516 23.84766,16.45703 9.17578,3.79688 19.90625,5.71875 31.89062,5.71875 7.46094,0 14.48047,-0.66406 20.88282,-1.97656 6.46093,-1.32813 11.85547,-2.92578 16.48828,-4.88672 2.24219,-0.94922 4.21484,-2.29297 5.89062,-3.90625 3.11719,1.90234 6.44922,3.58984 9.98438,5.05078 9.17578,3.79297 19.90234,5.71875 31.89453,5.71875 7.45312,0 14.47266,-0.66406 20.87891,-1.97656 3.96875,-0.81641 7.53125,-1.73438 10.76562,-2.77734 2.58203,1.27343 5.48438,1.98828 8.55859,1.98828 h 29.41016 c 6.26953,0 11.84766,-2.97266 15.39453,-7.58985 3.55078,4.61719 9.125,7.58985 15.39844,7.58985 h 29.41016 c 2.27734,0 4.46484,-0.39453 6.49609,-1.11719 2.03125,0.72266 4.21875,1.11719 6.49609,1.11719 h 29.41016 c 10.71875,0 19.40625,-8.6875 19.40625,-19.40235 V 68.75391 c 0,-3.66797 -1.01563,-7.09375 -2.78125,-10.01563 3.11719,-4.8789 5.54297,-11.42578 5.54297,-19.98828" id="path840"/>
	<path style="fill:#ffffff;fill-opacity:1;fill-rule:nonzero;stroke:none" d="m 660.00781,172.58203 h 29.41016 V 68.75391 h -29.41016 z m 2.26953,-121.10156 c 3.48438,3.09375 7.59766,4.64063 12.33594,4.64063 4.73828,0 8.84766,-1.54688 12.33594,-4.64063 3.48828,-3.08984 5.23437,-7.33594 5.23437,-12.73047 0,-5.39844 -1.74609,-9.64062 -5.23437,-12.73437 -3.48828,-3.08985 -7.59766,-4.63672 -12.33594,-4.63672 -4.73828,0 -8.85156,1.54687 -12.33594,4.63672 -3.48828,3.09375 -5.23046,7.33593 -5.23046,12.73437 0,5.39453 1.74218,9.64063 5.23046,12.73047 z m -24.4414,28.12891 c -3.35156,-4.21094 -7.82813,-7.46875 -13.42188,-9.76953 -5.59375,-2.30079 -12.60156,-3.45704 -21.01953,-3.45704 -2.89844,0 -5.89453,0.29688 -8.98437,0.88672 -3.09375,0.59375 -5.625,1.21875 -7.59766,1.875 V 19.40235 l -29.41016,4.73828 v 148.4414 H 586.8125 V 93.625 c 1.83984,-0.52734 3.91406,-1.01953 6.21875,-1.48437 2.30078,-0.45703 4.76563,-0.6875 7.40234,-0.6875 6.57813,0 11.08204,1.97265 13.51954,5.92187 2.43359,3.94531 3.65234,10.65625 3.65234,20.13281 v 55.07422 h 29.41016 v -58.625 c 0,-7.10937 -0.69141,-13.55468 -2.07032,-19.34765 -1.38281,-5.78907 -3.75,-10.78907 -7.10937,-15 z m -106.22656,69.48437 c -4.08204,0.65625 -7.89844,0.98438 -11.44922,0.98438 -10.00391,0 -17.01172,-2.56641 -21.02344,-7.69922 -4.01563,-5.13281 -6.01953,-12.36719 -6.01953,-21.71094 0,-8.81641 2.13672,-15.92187 6.41406,-21.32031 4.27734,-5.39453 10.75781,-8.09375 19.44531,-8.09375 4.07422,0 7.76172,0.39453 11.05078,1.18359 3.28907,0.78906 6.32032,1.71094 9.08204,2.76563 l 6.11718,-23.48828 c -4.34375,-1.84375 -8.8164,-3.25782 -13.42187,-4.2461 -4.60547,-0.98828 -9.67188,-1.48047 -15.19922,-1.48047 -8.42188,0 -15.92188,1.44922 -22.50391,4.34375 -6.57812,2.89453 -12.17187,6.8086 -16.77734,11.7461 -4.60938,4.93359 -8.125,10.72656 -10.55859,17.36718 -2.4375,6.64844 -3.65235,13.71875 -3.65235,21.22266 0,7.76563 1.01563,14.96875 3.0586,21.61328 2.03906,6.64453 5.26171,12.40235 9.67187,17.27344 4.40625,4.86719 10.03125,8.71484 16.87891,11.54297 6.83984,2.83203 15,4.24609 24.47656,4.24609 6.18359,0 11.84375,-0.52734 16.97266,-1.57812 5.13281,-1.05469 9.41015,-2.30078 12.83203,-3.75 l -4.14453,-24.08203 c -3.42188,1.44921 -7.17579,2.5 -11.25,3.16015 z m -85.14063,0 c -4.07812,0.65625 -7.89453,0.98438 -11.44531,0.98438 -10.00391,0 -17.01172,-2.56641 -21.02344,-7.69922 -4.01562,-5.13281 -6.01953,-12.36719 -6.01953,-21.71094 0,-8.81641 2.13672,-15.92187 6.41406,-21.32031 4.27344,-5.39453 10.75781,-8.09375 19.44141,-8.09375 4.07812,0 7.76562,0.39453 11.05469,1.18359 3.28515,0.78906 6.3164,1.71094 9.08203,2.76563 l 6.11718,-23.48828 c -4.34375,-1.84375 -8.8164,-3.25782 -13.42187,-4.2461 -4.60938,-0.98828 -9.67188,-1.48047 -15.19922,-1.48047 -8.42578,0 -15.92578,1.44922 -22.50391,4.34375 -6.58203,2.89453 -12.17187,6.8086 -16.77734,11.7461 -4.60937,4.93359 -8.12891,10.72656 -10.5625,17.36718 -2.43359,6.64844 -3.64844,13.71875 -3.64844,21.22266 0,7.76563 1.01563,14.96875 3.0586,21.61328 2.03906,6.64453 5.26172,12.40235 9.67187,17.27344 4.40625,4.86719 10.03125,8.71484 16.875,11.54297 6.84375,2.83203 15.00391,4.24609 24.47656,4.24609 6.1836,0 11.84375,-0.52734 16.97657,-1.57812 5.13281,-1.05469 9.40625,-2.30078 12.83203,-3.75 l -4.14453,-24.08203 c -3.42578,1.44921 -7.17578,2.5 -11.25391,3.16015 z M 229.84766,79.60938 c -3.42188,-4.21094 -8.0625,-7.46875 -13.91407,-9.76953 -5.85937,-2.30079 -13.19531,-3.45704 -22.01171,-3.45704 -8.6836,0 -16.97657,0.62891 -24.8711,1.875 -7.89453,1.25391 -14.34375,2.60157 -19.34375,4.04688 v 100.27734 h 29.41016 V 92.4375 c 1.83984,-0.26172 3.94922,-0.49219 6.3164,-0.6875 2.36719,-0.19922 4.60547,-0.29687 6.71094,-0.29687 6.84375,0 11.51563,1.97265 14.01563,5.92187 2.5,3.94531 3.75,10.65625 3.75,20.13281 v 55.07422 h 29.41406 v -58.625 c 0,-7.10937 -0.72656,-13.55468 -2.17188,-19.34765 -1.45312,-5.78907 -3.88281,-10.78907 -7.30468,-15 z m -125.36328,68.29687 c -1.84375,0.39453 -3.98438,0.66016 -6.41407,0.78906 -2.4375,0.13282 -5.36718,0.19532 -8.78515,0.19532 -6.31641,0 -11.84375,-1.08203 -16.58203,-3.25391 -4.73829,-2.17187 -8.6836,-5.23047 -11.84375,-9.17969 -3.15625,-3.94531 -5.52735,-8.65234 -7.10547,-14.11328 -1.57813,-5.45703 -2.36719,-11.54687 -2.36719,-18.25781 0,-13.82031 3.1875,-24.70313 9.57031,-32.66797 6.38281,-7.96094 16.7461,-11.94531 31.08985,-11.94531 6.44921,0 12.40234,0.82422 17.86328,2.46875 5.46093,1.64844 10.29687,3.58594 14.50781,5.82422 l 8.88281,-24.67188 c -1.05078,-0.66015 -2.79687,-1.58203 -5.23047,-2.76562 -2.43359,-1.1875 -5.52343,-2.33594 -9.27734,-3.45313 -3.75,-1.11719 -8.22266,-2.10547 -13.42188,-2.96094 -5.19921,-0.85546 -11.02343,-1.28515 -17.46875,-1.28515 -9.47656,0 -18.39062,1.58203 -26.74609,4.73828 -8.35937,3.15625 -15.62891,7.79687 -21.8125,13.91406 -6.1875,6.1211 -11.05469,13.58985 -14.60547,22.40625 -3.55469,8.81641 -5.33203,18.94922 -5.33203,30.39844 0,11.31641 1.61328,21.38672 4.83594,30.19922 3.22265,8.82031 7.79687,16.2539 13.71875,22.30469 5.92187,6.05468 13.05859,10.66015 21.41797,13.82031 8.35547,3.15625 17.66797,4.73437 27.93359,4.73437 11.97266,0 22.03906,-0.82422 30.19922,-2.46484 8.15625,-1.64453 14.07812,-3.19141 17.76562,-4.64063 v -67.70312 h -30.79296 v 47.57031" id="path842"/>
	<path style="fill:#fac728;fill-opacity:1;fill-rule:nonzero;stroke:none" d="m 306.88281,32.33594 c -20.27734,-0.23438 -27.2539,15.23047 -28.125,17.82031 -8.9414,3.29297 -17.22656,15.05469 -15.91797,22.11328 -6.65234,4.70313 -11.0664,10.70313 -6.10546,20.70313 -4.79688,4.99609 -8.72266,16.82031 -0.21485,24.46094 -7.6914,13.52734 0.97656,21.11718 5.23047,24.23437 -3.92578,12.23047 4.80078,21.95313 6.75781,23.28906 1.58203,10.11328 6.48047,16.77735 14.82813,17.17188 5.88672,4.9375 18.17187,9.75781 39.24609,4.23437 17.4961,-4.58984 30.25,-15.52734 33.57813,-25.8789 7.95703,-4.11328 7.6289,-16.46485 7.19531,-19.05469 6.48437,-13.82031 2.39453,-25.64063 0,-31.05078 4.35937,-8.87891 -1.19922,-25.46485 -4.79688,-28.9375 0.32422,-7.11328 -4.08984,-15.40625 -8.72265,-19.05469 -6.65235,-22.81641 -30.94531,-29.91016 -42.95313,-30.05078" id="path844"/>
	<path style="fill:#f3b51e;fill-opacity:1;fill-rule:nonzero;stroke:none" d="m 309.26172,172.24219 c -6.41016,-1.14453 -9.75,-5.5 -13.25,-12.5 -2.10156,-1.43359 -10.25,-11 -11.75,-23.25 -2.55469,-1.87109 -6,-13.5 -5.75,-22.25 -1.75,-6 -3.15234,-12.30078 -1.5,-21 -2.25,-9.5 -2.40234,-15.88672 2.75,-21.25 0,-9.5 2.60937,-16.44922 9.75,-21.5 -1.15234,-6.21094 1.77734,-12.09766 9.17969,-17.30469 -14.02344,3.24219 -19.19141,14.76563 -19.9336,16.96875 -8.9414,3.29297 -17.22656,15.05469 -15.91797,22.11328 -6.65234,4.70313 -11.0664,10.70313 -6.10546,20.70313 -4.79688,4.99609 -8.72266,16.82031 -0.21485,24.46094 -7.6914,13.52734 0.97656,21.11718 5.23047,24.23437 -3.92578,12.23047 4.80078,21.95313 6.75781,23.28906 1.58203,10.11328 6.48047,16.77735 14.82813,17.17188 5.88672,4.9375 18.17187,9.75781 39.24609,4.23437 6.63672,-1.74218 12.58594,-4.39843 17.60156,-7.58593 -16.23828,2.08203 -25.66796,-2.125 -30.92187,-6.53516" id="path846"/>
	<path style="fill:#f8a130;fill-opacity:1;fill-rule:nonzero;stroke:none" d="m 286.91797,51.03906 c 0,0 18.16406,-1.64843 27.67969,0.16407 9.44531,1.79687 25.8164,9.89062 25.8164,9.89062 0,0 -24.41797,-7.4375 -31.67187,-8.46484 -8.69922,-1.23828 -21.82422,-1.58985 -21.82422,-1.58985" id="path848"/>
	<path style="fill:#f8a130;fill-opacity:1;fill-rule:nonzero;stroke:none" d="m 271.79297,72.51953 c 0,0 24.15625,-2.30859 38.30078,-1.01172 14.14844,1.29297 37.19141,8.98047 37.19141,8.98047 0,0 -26.00391,-4.67187 -40.38672,-6.28515 -10.73828,-1.20703 -35.10547,-1.6836 -35.10547,-1.6836" id="path850"/>
	<path style="fill:#f8a130;fill-opacity:1;fill-rule:nonzero;stroke:none" d="m 267.48047,92.16797 c 0,0 24.28125,-2.05469 39.125,-1.60937 14.83984,0.44531 41.08594,4.9414 41.08594,4.9414 0,0 -34.58203,-2.11719 -45.87891,-2.2539 -11.29687,-0.13672 -34.33203,-1.07813 -34.33203,-1.07813" id="path852"/>
	<path style="fill:#f8a130;fill-opacity:1;fill-rule:nonzero;stroke:none" d="m 268.12109,116.52344 c 0,0 26.01954,-6.58984 40.05469,-7.61328 16.625,-1.21875 43.65235,1.9375 43.65235,1.9375 0,0 -35.3086,-0.0859 -45.94922,1.08203 -11.26172,1.24219 -37.75782,4.59375 -37.75782,4.59375" id="path854"/>
	<path style="fill:#f8a130;fill-opacity:1;fill-rule:nonzero;stroke:none" d="m 271.97266,140.8711 c 0,0 25.39453,-9.02344 39.91015,-10.61329 14.51563,-1.58984 41.23047,-1.58984 41.23047,-1.58984 0,0 -35.07031,3.4375 -46.07031,5.00391 -11,1.5664 -35.07031,7.19922 -35.07031,7.19922" id="path856"/>
	<path style="fill:#f8a130;fill-opacity:1;fill-rule:nonzero;stroke:none" d="m 352.6875,143.66797 c 0,0 -21.0625,8.95703 -34.74609,12.82422 -13.6875,3.86719 -41.20313,7.09375 -41.20313,7.09375 0,0 31.57031,-6.94922 41.92578,-10.14844 10.35938,-3.20312 34.02344,-9.76953 34.02344,-9.76953" id="path858"/>
	<path style="fill:#f8a130;fill-opacity:1;fill-rule:nonzero;stroke:none" d="m 291.33984,179.83594 c 0,0 14.36719,-7.85938 23.57813,-11.20703 17.22266,-6.26172 30.63281,-7.32031 30.63281,-7.32031 0,0 -24.26953,7.75781 -32.95312,10.58593 -7.05078,2.29297 -21.25782,7.94141 -21.25782,7.94141" id="path860"/>
	<path style="fill:#f3f3f3;fill-opacity:1;fill-rule:nonzero;stroke:none" d="m 557.40234,172.58203 h 29.41016 v -44.32812 c -9.70312,0.68359 -19.51172,1.28125 -29.41016,1.78125 z m -25.79296,-23.48828 c -4.08204,0.65625 -7.89844,0.98438 -11.44922,0.98438 -10.00391,0 -17.01172,-2.56641 -21.02344,-7.69922 -2.21875,-2.83594 -3.80078,-6.33594 -4.79297,-10.45703 -4.92578,0.043 -9.87109,0.0703 -14.83203,0.0703 -5.23047,0 -10.44141,-0.0273 -15.63281,-0.082 0.51172,3.59765 1.27343,7.05469 2.29297,10.37109 2.03906,6.64453 5.26171,12.40235 9.67187,17.27344 4.40625,4.86719 10.03125,8.71484 16.87891,11.54297 6.83984,2.83203 15,4.24609 24.47656,4.24609 6.18359,0 11.84375,-0.52734 16.97266,-1.57812 5.13281,-1.05469 9.41015,-2.30078 12.83203,-3.75 l -4.14453,-24.08203 c -3.42188,1.44921 -7.17579,2.5 -11.25,3.16015 z m 128.39843,-27.98047 v 51.46875 h 29.41016 v -55.51562 c -9.64063,1.44531 -19.44922,2.79687 -29.41016,4.04687 z m -42.40234,51.46875 h 29.41016 v -49.90625 c -9.66797,1.11328 -19.47657,2.13282 -29.41016,3.05469 z M 446.46875,149.09375 c -4.07812,0.65625 -7.89453,0.98438 -11.44531,0.98438 -10.00391,0 -17.01172,-2.56641 -21.02344,-7.69922 -2.49609,-3.1875 -4.21094,-7.1875 -5.15234,-11.99219 -10.26563,-0.47266 -20.42969,-1.04297 -30.48438,-1.71094 0.46485,4.76953 1.34766,9.30469 2.67188,13.60547 2.03906,6.64453 5.26172,12.40235 9.67187,17.27344 4.40625,4.86719 10.03125,8.71484 16.875,11.54297 6.84375,2.83203 15.00391,4.24609 24.47656,4.24609 6.1836,0 11.84375,-0.52734 16.97657,-1.57812 5.13281,-1.05469 9.40625,-2.30078 12.83203,-3.75 l -4.14453,-24.08203 c -3.42578,1.44921 -7.17578,2.5 -11.25391,3.16015 z M 209.12891,106.28516 c 0.51953,3.16797 0.78125,6.90625 0.78125,11.22265 v 55.07422 h 29.41406 v -58.625 c 0,-0.625 -0.0156,-1.23828 -0.0273,-1.85547 -10.28125,-1.82812 -20.34375,-3.76562 -30.16797,-5.8164 z m -104.64453,41.62109 c -1.84375,0.39453 -3.98438,0.66016 -6.41407,0.78906 -2.4375,0.13282 -5.36718,0.19532 -8.78515,0.19532 -6.31641,0 -11.84375,-1.08203 -16.58203,-3.25391 -4.73829,-2.17187 -8.6836,-5.23047 -11.84375,-9.17969 -3.15625,-3.94531 -5.52735,-8.65234 -7.10547,-14.11328 -1.57813,-5.45703 -2.36719,-11.54687 -2.36719,-18.25781 0,-13.82031 3.1875,-24.70313 9.57031,-32.66797 2.6875,-3.35156 6.08985,-5.98828 10.1875,-7.92969 C 60.71094,58.71485 51.05859,53.75 42.24219,48.61328 c -0.98828,0.85938 -1.96094,1.74219 -2.89844,2.66797 -6.1875,6.1211 -11.05469,13.58985 -14.60547,22.40625 -3.55469,8.81641 -5.33203,18.94922 -5.33203,30.39844 0,11.31641 1.61328,21.38672 4.83594,30.19922 3.22265,8.82031 7.79687,16.2539 13.71875,22.30469 5.92187,6.05468 13.05859,10.66015 21.41797,13.82031 8.35547,3.15625 17.66797,4.73437 27.93359,4.73437 11.97266,0 22.03906,-0.82422 30.19922,-2.46484 8.15625,-1.64453 14.07812,-3.19141 17.76562,-4.64063 v -67.70312 h -30.79296 z m 45.22265,24.67578 h 29.41016 V 99.50391 c -10.10938,-2.46485 -19.91797,-5.05078 -29.41016,-7.75 v 80.82812" id="path862"/>
</svg>