<?xml version="1.0" ?>
<svg xmlns="http://www.w3.org/2000/svg" viewBox="0 0 505 178" fill="none">
	<g>
		<path d="M160.026 76.2181H112.189C109.928 76.2181 108.077 78.1423 108.146 80.4104C108.146 80.8227 108.214 81.235 108.351 81.6473L119.865 111.543C120.276 112.574 119.728 113.742 118.7 114.086C118.426 114.155 118.152 114.223 117.877 114.223L103.143 113.33C102.457 113.261 101.84 113.605 101.429 114.155L89.9843 130.443C89.3673 131.405 88.1337 131.68 87.2429 131.061C87.2429 131.061 87.2429 131.061 87.1743 131.061L70.2463 119.515C69.561 119.034 68.67 119.034 68.0533 119.515L44.6146 135.46C43.7238 136.078 42.4901 135.872 41.8734 134.979C41.5306 134.497 41.462 133.879 41.5991 133.329L48.11 109.894C48.3841 108.932 47.9044 107.901 46.9448 107.557L34.5402 102.471C33.5122 102.059 33.0325 100.959 33.4436 99.9285C33.5122 99.7221 33.6492 99.5847 33.7862 99.3785L44.7516 85.7709C45.3 85.0837 45.3 84.1215 44.8204 83.4343L35.6366 70.0328C35.0199 69.1393 35.2255 67.9022 36.1165 67.2837C36.3906 67.0776 36.7332 66.9402 37.1444 66.9402L51.4681 65.8405C52.5647 65.7718 53.3184 64.8782 53.3184 63.7788L52.2218 43.642C52.1533 42.5426 53.0443 41.5803 54.141 41.5116C54.415 41.5116 54.6891 41.5803 54.9632 41.6491L72.7136 49.0027C73.4676 49.3463 74.3584 49.1402 74.9065 48.453L87.1058 34.7077C87.8596 33.8831 89.0932 33.8144 89.9155 34.5702C90.1213 34.7764 90.2584 34.9828 90.3954 35.2576L97.7286 54.2258C98.5508 56.219 100.881 57.181 102.869 56.3564C103.143 56.219 103.485 56.0816 103.691 55.8752L132.475 34.4328C134.189 33.127 134.6 30.7217 133.298 28.9349C132.475 27.7665 131.036 27.1479 129.597 27.3542L110.613 29.8969C109.722 30.0344 108.9 29.4846 108.557 28.6598L98.5508 2.95653C97.7286 0.963498 95.4668 0.00134071 93.4794 0.757323C92.931 0.9635 92.4513 1.30713 92.0402 1.78821L70.3833 25.361C69.8351 25.9797 68.9443 26.1171 68.1903 25.8423L39.6802 13.7465C37.6928 12.9218 35.3625 13.8152 34.4717 15.877C34.2661 16.2893 34.1974 16.7704 34.1974 17.2515L33.1695 46.7347C33.101 47.7656 32.347 48.5217 31.3192 48.6592L5.27618 50.3773C3.08309 50.5147 1.50681 52.3702 1.64388 54.5696C1.71241 55.2567 1.91801 55.9439 2.32922 56.4938L19.6683 82.1285C20.1481 82.8844 20.1481 83.8466 19.5312 84.5338L1.91801 104.808C0.478802 106.457 0.684402 108.932 2.26068 110.306C2.60335 110.581 2.94602 110.787 3.28869 110.993L23.6433 119.79C24.5342 120.134 25.0139 121.165 24.7398 122.058L11.8554 172.571C11.3072 174.702 12.6093 176.832 14.6653 177.382C15.8304 177.657 16.9955 177.451 17.955 176.764L66.4085 141.92C67.0937 141.439 67.9848 141.439 68.67 141.92L90.738 157.452C92.5199 158.689 94.9872 158.276 96.2208 156.49L96.2893 156.421L110.065 135.185C110.476 134.566 111.23 134.222 111.984 134.36L144.948 138.346C147.621 138.758 150.294 136.49 149.335 134.016L135.628 98.3476C135.216 97.3169 135.765 96.1485 136.793 95.7362L161.876 83.8466C165.577 81.9911 164.275 76.2181 160.026 76.2181Z" fill="#8039E9"/>
		<path d="M503.311 76.2868H466.167C465.413 76.2868 464.797 76.9055 464.797 77.6613V94.1555C464.797 94.9116 465.413 95.53 466.167 95.53H482.067C482.82 95.53 483.437 96.0797 483.437 96.8358V96.9046C483.3 105.427 481.519 120.684 466.167 120.684C453.625 120.684 448.554 105.495 448.554 87.6266C448.554 66.4591 453.762 53.4012 465.413 53.4012C473.842 53.4012 476.653 60.6174 477.476 63.2978C477.681 63.8475 478.161 64.2598 478.778 64.2598H498.104C498.857 64.2598 499.474 63.6413 499.474 62.8852V62.8165C498.72 52.2328 489.673 33.6769 465.824 33.6769C449.171 33.6769 433.545 43.8484 428.541 69.0018V36.5634C428.541 36.2199 428.198 35.876 427.855 35.876H407.433C407.091 35.876 406.748 36.1511 406.748 36.5634V94.4303C406.748 94.8429 406.405 95.1177 405.994 95.049C405.72 95.049 405.514 94.9116 405.446 94.6365L378.649 36.2199C378.58 36.0137 378.306 35.8073 378.032 35.8073H359.939C359.597 35.8073 359.254 36.0824 359.254 36.4947V68.9331C352.537 48.3843 334.307 33.6082 310.596 33.6082C284.141 33.6082 264.541 51.9579 260.085 76.2868H223.077C222.734 76.2868 222.391 76.6306 222.391 76.9742V94.8429C222.391 95.1864 222.666 95.4613 223.077 95.53H240.348C240.759 95.53 241.033 95.8049 241.033 96.2172C240.964 104.533 239.525 120.615 223.694 120.615C211.152 120.615 206.149 105.427 206.149 87.5579C206.149 66.3904 211.358 53.3325 223.008 53.3325C231.986 53.3325 234.59 61.5107 235.207 63.6413C235.276 63.9849 235.55 64.1911 235.893 64.1911H256.453C256.796 64.1911 257.07 63.9162 257.138 63.5726V63.5039C256.727 53.0576 247.817 33.6769 223.42 33.6769C203.202 33.6769 184.492 48.6591 184.492 87.4205C184.492 114.086 194.909 140.408 223.762 140.408C245.144 140.408 258.783 123.845 261.798 103.915C268.241 125.151 286.676 140.408 310.801 140.408C334.101 140.408 352.674 125.563 359.46 104.877V137.659C359.46 138.002 359.802 138.346 360.145 138.346H380.567C380.91 138.346 381.253 138.071 381.253 137.659V80.6852C381.253 80.273 381.595 79.9981 382.006 80.0668C382.28 80.0668 382.486 80.2042 382.554 80.4791L409.215 138.002C409.283 138.209 409.557 138.415 409.831 138.415H427.924C428.267 138.415 428.609 138.14 428.609 137.728V105.22C432.586 124.738 443.824 140.545 466.167 140.545C490.497 140.545 504.819 119.034 504.819 95.53V77.8675C504.75 77.0429 504.134 76.3555 503.311 76.2868ZM310.527 118.965C293.323 118.965 281.4 105.701 281.4 87.008C281.4 68.3147 293.323 55.0506 310.527 55.0506C327.729 55.0506 339.654 68.3147 339.654 87.008C339.654 105.701 327.66 118.965 310.527 118.965Z" fill="#3E0075"/>
	</g>
</svg>
