<?xml version="1.0" ?>
<svg xmlns="http://www.w3.org/2000/svg" viewBox="0 0 640 384">
	<g fill="none" fill-rule="evenodd">
		<g fill-rule="nonzero">
			<path d="M284.486 233h.83c2.879.064 5.71 1.24 7.745 3.322-.751.78-1.518 1.526-2.253 2.305-1.143-1.049-2.52-1.86-4.022-2.146-2.222-.477-4.616-.048-6.478 1.24-2.034 1.351-3.411 3.64-3.709 6.088-.328 2.416.345 4.96 1.894 6.835 1.486 1.828 3.755 2.973 6.103 3.052 2.19.128 4.475-.556 6.07-2.114 1.253-1.097 1.832-2.766 2.02-4.387-2.598 0-5.196.016-7.793 0v-3.275h10.938c.563 3.513-.25 7.471-2.88 9.983-1.752 1.78-4.177 2.83-6.65 3.036-2.394.239-4.866-.222-6.994-1.399a12.176 12.176 0 0 1-5.587-6.47c-.939-2.527-.954-5.388-.078-7.931a12.085 12.085 0 0 1 4.303-5.802c1.894-1.415 4.194-2.194 6.541-2.337z" fill="#3780FF"/>
			<path d="M347 234h4v21.996c-1.327 0-2.673.016-4-.015.019-7.317 0-14.649 0-21.981z" fill="#38B137"/>
			<path d="M303.44 242.137c2.169-.386 4.518.046 6.308 1.266 1.626 1.08 2.759 2.778 3.104 4.63.443 2.145-.115 4.491-1.593 6.189-1.593 1.898-4.205 2.917-6.75 2.763-2.333-.124-4.6-1.22-5.979-3.01-1.56-1.976-1.938-4.692-1.084-7.007.854-2.485 3.269-4.383 5.995-4.831zm.494 2.932a4.458 4.458 0 0 0-2.3 1.374c-1.593 1.79-1.494 4.708.263 6.374 1.002.957 2.513 1.405 3.909 1.143a4.41 4.41 0 0 0 3.055-2.115c1.084-1.837.772-4.368-.887-5.803-1.068-.926-2.628-1.312-4.04-.973z" fill="#FA3913"/>
			<path d="M321.44 242.138c2.482-.448 5.194.2 7.052 1.838 3.024 2.547 3.353 7.319.772 10.252-1.561 1.853-4.092 2.872-6.59 2.764-2.384-.062-4.734-1.173-6.148-3.01-1.594-2.024-1.94-4.803-1.035-7.165.904-2.41 3.27-4.247 5.95-4.679zm.494 2.934a4.541 4.541 0 0 0-2.301 1.359c-1.578 1.76-1.513 4.632.18 6.315 1.003 1.004 2.564 1.498 4.01 1.22 1.283-.232 2.433-1.035 3.058-2.116 1.068-1.853.756-4.385-.92-5.82-1.069-.927-2.63-1.298-4.027-.958z" fill="#FCBD06"/>
			<path d="M333.775 243.047c1.852-1.126 4.316-1.438 6.313-.469.628.266 1.143.719 1.643 1.172.016-.422 0-.86.016-1.297 1.079.016 2.158 0 3.253.016v13.786c-.016 2.08-.564 4.283-2.11 5.8-1.69 1.672-4.284 2.188-6.619 1.844-2.496-.36-4.67-2.126-5.637-4.361.967-.453 1.981-.813 2.98-1.235.563 1.282 1.707 2.376 3.14 2.626 1.434.25 3.092-.094 4.026-1.25.999-1.188.999-2.814.95-4.268-.74.704-1.594 1.329-2.624 1.563-2.239.61-4.703-.14-6.426-1.61-1.74-1.469-2.77-3.735-2.674-5.986.049-2.548 1.53-5.002 3.769-6.331zm3.334 2c-.983.157-1.9.689-2.529 1.423-1.514 1.75-1.514 4.549.016 6.268.87 1.016 2.271 1.58 3.624 1.438 1.272-.125 2.448-.906 3.076-1.985 1.063-1.829.886-4.314-.548-5.908-.885-.985-2.303-1.47-3.64-1.235z" fill="#3780FF"/>
			<path d="M354.537 243.83c2.007-1.728 5.102-2.315 7.678-1.404 2.443.849 3.999 2.994 4.785 5.2-3.63 1.389-7.244 2.762-10.874 4.151.502.88 1.271 1.682 2.309 2.006 1.455.479 3.195.309 4.416-.586.485-.34.87-.787 1.238-1.22.92.572 1.84 1.127 2.76 1.698-1.304 1.806-3.496 3.071-5.855 3.272-2.61.293-5.387-.633-7.076-2.516-2.778-2.962-2.51-7.931.619-10.6zm1.79 2.855c-.57.756-.803 1.682-.787 2.592 2.426-.926 4.852-1.851 7.278-2.793-.402-.864-1.372-1.389-2.36-1.527-1.589-.263-3.245.524-4.131 1.728z" fill="#FA3913"/>
		</g>
		<path d="M211.866 275.99h4.56L207.354 310h-4.465l-7.315-22.42h-.19L188.069 310h-4.465l-9.453-34.01h4.56l7.173 26.743h.19l7.362-22.183h4.085l7.363 22.183h.19l6.792-26.743zm18.43 34.77c-3.42 0-6.238-1.172-8.455-3.515-2.216-2.343-3.325-5.304-3.325-8.882 0-3.547 1.077-6.5 3.23-8.86 2.154-2.358 4.909-3.538 8.265-3.538 3.452 0 6.199 1.116 8.242 3.349 2.042 2.232 3.063 5.36 3.063 9.381l-.047.475H222.98c.064 2.28.824 4.117 2.28 5.51 1.457 1.393 3.199 2.09 5.225 2.09 2.787 0 4.972-1.393 6.555-4.18l3.895 1.9c-1.045 1.963-2.493 3.5-4.346 4.608-1.853 1.108-3.95 1.662-6.294 1.662zm-6.982-15.2h13.347c-.126-1.615-.783-2.953-1.971-4.014-1.188-1.06-2.779-1.591-4.774-1.591-1.646 0-3.063.507-4.251 1.52-1.188 1.013-1.971 2.375-2.351 4.085zm34.295 15.2c-1.71 0-3.27-.364-4.679-1.092-1.41-.729-2.494-1.695-3.254-2.898h-.19V310h-4.18v-34.01h4.37v10.735l-.19 3.23h.19c.76-1.203 1.845-2.17 3.254-2.897 1.41-.729 2.969-1.093 4.679-1.093 3.071 0 5.668 1.203 7.79 3.61 2.185 2.438 3.277 5.367 3.277 8.788 0 3.451-1.092 6.38-3.277 8.787-2.122 2.407-4.719 3.61-7.79 3.61zm-.713-3.99c2.09 0 3.848-.792 5.273-2.375 1.425-1.552 2.137-3.562 2.137-6.032 0-2.439-.712-4.45-2.137-6.033-1.425-1.583-3.183-2.375-5.273-2.375-2.121 0-3.895.792-5.32 2.375-1.393 1.583-2.09 3.594-2.09 6.033 0 2.47.697 4.496 2.09 6.08 1.425 1.551 3.199 2.327 5.32 2.327zm26.98 3.23v-34.01h10.403c5.193 0 9.365 1.567 12.516 4.702 3.15 3.136 4.726 7.236 4.726 12.303 0 5.098-1.575 9.207-4.726 12.326-3.15 3.12-7.323 4.679-12.516 4.679h-10.403zm4.37-29.83v25.65h6.033c3.958 0 7.077-1.132 9.357-3.396 2.28-2.264 3.42-5.407 3.42-9.429 0-3.99-1.14-7.125-3.42-9.405-2.28-2.28-5.399-3.42-9.357-3.42h-6.033zm38.143 30.59c-3.42 0-6.239-1.172-8.455-3.515-2.217-2.343-3.325-5.304-3.325-8.882 0-3.547 1.076-6.5 3.23-8.86 2.153-2.358 4.908-3.538 8.265-3.538 3.451 0 6.198 1.116 8.241 3.349 2.043 2.232 3.064 5.36 3.064 9.381l-.048.475h-18.287c.063 2.28.823 4.117 2.28 5.51 1.456 1.393 3.198 2.09 5.225 2.09 2.786 0 4.971-1.393 6.555-4.18l3.895 1.9c-1.045 1.963-2.494 3.5-4.346 4.608-1.853 1.108-3.95 1.662-6.294 1.662zm-6.983-15.2h13.348c-.127-1.615-.784-2.953-1.971-4.014-1.188-1.06-2.78-1.591-4.774-1.591-1.647 0-3.064.507-4.252 1.52-1.187 1.013-1.97 2.375-2.35 4.085zm39.805 7.98c0 2.027-.886 3.737-2.66 5.13-1.773 1.393-4.006 2.09-6.697 2.09-2.344 0-4.402-.61-6.175-1.829-1.774-1.219-3.04-2.826-3.8-4.821l3.895-1.663c.57 1.394 1.401 2.478 2.493 3.254 1.093.776 2.288 1.164 3.587 1.164 1.393 0 2.557-.3 3.491-.903.934-.601 1.401-1.314 1.401-2.137 0-1.488-1.14-2.58-3.42-3.277l-3.99-.998c-4.528-1.14-6.792-3.325-6.792-6.555 0-2.122.863-3.824 2.589-5.106 1.725-1.283 3.934-1.924 6.626-1.924 2.058 0 3.918.49 5.581 1.473 1.663.981 2.826 2.295 3.491 3.942l-3.895 1.615c-.443-.982-1.163-1.75-2.161-2.304-.998-.554-2.114-.831-3.349-.831-1.14 0-2.161.285-3.063.855-.903.57-1.354 1.267-1.354 2.09 0 1.33 1.25 2.28 3.752 2.85l3.515.903c4.624 1.14 6.935 3.467 6.935 6.982zm9.453-24.843c0 .856-.301 1.584-.903 2.185a2.976 2.976 0 0 1-2.185.903c-.855 0-1.583-.3-2.185-.903a2.976 2.976 0 0 1-.902-2.185c0-.855.3-1.583.902-2.185a2.976 2.976 0 0 1 2.185-.902c.855 0 1.584.3 2.185.902.602.602.903 1.33.903 2.185zm-.903 8.028V310h-4.37v-23.275h4.37zm16.15 20.045c2.154 0 3.911-.776 5.273-2.327 1.425-1.552 2.137-3.579 2.137-6.08 0-2.439-.712-4.45-2.137-6.033-1.394-1.583-3.151-2.375-5.273-2.375-2.09 0-3.847.792-5.272 2.375-1.425 1.583-2.138 3.594-2.138 6.033 0 2.47.713 4.48 2.138 6.032 1.425 1.583 3.182 2.375 5.272 2.375zm-.142 14.25c-1.299 0-2.518-.166-3.658-.499-1.14-.332-2.177-.8-3.111-1.401a10.05 10.05 0 0 1-2.399-2.137 9.011 9.011 0 0 1-1.52-2.755l4.133-1.71a6.542 6.542 0 0 0 2.47 3.277c1.171.823 2.533 1.235 4.085 1.235 2.375 0 4.227-.712 5.557-2.137 1.33-1.426 1.995-3.389 1.995-5.89v-2.233h-.19c-.823 1.235-1.94 2.209-3.348 2.921-1.41.713-2.938 1.069-4.584 1.069-3.04 0-5.653-1.187-7.838-3.563-2.153-2.438-3.23-5.383-3.23-8.834 0-3.452 1.077-6.381 3.23-8.788 2.185-2.407 4.798-3.61 7.838-3.61 1.646 0 3.174.356 4.584 1.069 1.409.712 2.525 1.686 3.348 2.921h.19v-3.23h4.18v22.277c0 3.737-1.06 6.666-3.182 8.788-2.154 2.153-5.004 3.23-8.55 3.23zm17.052-34.295h4.18v3.23h.19c.665-1.14 1.686-2.09 3.064-2.85 1.378-.76 2.81-1.14 4.299-1.14 2.85 0 5.043.815 6.579 2.446 1.535 1.631 2.303 3.95 2.303 6.959V310h-4.37v-14.345c-.095-3.8-2.01-5.7-5.747-5.7-1.742 0-3.199.705-4.37 2.114-1.172 1.409-1.758 3.095-1.758 5.058V310h-4.37v-23.275zm36.195 24.035c-3.42 0-6.238-1.172-8.455-3.515-2.216-2.343-3.325-5.304-3.325-8.882 0-3.547 1.077-6.5 3.23-8.86 2.154-2.358 4.909-3.538 8.265-3.538 3.452 0 6.199 1.116 8.242 3.349 2.042 2.232 3.063 5.36 3.063 9.381l-.047.475H429.7c.064 2.28.824 4.117 2.28 5.51 1.457 1.393 3.199 2.09 5.225 2.09 2.787 0 4.972-1.393 6.555-4.18l3.895 1.9c-1.045 1.963-2.493 3.5-4.346 4.608-1.853 1.108-3.95 1.662-6.294 1.662zm-6.982-15.2h13.347c-.126-1.615-.783-2.953-1.971-4.014-1.188-1.06-2.779-1.591-4.774-1.591-1.646 0-3.063.507-4.251 1.52-1.188 1.013-1.971 2.375-2.351 4.085zM456.396 310h-4.37v-23.275h4.18v3.8h.19c.444-1.235 1.354-2.288 2.731-3.159 1.378-.87 2.732-1.306 4.062-1.306 1.266 0 2.343.19 3.23.57l-1.33 4.228c-.539-.222-1.394-.333-2.565-.333-1.647 0-3.08.665-4.299 1.995-1.22 1.33-1.829 2.882-1.829 4.655V310z" fill="#55585D"/>
		<g fill-rule="nonzero">
			<path d="M307.688 122.756h-42.485s-2.237 27.838 22.19 50.872c22.25 20.968 48.962 19.184 48.962 19.184v-41.326c-14.037 0-28.667-11.673-28.667-28.73z" fill="#F4B500"/>
			<path d="M332.177 98.19V65.171s-23.535-1.283-41.687 17.854C276.267 97.814 275 116.466 275 116.466s26.351 4.93 32.673 6.29c-.172-13.926 10.734-24.567 24.505-24.567z" fill="#4481F6"/>
			<path d="M275.015 116.466s-.564 3.396-.235 6.29h32.908l-32.673-6.29z" fill="#3566C5"/>
			<path d="M332.177 98.19l6.337-22.815s-4.1-.532-6.337-.282v23.096z" fill="#AF362B"/>
			<path d="M332.177 98.19s20.326-.423 21.265 21.437h22.22s2.003-35.693-37.148-44.252c-1.565 5.68-6.337 22.814-6.337 22.814z" fill="#DB4533"/>
			<path d="M336.37 151.486l7.652-17.01s9.029-4.287 9.436-14.865c2.926 1.283 9.967 4.194 13.19 5.618-.703 5.445-7.98 25.631-30.278 26.257z" fill="#CCC"/>
			<path d="M344.022 134.477s-3.208 2.19-7.652 1.815v15.194l7.652-17.01zm9.42-14.866h13.974s.328 2.034-.783 5.618c-2.926-1.268-13.19-5.618-13.19-5.618z" fill="#B7B7B7"/>
		</g>
	</g>
</svg>