<svg xmlns="http://www.w3.org/2000/svg" viewBox="0 0 307.62 80.3"><defs><style>.cls-1{fill:#316094;}</style></defs><path class="cls-1" d="M124.67,22.91c.1,5.07-.44,9.25-3.88,13.23a18.53,18.53,0,0,1-13.87,6.26,19.39,19.39,0,1,1,.25-38.78c6.57,0,11.89,2.94,15.86,8.11l-3,2.83c-3.13-4.42-7.36-7.06-12.88-7.06A15.55,15.55,0,0,0,91.81,23.16a15.07,15.07,0,0,0,4.38,10.59,15.76,15.76,0,0,0,10.64,4.77c6.51,0,13.37-4.77,13.37-11.73H109.06V22.91Z"/><path class="cls-1" d="M166.78,23.06A19.54,19.54,0,1,1,147.24,3.62,19.44,19.44,0,0,1,166.78,23.06Zm-34.9,0A15.36,15.36,0,1,0,147.24,7.5,15.5,15.5,0,0,0,131.88,23Z"/><path class="cls-1" d="M175.63,41.75h-4.18V4.27h5.42c7.11,0,13.72,1.89,13.72,10.34,0,5.77-3.63,9.84-9.39,10.34l11.93,16.8H188L176.67,25.3h-1Zm0-20.13h1.29c4.72,0,9.5-.89,9.5-6.71,0-6.17-4.53-6.76-9.55-6.76h-1.24Z"/><path class="cls-1" d="M198.4,4.27h7.06c5.61,0,10.19.75,14.61,4.52a18.14,18.14,0,0,1,6.22,14.27,18.07,18.07,0,0,1-6.12,14c-4.47,4-8.95,4.72-14.81,4.72h-7Zm7.21,33.61c4.57,0,8.4-.65,11.83-3.88a14.84,14.84,0,0,0,4.67-11,14.79,14.79,0,0,0-4.87-11.23c-3.43-3-7.21-3.63-11.63-3.63h-3V37.88Z"/><path class="cls-1" d="M268.29,23.06A19.54,19.54,0,1,1,248.76,3.62,19.43,19.43,0,0,1,268.29,23.06ZM233.4,23A15.36,15.36,0,1,0,248.76,7.5,15.5,15.5,0,0,0,233.4,23Z"/><path class="cls-1" d="M274.21,2.68,303.44,33.3v-29h4.18V43.44L278.39,12.87V41.75h-4.18Z"/><path class="cls-1" d="M98.27,59.1a4.05,4.05,0,0,0-3.8-2.4,3.51,3.51,0,0,0-3.66,3.42c0,1.9,2,2.78,3.45,3.45l1.46.65c2.87,1.25,5.29,2.69,5.29,6.19a7,7,0,0,1-13.8,1.11l2.4-.67A4.55,4.55,0,0,0,94,75a4.43,4.43,0,0,0,4.53-4.3c0-2.57-2-3.45-4.07-4.39l-1.34-.58c-2.57-1.17-4.8-2.49-4.8-5.64,0-3.43,2.9-5.62,6.17-5.62a6.32,6.32,0,0,1,5.7,3.42Z"/><path class="cls-1" d="M111.92,76.85h-2.45V57.08h-5.32V54.8H117.3v2.28h-5.38Z"/><path class="cls-1" d="M122.25,70.59l-2.66,6.26H116.9l10.18-23.1L137,76.85h-2.72l-2.6-6.26ZM127,59.48l-3.77,8.83h7.45Z"/><path class="cls-1" d="M144.36,76.85h-2.45V57.08h-5.32V54.8h13.15v2.28h-5.38Z"/><path class="cls-1" d="M153.72,54.8h11.43v2.28h-9v6.55h8.71v2.28h-8.71v8.66h9v2.28H153.72Z"/><path class="cls-1" d="M198.08,59.63a9.4,9.4,0,0,0-6.72-2.93A9.13,9.13,0,0,0,191.42,75,9.62,9.62,0,0,0,198.08,72v3a11.32,11.32,0,0,1-6.58,2.17,11.41,11.41,0,1,1,0-22.81,10.6,10.6,0,0,1,6.58,2.17Z"/><path class="cls-1" d="M225.25,65.85a11.49,11.49,0,1,1-11.49-11.43A11.44,11.44,0,0,1,225.25,65.85Zm-20.53,0a9,9,0,1,0,9-9.12A9.13,9.13,0,0,0,204.72,65.82Z"/><path class="cls-1" d="M232.18,74.57h6.08v2.28h-8.53v-22h2.45Z"/><path class="cls-1" d="M245.46,74.57h6.08v2.28H243v-22h2.46Z"/><path class="cls-1" d="M256.28,54.8h11.43v2.28h-9v6.55h8.72v2.28h-8.72v8.66h9v2.28H256.28Z"/><path class="cls-1" d="M293.14,65.77c.06,3-.26,5.43-2.28,7.77a10.87,10.87,0,0,1-8.15,3.69,11.41,11.41,0,1,1,9.47-18l-1.78,1.66a9,9,0,0,0-7.58-4.15,9.15,9.15,0,0,0-9,9.21,8.92,8.92,0,0,0,2.57,6.23A9.27,9.27,0,0,0,282.65,75c3.83,0,7.86-2.81,7.86-6.9H284V65.77Z"/><path class="cls-1" d="M296.19,54.8h11.43v2.28h-9v6.55h8.71v2.28h-8.71v8.66h9v2.28H296.19Z"/><path class="cls-1" d="M39.65,3.58C19.72,3.58,3.5,20,3.5,40.16A36.41,36.41,0,0,0,39.65,76.73,36.41,36.41,0,0,0,75.8,40.16C75.8,20,59.58,3.58,39.65,3.58ZM57.77,56.49A24.35,24.35,0,0,1,40.11,64c-13,0-23.9-10.87-23.9-23.73A24.2,24.2,0,0,1,40.47,16.22c8,0,15,3.75,20.16,10.83l.53.73-3.82,3L56.76,30c-4-5.92-9.82-9.19-16.47-9.19C30,20.78,21,29.82,21,40.13A19.6,19.6,0,0,0,40.29,59.47a20.28,20.28,0,0,0,12.57-4.72,13.65,13.65,0,0,0,5.06-10.18H42V40H62.69l0,.93C62.81,45.85,62.31,51.55,57.77,56.49Z"/><path class="cls-1" d="M39.66,80.3C17.79,80.3,0,62.29,0,40.15S17.79,0,39.66,0,79.32,18,79.32,40.15,61.53,80.3,39.66,80.3ZM39.66,1C18.31,1,1,18.53,1,40.15s17.36,39.2,38.71,39.2,38.72-17.58,38.72-39.2S61,1,39.66,1Z"/></svg>