<svg viewBox="0 0 213 41" fill="none" xmlns="http://www.w3.org/2000/svg">
<path d="M77.0609 22.1685L0.978027 30.1328L1.89575 38.829L77.9786 30.8648L77.0609 22.1685Z" fill="#FFE900"/>
<path d="M37.8538 5.85938C36.1176 5.85938 34.4205 6.37212 32.9769 7.33277C31.5334 8.29342 30.4083 9.65882 29.7439 11.2563C29.0795 12.8538 28.9057 14.6117 29.2444 16.3076C29.5831 18.0035 30.4191 19.5612 31.6467 20.7839C32.8744 22.0066 34.4385 22.8392 36.1413 23.1766C37.844 23.5139 39.609 23.3408 41.213 22.6791C42.817 22.0174 44.188 20.8968 45.1525 19.4591C46.1171 18.0214 46.6319 16.3311 46.6319 14.602C46.6332 13.4535 46.407 12.3161 45.9664 11.2548C45.5257 10.1935 44.8792 9.22918 44.0638 8.4171C43.2484 7.60501 42.2802 6.96109 41.2146 6.5222C40.149 6.08331 39.0069 5.85807 37.8538 5.85938V5.85938ZM37.8538 19.4618C36.889 19.4619 35.9458 19.1771 35.1435 18.6434C34.3412 18.1096 33.7159 17.3509 33.3465 16.4632C32.9772 15.5755 32.8805 14.5986 33.0686 13.6562C33.2568 12.7137 33.7213 11.848 34.4035 11.1685C35.0856 10.4889 35.9548 10.0262 36.9011 9.83864C37.8473 9.65112 38.8282 9.74728 39.7196 10.115C40.6109 10.4827 41.3728 11.1054 41.9089 11.9043C42.4449 12.7033 42.731 13.6426 42.731 14.6035C42.7306 15.8917 42.2167 17.1271 41.3021 18.0381C40.3876 18.9491 39.1472 19.4612 37.8538 19.4618V19.4618Z" fill="black"/>
<path d="M66.1082 5.85938C64.372 5.85938 62.6749 6.37213 61.2313 7.33277C59.7878 8.29342 58.6627 9.65883 57.9983 11.2563C57.3339 12.8538 57.16 14.6117 57.4987 16.3076C57.8375 18.0035 58.6735 19.5612 59.9011 20.7839C61.1288 22.0066 62.6929 22.8392 64.3957 23.1766C66.0984 23.5139 67.8634 23.3408 69.4674 22.6791C71.0714 22.0174 72.4423 20.8968 73.4069 19.4591C74.3714 18.0214 74.8863 16.3311 74.8863 14.602C74.8877 13.4535 74.6616 12.316 74.221 11.2547C73.7803 10.1933 73.1338 9.22898 72.3184 8.41688C71.503 7.60477 70.5347 6.96085 69.4691 6.52199C68.4034 6.08314 67.2613 5.85797 66.1082 5.85938V5.85938ZM66.1082 19.4618C65.1434 19.4618 64.2003 19.1768 63.3981 18.643C62.5959 18.1092 61.9707 17.3504 61.6015 16.4627C61.2323 15.5749 61.1357 14.5981 61.3239 13.6557C61.5121 12.7133 61.9767 11.8476 62.6589 11.1682C63.3411 10.4887 64.2103 10.026 65.1565 9.83858C66.1028 9.65112 67.0836 9.74733 67.9749 10.115C68.8662 10.4828 69.6281 11.1055 70.1641 11.9044C70.7001 12.7033 70.9862 13.6426 70.9862 14.6035C70.9858 15.8919 70.4717 17.1274 69.557 18.0384C68.6423 18.9494 67.4018 19.4614 66.1082 19.4618V19.4618Z" fill="black"/>
<path d="M60.7595 5.35537V1.46875H43.2002V5.35537H50.0286V22.8827H53.931V5.35537H60.7595Z" fill="black"/>
<path d="M14.1283 10.21V14.0967H19.5184C18.2733 17.3536 15.8993 19.4603 13.1496 19.4603C11.9473 19.4575 10.7643 19.1597 9.70512 18.5931C8.64597 18.0265 7.74336 17.2086 7.07716 16.2118C6.41097 15.215 6.00172 14.0701 5.88564 12.8782C5.76957 11.6864 5.95023 10.4845 6.41165 9.37877C6.87306 8.27305 7.60101 7.29765 8.53108 6.53886C9.46115 5.78008 10.5647 5.2613 11.744 5.02844C12.9233 4.79558 14.1421 4.85582 15.2925 5.20381C16.4429 5.55181 17.4894 6.17684 18.3395 7.0236L21.1115 4.26278C19.5434 2.69879 17.5448 1.63309 15.3686 1.20049C13.1923 0.767894 10.9361 0.987832 8.8853 1.83248C6.83453 2.67713 5.08135 4.10855 3.84752 5.94568C2.61368 7.78281 1.95462 9.94312 1.95369 12.1533C1.94828 13.6191 2.23525 15.0713 2.79796 16.4257C3.36067 17.7801 4.18789 19.0097 5.23162 20.0431C6.2693 21.085 7.50297 21.913 8.86212 22.4797C10.2213 23.0465 11.6792 23.3409 13.1527 23.3462C16.9742 23.3462 20.4108 20.8959 22.4398 17.0047V22.8799H26.3422V10.21H14.1283Z" fill="black"/>
<line x1="97" y1="1" x2="97" y2="40.0006" stroke="#6D6D6D"/>
<path d="M118.36 25.244C116.664 23.58 115.816 21.532 115.816 19.1C115.816 16.668 116.664 14.62 118.36 12.956C120.056 11.292 122.152 10.46 124.648 10.46C126.488 10.46 128.104 10.932 129.496 11.876C130.888 12.82 131.888 13.972 132.496 15.332L129.328 16.556C128.912 15.692 128.288 14.988 127.456 14.444C126.64 13.884 125.704 13.604 124.648 13.604C123.16 13.604 121.904 14.132 120.88 15.188C119.872 16.244 119.368 17.548 119.368 19.1C119.368 20.652 119.872 21.956 120.88 23.012C121.904 24.068 123.16 24.596 124.648 24.596C125.704 24.596 126.64 24.324 127.456 23.78C128.288 23.22 128.912 22.508 129.328 21.644L132.496 22.868C131.888 24.228 130.888 25.38 129.496 26.324C128.104 27.268 126.488 27.74 124.648 27.74C122.152 27.74 120.056 26.908 118.36 25.244ZM135.171 25.892C133.907 24.66 133.275 23.132 133.275 21.308C133.275 19.484 133.907 17.956 135.171 16.724C136.435 15.492 138.011 14.876 139.899 14.876C141.787 14.876 143.363 15.492 144.627 16.724C145.891 17.956 146.523 19.484 146.523 21.308C146.523 23.132 145.891 24.66 144.627 25.892C143.363 27.124 141.787 27.74 139.899 27.74C138.011 27.74 136.435 27.124 135.171 25.892ZM136.635 21.308C136.635 22.3 136.947 23.132 137.571 23.804C138.195 24.46 138.971 24.788 139.899 24.788C140.827 24.788 141.603 24.46 142.227 23.804C142.851 23.132 143.163 22.3 143.163 21.308C143.163 20.316 142.851 19.492 142.227 18.836C141.603 18.18 140.827 17.852 139.899 17.852C138.971 17.852 138.195 18.188 137.571 18.86C136.947 19.516 136.635 20.332 136.635 21.308ZM155.75 14.876C157.126 14.876 158.23 15.356 159.062 16.316C159.91 17.276 160.334 18.5 160.334 19.988V27.5H157.094V20.564C157.094 19.764 156.838 19.108 156.326 18.596C155.814 18.084 155.174 17.828 154.406 17.828C153.542 17.828 152.838 18.084 152.294 18.596C151.75 19.108 151.478 19.764 151.478 20.564V27.5H148.238V15.116H151.478V18.284C151.798 17.228 152.334 16.396 153.086 15.788C153.854 15.18 154.742 14.876 155.75 14.876ZM169.952 14.876C171.328 14.876 172.432 15.356 173.264 16.316C174.112 17.276 174.536 18.5 174.536 19.988V27.5H171.296V20.564C171.296 19.764 171.04 19.108 170.528 18.596C170.016 18.084 169.376 17.828 168.608 17.828C167.744 17.828 167.04 18.084 166.496 18.596C165.952 19.108 165.68 19.764 165.68 20.564V27.5H162.44V15.116H165.68V18.284C166 17.228 166.536 16.396 167.288 15.788C168.056 15.18 168.944 14.876 169.952 14.876ZM182.665 14.876C184.745 14.876 186.409 15.628 187.657 17.132C188.921 18.62 189.385 20.396 189.049 22.46H179.497C179.721 23.212 180.129 23.82 180.721 24.284C181.329 24.732 182.049 24.956 182.881 24.956C184.289 24.956 185.313 24.38 185.953 23.228L188.617 24.428C188.057 25.436 187.265 26.244 186.241 26.852C185.233 27.444 184.081 27.74 182.785 27.74C180.897 27.74 179.321 27.124 178.057 25.892C176.793 24.66 176.161 23.132 176.161 21.308C176.161 19.484 176.785 17.956 178.033 16.724C179.281 15.492 180.825 14.876 182.665 14.876ZM182.665 17.66C181.945 17.66 181.297 17.876 180.721 18.308C180.161 18.724 179.769 19.284 179.545 19.988H185.809C185.585 19.284 185.193 18.724 184.633 18.308C184.073 17.876 183.417 17.66 182.665 17.66ZM192.259 25.892C190.995 24.66 190.363 23.132 190.363 21.308C190.363 19.484 190.995 17.956 192.259 16.724C193.523 15.492 195.099 14.876 196.987 14.876C198.315 14.876 199.507 15.22 200.563 15.908C201.619 16.596 202.411 17.564 202.939 18.812L199.963 19.844C199.691 19.204 199.291 18.716 198.763 18.38C198.235 18.028 197.643 17.852 196.987 17.852C196.059 17.852 195.283 18.188 194.659 18.86C194.035 19.516 193.723 20.332 193.723 21.308C193.723 22.3 194.035 23.132 194.659 23.804C195.283 24.46 196.059 24.788 196.987 24.788C197.643 24.788 198.235 24.612 198.763 24.26C199.291 23.908 199.691 23.412 199.963 22.772L202.939 23.804C202.411 25.052 201.619 26.02 200.563 26.708C199.507 27.396 198.315 27.74 196.987 27.74C195.099 27.74 193.523 27.124 192.259 25.892ZM205.479 17.972H202.983V15.116H205.479V11.468L208.719 10.46V15.116H211.935V17.972H208.719V22.892C208.719 24.06 209.303 24.644 210.471 24.644H211.935V27.5H210.471C208.775 27.5 207.519 27.108 206.703 26.324C205.887 25.524 205.479 24.316 205.479 22.7V17.972Z" fill="black"/>
</svg>