<svg viewBox="0 0 461 99" fill="none" xmlns="http://www.w3.org/2000/svg">
<path d="M60 0H44V21.4092C44 24.0819 40.7686 25.4204 38.8787 23.5305L21.3138 5.96565L10.0001 17.2794L27.5994 34.8787C29.4893 36.7686 28.1508 40 25.4781 40L0 40V56H25.7574C28.4301 56 29.7686 59.2314 27.8787 61.1213L10 79L21.3137 90.3137L38.8787 72.7487C40.7686 70.8589 44 72.1974 44 74.8701V96H60V0Z" fill="#000"/>
<path fill-rule="evenodd" clip-rule="evenodd" d="M120 37.1875H133.75C132 24.5312 120.844 15.625 106.375 15.625C89.4688 15.625 76.4375 27.8125 76.4375 48.5625C76.4375 68.8125 88.625 81.375 106.656 81.375C122.812 81.375 134.344 71.1562 134.344 54.3125V46.25H107.563V56.4375H121.312C121.125 64.375 115.719 69.4062 106.719 69.4062C96.5625 69.4062 90.1562 61.8125 90.1562 48.4375C90.1562 35.125 96.8125 27.5938 106.594 27.5938C113.562 27.5938 118.281 31.1875 120 37.1875ZM142.058 98.5H155.37V98.4834H142.058V98.5ZM142.058 92V32.5H155.183V40.5625H155.777C157.558 36.6563 161.402 31.875 169.433 31.875C179.964 31.875 188.87 40.0625 188.87 56.5625C188.87 72.625 180.339 81.2812 169.402 81.2812C161.652 81.2812 157.62 76.8125 155.777 72.8125H155.37V92H142.058ZM155.089 56.5C155.089 47.9375 158.714 42.4688 165.183 42.4688C171.777 42.4688 175.277 48.1875 175.277 56.5C175.277 64.875 171.714 70.6875 165.183 70.6875C158.777 70.6875 155.089 65.0625 155.089 56.5ZM215.045 31.875C227.17 31.875 234.295 37.3438 235.483 46.1875L223.295 46.9375C222.639 43.8438 219.889 41.3125 215.264 41.3125C211.139 41.3125 207.889 43.1875 207.92 46.0625C207.889 48.375 209.545 49.9062 214.014 50.875L222.702 52.625C232.014 54.5312 236.545 58.6875 236.577 65.625C236.545 75.0938 227.639 81.4375 215.202 81.4375C202.483 81.4375 194.67 75.7812 193.42 66.5938L206.514 65.9062C207.327 69.8125 210.483 71.8438 215.233 71.8438C219.889 71.8438 222.983 69.8125 223.045 66.9688C222.983 64.5625 221.077 63.0312 216.889 62.1875L208.577 60.5312C199.202 58.6562 194.67 54 194.702 46.8125C194.67 37.5625 202.764 31.875 215.045 31.875ZM285.447 37.1875H299.197C297.447 24.5312 286.291 15.625 271.822 15.625C254.916 15.625 241.884 27.8125 241.884 48.5625C241.884 68.8125 254.072 81.375 272.103 81.375C288.259 81.375 299.791 71.1562 299.791 54.3125V46.25H273.009V56.4375H286.759C286.572 64.375 281.166 69.4062 272.166 69.4062C262.009 69.4062 255.603 61.8125 255.603 48.4375C255.603 35.125 262.259 27.5938 272.041 27.5938C279.009 27.5938 283.728 31.1875 285.447 37.1875ZM338.817 72.8125C336.973 76.8125 332.942 81.2812 325.192 81.2812C314.255 81.2812 305.723 72.625 305.723 56.5625C305.723 40.0625 314.63 31.875 325.161 31.875C333.192 31.875 337.036 36.6563 338.817 40.5625H339.223V32.5H352.505V80.5H339.38V72.8125H338.817ZM319.317 56.5C319.317 64.875 322.88 70.6875 329.411 70.6875C335.817 70.6875 339.505 65.0625 339.505 56.5C339.505 47.9375 335.88 42.4688 329.411 42.4688C322.817 42.4688 319.317 48.1875 319.317 56.5ZM386.781 32.5H377.75V21H364.438V29.5C364.438 31.1569 363.094 32.5 361.438 32.5H357.875V42.5H364.438V67.5C364.375 76.9062 370.781 81.5625 380.438 81.1562C383.875 81.0312 386.312 80.3438 387.656 79.9062L385.562 70C385.482 70.0153 385.391 70.0333 385.29 70.0533C384.565 70.1967 383.347 70.4375 382.25 70.4375C379.594 70.4375 377.75 69.4375 377.75 65.75V42.5H386.781V32.5ZM436.362 66.75C434.487 75.6562 426.487 81.4375 414.612 81.4375C399.831 81.4375 390.8 71.9375 390.8 56.7188C390.8 41.9063 399.956 31.875 414.081 31.875C426.769 31.875 436.644 39.9375 436.644 56.25V59.9062H403.956V59.9375C403.956 67.0938 408.175 71.5 414.831 71.5C419.269 71.5 422.706 69.5938 424.05 65.9375L436.362 66.75ZM414.3 41.8125C408.394 41.8125 404.237 46.1875 403.956 51.6562H424.112C424.081 45.9375 420.081 41.8125 414.3 41.8125Z" fill="#000"/>
<path d="M427.151 22.2165H425.046V27.9585H423.125V22.2165H421V20.5H427.151V22.2165ZM437 27.9585H435.14V23.4221L433.322 27.9585H431.932L430.093 23.4834V27.9585H428.234V20.5H430.849L432.668 24.8729L434.425 20.5H437V27.9585Z" fill="#000"/>
</svg>
