<svg id="b" xmlns="http://www.w3.org/2000/svg" viewBox="0 0 2000 277.62"><path id="d" d="M626.38,216.18c-18.06.43-35.89-4.12-51.54-13.15-14.66-8.73-26.51-21.49-34.13-36.76-8.39-17.18-12.54-36.12-12.1-55.23-.39-19.54,3.91-38.88,12.55-56.41,8.09-16.03,20.66-29.37,36.18-38.39,17.21-9.62,36.71-14.42,56.43-13.88,21.8-.83,43.29,5.38,61.28,17.72,16.26,11.82,27.48,29.32,31.45,49.02h-49.32c-2.76-8.02-8.24-14.81-15.5-19.19-8.59-4.83-18.36-7.19-28.2-6.8-11.51-.39-22.89,2.53-32.79,8.42-8.92,5.68-15.91,13.91-20.08,23.62-4.78,11.35-7.1,23.58-6.82,35.89-.36,12.36,1.96,24.65,6.8,36.03,4.08,9.33,11,17.14,19.78,22.3,9.38,5.2,19.98,7.8,30.71,7.53,14.12,1.01,28.04-3.79,38.54-13.29,8.87-9.07,14.52-20.79,16.1-33.38h-48.14v-33.07h92.44v115.47h-40.72l-3.54-23.91c-4.02,5.79-8.96,10.88-14.62,15.07-5.88,4.26-12.48,7.41-19.49,9.3-8.24,2.18-16.73,3.22-25.25,3.1M754.57,212.63V5.9h80.31c14.51-.51,28.93,2.42,42.09,8.57,10.51,5.12,19.22,13.32,24.98,23.5,5.59,10.28,8.44,21.82,8.26,33.52.1,11.23-2.64,22.31-7.97,32.2-5.66,10.19-14.18,18.5-24.5,23.92-13.28,6.61-28.01,9.76-42.83,9.16h-36.03v75.9l-44.31-.02ZM798.87,101.29h33.07c9.17.84,18.29-2.09,25.25-8.12,5.4-5.9,8.21-13.72,7.82-21.71.46-7.99-2.36-15.83-7.81-21.69-7.05-5.84-16.13-8.65-25.25-7.82h-33.07v59.34ZM967.8,212.65l-44.01-148.82h43.72l27.76,119.28-8.28-.29,31.9-119.02h48.73l31.9,119.02-8.28.29,27.47-119.31h43.74l-43.72,148.82h-46.07l-33.99-121.94h9.17l-34.26,121.98h-45.79ZM1239.31,216.18c-14.09.31-28.02-3-40.46-9.61-11.44-6.22-20.91-15.53-27.31-26.87-6.76-12.13-10.18-25.84-9.91-39.72-.25-14.29,3.1-28.4,9.76-41.05,6.27-11.77,15.67-21.58,27.17-28.35,12.3-7.07,26.29-10.65,40.47-10.34,13.73-.31,27.29,3.06,39.28,9.75,11.01,6.29,20.14,15.42,26.43,26.43,6.57,11.78,9.88,25.1,9.6,38.58,0,1.98-.05,4.19-.15,6.65-.1,2.52-.35,5.04-.74,7.54h-120.2v-25.76h75.91c-.1-7.61-3.37-14.84-9.02-19.94-5.73-5.06-13.18-7.75-20.82-7.52-6-.08-11.91,1.45-17.13,4.43-5.3,3.14-9.56,7.76-12.26,13.29-3.29,7.01-4.87,14.7-4.58,22.44v8.87c-.12,6.33,1.25,12.6,3.99,18.31,2.53,5.18,6.53,9.49,11.51,12.4,5.45,3.06,11.62,4.59,17.87,4.43,5.64.22,11.22-1.16,16.1-3.98,4.09-2.52,7.5-6.03,9.9-10.2h45.17c-2.76,9.46-7.6,18.19-14.17,25.54-6.81,7.66-15.17,13.8-24.51,18.02-10.02,4.51-20.91,6.78-31.9,6.65M1422.06,216.19c-6.64.09-13.26-.81-19.65-2.66-5.51-1.62-10.7-4.17-15.35-7.53-4.3-3.13-8.13-6.86-11.37-11.08l-5.02,17.72h-39.28V0h44.31v83.28c4.82-6.79,11.07-12.43,18.31-16.54,8.51-4.59,18.09-6.83,27.75-6.5,12.89-.2,25.56,3.34,36.48,10.19,10.79,6.86,19.6,16.44,25.54,27.76,6.47,12.44,9.72,26.3,9.45,40.31.21,13.87-3.03,27.57-9.45,39.87-5.86,11.33-14.63,20.91-25.39,27.76-10.9,6.77-23.51,10.25-36.33,10.04M1411.13,177.5c6.69.1,13.27-1.65,19.03-5.06,5.55-3.29,10.1-8.04,13.14-13.73,3.25-6.24,4.88-13.2,4.72-20.23.13-7.13-1.5-14.17-4.72-20.53-2.98-5.81-7.53-10.67-13.14-14.02-17.45-10.54-40.13-4.94-50.67,12.5-.3.5-.59,1.01-.87,1.52-3.28,6.34-4.9,13.4-4.72,20.53-.11,7.03,1.51,13.98,4.72,20.23,2.95,5.8,7.52,10.62,13.14,13.88,5.9,3.32,12.58,5,19.35,4.87M1511.51,277.62V63.8h39.28l5.02,19.5c3.22-4.21,6.89-8.07,10.93-11.51,4.41-3.7,9.46-6.55,14.91-8.42,6.62-2.19,13.56-3.24,20.53-3.1,12.91-.25,25.61,3.35,36.47,10.34,10.65,7.01,19.34,16.61,25.25,27.91,6.45,12.34,9.7,26.1,9.45,40.02.25,13.94-3.06,27.71-9.6,40.02-5.98,11.26-14.78,20.78-25.54,27.61-10.7,6.71-23.1,10.19-35.73,10.04-9.46.24-18.86-1.68-27.46-5.61-7.55-3.63-14.12-9-19.2-15.66v82.68l-44.3.02ZM1591.26,177.5c6.67.11,13.25-1.57,19.06-4.87,5.6-3.24,10.15-8,13.14-13.73,3.24-6.3,4.86-13.3,4.72-20.38.14-7.08-1.48-14.08-4.72-20.38-3.03-5.78-7.57-10.63-13.14-14.03-5.74-3.48-12.34-5.27-19.06-5.17-13.6-.32-26.2,7.12-32.49,19.18-3.22,6.2-4.84,13.1-4.72,20.08-.13,7.13,1.49,14.18,4.72,20.53,2.95,5.8,7.52,10.62,13.14,13.88,5.9,3.32,12.58,5,19.35,4.87M1739.49,216.19c-10.6.36-21.15-1.66-30.87-5.91-7.53-3.37-13.83-8.99-18.02-16.1-3.86-6.9-5.85-14.69-5.76-22.6-.16-8.31,2.15-16.48,6.64-23.48,5.16-7.37,12.42-13.03,20.83-16.24,11.39-4.38,23.54-6.44,35.73-6.06h36.03c.17-5.62-.69-11.22-2.52-16.54-1.48-4.1-4.35-7.55-8.12-9.75-4.75-2.39-10.04-3.51-15.35-3.25-6.07-.2-12.08,1.23-17.42,4.13-4.75,2.79-8,7.56-8.87,13h-42.52c.77-10.07,4.4-19.7,10.48-27.76,6.33-8.13,14.61-14.52,24.07-18.6,10.9-4.7,22.69-7.02,34.56-6.8,12.66-.29,25.23,2.07,36.92,6.94,9.93,4.21,18.4,11.25,24.36,20.24,6.1,9.92,9.13,21.43,8.72,33.07v92.13h-36.92l-5.31-21.56c-2.14,3.7-4.71,7.12-7.68,10.19-3.05,3.13-6.53,5.81-10.34,7.97-4.07,2.32-8.45,4.06-13,5.17-5.13,1.23-10.38,1.82-15.65,1.77M1750.41,182.48c4.26.1,8.49-.71,12.41-2.36,3.46-1.52,6.58-3.73,9.16-6.5,2.62-2.84,4.76-6.08,6.35-9.6,1.72-3.82,2.96-7.84,3.69-11.96v-.3h-28.65c-4.17-.12-8.33.53-12.26,1.92-2.92,1.03-5.45,2.94-7.23,5.47-1.61,2.45-2.43,5.33-2.36,8.26-.11,3,.77,5.96,2.5,8.42,1.72,2.3,4.09,4.05,6.8,5.02,3.07,1.13,6.33,1.68,9.6,1.63M1862.08,277.6l35.73-81.52h-8.86l-59.96-132.28h48.14l41.06,90.67,34.26-90.67h47.55l-90.97,213.8h-46.95Z" fill="#212121"></path><path id="e" d="M94.61,212.03L0,117.42l34.75-34.75,59.84,59.84L231.68,5.45l34.76,34.75L94.61,212.03Z" fill="#00de66"></path><rect id="f" x="148.63" y="84.52" width="244.02" height="49.14" transform="translate(2.13 223.32) rotate(-45)" fill="#1c6bff"></rect><rect id="g" x="256.28" y="84.53" width="244.01" height="49.14" transform="translate(33.65 299.44) rotate(-45)" fill="#1c6bff"></rect></svg>