<?xml version="1.0" ?>
<svg xmlns="http://www.w3.org/2000/svg" viewBox="0 0 348.4593 348.4593" fill="none">
	<style>
		.cls0 { fill: #8EC9E6; }
	</style>
	<path d="M 69.2118,292.61916 C 69.2118,292.61916 86.3828,292.65816 86.4084,292.63616 C 99.8383,292.63616 101.3403,285.58416 107.1383,278.32816 C 112.9273,271.07316 115.9873,267.63616 119.5413,270.32916 C 132.0303,280.31716 142.4253,287.90816 151.5213,281.07316 C 167.9983,268.47716 175.2733,237.60516 190.6943,219.85716 C 194.2953,215.26416 202.3323,208.45016 206.1543,204.04916 C 207.9463,202.16316 206.9163,200.37416 205.0693,201.48316 C 197.2923,206.69616 179.7633,218.09816 166.7853,242.18516 C 154.7943,264.01216 146.1323,271.46316 136.4573,265.67716 C 131.4983,262.91216 128.4503,258.93116 121.7083,254.22016 C 114.9613,249.50916 108.3853,259.16916 104.9203,262.63116 C 101.4513,266.09416 94.3933,276.12416 88.3238,277.27516 C 82.254,278.43016 75.4605,276.70116 71.272,285.06616 C 68.816,289.82416 69.2118,292.61916 69.2118,292.61916" class="cls0"/>
	<path d="M 228.0333,124.64666 C 235.1033,134.14516 234.5793,142.25116 228.8633,149.94016 C 224.7943,156.08316 222.3123,161.21516 221.5243,169.53316 C 220.4863,183.26716 230.9103,195.91816 243.3993,197.16316 C 249.6603,197.42216 255.0793,195.34916 259.5313,190.95616 C 274.3023,176.38116 274.2343,140.88316 274.1313,135.52616 L 280.5723,135.44516 C 281.2363,137.14916 283.4363,142.32316 287.9233,148.95516 C 304.4473,173.37316 318.1743,179.35916 329.1693,177.13716 C 336.6993,175.41616 314.8803,159.43116 313.1093,157.73116 C 311.3343,156.02816 312.4833,154.61316 315.6503,156.39316 C 316.6633,156.96216 358.6673,178.75516 346.1193,187.91516 C 335.5923,195.08116 317.7323,193.15716 304.2343,181.68216 C 290.5963,169.68616 279.0563,146.44816 278.9463,146.21416 L 278.1963,144.70216 C 278.1963,144.70216 278.0943,144.49416 278.0863,144.72316 C 278.1073,145.49216 278.1623,147.69716 278.1753,148.22016 C 278.8313,184.39316 267.4323,203.79416 245.7103,205.88416 C 229.2253,207.16716 210.2233,195.08116 207.7843,174.93216 C 205.0393,145.84116 224.0663,128.01966 228.0333,124.64666" class="cls0"/>
	<path d="M 72.8467,58.26466 C 72.8467,58.26466 75.5496,53.09456 82.5729,56.32746 C 88.098,58.99536 99.4123,70.51216 111.4413,94.97736 C 132.7113,139.15016 127.6203,116.96166 117.7963,93.73686 C 113.7183,84.09356 108.9893,74.58186 103.7663,66.96066 C 98.4793,59.25016 89.8943,49.96366 82.5176,45.79626 C 71.3441,39.58115 68.8881,45.66876 69.667,51.45476 C 70.1012,55.06576 72.8467,58.26466 72.8467,58.26466" class="cls0"/>
	<path d="M 2.7455,297.02916 C 6.7169,292.20716 10.3392,290.42316 19.4738,290.42316 C 28.7148,290.42316 31.6987,287.85716 39.4244,273.27716 C 47.9631,257.16016 56.1442,251.83316 63.3804,247.12116 C 69.9908,243.42116 79.3127,238.71416 83.8715,227.50816 C 84.8505,225.34916 86.1232,221.81916 87.5917,217.73216 L 87.6982,217.43916 C 89.3284,212.90216 91.2393,207.59616 93.2443,202.79616 L 93.2653,202.89416 C 93.2653,202.89416 99.4593,187.19716 96.6113,208.45416 C 95.3303,218.02116 95.9093,224.06216 96.9303,227.86016 C 97.8753,230.47716 99.5273,233.30216 102.4303,235.76616 C 106.4443,239.17716 101.3573,237.47016 94.5173,240.18016 C 92.9293,240.80416 91.3333,241.92616 89.6983,243.29416 C 85.7061,247.42716 80.5301,251.81616 74.3708,254.96816 C 58.3193,263.17116 49.7934,279.38216 44.379,286.31116 L 42.9403,288.38416 C 35.3849,299.28516 31.2262,305.28316 22.9472,305.28316 C 22.9472,305.28316 0.017,305.30416 0.0,305.28316 C 0.0511,303.94916 0.3959,299.89216 2.7455,297.02916" class="cls0"/>
	<path d="M 158.8003,119.15796 C 168.6663,103.24856 189.2473,85.60166 215.9573,85.60166 C 217.6473,85.60166 219.3713,85.67386 221.1123,85.82256 C 221.1373,85.82256 221.1583,85.83106 221.1753,85.83106 C 225.0493,79.70516 230.7823,71.70586 235.5673,69.41186 C 241.1303,66.74826 248.5493,68.84256 250.9973,76.47226 C 252.6663,81.67206 251.3593,91.48536 249.8863,90.43176 C 248.0093,89.08936 248.2173,71.82476 238.9303,77.65326 C 235.3413,79.91336 232.6263,85.97976 231.7493,88.13776 C 241.6623,91.20496 249.1583,96.50666 254.1173,103.96646 C 257.2973,108.99206 262.4813,120.36446 259.0723,134.14116 C 257.5653,140.23316 256.6753,132.68416 255.0363,124.75706 C 253.5133,118.08316 251.5503,110.65736 243.8163,104.28086 C 236.0823,97.90436 224.6493,93.91106 211.1003,95.40216 C 197.9773,96.87626 186.2123,103.33776 177.5113,113.60566 C 175.3583,116.14176 170.1823,123.80546 169.2153,125.29236 C 163.4223,134.21816 160.1063,139.30716 148.6693,139.19216 C 150.4953,134.34916 153.5903,127.55666 158.8003,119.15796" class="cls0"/>
	<path d="M 51.9086,49.24586 C 58.0892,53.02676 65.6829,59.18236 73.8087,68.67706 C 82.6836,79.05956 92.8443,93.59686 104.0053,111.89376 C 110.5043,122.54386 112.3943,128.72076 112.0453,129.45146 C 112.0373,129.45146 112.0373,129.45146 112.0373,129.45146 C 111.8583,129.45146 109.4953,129.14976 98.9903,114.51056 C 75.8263,80.92876 55.4969,58.68956 50.5635,61.50606 L 50.5465,61.51456 C 49.9591,61.87996 49.6484,62.63606 49.6314,63.76616 C 50.0102,76.93126 78.0865,126.44796 118.2133,150.00416 C 112.3523,164.85616 114.5183,177.23916 121.2953,189.46516 C 125.9393,197.84316 142.9903,215.03116 158.7403,210.54016 C 174.4933,206.04616 169.5303,162.49416 143.6293,153.74216 C 136.2223,151.47816 131.5453,156.10916 129.8893,162.35816 C 128.3223,168.25816 129.0503,175.50616 129.5523,178.95516 C 129.7353,180.21316 129.1523,179.85616 128.8123,179.30416 C 119.3623,163.82316 126.5563,150.06816 135.3803,147.28516 C 145.6813,144.03916 159.7233,151.40616 168.2113,165.35716 C 181.8573,189.73316 175.4303,210.37516 164.4993,216.90016 C 144.8633,228.88016 112.7523,207.97516 106.0313,183.41216 C 103.5113,173.19916 105.0643,162.63016 108.8613,154.03116 C 51.9214,114.51486 39.1432,77.44946 36.6148,58.79996 C 35.2441,46.56946 43.6679,44.20756 51.9086,49.24586" class="cls0"/>
</svg>
