<svg viewBox="0 0 225 50" fill="none" xmlns="http://www.w3.org/2000/svg">
<path class="logo-text" d="M125.748 14.6516V17.3583C123.921 15.5626 121.524 14.5771 118.964 14.5771C113.534 14.5771 109.281 18.928 109.281 24.4809C109.281 30.0338 113.534 34.3848 118.964 34.3848C121.558 34.3848 123.954 33.4016 125.748 31.6083V34.3127H128.942V14.6516H125.748ZM125.748 24.779C125.601 28.5602 122.765 31.416 119.147 31.416C115.529 31.416 112.51 28.3703 112.51 24.4833C112.51 20.5963 115.426 17.5506 119.147 17.5506C122.868 17.5506 125.601 20.4064 125.748 24.1925V24.779ZM218.512 26.1444V17.9208H224.654V14.9473H218.512V10.1468H215.317V14.9473H211.995V17.9208H215.317V26.1444C215.317 28.4737 216.356 30.5963 218.243 32.1179C219.971 33.5146 222.301 34.3151 224.632 34.3151H224.752V31.3054H224.632C221.625 31.3054 218.512 29.3751 218.512 26.1444ZM183.438 14.6516V17.3583C181.611 15.5626 179.214 14.5771 176.654 14.5771C171.224 14.5771 166.971 18.928 166.971 24.4809C166.971 30.0338 171.224 34.3848 176.654 34.3848C179.248 34.3848 181.644 33.4016 183.438 31.6083V34.3127H186.632V14.6516H183.438ZM183.438 24.779C183.293 28.5602 180.454 31.416 176.839 31.416C173.224 31.416 170.202 28.3703 170.202 24.4833C170.202 20.5963 173.118 17.5506 176.839 17.5506C180.56 17.5506 183.293 20.4064 183.44 24.1925V24.779H183.438ZM89.0506 14.6516V17.3583C87.2237 15.5626 84.827 14.5771 82.2669 14.5771C76.8366 14.5771 72.5842 18.928 72.5842 24.4809C72.5842 30.0338 76.8366 34.3848 82.2669 34.3848C84.8607 34.3848 87.2573 33.4016 89.0506 31.6083C89.0121 35.4377 86.0458 38.428 82.2669 38.428C80.4256 38.428 78.827 37.7453 77.5169 36.3968L77.4424 36.3199L74.964 38.1973L75.0506 38.2934C76.8438 40.2958 79.4063 41.3992 82.2669 41.3992C87.8631 41.3992 92.2453 37.0651 92.2453 31.5314V14.6516H89.0506ZM82.4496 31.416C78.7285 31.416 75.8126 28.3703 75.8126 24.4833C75.8126 20.5963 78.7285 17.5506 82.4496 17.5506C86.1708 17.5506 89.0506 20.5963 89.0506 24.4833C89.0506 28.3703 86.1515 31.416 82.4496 31.416ZM97.9376 22.6756V34.3151H101.132V22.6756C101.132 20.5482 102.962 17.553 107.031 17.553H107.152V14.5795H107.031C102.659 14.5795 97.9376 17.6756 97.9376 22.6756ZM159.166 14.654V34.3175H162.361V14.6516H159.166V14.654ZM160.762 8.52419C159.659 8.52419 158.796 9.38717 158.796 10.4905C158.796 11.5939 159.678 12.4569 160.762 12.4569C161.846 12.4569 162.728 11.5554 162.728 10.4905C162.728 9.42563 161.846 8.52419 160.762 8.52419ZM150.204 7.63717V17.3607C148.377 15.5651 145.981 14.5795 143.421 14.5795C137.99 14.5795 133.738 18.9304 133.738 24.4833C133.738 30.0362 137.99 34.3872 143.421 34.3872C146.015 34.3872 148.411 33.404 150.204 31.6107V34.3151H153.399V7.63477H150.204V7.63717ZM150.204 24.779C150.058 28.5602 147.221 31.416 143.603 31.416C139.986 31.416 136.966 28.3703 136.966 24.4833C136.966 20.5963 139.882 17.5506 143.603 17.5506C147.325 17.5506 150.058 20.4064 150.204 24.1925V24.779ZM200.505 14.5795C195.673 14.5795 192.298 18.1372 192.298 23.2285V34.3151H195.493V23.154C195.493 19.7501 197.459 17.5506 200.505 17.5506C203.551 17.5506 205.553 19.7501 205.553 23.154V34.3151H208.748V23.2285C208.748 18.1348 205.358 14.5795 200.505 14.5795Z" fill="white"></path>
<path d="M29.2186 6.46124C28.6682 7.19922 28.1129 7.96364 27.5552 8.75451C27.5552 8.75451 50.3028 37.4276 53.5888 44.3338C50.3028 37.43 44.5263 26.3531 44.2042 25.716C43.4975 24.4468 42.7715 23.168 42.0239 21.8795C39.6009 17.7016 37.1561 13.7497 34.721 10.0261C33.5143 8.18239 32.3148 6.39393 31.1201 4.66316C31.0311 4.54778 30.9422 4.4372 30.8557 4.32422C30.5864 4.66797 30.3148 5.01893 30.0408 5.3747C29.7667 5.73047 29.4927 6.09345 29.2186 6.46364V6.46124Z" fill="#E539FB"></path>
<path d="M29.2186 6.46124C28.6682 7.19922 28.1129 7.96364 27.5552 8.75451C27.5552 8.75451 50.3028 37.4276 53.5888 44.3338C50.3028 37.43 44.5263 26.3531 44.2042 25.716C43.4975 24.4468 42.7715 23.168 42.0239 21.8795C39.6009 17.7016 37.1561 13.7497 34.721 10.0261C33.5143 8.18239 32.3148 6.39393 31.1201 4.66316C31.0311 4.54778 30.9422 4.4372 30.8557 4.32422C30.5864 4.66797 30.3148 5.01893 30.0408 5.3747C29.7667 5.73047 29.4927 6.09345 29.2186 6.46364V6.46124Z" fill="url(#paint0_linear_5466_10246)"></path>
<path d="M29.2186 6.46124C28.6682 7.19922 28.1129 7.96364 27.5552 8.75451C27.5552 8.75451 50.3028 37.4276 53.5888 44.3338C50.3028 37.43 44.5263 26.3531 44.2042 25.716C43.4975 24.4468 42.7715 23.168 42.0239 21.8795C39.6009 17.7016 37.1561 13.7497 34.721 10.0261C33.5143 8.18239 32.3148 6.39393 31.1201 4.66316C31.0311 4.54778 30.9422 4.4372 30.8557 4.32422C30.5864 4.66797 30.3148 5.01893 30.0408 5.3747C29.7667 5.73047 29.4927 6.09345 29.2186 6.46364V6.46124Z" fill="url(#paint1_linear_5466_10246)"></path>
<path d="M38.3196 30.7982C38.2355 30.5146 38.1513 30.2309 38.06 29.9473C39.7018 36.9785 34.423 43.8631 27.3581 44.0651C27.2523 44.0675 27.1489 44.0675 27.0408 44.0675C27.1465 44.0675 27.3581 44.0651 27.3581 44.0651C16.6634 46.4208 6.96385 43.5915 2.59366 39.7814C2.59366 39.7814 2.59366 39.7814 2.59366 39.779C1.85087 41.3295 1.13452 42.8559 0.449426 44.3607C-0.177978 45.7333 0.740292 47.3078 2.2427 47.4425C3.57443 47.5626 4.9302 47.6756 6.30279 47.7766C8.4927 47.9425 10.7355 48.0843 13.0288 48.1997C13.2475 48.2141 13.4614 48.2237 13.6802 48.2333C18.2018 48.4545 22.9134 48.5723 27.798 48.5578C30.0576 48.553 32.2788 48.517 34.4566 48.4569C36.5792 45.9977 38.0792 42.9977 38.7307 39.7477C39.3028 36.892 39.2163 33.8415 38.3196 30.7982Z" fill="#0273FB"></path>
<path d="M38.3196 30.7982C38.2355 30.5146 38.1513 30.2309 38.06 29.9473C39.7018 36.9785 34.423 43.8631 27.3581 44.0651C27.2523 44.0675 27.1489 44.0675 27.0408 44.0675C27.1465 44.0675 27.3581 44.0651 27.3581 44.0651C16.6634 46.4208 6.96385 43.5915 2.59366 39.7814C2.59366 39.7814 2.59366 39.7814 2.59366 39.779C1.85087 41.3295 1.13452 42.8559 0.449426 44.3607C-0.177978 45.7333 0.740292 47.3078 2.2427 47.4425C3.57443 47.5626 4.9302 47.6756 6.30279 47.7766C8.4927 47.9425 10.7355 48.0843 13.0288 48.1997C13.2475 48.2141 13.4614 48.2237 13.6802 48.2333C18.2018 48.4545 22.9134 48.5723 27.798 48.5578C30.0576 48.553 32.2788 48.517 34.4566 48.4569C36.5792 45.9977 38.0792 42.9977 38.7307 39.7477C39.3028 36.892 39.2163 33.8415 38.3196 30.7982Z" fill="url(#paint2_linear_5466_10246)"></path>
<path d="M8.76685 27.7314C8.90146 28.7458 9.11781 29.7386 9.41108 30.7025C10.0481 32.8107 11.0481 34.7818 12.339 36.5294C12.5241 36.7794 12.714 37.0246 12.9111 37.265C14.4567 39.1544 16.3582 40.7458 18.5192 41.9141C18.8077 42.0703 19.101 42.2169 19.3967 42.3588C19.5457 42.4285 19.6947 42.4982 19.8462 42.5631C20.601 42.8948 21.3798 43.1761 22.1827 43.402C22.8245 43.5823 23.4832 43.729 24.1539 43.8395C24.488 43.8948 24.8269 43.9405 25.1683 43.9742C25.5096 44.0102 25.8534 44.0367 26.2019 44.0511C26.375 44.0583 26.5505 44.0655 26.7236 44.0679C19.4423 43.8612 14.0529 36.5463 16.1947 29.2939C16.5529 28.0847 17.0048 26.8756 17.5217 25.6809C17.0072 26.8732 21.1899 9.15685 23.9207 3.28906C22.3991 5.46454 20.8678 7.72416 19.3342 10.0751C17.0337 13.5968 14.726 17.3155 12.4375 21.2338C11.1587 23.4237 9.93511 25.5943 8.76685 27.7314Z" fill="#00D4FC"></path>
<path d="M8.76685 27.7314C8.90146 28.7458 9.11781 29.7386 9.41108 30.7025C10.0481 32.8107 11.0481 34.7818 12.339 36.5294C12.5241 36.7794 12.714 37.0246 12.9111 37.265C14.4567 39.1544 16.3582 40.7458 18.5192 41.9141C18.8077 42.0703 19.101 42.2169 19.3967 42.3588C19.5457 42.4285 19.6947 42.4982 19.8462 42.5631C20.601 42.8948 21.3798 43.1761 22.1827 43.402C22.8245 43.5823 23.4832 43.729 24.1539 43.8395C24.488 43.8948 24.8269 43.9405 25.1683 43.9742C25.5096 44.0102 25.8534 44.0367 26.2019 44.0511C26.375 44.0583 26.5505 44.0655 26.7236 44.0679C19.4423 43.8612 14.0529 36.5463 16.1947 29.2939C16.5529 28.0847 17.0048 26.8756 17.5217 25.6809C17.0072 26.8732 21.1899 9.15685 23.9207 3.28906C22.3991 5.46454 20.8678 7.72416 19.3342 10.0751C17.0337 13.5968 14.726 17.3155 12.4375 21.2338C11.1587 23.4237 9.93511 25.5943 8.76685 27.7314Z" fill="url(#paint3_linear_5466_10246)"></path>
<path d="M53.5888 44.3342C50.3004 37.428 27.5552 8.75488 27.5552 8.75488C28.4927 10.2549 29.4254 11.827 30.346 13.4736C30.9494 14.5506 31.5576 15.6491 32.1609 16.7669C34.6585 21.2645 36.8412 25.6323 37.8893 29.2933C37.9518 29.5121 38.0119 29.7308 38.0624 29.9472C38.1513 30.2308 38.2379 30.5145 38.322 30.7982C39.2186 33.839 39.3076 36.8895 38.7331 39.7477C38.0816 42.9977 36.5792 45.9977 34.459 48.4568C36.7018 48.3991 38.9037 48.3126 41.0624 48.1996C43.5047 48.077 45.8893 47.9232 48.2138 47.7477C48.8677 47.6972 49.5143 47.6443 50.1585 47.589C50.7138 47.5433 51.2667 47.4953 51.8148 47.4448C52.0047 47.428 52.185 47.3871 52.3533 47.3294C52.6898 47.2092 52.9831 47.0121 53.2162 46.7645C53.2258 46.7549 53.2355 46.7429 53.2451 46.7308C53.5768 46.3606 53.7787 45.8847 53.8052 45.3823C53.822 45.0361 53.7571 44.6804 53.5936 44.3366L53.5888 44.3342Z" fill="#E539FB"></path>
<path d="M53.5888 44.3342C50.3004 37.428 27.5552 8.75488 27.5552 8.75488C28.4927 10.2549 29.4254 11.827 30.346 13.4736C30.9494 14.5506 31.5576 15.6491 32.1609 16.7669C34.6585 21.2645 36.8412 25.6323 37.8893 29.2933C37.9518 29.5121 38.0119 29.7308 38.0624 29.9472C38.1513 30.2308 38.2379 30.5145 38.322 30.7982C39.2186 33.839 39.3076 36.8895 38.7331 39.7477C38.0816 42.9977 36.5792 45.9977 34.459 48.4568C36.7018 48.3991 38.9037 48.3126 41.0624 48.1996C43.5047 48.077 45.8893 47.9232 48.2138 47.7477C48.8677 47.6972 49.5143 47.6443 50.1585 47.589C50.7138 47.5433 51.2667 47.4953 51.8148 47.4448C52.0047 47.428 52.185 47.3871 52.3533 47.3294C52.6898 47.2092 52.9831 47.0121 53.2162 46.7645C53.2258 46.7549 53.2355 46.7429 53.2451 46.7308C53.5768 46.3606 53.7787 45.8847 53.8052 45.3823C53.822 45.0361 53.7571 44.6804 53.5936 44.3366L53.5888 44.3342Z" fill="url(#paint4_linear_5466_10246)"></path>
<path d="M53.5888 44.3342C50.3004 37.428 27.5552 8.75488 27.5552 8.75488C28.4927 10.2549 29.4254 11.827 30.346 13.4736C30.9494 14.5506 31.5576 15.6491 32.1609 16.7669C34.6585 21.2645 36.8412 25.6323 37.8893 29.2933C37.9518 29.5121 38.0119 29.7308 38.0624 29.9472C38.1513 30.2308 38.2379 30.5145 38.322 30.7982C39.2186 33.839 39.3076 36.8895 38.7331 39.7477C38.0816 42.9977 36.5792 45.9977 34.459 48.4568C36.7018 48.3991 38.9037 48.3126 41.0624 48.1996C43.5047 48.077 45.8893 47.9232 48.2138 47.7477C48.8677 47.6972 49.5143 47.6443 50.1585 47.589C50.7138 47.5433 51.2667 47.4953 51.8148 47.4448C52.0047 47.428 52.185 47.3871 52.3533 47.3294C52.6898 47.2092 52.9831 47.0121 53.2162 46.7645C53.2258 46.7549 53.2355 46.7429 53.2451 46.7308C53.5768 46.3606 53.7787 45.8847 53.8052 45.3823C53.822 45.0361 53.7571 44.6804 53.5936 44.3366L53.5888 44.3342Z" fill="url(#paint5_linear_5466_10246)"></path>
<path opacity="0.8" d="M53.5888 44.3342C50.3004 37.428 27.5552 8.75488 27.5552 8.75488C28.4927 10.2549 29.4254 11.827 30.346 13.4736C30.9494 14.5506 31.5576 15.6491 32.1609 16.7669C34.6585 21.2645 36.8412 25.6323 37.8893 29.2933C37.9518 29.5121 38.0119 29.7308 38.0624 29.9472C38.1513 30.2308 38.2379 30.5145 38.322 30.7982C39.2186 33.839 39.3076 36.8895 38.7331 39.7477C38.0816 42.9977 36.5792 45.9977 34.459 48.4568C36.7018 48.3991 38.9037 48.3126 41.0624 48.1996C43.5047 48.077 45.8893 47.9232 48.2138 47.7477C48.8677 47.6972 49.5143 47.6443 50.1585 47.589C50.7138 47.5433 51.2667 47.4953 51.8148 47.4448C52.0047 47.428 52.185 47.3871 52.3533 47.3294C52.6898 47.2092 52.9831 47.0121 53.2162 46.7645C53.2258 46.7549 53.2355 46.7429 53.2451 46.7308C53.5768 46.3606 53.7787 45.8847 53.8052 45.3823C53.822 45.0361 53.7571 44.6804 53.5936 44.3366L53.5888 44.3342Z" fill="url(#paint6_linear_5466_10246)"></path>
<path d="M26.2019 44.0482C25.8558 44.0314 25.5096 44.005 25.1683 43.9713C24.8269 43.9352 24.488 43.8896 24.1538 43.8367C23.4832 43.7285 22.8269 43.5819 22.1827 43.3992C21.3798 43.1732 20.5986 42.892 19.8462 42.5602C19.6947 42.4929 19.5457 42.4256 19.3966 42.3559C19.0986 42.2165 18.8077 42.0675 18.5192 41.9112C16.3582 40.7429 14.4567 39.154 12.9111 37.2622C12.7139 37.0218 12.524 36.7766 12.3389 36.5266C11.0457 34.779 10.0481 32.8078 9.41106 30.6997C9.12019 29.7357 8.90144 28.7429 8.76683 27.7285C6.51442 31.8583 4.46154 35.8872 2.59375 39.7766C6.96394 43.5891 16.6635 46.4184 27.3582 44.0627C27.3582 44.0627 27.149 44.0651 27.0409 44.0651C26.9327 44.0651 26.8317 44.0651 26.7236 44.0627C26.5481 44.0602 26.375 44.053 26.2019 44.0458V44.0482Z" fill="#0273FB"></path>
<path d="M26.2019 44.0482C25.8558 44.0314 25.5096 44.005 25.1683 43.9713C24.8269 43.9352 24.488 43.8896 24.1538 43.8367C23.4832 43.7285 22.8269 43.5819 22.1827 43.3992C21.3798 43.1732 20.5986 42.892 19.8462 42.5602C19.6947 42.4929 19.5457 42.4256 19.3966 42.3559C19.0986 42.2165 18.8077 42.0675 18.5192 41.9112C16.3582 40.7429 14.4567 39.154 12.9111 37.2622C12.7139 37.0218 12.524 36.7766 12.3389 36.5266C11.0457 34.779 10.0481 32.8078 9.41106 30.6997C9.12019 29.7357 8.90144 28.7429 8.76683 27.7285C6.51442 31.8583 4.46154 35.8872 2.59375 39.7766C6.96394 43.5891 16.6635 46.4184 27.3582 44.0627C27.3582 44.0627 27.149 44.0651 27.0409 44.0651C26.9327 44.0651 26.8317 44.0651 26.7236 44.0627C26.5481 44.0602 26.375 44.053 26.2019 44.0458V44.0482Z" fill="url(#paint7_linear_5466_10246)"></path>
<path opacity="0.8" d="M26.2019 44.0482C25.8558 44.0314 25.5096 44.005 25.1683 43.9713C24.8269 43.9352 24.488 43.8896 24.1538 43.8367C23.4832 43.7285 22.8269 43.5819 22.1827 43.3992C21.3798 43.1732 20.5986 42.892 19.8462 42.5602C19.6947 42.4929 19.5457 42.4256 19.3966 42.3559C19.0986 42.2165 18.8077 42.0675 18.5192 41.9112C16.3582 40.7429 14.4567 39.154 12.9111 37.2622C12.7139 37.0218 12.524 36.7766 12.3389 36.5266C11.0457 34.779 10.0481 32.8078 9.41106 30.6997C9.12019 29.7357 8.90144 28.7429 8.76683 27.7285C6.51442 31.8583 4.46154 35.8872 2.59375 39.7766C6.96394 43.5891 16.6635 46.4184 27.3582 44.0627C27.3582 44.0627 27.149 44.0651 27.0409 44.0651C26.9327 44.0651 26.8317 44.0651 26.7236 44.0627C26.5481 44.0602 26.375 44.053 26.2019 44.0458V44.0482Z" fill="url(#paint8_linear_5466_10246)"></path>
<path d="M17.5215 25.6804C18.4301 23.5578 19.5335 21.4713 20.6248 19.4929C20.7811 19.2093 20.9373 18.9304 21.0912 18.6516C22.5431 16.0554 24.0455 13.755 25.5071 11.7429C25.6777 11.4833 25.8484 11.2261 26.0191 10.9737C26.5311 10.2117 27.0407 9.4713 27.5503 8.75255C28.108 7.96169 28.6633 7.19967 29.2138 6.45928C29.4902 6.08909 29.7643 5.72852 30.0359 5.37034C30.3099 5.01457 30.5816 4.66361 30.8508 4.31986C30.8508 4.31986 29.8724 2.9088 28.8123 1.404C28.4325 0.865535 27.87 0.560246 27.2835 0.492939C27.1994 0.483323 27.1152 0.478516 27.0311 0.478516C26.947 0.478516 26.8628 0.483323 26.7787 0.492939C26.6946 0.502554 26.6128 0.516977 26.5287 0.536208C26.0335 0.649189 25.5744 0.93765 25.245 1.39678C24.8027 2.01938 24.358 2.64919 23.9133 3.28621C21.1825 9.154 16.9998 26.8703 17.5143 25.678L17.5215 25.6804Z" fill="#00D4FC"></path>
<path d="M17.5215 25.6804C18.4301 23.5578 19.5335 21.4713 20.6248 19.4929C20.7811 19.2093 20.9373 18.9304 21.0912 18.6516C22.5431 16.0554 24.0455 13.755 25.5071 11.7429C25.6777 11.4833 25.8484 11.2261 26.0191 10.9737C26.5311 10.2117 27.0407 9.4713 27.5503 8.75255C28.108 7.96169 28.6633 7.19967 29.2138 6.45928C29.4902 6.08909 29.7643 5.72852 30.0359 5.37034C30.3099 5.01457 30.5816 4.66361 30.8508 4.31986C30.8508 4.31986 29.8724 2.9088 28.8123 1.404C28.4325 0.865535 27.87 0.560246 27.2835 0.492939C27.1994 0.483323 27.1152 0.478516 27.0311 0.478516C26.947 0.478516 26.8628 0.483323 26.7787 0.492939C26.6946 0.502554 26.6128 0.516977 26.5287 0.536208C26.0335 0.649189 25.5744 0.93765 25.245 1.39678C24.8027 2.01938 24.358 2.64919 23.9133 3.28621C21.1825 9.154 16.9998 26.8703 17.5143 25.678L17.5215 25.6804Z" fill="url(#paint9_linear_5466_10246)"></path>
<path opacity="0.8" d="M17.5215 25.6804C18.4301 23.5578 19.5335 21.4713 20.6248 19.4929C20.7811 19.2093 20.9373 18.9304 21.0912 18.6516C22.5431 16.0554 24.0455 13.755 25.5071 11.7429C25.6777 11.4833 25.8484 11.2261 26.0191 10.9737C26.5311 10.2117 27.0407 9.4713 27.5503 8.75255C28.108 7.96169 28.6633 7.19967 29.2138 6.45928C29.4902 6.08909 29.7643 5.72852 30.0359 5.37034C30.3099 5.01457 30.5816 4.66361 30.8508 4.31986C30.8508 4.31986 29.8724 2.9088 28.8123 1.404C28.4325 0.865535 27.87 0.560246 27.2835 0.492939C27.1994 0.483323 27.1152 0.478516 27.0311 0.478516C26.947 0.478516 26.8628 0.483323 26.7787 0.492939C26.6946 0.502554 26.6128 0.516977 26.5287 0.536208C26.0335 0.649189 25.5744 0.93765 25.245 1.39678C24.8027 2.01938 24.358 2.64919 23.9133 3.28621C21.1825 9.154 16.9998 26.8703 17.5143 25.678L17.5215 25.6804Z" fill="url(#paint10_linear_5466_10246)"></path>
<defs>
<linearGradient id="paint0_linear_5466_10246" x1="29.6537" y1="6.17278" x2="48.4494" y2="39.555" gradientUnits="userSpaceOnUse">
<stop stop-color="#383192" stop-opacity="0.4"></stop>
<stop offset="0.8" stop-color="#BF2FDB" stop-opacity="0"></stop>
</linearGradient>
<linearGradient id="paint1_linear_5466_10246" x1="27.4398" y1="41.9444" x2="44.5191" y2="21.5886" gradientUnits="userSpaceOnUse">
<stop stop-color="#383192" stop-opacity="0.8"></stop>
<stop offset="0.74" stop-color="#BF2FDB" stop-opacity="0"></stop>
</linearGradient>
<linearGradient id="paint2_linear_5466_10246" x1="36.8557" y1="42.0122" x2="3.6802" y2="35.4376" gradientUnits="userSpaceOnUse">
<stop stop-color="#6825C1" stop-opacity="0.9"></stop>
<stop offset="0.8" stop-color="#0062E1" stop-opacity="0"></stop>
</linearGradient>
<linearGradient id="paint3_linear_5466_10246" x1="15.7284" y1="39.6496" x2="34.3702" y2="4.98377" gradientUnits="userSpaceOnUse">
<stop stop-color="#383192" stop-opacity="0.8"></stop>
<stop offset="1" stop-color="#00B7DD" stop-opacity="0"></stop>
</linearGradient>
<linearGradient id="paint4_linear_5466_10246" x1="23.3821" y1="9.7044" x2="42.1802" y2="43.0866" gradientUnits="userSpaceOnUse">
<stop stop-color="#383192" stop-opacity="0.4"></stop>
<stop offset="0.8" stop-color="#BF2FDB" stop-opacity="0"></stop>
</linearGradient>
<linearGradient id="paint5_linear_5466_10246" x1="28.0504" y1="42.4568" x2="45.1297" y2="22.101" gradientUnits="userSpaceOnUse">
<stop stop-color="#383192" stop-opacity="0.8"></stop>
<stop offset="0.74" stop-color="#BF2FDB" stop-opacity="0"></stop>
</linearGradient>
<linearGradient id="paint6_linear_5466_10246" x1="22.4085" y1="12.0001" x2="46.7499" y2="50.5938" gradientUnits="userSpaceOnUse">
<stop stop-color="#383192" stop-opacity="0.6"></stop>
<stop offset="1" stop-color="#7D27D7" stop-opacity="0"></stop>
</linearGradient>
<linearGradient id="paint7_linear_5466_10246" x1="37.0168" y1="41.2021" x2="3.83894" y2="34.6276" gradientUnits="userSpaceOnUse">
<stop stop-color="#6825C1" stop-opacity="0.9"></stop>
<stop offset="0.8" stop-color="#0062E1" stop-opacity="0"></stop>
</linearGradient>
<linearGradient id="paint8_linear_5466_10246" x1="27.1587" y1="42.5074" x2="5.19231" y2="34.0915" gradientUnits="userSpaceOnUse">
<stop stop-color="#6825C1" stop-opacity="0.7"></stop>
<stop offset="1" stop-color="#0062E1" stop-opacity="0"></stop>
</linearGradient>
<linearGradient id="paint9_linear_5466_10246" x1="9.81956" y1="36.4713" x2="28.4638" y2="1.80544" gradientUnits="userSpaceOnUse">
<stop stop-color="#383192" stop-opacity="0.8"></stop>
<stop offset="1" stop-color="#00B7DD" stop-opacity="0"></stop>
</linearGradient>
<linearGradient id="paint10_linear_5466_10246" x1="18.072" y1="25.7766" x2="28.3412" y2="1.53861" gradientUnits="userSpaceOnUse">
<stop stop-color="#383192" stop-opacity="0.7"></stop>
<stop offset="1" stop-color="#00B7DD" stop-opacity="0"></stop>
</linearGradient>
</defs>
</svg>