<?xml version="1.0" encoding="UTF-8"?>
<svg id="Layer_2" xmlns="http://www.w3.org/2000/svg"  viewBox="0 0 159.64359 63.70873"><defs><style>.cls-1{fill:none;}.cls-2{clip-path:url(#clippath);}.cls-3{fill:#f59220;}.cls-4{fill:#403c3a;}.cls-5{fill:#373433;}.cls-6{clip-path:url(#clippath-1);}.cls-7{fill:#268eb6;}.cls-7,.cls-8{fill-rule:evenodd;}.cls-8{fill:#7dbfd9;}</style><clipPath id="clippath"><rect class="cls-1" x="29.65892" y="50.30656" width="99.6401" height="13.40213"/></clipPath><clipPath id="clippath-1"><rect class="cls-1" x="29.65892" y="50.30651" width="99.6401" height="13.40217"/></clipPath></defs><g id="Layer_1-2"><g><g><g><path class="cls-3" d="M5.5669,34.02998C1.85521,30.33601,0,25.70811,0,20.14627,.01772,14.70466,1.87672,10.12738,5.57955,6.41696,9.28238,2.70527,13.87232,.85006,19.3481,.85006c5.52767,0,10.27199,1.72233,14.23298,5.16574l-5.16574,5.65675c-2.63602-2.06655-5.65801-3.09919-9.06725-3.09919-3.47884,.01772-6.2819,1.10224-8.40792,3.25484-2.12729,2.1526-3.1903,4.90758-3.1903,8.26619,.01645,3.59906,1.09338,6.4578,3.22827,8.57497,2.13615,2.11843,4.94301,3.17765,8.42184,3.17765,2.78914,0,4.93289-.55049,6.43123-1.65273v-6.63877l-5.16574,.02531v-7.23228h12.9156v18.08134c-3.94327,3.44467-8.68886,5.167-14.23298,5.167-5.47578-.01772-10.07078-1.87293-13.7812-5.5669Z"/><path class="cls-3" d="M43.21354,16.60669c1.84256-1.89444,4.09007-2.84103,6.74254-2.84103,.84408,0,1.64387,.06834,2.4019,.20628l-1.13641,7.12978c-.84408-.75803-2.04883-1.16299-3.61551-1.21487-1.7565,.12149-3.22068,1.39584-4.39252,3.82305v15.88698h-7.23228V14.51484l7.23228-.77575v2.8676Z"/></g><path class="cls-3" d="M118.85024,39.97892c-3.02016,0-5.41879-.8435-7.19589-2.53182s-2.665-3.86497-2.665-6.52997v-11.54072h-3.99815v-6.02334h3.99815V6.13041l7.48968-.79976V13.35307h3.99815v6.02334h-3.99815v10.47459c0,1.42194,.2964,2.42083,.89312,2.99861,.59411,.57713,1.36318,.8657,2.30462,.8657,.28465,0,.95057-.1149,1.99908-.34602l1.5721,5.35677c-1.27831,.83567-2.74465,1.25285-4.39771,1.25285Z"/><path class="cls-3" d="M125.33986,39.97892V0h7.46357V39.97892h-7.46357Z"/><path class="cls-3" d="M152.18133,30.75718V13.32631h7.46226v24.52035c0,3.73113-1.15557,6.84987-3.46541,9.35492-2.30984,2.5057-5.06363,3.82906-8.26137,3.97139l-1.59952,.15995c-3.73178-.10642-7.1071-1.58189-10.12857-4.42447l3.46541-3.9975c2.13226,1.59887,4.14831,2.48742,6.05076,2.665,2.30854,0,3.96551-.57779,4.96962-1.73271,1.00411-1.15492,1.50682-2.79818,1.50682-4.93045v-1.35927c-1.88417,1.61715-4.06083,2.4254-6.52997,2.4254-3.37662,0-5.95283-1.02174-7.72994-3.06521-1.7771-2.04282-2.665-4.39771-2.665-7.06271V13.32631h7.46226v14.65881c0,1.7771,.44395,3.154,1.33315,4.13134,.8879,.97734,2.23019,1.49245,4.02427,1.54599,1.56296-.10707,2.93268-1.07527,4.10522-2.90525Z"/><path class="cls-3" d="M52.03067,28.4702c-.54399-3.87067,.24314-7.21112,2.36008-10.02116,2.11703-2.80939,5.11056-4.48604,8.98188-5.03012,3.87132-.54408,7.1231,.25485,9.75794,2.39641,2.63234,2.14257,4.2218,5.14901,4.76579,9.01968l.3709,2.63906-18.21097,2.55938c.37375,1.38339,1.14378,2.39661,2.3114,3.03947,1.16641,.64369,2.45427,.86618,3.86109,.66846,2.46321-.34618,4.56379-1.3587,6.30164-3.0382l4.81644,3.62887c-1.56467,2.91175-4.98547,4.73811-10.26489,5.48008-3.87132,.54408-7.21103-.24249-10.02042-2.35952s-4.48678-5.11111-5.03086-8.98243Zm16.05752-8.31225c-1.16641-.64369-2.45427-.86618-3.86238-.66828-1.40681,.19771-2.58346,.76656-3.52726,1.70683-.94519,.9398-1.3181,2.11431-1.12029,3.52176l10.55755-1.48377c-.19781-1.40746-.88001-2.43368-2.04762-3.07654Z"/><path class="cls-3" d="M79.27053,28.28561c-.54399-3.87067,.24314-7.21112,2.36008-10.02116,2.11703-2.80939,5.11056-4.48604,8.98188-5.03012s7.1231,.25485,9.75794,2.39641c2.63234,2.14257,4.2218,5.14901,4.76579,9.01968l.3709,2.63906-18.21097,2.55938c.37375,1.38339,1.14378,2.39661,2.3114,3.03947,1.16641,.64369,2.45427,.86618,3.86109,.66846,2.46321-.34618,4.56379-1.3587,6.30164-3.0382l4.81644,3.62887c-1.56467,2.91175-4.98547,4.73811-10.26489,5.48008-3.87132,.54408-7.21103-.24249-10.02042-2.35952-2.80939-2.11703-4.48678-5.11111-5.03086-8.98243Zm16.05752-8.31225c-1.16641-.64369-2.45427-.86618-3.86238-.66828-1.40681,.19771-2.58346,.76656-3.52726,1.70683-.94519,.9398-1.3181,2.11431-1.12029,3.52176l10.55755-1.48377c-.19781-1.40746-.88001-2.43368-2.04762-3.07654Z"/></g><g id="OSS_primary_logo"><g class="cls-2"><g class="cls-6"><path class="cls-5" d="M34.20076,61.3261c2.72514,0,4.5419-1.98057,4.5419-4.69081,0-2.72499-1.81676-4.69067-4.5419-4.69067s-4.5419,1.96567-4.5419,4.69067c0,2.71025,1.81676,4.69081,4.5419,4.69081m0-1.01262c-2.33796,0-3.38036-1.7423-3.38036-3.69308,0-1.95064,1.0424-3.67805,3.38036-3.67805s3.38036,1.72741,3.38036,3.67805c0,1.95078-1.0424,3.69308-3.38036,3.69308"/><polygon class="cls-5" points="41.09541 56.05459 41.09541 53.10608 46.18815 53.10608 46.18815 52.09346 39.93388 52.09346 39.93388 61.17711 41.09541 61.17711 41.09541 57.06721 45.20545 57.06721 45.20545 56.05459 41.09541 56.05459"/><polygon class="cls-5" points="48.39211 56.05459 48.39211 53.10608 53.48485 53.10608 53.48485 52.09346 47.23058 52.09346 47.23058 61.17711 48.39211 61.17711 48.39211 57.06721 52.50216 57.06721 52.50216 56.05459 48.39211 56.05459"/><rect class="cls-5" x="54.52738" y="52.09349" width="1.19132" height="9.08365"/><path class="cls-5" d="M63.77478,55.10155h1.17642c-.22337-1.71252-1.69763-3.15699-3.99091-3.15699-2.57608,0-4.34816,1.96567-4.34816,4.69081s1.77209,4.69067,4.34816,4.69067c2.30818,0,3.78243-1.44433,3.99091-3.43978h-1.17642c-.07446,1.13175-.83392,2.42716-2.81449,2.42716-2.23357,0-3.17174-1.86129-3.17174-3.69294,0-1.81676,.93816-3.67819,3.17174-3.67819,1.95078,.01489,2.63579,1.29556,2.81449,2.15926"/><polygon class="cls-5" points="67.304 55.96524 67.304 53.10608 72.69456 53.10608 72.69456 52.09346 66.14246 52.09346 66.14246 61.17711 72.84348 61.17711 72.84348 60.16464 67.304 60.16464 67.304 56.99275 72.05438 56.99275 72.05438 55.96524 67.304 55.96524"/><path class="cls-5" d="M78.68092,55.54828c-1.16154-.31272-1.7572-.49142-1.7572-1.0424,0-.50631,.55098-.71479,1.25088-.71479,.89349,0,1.48914,.40207,1.59339,1.08708h2.33796c-.07446-1.83165-1.77208-2.93362-3.93135-2.93362-1.99546,0-3.57395,.75946-3.57395,2.72514,0,1.65295,1.3998,2.32307,2.99319,2.76981,1.31045,.37229,2.30818,.53609,2.30818,1.25088,0,.44674-.46163,.77436-1.34023,.77436-1.04241,0-1.89122-.3574-1.89122-1.31045h-2.33796c0,1.99546,1.81676,3.15685,4.22918,3.15685,2.32307,0,3.6633-1.11672,3.6633-2.84413,0-1.90611-1.80186-2.45709-3.54417-2.91873"/><path class="cls-5" d="M83.26739,61.17714h2.36775v-3.29087h2.18904c1.96567,0,3.18663-.99773,3.18663-2.90384s-1.22095-2.90384-3.18663-2.90384h-4.55679v9.09854Zm2.36775-7.22222h1.69762c.81903,0,1.31045,.26805,1.31045,1.02751s-.50631,1.02751-1.31045,1.02751h-1.69762v-2.05502Z"/><path class="cls-5" d="M96.40155,59.28601l.59566,1.89122h2.35271l-3.36533-9.08365h-2.35285l-3.36547,9.08365h2.35285l.59566-1.89122h3.18677Zm-2.65068-1.7423l1.05729-3.35058h.02978l1.05729,3.35058h-2.14437Z"/><path class="cls-5" d="M105.50006,55.48872h2.33795c-.22337-2.08481-1.57849-3.54417-4.11004-3.54417-2.94837,0-4.52686,1.98057-4.52686,4.69081s1.57835,4.69067,4.52686,4.69067c2.54644,0,3.90156-1.45922,4.11004-3.57381h-2.33795c-.14892,.99773-.62545,1.72741-1.87633,1.72741-1.54871,0-2.06991-1.16153-2.06991-2.84427s.5212-2.84427,2.06991-2.84427c1.23599,0,1.69763,.71479,1.87633,1.69763"/><polygon class="cls-5" points="111.2332 55.57806 111.2332 53.9549 115.95379 53.9549 115.95379 52.09346 108.88034 52.09346 108.88034 61.17711 116.0281 61.17711 116.0281 59.31582 111.2332 59.31582 111.2332 57.45439 115.29856 57.45439 115.29856 55.57806 111.2332 55.57806"/><polygon class="cls-7" points="122.73201 58.21382 122.70222 61.78778 125.82943 60.03058 125.85921 56.45663 122.73201 58.21382"/><polygon class="cls-7" points="126.29103 56.24818 126.26124 59.73278 129.25442 58.02026 129.2842 54.53566 126.29103 56.24818"/><polyline class="cls-7" points="126.29103 60.22413 126.27613 63.70873 129.26932 61.99621 129.2991 58.51161 126.29103 60.22413"/><polygon class="cls-8" points="119.70908 52.06374 122.70225 53.85071 125.72508 52.09352 122.73204 50.30654 119.70908 52.06374"/><polyline class="cls-8" points="122.95538 54.11873 126.00813 55.90571 129.1054 54.14851 126.0528 52.36154 122.95538 54.11873"/><polygon class="cls-8" points="119.47083 56.09927 122.52358 57.88624 125.62086 56.12905 122.56825 54.34207 119.47083 56.09927"/></g></g></g><path class="cls-4" d="M19.56105,52.94229c.5625,0,1,.19141,1.31055,.57617,.31152,.38379,.4668,.92773,.4668,1.63086s-.15625,1.24902-.4707,1.63867c-.31348,.38965-.74902,.58398-1.30664,.58398-.27832,0-.5332-.05176-.76367-.1543s-.42383-.26074-.58008-.47461h-.04688l-.13672,.55078h-.46484v-6.07812h.64844v1.47656c0,.33008-.00977,.62695-.03125,.89062h.03125c.30273-.42773,.75-.64062,1.34375-.64062Zm-.09375,.54297c-.44238,0-.76172,.12695-.95703,.38086s-.29297,.68164-.29297,1.2832,.10059,1.03223,.30078,1.29102c.20117,.25879,.52246,.38867,.96484,.38867,.39844,0,.69531-.14551,.89062-.43555s.29297-.70801,.29297-1.25195c0-.55762-.09766-.97266-.29297-1.24609s-.49707-.41016-.90625-.41016Z"/><path class="cls-4" d="M22.19191,53.0126h.69531l.9375,2.44141c.20508,.55762,.33301,.95996,.38281,1.20703h.03125c.0332-.13281,.10449-.36035,.21289-.68164,.10742-.32129,.46094-1.31055,1.06055-2.9668h.69531l-1.83984,4.875c-.18262,.48145-.39551,.82324-.63867,1.02539-.24414,.20215-.54297,.30273-.89648,.30273-.19824,0-.39355-.02246-.58594-.06641v-.51953c.14258,.03125,.30273,.04688,.48047,.04688,.44531,0,.7627-.25,.95312-.75l.23828-.60938-1.72656-4.30469Z"/></g></g></svg>