<?xml version="1.0" ?>
<svg xmlns="http://www.w3.org/2000/svg" viewBox="0 0 889.9 550.5">
	<g>
		<g>
			<path fill="#000000" d="M27.4,193.3c0-57.8,32.9-88.5,84.1-88.5c28.5,0,51.6,9.3,66.3,28l6.7-23.6h37.5l0.3,233.6                     c0,58.3-37.8,89-97.9,89c-59.2,0-97-30.3-97-86.3V345h49.8v3.6c0,26.3,17.8,40.5,47.2,40.5c29.8,0,48.5-14.7,48.5-42.7v-37.8                     c-14.7,15.1-35.6,23.1-61,23.1c-51.6,0-84.5-30.7-84.5-88.5V193.3z M77.2,246.3c0,28,18.2,42.7,47.2,42.7                     c29.4,0,48.5-15.1,48.5-43.6v-54.3c0-28.5-19.1-43.6-48.5-43.6c-28.9,0-47.2,14.7-47.2,42.7V246.3z"/>
			<path fill="#000000" d="M327.4,248.1c0,34.4,4.7,47.7,29.6,47.7c9.6,0,16.8,0,34.5,0v42.9c0,0-29.9,0-39.6,0                     c-56.8,0-73.9-31.9-73.9-90.6v-95.8h-40v-42.7h40v-69L327.4,26v83.6h64.1v42.7h-64.1V248.1z"/>
			<path fill="#7BA136" d="M407.8,109.6h77l6.2,21.8c12.9-17.3,33.8-26.2,59.6-26.2c28.5,0,51.2,10.7,63.2,32.5                     c12.9-21.4,35.6-32.5,64.1-32.5c45.8,0,75.2,26.7,75.2,81V296h38.7v42.7h-88.1V184.8c0-25.8-15.1-36.9-38.7-36.9                     s-40.5,12.5-40.5,38.3V296h35.6v42.7h-85V184.8c0-25.8-15.1-36.9-38.7-36.9c-23.1,0-40,12.5-40,38.3V296H532v42.7H407.8V296H447                     V152.3h-39.2V109.6z"/>
			<g>
				<rect x="820.8" y="295.9" fill="#000000" width="42.7" height="42.7"/>
				<rect x="820.8" y="226.5" fill="#000000" width="42.7" height="42.7"/>
			</g>
		</g>
		<g class="awm">
			<path fill="#000000" d="M36.9,510.2l-5,15h-6.4l16.2-47.7h7.4l16.3,47.7h-6.6l-5.1-15H36.9z M52.6,505.4l-4.7-13.7                     c-1.1-3.1-1.8-5.9-2.5-8.7h-0.1c-0.7,2.8-1.5,5.7-2.4,8.6l-4.7,13.8H52.6z"/>
			<path fill="#000000" d="M94.2,525.2l-12.1-47.7h6.5l5.7,24.1c1.4,5.9,2.7,11.9,3.5,16.5h0.1c0.8-4.7,2.3-10.4,3.9-16.6l6.4-24.1h6.4                     l5.8,24.2c1.3,5.7,2.6,11.3,3.3,16.4h0.1c1-5.2,2.3-10.5,3.8-16.5l6.3-24.1h6.3l-13.5,47.7h-6.4l-6-24.8                     c-1.5-6.1-2.5-10.8-3.1-15.6h-0.1c-0.8,4.7-1.9,9.4-3.7,15.6l-6.8,24.8H94.2z"/>
			<path fill="#000000" d="M175.4,507.8c0,12.7-8.8,18.2-17.1,18.2c-9.3,0-16.4-6.8-16.4-17.6c0-11.5,7.5-18.2,17-18.2                     C168.8,490.2,175.4,497.3,175.4,507.8z M148.3,508.2c0,7.5,4.3,13.2,10.4,13.2c5.9,0,10.4-5.6,10.4-13.3c0-5.8-2.9-13.2-10.3-13.2                     C151.4,494.9,148.3,501.7,148.3,508.2z"/>
			<path fill="#000000" d="M215,507.8c0,12.7-8.8,18.2-17.1,18.2c-9.3,0-16.4-6.8-16.4-17.6c0-11.5,7.5-18.2,17-18.2                     C208.4,490.2,215,497.3,215,507.8z M187.8,508.2c0,7.5,4.3,13.2,10.4,13.2c5.9,0,10.4-5.6,10.4-13.3c0-5.8-2.9-13.2-10.3-13.2                     C191,494.9,187.8,501.7,187.8,508.2z"/>
			<path fill="#000000" d="M253.2,475v41.4c0,3,0.1,6.5,0.3,8.8h-5.6l-0.3-5.9h-0.1c-1.9,3.8-6.1,6.7-11.7,6.7c-8.3,0-14.7-7-14.7-17.4                     c-0.1-11.4,7-18.4,15.4-18.4c5.2,0,8.8,2.5,10.3,5.2h0.1V475H253.2z M246.9,504.9c0-0.8-0.1-1.8-0.3-2.6c-0.9-4-4.3-7.2-9-7.2                     c-6.4,0-10.3,5.7-10.3,13.2c0,6.9,3.4,12.7,10.1,12.7c4.2,0,8-2.8,9.1-7.4c0.2-0.8,0.3-1.7,0.3-2.7V504.9z"/>
			<path fill="#000000" d="M320.3,504.3c-0.4-6.7-0.8-14.7-0.7-20.6h-0.2c-1.6,5.6-3.6,11.5-6,18.1L305,525h-4.7l-7.7-22.7                     c-2.3-6.7-4.2-12.9-5.5-18.5h-0.1c-0.1,5.9-0.5,13.9-0.9,21.1l-1.3,20.5h-5.9l3.3-47.7h7.9l8.1,23.1c2,5.9,3.6,11.1,4.8,16.1h0.2                     c1.2-4.8,2.9-10.1,5-16.1l8.5-23.1h7.9l3,47.7h-6L320.3,504.3z"/>
			<path fill="#000000" d="M356.9,525.2l-0.5-4.3h-0.2c-1.9,2.7-5.6,5.1-10.5,5.1c-6.9,0-10.5-4.9-10.5-9.8c0-8.3,7.4-12.8,20.6-12.7                     v-0.7c0-2.8-0.8-7.9-7.8-7.9c-3.2,0-6.5,1-8.9,2.5l-1.4-4.1c2.8-1.8,6.9-3,11.3-3c10.5,0,13,7.1,13,14V517c0,3,0.1,5.9,0.6,8.2                     H356.9z M356,507.8c-6.8-0.1-14.5,1.1-14.5,7.7c0,4,2.7,5.9,5.9,5.9c4.5,0,7.3-2.8,8.3-5.7c0.2-0.6,0.4-1.3,0.4-2V507.8z"/>
			<path fill="#000000" d="M397.2,524c-1.6,0.8-5.2,2-9.8,2c-10.3,0-17.1-7-17.1-17.5c0-10.5,7.2-18.2,18.4-18.2c3.7,0,6.9,0.9,8.6,1.8                     l-1.4,4.8c-1.5-0.8-3.8-1.6-7.2-1.6c-7.9,0-12.1,5.8-12.1,13c0,7.9,5.1,12.8,11.9,12.8c3.5,0,5.9-0.9,7.6-1.7L397.2,524z"/>
			<path fill="#000000" d="M411.4,506.7h0.1c0.8-1.2,2.1-2.7,3-3.9l10.1-11.8h7.5l-13.2,14.1l15.1,20.2h-7.6l-11.8-16.4l-3.2,3.5v12.9                     h-6.2V475h6.2V506.7z"/>
			<path fill="#000000" d="M442.6,509.2c0.1,8.4,5.5,11.9,11.8,11.9c4.5,0,7.1-0.8,9.5-1.8l1.1,4.5c-2.2,1-5.9,2.1-11.4,2.1                     c-10.5,0-16.8-6.9-16.8-17.3c0-10.3,6.1-18.5,16.1-18.5c11.2,0,14.2,9.8,14.2,16.1c0,1.3-0.1,2.3-0.2,2.9H442.6z M460.8,504.8                     c0.1-4-1.6-10.1-8.6-10.1c-6.3,0-9.1,5.8-9.6,10.1H460.8z"/>
			<path fill="#000000" d="M475.3,500.2c0-3.5-0.1-6.4-0.3-9.3h5.5l0.4,5.7h0.1c1.7-3.3,5.7-6.4,11.3-6.4c4.7,0,12.1,2.8,12.1,14.6v20.5                     h-6.2v-19.7c0-5.5-2.1-10.1-7.9-10.1c-4.1,0-7.3,2.9-8.4,6.4c-0.3,0.8-0.4,1.8-0.4,2.9v20.6h-6.2V500.2z"/>
			<path fill="#000000" d="M511.4,521.6l15.5-20.2c1.5-1.8,2.9-3.5,4.5-5.3V496h-18.5v-5h26.1l-0.1,3.9l-15.3,19.9                     c-1.4,1.9-2.8,3.6-4.4,5.4v0.1h20v5h-27.8V521.6z"/>
			<path fill="#000000" d="M553.2,481.4c0.1,2.1-1.5,3.8-4,3.8c-2.2,0-3.8-1.7-3.8-3.8c0-2.2,1.6-3.9,3.9-3.9                     C551.7,477.5,553.2,479.2,553.2,481.4z M546.3,525.2V491h6.2v34.3H546.3z"/>
			<path fill="#000000" d="M567,509.2c0.1,8.4,5.5,11.9,11.8,11.9c4.5,0,7.1-0.8,9.5-1.8l1.1,4.5c-2.2,1-5.9,2.1-11.4,2.1                     c-10.5,0-16.8-6.9-16.8-17.3c0-10.3,6.1-18.5,16.1-18.5c11.2,0,14.2,9.8,14.2,16.1c0,1.3-0.1,2.3-0.2,2.9H567z M585.3,504.8                     c0.1-4-1.6-10.1-8.6-10.1c-6.3,0-9.1,5.8-9.6,10.1H585.3z"/>
			<path fill="#000000" d="M615.6,478.2c2.7-0.6,6.9-1,11.3-1c6.2,0,10.1,1.1,13.1,3.5c2.5,1.8,4,4.7,4,8.4c0,4.6-3,8.6-8.1,10.5v0.1                     c4.5,1.1,9.8,4.9,9.8,12c0,4.1-1.6,7.2-4,9.6c-3.3,3-8.7,4.5-16.5,4.5c-4.2,0-7.5-0.3-9.6-0.6V478.2z M621.8,497.7h5.6                     c6.5,0,10.3-3.4,10.3-8c0-5.6-4.2-7.8-10.5-7.8c-2.8,0-4.5,0.2-5.5,0.4V497.7z M621.8,520.6c1.2,0.2,3,0.3,5.2,0.3                     c6.4,0,12.2-2.3,12.2-9.3c0-6.5-5.6-9.2-12.3-9.2h-5.1V520.6z"/>
			<path fill="#000000" d="M683.2,515.9c0,3.5,0.1,6.7,0.3,9.3h-5.5l-0.4-5.6h-0.1c-1.6,2.8-5.2,6.4-11.3,6.4c-5.4,0-11.8-3-11.8-15v-20                     h6.2v19c0,6.5,2,10.9,7.6,10.9c4.2,0,7.1-2.9,8.2-5.7c0.4-0.9,0.6-2.1,0.6-3.2v-21h6.2V515.9z"/>
			<path fill="#000000" d="M693.4,518.9c1.8,1.2,5.1,2.5,8.2,2.5c4.5,0,6.7-2.3,6.7-5.1c0-3-1.8-4.6-6.4-6.3c-6.2-2.2-9.1-5.6-9.1-9.7                     c0-5.5,4.5-10.1,11.8-10.1c3.5,0,6.5,1,8.4,2.1l-1.6,4.5c-1.3-0.8-3.8-2-7-2c-3.7,0-5.7,2.1-5.7,4.7c0,2.8,2.1,4.1,6.5,5.8                     c5.9,2.3,9,5.2,9,10.3c0,6-4.7,10.3-12.8,10.3c-3.8,0-7.2-0.9-9.6-2.3L693.4,518.9z"/>
			<path fill="#000000" d="M729.9,481.4c0.1,2.1-1.5,3.8-4,3.8c-2.2,0-3.8-1.7-3.8-3.8c0-2.2,1.6-3.9,3.9-3.9                     C728.4,477.5,729.9,479.2,729.9,481.4z M722.9,525.2V491h6.2v34.3H722.9z"/>
			<path fill="#000000" d="M740.2,500.2c0-3.5-0.1-6.4-0.3-9.3h5.5l0.4,5.7h0.1c1.7-3.3,5.7-6.4,11.3-6.4c4.7,0,12.1,2.8,12.1,14.6v20.5                     h-6.2v-19.7c0-5.5-2.1-10.1-7.9-10.1c-4.1,0-7.3,2.9-8.4,6.4c-0.3,0.8-0.4,1.8-0.4,2.9v20.6h-6.2V500.2z"/>
			<path fill="#000000" d="M783.7,509.2c0.1,8.4,5.5,11.9,11.8,11.9c4.5,0,7.1-0.8,9.5-1.8l1.1,4.5c-2.2,1-5.9,2.1-11.4,2.1                     c-10.5,0-16.8-6.9-16.8-17.3c0-10.3,6.1-18.5,16.1-18.5c11.2,0,14.2,9.8,14.2,16.1c0,1.3-0.1,2.3-0.2,2.9H783.7z M801.9,504.8                     c0.1-4-1.6-10.1-8.6-10.1c-6.3,0-9.1,5.8-9.6,10.1H801.9z"/>
			<path fill="#000000" d="M815.5,518.9c1.8,1.2,5.1,2.5,8.2,2.5c4.5,0,6.7-2.3,6.7-5.1c0-3-1.8-4.6-6.4-6.3c-6.2-2.2-9.1-5.6-9.1-9.7                     c0-5.5,4.5-10.1,11.8-10.1c3.5,0,6.5,1,8.4,2.1l-1.6,4.5c-1.3-0.8-3.8-2-7-2c-3.7,0-5.7,2.1-5.7,4.7c0,2.8,2.1,4.1,6.5,5.8                     c5.9,2.3,9,5.2,9,10.3c0,6-4.7,10.3-12.8,10.3c-3.8,0-7.2-0.9-9.6-2.3L815.5,518.9z"/>
			<path fill="#000000" d="M844.3,518.9c1.8,1.2,5.1,2.5,8.2,2.5c4.5,0,6.7-2.3,6.7-5.1c0-3-1.8-4.6-6.4-6.3c-6.2-2.2-9.1-5.6-9.1-9.7                     c0-5.5,4.5-10.1,11.8-10.1c3.5,0,6.5,1,8.4,2.1l-1.6,4.5c-1.3-0.8-3.8-2-7-2c-3.7,0-5.7,2.1-5.7,4.7c0,2.8,2.1,4.1,6.5,5.8                     c5.9,2.3,9,5.2,9,10.3c0,6-4.7,10.3-12.8,10.3c-3.8,0-7.2-0.9-9.6-2.3L844.3,518.9z"/>
		</g>
	</g>
</svg>