<svg viewBox="0 0 160 32" fill="none" xmlns="http://www.w3.org/2000/svg">
<path d="M40.6265 30.2255C38.6081 30.2255 36.9991 29.8493 35.7994 29.097C34.5998 28.3639 34 27.3608 34 26.0875C34 24.6985 34.7712 23.5603 36.3136 22.6729C35.4757 22.1521 35.0568 21.4672 35.0568 20.6184C35.0568 20.1747 35.1806 19.7792 35.4281 19.432C35.6947 19.0847 36.047 18.805 36.485 18.5928C35.7614 18.0719 35.2092 17.4064 34.8283 16.5961C34.4665 15.7859 34.2856 14.8985 34.2856 13.9339C34.2856 12.8729 34.5141 11.9083 34.9711 11.0402C35.4281 10.1528 36.0946 9.45828 36.9705 8.9567C37.8464 8.43583 38.8842 8.17539 40.0839 8.17539C41.3406 8.17539 42.426 8.48406 43.34 9.10139C43.6637 8.92776 44.0921 8.78308 44.6253 8.66733C45.1775 8.53229 45.7678 8.46477 46.3962 8.46477H47.0817L46.9136 10.1256C46.8793 10.4642 46.5942 10.7219 46.2539 10.7219H45.7964C45.4727 10.7219 45.2061 10.7315 44.9966 10.7508C45.5679 11.6382 45.8535 12.6992 45.8535 13.9339C45.8535 14.9949 45.625 15.9691 45.168 16.8566C44.73 17.7247 44.0731 18.4192 43.1972 18.94C42.3213 19.4416 41.2835 19.6924 40.0839 19.6924C39.6459 19.6924 39.1413 19.6249 38.57 19.4898C38.3606 19.5863 38.2558 19.7406 38.2558 19.9528C38.2558 20.2036 38.3987 20.4062 38.6843 20.5605C38.9889 20.6956 39.4936 20.8113 40.1981 20.9078L42.6545 21.2261C45.9297 21.6698 47.5673 23.0684 47.5673 25.422C47.5673 26.8881 46.9484 28.0552 45.7107 28.9234C44.492 29.7915 42.7973 30.2255 40.6265 30.2255ZM40.0839 17.0302C40.9026 17.0302 41.531 16.7601 41.969 16.2199C42.426 15.6605 42.6545 14.8985 42.6545 13.9339C42.6545 12.9693 42.426 12.217 41.969 11.6768C41.531 11.1173 40.9026 10.8376 40.0839 10.8376C39.246 10.8376 38.5986 11.1173 38.1416 11.6768C37.7036 12.217 37.4846 12.9693 37.4846 13.9339C37.4846 14.8985 37.7036 15.6605 38.1416 16.2199C38.5986 16.7601 39.246 17.0302 40.0839 17.0302ZM40.7694 27.5054C43.2067 27.5054 44.4254 26.8978 44.4254 25.6824C44.4254 25.1422 44.2159 24.7371 43.797 24.467C43.3781 24.2162 42.6831 24.0137 41.7119 23.8594L38.57 23.3964C37.4846 23.8401 36.942 24.5153 36.942 25.422C36.942 26.1165 37.2752 26.6373 37.9416 26.9846C38.6081 27.3318 39.5507 27.5054 40.7694 27.5054Z" fill="#2e6461"/>
<path d="M48.4235 8.46477H51.7368L51.8224 9.99844C52.2414 9.51615 52.7745 9.09174 53.422 8.7252C54.0884 8.35866 54.7834 8.17539 55.507 8.17539C55.7355 8.17539 55.945 8.19469 56.1354 8.23327L55.8783 11.7636C55.5165 11.6671 55.1072 11.6189 54.6501 11.6189C54.0599 11.6189 53.5172 11.7636 53.0221 12.053C52.527 12.3231 52.1747 12.6607 51.9653 13.0658V22.9334H48.4235V8.46477Z" fill="#2e6461"/>
<path d="M63.5925 23.2227C61.9359 23.2227 60.5172 22.8851 59.3367 22.2099C58.1751 21.5154 57.2992 20.5991 56.7089 19.4609C56.1376 18.3034 55.852 17.0205 55.852 15.6123C55.852 14.2618 56.1281 13.0272 56.6803 11.9083C57.2325 10.7894 58.0323 9.90198 59.0796 9.24607C60.1269 8.57087 61.3741 8.23327 62.8213 8.23327C64.1542 8.23327 65.2777 8.513 66.1917 9.07245C67.1247 9.6319 67.8198 10.3843 68.2768 11.3295C68.7528 12.2748 68.9908 13.3359 68.9908 14.5126C68.9908 15.0914 68.9147 15.7473 68.7623 16.4804H59.5366C59.727 17.7536 60.2221 18.7085 61.0219 19.3452C61.8216 19.9625 62.7832 20.2711 63.9067 20.2711C65.4491 20.2711 66.8772 19.8757 68.1911 19.0847L68.3625 22.1231C67.7531 22.4511 67.0391 22.7212 66.2203 22.9334C65.4205 23.1263 64.5446 23.2227 63.5925 23.2227ZM65.3919 14.0496C65.3919 13.2973 65.1825 12.6317 64.7636 12.053C64.3447 11.4742 63.6972 11.1849 62.8213 11.1849C61.9454 11.1849 61.2408 11.4453 60.7077 11.9662C60.1745 12.487 59.8127 13.1815 59.6223 14.0496H65.3919Z" fill="#2e6461"/>
<path d="M77.721 23.2227C76.0643 23.2227 74.6457 22.8851 73.4651 22.2099C72.3036 21.5154 71.4277 20.5991 70.8374 19.4609C70.2661 18.3034 69.9805 17.0205 69.9805 15.6123C69.9805 14.2618 70.2566 13.0272 70.8088 11.9083C71.361 10.7894 72.1608 9.90198 73.2081 9.24607C74.2554 8.57087 75.5026 8.23327 76.9498 8.23327C78.2827 8.23327 79.4062 8.513 80.3202 9.07245C81.2532 9.6319 81.9483 10.3843 82.4053 11.3295C82.8813 12.2748 83.1193 13.3359 83.1193 14.5126C83.1193 15.0914 83.0432 15.7473 82.8908 16.4804H73.6651C73.8555 17.7536 74.3506 18.7085 75.1503 19.3451C75.9501 19.9625 76.9117 20.2711 78.0352 20.2711C79.5776 20.2711 81.0057 19.8757 82.3196 19.0847L82.4909 22.1231C81.8816 22.4511 81.1675 22.7212 80.3487 22.9334C79.549 23.1263 78.6731 23.2227 77.721 23.2227ZM79.5204 14.0496C79.5204 13.2973 79.311 12.6317 78.8921 12.053C78.4731 11.4742 77.8257 11.1849 76.9498 11.1849C76.0739 11.1849 75.3693 11.4453 74.8362 11.9662C74.303 12.487 73.9412 13.1815 73.7508 14.0496H79.5204Z" fill="#2e6461"/>
<path d="M91.5924 8.23327C93.3633 8.23327 94.7057 8.83131 95.6197 10.0274C96.5337 11.2234 96.9907 12.8343 96.9907 14.8599V22.9334H93.449V15.1493C93.449 13.7989 93.2205 12.8053 92.7635 12.1687C92.3255 11.5128 91.6114 11.1849 90.6213 11.1849C89.5359 11.1849 88.6409 11.5996 87.9364 12.4292V22.9334H84.3946V8.46477H87.7079L87.765 9.47757C88.9646 8.64804 90.2404 8.23327 91.5924 8.23327Z" fill="#2e6461"/>
<path d="M103.068 23.2227C102.154 23.2227 101.316 23.1359 100.554 22.9623C99.8115 22.7887 99.0403 22.5186 98.2406 22.1521L98.5548 19.0847C99.3545 19.567 100.097 19.9335 100.783 20.1843C101.487 20.4158 102.211 20.5316 102.953 20.5316C104.401 20.5316 105.124 20.0493 105.124 19.0847C105.124 18.5638 104.934 18.1684 104.553 17.8983C104.172 17.6089 103.487 17.2713 102.496 16.8855C101.087 16.3646 100.05 15.7762 99.3831 15.1203C98.7166 14.4451 98.3834 13.5384 98.3834 12.4002C98.3834 11.1463 98.8594 10.1335 99.8115 9.36182C100.764 8.57087 102.049 8.17539 103.667 8.17539C105.286 8.17539 106.762 8.55158 108.095 9.30394L107.781 12.3713C107.057 11.8697 106.371 11.4839 105.724 11.2138C105.096 10.9437 104.429 10.8087 103.725 10.8087C103.115 10.8087 102.639 10.9341 102.296 11.1849C101.973 11.4357 101.811 11.7925 101.811 12.2555C101.811 12.6221 101.906 12.9211 102.097 13.1526C102.306 13.3841 102.592 13.5963 102.953 13.7892C103.315 13.9628 103.915 14.2136 104.753 14.5416C106.143 15.0817 107.143 15.6798 107.752 16.3357C108.361 16.9723 108.666 17.8308 108.666 18.9111C108.666 20.2808 108.18 21.3418 107.209 22.0942C106.238 22.8466 104.858 23.2227 103.068 23.2227Z" fill="#2e6461"/>
<path d="M117.402 8.23327C118.754 8.23327 119.915 8.57087 120.887 9.24607C121.858 9.92127 122.591 10.828 123.086 11.9662C123.581 13.1044 123.829 14.3583 123.829 15.728C123.829 17.0977 123.581 18.3516 123.086 19.4898C122.591 20.628 121.858 21.5347 120.887 22.2099C119.915 22.8851 118.754 23.2227 117.402 23.2227C116.545 23.2227 115.812 23.1263 115.203 22.9334C114.612 22.7597 114.041 22.4704 113.489 22.0652V28.6787V30.2305H111.605C110.689 30.2305 109.947 29.4883 109.947 28.5728V8.46477H112.803L113.175 9.79588C113.784 9.27501 114.422 8.88918 115.088 8.63839C115.755 8.36831 116.526 8.23327 117.402 8.23327ZM116.859 20.2711C117.907 20.2711 118.725 19.8564 119.316 19.0268C119.906 18.1973 120.201 17.0977 120.201 15.728C120.201 14.3583 119.906 13.2587 119.316 12.4292C118.725 11.5996 117.907 11.1849 116.859 11.1849C115.679 11.1849 114.793 11.59 114.203 12.4002C113.613 13.2105 113.317 14.3197 113.317 15.728C113.317 17.1363 113.613 18.2455 114.203 19.0558C114.793 19.866 115.679 20.2711 116.859 20.2711Z" fill="#2e6461"/>
<path d="M128.806 23.2227C127.625 23.2227 126.635 22.8369 125.835 22.0652C125.055 21.2743 124.664 20.2133 124.664 18.8822C124.664 17.6282 125.112 16.6251 126.007 15.8727C126.902 15.101 127.959 14.5609 129.177 14.2522C130.396 13.9242 131.567 13.741 132.691 13.7024C132.652 12.8536 132.433 12.2459 132.034 11.8794C131.653 11.5128 131.015 11.3295 130.12 11.3295C129.492 11.3295 128.873 11.4164 128.263 11.59C127.673 11.7636 126.988 12.0433 126.207 12.4292L125.893 9.50651C127.625 8.65768 129.358 8.23327 131.091 8.23327C132.767 8.23327 134.042 8.69627 134.918 9.62226C135.813 10.5482 136.261 12.024 136.261 14.0496V17.9562C136.261 18.6892 136.289 19.2198 136.347 19.5477C136.423 19.8564 136.537 20.0589 136.689 20.1554C136.861 20.2326 137.137 20.2711 137.518 20.2711H137.975L137.66 23.2227H136.375C135.594 23.2227 134.937 23.078 134.404 22.7887C133.871 22.48 133.462 22.0652 133.176 21.5444C132.719 22.0652 132.091 22.48 131.291 22.7887C130.51 23.078 129.682 23.2227 128.806 23.2227ZM130.291 20.4737C130.653 20.4737 131.062 20.3869 131.519 20.2133C131.976 20.0204 132.376 19.7599 132.719 19.432V16.1331C131.577 16.191 130.567 16.4418 129.691 16.8855C128.816 17.3292 128.378 17.9465 128.378 18.7375C128.378 19.3355 128.53 19.7792 128.835 20.0686C129.139 20.3387 129.625 20.4737 130.291 20.4737Z" fill="#2e6461"/>
<path d="M139.09 8.46477H142.403L142.489 9.99844C142.908 9.51615 143.441 9.09174 144.088 8.7252C144.755 8.35866 145.45 8.17539 146.173 8.17539C146.402 8.17539 146.611 8.19469 146.802 8.23327L146.545 11.7636C146.183 11.6671 145.774 11.6189 145.317 11.6189C144.726 11.6189 144.184 11.7636 143.688 12.053C143.193 12.3231 142.841 12.6607 142.632 13.0658V22.9334H139.09V8.46477Z" fill="#2e6461"/>
<path d="M147.918 1.23047H151.46V14.3969L155.887 8.46477H159.886L154.687 15.4097L160 22.9334H156.001L151.46 16.5093V22.9334H147.918V1.23047Z" fill="#2e6461"/>
<path d="M0.929426 10.5001C-2.55479 13.9719 4.87075 31.8453 14.5289 31.1919C21.6733 30.7086 25.0393 19.9744 25.7829 14.1853C26.5217 8.43399 19.6705 10.6635 20.3043 15.0404C21.2342 21.4624 21.1445 22.6139 19.5394 24.2431C17.9344 25.8722 17.028 25.3387 18.2741 18.8611C19.5202 12.3835 19.7157 7.75113 19.5394 4.6676C19.3632 1.58406 12.6827 -1.55264 14.5441 8.61926C16.617 19.9469 15.6729 26.2164 13.5201 24.9271C11.3673 23.6378 12.4252 18.4919 12.1746 15.901C11.8699 12.7512 11.3408 12.7183 10.7515 9.33317C10.1621 5.9481 12.7885 2.06109 12.171 0.449443C11.5534 -1.1622 4.81173 1.51463 7.32369 9.25813C10.7328 19.7672 9.14875 22.5155 8.1271 22.6139C7.10545 22.7124 6.21804 21.3259 5.70102 19.5765C5.184 17.8272 6.58984 13.8849 5.96677 11.1169C5.36981 8.46499 4.10801 7.33281 0.929426 10.5001Z" fill="#2e6461"/>
</svg>
