<?xml version="1.0" ?>
<svg xmlns="http://www.w3.org/2000/svg" version="1.2" viewBox="0 0 1529 1525">
	<style>
		.s0 { fill: #a8ce38;stroke: #aeba1e;stroke-linecap: round;stroke-width: 68.5 } 
		.s1 { fill: #a8ce38 } 
	</style>
	<g id="layer1">
		<g id="g22935">
			<path id="path17717" class="s0" d="m35.7 771.1h127.8"/>
			<path id="path17719" class="s0" d="m190.3 664.6l-134.6-58.8"/>
			<path id="path17723" class="s0" d="m234.2 552l-134.7-90.5"/>
			<path id="path17727" class="s0" d="m302.6 461.5l-124.6-129.6"/>
			<path id="path17731" class="s0" d="m385.8 378.2l-97.9-163.9"/>
			<path id="path17735" class="s0" d="m498.3 331.9l-61.2-215.5"/>
			<path id="path17739" class="s0" d="m613.3 319.6v-261.8"/>
			<path id="path17743" class="s0" d="m721 331.9l95.3-296.1"/>
			<path id="path17747" class="s0" d="m831 378.2l183.4-298.4"/>
			<path id="path17751" class="s0" d="m922.7 439.5l275.2-255.7"/>
			<path id="path17755" class="s0" d="m997.4 542.3l354.6-198.2"/>
			<path id="path17759" class="s0" d="m1031.7 652.3l432.9-119.9"/>
			<path id="path17763" class="s0" d="m1041.4 771.1h452.5"/>
			<path id="path17767" class="s0" d="m1041.4 875.1l413.5 124.7"/>
			<path id="path17771" class="s0" d="m997.4 999.8l344.9 198.2"/>
			<path id="path17775" class="s0" d="m922.7 1083l275.2 269.2"/>
			<path id="path17779" class="s0" d="m831 1148.4l166.4 299.3"/>
			<path id="path17783" class="s0" d="m721 1198l80.7 291.3"/>
			<path id="path17787" class="s0" d="m613.3 1207.9v266.7"/>
			<path id="path17789" class="s0" d="m498.3 1198l-61.2 203.1"/>
			<path id="path17793" class="s0" d="m385.8 1148.4l-97.9 164.7"/>
			<path id="path17797" class="s1" d="m287.9 1083l-109.9 115"/>
			<path id="path17799" class="s0" d="m287.9 1083l-109.9 115"/>
			<path id="path17803" class="s0" d="m219.6 977.8l-110.2 80.8"/>
			<path id="path17807" class="s0" d="m178 875.1l-122.3 36.7"/>
		</g>
	</g>
</svg>