<?xml version="1.0" ?>
<svg xmlns="http://www.w3.org/2000/svg" role="img" viewBox="2.64 0.14 668.72 135.72">
	<style>svg {enable-background:new 0 0 673.5 132.1}</style>
	<path d="M 39.8,123.3 C 35.8,123.3 32.4,122.8 29.6,121.8 C 26.7,120.8 24.4,119.5 22.5,117.8 C 20.6,116.2 19.1,114.4 18.0,112.6 L 24.5,108.0 C 25.2,109.0 26.2,110.1 27.3,111.4 C 28.4,112.7 30.0,113.8 32.0,114.7 C 34.0,115.6 36.6,116.1 39.8,116.1 C 44.1,116.1 47.7,115.1 50.5,113.0 C 53.3,110.9 54.7,107.6 54.7,103.2 L 54.7,92.2 L 54.0,92.2 C 53.4,93.2 52.5,94.4 51.4,95.8 C 50.3,97.2 48.7,98.5 46.7,99.6 C 44.6,100.7 41.9,101.3 38.4,101.3 C 34.1,101.3 30.2,100.3 26.8,98.2 C 23.4,96.2 20.7,93.2 18.7,89.3 C 16.7,85.4 15.7,80.7 15.7,75.1 C 15.7,69.6 16.7,64.9 18.6,60.8 C 20.5,56.7 23.2,53.6 26.6,51.3 C 30.0,49.1 34.0,47.9 38.5,47.9 C 42.0,47.9 44.7,48.5 46.8,49.6 C 48.9,50.7 50.4,52.0 51.5,53.5 C 52.6,55.0 53.5,56.1 54.1,57.1 L 55.0,57.1 L 55.0,48.6 L 62.9,48.6 L 62.9,103.6 C 62.9,108.2 61.9,111.9 59.8,114.8 C 57.7,117.7 54.9,119.8 51.4,121.2 C 48.0,122.6 44.1,123.3 39.8,123.3 L 39.8,123.3 M 39.5,93.9 C 42.8,93.9 45.6,93.1 47.9,91.6 C 50.2,90.1 51.9,87.9 53.1,85.1 C 54.3,82.3 54.9,78.9 54.9,74.9 C 54.9,71.0 54.3,67.7 53.2,64.7 C 52.0,61.8 50.3,59.4 48.0,57.8 C 45.7,56.1 42.9,55.3 39.6,55.3 C 36.1,55.3 33.2,56.2 30.9,57.9 C 28.6,59.7 26.9,62.0 25.7,65.0 C 24.6,68.0 24.0,71.3 24.0,74.9 C 24.0,78.6 24.6,81.9 25.8,84.7 C 27.0,87.5 28.7,89.8 31.0,91.4 C 33.2,93.1 36.1,93.9 39.5,93.9 M 78.0,102.1 L 78.0,48.7 L 85.9,48.7 L 85.9,56.8 L 86.5,56.8 C 87.5,54.2 89.2,52.0 91.8,50.4 C 94.4,48.8 97.2,47.9 100.4,47.9 L 102.7,47.9 C 103.6,47.9 104.3,48.0 104.8,48.0 L 104.8,56.4 C 104.5,56.3 103.9,56.2 102.9,56.1 C 101.9,55.9 100.9,55.9 99.8,55.9 C 97.2,55.9 94.9,56.4 92.9,57.5 C 90.9,58.6 89.3,60.1 88.1,62.0 C 86.9,63.9 86.3,66.0 86.3,68.5 L 86.3,102.3 L 78.0,102.3 L 78.0,102.1 M 157.3,74.7 C 157.3,69.7 156.6,65.5 155.3,62.1 C 154.0,58.7 152.2,55.9 150.0,53.9 C 147.8,51.8 145.3,50.3 142.6,49.4 C 139.9,48.5 137.1,48.0 134.4,48.0 C 129.6,48.0 125.4,49.2 121.7,51.5 C 118.1,53.9 115.3,57.1 113.3,61.3 C 111.3,65.5 110.3,70.3 110.3,75.8 C 110.3,81.3 111.3,86.1 113.3,90.2 C 115.3,94.3 118.2,97.5 121.9,99.8 C 125.6,102.1 130.1,103.2 135.2,103.2 C 138.8,103.2 142.1,102.6 145.0,101.5 C 147.9,100.4 150.3,98.8 152.3,96.8 C 154.3,94.8 155.7,92.4 156.5,89.7 L 148.6,87.5 C 147.9,89.4 146.9,90.9 145.6,92.1 C 144.3,93.3 142.8,94.3 141.1,94.9 C 139.3,95.5 137.4,95.8 135.2,95.8 C 131.9,95.8 129.0,95.1 126.5,93.6 C 124.0,92.2 122.0,90.0 120.6,87.2 C 119.3,84.7 118.6,81.6 118.5,78.1 L 157.3,78.1 L 157.3,74.7 L 157.3,74.7 M 118.5,71.1 C 118.7,68.6 119.3,66.3 120.4,64.1 C 121.7,61.5 123.5,59.4 125.9,57.8 C 128.3,56.2 131.1,55.4 134.4,55.4 C 137.4,55.4 140.0,56.1 142.1,57.5 C 144.3,58.9 146.0,60.7 147.2,63.1 C 148.4,65.5 149.0,68.2 149.0,71.2 L 118.5,71.2 L 118.5,71.1 M 173.4,122.2 C 172.0,122.2 170.8,122.1 169.7,121.9 C 168.6,121.7 167.9,121.5 167.4,121.3 L 169.5,114.1 C 171.5,114.6 173.3,114.8 174.8,114.7 C 176.3,114.6 177.7,113.9 178.9,112.7 C 180.1,111.5 181.2,109.5 182.2,106.8 L 183.7,102.6 L 164.0,48.7 L 172.9,48.7 L 187.7,91.3 L 188.3,91.3 L 203.0,48.7 L 211.9,48.7 L 189.2,110.0 C 188.2,112.8 186.9,115.1 185.4,116.9 C 183.9,118.7 182.1,120.1 180.2,121.0 C 178.2,121.7 175.9,122.2 173.4,122.2 L 173.4,122.2 M 222.7,102.1 L 222.7,48.7 L 230.6,48.7 L 230.6,57.0 L 231.3,57.0 C 232.4,54.1 234.2,51.9 236.7,50.3 C 239.2,48.7 242.2,47.9 245.6,47.9 C 249.1,47.9 252.1,48.7 254.4,50.3 C 256.8,51.9 258.6,54.14 259.9,57.0 L 260.5,57.0 C 261.9,54.2 263.9,52.0 266.7,50.4 C 269.4,48.8 272.7,47.9 276.5,47.9 C 281.3,47.9 285.2,49.4 288.2,52.4 C 291.2,55.4 292.8,60.0 292.8,66.3 L 292.8,102.1 L 284.6,102.1 L 284.6,66.3 C 284.6,62.4 283.5,59.5 281.4,57.8 C 279.2,56.1 276.7,55.3 273.8,55.3 C 270.0,55.3 267.1,56.4 265.1,58.7 C 263.0,61.0 262.0,63.8 262.0,67.3 L 262.0,102.1 L 253.6,102.1 L 253.6,65.5 C 253.6,62.5 252.6,60.0 250.6,58.1 C 248.6,56.2 246.1,55.3 243.0,55.3 C 240.9,55.3 238.9,55.9 237.0,57.0 C 235.2,58.1 233.7,59.7 232.5,61.7 C 231.4,63.7 230.8,66.0 230.8,68.6 L 230.8,102.0 L 222.7,102.0 L 222.7,102.1 M 323.6,103.4 C 320.2,103.4 317.1,102.8 314.4,101.5 C 311.7,100.2 309.4,98.3 307.8,95.9 C 306.2,93.5 305.4,90.5 305.4,87.0 C 305.4,83.9 306.0,81.4 307.2,79.5 C 308.4,77.6 310.0,76.1 312.0,75.0 C 314.0,73.9 316.3,73.1 318.7,72.5 C 321.1,72.0 323.6,71.5 326.1,71.2 C 329.3,70.8 332.0,70.5 334.0,70.2 C 336.0,70.0 337.5,69.6 338.5,69.1 C 339.4,68.6 339.9,67.6 339.9,66.3 L 339.9,66.0 C 339.9,62.6 339.0,59.9 337.1,58.0 C 335.2,56.1 332.4,55.1 328.6,55.1 C 324.7,55.1 321.6,56.0 319.4,57.7 C 317.2,59.4 315.6,61.2 314.7,63.2 L 306.9,60.4 C 308.3,57.2 310.2,54.6 312.5,52.8 C 314.8,51.0 317.4,49.7 320.2,49.0 C 323.0,48.3 325.7,47.9 328.4,47.9 C 330.1,47.9 332.1,48.1 334.3,48.5 C 336.5,48.9 338.7,49.7 340.8,51.0 C 342.9,52.3 344.6,54.1 346.0,56.7 C 347.4,59.2 348.1,62.6 348.1,66.9 L 348.1,102.1 L 339.9,102.1 L 339.9,94.9 L 339.5,94.9 C 338.9,96.1 338.0,97.3 336.7,98.6 C 335.4,99.9 333.7,101.0 331.5,102.0 C 329.4,102.9 326.8,103.4 323.6,103.4 M 324.9,96.0 C 328.1,96.0 330.9,95.4 333.1,94.1 C 335.3,92.8 337.0,91.2 338.2,89.2 C 339.4,87.2 339.9,85.1 339.9,82.8 L 339.9,75.3 C 339.6,75.7 338.8,76.1 337.6,76.4 C 336.4,76.7 335.1,77.0 333.6,77.3 C 332.1,77.6 330.6,77.8 329.2,77.9 C 327.8,78.1 326.6,78.2 325.7,78.3 C 323.6,78.6 321.6,79.0 319.7,79.6 C 317.9,80.2 316.4,81.1 315.2,82.3 C 314.1,83.5 313.5,85.2 313.5,87.3 C 313.5,90.2 314.6,92.3 316.7,93.8 C 318.9,95.3 321.6,96.0 324.9,96.0 L 324.9,96.0 M 427.9,61.0 L 427.9,54.2 L 412.1,54.2 L 412.1,37.1 L 404.4,37.1 L 404.4,54.2 L 380.7,54.2 L 380.7,37.1 L 373.0,37.1 L 373.0,54.2 L 358.6,54.2 L 358.6,61.0 L 373.0,61.0 L 373.0,93.7 C 373.0,96.3 373.7,98.4 375.2,99.9 C 376.7,101.4 378.8,102.2 381.5,102.2 L 394.2,102.2 L 394.2,95.5 L 383.5,95.5 C 381.6,95.5 380.7,94.5 380.7,92.6 L 380.7,61.0 L 404.4,61.0 L 404.4,93.7 C 404.4,96.3 405.2,98.4 406.7,99.9 C 408.2,101.4 410.3,102.2 413.1,102.2 L 425.8,102.2 L 425.8,95.5 L 415.0,95.5 C 413.0,95.5 412.1,94.5 412.1,92.6 L 412.1,61.0 L 427.9,61.0 L 427.9,61.0 M 484.4,74.7 C 484.4,69.7 483.7,65.5 482.4,62.1 C 481.1,58.7 479.3,55.9 477.1,53.9 C 474.9,51.8 472.4,50.3 469.7,49.4 C 467.0,48.5 464.2,48.0 461.5,48.0 C 456.7,48.0 452.5,49.2 448.8,51.5 C 445.2,53.9 442.4,57.1 440.4,61.3 C 438.4,65.5 437.4,70.3 437.4,75.8 C 437.4,81.3 438.4,86.1 440.4,90.2 C 442.4,94.3 445.3,97.5 449.0,99.8 C 452.7,102.1 457.2,103.2 462.3,103.2 C 465.9,103.2 469.2,102.6 472.1,101.5 C 475.0,100.4 477.4,98.8 479.4,96.8 C 481.4,94.8 482.8,92.4 483.6,89.7 L 475.7,87.5 C 475.0,89.4 474.0,90.9 472.7,92.1 C 471.4,93.3 469.9,94.3 468.2,94.9 C 466.4,95.5 464.5,95.8 462.3,95.8 C 459.0,95.8 456.1,95.1 453.6,93.6 C 451.1,92.2 449.1,90.0 447.7,87.2 C 446.4,84.7 445.7,81.6 445.6,78.1 L 484.4,78.1 L 484.4,74.7 L 484.4,74.7 M 445.6,71.1 C 445.8,68.6 446.4,66.3 447.5,64.1 C 448.8,61.5 450.6,59.4 453.0,57.8 C 455.4,56.2 458.2,55.4 461.5,55.4 C 464.5,55.4 467.1,56.1 469.2,57.5 C 471.4,58.9 473.1,60.7 474.3,63.1 C 475.5,65.5 476.1,68.2 476.1,71.2 L 445.6,71.2 L 445.6,71.1 M 496.9,102.1 L 496.9,48.7 L 504.8,48.7 L 504.8,56.8 L 505.4,56.8 C 506.4,54.2 508.1,52.0 510.7,50.4 C 513.3,48.8 516.1,47.9 519.3,47.9 L 521.6,47.9 C 522.5,47.9 523.2,48.0 523.7,48.0 L 523.7,56.4 C 523.4,56.3 522.8,56.2 521.8,56.1 C 520.8,55.9 519.8,55.9 518.7,55.9 C 516.1,55.9 513.8,56.4 511.8,57.5 C 509.8,58.6 508.2,60.1 507.0,62.0 C 505.8,63.9 505.2,66.0 505.2,68.5 L 505.2,102.3 L 496.9,102.3 L 496.9,102.1 M 533.2,102.7 C 531.5,102.7 530.0,102.1 528.8,100.9 C 527.6,99.7 527.0,98.2 527.0,96.5 C 527.0,94.8 527.6,93.3 528.8,92.1 C 530.0,90.9 531.5,90.3 533.2,90.3 C 534.9,90.3 536.4,90.9 537.6,92.1 C 538.8,93.3 539.4,94.8 539.4,96.5 C 539.4,97.6 539.1,98.7 538.5,99.6 C 537.9,100.6 537.2,101.3 536.2,101.9 C 535.2,102.5 534.4,102.7 533.2,102.7 L 533.2,102.7 M 558.4,39.7 C 556.8,39.7 555.4,39.2 554.3,38.1 C 553.2,37.0 552.6,35.7 552.6,34.2 C 552.6,32.7 553.2,31.4 554.3,30.3 C 555.4,29.2 556.8,28.7 558.4,28.7 C 560.0,28.7 561.4,29.2 562.5,30.3 C 563.6,31.4 564.2,32.7 564.2,34.2 C 564.2,35.7 563.6,37.0 562.5,38.1 C 561.4,39.2 560.0,39.7 558.4,39.7 M 554.2,102.1 L 554.2,48.7 L 562.4,48.7 L 562.4,102.2 L 554.2,102.2 L 554.2,102.1 M 599.2,103.2 C 594.4,103.2 590.1,102.1 586.5,99.8 C 582.9,97.5 580.0,94.3 578.0,90.2 C 576.0,86.1 575.0,81.2 575.0,75.7 C 575.0,70.1 576.0,65.3 578.0,61.1 C 580.0,56.9 582.9,53.7 586.5,51.4 C 590.1,49.1 594.4,48.0 599.2,48.0 C 604.0,48.0 608.3,49.1 611.9,51.4 C 615.5,53.7 618.4,56.9 620.4,61.1 C 622.4,65.3 623.4,70.1 623.4,75.7 C 623.4,81.2 622.4,86.0 620.4,90.2 C 618.4,94.3 615.5,97.5 611.9,99.8 C 608.3,102.1 604.0,103.2 599.2,103.2 M 599.2,95.8 C 602.9,95.8 605.9,94.9 608.2,93.0 C 610.5,91.1 612.3,88.6 613.5,85.6 C 614.7,82.6 615.2,79.2 615.2,75.6 C 615.2,72.0 614.6,68.7 613.5,65.6 C 612.4,62.5 610.6,60.0 608.2,58.1 C 605.8,56.2 602.8,55.2 599.2,55.2 C 595.5,55.2 592.5,56.2 590.2,58.1 C 587.9,60.0 586.1,62.5 584.9,65.6 C 583.8,68.7 583.2,72.0 583.2,75.6 C 583.2,79.2 583.8,82.5 584.9,85.6 C 586.0,88.7 587.8,91.1 590.2,93.0 C 592.6,94.9 595.5,95.8 599.2,95.8"/>
	<g id="logo_dots">
		<path id="bottom_right_dot" d="M 646.9,49.2 C 653.4,49.2 658.8,54.7 658.8,61.4 C 658.8,68.1 653.5,73.6 646.9,73.6 C 640.4,73.6 635.0,68.1 635.0,61.4 C 635.1,54.6 640.4,49.2 646.9,49.2"/>
		<path id="green_dot" fill="#1cb24b" d="M 658.7,25.6 C 658.7,32.3 653.4,37.8 646.8,37.8 C 640.2,37.8 635.0,32.4 635.0,25.6 C 635.0,18.9 640.4,13.4 647.0,13.4 C 653.5,13.4 658.7,18.9 658.7,25.6"/>
		<path id="top_left_dot" d="M 624.1,25.6 C 624.1,32.3 618.8,37.8 612.2,37.8 C 605.6,37.8 600.3,32.3 600.3,25.6 C 600.3,18.9 605.6,13.4 612.2,13.4 C 618.8,13.4 624.1,18.9 624.1,25.6 L 624.1,25.6"/>
	</g>
</svg>