<?xml version="1.0" ?>
<svg xmlns="http://www.w3.org/2000/svg" viewBox="0 0 121 36" fill="none">
	<mask id="mask0_4991_2194" maskUnits="userSpaceOnUse" x="0" y="0" width="121" height="36" mask-type="luminance">
		<path d="M121.002 0.5H0.3125V35.323H121.002V0.5Z" fill="white"/>
	</mask>
	<g mask="url(#mask0_4991_2194)">
		<path d="M42.2838 14.9417C42.2838 17.5496 43.5803 19.3436 45.8716 19.3436C48.3138 19.3436 49.1278 17.8813 49.1278 16.2532L48.962 16.0874H45.7058L45.54 15.9215V14.7759L45.7058 14.6101H50.59L50.7559 14.7759V20.4742L50.59 20.64H49.6102L49.4444 20.4742L49.2786 19.4943H49.1127C48.2987 20.3084 47.3188 20.7908 45.8565 20.7908C42.6004 20.7908 40.6406 18.3486 40.6406 14.9266C40.6406 11.5046 42.6004 9.0625 46.0224 9.0625C49.1127 9.0625 50.4242 10.8564 50.7408 12.4845L50.575 12.6503H49.2786L49.1127 12.4845C48.7811 11.3388 47.8163 10.5247 46.0224 10.5247C43.5953 10.5549 42.2838 12.3337 42.2838 14.9417Z" fill="#424242"/>
		<path d="M60.0373 15.4394L59.8715 15.6052H58.5751L58.4092 15.4394C58.4092 14.2937 57.761 13.8113 56.6153 13.8113C55.153 13.8113 54.339 14.4595 54.339 16.4193V20.4895L54.1732 20.6553H52.8768L52.7109 20.4895V12.6656L52.8768 12.4998H54.0224L54.1882 12.6656L54.3541 13.3138H54.5199C54.5199 13.3138 55.1681 12.334 56.7962 12.334C58.4092 12.334 60.0373 13.1631 60.0373 15.4394Z" fill="#424242"/>
		<path d="M67.6971 20.6558H60.2049L60.0391 20.49V19.3443L60.2049 19.1785H63.2955L63.4609 19.0126V14.1284L63.2955 13.9626H61.0187L60.8534 13.7967V12.651L61.0187 12.4852H64.9236L65.089 12.651V18.9976L65.2549 19.1634H67.6971L67.863 19.3292V20.4749L67.6971 20.6558ZM65.089 11.2038H63.1296L62.9636 11.038V9.40997L63.1296 9.24414H65.089L65.2549 9.40997V11.038L65.089 11.2038Z" fill="#424242"/>
		<path d="M75.6872 20.6564H74.5412L74.3759 20.4905L74.2099 19.8423H74.044C74.044 19.8423 73.3959 20.8222 71.7678 20.8222C69.4916 20.8222 68.1797 19.0283 68.1797 16.5862C68.1797 14.144 69.4765 12.3501 71.7678 12.3501C73.3959 12.3501 74.044 13.33 74.044 13.33H74.2099V9.42559L74.3759 9.25977H75.6721L75.8381 9.42559V20.5056L75.6872 20.6564ZM71.9337 13.8124C70.6369 13.8124 69.8229 14.7922 69.8229 16.5862C69.8229 18.38 70.6369 19.3599 71.9337 19.3599C73.2299 19.3599 74.2099 18.5459 74.2099 16.5862C74.2099 14.6264 73.245 13.8124 71.9337 13.8124Z" fill="#424242"/>
		<path d="M77.5248 14.6259C77.5248 13.1636 78.821 12.3496 80.9469 12.3496C82.741 12.3496 84.3691 12.9978 84.3691 14.7917L84.2031 14.9575H82.9063L82.741 14.7917C82.741 14.1435 82.2582 13.8118 80.9469 13.8118C79.635 13.8118 79.1529 14.1435 79.1529 14.6259C79.1529 15.4399 79.801 15.6058 81.4291 15.7716C83.0572 15.9374 84.5194 16.4198 84.5194 18.2137C84.5194 19.8418 83.2232 20.8217 80.9319 20.8217C78.821 20.8217 77.3438 19.8418 77.3438 18.0479L77.5097 17.8821H78.8059L78.9719 18.0479C78.9719 18.862 79.62 19.3444 80.9319 19.3444C82.2432 19.3444 82.8913 19.0127 82.8913 18.1987C82.8913 17.3846 82.2431 17.2188 80.615 17.0529C78.9869 16.9022 77.5248 16.4198 77.5248 14.6259Z" fill="#424242"/>
		<path d="M90.2343 20.8056C88.6062 20.8056 87.9581 19.8257 87.9581 19.8257H87.7922V23.7301L87.6262 23.8959H86.33L86.1641 23.7301V12.65L86.33 12.4842H87.4753L87.6413 12.65L87.8072 13.2982H87.9732C87.9732 13.2982 88.6213 12.3184 90.2494 12.3184C92.5256 12.3184 93.8375 14.1123 93.8375 16.5544C93.8073 19.0267 92.5105 20.8056 90.2343 20.8056ZM90.0684 13.8108C88.7722 13.8108 87.7922 14.6249 87.7922 16.5846C87.7922 18.5443 88.7722 19.3584 90.0684 19.3584C91.3652 19.3584 92.1792 18.3785 92.1792 16.5846C92.1792 14.7907 91.3652 13.8108 90.0684 13.8108Z" fill="#424242"/>
		<path d="M102.283 20.6558H101.137L100.971 20.49L100.805 19.8418H100.639C100.639 19.8418 99.9913 20.8217 98.1972 20.8217C96.4038 20.8217 95.2578 20.0076 95.2578 18.2137C95.2578 16.254 96.8859 15.6058 99.0113 15.6058C99.9913 15.6058 100.639 15.7716 100.639 15.7716L100.805 15.6058V15.2741C100.805 14.1284 100.157 13.8118 99.0113 13.8118C97.8659 13.8118 97.2178 14.1435 97.2178 14.7917L97.0519 14.9575H95.7551L95.5897 14.7917C95.5897 13.4953 96.5691 12.3496 99.0113 12.3496C101.453 12.3496 102.433 13.4953 102.433 15.9374V20.5051L102.283 20.6558ZM100.82 17.2339L100.654 17.068C100.654 17.068 100.172 16.9022 99.1923 16.9022C97.7301 16.9022 96.9161 17.2339 96.9161 18.1987C96.9161 19.1634 97.5642 19.3444 98.5442 19.3444C99.8404 19.3444 100.82 18.5303 100.82 17.7163V17.2339Z" fill="#424242"/>
		<path d="M108.141 20.806C105.532 20.806 104.07 19.1779 104.07 16.57C104.07 13.962 105.532 12.334 108.141 12.334C109.769 12.334 111.562 13.148 111.728 15.2736L111.562 15.4394H110.266L110.1 15.2736C109.935 14.2937 109.286 13.8113 108.141 13.8113C106.512 13.8113 105.698 14.7912 105.698 16.5851C105.698 18.379 106.512 19.3588 108.141 19.3588C109.286 19.3588 109.935 18.8765 110.1 17.8966L110.266 17.7307H111.562L111.728 17.8966C111.562 19.992 109.769 20.806 108.141 20.806Z" fill="#424242"/>
		<path d="M113.195 16.57C113.195 14.2937 114.341 12.334 117.1 12.334C119.858 12.334 121.004 14.2937 121.004 16.57V17.0524L120.838 17.2182H115.14L114.974 17.3841C114.974 17.7157 115.14 19.3438 117.25 19.3438C118.065 19.3438 118.713 19.1779 119.044 18.3639L119.21 18.1981H120.506L120.672 18.3639C120.506 19.6603 119.376 20.806 117.25 20.806C114.507 20.806 113.195 19.0272 113.195 16.57ZM119.225 15.756C119.225 15.2736 119.059 13.7962 117.115 13.7962C115.17 13.7962 115.004 15.2585 115.004 15.756L115.17 15.9218H119.074L119.225 15.756Z" fill="#424242"/>
		<path d="M17.724 0.5C8.1213 0.5 0.3125 8.3088 0.3125 17.9115C0.3125 27.5142 8.1213 35.323 17.724 35.323C27.3267 35.323 35.1355 27.5293 35.1355 17.9266C35.1355 8.32389 27.3267 0.5 17.724 0.5ZM17.724 33.6799C9.0409 33.6799 1.97074 26.6098 1.97074 17.9266C1.97074 9.24342 9.0409 2.17331 17.724 2.17331C26.4072 2.17331 33.4773 9.24342 33.4773 17.9266C33.4773 18.2884 33.4622 18.6502 33.4471 18.9969H23.7992V11.2032C23.7992 7.85658 21.0706 5.14307 17.7391 5.14307C14.4075 5.14307 11.679 7.8716 11.679 11.2032C11.679 14.5348 14.4075 17.2633 17.7391 17.2633H22.141V18.9969H17.7391C14.3925 18.9969 11.679 21.7254 11.679 25.057C11.679 28.3885 14.4075 31.1171 17.7391 31.1171C21.0706 31.1171 23.7992 28.3885 23.7992 25.057V22.3134H22.141V25.057C22.141 27.4841 20.1661 29.4589 17.7391 29.4589C15.312 29.4589 13.3372 27.4841 13.3372 25.057C13.3372 22.63 15.312 20.6552 17.7391 20.6552H33.2662C31.9396 28.0419 25.4725 33.6799 17.724 33.6799ZM22.1259 11.1881V15.5899H17.724C15.297 15.5899 13.3221 13.6152 13.3221 11.1881C13.3221 8.76103 15.297 6.78624 17.724 6.78624C20.151 6.78624 22.1259 8.76103 22.1259 11.1881Z" fill="#424242"/>
	</g>
</svg>