<svg xmlns="http://www.w3.org/2000/svg" xml:space="preserve" id="Layer_1" x="0" y="0" style="enable-background:new 0 0 512 512" version="1.1" viewBox="0 0 512 512"><style>.st1{fill:#fff}</style><path d="M0 0h512v512H0z" style="fill:#060606;stroke:#000;stroke-miterlimit:10"/><path d="M131 246.4c0 3-.9 5.9-2.5 8.5-1.6 2.5-4.1 4.5-6.8 5.6-2.8 1.1-5.9 1.5-8.8.9-2.9-.6-5.6-2-7.7-4.2-2.1-2.1-3.6-4.8-4.2-7.8-.6-2.9-.2-6 .9-8.8 1.1-2.8 3.1-5.1 5.6-6.8 2.5-1.7 5.5-2.6 8.5-2.6 4 0 7.9 1.6 10.7 4.5 2.6 2.8 4.2 6.7 4.3 10.7z" class="st1"/><path d="M156.3 245.4c-.6-22.1-18.5-39.7-40.5-39.7-22.4 0-40.5 18.2-40.5 40.7 0 2.7.2 5.4.8 8.1 0 .2.1.3.1.5.1.3.2.6.2.9 0 .1 0 .1.1.2 0 .1.1.2.1.2v.2c0 .1.1.2.1.3s0 .1.1.2 0 .2.1.2c0 .2.1.2.1.4.1.3.2.7.2 1 .1.2.2.5.2.7 5.4 16.1 20.5 27.8 38.4 27.8 10.3 0 20.3-4 27.8-11.1v11c0 5.5-1.6 10.9-4.6 15.6-3.1 4.6-7.4 8.2-12.5 10.3-5 2.1-10.7 2.7-16 1.6-5.4-1.1-10.3-3.7-14.2-7.7l-9 9c3.7 3.7 8.2 6.8 13.1 8.8 4.9 2 10.2 3.1 15.5 3.1 20.7 0 37.7-15.6 40.1-35.6.2-1.7.3-3.3.3-5v-38.9c0-.7.1-1.2.1-1.9-.1-.3-.1-.6-.1-.9zm-12.7 1.6c0 .3 0 .7-.1 1.1v26.2l-8.1-8.1c-3.3 3.3-7.2 5.6-11.6 7-4.4 1.3-9 1.5-13.4.7-4.5-.9-8.6-2.8-12.2-5.7-3.6-2.8-6.4-6.6-8.1-10.8-.5-1.2-1-2.5-1.3-3.8v-1.2c0-.2-.1-.3-.1-.6v-.1c0-.1 0-.2-.1-.2-.5-1.7-.7-3.4-.7-5.2 0-6.8 2.4-13.3 6.8-18.3s10.5-8.4 17.1-9.4c6.6-1 13.4.6 19.1 4.2 5.6 3.7 9.8 9.2 11.6 15.7 0 .1.1.2.1.2s0 .2.1.2c0 .1.1.2.1.3.6 2.1.8 4.2.9 6.4v.7c-.1.3-.1.5-.1.7z" class="st1"/><path d="M88.8 253v-.4c0 .2.1.4.2.6v-.1l-.2-.1zm0 .3v.2c.1-.1.1-.1 0-.2zM228.1 274.2v12.7h-31.3c-22.3 0-40.5-18.2-40.5-40.6v-61h12.6v20.4h27.8v12.7h-27.8v27.9c0 3.7.7 7.3 2.1 10.7 1.4 3.4 3.4 6.4 6 9 2.6 2.6 5.6 4.6 9 6 3.3 1.4 7 2.1 10.7 2.1l31.4.1z" class="st1"/><path d="M296.9 246.3v40.6h-12.7v-40.6c0-7.4-2.9-14.5-8.1-19.8-5.2-5.2-12.3-8.1-19.7-8.1s-14.5 2.9-19.7 8.1c-5.2 5.2-8.1 12.4-8.1 19.8v40.6H216V185.3h12.6v31.4c7.5-7.2 17.5-11.2 27.8-11.2 22.3.2 40.5 18.3 40.5 40.8z" class="st1"/><path d="M377.8 246.4c0-4.4-.7-8.6-2-12.7-5.3-16.3-20.5-28.1-38.5-28.1-22.4 0-40.5 18.2-40.5 40.6 0 22.5 18.2 40.6 40.5 40.6 5.3 0 10.6-1.1 15.5-3.1s9.4-5 13.1-8.8l-9-9c-3.9 3.9-8.9 6.6-14.2 7.7-5.4 1.1-11 .6-16-1.5s-9.4-5.7-12.5-10.3c-3.1-4.6-4.7-10-4.7-15.5 0 .1 68.3.1 68.3.1zm-65.3-12.7c2.4-4.6 5.9-8.5 10.3-11.2 4.4-2.7 9.4-4.2 14.6-4.2 5.1 0 10.2 1.5 14.6 4.2s8 6.6 10.3 11.2h-49.8z" class="st1"/><path d="m446.7 217.5-9 9c-3.9-3.9-8.9-6.6-14.2-7.7-5.4-1.1-11-.6-16.1 1.6-5 2.1-9.4 5.7-12.5 10.3-3 4.6-4.7 10-4.7 15.6v40.6h-12.6v-40.6c0-8.1 2.4-15.9 6.8-22.6s10.7-11.9 18.2-15c7.4-3.1 15.6-3.9 23.4-2.3 7.9 1.5 15.1 5.4 20.7 11.1z" class="st1"/></svg>