<?xml version="1.0" ?>
<svg xmlns="http://www.w3.org/2000/svg" viewBox="0 0 238.85 256.16">
	<defs>
		<style>.cls-1{fill:#241f1f}</style>
	</defs>
	<g id="Layer_2" data-name="Layer 2">
		<g id="Layer_1-2" data-name="Layer 1">
			<path d="M 101.37,0.0 A 250.35,250.35 0.0 0,0 55.16,4.66 L 52.8,5.12 C 48.18,6.04 43.39,7.12 38.49,8.42 L 35.25,9.3 A 197.22,197.22 0.0 0,0 0.0,22.66 L 0.0,212.38 C 47.0,252.16 101.37,256.16 101.37,256.16 C 101.37,256.16 155.71,252.16 202.74,212.38 L 202.74,109.23 L 112.36,109.23 L 112.36,157.77 L 145.36,157.77 L 145.36,182.32 A 76.62,76.62 0.0 0,1 101.36,199.95 A 76.62,76.62 0.0 0,1 57.36,182.32 L 57.36,65.0 C 77.82,54.76 101.36,55.17 101.36,55.17 C 101.36,55.17 124.87,54.76 145.36,65.0 L 145.36,79.82 L 202.76,79.82 L 202.76,22.66 A 197.31,197.31 0.0 0,0 167.0,9.16 L 164.8,8.57 A 261.0,261.0 0.0 0,0 102.25,0.0 L 101.37,0.0" class="cls-1"/>
			<path d="M 219.62,107.5 A 25.2,25.2 0.0 0,0 237.16,92.23 L 236.43,92.23 A 25.37,25.37 0.0 0,1 224.92,89.44 A 66.4,66.4 0.0 0,1 236.05,82.64 A 107.09,107.09 0.0 0,0 204.05,64.79 A 25.18,25.18 0.0 0,0 210.5,108.23 L 213.69,108.18 A 25.2,25.2 0.0 0,0 219.62,107.47" style="fill:#e6e7e8"/>
			<path d="M 194.29,84.72 A 25.16,25.16 0.0 0,1 204.05,64.82 L 203.7,64.69 C 203.45,64.62 203.21,64.54 202.96,64.48 L 202.9,64.48 A 3.52,3.52 0.0 0,0 201.75,60.73 A 3.63,3.63 0.0 0,0 199.5,59.95 C 198.83,59.95 191.12,58.01 188.77,57.95 A 40.0,40.0 0.0 0,0 174.85,52.0 A 32.79,32.79 0.0 0,0 169.69,51.21 A 36.06,36.06 0.0 0,0 166.08,51.03 C 164.85,51.03 163.64,51.11 162.44,51.21 C 160.44,51.27 157.53,51.34 154.83,51.4 A 15.51,15.51 0.0 0,0 146.43,46.3 A 13.55,13.55 0.0 0,0 144.31,45.98 L 144.2,45.98 A 5.64,5.64 0.0 0,0 141.5,46.78 A 5.89,5.89 0.0 0,0 138.57,51.26 A 281.0,281.0 0.0 0,1 91.0,45.45 Q 81.0,43.35 71.29,40.54 C 69.55,41.22 67.79,41.89 66.03,42.54 C 63.16,43.54 60.27,44.54 57.37,45.54 L 57.37,182.32 A 75.29,75.29 0.0 0,0 81.32,195.86 A 40.4,40.4 0.0 0,1 80.38,187.29 L 80.38,185.29 A 39.42,39.42 0.0 0,1 81.27,178.64 Q 83.33,174.64 85.14,170.46 Q 86.69,166.99 88.07,163.46 C 88.96,161.18 89.8,158.9 90.6,156.58 C 91.6,153.58 92.6,150.58 93.4,147.52 A 278.35,278.35 0.0 0,1 141.2,124.3 C 143.03,123.6 144.88,122.95 146.73,122.3 C 148.73,121.6 150.73,120.92 152.73,120.3 A 278.48,278.48 0.0 0,1 203.13,109.09 Q 206.72,108.64 210.34,108.27 L 210.5,108.27 A 25.2,25.2 0.0 0,1 194.29,84.73" style="fill:#fff"/>
			<path d="M 101.37,200.0 A 74.82,74.82 0.0 0,0 128.73,192.94 A 142.23,142.23 0.0 0,1 116.9,134.71 Q 104.9,140.52 93.54,147.41 C 91.37,148.73 89.23,150.06 87.11,151.41 A 0.38,0.38 0.0 0,1 87.03,151.48 C 86.17,152.02 85.33,152.57 84.5,153.12 C 82.5,154.46 80.5,155.79 78.5,157.18 L 78.41,157.23 C 75.68,159.0 72.89,160.72 70.09,162.4 L 67.73,189.6 A 76.24,76.24 0.0 0,0 101.37,200.0" style="fill:#e3e3e5"/>
			<path d="M 224.92,89.47 A 25.37,25.37 0.0 0,0 236.43,92.26 L 237.16,92.26 A 24.66,24.66 0.0 0,0 238.29,88.66 A 22.38,22.38 0.0 0,0 238.85,85.07 C 237.92,84.27 237.0,83.47 236.05,82.7 A 66.4,66.4 0.0 0,0 224.92,89.5 M 154.39,59.37 A 6.73,6.73 0.0 0,1 154.24,60.86 A 7.26,7.26 0.0 0,1 153.93,61.99 A 8.13,8.13 0.0 0,1 152.01,62.21 A 8.44,8.44 0.0 0,1 145.36,59.0 A 5.5,5.5 0.0 0,1 144.98,58.44 A 5.79,5.79 0.0 0,1 144.4,57.44 A 5.24,5.24 0.0 0,1 144.12,56.75 A 7.2,7.2 0.0 0,1 143.73,54.83 L 143.73,54.49 A 3.0,3.0 0.0 0,1 145.31,51.88 A 3.0,3.0 0.0 0,1 146.75,51.47 L 146.81,51.47 A 8.31,8.31 0.0 0,1 147.94,51.63 A 8.25,8.25 0.0 0,1 152.78,54.63 A 7.61,7.61 0.0 0,1 154.35,59.27 M 192.35,67.34 A 10.0,10.0 0.0 0,1 199.84,69.56 A 22.7,22.7 0.0 0,0 191.1,71.64 A 8.14,8.14 0.0 0,1 192.35,67.34" class="cls-1"/>
		</g>
	</g>
</svg>