<?xml version="1.0" ?>
<svg xmlns="http://www.w3.org/2000/svg" fill="none" viewBox="0 0 342 342">
	<g>
		<rect width="342" height="342" fill="#00E48A" rx="24"/>
		<path fill="#fff" d="M 238.989,178.252 L 232.176,211.261 L 232.202,211.261 L 224.689,242.714 L 136.97,242.16 C 132.346,241.835 121.873,241.044 111.452,231.093 C 111.452,231.093 110.261,229.88 108.755,227.945 C 108.755,227.945 105.988,224.359 104.175,220.412 C 102.143,215.999 99.665,208.448 106.154,194.233 C 113.063,179.078 127.153,169.602 129.483,171.404 C 131.085,172.652 126.102,178.199 126.602,188.563 C 126.75,191.711 127.075,198.382 132.04,204.009 C 132.732,204.791 137.434,209.969 145.07,211.076 C 146.62,211.305 147.934,211.305 148.871,211.27 L 197.104,211.27 L 203.777,178.991 C 205.843,169.022 215.503,160.855 225.337,160.802 L 225.442,160.802 C 227.412,160.802 229.277,161.128 230.959,161.778 A 12.72,12.72 0.0 0,1 236.16,165.4 C 236.274,165.532 236.397,165.664 236.502,165.796 C 239.103,169.092 239.996,173.505 239.015,178.261 L 238.989,178.252 L 238.989,178.252 M 250.615,117.394 C 249.398,123.135 245.738,128.224 241.0,131.53 C 237.419,134.035 233.207,135.512 229.003,135.468 L 169.806,134.879 C 163.457,135.151 158.229,135.828 154.525,136.417 C 142.992,138.254 129.401,143.09 114.365,153.155 A 66.694,66.694 0.0 0,0 101.852,164.196 C 95.564,171.334 92.893,177.487 91.229,176.907 C 89.259,176.213 90.967,166.429 91.133,165.479 C 97.132,131.89 120.881,114.142 120.881,114.142 C 139.183,100.463 157.134,99.25 164.692,99.18 L 237.471,99.91 C 241.928,99.954 245.755,101.747 248.216,104.92 C 250.773,108.217 251.622,112.638 250.615,117.394 L 250.615,117.394"/>
	</g>
</svg>