<?xml version="1.0" ?>
<svg xmlns="http://www.w3.org/2000/svg" viewBox="0 0 754 196" fill="none">
	<path d="M 278.563,159.812 C 242.554,159.812 218.768,136.026 218.768,99.6863 C 218.768,64.3377 243.71,39.5605 279.884,39.5605 C 296.403,39.5605 311.434,45.6722 322.831,57.4001 L 310.443,69.7886 C 302.679,62.0251 290.952,57.4001 279.719,57.4001 C 255.107,57.4001 238.094,74.4137 238.094,99.6863 C 238.094,125.455 253.951,141.973 278.563,141.973 C 290.126,141.973 299.541,138.999 307.8,132.557 L 307.8,108.771 L 275.425,108.771 L 275.425,91.7577 L 325.64,91.7577 L 325.64,140.816 C 312.755,153.7 297.559,159.812 278.563,159.812" fill="#071542"/>
	<path d="M 373.089,159.151 C 352.276,159.151 338.731,144.285 338.731,120.995 L 338.731,75.9003 L 357.232,75.9003 L 357.232,119.838 C 357.232,134.209 364.5,142.468 376.393,142.468 C 389.937,142.468 399.022,132.557 399.022,118.847 L 399.022,75.9003 L 417.523,75.9003 L 417.523,157.5 L 401.004,157.5 L 400.839,146.928 C 393.902,155.022 384.321,159.151 373.089,159.151" fill="#071542"/>
	<path d="M 472.088,159.812 C 445.163,159.812 427.819,142.798 427.819,116.7 C 427.819,91.4273 444.833,74.2485 470.106,74.2485 C 498.847,74.2485 514.705,93.0791 512.062,123.638 L 446.815,123.638 C 448.302,135.531 458.213,143.129 472.583,143.129 C 481.834,143.129 491.084,139.825 496.039,134.705 L 507.271,145.607 C 499.178,154.361 486.128,159.812 472.088,159.812 M 446.98,109.267 L 494.387,109.267 C 493.066,97.7042 484.146,90.271 470.601,90.271 C 457.717,90.271 449.293,97.2086 446.98,109.267" fill="#071542"/>
	<path d="M 555.856,159.482 C 542.146,159.482 529.923,155.517 519.021,147.424 L 527.61,134.044 C 534.878,139.825 545.615,143.129 556.352,143.129 C 566.758,143.129 572.705,139.825 572.705,133.879 C 572.705,128.097 567.419,125.289 554.865,123.968 C 533.557,121.986 521.499,113.066 521.499,98.8604 C 521.499,83.9942 535.704,73.9181 556.847,73.9181 C 569.236,73.9181 580.138,77.0566 589.223,83.3334 L 581.129,96.5479 C 573.861,91.9228 566.098,89.6103 557.673,89.6103 C 545.946,89.6103 539.669,92.9139 539.669,98.8604 C 539.669,104.146 544.459,106.954 556.352,108.276 C 580.468,110.919 591.04,118.682 591.04,134.044 C 591.04,149.241 577.0,159.482 555.856,159.482" fill="#071542"/>
	<path d="M 641.282,158.656 C 624.433,158.656 614.522,148.91 614.522,129.419 L 614.522,91.5925 L 599.16,91.5925 L 599.16,75.9003 L 614.522,75.9003 L 614.522,54.592 L 632.857,52.6098 L 632.857,75.9003 L 656.313,75.9003 L 656.313,91.5925 L 632.857,91.5925 L 632.857,129.419 C 632.857,137.678 636.656,142.303 644.255,142.303 C 647.558,142.303 651.358,141.312 654.496,139.825 L 659.617,154.692 C 653.34,157.5 648.054,158.656 641.282,158.656" fill="#071542"/>
	<path d="M 682.5,195.161 L 699.018,157.004 L 666.808,75.9003 L 686.629,75.9003 L 700.835,113.066 L 709.259,136.522 L 718.674,113.066 L 734.036,75.9003 L 753.858,75.9003 L 702.652,195.161 L 682.5,195.161" fill="#071542"/>
	<path d="M 99.8931,4.02079 C 93.9679,-0.089 86.1284,-0.14351 80.1465,3.88349 L 77.8863,5.40505 C 77.8839,5.40669 77.8815,5.40832 77.879,5.40996 L 9.49336,51.4474 C 9.49133,51.4488 9.4893,51.4501 9.48727,51.4515 L 7.72715,52.6364 C 2.89656,55.8884 0.0,61.3302 0.0,67.1534 L 0.0,158.295 C 0.0,167.959 7.835,175.795 17.5,175.795 L 119.08,175.795 C 128.745,175.795 136.579,167.96 136.579,158.295 L 136.579,86.9823 C 136.579,81.0299 133.554,75.4856 128.548,72.265 L 99.365,53.4899 C 93.6966,49.8431 86.4376,49.7758 80.7025,53.3169 L 50.1189,72.2008 C 44.956,75.3886 41.8129,81.0234 41.8129,87.0911 L 41.8129,132.65 L 58.8129,132.65 L 58.8129,89.3224 C 58.8129,87.763 59.6202,86.3148 60.9464,85.4948 L 60.9487,85.4934 L 87.4885,69.1064 C 88.9619,68.1967 90.8264,68.2131 92.2834,69.1483 L 117.518,85.3833 C 118.803,86.2118 119.579,87.6362 119.579,89.1652 L 119.579,154.295 C 119.579,156.78 117.565,158.795 115.08,158.795 L 21.5,158.795 C 19.0147,158.795 17.0,156.78 17.0,154.295 L 17.0,69.2825 C 17.0,67.7861 17.7438,66.3876 18.9845,65.5512 L 87.3727,19.5121 C 88.9094,18.4776 90.9229,18.4906 92.4461,19.5444 L 158.658,65.4693 C 158.66,65.471 158.663,65.4726 158.665,65.4743 C 159.873,66.3156 160.593,67.6946 160.593,69.1669 L 160.593,175.795 L 177.593,175.795 L 177.593,67.0733 C 177.593,61.3362 174.781,55.9635 170.067,52.6937 L 168.36,51.5093 C 168.355,51.5064 168.351,51.5034 168.347,51.5005 L 99.8931,4.02079" fill="#071542"/>
</svg>