<?xml version="1.0" ?>
<svg xmlns="http://www.w3.org/2000/svg" viewBox="0 0 200 145" version="1.1">
	<g id="ShipStation-Partner-Logo---Guidance" stroke="none" stroke-width="1" fill="none" fill-rule="evenodd">
		<g id="guidance-vector-logo" transform="translate(30.000000, 58.000000)" fill="#000000" fill-rule="nonzero">
			<g id="Group" transform="translate(41.766667, 0.000000)">
				<g>
					<path d="M87.71,5.83333333 C83.7666667,5.83333333 81.7133333,8.14333333 81.7133333,12.4133333 C81.7133333,14.9566667 82.2966667,16.94 83.51,18.34 C84.7466667,19.74 86.4733333,20.3933333 88.76,20.3933333 C90.23,20.3933333 91.4666667,20.23 92.6333333,19.81 L92.7266667,19.81 L92.7266667,17.2666667 L92.47,17.36 C91.49,17.6866667 90.6733333,17.85 89.9266667,17.85 C88.13,17.85 86.8,17.43 85.9833333,16.6133333 C84.84,15.47 84.91,13.8133333 84.91,12.67 L84.91,12.5066667 L93.0533333,12.5066667 L93.0533333,12.3433333 L93.0533333,11.5966667 C93.0533333,7.88666667 91.1633333,5.83333333 87.71,5.83333333 Z M87.4533333,8.21333333 C89.3433333,8.21333333 89.67,9.61333333 89.67,10.1966667 L84.98,10.1966667 C85.1666667,9.70666667 85.6566667,8.21333333 87.4533333,8.21333333 Z" id="Shape"/>
					<path d="M8.56333333,6.16 L8.56333333,7.56 C8.07333333,6.81333333 7.16333333,5.92666667 5.11,5.92666667 C1.58666667,5.92666667 0.256666667,9.54333333 0.256666667,12.9033333 C0.256666667,16.1933333 1.07333333,20.1366667 5.11,20.1366667 C6.51,20.1366667 7.65333333,19.4833333 8.56333333,18.34 L8.56333333,19.9733333 C8.56333333,21.77 8.14333333,23.7533333 5.20333333,23.7533333 C3.57,23.7533333 3.05666667,23.3333333 2.40333333,22.7733333 C2.31,22.68 1.91333333,22.3533333 1.91333333,22.3533333 L0.186666667,24.57 L0.28,24.6633333 C1.84333333,26.0633333 3.24333333,26.5533333 5.20333333,26.5533333 C9.73,26.5533333 11.8533333,24.6633333 11.8533333,20.8833333 L11.8533333,6.16 L8.56333333,6.16 L8.56333333,6.16 Z M6.18333333,17.2666667 C4.71333333,17.2666667 3.96666667,15.7966667 3.96666667,12.8333333 C3.96666667,10.0333333 4.71333333,8.63333333 6.18333333,8.63333333 C8.4,8.63333333 8.56333333,12.0866667 8.56333333,12.8333333 C8.56333333,14.63 7.91,17.2666667 6.18333333,17.2666667 Z" id="Shape"/>
					<path d="M21.3733333,6.16 L21.3733333,12.25 C21.3733333,14.2333333 20.3933333,17.1033333 18.34,17.1033333 C17.43,17.1033333 17.1033333,16.94 17.1033333,14.07 L17.1033333,6.09 L13.58,6.09 L13.58,15.7033333 C13.58,19.1566667 15.5633333,20.3933333 17.4533333,20.3933333 C19.67,20.3933333 20.8133333,19.0866667 21.3966667,18.0133333 L21.3966667,20.16 L24.92,20.16 L24.92,6.18333333 C24.92,6.16 21.3733333,6.16 21.3733333,6.16 Z" id="Path"/>
					<rect id="Rectangle" x="26.5533333" y="6.16" width="3.52333333" height="13.9766667"/>
					<path d="M39.62,0 L39.62,7.46666667 C39.0366667,6.65 37.9866667,5.83333333 36.33,5.83333333 C33.2966667,5.83333333 31.4766667,8.54 31.4766667,13.16 C31.4766667,17.92 33.11,20.3933333 36.33,20.3933333 C37.8,20.3933333 39.0366667,19.4133333 39.62,18.5966667 L39.62,20.16 L43.1666667,20.16 L43.1666667,0 L39.62,0 L39.62,0 Z M37.3333333,17.5933333 C35.8633333,17.5933333 35.1166667,16.1233333 35.1166667,13.16 C35.1166667,10.9433333 35.3733333,8.72666667 37.3333333,8.72666667 C39.2233333,8.72666667 39.55,11.2 39.55,13.16 C39.62,15.2133333 38.9666667,17.5933333 37.3333333,17.5933333 Z" id="Shape"/>
					<path d="M50.3066667,5.83333333 C46.9466667,5.83333333 44.9633333,7.46666667 44.9633333,10.2666667 L44.9633333,10.43 L48.3233333,10.43 L48.3233333,10.2666667 C48.3233333,9.03 48.9766667,8.37666667 50.2133333,8.37666667 C51.45,8.37666667 51.94,9.03 51.94,10.6866667 L51.94,11.83 L51.94,11.83 C49.8866667,11.9233333 44.2866667,12.0866667 44.2866667,16.59 C44.2866667,18.8066667 46.0133333,20.3 48.4866667,20.3 C50.3766667,20.3 51.45,19.5533333 51.94,18.7366667 L51.94,19.9733333 L55.3,19.9733333 L55.3,10.1033333 C55.4166667,7.30333333 53.69,5.83333333 50.3066667,5.83333333 Z M49.3266667,17.8266667 C48.3466667,17.8266667 47.7633333,17.3366667 47.7633333,16.3566667 C47.7633333,14.7233333 49.98,14.14 51.9633333,14.0466667 C51.9633333,15.54 51.38,17.8266667 49.3266667,17.8266667 Z" id="Shape"/>
					<path d="M64.2833333,5.83333333 C62.0666667,5.83333333 60.9233333,7.14 60.34,8.21333333 L60.34,6.06666667 L56.8166667,6.06666667 L56.8166667,20.0433333 L60.34,20.0433333 L60.34,13.9533333 C60.34,11.97 61.32,9.03 63.3733333,9.03 C64.2833333,9.03 64.61,9.19333333 64.61,12.0633333 L64.61,20.0433333 L68.1333333,20.0433333 L68.1333333,10.5 C68.0633333,7.07 66.1033333,5.83333333 64.2833333,5.83333333 Z" id="Path"/>
					<path d="M80.64,11.1766667 L80.64,11.0133333 C80.64,8.70333333 79.73,5.92666667 75.2966667,5.92666667 C71.26,5.92666667 68.88,8.4 68.88,12.5766667 C68.88,17.5933333 71.5866667,20.4633333 76.37,20.4633333 C77.6766667,20.4633333 79.0066667,20.2066667 80.4066667,19.81 L80.5,19.81 L80.5,17.5 L80.2433333,17.5933333 C79.59,17.85 78.8433333,17.92 78.0266667,17.92 C75.9733333,17.92 74.5733333,17.5 73.6633333,16.6833333 C72.59,15.61 72.59,13.8833333 72.59,12.32 L72.59,12.0633333 C72.59,10.3366667 73.2433333,8.54 75.0633333,8.54 C76.3,8.54 76.9533333,9.35666667 76.9533333,11.0833333 L76.9533333,11.1766667 L80.64,11.1766667 L80.64,11.1766667 Z" id="Path"/>
					<circle id="Oval" cx="28.28" cy="2.14666667" r="2.05333333"/>
				</g>
				<path d="M96.5066667,18.5033333 C97.4166667,18.5033333 98.14,19.25 98.14,20.1366667 C98.14,21.0466667 97.3933333,21.77 96.5066667,21.77 C95.62,21.77 94.8733333,21.0233333 94.8733333,20.1366667 C94.9433333,19.2266667 95.5966667,18.5033333 96.5066667,18.5033333 Z M96.5066667,21.5366667 C97.3233333,21.5366667 97.9066667,20.8833333 97.9066667,20.1366667 C97.9066667,19.32 97.3233333,18.7366667 96.5066667,18.7366667 C95.76,18.7366667 95.2,19.39 95.2,20.1366667 C95.2,20.9533333 95.76,21.5366667 96.5066667,21.5366667 Z M96.0166667,19.4833333 L95.8533333,19.4833333 L95.8533333,19.2266667 L96.67,19.2266667 C96.9966667,19.2266667 97.2533333,19.4833333 97.2533333,19.7166667 C97.2533333,19.9733333 97.09,20.1366667 96.9266667,20.2066667 L96.9266667,20.2066667 C96.9266667,20.2066667 97.02,20.2066667 97.02,20.3 L97.2766667,20.72 C97.2766667,20.8133333 97.37,20.8133333 97.44,20.8133333 L97.5333333,20.8133333 L97.5333333,21.07 L97.37,21.07 C97.2066667,21.07 97.2066667,21.07 97.1133333,20.9066667 L96.8566667,20.4166667 C96.7633333,20.3233333 96.7633333,20.3233333 96.6933333,20.3233333 L96.4366667,20.3233333 L96.4366667,21.07 L96.18,21.07 L96.18,19.5066667 L96.0166667,19.5066667 L96.0166667,19.4833333 Z M96.5766667,20.1366667 C96.74,20.1366667 96.9033333,19.9733333 96.9033333,19.81 C96.9033333,19.6466667 96.74,19.4833333 96.5766667,19.4833333 L96.25,19.4833333 L96.25,20.1366667 L96.5766667,20.1366667 L96.5766667,20.1366667 Z" id="Shape"/>
			</g>
			<g id="Group" transform="translate(0.000000, 0.700000)">
				<path d="M27.0666667,10.57 L23.7066667,8.58666667 L20.1833333,10.8966667 L20.2766667,12.53 L22.9133333,11.13 C23.4033333,14.2566667 22.4233333,17.3833333 21.4433333,19.0166667 C19.81,21.7233333 16.03,24.0333333 13.8833333,24.5233333 C9.84666667,25.5033333 7.72333333,24.6866667 7.23333333,24.36 C6.65,23.87 6.32333333,20.4166667 6.25333333,19.7633333 C6.16,18.5266667 6.16,17.29 6.25333333,16.73 C5.99666667,16.73 5.67,16.73 5.18,16.6366667 C4.36333333,16.5433333 3.71,16.1466667 3.71,16.1466667 C3.61666667,16.0533333 3.54666667,15.9833333 3.54666667,15.89 C3.54666667,15.7966667 3.54666667,15.7266667 3.64,15.6333333 C3.64,15.6333333 6.11333333,12.9966667 6.34666667,10.22 C6.51,8.23666667 6.51,5.78666667 6.51,5.78666667 C6.51,5.69333333 6.60333333,5.53 6.67333333,5.53 C6.67333333,5.53 8.65666667,4.38666667 11.2,3.80333333 C11.62,2.98666667 12.0166667,2.17 12.5066667,1.33 C12.7633333,0.91 13.09,0.583333333 13.3233333,0.186666667 C8.96,0.186666667 5.34333333,2.56666667 5.11,2.73 L3.47666667,3.71 L3.47666667,5.76333333 C3.47666667,5.76333333 3.57,8.07333333 3.31333333,9.8 C3.22,11.0366667 2.89333333,12.18 2.07666667,13.16 C1.26,14.2333333 0.933333333,14.56 0.606666667,14.8866667 C0.116666667,15.54 -0.63,16.2866667 1.02666667,17.43 C1.68,17.92 2.42666667,18.34 3.24333333,18.5733333 C3.24333333,18.7366667 3.24333333,19.6466667 3.24333333,19.88 C3.5,24.57 4.64333333,25.2933333 5.39,25.8766667 C6.86,27.1133333 10.4766667,27.6033333 14.42,26.6233333 C17.3833333,25.8766667 20.6733333,24.15 22.7266667,20.6966667 C24.1966667,18.2233333 25.2,14.6066667 24.78,10.99 L27.09,12.0633333 L27.0666667,10.57 Z" id="Path"/>
				<path d="M34.37,15.0733333 C34.0433333,14.7466667 33.7866667,14.3266667 32.97,13.2766667 C32.1533333,12.2033333 31.8966667,11.06 31.8266667,9.82333333 C31.7333333,8.09666667 31.92,5.78666667 31.92,5.78666667 L32.0833333,3.73333333 C32.0833333,3.73333333 21.98,-2.84666667 15.6333333,1.58666667 C12.5066667,3.80333333 10.8733333,7 10.3833333,10.71 L8.16666667,9.73 L8.16666667,11.3633333 L11.5266667,13.3466667 L15.05,11.0366667 L14.9566667,9.40333333 L12.25,10.8733333 C12.74,7.91 13.8833333,5.85666667 16.1933333,4.22333333 C20.4633333,1.19 28.5133333,5.29666667 29.0966667,5.36666667 C29.0966667,5.46 29.0966667,5.46 29.0966667,5.53 C29.0966667,5.53 28.9333333,8.00333333 29.0033333,9.96333333 C29.1666667,12.8333333 31.4766667,15.47 31.4766667,15.5633333 C31.57,15.6566667 31.57,15.7266667 31.57,15.82 C31.57,15.9133333 31.4766667,15.9833333 31.4066667,16.0766667 C31.4066667,16.0766667 30.7533333,16.4033333 29.9366667,16.4966667 C29.4466667,16.4966667 29.12,16.4966667 28.8633333,16.4966667 C28.8633333,17.08 28.8633333,18.2933333 28.7,19.53 C28.6066667,20.1833333 28.1166667,23.6366667 27.5566667,24.1266667 C27.1366667,24.4533333 25.9233333,25.2 22.54,24.3833333 C22.05,25.0366667 21.4666667,25.69 20.8133333,26.3666667 L20.8133333,26.3666667 C24.6866667,27.51 27.6266667,27.1133333 29.2833333,25.9466667 C30.03,25.3633333 31.08,25.0366667 31.5933333,19.95 C31.5933333,19.7866667 31.6866667,18.8766667 31.6866667,18.6433333 C32.4333333,18.48 32.5966667,18.3866667 33.67,17.8966667 C34.6266667,17.3833333 35.4433333,16.31 34.37,15.0733333 Z" id="Path"/>
			</g>
		</g>
	</g>
</svg>