<?xml version="1.0" ?>
<svg xmlns="http://www.w3.org/2000/svg" viewBox="-84.5 289.4 1000.1 1000.1">
	<g fill="#0a493e">
		<path d="M 292.6,1065.95 C 292.3,1064.75 292.2,1063.55 291.9,1062.55 C 263.8,978.35 235.7,894.05 207.7,809.85 C 185.1,742.65 162.7,675.25 140.3,607.95 C 140.0,606.95 139.6,605.75 139.3,604.35 L 201.0,604.35 C 231.6,696.05 262.2,787.85 292.8,879.75 L 293.4,879.75 C 334.2,757.45 374.9,635.15 415.7,512.85 L 416.4,512.85 C 430.0,553.45 443.4,594.05 457.0,634.75 C 470.6,675.65 484.2,716.45 497.9,757.35 C 511.5,798.15 525.1,838.85 538.7,879.55 L 539.3,879.55 C 539.5,879.55 539.6,879.45 539.6,879.45 C 539.7,879.35 539.9,879.05 539.9,878.85 C 570.4,787.45 600.8,696.25 631.3,604.65 L 693.0,604.65 C 641.8,758.05 590.7,911.35 539.5,1064.75 C 539.2,1064.75 539.1,1064.75 538.8,1064.85 C 531.9,1044.65 525.2,1024.35 518.5,1004.05 C 511.6,983.55 504.9,963.15 498.0,942.55 C 491.3,922.25 484.4,901.75 477.5,881.45 C 470.8,861.15 463.9,840.65 457.2,820.35 C 450.3,799.85 443.5,779.45 436.7,758.95 C 430.0,738.65 423.1,718.35 415.8,698.05 C 415.4,699.35 414.9,700.75 414.5,701.95 C 389.3,777.85 363.9,853.65 338.6,929.55 C 323.7,974.55 308.6,1019.45 293.6,1064.45 C 293.5,1065.05 293.5,1065.65 293.3,1066.05 C 293.0,1065.95 292.7,1065.95 292.6,1065.95 M 915.5,825.85 C 915.2,827.95 914.9,830.05 914.5,832.15 C 910.6,851.15 901.4,867.05 887.2,880.05 C 886.3,880.95 885.3,881.85 884.2,882.75 C 894.2,912.95 904.2,942.95 914.4,973.25 L 852.7,973.25 C 844.9,949.85 837.0,926.25 829.1,902.65 L 754.4,902.65 L 754.4,973.25 L 695.9,973.25 L 695.9,727.15 C 697.2,727.15 698.4,727.05 699.5,727.05 C 742.4,727.05 785.2,726.95 828.1,727.05 C 869.2,727.15 904.0,754.35 913.8,794.25 C 914.5,797.35 915.0,800.55 915.6,803.65 C 915.5,811.05 915.5,818.45 915.5,825.85 M 754.2,844.15 L 826.5,844.15 C 828.1,844.15 829.8,844.05 831.4,843.85 C 850.2,841.95 862.2,822.95 855.9,805.15 C 851.9,793.65 841.0,785.75 828.6,785.55 C 804.7,785.45 780.8,785.55 756.9,785.55 L 754.2,785.55 L 754.2,844.15 L 754.2,844.15 M -84.5,840.85 C -83.8,837.25 -83.2,833.65 -82.4,830.05 C -75.2,788.65 -53.4,757.35 -17.3,736.25 C 4.7,723.55 28.5,718.35 53.8,719.55 C 77.8,720.75 99.9,728.25 120.0,741.55 C 121.3,742.45 122.5,743.35 123.9,744.35 C 117.2,764.55 110.5,784.55 103.6,805.15 C 102.6,803.95 101.7,803.25 100.9,802.35 C 89.7,789.95 76.0,782.15 59.5,779.25 C 22.9,772.65 -12.9,795.25 -22.8,831.05 C -34.3,872.45 -7.4,914.65 35.1,921.75 C 56.3,925.15 75.3,919.85 92.3,906.85 C 93.9,905.65 94.7,904.15 94.7,902.05 C 94.6,896.95 94.7,891.75 94.7,886.65 C 94.7,885.75 94.6,884.75 94.6,883.55 L 47.1,883.55 L 47.1,825.65 C 47.2,825.65 47.2,825.55 47.4,825.35 C 47.5,825.25 47.5,825.25 47.7,825.25 C 48.1,825.15 48.6,825.15 49.0,825.15 L 151.4,825.15 C 151.7,825.15 152.0,825.25 152.6,825.45 C 152.7,826.35 152.9,827.25 152.9,828.15 L 152.9,925.65 C 152.9,927.15 152.9,928.35 151.9,929.65 C 140.5,943.35 127.9,955.45 112.2,964.25 C 88.9,977.35 64.0,983.05 37.2,981.25 C -18.7,977.35 -67.2,937.05 -80.5,880.85 C -81.7,875.95 -82.3,870.65 -83.2,865.75 C -83.5,864.15 -84.1,862.35 -84.5,860.65 L -84.5,840.85 L -84.5,840.85"/>
	</g>
</svg>