<?xml version="1.0" ?>
<!-- Generator: Adobe Illustrator 25.2.3, SVG Export Plug-In . SVG Version: 6.00 Build 0)  -->
<svg xmlns="http://www.w3.org/2000/svg" version="1.2" baseProfile="tiny-ps" id="gymglish_logo" viewBox="0 0 1024 1024" xml:space="preserve">
	<g>
		<path fill="#EA0000" d="M998.27,512.13c0.72,269.03-220.92,491.86-497.01,486.11c-263.83-5.5-481.12-224.03-475.42-497.18   c5.5-263.8,224.09-481.14,497.28-475.28C786.05,31.41,998.83,247.01,998.27,512.13z M616.7,217.25   c-6.03-3.92-11.28-7.91-17.03-10.97c-71.89-38.34-145.02-39.88-216.62-1.69c-59.75,31.87-88.4,84.28-86.19,152.42   c1.22,37.64,14.08,71.24,39.11,99.52c9.54,10.78,20.84,20.01,31.13,29.76c-57.24,33.39-57.78,103.53-9.94,135.79   c-0.9,0.52-1.67,1.03-2.5,1.42c-14.63,6.93-28.43,15.18-40.51,26.07c-29,26.14-40.28,58.31-32.2,96.68   c5.84,27.72,22.75,47.76,45.98,62.78c29.71,19.21,63.17,27.7,97.65,32.83c31.35,4.66,62.9,5.78,94.57,5.05   c29.12-0.67,58.03-3.02,86.57-8.91c27.5-5.67,54-14.13,77.68-29.76c30-19.79,47.61-47.02,49.31-83.53   c1.22-26.17-4.9-50.03-22.6-70.12c-14.18-16.1-32.16-26.52-51.83-34.21c-38.98-15.25-79.98-19.86-121.29-23.09   c-32.44-2.54-64.88-5.31-97.24-8.73c-13.95-1.47-27.6-5.22-39.96-12.38c-8.77-5.08-15.02-12.15-17.3-22.39   c-4.14-18.57,6.59-36.12,23.38-45.02c1.26-0.67,3.41-0.34,4.9,0.19c41.71,14.76,84.25,17.1,127.32,7.68   c39.47-8.63,73.94-26.76,101.6-56.71c46.68-50.55,56.25-127.91,23.27-188.42c-4.52-8.29-9.94-16.08-15.02-24.23   c14.85-6.5,30.63-9.72,46.7-11.14c16.16-1.43,32.41-1.87,48.67-2.75c0-18.74,0-37.49,0-56.44   C696.93,175.85,653.96,187.5,616.7,217.25z"/>
		<path fill="#FEFDFD" d="M616.7,217.25c37.26-29.75,80.23-41.41,127.59-40.31c0,18.94,0,37.7,0,56.44   c-16.26,0.88-32.51,1.32-48.67,2.75c-16.07,1.42-31.85,4.64-46.7,11.14c5.08,8.15,10.51,15.94,15.02,24.23   c32.97,60.5,23.41,137.87-23.27,188.42c-27.66,29.95-62.13,48.07-101.6,56.71c-43.06,9.42-85.6,7.08-127.32-7.68   c-1.5-0.53-3.64-0.86-4.9-0.19c-16.79,8.9-27.52,26.45-23.38,45.02c2.28,10.24,8.53,17.31,17.3,22.39   c12.36,7.16,26.01,10.91,39.96,12.38c32.36,3.42,64.79,6.19,97.24,8.73c41.31,3.23,82.32,7.84,121.29,23.09   c19.68,7.7,37.65,18.12,51.83,34.21c17.7,20.09,23.82,43.95,22.6,70.12c-1.7,36.51-19.31,63.74-49.31,83.53   c-23.68,15.63-50.18,24.08-77.68,29.76c-28.54,5.89-57.46,8.24-86.57,8.91c-31.67,0.73-63.22-0.39-94.57-5.05   c-34.48-5.12-67.94-13.61-97.65-32.83c-23.23-15.02-40.14-35.07-45.98-62.78c-8.08-38.37,3.21-70.54,32.2-96.68   c12.08-10.89,25.88-19.14,40.51-26.07c0.83-0.39,1.6-0.91,2.5-1.42c-47.84-32.26-47.3-102.41,9.94-135.79   c-10.29-9.74-21.58-18.97-31.13-29.76c-25.03-28.28-37.89-61.88-39.11-99.52c-2.21-68.14,26.44-120.54,86.19-152.42   c71.6-38.19,144.73-36.65,216.62,1.69C605.42,209.34,610.67,213.34,616.7,217.25z M489.91,231.94c-4.04,0.28-8.18,0.56-12.32,0.86   c-61.99,4.39-107.6,52.29-108.34,114.36c-0.47,39.12,13.76,71.86,45.47,95.53c30.11,22.47,64.42,28.43,100.87,21.49   c92.54-17.63,117.08-118.01,76.79-179.31C568.35,248.3,532.56,233.35,489.91,231.94z M502.45,793.42c4.63,0,9.26,0.1,13.89-0.02   c26.85-0.64,53.57-2.69,79.73-9.17c18.72-4.64,36.71-11.03,51.18-24.58c19.29-18.07,20.41-48.29,2.4-67.59   c-10.24-10.97-23.61-16.67-37.61-20.93c-30.49-9.27-62-11.91-93.58-13.25c-33.55-1.43-66.9-3.94-99.72-11.42   c-1.5-0.34-3.3-0.48-4.69,0.02c-21.28,7.71-40.2,18.77-52.69,38.49c-15.34,24.21-13.7,54.01,4.1,73.29   c12.22,13.24,28.15,20.11,45.02,25.02C440.51,792.02,471.44,793.31,502.45,793.42z"/>
		<path fill="#EA0000" d="M489.91,231.94c42.66,1.41,78.44,16.36,102.47,52.92c40.29,61.3,15.75,161.68-76.79,179.31   c-36.45,6.94-70.76,0.99-100.87-21.49c-31.71-23.67-45.94-56.41-45.47-95.53c0.75-62.07,46.35-109.97,108.34-114.36   C481.73,232.5,485.87,232.22,489.91,231.94z"/>
		<path fill="#EA0000" d="M502.45,793.42c-31.01-0.11-61.94-1.4-91.99-10.15c-16.87-4.91-32.79-11.78-45.02-25.02   c-17.8-19.28-19.44-49.08-4.1-73.29c12.49-19.72,31.41-30.77,52.69-38.49c1.39-0.5,3.19-0.36,4.69-0.02   c32.82,7.48,66.17,9.99,99.72,11.42c31.58,1.34,63.09,3.99,93.58,13.25c14.01,4.26,27.37,9.96,37.61,20.93   c18.02,19.3,16.9,49.52-2.4,67.59c-14.46,13.55-32.45,19.94-51.18,24.58c-26.17,6.49-52.88,8.53-79.73,9.17   C511.71,793.52,507.08,793.42,502.45,793.42z"/>
	</g>
</svg>