<?xml version="1.0" ?>
<svg xmlns="http://www.w3.org/2000/svg" enable-background="new 0 0 1000 1000" viewBox="0 0 1000 1000">
	<path d="m390.6 322.9c-1.2-4.4-2.2-8.9-3.5-13.2-3.7-12.6-9.3-24.4-18-34.4-10.6-12.1-24-19-39.7-21.3-17.2-2.5-33.9-.6-49.6 7.5-21.5 11.1-34.7 28.9-40.9 51.9-6.7 24.8-6.2 49.7 3.1 73.9 11.3 29.2 32.5 47.6 63 54.7 23.1 5.4 45.8 3.9 67.6-6 20.8-9.5 35.8-25 45.5-45.7 7-14.9 10.3-30.7 12-47 1.3-11.7 1.1-23.5 1.2-35.2.2-19.9-.6-39.9.4-59.8.8-16.8 7-31.1 21.4-40.9 11.6-7.9 24.8-10.2 38.6-9.8 1.3 0 1.8.5 1.8 1.8-.1 1.2 0 2.4 0 3.6 0 46.3-.1 92.7-.2 139 0 2 .7 2.5 2.5 2.5 31.9-.1 63.8.2 95.7-.1 30.5-.3 57.3-24.9 60.8-55.4 1.4-11.6.3-23.3.6-35 .2-7.1.8-14.1 3-20.9 5.9-18.6 19-29.1 37.5-33.6 6-1.5 12.1-1.8 18.3-1.9 2.6 0 3.4.7 3.4 3.4-.1 25.5-.1 50.9-.1 76.4 0 8.4-.6 16.7-2 25-3 17.4-9.4 33.4-19.1 48-15.7 23.4-36.9 39.9-63.5 49.2-12 4.2-24.4 6.7-37.2 6.8-36 .1-72.1.1-108.1 0-3.1 0-4.4 1-5.6 3.8-18.8 44.1-51.4 73-97.4 86.7-21 6.3-42.5 8.3-64.3 6.9-34.4-2.1-65.6-13.1-92.4-35.1-23.4-19.6-39.4-44.2-48.4-73.2-5.9-18.9-8.3-38.4-7.6-58.2 1.1-28.4 8-55.2 23.5-79.3 20.4-31.6 49.2-51.1 86-58.9 13.4-2.8 26.9-3.8 40.5-2.7 22.2 1.8 42.9 7.8 60.1 22.4 19.7 16.7 28.8 38 26.3 64-1.4 13.9-6.4 26.5-13.8 38.3-.3.5-.6.9-.9 1.4 0 .1-.2.2-.5.4z" fill="#a9c641"/>
	<path d="m835.4 267.1c0 19.9.2 39.9 0 59.8-.6 44.3-14.7 83.7-42.9 118-24.5 29.7-55.4 49.8-92.2 60.7-2 .6-2.9.1-3.9-1.7-12.1-24.3-4.5-55.7 17.6-71.5 9.3-6.6 18.5-13.3 26.2-21.8 18.8-20.7 29.9-44.9 32.6-72.8.4-4.6.5-9.2.5-13.8 0-23.2 0-46.3 0-69.5 0-10.7 1.5-21.1 6.7-30.6 8-14.4 20.8-22.1 36.6-25.2 5.3-1 10.6-1.2 15.9-1.3 2.3 0 2.9.7 2.9 3z" fill="#a9c641"/>
	<path d="m685.5 784.7v62.6c0 2.2-.6 3.2-2.9 3.1-9.9-.5-18.8-3.1-25.6-10.9-5.7-6.6-7.3-14.7-7.4-23.1-.1-29.7 0-59.4 0-89.1 0-8.6-.1-17.3 0-25.9.1-5.7 1.1-11.3 3.6-16.6 3.9-8.4 10.6-13.1 19.5-14.4 10.1-1.5 19.1 1.1 26.7 8.1 6.9 6.3 12.1 14 17.8 21.4 21.7 28.2 43.2 56.4 64.9 84.6 3.5 4.6 7 9.2 10.5 13.8.9 1.2 1.6 3.4 3.2 2.9 1.8-.5.9-2.7.9-4.2.1-40.8 0-81.6 0-122.4 0-4.8 0-4.7 4.7-4.5 8 .4 15.2 2.7 21.1 8.1 7.3 6.6 9.8 15.3 9.9 24.8.1 34.7.1 69.3 0 104 0 5.6.3 11.2-.4 16.8-1.4 10.6-5.4 19.6-15.9 24-10.7 4.5-21 3.2-30.5-3.7-6.2-4.5-10.7-10.5-15.3-16.5-27.3-35.6-54.5-71.1-81.8-106.7-.4-.6-.9-1.2-1.4-1.7-.9-.8-1.6-.4-1.8.6-.2.7-.1 1.5-.1 2.2.3 20.9.3 41.8.3 62.7z" fill="#a9c642"/>
	<path d="m483.9 775.6c5 7.6 8.3 15.4 9 24.1 2.3 25.4-14.9 43.2-36.9 48.5-30.9 7.5-58.3.6-80.8-22.5-12.4-12.8-19-28.7-21.7-46.1-2.7-17.8-1.4-35.4 5.2-52.3 12.1-31 34.8-50 67.2-56.8 23.6-5 46.7-2.6 68.5 8.2 25.2 12.5 40.4 33.1 47.1 60.2 2.5 10.2 3.5 20.6 3.4 31.1v77.2c0 1.7.1 3.4-2.4 3.3-7.9-.3-15.5-1.7-22.1-6.4-7.5-5.3-11.2-12.9-11.9-21.8-1.1-14.3-.4-28.7-.4-43 0-10.5-.8-20.9-3.5-31.1-4.5-17.2-13.5-31.2-30-38.8-21.5-9.9-42.8-8.8-62.3 5.4-11.4 8.3-17.4 20.2-19.8 33.9-2.8 15.6-1.5 30.8 6.3 44.9 13.9 25 44.2 28.7 62.8 18.2 10-5.6 15.6-14.8 19.3-25.3 1-3.5 1.9-6.9 3-10.9z" fill="#a9c642"/>
	<path d="m268.9 847.6c-21.3 0-42.6.1-64 0-7.3 0-14.5-.5-21.4-3-17.8-6.3-20.7-25.4-12.9-38 4.4-7.1 10.5-12.5 16.8-17.7 23.3-18.9 46.7-37.7 70.1-56.6 9.9-8 19.9-16 29.8-24 1-.8 2.9-1.5 2.3-3-.5-1.6-2.4-.9-3.7-.9-27.1 0-54.2 0-81.3 0-5.8 0-11.5-.8-17-2.9-10.2-3.9-15.2-11.7-16.1-22.3-.6-7.2-.6-7.2 6.6-7.2h121.3c6.1 0 12.1.6 18 2.2 21 5.8 24 28.2 13 42-6.8 8.5-15.3 15-23.7 21.8-20.8 16.9-41.7 33.7-62.6 50.6-9.1 7.3-18.2 14.6-27.2 21.9-1.2 1-3.4 1.8-2.8 3.7.6 2 2.9 1.1 4.4 1.1 27.9.1 55.9 0 83.8.1 5 0 9.9.5 14.7 1.7 15.1 3.8 20.7 14.9 20.9 28.8 0 1.4-.6 1.8-1.8 1.8-1.7 0-3.3 0-5 0-20.7-.1-41.5-.1-62.2-.1z" fill="#a9c642"/>
	<path d="m578.3 746.6c0-24.6 0-49.3 0-73.9 0-3.6 0-3.7 3.7-3.5 10.8.6 20.4 3.6 27.2 12.7 3.6 4.9 5.2 10.5 5.6 16.5.3 3.5.2 7 .2 10.5v137.3c0 4 0 4-4 3.9-10-.2-19-3.1-25.7-11.1-4.4-5.2-6.5-11.3-6.8-18-.3-8.4-.2-16.9-.2-25.4 0-16.3 0-32.6 0-49z" fill="#a9c641"/>
	<g fill="#a9c642">
		<path d="m368.3 340.6c0 20.5-16.4 37.2-36.9 37-22.1-.2-37.2-18-37-37.5.2-20.1 16.9-36.6 37.2-36.5s36.8 16.7 36.7 37z"/>
		<path d="m588.4 469c-.1-20.2 16.3-36.9 36.6-37 20.4-.1 37.2 16.4 37.3 36.7.1 20.2-16.3 37.1-36.1 37.2-21.4.1-37.7-15.8-37.8-36.9z"/>
		<path d="m798.3 175c-20.6 0-36.8-16.4-36.8-37 0-20.4 16.7-37 37-36.9 20.5.1 37 16.8 36.9 37.4-.1 20.2-16.7 36.5-37.1 36.5z"/>
		<path d="m538.6 505.9c-20.6 0-36.8-16.3-36.8-36.9 0-20.4 16.5-37 36.6-36.9 20.5 0 37.3 16.5 37.3 36.7-.1 20.6-16.6 37.1-37.1 37.1z"/>
		<path d="m595.7 612.1c11.5-1 21.9 8.4 22.8 20.6.9 11.4-8.4 21.9-20.3 22.9s-22.6-8.2-23.3-21c-.7-12.6 9.7-22.4 20.8-22.5z"/>
	</g>
</svg>