<?xml version="1.0" ?>
<svg xmlns="http://www.w3.org/2000/svg" viewBox="0 0 51 51" fill="none">
	<rect x="0.419434" y="0.167236" width="49.8438" height="49.8438" rx="6.64604" fill="#335EEA"/>
	<path fill-rule="evenodd" clip-rule="evenodd" d="M17.7145 16.435C12.9375 16.435 9.06494 20.3094 9.06494 25.0886C9.06494 29.8101 13.2996 33.7422 18.1417 33.7422C20.8244 33.7422 23.1162 32.5108 24.5935 30.5559C25.3466 30.6428 26.0881 30.4375 26.6862 30.0136C27.2402 29.621 27.6712 29.0409 27.8746 28.3318L28.2471 27.1411C28.3089 26.9255 21.9824 24.9166 21.9206 25.1322L21.4549 26.491C21.0914 27.7584 21.5631 29.0618 22.5402 29.801C21.4425 30.9739 19.906 31.6807 18.1424 31.6807C14.4049 31.6807 11.1251 28.6353 11.1251 25.0875C11.1251 21.4461 14.0756 18.4943 17.7153 18.4943C19.6977 18.4943 21.4757 19.37 22.6838 20.7559C22.8106 20.3589 22.9621 19.9282 23.1235 19.5601C23.2657 19.2359 23.414 18.9452 23.5493 18.7004C22.0111 17.2934 19.963 16.435 17.7145 16.435ZM26.2336 18.0048C26.8419 17.7458 27.4305 17.7125 28.1396 17.9086C29.5187 16.9783 31.1803 16.4353 32.9687 16.4353C37.7458 16.4353 41.6183 20.3097 41.6183 25.0889C41.6183 29.8682 37.7458 33.7426 32.9687 33.7426C30.6249 33.7426 28.4988 32.8099 26.941 31.2952C27.1876 31.0825 27.4602 30.821 27.7232 30.5151C27.9478 30.2538 28.1304 29.9779 28.2767 29.7168C29.4718 30.9294 31.1329 31.6811 32.9696 31.6811C36.6092 31.6811 39.5597 28.7292 39.5597 25.0878C39.5597 21.4465 36.6092 18.4946 32.9696 18.4946C31.9415 18.4946 30.9685 18.7301 30.1014 19.1501C30.7617 20.0097 30.8991 21.214 30.3533 22.2405L29.7097 23.3229C29.6119 23.5068 28.5431 23.0127 28.5431 23.0127L27.4958 24.9451C27.3876 25.1486 26.9361 25.2174 26.6782 25.0899C26.4203 24.9624 26.2491 24.5807 26.3573 24.3771L27.4046 22.4447L26.2764 21.8283L25.1872 23.7378C25.079 23.9414 24.6833 24.0123 24.3588 23.8323C24.0344 23.6522 23.9345 23.3119 24.0427 23.1083L25.1318 21.1988C25.1318 21.1988 24.1088 20.6452 24.2066 20.4612L24.8238 19.3005C25.1455 18.6955 25.6511 18.2527 26.2336 18.0048Z" fill="white"/>
	<path d="M24.5935 30.5559L24.617 30.3522L24.5005 30.3387L24.4299 30.4322L24.5935 30.5559ZM26.6862 30.0136L26.8048 30.1809L26.8048 30.1809L26.6862 30.0136ZM27.8746 28.3318L27.6788 28.2706L27.6775 28.2753L27.8746 28.3318ZM28.2471 27.1411L28.4429 27.2024L28.4442 27.1976L28.2471 27.1411ZM21.9206 25.1322L22.1148 25.1988L22.1177 25.1888L21.9206 25.1322ZM21.4549 26.491L21.2606 26.4245L21.2577 26.4345L21.4549 26.491ZM22.5402 29.801L22.6899 29.9411L22.8455 29.7748L22.6639 29.6375L22.5402 29.801ZM22.6838 20.7559L22.5292 20.8907L22.7684 21.165L22.8792 20.8183L22.6838 20.7559ZM23.1235 19.5601L22.9357 19.4777L22.9357 19.4777L23.1235 19.5601ZM23.5493 18.7004L23.7288 18.7996L23.807 18.6582L23.6877 18.5491L23.5493 18.7004ZM28.1396 17.9086L28.0849 18.1062L28.176 18.1314L28.2543 18.0786L28.1396 17.9086ZM26.2336 18.0048L26.1533 17.8161L26.1533 17.8161L26.2336 18.0048ZM26.941 31.2952L26.8071 31.1399L26.6376 31.2862L26.7981 31.4422L26.941 31.2952ZM27.7232 30.5151L27.8787 30.6488L27.8787 30.6488L27.7232 30.5151ZM28.2767 29.7168L28.4227 29.5728L28.2312 29.3785L28.0978 29.6165L28.2767 29.7168ZM30.1014 19.1501L30.012 18.9656L29.7854 19.0754L29.9388 19.275L30.1014 19.1501ZM30.3533 22.2405L30.5297 22.3455L30.5343 22.3368L30.3533 22.2405ZM29.7097 23.3229L29.5333 23.2179L29.5287 23.2266L29.7097 23.3229ZM28.5431 23.0127L28.6292 22.8265L28.4545 22.7458L28.3629 22.9149L28.5431 23.0127ZM27.4958 24.9451L27.3155 24.8473L27.3148 24.8488L27.4958 24.9451ZM26.6782 25.0899L26.7691 24.9061L26.7691 24.9061L26.6782 25.0899ZM26.3573 24.3771L26.177 24.2794L26.1762 24.2808L26.3573 24.3771ZM27.4046 22.4447L27.5849 22.5424L27.6823 22.3627L27.5029 22.2647L27.4046 22.4447ZM26.2764 21.8283L26.3747 21.6484L26.198 21.5518L26.0982 21.7267L26.2764 21.8283ZM25.1872 23.7378L25.009 23.6362L25.0062 23.6415L25.1872 23.7378ZM24.0427 23.1083L23.8645 23.0067L23.8617 23.012L24.0427 23.1083ZM25.1318 21.1988L25.31 21.3004L25.4139 21.1183L25.2294 21.0185L25.1318 21.1988ZM24.2066 20.4612L24.3877 20.5575L24.3877 20.5575L24.2066 20.4612ZM24.8238 19.3005L24.6427 19.2042L24.6427 19.2042L24.8238 19.3005ZM9.27 25.0886C9.27 20.4225 13.0508 16.6401 17.7145 16.6401V16.2299C12.8241 16.2299 8.85988 20.1962 8.85988 25.0886H9.27ZM18.1417 33.5372C13.4019 33.5372 9.27 29.6862 9.27 25.0886H8.85988C8.85988 29.934 13.1974 33.9473 18.1417 33.9473V33.5372ZM24.4299 30.4322C22.9903 32.3374 20.7583 33.5372 18.1417 33.5372V33.9473C20.8905 33.9473 23.2422 32.6842 24.7571 30.6795L24.4299 30.4322ZM24.5699 30.7596C25.3753 30.8525 26.1671 30.6328 26.8048 30.1809L26.5676 29.8463C26.009 30.2422 25.3178 30.4331 24.617 30.3522L24.5699 30.7596ZM26.8048 30.1809C27.3957 29.7622 27.8552 29.1435 28.0717 28.3884L27.6775 28.2753C27.4873 28.9384 27.0847 29.4799 26.5676 29.8463L26.8048 30.1809ZM28.0703 28.3931L28.4428 27.2023L28.0514 27.0799L27.6789 28.2706L28.0703 28.3931ZM28.4442 27.1976C28.4638 27.1293 28.4454 27.0714 28.429 27.0384C28.4131 27.0064 28.3926 26.9837 28.3793 26.9705C28.3524 26.9437 28.3205 26.9221 28.2946 26.9061C28.24 26.8724 28.1653 26.8355 28.0796 26.797C27.9058 26.7189 27.6581 26.6216 27.3641 26.5135C26.7748 26.2968 25.9847 26.0312 25.1923 25.7795C24.3998 25.5279 23.602 25.2893 22.9971 25.1268C22.6954 25.0458 22.4378 24.9826 22.2518 24.9465C22.1601 24.9287 22.0782 24.9159 22.0145 24.9122C21.9845 24.9104 21.9456 24.9098 21.9075 24.9167C21.8888 24.9201 21.8578 24.9275 21.8254 24.9462C21.7911 24.966 21.7434 25.0062 21.7235 25.0757L22.1177 25.1888C22.0997 25.2515 22.057 25.2861 22.0306 25.3013C22.0062 25.3154 21.9861 25.3192 21.9812 25.3201C21.9707 25.3221 21.9708 25.3205 21.9905 25.3216C22.0262 25.3237 22.0865 25.3322 22.1736 25.3491C22.3452 25.3824 22.5916 25.4425 22.8907 25.5229C23.4875 25.6832 24.279 25.9198 25.0682 26.1704C25.8573 26.421 26.6411 26.6846 27.2226 26.8984C27.514 27.0056 27.751 27.0989 27.9115 27.1711C27.993 27.2077 28.0479 27.2359 28.0792 27.2552C28.0963 27.2657 28.0965 27.2676 28.0899 27.2611C28.0867 27.2579 28.0735 27.2446 28.0618 27.2211C28.0496 27.1965 28.0323 27.1462 28.05 27.0846L28.4442 27.1976ZM21.7266 25.0658L21.2609 26.4245L21.6488 26.5575L22.1146 25.1987L21.7266 25.0658ZM21.2577 26.4345C20.8706 27.7845 21.3728 29.1749 22.4164 29.9645L22.6639 29.6375C21.7535 28.9487 21.3122 27.7323 21.652 26.5475L21.2577 26.4345ZM18.1424 31.8858C19.9633 31.8858 21.5538 31.1551 22.6899 29.9411L22.3904 29.6609C21.3312 30.7928 19.8488 31.4757 18.1424 31.4757V31.8858ZM10.9201 25.0875C10.9201 28.7611 14.3046 31.8858 18.1424 31.8858V31.4757C14.5052 31.4757 11.3302 28.5095 11.3302 25.0875H10.9201ZM17.7153 18.2892C13.9623 18.2892 10.9201 21.333 10.9201 25.0875H11.3302C11.3302 21.5593 14.189 18.6993 17.7153 18.6993V18.2892ZM22.8384 20.6212C21.593 19.1925 19.7595 18.2892 17.7153 18.2892V18.6993C19.636 18.6993 21.3584 19.5475 22.5292 20.8907L22.8384 20.6212ZM22.9357 19.4777C22.7702 19.8551 22.6163 20.2934 22.4885 20.6935L22.8792 20.8183C23.005 20.4243 23.1539 20.0012 23.3113 19.6425L22.9357 19.4777ZM23.3699 18.6012C23.232 18.8506 23.0808 19.1469 22.9357 19.4777L23.3113 19.6425C23.4506 19.3249 23.5959 19.0398 23.7288 18.7996L23.3699 18.6012ZM17.7145 16.6401C19.9098 16.6401 21.909 17.4779 23.4109 18.8517L23.6877 18.5491C22.1132 17.1088 20.0162 16.2299 17.7145 16.2299V16.6401ZM28.1942 17.7109C27.4445 17.5036 26.808 17.5374 26.1533 17.8161L26.3139 18.1934C26.8757 17.9543 27.4164 17.9214 28.0849 18.1062L28.1942 17.7109ZM32.9687 16.2303C31.1382 16.2303 29.4369 16.7862 28.0249 17.7386L28.2543 18.0786C29.6006 17.1705 31.2225 16.6404 32.9687 16.6404V16.2303ZM41.8234 25.0889C41.8234 20.1965 37.8591 16.2303 32.9687 16.2303V16.6404C37.6324 16.6404 41.4132 20.4228 41.4132 25.0889H41.8234ZM32.9687 33.9476C37.8591 33.9476 41.8234 29.9814 41.8234 25.0889H41.4132C41.4132 29.755 37.6324 33.5375 32.9687 33.5375V33.9476ZM26.7981 31.4422C28.3926 32.9926 30.5694 33.9476 32.9687 33.9476V33.5375C30.6804 33.5375 28.605 32.6271 27.084 31.1482L26.7981 31.4422ZM27.5677 30.3814C27.3126 30.6782 27.0475 30.9326 26.8071 31.1399L27.075 31.4505C27.3277 31.2325 27.6079 30.9639 27.8787 30.6488L27.5677 30.3814ZM28.0978 29.6165C27.9568 29.8682 27.7817 30.1324 27.5677 30.3814L27.8787 30.6488C28.1138 30.3752 28.3039 30.0876 28.4556 29.817L28.0978 29.6165ZM32.9696 31.476C31.1901 31.476 29.5809 30.748 28.4227 29.5728L28.1306 29.8607C29.3627 31.1108 31.0758 31.8861 32.9696 31.8861V31.476ZM39.3546 25.0878C39.3546 28.616 36.4959 31.476 32.9696 31.476V31.8861C36.7225 31.8861 39.7648 28.8424 39.7648 25.0878H39.3546ZM32.9696 18.6997C36.4959 18.6997 39.3546 21.5597 39.3546 25.0878H39.7648C39.7648 21.3333 36.7225 18.2896 32.9696 18.2896V18.6997ZM30.1908 19.3347C31.0306 18.9279 31.9732 18.6997 32.9696 18.6997V18.2896C31.9099 18.2896 30.9064 18.5324 30.012 18.9656L30.1908 19.3347ZM30.5343 22.3368C31.119 21.2373 30.9718 19.9466 30.264 19.0252L29.9388 19.275C30.5515 20.0727 30.6792 21.1908 30.1722 22.1443L30.5343 22.3368ZM29.886 23.4277L30.5295 22.3454L30.177 22.1357L29.5335 23.218L29.886 23.4277ZM28.5431 23.0127C28.4571 23.1988 28.4571 23.1988 28.4571 23.1988C28.4571 23.1988 28.4572 23.1988 28.4572 23.1988C28.4572 23.1989 28.4573 23.1989 28.4574 23.1989C28.4576 23.199 28.4578 23.1991 28.4581 23.1993C28.4587 23.1995 28.4596 23.1999 28.4607 23.2004C28.4629 23.2014 28.4661 23.2029 28.4702 23.2048C28.4784 23.2085 28.4904 23.2139 28.5055 23.2207C28.5358 23.2343 28.579 23.2533 28.6311 23.2756C28.7349 23.3199 28.8755 23.3776 29.0203 23.4297C29.1629 23.481 29.3187 23.5303 29.45 23.5538C29.5141 23.5654 29.5861 23.5734 29.6532 23.5663C29.7119 23.56 29.8293 23.5348 29.8908 23.4191L29.5287 23.2266C29.5657 23.1569 29.6283 23.1565 29.6099 23.1584C29.5997 23.1595 29.5722 23.1591 29.5224 23.1502C29.4258 23.1328 29.296 23.093 29.1592 23.0438C29.0246 22.9954 28.8919 22.941 28.7922 22.8984C28.7426 22.8772 28.7015 22.8591 28.673 22.8463C28.6587 22.84 28.6476 22.8349 28.6401 22.8315C28.6364 22.8298 28.6336 22.8285 28.6317 22.8277C28.6308 22.8273 28.6301 22.827 28.6297 22.8268C28.6295 22.8267 28.6293 22.8266 28.6293 22.8266C28.6292 22.8265 28.6292 22.8265 28.6292 22.8265C28.6292 22.8265 28.6292 22.8265 28.6292 22.8265C28.6292 22.8265 28.6292 22.8265 28.5431 23.0127ZM27.6761 25.0428L28.7234 23.1104L28.3629 22.9149L27.3155 24.8473L27.6761 25.0428ZM26.5873 25.2737C26.7653 25.3617 26.989 25.3755 27.1772 25.3439C27.2736 25.3276 27.3705 25.2979 27.4557 25.2521C27.5396 25.2071 27.6247 25.1395 27.6769 25.0413L27.3148 24.8488C27.3128 24.8524 27.3009 24.8698 27.2616 24.8909C27.2237 24.9112 27.1713 24.929 27.1091 24.9394C26.9799 24.9612 26.849 24.9456 26.7691 24.9061L26.5873 25.2737ZM26.1762 24.2808C26.0789 24.464 26.1206 24.6841 26.1934 24.8461C26.2694 25.0152 26.4059 25.184 26.5873 25.2737L26.7691 24.9061C26.6926 24.8683 26.6145 24.7825 26.5675 24.6779C26.5173 24.5663 26.5275 24.4938 26.5384 24.4734L26.1762 24.2808ZM27.2243 22.347L26.177 24.2794L26.5376 24.4748L27.5849 22.5424L27.2243 22.347ZM26.1781 22.0083L27.3063 22.6247L27.5029 22.2647L26.3747 21.6484L26.1781 22.0083ZM25.3653 23.8394L26.4545 21.9299L26.0982 21.7267L25.0091 23.6362L25.3653 23.8394ZM24.2593 24.0116C24.4614 24.1237 24.6861 24.1585 24.8816 24.1321C25.069 24.1068 25.2709 24.0171 25.3683 23.8341L25.0062 23.6415C24.9953 23.662 24.9452 23.7097 24.8266 23.7257C24.7161 23.7406 24.5807 23.7209 24.4583 23.653L24.2593 24.0116ZM23.8617 23.012C23.6863 23.3418 23.8668 23.7937 24.2593 24.0116L24.4583 23.653C24.202 23.5107 24.1826 23.282 24.2238 23.2046L23.8617 23.012ZM24.9537 21.0972L23.8646 23.0067L24.2208 23.2099L25.31 21.3004L24.9537 21.0972ZM24.0255 20.365C23.9631 20.4824 24.0099 20.5941 24.04 20.6471C24.0734 20.7059 24.1224 20.759 24.1689 20.803C24.2643 20.8933 24.395 20.9876 24.5193 21.07C24.6456 21.1537 24.7742 21.2309 24.8706 21.2868C24.9189 21.3149 24.9595 21.3378 24.9882 21.3538C25.0025 21.3618 25.0139 21.368 25.0217 21.3723C25.0256 21.3745 25.0287 21.3762 25.0308 21.3773C25.0319 21.3779 25.0327 21.3783 25.0333 21.3786C25.0335 21.3788 25.0338 21.3789 25.0339 21.379C25.034 21.3791 25.0341 21.3791 25.0341 21.3791C25.0342 21.3791 25.0342 21.3792 25.0342 21.3792C25.0342 21.3792 25.0343 21.3792 25.1318 21.1988C25.2294 21.0185 25.2294 21.0185 25.2295 21.0185C25.2295 21.0185 25.2295 21.0185 25.2294 21.0185C25.2294 21.0185 25.2294 21.0185 25.2294 21.0185C25.2293 21.0184 25.2292 21.0183 25.2289 21.0182C25.2285 21.018 25.2279 21.0177 25.227 21.0172C25.2253 21.0162 25.2226 21.0148 25.219 21.0128C25.212 21.0089 25.2014 21.0031 25.188 20.9956C25.161 20.9806 25.1225 20.9588 25.0764 20.9321C24.984 20.8785 24.863 20.8058 24.7458 20.7281C24.6266 20.6491 24.5198 20.5705 24.4509 20.5052C24.4152 20.4714 24.4003 20.4511 24.3965 20.4444C24.3894 20.4319 24.4256 20.4861 24.3877 20.5575L24.0255 20.365ZM24.6427 19.2042L24.0255 20.365L24.3877 20.5575L25.0049 19.3967L24.6427 19.2042ZM26.1533 17.8161C25.5291 18.0818 24.9872 18.5564 24.6427 19.2042L25.0049 19.3967C25.3038 18.8345 25.7732 18.4236 26.3139 18.1934L26.1533 17.8161Z" fill="white"/>
</svg>