<?xml version="1.0" ?>
<svg xmlns="http://www.w3.org/2000/svg" viewBox="0 0 397 48" fill="none">
	<path fill-rule="evenodd" clip-rule="evenodd" d="M23.1701 20.1805C26.573 26.0918 29.9759 31.9984 33.3788 37.9098C39.2211 37.9098 45.0635 37.9098 50.9058 37.9098C57.1943 26.9866 66.3257 10.9279 72.6141 0H66.8192C66.8192 0 58.7937 13.2458 54.9827 19.8663L54.8023 20.1757H23.1701V20.1805ZM51.6462 25.6635L47.7497 32.4315H36.5301L32.6337 25.6635H51.6462ZM5.74269 10.0902C20.0425 10.0902 34.3375 10.0902 48.6372 10.0902H48.9979L51.651 5.48299H50.5736C34.7456 5.48299 18.9699 5.48299 3.14187 5.48299L0 0C18.4241 0 42.6905 0 61.1145 0C58.1245 5.1879 55.1393 10.3806 52.1493 15.5732C40.1941 15.5732 28.2388 15.5732 16.2836 15.5732H15.2063L15.7426 16.5061C20.6737 25.0733 25.6095 33.6405 30.5407 42.2076L30.721 42.517H31.0817C36.8054 42.517 42.5291 42.517 48.2528 42.517L45.0967 48C39.2543 48 33.412 48 27.5649 48C20.2892 35.3634 13.0183 22.7268 5.74269 10.0902Z" fill="#26358c"/>
	<path d="M82.1069 37.5531L100.745 11.8134H82.6005V4.87402H110.991V10.4474L92.4628 36.13H112.078V43.0741H82.1069V37.5531Z" fill="#26358c"/>
	<path d="M148.257 4.87402H156.32L172.234 29.5761V4.87402H180.516V43.0741H172.504L156.539 18.3721V43.0741H148.257V4.87402Z" fill="#26358c"/>
	<path d="M233.59 4.87402H241.71L256.912 43.0741H248.464L245.194 34.7687H230.102L226.832 43.0741H218.332L233.59 4.87402ZM243.016 28.153L237.619 13.6173L232.223 28.153H243.016Z" fill="#26358c"/>
	<path d="M290.353 4.87402H298.473L313.675 43.0741H305.227L301.957 34.7687H286.864L283.594 43.0741H275.094L290.353 4.87402ZM299.778 28.153L294.382 13.6173L288.986 28.153H299.778Z" fill="#26358c"/>
	<path d="M250.767 4.87402V11.8134H261.882V43.0741H270.164V15.5354L266.452 11.8134H270.164H270.168H281.279V4.87402H250.767Z" fill="#26358c"/>
	<path d="M216.628 13.7268C214.958 10.8853 212.575 8.7007 209.49 7.16812C206.401 5.63555 202.789 4.87402 198.646 4.87402H185.404V43.0741H198.209C204.782 43.0741 209.918 41.4464 213.605 38.1813C217.293 34.921 219.134 30.1186 219.134 23.7837C219.134 19.9237 218.299 16.5682 216.628 13.7268ZM207.582 32.8554C205.513 35.04 202.533 36.1347 198.646 36.1347H193.686V15.5402L189.97 11.8134H193.686H199.191C201.55 11.8134 203.605 12.3227 205.347 13.3413C207.089 14.3598 208.418 15.7829 209.324 17.6058C210.231 19.4287 210.686 21.4848 210.686 23.7789C210.691 27.6437 209.652 30.6708 207.582 32.8554Z" fill="#26358c"/>
	<path d="M143.373 4.87402H116.942V43.0741H143.373V36.1347H125.224V27.3343H138.575V20.6662H125.224V15.5354L121.518 11.8134H125.224H125.229H143.373V4.87402Z" fill="#26358c"/>
	<path d="M328.443 29.2762C327.356 29.2762 326.407 29.0192 325.586 28.5099C324.765 28.0007 324.129 27.282 323.669 26.3586C323.208 25.4353 322.98 24.3596 322.98 23.1364C322.98 21.9132 323.208 20.8375 323.669 19.9237C324.124 19.0051 324.765 18.2912 325.586 17.7819C326.407 17.2726 327.356 17.0156 328.443 17.0156C329.63 17.0156 330.66 17.3107 331.528 17.9009C332.397 18.4911 333.028 19.3097 333.412 20.3521L332.022 20.8804C331.727 20.1093 331.276 19.5096 330.664 19.086C330.052 18.6624 329.312 18.4482 328.443 18.4482C327.641 18.4482 326.939 18.6434 326.341 19.0289C325.743 19.4144 325.282 19.957 324.96 20.6519C324.637 21.3516 324.475 22.1797 324.475 23.1459C324.475 24.1073 324.637 24.945 324.96 25.6447C325.282 26.3491 325.743 26.8917 326.341 27.2772C326.939 27.6627 327.641 27.8579 328.443 27.8579C329.312 27.8579 330.057 27.6437 330.664 27.2106C331.276 26.7774 331.727 26.1825 332.022 25.4257L333.412 25.935C333.028 26.9678 332.401 27.7817 331.528 28.3862C330.66 28.9716 329.63 29.2762 328.443 29.2762Z" fill="#26358c"/>
	<path d="M338.197 29.0718V24.4979L334.025 17.2158H335.72L338.89 22.9987L342.132 17.2158H343.826L339.687 24.4979V29.0718H338.197Z" fill="#26358c"/>
	<path d="M345.116 29.0718V17.2158H348.898C350.018 17.2158 350.896 17.4776 351.537 17.9964C352.178 18.5199 352.496 19.2434 352.496 20.1715C352.496 20.7617 352.368 21.2757 352.107 21.7183C351.846 22.161 351.48 22.4942 351.006 22.7226C351.694 22.9178 352.221 23.2652 352.576 23.7792C352.932 24.2885 353.113 24.9358 353.113 25.7164C353.113 26.7825 352.781 27.6059 352.121 28.1913C351.461 28.7768 350.521 29.0671 349.316 29.0671H345.116V29.0718ZM346.606 22.2657H349.136C349.7 22.2657 350.156 22.0991 350.502 21.7659C350.849 21.4328 351.02 20.9759 351.02 20.3952C351.02 19.8288 350.835 19.3862 350.46 19.0673C350.085 18.7484 349.568 18.5913 348.898 18.5913H346.611V22.2657H346.606ZM346.606 27.6916H349.202C350.82 27.6916 351.627 27.011 351.627 25.6497C351.627 25.0024 351.442 24.5027 351.077 24.1457C350.711 23.7888 350.194 23.6079 349.525 23.6079H346.606V27.6916Z" fill="#26358c"/>
	<path d="M355.054 29.0718V17.2158H362.837V18.558H356.544V22.3514H362.258V23.6936H356.544V27.7249H362.837V29.0671H355.054V29.0718Z" fill="#26358c"/>
	<path d="M364.722 29.0718V17.2158H368.248C369.154 17.2158 369.895 17.3491 370.469 17.6156C371.043 17.8822 371.475 18.2629 371.76 18.7627C372.045 19.2624 372.182 19.8574 372.182 20.5475C372.182 21.5327 371.898 22.3133 371.333 22.8844C370.768 23.4556 369.947 23.7935 368.874 23.8982C368.704 23.9077 368.5 23.9173 368.262 23.9173C368.025 23.9173 367.792 23.9173 367.569 23.9173H366.212V29.0718H364.722ZM366.212 22.5893H368.096C368.618 22.5893 369.069 22.5227 369.453 22.3847C369.838 22.2467 370.142 22.0325 370.36 21.7374C370.578 21.4423 370.692 21.052 370.692 20.5618C370.692 20.062 370.583 19.667 370.36 19.3814C370.142 19.0911 369.833 18.8817 369.444 18.7532C369.055 18.6246 368.604 18.558 368.096 18.558H366.212V22.5893ZM371.338 29.0718L368.267 23.7316L369.795 23.546L373.051 29.0718H371.338Z" fill="#26358c"/>
	<path d="M327.086 43.3506C325.9 43.3506 324.927 43.0364 324.167 42.4129C323.408 41.7894 322.948 40.9613 322.777 39.9284L324.234 39.5715C324.357 40.3663 324.685 40.9708 325.212 41.3849C325.738 41.7989 326.379 42.0036 327.138 42.0036C327.58 42.0036 327.974 41.9179 328.325 41.7466C328.676 41.5752 328.951 41.3373 329.156 41.0231C329.36 40.709 329.459 40.3568 329.459 39.9618C329.459 39.5429 329.345 39.1955 329.122 38.9242C328.894 38.6529 328.581 38.4149 328.183 38.2102C327.779 38.0056 327.314 37.8009 326.782 37.5963C326.128 37.3488 325.553 37.0727 325.06 36.7776C324.566 36.4825 324.186 36.1303 323.916 35.7162C323.645 35.3022 323.508 34.7929 323.508 34.1932C323.508 33.5935 323.655 33.0604 323.949 32.594C324.243 32.1275 324.656 31.7611 325.188 31.4945C325.719 31.228 326.336 31.0947 327.039 31.0947C327.784 31.0947 328.448 31.2661 329.023 31.604C329.602 31.9419 330.062 32.4512 330.413 33.1175L329.227 33.8505C328.966 33.3841 328.648 33.0319 328.278 32.7891C327.903 32.5464 327.475 32.4226 326.987 32.4226C326.602 32.4226 326.26 32.4988 325.961 32.6416C325.662 32.7891 325.425 32.9938 325.259 33.2556C325.088 33.5173 325.003 33.8172 325.003 34.1551C325.003 34.5168 325.102 34.8262 325.306 35.0832C325.511 35.3402 325.805 35.5639 326.189 35.7543C326.574 35.9495 327.039 36.1446 327.58 36.3493C328.268 36.611 328.861 36.8919 329.36 37.2012C329.858 37.5058 330.242 37.8723 330.522 38.3007C330.798 38.7243 330.94 39.2526 330.94 39.8761C330.94 40.5472 330.774 41.1421 330.446 41.6609C330.119 42.1845 329.668 42.5938 329.089 42.8936C328.51 43.203 327.841 43.3506 327.086 43.3506Z" fill="#26358c"/>
	<path d="M332.786 43.1646V31.3086H340.57V32.6508H334.276V36.4441H339.991V37.7863H334.276V41.8177H340.57V43.1599H332.786V43.1646Z" fill="#26358c"/>
	<path d="M347.424 43.369C346.337 43.369 345.388 43.112 344.566 42.6027C343.745 42.0934 343.109 41.3747 342.649 40.4514C342.189 39.528 341.961 38.4524 341.961 37.2292C341.961 36.006 342.189 34.9303 342.649 34.0165C343.109 33.1026 343.745 32.384 344.566 31.8747C345.388 31.3654 346.337 31.1084 347.424 31.1084C348.61 31.1084 349.64 31.4035 350.509 31.9937C351.377 32.5839 352.008 33.4025 352.393 34.4448L351.002 34.9731C350.708 34.2021 350.257 33.6024 349.645 33.1788C349.033 32.7552 348.292 32.541 347.424 32.541C346.622 32.541 345.919 32.7362 345.321 33.1217C344.723 33.5072 344.263 34.0498 343.94 34.7447C343.617 35.4396 343.456 36.2725 343.456 37.2387C343.456 38.2001 343.617 39.0378 343.94 39.7374C344.263 40.4419 344.723 40.9845 345.321 41.37C345.919 41.7555 346.622 41.9506 347.424 41.9506C348.292 41.9506 349.033 41.7365 349.645 41.3033C350.257 40.8702 350.708 40.2753 351.002 39.5185L352.393 40.0278C352.008 41.0606 351.382 41.8745 350.509 42.4789C349.64 43.0691 348.61 43.369 347.424 43.369Z" fill="#26358c"/>
	<path d="M358.344 43.3693C356.944 43.3693 355.871 42.9885 355.131 42.2317C354.391 41.4702 354.021 40.3565 354.021 38.881V31.3134H355.516V38.7144C355.516 39.4284 355.61 40.0281 355.796 40.5183C355.981 41.0038 356.284 41.375 356.702 41.6225C357.12 41.87 357.67 41.9985 358.349 41.9985C359.028 41.9985 359.578 41.87 360.001 41.6178C360.423 41.3608 360.731 40.9895 360.926 40.504C361.116 40.0186 361.215 39.4141 361.215 38.7002V31.3086H362.691V38.7906C362.691 40.2899 362.321 41.4226 361.581 42.2032C360.836 42.979 359.758 43.3693 358.344 43.3693Z" fill="#26358c"/>
	<path d="M365.011 43.1646V31.3086H368.538C369.444 31.3086 370.184 31.4419 370.759 31.7084C371.333 31.9749 371.765 32.3557 372.05 32.8554C372.334 33.3552 372.472 33.9501 372.472 34.6403C372.472 35.6255 372.187 36.4061 371.622 36.9772C371.058 37.5484 370.237 37.8863 369.164 37.991C368.993 38.0005 368.789 38.01 368.552 38.01C368.314 38.01 368.082 38.01 367.859 38.01H366.501V43.1646H365.011ZM366.501 36.6821H368.386C368.908 36.6821 369.359 36.6155 369.743 36.4775C370.127 36.3394 370.431 36.1253 370.649 35.8302C370.868 35.5351 370.982 35.1448 370.982 34.6546C370.982 34.1548 370.873 33.7598 370.649 33.4742C370.431 33.1839 370.123 32.9744 369.733 32.8459C369.344 32.7174 368.893 32.6508 368.386 32.6508H366.501V36.6821ZM371.622 43.1646L368.552 37.8244L370.08 37.6388L373.336 43.1646H371.622Z" fill="#26358c"/>
	<path d="M374.897 43.1646V31.3086H376.392V43.1646H374.897Z" fill="#26358c"/>
	<path d="M381.699 43.1646V32.6508H377.731V31.3086H387.161V32.6508H383.208V43.1646H381.699Z" fill="#26358c"/>
	<path d="M391.556 43.1646V38.5907L387.384 31.3086H389.079L392.249 37.0914L395.49 31.3086H397.185L393.046 38.5907V43.1646H391.556Z" fill="#26358c"/>
</svg>