<?xml version="1.0" ?>
<svg xmlns="http://www.w3.org/2000/svg" class="h-6 w-6" viewBox="0 0 24 24" fill="none">
	<mask id="mask0_89_20568" maskUnits="userSpaceOnUse" x="0" y="0" width="24" height="24" mask-type="luminance">
		<path d="M12 24C18.6274 24 24 18.6274 24 12C24 5.37258 18.6274 0 12 0C5.37258 0 0 5.37258 0 12C0 18.6274 5.37258 24 12 24Z" fill="white"/>
	</mask>
	<g mask="url(#mask0_89_20568)">
		<path d="M17.7132 0.057251L21.9365 4.219L-1.57154 20.0716L-5.79395 15.909L17.7132 0.057251Z" fill="#063737"/>
		<path d="M-12.7425 14.5476L-15.7458 11.588L18.79 -4.36819L21.7925 -1.40779L-12.7425 14.5476Z" fill="#063737"/>
		<path d="M6.28284 23.9427L2.06042 19.781L25.5676 3.92839L29.79 8.09099L6.28284 23.9427Z" fill="#063737"/>
		<path d="M36.7389 9.45244L39.7423 12.4128L5.20651 28.3682L2.20398 25.4078L36.7389 9.45244Z" fill="#063737"/>
	</g>
</svg>