<?xml version="1.0" ?>
<svg xmlns="http://www.w3.org/2000/svg" viewBox="0 0 1452.31 977.86" enable-background="new 0 0 1452.31 977.86">
	<style type="text/css">.st0,.st3{fill:#fff}.st3,.st6{opacity:.6}.st13{fill:#f7951d}.st14{fill:#faab18}.st15{fill:#f6bc56}</style>
	<g>
		<g>
			<path d="M734.09 138.91V18.37l291.35 105.12v120.93L734.09 138.91z" class="st13"/>
		</g>
		<g>
			<path d="m734.09 230.31 291.35-106.83v122.26L734.09 358.79V230.31z" class="st14"/>
		</g>
		<g>
			<path d="M404.82 479.8V357.55L696.16 244.5v128.48L404.82 479.8" class="st14"/>
		</g>
		<g>
			<path d="M696.16 464.37v120.55L404.82 479.8V358.87l291.34 105.5z" class="st15"/>
		</g>
		<path d="m578.6 64.87 29.59-11.63-.03 121-29.57 11.62V64.87zM514.98 89.87l19.29-7.58v120.99l-19.29 7.58V89.87zM462.01 110.69l9.95-3.91-.11 121.04-9.94 3.91.1-121.04zM656.1 34.41l40.06-15.74v120.99l-39.93 15.69-.13-120.94zM411.55 251.51l-5.45 2.14V132.64l5.45-2.16v121.03z" class="st13"/>
		<path d="m849.99 540.36-29.59 11.63.03-121L850 419.37v120.99zM917.06 513.29l-19.29 7.58V399.88l19.29-7.58v120.99zM971.58 491.54l-9.95 3.91.11-121.04 9.94-3.91-.1 121.04zM774.49 569.82l-40.06 15.74V464.57l39.93-15.69.13 120.94zM1019.04 352.72l5.45-2.14V471.6l-5.45 2.16V352.72z" class="st15"/>
	</g>
	<path d="m38.22 925.73 143.41-182.35H42.97V720.9h172.86v16.78L72.09 920.03h143.73v22.48H38.22v-16.78zM433.34 788.15c-4.73-13.9-11.57-26.19-20.32-36.53-8.77-10.35-19.49-18.58-31.85-24.48-12.38-5.9-26.52-8.89-42.02-8.89-14.95 0-28.94 3.06-41.59 9.1-12.64 6.03-23.77 14.33-33.1 24.66-9.32 10.33-16.74 22.61-22.04 36.52-5.3 13.89-7.99 28.93-7.99 44.69v.85c0 17.2 2.91 33.03 8.66 47.07 5.75 14.06 13.7 26.28 23.62 36.32 9.92 10.05 21.6 17.91 34.69 23.37 13.1 5.45 27.03 8.22 41.41 8.22 20.96 0 38.83-4.01 53.1-11.92 14.18-7.86 27.03-17.93 38.19-29.94l.98-1.05-16.61-14.66-.93.98c-8.99 9.53-19.46 17.63-31.13 24.07-11.57 6.4-25.96 9.65-42.77 9.65-10.62 0-20.89-1.9-30.53-5.64-9.63-3.74-18.33-9.29-25.87-16.49-7.55-7.22-13.93-16.09-18.97-26.37-4.85-9.88-7.79-21.35-8.75-34.09h180.29l.19-1.17c.3-1.82.45-3.23.45-4.28v-4.48c.01-16.32-2.38-31.62-7.11-45.51zm-94.82-47.89c12.28 0 23.16 2.32 32.34 6.9 9.19 4.58 17.03 10.78 23.3 18.42 6.29 7.67 11.25 16.58 14.75 26.48 3.35 9.49 5.51 19.56 6.44 29.94h-155.8c.95-11.17 3.61-21.78 7.9-31.55 4.47-10.18 10.22-19.1 17.08-26.51a75.106 75.106 0 0 1 24.17-17.4c9.2-4.17 19.23-6.28 29.82-6.28zM562.45 945.68c-17.73 0-33.93-2.9-48.6-8.71-14.67-5.8-28.65-14.72-41.95-26.75l15.51-18.36c11.6 10.56 23.32 18.42 35.14 23.59 11.82 5.17 25.43 7.76 40.84 7.76 14.98 0 26.96-3.53 35.93-10.61 8.97-7.07 13.46-16.09 13.46-27.07v-.63c0-5.07-.85-9.66-2.54-13.77-1.69-4.11-4.65-7.86-8.89-11.24-4.23-3.37-10.1-6.44-17.61-9.18-7.51-2.74-17.08-5.38-28.72-7.91-12.69-2.74-23.75-5.91-33.16-9.5-9.42-3.59-17.2-7.91-23.33-12.98-6.13-5.06-10.68-10.97-13.64-17.73-2.96-6.75-4.44-14.67-4.44-23.74v-.63c0-8.65 1.79-16.67 5.38-24.06 3.59-7.39 8.65-13.77 15.2-19.15 6.54-5.38 14.25-9.6 23.11-12.66 8.87-3.06 18.57-4.59 29.13-4.59 16.25 0 30.44 2.27 42.58 6.81 12.13 4.54 23.9 11.35 35.3 20.42l-14.56 19.31c-10.34-8.44-20.74-14.56-31.18-18.36-10.45-3.8-21.37-5.7-32.77-5.7-14.56 0-26.07 3.43-34.51 10.29-8.44 6.86-12.66 15.36-12.66 25.49v.63c0 5.28.84 9.97 2.53 14.09 1.69 4.12 4.75 7.91 9.18 11.4 4.43 3.48 10.55 6.65 18.36 9.5 7.81 2.85 17.83 5.54 30.08 8.07 24.69 5.49 42.9 13.09 54.61 22.79 11.71 9.71 17.57 23.01 17.57 39.89v.63c0 9.5-1.88 18.1-5.63 25.8-3.75 7.71-8.92 14.3-15.51 19.79-6.59 5.49-14.53 9.71-23.81 12.66-9.3 2.93-19.43 4.41-30.4 4.41zM740.34 744.01h-74.4V720.9h173.81v23.11h-74.4v198.5h-25.01v-198.5zM948.76 845.96 864.12 720.9h30.39l70.88 105.35 77.46-105.35h29.13L909.87 942.51h-29.58l68.47-96.55z" class="st0"/>
	<circle cx="1043.4" cy="933.22" r="14.84" class="st3"/>
	<g class="st6">
		<path d="M1125.31 721.51h24.87V941.9h-24.87V721.51zM1317.04 945.68c-16.79 0-32.06-3.05-45.81-9.13-13.75-6.08-25.56-14.33-35.42-24.72-9.87-10.39-17.47-22.46-22.83-36.21-5.35-13.74-8.03-28.18-8.03-43.29v-.63c0-15.11 2.73-29.59 8.19-43.45 5.46-13.85 13.12-25.97 22.98-36.36 9.86-10.39 21.72-18.68 35.58-24.87 13.85-6.19 29.17-9.29 45.97-9.29 16.79 0 32.06 3.05 45.81 9.13 13.74 6.09 25.55 14.32 35.42 24.71 9.86 10.39 17.47 22.46 22.83 36.21 5.35 13.75 8.03 28.18 8.03 43.29.21.21.21.42 0 .63 0 15.11-2.73 29.59-8.19 43.45-5.46 13.85-13.12 25.97-22.98 36.36-9.87 10.39-21.72 18.68-35.58 24.87-13.85 6.2-29.18 9.3-45.97 9.3zm.63-22.99c12.59 0 24.19-2.36 34.79-7.08 10.6-4.72 19.68-11.18 27.23-19.36 7.56-8.19 13.48-17.73 17.79-28.65 4.3-10.91 6.45-22.67 6.45-35.26v-.63c0-12.59-2.15-24.4-6.45-35.42-4.31-11.02-10.34-20.62-18.1-28.81-7.77-8.19-16.95-14.69-27.55-19.52-10.6-4.83-22.2-7.24-34.79-7.24s-24.19 2.36-34.79 7.08c-10.6 4.72-19.68 11.18-27.23 19.36-7.56 8.19-13.49 17.74-17.79 28.65-4.3 10.92-6.45 22.67-6.45 35.26v.63c0 12.59 2.15 24.4 6.45 35.42 4.3 11.02 10.34 20.62 18.1 28.81 7.76 8.19 16.95 14.69 27.55 19.52 10.6 4.83 22.2 7.24 34.79 7.24z" class="st0"/>
	</g>
</svg>