<?xml version="1.0" encoding="UTF-8"?>
<svg id="Livello_1" xmlns="http://www.w3.org/2000/svg" viewBox="0 0 124.72 18.08"><defs><style>.cls-1{fill:#003764;}.cls-2{fill:#496d91;}</style></defs><polygon class="cls-1" points="10.52 5.18 4.85 15.07 10.19 15.07 10.19 17.75 0 17.75 5.69 7.86 .33 7.86 .33 5.18 10.52 5.18"/><path class="cls-1" d="M23.99,11.78v.6H13.85c.15,.92,.55,1.64,1.2,2.15,.65,.51,1.45,.77,2.4,.77,1.18,0,2.19-.41,3.04-1.23l2.66,1.25c-1.29,1.84-3.19,2.76-5.68,2.76-1.93,0-3.53-.61-4.79-1.82-1.26-1.22-1.89-2.79-1.89-4.72s.61-3.49,1.83-4.77c1.22-1.28,2.78-1.91,4.68-1.91s3.59,.63,4.83,1.9c1.28,1.31,1.9,2.99,1.86,5.03m-3.19-1.9c-.21-.72-.63-1.3-1.26-1.72-.62-.42-1.32-.63-2.1-.63-.87,0-1.64,.24-2.3,.73-.41,.3-.8,.84-1.15,1.61h6.81Z"/><polygon class="cls-1" points="30.98 7.91 29.12 7.91 29.12 17.75 25.96 17.75 25.96 7.91 24.35 7.91 24.35 5.18 25.96 5.18 25.96 .54 29.12 .54 29.12 5.18 30.98 5.18 30.98 7.91"/><path class="cls-1" d="M44.19,17.75h-3.16v-1.33c-1.16,1.1-2.45,1.65-3.87,1.65-1.74,0-3.19-.67-4.34-2.01-1.1-1.29-1.65-2.81-1.65-4.58s.52-3.35,1.57-4.61c1.12-1.35,2.56-2.02,4.33-2.02,1.51,0,2.84,.57,3.96,1.71v-1.39h3.16v12.57Zm-3.01-6.31c0-1.05-.31-1.92-.95-2.62-.63-.69-1.47-1.04-2.51-1.04s-1.85,.36-2.49,1.08c-.61,.69-.91,1.55-.91,2.59s.31,1.9,.92,2.6c.64,.74,1.47,1.12,2.49,1.12s1.89-.36,2.53-1.09c.61-.7,.91-1.58,.91-2.64"/><path class="cls-2" d="M53.71,14.37c0,1.06-.37,1.95-1.1,2.65-.73,.7-1.64,1.05-2.7,1.05-1.55,0-2.78-.59-3.71-1.78l1.02-1.15c.82,.92,1.7,1.39,2.62,1.39,.6,0,1.15-.2,1.62-.59,.48-.39,.71-.9,.71-1.49s-.29-1.14-.84-1.6c-.28-.23-.83-.55-1.64-.97-.93-.48-1.61-.95-2.04-1.42-.58-.63-.87-1.39-.87-2.27,0-.98,.33-1.78,.99-2.4,.66-.62,1.48-.93,2.46-.93,1.16,0,2.32,.57,3.49,1.7l-1.04,1.07c-.86-.83-1.7-1.25-2.53-1.25-.5,0-.94,.16-1.32,.49-.38,.33-.58,.74-.58,1.23,0,.83,.8,1.66,2.4,2.48,.99,.51,1.7,1,2.15,1.46,.62,.65,.94,1.43,.94,2.33"/><path class="cls-2" d="M67.98,11.59h-11.29c.03,1.4,.47,2.58,1.32,3.52,.89,.98,2.03,1.48,3.42,1.48s2.47-.41,3.41-1.22c.42-.37,.88-.96,1.37-1.79l1.36,.72c-.84,1.66-2.02,2.77-3.53,3.35-.73,.29-1.56,.43-2.48,.43-1.89,0-3.45-.62-4.69-1.87-1.24-1.25-1.86-2.82-1.86-4.7,0-1.59,.49-3.02,1.47-4.26,1.24-1.59,2.9-2.38,4.98-2.38s3.85,.81,5.13,2.44c.91,1.15,1.37,2.59,1.38,4.3m-1.77-1.41c-.4-1.58-1.26-2.68-2.58-3.3-.68-.31-1.39-.47-2.14-.47-1.24,0-2.29,.4-3.18,1.19-.65,.57-1.14,1.43-1.47,2.58h9.36Z"/><path class="cls-2" d="M75.83,5.28l-.84,1.38c-.34-.15-.62-.22-.85-.22-1.29,0-2.19,.91-2.7,2.72-.2,.72-.3,2.16-.3,4.34v4.25h-1.66V5.18h1.66v1.85c.98-1.45,2.06-2.17,3.26-2.17,.45,0,.92,.14,1.43,.43"/><polygon class="cls-2" points="88.62 5.18 82.87 17.75 82.58 17.75 76.79 5.18 78.51 5.18 82.72 14.33 86.89 5.18 88.62 5.18"/><path class="cls-2" d="M92.05,1.34c0,.37-.13,.68-.39,.94-.26,.26-.57,.39-.94,.39s-.67-.13-.93-.39c-.26-.26-.4-.57-.4-.93s.13-.68,.39-.95c.26-.26,.57-.39,.94-.39s.69,.13,.94,.39c.26,.26,.39,.58,.39,.95m-.5,16.42h-1.64V5.18h1.64v12.57Z"/><path class="cls-2" d="M106.15,15.23c-1.26,1.9-3.22,2.84-5.88,2.84-1.92,0-3.54-.6-4.87-1.8-1.36-1.24-2.05-2.81-2.05-4.71,0-1.22,.31-2.36,.92-3.4,.61-1.04,1.45-1.85,2.53-2.44,1.07-.59,2.27-.88,3.59-.88,1.71,0,3.17,.46,4.38,1.38,.54,.41,1,.93,1.38,1.56l-1.28,.8c-1.11-1.46-2.62-2.2-4.54-2.2-1.49,0-2.74,.47-3.77,1.41-1.05,.97-1.57,2.19-1.57,3.66,0,.92,.24,1.79,.7,2.59,.47,.8,1.11,1.43,1.92,1.87,.81,.44,1.72,.67,2.72,.67,1.85,0,3.36-.73,4.53-2.2l1.28,.85Z"/><path class="cls-2" d="M120.7,11.59h-11.29c.03,1.4,.47,2.58,1.32,3.52,.89,.98,2.03,1.48,3.42,1.48s2.48-.41,3.41-1.22c.42-.37,.88-.96,1.37-1.79l1.36,.72c-.84,1.66-2.02,2.77-3.53,3.35-.73,.29-1.56,.43-2.48,.43-1.89,0-3.45-.62-4.69-1.87-1.24-1.25-1.86-2.82-1.86-4.7,0-1.59,.49-3.02,1.47-4.26,1.24-1.59,2.9-2.38,4.98-2.38s3.85,.81,5.13,2.44c.91,1.15,1.37,2.59,1.38,4.3m-1.77-1.41c-.4-1.58-1.26-2.68-2.58-3.3-.68-.31-1.4-.47-2.14-.47-1.23,0-2.29,.4-3.18,1.19-.65,.57-1.14,1.43-1.47,2.58h9.36Z"/><path class="cls-2" d="M122.72,4.02c-.56,0-1.03-.19-1.42-.59-.39-.39-.59-.87-.59-1.43s.2-1.03,.59-1.42c.39-.39,.87-.59,1.42-.59s1.03,.2,1.42,.59c.39,.39,.59,.87,.59,1.42s-.19,1.03-.59,1.43c-.39,.39-.87,.59-1.42,.59m0-3.77c-.48,0-.89,.17-1.24,.51-.34,.34-.51,.76-.51,1.24s.17,.9,.51,1.24c.34,.34,.75,.51,1.24,.51s.9-.17,1.24-.51c.34-.34,.51-.76,.51-1.24s-.17-.9-.51-1.24c-.34-.34-.75-.51-1.24-.51m1.28,2.77h-.5l-.77-.83h-.39v.83h-.37V.91h.72c.34,0,.58,.05,.71,.15,.14,.1,.21,.24,.21,.43,0,.28-.16,.48-.5,.61l.89,.93Zm-1.65-1.84v.73h.3c.2,0,.34-.03,.43-.1s.13-.17,.13-.31c0-.11-.04-.19-.11-.24-.08-.06-.21-.08-.4-.08h-.35Z"/></svg>