<svg xmlns="http://www.w3.org/2000/svg" xml:space="preserve" id="Layer_1" x="0" y="0" style="enable-background:new 0 0 700 700" version="1.1" viewBox="0 0 700 700"><style>.st0{fill:#00adff}</style><path d="M199.6 290.4 90.8 411.1h83.4l-15.5 34.3H19.6l2.9-30.6L138 291.1H59l5.2-34.6h139.9zM238.2 445.4h-49.4l39.5-185.6 50.9-7.7-41 193.3zM264.8 235c-16.6 0-30.2-13.6-30.2-30.6s14-30.6 31-30.6c16.6 0 29.9 13.7 29.9 30.6-.1 17-13.7 30.6-30.7 30.6M453.7 316.2l-27.3 129.2h-48.7l26.2-122.9c1.5-7.4 2.6-12.9 2.6-17 0-9.2-4.1-11.8-12.9-11.8-11.8 0-25.8 7.4-41.3 28.4L326 445.4h-48.7l27-127.3c4.4-20.7 4.1-36.9 0-49.8l45.8-18.1c3.3 6.3 5.5 22.5 4.8 30.6 15.9-17 36.2-28.4 63.8-28.4 24 0 38 14.4 38 37.3 0 8.1-1.1 18.4-3 26.5M599.8 213.6c-7-3.7-13.3-5.5-19.9-5.5-12.5 0-22.5 7.8-25.5 21.4l-5.5 26.9h48l-19.9 34h-33.6l-30.3 155c-7 35.1-28.1 65.7-47.2 82.7l-30.3-27.3c10.3-10.3 24.4-35 28.4-55.3l31-155h-18.5l7.4-33.9h17.4c.4-7.8 1.8-17.3 3.7-25.8 8.5-40.6 35.4-58.7 74.2-58.7 16.2 0 32.1 5.2 42.1 11.8l-21.5 29.7zM623.2 445.4h-49.5l39.5-185.6 50.9-7.7-40.9 193.3zM649.8 235c-16.6 0-30.3-13.6-30.3-30.6s14-30.6 31-30.6c16.6 0 29.9 13.7 29.9 30.6 0 17-13.6 30.6-30.6 30.6M564 471.8h-10.3v-3.9h25.2v3.9h-10.4v28.9H564zM586.9 500.7h-4.1v-32.8h6.4l8.1 25.1c.4 1.1.6 2 .8 2.7.2-1 .5-1.9.7-2.7l8.4-25.1h6.4v32.8h-4.3v-28c-.2 1.1-.5 2.1-.8 2.9l-8.4 25.1h-4.2l-8.3-25.1c-.3-.9-.6-1.9-.7-2.9v28z" class="st0"/></svg>