<?xml version="1.0" ?>
<svg xmlns="http://www.w3.org/2000/svg" data-name="Layer 1" viewBox="0 0 149.894 47.809">
	<defs>
		<style>
      .cls-1 {
        fill: #252324;
        fill-rule: evenodd;
        stroke-width: 0px;
      }
    </style>
	</defs>
	<path class="cls-1" d="M7.004,12.87c-1.619-1.62-1.619-4.246,0-5.866,1.62-1.62,4.25-1.62,5.87,0,1.619,1.62,1.619,4.246,0,5.866-1.62,1.62-4.248,1.62-5.87,0ZM4.15,28.053C1.858,28.053,0,26.195,0,23.904c0-2.292,1.858-4.15,4.15-4.15s4.15,1.858,4.15,4.15c-.001,2.291-1.859,4.148-4.15,4.148h0ZM12.873,40.806c-1.62,1.62-4.248,1.62-5.87,0-1.619-1.62-1.619-4.246,0-5.866,1.62-1.62,4.248-1.62,5.87,0,1.619,1.62,1.619,4.246,0,5.866ZM28.073,43.658c0,2.292-1.856,4.151-4.148,4.152-2.292,0-4.151-1.856-4.152-4.148v-.003c0-2.292,1.856-4.151,4.148-4.152,2.292,0,4.151,1.856,4.152,4.148v.003ZM40.833,34.938c1.619,1.62,1.619,4.246,0,5.866-1.62,1.62-4.248,1.62-5.87,0-1.619-1.62-1.619-4.246,0-5.866,1.62-1.62,4.248-1.62,5.87,0ZM43.687,19.755c2.291,0,4.149,1.857,4.15,4.148,0,2.292-1.856,4.151-4.148,4.152-2.292,0-4.151-1.856-4.152-4.148v-.003c.001-2.291,1.859-4.148,4.15-4.148ZM34.065,11.525c-1.386-3.337-5.213-4.922-8.552-3.541-2.117.878-4.545-.127-5.423-2.245h0c-.877-2.118.129-4.546,2.247-5.422,2.118-.877,4.545.129,5.422,2.247,1.386,3.337,5.213,4.922,8.552,3.541,2.117-.877,4.545.128,5.422,2.245.877,2.118-.129,4.545-2.247,5.422-2.118.877-4.545-.129-5.422-2.247h0ZM79.258,33.788V14.035h3.942v19.753h-3.953.011ZM83.705,9.608c0,1.364-1.106,2.471-2.471,2.471s-2.47-1.106-2.47-2.471,1.106-2.471,2.47-2.471,2.471,1.106,2.471,2.471ZM75.307,33.788h-12.165c-1.702,0-3.166-1.037-3.73-2.643s-.07-3.33,1.26-4.392l10.964-8.768h-12.153v-3.95h12.154c1.702,0,3.166,1.037,3.73,2.643s.07,3.33-1.26,4.392l-10.964,8.768h12.154v3.95h.01ZM108.902,33.788V14.035h3.953v19.753s-3.953,0-3.953,0ZM113.349,9.608c0,1.364-1.106,2.471-2.471,2.471s-2.47-1.106-2.47-2.471,1.106-2.471,2.47-2.471,2.471,1.106,2.471,2.471ZM104.952,33.788h-3.953v-13.828c-.003-1.09-.886-1.973-1.976-1.975h-5.93c-1.09.002-1.973.885-1.976,1.975v13.828h-3.953v-13.828c0-3.268,2.66-5.926,5.93-5.926h5.93c3.27,0,5.93,2.658,5.93,5.926v13.828h-.002ZM120.762,21.936h7.905c1.09-.002,1.973-.885,1.976-1.975-.003-1.09-.886-1.973-1.976-1.975h-5.93c-1.09.002-1.973.885-1.976,1.975v1.975h0ZM132.6,33.788h-9.88c-3.27,0-5.93-2.658-5.93-5.926v-7.9c0-3.268,2.66-5.926,5.93-5.926h5.93c3.27,0,5.93,2.658,5.93,5.926s-2.66,5.926-5.93,5.926h-7.905v1.975c.003,1.09.886,1.973,1.976,1.975h9.88v3.95h-.001ZM141.987,33.788h-3.953v-13.828c0-3.268,2.66-5.926,5.93-5.926h5.93v3.95h-5.93c-1.09.002-1.973.885-1.976,1.975v13.828h0Z"/>
</svg>