<?xml version="1.0" ?>
<svg xmlns="http://www.w3.org/2000/svg" viewBox="0 0 28 28">
	<style>
    .J {
        fill: #e42528
    }
    </style>
	<g name="expense" class="J">
		<g transform="translate(0 .458)">
			<path d="M23.124 27.085a9.63 9.63 0 0 1-6.06-2.223c-.174-.141-.425-.127-.583.031L14.9 26.479c-.807.805-2.112.805-2.919 0l-1.532-1.531a.44.44 0 0 0-.619 0l-1.553 1.547c-.378.378-.891.59-1.425.59s-1.047-.212-1.425-.59l-.075-.079A20.91 20.91 0 0 1 2.461 2.604C3.315 1.001 4.984 0 6.8.001h15.22c1.541 0 2.993 1.021 4.09 2.877a15.76 15.76 0 0 1 1.881 6.492c.119 1.354-.881 2.549-2.235 2.67a2.25 2.25 0 0 1-.217.009h-7.906l.1 1.365v.034c.092 1.359.348 2.702.763 4a14.1 14.1 0 0 0 1.574 3.35c.596.934 1.336 1.769 2.191 2.474.77.633 1.657 1.109 2.611 1.4.517.152.862.641.833 1.179s-.424.987-.955 1.083c-.536.099-1.081.149-1.626.151zM6.8 1.641a3.28 3.28 0 0 0-2.9 1.736A19.26 19.26 0 0 0 6.573 25.32c.066.074.159.119.258.125s.197-.028.271-.095l.015-.015 1.547-1.547a2.08 2.08 0 0 1 2.939 0l1.533 1.533c.166.165.434.165.6 0l1.586-1.587c.75-.751 1.946-.816 2.772-.149 1.252 1.039 2.787 1.677 4.406 1.834a9.99 9.99 0 0 1-1.263-.872c-.99-.812-1.847-1.776-2.537-2.855a17.12 17.12 0 0 1-2.6-8.113c-.086-.781-.129-1.566-.129-2.351a17.61 17.61 0 0 1 1.618-7.727c.327-.669.739-1.294 1.225-1.859zm10.833 8.769h7.905a.82.82 0 0 0 .82-.823c.001-.024.001-.049 0-.073-.128-2.032-.693-4.011-1.658-5.804-.79-1.336-1.741-2.071-2.678-2.071-.558.023-1.09.245-1.5.625a6.26 6.26 0 0 0-1.462 1.971 15.4 15.4 0 0 0-1.427 6.175zm-5.759 1.641H5.792a.82.82 0 1 1 0-1.641h6.083a.82.82 0 0 1 .792.821.82.82 0 0 1-.792.82m-2.975 4.1H5.965a.82.82 0 1 1 0-1.641H8.9a.82.82 0 1 1 0 1.641m3.354-8.2H6.531a.82.82 0 1 1 0-1.641h5.727a.82.82 0 1 1 0 1.641"/>
		</g>
	</g>
</svg>