<?xml version="1.0" ?>
<svg xmlns="http://www.w3.org/2000/svg" viewBox="0 0 28 28">
	<style>
    .G {
        fill: #e42527
    }
    .H {
        fill: #089949
    }
    .I {
        fill: #f9b21d
    }
    </style>
	<g name="lens">
		<g class="H">
			<g transform="translate(.002 7.264)">
				<path d="M22.748 13.459a.82.82 0 0 1-.581-1.4l3.387-3.387a2.74 2.74 0 0 0 0-3.87L22.663 1.91a.82.82 0 0 1 .023-1.138.82.82 0 0 1 1.138-.024l2.891 2.891c1.707 1.711 1.707 4.482 0 6.193l-3.385 3.385a.82.82 0 0 1-.581.241m-17.986-.486a.82.82 0 0 1-.581-.24l-2.9-2.9c-1.707-1.711-1.707-4.481 0-6.192L4.669.24c.319-.324.84-.327 1.164-.008s.327.84.008 1.164l-.009.009-3.391 3.4a2.74 2.74 0 0 0 0 3.869l2.9 2.9a.82.82 0 0 1-.581 1.4z"/>
			</g>
		</g>
		<g class="I">
			<g transform="translate(10.87 10.869)">
				<path d="M3.129 6.26A3.13 3.13 0 0 1 0 3.129 3.13 3.13 0 0 1 3.131 0a3.13 3.13 0 0 1 2.212 5.344 3.13 3.13 0 0 1-2.214.916m0-4.618a1.49 1.49 0 0 0-.569 2.863 1.49 1.49 0 0 0 1.622-2.427 1.49 1.49 0 0 0-1.053-.436"/>
			</g>
		</g>
		<g class="G">
			<g transform="translate(6.751)">
				<path d="M7.249 21.236c-1.422.003-2.814-.414-4-1.2a.82.82 0 0 1-.204-1.121.82.82 0 0 1 1.112-.248 5.61 5.61 0 0 0 8.7-4.677V7.136c.002-.654-.257-1.281-.721-1.742l-2.95-2.951a2.74 2.74 0 0 0-3.87 0L1.411 6.35A.82.82 0 0 1 .03 5.987.82.82 0 0 1 .249 5.19l3.9-3.907a4.38 4.38 0 0 1 6.194 0l2.951 2.951c.771.768 1.203 1.812 1.2 2.9V14a7.25 7.25 0 0 1-7.25 7.23m0 6.764a4.35 4.35 0 0 1-3.1-1.282l-2.942-2.947c-.771-.768-1.203-1.812-1.2-2.9v-6.87a7.25 7.25 0 0 1 11.265-6.017c.363.255.458.752.215 1.123s-.736.483-1.115.254l-.015-.01C8.631 8.199 6.419 8.094 4.597 9.07s-2.959 2.876-2.959 4.944v6.85c.001.653.264 1.278.729 1.736l2.952 2.952a2.74 2.74 0 0 0 3.87 0l3.913-3.914a.82.82 0 0 1 1.13.032.82.82 0 0 1 .027 1.13l-3.913 3.913A4.35 4.35 0 0 1 7.249 28"/>
			</g>
		</g>
	</g>
</svg>