<?xml version="1.0" encoding="utf-8"?>
<!-- Generator: Adobe Illustrator 27.4.0, SVG Export Plug-In . SVG Version: 6.00 Build 0)  -->
<svg version="1.1" id="Layer_1" xmlns="http://www.w3.org/2000/svg"  x="0px" y="0px"
	 viewBox="0 0 950 296" style="enable-background:new 0 0 950 296;" xml:space="preserve">
<style type="text/css">
	.st0{fill:#FFFFFF;}
	.st1{fill:#226DB4;}
</style>
<g>
	<g>
		<path d="M382.86,140.79h22.21v114.89h-22.21V140.79z"/>
		<path d="M429.08,171.63h20.09v13.34c5.42-10.36,16.71-15.15,28.41-15.15c20.17,0,29.27,14.2,29.27,33.27v52.58h-20.4v-50.62
			c0-11.77-5.26-18.68-17.19-18.68c-12.63,0-20.09,7.85-20.09,19.93v49.36h-20.09V171.63z"/>
		<path d="M514.69,171.63h21.5l21.74,63.64l21.5-63.64h19.62l-30.29,84.05h-23.54L514.69,171.63z"/>
		<path d="M650.14,169.83c25.5,0,45.12,17.89,45.12,43.63c0,26.45-20.64,43.79-45.99,43.79c-25.58,0-46.14-17.74-46.14-43.4
			C603.13,187.48,624.87,169.83,650.14,169.83z M673.68,213.62c0-15.46-7.85-28.33-24.33-28.33c-16.95,0-23.7,13.5-23.7,28.88
			c0,14.91,7.93,27.62,24.17,27.62C666.62,241.79,673.68,228.29,673.68,213.62z"/>
		<path d="M720.6,136.08c6.51,0,11.69,4.79,11.69,11.46c0,6.59-5.02,11.38-11.61,11.38c-6.51,0-12.01-4.87-12.01-11.46
			C708.67,140.79,714.09,136.08,720.6,136.08z M710.48,171.79h20.09v83.89h-20.09V171.79z"/>
		<path d="M829.13,231.9c-5.57,17.58-21.27,25.35-38.85,25.35c-26.68,0-42.61-17.89-42.61-43.87c0-24.96,17.81-43.55,43.08-43.55
			c17.03,0,31.7,7.14,37.9,23.62l-16.25,7.14c-3.37-9.42-11.54-14.83-21.66-14.83c-16.4,0-22.44,14.2-22.44,28.64
			c0,14.83,6.51,27.62,22.76,27.62c11.54,0,19.3-6.36,22.76-16.87L829.13,231.9z"/>
		<path d="M920.16,237.39c-6.98,14.83-22.05,19.85-37.51,19.85c-26.53,0-43.24-17.74-43.24-43.87c0-24.64,17.03-43.55,42.3-43.55
			c27.15,0,40.42,15.85,40.42,48.26h-62.23c0,14.2,8.24,24.56,23.54,24.56c9.1,0,16.64-3.69,21.03-12.24L920.16,237.39z
			 M902.11,204.9c-0.63-12.71-8.32-20.48-20.17-20.48c-12.63,0-20.01,8.87-21.74,20.48H902.11z"/>
	</g>
	<g>
		<path d="M382.23,104.43l36.97-53.42h-33.23V40.47h50.63v5.25l-36.07,53.42h35.03v10.54h-53.32V104.43z"/>
		<path d="M468.27,57.96c15.36,0,27.18,10.78,27.18,26.28c0,15.93-12.43,26.38-27.7,26.38c-15.41,0-27.8-10.68-27.8-26.14
			C439.95,68.59,453.04,57.96,468.27,57.96z M482.45,84.33c0-9.31-4.73-17.06-14.65-17.06c-10.21,0-14.28,8.13-14.28,17.4
			c0,8.98,4.77,16.64,14.56,16.64C478.19,101.3,482.45,93.17,482.45,84.33z"/>
		<path d="M504.29,36.12h12.1v30.96c3.26-6.29,9.93-9.12,16.92-9.12c12.1,0,18.15,8.51,18.15,20.04v31.67h-12.2V79.18
			c0-7.28-3.78-11.25-10.83-11.25c-7.75,0-12.05,4.77-12.05,12.01v29.73h-12.1V36.12z"/>
		<path d="M587.63,57.96c15.36,0,27.18,10.78,27.18,26.28c0,15.93-12.43,26.38-27.7,26.38c-15.41,0-27.8-10.68-27.8-26.14
			C559.31,68.59,572.41,57.96,587.63,57.96z M601.81,84.33c0-9.31-4.73-17.06-14.65-17.06c-10.21,0-14.28,8.13-14.28,17.4
			c0,8.98,4.77,16.64,14.56,16.64C597.56,101.3,601.81,93.17,601.81,84.33z"/>
	</g>
</g>
<g>
	<path class="st1" d="M166.39,116.51h39.64c4.7,0,8.49-3.79,8.49-8.49V68.38c0-4.7-3.79-8.49-8.49-8.49h-39.64
		c-4.7,0-8.49,3.79-8.49,8.49v39.64C157.9,112.72,161.69,116.51,166.39,116.51z M174.89,76.84h22.65V99.5h-22.65V76.84z"/>
	<path class="st1" d="M309.13,3.03H155.06c-26.56,0-48.14,21.6-48.14,48.14v31.32H75.59c-26.45,0-47.97,21.52-47.97,47.97v114.56
		c0,26.45,21.52,47.97,47.97,47.97h0.17h0.17h165.22c20.41,0,39.64-7.96,54.08-22.4c14.44-14.44,22.4-33.64,22.4-54.08V11.52
		C317.62,6.82,313.83,3.03,309.13,3.03z M75.59,99.47h31.32v51.02H44.61v-20.05C44.61,113.37,58.51,99.47,75.59,99.47z
		 M75.76,275.98h-0.17c-17.07,0-30.98-13.9-30.98-30.98v-77.53h62.32v77.53c0,17.07-13.9,30.98-30.98,30.98H75.76z M300.63,216.52
		c0,32.79-26.67,59.49-59.49,59.49H112.54c7.08-8.35,11.38-19.17,11.38-30.98V91V51.16c0-17.19,13.99-31.15,31.15-31.15h145.57
		V216.52z"/>
	<path class="st1" d="M166.39,167.48h91.6c4.7,0,8.49-3.79,8.49-8.49c0-4.7-3.79-8.49-8.49-8.49h-91.6c-4.7,0-8.49,3.79-8.49,8.49
		C157.9,163.69,161.69,167.48,166.39,167.48z"/>
	<path class="st1" d="M166.39,218.48h91.6c4.7,0,8.49-3.79,8.49-8.49c0-4.7-3.79-8.49-8.49-8.49h-91.6c-4.7,0-8.49,3.79-8.49,8.49
		C157.9,214.68,161.69,218.48,166.39,218.48z"/>
</g>
</svg>
