<svg viewBox="0 0 151 36" fill="none" xmlns="http://www.w3.org/2000/svg">
<path d="M3.0122 0.555274V11.1054H15.3545L0 35.4447H34.0147V24.6632C32.1362 24.6632 20.3439 24.6632 20.3439 24.6632L35.5439 0.555274H3.0122Z" fill="#8FD400"/>
<path d="M49.6106 0C38.9984 0 30.2862 7.12596 30.2862 18.0925C30.2862 29.2905 38.952 36 49.6106 36C60.2691 36 68.935 29.2905 68.935 18.0925C68.935 7.12596 60.2228 0 49.6106 0ZM49.6106 11.4756C53.6423 11.4756 56.1447 14.5758 56.1447 18.2776C56.1447 22.2571 53.4569 24.9871 49.6106 24.9871C45.7642 24.9871 43.0764 22.2571 43.0764 18.2776C43.0764 14.5758 45.5789 11.4756 49.6106 11.4756Z" fill="#8FD400"/>
<path d="M87.5372 2.5767e-06C76.925 2.5767e-06 68.2128 7.12596 68.2128 18.0925C68.2128 29.2905 76.8787 36 87.5372 36C98.1958 36 106.862 29.2905 106.862 18.0925C106.862 7.12596 98.1494 2.5767e-06 87.5372 2.5767e-06ZM87.5372 11.4756C91.5689 11.4756 94.0714 14.5758 94.0714 18.2776C94.0714 22.2571 91.3836 24.9871 87.5372 24.9871C83.6909 24.9871 81.0031 22.2571 81.0031 18.2776C81.0031 14.5758 83.5055 11.4756 87.5372 11.4756Z" fill="#8FD400"/>
<path d="M103.639 35.4447H115.919L117.402 20.545C117.541 19.1568 117.634 17.7224 117.727 16.3342H118.144C118.237 17.8149 118.561 19.2031 118.932 20.6838L123.473 35.4447H130.888L135.939 19.8046C136.31 18.6941 136.541 17.491 136.773 16.3342H137.005L138.719 35.4447H151L145.254 0.555274H132.324L128.385 14.2519C127.968 15.7326 127.737 17.3522 127.505 18.8792H127.18L122.361 0.555274H109.293L103.639 35.4447Z" fill="#8FD400"/>
</svg>
