<svg xmlns="http://www.w3.org/2000/svg" fill="none" viewBox="0 0 400 400"><path fill="#000" d="M307.344 159v5.563h25.048v70.589h-25.048v5.577h30.724V159h-30.724Z"/><path fill="#000" d="M300.021 182.16v4.754h5.506v22.04c-.227-.44-15.809-26.851-15.809-26.851h-13.142v4.754h5.422v25.914h-5.422v4.754h16.264v-4.754h-5.251v-22.877l.937 1.618 15.355 26.027h7.351v-30.667h5.166v-4.755l-16.363.057-.014-.014Zm-45.143 4.756h5.307v25.914h-5.307v4.754h16.731v-4.754h-5.364v-25.914h5.364v-4.782h-16.731v4.782Zm-4.882 0v-4.782h-14.859l-9.608 27.176-9.494-27.176h-14.802v4.782h5.478v25.914h-5.478v4.754h15.938v-4.754h-4.882v-23.643l10.445 28.397h5.165l10.573-28.553v23.799h-4.953v4.754h16.477v-4.754h-5.478v-25.914h5.478Zm-58.002 12.955a13.173 13.173 0 0 1-7.904 12.389 13.135 13.135 0 0 1-14.447-2.653 13.178 13.178 0 0 1-2.995-14.391 13.173 13.173 0 0 1 12.191-8.202c7.181-.057 13.056 5.676 13.17 12.857m-13.17-18.477c-10.147.213-18.222 8.572-18.08 18.719.142 10.146 8.444 18.292 18.591 18.221 10.147-.07 18.349-8.316 18.349-18.463-.127-10.303-8.557-18.562-18.86-18.477Zm-41.837.015c-10.147.213-18.222 8.572-18.08 18.719.142 10.146 8.444 18.292 18.591 18.221 10.147-.07 18.35-8.316 18.35-18.463-.128-10.303-8.558-18.562-18.861-18.477Zm5.265 30.852a13.134 13.134 0 0 1-14.447-2.654 13.17 13.17 0 0 1 9.196-22.592c7.181-.057 13.056 5.676 13.17 12.857a13.173 13.173 0 0 1-7.905 12.389h-.014Zm-58.313-18.363h5.634v-6.982h16.448l-21.983 24.977v5.691h29.207v-12.063h-5.62v7.309H91.163l22.238-25.289v-5.407H83.954v11.764Z"/><path fill="#000" d="M62 159v81.729h30.71v-5.577H67.677v-70.589H92.71V159H62Z"/></svg>