<?xml version="1.0" encoding="UTF-8" standalone="no"?>
<svg viewBox="0 0 21.9 9" xmlns="http://www.w3.org/2000/svg">
    <g transform="translate(-262.085,-195.68)">
        <g transform="matrix(0.63583004,0,0,0.63583004,249.10627,108.65052)" style="stroke-width:1.57275">
            <g style="fill:#818792;fill-opacity:1;stroke-width:1.57275" transform="matrix(0.62955775,0,0,0.62955775,-38.11346,86.206848)">
                <path style="fill:#818792;fill-opacity:1;stroke-width:0.416122" d="m 143.51062,86.108439 c -1.82493,-0.0041 -3.57738,1.24489 -4.08657,3.320211 -0.68725,2.801034 1.44576,5.618946 4.16253,5.499406 0.068,-0.003 0.21707,-0.01029 0.33125,-0.01499 v 5.17e-4 c 1.07813,-0.0482 2.39981,-0.578867 2.71405,-1.089856 0.38293,-0.622699 -0.1889,-1.391004 -0.86713,-1.165304 -0.1111,0.037 -0.15642,0.06377 -0.4284,0.252698 -0.85689,0.595159 -2.07993,0.713115 -2.88561,0.278536 -0.66266,-0.357429 -1.33781,-1.261509 -1.38648,-1.856218 l -0.005,-0.06098 3.04064,-0.0093 3.04013,-0.0088 0.11937,-0.05891 c 0.9702,-0.477649 0.23133,-3.025868 -1.2113,-4.177006 -0.75119,-0.599392 -1.60639,-0.88817 -2.44998,-0.908471 -0.029,-6.98e-4 -0.0584,-0.0015 -0.0873,-0.0016 z m -0.0574,1.47898 c 0.0133,-2.3e-4 0.027,-1.3e-5 0.0403,0 0.5822,5.8e-4 1.1706,0.23478 1.65778,0.722953 0.38405,0.384829 0.73995,1.040619 0.78961,1.455208 l 0.0103,0.08372 h -2.44946 c -1.54012,0 -2.45323,-0.0056 -2.4598,-0.01654 -0.0307,-0.0497 0.13927,-0.551918 0.27492,-0.811837 0.48081,-0.921297 1.29919,-1.418994 2.1363,-1.433504 z" />
                <path style="fill:#818792;fill-opacity:1;stroke-width:0.416122" d="m 133.62905,86.084668 c -0.93243,0.01338 -1.87072,0.373844 -2.6448,1.16117 -0.22475,0.228599 -0.22066,0.228513 -0.22066,-0.0083 0,-1.054358 -1.34007,-1.361766 -1.64434,-0.377238 -0.048,0.15528 -0.056,9.636834 -0.008,9.820073 0.1213,0.465679 0.57637,0.741617 1.02475,0.621667 l 5.1e-4,-5.16e-4 c 0.2915,-0.078 0.52398,-0.311841 0.59997,-0.603581 0.0233,-0.0895 0.0274,-0.312761 0.0274,-1.594218 0,-1.193088 0.004,-1.489832 0.0222,-1.489832 0.0123,0 0.0941,0.0727 0.18138,0.161231 2.5756,2.613235 6.92516,0.569448 6.92516,-3.254065 0,-2.621521 -2.05663,-4.416078 -4.17287,-4.436422 -0.0301,-2.87e-4 -0.0604,-4.31e-4 -0.0904,0 z m -0.0915,1.555978 c 1.09054,0.0021 2.16049,0.668575 2.4846,2.089795 0.4829,2.117495 -0.97823,3.942984 -2.91662,3.643705 -1.38796,-0.214289 -2.41911,-1.536599 -2.33422,-2.993616 0.10351,-1.776471 1.45006,-2.74238 2.76624,-2.739884 z" />
                <path style="fill:#818792;fill-opacity:1;stroke-width:0.416122" d="m 123.53956,86.276736 c -1.4276,0.0022 -2.84899,0.01222 -2.91197,0.02842 -0.65234,0.16991 -0.75145,1.02619 -0.15296,1.32085 l 0.11627,0.05736 2.17455,0.0088 c 1.95488,0.008 2.17402,0.01189 2.17402,0.03669 0,0.0152 -1.09707,1.269635 -2.43809,2.787943 -1.34103,1.518309 -2.45945,2.794673 -2.48512,2.836003 -0.33666,0.542209 -0.0114,1.263196 0.6196,1.374076 0.0437,0.008 1.4197,0.01277 3.05769,0.01137 l 2.97812,-0.0021 0.1111,-0.04134 c 0.62955,-0.23574 0.64626,-1.080965 0.0264,-1.331185 l -0.10232,-0.04134 -2.2841,-0.0052 c -1.25645,-0.003 -2.28462,-0.01144 -2.28462,-0.01964 0,-0.008 1.10215,-1.262845 2.44947,-2.787943 1.34731,-1.525099 2.47283,-2.812724 2.50114,-2.861324 0.30994,-0.53204 -0.005,-1.241446 -0.60048,-1.351856 -0.0872,-0.01615 -1.52106,-0.02187 -2.94866,-0.01964 z" />
                <path style="fill:#818792;fill-opacity:1;stroke-width:0.416122" d="m 123.53956,86.241076 c 1.43643,-0.0023 2.87905,0.0038 2.96623,0.02015 0.60946,0.11301 0.93696,0.857003 0.61856,1.405082 -0.0282,0.0486 -1.1459,1.327509 -2.48357,2.841687 -1.33768,1.514169 -2.43189,2.756849 -2.43189,2.761589 0,0.005 0.99638,0.0088 2.21434,0.0088 1.90824,0 2.2287,0.004 2.31613,0.02636 0.72294,0.1883 0.76075,1.158636 0.0558,1.426786 l -0.10593,0.04031 -2.99569,0.0021 c -1.64771,0.001 -3.01975,-6.51e-4 -3.04891,-0.0047 v -10e-4 c -0.65637,-0.089 -1.01417,-0.867782 -0.66042,-1.437121 0.0272,-0.0438 1.14574,-1.320031 2.48564,-2.836519 l 2.43602,-2.757455 -2.16627,-0.0088 -2.16628,-0.0093 -0.11627,-0.05736 c -0.6246,-0.307509 -0.52479,-1.214609 0.15296,-1.391129 0.063,-0.0164 1.4931,-0.02721 2.92954,-0.02946 z" />
            </g>
            <g style="fill:#6bc4cc;fill-opacity:1;stroke-width:2.12009" transform="matrix(0.17533896,0,0,0.17533896,-4.8368996,119.54015)">
                <path style="fill:#6bc4cc;fill-opacity:1;stroke-width:0.560939" d="m 173.26229,167.42027 c -0.79148,0.0476 -1.68495,0.44773 -2.51664,1.24282 -2.62129,2.50592 -5.67812,4.35119 -8.94571,5.39967 -1.9504,0.62583 -2.5745,1.22824 -2.64428,2.55127 -0.10547,1.99984 1.49801,3.11883 3.59513,2.5094 5.98771,-1.74007 12.86743,-6.65812 12.86743,-9.1984 0,-1.68419 -1.03678,-2.58412 -2.35593,-2.50476 z" />
                <path style="fill:#6bc4cc;fill-opacity:1;stroke-width:0.560939" d="m 173.17393,167.26679 c 0.9567,-0.0547 1.80912,0.44674 2.32337,1.48725 0.84217,1.704 -0.07,3.14509 -3.75946,5.93917 -3.29228,2.49328 -8.90172,5.04736 -10.41177,4.7408 -2.92532,-0.59389 -3.14874,-4.35572 -0.31057,-5.23069 3.84961,-1.18678 6.87874,-2.96849 9.84642,-5.79138 0.76077,-0.72364 1.5679,-1.10258 2.31201,-1.14515 z" />
                <path style="fill:#6bc4cc;fill-opacity:1;stroke-width:0.560939" d="m 150.58512,123.99605 c -2.18483,-0.005 -4.37321,0.0321 -4.66276,0.11679 -2.11565,0.61865 -2.4714,3.66998 -0.5426,4.65398 0.66475,0.33913 0.57631,0.33052 3.64577,0.36638 l 2.87734,0.0336 v 9.99164 9.99216 l -2.90886,0.032 c -2.85905,0.0313 -2.91516,0.0341 -3.27267,0.17828 -2.27667,0.91801 -2.09314,4.20749 0.27027,4.8426 0.44385,0.11927 8.43766,0.14677 8.99118,0.031 0.76298,-0.15964 1.47807,-0.72593 1.80971,-1.4335 l 0.1695,-0.36174 0.0165,-13.15165 c 0.0183,-14.64461 0.054,-13.46406 -0.42685,-14.18414 -0.3034,-0.45436 -0.7699,-0.79546 -1.32395,-0.9679 -0.27645,-0.086 -2.45777,-0.13422 -4.64261,-0.13953 z" />
                <path style="fill:#6bc4cc;fill-opacity:1;stroke-width:0.560939" d="m 210.4471,123.99553 c -2.18509,0.007 -4.3677,0.0568 -4.65398,0.14521 -0.67828,0.2095 -1.1659,0.63716 -1.51101,1.32499 l -0.20568,0.40979 v 13.25036 13.25035 l 0.14676,0.36328 c 0.27739,0.68693 0.94773,1.25588 1.72548,1.46503 0.52429,0.14099 8.52709,0.14333 9.07076,0.003 v -5.1e-4 c 2.38998,-0.61847 2.59322,-3.9208 0.29818,-4.84622 -0.35751,-0.14415 -0.41361,-0.147 -3.27267,-0.17828 l -2.90938,-0.032 v -9.99164 -9.99216 l 2.87786,-0.0336 c 3.06901,-0.0359 2.98082,-0.0271 3.64473,-0.36587 1.93046,-0.98484 1.57513,-4.03539 -0.54208,-4.65449 -0.29645,-0.0867 -2.48387,-0.12382 -4.66897,-0.11731 z" />
                <path style="fill:#6bc4cc;fill-opacity:1;stroke-width:0.560939" d="m 150.60993,123.88133 c 2.14841,0.007 4.29118,0.0433 4.516,0.1018 0.80558,0.20982 1.39877,0.70473 1.76114,1.46968 l 0.20153,0.42529 v 13.28085 13.28032 l -0.20412,0.43099 c -0.36585,0.77242 -1.09988,1.33665 -1.94148,1.49189 -0.44393,0.0819 -8.3018,0.0841 -8.78913,0.002 -2.0392,-0.34159 -2.86531,-2.93011 -1.42214,-4.45606 0.74816,-0.79108 1.06743,-0.85214 4.42867,-0.85214 h 2.64791 v -9.92911 -9.92859 h -2.80293 c -3.0845,0 -3.19054,-0.011 -3.79099,-0.39223 -1.97531,-1.25425 -1.43987,-4.32596 0.84595,-4.85293 0.24726,-0.057 2.40118,-0.0789 4.54959,-0.0718 z" />
                <path style="fill:#6bc4cc;fill-opacity:1;stroke-width:0.560939" d="m 210.49723,123.87409 c 2.15255,2.6e-4 4.30559,0.0372 4.58577,0.11007 2.22287,0.57884 2.68161,3.59 0.73535,4.82555 -0.59399,0.37709 -0.70537,0.38861 -3.7853,0.38861 h -2.80241 v 9.92859 9.92859 h 2.64738 c 3.36126,0 3.6805,0.0616 4.42867,0.85266 1.47213,1.55656 0.61666,4.11659 -1.49086,4.46175 -0.35209,0.0577 -8.28445,0.0739 -8.62066,0.0176 -1.0185,-0.17049 -1.86405,-0.89559 -2.15181,-1.84537 -0.12568,-0.41483 -0.12674,-0.55702 -0.11007,-13.54129 l 0.0165,-13.12272 0.20153,-0.42529 c 0.36237,-0.76495 0.95557,-1.25986 1.76114,-1.46968 0.27981,-0.0729 2.43218,-0.10929 4.58473,-0.10904 z" />
                <path style="fill:#6bc4cc;fill-opacity:1;stroke-width:0.560939" d="m 206.24426,110.99994 c -0.12346,-0.002 -0.25098,-10e-4 -0.38189,0.004 -7.54981,0.29866 -13.75292,6.04477 -14.74742,13.66015 -0.14702,1.12582 -0.14752,27.86036 -5.2e-4,28.98892 0.97242,7.4655 6.70687,12.90212 14.38517,13.63793 0.52188,0.05 1.2831,0.0361 1.5937,-0.0289 3.21092,-0.67179 2.50055,-4.86989 -0.85576,-5.05757 -5.55058,-0.31038 -9.70882,-4.35842 -10.10067,-9.83299 -0.14545,-2.03203 -0.043,-26.81836 0.1142,-27.63242 0.94361,-4.88713 4.87543,-8.33497 9.84488,-8.63255 2.03368,-0.12178 3.00808,-0.95096 3.00808,-2.55902 0,-1.6186 -1.00789,-2.51071 -2.85977,-2.54765 z" />
                <path style="fill:#6bc4cc;fill-opacity:1;stroke-width:0.560939" d="m 153.078,162.64589 c -0.32555,0.21237 -0.59467,0.47177 -0.80306,0.76067 -0.24363,0.40281 -0.35648,0.89992 -0.32607,1.48725 0.10128,1.95685 1.52971,2.6998 4.44417,2.31149 7.13432,-0.95054 12.60302,-6.42807 13.53096,-13.55215 0.12058,-0.92572 0.14942,-27.71341 0.031,-28.80496 -0.75246,-6.93478 -6.05928,-12.50592 -13.02814,-13.6772 -3.1988,-0.53763 -4.87571,0.19832 -4.98006,2.18643 -0.09,1.71448 0.90431,2.62712 2.9962,2.75022 4.95479,0.29157 8.90413,3.74601 9.84126,8.60775 l 0.13849,0.71985 0.0238,13.05967 c 0.0273,15.18758 0.0392,14.83515 -0.55965,16.59071 -1.41297,4.14248 -5.08144,6.86709 -9.58547,7.11895 -0.69895,0.0391 -1.27484,0.18976 -1.7234,0.44132 z" />
                <path style="fill:#6bc4cc;fill-opacity:1;stroke-width:0.560939" d="m 154.73216,110.87902 c 0.12804,-0.004 0.25984,-0.003 0.39584,0.004 7.023,0.32488 12.91,5.14752 14.57689,11.94139 0.44111,1.79786 0.41134,0.61521 0.41134,16.33492 v 14.16554 l -0.14728,0.87798 c -1.22653,7.29933 -7.07171,12.6433 -14.42961,13.19248 -0.96805,0.0723 -1.18669,0.0718 -1.56424,-0.003 l 5.1e-4,5.2e-4 c -2.2939,-0.45274 -2.72661,-2.56348 -1.70067,-3.98581 0.18889,-0.3123 0.45748,-0.56687 0.80306,-0.76067 0.48052,-0.31348 1.08267,-0.52421 1.8004,-0.56483 4.85851,-0.27497 8.68848,-3.53751 9.75083,-8.30647 l 0.17105,-0.76636 0.0202,-13.37541 c 0.0229,-15.22018 0.0434,-14.583 -0.52865,-16.3158 -1.36546,-4.13562 -4.85836,-6.76164 -9.45627,-7.10913 -4.20935,-0.31812 -4.07273,-5.2067 -0.10335,-5.32887 z" />
                <path style="fill:#6bc4cc;fill-opacity:1;stroke-width:0.560939" d="m 206.3874,110.85887 c 1.97322,-8.9e-4 3.27456,1.6551 2.72438,3.46645 -0.37733,1.24225 -1.1627,1.75064 -2.90835,1.88257 -5.16201,0.39013 -8.84828,3.61123 -9.85417,8.61033 -0.13703,0.68103 -0.21463,26.466 -0.0837,27.8412 0.49502,5.20135 4.61379,9.12275 9.895,9.42164 2.84659,0.16109 4.15188,2.76461 2.29392,4.57543 -0.73431,0.71569 -1.35914,0.86444 -3.08147,0.73381 -7.48706,-0.56784 -13.50949,-6.3816 -14.38775,-13.88959 -0.14231,-1.21659 -0.14187,-27.47217 5.2e-4,-28.68921 0.92274,-7.8882 7.61327,-13.9491 15.40164,-13.95263 z" />
                <path style="fill:#6bc4cc;fill-opacity:1;stroke-width:0.560939" d="m 161.50177,99.002743 c -0.84304,0.01282 -1.44961,0.365463 -1.9296,1.079517 -1.02713,1.52798 -0.27348,3.36731 1.61799,3.94808 8.53204,2.61977 14.87798,9.75707 16.41709,18.46451 0.3584,2.02764 0.34024,1.20302 0.38344,17.0434 0.0432,15.85025 0.0198,14.82402 0.38137,16.94832 1.71551,10.0787 8.71511,18.53661 18.28312,22.09271 1.89939,0.70593 2.64828,0.85949 3.32021,0.68058 2.70819,-0.72109 2.5477,-4.21499 -0.23099,-5.0307 -8.00796,-2.35082 -14.39331,-9.32835 -16.15716,-17.65474 -0.52884,-2.49643 -0.53641,-2.74675 -0.53743,-18.30689 -7.5e-4,-11.3652 -0.0148,-13.43143 -0.0966,-14.29215 -1.08596,-11.42928 -8.73016,-21.0097 -19.65513,-24.63364 -0.69989,-0.232162 -1.29045,-0.346688 -1.79627,-0.338997 z" />
                <path style="fill:#6bc4cc;fill-opacity:1;stroke-width:0.560939" d="m 199.53252,98.998092 c -2.80435,-0.06298 -9.77261,3.762098 -13.2364,7.388698 -2.03042,2.12584 -0.18751,5.34336 2.50786,4.37854 0.38874,-0.13915 0.61388,-0.31396 1.62367,-1.26194 2.75607,-2.58739 5.7103,-4.30408 9.43354,-5.48132 2.65434,-0.83927 2.77427,-4.25452 0.17415,-4.958349 -0.14768,-0.03997 -0.31586,-0.06143 -0.50282,-0.06563 z" />
                <path style="fill:#6bc4cc;fill-opacity:1;stroke-width:0.560939" d="m 199.18422,98.933496 c 2.47801,-0.03035 3.96738,2.528954 2.05259,4.434874 -0.48672,0.48447 -0.57864,0.53107 -1.86758,0.94413 -3.32702,1.0662 -6.41265,2.92515 -9.06302,5.46013 -1.19384,1.14187 -1.84199,1.41199 -2.89336,1.20613 -1.91949,-0.37582 -2.78681,-2.62967 -1.62109,-4.21318 1.93588,-2.62971 7.75413,-6.25582 12.27677,-7.651216 0.38732,-0.1195 0.76169,-0.176532 1.11569,-0.180868 z" />
                <path style="fill:#6bc4cc;fill-opacity:1;stroke-width:0.560939" d="m 161.52658,98.875102 c 0.43234,-0.0062 0.91935,0.07783 1.47536,0.24908 10.19318,3.139528 17.93514,11.975488 19.75796,22.549528 0.40219,2.33302 0.37481,1.21416 0.41858,17.23202 0.0285,10.41724 0.0608,14.77202 0.11266,15.17789 1.24558,9.75123 7.36967,17.15268 16.61139,20.07681 3.43493,1.08683 2.36606,5.98864 -1.13843,5.22087 -9.84284,-2.15639 -18.85704,-12.31015 -20.54965,-23.14743 -0.32789,-2.09937 -0.30777,-1.11873 -0.3514,-16.85375 -0.0436,-15.73282 -0.0256,-14.87015 -0.3514,-16.7907 -1.45919,-8.60149 -8.03166,-16.01743 -16.34371,-18.44074 -2.13624,-0.62281 -2.86799,-2.93236 -1.41955,-4.480862 0.48815,-0.521868 1.0576,-0.782363 1.77819,-0.792716 z" />
            </g>
        </g>
    </g>
</svg>