<?xml version="1.0" ?>
<svg xmlns="http://www.w3.org/2000/svg" xmlns:xlink="http://www.w3.org/1999/xlink" viewBox="0 0 511.94 131.45">
	<linearGradient id="a">
		<stop offset="0" stop-color="#a3b1ea"/>
		<stop offset=".9996" stop-color="#2546ce"/>
	</linearGradient>
	<linearGradient id="b" gradientUnits="userSpaceOnUse" x1="-3.7669" x2="65.8477" xlink:href="#a" y1="7.939" y2="45.0163"/>
	<linearGradient id="c" gradientUnits="userSpaceOnUse" x1="44.4375" x2="98.2458" xlink:href="#a" y1="60.9589" y2="106.696"/>
	<radialGradient id="d" cx="91.6311" cy="97.998" gradientUnits="userSpaceOnUse" r="88.7003">
		<stop offset="0" stop-color="#352931"/>
		<stop offset=".066" stop-color="#323a38"/>
		<stop offset=".308" stop-color="#297550"/>
		<stop offset=".531" stop-color="#21a364"/>
		<stop offset=".7277" stop-color="#1cc472"/>
		<stop offset=".8907" stop-color="#18d97a"/>
		<stop offset="1" stop-color="#17e07d"/>
	</radialGradient>
	<g fill="#2546ce">
		<path d="m238.67 98.23v14.25h-54.5v-10.06l32.7-45.56h-31.3v-14.25h51.7v10.06l-32.56 45.55h33.96z"/>
		<path d="m314.12 42.61v69.87h-15.09v-8.94c-4.61 7.27-12.16 10.76-21.66 10.76-15.65 0-26.83-10.62-26.83-28.79v-42.9h15.09v41.36c0 10.62 6.15 16.21 15.65 16.21 9.92 0 17.75-5.87 17.75-20.12v-37.45z"/>
		<path d="m394.47 69.58v42.9h-15.09v-41.36c0-10.62-6.15-16.21-15.65-16.21-9.92 0-17.75 5.87-17.75 20.12v37.45h-15.09v-69.87h15.09v8.94c4.61-7.27 12.16-10.76 21.66-10.76 15.65.01 26.83 10.63 26.83 28.79z"/>
		<path d="m407.75 22.49c0-5.31 4.33-9.64 9.64-9.64s9.64 4.33 9.64 9.64c0 5.17-4.33 9.64-9.64 9.64s-9.64-4.47-9.64-9.64zm2.09 20.12h15.09v69.87h-15.09z"/>
		<path d="m511.99 42.61v69.87h-15.09v-10.06c-5.31 7.41-13.55 11.88-24.45 11.88-19 0-34.8-16.07-34.8-36.75 0-20.82 15.79-36.75 34.8-36.75 10.9 0 19.14 4.47 24.45 11.74v-9.92h15.09zm-15.09 34.94c0-13-9.5-22.36-22.08-22.36s-22.08 9.36-22.08 22.36 9.5 22.36 22.08 22.36 22.08-9.36 22.08-22.36z"/>
	</g>
	<path d="m65.75 15.53c2.18 0 4.29-.25 6.32-.73-.75 1.88-1.34 3.85-1.75 5.87-.38 1.89-.49 3.71-.54 5.23-.17 4.5-.99 8.91-2.42 13.08-.53-.03-1.06-.04-1.6-.04-3.53 0-6.9.66-10 1.86-3.45 1.34-6.57 3.35-9.17 5.87l-.01.01c-4.95 4.78-11.71 7.73-19.17 7.73-15.16 0-27.45-12.18-27.45-27.19s12.28-27.22 27.44-27.22c7.08 0 13.53 2.66 18.4 7.02.49.51 1.01 1.01 1.55 1.49 2.4 2.14 5.19 3.89 8.25 5.09 3.14 1.25 6.56 1.93 10.15 1.93z" fill="url(#b)"/>
	<path d="m131.54 104.27c0 15.02-12.29 27.18-27.45 27.18-7.46 0-14.22-2.94-19.17-7.72 0-.01-.01-.01-.01-.01-2.61-2.52-5.73-4.53-9.17-5.87-3.1-1.2-6.47-1.86-9.99-1.86-2.24 0-4.42.27-6.51.77 1.34-3.31 2.16-6.85 2.42-10.46l.01-.16v-.17c.01-.39.03-.8.05-1.2l.01-.17v-.17c.02-1.08.13-2.16.31-3.14.03-.13.05-.32.07-.46.41-2.85 1.08-5.62 2-8.29.55.04 1.09.05 1.63.05 3.58 0 7-.68 10.14-1.91 3.06-1.21 5.85-2.95 8.26-5.1.53-.47 1.05-.97 1.54-1.49 4.87-4.36 11.33-7.01 18.4-7.01 15.17-.01 27.46 12.17 27.46 27.19z" fill="url(#c)"/>
	<path d="m123.3 46.55c-.74.74-1.51 1.44-2.31 2.06-4.49 3.6-9.84 5.58-15.25 5.97h-.02c-.47.04-.96.04-1.44.06-.01 0-.03 0-.03 0-1.47.03-2.94.17-4.39.44-.04 0-.08.01-.12.02-10.89 1.57-21.39 6.55-29.77 14.93-6.15 6.15-10.45 13.43-12.94 21.17-.91 2.82-1.57 5.7-1.99 8.61 0 .04-.01.08-.02.12-.26 1.46-.41 2.92-.43 4.39-.04.49-.05.99-.07 1.48-.45 6.38-3.12 12.66-8.02 17.56-5.35 5.35-12.33 8.05-19.3 8.08-7.01.06-14.02-2.57-19.34-7.9-4.78-4.78-7.39-10.91-7.83-17.19-.04-.41-.05-.81-.06-1.22-.01-.29-.02-.57-.02-.87 0-.6.03-1.19.06-1.79.28-3.87 1.37-7.7 3.28-11.21.14-.27.29-.54.46-.8.19-.31.38-.63.58-.94.21-.31.41-.63.64-.94.1-.15.21-.29.31-.44.15-.22.32-.45.51-.66.68-.89 1.44-1.76 2.26-2.58 3.98-3.98 8.87-6.49 13.98-7.53 1.34-.28 2.71-.37 4.07-.42 12.86-.47 25.57-5.63 35.37-15.43 6.15-6.15 10.48-13.45 12.95-21.22 1.48-4.6 2.3-9.37 2.48-14.16.05-1.37.14-2.73.41-4.07 1.05-5.11 3.56-10.01 7.54-13.98 5.4-5.4 12.45-8.09 19.49-8.09.38 0 .77 0 1.15.03.29.01.57.03.86.05.2.02.38.04.58.05.55.06 1.1.13 1.64.22 5.46.85 10.71 3.35 14.91 7.55.48.48.94.97 1.36 1.48.25.29.49.58.73.88.24.29.47.6.69.9.15.21.29.41.44.63.13.2.26.38.38.58.17.25.33.51.48.77.01.02.02.03.03.04 6.24 10.48 4.8 24.29-4.29 33.37z" fill="url(#d)"/>
</svg>