<?xml version="1.0" encoding="UTF-8"?><svg xmlns="http://www.w3.org/2000/svg" xmlns:xlink="http://www.w3.org/1999/xlink" viewBox="0 0 188.63 210.34"><defs><style>.cls-1{fill:url(#linear-gradient-11);mix-blend-mode:multiply;}.cls-1,.cls-2,.cls-3,.cls-4,.cls-5,.cls-6,.cls-7,.cls-8,.cls-9,.cls-10,.cls-11,.cls-12,.cls-13,.cls-14,.cls-15,.cls-16,.cls-17{stroke-width:0px;}.cls-2{fill:url(#linear-gradient);}.cls-3{fill:url(#radial-gradient);}.cls-4{fill:url(#radial-gradient-2);mix-blend-mode:hard-light;opacity:.5;}.cls-5{fill:url(#radial-gradient-3);}.cls-6{fill:url(#linear-gradient-10);mix-blend-mode:screen;}.cls-7{fill:url(#linear-gradient-4);}.cls-8{fill:url(#linear-gradient-2);}.cls-9{fill:url(#linear-gradient-3);}.cls-10{fill:url(#linear-gradient-8);}.cls-11{fill:url(#linear-gradient-9);}.cls-12{fill:url(#linear-gradient-7);}.cls-13{fill:url(#linear-gradient-5);}.cls-14{fill:url(#linear-gradient-6);}.cls-18{isolation:isolate;}.cls-15{fill:#010101;opacity:.3;}.cls-16{fill:#231f20;}.cls-17{fill:#1e8541;}</style><linearGradient id="linear-gradient" x1="984.57" y1="-183.34" x2="997.33" y2="-183.34" gradientTransform="translate(896.58 -479.05) rotate(138.58) scale(1 -1)" gradientUnits="userSpaceOnUse"><stop offset="0" stop-color="#575858"/><stop offset="0" stop-color="#5e5f5f"/><stop offset=".02" stop-color="#818181"/><stop offset=".03" stop-color="#9d9c9c"/><stop offset=".05" stop-color="#b0aeae"/><stop offset=".06" stop-color="#bcbaba"/><stop offset=".08" stop-color="#c0bebe"/><stop offset=".1" stop-color="#cbc9c9"/><stop offset=".17" stop-color="#f0f0f0"/><stop offset=".21" stop-color="#fff"/><stop offset=".25" stop-color="#fff"/><stop offset=".32" stop-color="#f3f3f3"/><stop offset=".37" stop-color="#e6e6e5"/><stop offset=".42" stop-color="#cbcbca"/><stop offset=".5" stop-color="#a4a4a4"/><stop offset=".54" stop-color="#969696"/><stop offset=".71" stop-color="#1f2020"/><stop offset=".89" stop-color="#c4c4c4"/><stop offset=".91" stop-color="silver"/><stop offset=".93" stop-color="#b6b6b6"/><stop offset=".95" stop-color="#a5a5a5"/><stop offset=".97" stop-color="#8e8e8e"/><stop offset=".98" stop-color="#6f6f6f"/><stop offset="1" stop-color="#4a4a4a"/><stop offset="1" stop-color="#434343"/></linearGradient><linearGradient id="linear-gradient-2" x1="981.46" y1="-191.79" x2="1000.1" y2="-191.79" gradientTransform="translate(896.46 -478.94) rotate(138.58) scale(1 -1)" xlink:href="#linear-gradient"/><linearGradient id="linear-gradient-3" x1="806.42" y1="-59.36" x2="819.19" y2="-59.36" gradientTransform="translate(-510.57 -417.57) rotate(38.64)" xlink:href="#linear-gradient"/><linearGradient id="linear-gradient-4" x1="803.31" y1="-67.81" x2="821.96" y2="-67.81" gradientTransform="translate(-510.44 -417.47) rotate(38.64)" xlink:href="#linear-gradient"/><linearGradient id="linear-gradient-5" x1="1051.05" y1="16.18" x2="1065.68" y2="16.18" gradientTransform="translate(1152.45) rotate(-180) scale(1 -1)" xlink:href="#linear-gradient"/><linearGradient id="linear-gradient-6" x1="1047.51" y1="6.48" x2="1068.9" y2="6.48" gradientTransform="translate(1152.28) rotate(-180) scale(1 -1)" gradientUnits="userSpaceOnUse"><stop offset="0" stop-color="#575858"/><stop offset="0" stop-color="#5e5f5f"/><stop offset=".02" stop-color="#818181"/><stop offset=".03" stop-color="#9d9c9c"/><stop offset=".05" stop-color="#b0aeae"/><stop offset=".06" stop-color="#bcbaba"/><stop offset=".08" stop-color="#c0bebe"/><stop offset=".1" stop-color="#cbc9c9"/><stop offset=".17" stop-color="#f0f0f0"/><stop offset=".21" stop-color="#fff"/><stop offset=".25" stop-color="#fff"/><stop offset=".32" stop-color="#f3f3f3"/><stop offset=".37" stop-color="#e6e6e5"/><stop offset=".42" stop-color="#cbcbca"/><stop offset=".5" stop-color="#a4a4a4"/><stop offset=".54" stop-color="#969696"/><stop offset=".71" stop-color="#505050"/><stop offset=".89" stop-color="#c4c4c4"/><stop offset=".91" stop-color="silver"/><stop offset=".93" stop-color="#b6b6b6"/><stop offset=".95" stop-color="#a5a5a5"/><stop offset=".97" stop-color="#8e8e8e"/><stop offset=".98" stop-color="#6f6f6f"/><stop offset="1" stop-color="#4a4a4a"/><stop offset="1" stop-color="#434343"/></linearGradient><linearGradient id="linear-gradient-7" x1="197.08" y1="59" x2="84.49" y2="121.48" gradientUnits="userSpaceOnUse"><stop offset="0" stop-color="#878787"/><stop offset=".03" stop-color="#919191"/><stop offset=".21" stop-color="#cacaca"/><stop offset=".3" stop-color="#e0e1e0"/><stop offset=".36" stop-color="#c4c3c4"/><stop offset=".47" stop-color="#807780"/><stop offset=".54" stop-color="#534653"/><stop offset=".69" stop-color="#554855"/><stop offset=".77" stop-color="#5c505c"/><stop offset=".83" stop-color="#685e68"/><stop offset=".89" stop-color="#797179"/><stop offset=".94" stop-color="#8f8b8f"/><stop offset=".99" stop-color="#aba9ab"/><stop offset="1" stop-color="#b4b4b4"/></linearGradient><linearGradient id="linear-gradient-8" x1="108.09" y1="29.03" x2="79.45" y2="209.86" gradientUnits="userSpaceOnUse"><stop offset="0" stop-color="#b9b9b9"/><stop offset=".03" stop-color="#c2c2c2"/><stop offset=".11" stop-color="#d9d9d8"/><stop offset=".16" stop-color="#e5e5e4"/><stop offset=".24" stop-color="#f5f6f5"/><stop offset=".31" stop-color="#fbfcfc"/><stop offset=".35" stop-color="#fff"/><stop offset=".4" stop-color="#d7d7d7"/><stop offset=".45" stop-color="#bbb"/><stop offset=".53" stop-color="#535862"/><stop offset=".57" stop-color="#696c74"/><stop offset=".63" stop-color="#828388"/><stop offset=".69" stop-color="#909194"/><stop offset=".73" stop-color="#969699"/><stop offset=".8" stop-color="#99999d"/><stop offset=".87" stop-color="#a3a5a9"/><stop offset=".94" stop-color="#b3b8bd"/><stop offset="1" stop-color="#c7cfd6"/></linearGradient><linearGradient id="linear-gradient-9" x1="95.47" y1="45.36" x2="92.65" y2="216.89" gradientUnits="userSpaceOnUse"><stop offset="0" stop-color="#dfdfde"/><stop offset=".06" stop-color="#f0f0f0"/><stop offset=".12" stop-color="#fff"/><stop offset=".15" stop-color="#fff"/><stop offset=".23" stop-color="#fff"/><stop offset=".29" stop-color="#ededec"/><stop offset=".36" stop-color="#dfdfde"/><stop offset=".46" stop-color="#dfdfde"/><stop offset=".5" stop-color="#cbcbca"/><stop offset=".59" stop-color="#a4a4a4"/><stop offset=".63" stop-color="#969696"/><stop offset=".75" stop-color="#c4c4c4"/><stop offset=".89" stop-color="#fff"/><stop offset="1" stop-color="#fff"/></linearGradient><linearGradient id="linear-gradient-10" x1="95.33" y1="47.01" x2="92.57" y2="214.25" xlink:href="#linear-gradient-9"/><radialGradient id="radial-gradient" cx="399.44" cy="375.47" fx="399.44" fy="375.47" r="182.76" gradientTransform="translate(-83.2 -50.84) scale(.44)" gradientUnits="userSpaceOnUse"><stop offset="0" stop-color="#fafafa"/><stop offset=".17" stop-color="#f4f4f4"/><stop offset=".37" stop-color="#e6e6e6"/><stop offset=".59" stop-color="#cdcdcd"/><stop offset=".82" stop-color="#ababab"/><stop offset=".95" stop-color="#969696"/><stop offset="1" stop-color="#ebebeb"/></radialGradient><radialGradient id="radial-gradient-2" cx="399.44" cy="375.47" fx="399.44" fy="375.47" r="182.76" gradientTransform="translate(-83.2 -50.84) scale(.44)" gradientUnits="userSpaceOnUse"><stop offset=".55" stop-color="#fff"/><stop offset=".58" stop-color="#e6e6e6"/><stop offset=".71" stop-color="#909090"/><stop offset=".82" stop-color="#515151"/><stop offset=".89" stop-color="#2a2a2a"/><stop offset=".93" stop-color="#1c1c1c"/><stop offset="1" stop-color="#292929"/></radialGradient><radialGradient id="radial-gradient-3" cx="399.43" cy="375.47" fx="399.43" fy="375.47" r="169.36" gradientTransform="translate(-83.2 -50.84) scale(.44)" gradientUnits="userSpaceOnUse"><stop offset=".22" stop-color="#fff"/><stop offset=".38" stop-color="#fafafa"/><stop offset=".55" stop-color="#ededed"/><stop offset=".74" stop-color="#d8d7d7"/><stop offset=".75" stop-color="#d7d6d6"/><stop offset=".79" stop-color="#cecdcd"/><stop offset=".85" stop-color="#b5b5b5"/><stop offset=".93" stop-color="#8e8e8e"/><stop offset=".93" stop-color="#8c8c8c"/></radialGradient><linearGradient id="linear-gradient-11" x1="134.17" y1="-6.08" x2="67.51" y2="49.85" gradientUnits="userSpaceOnUse"><stop offset=".04" stop-color="#b9b9b9"/><stop offset=".06" stop-color="#c2c2c2"/><stop offset=".11" stop-color="#d9d9d8"/><stop offset=".14" stop-color="#e5e5e4"/><stop offset=".2" stop-color="#f5f6f5"/><stop offset=".24" stop-color="#fbfcfc"/><stop offset=".3" stop-color="#fff"/><stop offset=".43" stop-color="#cfcfcf"/><stop offset=".63" stop-color="#868686"/><stop offset=".72" stop-color="#6a6a6a"/><stop offset=".77" stop-color="#6e6e6e"/><stop offset=".82" stop-color="#7a7a7a"/><stop offset=".87" stop-color="#8e8e8e"/><stop offset=".92" stop-color="#ababaa"/><stop offset=".97" stop-color="#cfcfce"/><stop offset="1" stop-color="#e6e6e5"/></linearGradient></defs><g class="cls-18"><g id="Layer_1"><polygon class="cls-2" points="32.63 49.23 42.19 40.8 31.72 28.92 22.14 37.36 32.63 49.23"/><polygon class="cls-15" points="26.15 41.87 35.71 33.44 35 32.65 25.44 41.08 26.15 41.87"/><path class="cls-8" d="m22.94,42.71c.22.24.56.27.79.08l13.16-11.62c.22-.2.23-.54.03-.79l-6.72-7.61c-.2-.24-.56-.27-.78-.08l-13.18,11.62c-.22.2-.23.55-.02.78l6.7,7.61Z"/><polygon class="cls-9" points="161.41 53.83 151.45 45.87 161.34 33.5 171.31 41.46 161.41 53.83"/><polygon class="cls-15" points="167.53 46.17 157.57 38.21 158.24 37.38 168.2 45.34 167.53 46.17"/><path class="cls-7" d="m170.77,46.84c-.2.25-.55.29-.79.11l-13.71-10.97c-.23-.19-.26-.53-.07-.79l6.34-7.92c.19-.25.55-.3.77-.12l13.72,10.98c.23.18.26.53.05.78l-6.33,7.92Z"/><rect class="cls-13" x="86.76" y="7.1" width="14.63" height="18.16"/><rect class="cls-15" x="86.76" y="12.8" width="14.63" height="1.22"/><path class="cls-14" d="m83.38,12.3c0,.36.28.66.62.66h20.16c.33,0,.61-.29.61-.66V.66c0-.37-.28-.66-.61-.66h-20.16c-.34,0-.62.29-.62.66v11.64Z"/><path class="cls-15" d="m87.77,0v12.96h.59V0h-.59Zm-4.38.66v11.64c0,.35.26.64.59.66V0c-.33.01-.59.3-.59.66Zm3.29-.66v12.96h.58V0h-.58Zm-2.19,0v12.96h.59V0h-.59Zm1.09,0v12.96h.6V0h-.6Zm6.58,0v12.96h.58V0h-.58Zm4.37,0v12.96h.6V0h-.6Zm2.19,0v12.96h.58V0h-.58Zm-1.09,0v12.96h.58V0h-.58Zm-3.29,0v12.96h.6V0h-.6Zm-1.09,0v12.96h.58V0h-.58Zm2.18,0v12.96h.61V0h-.61Zm4.38,0v12.96h.6V0h-.6Zm3.28,0v12.96h.6V0h-.6Zm1.1,0v12.96c.33-.01.58-.3.58-.66V.66c0-.36-.25-.65-.58-.66Zm-2.19,0v12.96h.59V0h-.59Zm-1.1,0v12.96h.6V0h-.6Zm-9.84,0v12.96h.59V0h-.59Zm-1.1,0v12.96h.61V0h-.61Zm-1.09,0v12.96h.6V0h-.6Z"/><path class="cls-12" d="m188.63,116.03c0,52.08-42.23,94.31-94.33,94.31S0,168.1,0,116.03,42.23,21.71,94.3,21.71s94.33,42.22,94.33,94.32Z"/><path class="cls-10" d="m186.91,116.03c0,51.13-41.47,92.6-92.61,92.6S1.72,167.15,1.72,116.03,43.17,23.42,94.3,23.42s92.61,41.46,92.61,92.6Z"/><path class="cls-11" d="m178.72,116.03c0,46.62-37.8,84.41-84.42,84.41S9.9,162.64,9.9,116.03,47.69,31.6,94.3,31.6s84.42,37.8,84.42,84.42Z"/><path class="cls-6" d="m94.18,33.61c-45.44,0-82.29,36.85-82.29,82.3s36.85,82.3,82.29,82.3,82.3-36.85,82.3-82.3-36.85-82.3-82.3-82.3Zm0,162.94c-44.52,0-80.63-36.1-80.63-80.64S49.66,35.27,94.18,35.27s80.64,36.1,80.64,80.64-36.1,80.64-80.64,80.64Z"/><path class="cls-3" d="m175.54,116.03c0,44.86-36.36,81.22-81.23,81.22S13.09,160.88,13.09,116.03,49.46,34.8,94.3,34.8s81.23,36.36,81.23,81.22Z"/><path class="cls-4" d="m175.54,116.03c0,44.86-36.36,81.22-81.23,81.22S13.09,160.88,13.09,116.03,49.46,34.8,94.3,34.8s81.23,36.36,81.23,81.22Z"/><path class="cls-5" d="m169.58,116.03c0,41.56-33.7,75.26-75.28,75.26S19.04,157.59,19.04,116.03,52.74,40.76,94.3,40.76s75.28,33.7,75.28,75.27Z"/><path class="cls-1" d="m33.97,45.79c3.29-1.89,11.17-3.54,10.59,1.53,0,0,18.12-12.94,40.71-15.29,18.82-1.96,31.06,2,32.94,2.94-7.88-3-10.47-5.76-8.53-7.18,3.81-2.77,17.59,1.41,19.94,2.35-10.36-4.71-30.71-8.59-49.89-5.65-29.75,4.56-45.77,21.3-45.77,21.3Z"/><polygon class="cls-17" points="121.22 140.78 106.42 140.78 128.25 101.23 143.04 101.23 121.22 140.78"/><polygon class="cls-17" points="101.37 140.78 86.57 140.78 102.96 111.06 117.75 111.06 101.37 140.78"/><polygon class="cls-17" points="82.02 140.78 67.23 140.78 79.37 117.76 94.17 117.76 82.02 140.78"/><polygon class="cls-17" points="62.34 140.78 47.54 140.78 55.29 126.7 70.09 126.7 62.34 140.78"/><path class="cls-16" d="m153.21,83.06l-.97-.2c-.22-.04-22.69-5.2-35.31,18.93l4.81-.03c9.53-16.41,24.76-15.63,28.73-15.12l9.77,20.39-1.9,1.27-11.96-7.13-2.06,3.45,14.15,8.44,6.9-4.63-12.15-25.38Z"/><path class="cls-16" d="m123.43,79.89l-2.86-.69c.02-3.99-2.7-7.64-6.75-8.6-4.72-1.13-9.47,1.79-10.6,6.51l-.28,1.17-9.51.27c-14.21,0-24.91,5.04-24.91,11.73,0,5.82,7.92,10.37,19.57,11.48l-3.47,9.53h4.29l4.83-13.22-2.74-.13c-11.04-.51-18.46-4.37-18.46-7.65,0-3.64,8.93-7.71,20.95-7.71l11.89-.33-.07-2.56,10.13,2.43.04,2.01-1.82-.07-.92,4.19-5.7-1.53-.78,1.32c-.3.52-7.35,12.76.74,18.11l2.22-3.36c-3.79-2.51-1.47-8.65-.17-11.38l6.73,1.8,1.1-5.02,2.71.1-.1-5.22,3.02.73.94-3.91Zm-15.41-3.7c1.12-1.41,2.99-2.13,4.86-1.68,1.87.45,3.21,1.94,3.57,3.71l-8.43-2.02Z"/><path class="cls-16" d="m81.58,111.43v-4.01c-17.82.69-30.98,8.47-39,15.05-9.09,7.46-13.62,14.87-13.81,15.18l-1.85,3.05h17.44l2-4.02h-11.98c5.48-7.1,21.29-24.19,47.2-25.25Z"/></g></g></svg>