<?xml version="1.0" ?>
<svg xmlns="http://www.w3.org/2000/svg" viewBox="0 0 120 60">
	<path d="M 16.4,24.037 C 15.922,24.993 16.16,25.789 16.798,25.789 C 17.436,25.789 18.391,25.072 18.868,24.117 C 19.345,23.162 19.108,22.365 18.47,22.365 C 17.833,22.285 16.877,23.082 16.4,24.037 M 21.895,20.613 C 21.497,21.808 20.86,23.083 20.143,24.037 C 18.71,26.107 16.719,27.382 15.683,26.984 C 14.568,26.506 14.887,24.436 16.24,22.364 A 8.04,8.04 0.0 0,1 17.275,21.09 L 15.921,21.33 C 11.221,27.144 9.221,34.63 9.551,41.32 C 6.764,40.205 4.773,37.497 4.534,34.073 C 4.136,28.021 8.914,21.809 15.284,20.216 C 17.674,19.659 19.984,19.818 21.884,20.614 L 21.895,20.613" fill="#c40022"/>
	<path d="M 20.153,36.94 L 18.72,37.816 C 18.64,36.383 18.322,34.949 17.764,33.754 C 16.331,30.648 13.782,30.409 12.11,33.197 C 11.075,34.949 10.597,37.417 10.756,39.797 C 12.508,40.354 14.579,40.434 16.729,39.877 C 23.029,38.284 27.879,32.073 27.479,26.02 C 27.239,20.684 23.019,17.26 17.763,17.578 C 17.285,18.135 16.807,18.613 16.33,19.171 C 19.436,18.773 21.905,19.411 23.497,20.684 C 17.922,28.648 18.639,33.107 20.152,36.93 C 20.152,36.85 20.152,36.85 20.152,36.93 C 20.152,36.85 20.152,36.85 20.152,36.93 L 20.153,36.94 M 72.156,27.94 C 73.51,27.94 74.456,28.26 74.943,28.497 L 74.465,30.897 C 73.908,30.577 73.032,30.26 71.995,30.26 C 71.199,30.26 70.641,30.58 70.641,31.216 C 70.641,31.614 71.039,32.012 71.915,32.411 C 73.03,32.968 74.385,33.844 74.385,35.358 C 74.385,36.393 74.065,37.19 73.429,37.828 C 72.553,38.704 71.129,39.182 69.447,39.182 C 68.173,39.182 66.819,38.784 66.182,38.306 L 66.66,35.906 C 67.377,36.384 68.73,36.862 69.766,36.862 C 70.562,36.862 71.12,36.464 71.12,35.906 C 71.12,35.348 70.722,35.03 69.766,34.552 C 68.253,33.756 67.466,32.8 67.466,31.685 C 67.466,29.385 69.366,27.942 72.166,27.942 L 72.156,27.94 M 54.396,27.94 A 6.54,6.54 0.0 0,1 56.626,28.338 L 56.148,30.886 C 55.67,30.646 55.113,30.488 54.396,30.488 C 52.096,30.488 50.733,32.488 50.733,34.39 C 50.733,35.983 51.848,36.62 52.803,36.62 C 53.679,36.62 54.475,36.46 55.431,35.903 L 54.953,38.531 C 54.236,38.851 53.053,39.088 51.927,39.088 C 49.14,39.088 47.387,37.336 47.387,34.708 C 47.387,30.885 50.413,27.938 54.395,27.938 L 54.396,27.94 M 41.496,30.966 C 40.62,31.842 39.983,33.436 39.983,34.709 C 39.983,35.824 40.381,36.541 41.098,36.541 C 42.293,36.541 43.248,35.346 43.646,33.515 L 43.886,32.32 C 43.966,31.922 43.966,31.603 43.966,31.444 C 43.966,30.648 43.568,30.249 42.851,30.249 C 42.294,30.329 41.895,30.569 41.497,30.966 L 41.496,30.966 M 42.611,38.93 L 42.691,38.452 C 42.771,38.054 43.089,37.417 43.248,37.257 C 43.328,37.177 43.248,37.017 43.168,37.017 C 43.088,36.937 42.928,37.017 42.928,37.097 L 42.928,37.177 C 42.848,37.417 42.768,37.973 42.291,38.372 C 41.654,38.929 40.778,39.328 39.821,39.328 C 37.671,39.328 36.715,37.428 36.715,35.585 C 36.715,33.435 37.591,31.285 38.945,29.931 A 6.08,6.08 0.0 0,1 43.325,28.099 C 44.599,28.099 45.555,28.497 46.192,29.214 C 47.068,30.329 46.988,31.922 46.749,33.116 L 45.634,39.168 L 42.608,38.928 L 42.611,38.93 M 79.641,36.78 C 81.313,36.78 82.588,34.38 82.588,32.32 C 82.588,31.842 82.508,30.568 81.314,30.568 C 80.12,30.568 79.084,31.922 78.766,33.992 C 78.526,34.629 78.209,36.779 79.642,36.779 L 79.641,36.78 M 82.428,27.94 C 84.578,27.94 85.932,29.533 85.932,32.08 C 85.932,34.708 84.658,37.416 82.428,38.61 C 80.676,39.566 79.083,39.327 78.288,38.69 C 78.128,38.53 78.048,38.133 78.048,37.973 C 78.048,37.893 77.888,37.813 77.808,37.893 C 77.728,37.893 77.648,38.053 77.648,38.133 C 77.808,38.373 77.888,38.611 77.888,38.85 L 77.171,42.434 L 73.986,42.434 L 76.686,28.1 L 79.473,28.1 L 79.313,28.578 C 79.153,29.374 78.915,29.693 78.756,29.852 C 78.676,29.932 78.756,30.092 78.836,30.092 C 78.916,30.172 79.076,30.172 79.076,30.012 C 79.156,29.772 79.316,29.216 79.793,28.817 C 80.589,28.26 81.465,27.941 82.421,27.941 L 82.428,27.94 M 58.7,24.356 L 61.885,24.356 L 60.213,32.956 L 64.433,28.098 L 67.857,28.098 L 63.477,33.036 L 66.185,38.85 L 62.76,38.85 L 60.212,33.196 L 59.097,38.93 L 55.9,38.93 L 58.687,24.356 C 58.607,24.356 58.687,24.356 58.687,24.356 L 58.7,24.356 M 37.275,27.86 C 37.435,27.86 37.673,27.86 37.832,27.94 L 37.195,31.046 C 37.115,31.046 36.875,30.966 36.717,30.966 C 34.567,30.966 33.691,33.116 33.372,34.868 L 32.576,39.008 L 29.4,39.008 L 31.47,28.108 L 34.257,28.108 L 34.097,28.825 C 33.937,29.542 33.777,29.94 33.619,30.099 C 33.539,30.179 33.619,30.339 33.699,30.339 C 33.779,30.339 33.939,30.339 33.939,30.259 C 34.019,30.019 34.099,29.542 34.576,29.064 C 35.372,28.347 36.328,27.869 37.284,27.869 L 37.275,27.86 M 112.453,31.125 C 112.453,30.568 111.975,30.249 111.338,30.249 C 110.303,30.249 109.506,30.886 109.108,31.682 C 108.788,32.239 108.71,32.319 108.471,32.478 C 108.391,32.558 108.391,32.718 108.471,32.718 C 108.551,32.798 108.631,32.798 108.711,32.798 C 108.951,32.558 108.951,32.4 109.826,32.4 C 111.1,32.32 111.896,32.16 112.296,31.763 C 112.376,31.603 112.456,31.443 112.456,31.126 L 112.453,31.125 M 108.073,34.47 C 108.393,34.71 108.551,35.107 108.551,35.266 C 108.631,35.506 108.711,35.664 108.791,35.823 C 109.189,36.38 109.906,36.619 110.861,36.619 C 112.215,36.619 113.331,36.299 114.604,35.584 L 114.126,38.212 C 112.613,39.008 110.781,39.088 110.144,39.088 C 107.197,39.088 105.444,37.416 105.444,34.548 C 105.444,32.876 106.081,31.203 107.116,29.928 C 108.311,28.574 109.903,27.778 111.736,27.778 C 113.966,27.778 115.479,29.052 115.479,31.043 C 115.479,31.919 115.159,32.715 114.603,33.273 C 113.647,34.229 111.895,34.706 109.267,34.706 C 108.63,34.706 108.471,34.386 108.391,34.149 C 108.311,34.069 108.151,34.069 108.151,34.149 C 107.991,34.229 107.991,34.389 108.071,34.469 L 108.073,34.47 M 103.773,27.94 C 104.569,27.94 105.445,28.1 106.003,28.338 L 105.525,30.886 C 105.047,30.646 104.49,30.488 103.773,30.488 C 101.473,30.488 100.11,32.488 100.11,34.39 C 100.11,35.983 101.225,36.62 102.18,36.62 C 103.056,36.62 103.852,36.46 104.808,35.903 L 104.33,38.531 C 103.613,38.851 102.43,39.088 101.304,39.088 C 98.517,39.088 96.764,37.336 96.764,34.708 C 96.764,30.885 99.79,27.938 103.772,27.938 L 103.773,27.94 M 90.87,30.966 C 89.994,31.842 89.357,33.436 89.357,34.709 C 89.357,35.824 89.755,36.541 90.472,36.541 C 91.667,36.541 92.622,35.346 93.02,33.515 L 93.26,32.32 C 93.34,31.922 93.34,31.603 93.34,31.444 C 93.34,30.648 92.942,30.249 92.225,30.249 A 2.51,2.51 0.0 0,0 90.871,30.966 L 90.87,30.966 M 92.065,38.93 L 92.145,38.452 C 92.225,38.054 92.623,37.417 92.702,37.257 C 92.782,37.177 92.702,37.017 92.622,37.017 C 92.542,36.937 92.382,37.017 92.382,37.097 L 92.382,37.177 C 92.302,37.417 92.222,37.973 91.745,38.372 C 91.108,38.929 90.232,39.328 89.275,39.328 C 87.125,39.328 86.169,37.428 86.169,35.585 C 86.169,33.435 87.045,31.285 88.399,29.931 A 6.08,6.08 0.0 0,1 92.779,28.099 C 94.053,28.099 95.009,28.497 95.646,29.214 C 96.522,30.329 96.442,31.922 96.203,33.116 L 95.088,39.168 L 92.065,38.93"/>
</svg>