<?xml version="1.0" ?>
<svg xmlns="http://www.w3.org/2000/svg" viewBox="0 0 1539 886">
	<style>
		.s0 { fill: #000000 } 
	</style>
	<path id="Layer" fill-rule="evenodd" class="s0" d="m1525.4 1.2l-223.8 241.6 233.3 286.9h-89.4l-191.1-235.6-76.8 82.6v153h-71.2v-528.5h71.2v274.7l253.4-274.7zm-787.7-0.5h49.9l245.2 528.6h-76.3l-65.4-142.2-126.6 63.2-127.1-63.2-64.5 142.6h-77.2l242-528.5zm26.3 372.3l97.6-48.6-98.5-213.8-97.1 213.8zm-639.2 391l-9.6 12.3c-10.9-10.9-26.3-17.7-41.7-17.7-31.8 0-57.2 24.5-57.2 55.4 0 30.8 25.4 55.3 57.2 55.3 15.4 0 30.4-6.3 41.7-16.8l10 10.9c-14.1 13.2-32.7 21.8-52.2 21.8-40.9 0-72.6-31.7-72.6-71.2 0-39.6 32.7-70.9 73.5-70.9 18.6 0.5 37.2 8.6 50.9 20.9zm115.3-4.5v46.3h71.2v15.4h-71.2v48.6h82.1v15h-98v-140.8h95.3v15.5zm248.3 80.8c-3.1 0-6.3 0.4-9.5 0.4h-37.2v44.5h-15.9v-140.7h53.6c35.4 0 55.3 17.2 55.3 47.2 0 23.2-11.3 39.1-31.7 45.9l33.1 47.6h-18.1zm-9.6-15.4c25.4 0 40-11.3 40-33.1 0-21.4-14.6-32.3-40-32.3h-37.2v65.4zm166.6 24.5l-15.9 35.4h-17.2l63.1-140.7h16.8l63.1 140.7h-17.7l-15.9-35.4zm38.1-87.2l-31.3 71.3h63.1zm293.3 122.6v-115.8l-51.3 101.3h-9.6l-51.3-101.3v115.8h-15.4v-140.7h20l51.7 101.2 51.3-101.2h19.5v140.7zm134.9-140.7h15.9v140.7h-15.9zm241 20l-9.5 12.3c-10.9-10.9-26.3-17.7-41.8-17.7-31.7 0-57.2 24.5-57.2 55.4 0 30.8 25.5 55.4 57.2 55.4 15.5 0 30.5-6.4 41.8-16.8l10 10.9c-14.1 13.1-32.7 21.8-52.2 21.8-40.9 0-72.7-31.8-72.7-71.3 0-39.5 32.7-70.9 73.6-70.9 18.6 0.5 37.2 8.7 50.8 20.9zm182.5-7.3l-6.8 15c-12.7-8.6-27.7-11.8-39-11.8-18.2 0-30 6.8-30 18.6 0 36.4 79.5 17.3 79 68.6 0 23.6-20.9 38.6-50.8 38.6-20.5 0-40.9-8.6-54.1-21.3l7.3-14.6c13.2 12.7 30.9 20 46.8 20 20.4 0 33.1-8.2 33.1-21.8 0-37.2-79-17.2-79-67.6 0-22.3 19.5-36.4 48.6-36.4 16.3-0.4 33.1 4.6 44.9 12.7zm-1194.4-227l-119.4-163.5c-16.3 0.5-9.5 0.9-18.6 0.9h-131.2v162.6h-68.6v-528.5h200.3c130.2 0 208.3 67.6 208.3 181.1 0 79.5-38.1 138.5-105.3 166.7 0 0-3.6 1.3-9.5 3.2l129.4 177.5zm-138.1-231.1c64.1 0 139.9-20 139.9-115.8 0-93.1-76.3-112.6-139.9-112.6h-131.2v228.4z"/>
</svg>