<?xml version="1.0" ?>
<svg xmlns="http://www.w3.org/2000/svg" viewBox="0 0 387 68" fill="none">
	<path d="M183.001 56.7388H45.6798L56.6044 67.6739L183.001 56.7388Z" fill="#00B900"/>
	<path d="M58.3833 12.5348V14.1963C55.831 12.5734 53.5494 11.6267 50.4171 11.6267C40.788 11.6267 33.4791 20.398 33.4791 31.1592C33.4791 41.9204 40.788 50.6917 50.4171 50.6917C53.5494 50.6917 55.831 49.745 58.3833 48.1221V49.7643H66.8329V12.5348H58.3833ZM50.4171 41.7079C45.6798 41.7079 42.1995 37.0325 42.1995 31.1399C42.1995 25.2473 45.6798 20.5719 50.4171 20.5719C55.1736 20.5719 58.5186 25.2473 58.5186 31.1399C58.5186 37.0518 55.1736 41.7079 50.4171 41.7079Z" fill="#00B900"/>
	<path d="M126.135 12.5348V34.405C126.135 38.5008 123.312 41.9784 119.213 41.9784C115.114 41.9784 112.291 38.5201 112.291 34.405V12.5348H103.841V34.405C103.841 43.3887 109.99 50.6724 118.962 50.6724C123.119 50.6724 126.154 48.3733 126.154 48.3733V49.7643H134.604V12.5348H126.135Z" fill="#00B900"/>
	<path d="M204.947 49.7643V27.8941C204.947 23.7983 207.77 20.3207 211.869 20.3207C215.968 20.3207 218.791 23.779 218.791 27.8941V49.7643H227.241V27.8941C227.241 18.9104 221.092 11.6267 212.12 11.6267C207.963 11.6267 204.927 13.9258 204.927 13.9258V12.5348H196.478V49.7643H204.947Z" fill="#00B900"/>
	<path d="M9.11634 49.7643V35.3323H15.381L26.2089 49.7643H37.2882L24.1981 32.357C28.2778 29.4397 30.9462 24.6677 30.9462 19.2774C30.9462 10.4289 23.7533 3.24188 14.8977 3.24188H0.279995V49.745H9.11634V49.7643ZM9.11634 12.0904H14.8977C18.8614 12.0904 22.1098 15.3168 22.1098 19.2968C22.1098 23.2767 18.8614 26.5031 14.8977 26.5031H9.11634V12.0904Z" fill="#00B900"/>
	<path d="M157.381 40.9544C156.627 41.476 155.66 41.8624 154.558 41.8624C153.185 41.8624 150.575 40.7998 150.575 37.3029V21.364H157.807V12.5348H150.575V3.2612H142.125V12.5348H137.659V21.364H142.125V37.4188C142.125 45.7264 148.39 50.6916 154.694 50.6916C157.053 50.6916 160.301 49.9188 162.969 48.3539L157.381 40.9544Z" fill="#00B900"/>
	<path d="M87.87 29.9807L102.391 12.5348H90.519L80.3871 25.4984V0.189331H71.6668V49.7643H80.3871V34.4822L92.8586 49.7643H104.711L87.87 29.9807Z" fill="#00B900"/>
	<path d="M176.929 11.5881C167.146 11.5881 160.127 20.1854 160.127 31.1398C160.127 42.6739 168.944 50.7109 177.78 50.7109C182.247 50.7109 187.951 49.1847 192.765 42.3841L185.302 38.0757C179.52 46.5765 169.891 42.2681 168.789 33.748H193.152C195.202 20.3786 186.539 11.5881 176.929 11.5881ZM184.316 26.3485H169.079C170.858 17.6159 182.653 17.1329 184.316 26.3485Z" fill="#00B900"/>
	<path d="M241.22 49.7643V5.57959H268.599V10.9892H246.982V24.9768H266.53V30.3864H246.982V49.7836H241.22V49.7643Z" fill="#00B900"/>
	<path d="M286.504 50.4598C283.584 50.4598 280.955 49.6677 278.596 48.1028C276.237 46.5379 274.381 44.3547 273.008 41.592C271.654 38.8292 270.958 35.6607 270.958 32.1059C270.958 28.5124 271.635 25.3246 273.008 22.5811C274.361 19.8377 276.237 17.6739 278.596 16.109C280.955 14.544 283.584 13.7519 286.504 13.7519C289.192 13.7519 291.589 14.4088 293.716 15.7226C295.843 17.0363 297.429 18.8331 298.492 21.0935L299.111 14.4474H303.887V49.7643H299.111L298.492 43.1182C297.429 45.34 295.843 47.1175 293.716 48.4505C291.589 49.7836 289.172 50.4598 286.504 50.4598ZM287.548 45.0502C289.636 45.0502 291.493 44.5093 293.136 43.4274C294.78 42.3454 296.075 40.8192 297.022 38.8485C297.97 36.8779 298.434 34.6368 298.434 32.0865C298.434 29.4977 297.951 27.2372 297.022 25.3053C296.075 23.3733 294.78 21.847 293.136 20.7651C291.493 19.6831 289.636 19.1422 287.548 19.1422C285.46 19.1422 283.604 19.6831 281.96 20.7651C280.317 21.847 279.021 23.3539 278.074 25.3053C277.126 27.2372 276.662 29.4977 276.662 32.0865C276.662 34.6175 277.126 36.8779 278.074 38.8485C279.021 40.8192 280.317 42.3261 281.96 43.4274C283.604 44.5093 285.46 45.0502 287.548 45.0502Z" fill="#00B900"/>
	<path d="M309.997 49.7643V14.4474H314.772L315.391 21.1708C316.319 18.9103 317.634 17.1136 319.336 15.7612C321.037 14.4281 322.932 13.7519 325.02 13.7519C327.321 13.7519 329.409 14.5054 331.266 16.0317L329.332 21.5765C327.766 20.2434 326.122 19.5672 324.402 19.5672C322.739 19.5672 321.23 20.1082 319.896 21.1901C318.562 22.272 317.499 23.7403 316.706 25.595C315.913 27.4498 315.527 29.517 315.527 31.8354V49.7643H309.997Z" fill="#00B900"/>
	<path d="M334.939 49.7643V14.4474H339.715L340.334 20.9583C341.494 18.7365 343.041 16.9977 344.975 15.7032C346.908 14.4088 349.054 13.7712 351.413 13.7712C354.101 13.7712 356.383 14.4861 358.316 15.9158C360.23 17.3454 361.622 19.432 362.512 22.1561C363.614 19.6252 365.258 17.5773 367.404 16.0703C369.55 14.544 371.948 13.7906 374.577 13.7906C378.27 13.7906 381.209 15.1236 383.414 17.8091C385.599 20.4946 386.701 24.3586 386.701 29.4397V49.8029H381.151V29.7102C381.151 26.2906 380.436 23.6824 379.005 21.8856C377.574 20.0889 375.641 19.1808 373.185 19.1808C371.29 19.1808 369.608 19.7218 368.158 20.8037C366.708 21.8856 365.567 23.3346 364.755 25.1314C363.943 26.9281 363.537 28.8988 363.537 31.0239V49.7836H357.987V29.6909C357.987 26.2712 357.272 23.663 355.841 21.8663C354.41 20.0695 352.496 19.1615 350.079 19.1615C348.146 19.1615 346.444 19.7218 345.013 20.823C343.582 21.9243 342.461 23.3733 341.649 25.1507C340.837 26.9281 340.431 28.8794 340.431 31.0046V49.7643H334.939Z" fill="#00B900"/>
</svg>