<?xml version="1.0" ?>
<svg xmlns="http://www.w3.org/2000/svg" viewBox="0 0 793.33331 1122.6667">
	<defs id="defs6">
		<clipPath id="clipPath18" clipPathUnits="userSpaceOnUse">
			<path id="path16" d="M 0,842 H 595 V 0 H 0 Z"/>
		</clipPath>
	</defs>
	<g transform="matrix(1.3333333,0,0,-1.3333333,0,1122.6667)" id="g10">
		<g id="g12">
			<g clip-path="url(#clipPath18)" id="g14">
				<g transform="translate(389.3721,584.7881)" id="g20">
					<path id="path22" style="fill:#1a3374;fill-opacity:1;fill-rule:evenodd;stroke:none" d="m 0,0 c 0.071,1.08 0.144,2.16 0.071,3.168 0,0.504 0,1.008 -0.071,1.512 z"/>
				</g>
				<g transform="translate(389.3721,559.876)" id="g24">
					<path id="path26" style="fill:#1a3374;fill-opacity:1;fill-rule:evenodd;stroke:none" d="M 0,0 V -0.432 H -0.072 Z"/>
				</g>
				<g transform="translate(116.6362,588.0278)" id="g28">
					<path id="path30" style="fill:#1a3374;fill-opacity:1;fill-rule:evenodd;stroke:none" d="m 0,0 c -4.032,0 -7.272,-2.304 -7.128,-5.04 0.216,-2.88 3.672,-5.184 7.704,-5.184 4.032,0 7.272,2.304 7.128,5.184 C 7.632,-2.304 4.176,0 0,0 m -17.136,15.768 c -2.88,0 -5.112,-1.584 -5.112,-3.528 0.216,-2.088 2.664,-3.744 5.472,-3.744 2.952,0 5.256,1.656 5.112,3.744 -0.072,1.944 -2.52,3.528 -5.472,3.528 M 2.592,16.92 c -4.176,0 -7.416,-2.304 -7.272,-5.04 0.216,-2.88 3.672,-5.184 7.704,-5.184 4.104,0 7.344,2.304 7.128,5.184 -0.072,2.736 -3.528,5.04 -7.56,5.04 m -5.04,-33.768 c -4.032,0 -7.272,-2.304 -7.128,-5.184 0.216,-2.808 3.672,-5.112 7.704,-5.112 4.032,0 7.272,2.304 7.128,5.112 -0.072,2.88 -3.528,5.184 -7.704,5.184 m 103.464,0.72 c -1.368,-1.512 -2.952,-2.52 -4.68,-3.024 -0.792,-0.216 -1.728,-0.36 -2.592,-0.36 -1.728,0 -3.096,0.504 -4.176,1.44 -1.08,1.008 -1.584,2.304 -1.656,3.888 -0.072,2.376 1.008,4.176 3.096,5.4 1.368,0.792 3.168,1.296 5.328,1.584 1.224,0.144 2.52,0.288 4.032,0.288 1.152,0 2.016,-0.072 2.664,-0.072 0.576,-0.072 1.152,-0.072 1.728,-0.144 -0.432,-3.744 -1.656,-6.768 -3.744,-9 m 19.44,17.856 c 0.072,1.296 0.144,2.448 0.144,3.456 0,0.648 -0.072,1.224 -0.144,1.8 -0.504,3.888 -2.376,6.984 -5.616,9.36 -3.672,2.664 -8.784,4.032 -15.264,4.032 -1.08,0 -2.16,-0.072 -3.24,-0.144 -1.44,-0.144 -2.808,-0.288 -4.176,-0.576 -2.448,-0.432 -4.896,-1.152 -7.272,-2.088 L 83.304,6.408 c 2.232,1.224 4.536,2.16 6.912,2.736 2.016,0.504 4.032,0.792 6.12,0.936 h 1.368 c 2.808,0 4.896,-0.648 6.408,-1.872 1.512,-1.224 2.232,-3.096 2.304,-5.544 V 1.728 1.152 c -1.44,0.144 -2.808,0.216 -3.96,0.288 -1.152,0.072 -2.232,0.144 -3.24,0.144 -1.008,0 -1.944,-0.072 -2.88,-0.072 -6.912,-0.36 -12.312,-1.8 -16.272,-4.464 -1.872,-1.296 -3.384,-2.736 -4.464,-4.464 -1.512,-2.304 -2.16,-5.04 -2.088,-8.208 0.072,-2.88 0.72,-5.472 2.088,-7.56 0.576,-0.936 1.296,-1.8 2.16,-2.592 2.736,-2.592 6.408,-3.888 10.872,-3.888 2.88,0 5.4,0.504 7.704,1.512 0.432,0.216 0.792,0.36 1.152,0.576 2.592,1.368 4.68,3.456 6.336,6.12 l -0.72,-7.128 h 12.888 c 0.072,1.656 0.216,3.384 0.432,5.112 0.288,1.8 0.648,4.032 1.152,6.768 l 2.232,13.392 c 0.288,1.656 0.504,3.24 0.576,4.68 z M 3.312,33.12 c -4.104,0 -7.344,-2.304 -7.128,-5.184 0.144,-2.736 3.6,-5.04 7.704,-5.04 4.032,0 7.272,2.304 7.128,5.04 -0.072,2.88 -3.528,5.184 -7.704,5.184 m 280.655,2.664 -11.231,-63.936 v -0.432 h 15.336 l 11.231,64.368 z M 168.48,15.48 c -2.592,2.88 -6.192,4.32 -10.8,4.32 -3.096,0 -5.976,-0.72 -8.784,-2.304 -2.808,-1.512 -5.472,-3.816 -7.848,-6.912 l 1.512,8.568 h -13.968 l -8.136,-46.944 -0.144,-0.792 h 0.144 15.336 l 3.456,19.872 c 0.936,5.184 2.376,9.072 4.392,11.592 1.944,2.52 4.464,3.816 7.56,3.816 1.728,0 3.168,-0.576 4.176,-1.8 1.008,-1.224 1.512,-2.952 1.584,-5.112 0,-0.72 0,-1.44 -0.072,-2.232 -0.072,-0.72 -0.216,-1.584 -0.36,-2.52 l -4.032,-23.616 h 15.408 l 3.384,18.792 c 0.432,2.808 0.792,5.256 1.008,7.416 0.216,2.232 0.36,4.104 0.288,5.688 -0.144,5.256 -1.512,9.288 -4.104,12.168 M 58.536,10.872 C 57.096,9.864 55.224,9.216 52.848,8.928 51.984,8.784 50.976,8.712 49.968,8.712 H 44.28 l 2.52,14.904 h 6.048 0.144 c 2.736,0 4.824,-0.576 6.192,-1.656 1.44,-1.152 2.16,-2.736 2.232,-4.968 0.072,-2.592 -0.936,-4.608 -2.88,-6.12 M 65.52,-0.504 c -0.936,1.512 -2.232,2.736 -3.888,3.816 5.256,0.432 9.288,2.088 12.096,4.896 0.72,0.72 1.368,1.512 1.872,2.448 1.512,2.376 2.232,5.328 2.16,8.784 -0.144,3.168 -0.792,5.832 -2.16,7.992 -0.864,1.512 -2.088,2.736 -3.528,3.816 -3.672,2.664 -9.072,3.96 -16.2,3.96 H 52.848 33.336 l -0.072,-0.144 c -0.288,0.072 -0.576,0.072 -0.864,0.072 h -2.016 c -5.4,0 -9.72,-3.024 -9.504,-6.768 0.144,-3.672 4.608,-6.696 10.008,-6.768 l -0.504,-3.168 c -1.008,0.216 -2.088,0.36 -3.168,0.36 -5.472,0 -9.72,-3.024 -9.576,-6.84 0.144,-3.672 4.752,-6.768 10.224,-6.768 h 0.216 l -0.648,-3.6 c -0.864,0.216 -1.728,0.288 -2.664,0.288 -5.472,0 -9.72,-3.024 -9.576,-6.768 0.144,-3.6 4.536,-6.696 9.936,-6.84 L 24.48,-15.12 c -0.72,0.144 -1.44,0.216 -2.16,0.216 -5.472,0 -9.792,-3.024 -9.648,-6.84 0.216,-3.24 3.816,-6.192 8.424,-6.768 0.36,0 0.72,0 1.08,0.072 l -0.072,-0.144 H 37.8 l 4.392,25.416 h 2.88 c 2.304,0 3.96,-0.36 5.04,-1.08 1.08,-0.72 1.8,-1.944 2.232,-3.744 l 0.504,-2.232 4.176,-18.36 H 72.72 L 67.824,-6.84 c -0.576,2.808 -1.368,4.896 -2.304,6.336 m -85.104,-0.648 c -2.88,0 -5.112,-1.584 -5.112,-3.528 0.216,-2.088 2.664,-3.672 5.472,-3.672 2.952,0 5.256,1.584 5.112,3.672 -0.072,1.944 -2.52,3.528 -5.472,3.528 M -22.032,-18 c -2.88,0 -5.112,-1.656 -5.112,-3.6 0.144,-2.088 2.592,-3.672 5.472,-3.672 2.952,0 5.256,1.584 5.04,3.672 0,1.944 -2.448,3.6 -5.4,3.6 m -31.104,-2.232 c -1.44,0 -2.52,-0.792 -2.52,-1.728 0,-1.008 1.224,-1.8 2.664,-1.8 1.44,0 2.52,0.792 2.52,1.8 -0.072,0.936 -1.297,1.728 -2.664,1.728 m 3.456,46.44 c 1.44,0 2.664,0.864 2.52,1.872 -0.072,0.936 -1.297,1.728 -2.592,1.728 -1.44,0 -2.592,-0.792 -2.592,-1.728 0.144,-1.008 1.296,-1.872 2.664,-1.872 m 31.464,-1.44 c 2.808,0 5.112,1.584 5.04,3.672 -0.144,1.944 -2.52,3.528 -5.472,3.528 -2.808,0 -5.184,-1.584 -5.04,-3.528 0,-2.088 2.52,-3.672 5.472,-3.672 M -35.28,25.92 c 2.088,0 3.744,1.008 3.6,2.52 -0.072,1.368 -1.728,2.52 -3.816,2.52 -1.944,0 -3.6,-1.152 -3.6,-2.52 0.072,-1.512 1.872,-2.52 3.816,-2.52 m 1.368,-11.16 c -2.088,0 -3.672,-1.152 -3.528,-2.52 0,-1.44 1.656,-2.592 3.744,-2.592 2.016,0 3.6,1.152 3.6,2.592 -0.144,1.368 -1.872,2.52 -3.816,2.52 M -36.36,-2.16 c -2.088,0 -3.744,-1.152 -3.6,-2.52 0.072,-1.368 1.728,-2.52 3.816,-2.52 2.016,0 3.6,1.152 3.6,2.52 -0.144,1.368 -1.872,2.52 -3.816,2.52 m -2.592,-16.92 c -1.944,0 -3.6,-1.152 -3.528,-2.52 0.144,-1.368 1.8,-2.52 3.888,-2.52 1.944,0 3.6,1.152 3.528,2.52 -0.144,1.368 -1.8,2.52 -3.888,2.52 m -11.736,15.768 c -1.44,0 -2.52,-0.792 -2.52,-1.728 0.072,-1.008 1.296,-1.8 2.664,-1.8 1.44,0 2.52,0.792 2.52,1.8 0,0.936 -1.296,1.728 -2.664,1.728 m 2.448,16.92 c -1.44,0 -2.52,-0.864 -2.52,-1.728 0.072,-1.08 1.296,-1.872 2.664,-1.872 1.44,0 2.52,0.792 2.52,1.872 0,0.864 -1.224,1.728 -2.664,1.728 M 260.064,1.296 c 0,-0.288 -0.072,-0.72 -0.144,-1.368 h -8.928 -9.072 c 0.791,3.384 2.087,5.976 3.887,7.848 1.513,1.584 3.24,2.52 5.185,2.808 0.36,0 0.792,0.072 1.151,0.072 2.377,0 4.248,-0.792 5.689,-2.304 1.44,-1.512 2.16,-3.6 2.232,-6.192 z m 12.672,0.144 c -0.361,5.76 -2.088,10.224 -5.256,13.464 -3.385,3.528 -8.136,5.328 -14.256,5.328 -0.721,0 -1.513,0 -2.232,-0.072 -3.24,-0.216 -6.264,-0.792 -8.928,-1.8 -3.312,-1.224 -6.12,-3.096 -8.425,-5.544 -2.375,-2.592 -4.248,-5.76 -5.544,-9.432 -1.367,-3.744 -2.015,-7.56 -1.871,-11.376 0.144,-6.84 2.232,-12.24 6.335,-16.2 4.105,-4.032 9.577,-5.976 16.416,-5.976 h 2.017 c 2.088,0.072 4.176,0.288 6.264,0.648 2.736,0.432 5.472,1.152 8.064,2.016 l 1.44,11.736 c -2.448,-1.152 -4.896,-2.088 -7.488,-2.664 -2.52,-0.648 -5.04,-0.936 -7.488,-0.936 h -0.792 c -3.168,0.144 -5.689,0.936 -7.416,2.52 -1.944,1.656 -3.024,4.248 -3.384,7.704 h 10.8 21.024 c 0.287,1.656 0.504,3.24 0.648,4.752 0.072,0.36 0.072,0.792 0.072,1.152 z"/>
				</g>
				<g transform="translate(340.5566,604.6602)" id="g32">
					<path id="path34" style="fill:#f58113;fill-opacity:1;fill-rule:evenodd;stroke:none" d="m 0,0 -2.449,-9.504 -0.36,-1.44 -1.295,0.72 c -0.865,0.432 -1.729,0.792 -2.592,1.152 -0.792,0.36 -1.729,0.576 -2.592,0.864 -0.865,0.216 -1.801,0.36 -2.736,0.432 -0.865,0.144 -1.801,0.216 -2.809,0.216 -2.951,0 -5.543,-0.36 -7.775,-1.152 -3.456,-1.08 -6.552,-3.384 -8.353,-6.624 -1.367,-2.376 -1.943,-5.256 -1.872,-8.568 0.072,-3.096 0.864,-6.264 3.096,-8.568 2.376,-2.448 5.76,-3.24 9.073,-2.952 0.935,0.072 1.872,0.216 2.88,0.432 l 1.367,7.488 h -6.12 -1.512 l 0.288,1.44 1.584,8.424 0.216,0.936 h 0.937 19.295 1.441 l -0.217,-1.44 -4.968,-26.208 c -5.472,-1.872 -11.16,-2.592 -16.92,-2.592 -3.888,0 -7.344,0.504 -10.368,1.512 -4.104,1.368 -7.776,3.744 -10.296,7.128 -0.504,0.72 -1.007,1.368 -1.368,2.088 -2.088,3.456 -3.168,7.56 -3.24,12.384 v 1.296 1.44 c 0.072,0.36 0.072,0.864 0.144,1.44 0.216,2.16 0.72,4.176 1.44,6.12 0.576,1.656 1.225,3.096 2.088,4.536 1.872,3.096 4.68,5.904 7.705,7.92 2.231,1.44 4.68,2.592 7.199,3.312 0.576,0.144 1.224,0.36 1.801,0.504 8.567,1.944 18.071,1.512 26.496,-1.296 L 0.287,1.08 Z"/>
				</g>
				<g transform="translate(262.9399,522.7959)" id="g36">
					<path id="path38" style="fill:#1a3374;fill-opacity:1;fill-rule:nonzero;stroke:none" d="m 0,0 c 1.08,0 1.8,-0.432 2.016,-1.44 l 3.528,1.152 c -0.648,2.376 -2.376,3.6 -5.112,3.6 -1.8,0 -3.24,-0.432 -4.248,-1.368 -1.08,-0.936 -1.656,-2.088 -1.8,-3.528 -0.072,-1.08 0.144,-2.016 0.792,-2.808 0.576,-0.792 2.088,-1.44 4.392,-1.944 C 0.144,-6.48 0.576,-6.624 0.792,-6.768 1.008,-6.984 1.152,-7.2 1.08,-7.56 1.008,-8.136 0.504,-8.424 -0.576,-8.424 c -1.296,0 -2.088,0.576 -2.304,1.728 l -3.816,-0.72 h -0.072 c 0,-0.144 0,-0.216 0.072,-0.36 0.576,-2.736 2.448,-4.176 5.616,-4.176 1.8,0 3.312,0.504 4.464,1.44 1.224,0.936 1.872,2.088 2.016,3.6 0.072,0.936 -0.072,1.8 -0.504,2.448 C 4.536,-3.744 3.96,-3.24 3.312,-2.952 2.664,-2.664 1.584,-2.376 0,-1.944 -0.576,-1.8 -1.008,-1.656 -1.152,-1.512 -1.368,-1.368 -1.44,-1.152 -1.44,-0.864 -1.368,-0.288 -0.864,0 0,0 m -24.12,-1.512 c 0,-0.432 -0.216,-0.792 -0.504,-1.008 -0.36,-0.216 -0.792,-0.36 -1.296,-0.36 h -1.8 l 0.288,2.808 h 1.512 0.36 c 1.08,0 1.584,-0.432 1.44,-1.44 m -0.144,4.608 h -1.656 -5.4 l -1.296,-14.832 h 4.104 l 0.504,5.688 h 1.296 l 0.792,-3.024 0.72,-2.664 h 4.608 l -1.872,6.48 c 1.008,0.504 1.656,1.08 2.016,1.728 0.432,0.648 0.648,1.44 0.72,2.232 0.072,1.368 -0.216,2.376 -1.008,3.168 -0.792,0.792 -2.016,1.224 -3.528,1.224 m 17.28,-3.456 0.288,2.736 v 0.72 h -10.152 l -1.224,-14.832 h 10.08 l 0.36,3.6 h -6.12 l 0.216,2.376 h 4.968 l 0.288,3.312 h -4.968 l 0.216,2.088 z M 106.56,-0.432 h 2.735 l -0.935,-11.304 h 3.889 l 1.006,11.304 h 2.809 l 0.288,3.528 h -9.504 z M -67.536,-5.76 h 4.896 l 0.288,3.312 h -4.896 l 0.144,2.088 h 6.12 v 0.288 l 0.288,3.168 h -0.288 -9.864 l -1.296,-14.832 h 10.152 l 0.288,3.6 h -6.048 z m 203.401,3.168 c 0,1.728 -0.433,3.168 -1.297,4.248 -0.864,1.08 -2.16,1.656 -3.96,1.656 -1.944,0 -3.456,-0.72 -4.68,-2.16 -1.152,-1.368 -1.872,-3.24 -2.089,-5.616 -0.214,-2.304 0.217,-4.176 1.225,-5.472 1.008,-1.296 2.448,-2.016 4.248,-2.016 1.513,0 2.88,0.504 4.032,1.44 1.08,1.008 1.8,2.376 2.159,4.176 l -3.743,0.288 c -0.288,-1.656 -1.009,-2.448 -2.089,-2.448 -0.575,0 -1.007,0.288 -1.296,0.864 -0.359,0.576 -0.431,1.656 -0.288,3.24 0.288,2.88 1.08,4.32 2.376,4.32 0.433,0 0.866,-0.216 1.154,-0.648 0.287,-0.432 0.431,-1.152 0.359,-2.16 z M -39.6,-3.168 h -0.288 -1.44 l 0.288,2.88 h 1.44 0.072 c 1.152,0 1.656,-0.504 1.584,-1.368 -0.072,-0.936 -0.648,-1.44 -1.656,-1.512 m 3.672,5.688 c -0.72,0.36 -1.728,0.576 -3.168,0.576 h -0.504 -5.256 l -1.296,-14.832 h 4.176 l 0.432,5.4 h 1.944 0.432 c 1.512,0 2.736,0.432 3.672,1.296 1.008,0.864 1.584,2.016 1.656,3.456 0.072,0.864 -0.072,1.728 -0.432,2.448 -0.36,0.792 -0.936,1.296 -1.656,1.656 m 152.712,-14.256 h 4.176 l 1.295,14.832 h -4.175 z m -50.543,7.848 c -0.145,-1.8 -0.433,-3.024 -0.792,-3.672 -0.289,-0.576 -0.721,-0.864 -1.225,-1.008 h -0.359 c -1.297,0 -1.873,1.368 -1.585,4.104 0.216,2.592 0.864,4.032 1.944,4.392 h 0.432 c 1.297,0 1.801,-1.224 1.585,-3.816 m -1.297,7.2 h -0.72 c -1.656,-0.216 -3.096,-0.864 -4.248,-2.16 -1.225,-1.44 -1.943,-3.24 -2.16,-5.472 -0.216,-2.304 0.217,-4.176 1.296,-5.544 1.08,-1.368 2.592,-2.088 4.464,-2.088 0.216,0 0.432,0 0.648,0.072 1.584,0.144 3.025,0.792 4.176,2.088 1.296,1.368 2.088,3.312 2.304,5.616 0.144,2.304 -0.287,4.104 -1.369,5.472 -1.006,1.368 -2.519,2.016 -4.391,2.016 M 51.913,3.096 h -4.105 l -1.296,-14.832 h 9.432 l 0.36,3.672 h -5.328 z m 94.247,-6.048 c -0.648,0.288 -1.728,0.576 -3.312,1.008 -0.576,0.144 -0.935,0.288 -1.152,0.432 -0.216,0.144 -0.288,0.36 -0.288,0.648 0.072,0.576 0.576,0.864 1.44,0.864 1.152,0 1.8,-0.432 2.088,-1.44 l 3.527,1.152 c -0.719,2.376 -2.376,3.6 -5.183,3.6 -1.8,0 -3.239,-0.432 -4.247,-1.368 -1.08,-0.936 -1.658,-2.088 -1.729,-3.528 -0.144,-1.08 0.145,-2.016 0.72,-2.808 0.576,-0.792 2.088,-1.44 4.393,-1.944 0.647,-0.144 1.007,-0.288 1.223,-0.432 0.288,-0.216 0.36,-0.432 0.288,-0.792 0,-0.576 -0.576,-0.864 -1.584,-0.864 -1.368,0 -2.16,0.576 -2.376,1.728 l -3.888,-0.72 c 0.503,-3.024 2.377,-4.536 5.688,-4.536 1.8,0 3.312,0.504 4.464,1.44 1.225,0.936 1.872,2.088 2.017,3.6 0.071,0.936 -0.073,1.8 -0.505,2.448 -0.36,0.72 -0.865,1.224 -1.584,1.512 m -196.848,6.048 -2.52,-3.96 -1.728,3.96 h -4.824 l 3.528,-7.128 -4.752,-7.272 -0.288,-0.432 h 0.288 3.528 l 2.952,4.68 2.088,-4.68 h 4.824 l -3.888,7.92 4.536,6.912 z M 79.128,0 c 1.008,0 1.584,-0.72 1.656,-2.304 l 4.032,0.432 c -0.145,1.656 -0.649,2.952 -1.584,3.816 -0.863,0.936 -2.16,1.368 -3.744,1.368 -2.159,0 -3.817,-0.72 -5.039,-2.232 -1.225,-1.512 -1.946,-3.384 -2.089,-5.616 -0.216,-2.232 0.143,-4.032 1.152,-5.4 1.008,-1.296 2.376,-2.016 4.105,-2.016 1.655,0 2.951,0.648 3.886,1.8 0.217,-0.432 0.289,-0.936 0.433,-1.584 h 2.017 l 0.718,8.352 h -6.046 l -0.29,-3.168 h 2.233 C 80.496,-7.128 80.28,-7.56 79.92,-7.92 c -0.432,-0.36 -0.864,-0.504 -1.368,-0.504 -0.576,0 -1.08,0.288 -1.511,0.792 -0.361,0.576 -0.504,1.728 -0.361,3.384 C 76.968,-1.368 77.76,0 79.128,0 M 33.336,-0.432 c 0,-0.576 -0.36,-1.08 -0.936,-1.296 C 32.328,-1.8 32.328,-1.8 32.256,-1.8 c -0.576,0.576 -0.864,1.08 -0.864,1.512 0.072,0.288 0.144,0.504 0.36,0.648 0.144,0.216 0.36,0.288 0.648,0.288 0.36,0 0.576,-0.072 0.72,-0.288 0.216,-0.216 0.288,-0.504 0.216,-0.792 m -2.592,-8.28 c -0.504,0 -0.936,0.144 -1.224,0.432 -0.288,0.288 -0.36,0.72 -0.36,1.224 0.072,0.792 0.432,1.296 1.152,1.584 l 0.432,-0.576 1.584,-2.088 c -0.432,-0.432 -0.936,-0.576 -1.584,-0.576 m 5.328,5.688 c -0.36,-1.224 -0.792,-2.088 -1.152,-2.52 l -1.296,1.584 c 0.72,0.216 1.368,0.648 1.872,1.296 0.576,0.648 0.864,1.44 0.936,2.376 0.144,1.08 -0.216,2.016 -0.936,2.664 -0.648,0.648 -1.656,0.936 -2.952,0.936 H 32.4 C 31.752,3.312 31.248,3.24 30.744,3.096 30.168,2.88 29.664,2.664 29.232,2.304 28.368,1.656 27.936,0.72 27.792,-0.432 c -0.072,-0.864 0.216,-1.872 0.864,-2.88 -2.16,-0.792 -3.312,-2.16 -3.456,-4.032 -0.144,-1.44 0.288,-2.592 1.224,-3.384 0.936,-0.792 2.232,-1.224 3.816,-1.224 0.144,0 0.36,0 0.504,0.072 0.576,0 1.152,0.072 1.656,0.216 0.72,0.216 1.296,0.576 1.8,1.008 0.792,-0.792 1.8,-1.224 3.024,-1.224 0.504,0 1.008,0.072 1.584,0.288 l 0.288,3.168 c -0.36,-0.072 -0.721,-0.072 -0.936,-0.072 -0.577,0 -1.008,0.144 -1.224,0.432 1.08,1.008 1.943,2.52 2.592,4.536 z M 12.888,0 c 1.08,0 1.728,-0.432 2.016,-1.44 l 3.528,1.152 c -0.72,2.376 -2.376,3.6 -5.112,3.6 C 11.448,3.312 10.08,2.88 9,1.944 7.92,1.008 7.344,-0.144 7.272,-1.584 7.128,-2.664 7.416,-3.6 7.992,-4.392 c 0.648,-0.792 2.088,-1.44 4.392,-1.944 0.648,-0.144 1.008,-0.288 1.224,-0.432 0.288,-0.216 0.36,-0.432 0.36,-0.792 -0.072,-0.576 -0.648,-0.864 -1.656,-0.864 -1.368,0 -2.16,0.576 -2.376,1.728 l -3.888,-0.72 c 0.504,-3.024 2.376,-4.536 5.688,-4.536 1.8,0 3.312,0.504 4.464,1.44 1.224,0.936 1.872,2.088 2.016,3.6 0.072,0.936 -0.072,1.8 -0.504,2.448 -0.36,0.72 -0.864,1.224 -1.512,1.512 -0.648,0.288 -1.8,0.576 -3.384,1.008 -0.576,0.144 -0.936,0.288 -1.152,0.432 -0.216,0.144 -0.288,0.36 -0.216,0.648 0,0.576 0.504,0.864 1.44,0.864 m 86.615,0 c 1.08,0 1.801,-0.432 2.017,-1.44 l 3.528,1.152 c -0.648,2.376 -2.377,3.6 -5.112,3.6 -1.8,0 -3.24,-0.432 -4.248,-1.368 -1.08,-0.936 -1.655,-2.088 -1.8,-3.528 -0.072,-1.08 0.145,-2.016 0.792,-2.808 0.575,-0.792 2.016,-1.44 4.392,-1.944 0.576,-0.144 1.008,-0.288 1.223,-0.432 0.217,-0.216 0.361,-0.432 0.288,-0.792 -0.071,-0.576 -0.575,-0.864 -1.655,-0.864 -1.296,0 -2.089,0.576 -2.303,1.728 l -3.889,-0.72 c 0.504,-3.024 2.376,-4.536 5.688,-4.536 1.8,0 3.24,0.504 4.464,1.44 1.153,0.936 1.872,2.088 1.945,3.6 0.143,0.936 -0.073,1.8 -0.433,2.448 -0.432,0.72 -0.937,1.224 -1.584,1.512 -0.649,0.288 -1.8,0.576 -3.313,1.008 -0.575,0.144 -1.007,0.288 -1.151,0.432 -0.216,0.144 -0.288,0.36 -0.288,0.648 C 98.136,-0.288 98.568,0 99.503,0 M 86.688,-11.736 h 4.177 l 1.222,14.832 h -4.103 z m -270.432,3.384 c 0,0 -0.072,-0.072 -0.144,-0.072 -0.432,-0.216 -0.72,-0.288 -1.008,-0.288 -0.432,0 -0.72,0.288 -0.864,0.792 -0.144,0.576 -0.216,2.016 -0.216,4.32 -0.072,1.944 -0.288,3.384 -0.72,4.104 -0.432,0.792 -1.008,1.152 -1.728,1.152 -0.936,0 -1.872,-0.432 -2.736,-1.368 -0.864,-0.936 -1.944,-2.52 -3.24,-4.752 -1.224,-2.232 -1.872,-3.312 -2.016,-3.312 -0.072,0 -0.072,0.072 -0.072,0.216 0,0.288 0.144,0.864 0.432,1.872 0.72,2.88 1.152,4.824 1.224,5.76 0.072,0.864 0.072,1.44 -0.144,1.728 -0.144,0.36 -0.432,0.504 -0.864,0.504 -0.216,0 -0.504,-0.216 -0.864,-0.648 -0.288,-0.432 -0.432,-0.864 -0.504,-1.224 -0.216,-3.096 -0.72,-6.048 -1.44,-8.784 -0.216,-0.864 -0.36,-1.44 -0.36,-1.872 -0.144,-1.08 0.36,-1.584 1.368,-1.584 0.216,0 0.576,0.144 1.08,0.576 0.432,0.432 1.44,2.088 3.096,5.04 1.296,2.16 2.16,3.6 2.736,4.248 0.576,0.576 1.08,0.936 1.584,0.936 0.72,0 1.08,-1.368 1.08,-4.104 0,-2.736 0.144,-4.392 0.504,-5.04 0.36,-0.576 0.864,-0.864 1.584,-0.864 0.72,0 1.296,0.216 1.872,0.648 0.504,0.432 0.792,0.864 0.864,1.296 0,0.432 -0.144,0.72 -0.504,0.72 m 44.64,9.072 c 0.576,0.432 0.864,0.792 0.864,1.224 0.072,0.288 0,0.576 -0.216,0.864 -0.144,0.216 -0.36,0.36 -0.648,0.36 h -0.072 c -0.288,0 -0.576,-0.072 -0.792,-0.144 -0.288,-0.144 -0.72,-0.576 -1.368,-1.224 -0.576,-0.72 -1.44,-1.8 -2.448,-3.24 -1.008,-1.512 -2.376,-3.6 -4.104,-6.336 -0.288,-0.504 -0.576,-0.936 -0.792,-1.224 -0.072,0.36 -0.144,0.792 -0.288,1.368 -0.36,1.224 -0.576,2.448 -0.864,3.816 -0.216,1.368 -0.288,2.304 -0.36,2.808 0,0.504 0.072,1.296 0.144,2.232 0.072,1.152 -0.216,1.728 -1.008,1.728 -0.792,0 -1.224,-0.648 -1.368,-1.944 -0.144,-1.656 0.288,-4.536 1.296,-8.712 0.576,-2.232 0.792,-3.6 0.72,-4.176 0.432,-0.576 0.792,-0.936 1.152,-0.936 0.432,0 1.008,0.792 1.944,2.304 1.728,3.024 3.312,5.472 4.752,7.416 1.44,1.944 2.448,3.096 3.168,3.6 0.072,0.072 0.216,0.144 0.288,0.216 m -28.44,-9.072 c -0.072,0 -0.144,-0.072 -0.216,-0.072 -0.36,-0.216 -0.72,-0.288 -1.008,-0.288 -0.36,0 -0.648,0.288 -0.792,0.792 -0.144,0.576 -0.216,2.016 -0.288,4.32 -0.072,1.944 -0.288,3.384 -0.648,4.104 -0.432,0.792 -1.008,1.152 -1.8,1.152 -0.936,0 -1.872,-0.432 -2.736,-1.368 -0.864,-0.936 -1.944,-2.52 -3.168,-4.752 -1.224,-2.232 -1.944,-3.312 -2.088,-3.312 -0.072,0 -0.072,0.072 -0.072,0.216 0.072,0.288 0.144,0.864 0.432,1.872 0.792,2.88 1.152,4.824 1.296,5.76 0.072,0.864 0,1.44 -0.144,1.728 -0.144,0.36 -0.504,0.504 -0.936,0.504 -0.216,0 -0.504,-0.216 -0.792,-0.648 -0.36,-0.432 -0.504,-0.864 -0.504,-1.224 -0.288,-3.096 -0.792,-6.048 -1.512,-8.784 -0.216,-0.864 -0.288,-1.44 -0.36,-1.872 -0.072,-1.08 0.36,-1.584 1.368,-1.584 0.288,0 0.648,0.144 1.08,0.576 0.432,0.432 1.512,2.088 3.168,5.04 1.224,2.16 2.16,3.6 2.736,4.248 0.576,0.576 1.08,0.936 1.512,0.936 0.72,0 1.152,-1.368 1.152,-4.104 0,-2.736 0.144,-4.392 0.504,-5.04 0.288,-0.576 0.864,-0.864 1.512,-0.864 0.72,0 1.368,0.216 1.872,0.648 0.576,0.432 0.864,0.864 0.864,1.296 0.072,0.432 -0.072,0.72 -0.432,0.72 m 11.448,5.472 c -0.144,-1.872 -0.936,-3.528 -2.304,-5.04 -0.576,-0.648 -1.152,-1.152 -1.656,-1.512 -0.792,-0.504 -1.584,-0.792 -2.304,-0.792 -0.648,0 -1.08,0.288 -1.368,0.936 -0.288,0.576 -0.432,1.296 -0.36,2.232 0.144,1.656 0.792,3.456 1.944,5.256 0.648,1.08 1.368,1.8 2.088,2.232 0.504,0.36 1.08,0.504 1.656,0.504 0.792,0 1.44,-0.36 1.872,-1.08 0.36,-0.72 0.576,-1.584 0.432,-2.736 m -1.872,6.048 c -0.72,0 -1.44,-0.216 -2.088,-0.504 -1.224,-0.504 -2.376,-1.512 -3.456,-3.024 -1.656,-2.304 -2.592,-4.68 -2.808,-7.056 -0.144,-1.368 0.144,-2.592 0.792,-3.528 0.648,-0.936 1.584,-1.44 2.736,-1.44 0.936,0 1.8,0.216 2.736,0.72 0.936,0.504 1.944,1.296 2.952,2.376 1.944,2.016 2.952,4.248 3.168,6.624 0.144,1.584 -0.144,2.952 -0.864,4.104 -0.792,1.152 -1.8,1.728 -3.168,1.728 m -39.312,5.544 c 0.216,0.72 0.36,1.224 0.432,1.584 0,0.144 -0.144,0.36 -0.432,0.576 -0.288,0.216 -0.504,0.288 -0.792,0.288 -0.504,0 -0.936,-0.144 -1.368,-0.576 -0.432,-0.36 -0.648,-0.72 -0.72,-1.08 0,-0.432 0.072,-1.008 0.216,-1.584 0.072,-0.144 0.072,-0.288 0.072,-0.432 0.072,-0.432 0.216,-0.648 0.36,-0.648 0.288,0 0.648,0.144 1.08,0.432 0.504,0.216 0.864,0.72 1.152,1.44 m -3.096,-6.48 c -0.216,0.216 -0.504,0.36 -0.936,0.36 -0.36,0 -0.648,-0.216 -0.864,-0.648 -0.288,-0.432 -0.432,-0.936 -0.432,-1.512 -0.072,-0.288 -0.216,-1.08 -0.576,-2.376 -0.936,-3.672 -1.512,-6.336 -1.656,-8.064 -0.144,-1.584 0.216,-2.448 1.008,-2.448 0.288,0 0.648,0.144 0.936,0.432 0.288,0.216 0.432,0.432 0.432,0.648 0.072,0.072 0.072,0.216 0,0.36 -0.072,0.864 -0.072,1.656 -0.072,2.376 0.144,1.44 0.36,2.736 0.576,3.744 0.288,1.08 0.792,2.808 1.656,5.256 0.144,0.432 0.216,0.864 0.288,1.08 0,0.288 -0.072,0.576 -0.36,0.792 M -82.44,-4.176 c -0.864,-1.296 -1.872,-2.304 -2.88,-3.168 -0.216,-0.072 -0.432,-0.216 -0.576,-0.36 C -87.192,-8.568 -88.2,-9 -88.992,-9 c -0.216,0 -0.432,0.144 -0.648,0.36 -0.144,0.144 -0.216,0.432 -0.216,0.792 0.072,1.08 0.72,2.376 1.872,3.96 0.864,1.224 1.728,2.232 2.664,2.952 0.216,0.216 0.504,0.432 0.792,0.648 1.152,0.792 2.088,1.224 2.808,1.224 0.648,0 0.936,-0.504 0.864,-1.512 -0.072,-0.864 -0.576,-2.088 -1.584,-3.6 m 3.744,6.336 c -0.072,0.072 -0.216,0.144 -0.288,0.288 -0.504,0.432 -1.08,0.648 -1.8,0.648 -1.296,0 -2.808,-0.576 -4.536,-1.8 -0.144,-0.072 -0.216,-0.144 -0.288,-0.216 -1.944,-1.296 -3.456,-2.808 -4.536,-4.608 -1.152,-1.728 -1.8,-3.312 -1.944,-4.752 -0.072,-0.936 0.072,-1.656 0.432,-2.16 0.432,-0.576 1.008,-0.792 1.728,-0.792 1.008,0 2.16,0.36 3.456,1.152 0.36,0.216 0.792,0.504 1.152,0.72 0.72,0.576 1.44,1.224 2.016,1.872 0.504,0.648 0.792,0.864 0.936,0.792 -0.144,-0.504 -0.288,-1.08 -0.432,-1.872 -0.504,-3.168 -1.224,-5.616 -2.088,-7.2 -0.144,-0.288 -0.288,-0.576 -0.432,-0.792 -0.792,-1.08 -1.8,-1.656 -2.952,-1.656 -1.584,0 -3.312,0.72 -5.112,2.16 -0.216,0.144 -0.36,0.216 -0.432,0.36 -0.504,0.288 -0.792,0.504 -0.864,0.504 -0.36,0 -0.504,-0.288 -0.576,-0.72 0,-0.576 0.432,-1.368 1.44,-2.304 0.144,-0.144 0.432,-0.36 0.648,-0.576 1.44,-1.152 2.952,-1.8 4.536,-1.8 0.864,0 1.8,0.288 2.736,0.864 0.144,0.072 0.36,0.216 0.576,0.36 0.648,0.504 1.296,1.224 1.8,2.016 0.72,1.152 1.224,2.232 1.584,3.384 0.36,1.152 0.72,2.808 1.08,4.968 0.432,2.376 0.792,4.104 1.08,5.112 0.288,0.936 0.72,2.232 1.368,3.744 0.144,0.288 0.216,0.504 0.216,0.648 0,0.216 0,0.576 -0.144,0.936 -0.072,0.36 -0.216,0.576 -0.36,0.72 m -15.12,-12.888 c 0.144,0.072 0.36,0.216 0.504,0.36 0.504,0.432 0.792,0.864 0.864,1.296 0,0.432 -0.144,0.72 -0.504,0.72 0,0 -0.072,-0.072 -0.144,-0.072 -0.288,-0.144 -0.504,-0.216 -0.72,-0.288 h -0.288 c -0.432,0 -0.72,0.288 -0.864,0.792 -0.144,0.576 -0.216,2.016 -0.216,4.32 -0.072,1.944 -0.288,3.384 -0.72,4.104 -0.36,0.792 -1.008,1.152 -1.728,1.152 -0.936,0 -1.872,-0.432 -2.736,-1.368 -0.864,-0.936 -1.944,-2.52 -3.168,-4.752 -1.296,-2.232 -1.944,-3.312 -2.088,-3.312 -0.072,0 -0.072,0.072 -0.072,0.216 0,0.288 0.144,0.864 0.432,1.872 0.72,2.88 1.152,4.824 1.224,5.76 0.072,0.864 0.072,1.44 -0.072,1.728 -0.216,0.36 -0.504,0.504 -0.936,0.504 -0.216,0 -0.504,-0.216 -0.864,-0.648 -0.288,-0.432 -0.432,-0.864 -0.504,-1.224 -0.216,-3.096 -0.72,-6.048 -1.44,-8.784 -0.216,-0.864 -0.36,-1.44 -0.36,-1.872 -0.072,-1.08 0.36,-1.584 1.368,-1.584 0.216,0 0.576,0.144 1.08,0.576 0.432,0.432 1.44,2.088 3.096,5.04 1.296,2.16 2.16,3.6 2.736,4.248 0.576,0.576 1.08,0.936 1.584,0.936 0.72,0 1.08,-1.368 1.08,-4.104 0,-2.736 0.144,-4.392 0.504,-5.04 0.36,-0.576 0.864,-0.864 1.584,-0.864 0.504,0 0.936,0.072 1.368,0.288 m -12.672,19.44 c 0.216,0.72 0.432,1.224 0.432,1.584 0,0.144 -0.144,0.36 -0.432,0.576 -0.288,0.216 -0.504,0.288 -0.792,0.288 -0.504,0 -0.936,-0.144 -1.368,-0.576 -0.432,-0.36 -0.648,-0.72 -0.72,-1.08 0,-0.432 0.072,-1.008 0.216,-1.584 0.072,-0.144 0.072,-0.288 0.072,-0.432 0.072,-0.432 0.216,-0.648 0.36,-0.648 0.288,0 0.648,0.144 1.08,0.432 0.504,0.216 0.864,0.72 1.152,1.44 m -23.328,-9.576 c -0.144,-1.656 -1.08,-3.6 -2.952,-5.616 -0.36,-0.432 -0.648,-0.72 -1.008,-1.08 -1.296,-1.368 -2.376,-2.016 -3.096,-2.016 -0.648,0 -0.936,0.504 -0.864,1.584 0.144,1.512 1.08,3.456 2.736,5.688 0.432,0.648 0.864,1.152 1.224,1.584 1.152,1.224 2.16,1.872 2.952,1.872 0.792,0 1.152,-0.648 1.008,-2.016 m 2.448,0.432 c 0.144,0.504 0.216,0.936 0.216,1.224 0.072,0.576 -0.216,0.864 -0.936,0.864 -0.216,0 -0.36,0.144 -0.432,0.432 -0.288,0.864 -0.792,1.296 -1.512,1.296 -1.152,0 -2.448,-0.504 -3.744,-1.512 -0.792,-0.72 -1.656,-1.584 -2.52,-2.664 -1.224,-1.584 -2.16,-3.096 -2.808,-4.536 -0.504,-1.152 -0.792,-2.232 -0.864,-3.312 -0.072,-0.936 0.072,-1.728 0.504,-2.304 0.144,-0.216 0.216,-0.288 0.36,-0.432 0.36,-0.36 0.792,-0.504 1.224,-0.504 1.008,0 2.088,0.432 3.312,1.296 0.288,0.216 0.576,0.432 0.792,0.648 1.008,0.864 2.016,1.944 3.096,3.312 -0.216,-1.872 -0.072,-3.24 0.216,-4.248 0.36,-0.936 0.864,-1.44 1.512,-1.44 0.288,0 0.72,0.144 1.08,0.432 0.36,0.288 0.576,0.576 0.648,0.864 0,0.36 -0.144,0.576 -0.504,0.792 -0.72,0.504 -1.008,1.8 -0.792,4.032 0.072,1.152 0.432,3.096 1.152,5.76 m 16.848,3.024 c -0.36,0 -0.648,-0.216 -0.864,-0.648 -0.288,-0.432 -0.432,-0.936 -0.432,-1.512 -0.072,-0.288 -0.216,-1.08 -0.576,-2.376 -0.576,-2.304 -1.008,-4.248 -1.296,-5.76 -0.216,-0.864 -0.288,-1.656 -0.36,-2.304 -0.072,-1.08 0,-1.8 0.36,-2.16 0.144,-0.216 0.36,-0.288 0.648,-0.288 0.36,0 0.648,0.144 0.936,0.432 0.288,0.216 0.432,0.432 0.504,0.648 0,0.072 0,0.216 -0.072,0.36 -0.072,0.864 -0.072,1.656 0,2.376 0.072,1.44 0.288,2.736 0.504,3.744 0.288,1.08 0.792,2.808 1.656,5.256 0.144,0.432 0.216,0.864 0.288,1.08 0,0.288 -0.072,0.576 -0.288,0.792 -0.288,0.216 -0.576,0.36 -1.008,0.36 m -10.512,-5.976 c 0.576,2.088 0.936,3.168 1.008,3.24 0.144,0.144 0.648,0.216 1.728,0.36 1.008,0.216 2.16,0.288 3.384,0.36 0.576,0.072 0.936,0.216 1.224,0.432 0.216,0.216 0.288,0.504 0.36,0.792 0,0.36 -0.072,0.576 -0.216,0.72 -0.072,0 -0.072,0.072 -0.144,0.072 -0.216,0.072 -0.576,0.072 -1.08,0.072 -0.504,0 -1.152,0 -1.872,-0.144 -0.792,-0.072 -1.584,-0.144 -2.52,-0.216 l 1.008,2.88 c 0.432,1.224 0.648,1.872 0.648,2.016 0,0.216 -0.072,0.504 -0.216,0.792 -0.216,0.216 -0.504,0.36 -0.864,0.36 -0.576,0 -1.008,-0.432 -1.296,-1.44 -0.288,-0.936 -0.576,-1.944 -0.936,-2.952 -0.36,-1.008 -0.648,-1.584 -0.792,-1.8 -0.144,-0.144 -0.288,-0.216 -0.504,-0.216 h -2.592 c -0.504,0 -0.72,-0.288 -0.792,-0.864 -0.072,-0.936 0.432,-1.368 1.512,-1.368 l 1.296,0.144 c 0.216,0 0.288,-0.072 0.288,-0.216 0,-0.432 -0.36,-1.584 -0.936,-3.6 -0.576,-2.016 -0.936,-3.456 -1.008,-4.464 -0.216,-2.592 0.648,-3.888 2.736,-3.888 1.224,0 2.448,0.504 3.672,1.584 1.296,1.008 1.944,1.872 2.016,2.592 0,0.36 -0.144,0.576 -0.504,0.576 -0.288,0 -0.648,-0.216 -1.224,-0.72 -1.368,-1.152 -2.448,-1.8 -3.168,-1.8 -0.504,0 -0.864,0.216 -1.08,0.504 -0.216,0.36 -0.216,1.08 -0.144,2.088 0.072,0.576 0.36,1.944 1.008,4.104"/>
				</g>
				<g transform="translate(182.5879,494.2119)" id="g40">
					<path id="path42" style="fill:#f58113;fill-opacity:1;fill-rule:evenodd;stroke:none" d="M 0,0 C -59.472,6.912 -82.44,6.696 -150.624,-8.352 -98.928,11.664 -54.36,14.04 -1.296,5.976 -2.304,4.176 0.072,2.088 0,0"/>
				</g>
			</g>
		</g>
	</g>
</svg>
