<?xml version="1.0" ?>
<svg xmlns="http://www.w3.org/2000/svg" version="1.2" viewBox="0 0 1450 487">
	<style>
		.s0 { fill: #fdfdfd } 
		.s1 { fill: #da2439 } 
	</style>
	<g id="#fdfdfdff">
		<path id="Layer" class="s0" d="m0 0h1.9c-0.4 162.3-0.6 324.7 0.1 487h-2z"/>
		<path id="Layer" fill-rule="evenodd" class="s0" d="m1262.5 27.9c5.1-3 11.1-3.2 16.9-3.1-1.5 6-3.6 11.8-5.9 17.5 18.2 23.8 46.2 36.6 67.6 57 18.9 16.6 37.5 38.4 37.1 65 0.2 50.4-0.6 100.7-0.7 151.1 0.1 19.5-18.2 30.5-34.7 35.3-22 6.5-44.1 21.5-67.8 14.7-21.7-9.3-29.6-34.6-34.5-55.8-5.3-32.6-1.5-66.4 8.8-97.7 5-14.9 13.7-28.7 26.6-37.9 13-10.3 30.1-15.2 40.5-28.7-18.5-24.3-46.1-38.9-68-59.6-10.7-10.5-22.5-20.4-29.5-33.8 14-8.9 28.8-16.6 43.6-24zm36.6 172.2c-7.1 31.7-12.7 64.2-10.7 96.7 1.6 12.8 1.6 27.5 11.4 37.1 4.7 5.6 13.2 7.4 19.3 2.9 13.1-7.3 9.9-24.3 10.5-36.8-1.1-42.6 2.1-85.4-1.1-127.9-16.8-3.8-26.2 14.3-29.4 28z"/>
		<path id="Layer" fill-rule="evenodd" class="s0" d="m102.2 105.4c10.3-5.1 19.8-15.8 32.1-13.8 12.8 4.4 17.9 18.1 23.5 29.2 14.2-8.8 27.1-19.5 41.4-27.9 10.7-6.6 22.2 2.9 29.4 10.4 18.2 21.4 26.5 49.7 29.7 77.2 0.9 14.8 0.4 33.1-12.7 42.7-11.9 9.1-26.1 15.6-35.3 27.9 10.2 35.7 35 64.3 55.3 94.5-7.7 9.9-18.8 16.6-30.5 20.8-17.6 0.7-29-15.1-38.5-27.8-16-21.3-23.9-47.3-38.7-69.2-2.7 25.2 0.2 50.6-1.7 75.8-16.5 7.1-33.5 13.3-50.8 18.5-0.3-70.7-1-141.5-0.6-212.2 0.3-7.1-0.8-15.4-7.6-19.4-7.8-2.6-16.2-2.5-24.2-4.1 5.3-11.9 19.4-15.2 29.2-22.6zm73.4 25.1c-11.4 9.9-19.3 24.8-18.4 40.2 0.6 21.2-1.5 42.5 1.9 63.5 11 3.4 22.7 3.8 34 2 9.3-3.6 13.5-13.8 13.9-23.1 1.4-22.9 2.7-48-10.6-68-4.4-7-10.8-18.1-20.8-14.6z"/>
		<path id="Layer" class="s0" d="m808 99.3c7.7-6.6 19.9-6.6 27.9-0.5 20.9 14.4 33.6 40.3 31.5 65.7-5.5 54.8-9.7 109.7-14.9 164.5 5.9 2.4 12 4.6 17.8 7.3-6.8 5.3-14.4 9.3-22.3 12.5-15.6 6.4-30.6 14.2-46.9 18.6 3.1-52.4 9.2-104.5 13.1-156.9 1.8-23.1 8-48.3-4.2-69.8-4.2-8.5-16-9.5-23.3-4.6-10.5 6.8-19.1 18.5-18.7 31.5-0.6 51.7-0.5 103.4-0.4 155.1-0.6 6.1 1.1 14.4-5.2 18-12.7 9.2-25.7 18.3-40.1 24.6-2.1-16.3-1-32.8-1.2-49.2 0.2-47.4-0.8-94.8-0.3-142.1 0.1-11.2-0.2-23.9-8.4-32.5-7.9-6.3-17.7 0.5-22.6 7.2-8.3 9.8-6 23.3-6.3 35.1-0.3 52.6 0.6 105.3-0.5 157.9-14.5 9.6-29 19.7-45.4 25.8-1.6-67.6 0.1-135.2-0.8-202.9-1.2-10.1-5.3-23.8-17.1-25.6-6.3-2.7-18.3 0.2-16.6-10.1 13-8.8 27.8-14.3 41.2-22.4 6.2-2.9 13.5-9.2 20.3-4.4 9 8.4 13.5 20.2 20 30.4 13-10.1 23-23.7 36.4-33.4 7.5-6 18.6-4 25 2.5 9.4 8.9 16.1 20.1 24.4 29.9 13.2-9.9 24.7-22 37.6-32.2z"/>
		<path id="Layer" class="s0" d="m1157.5 97.5c6.8-7.3 18.3-8.5 26.3-2.6 20.4 13.6 35.3 38.1 32 63.2-4.6 54.8-8.1 109.6-12.6 164.3 4.9 3.4 9.8 6.6 14.5 10.2-19.7 12.9-39.6 26.6-62 34.3 1.9-57.8 8.9-115.5 12.5-173.2 0.7-18 6.7-37.5-2.7-54.3-4.2-9-17.3-8.4-24.4-3.5-14 10.4-25.9 26.4-25 44.5-0.2 53.8 0.2 107.5-0.2 161.3-14.2 9.8-27.7 21.7-44.5 26.6-3-65.7 0.6-131.7-2.1-197.5-0.1-11.6 1.6-27.2-11.1-33.1-9.3-1.4-19-0.6-27.7-4.8 1.9-4.8 5.2-8.8 10.1-10.7 13.8-6.7 27.7-13.4 41.9-19.4 6.4-2.8 16.1-4.2 20.3 2.8 6.6 10 10 21.7 15.3 32.4 14.4-12.2 26-27.2 39.4-40.5z"/>
		<path id="Layer" fill-rule="evenodd" class="s0" d="m268.5 144.6c11.2-17.4 23.9-33.7 37.4-49.3 23.9 0.5 47.7 0.5 71.6 0.3 5.8 16 8.1 33 11.9 49.5 12.4 54.7 24 109.7 36.2 164.5 2.8 13.6 11.5 24.8 19.4 35.9-12.6 8.3-25.4 16.2-39.3 22.2-8.5-8.1-15.1-17.9-22.4-27-7.8 8.5-13.5 19.6-23.8 25.4-40.1 7.8-79.5-22.5-92.3-59.5-5.9-19.5-7.2-44.3 8.3-59.8 20.9-21.8 50.8-30.6 75-47.7-1.2-17.8-7.1-34.9-11.6-52.1-23.3-3.1-47 0.5-70.4-2.4zm49 102.3c-8.7 9.5-8.6 23.6-6.1 35.5 5.5 21.3 20.3 39.1 37.2 52.7 3.1 3.1 9.1 4.2 12 0.3 6.2-7.6 12.2-16.1 14-25.9-1.4-16.9-6.4-33.2-9.4-49.8-2.7-11.1-3.4-23.2-10.5-32.6-13.3 4.5-27.2 9.5-37.2 19.8z"/>
		<path id="Layer" class="s0" d="m573.1 112.6c4.2-13.1 19.9-16.8 32-17.7-1.7 15.5-6.6 30.5-10.4 45.6-24.1 92-48.3 184-72.2 276-3.6 13.9-10.3 27.3-21.3 36.8-13.5 13.2-34.7 14.5-52 9.6-20.6-7.5-32.5-29.4-35.1-50.2-1.3-5.8 2.6-10.7 7.2-13.7 12.6-8.2 27.1-13.1 42-15 5 11.1 7.5 23.9 15.5 33.5 7.8 8.1 20.9 2.4 25.6-6.2 7-12.8 8.7-27.7 10.3-42-5.5-4.5-11.5-9-13.6-16.3-25.2-69.6-48.9-139.8-74.3-209.4-9.6-1.6-19.4-2.6-29.1-3.6-0.2-3.3-0.5-6.6-0.7-10 21.8-12.4 44.1-24.1 67.5-33.3 18.4 47 32.9 95.6 50.2 143.1 6.1 16.4 9.7 34 18.9 49.1 15-58.3 25.4-117.7 39.5-176.3z"/>
		<path id="Layer" fill-rule="evenodd" class="s0" d="m968.2 98.7c9.3-2.5 20-1.9 27.9 4.1 20.9 13.3 30.8 38.1 32.9 61.9 3.8 46.8 7.8 95-4.3 141-3.6 16.6-16.1 29.6-30.4 37.8-14.6 8.5-29.4 16.8-45.2 22.5-15.6 6.3-33.1-3.2-42.3-15.8-8.6-13.1-14.9-27.9-18.1-43.2-5-37.6-4.8-75.8 1-113.2 4.8-26.1 14.7-53.1 36.2-69.9 13.1-9.9 26.7-19.7 42.3-25.2zm-21.4 44.8c-10.6 28.3-11.8 58.9-13.2 88.7 1.3 31.7 2.3 64.3 13.9 94.1 2.5 7.5 8.6 12.9 16 15.4 17.7-18.8 19.5-46.3 22.7-70.7 3-39.6 2.8-80.2-7.9-118.7-2.4-10-7.7-18.9-14.9-26.1-8.4 2.3-13.9 9.4-16.6 17.3z"/>
	</g>
	<g id="#da2439ff">
		<path id="Layer" fill-rule="evenodd" class="s1" d="m1.9 0h1448.1v487h-1448c-0.7-162.3-0.5-324.7-0.1-487zm1260.6 27.9c-14.8 7.4-29.6 15.1-43.6 24 7 13.4 18.8 23.3 29.5 33.8 21.9 20.7 49.5 35.3 68 59.6-10.4 13.5-27.5 18.4-40.5 28.7-12.9 9.2-21.6 23-26.6 37.9-10.3 31.3-14.1 65.1-8.8 97.7 4.9 21.2 12.8 46.5 34.5 55.8 23.7 6.8 45.8-8.2 67.8-14.7 16.5-4.8 34.8-15.8 34.7-35.3 0.1-50.4 0.9-100.7 0.7-151.1 0.4-26.6-18.2-48.4-37.1-65-21.4-20.4-49.4-33.2-67.6-57 2.3-5.7 4.4-11.5 5.9-17.5-5.8-0.1-11.8 0.1-16.9 3.1zm-1160.3 77.5c-9.8 7.4-23.9 10.7-29.2 22.6 8 1.6 16.4 1.5 24.2 4.1 6.8 4 7.9 12.3 7.6 19.4-0.4 70.7 0.3 141.5 0.6 212.2 17.3-5.2 34.3-11.4 50.8-18.5 1.9-25.2-1-50.6 1.7-75.8 14.8 21.9 22.7 47.9 38.7 69.2 9.5 12.7 20.9 28.5 38.5 27.8 11.7-4.2 22.8-10.9 30.5-20.8-20.3-30.2-45.1-58.8-55.3-94.5 9.2-12.3 23.4-18.8 35.3-27.9 13.1-9.6 13.6-27.9 12.7-42.7-3.2-27.5-11.5-55.8-29.7-77.2-7.2-7.5-18.7-17-29.4-10.4-14.3 8.4-27.2 19.1-41.4 27.9-5.6-11.1-10.7-24.8-23.5-29.2-12.3-2-21.8 8.7-32.1 13.8zm705.8-6.1c-12.9 10.2-24.4 22.3-37.6 32.2-8.3-9.8-15-21-24.4-29.9-6.4-6.5-17.5-8.5-25-2.5-13.4 9.7-23.4 23.3-36.4 33.4-6.5-10.2-11-22-20-30.4-6.8-4.8-14.1 1.5-20.3 4.4-13.4 8.1-28.2 13.6-41.2 22.4-1.7 10.3 10.3 7.4 16.6 10.1 11.8 1.8 15.9 15.5 17.1 25.6 0.9 67.7-0.8 135.3 0.8 202.9 16.4-6.1 30.9-16.2 45.4-25.8 1.1-52.6 0.2-105.3 0.5-157.9 0.3-11.8-2-25.3 6.3-35.1 4.9-6.7 14.7-13.5 22.6-7.2 8.2 8.6 8.5 21.3 8.4 32.5-0.5 47.3 0.5 94.7 0.3 142.1 0.2 16.4-0.9 32.9 1.2 49.2 14.4-6.3 27.4-15.4 40.1-24.6 6.3-3.6 4.6-11.9 5.2-18-0.1-51.7-0.2-103.4 0.4-155.1-0.4-13 8.2-24.7 18.7-31.5 7.3-4.9 19.1-3.9 23.3 4.6 12.2 21.5 6 46.7 4.2 69.8-3.9 52.4-10 104.5-13.1 156.9 16.3-4.4 31.3-12.2 46.9-18.6 7.9-3.2 15.5-7.2 22.3-12.5-5.8-2.7-11.9-4.9-17.8-7.3 5.2-54.8 9.4-109.7 14.9-164.5 2.1-25.4-10.6-51.3-31.5-65.7-8-6.1-20.2-6.1-27.9 0.5zm349.5-1.8c-13.4 13.3-25 28.3-39.4 40.5-5.3-10.7-8.7-22.4-15.3-32.4-4.2-7-13.9-5.6-20.3-2.8-14.2 6-28.1 12.7-41.9 19.4-4.9 1.9-8.2 5.9-10.1 10.7 8.7 4.2 18.4 3.4 27.7 4.8 12.7 5.9 11 21.5 11.1 33.1 2.7 65.8-0.9 131.8 2.1 197.5 16.8-4.9 30.3-16.8 44.5-26.6 0.4-53.8 0-107.5 0.2-161.3-0.9-18.1 11-34.1 25-44.5 7.1-4.9 20.2-5.5 24.4 3.5 9.4 16.8 3.4 36.3 2.7 54.3-3.6 57.7-10.6 115.4-12.5 173.2 22.4-7.7 42.3-21.4 62-34.3-4.7-3.6-9.6-6.8-14.5-10.2 4.5-54.7 8-109.5 12.6-164.3 3.3-25.1-11.6-49.6-32-63.2-8-5.9-19.5-4.7-26.3 2.6zm-889 47.1c23.4 2.9 47.1-0.7 70.4 2.4 4.5 17.2 10.4 34.3 11.6 52.1-24.2 17.1-54.1 25.9-75 47.7-15.5 15.5-14.2 40.3-8.3 59.8 12.8 37 52.2 67.3 92.3 59.5 10.3-5.8 16-16.9 23.8-25.4 7.3 9.1 13.9 18.9 22.4 27 13.9-6 26.7-13.9 39.3-22.2-7.9-11.1-16.6-22.3-19.4-35.9-12.2-54.8-23.8-109.8-36.2-164.5-3.8-16.5-6.1-33.5-11.9-49.5-23.9 0.2-47.7 0.2-71.6-0.3-13.5 15.6-26.2 31.9-37.4 49.3zm304.6-32c-14.1 58.6-24.5 118-39.5 176.3-9.2-15.1-12.8-32.7-18.9-49.1-17.3-47.5-31.8-96.1-50.2-143.1-23.4 9.2-45.7 20.9-67.5 33.3 0.2 3.4 0.5 6.7 0.7 10 9.7 1 19.5 2 29.1 3.6 25.4 69.6 49.1 139.8 74.3 209.4 2.1 7.3 8.1 11.8 13.7 16.3-1.7 14.3-3.4 29.2-10.4 42-4.7 8.6-17.8 14.3-25.6 6.2-8-9.6-10.5-22.4-15.5-33.5-14.9 1.9-29.4 6.8-42 15-4.6 3-8.5 7.9-7.2 13.7 2.6 20.8 14.5 42.7 35.1 50.2 17.3 4.9 38.5 3.6 52-9.6 11-9.5 17.7-22.9 21.3-36.8 23.9-92 48.1-184 72.2-276 3.8-15.1 8.7-30.1 10.4-45.6-12.1 0.9-27.8 4.6-32 17.7zm395.1-13.9c-15.5 5.5-29.2 15.3-42.3 25.2-21.5 16.8-31.4 43.8-36.2 69.9-5.8 37.4-6 75.6-1 113.2 3.2 15.3 9.5 30.1 18.1 43.2 9.2 12.6 26.7 22.1 42.3 15.8 15.8-5.7 30.6-14 45.2-22.5 14.3-8.2 26.8-21.2 30.4-37.8 12.1-46 8.1-94.2 4.3-141-2.1-23.8-12-48.6-32.8-61.9-8-6-18.7-6.6-28-4.1z"/>
		<path id="Layer" class="s1" d="m175.6 130.5c10-3.5 16.4 7.6 20.8 14.6 13.3 20 12 45.1 10.6 68-0.4 9.3-4.6 19.5-13.9 23.1-11.3 1.8-23 1.4-34-2-3.4-21-1.3-42.3-1.9-63.5-0.9-15.4 7-30.3 18.4-40.2z"/>
		<path id="Layer" class="s1" d="m946.8 143.5c2.7-7.9 8.2-15 16.6-17.3 7.2 7.2 12.5 16.1 14.9 26.1 10.7 38.5 10.9 79.1 7.9 118.7-3.2 24.4-5 51.9-22.7 70.7-7.4-2.5-13.5-7.9-16-15.4-11.6-29.8-12.6-62.4-13.9-94.1 1.4-29.8 2.6-60.4 13.2-88.7z"/>
		<path id="Layer" class="s1" d="m1299.1 200.1c3.2-13.7 12.6-31.8 29.4-28 3.2 42.5 0 85.3 1.1 127.9-0.6 12.5 2.6 29.5-10.5 36.8-6.1 4.5-14.6 2.7-19.3-2.9-9.8-9.6-9.8-24.3-11.4-37.1-2-32.5 3.6-65 10.7-96.7z"/>
		<path id="Layer" class="s1" d="m317.5 246.9c10-10.3 23.9-15.3 37.2-19.8 7.1 9.4 7.8 21.5 10.5 32.6 3 16.6 8 32.9 9.4 49.8-1.8 9.8-7.8 18.3-14 25.9-2.9 3.9-8.9 2.8-12-0.3-16.9-13.6-31.7-31.4-37.2-52.7-2.5-11.9-2.6-26 6.1-35.5z"/>
	</g>
</svg>