<?xml version="1.0" ?>
<svg xmlns="http://www.w3.org/2000/svg" viewBox="0 0 164.465 164.465">
	<style type="text/css">.st1{fill:#fff}</style>
	<g id="g43" transform="translate(8.082 50.182)">
		<path id="rect5153" fill="#2859a6" fill-opacity="1" fill-rule="evenodd" stroke-width="1.044" d="M -8.082,-11.986 L 156.383,-11.986 L 156.383,76.086 L -8.082,76.086 L -8.082,-11.986"/>
		<g id="g5783">
			<g id="g5112">
				<path id="polygon5104" fill="#9ab1dc" d="M 148.3,33.6 L 148.3,26.7 L 74.1,6.9 L 0.0,26.7 L 0.0,33.6 L 74.1,13.7 L 148.3,33.6"/>
				<g id="g5110">
					<path class="st1" id="polygon5106" d="M 148.3,26.7 L 148.3,19.9 L 74.1,0.0 L 0.0,19.9 L 0.0,26.7 L 74.1,6.9 L 148.3,26.7"/>
					<path class="st1" id="polygon5108" d="M 141.2,2.7 L 141.2,14.4 L 127.2,10.7 L 127.2,2.7 L 141.2,2.7"/>
				</g>
			</g>
			<g id="g5204" transform="translate(.25)">
				<path class="st1" d="M 19.0,46.4 L 19.4,46.3 C 22.4,45.8 24.4,43.4 24.4,40.1 C 24.4,35.8 21.3,33.4 16.3,33.4 L 7.9,33.4 L 7.9,55.6 L 13.3,55.6 L 13.3,46.9 C 13.3,46.7 13.5,46.6 13.7,46.9 L 19.4,55.6 L 26.3,55.6 L 19.0,46.4 M 14.7,43.6 L 13.3,43.6 L 13.3,37.5 L 14.7,37.5 C 16.6,37.5 18.9,37.8 18.9,40.5 C 18.9,43.2 16.6,43.6 14.7,43.6" id="path5122"/>
				<path class="st1" d="M 38.6,50.9 C 34.7,50.9 31.9,48.3 31.9,44.5 C 31.9,40.7 34.7,38.0 38.5,38.0 C 40.3,38.0 42.5,38.6 43.9,39.7 L 44.0,39.7 L 44.0,33.8 C 42.1,33.1 40.1,32.7 38.3,32.7 C 31.2,32.7 26.1,38.0 26.1,44.4 C 26.1,51.4 31.3,56.1 38.5,56.1 C 40.3,56.1 42.0,55.7 44.0,55.1 L 44.0,49.0 L 43.9,49.0 C 42.5,50.3 40.3,50.9 38.6,50.9" id="path5124"/>
				<g id="g5140">
					<path class="st1" id="polygon5126" d="M 130.8,48.3 L 126.6,39.1 L 121.4,39.1 L 128.4,53.5 L 124.0,64.1 L 128.9,64.1 L 139.9,39.1 L 135.0,39.1 L 130.8,48.3"/>
					<path class="st1" d="M 83.9,39.1 L 83.9,55.6 L 79.1,55.6 L 79.1,39.1 L 83.9,39.1 M 79.1,33.4 L 79.1,36.6 L 83.9,36.6 L 83.9,33.4 L 79.1,33.4" id="path5128"/>
					<path class="st1" id="rect5130" d="M 88.0,33.4 L 92.8,33.4 L 92.8,55.6 L 88.0,55.6 L 88.0,33.4"/>
					<path class="st1" id="rect5132" d="M 96.6,33.4 L 101.4,33.4 L 101.4,55.6 L 96.6,55.6 L 96.6,33.4"/>
					<g id="g5136">
						<path class="st1" d="M 121.7,47.4 C 121.7,42.0 118.4,38.6 113.2,38.6 C 108.1,38.6 104.5,42.1 104.5,47.4 C 104.5,52.7 108.3,56.2 113.7,56.2 C 115.8,56.2 118.3,55.8 120.7,54.7 L 120.7,50.6 L 120.6,50.6 C 118.9,51.7 116.9,52.5 114.0,52.5 C 110.6,52.5 109.4,50.1 109.2,48.5 L 121.6,48.5 L 121.7,47.4 M 109.5,45.1 C 109.6,43.9 110.8,41.9 113.2,41.9 C 115.7,41.9 116.8,43.8 116.9,45.1 L 109.5,45.1" id="path5134"/>
					</g>
					<path class="st1" d="M 72.2,33.4 C 72.1,33.7 68.6,48.1 68.6,48.1 L 68.4,48.1 C 68.4,48.1 64.4,33.7 64.3,33.4 L 60.3,33.4 L 56.0,48.1 L 55.8,48.1 L 52.5,33.4 L 47.0,33.4 L 52.9,55.6 L 58.1,55.6 L 62.2,41.9 L 62.4,41.9 L 66.0,55.6 L 71.2,55.6 L 77.5,33.4 L 72.2,33.4 L 72.2,33.4" id="path5138"/>
				</g>
			</g>
		</g>
	</g>
</svg>