<?xml version="1.0" ?>
<svg xmlns="http://www.w3.org/2000/svg" viewBox="0 0 1541 544">
	<defs>
		<clipPath clipPathUnits="userSpaceOnUse" id="cp1">
			<path d="m-617.61-5315.46h11475.44v6456.26h-11475.44z"/>
		</clipPath>
	</defs>
	<style>
		.s0 { fill: #005034 } 
	</style>
	<g id="Clip-Path: Page 1" clip-path="url(#cp1)">
		<g id="Page 1">
			<path id="Path 22" fill-rule="evenodd" class="s0" d="m182.1 88.1h-90.6v298.9c0 12.5-10.1 22.7-22.7 22.7h-45.1c-12.6 0-22.7-10.2-22.7-22.7v-362.6c0-12.5 10.1-22.4 22.7-22.4h158.4c75 0 136 60.7 136 135.7v9.3c0 31-10.5 60-28.4 83.1 28.1 10.7 54.4 24.8 78.6 41.8q4.1 3 8.3 6c45.2 31.7 101.9 50.2 163.5 50.2 67.5 0 122.2-54.7 122.2-122.3 0-65.1-52.6-117.7-117.7-117.7h-90.6c0 0.6 0 149.9 0 150.3q0 0.3 0 0.6c-1.5 15-17.3 24.5-31.1 18.5q-2.3-0.8-4.7-2.6-6.6-3.9-13.2-8.1-7.5-5.1-14.3-10.8-13.2-9.2-27.2-17.6v-194c0-12.5 10.1-22.4 22.7-22.4h158.4c112.6 0 203.8 91.2 203.8 203.8 0 115.1-93.3 208.4-208.3 208.4q-27.8 0-54.1-3.6c-58.3-8.1-112.1-29-157.5-59.5q-5.4-3.9-10.7-7.5c-45.2-29.9-99.6-47.2-158.4-47.2-12.3 0-22.4-10.2-22.4-22.7v-45.1c0-12.6 10.1-22.8 22.4-22.8h4.8c37.3 0 67.8-30.4 67.8-68.1 0-27.5-22.4-49.6-49.9-49.6zm1347.6 321.6c-6 0-10.9-4.8-10.9-10.6 0-5.9 4.9-10.6 10.9-10.6 6 0 10.9 4.7 10.9 10.6 0 5.8-4.9 10.6-10.9 10.6zm-686-293.8c-15.2 0-28.4-6.3-37.3-17.7-8.1-10.4-12.6-24.2-12.6-39.1 0-28.4 15.8-57.1 52-57.1 23 0 39.5 11.9 39.5 19.7 0 5.1-3.9 9-9 9-3.3 0-6-2.1-9-4.2-5.1-3.6-11-7.8-22.4-7.8-21.8 0-31.7 20.1-31.7 40.4 0 18.5 8.4 40.3 32.3 40.3 20.6 0 28.4-18.2 28.4-29.6v-3.8h-16.1c-5.7 0-9.3-3.3-9.3-8.7 0-5.4 3.6-8.7 9.3-8.7h22.4c8.6 0 12.2 3.9 12.2 13.5 0 35.2-16.7 53.8-48.7 53.8z"/>
			<path id="Path 23" fill-rule="evenodd" class="s0" d="m948.3 115.9c-30.8 0-41.5-24.5-41.5-45.5 0-29.9 20.6-45.7 40.9-45.7 24.5 0 39.2 22.1 39.2 43.6 0 6.6-3.6 9.9-10.5 9.9h-50.2c1.2 12.3 9.9 20.3 22.4 20.3 11.1 0 17-4.4 21.2-7.7 2.4-1.8 4.8-3.6 7.5-3.6 3.9 0 7.8 3 7.8 8.6 0 9.3-19.5 20.1-36.8 20.1zm18.8-53.2c-0.9-9.3-6.2-20.7-19.4-20.7q-0.9 0-1.2 0c-15.5 0-19.4 12.9-20 20.7zm100.7 53.2c-5.7 0-9.6-4.2-9.6-10.2v-45.7c0-13.2-9.2-18-17-18-7.8 0-17 4.8-17 18v45.7c0 6-3.9 10.2-9.6 10.2-6 0-9.9-4.2-9.9-10.2v-70.8c0-6 3.9-10.2 9.9-10.2 4.8 0 8.4 3 9.6 7.8 5.7-5.1 13.1-7.8 21.2-7.8 16.1 0 32.3 10.8 32.3 34.7v46.3c0 6-3.9 10.2-9.9 10.2zm42.4 0c-5.6 0-9.5-4.2-9.5-10.2v-62.8h-3c-6.3 0-9.9-3.2-9.9-8.6 0-5.4 3.6-8.7 9.9-8.7h3v-15.2c0-6 3.9-10.2 9.5-10.2 6 0 9.9 4.2 9.9 10.2v15.2h3c6 0 9.9 3.3 9.9 8.7 0 5.4-3.9 8.6-9.9 8.6h-3v62.8c0 6-3.9 10.2-9.9 10.2zm69.4 0c-30.8 0-41.6-24.5-41.6-45.5 0-29.9 20.4-45.7 40.7-45.7 24.8 0 39.4 22.1 39.4 43.6 0 6.6-3.6 9.9-10.4 9.9h-50.2c1.2 12.3 9.8 20.3 22.4 20.3 11 0 16.7-4.4 20.9-7.7 2.7-1.8 4.8-3.6 7.8-3.6 3.5 0 7.7 3 7.7 8.6 0 9.3-19.7 20.1-36.7 20.1zm18.8-53.2c-0.9-9.3-6.6-20.7-19.7-20.7q-0.6 0-0.9 0c-15.6 0-19.4 12.9-20.3 20.7zm31 72c-5 0-8.9-3.9-8.9-8.7 0-2.1 0.3-4.2 1.8-6.8l8.9-17.4c1.5-3 3.9-7.5 9.9-7.5 5.1 0 9.3 3.9 9.3 8.7 0 2.1-0.6 4.2-2.1 7.2l-9 17.3c-1.5 2.7-3.9 7.2-9.9 7.2zm-403.7 127.9c-15.8 0-32.9-5.9-32.9-15.5 0-5.7 3.3-9.6 8.4-9.6 2.4 0 4.5 1.2 7.2 3 4.2 2.4 9.5 5.4 17.6 5.4 11.7 0 19.7-8.1 19.7-19.4 0-9.6-8-12.6-20.9-17.1-13.7-4.8-31.1-10.4-31.1-31.7 0-14.6 14.1-30.1 35-30.1 14.3 0 29.6 5.9 29.6 15.2 0 4.8-3.6 8.4-8.4 8.4-3.3 0-5.7-1.5-7.8-2.7-3-2.1-6.5-4.2-13.7-4.2-8.7 0-15 5.1-15 12.5 0 8.7 7.8 11.7 20.4 15.9 14 5.1 31.6 11 31.6 33.2 0 24.2-20 36.7-39.7 36.7z"/>
			<path id="Path 24" fill-rule="evenodd" class="s0" d="m950.1 262.6c-4.2 0-8.7-3-9.3-8.3-5.6 5.3-12.8 8.3-20.6 8.3-26.3 0-40-23-40-45.4 0-22.7 13.7-45.7 40-45.7 7.8 0 14.4 2.7 20.6 8 0.9-5.3 5.1-8 9.3-8 4.5 0 9.3 3.3 9.3 9.5v72.1c0 6.2-4.8 9.5-9.3 9.5zm-29.9-73.8c-15.2 0-20.6 15.2-20.6 28.4 0 12.9 5.4 28.1 20.6 28.1 15.3 0 20.6-15.2 20.6-28.1 0-13.2-5.3-28.4-20.6-28.4zm94.2 73.8c-26.9 0-36.5-18.5-36.5-36.1v-44.9c0-5.9 3.9-10.1 9.9-10.1 5.6 0 9.5 4.2 9.5 10.1v44.6c0 12.8 5.4 19.1 17.1 19.1 11.3 0 16.7-6.3 16.7-19.1v-44.6c0-5.9 4.2-10.1 9.8-10.1 6 0 9.9 4.2 9.9 10.1v44.9c0 17.6-9.6 36.1-36.4 36.1zm-11.7-96.5c-5.7 0-9-5.4-9-9.3 0-2.7 1.5-6 7.5-8.3l18.2-7.5c3-1.2 4.8-1.5 6.6-1.5 5.7 0 8.7 5.4 8.7 9.2 0 2.4-1.2 6-7.2 8.4l-18.5 7.2c-3 1.2-4.5 1.8-6.3 1.8zm131.8 96.5c-4.8 0-8.4-2.7-9.3-7.1q-7.4 7.1-20.6 7.1c-19.4 0-39.1-15.5-39.1-45.4 0-29.9 19.7-45.7 39.1-45.7 8.4 0 15.2 3.3 20 7.4v-34c0-6 3.9-10.2 9.9-10.2 5.7 0 9.8 4.2 9.8 10.2v107.6c0 5.9-4.1 10.1-9.8 10.1zm-29-73.8c-15.2 0-20.6 15.2-20.6 28.4 0 12.9 5.4 28.1 20.6 28.1 15.2 0 20.6-15.2 20.6-28.1 0-13.2-5.4-28.4-20.6-28.4zm97.1 73.8c-30.8 0-41.5-24.5-41.5-45.4 0-29.9 20.3-45.7 40.6-45.7 24.8 0 39.5 22.1 39.5 43.6 0 6.6-3.6 9.9-10.5 9.9h-50.2c1.2 12.2 9.9 20.3 22.4 20.3 11.1 0 16.8-4.5 20.9-7.8 2.7-1.8 5.1-3.6 7.8-3.6 3.6 0 7.8 3 7.8 9 0 9.3-19.7 19.7-36.8 19.7zm18.8-53.2c-0.8-9.2-6.2-20.6-19.7-20.6q-0.6 0-0.9 0c-15.5 0-19.4 12.9-20 20.6zm110 53.2c-30.8 0-41.6-24.5-41.6-45.4 0-29.9 20.4-45.7 40.7-45.7 24.8 0 39.4 22.1 39.4 43.6q0 9.9-10.7 9.9h-49.9c1.2 12.2 9.8 20.3 22.1 20.3 11.3 0 17-4.5 21.2-7.8 2.7-1.8 4.8-3.6 7.8-3.6 3.6 0 7.7 3 7.7 9 0 9.3-19.7 19.7-36.7 19.7zm18.8-53.2c-0.9-9.2-6.6-20.6-19.7-20.6q-0.6 0-1.2 0c-15.3 0-19.1 12.9-20 20.6zm-546.6 200.3c-6 0-9.9-3.9-9.9-9.9v-92.9c0-6 3.9-9.9 9.9-9.9h23.9c20.6 0 32 14.7 32 28.1 0 9.9-4.2 18.2-10.8 23 11.4 4.2 19.1 15 19.1 27.5 0 20-15.8 34.1-38.2 34.1zm25.1-16.7c11.9 0 20.3-7.2 20.3-17.4 0-10.1-7.8-17-19.7-17h-17v34.4zm-3.6-50.6c9.5 0 15.5-5.6 15.5-14.6 0-9.3-5.4-14.1-14.9-14.1h-13.2v28.7z"/>
			<path id="Path 25" fill-rule="evenodd" class="s0" d="m920.8 409.7c-30.8 0-41.5-24.5-41.5-45.4 0-29.9 20.6-45.8 40.9-45.8 24.5 0 39.2 22.1 39.2 43.7 0 6.5-3.6 9.8-10.5 9.8h-50.2c1.2 12.3 9.9 20.4 22.4 20.4 11.1 0 17-4.5 21.2-7.8 2.4-1.8 4.8-3.6 7.5-3.6 3.9 0 7.8 3 7.8 8.7 0 9.2-19.5 20-36.8 20zm18.8-53.2c-0.9-9.3-6.2-20.6-19.4-20.6q-0.9 0-1.2 0c-15.5 0-19.1 12.8-20 20.6zm144.9 53.2c-5.9 0-9.8-4.2-9.8-10.2v-46.9c0-10.5-5.7-16.7-15.6-16.7-9.5 0-15.2 6.2-15.2 16.7v46.9c0 6-3.9 10.2-9.9 10.2-5.6 0-9.5-4.2-9.5-10.2v-46.9c0-10.5-5.7-16.7-15.6-16.7-9.8 0-15.2 6.2-15.2 16.7v46.9c0 6-3.9 10.2-9.9 10.2-5.6 0-9.5-4.2-9.5-10.2v-70.8c0-6 3.9-10.2 9.5-10.2 4.8 0 8.1 2.7 9.3 6.9 3.9-3.3 9.6-6.9 19.4-6.9 9.6 0 17.6 4.2 23.6 12.3 6.9-8.4 15-12.3 25.7-12.3 16.2 0 32.3 10.8 32.3 34.7v46.3c0 6-3.9 10.2-9.6 10.2zm33.2-38c-4.8 0-8.7-3.9-8.7-8.6 0-4.8 3.9-8.7 8.7-8.7h32.9c4.8 0 8.9 3.9 8.9 8.7 0 4.7-4.1 8.6-8.9 8.6zm98.6 38c-30.8 0-41.5-24.5-41.5-45.4 0-29.9 20.6-45.8 40.9-45.8 24.5 0 39.1 22.1 39.1 43.7 0 6.5-3.5 9.8-10.4 9.8h-50.2c1.2 12.3 9.8 20.4 22.4 20.4 11.1 0 17-4.5 21.2-7.8 2.4-1.8 4.8-3.6 7.5-3.6 3.9 0 7.8 3 7.8 8.7 0 9.2-19.5 20-36.8 20zm18.8-53.2c-0.9-9.3-6.3-20.6-19.4-20.6q-0.9 0-1.2 0c-15.5 0-19.1 12.8-20 20.6zm60.6 53.2c-18.2 0-34.6-9-34.6-18.5 0-5.1 3.6-9 8.3-9 3.3 0 6 1.8 9 3.9 4.2 2.7 9.3 6.3 17.6 6.3 8.7 0 13.8-4.5 13.8-8.7 0-5.7-8.7-9.3-17.9-13.2-12.9-5-27.5-11-27.5-25.7 0-17 16.4-26.3 31.6-26.3 12.9 0 31.1 6.6 31.1 17.7 0 3.8-3 8.3-9.2 8.3-3.3 0-5.7-1.8-8.1-3.6-3-2.3-6.6-5-13.8-5-5.6 0-11.9 2.1-11.9 8 0 4.5 8.1 7.5 16.4 10.8 12.9 4.8 28.7 11.1 28.7 26.3 0 19.7-17.3 28.7-33.5 28.7zm64.3 0c-5.7 0-9.6-4.2-9.6-10.2v-62.7h-3c-6.2 0-9.8-3.3-9.8-8.7 0-5.1 3.6-8.7 9.8-8.7h3v-15.2c0-6 3.9-10.2 9.6-10.2 6 0 9.9 4.2 9.9 10.2v15.2h2.9c6 0 9.9 3.6 9.9 8.7 0 5.4-3.9 8.7-9.9 8.7h-2.9v62.7c0 6-3.9 10.2-9.9 10.2zm97.7 0c-4.5 0-8.9-3-9.2-8.4-6 5.4-12.9 8.4-21 8.4-26.3 0-40-23-40-45.4 0-22.8 13.7-45.8 40-45.8 8.1 0 14.7 2.4 21 8.1 0.6-5.4 5-8.1 9.2-8.1 4.5 0 9.3 3.3 9.3 9.6v72c0 6.3-4.8 9.6-9.3 9.6zm-30.2-73.8c-15.2 0-20.6 15.2-20.6 28.4 0 12.8 5.4 28.1 20.6 28.1 15.3 0 20.7-15.3 20.7-28.1 0-13.2-5.4-28.4-20.7-28.4zm69.1 73.8c-5.7 0-9.6-4.2-9.6-10.2v-70.8c0-6 3.9-10.2 9.6-10.2 5.6 0 9.2 3.6 9.8 9 4.2-4.8 10.2-9 16.8-9 6.2 0 10.4 4.2 10.4 9.9 0 3.6-1.8 8.4-10.7 10.2-5.1 0.8-16.5 4.4-16.5 21.2v39.7c0 6-3.9 10.2-9.8 10.2zm-1496 52.6c0-4.5 2.4-7.2 7.1-7.2h16.8c14.3 0 23.6 6.6 23.6 21.2 0 10.5-8.1 16.5-17.6 18l16.1 17.3c1.2 1.2 1.8 2.7 1.8 3.9 0 3.9-3 7.5-7.2 7.5-1.5 0-3.9-0.6-5.4-2.4l-20.9-25.4h-0.3v20.3c0 4.8-3 7.5-7.1 7.5-3.9 0-6.9-2.7-6.9-7.5zm14 22.4h9.9c5.1 0 8.7-3 8.7-8.4 0-5.3-3.6-8.3-8.7-8.3h-9.9z"/>
			<path id="Path 26" fill-rule="evenodd" class="s0" d="m103.8 514c0 3.6 0 9-6.3 9-4.2 0-5.7-2.1-6.6-6-3.5 4.2-7.7 6.6-13.1 6.6-12.9 0-22.4-11.1-22.4-26.3 0-15 9.8-26.6 22.4-26.6 5.1 0 10.2 2.1 13.1 6.2 0.3-3.2 3-5.6 6.6-5.6 6.3 0 6.3 5.3 6.3 8.9zm-23.9-3c6.9 0 10.4-7.1 10.4-13.7 0-6.6-3.2-14.1-10.4-14.1-7.5 0-11.1 7.5-11.1 14.1 0 6.6 3.6 13.7 11.1 13.7zm42.4-44.8c-4.3 0-7.8-3.4-7.8-7.6 0-4.2 3.5-7.6 7.8-7.6 4.3 0 7.8 3.4 7.8 7.6 0 4.2-3.5 7.6-7.8 7.6zm-6.9 12.9c0-4.5 3-7.8 6.9-7.8 3.9 0 6.9 3.3 6.9 7.8v36.4c0 4.5-3 7.5-6.9 7.5-3.9 0-6.9-3-6.9-7.5zm72.1 35c0 3.6 0 9-6.6 9-4.2 0-5.7-2.4-6.6-6-3.6 4.2-7.8 6.6-13.1 6.6-12.9 0-22.4-11.1-22.4-26.3 0-15 9.8-26.6 22.4-26.6 5 0 10.1 2 13.1 6.2 0.3-3.3 3.3-5.6 6.6-5.6 6.6 0 6.6 5.3 6.6 8.9zm-24.2-3c6.8 0 10.4-7.1 10.4-13.7 0-6.6-3.3-14.1-10.4-14.1-7.5 0-11.1 7.5-11.1 14.1 0 6.6 3.6 13.7 11.1 13.7zm36.1-48.7c0-4.5 3-7.2 7.5-7.2h15.8c21.2 0 33.5 13.8 33.5 34.7 0 20-12.9 33.2-32.6 33.2h-16.7c-3 0-7.5-1.8-7.5-7.2zm14.4 47.5h9.5c12.3 0 18-9.2 18-20.6 0-12.2-5.7-21.2-18.9-21.2h-8.6zm52.3-31.4c0-4.8 3.5-6.9 6.8-6.9 3.9 0 6.9 1.2 6.9 5.7 2.7-3.9 5.4-5.7 9.6-5.7 3.3 0 6.8 2.4 6.8 7.2 0 4.5-4.1 4.8-8.3 6.6-3.9 2.1-8.1 3.9-8.1 9.2v21c0 4.5-3 7.4-6.9 7.4-3.9 0-6.8-2.9-6.8-7.4zm56.4 45.4c-13.5 0-24.5-11.8-24.5-26.4 0-14.7 11-26.5 24.5-26.5 13.6 0 24.5 11.8 24.5 26.5 0 14.6-10.9 26.4-24.5 26.4zm-10.7-26.3c0 6.6 3.3 13.8 10.7 13.8 7.5 0 10.8-7.2 10.8-13.8 0-6.6-3.3-14-10.8-14-7.4 0-10.7 7.4-10.7 14zm91.7 20.9c0 16.5-10.7 24.8-26.3 24.8-5.7 0-21.5-2.7-21.5-10.1 0-2.7 2.7-6 5.4-6 4.5 0 9.3 4.2 17 4.2 6.6 0 11.7-3.9 11.7-10.8v-3.3h-0.3c-2.7 4.2-7.5 6.6-13.8 6.6-14.3 0-20.9-12.8-20.9-26.3 0-13.7 8.7-26.6 22.4-26.6 4.8 0 9.9 2.1 12.6 6.3 0.9-3.6 3-5.7 6.9-5.7 3.8 0 6.8 3 6.8 7.8zm-24.5-35.3c-7.2 0-10.4 7.5-10.4 13.7 0 7.5 3.2 14.1 10.4 14.1 7.2 0 10.8-6.9 10.8-13.5 0-6.5-3.3-14.3-10.8-14.3zm82.8 30.8c0 3.6 0 9-6.6 9-3.9 0-5.7-2.4-6.6-6-3.5 4.2-7.7 6.6-12.8 6.6-12.9 0-22.7-11.1-22.7-26.4 0-14.9 10.1-26.6 22.7-26.6 5.1 0 9.9 2.1 12.8 6.3 0.3-3.3 3.3-5.7 6.6-5.7 6.6 0 6.6 5.4 6.6 9zm-13.7-16.9c0-7.7-4.8-13.9-10.7-13.9-5.8 0-10.6 6.2-10.6 13.9 0 7.7 4.8 13.9 10.6 13.9 5.9 0 10.7-6.2 10.7-13.9zm54-10.3c-2.3 0-7.7-4.2-12.2-4.2-2.4 0-4.5 1.2-4.5 3.9 0 6.3 23.6 5.4 23.6 20.9 0 9.3-7.8 16.2-19.4 16.2-7.8 0-19.1-4.5-19.1-10.5 0-2.1 2.1-6.3 5.9-6.3 5.4 0 7.8 4.8 14.1 4.8 4.2 0 5.4-1.5 5.4-3.9 0-6.2-23.6-5.3-23.6-20.9 0-9.6 7.7-16.1 18.5-16.1 6.6 0 17 3.3 17 9.8 0 3.3-2.4 6.3-5.7 6.3zm22.5-20.6c-4.3 0-7.8-3.4-7.8-7.6 0-4.3 3.5-7.7 7.8-7.7 4.3 0 7.7 3.4 7.7 7.7 0 4.2-3.4 7.6-7.7 7.6zm-6.9 12.8c0-4.4 3-7.7 6.9-7.7 3.8 0 6.8 3.3 6.8 7.7v36.5c0 4.5-3 7.5-6.8 7.5-3.9 0-6.9-3-6.9-7.5zm25.1-22.1c0-4.5 2.7-7.5 6.9-7.5 3.8 0 6.5 3 6.5 7.5v58.3c0 4.5-2.7 7.7-6.5 7.7-4.2 0-6.9-3.2-6.9-7.7zm89 7.4c0 3.6-2.4 6.9-6.2 6.9-3.6 0-6.6-3-12.3-3-3.9 0-7.8 2.1-7.8 6.3 0 9.6 31.4 3.3 31.4 27.5 0 13.2-11 21.5-23.9 21.5-7.2 0-22.7-1.8-22.7-10.4 0-3.6 2.4-6.6 6.3-6.6 4.2 0 9.5 3.6 15.5 3.6 6.3 0 9.6-3.6 9.6-8.1 0-11.1-31.1-4.2-31.1-26 0-13.2 10.8-21.2 23-21.2 5.4 0 18.2 2.1 18.2 9.5zm17.5 58.6c-4 0-7.3-3.2-7.3-7.3 0-4 3.3-7.3 7.3-7.3 4.1 0 7.3 3.3 7.3 7.3 0 4.1-3.2 7.3-7.3 7.3zm37.8-60.3c1.5-4.2 5.1-7.5 9.9-7.5 5.1 0 8.4 3 10.1 7.5l18.3 50.8c0.3 1.5 0.6 2.7 0.6 3.3 0 3.5-3 6.2-6.3 6.2-4.2 0-6-2.1-6.9-4.8l-3-8.9h-25.7l-2.7 8.6c-1.1 3-2.9 5.1-6.8 5.1-3.6 0-6.9-3-6.9-6.5 0-1.5 0.6-2.7 0.6-3zm1.2 33.7h17.6l-8.6-27.2h-0.3zm53.2 26.6c-4.2 0-7.5-3.2-7.5-7.3 0-4 3.3-7.3 7.5-7.3 4.1 0 7.4 3.3 7.4 7.3 0 4.1-3.3 7.3-7.4 7.3z"/>
		</g>
	</g>
</svg>