<svg xmlns="http://www.w3.org/2000/svg" role="img" viewBox="-45.75 -45.75 2379.00 549.00"><style>svg {enable-background:new 0 0 2289 458}</style><path fill="#e44225" d="M876.2 0h-67.8l-2.7.6c-.2 38.9 0 78.2-.1 117.2-8.5-11.7-20.3-20.1-33.5-25.8-15.3-6.6-32.4-9.3-49-7.8-17.2 1-34 5.5-49.1 13.8-21 11.4-37.8 30.2-49 51.1-11 20.5-16.5 42.9-18.3 66-1.6 27.4.9 54.6 10.9 80.3 9 22.9 24.3 44.4 44.9 58.2 16 10.8 34.4 16.5 53.5 18.4 16.5 1.4 32.9.8 48.8-4.1 20.3-6.2 38.2-19.6 49.3-37.8 2.1 12.2 4.7 24.4 6.8 36.7 18.4.1 36.9.1 55.3 0V4.1 0zm-79.3 274.9c-6.9 11.8-17 21.7-29.8 27.1-8 3.5-16.5 4.8-25.1 5.2-12.4 0-24.5-2.4-34.9-9.3-12.7-8.3-21.3-22.7-25.7-36.9-4.3-14.4-5.6-30.1-3.5-45 2.2-17.1 9.3-33.6 20.1-46.9 8.4-10.1 20.2-17.1 33.2-18.9 15.3-2.2 32.3.7 45.1 9.6 9.1 6.1 16.2 15 21.4 24.6 7.4 14 10.6 29.9 10.2 45.7.3 15.4-3.1 31.3-11 44.8zM2024.3 0h-69.8c-1.3 2.3-.7 5.5-.8 8 0 36.6.1 73.2 0 109.8-8.1-11.4-19.5-19.6-32.2-25.2-15.4-6.9-32.7-9.8-49.5-8.3-21.1 1.2-41.7 7.5-59.2 19.6-19.8 13.6-35.2 34.2-44.8 56.1-9.7 22.4-13.6 46.8-13.4 71.1.1 26.1 4.8 52.5 16.5 76 10 20 25.1 38 44.4 49.6 19 11.4 41.5 16.3 63.5 16.1 13.7.2 27.7-2 40.5-7 17.6-7 32.9-19.1 42.6-35.5 2.4 12.2 4.7 24.5 7 36.7h55.2V11.2c.1-3.9.2-7.6 0-11.2zm-71.6 256.9c-4.8 17.5-16.1 33.8-32.2 42.6-9.7 5.4-20.5 7.4-31.5 7.7-11.3-.3-22.2-2.2-31.9-8.2-11.4-6.8-19.1-17.8-24.4-29.7-6.9-16-8.4-33-7-50.3 1.9-18.2 9-35.7 20.5-49.9 8.3-10.1 20.1-17.1 33.1-18.9 16.6-2.5 34.7 1.1 48.1 11.6 13.4 10.5 22.2 26.3 26.1 42.7 3.8 17.1 3.9 35.5-.8 52.4zM286.5 89.8c-4.1-18.7-12.9-36.2-26.4-49.9C241.6 20.9 217 8 191 3.2c-10.2-2-20.5-2.7-31-2.7H.5v365h78.6c.1-43.6 0-87.2 0-130.7 15.9 0 31.8.1 47.7-.5 10 23.9 19.9 48 30.7 71.6 25.6-16.2 51.4-32.2 77-48.4-5.4-9.5-10.1-19.5-14.4-29.6 17.1-6.7 31.2-18.8 44-31.7 14-14.6 21.4-33.4 24.2-53.2 2.4-17.6 2.1-35.8-1.8-53.2zm-86.1 50.7c-3.9 7.5-10.4 13.3-18 16.9-11 5.3-23.3 6.6-35.4 6.9H79.2V73.8H149c8.8-.1 17.8.5 26.3 2.8 7.9 2.2 15.5 6 20.9 12.3 5.9 6.7 8.5 15.3 9.1 24.1.6 9.2-.5 19.2-4.9 27.5zm978.7 68.5c-2.1-23.4-8.5-46.4-20.2-66.9-11.8-20.3-28.2-38.1-49.7-48.3-15.1-7.3-31.5-10-48.2-10.1-10.8.5-21.4 1.4-31.8 4.5-20.7 5.9-39.2 19.5-50.2 38.2-.3-5.2-1-10.3-1.6-15.4-1-7.1-1.5-14.2-2.8-21.3-19.1.1-38.3 0-57.4 0-.2 120.1 0 240.2-.1 360.2 0 2.7 0 5.3.3 8h70.1c.3-7.3.1-14.7.2-22 .1-33.4-.1-66.8.1-100.2 3.3 4.2 6.4 8.4 10.4 12.1 10.1 9.4 22.5 16.3 35.6 20.5 16.3 5.3 34.2 5.4 51 2.5 19-3.2 36.9-11.8 51.2-24.8 20.8-19.1 33.9-45.5 39.8-72.8 4.3-21.1 5.4-42.9 3.3-64.2zm-76.6 58.5c-4.9 11.9-13 23.1-23.6 30.4-11.4 7.9-26.3 10.6-39.9 8.5-13.3-1.5-25.7-8-34.6-17.9-12.1-13.1-17.2-30.1-18.8-47.5-.6-11.2-.7-22.8 1.4-33.8 2.7-15.9 9-31.1 20.6-42.5 8.3-8.1 19-13.1 30.5-14.6 9.9-1.4 20.5-.8 29.8 2.8 9.6 3.5 17.6 10.3 23.7 18.4 10.5 14.1 16 31.3 17.2 48.7 1.3 16.1-.1 32.4-6.3 47.5zm-523.2-18.3c.2-11 .8-21.4.2-32.2-1.5-26.4-8.4-52.1-23-74.4-16.7-25.6-41.8-45.4-71.4-53.7-24.8-6.9-51.9-6.8-76.6.7-24.7 7.4-45.8 23.1-61.5 43.4-16.2 20.9-25.3 45.9-28.6 72-1.6 13.5-2.3 27.5-1.1 41 1.7 24.7 8.8 49.2 22.8 69.8 15 22.3 37.3 39.5 62.7 48.5 22 7.8 45 9.5 68.2 7.6 20.5-1.9 40.5-7.2 58.4-17.6 13.4-7.5 28.2-17.2 36.8-30.2-10.6-19.9-21.4-39.8-31.9-59.8-1.5 0-3-.1-4.5-.1-5.8 9.8-13.8 17.8-23 24.5-13 9.6-27.7 16.3-43.9 17.9-13.6 1.7-28.1-.6-40.2-7.3-12-6.7-22-17.3-26.8-30.3-2.5-6.4-3.3-13-3.6-19.8h187zm-185.9-50.8c2.1-8.1 5.3-15.9 10-22.9 5.3-8 11.5-15.3 20.1-19.9 10.9-5.9 24.4-7.2 36.5-5.3 11.2 1.7 21.5 7.2 29.2 15.5 8.3 9 15.3 20.2 16.7 32.6H393.4zm1039.4-9.4c.1-15.8-2.8-32-9.2-46.6-5.5-12.5-14-23.7-24.6-32.4-17-14.3-38.1-22.4-60-25-18.2-2.3-36.9-1.4-54.8 2.8-32.2 7.4-61.2 26.5-79.8 54 11.7 18.9 23.1 38 34.7 57 1.6 0 3.2 0 4.8-.1 8.2-16 19.9-29.9 35.2-39.7 11.7-7.6 26-12.4 40-11.9 11-.3 23.8 1.4 32.8 8.1 7.4 5.4 11.6 14.8 9.3 23.8-2.2 7.6-10.2 11.5-17.1 14-19.9 6.8-40.7 11-61.2 15.6-18.3 4.3-37.7 10.9-52.8 22.4-14.2 10.7-23.9 26.7-27.5 44.1-3.2 15.3-2.8 31.7 1.5 46.7 4.6 16 15.2 30.1 29.6 38.6 12.3 7.3 25.8 10.3 39.9 11.7 19.5 1.4 38.9.4 57.1-7.4 10.8-4.6 20.2-11.3 27.9-20.1 4.1-4.5 7.2-9.5 10.4-14.6 2.1 12.3 4.9 24.4 6.9 36.7 18.9.2 37.9 0 56.8.1.1-59.3.1-118.5.1-177.8zm-70.5 77c0 6.8-2.4 13.4-6.4 18.9-4.3 5.9-10.3 10.8-16.5 14.5-14 8.4-31.1 11.3-47.2 9.8-5.8-.8-12.4-2.5-16.4-7-4.6-4.8-5.3-12.2-4.1-18.5 1.5-6.9 6.4-12.2 12.5-15.6 8.6-4.7 19-7.3 28.5-9.4 10.9-2.6 22-5.5 32.4-9.6 5.4-2.2 10.8-4.8 15.1-8.8.7-.7 1.4-1.5 2.1-2.2-.1 9.3 0 18.6 0 27.9zM1626 84.2c17.9.9 36.2 5 51.8 14.1 10.9 6.3 20.2 15.2 27.5 25.5 11.4 16.2 16.9 36.5 16.6 56.2v186.8h-70.5V203c-.1-10.6-1.3-21.8-6-31.5-3.3-7-8.6-12.9-15.3-16.6-7.4-4.1-15.7-5.4-24-5.6-9.8 0-19.7 1.6-28.5 6.1-10.2 5.1-18 13.7-23.6 23.6-8 14.3-11.3 31.6-10.9 47.9v139.7c-23.6.2-47.2 0-70.8.1V100.9c0-3.8 0-7.5.1-11.3 19.2.1 38.4 0 57.6 0 1.6 12.2 2.8 24.4 4.6 36.6 12.2-19.5 32-33.3 54.2-39.1 12-2.9 24.8-4 37.2-2.9zm657.6 69.3c-4.9-16.2-14.2-31-27.1-42.1-14.7-12.9-32.7-21.1-51.8-24.8-23-4.4-47.1-3.6-69.7 2.5-30.2 8.1-57.1 26.8-74.8 52.6 11.6 19 23.1 38 34.6 57 1.6 0 3.2.1 4.8.1 8.3-15.8 19.7-29.7 34.7-39.4 10.1-6.7 21.8-11.1 33.9-12.1 11.2-.4 21.8-.5 32.4 4 6.8 2.9 12.6 7.7 15.4 14.7 2.3 5.9 2.5 13.2-1.8 18.3-4.6 5.6-12.1 8.1-18.8 10.3-15.9 5-32.3 8.6-48.5 12.3-17.7 3.6-36.3 9-52 18.2-10.4 6-19.4 14-25.9 24.1-11 16.7-14.2 37.3-12.2 56.9 1.4 15.1 6.8 29.7 16.9 41.2 9.4 10.9 22 17.7 35.8 21.3 14.3 3.9 28.8 4.5 43.5 3.8 16.6-1.2 32.6-5.3 46.6-14.7 10.6-7 18.7-16.7 25.2-27.5 2.4 12.2 4.7 24.5 7.1 36.7 19 0 38 .1 57-.1V188.5c-.6-11.9-1.7-23.6-5.3-35zm-68.5 125.6c-3.7 8-10.6 14.3-17.9 19.1-14.2 9.1-31.5 12.4-48.2 11.1-6.5-.7-14-2.7-18.2-8.1-3.9-5-4.1-11.1-3.3-17.2 1.4-7.1 6.4-12.5 12.6-15.9 8.9-4.8 19.6-7.3 29.4-9.5 11.1-2.7 22.5-5.6 33-10.1 4.9-2.1 9.8-4.5 13.6-8.2l2.1-2.1v25.9c0 5.1-.8 10.3-3.1 15zm-1967.6-.6c9.1 10.5 18.2 21 27.4 31.5-28 17.7-56 35.2-84.1 52.8-7.4-11.6-14.9-23.1-22.2-34.7l76.5-48c.7-.5 1.5-1.1 2.4-1.6zm47.4 46.5c6.8 4.9 13.9 9.5 20.5 14.6 4.9 8.2 9.3 16.9 14 25.2-12.2 8.6-24.4 17.3-36.6 25.9-1.1.9-2.3.8-3.7.9h-43c-3.1-.1-5.9.5-8.8-.8-9.1-3.7-18.4-7.1-27.5-10.7 28.3-18.4 56.7-36.7 85.1-55.1z"/></svg>