<?xml version="1.0" ?>
<svg xmlns="http://www.w3.org/2000/svg" viewBox="0 0 256 256" fill="none" version="1.2" baseProfile="tiny-ps">
	<rect width="256" height="256" fill="white"/>
	<path d="M127.238 171.932C127.738 171.626 128.262 171.303 128.808 170.962C129.354 171.303 129.878 171.626 130.378 171.932C129.837 172.249 129.313 172.553 128.808 172.843C128.303 172.553 127.78 172.249 127.238 171.932Z" fill="#22C55E"/>
	<path d="M120.959 168.833C121.461 168.514 121.985 168.179 122.53 167.826C123.066 168.145 123.589 168.454 124.099 168.753C123.556 169.087 123.034 169.405 122.533 169.707C122.018 169.424 121.494 169.133 120.959 168.833Z" fill="#22C55E"/>
	<path d="M132.89 168.753C133.4 168.454 133.922 168.145 134.459 167.826C135.004 168.179 135.528 168.514 136.03 168.833C135.495 169.133 134.97 169.424 134.456 169.707C133.955 169.405 133.432 169.087 132.89 168.753Z" fill="#22C55E"/>
	<path d="M127.238 164.398C127.749 164.088 128.272 163.767 128.808 163.436C129.344 163.767 129.867 164.088 130.378 164.398C129.844 164.714 129.32 165.02 128.808 165.317C128.296 165.02 127.773 164.714 127.238 164.398Z" fill="#22C55E"/>
	<path fill-rule="evenodd" d="M51.6352 81.8046C50.6232 82.3881 50 83.4663 50 84.6329V171.367C50 172.534 50.6232 173.612 51.6352 174.195L126.858 217.562C127.869 218.146 129.116 218.146 130.128 217.562C140.331 211.681 195.15 180.078 205.353 174.195C206.365 173.612 206.989 172.534 206.989 171.367V84.6329C206.989 83.4663 206.365 82.3881 205.353 81.8046L130.128 38.4373C129.116 37.8542 127.869 37.8542 126.858 38.4376L51.6352 81.8046ZM141.267 146.513C136.964 150.443 132.733 153.949 128.808 157.005C124.884 153.949 120.654 150.443 116.349 146.513C95.3577 127.342 84.0973 106.171 79.3918 95.7003C77.4922 100.84 76.4329 106.923 76.3741 113.518C83.8721 123.015 96.0665 137.552 107.404 147.035C113.757 152.35 119.464 156.763 124.388 160.361C123.821 160.78 123.265 161.188 122.719 161.584C118.222 158.448 113.2 154.752 107.915 150.562C94.9377 140.273 84.3827 128.387 76.4873 118.034C76.6793 121.327 77.1131 124.72 77.8081 128.158C78.2296 130.252 78.7601 132.333 79.3827 134.389C85.8635 140.838 92.7842 147.159 99.031 151.686C106.359 156.999 112.82 161.316 118.262 164.744C117.687 165.142 117.131 165.523 116.594 165.887C111.842 163.061 106.526 159.703 100.932 155.855C93.7501 150.913 87.1993 145.49 81.3515 140.031C83.7104 145.999 86.8127 151.592 90.3287 156.383C90.9485 156.792 91.5604 157.187 92.1663 157.566C103.95 164.947 113.591 170.072 120.501 173.432C121.156 173.773 121.783 174.094 122.52 174.401L122.669 174.472C123.121 174.685 123.556 174.891 123.955 175.098C125.591 175.861 126.778 176.37 127.88 176.837C128.203 176.978 128.511 177.11 128.815 177.233C129.106 177.11 129.413 176.978 129.737 176.837C130.839 176.37 132.026 175.861 133.635 175.086L133.717 175.048C134.161 174.842 134.623 174.627 135.141 174.423C135.834 174.094 136.461 173.773 137.116 173.432C144.026 170.072 153.667 164.947 165.451 157.566C166.056 157.187 166.668 156.792 167.288 156.383C170.804 151.592 173.906 145.999 176.265 140.031C170.418 145.49 163.867 150.913 156.685 155.855C151.09 159.703 145.774 163.061 141.022 165.887C140.486 165.523 139.93 165.142 139.355 164.744C144.797 161.316 151.257 156.999 158.586 151.686C164.833 147.159 171.753 140.838 178.234 134.389C178.857 132.333 179.387 130.252 179.809 128.158C180.504 124.72 180.938 121.327 181.13 118.034C173.234 128.387 162.679 140.273 149.702 150.562C144.417 154.752 139.395 158.448 134.898 161.584C134.352 161.188 133.795 160.78 133.229 160.361C138.153 156.763 143.86 152.35 150.213 147.035C161.55 137.552 173.745 123.015 181.242 113.518C181.184 106.923 180.125 100.84 178.225 95.7003C173.52 106.171 162.259 127.342 141.267 146.513Z" fill="#22C55E"/>
	<path d="M127.238 171.932C127.738 171.626 128.262 171.303 128.808 170.962C129.354 171.303 129.878 171.626 130.378 171.932C129.837 172.249 129.313 172.553 128.808 172.843C128.303 172.553 127.78 172.249 127.238 171.932Z" fill="white"/>
	<path d="M120.959 168.833C121.461 168.514 121.985 168.179 122.53 167.826C123.066 168.145 123.589 168.454 124.099 168.753C123.556 169.087 123.034 169.405 122.533 169.707C122.018 169.424 121.494 169.133 120.959 168.833Z" fill="white"/>
	<path d="M132.89 168.753C133.4 168.454 133.922 168.145 134.459 167.826C135.004 168.179 135.528 168.514 136.03 168.833C135.495 169.133 134.97 169.424 134.456 169.707C133.955 169.405 133.432 169.087 132.89 168.753Z" fill="white"/>
	<path d="M127.238 164.398C127.749 164.088 128.272 163.767 128.808 163.436C129.344 163.767 129.867 164.088 130.378 164.398C129.844 164.714 129.32 165.02 128.808 165.317C128.296 165.02 127.773 164.714 127.238 164.398Z" fill="white"/>
	<path fill-rule="evenodd" d="M141.267 146.513C136.964 150.443 132.733 153.949 128.808 157.005C124.884 153.949 120.654 150.443 116.349 146.513C95.3577 127.342 84.0973 106.171 79.3918 95.7003C77.4922 100.84 76.4329 106.923 76.3741 113.518C83.8721 123.015 96.0665 137.552 107.404 147.035C113.757 152.35 119.464 156.763 124.388 160.361C123.821 160.78 123.265 161.188 122.719 161.584C118.222 158.448 113.2 154.752 107.915 150.562C94.9377 140.273 84.3827 128.387 76.4873 118.034C76.6793 121.327 77.1131 124.72 77.8081 128.158C78.2296 130.252 78.7601 132.333 79.3827 134.389C85.8635 140.838 92.7842 147.159 99.031 151.686C106.359 156.999 112.82 161.316 118.262 164.744C117.687 165.142 117.131 165.523 116.594 165.887C111.842 163.061 106.526 159.703 100.932 155.855C93.7501 150.913 87.1993 145.49 81.3515 140.031C83.7104 145.999 86.8127 151.592 90.3287 156.383C90.9485 156.792 91.5604 157.187 92.1663 157.566C103.95 164.947 113.591 170.072 120.501 173.432C121.156 173.773 121.783 174.094 122.52 174.401L122.669 174.472C123.121 174.685 123.556 174.891 123.955 175.098C125.591 175.861 126.778 176.37 127.88 176.837C128.203 176.978 128.511 177.11 128.815 177.233C129.106 177.11 129.413 176.978 129.737 176.837C130.839 176.37 132.026 175.861 133.635 175.086L133.717 175.048C134.161 174.842 134.623 174.627 135.141 174.423C135.834 174.094 136.461 173.773 137.116 173.432C144.026 170.072 153.667 164.947 165.451 157.566C166.056 157.187 166.668 156.792 167.288 156.383C170.804 151.592 173.906 145.999 176.265 140.031C170.418 145.49 163.867 150.913 156.685 155.855C151.09 159.703 145.774 163.061 141.022 165.887C140.486 165.523 139.93 165.142 139.355 164.744C144.797 161.316 151.257 156.999 158.586 151.686C164.833 147.159 171.753 140.838 178.234 134.389C178.857 132.333 179.387 130.252 179.809 128.158C180.504 124.72 180.938 121.327 181.13 118.034C173.234 128.387 162.679 140.273 149.702 150.562C144.417 154.752 139.395 158.448 134.898 161.584C134.352 161.188 133.795 160.78 133.229 160.361C138.153 156.763 143.86 152.35 150.213 147.035C161.55 137.552 173.745 123.015 181.242 113.518C181.184 106.923 180.125 100.84 178.225 95.7003C173.52 106.171 162.259 127.342 141.267 146.513Z" fill="white"/>
</svg>