<?xml version="1.0" ?>
<svg xmlns="http://www.w3.org/2000/svg" class="menu-logo-mark" viewBox="0 0 32 29" fill="none">
	<path fill-rule="evenodd" clip-rule="evenodd" d="M6.79931 26.3283C7.27227 27.2657 7.59658 27.5918 8.40737 27.9722C10.0695 28.7602 11.7046 28.3254 12.7991 26.8038L13.2315 26.1925H15.9747H18.7178L19.0827 26.7767C20.5421 29.0862 24.0285 28.8145 25.1095 26.3012C25.4743 25.4317 25.4338 24.2497 25.0014 23.3667L24.7176 22.7689L26.0959 20.3507L27.4743 17.9325L28.231 17.8645C30.4472 17.6608 31.8795 15.6093 31.2579 13.4764C30.8661 12.1178 29.7174 11.194 28.2445 11.0582C27.8391 11.031 27.5013 10.9767 27.4743 10.9495C27.4473 10.9223 27.3121 10.6914 27.1635 10.4332C27.1111 10.3423 27.0018 10.1486 26.8555 9.88949L26.8554 9.88924C26.5864 9.41265 26.1925 8.71492 25.7987 8.02859L24.6906 6.11303L25.0014 5.51526C25.2446 5.05336 25.3122 4.71372 25.3122 3.89858C25.3122 2.98835 25.2581 2.79815 24.9068 2.20039C24.4203 1.42601 23.3528 0.705977 22.4609 0.570122C21.2177 0.39351 19.7989 1.04562 19.0827 2.14605L18.7178 2.68947H15.9071H13.0964L12.7991 2.14605C12.2991 1.26299 11.0289 0.529365 9.94785 0.51578C8.75871 0.502194 7.38038 1.38526 6.7858 2.55361C6.42095 3.28723 6.46149 4.78164 6.88039 5.52885L7.20471 6.11303L6.88039 6.67004C6.70472 6.98251 6.08312 8.06935 5.48855 9.08827L4.42102 10.9495L3.65077 11.0446C1.78597 11.2755 0.52926 12.6477 0.515747 14.441C0.515747 16.3294 1.98867 17.8917 3.77239 17.9053H4.40751L5.00208 18.965C5.19591 19.2923 5.4787 19.7852 5.76369 20.2819C5.97541 20.6508 6.18834 21.0219 6.3669 21.3289C6.79931 22.0489 7.13714 22.7146 7.13714 22.7961C7.13714 22.8776 7.00201 23.2037 6.83985 23.5161C6.46149 24.2633 6.43446 25.6355 6.79931 26.3283ZM9.92083 24.1547C10.6776 24.1547 11.0424 24.9834 10.5154 25.5132C9.97488 26.0566 9.15059 25.7442 9.13707 25.0105C9.12356 24.4264 9.36679 24.1547 9.92083 24.1547ZM22.569 25.554C23.0961 25.0785 22.7177 24.1547 21.988 24.1547C21.515 24.1547 21.1907 24.4807 21.1907 24.929C21.1907 25.6762 22.0285 26.0566 22.569 25.554ZM19.1638 22.7825C19.1638 22.8504 19.0962 23.0814 19.0016 23.2716L18.853 23.6112H15.9882H13.1099L12.8802 23.258L12.8776 23.254C12.8172 23.1615 12.77 23.0892 12.7463 23.0099C12.6611 22.725 12.8785 22.3496 13.8769 20.6262L13.9342 20.5273L14.9071 18.8699L15.9476 18.8563H16.9746L18.0692 20.7447C18.6773 21.7908 19.1638 22.701 19.1638 22.7825ZM11.5694 19.4948L12.7045 17.4977L12.3802 16.9815C12.2045 16.7098 11.9883 16.3158 11.8937 16.0984L11.7316 15.7316L9.40733 15.7588L7.08309 15.7995L6.85337 16.2071L6.62365 16.6147L7.94792 18.9242C8.67763 20.2013 9.33977 21.3153 9.43436 21.4104C9.51544 21.5055 9.7857 21.5734 10.0019 21.5462C10.3803 21.5055 10.5154 21.3424 11.5694 19.4948ZM23.9609 18.9378C23.2312 20.2013 22.542 21.3153 22.4339 21.4104C22.1366 21.6413 21.6772 21.6142 21.4339 21.3424C21.3123 21.2066 20.7583 20.2828 20.1907 19.291L19.1638 17.4841L19.6367 16.7777C19.8935 16.3973 20.1097 16.0033 20.1097 15.9082C20.1097 15.7724 20.6637 15.7316 22.4745 15.7316H24.8392L25.0554 16.1935L25.2717 16.6418L23.9609 18.9378ZM16.7314 16.0712C17.3665 15.7452 17.6773 15.2289 17.6773 14.5225C17.6773 13.6938 17.4476 13.2862 16.799 12.9058C15.9341 12.4031 14.9882 12.6884 14.4342 13.5987C13.5423 15.0659 15.2044 16.8592 16.7314 16.0712ZM4.27237 13.7209C4.78587 13.9655 4.86695 14.7942 4.40751 15.1067C4.00211 15.392 3.6778 15.3784 3.35349 15.0523C2.67783 14.373 3.40754 13.3134 4.27237 13.7209ZM28.6094 14.9708C28.9607 14.5225 28.9607 14.3595 28.6499 13.9655C28.177 13.3813 27.1365 13.7617 27.1365 14.5225C27.1365 14.8893 27.6094 15.324 28.0013 15.324C28.204 15.324 28.4472 15.1746 28.6094 14.9708ZM12.4748 11.7918C12.3667 11.8869 12.1505 12.2265 12.0018 12.5526L11.7451 13.1503H9.40733H7.06958L6.83985 12.7428C6.82626 12.719 6.81311 12.6971 6.8007 12.6764C6.76619 12.6189 6.7373 12.5707 6.71991 12.5187C6.63053 12.2516 6.84424 11.883 8.15572 9.62129L8.39385 9.21054C9.36617 7.51343 9.38029 7.51234 9.9063 7.47166L9.90732 7.47159L10.4478 7.44441L11.5694 9.38715C12.1775 10.4604 12.6775 11.4114 12.6775 11.4793C12.6775 11.5608 12.5829 11.6967 12.4748 11.7918ZM25.0898 12.654C25.1203 12.5991 25.1458 12.5532 25.161 12.504C25.2388 12.2529 25.048 11.9184 23.8814 9.8735C23.7609 9.6623 23.63 9.43285 23.4879 9.18337L22.5015 7.44441H22.0015C21.5015 7.44441 21.4745 7.47159 20.7448 8.70787C20.3394 9.38715 19.8259 10.2838 19.5962 10.6914L19.1773 11.425L19.5556 11.982C19.7718 12.2945 19.9745 12.6749 20.0286 12.8515C20.1232 13.1503 20.1637 13.1503 22.4745 13.1503H24.8257L25.0419 12.7428C25.0587 12.7101 25.0748 12.681 25.0898 12.654L25.0898 12.654ZM19.1232 6.22171C19.0827 6.37115 18.5827 7.30856 18.0016 8.3003L16.9611 10.1072L15.9476 10.0936C15.4071 10.0936 14.9071 10.0393 14.8531 9.95774C14.799 9.88981 14.5423 9.45508 14.2991 9.00675C14.0558 8.55843 13.5829 7.7433 13.245 7.18629C12.8501 6.51849 12.7175 6.29428 12.7363 6.08362C12.7459 5.97715 12.7941 5.87413 12.8667 5.71905L13.0829 5.27072H15.9206H18.7584L18.9746 5.61036C19.0962 5.80056 19.1638 6.07227 19.1232 6.22171ZM10.5019 4.50993C10.8532 4.06161 10.8667 3.72197 10.5154 3.36875C10.137 2.98835 9.65057 3.02911 9.31274 3.46385C8.98843 3.87141 9.04248 4.25181 9.46139 4.6322C9.83975 4.95826 10.1776 4.9175 10.5019 4.50993ZM22.8123 3.9801C22.8123 4.17029 22.6907 4.44201 22.542 4.59145C22.2177 4.9175 21.8934 4.93109 21.488 4.64579C20.8664 4.21105 21.2583 3.09704 22.0285 3.09704C22.3799 3.09704 22.8123 3.58612 22.8123 3.9801Z" fill="#41E59D"/>
</svg>