<?xml version="1.0" ?>
<!-- Generator: Adobe Illustrator 26.2.1, SVG Export Plug-In . SVG Version: 6.00 Build 0)  -->
<svg xmlns="http://www.w3.org/2000/svg" xmlns:xlink="http://www.w3.org/1999/xlink" viewBox="0 0 300 147.7">
	<style type="text/css">
	.st0{display:none;}
	.st1{display:inline;}
	.st2{fill:#FFFFFF;}
	.st3{fill:#03A891;}
	.st4{fill:#1A2450;}
</style>
	<g id="Layer_1_copy_2" class="st0">
		<g class="st1">
			<path id="fullLogo_00000095331240808489116660000016080036338075106703_" class="st2" d="M116.2,146.9l-2.7-4.2h-2.1v4.2H110    v-10.6h4.3c1.9,0,3.3,1.2,3.3,3.2c0,1.9-1.3,3-2.8,3.1l2.9,4.3L116.2,146.9L116.2,146.9z M114.1,137.5h-2.8v4.1h2.8    c1.3,0,2.1-0.8,2.1-2C116.2,138.3,115.4,137.5,114.1,137.5z"/>
			<path id="fullLogo-2_00000054945012423170771140000009941407457029533618_" class="st2" d="M124.5,146.9v-10.6h7v1.2h-5.6v3.4h5.5    v1.2h-5.5v3.7h5.6v1.2L124.5,146.9L124.5,146.9z"/>
			<path id="fullLogo-3_00000049930996926519272480000010268621725529587890_" class="st2" d="M138.5,144.4c0.7,0.8,1.8,1.5,3.3,1.5    c1.9,0,2.5-1,2.5-1.8c0-1.3-1.3-1.6-2.7-2c-1.7-0.4-3.6-0.9-3.6-3c0-1.8,1.6-2.9,3.6-2.9c1.6,0,2.9,0.5,3.8,1.5l-0.8,1    c-0.8-0.9-1.9-1.3-3.1-1.3c-1.3,0-2.2,0.7-2.2,1.7c0,1.1,1.2,1.4,2.6,1.8c1.7,0.5,3.7,1,3.7,3.2c0,1.5-1.1,3.1-3.9,3.1    c-1.8,0-3.2-0.7-4.1-1.7L138.5,144.4L138.5,144.4z"/>
			<path id="fullLogo-4_00000049908126914408390580000002286662511022567303_" class="st2" d="M157.3,136.1c3.1,0,5.3,2.4,5.3,5.5    c0,3.1-2.1,5.5-5.3,5.5c-3.2,0-5.3-2.4-5.3-5.5C152.1,138.5,154.2,136.1,157.3,136.1z M157.3,137.3c-2.4,0-3.9,1.8-3.9,4.3    c0,2.5,1.5,4.3,3.9,4.3c2.4,0,3.9-1.8,3.9-4.3C161.2,139.1,159.7,137.3,157.3,137.3z"/>
			<path id="fullLogo-5_00000156588635751706160740000012746035918374532286_" class="st2" d="M169.5,136.3h1.3v6.5    c0,1.9,1.1,3.2,3,3.2s3-1.2,3-3.2v-6.5h1.3v6.5c0,2.6-1.5,4.3-4.3,4.3c-2.9,0-4.3-1.7-4.3-4.3L169.5,136.3L169.5,136.3z"/>
			<path id="fullLogo-6_00000106118217084167643520000005348466875216872859_" class="st2" d="M191.6,146.9l-2.7-4.2h-2.1v4.2h-1.3    v-10.6h4.3c1.9,0,3.3,1.2,3.3,3.2c0,1.9-1.3,3-2.8,3.1l2.9,4.3L191.6,146.9L191.6,146.9z M189.5,137.5h-2.8v4.1h2.8    c1.3,0,2.1-0.8,2.1-2C191.7,138.3,190.8,137.5,189.5,137.5z"/>
			<path id="fullLogo-7_00000017492897316821759650000004826525071780185779_" class="st2" d="M199.5,141.6c0-3.3,2.4-5.5,5.4-5.5    c1.9,0,3.2,0.9,4.1,2.1l-1.1,0.6c-0.6-0.9-1.7-1.5-3-1.5c-2.3,0-4,1.8-4,4.3c0,2.5,1.8,4.3,4,4.3c1.3,0,2.4-0.6,3-1.5l1.1,0.6    c-0.9,1.2-2.2,2.1-4.1,2.1C201.9,147.1,199.5,144.9,199.5,141.6L199.5,141.6z"/>
			<path id="fullLogo-8_00000150067081841214378980000007882774173966378373_" class="st2" d="M215.5,146.9v-10.6h7v1.2h-5.6v3.4h5.5    v1.2h-5.5v3.7h5.6v1.2L215.5,146.9L215.5,146.9z"/>
			<path id="fullLogo-9_00000083084591258907339040000004827964320547813047_" class="st2" d="M229.5,144.4c0.7,0.8,1.8,1.5,3.3,1.5    c1.9,0,2.5-1,2.5-1.8c0-1.3-1.3-1.6-2.7-2c-1.7-0.4-3.6-0.9-3.6-3c0-1.8,1.6-2.9,3.6-2.9c1.6,0,2.9,0.5,3.8,1.5l-0.8,1    c-0.8-0.9-1.9-1.3-3.1-1.3c-1.3,0-2.2,0.7-2.2,1.7c0,1.1,1.2,1.4,2.6,1.8c1.7,0.5,3.7,1,3.7,3.2c0,1.5-1.1,3.1-3.9,3.1    c-1.8,0-3.2-0.7-4.1-1.7L229.5,144.4L229.5,144.4z"/>
			<path id="type__CompoundPathItem__00000021083543147332659700000000732955398153334669_" class="st2" d="M126.8,93.5V97    c0,4,0.2,7.6,0.5,10.7c0.4,3.1,1.1,5.6,2.3,7.4c2,3.1,5.4,4.6,10.1,4.6c4.3,0,8-1.2,11-3.7c3.1-2.4,5.2-5.9,6.3-10.3h1.3    c-1.2,5-3.5,8.7-6.9,11.4c-3.4,2.6-7.8,3.9-13.1,3.9c-6.3,0-11.6-2.1-15.8-6.3c-4.2-4.2-6.3-9.3-6.3-15.4c0-6.8,2.2-12.5,6.6-17.1    c4.2-4.7,9.5-7,16-7c6,0,10.6,1.7,14,5c1.8,1.7,3.1,3.6,4,5.7c0.9,2.1,1.6,4.7,1.9,7.7L126.8,93.5L126.8,93.5z M126.6,92.3h22    c0-2.4-0.2-4.8-0.6-7.2c-0.4-2.4-1.1-4.3-2-5.6c-1.6-2-4.1-3.1-7.4-3.1c-3.6,0-6.3,1.2-8.2,3.6c-0.9,1.1-1.8,2.8-2.5,5.1    C127.2,87.5,126.8,89.9,126.6,92.3L126.6,92.3z"/>
			<path id="type__CompoundPathItem_-2_00000057135341440427590200000013780241722208980370_" class="st2" d="M179.4,119.7V44.4    h-14.9v1.2h6v74.1h-2.7v1.2h14.3v-1.2L179.4,119.7L179.4,119.7z"/>
			<path id="type__CompoundPathItem_-3_00000148623048740859676080000001525232326661057975_" class="st2" d="M226.9,93.5V97    c0,4,0.2,7.6,0.5,10.7c0.4,3.1,1.1,5.6,2.3,7.4c2,3.1,5.4,4.6,10.1,4.6c4.3,0,8-1.2,11-3.7c3.1-2.4,5.2-5.9,6.3-10.3h1.3    c-1.2,5-3.5,8.7-6.9,11.4c-3.4,2.6-7.8,3.9-13.1,3.9c-6.3,0-11.6-2.1-15.9-6.3c-4.2-4.2-6.3-9.3-6.3-15.4c0-6.8,2.2-12.5,6.6-17.1    c4.2-4.7,9.5-7,16-7c6,0,10.6,1.7,14,5c1.8,1.7,3.1,3.6,4,5.7c0.9,2.1,1.6,4.7,1.9,7.7L226.9,93.5L226.9,93.5z M226.8,92.3h22    c0-2.4-0.2-4.8-0.6-7.2s-1.1-4.3-2-5.6c-1.6-2-4.1-3.1-7.4-3.1c-3.6,0-6.3,1.2-8.2,3.6c-0.9,1.1-1.8,2.8-2.5,5.1    C227.3,87.5,226.9,89.9,226.8,92.3L226.8,92.3z"/>
			<path id="type__CompoundPathItem_-4_00000085248597425897123320000013658119559320185780_" class="st2" d="M295.2,42.6    c-1.7-0.9-3.7-1.3-5.9-1.3c-2.6,0-5.2,0.7-7.8,1.9c-2.5,1.3-4.6,3-6.1,5.2c-3.1,4.7-4.6,11.7-4.6,21.1v50.3h-2.7v1.2h14.8v-1.2    h-2.8V77.2h8.9V76h-8.9v-9.9c0-9.3,0.6-15.6,1.9-18.8c1.3-3.1,3.5-4.6,6.5-4.6c2.5,0,4.7,1,6.5,2.9c1.8,1.9,2.9,4.2,3.3,6.8h0.5    l0.7-5.9C298.4,44.8,297,43.4,295.2,42.6z"/>
			<path id="type__CompoundPathItem_-5_00000102540682861405958580000006844381866793743793_" class="st2" d="M204.5,119.7V76h-10.4    v1.2h1.6v42.5H193v1.2h14.2v-1.2H204.5L204.5,119.7z"/>
			<a xlink:href="85.0878431372549">
				<circle id="type__PathItem__00000027569084781744931170000004291112449463527093_" class="st2" cx="200.2" cy="62.9" r="4.4"/>
			</a>
			<g id="logoMark_00000110467996305292734910000011460145719941058436_">
				<path id="logoMark__CompoundPathItem__00000053527977778301129730000005553271893208675459_" class="st2" d="M109.3,118.5     c-0.9-0.9-1.7-2-2.4-3.3c-0.7-1.3-1.2-2.2-1.5-2.7L89.1,83c4.6-1.4,8.3-3.8,11.2-7.3c2.6-3.6,3.9-7.5,3.9-11.6     c0-5.2-2-9.8-6-13.8c-3.9-3.9-9.3-5.9-16-5.9h-35v1.2h5.9v74.1h-2.8v1.2h15.9v-1.2h-2.7v-36h14.1l16.1,28.8     c2,3.4,4.3,5.6,7.1,6.8c2.7,1.2,5.7,1.7,8.8,1.7l3.5-0.1v-1.1C111.4,119.9,110.2,119.4,109.3,118.5L109.3,118.5z M76.8,82.7H63.5     V45.6h13.2c5.5,0,9.6,1.8,12.6,5.4c3.1,3.4,4.6,7.7,4.6,13c0,5.3-1.5,9.7-4.6,13.2C86.4,80.9,82.1,82.7,76.8,82.7z"/>
				<a xlink:href="54.4929411764706">
					<path id="logoMark__PathItem__00000082347351755836087400000004621870001842159793_" class="st2" d="M65,22.5l-1.3-1.3      c-5.3-5.3-5.3-14,0-19.3L65,0.6l1.3,1.3c5.3,5.3,5.3,14,0,19.3L65,22.5z"/>
				</a>
				<a xlink:href="54.4929411764706">
					<path id="logoMark__PathItem_-2_00000019639563703134906560000013231924596995347618_" class="st2" d="M43.7,28.2L42,27.8      c-7.3-2-11.6-9.5-9.7-16.7l0.5-1.8l1.8,0.5c7.3,2,11.6,9.5,9.7,16.7L43.7,28.2z"/>
				</a>
				<a xlink:href="54.4929411764706">
					<path id="logoMark__PathItem_-3_00000084489656573259511780000003205463082820159118_" class="st2" d="M28.2,43.8l-1.8,0.5      c-7.3,2-14.8-2.4-16.7-9.7l-0.5-1.8l1.8-0.5c7.3-2,14.8,2.4,16.7,9.7L28.2,43.8z"/>
				</a>
				<a xlink:href="54.4929411764706">
					<path id="logoMark__PathItem_-4_00000162324612796629347770000000957182079550540706_" class="st2" d="M22.5,65.1l-1.3,1.3      c-5.3,5.3-14,5.3-19.3,0l-1.3-1.3l1.3-1.3c5.3-5.3,14-5.3,19.3,0L22.5,65.1z"/>
				</a>
				<a xlink:href="54.4929411764706">
					<path id="logoMark__PathItem_-5_00000026160973781393314150000017975620904283562405_" class="st2" d="M28.2,86.4l-0.5,1.8      c-2,7.3-9.5,11.6-16.7,9.7l-1.8-0.5l0.5-1.8c2-7.3,9.5-11.6,16.7-9.7C26.4,85.9,28.2,86.4,28.2,86.4z"/>
				</a>
				<a xlink:href="54.4929411764706">
					<path id="logoMark__PathItem_-6_00000089565252322756738370000012419057246552348051_" class="st2" d="M43.7,102l0.5,1.8      c2,7.3-2.4,14.8-9.7,16.7l-1.8,0.5l-0.5-1.8c-2-7.3,2.4-14.8,9.7-16.7L43.7,102z"/>
				</a>
				<a xlink:href="54.4929411764706">
					<path id="logoMark__PathItem_-7_00000117639614944002257740000008892647537430093227_" class="st2" d="M101.9,43.8l0.5-1.8      c2-7.3,9.5-11.6,16.7-9.7l1.8,0.5l-0.5,1.8c-2,7.3-9.5,11.6-16.7,9.7L101.9,43.8z"/>
				</a>
				<a xlink:href="54.4929411764706">
					<path id="logoMark__PathItem_-8_00000126284734198742634010000003689572917211318188_" class="st2" d="M86.3,28.2l-0.5-1.8      c-2-7.3,2.4-14.8,9.7-16.7l1.8-0.5l0.5,1.8c2,7.3-2.4,14.8-9.7,16.7L86.3,28.2z"/>
				</a>
			</g>
		</g>
	</g>
	<g id="Layer_1_copy" class="st0">
		<g class="st1">
			<path id="fullLogo_00000142147758631170155730000014525647103696649888_" class="st2" d="M116.2,146.9l-2.7-4.2h-2.1v4.2H110    v-10.6h4.3c1.9,0,3.3,1.2,3.3,3.2c0,1.9-1.3,3-2.8,3.1l2.9,4.3L116.2,146.9L116.2,146.9z M114.1,137.5h-2.8v4.1h2.8    c1.3,0,2.1-0.8,2.1-2C116.2,138.3,115.4,137.5,114.1,137.5z"/>
			<path id="fullLogo-2_00000161621074608313520550000007246768502547319688_" class="st2" d="M124.5,146.9v-10.6h7v1.2h-5.6v3.4h5.5    v1.2h-5.5v3.7h5.6v1.2L124.5,146.9L124.5,146.9z"/>
			<path id="fullLogo-3_00000179610265330642076870000007589761626794767506_" class="st2" d="M138.5,144.4c0.7,0.8,1.8,1.5,3.3,1.5    c1.9,0,2.5-1,2.5-1.8c0-1.3-1.3-1.6-2.7-2c-1.7-0.4-3.6-0.9-3.6-3c0-1.8,1.6-2.9,3.6-2.9c1.6,0,2.9,0.5,3.8,1.5l-0.8,1    c-0.8-0.9-1.9-1.3-3.1-1.3c-1.3,0-2.2,0.7-2.2,1.7c0,1.1,1.2,1.4,2.6,1.8c1.7,0.5,3.7,1,3.7,3.2c0,1.5-1.1,3.1-3.9,3.1    c-1.8,0-3.2-0.7-4.1-1.7L138.5,144.4L138.5,144.4z"/>
			<path id="fullLogo-4_00000089563859516337248090000011512287924213761714_" class="st2" d="M157.3,136.1c3.1,0,5.3,2.4,5.3,5.5    c0,3.1-2.1,5.5-5.3,5.5c-3.2,0-5.3-2.4-5.3-5.5C152.1,138.5,154.2,136.1,157.3,136.1z M157.3,137.3c-2.4,0-3.9,1.8-3.9,4.3    c0,2.5,1.5,4.3,3.9,4.3c2.4,0,3.9-1.8,3.9-4.3C161.2,139.1,159.7,137.3,157.3,137.3z"/>
			<path id="fullLogo-5_00000145029920455818118090000015011964091388932275_" class="st2" d="M169.5,136.3h1.3v6.5    c0,1.9,1.1,3.2,3,3.2s3-1.2,3-3.2v-6.5h1.3v6.5c0,2.6-1.5,4.3-4.3,4.3c-2.9,0-4.3-1.7-4.3-4.3L169.5,136.3L169.5,136.3z"/>
			<path id="fullLogo-6_00000027564501284621377480000012793281366388279970_" class="st2" d="M191.6,146.9l-2.7-4.2h-2.1v4.2h-1.3    v-10.6h4.3c1.9,0,3.3,1.2,3.3,3.2c0,1.9-1.3,3-2.8,3.1l2.9,4.3L191.6,146.9L191.6,146.9z M189.5,137.5h-2.8v4.1h2.8    c1.3,0,2.1-0.8,2.1-2C191.7,138.3,190.8,137.5,189.5,137.5z"/>
			<path id="fullLogo-7_00000156589803365606450290000003605216892943721139_" class="st2" d="M199.5,141.6c0-3.3,2.4-5.5,5.4-5.5    c1.9,0,3.2,0.9,4.1,2.1l-1.1,0.6c-0.6-0.9-1.7-1.5-3-1.5c-2.3,0-4,1.8-4,4.3c0,2.5,1.8,4.3,4,4.3c1.3,0,2.4-0.6,3-1.5l1.1,0.6    c-0.9,1.2-2.2,2.1-4.1,2.1C201.9,147.1,199.5,144.9,199.5,141.6L199.5,141.6z"/>
			<path id="fullLogo-8_00000038397890200478779750000002837981448020983430_" class="st2" d="M215.5,146.9v-10.6h7v1.2h-5.6v3.4h5.5    v1.2h-5.5v3.7h5.6v1.2L215.5,146.9L215.5,146.9z"/>
			<path id="fullLogo-9_00000048493649788615155040000012064152239660308668_" class="st2" d="M229.5,144.4c0.7,0.8,1.8,1.5,3.3,1.5    c1.9,0,2.5-1,2.5-1.8c0-1.3-1.3-1.6-2.7-2c-1.7-0.4-3.6-0.9-3.6-3c0-1.8,1.6-2.9,3.6-2.9c1.6,0,2.9,0.5,3.8,1.5l-0.8,1    c-0.8-0.9-1.9-1.3-3.1-1.3c-1.3,0-2.2,0.7-2.2,1.7c0,1.1,1.2,1.4,2.6,1.8c1.7,0.5,3.7,1,3.7,3.2c0,1.5-1.1,3.1-3.9,3.1    c-1.8,0-3.2-0.7-4.1-1.7L229.5,144.4L229.5,144.4z"/>
			<path id="type__CompoundPathItem__00000054949796463481214650000001877979426384430753_" class="st2" d="M126.8,93.5V97    c0,4,0.2,7.6,0.5,10.7c0.4,3.1,1.1,5.6,2.3,7.4c2,3.1,5.4,4.6,10.1,4.6c4.3,0,8-1.2,11-3.7c3.1-2.4,5.2-5.9,6.3-10.3h1.3    c-1.2,5-3.5,8.7-6.9,11.4c-3.4,2.6-7.8,3.9-13.1,3.9c-6.3,0-11.6-2.1-15.8-6.3c-4.2-4.2-6.3-9.3-6.3-15.4c0-6.8,2.2-12.5,6.6-17.1    c4.2-4.7,9.5-7,16-7c6,0,10.6,1.7,14,5c1.8,1.7,3.1,3.6,4,5.7c0.9,2.1,1.6,4.7,1.9,7.7L126.8,93.5L126.8,93.5z M126.6,92.3h22    c0-2.4-0.2-4.8-0.6-7.2c-0.4-2.4-1.1-4.3-2-5.6c-1.6-2-4.1-3.1-7.4-3.1c-3.6,0-6.3,1.2-8.2,3.6c-0.9,1.1-1.8,2.8-2.5,5.1    C127.2,87.5,126.8,89.9,126.6,92.3L126.6,92.3z"/>
			<path id="type__CompoundPathItem_-2_00000110444348037127417940000014787684866437752711_" class="st2" d="M179.4,119.7V44.4    h-14.9v1.2h6v74.1h-2.7v1.2h14.3v-1.2L179.4,119.7L179.4,119.7z"/>
			<path id="type__CompoundPathItem_-3_00000182501515065541216060000003492225412566427782_" class="st2" d="M226.9,93.5V97    c0,4,0.2,7.6,0.5,10.7c0.4,3.1,1.1,5.6,2.3,7.4c2,3.1,5.4,4.6,10.1,4.6c4.3,0,8-1.2,11-3.7c3.1-2.4,5.2-5.9,6.3-10.3h1.3    c-1.2,5-3.5,8.7-6.9,11.4c-3.4,2.6-7.8,3.9-13.1,3.9c-6.3,0-11.6-2.1-15.9-6.3c-4.2-4.2-6.3-9.3-6.3-15.4c0-6.8,2.2-12.5,6.6-17.1    c4.2-4.7,9.5-7,16-7c6,0,10.6,1.7,14,5c1.8,1.7,3.1,3.6,4,5.7c0.9,2.1,1.6,4.7,1.9,7.7L226.9,93.5L226.9,93.5z M226.8,92.3h22    c0-2.4-0.2-4.8-0.6-7.2s-1.1-4.3-2-5.6c-1.6-2-4.1-3.1-7.4-3.1c-3.6,0-6.3,1.2-8.2,3.6c-0.9,1.1-1.8,2.8-2.5,5.1    C227.3,87.5,226.9,89.9,226.8,92.3L226.8,92.3z"/>
			<path id="type__CompoundPathItem_-4_00000041982651761409353340000005099163727871036085_" class="st2" d="M295.2,42.6    c-1.7-0.9-3.7-1.3-5.9-1.3c-2.6,0-5.2,0.7-7.8,1.9c-2.5,1.3-4.6,3-6.1,5.2c-3.1,4.7-4.6,11.7-4.6,21.1v50.3h-2.7v1.2h14.8v-1.2    h-2.8V77.2h8.9V76h-8.9v-9.9c0-9.3,0.6-15.6,1.9-18.8c1.3-3.1,3.5-4.6,6.5-4.6c2.5,0,4.7,1,6.5,2.9c1.8,1.9,2.9,4.2,3.3,6.8h0.5    l0.7-5.9C298.4,44.8,297,43.4,295.2,42.6z"/>
			<path id="type__CompoundPathItem_-5_00000070824881779528854220000001024581605784496036_" class="st2" d="M204.5,119.7V76h-10.4    v1.2h1.6v42.5H193v1.2h14.2v-1.2H204.5L204.5,119.7z"/>
			<a xlink:href="85.0878431372549">
				<circle id="type__PathItem__00000088845810350482322600000003622536456718061483_" class="st2" cx="200.2" cy="62.9" r="4.4"/>
			</a>
			<g id="logoMark_00000124878766503325032500000005110767844469643904_">
				<path id="logoMark__CompoundPathItem__00000008140512306604852030000014904216855445847220_" class="st2" d="M109.3,118.5     c-0.9-0.9-1.7-2-2.4-3.3c-0.7-1.3-1.2-2.2-1.5-2.7L89.1,83c4.6-1.4,8.3-3.8,11.2-7.3c2.6-3.6,3.9-7.5,3.9-11.6     c0-5.2-2-9.8-6-13.8c-3.9-3.9-9.3-5.9-16-5.9h-35v1.2h5.9v74.1h-2.8v1.2h15.9v-1.2h-2.7v-36h14.1l16.1,28.8     c2,3.4,4.3,5.6,7.1,6.8c2.7,1.2,5.7,1.7,8.8,1.7l3.5-0.1v-1.1C111.4,119.9,110.2,119.4,109.3,118.5L109.3,118.5z M76.8,82.7H63.5     V45.6h13.2c5.5,0,9.6,1.8,12.6,5.4c3.1,3.4,4.6,7.7,4.6,13c0,5.3-1.5,9.7-4.6,13.2C86.4,80.9,82.1,82.7,76.8,82.7z"/>
				<a xlink:href="54.4929411764706">
					<path id="logoMark__PathItem__00000082367619610130605380000003226685716758795700_" class="st3" d="M65,22.5l-1.3-1.3      c-5.3-5.3-5.3-14,0-19.3L65,0.6l1.3,1.3c5.3,5.3,5.3,14,0,19.3L65,22.5z"/>
				</a>
				<a xlink:href="54.4929411764706">
					<path id="logoMark__PathItem_-2_00000028291132974522451390000017872010674054611359_" class="st3" d="M43.7,28.2L42,27.8      c-7.3-2-11.6-9.5-9.7-16.7l0.5-1.8l1.8,0.5c7.3,2,11.6,9.5,9.7,16.7L43.7,28.2z"/>
				</a>
				<a xlink:href="54.4929411764706">
					<path id="logoMark__PathItem_-3_00000008107739646736248980000016044469379066201728_" class="st3" d="M28.2,43.8l-1.8,0.5      c-7.3,2-14.8-2.4-16.7-9.7l-0.5-1.8l1.8-0.5c7.3-2,14.8,2.4,16.7,9.7L28.2,43.8z"/>
				</a>
				<a xlink:href="54.4929411764706">
					<path id="logoMark__PathItem_-4_00000166666442749129823900000015691380680935199619_" class="st3" d="M22.5,65.1l-1.3,1.3      c-5.3,5.3-14,5.3-19.3,0l-1.3-1.3l1.3-1.3c5.3-5.3,14-5.3,19.3,0L22.5,65.1z"/>
				</a>
				<a xlink:href="54.4929411764706">
					<path id="logoMark__PathItem_-5_00000057850793947994271810000001503843099900899474_" class="st3" d="M28.2,86.4l-0.5,1.8      c-2,7.3-9.5,11.6-16.7,9.7l-1.8-0.5l0.5-1.8c2-7.3,9.5-11.6,16.7-9.7C26.4,85.9,28.2,86.4,28.2,86.4z"/>
				</a>
				<a xlink:href="54.4929411764706">
					<path id="logoMark__PathItem_-6_00000130610241732634244830000007698016945116294567_" class="st3" d="M43.7,102l0.5,1.8      c2,7.3-2.4,14.8-9.7,16.7l-1.8,0.5l-0.5-1.8c-2-7.3,2.4-14.8,9.7-16.7L43.7,102z"/>
				</a>
				<a xlink:href="54.4929411764706">
					<path id="logoMark__PathItem_-7_00000081633519453486191000000014386931009408502663_" class="st3" d="M101.9,43.8l0.5-1.8      c2-7.3,9.5-11.6,16.7-9.7l1.8,0.5l-0.5,1.8c-2,7.3-9.5,11.6-16.7,9.7L101.9,43.8z"/>
				</a>
				<a xlink:href="54.4929411764706">
					<path id="logoMark__PathItem_-8_00000049206623938102676870000008423815764164197510_" class="st3" d="M86.3,28.2l-0.5-1.8      c-2-7.3,2.4-14.8,9.7-16.7l1.8-0.5l0.5,1.8c2,7.3-2.4,14.8-9.7,16.7L86.3,28.2z"/>
				</a>
			</g>
		</g>
	</g>
	<g id="Layer_1">
		<g>
			<path id="fullLogo" class="st4" d="M116.2,146.9l-2.7-4.2h-2.1v4.2H110v-10.6h4.3c1.9,0,3.3,1.2,3.3,3.2c0,1.9-1.3,3-2.8,3.1    l2.9,4.3L116.2,146.9L116.2,146.9z M114.1,137.5h-2.8v4.1h2.8c1.3,0,2.1-0.8,2.1-2C116.2,138.3,115.4,137.5,114.1,137.5z"/>
			<path id="fullLogo-2" class="st4" d="M124.5,146.9v-10.6h7v1.2h-5.6v3.4h5.5v1.2h-5.5v3.7h5.6v1.2L124.5,146.9L124.5,146.9z"/>
			<path id="fullLogo-3" class="st4" d="M138.5,144.4c0.7,0.8,1.8,1.5,3.3,1.5c1.9,0,2.5-1,2.5-1.8c0-1.3-1.3-1.6-2.7-2    c-1.7-0.4-3.6-0.9-3.6-3c0-1.8,1.6-2.9,3.6-2.9c1.6,0,2.9,0.5,3.8,1.5l-0.8,1c-0.8-0.9-1.9-1.3-3.1-1.3c-1.3,0-2.2,0.7-2.2,1.7    c0,1.1,1.2,1.4,2.6,1.8c1.7,0.5,3.7,1,3.7,3.2c0,1.5-1.1,3.1-3.9,3.1c-1.8,0-3.2-0.7-4.1-1.7L138.5,144.4L138.5,144.4z"/>
			<path id="fullLogo-4" class="st4" d="M157.3,136.1c3.1,0,5.3,2.4,5.3,5.5c0,3.1-2.1,5.5-5.3,5.5c-3.2,0-5.3-2.4-5.3-5.5    C152.1,138.5,154.2,136.1,157.3,136.1z M157.3,137.3c-2.4,0-3.9,1.8-3.9,4.3c0,2.5,1.5,4.3,3.9,4.3c2.4,0,3.9-1.8,3.9-4.3    C161.2,139.1,159.7,137.3,157.3,137.3z"/>
			<path id="fullLogo-5" class="st4" d="M169.5,136.3h1.3v6.5c0,1.9,1.1,3.2,3,3.2s3-1.2,3-3.2v-6.5h1.3v6.5c0,2.6-1.5,4.3-4.3,4.3    c-2.9,0-4.3-1.7-4.3-4.3L169.5,136.3L169.5,136.3z"/>
			<path id="fullLogo-6" class="st4" d="M191.6,146.9l-2.7-4.2h-2.1v4.2h-1.3v-10.6h4.3c1.9,0,3.3,1.2,3.3,3.2c0,1.9-1.3,3-2.8,3.1    l2.9,4.3L191.6,146.9L191.6,146.9z M189.5,137.5h-2.8v4.1h2.8c1.3,0,2.1-0.8,2.1-2C191.7,138.3,190.8,137.5,189.5,137.5z"/>
			<path id="fullLogo-7" class="st4" d="M199.5,141.6c0-3.3,2.4-5.5,5.4-5.5c1.9,0,3.2,0.9,4.1,2.1l-1.1,0.6c-0.6-0.9-1.7-1.5-3-1.5    c-2.3,0-4,1.8-4,4.3c0,2.5,1.8,4.3,4,4.3c1.3,0,2.4-0.6,3-1.5l1.1,0.6c-0.9,1.2-2.2,2.1-4.1,2.1    C201.9,147.1,199.5,144.9,199.5,141.6L199.5,141.6z"/>
			<path id="fullLogo-8" class="st4" d="M215.5,146.9v-10.6h7v1.2h-5.6v3.4h5.5v1.2h-5.5v3.7h5.6v1.2L215.5,146.9L215.5,146.9z"/>
			<path id="fullLogo-9" class="st4" d="M229.5,144.4c0.7,0.8,1.8,1.5,3.3,1.5c1.9,0,2.5-1,2.5-1.8c0-1.3-1.3-1.6-2.7-2    c-1.7-0.4-3.6-0.9-3.6-3c0-1.8,1.6-2.9,3.6-2.9c1.6,0,2.9,0.5,3.8,1.5l-0.8,1c-0.8-0.9-1.9-1.3-3.1-1.3c-1.3,0-2.2,0.7-2.2,1.7    c0,1.1,1.2,1.4,2.6,1.8c1.7,0.5,3.7,1,3.7,3.2c0,1.5-1.1,3.1-3.9,3.1c-1.8,0-3.2-0.7-4.1-1.7L229.5,144.4L229.5,144.4z"/>
			<path id="type__CompoundPathItem_" class="st4" d="M126.8,93.5V97c0,4,0.2,7.6,0.5,10.7c0.4,3.1,1.1,5.6,2.3,7.4    c2,3.1,5.4,4.6,10.1,4.6c4.3,0,8-1.2,11-3.7c3.1-2.4,5.2-5.9,6.3-10.3h1.3c-1.2,5-3.5,8.7-6.9,11.4c-3.4,2.6-7.8,3.9-13.1,3.9    c-6.3,0-11.6-2.1-15.8-6.3c-4.2-4.2-6.3-9.3-6.3-15.4c0-6.8,2.2-12.5,6.6-17.1c4.2-4.7,9.5-7,16-7c6,0,10.6,1.7,14,5    c1.8,1.7,3.1,3.6,4,5.7c0.9,2.1,1.6,4.7,1.9,7.7L126.8,93.5L126.8,93.5z M126.6,92.3h22c0-2.4-0.2-4.8-0.6-7.2    c-0.4-2.4-1.1-4.3-2-5.6c-1.6-2-4.1-3.1-7.4-3.1c-3.6,0-6.3,1.2-8.2,3.6c-0.9,1.1-1.8,2.8-2.5,5.1    C127.2,87.5,126.8,89.9,126.6,92.3L126.6,92.3z"/>
			<path id="type__CompoundPathItem_-2" class="st4" d="M179.4,119.7V44.4h-14.9v1.2h6v74.1h-2.7v1.2h14.3v-1.2L179.4,119.7    L179.4,119.7z"/>
			<path id="type__CompoundPathItem_-3" class="st4" d="M226.9,93.5V97c0,4,0.2,7.6,0.5,10.7c0.4,3.1,1.1,5.6,2.3,7.4    c2,3.1,5.4,4.6,10.1,4.6c4.3,0,8-1.2,11-3.7c3.1-2.4,5.2-5.9,6.3-10.3h1.3c-1.2,5-3.5,8.7-6.9,11.4c-3.4,2.6-7.8,3.9-13.1,3.9    c-6.3,0-11.6-2.1-15.9-6.3c-4.2-4.2-6.3-9.3-6.3-15.4c0-6.8,2.2-12.5,6.6-17.1c4.2-4.7,9.5-7,16-7c6,0,10.6,1.7,14,5    c1.8,1.7,3.1,3.6,4,5.7c0.9,2.1,1.6,4.7,1.9,7.7L226.9,93.5L226.9,93.5z M226.8,92.3h22c0-2.4-0.2-4.8-0.6-7.2s-1.1-4.3-2-5.6    c-1.6-2-4.1-3.1-7.4-3.1c-3.6,0-6.3,1.2-8.2,3.6c-0.9,1.1-1.8,2.8-2.5,5.1C227.3,87.5,226.9,89.9,226.8,92.3L226.8,92.3z"/>
			<path id="type__CompoundPathItem_-4" class="st4" d="M295.2,42.6c-1.7-0.9-3.7-1.3-5.9-1.3c-2.6,0-5.2,0.7-7.8,1.9    c-2.5,1.3-4.6,3-6.1,5.2c-3.1,4.7-4.6,11.7-4.6,21.1v50.3h-2.7v1.2h14.8v-1.2h-2.8V77.2h8.9V76h-8.9v-9.9c0-9.3,0.6-15.6,1.9-18.8    c1.3-3.1,3.5-4.6,6.5-4.6c2.5,0,4.7,1,6.5,2.9c1.8,1.9,2.9,4.2,3.3,6.8h0.5l0.7-5.9C298.4,44.8,297,43.4,295.2,42.6z"/>
			<path id="type__CompoundPathItem_-5" class="st4" d="M204.5,119.7V76h-10.4v1.2h1.6v42.5H193v1.2h14.2v-1.2H204.5L204.5,119.7z"/>
			<a xlink:href="85.0878431372549">
				<circle id="type__PathItem_" class="st4" cx="200.2" cy="62.9" r="4.4"/>
			</a>
			<g id="logoMark">
				<path id="logoMark__CompoundPathItem_" class="st4" d="M109.3,118.5c-0.9-0.9-1.7-2-2.4-3.3c-0.7-1.3-1.2-2.2-1.5-2.7L89.1,83     c4.6-1.4,8.3-3.8,11.2-7.3c2.6-3.6,3.9-7.5,3.9-11.6c0-5.2-2-9.8-6-13.8c-3.9-3.9-9.3-5.9-16-5.9h-35v1.2h5.9v74.1h-2.8v1.2h15.9     v-1.2h-2.7v-36h14.1l16.1,28.8c2,3.4,4.3,5.6,7.1,6.8c2.7,1.2,5.7,1.7,8.8,1.7l3.5-0.1v-1.1C111.4,119.9,110.2,119.4,109.3,118.5     L109.3,118.5z M76.8,82.7H63.5V45.6h13.2c5.5,0,9.6,1.8,12.6,5.4c3.1,3.4,4.6,7.7,4.6,13c0,5.3-1.5,9.7-4.6,13.2     C86.4,80.9,82.1,82.7,76.8,82.7z"/>
				<a xlink:href="54.4929411764706">
					<path id="logoMark__PathItem_" class="st3" d="M65,22.5l-1.3-1.3c-5.3-5.3-5.3-14,0-19.3L65,0.6l1.3,1.3c5.3,5.3,5.3,14,0,19.3      L65,22.5z"/>
				</a>
				<a xlink:href="54.4929411764706">
					<path id="logoMark__PathItem_-2" class="st3" d="M43.7,28.2L42,27.8c-7.3-2-11.6-9.5-9.7-16.7l0.5-1.8l1.8,0.5      c7.3,2,11.6,9.5,9.7,16.7L43.7,28.2z"/>
				</a>
				<a xlink:href="54.4929411764706">
					<path id="logoMark__PathItem_-3" class="st3" d="M28.2,43.8l-1.8,0.5c-7.3,2-14.8-2.4-16.7-9.7l-0.5-1.8l1.8-0.5      c7.3-2,14.8,2.4,16.7,9.7L28.2,43.8z"/>
				</a>
				<a xlink:href="54.4929411764706">
					<path id="logoMark__PathItem_-4" class="st3" d="M22.5,65.1l-1.3,1.3c-5.3,5.3-14,5.3-19.3,0l-1.3-1.3l1.3-1.3      c5.3-5.3,14-5.3,19.3,0L22.5,65.1z"/>
				</a>
				<a xlink:href="54.4929411764706">
					<path id="logoMark__PathItem_-5" class="st3" d="M28.2,86.4l-0.5,1.8c-2,7.3-9.5,11.6-16.7,9.7l-1.8-0.5l0.5-1.8      c2-7.3,9.5-11.6,16.7-9.7C26.4,85.9,28.2,86.4,28.2,86.4z"/>
				</a>
				<a xlink:href="54.4929411764706">
					<path id="logoMark__PathItem_-6" class="st3" d="M43.7,102l0.5,1.8c2,7.3-2.4,14.8-9.7,16.7l-1.8,0.5l-0.5-1.8      c-2-7.3,2.4-14.8,9.7-16.7L43.7,102z"/>
				</a>
				<a xlink:href="54.4929411764706">
					<path id="logoMark__PathItem_-7" class="st3" d="M101.9,43.8l0.5-1.8c2-7.3,9.5-11.6,16.7-9.7l1.8,0.5l-0.5,1.8      c-2,7.3-9.5,11.6-16.7,9.7L101.9,43.8z"/>
				</a>
				<a xlink:href="54.4929411764706">
					<path id="logoMark__PathItem_-8" class="st3" d="M86.3,28.2l-0.5-1.8c-2-7.3,2.4-14.8,9.7-16.7l1.8-0.5l0.5,1.8      c2,7.3-2.4,14.8-9.7,16.7L86.3,28.2z"/>
				</a>
			</g>
		</g>
	</g>
</svg>