<svg xmlns="http://www.w3.org/2000/svg" viewBox="0 0 109.918 147.654">
    <radialGradient id="myGradient" cx=".45" cy="-.2" r="3">
      <stop offset="10%" stop-color="#f9efb3" />
      <stop offset="35%" stop-color="#b07e28" />
    </radialGradient>
    <path d="M128.4,5.589Q117.772,0,103.852,0A169.789,169.789,0,0,0,75.091,2.657,203.618,203.618,0,0,0,50.266,8.244q-9.437,2.935-12.455,5.5t-3.024,5.312a5.769,5.769,0,0,0,.825,2.472,7.148,7.148,0,0,0,1.742,2.291,3.681,3.681,0,0,0,2.38.733,7.258,7.258,0,0,0,4.307-1.742,16.135,16.135,0,0,0,4.122-4.945,12.261,12.261,0,0,1,5.312-4.947q3.477-1.74,12.272-3.113a118.412,118.412,0,0,1,18.32-1.374,124.74,124.74,0,0,1,21.71,1.923,71.855,71.855,0,0,1,17.4,4.944q6.5,3.023,6.505,6.321,0,3.669-7.055,7.7a111.682,111.682,0,0,1-16.4,7.509q-9.342,3.486-23.265,7.419-7.452,2.111-12.139,3.481,1.307-2.387,2.611-4.762,6.594-11.995,7.328-13.739A8.031,8.031,0,0,0,81.5,26.2a5.156,5.156,0,0,0-.641-2.472q-.644-1.19-1.923-3.574t-5.861-2.38a4.021,4.021,0,0,0-2.567.733,2.708,2.708,0,0,0-1.648,2.38,37.2,37.2,0,0,0,.549,4.764q0,2.568-2.2,7.143-1.94,4.045-10.87,19.641-2.39.849-5.252,1.888-9.343,3.392-12.274,4.488l-.549,2.748Q37.6,62.561,45.29,72.081q-5.184,9.6-8.67,17.045-6.045,12.915-6.778,15.664a24.942,24.942,0,0,0-.734,6.41,21.6,21.6,0,0,0,.549,4.4,18.374,18.374,0,0,0,1.65,4.671,5.967,5.967,0,0,0,3.3,2.929q2.2.824,2.748-.092a9.246,9.246,0,0,0,1.282-5.312A21.648,21.648,0,0,1,40.1,111.2q1.462-4.211,7.417-17.859,2.647-6.069,5.442-11.879c2.344,2.875,3.742,4.613,4.177,5.193l42.136,56.972a7.621,7.621,0,0,0,6.961,4.029q1.463,0,4.03-1.829t2.567-6.779a5.786,5.786,0,0,0-2.2-4.947Q95.972,119.44,87,110.284T64.464,86.836L55.137,77q2.457-4.933,5.023-9.678,2.865-5.3,5.712-10.525,1.593-.317,3.264-.648,19.876-3.941,31.236-6.688a237.214,237.214,0,0,0,26.746-8.152q11.908-4.488,11.909-18.777,0-11.357-10.627-16.946M47.18,68.614l-6.348-6.693Q45.089,61,52.27,59.533q-2.707,4.745-5.09,9.081" transform="translate(-29.108 -0.001)" fill="url('#myGradient')" />
</svg>