<?xml version="1.0" ?>
<svg xmlns="http://www.w3.org/2000/svg" viewBox="0 0 127 28" fill="none">
	<path fill-rule="evenodd" clip-rule="evenodd" d="M5.18277 27.0172V16.8126H0.632812V12.6565H5.18277V11.1802H0.632812V7.11735H5.18277V0.5H15.5187C18.2277 0.5 20.233 1.17269 21.5334 2.51771C22.8337 3.84992 23.4846 5.90575 23.4846 8.68557C23.4846 10.7927 23.005 12.4867 22.0443 13.768C21.0835 15.0361 19.7485 15.9188 18.0333 16.414L23.8486 27.0172H18.4709L13.1298 16.8327H10.0321V27.0172H5.18277ZM10.0321 12.6642H16.1573C17.6762 12.6642 18.4359 11.7815 18.4359 10.0178V7.2948C18.4359 6.40654 18.2659 5.77232 17.9247 5.39041C17.5976 4.9974 17.0078 4.80021 16.1573 4.80021H10.0321V12.6642ZM24.0569 17.0427C24.0569 15.4821 24.2635 14.0674 24.6763 12.7976C25.0896 11.5163 25.6668 10.4236 26.4091 9.52253C27.1632 8.60863 28.0679 7.9051 29.125 7.40986C30.1821 6.91461 31.3544 6.66785 32.6426 6.66785C33.9307 6.66785 35.0977 6.90906 36.1427 7.39148C37.1994 7.87391 38.0991 8.53932 38.8411 9.39083C39.5936 10.2278 40.1659 11.2311 40.5543 12.399C40.955 13.567 41.1563 14.8295 41.1563 16.1874V18.6438H28.9256V19.9577C28.9256 21.1509 29.2966 22.0776 30.0369 22.7375C30.7894 23.3842 31.6765 23.7079 32.6987 23.7079C33.7188 23.7079 34.5519 23.4282 35.1958 22.8709C35.8397 22.3115 36.2232 21.5255 36.344 20.5097H41.0111C40.7068 22.7174 39.814 24.437 38.3318 25.6687C36.8618 26.8876 34.9647 27.4962 32.6442 27.4962C31.295 27.4962 30.0857 27.2422 29.0164 26.7341C27.9596 26.226 27.0599 25.5152 26.318 24.6013C25.5883 23.6878 25.0298 22.5891 24.6414 21.3082C24.2513 20.0252 24.0569 18.6036 24.0569 17.0427ZM28.9237 14.8534H36.379V14.1499C36.379 13.0589 36.0271 12.1706 35.3218 11.4851C34.6165 10.8 33.7241 10.4583 32.6426 10.4583C31.5732 10.4583 30.6861 10.8017 29.9808 11.4851C29.2755 12.1706 28.9237 13.0589 28.9237 14.1499V14.8534ZM42.5303 20.6979H47.1974C47.3918 22.7025 48.5397 23.7058 50.6434 23.7058C51.5427 23.7058 52.3074 23.5342 52.9395 23.1925C53.5712 22.838 53.888 22.2786 53.888 21.5165C53.888 20.7929 53.6269 20.272 53.1038 19.9559C52.5807 19.625 51.8946 19.3654 51.044 19.1755L47.7628 18.4335C44.5795 17.7098 42.9871 15.8127 42.9871 12.7425C42.9871 11.8799 43.1514 11.0797 43.4788 10.3449C43.8181 9.60847 44.3046 8.96871 44.9366 8.42217C45.5683 7.87598 46.34 7.45179 47.2519 7.14681C48.1634 6.82866 49.2014 6.67167 50.3684 6.67167C52.5315 6.67167 54.3062 7.21785 55.6904 8.30885C57.0765 9.40019 57.8165 11.0502 57.9145 13.2578H53.2474C53.1982 12.3186 52.9131 11.6206 52.3899 11.1635C51.8681 10.6939 51.1929 10.46 50.3668 10.46C49.5651 10.46 48.909 10.6447 48.3981 11.0121C47.8994 11.3666 47.6509 11.8691 47.6509 12.5158C47.6509 13.1629 47.8397 13.6453 48.2159 13.9634C48.6044 14.2684 49.1087 14.4899 49.7298 14.6306L53.5028 15.4876C54.1959 15.6391 54.8521 15.8678 55.4715 16.1728C56.1032 16.4653 56.6442 16.8455 57.094 17.3151C57.5435 17.7847 57.8954 18.342 58.1508 18.9907C58.4188 19.6378 58.5518 20.4054 58.5518 21.2937C58.5518 22.1563 58.3749 22.9621 58.0231 23.7113C57.6713 24.4606 57.1604 25.1132 56.492 25.6722C55.8234 26.2298 54.9973 26.6755 54.0121 27.0048C53.0286 27.3336 51.9035 27.5 50.6397 27.5C48.1004 27.5 46.137 26.9167 44.7528 25.7491C43.3686 24.5611 42.6263 22.8799 42.5303 20.6979ZM59.9816 17.0427C59.9816 15.4821 60.1878 14.0674 60.6011 12.7976C61.0139 11.5163 61.5915 10.4236 62.3318 9.52253C63.0859 8.60863 63.9906 7.9051 65.0477 7.40986C66.1048 6.91461 67.2771 6.66785 68.5653 6.66785C69.8534 6.66785 71.0205 6.90906 72.0654 7.39148C73.1225 7.87391 74.0219 8.53932 74.7638 9.39083C75.5183 10.2278 76.0886 11.2311 76.477 12.399C76.878 13.567 77.079 14.8295 77.079 16.1874V18.6438H64.8484V19.9577C64.8484 21.1509 65.2193 22.0776 65.9596 22.7375C66.7138 23.3842 67.6009 23.7079 68.6214 23.7079C69.6415 23.7079 70.4746 23.4282 71.1185 22.8709C71.7627 22.3115 72.1459 21.5255 72.2667 20.5097H76.9338C76.6295 22.7174 75.7368 24.437 74.2545 25.6687C72.7845 26.8876 70.8894 27.4962 68.5669 27.4962C67.2177 27.4962 66.0084 27.2422 64.9391 26.7341C63.8823 26.226 62.9826 25.5152 62.2407 24.6013C61.511 23.6878 60.9525 22.5891 60.5641 21.3082C60.1756 20.0252 59.9816 18.6036 59.9816 17.0427ZM64.8484 14.8534H72.3033V14.1499C72.3033 13.0589 71.9515 12.1706 71.2462 11.4851C70.5412 10.8 69.6485 10.4583 68.5669 10.4583C67.4979 10.4583 66.6104 10.8017 65.9051 11.4851C65.1998 12.1706 64.8484 13.0589 64.8484 14.1499V14.8534ZM78.9464 27.0172V7.143H89.5744V10.9497H83.6139V27.0155H78.9464V27.0172ZM90.95 7.143H95.9445L100.101 21.5533H100.246L104.493 7.143H109.434L102.743 27.0172H97.6383L90.95 7.143ZM109.537 17.0427C109.537 15.4821 109.743 14.0674 110.156 12.7976C110.569 11.5163 111.147 10.4236 111.887 9.52253C112.641 8.60863 113.546 7.9051 114.603 7.40986C115.66 6.91461 116.833 6.66785 118.121 6.66785C119.409 6.66785 120.576 6.90906 121.621 7.39148C122.678 7.87391 123.577 8.53932 124.318 9.39083C125.072 10.2278 125.642 11.2311 126.031 12.399C126.431 13.567 126.633 14.8295 126.633 16.1874V18.6438H114.402V19.9577C114.402 21.1509 114.773 22.0776 115.513 22.7375C116.268 23.3842 117.155 23.7079 118.175 23.7079C119.195 23.7079 120.028 23.4282 120.672 22.8709C121.316 22.3115 121.7 21.5255 121.82 20.5097H126.488C126.183 22.7174 125.291 24.437 123.808 25.6687C122.338 26.8876 120.443 27.4962 118.121 27.4962C116.771 27.4962 115.562 27.2422 114.493 26.7341C113.436 26.226 112.536 25.5152 111.794 24.6013C111.065 23.6878 110.506 22.5891 110.118 21.3082C109.731 20.0252 109.537 18.6036 109.537 17.0427ZM114.404 14.8534H121.859V14.1499C121.859 13.0589 121.507 12.1706 120.802 11.4851C120.097 10.8 119.204 10.4583 118.123 10.4583C117.053 10.4583 116.166 10.8017 115.461 11.4851C114.756 12.1706 114.404 13.0589 114.404 14.1499V14.8534Z" fill="#0151af"/>
</svg>