<?xml version="1.0" ?>
<svg xmlns="http://www.w3.org/2000/svg" viewBox="0 0 50 50" fill="none">
	<path fill-rule="evenodd" clip-rule="evenodd" d="M26.4636 40.0872H32.7652L26.2886 28.7322C29.4378 26.9469 31.2546 23.8042 31.2546 19.7251C31.2512 13.1196 26.5645 9 19.0415 9H7V40.0164H12.7533V26.8695L20.9895 29.8674L26.4636 40.0872ZM12.7398 13.9785H19.0415C22.8232 13.9785 25.1043 15.8716 25.1043 19.7385C25.1043 22.6724 23.7888 24.4678 21.4875 25.1617L12.7533 22.0088L12.7398 13.9785Z" fill="#46A095"/>
	<path d="M43 37.6316C43 39.4919 41.4937 41 39.6355 41C37.7774 41 36.271 39.4919 36.271 37.6316C36.271 35.7713 37.7774 34.2632 39.6355 34.2632C41.4937 34.2632 43 35.7713 43 37.6316Z" fill="#46A095"/>
</svg>