<svg xmlns="http://www.w3.org/2000/svg" id="Layer_1" data-name="Layer 1" viewBox="0 0 452.66 375.5"><defs><style>.cls-1{fill:#6276b4}.cls-2{fill:#ecbe4e}.cls-3{fill:#d94336}.cls-4{fill:#8db150}</style><clipPath id="clip-path" transform="translate(-71.3 -274.87)"><path d="M261.78 360.16c0-14.25 16.07-25.81 35.87-25.81s35.86 11.56 35.86 25.81S317.45 386 297.65 386s-35.87-11.56-35.87-25.82m-23.18-71.7c-21.77 14.79-24.36 42.13-5.75 60.74l31.74 31.74a48 48 0 0 0 67.69 0l30.06-30.05c18.61-18.62 16.18-46.19-5.4-61.25 0 0-21.15-14.77-60.16-14.77-38.19 0-58.18 13.59-58.18 13.59" class="cls-1"/></clipPath><clipPath id="clip-path-2" transform="translate(-71.3 -274.87)"><path d="M261.78 480c0-14.25 16.07-25.81 35.87-25.81s35.86 11.51 35.86 25.81-16.06 25.81-35.86 25.81-35.87-11.6-35.87-25.81m2.81-19l-31.74 31.74c-18.61 18.61-16 45.94 5.75 60.74 0 0 20 13.6 58.18 13.6 39 0 60.16-14.79 60.16-14.79 21.58-15.07 24-42.62 5.4-61.21L332.28 461a48.06 48.06 0 0 0-67.69 0" class="cls-2"/></clipPath><clipPath id="clip-path-3" transform="translate(-71.3 -274.87)"><path d="M212 420.09c0-19.81 11.56-35.86 25.81-35.86s25.8 16 25.8 35.86-11.54 35.84-25.8 35.84S212 439.88 212 420.09m-46.8-58.18s-13.6 20-13.6 58.18c0 39 14.76 60.15 14.76 60.15 15.08 21.57 42.64 24 61.25 5.4l30.06-30.08a48 48 0 0 0 0-67.64l-31.74-31.75c-8.35-8.34-18.45-12.42-28.39-12.42-12.22 0-24.19 6.16-32.34 18.16" class="cls-3"/></clipPath><clipPath id="clip-path-4" transform="translate(-71.3 -274.87)"><path d="M331.77 420.09c0-19.81 11.55-35.86 25.8-35.86s25.81 16 25.81 35.86-11.56 35.84-25.81 35.84-25.8-16.05-25.8-35.84m37.63-63.92l-31.74 31.75a47.93 47.93 0 0 0 0 67.64l30 30.08c18.62 18.59 46.18 16.17 61.25-5.4 0 0 14.77-21.16 14.77-60.15 0-38.18-13.59-58.18-13.59-58.18-8.16-12-20.13-18.16-32.34-18.16-9.93 0-20 4.08-28.39 12.42" class="cls-4"/></clipPath></defs><path d="M261.78 360.16c0-14.25 16.07-25.81 35.87-25.81s35.86 11.56 35.86 25.81S317.45 386 297.65 386s-35.87-11.56-35.87-25.82m-23.18-71.7c-21.77 14.79-24.36 42.13-5.75 60.74l31.74 31.74a48 48 0 0 0 67.69 0l30.06-30.05c18.61-18.62 16.18-46.19-5.4-61.25 0 0-21.15-14.77-60.16-14.77-38.19 0-58.18 13.59-58.18 13.59" class="cls-1" transform="translate(-71.3 -274.87)"/><g clip-path="url(#clip-path)"><path d="M142.94 0h166.7v124.67h-166.7z" class="cls-1"/></g><path d="M261.78 480c0-14.25 16.07-25.81 35.87-25.81s35.86 11.51 35.86 25.81-16.06 25.81-35.86 25.81-35.87-11.6-35.87-25.81m2.81-19l-31.74 31.74c-18.61 18.61-16 45.94 5.75 60.74 0 0 20 13.6 58.18 13.6 39 0 60.16-14.79 60.16-14.79 21.58-15.07 24-42.62 5.4-61.21L332.28 461a48.06 48.06 0 0 0-67.69 0" class="cls-2" transform="translate(-71.3 -274.87)"/><g clip-path="url(#clip-path-2)"><path d="M196.22 405.63h202.75v202.75H196.22z" class="cls-2" transform="rotate(-45 -69.887 455.618)"/></g><path d="M212 420.09c0-19.81 11.56-35.86 25.81-35.86s25.8 16 25.8 35.86-11.54 35.84-25.8 35.84S212 439.88 212 420.09m-46.8-58.18s-13.6 20-13.6 58.18c0 39 14.76 60.15 14.76 60.15 15.08 21.57 42.64 24 61.25 5.4l30.06-30.08a48 48 0 0 0 0-67.64l-31.74-31.75c-8.35-8.34-18.45-12.42-28.39-12.42-12.22 0-24.19 6.16-32.34 18.16" class="cls-3" transform="translate(-71.3 -274.87)"/><g clip-path="url(#clip-path-3)"><path d="M113.07 323.17h201.64v201.64H113.07z" class="cls-3" transform="rotate(-45 -153.559 372.636)"/></g><path d="M331.77 420.09c0-19.81 11.55-35.86 25.8-35.86s25.81 16 25.81 35.86-11.56 35.84-25.81 35.84-25.8-16.05-25.8-35.84m37.63-63.92l-31.74 31.75a47.93 47.93 0 0 0 0 67.64l30 30.08c18.62 18.59 46.18 16.17 61.25-5.4 0 0 14.77-21.16 14.77-60.15 0-38.18-13.59-58.18-13.59-58.18-8.16-12-20.13-18.16-32.34-18.16-9.93 0-20 4.08-28.39 12.42" class="cls-4" transform="translate(-71.3 -274.87)"/><g clip-path="url(#clip-path-4)"><path d="M280.56 323.17H482.2v201.64H280.56z" class="cls-4" transform="rotate(-45 13.94 372.636)"/></g></svg>