<?xml version="1.0" ?>
<svg xmlns="http://www.w3.org/2000/svg" viewBox="0 0 277 52" fill="none">
	<g clip-path="url(#clip0_480_1244)">
		<path d="M19.7113 36.7533L14.8486 27.1598H3.91865V36.7533H0V15.2468H17.6167C18.7967 15.2468 19.7948 15.3743 20.6209 15.6291C21.4469 15.884 22.1205 16.2408 22.6367 16.6996C23.1579 17.1584 23.5365 17.7038 23.7725 18.3359C24.0085 18.968 24.1265 19.6715 24.1265 20.4412V21.9705C24.1265 23.357 23.7332 24.5091 22.9465 25.4368C22.1598 26.3646 20.847 26.9202 18.9983 27.1037L23.8905 36.7584H19.7063L19.7113 36.7533ZM20.2128 20.4106C20.2128 19.0853 19.3474 18.4277 17.6216 18.4277H3.91865V23.9891H17.6167C19.3425 23.9891 20.2079 23.3264 20.2079 22.0062V20.4157L20.2128 20.4106Z" fill="#002B6E"/>
		<path d="M27.2831 36.7533V15.2468H48.612V18.4226H31.2017V23.8005H47.7319V26.9763H31.2017V33.5725H48.612V36.7482H27.2831V36.7533Z" fill="#002B6E"/>
		<path d="M51.4391 36.7534V34.0058L72.4139 18.7336H51.4391V15.252H79.3072V17.9995L58.2439 33.2718H79.3072V36.7534H51.4391Z" fill="#002B6E"/>
		<path d="M88.6785 36.7533C87.4985 36.7533 86.5004 36.6259 85.6744 36.371C84.8484 36.1162 84.1748 35.7593 83.6585 35.3005C83.1374 34.8418 82.7588 34.2963 82.5228 33.6642C82.2868 33.0321 82.1688 32.3338 82.1688 31.559V20.4412C82.1688 19.6664 82.2868 18.9629 82.5228 18.3359C82.7588 17.7038 83.1374 17.1584 83.6585 16.6996C84.1797 16.2408 84.8533 15.884 85.6744 15.6291C86.5004 15.3743 87.5034 15.2468 88.6785 15.2468H102.377C103.557 15.2468 104.555 15.3743 105.381 15.6291C106.207 15.884 106.88 16.2408 107.397 16.6996C107.918 17.1584 108.296 17.7038 108.532 18.3359C108.768 18.968 108.886 19.6715 108.886 20.4412V31.559C108.886 32.3338 108.768 33.0372 108.532 33.6642C108.296 34.2963 107.918 34.8418 107.397 35.3005C106.875 35.7593 106.202 36.1162 105.381 36.371C104.555 36.6259 103.552 36.7533 102.377 36.7533H88.6785ZM104.973 20.4106C104.973 19.0853 104.107 18.4277 102.382 18.4277H88.6835C86.9528 18.4277 86.0923 19.0904 86.0923 20.4106V31.5895C86.0923 32.9149 86.9577 33.5725 88.6835 33.5725H102.382C104.107 33.5725 104.973 32.9098 104.973 31.5895V20.4106Z" fill="#002B6E"/>
		<path d="M112.569 36.7533V15.2468H116.517V33.5725H133.337V36.7482H112.569V36.7533Z" fill="#002B6E"/>
		<path d="M142.502 36.7533C141.322 36.7533 140.324 36.6259 139.498 36.371C138.672 36.1162 137.998 35.7593 137.482 35.3005C136.961 34.8418 136.582 34.2963 136.346 33.6642C136.11 33.0321 135.992 32.3338 135.992 31.559V15.2468H139.911V31.5895C139.911 32.9149 140.776 33.5725 142.502 33.5725H155.374C157.1 33.5725 157.965 32.9098 157.965 31.5895V15.2468H161.884V31.559C161.884 32.3338 161.81 33.0372 161.663 33.6642C161.515 34.2963 161.23 34.8418 160.807 35.3005C160.384 35.7593 159.804 36.1162 159.072 36.371C158.334 36.6259 157.38 36.7533 156.2 36.7533H142.502Z" fill="#002B6E"/>
		<path d="M175.263 36.7534V18.4277H164.392V15.252H189.757V18.4277H179.181V36.7534H175.263Z" fill="#002B6E"/>
		<path d="M192.383 36.7533V15.2468H213.712V18.4226H196.301V23.8005H212.831V26.9763H196.301V33.5725H213.712V36.7482H192.383V36.7533Z" fill="#002B6E"/>
		<g clip-path="url(#clip1_480_1244)">
			<path d="M255.966 22.8168H255.961C256.185 21.6449 256.267 20.2604 255.9 18.9086C254.516 18.5543 253.099 18.6306 251.895 18.8486C251.206 17.8621 250.259 16.8319 249.022 16.1233C247.786 16.8319 246.839 17.8621 246.15 18.8486C244.946 18.6252 243.534 18.5488 242.15 18.9031C241.789 20.2549 241.865 21.6285 242.09 22.8004C240.984 23.3019 239.797 24.0432 238.883 25.1115C239.392 26.4143 240.279 27.4935 241.154 28.322C240.574 29.374 240.071 30.6604 240 32.0612C241.209 32.8134 242.577 33.1623 243.791 33.3149C244.016 34.4868 244.454 35.795 245.285 36.9233C246.708 36.7652 247.999 36.1983 249.039 35.566C250.078 36.1929 251.37 36.7652 252.792 36.9233C253.624 35.8004 254.056 34.4977 254.281 33.3367C255.49 33.1841 256.858 32.8352 258.062 32.083C257.985 30.6876 257.482 29.3958 256.907 28.3438C257.788 27.5153 258.669 26.4415 259.178 25.1333C258.259 24.0595 257.066 23.3182 255.955 22.8113L255.966 22.8168ZM255.129 26.6759C254.242 27.8151 253.586 29.1723 253.378 30.9547C251.468 31.1237 250.199 31.9031 249.011 32.7535C247.955 31.805 246.615 31.1509 244.776 31.0147C244.497 29.2704 243.917 27.8314 242.943 26.8013C243.737 25.5367 244.519 24.2721 244.694 22.4243C246.582 22.2335 247.873 21.4813 249.061 20.6256C250.106 21.6503 251.682 22.13 253.4 22.4679C253.498 24.3648 254.352 25.4822 255.129 26.6813V26.6759ZM257.307 6.81342L249.099 6.80252L240.891 6.81342C242.867 4.34969 245.564 1.77149 249.099 0C252.634 1.76604 255.331 4.34423 257.307 6.81342ZM240.897 6.80797L235.086 11.7572L229.297 16.7229C228.651 13.7849 228.427 10.3346 229.467 6.94969C233.428 6.06122 237.466 6.25744 240.902 6.80797H240.897ZM268.742 6.94969C269.777 10.3346 269.552 13.7904 268.912 16.7229L263.123 11.7572L257.312 6.80797C260.748 6.25744 264.786 6.06667 268.748 6.94969H268.742ZM238.424 52C236.027 49.1602 234.78 45.8734 234.145 42.9354L241.641 45.7862L249.148 48.6151C246.177 50.1849 242.489 51.613 238.418 52.0055L238.424 52ZM249.148 48.6096L256.655 45.7807L264.152 42.93C263.517 45.8679 262.269 49.1602 259.873 51.9946C255.807 51.6021 252.114 50.174 249.143 48.6042L249.148 48.6096ZM229.341 16.6792L227.978 23.5962L226.643 30.5187C224.121 28.4528 221.593 25.7493 220.132 22.4788C222.753 19.7916 226.173 17.9384 229.341 16.6792ZM223.322 39.8449C223.535 36.3509 224.974 33.1241 226.632 30.4969L230.386 36.7434L234.167 42.979C230.698 42.6029 226.78 41.7254 223.322 39.8449ZM278.132 22.5333C276.671 25.8038 274.143 28.5019 271.621 30.5732L270.285 23.6562L268.923 16.7392C272.091 17.9983 275.511 19.8516 278.132 22.5388V22.5333ZM264.097 43.0335L267.878 36.7979L271.631 30.5514C273.289 33.1786 274.728 36.4054 274.942 39.8994C271.484 41.7799 267.566 42.6574 264.097 43.0335ZM249.11 48.5279C246.396 47.1161 244.328 45.0558 242.812 43.0826L249.11 43.0935L255.408 43.0826C253.892 45.0558 251.824 47.1161 249.11 48.5279ZM234.03 42.9736C233.237 40.27 233.406 37.5065 233.904 35.1572L238.347 39.1308L242.807 43.0881C240.169 43.5296 237.067 43.6822 234.03 42.9736ZM255.408 43.0826L259.867 39.1254L264.316 35.1518C264.808 37.501 264.983 40.2591 264.19 42.9681C261.148 43.6767 258.045 43.5241 255.413 43.0826H255.408ZM249.143 9.6696L243.381 11.9317L237.625 14.2101C238.112 11.8608 239.069 9.23354 240.908 6.96059C244.032 7.27673 246.861 8.41593 249.143 9.6696ZM257.378 6.96059C259.216 9.22809 260.174 11.8608 260.661 14.2101L254.904 11.9317L249.143 9.6696C251.424 8.41048 254.253 7.27673 257.378 6.96059ZM226.873 30.5623C227.995 27.9514 229.937 25.7929 231.869 24.1359L232.892 29.6683L233.937 35.1954C231.502 34.187 228.881 32.7099 226.867 30.5623H226.873ZM237.647 14.1719L234.747 19.1593L231.863 24.1522C230.594 22.0537 229.488 19.47 229.324 16.6792C231.978 15.1748 234.987 14.4717 237.652 14.1719H237.647ZM264.321 35.1518L265.366 29.6247L266.39 24.0922C268.327 25.7438 270.269 27.9023 271.385 30.5187C269.377 32.6662 266.751 34.1488 264.316 35.1518H264.321ZM268.945 16.6356C268.781 19.4264 267.675 22.0101 266.406 24.1086L263.522 19.1157L260.617 14.1283C263.276 14.4281 266.286 15.1312 268.945 16.6356ZM253.969 14.1937H249.115H244.262C245.427 12.6294 247.025 10.9941 249.115 9.87128C251.206 10.9941 252.803 12.6294 253.969 14.1937ZM244.262 14.1937L240.826 17.3333L237.401 20.4839C237.017 18.6197 236.886 16.4285 237.499 14.2809C239.841 13.7195 242.232 13.8394 244.262 14.1883V14.1937ZM260.732 14.2809C261.345 16.4285 261.213 18.6197 260.83 20.4839L257.405 17.3333L253.969 14.1937C255.999 13.8449 258.39 13.7195 260.732 14.2864V14.2809ZM242.796 42.8755C241.378 41.0767 240.64 38.9836 240.262 37.1195L244.7 38.9291L249.143 40.7224C247.386 41.7199 245.203 42.6247 242.796 42.8755ZM249.143 40.7224L253.586 38.9291L258.023 37.1195C257.646 38.9836 256.907 41.0713 255.49 42.8755C253.082 42.6247 250.899 41.7199 249.143 40.7224ZM237.422 20.4566L236.618 24.8444L235.83 29.2377C234.342 27.9241 232.843 26.2126 231.978 24.1359C233.527 22.4298 235.551 21.2524 237.428 20.4566H237.422ZM233.866 35.1572C233.992 32.9388 234.845 30.8893 235.825 29.2268L238.046 33.1895L240.284 37.1468C238.232 36.9069 235.912 36.3509 233.866 35.1572ZM266.286 24.1686C265.421 26.2453 263.927 27.9568 262.434 29.2704L261.646 24.8771L260.841 20.4893C262.718 21.2851 264.737 22.4625 266.291 24.1686H266.286ZM257.985 37.1849L260.223 33.2277L262.444 29.2595C263.424 30.9275 264.277 32.9769 264.403 35.1899C262.357 36.3836 260.037 36.9396 257.985 37.1795V37.1849ZM249.115 40.6734C247.512 39.7795 246.287 38.4658 245.389 37.2176H249.115H252.842C251.944 38.4658 250.719 39.774 249.115 40.6734ZM240.197 37.1468C239.726 35.4298 239.83 33.6746 240.12 32.1866L242.752 34.7048L245.389 37.2176C243.83 37.4956 241.997 37.5937 240.197 37.1468ZM252.842 37.2176L255.479 34.7048L258.111 32.1866C258.401 33.6746 258.505 35.4298 258.034 37.1468C256.234 37.5937 254.401 37.501 252.842 37.2176ZM249.137 16.0088L245.728 17.4423L242.325 18.8868C242.615 17.3987 243.179 15.7254 244.267 14.2864C246.117 14.4881 247.791 15.2075 249.137 16.0088ZM254.013 14.2918C255.101 15.7308 255.665 17.3987 255.955 18.8922L252.552 17.4478L249.143 16.0143C250.494 15.2184 252.169 14.4935 254.013 14.2918ZM235.961 29.2704C236.624 27.6134 237.773 26.2398 238.916 25.1933L239.524 28.7036L240.142 32.2138C238.703 31.5761 237.149 30.6386 235.961 29.2704ZM242.336 18.865L240.618 22.0319L238.911 25.1987C238.161 23.8688 237.504 22.2281 237.406 20.4566C238.976 19.5027 240.755 19.0558 242.331 18.865H242.336ZM258.116 32.1811L258.735 28.6709L259.342 25.1606C260.486 26.2126 261.635 27.5807 262.297 29.2377C261.109 30.6004 259.555 31.5434 258.116 32.1811ZM260.852 20.4293C260.754 22.2008 260.103 23.8415 259.347 25.1715L257.64 21.9992L255.922 18.8377C257.498 19.0285 259.276 19.4755 260.847 20.4293H260.852Z" fill="#002B6E"/>
		</g>
	</g>
	<defs>
		<clipPath id="clip0_480_1244">
			<rect width="277" height="52" fill="white"/>
		</clipPath>
		<clipPath id="clip1_480_1244">
			<rect width="58" height="52" fill="white" transform="translate(220.132)"/>
		</clipPath>
	</defs>
</svg>