<?xml version="1.0" ?>
<svg xmlns="http://www.w3.org/2000/svg" class="image" data-name="Layer 1" id="ad82cebf-0315-4aad-943f-bbf9985edeed" viewBox="0 0 595.48 165.16">
	<path d="M0,70.46c1.88-1.52,1.48-3.85,2-5.82C6.54,46.29,15.57,31,30.61,18.88,41.24,10.31,52.76,4.41,66,1.82c24.07-4.7,46.52-.45,66.15,14.38,41.38,31.25,45.41,89.45,8.47,125.21-22.73,22-50.5,28.84-80.86,20-30.92-9-50-30.19-57.76-61.3-.5-2-.09-4.3-1.95-5.84V75.43c1.14-1,1.53-2,0-3Zm65.48-14.3,11.28-5.45c-.61,17.3-.45,33.85-2.93,50.23-.85,5.66-1.25,11.63-5.73,16.93C60.62,101.35,53.43,85.5,42.19,71.74c3.12.44,5.9,1.36,10-.38A158.19,158.19,0,0,1,27.27,59.28a1.22,1.22,0,0,0-1.57-.69,1.56,1.56,0,0,0-.28.16l.81,1.37,2.43,4.32C38,81,45.92,98.16,49.66,116.86c3.72,18.4,10.84,26.62,29.47,27.87,21.18,1.43,31.44-5.16,35.38-24.06C119,99.16,127.74,79.6,138.63,60.76c.47-.81,2-1.53.77-2.85a106.69,106.69,0,0,1-26.14,13.15c2.82,3.44,6.47-.45,9.93,1-11.57,13.6-18.75,29.46-26.11,45.47C91,110.31,86.17,69.53,89,51.15c4,.78,6.81,4.41,11.07,4.31v.71h.46l-.52-.6c-8.15-10.22-14.42-21.4-17.34-35.35C78.22,36.85,75.15,42.87,65,55.49c-.45.13-1,.27-.65.86,0,.14.76-.11,1.18-.19Z" fill="#055788" transform="translate(0 0)">
 </path>
	<path d="M215.13,27H193V19.75h52.59V27H223.54V92.06h-8.41Z" fill="#055788" transform="translate(0 0)">
 </path>
	<path d="M257.9,19.75h21c16,0,24,7.22,24,20.26,0,10.35-5.17,16.16-14.12,19v.54L307.9,92.06h-9.68l-18-31H266.43v31H257.9Zm20.49,34.6c11.31,0,15.41-4.85,15.41-14.22,0-8.94-4.42-13.15-15.52-13.15H266.43V54.35Z" fill="#055788" transform="translate(0 0)">
 </path>
	<path d="M320.63,19.75h8.51V92.06h-8.51Z" fill="#055788" transform="translate(0 0)">
 </path>
	<path d="M348.11,19.75h21.44c22,0,34.16,11.21,34.16,34.27v2c0,22.73-10.56,36-34,36h-21.6Zm21.77,65c17,0,24.56-8.19,24.56-27.48V54c0-20-9.15-26.94-25.75-26.94H356.62V84.75Z" fill="#055788" transform="translate(0 0)">
 </path>
	<path d="M418.26,19.75h42.89V27H426.77V51.22h26.51v7.22H426.77v26.4h34.7v7.22H418.26Z" fill="#055788" transform="translate(0 0)">
 </path>
	<path d="M477.42,19.75h10.13l34.81,57.87h.32V19.75h7.76V92.06H521.6L485.72,31.35h-.32V92h-8Z" fill="#055788" transform="translate(0 0)">
 </path>
	<path d="M565,27H542.9V19.75h52.58V27h-22V92.06H565Z" fill="#055788" transform="translate(0 0)">
 </path>
	<path d="M198.31,130.63v-1.69c0-8.89,2.58-14.84,6.69-18.47,1.09-1,6.63-5.79,13.86-4.62,6.88,1.11,12.59,7.22,14.14,15.28l-9.87.13a8.15,8.15,0,0,0-2.37-5.46,6.37,6.37,0,0,0-1.77-1.18,7.45,7.45,0,0,0-5.55.09c-3.18,1.22-5.4,5.21-5.47,10l.1,8.52c.23,5.88,2.85,10.37,5.94,11.06a8.26,8.26,0,0,0,3.43-.09,7.53,7.53,0,0,0,4.2-2.37,7.3,7.3,0,0,0,1.7-3.94l9.49-.11c-1.61,8.59-7.6,15-14.66,16-6.68,1-11.87-3.27-12.8-4.06C198.66,144,198.4,134.11,198.31,130.63Z" fill="#9daeb8" transform="translate(0 0)">
 </path>
	<path d="M275.12,106.59h9.33l15.2,46.46h-9.2l-3.19-9.85-16.18-.06-3.18,9.91h-8.2Zm-1.64,28.51h11.29l-5.61-17.6h-.26Z" fill="#9daeb8" transform="translate(0 0)">
 </path>
	<path d="M331.5,106.59h16c10.53,0,15.7,4.81,15.7,14.16,0,9.88-5.8,15.44-15.32,15.44h-7.42v16.86h-9Zm14.82,22.55c5.49,0,7.57-2.64,7.57-8,0-5.82-2.21-7.31-7.44-7.31h-6v15.3Z" fill="#9daeb8" transform="translate(0 0)">
 </path>
	<path d="M396.21,106.59h9v46.46h-9Z" fill="#9daeb8" transform="translate(0 0)">
 </path>
	<path d="M450.07,113.84h-12v-7.25h33.11v7.25H459v39.21h-8.89Z" fill="#9daeb8" transform="translate(0 0)">
 </path>
	<path d="M511.43,106.59h9.34L536,153.05h-9.2l-3.24-10H507.43q-1.59,5-3.19,10H496Zm-1.64,28.51h11.29l-5.61-17.6h-.25Z" fill="#9daeb8" transform="translate(0 0)">
 </path>
	<path d="M567.82,106.59h8.95v39.08h17.79v7.38H567.82Z" fill="#9daeb8" transform="translate(0 0)">
 </path>
</svg>