<?xml version="1.0" ?>
<svg xmlns="http://www.w3.org/2000/svg" viewBox="0 0 245 36" fill="none">
	<path fill-rule="evenodd" clip-rule="evenodd" d="M13.9031 15.8281H9.22686L5.72972 10.7946H4.24912V15.8281H0.000488281V0.310059H7.33753C11.1786 0.310059 13.174 2.85906 13.174 5.65396C13.174 7.55902 12.5296 9.1768 10.0007 10.3284L13.9031 15.5615V15.8281ZM4.24912 3.81098V7.53711H7.38111C8.49893 7.53711 8.99128 6.67283 8.99128 5.7416C8.99128 4.76656 8.45534 3.81098 7.33753 3.81098H4.24912Z" fill="#1F1007"/>
	<path fill-rule="evenodd" clip-rule="evenodd" d="M21.5848 11.9937C18.7331 11.9937 18.7755 16.0046 21.5848 16.0046C24.4376 16.0046 24.4588 11.9937 21.5848 11.9937Z" fill="#1F1007"/>
	<path fill-rule="evenodd" clip-rule="evenodd" d="M49.3019 6.58348L45.462 11.2834H44.7117L40.9578 6.60783V15.8264H36.7539V0.30957H41.1945L45.1404 5.56461L49.0852 0.30957H53.5058V15.8264H49.3019V6.58348Z" fill="#1F1007"/>
	<path fill-rule="evenodd" clip-rule="evenodd" d="M62.2834 11.9937C59.4306 11.9937 59.473 16.0046 62.2834 16.0046C65.1386 16.0046 65.1563 11.9937 62.2834 11.9937Z" fill="#1F1007"/>
	<path fill-rule="evenodd" clip-rule="evenodd" d="M90.0371 15.8062H86.58L83.9239 8.37947L81.349 15.8062H77.9166L72.3193 0.310059H76.952L78.8837 5.7623C79.2477 6.93942 79.4597 8.20296 79.674 9.35452L82.4444 0.310059H85.3821L88.2373 9.35452C88.4469 8.17984 88.7261 6.93942 89.0724 5.65274L90.871 0.310059H95.5084L90.0371 15.8062Z" fill="#1F1007"/>
	<path fill-rule="evenodd" clip-rule="evenodd" d="M105.229 15.8268H109.454V0.310059H105.229V15.8268Z" fill="#1F1007"/>
	<path fill-rule="evenodd" clip-rule="evenodd" d="M125.031 0.310059V12.1056H132.216V15.8268H120.781V0.310059H125.031Z" fill="#1F1007"/>
	<path fill-rule="evenodd" clip-rule="evenodd" d="M146.377 0.310059V12.1056H153.563V15.8268H142.128V0.310059H146.377Z" fill="#1F1007"/>
	<path fill-rule="evenodd" clip-rule="evenodd" d="M163.478 15.8268H167.703V0.310059H163.478V15.8268Z" fill="#1F1007"/>
	<path fill-rule="evenodd" clip-rule="evenodd" d="M189.5 13.2786H182.785L181.797 15.8264H177.294L184.029 0.30957H188.32L195.034 15.8264H190.487L189.5 13.2786ZM186.153 4.65651L184.223 9.59871H188.061L186.153 4.65651Z" fill="#1F1007"/>
	<path fill-rule="evenodd" clip-rule="evenodd" d="M217.198 6.58348L213.356 11.2834H212.608L208.85 6.60783V15.8264H204.647V0.30957H209.088L213.035 5.56461L216.981 0.30957H221.401V15.8264H217.198V6.58348Z" fill="#1F1007"/>
	<path fill-rule="evenodd" clip-rule="evenodd" d="M241.975 4.61036C240.944 3.81304 239.765 3.54645 238.458 3.54645C237.428 3.54645 236.42 3.87756 236.42 4.69923C236.42 5.76192 237.428 5.91773 238.908 6.07476C241.891 6.40587 245 7.64994 245 11.2166C245 14.7431 241.783 16.2501 238.415 16.272C235.711 16.2927 233.782 15.8058 231.703 13.5428L234.04 10.7759C235.52 12.2598 237.169 12.524 238.438 12.524C239.831 12.524 240.794 12.0151 240.794 11.1521C240.794 10.3742 239.938 9.8861 238.287 9.73272C235.004 9.42231 232.173 8.55682 232.173 4.69923C232.173 1.41985 235.282 0.000488281 238.458 0.000488281C240.711 0.000488281 242.47 0.531227 244.079 1.83981L241.975 4.61036Z" fill="#1F1007"/>
	<path fill-rule="evenodd" clip-rule="evenodd" d="M49.5837 34.9378H44.1489V27.561H49.4423V29.0668H45.7084V30.4911H49.2303V31.9311H45.7084V33.4186H49.5837V34.9378Z" fill="#1F1007"/>
	<path fill-rule="evenodd" clip-rule="evenodd" d="M57.5878 29.34C57.192 28.9091 56.4983 28.7216 55.9388 28.7216C55.2344 28.7216 54.6619 29.0247 54.6619 29.5311C54.6619 30.2055 55.2851 30.3308 56.2003 30.4161C57.6102 30.5414 58.9471 31.1002 58.9471 32.8105C58.9471 34.4526 57.4771 35.1696 55.9388 35.1793C54.7044 35.1903 53.4205 34.6924 52.8174 33.6626L53.7644 32.6376C54.3168 33.368 55.2226 33.6808 55.9482 33.6808C56.7951 33.6808 57.3746 33.3363 57.3746 32.8105C57.3852 32.1884 56.907 31.8999 55.9388 31.8172C54.424 31.6686 53.0824 31.2816 53.1013 29.5396C53.113 28.0764 54.4594 27.2974 55.9246 27.2974C57.0307 27.2974 57.854 27.5469 58.5902 28.4355L57.5878 29.34Z" fill="#1F1007"/>
	<path fill-rule="evenodd" clip-rule="evenodd" d="M63.8564 29.0247H61.6855V27.5615H67.6115V29.0247H65.4406V34.9371H63.8564V29.0247Z" fill="#1F1007"/>
	<path fill-rule="evenodd" clip-rule="evenodd" d="M112.958 34.2842C112.958 34.6433 113.18 34.8539 113.508 34.9062L113.354 36.0006H114.14C114.336 35.37 114.602 34.8027 114.602 34.2611C114.602 33.2422 112.958 33.1959 112.958 34.2842Z" fill="#1F1007"/>
	<path fill-rule="evenodd" clip-rule="evenodd" d="M127.434 29.2256L126.201 32.2177H128.657L127.434 29.2256ZM129.259 33.6723H125.6L125.077 34.9383H123.363L126.569 27.5615H128.299L131.502 34.9383H129.776L129.259 33.6723Z" fill="#1F1007"/>
	<path fill-rule="evenodd" clip-rule="evenodd" d="M140.289 27.5713V31.6918C140.289 33.8854 139.107 35.0527 137.23 35.1148C135.362 35.1818 133.785 34.0728 133.785 31.6918V27.5713H135.362V31.6918C135.362 33.0065 136.08 33.6918 137.24 33.6383C138.321 33.5689 138.711 32.7971 138.711 31.6918V27.5713H140.289Z" fill="#1F1007"/>
	<path fill-rule="evenodd" clip-rule="evenodd" d="M147.93 29.34C147.53 28.9091 146.839 28.7216 146.279 28.7216C145.573 28.7216 145.002 29.0247 145.002 29.5311C145.002 30.2055 145.624 30.3308 146.541 30.4161C147.95 30.5414 149.284 31.1002 149.284 32.8105C149.284 34.4526 147.816 35.1696 146.279 35.1793C145.045 35.1903 143.759 34.6924 143.157 33.6626L144.106 32.6376C144.657 33.368 145.564 33.6808 146.286 33.6808C147.133 33.6808 147.718 33.3363 147.718 32.8105C147.727 32.1884 147.245 31.8999 146.279 31.8172C144.77 31.6686 143.423 31.2816 143.444 29.5396C143.454 28.0764 144.801 27.2974 146.269 27.2974C147.368 27.2974 148.196 27.5469 148.927 28.4355L147.93 29.34Z" fill="#1F1007"/>
	<path fill-rule="evenodd" clip-rule="evenodd" d="M153.912 29.0247H151.74V27.5615H157.667V29.0247H155.494V34.9371H153.912V29.0247Z" fill="#1F1007"/>
	<path fill-rule="evenodd" clip-rule="evenodd" d="M162.136 28.9728V31.125H163.95C164.685 31.125 165.003 30.5517 165.003 30.0915C164.993 29.5827 164.677 28.9728 163.931 28.9728H162.136ZM166.88 34.9376H165.113L163.289 32.5139H162.136V34.9376H160.545V27.5571H163.931C165.655 27.5571 166.572 28.7525 166.572 30.0477C166.563 31.0069 166.287 31.8602 164.922 32.3679L166.88 34.811V34.9376Z" fill="#1F1007"/>
	<path fill-rule="evenodd" clip-rule="evenodd" d="M173.468 29.2256L172.233 32.2177H174.69L173.468 29.2256ZM175.294 33.6723H171.633L171.111 34.9383H169.399L172.603 27.5615H174.336L177.536 34.9383H175.814L175.294 33.6723Z" fill="#1F1007"/>
	<path fill-rule="evenodd" clip-rule="evenodd" d="M181.911 27.5581V33.4291H185.478V34.9385H180.317V27.5581H181.911Z" fill="#1F1007"/>
	<path fill-rule="evenodd" clip-rule="evenodd" d="M188.354 34.9381H189.934V27.5625H188.354V34.9381Z" fill="#1F1007"/>
	<path fill-rule="evenodd" clip-rule="evenodd" d="M196.768 29.2256L195.532 32.2177H197.992L196.768 29.2256ZM198.596 33.6723H194.932L194.415 34.9383H192.697L195.901 27.5615H197.635L200.839 34.9383H199.113L198.596 33.6723Z" fill="#1F1007"/>
	<path fill-rule="evenodd" clip-rule="evenodd" d="M81.3561 27.4438H82.4715V35.1785H80.8578V29.1529L79.5634 29.4852L79.2241 28.1L81.3561 27.4438Z" fill="#1F1007"/>
	<path fill-rule="evenodd" clip-rule="evenodd" d="M95.5635 28.9454V27.498H100.585V28.7701L98.7049 30.624C99.7273 30.8018 100.703 31.352 100.703 32.786C100.703 34.2467 99.6837 35.3106 98.0288 35.3106C96.6895 35.3106 95.7625 34.7616 95.1265 33.9838L96.2537 32.8748C96.7661 33.4676 97.2926 33.7963 98.0476 33.7963C98.6648 33.7963 99.0971 33.4336 99.0971 32.8541C99.0971 32.2163 98.58 31.8669 97.6471 31.8669H96.9651L96.7107 30.7933L98.4834 28.9454H95.5635Z" fill="#1F1007"/>
	<path fill-rule="evenodd" clip-rule="evenodd" d="M106.542 33.7203L107.753 32.7538C109.071 31.6984 109.707 31.052 109.707 29.769C109.707 28.3313 108.731 27.3892 107.149 27.3892C105.822 27.3892 105.107 27.9479 104.376 28.9789L105.524 29.9333C106.074 29.2309 106.467 28.9023 107.04 28.9023C107.626 28.9023 108.038 29.2553 108.038 29.8992C108.038 30.5371 107.68 30.9546 106.755 31.7422L104.282 33.842V35.181H109.782V33.7203H106.542Z" fill="#1F1007"/>
	<path fill-rule="evenodd" clip-rule="evenodd" d="M69.9377 33.2939C69.4772 33.2939 69.1309 33.653 69.1309 34.1193C69.1309 34.6257 69.4772 34.9555 69.9377 34.9555C70.3983 34.9555 70.7422 34.6257 70.7422 34.1193C70.7422 33.653 70.3983 33.2939 69.9377 33.2939Z" fill="#1F1007"/>
	<path fill-rule="evenodd" clip-rule="evenodd" d="M89.4065 31.1527C88.5961 31.1527 88.1108 30.6804 88.1108 29.9878C88.1108 29.2963 88.5679 28.8131 89.3747 28.8131C90.1922 28.8131 90.6786 29.3073 90.6786 29.9999C90.6786 30.6682 90.2134 31.1527 89.4065 31.1527ZM91.4655 28.1983C90.9024 27.6201 90.317 27.3657 89.3193 27.3657C87.642 27.3657 86.4854 28.5075 86.4854 30.0632C86.4854 31.6348 87.5231 32.5562 89.1403 32.5562C89.7858 32.5562 90.2887 32.3481 90.6492 32.0316C90.542 33.0602 90.0508 33.7735 89.1403 33.7735C88.5137 33.7735 88.0567 33.5642 87.5136 33.1174L86.6561 34.4004C87.2828 34.9385 88.0142 35.311 89.0979 35.311C91.211 35.311 92.3465 33.6092 92.3465 31.1077C92.3465 29.5824 91.9967 28.7473 91.4655 28.1983Z" fill="#1F1007"/>
</svg>