<?xml version="1.0" ?>
<!-- Generator: Adobe Illustrator 26.0.2, SVG Export Plug-In . SVG Version: 6.00 Build 0)  -->
<svg xmlns="http://www.w3.org/2000/svg" viewBox="0 0 240 240" enable-background="new 0 0 240 240">
	<style type="text/css">
	.st0{fill:#FFFFFF;}
	.st1{fill:none;}
	.st2{fill:#211742;}
</style>
	<g>
		<rect class="st0" width="240" height="240"/>
		<g>
			<rect id="Rectangle_2317" x="22" y="20" class="st1" width="195" height="200"/>
			<rect id="Rectangle_2318" x="22" y="20" class="st2" width="195" height="200"/>
			<rect id="Rectangle_2319" x="22" y="20" class="st1" width="195" height="200"/>
			<path class="st0" d="M188,193l-1,1c-2,3-6,4-9,4s-5-1-7-4s-3-7-4-10s-1-6-1-9v-2c0-3,0-6,0-9c0-2,0-4,0-6s0-3,0-5c0-3-1-7-2-10    c-1-5-3-9-7-13c-3-3-6-6-10-8c-3-2-7-3-11-4c-1,0-2,0-3-1c4-1,9-3,13-5c4-3,7-6,10-10c2-3,4-7,5-11c1-3,1-6,1-9c0-5-1-10-3-14    c-2-5-5-10-10-14c-4-4-10-7-16-9c-6-1-13-1-20-1c-2,0-3,0-5,0c-1,0-3,0-4,0c-2,0-3,0-5,0H58v3l0,0v5h21v144H58v7h63v-7h-21v-76h18    c2,0,5,0,7,1c3,1,6,2,8,3c3,2,5,5,7,9c2,5,4,11,4,17l1,20c1,6,1,10,2,15c1,4,2,8,5,11c2,3,5,5,8,7c4,1,7,2,11,2c1,0,1,0,2,0    c2,0,5,0,7-1c2,0,3-1,5-1c1-1,2-1,3-2l0,0l1-1l1-1l1-1L188,193z M125,113c-3,1-6,2-9,2H99l1-65c1,0,3,0,5,0c1,0,2,0,3,0s2,0,4,0    c3,0,6,0,10,1c3,1,6,2,8,4c3,3,5,6,6,10c2,6,2,12,2,18l0,0c0,5,0,11-2,16c-1,4-2,7-5,10C130,110,128,112,125,113z"/>
		</g>
	</g>
</svg>