<svg class="img-fluid w-75 h-auto" id="Layer_2" data-name="Layer 2" xmlns="http://www.w3.org/2000/svg" viewBox="0 0 242.28 75.25">
  <g id="Layer_1-2" data-name="Layer 1">
    <g id="Layer_2-2" data-name="Layer 2">
      <g id="artwork">
        <polygon points="233.06 21.55 242.28 0 225.8 16.66 215.71 15.6 207.13 28.36 212.92 23.25 220.49 24.07 215.91 29.9 221.95 30.23 224.53 35.7 228.2 29.26 231.81 35.96 229.26 43.25 237.84 30.5 233.06 21.55" style="fill: #8dc63f;"></polygon>
        <path d="M220.88,31.63l-10.16-.25-3.38,7.36,3.34-2-2.68,6.26,3.84-2.24-2.54,8.14,6.58-5.43-.63,4.41,4.79-4.8-.55,3.82,5.51-5.78-4.12-9.49Zm-1,9.61l-.13-1.65-2,1.61-.15-1.89-2.93,1.69,.47-3.36-1.81,.58,.72-2.5-1.57,.5,.52-2.22,6.15,.22,2.59,5.78-1.86,1.24Z" style="fill: #8dc63f;"></path>
        <path d="M0,33.67H10.87c2.54-.16,5.04,.71,6.94,2.41,1.37,1.47,2.09,3.43,2,5.44v.07c.18,3.33-1.9,6.36-5.06,7.41l5.81,8.5h-6.12l-5.1-7.61H5.23v7.61H0v-23.83Zm10.53,11.55c2.55,0,4-1.35,4-3.36v-.07c0-2.24-1.56-3.4-4.11-3.4H5.23v6.83h5.3Z" style="fill: #8dc63f;"></path>
        <path d="M19.71,48.45v-.07c.05-5.29,4.37-9.53,9.65-9.48,.08,0,.16,0,.24,0,5.23-.19,9.62,3.89,9.81,9.11,0,.1,0,.2,0,.31v.06c-.04,5.28-4.34,9.53-9.62,9.5-.09,0-.18,0-.27,0-5.23,.19-9.62-3.89-9.81-9.11,0-.1,0-.2,0-.31Zm14.61,0v-.07c.09-2.67-1.99-4.9-4.66-5-.04,0-.09,0-.13,0-2.57-.04-4.69,2.01-4.73,4.59,0,.14,0,.28,.01,.41v.06c-.09,2.67,2.01,4.91,4.68,5,.04,0,.08,0,.11,0,2.57,.04,4.69-2.01,4.73-4.59,0-.13,0-.27-.01-.4Z" style="fill: #8dc63f;"></path>
        <path d="M40.68,48.45v-.07c-.07-5.17,4.07-9.41,9.24-9.48,.1,0,.21,0,.31,0,2.77-.14,5.45,1,7.27,3.1l-3.16,3.4c-1-1.26-2.53-2-4.14-2-2.59,0-4.42,2.27-4.42,5v.06c0,2.79,1.8,5,4.62,5,1.6-.04,3.11-.73,4.18-1.93l3,3.06c-1.82,2.21-4.58,3.44-7.44,3.33-5.14,.08-9.38-4.02-9.46-9.16,0-.1,0-.21,0-.31Z" style="fill: #8dc63f;"></path>
        <path d="M59.37,32.65h5.17v13.22l6-6.63h6.18l-6.93,7.17,7.21,11.05h-6l-4.63-7.46-1.83,1.94v5.54h-5.17v-24.83Z" style="fill: #8dc63f;"></path>
        <path d="M76,48.45v-.07c0-5.19,3.7-9.48,9-9.48,6.08,0,8.87,4.73,8.87,9.89,0,.41,0,.89-.07,1.36h-12.64c.33,2.16,2.27,3.71,4.45,3.57,1.66,.01,3.25-.67,4.39-1.87l3,2.62c-3.41,4.08-9.47,4.62-13.55,1.21-2.14-1.79-3.4-4.42-3.45-7.21v-.02Zm12.84-1.53c-.3-2.31-1.66-3.87-3.84-3.87s-3.53,1.53-3.94,3.87h7.78Z" style="fill: #8dc63f;"></path>
        <path d="M97.06,52.29v-8.63h-2.17v-4.42h2.17v-4.65h5.17v4.65h4.28v4.42h-4.28v7.78c0,1.19,.51,1.77,1.66,1.77,.89,0,1.77-.22,2.55-.65v4.15c-1.24,.71-2.65,1.06-4.08,1-3.16,.05-5.3-1.2-5.3-5.42Z" style="fill: #8dc63f;"></path>
        <path d="M108.72,45.63v-.07c-.12-6.68,5.2-12.18,11.87-12.3,.18,0,.35,0,.53,0,3.51-.17,6.92,1.16,9.38,3.67l-3.33,3.84c-1.6-1.66-3.78-2.62-6.08-2.68-4,0-6.9,3.33-6.9,7.41v.06c0,4.08,2.82,7.48,6.9,7.48,2.72,0,4.38-1.09,6.25-2.79l3.33,3.37c-2.43,2.84-6.02,4.41-9.75,4.25-6.63,.11-12.09-5.17-12.2-11.8,0-.15,0-.3,0-.44Z" style="fill: #fff;"></path>
        <path d="M144.85,39.24h5.36l-7,18.66c-1.39,3.7-2.88,5.1-6,5.1-1.62,.02-3.2-.41-4.58-1.26l1.75-3.74c.67,.42,1.43,.66,2.21,.71,.8,.07,1.55-.42,1.8-1.18l-7.14-18.29h5.47l4.15,12.41,3.98-12.41Z" style="fill: #fff;"></path>
        <path d="M156.47,55.08v2.38h-5.17v-24.81h5.17v9.21c1.26-1.9,3.39-3.03,5.67-3,4.25,0,8.3,3.33,8.3,9.42v.06c0,6.09-4,9.42-8.3,9.42-2.21,.05-4.31-.94-5.67-2.68Zm8.8-6.7v-.06c0-3-2-5-4.45-5s-4.42,2-4.42,5v.06c0,3,2,5,4.42,5s4.45-1.94,4.45-5Z" style="fill: #fff;"></path>
        <path d="M171.8,48.45v-.07c0-5.19,3.7-9.48,9-9.48,6.08,0,8.87,4.73,8.87,9.89,0,.41,0,.89-.07,1.36h-12.67c.33,2.16,2.27,3.71,4.45,3.57,1.67,.02,3.27-.66,4.42-1.87l2.95,2.62c-3.44,4.05-9.51,4.54-13.56,1.11-2.09-1.78-3.33-4.36-3.39-7.11v-.02Zm12.84-1.53c-.3-2.31-1.66-3.87-3.84-3.87s-3.53,1.53-3.94,3.87h7.78Z" style="fill: #fff;"></path>
        <path d="M191.34,39.24h5.16v3.67c1.06-2.51,2.76-4.14,5.82-4v5.41h-.32c-3.43,0-5.54,2.07-5.54,6.42v6.73h-5.16l.04-18.23Z" style="fill: #fff;"></path>
        <path d="M159.05,72.24h-.54s-.1,.02-.15,0c-.04-.04-.07-.08-.09-.13l-.48-1.37h-2.3l-.49,1.32s-.05,.09-.09,.12c-.04,.04-.09,.06-.15,.06h-.54l2.06-5.64h.7l2.07,5.64Zm-3.37-2.1h1.92l-.81-2.29c-.06-.17-.11-.35-.15-.53,0,.11,0,.2-.08,.29-.02,.08-.04,.16-.07,.24l-.81,2.29Z" style="fill: #fff;"></path>
        <path d="M161.76,63.5h1.79v3.82l3.21-3.82h2.24l-3.66,4.2,3.81,4.71h-2.33l-3.21-4.14h0v4.14h-1.79l-.06-8.91Z" style="fill: #fff;"></path>
        <path d="M169.81,66.18c.72-.32,1.49-.49,2.28-.5,2,0,2.84,.83,2.84,2.77v2.49c0,.48,0,1,.08,1.47h-1.5c-.05-.33-.08-.67-.08-1h0c-.42,.7-1.18,1.13-2,1.13-1.15,.11-2.18-.73-2.29-1.89,0-.04,0-.07,0-.11-.05-.8,.39-1.55,1.12-1.88,.7-.29,1.46-.42,2.22-.38h.94c0-1.06-.47-1.42-1.48-1.42-.73,.02-1.43,.27-2,.72l-.12-1.4Zm2,5.13c.47,.01,.92-.21,1.2-.59,.26-.4,.39-.87,.36-1.35h-.74c-.77,0-1.91,.13-1.91,1.14,0,.56,.48,.8,1.09,.8Z" style="fill: #fff;"></path>
        <path d="M180,67.21c-.49-.19-1.01-.28-1.53-.28-.46,0-1,.17-1,.73,0,1,3,.38,3,2.76,0,1.53-1.37,2.14-2.76,2.14-.66,0-1.31-.1-1.94-.28l.1-1.4c.52,.27,1.09,.42,1.68,.43,.44,0,1.13-.16,1.13-.8,0-1.29-3-.41-3-2.79,0-1.42,1.24-2,2.58-2,.63,0,1.26,.09,1.87,.24l-.13,1.25Z" style="fill: #fff;"></path>
        <path d="M186.63,72c-.7,.36-1.48,.54-2.27,.52-1.71,.18-3.25-1.07-3.43-2.78-.02-.21-.02-.41,0-.62,0-1.91,1-3.48,3-3.48,2.44,0,3.14,1.67,3.14,4h-4.55c.03,.95,.82,1.7,1.77,1.67,.03,0,.07,0,.1,0,.78-.02,1.53-.25,2.19-.66l.05,1.36Zm-1.15-3.57c0-.82-.43-1.54-1.39-1.54-.82-.02-1.5,.64-1.52,1.46,0,.03,0,.05,0,.08h2.91Z" style="fill: #fff;"></path>
        <path d="M190.54,70.64h0l1.59-4.81h1.73l-2.46,6.53c-.55,1.46-.95,2.89-2.74,2.89-.41,0-.82-.07-1.21-.18l.11-1.27c.29,.09,.59,.13,.89,.12,.59,.03,1.09-.43,1.11-1.02,0-.05,0-.1,0-.16l-2.52-6.91h1.96l1.54,4.81Z" style="fill: #fff;"></path>
        <path d="M194.32,66.18c.72-.32,1.49-.49,2.28-.5,2,0,2.84,.83,2.84,2.77v2.49c0,.48,0,1,.08,1.47h-1.52c-.05-.33-.08-.67-.08-1h0c-.42,.7-1.18,1.13-2,1.13-1.15,.11-2.18-.73-2.29-1.89,0-.04,0-.07,0-.11-.05-.8,.4-1.55,1.13-1.88,.7-.29,1.45-.42,2.21-.38h.94c0-1.06-.47-1.42-1.48-1.42-.73,.02-1.43,.27-2,.72l-.1-1.4Zm2,5.13c.47,.01,.92-.21,1.2-.59,.26-.4,.39-.87,.36-1.35h-.74c-.77,0-1.91,.13-1.91,1.14,0,.56,.48,.8,1.09,.8Z" style="fill: #fff;"></path>
        <path d="M205.78,71.07s.08,.02,.11,.05l.27,.33c-.21,.27-.47,.48-.77,.63-.67,.29-1.42,.29-2.09,0-.3-.14-.56-.34-.77-.59-.22-.27-.39-.58-.49-.91-.12-.38-.18-.77-.18-1.17,0-.4,.06-.79,.19-1.17,.12-.33,.3-.64,.53-.91,.22-.25,.5-.45,.81-.59,.33-.15,.69-.23,1.05-.22,.34,0,.69,.06,1,.2,.27,.13,.52,.31,.73,.52l-.23,.35s-.03,.05-.06,.07h-.09s-.07,.01-.1,0l-.12-.09-.17-.12c-.07-.05-.15-.08-.23-.11-.1-.04-.2-.08-.31-.1-.13-.01-.27-.01-.4,0-.26,0-.52,.05-.76,.15-.23,.1-.43,.25-.59,.44-.17,.21-.3,.45-.38,.7-.19,.61-.19,1.26,0,1.87,.08,.26,.21,.49,.38,.7,.15,.19,.34,.33,.56,.43,.22,.1,.46,.15,.7,.15,.14,.01,.27,.01,.41,0,.12-.02,.23-.05,.34-.09,.1-.04,.2-.09,.29-.16,.1-.07,.19-.14,.27-.23,0-.06,.05-.11,.1-.13Z" style="fill: #fff;"></path>
        <path d="M211.84,69.42c0,.39-.06,.79-.18,1.16-.11,.33-.29,.64-.52,.91-.22,.25-.49,.46-.8,.6-.32,.14-.66,.21-1,.21-.34,0-.69-.07-1-.21-.31-.14-.58-.35-.8-.6-.23-.26-.41-.57-.52-.91-.24-.75-.24-1.57,0-2.32,.11-.34,.29-.65,.52-.92,.22-.25,.49-.45,.8-.59,.31-.14,.65-.22,1-.22,.34,0,.69,.08,1,.22,.31,.14,.58,.34,.8,.59,.23,.27,.41,.58,.52,.92,.12,.37,.18,.77,.18,1.16Zm-.71,0c0-.31-.04-.63-.13-.93-.08-.26-.2-.49-.37-.7-.15-.19-.35-.34-.57-.44-.24-.1-.49-.15-.75-.15-.26,0-.51,.05-.75,.15-.23,.1-.42,.25-.58,.44-.17,.2-.29,.44-.36,.7-.17,.61-.17,1.25,0,1.86,.07,.26,.19,.49,.36,.7,.16,.19,.36,.33,.58,.43,.24,.1,.49,.15,.75,.15,.26,0,.51-.05,.75-.15,.22-.1,.42-.24,.57-.43,.17-.21,.29-.45,.37-.7,.09-.3,.13-.62,.13-.93h0Z" style="fill: #fff;"></path>
        <path d="M215.4,70.4l.08,.21c0-.08,.05-.15,.07-.21l.09-.21,1.74-3.46c0-.06,.06-.1,.1-.11,.05-.01,.09-.01,.14,0h.51v5.64h-.61v-4.34c0-.07,0-.13,0-.2l-1.76,3.53c-.04,.11-.14,.18-.25,.18h-.1c-.11,0-.21-.07-.25-.18l-1.8-3.54c0,.07,0,.13,0,.2,0,.06,0,.12,0,.18v4.15h-.61v-5.64h.51s.1-.01,.15,0c0,0,.06,0,.09,.11l1.78,3.47c.05,.07,.09,.14,.12,.22Z" style="fill: #fff;"></path>
        <path d="M220.15,70.13v2.11h-.69v-5.64h1.54c.29,0,.57,.03,.85,.12,.22,.07,.42,.19,.59,.35,.16,.16,.28,.34,.36,.55,.08,.23,.12,.48,.11,.72,0,.25-.04,.49-.12,.72-.08,.21-.21,.41-.37,.57-.17,.17-.38,.29-.6,.37-.26,.09-.54,.13-.82,.13h-.85Zm0-.61h.85c.18,0,.36-.03,.53-.09,.14-.05,.27-.13,.38-.24,.1-.1,.18-.23,.23-.37,.05-.15,.08-.32,.08-.48,.02-.31-.09-.61-.3-.84-.26-.22-.59-.33-.92-.3h-.82l-.03,2.32Z" style="fill: #fff;"></path>
        <path d="M227.49,72.24h-.49s-.1,.02-.15,0c-.03-.04-.06-.08-.08-.13l-.48-1.37h-2.31l-.48,1.37s-.04,.09-.08,.12c-.04,.04-.09,.06-.15,.06h-.54l2-5.64h.71l2.05,5.59Zm-3.36-2.1h1.87l-.8-2.29c-.06-.17-.12-.35-.16-.53,0,.11-.05,.2-.07,.29-.02,.08-.05,.16-.08,.24l-.76,2.29Z" style="fill: #fff;"></path>
        <path d="M228.64,66.62s.07,.07,.1,.11l3,4.25v-4.38h.6v5.64h-.34s-.09,.01-.13,0c-.04-.03-.08-.07-.11-.11l-3-4.25c0,.07,0,.13,0,.2v4.19h-.61v-5.67h.36l.13,.02Z" style="fill: #fff;"></path>
        <path d="M235.54,70v2.25h-.7v-2.25l-1.84-3.4h.61c.05,0,.11,.01,.15,.05,.04,.03,.07,.07,.09,.12l1.15,2.23c.05,.08,.09,.17,.12,.26l.09,.24c.02-.08,.05-.17,.08-.25,.03-.09,.07-.17,.12-.25l1.17-2.2s.05-.09,.09-.12c.04-.03,.09-.05,.14-.05h.62l-1.89,3.37Z" style="fill: #fff;"></path>
      </g>
    </g>
  </g>
</svg>