<?xml version="1.0" ?>
<svg xmlns="http://www.w3.org/2000/svg" viewBox="0 0 222 42" fill="none">
	<path d="M159.273 22.9989C159.273 24.9046 159.284 26.8131 159.261 28.7188C159.258 29.0749 159.487 29.6368 158.915 29.7175C158.395 29.7926 157.783 29.9846 157.326 29.4282C156.931 28.9497 156.777 28.065 156.151 28.0539C155.665 28.0455 155.187 28.7132 154.67 29.0276C150.599 31.4925 146.137 29.2974 145.777 24.6792C145.579 22.1392 145.734 19.5964 145.665 17.0564C145.648 16.4138 145.848 16.1662 146.566 16.1411C149.913 16.0243 149.91 16.002 149.913 19.2097C149.913 20.879 149.885 22.5482 149.925 24.2146C149.967 25.9172 150.817 26.8353 152.26 26.852C153.881 26.8687 155.153 25.6975 155.173 24.1033C155.202 21.7998 155.222 19.4935 155.162 17.1927C155.139 16.3359 155.428 16.1384 156.271 16.1439C159.273 16.1578 159.273 16.1272 159.273 19.0706C159.273 20.3782 159.273 21.6885 159.273 22.9989Z" fill="#F19C22"/>
	<path d="M98.4507 23.0519C98.4507 24.9604 98.4621 26.8688 98.4421 28.7745C98.4393 29.1251 98.6565 29.6815 98.0419 29.7288C97.513 29.7705 96.7755 30.0487 96.4839 29.4005C95.7835 27.8426 95.0631 28.182 93.8253 28.9721C89.8059 31.5343 85.2634 29.3337 84.9461 24.6961C84.7689 22.1227 84.8889 19.5326 84.8489 16.9508C84.8403 16.311 85.129 16.1719 85.7379 16.1468C88.9826 16.0133 88.9597 15.9994 88.9912 19.1681C89.0083 20.9932 88.8282 22.8237 89.1112 24.6432C89.3514 26.1956 90.1976 26.93 91.604 26.8521C93.0934 26.7687 94.2941 25.6781 94.3141 24.276C94.3513 21.9307 94.3542 19.5854 94.3084 17.2402C94.2941 16.4501 94.4714 16.1385 95.3747 16.1385C98.4507 16.1413 98.4507 16.1051 98.4507 19.1181C98.4536 20.4284 98.4536 21.7387 98.4507 23.0519Z" fill="#F19C22"/>
	<path d="M208.217 22.9293C208.217 20.9818 208.205 19.0344 208.225 17.087C208.228 16.7364 208.008 16.1828 208.617 16.1244C209.146 16.0743 209.749 15.8768 210.192 16.4638C210.567 16.9618 210.753 17.8325 211.37 17.8548C211.845 17.8715 212.325 17.1899 212.834 16.8672C216.207 14.7306 221.507 16.0214 221.724 21.2155C221.83 23.7611 221.744 26.3011 221.822 28.8439C221.842 29.4921 221.664 29.7286 220.938 29.7481C217.685 29.8343 217.711 29.8593 217.676 26.7462C217.656 24.8822 217.851 23.0099 217.536 21.1543C217.279 19.6409 216.47 18.9509 215.101 19.0316C213.577 19.1206 212.376 20.1778 212.353 21.5716C212.313 23.9558 212.316 26.3428 212.356 28.727C212.371 29.4726 212.196 29.7508 211.353 29.7536C208.211 29.7647 208.211 29.7981 208.211 26.749C208.217 25.4748 208.217 24.2034 208.217 22.9293Z" fill="#F19C22"/>
	<path d="M165.602 25.4443C166.86 25.4221 167.823 25.3108 168.598 26.4793C169.236 27.4446 170.565 27.2721 171.663 26.9355C172.049 26.8159 172.397 26.5488 172.414 26.0814C172.432 25.6029 172.086 25.3498 171.691 25.2246C170.799 24.9436 169.884 24.7238 168.987 24.4595C168.206 24.2314 167.4 24.0422 166.66 23.7195C165.222 23.0907 164.287 22.0669 164.207 20.4422C164.133 18.9065 164.813 17.7687 166.077 16.9174C168.298 15.4234 172.572 15.5625 174.679 17.2067C175.027 17.4793 175.353 17.7965 175.619 18.1415C176.111 18.7841 176.705 19.577 176.397 20.2864C176.202 20.7371 175.19 20.4283 174.547 20.4422C173.538 20.4617 172.454 20.7232 171.914 19.4184C171.705 18.9121 170.991 18.7897 170.405 18.7647C169.616 18.7341 168.692 18.709 168.467 19.6215C168.215 20.6425 169.247 20.6815 169.893 20.8818C171.099 21.2546 172.357 21.4744 173.555 21.8694C175.582 22.5399 176.562 23.7056 176.608 25.3219C176.662 27.1998 175.759 28.5769 173.769 29.3503C171.254 30.3241 168.73 30.2378 166.28 29.0638C165.688 28.78 165.17 28.3822 164.744 27.8898C164.161 27.2137 163.438 26.3875 163.738 25.5974C163.915 25.1244 165.076 25.5222 165.602 25.4443Z" fill="#F19C22"/>
	<path d="M134.462 24.4401C134.462 23.0102 134.433 21.5802 134.473 20.1502C134.49 19.4937 134.296 19.1515 133.581 19.2655C132.598 19.4213 132.232 19.0179 132.372 18.0859C132.412 17.8133 132.406 17.5268 132.372 17.2541C132.281 16.4696 132.524 16.0161 133.436 16.158C134.236 16.2832 134.462 15.9632 134.482 15.1787C134.565 11.9209 135.988 10.6356 139.382 10.6356C139.545 10.6356 139.71 10.6356 139.873 10.6356C142.258 10.644 142.232 10.644 142.143 12.9225C142.117 13.5512 141.949 13.7932 141.283 13.6653C140.845 13.5818 140.385 13.5206 139.942 13.5512C138.698 13.6375 138.644 14.5667 138.596 15.4597C138.538 16.528 139.402 16.0411 139.905 16.1608C139.945 16.1691 139.988 16.1608 140.028 16.1608C142.109 16.1636 142.635 16.8451 142.129 18.8343C142.057 19.1125 141.949 19.2544 141.657 19.2572C141.534 19.26 141.411 19.2572 141.288 19.2655C138.584 19.3907 138.584 19.3907 138.584 21.978C138.584 24.2426 138.564 26.5072 138.596 28.7718C138.604 29.4506 138.47 29.7399 137.664 29.7538C134.456 29.8039 134.456 29.8345 134.456 26.7075C134.462 25.9508 134.462 25.1968 134.462 24.4401Z" fill="#F19C22"/>
	<path d="M104.211 22.9348C104.211 21.9806 104.179 21.0236 104.222 20.0721C104.251 19.4517 104.028 19.154 103.384 19.2681C102.312 19.4601 102.138 18.8953 102.235 18.0523C102.267 17.7769 102.272 17.4904 102.235 17.2177C102.118 16.4026 102.418 16.0103 103.301 16.1578C104.122 16.2969 104.259 15.874 104.222 15.198C104.173 14.3661 104.262 13.5232 104.196 12.6941C104.133 11.9263 104.456 11.7816 105.18 11.7733C108.356 11.7343 108.416 11.7148 108.33 14.7445C108.299 15.8851 108.587 16.2412 109.799 16.1884C112.141 16.0882 112.329 16.3803 111.998 18.6616C111.943 19.0316 111.855 19.2709 111.426 19.257C111.303 19.2542 111.18 19.257 111.057 19.2597C108.359 19.3516 108.359 19.3516 108.361 21.9667C108.361 23.1212 108.364 24.273 108.384 25.4275C108.401 26.443 108.899 26.9883 110.002 26.8965C110.085 26.8909 110.168 26.8826 110.248 26.8909C110.8 26.9438 111.575 26.5459 111.855 27.0411C112.235 27.7255 111.983 28.5935 111.966 29.3836C111.961 29.6229 111.769 29.7175 111.543 29.7175C110.037 29.7175 108.524 30.0457 107.032 29.5784C105.283 29.0303 104.342 27.8062 104.231 25.7948C104.179 24.8433 104.222 23.8863 104.222 22.932C104.216 22.9348 104.213 22.9348 104.211 22.9348Z" fill="#F19C22"/>
	<path d="M58.0311 18.0496C59.4204 16.2135 61.1671 15.5653 63.3711 16.0271C63.9029 16.1384 64.1916 16.3025 64.1144 16.8617C64.0916 17.0175 64.1173 17.1788 64.1116 17.3374C64.0887 18.0468 64.3203 18.951 63.9601 19.4128C63.6113 19.858 62.6965 19.3238 62.0276 19.2709C60.2809 19.1291 59.1889 20.0082 59.1431 21.7414C59.0831 24.0422 59.0888 26.3485 59.1345 28.652C59.1488 29.4393 58.9916 29.7565 58.0768 29.7537C54.9665 29.7453 54.9665 29.7815 54.9665 26.7435C54.9665 23.5275 54.9579 20.3086 54.9808 17.0926C54.9837 16.7532 54.7121 16.1912 55.3353 16.1244C55.867 16.0688 56.4988 15.8685 56.9133 16.4527C57.2563 16.9396 57.5994 17.432 58.0311 18.0496Z" fill="#F19C22"/>
	<path d="M181.036 22.9268C181.036 20.9793 181.068 19.0291 181.019 17.0817C180.999 16.3445 181.239 16.1497 181.991 16.1414C185.184 16.1024 185.184 16.0774 185.184 19.1015C185.184 22.2813 185.162 25.464 185.202 28.6439C185.21 29.4201 185.076 29.7567 184.152 29.7539C181.036 29.7456 181.036 29.7845 181.036 26.7437C181.036 25.4696 181.036 24.1982 181.036 22.9268Z" fill="#F19C22"/>
	<path d="M183.094 14.5583C181.688 14.5389 180.796 13.7682 180.827 12.597C180.856 11.4842 181.894 10.6468 183.192 10.6885C184.438 10.7302 185.427 11.5871 185.421 12.6248C185.413 13.7571 184.427 14.5778 183.094 14.5583Z" fill="#F19C22"/>
	<path d="M21.186 0.356805C9.49097 0.270562 0.00857878 9.43184 2.59827e-06 20.663C-0.00571485 31.8301 9.4252 41.0693 20.8458 41.0804C32.1521 41.0915 41.9775 32.6146 42.0061 20.752C42.0376 8.98115 32.3865 0.440267 21.186 0.356805ZM18.4102 4.26279C18.8647 4.19602 19.0048 4.29618 19.0048 4.70792C19.0019 8.44977 19.0019 12.1916 19.0019 16.3063C16.3405 12.8426 13.396 10.2108 9.79686 8.13262C12.3783 6.01826 15.1913 4.73296 18.4102 4.26279ZM4.20232 17.1854C4.72546 15.135 5.54878 13.2099 6.74659 11.4377C7.07534 10.9508 7.36693 10.9898 7.85291 11.2374C11.7379 13.2154 16.0403 17.7223 18.0585 22.143C14.8625 20.3514 11.7293 19.1523 8.37033 18.5792C7.28687 18.3928 6.18626 18.2481 5.08851 18.1869C4.34524 18.148 4.01364 17.9254 4.20232 17.1854ZM19.0305 28.6001C18.9362 29.8242 19.0077 31.0595 19.0077 32.2919C19.0077 33.6829 18.9877 35.0712 19.0163 36.4622C19.0305 37.0937 18.8762 37.2133 18.1786 37.1243C11.595 36.2786 5.38871 30.5364 4.18804 24.1127C3.70206 21.5115 3.69631 21.5532 6.40924 21.9316C10.6259 22.5158 14.4394 24.0181 17.8899 26.4357C18.6961 26.9949 19.1049 27.5986 19.0305 28.6001ZM35.2367 11.3932C36.5259 13.2099 37.3178 15.2213 37.861 17.344C38.0525 18.0868 37.5551 18.1313 37.0434 18.1591C32.4694 18.4262 28.2356 19.7699 24.1905 21.8871C25.7085 18.4985 28.0126 15.7304 30.9371 13.4296C31.9863 12.6034 33.104 11.8745 34.259 11.1901C34.6935 10.9341 34.9251 10.9536 35.2367 11.3932ZM22.9727 4.17099C26.4489 4.58829 29.4935 5.85969 32.2207 8.12427C28.5844 10.2525 25.5627 12.9372 22.9727 16.3925C22.9727 12.1777 22.9727 8.19383 22.9727 4.17099ZM24.8566 36.9212C22.8984 37.3997 22.8984 37.3997 22.8984 35.5135C22.8984 34.4424 22.8984 33.3686 22.8984 32.2975C22.8984 30.9065 22.9098 29.5182 22.8927 28.1272C22.8869 27.6626 22.9899 27.3232 23.3987 27.0088C27.4209 23.8985 32.0006 22.182 37.1148 21.7758C37.698 21.7285 38.2555 21.5949 38.1297 22.5575C37.192 29.6545 32.1406 35.1435 24.8566 36.9212Z" fill="#F19C22"/>
	<path d="M120.291 23.9894C121.683 24.0284 123.076 24.0005 124.471 24.0005C125.248 24.0005 126.029 24.0005 126.806 24.0005C129.553 24.0005 129.862 23.6166 129.268 20.9431C129.25 20.8652 129.213 20.7928 129.193 20.7177C128.093 16.6365 123.49 14.6946 119.248 16.5196C116.166 17.8467 114.705 21.2101 115.566 24.9993C116.163 27.6283 118.21 29.4533 121.08 29.9124C124.085 30.3909 126.958 29.317 128.313 27.1637C128.641 26.6407 129.233 26.0231 128.939 25.4695C128.699 25.0188 127.887 25.3526 127.332 25.2942C127.089 25.2692 126.84 25.3025 126.595 25.2886C125.754 25.2358 125.097 25.3387 124.528 26.1538C123.862 27.1025 122.69 27.1081 121.609 26.8549C120.488 26.5934 119.974 25.7755 119.699 24.7406C119.536 24.1591 119.648 23.9699 120.291 23.9894ZM119.799 20.6816C120.185 19.6021 121.272 18.8732 122.55 18.8844C123.813 18.8955 124.762 19.5632 125.162 20.6621C125.385 21.2769 125.38 21.6414 124.542 21.5885C123.853 21.544 123.156 21.5802 122.464 21.5802C121.812 21.5802 121.157 21.5496 120.506 21.5885C119.748 21.633 119.556 21.3604 119.799 20.6816Z" fill="#F19C22"/>
	<path d="M73.6854 15.888C69.2944 15.8686 66.5414 18.5838 66.5386 22.9405C66.5357 27.2666 69.22 29.9569 73.551 29.968C77.8534 29.9791 80.7207 27.2694 80.7236 23.1909C80.7264 18.6701 78.0621 15.9047 73.6854 15.888ZM76.4269 24.4929C76.0353 26.023 75.0747 26.8577 73.6425 26.8604C72.2589 26.8632 71.1525 25.973 70.8095 24.5152C70.6837 23.981 70.6894 23.4163 70.6666 23.1854C70.6723 21.3798 70.9038 19.961 72.4904 19.2682C74.0856 18.5699 75.7951 19.3573 76.3154 20.9764C76.687 22.1282 76.7328 23.305 76.4269 24.4929Z" fill="#F19C22"/>
	<path d="M196.799 15.8883C192.403 15.8521 189.635 18.5563 189.618 22.9074C189.601 27.1973 192.268 29.9404 196.479 29.9682C201.007 29.9961 203.78 27.3642 203.838 22.9825C203.892 18.7788 201.062 15.9245 196.799 15.8883ZM199.358 24.9939C198.949 26.1596 198.08 26.8106 196.788 26.8496C195.507 26.8913 194.572 26.2431 194.058 25.0329C193.769 24.3541 193.775 23.6419 193.738 22.977C193.769 22.2592 193.775 21.5887 194.029 20.9433C194.498 19.7498 195.481 19.0265 196.696 19.0237C197.969 19.0209 198.935 19.683 199.372 20.9127C199.855 22.2703 199.83 23.6474 199.358 24.9939Z" fill="#F19C22"/>
</svg>
