<?xml version="1.0" encoding="UTF-8"?>
<!-- Generator: Adobe Illustrator 24.3.0, SVG Export Plug-In . SVG Version: 6.00 Build 0)  -->
<svg version="1.1" id="Layer_1" xmlns="http://www.w3.org/2000/svg"  x="0px" y="0px" viewBox="0 0 270 317" style="enable-background:new 0 0 270 317;" xml:space="preserve">
<style type="text/css">
	.st0{fill:#FFFFFF;}
	.st1{fill:#EC1C27;}
	.st2{fill:none;}
	.st3{fill:#14BEC8;}
	.st4{fill:#6B363C;}
</style>
<path class="st0" d="M247.58,126.17c-5.22,0-10.45,1.98-14.41,5.94l-149,149c-7.92,7.92-7.92,20.89,0,28.81  c3.96,3.96,9.19,5.94,14.41,5.94c5.22,0,10.45-1.98,14.41-5.94l149-149c7.92-7.92,7.92-20.89,0-28.82  C258.03,128.15,252.81,126.17,247.58,126.17"/>
<path class="st1" d="M267.94,294.38v2.48C267.99,296.03,267.99,295.2,267.94,294.38z"/>
<path class="st1" d="M247.69,315.93c0.39,0,0.78-0.03,1.18-0.06h-2.35C246.9,315.89,247.29,315.93,247.69,315.93z"/>
<path class="st2" d="M262.02,310.01c-3.64,3.65-8.36,5.58-13.16,5.86h19.07v-19.01c-0.29,4.78-2.23,9.47-5.85,13.09L262.02,310.01z"/>
<path class="st1" d="M201.86,221.06l-28.73,28.73l60.22,60.22c3.65,3.65,8.36,5.58,13.16,5.86h2.35c4.8-0.28,9.52-2.21,13.16-5.86  l0.06-0.06c3.63-3.63,5.57-8.32,5.85-13.09v-2.48c-0.29-4.78-2.23-9.47-5.85-13.1L201.86,221.06z"/>
<path class="st1" d="M192.11,70.33c-0.09-4.41-0.9-9.76-1.5-12.34c-0.46-1.97-1.15-4.6-1.89-6.88c-0.67-2.07-1.34-3.76-2.34-6.19  c-1.4-3.43-4.79-9.19-6.64-11.76c-2.84-3.96-6.65-8.48-10.95-12.33c-3.86-3.45-8.26-6.29-11.3-8.15c-2.72-1.67-8.04-4.26-12.62-5.99  c-4.14-1.56-8.42-2.56-10.72-3.03c-4.27-0.86-7.4-1.52-14.26-1.8H22.48v0C11.37,1.92,2.3,11.02,2.3,22.14v186.28  c0,11.15,9.12,20.27,20.27,20.27h0.09c11.15,0,20.27-9.12,20.27-20.27v-59.17h29.65l3.46,3.46l2.19,2.19l66.08,66.08l28.73-28.73  l-43.35-43.35c1.06-0.13,2.16-0.3,3.28-0.55c4.01-0.88,8.07-1.88,10.36-2.84c3.54-1.48,5.36-2.35,10.04-5.15  c2.91-1.74,5.89-4.04,8.39-6.07c2.66-2.17,5.6-4.65,8.86-8.13c0.13-0.14,0.25-0.26,0.38-0.4c1.11-1.2,2.25-2.51,3.44-3.97  c3.15-3.88,5.99-8.24,6.89-9.83c1.58-2.78,3.62-6.49,5.73-12.02c1.69-4.44,3.38-11.06,3.87-13.5c0.35-1.78,0.66-4.27,0.91-7.27  C192.06,76.52,192.18,73.45,192.11,70.33z M42.93,109.44V42.39h75.23c3.12,0.13,4.54,0.43,6.49,0.82c1.05,0.21,2.99,0.67,4.88,1.38  c2.08,0.79,4.5,1.96,5.74,2.72c1.38,0.85,3.38,2.14,5.14,3.71c1.96,1.75,3.69,3.81,4.98,5.61c0.84,1.17,2.38,3.79,3.02,5.35  c0.45,1.11,0.76,1.87,1.06,2.82c0.33,1.04,0.65,2.23,0.86,3.13c0.27,1.17,0.64,3.61,0.68,5.61c0.03,1.42-0.02,2.81-0.12,4.02  c-0.12,1.36-0.26,2.5-0.42,3.31c-0.22,1.11-0.99,4.12-1.76,6.14c-0.96,2.52-1.89,4.21-2.6,5.47c-0.41,0.72-1.7,2.71-3.14,4.47  c-2.19,2.71-4.1,4.33-5.77,5.69c-1.14,0.92-2.5,1.97-3.82,2.76c-2.13,1.27-2.96,1.67-4.57,2.34c-1.04,0.44-2.89,0.89-4.71,1.29  c-1.72,0.38-3.41,0.41-4.43,0.41c-0.21,0-0.39,0-0.54,0H42.93z"/>
<path class="st3" d="M84.18,309.92c3.96,3.96,9.19,5.94,14.41,5.94c5.22,0,10.45-1.98,14.41-5.94l60.13-60.13l-28.82-28.82  l-60.14,60.14C76.25,289.03,76.25,302,84.18,309.92z"/>
<path class="st3" d="M261.99,160.92c7.92-7.92,7.92-20.89,0-28.82c-3.96-3.96-9.18-5.94-14.41-5.94c-5.22,0-10.45,1.98-14.41,5.94  l-60.13,60.13l28.82,28.82L261.99,160.92z"/>
<rect x="152.77" y="200.64" transform="matrix(0.7071 -0.7071 0.7071 0.7071 -105.5867 187.1239)" class="st4" width="40.63" height="40.75"/>
</svg>