<?xml version="1.0" ?>
<svg xmlns="http://www.w3.org/2000/svg" viewBox="0 0 1541 777">
	<defs>
		<clipPath clipPathUnits="userSpaceOnUse" id="cp1">
			<path d="m-3760.3-274.46h5710.88v8079.07h-5710.88z"/>
		</clipPath>
	</defs>
	<style>
		.s0 { fill: #38acde } 
		.s1 { fill: #00b9ac } 
		.s2 { fill: #82d4f7 } 
	</style>
	<g id="Clip-Path: Page 1" clip-path="url(#cp1)">
		<g id="Page 1">
			<path id="Path 10" class="s0" d="m734.6 629.9q10 0 16.7 6.2 6.8 6.7 6.8 15.8 0 11.6-8.2 18.8-7.7 7.6-19.7 7.6-10 0-15.8-6.2-6.7-6.2-6.7-15.8 0-11.1 8.2-18.7 7.6-7.7 18.7-7.7zm63.3 0c6.7 0 11.9 2.4 16.7 6.2q6.7 6.7 6.7 15.8 0 11.6-8.1 18.8-7.7 7.6-19.7 7.6-10 0-16.3-6.2-6.2-6.2-6.2-15.8 0-11.1 7.7-18.7 7.6-7.7 19.2-7.7zm437.7-285.5q-10 0-16.3-5.7-6.2-6.3-6.2-15.9 0-11 7.7-18.7 7.6-7.7 18.7-7.7 10 0 17.2 6.3 6.3 6.2 6.3 15.8 0 11.1-7.7 18.7-8.2 7.2-19.7 7.2zm62.9 0q-10.1 0-16.3-5.7-6.3-6.3-6.3-15.9 0-11 7.7-18.7 8.1-7.7 19.2-7.7 10 0 16.8 6.3 6.7 6.2 6.7 15.8 0 11.1-8.2 18.7-8.1 7.2-19.6 7.2zm140.4-9.6q-10 0-16.3-6.2-6.2-6.2-6.2-16.3 0-10.6 7.7-18.3 7.7-7.6 19.2-7.6 10 0 16.7 6.2 6.3 6.7 6.3 15.8 0 11.1-7.7 18.8-8.1 7.6-19.7 7.6z"/>
			<path id="Path 11" fill-rule="evenodd" class="s1" d="m25.9 359.8h27.3l43.6 85.4 11-85.4h34.6l-25.4 194.3h-34.6l7.2-54.7-38.3-74.4-16.8 129.1h-34.1zm194.2 0h34.1l24.9 193.8h-35l-3.8-39.8h-46.5l-14.4 39.8h-35zm17.7 126.2l-7.2-75.3-27.3 75.3zm86.8-94.5c2.9-19.2 21.1-35.1 39.8-35.1h49.4c19.2 0 33.5 15.9 30.7 35.1l-17.3 130.5c-2.4 19.1-20.1 35-39.8 35h-4.8l23 36h-39.8l-19.2-36h-8.1c-19.2 0-33.1-15.9-30.7-35zm27.8 133.8h28.8c6.7 0 12-5.3 12.4-11.5l14.9-114.2c1-6.2-2.4-11.5-9.6-11.5h-28.3c-6.7 0-12 5.3-12.9 11.5l-15.4 114.2c-0.4 6.2 3.4 11.5 10.1 11.5zm142.4-165.5h35.5l-25.9 193.8h-35.5z"/>
			<path id="Path 12" fill-rule="evenodd" class="s0" d="m165.4 738.3h12.5l6.2-46.5 13.9 26.8-2.4 19.7h12.5l9.1-70h-12.5l-4.3 30.7-15.8-30.7h-9.6zm97.8-41.3c0.5-6.2-3.8-12-10.6-12h-9.5c-6.8 0-13 5.8-13.5 12l-1.4 7.7h11l0.5-5.3c0.5-1.9 2.4-3.8 4.3-3.8h4.3c1.9 0 2.9 1.9 2.9 3.8l-0.5 3.4c0 1.4-0.9 2.8-2.4 3.3l-16.3 6.3c-3.8 1.4-6.2 4.3-6.7 8.6l-0.9 6.7c-1 6.2 3.8 12 10.5 12h3.4c3.8 0 6.7-2.4 8.6-3.8v2.4h10.5zm-15.8 27.8c0 1.9-2.4 4.3-4.3 4.3h-4.8c-1.9 0-2.9-1.9-2.9-3.4l0.5-3.8c0.5-1.4 1-2.4 2.4-2.9l9.1-3.8c1-0.5 1.5-1 1.5-1zm56.1 40.3l10-78.7h-10.5l-1 2.9c-1.4-1.9-3.3-4.3-7.2-4.3h-5.2c-6.3 0-12.5 5.3-13 12l-4.3 30.7c-1 6.7 3.8 12 10.1 12h4.8c3.8 0 6.7-2.4 8.1-4.3l-3.8 29.7zm-6.7-40.3c-0.5 2.4-2.4 4.8-4.8 4.8h-4.8c-1.9 0-3.4-1.9-2.9-3.8l3.3-26.4c0-1.4 2-3.4 3.9-3.4h4.8c2.4 0 3.8 2 3.3 4.4zm43.7-47.1l1.4-9.5h-11.5l-1.4 9.5zm-7.7 61l7.2-52.3h-12l-6.7 52.3zm115.1-70.5h-12.5l-20.6 51.3-1.9-18.7 12.9-32.6h-8.6l-6.7 17.2-2-17.2h-8.6l4.3 32.6-7.2 18.7-6.7-51.3h-12.4l10.5 70.5h9.1l9.1-23.5 2.9 23.5h9.6z"/>
			<path id="Path 13" fill-rule="evenodd" class="s0" d="m479.9 697c1-6.7-3.8-12-10.5-12h-9.6c-6.7 0-12.5 5.3-13.4 12l-1 7.7h10.6l0.4-5.7c0.5-1.5 2.4-3.4 4.4-3.4h4.3c1.9 0 3.3 1.9 2.9 3.4l-0.5 3.3c0 1.9-0.5 3.4-2.4 3.9l-16.3 6.2c-3.4 1.4-6.3 4.3-6.7 8.6l-1 6.7c-1 6.3 3.8 11.6 10.6 11.6h3.3c3.8 0 6.7-2 8.6-3.9l0.5 2.9h10.6zm-14.9 27.8c-0.5 1.9-2.4 4.3-4.8 4.3h-4.8c-1.9 0-2.9-1.9-2.9-3.8l0.5-3.4c0.5-1.4 1-2.3 2.4-3.3l9.1-3.4c1-0.4 1.5-0.9 1.5-0.9zm47.9 2.4h-7.7c-1.9 0-2.8-1.5-2.8-3.4l3.8-28.3h9.6l1.4-9.6h-10l1.9-13.4h-10.1l-3.4 13.4h-6.7l-1.4 9.6h6.7l-3.8 30.7c-1 6.7 3.3 12 10 12h11.1zm8.1 0.5c-0.9 6.7 3.4 12 10.1 12h11.5c6.2 0 12.5-5.3 13.4-12l0.5-6.7h-10.5l-0.5 4.3c-0.5 1.9-1.9 3.8-3.9 3.8h-6.2c-1.9 0-2.9-1.9-2.9-3.8l1.5-10.6h23.5l2.4-17.7c0.9-6.7-3.9-12-10.1-12h-11.5c-6.7 0-12.5 5.3-13 12zm14.4-20.2l1-7.6c0-2 1.9-3.9 3.8-3.9h5.8c1.9 0 3.3 1.9 2.9 3.9l-1 7.6zm43.6 31.2l4.8-37.4c0.5-2.4 2.4-4.3 4.8-4.3h6.7l1.5-11.1h-3.4c-3.3 0-6.7 2.4-8.1 4.4l-0.5-3.4h-10.6l-7.2 51.8zm42.2-248.5c97.9-48 169.8-45.6 225.9-28.8 21.6 6.3 50.8 17.8 81 26.9 25.9-39.4 39.8-88.8 36-140.1-9.6-141.5-138.6-176.6-176.5-347.3-82 174.6 69.6 209.1 67.2 330-1.5 54.2-37.9 98.9-96.9 97.4-35.5-0.9-67.1-31.2-79.6-72.4-24.5-79.2 39.8-165.5 72.9-221.7-87.3 73.9-120.4 97.4-146.7 176.1-23.1 68.6-13 132.4 16.7 179.9z"/>
			<path id="Path 14" class="s2" d="m874.1 544.5c-36 24.9-80.1 36.9-128.5 30.2-35.5-5.3-68.1-21.6-94.5-46.1 36.9-9.1 79.1-15.3 118.9-12.9 29.3 2.4 65.7 15.3 104.1 28.8z"/>
			<path id="Path 15" class="s1" d="m885.1 536.3c-43.1-14.4-80.5-30.7-113.1-33.1-106-7.2-226.8 50.9-231.6 47.5 140-96.9 235.9-97.9 306.8-77.2 20.2 5.7 46.1 16.3 74.4 25.4-10.6 13.9-22.6 26.9-36.5 37.4z"/>
			<path id="Path 16" fill-rule="evenodd" class="s1" d="m1125.8 508.5v-14.4q0-12.5 0.5-18.2v-33.6q0-9.1-6.2-13-5.8-3.8-19.7-3.8h-0.9c6.7 51.3-2 82-20.2 102.2-44.6 48.4-112.2 35-177.9 13.9q19.2-16.3 35-36.9c69.1 19.6 137.2 23.9 110.8-77.3h-15.4q-11.9 0-18.7-6.7-6.7-7.2-6.7-18.7 0-13.9 11.5-28.8 10.6 6.7 40.8 6.7l36.4-0.5q20.2-0.4 33.6-0.4 46 0 46 42.2v62.8q0 14.9 2.4 19.7 2.9 5.8 12 5.3h63.8q-11.5-18.3-11.5-37.4 0-43.7 34-72.5 36-29.2 92.1-27.3 20.1 0 35 12-6.2 10-6.2 40.3l0.5 56.6q0.4 0.9 0.4 2.4-0.4 11.5 5.3 19.2 4.8 6.7 11 6.7h50.9q9.6 0 13.4-5.8 3.8-5.7 3.8-19.6 0-4.8-0.9-43.7-1-31.2-1-39.8 0-11.5 6.7-18.3 6.7-7.2 18.7-7.2 21.1 0 35.5 11.6-6.2 10.5-6.2 40.7l0.4 81.6q0 46.1-42.1 46.1h-80.6q-17.7 0-25.4-12-11 12-31.7 12h-145.3c-39.8 0-83.9 9.6-83.9-46.1zm200.9 0.5q9.6 0.5 13.5-4.3 3.3-4.4 3.3-17.3l-1.9-71q-20.6 5.3-35.5 20.6-15.3 16.3-15.3 33.6 0 20.1 8.6 29.3 8.2 9.1 27.3 9.1z"/>
			<path id="Path 17" fill-rule="evenodd" class="s0" d="m1377.6 675.9l-8.7-8.6 8.7-8.6 8.6 8.6q-2.4 2.4-4.3 4.3-1.9 1.9-4.3 4.3zm-46.1-1.9l-9.1-8.6 9.1-8.7 8.2 8.2 8.6-8.2q1.9 2.4 4.3 4.4 2 1.9 4.4 4.3l-8.7 8.6-8.6-8.1zm-347.2 26.3q0.5 2.9 0.5 5.3 0 3.4-0.9 5.8-1 2.9-2.4 4.8-2 2.4-4.8 3.8-2.4 1-6.3 1.5h-12.9q-1 0-1.9-0.5-0.5 0-1 0-3.8-2.9-5.8-6.3-1.4-3.8-1.4-8.1 0-4.3 1.4-8.2 1-4.3 3.9-7.6 2.4-3.4 5.7-5.3 3.4-2.4 7.7-2.4 2.4 0 5.3 0.9 2.4 1 4.3 2.4 2.4 1.5 3.8 3.9 2 2.4 2.9 4.8 1 2.4 1.9 5.2zm-11 5.8q0-1.4 0-3.8-0.5-2.4-1.4-4.4-1-1.9-2.9-3.3-1.9-1.5-4.8-1.5-1.9 0-3.4 0.5-0.9 1-1.9 2.4-0.9 1.5-1.9 2.9-0.5 1.9-0.5 3.4 0 2.4 1.5 4.3 0.9 1.9 2.8 2.4h12.5q0-0.5 0-1.5 0-0.4 0-1.4z"/>
			<path id="Path 18" fill-rule="evenodd" class="s0" d="m1392.4 706.2q0 4.3-0.4 8.1 0 3.9-0.5 7.2h-127.1q0 7.2-2.4 12.5-2.4 5.3-6.7 9.1-3.8 3.8-9.1 5.3-5.3 1.9-10.6 1.9-4.8 0-10-1.4-4.8-2-8.7-5.3-3.8-3.9-6.7-9.1-2.4-5.3-2.9-12 0-1.9 0.5-4.8 0.5-2.9 1.5-5.8 0.9-3.3 1.9-5.7 0.9-2.9 2.4-3.9 0.5-0.9 1.9-1.4 1.4-0.5 2.4-1-1 3.9-1.4 7.2-0.5 3.9-0.5 7.7 0 3.8 0.5 7.2 0.9 3.8 2.4 6.7 1.9 2.9 4.8 5.3 2.3 2.4 6.7 3.3 2.4 1 4.8 1 2.8 0 6.2-1 2.9-0.9 5.7-2.8 2.9-1.5 4.8-3.9 2-2.4 2.9-5.3-0.9-0.9-2.4-1.9-0.9-0.5-2.4-0.9-1.9-0.5-3.3-0.5-2-0.5-3.4-0.5-0.5 0-0.9 0-1 0-2 0 1-3.3 2-6.2 0.4-2.9 1.4-5.8h83.9q-1.4-2.9-2.4-5.7-0.5-2.4-0.5-4.8 0-2.9 1-5.8 0.9-2.9 2.9-5.3 1.9-1.9 4.3-3.3 2.9-1.5 6.2-1.5 4.8 0 8.2 2.4 3.3 1.9 5.2 5.8 2 3.3 2.4 8.1 1 4.8 1.5 10.1h24.4q0.5-1.4 1-2.9 0-1.4 0-2.4 0-2.8-1-6.2-0.5-3.8-2.4-7.2 2.9-1.4 4.8-3.4 2.4-1.4 5.3-3.3 1.9 5.3 2.9 11 0.9 5.8 0.9 11.1zm-44.6-2q0-1.9-0.9-4.3-0.5-1.9-1.9-3.8-1-1.5-2.9-2.4-1.9-0.5-4.3 0.5-2.4 0.9-2.9 1.9-1 1.4-1 2.9 0 1.9 1 3.8 0.5 1.9 2.4 3.4 1.4 1.4 3.3 2.4 1.5 0.9 3.4 0.9l2.4-0.5q0.5-0.4 1-1.9 0.4-0.9 0.4-2.9zm-98.7 59q1.9 2.4 4.3 4.4l-8.7 9.1-8.6-8.7-8.1 8.7-9.1-9.1q2.4-2 4.8-4.4 1.9-1.9 4.3-4.3l8.1 8.2 8.6-8.2q2 2.4 4.4 4.3zm-208.1-25.4q2.4 2.4 4.3 4.3l-8.7 8.7-8.1-8.2-8.6 8.2-8.7-8.7 8.7-8.6 8.6 8.2 8.1-8.2q2.4 2.4 4.4 4.3z"/>
			<path id="Path 19" fill-rule="evenodd" class="s0" d="m1169.9 659.1q2.9-0.9 5.8-2.4l-1 51.9v12.9h-66.6l-23.5-6.7-2.9 6.7h-89.2v-12.9q-0.4-12-0.4-23.6-0.5-11.5-0.5-23 2.8-1.4 5.7-2.9 2.9-0.9 5.8-2.4l-1 52.8h22.1q0.5-1.4 0.5-2.9 0.4-1.4 0.4-2.4 0-2.8-0.9-6.2-0.5-3.8-2.4-7.2 2.4-1.4 4.8-3.4 2.4-1.4 4.8-3.3 2.4 5.7 3.3 11 1 5.8 1 11.5v2.9h40.7l2.4-7.7q0.5-3.8 2.4-7.2 2-3.3 4.4-5.7 2.4-2.9 5.7-4.3 3.4-1.5 6.7-1 4.8 0 7.7 1.9 3.3 1.9 5.3 4.8 1.9 2.9 2.4 6.7 0.9 3.4 0.9 7.2 0 1 0 2.4-0.5 2-0.5 2.9h18.7q0-12-0.4-24-0.5-12-0.5-23.5 2.9-1.4 5.7-2.9 2.9-0.9 6.3-2.4l-1 52.8h22.6q0-12-0.5-24-0.5-12-0.5-23.5 2.9-1.4 5.7-2.9zm-65.2 45.1q0-1.4-0.4-3.3-0.5-1.5-1-2.9-1-1.4-2.9-2.4-1.4-1-4.3-1.4-1.4 0-2.9 0.9-1.4 0.5-2.4 1.9-1.4 1-1.9 2.9-0.9 1.5-0.9 3.4l16.3 4.3q0 0 0-0.5 0-0.5 0-0.9 0.4-0.5 0.4-1 0-0.5 0-1z"/>
		</g>
	</g>
</svg>