<svg xmlns="http://www.w3.org/2000/svg" fill="none" viewBox="0 0 1024 1024">
<g>
<path fill="#F45837" d="M0 0h1024v1024H0z"/>
<path fill="url(#b)" d="M0 0h1024v1024H0z"/>
<path fill="#fff" d="M367.725 364.551c-86.473-40.324-175.008-67.087-175.008-67.087s-65.445 279.458-11.213 373.39c40.43 70.027 117.478 105.733 192.999 96.899-61.189-43.203-101.149-114.467-101.149-195.065 0-37.839 16.432-78.873 35.575-115.13 16.639-31.513 37.589-63.531 58.796-93.007Z"/>
<path fill="#fff" d="M592.091 349.402C549.715 295.118 512 254.929 512 254.929S315.594 464.224 315.594 572.687c0 108.464 87.934 196.39 196.406 196.39 7.77 0 15.435-.451 22.97-1.329-100-70.269-131.519-206.55-69.24-314.421 18.919-32.769 53.667-60.09 88.374-81.917 12.127-7.627 24.898-14.976 37.987-22.008Z"/>
<path fill="#fff" d="M842.496 670.854c-54.232 93.932-174.348 126.112-268.288 71.875-93.94-54.236-126.129-174.35-71.898-268.281 54.232-93.932 328.972-176.984 328.972-176.984s65.445 279.458 11.214 373.39Z"/>
</g>
<defs>
<linearGradient id="b" x1="512" x2="512.001" y1="1024" y2="0" gradientUnits="userSpaceOnUse">
<stop stop-color="#FF5A60" stop-opacity="0"/>
<stop offset="1" stop-color="#FF5A60"/>
</linearGradient>
</defs>
</svg>