<?xml version="1.0" ?>
<svg xmlns="http://www.w3.org/2000/svg" viewBox="0 0 190 30" fill="none">
	<path d="M21.1771 29.5333H13.5903V17.5667C13.5903 16.5 13.3594 15.7667 12.8976 15.2667C12.4358 14.8 11.875 14.5667 11.2812 14.5667C10.6545 14.5667 9.96181 14.8667 9.23611 15.4333C8.51042 16 7.98264 16.7333 7.61979 17.6333V29.5667H0V8.26667H6.86111V11.4333C7.61979 10.2667 8.64236 9.4 9.99479 8.76667C11.3472 8.16667 12.9306 7.86667 14.7778 7.86667C16.2292 7.86667 17.3507 8.13334 18.2083 8.66667C19.066 9.2 19.6927 9.83333 20.1215 10.6333C20.5503 11.4 20.8472 12.2667 20.9792 13.1333C21.1111 14.0333 21.1771 14.8333 21.1771 15.5667V29.5333Z" fill="black"/>
	<path d="M34.4375 29.9667C32.5903 29.9667 30.941 29.6667 29.5226 29.1C28.1042 28.5333 26.8837 27.7333 25.8941 26.7333C24.9045 25.7333 24.1788 24.6 23.684 23.3C23.1892 22 22.9254 20.6333 22.9254 19.2C22.9254 17.6667 23.1563 16.2 23.651 14.8333C24.1458 13.4667 24.8715 12.2667 25.8611 11.2333C26.8507 10.2 28.0382 9.39999 29.4566 8.79999C30.875 8.19999 32.5573 7.89999 34.4375 7.89999C36.3177 7.89999 37.967 8.19999 39.4184 8.79999C40.8698 9.39999 42.0573 10.2 43.0469 11.2333C44.0365 12.2333 44.7622 13.4333 45.2569 14.7667C45.7517 16.1 45.9826 17.5 45.9826 18.9667C45.9826 19.3667 45.9497 19.7667 45.9167 20.2C45.8837 20.6333 45.8177 21 45.7847 21.3H31.007C31.0729 22.4333 31.5017 23.2333 32.2604 23.7333C33.0191 24.2333 33.8108 24.4667 34.7014 24.4667C35.526 24.4667 36.3177 24.2667 37.0434 23.9C37.7691 23.5333 38.2639 23 38.4948 22.3333L44.9601 24.2C44.1024 25.9 42.783 27.3 41.0017 28.3667C39.2205 29.4 37.0434 29.9667 34.4375 29.9667ZM37.8021 16.6333C37.6701 15.6 37.3073 14.8 36.6806 14.2C36.0538 13.6 35.2951 13.3 34.3056 13.3C33.349 13.3 32.5573 13.6 31.9306 14.2C31.3038 14.8 30.941 15.6 30.809 16.6333H37.8021Z" fill="black"/>
	<path d="M58.0556 29.9667C56.1754 29.9667 54.4931 29.6667 53.0747 29.0667C51.6563 28.4667 50.4358 27.6667 49.4792 26.6333C48.4896 25.6333 47.7639 24.4333 47.2692 23.1C46.7744 21.7667 46.5435 20.3667 46.5435 18.9C46.5435 17.4333 46.7744 16.0333 47.2692 14.7C47.7639 13.3667 48.4896 12.2 49.4792 11.1667C50.4688 10.1667 51.6563 9.33334 53.0747 8.73334C54.4931 8.13334 56.1754 7.83334 58.0556 7.83334C59.9358 7.83334 61.5851 8.13334 63.0365 8.73334C64.4879 9.33334 65.6754 10.1333 66.665 11.1667C67.6546 12.1667 68.3803 13.3667 68.8751 14.7C69.3698 16.0333 69.6007 17.4333 69.6007 18.9C69.6007 20.3667 69.3698 21.7667 68.8751 23.1C68.3803 24.4333 67.6546 25.6 66.665 26.6333C65.6754 27.6333 64.4879 28.4667 63.0365 29.0667C61.5521 29.6333 59.9028 29.9667 58.0556 29.9667ZM54.3282 18.9C54.3282 20.3333 54.691 21.4667 55.3837 22.2667C56.0764 23.0667 56.9671 23.4667 58.0556 23.4667C59.1441 23.4667 60.0348 23.0667 60.7275 22.2667C61.4202 21.4667 61.783 20.3333 61.783 18.9C61.783 17.4667 61.4202 16.3333 60.7275 15.5333C60.0348 14.7333 59.1441 14.3333 58.0556 14.3333C56.9671 14.3333 56.0764 14.7333 55.3837 15.5333C54.658 16.3667 54.3282 17.4667 54.3282 18.9Z" fill="black"/>
	<path d="M92.658 29.5333H85.0382V17.5667C85.0382 16.5 84.8073 15.7667 84.3455 15.2667C83.8837 14.8 83.3229 14.5667 82.7292 14.5667C82.1025 14.5667 81.4097 14.8667 80.684 15.4333C79.9584 16 79.4306 16.7333 79.0677 17.6333V29.5667H71.4479V8.26667H78.309V11.4333C79.0677 10.2667 80.0903 9.4 81.4427 8.76667C82.7952 8.16667 84.3785 7.86667 86.2257 7.86667C87.6771 7.86667 88.7986 8.13334 89.6563 8.66667C90.5139 9.2 91.1406 9.83333 91.5695 10.6333C91.9983 11.4 92.2952 12.2667 92.4271 13.1333C92.5591 14.0333 92.625 14.8333 92.625 15.5667V29.5333H92.658Z" fill="black"/>
	<path d="M110.306 28.3667C109.25 28.8333 108.096 29.2 106.875 29.5333C105.655 29.8333 104.467 30 103.28 30C102.422 30 101.597 29.9 100.839 29.6667C100.08 29.4667 99.3872 29.1 98.8264 28.6C98.2657 28.1 97.8038 27.4667 97.474 26.7C97.1441 25.9333 96.9792 24.9333 96.9792 23.8V14.0333H94.3733V8.26667H96.9792V1.60001H104.599V8.26667H108.722V14.0667H104.599V21.1C104.599 21.8 104.731 22.3 105.028 22.5667C105.325 22.8667 105.721 23 106.215 23C106.578 23 107.007 22.9333 107.502 22.8333C107.997 22.7 108.458 22.5333 108.953 22.3333L110.306 28.3667Z" fill="#2C00CC"/>
	<path d="M121.818 29.9667C119.937 29.9667 118.255 29.6667 116.837 29.0667C115.418 28.4667 114.198 27.6667 113.241 26.6333C112.252 25.6333 111.526 24.4333 111.031 23.1C110.536 21.7667 110.306 20.3667 110.306 18.9C110.306 17.4333 110.536 16.0333 111.031 14.7C111.526 13.3667 112.252 12.2 113.241 11.1667C114.231 10.1667 115.418 9.33334 116.837 8.73334C118.255 8.13334 119.937 7.83334 121.818 7.83334C123.698 7.83334 125.347 8.13334 126.799 8.73334C128.25 9.33334 129.437 10.1333 130.427 11.1667C131.417 12.1667 132.142 13.3667 132.637 14.7C133.132 16.0333 133.363 17.4333 133.363 18.9C133.363 20.3667 133.099 21.7667 132.637 23.1C132.142 24.4333 131.417 25.6 130.427 26.6333C129.437 27.6333 128.25 28.4667 126.799 29.0667C125.347 29.6333 123.665 29.9667 121.818 29.9667ZM118.09 18.9C118.09 20.3333 118.453 21.4667 119.146 22.2667C119.839 23.0667 120.729 23.4667 121.818 23.4667C122.906 23.4667 123.797 23.0667 124.49 22.2667C125.182 21.4667 125.545 20.3333 125.545 18.9C125.545 17.4667 125.182 16.3333 124.49 15.5333C123.797 14.7333 122.906 14.3333 121.818 14.3333C120.729 14.3333 119.839 14.7333 119.146 15.5333C118.42 16.3667 118.09 17.4667 118.09 18.9Z" fill="#2C00CC"/>
	<path d="M145.601 29.9667C143.72 29.9667 142.038 29.6667 140.62 29.0667C139.201 28.4667 137.981 27.6667 137.024 26.6333C136.035 25.6333 135.309 24.4333 134.814 23.1C134.319 21.7667 134.089 20.3667 134.089 18.9C134.089 17.4333 134.319 16.0333 134.814 14.7C135.309 13.3667 136.035 12.2 137.024 11.1667C138.014 10.1667 139.201 9.33334 140.62 8.73334C142.038 8.13334 143.72 7.83334 145.601 7.83334C147.481 7.83334 149.13 8.13334 150.582 8.73334C152.033 9.33334 153.22 10.1333 154.21 11.1667C155.2 12.1667 155.925 13.3667 156.42 14.7C156.915 16.0333 157.146 17.4333 157.146 18.9C157.146 20.3667 156.882 21.7667 156.42 23.1C155.925 24.4333 155.2 25.6 154.21 26.6333C153.22 27.6333 152.033 28.4667 150.582 29.0667C149.13 29.6333 147.481 29.9667 145.601 29.9667ZM141.873 18.9C141.873 20.3333 142.236 21.4667 142.929 22.2667C143.622 23.0667 144.512 23.4667 145.601 23.4667C146.689 23.4667 147.58 23.0667 148.273 22.2667C148.965 21.4667 149.328 20.3333 149.328 18.9C149.328 17.4667 148.965 16.3333 148.273 15.5333C147.58 14.7333 146.689 14.3333 145.601 14.3333C144.512 14.3333 143.622 14.7333 142.929 15.5333C142.236 16.3667 141.873 17.4667 141.873 18.9Z" fill="#2C00CC"/>
	<path d="M158.861 0H166.481V21.1C166.481 22.7333 167.141 23.5333 168.46 23.5333C168.79 23.5333 169.12 23.4667 169.516 23.3667C169.878 23.2667 170.241 23.1 170.571 22.9333L171.528 28.6C170.604 29.0333 169.615 29.3667 168.46 29.6C167.339 29.8333 166.25 29.9667 165.227 29.9667C163.182 29.9667 161.632 29.4333 160.543 28.4C159.455 27.3333 158.894 25.8333 158.894 23.8333V0H158.861Z" fill="#2C00CC"/>
	<path d="M181.127 29.9667C179.28 29.9667 177.465 29.6667 175.717 29.0667C173.969 28.4667 172.451 27.5667 171.231 26.4L173.837 21.8C175.156 22.7 176.41 23.3667 177.63 23.8667C178.851 24.3667 179.972 24.6 180.962 24.6C182.017 24.6 182.578 24.2667 182.578 23.6C182.578 23.2333 182.38 22.9 181.951 22.6333C181.523 22.3667 180.731 22.0667 179.543 21.7C178.059 21.2667 176.806 20.8333 175.783 20.4333C174.793 20 173.969 19.5667 173.342 19.0667C172.715 18.5667 172.254 18.0333 171.99 17.4333C171.726 16.8333 171.594 16.1333 171.594 15.3333C171.594 14.2667 171.792 13.2667 172.221 12.3333C172.649 11.4 173.243 10.6333 174.002 9.93334C174.76 9.26668 175.684 8.73334 176.74 8.36668C177.795 8.00001 178.95 7.83334 180.203 7.83334C181.754 7.83334 183.238 8.03334 184.623 8.43334C186.042 8.83334 187.427 9.66668 188.846 10.9L185.976 15.5C184.656 14.6333 183.568 14.0333 182.677 13.6667C181.787 13.3 180.962 13.1333 180.203 13.1333C179.741 13.1333 179.379 13.2333 179.082 13.4C178.785 13.5667 178.653 13.8667 178.653 14.2333C178.653 14.6333 178.851 14.9667 179.28 15.2333C179.708 15.5 180.533 15.7667 181.819 16.1C183.337 16.5 184.623 16.9333 185.679 17.3667C186.734 17.8 187.559 18.3 188.186 18.8333C188.813 19.3667 189.274 19.9667 189.538 20.6C189.802 21.2667 189.934 22.0333 189.934 22.9C189.934 24 189.736 25 189.34 25.8667C188.944 26.7333 188.351 27.4667 187.592 28.1C186.833 28.7333 185.91 29.2 184.821 29.5C183.7 29.8 182.479 29.9667 181.127 29.9667Z" fill="#2C00CC"/>
</svg>