<svg xmlns="http://www.w3.org/2000/svg" id="Icons_Color_RGB" viewBox="0 0 215.16 215.16"><defs><style>.cls-2{fill:#044872}.cls-3{fill:#84bd00}</style></defs><circle cx="107.58" cy="107.58" r="105.28" style="fill:#fff;stroke:#044872;stroke-miterlimit:10;stroke-width:4.61px"/><g id="logo_vertical_color_rgb"><path d="M244.31 143.19c-39.76-9.86-69.22 33.28-94.42 68.79l.05-29c20.66-28.67 64.15-60.39 94.37-39.79ZM55.69 142.89c39.79-9.74 69.12 33.5 94.2 69.09l.05-29c-20.58-28.73-63.94-60.6-94.25-40.09Z" class="cls-2" transform="translate(-42.42 -42.42)"/><circle cx="58.61" cy="78.21" r="9.24" class="cls-2"/><circle cx="157.41" cy="78.21" r="9.24" class="cls-2"/><path d="M220.49 162.86c-1.9-5.18-10-20.25-40.84-25.35-31-5.9-53.28-1.22-59.37.36-28.46 5.25-37.95 19.36-40.55 24.61 5.3-2.75 21.51-9.45 54.61-10.24h3.6l12 59.76 12-59.72h3.78c33.64.92 49.8 7.92 54.77 10.58Z" class="cls-3" transform="translate(-42.42 -42.42)"/><circle cx="107.3" cy="71.05" r="12.78" class="cls-3"/></g></svg>