<?xml version="1.0" ?>
<svg xmlns="http://www.w3.org/2000/svg" viewBox="0 0 24 20" fill="none">
	<path d="M0.000750757 16.7485C0.000750757 16.3343 0.327171 15.9985 0.729832 15.9985L21.0554 15.9985C21.2488 15.9985 21.4342 16.0776 21.5709 16.2182L23.7865 17.4684C24.0711 17.7612 24.0712 18.236 23.7866 18.5289L21.571 19.7788C21.4343 19.9195 21.2488 19.9985 21.0554 19.9985L0.729081 19.9985C0.326421 19.9985 -3.2275e-08 19.6627 -3.27836e-08 19.2485L0.000750757 16.7485Z" fill="#0068DA"/>
	<path d="M2.30859 6.51364V11.5H0.621094V5.16013H2.20312L2.30859 6.51364ZM2.0625 8.10739H1.60547C1.60547 7.63864 1.66602 7.21677 1.78711 6.84177C1.9082 6.46286 2.07812 6.14059 2.29688 5.87497C2.51562 5.60544 2.77539 5.40036 3.07617 5.25974C3.38086 5.1152 3.7207 5.04294 4.0957 5.04294C4.39258 5.04294 4.66406 5.08591 4.91016 5.17184C5.15625 5.25778 5.36719 5.3945 5.54297 5.582C5.72266 5.7695 5.85938 6.01755 5.95312 6.32614C6.05078 6.63474 6.09961 7.01169 6.09961 7.457V11.5H4.40039V7.45114C4.40039 7.16989 4.36133 6.95114 4.2832 6.79489C4.20508 6.63864 4.08984 6.52927 3.9375 6.46677C3.78906 6.40036 3.60547 6.36716 3.38672 6.36716C3.16016 6.36716 2.96289 6.41208 2.79492 6.50192C2.63086 6.59177 2.49414 6.71677 2.38477 6.87692C2.2793 7.03317 2.19922 7.21677 2.14453 7.4277C2.08984 7.63864 2.0625 7.8652 2.0625 8.10739ZM10.3008 11.6172C9.80859 11.6172 9.36719 11.539 8.97656 11.3828C8.58594 11.2226 8.25391 11.0019 7.98047 10.7207C7.71094 10.4394 7.50391 10.1133 7.35938 9.74216C7.21484 9.36716 7.14258 8.96872 7.14258 8.54684V8.31247C7.14258 7.832 7.21094 7.39255 7.34766 6.99411C7.48438 6.59567 7.67969 6.24997 7.93359 5.957C8.19141 5.66403 8.50391 5.43942 8.87109 5.28317C9.23828 5.12302 9.65234 5.04294 10.1133 5.04294C10.5625 5.04294 10.9609 5.11716 11.3086 5.26559C11.6562 5.41403 11.9473 5.62497 12.1816 5.89841C12.4199 6.17184 12.5996 6.49997 12.7207 6.88278C12.8418 7.26169 12.9023 7.68356 12.9023 8.14841V8.85153H7.86328V7.72653H11.2441V7.59763C11.2441 7.36325 11.2012 7.15427 11.1152 6.97067C11.0332 6.78317 10.9082 6.63474 10.7402 6.52536C10.5723 6.41599 10.3574 6.3613 10.0957 6.3613C9.87305 6.3613 9.68164 6.41013 9.52148 6.50778C9.36133 6.60544 9.23047 6.74216 9.12891 6.91794C9.03125 7.09372 8.95703 7.30075 8.90625 7.53903C8.85938 7.77341 8.83594 8.03122 8.83594 8.31247V8.54684C8.83594 8.80075 8.87109 9.03513 8.94141 9.24997C9.01562 9.46481 9.11914 9.65036 9.25195 9.80661C9.38867 9.96286 9.55273 10.084 9.74414 10.1699C9.93945 10.2558 10.1602 10.2988 10.4062 10.2988C10.7109 10.2988 10.9941 10.2402 11.2559 10.123C11.5215 10.0019 11.75 9.82028 11.9414 9.57809L12.7617 10.4687C12.6289 10.6601 12.4473 10.8437 12.2168 11.0195C11.9902 11.1953 11.7168 11.3398 11.3965 11.4531C11.0762 11.5625 10.7109 11.6172 10.3008 11.6172ZM15.6738 9.85934L16.9922 5.16013H18.0645L17.7188 7.00583L16.4004 11.5H15.5039L15.6738 9.85934ZM15.0059 5.16013L15.9492 9.85349L16.0371 11.5H14.9824L13.377 5.16013H15.0059ZM19.2715 9.77731L20.1914 5.16013H21.8262L20.2207 11.5H19.1719L19.2715 9.77731ZM18.2109 5.16013L19.5234 9.82419L19.7051 11.5H18.8027L17.4844 7.01169L17.1504 5.16013H18.2109Z" fill="#D22730"/>
</svg>