<svg version="1.1" id="Neuehouse_Logo_Black" xmlns="http://www.w3.org/2000/svg"  x="0px" y="0px" viewBox="0 0 149 23" style="enable-background:new 0 0 149 23;" xml:space="preserve">
<g>
	<path d="M145.4,16.2c-0.5,1.3-1.5,2.3-3.4,2.3c-2,0-3.7-1.4-3.8-3.4h10.7c0-0.1,0.1-0.7,0.1-1.2c0-4.8-2.8-7.7-7.4-7.7
		c-3.8,0-7.3,3.1-7.3,7.9c0,5,3.6,8,7.7,8c3.7,0,6-2.2,6.8-4.7L145.4,16.2z M138.4,12.3c0.1-1.4,1.2-2.9,3.3-2.9
		c2.3,0,3.3,1.5,3.3,2.9H138.4z M121.5,17.3c0.2,1.7,1.7,4.6,6.2,4.6c3.9,0,5.8-2.5,5.8-4.9c0-2.2-1.5-4-4.4-4.6L127,12
		c-0.8-0.2-1.4-0.6-1.4-1.3c0-0.8,0.8-1.5,1.9-1.5c1.7,0,2.3,1.1,2.5,2l3.4-0.8c-0.2-1.6-1.6-4.3-5.8-4.3c-3.2,0-5.6,2.2-5.6,4.9
		c0,2.1,1.3,3.8,4.2,4.5l2,0.5c1.2,0.2,1.6,0.8,1.6,1.5c0,0.8-0.6,1.5-2,1.5c-1.8,0-2.6-1.1-2.7-2.3L121.5,17.3z M116.2,21.5h3.8
		c-0.1-0.5-0.2-1.5-0.2-2.7V6.6h-4v8.7c0,1.7-1,2.9-2.8,2.9c-1.9,0-2.7-1.3-2.7-3V6.6h-4V16c0,3.2,2.1,5.9,5.7,5.9
		c1.6,0,3.3-0.6,4.1-2C116.1,20.5,116.1,21.2,116.2,21.5 M96.9,6.1c-4.5,0-7.8,3.3-7.8,7.9c0,4.6,3.4,7.9,7.8,7.9s7.8-3.3,7.8-7.9
		C104.7,9.4,101.3,6.1,96.9,6.1 M96.9,18.3c-2,0-3.8-1.5-3.8-4.2c0-2.8,1.8-4.2,3.8-4.2c2,0,3.8,1.4,3.8,4.2S98.8,18.3,96.9,18.3
		 M86.9,21.5V0h-4.2v8.6h-9.4V0h-4.2v21.5h4.2v-8.9h9.4v8.9H86.9z M63.3,16.2c-0.5,1.3-1.5,2.3-3.4,2.3c-2,0-3.7-1.4-3.8-3.4h10.7
		c0-0.1,0.1-0.7,0.1-1.2c0-4.8-2.8-7.7-7.4-7.7c-3.8,0-7.3,3.1-7.3,7.9c0,5,3.6,8,7.7,8c3.7,0,6-2.2,6.8-4.7L63.3,16.2z M56.3,12.3
		c0.1-1.4,1.2-2.9,3.3-2.9c2.3,0,3.3,1.5,3.3,2.9H56.3z M46.8,21.5h3.9c-0.1-0.5-0.2-1.5-0.2-2.7V6.6h-4v8.7c0,1.7-1,2.9-2.8,2.9
		c-1.9,0-2.7-1.3-2.7-3V6.6h-4V16c0,3.2,2.1,5.9,5.7,5.9c1.6,0,3.3-0.6,4.1-2C46.6,20.5,46.7,21.2,46.8,21.5 M31.6,16.2
		c-0.5,1.3-1.5,2.3-3.4,2.3c-2,0-3.7-1.4-3.8-3.4h10.7c0-0.1,0.1-0.7,0.1-1.2c0-4.8-2.8-7.7-7.4-7.7c-3.8,0-7.3,3.1-7.3,7.9
		c0,5,3.6,8,7.7,8c3.7,0,6-2.2,6.8-4.7L31.6,16.2z M24.6,12.3c0.1-1.4,1.2-2.9,3.3-2.9c2.3,0,3.3,1.5,3.3,2.9H24.6z M18.3,21.5V0
		h-4.2v14.2L5.2,0H0v21.5h4.2V6.2l9.8,15.2H18.3z"></path>
</g>
</svg>