<?xml version="1.0" ?>
<!DOCTYPE svg
  PUBLIC '-//W3C//DTD SVG 1.1//EN'
  'http://www.w3.org/Graphics/SVG/1.1/DTD/svg11.dtd'>
<svg xmlns="http://www.w3.org/2000/svg" viewBox="-202.36 237.268 1000 367.354" enable-background="new -202.36 237.268 1000 367.354" xml:space="preserve">
	<g>
		<path fill="#6101D3" d="M-160.699,514.01c4.792-11.145,9.583-22.393,14.27-33.537c2.813-6.564,5.625-13.229,8.438-19.688   c0.623-1.354,0.623-2.914,0-4.268c-21.249-49.58-42.357-99.228-63.327-148.945c-0.393-0.814-0.74-1.648-1.042-2.5   c0.715-0.194,1.471-0.194,2.187,0h53.952c1.498-0.146,2.874,0.831,3.23,2.292l33.121,84.679c0,0.625,0,1.355,0.937,2.396   l0.939-1.98c11.248-28.33,22.428-56.66,33.538-84.991c0.728-1.771,1.457-2.396,3.332-2.396h54.683l-4.375,10.416l-81.555,196.23   c-0.441,0.686-0.694,1.477-0.728,2.291H-160.699z"/>
		<path fill="#6101D3" d="M209.888,319.655c2.28-2.676,4.75-5.182,7.395-7.499c10.872-8.372,24.61-12.116,38.227-10.417   c12.66,0.61,24.533,6.321,32.914,15.832c6.859,8.215,11.328,18.161,12.914,28.747c0.935,5.82,1.354,11.709,1.25,17.603   c0,30.414,0,60.827,0,91.241c0,2.082-0.625,2.5-2.604,2.5c-16.457,0-32.81,0-49.266,0c-1.875,0-2.292-0.52-2.292-2.293v-80.304   c0.144-3.94-0.348-7.88-1.458-11.665c-1.642-6.824-7.481-11.825-14.478-12.394c-7.043-1.164-14.112,1.94-18.019,7.916   c-2.446,3.774-3.881,8.114-4.167,12.603c0,3.021,0,5.937,0,8.957c0,24.789,0,49.614,0,74.471c0,1.98,0,2.5-2.603,2.5   c-16.353,0-32.811,0-49.266,0c-1.667,0-2.188,0-2.188-2.188c0-71.936,0-143.908,0-215.915c0-1.666,0-2.083,2.083-2.083h49.474   c1.772,0,2.292,0,2.292,2.188c0,25.831,0,52.078,0,77.387L209.888,319.655z"/>
		<path fill="#6101D3" d="M138.23,307.157c0-1.354,0-2.396-1.875-2.292H87.818c-1.458,0-1.875,0-1.875,1.875   c0,3.854,0,7.812,0,11.562c-1.562-1.459-3.02-2.813-4.583-4.062c-12.66-10.761-29.481-15.272-45.827-12.291   c-18.759,2.338-35.681,12.423-46.663,27.81c-15.016,19.965-20.5,45.521-14.998,69.888c3.317,20.414,14.927,38.547,32.08,50.098   c17.751,12.396,40.488,15.205,60.722,7.5c7.6-2.654,14.235-7.514,19.061-13.957c0,4.375,0,8.125,0,11.875   c0,1.666,0,2.291,2.188,2.291c16.039,0,32.08,0,48.119,0c1.77,0,1.979-0.52,1.979-2.188c0-6.145,0-12.186,0-18.33L138.23,307.157z    M55.738,412.562c-17.257,0-31.247-13.99-31.247-31.247c0-17.257,13.99-31.247,31.247-31.247c17.258,0,31.247,13.99,31.247,31.247   C86.984,398.572,72.995,412.562,55.738,412.562z"/>
		<path fill="#6101D3" d="M476.424,369.442c-2.802-24.324-17.254-45.768-38.746-57.494c-16.482-9.352-35.661-12.805-54.369-9.791   c-21.868,2.465-41.664,14.085-54.475,31.976c-11.39,15.786-16.544,35.223-14.478,54.578c1.161,17.276,8.136,33.649,19.789,46.454   c15.713,17.156,38.092,26.656,61.349,26.039c2.083,0,4.166,0,6.145,0s4.792,0,7.187-0.73c43.229-5.697,73.656-45.358,67.959-88.587   C476.676,371.069,476.557,370.254,476.424,369.442z M395.389,412.042c-17.256,0-31.247-13.99-31.247-31.247   c0-17.258,13.991-31.248,31.247-31.248c17.258,0,31.247,13.989,31.247,31.248c0.646,16.612-12.298,30.601-28.909,31.247   C396.948,412.072,396.169,412.072,395.389,412.042L395.389,412.042z"/>
		<path fill="#6101D3" d="M649.425,371.837c-1.645-18.789-10.31-36.268-24.268-48.954c-18.929-17.704-45.11-25.428-70.617-20.832   c-39.785,5.31-69.164,39.765-68.119,79.888c0,1.458,0,3.853,0,6.25c0,2.395,0,2.186,0,3.228   c2.463,24.652,16.813,46.546,38.434,58.64c16.787,9.879,36.505,13.563,55.724,10.414c21.282-2.574,40.53-13.896,53.119-31.246   C646.156,412.846,651.79,392.281,649.425,371.837z M568.393,412.042c-17.253,0.34-31.516-13.37-31.857-30.625   c-0.341-17.253,13.371-31.517,30.623-31.857c17.255-0.34,31.518,13.371,31.858,30.625c0.01,0.447,0.008,0.893-0.002,1.339   c0.232,16.623-13.055,30.287-29.677,30.52C569.023,412.047,568.708,412.047,568.393,412.042z"/>
		<path fill="#6101D3" d="M676.195,375.482l6.77-16.455l49.683-119.779c0-1.146,0.833-1.979,2.5-1.979h62.493   c-2.604,6.249-5.103,12.499-7.708,18.643c-16.247,39.094-32.462,78.221-48.641,117.385c-0.357,1.447-1.753,2.391-3.229,2.186   H676.195z"/>
		<path fill="#6101D3" d="M691.713,460.162c-19.211,0.176-34.929-15.258-35.104-34.469c-0.003-0.314-0.002-0.631,0.005-0.945   c0.169-19.959,16.486-36.003,36.446-35.833c0.107,0,0.213,0.001,0.32,0.003c19.097-0.233,34.766,15.058,35,34.156   c0.003,0.348,0.003,0.699-0.003,1.049c0.003,19.904-16.13,36.039-36.034,36.043C692.133,460.166,691.924,460.164,691.713,460.162z"/>
		<path fill="#222A31" d="M687.547,579.418c-0.366,0.75-0.578,1.566-0.625,2.398c-1.798,8.197-7.527,14.98-15.311,18.121   c-5.142,2.355-10.7,3.664-16.354,3.855c-11.722,0.795-23.466-1.205-34.267-5.834c-2.188-1.041-4.271-2.188-6.353-3.332   c0,0-0.625-0.729,0-1.25c3.229-6.459,6.456-13.02,9.581-19.479c0-0.832,0.834-0.625,1.354,0c6.028,3.314,12.582,5.568,19.373,6.668   c3.246,0.471,6.544,0.471,9.791,0c0.806-0.084,1.585-0.334,2.292-0.73c1.321-0.563,1.938-2.094,1.374-3.416   c-0.264-0.617-0.756-1.111-1.374-1.373c-1.662-0.902-3.455-1.535-5.313-1.875c-5.579-1.127-11.076-2.625-16.456-4.48   c-3.787-1.367-7.309-3.375-10.416-5.936c-4.722-4.293-7.216-10.51-6.77-16.873c-0.056-11.098,7.122-20.936,17.706-24.27   c5.674-2.053,11.676-3.041,17.707-2.916c11.266,0.186,22.341,2.928,32.392,8.02c0.73,0,0.73,0.625,0,1.25   c-2.708,6.459-5.52,12.811-8.228,19.27c0,0.832-0.625,0.938-1.458,0.625c-4.853-2.559-10.043-4.418-15.416-5.521   c-3.412-0.789-6.933-1-10.415-0.625c-0.795,0.059-1.557,0.348-2.188,0.834c-1.15,0.654-1.554,2.115-0.899,3.266   c0.213,0.377,0.523,0.686,0.899,0.902c1.461,0.723,2.998,1.283,4.583,1.666c5.978,1.426,11.857,3.234,17.603,5.414   c3.764,1.414,7.281,3.418,10.416,5.938c3.775,3.07,6.234,7.467,6.875,12.289c0,0,0,0.521,0,0.73L687.547,579.418z"/>
		<path fill="#222A31" d="M551.104,558.902c-1.771,5.104-3.438,10.414-5.105,15.414c-2.812,8.748-5.728,17.498-8.54,26.246   c-0.156,0.768-0.893,1.275-1.665,1.146h-22.916c-0.657,0.131-1.303-0.283-1.459-0.938l-26.351-78.74c0-1.043,0-1.252,0.834-1.148   h27.497c0.937,0,1.354,0,1.562,1.043c3.958,13.332,8.021,26.559,11.978,39.787c0,0,0,0.625,0,0.834l3.125-9.582   c3.438-10.416,6.771-20.832,10.416-31.248c0-0.834,0-1.25,1.459-1.25h19.581c0.938,0,1.249,0,1.563,1.146   c4.27,13.123,8.437,26.248,12.706,39.371c0,0,0,0.729,0,1.25c0.343-0.494,0.558-1.068,0.625-1.666l11.874-38.852   c0-0.938,0.626-1.354,1.771-1.354h26.561c1.353,0,1.353,0,0.937,1.25l-26.56,79.158c0.046,0.631-0.428,1.182-1.06,1.227   c-0.25,0.018-0.5-0.047-0.711-0.186h-22.706c-0.833,0-1.25,0-1.458-1.041l-13.437-40.619   C551.623,560.152,551.52,559.213,551.104,558.902z"/>
		<path fill="#222A31" d="M343.521,530.154c1.313-2.006,2.89-3.826,4.686-5.416c3.942-3.656,9.012-5.861,14.374-6.25   c14.216-2.145,27.557,7.412,30.101,21.561c0.757,3.42,1.105,6.914,1.042,10.414v49.58c0,0.938,0,1.25-1.146,1.25h-27.394   c-0.937,0-1.145,0-1.145-1.146v-42.184c0.063-2.123-0.256-4.238-0.938-6.25c-1.144-3.613-4.438-6.117-8.228-6.246   c-3.699-0.455-7.31,1.35-9.167,4.58c-1.445,2.387-2.202,5.127-2.186,7.916v42.6c0,0.939,0,1.146-1.042,1.146h-27.497   c-0.938,0-1.146,0-1.146-1.146c0-26.176,0-52.389,0-78.637c0-0.938,0-1.043,1.146-1.043h27.394c0.937,0,1.248,0,1.146,1.148   V530.154z"/>
		<path fill="#222A31" d="M485.068,549.736c-2.506-11.934-10.554-21.955-21.663-26.979c-7.937-3.664-16.791-4.861-25.415-3.436   c-13.557,1.795-25.299,10.287-31.247,22.602c-4.734,9.4-5.989,20.174-3.541,30.414c2.272,13.918,12.243,25.342,25.727,29.475   c11.114,3.746,23.151,3.746,34.268,0c8.423-2.838,15.577-8.553,20.206-16.145c0-0.52,0.626-0.832,0-1.25l-23.644-8.955   c-0.357-0.375-0.951-0.387-1.326-0.029c-0.01,0.01-0.02,0.02-0.027,0.029c-3.95,5.01-10.506,7.182-16.666,5.52   c-5.262-1.039-9.376-5.152-10.414-10.416c0-0.938,0-1.354,1.041-1.354h52.702c1.771,0,1.771,0,1.875-1.771   C487.281,561.477,486.649,555.496,485.068,549.736z M456.738,552.236h-24.789c-1.041,0-1.146,0-0.938-1.148   c1.071-5.088,5.254-8.938,10.416-9.58c3.323-0.605,6.755-0.131,9.789,1.354c3.283,1.5,5.645,4.482,6.355,8.02   c0.625,0.625,0.625,1.146-0.625,1.146L456.738,552.236z"/>
	</g>
</svg>