<?xml version="1.0" ?>
<svg xmlns="http://www.w3.org/2000/svg" id="Layer_1" viewBox="0 0 50 50">
	<defs>
		<style>.cls-1{fill:#0052d4;}.cls-2{fill:#fff;}.cls-3{fill:#ffd41f;}.cls-4{fill:#f05;}.cls-5{fill:#2bd6a9;}</style>
	</defs>
	<circle class="cls-2" cx="25.01" cy="25" r="18.01"/>
	<g>
		<g>
			<path class="cls-4" d="M37.75,37.73c.91-.91,.9-2.38,0-3.29s-2.38-.91-3.29,0h0c-6.74,6.28-17.12,6.46-24.07,.51-.16-.13-.37,.07-.26,.24,.62,.9,1.32,1.75,2.12,2.55,7.04,7.04,18.44,7.05,25.49,.02,0,0,0,0,.01,0,0,0,0,0,0,0,0,0,0,0,0,0h0Z"/>
			<path class="cls-5" d="M29.71,7.57s0,0-.01,0c0,0,0,0,0,0,0,0-.01,0-.02,0h0c-1.24-.31-2.5,.43-2.83,1.66-.33,1.24,.4,2.5,1.63,2.85h0c8.82,2.7,14.17,11.59,12.51,20.58-.04,.2,.24,.29,.33,.1,.47-.98,.85-2.02,1.14-3.11,2.57-9.62-3.13-19.48-12.74-22.07Z"/>
			<path class="cls-3" d="M23.62,7.02c-1.08,.08-2.18,.26-3.27,.55-9.64,2.56-15.36,12.43-12.8,22.07h0c.35,1.22,1.61,1.95,2.84,1.62,1.23-.33,1.97-1.58,1.66-2.82h0c-2.05-8.99,3-18.05,11.62-21.08,.2-.07,.13-.36-.08-.34Z"/>
		</g>
		<path class="cls-1" d="M31.91,26.54c-.16-.51-.37-1.1-.59-1.66h0s-.79-1.98-.79-1.98h0s.01-.41,.01-.61c0-3.39-1.6-6.8-5.54-6.8-3.94,0-5.54,3.41-5.54,6.8,0,.2,0,.59,.01,.61h0s-.79,1.98-.79,1.98h0c-.22,.57-.43,1.16-.59,1.66-.75,2.42-.51,3.42-.32,3.44,.4,.05,1.55-1.82,1.55-1.82,0,1.08,.56,2.49,1.76,3.51-.45,.14-1,.35-1.36,.61-.32,.24-.28,.48-.22,.57,.25,.43,4.33,.27,5.5,.14,1.18,.13,5.25,.29,5.5-.14,.06-.1,.1-.34-.22-.57-.35-.26-.91-.48-1.36-.61,1.2-1.02,1.76-2.43,1.76-3.51,0,0,1.15,1.87,1.55,1.82,.19-.02,.43-1.02-.32-3.44Z"/>
	</g>
</svg>