<?xml version="1.0" ?>
<svg xmlns="http://www.w3.org/2000/svg" viewBox="0 0 162.688 162.688">
	<path d="M 44.387,162.594 C 43.787,162.594 43.087,162.594 42.487,162.494 C 40.987,162.294 39.587,161.994 37.987,161.494 C 35.187,160.594 32.787,159.294 31.087,158.294 C 27.287,156.094 23.387,153.394 19.287,149.994 C 17.487,148.494 15.687,146.894 13.987,145.294 L 12.587,143.894 C 11.587,142.994 10.687,141.994 9.987,140.894 C 8.687,138.894 7.587,136.294 7.487,132.894 C 7.387,131.794 7.287,130.694 7.287,129.494 C 7.287,127.094 7.387,124.494 7.787,121.994 C 8.487,116.794 10.187,112.194 11.487,108.694 L 11.787,107.794 C 11.387,106.894 11.087,105.894 10.687,104.894 C 8.887,99.694 7.687,93.894 7.087,88.094 C 6.487,81.994 6.687,75.794 7.587,69.694 C 7.787,68.394 7.987,67.094 8.287,65.894 C 5.887,62.394 2.887,57.394 0.987,51.594 L 0.987,51.494 C 0.587,50.294 -0.413,47.294 0.187,43.494 C 0.387,42.094 0.687,40.694 1.187,39.194 C 2.087,36.394 3.387,34.094 4.387,32.394 C 6.587,28.594 9.287,24.794 12.587,20.694 C 14.087,18.894 15.587,17.094 17.187,15.494 L 18.587,14.094 C 19.287,13.294 20.087,12.594 20.987,11.994 C 22.987,10.494 25.787,9.194 29.587,9.094 C 30.787,8.994 32.087,8.894 33.387,8.894 L 33.487,8.894 C 35.987,8.894 38.687,9.094 41.287,9.494 C 45.287,10.094 48.887,11.194 52.087,12.394 C 54.187,11.494 56.387,10.694 58.687,9.894 C 64.087,8.094 69.887,6.894 75.687,6.494 C 81.787,5.994 87.987,6.294 93.887,7.294 C 95.287,7.494 96.687,7.794 98.087,8.094 C 102.787,4.894 107.087,2.594 111.587,1.194 L 111.687,1.194 C 112.687,0.794 114.887,0.094 117.787,0.094 C 118.387,0.094 119.087,0.094 119.687,0.194 C 121.187,0.394 122.587,0.694 124.187,1.194 C 126.987,2.094 129.387,3.394 131.087,4.394 C 134.887,6.594 138.787,9.294 142.887,12.694 C 144.687,14.194 146.487,15.794 148.187,17.394 L 149.587,18.794 C 150.287,19.394 150.987,20.094 151.487,20.894 C 153.287,23.194 154.687,26.494 154.787,31.094 C 154.887,32.694 154.887,34.394 154.787,36.094 C 154.587,39.794 154.087,43.294 153.187,46.494 C 152.487,48.894 151.687,51.294 150.787,53.694 C 152.587,58.194 153.887,62.794 154.787,67.494 C 156.587,77.394 156.387,87.594 154.187,97.394 C 155.487,99.294 156.687,101.094 157.687,102.894 C 159.387,105.894 160.787,108.994 161.787,112.194 C 162.187,113.394 163.087,116.394 162.487,120.394 C 162.287,121.794 161.887,123.094 161.387,124.594 C 159.587,129.694 156.787,133.894 154.287,137.394 C 151.587,141.194 148.487,144.894 145.287,148.294 L 144.087,149.494 C 143.387,150.294 142.587,150.994 141.687,151.694 C 139.687,153.194 136.887,154.394 133.087,154.594 C 131.887,154.694 130.587,154.794 129.287,154.794 L 129.187,154.794 C 126.487,154.794 123.787,154.594 120.987,154.094 C 116.487,153.394 112.487,151.994 108.887,150.594 C 106.987,151.394 104.987,152.094 103.087,152.694 C 97.487,154.394 91.587,155.494 85.687,155.794 C 79.587,156.194 73.387,155.694 67.387,154.594 C 66.687,154.494 65.887,154.294 65.187,154.194 C 59.987,157.894 55.387,160.294 50.587,161.894 L 50.487,161.894 C 49.487,161.794 47.287,162.594 44.387,162.594 L 44.387,162.594"/>
	<path class="theme-secondary" d="M 133.487,140.094 L 133.187,140.394 L 132.687,140.494 C 129.187,140.894 125.387,140.694 121.487,139.794 L 121.387,139.794 C 116.487,138.494 111.587,136.594 106.687,134.194 C 115.247,112.478 143.042,112.9 133.487,140.094 L 133.487,140.094 M 22.187,133.494 L 21.887,133.194 L 21.787,132.694 C 21.387,129.194 21.587,125.394 22.487,121.494 L 22.487,121.394 C 23.787,116.494 25.687,111.594 28.087,106.694 C 49.803,115.253 49.381,143.049 22.187,133.494 L 22.187,133.494 M 28.387,23.894 L 28.687,23.594 L 29.187,23.494 C 32.687,23.094 36.487,23.294 40.387,24.194 L 40.487,24.194 C 45.387,25.494 50.287,27.394 55.187,29.794 C 46.628,51.51 18.832,51.088 28.387,23.894 L 28.387,23.894 M 140.087,29.194 L 140.387,29.494 L 140.487,29.994 C 140.887,33.494 140.687,37.294 139.787,41.194 L 139.787,41.294 C 138.487,46.194 136.587,51.094 134.187,55.994 C 112.471,47.434 112.893,19.639 140.087,29.194 L 140.087,29.194" fill="#b4762c"/>
	<circle class="theme-primary" cx="81.4" cy="80.8" r="60.5" transform="translate(-.013 .094)" fill="#da8e35"/>
	<path d="M 58.587,59.994 C 55.087,58.394 52.487,56.794 49.887,54.894 C 45.887,52.094 42.187,48.994 39.087,45.694 C 31.487,37.994 27.487,30.094 28.587,23.594 L 26.287,25.994 C 20.787,31.794 13.487,41.994 13.387,46.394 L 13.487,46.894 C 14.487,50.294 16.087,53.694 18.387,56.994 L 18.387,57.094 C 21.387,61.894 27.287,69.794 48.287,78.994 L 44.587,85.994 L 72.887,78.394 L 62.887,51.994 L 58.587,59.994 M 58.287,103.294 C 56.687,106.794 55.087,109.394 53.187,111.994 C 50.387,115.994 47.287,119.694 43.987,122.794 C 36.287,130.394 28.387,134.394 21.887,133.294 L 24.287,135.594 C 30.087,141.094 40.287,148.394 44.687,148.494 L 45.187,148.394 C 48.587,147.394 51.987,145.794 55.287,143.494 L 55.387,143.494 C 60.187,140.494 68.087,134.594 77.287,113.594 L 84.287,117.294 L 76.687,88.994 L 50.287,98.994 L 58.287,103.294 M 103.287,103.994 C 106.787,105.594 109.387,107.194 111.987,109.094 C 115.987,111.894 119.687,114.994 122.787,118.294 C 130.387,125.994 134.387,133.894 133.287,140.394 L 135.587,137.994 C 141.087,132.194 148.387,121.994 148.487,117.594 L 148.387,117.094 C 147.387,113.694 145.787,110.294 143.487,106.994 L 143.487,106.894 C 140.487,102.094 134.587,94.194 113.587,84.994 L 117.287,77.994 L 88.987,85.594 L 98.987,111.994 L 103.287,103.994 M 103.987,59.394 C 105.587,55.894 107.187,53.294 109.087,50.694 C 111.887,46.694 114.987,42.994 118.287,39.894 C 125.987,32.294 133.887,28.294 140.387,29.394 L 137.987,27.094 C 132.187,21.594 121.987,14.294 117.587,14.194 L 117.087,14.294 C 113.687,15.294 110.287,16.894 106.987,19.194 L 106.887,19.194 C 102.087,22.194 94.187,28.094 84.987,49.094 L 77.987,45.394 L 85.587,73.694 L 111.987,63.694 L 103.987,59.394" fill="#fff"/>
</svg>