<?xml version="1.0" ?>
<svg xmlns="http://www.w3.org/2000/svg" viewBox="0 0 237.7 94.99">
	<defs>
		<style>.cls-1{fill:#111;}</style>
	</defs>
	<g id="Layer_2" data-name="Layer 2">
		<g id="Layer_1-2" data-name="Layer 1">
			<path class="cls-1" d="M6.9,56.68C5,56.68,0,56.32,0,61S5.26,72.33,6.9,72.33,13.81,65.62,13.81,61,8.82,56.68,6.9,56.68Z"/>
			<path class="cls-1" d="M57.63,41.58c-1.68,5.75-11,27.26-22.54,27.26-4.64,0-7.44-3.84-7.44-10.15C27.65,35.66,45.88,3,59,3c4.24,0,6.88,3.52,6.8,9.11-.08,3.92-1.68,8.72-4.88,14.71l5.36,1.84a34,34,0,0,0,4.72-16C71.07,5.12,66.51,0,59.63,0,40,0,20.86,34.3,20.86,59.49c0,8.55,5.27,15.11,12.23,15.11,7.35,0,13.43-5.92,18.15-13.12-3.6,9.84-5.76,15.2-8.72,20-3.36,5.44-7.75,8.72-12.15,9L31.65,95C37.49,94.83,43,90.67,48,82.43c2.88-4.63,8-17.75,16.63-40.85Z"/>
			<path class="cls-1" d="M109,37.82c2.4,0,4.48-2.48,4.55-5.44,0-2.16-1.27-3.6-2.79-3.6-2.4,0-4.48,2.4-4.56,5.36C106.17,36.38,107.45,37.82,109,37.82Z"/>
			<path class="cls-1" d="M234.5,57.65c-2.64,4.71-5.52,7.75-9.43,7.75h-1a9.67,9.67,0,0,0,.48-3c0-4.31-1.84-7.59-3.12-10.39-1.44-3-2.88-7.12-.16-11.27H214c-3.43,5.19-6.79,11.34-11.34,18.85-2.47,3.75-6.74,9.13-9.77,9.13-1.68,0-3-1.28-3-3.52,0-3.2,3.12-11.27,7.76-22.06a26.67,26.67,0,0,1-2.8.08c-4.24,0-9.43-1.12-11.59-4.56l-6,1.36a34.64,34.64,0,0,1-3.36,16.07,41.25,41.25,0,0,1-3.81,6.19l-.05.08-.45.57c-2.34,3-5.17,5.79-7.36,5.79a2.88,2.88,0,0,1-2.88-3.12c0-1.44.56-3.84,1.92-8,2.64-8.08,5.2-14.39,5.76-16H161.1l-2,6.87c-.64-4.24-3.28-7.11-7.36-7.11-8.2,0-14.34,8.88-15.81,17.66-2.55,3.75-7.85,9.68-12.09,9.68-1.68,0-2.64-1.28-2.64-3.12,0-2.48,2.48-11,5.68-21.11h9.67V41.58h-8.71c3.44-10.48,7.43-22.15,10.39-30.39h-6.31c-3.6,11-7,21.43-9.84,30.39H117.6v2.87h3.6c-1.62,5.13-3,9.66-4,13.39-2.08,3.52-7.32,10.84-11.4,10.84-1.68,0-2.64-1.28-2.64-3.12,0-3.6,5-17.11,7.44-24h-5.92c-2.29,7.42-4,12.47-5.21,16.22-2.06,3.5-7.31,10.88-10.86,10.88C87,68.68,86,67.4,86,65.56c0-3.6,4.64-17.11,7-24H87.14c-4.64,15.67-10.32,27.1-15.67,27.1-1.68,0-2.64-1.28-2.64-3.12,0-3.68,4.64-17.27,7-24H70c-5,16.07-6.88,21-6.88,25.74,0,3.76,2.8,6.48,6.8,6.48,4.4,0,7.91-3.2,11.27-9.2-.08,1-.16,1.84-.16,2.72,0,3.76,2.8,6.48,6.8,6.48,3,0,6.27-2.52,9.68-6.79,0,.1,0,.21,0,.31,0,3.76,2.8,6.48,6.8,6.48,3.55,0,7.42-2.74,11.24-7.36,0,.32,0,.62,0,.88,0,3.76,2.8,6.48,6.8,6.48,4.34,0,9.13-3.23,13.52-8.57.75,5.14,4.06,8.57,9,8.57,3,0,6.31-2,9-6.24.08,3.6,2.8,6.24,7.52,6.24,4.11,0,8.62-4.64,13.39-12,.7-1,1.39-2.06,2-3.19a43.65,43.65,0,0,0,5.36-13.92,20.92,20.92,0,0,0,7.75,1.52c-4.47,10.88-6.15,15.91-6.15,20.31,0,4.24,3.44,7.28,8,7.28,3.75,0,7.51-3.26,11.43-8.65,1.19,4.58,4.42,8.41,9.92,8.41a11.81,11.81,0,0,0,9.52-5c.8.08,1.6.08,2.48.08,5,0,9.35-3.44,12.63-9.35Zm-88.27,11c-2.8,0-4.48-2.72-4.48-6.16,0-6.07,4.32-18.31,10.47-18.31,3.12,0,4.16,3.44,4.16,6.72C156.38,57.09,152.06,68.68,146.23,68.68Zm65.8.08c-3.59,0-5.51-2.8-5.83-6.72a39.26,39.26,0,0,0,10,5.28A6.55,6.55,0,0,1,212,68.76Zm6.4-4.48c-4.24-1.52-7.52-4.15-10.32-6.39,1.76-2.88,4.48-7.12,6.8-11,.4,5.2,4,10.08,4,14.79A7.59,7.59,0,0,1,218.43,64.28Z"/>
		</g>
	</g>
</svg>