<?xml version="1.0" ?>
<svg xmlns="http://www.w3.org/2000/svg" viewBox="0 0 242 80" fill="none">
	<g clip-path="url(#clip0)">
		<path d="M129.736 46.28C129.821 48.7973 129.587 51.08 129.032 53.128C128.776 54.024 128.435 54.92 128.008 55.816C127.624 56.6693 127.091 57.48 126.408 58.248C125.725 58.9733 124.915 59.6133 123.976 60.168C123.08 60.7227 121.992 61.1067 120.712 61.32C120.712 61.32 120.456 61.3413 119.944 61.384C119.432 61.4267 118.771 61.4053 117.96 61.32C117.192 61.2347 116.339 61.064 115.4 60.808C114.504 60.5093 113.651 60.04 112.84 59.4C112.029 58.7173 111.325 57.8213 110.728 56.712C110.173 55.6027 109.853 54.1947 109.768 52.488C109.597 50.824 109.427 49.3307 109.256 48.008C109.043 46.8987 108.808 45.8747 108.552 44.936C108.296 43.9547 107.955 43.464 107.528 43.464C107.656 45.0427 107.72 46.408 107.72 47.56C107.763 48.712 107.763 49.6933 107.72 50.504C107.677 51.4427 107.635 52.2533 107.592 52.936C107.379 54.5147 106.888 55.9227 106.12 57.16C105.48 58.2267 104.52 59.208 103.24 60.104C102.003 61 100.275 61.4693 98.056 61.512C96.9893 61.512 96.0293 61.384 95.176 61.128C94.3653 60.9147 93.64 60.5947 93 60.168C92.36 59.7413 91.784 59.272 91.272 58.76C90.8027 58.2053 90.3973 57.6507 90.056 57.096C89.2453 55.7733 88.6693 54.28 88.328 52.616C88.0293 51.464 87.7947 50.1413 87.624 48.648C87.4533 47.368 87.3467 45.832 87.304 44.04C87.2613 42.248 87.3467 40.2 87.56 37.896C87.7733 36.104 88.264 34.4827 89.032 33.032C89.3307 32.4347 89.7147 31.8373 90.184 31.24C90.6533 30.6427 91.208 30.1093 91.848 29.64C92.488 29.128 93.2133 28.7227 94.024 28.424C94.8773 28.0827 95.8373 27.8693 96.904 27.784C98.7813 27.656 100.317 27.7413 101.512 28.04C102.749 28.3387 103.752 28.744 104.52 29.256C105.288 29.7253 105.864 30.2587 106.248 30.856C106.675 31.4107 107.037 31.944 107.336 32.456C111.176 30.3653 114.675 29.384 117.832 29.512C119.155 29.5547 120.477 29.8533 121.8 30.408C123.123 30.92 124.317 31.816 125.384 33.096C126.493 34.3333 127.432 36.0187 128.2 38.152C128.968 40.2853 129.48 42.9947 129.736 46.28ZM148.349 18.568C148.434 19.5067 148.306 20.424 147.965 21.32C147.666 22.216 147.197 23.0267 146.557 23.752C145.959 24.4347 145.213 25.0107 144.317 25.48C143.421 25.9067 142.439 26.184 141.373 26.312C140.263 26.44 139.218 26.376 138.237 26.12C137.298 25.8213 136.445 25.3947 135.677 24.84C134.909 24.2853 134.269 23.624 133.757 22.856C133.287 22.0453 132.989 21.1493 132.861 20.168C132.775 19.2293 132.882 18.3333 133.181 17.48C133.522 16.584 134.013 15.7947 134.653 15.112C135.293 14.3867 136.061 13.7893 136.957 13.32C137.853 12.8507 138.834 12.552 139.901 12.424C140.967 12.296 141.97 12.3813 142.909 12.68C143.89 12.936 144.765 13.3413 145.533 13.896C146.301 14.4507 146.941 15.1333 147.453 15.944C147.965 16.7547 148.263 17.6293 148.349 18.568ZM151.101 54.536C150.759 56.456 150.098 57.928 149.117 58.952C148.135 59.9333 147.133 60.6587 146.109 61.128C144.871 61.64 143.549 61.9173 142.141 61.96C140.306 62.0453 138.813 61.7893 137.661 61.192C136.509 60.6373 135.591 59.9973 134.909 59.272C134.141 58.4613 133.522 57.5013 133.053 56.392C132.199 54.088 131.687 51.72 131.517 49.288C131.389 46.8133 131.431 44.552 131.645 42.504C131.858 40.1573 132.242 37.8533 132.797 35.592C133.309 33.6293 134.055 32.1573 135.037 31.176C136.061 30.152 137.063 29.4053 138.045 28.936C139.197 28.424 140.413 28.1467 141.693 28.104C143.655 28.0187 145.234 28.36 146.429 29.128C147.666 29.8533 148.647 30.7067 149.373 31.688C150.183 32.7973 150.781 34.12 151.165 35.656C151.463 37.064 151.698 38.7067 151.869 40.584C151.997 42.2053 152.018 44.1893 151.933 46.536C151.89 48.84 151.613 51.5067 151.101 54.536ZM154.344 48.072C154.045 45.64 153.896 43.1013 153.896 40.456C153.896 37.768 153.96 35.272 154.088 32.968C154.216 30.3227 154.408 27.72 154.664 25.16C154.92 22.8133 155.432 20.7013 156.2 18.824C156.541 18.056 156.946 17.288 157.416 16.52C157.928 15.752 158.525 15.0693 159.208 14.472C159.89 13.8747 160.68 13.4053 161.576 13.064C162.514 12.68 163.56 12.488 164.712 12.488C166.333 12.5307 167.848 13.0427 169.256 14.024C169.81 14.4507 170.386 14.984 170.984 15.624C171.581 16.264 172.114 17.0747 172.584 18.056C173.096 19.0373 173.522 20.1893 173.864 21.512C174.248 22.8347 174.504 24.3707 174.632 26.12C174.888 29.5333 175.016 32.7973 175.016 35.912C175.016 39.0267 174.973 41.8 174.888 44.232C174.76 47.0907 174.568 49.7573 174.312 52.232C174.098 54.1093 173.608 55.752 172.84 57.16C172.498 57.7573 172.072 58.3547 171.56 58.952C171.09 59.5493 170.493 60.0827 169.768 60.552C169.085 60.9787 168.274 61.32 167.336 61.576C166.397 61.832 165.33 61.9387 164.136 61.896C163.026 61.8533 162.024 61.6187 161.128 61.192C160.274 60.808 159.506 60.296 158.824 59.656C158.141 59.016 157.565 58.2907 157.096 57.48C156.626 56.6267 156.221 55.7733 155.88 54.92C155.112 52.9147 154.6 50.632 154.344 48.072ZM177.611 48.072C177.312 45.64 177.163 43.1013 177.163 40.456C177.163 37.768 177.227 35.272 177.355 32.968C177.483 30.3227 177.675 27.72 177.931 25.16C178.187 22.8133 178.699 20.7013 179.467 18.824C179.808 18.056 180.214 17.288 180.683 16.52C181.195 15.752 181.792 15.0693 182.475 14.472C183.158 13.8747 183.947 13.4053 184.843 13.064C185.782 12.68 186.827 12.488 187.979 12.488C189.6 12.5307 191.115 13.0427 192.523 14.024C193.078 14.4507 193.654 14.984 194.251 15.624C194.848 16.264 195.382 17.0747 195.851 18.056C196.363 19.0373 196.79 20.1893 197.131 21.512C197.515 22.8347 197.771 24.3707 197.899 26.12C198.155 29.5333 198.283 32.7973 198.283 35.912C198.283 39.0267 198.24 41.8 198.155 44.232C198.027 47.0907 197.835 49.7573 197.579 52.232C197.366 54.1093 196.875 55.752 196.107 57.16C195.766 57.7573 195.339 58.3547 194.827 58.952C194.358 59.5493 193.76 60.0827 193.035 60.552C192.352 60.9787 191.542 61.32 190.603 61.576C189.664 61.832 188.598 61.9387 187.403 61.896C186.294 61.8533 185.291 61.6187 184.395 61.192C183.542 60.808 182.774 60.296 182.091 59.656C181.408 59.016 180.832 58.2907 180.363 57.48C179.894 56.6267 179.488 55.7733 179.147 54.92C178.379 52.9147 177.867 50.632 177.611 48.072ZM237.167 28.68C238.489 29.2773 239.535 30.28 240.303 31.688C240.601 32.2853 240.857 33.0107 241.071 33.864C241.284 34.6747 241.391 35.6347 241.391 36.744C241.391 37.8533 241.241 39.1333 240.943 40.584C240.687 41.992 240.239 43.592 239.599 45.384C238.361 48.712 237.103 51.7413 235.823 54.472C234.585 57.16 233.433 59.464 232.367 61.384C231.129 63.6453 229.935 65.6507 228.783 67.4C227.588 69.4907 226.223 71.24 224.687 72.648C224.047 73.2453 223.321 73.7787 222.51 74.248C221.743 74.76 220.889 75.1227 219.951 75.336C219.055 75.592 218.095 75.6773 217.071 75.592C216.089 75.5067 215.044 75.1867 213.935 74.632C212.527 73.9493 211.503 73.0747 210.863 72.008C210.223 70.9413 209.839 69.768 209.71 68.488C209.583 67.2507 209.647 65.9493 209.903 64.584C210.201 63.2187 210.543 61.9387 210.927 60.744C211.353 59.5493 211.78 58.4827 212.207 57.544C212.676 56.5627 213.039 55.816 213.295 55.304C213.039 55.048 212.761 54.8133 212.463 54.6C212.207 54.344 211.972 54.1093 211.759 53.896C211.503 53.6827 211.268 53.4693 211.055 53.256C209.647 52.1893 208.388 51.1013 207.279 49.992C206.169 48.8827 205.252 47.8587 204.526 46.92C203.673 45.8107 202.927 44.7653 202.286 43.784C201.305 42.2053 200.686 40.584 200.43 38.92C200.302 38.2373 200.26 37.512 200.302 36.744C200.345 35.9333 200.494 35.1227 200.75 34.312C201.006 33.5013 201.412 32.6907 201.966 31.88C202.564 31.0267 203.353 30.216 204.334 29.448C205.7 28.68 207.129 28.2533 208.623 28.168C209.263 28.1253 209.945 28.168 210.67 28.296C211.396 28.424 212.143 28.68 212.911 29.064C213.721 29.448 214.532 29.9813 215.343 30.664C216.196 31.304 217.049 32.1573 217.903 33.224C218.628 34.12 219.289 35.016 219.887 35.912C220.484 36.7653 221.081 37.6187 221.679 38.472C222.148 37.6187 222.831 36.4453 223.727 34.952C224.623 33.4587 225.711 32.0933 226.991 30.856C228.271 29.6187 229.764 28.7227 231.471 28.168C233.177 27.5707 235.076 27.7413 237.167 28.68Z" fill="url(#paint0_linear)"/>
		<rect width="80" height="80" rx="24" fill="#125A9A"/>
		<path d="M13.404 51.728C13.236 50.36 13.152 48.932 13.152 47.444C13.152 45.932 13.188 44.528 13.26 43.232C13.332 41.744 13.44 40.28 13.584 38.84C13.728 37.52 14.016 36.332 14.448 35.276C14.64 34.844 14.868 34.412 15.132 33.98C15.42 33.548 15.756 33.164 16.14 32.828C16.524 32.492 16.968 32.228 17.472 32.036C18 31.82 18.588 31.712 19.236 31.712C20.148 31.736 21 32.024 21.792 32.576C22.104 32.816 22.428 33.116 22.764 33.476C23.1 33.836 23.4 34.292 23.664 34.844C23.952 35.396 24.192 36.044 24.384 36.788C24.6 37.532 24.744 38.396 24.816 39.38C24.96 41.3 25.032 43.136 25.032 44.888C25.032 46.64 25.008 48.2 24.96 49.568C24.888 51.176 24.78 52.676 24.636 54.068C24.516 55.124 24.24 56.048 23.808 56.84C23.616 57.176 23.376 57.512 23.088 57.848C22.824 58.184 22.488 58.484 22.08 58.748C21.696 58.988 21.24 59.18 20.712 59.324C20.184 59.468 19.584 59.528 18.912 59.504C18.288 59.48 17.724 59.348 17.22 59.108C16.74 58.892 16.308 58.604 15.924 58.244C15.54 57.884 15.216 57.476 14.952 57.02C14.688 56.54 14.46 56.06 14.268 55.58C13.836 54.452 13.548 53.168 13.404 51.728ZM27.884 50.112C27.6786 48.44 27.576 46.6947 27.576 44.876C27.576 43.028 27.62 41.312 27.708 39.728C27.796 37.9093 27.928 36.12 28.104 34.36C28.28 32.7467 28.632 31.2947 29.16 30.004C29.3946 29.476 29.6733 28.948 29.996 28.42C30.348 27.892 30.7586 27.4227 31.228 27.012C31.6973 26.6013 32.24 26.2787 32.856 26.044C33.5013 25.78 34.22 25.648 35.012 25.648C36.1266 25.6773 37.168 26.0293 38.136 26.704C38.5173 26.9973 38.9133 27.364 39.324 27.804C39.7346 28.244 40.1013 28.8013 40.424 29.476C40.776 30.1507 41.0693 30.9427 41.304 31.852C41.568 32.7613 41.744 33.8173 41.832 35.02C42.008 37.3667 42.096 39.6107 42.096 41.752C42.096 43.8933 42.0666 45.8 42.008 47.472C41.92 49.4373 41.788 51.2707 41.612 52.972C41.4653 54.2627 41.128 55.392 40.6 56.36C40.3653 56.7707 40.072 57.1813 39.72 57.592C39.3973 58.0027 38.9866 58.3693 38.488 58.692C38.0186 58.9853 37.4613 59.22 36.816 59.396C36.1706 59.572 35.4373 59.6453 34.616 59.616C33.8533 59.5867 33.164 59.4253 32.548 59.132C31.9613 58.868 31.4333 58.516 30.964 58.076C30.4946 57.636 30.0986 57.1373 29.776 56.58C29.4533 55.9933 29.1746 55.4067 28.94 54.82C28.412 53.4413 28.06 51.872 27.884 50.112ZM45.6684 47.688C45.407 45.56 45.2764 43.3387 45.2764 41.024C45.2764 38.672 45.3324 36.488 45.4444 34.472C45.5564 32.1573 45.7244 29.88 45.9484 27.64C46.1724 25.5867 46.6204 23.7387 47.2924 22.096C47.591 21.424 47.9457 20.752 48.3564 20.08C48.8044 19.408 49.327 18.8107 49.9244 18.288C50.5217 17.7653 51.2124 17.3547 51.9964 17.056C52.8177 16.72 53.7324 16.552 54.7404 16.552C56.159 16.5893 57.4844 17.0373 58.7164 17.896C59.2017 18.2693 59.7057 18.736 60.2284 19.296C60.751 19.856 61.2177 20.5653 61.6284 21.424C62.0764 22.2827 62.4497 23.2907 62.7484 24.448C63.0844 25.6053 63.3084 26.9493 63.4204 28.48C63.6444 31.4667 63.7564 34.3227 63.7564 37.048C63.7564 39.7733 63.719 42.2 63.6444 44.328C63.5324 46.8293 63.3644 49.1627 63.1404 51.328C62.9537 52.9707 62.5244 54.408 61.8524 55.64C61.5537 56.1627 61.1804 56.6853 60.7324 57.208C60.3217 57.7307 59.799 58.1973 59.1644 58.608C58.567 58.9813 57.8577 59.28 57.0364 59.504C56.215 59.728 55.2817 59.8213 54.2364 59.784C53.2657 59.7467 52.3884 59.5413 51.6044 59.168C50.8577 58.832 50.1857 58.384 49.5884 57.824C48.991 57.264 48.487 56.6293 48.0764 55.92C47.6657 55.1733 47.311 54.4267 47.0124 53.68C46.3404 51.9253 45.8924 49.928 45.6684 47.688Z" fill="white"/>
	</g>
	<defs>
		<linearGradient id="paint0_linear" x1="238.81" y1="40" x2="92.1473" y2="39.1894" gradientUnits="userSpaceOnUse">
			<stop stop-color="#1A82DE"/>
			<stop offset="1" stop-color="#125A9A"/>
		</linearGradient>
		<clipPath id="clip0">
			<rect width="242" height="80" fill="white"/>
		</clipPath>
	</defs>
</svg>