<?xml version="1.0" ?>
<svg xmlns="http://www.w3.org/2000/svg" viewBox="0 0 129 45" fill="none">
	<path fill-rule="evenodd" clip-rule="evenodd" d="M69.4796 44.5071C67.7696 43.8896 64.777 43.0121 64.777 43.0121C60.6991 41.6471 57.5092 41.9396 57.5092 41.9396C54.3192 42.4271 51.7212 44.4746 51.7212 44.4746C49.9454 39.4696 44.0259 41.2896 44.0259 41.2896C41.987 41.7121 37.383 43.4021 37.383 43.4021C25.6098 47.3996 23.4723 41.7121 23.4723 41.7121C23.4065 41.7771 20.4796 42.9796 20.4796 42.9796C16.0729 44.2471 11.6991 42.5571 11.6991 42.5571C6.5689 40.3147 0.550781 42.9796 0.550781 42.9796C0.813868 41.6796 5.68098 40.4446 5.68098 40.4446C7.35816 40.0872 14.034 40.8671 14.034 40.8671L16.8293 41.2896L17.0595 40.8671L10.2192 29.0046L9.3642 28.1596L9.5944 25.6246C10.7454 24.0646 30.8058 15.0296 30.8058 15.0296C33.7327 12.9496 53.2998 7.84715 53.2998 7.84715C54.2206 8.00965 54.5823 6.15715 54.5823 6.15715C58.0025 5.05215 60.7978 7.42465 60.7978 7.42465V9.76465C63.4944 12.2021 69.7756 19.7096 69.7756 19.7096C69.94 22.2446 68.4931 22.0496 68.4931 22.0496L60.5676 38.5597C59.7125 39.6971 60.9951 39.4046 60.9951 39.4046C61.9159 39.5346 67.2105 41.7446 67.2105 41.7446C69.2166 42.8821 72.3407 43.4347 72.3407 43.4347L74.7085 43.6621V43.8896C73.2944 44.7346 69.4796 44.5071 69.4796 44.5071ZM52.8065 13.7946H51.2937L49.781 14.0221L48.6957 14.2496L47.183 14.6721L45.4729 15.0946L42.9078 15.5171L41.1978 16.1671L37.7776 17.2396L34.9823 18.0846L32.187 19.1571L28.9642 20.4246L25.3139 21.9196L21.3018 23.7396L17.8817 25.2346L15.3166 26.5021L14.6588 26.7296V26.9246H14.9548C15.4481 26.9246 15.9414 26.7621 16.3689 26.5021L16.7964 26.2746C17.0924 26.1446 17.3884 26.0146 17.6843 25.9496L17.783 25.9171C17.9803 25.8846 18.1447 25.8196 18.3092 25.7221L18.638 25.5597C18.8353 25.4621 19.0327 25.3971 19.23 25.3321L19.3286 25.2996C19.4931 25.2346 19.6575 25.1696 19.8219 25.1046L20.0192 25.0071C20.3152 24.8771 20.6112 24.7471 20.9072 24.6496L21.9266 24.3571L23.6367 23.7071L25.7743 22.8621L27.9119 22.0171L30.4769 20.9771L34.5548 19.4821L38.4025 17.9871L42.4803 16.7196L44.6179 16.0696L47.183 15.4196L48.8931 14.7696L49.5508 14.5421L50.8333 14.3146L51.6884 14.1196H52.7736L52.8065 13.7946ZM59.8441 11.9096L59.6139 11.4871H59.3837L59.1535 12.5596L58.9233 13.4046L58.7917 14.2496L58.5615 15.5171L58.3313 16.3621L58.1011 17.6296C58.1011 17.6296 57.9038 19.1571 57.8709 19.1246C57.8709 19.0921 57.4434 20.6196 57.4434 20.6196L57.0159 22.5371L56.5884 24.4546L56.1608 26.5671L55.7333 28.4846L55.5031 29.5571L55.2729 30.8246L54.8454 32.9371L54.4179 34.6271L53.9904 35.6996C53.9904 35.6996 53.9575 36.7397 53.9904 36.7721C54.0561 36.7721 54.1219 36.7721 54.2206 36.7721L54.6481 36.1222L54.8783 35.4721L55.1085 34.6271L55.536 33.1321L56.1937 31.2146L56.6212 29.5246L57.0488 27.8347L57.4763 25.7221L57.9038 24.0321L58.3313 21.2696L58.7588 18.9296L59.1864 15.9721L59.6139 13.8596L59.8441 12.5921V11.9096ZM18.9669 19.3196C18.5723 19.3521 18.9669 14.8671 18.9669 14.8671L16.1716 15.9396L21.3018 10.1871L22.5843 9.53715L41.428 0.0146484L49.9783 7.65215C49.1561 7.91215 36.6924 11.4546 36.6924 11.4546C32.5488 12.3646 19.3286 19.2546 18.9669 19.3196ZM39.2904 3.23215L39.7179 2.80965C39.7179 2.80965 40.0796 1.96465 39.0602 2.61465L35.4427 5.96215L34.1602 7.22965L32.8776 7.87965L30.5098 8.95215L28.1421 10.2196L26.0045 11.2921L24.4917 11.9421L22.5515 12.7871L20.6441 13.8271L20.8743 14.0546H21.3018L22.1568 13.6321L23.6696 12.9821L28.3723 10.8696L33.7327 8.52965L35.2454 7.68465L37.6132 5.14965L39.2904 3.23215Z" fill="#232d4a"/>
	<path d="M70.7627 33.0023C70.5654 33.0023 70.3352 32.9048 70.2036 32.7423C70.105 32.6448 69.9734 32.4173 70.0392 32.1248C70.0392 32.0923 70.0721 32.0273 70.0721 31.9948C70.105 31.9298 70.105 31.8648 70.1707 31.7673C70.2365 31.6048 70.3352 31.3773 70.4667 31.0523C70.7627 30.4348 71.1573 29.5898 71.6177 28.6473C72.2754 27.2823 73.6566 24.5198 75.3996 21.2048C77.0768 18.0198 78.5895 15.3223 79.8721 13.1773C81.5164 10.4473 83.6211 8.04235 84.4761 7.22985C84.7721 6.96985 85.1996 6.90485 85.5284 7.06735C85.8902 7.22985 86.0875 7.58735 86.0875 7.97735C85.9888 9.30985 84.8378 14.6723 84.7063 19.0923C84.6405 21.5623 84.7392 21.9523 84.7721 23.4798C84.805 24.3248 84.7392 24.8123 84.9694 24.9098C85.1338 24.8448 85.3311 24.3248 85.3311 24.3248C85.5942 23.8048 85.3311 24.3248 85.7258 23.4148C86.4821 21.7248 86.811 20.7173 87.7647 18.3448C89.0472 15.0948 90.3627 11.9098 91.6123 9.14735C92.3029 7.61985 93.1251 5.73485 93.6513 4.85735C94.2761 3.75235 95.1969 4.14235 95.6902 3.81735C96.0191 3.58985 96.4794 3.68735 96.7097 4.01235C96.9399 4.33735 96.8412 4.79235 96.5123 5.01985C96.3808 5.11735 96.0191 5.44235 95.3284 6.61235C94.8352 7.45735 94.2761 8.59485 93.6184 10.0573C92.3687 12.7873 91.0533 16.1348 89.7378 19.3523C88.6855 21.9523 87.5345 24.3573 87.0741 26.2423C86.811 27.2498 86.6137 27.6398 86.515 28.1923C86.4164 28.7123 86.3177 29.2323 86.219 29.4273C85.956 29.8823 85.9231 30.2073 85.1009 30.4023C84.6076 30.5323 84.1472 30.2398 83.9828 30.1423C83.4566 29.7848 83.2593 29.3298 83.1278 29.0698C82.9633 28.7773 82.6674 27.9323 82.5358 26.9248C82.3385 25.3973 82.2399 24.9423 82.3056 22.3098C82.4043 18.6698 82.6016 14.7698 82.7331 12.5273C82.1741 13.2748 81.3848 14.4123 80.2996 16.1998C79.0499 18.2473 78.5895 18.3123 76.9452 21.3673C75.2352 24.5848 73.8539 27.3798 73.1962 28.7448C72.1439 30.8898 71.6177 32.0273 71.4862 32.3523C71.4533 32.5473 71.3546 32.7098 71.1902 32.8398C71.0587 32.9373 70.8942 33.0023 70.7627 33.0023Z" fill="#232d4a"/>
	<path d="M93.9801 29.3624C93.0922 29.3624 92.303 29.1024 91.6452 28.6149C91.0533 28.1924 90.6258 27.5749 90.3627 26.7949C90.1325 26.1124 90.0338 25.2999 90.0667 24.4224C90.0996 23.5774 90.2969 22.7324 90.5929 21.8224C90.8889 20.9124 91.3493 20.0674 91.8754 19.2549C92.5332 18.2799 93.3553 17.5649 94.3419 17.1424C95.3613 16.7199 96.907 16.2974 97.9264 16.7199C98.9459 17.1099 99.4721 18.0849 99.9325 19.0599L100.031 19.3199C100.689 20.7824 100.952 22.9924 99.6365 25.5599C99.1761 26.4699 98.4855 27.3149 97.6634 27.9324C96.8741 28.5499 96.0191 28.9724 95.1311 29.1674C94.7365 29.3299 94.3419 29.3624 93.9801 29.3624ZM96.8412 18.9299C96.4795 18.9299 96.1177 18.9949 95.7889 19.1249C95.0654 19.4174 94.4734 19.9374 93.9801 20.6849C93.5197 21.3999 93.1251 22.1474 92.862 22.9274C92.5989 23.6749 92.4345 24.4224 92.4016 25.1374C92.3687 25.8199 92.4016 26.3724 92.5332 26.8924C92.566 27.0549 92.7305 27.3799 92.7962 27.4449C93.2238 27.8674 93.6513 27.8999 94.1775 27.7699C94.605 27.6724 95.0654 27.3149 95.2956 27.1524C96.5452 26.1449 97.2358 24.9749 97.3674 24.6824C97.6634 23.9999 98.0909 22.7974 98.1566 21.9524C98.1895 21.5949 98.2553 21.2699 98.2224 21.0099C98.1895 20.6199 98.1895 20.3274 98.058 19.9374L97.9922 19.7749C97.8936 19.5474 97.7949 19.5149 97.6305 19.2874C97.4989 19.1249 97.1701 18.9299 96.8412 18.9299Z" fill="#232d4a"/>
	<path d="M125.945 36.7397C125.912 36.7397 125.912 36.7397 125.879 36.7397C125.485 36.7072 125.189 36.3497 125.222 35.9597C125.222 35.8297 126.669 25.9497 127.03 19.6122C127.063 19.1897 126.932 18.2797 126.373 18.4747C126.373 18.4747 125.945 18.6372 125.55 19.0597C125.287 19.3522 124.926 19.6122 124.531 20.0997C123.314 21.5947 123.051 22.0822 122.196 23.3497C121.275 24.7147 120.387 26.2747 119.927 27.3797C119.828 27.6072 119.565 28.0622 119.236 28.4197C119.072 28.6147 118.973 28.6797 118.513 29.0372C118.283 29.1997 118.052 29.2972 117.691 29.3297C117.395 29.3622 117 29.3297 116.704 29.1347C116.277 28.8422 116.079 28.5172 116.014 28.2572C115.816 27.3472 115.981 27.0222 116.573 24.5197C116.737 23.8047 118.052 20.6847 118.085 20.1322C118.085 20.0672 117.987 19.7097 117.428 20.7172C117.395 20.7822 116.77 21.5947 116.737 21.6272C116.244 22.2447 116.375 22.1147 115.849 22.8297C114.106 25.2997 114.665 24.5197 113.942 25.5597C113.284 26.5022 112.857 27.0547 112.626 27.2822C111.837 28.1597 111.278 28.4197 110.916 28.4522C110.489 28.4847 110.193 28.3547 110.028 28.2897C109.798 28.1597 109.502 27.8997 109.371 27.3797C109.305 27.1197 109.272 26.7947 109.305 26.4047C109.338 25.9822 109.403 25.5597 109.502 25.1372C109.469 25.1372 109.502 25.1372 109.469 25.1372C108.713 25.9822 107.759 27.0547 106.773 27.8672C106.214 28.3547 105.687 28.7122 105.227 28.9722C104.701 29.2647 104.208 29.3947 103.78 29.3947C103.681 29.3947 103.616 29.3947 103.55 29.3947C103.089 29.3297 102.432 29.1022 101.938 28.2247C101.445 27.3147 101.314 26.2097 101.577 24.9097C101.774 23.8697 102.234 22.7322 102.892 21.5622C103.451 20.5872 104.142 19.5797 104.832 18.7672C105.227 18.3122 105.983 17.4672 106.641 17.1097C107.365 16.7197 107.924 16.8497 108.252 17.0122C108.746 17.2722 109.14 17.7922 109.403 18.5397L109.502 18.8972C109.667 19.3847 109.173 19.5147 109.009 19.5797C108.548 19.7422 108.483 19.6772 108.351 19.6447C108.187 19.6122 108.121 19.5472 108.121 19.5472C108.121 19.5472 107.956 19.4172 107.924 19.0597C107.891 18.7022 107.825 18.2797 107.595 18.2797C107.43 18.2797 107.332 18.3772 107.233 18.4422C106.608 19.0922 105.589 20.2297 104.471 22.2447C103.879 23.2847 103.714 23.5772 103.55 24.4547C103.352 25.4297 103.418 26.2097 103.747 26.8272C103.944 27.2172 104.175 27.2497 104.24 27.2497C104.503 27.2822 105.128 27.1847 106.345 26.1122C107.266 25.3322 107.661 25.0072 108.417 24.1947C109.469 23.0247 109.831 22.6347 110.259 22.5697C110.554 22.5047 110.85 22.6022 111.048 22.7972C111.344 23.1222 111.344 23.5447 111.278 23.9022C111.245 24.1947 111.048 24.6172 110.949 24.9747C110.85 25.3647 110.719 25.6247 110.653 26.2422C110.653 26.3722 110.587 26.7297 110.719 26.6972C110.785 26.7947 111.804 25.5922 113.021 24.0647C114.303 22.4722 115.29 21.4322 116.967 19.0597C118.579 16.7847 118.283 17.4022 120.65 12.7222C121.308 11.4222 121.374 10.4472 121.801 9.37468C121.966 9.01718 122.097 8.39968 122.196 8.10718C122.295 7.87968 122.426 7.78218 122.492 7.65218C122.591 7.45718 122.952 7.55468 123.183 7.42468C123.446 7.29468 123.775 7.32718 123.972 7.52218C124.071 7.61968 124.301 7.84718 124.235 8.26968C124.235 8.33468 124.202 8.39968 124.169 8.49718C124.103 8.69218 123.972 9.08218 123.38 10.0897C122.722 11.6822 121.341 14.7372 120.354 17.5647C119.499 20.0022 119.105 22.0822 118.71 23.4147C118.381 24.5847 118.02 26.0147 118.085 26.0472C118.447 26.3072 118.776 25.4947 119.598 24.3247C119.894 23.8372 120.289 23.2522 120.585 22.8947C120.815 22.6347 120.914 22.4072 121.21 22.0497C122.163 20.8797 122.328 20.7497 123.248 19.6447C123.742 19.0597 124.794 18.0522 125.123 17.7597C125.452 17.4672 125.781 17.1422 126.373 17.1097C126.701 17.0772 126.932 17.0122 127.556 17.4672C127.787 17.6297 127.885 17.8572 127.984 18.1172C128.543 19.7747 128.247 23.7072 127.556 28.8422C127.03 32.7747 127.556 35.8947 127.063 36.4797C126.997 36.7722 126.34 36.7397 125.945 36.7397Z" fill="#232d4a"/>
	<path d="M95.6899 41.8421V36.4146C95.6899 36.3496 95.7228 36.2521 95.7886 36.2196C95.8544 36.1546 95.9201 36.1221 95.9859 36.1221C96.1175 36.1221 96.1832 36.1871 96.249 36.2846L98.3866 40.2496L100.524 36.2846C100.59 36.1871 100.689 36.1221 100.787 36.1221C100.853 36.1221 100.952 36.1546 100.985 36.2196C101.05 36.2846 101.083 36.3496 101.083 36.4146V41.8421C101.083 41.9071 101.05 42.0046 100.985 42.0371C100.919 42.1021 100.853 42.1346 100.787 42.1346C100.721 42.1346 100.623 42.1021 100.59 42.0371C100.524 41.9721 100.491 41.9071 100.491 41.8421V37.5521L98.6168 40.9646C98.551 41.0621 98.4852 41.1271 98.3537 41.1271C98.2221 41.1271 98.1564 41.0621 98.0906 40.9646L96.249 37.5521V41.8421C96.249 41.9071 96.2161 42.0046 96.1503 42.0371C96.0846 42.1021 96.0188 42.1346 95.953 42.1346C95.8873 42.1346 95.7886 42.1021 95.7557 42.0371C95.7228 42.0046 95.6899 41.9396 95.6899 41.8421Z" fill="#232d4a"/>
	<path d="M103.418 41.6471C103.089 41.2896 102.925 40.7696 102.925 40.0546C102.925 39.3396 103.089 38.8196 103.418 38.4946C103.747 38.1371 104.207 37.9746 104.799 37.9746C105.391 37.9746 105.852 38.1371 106.181 38.4946C106.509 38.8521 106.674 39.3721 106.674 40.0546C106.674 40.7371 106.509 41.2896 106.181 41.6471C105.852 42.0046 105.391 42.1671 104.799 42.1671C104.207 42.1996 103.747 42.0046 103.418 41.6471ZM103.517 40.0871C103.517 41.1596 103.944 41.6796 104.799 41.6796C105.654 41.6796 106.082 41.1596 106.082 40.0871C106.082 39.0146 105.654 38.4946 104.799 38.4946C103.944 38.4946 103.517 39.0146 103.517 40.0871Z" fill="#232d4a"/>
	<path d="M108.351 40.477V36.1545C108.351 36.0895 108.384 36.0245 108.417 35.9595C108.483 35.8945 108.548 35.8945 108.614 35.8945C108.68 35.8945 108.746 35.927 108.811 35.9595C108.877 36.0245 108.877 36.0895 108.877 36.1545V38.5595C108.976 38.397 109.14 38.267 109.371 38.1695C109.568 38.072 109.831 38.007 110.094 38.007C111.278 38.007 111.87 38.6895 111.87 40.087C111.87 40.802 111.705 41.322 111.409 41.6795C111.113 42.037 110.653 42.1995 110.061 42.1995C109.535 42.1995 109.107 42.037 108.811 41.7445C108.516 41.452 108.351 41.0295 108.351 40.477ZM108.91 40.477C108.91 40.867 109.009 41.192 109.239 41.387C109.436 41.582 109.732 41.6795 110.094 41.6795C110.916 41.6795 111.344 41.1595 111.344 40.087C111.344 39.567 111.245 39.1445 111.015 38.8845C110.818 38.6245 110.489 38.4945 110.094 38.4945C109.93 38.4945 109.798 38.527 109.667 38.5595C109.535 38.6245 109.403 38.6895 109.338 38.7545C109.239 38.8195 109.173 38.917 109.107 38.982C109.042 39.047 109.009 39.112 108.976 39.177L108.943 39.242V40.477H108.91Z" fill="#232d4a"/>
	<path d="M113.547 36.9024C113.547 36.6749 113.646 36.5449 113.876 36.5449C114.106 36.5449 114.205 36.6749 114.205 36.9024C114.205 36.9999 114.172 37.0974 114.106 37.1624C114.04 37.2274 113.974 37.2599 113.876 37.2599C113.777 37.2599 113.678 37.2274 113.613 37.1624C113.58 37.0649 113.547 36.9999 113.547 36.9024ZM113.613 41.8749V38.3324C113.613 38.2674 113.646 38.2024 113.678 38.1374C113.744 38.0724 113.81 38.0724 113.876 38.0724C113.942 38.0724 114.007 38.1049 114.073 38.1374C114.139 38.2024 114.139 38.2674 114.139 38.3324V41.8749C114.139 41.9399 114.106 42.0049 114.073 42.0699C114.007 42.1349 113.942 42.1349 113.876 42.1349C113.81 42.1349 113.744 42.1024 113.678 42.0699C113.613 42.0049 113.613 41.9399 113.613 41.8749Z" fill="#232d4a"/>
	<path d="M116.145 41.1273V36.1548C116.145 36.0898 116.178 36.0248 116.244 35.9598C116.309 35.8948 116.375 35.8623 116.441 35.8623C116.507 35.8623 116.573 35.8948 116.638 35.9273C116.704 35.9923 116.704 36.0573 116.704 36.1223V41.0948C116.704 41.4198 116.836 41.5823 117.066 41.5823C117.132 41.5823 117.197 41.6148 117.263 41.6473C117.329 41.7123 117.329 41.7448 117.329 41.8423C117.329 41.9398 117.296 41.9723 117.263 42.0373C117.197 42.1023 117.132 42.1023 117.066 42.1023C116.77 42.1023 116.54 42.0048 116.375 41.8423C116.211 41.7123 116.145 41.4523 116.145 41.1273Z" fill="#232d4a"/>
	<path d="M118.842 36.9024C118.842 36.6749 118.94 36.5449 119.171 36.5449C119.401 36.5449 119.5 36.6749 119.5 36.9024C119.5 36.9999 119.467 37.0974 119.401 37.1624C119.335 37.2274 119.269 37.2599 119.171 37.2599C119.072 37.2599 118.973 37.2274 118.908 37.1624C118.875 37.0649 118.842 36.9999 118.842 36.9024ZM118.908 41.8749V38.3324C118.908 38.2674 118.94 38.2024 118.973 38.1374C119.039 38.0724 119.105 38.0724 119.171 38.0724C119.236 38.0724 119.302 38.1049 119.368 38.1374C119.434 38.2024 119.434 38.2674 119.434 38.3324V41.8749C119.434 41.9399 119.401 42.0049 119.368 42.0699C119.302 42.1349 119.236 42.1349 119.171 42.1349C119.105 42.1349 119.039 42.1024 118.973 42.0699C118.908 42.0049 118.908 41.9399 118.908 41.8749Z" fill="#232d4a"/>
	<path d="M121.111 38.5598C121.045 38.4948 121.045 38.4623 121.045 38.3648C121.045 38.2673 121.078 38.2348 121.111 38.1698C121.176 38.1048 121.209 38.1048 121.308 38.1048H121.637V37.1948C121.637 37.1298 121.67 37.0648 121.736 36.9998C121.801 36.9348 121.867 36.9023 121.933 36.9023C121.999 36.9023 122.064 36.9348 122.13 36.9673C122.196 37.0323 122.196 37.0973 122.196 37.1623V38.0723H122.788C122.854 38.0723 122.919 38.1048 122.985 38.1373C123.051 38.2023 123.051 38.2348 123.051 38.3323C123.051 38.4298 123.018 38.4623 122.985 38.5273C122.919 38.5923 122.887 38.5923 122.788 38.5923H122.196V40.9973C122.196 41.1923 122.229 41.3223 122.327 41.4198C122.426 41.5173 122.558 41.5823 122.689 41.5823C122.755 41.5823 122.821 41.6148 122.887 41.6473C122.952 41.7123 122.952 41.7448 122.952 41.8423C122.952 41.9398 122.919 41.9723 122.887 42.0373C122.821 42.1023 122.755 42.1023 122.689 42.1023C122.36 42.1023 122.097 42.0048 121.9 41.8098C121.703 41.6148 121.604 41.3548 121.604 40.9973V38.6248H121.275C121.242 38.6248 121.176 38.6248 121.111 38.5598Z" fill="#232d4a"/>
	<path d="M124.268 43.7598C124.202 43.6948 124.202 43.6623 124.202 43.5648C124.202 43.4673 124.235 43.4348 124.268 43.3698C124.334 43.3048 124.367 43.3048 124.465 43.3048C124.63 43.3048 124.761 43.2723 124.86 43.2398C124.991 43.2073 125.057 43.1423 125.156 43.0773C125.222 43.0123 125.32 42.9148 125.386 42.7848C125.485 42.6223 125.55 42.5248 125.583 42.4273C125.616 42.3298 125.682 42.1673 125.781 41.9398L124.301 38.4623C124.268 38.3973 124.268 38.3648 124.268 38.3323C124.268 38.2673 124.301 38.2023 124.334 38.1373C124.399 38.0723 124.465 38.0723 124.531 38.0723C124.663 38.0723 124.761 38.1373 124.794 38.2673L126.044 41.2898L127.293 38.2673C127.326 38.1373 127.425 38.0723 127.557 38.0723C127.622 38.0723 127.688 38.1048 127.754 38.1373C127.82 38.2023 127.82 38.2673 127.82 38.3323C127.82 38.3648 127.82 38.3973 127.787 38.4623L126.044 42.5573C125.846 43.0123 125.649 43.3373 125.386 43.5323C125.123 43.7273 124.794 43.8573 124.399 43.8573C124.399 43.8248 124.334 43.7923 124.268 43.7598Z" fill="#232d4a"/>
</svg>