<svg id="Logo" xmlns="http://www.w3.org/2000/svg"  viewBox="0 0 171.892 49.248">
            <defs>
                <linearGradient id="linear-gradient" x1="0.056" y1="0.676" x2="0.423" y2="0.49" gradientUnits="objectBoundingBox">
                <stop offset="0" stop-opacity="0"></stop>
                <stop offset="1" stop-opacity="0.8"></stop>
                </linearGradient>
            </defs>
            <path id="Path_2872" data-name="Path 2872" d="M230.444,83.369c0-10.125-6.463-17.521-16.8-17.521-6.622,0-12.017,3.072-15,8.03a17.881,17.881,0,1,0,.009,18.966c2.981,4.95,8.372,8.045,14.987,8.045,6.1,0,10.844-1.723,14.361-5.242l-5.6-5.6a14.492,14.492,0,0,1-8.761,2.8c-3.589,0-6.964-2.226-7.324-5.96h24.127Zm-47.153,9.407c-5.385,0-8.976-4.093-8.976-9.407,0-5.17,3.59-9.407,8.976-9.407s8.977,4.165,8.977,9.407C192.268,88.683,188.677,92.776,183.291,92.776ZM206.6,79.85c-.144-3.877,3.589-5.96,7.036-5.96s7.181,2.083,7.037,5.96Z" transform="translate(-131.4 -52.001)" fill="#3b5160" ></path>
            <path id="Path_2873" class="text-shadow" data-name="Path 2873" d="M276.807,129.864s1.536,2.957,3.215,6.169c1.872,3.581,3.923,7.479,4.222,7.944a17.626,17.626,0,0,1-6.377,6.133l-4.582-7.291S280.528,138.731,276.807,129.864Z" transform="translate(-216.999 -103.117)" opacity="0.46" fill="url(#linear-gradient)" style="mix-blend-mode: multiply;isolation: isolate"></path>
            <path id="Path_2874" data-name="Path 2874" d="M9.893,100.175H0V64.864H9.893v3.249a11.839,11.839,0,0,1,8.448-3.178c8.16,0,13.72,5.56,13.72,13.359v21.88H22.169V80.75c0-4.622-2.239-7.366-7.077-7.51-2.022.145-3.755,1.661-5.2,4.478Z" transform="translate(0 -51.505)" fill="#314758" ></path>
            <path id="Path_2875" data-name="Path 2875" d="M494.558,65.211h5.994v8.016h-5.994V87.02c0,3.827,1.733,5.127,4.26,5.127a15.234,15.234,0,0,0,2.6-.434l2.094,7.077a10.768,10.768,0,0,1-5.777,1.661c-7.437,0-13.07-4.477-13.07-11.987V73.227h-5.272V65.211h15.164Z" transform="translate(-380.658 -51.78)" fill="#314758" ></path>
            <path id="Path_2876" data-name="Path 2876" d="M615.519,100.175V64.864h9.892v35.311Z" transform="translate(-488.746 -51.505)" fill="#314758" ></path>
            <path id="Path_2877" data-name="Path 2877" d="M715.919,94.295a18.077,18.077,0,0,1-30.69-12.853,17.625,17.625,0,0,1,17.981-17.98,17.879,17.879,0,0,1,12.781,5.2l-6.211,6.21a8.9,8.9,0,0,0-6.643-2.889c-5.416,0-9.027,4.26-9.027,9.459,0,5.344,3.611,9.46,9.027,9.46a8.736,8.736,0,0,0,6.643-2.816Z" transform="translate(-544.099 -50.391)" fill="#314758" ></path>
            <path id="Path_2878" class="letter-i-dot" data-name="Path 2878" d="M620.294,0c3.394,0,5.343,2.094,5.343,4.983,0,2.816-2.021,4.91-5.271,4.91s-5.271-2.094-5.271-4.91A4.836,4.836,0,0,1,620.294,0Z" transform="translate(-488.41)" fill="#b479d3" ></path>
        </svg>