<?xml version="1.0" ?>
<svg xmlns="http://www.w3.org/2000/svg" viewBox="0 0 1536 1533">
	<style>
		.s0 { fill: #ff2e1f } 
	</style>
	<g id="Clip-Path: Page 1" clip-path="url(#cp1)">
		<g id="Page 1">
			<path id="Path 61" fill-rule="evenodd" class="s0" d="m767.9 1532.7c-424.4 0-767.5-342.4-767.5-766 0-423.6 343.1-766.1 767.5-766.1 424.5 0 767.6 342.5 767.6 766.1 0 423.6-343.1 766-767.6 766zm468.9-395.2c-143.6-32.3-254.7-143.2-287.1-284.2h-361.2c-32.4 141-143.6 251.9-287.1 284.2 108.8 138.7 277.8 226.5 467.7 226.5 187.5 0 356.5-87.8 467.7-226.5zm-810.4-370.8c0-117-94.2-211.5-210.7-211.5-116.5 0-210.7 94.5-210.7 211.5 0 116.9 94.2 211.4 210.7 211.4 116.5 0 210.7-94.5 210.7-211.4zm-125-370.9c143.5 32.3 254.7 143.3 287.1 286.5h361.2c32.4-143.2 143.5-254.2 287.1-286.5-111.2-136.3-280.2-224.2-467.7-224.2-189.9 0-358.9 87.9-467.7 224.2zm1231.8 370.9c0-117-94.7-211.5-211.9-211.5-117.2 0-211.9 94.5-211.9 211.5 0 116.9 94.7 211.4 211.9 211.4 117.2 0 211.9-94.5 211.9-211.4z"/>
		</g>
	</g>
</svg>