<?xml version="1.0" ?>
<svg xmlns="http://www.w3.org/2000/svg"  viewBox="0 0 115.2 30.46">
	<defs>
		<style>.cls-1{fill:#fff;fill-rule:evenodd;}.cls-2{fill:#030305;}.cls-3{mask:url(#mask);}</style>
		<mask id="mask" x="0" y="0" width="115.2" height="30.46" maskUnits="userSpaceOnUse">
			<g id="mask-2">
				<polygon id="path-1" class="cls-1" points="0 30.46 115.2 30.46 115.2 0 0 0 0 30.46"/>
			</g>
		</mask>
	</defs>
	<g id="Layer_2" data-name="Layer 2">
		<g id="Layer_1-2" data-name="Layer 1">
			<g id="Page-1">
				<g id="Landing-page-Copy">
					<g id="noia-logo-white-svg">
						<polygon id="Fill-1" class="cls-2" points="56.57 8.18 59.63 8.18 66.91 19.97 66.91 8.18 69.72 8.18 69.72 24.75 66.86 24.75 59.38 12.63 59.38 24.75 56.57 24.75 56.57 8.18"/>
						<g id="Group-40">
							<path id="Fill-2" class="cls-2" d="M 84.4,21.85 C 85.05,21.85 85.3,21.61 85.3,20.97 L 85.3,11.29 C 85.3,10.65 85.05,10.41 84.4,10.41 L 79.33,10.41 C 78.65,10.41 78.41,10.65 78.41,11.29 L 78.41,21.0 C 78.41,21.64 78.65,21.88 79.33,21.88 L 84.4,21.85 M 75.51,21.13 L 75.51,11.13 C 75.51,8.87 76.6,7.79 78.89,7.79 L 84.81,7.79 C 87.11,7.79 88.19,8.87 88.19,11.13 L 88.19,21.13 C 88.19,23.4 87.11,24.47 84.81,24.47 L 78.89,24.47 C 76.6,24.47 75.51,23.4 75.51,21.13 L 75.51,21.13"/>
							<g id="Fill-4-Clipped">
								<g class="cls-3">
									<polygon id="Fill-4" class="cls-2" points="93.76 24.47 96.66 24.47 96.66 7.78 93.76 7.78 93.76 24.47"/>
								</g>
							</g>
							<g id="Fill-6-Clipped">
								<g class="cls-3">
									<path id="Fill-6" class="cls-2" d="M 109.94,17.77 L 107.62,10.36 L 105.3,17.77 L 109.94,17.77 M 110.76,20.39 L 104.5,20.39 L 103.22,24.47 L 100.22,24.47 L 105.7,7.78 L 109.76,7.78 L 115.24,24.47 L 112.0,24.47 L 110.76,20.39"/>
								</g>
							</g>
							<g id="Fill-7-Clipped">
								<g class="cls-3">
									<polygon id="Fill-7" class="cls-2" points="1.86 28.51 2.77 28.51 2.77 14.79 1.86 14.79 1.86 28.51"/>
								</g>
							</g>
							<g id="Fill-8-Clipped">
								<g class="cls-3">
									<polygon id="Fill-8" class="cls-2" points="41.23 16.24 42.14 16.24 42.14 2.3 41.23 2.3 41.23 16.24"/>
								</g>
							</g>
							<g id="Fill-9-Clipped">
								<g class="cls-3">
									<polygon id="Fill-9" class="cls-2" points="21.68 22.19 35.88 22.19 35.88 21.29 21.68 21.29 21.68 22.19"/>
								</g>
							</g>
							<g id="Fill-10-Clipped">
								<g class="cls-3">
									<polygon id="Fill-10" class="cls-2" points="2.32 22.19 9.47 22.19 9.47 21.29 2.32 21.29 2.32 22.19"/>
								</g>
							</g>
							<g id="Fill-11-Clipped">
								<g class="cls-3">
									<polygon id="Fill-11" class="cls-2" points="2.32 15.71 41.69 15.71 41.69 14.82 2.32 14.82 2.32 15.71"/>
								</g>
							</g>
							<g id="Fill-12-Clipped">
								<g class="cls-3">
									<polygon id="Fill-12" class="cls-2" points="34.91 9.24 41.69 9.24 41.69 8.34 34.91 8.34 34.91 9.24"/>
								</g>
							</g>
							<g id="Fill-13-Clipped">
								<g class="cls-3">
									<polygon id="Fill-13" class="cls-2" points="8.79 9.24 23.56 9.24 23.56 8.34 8.79 8.34 8.79 9.24"/>
								</g>
							</g>
							<g id="Fill-14-Clipped">
								<g class="cls-3">
									<polygon id="Fill-14" class="cls-2" points="34.67 22.07 35.58 22.07 35.58 7.67 34.67 7.67 34.67 22.07"/>
								</g>
							</g>
							<g id="Fill-15-Clipped">
								<g class="cls-3">
									<polygon id="Fill-15" class="cls-2" points="28.11 28.21 29.02 28.21 29.02 14.39 28.11 14.39 28.11 28.21"/>
								</g>
							</g>
							<g id="Fill-16-Clipped">
								<g class="cls-3">
									<polygon id="Fill-16" class="cls-2" points="21.55 22.69 22.46 22.69 22.46 8.12 21.55 8.12 21.55 22.69"/>
								</g>
							</g>
							<g id="Fill-17-Clipped">
								<g class="cls-3">
									<polygon id="Fill-17" class="cls-2" points="14.99 15.63 15.9 15.63 15.9 1.17 14.99 1.17 14.99 15.63"/>
								</g>
							</g>
							<g id="Fill-18-Clipped">
								<g class="cls-3">
									<polygon id="Fill-18" class="cls-2" points="8.43 22.55 9.34 22.55 9.34 8.06 8.43 8.06 8.43 22.55"/>
								</g>
							</g>
							<g id="Fill-19-Clipped">
								<g class="cls-3">
									<path id="Fill-19" class="cls-2" d="M 4.66,21.7 A 2.32,2.32 0.0 0,0 2.33,19.4 A 2.3,2.3 0.0 1,0 2.33,23.99 A 2.31,2.31 0.0 0,0 4.66,21.7"/>
								</g>
							</g>
							<g id="Fill-20-Clipped">
								<g class="cls-3">
									<path id="Fill-20" class="cls-2" d="M 11.22,21.7 A 2.33,2.33 0.0 1,0 8.89,24.0 A 2.32,2.32 0.0 0,0 11.22,21.71"/>
								</g>
							</g>
							<g id="Fill-21-Clipped">
								<g class="cls-3">
									<path id="Fill-21" class="cls-2" d="M 24.34,21.7 A 2.33,2.33 0.0 1,0 22.0,24.0 A 2.32,2.32 0.0 0,0 24.33,21.71"/>
								</g>
							</g>
							<g id="Fill-22-Clipped">
								<g class="cls-3">
									<path id="Fill-22" class="cls-2" d="M 30.9,21.7 A 2.33,2.33 0.0 1,0 28.57,24.0 A 2.32,2.32 0.0 0,0 30.9,21.7"/>
								</g>
							</g>
							<g id="Fill-23-Clipped">
								<g class="cls-3">
									<path id="Fill-23" class="cls-2" d="M 37.46,21.7 A 2.33,2.33 0.0 1,0 35.13,24.0 A 2.32,2.32 0.0 0,0 37.46,21.71"/>
								</g>
							</g>
							<g id="Fill-24-Clipped">
								<g class="cls-3">
									<path id="Fill-24" class="cls-2" d="M 4.66,28.16 A 2.31,2.31 0.0 0,0 2.33,25.87 A 2.3,2.3 0.0 1,0 2.33,30.46 A 2.32,2.32 0.0 0,0 4.66,28.16"/>
								</g>
							</g>
							<g id="Fill-25-Clipped">
								<g class="cls-3">
									<path id="Fill-25" class="cls-2" d="M 30.9,28.16 A 2.33,2.33 0.0 1,0 28.57,30.46 A 2.31,2.31 0.0 0,0 30.9,28.16"/>
								</g>
							</g>
							<g id="Fill-26-Clipped">
								<g class="cls-3">
									<path id="Fill-26" class="cls-2" d="M 4.66,15.23 A 2.32,2.32 0.0 0,0 2.33,12.93 A 2.3,2.3 0.0 1,0 2.33,17.53 A 2.32,2.32 0.0 0,0 4.66,15.23"/>
								</g>
							</g>
							<g id="Fill-27-Clipped">
								<g class="cls-3">
									<path id="Fill-27" class="cls-2" d="M 11.22,15.23 A 2.33,2.33 0.0 1,0 8.89,17.53 A 2.32,2.32 0.0 0,0 11.22,15.23"/>
								</g>
							</g>
							<g id="Fill-28-Clipped">
								<g class="cls-3">
									<path id="Fill-28" class="cls-2" d="M 17.78,15.23 A 2.33,2.33 0.0 1,0 15.45,17.53 A 2.32,2.32 0.0 0,0 17.78,15.23"/>
								</g>
							</g>
							<g id="Fill-29-Clipped">
								<g class="cls-3">
									<path id="Fill-29" class="cls-2" d="M 24.34,15.23 A 2.33,2.33 0.0 1,0 22.0,17.53 A 2.32,2.32 0.0 0,0 24.33,15.23"/>
								</g>
							</g>
							<g id="Fill-30-Clipped">
								<g class="cls-3">
									<path id="Fill-30" class="cls-2" d="M 30.9,15.23 A 2.33,2.33 0.0 1,0 28.57,17.53 A 2.32,2.32 0.0 0,0 30.9,15.23"/>
								</g>
							</g>
							<g id="Fill-31-Clipped">
								<g class="cls-3">
									<path id="Fill-31" class="cls-2" d="M 37.46,15.23 A 2.33,2.33 0.0 1,0 35.13,17.53 A 2.32,2.32 0.0 0,0 37.46,15.23"/>
								</g>
							</g>
							<g id="Fill-32-Clipped">
								<g class="cls-3">
									<path id="Fill-32" class="cls-2" d="M 44.0,15.23 A 2.33,2.33 0.0 1,0 41.67,17.53 A 2.32,2.32 0.0 0,0 44.0,15.23"/>
								</g>
							</g>
							<g id="Fill-33-Clipped">
								<g class="cls-3">
									<path id="Fill-33" class="cls-2" d="M 11.22,8.76 A 2.33,2.33 0.0 1,0 8.89,11.06 A 2.31,2.31 0.0 0,0 11.22,8.76"/>
								</g>
							</g>
							<g id="Fill-34-Clipped">
								<g class="cls-3">
									<path id="Fill-34" class="cls-2" d="M 17.78,8.76 A 2.33,2.33 0.0 1,0 15.45,11.06 A 2.31,2.31 0.0 0,0 17.78,8.76"/>
								</g>
							</g>
							<g id="Fill-35-Clipped">
								<g class="cls-3">
									<path id="Fill-35" class="cls-2" d="M 24.34,8.76 A 2.33,2.33 0.0 1,0 22.0,11.06 A 2.31,2.31 0.0 0,0 24.33,8.76"/>
								</g>
							</g>
							<g id="Fill-36-Clipped">
								<g class="cls-3">
									<path id="Fill-36" class="cls-2" d="M 37.46,8.76 A 2.33,2.33 0.0 1,0 35.13,11.06 A 2.31,2.31 0.0 0,0 37.46,8.76"/>
								</g>
							</g>
							<g id="Fill-37-Clipped">
								<g class="cls-3">
									<path id="Fill-37" class="cls-2" d="M 44.0,8.76 A 2.33,2.33 0.0 1,0 41.67,11.06 A 2.31,2.31 0.0 0,0 44.0,8.76"/>
								</g>
							</g>
							<g id="Fill-38-Clipped">
								<g class="cls-3">
									<path id="Fill-38" class="cls-2" d="M 17.78,2.3 A 2.33,2.33 0.0 0,0 13.12,2.3 A 2.33,2.33 0.0 0,0 17.78,2.3"/>
								</g>
							</g>
							<g id="Fill-39-Clipped">
								<g class="cls-3">
									<path id="Fill-39" class="cls-2" d="M 44.0,2.3 A 2.33,2.33 0.0 0,0 39.34,2.3 A 2.33,2.33 0.0 0,0 44.0,2.3"/>
								</g>
							</g>
						</g>
					</g>
				</g>
			</g>
		</g>
	</g>
</svg>