<?xml version="1.0" ?>
<!-- Created with Inkscape (http://www.inkscape.org/) -->
<svg xmlns="http://www.w3.org/2000/svg" xmlns:sodipodi="http://sodipodi.sourceforge.net/DTD/sodipodi-0.dtd" xmlns:inkscape="http://www.inkscape.org/namespaces/inkscape" id="svg2440" sodipodi:version="0.32" inkscape:version="0.46" viewBox="0 0 205.34679 250" version="1.0" sodipodi:docname="NW_Logo.svg" inkscape:output_extension="org.inkscape.output.svg.inkscape">
	<defs id="defs2443">
		<inkscape:perspective sodipodi:type="inkscape:persp3d" inkscape:vp_x="0 : 526.18109 : 1" inkscape:vp_y="0 : 1000 : 0" inkscape:vp_z="744.09448 : 526.18109 : 1" inkscape:persp3d-origin="372.04724 : 350.78739 : 1" id="perspective2447"/>
	</defs>
	<sodipodi:namedview inkscape:window-height="744" inkscape:window-width="1280" inkscape:pageshadow="2" inkscape:pageopacity="0.0" guidetolerance="10.0" gridtolerance="10.0" objecttolerance="10.0" borderopacity="1.0" bordercolor="#666666" pagecolor="#ffffff" id="base" showgrid="false" inkscape:zoom="0.9625" inkscape:cx="112.49912" inkscape:cy="234.30516" inkscape:window-x="-4" inkscape:window-y="-4" inkscape:current-layer="svg2440"/>
	<path style="fill:#d80034;fill-opacity:1" d="M 112.09595,98.81387 L 112.36671,101.22367 C 112.58181,103.09609 113.1512,103.6973 114.93896,103.90422 C 116.48496,104.08317 117.55112,104.93382 118.18812,106.50355 C 118.7089,107.78689 123.20757,122.05678 128.17928,138.20991 C 133.15099,154.36304 137.72999,167.89225 138.35998,168.2917 C 141.80939,170.47877 142.9846,168.34052 152.06059,143.24611 C 157.11152,129.28066 158.89774,125.19386 159.28997,126.75663 C 160.47284,131.46954 174.56291,166.80439 175.72529,167.96679 C 178.84057,171.08206 180.00466,168.53879 189.72375,137.26224 C 194.87862,120.67359 199.41293,106.43939 199.82321,105.63711 C 200.2335,104.83482 201.65338,104.05503 202.96407,103.90422 C 204.85523,103.68662 205.34678,103.18636 205.34678,101.46735 L 205.34678,99.30125 L 194.67871,99.05756 L 184.01065,98.81387 L 184.28141,101.22367 C 184.48049,102.95697 185.09949,103.70508 186.50167,103.90422 C 189.28591,104.29965 189.08248,106.01697 184.11895,123.91362 C 181.73623,132.50482 179.76483,140.22942 179.73259,141.08 C 179.65238,143.19536 179.41626,142.61787 171.58262,121.82874 C 162.87551,98.72161 162.85481,98.69566 160.5084,99.03048 C 158.04784,99.38161 157.60513,100.32261 150.32771,121.50383 C 146.99105,131.2153 144.02068,139.74243 143.72109,140.45725 C 143.06575,142.0208 143.15471,142.2803 137.95383,123.12841 C 132.52176,103.12509 132.74405,104.58564 134.97544,103.60638 C 136.0351,103.14134 136.89785,101.9916 136.89785,101.03413 C 136.89785,99.39313 136.2457,99.28556 124.4969,99.05756 L 112.09595,98.81387 z" id="path2459"/>
	<path style="fill:#d80034;fill-opacity:1" d="M 10.207771,96.99976 C 9.56232,97.05985 9.129436,97.51097 8.826879,98.29942 C 8.580435,98.94165 8.093201,113.17463 7.743826,129.92456 C 7.316748,150.39987 6.79101,160.63759 6.146324,161.17063 C 5.618934,161.60668 4.0289559,162.09239 2.5993264,162.25368 C 0.4825471,162.49252 0,162.95365 0,164.71763 L 0,166.88373 L 13.429853,166.88373 L 26.859706,166.88373 L 26.859706,164.7447 C 26.859706,162.92903 26.360742,162.51118 23.610548,162.06415 C 21.818248,161.77282 20.074481,161.23572 19.738635,160.89987 C 18.730457,159.89169 17.873139,148.59188 17.816216,135.44813 L 17.762063,123.07425 L 26.209874,131.95528 C 30.85617,136.8398 40.834221,146.99214 48.385377,154.50986 C 59.793998,165.86794 62.540113,168.1834 64.631167,168.1834 C 66.015195,168.1834 67.201778,168.08592 67.257569,167.96679 C 67.313359,167.84765 67.623626,154.10371 67.961554,137.4247 C 68.299484,120.74569 68.872489,106.44388 69.234141,105.63711 C 69.604196,104.81159 71.102512,104.05392 72.645756,103.90422 C 74.922198,103.68339 75.380464,103.26555 75.380464,101.46735 L 75.380464,99.30125 L 62.383833,99.30125 L 49.387201,99.30125 L 49.387201,101.46735 C 49.387201,103.33672 49.83507,103.67554 52.582206,103.90422 C 54.332973,104.04996 56.130873,104.6348 56.589501,105.20388 C 57.048128,105.77295 57.684221,114.81056 57.997469,125.29451 L 58.566072,144.35624 L 46.814951,132.22605 C 40.355602,125.55444 30.139712,114.9297 24.097921,108.6155 C 16.022972,100.17648 12.144125,96.81951 10.207771,96.99976 z" id="path2455"/>
	<path style="fill:#d80034;fill-opacity:1;fill-rule:evenodd;stroke:none;stroke-width:1px;stroke-linecap:butt;stroke-linejoin:miter;stroke-opacity:1" d="M 82.763296,66.35901 L 33.141411,76.39329 L 82.689385,86.65346 L 94.137403,250 L 105.07988,86.61568 L 154.75792,76.44073 L 104.99631,66.35901 L 94.12775,-1.4210855e-14" id="path3247" sodipodi:nodetypes="cccccccc"/>
</svg>