<?xml version="1.0" ?>
<svg xmlns="http://www.w3.org/2000/svg" data-name="Layer 1" viewBox="0 0 429.7 258">
	<defs>
		<style>
      .cls-1 {
        fill: #000;
        stroke-width: 0px;
      }
    </style>
	</defs>
	<circle class="cls-1" cx="369.2" cy="104.3" r="8.9"/>
	<g>
		<polygon class="cls-1" points="253.3 115.3 232.8 115.2 231.4 120.5 251.9 120.5 253.3 115.3"/>
		<path class="cls-1" d="M370.1,86.5H66.9c-4.7,0-7.3,4.1-8.5,8.6l-16.6,67.9c-1.3,5.8,3.8,8.6,8.5,8.6h283.6c4.7,0,7.4-4.3,8.5-8.6l11.3-40.3h16.3c10,0,18.1-8.1,18.1-18.1s-8.1-18.1-18.1-18.1ZM293.7,98.3h13.7s-11.4,42.8-11.4,42.8h-21l11.4-42.9h7.3ZM266.9,98.3c7.5,0,10.1,4.3,7.8,12.8l-3.5,13.2c-2,7.5-6.7,11.2-14.2,11.2h-1.4l.7,5.7h-22l-.8-5.7h-6s-1.5,5.7-1.5,5.7h-22l11.5-43h51.5ZM162,98.1h33.9c7.5,0,10.2,4.4,7.9,13l-8,30.1h-22l6.9-25.9h-12.6s-6.9,25.9-6.9,25.9h-22.1l8.1-30.2c2.3-8.6,7.2-12.9,14.8-12.9ZM73.5,98h34.2c0,0,4.2,32.4,4.2,32.4l8.6-32.3h6.3s3.4,0,3.4,0h12.1s-11.5,43.1-11.5,43.1h-39.5l-2.5-19.2-5.1,19.2h-21.9l11.5-43.2ZM72.4,158.5h-8.1s-7,0-7,0l3.5-13.2h21.9l-3.5,13.3h-6.8ZM93.6,158.5l-1.7-13.3h37.9l-3.6,13.3h-32.6ZM179.7,158.6h-33.9c-7.6,0-10.3-4.3-8-12.9v-.6h56.8l-.2.7c-2.3,8.5-7.2,12.8-14.7,12.8ZM213.4,158.7h-14.2s3.6-13.5,3.6-13.5h22l-3.6,13.5h-7.8ZM248.8,158.8h-10.5s-1.8,0-1.8,0l-1.8-13.5h21.9l1.6,13.6h-9.4ZM320.6,158.9h-39c-7.6,0-10.3-4.4-8-13l.2-.7h61.6l-.2.9c-2.3,8.5-7.2,12.8-14.6,12.8ZM336.6,141.2h-20l11.4-42.8h6s3.3,0,3.3,0h10.7s-11.4,42.8-11.4,42.8ZM369.2,118.8c-8,0-14.6-6.5-14.6-14.6s6.5-14.6,14.6-14.6,14.6,6.5,14.6,14.6c0,8.1-6.5,14.6-14.6,14.6Z"/>
	</g>
</svg>