<?xml version="1.0" ?>
<svg xmlns="http://www.w3.org/2000/svg" fill="currentColor" aria-hidden="true" viewBox="0 0 177 36">
	<path fill-rule="evenodd" clip-rule="evenodd" d="M0.625953 8.54254L15.1304 0.167049C15.5183 -0.055683 15.9945 -0.055683 16.3823 0.167049L30.8868 8.54254C31.2746 8.76527 31.5127 9.17809 31.5127 9.62547V26.3745C31.5127 26.8219 31.2746 27.2347 30.8868 27.4575L16.3823 35.8329C15.9945 36.0557 15.5183 36.0557 15.1304 35.8329L0.625953 27.4575C0.238093 27.2347 0 26.8219 0 26.3745V9.62547C0 9.17809 0.238093 8.76527 0.625953 8.54254ZM17.8224 18.0278L22.3039 20.9157H22.3058L24.057 17.999L22.3346 15.1342L17.8224 18.0278V18.0278ZM28.0181 24.6003L25.3338 20.1304L24.1472 22.1042L28.0181 24.6003ZM9.21073 15.0843L7.43464 18.0432H7.43272L9.19153 20.9541L13.7671 18.0221L9.21265 15.0862L9.21073 15.0843ZM3.48883 24.6138L7.34631 22.1407L6.15777 20.1707L3.48883 24.6138V24.6138ZM3.3813 11.3248L6.15393 15.9176L7.36935 13.8958L3.3813 11.3248V11.3248ZM15.7583 4.1839L10.3436 13.2026H10.3417L15.7986 16.7203L21.2056 13.2525L15.7602 4.1839H15.7583ZM21.1749 22.7955L15.7948 19.3277L10.3263 22.8319L15.7525 31.8199L21.1749 22.7955ZM27.9317 11.5475L24.1818 13.9515L25.3357 15.8696L27.9317 11.5475V11.5475ZM17.9779 3.61747L23.0527 12.0678L27.5842 9.16465L17.9779 3.61747V3.61747ZM8.49837 12.0141L4.01109 9.12241L13.5386 3.62131L8.49837 12.0141V12.0141ZM2.19852 22.5074L4.87898 18.0451L2.19852 13.6039V22.5074ZM13.5271 32.371L8.48493 24.0166H8.48301L4.01685 26.8814L13.5271 32.371ZM27.5093 26.8776L23.022 23.984L17.9798 32.3806L27.5093 26.8776ZM29.3257 13.4926L26.6165 17.999L29.3257 22.5074V13.4906V13.4926ZM42.7856 11.1884H46.6086L53.0428 21.9372H53.3078V11.1884H55.8059V24.8135H51.8888L45.5122 14.178H45.2664V24.8135H42.7876V11.1884H42.7856ZM160.113 11.1884H162.763V24.8135H160.113V11.1884V11.1884ZM61.0554 24.1971C58.7609 22.9798 57.6434 20.6776 57.6588 17.999C57.6434 15.3531 58.782 13.026 61.0554 11.8105C62.1211 11.2422 63.3173 10.9599 64.6422 10.9599C68.7185 10.91 71.6966 13.8804 71.6256 17.999C71.6928 22.1503 68.7454 25.0804 64.6422 25.0381C63.3173 25.0381 62.123 24.7578 61.0554 24.1952V24.1971ZM66.8848 22.0313C68.2904 21.1864 68.8414 19.6887 68.8433 18.001C68.8433 16.3132 68.2904 14.8155 66.8848 13.9707C65.6694 13.2122 63.5995 13.218 62.3899 13.9611C60.9882 14.7982 60.464 16.3266 60.4602 18.001C60.464 19.6753 60.9901 21.2056 62.3899 22.0409C63.5976 22.7839 65.6694 22.7897 66.8848 22.0313ZM71.4336 11.1884H74.3675L78.6435 21.5973H78.8144L83.0713 11.1884H85.9668L80.1009 24.8135H77.263L71.4355 11.1884H71.4336ZM94.7033 24.8135H97.6737L91.9019 11.1884H89.0639L83.2729 24.8135H86.1492L87.2936 21.9929H93.5589L94.7033 24.8135ZM88.269 19.5908L90.3504 14.4622H90.5021L92.5835 19.5908H88.269V19.5908ZM116.243 20.3339C115.627 23.454 113.198 25.0631 109.983 25.0401C108.659 25.0401 107.476 24.7559 106.435 24.1894C101.921 21.8085 101.994 14.1992 106.474 11.8221C108.662 10.5471 112.27 10.695 114.146 12.2195C115.206 13.0394 115.899 14.1915 116.224 15.6796L113.597 16.3362C113.104 14.5448 111.955 13.3812 110.001 13.4023C109.142 13.4023 108.405 13.5847 107.787 13.9515C106.379 14.8059 105.901 16.3285 105.894 18.0394C105.896 19.7233 106.416 21.2133 107.804 22.0505C109.016 22.8108 111.278 22.8089 112.345 21.87C112.938 21.3842 113.367 20.6565 113.632 19.6849L116.239 20.3339H116.243ZM134.885 22.4095V19.0973H141.905V16.6742H134.885V13.5905H142.418V11.1865H132.237V24.8116H142.664V22.4076H134.885V22.4095ZM157.013 14.3854C155.707 12.0506 153.345 11.1904 150.54 11.1865H145.154V24.8116H150.371C152.011 24.8116 153.389 24.5351 154.505 23.9782C155.622 23.4233 156.458 22.638 157.013 21.6223C158.122 19.683 158.124 16.3343 157.013 14.3835V14.3854ZM153.929 21.2459C152.556 22.7014 149.872 22.3788 147.804 22.4095V13.5905H150.484C152.049 13.5905 153.205 13.9764 153.956 14.7445C155.457 16.1442 155.467 19.8481 153.927 21.244L153.929 21.2459ZM176.576 11.1884H164.919V13.5924H169.424V24.8135H172.074V13.5924H176.578V11.1884H176.576ZM130.344 24.8096L126.967 19.37C127.188 19.3009 127.397 19.2183 127.597 19.1223C129.778 18.1642 130.4 15.1803 129.242 13.2372C128.382 11.8163 126.859 11.1769 125.116 11.1846H118.397V24.8096H121.047V19.6426H124.083L127.163 24.8096H130.342H130.344ZM121.049 13.5886H124.947C125.615 13.5886 126.139 13.7441 126.517 14.0513C127.28 14.6158 127.272 16.2249 126.508 16.8047C126.122 17.1331 125.59 17.2963 124.908 17.2963H121.047V13.5866L121.049 13.5886Z"/>
</svg>