<?xml version="1.0" ?>
<svg xmlns="http://www.w3.org/2000/svg" xmlns:v="https://vecta.io/nano">
	<g transform="matrix(.5045 0 0 .5045 -.651362 -.459638)">
		<circle id="c01" r="63.424" cy="64.335" cx="64.715" fill="#232449"/>
		<path id="s06" d="M18.855 90.812l.004-52.954 45.856-26.475 45.86 26.475v52.954l-45.86 26.475z" fill="#393a5b"/>
		<path id="s05" d="M18.857 76.919l12.044-46.014 45.844-12.578 33.828 33.408-12.036 46.022-45.86 12.586z" fill="#64667f"/>
		<path id="s04" d="M21.94 65.179L42.597 27.7l42.809-.829 22.084 36.69-20.675 37.422-42.777.817z" fill="#a7a7b5"/>
		<path id="s03" d="M26.716 56.5l25.791-29 38.005 7.855 12.202 36.844-25.783 28.972-38.013-7.839z" fill="#d3d3db"/>
		<path id="s02" d="M32.918 49.523L61.66 29.389l31.797 14.864 3.055 34.909-28.75 20.117-31.797-14.843z" fill="#e7e8ec"/>
		<path id="s01" d="M38.673 45.492l29.312-13.149 26.082 18.879-3.274 31.942-29.356 13.161-26.075-18.843z" fill="#fff"/>
		<path id="pND" d="M63.52 27.4v39.01H44.46V30.19c0-7.88-4.96-11.56-11.06-11.56-6.99 0-11.82 4.07-11.82 13.09v34.69H2.52V2.87h19.06v5.97c3.43-4.7 9.79-7.75 18.17-7.75 12.84 0 23.76 9.15 23.76 26.31zm9.91 7.24c0-18.94 15-33.55 33.68-33.55s33.68 14.61 33.68 33.55-15 33.55-33.68 33.55-33.68-14.61-33.68-33.55zm48.29 0c0-9.02-6.35-15-14.61-15s-14.61 5.97-14.61 15 6.35 14.99 14.61 14.99 14.61-5.97 14.61-14.99zm88.95-31.77l-23.51 63.54h-21.6L142.05 2.87h21.1l13.22 40.29 13.22-40.29h21.1zm69.64 0v63.54h-19.06v-5.97c-4.19 4.83-10.42 7.75-18.94 7.75-16.65 0-30.37-14.61-30.37-33.55s13.73-33.55 30.37-33.55c8.51 0 14.74 2.92 18.94 7.75V2.87zm-19.06 31.77c0-9.53-6.35-15.51-15.12-15.51s-15.12 5.97-15.12 15.51 6.35 15.5 15.12 15.5 15.12-5.97 15.12-15.5zM50.18 115.22h2.976v-22.4H50.18zm28.096-5.696L66.756 92.82h-2.4v22.4h2.976V98.484l11.52 16.736h2.4v-22.4h-2.976zm35.806 6.112c2.304 0 4.16-.576 5.6-1.728 1.44-1.184 2.144-2.752 2.144-4.704 0-1.408-.32-2.56-1.12-3.36-.544-.64-.832-.992-1.728-1.472-.864-.48-1.12-.64-2.24-1.056l-1.184-.448-1.312-.416c-1.728-.544-2.944-1.088-3.648-1.6s-1.056-1.248-1.056-2.24c0-2.048 1.632-3.328 4.064-3.328s4.128 1.152 5.088 3.456l2.496-1.44c-1.312-2.944-4.032-4.896-7.584-4.896-1.952 0-3.616.576-4.992 1.728-1.376 1.12-2.048 2.656-2.048 4.608 0 1.632.672 2.944 1.408 3.744.352.384.896.768 1.632 1.152l1.856.832 2.144.704c1.888.608 3.264 1.152 4.064 1.696s1.216 1.344 1.216 2.4c0 2.08-1.664 3.456-4.736 3.456-3.104 0-5.12-1.344-5.984-4.064l-2.56 1.472c1.184 3.424 4.288 5.504 8.48 5.504zm17.508-.416h2.976v-22.4h-2.976zm17.152-22.4h-2.976v22.4h12.64v-2.816h-9.664zm19.04 22.4h2.976v-22.4h-2.976zm24.706.416c2.048 0 3.936-.48 5.664-1.472s3.072-2.336 4-4l-2.592-1.472c-1.28 2.432-4 4.032-7.072 4.032-2.592 0-4.704-.832-6.336-2.496s-2.432-3.744-2.432-6.208c0-2.496.8-4.576 2.432-6.24s3.744-2.496 6.336-2.496c3.072 0 5.792 1.6 7.072 4.064l2.592-1.504c-1.92-3.328-5.568-5.44-9.664-5.44-3.392 0-6.208 1.12-8.416 3.36s-3.296 4.992-3.296 8.256 1.088 6.016 3.296 8.256 5.024 3.36 8.416 3.36zm18.168-11.616c0 3.232 1.12 5.952 3.36 8.224s4.992 3.392 8.224 3.392 5.984-1.12 8.224-3.392c2.272-2.272 3.392-4.992 3.392-8.224s-1.12-5.984-3.392-8.224c-2.24-2.272-4.992-3.392-8.224-3.392s-5.984 1.12-8.224 3.392c-2.24 2.24-3.36 4.992-3.36 8.224zm20.224 0c0 2.464-.832 4.512-2.496 6.208-1.632 1.664-3.68 2.496-6.144 2.496s-4.512-.832-6.176-2.496c-1.632-1.696-2.464-3.744-2.464-6.208s.832-4.544 2.464-6.208c1.664-1.696 3.712-2.528 6.176-2.528s4.512.832 6.144 2.528c1.664 1.664 2.496 3.744 2.496 6.208z" transform="matrix(.742088 0 0 .742088 173.16073 25.93394)" fill="#232449"/>
	</g>
</svg>