<?xml version="1.0" ?>
<svg xmlns="http://www.w3.org/2000/svg" version="1.2" viewBox="0 0 1568 981">
	<defs>
		<clipPath clipPathUnits="userSpaceOnUse" id="cp1">
			<path d="m-1916.99-652.66h12699.2v17962.47h-12699.2z"/>
		</clipPath>
	</defs>
	<style>
		.s0 { fill: #fdb913 } 
		.s1 { fill: #1a55a6 } 
	</style>
	<g id="Clip-Path: Page 1" clip-path="url(#cp1)">
		<g id="Page 1">
			<path id="Path 81" class="s0" d="m378.7 499.3h332.6l181.3 187.8v-187.8h315.6v481.1h-315.6l-180.2-168.5v168.5h-333.7z"/>
			<path id="Path 82" fill-rule="evenodd" class="s1" d="m1208.2 316.9v136.6h-829.5v-136.6h-378.5l793.3-316.8 774.1 316.8zm-633.4 610.2q-1.1-10.7-4.3-13.9-3.2-3.2-16-3.2h-71.4l-2.1 2.1q-4.3 4.3-5.4 6.4-1 3.2-1 8.6h-3.2v-29.9l76.7-65.1h-53.3q-12.8 0-17 4.3-3.2 2.1-3.2 11.7h-3.2v-40.5h3.2q1 10.7 4.2 13.9 3.2 3.2 16 3.2h85.3v2.1l-88.5 75.7h62.9q12.8 0 17.1-4.2 3.2-2.2 3.2-11.8h3.2v40.6z"/>
			<path id="Path 83" fill-rule="evenodd" class="s1" d="m574.9 803.3q-1.1-9.6-4.3-11.7-2.1-3.2-12.8-3.2h-69.3q-8.5 1.1-11.7 3.2-2.2 3.2-3.2 11.7h-3.2v-46.9q0-14.9 3.2-24.5 7.4-18.2 25.6-19.2 11.7 1 18.1 8.5 6.4 8.5 8.5 22.4l41.6-35.2q3.2-3.2 5.3-6.4 1.1-3.2 2.2-7.5h3.2v26.7l-50.1 42.7v7.4h31.9q9.6 0 11.8-2.1 2.1-3.2 3.2-12.8h3.2v46.9zm-56.5-57.6q-5.4-13.8-20.3-13.8-13.9 0-19.2 11.7-2.1 6.4-2.1 17.1 0 7.4 1 9.6 1.1 1 4.3 1h39.5q0-18.1-3.2-25.6zm-47-135.4q2.2-10.7 2.2-11.8l-1.1-4.2-4.3-3.2v-3.2l36.3-2.2v4.3q-10.7 3.2-17.1 8.5-12.8 10.7-12.8 28.8 0 18.2 13.9 28.8 12.8 11.8 36.3 11.8 22.3 0 35.1-11.8 12.8-11.7 12.8-30.9 0-12.8-6.4-24.5-3.2-6.4-9.6-13.9l3.2-3.2q6.4 6.4 11.8 14.9 8.5 13.9 8.5 31 0 26.6-17.1 43.7-14.9 13.9-38.3 13.9-23.5 0-39.5-15-17.1-17-17.1-43.7 0-8.5 3.2-18.1z"/>
		</g>
	</g>
</svg>