<?xml version="1.0" ?>
<svg xmlns="http://www.w3.org/2000/svg" viewBox="0 0 3511.05 3511.05">
	<defs>
		<style>.cls-1{fill:#020100;}.cls-2{fill:#fcf101;}</style>
	</defs>
	<rect class="cls-1" width="3511.05" height="3511.05"/>
	<rect class="cls-2" x="203.53" y="203.53" width="3104" height="3104"/>
	<path class="cls-1" d="M 622.27,878.38 C 733.71,988.05 837.64,1090.48 941.76,1192.7 C 1046.11,1295.14 1150.67,1397.36 1258.36,1502.85 L 1258.36,492.8 L 1075.57,492.8 L 1075.57,1097.0 L 441.57,474.46 L 441.57,1482.79 L 622.27,1482.79 L 622.27,878.38"/>
	<path class="cls-1" d="M 2177.35,995.41 C 2183.51,1234.7 2339.92,1430.61 2572.18,1489.89 C 2782.45,1543.56 3038.09,1457.39 3132.7,1298.84 L 2989.08,1195.58 C 2808.62,1400.07 2577.33,1342.71 2466.27,1223.85 C 2335.41,1083.85 2341.66,867.62 2482.0,737.7 C 2612.15,617.19 2834.42,596.3 2985.42,788.41 L 3133.74,677.1 C 3016.8,503.5 2761.9,426.56 2541.66,496.1 C 2320.31,566.07 2171.57,769.9 2177.35,995.41"/>
	<path class="cls-1" d="M 1668.56,990.65 C 1694.1,1029.6 1706.87,1068.28 1705.56,1115.5 C 1702.56,1220.01 1704.63,1324.72 1704.63,1429.35 L 1704.63,1482.14 L 1887.31,1482.14 C 1887.31,1351.72 1888.09,1224.7 1886.77,1097.72 C 1886.44,1065.03 1893.95,1037.63 1911.91,1009.99 C 2016.0,849.68 2118.67,688.41 2221.62,527.34 C 2228.17,517.08 2232.93,505.69 2240.16,491.67 L 2031.3,491.67 L 1796.3,875.58 L 1560.54,491.1 L 1349.72,491.1 C 1361.41,511.1 1368.94,525.1 1377.49,538.48 C 1474.22,689.39 1570.27,840.76 1668.56,990.65"/>
	<path class="cls-1" d="M 1001.18,2779.27 C 907.63,2849.27 803.59,2853.35 698.71,2811.27 C 646.83,2790.47 600.27,2756.87 548.04,2727.27 L 377.31,2861.94 C 404.31,2885.52 425.85,2908.37 451.21,2925.83 C 636.67,3053.52 837.01,3072.25 1045.49,2993.16 C 1174.22,2944.32 1259.71,2849.26 1304.29,2720.83 C 1376.61,2512.52 1270.12,2295.83 1067.03,2236.29 C 1043.43,2229.37 1019.03,2225.02 990.03,2218.34 L 1324.41,1807.48 L 437.41,1807.48 L 437.41,2006.81 L 914.37,2006.81 L 637.0,2364.08 L 640.68,2371.43 C 646.4,2370.27 652.13,2369.16 657.83,2367.93 C 759.83,2345.93 860.76,2345.38 957.44,2389.58 C 1125.87,2466.58 1148.71,2668.88 1001.18,2779.27"/>
	<polygon class="cls-1" points="2590.56 3010.67 2815.82 3010.67 2815.82 1781.25 2428.67 2009.31 2428.67 2242.48 2590.56 2136.43 2590.56 3010.67"/>
	<polygon class="cls-1" points="1777.33 3011.17 1998.88 3011.17 1998.88 1782.9 1615.98 2008.94 1615.98 2241.96 1777.33 2136.05 1777.33 3011.17"/>
</svg>